<svg xmlns="http://www.w3.org/2000/svg" xmlns:xlink="http://www.w3.org/1999/xlink" viewBox="0 0 300 300"><defs><style>.cls-1,.cls-10,.cls-11,.cls-12,.cls-6,.cls-7,.cls-8,.cls-9{fill:none;}.cls-2{fill:#a4f5ce;}.cls-3{fill:#f2faff;}.cls-4{fill:#ecf3f7;opacity:0.4;mix-blend-mode:multiply;}.cls-5{clip-path:url(#clip-path);}.cls-6{stroke:#ffd9e5;}.cls-10,.cls-11,.cls-12,.cls-6,.cls-7,.cls-8,.cls-9{stroke-linecap:round;stroke-miterlimit:10;stroke-width:5px;}.cls-7{stroke:#99eaff;}.cls-8{stroke:#ff7c73;}.cls-9{stroke:#e8aef2;}.cls-10{stroke:#f5b282;}.cls-11{stroke:#a4f5ce;}.cls-12{stroke:#f9ed7f;}</style><clipPath id="clip-path"><rect class="cls-1" x="29.88" y="61.75" width="109.65" height="185.03"/></clipPath><symbol id="sprinkles" data-name="sprinkles" viewBox="0 0 192.24 263.14"><rect class="cls-2" x="81.89" y="19.96" width="5.62" height="13.76"/><rect class="cls-2" x="62.35" y="26.84" width="44.7" height="18.06"/><path class="cls-2" d="M102.88,33.72H66.49A32.58,32.58,0,0,0,39.61,47.51a54.76,54.76,0,1,0,90.81.94A33,33,0,0,0,102.88,33.72Z"/><rect class="cls-3" x="29.88" y="61.75" width="109.65" height="185.03"/><rect class="cls-2" x="72.97" width="22.8" height="24.44"/><rect class="cls-4" x="93.14" y="61.75" width="46.32" height="185.03"/><g class="cls-5"><line class="cls-6" x1="32.43" y1="44.88" x2="34.48" y2="54.68"/><line class="cls-7" x1="44.42" y1="81.83" x2="53.32" y2="77.25"/><line class="cls-8" x1="112.65" y1="90.84" x2="118.65" y2="82.83"/><line class="cls-7" x1="107.12" y1="50.38" x2="97.64" y2="47.17"/><line class="cls-9" x1="99.74" y1="76.64" x2="97.01" y2="67.01"/><line class="cls-10" x1="119.53" y1="25.83" x2="109.68" y2="27.6"/><line class="cls-11" x1="62.82" y1="59.46" x2="72.34" y2="56.38"/><line class="cls-12" x1="73.44" y1="87.62" x2="79.26" y2="79.47"/><line class="cls-11" x1="53.72" y1="10.28" x2="44.03" y2="7.79"/><line class="cls-8" x1="88.21" y1="12.37" x2="85.78" y2="22.07"/><line class="cls-9" x1="63.38" y1="32.72" x2="56.35" y2="39.85"/><line class="cls-6" x1="32.81" y1="214.68" x2="34.87" y2="224.47"/><line class="cls-7" x1="44.81" y1="251.63" x2="53.71" y2="247.05"/><line class="cls-8" x1="113.03" y1="260.64" x2="119.04" y2="252.63"/><line class="cls-7" x1="107.5" y1="220.18" x2="98.02" y2="216.97"/><line class="cls-9" x1="100.12" y1="246.44" x2="97.4" y2="236.81"/><line class="cls-10" x1="119.91" y1="195.62" x2="110.06" y2="197.4"/><line class="cls-11" x1="63.21" y1="229.26" x2="72.73" y2="226.18"/><line class="cls-12" x1="73.83" y1="257.41" x2="79.64" y2="249.27"/><line class="cls-11" x1="54.1" y1="180.08" x2="44.41" y2="177.59"/><line class="cls-8" x1="88.6" y1="182.16" x2="86.16" y2="191.87"/><line class="cls-9" x1="63.76" y1="202.52" x2="56.73" y2="209.64"/><line class="cls-6" x1="102.64" y1="153.85" x2="104.69" y2="163.64"/><line class="cls-7" x1="114.63" y1="190.8" x2="123.53" y2="186.22"/><line class="cls-8" x1="182.86" y1="199.81" x2="188.86" y2="191.8"/><line class="cls-7" x1="177.33" y1="159.35" x2="167.85" y2="156.14"/><line class="cls-9" x1="169.94" y1="185.61" x2="167.22" y2="175.98"/><line class="cls-10" x1="189.74" y1="134.79" x2="179.89" y2="136.57"/><line class="cls-11" x1="133.03" y1="168.43" x2="142.55" y2="165.35"/><line class="cls-12" x1="143.65" y1="196.58" x2="149.46" y2="188.44"/><line class="cls-11" x1="123.93" y1="119.25" x2="114.23" y2="116.76"/><line class="cls-8" x1="158.42" y1="121.33" x2="155.99" y2="131.04"/><line class="cls-9" x1="133.59" y1="141.69" x2="126.56" y2="148.81"/><line class="cls-6" x1="48.46" y1="81.45" x2="38.66" y2="83.5"/><line class="cls-7" x1="11.51" y1="93.44" x2="16.09" y2="102.34"/><line class="cls-8" x1="2.5" y1="161.67" x2="10.5" y2="167.67"/><line class="cls-7" x1="42.96" y1="156.14" x2="46.17" y2="146.66"/><line class="cls-9" x1="16.7" y1="148.76" x2="26.33" y2="146.03"/><line class="cls-10" x1="67.51" y1="168.55" x2="65.74" y2="158.7"/><line class="cls-11" x1="33.88" y1="111.84" x2="36.96" y2="121.37"/><line class="cls-12" x1="5.72" y1="122.46" x2="13.87" y2="128.28"/><line class="cls-11" x1="83.05" y1="102.74" x2="85.55" y2="93.05"/><line class="cls-8" x1="80.97" y1="137.23" x2="71.26" y2="134.8"/><line class="cls-9" x1="60.62" y1="112.4" x2="53.49" y2="105.37"/></g><rect class="cls-2" x="26.66" y="58.52" width="116.08" height="6.45"/><rect class="cls-2" x="26.66" y="243.55" width="116.08" height="6.45"/></symbol></defs><title>tool_spray_yellow copy</title><g id="Nav"><use width="192.24" height="263.14" transform="translate(65.3 25)" xlink:href="#sprinkles"/></g></svg>