<svg xmlns="http://www.w3.org/2000/svg" xmlns:xlink="http://www.w3.org/1999/xlink" viewBox="0 0 300 300"><defs><style>.cls-1{fill:#e53935;}.cls-2{fill:#f64b4b;}.cls-3{fill:#c62828;opacity:0.25;}</style><symbol id="crayon" data-name="crayon" viewBox="0 0 61.59 275.27"><path class="cls-1" d="M32.76,0H28.84A11.37,11.37,0,0,0,17.65,9.41L4.71,58.49H56.9L44,9.41A11.4,11.4,0,0,0,32.76,0Z"/><rect class="cls-1" x="0.01" y="54.25" width="61.58" height="221.02"/><rect class="cls-1" x="0.01" y="54.25" width="61.58" height="221.02"/><rect class="cls-2" x="0.01" y="71.98" width="61.58" height="185.57"/><rect class="cls-1" y="225.33" width="61.58" height="7.51"/><rect class="cls-1" y="237.74" width="61.58" height="7.51"/><rect class="cls-1" x="0.01" y="84.42" width="61.58" height="7.51"/><rect class="cls-1" x="0.01" y="96.83" width="61.58" height="7.51"/><rect class="cls-1" x="9.4" y="132.58" width="42.8" height="76.33" rx="4.42" ry="4.42"/><rect class="cls-3" y="54.25" width="30.36" height="220.99"/><path class="cls-3" d="M15.54,54.25H5.89L17.78,9.36A11.38,11.38,0,0,1,29,0h3.92a11.59,11.59,0,0,1,2.84.41,11.34,11.34,0,0,0-8.32,9Z"/></symbol></defs><title>tool_crayon_red</title><g id="Nav"><use id="crayon-3" data-name="crayon" width="61.59" height="275.27" transform="translate(119.2 12.36)" xlink:href="#crayon"/></g></svg>