<svg xmlns="http://www.w3.org/2000/svg" xmlns:xlink="http://www.w3.org/1999/xlink" viewBox="0 0 40 40"><defs><style>.cls-1{fill:#fff;}.cls-2{fill:#332e2e;}.cls-3{fill:#e1b77e;}.cls-4{fill:#76777a;}.cls-5{fill:#231f20;opacity:0.2;mix-blend-mode:multiply;}.cls-6{fill:#e53935;}.cls-7{fill:none;}</style><symbol id="New_Symbol_52" data-name="New Symbol 52" viewBox="0 0 40 40"><circle class="cls-1" cx="15.76" cy="24.24" r="2.12"/><circle class="cls-1" cx="24.24" cy="24.24" r="2.12"/><path class="cls-2" d="M16.6,25.52a.84.84,0,0,0-.84-.83.83.83,0,0,0-.83.83.84.84,0,0,0,.83.84h0A.85.85,0,0,0,16.6,25.52Z"/><path class="cls-2" d="M25.07,25.52a.83.83,0,0,0-.83-.83.84.84,0,0,0-.84.83.85.85,0,0,0,.84.84h0A.84.84,0,0,0,25.07,25.52Z"/><path class="cls-3" d="M35.8,1.06H32.52a2.82,2.82,0,0,0-2.81,2.71H25.17a1,1,0,0,1-1-1V.93a.93.93,0,1,0-1.85,0V2.81a2.82,2.82,0,0,0,2.82,2.82H29.7V6.76a1,1,0,0,1-1,1H23.9a2.83,2.83,0,0,0-2.82,2.82v3A10,10,0,0,0,20,13.47c-.36,0-.71,0-1,.06v-3A2.83,2.83,0,0,0,16.1,7.72H11.26a1,1,0,0,1-1-1V5.63h3.85A2.82,2.82,0,0,0,17,2.81V.93a.93.93,0,1,0-1.86,0V2.81a1,1,0,0,1-1,1H10.29A2.82,2.82,0,0,0,7.48,1.06H4.2a.93.93,0,0,0,0,1.86H7.48a1,1,0,0,1,1,1V6.76a2.82,2.82,0,0,0,2.82,2.82h.17v1.47a1,1,0,0,1-1,1H7.74a1,1,0,0,1-1-1V8.73a.93.93,0,0,0-1.86,0v2.32a2.82,2.82,0,0,0,2.82,2.82h2.73a2.82,2.82,0,0,0,2.82-2.82V9.58H16.1a1,1,0,0,1,1,1v3.37a6.46,6.46,0,0,0-3.83,2.81,11.86,11.86,0,0,0-1.86,4.14L7.93,16.18a.46.46,0,0,0-.83.22c-.35,3.21-.86,12.17,4.3,12.8,1.65,14.7,15.38,14.14,17.09-.11,4.44-1.2,4.05-9.34,3.71-12.54a.51.51,0,0,0-.93-.24l-3,4c-.53-1.65-1.37-4.19-3.21-5.34a7.61,7.61,0,0,0-2.16-1.05V10.54a1,1,0,0,1,1-1h2.81v1.47a2.82,2.82,0,0,0,2.82,2.82h2.73a2.82,2.82,0,0,0,2.82-2.82V8.73a.93.93,0,1,0-1.86,0v2.32a1,1,0,0,1-1,1H29.53a1,1,0,0,1-1-1V9.58h.17a2.82,2.82,0,0,0,2.82-2.82V3.88a1,1,0,0,1,1-1H35.8a.93.93,0,0,0,0-1.86Zm-20,25.3h0a2.12,2.12,0,1,1,2.12-2.12,2.11,2.11,0,0,1-2.12,2.12Zm8.48,0h0a2.12,2.12,0,1,1,2.11-2.12A2.11,2.11,0,0,1,24.24,26.36Z"/><path class="cls-4" d="M16.1,7.72H11.26a1,1,0,0,1-1-1V5.63h3.85A2.82,2.82,0,0,0,17,2.81V.93a.93.93,0,1,0-1.86,0V2.81a1,1,0,0,1-1,1H10.29A2.82,2.82,0,0,0,7.48,1.06H4.2a.93.93,0,0,0,0,1.86H7.48a1,1,0,0,1,1,1V6.76a2.82,2.82,0,0,0,2.82,2.82h.17v1.47a1,1,0,0,1-1,1H7.74a1,1,0,0,1-1-1V8.73a.93.93,0,0,0-1.86,0v2.32a2.82,2.82,0,0,0,2.82,2.82h2.73a2.82,2.82,0,0,0,2.82-2.82V9.58H16.1a1,1,0,0,1,1,1v6.1a.93.93,0,0,0,1.86,0v-6.1A2.83,2.83,0,0,0,16.1,7.72Z"/><path class="cls-4" d="M35.8,1.06H32.52a2.82,2.82,0,0,0-2.81,2.71H25.17a1,1,0,0,1-1-1V.93a.93.93,0,1,0-1.85,0V2.81a2.82,2.82,0,0,0,2.82,2.82H29.7V6.76a1,1,0,0,1-1,1H23.9a2.83,2.83,0,0,0-2.82,2.82v6.1a.93.93,0,0,0,1.86,0v-6.1a1,1,0,0,1,1-1h2.81v1.47a2.82,2.82,0,0,0,2.82,2.82h2.73a2.82,2.82,0,0,0,2.82-2.82V8.73a.93.93,0,1,0-1.86,0v2.32a1,1,0,0,1-1,1H29.53a1,1,0,0,1-1-1V9.58h.17a2.82,2.82,0,0,0,2.82-2.82V3.88a1,1,0,0,1,1-1H35.8a.93.93,0,0,0,0-1.86Z"/><path class="cls-5" d="M20.33,37A3.06,3.06,0,0,1,17.27,34h0a3.07,3.07,0,0,1,3.07-3.07h0A3.06,3.06,0,0,1,23.4,34h0A3.07,3.07,0,0,1,20.33,37Z"/><path class="cls-6" d="M19.6,36.44a3.07,3.07,0,0,1-3.06-3.07h0a3.06,3.06,0,0,1,3.08-3.06h0a3.07,3.07,0,0,1,3.06,3.07h0a3.06,3.06,0,0,1-3.08,3.06Z"/><rect class="cls-7" width="40" height="40"/></symbol></defs><title>sticker_cat_characters</title><g id="Layer_2" data-name="Layer 2"><g id="Selected"><use id="New_Symbol_52-3" data-name="New Symbol 52" width="40" height="40" xlink:href="#New_Symbol_52"/></g></g></svg>