<svg xmlns="http://www.w3.org/2000/svg" xmlns:xlink="http://www.w3.org/1999/xlink" viewBox="0 0 40 40"><defs><style>.cls-1{fill:#969696;}.cls-2{fill:#fc3d86;}.cls-3{fill:#fff;}.cls-4{fill:#f38eb0;}.cls-5{fill:none;}</style><symbol id="New_Symbol_57" data-name="New Symbol 57" viewBox="0 0 40 40"><path class="cls-1" d="M15.38,39.72a7.92,7.92,0,0,1-.78-.26A7.92,7.92,0,0,0,15.38,39.72Z"/><path class="cls-1" d="M16.47,39.94a6.6,6.6,0,0,1-.85-.15A6.6,6.6,0,0,0,16.47,39.94Z"/><path class="cls-1" d="M17.6,40a6.93,6.93,0,0,1-.91,0A6.93,6.93,0,0,0,17.6,40Z"/><polygon class="cls-2" points="28.78 12.78 13.2 15.93 13.81 18.64 29.35 15.5 28.78 12.78"/><path class="cls-2" d="M30.77,22.36,29.86,18,14.34,21.09l0,.12,0,.1c.21,1.8-1.42,4.11-2.5,5.11l0,.07a7.53,7.53,0,0,0-2.39,3.09,5.9,5.9,0,0,0-.46,2.2,5.89,5.89,0,0,1,.46-2.19c.07-.17.15-.31.23-.47a8.72,8.72,0,0,1,2.81-.47c4.88,0,9.75,4,9.75,8.91,0,.21,0,.41,0,.61a7.68,7.68,0,0,1-3.64,1.72A7.58,7.58,0,0,0,23.39,37l0,0,5.21-7.93a7.17,7.17,0,0,0,.68-.78l.28-.32v0a7.59,7.59,0,0,0,.73-1.35,6.35,6.35,0,0,0,.44-4.26Z"/><path class="cls-1" d="M18.58,39.9a7.93,7.93,0,0,1-1,.1A7.93,7.93,0,0,0,18.58,39.9Z"/><path class="cls-3" d="M27.76,8.44A3.92,3.92,0,0,0,28,3.17V.87A.86.86,0,0,0,27.17,0a.87.87,0,0,0-.87.87V1.94a3.9,3.9,0,0,0-2.12-.17L12.49,3.93A4,4,0,0,0,9.4,8.6h0a3.92,3.92,0,0,0,2.83,3"/><polygon class="cls-2" points="12.23 11.61 12.65 13.49 28.27 10.33 27.87 8.42 12.23 11.61"/><path class="cls-4" d="M22.31,37.56c0-4.92-4.87-8.91-9.75-8.91a8.72,8.72,0,0,0-2.81.47c-.08.16-.16.3-.23.47a5.89,5.89,0,0,0-.46,2.19C9,35,11.38,38.13,14.5,39.43l.1,0a7.92,7.92,0,0,0,.78.26l.24.07a6.6,6.6,0,0,0,.85.15l.22,0a6.93,6.93,0,0,0,.91,0h0a7.93,7.93,0,0,0,1-.1h.06a7.68,7.68,0,0,0,3.64-1.72C22.29,38,22.31,37.77,22.31,37.56Z"/><polygon class="cls-4" points="28.27 10.33 12.65 13.49 13.2 15.93 28.78 12.78 28.27 10.33"/><path class="cls-4" d="M29.35,15.5,13.81,18.64l.49,2.18a.41.41,0,0,0,0,.11.76.76,0,0,1,0,.16L29.86,18Z"/><rect class="cls-5" width="40" height="40"/></symbol></defs><title>sticker_cat_decor</title><g id="Layer_2" data-name="Layer 2"><g id="Art"><use id="New_Symbol_57-3" data-name="New Symbol 57" width="40" height="40" xlink:href="#New_Symbol_57"/></g></g></svg>