<?xml version="1.0" encoding="utf-8"?>
<!-- Generator: Adobe Illustrator 23.0.1, SVG Export Plug-In . SVG Version: 6.00 Build 0)  -->
<svg version="1.1" id="Layer_1" xmlns="http://www.w3.org/2000/svg" xmlns:xlink="http://www.w3.org/1999/xlink" x="0px" y="0px"
	 viewBox="0 0 306 380" style="enable-background:new 0 0 306 380;" xml:space="preserve">
<style type="text/css">
	.st0{fill:#039BE5;}
	.st1{opacity:0.5;fill:#0277BD;enable-background:new    ;}
	.st2{fill:none;stroke:#039BE5;stroke-miterlimit:10;}
	.st3{fill:#1565C0;}
	.st4{fill:#97E2FC;}
	.st5{fill:#29B6F6;}
	.st6{clip-path:url(#SVGID_2_);}
	.st7{fill:none;stroke:#039BE5;stroke-width:6.6647;stroke-linecap:round;stroke-miterlimit:10;}
	.st8{fill:#332E2E;}
	.st9{fill:#F9CE1D;}
	.st10{fill:#32A558;}
	.st11{fill:#81D4FA;}
	.st12{fill:#0277BD;}
	.st13{fill:#00ADEE;}
	.st14{fill:none;stroke:#81D4FA;stroke-width:0.9997;stroke-miterlimit:10;}
	.st15{fill:#32A658;}
	.st16{fill:none;stroke:#81D4FA;stroke-width:0.3332;stroke-miterlimit:10;}
	.st17{fill:none;stroke:#1976D2;stroke-width:4;stroke-linecap:round;stroke-linejoin:round;stroke-miterlimit:10;}
	.st18{opacity:0.2;fill:#FFFFFF;enable-background:new    ;}
	.st19{opacity:0.2;fill:#039BE5;enable-background:new    ;}
	.st20{clip-path:url(#SVGID_4_);}
	.st21{fill:#26A89B;}
	.st22{fill:#34875D;}
	.st23{fill:#FFDF00;}
	.st24{fill:#DA4637;}
	.st25{opacity:0.1;}
	.st26{fill:#914295;}
	.st27{fill:#48B980;}
	.st28{fill:none;stroke:#E53935;stroke-width:6.2574;stroke-linecap:round;stroke-miterlimit:10;}
	.st29{fill:#E53935;}
	.st30{fill:#FFFFFF;}
	.st31{fill:none;stroke:#29B6F6;stroke-width:6.2574;stroke-linecap:round;stroke-miterlimit:10;}
	.st32{clip-path:url(#SVGID_6_);fill:#97E2FC;}
	.st33{clip-path:url(#SVGID_8_);}
	.st34{opacity:0.2;fill:#29B6F6;enable-background:new    ;}
	.st35{clip-path:url(#SVGID_10_);fill:#81D4FA;}
	.st36{opacity:0.2;clip-path:url(#SVGID_12_);fill:#29B6F6;enable-background:new    ;}
	.st37{clip-path:url(#SVGID_14_);fill:none;stroke:#29B6F6;stroke-width:0.383;stroke-miterlimit:10;}
	.st38{clip-path:url(#SVGID_16_);}
	.st39{fill:none;stroke:#29B6F6;stroke-width:0.383;stroke-miterlimit:10;}
	.st40{clip-path:url(#SVGID_18_);}
	.st41{clip-path:url(#SVGID_20_);fill:none;stroke:#29B6F6;stroke-width:0.383;stroke-miterlimit:10;}
	.st42{clip-path:url(#SVGID_22_);fill:none;stroke:#29B6F6;stroke-width:0.383;stroke-miterlimit:10;}
	.st43{clip-path:url(#SVGID_24_);fill:none;stroke:#29B6F6;stroke-width:0.383;stroke-miterlimit:10;}
	.st44{clip-path:url(#SVGID_26_);}
	.st45{clip-path:url(#SVGID_28_);}
	.st46{clip-path:url(#SVGID_30_);}
	.st47{clip-path:url(#SVGID_32_);}
	.st48{clip-path:url(#SVGID_34_);}
	.st49{clip-path:url(#SVGID_36_);}
	.st50{clip-path:url(#SVGID_38_);}
	.st51{fill:#F6C9AC;}
	.st52{opacity:0.1;fill:#221F1F;enable-background:new    ;}
	.st53{fill:#EEEEEE;}
	.st54{opacity:5.000000e-02;fill:#221F1F;enable-background:new    ;}
	.st55{fill:#1976D2;}
	.st56{opacity:0.1;fill:#FFFFFF;enable-background:new    ;}
	.st57{fill:none;stroke:#29B6F6;stroke-width:5.6216;stroke-linecap:round;stroke-miterlimit:10;}
	.st58{fill:none;stroke:#81D4FA;stroke-width:5.6216;stroke-linecap:round;stroke-miterlimit:10;}
	.st59{clip-path:url(#SVGID_40_);fill:#81D4FA;}
	.st60{clip-path:url(#SVGID_42_);fill:#81D4FA;}
</style>
<path class="st0" d="M181.4,20.9h102.3v149.5H181.4V20.9z"/>
<path class="st1" d="M283.7,170.4H181.4V20.9l14.5,17.9l73.2,113.1L283.7,170.4z"/>
<path class="st2" d="M49.7,60.6l20.4-21.9l20.4,21.9"/>
<circle class="st3" cx="70.1" cy="38.7" r="1.1"/>
<path class="st2" d="M216.5,201.5l20.4-21.9l20.4,21.9"/>
<circle class="st3" cx="236.9" cy="179.6" r="1.1"/>
<path class="st2" d="M192.6,46.1l40.3-43.2l40.3,43.2"/>
<circle class="st3" cx="232.9" cy="2.9" r="2.2"/>
<path class="st4" d="M192.7,34.9h79v120.4h-79L192.7,34.9z"/>
<path class="st5" d="M192.7,142.4h79v12.8h-79L192.7,142.4z"/>
<path class="st0" d="M2.7,48.2h133v133H2.7V48.2z"/>
<path class="st1" d="M135.7,181.2H2.7v-133L135.7,181.2z"/>
<path class="st4" d="M15.7,61.2h106.9v106.9H15.7V61.2z"/>
<g>
	<defs>
		<rect id="SVGID_1_" x="15.7" y="61.2" width="106.9" height="106.9"/>
	</defs>
	<clipPath id="SVGID_2_">
		<use xlink:href="#SVGID_1_"  style="overflow:visible;"/>
	</clipPath>
	<g class="st6">
		<g>
			<g>
				<g>
					<path class="st7" d="M51.4,174.5c0,6,0,30.3,0,38"/>
					<g>
						<path class="st8" d="M66.2,215.9c0,3.6-2.9,6.4-6.4,6.4h0c-2.8,0-5-2.2-5-5v-4.8h-6.7v14.6c0,0.9,0.7,1.7,1.7,1.7l16.3,0
							c3.5,0,6.5-2.7,6.6-6.2C72.8,218.9,69.8,215.9,66.2,215.9z"/>
						<g>
							<path class="st9" d="M54.8,219h-2.5c-0.9,0-1.7-0.7-1.7-1.7s0.7-1.7,1.7-1.7h2.5c0.9,0,1.7,0.7,1.7,1.7S55.7,219,54.8,219z"
								/>
						</g>
					</g>
				</g>
				<g>
					<path class="st7" d="M39.8,174.5c0,6,0,30.3,0,38"/>
					<g>
						<path class="st8" d="M25,215.9c0,3.6,2.9,6.4,6.4,6.4h0c2.8,0,5-2.2,5-5v-4.8h6.7v14.6c0,0.9-0.7,1.7-1.7,1.7l-16.3,0
							c-3.5,0-6.5-2.7-6.6-6.2C18.4,218.9,21.3,215.9,25,215.9z"/>
						<g>
							<path class="st9" d="M36.4,219h2.5c0.9,0,1.7-0.7,1.7-1.7s-0.7-1.7-1.7-1.7h-2.5c-0.9,0-1.7,0.7-1.7,1.7S35.5,219,36.4,219z"
								/>
						</g>
					</g>
				</g>
			</g>
			<polygon class="st10" points="39.8,174.5 51.4,174.5 45.6,134.9 			"/>
			<g>
				<path class="st7" d="M44.9,134.9c-19.3,5.8-24,25.7-20.5,37.4"/>
				<g>
					<circle class="st5" cx="26.5" cy="179.2" r="7.1"/>
				</g>
				<g>
					<g>
						<path class="st11" d="M33.6,169.7c-0.5-1.8-2.4-2.8-4.2-2.2l-11.5,3.5c-1.8,0.5-2.8,2.4-2.2,4.2c0.5,1.8,2.4,2.8,4.2,2.2
							l11.5-3.5C33.1,173.3,34.1,171.4,33.6,169.7z"/>
					</g>
				</g>
			</g>
			<g>
				<path class="st7" d="M46.1,134.9c19.3,5.8,24,25.7,20.5,37.4"/>
				<g>
					<circle class="st5" cx="64.5" cy="179.2" r="7.1"/>
				</g>
				<g>
					<g>
						<path class="st11" d="M73.2,170.9l-11.1-3.3c-0.1,0-0.2-0.1-0.3-0.1c-1.8-0.5-3.6,0.5-4.2,2.2c-0.5,1.7,0.4,3.5,2.1,4.1l0,0
							l11.5,3.5c1.8,0.5,3.6-0.5,4.2-2.2S75,171.4,73.2,170.9z"/>
					</g>
				</g>
			</g>
			<path class="st5" d="M45.6,182c4.6,0,10.9-2.2,10.9-11.7s6.8-12.6,6.8-21.8c0-9.2-6-16.9-17.7-16.9s-17.7,7.7-17.7,16.9
				c0,9.2,6.8,12.3,6.8,21.8S41,182,45.6,182z"/>
			<g>
				<path class="st12" d="M58,162.9H33.1c0.9,2,1.5,4.3,1.6,7.1h21.8C56.5,167.2,57.2,165,58,162.9z"/>
				<rect x="42.5" y="162.9" class="st13" width="7.1" height="7.1"/>
			</g>
			<g>
				<g>
					<path class="st0" d="M31.9,121.1l5.3,5.3c2.9,2.9,2.9,7.6,0,10.5l-5.3-5.3C29,128.7,29,124,31.9,121.1z"/>
					<path class="st0" d="M31.9,131.6l5.3,5.3c2.9,2.9,2.9,7.6,0,10.5l-5.3-5.3C29,139.2,29,134.5,31.9,131.6z"/>
					<path class="st0" d="M31.9,142.1l5.3,5.3c2.9,2.9,2.9,7.6,0,10.5l-5.3-5.3C29,149.7,29,145,31.9,142.1z"/>
					<path class="st0" d="M33.4,165.3v-3.7c0-2.1,1.7-3.7,3.7-3.7v3.7C37.1,163.7,35.5,165.3,33.4,165.3z"/>
					<path class="st0" d="M40.9,165.3v-3.7c0-2.1-1.7-3.7-3.7-3.7v3.7C37.1,163.7,38.8,165.3,40.9,165.3z"/>
				</g>
				<g>
					<g>
						<g>
							<circle class="st11" cx="45.6" cy="77.1" r="4.9"/>
							<polygon class="st5" points="59.8,109.9 45.6,81.5 31.4,109.9 							"/>
						</g>
						<g>
							<path class="st11" d="M59.2,114c-1.8,0-3.4-1.1-4-2.9c-1.3-4.2-5.2-7-9.6-7s-8.3,2.8-9.6,7c-0.7,2.2-3,3.4-5.2,2.7
								c-2.2-0.7-3.4-3-2.7-5.2c2.4-7.7,9.5-12.9,17.5-12.9s15.1,5.2,17.5,12.9c0.7,2.2-0.5,4.5-2.7,5.2C60,113.9,59.6,114,59.2,114
								z"/>
						</g>
					</g>
					<path class="st0" d="M28.8,117.4c0-9.3,7.5-16.8,16.8-16.8s16.8,7.5,16.8,16.8H28.8z"/>
					<g>
						<path class="st5" d="M64.4,107.5l-7.3,7.3c-0.7,0.7-1.1,1.6-1.1,2.7c0,2.1,1.7,3.8,3.8,3.8c1,0,2-0.4,2.7-1.1
							C67,115.5,64.4,107.5,64.4,107.5z"/>
						<path class="st5" d="M26.8,107.5c0,0-2.6,8,1.9,12.6c0.7,0.7,1.6,1.1,2.7,1.1c2.1,0,3.8-1.7,3.8-3.8c0-1-0.4-2-1.1-2.7
							L26.8,107.5z"/>
					</g>
					<path class="st14" d="M59.8,119.5c1.1,0,1.9,0.9,1.9,1.9s-0.9,1.9-1.9,1.9c-1.1,0-1.9-0.9-1.9-1.9"/>
					<path class="st14" d="M31.4,119.5c-1.1,0-1.9,0.9-1.9,1.9s0.9,1.9,1.9,1.9s1.9-0.9,1.9-1.9"/>
					<circle class="st5" cx="45.6" cy="117.4" r="14.2"/>
					<g>
						<g>
							<path class="st12" d="M42.7,113.3c0,1.6-1.3,2.9-2.9,2.9c-1.6,0-2.9-1.3-2.9-2.9c0-1.6,1.3-2.9,2.9-2.9
								C41.4,110.4,42.7,111.7,42.7,113.3z"/>
							<path class="st12" d="M54.2,113.3c0,1.6-1.3,2.9-2.9,2.9c-1.6,0-2.9-1.3-2.9-2.9c0-1.6,1.3-2.9,2.9-2.9
								C52.9,110.4,54.2,111.7,54.2,113.3z"/>
						</g>
						<path class="st11" d="M54.2,119c0,4.8-3.9,8.6-8.6,8.6S37,123.8,37,119H54.2z"/>
					</g>
				</g>
				<path class="st0" d="M45.6,103.2c-4.9,0-9.1,2.4-11.7,6.2c2.6,0.4,5.3,0,7.9-1.1c1.5-0.7,2.7-1.5,3.8-2.6c1.1,1,2.4,1.9,3.8,2.6
					c2.6,1.2,5.3,1.5,7.9,1.1C54.7,105.6,50.5,103.2,45.6,103.2z"/>
			</g>
		</g>
		<g>
			<polygon class="st15" points="84.8,176.4 96.5,176.4 90.7,118.2 			"/>
			<g>
				<g>
					<path class="st7" d="M96.5,176.4c0,6,0,56.9,0,64.6"/>
					<g>
						<path class="st8" d="M111.3,244.3c0,3.6-2.9,6.4-6.4,6.4h0c-2.8,0-5-2.2-5-5V241h-6.7v14.6c0,0.9,0.7,1.7,1.7,1.7h16.3
							c3.5,0,6.5-2.7,6.6-6.2C117.9,247.3,114.9,244.3,111.3,244.3z"/>
						<g>
							<path class="st9" d="M99.8,247.4h-2.5c-0.9,0-1.7-0.7-1.7-1.7s0.7-1.7,1.7-1.7h2.5c0.9,0,1.7,0.7,1.7,1.7
								S100.8,247.4,99.8,247.4z"/>
						</g>
					</g>
				</g>
				<g>
					<path class="st7" d="M84.8,176.4c0,6,0,56.9,0,64.6"/>
					<g>
						<path class="st8" d="M70.1,244.3c0,3.6,2.9,6.4,6.4,6.4h0c2.8,0,5-2.2,5-5V241h6.7v14.6c0,0.9-0.7,1.7-1.7,1.7H70.2
							c-3.5,0-6.5-2.7-6.6-6.2C63.5,247.3,66.4,244.3,70.1,244.3z"/>
						<g>
							<path class="st9" d="M81.5,247.4H84c0.9,0,1.7-0.7,1.7-1.7s-0.7-1.7-1.7-1.7h-2.5c-0.9,0-1.7,0.7-1.7,1.7
								S80.6,247.4,81.5,247.4z"/>
						</g>
					</g>
				</g>
			</g>
			<path class="st0" d="M90.7,114.8c-7.2,0-13,5.8-13,13v43c0,7.2,5.8,13,13,13c7.2,0,13-5.8,13-13v-43
				C103.7,120.7,97.9,114.8,90.7,114.8z"/>
			<g>
				<rect x="77.7" y="158.1" class="st12" width="26" height="7.1"/>
				<rect x="87.1" y="158.1" class="st13" width="7.1" height="7.1"/>
			</g>
			<g>
				<g>
					<g>
						<circle class="st11" cx="90.7" cy="60.3" r="4.9"/>
						<polygon class="st0" points="104.9,93.7 90.7,65.3 76.5,93.7 						"/>
					</g>
					<g>
						<path class="st11" d="M104.2,100.5c-1.8,0-3.4-1.1-4-2.9c-1.3-4.2-5.2-7-9.6-7c-4.4,0-8.3,2.8-9.6,7c-0.7,2.2-3,3.4-5.2,2.7
							c-2.2-0.7-3.4-3-2.7-5.2c2.4-7.7,9.5-12.9,17.5-12.9s15.1,5.2,17.5,12.9c0.7,2.2-0.5,4.5-2.7,5.2
							C105.1,100.5,104.6,100.5,104.2,100.5z"/>
					</g>
				</g>
				<g>
					<path class="st5" d="M109.5,90.7l-7.3,7.3c-0.7,0.7-1.1,1.6-1.1,2.7c0,2.1,1.7,3.8,3.8,3.8c1,0,2-0.4,2.7-1.1
						C112.1,98.7,109.5,90.7,109.5,90.7z"/>
					<path class="st5" d="M79.1,98l-7.3-7.3c0,0-2.6,8,1.9,12.6c0.7,0.7,1.6,1.1,2.7,1.1c2.1,0,3.8-1.7,3.8-3.8
						C80.2,99.6,79.8,98.6,79.1,98z"/>
				</g>
				<circle class="st5" cx="90.7" cy="100.6" r="14.2"/>
				<g>
					<g>
						<path class="st12" d="M87.8,96.5c0,1.6-1.3,2.9-2.9,2.9c-1.6,0-2.9-1.3-2.9-2.9c0-1.6,1.3-2.9,2.9-2.9
							C86.5,93.7,87.8,95,87.8,96.5z"/>
						<path class="st11" d="M99.3,102.3c0,4.8-3.9,8.6-8.6,8.6c-4.8,0-8.6-3.9-8.6-8.6H99.3z"/>
						<path class="st12" d="M99.3,96.5c0,1.6-1.3,2.9-2.9,2.9c-1.6,0-2.9-1.3-2.9-2.9c0-1.6,1.3-2.9,2.9-2.9
							C98,93.7,99.3,95,99.3,96.5z"/>
					</g>
				</g>
			</g>
			<circle class="st16" cx="96.4" cy="96.5" r="4.7"/>
			<circle class="st16" cx="84.8" cy="96.5" r="4.7"/>
			<line class="st16" x1="89.5" y1="96.5" x2="91.7" y2="96.5"/>
			<g>
				<path class="st7" d="M90.7,118.2c-25.1,4-21.7,35.9-18.9,53.4"/>
				<g>
					<circle class="st5" cx="72.9" cy="178.6" r="7.1"/>
				</g>
				<g>
					<g>
						<path class="st11" d="M81,170.1c-0.3-1.8-2-3.1-3.8-2.8l-11.9,1.9c-1.8,0.3-3.1,2-2.8,3.8c0.3,1.8,2,3.1,3.8,2.8l11.9-1.9
							C80,173.6,81.3,171.9,81,170.1z"/>
					</g>
				</g>
			</g>
			<g>
				<path class="st7" d="M90.7,118.2c25.1,4,21.7,35.9,18.9,53.4"/>
				<g>
					<circle class="st5" cx="108.5" cy="178.6" r="7.1"/>
				</g>
				<g>
					<g>
						<path class="st11" d="M116.1,169.2l-11.9-1.9c-1.8-0.3-3.5,1-3.8,2.8c-0.3,1.8,1,3.5,2.8,3.8l11.9,1.9c1.8,0.3,3.5-1,3.8-2.8
							C119.1,171.2,117.9,169.5,116.1,169.2z"/>
					</g>
				</g>
			</g>
		</g>
		<line class="st14" x1="90.6" y1="117.4" x2="90.6" y2="158.1"/>
	</g>
	<g class="st6">
		<line class="st17" x1="78.5" y1="120.8" x2="78.5" y2="208.4"/>
		<path class="st17" d="M67.5,120.9V136c0,6.1,4.9,11,11,11s11-4.9,11-11v-15.1"/>
	</g>
</g>
<path class="st0" d="M171.3,196h133v133h-133L171.3,196z"/>
<path class="st1" d="M304.3,329h-133V196L304.3,329z"/>
<path class="st18" d="M287,311h-97.8v-97.6L287,311z"/>
<path class="st4" d="M189.2,213.4h97.7v97.7h-97.7V213.4z"/>
<path class="st19" d="M286.9,213.4h-97.7V311h5.2v-92.5h92.5V213.4z"/>
<g>
	<defs>
		<rect id="SVGID_3_" x="189.2" y="213.4" width="97.7" height="97.7"/>
	</defs>
	<clipPath id="SVGID_4_">
		<use xlink:href="#SVGID_3_"  style="overflow:visible;"/>
	</clipPath>
	<g class="st20">
		<g>
			<g>
				<rect x="235.6" y="276.5" class="st21" width="22.8" height="22.8"/>
				<g>
					<polygon class="st22" points="248.3,286.7 248.3,276.5 245.4,276.5 245.4,286.7 235.6,286.7 235.6,289.6 245.4,289.6 
						245.4,299.3 248.3,299.3 248.3,289.6 258.4,289.6 258.4,286.7 					"/>
				</g>
			</g>
		</g>
		<g>
			<g>
				<rect x="213.5" y="262.3" class="st23" width="26.7" height="26.7"/>
				<g>
					<polygon class="st24" points="228.3,274.2 228.3,262.3 224.9,262.3 224.9,274.2 213.5,274.2 213.5,277.6 224.9,277.6 
						224.9,288.9 228.3,288.9 228.3,277.6 240.2,277.6 240.2,274.2 					"/>
				</g>
				<rect x="235.4" y="262.3" class="st25" width="4.8" height="26.7"/>
			</g>
			<g>
				<rect x="226.1" y="288.9" class="st26" width="26.7" height="26.7"/>
				<g>
					<polygon class="st27" points="240.9,300.8 240.9,288.9 237.5,288.9 237.5,300.8 226.1,300.8 226.1,304.2 237.5,304.2 
						237.5,315.6 240.9,315.6 240.9,304.2 252.7,304.2 252.7,300.8 					"/>
				</g>
			</g>
			<g>
				<rect x="191.6" y="288.9" class="st12" width="34.5" height="26.7"/>
				<g>
					<polygon class="st11" points="206.4,300.8 206.4,288.9 203,288.9 203,300.8 191.6,300.8 191.6,304.2 203,304.2 203,315.6 
						206.4,315.6 206.4,304.2 226.1,304.2 226.1,300.8 					"/>
				</g>
				<rect x="218.9" y="288.9" class="st25" width="7.1" height="26.7"/>
			</g>
			<rect x="233" y="288.9" class="st25" width="19.7" height="26.7"/>
		</g>
		<g>
			<g>
				<rect x="261" y="292.5" class="st11" width="23.5" height="22.8"/>
				<g>
					<polygon class="st0" points="274.8,302.7 274.8,292.5 271.9,292.5 271.9,302.7 261,302.7 261,305.6 271.9,305.6 271.9,315.3 
						274.8,315.3 274.8,305.6 284.5,305.6 284.5,302.7 					"/>
				</g>
			</g>
		</g>
		<g>
			<g>
				<path class="st28" d="M244.2,303.7c0,5.7,0,17.4,0,24.6"/>
				<g>
					<path class="st8" d="M258.1,331.5c0,3.3-2.7,6.1-6.1,6.1l0,0c-2.6,0-4.7-2.1-4.7-4.7v-4.5h-6.3V342c0,0.9,0.7,1.6,1.6,1.6H258
						c3.3,0,6.1-2.6,6.2-5.8C264.3,334.3,261.5,331.5,258.1,331.5z"/>
					<g>
						<path class="st9" d="M247.4,334.4H245c-0.9,0-1.6-0.7-1.6-1.6c0-0.9,0.7-1.6,1.6-1.6h2.4c0.9,0,1.6,0.7,1.6,1.6
							C248.9,333.7,248.2,334.4,247.4,334.4z"/>
					</g>
				</g>
			</g>
			<g>
				<path class="st28" d="M233.3,303.7c0,5.7,0,17.4,0,24.6"/>
				<g>
					<path class="st8" d="M219.4,331.5c0,3.3,2.7,6.1,6.1,6.1l0,0c2.6,0,4.7-2.1,4.7-4.7v-4.5h6.3V342c0,0.9-0.7,1.6-1.6,1.6h-15.3
						c-3.3,0-6.1-2.6-6.2-5.8C213.2,334.3,216,331.5,219.4,331.5z"/>
					<g>
						<path class="st9" d="M230.2,334.4h2.4c0.9,0,1.6-0.7,1.6-1.6c0-0.9-0.7-1.6-1.6-1.6h-2.4c-0.9,0-1.6,0.7-1.6,1.6
							C228.6,333.7,229.3,334.4,230.2,334.4z"/>
					</g>
				</g>
			</g>
			<g>
				<polygon class="st29" points="233.3,303.7 244.2,303.7 238.8,276 				"/>
				<path class="st29" d="M238.8,272.9c-7.4,0-13.3,6-13.3,13.3v11.2c0,7.4,6,13.3,13.3,13.3c7.4,0,13.3-6,13.3-13.3v-11.2
					C252.1,278.9,246.1,272.9,238.8,272.9z"/>
			</g>
			<g>
				<rect x="225.4" y="290.8" class="st8" width="26.7" height="6.7"/>
				<rect x="235.4" y="290.8" class="st9" width="6.7" height="6.7"/>
			</g>
			<g>
				<g>
					<g>
						<circle class="st11" cx="238.8" cy="221.8" r="4.6"/>
						<polygon class="st5" points="252.1,253 238.8,226.4 225.4,253 						"/>
					</g>
					<g>
						<path class="st11" d="M251.5,256.4c-1.7,0-3.2-1.1-3.7-2.7c-1.2-4-4.9-6.6-9-6.6s-7.8,2.7-9,6.6c-0.6,2.1-2.8,3.2-4.9,2.6
							c-2.1-0.6-3.2-2.8-2.6-4.9c2.3-7.2,8.9-12.1,16.5-12.1c7.6,0,14.2,4.9,16.5,12.1c0.6,2.1-0.5,4.3-2.6,4.9
							C252.3,256.3,251.9,256.4,251.5,256.4z"/>
					</g>
				</g>
				<g>
					<path class="st5" d="M256.4,250.2l-6.8,6.8c-0.6,0.6-1,1.5-1,2.5c0,1.9,1.6,3.5,3.5,3.5c1,0,1.9-0.4,2.5-1
						C258.9,257.8,256.4,250.2,256.4,250.2z"/>
					<path class="st5" d="M227.9,257.1l-6.8-6.8c0,0-2.4,7.6,1.8,11.8c0.6,0.6,1.5,1,2.5,1c2,0,3.5-1.6,3.5-3.5
						C229,258.6,228.6,257.7,227.9,257.1z"/>
				</g>
				<g>
					<path class="st0" d="M238.8,259.6c0,8.7-7.1,15.8-15.8,15.8v-15.8H238.8z"/>
					<path class="st0" d="M238.8,259.6c0,8.7,7.1,15.8,15.8,15.8v-15.8H238.8z"/>
				</g>
				<path class="st0" d="M223,259.6c0-8.7,7.1-15.8,15.8-15.8s15.8,7.1,15.8,15.8H223z"/>
				<circle class="st5" cx="238.8" cy="259.6" r="13.3"/>
				<g>
					<g>
						<path class="st12" d="M236.1,255.7c0,1.5-1.2,2.7-2.7,2.7c-1.5,0-2.7-1.2-2.7-2.7c0-1.5,1.2-2.7,2.7-2.7
							C234.9,253,236.1,254.3,236.1,255.7z"/>
						<path class="st12" d="M246.9,255.7c0,1.5-1.2,2.7-2.7,2.7c-1.5,0-2.7-1.2-2.7-2.7c0-1.5,1.2-2.7,2.7-2.7
							C245.6,253,246.9,254.3,246.9,255.7z"/>
					</g>
					<path class="st30" d="M246.9,261.1c0,4.5-3.6,8.1-8.1,8.1c-4.5,0-8.1-3.6-8.1-8.1H246.9z"/>
				</g>
				<path class="st0" d="M243.1,246.9c-7-2.4-14.6,1.4-16.9,8.3C233.1,257.6,240.7,253.9,243.1,246.9z"/>
			</g>
			<g>
				<path class="st31" d="M230.5,277.7c-12.7,0-25.4-10.3-25.4-21.9"/>
				<g>
					<circle class="st5" cx="205" cy="249.1" r="6.7"/>
				</g>
				<g>
					<g>
						<path class="st11" d="M210.7,252.7h-11.3c-1.7,0-3.1,1.4-3.1,3.1c0,1.7,1.4,3.1,3.1,3.1h11.3c1.7,0,3.1-1.4,3.1-3.1
							C213.8,254.1,212.4,252.7,210.7,252.7z"/>
					</g>
				</g>
			</g>
			<g>
				<rect x="213.4" y="261.1" class="st0" width="50.8" height="50.8"/>
				<g>
					<polygon class="st12" points="241.6,283.8 241.6,261.1 235.1,261.1 235.1,283.8 213.4,283.8 213.4,290.3 235.1,290.3 
						235.1,312 241.6,312 241.6,290.3 264.2,290.3 264.2,283.8 					"/>
				</g>
			</g>
			<g>
				<circle class="st5" cx="264.2" cy="297" r="6.7"/>
			</g>
		</g>
	</g>
</g>
<path class="st2" d="M35.1,254.9l40.3-43.1l40.2,43.1"/>
<circle class="st3" cx="75.4" cy="211.8" r="2.2"/>
<path class="st0" d="M24.7,229.7h101.5v149.5H24.7V229.7z"/>
<path class="st1" d="M126.2,379.2H24.7V229.7L39,247.6l72.7,113.1L126.2,379.2z"/>
<g>
	<defs>
		<rect id="SVGID_5_" x="35.1" y="241.4" width="80.5" height="125.4"/>
	</defs>
	<clipPath id="SVGID_6_">
		<use xlink:href="#SVGID_5_"  style="overflow:visible;"/>
	</clipPath>
	<path class="st32" d="M35.1,241.4h80.5v125.4H35.1V241.4z"/>
</g>
<g>
	<defs>
		<rect id="SVGID_7_" x="35.1" y="241.4" width="80.5" height="125.4"/>
	</defs>
	<clipPath id="SVGID_8_">
		<use xlink:href="#SVGID_7_"  style="overflow:visible;"/>
	</clipPath>
	<g class="st33">
		<path class="st11" d="M35.1,332.4h9.3v40.2h-9.3V332.4z"/>
		<path class="st34" d="M35.1,358.2h9.3v6.3l-9.3-4.3V358.2z"/>
	</g>
</g>
<g>
	<defs>
		<rect id="SVGID_9_" x="35.1" y="241.4" width="80.5" height="125.4"/>
	</defs>
	<clipPath id="SVGID_10_">
		<use xlink:href="#SVGID_9_"  style="overflow:visible;"/>
	</clipPath>
	<path class="st35" d="M42.1,244.5l-36,113.7h72L42.1,244.5z"/>
</g>
<g>
	<defs>
		<rect id="SVGID_11_" x="35.1" y="241.4" width="80.5" height="125.4"/>
	</defs>
	<clipPath id="SVGID_12_">
		<use xlink:href="#SVGID_11_"  style="overflow:visible;"/>
	</clipPath>
	<path class="st36" d="M42.1,244.5l-36,113.7h36h-2.3L42.1,244.5z"/>
</g>
<g>
	<defs>
		<rect id="SVGID_13_" x="35.1" y="241.4" width="80.5" height="125.4"/>
	</defs>
	<clipPath id="SVGID_14_">
		<use xlink:href="#SVGID_13_"  style="overflow:visible;"/>
	</clipPath>
	<path class="st37" d="M32.2,275.9l21.3,4.5"/>
</g>
<g>
	<defs>
		<rect id="SVGID_15_" x="35.1" y="241.4" width="80.5" height="125.4"/>
	</defs>
	<clipPath id="SVGID_16_">
		<use xlink:href="#SVGID_15_"  style="overflow:visible;"/>
	</clipPath>
	<g class="st38">
		<path class="st39" d="M31.8,278.8l0.7-5.8"/>
		<path class="st39" d="M32.9,279l0.7-5.8"/>
		<path class="st39" d="M33.9,279.3l0.7-5.8"/>
		<path class="st39" d="M35,279.5l0.7-5.8"/>
		<path class="st39" d="M36.1,279.8l0.7-5.8"/>
		<path class="st39" d="M37.1,280l0.7-5.8"/>
		<path class="st39" d="M38.2,280.3l0.7-5.8"/>
		<path class="st39" d="M39.2,280.5l0.7-5.8"/>
		<path class="st39" d="M40.3,280.8L41,275"/>
		<path class="st39" d="M41.3,281l0.7-5.8"/>
		<path class="st39" d="M42.4,281.2l0.7-5.7"/>
		<path class="st39" d="M43.4,281.5l0.7-5.8"/>
		<path class="st39" d="M44.5,281.7l0.7-5.8"/>
		<path class="st39" d="M45.6,282l0.7-5.8"/>
		<path class="st39" d="M46.6,282.2l0.7-5.8"/>
		<path class="st39" d="M47.7,282.5l0.7-5.8"/>
		<path class="st39" d="M48.7,282.7l0.7-5.8"/>
		<path class="st39" d="M49.8,283l0.7-5.8"/>
		<path class="st39" d="M50.8,283.2l0.7-5.8"/>
		<path class="st39" d="M51.9,283.4l0.7-5.7"/>
		<path class="st39" d="M52.9,283.7l0.7-5.8"/>
	</g>
</g>
<g>
	<defs>
		<rect id="SVGID_17_" x="35.1" y="241.4" width="80.5" height="125.4"/>
	</defs>
	<clipPath id="SVGID_18_">
		<use xlink:href="#SVGID_17_"  style="overflow:visible;"/>
	</clipPath>
	<g class="st40">
		<path class="st39" d="M30.7,278.8l3-5.8"/>
		<path class="st39" d="M34.2,279.5l3-5.8"/>
		<path class="st39" d="M37.7,280.3l3-5.8"/>
		<path class="st39" d="M41.3,281l2.9-5.8"/>
		<path class="st39" d="M44.8,281.8l2.9-5.8"/>
		<path class="st39" d="M48.3,282.5l3-5.8"/>
		<path class="st39" d="M51.8,283.3l3-5.8"/>
	</g>
</g>
<g>
	<defs>
		<rect id="SVGID_19_" x="35.1" y="241.4" width="80.5" height="125.4"/>
	</defs>
	<clipPath id="SVGID_20_">
		<use xlink:href="#SVGID_19_"  style="overflow:visible;"/>
	</clipPath>
	<path class="st41" d="M57,291.3L25.2,298"/>
</g>
<g>
	<defs>
		<rect id="SVGID_21_" x="35.1" y="241.4" width="80.5" height="125.4"/>
	</defs>
	<clipPath id="SVGID_22_">
		<use xlink:href="#SVGID_21_"  style="overflow:visible;"/>
	</clipPath>
	<path class="st42" d="M21.8,308.8l44.3,11.4"/>
</g>
<g>
	<defs>
		<rect id="SVGID_23_" x="35.1" y="241.4" width="80.5" height="125.4"/>
	</defs>
	<clipPath id="SVGID_24_">
		<use xlink:href="#SVGID_23_"  style="overflow:visible;"/>
	</clipPath>
	<path class="st43" d="M68.5,327.8l-56.8,12.8"/>
</g>
<g>
	<defs>
		<rect id="SVGID_25_" x="35.1" y="241.4" width="80.5" height="125.4"/>
	</defs>
	<clipPath id="SVGID_26_">
		<use xlink:href="#SVGID_25_"  style="overflow:visible;"/>
	</clipPath>
	<g class="st44">
		<path class="st39" d="M25.9,299.8l-1.4-3.6"/>
		<path class="st39" d="M27.5,299.4l-1.3-3.5"/>
		<path class="st39" d="M29.2,299.1l-1.3-3.6"/>
		<path class="st39" d="M30.9,298.7l-1.4-3.5"/>
		<path class="st39" d="M32.5,298.4l-1.3-3.6"/>
		<path class="st39" d="M34.2,298l-1.3-3.5"/>
		<path class="st39" d="M35.9,297.7l-1.3-3.6"/>
		<path class="st39" d="M37.6,297.3l-1.4-3.5"/>
		<path class="st39" d="M39.2,297l-1.3-3.6"/>
		<path class="st39" d="M40.9,296.6l-1.3-3.5"/>
		<path class="st39" d="M42.6,296.3l-1.4-3.6"/>
		<path class="st39" d="M44.2,295.9l-1.3-3.5"/>
		<path class="st39" d="M45.9,295.6l-1.3-3.6"/>
		<path class="st39" d="M47.6,295.2l-1.3-3.5"/>
		<path class="st39" d="M49.3,294.9l-1.4-3.6"/>
		<path class="st39" d="M50.9,294.5l-1.3-3.5"/>
		<path class="st39" d="M52.6,294.2l-1.3-3.6"/>
		<path class="st39" d="M54.3,293.8l-1.3-3.5"/>
		<path class="st39" d="M55.9,293.5l-1.3-3.6"/>
		<path class="st39" d="M57.6,293.1l-1.3-3.5"/>
	</g>
</g>
<g>
	<defs>
		<rect id="SVGID_27_" x="35.1" y="241.4" width="80.5" height="125.4"/>
	</defs>
	<clipPath id="SVGID_28_">
		<use xlink:href="#SVGID_27_"  style="overflow:visible;"/>
	</clipPath>
	<g class="st45">
		<path class="st39" d="M20.9,310.5l1.9-3.3"/>
		<path class="st39" d="M23.1,311.1l1.9-3.3"/>
		<path class="st39" d="M25.3,311.6l1.9-3.2"/>
		<path class="st39" d="M27.5,312.2l1.9-3.3"/>
		<path class="st39" d="M29.7,312.8l1.9-3.3"/>
		<path class="st39" d="M31.9,313.3l1.9-3.2"/>
		<path class="st39" d="M34.1,313.9l2-3.3"/>
		<path class="st39" d="M36.4,314.5l1.9-3.3"/>
		<path class="st39" d="M38.6,315l1.9-3.2"/>
		<path class="st39" d="M40.8,315.6l1.9-3.3"/>
		<path class="st39" d="M43,316.2l1.9-3.3"/>
		<path class="st39" d="M45.2,316.7l1.9-3.2"/>
		<path class="st39" d="M47.4,317.3l1.9-3.3"/>
		<path class="st39" d="M49.6,317.9l1.9-3.3"/>
		<path class="st39" d="M51.8,318.4l2-3.2"/>
		<path class="st39" d="M54.1,319l1.9-3.3"/>
		<path class="st39" d="M56.3,319.5l1.9-3.2"/>
		<path class="st39" d="M58.5,320.1l1.9-3.2"/>
		<path class="st39" d="M60.7,320.7l1.9-3.3"/>
		<path class="st39" d="M62.9,321.2l1.9-3.2"/>
		<path class="st39" d="M65.1,321.8l1.9-3.3"/>
	</g>
</g>
<g>
	<defs>
		<rect id="SVGID_29_" x="35.1" y="241.4" width="80.5" height="125.4"/>
	</defs>
	<clipPath id="SVGID_30_">
		<use xlink:href="#SVGID_29_"  style="overflow:visible;"/>
	</clipPath>
	<g class="st46">
		<path class="st39" d="M25.2,299.9l0.3-4.6"/>
		<path class="st39" d="M25.9,299.8l0.2-4.6"/>
		<path class="st39" d="M26.5,299.7l0.3-4.6"/>
		<path class="st39" d="M27.1,299.6l0.3-4.7"/>
		<path class="st39" d="M27.8,299.4l0.2-4.6"/>
		<path class="st39" d="M28.4,299.3l0.3-4.6"/>
		<path class="st39" d="M29,299.2l0.3-4.6"/>
		<path class="st39" d="M29.7,299.1l0.2-4.6"/>
		<path class="st39" d="M30.3,299l0.3-4.7"/>
		<path class="st39" d="M30.9,298.8l0.3-4.6"/>
		<path class="st39" d="M31.6,298.7l0.2-4.6"/>
		<path class="st39" d="M32.2,298.6l0.3-4.6"/>
		<path class="st39" d="M32.8,298.5l0.3-4.6"/>
		<path class="st39" d="M33.5,298.4l0.2-4.7"/>
		<path class="st39" d="M34.1,298.2l0.3-4.6"/>
		<path class="st39" d="M34.7,298.1l0.3-4.6"/>
		<path class="st39" d="M35.4,298l0.2-4.6"/>
		<path class="st39" d="M36,297.9l0.3-4.6"/>
		<path class="st39" d="M36.7,297.8l0.2-4.7"/>
		<path class="st39" d="M37.3,297.6l0.2-4.6"/>
		<path class="st39" d="M37.9,297.5l0.3-4.6"/>
		<path class="st39" d="M38.6,297.4l0.2-4.6"/>
		<path class="st39" d="M39.2,297.3l0.2-4.6"/>
		<path class="st39" d="M39.8,297.2l0.3-4.7"/>
		<path class="st39" d="M40.5,297l0.2-4.6"/>
		<path class="st39" d="M41.1,296.9l0.2-4.6"/>
		<path class="st39" d="M41.7,296.8l0.3-4.6"/>
		<path class="st39" d="M42.4,296.7l0.2-4.6"/>
		<path class="st39" d="M43,296.6l0.2-4.7"/>
		<path class="st39" d="M43.6,296.4l0.3-4.6"/>
		<path class="st39" d="M44.3,296.3l0.2-4.6"/>
		<path class="st39" d="M44.9,296.2l0.2-4.6"/>
		<path class="st39" d="M45.5,296.1l0.3-4.6"/>
		<path class="st39" d="M46.2,296l0.2-4.7"/>
		<path class="st39" d="M46.8,295.8l0.2-4.6"/>
		<path class="st39" d="M47.4,295.7l0.3-4.6"/>
		<path class="st39" d="M48.1,295.6l0.2-4.6"/>
		<path class="st39" d="M48.7,295.5l0.2-4.6"/>
		<path class="st39" d="M49.3,295.4l0.3-4.7"/>
		<path class="st39" d="M50,295.2l0.2-4.6"/>
		<path class="st39" d="M50.6,295.1l0.2-4.6"/>
		<path class="st39" d="M51.2,295l0.3-4.6"/>
		<path class="st39" d="M51.9,294.9l0.2-4.6"/>
		<path class="st39" d="M52.5,294.8l0.2-4.7"/>
		<path class="st39" d="M53.1,294.6l0.3-4.6"/>
		<path class="st39" d="M53.8,294.5l0.2-4.6"/>
		<path class="st39" d="M54.4,294.4l0.2-4.6"/>
		<path class="st39" d="M55,294.3l0.3-4.6"/>
		<path class="st39" d="M55.7,294.2l0.2-4.7"/>
		<path class="st39" d="M56.3,294l0.2-4.6"/>
	</g>
</g>
<g>
	<defs>
		<rect id="SVGID_31_" x="35.1" y="241.4" width="80.5" height="125.4"/>
	</defs>
	<clipPath id="SVGID_32_">
		<use xlink:href="#SVGID_31_"  style="overflow:visible;"/>
	</clipPath>
	<g class="st47">
		<path class="st39" d="M21.7,311.9l0.2-4.7"/>
		<path class="st39" d="M22.3,312l0.2-4.6"/>
		<path class="st39" d="M22.9,312.2l0.3-4.7"/>
		<path class="st39" d="M23.6,312.3l0.2-4.6"/>
		<path class="st39" d="M24.2,312.5l0.2-4.7"/>
		<path class="st39" d="M24.8,312.6l0.3-4.6"/>
		<path class="st39" d="M25.5,312.8l0.2-4.7"/>
		<path class="st39" d="M26.1,312.9l0.2-4.6"/>
		<path class="st39" d="M26.7,313.1l0.3-4.6"/>
		<path class="st39" d="M27.3,313.2l0.3-4.6"/>
		<path class="st39" d="M28,313.4l0.2-4.6"/>
		<path class="st39" d="M28.6,313.6l0.3-4.7"/>
		<path class="st39" d="M29.2,313.7l0.3-4.6"/>
		<path class="st39" d="M29.9,313.9l0.2-4.7"/>
		<path class="st39" d="M30.5,314l0.3-4.6"/>
		<path class="st39" d="M31.1,314.2l0.3-4.7"/>
		<path class="st39" d="M31.8,314.3l0.2-4.6"/>
		<path class="st39" d="M32.4,314.5l0.3-4.6"/>
		<path class="st39" d="M33,314.6l0.3-4.6"/>
		<path class="st39" d="M33.7,314.8l0.2-4.6"/>
		<path class="st39" d="M34.3,315l0.3-4.7"/>
		<path class="st39" d="M34.9,315.1l0.3-4.6"/>
		<path class="st39" d="M35.6,315.3l0.2-4.7"/>
		<path class="st39" d="M36.2,315.4l0.2-4.6"/>
		<path class="st39" d="M36.8,315.6l0.3-4.7"/>
		<path class="st39" d="M37.5,315.7l0.2-4.6"/>
		<path class="st39" d="M38.1,315.9l0.2-4.6"/>
		<path class="st39" d="M38.7,316l0.3-4.6"/>
		<path class="st39" d="M39.4,316.2l0.2-4.6"/>
		<path class="st39" d="M40,316.4l0.2-4.7"/>
		<path class="st39" d="M40.6,316.5l0.3-4.6"/>
		<path class="st39" d="M41.3,316.7l0.2-4.7"/>
		<path class="st39" d="M41.9,316.8l0.2-4.6"/>
		<path class="st39" d="M42.5,317l0.3-4.7"/>
		<path class="st39" d="M43.2,317.1l0.2-4.6"/>
		<path class="st39" d="M43.8,317.3l0.2-4.6"/>
		<path class="st39" d="M44.4,317.4l0.3-4.6"/>
		<path class="st39" d="M45.1,317.6l0.2-4.6"/>
		<path class="st39" d="M45.7,317.8l0.2-4.7"/>
		<path class="st39" d="M46.3,317.9l0.3-4.6"/>
		<path class="st39" d="M47,318.1l0.2-4.7"/>
		<path class="st39" d="M47.6,318.2l0.2-4.6"/>
		<path class="st39" d="M48.2,318.4l0.3-4.7"/>
		<path class="st39" d="M48.9,318.5l0.2-4.6"/>
		<path class="st39" d="M49.5,318.7l0.2-4.6"/>
		<path class="st39" d="M50.1,318.8l0.3-4.6"/>
		<path class="st39" d="M50.7,319l0.3-4.6"/>
		<path class="st39" d="M51.4,319.1l0.2-4.6"/>
		<path class="st39" d="M52,319.3l0.3-4.6"/>
		<path class="st39" d="M52.6,319.5l0.3-4.7"/>
		<path class="st39" d="M53.3,319.6l0.2-4.6"/>
		<path class="st39" d="M53.9,319.8l0.3-4.7"/>
		<path class="st39" d="M54.5,319.9l0.3-4.6"/>
		<path class="st39" d="M55.2,320.1l0.2-4.7"/>
		<path class="st39" d="M55.8,320.2l0.3-4.6"/>
		<path class="st39" d="M56.4,320.4l0.3-4.6"/>
		<path class="st39" d="M57.1,320.5l0.2-4.6"/>
		<path class="st39" d="M57.7,320.7l0.2-4.6"/>
		<path class="st39" d="M58.3,320.9l0.3-4.7"/>
		<path class="st39" d="M59,321l0.2-4.6"/>
		<path class="st39" d="M59.6,321.2l0.2-4.7"/>
		<path class="st39" d="M60.2,321.3l0.3-4.6"/>
		<path class="st39" d="M60.9,321.5l0.2-4.7"/>
		<path class="st39" d="M61.5,321.6l0.2-4.6"/>
		<path class="st39" d="M62.1,321.8l0.3-4.6"/>
		<path class="st39" d="M62.8,321.9l0.2-4.6"/>
		<path class="st39" d="M63.4,322.1l0.2-4.6"/>
		<path class="st39" d="M64,322.3l0.3-4.7"/>
		<path class="st39" d="M64.7,322.4l0.2-4.6"/>
		<path class="st39" d="M65.3,322.6l0.2-4.7"/>
		<path class="st39" d="M65.9,322.7l0.3-4.6"/>
	</g>
</g>
<g>
	<defs>
		<rect id="SVGID_33_" x="35.1" y="241.4" width="80.5" height="125.4"/>
	</defs>
	<clipPath id="SVGID_34_">
		<use xlink:href="#SVGID_33_"  style="overflow:visible;"/>
	</clipPath>
	<g class="st48">
		<path class="st39" d="M11.4,343.5l0.3-4.6"/>
		<path class="st39" d="M12,343.3l0.3-4.6"/>
		<path class="st39" d="M12.7,343.2l0.2-4.6"/>
		<path class="st39" d="M13.3,343.1l0.2-4.7"/>
		<path class="st39" d="M13.9,342.9l0.3-4.6"/>
		<path class="st39" d="M14.5,342.8l0.3-4.7"/>
		<path class="st39" d="M15.2,342.6l0.2-4.6"/>
		<path class="st39" d="M15.8,342.5l0.2-4.6"/>
		<path class="st39" d="M16.4,342.3l0.3-4.6"/>
		<path class="st39" d="M17,342.2l0.3-4.6"/>
		<path class="st39" d="M17.7,342.1l0.2-4.7"/>
		<path class="st39" d="M18.3,341.9l0.2-4.6"/>
		<path class="st39" d="M18.9,341.8l0.3-4.7"/>
		<path class="st39" d="M19.5,341.6l0.3-4.6"/>
		<path class="st39" d="M20.2,341.5l0.2-4.6"/>
		<path class="st39" d="M20.8,341.3l0.2-4.6"/>
		<path class="st39" d="M21.4,341.2l0.3-4.6"/>
		<path class="st39" d="M22,341.1l0.3-4.7"/>
		<path class="st39" d="M22.7,340.9l0.2-4.6"/>
		<path class="st39" d="M23.3,340.8l0.2-4.7"/>
		<path class="st39" d="M23.9,340.6l0.3-4.6"/>
		<path class="st39" d="M24.6,340.5l0.2-4.6"/>
		<path class="st39" d="M25.2,340.3l0.2-4.6"/>
		<path class="st39" d="M25.8,340.2l0.2-4.6"/>
		<path class="st39" d="M26.4,340.1l0.3-4.7"/>
		<path class="st39" d="M27.1,339.9l0.2-4.6"/>
		<path class="st39" d="M27.7,339.8l0.2-4.7"/>
		<path class="st39" d="M28.3,339.6l0.3-4.6"/>
		<path class="st39" d="M28.9,339.5l0.3-4.6"/>
		<path class="st39" d="M29.6,339.3l0.2-4.6"/>
		<path class="st39" d="M30.2,339.2l0.2-4.6"/>
		<path class="st39" d="M30.8,339.1l0.3-4.7"/>
		<path class="st39" d="M31.4,338.9l0.3-4.6"/>
		<path class="st39" d="M32.1,338.8l0.2-4.7"/>
		<path class="st39" d="M32.7,338.6l0.2-4.6"/>
		<path class="st39" d="M33.3,338.5l0.3-4.6"/>
		<path class="st39" d="M33.9,338.3l0.3-4.6"/>
		<path class="st39" d="M34.6,338.2l0.2-4.6"/>
		<path class="st39" d="M35.2,338.1l0.2-4.7"/>
		<path class="st39" d="M35.8,337.9l0.3-4.6"/>
		<path class="st39" d="M36.4,337.8l0.3-4.7"/>
		<path class="st39" d="M37.1,337.6l0.2-4.6"/>
		<path class="st39" d="M37.7,337.5l0.2-4.6"/>
		<path class="st39" d="M38.3,337.3l0.3-4.6"/>
		<path class="st39" d="M38.9,337.2l0.3-4.6"/>
		<path class="st39" d="M39.6,337.1l0.2-4.7"/>
		<path class="st39" d="M40.2,336.9l0.2-4.6"/>
		<path class="st39" d="M40.8,336.8l0.3-4.7"/>
		<path class="st39" d="M41.4,336.6l0.3-4.6"/>
		<path class="st39" d="M42.1,336.5l0.2-4.6"/>
		<path class="st39" d="M42.7,336.3l0.2-4.6"/>
		<path class="st39" d="M43.3,336.2l0.3-4.6"/>
		<path class="st39" d="M43.9,336.1l0.3-4.7"/>
		<path class="st39" d="M44.6,335.9l0.2-4.6"/>
		<path class="st39" d="M45.2,335.8l0.2-4.7"/>
		<path class="st39" d="M45.8,335.6l0.3-4.6"/>
		<path class="st39" d="M46.5,335.5l0.2-4.6"/>
		<path class="st39" d="M47.1,335.3l0.2-4.6"/>
		<path class="st39" d="M47.7,335.2l0.2-4.6"/>
		<path class="st39" d="M48.3,335.1l0.3-4.7"/>
		<path class="st39" d="M49,334.9l0.2-4.6"/>
		<path class="st39" d="M49.6,334.8l0.2-4.7"/>
		<path class="st39" d="M50.2,334.6l0.2-4.6"/>
		<path class="st39" d="M50.8,334.5l0.3-4.6"/>
		<path class="st39" d="M51.5,334.4l0.2-4.7"/>
		<path class="st39" d="M52.1,334.2l0.2-4.6"/>
		<path class="st39" d="M52.7,334.1l0.3-4.7"/>
		<path class="st39" d="M53.3,333.9l0.3-4.6"/>
		<path class="st39" d="M54,333.8l0.2-4.7"/>
		<path class="st39" d="M54.6,333.6l0.2-4.6"/>
		<path class="st39" d="M55.2,333.5l0.3-4.6"/>
		<path class="st39" d="M55.8,333.4l0.3-4.7"/>
		<path class="st39" d="M56.5,333.2l0.2-4.6"/>
		<path class="st39" d="M57.1,333.1l0.2-4.7"/>
		<path class="st39" d="M57.7,332.9l0.3-4.6"/>
		<path class="st39" d="M58.3,332.8l0.3-4.6"/>
		<path class="st39" d="M59,332.6l0.2-4.6"/>
		<path class="st39" d="M59.6,332.5l0.2-4.6"/>
		<path class="st39" d="M60.2,332.4l0.3-4.7"/>
		<path class="st39" d="M60.8,332.2l0.3-4.6"/>
		<path class="st39" d="M61.5,332.1l0.2-4.7"/>
		<path class="st39" d="M62.1,331.9l0.2-4.6"/>
		<path class="st39" d="M62.7,331.8l0.3-4.6"/>
		<path class="st39" d="M63.3,331.6l0.3-4.6"/>
		<path class="st39" d="M64,331.5l0.2-4.6"/>
		<path class="st39" d="M64.6,331.4l0.2-4.7"/>
		<path class="st39" d="M65.2,331.2l0.3-4.6"/>
		<path class="st39" d="M65.8,331.1l0.3-4.7"/>
		<path class="st39" d="M66.5,330.9l0.2-4.6"/>
		<path class="st39" d="M67.1,330.8l0.2-4.6"/>
		<path class="st39" d="M67.7,330.6L68,326"/>
		<path class="st39" d="M68.3,330.5l0.3-4.6"/>
	</g>
</g>
<g>
	<defs>
		<rect id="SVGID_35_" x="35.1" y="241.4" width="80.5" height="125.4"/>
	</defs>
	<clipPath id="SVGID_36_">
		<use xlink:href="#SVGID_35_"  style="overflow:visible;"/>
	</clipPath>
	<g class="st49">
		<path class="st39" d="M10.4,343l2.2-4.1"/>
		<path class="st39" d="M14.4,342.1l1.8-4.1"/>
		<path class="st39" d="M18.4,341.2l1.4-4"/>
		<path class="st39" d="M22.4,340.3l1.1-4"/>
		<path class="st39" d="M26.4,339.4l0.7-3.9"/>
		<path class="st39" d="M30.3,338.5l0.4-3.9"/>
		<path class="st39" d="M34.3,337.6l0.1-3.8"/>
		<path class="st39" d="M38.3,336.7L38,333"/>
		<path class="st39" d="M42.3,335.8l-0.7-3.7"/>
		<path class="st39" d="M46.3,334.9l-1.1-3.6"/>
		<path class="st39" d="M50.2,334l-1.3-3.6"/>
		<path class="st39" d="M54.2,333.1l-1.7-3.5"/>
		<path class="st39" d="M58.2,332.2l-2.1-3.5"/>
		<path class="st39" d="M62.2,331.3l-2.5-3.4"/>
		<path class="st39" d="M66.2,330.4l-2.8-3.3"/>
		<path class="st39" d="M70.1,329.5l-3.1-3.3"/>
	</g>
</g>
<g>
	<defs>
		<rect id="SVGID_37_" x="35.1" y="241.4" width="80.5" height="125.4"/>
	</defs>
	<clipPath id="SVGID_38_">
		<use xlink:href="#SVGID_37_"  style="overflow:visible;"/>
	</clipPath>
	<g class="st50">
		<path class="st5" d="M94,288.2c0,2-1.7,3.7-3.8,3.7c-2.1,0-3.8-1.6-3.8-3.7c0-2,1.7-3.7,3.8-3.7C92.4,284.5,94,286.2,94,288.2z"/>
		<path class="st0" d="M107.2,349.6c-3,0-5.4-2.5-5.4-5.4c0-0.1,0.1-5.1-0.6-10.7c-1.2-9.4-3.3-12.2-4-12.8
			c-0.3-0.3-0.4-0.3-0.5-0.3c-3,0.1-5.5-2.2-5.6-5.1c-0.1-3,2.2-5.5,5.1-5.6c3.1-0.1,6,1,8.4,3.3c3.7,3.6,6,9.9,7.2,19.3
			c0.8,6.4,0.7,11.8,0.7,12.1C112.6,347.2,110.2,349.6,107.2,349.6z"/>
		<path class="st30" d="M64.7,347.2h14.1v9H64.7V347.2z"/>
		<path class="st51" d="M64.7,356.2v22.4c-5.4,0-9.7,4.3-9.7,9.7h23.8v-32.2H64.7V356.2z"/>
		<path class="st30" d="M82.1,347.2h14.1v9H82.1V347.2z"/>
		<path class="st51" d="M96.2,378.7v-22.4H82.1v32.2h23.8C105.9,383,101.6,378.7,96.2,378.7L96.2,378.7z"/>
		<path class="st30" d="M80.8,353.9c13.7,0,24.8-11.1,24.8-24.8H56C56,342.8,67.1,353.9,80.8,353.9z"/>
		<path class="st51" d="M80.5,320.4H55.7c-7.4,0-13.5-6-13.5-13.5v-16c0-3,2.4-5.4,5.4-5.4s5.4,2.4,5.4,5.4v16
			c0,1.5,1.2,2.7,2.7,2.7h24.7c3,0,5.4,2.4,5.4,5.4S83.4,320.4,80.5,320.4z"/>
		<path class="st0" d="M80.5,320.4H55.7c-7.4,0-13.5-6-13.5-13.5v-16c0-3,2.4-5.4,5.4-5.4s5.4,2.4,5.4,5.4v16c0,1.5,1.2,2.7,2.7,2.7
			h24.7c3,0,5.4,2.4,5.4,5.4S83.4,320.4,80.5,320.4z"/>
		<path class="st52" d="M80.5,317.7H55.7c-7.4,0-13.5-6-13.5-13.5v2.7c0,7.4,6,13.5,13.5,13.5h24.7c3,0,5.4-2.4,5.4-5.4
			c0-0.5-0.1-0.9-0.2-1.3C85.1,316,83,317.7,80.5,317.7L80.5,317.7z"/>
		<path class="st0" d="M80.8,304.3c-13.7,0-24.8,11.1-24.8,24.8h49.6C105.6,315.4,94.5,304.3,80.8,304.3z"/>
		<path class="st53" d="M57.1,334.9h47.5v0.3H57.1V334.9z"/>
		<path class="st53" d="M77.5,353.7c-0.1,0-0.2-0.1-0.2-0.2v-18.4c0-0.1,0.1-0.2,0.2-0.2s0.2,0.1,0.2,0.2v18.4
			C77.7,353.7,77.6,353.7,77.5,353.7z"/>
		<path class="st53" d="M84.5,353.7c-0.1,0-0.2-0.1-0.2-0.2v-18.4c0-0.1,0.1-0.2,0.2-0.2s0.2,0.1,0.2,0.2v18.4
			C84.7,353.7,84.6,353.7,84.5,353.7z"/>
		<circle class="st5" cx="47.3" cy="289.5" r="5"/>
		<path class="st5" d="M49,289.3h-3.4v-2.7c0-1.2-0.2-3.3-0.6-5.3c-0.2-0.9,0.3-1.8,1.2-2s1.8,0.3,2,1.2c0.4,1.8,0.7,4.2,0.7,6.1
			L49,289.3L49,289.3z"/>
		<path class="st5" d="M52.3,289.3H49v-2.7c0-1.5,0-3.4-0.3-5.4c-0.1-0.9,0.5-1.8,1.4-1.9s1.8,0.5,1.9,1.4c0.4,2.3,0.4,4.4,0.4,6
			v2.6H52.3z"/>
		<path class="st5" d="M44,291.8c-0.9,0-1.7-0.7-1.7-1.7v-3.6c0-0.9-0.1-1.7-0.6-3.1c-0.3-0.9,0.2-1.8,1-2.1c0.9-0.3,1.8,0.2,2.1,1
			c0.5,1.6,0.8,2.8,0.8,4.2v3.6C45.6,291.1,44.9,291.8,44,291.8z"/>
		<circle class="st54" cx="51" cy="289.9" r="3"/>
		<circle class="st5" cx="50.3" cy="291.4" r="2.7"/>
		<path class="st5" d="M48,294.6c-0.9,0-1.7-0.7-1.7-1.7s0.7-1.7,1.7-1.7c2.4,0,4.4-2,4.4-4.4c0-0.9,0.7-1.7,1.7-1.7
			c0.9,0,1.7,0.7,1.7,1.7C55.7,291.1,52.2,294.6,48,294.6L48,294.6z"/>
		<g>
			<circle class="st5" cx="107.9" cy="347.4" r="5"/>
			<path class="st5" d="M108.6,357.8C108.6,357.8,108.5,357.8,108.6,357.8c-1,0-1.7-0.8-1.7-1.8c0.1-2.3-0.1-3.2-0.2-4.1
				c-0.1-0.4-0.2-0.9-0.2-1.4l-0.3-4.4l1.7-0.1l1.7-0.1l0.1,1.7l0.2,2.7c0,0.4,0.1,0.7,0.2,1.1c0.2,0.9,0.4,2.1,0.3,4.9
				C110.2,357.1,109.5,357.8,108.6,357.8L108.6,357.8z"/>
			<path class="st5" d="M104.9,358.1c-0.8,0-1.4-0.5-1.6-1.3c-0.4-1.6-0.3-3.1-0.2-4.3c0-0.6,0.1-1.2,0-1.6l-0.2-2.7
				c-0.1-1,0.7-1.7,1.5-1.8c0.6-0.1,1.7,0.3,1.8,1.5l0.2,2.6c0.1,0.7,0,1.4,0,2.1c-0.1,1.1-0.2,2.2,0.1,3.4c0.2,0.9-0.3,1.8-1.3,2
				C105.2,358.1,105.1,358.1,104.9,358.1L104.9,358.1z"/>
			<path class="st5" d="M112.3,357.3h-0.2c-0.9-0.1-1.5-1-1.4-1.9c0.2-1.5-0.5-5.4-0.9-7.5c-0.2-0.9,0.4-1.8,1.3-2s1.8,0.4,2,1.3
				c0.1,0.6,1.4,6.1,1,8.7C113.8,356.7,113.1,357.3,112.3,357.3z"/>
			<circle class="st5" cx="104.8" cy="345.8" r="2.7"/>
			<path class="st5" d="M101.5,352.3c-0.9,0-1.6-0.7-1.7-1.5c-0.2-2.1,0.5-4,1.8-5.6s3.2-2.5,5.3-2.7c0.9-0.1,1.7,0.6,1.8,1.5
				s-0.6,1.7-1.5,1.8c-1.2,0.1-2.2,0.6-3,1.5s-1.1,2-1,3.2c0.1,0.9-0.6,1.7-1.5,1.8L101.5,352.3L101.5,352.3z"/>
		</g>
		<ellipse class="st5" cx="70.8" cy="288.2" rx="3.8" ry="3.7"/>
		<path class="st0" d="M96.6,292.9c0,2-1.7,3.7-3.8,3.7c-2.1,0-3.8-1.6-3.8-3.7c0-2,1.7-3.7,3.8-3.7
			C94.9,289.2,96.6,290.9,96.6,292.9z"/>
		<ellipse class="st0" cx="68.2" cy="292.9" rx="3.8" ry="3.7"/>
		<path class="st5" d="M80.5,281.2c-7.4,0-13.4,6-13.4,13.4V308h26.8v-13.4C93.9,287.2,87.9,281.2,80.5,281.2z"/>
		<path class="st12" d="M75.1,291.2c0,0.6-0.5,1-1,1c-0.6,0-1-0.5-1-1c0-0.6,0.4-1,1-1S75.1,290.7,75.1,291.2z"/>
		<path class="st12" d="M85.8,291.2c0,0.6,0.4,1,1,1s1-0.5,1-1c0-0.6-0.5-1-1-1S85.8,290.7,85.8,291.2z"/>
		<path class="st0" d="M105.6,329.1H56c0,7.6,3.4,14.3,8.7,18.9v30.4h14.1v-24.5c0.7,0.1,1.3,0.1,2,0.1h1.3v24.5h14.1v-29.8
			C101.9,344,105.6,336.9,105.6,329.1z"/>
		<circle class="st52" cx="80.8" cy="323.6" r="1.3"/>
		<circle class="st52" cx="80.8" cy="329.1" r="1.3"/>
		<circle class="st52" cx="80.8" cy="334.6" r="1.3"/>
		<circle class="st52" cx="80.8" cy="340.1" r="1.3"/>
		<path class="st52" d="M99.4,312.7c-0.1-0.2-0.3-0.3-0.4-0.5l-0.3-0.3l-0.3-0.3l-0.2-0.2c-0.2-0.2-0.4-0.3-0.5-0.5l-0.1-0.1
			c-0.2-0.1-0.3-0.3-0.5-0.4c-0.1,0-0.1-0.1-0.2-0.1c-0.2-0.2-0.4-0.3-0.6-0.5s-0.5-0.4-0.7-0.5c-4.1-3-9.2-4.8-14.7-4.8
			c-5.7,0-11,2-15.2,5.2c4.4,7.3,12.5,12.2,21.8,12.2h0.2c4.5,0,8.5-2.4,10.6-6c1.6,3.2,2.4,6.9,2.4,10.7
			c0,13.7-11.1,24.8-24.8,24.8c-3.2,0-6.3-0.6-9.1-1.7c4,2.8,8.9,4.4,14.1,4.4c13.7,0,24.8-11.1,24.8-24.8
			C105.6,322.8,103.3,317,99.4,312.7L99.4,312.7z"/>
		<path class="st11" d="M84.2,293.9H58.7c0,13.7,11.3,24.8,25.3,24.8h0.1c6.8,0,12.4-5.5,12.4-12.4C96.6,299.5,91,293.9,84.2,293.9z
			"/>
		<ellipse class="st0" cx="80.5" cy="293.9" rx="3.7" ry="3"/>
		<path class="st12" d="M83.2,297.9c0,1.5-1.2,2.7-2.7,2.7s-2.7-1.2-2.7-2.7C77.8,297.9,83.2,297.9,83.2,297.9z"/>
		<path class="st11" d="M66.2,273.6c0,2.2-1.8,4-4,4s-4-1.8-4-4s1.8-4,4-4C64.4,269.6,66.2,271.4,66.2,273.6z"/>
		<path class="st0" d="M68.1,273.6L68.1,273.6L68,289.7h25.5C93.4,280.8,82,273.6,68.1,273.6z"/>
	</g>
</g>
<g>
	<path class="st55" d="M-308.3,288.5c-1.2,0-2-1-2-2.2v-85.8c0-1.2,0.8-2.2,2-2.2c1.2,0,2,1,2,2.2v85.8
		C-306.3,287.5-307.1,288.5-308.3,288.5z"/>
	<path class="st55" d="M-308.3,228.2c-7.9,0-14-6.4-14-14.3v-13.5c0-1.2,1.3-2.2,2.5-2.2s2.5,1,2.5,2.2v13.5c0,5.4,4.1,9.8,9.5,9.8
		s9.5-4.4,9.5-9.7v-13.5c0-1.2,0.8-2.2,2-2.2c1.2,0,2,1,2,2.2v13.5C-294.3,221.9-300.4,228.2-308.3,228.2z"/>
</g>
<path class="st56" d="M122.6,168.1H15.7V61.2L122.6,168.1z"/>
<g>
	<path class="st5" d="M210.2,102.8c0.6,8.7,4.1,15.4,15.4,15.4c11.3,0,14.8-6.7,15.4-15.4H210.2z"/>
	<path class="st11" d="M241.1,99.7c0-10.2-2.8-18.5-15.5-18.5c-12.6,0-15.5,8.3-15.5,18.5c0,1.1,0,2.1,0.1,3.1H241
		C241,101.8,241.1,100.8,241.1,99.7z"/>
	<path class="st0" d="M264.6,75.1c-0.1,0.2-0.2,0.4-0.3,0.6l-0.2,0.2c-0.5,0.6-1.1,1-1.8,0.9c-1.3-0.1-2.3-1.1-2.3-2.5
		c0-0.6,0-1.1,0.1-1.8c0.1-1.5-0.3-2.9-1.1-4.2c-1,0.2-2.1,0.5-3,1.2c-0.6,0.6-1.3,1.1-1.8,1.7c-0.5,0.4-0.8,0.8-1.5,0.9
		c-0.4,0.1-0.8,0-1.3,0c-0.2-0.1-0.4-0.2-0.6-0.3c-0.6-0.5-1-0.9-1-1.7c0-0.4,0-0.6,0.1-1c0.1-0.2,0.2-0.5,0.3-0.6
		c0,0,0.1,0,0.1-0.1c1.3-1.8,3.1-1.6,4.2,0.3c0.1,0.1,0.3,0.2,0.4,0.1c0.2,0,0.3-0.2,0.4-0.3l3-2.2c0-0.1,0-0.2-0.1-0.3
		c-0.5-2.3-0.9-4.6-1.4-6.8c-0.3-1.4,0-2.7,1.2-3.5c0.1,0,0.1,0.1,0.2,0.1v0.3c0.6,2.4,1,4.9,1.6,7.3c0.2,0.6,0.3,1.3,0.5,1.9
		c0.3-0.1,0.5-0.3,0.6-0.4c2.6-1.5,5.3-3,7.8-4.5h0.1c0.2,1.7-0.6,2.7-2,3.5c-1.8,1-3.6,2.1-5.4,3.2c-0.6,0.4-0.6,0.4-0.5,1.1
		c0,0.2,0.1,0.4,0.1,0.6c0.1,0.9,0.2,1.8,0.3,2.7c0,0.3,0.2,0.5,0.5,0.3c1.4-0.5,2.8,0.4,3,1.8C264.7,74.3,264.6,74.7,264.6,75.1
		L264.6,75.1z M253.5,70.4c0.3-0.6,0-1.4-0.7-1.8c-0.7-0.4-1.6,0-1.9,0.8c-0.3,0.6,0,1.5,0.6,1.8C252.2,71.5,253.2,71.1,253.5,70.4
		L253.5,70.4z M261.1,73.6c-0.4,0.7,0,1.8,0.8,2c0.6,0.3,1.4,0,1.7-0.7c0.4-0.7,0-1.7-0.7-2C262.1,72.7,261.3,73,261.1,73.6z"/>
	<circle class="st5" cx="259.4" cy="66.5" r="0.9"/>
	<g>
		<path class="st57" d="M230.4,112.2c0,5.3,0,19.2,0,25.9"/>
		<g>
			<path class="st12" d="M243.3,141.1c0,3.1-2.5,5.7-5.7,5.7l0,0c-2.4,0-4.4-2-4.4-4.4v-4.2h-5.6v12.8c0,0.8,0.7,1.5,1.5,1.5h14.1
				c3.1,0,5.7-2.4,5.8-5.5C249.1,143.7,246.5,141.1,243.3,141.1z"/>
			<g>
				<path class="st11" d="M233.3,143.8h-2.2c-0.8,0-1.5-0.7-1.5-1.5s0.7-1.5,1.5-1.5h2.2c0.8,0,1.5,0.7,1.5,1.5
					S234.1,143.8,233.3,143.8z"/>
			</g>
		</g>
	</g>
	<g>
		<path class="st12" d="M210.1,99.7c0,1.1,0,2.1,0.1,3.1H241c0.1-1,0.1-2.1,0.1-3.1c0-0.6,0-1.2,0-1.9h-30.9
			C210.1,98.5,210.1,99.1,210.1,99.7z"/>
		<rect x="223.1" y="97.9" class="st0" width="5" height="5"/>
	</g>
	<g>
		<path class="st58" d="M226.4,83.9c14.4,12.5,27.7,3.5,33.4-3"/>
		<g>
			<circle class="st5" cx="263" cy="77.1" r="5"/>
		</g>
		<g>
			<g>
				<path class="st13" d="M264.5,81.9l-6.4-5.5c-1-0.8-2.5-0.7-3.3,0.2c-0.8,1-0.7,2.5,0.2,3.3l6.4,5.5c1,0.8,2.5,0.7,3.3-0.2
					C265.6,84.2,265.5,82.8,264.5,81.9z"/>
			</g>
		</g>
	</g>
	<g>
		<path class="st58" d="M225.6,84c-19,0-23.3,15.5-23.3,24.2"/>
		<g>
			<circle class="st5" cx="202.3" cy="113.2" r="5"/>
		</g>
		<g>
			<g>
				<path class="st13" d="M206.6,105.8h-8.5c-1.3,0-2.3,1-2.3,2.3c0,1.3,1,2.3,2.3,2.3h8.5c1.3,0,2.3-1,2.3-2.3
					C208.9,106.9,207.9,105.8,206.6,105.8z"/>
			</g>
		</g>
	</g>
	<g>
		<path class="st57" d="M220.7,112.2c0,5.3,0,19.2,0,25.9"/>
		<g>
			<path class="st12" d="M207.8,141.1c0,3.1,2.5,5.7,5.7,5.7h0c2.4,0,4.4-2,4.4-4.4v-4.2h5.6v12.8c0,0.8-0.7,1.5-1.5,1.5H208
				c-3.1,0-5.7-2.4-5.8-5.5C202.1,143.7,204.6,141.1,207.8,141.1z"/>
			<g>
				<path class="st11" d="M217.9,143.8h2.2c0.8,0,1.5-0.7,1.5-1.5s-0.7-1.5-1.5-1.5h-2.2c-0.8,0-1.5,0.7-1.5,1.5
					S217.1,143.8,217.9,143.8z"/>
			</g>
		</g>
	</g>
	<g>
		<g>
			<g>
				<g>
					<circle class="st11" cx="225.6" cy="41.9" r="3.5"/>
					<polygon class="st5" points="235.6,65.3 225.6,45.4 215.6,65.3 					"/>
				</g>
				<g>
					<path class="st11" d="M235.1,70.1c-1.2,0-2.4-0.8-2.8-2.1c-0.9-3-3.6-5-6.7-5c-3.1,0-5.8,2-6.7,5c-0.5,1.5-2.1,2.4-3.7,1.9
						c-1.5-0.5-2.4-2.1-1.9-3.7c1.7-5.4,6.6-9.1,12.3-9.1c5.7,0,10.6,3.6,12.3,9.1c0.5,1.5-0.4,3.2-1.9,3.7
						C235.7,70.1,235.4,70.1,235.1,70.1z"/>
				</g>
			</g>
			<g>
				<path class="st5" d="M238.8,63.2l-5.1,5.1c-0.5,0.5-0.8,1.1-0.8,1.9c0,1.5,1.2,2.6,2.6,2.6c0.7,0,1.4-0.3,1.9-0.8
					C240.6,68.9,238.8,63.2,238.8,63.2z"/>
				<path class="st5" d="M217.5,68.3l-5.1-5.1c0,0-1.8,5.7,1.4,8.8c0.5,0.5,1.1,0.8,1.9,0.8c1.5,0,2.6-1.2,2.6-2.6
					C218.2,69.5,217.9,68.8,217.5,68.3z"/>
			</g>
			<circle class="st5" cx="225.6" cy="70.2" r="11"/>
			<path class="st12" d="M225.6,64.1c1.2-2.4,3.9-3.2,5.8-3.2c-1.7-1-3.7-1.6-5.8-1.6c-2.1,0-4.1,0.6-5.8,1.6
				C221.7,60.8,224.4,61.6,225.6,64.1z"/>
			<g>
				<g>
					<path class="st12" d="M223.6,67.3c0,1.1-0.9,2-2,2c-1.1,0-2-0.9-2-2c0-1.1,0.9-2,2-2C222.7,65.3,223.6,66.2,223.6,67.3z"/>
					<path class="st12" d="M231.6,67.3c0,1.1-0.9,2-2,2c-1.1,0-2-0.9-2-2c0-1.1,0.9-2,2-2C230.7,65.3,231.6,66.2,231.6,67.3z"/>
				</g>
			</g>
		</g>
		<path class="st11" d="M231.6,71.4c0,3.3-2.7,6.1-6.1,6.1s-6.1-2.7-6.1-6.1H231.6z"/>
	</g>
	<circle class="st13" cx="225.7" cy="84" r="2.9"/>
	<path class="st13" d="M223.3,83.3l-3-2.2v5.4l3.2-2.2L223.3,83.3z"/>
	<path class="st13" d="M227.6,84.4l0.4-1.1l2.9-2.2v5.4L227.6,84.4"/>
	<g>
		<defs>
			<circle id="SVGID_39_" cx="225.7" cy="84" r="2.9"/>
		</defs>
		<clipPath id="SVGID_40_">
			<use xlink:href="#SVGID_39_"  style="overflow:visible;"/>
		</clipPath>
		<path class="st59" d="M226.3,87c-0.8,0-1.5-0.3-2.1-0.9c-1-1-1-2.4,0-3.3c0.8-0.8,2-0.8,2.7,0c0.3,0.3,0.5,0.7,0.5,1.1
			c0,0.4-0.2,0.9-0.5,1.1c-0.3,0.3-0.6,0.4-0.9,0.4c-0.4,0-0.7-0.1-0.9-0.4c-0.4-0.4-0.4-1.1,0-1.5c0.4-0.4,0.9-0.4,1.2,0
			c0.1,0.1,0.2,0.3,0.2,0.5s-0.1,0.4-0.2,0.5c-0.1,0.1-0.3,0.2-0.4,0.2c-0.2,0-0.3-0.1-0.4-0.2c-0.2-0.2-0.2-0.6,0-0.8
			c0.2-0.2,0.5-0.2,0.7,0c0.1,0.1,0.1,0.2,0,0.2c-0.1,0.1-0.2,0.1-0.2,0c-0.1-0.1-0.2-0.1-0.2,0c-0.1,0.1-0.1,0.2,0,0.3
			s0.1,0.1,0.2,0.1c0.1,0,0.2,0,0.2-0.1c0.1-0.1,0.1-0.2,0.1-0.3c0-0.1,0-0.2-0.1-0.3c-0.2-0.2-0.6-0.2-0.9,0
			c-0.3,0.3-0.3,0.8,0,1.1c0.2,0.2,0.5,0.3,0.7,0.3c0.3,0,0.5-0.1,0.7-0.3c0.3-0.3,0.4-0.6,0.4-1s-0.1-0.7-0.4-1
			c-0.7-0.7-1.7-0.7-2.3,0c-0.9,0.9-0.9,2.1,0,3c1.1,1.1,2.7,1.1,3.7,0c0.1-0.1,0.2-0.1,0.2,0s0.1,0.2,0,0.2
			C227.9,86.8,227.1,87,226.3,87L226.3,87z"/>
	</g>
</g>
<g>
	<path class="st5" d="M809.2,154.4c0.6,8.7,4.1,15.4,15.4,15.4s14.8-6.7,15.4-15.4H809.2z"/>
	<path class="st11" d="M840.1,151.3c0-10.2-2.8-18.5-15.5-18.5s-15.5,8.3-15.5,18.5c0,1.1,0,2.1,0.1,3.1H840
		C840,153.4,840.1,152.3,840.1,151.3z"/>
	<path class="st0" d="M863.6,126.6c-0.1,0.2-0.2,0.4-0.3,0.6l-0.2,0.2c-0.5,0.6-1.1,1-1.8,0.9c-1.3-0.1-2.3-1.1-2.3-2.5
		c0-0.6,0-1.1,0.1-1.8c0.1-1.5-0.3-2.9-1.1-4.2c-1,0.2-2.1,0.5-3,1.2c-0.6,0.6-1.3,1.1-1.8,1.7c-0.5,0.4-0.8,0.8-1.5,0.9
		c-0.4,0.1-0.8,0-1.3,0c-0.2-0.1-0.4-0.2-0.6-0.3c-0.6-0.5-1-0.9-1-1.7c0-0.4,0-0.6,0.1-1c0.1-0.2,0.2-0.5,0.3-0.6
		c0,0,0.1,0,0.1-0.1c1.3-1.8,3.1-1.6,4.2,0.3c0.1,0.1,0.3,0.2,0.4,0.1c0.2,0,0.3-0.2,0.4-0.3l3-2.2c0-0.1,0-0.2-0.1-0.3
		c-0.5-2.3-0.9-4.6-1.4-6.8c-0.3-1.4,0-2.7,1.2-3.5c0.1,0,0.1,0.1,0.2,0.1v0.3c0.6,2.4,1,4.9,1.6,7.3c0.2,0.6,0.3,1.3,0.5,1.9
		c0.3-0.1,0.5-0.3,0.6-0.4c2.6-1.5,5.3-3,7.8-4.5h0.1c0.2,1.7-0.6,2.7-2,3.5c-1.8,1-3.6,2.1-5.4,3.2c-0.6,0.4-0.6,0.4-0.5,1.1
		c0,0.2,0.1,0.4,0.1,0.6c0.1,0.9,0.2,1.8,0.3,2.7c0,0.3,0.2,0.5,0.5,0.3c1.4-0.5,2.8,0.4,3,1.8C863.7,125.8,863.6,126.3,863.6,126.6
		L863.6,126.6z M852.5,121.9c0.3-0.6,0-1.4-0.7-1.8c-0.7-0.4-1.6,0-1.9,0.8c-0.3,0.6,0,1.5,0.6,1.8
		C851.2,123,852.2,122.7,852.5,121.9L852.5,121.9z M860.1,125.2c-0.4,0.7,0,1.8,0.8,2c0.6,0.3,1.4,0,1.7-0.7c0.4-0.7,0-1.7-0.7-2
		C861.1,124.2,860.3,124.5,860.1,125.2z"/>
	<circle class="st5" cx="858.4" cy="118.1" r="0.9"/>
	<g>
		<path class="st57" d="M829.5,163.7c0,5.3,0,19.2,0,25.9"/>
		<g>
			<path class="st12" d="M842.3,192.6c0,3.1-2.5,5.7-5.7,5.7l0,0c-2.4,0-4.4-2-4.4-4.4v-4.2h-5.6v12.8c0,0.8,0.7,1.5,1.5,1.5h14.1
				c3.1,0,5.7-2.4,5.8-5.5C848.1,195.3,845.5,192.6,842.3,192.6z"/>
			<g>
				<path class="st11" d="M832.3,195.4h-2.2c-0.8,0-1.5-0.7-1.5-1.5s0.7-1.5,1.5-1.5h2.2c0.8,0,1.5,0.7,1.5,1.5
					S833.1,195.4,832.3,195.4z"/>
			</g>
		</g>
	</g>
	<g>
		<path class="st12" d="M809.1,151.3c0,1.1,0,2.1,0.1,3.1H840c0.1-1,0.1-2.1,0.1-3.1c0-0.6,0-1.2,0-1.9h-30.9
			C809.1,150,809.1,150.6,809.1,151.3z"/>
		<rect x="822.1" y="149.4" class="st0" width="5" height="5"/>
	</g>
	<g>
		<path class="st58" d="M825.4,135.5c14.4,12.5,27.7,3.5,33.4-3"/>
		<g>
			<circle class="st5" cx="862" cy="128.7" r="5"/>
		</g>
		<g>
			<g>
				<path class="st13" d="M863.5,133.5l-6.4-5.5c-1-0.8-2.5-0.7-3.3,0.2c-0.8,1-0.7,2.5,0.2,3.3l6.4,5.5c1,0.8,2.5,0.7,3.3-0.2
					C864.6,135.8,864.5,134.3,863.5,133.5z"/>
			</g>
		</g>
	</g>
	<g>
		<path class="st58" d="M824.6,135.5c-19,0-23.3,15.5-23.3,24.2"/>
		<g>
			<circle class="st5" cx="801.3" cy="164.7" r="5"/>
		</g>
		<g>
			<g>
				<path class="st13" d="M805.6,157.4h-8.5c-1.3,0-2.3,1-2.3,2.3c0,1.3,1,2.3,2.3,2.3h8.5c1.3,0,2.3-1,2.3-2.3
					C807.9,158.4,806.9,157.4,805.6,157.4z"/>
			</g>
		</g>
	</g>
	<g>
		<path class="st57" d="M819.7,163.7c0,5.3,0,19.2,0,25.9"/>
		<g>
			<path class="st12" d="M806.8,192.6c0,3.1,2.5,5.7,5.7,5.7l0,0c2.4,0,4.4-2,4.4-4.4v-4.2h5.6v12.8c0,0.8-0.7,1.5-1.5,1.5H807
				c-3.1,0-5.7-2.4-5.8-5.5C801.1,195.3,803.7,192.6,806.8,192.6z"/>
			<g>
				<path class="st11" d="M816.9,195.4h2.2c0.8,0,1.5-0.7,1.5-1.5s-0.7-1.5-1.5-1.5h-2.2c-0.8,0-1.5,0.7-1.5,1.5
					S816.1,195.4,816.9,195.4z"/>
			</g>
		</g>
	</g>
	<g>
		<g>
			<g>
				<g>
					<circle class="st11" cx="824.6" cy="93.4" r="3.5"/>
					<polygon class="st5" points="834.6,116.9 824.6,96.9 814.6,116.9 					"/>
				</g>
				<g>
					<path class="st11" d="M834.1,121.7c-1.2,0-2.4-0.8-2.8-2.1c-0.9-3-3.6-5-6.7-5c-3.1,0-5.8,2-6.7,5c-0.5,1.5-2.1,2.4-3.7,1.9
						c-1.5-0.5-2.4-2.1-1.9-3.7c1.7-5.4,6.6-9.1,12.3-9.1s10.6,3.6,12.3,9.1c0.5,1.5-0.4,3.2-1.9,3.7
						C834.7,121.6,834.4,121.7,834.1,121.7z"/>
				</g>
			</g>
			<g>
				<path class="st5" d="M837.8,114.8l-5.1,5.1c-0.5,0.5-0.8,1.1-0.8,1.9c0,1.5,1.2,2.6,2.6,2.6c0.7,0,1.4-0.3,1.9-0.8
					C839.6,120.4,837.8,114.8,837.8,114.8z"/>
				<path class="st5" d="M816.5,119.9l-5.1-5.1c0,0-1.8,5.7,1.4,8.8c0.5,0.5,1.1,0.8,1.9,0.8c1.5,0,2.6-1.2,2.6-2.6
					C817.2,121,816.9,120.3,816.5,119.9z"/>
			</g>
			<circle class="st5" cx="824.6" cy="121.7" r="11"/>
			<path class="st12" d="M824.6,115.6c1.2-2.4,3.9-3.2,5.8-3.2c-1.7-1-3.7-1.6-5.8-1.6c-2.1,0-4.1,0.6-5.8,1.6
				C820.7,112.4,823.4,113.2,824.6,115.6z"/>
			<g>
				<g>
					<path class="st12" d="M822.6,118.9c0,1.1-0.9,2-2,2c-1.1,0-2-0.9-2-2c0-1.1,0.9-2,2-2C821.7,116.9,822.6,117.8,822.6,118.9z"/>
					<path class="st12" d="M830.6,118.9c0,1.1-0.9,2-2,2c-1.1,0-2-0.9-2-2c0-1.1,0.9-2,2-2C829.7,116.9,830.6,117.8,830.6,118.9z"/>
				</g>
			</g>
		</g>
		<path class="st11" d="M830.6,122.9c0,3.3-2.7,6.1-6.1,6.1c-3.3,0-6.1-2.7-6.1-6.1H830.6z"/>
	</g>
	<circle class="st13" cx="824.7" cy="135.5" r="2.9"/>
	<path class="st13" d="M822.3,134.9l-3-2.2v5.4l3.2-2.2L822.3,134.9z"/>
	<path class="st13" d="M826.6,135.9l0.4-1.1l2.9-2.2v5.4L826.6,135.9"/>
	<g>
		<defs>
			<circle id="SVGID_41_" cx="824.7" cy="135.5" r="2.9"/>
		</defs>
		<clipPath id="SVGID_42_">
			<use xlink:href="#SVGID_41_"  style="overflow:visible;"/>
		</clipPath>
		<path class="st60" d="M825.3,138.6c-0.8,0-1.5-0.3-2.1-0.9c-1-1-1-2.4,0-3.3c0.8-0.8,2-0.8,2.7,0c0.3,0.3,0.5,0.7,0.5,1.1
			c0,0.4-0.2,0.9-0.5,1.1c-0.3,0.3-0.6,0.4-0.9,0.4c-0.4,0-0.7-0.1-0.9-0.4c-0.4-0.4-0.4-1.1,0-1.5c0.4-0.4,0.9-0.4,1.2,0
			c0.1,0.1,0.2,0.3,0.2,0.5s-0.1,0.4-0.2,0.5c-0.1,0.1-0.3,0.2-0.4,0.2c-0.2,0-0.3-0.1-0.4-0.2c-0.2-0.2-0.2-0.6,0-0.8
			s0.5-0.2,0.7,0c0.1,0.1,0.1,0.2,0,0.2c-0.1,0.1-0.2,0.1-0.2,0c-0.1-0.1-0.2-0.1-0.2,0c-0.1,0.1-0.1,0.2,0,0.3s0.1,0.1,0.2,0.1
			c0.1,0,0.2,0,0.2-0.1c0.1-0.1,0.1-0.2,0.1-0.3s0-0.2-0.1-0.3c-0.2-0.2-0.6-0.2-0.9,0c-0.3,0.3-0.3,0.8,0,1.1
			c0.2,0.2,0.5,0.3,0.7,0.3c0.3,0,0.5-0.1,0.7-0.3c0.3-0.3,0.4-0.6,0.4-1c0-0.4-0.1-0.7-0.4-1c-0.7-0.7-1.7-0.7-2.3,0
			c-0.9,0.9-0.9,2.1,0,3c1.1,1.1,2.7,1.1,3.7,0c0.1-0.1,0.2-0.1,0.2,0c0,0.1,0.1,0.2,0,0.2C826.9,138.3,826.1,138.6,825.3,138.6
			L825.3,138.6z"/>
	</g>
</g>
<g>
	<g>
		<g>
			<g>
				<path class="st7" d="M643.3,113.3c0,6,0,30.3,0,38"/>
				<g>
					<path class="st8" d="M658.1,154.7c0,3.6-2.9,6.4-6.4,6.4l0,0c-2.8,0-5-2.2-5-5v-4.8H640v14.6c0,0.9,0.7,1.7,1.7,1.7H658
						c3.5,0,6.5-2.7,6.6-6.2C664.7,157.7,661.8,154.7,658.1,154.7z"/>
					<g>
						<path class="st9" d="M646.7,157.8h-2.5c-0.9,0-1.7-0.7-1.7-1.7s0.7-1.7,1.7-1.7h2.5c0.9,0,1.7,0.7,1.7,1.7
							S647.6,157.8,646.7,157.8z"/>
					</g>
				</g>
			</g>
			<g>
				<path class="st7" d="M631.7,113.3c0,6,0,30.3,0,38"/>
				<g>
					<path class="st8" d="M616.9,154.7c0,3.6,2.9,6.4,6.4,6.4l0,0c2.8,0,5-2.2,5-5v-4.8h6.7v14.6c0,0.9-0.7,1.7-1.7,1.7h-16.3
						c-3.5,0-6.5-2.7-6.6-6.2C610.3,157.7,613.3,154.7,616.9,154.7z"/>
					<g>
						<path class="st9" d="M628.4,157.8h2.5c0.9,0,1.7-0.7,1.7-1.7s-0.7-1.7-1.7-1.7h-2.5c-0.9,0-1.7,0.7-1.7,1.7
							S627.4,157.8,628.4,157.8z"/>
					</g>
				</g>
			</g>
		</g>
		<polygon class="st10" points="631.7,113.3 643.3,113.3 637.5,73.7 		"/>
		<g>
			<path class="st7" d="M636.8,73.7c-19.3,5.8-24,25.7-20.5,37.4"/>
			<g>
				<circle class="st5" cx="618.4" cy="118" r="7.1"/>
			</g>
			<g>
				<g>
					<path class="st11" d="M625.5,108.5c-0.5-1.8-2.4-2.8-4.2-2.2l-11.5,3.5c-1.8,0.5-2.8,2.4-2.2,4.2c0.5,1.8,2.4,2.8,4.2,2.2
						l11.5-3.5C625,112.1,626,110.2,625.5,108.5z"/>
				</g>
			</g>
		</g>
		<g>
			<path class="st7" d="M638,73.7c19.3,5.8,24,25.7,20.5,37.4"/>
			<g>
				<circle class="st5" cx="656.4" cy="118" r="7.1"/>
			</g>
			<g>
				<g>
					<path class="st11" d="M665.2,109.7l-11.1-3.3c-0.1,0-0.2-0.1-0.3-0.1c-1.8-0.5-3.6,0.5-4.2,2.2c-0.5,1.7,0.4,3.5,2.1,4.1l0,0
						l11.5,3.5c1.8,0.5,3.6-0.5,4.2-2.2S666.9,110.2,665.2,109.7z"/>
				</g>
			</g>
		</g>
		<path class="st5" d="M637.5,120.8c4.6,0,10.9-2.2,10.9-11.7s6.8-12.6,6.8-21.8s-6-16.9-17.7-16.9c-11.7,0-17.7,7.7-17.7,16.9
			s6.8,12.3,6.8,21.8S632.9,120.8,637.5,120.8z"/>
		<g>
			<path class="st12" d="M650,101.7h-24.9c0.9,2,1.5,4.3,1.6,7.1h21.8C648.4,106,649.1,103.8,650,101.7z"/>
			<rect x="634.4" y="101.7" class="st13" width="7.1" height="7.1"/>
		</g>
		<g>
			<g>
				<path class="st0" d="M623.8,59.9l5.3,5.3c2.9,2.9,2.9,7.6,0,10.5l-5.3-5.3C620.9,67.5,620.9,62.8,623.8,59.9z"/>
				<path class="st0" d="M623.8,70.4l5.3,5.3c2.9,2.9,2.9,7.6,0,10.5l-5.3-5.3C620.9,78,620.9,73.3,623.8,70.4z"/>
				<path class="st0" d="M623.8,80.9l5.3,5.3c2.9,2.9,2.9,7.6,0,10.5l-5.3-5.3C620.9,88.5,620.9,83.8,623.8,80.9z"/>
				<path class="st0" d="M625.3,104.1v-3.7c0-2.1,1.7-3.7,3.7-3.7v3.7C629.1,102.5,627.4,104.1,625.3,104.1z"/>
				<path class="st0" d="M632.8,104.1v-3.7c0-2.1-1.7-3.7-3.7-3.7v3.7C629.1,102.5,630.7,104.1,632.8,104.1z"/>
			</g>
			<g>
				<g>
					<g>
						<circle class="st11" cx="637.5" cy="15.9" r="4.9"/>
						<polygon class="st5" points="651.7,48.7 637.5,20.3 623.3,48.7 						"/>
					</g>
					<g>
						<path class="st11" d="M651.1,52.8c-1.8,0-3.4-1.1-4-2.9c-1.3-4.2-5.2-7-9.6-7s-8.3,2.8-9.6,7c-0.7,2.2-3,3.4-5.2,2.7
							c-2.2-0.7-3.4-3-2.7-5.2c2.4-7.7,9.5-12.9,17.5-12.9s15.1,5.2,17.5,12.9c0.7,2.2-0.5,4.5-2.7,5.2
							C651.9,52.7,651.5,52.8,651.1,52.8z"/>
					</g>
				</g>
				<path class="st0" d="M620.7,56.2c0-9.3,7.5-16.8,16.8-16.8c9.3,0,16.8,7.5,16.8,16.8H620.7z"/>
				<g>
					<path class="st5" d="M656.3,46.3l-7.3,7.3c-0.7,0.7-1.1,1.6-1.1,2.7c0,2.1,1.7,3.8,3.8,3.8c1,0,2-0.4,2.7-1.1
						C658.9,54.3,656.3,46.3,656.3,46.3z"/>
					<path class="st5" d="M618.7,46.3c0,0-2.6,8,1.9,12.6c0.7,0.7,1.6,1.1,2.7,1.1c2.1,0,3.8-1.7,3.8-3.8c0-1-0.4-2-1.1-2.7
						L618.7,46.3z"/>
				</g>
				<path class="st14" d="M651.7,58.3c1.1,0,1.9,0.9,1.9,1.9c0,1.1-0.9,1.9-1.9,1.9s-1.9-0.9-1.9-1.9"/>
				<path class="st14" d="M623.3,58.3c-1.1,0-1.9,0.9-1.9,1.9c0,1.1,0.9,1.9,1.9,1.9s1.9-0.9,1.9-1.9"/>
				<circle class="st5" cx="637.5" cy="56.2" r="14.2"/>
				<g>
					<g>
						<path class="st12" d="M634.6,52.1c0,1.6-1.3,2.9-2.9,2.9c-1.6,0-2.9-1.3-2.9-2.9c0-1.6,1.3-2.9,2.9-2.9
							C633.4,49.2,634.6,50.5,634.6,52.1z"/>
						<path class="st12" d="M646.1,52.1c0,1.6-1.3,2.9-2.9,2.9c-1.6,0-2.9-1.3-2.9-2.9c0-1.6,1.3-2.9,2.9-2.9
							C644.8,49.2,646.1,50.5,646.1,52.1z"/>
					</g>
					<path class="st11" d="M646.1,57.8c0,4.8-3.9,8.6-8.6,8.6s-8.6-3.9-8.6-8.6H646.1z"/>
				</g>
			</g>
			<path class="st0" d="M637.5,42c-4.9,0-9.1,2.4-11.7,6.2c2.6,0.4,5.3,0,7.9-1.1c1.5-0.7,2.7-1.5,3.8-2.6c1.1,1,2.4,1.9,3.8,2.6
				c2.6,1.2,5.3,1.5,7.9,1.1C646.7,44.4,642.4,42,637.5,42z"/>
		</g>
	</g>
	<g>
		<polygon class="st15" points="676.8,115.2 688.4,115.2 682.6,57 		"/>
		<g>
			<g>
				<path class="st7" d="M688.4,115.2c0,6,0,56.9,0,64.6"/>
				<g>
					<path class="st8" d="M703.2,183.1c0,3.6-2.9,6.4-6.4,6.4l0,0c-2.8,0-5-2.2-5-5v-4.8h-6.7v14.6c0,0.9,0.7,1.7,1.7,1.7H703
						c3.5,0,6.5-2.7,6.6-6.2C709.8,186.1,706.8,183.1,703.2,183.1z"/>
					<g>
						<path class="st9" d="M691.7,186.2h-2.5c-0.9,0-1.7-0.7-1.7-1.7s0.7-1.7,1.7-1.7h2.5c0.9,0,1.7,0.7,1.7,1.7
							S692.7,186.2,691.7,186.2z"/>
					</g>
				</g>
			</g>
			<g>
				<path class="st7" d="M676.8,115.2c0,6,0,56.9,0,64.6"/>
				<g>
					<path class="st8" d="M662,183.1c0,3.6,2.9,6.4,6.4,6.4h0c2.8,0,5-2.2,5-5v-4.8h6.7v14.6c0,0.9-0.7,1.7-1.7,1.7h-16.3
						c-3.5,0-6.5-2.7-6.6-6.2C655.4,186.1,658.3,183.1,662,183.1z"/>
					<g>
						<path class="st9" d="M673.4,186.2h2.5c0.9,0,1.7-0.7,1.7-1.7s-0.7-1.7-1.7-1.7h-2.5c-0.9,0-1.7,0.7-1.7,1.7
							S672.5,186.2,673.4,186.2z"/>
					</g>
				</g>
			</g>
		</g>
		<path class="st0" d="M682.6,53.6c-7.2,0-13,5.8-13,13v43c0,7.2,5.8,13,13,13c7.2,0,13-5.8,13-13v-43
			C695.6,59.5,689.8,53.6,682.6,53.6z"/>
		<g>
			<rect x="669.6" y="96.9" class="st12" width="26" height="7.1"/>
			<rect x="679" y="96.9" class="st13" width="7.1" height="7.1"/>
		</g>
		<g>
			<g>
				<g>
					<circle class="st11" cx="682.6" cy="-0.9" r="4.9"/>
					<polygon class="st0" points="696.8,32.5 682.6,4.1 668.4,32.5 					"/>
				</g>
				<g>
					<path class="st11" d="M696.2,39.3c-1.8,0-3.4-1.1-4-2.9c-1.3-4.2-5.2-7-9.6-7c-4.4,0-8.3,2.8-9.6,7c-0.7,2.2-3,3.4-5.2,2.7
						c-2.2-0.7-3.4-3-2.7-5.2c2.4-7.7,9.5-12.9,17.5-12.9c8.1,0,15.1,5.2,17.5,12.9c0.7,2.2-0.5,4.5-2.7,5.2
						C697,39.3,696.6,39.3,696.2,39.3z"/>
				</g>
			</g>
			<g>
				<path class="st5" d="M701.4,29.5l-7.3,7.3c-0.7,0.7-1.1,1.6-1.1,2.7c0,2.1,1.7,3.8,3.8,3.8c1,0,2-0.4,2.7-1.1
					C704,37.5,701.4,29.5,701.4,29.5z"/>
				<path class="st5" d="M671,36.8l-7.3-7.3c0,0-2.6,8,1.9,12.6c0.7,0.7,1.6,1.1,2.7,1.1c2.1,0,3.8-1.7,3.8-3.8
					C672.1,38.4,671.7,37.4,671,36.8z"/>
			</g>
			<circle class="st5" cx="682.6" cy="39.4" r="14.2"/>
			<g>
				<g>
					<path class="st12" d="M679.7,35.3c0,1.6-1.3,2.9-2.9,2.9c-1.6,0-2.9-1.3-2.9-2.9c0-1.6,1.3-2.9,2.9-2.9
						C678.4,32.5,679.7,33.8,679.7,35.3z"/>
					<path class="st11" d="M691.2,41.1c0,4.8-3.9,8.6-8.6,8.6s-8.6-3.9-8.6-8.6H691.2z"/>
					<path class="st12" d="M691.2,35.3c0,1.6-1.3,2.9-2.9,2.9c-1.6,0-2.9-1.3-2.9-2.9c0-1.6,1.3-2.9,2.9-2.9
						C689.9,32.5,691.2,33.8,691.2,35.3z"/>
				</g>
			</g>
		</g>
		<circle class="st16" cx="688.3" cy="35.3" r="4.7"/>
		<circle class="st16" cx="676.8" cy="35.3" r="4.7"/>
		<line class="st16" x1="681.5" y1="35.3" x2="683.6" y2="35.3"/>
		<g>
			<path class="st7" d="M682.6,57c-25.1,4-21.7,35.9-18.9,53.4"/>
			<g>
				<circle class="st5" cx="664.8" cy="117.4" r="7.1"/>
			</g>
			<g>
				<g>
					<path class="st11" d="M672.9,108.9c-0.3-1.8-2-3.1-3.8-2.8l-11.9,1.9c-1.8,0.3-3.1,2-2.8,3.8c0.3,1.8,2,3.1,3.8,2.8l11.9-1.9
						C672,112.4,673.2,110.7,672.9,108.9z"/>
				</g>
			</g>
		</g>
		<g>
			<path class="st7" d="M682.6,57c25.1,4,21.7,35.9,18.9,53.4"/>
			<g>
				<circle class="st5" cx="700.4" cy="117.4" r="7.1"/>
			</g>
			<g>
				<g>
					<path class="st11" d="M708,108l-11.9-1.9c-1.8-0.3-3.5,1-3.8,2.8c-0.3,1.8,1,3.5,2.8,3.8l11.9,1.9c1.8,0.3,3.5-1,3.8-2.8
						C711.1,110,709.8,108.3,708,108z"/>
				</g>
			</g>
		</g>
	</g>
	<line class="st14" x1="682.5" y1="56.2" x2="682.5" y2="96.9"/>
</g>
<path class="st56" d="M271.7,155.3h-79V34.9l11.2,14.4l56.5,91.1L271.7,155.3z"/>
<path class="st56" d="M286.9,311h-97.7v-97.6l13.8,11.7l69.9,73.8L286.9,311z"/>
<path class="st56" d="M115.6,366.8H35.1V241.4l11.4,15l57.6,94.9L115.6,366.8z"/>
</svg>
