<svg xmlns="http://www.w3.org/2000/svg" viewBox="0 0 497.44 317.9" width="497.44" height="317.9"><defs><style>.cls-1{opacity:0.1;}.cls-2{fill:#97babf;}.cls-3{fill:#e53935;}.cls-4{fill:#f9ce1d;}.cls-5{fill:#32a658;}.cls-6{fill:#39f;}.cls-7{fill:#332e2e;}.cls-8{fill:#00acc1;}.cls-12,.cls-13,.cls-15,.cls-9{fill:none;stroke-miterlimit:10;}.cls-9{stroke:#39f;}.cls-13,.cls-15,.cls-9{stroke-linecap:round;stroke-width:11.83px;}.cls-10{fill:#bf8f68;}.cls-11{fill:#fff;}.cls-12{stroke:#332e2e;stroke-width:2px;}.cls-13{stroke:#2a8c4a;}.cls-14{fill:#9b643d;}.cls-15{stroke:#32a658;}.cls-16{fill:#764c2e;}</style></defs><title>elf_seesaw</title><g id="Layer_2" data-name="Layer 2"><g id="ART"><ellipse id="_Path_" data-name="&lt;Path&gt;" class="cls-1" cx="229.19" cy="294.77" rx="23.11" ry="216.7" transform="translate(-66.58 522.66) rotate(-89.75)"/><polygon class="cls-2" points="312.07 294.77 146.31 294.51 229.38 169.88 312.07 294.77"/><path class="cls-3" d="M56.35,187.68h0l13,2.67h0a30.86,30.86,0,0,0-24.06-36.41l-2.66,13A17.55,17.55,0,0,1,56.35,187.68Z"/><path d="M90.46,201.44a12.87,12.87,0,0,1-15.2,10h0a10,10,0,0,1-7.78-11.77l1.91-9.36-13-2.67-5.82,28.5a3.34,3.34,0,0,0,2.6,3.93L85,226.62a13.09,13.09,0,0,0,15.4-9.52A12.88,12.88,0,0,0,90.46,201.44Z"/><path class="cls-4" d="M66.81,203l-4.89-1a3.33,3.33,0,1,1,1.33-6.53l4.9,1A3.33,3.33,0,0,1,66.81,203Z"/><path class="cls-5" d="M398.13,257.47h0l-13-2.66h0a30.86,30.86,0,0,1,36.41-24.06l-2.67,13A17.54,17.54,0,0,0,398.13,257.47Z"/><path d="M361.36,256.75a12.88,12.88,0,0,0,10,15.2h0a10,10,0,0,0,11.78-7.79l1.91-9.35,13,2.66L392.32,286a3.33,3.33,0,0,1-3.93,2.59l-31.88-6.51a13.07,13.07,0,0,1-10.43-14.79A12.89,12.89,0,0,1,361.36,256.75Z"/><path class="cls-4" d="M382.52,267.43l4.9,1a3.33,3.33,0,0,0,1.33-6.53l-4.9-1a3.33,3.33,0,0,0-1.33,6.53Z"/><rect class="cls-2" x="-2.93" y="205.21" width="463.86" height="17.54" transform="translate(47.44 -41.49) rotate(11.54)"/><rect class="cls-2" x="83.63" y="138.23" width="12.62" height="38.01" transform="translate(33.27 -14.81) rotate(11.54)"/><rect class="cls-2" x="372.85" y="197.29" width="12.62" height="38.01" transform="translate(707.39 504.06) rotate(-168.46)"/><path class="cls-6" d="M69.39,190.35h0l13,2.66h0a30.84,30.84,0,0,0-24.06-36.4l-2.66,13A17.54,17.54,0,0,1,69.39,190.35Z"/><path class="cls-7" d="M103.5,204.1a12.88,12.88,0,0,1-15.19,10.05h0a10,10,0,0,1-7.79-11.78L82.43,193l-13-2.66-5.82,28.5a3.33,3.33,0,0,0,2.6,3.92l31.88,6.51a13.07,13.07,0,0,0,15.39-9.52A12.89,12.89,0,0,0,103.5,204.1Z"/><path class="cls-4" d="M79.86,205.63l-4.9-1a3.33,3.33,0,1,1,1.33-6.52l4.9,1a3.33,3.33,0,0,1-1.33,6.52Z"/><line class="cls-8" x1="50.58" y1="107.11" x2="40.1" y2="158.43"/><path class="cls-6" d="M63.25,171.19l8-39.41C74,118.47,66.12,104.93,53,101.58A25.24,25.24,0,0,0,22,121L17.77,141.7A19.79,19.79,0,0,0,33.2,165.05Z"/><rect class="cls-7" x="18.52" y="134.26" width="50.46" height="12.62" transform="translate(29 -5.91) rotate(11.54)"/><rect class="cls-4" x="55.99" y="138.04" width="12.62" height="12.62" transform="translate(30.14 -9.54) rotate(11.54)"/><path class="cls-9" d="M50.58,107.11c-11.35,20.94,3.8,37.4,34.26,33.75"/><circle class="cls-10" cx="97.36" cy="139.36" r="12.62"/><path class="cls-11" d="M80.42,151.27a5.91,5.91,0,0,0,11.24-3.19l-1.9-15.85A5.92,5.92,0,1,0,78,133.64l1.9,15.85A5.89,5.89,0,0,0,80.42,151.27Z"/><circle class="cls-10" cx="56.81" cy="76.59" r="25.23"/><ellipse class="cls-7" cx="44.89" cy="72.47" rx="21.85" ry="12.62" transform="translate(-38.27 91.26) rotate(-70.96)"/><path class="cls-7" d="M5.19,86.67l14.33-3.93A14.84,14.84,0,0,1,37.76,93.13L23.42,97.06A14.84,14.84,0,0,1,5.19,86.67Z"/><polygon class="cls-10" points="77.86 62.68 91.78 83.73 81.53 81.64 77.86 62.68"/><path class="cls-11" d="M80.77,84.5l-16.2-3.31a15.29,15.29,0,0,0,6.82,16A25.18,25.18,0,0,0,80.77,84.5Z"/><circle class="cls-11" cx="34.18" cy="8.78" r="8.78"/><polygon class="cls-6" points="76.84 56.91 36.96 17.11 28.98 72.88 76.84 56.91"/><path class="cls-11" d="M27.5,80.13a7.39,7.39,0,0,1-.86-14.26l47.86-16a7.39,7.39,0,1,1,4.68,14l-47.86,16A7.45,7.45,0,0,1,27.5,80.13Z"/><path class="cls-10" d="M56.65,71.44,46.59,56.22S39.22,69.3,45.51,78.8a6.68,6.68,0,0,0,11.14-7.36Z"/><path class="cls-12" d="M66.05,73.93a5.1,5.1,0,0,1,10,2"/><path class="cls-13" d="M435,185.6c-21.57,8.58-37.81-7.35-49.85-35.56"/><circle class="cls-14" cx="380.23" cy="138.43" r="12.62"/><path class="cls-11" d="M378.37,159.06a5.91,5.91,0,0,1-2.86-11.33l14.69-6.27a5.92,5.92,0,1,1,4.65,10.88l-14.69,6.27A5.82,5.82,0,0,1,378.37,159.06Z"/><path class="cls-5" d="M385.09,254.81h0l-13-2.67h0a30.87,30.87,0,0,1,36.41-24.06l-2.67,13A17.54,17.54,0,0,0,385.09,254.81Z"/><path class="cls-7" d="M348.32,254.09a12.89,12.89,0,0,0,10,15.2h0a10,10,0,0,0,11.78-7.79l1.91-9.36,13,2.67-5.82,28.49a3.31,3.31,0,0,1-3.92,2.6l-31.88-6.51A13.09,13.09,0,0,1,333,264.59,12.88,12.88,0,0,1,348.32,254.09Z"/><path class="cls-4" d="M369.48,264.76l4.89,1a3.33,3.33,0,0,0,1.34-6.52l-4.9-1a3.33,3.33,0,1,0-1.33,6.52Z"/><line class="cls-8" x1="435.03" y1="185.6" x2="424.55" y2="236.93"/><path class="cls-5" d="M398.25,239.59l8.05-39.41C409,186.87,421.58,177.5,435,179.59a25.23,25.23,0,0,1,20.87,30l-4.23,20.72a19.78,19.78,0,0,1-23.34,15.43Z"/><rect class="cls-7" x="402.96" y="212.75" width="50.46" height="12.62" transform="translate(803.91 519.35) rotate(-168.46)"/><rect class="cls-4" x="403.35" y="208.97" width="12.62" height="12.62" transform="translate(767.96 508.15) rotate(-168.46)"/><path class="cls-15" d="M435,185.6c2.23,23.72-18.16,32.93-44.75,17.63"/><circle class="cls-14" cx="379.35" cy="196.93" r="12.62"/><path class="cls-11" d="M390.27,214.53a5.92,5.92,0,0,1-9.1-7.33l8-13.85a5.92,5.92,0,1,1,10.25,5.91l-8,13.84A5.82,5.82,0,0,1,390.27,214.53Z"/><circle class="cls-14" cx="441.26" cy="155.09" r="25.23"/><ellipse class="cls-16" cx="453.84" cy="155.97" rx="21.85" ry="12.62" transform="translate(266.31 597.71) rotate(-85.96)"/><polygon class="cls-14" points="427.35 134.04 406.3 147.95 416.54 150.04 427.35 134.04"/><path class="cls-11" d="M416.12,153l16.2,3.31a15.29,15.29,0,0,1-12.54,12A25.12,25.12,0,0,1,416.12,153Z"/><circle class="cls-11" cx="488.66" cy="101.58" r="8.78"/><polygon class="cls-5" points="430.55 129.13 482.84 108.15 468.32 162.59 430.55 129.13"/><path class="cls-11" d="M466.83,169.83a7.4,7.4,0,0,0,6.39-12.78l-37.77-33.46a7.39,7.39,0,1,0-9.8,11.07l37.77,33.46A7.31,7.31,0,0,0,466.83,169.83Z"/><path class="cls-14" d="M443.43,150.42l15.22-10.06s1.65,14.91-7.86,21.19a6.6,6.6,0,0,1-5,1,6.67,6.67,0,0,1-2.35-12.11Z"/><path class="cls-7" d="M424.21,145a5.1,5.1,0,1,0,6-4A5.1,5.1,0,0,0,424.21,145Z"/><path class="cls-16" d="M429.08,143.15c-7.3-4.22-8.84-11.06-6-16,2.74-4.74,9.34-8,17.21-3.42,11.93,6.9,21.48,29.14,4.82,41.62C445.38,156.42,440.62,149.82,429.08,143.15Z"/><circle class="cls-11" cx="229.19" cy="213.04" r="9.74"/></g></g></svg>