<svg xmlns="http://www.w3.org/2000/svg" viewBox="0 0 140.36 248.49" width="140.36" height="248.49"><defs><style>.cls-1,.cls-9{fill:none;stroke-miterlimit:10;}.cls-1{stroke:#9b643d;stroke-linecap:round;stroke-width:14.07px;}.cls-2{fill:#332e2e;}.cls-3{fill:#f9ce1d;}.cls-4{fill:#9b643d;}.cls-5{fill:#f33;}.cls-6{fill:#cc2929;}.cls-7{fill:#fff;}.cls-8{fill:#764c2e;}.cls-9{stroke:#f9ce1d;stroke-width:1.76px;}</style></defs><title>elf19</title><g id="Layer_2" data-name="Layer 2"><g id="ART"><path class="cls-1" d="M58,173.81v39"/><path class="cls-2" d="M25.79,220.13A14.18,14.18,0,0,0,40,234.31h0a11,11,0,0,0,11-11V212.8H65v32a3.66,3.66,0,0,1-3.66,3.66H26.13a14.4,14.4,0,0,1-14.51-13.66A14.18,14.18,0,0,1,25.79,220.13Z"/><path class="cls-3" d="M51,227h5.51a3.67,3.67,0,0,0,0-7.33H51A3.67,3.67,0,0,0,51,227Z"/><path class="cls-1" d="M82.36,173.81v39"/><path class="cls-2" d="M114.57,220.13a14.18,14.18,0,0,1-14.18,14.18h0a11,11,0,0,1-11-11V212.8H75.33v32A3.66,3.66,0,0,0,79,248.49h35.24a14.4,14.4,0,0,0,14.51-13.66A14.18,14.18,0,0,0,114.57,220.13Z"/><path class="cls-3" d="M89.4,227H83.89a3.67,3.67,0,0,1,0-7.33H89.4a3.67,3.67,0,0,1,0,7.33Z"/><path class="cls-1" d="M70.18,99.91c34.4,0,56.68,23.55,57.31,45.19"/><circle class="cls-4" cx="127.86" cy="157.59" r="12.5"/><path class="cls-1" d="M70.18,99.91c-34.4,0-56.68,23.55-57.31,45.19"/><circle class="cls-4" cx="12.5" cy="157.59" r="12.5"/><polygon class="cls-5" points="58 173.81 82.36 173.81 70.18 99.91 58 173.81"/><path class="cls-5" d="M70.18,92.88c-22.86,0-34.4,33.66-34.4,61.7s4.91,45.5,4.91,45.5h59s4.92-17.45,4.92-45.5S93,92.88,70.18,92.88Z"/><path class="cls-2" d="M35.87,150.27h68.62a108.61,108.61,0,0,0-1.24-12.5H37.1A110.85,110.85,0,0,0,35.87,150.27Z"/><rect class="cls-3" x="63.93" y="137.77" width="12.5" height="12.5"/><circle class="cls-5" cx="70.18" cy="39.93" r="22.53"/><path class="cls-6" d="M14.07,43.55H126.29C95.3,24.54,45.06,24.54,14.07,43.55Z"/><path class="cls-6" d="M14.07,43.55H126.29C116.78,86.6,23.58,86.6,14.07,43.55Z"/><circle class="cls-7" cx="70.18" cy="8.7" r="8.7"/><path class="cls-8" d="M37.65,65.38a32.53,32.53,0,1,1,65.06,0Z"/><path class="cls-4" d="M103.29,47.91,90.5,60.7a6.61,6.61,0,1,0,9.36,9.35C107.84,62.07,103.29,47.91,103.29,47.91Z"/><path class="cls-4" d="M49.85,60.7,37.07,47.91S32.51,62.07,40.5,70.05a6.61,6.61,0,1,0,9.35-9.35Z"/><circle class="cls-4" cx="70.18" cy="65.38" r="27.5"/><path class="cls-2" d="M65.13,58.21a5,5,0,1,1-5-5.05A5.06,5.06,0,0,1,65.13,58.21Z"/><path class="cls-2" d="M85.33,58.21a5,5,0,1,1-5-5.05A5.06,5.06,0,0,1,85.33,58.21Z"/><path class="cls-7" d="M85.33,68.31a15.15,15.15,0,1,1-30.3,0Z"/><path class="cls-8" d="M70.18,47.55a27.36,27.36,0,0,0,15.57-4.84,27.46,27.46,0,0,0-31.14,0A27.36,27.36,0,0,0,70.18,47.55Z"/><line class="cls-9" x1="98.7" y1="68.31" x2="98.7" y2="74.63"/><line class="cls-9" x1="41.66" y1="68.31" x2="41.66" y2="74.63"/></g></g></svg>