<svg xmlns="http://www.w3.org/2000/svg" viewBox="0 0 128.11 236.99" width="128.11" height="236.99"><defs><style>.cls-1{fill:#00acc1;}.cls-2{fill:#39f;}.cls-10,.cls-11,.cls-3{fill:none;stroke-linecap:round;stroke-miterlimit:10;}.cls-3{stroke:#39f;stroke-width:11.72px;}.cls-4{fill:#332e2e;}.cls-5{fill:#f9ce1d;}.cls-6{fill:#fadcbc;}.cls-7{fill:#fff;}.cls-8{fill:#764c2e;}.cls-9{fill:#558b2f;}.cls-10{stroke:#000;stroke-width:2.93px;}.cls-11{stroke:#fff;stroke-width:5.86px;}</style></defs><title>elf1</title><g id="Layer_2" data-name="Layer 2"><g id="ART"><polygon class="cls-1" points="53.8 162.31 74.31 162.31 64.05 110.4 53.8 162.31"/><path class="cls-2" d="M64.05,104.54a25,25,0,0,0-25,25v21a25,25,0,0,0,50,0v-21A25,25,0,0,0,64.05,104.54Z"/><path class="cls-3" d="M74.31,162.31v46.13"/><path class="cls-4" d="M100.31,214.3A11.34,11.34,0,0,1,89,225.64h0a8.79,8.79,0,0,1-8.8-8.79v-8.41H68.45v25.62A2.93,2.93,0,0,0,71.38,237H100a11.53,11.53,0,0,0,11.61-10.93A11.35,11.35,0,0,0,100.31,214.3Z"/><path class="cls-5" d="M80.17,219.78h-4.4a2.93,2.93,0,1,1,0-5.86h4.4a2.93,2.93,0,0,1,0,5.86Z"/><path class="cls-3" d="M53.8,162.31v46.13"/><path class="cls-4" d="M27.8,214.3a11.34,11.34,0,0,0,11.34,11.34h0a8.79,8.79,0,0,0,8.8-8.79v-8.41H59.66v25.62A2.93,2.93,0,0,1,56.73,237H28.07a11.53,11.53,0,0,1-11.61-10.93A11.35,11.35,0,0,1,27.8,214.3Z"/><path class="cls-5" d="M47.94,219.78h4.4a2.93,2.93,0,0,0,0-5.86h-4.4a2.93,2.93,0,1,0,0,5.86Z"/><rect class="cls-4" x="39.05" y="137.99" width="50" height="12.5"/><rect class="cls-5" x="57.8" y="137.99" width="12.5" height="12.5"/><path class="cls-3" d="M64.05,110.4c23.75,0,47.6,19.31,47.6,40.95"/><circle class="cls-6" cx="111.65" cy="163.85" r="12.5"/><path class="cls-7" d="M122.25,145.49H101.06a5.87,5.87,0,0,0,0,11.73h21.19a5.87,5.87,0,0,0,0-11.73Z"/><path class="cls-3" d="M64.05,110.4c-23.75,0-47.6,17.16-47.6,40.95"/><circle class="cls-6" cx="16.45" cy="163.85" r="12.5"/><path class="cls-7" d="M27.05,145.49H5.86a5.87,5.87,0,0,0,0,11.73H27.05a5.87,5.87,0,0,0,0-11.73Z"/><path class="cls-8" d="M44,82a6.57,6.57,0,1,1-9.29,9.3Z"/><path class="cls-8" d="M41.9,87.62a6.58,6.58,0,0,1,0,13.15Z"/><path class="cls-8" d="M84.14,82a6.58,6.58,0,1,0,9.3,9.3Z"/><path class="cls-8" d="M86.21,87.62a6.58,6.58,0,1,0,0,13.15Z"/><circle class="cls-7" cx="64.05" cy="8.7" r="8.7"/><polygon class="cls-2" points="89.06 67.32 64.05 17.4 39.05 67.32 89.06 67.32"/><path class="cls-7" d="M87.92,79.4a7.33,7.33,0,0,1-7-5.14,17.68,17.68,0,0,0-33.75,0,7.33,7.33,0,0,1-14-4.38,32.35,32.35,0,0,1,61.73,0,7.35,7.35,0,0,1-7,9.52Z"/><path class="cls-6" d="M97.16,62.08,84.38,74.86a6.61,6.61,0,1,0,9.36,9.35C101.72,76.23,97.16,62.08,97.16,62.08Z"/><path class="cls-6" d="M43.73,74.86,31,62.08s-4.56,14.15,3.42,22.14a6.62,6.62,0,1,0,9.36-9.36Z"/><circle class="cls-6" cx="64.05" cy="79.54" r="25"/><path class="cls-8" d="M64.05,54.54h0a24.85,24.85,0,0,0-12.53,3.37,6.72,6.72,0,0,0,5.81,3.35l-2.79,2.79a6.74,6.74,0,0,0,9.51,0V68a6.73,6.73,0,0,0,6.73-6.73l2.79,2.79a6.73,6.73,0,0,0,1.61-6.9,24.88,24.88,0,0,0-11.13-2.61Z"/><path class="cls-4" d="M59,72.37a5,5,0,1,1-5-5.05A5,5,0,0,1,59,72.37Z"/><path class="cls-4" d="M79.2,72.37a5,5,0,1,1-5-5.05A5,5,0,0,1,79.2,72.37Z"/><path class="cls-7" d="M79.2,82.47a15.15,15.15,0,0,1-30.3,0Z"/><path class="cls-9" d="M43.9,119.9a18,18,0,0,0-4.22,2.18c-3.43,2.8-3,7.22-2.8,11.14.31,6.25.69,12.48,1.08,18.71l.58,9.32c.14,2.23,0,5.48,1.75,7.2,1.3,1.29,3.37,1.24,5.2,1.11l9.08-.66a6.1,6.1,0,0,0,3.83-1.18c1.19-1.12,1.27-2.94,1.27-4.57l0-24.27c0-3.68-.15-7.4,0-11.07a62,62,0,0,0-.21-11.72,23.2,23.2,0,0,0-5-12,2.16,2.16,0,0,0-1.76-1,1.55,1.55,0,0,0-1.15,1.09,5.29,5.29,0,0,0-.17,1.64c0,5.48-1.52,10.92-6.66,13.63Z"/><line class="cls-10" x1="59.75" y1="129.64" x2="36.75" y2="129.64"/><line class="cls-10" x1="59.75" y1="153.84" x2="38.08" y2="153.84"/><line class="cls-10" x1="59.75" y1="141.74" x2="37.34" y2="141.74"/><path class="cls-11" d="M52.37,103.37c3.72,3.65,5.78,8.73,6.67,13.87,1.26,7.25.59,14.83.59,22.15q0,10.14,0,20.27c0,1.76,0,3.55,0,5.32a4.3,4.3,0,0,1-.74,2.92,4.31,4.31,0,0,1-3,1,157.14,157.14,0,0,1-16.53-.06"/><path class="cls-9" d="M84.21,119.9a18,18,0,0,1,4.22,2.18c3.43,2.8,3,7.22,2.8,11.14-.31,6.25-.69,12.48-1.08,18.71l-.58,9.32c-.14,2.23,0,5.48-1.75,7.2-1.3,1.29-3.38,1.24-5.2,1.11l-9.08-.66a6.1,6.1,0,0,1-3.83-1.18c-1.19-1.12-1.27-2.94-1.27-4.57l0-24.27c0-3.68.15-7.4,0-11.07a62.87,62.87,0,0,1,.22-11.72,23.2,23.2,0,0,1,5-12,2.16,2.16,0,0,1,1.76-1,1.55,1.55,0,0,1,1.15,1.09,5.29,5.29,0,0,1,.17,1.64c0,5.48,1.51,10.92,6.66,13.63Z"/><line class="cls-10" x1="68.36" y1="129.64" x2="91.36" y2="129.64"/><line class="cls-10" x1="68.36" y1="153.84" x2="90.03" y2="153.84"/><line class="cls-10" x1="68.36" y1="141.74" x2="90.77" y2="141.74"/><path class="cls-11" d="M75.74,103.37C72,107,70,112.1,69.07,117.24c-1.26,7.25-.59,14.83-.59,22.15q0,10.14,0,20.27c0,1.76,0,3.55,0,5.32a4.3,4.3,0,0,0,.74,2.92,4.31,4.31,0,0,0,3,1,157.14,157.14,0,0,0,16.53-.06"/></g></g></svg>