<svg xmlns="http://www.w3.org/2000/svg" viewBox="0 0 155.48 236.99"><defs><style>.cls-1{fill:#00acc1;}.cls-2,.cls-5,.cls-8{fill:none;stroke-linecap:round;stroke-miterlimit:10;}.cls-2{stroke:#ffe14d;}.cls-2,.cls-5{stroke-width:11.72px;}.cls-3{fill:#332e2e;}.cls-4{fill:#f9ce1d;}.cls-5{stroke:#00acc1;}.cls-6{fill:#584539;}.cls-7{fill:#39f;}.cls-8{stroke:#fff;stroke-width:2.93px;}.cls-9{fill:#fff;}.cls-10{fill:#a14343;}</style></defs><title>elf20</title><g id="Layer_2" data-name="Layer 2"><g id="ART"><polygon class="cls-1" points="67.48 162.31 88 162.31 77.74 110.4 67.48 162.31"/><path class="cls-1" d="M77.74,104.54a25,25,0,0,0-25,25v21a25,25,0,0,0,50,0v-21A25,25,0,0,0,77.74,104.54Z"/><path class="cls-2" d="M88,162.31v46.13"/><path class="cls-3" d="M114,214.3a11.35,11.35,0,0,1-11.35,11.34h0a8.78,8.78,0,0,1-8.79-8.79v-8.41H82.13v25.62A2.94,2.94,0,0,0,85.06,237h28.66a11.53,11.53,0,0,0,11.61-10.93A11.34,11.34,0,0,0,114,214.3Z"/><path class="cls-4" d="M93.86,219.78H89.45a2.93,2.93,0,0,1,0-5.86h4.41a2.93,2.93,0,0,1,0,5.86Z"/><path class="cls-2" d="M67.48,162.31v46.13"/><path class="cls-3" d="M41.48,214.3a11.35,11.35,0,0,0,11.35,11.34h0a8.78,8.78,0,0,0,8.79-8.79v-8.41H73.35v25.62A2.94,2.94,0,0,1,70.42,237H41.76a11.53,11.53,0,0,1-11.61-10.93A11.34,11.34,0,0,1,41.48,214.3Z"/><path class="cls-4" d="M61.62,219.78H66a2.93,2.93,0,0,0,0-5.86H61.62a2.93,2.93,0,1,0,0,5.86Z"/><rect class="cls-3" x="52.74" y="137.99" width="50" height="12.5"/><rect class="cls-4" x="71.49" y="137.99" width="12.5" height="12.5"/><path class="cls-5" d="M77.74,110.4c-23.75,0-41.59,8.08-57.1,26.14"/><circle class="cls-6" cx="12.5" cy="146.02" r="12.5"/><path class="cls-7" d="M32.5,139l-16.07-13.8a5.86,5.86,0,1,0-7.64,8.89l16.07,13.8A5.86,5.86,0,1,0,32.5,139Z"/><path class="cls-5" d="M77.74,110.4c23.75,0,41.59,8.08,57.1,26.14"/><circle class="cls-6" cx="142.98" cy="146.02" r="12.5"/><path class="cls-7" d="M147.32,125.82a5.86,5.86,0,0,0-8.27-.63L123,139a5.86,5.86,0,1,0,7.64,8.89l16.07-13.8A5.85,5.85,0,0,0,147.32,125.82Z"/><path class="cls-7" d="M142.66,121.14a14.25,14.25,0,0,0-2.83-7.67,19.21,19.21,0,0,0-8.08-6.53,20.4,20.4,0,0,0-5.47-1.41,36.67,36.67,0,0,0-5.32.07,25,25,0,0,0-7.76-13.36A26,26,0,0,0,97.53,85.8c-6.81-.31-15.39,1.78-19.79,7.46-4.4-5.68-13-7.77-19.79-7.46a26,26,0,0,0-15.67,6.44,25,25,0,0,0-7.76,13.36,36.67,36.67,0,0,0-5.32-.07,20.4,20.4,0,0,0-5.47,1.41,19.21,19.21,0,0,0-8.08,6.53,14.25,14.25,0,0,0-2.83,7.67c-.43,7.78,4.56,15.72,11.34,19.34a14.66,14.66,0,0,0,11.25,1.14c2.21-.7,3.84-2.07,5.69-3.4a9.92,9.92,0,0,0,4,8.28,11.44,11.44,0,0,0-4.91,8.25c-.48,5.1,2,9.68,5.9,11.28a9.3,9.3,0,0,0-5.64,10.37c1.58,7.13,8.48,7,14.18,7h46.16c5.7,0,12.6.17,14.18-7A9.3,9.3,0,0,0,109.36,166c3.93-1.6,6.38-6.18,5.9-11.28a11.44,11.44,0,0,0-4.91-8.25,9.92,9.92,0,0,0,4-8.28c1.85,1.33,3.48,2.7,5.69,3.4a14.66,14.66,0,0,0,11.25-1.14C138.1,136.86,143.09,128.92,142.66,121.14Z"/><line class="cls-8" x1="77.74" y1="104.54" x2="77.74" y2="169.63"/><path class="cls-8" d="M53.26,160.64a14.38,14.38,0,0,0,9.39-12.15"/><path class="cls-8" d="M102.22,160.64a14.38,14.38,0,0,1-9.39-12.15"/><circle class="cls-9" cx="77.74" cy="8.7" r="8.7"/><polygon class="cls-7" points="102.74 67.32 77.74 17.4 52.74 67.32 102.74 67.32"/><path class="cls-9" d="M101.61,79.4a7.34,7.34,0,0,1-7-5.14,17.68,17.68,0,0,0-33.74,0,7.33,7.33,0,0,1-14-4.38,32.34,32.34,0,0,1,61.72,0,7.31,7.31,0,0,1-4.81,9.18A7.18,7.18,0,0,1,101.61,79.4Z"/><path class="cls-6" d="M110.85,62.08,98.06,74.86a6.62,6.62,0,0,0,9.36,9.36C115.4,76.23,110.85,62.08,110.85,62.08Z"/><path class="cls-6" d="M57.42,74.86,44.63,62.08s-4.55,14.15,3.43,22.14a6.62,6.62,0,0,0,9.36-9.36Z"/><circle class="cls-6" cx="77.74" cy="79.54" r="25"/><path class="cls-10" d="M77.74,54.54a25,25,0,0,0-20.6,10.83,24.88,24.88,0,0,0,13.86-2,25.21,25.21,0,0,0,6.74-4.55,25.21,25.21,0,0,0,6.74,4.55,24.88,24.88,0,0,0,13.86,2A25,25,0,0,0,77.74,54.54Z"/><path class="cls-3" d="M72.69,72.37a5,5,0,1,1-5-5.05A5,5,0,0,1,72.69,72.37Z"/><path class="cls-3" d="M92.89,72.37a5,5,0,1,1-5-5.05A5,5,0,0,1,92.89,72.37Z"/><path class="cls-9" d="M92.89,82.47a15.15,15.15,0,0,1-30.3,0Z"/></g></g></svg>