<svg xmlns="http://www.w3.org/2000/svg" viewBox="0 0 147.53 233.98"><defs><style>.cls-1,.cls-4,.cls-9{fill:none;stroke-linecap:round;stroke-miterlimit:10;}.cls-1{stroke:#ffe14d;}.cls-1,.cls-4{stroke-width:14.07px;}.cls-2{fill:#bf8f68;}.cls-3{fill:#fff;}.cls-4{stroke:#e6cb45;}.cls-5{fill:#332e2e;}.cls-6{fill:#f9ce1d;}.cls-7{fill:#fdd835;}.cls-8{fill:#ffe14d;}.cls-9{stroke:#fff;stroke-width:3.22px;}.cls-10{fill:#e6cb45;}</style></defs><title>elf5</title><g id="Layer_2" data-name="Layer 2"><g id="ART"><path class="cls-1" d="M73.76,97.13c34.41,0,56.69,23.55,57.32,45.18"/><circle class="cls-2" cx="131.44" cy="154.81" r="12.5"/><path class="cls-3" d="M141.49,136.14l-21.17.62a5.86,5.86,0,0,0,.34,11.72l21.18-.62a5.86,5.86,0,0,0-.35-11.72Z"/><path class="cls-1" d="M73.76,97.13c-34.4,0-56.68,23.55-57.31,45.18"/><circle class="cls-2" cx="16.09" cy="154.81" r="12.5"/><path class="cls-3" d="M27.21,136.76,6,136.14a5.86,5.86,0,0,0-.34,11.72l21.18.62a5.86,5.86,0,0,0,.34-11.72Z"/><path class="cls-4" d="M61.58,159.3v39"/><path class="cls-5" d="M29.37,205.62A14.18,14.18,0,0,0,43.56,219.8h0a11,11,0,0,0,11-11V198.29H68.62v32A3.67,3.67,0,0,1,65,234H29.71A14.41,14.41,0,0,1,15.2,220.31,14.18,14.18,0,0,1,29.37,205.62Z"/><path class="cls-6" d="M54.55,212.47h5.5a3.67,3.67,0,1,0,0-7.33h-5.5a3.67,3.67,0,1,0,0,7.33Z"/><path class="cls-4" d="M86,159.3v39"/><path class="cls-5" d="M118.15,205.62A14.18,14.18,0,0,1,104,219.8h0a11,11,0,0,1-11-11V198.29H78.91v32A3.66,3.66,0,0,0,82.57,234h35.24a14.4,14.4,0,0,0,14.51-13.67A14.17,14.17,0,0,0,118.15,205.62Z"/><path class="cls-6" d="M93,212.47H87.47a3.67,3.67,0,0,1,0-7.33H93a3.67,3.67,0,0,1,0,7.33Z"/><polygon class="cls-7" points="61.58 159.3 85.94 159.3 73.76 97.13 61.58 159.3"/><path class="cls-8" d="M108.17,122.5c0-21.13-13.81-32.41-34.41-32.41s-34.4,11.28-34.4,32.41v49.83h68.81Z"/><path class="cls-9" d="M73.76,98.15c0,9.14,10.28,5.41,10.28,18.21"/><path class="cls-9" d="M73.76,98.15c0,9.14-10.27,5.41-10.27,18.21"/><circle class="cls-10" cx="73.76" cy="54.7" r="35.56"/><circle class="cls-3" cx="73.76" cy="9.57" r="9.57"/><circle class="cls-7" cx="73.76" cy="62.59" r="35.56"/><circle class="cls-2" cx="73.76" cy="62.59" r="27.5"/><path class="cls-5" d="M67.32,59.16c-4.18,3.11-8.71.21-8.71-3.74a5,5,0,0,1,5-5.05C67.65,50.37,70.56,55,67.32,59.16Z"/><path class="cls-5" d="M87.52,59.16c-4.18,3.11-8.71.21-8.71-3.74a5,5,0,0,1,5-5.05C87.85,50.37,90.76,55,87.52,59.16Z"/><path class="cls-3" d="M88.91,65.52a15.15,15.15,0,1,1-30.3,0Z"/><path class="cls-9" d="M52.64,155.34A15.82,15.82,0,0,0,63,142"/><path class="cls-9" d="M94.88,155.34A15.83,15.83,0,0,1,84.56,142"/><line class="cls-9" x1="73.76" y1="98.15" x2="73.76" y2="172.33"/><path class="cls-5" d="M73.76,35.09c0,42.15,33.57,41.74,33.57,41.74s-6.07-8.41-6.07-23.07c0-21.31-13.56-30.17-27.5-30.17s-26,8.86-26,30.17h0A27.52,27.52,0,0,1,73.76,35.09Z"/><path d="M73.76,35.09C73.76,27,64,21.69,55.5,30.7c-5.84,6.17-7.79,14.71-7.79,23.05v0A27.51,27.51,0,0,1,73.76,35.09Z"/></g></g></svg>