<svg xmlns="http://www.w3.org/2000/svg" viewBox="0 0 145.7 313.93"><defs><style>.cls-1{fill:none;stroke:#f33;stroke-linecap:round;stroke-miterlimit:10;stroke-width:11.72px;}.cls-2{fill:#fadcbc;}.cls-3{fill:#fff;}.cls-4{fill:#332e2e;}.cls-5{fill:#f9ce1d;}.cls-6{fill:#f33;}.cls-7{fill:#f57c00;}</style></defs><title>elf8</title><g id="Layer_2" data-name="Layer 2"><g id="ART"><path class="cls-1" d="M72.85,96.46c39.94,0,56.39,54.48,56.39,76.13"/><circle class="cls-2" cx="129.24" cy="185.09" r="12.5"/><path class="cls-3" d="M139.83,166.73H118.65a5.86,5.86,0,1,0,0,11.72h21.18a5.86,5.86,0,1,0,0-11.72Z"/><path class="cls-1" d="M72.85,96.46c-39.94,0-56.4,54.48-56.4,76.13"/><circle class="cls-2" cx="16.45" cy="185.09" r="12.5"/><path class="cls-3" d="M27.05,166.73H5.86a5.86,5.86,0,0,0,0,11.72H27.05a5.86,5.86,0,0,0,0-11.72Z"/><path class="cls-1" d="M86,176.85V285.37"/><path class="cls-4" d="M112,291.24a11.34,11.34,0,0,1-11.34,11.34h0a8.79,8.79,0,0,1-8.79-8.79v-8.42H80.17V311a2.93,2.93,0,0,0,2.93,2.93h28.66A11.53,11.53,0,0,0,123.37,303,11.34,11.34,0,0,0,112,291.24Z"/><path class="cls-5" d="M91.9,296.72H87.49a2.93,2.93,0,1,1,0-5.86H91.9a2.93,2.93,0,0,1,0,5.86Z"/><path class="cls-1" d="M59.66,176.85V285.37"/><path class="cls-4" d="M33.66,291.24A11.35,11.35,0,0,0,45,302.58h0a8.8,8.8,0,0,0,8.79-8.79v-8.42H65.52V311a2.93,2.93,0,0,1-2.93,2.93H33.93A11.53,11.53,0,0,1,22.32,303,11.35,11.35,0,0,1,33.66,291.24Z"/><path class="cls-5" d="M53.8,296.72h4.4a2.93,2.93,0,0,0,0-5.86H53.8a2.93,2.93,0,1,0,0,5.86Z"/><polygon class="cls-6" points="59.66 176.85 86.03 176.85 72.85 96.46 59.66 176.85"/><path class="cls-6" d="M90.76,133.37c0-8.62,4.92-11.24,4.92-22.4,0-10.75-8.94-20.37-22.83-20.37S50,100.22,50,111c0,11.16,4.93,13.78,4.93,22.4,0,11.13-13.68,19.94-13.68,38.29,0,16.42,12,25.41,31.59,25.41s31.59-9,31.59-25.41C104.44,153.31,90.76,144.5,90.76,133.37Z"/><path class="cls-4" d="M97.76,150.08c-2.59-4.48-5.21-8.43-6.37-12.5H54.31c-1.17,4.07-3.78,8-6.37,12.5Z"/><rect class="cls-5" x="66.6" y="137.58" width="12.5" height="12.5"/><rect class="cls-6" x="41.26" y="171.66" width="63.18" height="25.4"/><path class="cls-6" d="M99.24,54.32c0-22-8-36.92-26.39-36.92s-26.4,14.92-26.4,36.92Z"/><path class="cls-3" d="M96.71,59.6a7.33,7.33,0,0,1-7-5.14,17.68,17.68,0,0,0-33.75,0,7.33,7.33,0,1,1-14-4.38,32.34,32.34,0,0,1,61.72,0,7.32,7.32,0,0,1-4.81,9.18A7.25,7.25,0,0,1,96.71,59.6Z"/><circle class="cls-3" cx="72.85" cy="8.7" r="8.7"/><path class="cls-7" d="M43.38,124.53a16.66,16.66,0,0,0,23.57,0,8.33,8.33,0,0,0,0-11.79A8.34,8.34,0,0,1,67,101a8.33,8.33,0,0,0,0-11.79,8.34,8.34,0,0,1,0-11.78A8.33,8.33,0,0,0,67,65.6H43.38a8.35,8.35,0,0,0,0,11.79,8.32,8.32,0,0,1,0,11.78,8.35,8.35,0,0,0,0,11.79,8.32,8.32,0,0,1,0,11.78A8.35,8.35,0,0,0,43.38,124.53Z"/><path class="cls-7" d="M102.31,124.53a16.66,16.66,0,0,1-23.57,0,8.35,8.35,0,0,1,0-11.79,8.32,8.32,0,0,0,0-11.78,8.35,8.35,0,0,1,0-11.79,8.32,8.32,0,0,0,0-11.78,8.35,8.35,0,0,1,0-11.79h23.57a8.33,8.33,0,0,1,0,11.79,8.34,8.34,0,0,0,0,11.78,8.33,8.33,0,0,1,0,11.79,8.34,8.34,0,0,0,0,11.78A8.33,8.33,0,0,1,102.31,124.53Z"/><path class="cls-7" d="M43.41,65.6a29.44,29.44,0,0,1,58.88,0Z"/><path class="cls-2" d="M106,48.14,93.17,60.92a6.62,6.62,0,1,0,9.36,9.36C110.51,62.29,106,48.14,106,48.14Z"/><path class="cls-2" d="M39.74,48.14s-4.56,14.15,3.43,22.14a6.61,6.61,0,1,0,9.35-9.36Z"/><circle class="cls-2" cx="72.85" cy="65.6" r="25"/><path class="cls-4" d="M67.8,58.43a5,5,0,1,1-5-5A5.06,5.06,0,0,1,67.8,58.43Z"/><path class="cls-4" d="M88,58.43a5,5,0,1,1-5-5A5.06,5.06,0,0,1,88,58.43Z"/><path class="cls-3" d="M88,68.53a15.15,15.15,0,0,1-30.3,0Z"/><path class="cls-7" d="M47.85,65.6a8.33,8.33,0,0,0,8.33-8.33,8.33,8.33,0,0,1,8.33-8.34,8.33,8.33,0,0,0,8.34-8.33A25,25,0,0,0,47.85,65.6Z"/><path class="cls-7" d="M72.85,40.6a8.33,8.33,0,0,0,8.33,8.33,8.34,8.34,0,0,1,8.34,8.34,8.33,8.33,0,0,0,8.33,8.33A25,25,0,0,0,72.85,40.6Z"/></g></g></svg>