<svg xmlns="http://www.w3.org/2000/svg" viewBox="0 0 172.02 330"><defs><style>.cls-1{isolation:isolate;}.cls-2{fill:#e53935;}.cls-3{fill:#fff;}.cls-4{fill:#b3b3b3;}.cls-5{fill:#f7caad;}.cls-11,.cls-6,.cls-8{fill:#231f20;}.cls-7{fill:#ef9a9a;}.cls-11,.cls-8{opacity:0.15;}.cls-8{mix-blend-mode:multiply;}.cls-9{fill:none;}.cls-10{fill:#f9ce1d;}.cls-12{fill:#212121;}</style></defs><title>mrs_claus</title><g class="cls-1"><g id="Layer_2" data-name="Layer 2"><g id="ART"><path class="cls-2" d="M153.79,51.94c0,28.69-22.82,52-51,52s-51-23.26-51-51.95S74.65,0,102.81,0,153.79,23.25,153.79,51.94Z"/><path class="cls-3" d="M152.77,60.45c0,26.92-22.37,48.74-50,48.74s-50-21.82-50-48.74,22.37-48.72,50-48.72S152.77,33.54,152.77,60.45Z"/><path class="cls-4" d="M140.1,60.46c0,20.08-16.69,36.37-37.29,36.37S65.52,80.54,65.52,60.46s16.7-36.37,37.29-36.37S140.1,40.36,140.1,60.46Z"/><path class="cls-5" d="M136.4,60.46c0,18.09-15,32.76-33.59,32.76S69.22,78.55,69.22,60.46s15-32.76,33.59-32.76S136.4,42.36,136.4,60.46Z"/><path class="cls-4" d="M108.7,37.19l-8.77-9,10.8-3.28A35.7,35.7,0,0,1,138.5,49.44C119.51,48.08,108.7,37.19,108.7,37.19Z"/><path class="cls-4" d="M88.3,26.92s12.43-5.13,25.41-1.25l-3.27,5.27L95.73,28.55Z"/><path class="cls-4" d="M95.05,37.7,103,28l-11.06-2.3A36,36,0,0,0,67.66,48.32a36.76,36.76,0,0,0-1.19,4.24C85.27,49.5,95.05,37.7,95.05,37.7Z"/><path class="cls-6" d="M110.43,74.4a7.15,7.15,0,0,1-14.29,0"/><path class="cls-6" d="M93.05,52.63a2.38,2.38,0,1,1-2.38-2.31A2.36,2.36,0,0,1,93.05,52.63Z"/><path class="cls-6" d="M112.42,52.63a2.37,2.37,0,1,0,2.38-2.31A2.36,2.36,0,0,0,112.42,52.63Z"/><path class="cls-7" d="M109.39,62.58a6.84,6.84,0,1,1-6.83-6.45A6.65,6.65,0,0,1,109.39,62.58Z"/><path class="cls-2" d="M103.66,125.81H39.87A34.74,34.74,0,0,1,5.18,91.11V55.65H32.83V91.11a7.05,7.05,0,0,0,7,7h63.79Z"/><path class="cls-8" d="M5.18,82.48v8.63a34.74,34.74,0,0,0,34.69,34.7h63.79v-8.64H39.87A34.73,34.73,0,0,1,5.18,82.48Z"/><path class="cls-9" d="M103.66,122.31H39.87A20.87,20.87,0,0,1,19,101.44V60.11"/><path class="cls-10" d="M19.8,50.16a4.58,4.58,0,0,0,4.59,4.55,14.05,14.05,0,0,0,14-14v0a4.58,4.58,0,1,0-9.16,0,4.88,4.88,0,0,1-4.9,4.85,4.59,4.59,0,0,0-4.57,4.59Z"/><path class="cls-10" d="M5.45,49.25a12.31,12.31,0,0,0,24.62-.09l0-13.87v-.06a12.32,12.32,0,0,0-24.63.1l0,13.87Z"/><rect class="cls-3" y="52.82" width="38.01" height="12.52" rx="4.65" ry="4.65"/><path class="cls-2" d="M126.27,99.49c-25.14-3.84-41.53,1.6-52,9.73-11.3.17-20.42,11.76-20.42,26a30.78,30.78,0,0,0,3.7,14.86c-.27,13.42-.88,26.39-.88,26.39L151.38,182l2.41-55.91S138.42,101.35,126.27,99.49Z"/><path class="cls-3" d="M102.19,196.81A6.85,6.85,0,0,1,95.34,190V96.83a6.85,6.85,0,0,1,13.7,0V190A6.85,6.85,0,0,1,102.19,196.81Z"/><path class="cls-11" d="M159.89,136.14c-4-17.78-13.69-31.94-26-40.48h-8.69A72.45,72.45,0,0,1,135.45,120c8,35.48-9.4,71.89-38.95,81.31a46.33,46.33,0,0,1-28.08.11c13.58,15.36,33.24,22.23,52.52,16.09C150.49,208,167.93,171.63,159.89,136.14Z"/><path class="cls-12" d="M73.6,296.09c0,.51,0,1,0,1.5h-.08C73.53,314.72,42,324,42,324v5.6H73.53v0A13.29,13.29,0,0,0,80.81,327v0l.36-.29.36-.28,6.61-5.22v7.65H96V297.37Z"/><path class="cls-12" d="M128.82,298h-.08c0-.49,0-1,0-1.49l-22.43,1.27V329.3h7.89v-7.64l6.61,5.21.35.28.37.29v0a13.19,13.19,0,0,0,7.27,2.55v0h31.53v-5.6S128.82,315.17,128.82,298Z"/><polygon class="cls-2" points="167.64 298.52 36.9 298.52 55.85 181.99 151.38 181.99 167.64 298.52"/><polygon class="cls-11" points="167.64 298.52 36.9 298.52 76.34 279.38 102.81 209.44 129.29 279.38 167.64 298.52"/><path class="cls-3" d="M39.37,305.37a6.85,6.85,0,1,1,0-13.69c16,0,28.36-10.8,37.91-33,7.91-18.41,13.35-43.91,16.16-75.79a6.85,6.85,0,1,1,13.64,1.2c-2.93,33.33-8.73,60.25-17.22,80C78.09,291.49,61.1,305.37,39.37,305.37Z"/><path class="cls-3" d="M165.17,305.37c-21.91,0-39-14.1-50.71-41.92-8.44-20-14.15-47.21-17-80.88a6.85,6.85,0,0,1,13.65-1.14c2.7,32.23,8.06,58,15.94,76.69,9.53,22.58,22,33.56,38.09,33.56a6.85,6.85,0,1,1,0,13.69Z"/><polygon class="cls-12" points="55.9 176.34 54.3 186.63 150.08 186.63 150.08 176.34 55.9 176.34"/><rect class="cls-10" x="91.89" y="176.34" width="20.92" height="10.29"/><rect class="cls-5" x="88.3" y="90.01" width="28.86" height="9.48"/><path class="cls-2" d="M141.5,210.07a12.76,12.76,0,0,1-10.14-20.47c6.58-8.72,16.39-26.76,14.62-37.94-2.7-17.08-15.85-33.58-16-33.74a12.75,12.75,0,0,1,19.81-16.06c.72.88,17.57,21.86,21.36,45.82,4,25.49-17.08,54.16-19.5,57.35A12.75,12.75,0,0,1,141.5,210.07Z"/><path class="cls-3" d="M135.16,103.68H71.41a6.85,6.85,0,1,1,0-13.7h63.75a6.85,6.85,0,0,1,0,13.7Z"/><path class="cls-10" d="M136.87,203.94a4.58,4.58,0,0,0-1.7-6.24A14,14,0,0,0,116,202.82l0,0a4.58,4.58,0,0,0,8,4.56,4.89,4.89,0,0,1,6.67-1.76,4.58,4.58,0,0,0,6.26-1.68Z"/><path class="cls-10" d="M148.85,211.9a12.32,12.32,0,0,0-21.38-12.23l-6.91,12,0,.05A12.32,12.32,0,0,0,141.91,224l6.91-12Z"/><rect class="cls-3" x="135.76" y="177.61" width="12.52" height="38.01" rx="4.65" ry="4.65" transform="translate(-99.26 221.32) rotate(-60)"/></g></g></g></svg>