<svg xmlns="http://www.w3.org/2000/svg" viewBox="0 0 269.03 365.44"><defs><style>.cls-1{isolation:isolate;}.cls-2,.cls-9{fill:none;stroke-linecap:round;stroke-miterlimit:10;stroke-width:35.77px;}.cls-2{stroke:#c62828;}.cls-3{fill:#f9ce1d;}.cls-4{opacity:0.06;}.cls-5{fill:#e53935;}.cls-6{fill:#212121;}.cls-7{fill:#fff;}.cls-10,.cls-8{fill:#221f1f;mix-blend-mode:multiply;}.cls-8{opacity:0.15;}.cls-9{stroke:#e53935;}.cls-10{opacity:0.05;}.cls-11{fill:#ef9a9a;}.cls-12{fill:#f7caad;}</style></defs><title>santa_dance</title><g class="cls-1"><g id="Layer_2" data-name="Layer 2"><g id="ART"><path class="cls-2" d="M246,57.57c-9.85,39.24-24.55,86.25-96.84,71.38"/><path class="cls-3" d="M245.22,1.51l-.05,0A10.75,10.75,0,0,0,234.25,20a11.48,11.48,0,0,1,3.94,15.7A10.74,10.74,0,0,0,242,50.41h0a10.75,10.75,0,0,0,14.69-3.81A33,33,0,0,0,245.22,1.51Z"/><path class="cls-4" d="M234.86,19.54a11.33,11.33,0,0,1,5.22,7.11,13.33,13.33,0,0,1,2.55-.82,13,13,0,0,1,4.64-.13,18.13,18.13,0,0,0-15.45-11.17h0a5.53,5.53,0,0,0-1.29.06A10.7,10.7,0,0,0,234.86,19.54Z"/><rect class="cls-5" x="106.08" y="239.54" width="74.52" height="41.73" transform="translate(-117.36 403.21) rotate(-89.88)"/><path class="cls-6" d="M122.36,315.51l0,20.86a28.81,28.81,0,0,0-28.87,28.76l28.81.05,41.73.09.1-49.68Z"/><rect class="cls-7" x="134.3" y="285.74" width="17.88" height="41.73" transform="translate(-163.65 449.23) rotate(-89.88)"/><rect class="cls-5" x="162.09" y="244" width="65.82" height="41.73" transform="translate(-70.26 459.31) rotate(-89.88)"/><path class="cls-6" d="M215.76,315.7l0,20.86a28.82,28.82,0,0,1,28.76,28.88l-28.81-.06-41.73-.09.1-49.68Z"/><rect class="cls-7" x="185.97" y="285.85" width="17.88" height="41.73" transform="translate(-112.2 501) rotate(-89.88)"/><circle class="cls-5" cx="165.51" cy="187.28" r="73.52" transform="translate(-83.95 171.88) rotate(-45)"/><path class="cls-8" d="M111.57,145.22c-2.45-16.82,56.59-33.08,71.88-29.22-3.26,25.08-4.16,33.16-4.19,33.22C168.53,170.28,114.46,165.11,111.57,145.22Z"/><rect class="cls-6" x="96.77" y="186.27" width="147.05" height="23.85" transform="translate(-65.28 85.11) rotate(-23.69)"/><rect class="cls-3" x="177.51" y="175.73" width="31.79" height="23.85" transform="matrix(0.92, -0.4, 0.4, 0.92, -59.1, 93.51)"/><path class="cls-8" d="M113.39,135.42a73.52,73.52,0,0,0,114.69,90.45,73.52,73.52,0,1,1-114.69-90.45Z"/><path class="cls-9" d="M100.52,154.68c-12.4-25.17-41.89-32-64.83,11.57"/><path class="cls-3" d="M30,173.5a6,6,0,0,1,8.33-1,18.21,18.21,0,0,1,3.08,25.52l0,0a5.93,5.93,0,0,1-9.31-7.36,6.34,6.34,0,0,0-1.1-8.87,5.94,5.94,0,0,1-1-8.34Z"/><path class="cls-10" d="M30,173.5a6,6,0,0,1,8.33-1,18.21,18.21,0,0,1,3.08,25.52l0,0a5.93,5.93,0,0,1-9.31-7.36,6.34,6.34,0,0,0-1.1-8.87,5.94,5.94,0,0,1-1-8.34Z"/><path class="cls-3" d="M39.51,182.83,28.37,196.94l0,.05A15.88,15.88,0,1,1,3.44,177.26l11.15-14.18a15.9,15.9,0,1,1,24.92,19.75Z"/><rect class="cls-7" x="26.87" y="143.04" width="17.88" height="43.72" rx="5.96" ry="5.96" transform="translate(-115.95 91.13) rotate(-51.82)"/><path class="cls-11" d="M104.74,94.62A11.18,11.18,0,1,1,91.07,87,11,11,0,0,1,104.74,94.62Z"/><path class="cls-7" d="M74.42,42.16A11.92,11.92,0,1,1,59.78,33.8,11.91,11.91,0,0,1,74.42,42.16Z"/><path class="cls-12" d="M141,131.07l38.33-10.49L168.83,82.25a39.74,39.74,0,0,0-76.67,21l10.49,38.33L141,131.07Z"/><path class="cls-7" d="M195.25,111.07a36.75,36.75,0,0,0-45.16-25.75h0L77.26,105.24c10.72,39.17,51.83,62.05,91.82,51.11l.21-.07.21-.05A36.76,36.76,0,0,0,195.25,111.07Z"/><path class="cls-11" d="M153.93,84.27c1.3,4.76-2.36,9.91-8.19,11.51s-11.59-1-12.9-5.75,2.36-9.91,8.18-11.5S152.62,79.5,153.93,84.27Z"/><path class="cls-5" d="M79.63,40.73l-.42.12,12.59,46,72.83-19.93C157.68,41.51,119.62,29.79,79.63,40.73Z"/><rect class="cls-7" x="77.45" y="53.98" width="91.41" height="23.85" rx="5.96" ry="5.96" transform="translate(-13.03 34.84) rotate(-15.3)"/><path class="cls-6" d="M126,83.67a3,3,0,1,1-3.66-2.08A3,3,0,0,1,126,83.67Z"/><path class="cls-6" d="M156.62,75.28a3,3,0,1,0,2.09-3.65A3,3,0,0,0,156.62,75.28Z"/><path class="cls-6" d="M126,118.39a13,13,0,0,0,13-13l-26-.05A13,13,0,0,0,126,118.39Z"/><path class="cls-3" d="M242.53,47.75a6,6,0,0,0,6.31-5.51A18.21,18.21,0,0,0,232,22.79h0a5.93,5.93,0,0,0-.82,11.84A6.34,6.34,0,0,1,237,41.41a5.94,5.94,0,0,0,5.51,6.34Z"/><rect class="cls-7" x="238" y="27.34" width="17.88" height="43.72" rx="5.96" ry="5.96" transform="translate(171.43 289.41) rotate(-83.81)"/></g></g></g></svg>