<svg xmlns="http://www.w3.org/2000/svg" viewBox="0 0 29.67 29.77" width="29.67" height="29.77"><defs><style>.cls-1{fill:#3f2925;}.cls-2{fill:#593d36;}.cls-3{opacity:0.2;}</style></defs><title>chocolate_swirl</title><g id="Layer_2" data-name="Layer 2"><g id="ART"><circle class="cls-1" cx="14.83" cy="14.94" r="14.83"/><path class="cls-2" d="M1.06,19.43A13.51,13.51,0,0,1,2.12,7,15.65,15.65,0,0,1,7,2.2l.76-.46.8-.38A11.59,11.59,0,0,1,10.25.72,13.11,13.11,0,0,1,13.93,0,13.91,13.91,0,0,1,26.77,7.44a12.83,12.83,0,0,1,1.34,3.77,11.94,11.94,0,0,1,.1,4.26,12.59,12.59,0,0,1-4,7.43,12.69,12.69,0,0,1-3.68,2.22,15.08,15.08,0,0,1-2.05.62,11.86,11.86,0,0,1-2.3.21,10.62,10.62,0,0,1-8.07-3.81,10.4,10.4,0,0,1-2-4,9.11,9.11,0,0,1,0-4.75,8.6,8.6,0,0,1,6.5-6.29,7.49,7.49,0,0,1,4.84.47,7.08,7.08,0,0,1,3.41,3.31,7.22,7.22,0,0,1,.66,2.27,6,6,0,0,1-.24,2.49,5.67,5.67,0,0,1-3.1,3.51,5.38,5.38,0,0,1-2.31.44,4.51,4.51,0,0,1-2.28-.71,4.2,4.2,0,0,1-2-3.87,3.27,3.27,0,0,1,2.74-2.93,2.42,2.42,0,0,1,1.88.51A2.07,2.07,0,0,1,17,14.11v.05a.22.22,0,0,1-.22.23.24.24,0,0,1-.23-.18,1.55,1.55,0,0,0-2-1.14A2,2,0,0,0,13.14,15a2.48,2.48,0,0,0,1.35,2.09A2.64,2.64,0,0,0,17,17a3.16,3.16,0,0,0,1.56-2,3.5,3.5,0,0,0-.41-2.56,4.15,4.15,0,0,0-2-1.73,4,4,0,0,0-2.63-.12,5.08,5.08,0,0,0-3.58,3.74,5.91,5.91,0,0,0,1.41,5.08,6.53,6.53,0,0,0,4.85,2.2,7.85,7.85,0,0,0,5-2,8.16,8.16,0,0,0,2.63-4.76,8.8,8.8,0,0,0-.91-5.41,10.27,10.27,0,0,0-9-5.72A12.78,12.78,0,0,0,4.06,8.54,13.19,13.19,0,0,0,1.5,19.34a.21.21,0,0,1-.17.26.22.22,0,0,1-.25-.12Z"/><path class="cls-3" d="M24.05,3.42A14.76,14.76,0,0,1,3.32,24.15,14.76,14.76,0,1,0,24.05,3.42Z"/></g></g></svg>