<svg width="56" height="57" viewBox="0 0 56 57" fill="none" xmlns="http://www.w3.org/2000/svg">
<path d="M29.8952 42.8685L29.8008 52.9034L39.2939 56.0247L44.0107 47.2124L37.0027 40.0205L29.8952 42.8685Z" fill="#FFF173"/>
<path d="M25.4622 42.8685L25.5566 52.9035L16.0585 56.0198L11.3467 47.2076L18.3498 40.0156L25.4622 42.8685Z" fill="#FFF173"/>
<path d="M34.792 26.6109L54.1163 43.1171C54.1163 43.1171 59.4792 35.8904 44.3001 19.1108L34.792 26.6109Z" fill="#231F20"/>
<path d="M10.7356 19.106C-4.44352 35.8855 0.919376 43.1122 0.919376 43.1122L20.2437 26.6061L10.7356 19.106Z" fill="#231F20"/>
<path d="M44.6072 40.8007C43.7623 42.9429 42.4154 46.1586 38.8964 48.1815C38.802 48.2412 38.7125 48.2958 38.6181 48.3505C35.2831 50.3237 31.5802 50.2591 28.1856 50.3486C28.0215 50.3535 27.8575 50.3585 27.6885 50.3585C27.5693 50.3585 27.45 50.3585 27.3307 50.3535C27.281 50.3535 27.2313 50.3486 27.1816 50.3486C23.7869 50.2591 20.0841 50.3237 16.749 48.3505C16.6546 48.2958 16.5651 48.2412 16.4707 48.1815C12.9518 46.1586 11.6048 42.9429 10.7599 40.8007C8.23004 34.3792 9.29367 23.7031 11.58 16.4018C11.6396 16.2129 11.6993 16.0241 11.7589 15.8352C11.7589 15.8302 11.7639 15.8203 11.7689 15.8103C11.8285 15.6165 11.8931 15.4276 11.9577 15.2388C11.9975 15.1294 12.0372 15.0201 12.077 14.9107C12.1814 14.6125 12.2907 14.3242 12.4001 14.0409L12.405 14.036C12.7977 13.0419 13.2152 12.0777 13.6575 11.1532C13.8812 10.691 14.1098 10.2387 14.3434 9.79635C14.3484 9.79635 14.3484 9.79138 14.3484 9.79138C16.7142 5.35295 19.7958 1.94833 23.8167 0.61631C25.0195 0.21372 26.3118 0 27.6885 0C29.0653 0 30.3476 0.21372 31.5504 0.61631C35.5713 1.94833 38.6529 5.35295 41.0187 9.79138C41.0187 9.79138 41.0237 9.79138 41.0237 9.79635C41.2573 10.2387 41.4859 10.691 41.7096 11.1532C42.1569 12.0777 42.5744 13.0469 42.9671 14.0409C43.0764 14.3242 43.1858 14.6125 43.2901 14.9107C43.3349 15.0201 43.3746 15.1294 43.4094 15.2388C43.474 15.4276 43.5386 15.6165 43.5983 15.8103C43.6033 15.8153 43.6033 15.8252 43.6082 15.8352C43.6679 16.0241 43.7275 16.2129 43.7872 16.4018C46.0735 23.7031 47.1371 34.3792 44.6072 40.8007Z" fill="#231F20"/>
<path d="M38.6187 48.3506C35.2836 50.3238 31.5808 50.2592 28.1861 50.3486C28.0221 50.3536 27.8581 50.3586 27.6891 50.3586C27.5698 50.3586 27.4505 50.3586 27.3312 50.3536C27.2815 50.3536 27.2318 50.3486 27.1821 50.3486C23.7875 50.2592 20.0846 50.3238 16.7496 48.3506C15.1939 44.434 15.8798 38.0373 17.3311 33.6486C17.3709 33.5343 17.4106 33.42 17.4454 33.3007C17.4454 33.3007 17.4504 33.2957 17.4554 33.2858C17.4902 33.1715 17.5349 33.0572 17.5747 32.9379C17.5995 32.8733 17.6244 32.8086 17.6542 32.7391C17.7188 32.5601 17.7884 32.3862 17.858 32.2122L17.8629 32.2072C18.1164 31.6058 18.3848 31.0194 18.6681 30.4528C18.8122 30.1744 18.9614 29.9011 19.1105 29.6277C19.8709 28.2808 20.7457 27.0879 21.7546 26.1286C22.7636 25.1694 23.9067 24.4537 25.199 24.0461C25.9694 23.8026 26.8044 23.6733 27.6891 23.6733C28.5738 23.6733 29.3989 23.8026 30.1693 24.0461C32.7538 24.8563 34.7369 26.9288 36.2578 29.6277C36.4069 29.9011 36.556 30.1744 36.7002 30.4528C36.9884 31.0194 37.2568 31.6058 37.5103 32.2122C37.5799 32.3862 37.6495 32.5601 37.7141 32.7391C37.7439 32.8086 37.7688 32.8733 37.7936 32.9379C37.8334 33.0572 37.8781 33.1715 37.9129 33.2858C37.9179 33.2908 37.9179 33.2957 37.9228 33.3007C37.9576 33.42 37.9974 33.5343 38.0371 33.6486C39.4885 38.0373 40.1744 44.434 38.6187 48.3506Z" fill="white"/>
<path d="M23.8179 0.616699C19.797 1.94872 16.7154 5.35334 14.3496 9.79177C16.7105 5.34837 19.797 1.94375 23.8179 0.616699Z" fill="#231F20"/>
<path d="M41.0191 9.79177C38.6533 5.35334 35.5717 1.94872 31.5508 0.616699C35.5717 1.94375 38.6582 5.34837 41.0191 9.79177Z" fill="#231F20"/>
<path d="M24.0856 16.1281C22.515 14.5575 19.9702 14.5575 18.3996 16.1281C16.829 17.6987 16.829 20.2435 18.3996 21.8141C19.9702 23.3847 22.515 23.3847 24.0856 21.8141C25.6562 20.2435 25.6562 17.6987 24.0856 16.1281Z" fill="white"/>
<path d="M22.6644 16.2618C21.8791 15.4765 20.6067 15.4765 19.8264 16.2618C19.046 17.0471 19.0411 18.3195 19.8264 19.0998C20.6117 19.8851 21.884 19.8851 22.6644 19.0998C23.4497 18.3145 23.4497 17.0471 22.6644 16.2618Z" fill="#231F20"/>
<path d="M36.9635 16.1281C35.3929 14.5575 32.8482 14.5575 31.2776 16.1281C29.707 17.6987 29.707 20.2435 31.2776 21.8141C32.8482 23.3847 35.3929 23.3847 36.9635 21.8141C38.5341 20.2435 38.5341 17.6987 36.9635 16.1281Z" fill="white"/>
<path d="M35.5423 16.2618C34.757 15.4765 33.4846 15.4765 32.7043 16.2618C31.924 17.0471 31.919 18.3195 32.7043 19.0998C33.4896 19.8851 34.762 19.8851 35.5423 19.0998C36.3226 18.3145 36.3276 17.0471 35.5423 16.2618Z" fill="#231F20"/>
<path d="M27.6842 33.8667C25.4874 33.8667 23.7627 32.5794 23.7627 30.9343V26.814H31.6057V30.9343C31.6057 32.5794 29.8811 33.8667 27.6842 33.8667Z" fill="black"/>
<path d="M31.0248 27.39V30.9288C31.0248 32.226 29.5287 33.2797 27.6848 33.2797C25.8408 33.2797 24.3448 32.226 24.3448 30.9288V27.39H31.0248ZM32.1828 26.2319H31.0198H24.3398H23.1768V27.395V30.9338C23.1768 32.902 25.1549 34.4477 27.6798 34.4477C30.2047 34.4477 32.1828 32.902 32.1828 30.9338V27.395V26.2319Z" fill="#FFD200"/>
<path d="M27.6845 22.7241C30.8008 22.7241 33.0225 25.1645 32.108 27.5751L27.6845 31.1785L23.261 27.5751C22.3415 25.1645 24.5681 22.7241 27.6845 22.7241Z" fill="#FFD200"/>
</svg>
