<svg width="24" height="50" viewBox="0 0 24 50" fill="none" xmlns="http://www.w3.org/2000/svg">
<path d="M23.5204 44.1802C23.5204 47.3809 18.4283 49.9998 12.1723 49.9998C5.91636 49.9998 0.82428 47.3809 0.82428 44.1802V38.118H23.5204L23.4719 44.6651" fill="#A1887F"/>
<path d="M12.1723 43.9386C18.4397 43.9386 23.5204 41.3331 23.5204 38.119C23.5204 34.9049 18.4397 32.2994 12.1723 32.2994C5.90498 32.2994 0.82428 34.9049 0.82428 38.119C0.82428 41.3331 5.90498 43.9386 12.1723 43.9386Z" fill="#BDBDBD"/>
<path d="M2.66824 38.1183C2.66824 38.4578 2.86223 38.8458 3.20171 39.2337C4.41412 40.6402 7.6634 42.0951 12.2221 42.0951C16.7808 42.0951 20.03 40.6402 21.2424 39.2337C21.5819 38.8458 21.7759 38.4578 21.7759 38.1183C21.7759 36.5179 18.0902 34.1415 12.2706 34.1415C6.35398 34.1415 2.66824 36.4694 2.66824 38.1183Z" fill="#A1887F"/>
<path d="M3.15256 39.2337C4.36497 40.6401 7.61423 42.095 12.1729 42.095C16.7315 42.095 19.9808 40.6401 21.1932 39.2337C19.9808 37.8274 16.7315 36.3725 12.1729 36.3725C7.61423 36.3725 4.36497 37.8274 3.15256 39.2337Z" fill="#A14444"/>
<path d="M6.10352e-05 30.407C6.10352e-05 34.9657 5.3347 38.6514 11.9303 38.6514C18.5258 38.6514 23.8604 34.9657 23.8604 30.407C23.8604 29.5341 23.6665 28.7096 23.327 27.9337C21.8236 24.5874 17.2649 22.1141 11.9303 22.1141C6.54712 22.1141 2.03693 24.539 0.533528 27.9337C0.194051 28.7096 6.10352e-05 29.5341 6.10352e-05 30.407Z" fill="#2E7D32"/>
<path d="M0.534912 27.9337C2.0383 31.28 6.59696 33.7533 11.9316 33.7533C17.3146 33.7533 21.8248 31.3285 23.3282 27.9337C21.8248 24.5875 17.2662 22.1142 11.9316 22.1142C6.59696 22.1627 2.0868 24.5875 0.534912 27.9337Z" fill="#4CAF50"/>
<path d="M1.89087 23.5686C1.89087 27.3999 6.40104 30.5522 11.9781 30.5522C17.5552 30.5522 22.0654 27.4484 22.0654 23.5686C22.0654 22.8412 21.9199 22.1622 21.6289 21.4833C20.368 18.622 16.5368 16.5851 12.0266 16.5851C7.51645 16.5851 3.68524 18.622 2.42433 21.4833C2.03636 22.1622 1.89087 22.8412 1.89087 23.5686Z" fill="#2E7D32"/>
<path d="M2.32626 21.5329C3.58716 24.3942 7.41836 26.4311 11.9285 26.4311C16.4387 26.4311 20.2698 24.3942 21.5307 21.5329C20.2698 18.6716 16.4387 16.6348 11.9285 16.6348C7.41836 16.6348 3.58716 18.6716 2.32626 21.5329Z" fill="#4CAF50"/>
<path d="M3.73627 16.7797C3.73627 19.932 7.42198 22.4539 11.9321 22.4539C16.4908 22.4539 20.128 19.932 20.128 16.7797C20.128 16.1978 19.9825 15.6158 19.74 15.0824C18.7216 12.7545 15.5693 11.1056 11.8836 11.1056C8.19792 11.1056 5.09415 12.803 4.02723 15.0824C3.88174 15.6158 3.73627 16.1978 3.73627 16.7797Z" fill="#2E7D32"/>
<path d="M4.12393 15.0813C5.14236 17.4091 8.29463 19.058 11.9804 19.058C15.6661 19.058 18.7698 17.3606 19.8368 15.0813C18.8183 12.7535 15.6661 11.1046 11.9804 11.1046C8.29463 11.1046 5.14236 12.7535 4.12393 15.0813Z" fill="#4CAF50"/>
<path d="M5.62576 9.94249C5.62576 12.3673 8.48707 14.3072 11.9788 14.3072C15.4706 14.3072 18.3319 12.3188 18.3319 9.94249C18.3319 9.50602 18.2349 9.06954 18.0409 8.63307C17.2165 6.83869 14.8401 5.52927 11.9788 5.52927C9.11753 5.52927 6.74119 6.83869 5.91675 8.63307C5.72276 9.06954 5.62576 9.50602 5.62576 9.94249Z" fill="#2E7D32"/>
<path d="M5.91885 8.63222C6.74329 10.4266 9.1196 11.736 11.9809 11.736C14.8421 11.736 17.2184 10.4266 18.0429 8.63222C17.2184 6.83784 14.8421 5.52842 11.9809 5.52842C9.1196 5.52842 6.69479 6.83784 5.91885 8.63222Z" fill="#4CAF50"/>
<path d="M7.46753 3.10383C7.46753 4.80122 9.45589 6.20763 11.9292 6.20763C14.4025 6.20763 16.3909 4.80122 16.3909 3.10383C16.3909 2.76435 16.3424 2.47337 16.1969 2.18239C15.6149 0.921472 13.9176 3.05176e-05 11.9292 3.05176e-05C9.94085 3.05176e-05 8.24347 0.921472 7.66151 2.18239C7.56452 2.47337 7.46753 2.81285 7.46753 3.10383Z" fill="#2E7D32"/>
<path d="M7.66278 2.18236C8.24474 3.44329 9.94213 4.36473 11.9305 4.36473C13.9188 4.36473 15.6162 3.44329 16.1982 2.18236C15.6162 0.921443 13.9188 0 11.9305 0C9.94213 0 8.24474 0.921443 7.66278 2.18236Z" fill="#4CAF50"/>
</svg>
