<svg xmlns="http://www.w3.org/2000/svg" viewBox="0 0 58.86 54.45" width="58.86" height="54.45"><defs><style>.cls-1{fill:#ff7503;}.cls-2{fill:#f2faff;}.cls-3{fill:#ff5703;}.cls-3,.cls-4{stroke:#ff7503;stroke-linecap:round;stroke-miterlimit:10;stroke-width:1.56px;}.cls-4{fill:none;}</style></defs><title>holiday_hat</title><g id="Layer_2" data-name="Layer 2"><g id="ART"><path class="cls-1" d="M55,38.57h-51a25.52,25.52,0,1,1,51,0Z"/><circle class="cls-2" cx="29.43" cy="9.82" r="9.82"/><rect class="cls-3" x="0.78" y="33.87" width="57.3" height="19.79" rx="3.48" ry="3.48"/><line class="cls-4" x1="3.91" y1="33.87" x2="3.91" y2="53.67"/><line class="cls-4" x1="7.83" y1="33.87" x2="7.83" y2="53.67"/><line class="cls-4" x1="11.76" y1="33.87" x2="11.76" y2="53.67"/><line class="cls-4" x1="15.69" y1="33.87" x2="15.69" y2="53.67"/><line class="cls-4" x1="19.61" y1="33.87" x2="19.61" y2="53.67"/><line class="cls-4" x1="23.54" y1="33.87" x2="23.54" y2="53.67"/><line class="cls-4" x1="27.47" y1="33.87" x2="27.47" y2="53.67"/><line class="cls-4" x1="31.39" y1="33.87" x2="31.39" y2="53.67"/><line class="cls-4" x1="35.32" y1="33.87" x2="35.32" y2="53.67"/><line class="cls-4" x1="39.25" y1="33.87" x2="39.25" y2="53.67"/><line class="cls-4" x1="43.17" y1="33.87" x2="43.17" y2="53.67"/><line class="cls-4" x1="47.1" y1="33.87" x2="47.1" y2="53.67"/><line class="cls-4" x1="51.03" y1="33.87" x2="51.03" y2="53.67"/><line class="cls-4" x1="54.95" y1="33.87" x2="54.95" y2="53.67"/></g></g></svg>