<svg xmlns="http://www.w3.org/2000/svg" viewBox="0 0 76.95 97.42" width="76.95" height="97.42"><defs><style>.cls-1{fill:#f2f2f2;}.cls-2{fill:#8bc34a;}.cls-3{opacity:0.2;}.cls-4{fill:#ff0619;}.cls-5{fill:#1d9904;}.cls-6{fill:#c61724;}.cls-7{fill:#6dba00;}.cls-8{fill:#00750b;}.cls-9{fill:#e51b23;}</style></defs><title>mug_red</title><g id="Layer_2" data-name="Layer 2"><g id="ART"><path class="cls-1" d="M57.85,29.67a5.42,5.42,0,0,0-4.54-5.33v-.08H47.7a5.39,5.39,0,0,0-2.51-9.55v-.08H42.83A5.41,5.41,0,0,0,39.45,5H30.74a2,2,0,0,1-2-2,2,2,0,0,1,.64-1.46L30.88.08,28.79,0l-.23,0A7.91,7.91,0,0,0,24.4,14.63H20.32v.08a5.39,5.39,0,0,0-2.51,9.55H12.2v.08A5.4,5.4,0,0,0,12.2,35v.08H53.31V35A5.42,5.42,0,0,0,57.85,29.67Z"/><circle class="cls-2" cx="21.18" cy="29.67" r="3.3"/><g class="cls-3"><path d="M23.2,27.08a3.28,3.28,0,0,1-4.87,4.22,3.29,3.29,0,1,0,4.87-4.22Z"/></g><circle class="cls-4" cx="32.95" cy="9.58" r="3.3"/><g class="cls-3"><path d="M35,7a3.34,3.34,0,0,1,.44,1.63,3.3,3.3,0,0,1-3.3,3.3,3.24,3.24,0,0,1-2-.71A3.29,3.29,0,1,0,35,7Z"/></g><circle class="cls-5" cx="38.21" cy="21.35" r="3.3"/><g class="cls-3"><path d="M40.22,18.76a3.2,3.2,0,0,1,.45,1.62,3.3,3.3,0,0,1-3.3,3.3,3.24,3.24,0,0,1-2-.71,3.29,3.29,0,1,0,4.87-4.21Z"/></g><path class="cls-4" d="M44.3,16.91h-.13l-5.55-.8a.9.9,0,0,1,.26-1.79l5.55.81a.9.9,0,0,1-.13,1.79Z"/><path class="cls-6" d="M29.74,22.31a.91.91,0,0,1-.9-.81l-.57-5.58a.92.92,0,0,1,.8-1,.9.9,0,0,1,1,.81l.58,5.58a.9.9,0,0,1-.8,1Z"/><path class="cls-7" d="M36.81,31.87a.92.92,0,0,1-.58-.21L32,28a.89.89,0,0,1-.1-1.27.9.9,0,0,1,1.27-.11l4.28,3.63a.9.9,0,0,1-.59,1.59Z"/><path class="cls-8" d="M20.49,21.36a.87.87,0,0,1-.68-.31.9.9,0,0,1,.08-1.27l4.23-3.69a.89.89,0,0,1,1.27.09.9.9,0,0,1-.08,1.27l-4.23,3.69A.88.88,0,0,1,20.49,21.36Z"/><path class="cls-8" d="M50.68,30.41h-.12L45,29.69a.89.89,0,0,1-.78-1,.9.9,0,0,1,1-.78l5.56.71a.9.9,0,0,1-.11,1.8Z"/><path class="cls-9" d="M62.78,82.44A14.17,14.17,0,1,1,77,68.27,14.18,14.18,0,0,1,62.78,82.44Zm0-22.44a8.27,8.27,0,1,0,8.27,8.27A8.28,8.28,0,0,0,62.78,60Z"/><path class="cls-6" d="M65.51,76a8,8,0,0,1-2.73.5,8.27,8.27,0,1,1,2.73-16V54.37a14.52,14.52,0,0,0-2.73-.27,14.17,14.17,0,0,0,0,28.34,13.74,13.74,0,0,0,2.73-.27Z"/><rect class="cls-9" x="5.77" y="39.13" width="53.53" height="58.29" rx="4.48" ry="4.48"/><rect class="cls-9" y="34.22" width="65.51" height="9.81" rx="4.91" ry="4.91"/><rect class="cls-6" x="5.77" y="44.03" width="53.53" height="6.06"/><path class="cls-4" d="M16.29,90.85a3,3,0,0,1-2.95-2.95V57.57a2.95,2.95,0,0,1,5.9,0V87.9A3,3,0,0,1,16.29,90.85Z"/></g></g></svg>