<svg xmlns="http://www.w3.org/2000/svg" xmlns:xlink="http://www.w3.org/1999/xlink" viewBox="0 0 109.44 206.69" width="109.44" height="206.69"><defs><style>.cls-1,.cls-6{fill:none;}.cls-2{opacity:0.1;}.cls-3{fill:#e53a34;}.cls-4{fill:#e51b23;}.cls-5{clip-path:url(#clip-path);}.cls-6{stroke:#eeeded;stroke-linejoin:round;stroke-width:4.09px;}.cls-7{fill:#eeeded;}.cls-8{opacity:0.2;}.cls-9{clip-path:url(#clip-path-2);}.cls-10{fill:#f2f2f2;}</style><clipPath id="clip-path"><polyline class="cls-1" points="69.43 146.37 32.4 153.75 10.25 33.15 48.01 25.79"/></clipPath><clipPath id="clip-path-2"><path class="cls-1" d="M69.4,146.38h0L48,25.79,10.25,33.15,30.24,142a11.46,11.46,0,0,1-3.88,8.52L13.8,166.8a18.73,18.73,0,1,0,26.89,26l.25.2L66.6,160.46l0-.1a18.73,18.73,0,0,0,2.83-14Z"/></clipPath></defs><title>stocking_red</title><g id="Layer_2" data-name="Layer 2"><g id="ART"><path class="cls-2" d="M80.26,145.32h0L54.22,35.05l.41-.1a9.24,9.24,0,0,0,.85-17.67L57.35,2.61A2.2,2.2,0,0,0,53,2.05L51.12,16.81c-.34.05-.67.11-1,.19L11.58,26.76A9.28,9.28,0,0,0,4.86,38h0a9.28,9.28,0,0,0,11.23,6.72l.89-.23,24,98.68a11.52,11.52,0,0,1-3.4,8.73l-11.62,17a18.73,18.73,0,1,0,28.31,24.49l.26.19,23.78-34,0-.09a18.38,18.38,0,0,0,1.6-3.48A18.58,18.58,0,0,0,80.26,145.32Z"/><polygon class="cls-3" points="69.43 146.37 32.4 153.75 10.25 33.15 48.01 25.79 69.43 146.37"/><path class="cls-4" d="M69.39,146.38h0L48,25.79,10.25,33.15l20,108.68a11.42,11.42,0,0,1-3.85,8.69L13.78,166.83a18.72,18.72,0,1,0,26.89,26l.27.21L66.6,160.46l0-.1a18.69,18.69,0,0,0,2.82-14Z"/><g class="cls-5"><polyline class="cls-6" points="13.57 83.1 21.97 65.08 33.06 77.18 39.52 60.27 50.59 72.14 61.13 52.76"/><polyline class="cls-6" points="16.75 98.07 25.15 80.05 36.24 92.14 42.7 75.24 53.77 87.11 64.31 67.72"/></g><circle class="cls-7" cx="30.3" cy="63.14" r="1.7"/><circle class="cls-7" cx="44.85" cy="87.23" r="1.7"/><circle class="cls-7" cx="49.17" cy="60.3" r="1.7"/><circle class="cls-8" cx="49.17" cy="60.3" r="1.7"/><circle class="cls-7" cx="26.67" cy="90.64" r="1.7"/><g class="cls-9"><path class="cls-8" d="M9.55,48.35c1.43-.72,33.67-6.81,33.67-6.81s16.48,94.58,17.2,100.31,1.43,11.82-3.59,19-27.22,36.19-29.37,39,15,6.81,15,6.81l22.93-16.12L89.08,149s39.4-.36,8.59-63.41S79.76,36.52,79.76,36.52s30.81-20.77-12.9-14-17.19,3.23-17.19,3.23L24.59,29.36l-19,7.16L7,48.7Z"/></g><path class="cls-10" d="M50.12-.21h0A2.2,2.2,0,0,1,52.32,2V29.31a0,0,0,0,1,0,0H47.93a0,0,0,0,1,0,0V2a2.2,2.2,0,0,1,2.2-2.2Z" transform="translate(3.48 -8.87) rotate(10.48)"/><path class="cls-10" d="M50,34.73,11,42.3A9.27,9.27,0,0,1,.17,35h0A9.28,9.28,0,0,1,7.5,24.13l39-7.57A9.27,9.27,0,0,1,57.36,23.9h0A9.27,9.27,0,0,1,50,34.73Z"/></g></g></svg>