<svg width="30" height="34" fill="none" xmlns="http://www.w3.org/2000/svg"><g clip-path="url(#clip0)"><path d="M30 6.604C30 2.61 27.391-.08 24.212.001c-3.016 0-5.462 2.364-5.707 5.95-1.222-.407-2.608-.57-3.913-.57-1.06 0-2.12.163-3.097.408C11.005 2.365 8.64.245 5.788.245 2.528.327 0 3.017 0 7.012c0 2.527 1.141 4.81 2.69 6.032-.978 2.038-1.549 4.321-1.549 6.685.082 7.908 6.196 14.266 13.614 14.103 7.419-.081 13.37-6.521 13.37-14.429 0-2.201-.49-4.32-1.386-6.196C28.614 12.066 30 9.54 30 6.604z" fill="#7C4C2A"/><path d="M11.495 9.538c0 3.18-2.528 5.788-5.707 5.788C2.608 15.326 0 12.8 0 9.62c0-3.098 2.527-5.707 5.707-5.788 3.179 0 5.788 2.527 5.788 5.706zM29.998 9.375c0 3.18-2.527 5.788-5.706 5.788-3.18 0-5.788-2.527-5.788-5.707 0-3.179 2.527-5.788 5.706-5.788 3.098-.081 5.707 2.528 5.788 5.707z" fill="#B66A33"/><path d="M9.54 9.538c0 2.038-1.63 3.75-3.669 3.75-2.038 0-3.75-1.63-3.75-3.669 0-2.038 1.63-3.75 3.669-3.75 2.038 0 3.668 1.63 3.75 3.669zM27.961 9.375c0 2.038-1.63 3.75-3.668 3.75-2.038 0-3.75-1.63-3.75-3.669 0-2.038 1.63-3.75 3.668-3.75 2.039-.081 3.75 1.63 3.75 3.669z" fill="#8C501C"/><path d="M28.126 19.565c.081 6.277-5.87 11.413-13.37 11.494-7.418.082-13.533-4.972-13.533-11.25-.081-6.277 5.87-11.413 13.37-11.494 7.337-.082 13.451 4.973 13.533 11.25z" fill="#B66A33"/><path d="M21.93 22.989c0 3.098-3.18 5.625-7.175 5.625-3.994.081-7.255-2.446-7.255-5.462 0-3.098 3.18-5.625 7.174-5.625 3.913-.082 7.174 2.364 7.255 5.462z" fill="#FFBD8A"/><path d="M9.642 18.83c.765-.008 1.376-.89 1.365-1.97-.011-1.081-.641-1.95-1.406-1.942-.766.008-1.377.89-1.366 1.97.012 1.08.642 1.95 1.407 1.942zM19.421 18.668c.765-.008 1.377-.89 1.365-1.971-.011-1.08-.64-1.95-1.406-1.942-.765.008-1.377.89-1.365 1.97.011 1.081.64 1.95 1.406 1.943z" fill="#332F2E"/><path d="M9.627 18.015c.315-.003.567-.334.563-.74-.004-.404-.263-.73-.578-.727-.316.004-.568.335-.563.74.004.405.263.73.578.727zM19.408 17.934c.316-.003.567-.334.563-.74-.004-.404-.263-.73-.578-.727-.315.004-.567.335-.563.74.004.405.263.73.578.727z" fill="#fff"/><path d="M14.675 24.457c0 1.141-.897 2.12-2.12 2.12a2.105 2.105 0 01-2.12-2.12" stroke="#584539" stroke-width=".671" stroke-miterlimit="10" stroke-linecap="round"/><path d="M18.913 24.457c0 1.141-.897 2.12-2.12 2.12a2.105 2.105 0 01-2.12-2.12M14.674 22.093v2.364" stroke="#584539" stroke-width=".671" stroke-miterlimit="10" stroke-linecap="round"/><path d="M14.695 23.395c1.756-.018 3.17-.91 3.158-1.99-.011-1.08-1.444-1.94-3.2-1.922-1.755.018-3.17.909-3.158 1.99.012 1.08 1.444 1.94 3.2 1.922z" fill="#7C4C2A"/></g><defs><clipPath id="clip0"><path fill="#fff" d="M0 0h30v33.913H0z"/></clipPath></defs></svg>