<svg xmlns="http://www.w3.org/2000/svg" xmlns:xlink="http://www.w3.org/1999/xlink" width="374.34" height="374.34" viewBox="0 0 374.34 374.34"><defs><clipPath id="a"><circle cx="187.17" cy="246.36" r="92.8" style="fill:none"/></clipPath></defs><title>toys</title><g style="isolation:isolate"><polygon points="265.15 373.89 109.2 373.89 124.28 327.1 250.07 327.1 265.15 373.89" style="fill:#094ace"/><circle cx="187.17" cy="246.36" r="92.8" style="fill:#86bad6"/><g style="clip-path:url(#a)"><path d="M104.31,288.81a46.71,46.71,0,0,1,41.75-9.23c9.58,2.62,19.07,8.4,28.74,6.16,7.78-1.81,13.54-8.45,21-11.3,6.15-2.35,13-1.94,19.46-.46s12.55,4,18.88,5.8a90.69,90.69,0,0,0,38.81,2.4l18.26,21.16-59,44.5H124.57L85.75,314.08Z" style="fill:#fff"/><path d="M200.94,205a67.5,67.5,0,0,0-23,.58c-3,.6-6.41,1.76-7.51,4.64-.86,2.23,0,4.84,1.64,6.62a19.75,19.75,0,0,0,5.9,4l34.69,18c3.7,1.91,8,5.13,7,9.16-.84,3.18-4.59,4.49-7.84,5a65.35,65.35,0,0,1-34.83-3.67c-4-1.58-8-3.67-10.56-7.08s-3.53-8.4-1.23-12c2.59-4.06,8-5.06,12.85-5.23,8.81-.31,17.61.84,26.43.66s18-1.87,25-7.17,11.37-14.9,8.46-23.22c-2-5.58-6.68-9.7-11.52-13.11C200,163.6,164.42,159,134.24,170.22c-8.32,3.1-16.34,7.4-22.61,13.69s-10.67,14.73-10.92,23.6c-.26,9.29,4,18.22,9.71,25.55,14.5,18.57,38.7,28.31,62.25,27.73s46.27-10.74,64.42-25.77c4.25-3.52,8.32-7.34,13.16-10s10.67-4.07,15.92-2.38,9.25,6.38,11.44,11.52,2.85,10.77,3.49,16.31c.49,4.23.87,8.91-1.64,12.35-2.74,3.74-7.92,4.62-12.55,4.74-25.72.66-51.26-13.93-63.76-36.42-5.71-10.28-9.36-22.57-19.09-29.16-8.74-5.92-20.55-5.59-30.39-1.78s-18.16,10.65-26.29,17.38c-5.31,4.4-11,9.35-12.24,16.13-1.69,9,5.37,17.7,13.61,21.78,12,6,26.54,5,39.24.59s24-11.92,35.43-19,23.31-13.91,36.46-16.65" style="fill:none;stroke:#fff;stroke-linecap:round;stroke-miterlimit:10;stroke-width:5.610767371141236px;stroke-dasharray:0,126.24226379394531"/></g><path d="M238.83,169.26A93.15,93.15,0,0,1,123,313.37a92.79,92.79,0,1,0,115.83-144.1Z" style="fill:#d3d4d6;mix-blend-mode:multiply"/><line x1="111.52" y1="327.1" x2="262.82" y2="327.1" style="fill:none;stroke:#094ace;stroke-linecap:round;stroke-miterlimit:10;stroke-width:27.626598992093232px"/><circle cx="146.63" cy="206.29" r="12.65" style="fill:#fff"/><circle cx="128.73" cy="232.68" r="5.73" style="fill:#fff;opacity:0.7000000000000001"/><polygon points="119.82 340.93 261.77 365.19 253.96 340.93 119.82 340.93" style="fill:#d3d4d6;mix-blend-mode:multiply"/></g></svg>