<svg xmlns="http://www.w3.org/2000/svg" width="374.34" height="374.34" viewBox="0 0 374.34 374.34"><title>toys</title><path d="M262.33,267.07h-15v-9.65a7.51,7.51,0,0,1,7.51-7.51h0a7.51,7.51,0,0,1,7.51,7.51Z" style="fill:#00a551"/><polygon points="361.49 362.56 325.4 360.67 325.4 315.08 361.49 362.56" style="fill:#fff"/><path d="M324.93,321.23H239.37V266h85.56a27.6,27.6,0,0,1,27.6,27.6h0A27.6,27.6,0,0,1,324.93,321.23Z" style="fill:#030391"/><path d="M362.36,358H327a2.68,2.68,0,0,0-2.68,2.68h0a2.68,2.68,0,0,0,2.68,2.68h35.39a2.68,2.68,0,0,0,2.68-2.68h0A2.68,2.68,0,0,0,362.36,358Z" style="fill:#fff"/><rect x="78.4" y="342.7" width="100" height="12" style="fill:#7549fc"/><path d="M142.4,169.7v185h100v-185Zm87,90.56A6.44,6.44,0,0,1,223,266.7H154.84a6.44,6.44,0,0,1-6.44-6.44V192.14a6.44,6.44,0,0,1,6.44-6.44H223a6.44,6.44,0,0,1,6.44,6.44Z" style="fill:#51a5f2"/><rect x="10.4" y="286.7" width="100" height="68" style="fill:#029b64"/><path d="M33.34,285.7a11.79,11.79,0,0,1-12,12,11.79,11.79,0,0,1-12-12Z" style="fill:#fff"/><path d="M53.45,285.7a11.79,11.79,0,0,1-12,12,11.79,11.79,0,0,1-12-12Z" style="fill:#fff"/><path d="M73.56,285.7a12,12,0,0,1-24,0Z" style="fill:#fff"/><path d="M93.67,285.7a12,12,0,0,1-24,0Z" style="fill:#fff"/><path d="M113.78,285.7a12,12,0,1,1-24,0Z" style="fill:#fff"/><circle cx="21.52" cy="361.69" r="10.15" style="fill:#464647"/><circle cx="21.52" cy="361.69" r="5.84" style="fill:#666"/><circle cx="101.96" cy="361.69" r="10.15" style="fill:#464647"/><circle cx="101.96" cy="361.69" r="5.84" style="fill:#666"/><rect x="237.23" y="266.03" width="87.95" height="85.8" style="fill:#51a5f2"/><polygon points="310.16 276.7 273.69 276.7 269.4 222.7 314.45 222.7 310.16 276.7" style="fill:#51a5f2"/><path d="M230.79,351.83H151.42V282.12a5.36,5.36,0,0,1,5.36-5.36h68.64a5.36,5.36,0,0,1,5.36,5.36Z" style="fill:#fff"/><path d="M162,167.7a12,12,0,0,1-24,0Z" style="fill:#7549fc"/><path d="M182.15,167.7a12,12,0,0,1-24,0Z" style="fill:#7549fc"/><path d="M202.26,167.7a12,12,0,0,1-24,0Z" style="fill:#7549fc"/><path d="M222.37,167.7a12,12,0,0,1-24,0Z" style="fill:#7549fc"/><path d="M242.48,167.7a12,12,0,1,1-24,0Z" style="fill:#7549fc"/><circle cx="165.24" cy="343.46" r="30.44" style="fill:#464647"/><circle cx="165.24" cy="343.45" r="17.53" style="fill:#029b64"/><circle cx="165.24" cy="343.45" r="8.76" style="fill:#7549fc"/><circle cx="261.77" cy="352.04" r="20.29" style="fill:#464647"/><circle cx="261.77" cy="352.04" r="11.68" style="fill:#029b64"/><circle cx="261.77" cy="352.04" r="5.84" style="fill:#7549fc"/><circle cx="304.67" cy="352.04" r="20.29" style="fill:#464647"/><circle cx="304.67" cy="352.04" r="11.68" style="fill:#029b64"/><polygon points="262.4 356.13 168.4 348.62 168.4 340.04 262.4 347.55 262.4 356.13" style="fill:#7549fc"/><polygon points="314.45 223.13 269.4 223.13 272.62 201.68 311.23 201.68 314.45 223.13" style="fill:#7549fc"/><circle cx="312.95" cy="279.77" r="6.01" style="fill:#fff"/><circle cx="313.69" cy="282.14" r="3.44" style="fill:#333"/></svg>