<svg xmlns="http://www.w3.org/2000/svg" width="374.34" height="374.34" viewBox="0 0 374.34 374.34"><title>toys</title><path d="M186,261.09,84.41,214.48a113,113,0,0,0,1.92,97.23l100-50.42Z" style="fill:#fff"/><path d="M284.23,203.57a112.79,112.79,0,0,0-99.12-55.31,114.05,114.05,0,0,0-12.32.92L186,261.09Z" style="fill:#fff"/><path d="M177.67,373.5c3.81.32,7.68.44,11.57.37a112.77,112.77,0,0,0,97-58.9L186.76,261.5Z" style="fill:#fff"/><path d="M186.37,261.28l.41-.2,0,.42L286.27,315a112.76,112.76,0,0,0-2-111.41L186,261.09Z" style="fill:#1565c0"/><path d="M172.78,149.18a112.84,112.84,0,0,0-88.38,65.3L186,261.09Z" style="fill:#ffd200"/><path d="M177.67,373.5l9.09-112-.38-.22-100,50.42A112.91,112.91,0,0,0,177.67,373.5Z" style="fill:#00bbfc"/><polygon points="186.38 261.28 186.76 261.5 186.79 261.08 186.38 261.28" style="fill:#00c4f2"/></svg>