<svg width="100" height="100" fill="none" xmlns="http://www.w3.org/2000/svg"><path fill="#5C01E4" d="M0 70h100v30H0z"/><path fill="#7000FF" d="M5 75h42v20H5z"/><path stroke="#400C8E" stroke-width="3.957" stroke-linecap="round" stroke-linejoin="round" d="M19.979 83.021h12.042"/><path fill="#7000FF" d="M53 75h42v20H53z"/><path stroke="#400C8E" stroke-width="3.957" stroke-linecap="round" stroke-linejoin="round" d="M67.979 83.021h12.042"/><path fill="#7000FF" d="M0 0h100v70H0z"/><path fill="#400C8E" d="M0 64h100v6H0z"/><path d="M67.742 48.046H64.96v9.214h2.783v-9.214z" fill="#1B69C1"/><path d="M64.96 48.622l-.96-.48.96-.48v.96z" fill="#B9BDC3"/><path d="M64.96 49.198l-.96-.48.96-.48v.96z" fill="#B9BDC3"/><path d="M64.96 49.774l-.96-.48.96-.48v.96z" fill="#B9BDC3"/><path d="M64.96 50.253L64 49.87l.96-.48v.863zm1.822-2.591H64.96v2.687h1.823v-2.687z" fill="#B9BDC3"/><path d="M95 56.204H64.958v-4.127l25.913-5.47c2.112-.48 4.127 1.151 4.127 3.359v6.238z" fill="#1B69C1"/><path d="M66.21 47.566c.96 2.208 3.84 2.784 5.95 3.36 2.4.671 4.895 1.247 7.39 1.343 0 0 .097-2.591 0-2.591-2.495-.096-4.99-.672-7.39-1.344-2.11-.576-4.99-1.152-5.95-3.359.288.768-.288 1.92 0 2.591z" fill="#E9F9FD"/><path d="M85.595 56.972a7.486 7.486 0 100-14.972 7.486 7.486 0 000 14.972z" fill="#E9F9FD"/><path d="M86.267 59.084a7.486 7.486 0 100-14.972 7.486 7.486 0 000 14.972z" fill="#B9BDC3"/><path d="M86.268 54.573a2.975 2.975 0 100-5.95 2.975 2.975 0 000 5.95z" stroke="#1B69C1" stroke-width=".73" stroke-miterlimit="10"/><path d="M86.266 53.71a2.111 2.111 0 100-4.224 2.111 2.111 0 000 4.223z" fill="#1B69C1"/><path d="M94.04 59.468H67.262c-1.247 0-2.303-1.056-2.303-2.304v-1.92l27.449-5.758c1.344-.288 2.591.768 2.591 2.112v6.91c0 .576-.48.96-.96.96z" fill="#FFB1B1"/><path d="M64.96 50.253h2.783v9.214h-.576c-1.248 0-2.304-1.056-2.304-2.303v-6.91h.096zm28.986 9.215c.576 0 .96-.48.96-.96v-9.022h-1.92v9.022c0 .576.48.96.96.96z" fill="#FFB1B1"/><path d="M51.302 9.003c-.93-.058-1.745.64-1.977 1.57-.059.233 0 .524 0 .698v3.489c0 .232.058.523 0 .698.174-.93.988-1.57 1.977-1.57 0 .058.116-4.885 0-4.885z" fill="#E7AD05"/><path d="M49.324 10.573c-.233 1.686-.698 5.059.233 6.57 1.279 2.036 7.675.873 9.652.815 4.42-.116 12.385-.93 12.734 5.466v-4.826c-.407 2.616-4.593 3.081-6.687 3.14-.058 0 0 4.942 0 4.942 1.919-.058 4.42-.349 5.873-1.686 1.047-.989.814-2.268.814-3.605 0-3.373-.116-6.338-3.721-7.734-2.5-.989-5.233-.698-7.85-.64-1.977.059-11.048 1.512-11.106-1.744v4.594c0-.117.058-.233.058-.35.233-1.627-.174-3.314 0-4.942z" fill="#F9D232"/><path d="M71.943 18.598c-.174 2.616-4.768 3.081-6.687 3.14-.058 0 0 4.942 0 4.942 1.977-.058 6.513-.523 6.687-3.14.175-1.628-.116-3.314 0-4.942z" fill="#FFF173"/><path d="M86.893 23.355c4.975 0 9.007-2.231 9.007-4.983s-4.032-4.982-9.007-4.982c-4.974 0-9.006 2.23-9.006 4.982 0 2.752 4.032 4.983 9.006 4.983z" fill="#74797E"/><path d="M79.324 11.665c-1.82.767-6.324 3.162-6.324 3.258l3.162.862-2.97 3.737s4.024-1.533 6.036-2.204" fill="#E7AD05"/><path d="M94.653 17.222c0 2.395-3.545 4.312-7.857 4.312-4.311 0-7.857-1.917-7.857-4.312v-4.695c0-2.395 3.546-4.312 7.857-4.312 4.312 0 7.857 1.917 7.857 4.312v4.695z" fill="#F9D232"/><path d="M86.893 15.88c4.975 0 9.007-2.23 9.007-4.982 0-2.751-4.032-4.982-9.007-4.982-4.974 0-9.006 2.23-9.006 4.982 0 2.752 4.032 4.983 9.006 4.983z" fill="#74797E"/><path d="M86.893 13.964c4.975 0 9.007-2.23 9.007-4.982C95.9 6.23 91.868 4 86.893 4c-4.974 0-9.006 2.23-9.006 4.982 0 2.752 4.032 4.982 9.006 4.982z" fill="#B9BDC3"/></svg>