<svg width="100" height="100" fill="none" xmlns="http://www.w3.org/2000/svg"><path fill="#5C01E4" d="M0 70h100v30H0z"/><path fill="#7000FF" d="M5 75h42v20H5z"/><path stroke="#400C8E" stroke-width="3.957" stroke-linecap="round" stroke-linejoin="round" d="M19.979 83.021h12.042"/><path fill="#7000FF" d="M53 75h42v20H53z"/><path stroke="#400C8E" stroke-width="3.957" stroke-linecap="round" stroke-linejoin="round" d="M67.979 83.021h12.042"/><path fill="#7000FF" d="M0 0h100v70H0z"/><path fill="#400C8E" d="M0 64h100v6H0z"/><path d="M65.211 26.775c.004-.87.27-1.828.447-2.61.265-.958.79-1.565 1.489-2.085.699-.52 1.831-.602 2.526-.25.696.35 1.127 1.223 1.473 1.835.258.784.778 1.483 1.385 2.008 1.39 1.138 3.925-1.29 4.887-2.33 1.05-1.216 1.753-2.606 2.455-3.997" stroke="#9B643D" stroke-width="1.947" stroke-miterlimit="10" stroke-linecap="round"/><path d="M76.68 12.713l4.835-10.866 10.429 5.269-4.835 10.866c-1.231 2.869-4.632 3.987-7.587 2.494-2.781-1.405-4.073-4.894-2.842-7.763z" fill="#F9D232"/><path d="M82.076 13.692l3.86-6.777 1.478.529-3.86 6.777-1.478-.529zm4.542-3.377l1.404-2.346 1.478.529-1.403 2.346-1.478-.529zm-5.84.761l2.808-5.126 1.478.529-2.808 5.126-1.478-.529z" fill="#fff"/><path d="M92.102 30.146c-.21.845-.697 1.71-1.056 2.429-.486.866-1.14 1.33-1.943 1.669-.803.338-1.922.148-2.514-.36-.591-.506-.802-1.457-.992-2.133-.064-.824-.402-1.626-.866-2.281-1.077-1.436-4.119.317-5.302 1.098-1.31.93-2.323 2.113-3.337 3.295" stroke="#9B643D" stroke-width="1.947" stroke-miterlimit="10" stroke-linecap="round"/><path d="M77.61 41.066l-7.287 9.4-8.871-7.604 7.287-9.4c1.88-2.492 5.45-2.766 7.963-.612 2.365 2.028 2.788 5.724.908 8.216z" fill="#F9D232"/><path d="M72.604 38.829l-5.365 5.66-1.31-.865 5.366-5.661 1.31.866zm-5.218 2.195l-1.922 1.944-1.31-.866 1.922-1.944 1.31.866zm5.854.654l-3.95 4.31-1.31-.867 3.95-4.309 1.31.866z" fill="#fff"/><path d="M82.226 55.249l-10.9 3.6c-.4.1-.9-.1-1-.5-.1-.4.1-.9.5-1l10.9-3.6c.4-.1.9.1 1 .5.1.4-.1.9-.5 1z" fill="#A3A7AB"/><path d="M82.527 56.249l-10.9 3.6c-.4.1-.9-.1-1-.5-.1-.4.1-.9.5-1l10.9-3.6c.4-.1.9.1 1 .5.2.4-.1.9-.5 1z" fill="#A3A7AB"/><path d="M89.526 48.648c.6 1.8-.1 3.7-1.6 4.2l-2.6.9" stroke="#206F3B" stroke-width="1.836" stroke-miterlimit="10"/><path d="M87.727 52.149l-2.6.9-.9-2.6c-.5-1.5.3-3 1.8-3.5s3 .3 3.5 1.8c.4 1.3-.4 2.9-1.8 3.4zm4.098 3.599c-.6-1.8-2.3-2.9-3.7-2.4l-2.6.9" stroke="#206F3B" stroke-width="1.836" stroke-miterlimit="10"/><path d="M88.327 53.949l-2.6.9.9 2.6c.5 1.5 2 2.3 3.5 1.8 1.5-.5 2.3-2 1.8-3.5-.6-1.4-2.1-2.2-3.6-1.8z" stroke="#206F3B" stroke-width="1.836" stroke-miterlimit="10"/><path d="M80.326 55.548l7.1-2.3.6 1.8-5.3 1.7c-1 .4-2.1-.2-2.4-1.2z" fill="#206F3B"/><path d="M80.327 55.549l7.1-2.3-.6-1.8-5.3 1.7c-1 .4-1.5 1.4-1.2 2.4z" fill="#206F3B"/><path d="M81.826 55.549a.5.5 0 100-1 .5.5 0 000 1z" fill="#A3A7AB"/><path d="M81.925 54.549l-10.9 3.6c-.4.1-.9-.1-1-.5-.1-.4.1-.9.5-1l10.9-3.6c.4-.1.9.1 1 .5.2.4 0 .9-.5 1z" fill="#D8DDE2"/><path d="M82.326 55.549l-10.9 3.6c-.4.1-.9-.1-1-.5-.1-.4.1-.9.5-1l10.9-3.6c.4-.1.9.1 1 .5.1.4-.1.9-.5 1z" fill="#D8DDE2"/><path d="M89.225 47.849c.6 1.8-.1 3.7-1.6 4.2l-2.6.9" stroke="#30A658" stroke-width="1.836" stroke-miterlimit="10"/><path d="M87.526 51.449l-2.7.8-.9-2.6c-.5-1.5.3-3 1.8-3.5s3 .3 3.5 1.8c.5 1.4-.3 3-1.7 3.5zm4.1 3.6c-.6-1.8-2.3-2.9-3.7-2.4l-2.6.9" stroke="#30A658" stroke-width="1.836" stroke-miterlimit="10"/><path d="M88.125 53.249l-2.6.9.9 2.6c.5 1.5 2 2.3 3.5 1.8 1.5-.5 2.3-2 1.8-3.5-.6-1.5-2.2-2.2-3.6-1.8z" stroke="#30A658" stroke-width="1.836" stroke-miterlimit="10"/><path d="M80.125 54.849l7.1-2.3.6 1.8-5.3 1.7c-1 .3-2.1-.2-2.4-1.2z" fill="#30A658"/><path d="M80.126 54.849l7.1-2.3-.6-1.8-5.3 1.7c-1 .4-1.5 1.4-1.2 2.4z" fill="#30A658"/><path d="M81.625 54.849a.5.5 0 100-1 .5.5 0 000 1z" fill="#D8DDE2"/></svg>