# WaveFront *.obj file (generated by CINEMA 4D)

mtllib ./board.mtl

v -42.42640686035156 31.16122245788574 4
v -0 73.58763122558594 4
v 0 -11.26518440246582 4
v 42.42640686035156 31.16122245788574 4
v 0 -11.26518440246582 -4
v 42.42640686035156 31.16122245788574 -4
v -42.42640686035156 31.16122245788574 -4
v -0 73.58763122558594 -4
v -5.11394786834717 -64.60148620605469 3.5
v -5.11394786834717 2.27903842926025 3.5
v 5.11394786834717 -64.60148620605469 3.5
v 5.11394786834717 2.27903842926025 3.5
v 5.11394786834717 -64.60148620605469 -3.5
v 5.11394786834717 2.27903842926025 -3.5
v -5.11394786834717 -64.60148620605469 -3.5
v -5.11394786834717 2.27903842926025 -3.5
# 16 vertices

vn 0 0 1
vn 0.70710676908493 -0.70710676908493 0
vn 0 0 -1
vn -0.70710676908493 0.70710676908493 0
vn 0.70710676908493 0.70710676908493 0
vn -0.70710676908493 -0.70710676908493 0
vn 1 0 0
vn -1 0 0
vn 0 1 0
vn 0 -1 0
# 10 normals

vt 0.00000003527724 0.50026565790176 0
vt 0.50013279914856 1.00013279914856 0
vt 1 0.5 0
vt 0.49986720085144 0.00013279914856 0
vt 0.86473882198334 0.03659749031067 0
vt 0.86473882198334 0.1755598783493 0
vt 0.96847075223923 0.1755598783493 0
vt 0.96847075223923 0.03659749031067 0
vt 0.73378527164459 0.03659749031067 0
vt 0.73378527164459 0.1755598783493 0
vt 0.76992630958557 0.1755598783493 0
vt 0.76992630958557 0.03659749031067 0
vt 0.82859766483307 0.1755598783493 0
vt 0.82859766483307 0.03659749031067 0
vt 0.08372703194618 0.08270025253296 0
vt 0.08423492312431 0.29404664039612 0
vt 0.04468303918839 0.28139007091522 0
vt 0.05007687211037 0.06854355335236 0
vt 0.06014576554298 0.26601755619049 0
vt 0.06328791379929 0.05145394802094 0
vt 0.10027769207954 0.27924418449402 0
vt 0.09735670685768 0.06615114212036 0
vt 0.86704689264297 0.17723441123962 0
vt 0.86704689264297 0.27339065074921 0
vt 0.96320313215256 0.27339065074921 0
vt 0.96320313215256 0.17723441123962 0
# 26 texture coordinates

o Cube.2
usemtl default
f 3/4/1 4/3/1 2/2/1 1/1/1
f 5/8/2 6/7/2 4/6/2 3/5/2
f 7/12/3 8/11/3 6/10/3 5/9/3
f 1/14/4 2/13/4 8/11/4 7/12/4
f 4/6/5 6/10/5 8/11/5 2/13/5
f 5/9/6 3/5/6 1/14/6 7/12/6
f 11/18/1 12/17/1 10/16/1 9/15/1
f 13/20/7 14/19/7 12/17/7 11/18/7
f 15/22/3 16/21/3 14/19/3 13/20/3
f 9/15/8 10/16/8 16/21/8 15/22/8
f 12/26/9 14/25/9 16/24/9 10/23/9
f 13/26/10 11/25/10 9/24/10 15/23/10

