# WaveFront *.obj file (generated by CINEMA 4D)

mtllib ./mount.mtl

v 0 -262.12237548828125 0
v 0 254.18806457519531 0
v 587.17205810546875 -262.12237548828125 0
v 363.42373657226562 -200 0
v 363.42373657226562 200 0
v 363.42373657226562 254.18806457519531 0
v 578.2515869140625 -262.12237548828125 -101.96135711669922
v 357.90252685546875 -200 -63.10787200927734
v 357.90252685546875 200 -63.10787200927734
v 357.90252685546875 254.18806457519531 -63.10787200927734
v 551.76123046875 -262.12237548828125 -200.82466125488281
v 341.50662231445312 -200 -124.29824066162109
v 341.50662231445312 200 -124.29824066162109
v 341.50662231445312 254.18806457519531 -124.29824066162109
v 508.50592041015625 -262.12237548828125 -293.58602905273438
v 314.73419189453125 -200 -181.71186828613281
v 314.73419189453125 200 -181.71186828613281
v 314.73419189453125 254.18806457519531 -181.71186828613281
v 449.79989624023438 -262.12237548828125 -377.42691040039062
v 278.39874267578125 -200 -233.60427856445312
v 278.39874267578125 200 -233.60427856445312
v 278.39874267578125 254.18806457519531 -233.60427856445312
v 377.42691040039062 -262.12237548828125 -449.79989624023438
v 233.60427856445312 -200 -278.39874267578125
v 233.60427856445312 200 -278.39874267578125
v 233.60427856445312 254.18806457519531 -278.39874267578125
v 293.58602905273438 -262.12237548828125 -508.50592041015625
v 181.71186828613281 -200 -314.73419189453125
v 181.71186828613281 200 -314.73419189453125
v 181.71186828613281 254.18806457519531 -314.73419189453125
v 200.82466125488281 -262.12237548828125 -551.76123046875
v 124.29824066162109 -200 -341.50662231445312
v 124.29824066162109 200 -341.50662231445312
v 124.29824066162109 254.18806457519531 -341.50662231445312
v 101.96135711669922 -262.12237548828125 -578.2515869140625
v 63.10787200927734 -200 -357.90252685546875
v 63.10787200927734 200 -357.90252685546875
v 63.10787200927734 254.18806457519531 -357.90252685546875
v 0.00000000000004 -262.12237548828125 -587.17205810546875
v 0.00000000000002 -200 -363.42373657226562
v 0.00000000000002 200 -363.42373657226562
v 0.00000000000002 254.18806457519531 -363.42373657226562
v -101.96135711669922 -262.12237548828125 -578.2515869140625
v -63.10787200927734 -200 -357.90252685546875
v -63.10787200927734 200 -357.90252685546875
v -63.10787200927734 254.18806457519531 -357.90252685546875
v -200.82466125488281 -262.12237548828125 -551.76123046875
v -124.29824066162109 -200 -341.50662231445312
v -124.29824066162109 200 -341.50662231445312
v -124.29824066162109 254.18806457519531 -341.50662231445312
v -293.58602905273438 -262.12237548828125 -508.50592041015625
v -181.71186828613281 -200 -314.73419189453125
v -181.71186828613281 200 -314.73419189453125
v -181.71186828613281 254.18806457519531 -314.73419189453125
v -377.42691040039062 -262.12237548828125 -449.79989624023438
v -233.60427856445312 -200 -278.39874267578125
v -233.60427856445312 200 -278.39874267578125
v -233.60427856445312 254.18806457519531 -278.39874267578125
v -449.79989624023438 -262.12237548828125 -377.42691040039062
v -278.39874267578125 -200 -233.60427856445312
v -278.39874267578125 200 -233.60427856445312
v -278.39874267578125 254.18806457519531 -233.60427856445312
v -508.50592041015625 -262.12237548828125 -293.58602905273438
v -314.73419189453125 -200 -181.71186828613281
v -314.73419189453125 200 -181.71186828613281
v -314.73419189453125 254.18806457519531 -181.71186828613281
v -551.76123046875 -262.12237548828125 -200.82466125488281
v -341.50662231445312 -200 -124.29824066162109
v -341.50662231445312 200 -124.29824066162109
v -341.50662231445312 254.18806457519531 -124.29824066162109
v -578.2515869140625 -262.12237548828125 -101.96135711669922
v -357.90252685546875 -200 -63.10787200927734
v -357.90252685546875 200 -63.10787200927734
v -357.90252685546875 254.18806457519531 -63.10787200927734
v -587.17205810546875 -262.12237548828125 -0.00000000000007
v -363.42373657226562 -200 -0.00000000000004
v -363.42373657226562 200 -0.00000000000004
v -363.42373657226562 254.18806457519531 -0.00000000000004
v -578.2515869140625 -262.12237548828125 101.96135711669922
v -357.90252685546875 -200 63.10787200927734
v -357.90252685546875 200 63.10787200927734
v -357.90252685546875 254.18806457519531 63.10787200927734
v -551.76123046875 -262.12237548828125 200.82466125488281
v -341.50662231445312 -200 124.29824066162109
v -341.50662231445312 200 124.29824066162109
v -341.50662231445312 254.18806457519531 124.29824066162109
v -508.50592041015625 -262.12237548828125 293.58602905273438
v -314.73419189453125 -200 181.71186828613281
v -314.73419189453125 200 181.71186828613281
v -314.73419189453125 254.18806457519531 181.71186828613281
v -449.79989624023438 -262.12237548828125 377.42691040039062
v -278.39874267578125 -200 233.60427856445312
v -278.39874267578125 200 233.60427856445312
v -278.39874267578125 254.18806457519531 233.60427856445312
v -377.42691040039062 -262.12237548828125 449.79989624023438
v -233.60427856445312 -200 278.39874267578125
v -233.60427856445312 200 278.39874267578125
v -233.60427856445312 254.18806457519531 278.39874267578125
v -293.58602905273438 -262.12237548828125 508.50592041015625
v -181.71186828613281 -200 314.73419189453125
v -181.71186828613281 200 314.73419189453125
v -181.71186828613281 254.18806457519531 314.73419189453125
v -200.82466125488281 -262.12237548828125 551.76123046875
v -124.29824066162109 -200 341.50662231445312
v -124.29824066162109 200 341.50662231445312
v -124.29824066162109 254.18806457519531 341.50662231445312
v -101.96135711669922 -262.12237548828125 578.2515869140625
v -63.10787200927734 -200 357.90252685546875
v -63.10787200927734 200 357.90252685546875
v -63.10787200927734 254.18806457519531 357.90252685546875
v -0.00000000000011 -262.12237548828125 587.17205810546875
v -0.00000000000007 -200 363.42373657226562
v -0.00000000000007 200 363.42373657226562
v -0.00000000000007 254.18806457519531 363.42373657226562
v 101.96135711669922 -262.12237548828125 578.2515869140625
v 63.10787200927734 -200 357.90252685546875
v 63.10787200927734 200 357.90252685546875
v 63.10787200927734 254.18806457519531 357.90252685546875
v 200.82466125488281 -262.12237548828125 551.76123046875
v 124.29824066162109 -200 341.50662231445312
v 124.29824066162109 200 341.50662231445312
v 124.29824066162109 254.18806457519531 341.50662231445312
v 293.58602905273438 -262.12237548828125 508.50592041015625
v 181.71186828613281 -200 314.73419189453125
v 181.71186828613281 200 314.73419189453125
v 181.71186828613281 254.18806457519531 314.73419189453125
v 377.42691040039062 -262.12237548828125 449.79989624023438
v 233.60427856445312 -200 278.39874267578125
v 233.60427856445312 200 278.39874267578125
v 233.60427856445312 254.18806457519531 278.39874267578125
v 449.79989624023438 -262.12237548828125 377.42691040039062
v 278.39874267578125 -200 233.60427856445312
v 278.39874267578125 200 233.60427856445312
v 278.39874267578125 254.18806457519531 233.60427856445312
v 508.50592041015625 -262.12237548828125 293.58602905273438
v 314.73419189453125 -200 181.71186828613281
v 314.73419189453125 200 181.71186828613281
v 314.73419189453125 254.18806457519531 181.71186828613281
v 551.76123046875 -262.12237548828125 200.82466125488281
v 341.50662231445312 -200 124.29824066162109
v 341.50662231445312 200 124.29824066162109
v 341.50662231445312 254.18806457519531 124.29824066162109
v 578.2515869140625 -262.12237548828125 101.96135711669922
v 357.90252685546875 -200 63.10787200927734
v 357.90252685546875 200 63.10787200927734
v 357.90252685546875 254.18806457519531 63.10787200927734
# 146 vertices

vn 0 -1 0
vn 0 0 0
vn 0 1 0
vn 0 1 0
vn 0 1 0
vn 0.15933027863503 0.39762803912163 0.90360713005066
vn 0.31381946802139 0.39762803912163 0.86221188306808
vn 0.4587733745575 0.39762806892395 0.79461872577667
vn 0.58978766202927 0.39762806892395 0.70288151502609
vn 0.70288151502609 0.39762806892395 0.58978766202927
vn 0.79461872577667 0.39762806892395 0.45877331495285
vn 0.86221182346344 0.39762806892395 0.31381943821907
vn 0 0.39762806892395 0.91754668951035
vn -0.15933027863503 0.39762806892395 0.90360707044601
vn -0.31381943821907 0.39762806892395 0.86221182346344
vn -0.45877331495285 0.39762806892395 0.79461872577667
vn -0.58978766202927 0.39762806892395 0.70288151502609
vn -0.70288151502609 0.39762806892395 0.58978766202927
vn -0.79461872577667 0.39762806892395 0.4587733745575
vn -0.86221188306808 0.39762806892395 0.31381943821907
vn -0.90360713005066 0.39762806892395 0.15933027863503
vn -0.91754668951035 0.39762806892395 0
vn -0.90360707044601 0.39762806892395 -0.15933027863503
vn -0.86221182346344 0.39762806892395 -0.31381943821907
vn -0.79461872577667 0.39762806892395 -0.45877331495285
vn -0.70288151502609 0.39762806892395 -0.58978766202927
vn -0.58978766202927 0.39762806892395 -0.70288151502609
vn -0.4587733745575 0.39762806892395 -0.79461872577667
vn -0.31381946802139 0.39762803912163 -0.86221188306808
vn -0.15933027863503 0.39762803912163 -0.90360713005066
vn 0 0.39762806892395 -0.91754668951035
vn 0.15933027863503 0.39762806892395 -0.90360707044601
vn 0.31381943821907 0.39762806892395 -0.86221182346344
vn 0.45877331495285 0.39762806892395 -0.79461872577667
vn 0.90360707044601 0.39762806892395 0.15933027863503
vn 0.91754668951035 0.39762806892395 0
vn 0.90360713005066 0.39762806892395 -0.15933027863503
vn 0.86221188306808 0.39762806892395 -0.31381943821907
vn 0.79461872577667 0.39762806892395 -0.4587733745575
vn 0.70288151502609 0.39762806892395 -0.58978766202927
vn 0.58978766202927 0.39762806892395 -0.70288151502609
# 41 normals

vt 0.17792190611362 0.18493139743805 0
vt 0.3434596657753 0.18493139743805 0
vt 0.34094476699829 0.15618598461151 0
vt 0 1 0
vt 0.09515298902988 0.32829117774963 0
vt 0.12130464613438 0.34048581123352 0
vt 0.83754312992096 0.30827045440674 0
vt 0.83754312992096 0.16233909130096 0
vt 0.86288392543793 0.30605340003967 0
vt 0.33347642421722 0.1283141374588 0
vt 0.71116280555725 0.08937335014343 0
vt 0.70041239261627 0.11242759227753 0
vt 0.8874546289444 0.29946970939636 0
vt 0.32128179073334 0.10216248035431 0
vt 0.14917655289173 0.34795415401459 0
vt 0.91050887107849 0.28871929645538 0
vt 0.30473113059998 0.07852578163147 0
vt 0.69382870197296 0.136998295784 0
vt 0.93134605884552 0.27412891387939 0
vt 0.28432750701904 0.05812203884125 0
vt 0.17792190611362 0.35046899318695 0
vt 0.94933307170868 0.25614190101624 0
vt 0.2606908082962 0.04157149791718 0
vt 0.69161176681519 0.16233909130096 0
vt 0.96392345428467 0.23530471324921 0
vt 0.23453910648823 0.02937686443329 0
vt 0.20666719973087 0.34795415401459 0
vt 0.97467386722565 0.2122505903244 0
vt 0.20666719973087 0.02190852165222 0
vt 0.69382870197296 0.18767976760864 0
vt 0.98125755786896 0.18767976760864 0
vt 0.17792190611362 0.01939368247986 0
vt 0.23453910648823 0.34048581123352 0
vt 0.98347449302673 0.16233909130096 0
vt 0.14917655289173 0.02190852165222 0
vt 0.70041239261627 0.2122505903244 0
vt 0.98125755786896 0.136998295784 0
vt 0.12130464613438 0.02937686443329 0
vt 0.2606908082962 0.32829117774963 0
vt 0.97467386722565 0.11242759227753 0
vt 0.09515298902988 0.04157149791718 0
vt 0.71116280555725 0.23530471324921 0
vt 0.96392345428467 0.08937335014343 0
vt 0.07151626050472 0.05812203884125 0
vt 0.28432750701904 0.31174051761627 0
vt 0.94933307170868 0.06853628158569 0
vt 0.05111261084676 0.07852578163147 0
vt 0.72575318813324 0.25614190101624 0
vt 0.93134605884552 0.05054914951324 0
vt 0.03456198051572 0.10216248035431 0
vt 0.30473113059998 0.29133689403534 0
vt 0.91050887107849 0.03595876693726 0
vt 0.02236734703183 0.1283141374588 0
vt 0.7437402009964 0.27412891387939 0
vt 0.8874546289444 0.02520847320557 0
vt 0.01489900425076 0.15618598461151 0
vt 0.32128179073334 0.26770007610321 0
vt 0.86288392543793 0.01862478256226 0
vt 0.01238410640508 0.18493139743805 0
vt 0.76457750797272 0.28871929645538 0
vt 0.83754312992096 0.01640772819519 0
vt 0.01489900425076 0.2136766910553 0
vt 0.33347642421722 0.24154853820801 0
vt 0.81220245361328 0.01862478256226 0
vt 0.02236734703183 0.24154853820801 0
vt 0.78763163089752 0.29946970939636 0
vt 0.78763163089752 0.02520847320557 0
vt 0.03456198051572 0.26770007610321 0
vt 0.34094476699829 0.2136766910553 0
vt 0.76457750797272 0.03595876693726 0
vt 0.05111261084676 0.29133689403534 0
vt 0.81220245361328 0.30605340003967 0
vt 0.7437402009964 0.05054914951324 0
vt 0.07151626050472 0.31174051761627 0
vt 0.72575318813324 0.06853628158569 0
vt 0.58101969957352 0.69459587335587 0
vt 0.59525138139725 0.69078248739243 0
vt 0.68924427032471 0.94902563095093 0
vt 0.62874114513397 0.9652373790741 0
vt 0.60860466957092 0.68455576896667 0
vt 0.74601298570633 0.92255389690399 0
vt 0.6206738948822 0.67610484361649 0
vt 0.79732245206833 0.88662660121918 0
vt 0.6310920715332 0.66568660736084 0
vt 0.84161388874054 0.84233522415161 0
vt 0.63954299688339 0.65361738204956 0
vt 0.87754124403 0.79102569818497 0
vt 0.6457696557045 0.64026415348053 0
vt 0.90401297807693 0.7342569231987 0
vt 0.56634211540222 0.69587993621826 0
vt 0.56634211540222 0.97069656848907 0
vt 0.55166435241699 0.69459587335587 0
vt 0.50394302606583 0.9652373790741 0
vt 0.53743278980255 0.69078248739243 0
vt 0.44343987107277 0.94902563095093 0
vt 0.52407956123352 0.68455576896667 0
vt 0.38667103648186 0.92255389690399 0
vt 0.51201033592224 0.67610484361649 0
vt 0.33536154031754 0.88662660121918 0
vt 0.50159198045731 0.66568660736084 0
vt 0.29107022285461 0.84233522415161 0
vt 0.49314120411873 0.65361738204956 0
vt 0.25514286756516 0.79102569818497 0
vt 0.48691436648369 0.64026415348053 0
vt 0.22867116332054 0.7342569231987 0
vt 0.48310098052025 0.6260324716568 0
vt 0.21245935559273 0.67375385761261 0
vt 0.48181691765785 0.61135476827621 0
vt 0.20700019598007 0.61135476827621 0
vt 0.48310098052025 0.59667724370956 0
vt 0.21245935559273 0.5489559173584 0
vt 0.48691436648369 0.58244544267654 0
vt 0.22867116332054 0.48845279216766 0
vt 0.49314120411873 0.56909227371216 0
vt 0.25514286756516 0.43168389797211 0
vt 0.50159198045731 0.55702316761017 0
vt 0.29107022285461 0.38037443161011 0
vt 0.51201033592224 0.54660493135452 0
vt 0.33536154031754 0.33608293533325 0
vt 0.52407956123352 0.53815394639969 0
vt 0.38667103648186 0.30015563964844 0
vt 0.53743278980255 0.53192734718323 0
vt 0.44343987107277 0.2736839056015 0
vt 0.55166435241699 0.52811390161514 0
vt 0.50394302606583 0.25747215747833 0
vt 0.56634211540222 0.52682971954346 0
vt 0.56634211540222 0.25201296806335 0
vt 0.58101969957352 0.52811390161514 0
vt 0.62874114513397 0.25747215747833 0
vt 0.59525138139725 0.53192734718323 0
vt 0.68924427032471 0.2736839056015 0
vt 0.60860466957092 0.53815394639969 0
vt 0.74601298570633 0.30015563964844 0
vt 0.64958316087723 0.6260324716568 0
vt 0.9202247262001 0.67375385761261 0
vt 0.65086722373962 0.61135476827621 0
vt 0.92568379640579 0.61135476827621 0
vt 0.64958316087723 0.59667724370956 0
vt 0.9202247262001 0.5489559173584 0
vt 0.6457696557045 0.58244544267654 0
vt 0.90401297807693 0.48845279216766 0
vt 0.63954299688339 0.56909227371216 0
vt 0.87754124403 0.43168389797211 0
vt 0.6310920715332 0.55702316761017 0
vt 0.84161388874054 0.38037443161011 0
vt 0.6206738948822 0.54660493135452 0
vt 0.79732245206833 0.33608293533325 0
# 147 texture coordinates

o mount
usemtl mount6
f 7/3/1 3/2/1 1/1/1
f 103/6/1 99/5/1 1/1/1
f 10/9/3 2/8/3 6/7/3
f 11/10/1 7/3/1 1/1/1
f 106/12/4 2/8/3 102/11/4
f 14/13/3 2/8/3 10/9/3
f 15/14/1 11/10/1 1/1/1
f 107/15/1 103/6/1 1/1/1
f 18/16/3 2/8/3 14/13/3
f 19/17/1 15/14/1 1/1/1
f 110/18/4 2/8/3 106/12/4
f 22/19/3 2/8/3 18/16/3
f 23/20/1 19/17/1 1/1/1
f 111/21/1 107/15/1 1/1/1
f 26/22/3 2/8/3 22/19/3
f 27/23/1 23/20/1 1/1/1
f 114/24/3 2/8/3 110/18/4
f 30/25/3 2/8/3 26/22/3
f 31/26/1 27/23/1 1/1/1
f 115/27/1 111/21/1 1/1/1
f 34/28/3 2/8/3 30/25/3
f 35/29/1 31/26/1 1/1/1
f 118/30/3 2/8/3 114/24/3
f 38/31/3 2/8/3 34/28/3
f 39/32/1 35/29/1 1/1/1
f 119/33/1 115/27/1 1/1/1
f 42/34/3 2/8/3 38/31/3
f 43/35/1 39/32/1 1/1/1
f 122/36/5 2/8/3 118/30/3
f 46/37/3 2/8/3 42/34/3
f 47/38/1 43/35/1 1/1/1
f 123/39/1 119/33/1 1/1/1
f 50/40/3 2/8/3 46/37/3
f 51/41/1 47/38/1 1/1/1
f 126/42/5 2/8/3 122/36/5
f 54/43/3 2/8/3 50/40/3
f 55/44/1 51/41/1 1/1/1
f 127/45/1 123/39/1 1/1/1
f 58/46/3 2/8/3 54/43/3
f 59/47/1 55/44/1 1/1/1
f 130/48/5 2/8/3 126/42/5
f 62/49/3 2/8/3 58/46/3
f 63/50/1 59/47/1 1/1/1
f 131/51/1 127/45/1 1/1/1
f 66/52/3 2/8/3 62/49/3
f 67/53/1 63/50/1 1/1/1
f 134/54/5 2/8/3 130/48/5
f 70/55/3 2/8/3 66/52/3
f 71/56/1 67/53/1 1/1/1
f 135/57/1 131/51/1 1/1/1
f 74/58/3 2/8/3 70/55/3
f 75/59/1 71/56/1 1/1/1
f 138/60/5 2/8/3 134/54/5
f 78/61/3 2/8/3 74/58/3
f 79/62/1 75/59/1 1/1/1
f 139/63/1 135/57/1 1/1/1
f 82/64/3 2/8/3 78/61/3
f 83/65/1 79/62/1 1/1/1
f 142/66/5 2/8/3 138/60/5
f 86/67/4 2/8/3 82/64/3
f 87/68/1 83/65/1 1/1/1
f 143/69/1 139/63/1 1/1/1
f 90/70/4 2/8/3 86/67/4
f 91/71/1 87/68/1 1/1/1
f 146/72/5 2/8/3 142/66/5
f 94/73/4 2/8/3 90/70/4
f 95/74/1 91/71/1 1/1/1
f 3/2/1 143/69/1 1/1/1
f 98/75/4 2/8/3 94/73/4
f 99/5/1 95/74/1 1/1/1
f 6/7/3 2/8/3 146/72/5
f 102/11/4 2/8/3 98/75/4
f 115/79/6 119/78/7 122/77/7 118/76/6
f 119/78/7 123/81/8 126/80/8 122/77/7
f 123/81/8 127/83/9 130/82/9 126/80/8
f 127/83/9 131/85/10 134/84/10 130/82/9
f 131/85/10 135/87/11 138/86/11 134/84/10
f 135/87/11 139/89/12 142/88/12 138/86/11
f 111/91/13 115/79/6 118/76/6 114/90/13
f 107/93/14 111/91/13 114/90/13 110/92/14
f 103/95/15 107/93/14 110/92/14 106/94/15
f 99/97/16 103/95/15 106/94/15 102/96/16
f 95/99/17 99/97/16 102/96/16 98/98/17
f 91/101/18 95/99/17 98/98/17 94/100/18
f 87/103/19 91/101/18 94/100/18 90/102/19
f 83/105/20 87/103/19 90/102/19 86/104/20
f 79/107/21 83/105/20 86/104/20 82/106/21
f 75/109/22 79/107/21 82/106/21 78/108/22
f 71/111/23 75/109/22 78/108/22 74/110/23
f 67/113/24 71/111/23 74/110/23 70/112/24
f 63/115/25 67/113/24 70/112/24 66/114/25
f 59/117/26 63/115/25 66/114/25 62/116/26
f 55/119/27 59/117/26 62/116/26 58/118/27
f 51/121/28 55/119/27 58/118/27 54/120/28
f 47/123/29 51/121/28 54/120/28 50/122/29
f 43/125/30 47/123/29 50/122/29 46/124/30
f 39/127/31 43/125/30 46/124/30 42/126/31
f 35/129/32 39/127/31 42/126/31 38/128/32
f 31/131/33 35/129/32 38/128/32 34/130/33
f 27/133/34 31/131/33 34/130/33 30/132/34
f 139/89/12 143/135/35 146/134/35 142/88/12
f 143/135/35 3/137/36 6/136/36 146/134/35
f 3/137/36 7/139/37 10/138/37 6/136/36
f 7/139/37 11/141/38 14/140/38 10/138/37
f 11/141/38 15/143/39 18/142/39 14/140/38
f 15/143/39 19/145/40 22/144/40 18/142/39
f 19/145/40 23/147/41 26/146/41 22/144/40
f 23/147/41 27/133/34 30/132/34 26/146/41

