# WaveFront *.obj file (generated by CINEMA 4D)

mtllib ./rock02.mtl

v 0 13.37976264953613 27.38096237182617
v 0 -4.90582036972046 27.38096237182617
v 18.56977272033691 5.55372476577759 16.92236518859863
v 16.15665054321289 12.01654434204102 -16.92236518859863
v -6.36365795135498 8.96902561187744 -23.53702545166016
v 0 -4.90582036972046 -27.38096237182617
v -19.46140289306641 3.54586219787598 -16.92236518859863
v -17.07770347595215 7.18993854522705 16.92236518859863
v 16.92236518859863 15.93906688690186 0
v -8.15781688690186 18.46649551391602 0
v -16.92236518859863 -15.36441802978516 0
v 16.92236518859863 -15.36441802978516 0
# 12 vertices

vn -0.3574720621109 0.93174684047699 -0.06373035162687
vn 0.18046146631241 0.98353940248489 -0.0091587593779
vn 0.05828093737364 0.94684267044067 0.31637358665466
vn 0 0 0
vn 0.53851354122162 0.7405201792717 0.40203619003296
vn 0.9963493347168 0.06139799952507 -0.05931525304914
vn 0.96167677640915 -0.10492923855782 -0.25331324338913
vn 0.99751913547516 0.02161625772715 -0.06699518114328
vn -0.16570447385311 0.93026441335678 -0.32733792066574
vn -0.06628458201885 0.97268491983414 -0.22246438264847
vn -0.66805726289749 0.71984922885895 -0.18845854699612
vn -0.65579795837402 0.74035239219666 0.14767330884933
vn 0 -0.93417233228683 0.35682210326195
vn 0.58439773321152 -0.27368012070656 0.76392304897308
vn 0.62242841720581 -0.52130389213562 0.58380228281021
vn 0.91753113269806 -0.19018210470676 -0.34923824667931
vn 0.73584878444672 -0.34098720550537 -0.58502507209778
vn 0 -0.93417233228683 -0.35682210326195
vn -0.56571877002716 -0.5907683968544 -0.57528680562973
vn -0.99493014812469 -0.06465066224337 0.07703434675932
vn -0.62199848890305 -0.23138229548931 0.7480508685112
vn -0.67542791366577 -0.44553682208061 0.5876173377037
vn -0.52225768566132 0 0.852787733078
vn 0.49072808027267 0 0.87131279706955
vn 0.21945837140083 0.35266682505608 -0.90965056419373
vn -0.46166515350342 0.03383247926831 -0.88640886545181
# 26 normals

vt 0 1 0
vt 1 1 0
vt 0.5 0 0
# 3 texture coordinates

o Platonic
usemtl Mat.2
f 1/3/3 9/2/2 10/1/1
f 1/3/3 3/2/5 9/1/2
f 3/3/8 4/2/7 9/1/6
f 4/3/10 5/2/9 9/1/2
f 5/3/9 10/2/1 9/1/2
f 7/3/11 10/2/1 5/1/9
f 8/3/12 10/2/1 7/1/11
f 8/3/12 1/2/3 10/1/1
f 2/3/13 11/2/13 12/1/13
f 2/3/14 12/2/15 3/1/14
f 12/3/16 4/2/7 3/1/8
f 12/3/16 6/2/17 4/1/7
f 12/3/18 11/2/18 6/1/18
f 11/3/19 7/2/19 6/1/19
f 11/3/20 8/2/20 7/1/20
f 11/3/22 2/2/21 8/1/21
f 1/3/23 8/2/21 2/1/21
f 1/3/24 2/2/14 3/1/14
f 4/3/25 6/2/25 5/1/25
f 6/3/26 7/2/26 5/1/26

