<svg xmlns="http://www.w3.org/2000/svg" viewBox="0 0 205.4 149.27" width="205.4" height="149.27"><defs><style>.cls-1{fill:#764c2e;}.cls-2{fill:#fadcbc;}</style></defs><title>head_elf_hair9</title><g id="Layer_2" data-name="Layer 2"><g id="ART"><path class="cls-1" d="M42.73,82A19.63,19.63,0,0,1,15,109.75Z"/><path class="cls-1" d="M36.56,98.75a19.63,19.63,0,0,1,0,39.26Z"/><path class="cls-1" d="M162.67,82a19.63,19.63,0,0,0,27.76,27.76Z"/><path class="cls-1" d="M168.84,98.75a19.63,19.63,0,0,0,0,39.26Z"/><path class="cls-2" d="M201.54,22.51,163.37,60.67A19.75,19.75,0,1,0,191.31,88.6C215.14,64.76,201.54,22.51,201.54,22.51Z"/><path class="cls-2" d="M42,60.67,3.86,22.51S-9.74,64.76,14.1,88.6A19.75,19.75,0,0,0,42,60.67Z"/><circle class="cls-2" cx="102.7" cy="74.64" r="74.64"/><path class="cls-1" d="M102.7,0h0A74.3,74.3,0,0,0,65.27,10.07a20.06,20.06,0,0,0,17.35,10l-8.31,8.31a20.07,20.07,0,0,0,28.39,0V40.16a20.08,20.08,0,0,0,20.08-20.08l8.32,8.31A20,20,0,0,0,135.91,7.8,74.31,74.31,0,0,0,102.7,0Z"/></g></g></svg>