<svg xmlns="http://www.w3.org/2000/svg" viewBox="0 0 205.4 162.92" width="205.4" height="162.92"><defs><style>.cls-1{fill:#332e2e;}.cls-2{fill:#e0bb95;}</style></defs><title>head_elf_hair1</title><g id="Layer_2" data-name="Layer 2"><g id="ART"><path class="cls-1" d="M57.47,97.86a41,41,0,0,0-41,41A41,41,0,0,0,57.47,97.86Z"/><path class="cls-1" d="M147.93,97.86a41,41,0,0,1,41,41A41,41,0,0,1,147.93,97.86Z"/><path class="cls-1" d="M14.42,88.28a88.28,88.28,0,1,1,176.56,0Z"/><path class="cls-2" d="M201.54,36.15,163.37,74.32a19.75,19.75,0,1,0,27.93,27.92C215.14,78.41,201.54,36.15,201.54,36.15Z"/><path class="cls-2" d="M3.86,36.15S-9.74,78.41,14.1,102.24A19.75,19.75,0,0,0,42,74.32Z"/><circle class="cls-2" cx="102.7" cy="88.28" r="74.64"/><path class="cls-1" d="M147.93,45.23a45.23,45.23,0,0,0-90.46,0H74.29A14.21,14.21,0,0,0,88.5,31h0a14.21,14.21,0,0,0,14.2,14.21h0A14.2,14.2,0,0,0,116.9,31h0a14.21,14.21,0,0,0,14.21,14.21Z"/></g></g></svg>