<svg width="29" height="30" fill="none" xmlns="http://www.w3.org/2000/svg"><path fill-rule="evenodd" clip-rule="evenodd" d="M8.226 0l.313.028 19.857 1.796.568-.41v21.851l-.333.26-.21.164-.002.015-.016-.002-7.526 5.865-.303-.389-1.657-.188-17.402-1.982-.503.363-.33-.458-.377-.043v-.48L0 25.969l.305-.22V6.14l-.293-.421L7.967.179 8.226 0zm12.42 27.553l5.25-4.09-5.25-.501v4.591zm6.588-5.7V4.796l-6.584 4.75-.003-.004v11.682l6.587.629zM19.647 8.137l6.61-4.77-16.93-1.53v5.227l10.32 1.073zM7.597 2.546v4.338L2.175 6.32l5.422-3.774zm0 17.94V8.624l-5.562-.578V24.5l5.562-4.013zm11.32 6.763L3.599 25.505l5.105-3.684 10.213.976v4.452zm-9.59-7.106l9.59.916V9.8l-9.59-.997v11.34z" fill="#D8DDE2"/></svg>