<svg width="30" height="33" viewBox="0 0 30 33" fill="none" xmlns="http://www.w3.org/2000/svg">
<rect x="23.7129" y="18" width="3" height="14.7128" transform="rotate(90 23.7129 18)" fill="white"/>
<path fill-rule="evenodd" clip-rule="evenodd" d="M2.40453 0.926758L0.0957031 2.84283L6.44417 10.4926C4.30254 12.8819 3 16.0389 3 19.5001C3 26.9559 9.04416 33.0001 16.5 33.0001C23.9558 33.0001 30 26.9559 30 19.5001C30 12.0442 23.9558 6.00005 16.5 6.00005C13.5867 6.00005 10.8889 6.92289 8.68298 8.49218L2.40453 0.926758ZM27 19.5001C27 25.299 22.299 30.0001 16.5 30.0001C10.701 30.0001 6 25.299 6 19.5001C6 13.7011 10.701 9.00005 16.5 9.00005C22.299 9.00005 27 13.7011 27 19.5001Z" fill="white"/>
</svg>
