<svg xmlns="http://www.w3.org/2000/svg" xmlns:xlink="http://www.w3.org/1999/xlink" viewBox="-10 0 125.87 112.98"><defs><style>.cls-1{fill:#ffb1b1;}.cls-2{fill:#fadcbc;stroke:#fadcbc;}.cls-3{fill:#fff;}.cls-4{fill:#332f2e;}.cls-10,.cls-11,.cls-12,.cls-16,.cls-5,.cls-9{fill:none;}.cls-5{stroke:#30a658;}.cls-10,.cls-11,.cls-12,.cls-14,.cls-5,.cls-6,.cls-9{stroke-miterlimit:10;}.cls-10,.cls-11,.cls-12,.cls-5,.cls-9{stroke-width:5px;}.cls-6,.cls-8{fill:#f9d232;}.cls-6{stroke:#f33;stroke-width:3px;}.cls-14,.cls-6,.cls-9{stroke-linecap:round;}.cls-7{fill:#f33;}.cls-9{stroke:#7eb7f2;}.cls-10,.cls-11,.cls-12{stroke:#b5d5f5;}.cls-11{stroke-dasharray:6.11 1.53;}.cls-12{stroke-dasharray:6.06 1.52;}.cls-13,.cls-14{fill:#7000ff;}.cls-14{stroke:#332f2e;stroke-width:8px;}.cls-14,.cls-17{opacity:0.15;}.cls-15{isolation:isolate;}.cls-17{fill:#231f20;mix-blend-mode:multiply;}.cls-18{fill:#212121;}.cls-19{fill:#f9ce1d;}</style><symbol id="New_Symbol_46" data-name="New Symbol 46" viewBox="0 0 209.78 274.74"><path class="cls-1" d="M73.33,131.76a20.89,20.89,0,1,1-20.9-20.38C64,111.38,73.33,120.52,73.33,131.76Z"/><path class="cls-1" d="M209.77,131.76a20.89,20.89,0,1,1-20.88-20.38A20.65,20.65,0,0,1,209.77,131.76Z"/><path class="cls-2" d="M47,141.08a73.71,73.71,0,0,1,147.42,0v73.71H47Z"/><path class="cls-3" d="M196.37,209.82a13,13,0,0,0,12.55-14.22l-.08-.88a68.71,68.71,0,0,0-67.75-57.35H0a135,135,0,0,0,5.58,38.51,62.21,62.21,0,0,0,9.79,19.29l1,1.32a27.49,27.49,0,0,0,21.19,11l9,.29,1.41,4A13.1,13.1,0,0,0,38.59,232l0,0a139.83,139.83,0,0,0,18.74,16.17s0,0,0,0A139.14,139.14,0,0,0,70,256.28a141.86,141.86,0,0,0,70.27,18.46,2.82,2.82,0,0,0,.41,0c14.36.32,31.35-5.13,43.74-15.38,11.37-9.84,17.51-22,19.57-37.86a7.52,7.52,0,0,0-6.48-8.41,7.25,7.25,0,0,0-3.32.33c.06-1.17.09-2.34.09-3.52Z"/><path class="cls-1" d="M141.09,137.37c0,9.23-9.13,16.71-20.42,16.71s-20.42-7.48-20.42-16.71,9.13-16.71,20.42-16.71S141.09,128.13,141.09,137.37Z"/><path class="cls-4" d="M135.52,159.65a14.85,14.85,0,0,1-29.7,0Z"/><path class="cls-4" d="M91,122.5A5.57,5.57,0,1,1,85.4,117,5.6,5.6,0,0,1,91,122.5Z"/><path class="cls-4" d="M150.37,122.5A5.57,5.57,0,1,0,156,117,5.59,5.59,0,0,0,150.37,122.5Z"/><path class="cls-1" d="M141.09,137.37c0,9.23-9.13,16.71-20.42,16.71s-20.42-7.48-20.42-16.71,9.13-16.71,20.42-16.71S141.09,128.13,141.09,137.37Z"/><path class="cls-5" d="M120.52,164"/><path class="cls-5" d="M168.5,164"/><path class="cls-6" d="M187.57,111.57"/><path class="cls-6" d="M168.57,142.57"/><path class="cls-6" d="M72.07,142.57"/><path class="cls-3" d="M44.56,22.28A22.28,22.28,0,1,1,22.28,0,22.27,22.27,0,0,1,44.56,22.28Z"/><path class="cls-7" d="M54.66,22.28h-.82v89.09H194.92C194.92,62.17,132.12,22.28,54.66,22.28Z"/><path class="cls-3" d="M194.92,66.83A11.17,11.17,0,0,1,206.06,78v22.27a11.17,11.17,0,0,1-11.14,11.14H46.41a11.17,11.17,0,0,1-11.13-11.14V78A11.17,11.17,0,0,1,46.41,66.83Z"/><line class="cls-8" x1="59.53" y1="132.59" x2="45.87" y2="111.88"/><line class="cls-9" x1="59.53" y1="132.59" x2="45.87" y2="111.88"/><line class="cls-10" x1="59.53" y1="132.59" x2="57.33" y2="129.25"/><line class="cls-11" x1="56.49" y1="127.98" x2="48.5" y2="115.86"/><line class="cls-10" x1="48.08" y1="115.22" x2="45.87" y2="111.88"/><line class="cls-8" x1="62.59" y1="203.36" x2="47.28" y2="210.96"/><line class="cls-9" x1="62.59" y1="203.36" x2="47.28" y2="210.96"/><line class="cls-10" x1="62.59" y1="203.36" x2="59.01" y2="205.14"/><line class="cls-12" x1="57.65" y1="205.81" x2="51.54" y2="208.84"/><line class="cls-10" x1="50.86" y1="209.18" x2="47.28" y2="210.96"/><line class="cls-8" x1="182.01" y1="132.59" x2="195.67" y2="111.88"/><line class="cls-9" x1="182.01" y1="132.59" x2="195.67" y2="111.88"/><line class="cls-10" x1="182.01" y1="132.59" x2="184.22" y2="129.25"/><line class="cls-11" x1="185.06" y1="127.98" x2="193.05" y2="115.86"/><line class="cls-10" x1="193.47" y1="115.22" x2="195.67" y2="111.88"/><line class="cls-8" x1="178.96" y1="203.36" x2="194.27" y2="210.96"/><line class="cls-9" x1="178.96" y1="203.36" x2="194.27" y2="210.96"/><line class="cls-10" x1="178.96" y1="203.36" x2="182.54" y2="205.14"/><line class="cls-12" x1="183.9" y1="205.81" x2="190.01" y2="208.84"/><line class="cls-10" x1="190.69" y1="209.18" x2="194.27" y2="210.96"/><path class="cls-13" d="M183.23,201.4v6.78H58.1V201.4c7.71,0,11.36-57.06,0-65.47v-6.58h3.37c39.69,0,40.77-10.32,59.2-10.32s19.51,10.32,59.19,10.32h3.37v6.58C171.88,144.34,175.52,201.4,183.23,201.4Z"/><path class="cls-14" d="M87,146.27h53.89c3.75,0,5.26,3.15,2.17,4.53l-24,10.75c-3.09,1.39-1.58,4.54,2.17,4.54h29.37c3.52,0,5.17,2.84,2.53,4.35l-23.43,13.47"/></symbol></defs><title>santa-markers-mask</title><g class="cls-15"><g id="Layer_1" data-name="Layer 1"><path class="cls-16" d="M63.26,51.71h-26a8.51,8.51,0,0,1-8.52-8.52V26.32"/><path class="cls-7" d="M63.26,57.35h-26A14.17,14.17,0,0,1,23.07,43.19V26.32H34.35V43.19a2.88,2.88,0,0,0,2.88,2.88h26Z"/><path class="cls-7" d="M86.71,66.52A26.09,26.09,0,0,1,64.77,92.28,26.08,26.08,0,0,1,44.41,87l-.21-.16A26.09,26.09,0,1,1,86.71,66.52Z"/><path class="cls-17" d="M86.71,66.52A26.09,26.09,0,0,1,64.77,92.28,26.08,26.08,0,0,1,44.41,87,26.09,26.09,0,0,1,81.07,50.32,26,26,0,0,1,86.71,66.52Z"/><rect class="cls-18" x="33.69" y="66.52" width="53.18" height="8.46"/><rect class="cls-19" x="57.62" y="66.52" width="11.28" height="8.46"/><path class="cls-19" d="M29,25.46a2.12,2.12,0,0,0,2.12,2.1,6.46,6.46,0,0,0,6.45-6.44v0a2.11,2.11,0,0,0-4.21,0,2.26,2.26,0,0,1-2.25,2.24A2.1,2.1,0,0,0,29,25.46Z"/><path class="cls-19" d="M22.36,25.05A5.67,5.67,0,0,0,33.69,25V18.6a5.67,5.67,0,0,0-11.33,0l0,6.38A0,0,0,0,1,22.36,25.05Z"/><rect class="cls-3" x="20.95" y="26.32" width="15.51" height="6.35" rx="2.12"/><path class="cls-17" d="M65.29,32h0C73.38,32,80,39,80,47.11A14.84,14.84,0,0,1,65.29,62s0,.1-.05.1-.08-.36-.12-.36A29.68,29.68,0,0,1,35.2,32Z"/><use width="209.77" height="274.74" transform="translate(38.08) scale(0.21)" xlink:href="#New_Symbol_46"/></g></g></svg>