<svg xmlns="http://www.w3.org/2000/svg" width="112" height="159.9" viewBox="0 0 112 159.9"><ellipse transform="rotate(-136.122 15.468 114.54)" fill="#231F20" cx="15.5" cy="114.5" rx="21.2" ry="3.5" opacity=".2"/><path fill="#F0A42C" d="M46.8 89.6s0 .3-.1.7c-.1.4-.1.5-.2.8-.1.3-.1.6-.2.9-.2.7-.4 1.4-.7 2.3-.3.8-.7 1.7-1.1 2.6-.4 1-.9 1.9-1.4 2.9-.5 1-1.1 2-1.8 3-.6 1-1.3 2.1-2 3.1s-1.4 2-2.2 3l-1.1 1.5c-.4.5-.8.9-1.2 1.4-.8.9-1.5 1.8-2.3 2.6-.8.8-1.5 1.7-2.2 2.4l-2.1 2.1c-1.3 1.3-2.4 2.2-3.1 3-.8.7-1.2 1.1-1.2 1.1l-7-6.7.9-1.2c.6-.8 1.5-1.8 2.4-3.2l1.5-2.1c.5-.8 1.1-1.6 1.6-2.4.6-.8 1.1-1.7 1.6-2.6.3-.4.5-.9.8-1.4l.7-1.4c.5-.9 1-1.8 1.4-2.8.5-.9.8-1.8 1.2-2.7.4-.9.7-1.7.9-2.5.2-.8.5-1.5.7-2.2.2-.7.3-1.3.4-1.8.1-.5.1-.9.2-1.2v-.4-.1s0 .1 0 0v-.1l15.6 1.4z"/><path fill="#F0A42C" d="M37.7 89.9s-.1.1-.3.4c-.2.2-.5.5-.8.9-.7.7-1.6 1.7-2.8 2.8-2.3 2.2-5.3 5.1-8.4 7.9-6.1 5.6-12.3 11.1-12.3 11.1l-6.6-6.4s5.2-6.4 10.1-12.8c2.5-3.2 4.9-6.5 6.6-8.9.9-1.2 1.6-2.2 2-2.9.2-.3.4-.6.5-.8l.1-.2 11.9 8.9z"/><path fill="#F0802C" d="M76.4 108.2s-.5-.3-1.5-.8c-.4-.2-1-.6-1.7-1.1-.7-.5-1.4-1-2.1-1.7-.8-.6-1.5-1.4-2.3-2.2-.4-.4-.7-.9-1.1-1.4-.4-.5-.8-1-1.1-1.5-.7-1-1.4-2.2-2-3.3-.6-1.2-1.1-2.4-1.6-3.7-.5-1.3-.8-2.6-1.2-3.8-.2-1.3-.5-2.6-.7-3.8-.2-1.2-.2-2.4-.3-3.5-.1-1.1 0-2.2 0-3.1 0-1 .2-1.8.2-2.6.1-.8.2-1.4.3-2 .2-1.1.3-1.7.3-1.7l9.5 1.3v1.5c0 .5-.1 1-.1 1.7v2.1c0 .8 0 1.6.1 2.5 0 .9.1 1.8.2 2.7.1 1 .2 1.9.4 2.9s.4 1.9.6 2.9c.2 1 .6 1.9.9 2.8.3.9.7 1.8 1.1 2.6.3.9.8 1.7 1.2 2.4.4.8.8 1.5 1.3 2.2.2.3.4.7.6 1 .2.3.4.6.6.8.3.5.6 1 1 1.4.6.8 1 1.3 1 1.3l-3.6 4.1z"/><circle fill="#FCBE2D" cx="81.6" cy="46.8" r="20.5"/><circle fill="#FCD03F" cx="81.6" cy="46.8" r="20.5"/><path fill="#F6B12D" d="M63.3 53.6c5.8 9.8 18.9 13.1 28.7 7.3 5.9-3.5 9.4-9.6 10-16 .6 6.2-1.7 12.7-6.7 17.2-8.4 7.6-21.4 6.9-29-1.5-3.1-3.4-4.8-7.6-5.2-11.9.5 1.7 1.2 3.3 2.2 4.9z"/><path fill="#FFF" d="M85 5.4c.5 3.5-2 6.7-5.5 7.3-3.6.5-6.9-1.9-7.4-5.3-.5-3.5 2-6.7 5.5-7.3 3.6-.6 6.9 1.8 7.4 5.3z"/><path d="M72.1 7.4c.6 3.4 3.8 5.8 7.4 5.3 2.6-.4 4.6-2.2 5.3-4.5-4.2.8-8.6.5-12.7-.8z" opacity=".07"/><path fill="#DE4A3F" d="M104 52.9c3.3-8.3 5.3-16.5 5.7-23.9.7-12.7-9-19.3-23.4-21.7-1-.2-2.6.3-2.4 1.5.3 1.8-.2 4.7-4.3 7.2-6.9 4.2-8.7 14-8.8 14 13.3 5.2 24.7 13.1 33.2 22.9z"/><path d="M109.7 29c.3-5.4-1.3-9.7-4.3-13 2.9 7.1 3.8 14.1-3.8 21.5-2.6 2.6-8.7 1.2-12 2.5 5.4 3.8 10.2 8.1 14.4 12.8 3.3-8.2 5.4-16.4 5.7-23.8z" opacity=".1"/><path fill="#F6B12D" d="M66.7 33.1c13.1 4.1 24.8 11 34.4 20.2 2.2-6.7 1-14.3-4-20-7.5-8.5-20.4-9.4-29-1.9-.6.5-1.2 1.1-1.7 1.7h.3z"/><path fill="#FFF" d="M106.6 53.8c-1 1.5-2.6 1.6-3.7.4-9.3-9.9-21.3-17.9-35.1-23.1-1.7-.6-2.4-2.2-1.6-3.5 1.4-2.2 2.8-4.4 4.1-6.6.8-1.3 2.9-2 4.6-1.4C89 24.4 101.3 32.1 111 41.8c1.2 1.2 1.3 3.3.3 4.8-1.5 2.4-3.1 4.8-4.7 7.2z"/><path fill="#E58A2F" d="M72.7 71l-8.4-8.7-2.6 13.3z"/><path d="M106.6 53.8c1.6-2.4 3.2-4.8 4.8-7.3.9-1.4.8-3.6-.3-4.8-.6-.6-1.2-1.2-1.8-1.7-1.1 2.7-2.8 5.2-4.9 7.4-1.4 1.4-2.9 2.6-4.5 3.7 1 1 2.1 2 3 3.1 1.1 1.3 2.8 1.1 3.7-.4z" opacity=".07"/><g><path fill="#F0A42C" d="M36 90.8l4.6 5.6 34-24.2-9.5-10.1z"/></g><g><path fill="#FCD03F" d="M36 90.8L26.3 80l26.9-30.3 11.9 12.4z"/></g><g><path fill="#FCD03F" d="M38.1 88.9s-.4.4-1.2 1.1c-.7.7-1.7 1.6-3 2.7-2.4 2.2-5.7 5.1-9 7.9-6.6 5.7-13.2 11.1-13.2 11.1l-6.4-6.6s5.6-6.5 11.1-13c2.7-3.3 5.4-6.6 7.4-9 1-1.2 1.8-2.3 2.3-3 .5-.7.8-1.1.8-1.1l11.2 9.9z"/></g><g><path fill="#F0A42C" d="M46.4 60.8s-.1 0 0 0 .4.2.7.3c.1 0 .2 0 .3.1h.2v-.1s-.1 0-.2-.1-.3 0-.4-.1c-.3-.1-.5-.1-.6-.1-.3.1-.5.1-.8.1-.3 0-.6.1-.9.1-.6.1-1.3.3-2 .5-.7.3-1.5.5-2.3.8-.8.3-1.6.6-2.4 1l-2.4 1.2c-.8.4-1.5.9-2.3 1.3-.8.4-1.5.9-2.1 1.3-.7.4-1.3.8-1.9 1.2-2.3 1.6-3.9 2.6-3.9 2.6l-3.7-4.2s1.3-1.4 3.3-3.6l1.7-1.7c.6-.6 1.2-1.3 1.9-1.9.7-.6 1.4-1.3 2.1-2 .8-.7 1.5-1.3 2.3-2 .8-.7 1.7-1.3 2.5-1.9.8-.6 1.8-1.2 2.6-1.7l2.7-1.5c.5-.2.9-.4 1.4-.6.5-.2 1-.3 1.4-.5.4-.2.9-.3 1.4-.4.5-.1.9-.2 1.4-.3.5-.1.9-.1 1.4-.1h1.3c.5 0 .9.1 1.3.2s.8.2 1.1.3c.5.2 1 .4 1.2.5h.1l-6.4 11.3z"/></g><g><path fill="#FCD03F" d="M46.3 60.8c-.1-.1 0 0 0 0 .1 0 .2.1.2.1s.1 0 .1.1c.1 0 0 0 0-.1 0 0 0-.1-.1-.1s-.1-.1-.3-.1c-.1 0-.2-.1-.4-.1s-.4-.1-.6-.1h-1.5c-.3 0-.6 0-.9.1-.3.1-.7.1-1 .2-.4 0-.7.1-1.1.3l-1.2.3c-.8.2-1.6.6-2.4.9-.8.4-1.6.7-2.5 1.1l-2.4 1.2c-.8.4-1.5.8-2.2 1.3-.7.4-1.4.8-2 1.2-.6.4-1.1.8-1.6 1.1-.5.3-.9.6-1.2.9-.7.5-1.1.8-1.1.8l-4.5-5 1-1c.3-.3.7-.7 1.1-1.2.4-.4.9-1 1.5-1.5s1.2-1.1 1.9-1.7c.7-.6 1.4-1.3 2.2-1.9.8-.6 1.6-1.3 2.4-1.9.9-.6 1.8-1.3 2.7-1.9 1-.6 1.9-1.2 2.9-1.7.5-.3 1-.5 1.5-.8.5-.3 1-.5 1.6-.7.5-.2 1.1-.4 1.6-.6.5-.2 1.1-.3 1.6-.5.3-.1.5-.1.8-.2.3-.1.6-.1.8-.2.6-.1 1.1-.2 1.6-.3.5 0 1.1-.1 1.6-.1h1.5c.5 0 1 .1 1.4.2.4.1.9.2 1.3.3.4.1.7.2 1.1.3.2.1.3.1.5.2.1 0 .1.1.2.1.1.1.2.1.3.1.2.1.3.2.5.3.1.1.2.1.3.2h.1l-7.3 10.4z"/></g><g><path fill="#F0802C" d="M55.6 71.5l13.3-5.3-6.9-7.3z"/></g><g><ellipse transform="rotate(-136.122 33.143 132.118)" fill="#231F20" cx="33.1" cy="132.1" rx="8.9" ry="3.5" opacity=".2"/><ellipse transform="rotate(-136.122 55.06 153.194)" fill="#231F20" cx="55.1" cy="153.2" rx="8.9" ry="3.5" opacity=".2"/><circle fill="#80431D" cx="83.9" cy="100.4" r="14.7"/><path fill="#80431D" d="M56.2 131.2L54 129c-3.3-3.2-3.4-8.4-.2-11.7l12.3-12.8c3.2-3.3 8.4-3.4 11.7-.2l2.2 2.1c3.3 3.2 3.4 8.4.2 11.7l-12.3 12.8c-3.2 3.3-8.4 3.4-11.7.3z"/><path fill="#80431D" d="M91.8 125.7c-5 0-11.6-1.8-18.6-8.5-1.6-1.6-1.7-4.1-.1-5.8 1.6-1.6 4.1-1.7 5.8-.1 9.9 9.5 17.7 5.3 18.1 5.1 1.9-1.1 4.4-.5 5.6 1.4 1.1 1.9.5 4.5-1.5 5.6-.4.3-3.9 2.3-9.3 2.3z"/><path fill="#80431D" d="M73.3 113c-1 0-2-.4-2.8-1.1-9.9-9.5-17.7-5.3-18.1-5.1-1.9 1.1-4.4.5-5.6-1.4-1.1-1.9-.5-4.5 1.5-5.6.5-.3 13.4-7.7 27.8 6.3 1.6 1.6 1.7 4.1.1 5.8-.7.7-1.8 1.1-2.9 1.1zM34.7 134.4c-.2 0-.5 0-.7-.1-2.2-.4-3.7-2.5-3.3-4.7 1.3-7.3 7-6.4 9.2-6 3.2.5 7.1 1.1 13.8-5.8 1.6-1.6 4.2-1.6 5.8-.1 1.6 1.6 1.6 4.2.1 5.8-9.7 9.9-17 8.7-20.9 8.1-.7 1.7-2.2 2.8-4 2.8zM55.9 154.7c-1.9 0-3.6-1.3-4-3.2-.4-2 .7-4 2.5-4.7-.8-3.9-2.2-11.1 7.3-21.2 1.5-1.6 4.1-1.7 5.8-.2 1.6 1.5 1.7 4.1.2 5.8-6.6 7-5.8 10.9-5.2 14 .4 2.1 1.5 7.8-5.7 9.4-.4.1-.6.1-.9.1z"/><circle fill="#80431D" cx="83.9" cy="100.9" r="2"/><circle fill="#80431D" cx="78.2" cy="106.8" r="1.3"/><circle fill="#80431D" cx="72.6" cy="112.6" r="1.3"/><circle fill="#80431D" cx="66.9" cy="118.5" r="1.3"/><circle fill="#80431D" cx="61.3" cy="124.4" r="1.3"/><circle fill="#80431D" cx="89.7" cy="100.8" r="1.3"/><circle fill="#80431D" cx="83.8" cy="95.1" r="1.3"/><g><circle fill="#A56D3F" cx="85.7" cy="102.1" r="14.7"/><path fill="#A56D3F" d="M58 132.9l-2.2-2.1c-3.3-3.2-3.4-8.4-.2-11.7l12.3-12.8c3.2-3.3 8.4-3.4 11.7-.2l2.2 2.1c3.3 3.2 3.4 8.4.2 11.7l-12.3 12.8c-3.2 3.2-8.4 3.3-11.7.2z"/><path fill="#A56D3F" d="M75.1 114.7c-1 0-2-.4-2.8-1.1-9.9-9.5-17.7-5.3-18.1-5.1-1.9 1.1-4.4.5-5.6-1.4-1.1-1.9-.5-4.5 1.5-5.6.5-.3 13.4-7.7 27.8 6.3 1.6 1.6 1.7 4.1.1 5.8-.8.7-1.8 1.1-2.9 1.1z"/><path fill="#A56D3F" d="M92.9 126.8c-5 0-11.6-1.8-18.6-8.5-1.6-1.6-1.7-4.1-.1-5.8 1.6-1.6 4.1-1.7 5.8-.1 10.1 9.7 17.9 5.2 18 5.1 1.9-1.1 4.4-.5 5.6 1.4s.5 4.4-1.4 5.6c-.3.3-3.9 2.3-9.3 2.3zM36.5 136.1c-.2 0-.5 0-.7-.1-2.2-.4-3.7-2.5-3.3-4.7 1.3-7.3 7-6.4 9.2-6 3.2.5 7.1 1.1 13.8-5.8 1.6-1.6 4.2-1.6 5.8-.1 1.6 1.6 1.6 4.2.1 5.8-9.7 9.9-17 8.7-20.9 8.1-.7 1.7-2.3 2.8-4 2.8zM57.6 156.4c-1.9 0-3.6-1.3-4-3.2-.4-2 .7-4 2.5-4.7-.8-3.9-2.2-11.1 7.3-21.2 1.5-1.6 4.1-1.7 5.8-.2 1.6 1.5 1.7 4.1.2 5.8-6.6 7-5.8 10.9-5.2 14 .4 2.1 1.5 7.8-5.7 9.4-.3.1-.6.1-.9.1z"/><circle fill="#E53935" cx="85.7" cy="102.6" r="2"/><path fill="#333" d="M83.8 108.1c-.4.4-3.5 1.4-4.8.1-1.4-1.3-.5-4.5-.1-4.8l4.9 4.7z"/><circle fill="#EC407A" cx="74.4" cy="114.3" r="1.3"/><circle fill="#F38620" cx="68.7" cy="120.2" r="1.3"/><circle fill="#24B0E6" cx="63.1" cy="126.1" r="1.3"/><circle fill="#FFF" cx="91.4" cy="102.5" r="1.3"/><circle fill="#FFF" cx="85.5" cy="96.8" r="1.3"/><path fill="#FFF" d="M98.6 127.2h-.2c-.3-.1-.5-.4-.4-.8l.3-1.2c.2-.5 0-1.1-.4-1.5-.7-.7-.9-1.8-.6-2.7.2-.5 0-1.1-.4-1.5l-.9-.9c-.2-.2-.2-.6 0-.9.2-.2.6-.2.9 0l.9.9c.7.7.9 1.8.6 2.7-.2.5 0 1.1.4 1.5.7.7.9 1.8.6 2.7l-.3 1.2c0 .4-.3.5-.5.5zM95.5 128h-.2c-.3-.1-.5-.4-.4-.8l.3-1.2c.2-.5 0-1.1-.4-1.5-.7-.7-.9-1.8-.6-2.7.2-.5 0-1.1-.4-1.5l-.9-.9c-.2-.2-.2-.6 0-.9.2-.2.6-.2.9 0l.9.9c.7.7.9 1.8.6 2.7-.2.5 0 1.1.4 1.5.7.7.9 1.8.6 2.7l-.3 1.2c0 .3-.2.5-.5.5zM56.1 108.9c-.2 0-.3-.1-.4-.2l-.9-.9c-.7-.7-.9-1.8-.6-2.7.2-.5 0-1.1-.4-1.5-.7-.7-.9-1.8-.6-2.7l.3-1.2c.1-.3.4-.5.8-.4.3.1.5.4.4.8l-.3 1.2c-.2.5 0 1.1.4 1.5.7.7.9 1.8.6 2.7-.2.5 0 1.1.4 1.5l.9.9c.2.2.2.6 0 .9-.3 0-.5.1-.6.1zM59.1 108.1c-.2 0-.3-.1-.4-.2l-.9-.9c-.7-.7-.9-1.8-.6-2.7.2-.5 0-1.1-.4-1.5-.7-.7-.9-1.8-.6-2.7l.3-1.2c.1-.3.4-.5.8-.4.3.1.5.4.4.8l-.3 1.2c-.2.5 0 1.1.4 1.5.7.7.9 1.8.6 2.7-.2.5 0 1.1.4 1.5l.9.9c.2.2.2.6 0 .9-.3.1-.4.1-.6.1zM41.1 134.4c-.2 0-.4-.1-.5-.3L40 133c-.4-.9-.4-1.9.1-2.8.3-.5.3-1.1.1-1.6-.4-.9-.4-1.9.1-2.8l.7-1.1c.2-.3.6-.4.8-.2.3.2.4.6.2.8l-.7 1.1c-.3.5-.3 1.1-.1 1.6.4.9.4 1.9-.1 2.8-.3.5-.3 1.1-.1 1.6l.6 1.1c.2.3 0 .7-.3.8 0 .1-.1.1-.2.1zM44.3 134.6c-.2 0-.4-.1-.5-.3l-.6-1.1c-.4-.9-.4-1.9.1-2.8.3-.5.3-1.1.1-1.6-.4-.9-.4-1.9.1-2.8l.7-1.1c.2-.3.6-.4.8-.2.3.2.4.6.2.8l-.7 1.1c-.3.5-.3 1.1-.1 1.6.4.9.4 1.9-.1 2.8-.3.5-.3 1.1-.1 1.6l.6 1.1c.2.3 0 .7-.3.8-.1 0-.1.1-.2.1z"/><g><path fill="#FFF" d="M58 148.1c-.4 0-.8-.1-1.2-.3l-1.1-.5c-.3-.1-.4-.5-.3-.8.1-.3.5-.4.8-.3l1.1.5c.5.2 1.1.2 1.6-.1.8-.6 1.9-.6 2.8-.2.5.2 1.1.2 1.6-.1l1-.7c.3-.2.7-.1.9.2.2.3.1.7-.2.9l-1 .7c-.8.6-1.9.6-2.8.2-.5-.2-1.1-.2-1.6.1-.5.2-1.1.4-1.6.4zM57.7 144.9c-.4 0-.8-.1-1.2-.3l-1.1-.5c-.3-.1-.4-.5-.3-.8.1-.3.5-.4.8-.3l1.1.5c.5.2 1.1.2 1.6-.1.8-.6 1.9-.6 2.8-.2.5.2 1.1.2 1.6-.1l1-.7c.3-.2.7-.1.9.2.2.3.1.7-.2.9l-1 .7c-.8.6-1.9.6-2.8.2-.5-.2-1.1-.2-1.6.1-.5.3-1 .4-1.6.4z"/></g></g><g><path fill="#048F48" d="M81.4 85.8c7.5 9.4 16.7 15.1 18.2 12.1 1.5-2.8-2.7-18.4-2.7-18.4s-5.4 3-15.5 6.3z"/></g><g><path fill="#0A713B" d="M97 79.5s-5.4 3-15.6 6.3c.5.6.9 1.1 1.4 1.7 7.6-2.6 12.7-4.9 14.7-5.9-.3-1.3-.5-2.1-.5-2.1z"/></g><g><path fill="#FFF" d="M98.8 99.3c-4.7 0-12.3-5.1-18.4-12.8-.4-.5-.3-1.3.2-1.7.5-.4 1.3-.3 1.7.2 7.7 9.6 15.5 12.7 17.5 11.6.6-.3 1.3-.1 1.7.5.3.6.1 1.3-.5 1.7-.6.4-1.4.5-2.2.5z"/></g><g><circle fill="#FFF" cx="96.7" cy="79.3" r="2.3"/></g></g></svg>