<svg xmlns="http://www.w3.org/2000/svg" xmlns:xlink="http://www.w3.org/1999/xlink" viewBox="0 0 232.7 233.5"><path d="M208 29.4C192.2 13.7 171.2 5 148.9 5h-.2c-22.4.1-43.4 8.8-59.2 24.7-30.8 31-32.4 80.2-4.7 113l-13 13 5.2 5.2-10.5-10.4L5 212.7l21 20.8 61.6-62.1-5.2-5.2 12.9-13c15 12.6 33.8 19.4 53.6 19.4h.2c22.4-.1 43.4-8.8 59.2-24.7 32.6-32.8 32.5-85.9-.3-118.5z" fill="#010101" opacity=".25"/><path d="M203 24.4C187.2 8.7 166.2 0 143.9 0h-.2c-22.4.1-43.4 8.8-59.2 24.7-30.8 31-32.4 80.2-4.7 113l-13 13 5.2 5.2-10.5-10.4L0 207.7l21 20.8 61.6-62.1-5.2-5.2 12.9-13c15 12.6 33.8 19.4 53.6 19.4h.2c22.4-.1 43.4-8.8 59.2-24.7 32.6-32.8 32.5-85.9-.3-118.5z" fill="#304c53"/><g><circle cx="144.8" cy="83.5" r="75.6" fill="#21a5d8" stroke="#000" stroke-miterlimit="10"/><defs><circle id="a" cx="144.6" cy="83.1" r="76.4"/></defs><clipPath id="b"><use xlink:href="#a" overflow="visible"/></clipPath><g clip-path="url(#b)"><g opacity=".2"><defs><path id="c" d="M18.5 412.6h248.7v21.3H18.5z"/></defs><clipPath id="d"><use xlink:href="#c" overflow="visible"/></clipPath><g clip-path="url(#d)"><defs><path id="e" d="M18.5 412.6h248.6v21.3H18.5z"/></defs><clipPath id="f"><use xlink:href="#e" overflow="visible"/></clipPath><path d="M18.5 423.3c0 5.9 55.7 10.7 124.3 10.7s124.3-4.8 124.3-10.7c0-5.9-55.7-10.7-124.3-10.7s-124.3 4.8-124.3 10.7" clip-path="url(#f)" fill="#231f20"/></g></g><path d="M142.7 182.9h87.4c26.2 0 47.5-21.3 47.5-47.6V78.7h-37.9v56.6c0 5.3-4.3 9.7-9.7 9.7h-87.4v37.9z" fill="#e63b35"/><g opacity=".15"><defs><path id="g" d="M142.7 123.5h135v59.4h-135z"/></defs><clipPath id="h"><use xlink:href="#g" overflow="visible"/></clipPath><g clip-path="url(#h)"><defs><path id="i" d="M142.7 123.5h135v59.4h-135z"/></defs><clipPath id="j"><use xlink:href="#i" overflow="visible"/></clipPath><path d="M277.7 123.5v11.8c0 26.2-21.3 47.6-47.6 47.6h-87.4v-11.8h87.4c26.2 0 47.6-21.3 47.6-47.6" clip-path="url(#j)" fill="#231f20"/></g></g><path d="M13.6 167.9c0 36.8 29.9 66.7 66.7 66.7 36.8 0 66.7-29.9 66.7-66.7s-29.9-66.7-66.7-66.7c-36.8 0-66.7 29.9-66.7 66.7" fill="#8e6f64"/><g opacity=".2"><defs><path id="k" d="M13.6 103.8H147v130.9H13.6z"/></defs><clipPath id="l"><use xlink:href="#k" overflow="visible"/></clipPath><g clip-path="url(#l)"><defs><path id="m" d="M13.6 103.8H147v130.9H13.6z"/></defs><clipPath id="n"><use xlink:href="#m" overflow="visible"/></clipPath><path d="M62.2 103.8c-21.7 8.3-37.1 29.1-37.1 53.5 0 31.7 26 57.3 58 57.3 32.1 0 58-25.7 58-57.3 0-12.8-4.3-24.6-11.4-34.2 10.8 11.8 17.3 27.6 17.3 44.9 0 36.8-29.9 66.7-66.7 66.7-36.8 0-66.7-29.9-66.7-66.7 0-30.6 20.6-56.3 48.6-64.2" clip-path="url(#n)" fill="#231f20"/></g></g><path fill="#e63b35" d="M148.6 277.7h49.7v65.1h-49.7z"/><path d="M198.3 364.1V389c19 0 34.3 15.4 34.3 34.3h-84v-59.2h49.7z" fill="#212121"/><path fill="#FFF" d="M148.6 342.8h49.7v21.3h-49.7z"/><path fill="#e63b35" d="M87 277.7h49.7v65.1H87z"/><path d="M87 364.1V389c-19 0-34.3 15.4-34.3 34.3h84v-59.2H87z" fill="#212121"/><path fill="#FFF" d="M87 342.8h49.7v21.3H87z"/><path d="M53.9 213.7c0 48.4 39.2 87.6 87.6 87.6s87.6-39.2 87.6-87.6-39.2-87.6-87.6-87.6-87.6 39.2-87.6 87.6" fill="#e63b35"/><path fill="#212121" d="M53.9 213.7h175.2v28.4H53.9z"/><path fill="#f9ce20" d="M123.8 213.7h37.9v28.4h-37.9z"/><g opacity=".15"><defs><path id="o" d="M53.9 132.2h137.4v169.2H53.9z"/></defs><clipPath id="p"><use xlink:href="#o" overflow="visible"/></clipPath><g clip-path="url(#p)"><defs><path id="q" d="M53.9 132.2h137.4v169.2H53.9z"/></defs><clipPath id="r"><use xlink:href="#q" overflow="visible"/></clipPath><path d="M109.5 132.2c-22.8 15.8-37.8 42.2-37.8 72.1 0 48.4 39.2 87.6 87.6 87.6 11.3 0 22.1-2.2 32-6.1-14.1 9.8-31.3 15.5-49.8 15.5-48.4 0-87.6-39.2-87.6-87.6 0-37.1 23-68.7 55.6-81.5" clip-path="url(#r)" fill="#231f20"/></g></g><path d="M172.9 85.8c0 7.2 6 13 13.3 13 7.3 0 13.3-5.8 13.3-13s-6-13-13.3-13c-7.3 0-13.3 5.8-13.3 13M85.9 85.8c0 7.2 6 13 13.3 13 7.4 0 13.3-5.8 13.3-13s-6-13-13.3-13c-7.4 0-13.3 5.8-13.3 13" fill="#ee9a9b"/><path d="M191.2 16c0 7.8 6.4 14.2 14.2 14.2 7.9 0 14.2-6.4 14.2-14.2 0-7.9-6.4-14.2-14.2-14.2-7.8 0-14.2 6.3-14.2 14.2" fill="#FFF"/><path d="M257.9 75.9c0 3.9-3.2 7-7.1 7-12 0-21.7-9.7-21.7-21.6 0-3.9 3.2-7 7.1-7 3.9 0 7.1 3.2 7.1 7.1 0 4.1 3.4 7.5 7.6 7.5 3.8-.1 7 3 7 7 0-.1 0 0 0 0" fill="#f9ce20"/><path d="M280 74.5c-.1 10.5-8.6 18.9-19 18.9-10.5 0-19-8.5-19-19V53v-.1c.1-10.5 8.6-18.9 19-18.9 10.5 0 19 8.5 19 19v21.5c0-.1 0-.1 0 0" fill="#f9ce20"/><path d="M239.8 78.7c-3.9 0-7.1 3.2-7.1 7.1v7.1c0 3.9 3.2 7.1 7.1 7.1h37.9c3.9 0 7.1-3.2 7.1-7.1v-7.1c0-3.9-3.2-7.1-7.1-7.1h-37.9z" fill="#FFF"/><path fill="none" stroke="#e63b35" stroke-width="42.626" stroke-linecap="round" stroke-linejoin="round" stroke-miterlimit="10" d="M66.9 153.3l-23.7 52.1"/><path d="M142.7 44.4c26.2 0 47.4 21.2 47.4 47.4v47.4H95.3V91.8c0-26.2 21.2-47.4 47.4-47.4" fill="#f7caae"/><g opacity=".15"><defs><path id="s" d="M74 100.1h133.8v87.6H74z"/></defs><clipPath id="t"><use xlink:href="#s" overflow="visible"/></clipPath><g clip-path="url(#t)"><defs><path id="u" d="M74 100.1h133.8v87.6H74z"/></defs><clipPath id="v"><use xlink:href="#u" overflow="visible"/></clipPath><path d="M117.8 100.1h90c0 48.4-40.1 87.6-89.5 87.6h-.6c-24.2 0-43.8-19.6-43.8-43.8.1-24.2 19.7-43.8 43.9-43.8" clip-path="url(#v)" fill="#231f20"/></g></g><path d="M129.7 89.4h90c0 48.4-40.1 87.6-89.5 87.6h-.6c-24.2 0-43.8-19.6-43.8-43.8.1-24.2 19.7-43.8 43.9-43.8" fill="#FFF"/><path d="M129.7 89.4c0 5.9 5.8 10.7 13 10.7s13-4.8 13-10.7c0-5.9-5.8-10.7-13-10.7s-13 4.8-13 10.7" fill="#ee9a9b"/><path d="M133.2 103.6c0 5.2 4.2 9.5 9.5 9.5 5.2 0 9.5-4.2 9.5-9.5h-19z" fill="#212121"/><path d="M43.2 153.3c0 13.7 11.1 24.9 24.9 24.9S93 167.1 93 153.3c0-13.7-11.1-24.9-24.9-24.9s-24.9 11.2-24.9 24.9" fill="#f9ce20"/><path fill="#8e6f64" d="M73 155.3l22 15.9-18.9 15.9-9.8-26.9z"/><path d="M184.8 16h.5v56.8h-90c0-31.4 40.1-56.8 89.5-56.8" fill="#e63b35"/><path d="M95.3 44.4c-3.9 0-7.1 3.2-7.1 7.1v14.2c0 3.9 3.2 7.1 7.1 7.1H190c3.9 0 7.1-3.2 7.1-7.1V51.5c0-3.9-3.2-7.1-7.1-7.1H95.3z" fill="#FFF"/><path d="M161.6 79.9c0 2 1.6 3.6 3.6 3.6s3.6-1.6 3.6-3.6c0-1.9-1.6-3.5-3.6-3.5s-3.6 1.6-3.6 3.5M123.8 79.9c0 2-1.6 3.6-3.6 3.6s-3.5-1.6-3.5-3.6c0-1.9 1.6-3.5 3.5-3.5 2 0 3.6 1.6 3.6 3.5" fill="#212121"/></g><g><circle cx="143.9" cy="83.8" r="76.4" opacity=".25" fill="#44b3e6"/><circle cx="143.9" cy="83.8" r="76.4" opacity=".15" fill="#99dbf7"/><path d="M89.4 86.4c7.1-18.7 15.6-32.6 29.7-45.2-4.9-3.3-7.7-4.2-15.5-4.8A93.86 93.86 0 0 0 80.5 86l8.9.4z" opacity=".25" fill="#FFF"/><circle cx="143.9" cy="83.8" r="76.4" fill="none" stroke="#465e83" stroke-width="14.76" stroke-miterlimit="10"/><path fill="none" stroke="#465e83" stroke-width="14.76" stroke-miterlimit="10" d="M90 137.9L72.1 156"/><path fill="none" stroke="#304c53" stroke-width="29.521" stroke-miterlimit="10" d="M72.1 156l-61.6 62.1"/></g></g></svg>