<svg xmlns="http://www.w3.org/2000/svg" xmlns:xlink="http://www.w3.org/1999/xlink" width="232.7" height="233.5" viewBox="0 0 232.7 233.5"><path d="M208 29.4C192.2 13.7 171.2 5 148.9 5h-.2c-22.4.1-43.4 8.8-59.2 24.7-30.8 31-32.4 80.2-4.7 113l-13 13 5.2 5.2-10.5-10.4L5 212.7l21 20.8 61.6-62.1-5.2-5.2 12.9-13c15 12.6 33.8 19.4 53.6 19.4h.2c22.4-.1 43.4-8.8 59.2-24.7 32.6-32.8 32.5-85.9-.3-118.5z" opacity=".25"/><path fill="#2F4C52" d="M203 24.4C187.2 8.7 166.2 0 143.9 0h-.2c-22.4.1-43.4 8.8-59.2 24.7-30.8 31-32.4 80.2-4.7 113l-13 13 5.2 5.2-10.5-10.4L0 207.7l21 20.8 61.6-62.1-5.2-5.2 12.9-13c15 12.6 33.8 19.4 53.6 19.4h.2c22.4-.1 43.4-8.8 59.2-24.7 32.6-32.8 32.5-85.9-.3-118.5z"/><defs><circle id="a" cx="144.6" cy="83.8" r="82.5"/></defs><clipPath id="b"><use xlink:href="#a" overflow="visible"/></clipPath><g clip-path="url(#b)"><circle fill="#29B6F6" cx="144.6" cy="83.8" r="82.5"/></g><g opacity=".6" clip-path="url(#b)"><defs><path id="c" d="M231.2 4.1s19 11.2 29 8.5c7.6-2.1 14.9-20.1 4.6-26.4-6.4-3.9-24.3-3.3-24.3-3.3l-9.3 21.2z"/></defs><use xlink:href="#c" overflow="visible" fill="#FFF"/><clipPath id="d"><use xlink:href="#c" overflow="visible"/></clipPath><g clip-path="url(#d)"><path fill="#BBE5FA" d="M228.7 15.3s19 11.2 29 8.5c7.6-2.1 14.9-20.1 4.6-26.4-6.4-3.9-24.3-3.2-24.3-3.2l-9.3 21.1z"/></g><path fill="#022289" d="M226.8-.5s14.3 8.4 21.7 6.4c5.7-1.6 11.2-15.1 3.5-19.8-4.8-2.9-18.3-2.5-18.3-2.5L226.8-.5z"/><defs><path id="e" d="M211.6-11.2s13.6 17.4 23.9 18.5c7.8.9 21.2-13.3 13.9-22.9-4.6-6-21.5-11.9-21.5-11.9l-16.3 16.3z"/></defs><use xlink:href="#e" overflow="visible" fill="#FFF"/><clipPath id="f"><use xlink:href="#e" overflow="visible"/></clipPath><g clip-path="url(#f)"><path fill="#BBE5FA" d="M209.1 1.2s13.6 17.4 23.9 18.5c7.8.9 21.2-13.3 13.9-22.9-4.6-6-21.5-11.9-21.5-11.9L209.1 1.2z"/></g><g><defs><path id="g" d="M196.7-23.6s13.6 17.4 23.9 18.5c7.8.9 21.2-13.3 13.9-22.9-4.6-6-21.5-11.9-21.5-11.9l-16.3 16.3z"/></defs><use xlink:href="#g" overflow="visible" fill="#FFF"/><clipPath id="h"><use xlink:href="#g" overflow="visible"/></clipPath><g clip-path="url(#h)"><path fill="#BBE5FA" d="M194.2-11.2s13.6 17.4 23.9 18.5c7.8.8 21.2-13.3 13.9-22.9-4.6-6-21.5-11.9-21.5-11.9l-16.3 16.3z"/></g></g><g><path fill="#6A1B9A" d="M333.5 95.6c0 34.3-79.7 61.6-177.7 61.6S-21.9 128.9-21.9 94.6V75h355.2l.2 20.6z"/></g><g><ellipse fill="#AB47BC" cx="156.1" cy="73.5" rx="177.4" ry="62.1"/></g><g><ellipse fill="#8E24AA" cx="215.6" cy="31.3" rx="22.2" ry="7.8" opacity=".25"/><ellipse fill="#8E24AA" cx="237.9" cy="52.4" rx="12.5" ry="4.4"/></g><g opacity=".25"><ellipse fill="#CE93D8" cx="54.5" cy="63.6" rx="22.2" ry="7.8"/><ellipse fill="#CE93D8" cx="76.8" cy="84.7" rx="12.5" ry="4.4"/><ellipse fill="#CE93D8" cx="32.2" cy="83.4" rx="15.6" ry="5.5"/></g><g><path fill="#59493C" d="M33.5 7.7h7.9v35.6h-7.9z"/><path fill="#03542C" d="M35.3-94.5l-38.6 122h77.2z"/><path fill="#739AAF" d="M33.5 27.5h7.9v3.3l-7.9-3z"/><g><path fill="#725D4C" d="M77 3.8h11.9v39.6H77z"/><path fill="#06703A" d="M80.7-107.9L35.3 35.4H126z"/><defs><path id="i" d="M80.7-107.9L35.3 35.4H126z"/></defs><clipPath id="j"><use xlink:href="#i" overflow="visible"/></clipPath><g clip-path="url(#j)"><path fill="#07824A" d="M80.7 2.2l-.6-.6-48.4-48.4 1.1-1.2L80.7-.1 128.5-48l1.2 1.2z"/><path fill="#07824A" d="M80.7 34.4l-.6-.6-48.4-48.4 1.1-1.2 47.9 47.9 47.8-47.9 1.2 1.2z"/></g><g><path fill="#739AAF" d="M77 35.4h11.9v5L77 35.6z"/></g></g></g><g><ellipse transform="rotate(70.264 182.203 -28.444)" fill="#BBE5FA" cx="182.2" cy="-28.4" rx="29.9" ry="41.3"/><defs><path id="k" d="M95.6-13.3L152.2-30c1-.3 1.9-1 2.5-1.9l3.9-6.5c1-1.7 3.1-2.5 5-1.9l2.4.7c2.1.6 3.4 2.8 3.1 4.9l-.4 2.6c-.3 1.6.3 3.1 1.5 4.1l1 .8c2 1.7 2.2 4.8.2 6.6l-3 2.8c-1.2 1.2-3.1 1.5-4.6.9l-5.6-2.2c-.9-.4-1.9-.4-2.8-.2L107.5-5.9c-1.9.5-2.7 2.3-2.7 4.2v.8c0 2-1.9 3.8-3.9 4.3l-4.1.9c-2.5.6-5.1-1.1-5.5-3.7L91-.7c-.2-1.7-1.5-3.5-3.2-3.5-2.8 0-4.1-4.2-2.6-6.7l.8-1.4c1.2-2 3.8-2.7 5.9-1.5l.2.1c1.1.6 2.3.7 3.5.4z"/></defs><use xlink:href="#k" overflow="visible" fill="#FFF"/><clipPath id="l"><use xlink:href="#k" overflow="visible"/></clipPath><g clip-path="url(#l)"><path fill="#BBE5FA" d="M95.6-8.4l56.6-16.7c1-.3 1.9-1 2.5-1.9l3.9-6.5c1-1.7 3.1-2.5 5-1.9l2.4.7c2.1.6 3.4 2.8 3.1 4.9l-.4 2.6c-.3 1.6.3 3.1 1.5 4.1l1 .8c2 1.7 2.2 4.8.2 6.6l-3 2.8c-1.2 1.2-3.1 1.5-4.6.9l-5.6-2.2c-.9-.4-1.9-.4-2.8-.2L107.5-1c-1.9.5-2.7 2.3-2.7 4.2V4c0 2-1.9 3.8-3.9 4.3l-4.1.9c-2.5.6-5.1-1.1-5.5-3.7L91 3.7c-.2-1.7-1.5-4-3.2-4-2.8 0-4.1-3.7-2.6-6.2l.8-1.1c1.2-2 3.8-2.6 5.9-1.4l.2.2c1.1.6 2.3.8 3.5.4z"/></g><g><defs><path id="m" d="M135.2 12.5L184-20.7c.9-.6 1.5-1.5 1.8-2.6l1.8-7.4c.5-1.9 2.2-3.3 4.2-3.4l2.5-.1c2.2 0 4.1 1.6 4.4 3.8l.4 2.6c.2 1.6 1.3 2.9 2.7 3.5l1.2.5c2.5 1 3.5 3.9 2.2 6.2l-2 3.6c-.8 1.5-2.4 2.4-4.1 2.3l-6-.4c-1-.1-1.9.2-2.7.7l-42.1 27.7c-1.6 1.1-2.4 3.1-1.8 5l.2.8c.6 1.9-.2 4-1.9 5.1l-3.4 2c-2.2 1.3-5.1.5-6.2-1.9l-.6-1.3c-.8-1.6-2.4-2.6-4.1-2.5-2.9.1-5.1-2.6-4.4-5.4l.4-1.5c.6-2.3 2.8-3.7 5.1-3.2l.3.1c1.1 0 2.3-.3 3.3-1z"/></defs><use xlink:href="#m" overflow="visible" fill="#FFF"/><clipPath id="n"><use xlink:href="#m" overflow="visible"/></clipPath><g clip-path="url(#n)"><path fill="#BBE5FA" d="M203.3-7.9c-.8 1.5-2.4 2.4-4.1 2.3l-6-.4c-1-.1-1.9.2-2.7.7l-42.1 27.7c-1.6 1.1-2.4 3.1-1.8 5l.2.8c.6 1.9-.2 4-1.9 5.1l-3.4 2c-2.2 1.3-5.1.5-6.2-1.9l-.6-1.3c-.8-1.6-2.4-2.6-4.1-2.5-2.9.1-5.1-2.6-4.4-5.4l.4-1.5c.6-2.3 2.8-3.7 5.1-3.2l.3.1c1.2.2 2.4 0 3.4-.7l33.2-23.8L152-7.2l44.8-34s21.2 28.3 20.7 28.1c-.6-.4-14.2 5.2-14.2 5.2z"/></g></g><g><path fill="#BBE5FA" d="M136.3 27l24.8 48s-22.1.1-20.9 8h39.5l-33-61.1-10.4 5.1z"/><path fill="#BBE5FA" d="M160.5 78.1s-18.2 2.4-15.8 10.8l35.4-4.9"/></g><g><path fill="#BBE5FA" d="M91.7 2.2l24.8 48.5s-22.1.6-20.9 8.5h39.5l-33-61.7-10.4 4.7z"/><path fill="#BBE5FA" d="M117.1 53.3s-18.2 2.4-15.8 10.8l35.4-4.9"/></g></g><g><path fill="#06703A" d="M252.3-47L213.6 75H290.9z"/></g><g><path fill="#2AAF4B" d="M148.3 142.3h4v19.8h-4zM172 142.3h7.9v19.8H172z"/><path fill="#FF931E" d="M140.4 122.5h47.5v23.8h-47.5z"/></g></g><g><defs><circle id="o" cx="144.6" cy="83.1" r="76.4"/></defs><clipPath id="p"><use xlink:href="#o" overflow="visible"/></clipPath><g clip-path="url(#p)"><path fill="#E53935" d="M142.7 182.9h87.4c26.2 0 47.5-21.3 47.5-47.6V78.7h-37.9v56.6c0 5.3-4.3 9.7-9.7 9.7h-87.4v37.9z"/><g opacity=".15"><defs><path id="q" d="M142.7 123.5h135v59.4h-135z"/></defs><clipPath id="r"><use xlink:href="#q" overflow="visible"/></clipPath><g clip-path="url(#r)"><defs><path id="s" d="M142.7 123.5h135v59.4h-135z"/></defs><clipPath id="t"><use xlink:href="#s" overflow="visible"/></clipPath><g clip-path="url(#t)"><path fill="#231F20" d="M277.7 123.5v11.8c0 26.2-21.3 47.6-47.6 47.6h-87.4v-11.8h87.4c26.2 0 47.6-21.3 47.6-47.6"/></g></g></g><path fill="#8D6E63" d="M13.6 167.9c0 36.8 29.9 66.7 66.7 66.7 36.8 0 66.7-29.9 66.7-66.7s-29.9-66.7-66.7-66.7c-36.8 0-66.7 29.9-66.7 66.7"/><g opacity=".2"><defs><path id="u" d="M13.6 103.8H147v130.9H13.6z"/></defs><clipPath id="v"><use xlink:href="#u" overflow="visible"/></clipPath><g clip-path="url(#v)"><defs><path id="w" d="M13.6 103.8H147v130.9H13.6z"/></defs><clipPath id="x"><use xlink:href="#w" overflow="visible"/></clipPath><g clip-path="url(#x)"><path fill="#231F20" d="M62.2 103.8c-21.7 8.3-37.1 29.1-37.1 53.5 0 31.7 26 57.3 58 57.3 32.1 0 58-25.7 58-57.3 0-12.8-4.3-24.6-11.4-34.2 10.8 11.8 17.3 27.6 17.3 44.9 0 36.8-29.9 66.7-66.7 66.7-36.8 0-66.7-29.9-66.7-66.7 0-30.6 20.6-56.3 48.6-64.2"/></g></g></g><path fill="#E53935" d="M53.9 213.7c0 48.4 39.2 87.6 87.6 87.6 48.4 0 87.6-39.2 87.6-87.6s-39.2-87.6-87.6-87.6c-48.4 0-87.6 39.2-87.6 87.6"/><path fill="#212121" d="M53.9 213.7h175.2v28.4H53.9z"/><path fill="#F9CE1D" d="M123.8 213.7h37.9v28.4h-37.9z"/><g opacity=".15"><defs><path id="y" d="M53.9 132.2h137.4v169.2H53.9z"/></defs><clipPath id="z"><use xlink:href="#y" overflow="visible"/></clipPath><g clip-path="url(#z)"><defs><path id="A" d="M53.9 132.2h137.4v169.2H53.9z"/></defs><clipPath id="B"><use xlink:href="#A" overflow="visible"/></clipPath><g clip-path="url(#B)"><path fill="#231F20" d="M109.5 132.2c-22.8 15.8-37.8 42.2-37.8 72.1 0 48.4 39.2 87.6 87.6 87.6 11.3 0 22.1-2.2 32-6.1-14.1 9.8-31.3 15.5-49.8 15.5-48.4 0-87.6-39.2-87.6-87.6 0-37.1 23-68.7 55.6-81.5"/></g></g></g><path fill="#EF9A9A" d="M172.9 85.8c0 7.2 6 13 13.3 13 7.3 0 13.3-5.8 13.3-13s-6-13-13.3-13c-7.3 0-13.3 5.8-13.3 13M85.9 85.8c0 7.2 6 13 13.3 13 7.4 0 13.3-5.8 13.3-13s-6-13-13.3-13c-7.4 0-13.3 5.8-13.3 13"/><path fill="#FFF" d="M191.2 16c0 7.8 6.4 14.2 14.2 14.2 7.9 0 14.2-6.4 14.2-14.2 0-7.9-6.4-14.2-14.2-14.2-7.8 0-14.2 6.3-14.2 14.2"/><path fill="#F9CE1D" d="M257.9 75.9c0 3.9-3.2 7-7.1 7-12 0-21.7-9.7-21.7-21.6 0-3.9 3.2-7 7.1-7 3.9 0 7.1 3.2 7.1 7.1 0 4.1 3.4 7.5 7.6 7.5 3.8-.1 7 3 7 7 0-.1 0 0 0 0"/><path fill="#E53935" d="M43.2 226.8c-3 0-5.9-.6-8.8-1.9-10.7-4.9-15.4-17.6-10.6-28.3l23.7-52.1c4.9-10.7 17.5-15.5 28.2-10.6s15.5 17.5 10.6 28.2l-23.7 52.1c-3.5 7.9-11.3 12.6-19.4 12.6z"/><path fill="#F7CAAD" d="M142.7 44.4c26.2 0 47.4 21.2 47.4 47.4v47.4H95.3V91.8c0-26.2 21.2-47.4 47.4-47.4"/><g opacity=".15"><defs><path id="C" d="M74 100.1h133.8v87.6H74z"/></defs><clipPath id="D"><use xlink:href="#C" overflow="visible"/></clipPath><g clip-path="url(#D)"><defs><path id="E" d="M74 100.1h133.8v87.6H74z"/></defs><clipPath id="F"><use xlink:href="#E" overflow="visible"/></clipPath><g clip-path="url(#F)"><path fill="#231F20" d="M117.8 100.1h90c0 48.4-40.1 87.6-89.5 87.6h-.6c-24.2 0-43.8-19.6-43.8-43.8.1-24.2 19.7-43.8 43.9-43.8"/></g></g></g><path fill="#FFF" d="M129.7 89.4h90c0 48.4-40.1 87.6-89.5 87.6h-.6c-24.2 0-43.8-19.6-43.8-43.8.1-24.2 19.7-43.8 43.9-43.8"/><path fill="#EF9A9A" d="M129.7 89.4c0 5.9 5.8 10.7 13 10.7s13-4.8 13-10.7c0-5.9-5.8-10.7-13-10.7s-13 4.8-13 10.7"/><path fill="#212121" d="M133.2 103.6c0 5.2 4.2 9.5 9.5 9.5 5.2 0 9.5-4.2 9.5-9.5h-19z"/><path fill="#F9CE1D" d="M43.2 153.3c0 13.7 11.1 24.9 24.9 24.9 13.7 0 24.9-11.1 24.9-24.9 0-13.7-11.1-24.9-24.9-24.9-13.7.1-24.9 11.2-24.9 24.9"/><path fill="#8D6E63" d="M73 155.3l22 15.9-18.9 15.9-9.8-26.9z"/><path fill="#E53935" d="M184.8 16h.5v56.8h-90c0-31.4 40.1-56.8 89.5-56.8"/><path fill="#FFF" d="M95.3 44.4c-3.9 0-7.1 3.2-7.1 7.1v14.2c0 3.9 3.2 7.1 7.1 7.1H190c3.9 0 7.1-3.2 7.1-7.1V51.5c0-3.9-3.2-7.1-7.1-7.1H95.3z"/><path fill="#212121" d="M161.6 79.9c0 2 1.6 3.6 3.6 3.6s3.6-1.6 3.6-3.6c0-1.9-1.6-3.5-3.6-3.5s-3.6 1.6-3.6 3.5M123.8 79.9c0 2-1.6 3.6-3.6 3.6s-3.5-1.6-3.5-3.6c0-1.9 1.6-3.5 3.5-3.5 2 0 3.6 1.6 3.6 3.5"/></g></g><g><circle fill="#29B6F6" cx="143.9" cy="83.8" r="76.4" opacity=".25"/><circle fill="#92E3FF" cx="143.9" cy="83.8" r="76.4" opacity=".15"/><path fill="#FFF" d="M89.4 86.4c7.1-18.7 15.6-32.6 29.7-45.2-4.9-3.3-7.7-4.2-15.5-4.8A93.86 93.86 0 0 0 80.5 86l8.9.4z" opacity=".25"/><path fill="#455D82" d="M143.9 167.6c-22.3 0-43.3-8.7-59.1-24.4C69 127.4 60.2 106.4 60.1 84c-.1-22.4 8.6-43.4 24.4-59.3C100.3 8.8 121.3.1 143.7 0h.2c22.3 0 43.3 8.7 59.1 24.4 32.8 32.6 32.9 85.7.3 118.5-15.8 15.9-36.8 24.6-59.2 24.7h-.2zm0-152.8c-17.7 0-35.5 6.8-48.9 20.3C82 48.2 74.8 65.5 74.9 84c0 18.4 7.3 35.8 20.3 48.8s30.3 20.1 48.7 20.1h.2c18.4 0 35.8-7.3 48.8-20.3l5.2 5.2-5.2-5.2c13-13.1 20.1-30.4 20.1-48.9 0-18.4-7.3-35.8-20.3-48.8-13.5-13.4-31.2-20.1-48.8-20.1z"/><path fill="#455D82" d="M84.842 132.722l10.49 10.44-17.913 18.005-10.493-10.44z"/><path fill="#2F4C52" d="M61.572 145.56l20.945 20.774L20.9 228.46-.047 207.684z"/></g><g><defs><circle id="G" cx="-122.1" cy="365.8" r="76.4"/></defs><clipPath id="H"><use xlink:href="#G" overflow="visible"/></clipPath></g></svg>