<svg id="Layer_1" data-name="Layer 1" xmlns="http://www.w3.org/2000/svg" xmlns:xlink="http://www.w3.org/1999/xlink" viewBox="0 0 125 125"><defs><style>.cls-1,.cls-13,.cls-8{fill:none;}.cls-2{fill:#00c3ea;}.cls-3{clip-path:url(#clip-path);}.cls-4{fill:#e53935;}.cls-5{fill:#bf8f68;}.cls-6{fill:#fff;}.cls-7{fill:#333;}.cls-8{stroke:#fff;stroke-width:4.48px;}.cls-13,.cls-8{stroke-miterlimit:10;}.cls-9{fill:#ffd400;}.cls-10{clip-path:url(#clip-path-2);}.cls-11{clip-path:url(#clip-path-3);}.cls-12{clip-path:url(#clip-path-4);}.cls-13{stroke:#ca372b;stroke-width:6.68px;}.cls-14{clip-path:url(#clip-path-5);}.cls-15{clip-path:url(#clip-path-6);}</style><clipPath id="clip-path"><circle id="_Clipping_Path_" data-name="&lt;Clipping Path&gt;" class="cls-1" cx="62.5" cy="62.5" r="49.56"/></clipPath><clipPath id="clip-path-2"><circle id="_Clipping_Path_2" data-name="&lt;Clipping Path&gt;" class="cls-1" cx="-82.5" cy="62.5" r="49.56"/></clipPath><clipPath id="clip-path-3"><rect id="_Rectangle_" data-name="&lt;Rectangle&gt;" class="cls-1" x="-91.34" y="109.11" width="63.36" height="37.49" transform="translate(68.19 187.51) rotate(90)"/></clipPath><clipPath id="clip-path-4"><path class="cls-1" d="M-54.92,32.37H-73.64V181.55a32.76,32.76,0,0,0,32.72,32.72A32.76,32.76,0,0,0-8.19,181.55V164.14H-26.91v17.41a14,14,0,0,1-14,14,14,14,0,0,1-14-14Z"/></clipPath><clipPath id="clip-path-5"><rect id="_Rectangle_2" data-name="&lt;Rectangle&gt;" class="cls-1" x="-122.2" y="89.72" width="78.67" height="37.49" transform="translate(-165.74 216.93) rotate(-180)"/></clipPath><clipPath id="clip-path-6"><path class="cls-1" d="M-7.22,113.2V94.49H-156.4a32.76,32.76,0,0,0-32.72,32.72,32.76,32.76,0,0,0,32.72,32.72H-139V141.22H-156.4a14,14,0,0,1-14-14,14,14,0,0,1,14-14Z"/></clipPath></defs><title>GemMatch</title><circle id="_Path_" data-name="&lt;Path&gt;" class="cls-2" cx="62.5" cy="62.5" r="49.56"/><g class="cls-3"><path class="cls-4" d="M44.13,39.86S62.5,1.53,79.27-6.46c0,0-8.79,35.93.8,47.12Z"/><path class="cls-5" d="M84.86,60.62A22.36,22.36,0,0,1,62.5,83h0A22.36,22.36,0,0,1,40.14,60.62h0A22.36,22.36,0,0,1,62.5,38.26h0A22.36,22.36,0,0,1,84.86,60.62Z"/><path class="cls-6" d="M45.63,66a17.66,17.66,0,0,0,33.74,0Z"/><rect class="cls-6" x="37.31" y="36.29" width="50.39" height="11.41" rx="2.98" ry="2.98"/><circle class="cls-7" cx="53.32" cy="57.43" r="3.99"/><circle class="cls-7" cx="71.69" cy="57.43" r="3.99"/><path class="cls-4" d="M84.86,136.21a22.36,22.36,0,1,1-44.72,0V105.34a22.36,22.36,0,1,1,44.72,0Z"/><line class="cls-8" x1="62.5" y1="82.98" x2="62.5" y2="143.14"/><rect class="cls-9" x="56.64" y="123.98" width="11.71" height="12.78"/><path class="cls-5" d="M41.21,55.84,33.75,45.71s-4.26,26.09,10.11,22.9Z"/><path class="cls-5" d="M83.79,55.84l7.45-10.12s4.26,26.09-10.11,22.9Z"/></g><g class="cls-10"><g class="cls-11"><g class="cls-12"><line class="cls-13" x1="-87.44" y1="125.75" x2="-0.22" y2="163.23"/><line class="cls-13" x1="-87.44" y1="109.76" x2="-0.22" y2="147.25"/><line class="cls-13" x1="-87.44" y1="93.78" x2="-0.22" y2="131.26"/><line class="cls-13" x1="-87.44" y1="77.79" x2="-0.22" y2="115.28"/><line class="cls-13" x1="-87.44" y1="61.81" x2="-0.22" y2="99.29"/><line class="cls-13" x1="-87.44" y1="45.82" x2="-0.22" y2="83.3"/><line class="cls-13" x1="-87.44" y1="29.83" x2="-0.22" y2="67.32"/><line class="cls-13" x1="-87.44" y1="13.85" x2="-0.22" y2="51.33"/><line class="cls-13" x1="-87.44" y1="-2.14" x2="-0.22" y2="35.34"/></g></g><g class="cls-14"><g class="cls-15"><line class="cls-13" x1="11.3" y1="80.69" x2="-26.18" y2="167.91"/><line class="cls-13" x1="27.29" y1="80.69" x2="-10.2" y2="167.91"/></g></g></g></svg>