<svg xmlns="http://www.w3.org/2000/svg" xmlns:xlink="http://www.w3.org/1999/xlink" viewBox="0 0 125 125"><defs><style>.cls-1,.cls-13,.cls-17{fill:none;}.cls-2{isolation:isolate;}.cls-3{fill:#00c3ea;}.cls-4{clip-path:url(#clip-path);}.cls-5{fill:#bae4f9;}.cls-6{fill:#fff;}.cls-7{fill:#e0e0e0;}.cls-8{fill:#404040;}.cls-9{fill:#018f49;}.cls-10{fill:#07a760;}.cls-11{fill:#f4861f;}.cls-12{clip-path:url(#clip-path-2);}.cls-13{stroke:#f16e21;}.cls-13,.cls-17{stroke-linecap:round;stroke-linejoin:round;stroke-width:1.58px;}.cls-14{clip-path:url(#clip-path-3);}.cls-15,.cls-19,.cls-22{fill:#231f20;}.cls-15,.cls-18{opacity:0.1;}.cls-16{fill:#f3a621;}.cls-17{stroke:#92d7f6;}.cls-18,.cls-22{mix-blend-mode:multiply;}.cls-20{fill:#eec106;}.cls-21{fill:#ffd100;}.cls-22{opacity:0.08;}.cls-23{clip-path:url(#clip-path-4);}</style><clipPath id="clip-path"><circle id="_Clipping_Path_" data-name="&lt;Clipping Path&gt;" class="cls-1" cx="62.5" cy="62.5" r="49.56"/></clipPath><clipPath id="clip-path-2"><path class="cls-1" d="M99.57,119.69A36.34,36.34,0,0,0,73.84,84.93v95l25.73.29Z"/></clipPath><clipPath id="clip-path-3"><path class="cls-1" d="M26.92,119.69v60.58H50.14V85.79A36.34,36.34,0,0,0,26.92,119.69Z"/></clipPath><clipPath id="clip-path-4"><circle id="_Clipping_Path_2" data-name="&lt;Clipping Path&gt;" class="cls-1" cx="-82.5" cy="62.5" r="49.56"/></clipPath></defs><title>GemMatch</title><g class="cls-2"><g id="Layer_1" data-name="Layer 1"><circle id="_Path_" data-name="&lt;Path&gt;" class="cls-3" cx="62.5" cy="62.5" r="49.56"/><g class="cls-4"><path class="cls-5" d="M86.94,61.25a24.44,24.44,0,0,1-48.88,0c0-13.5,10.94-37.73,24.44-37.73S86.94,47.75,86.94,61.25Z"/><path class="cls-6" d="M81,61.25c0,13.5-5,24.44-18.46,24.44A24.44,24.44,0,0,1,38.06,61.25c0-13.5,10.94-37.73,24.44-37.73S81,47.75,81,61.25Z"/><path class="cls-7" d="M99.57,119.69a36.33,36.33,0,1,0-72.66,0v60.58H99.57Z"/><path class="cls-6" d="M99.57,119.69a36.33,36.33,0,1,0-72.66,0v45.89H99.57Z"/><circle class="cls-8" cx="52.73" cy="60.39" r="2.59"/><path class="cls-8" d="M67.05,68.67a6.6,6.6,0,0,1-13.2,0Z"/><circle class="cls-8" cx="68.84" cy="60.28" r="2.59"/><path class="cls-9" d="M62.5,23.52c-8.46,0-15.92,9.52-20.3,20H82.8C78.42,33,71,23.52,62.5,23.52Z"/><path class="cls-10" d="M62.5,23.52c-8.46,0-15.92,9.52-20.3,20H75.09C73.84,36,71,23.52,62.5,23.52Z"/><path class="cls-10" d="M86.76,45.87A3.75,3.75,0,0,1,83,49.59H41.06a3.75,3.75,0,0,1-3.78-3.72V44a3.75,3.75,0,0,1,3.78-3.72H83A3.75,3.75,0,0,1,86.76,44Z"/><path class="cls-11" d="M99.57,119.69A36.34,36.34,0,0,0,73.84,84.93v95l25.73.29Z"/><path class="cls-11" d="M26.92,119.69v60.58H50.14V85.79A36.34,36.34,0,0,0,26.92,119.69Z"/><g class="cls-12"><line class="cls-13" x1="82.44" y1="97.25" x2="92.87" y2="97.25"/></g><g class="cls-14"><line class="cls-13" x1="31.07" y1="97.25" x2="50.14" y2="97.25"/><line class="cls-13" x1="29.08" y1="107.78" x2="50.14" y2="107.78"/><line class="cls-13" x1="27.14" y1="118.32" x2="50.14" y2="118.32"/><rect class="cls-15" x="39.98" y="88.93" width="18.02" height="2.85"/></g><line class="cls-13" x1="75.92" y1="107.78" x2="96.99" y2="107.78"/><line class="cls-13" x1="73.98" y1="118.32" x2="99" y2="118.32"/><path class="cls-16" d="M60.12,62.46l-8.68,4.08,9.14-.89C64.11,65.09,62.22,61.85,60.12,62.46Z"/><line class="cls-17" x1="48.92" y1="55.8" x2="55.85" y2="53.58"/><line class="cls-17" x1="67.42" y1="53.44" x2="74.35" y2="56.49"/><g class="cls-18"><path class="cls-19" d="M99.57,119.69A36.34,36.34,0,0,0,73.84,84.93c14.89,4.54,17.6,18.38,17.6,34.76v60.49l8.13.09Z"/></g><polygon class="cls-20" points="82.85 94.56 76.72 84.08 73.64 82.97 72.69 96.96 78.14 111.7 85.25 118.44 93.86 113.4 82.85 94.56"/><rect class="cls-21" x="68.16" y="87.54" width="9.98" height="28.69"/><polygon class="cls-22" points="68.16 95.72 68.16 84.5 78.14 84.5 78.14 91.91 68.16 95.72"/><rect class="cls-21" x="44.04" y="78.95" width="36.59" height="9.98" rx="0.61" ry="0.61"/><rect class="cls-5" x="50.14" y="88.93" width="18.02" height="2.85"/></g></g></g></svg>