<svg id="Layer_1" data-name="Layer 1" xmlns="http://www.w3.org/2000/svg" xmlns:xlink="http://www.w3.org/1999/xlink" viewBox="0 0 125 125"><defs><style>.cls-1{fill:none;}.cls-2{fill:#fff;}.cls-3{fill:#00c3ea;}.cls-4{clip-path:url(#clip-path);}.cls-5{fill:#022288;}.cls-6{clip-path:url(#clip-path-2);}.cls-7{fill:#bae4f9;}.cls-8{clip-path:url(#clip-path-3);}.cls-9{clip-path:url(#clip-path-4);}.cls-10{fill:#fb8c00;}.cls-11{fill:#c62828;}.cls-12{fill:#d94637;}.cls-13{clip-path:url(#clip-path-5);}.cls-14{clip-path:url(#clip-path-6);}.cls-15{opacity:0.2;}.cls-16{fill:#231f20;}</style><clipPath id="clip-path"><circle id="_Clipping_Path_" data-name="&lt;Clipping Path&gt;" class="cls-1" cx="62.5" cy="62.5" r="49.56"/></clipPath><clipPath id="clip-path-2"><path id="_Clipping_Path_2" data-name="&lt;Clipping Path&gt;" class="cls-2" d="M119.06,124s6.28,8,11,8.54c3.62.39,9.78-6.15,6.43-10.55-2.11-2.77-9.91-5.51-9.91-5.51Z"/></clipPath><clipPath id="clip-path-3"><path id="_Clipping_Path_3" data-name="&lt;Clipping Path&gt;" class="cls-2" d="M72.39,128.72,98.52,121a2,2,0,0,0,1.16-.89l1.82-3a2,2,0,0,1,2.31-.89l1.12.33a2,2,0,0,1,1.41,2.28l-.2,1.18a2,2,0,0,0,.71,1.91l.47.38a2,2,0,0,1,.11,3l-1.37,1.3a2,2,0,0,1-2.14.41l-2.58-1a2,2,0,0,0-1.29-.07l-22.51,6.21a2.12,2.12,0,0,0-1.59,1.95v.38a1.93,1.93,0,0,1-1.45,2l-1.72.42a2,2,0,0,1-2.44-1.7l-.08-.48a1.58,1.58,0,0,0-1.45-1.49h0c-1.3,0-1.89-2.05-1.19-3.2l.37-.7a2,2,0,0,1,2.72-.74l.1,0A2,2,0,0,0,72.39,128.72Z"/></clipPath><clipPath id="clip-path-4"><path id="_Clipping_Path_4" data-name="&lt;Clipping Path&gt;" class="cls-2" d="M90.68,140.66l22.52-15.34a2,2,0,0,0,.83-1.2l.81-3.43a2,2,0,0,1,1.93-1.55l1.16,0a2,2,0,0,1,2,1.74l.17,1.18a2,2,0,0,0,1.26,1.6l.56.22a2,2,0,0,1,1,2.86l-.91,1.65a2,2,0,0,1-1.91,1l-2.77-.2a2,2,0,0,0-1.25.33L96.73,142.29a2,2,0,0,0-.81,2.31L96,145a2,2,0,0,1-.88,2.35l-1.57.94a2,2,0,0,1-2.87-.87l-.29-.61a2,2,0,0,0-1.91-1.15h0a2,2,0,0,1-2-2.5l.17-.69A2,2,0,0,1,89,140.94l.12,0A2,2,0,0,0,90.68,140.66Z"/></clipPath><clipPath id="clip-path-5"><path id="_Clipping_Path_5" data-name="&lt;Clipping Path&gt;" class="cls-2" d="M85.26,58.2l-22.2,8.46a64.54,64.54,0,0,1-19.34,4.13L24.43,71.88a1.72,1.72,0,0,1-1.77-2.09l2.52-11.36a9.94,9.94,0,0,1,6.88-7.37l5.67-.76c7.5-.76,12.3-7.07,20.69-8.56s18.75,2.85,18.75,2.85Z"/></clipPath><clipPath id="clip-path-6"><path id="_Clipping_Path_6" data-name="&lt;Clipping Path&gt;" class="cls-2" d="M87,54.8,79.73,77.32a8.46,8.46,0,0,1-7.57,5.85L27.54,85.69A5.49,5.49,0,0,1,22,81.75l-1.42-4.88a1.72,1.72,0,0,1,1.76-2.19S67.24,81.42,72,58.2"/></clipPath></defs><title>GemMatch</title><circle id="_Path_" data-name="&lt;Path&gt;" class="cls-3" cx="62.5" cy="62.5" r="49.56"/><g class="cls-4"><path id="_Clipping_Path_7" data-name="&lt;Clipping Path&gt;" class="cls-2" d="M125.92,129.68s6.28,8,11,8.54c3.62.39,9.78-6.15,6.43-10.55-2.11-2.77-9.91-5.51-9.91-5.51Z"/><path class="cls-5" d="M124.79,127s4.71,6,8.26,6.41c2.71.29,7.34-4.61,4.82-7.91-1.58-2.07-7.43-4.13-7.43-4.13Z"/><path id="_Clipping_Path_8" data-name="&lt;Clipping Path&gt;" class="cls-2" d="M119.06,124s6.28,8,11,8.54c3.62.39,9.78-6.15,6.43-10.55-2.11-2.77-9.91-5.51-9.91-5.51Z"/><g class="cls-6"><path class="cls-7" d="M117.91,129.68s6.28,8,11,8.54c3.62.39,9.78-6.15,6.43-10.55-2.11-2.77-9.91-5.51-9.91-5.51Z"/></g><ellipse class="cls-7" cx="112.37" cy="121.74" rx="19.05" ry="13.81" transform="translate(-34.51 45.09) rotate(-19.73)"/><ellipse class="cls-5" cx="117.32" cy="124.41" rx="10.19" ry="7.39" transform="translate(-35.12 46.92) rotate(-19.73)"/><path id="_Clipping_Path_9" data-name="&lt;Clipping Path&gt;" class="cls-2" d="M72.39,128.72,98.52,121a2,2,0,0,0,1.16-.89l1.82-3a2,2,0,0,1,2.31-.89l1.12.33a2,2,0,0,1,1.41,2.28l-.2,1.18a2,2,0,0,0,.71,1.91l.47.38a2,2,0,0,1,.11,3l-1.37,1.3a2,2,0,0,1-2.14.41l-2.58-1a2,2,0,0,0-1.29-.07l-22.51,6.21a2.12,2.12,0,0,0-1.59,1.95v.38a1.93,1.93,0,0,1-1.45,2l-1.72.42a2,2,0,0,1-2.44-1.7l-.08-.48a1.58,1.58,0,0,0-1.45-1.49h0c-1.3,0-1.89-2.05-1.19-3.2l.37-.7a2,2,0,0,1,2.72-.74l.1,0A2,2,0,0,0,72.39,128.72Z"/><g class="cls-8"><path class="cls-7" d="M72.39,131l26.14-7.71a2,2,0,0,0,1.16-.89l1.82-3a2,2,0,0,1,2.31-.89l1.12.33a2,2,0,0,1,1.41,2.28l-.2,1.18a2,2,0,0,0,.71,1.91l.47.38a2,2,0,0,1,.11,3l-1.37,1.3a2,2,0,0,1-2.14.41l-2.58-1a2,2,0,0,0-1.29-.07l-22.51,6.21a2.12,2.12,0,0,0-1.59,1.95v.38a1.93,1.93,0,0,1-1.45,2l-1.72.42a2,2,0,0,1-2.44-1.7l-.08-.65c-.11-.8-.67-1.66-1.45-1.66h0c-1.3,0-1.89-1.89-1.19-3l.37-.61a2,2,0,0,1,2.72-.7l.1.06A2,2,0,0,0,72.39,131Z"/></g><path id="_Clipping_Path_10" data-name="&lt;Clipping Path&gt;" class="cls-2" d="M90.68,140.66l22.52-15.34a2,2,0,0,0,.83-1.2l.81-3.43a2,2,0,0,1,1.93-1.55l1.16,0a2,2,0,0,1,2,1.74l.17,1.18a2,2,0,0,0,1.26,1.6l.56.22a2,2,0,0,1,1,2.86l-.91,1.65a2,2,0,0,1-1.91,1l-2.77-.2a2,2,0,0,0-1.25.33L96.73,142.29a2,2,0,0,0-.81,2.31L96,145a2,2,0,0,1-.88,2.35l-1.57.94a2,2,0,0,1-2.87-.87l-.29-.61a2,2,0,0,0-1.91-1.15h0a2,2,0,0,1-2-2.5l.17-.69A2,2,0,0,1,89,140.94l.12,0A2,2,0,0,0,90.68,140.66Z"/><g class="cls-9"><path id="_Path_2" data-name="&lt;Path&gt;" class="cls-7" d="M122.09,131.22a2,2,0,0,1-1.91,1l-2.77-.2a2,2,0,0,0-1.25.33L96.73,145.15a2,2,0,0,0-.81,2.31l.12.36a2,2,0,0,1-.88,2.35l-1.57.94a2,2,0,0,1-2.87-.87l-.29-.61a2,2,0,0,0-1.91-1.15h0a2,2,0,0,1-2-2.5l.17-.69A2,2,0,0,1,89,143.8l.12,0a2,2,0,0,0,1.55-.31l15.32-11-7.65-1.08,20.7-15.7s9.77,13.05,9.56,13S122.09,131.22,122.09,131.22Z"/></g><path class="cls-10" d="M65.39,96.37a1.44,1.44,0,0,0,2-.09,4.16,4.16,0,0,0-.14-6h0a1.44,1.44,0,0,0-2,.09,1.36,1.36,0,0,0,0,2,1.45,1.45,0,0,1,0,2.08,1.35,1.35,0,0,0,.05,1.95Z"/><path class="cls-11" d="M69.13,105.26a10.31,10.31,0,0,0,7.45,2.62,10.75,10.75,0,0,0,7.31-3.33l1.89-2a4.06,4.06,0,0,0-.15-5.85h0a4.32,4.32,0,0,0-6,.27l-1.89,2a2.09,2.09,0,0,1-1.41.65,1.93,1.93,0,0,1-1.39-.49h0l-4-3.61h0a4.32,4.32,0,0,0-6,.27,4.06,4.06,0,0,0,.16,5.84l4,3.61Z"/><path class="cls-10" d="M61.64,98.3A3.87,3.87,0,0,0,67,98.06a3.64,3.64,0,0,0-.14-5.24L63.75,90h0a3.87,3.87,0,0,0-5.36.25,3.64,3.64,0,0,0,.14,5.24l3.1,2.82Z"/><path class="cls-2" d="M63.54,101.17a1.72,1.72,0,0,0,2.38-.11l4.52-4.73A1.61,1.61,0,0,0,70.38,94h0a1.72,1.72,0,0,0-2.38.11l-4.52,4.73a1.62,1.62,0,0,0,.06,2.33Z"/><path class="cls-12" d="M90,80.32C95,83,98.85,88.83,91.11,92.44c-6.8,3.17-10.93-4.21-10.93-4.21-.53,5.52-2.88,36.49,15.15,40.49,19.85,4.41,35.3-10.47,34-19.31C124.51,75.13,90,80.32,90,80.32Z"/><ellipse class="cls-10" cx="90.21" cy="90.92" rx="13.09" ry="9.49" transform="translate(-37.53 100.25) rotate(-49.4)"/><path class="cls-7" d="M76.14,86.19s6.28,8,11,8.54c3.62.39,9.78-6.15,6.43-10.55-2.11-2.77-9.91-5.51-9.91-5.51Z"/><path class="cls-5" d="M75,83.46s4.71,6,8.26,6.41c2.71.29,7.34-4.61,4.82-7.91-1.58-2.07-7.43-4.13-7.43-4.13Z"/><path class="cls-7" d="M69.27,80.47s6.28,8,11,8.54c3.62.39,9.78-6.15,6.43-10.55C84.62,75.7,76.82,73,76.82,73Z"/><path class="cls-5" d="M78.44,68.86s2.94,10.09,0,13-16.13-.18-16.13-.18Z"/><path class="cls-5" d="M56.79,62.6c-12.88,1.85-37.6,9.28-36.25,14.27,1,3.55,47.84,2.45,47.84,2.45l9.25-21.08A145.49,145.49,0,0,1,56.79,62.6Z"/><path id="_Clipping_Path_11" data-name="&lt;Clipping Path&gt;" class="cls-2" d="M85.26,58.2l-22.2,8.46a64.54,64.54,0,0,1-19.34,4.13L24.43,71.88a1.72,1.72,0,0,1-1.77-2.09l2.52-11.36a9.94,9.94,0,0,1,6.88-7.37l5.67-.76c7.5-.76,12.3-7.07,20.69-8.56s18.75,2.85,18.75,2.85Z"/><g class="cls-13"><path class="cls-7" d="M97.19,62.49,75,70.95a64.54,64.54,0,0,1-19.34,4.13L36.35,76.17a1.72,1.72,0,0,1-1.77-2.09L37.1,62.72A9.94,9.94,0,0,1,44,55.35l5.67-.76c7.5-.76,12.3-7.07,20.69-8.56s18.75,2.85,18.75,2.85Z"/></g><path class="cls-2" d="M62.93,80.66a1.81,1.81,0,0,0,2.93-1.47,27.33,27.33,0,0,0-.83-6,34.73,34.73,0,0,0-1.42-4.24,1.45,1.45,0,0,0-2.7.05,18.93,18.93,0,0,0-1,4.38c-.21,2-.29,4.28-.32,6.05A1.81,1.81,0,0,0,62.25,81l.68-.38Z"/><path class="cls-2" d="M58.63,80.66a1.81,1.81,0,0,0,2.93-1.47,27.33,27.33,0,0,0-.83-6,34.72,34.72,0,0,0-1.42-4.24,1.45,1.45,0,0,0-2.7.05,18.92,18.92,0,0,0-1,4.38c-.21,2-.29,4.28-.32,6.05A1.81,1.81,0,0,0,58,81l.68-.38Z"/><path class="cls-2" d="M54.15,79.32a1.81,1.81,0,0,0,2.93-1.47,27.33,27.33,0,0,0-.83-6,34.73,34.73,0,0,0-1.42-4.24,1.45,1.45,0,0,0-2.7.05,18.93,18.93,0,0,0-1,4.38c-.21,2-.29,4.28-.32,6.05a1.81,1.81,0,0,0,2.69,1.61l.68-.38Z"/><path class="cls-2" d="M26.79,77.34a34.74,34.74,0,0,0-1.42-4.24,1.45,1.45,0,0,0-2.7.05,18.92,18.92,0,0,0-1,4.38C21.42,79.55,27.35,79.46,26.79,77.34Z"/><path class="cls-2" d="M30.79,77.34a34.74,34.74,0,0,0-1.42-4.24,1.45,1.45,0,0,0-2.7.05,18.92,18.92,0,0,0-1,4.38C25.42,79.55,31.36,79.46,30.79,77.34Z"/><path class="cls-2" d="M35.37,77.34A34.74,34.74,0,0,0,34,73.1a1.45,1.45,0,0,0-2.7.05,18.92,18.92,0,0,0-1,4.38C30,79.55,35.94,79.46,35.37,77.34Z"/><path id="_Clipping_Path_12" data-name="&lt;Clipping Path&gt;" class="cls-2" d="M87,54.8,79.73,77.32a8.46,8.46,0,0,1-7.57,5.85L27.54,85.69A5.49,5.49,0,0,1,22,81.75l-1.42-4.88a1.72,1.72,0,0,1,1.76-2.19S67.24,81.42,72,58.2"/><g class="cls-14"><path class="cls-7" d="M92.72,52.52,85.45,80.75a8.46,8.46,0,0,1-7.57,5.85L33.26,89.12a5.49,5.49,0,0,1-5.58-3.94L26.26,80.3A1.72,1.72,0,0,1,28,78.11s38.64,3.31,43.4-19.91"/></g><path class="cls-5" d="M28.55,67.93a1.81,1.81,0,0,1-2.78-1.75,27.33,27.33,0,0,1,1.4-5.9A34.73,34.73,0,0,1,29,56.2a1.45,1.45,0,0,1,2.69.31A18.93,18.93,0,0,1,32.29,61c0,2-.12,4.29-.26,6.06a1.81,1.81,0,0,1-2.84,1.35l-.64-.44Z"/><path class="cls-7" d="M38.7,62.51c-1.21-1-2.67,5.36-2.1,7.48A34.72,34.72,0,0,0,38,74.23a1.45,1.45,0,0,0,2.7-.05,18.93,18.93,0,0,0,1-4.38c.21-2,.29-4.28.32-6.05a1.81,1.81,0,0,0-2.69-1.61l-.68.38Z"/><path class="cls-7" d="M43,62.51A1.81,1.81,0,0,0,40.06,64a27.33,27.33,0,0,0,.83,6,34.72,34.72,0,0,0,1.42,4.24,1.45,1.45,0,0,0,2.7-.05,18.92,18.92,0,0,0,1-4.38c.21-2,.29-4.28.32-6.05a1.81,1.81,0,0,0-2.69-1.61l-.68.38Z"/><path class="cls-7" d="M47.48,61.55A1.81,1.81,0,0,0,44.54,63a27.33,27.33,0,0,0,.83,6,34.72,34.72,0,0,0,1.42,4.24,1.45,1.45,0,0,0,2.7-.05,18.93,18.93,0,0,0,1-4.38c.21-2,.29-4.28.32-6.05a1.81,1.81,0,0,0-2.69-1.61l-.68.38Z"/><circle class="cls-5" cx="60.56" cy="51.66" r="3.15"/><path class="cls-12" d="M56.81,36.18s45.47-21.62,49.69,22.53c0,0-21.41-18.81-18.92-7.86Z"/><rect class="cls-2" x="68.33" y="27.18" width="8.7" height="38.42" rx="2.27" ry="2.27" transform="translate(-2.25 89.05) rotate(-62.2)"/><circle class="cls-2" cx="106.07" cy="58.84" r="3.65" transform="translate(4.56 125.24) rotate(-62.2)"/><g class="cls-15"><path class="cls-16" d="M83.7,116.66h0a2.16,2.16,0,0,0,1.67-2.35l-.32-2.89a4.62,4.62,0,0,1,3.63-4.9h0c2.44.46,4.35,1.5,4.59,3.82l.3,2.79a10.84,10.84,0,0,1-2.19,7.76,25.14,25.14,0,0,1-2.17,2.23A22.3,22.3,0,0,1,83.7,116.66Z"/></g><path class="cls-10" d="M74,121.13c.76-.1,1.39-.43,1.31-1.2a3.72,3.72,0,0,0-4.55-3.39h0c-.74.17-1.39.43-1.31,1.2a1.2,1.2,0,0,0,1.48,1A1.36,1.36,0,0,1,72.52,120,1.31,1.31,0,0,0,74,121.17Z"/><path class="cls-12" d="M83.22,124a10.31,10.31,0,0,0,6.82-4,10.75,10.75,0,0,0,2.2-7.72L92,109.63A4.06,4.06,0,0,0,87.4,106h0a4.32,4.32,0,0,0-3.67,4.73l.28,2.72a2.6,2.6,0,0,1-.39,1.65,2.2,2.2,0,0,1-1.24.9h0l-5.37.54s0-.08,0-.08a4.29,4.29,0,0,0-3.67,4.69,4,4,0,0,0,4.55,3.65l5.33-.7Z"/><path class="cls-12" d="M77.15,118.62h0l5.33-.69h0a2.23,2.23,0,0,0,1.27-.75,2.1,2.1,0,0,0,.42-1.5L84,113.83a2.86,2.86,0,0,1-.38,1.23,2.2,2.2,0,0,1-1.24.9h0l-5.37.54s0-.08,0-.08a4.29,4.29,0,0,0-3.67,4.69,4.09,4.09,0,0,0,.24,1A4.31,4.31,0,0,1,77.15,118.62Z"/><path class="cls-10" d="M73.06,125.23A3.87,3.87,0,0,0,76.35,121a3.64,3.64,0,0,0-4.08-3.29l-4.16.54h0a3.87,3.87,0,0,0-3.28,4.24,3.64,3.64,0,0,0,4.08,3.29l4.16-.54Z"/><path class="cls-2" d="M76.48,125.65a1.72,1.72,0,0,0,1.46-1.89l-.71-6.65a1.71,1.71,0,0,0-1.85-1.6h0a1.91,1.91,0,0,0-1.43,2l.69,6.58a1.65,1.65,0,0,0,1.82,1.5Z"/></g></svg>