<?xml version="1.0" encoding="iso-8859-1"?>
<!-- Generator: Adobe Illustrator 18.0.0, SVG Export Plug-In . SVG Version: 6.00 Build 0)  -->
<!DOCTYPE svg PUBLIC "-//W3C//DTD SVG 1.1//EN" "http://www.w3.org/Graphics/SVG/1.1/DTD/svg11.dtd">
<svg version="1.1" id="Layer_1" xmlns="http://www.w3.org/2000/svg" xmlns:xlink="http://www.w3.org/1999/xlink" x="0px" y="0px"
	 viewBox="0 0 105 77.518" style="enable-background:new 0 0 105 77.518;" xml:space="preserve">
<g>
	<path style="opacity:0.13;" d="M104.407,21.578c0,0-0.781-6.988-3.822-10.066c-3.856-4.039-8.074-4.154-10.057-4.391
		C76.337,6.095,55.154,6,55.154,6h-0.044c0,0-21.287,0.095-35.479,1.121c-1.982,0.236-6.304,0.304-10.161,4.343
		c-3.041,3.077-4.242,10.089-4.242,10.089S4,29.784,4,37.991v7.694c0,8.207,1.226,16.413,1.226,16.413s1.096,6.988,4.136,10.066
		c3.858,4.039,8.978,3.912,11.235,4.335c8.113,0.778,34.507,1.019,34.507,1.019s21.323-0.032,35.514-1.058
		c1.982-0.237,6.312-0.257,10.168-4.296c3.041-3.078,3.616-10.066,3.616-10.066S105,53.892,105,45.685v-7.694
		C105,29.784,104.407,21.578,104.407,21.578z"/>
	<path id="Triangle_4_" style="fill:#FFFFFF;" d="M39.528,49.988L66.931,35.79L39.528,21.493V49.988z"/>
	<linearGradient id="SVGID_1_" gradientUnits="userSpaceOnUse" x1="50.5" y1="-1.818989e-11" x2="50.5" y2="72.4975">
		<stop  offset="0" style="stop-color:#DC2D27"/>
		<stop  offset="1" style="stop-color:#B6171D"/>
	</linearGradient>
	<path style="fill:url(#SVGID_1_);" d="M99.896,16.557c0,0-1.037-6.988-4.077-10.066c-3.856-4.039-8.202-4.644-10.184-4.881
		C71.444,0.585,50.133,0,50.133,0h-0.044c0,0-21.287,0.585-35.479,1.611C12.627,1.847,8.306,2.159,4.448,6.199
		C1.408,9.276,0.716,16.411,0.716,16.411S0,24.764,0,32.971v7.694c0,8.207,0.716,16.413,0.716,16.413s0.84,6.988,3.881,10.066
		c3.858,4.039,8.851,3.912,11.108,4.335c8.113,0.778,34.443,1.019,34.443,1.019s21.291-0.032,35.483-1.058
		c1.982-0.237,6.296-0.257,10.152-4.296c3.041-3.078,4.118-10.066,4.118-10.066S101,48.871,101,40.665v-7.694
		C101,24.764,99.896,16.557,99.896,16.557z M39.641,49.988l-0.005-28.495L67.039,35.79L39.641,49.988z"/>
</g>
</svg>
