<svg xmlns="http://www.w3.org/2000/svg" viewBox="0 0 61.59 275.64"><defs><style>.cls-1{fill:#f5ce85;}.cls-2{fill:#f2faff;}.cls-3{fill:#29b6f6;}.cls-4{opacity:0.2;}</style></defs><title>pencil_primary</title><g id="Layer_2" data-name="Layer 2"><g id="ART"><polygon class="cls-1" points="30.8 0 0.01 64.97 30.8 64.97 61.59 64.97 30.8 0"/><polygon class="cls-2" points="44.13 28.12 30.8 0 17.47 28.12 44.13 28.12"/><polygon class="cls-2" points="0 265.63 0 265.63 0 265.63 0 265.63"/><path class="cls-2" d="M61.58,275.64V65h0L51.33,54.7,41.06,65,30.8,54.7,20.54,65,10.28,54.7,0,65H0V275.64ZM41.06,65Z"/><polygon class="cls-3" points="0 265.63 0 265.63 0 265.63 0 265.63"/><path class="cls-4" d="M30.8,54.7,20.54,65,10.28,54.7,0,65H0V275.64H30.79ZM41.06,65Z"/><path class="cls-3" d="M0,265.63"/></g></g></svg>