<svg xmlns="http://www.w3.org/2000/svg" width="198.372" height="58.268" viewBox="0 0 198.372 58.268"><g fill="#19601B"><circle cx="17.905" cy="3.755" r="3.755"/><path d="M.07 47.39h10.066l7.77-15.927 7.51 15.926H36.03L18.05 10.616z"/><path d="M65.473 35.443l-3.71-8.635h-11.93l-3.746 8.635h-2.67L54.375 9.78h2.878L68.28 35.445h-2.807zm-9.64-22.75l-5.03 11.792h9.953l-4.924-11.79z"/><path d="M82.428 35.894c-7.283 0-13.768-5.86-13.768-13.282 0-7.49 6.38-13.282 13.733-13.282 3.988 0 7.838 1.7 10.473 4.716.66.728 1.283 1.63 1.665 2.566h-2.98c-1.804-3.12-5.585-4.96-9.122-4.96-6.07 0-11.2 4.856-11.2 10.994 0 6.208 5.2 10.924 11.304 10.924 4.508 0 9.225-3.12 10.37-7.594H78.578v-2.324h17.408c-.555 7.04-6.59 12.242-13.56 12.242z"/><path d="M119.29 35.443l-3.712-8.635h-11.93l-3.745 8.635h-2.67l10.96-25.663h2.877l11.028 25.663h-2.81zm-9.642-22.75l-5.03 11.792h9.954l-4.924-11.79z"/><path d="M131.146 35.894c-4.543 0-7.837-3.017-7.907-7.63h2.565c.14 3.157 2.115 5.307 5.34 5.307 2.845 0 5.168-2.218 5.168-5.097 0-3.468-2.913-4.647-5.722-5.48-3.64-1.075-6.657-2.323-6.657-6.762 0-4.057 3.26-6.9 7.213-6.9 3.953 0 7.11 2.982 7.11 6.97h-2.567c0-2.497-2.012-4.647-4.544-4.647-2.566 0-4.647 1.873-4.647 4.474 0 3.433 3.5 4.023 6.103 4.82 3.676 1.11 6.277 3.433 6.277 7.422 0 4.264-3.503 7.524-7.734 7.524z"/><path d="M149.455 12.104v23.34h-2.566v-23.34h-5.897V9.78h14.323v2.325h-5.86z"/><path d="M168.11 26.877v8.566h-2.566v-8.566L156.632 9.78h2.844l7.317 14.392 7.525-14.392h2.81l-9.018 17.097z"/><path d="M195.366 35.443l-3.71-8.635h-11.93l-3.746 8.635h-2.67L184.27 9.78h2.877l11.028 25.663h-2.81zm-9.64-22.75l-5.03 11.792h9.954l-4.925-11.79z"/><path d="M43.28 47.237V39.54h.77v7.697h-.77z"/><path d="M51.288 47.237l-4.566-6.77h-.02v6.77h-.77V39.54h1.04l4.295 6.386h.02V39.54h.77v7.697h-.77z"/><path d="M55.762 40.237v7h-.77v-7h-1.768v-.697h4.296v.697h-1.758z"/><path d="M58.633 47.237V39.54h4.212v.697h-3.443v2.767h3.328v.696h-3.328v2.84h3.443v.696h-4.212z"/><path d="M67.454 44.366l2.174 2.87h-.968l-2.61-3.483c.477 0 1.185.03 1.653-.114.75-.23 1.27-.833 1.27-1.634 0-.582-.323-1.196-.843-1.477-.478-.26-.957-.292-1.498-.292H65.29v7h-.77V39.54h1.955c.582 0 1.352.03 1.893.29.863.417 1.373 1.238 1.373 2.195.002 1.31-.996 2.258-2.286 2.34z"/><path d="M76.556 47.237l-4.566-6.77h-.02v6.77h-.77V39.54h1.04l4.295 6.386h.02V39.54h.77v7.697h-.77z"/><path d="M85.17 47.237l-1.114-2.59h-3.578l-1.123 2.59h-.8l3.286-7.697h.864l3.307 7.697h-.84zm-2.893-6.823L80.77 43.95h2.984l-1.477-3.536z"/><path d="M88.197 40.237v7h-.77v-7H85.66v-.697h4.295v.697h-1.758z"/><path d="M91.13 47.237V39.54h.77v7.697h-.77z"/><path d="M97.517 47.372c-2.153 0-4.067-1.747-4.067-3.942 0-2.247 1.83-4.025 4.067-4.025 2.205 0 4.077 1.758 4.077 3.984 0 2.224-1.882 3.982-4.077 3.982zm0-7.27c-1.83 0-3.297 1.508-3.297 3.328 0 1.778 1.53 3.245 3.297 3.245 1.8 0 3.307-1.467 3.307-3.276S99.327 40.1 97.517 40.1z"/><path d="M108.492 47.237l-4.566-6.77h-.02v6.77h-.77V39.54h1.04l4.295 6.386h.022V39.54h.77v7.697h-.77z"/><path d="M117.105 47.237l-1.113-2.59h-3.578l-1.123 2.59h-.8l3.287-7.697h.864l3.308 7.697h-.843zm-2.89-6.823l-1.51 3.536h2.986l-1.476-3.536z"/><path d="M119.228 47.237V39.54h.77v7h3.183v.696h-3.952z"/><path d="M130.853 40.237v2.787h3.006v.697h-3.007v3.516h-.77V39.54h3.89v.697h-3.12z"/><path d="M139.226 47.372c-2.153 0-4.066-1.747-4.066-3.942 0-2.247 1.83-4.025 4.066-4.025 2.205 0 4.077 1.758 4.077 3.984 0 2.224-1.883 3.982-4.077 3.982zm0-7.27c-1.83 0-3.297 1.508-3.297 3.328 0 1.778 1.528 3.245 3.296 3.245 1.8 0 3.307-1.467 3.307-3.276s-1.497-3.298-3.307-3.298z"/><path d="M149.795 45.936c-.437.936-1.31 1.435-2.33 1.435s-1.893-.498-2.33-1.434c-.22-.468-.29-1.082-.29-1.602V39.54h.768v4.795c0 .416.052 1.02.26 1.394.343.623.884.946 1.592.946.707 0 1.248-.323 1.59-.947.21-.375.26-.98.26-1.395V39.54h.77v4.795c0 .52-.072 1.133-.29 1.6z"/><path d="M157.326 47.237l-4.566-6.77h-.02v6.77h-.77V39.54h1.04l4.295 6.386h.02V39.54h.77v7.697h-.77z"/><path d="M164.723 46.602c-.697.447-1.696.635-2.507.635h-2.247V39.54h2.246c.82 0 1.81.187 2.507.634 1.092.697 1.747 1.945 1.747 3.235 0 1.278-.676 2.495-1.747 3.192zm-.333-5.772c-.76-.53-1.633-.593-2.538-.593h-1.113v6.303h1.28c.904 0 1.715-.073 2.474-.624.79-.572 1.206-1.58 1.206-2.538 0-1.01-.478-1.976-1.31-2.548z"/><path d="M173.99 47.237l-1.112-2.59H169.3l-1.123 2.59h-.8l3.286-7.697h.863l3.307 7.697h-.842zm-2.89-6.823l-1.508 3.536h2.985l-1.477-3.536z"/><path d="M177.02 40.237v7h-.77v-7h-1.768v-.697h4.295v.697h-1.757z"/><path d="M179.954 47.237V39.54h.77v7.697h-.77z"/><path d="M186.34 47.372c-2.153 0-4.066-1.747-4.066-3.942 0-2.247 1.83-4.025 4.066-4.025 2.205 0 4.077 1.758 4.077 3.984 0 2.224-1.883 3.982-4.077 3.982zm0-7.27c-1.83 0-3.297 1.508-3.297 3.328 0 1.778 1.53 3.245 3.297 3.245 1.8 0 3.307-1.467 3.307-3.276S188.15 40.1 186.34 40.1z"/><path d="M197.315 47.237l-4.566-6.77h-.02v6.77h-.77V39.54H193l4.295 6.386h.02V39.54h.77v7.697h-.77z"/><path d="M1.496 58.268c-.86 0-1.483-.57-1.496-1.444h.485c.026.597.4 1.004 1.01 1.004.538 0 .978-.42.978-.964 0-.656-.55-.88-1.083-1.037-.69-.204-1.26-.44-1.26-1.28 0-.768.617-1.306 1.365-1.306s1.345.566 1.345 1.32h-.485c0-.472-.38-.88-.86-.88-.485 0-.88.355-.88.847 0 .65.664.76 1.156.912.696.21 1.188.648 1.188 1.403 0 .808-.662 1.425-1.462 1.425z"/><path d="M7.028 57.363c-.275.59-.827.906-1.47.906s-1.194-.316-1.47-.907c-.138-.295-.184-.682-.184-1.01V53.33h.486v3.023c0 .262.033.643.164.88.216.393.558.596 1.004.596.446 0 .787-.204 1.004-.598.13-.236.164-.617.164-.88V53.33h.485v3.023c.002.327-.044.714-.182 1.01z"/><path d="M11.098 55.946c-.367.25-.82.282-1.253.282H8.98v1.955h-.487v-4.855h1.352c.433 0 .886.032 1.253.282.394.27.603.695.603 1.168 0 .472-.21.9-.602 1.168zm-.447-2.054c-.274-.13-.53-.125-.832-.125h-.84v2.02h.84c.302 0 .558.008.833-.123.362-.17.565-.486.565-.886s-.203-.715-.564-.886z"/><path d="M15.272 55.946c-.367.25-.82.282-1.253.282h-.867v1.955h-.486v-4.855h1.352c.432 0 .885.032 1.252.282.394.27.603.695.603 1.168 0 .472-.21.9-.603 1.168zm-.446-2.054c-.275-.13-.53-.125-.833-.125h-.84v2.02h.84c.302 0 .558.008.833-.123.36-.17.564-.486.564-.886s-.203-.715-.564-.886z"/><path d="M19.197 58.268c-1.358 0-2.565-1.102-2.565-2.487 0-1.416 1.155-2.538 2.565-2.538 1.39 0 2.572 1.11 2.572 2.513 0 1.404-1.19 2.513-2.573 2.513zm0-4.586c-1.155 0-2.08.95-2.08 2.1 0 1.122.964 2.047 2.08 2.047 1.135 0 2.086-.926 2.086-2.068s-.944-2.08-2.086-2.08z"/><path d="M24.65 56.372l1.372 1.81h-.61l-1.647-2.197c.302 0 .748.02 1.043-.072.472-.144.8-.525.8-1.03 0-.368-.203-.755-.53-.932-.303-.163-.604-.183-.946-.183h-.846v4.416H22.8v-4.855h1.234c.367 0 .853.02 1.194.183.544.264.866.782.866 1.386 0 .827-.63 1.424-1.443 1.476z"/><path d="M28.294 53.767v4.416h-.485v-4.416h-1.116v-.44h2.71v.44h-1.11z"/><path d="M30.198 58.183v-4.855h2.657v.44h-2.172v1.744h2.1v.44h-2.1v1.79h2.172v.44h-2.657z"/><path d="M37.03 57.782c-.44.283-1.07.4-1.58.4H34.03V53.33h1.417c.517 0 1.14.118 1.58.4.69.44 1.102 1.227 1.102 2.04 0 .808-.426 1.575-1.102 2.014zm-.21-3.64c-.48-.335-1.03-.375-1.6-.375h-.703v3.976h.807c.57 0 1.082-.046 1.562-.394.5-.362.76-.998.76-1.602 0-.635-.3-1.246-.826-1.607z"/><path d="M44.093 57.914c-.387.243-.74.27-1.187.27h-1.34v-4.856h1.222c.617 0 1.233.183 1.49.794.065.157.097.328.097.498 0 .447-.197.715-.53.978.498.204.806.656.806 1.194 0 .433-.183.886-.557 1.122zm-.407-3.845c-.236-.277-.65-.303-.984-.303h-.65v1.653h.61c.283 0 .578 0 .834-.138.25-.13.394-.407.394-.682 0-.21-.066-.373-.204-.53zm-.092 1.902c-.295-.118-.63-.11-.945-.11h-.598v1.882h.682c.308 0 .63 0 .92-.125.327-.138.51-.48.51-.827 0-.368-.235-.683-.57-.82z"/><path d="M47.12 56.562v1.62h-.486v-1.62l-1.686-3.234h.538l1.385 2.723 1.425-2.722h.53l-1.706 3.234z"/><path d="M53.788 56.372l1.37 1.81h-.61l-1.646-2.197c.302 0 .748.02 1.043-.072.472-.144.8-.525.8-1.03 0-.368-.203-.755-.53-.932-.303-.163-.604-.183-.946-.183h-.847v4.416h-.485v-4.855h1.233c.368 0 .854.02 1.195.183.544.264.866.782.866 1.386 0 .827-.63 1.424-1.442 1.476z"/><path d="M56.42 58.183v-.827h.485v.827h-.485z"/><path d="M62.734 57.566c-.197.453-.676.702-1.155.702-.736 0-1.28-.505-1.32-1.24h.48c.032.466.373.8.845.8.722 0 .787-.603.787-1.168v-3.333h.485v3.313c.002.303.002.644-.123.926z"/><path d="M67.17 58.183v-2.277h-2.513v2.277h-.485v-4.855h.485v2.14h2.513v-2.14h.485v4.855h-.485z"/><path d="M72.06 57.363c-.276.59-.827.906-1.47.906s-1.194-.316-1.47-.907c-.138-.295-.184-.682-.184-1.01V53.33h.486v3.023c0 .262.033.643.164.88.216.393.558.596 1.004.596.446 0 .787-.204 1.004-.598.13-.236.164-.617.164-.88V53.33h.486v3.023c0 .327-.046.714-.184 1.01z"/><path d="M76.904 58.183l-2.88-4.27h-.013v4.27h-.485v-4.855h.656l2.71 4.028h.014v-4.028h.485v4.855h-.486z"/><path d="M80.69 57.566c-.195.453-.675.702-1.154.702-.735 0-1.28-.505-1.32-1.24h.48c.033.466.374.8.847.8.722 0 .788-.603.788-1.168v-3.333h.486v3.313c0 .303 0 .644-.125.926z"/><path d="M85.128 58.183v-2.277h-2.513v2.277h-.485v-4.855h.485v2.14h2.513v-2.14h.485v4.855h-.485z"/><path d="M90.018 57.363c-.276.59-.827.906-1.47.906s-1.194-.316-1.47-.907c-.138-.295-.184-.682-.184-1.01V53.33h.486v3.023c0 .262.033.643.164.88.216.393.558.596 1.004.596s.787-.204 1.004-.598c.13-.236.164-.617.164-.88V53.33h.486v3.023c0 .327-.046.714-.184 1.01z"/><path d="M94.862 58.183l-2.88-4.27h-.013v4.27h-.487v-4.855h.656l2.71 4.028h.012v-4.028h.486v4.855h-.486z"/><path d="M100.978 58.183h-.617L99.293 54.2h-.014l-1.063 3.983h-.623l-1.385-4.855h.5l1.187 4.23h.013l1.155-4.23h.453l1.16 4.225h.014l1.187-4.225h.492l-1.392 4.855z"/><path d="M106.42 58.183l-.702-1.634h-2.257l-.708 1.633h-.505l2.073-4.855h.545l2.086 4.855h-.53zm-1.824-4.304l-.95 2.23h1.882l-.932-2.23z"/><path d="M107.852 58.183v-4.855h.486v4.415h2.008v.44h-2.494z"/><path d="M114.952 58.183l-.702-1.634h-2.257l-.71 1.633h-.504l2.072-4.855h.545l2.086 4.855h-.53zm-1.824-4.304l-.95 2.23h1.882l-.932-2.23z"/><path d="M119.155 53.767v1.758h1.896v.44h-1.895v2.218h-.486v-4.855h2.453v.44h-1.968z"/><path d="M124.53 58.268c-1.36 0-2.566-1.102-2.566-2.487 0-1.416 1.155-2.538 2.565-2.538 1.39 0 2.57 1.11 2.57 2.513 0 1.404-1.186 2.513-2.57 2.513zm0-4.586c-1.156 0-2.08.95-2.08 2.1 0 1.122.964 2.047 2.08 2.047 1.134 0 2.085-.926 2.085-2.068s-.944-2.08-2.086-2.08z"/><path d="M131.29 57.363c-.277.59-.828.906-1.47.906s-1.195-.316-1.47-.907c-.14-.295-.185-.682-.185-1.01V53.33h.486v3.023c0 .262.034.643.165.88.216.393.558.596 1.004.596.445 0 .786-.204 1.003-.598.13-.236.164-.617.164-.88V53.33h.486v3.023c0 .327-.046.714-.184 1.01z"/><path d="M136.133 58.183l-2.88-4.27h-.013v4.27h-.486v-4.855h.656l2.71 4.028h.013v-4.028h.486v4.855h-.487z"/><path d="M140.892 57.782c-.44.283-1.07.4-1.58.4h-1.418V53.33h1.417c.52 0 1.143.118 1.582.4.69.44 1.102 1.227 1.102 2.04 0 .808-.426 1.575-1.102 2.014zm-.21-3.64c-.48-.335-1.03-.375-1.6-.375h-.703v3.976h.806c.57 0 1.083-.046 1.562-.394.5-.362.76-.998.76-1.602 0-.635-.3-1.246-.826-1.607z"/><path d="M146.83 58.183l-.7-1.634h-2.258l-.71 1.633h-.504l2.073-4.855h.546l2.086 4.855h-.53zm-1.823-4.304l-.95 2.23h1.882l-.933-2.23z"/><path d="M148.834 53.767v4.416h-.486v-4.416h-1.116v-.44h2.71v.44h-1.108z"/><path d="M150.777 58.183v-4.855h.485v4.855h-.485z"/><path d="M154.898 58.268c-1.358 0-2.565-1.102-2.565-2.487 0-1.416 1.155-2.538 2.565-2.538 1.39 0 2.572 1.11 2.572 2.513 0 1.404-1.188 2.513-2.572 2.513zm0-4.586c-1.155 0-2.08.95-2.08 2.1 0 1.122.964 2.047 2.08 2.047 1.135 0 2.086-.926 2.086-2.068s-.944-2.08-2.086-2.08z"/><path d="M161.914 58.183l-2.88-4.27h-.013v4.27h-.485v-4.855h.656l2.71 4.028h.014v-4.028h.485v4.855h-.486z"/><path d="M170.033 58.262l-1.11-1.083c-.314.602-.74 1.082-1.475 1.082-.82 0-1.53-.65-1.53-1.483 0-.73.507-1.17 1.123-1.444-.295-.29-.544-.578-.544-1.017 0-.63.564-1.077 1.168-1.077.617 0 1.16.506 1.16 1.135 0 .544-.465.938-.944 1.102l.918.906.71-1.365h.544l-.9 1.713 1.228 1.194-.347.335zm-2.645-2.58c-.492.172-.984.566-.984 1.123 0 .538.466.997 1.004.997.604 0 .906-.5 1.148-.97l-1.168-1.15zm.27-1.98c-.342 0-.676.25-.676.61 0 .335.315.623.55.827.382-.146.808-.33.808-.808 0-.38-.322-.63-.682-.63z"/><path d="M176.02 58.268c-1.358 0-2.565-1.102-2.565-2.487 0-1.416 1.155-2.538 2.565-2.538 1.39 0 2.572 1.11 2.572 2.513 0 1.404-1.187 2.513-2.572 2.513zm0-4.586c-1.155 0-2.08.95-2.08 2.1 0 1.122.965 2.047 2.08 2.047 1.135 0 2.086-.926 2.086-2.068s-.944-2.08-2.086-2.08z"/><path d="M180.805 53.767v4.416h-.486v-4.416h-1.117v-.44h2.71v.44h-1.108z"/><path d="M185.747 58.183v-2.277h-2.513v2.277h-.485v-4.855h.484v2.14h2.513v-2.14h.485v4.855h-.485z"/><path d="M187.48 58.183v-4.855h2.658v.44h-2.172v1.744h2.1v.44h-2.1v1.79h2.172v.44h-2.657z"/><path d="M193.138 56.372l1.37 1.81h-.61l-1.646-2.197c.302 0 .748.02 1.043-.072.472-.144.8-.525.8-1.03 0-.368-.203-.755-.53-.932-.303-.163-.605-.183-.946-.183h-.848v4.416h-.486v-4.855h1.234c.368 0 .853.02 1.194.183.544.264.866.782.866 1.386 0 .827-.628 1.424-1.442 1.476z"/><path d="M196.742 58.268c-.86 0-1.483-.57-1.496-1.444h.486c.026.597.4 1.004 1.01 1.004.54 0 .978-.42.978-.964 0-.656-.55-.88-1.082-1.037-.69-.204-1.26-.44-1.26-1.28 0-.768.617-1.306 1.365-1.306s1.345.566 1.345 1.32h-.486c0-.472-.38-.88-.86-.88-.485 0-.878.355-.878.847 0 .65.663.76 1.155.912.695.21 1.187.648 1.187 1.403-.002.808-.665 1.425-1.465 1.425z"/><path d="M.07 50.293H198.37"/></g></svg>