<svg xmlns="http://www.w3.org/2000/svg" width="274.205" height="65.547" viewBox="0 0 274.205 65.547"><g fill-rule="evenodd" clip-rule="evenodd" fill="#19601B"><path d="M1.65 57.922c0 1.524 1.3 2.274 2.676 2.274 1.5 0 2.55-1 2.975-2.375l-.424-.35c-.325.75-.95 1.275-1.775 1.275-1.274 0-1.55-1-1.55-2.075v-6.55h3.226c.226 0 .275-.075.275-.575s0-.55-.3-.55H3.6c0-.625.076-1.325.076-1.976 0-.226-.1-.275-.325-.275-.674.774-1.974 1.825-2.824 2.45-.25.176-.526.4-.526.626 0 .325.2.325.45.325.85 0 1.2 0 1.2.825v6.952z"/><path d="M12.392 44.32c0-1.2.05-2.425.05-3.625 0-.15 0-.4-.175-.4-.074 0-.324.1-.375.126l-1.825.676c-1.024.4-1.274.475-1.274.675s.35.326.725.476c.976.4.976.5.976 2.075v13.502c0 1.175-.4 1.325-1.5 1.325-.35 0-.426 0-.426.3v.226c0 .1.05.175.226.175.9 0 1.8-.125 2.7-.125.524 0 1.625.125 2.6.125.05 0 .075-.125.075-.35 0-.2 0-.35-.05-.35-1.727 0-1.727-.65-1.727-1.2v-6.5c.726-.727 2.025-1.352 3.075-1.352 1.75 0 2.226.875 2.226 2.426v5.875c0 .75-1.15.75-1.55.75-.15 0-.25.075-.25.15 0 .1 0 .55.175.55.898 0 1.774-.125 2.674-.125.825 0 1.476.125 2.476.125.075 0 .125-.025.125-.075v-.45c0-.125-.05-.175-.1-.175-.826 0-1.65 0-1.65-1.075V51.97c0-2.1-.926-3.325-3.1-3.325-1.6 0-2.926 1.1-4.102 2.025v-6.35z"/><path d="M31.783 53.17v-.773c0-2.075-1.575-3.75-3.8-3.75-3.276 0-5.276 3.375-5.276 6.325 0 2.774 2.075 5.225 4.626 5.225 2 0 3.5-1.15 4.5-2.775l-.45-.324c-1.25 1.125-1.9 1.475-2.825 1.475-2.275 0-3.95-2.175-3.95-4.35 0-.35 0-.7.05-1.05h7.125zm-7-.575c.25-1.4 1.274-3.125 2.774-3.125 1.226 0 2.15.875 2.15 2.1 0 .426-.375.9-.7.9l-4.225.125z"/><path d="M42.6 59.07c0 2.427-.15 5.503-1.4 5.503-.726 0-.926-.55-1.126-1.1-.2-.526-.425-1.076-1.25-1.076-.675 0-1.375.55-1.25 1.275.225 1.35 1.55 1.875 2.8 1.875 3.35 0 4.476-3.45 4.476-6.3v-14.9c0-1.15.775-1.25 1.775-1.326l.675-.05.1-.15v-.5l-.125-.124c-1 0-2.5.125-3.75.125-1.7 0-2.5-.124-3.175-.124-.15 0-.375.025-.4.3v.4l.125.125c2.1 0 2.525.35 2.525 1.776V59.07z"/><path d="M54.018 53.896l-3.275 1.274c-2.074.8-2.55 1.6-2.55 2.025 0 1.125.75 3 2.2 3 1.476 0 2.726-1.225 3.676-2.2-.026.625.148 2.2 1.85 2.2 1.074 0 1.7-.975 2-2.175l-.476-.175c-.325.524-.425.725-.9.725-.8 0-.8-1.05-.8-1.575v-5.3c0-2.05-1.075-3.05-3.15-3.05-.1 0-.225.074-.525.25l-2.25 1.3c-.525.3-1.326.925-1.326 1.725 0 .3.075.55.15.75l1.575-.9c-.076-.15-.126-.4-.126-.574 0-.726 1.25-.926 1.925-.926 1.824 0 2 1.05 2 2.426v1.2zm-.025 3.35l-.226.226c-.625.6-1.475 1.475-2.35 1.475-.825 0-1.15-1.275-1.15-1.95 0-.65.9-1.125 1.25-1.274l2.476-1.125v2.648z"/><path d="M61.108 57.82c0 1.176-.4 1.326-1.5 1.326-.35 0-.425 0-.425.3v.226c0 .1.05.175.225.175.9 0 1.8-.125 2.7-.125.525 0 1.625.125 2.6.125.05 0 .076-.125.076-.35 0-.2 0-.35-.05-.35-1.726 0-1.726-.65-1.726-1.2v-6.5c.725-.727 2.025-1.352 3.075-1.352 1.75 0 2.226.875 2.226 2.426v5.876c0 .75-1.15.75-1.552.75-.15 0-.25.075-.25.15 0 .1 0 .55.175.55.9 0 1.775-.125 2.676-.125.824 0 1.474.126 2.474.126.075 0 .125-.025.125-.075v-.45c0-.124-.05-.174-.1-.174-.826 0-1.65 0-1.65-1.075v-6.1c0-2.1-.926-3.325-3.1-3.325-1.602 0-2.927 1.1-4.102 2.025v-1.725c0-.1 0-.3-.1-.3-.15 0-1.85.925-3.1 1.25-.126.024-.15.2-.15.274 0 .174.074.25.15.274l.824.2c.25.05.475.35.475.824v6.353z"/><path d="M82.774 53.17v-.773c0-2.075-1.575-3.75-3.8-3.75-3.275 0-5.275 3.375-5.275 6.325 0 2.774 2.074 5.225 4.624 5.225 2 0 3.5-1.15 4.5-2.775l-.45-.324c-1.25 1.125-1.9 1.475-2.825 1.475-2.275 0-3.95-2.175-3.95-4.35 0-.35 0-.7.05-1.05h7.124zm-7-.575c.25-1.4 1.274-3.125 2.774-3.125 1.226 0 2.15.875 2.15 2.1 0 .426-.375.9-.7.9l-4.224.125z"/><path d="M107.49 54.396c0-1.3.325-1.45 1.525-1.45h.3c.126 0 .176-.3.176-.55 0-.125.025-.325-.15-.325h-7.225c-.225 0-.25.25-.25.576 0 .25.05.4.175.4h1.85c1.05 0 1.7.374 1.7 1.624v1.726c0 1.525-1.525 2.825-4.476 2.825-3.9 0-7.175-3.85-7.175-8.225 0-6 4.624-8.176 7.574-8.176 3.3 0 4.825 1.9 5.15 3.8.024.1.15.1.3.1.125 0 .525-.075.525-.225 0-1.1-.126-3.075-.177-3.275-1.5-.775-3.25-1.375-5.575-1.375-2.875 0-10.6 1.5-10.6 9.6 0 3.8 3.175 8.75 10.35 8.75 1.15 0 4.075-.35 6-1.55v-4.25z"/><path d="M111.306 54.596c0 3.05 2.4 5.6 5.426 5.6 3.274 0 6.25-2.35 6.25-5.95 0-3-2.6-5.6-5.575-5.6-3.326 0-6.1 2.6-6.1 5.95zm9.425.45c0 2.15-.975 4.325-3.425 4.325-2.575 0-3.75-2.924-3.75-5.124 0-2.4.75-4.775 3.275-4.775 3.05 0 3.9 3.076 3.9 5.576z"/><path d="M124.82 54.596c0 3.05 2.4 5.6 5.426 5.6 3.275 0 6.25-2.35 6.25-5.95 0-3-2.6-5.6-5.574-5.6-3.325 0-6.1 2.6-6.1 5.95zm9.427.45c0 2.15-.976 4.325-3.426 4.325-2.574 0-3.75-2.924-3.75-5.124 0-2.4.75-4.775 3.276-4.775 3.05 0 3.9 3.076 3.9 5.576z"/><path d="M148.862 44.32c0-1.2.05-2.425.05-3.625 0-.15 0-.4-.175-.4-.075 0-.25.075-.375.126l-1.825.75c-.476.176-1.1.376-1.1.6 0 .2.2.326.574.476.776.3.95.476.95 1.4v5.55c-.474-.324-1.874-.55-2.5-.55-3.475 0-5.925 3.05-5.925 6.376 0 2.65 1.825 5.175 4.626 5.175 1.5 0 2.75-1.024 3.85-1.925v1.375c0 .075.026.475.102.475.6 0 2.925-.85 3.6-1.125v-.475c0-.125-.074-.25-.15-.25-.05 0-.574.25-.975.25-.425 0-.725-.25-.725-1.025V44.32zm-1.9 13.076c-.825.9-1.7 1.35-2.925 1.35-2.25 0-3.426-2.675-3.426-4.575 0-2.05.95-4.7 3.4-4.7 1.65 0 2.95 1.276 2.95 2.9v5.026z"/><path d="M158.826 53.896l-3.274 1.274c-2.075.8-2.55 1.6-2.55 2.025 0 1.125.75 3 2.2 3 1.475 0 2.725-1.225 3.675-2.2-.024.625.15 2.2 1.85 2.2 1.075 0 1.7-.975 2-2.175l-.475-.175c-.325.524-.425.725-.9.725-.8 0-.8-1.05-.8-1.575v-5.3c0-2.05-1.074-3.05-3.15-3.05-.1 0-.225.074-.524.25l-2.25 1.3c-.525.3-1.325.925-1.325 1.725 0 .3.074.55.15.75l1.574-.9c-.075-.15-.125-.4-.125-.574 0-.726 1.25-.926 1.925-.926 1.825 0 2 1.05 2 2.426v1.2zm-.024 3.35l-.226.226c-.625.6-1.475 1.475-2.35 1.475-.825 0-1.15-1.275-1.15-1.95 0-.65.9-1.125 1.25-1.274l2.476-1.125v2.648z"/><path d="M168.268 44.32c0-1.2.05-2.425.05-3.625 0-.15 0-.4-.175-.4-.075 0-.325.1-.375.126l-1.825.676c-1.024.4-1.274.475-1.274.675s.35.326.724.476c.975.4.975.5.975 2.075v13.502c0 1.175-.4 1.325-1.5 1.325-.35 0-.426 0-.426.3v.226c0 .1.05.175.226.175.9 0 1.8-.125 2.7-.125.524 0 1.625.125 2.6.125.05 0 .075-.125.075-.35 0-.2 0-.35-.05-.35-1.726 0-1.726-.65-1.726-1.2V44.32z"/><path d="M175.21 44.32c0-1.2.05-2.425.05-3.625 0-.15 0-.4-.176-.4-.075 0-.325.1-.375.126l-1.826.676c-1.025.4-1.275.475-1.275.675s.35.326.725.476c.975.4.975.5.975 2.075v13.502c0 1.175-.4 1.325-1.5 1.325-.35 0-.425 0-.425.3v.226c0 .1.05.175.225.175.9 0 1.8-.125 2.7-.125.525 0 1.625.125 2.6.125.05 0 .076-.125.076-.35 0-.2 0-.35-.05-.35-1.726 0-1.726-.65-1.726-1.2V44.32z"/><path d="M189.625 44.345c0-1.15.775-1.25 1.775-1.325l.675-.05.1-.15v-.45l-.124-.175c-1 0-2.5.125-3.75.125-1.7 0-2.5-.125-3.175-.125-.15 0-.375.025-.4.3l.05.4.076.125c2.1 0 2.525.35 2.525 1.775v11.95c0 1.9-.075 2.275-1.8 2.275-.725 0-.775.05-.8.375 0 .25.024.4.125.45 1.3 0 2.524-.125 3.725-.125 1.025 0 2.7.125 3.05.125.226 0 .6-.025.6-.175v-.476l-.124-.175c-2.45-.126-2.524-.15-2.524-3.8V44.344z"/><path d="M195.642 57.82c0 1.176-.4 1.326-1.5 1.326-.35 0-.425 0-.425.3v.226c0 .1.05.175.225.175.9 0 1.8-.125 2.7-.125.525 0 1.625.125 2.6.125.05 0 .075-.125.075-.35 0-.2 0-.35-.05-.35-1.725 0-1.725-.65-1.725-1.2v-6.5c.725-.727 2.024-1.352 3.075-1.352 1.75 0 2.225.875 2.225 2.426v5.876c0 .75-1.15.75-1.55.75-.15 0-.25.075-.25.15 0 .1 0 .55.175.55.9 0 1.775-.125 2.676-.125.824 0 1.475.126 2.475.126.075 0 .125-.025.125-.075v-.45c0-.124-.05-.174-.1-.174-.825 0-1.65 0-1.65-1.075v-6.1c0-2.1-.925-3.325-3.1-3.325-1.6 0-2.926 1.1-4.1 2.025v-1.725c0-.1 0-.3-.102-.3-.148 0-1.85.925-3.1 1.25-.124.024-.15.2-.15.274 0 .174.076.25.15.274l.826.2c.25.05.475.35.475.824v6.353z"/><path d="M215.407 49.42c-.95-.5-1.95-.774-2.95-.774-1.9 0-3.8 1.05-3.8 3.126 0 1.9 1.85 2.75 3.3 3.5.625.325 1.774 1.2 1.774 2.024 0 1.3-.798 2.075-2.073 2.075-1.1 0-2.225-1.148-2.5-2.174-.05-.175-.076-.35-.176-.475l-.724.075.125 2.275c.026.4 1.6 1.125 3.226 1.125 2.025 0 4.025-1.35 4.025-3.525 0-1.55-1.3-2.425-2.624-3.175-1.3-.725-2.625-1.325-2.625-2.3 0-1.176.9-1.726 2.052-1.726 1.324 0 1.9 1.174 2.2 2.274h.624l.15-2.323z"/><path d="M219.298 57.922c0 1.524 1.3 2.274 2.676 2.274 1.5 0 2.55-1 2.975-2.375l-.426-.35c-.325.75-.95 1.275-1.775 1.275-1.275 0-1.55-1-1.55-2.075v-6.55h3.224c.226 0 .275-.075.275-.575s0-.55-.3-.55h-3.15c0-.625.074-1.325.074-1.976 0-.226-.1-.275-.325-.275-.676.774-1.977 1.825-2.826 2.45-.25.175-.525.4-.525.625 0 .324.2.324.45.324.85 0 1.2 0 1.2.825v6.952z"/><path d="M230.44 52.67c0-1.2.05-2.424.05-3.624 0-.15 0-.4-.176-.4-.075 0-.325.1-.375.125l-1.826.677c-1.025.4-1.275.475-1.275.675 0 .2.35.325.725.475.976.4.976.5.976 2.075v5.15c0 1.175-.4 1.325-1.5 1.325-.35 0-.425 0-.425.3v.226c0 .1.05.175.225.175.9 0 1.8-.125 2.7-.125.525 0 1.626.125 2.6.125.05 0 .075-.125.075-.35 0-.2 0-.35-.05-.35-1.725 0-1.725-.65-1.725-1.2V52.67zm-2.426-8.833c0 .775.625 1.4 1.4 1.4.775 0 1.4-.625 1.4-1.4 0-.774-.625-1.4-1.4-1.4-.775 0-1.4.625-1.4 1.4z"/><path d="M235.28 57.922c0 1.524 1.3 2.274 2.676 2.274 1.5 0 2.55-1 2.975-2.375l-.424-.35c-.325.75-.95 1.275-1.775 1.275-1.273 0-1.55-1-1.55-2.075v-6.55h3.227c.225 0 .274-.075.274-.575s0-.55-.3-.55h-3.15c0-.625.076-1.325.076-1.976 0-.226-.1-.275-.325-.275-.674.774-1.974 1.825-2.824 2.45-.25.175-.524.4-.524.625 0 .324.2.324.45.324.85 0 1.2 0 1.2.825v6.952z"/><path d="M244.197 56.746c0 2.426 1.475 3.45 3.475 3.45 1.45 0 2.75-1.2 3.7-2.175v.926c0 .325-.05.575-.05.775 0 .15.05.476.125.476.1 0 2.825-1.1 3.425-1.274.05-.025.1-.15.1-.375 0-.15-.023-.275-.074-.275-.074 0-.625.175-1.175.175-.426 0-.426-.5-.426-1.7v-6.55c0-.35.05-.726.05-1 0-.325-.074-.55-.324-.55-.1 0-.65.1-1.325.225s-1.476.25-2.125.325c-.15.024-.175.05-.175.175v.425c0 .075.25.1.375.1 1.024 0 1.625.125 1.625 1.5v5.826c-.726.7-1.726 1.35-2.8 1.35-1.826 0-2.5-.85-2.5-2.55v-5.825c0-.35.05-.726.05-1 0-.325-.075-.55-.325-.55-.1 0-.65.1-1.325.225-.675.125-1.476.25-2.125.325-.15.024-.176.05-.176.175v.425c0 .075.25.1.375.1 1.025 0 1.626.125 1.626 1.5v5.348z"/><path d="M257.638 57.922c0 1.524 1.3 2.274 2.675 2.274 1.5 0 2.55-1 2.976-2.375l-.426-.35c-.325.75-.95 1.275-1.775 1.275-1.276 0-1.55-1-1.55-2.075v-6.55h3.224c.226 0 .275-.075.275-.575s0-.55-.3-.55h-3.15c0-.625.074-1.325.074-1.976 0-.226-.1-.275-.325-.275-.676.774-1.976 1.825-2.826 2.45-.25.175-.524.4-.524.625 0 .324.2.324.45.324.85 0 1.2 0 1.2.825v6.952z"/><path d="M274.154 53.17v-.773c0-2.075-1.574-3.75-3.8-3.75-3.274 0-5.275 3.375-5.275 6.325 0 2.774 2.074 5.225 4.625 5.225 2 0 3.5-1.15 4.5-2.775l-.45-.324c-1.25 1.125-1.9 1.475-2.825 1.475-2.275 0-3.95-2.175-3.95-4.35 0-.35 0-.7.05-1.05h7.124zm-7-.575c.25-1.4 1.275-3.125 2.775-3.125 1.224 0 2.15.875 2.15 2.1 0 .426-.376.9-.7.9l-4.226.125z"/></g><path fill-rule="evenodd" clip-rule="evenodd" fill="#19601B" d="M80.07 10.303s.125.688 1.29 2.104c1.092 1.322 1.807 2.386 1.51 3.794-.27 1.292-1.93 1.788-2.213 3.618-.022.17.014.26.187.282 3.673.497 6.033 1.585 8.36 2.846.152.083.204.006.248-.114.325-.9-.732-2.63-.765-3.173-.04-.673.17-1.105.46-1.54.19-.278.565-.84.81-1.35.226-.473.59-1.33 1.825-1.48.787-.092 1.856-.453 2.166-.77.293-.3.39-.737.292-1.15-.09-.383-.172-.47-.02-.623.148-.148.257-.398.13-.57-.102-.134-.286-.212-.392-.244.227-.02.465-.116.596-.257.2-.214.167-.395.076-.81-.07-.33-.105-.442-.054-.525.136-.216.533-.29.813-.65.302-.39.052-.766-.338-1.1-.358-.31-1.273-1.316-1.39-1.89-.108-.523-.056-1.192-.302-1.848-.264-.704-.99-1.53-1.472-1.896-.412-.315-.6-.505-.576-.832.062-.938-.668-1.665-1.56-1.686-.88-.02-1.27.19-3.235.19-1.818 0-3.126.432-4.355 1.49-1.125.967-2.445 2.58-2.655 5.382-.02.243-.05.22-.152.232-.463.05-2.135.265-3.778 1.784-1.432 1.324-2.045 4.182-.312 7.02.8 1.31 1.363 1.983 1.606 3.1.063.28.256.11.326.07.91-.51 1.146-.667 1.893-1.215 1.31-.96 1.864-2.963.9-5.005-1.09-2.314.08-3.182.08-3.182z"/><path fill-rule="evenodd" clip-rule="evenodd" fill="#19601B" d="M105.802 5.13c.466.375.478.524.36.778-.146.318-.66.73-.326 1.046.104.098.16.12.155.248-.006.157-.204 1.298.527 1.93 1.092.944 2.618.32 3.54-.662.116-.125.26-.3.415-.176.17.137.636 1.47-.555 2.784-.817.9-2.556 2.275-3.688 3.408-.602.6-1.08 1.434-1.468 1.854-.503.547-.926 1.984-.963 2.69-.052.974.097 1.332.368 1.733.336.5 1.432.798 1.562.423.08-.232-.04-.463-.298-.7-.207-.19-.452-.332-.27-.82.126-.343.588-.4.63-1.062.037-.57-.1-1.108.284-1.396.575-.43.823-.587 1.737-1.145.383-.233 1.183-.532 1.658-.73 1.703-.7 2.662-1.478 3.2-2.025.078-.08.45-.425.473-.45.07-.08.07-.028.1.136.097.5.46 2.54.212 4.36-.216 1.59-.848 3.15-1.028 3.59-.46 1.12-.052 1.537.28 1.512.528-.04 1.18-.15 2.08-.01.467.07.475-.382.272-.54-.384-.305-.407-.472-.317-.842.09-.37.13-.993.143-1.303.01-.302.172-1.406.532-2.046.36-.64.978-1.602 1.25-2.753.217-.908.34-1.58.317-1.962-.007-.11-.007-.36-.002-.447.002-.033.038-.08.088-.088 1.022-.154 2.91.2 3.405.395.154.06.148.127.082.192-.22.22-.81.896-1.02 1.478-.124.342-.41 1.284.257 2.526.434.81 1.152 2.112 1.418 2.83.194.524.052.86-.238 1.133-.273.254-.632.382-.938.502-.763.3-.533 1.008-.062.94 1.12-.16 2.43-.098 2.954-.014.398.063.727-.16.612-1.013-.025-.18.185-1.15.066-2.506-.108-1.23-.694-2.373-1.097-3.087-.11-.192-.117-.195.205-.258 1.082-.208 2.284-.763 2.602-.91.16-.073.524-.252.763-.348.147-.054.248-.11.268-.01.084.435.23 1.085.602 1.767.382.698 1.063 1.56 2.725 1.984.902.23 2.436.576 2.843.722.706.253.55.713-.033 2.274-.245.655.238 1.067.707.636.553-.51 1.106-1.375 2.29-2.11.368-.23.592-.76-.31-1.587-.964-.89-3.128-1.28-4.1-2.388-.547-.622-1.15-3.16-1.424-3.85-.233-.59-.257-.717-.32-1.06-.058-.324-.477-1.833-1.6-3.02-.552-.583-1.133-1.584-3.346-2.345-2.104-.725-2.778-1.557-4.07-2.053-1.278-.49-3.224-1.383-6.62-.884-1.213.178-1.403.344-2.018-.3-.804-.842-1.616-1.11-2.944-.877-1.106.194-2.17.877-2.645 2.29-.05.143-.028.23-.156.28-.484.2-.625.94-.128 1.338z"/><path fill-rule="evenodd" clip-rule="evenodd" fill="#19601B" d="M147.764 6.793C145.46 5.353 144.94 3.807 144.13 2c-.065-.147-.12-.17.072-.225.248-.068.73-.367 1.188-.397.392-.027.59.035.693.068.085.027.083.023.085.223.005.666.494 2.63 2.425 3.806.186.114.18.21.29-.143.112-.362 1.25-2.508 3.137-3.585 1.202-.687 1.412-.374 2.957-1.69.117-.1.143-.08.193.16.258 1.245.12 2.283-.295 3.323-.084.21-.073.27.223.15.877-.35 3.483-1.024 6.35.082 2.728 1.052 3.57 1.49 4.385 1.76.198.064.127.12.047.265-.082.146-.963 1.815-2.17 2.81-1.155.954-2.21 1.516-2.82 1.882-.1.06-.12.06-.024.15.794.74 2.597 2.397 3.627 6.176.316 1.16.596 1.968.876 2.526.097.195.14.247-.165.322-.642.16-5.212.75-7.305-.11-2.102-.86-2.908-1.875-3.102-2.055-.116-.11-.14-.064-.186.157-.06.288-.55 2.386-1.513 3.478-.6.68-1.232 1.894-1.44 2.33-.062.127-.065.253-.302.026-5.102-4.89-4.693-9.624-4.68-9.946.006-.172-.088-.172-.22-.124-.128.05-2.036 1.037-3.525.743-.17-.032-.206-.054-.036-.263.506-.62 1.162-2.852 1.838-4.362.658-1.47 1.806-2.227 3.018-2.523.13-.032.21-.097.01-.222z"/><path fill-rule="evenodd" clip-rule="evenodd" fill="#19601B" d="M184.205 7.585c-.487-.628-1.847-1.595-2.365-2.027-.52-.434-1.445-1.316-1.818-2.258-.332-.838-.68-1.455-.827-1.76-.25-.517-.24-.94.123-1.247.378-.318.79-.258 1.294.08.46.308.878.768 1.826 2.54.172.32.196.37.48.472.398.143 1.403.828 2.136 1.216 1.158.614 2.653 1.226 3.006 1.36.354.134 1.372.423 1.537.423.123-.02.154-.236.16-.424.006-.26-.87-1.108-1.186-1.532-.202-.273-.705-.56-.964-.798-.354-.328-.876-1.058-.87-1.905.006-.54.426-1.03 1.097-.854.55.145.77.937 1.895 1.654.662.423 2.876 1.984 3.96 3.63.938 1.424 1.338 1.897 2.417 3.414.357.503 1.113 1.656 1.027 3.282-.01.183.006.36.182.546.187.194.462.535.89.917.855.763.905.805 1.24 1.216.47.577.827 1.132.26 1.63-2.104 1.86-2.936 3.614-5.226 5.102-.497.323-.895-.08-1.206-.373-.465-.438-1.27-1.145-1.53-1.445-.078-.088-.274-.266-.634-.358-2.23-.575-3.64-1.02-5.104-1.77-1.25-.644-2.362-1.166-2.532-1.216-.315.02-1.14-.01-1.936-.08-1.71-.15-3.185-.687-4.275-1.594-.985-.82-1.575-1.297-1.82-1.537-.247-.242-.28-.807.325-1.082.523-.237 1.027 0 1.46.317.453.332 1.002.533 1.823.93.148.07.415.24.635.232 1.027-.038 1.495-.152 2.02-.138.14.003.387-.435.264-.55-.44-.4-1.604-.448-2.482-.76-.992-.354-3.178-1.913-3.66-2.317-.538-.45-.663-.805-.876-1.078-.216-.272-.698-.69-.77-1.12-.05-.293-.015-.902.826-1.072.604-.122 1.48.696 2.357 1.51.747.69 1.114 1.07 2.337 1.352.736.17 2.336.543 2.502.597.107.007.528-.184.287-.425-.242-.24-.64-.475-1.374-.812-1.317-.606-2.603-1.07-3.3-2.3-.716-1.263-1.598-2.61-2.064-3.19-.46-.576-.523-1.425.47-1.66.876-.208 1.274.46 1.47.712.347.44 1.897 2.166 2.23 2.697.09.143.174.274.426.382.624.265 2.27 1.203 3.165 1.716.256.146.697-.005.692-.247z"/></svg>