<svg id="Layer_1" xmlns="http://www.w3.org/2000/svg" viewBox="0 0 272.4 50"><style>.st0{fill:#19601b}</style><title>Artboard 1</title><path class="st0" d="M87.3 12.4h-5.4l-.1.3L72.6 38H76c.8.1 1.5-.1 2.2-.5.6-.5 1-1.1 1.2-1.8l1.4-4h7.7l1.4 4c.2.7.6 1.3 1.2 1.8.7.4 1.4.6 2.2.5h3.4l-9.4-25.6zm-2.7 7c.2.7.4 1.5.6 2.1l1.9 5.6h-5l1.9-5.7c.2-.5.4-1.4.6-2zM47.2 32.7l-.4.2.4-.2-3.2-6.3c-.3-.6-.7-1.1-1.2-1.5.5-.5.9-1 1.2-1.6l5.9-10.8h-6L38.8 22c-.1.2-.3.4-.5.5-.3.1-.7.1-1 .1H35v-7.2c.1-.8-.2-1.5-.7-2.1-.6-.5-1.3-.8-2.1-.7h-2.7V38H35V27.2h1.9c.4 0 .8 0 1.2.1.3.1.5.3.6.5l4 8.1c.3.7.8 1.3 1.5 1.7.7.3 1.5.4 2.3.4h3.3l-.3-.7c0 .1-2-3.9-2.3-4.6zM70.6 12.4h-2.2c-.8-.1-1.5.2-2.1.7-.5.6-.8 1.3-.7 2.1v7.6h-8.2v-7.6c.1-.8-.2-1.5-.7-2.1-.6-.5-1.3-.8-2.1-.7H52V38h5.5V27.6h8.2V38h5.5V12.4h-.6zM117.6 12.4h-2.2c-.8-.1-1.5.2-2.1.7-.5.6-.8 1.3-.7 2.1v12.5c-.3-.7-.7-1.3-1.1-1.9l-8.1-13.4h-5.3V38h2.7c.8.1 1.5-.2 2.1-.7.5-.6.8-1.4.7-2.1V23.9v-1.2c.3.7.7 1.3 1.1 1.9l8.2 13.4h5.2V12.4h-.5zM129.5 12.5h2.7l9.6 25.4h-.8c-1.8 0-2.3-.4-3-2.1l-2.3-6h-10l-2.3 6c-.7 1.7-1.1 2.1-2.9 2.1h-.7l9.7-25.4zm5.7 15.2l-3.4-9.1c-.4-1.2-1-3.3-1-3.3h-.1s-.5 2.1-1 3.3l-3.3 9.1h8.8zM173 12.5h2.7l9.6 25.4h-.8c-1.8 0-2.3-.4-3-2.1l-2.3-6h-10.1l-2.3 6c-.6 1.7-1.1 2.1-2.9 2.1h-.7l9.8-25.4zm5.7 15.2l-3.4-9.1c-.4-1.2-1-3.3-1-3.3h-.1s-.5 2.1-1 3.3l-3.3 9.1h8.8zM228.8 12.5h2.6l6.7 14.8c.6 1.3 1.3 3 1.3 3h.1s.6-1.7 1.2-3l6.7-14.8h2.6l2.2 25.4h-.7c-1.6 0-2.1-.7-2.2-2.2L248 20.3c-.1-1.4-.1-3.5-.1-3.5h-.1c-.4 1.2-.8 2.4-1.3 3.5l-6 12.9h-2.3l-6-12.9c-.6-1.3-1.3-3.6-1.3-3.6h-.1s0 2.2-.1 3.6l-1.2 15.5c-.1 1.5-.6 2.2-2.2 2.2h-.6l2.1-25.5zM261 26.9l-8.9-14.4h.8c1.7 0 2.4.2 3.5 2l4.3 7.2c.8 1.3 1.5 2.9 1.5 2.9h.1s.8-1.5 1.5-2.9l4.3-7.2c1.1-1.8 1.7-2 3.5-2h.8l-8.9 14.4V38H261V26.9zM160.9 18.7c-1.6-2.9-4.6-4.6-7.9-4.5-5.6 0-10 4.4-10 10.6s4.3 11 10.1 11c2.3 0 4.5-.6 6.4-2 1.1-.7 2.4-.6 3.4.2-2.6 2.7-6.1 4.1-9.8 4.1-7.4 0-12.7-5.9-12.7-13.4s5.4-13 12.6-13c3.6 0 8.1 1.6 9.8 5.4.4.8.7 1.7.8 2.6 0 .2-2.1.4-2.7-1zM194.8 12.5h-7.9v23.2c0 1.5.6 2.2 2.2 2.2h5.6c7.7 0 12.8-4.6 12.8-12.7s-5-12.7-12.7-12.7zm-.2 23.2h-4.3c-.4 0-.7-.2-.8-.6V14.8h5.1c6.2 0 10.4 3.7 10.4 10.5s-4.2 10.4-10.4 10.4zM221.9 35.7H213c-.4.1-.7-.2-.8-.6V26.3h9.6V24h-9.6v-9.3h11.9c0-1.6-.6-2.2-2.2-2.2h-12.2v23.2c0 1.5.6 2.2 2.2 2.2h11c1.6 0 2.2-.7 2.2-2.2h-3.2zM1.1 36.4S-3 26.7 4.3 19.5c6.6-6.6 16.5-7.6 18.3-7.6 0 0 2.7 8.8-4 18.7S2.7 37.8 2.7 37.8s9.1-11.6 8-11.6c-.7.1-5.5 5.4-9.6 10.2z"/></svg>