<svg xmlns="http://www.w3.org/2000/svg" viewBox="0 0 583.83 164.55"><title>Plan de travail 1</title><path d="M130.48 90.22c.1.42.05.66-.14.76s-.11.11-.72.45-.43-.06-.55-.81-.08-2.18-.2-2.66.46-.33.86-.12a9.75 9.75 0 0 1 .75 2.38zM104 71.8c.3-.39.32-.68.6-.71s.31.12.35.37.39.45.24.64-.42.06-.65.39-.41.46-.35.69.32.67.45.28.25-.44.41-.29-.53.44-.26.61a2.16 2.16 0 0 0 1.49-.09 2.91 2.91 0 0 1 1-.19c.21 0 .34-.48.21-.86a2.43 2.43 0 0 1 0-1.32 3.23 3.23 0 0 0 .25-1.33 3.62 3.62 0 0 1 0-1.07c0-.16-.7-1-1.53.11-.55.8-.58 1.09-.87 1.27s-.34.12-.68 0-.48-.14-.63.33a2.26 2.26 0 0 1-.43.78c-.21.25.09.79.4.39zm57.87 10.3c-.48.53-.82 1-1 1.18s-.3.52-.05.71a1.18 1.18 0 0 0 .42.25c.26.08.53-.26.73-.53s.93-1.26.82-1.77-.26-.6-.94.15zm35.72 40.75a72.27 72.27 0 0 1-41.43 36.41c-.63.21-1.26.42-1.9.61-38.51 12-79.76-10.09-92-49.23a76.36 76.36 0 0 1-3.09-15.4L42.51 154.5a1 1 0 0 1-.5.62l-12.73 6.71a9 9 0 0 1-3.79 1 47.28 47.28 0 0 1-12.3-1.71 44.88 44.88 0 0 1-12.45-5.69 2.14 2.14 0 0 1-.65-2.34C.26 152.4 41.64 5.5 41.64 5.5a.92.92 0 0 1 .09-.21v-.06a1.24 1.24 0 0 1 .1-.13l.11-.1.11-.1h.08l.12-.06L55.71.06a1 1 0 0 1 1 .21 1.16 1.16 0 0 1 .29.54 1.2 1.2 0 0 1 0 .46l24.08 6.68 1.18-.42a1 1 0 0 1 1 .21 1 1 0 0 1 .28 1l-9.77 34.73A71.67 71.67 0 0 1 93.6 25.33h.11a72.18 72.18 0 0 1 14.42-6.77c.62-.22 1.26-.42 1.89-.61a71.64 71.64 0 0 1 10.47-2.44h.14a72.25 72.25 0 0 1 45.25 7.87 75.24 75.24 0 0 1 31.71 99.55zm2.79-50.78a36.2 36.2 0 0 1-3 12.78c.94 2.2 1.82 4.48 2.63 6.84a37.27 37.27 0 0 1 1.76 8.09 37.74 37.74 0 0 0 2.34-9.18 122.18 122.18 0 0 0-1.8-12.31 29.31 29.31 0 0 0-1.95-6.23zm-9.44.24A93.87 93.87 0 0 1 197 84a34.19 34.19 0 0 0 2.68-13.19 7 7 0 0 0-1.39-1.71 5.41 5.41 0 0 1-1.94-2.63c-.38-.92-.59-1.31-.67-.29s-.42 2-2.09 1.41-1.23.11-1.2.64a6.13 6.13 0 0 1-.71 2.66c-.2.39-.46.9-.76 1.4zm2.21 16.1a5.69 5.69 0 0 0-.64 3.26 3.78 3.78 0 0 0 .13.71 52.08 52.08 0 0 0 4-7.49q-1.54-3.59-3.27-6.89a24.27 24.27 0 0 0 0 2.91 24.61 24.61 0 0 0 .46 3.2 1.38 1.38 0 0 1-.29 1.41 1.51 1.51 0 0 0 0 1.66c.22.3.03.72-.41 1.22zm-12.49-9.14a2.27 2.27 0 0 1 1.25.69c.17.26.28.32.72.14s.79-.34 1.45.45 1.3 1.84 1.81 1.46-.28-.18-.41-.73.89-.63 1-.11 0 1.39.6.89 1.29-.49 1.47-2.66-.21-4.85.77-2.86 2.79.71 3.17.32a.48.48 0 0 1 .23-.13 83.22 83.22 0 0 0-2.15-3.74 8.61 8.61 0 0 1-1 1.36c-.53.47-.59.54-1 0s-1-1.41-1 0-.4 2.11-1.57 2.65-2.25.89-2.94.11-1.34-1.25-1.84-.55-1.23 1.1-1.28 2 .22.62.7.7zm6.34 26.14c-.18.18-.28 1 .55.46.34-.23 1-.64 1.61-1.14-.23-.77-.47-1.55-.73-2.36a2.34 2.34 0 0 1-.18.66c-.27.45-.59 1.58-1.13.58a5.8 5.8 0 0 0-1-1.66c-.72.8-1.47 1.61-2.23 2.39a6.34 6.34 0 0 1 3.15.15c.88.32.16.72-.04.92zm-18-55.32a4.42 4.42 0 0 0 1.68 3.14c1.1.86 2.22-.11 1.29-2q-1-.88-2.06-1.72c-.36-.12-.91-.28-.84.58zm-5.56 5.71c0 1.08.19 2.87.26 3.69.39.41.78.83 1.16 1.26.48 0 1 .1 1.11.71.06.32.1.53.14.68l.19.21a.65.65 0 0 0 .26 0 12.73 12.73 0 0 1 3 .83c.85.35.92.21 1.17.14s.36 0 .35.51a6.24 6.24 0 0 0 .22 2.07 1.63 1.63 0 0 0 1.61 1.1c1.07.18 3.52.22 3.65-1.84.13-1.85-.35-1.28-.7-1.64a4.69 4.69 0 0 1-.84-1.21c-.15-.34-.17-.41-.56-.3a2.88 2.88 0 0 1-1.72-.54c-.23-.24-.46-.36-.19-.72s.61-1 .3-1.53-.42-.45-.85-.47-1.08-.36-1.17 0 .7 1 .05 1.18-.33-.94-.85-1.12-.74.34-1.26.19a9.39 9.39 0 0 0-1.71-.62c-.64-.08-1.23-.11-.3-.72.22-.14.33-.68 0-.77-.69-.18-1.6-.27-.75-.82s.75-.58.6-.81-.5-.39-.57-.56c-.12-.4-.22-.47-.61-.47s-1.89.39-1.92 1.56zm-9.93 11.15a7 7 0 0 1 .52.61q1.14-.82 2.2-1.67c-.16-.28-.31-.52-.37-.61a1 1 0 0 1-.28-.88c.08-.4 0-.25-.55-.08s-.47-.51-.33-.6.63-.51 1-.77 0-1-.62-.54-1.59 2.53-2.06 3c-.67.69-.02 1.1.56 1.54zm-.87 2.47c-.77.54-1.56 1.06-2.36 1.58q1.52 2.37 3.06 4.91a1.09 1.09 0 0 1 .14-.12 8.85 8.85 0 0 0 1.5-2.24c.5-.82 1-1.89 2.19-1.6.81.18 1.33-.42 2.06-.73a21.32 21.32 0 0 1 2.86-1.27.66.66 0 0 0 .74-.45c.18-.42.79-1.3.24-2.06s-.36-.76-1.35-.81a14.12 14.12 0 0 1-2.83.1c-1.09-.24-1-.53-2-.22l-.32.09c-.73.57-1.48 1.14-2.24 1.7-.32.8-.67 1.69-1.12 1.42a3.25 3.25 0 0 0-.49-.3zm-4-1c.43.64.84 1.29 1.27 2 .53-.33 1-.68 1.56-1a2.49 2.49 0 0 1-.14-.49c0-.45-.29-.62.11-.88s.36-.15.35-.56 0-.66-.54-.17-1.34 1.5-1.4.53c0-.31-.54-.68-.82-.41a1.56 1.56 0 0 0-.33 1zm-.18 3.68a17.61 17.61 0 0 1 .29 2.58c-.05.68 0 1.57.82 1.76s1.13.53 1.46.61.74.12.21.68-.95.64-1.12 1.08-.07 1 .79.42 1.41-.84 1.59-1.51a8 8 0 0 1 .4-1.18c-1.09-1.8-2.17-3.52-3.23-5.2v.08a.68.68 0 0 1-.28.08zm-5.77-43.43a.93.93 0 0 1 .54 1c0 .39-.15.71.4.38s.86-.64.35-1.08a3.5 3.5 0 0 0-1.23-.85c-.29-.06-.48.3.01.57zm-3.67-1.36c-.42 0-.53-.4-.9-.37s-.41.53.14.68a4.9 4.9 0 0 1 1.13.38 1.08 1.08 0 0 0 1.07.18c.41-.23.17-.54-.39-.52s-.57-.28-.99-.33zm-2.74 6.48c0-.19.1-.51.4-.16s.43.8.62.18.25-.75.65-1 .3-.46 0-.54a7.66 7.66 0 0 1-1.38-.75c-2.27-.76-4.46-1.42-6.56-2a5 5 0 0 0 1.49 1.7 8.29 8.29 0 0 0 2.54.34c.66.09 1.39.73.08.8a5 5 0 0 0-1.64.25 1.2 1.2 0 0 1-1.39-.54c-.37-.44-1.23-1.33-1.86-1.93a25.12 25.12 0 0 1-2.35 2.09c2.91 1.46 6.07 3.2 9.38 5.19a2.93 2.93 0 0 1-.25-1.1 4.34 4.34 0 0 1 .29-1.8c.23-.25.03-.52.05-.71zm-1.58 57.5c0-.34 1-.67 1.72-.68a1.4 1.4 0 0 0 1.14-.41L135.9 86a25 25 0 0 0-2.5-.67c-1.1-.18-3.35-.48-4.23-1.88s-1.52-2.25-2.59-.91a10.14 10.14 0 0 0-1.2 1.54c-.47.77-1.07 1.55-1.61 1.65s-.91-.43-1.16-.65-.84.29-1.19.6-1.21.64-.85 1.08 1.17 1.27.09 2.32a25.81 25.81 0 0 0-2.52 2.36c.53 2.44 1.11 4.92 1.72 7.46a10.76 10.76 0 0 1 2.86-1.66c2.37-.84 6-1.19 8.29-3.17.77-.68 1-.61 1.19-.47s.74 0 1-.06.53.12.21.67-.37 1 .3 1.44 1.7 1 .71 2-1.11 1.73-.29 1.62a11.79 11.79 0 0 1 2.82.61 2.11 2.11 0 0 0 1.9-.59 2.13 2.13 0 0 1 1.69-.63 1.32 1.32 0 0 1 .44.13q-1.32-3.35-2.62-6.58l-.19-.08a4 4 0 0 0-1.79-.13c-.81 0-1.67-.37-1.68-.71zm21.56 58.3c.53-.42.87-.47-.63-1-2.61-1-7.47-2.47-8.09-3.15a108 108 0 0 1-12.47 3.07 54.67 54.67 0 0 0 4.68 9.12A97.75 97.75 0 0 0 153.3 154q1.38-.47 2.72-1l.15-.14c2.22-2.07 2.31-2.25 1.39-2.43s-1.82-.43-1.29-.84zM60.1 83.75a21.42 21.42 0 0 0 1.09 8 20.21 20.21 0 0 0 1 2.48 69.75 69.75 0 0 1 3.63-18.33c0-.21-.06-.44-.1-.66s-.28-.46-.4-.7c-.33.05-.81.37-1.17.45s.15-1 .42-1.72a1.13 1.13 0 0 0 .06-.2l-.16-.43a1.18 1.18 0 0 0-.63-.05c-.48.08-.64 0-.92.6a2.2 2.2 0 0 1-1 1.16c-.25.08-.28 0-.41.59-.08.39-.75 3.13-1.21 5-.14 1.26-.24 2.51-.3 3.79zm5.52-16.54c-.46.46-.68.61-.48.9s1.19-.25 1.87-.61.66.58.53 1.21-.62 0-1.13-.08-.38.59 0 .65.2.37 0 .87-.55.49-.66 1.67a3.17 3.17 0 0 0 .77 2.36c.71-1.93 1.49-3.8 2.32-5.6a4.19 4.19 0 0 0-.46-1.89c-.25-.56-.55-.78-.78-.47s-.8.06-1.17 0-.65-.16-.52.12.15.41-.3.87zM69 70.88a10.24 10.24 0 0 0 2.08-2.71c.52-1.11-1.39.12-1.74.9-.18.38-.44 1-.62 1.26-.66 1.52-1.29 3.08-1.86 4.68a1.61 1.61 0 0 1-.07.56 18.92 18.92 0 0 0 6.46 5.64 102.19 102.19 0 0 1 8.83-21.75A15.88 15.88 0 0 1 76.9 56a91.867 91.867 0 0 0-4.3 6.75c0 .18.09.3.35.46.48.28.14.46-.1.66a1.46 1.46 0 0 0-.68 1 1.34 1.34 0 0 0 .45 1.29c.37.32.3.46-.13.87s-1.25 2-1.92 2.73-.44.89-.44 1.64.27.63.79.63.29.3 0 .39-.07.14-.13.6-.09.38-.44.38-.82-.1-.7.29.17.42-.21.59-.33-.05-.23-.49-.24-.63-.67-.62.24-.9.3-1.32-.23-.59.16-.97zm8-19.65a11.81 11.81 0 0 1 .65-2.73 2 2 0 0 0 .18-.49c-.54.57-1.08 1.15-1.62 1.74a4.13 4.13 0 0 0-.44 1.25c-.08.73-.14 1.07-.48 1.25a9.39 9.39 0 0 0 1.55 2.66 92.59 92.59 0 0 1 5.41-6.81c-.08-.19-.18-.55-.48-.25s-1.09 1.21-1.31 1 .62-.91 1-1.43 0-.69-.24-.92-.44 0-.69.33a7.09 7.09 0 0 0-1 2.12 6.87 6.87 0 0 1-1.81 2.7c-.72.68-.8.2-.72-.42zM80.08 46c.75 0 1.17-.23.94-.83a1.37 1.37 0 0 0-.11-.23c-.36.34-.72.68-1.08 1zm3.56-2.66c-.63 0-.49 1.33-.57 2a6.27 6.27 0 0 1-.55 1.43c-.11.3 0 .47.24.72a109.68 109.68 0 0 1 8.57-8.61A5.51 5.51 0 0 1 90 37.32c-1.49 1.12-3 2.33-4.59 3.68 0 .12.19.23.48.45.61.43-.37.86-.94.88s-1 0-.57.61-.1.41-.73.41zM87.93 37c-.28.43-.79-.25-1.54.86-.45.67-.19.59.95.12.72-.3.84-.25.72 0 .56-.43 1.12-.85 1.68-1.26v-.09a4.6 4.6 0 0 1-.24-1.71c-.6.35-1.19.71-1.76 1.05 0 .07.12.1.27.22.3.21.2.36-.08.81zm-1.52-.17h-.07l-1.08.68a.37.37 0 0 0 0 .14c0 .21.31.3.67 0s.76-.65.48-.85zm5.67-.94c-.49.34-1 .68-1.47 1a4.69 4.69 0 0 0 1 1.3 6.69 6.69 0 0 1 1-.55c.55-.3.2-.84-.41-1-.2-.1-.2-.53-.12-.78zm17.41-8.72a69.06 69.06 0 0 0-5 13.25 45.41 45.41 0 0 0 5.27-1c-.33-6.24-.31-10.42-.27-12.28zm24.76 10.52a2.49 2.49 0 0 1 .37-.43c-2.93-1.73-5.73-3.23-8.32-4.53a38 38 0 0 1-4.3 2.72c1.32 1.27 2.72 2.68 4.2 4.25a3.05 3.05 0 0 0 1.23-.1c1.39-.32 5.94-1.57 6.56-.18.37.82-.86 1.79-1.72 2.25s-.67 1-.28 1a2.77 2.77 0 0 1 1.19.82 2.37 2.37 0 0 0 2.3.36c.65-.43.34-1-.14-1s-1.41.36-1.44-.19.6-.48 1.41-.36 1.33-.53.48-.86-1 0-.88-.76.39-.42.16-.94.13-.42.26-.45.85 0 .62-.42a1 1 0 0 0-1-.59c-.41-.04-.95-.2-.7-.62zm-1 19.25c.3-.3.35-.72 0-.94a1 1 0 0 1-.52-.58.42.42 0 0 0-.66-.2c-.37.2-.42-.15-.63-.37s-.47-.48 0-.88a1.14 1.14 0 0 0 .3-.4c-1.58.76-3.21 1.48-4.89 2.16a.7.7 0 0 0 .06.25c0 .13.31 1.1-.29 1.1s-.65.31-.43.54.66.68.57 1 0 .89.22.93.49.6.18.81-.7.65-.64 1l.05.12a.4.4 0 0 0 .06.09.33.33 0 0 1 .15.4c.38.88.75 1.76 1.14 2.67a2.94 2.94 0 0 0 .75-.74c.62-.86 1.2-1.89 2-1.65s1 .18.94-.33-.13-.63.46-.78.67-.25.31-.69-1.67-2.08-1.2-3.27.71-.77 1.13-.5.58.52.89.23zm-.77 21.46a1.09 1.09 0 0 0-1.35.09 6.06 6.06 0 0 0-.47 1.28c.8-.28 1.6-.57 2.38-.87a3.94 3.94 0 0 0-.62-.53zm-10.22-15.1c-.5.57-.83 1.27-.33 1.7s1.77 1.87 2.55.88.58-1 .92-1.11.72.54 1.16.39a4 4 0 0 0 .6-.22l-1-2.4c-.32.34-1 1.15-1.32.86s-.55-.68-.7-.45-.21.88-.56.69-.31-.39.08-.8a2.81 2.81 0 0 0 .54-.77c.2-.31.31-.91-.17-.76s-.63.71-.91-.05a4.38 4.38 0 0 0-1.32-2.19c-.81-.68-1.05-1.46-1.41-.94s-.56 2.52-1.51 2.55a6.52 6.52 0 0 1-2.19-.21c-.31-.2-.94-.59 0-1.36-1.38.38-2.76.72-4.12 1 .46 3.37 1 7 1.63 10.8a5.23 5.23 0 0 1 .85-.06c.57.09.46.18.41.6s-.39.92-.58 1.6c-.08.28-.13.54-.19.76.13.72.26 1.44.39 2.17.25-.2.51-.45.68-.59s.67-.5.35-.79-.31-.5 0-.79 1.18-1.36 1.77-1.58.59-.15.46-.67a2.94 2.94 0 0 1 1-3c.39-.25.61 0 .93-.14s.84-1 1.24-1 .5-.2.47-.52.16-.31-.4-.81-1.64-1.73-1.27-2.78.48-1 .66-1.1.34-.47.06-.65-.17-.54.12-.81.53-.32.74.1.36 1 .62 1.18.24.72-.25 1.27zm-11.91 41.36a1.87 1.87 0 0 0 1.06-1.87c0-.94.21-2 .47-2s.78 1.4 2.09 1a5.66 5.66 0 0 1 2.61-.37 1 1 0 0 0 1.13-.51 9.47 9.47 0 0 1 1.52-1.54q-.5-2.07-1-4.1a.35.35 0 0 1-.17.26c-.93.46.13 1.54-.53 1.67-1.1.2-1 .68-1.14 1.05s-.48.38-1.42.82a21.37 21.37 0 0 1-2.9 1.2 4.85 4.85 0 0 1-1.82-1.18c-.34-.38-.5-.18-.85-.11a3.56 3.56 0 0 1-3-2.08c-.54-1.25-.09-1.13 0-1.35a5 5 0 0 0 .53-3.77c-.56-1.91-.71-2.17-1-2.47s-.42-.61 0-.79a10.41 10.41 0 0 1 3.59-.63c1.83 0 4.76-.15 5.06-.61a6.27 6.27 0 0 0 .37-2.52 99 99 0 0 1-15.67 1.91 186.09 186.09 0 0 0 2.2 24.68q3.33 0 6.81-.22a2.07 2.07 0 0 0-.07-1.12c-.68-2.14.1-4.01 2.13-5.35zm-8.67 7.34q.46 2.79 1 5.64a1.28 1.28 0 0 1 .1-.1 4.8 4.8 0 0 0 1.54-2.22c.12-.73.65-.65 1.11-.89a7.5 7.5 0 0 0 2.69-2.64q-3.29.28-6.44.21zM83.94 85.62a37.89 37.89 0 0 1-10.17-3.38 86.34 86.34 0 0 0-2.89 21.45A41.84 41.84 0 0 0 83 109a118.16 118.16 0 0 1 .94-23.38zm8.85-35.42c-.22.49-.74 1-1 1.4s-.83.35-1.27.28-.46-.36-.7-.09a8 8 0 0 1-1.55 1.05c-.41.2-.7-.1-.69.24a10.78 10.78 0 0 1-1.84 2.59 32.53 32.53 0 0 0-2.55 3.5 30.4 30.4 0 0 0 6.66 1.68c1.47-4.3 3.08-8.34 4.76-12.06a1.58 1.58 0 0 0-.35-.06c-.6.05-1.26.99-1.47 1.48zm1.34-14.79c.33-.17 0-.45-.26-.77l-1 .66a1.8 1.8 0 0 0 1.26.12zm1.12 13.67C93.6 52.75 92 56.75 90.56 61a52.76 52.76 0 0 0 9.25.29q.37-3.1.82-6c-.28.07-.37.14-.47.49s-.93.67-1.92.76a2.78 2.78 0 0 1-2-1c-.26-.29-.32-.62-.06-.75a1.82 1.82 0 0 0 .74-.55c.36-.39.43-.61-.2-.56s-.2-.49.05-.85c.55-.79.89-.47 1 0a1.16 1.16 0 0 0 .37.72c.2.25.37-.11.75-.33s.43 0 1 .07.84-.26 1.22-.77c0 0 .08-.07.11-.11.72-4.1 1.56-7.85 2.46-11.18l-.76.06a.45.45 0 0 1-.13.22c-.29.26-.85-.09-1.28-.13s-.23.69.08 1 .2.51-.07 1-.69.07-.81-.24-.45-.33-.63-.37a2.64 2.64 0 0 0-.85.06c-.54.07-.39.33-.39.89s.14.59.64.69.65 1 .5 1.55-.38 1-.78 1.06-.78-.75-1.13-1.11-.59-.06-.58.5-.53.47-.73.78.14.38.7.26a2.41 2.41 0 0 1 1.66 0c.53.25 0 .48-.5.53s-1.94 1.02-2.47 1.25a1.22 1.22 0 0 1-.9-.14zm.46-15.14c.44.16.5.11.76-.17s.61-1 1.06-1a6.23 6.23 0 0 0 1.2 0l.16-.11a.16.16 0 0 0 0-.12.77.77 0 0 0-.84-.49c-.88.52-1.77 1.06-2.7 1.65a.65.65 0 0 0 .36.25zm10.49-7a56.27 56.27 0 0 0-7.2 2.81 2.81 2.81 0 0 0-.08.93A75.58 75.58 0 0 1 106.2 27zm-6.59 4.15a.81.81 0 0 0 .43.62c1.82-1.35 3.47-2.5 4.88-3.42-1.5.78-3.31 1.71-5.31 2.84zm3.23 7.67c-.24-.12-.76-.23-.5.16s.23 1 .34 1.4a1.1 1.1 0 0 1 .06.2l1-.09q.84-3 1.72-5.57a2.91 2.91 0 0 0-.64.39 6.5 6.5 0 0 0-1.52 1.56 1.41 1.41 0 0 0 .23 1.75c.52.62-.45.35-.69.23zm1-6.72c.25-.35.5-.71.75-1-.45.44-.92.9-1.41 1.4.17-.01.36-.15.71-.37zm17.49 3.73a46.93 46.93 0 0 1-5.19 2.35l3.6 8c.12-.13.26-.24.38-.36a3.7 3.7 0 0 0 .33-2.41c-.27-.5-.23-.52.1-.77s2.94-1.43 2.53-2.27-.44-.68 0-.82 1-.15 1.33-.3l.28-.12a326.12 326.12 0 0 0-3.31-3.27zm.12-.85a36.76 36.76 0 0 0 4.13-2.59 118.47 118.47 0 0 0-14.22-6 95.72 95.72 0 0 1 10.14 8.62zm4.12 14a6.75 6.75 0 0 0-1.29 2.32 1.84 1.84 0 0 0 .58 2.07 5.7 5.7 0 0 0 2.23.93c.21 0 .69 0 .67.21 1-.44 2.06-.9 3.05-1.38a5.5 5.5 0 0 0-1-.12c-.87 0-1.22.13-1.8-.48a12.71 12.71 0 0 1-1.19-1.74c-.23-.29-.23-.72.09-1.32a13 13 0 0 0 .47-2.63c.15-.77.45-1-.53-1a1.61 1.61 0 0 0-1.74.76c-.58.68-.36 1.16.28 1.61s.78.3.23.85zm4.39.78a3.06 3.06 0 0 0 .59 1.09c.63.56.59-.55.27-.84a1.35 1.35 0 0 1-.46-1.13c0-.54-.18-.56-.54-.39a1 1 0 0 0-.26.63c.03.26.31.44.44.69zm-7.12 7.86c-.26.51-.51 1-.22 1a.77.77 0 0 0 .72-.48c.26-.29-.02-1.28-.45-.47zm-7.38-19.21c-.38.14-.77.29-1.16.41-1.29.44-2.57.82-3.83 1.15.31 5.15.89 11.69 1.92 19.49q2.2-.49 4.43-1.12a.69.69 0 0 1-.13-.14c-.14-.21-1.4-1.13-.77-1.51s1.2-.57.86-.83-.91-1.35-.27-1.81 1.31-.55 1.25-1.21a2 2 0 0 1 .33-1.48c.31-.43 1.58-2.06 1.3-3 0 0-.82-.39-.15-1a.46.46 0 0 0 .15-.19c-1.39-3.19-2.71-6.11-3.87-8.7zm-3.67 21.9a75 75 0 0 1-11.41 1.59c-.3 2.68-.56 5.49-.75 8.4-.3 4.6-.46 9.88-.35 15.7a98.41 98.41 0 0 0 15.57-1.92 2 2 0 0 0-.47-1.08c-.38-.37-1.21-1-1.3-1.41s.43-.65.33-.85-1.38.09-2.1-.31-2.13-.83-1.28-1.35 1.32-.78 1.87-.32.71 0 .88-.27.7-.75.49-.94-.66-.24-.83-.41.17-.76.42-.68 1.15.86 1.27.64.13-.32.23-.5c-.13-.7-.25-1.38-.37-2.07a4.31 4.31 0 0 0-1.11.09 8.31 8.31 0 0 0-1.81 1c-.62.44-.79.58-1.06.42s-.59 0-1-.43.58-.72 1-.77a4.27 4.27 0 0 0 1.57-.85c.46-.36-.24-.6-.53-.32a1.74 1.74 0 0 1-1.32.27c-.57 0-1.09.12-1.15-.25s.64-.62 1.09-.82.09-.4-.3-.44-.51-.35-.4-.5-.05-.25.13-.63.37-.37 1-.2.47-.57-.09-1.15a7.53 7.53 0 0 1-1.2-2.3 3.59 3.59 0 0 0-1-1.46.59.59 0 0 1-.36-.73c.12-.31.35-.62 0-1s-.05-.5.33-.4.22-.52.21-1 .26-.46.77-.47c1.42 0 .9.58.47.9s-.71.5-.55.79 2-.6 2.31-.37a.83.83 0 0 1 .13 1.05 7.71 7.71 0 0 1-1.42.95c-.69.46 0 .63.37.66a2.61 2.61 0 0 1 1.34.69c.38.34.92.69 1.51 1.14-.33-2.74-.72-5.46-1.07-8.04zM99 70.25c.19-2.88.44-5.64.74-8.3a53.31 53.31 0 0 1-9.39-.34c-.23.67-.45 1.34-.66 2a131.83 131.83 0 0 0-4.95 21.47 67.2 67.2 0 0 0 13.9.92c-.11-5.83.05-11.13.36-15.75zM82.78 59.76a101.29 101.29 0 0 0-8.84 21.82A37.19 37.19 0 0 0 84 85a133.23 133.23 0 0 1 5-21.56c.2-.63.41-1.27.62-1.89a31.48 31.48 0 0 1-6.84-1.79zm.95 49.45a72.67 72.67 0 0 0 17.11 2.15 188.65 188.65 0 0 1-2.19-24.64 68.27 68.27 0 0 1-14-1 116.79 116.79 0 0 0-.92 23.49zm45.06-79.52l-.17-.13a2 2 0 0 1-.55-.55 114.61 114.61 0 0 0-15-2.8 123.19 123.19 0 0 1 13.16 5.69 25 25 0 0 0 2.56-2.22zm.39-2a6.63 6.63 0 0 0 .41 1h.11a12 12 0 0 0 1.71-2.56 144.36 144.36 0 0 0-17.41-.54 114.63 114.63 0 0 1 14 2.66l.07-.1c.56-.65.72-1.84 1.11-.51zm2.51-2.2a5.27 5.27 0 0 0 .36-2 104.6 104.6 0 0 0-17.3 1.43 144.46 144.46 0 0 1 16.94.52zm-.27-2.71a5.39 5.39 0 0 0-1.28-.85 10.11 10.11 0 0 0-3-.37A95.39 95.39 0 0 0 115 24.11a106.35 106.35 0 0 1 16.42-1.39zm-2.12-3.3l-.51-.27A78.69 78.69 0 0 0 117 22.82a95.69 95.69 0 0 1 9.52-1.94 10.35 10.35 0 0 1 2.16-.94c.43-.17.53-.28.62-.51zm-1.73-.73a13.85 13.85 0 0 0-1.94-.48 64.92 64.92 0 0 0-9.93 4.35 83.23 83.23 0 0 1 11.86-3.92zm-3.5-.68a26.05 26.05 0 0 0-2.83-.11 40.54 40.54 0 0 0-7.94 5.17A71.32 71.32 0 0 1 124.06 18zm-4.56 0c-.94.06-1.9.17-2.9.31a25.31 25.31 0 0 0-5.25 5.52 44.3 44.3 0 0 1 8.14-5.9zm-8.49 9c.57 1.22 1.52 3.25 2.8 6l.16-.08a8.16 8.16 0 0 0 1.26-.76c.46-.3.59.11.41.3s-.57.46-.82.75c-.52.6.1.5.55.17s.59.2.33.45c-.64.62.16 2.44-.12 3.06.1.21.2.43.3.65a46.59 46.59 0 0 0 4.95-2.22 94.1 94.1 0 0 0-9.84-8.45zm-.81 0c0 1.72-.09 5.89.28 12.33 1.2-.32 2.42-.67 3.64-1.1l1.09-.38-.85-1.86-.19-.29a9.39 9.39 0 0 0-1.32-1.54c-.22-.18-.18-.43.33-.76-1.42-3.24-2.44-5.41-2.98-6.56zm-.37 13.23a43.82 43.82 0 0 1-5.51 1c-.93 3.43-1.8 7.3-2.55 11.56a3.23 3.23 0 0 0 .41.39c.52.41.1.62-.25 1.2a2.41 2.41 0 0 1-.53.61c-.32 2-.62 4.15-.87 6.35a77 77 0 0 0 11.23-1.6c-1.04-7.99-1.63-14.51-1.94-19.67zm-1.26-12.76a37 37 0 0 0-3.56 4.3c.25.07.38.27.52.36s.31.12.14.53-.57.3-1 .23-.12.42 0 .7.13.51.8.59a.77.77 0 0 1 .27.08 58.75 58.75 0 0 1 2.83-6.95zm-1.78.46c-1.62 1-3.73 2.44-6.15 4.22-.16.36-.24.7 0 .79s1.18-.67 1.87-1.17c.38-.29.45-.27.47-.13 1.44-1.49 2.75-2.71 3.81-3.71zm-.45-2.54a54.89 54.89 0 0 0-8.76 0c-.84.57-1.62 1.14-2.34 1.72a95.26 95.26 0 0 1 11.1-1.72zm-12.22 2.69q-.43.4-.82.79c-.29.31-.37.56-.1.84l.08.09a84 84 0 0 1 11.36-3.52 94.41 94.41 0 0 0-10.52 1.8zm-1.33 2.69a.88.88 0 0 1-.21.18 1.63 1.63 0 0 0-.06 1.08l.07.15 1.63-.88v-.08c0-.12.69-.42 1.58-.72 2-1 4-1.93 5.93-2.74a89.85 89.85 0 0 0-8.94 3.01zm.05 3.63l.68-.45a2.26 2.26 0 0 1 .9-1.47.47.47 0 0 0 .13-.56c-.65.34-1.28.69-1.9 1a2.21 2.21 0 0 1-.14.3.85.85 0 0 0 .33 1.18zm-2.69 0a4.47 4.47 0 0 0 .16 1.8c.44-.32.86-.62 1.29-.91a.74.74 0 0 1 0-.37 14 14 0 0 0 .32-1.52zm1.29-1.56v-.08c.05-.4.61-.78.53-1.25a2.38 2.38 0 0 0-.09-.35l-.56.23a8.52 8.52 0 0 0-1 2.07zM77.3 55.45a15 15 0 0 0 5 3.37.54.54 0 0 1 0-.16c0-.38 0-.64-.4-.74s-.33.08-.18-1.13a38.42 38.42 0 0 1 1.59-5.37c.21-.51.1-.53.67-.43s.59-.38.24-.64-.28-.38-.14-.79 1-1.7 1.64-1.76c.35 0 .77.12.43-.29s0-.61.72-.53 1.57-.81 1.45-1.39 0-.56.63-1.14a6 6 0 0 0 1.18-1.54c.32-.66-.28-.5-.62-.28s-.59 0-.23-.34 1.84-1.66 2.27-2.15a.79.79 0 0 0 .26-.69 105.21 105.21 0 0 0-8.91 9c-1.9 2.12-3.77 4.46-5.6 7zm-14.43 40a24.67 24.67 0 0 0 7.3 7.78 87.74 87.74 0 0 1 2.94-21.31 19.92 19.92 0 0 1-6.64-5.6 69 69 0 0 0-3.6 19.11zm8 9.07a84.59 84.59 0 0 0 2 17.8 45 45 0 0 0 13.51 7.47 106.72 106.72 0 0 1-3.29-20 43.42 43.42 0 0 1-12.22-5.29zM87.16 130a69.38 69.38 0 0 0 16.5 3.35c-.32-.34-.37-.58-.4-1.37a5.57 5.57 0 0 1 .1-2.22c.21-.26.22-.42-.21-.82a3.13 3.13 0 0 1-.91-2.45c.24-.82-.1-.46-.43-.71s-1.85-1.31-.17-4.21c.38-.64.67-1 .83-1.32q-.87-4.2-1.52-8.25a73.22 73.22 0 0 1-17.17-2.13A105.36 105.36 0 0 0 87.16 130zm.21.81c.52 1.86 1.1 3.75 1.74 5.62a43.52 43.52 0 0 0 4.31 9.18 69.05 69.05 0 0 0 18.2 3.55 56.81 56.81 0 0 1-3.48-8.17q-.45-1.31-.88-2.62a1.11 1.11 0 0 1-.48-.94c0-.2-.16-.5-.8-.5s-1.79.11-1.65-1.81c0-.5.05-.81.05-1a70.68 70.68 0 0 1-17.01-3.27zm25.1 18.4a94.94 94.94 0 0 0 21.58-1.35q-.94-2.27-2-5a19.82 19.82 0 0 1-5.05 1.27 34.13 34.13 0 0 0-6.31 1.07c-.68.37-.56.27-1.32-.09s-5.11-2.07-6.34-2.68a4.09 4.09 0 0 1-2.26-2c-.85-1.27-1.74-1.59-2.2-1.49a1.06 1.06 0 0 1-.38 0c.2.59.39 1.2.6 1.8a54.26 54.26 0 0 0 3.69 8.52zm.4.73a30.61 30.61 0 0 0 7.38 9 85.62 85.62 0 0 0 18.75-1.25 57.35 57.35 0 0 1-4.64-9.12 95.46 95.46 0 0 1-21.48 1.43zm36.19-5.85a2.27 2.27 0 0 0 0-.36c-.07-.31-.74-3.32-1.28-3a1.82 1.82 0 0 1-1.59 0c-.41-.18-.73-.39-.85.05s-.2.49-.73.44a2.43 2.43 0 0 0-2 .46c-.75.75-1.14.78-1.65 0s-.73-1.33-1.68-1.19A15.3 15.3 0 0 0 134 142c-.41.22-.83.42-1.26.63.72 1.9 1.4 3.63 2 5.16a107.19 107.19 0 0 0 12.82-3.16.66.66 0 0 0 .27-.39c0-.37 0-1.23.53-.36.1.17.18.3.26.41.17-.07.31-.11.45-.16zm-14.13-60.47c-.56-1.39-1.12-2.76-1.68-4.1-.92.35-1.85.7-2.79 1a1.52 1.52 0 0 0 .63.61c.43.21 1.55.2 2.18 1a4.05 4.05 0 0 0 1.66 1.49zm-.84-35.05c.36.43.73.89 1.09 1.34.36-.09.65 0 .75.14s.36 0 .36-.51.15-.81-.55-1.09a2.13 2.13 0 0 0-1.38 0c-.09.05-.19.08-.27.12zm4.32-18.09c.4-.26 1.44-1.23.63-1.34a12.53 12.53 0 0 1-3-.63c-.48-.3-1.88-.68-1.69-1s.58-.43.69-.64l.19-.34-3.08-.32a12.8 12.8 0 0 1-1.72 2.7c2 .55 4.18 1.2 6.4 1.94a3.2 3.2 0 0 0 1.58-.37zm-2.64-3.37c.14.29.31.1.57.36a.58.58 0 0 0 .91-.26c.06-.3-.43-.17-.68-.32a.91.91 0 0 0-.72-.18c-.24.03-.21.13-.08.41zm-3.39-1.62c1.08.1 2.17.22 3.26.34a2 2 0 0 1 .51-.5 6.43 6.43 0 0 1 1.92-.27c.17 0 .47-.57-.29-.63a4.77 4.77 0 0 0-2 .23c-.48.21-1.39.78-1.88-.31-.42-.91-.75-.69-1.15-.71a6.32 6.32 0 0 1-.37 1.86zm-.45-6.86c-.57.07-1.25.17-2.07.32a1.33 1.33 0 0 1 .41.28 6.64 6.64 0 0 1 .72.54 1 1 0 0 0 1.22-.33c.27-.44.18-.44-.28-.81zm-.84-1.83a38.46 38.46 0 0 0-4.21 1 14 14 0 0 1 1.87.61c1-.21 1.84-.35 2.54-.45a1.4 1.4 0 0 1 0-.71.37.37 0 0 0-.2-.45zm-6.47-.32c-.61.21-1.27.47-2 .77a25 25 0 0 1 2.83.28c.75-.24 1.48-.47 2.2-.67.06-.64 0-.72-.59-.53s-1 .4-1.57.19a2.93 2.93 0 0 0-.86-.04zm-6.81 1a31.08 31.08 0 0 1 3.11-.2q1.22-.6 2.29-1c-1.49.17-3 .39-4.44.66a9.39 9.39 0 0 0-.96.5zm-5.93 1.07c1.49-.37 3-.67 4.39-.87l.48-.35c-1.64.35-3.25.75-4.87 1.21zm-.28.8a30.44 30.44 0 0 0-1.27 4.65 26.12 26.12 0 0 1 4.84-5.53q-1.74.36-3.57.84zm-4.35 1.35a20.92 20.92 0 0 1 2.35 3.58 27.31 27.31 0 0 1 1.17-4.7c-.9.25-1.8.54-2.72.84zm-4 1.66a23.6 23.6 0 0 1 5.75 2.18 19.58 19.58 0 0 0-2.42-3.62c-1.2.44-2.31.91-3.38 1.4zm-1.07.52a42.75 42.75 0 0 0-3.31 1.82 50.55 50.55 0 0 1 9.39.3 22.17 22.17 0 0 0-6.13-2.16zm-5.47 2l.73-.07a40.61 40.61 0 0 1 3.54-2.09h-.06a40.14 40.14 0 0 0-4.26 2.1zm-4.75 2.89l.1.08.09.1 1.78-.42a27.85 27.85 0 0 1 2.33-1.89l-1.14.15q-1.66.89-3.21 1.93zM89.8 31c.19.21.73 0 1.23-.36a15.35 15.35 0 0 1 1-1.25c-.31-.51-2.65 1.16-2.23 1.61zm-6.47 6.1c.52-.6.62-1.14 1.11-1.39s.94.5 1.43.46h.1l.68-.43A7.74 7.74 0 0 0 88 34.27c.52-.73 1.07-.42 1.59-.43a8 8 0 0 1 .74-2l-.21.09c-.49.52-3.52 1.77-5.09 2.71S83 35.75 82.36 37s.44.74.97.12zm-.77 2.56a4.63 4.63 0 0 1 1.16-.86c.26 0 .64.21.63-.27a.67.67 0 0 0-.13-.43c-.83.54-1.58 1-2.26 1.5-.22.4.24.4.6.07zm-7.85 10.09a1.59 1.59 0 0 0 .57-.66c.35-.74.69-1.65 1.17-1.41s.8 0 1.3-.71a3.32 3.32 0 0 0 .63-1.27c.11-.34.35-.47 1-.88a25.36 25.36 0 0 0 4.77-4.29c.9-1.4.19-1-.63-.43a18.89 18.89 0 0 0-2.28 1.83c-.33.37-.34.32-.4-.15s-.47-.66-.92.06-1.92 2.82-2.36 3.41-.87.35-.66-.25.48-1.35-.36-.6c-.29.26-.8.71-1.4 1.25a11.36 11.36 0 0 0-.43 4.1zm-.25 3.35a9.85 9.85 0 0 0-.56 1.51c-.15.29-.68.61-.29.84s1.29-.67 1.63-1 .1.57 0 .79a3.21 3.21 0 0 0-.36 1.14 10.8 10.8 0 0 1-1.1 2.32 2.66 2.66 0 0 0-.35 1.3c1-1.56 2-3.06 3-4.5a10.09 10.09 0 0 1-1.68-2.75 4.31 4.31 0 0 0-.29.35zm-.27-6.52a15.44 15.44 0 0 0-2.38 3c-.81 1.42-1.66 2.34-1.75 3.35s-.19 1-.8 1.59a11.91 11.91 0 0 0-1.73 3c-.47 1.08.39.67.69 0s1-2.49 1.8-2.65a2.49 2.49 0 0 0 2-1.76 5.75 5.75 0 0 1 1.67-2.78 3.24 3.24 0 0 1 .31-.25 11.39 11.39 0 0 1 .2-3.5zm-28.91-38l-4.84 17.2a44.7 44.7 0 0 0 20.1 5.65l4.84-17.19a46 46 0 0 1-20.09-5.67zm4.77 21.56a45 45 0 0 1-9.71-4L9 137.51a44.54 44.54 0 0 0 20.09 5.66l31.36-111.4a44.73 44.73 0 0 1-10.39-1.64zM3.4 154.74L44.66 8.21c-.5-.28-1-.57-1.47-.87L1.95 153.84c.48.31.96.6 1.45.9zm20.74 6L29 143.51a44.22 44.22 0 0 1-10.38-1.64 44.72 44.72 0 0 1-9.72-4L4 155.1a43.81 43.81 0 0 0 20.14 5.65zm2.43 0L67.82 14.27h-1.7L24.87 160.78c.57.01 1.13.01 1.71-.01zM59 91.91a74.27 74.27 0 0 1 7.73-37 73.53 73.53 0 0 1 5.18-8.81L82.38 8.68 70 13.75 28.79 160.27l12.64-6.15zm3.75 15.91a71.93 71.93 0 0 1-.55-12.22 20.88 20.88 0 0 1-1.68-3.6c-.22-.64-.41-1.29-.56-1.95a74.83 74.83 0 0 0 2.6 17.46zm1.17 3A23 23 0 0 0 67 116l.27.36a32 32 0 0 0 4.73 5.17A84.37 84.37 0 0 1 70.16 104a26.23 26.23 0 0 1-7.33-7.32 72.56 72.56 0 0 0 1.05 14.15zM77.45 136a46.14 46.14 0 0 1-5.17-12.94c0-.14-.06-.28-.09-.43a33.25 33.25 0 0 1-5.52-5.83l-.27-.37a28.83 28.83 0 0 1-1.88-2.75A74 74 0 0 0 77.45 136zm14.91 9.24a45.67 45.67 0 0 1-3.92-8.56c-.7-2.05-1.32-4.1-1.87-6.12a46.55 46.55 0 0 1-13.49-7.19 48.74 48.74 0 0 0 6.47 14.77 46 46 0 0 0 12.81 7.13zm7.13 8.44a31.87 31.87 0 0 1-6.49-7.43 49.39 49.39 0 0 1-11.29-5.63c.89.89 1.81 1.77 2.75 2.61 2.21 1.42 5.33 3.45 6.25 4.05 0 0 2.69 2.38 4.77 4.14 1.28.81 2.63 1.58 4.01 2.29zm7.58 3.45a69.6 69.6 0 0 0 11.93 1.78 32 32 0 0 1-7-9 70.38 70.38 0 0 1-18-3.33 29.42 29.42 0 0 0 7.17 7.56 28.14 28.14 0 0 0 2.4 1.57c1.19.53 2.34 1 3.5 1.45zm15.12 4a18.88 18.88 0 0 1-2.27-1.51 74.49 74.49 0 0 1-8-.83 71.54 71.54 0 0 0 10.26 2.4zm20.21.15a9.92 9.92 0 0 1-2.94-3 87 87 0 0 1-18.16 1.38 14.19 14.19 0 0 0 3.38 1.8 70.33 70.33 0 0 0 17.71-.12zm16.43-6.28c-1.36.06-3.54 0-3.42-1l-1.88.66a97.15 97.15 0 0 1-13.33 3.52 8.72 8.72 0 0 0 2.51 2.52 6.14 6.14 0 0 0 1 .44 71.53 71.53 0 0 0 10.23-2.37c.63-.19 1.25-.4 1.87-.61s1.38-.48 2.06-.74c.58-.49 1-.86 1.17-1 .73-.82 1.55-1.48-.21-1.42zm2.53-63.66q-2-3.78-4-7.3c-.66.28-.68 0-1 .31s-.9-.17-.34-.44.79-.79.2-.66a3.68 3.68 0 0 0-1.57 1.34c-.35.45-1.14.33-.6-.36s.42-.72-.11-.66-.7.31-1.2-.17-.47-.7-.8-.35-1 .1-.5-.34.47-.39.36-.76.07-.75-.34-.79c0 0-.6-.2-.54.2s-.06.92-.44.27-1-1.56-1.25-2-.34-.25-.63-.3-.43 0-.67.3-.61.78-.92.85-.52.33-.22.55.71.33.69.62-.06.5-.54.41-1-.66-1.29-.34-.65.94.09 1 1.4.13 1.55.38.19.6-.12.69-.47.6.25.47a1.76 1.76 0 0 1 2 .6c.35.65 0 .82-.39.61a2.91 2.91 0 0 0-1.77-.31c-.28.18-.22.42.08.49a2.11 2.11 0 0 1 .93.84 2.82 2.82 0 0 0 .84.85c.22.1.09.23.1.38s-.19.28-.42.26a5.66 5.66 0 0 0-1.11 0c-.31 0-.65.07-.72-.18a.94.94 0 0 0-.69-.71c-.43-.08-1.07-.51-.91-.72s.15-.43-.18-.54a5.73 5.73 0 0 1-2.17-1.1 30.59 30.59 0 0 1-3.37-3.26c-.42-.55-.45-.56-.71-.55a3.92 3.92 0 0 1-1.46-.43 1.13 1.13 0 0 0-.69-.2c-.13 0-.07.43-.36.41a6 6 0 0 1-2.07-.52l1.52 3.73a4.77 4.77 0 0 0 1 .08c2 0 3.62 0 4 .75s.29 1.17-.1.88-1.45-1.07-1.79-.51-.58 1.25-.08 1.4.55.24.81.11.5.15.55.24a.42.42 0 0 1-.22.59c-.35.19-.3.62-.27 1s.13 1.25-.35 1.38-1.21-.08-1.09-.41.77-.76.55-1.22-.59-1.63-1.26-1.77a6.17 6.17 0 0 1-.77-.2c.62 1.53 1.25 3.09 1.88 4.66.08.15.16.33.25.52a1.77 1.77 0 0 1 .2.63c1 2.49 2 5 3 7.62a2.41 2.41 0 0 0 1.65.52c1.12 0 2.87-.35 3.41-.36s1 .63 1.31.37a4.46 4.46 0 0 0 .85-1.4 1.88 1.88 0 0 0-.31-1.64 1.77 1.77 0 0 1 .42-2.3c.8-.79 1.76-1.34 2.47-1s.51 1 2.18.32a19.51 19.51 0 0 1 5.25-1.6c1.66-.11 1.61-.75 2-1.2zm1.51-2c1-.5 3.28-.92 3.34-2a3.28 3.28 0 0 0-.51-2.13 7.45 7.45 0 0 1-.78-3.14 1.93 1.93 0 0 0-.84-1.86c-.61-.51-.92-.41-.92-1s-.21-1.17-.5-.5-.32.71-.87.87-1 .56-.67 1 .5.48 0 .88a1.44 1.44 0 0 1-1.51.42 2.23 2.23 0 0 0-2 .28c-.23.22-.09.63 0 1q2.05 3.61 4.11 7.5a2.61 2.61 0 0 1 1.15-1.32zm4 2.89c-.36-.36-.38-.55-.65-.65s-.47-.25-.74 0-.21.35.21.59.76.5 1 .61.83.11.19-.55zm11.35 43.5c-1.12-.74-1.16-.75-1.2-1s-.63-.63-.7-.08.23.27.26.8.33 1.7 1.43 1.8 1.26-.83.22-1.52zm3.35-8.85a3.93 3.93 0 0 0-2 1.79c-.72 1.37-.59 2.66.82 2 1-.46 1.3-1.28 1.07-1.54s-.25-.5.11-1 1.06-1.83.01-1.26zm.93-22.16c1.06-1.05 2.11-2.13 3.1-3.24a7.66 7.66 0 0 0-1.24-1.56 15.47 15.47 0 0 1-2.13-1.35c-.68-.6-1-1-1.43-.83a2.34 2.34 0 0 1-2-.14c-.66-.38-1.26-.87-.93-1.25s.19-.42-.24-.64-7.79-4-8.23-4.11-.28.13-.36.43a1.6 1.6 0 0 1-.94.89c-.39.06-.49.28-.17.5s3.79 3.46 4.69 3.32.84.1.69.46-.24 1 .51.92a2.06 2.06 0 0 1 2.35.9c.77 1.16 1.61 3.43 2.53 3s2 .55 2.84 1.87c.46.7.71.85.97.82zm.1 31.75a2.92 2.92 0 0 0 .47 1.56c.2-.16.39-.33.57-.49-.31-1.17-.92-2.22-1.03-1.08zm8.06-4.89a61.94 61.94 0 0 1-5.54 5.61 6 6 0 0 1-.71.62c-.4.34-.8.69-1.22 1a1 1 0 0 1-.23.39 3.3 3.3 0 0 0-.24 2.39 71.37 71.37 0 0 0 6.45-7.25 13.72 13.72 0 0 0 1.28-2.21c.07-.14.15-.3.22-.45s0-.06 0-.11zm1.23-14.3q-.75.91-1.56 1.83a29.46 29.46 0 0 0-2.14 4.83c-.58 1.89-1.39 3.63-1.13 4s.95-.28.81.29.27 1 .39 1.55a10.8 10.8 0 0 1 .3 2 5.82 5.82 0 0 1-.39 1.44c1-1 1.87-2 2.74-3.08a2 2 0 0 1 .16-.28c.14-.21.28-.41.4-.62a32.68 32.68 0 0 0 .43-11.97zm-.81-.13l.69-.83c0-.33-.08-.63-.14-1-.16.25-.32.48-.46.66s-.06.65-.08 1.16zm1.3-1.59a61.94 61.94 0 0 0 8.82-14.34 37 37 0 0 0-1.86-9.3q-1.09-3.18-2.35-6.17a56.55 56.55 0 0 1-5.84 10 1.59 1.59 0 0 0-.11.68 5.6 5.6 0 0 1-1.55 3.28 4.25 4.25 0 0 0-.72 1.34c.37 1.1.7 2.15 1 3.18a4.47 4.47 0 0 0 1.39-1.74 4.73 4.73 0 0 1 1.69-2.84 1.64 1.64 0 0 0 .42-1.39c-.08-.39 0-.5.3-.78s.66-.47.6.35a61.88 61.88 0 0 1-.06 8.36 38.63 38.63 0 0 1-1.68 7.33 4.56 4.56 0 0 1-.26.78c.1.45.16.85.22 1.25zm7.69-1.39a39.2 39.2 0 0 0 1.2-11.38 65.4 65.4 0 0 1-8.76 13.75 38.13 38.13 0 0 1 .09 10.78 5.22 5.22 0 0 1 .85-1.11 8.13 8.13 0 0 0 1.67-3c.18-.57.28-.92.6-.23 0 .06.07.15.12.25a54.15 54.15 0 0 0 4.26-8.83c0-.08.05-.16.09-.24zm1.64-4.91a72.9 72.9 0 0 0 2.46-14.84 42.45 42.45 0 0 1-2.25 6.92 42.85 42.85 0 0 1-.2 7.91zM222.48 159.36V141h6.85a6.4 6.4 0 0 1 4.38 1.44 4.06 4.06 0 0 1 1.47 3.16 5.48 5.48 0 0 1-.66 2.81 4.47 4.47 0 0 1-1.42 1.52 5.77 5.77 0 0 1 1.81 1.54 4.67 4.67 0 0 1 .93 2.86 4.58 4.58 0 0 1-1.49 3.57 6.28 6.28 0 0 1-4.43 1.47zm6.61-10.65q2.5 0 2.5-2.37a2 2 0 0 0-.73-1.62 2.58 2.58 0 0 0-1.79-.64h-3v4.63zm.29 7.56q2.62 0 2.62-2.4 0-2.18-2.62-2.18h-3.3v4.58zM241.08 144.29a2 2 0 1 1 0-4h.15a1.79 1.79 0 0 1 2 2 1.77 1.77 0 0 1-2 2zm-1.74 15.08v-12.93l3.6-.49v13.41zM246.83 159.36v-17.79l3.6-.64v6.73a4.54 4.54 0 0 1 3.65-1.52 4.39 4.39 0 0 1 3.28 1.39 4.73 4.73 0 0 1 1.37 3.45v3.52a4.76 4.76 0 0 1-1.37 3.48 4.88 4.88 0 0 1-6.93-.15l-.12 1.52zm3.57-5.26q0 2.62 2.37 2.62t2.35-2.62v-2.59q0-2.59-2.35-2.59a2.18 2.18 0 0 0-1.66.71 2.65 2.65 0 0 0-.71 1.88zM266 159.36h-3.57v-18l3.57-.49zM271.62 144.29a2 2 0 1 1 0-4h.15a1.79 1.79 0 0 1 2 2 1.77 1.77 0 0 1-2 2zm-1.74 15.08v-12.93l3.6-.49v13.41zM278.35 157.63a5.91 5.91 0 0 1-1.74-4.36v-1.05a6 6 0 0 1 1.71-4.28 6.11 6.11 0 0 1 4.6-1.88 6.25 6.25 0 0 1 4.67 1.88 6 6 0 0 1 1.71 4.31v1.05a5.92 5.92 0 0 1-1.71 4.33 6.75 6.75 0 0 1-9.25 0zm1.86-4.06q0 3.09 2.79 3.08t2.72-3.08V152q0-3.11-2.79-3.11t-2.72 3.11zM299.79 158.68a2 2 0 0 1-.32.17 5.44 5.44 0 0 1-.86.32 5.89 5.89 0 0 1-1.52.2 6.45 6.45 0 0 1-1-.07 3.53 3.53 0 0 1-2.4-1.27 5.42 5.42 0 0 1-.91-3.4v-6h-2.1v-2.53h2.1v-3.84l3.57-.49v4.33h4v2.55h-4v5.26q0 2.18 1 2.47a1.7 1.7 0 0 0 .59.1 2.62 2.62 0 0 0 .83-.15 3.86 3.86 0 0 0 1.22-.59v2.79zM313.79 147.47a4.12 4.12 0 0 1 1.32 3.08v8.81h-3.57v-7.64a2.42 2.42 0 0 0-.71-1.74 2.31 2.31 0 0 0-1.69-.71 2.34 2.34 0 0 0-1.71.71 2.31 2.31 0 0 0-.71 1.69v7.68h-3.6V141.3l3.6-.49V148a4.26 4.26 0 0 1 3.87-1.81 4.51 4.51 0 0 1 3.2 1.28zM324.41 159.48a6.15 6.15 0 0 1-4.36-1.59 5.75 5.75 0 0 1-1.81-4.45v-1a6.44 6.44 0 0 1 1.64-4.53 5.85 5.85 0 0 1 4.55-1.86 6.43 6.43 0 0 1 4 1.17 3.91 3.91 0 0 1 1.64 3.25 3.19 3.19 0 0 1-1.13 2.52 5.14 5.14 0 0 1-3.45 1.05h-3.65a2.37 2.37 0 0 0 .86 1.88 3 3 0 0 0 1.74.64h.44a6 6 0 0 0 2.47-.56 8.18 8.18 0 0 0 2.1-1.35l-.1 2.74v.71a8.22 8.22 0 0 1-2 .91 9.59 9.59 0 0 1-2.94.47zm-1.69-14.37l-2.94-3.7h3.57l2 3.43v.27zm-.91 6.46H325q1.71 0 1.71-1.35t-2-1.44a3.24 3.24 0 0 0-2.08.66 2.22 2.22 0 0 0-.86 1.79zM344.36 146.12v17.52l-3.6.91V158a4.51 4.51 0 0 1-3.65 1.44 4.38 4.38 0 0 1-3.28-1.39 4.73 4.73 0 0 1-1.37-3.45v-3.62a4.76 4.76 0 0 1 1.37-3.48 4.37 4.37 0 0 1 3.28-1.37 4.42 4.42 0 0 1 3.65 1.54l.12-1.52zm-3.57 5.24q0-2.62-2.37-2.62t-2.35 2.62v2.69q0 2.59 2.35 2.59a2.18 2.18 0 0 0 1.66-.71 2.65 2.65 0 0 0 .71-1.88zM349.08 158.09a4.12 4.12 0 0 1-1.32-3.08v-8.81h3.57v7.64a2.41 2.41 0 0 0 .71 1.74 2.31 2.31 0 0 0 1.69.71 2.33 2.33 0 0 0 1.71-.71 2.36 2.36 0 0 0 .71-1.74v-7.64h3.6v13.17h-3.4l-.2-1.91a4.26 4.26 0 0 1-3.87 1.91 4.5 4.5 0 0 1-3.2-1.28zM364.68 157.89a5.75 5.75 0 0 1-1.81-4.45v-1a6.44 6.44 0 0 1 1.64-4.53 5.85 5.85 0 0 1 4.55-1.86 6.43 6.43 0 0 1 4 1.17 3.91 3.91 0 0 1 1.64 3.25 3.19 3.19 0 0 1-1.13 2.52 5.14 5.14 0 0 1-3.45 1.05h-3.65a2.37 2.37 0 0 0 .86 1.88 3 3 0 0 0 1.74.64h.44a6 6 0 0 0 2.47-.56 8.18 8.18 0 0 0 2.1-1.35l-.1 2.74v.71a8.23 8.23 0 0 1-2 .91 9.59 9.59 0 0 1-2.91.46 6.14 6.14 0 0 1-4.39-1.58zm1.76-6.31h3.21q1.71 0 1.71-1.35t-2-1.44a3.24 3.24 0 0 0-2.08.66 2.22 2.22 0 0 0-.86 1.79zM378.06 154.91a17.46 17.46 0 0 0 2.33 1.22 8.24 8.24 0 0 0 2.3.59h.44q1.27 0 1.49-.91a1.86 1.86 0 0 0 0-.29q0-.81-1.25-1.15l-1.62-.42q-1-.27-1.27-.39a4.82 4.82 0 0 1-2.28-1.69 3.32 3.32 0 0 1-.56-1.91 5.23 5.23 0 0 1 .1-1 3.16 3.16 0 0 1 1.74-2.3 6.74 6.74 0 0 1 3.25-.69 9.62 9.62 0 0 1 2.64.39 12.91 12.91 0 0 1 2.35 1l-.42 3.23a9.39 9.39 0 0 0-3.94-1.74 3.94 3.94 0 0 0-.59 0 2.49 2.49 0 0 0-.73.1 1.13 1.13 0 0 0-.83.71 1.33 1.33 0 0 0-.07.42q0 .83 1.3 1.2.64.17 1.57.47l1.54.46a3.2 3.2 0 0 1 2.52 3.25 3.1 3.1 0 0 1 0 .37 3.54 3.54 0 0 1-1.64 2.89 6 6 0 0 1-3.3.83H383a11.53 11.53 0 0 1-2.1-.2 12.42 12.42 0 0 1-1.69-.46 7.41 7.41 0 0 1-1.1-.46 1.66 1.66 0 0 1-.39-.2zM398.11 154a8.43 8.43 0 0 0 2.4 1.76 6.11 6.11 0 0 0 2.77.73 4.31 4.31 0 0 0 1.86-.34 2 2 0 0 0 1-1.42 1.62 1.62 0 0 0 0-.39q0-1.49-2.15-2.18l-1.1-.34q-.54-.17-1-.34-1.05-.37-2.25-.88a4.52 4.52 0 0 1-2.52-2.64 5 5 0 0 1-.37-1.86 5.19 5.19 0 0 1 .42-2 4.83 4.83 0 0 1 2.52-2.59 7.56 7.56 0 0 1 3.28-.69h.59a10.83 10.83 0 0 1 6 2.13l-1.76 3.13a6.48 6.48 0 0 0-4.5-2.3h-.29q-2.28 0-2.64 1.76a2.63 2.63 0 0 0-.07.59 2 2 0 0 0 1.64 2l2.72.93q.88.32 1.54.59t1.3.61a4.35 4.35 0 0 1 2.2 2.4 4.17 4.17 0 0 1 .27 1.49 5.77 5.77 0 0 1-.27 1.69 4.79 4.79 0 0 1-2.32 2.79 7.67 7.67 0 0 1-3.84 1 12.22 12.22 0 0 1-3.89-.61 8.62 8.62 0 0 1-2.89-1.52zM422.29 147.57a5.25 5.25 0 0 1 1.64 4v7.83h-3.26l-.1-1.15a4.83 4.83 0 0 1-3.5 1.3 4.91 4.91 0 0 1-3.35-1.22 3.71 3.71 0 0 1-1.37-2.89V155a3.73 3.73 0 0 1 1.37-2.91 5 5 0 0 1 3.35-1.2 5.07 5.07 0 0 1 3.5 1.17v-1a2.18 2.18 0 0 0-1-2 2.85 2.85 0 0 0-1.59-.42h-.2a6.51 6.51 0 0 0-3.79 1.42q-.27-.74-.54-1.54l-.42-1.32a10.72 10.72 0 0 1 2.3-.88 11.3 11.3 0 0 1 2.89-.34 5.59 5.59 0 0 1 4.07 1.59zm-3.87 9.33q2.2 0 2.2-1.74t-2.2-1.71h-.49q-2.2 0-2.2 1.71t2.2 1.74zM438.24 147.47a4.12 4.12 0 0 1 1.32 3.08v8.81H436v-7.64a2.42 2.42 0 0 0-.71-1.74 2.31 2.31 0 0 0-1.69-.71 2.34 2.34 0 0 0-1.71.71 2.36 2.36 0 0 0-.71 1.74v7.64h-3.6v-12.75l3.6-.49v1.93a4.26 4.26 0 0 1 3.82-1.85 4.5 4.5 0 0 1 3.24 1.27zM443.36 154.91a17.45 17.45 0 0 0 2.33 1.22 8.24 8.24 0 0 0 2.3.59h.44q1.27 0 1.49-.91a1.86 1.86 0 0 0 0-.29q0-.81-1.25-1.15l-1.62-.42q-1-.27-1.27-.39a4.82 4.82 0 0 1-2.28-1.69 3.32 3.32 0 0 1-.5-1.87 5.23 5.23 0 0 1 .1-1 3.16 3.16 0 0 1 1.74-2.3 6.74 6.74 0 0 1 3.25-.69 9.62 9.62 0 0 1 2.64.39 12.91 12.91 0 0 1 2.35 1l-.42 3.23a9.39 9.39 0 0 0-3.94-1.74 3.94 3.94 0 0 0-.59 0 2.49 2.49 0 0 0-.73.1 1.13 1.13 0 0 0-.83.71 1.33 1.33 0 0 0-.07.42q0 .83 1.3 1.2.64.17 1.57.47l1.54.46a3.2 3.2 0 0 1 2.52 3.25 3.12 3.12 0 0 1 0 .37 3.54 3.54 0 0 1-1.64 2.89 6 6 0 0 1-3.3.83h-.1a11.53 11.53 0 0 1-2.1-.2 12.41 12.41 0 0 1-1.69-.46 7.41 7.41 0 0 1-1.1-.46 1.66 1.66 0 0 1-.39-.2zM462.65 141h11.09v3.23h-7.46v4.26h6.66v3.13h-6.66v7.76h-3.62zM475.94 146.56l3.57-.47v2.52a3.8 3.8 0 0 1 1.27-1.74 3.34 3.34 0 0 1 2.08-.76 2.51 2.51 0 0 1 1.17.24l-.34 3.3a2.06 2.06 0 0 0-1.12-.29h-.29q-2.77.24-2.77 3.18v6.78h-3.57zM486.63 157.63a5.91 5.91 0 0 1-1.74-4.36v-1.05a6 6 0 0 1 1.71-4.28 6.11 6.11 0 0 1 4.6-1.88 6.25 6.25 0 0 1 4.67 1.88 6 6 0 0 1 1.71 4.31v1.05a5.92 5.92 0 0 1-1.71 4.33 6.14 6.14 0 0 1-4.6 1.83 6.2 6.2 0 0 1-4.64-1.83zm1.86-4.06q0 3.09 2.79 3.08t2.72-3.08V152q0-3.11-2.79-3.11t-2.72 3.11zM511.32 147.47a4.12 4.12 0 0 1 1.32 3.08v8.81h-3.57v-7.64a2.42 2.42 0 0 0-.71-1.74 2.31 2.31 0 0 0-1.69-.71 2.34 2.34 0 0 0-1.67.73 2.36 2.36 0 0 0-.71 1.74v7.64h-3.6v-12.77l3.6-.49v1.93a4.26 4.26 0 0 1 3.87-1.86 4.51 4.51 0 0 1 3.16 1.28zM523.83 158.68a2 2 0 0 1-.32.17 5.41 5.41 0 0 1-.86.32 5.89 5.89 0 0 1-1.52.2 6.45 6.45 0 0 1-1-.07 3.53 3.53 0 0 1-2.4-1.27 5.43 5.43 0 0 1-.91-3.4v-6h-2.11v-2.53h2.11v-3.84l3.57-.49v4.33h4v2.55h-4v5.26q0 2.18 1 2.47a1.7 1.7 0 0 0 .59.1 2.62 2.62 0 0 0 .83-.15 3.87 3.87 0 0 0 1.22-.59v2.79zM529.07 144.29a2 2 0 1 1 0-4h.15a1.79 1.79 0 0 1 2 2 1.77 1.77 0 0 1-2 2zm-1.74 15.08v-12.93l3.6-.49v13.41zM540.45 159.48a6.14 6.14 0 0 1-4.36-1.59 5.75 5.75 0 0 1-1.81-4.45v-1a6.44 6.44 0 0 1 1.64-4.53 5.85 5.85 0 0 1 4.55-1.86 6.43 6.43 0 0 1 4 1.17 3.91 3.91 0 0 1 1.64 3.25A3.19 3.19 0 0 1 545 153a5.14 5.14 0 0 1-3.5 1h-3.65a2.38 2.38 0 0 0 .86 1.88 3 3 0 0 0 1.74.64h.44a6 6 0 0 0 2.47-.56 8.18 8.18 0 0 0 2.1-1.35l-.1 2.74v.71a8.23 8.23 0 0 1-2 .91 9.59 9.59 0 0 1-2.91.51zm-1.69-14.37l-2.94-3.7h3.57l2 3.43v.27zm-.91 6.46h3.21q1.71 0 1.71-1.35t-2-1.44a3.24 3.24 0 0 0-2.08.66 2.22 2.22 0 0 0-.86 1.79zM549.14 146.56l3.57-.47v2.52a3.8 3.8 0 0 1 1.27-1.74 3.34 3.34 0 0 1 2.08-.76 2.51 2.51 0 0 1 1.17.24l-.34 3.3a2.06 2.06 0 0 0-1.12-.29h-.29q-2.77.24-2.77 3.18v6.78h-3.57zM560.27 157.89a5.75 5.75 0 0 1-1.81-4.45v-1a6.44 6.44 0 0 1 1.64-4.53 5.85 5.85 0 0 1 4.55-1.86 6.43 6.43 0 0 1 4 1.17 3.91 3.91 0 0 1 1.64 3.25 3.19 3.19 0 0 1-1.13 2.52 5.14 5.14 0 0 1-3.45 1.05H562a2.37 2.37 0 0 0 .86 1.88 3 3 0 0 0 1.74.64h.44a6 6 0 0 0 2.47-.56 8.18 8.18 0 0 0 2.1-1.35l-.1 2.74v.71a8.23 8.23 0 0 1-2 .91 9.59 9.59 0 0 1-2.91.46 6.14 6.14 0 0 1-4.33-1.58zm1.76-6.31h3.21q1.71 0 1.71-1.35t-2-1.44a3.24 3.24 0 0 0-2.08.66 2.22 2.22 0 0 0-.86 1.79zM573.66 154.91a17.46 17.46 0 0 0 2.33 1.22 8.24 8.24 0 0 0 2.3.59h.44q1.27 0 1.49-.91a1.86 1.86 0 0 0 0-.29q0-.81-1.25-1.15l-1.62-.42q-1-.27-1.27-.39a4.82 4.82 0 0 1-2.28-1.69 3.32 3.32 0 0 1-.56-1.91 5.22 5.22 0 0 1 .1-1 3.16 3.16 0 0 1 1.74-2.3 6.74 6.74 0 0 1 3.25-.69 9.62 9.62 0 0 1 2.64.39 12.91 12.91 0 0 1 2.35 1l-.42 3.23a9.39 9.39 0 0 0-3.94-1.74 3.94 3.94 0 0 0-.59 0 2.49 2.49 0 0 0-.73.1 1.13 1.13 0 0 0-.83.71 1.32 1.32 0 0 0-.07.42q0 .83 1.3 1.2.64.17 1.57.47l1.54.46a3.2 3.2 0 0 1 2.52 3.25 3.12 3.12 0 0 1 0 .37 3.54 3.54 0 0 1-1.64 2.89 6 6 0 0 1-3.3.83h-.1a11.53 11.53 0 0 1-2.1-.2 12.42 12.42 0 0 1-1.69-.46 7.4 7.4 0 0 1-1.1-.46 1.65 1.65 0 0 1-.39-.2zM230.82 125.77l-8.56-32.31h6.58l5.64 21.77.26 3.53.26-2.76 4.69-22.07h6.58l5.12 22.37.17 2.41.17-3.23L257 93.41h6.54l-8 32.36h-8l-4.35-19.41-.21-3.14-.22 3.14-4 19.41zM271.23 99.27q-3.53 0-3.53-3.49t3.53-3.53h.26q3.49.09 3.49 3.53t-3.44 3.49zm-3.06 26.5v-22.72l6.33-.86v23.58zM295.49 124.57a3.46 3.46 0 0 1-.56.3 9.55 9.55 0 0 1-1.51.56 10.31 10.31 0 0 1-2.67.34 11.3 11.3 0 0 1-1.68-.13 6.2 6.2 0 0 1-4.22-2.24q-1.59-2-1.59-6v-10.5h-3.7v-4.47h3.7v-6.74l6.28-.86v7.62h7.06v4.47h-7v9.25q0 3.83 1.68 4.35a3 3 0 0 0 1 .17 4.64 4.64 0 0 0 1.46-.26 6.81 6.81 0 0 0 2.15-1v4.91zM320.75 104.86a7.25 7.25 0 0 1 2.32 5.42v15.49h-6.28v-13.42a4.25 4.25 0 0 0-1.25-3.05 4.06 4.06 0 0 0-3-1.25 4.11 4.11 0 0 0-3 1.25 4.06 4.06 0 0 0-1.25 3v13.51H302V94l6.33-.86v12.65q2.07-3.18 6.8-3.18a7.92 7.92 0 0 1 5.62 2.25zM332.24 122.72a10.38 10.38 0 0 1-3.06-7.66v-1.85a10.5 10.5 0 0 1 3-7.53 10.74 10.74 0 0 1 8.09-3.31 11 11 0 0 1 8.22 3.31 10.46 10.46 0 0 1 3 7.57v1.85a10.41 10.41 0 0 1-3 7.62 11.86 11.86 0 0 1-16.26 0zm3.27-7.14q0 5.42 4.91 5.42t4.78-5.42v-2.8q0-5.46-4.91-5.46t-4.78 5.46zM359.91 123.53a7.25 7.25 0 0 1-2.32-5.42v-15.49h6.28V116a4.24 4.24 0 0 0 1.25 3.05 4.05 4.05 0 0 0 3 1.25 4.1 4.1 0 0 0 3-1.25 4.16 4.16 0 0 0 1.25-3.05v-13.38h6.33v23.15h-6l-.34-3.36q-2.15 3.36-6.8 3.36a7.92 7.92 0 0 1-5.65-2.24zM398.8 124.57a3.4 3.4 0 0 1-.56.3 9.5 9.5 0 0 1-1.51.56 10.31 10.31 0 0 1-2.67.34 11.32 11.32 0 0 1-1.68-.13 6.2 6.2 0 0 1-4.22-2.24q-1.59-2-1.59-6v-10.5h-3.7v-4.47h3.7v-6.74l6.28-.86v7.62h7.06v4.47h-7v9.25q0 3.83 1.68 4.35a3 3 0 0 0 1 .17 4.65 4.65 0 0 0 1.46-.26 6.81 6.81 0 0 0 2.15-1v4.91zM417.65 125.77V93.46h12A11.23 11.23 0 0 1 437.4 96a7.14 7.14 0 0 1 2.58 5.55 9.64 9.64 0 0 1-1.16 4.95 7.86 7.86 0 0 1-2.5 2.67 10.15 10.15 0 0 1 3.18 2.71 8.2 8.2 0 0 1 1.63 5 8 8 0 0 1-2.62 6.28q-2.8 2.58-7.79 2.58zm11.62-18.72q4.39 0 4.39-4.17a3.6 3.6 0 0 0-1.29-2.84 4.53 4.53 0 0 0-3.14-1.12H424v8.13zm.52 13.29q4.6 0 4.6-4.22 0-3.83-4.6-3.83H424v8zM449.87 122.72a10.38 10.38 0 0 1-3.05-7.66v-1.85a10.49 10.49 0 0 1 3-7.53 10.74 10.74 0 0 1 8.09-3.31 11 11 0 0 1 8.22 3.31 10.46 10.46 0 0 1 3 7.57v1.85a10.41 10.41 0 0 1-3 7.62 11.86 11.86 0 0 1-16.26 0zm3.27-7.14q0 5.42 4.91 5.42t4.78-5.42v-2.8q0-5.46-4.91-5.46t-4.78 5.46zM475.22 103.27l6.28-.82v4.43a6.69 6.69 0 0 1 2.24-3.05 5.87 5.87 0 0 1 3.66-1.33 4.42 4.42 0 0 1 2.07.43l-.6 5.81a3.64 3.64 0 0 0-2-.52 3.18 3.18 0 0 0-.52 0q-4.86.43-4.86 5.59v11.92h-6.28zM507.44 125.77l-.21-2.71a7.76 7.76 0 0 1-6.41 2.71 7.69 7.69 0 0 1-5.77-2.41 8.37 8.37 0 0 1-2.41-6.11v-6.2a8.32 8.32 0 0 1 2.41-6.07 7.71 7.71 0 0 1 5.77-2.45 8.13 8.13 0 0 1 6.45 2.71V94.32l6.28-1.12v32.57zm-.17-13.77a4.67 4.67 0 0 0-1.25-3.31 3.83 3.83 0 0 0-2.93-1.25Q499 107.4 499 112v4.56q0 4.61 4.13 4.6t4.17-4.6zM523.06 123.19a10.12 10.12 0 0 1-3.18-7.83v-1.81a11.32 11.32 0 0 1 2.88-8 10.28 10.28 0 0 1 8-3.27 11.3 11.3 0 0 1 7 2.07 6.87 6.87 0 0 1 2.88 5.72 5.6 5.6 0 0 1-2 4.43 9 9 0 0 1-6.07 1.85h-6.41a4.17 4.17 0 0 0 1.51 3.31 5.25 5.25 0 0 0 3.05 1.12 6.86 6.86 0 0 0 .77 0 10.5 10.5 0 0 0 4.35-1 14.34 14.34 0 0 0 3.7-2.37l-.17 4.82v1.25a14.52 14.52 0 0 1-3.49 1.59 16.89 16.89 0 0 1-5.12.82 10.81 10.81 0 0 1-7.7-2.7zm3.1-11.1h5.64q3 0 3-2.37 0-2.54-3.49-2.54a5.7 5.7 0 0 0-3.66 1.16 3.91 3.91 0 0 0-1.51 3.14zM546.77 103.27l6.28-.82v4.43a6.69 6.69 0 0 1 2.24-3.05 5.87 5.87 0 0 1 3.66-1.33 4.42 4.42 0 0 1 2.07.43l-.6 5.81a3.64 3.64 0 0 0-2-.52 3.18 3.18 0 0 0-.52 0q-4.86.43-4.86 5.59v11.92h-6.28zM565.57 117.94a30.46 30.46 0 0 0 4.09 2.15 14.48 14.48 0 0 0 4 1h.77q2.24 0 2.62-1.59a3.17 3.17 0 0 0 0-.52q0-1.42-2.19-2l-2.84-.73q-1.68-.47-2.24-.69a8.49 8.49 0 0 1-4-3 5.84 5.84 0 0 1-1-3.36 9.18 9.18 0 0 1 .17-1.72 5.56 5.56 0 0 1 3.05-4 11.86 11.86 0 0 1 5.72-1.21 16.93 16.93 0 0 1 4.65.69 22.8 22.8 0 0 1 4.13 1.68l-.73 5.68a16.52 16.52 0 0 0-6.93-3.06 6.92 6.92 0 0 0-1-.09 4.37 4.37 0 0 0-1.29.17 2 2 0 0 0-1.46 1.25 2.33 2.33 0 0 0-.13.73q0 1.46 2.28 2.11 1.12.3 2.75.82l2.71.82q4.43 1.42 4.43 5.72a5.28 5.28 0 0 1 0 .65 6.22 6.22 0 0 1-2.88 5.08 10.58 10.58 0 0 1-5.81 1.46h-.17a20.19 20.19 0 0 1-3.7-.34 21.64 21.64 0 0 1-3-.82 13.09 13.09 0 0 1-1.94-.82 3 3 0 0 1-.69-.34zM222.87 81.59V20.47h12v50.46h27.23l-2.2 10.66zM278.46 31.46q-6.67 0-6.67-6.59t6.67-6.67h.49q6.59.16 6.59 6.67T279 31.46zm-5.78 50.14v-43l12-1.63v44.6zM299.62 81.59V22.42l12-2.12v22.39q4.31-5 12.13-5a14.58 14.58 0 0 1 10.91 4.64 15.73 15.73 0 0 1 4.56 11.48v11.67a15.83 15.83 0 0 1-4.6 11.52 14.54 14.54 0 0 1-10.91 4.56q-8.06 0-12.13-5l-.41 5zm11.88-17.5q0 8.71 7.89 8.71t7.81-8.71v-8.63q0-8.63-7.81-8.63a7.24 7.24 0 0 0-5.53 2.36 8.82 8.82 0 0 0-2.36 6.27zM352.85 39l11.88-1.55v8.38a12.66 12.66 0 0 1 4.27-5.75 11.11 11.11 0 0 1 6.92-2.52 8.35 8.35 0 0 1 3.91.81l-1.14 11a6.88 6.88 0 0 0-3.74-1 6 6 0 0 0-1 .08q-9.2.81-9.2 10.58v22.56h-11.9zM417.63 42.36a17.46 17.46 0 0 1 5.45 13.18v26h-10.82l-.33-3.83a16.07 16.07 0 0 1-11.64 4.31A16.33 16.33 0 0 1 389.15 78a12.33 12.33 0 0 1-4.56-9.6v-1.22a12.41 12.41 0 0 1 4.56-9.68 16.53 16.53 0 0 1 11.15-4q7.24 0 11.64 3.91v-3.25q0-4.56-3.17-6.59a9.48 9.48 0 0 0-5.29-1.38h-.65a21.66 21.66 0 0 0-12.62 4.72q-.9-2.44-1.79-5.13l-1.42-4.4a35.55 35.55 0 0 1 7.65-2.93 37.59 37.59 0 0 1 9.6-1.14 18.57 18.57 0 0 1 13.38 5.05zm-12.86 31q7.32 0 7.33-5.78t-7.33-5.7h-1.63q-7.33 0-7.33 5.7t7.33 5.78zM436.43 39l11.88-1.55v8.38a12.66 12.66 0 0 1 4.23-5.78 11.11 11.11 0 0 1 6.92-2.52 8.35 8.35 0 0 1 3.91.81l-1.14 11a6.88 6.88 0 0 0-3.74-1 6 6 0 0 0-1 .08q-9.2.81-9.2 10.58v22.59h-11.86zM478.67 31.46q-6.68 0-6.67-6.59t6.67-6.67h.49q6.59.16 6.59 6.67t-6.51 6.59zm-5.77 50.13v-43l12-1.63v44.6zM503.91 76.71q-6-5.53-6-14.81v-3.42q0-9.11 5.45-15.06 5.62-6.18 15.14-6.19 8 0 13.18 3.91A13 13 0 0 1 537.11 52a10.6 10.6 0 0 1-3.74 8.38q-4.07 3.5-11.48 3.5h-12.12a7.9 7.9 0 0 0 2.85 6.27 9.93 9.93 0 0 0 5.78 2.12 13.14 13.14 0 0 0 1.46.08 19.86 19.86 0 0 0 8.22-1.87 27.07 27.07 0 0 0 7-4.48l-.33 9.12q0 1.46-.08 2.36a27.5 27.5 0 0 1-6.59 3 31.94 31.94 0 0 1-9.69 1.52q-8.79 0-14.48-5.29zm5.86-21h10.66q5.7 0 5.7-4.48 0-4.8-6.59-4.8a10.77 10.77 0 0 0-6.92 2.2 7.39 7.39 0 0 0-2.85 5.94zM550.46 66.78a57.79 57.79 0 0 0 7.73 4.07 27.34 27.34 0 0 0 7.65 2q.81.08 1.46.08 4.23 0 5-3a6 6 0 0 0 .08-1q0-2.69-4.15-3.83l-5.37-1.38q-3.17-.9-4.23-1.3a16.06 16.06 0 0 1-7.63-5.65 11.05 11.05 0 0 1-1.87-6.35 17.36 17.36 0 0 1 .33-3.26 10.52 10.52 0 0 1 5.78-7.65q4.15-2.28 10.83-2.28a32 32 0 0 1 8.79 1.3 43.11 43.11 0 0 1 7.81 3.17l-1.38 10.74q-7.57-5.13-13.1-5.78a13 13 0 0 0-2-.16 8.32 8.32 0 0 0-2.44.33A3.77 3.77 0 0 0 561 49.2a4.37 4.37 0 0 0-.24 1.38q0 2.77 4.31 4 2.12.57 5.21 1.55l5.13 1.55q8.38 2.69 8.38 10.83a10 10 0 0 1-.08 1.22 11.76 11.76 0 0 1-5.45 9.6 20 20 0 0 1-11 2.77H567a38.22 38.22 0 0 1-7-.65 40.81 40.81 0 0 1-5.62-1.55 24.6 24.6 0 0 1-3.66-1.55 5.61 5.61 0 0 1-1.3-.65z" fill="#1e6131"/></svg>