<?xml version="1.0" encoding="utf-8"?>
<!-- Generator: Adobe Illustrator 21.0.0, SVG Export Plug-In . SVG Version: 6.00 Build 0)  -->
<svg version="1.1" id="Layer_1" xmlns="http://www.w3.org/2000/svg" xmlns:xlink="http://www.w3.org/1999/xlink" x="0px" y="0px"
	 viewBox="0 0 41.4 41.4" style="enable-background:new 0 0 41.4 41.4;" xml:space="preserve">
<style type="text/css">
	.st0{fill:#FFFFFF;enable-background:new    ;}
</style>
<path class="st0" d="M9,18c-4.9,0-9-4-9-9s4-9,9-9s9,4,9,9S13.9,18,9,18z M9,2.9c-3.3,0-6,2.7-6,6s2.7,6,6,6s6-2.7,6-6
	C15,5.6,12.3,2.9,9,2.9L9,2.9z"/>
<path class="st0" d="M32.5,18c-5,0-9-4-9-9s4-9,9-9s9,4,9,9S37.4,18,32.5,18L32.5,18z M32.5,2.9c-3.3,0-6,2.7-6,6s2.7,6,6,6
	s6-2.7,6-6C38.5,5.6,35.8,2.9,32.5,2.9L32.5,2.9z"/>
<path class="st0" d="M9,41.4c-4.9,0-9-4-9-9s4-9,9-9s9,4,9,9S13.9,41.4,9,41.4z M9,26.4c-3.3,0-6,2.7-6,6s2.7,6,6,6s6-2.7,6-6
	S12.3,26.4,9,26.4L9,26.4z"/>
<path class="st0" d="M32.5,41.4c-5,0-9-4-9-9s4-9,9-9s9,4,9,9S37.4,41.4,32.5,41.4L32.5,41.4z M32.5,26.4c-3.3,0-6,2.7-6,6
	s2.7,6,6,6s6-2.7,6-6S35.8,26.4,32.5,26.4L32.5,26.4z"/>
</svg>
