<?xml version="1.0" encoding="utf-8"?>
<!-- Generator: Adobe Illustrator 24.0.0, SVG Export Plug-In . SVG Version: 6.00 Build 0)  -->
<svg version="1.1" xmlns="http://www.w3.org/2000/svg" xmlns:xlink="http://www.w3.org/1999/xlink" x="0px" y="0px"
	 viewBox="0 0 1440 1300" style="enable-background:new 0 0 1440 1300;" xml:space="preserve">
<style type="text/css">
	.st0{fill:#74797E;}
	.st1{fill:#B2E1EB;}
	.st2{fill:#8AB8D4;}
	.st3{fill:#F4FDFF;}
	.st4{fill:#FF3333;}
	.st5{fill:#2C84DB;}
	.st6{fill:#F9CF1E;}
	.st7{fill:#FA9664;}
	.st8{fill:#2A56AD;}
	.st9{fill:#44B3E6;}
	.st10{opacity:0.25;fill:#42474D;}
	.st11{fill:#9D87F5;}
	.st12{fill:#3A058D;}
	.st13{fill:#5C01E4;}
	.st14{fill:#C7E8F9;}
	.st15{fill:none;}
	.st16{fill:#E9F9FD;}
	.st17{fill:none;stroke:#41474C;stroke-width:6;stroke-linecap:round;stroke-linejoin:round;stroke-miterlimit:10;}
	.st18{fill:none;stroke:#41474C;stroke-width:38;stroke-linecap:round;stroke-linejoin:round;stroke-miterlimit:10;}
	.st19{fill:#D92626;}
	.st20{opacity:0.2;enable-background:new    ;}
	.st21{fill:#41474C;}
	.st22{fill:#FFFFFF;}
	.st23{fill:#00B4C9;}
	.st24{fill:none;stroke:#00B4C9;stroke-width:4;stroke-linecap:round;stroke-linejoin:round;stroke-miterlimit:10;}
	.st25{fill:#7099BA;}
	.st26{fill:#587E9C;}
	.st27{fill:#6BB4FD;}
	.st28{fill:none;stroke:#9FCEFF;stroke-width:30;stroke-linecap:round;stroke-linejoin:round;stroke-miterlimit:10;}
	
		.st29{fill:none;stroke:#9FCEFF;stroke-width:40;stroke-linecap:round;stroke-linejoin:round;stroke-miterlimit:10;stroke-dasharray:1,50;}
	.st30{fill:#EE6262;}
	.st31{fill:#9FCEFF;}
	.st32{fill:#3399FF;}
</style>
<g id="card_grid">
</g>
<g id="bg_x5F_color">
</g>
<g id="bgDetail">
</g>
<g id="overlay">
</g>
<g id="press_x5F_treadmill">
	<path class="st0" d="M1077,908.8"/>
	<g>
		<path class="st1" d="M1147.3,1179c0-40.4-64.1-73.2-143.1-73.2s-143.1,32.8-143.1,73.2v511.3h286.8L1147.3,1179z"/>
		<g>
			<path class="st2" d="M1004.2,1265.7c-79,0-143.1,32.8-143.1,73.2c0,40.4,64.1,73.2,143.1,73.2s143.1-32.8,143.1-73.2
				C1147.3,1298.5,1083.2,1265.7,1004.2,1265.7z M1094,1368.5c-23.2,11.9-56,18.7-89.8,18.7c-33.8,0-66.6-6.8-89.8-18.7
				c-17.5-8.9-28.3-20.2-28.3-29.5s10.8-20.6,28.3-29.5c23.2-11.9,56-18.7,89.8-18.7c33.8,0,66.6,6.8,89.8,18.7
				c17.5,8.9,28.3,20.2,28.3,29.5S1111.4,1359.6,1094,1368.5z"/>
		</g>
		<rect x="900.6" y="1220.2" class="st3" width="42.4" height="488.7"/>
		<rect x="1054.2" y="1127.6" class="st2" width="42.4" height="488.7"/>
		<g>
			<path class="st4" d="M1004.2,1105.7c-79,0-143.1,32.8-143.1,73.2c0,40.4,64.1,73.2,143.1,73.2s143.1-32.8,143.1-73.2
				C1147.3,1138.5,1083.2,1105.7,1004.2,1105.7z M1094,1208.5c-23.2,11.9-56,18.7-89.8,18.7c-33.8,0-66.6-6.8-89.8-18.7
				c-17.5-8.9-28.3-20.2-28.3-29.5s10.8-20.6,28.3-29.5c23.2-11.9,56-18.7,89.8-18.7c33.8,0,66.6,6.8,89.8,18.7
				c17.5,8.9,28.3,20.2,28.3,29.5S1111.4,1199.6,1094,1208.5z"/>
		</g>
		<g>
			<path class="st4" d="M1147.2,1176.9h-25.1c0.1,0.7,0.2,1.4,0.2,2.1c0,9.3-10.8,20.6-28.3,29.5c-23.2,11.9-56,18.7-89.8,18.7
				c-33.8,0-66.6-6.8-89.8-18.7c-17.5-8.9-28.3-20.2-28.3-29.5c0-0.7,0.1-1.4,0.2-2.1h-25.1c0,0.7-0.1,1.4-0.1,2.1
				c0,40.4,64.1,73.2,143.1,73.2s143.1-32.8,143.1-73.2C1147.3,1178.3,1147.3,1177.6,1147.2,1176.9z"/>
		</g>
	</g>
	<g>
		<path class="st1" d="M1147.3,1179c0-40.4-64.1-73.2-143.1-73.2s-143.1,32.8-143.1,73.2v511.3h286.8L1147.3,1179z"/>
		<g>
			<path class="st2" d="M1004.2,1265.7c-79,0-143.1,32.8-143.1,73.2c0,40.4,64.1,73.2,143.1,73.2s143.1-32.8,143.1-73.2
				C1147.3,1298.5,1083.2,1265.7,1004.2,1265.7z M1094,1368.5c-23.2,11.9-56,18.7-89.8,18.7c-33.8,0-66.6-6.8-89.8-18.7
				c-17.5-8.9-28.3-20.2-28.3-29.5s10.8-20.6,28.3-29.5c23.2-11.9,56-18.7,89.8-18.7c33.8,0,66.6,6.8,89.8,18.7
				c17.5,8.9,28.3,20.2,28.3,29.5S1111.4,1359.6,1094,1368.5z"/>
		</g>
		<rect x="900.6" y="1220.2" class="st3" width="42.4" height="488.7"/>
		<rect x="1054.2" y="1127.6" class="st2" width="42.4" height="488.7"/>
		<g>
			<path class="st4" d="M1004.2,1105.7c-79,0-143.1,32.8-143.1,73.2c0,40.4,64.1,73.2,143.1,73.2s143.1-32.8,143.1-73.2
				C1147.3,1138.5,1083.2,1105.7,1004.2,1105.7z M1094,1208.5c-23.2,11.9-56,18.7-89.8,18.7c-33.8,0-66.6-6.8-89.8-18.7
				c-17.5-8.9-28.3-20.2-28.3-29.5s10.8-20.6,28.3-29.5c23.2-11.9,56-18.7,89.8-18.7c33.8,0,66.6,6.8,89.8,18.7
				c17.5,8.9,28.3,20.2,28.3,29.5S1111.4,1199.6,1094,1208.5z"/>
		</g>
		<g>
			<g>
				<polygon class="st5" points="974,1088.3 1045.5,1091.3 1094.3,1158 1094.6,1158.5 1052.2,1282.1 980.8,1279.1 976.3,1153 				
					"/>
				<line class="st5" x1="1052.2" y1="1282.1" x2="980.8" y2="1279.1"/>
				<line class="st5" x1="1068.9" y1="1233.6" x2="997.4" y2="1230.5"/>
				<line class="st6" x1="1076.8" y1="1210.5" x2="1005.4" y2="1207.5"/>
				<polygon class="st7" points="997.4,1230.5 1068.9,1233.6 1076.8,1210.5 1005.4,1207.5 				"/>
				<polygon class="st8" points="974,1088.3 1045.5,1091.3 1094.3,1158 952.2,1151.9 				"/>
				<line class="st5" x1="989" y1="1108.7" x2="1060.4" y2="1111.8"/>
				<line class="st6" x1="1004.8" y1="1130.3" x2="1076.3" y2="1133.4"/>
				<polygon class="st7" points="1004.8,1130.3 1076.3,1133.4 1060.4,1111.8 989,1108.7 				"/>
			</g>
			<polygon class="st9" points="974,1088.3 989,1108.7 1004.8,1130.3 1022.9,1155 1023.2,1155.4 980.8,1279.1 962.4,1254 
				946.6,1232.3 931.6,1211.9 			"/>
			<g>
				<g>
					<polygon class="st6" points="989,1108.7 1004.8,1130.3 986.2,1184.7 962.4,1254 946.6,1232.3 965.4,1177.5 					"/>
				</g>
			</g>
			<g>
				<polygon class="st6" points="956.2,1140.3 1005.4,1207.5 997.4,1230.5 948.3,1163.3 952.2,1151.9 				"/>
			</g>
			<g>
				
					<ellipse transform="matrix(4.285112e-02 -0.9991 0.9991 4.285112e-02 -250.8535 2114.6072)" class="st10" cx="978.2" cy="1188.2" rx="29.1" ry="10.6"/>
				<path class="st6" d="M964,1168.4c-6.8-3.7-12.6-4.9-15.2-2.9c-2.7,2.1-1.7,7.1,2,13.2c-7.8,1.5-12.9,4.1-13,7.2
					s4.7,6.1,12.3,8.3c-4.2,5.8-5.6,10.7-3.1,13c2.5,2.3,8.3,1.5,15.4-1.5c1.9,6.7,4.9,11.1,8.6,11.2c3.6,0.2,7.1-3.9,9.5-10.5
					c1-2.7,1.8-5.8,2.4-9.1c0.3-1.7,0.6-3.5,0.7-5.3c0.1-1.3,0.2-2.7,0.3-4.1s0.1-2.8,0.1-4.1c0-1.9-0.1-3.7-0.3-5.4
					c-0.3-3.4-0.9-6.6-1.6-9.3c-1.9-6.7-4.9-11.1-8.6-11.2C969.9,1157.8,966.5,1161.9,964,1168.4z"/>
			</g>
		</g>
		<g>
			<path class="st4" d="M1147.2,1176.9h-25.1c0.1,0.7,0.2,1.4,0.2,2.1c0,9.3-10.8,20.6-28.3,29.5c-23.2,11.9-56,18.7-89.8,18.7
				c-33.8,0-66.6-6.8-89.8-18.7c-17.5-8.9-28.3-20.2-28.3-29.5c0-0.7,0.1-1.4,0.2-2.1h-25.1c0,0.7-0.1,1.4-0.1,2.1
				c0,40.4,64.1,73.2,143.1,73.2s143.1-32.8,143.1-73.2C1147.3,1178.3,1147.3,1177.6,1147.2,1176.9z"/>
		</g>
	</g>
	<g>
		<path class="st1" d="M394.2,1094.8c0-40.4-64.1-73.2-143.1-73.2S108,1054.4,108,1094.8v511.3h286.8L394.2,1094.8z"/>
		<g>
			<path class="st2" d="M251.1,1181.6c-79,0-143.1,32.8-143.1,73.2c0,40.4,64.1,73.2,143.1,73.2s143.1-32.8,143.1-73.2
				C394.2,1214.4,330.2,1181.6,251.1,1181.6z M340.9,1284.4c-23.2,11.9-56,18.7-89.8,18.7c-33.8,0-66.6-6.8-89.8-18.7
				c-17.5-8.9-28.3-20.2-28.3-29.5s10.8-20.6,28.3-29.5c23.2-11.9,56-18.7,89.8-18.7c33.8,0,66.6,6.8,89.8,18.7
				c17.5,8.9,28.3,20.2,28.3,29.5S358.4,1275.4,340.9,1284.4z"/>
		</g>
		<rect x="147.5" y="1136.1" class="st3" width="42.4" height="488.7"/>
		<rect x="301.2" y="1043.5" class="st2" width="42.4" height="488.7"/>
		<g>
			<path class="st4" d="M251.1,1021.6c-79,0-143.1,32.8-143.1,73.2c0,40.4,64.1,73.2,143.1,73.2s143.1-32.8,143.1-73.2
				C394.2,1054.4,330.2,1021.6,251.1,1021.6z M340.9,1124.4c-23.2,11.9-56,18.7-89.8,18.7c-33.8,0-66.6-6.8-89.8-18.7
				c-17.5-8.9-28.3-20.2-28.3-29.5s10.8-20.6,28.3-29.5c23.2-11.9,56-18.7,89.8-18.7c33.8,0,66.6,6.8,89.8,18.7
				c17.5,8.9,28.3,20.2,28.3,29.5S358.4,1115.4,340.9,1124.4z"/>
		</g>
		<g>
			<path class="st4" d="M394.2,1092.8H369c0.1,0.7,0.2,1.4,0.2,2.1c0,9.3-10.8,20.6-28.3,29.5c-23.2,11.9-56,18.7-89.8,18.7
				c-33.8,0-66.6-6.8-89.8-18.7c-17.5-8.9-28.3-20.2-28.3-29.5c0-0.7,0.1-1.4,0.2-2.1h-25.1c0,0.7-0.1,1.4-0.1,2.1
				c0,40.4,64.1,73.2,143.1,73.2s143.1-32.8,143.1-73.2C394.2,1094.1,394.2,1093.5,394.2,1092.8z"/>
		</g>
	</g>
	<g>
		<path class="st11" d="M677.7,1175.4c0-26.7-42.3-48.4-94.5-48.4s-94.5,21.7-94.5,48.4v337.7h189.4L677.7,1175.4z"/>
		<g>
			<path class="st12" d="M677.7,1175.4c0,26.7-42.3,48.4-94.5,48.4c-52.2,0-94.5-21.7-94.5-48.4c0-26.7,42.3-48.4,94.5-48.4
				C635.3,1127.1,677.7,1148.7,677.7,1175.4z"/>
			<path class="st13" d="M583.2,1127.1c-52.2,0-94.5,21.7-94.5,48.4c0,26.7,42.3,48.4,94.5,48.4c52.2,0,94.5-21.7,94.5-48.4
				C677.7,1148.7,635.3,1127.1,583.2,1127.1z M642.5,1194.9c-15.3,7.9-37,12.4-59.3,12.4c-22.3,0-44-4.5-59.3-12.4
				c-11.5-5.9-18.7-13.4-18.7-19.5c0-6.1,7.2-13.6,18.7-19.5c15.3-7.8,37-12.3,59.3-12.3c22.3,0,44,4.5,59.3,12.3
				c11.5,5.9,18.7,13.4,18.7,19.5C661.2,1181.5,654,1189,642.5,1194.9z"/>
		</g>
		<g>
			<g>
				<path class="st14" d="M542.2,1124.3l-10.6-1.4l-8.9-1.2l-11.5-1.5l-1-4.2c-3.7-0.5-10.7,5.8-11,9.5l-0.9,11.9l-0.5,6.8l-0.6,8.1
					c-0.1,1.2,0.2,2.4,0.7,3.5l16.8,31.9c0.4,0.8,1.1,1.6,1.8,2.1l12,9.2l5.2,4l16.2,12.4c0.9,0.7,2,1.1,3.1,1.3l9.8,1.3l11.5,1.6
					l8.9,1.2l0.9,0.1l9.7,1.3l5.6-3.6L542.2,1124.3z"/>
				<g>
					<polygon class="st15" points="567.1,1191.6 568,1193.3 567.1,1191.6 544.1,1147.9 542.3,1144.4 554.2,1167.1 					"/>
					<path class="st16" d="M580.1,1216.1l-11.5-1.6l-9.8-1.3c-1.1-0.2-2.2-0.6-3.1-1.3l-16.2-12.4l-5.2-4l-12-9.2
						c-0.7-0.6-1.4-1.3-1.8-2.1l-16.8-31.9c-0.6-1.1-0.8-2.3-0.7-3.5l0.6-8.1l0.5-6.8l0.9-11.9c0.3-3.8,3.7-6.5,7.4-6l4.6,0.6
						l11.5,1.5l7.2,13.7l5.7,10.9l1,1.9l2,3.8c0,0,0,0,0,0l4.5,8.6l5.4,10.3l2.2,4.2l3.9,7.4l6.8,12.9l0.9,1.7L580.1,1216.1z"/>
					<path class="st14" d="M539.5,1199.5l-5.2-4l22.9-22.8l-0.7-1.4l-7-14.3c-0.2-0.1-0.4-0.1-0.6-0.2
						c-24.4-8.7-37.8-13.5-45.3-16.2l0.5-6.8c9.3,3.3,25.8,9.3,40.3,14.4c0,0,0,0,0,0c3,1.1,5.8,2.1,8.6,3.1l1.3,0.4l10.9,22.3
						l-4.7,4.7L539.5,1199.5z"/>
					<polygon class="st16" points="568,1193.3 580.1,1216.1 580.1,1216.1 					"/>
					<polygon class="st16" points="542.3,1144.4 541.3,1142.6 535.6,1131.7 541.3,1142.6 					"/>
					<polygon class="st9" points="599.5,1218.7 589.8,1217.4 588.9,1217.3 580.1,1216.1 568,1193.3 567.1,1191.6 554.2,1167.1 
						542.3,1144.4 541.3,1142.6 535.6,1131.7 528.4,1118 537.3,1119.2 547.9,1120.7 					"/>
					<polygon class="st14" points="599.5,1218.7 589.8,1217.4 588.9,1217.3 578.1,1196.7 577,1194.7 549.6,1142.7 547.4,1138.6 
						546.2,1136.3 539.4,1123.4 537.3,1119.2 547.9,1120.7 					"/>
				</g>
			</g>
			<g>
				<path class="st14" d="M551.7,1115.2l-10.6-1.4l-8.9-1.2l-11.5-1.5l-1-4.2c-3.7-0.5-10.7,5.8-11,9.5l-0.9,11.9l-0.5,6.8l-0.6,8.1
					c-0.1,1.2,0.2,2.4,0.7,3.5l16.8,31.9c0.4,0.8,1.1,1.6,1.8,2.1l12,9.2l5.2,4l16.2,12.4c0.9,0.7,2,1.1,3.1,1.3l9.8,1.3l11.5,1.6
					l8.9,1.2l0.9,0.1l9.7,1.3l5.6-3.6L551.7,1115.2z"/>
				<g>
					<polygon class="st15" points="576.6,1182.5 577.5,1184.2 576.6,1182.5 553.6,1138.9 551.8,1135.4 563.7,1158 					"/>
					<path class="st16" d="M589.5,1207.1l-11.5-1.6l-9.8-1.3c-1.1-0.2-2.2-0.6-3.1-1.3l-16.2-12.4l-5.2-4l-12-9.2
						c-0.7-0.6-1.4-1.3-1.8-2.1l-16.8-31.9c-0.6-1.1-0.8-2.3-0.7-3.5l0.6-8.1l0.5-6.8l0.9-11.9c0.3-3.8,3.7-6.5,7.4-6l4.6,0.6
						l11.5,1.5l7.2,13.7l5.7,10.9l1,1.9l2,3.8c0,0,0,0,0,0l4.5,8.6l5.4,10.3l2.2,4.2l3.9,7.4l6.8,12.9l0.9,1.7L589.5,1207.1z"/>
					<path class="st14" d="M549,1190.5l-5.2-4l22.9-22.8l-0.7-1.4l-7-14.3c-0.2-0.1-0.4-0.1-0.6-0.2c-24.4-8.7-37.8-13.5-45.3-16.2
						l0.5-6.8c9.3,3.3,25.8,9.3,40.3,14.4c0,0,0,0,0,0c3,1.1,5.8,2.1,8.6,3.1l1.3,0.4l10.9,22.3l-4.7,4.7L549,1190.5z"/>
					<polygon class="st16" points="577.5,1184.2 589.5,1207 589.5,1207 					"/>
					<polygon class="st16" points="551.8,1135.4 550.8,1133.5 545.1,1122.7 550.8,1133.5 					"/>
					<polygon class="st9" points="609,1209.7 599.3,1208.4 598.4,1208.3 589.5,1207.1 577.5,1184.2 576.6,1182.5 563.7,1158 
						551.8,1135.4 550.8,1133.5 545,1122.7 537.9,1109 546.7,1110.2 557.3,1111.6 					"/>
					<polygon class="st14" points="609,1209.7 599.3,1208.4 598.4,1208.3 587.5,1187.7 586.5,1185.6 559.1,1133.6 556.9,1129.5 
						555.7,1127.3 548.9,1114.3 546.7,1110.2 557.3,1111.6 					"/>
				</g>
			</g>
			<g>
				<path class="st14" d="M561.1,1106.2l-10.6-1.4l-8.9-1.2l-11.5-1.5l-1-4.2c-3.7-0.5-10.7,5.8-11,9.5l-0.9,11.9l-0.5,6.8l-0.6,8.1
					c-0.1,1.2,0.2,2.4,0.7,3.5l16.8,31.9c0.4,0.8,1.1,1.6,1.8,2.1l12,9.2l5.2,4l16.2,12.4c0.9,0.7,2,1.1,3.1,1.3l9.8,1.3l11.5,1.6
					l8.9,1.2l0.9,0.1l9.7,1.3l5.6-3.6L561.1,1106.2z"/>
				<g>
					<polygon class="st15" points="586.1,1173.5 587,1175.2 586.1,1173.5 563,1129.8 561.2,1126.4 573.2,1149 					"/>
					<path class="st16" d="M599,1198l-11.5-1.6l-9.8-1.3c-1.1-0.2-2.2-0.6-3.1-1.3l-16.2-12.4l-5.2-4l-12-9.2
						c-0.7-0.6-1.4-1.3-1.8-2.1l-16.8-31.9c-0.6-1.1-0.8-2.3-0.7-3.5l0.6-8.1l0.5-6.8l0.9-11.9c0.3-3.8,3.7-6.5,7.4-6l4.6,0.6
						l11.5,1.5l7.2,13.7l5.7,10.9l1,1.9l2,3.8c0,0,0,0,0,0l4.5,8.6l5.4,10.3l2.2,4.2l3.9,7.4l6.8,12.9l0.9,1.7L599,1198z"/>
					<path class="st14" d="M558.4,1181.4l-5.2-4l22.9-22.8l-0.7-1.4l-7-14.3c-0.2-0.1-0.4-0.1-0.6-0.2
						c-24.4-8.7-37.8-13.5-45.3-16.2l0.5-6.8c9.3,3.3,25.8,9.3,40.3,14.4c0,0,0,0,0,0c3,1.1,5.8,2.1,8.6,3.1l1.3,0.4l10.9,22.3
						l-4.7,4.7L558.4,1181.4z"/>
					<polygon class="st16" points="587,1175.2 599,1198 599,1198 					"/>
					<polygon class="st16" points="561.2,1126.4 560.2,1124.5 554.5,1113.6 560.2,1124.5 					"/>
					<polygon class="st9" points="618.5,1200.6 608.7,1199.3 607.8,1199.2 599,1198 587,1175.2 586.1,1173.5 573.2,1149 
						561.2,1126.4 560.2,1124.5 554.5,1113.6 547.3,1100 556.2,1101.2 566.8,1102.6 					"/>
					<polygon class="st14" points="618.5,1200.6 608.7,1199.3 607.8,1199.2 597,1178.6 595.9,1176.6 568.5,1124.6 566.4,1120.5 
						565.2,1118.2 558.4,1105.3 556.2,1101.2 566.8,1102.6 					"/>
				</g>
			</g>
		</g>
		<g>
			<path class="st13" d="M677.6,1174.1H661c0.1,0.5,0.1,0.9,0.1,1.4c0,6.1-7.2,13.6-18.7,19.5c-15.3,7.9-37,12.4-59.3,12.4
				s-44-4.5-59.3-12.4c-11.5-5.9-18.7-13.4-18.7-19.5c0-0.4,0-0.9,0.1-1.4h-16.6c0,0.4,0,0.9,0,1.4c0,26.7,42.3,48.4,94.5,48.4
				c52.2,0,94.5-21.7,94.5-48.4C677.7,1175,677.6,1174.5,677.6,1174.1z"/>
		</g>
	</g>
</g>
<g id="front_x5F_belt">
	<g>
		<polygon class="st0" points="-386.8,1177.9 1277.2,1657.1 1277.2,1467.1 -386.8,987.9 		"/>
		<g>
			<line class="st17" x1="-195.2" y1="1039.4" x2="-386.8" y2="1177.9"/>
			<line class="st17" x1="-115.9" y1="1062.5" x2="-307.5" y2="1201"/>
			<line class="st17" x1="-36.7" y1="1085.6" x2="-228.3" y2="1224.1"/>
			<line class="st17" x1="42.5" y1="1108.7" x2="-149.1" y2="1247.2"/>
			<line class="st17" x1="121.8" y1="1131.8" x2="-69.8" y2="1270.2"/>
			<line class="st17" x1="201" y1="1154.8" x2="9.4" y2="1293.3"/>
			<line class="st17" x1="280.2" y1="1177.9" x2="88.6" y2="1316.4"/>
			<line class="st17" x1="359.5" y1="1201" x2="167.9" y2="1339.5"/>
			<line class="st17" x1="438.7" y1="1224.1" x2="247.1" y2="1362.6"/>
			<line class="st17" x1="517.9" y1="1247.2" x2="326.3" y2="1385.7"/>
			<line class="st17" x1="597.2" y1="1270.3" x2="405.6" y2="1408.8"/>
			<line class="st17" x1="676.4" y1="1293.4" x2="484.8" y2="1431.9"/>
			<line class="st17" x1="755.6" y1="1316.5" x2="564.1" y2="1455"/>
			<line class="st17" x1="834.9" y1="1339.6" x2="643.3" y2="1478"/>
			<line class="st17" x1="914.1" y1="1362.7" x2="722.5" y2="1501.1"/>
			<line class="st17" x1="993.4" y1="1385.7" x2="801.8" y2="1524.2"/>
			<line class="st17" x1="1072.6" y1="1408.8" x2="881" y2="1547.3"/>
			<line class="st17" x1="1151.8" y1="1431.9" x2="960.2" y2="1570.4"/>
			<line class="st17" x1="1231.1" y1="1455" x2="1039.5" y2="1593.5"/>
			<line class="st17" x1="1310.3" y1="1478.1" x2="1118.7" y2="1616.6"/>
			<line class="st17" x1="1389.5" y1="1501.2" x2="1197.9" y2="1639.7"/>
			<line class="st17" x1="1468.8" y1="1524.3" x2="1277.2" y2="1662.8"/>
		</g>
		<line class="st18" x1="-386.8" y1="1177.9" x2="1277.2" y2="1662.8"/>
		<g>
			<g>
				<circle class="st19" cx="1275" cy="1662.8" r="13"/>
				<circle class="st19" cx="1234.4" cy="1650.9" r="13"/>
				<circle class="st19" cx="1193.9" cy="1639.1" r="13"/>
				<circle class="st19" cx="1153.4" cy="1627.3" r="13"/>
				<circle class="st19" cx="1112.9" cy="1615.5" r="13"/>
				<circle class="st19" cx="1072.3" cy="1603.6" r="13"/>
				<circle class="st19" cx="1031.8" cy="1591.8" r="13"/>
				<circle class="st19" cx="991.3" cy="1580" r="13"/>
				<circle class="st19" cx="950.7" cy="1568.1" r="13"/>
				<circle class="st19" cx="910.2" cy="1556.3" r="13"/>
				<circle class="st19" cx="869.7" cy="1544.5" r="13"/>
				<circle class="st19" cx="829.1" cy="1532.7" r="13"/>
				<circle class="st19" cx="788.6" cy="1520.8" r="13"/>
				<circle class="st19" cx="748.1" cy="1509" r="13"/>
				<circle class="st19" cx="707.5" cy="1497.2" r="13"/>
				<circle class="st19" cx="667" cy="1485.4" r="13"/>
				<circle class="st19" cx="626.5" cy="1473.5" r="13"/>
				<circle class="st19" cx="586" cy="1461.7" r="13"/>
				<circle class="st19" cx="545.4" cy="1449.9" r="13"/>
				<circle class="st19" cx="504.9" cy="1438.1" r="13"/>
				<circle class="st19" cx="464.4" cy="1426.2" r="13"/>
				<circle class="st19" cx="423.8" cy="1414.4" r="13"/>
				<circle class="st19" cx="383.3" cy="1402.6" r="13"/>
				<circle class="st19" cx="342.8" cy="1390.8" r="13"/>
				<circle class="st19" cx="302.2" cy="1378.9" r="13"/>
				<circle class="st19" cx="261.7" cy="1367.1" r="13"/>
				<circle class="st19" cx="221.2" cy="1355.3" r="13"/>
				<circle class="st19" cx="180.7" cy="1343.4" r="13"/>
				<circle class="st19" cx="140.1" cy="1331.6" r="13"/>
				<circle class="st19" cx="99.6" cy="1319.8" r="13"/>
				<circle class="st19" cx="59.1" cy="1308" r="13"/>
				<circle class="st19" cx="18.5" cy="1296.1" r="13"/>
				<circle class="st19" cx="-22" cy="1284.3" r="13"/>
				<circle class="st19" cx="-62.5" cy="1272.5" r="13"/>
				<circle class="st19" cx="-103.1" cy="1260.7" r="13"/>
				<circle class="st19" cx="-143.6" cy="1248.8" r="13"/>
				<circle class="st19" cx="-184.1" cy="1237" r="13"/>
				<circle class="st19" cx="-224.6" cy="1225.2" r="13"/>
				<circle class="st19" cx="-265.2" cy="1213.4" r="13"/>
				<circle class="st19" cx="-305.7" cy="1201.5" r="13"/>
				<circle class="st19" cx="-346.2" cy="1189.7" r="13"/>
				<circle class="st19" cx="-386.8" cy="1177.9" r="13"/>
			</g>
			<g>
				<circle class="st4" cx="1275" cy="1662.8" r="6.5"/>
				<circle class="st4" cx="1234.4" cy="1650.9" r="6.5"/>
				<circle class="st4" cx="1193.9" cy="1639.1" r="6.5"/>
				<circle class="st4" cx="1153.4" cy="1627.3" r="6.5"/>
				<circle class="st4" cx="1112.9" cy="1615.5" r="6.5"/>
				<circle class="st4" cx="1072.3" cy="1603.6" r="6.5"/>
				<circle class="st4" cx="1031.8" cy="1591.8" r="6.5"/>
				<circle class="st4" cx="991.3" cy="1580" r="6.5"/>
				<circle class="st4" cx="950.7" cy="1568.1" r="6.5"/>
				<circle class="st4" cx="910.2" cy="1556.3" r="6.5"/>
				<circle class="st4" cx="869.7" cy="1544.5" r="6.5"/>
				<circle class="st4" cx="829.1" cy="1532.7" r="6.5"/>
				<circle class="st4" cx="788.6" cy="1520.8" r="6.5"/>
				<circle class="st4" cx="748.1" cy="1509" r="6.5"/>
				<circle class="st4" cx="707.5" cy="1497.2" r="6.5"/>
				<circle class="st4" cx="667" cy="1485.4" r="6.5"/>
				<circle class="st4" cx="626.5" cy="1473.5" r="6.5"/>
				<circle class="st4" cx="586" cy="1461.7" r="6.5"/>
				<circle class="st4" cx="545.4" cy="1449.9" r="6.5"/>
				<circle class="st4" cx="504.9" cy="1438.1" r="6.5"/>
				<circle class="st4" cx="464.4" cy="1426.2" r="6.5"/>
				<circle class="st4" cx="423.8" cy="1414.4" r="6.5"/>
				<circle class="st4" cx="383.3" cy="1402.6" r="6.5"/>
				<circle class="st4" cx="342.8" cy="1390.8" r="6.5"/>
				<circle class="st4" cx="302.2" cy="1378.9" r="6.5"/>
				<circle class="st4" cx="261.7" cy="1367.1" r="6.5"/>
				<circle class="st4" cx="221.2" cy="1355.3" r="6.5"/>
				<circle class="st4" cx="180.7" cy="1343.4" r="6.5"/>
				<circle class="st4" cx="140.1" cy="1331.6" r="6.5"/>
				<circle class="st4" cx="99.6" cy="1319.8" r="6.5"/>
				<circle class="st4" cx="59.1" cy="1308" r="6.5"/>
				<circle class="st4" cx="18.5" cy="1296.1" r="6.5"/>
				<circle class="st4" cx="-22" cy="1284.3" r="6.5"/>
				<circle class="st4" cx="-62.5" cy="1272.5" r="6.5"/>
				<circle class="st4" cx="-103.1" cy="1260.7" r="6.5"/>
				<circle class="st4" cx="-143.6" cy="1248.8" r="6.5"/>
				<circle class="st4" cx="-184.1" cy="1237" r="6.5"/>
				<circle class="st4" cx="-224.6" cy="1225.2" r="6.5"/>
				<circle class="st4" cx="-265.2" cy="1213.4" r="6.5"/>
				<circle class="st4" cx="-305.7" cy="1201.5" r="6.5"/>
				<circle class="st4" cx="-346.2" cy="1189.7" r="6.5"/>
				<circle class="st4" cx="-386.8" cy="1177.9" r="6.5"/>
			</g>
		</g>
	</g>
	<g>
		<ellipse class="st20" cx="149.4" cy="1184.9" rx="87" ry="44.5"/>
		<g>
			<g>
				<path class="st21" d="M237.9,1195.4l13.1-8.1c7.4-4.7,8.5-16.4,2.2-26.3c-6.3-9.9-17.3-13.9-24.7-9.2l-11.7,6.9L237.9,1195.4z"
					/>
				
					<ellipse transform="matrix(0.8437 -0.5368 0.5368 0.8437 -595.9305 306.4409)" class="st0" cx="228.2" cy="1176.5" rx="15.9" ry="21.3"/>
				
					<ellipse transform="matrix(0.8437 -0.5369 0.5369 0.8437 -595.9388 306.4488)" class="st21" cx="228.2" cy="1176.5" rx="12" ry="15.9"/>
				<path class="st22" d="M233.9,1172.9c2.7,4.2,2.3,9.2-0.9,11.2c-3.1,2-7.8,0.2-10.5-4c-2.7-4.2-2.3-9.2,0.9-11.2
					C226.6,1167,231.3,1168.7,233.9,1172.9z"/>
			</g>
			<g>
				<polygon class="st5" points="199.8,1187.4 157.1,1133.8 105.8,1137 74.5,1120.3 74.5,1171.8 199.8,1208.9 200.3,1208.5 
					200.3,1187 				"/>
				<g>
					<polygon class="st8" points="190.3,1191.4 190.3,1195.6 120.5,1180 112.7,1178.2 112.7,1150.9 120.5,1154.9 					"/>
					<polygon class="st21" points="120.5,1154.9 120.5,1180 112.7,1178.2 112.7,1150.9 					"/>
					<g>
						<polygon class="st5" points="110.6,1157.5 152.2,1178.9 109,1161.1 						"/>
					</g>
					<g>
						<polygon class="st5" points="110.4,1167.4 153,1183.7 109.2,1171.2 						"/>
					</g>
				</g>
				<polyline class="st21" points="200.3,1187 199.8,1187.4 157.1,1133.8 105.8,1137 				"/>
				<polyline class="st5" points="157.1,1133.8 105.8,1137 74.5,1120.3 				"/>
				<polygon class="st8" points="200.3,1187 200.3,1208.5 247,1170.9 247,1149.4 				"/>
				<polygon class="st21" points="206.3,1189.9 241,1161.9 241,1168 206.3,1196 				"/>
				<polygon class="st23" points="121.6,1082.3 109.8,1091.8 98,1101.3 86.3,1110.8 74.5,1120.3 105.8,1137 157.1,1133.8 
					178.5,1160.6 199.8,1187.4 199.9,1187.3 200,1187.2 200.2,1187.1 200.3,1187 211.9,1177.6 223.6,1168.2 235.3,1158.8 
					247,1149.4 225.6,1122.6 204.3,1095.8 153,1099 				"/>
				<path class="st9" d="M235.3,1158.8"/>
				<g>
					<polygon class="st22" points="204.3,1095.8 157.1,1133.8 146.5,1134.5 137.9,1135 125.1,1135.8 116.5,1136.4 105.8,1137 
						153,1099 163.6,1098.4 172.3,1097.8 185,1097 193.6,1096.5 					"/>
				</g>
				<g>
					<polygon class="st4" points="172.3,1097.8 125.1,1135.8 116.5,1136.4 163.6,1098.4 					"/>
					<polygon class="st4" points="193.6,1096.5 146.5,1134.5 137.9,1135 185,1097 					"/>
				</g>
				<polygon class="st2" points="247,1149.4 235.3,1158.8 223.6,1168.2 211.9,1177.6 200.3,1187 200.2,1187.1 200,1187.2 
					199.9,1187.3 199.8,1187.4 197.5,1184.5 178.5,1160.6 176.6,1158.2 157.1,1133.8 176.6,1118.2 197.5,1101.3 204.3,1095.8 
					225.6,1122.6 				"/>
				<path class="st22" d="M154.8,1089.5c-0.6,0-1.3-0.2-1.9-0.5l-31.3-16.8c-1.9-1-2.7-3.5-1.6-5.4s3.5-2.7,5.4-1.6l31.3,16.8
					c1.9,1,2.7,3.5,1.6,5.4C157.7,1088.8,156.3,1089.5,154.8,1089.5z"/>
				<polyline class="st5" points="153,1089 121.6,1072.3 109.8,1081.8 98,1091.3 86.3,1100.8 74.5,1110.3 105.8,1127 				"/>
				<path class="st22" d="M107.7,1127.5c-0.6,0-1.3-0.2-1.9-0.5l-31.3-16.8c-1.9-1-2.7-3.5-1.6-5.4c1-1.9,3.5-2.7,5.4-1.6l31.3,16.8
					c1.9,1,2.7,3.5,1.6,5.4C110.5,1126.8,109.1,1127.5,107.7,1127.5z"/>
			</g>
			<polygon class="st14" points="197.5,1101.3 197.5,1184.5 178.5,1160.6 176.6,1158.2 176.6,1118.2 			"/>
			<g>
				<path class="st21" d="M86.8,1209.7l20.1-12.4c11.4-7.3,13.1-25.3,3.4-40.5c-9.7-15.2-26.5-21.5-38-14.2l-18,10.6L86.8,1209.7z"
					/>
				
					<ellipse transform="matrix(0.8437 -0.5368 0.5368 0.8437 -622.6305 223.1752)" class="st0" cx="71.9" cy="1180.7" rx="24.5" ry="32.7"/>
				
					<ellipse transform="matrix(0.8437 -0.5369 0.5369 0.8437 -622.6396 223.1818)" class="st21" cx="71.9" cy="1180.7" rx="18.4" ry="24.5"/>
				<path class="st22" d="M80.6,1175.2c4.1,6.4,3.5,14.1-1.3,17.2c-4.8,3.1-12,0.3-16.1-6.1c-4.1-6.4-3.5-14.1,1.3-17.2
					C69.3,1166,76.5,1168.8,80.6,1175.2z"/>
			</g>
			<g>
				<path class="st21" d="M180.5,1231.2l13.1-8.1c7.4-4.7,8.5-16.4,2.2-26.3c-6.3-9.9-17.3-13.9-24.7-9.2l-11.7,6.9L180.5,1231.2z"
					/>
				
					<ellipse transform="matrix(0.8437 -0.5368 0.5368 0.8437 -624.1248 281.208)" class="st0" cx="170.8" cy="1212.3" rx="15.9" ry="21.3"/>
				
					<ellipse transform="matrix(0.8437 -0.5369 0.5369 0.8437 -624.1337 281.2156)" class="st21" cx="170.8" cy="1212.3" rx="12" ry="15.9"/>
				<path class="st22" d="M176.5,1208.7c2.7,4.2,2.3,9.2-0.9,11.2c-3.1,2-7.8,0.2-10.5-4c-2.7-4.2-2.3-9.2,0.9-11.2
					C169.1,1202.8,173.8,1204.5,176.5,1208.7z"/>
				<path class="st22" d="M205.8,1188.8c-1.7,2.7-1.5,6,0.6,7.3c2,1.3,5.1,0.1,6.8-2.6c1.7-2.7,1.5-6-0.6-7.3
					C210.6,1185,207.5,1186.1,205.8,1188.8z"/>
				<path class="st22" d="M235.9,1163.7c-1.7,2.7-1.5,6,0.6,7.3c2,1.3,5.1,0.1,6.8-2.6c1.7-2.7,1.5-6-0.6-7.3
					C240.7,1159.8,237.7,1161,235.9,1163.7z"/>
			</g>
			<line class="st24" x1="144.4" y1="1001.3" x2="144.4" y2="1101.3"/>
			<circle class="st22" cx="144.4" cy="1000" r="5"/>
		</g>
		<g>
			<g>
				<polygon class="st20" points="59.5,1236.6 39.5,1230.7 -4.9,1265.6 95.6,1295.2 96.2,1294.7 140,1260.3 				"/>
				<polygon class="st25" points="-4.9,1145.6 -4.9,1235 96.2,1264.1 95.6,1175.2 				"/>
				<polygon class="st26" points="96.2,1174.7 95.6,1175.2 96.2,1264.1 140,1229.7 140,1140.3 				"/>
				<polygon class="st14" points="59.5,1116.6 39.5,1110.7 -4.9,1145.6 95.6,1175.2 96.2,1174.7 140,1140.3 				"/>
				<circle class="st27" cx="67.5" cy="1138" r="12.6"/>
				<circle class="st25" cx="117.8" cy="1202.2" r="12.6"/>
				<circle class="st27" cx="41.9" cy="1208.1" r="28.8"/>
			</g>
			<line class="st28" x1="41.9" y1="1210.6" x2="-100.4" y2="1327.9"/>
			<line class="st29" x1="41.9" y1="1210.6" x2="-100.4" y2="1327.9"/>
		</g>
		<g>
			<polygon class="st20" points="367.7,1272.5 347.7,1266.6 303.3,1301.5 403.8,1331.1 404.4,1330.6 448.3,1296.2 			"/>
			<polygon class="st4" points="303.3,1181.5 303.3,1270.9 404.4,1300 403.8,1211.1 			"/>
			<polygon class="st19" points="404.4,1210.6 403.8,1211.1 404.4,1300 448.3,1265.5 448.3,1176.2 			"/>
			<polygon class="st30" points="367.7,1152.5 347.7,1146.6 303.3,1181.5 403.8,1211.1 404.4,1210.6 448.3,1176.2 			"/>
			<circle class="st27" cx="375.8" cy="1173.9" r="12.6"/>
			<circle class="st25" cx="426.1" cy="1238.1" r="12.6"/>
			<circle class="st27" cx="350.2" cy="1243.9" r="28.8"/>
		</g>
		<line class="st28" x1="350.2" y1="1246.5" x2="207.8" y2="1363.8"/>
		<line class="st29" x1="350.2" y1="1246.5" x2="207.8" y2="1363.8"/>
		<g>
			<g>
				<g>
					<path class="st31" d="M664.2,1332.3c0.6,12.4-9.3,22.6-21.6,22.6H575c-3.6,0-7.2-0.9-10.4-2.7l-44.8-24.4l-14.8-8.1l-11.8-6.4
						l-0.6-0.3l-9-4.9l-5.2-2.8l-6-3.3c-3.6-2-4.1-7-0.8-9.6l29.9-23.8l11.9,6.5l5.2,2.8l9,4.9l0.6,0.3l11.8,6.4l14.8,8.1l25.8,14.1
						H642C653.6,1311.7,663.6,1320.7,664.2,1332.3z"/>
				</g>
				<polygon class="st32" points="528.1,1283.2 493.2,1313.4 492.6,1313 483.6,1308.1 478.4,1305.3 513.3,1275.1 518.5,1277.9 
					527.5,1282.8 				"/>
				<polygon class="st32" points="554.8,1297.7 519.8,1327.9 505,1319.8 539.9,1289.6 				"/>
			</g>
			<g>
				<g>
					<path class="st14" d="M664.2,1317.9c0.6,12.4-9.3,22.6-21.6,22.6H575c-3.6,0-7.2-0.9-10.4-2.7l-44.8-24.4l-14.8-8.1l-11.8-6.4
						l-0.6-0.3l-9-4.9l-5.2-2.8l-6-3.3c-3.6-2-4.1-7-0.8-9.6l26.9-21.4c1.8-1.4,4.3-1.7,6.4-0.6l8.6,4.7l5.2,2.8l9,4.9l0.6,0.3
						l11.8,6.4l14.8,8.1l25.8,14.1H642C653.6,1297.3,663.6,1306.3,664.2,1317.9z"/>
				</g>
				<polygon class="st9" points="528.1,1268.8 493.2,1299 492.6,1298.6 483.6,1293.7 478.4,1290.9 513.3,1260.7 518.5,1263.5 
					527.5,1268.4 				"/>
				<polygon class="st9" points="554.8,1283.3 519.8,1313.5 505,1305.4 539.9,1275.2 				"/>
			</g>
		</g>
	</g>
</g>
<g id="card3">
</g>
</svg>
