<svg version="1.1" id="Layer_1" xmlns="http://www.w3.org/2000/svg" x="0" y="0" width="58" height="50" viewBox="0 0 58 50" xml:space="preserve"><style>.st0{fill:#3a058d}.st1{fill:#4900b8}.st2{fill:#9d87f5}.st3{fill:#c3b9fc}.st4{fill:#5c01e4}.st5{opacity:.5;fill:#55b2ff}.st6{fill:#fff}.st7{fill:#cef}.st10{fill:none;stroke:#4900b8;stroke-width:1.1193;stroke-linecap:round;stroke-miterlimit:10}</style><path class="st0" d="M40.2 25.4l-17.9-5.8-19.9 1.7 10.8 8.6z"/><path class="st1" d="M19.4 9.2l-14.2.4c-1.6 0-2.8 1.3-2.8 2.9v8.8l19.9-1.7v-7.5c0-1.7-1.3-3-2.9-2.9zm.4 8.5L5 19v-5.1c0-1.2.9-2.1 2.1-2.1l10.5-.3c1.2 0 2.2.9 2.2 2.1v4.1z"/><path class="st2" d="M13.2 22l-6.2.1h-.9l.1-6.3c0-.8.6-1.4 1.4-1.4l3.9-.2h.3c.7.1 1.2.7 1.2 1.4l.2 6.4z"/><path class="st3" d="M13.2 25.8l-6.2.1.1-10.1c0-.8.6-1.4 1.4-1.4l3.4-.1c.7.1 1.2.7 1.2 1.4l.1 10.1z"/><path class="st2" d="M21.8 21.7l-6.2.1h-.9l.1-6.3c0-.8.6-1.4 1.4-1.4l3.9-.2h.3c.7.1 1.2.7 1.2 1.4l.2 6.4z"/><path class="st3" d="M21.8 28.1l-6.2.1.1-12.7c0-.8.6-1.4 1.4-1.4l3.4-.1c.7.1 1.2.7 1.2 1.4l.1 12.7z"/><path class="st2" d="M18.1 29.8l-6.2.1H11l.2-11.1c0-.8.6-1.4 1.4-1.4l3.9-.2h.3c.7.1 1.2.7 1.2 1.4l.1 11.2z"/><path class="st3" d="M18.1 29.8l-6.2.1.2-11.1c0-.8.6-1.4 1.4-1.4l3.4-.1c.7.1 1.2.7 1.2 1.4v11.1z"/><path class="st2" d="M27.6 26.6l-6.2.1h-.9l.1-9.2c0-.8.6-1.4 1.4-1.4l3.9-.2h.3c.7.1 1.2.7 1.2 1.4l.2 9.3z"/><path class="st3" d="M27.6 26.6l-6.2.1.1-9.1c0-.8.6-1.4 1.4-1.4l3.4-.1c.7.1 1.2.7 1.2 1.4l.1 9.1z"/><path class="st4" d="M55.2 35.8V37c-3.1 1-3.7 4.4-3.7 4.4L41.3 44l-2.6.7v-.9l-.8-.1c.3-1.4-.7-2.2-.7-2.2s-1.4.5-2.4.7c-.7.2-1.5.1-1.9 0-.2 0-.3-.1-.3-.1l-1.9-.7s-.1-.8-.3-1.7c-.3-.9-1.5-1.4-1.5-1.4s-1.7-.7-3.5-1.2c-2-.3-2.9.8-2.9.8L18.9 42l-8.1-3.1s.2-2.6-.7-5c-.6-1.8-1.8-3.4-4.1-3.8-2.7-.3-4 2-4.6 3.9-.4 1.2-.5 2.3-.5 2.3l-.5-.2.1-2.1.1-2.6h1.6v-.7l.1-5.4.1-3.9 2.2.9 2.4-.2v1.4l3.8 1.3 2 3.2.1.1h.1l3.9 1v-2.2l2.8-.4 2.2.6c5.3-2 14.7-2.2 15.3-2.6.8-.6 1.7-.1 1.7-.1l1.5-.2v1.1s9.5 4.4 9.9 4.6c.9.6 1.1 1.6 1.1 1.6h1.7c.7.1 1.5 1 1.5 2.1s.6 2.2.6 2.2z"/><path class="st4" d="M12.9 28.2h-.1L2.4 25.3l-.1 5.3.1-5.4v-3.9l2.2.9 2.4-.1v1.5l3.8 1.3 1.9 3.1.1.2z"/><path class="st5" d="M.5 34h.9C1 35.2.9 36.3.9 36.3L.4 36l.1-2z"/><path class="st0" d="M10.5 30.9l1.2 6.8-1-.4-9.4-3.4-.6-.2v-2.6l1.4.2v-3.5s1-.5 2.4-.5l5.7 2.1.3 1.5zM31 45.6l-11.5-4.2v-.8c0-3.6 3.6-6.1 6.9-4.9l4.5 1.7v8.2z"/><path class="st1" d="M32.9 42.2c-.2 0-.3-.1-.3-.1l-1.9-.7s-.1-.8-.3-1.7c-.3-.9-1.5-1.4-1.5-1.4s-1.7-.7-3.5-1.2c-2-.3-2.9.8-2.9.8L18.9 42l-8.1-3.1v-1.5c-.1-2.4-.9-6.6-4.7-7.2-2.8-.4-4.1 1.8-4.7 3.7-.4 1.2-.5 2.3-.5 2.3l-.9-.3.2-4.9.6.1 1.4.2v-3.5s1-.5 2.4-.5c.9-.1 1.9 0 3 .4s2 1 2.7 1.7c.5.5 1 1.2 1.4 1.8 1.2 2.1 1.6 4.4 1.7 5.2l4.2 1.5 2.9-3.6s.8-.8 1.9-.6c1.1.2 7.8 2.3 7.8 2.3s1.6.6 1.8 2.4c.2 1 .6 2.7.9 3.8z"/><path class="st6" d="M39.6 14.9c0-1.2-.5-2-1.2-2.4-.9-.6-3-.6-3.7-.6h-.1-.1-.1l-13.4.8c-1.4 0-2.5.5-2.7 1.9v.7l1.3 11.2 2.2.6 18.4-2.8-.6-9.4zM21.7 26.3l-1.2-10.7v-.7c.2-1.4 1.3-1.9 2.7-1.9l12-.7s.8 0 1.3.3c.6.5.9 1.2.9 2.2l.6 9.4-16.3 2.1z"/><path class="st7" d="M37.4 14.7c0-1-.3-1.7-.9-2.2-.1 0-.1-.1-.2-.1-.5-.2-1.1-.2-1.1-.2l-5.6.3-6.5.4c-1.4 0-2.5.5-2.7 1.9v.7l1.2 10.3v.4l6.9-.9 9.5-1.2-.6-9.4z"/><path d="M36.3 12.4l-7.8 13-6.9.9v-.4l8-13.3 5.6-.3c0-.1.6-.1 1.1.1z" opacity=".5" fill="#fff"/><path fill="none" stroke="#c3b9fc" stroke-width=".774" stroke-linecap="round" stroke-linejoin="round" stroke-miterlimit="10" d="M2.8 2v23.2"/><circle class="st6" cx="2.9" cy="1.7" r="1.6"/><path class="st2" d="M33.7 33S44 29.7 47 29.7c0 0-6.7-4.1-12.2-3.3-5.5.7-6.6 2-6.4 3 0 .9 2.7 2.5 5.3 3.6z"/><path class="st1" d="M29.1 26.2l-8.2-11.9 9 11.3c.2.2.1.5-.1.7-.2.2-.5.2-.7-.1 0 .1 0 0 0 0zM35.1 25.1l-8.2-11.9 9 11.3c.2.2.1.5-.1.7-.2.2-.5.2-.7-.1z"/><path class="st5" d="M38.7 44.7l-3.5-2.6c.9-.3 2-.6 2-.6s1 .8.7 2.2l.8.1v.9z"/><path class="st0" d="M56.9 41.5l-27.3 6.6v-6.4l27.3-6.5z"/><path class="st2" d="M56.8 44.8l-.4.1v-3.3c.5-.1.9.2.9.7v1.8c.1.3-.2.6-.5.7zM32.9 45.3s2.3 1 5.6.6v3.3s-3.3.3-5.6-.7v-3.2z"/><path class="st3" d="M38.1 32.5s3.7-1.7 10.9-1.8c1 0 1.6.7 1.9 1.3.3.7.4 1.4.2 2.1-.1.6-.4 1.5-.8 1.8l-.1 2.6c-.1 1.1-.8 2.1-1.9 2.3h-.1c-1.4.3-5.5 1.4-7.1 1.8-1.1.3-2.2-.5-2.2-1.6v-1.3l-1.8-2.1s-1-1.1-.8-2.5c0-1.5 1.4-2.5 1.8-2.6z"/><path class="st10" d="M41.7 33.5v7.8M44.5 32.9v7.8M47.3 32.3v7.8"/><ellipse transform="rotate(-83.858 40.458 42.33)" class="st4" cx="40.5" cy="42.3" rx="1.8" ry="1.5"/><ellipse transform="rotate(-83.858 40.848 42.372)" class="st6" cx="40.8" cy="42.4" rx="1.8" ry="1.5"/><ellipse transform="rotate(-83.858 49.567 40.006)" class="st4" cx="49.6" cy="40" rx="1.8" ry="1.5"/><ellipse transform="rotate(-83.858 49.957 40.048)" class="st6" cx="50" cy="40" rx="1.8" ry="1.5"/><path class="st3" d="M56.4 44.9l-17.8 4.4v-3.4l17.8-4.3z"/><circle class="st2" cx="42.5" cy="44.6" r=".6"/><circle class="st2" cx="42.5" cy="48.8" r=".6"/><path class="st2" d="M42 44.6h1.1v4.2H42z"/><circle class="st2" cx="54" cy="41.9" r=".6"/><circle class="st2" cx="54" cy="46.1" r=".6"/><path class="st2" d="M53.4 41.9h1.1v4.2h-1.1zM52.1 46.8l-5.2 1.3c-.4.1-.8-.2-.8-.7 0-.3.2-.6.5-.7l5.2-1.3c.4-.1.8.2.8.7 0 .4-.2.6-.5.7zM51.8 45.2l-5.5 1.3c-.1 0-.3-.1-.3-.2s.1-.2.2-.2l5.5-1.3c.1 0 .3.1.3.2s-.1.2-.2.2z"/><ellipse class="st2" cx="18.5" cy="25.7" rx="1.5" ry="1.9"/><path fill="none" stroke="#dbf3fb" stroke-width=".42" stroke-linecap="round" stroke-miterlimit="10" d="M18.8 27.1v1"/><ellipse class="st7" cx="19" cy="25.7" rx="1.5" ry="1.9"/><ellipse cx="19" cy="25.7" rx="1.5" ry="1.9" fill="#dbd7ff"/><circle class="st4" cx="26.1" cy="42" r="1.8"/><circle class="st1" cx="25.5" cy="42.3" r="1.8"/><circle class="st4" cx="6.1" cy="35.3" r="1.8"/><circle class="st1" cx="5.4" cy="35.6" r="1.8"/></svg>