<svg xmlns="http://www.w3.org/2000/svg" xmlns:xlink="http://www.w3.org/1999/xlink" viewBox="0 0 87.38 82.95" width="87.38" height="82.95"><defs><style>.cls-1,.cls-10,.cls-5{fill:none;}.cls-2{fill:#ed999a;}.cls-3{fill:#754c35;}.cls-4{fill:#5b3d2f;}.cls-5{stroke:#80deea;stroke-width:1.41px;}.cls-10,.cls-5{stroke-miterlimit:10;}.cls-6{fill:#ee5451;}.cls-7{clip-path:url(#clip-path);}.cls-8{fill:#35c1d5;}.cls-9{fill:#fff;}.cls-10{stroke:#f38eb0;stroke-width:0.18px;}.cls-11{opacity:0.1;}</style><clipPath id="clip-path"><rect class="cls-1" x="26.18" y="33.72" width="35.01" height="27.97"/></clipPath></defs><title>frame3</title><g id="Layer_2" data-name="Layer 2"><g id="ART"><rect class="cls-2" x="6.58" y="8.06" width="73.93" height="66.94"/><path class="cls-3" d="M87.38,83H0V0H87.38ZM12,70.91h63.3V12H12Z"/><path class="cls-4" d="M87.38,0V83H0l12-12h63.3V12Z"/><path class="cls-5" d="M38.95,26.24h1.27a2.89,2.89,0,0,1,2.89,2.89V33a0,0,0,0,1,0,0H38.95a2.89,2.89,0,0,1-2.89-2.89v-1a2.89,2.89,0,0,1,2.89-2.89Z"/><path class="cls-5" d="M46.82,26.24H51a0,0,0,0,1,0,0v3.89A2.89,2.89,0,0,1,48.1,33H46.82a2.89,2.89,0,0,1-2.89-2.89v-1a2.89,2.89,0,0,1,2.89-2.89Z" transform="translate(94.92 59.25) rotate(180)"/><rect class="cls-6" x="26.18" y="33.72" width="35.01" height="27.97"/><g class="cls-7"><rect class="cls-8" x="52.08" y="42.96" width="6.84" height="27.97" transform="translate(56.52 -22.56) rotate(45)"/><rect class="cls-8" x="27.69" y="24.56" width="6.84" height="27.97" transform="translate(36.37 -10.71) rotate(45)"/></g><rect class="cls-9" x="35.43" y="41.94" width="16.2" height="9.33"/><rect class="cls-10" x="36.08" y="42.59" width="14.91" height="8.04"/><polyline class="cls-11" points="55.66 37.77 31.71 61.72 55.66 61.72 55.66 37.77"/></g></g></svg>