<svg xmlns="http://www.w3.org/2000/svg" viewBox="0 0 89.67 102.09" width="89.67" height="102.09"><defs><style>.cls-1{isolation:isolate;}.cls-2{fill:#e51b23;}.cls-3,.cls-4,.cls-6{fill:none;stroke-miterlimit:10;}.cls-3{stroke:#e51b23;}.cls-3,.cls-6{stroke-width:7.77px;}.cls-4{stroke:#f5a816;stroke-width:1.79px;}.cls-5{fill:#ff0619;}.cls-6{stroke:#ff0619;}.cls-7{opacity:0.15;mix-blend-mode:multiply;}</style></defs><title>red_bow</title><g class="cls-1"><g id="Layer_2" data-name="Layer 2"><g id="ART"><polygon class="cls-2" points="47.57 47.25 35.21 96.89 19.66 90.91 33.94 45.31 47.57 47.25"/><polygon class="cls-3" points="47.57 47.25 35.21 96.89 19.66 90.91 33.94 45.31 47.57 47.25"/><polygon class="cls-4" points="47.57 47.25 35.21 96.89 19.66 90.91 33.94 45.31 47.57 47.25"/><polygon class="cls-2" points="5.56 39.93 16.08 63.02 42.1 43.03 37.27 33.4 5.56 39.93"/><polygon class="cls-3" points="5.56 39.93 16.08 63.02 42.1 43.03 37.27 33.4 5.56 39.93"/><polygon class="cls-4" points="5.56 39.93 16.08 63.02 42.1 43.03 37.27 33.4 5.56 39.93"/><polygon class="cls-5" points="18.32 6.08 7.25 28.92 39.25 36.19 43.58 26.32 18.32 6.08"/><polygon class="cls-6" points="18.32 6.08 7.25 28.92 39.25 36.19 43.58 26.32 18.32 6.08"/><polygon class="cls-4" points="18.32 6.08 7.25 28.92 39.25 36.19 43.58 26.32 18.32 6.08"/><polygon class="cls-5" points="42.1 47.25 54.46 96.89 70.01 90.91 55.73 45.31 42.1 47.25"/><polygon class="cls-6" points="42.1 47.25 54.46 96.89 70.01 90.91 55.73 45.31 42.1 47.25"/><polygon class="cls-4" points="42.1 47.25 54.46 96.89 70.01 90.91 55.73 45.31 42.1 47.25"/><polygon class="cls-2" points="84.11 39.93 73.59 63.02 47.57 43.03 52.4 33.4 84.11 39.93"/><polygon class="cls-3" points="84.11 39.93 73.59 63.02 47.57 43.03 52.4 33.4 84.11 39.93"/><polygon class="cls-4" points="84.11 39.93 73.59 63.02 47.57 43.03 52.4 33.4 84.11 39.93"/><polygon class="cls-5" points="71.35 6.08 82.42 28.92 50.42 36.19 46.09 26.32 71.35 6.08"/><polygon class="cls-6" points="71.35 6.08 82.42 28.92 50.42 36.19 46.09 26.32 71.35 6.08"/><polygon class="cls-4" points="71.35 6.08 82.42 28.92 50.42 36.19 46.09 26.32 71.35 6.08"/><g class="cls-7"><rect x="33.02" y="23.09" width="25.47" height="33.45" rx="12.73" ry="12.73"/></g><rect class="cls-5" x="31.07" y="21.14" width="25.47" height="33.45" rx="12.73" ry="12.73"/></g></g></g></svg>