<svg xmlns="http://www.w3.org/2000/svg" viewBox="0 0 42.46 95.66" width="42.46" height="95.66"><defs><style>.cls-1{fill:#f2f2f2;}.cls-2{fill:#22af22;}.cls-3{opacity:0.2;}</style></defs><title>candycane_green</title><g id="Layer_2" data-name="Layer 2"><g id="ART"><path class="cls-1" d="M11.08,33.15a38.44,38.44,0,0,1,.57-4.29c.16-.72.19-1.49.3-2.22s.25-1.52.41-2.27a.57.57,0,0,0,0-.14l-.49-.48L9.48,21.34a15.59,15.59,0,0,1-2.24-2.4A15.43,15.43,0,0,1,4.5,12.07a19.21,19.21,0,0,1-.14-3.74,20.54,20.54,0,0,0-2.69,4.6A20.93,20.93,0,0,0,0,21.17v10L10.57,41.69C10.65,38.84,10.79,36,11.08,33.15Z"/><path class="cls-1" d="M2.24,93.75,2,93.47Z"/><path class="cls-1" d="M2.77,94.2,2.47,94Z"/><path class="cls-1" d="M3.35,94.6,3,94.38Z"/><path class="cls-1" d="M4.63,95.22l-.39-.15Z"/><path class="cls-1" d="M32.76,13.07a15.45,15.45,0,0,1,6.73,3.05,18,18,0,0,1,1.95,1.78c.07-.76.11-1.52.14-2.27a21.42,21.42,0,0,0-.91-2.7A21.15,21.15,0,0,0,29.41,1.67,21,21,0,0,0,23.09.09a16.54,16.54,0,0,0-7.45,8.07,11,11,0,0,0,0,8.59,7,7,0,0,1,8.68-1.89A10.86,10.86,0,0,1,32.76,13.07Z"/><path class="cls-1" d="M5.32,95.43l-.42-.11Z"/><path class="cls-1" d="M29,32.38a6.56,6.56,0,0,0,2.14,1.4A5.78,5.78,0,0,0,37.07,32a9.13,9.13,0,0,0,1.42-2L35.3,26.82,30.45,22c-.41-.38-.8-.9-1.23-1.05a10.07,10.07,0,0,0-1-.46c0,.22,0,.45,0,.68V29.4a7.07,7.07,0,0,0,7.06,7.06h.07A7.07,7.07,0,0,1,29,32.38Z"/><path class="cls-1" d="M6.29,92.43a8.85,8.85,0,0,0,3.21-4L0,79V88.6a7,7,0,0,0,1.88,4.78A6.43,6.43,0,0,0,6.29,92.43Z"/><path class="cls-1" d="M10.55,55.94,0,45.49V64.76L10.69,75.35Z"/><path class="cls-1" d="M4,94.94l-.36-.19Z"/><path class="cls-1" d="M6.07,95.58a4,4,0,0,1-.48-.08A4,4,0,0,0,6.07,95.58Z"/><path class="cls-1" d="M7.05,95.66c-.25,0-.49,0-.74,0C6.56,95.64,6.8,95.66,7.05,95.66Z"/><path class="cls-2" d="M30.45,22l4.85,4.82L38.49,30a18.36,18.36,0,0,0,1.44-3.8,45.8,45.8,0,0,0,1.51-8.29,18,18,0,0,0-1.95-1.78,15.45,15.45,0,0,0-6.73-3.05,10.86,10.86,0,0,0-8.42,1.79,7.09,7.09,0,0,1,3.86,5.63,10.07,10.07,0,0,1,1,.46C29.65,21.1,30,21.62,30.45,22Z"/><path class="cls-2" d="M15.64,8.16A16.54,16.54,0,0,1,23.09.09C22.45,0,21.81,0,21.17,0a21.18,21.18,0,0,0-15,6.2A21.77,21.77,0,0,0,4.36,8.33a19.21,19.21,0,0,0,.14,3.74,15.43,15.43,0,0,0,2.74,6.87,15.59,15.59,0,0,0,2.24,2.4l2.43,2.41.49.48A15.67,15.67,0,0,1,14,20.07a1.13,1.13,0,0,1,.3-.38,4.55,4.55,0,0,0-.11.74,7.08,7.08,0,0,1,1.52-3.68A11,11,0,0,1,15.64,8.16Z"/><path class="cls-2" d="M14.14,20.47q0,.3,0,.6Q14.11,20.77,14.14,20.47Z"/><path class="cls-2" d="M10.52,52.21c0-3.18,0-6.37,0-9.55,0-.32,0-.64,0-1L0,31.22V45.49L10.55,55.94Z"/><path class="cls-2" d="M10.17,86.49a29,29,0,0,0,.55-7.21l0-3.93L0,64.76V79l9.5,9.42A12.59,12.59,0,0,0,10.17,86.49Z"/><path class="cls-3" d="M42.46,29.4V21.17a21,21,0,0,0-.86-6c0,.14,0,.28,0,.42a21.09,21.09,0,0,1,.6,3.07,22.59,22.59,0,0,1,.16,2.47V29.4a7.06,7.06,0,0,1-7,7.05h0A7.07,7.07,0,0,0,42.46,29.4Z"/><path class="cls-1" d="M42.18,18.7a21.09,21.09,0,0,0-.6-3.07c0,.75-.07,1.51-.14,2.27C41.69,18.16,41.94,18.42,42.18,18.7Z"/><path class="cls-3" d="M42.18,18.7a21.09,21.09,0,0,0-.6-3.07c0,.75-.07,1.51-.14,2.27C41.69,18.16,41.94,18.42,42.18,18.7Z"/><path class="cls-1" d="M41.41,32.89,38.49,30a9.13,9.13,0,0,1-1.42,2,5.78,5.78,0,0,1-5.92,1.78A6.56,6.56,0,0,1,29,32.38a7,7,0,0,0,12.4.51Z"/><path class="cls-3" d="M41.41,32.89,38.49,30a9.13,9.13,0,0,1-1.42,2,5.78,5.78,0,0,1-5.92,1.78A6.56,6.56,0,0,1,29,32.38a7,7,0,0,0,12.4.51Z"/><path class="cls-2" d="M39.93,26.19A18.36,18.36,0,0,1,38.49,30l2.92,2.9a7,7,0,0,0,.93-3.49V21.17a22.59,22.59,0,0,0-.16-2.47c-.24-.28-.49-.54-.74-.8A45.8,45.8,0,0,1,39.93,26.19Z"/><path class="cls-3" d="M39.93,26.19A18.36,18.36,0,0,1,38.49,30l2.92,2.9a7,7,0,0,0,.93-3.49V21.17a22.59,22.59,0,0,0-.16-2.47c-.24-.28-.49-.54-.74-.8A45.8,45.8,0,0,1,39.93,26.19Z"/><path class="cls-3" d="M3.61,94.75l-.26-.15Z"/><path class="cls-3" d="M4.9,95.32l-.27-.1Z"/><path class="cls-3" d="M4.24,95.07,4,94.94Z"/><path class="cls-3" d="M6.31,95.62l-.24,0Z"/><path class="cls-3" d="M3,94.38l-.25-.18Z"/><path class="cls-3" d="M2.47,94l-.23-.2Z"/><path class="cls-3" d="M1.87,93.38l.09.09-.08-.09Z"/><path class="cls-3" d="M5.59,95.5l-.27-.07Z"/><path class="cls-3" d="M14.14,20.43v0Z"/><path class="cls-3" d="M14.1,21.65c0-.19,0-.38,0-.58,0,0,0,.07,0,.1Z"/><path class="cls-1" d="M6.29,92.43a6.43,6.43,0,0,1-4.41.95l.08.09.28.28.23.2.3.25.25.18.33.22.26.15.36.19.27.13.39.15.27.1.42.11.27.07a4,4,0,0,0,.48.08l.24,0c.25,0,.49,0,.74,0a7,7,0,0,0,6.12-3.57L9.5,88.45A8.85,8.85,0,0,1,6.29,92.43Z"/><path class="cls-3" d="M6.29,92.43a6.43,6.43,0,0,1-4.41.95l.08.09.28.28.23.2.3.25.25.18.33.22.26.15.36.19.27.13.39.15.27.1.42.11.27.07a4,4,0,0,0,.48.08l.24,0c.25,0,.49,0,.74,0a7,7,0,0,0,6.12-3.57L9.5,88.45A8.85,8.85,0,0,1,6.29,92.43Z"/><path class="cls-1" d="M12.36,24.37c-.16.75-.3,1.51-.41,2.27s-.14,1.5-.3,2.22a38.44,38.44,0,0,0-.57,4.29c-.29,2.84-.43,5.69-.51,8.54l3.53,3.5V25.92l-1.7-1.69A.57.57,0,0,1,12.36,24.37Z"/><path class="cls-3" d="M12.36,24.37c-.16.75-.3,1.51-.41,2.27s-.14,1.5-.3,2.22a38.44,38.44,0,0,0-.57,4.29c-.29,2.84-.43,5.69-.51,8.54l3.53,3.5V25.92l-1.7-1.69A.57.57,0,0,1,12.36,24.37Z"/><path class="cls-1" d="M10.69,75.35l3.41,3.38V59.46l-3.55-3.52Z"/><path class="cls-3" d="M10.69,75.35l3.41,3.38V59.46l-3.55-3.52Z"/><path class="cls-2" d="M14,20.07a15.67,15.67,0,0,0-1.55,4.16l1.7,1.69V21.17s0-.06,0-.1q0-.3,0-.6v0a4.55,4.55,0,0,1,.11-.74A1.13,1.13,0,0,0,14,20.07Z"/><path class="cls-3" d="M14,20.07a15.67,15.67,0,0,0-1.55,4.16l1.7,1.69V21.17s0-.06,0-.1q0-.3,0-.6v0a4.55,4.55,0,0,1,.11-.74A1.13,1.13,0,0,0,14,20.07Z"/><path class="cls-2" d="M10.55,42.66c-.07,3.18-.05,6.37,0,9.55l0,3.73,3.55,3.52V45.19l-3.53-3.5C10.56,42,10.55,42.34,10.55,42.66Z"/><path class="cls-3" d="M10.55,42.66c-.07,3.18-.05,6.37,0,9.55l0,3.73,3.55,3.52V45.19l-3.53-3.5C10.56,42,10.55,42.34,10.55,42.66Z"/><path class="cls-2" d="M10.72,79.28a29,29,0,0,1-.55,7.21,12.59,12.59,0,0,1-.67,2l3.67,3.64a7,7,0,0,0,.93-3.49V78.73l-3.41-3.38Z"/><path class="cls-3" d="M10.72,79.28a29,29,0,0,1-.55,7.21,12.59,12.59,0,0,1-.67,2l3.67,3.64a7,7,0,0,0,.93-3.49V78.73l-3.41-3.38Z"/></g></g></svg>