<svg xmlns="http://www.w3.org/2000/svg" viewBox="0 0 30.79 31.18" width="30.79" height="31.18"><defs><style>.cls-1{fill:#3f2925;}.cls-2{fill:#895c4e;}.cls-3{opacity:0.2;}</style></defs><title>chocolate_nuts</title><g id="Layer_2" data-name="Layer 2"><g id="ART"><circle class="cls-1" cx="15.95" cy="15.93" r="14.83"/><polygon class="cls-2" points="11.22 18.52 9.09 21.54 11.22 22.14 12.25 20.33 11.22 18.52"/><polygon class="cls-2" points="19.89 12.99 17.76 16.01 19.89 16.61 20.92 14.8 19.89 12.99"/><polygon class="cls-2" points="12.02 27.57 9.88 30.59 12.02 31.18 13.04 29.37 12.02 27.57"/><polygon class="cls-2" points="10.67 11.44 7 11.44 7 13.06 8.84 13.06 10.67 11.44"/><polygon class="cls-2" points="12.34 13.61 12.94 15.99 13.45 15.73 15.58 14.8 14.47 13.61 13.96 14.42 12.34 13.61"/><polygon class="cls-2" points="4.06 24.36 4.66 26.75 5.17 26.49 7.31 25.56 6.2 24.36 5.69 25.18 4.06 24.36"/><polygon class="cls-2" points="12.77 7.58 15.15 9.13 14.93 7.08 12.77 7.58"/><polygon class="cls-2" points="11.27 4.66 9.22 6.62 11.27 6.88 11.27 4.66"/><polygon class="cls-2" points="6.17 16.75 4.11 14.8 3.96 16.86 6.17 16.75"/><polygon class="cls-2" points="13.52 24.4 15.98 25.8 15.64 23.77 13.52 24.4"/><polygon class="cls-2" points="17.29 8.28 16.78 10.8 18.06 11.63 19.34 10.8 19.34 8.88 17.29 8.28"/><polygon class="cls-2" points="23.55 19.02 23.04 21.53 24.32 22.36 25.6 21.53 25.6 19.61 23.55 19.02"/><polygon class="cls-2" points="6.41 3.37 8.66 4.61 9.83 3.64 9.43 2.17 7.59 1.59 6.41 3.37"/><polygon class="cls-2" points="23.98 9.74 22.7 13.12 24.66 13.13 25.94 12.13 23.98 9.74"/><polygon class="cls-2" points="25.93 4.48 24.65 7.86 26.61 7.88 27.89 6.87 25.93 4.48"/><polygon class="cls-2" points="5.34 6.41 4.06 9.78 6.03 9.8 7.31 8.79 5.34 6.41"/><polygon class="cls-2" points="27.34 22.85 26.06 26.23 28.02 26.25 29.3 25.24 27.34 22.85"/><polygon class="cls-2" points="16.35 17.18 18.91 18.77 17.63 19.48 16.35 20.69 15.93 18.77 14.65 18.37 16.35 17.18"/><polygon class="cls-2" points="15.3 0 17.86 1.58 16.58 2.3 15.3 3.51 14.88 1.58 13.6 1.19 15.3 0"/><polygon class="cls-2" points="1.71 18.93 4.27 20.52 2.99 21.23 1.71 22.44 1.28 20.52 0 20.12 1.71 18.93"/><polygon class="cls-2" points="27.12 14.04 26.36 15.82 27.72 17.01 29 16.43 29 14.04 27.12 14.04"/><polygon class="cls-2" points="19.6 5.59 20.71 7.47 22.24 6.53 21.9 4.06 20.45 4.57 19.6 5.59"/><polygon class="cls-2" points="18.77 21.86 19.88 23.75 21.42 22.8 21.08 20.33 19.63 20.84 18.77 21.86"/><polygon class="cls-2" points="19.65 24.4 20.04 27 21.98 26.7 22.29 25.33 19.65 24.4"/><path class="cls-3" d="M25.17,4.42A14.76,14.76,0,0,1,4.44,25.15,14.76,14.76,0,1,0,25.17,4.42Z"/></g></g></svg>