<svg xmlns="http://www.w3.org/2000/svg" viewBox="0 0 57.92 56.52" width="57.92" height="56.52"><defs><style>.cls-1{fill:#bf8f68;}.cls-2{fill:#4e342e;}.cls-3{fill:#e0bb95;}.cls-4{opacity:0.2;}</style></defs><title>cookie_choc_chip</title><g id="Layer_2" data-name="Layer 2"><g id="ART"><path class="cls-1" d="M50.59,48c4.12-4.08,7.35-9.47,7.33-15.27a31.2,31.2,0,0,0-1.56-8.31,56.2,56.2,0,0,0-2.61-7.73A28.93,28.93,0,0,0,27.24,0,28.69,28.69,0,0,0,1.75,18.2,27.54,27.54,0,0,0,.06,26.11,23.43,23.43,0,0,0,1.68,36.66a32.56,32.56,0,0,0,5.66,8.51,38.45,38.45,0,0,0,9.14,8.18C21.74,56.51,28.24,57,34.2,56.16c2.76-.39,6.14-.9,8.58-2.31A38.86,38.86,0,0,0,50.59,48Z"/><path class="cls-2" d="M10.82,17.13a2.94,2.94,0,0,0,.61,2.35,3.65,3.65,0,0,0,2.18,1,3.3,3.3,0,0,0,1.71-.07A3.46,3.46,0,0,0,16.91,19c.82-1.25,1.28-2.95.48-4.21A3.74,3.74,0,0,0,16,13.58C13.25,12,11.23,14.46,10.82,17.13Z"/><path class="cls-3" d="M28.25,12.84a5.38,5.38,0,0,0,.09,2.46,4.72,4.72,0,0,0,5.51,3.06,5.38,5.38,0,0,0,3.9-5.14,4.18,4.18,0,0,0-.44-2C35.21,7.21,29,8.63,28.25,12.84Z"/><path class="cls-3" d="M30.22,33.25a4,4,0,0,0,1.1-.78,3.28,3.28,0,0,0,.71-.94c1.37-3.07-3-5.63-5.18-3.33S27.18,34.64,30.22,33.25Z"/><path class="cls-2" d="M41.68,35.88A5.76,5.76,0,0,0,46.58,39a5.16,5.16,0,0,0,3-.61,5.63,5.63,0,0,0,2.2-3,10,10,0,0,0,.57-3.91c-.18-3.21-3.41-7.39-7.06-5.8C42.15,27.05,40.33,32.83,41.68,35.88Z"/><path class="cls-2" d="M22.44,41.35A7.19,7.19,0,0,0,22.27,47a6.06,6.06,0,0,0,4.23,3.6,8.91,8.91,0,0,0,2.87,0,5,5,0,0,0,2.93-1.07,5.1,5.1,0,0,0,1.14-2,9.45,9.45,0,0,0,.75-3.81,6.12,6.12,0,0,0-2.9-4.83C28.35,37.18,23.9,38.15,22.44,41.35Z"/><path class="cls-3" d="M10.23,32.54a3.24,3.24,0,0,0,1.94,2.11,3.75,3.75,0,0,0,1.37.18,4,4,0,0,0,2.25-.65,3.52,3.52,0,0,0,1.31-2.35,6.85,6.85,0,0,0-.28-2.73c-.44-1.62-3.41-2-4.88-1.54C10.12,28.18,9.74,31,10.23,32.54Z"/><path class="cls-4" d="M56.36,24.46a56.2,56.2,0,0,0-2.61-7.73,3.09,3.09,0,0,0-.14-.32,46.34,46.34,0,0,1-3.74,15.33A39.36,39.36,0,0,1,34.33,49.67a14.09,14.09,0,0,1-4,1.76,23.66,23.66,0,0,1-6.18.06c-3.2-.15-6.46.17-9.63-.36a13.7,13.7,0,0,1-1.69-.44,28.3,28.3,0,0,0,3.69,2.66C21.74,56.51,28.24,57,34.2,56.16c2.76-.39,6.14-.9,8.58-2.31A38.86,38.86,0,0,0,50.59,48c4.12-4.08,7.35-9.47,7.33-15.27A31.2,31.2,0,0,0,56.36,24.46Z"/></g></g></svg>