<svg xmlns="http://www.w3.org/2000/svg" viewBox="0 0 90.64 314.84"><defs><style>.cls-1{fill:#37414d;}.cls-2{fill:#ecf3f8;}.cls-3{opacity:0.04;}.cls-4{fill:#f2faff;}.cls-5,.cls-7{fill:#dec940;}.cls-5{stroke:#dec940;stroke-linejoin:round;stroke-width:2px;}.cls-6,.cls-8{fill:none;stroke-linecap:round;stroke-miterlimit:10;stroke-width:6.7px;}.cls-6{stroke:#bfad37;}.cls-8{stroke:#000;}</style></defs><title>silly_pen_bells</title><g id="Layer_2" data-name="Layer 2"><g id="ART"><rect class="cls-1" x="42.26" y="301.65" width="6.12" height="13.19" rx="2.93" ry="2.93"/><path class="cls-2" d="M45.32,308.25a11.33,11.33,0,0,0,11.33-11.33H34A11.33,11.33,0,0,0,45.32,308.25Z"/><path class="cls-3" d="M56.17,300.18a11.32,11.32,0,0,0,.48-3.26H34a11.32,11.32,0,0,0,.48,3.26Z"/><path class="cls-4" d="M57.06,85.29a6,6,0,0,0-5.85-4.69H39.43a6,6,0,0,0-5.86,4.69c-4.89,22.26-23.94,119.62-4,207.14a6,6,0,0,0,5.85,4.69H55.21a6,6,0,0,0,5.86-4.69C81,204.91,62,107.55,57.06,85.29Z"/><path class="cls-5" d="M20.9,220.85a390.07,390.07,0,0,0,6.52,61.31h35.8a391.26,391.26,0,0,0,6.52-61.31Z"/><path class="cls-3" d="M43.14,109.75A46,46,0,0,0,61,106.17c-1.64-9.38-3.12-16.55-4.07-20.88a6,6,0,0,0-5.85-4.69H39.3a6,6,0,0,0-5.85,4.69c-1,4.55-2.59,12.22-4.31,22.3l.19.06C22.6,147,13.79,222.81,29.65,292.43a6,6,0,0,0,5.85,4.69H43s-6.76-44.19-6.76-108.26c0-32.65,1.76-60.13,3.48-79.23C40.85,109.71,42,109.75,43.14,109.75Z"/><circle class="cls-6" cx="45.32" cy="12.57" r="9.22"/><circle class="cls-7" cx="45.32" cy="54.54" r="41.97"/><path class="cls-8" d="M53.3,86.41a55.34,55.34,0,0,0,13-17.73"/><circle cx="66.33" cy="68.68" r="5.1"/><path class="cls-8" d="M38.45,86.41a55.51,55.51,0,0,1-13-17.73"/><circle cx="25.42" cy="68.68" r="5.1"/><line class="cls-6" x1="3.35" y1="54.54" x2="87.29" y2="54.54"/><path class="cls-6" d="M56.8,25.86a8.95,8.95,0,1,1,0,17.89c-11.48,0-11.48-17.89-23-17.89a8.95,8.95,0,0,0,0,17.89"/></g></g></svg>