<svg xmlns="http://www.w3.org/2000/svg" xmlns:xlink="http://www.w3.org/1999/xlink" viewBox="0 0 270.5 285.5" width="270" height="205.5"><defs><style>.cls-1,.cls-15,.cls-21,.cls-24,.cls-41,.cls-7,.cls-8{fill:none;}.cls-2{fill:#f5f6f6;}.cls-3{fill:#0c6974;}.cls-4{fill:#d7d6d6;}.cls-5{fill:#b72025;}.cls-6{fill:#ef3d39;}.cls-7,.cls-8{stroke:#f5f6f6;stroke-width:5.4px;}.cls-15,.cls-21,.cls-24,.cls-7{stroke-miterlimit:10;}.cls-15,.cls-21,.cls-41,.cls-8{stroke-linecap:round;}.cls-41,.cls-8{stroke-linejoin:round;}.cls-9{fill:#00acc1;}.cls-10{fill:#3e3b4c;}.cls-11{fill:#008191;}.cls-12{fill:#99dee6;}.cls-13{fill:#332e2e;}.cls-14{fill:#ee3c39;}.cls-15{stroke:#f73;stroke-width:3.36px;}.cls-16{fill:#fff;}.cls-17{fill:#32a558;}.cls-18{fill:#f73;}.cls-19{fill:#f9ce1d;}.cls-20{fill:#e53935;}.cls-21{stroke:#e53935;stroke-width:2.36px;}.cls-22{fill:#43a047;}.cls-23{clip-path:url(#clip-path);}.cls-24{stroke:#fff;stroke-width:1.18px;}.cls-25{clip-path:url(#clip-path-2);}.cls-26{fill:#ef9a9b;}.cls-27{fill:#f7caad;}.cls-28{fill:#212121;}.cls-29{fill:#388e3c;}.cls-30{fill:#4caf50;}.cls-31{fill:#f5be1a;}.cls-32{fill:#f44336;}.cls-33{fill:url(#linear-gradient);}.cls-34{fill:url(#linear-gradient-2);}.cls-35{fill:url(#linear-gradient-3);}.cls-36{fill:url(#linear-gradient-4);}.cls-37{fill:url(#linear-gradient-5);}.cls-38{fill:url(#linear-gradient-6);}.cls-39{fill:url(#linear-gradient-7);}.cls-40{fill:url(#linear-gradient-8);}.cls-41{stroke:#0c6974;stroke-width:3px;}</style><clipPath id="clip-path"><path class="cls-1" d="M136.29,174.42c9.85,3.21,8.88,15.48,8.88,15.5h-5.49a16.91,16.91,0,0,0-.71-5.07A40.37,40.37,0,0,0,136.29,174.42Z"/></clipPath><clipPath id="clip-path-2"><path class="cls-1" d="M125.89,174.42C116,177.63,117,189.9,117,189.92h5.49a16.63,16.63,0,0,1,.72-5.07A40.1,40.1,0,0,1,125.89,174.42Z"/></clipPath><linearGradient id="linear-gradient" x1="104.47" y1="179.26" x2="97.39" y2="197.05" gradientUnits="userSpaceOnUse"><stop offset="0" stop-color="#fff" stop-opacity="0.5"/><stop offset="1" stop-color="#f6f6f6" stop-opacity="0"/></linearGradient><linearGradient id="linear-gradient-2" x1="115.86" y1="179.55" x2="108.96" y2="196.88" xlink:href="#linear-gradient"/><linearGradient id="linear-gradient-3" x1="154.47" y1="179.26" x2="147.39" y2="197.05" xlink:href="#linear-gradient"/><linearGradient id="linear-gradient-4" x1="165.86" y1="179.55" x2="158.96" y2="196.88" xlink:href="#linear-gradient"/><linearGradient id="linear-gradient-5" x1="227.47" y1="179.26" x2="220.39" y2="197.05" xlink:href="#linear-gradient"/><linearGradient id="linear-gradient-6" x1="238.86" y1="179.55" x2="231.96" y2="196.88" xlink:href="#linear-gradient"/><linearGradient id="linear-gradient-7" x1="47.59" y1="164.73" x2="28.39" y2="216.32" xlink:href="#linear-gradient"/><linearGradient id="linear-gradient-8" x1="57.83" y1="168.54" x2="38.63" y2="220.13" xlink:href="#linear-gradient"/></defs><title>building-elf-maker</title><g id="Layer_2" data-name="Layer 2"><g id="Layer_1-2" data-name="Layer 1"><rect class="cls-2" x="56" y="-13" width="94" height="120" transform="translate(150 -56) rotate(90)"/><rect class="cls-3" x="78" y="20.5" width="174" height="215"/><rect class="cls-2" x="8" y="20.5" width="194" height="215"/><rect class="cls-4" x="50" y="65.5" width="210" height="25"/><rect class="cls-5" x="50" y="72" width="210" height="12"/><rect class="cls-2" y="65.5" width="210" height="25"/><rect class="cls-4" x="50" y="20.5" width="210" height="11"/><rect class="cls-2" y="20.5" width="210" height="11"/><rect class="cls-6" y="72" width="210" height="12"/><rect class="cls-6" x="66" y="-3" width="74" height="100" transform="translate(150 -56) rotate(90)"/><rect class="cls-4" x="50" y="120.5" width="210" height="25"/><rect class="cls-5" x="50" y="127" width="210" height="12"/><rect class="cls-2" y="120.5" width="210" height="25"/><rect class="cls-6" y="127" width="210" height="12"/><path class="cls-5" d="M135.3,55.48,106.91,42.82l-.07-4.08a10.16,10.16,0,0,0-2.75-19.93c-.53,0-4.72-.08-5.22,0C94,19.56,93.94,23.89,93.94,29c0,.75-2.29,2.18-1.8,2.67s3.75,0,4.5,0a2.7,2.7,0,0,0,2.7-2.7,4.75,4.75,0,1,1,4.75,4.75,2.7,2.7,0,0,0-2.7,2.76l.12,6.35L72.06,55.46l-.07,0a4.73,4.73,0,0,0,2,9h59.37a4.73,4.73,0,0,0,2-9Zm-58,3.62,27-11.56L130.16,59.1Z"/><path class="cls-7" d="M68.62,57.94a2,2,0,0,0,.85,3.86h59.37A2,2,0,0,0,129.7,58L99.75,44.59Z"/><path class="cls-8" d="M99.75,44.59l-.16-8.18A7.45,7.45,0,1,0,92.14,29"/><rect class="cls-9" x="8" y="145.5" width="194" height="90"/><rect class="cls-10" x="77" y="158.5" width="115" height="64"/><rect class="cls-11" x="77" y="158.5" width="115" height="64"/><rect class="cls-12" x="108.5" y="139" width="52" height="103" transform="translate(325 56) rotate(90)"/><rect class="cls-11" x="207" y="158.5" width="41" height="64"/><rect class="cls-12" x="201.5" y="176" width="52" height="29" transform="translate(418 -37) rotate(90)"/><rect class="cls-12" x="157" y="39.5" width="32" height="20" rx="10"/><rect class="cls-12" x="157" y="39.5" width="32" height="20" rx="10"/><rect class="cls-12" x="17" y="39.5" width="32" height="20" rx="10"/><rect class="cls-2" x="171" y="38.5" width="4" height="23"/><rect class="cls-12" x="212" y="39.5" width="32" height="20" rx="10"/><rect class="cls-3" x="226" y="38.5" width="4" height="23"/><rect class="cls-12" x="212" y="95.5" width="32" height="20" rx="10"/><rect class="cls-3" x="226" y="94.5" width="4" height="23"/><rect class="cls-2" x="31" y="38.5" width="4" height="23"/><rect class="cls-12" x="17" y="96.5" width="32" height="20" rx="10"/><rect class="cls-2" x="31" y="95.5" width="4" height="23"/><rect class="cls-12" x="64.67" y="96.5" width="32" height="20" rx="10"/><rect class="cls-2" x="78.67" y="95.5" width="4" height="23"/><rect class="cls-12" x="112.33" y="96.5" width="32" height="20" rx="10"/><rect class="cls-2" x="126.33" y="95.5" width="4" height="23"/><rect class="cls-12" x="160" y="96.5" width="32" height="20" rx="10"/><rect class="cls-2" x="174" y="95.5" width="4" height="23"/><line class="cls-1" x1="120.5" y1="153" x2="270.5" y2="153"/><path class="cls-9" d="M110.36,192.28c0,.23,0,.46,0,.68-.32,4.5-3.85,7-9.48,7s-9.16-2.46-9.48-7c0-.22,0-.45,0-.68s0-.42,0-.61v0c.26-3.55,2.67-5.86,4.13-8a8.81,8.81,0,0,0,.79-1.42c0-.05,0-.08,0-.12h0c0-.08.05-.16.07-.24a2.42,2.42,0,0,0,.1-.36c0-.07,0-.14,0-.21l0-.2c0-.11,0-.22,0-.32a3.56,3.56,0,0,0-.11-.89C96,177.93,94,177,94,174a5.83,5.83,0,0,1,2.24-4.58,7.73,7.73,0,0,1,9.43.13,5.87,5.87,0,0,1,2.07,4.45c0,2.94-2,3.91-2.49,5.85a3.15,3.15,0,0,0-.11.89c0,.1,0,.21,0,.32s0,.2,0,.3l0,.23a2.17,2.17,0,0,0,.07.24c0,.08,0,.16.07.24l0,0s0,0,0,.09l0,.08c0,.08.07.15.1.22a10.07,10.07,0,0,0,.65,1.12c1.45,2.16,3.86,4.47,4.12,8v0A6,6,0,0,1,110.36,192.28Z"/><path class="cls-13" d="M96.49,179.87a3.56,3.56,0,0,1,.11.89,5.2,5.2,0,0,1-1.1,2.87h10.72a5.28,5.28,0,0,1-1.1-2.87,3.56,3.56,0,0,1,.11-.89Z"/><path class="cls-14" d="M93.64,186.07a9.69,9.69,0,0,0-2.25,5.58V211h9.47V182.08H96.34A18.56,18.56,0,0,1,93.64,186.07Z"/><path class="cls-14" d="M108.08,186.07a18.65,18.65,0,0,1-2.69-4h-4.53V211h9.48v-19.3A9.67,9.67,0,0,0,108.08,186.07Z"/><path class="cls-9" d="M110.36,192.28c0,.23,0,.46,0,.68-.32,4.5-3.85,7-9.48,7s-9.16-2.46-9.48-7c0-.22,0-.45,0-.68s0-.42,0-.61v0c.26-3.55,2.67-5.86,4.13-8a8.81,8.81,0,0,0,.79-1.42c0-.05,0-.08,0-.12h0c0-.08.05-.16.07-.24a2.42,2.42,0,0,0,.1-.36c0-.07,0-.14,0-.21l0-.2c0-.11,0-.22,0-.32a3.56,3.56,0,0,0-.11-.89C96,177.93,94,177,94,174a5.83,5.83,0,0,1,2.24-4.58,7.73,7.73,0,0,1,9.43.13,5.87,5.87,0,0,1,2.07,4.45c0,2.94-2,3.91-2.49,5.85a3.15,3.15,0,0,0-.11.89c0,.1,0,.21,0,.32s0,.2,0,.3l0,.23a2.17,2.17,0,0,0,.07.24c0,.08,0,.16.07.24l0,0s0,0,0,.09l0,.08c0,.08.07.15.1.22a10.07,10.07,0,0,0,.65,1.12c1.45,2.16,3.86,4.47,4.12,8v0A6,6,0,0,1,110.36,192.28Z"/><path class="cls-13" d="M96.49,179.87a3.56,3.56,0,0,1,.11.89,5.2,5.2,0,0,1-1.1,2.87h10.72a5.28,5.28,0,0,1-1.1-2.87,3.56,3.56,0,0,1,.11-.89Z"/><path class="cls-14" d="M93.64,186.07a9.69,9.69,0,0,0-2.25,5.58V211h9.47V182.08H96.34A18.56,18.56,0,0,1,93.64,186.07Z"/><path class="cls-14" d="M108.08,186.07a18.65,18.65,0,0,1-2.69-4h-4.53V211h9.48v-19.3A9.67,9.67,0,0,0,108.08,186.07Z"/><path class="cls-3" d="M105.66,169.57,101,174.22l-4.78-4.78a7.73,7.73,0,0,1,9.43.13Z"/><path class="cls-15" d="M228.86,173.44c-10.17,0-10.22,14.84-10.22,21"/><path class="cls-16" d="M221.68,192.8h-6.07a1.68,1.68,0,1,0,0,3.36h6.07a1.68,1.68,0,1,0,0-3.36Z"/><path class="cls-15" d="M229.23,173.44c10.16,0,10.21,14.84,10.21,21"/><path class="cls-16" d="M242.48,192.8h-6.07a1.68,1.68,0,0,0,0,3.36h6.07a1.68,1.68,0,1,0,0-3.36Z"/><path class="cls-15" d="M232,193.4v19.16"/><path class="cls-15" d="M226.1,193.4v19.16"/><polygon class="cls-17" points="226.1 193.4 231.98 193.4 229.04 173.44 226.1 193.4"/><path class="cls-18" d="M238,180.28c0,4.65-3.44,6.18-3.44,11s-3.19,5.89-5.49,5.89-5.48-1.09-5.48-5.89-3.44-6.35-3.44-11a8.05,8.05,0,0,1,4.26-7.49,10.05,10.05,0,0,1,4.66-1,9.85,9.85,0,0,1,4.89,1.16A8.06,8.06,0,0,1,238,180.28Z"/><path class="cls-13" d="M235.32,187.55H222.77a9.09,9.09,0,0,1,.78,3.58h11A9.09,9.09,0,0,1,235.32,187.55Z"/><rect class="cls-19" x="227.25" y="187.55" width="3.58" height="3.58"/><path class="cls-5" d="M233.93,172.92l-4.71,4.7-4.84-4.83a10.05,10.05,0,0,1,4.66-1A9.85,9.85,0,0,1,233.93,172.92Z"/><path class="cls-18" d="M101,165.5h0a1,1,0,0,1,1,1v56a0,0,0,0,1,0,0h-2a0,0,0,0,1,0,0v-56A1,1,0,0,1,101,165.5Z"/><path class="cls-9" d="M110.36,192.28c0,.23,0,.46,0,.68-.32,4.5-3.85,7-9.48,7s-9.12-2.43-9.47-6.88a.22.22,0,0,1,0-.08c0-.22,0-.45,0-.68s0-.42,0-.61v0a.88.88,0,0,1,0-.17v0c.34-3.43,2.68-5.69,4.11-7.81.16-.24.31-.48.44-.71s.25-.48.35-.71c0-.05,0-.08,0-.12h0c0-.08.05-.15.07-.23a2.42,2.42,0,0,0,.1-.36,2.25,2.25,0,0,0,.06-.36s0,0,0,0,0-.22,0-.32a3.56,3.56,0,0,0-.11-.89C96,177.93,94,177,94,174a5.83,5.83,0,0,1,2.24-4.58l4.78,4.78,4.65-4.65a5.87,5.87,0,0,1,2.07,4.45c0,2.94-2,3.91-2.49,5.85a3.15,3.15,0,0,0-.11.89c0,.1,0,.21,0,.32s0,.2,0,.3a1.89,1.89,0,0,0,0,.23,2.17,2.17,0,0,0,.07.24c0,.05,0,.09,0,.14l0,.09a5,5,0,0,0,.21.48c.09.17.18.34.28.51s.22.37.35.56c1.45,2.16,3.86,4.47,4.12,8h0v0A6,6,0,0,1,110.36,192.28Z"/><path class="cls-13" d="M96.49,179.87a3.56,3.56,0,0,1,.11.89,5.2,5.2,0,0,1-1.1,2.87h10.72a5.28,5.28,0,0,1-1.1-2.87,3.56,3.56,0,0,1,.11-.89Z"/><path class="cls-14" d="M93.64,186.07a9.69,9.69,0,0,0-2.25,5.58V211h9.47V182.08H96.34A18.56,18.56,0,0,1,93.64,186.07Z"/><path class="cls-14" d="M108.08,186.07a18.65,18.65,0,0,1-2.69-4h-4.53V211h9.48v-19.3A9.67,9.67,0,0,0,108.08,186.07Z"/><path class="cls-18" d="M99,219.5h4a3,3,0,0,1,3,3v0a0,0,0,0,1,0,0H96a0,0,0,0,1,0,0v0A3,3,0,0,1,99,219.5Z"/><path class="cls-18" d="M131.09,165.5h0a1,1,0,0,1,1,1v56a0,0,0,0,1,0,0h-2a0,0,0,0,1,0,0v-56A1,1,0,0,1,131.09,165.5Z"/><polygon class="cls-20" points="128.44 191.95 133.74 191.95 131.09 175.8 128.44 191.95"/><path class="cls-21" d="M131.09,175.8c8,0,11.33,10.95,11.33,15.3"/><path class="cls-16" d="M144.55,189.92H140.3a1.18,1.18,0,1,0,0,2.35h4.25a1.18,1.18,0,1,0,0-2.35Z"/><path class="cls-21" d="M131.09,175.8c-8,0-11.33,10.95-11.33,15.3"/><path class="cls-16" d="M121.89,189.92h-4.26a1.18,1.18,0,1,0,0,2.35h4.26a1.18,1.18,0,0,0,0-2.35Z"/><path class="cls-22" d="M131.09,173.66c15.37,0,14.08,16.24,14.08,16.26h-5.49a16.91,16.91,0,0,0-.71-5.07,17.53,17.53,0,0,1-1.07,8,.77.77,0,0,1-.72.49H125a.78.78,0,0,1-.72-.49,17.45,17.45,0,0,1-1.06-8,16.63,16.63,0,0,0-.72,5.07H117S115.72,173.66,131.09,173.66Z"/><path class="cls-20" d="M136.29,174.42c9.85,3.21,8.88,15.48,8.88,15.5h-5.49a16.91,16.91,0,0,0-.71-5.07A40.37,40.37,0,0,0,136.29,174.42Z"/><g class="cls-23"><path class="cls-24" d="M135.38,180.31a28.45,28.45,0,0,0,8.28-4.87"/><path class="cls-24" d="M136.83,184.15a23.59,23.59,0,0,0,8.58-5.12"/><path class="cls-24" d="M137.54,187.51a20.33,20.33,0,0,0,9.52-3.31"/></g><path class="cls-20" d="M125.89,174.42C116,177.63,117,189.9,117,189.92h5.49a16.63,16.63,0,0,1,.72-5.07A40.1,40.1,0,0,1,125.89,174.42Z"/><g class="cls-25"><path class="cls-24" d="M126.8,180.31a28.45,28.45,0,0,1-8.28-4.87"/><path class="cls-24" d="M125.35,184.15a23.67,23.67,0,0,1-8.58-5.12"/><path class="cls-24" d="M124.64,187.51a20.33,20.33,0,0,1-9.52-3.31"/></g><path class="cls-26" d="M128.82,184.07a1,1,0,1,1-1-1A1,1,0,0,1,128.82,184.07Z"/><path class="cls-26" d="M135.37,184.07a1,1,0,1,1-1-1A1,1,0,0,1,135.37,184.07Z"/><path class="cls-16" d="M127.88,178.8a1.07,1.07,0,1,1-1.07-1.07A1.06,1.06,0,0,1,127.88,178.8Z"/><path class="cls-27" d="M131.09,181a3.56,3.56,0,0,0-3.57,3.56v3.57h7.14v-3.57A3.56,3.56,0,0,0,131.09,181Z"/><path class="cls-16" d="M132.07,184.34h-6.78a6.68,6.68,0,0,0,6.74,6.6h0a3.3,3.3,0,1,0,0-6.6Z"/><path class="cls-26" d="M132.07,184.34a1,1,0,1,1-1-.81A.91.91,0,0,1,132.07,184.34Z"/><path class="cls-28" d="M131.8,185.41a.71.71,0,0,1-1.42,0Z"/><path class="cls-20" d="M127.92,178.8h0v4.29h6.78C134.66,180.72,131.64,178.8,127.92,178.8Z"/><rect class="cls-16" x="126.99" y="180.95" width="8.21" height="2.14" rx="0.54"/><path class="cls-28" d="M129.66,183.62a.27.27,0,1,1-.26-.27A.27.27,0,0,1,129.66,183.62Z"/><path class="cls-28" d="M132.52,183.62a.27.27,0,1,0,.27-.27A.27.27,0,0,0,132.52,183.62Z"/><path class="cls-29" d="M131.09,177.41c2.54,0,5.2-.93,5.2-3.11s-2.87-2.46-5.2-2.46-5.2.28-5.2,2.46S128.55,177.41,131.09,177.41Z"/><path class="cls-13" d="M131.09,176c1.27,0,2.6-.47,2.6-1.56s-1.44-1.22-2.6-1.22-2.6.13-2.6,1.22S129.82,176,131.09,176Z"/><path class="cls-18" d="M129.09,219.5h4a3,3,0,0,1,3,3v0a0,0,0,0,1,0,0h-10a0,0,0,0,1,0,0v0a3,3,0,0,1,3-3Z"/><path class="cls-29" d="M136.29,174.3c0,1.89-2,2.84-4.2,3.06-.33,0-.67,0-1,0s-.67,0-1,0c-2.19-.22-4.2-1.17-4.2-3.06s2.13-2.34,4.2-2.44l1,0,1,0C134.16,172,136.29,172.42,136.29,174.3Z"/><path class="cls-13" d="M133.69,174.46c0,.8-.71,1.26-1.6,1.45a4.6,4.6,0,0,1-2,0c-.89-.19-1.6-.65-1.6-1.45s.75-1.07,1.6-1.16a8.36,8.36,0,0,1,2,0C132.94,173.39,133.69,173.67,133.69,174.46Z"/><path class="cls-18" d="M132.09,166.5v9.41a4.6,4.6,0,0,1-2,0V166.5a1,1,0,0,1,2,0Z"/><path class="cls-30" d="M158.81,223.06H148.12a1.5,1.5,0,0,1-1.23-2.35l5.35-7.68a1.5,1.5,0,0,1,2.45,0l5.34,7.68A1.49,1.49,0,0,1,158.81,223.06Z"/><path class="cls-30" d="M158.81,218H148.12a1.49,1.49,0,0,1-1.23-2.35l5.35-7.67a1.49,1.49,0,0,1,2.45,0l5.34,7.67A1.49,1.49,0,0,1,158.81,218Z"/><path class="cls-30" d="M158.81,213.21H148.12a1.49,1.49,0,0,1-1.23-2.35l5.35-7.67a1.49,1.49,0,0,1,2.45,0l5.34,7.67A1.49,1.49,0,0,1,158.81,213.21Z"/><path class="cls-31" d="M153.91,198.22l.45,1.4a.46.46,0,0,0,.44.32h1.47a.46.46,0,0,1,.27.84l-1.18.87a.46.46,0,0,0-.17.52l.45,1.39a.47.47,0,0,1-.72.52l-1.18-.86a.47.47,0,0,0-.55,0l-1.19.86a.47.47,0,0,1-.72-.52l.46-1.39a.47.47,0,0,0-.17-.52l-1.19-.87a.47.47,0,0,1,.28-.84h1.46a.48.48,0,0,0,.45-.32l.45-1.4A.47.47,0,0,1,153.91,198.22Z"/><circle class="cls-32" cx="150.19" cy="206.78" r="1.1"/><circle class="cls-16" cx="151.75" cy="211.21" r="1.1"/><circle class="cls-16" cx="154.87" cy="215.9" r="1.1"/><circle class="cls-16" cx="155.97" cy="208.2" r="1.1"/><circle class="cls-32" cx="149.52" cy="215.02" r="1.1"/><circle class="cls-32" cx="157.07" cy="212.31" r="1.1"/><polygon class="cls-18" points="168.67 175.97 167.18 164.82 179.03 169.79 168.67 175.97"/><path class="cls-16" d="M168.68,177.77a1.61,1.61,0,0,1-.84-3l10.61-6.46a1.61,1.61,0,0,1,1.67,2.75l-10.61,6.46A1.55,1.55,0,0,1,168.68,177.77Z"/><circle class="cls-16" cx="166.32" cy="163.51" r="1.61"/><polygon class="cls-14" points="168.67 195.47 167.18 184.32 179.03 189.29 168.67 195.47"/><path class="cls-16" d="M168.68,197.27a1.61,1.61,0,0,1-.84-3l10.61-6.46a1.61,1.61,0,0,1,1.67,2.75L169.51,197A1.55,1.55,0,0,1,168.68,197.27Z"/><circle class="cls-16" cx="166.32" cy="183.01" r="1.61"/><polygon class="cls-19" points="168.67 214.97 167.18 203.82 179.03 208.79 168.67 214.97"/><path class="cls-16" d="M168.68,216.77a1.61,1.61,0,0,1-.84-3l10.61-6.46a1.61,1.61,0,0,1,1.67,2.75l-10.61,6.46A1.55,1.55,0,0,1,168.68,216.77Z"/><circle class="cls-16" cx="166.32" cy="202.51" r="1.61"/><polygon class="cls-33" points="95 222.5 115 158.5 105 158.5 85 222.5 95 222.5"/><polygon class="cls-34" points="104 222.5 124 158.5 119 158.5 99 222.5 104 222.5"/><polygon class="cls-35" points="145 222.5 165 158.5 155 158.5 135 222.5 145 222.5"/><polygon class="cls-36" points="154 222.5 174 158.5 169 158.5 149 222.5 154 222.5"/><polygon class="cls-37" points="218 222.5 238 158.5 228 158.5 208 222.5 218 222.5"/><polygon class="cls-38" points="227 222.5 247 158.5 242 158.5 222 222.5 227 222.5"/><path class="cls-12" d="M65,177v58.5H20V177a22.5,22.5,0,0,1,22.5-22.5,18.86,18.86,0,0,1,2,.1,22.07,22.07,0,0,1,9.11,2.84,21.37,21.37,0,0,1,3.29,2.27c.53.44,1,.9,1.51,1.38a21.51,21.51,0,0,1,2.24,2.62A22.31,22.31,0,0,1,65,177Z"/><path class="cls-39" d="M53.61,157.44,35,217.14H25L44.5,154.6A22.07,22.07,0,0,1,53.61,157.44Z"/><path class="cls-40" d="M60.65,163.71,44,217.14H39L56.9,159.71c.53.44,1,.9,1.51,1.38A21.51,21.51,0,0,1,60.65,163.71Z"/><polyline class="cls-41" points="55 192.15 55 206.78 55 221.4"/></g></g></svg>