<svg id="slice" xmlns="http://www.w3.org/2000/svg" width="375" height="246.3" viewBox="-612 327.7 375 246.3"><style>.st0{fill:#fff}.st1{opacity:.48}.st2{fill:#75cef4;enable-background:new}.st2,.st3{opacity:.5}.st3,.st4,.st5{enable-background:new}.st3{fill:#00bff0}.st4{opacity:.48;fill:#75cef4}.st5{opacity:.17;fill:#fff}.st6{fill:url(#SVGID_1_)}.st7{fill:url(#SVGID_2_)}.st8{fill:#ffdf8a}.st9{fill:#f27b20}.st10{fill:#333}.st11{fill:#28ae4b}.st12{fill:#ffd400}.st13{fill:gray}.st14{fill:#e64436}</style><path class="st0" d="M-252 557.9h-41.6c0-6.8 5.5-12.4 12.4-12.4 4.5 0 8.4 2.4 10.6 5.9 1.9-2.4 4.9-4 8.2-4 5.7 0 10.4 4.7 10.4 10.5z"/><g id="XMLID_625_"><g id="XMLID_630_"><g id="XMLID_633_" class="st1"><path id="XMLID_1033_" class="st2" d="M-587.2 547.5l9.8-106.3 7.2-9 2.1-62.6 52.9-20.2 28.9-19.6h45.9l37-2.1 101.9 37.4 38.8 5.2 17.4 88.5 8.3 89.3z"/><path id="XMLID_950_" class="st3" d="M-571.1 547.1l30.9-111.4 41.9 7.8 1-52.8 71.6 43.8 84-59.7 9.5 66.7 30.6-11.9 58.2 118.5z"/></g><path id="XMLID_632_" class="st2" d="M-587.2 547.5l9.8-106.3 16.9-72.4 73.1-31.4 84-9.7 101.9 37.4 38.8 5.2 17.4 88.5 8.3 89.3z"/><path id="XMLID_631_" class="st4" d="M-587.2 547.5l186.9-106.2-3.1-113.6 115.4 18.4 25.3 24.2 17.4 88.5 8.3 89.3z"/></g><path id="XMLID_628_" class="st5" d="M-571.2 414.8l10.7-46 76.1-38.4 35.2 18.8-10 113.5z"/></g><linearGradient id="SVGID_1_" gradientUnits="userSpaceOnUse" x1="-485.3" y1="390.748" x2="-485.3" y2="335.057" gradientTransform="matrix(1 0 0 -1 0 903.4)"><stop offset=".073" stop-color="#f6f3ec"/><stop offset=".624" stop-color="#f6f3ec"/><stop offset="1" stop-color="#f6f3ec" stop-opacity="0"/></linearGradient><path class="st6" d="M-358.7 571c-63.4-36.8-67.2-53.8-101.7-65.8-9.1-3.2-17.5-4.4-24.9-4.2-7.5-.2-15.8 1.1-24.9 4.2-34.5 12-38.3 29-101.7 65.8h253.2z"/><linearGradient id="SVGID_2_" gradientUnits="userSpaceOnUse" x1="-341.9" y1="378.622" x2="-341.9" y2="337.802" gradientTransform="matrix(1 0 0 -1 0 903.4)"><stop offset=".073" stop-color="#FFF"/><stop offset=".624" stop-color="#FFF"/><stop offset="1" stop-color="#FFF" stop-opacity="0"/></linearGradient><path class="st7" d="M-249.1 567.5c-46.5-27-49.3-39.4-74.5-48.2-6.7-2.3-12.8-3.2-18.3-3.1-5.5-.1-11.6.8-18.3 3.1-25.3 8.8-28.1 21.3-74.5 48.2h185.6z"/><circle class="st8" cx="-524.5" cy="519.6" r="1.3"/><circle class="st8" cx="-512.6" cy="519.6" r="1.3"/><path class="st9" d="M-521 508.8s2.7-5.7 5.2-6.9c0 0-1.3 5.3.1 7l-5.3-.1z"/><path class="st8" d="M-515 511.8c0 1.8-1.5 3.3-3.3 3.3-1.8 0-3.3-1.5-3.3-3.3 0-1.8 1.5-3.3 3.3-3.3 1.8 0 3.3 1.5 3.3 3.3z"/><path class="st0" d="M-514.5 509.5c0 .2-.2.4-.4.4h-6.6c-.2 0-.4-.2-.4-.4v-.8c0-.2.2-.4.4-.4h6.5c.2 0 .4.2.4.4l.1.8z"/><circle class="st10" cx="-519.7" cy="511.4" r=".6"/><circle class="st10" cx="-517" cy="511.4" r=".6"/><path class="st9" d="M-521.8 519.6v-1.1c0-1.8 1.5-3.3 3.3-3.3s3.3 1.5 3.3 3.3v1.1"/><path class="st0" d="M-518.8 515.4h.6v5.2h-.6z"/><circle class="st0" cx="-515.3" cy="501.3" r=".7"/><path class="st8" d="M-521.6 511.1l-1.1-1.5s-.6 3.9 1.5 3.4l-.4-1.9zm6.3 0l1.1-1.5s.6 3.9-1.5 3.4l.4-1.9z"/><circle class="st8" cx="-315" cy="522.3" r="1.3"/><path class="st11" d="M-309.3 510.6s-2.7-5.7-5.2-6.9c0 0 1.3 5.3-.1 7l5.3-.1z"/><path class="st8" d="M-315.4 513.7c0 1.8 1.5 3.3 3.3 3.3 1.8 0 3.3-1.5 3.3-3.3 0-1.8-1.5-3.3-3.3-3.3-1.8 0-3.3 1.5-3.3 3.3z"/><path class="st0" d="M-315.9 511.4c0 .2.2.4.4.4h6.6c.2 0 .4-.2.4-.4v-.8c0-.2-.2-.4-.4-.4h-6.6c-.2 0-.4.2-.4.4v.8z"/><circle class="st10" cx="-310.6" cy="513.3" r=".6"/><circle class="st10" cx="-313.4" cy="513.3" r=".6"/><path class="st11" d="M-310 518.3h6.6v1.9h-6.6z"/><path class="st11" d="M-315.2 525c0 1.8 1.5 3.3 3.3 3.3s3.3-1.5 3.3-3.3v-4.6c0-1.8-1.5-3.3-3.3-3.3s-3.3 1.5-3.3 3.3v4.6z"/><path class="st0" d="M-310 527v5.7h-1.7V527"/><path class="st11" d="M-310 527v3h-1.7v-3"/><path class="st10" d="M-311.9 532.4h2c.7 1.3 2.4 1.3 2.7.4 0 0 .9 1.8-3.2 1.5-1-.1-1.8-1-1.5-1.9z"/><path class="st0" d="M-314.2 527v5.7h1.7V527"/><path class="st11" d="M-314.2 527v3h1.7v-3"/><path class="st10" d="M-312.3 532.4h-2c-.7 1.3-2.4 1.3-2.7.4 0 0-.9 1.8 3.2 1.5 1-.1 1.8-1 1.5-1.9z"/><path class="st0" d="M-312.2 517.1h.6v8.9h-.6z"/><path class="st10" d="M-315.2 523.3h6.6v1.7h-6.6z"/><path class="st12" d="M-312.8 523.1h1.7v1.9h-1.7z"/><circle class="st0" cx="-315.1" cy="503.2" r=".7"/><path class="st8" d="M-308.7 513l1.1-1.5s.6 3.9-1.5 3.4l.4-1.9zm-6.4 0l-1.1-1.5s-.6 3.9 1.5 3.4l-.4-1.9z"/><circle class="st8" cx="-303.4" cy="519.3" r="1.3"/><path class="st13" d="M-305.9 516.3s.1-3.9 2.4-5.5c0 0 2.1 1.2 2.3 5.5h-2.1v17.9h-.5v-17.9h-2.1zm-44.8 21.6s-3.2 2.2-5.9 1.2c0 0-.2-2.4 3.1-5.1l1.2 1.7 16.9-12.2.3.4-16.9 12.3 1.3 1.7z"/><path class="st14" d="M-352.2 522.9s1.4-6.4 2.7-8.8c0 0 .4 4.3 2.5 4.8l-5.2 4z"/><path class="st8" d="M-350.1 525.2c1.1 1.5 3.1 1.9 4.6.8 1.5-1.1 1.9-3.1.8-4.6-1.1-1.5-3.1-1.9-4.6-.8-1.5 1.1-1.9 3.1-.8 4.6z"/><path class="st10" d="M-350.3 521.8c.2-.5.6-.9 1-1.2 1.5-1.1 3.6-.7 4.6.8.5.7.7 1.4.6 2.2-3 1.1-5.3-.8-6.2-1.8z"/><path class="st8" d="M-347.7 524.6v-3s2.8 2.8.7 3.6l-.7-.6z"/><path class="st0" d="M-351.8 523.6c.1.2.4.2.6.1l5.4-3.8c.2-.1.2-.4.1-.6l-.5-.7c-.1-.2-.4-.2-.6-.1l-5.4 3.8c-.2.1-.2.4-.1.6l.5.7z"/><circle class="st10" cx="-349.3" cy="524.1" r=".6"/><path class="st14" d="M-343.5 534.3c1.1 1.5 3.1 1.9 4.6.8 1.5-1.1 1.9-3.1.8-4.6l-2.6-3.7c-1.1-1.5-3.1-1.9-4.6-.8-1.5 1.1-1.9 3.1-.8 4.6l2.6 3.7z"/><path class="st0" d="M-340.7 536.3v4.1h1.7v-4.1"/><path class="st14" d="M-339.4 534.1c-1.2 0-1.3.6-1.3 1.2v2.5h1.7V535l-.4-.9z"/><path class="st10" d="M-338.9 540.1h-2c-.7 1.3-2.4 1.3-2.7.4 0 0-.9 1.8 3.2 1.5 1.1 0 1.9-.9 1.5-1.9zm-5.498-7.236l5.39-3.81.98 1.387-5.388 3.812z"/><path class="st12" d="M-344.59 532.952l.407-.29 1.098 1.552-.41.29z"/><path class="st8" d="M-349.8 524.8l-2 2.5c-.3.2 0 .6.4.3l3-2.2-1.4-.6z"/><path class="st14" d="M-348.7 532.1l3.8-2.9.9 1.9-3.9 2.8z"/><circle class="st8" cx="-348.5" cy="533.2" r="1.3"/><path class="st10" d="M-342.5 523.2c.8.1 1.5-.2 2-.7-.3-.6-1-1.1-1.7-1.2-.8-.1-1.5.2-2 .7.3.6.9 1.1 1.7 1.2z"/><g id="XMLID_613_"><path id="XMLID_615_" class="st0" d="M-512.1 574c0-4.8 3.9-8.7 8.7-8.7 4.8 0 8.7 3.9 8.7 8.7"/><path class="st0" d="M-399.4 557.8h-49.7c0-7.5 6.1-13.6 13.6-13.6 4.6 0 8.7 2.3 11.2 5.8 2.5-3.5 6.5-5.8 11.2-5.8 7.6 0 13.7 6.1 13.7 13.6z"/></g></svg>