<svg xmlns="http://www.w3.org/2000/svg" xmlns:xlink="http://www.w3.org/1999/xlink" viewBox="0 0 461.47 325.5"><defs><style>.cls-1,.cls-16,.cls-20,.cls-22,.cls-24{fill:none;}.cls-2{fill:#0f0f0f;}.cls-2,.cls-5{opacity:0.1;}.cls-3{fill:#716e69;}.cls-4{fill:#71bdde;}.cls-6{fill:#888480;}.cls-7{fill:#659bc7;}.cls-8{fill:#70afd4;}.cls-9{fill:#b0e1e8;}.cls-10{fill:#97cee6;}.cls-11,.cls-12{fill:#fff;}.cls-11{opacity:0.22;}.cls-13{fill:#231f20;opacity:0.2;mix-blend-mode:multiply;}.cls-14{fill:#a8e6ef;}.cls-15{fill:#8fc4cc;}.cls-16,.cls-17{stroke:#e1f9fc;}.cls-16,.cls-17,.cls-20,.cls-22,.cls-24{stroke-miterlimit:10;}.cls-16,.cls-17,.cls-22{stroke-width:2px;}.cls-18{fill:#845930;}.cls-19{clip-path:url(#clip-path);}.cls-20,.cls-22{stroke:#000;}.cls-20{stroke-width:3.5px;}.cls-21{fill:red;}.cls-23{fill:#caf5f6;}.cls-24{stroke:#caf5f6;}.cls-25{fill:url(#linear-gradient);}</style><clipPath id="clip-path"><path class="cls-1" d="M211.08,195.57h0a36,36,0,0,1,36,36v54a0,0,0,0,1,0,0h-72a0,0,0,0,1,0,0v-54A36,36,0,0,1,211.08,195.57Z"/></clipPath><linearGradient id="linear-gradient" x1="331.2" y1="293.28" x2="331.2" y2="319.18" gradientUnits="userSpaceOnUse"><stop offset="0.22" stop-color="#caf5f6"/><stop offset="0.33" stop-color="#caf5f6" stop-opacity="0.67"/><stop offset="0.79" stop-color="#caf5f6" stop-opacity="0"/></linearGradient><symbol id="New_Symbol_13" data-name="New Symbol 13" viewBox="0 0 55.38 69.11"><ellipse class="cls-2" cx="28.16" cy="67.07" rx="25.53" ry="2.05"/><g id="_Group_" data-name="&lt;Group&gt;"><rect id="_Path_" data-name="&lt;Path&gt;" class="cls-3" x="22.4" y="48.54" width="4.26" height="18.35"/><polygon id="_Path_2" data-name="&lt;Path&gt;" class="cls-4" points="24.53 0 6.28 57.66 24.53 57.66 42.79 57.66 24.53 0"/><polygon id="_Path_3" data-name="&lt;Path&gt;" class="cls-5" points="22.4 57.66 26.66 57.66 26.66 59.75 22.4 58.35 22.4 57.66"/></g><g id="_Group_2" data-name="&lt;Group&gt;"><rect id="_Path_4" data-name="&lt;Path&gt;" class="cls-6" x="10.83" y="55.8" width="2.86" height="11.34"/><polygon id="_Path_5" data-name="&lt;Path&gt;" class="cls-7" points="12.26 24.99 0 63.72 12.26 63.72 24.52 63.72 12.26 24.99"/><g id="_Group_3" data-name="&lt;Group&gt;"><g id="_Group_4" data-name="&lt;Group&gt;"><polygon class="cls-8" points="17.73 42.27 12.26 47.74 6.79 42.27 7.47 40.12 12.26 44.9 17.05 40.11 17.73 42.27"/><polygon class="cls-8" points="19.82 48.88 12.26 56.44 4.7 48.88 5.38 46.73 12.26 53.6 19.14 46.72 19.82 48.88"/><polygon class="cls-8" points="21.91 55.49 13.68 63.72 10.84 63.72 2.6 55.49 3.29 53.33 12.26 62.3 21.23 53.33 21.91 55.49"/></g><g id="_Group_5" data-name="&lt;Group&gt;"><polygon class="cls-8" points="13.55 29.05 12.26 30.34 10.97 29.05 11.66 26.89 12.26 27.49 12.86 26.89 13.55 29.05"/><polygon class="cls-8" points="15.64 35.66 12.26 39.04 8.88 35.66 9.56 33.5 12.26 36.2 14.95 33.5 15.64 35.66"/></g></g><polygon id="_Path_6" data-name="&lt;Path&gt;" class="cls-5" points="10.83 63.72 13.69 63.72 13.69 65.65 10.83 64.35 10.83 63.72"/></g><g id="_Group_6" data-name="&lt;Group&gt;"><rect id="_Path_7" data-name="&lt;Path&gt;" class="cls-6" x="36.2" y="49.87" width="4.01" height="17.26"/><polygon id="_Path_8" data-name="&lt;Path&gt;" class="cls-9" points="38.21 6.72 21.03 60.97 38.21 60.97 55.38 60.97 38.21 6.72"/><polygon id="_Path_9" data-name="&lt;Path&gt;" class="cls-1" points="38.21 6.72 21.03 60.97 38.21 60.97 55.38 60.97 38.21 6.72"/><polygon id="_Path_10" data-name="&lt;Path&gt;" class="cls-5" points="36.2 60.97 40.21 60.97 40.21 63.67 36.2 61.85 36.2 60.97"/><g id="_Group_7" data-name="&lt;Group&gt;"><g id="_Group_8" data-name="&lt;Group&gt;"><polygon class="cls-10" points="45.73 30.49 38.2 38.02 30.68 30.49 31.36 28.33 38.2 35.17 45.04 28.33 45.73 30.49"/><polygon class="cls-10" points="48.66 39.75 38.2 50.21 27.75 39.75 28.43 37.59 38.2 47.36 47.98 37.59 48.66 39.75"/><polygon class="cls-10" points="51.59 49.01 39.62 60.97 36.78 60.97 24.82 49.01 25.5 46.84 38.2 59.55 50.91 46.84 51.59 49.01"/></g><g id="_Group_9" data-name="&lt;Group&gt;"><polygon class="cls-10" points="39.86 11.98 38.2 13.64 36.54 11.98 37.22 9.82 38.2 10.8 39.18 9.82 39.86 11.98"/><polygon class="cls-10" points="42.8 21.23 38.2 25.83 33.61 21.23 34.29 19.07 38.2 22.98 42.11 19.07 42.8 21.23"/></g></g><polygon id="_Path_11" data-name="&lt;Path&gt;" class="cls-11" points="38.21 6.72 28.33 60.97 21.03 60.97 38.21 6.72"/><path class="cls-12" d="M23.61,55.43H10.83a.17.17,0,0,0-.17.17,2.3,2.3,0,0,0,4.43.85,2.3,2.3,0,0,0,4.26,0,2.3,2.3,0,0,0,4.43-.85A.17.17,0,0,0,23.61,55.43Z"/><path class="cls-12" d="M12.87,51.2a2.3,2.3,0,0,0,2.3-2.29.17.17,0,0,0-.17-.17H2.22a.17.17,0,0,0-.17.17,2.3,2.3,0,0,0,4.43.85,2.3,2.3,0,0,0,4.26,0A2.3,2.3,0,0,0,12.87,51.2Z"/><path class="cls-12" d="M10.66,40.18a2.3,2.3,0,0,0,4.43.86,2.3,2.3,0,0,0,4.43-.86.17.17,0,0,0-.17-.16H10.83A.17.17,0,0,0,10.66,40.18Z"/><path class="cls-12" d="M10,35.85a2.31,2.31,0,0,0,2.3-2.3.17.17,0,0,0-.17-.16H7.84a.17.17,0,0,0-.17.16A2.3,2.3,0,0,0,10,35.85Z"/><path class="cls-12" d="M54.1,50.91H36.2a.17.17,0,0,0-.16.17,3.14,3.14,0,0,0,6.13,1,3.13,3.13,0,0,0,6,0,3.14,3.14,0,0,0,6.13-1A.18.18,0,0,0,54.1,50.91Z"/><path class="cls-12" d="M39.19,45.47a3.16,3.16,0,0,0,3.15-3.15.18.18,0,0,0-.17-.17H24.27a.18.18,0,0,0-.17.17,3.15,3.15,0,0,0,6.14,1,3.13,3.13,0,0,0,6,0A3.16,3.16,0,0,0,39.19,45.47Z"/><path class="cls-12" d="M37.71,33.42a.18.18,0,0,0-.17.17,3.14,3.14,0,0,0,6.13,1,3.15,3.15,0,0,0,6.14-1,.18.18,0,0,0-.17-.17H37.71Z"/><path class="cls-12" d="M33.37,28.14a3.15,3.15,0,0,0,3-2.18,3.14,3.14,0,0,0,6.13-1,.17.17,0,0,0-.17-.17H30.39a.18.18,0,0,0-.17.17A3.16,3.16,0,0,0,33.37,28.14Z"/><path class="cls-12" d="M40.69,20.39a3.15,3.15,0,0,0,3.15-3.15.17.17,0,0,0-.17-.17h-6a.18.18,0,0,0-.17.17A3.15,3.15,0,0,0,40.69,20.39Z"/></g></symbol><symbol id="Snowball_Storm" data-name="Snowball Storm" viewBox="0 0 461.47 325.5"><ellipse class="cls-13" cx="247.08" cy="285.57" rx="214.39" ry="13.69"/><rect class="cls-14" x="67.08" y="177.57" width="288" height="108"/><rect class="cls-14" x="355.08" y="177.57" width="72" height="108"/><rect class="cls-15" x="355.08" y="177.57" width="72" height="108"/><rect class="cls-15" x="247.08" y="69.57" width="72" height="108"/><rect class="cls-14" x="175.08" y="69.57" width="72" height="108"/><line class="cls-14" x1="67.08" y1="195.57" x2="427.08" y2="195.57"/><line class="cls-14" x1="67.08" y1="213.57" x2="427.08" y2="213.57"/><line class="cls-14" x1="67.08" y1="231.57" x2="427.08" y2="231.57"/><line class="cls-14" x1="67.08" y1="249.57" x2="427.08" y2="249.57"/><line class="cls-14" x1="67.08" y1="267.57" x2="427.08" y2="267.57"/><line class="cls-14" x1="103.08" y1="177.57" x2="103.08" y2="195.57"/><line class="cls-14" x1="139.08" y1="177.57" x2="139.08" y2="195.57"/><line class="cls-14" x1="175.08" y1="177.57" x2="175.08" y2="195.57"/><line class="cls-14" x1="211.08" y1="177.57" x2="211.08" y2="195.57"/><line class="cls-14" x1="247.08" y1="177.57" x2="247.08" y2="195.57"/><line class="cls-14" x1="283.08" y1="177.57" x2="283.08" y2="195.57"/><line class="cls-14" x1="319.08" y1="177.57" x2="319.08" y2="195.57"/><line class="cls-14" x1="391.08" y1="177.57" x2="391.08" y2="195.57"/><line class="cls-14" x1="85.08" y1="195.57" x2="85.08" y2="213.57"/><line class="cls-14" x1="121.08" y1="195.57" x2="121.08" y2="213.57"/><line class="cls-14" x1="157.08" y1="195.57" x2="157.08" y2="213.57"/><line class="cls-14" x1="193.08" y1="195.57" x2="193.08" y2="213.57"/><line class="cls-14" x1="229.08" y1="195.57" x2="229.08" y2="213.57"/><line class="cls-14" x1="265.08" y1="195.57" x2="265.08" y2="213.57"/><line class="cls-14" x1="301.08" y1="195.57" x2="301.08" y2="213.57"/><line class="cls-14" x1="337.08" y1="195.57" x2="337.08" y2="213.57"/><line class="cls-14" x1="373.08" y1="195.57" x2="373.08" y2="213.57"/><line class="cls-14" x1="409.08" y1="195.57" x2="409.08" y2="213.57"/><line class="cls-14" x1="103.08" y1="213.57" x2="103.08" y2="231.57"/><line class="cls-14" x1="139.08" y1="213.57" x2="139.08" y2="231.57"/><line class="cls-14" x1="175.08" y1="213.57" x2="175.08" y2="231.57"/><line class="cls-14" x1="211.08" y1="213.57" x2="211.08" y2="231.57"/><line class="cls-14" x1="247.08" y1="213.57" x2="247.08" y2="231.57"/><line class="cls-14" x1="283.08" y1="213.57" x2="283.08" y2="231.57"/><line class="cls-14" x1="319.08" y1="213.57" x2="319.08" y2="231.57"/><line class="cls-14" x1="391.08" y1="213.57" x2="391.08" y2="231.57"/><line class="cls-14" x1="85.08" y1="231.57" x2="85.08" y2="249.57"/><line class="cls-14" x1="121.08" y1="231.57" x2="121.08" y2="249.57"/><line class="cls-14" x1="157.08" y1="231.57" x2="157.08" y2="249.57"/><line class="cls-14" x1="193.08" y1="231.57" x2="193.08" y2="249.57"/><line class="cls-14" x1="229.08" y1="231.57" x2="229.08" y2="249.57"/><line class="cls-14" x1="265.08" y1="231.57" x2="265.08" y2="249.57"/><line class="cls-14" x1="301.08" y1="231.57" x2="301.08" y2="249.57"/><line class="cls-14" x1="337.08" y1="231.57" x2="337.08" y2="249.57"/><line class="cls-14" x1="373.08" y1="231.57" x2="373.08" y2="249.57"/><line class="cls-14" x1="409.08" y1="231.57" x2="409.08" y2="249.57"/><line class="cls-14" x1="103.08" y1="249.57" x2="103.08" y2="267.57"/><line class="cls-14" x1="139.08" y1="249.57" x2="139.08" y2="267.57"/><line class="cls-14" x1="175.08" y1="249.57" x2="175.08" y2="267.57"/><line class="cls-14" x1="211.08" y1="249.57" x2="211.08" y2="267.57"/><line class="cls-14" x1="247.08" y1="249.57" x2="247.08" y2="267.57"/><line class="cls-14" x1="283.08" y1="249.57" x2="283.08" y2="267.57"/><line class="cls-14" x1="319.08" y1="249.57" x2="319.08" y2="267.57"/><line class="cls-14" x1="391.08" y1="249.57" x2="391.08" y2="267.57"/><line class="cls-14" x1="85.08" y1="267.57" x2="85.08" y2="285.57"/><line class="cls-14" x1="121.08" y1="267.57" x2="121.08" y2="285.57"/><line class="cls-14" x1="157.08" y1="267.57" x2="157.08" y2="285.57"/><line class="cls-14" x1="193.08" y1="267.57" x2="193.08" y2="285.57"/><line class="cls-14" x1="229.08" y1="267.57" x2="229.08" y2="285.57"/><line class="cls-14" x1="265.08" y1="267.57" x2="265.08" y2="285.57"/><line class="cls-14" x1="301.08" y1="267.57" x2="301.08" y2="285.57"/><line class="cls-14" x1="337.08" y1="267.57" x2="337.08" y2="285.57"/><line class="cls-14" x1="373.08" y1="267.57" x2="373.08" y2="285.57"/><line class="cls-14" x1="409.08" y1="267.57" x2="409.08" y2="285.57"/><line class="cls-14" x1="175.08" y1="87.57" x2="319.08" y2="87.57"/><line class="cls-14" x1="175.08" y1="105.57" x2="319.08" y2="105.57"/><line class="cls-14" x1="175.08" y1="123.57" x2="319.08" y2="123.57"/><line class="cls-14" x1="175.08" y1="141.57" x2="319.08" y2="141.57"/><line class="cls-14" x1="175.08" y1="159.57" x2="319.08" y2="159.57"/><line class="cls-14" x1="193.08" y1="177.57" x2="193.08" y2="159.57"/><line class="cls-14" x1="229.08" y1="177.57" x2="229.08" y2="159.57"/><line class="cls-14" x1="211.08" y1="159.57" x2="211.08" y2="141.57"/><line class="cls-14" x1="193.08" y1="141.57" x2="193.08" y2="123.57"/><line class="cls-14" x1="229.08" y1="141.57" x2="229.08" y2="123.57"/><line class="cls-14" x1="211.08" y1="123.57" x2="211.08" y2="105.57"/><line class="cls-14" x1="193.08" y1="105.57" x2="193.08" y2="87.57"/><line class="cls-14" x1="229.08" y1="105.57" x2="229.08" y2="87.57"/><line class="cls-14" x1="211.08" y1="87.57" x2="211.08" y2="69.57"/><line class="cls-14" x1="265.08" y1="177.57" x2="265.08" y2="159.57"/><line class="cls-14" x1="301.08" y1="177.57" x2="301.08" y2="159.57"/><line class="cls-14" x1="283.08" y1="159.57" x2="283.08" y2="141.57"/><line class="cls-14" x1="265.08" y1="141.57" x2="265.08" y2="123.57"/><line class="cls-14" x1="301.08" y1="141.57" x2="301.08" y2="123.57"/><line class="cls-14" x1="283.08" y1="123.57" x2="283.08" y2="105.57"/><line class="cls-14" x1="283.08" y1="87.57" x2="283.08" y2="69.57"/><rect class="cls-14" x="175.08" y="51.57" width="18" height="18"/><rect class="cls-14" x="229.08" y="51.57" width="18" height="18"/><rect class="cls-14" x="67.08" y="159.57" width="18" height="18"/><rect class="cls-14" x="121.08" y="159.57" width="18" height="18"/><rect class="cls-15" x="355.08" y="159.57" width="18" height="18"/><rect class="cls-15" x="409.08" y="159.57" width="18" height="18"/><rect class="cls-15" x="247.08" y="51.57" width="18" height="18"/><rect class="cls-15" x="301.08" y="51.57" width="18" height="18"/><line class="cls-16" x1="67.08" y1="195.57" x2="427.08" y2="195.57"/><line class="cls-16" x1="67.08" y1="177.57" x2="427.08" y2="177.57"/><line class="cls-16" x1="67.08" y1="213.57" x2="427.08" y2="213.57"/><line class="cls-16" x1="67.08" y1="231.57" x2="427.08" y2="231.57"/><line class="cls-16" x1="67.08" y1="249.57" x2="427.08" y2="249.57"/><line class="cls-16" x1="67.08" y1="267.57" x2="427.08" y2="267.57"/><line class="cls-16" x1="103.08" y1="177.57" x2="103.08" y2="195.57"/><line class="cls-16" x1="139.08" y1="177.57" x2="139.08" y2="195.57"/><line class="cls-16" x1="175.08" y1="177.57" x2="175.08" y2="195.57"/><line class="cls-16" x1="211.08" y1="177.57" x2="211.08" y2="195.57"/><line class="cls-16" x1="247.08" y1="177.57" x2="247.08" y2="195.57"/><line class="cls-16" x1="283.08" y1="177.57" x2="283.08" y2="195.57"/><line class="cls-16" x1="319.08" y1="177.57" x2="319.08" y2="195.57"/><line class="cls-16" x1="391.08" y1="177.57" x2="391.08" y2="195.57"/><line class="cls-16" x1="85.08" y1="195.57" x2="85.08" y2="213.57"/><line class="cls-16" x1="121.08" y1="195.57" x2="121.08" y2="213.57"/><line class="cls-16" x1="157.08" y1="195.57" x2="157.08" y2="213.57"/><line class="cls-16" x1="193.08" y1="195.57" x2="193.08" y2="213.57"/><line class="cls-16" x1="229.08" y1="195.57" x2="229.08" y2="213.57"/><line class="cls-16" x1="265.08" y1="195.57" x2="265.08" y2="213.57"/><line class="cls-16" x1="301.08" y1="195.57" x2="301.08" y2="213.57"/><line class="cls-16" x1="337.08" y1="195.57" x2="337.08" y2="213.57"/><line class="cls-16" x1="373.08" y1="195.57" x2="373.08" y2="213.57"/><line class="cls-16" x1="409.08" y1="195.57" x2="409.08" y2="213.57"/><line class="cls-16" x1="103.08" y1="213.57" x2="103.08" y2="231.57"/><line class="cls-16" x1="139.08" y1="213.57" x2="139.08" y2="231.57"/><line class="cls-16" x1="175.08" y1="213.57" x2="175.08" y2="231.57"/><line class="cls-16" x1="211.08" y1="213.57" x2="211.08" y2="231.57"/><line class="cls-16" x1="247.08" y1="213.57" x2="247.08" y2="231.57"/><line class="cls-16" x1="283.08" y1="213.57" x2="283.08" y2="231.57"/><line class="cls-16" x1="319.08" y1="213.57" x2="319.08" y2="231.57"/><line class="cls-16" x1="391.08" y1="213.57" x2="391.08" y2="231.57"/><line class="cls-16" x1="85.08" y1="231.57" x2="85.08" y2="249.57"/><line class="cls-16" x1="121.08" y1="231.57" x2="121.08" y2="249.57"/><line class="cls-16" x1="157.08" y1="231.57" x2="157.08" y2="249.57"/><line class="cls-16" x1="193.08" y1="231.57" x2="193.08" y2="249.57"/><line class="cls-16" x1="229.08" y1="231.57" x2="229.08" y2="249.57"/><line class="cls-16" x1="265.08" y1="231.57" x2="265.08" y2="249.57"/><line class="cls-16" x1="301.08" y1="231.57" x2="301.08" y2="249.57"/><line class="cls-16" x1="337.08" y1="231.57" x2="337.08" y2="249.57"/><line class="cls-16" x1="373.08" y1="231.57" x2="373.08" y2="249.57"/><line class="cls-16" x1="409.08" y1="231.57" x2="409.08" y2="249.57"/><line class="cls-16" x1="103.08" y1="249.57" x2="103.08" y2="267.57"/><line class="cls-16" x1="139.08" y1="249.57" x2="139.08" y2="267.57"/><line class="cls-16" x1="175.08" y1="249.57" x2="175.08" y2="267.57"/><line class="cls-16" x1="211.08" y1="249.57" x2="211.08" y2="267.57"/><line class="cls-16" x1="247.08" y1="249.57" x2="247.08" y2="267.57"/><line class="cls-16" x1="283.08" y1="249.57" x2="283.08" y2="267.57"/><line class="cls-16" x1="319.08" y1="249.57" x2="319.08" y2="267.57"/><line class="cls-16" x1="391.08" y1="249.57" x2="391.08" y2="267.57"/><line class="cls-16" x1="85.08" y1="267.57" x2="85.08" y2="285.57"/><line class="cls-16" x1="121.08" y1="267.57" x2="121.08" y2="285.57"/><line class="cls-16" x1="157.08" y1="267.57" x2="157.08" y2="285.57"/><line class="cls-16" x1="193.08" y1="267.57" x2="193.08" y2="285.57"/><line class="cls-16" x1="229.08" y1="267.57" x2="229.08" y2="285.57"/><line class="cls-16" x1="265.08" y1="267.57" x2="265.08" y2="285.57"/><line class="cls-16" x1="301.08" y1="267.57" x2="301.08" y2="285.57"/><line class="cls-16" x1="337.08" y1="267.57" x2="337.08" y2="285.57"/><line class="cls-16" x1="373.08" y1="267.57" x2="373.08" y2="285.57"/><line class="cls-16" x1="409.08" y1="267.57" x2="409.08" y2="285.57"/><line class="cls-16" x1="175.08" y1="87.57" x2="319.08" y2="87.57"/><line class="cls-16" x1="175.08" y1="69.57" x2="319.08" y2="69.57"/><line class="cls-16" x1="175.08" y1="105.57" x2="319.08" y2="105.57"/><line class="cls-16" x1="175.08" y1="123.57" x2="319.08" y2="123.57"/><line class="cls-16" x1="175.08" y1="141.57" x2="319.08" y2="141.57"/><line class="cls-16" x1="175.08" y1="159.57" x2="319.08" y2="159.57"/><line class="cls-16" x1="175.08" y1="177.57" x2="319.08" y2="177.57"/><line class="cls-16" x1="193.08" y1="177.57" x2="193.08" y2="159.57"/><line class="cls-16" x1="229.08" y1="177.57" x2="229.08" y2="159.57"/><line class="cls-16" x1="211.08" y1="159.57" x2="211.08" y2="141.57"/><line class="cls-16" x1="193.08" y1="141.57" x2="193.08" y2="123.57"/><line class="cls-16" x1="229.08" y1="141.57" x2="229.08" y2="123.57"/><line class="cls-16" x1="211.08" y1="123.57" x2="211.08" y2="105.57"/><line class="cls-16" x1="193.08" y1="105.57" x2="193.08" y2="87.57"/><line class="cls-16" x1="229.08" y1="105.57" x2="229.08" y2="87.57"/><line class="cls-16" x1="211.08" y1="87.57" x2="211.08" y2="69.57"/><line class="cls-16" x1="265.08" y1="177.57" x2="265.08" y2="159.57"/><line class="cls-16" x1="301.08" y1="177.57" x2="301.08" y2="159.57"/><line class="cls-16" x1="283.08" y1="159.57" x2="283.08" y2="141.57"/><line class="cls-16" x1="265.08" y1="141.57" x2="265.08" y2="123.57"/><line class="cls-16" x1="301.08" y1="141.57" x2="301.08" y2="123.57"/><line class="cls-16" x1="283.08" y1="123.57" x2="283.08" y2="105.57"/><line class="cls-16" x1="283.08" y1="87.57" x2="283.08" y2="69.57"/><path class="cls-17" d="M211.08,87.57h0a18,18,0,0,1,18,18v36a0,0,0,0,1,0,0h-36a0,0,0,0,1,0,0v-36a18,18,0,0,1,18-18Z"/><path class="cls-17" d="M283.08,87.57h0a18,18,0,0,1,18,18v36a0,0,0,0,1,0,0h-36a0,0,0,0,1,0,0v-36A18,18,0,0,1,283.08,87.57Z"/><path class="cls-17" d="M103.08,195.57h0a18,18,0,0,1,18,18v36a0,0,0,0,1,0,0h-36a0,0,0,0,1,0,0v-36A18,18,0,0,1,103.08,195.57Z"/><path class="cls-17" d="M319.08,195.57h0a18,18,0,0,1,18,18v36a0,0,0,0,1,0,0h-36a0,0,0,0,1,0,0v-36A18,18,0,0,1,319.08,195.57Z"/><path class="cls-17" d="M391.08,195.57h0a18,18,0,0,1,18,18v36a0,0,0,0,1,0,0h-36a0,0,0,0,1,0,0v-36A18,18,0,0,1,391.08,195.57Z"/><use id="New_Symbol_13-3" data-name="New Symbol 13" width="55.38" height="69.11" transform="matrix(-1.72, 0, 0, 1.72, 95.06, 196.63)" xlink:href="#New_Symbol_13"/><path class="cls-18" d="M211.08,195.57h0a36,36,0,0,1,36,36v54a0,0,0,0,1,0,0h-72a0,0,0,0,1,0,0v-54A36,36,0,0,1,211.08,195.57Z"/><path class="cls-13" d="M214.61,195.75c-1.16-.11-2.34-.18-3.53-.18h0a36,36,0,0,0-36,36v54h7.07v-54A36,36,0,0,1,214.61,195.75Z"/><g class="cls-19"><line class="cls-20" x1="232.22" y1="192.01" x2="232.22" y2="289.14"/><line class="cls-20" x1="211.08" y1="192.01" x2="211.08" y2="289.14"/><line class="cls-20" x1="189.94" y1="192.01" x2="189.94" y2="289.14"/></g><path class="cls-21" d="M283.08,28s-7,7-18,0-18,0-18,0V3.11s7-7,18,0,18,0,18,0Z"/><line class="cls-22" x1="247.08" y1="51.57" x2="247.08"/><circle class="cls-23" cx="365.65" cy="84.66" r="6.63"/><line class="cls-24" x1="377.77" y1="85.83" x2="385.37" y2="90.78"/><line class="cls-24" x1="377.16" y1="92.15" x2="387.44" y2="98.84"/><line class="cls-24" x1="376.77" y1="98.62" x2="371.63" y2="95.27"/><path id="_Path_12" data-name="&lt;Path&gt;" class="cls-25" d="M461.47,306.28c-56.73-10.54-60.45-29.7-84.59-38.8a43.12,43.12,0,0,0-30.78,0c-10.23,3.86-18.23,11.2-28.52,14.86a64.66,64.66,0,0,1-36.65,2c-8.32-2-16.52-5.76-25-4.94-16,1.54-39.43,32.37-55,28.35,3.42,6.59,72.52,17.6,97.41,17.77,33.86.22,66.31-5.45,99.58-8.92,14-1.46,28.24-5.5,41.76-9.21C442.56,306.58,461.05,306.2,461.47,306.28Z"/><circle class="cls-23" cx="130.98" cy="110.8" r="6.63"/><line class="cls-24" x1="118.85" y1="111.97" x2="111.25" y2="116.92"/><line class="cls-24" x1="119.46" y1="118.29" x2="109.19" y2="124.98"/><line class="cls-24" x1="119.86" y1="124.76" x2="125" y2="121.41"/><circle class="cls-23" cx="213.54" cy="13.59" r="6.63"/><line class="cls-24" x1="203.29" y1="7.01" x2="194.26" y2="6.19"/><line class="cls-24" x1="199.86" y1="12.35" x2="187.65" y2="11.25"/><line class="cls-24" x1="196.17" y1="17.67" x2="202.28" y2="18.22"/></symbol></defs><title>st_snowballstorm_villagebuilding</title><g id="Layer_2" data-name="Layer 2"><g id="Layer_1-2" data-name="Layer 1"><use width="461.47" height="325.5" xlink:href="#Snowball_Storm"/></g></g></svg>