<svg xmlns="http://www.w3.org/2000/svg" xmlns:xlink="http://www.w3.org/1999/xlink" width="500.35" height="196.24" viewBox="0 0 500.35 196.24"><defs><linearGradient id="a" x1="316.68" y1="167.04" x2="316.68" y2="186.83" gradientUnits="userSpaceOnUse"><stop offset="0.22" stop-color="#fff"/><stop offset="0.33" stop-color="#fff" stop-opacity="0.67"/><stop offset="0.79" stop-color="#fff" stop-opacity="0"/></linearGradient><linearGradient id="b" x1="414.92" y1="164.44" x2="414.92" y2="184.23" xlink:href="#a"/><linearGradient id="c" x1="85.42" y1="164.44" x2="85.42" y2="184.23" xlink:href="#a"/><clipPath id="d"><path d="M295.71,39.71H121.09l9.37-12.91a2.1,2.1,0,0,1,1.7-.87H284.65a2.1,2.1,0,0,1,1.7.87Z" style="fill:none"/></clipPath><symbol id="e" viewBox="0 0 286.89 41.59"><ellipse cx="89.66" cy="40.19" rx="1.1" ry="1.2" style="fill:#f6f3ec"/><path d="M283.43,32.65A3.63,3.63,0,0,0,280,36.42h6.92A3.63,3.63,0,0,0,283.43,32.65Z" style="fill:#f6f3ec"/><path d="M272.76,33.6H269c-1.86-2.62-7.58-6.09-10-6.09H241.17c-4.51,0-4.08-2.62-3.93-3.51s.81-2.09,3.84-2.09h10.62a1.14,1.14,0,0,0,.64-2.07c-3.73-2.59-6.32-4.33-9.27-4.33H115.26a5.66,5.66,0,0,0-4.9,2.71c-1.11,1.84-4.31,7.8-6.51,9.54A4.09,4.09,0,0,0,102.36,31a4.22,4.22,0,0,0,1.05,2.81A3.53,3.53,0,0,0,106,35l4.46.1c2.37-1.23,2.26,1.18,0,1.93H96.16c-2.34,0-4.24,1-4.24,2.28s1.9,2.28,4.24,2.28H247.42c1.05,0,2-.48,3.78-1.26h8.86a1.8,1.8,0,0,0,1.22-3.12h11.47a1.8,1.8,0,1,0,0-3.61Z" style="fill:#f6f3ec"/><path d="M52.08,32.53a2.87,2.87,0,1,1,5.73,0Z" style="fill:#f6f3ec"/><path d="M74.8,33.8a2,2,0,1,1,3.89,0" style="fill:#f6f3ec"/><path d="M233.11,25.77a3.47,3.47,0,1,1,6.92,0Z" style="fill:#d7d7d7"/><path d="M115.67,33.29a2.44,2.44,0,1,1,4.85,0Z" style="fill:#d7d7d7"/><path d="M268,24.66h-7.88a1.5,1.5,0,1,1,0-3H268a1.5,1.5,0,1,1,0,3Z" style="fill:#d7d7d7"/><path d="M236,32.86a3.47,3.47,0,1,1,6.92,0Z" style="fill:#d7d7d7"/><path d="M0,21.19A3.07,3.07,0,0,1,2.93,18a3.07,3.07,0,0,1,2.93,3.2Z" style="fill:#fff"/><path d="M194.55,11.87C191.12,5.23,180,0,173.49,0H74.69c-2,0-6.84,2.61-8.51,4.13-2,1.77-11.71,6.4-14.32,7.14a2.74,2.74,0,0,0-.38,0c-1.67,0-4.88,3.22-4.88,5s3.21,1.55,4.88,1.55v0l8.26.19c2.51,0,2.51,4.25,0,4.25H35.13c-1.31,0-4.21,2.07-4.21,3.5s2.9,1.67,4.21,1.67H203.76Z" style="fill:#fff"/><path d="M34.93,17.32a3.71,3.71,0,0,0-3.54,3.86h7.08A3.71,3.71,0,0,0,34.93,17.32Z" style="fill:#fff"/><path d="M34.93,11.59h5.5a3.71,3.71,0,0,0-3.54-3.86A3.46,3.46,0,0,0,34,9.4a2.46,2.46,0,0,0-1.65-.66,2.74,2.74,0,0,0-2.61,2.85h5.22Z" style="fill:#fff"/><ellipse cx="25.25" cy="22.48" rx="1.99" ry="2.17" style="fill:#fff"/><path d="M37.86,15.48h5.38a2.7,2.7,0,1,0-5.38,0Z" style="fill:#fff"/><path d="M173.43,21.58a2.84,2.84,0,1,1,5.66,0Z" style="fill:#d7d7d7"/><path d="M212.68,34.07a3.56,3.56,0,1,1,7.08,0Z" style="fill:#fff"/><path d="M160.2,32.17a2.8,2.8,0,1,1,5.57,0Z" style="fill:#fff"/><path d="M65.1,22a2.49,2.49,0,1,1,5,0Z" style="fill:#d7d7d7"/><path d="M210.9,11.58h-8.06a1.54,1.54,0,0,1,0-3.08h8.06a1.54,1.54,0,1,1,0,3.08Z" style="fill:#d7d7d7"/><path d="M206,19.79h15.12a1.85,1.85,0,0,0,0-3.69H206a1.85,1.85,0,0,0,0,3.69Z" style="fill:#fff"/><path d="M226.24,20.91H199.11a2.49,2.49,0,0,0-1.7,4.32H185.32a2.5,2.5,0,0,0,0,5h27.13a2.49,2.49,0,0,0,1.7-4.32h12.09a2.5,2.5,0,0,0,0-5Z" style="fill:#fff"/><path d="M184.39,25.09a3.56,3.56,0,1,1,7.08,0Z" style="fill:#d7d7d7"/><path d="M82.74,30a3.47,3.47,0,1,1,6.92,0Z" style="fill:#f6f3ec"/><path d="M84.65,23.16a3.47,3.47,0,1,1,6.92,0Z" style="fill:#f6f3ec"/><path d="M81.1,23.16a2.56,2.56,0,1,1,5.1,0Z" style="fill:#f6f3ec"/><path d="M155.9,27.54a3.56,3.56,0,1,1,7.08,0Z" style="fill:#f6f3ec"/><path d="M152.27,27.54a2.62,2.62,0,1,1,5.22,0Z" style="fill:#f6f3ec"/><path d="M137.75,28.37a4.14,4.14,0,1,1,8.25,0" style="fill:#f6f3ec"/></symbol></defs><title>wrapbattle_house</title><path d="M157.47,4.57h0a1.8,1.8,0,0,1,1.8,1.8v8.06a0,0,0,0,1,0,0h-3.6a0,0,0,0,1,0,0V6.37A1.8,1.8,0,0,1,157.47,4.57Z" transform="translate(314.93 19) rotate(-180)" style="fill:#f2f2f2"/><rect x="185.26" y="6.32" width="173.88" height="5.22" style="fill:#7d8485"/><rect x="360.71" y="12.1" width="13.13" height="4.33" style="fill:#666"/><rect x="341.31" y="32.27" width="55.5" height="6.17" style="fill:#666"/><rect x="326.92" y="37.63" width="84.43" height="4.48" style="fill:#1a1a1a"/><rect x="326.92" y="37.63" width="67.68" height="4.48" style="fill:#333"/><rect x="327.73" y="17.93" width="81.08" height="14.67" style="fill:#7d8485"/><polygon points="408.81 18.04 327.73 18.04 330.73 16.26 405.81 16.26 408.81 18.04" style="fill:#999"/><rect x="327.73" y="28.58" width="81.08" height="4.02" style="fill:#b3b3b3"/><polygon points="374.43 13.61 357.09 13.61 357.09 0.73 374.43 0.82 374.43 13.61" style="fill:#b3b3b3"/><rect x="373.6" y="0.83" width="5.31" height="12.78" style="fill:#7d8485"/><rect x="394.05" y="41.41" width="34.94" height="14.27" style="fill:#666"/><rect x="107.3" y="34.15" width="7.69" height="8.11" style="fill:gray"/><rect x="374.86" y="48.85" width="49.38" height="117.51" style="fill:#333"/><use width="286.89" height="41.59" transform="translate(12.18 138.25)" xlink:href="#e"/><ellipse cx="264.58" cy="171.92" rx="186.17" ry="12.37" style="opacity:0.1"/><rect x="107.07" y="51.83" width="281.28" height="118.99" style="fill:#4d4d4d"/><rect x="204.66" y="77.14" width="92.73" height="21.35" style="fill:#ace1ff"/><rect x="392.6" y="164.29" width="36.32" height="6.53" transform="translate(821.53 335.12) rotate(180)" style="fill:#1a1a1a"/><rect x="278.98" y="164.29" width="113.62" height="6.53" style="fill:#333"/><rect x="102.82" y="164.29" width="109.85" height="6.53" style="fill:#333"/><polygon points="388.35 83.89 107.07 57.12 107.07 57.12 388.35 57.12 388.35 83.89" style="opacity:0.1"/><polygon points="388.35 165.66 107.07 57.28 107.07 57.28 388.35 57.28 388.35 165.66" style="opacity:0.1"/><polyline points="101.37 41.51 101.37 57.12 394.05 57.12 394.05 41.51" style="fill:#7d8485"/><polyline points="101.37 41.51 101.37 43.22 394.05 43.22 394.05 41.51" style="fill:#fff;opacity:0.25"/><rect x="233.58" y="136.76" width="16.95" height="34.06" style="fill:#c1272d"/><rect x="246.36" y="150.77" width="2.46" height="6.04" style="fill:#fff"/><rect x="251.53" y="136.76" width="16.94" height="34.06" style="fill:#c1272d"/><rect x="253.22" y="150.77" width="2.46" height="6.04" style="fill:#fff"/><rect x="193.04" y="71.84" width="116.1" height="6.53" style="fill:#666"/><rect x="193.04" y="96.55" width="116.1" height="6.53" style="fill:#666"/><rect x="193.04" y="84.49" width="116.1" height="6.53" style="fill:#666"/><rect x="193.04" y="71.84" width="113.96" height="6.53" style="fill:#999"/><rect x="193.04" y="96.55" width="113.96" height="6.53" style="fill:#999"/><rect x="193.04" y="84.49" width="113.96" height="6.53" style="fill:#999"/><path d="M402.11,178.94c-39.33-7.31-39.16-16.62-55.89-22.92a29.9,29.9,0,0,0-21.34,0c-7.1,2.67-12.64,7.77-19.77,10.3a44.8,44.8,0,0,1-25.41,1.37c-5.77-1.41-11.45-4-17.36-3.42-11.07,1.07-20.3,13-31.07,10.17,2.37,4.57,6.32,8.14,10.63,10.95,14.46,9.42,32.61,10.74,49.86,10.85,23.48.16,46-3.77,69-6.18,9.69-1,19.58-3.81,29-6.38C391.75,183.13,401.82,178.89,402.11,178.94Z" style="fill:url(#a)"/><path d="M500.35,176.34C461,169,461.19,159.72,444.46,153.42a29.9,29.9,0,0,0-21.34,0c-7.1,2.67-12.64,7.77-19.77,10.3a44.8,44.8,0,0,1-25.41,1.37c-5.77-1.41-11.45-4-17.36-3.42-11.07,1.07-20.3,13-31.07,10.17,2.37,4.57,6.32,8.14,10.63,10.95,14.46,9.42,32.61,10.74,49.86,10.85,23.48.16,46-3.77,69-6.18,9.69-1,19.58-3.81,29-6.38C490,180.53,500.06,176.29,500.35,176.34Z" style="fill:url(#b)"/><path d="M170.85,176.34C131.52,169,131.69,159.72,115,153.42a29.9,29.9,0,0,0-21.34,0c-7.1,2.67-12.64,7.77-19.77,10.3a44.8,44.8,0,0,1-25.41,1.37c-5.77-1.41-11.45-4-17.36-3.42C20,162.73,10.77,174.62,0,171.83c2.37,4.57,6.32,8.14,10.63,10.95,14.46,9.42,32.61,10.74,49.86,10.85,23.48.16,46-3.77,69-6.18,9.69-1,19.58-3.81,29-6.38C160.49,180.53,170.56,176.29,170.85,176.34Z" style="fill:url(#c)"/><rect x="394.05" y="42.91" width="34.94" height="14.27" style="fill:#414540"/><path d="M295.71,39.71H121.09l9.37-12.91a2.1,2.1,0,0,1,1.7-.87H284.65a2.1,2.1,0,0,1,1.7.87Z" style="fill:#1a1a1a"/><path d="M208.4,16.78h0a1.8,1.8,0,0,1,1.8,1.8v8.06a0,0,0,0,1,0,0h-3.6a0,0,0,0,1,0,0V18.58a1.8,1.8,0,0,1,1.8-1.8Z" style="fill:#f2f2f2"/><rect x="119.69" y="39.25" width="177.42" height="2.55" style="fill:#e6e6e6"/><g style="clip-path:url(#d)"><rect x="122.97" y="24.49" width="171.16" height="3.78" style="fill:#333"/><polygon points="303.02 41.73 126.45 26.25 126.45 26.25 303.02 26.25 303.02 41.73" style="opacity:0.1"/><rect x="122.97" y="32.7" width="171.16" height="0.93" style="fill:#333"/><rect x="242.76" y="25.71" width="13.86" height="2.36" transform="translate(499.39 53.78) rotate(180)" style="fill:#fff;opacity:0.1"/><rect x="245.98" y="25.71" width="7.43" height="2.36" transform="translate(499.39 53.78) rotate(180)" style="fill:#fff;opacity:0.47000000000000003"/><rect x="242.76" y="32.66" width="13.86" height="0.95" transform="translate(499.39 66.27) rotate(180)" style="fill:#fff;opacity:0.1"/><rect x="246.74" y="32.66" width="5.92" height="0.95" transform="translate(499.39 66.27) rotate(180)" style="fill:#fff;opacity:0.4"/></g><circle cx="131.13" cy="30.34" r="1.09" style="fill:#666"/><circle cx="135" cy="30.34" r="1.09" style="fill:#666"/><circle cx="138.86" cy="30.34" r="1.09" style="fill:#666"/><circle cx="142.72" cy="30.34" r="1.09" style="fill:#666"/><circle cx="146.59" cy="30.34" r="1.09" style="fill:#666"/><circle cx="150.45" cy="30.34" r="1.09" style="fill:#666"/><circle cx="154.31" cy="30.34" r="1.09" style="fill:#666"/><circle cx="158.18" cy="30.34" r="1.09" style="fill:#666"/><circle cx="162.04" cy="30.34" r="1.09" style="fill:#666"/><circle cx="165.9" cy="30.34" r="1.09" style="fill:#666"/><circle cx="169.77" cy="30.34" r="1.09" style="fill:#666"/><circle cx="173.63" cy="30.34" r="1.09" style="fill:#666"/><circle cx="177.49" cy="30.34" r="1.09" style="fill:#666"/><circle cx="181.36" cy="30.34" r="1.09" style="fill:#666"/><circle cx="185.22" cy="30.34" r="1.09" style="fill:#666"/><circle cx="189.08" cy="30.34" r="1.09" style="fill:#666"/><circle cx="192.95" cy="30.34" r="1.09" style="fill:#666"/><circle cx="196.81" cy="30.34" r="1.09" style="fill:#666"/><circle cx="200.67" cy="30.34" r="1.09" style="fill:#666"/><circle cx="204.54" cy="30.34" r="1.09" style="fill:#666"/><circle cx="208.4" cy="30.34" r="1.09" style="fill:#666"/><circle cx="212.27" cy="30.34" r="1.09" style="fill:#666"/><circle cx="216.13" cy="30.34" r="1.09" style="fill:#666"/><circle cx="219.99" cy="30.34" r="1.09" style="fill:#666"/><circle cx="223.86" cy="30.34" r="1.09" style="fill:#666"/><circle cx="227.72" cy="30.34" r="1.09" style="fill:#666"/><circle cx="231.58" cy="30.34" r="1.09" style="fill:#666"/><circle cx="235.45" cy="30.34" r="1.09" style="fill:#666"/><circle cx="239.31" cy="30.34" r="1.09" style="fill:#666"/><circle cx="243.17" cy="30.34" r="1.09" style="fill:#666"/><circle cx="247.04" cy="30.34" r="1.09" style="fill:#666"/><circle cx="250.9" cy="30.34" r="1.09" style="fill:#666"/><circle cx="254.76" cy="30.34" r="1.09" style="fill:#666"/><circle cx="258.63" cy="30.34" r="1.09" style="fill:#666"/><circle cx="262.49" cy="30.34" r="1.09" style="fill:#666"/><circle cx="266.35" cy="30.34" r="1.09" style="fill:#666"/><circle cx="270.22" cy="30.34" r="1.09" style="fill:#666"/><circle cx="274.08" cy="30.34" r="1.09" style="fill:#666"/><circle cx="277.94" cy="30.34" r="1.09" style="fill:#666"/><circle cx="281.81" cy="30.34" r="1.09" style="fill:#666"/><circle cx="285.67" cy="30.34" r="1.09" style="fill:#666"/><circle cx="127.25" cy="36.72" r="1.09" style="fill:#666"/><circle cx="131.11" cy="36.72" r="1.09" style="fill:#666"/><circle cx="134.98" cy="36.72" r="1.09" style="fill:#666"/><circle cx="138.84" cy="36.72" r="1.09" style="fill:#666"/><circle cx="142.71" cy="36.72" r="1.09" style="fill:#666"/><circle cx="146.57" cy="36.72" r="1.09" style="fill:#666"/><circle cx="150.43" cy="36.72" r="1.09" style="fill:#666"/><circle cx="154.3" cy="36.72" r="1.09" style="fill:#666"/><circle cx="158.16" cy="36.72" r="1.09" style="fill:#666"/><circle cx="162.02" cy="36.72" r="1.09" style="fill:#666"/><circle cx="165.89" cy="36.72" r="1.09" style="fill:#666"/><circle cx="169.75" cy="36.72" r="1.09" style="fill:#666"/><circle cx="173.61" cy="36.72" r="1.09" style="fill:#666"/><circle cx="177.48" cy="36.72" r="1.09" style="fill:#666"/><circle cx="181.34" cy="36.72" r="1.09" style="fill:#666"/><circle cx="185.2" cy="36.72" r="1.09" style="fill:#666"/><circle cx="189.07" cy="36.72" r="1.09" style="fill:#666"/><circle cx="192.93" cy="36.72" r="1.09" style="fill:#666"/><circle cx="196.79" cy="36.72" r="1.09" style="fill:#666"/><circle cx="200.66" cy="36.72" r="1.09" style="fill:#666"/><circle cx="204.52" cy="36.72" r="1.09" style="fill:#666"/><circle cx="208.38" cy="36.72" r="1.09" style="fill:#666"/><circle cx="212.25" cy="36.72" r="1.09" style="fill:#666"/><circle cx="216.11" cy="36.72" r="1.09" style="fill:#666"/><circle cx="219.98" cy="36.72" r="1.09" style="fill:#666"/><circle cx="223.84" cy="36.72" r="1.09" style="fill:#666"/><circle cx="227.7" cy="36.72" r="1.09" style="fill:#666"/><circle cx="231.57" cy="36.72" r="1.09" style="fill:#666"/><circle cx="235.43" cy="36.72" r="1.09" style="fill:#666"/><circle cx="239.29" cy="36.72" r="1.09" style="fill:#666"/><circle cx="243.16" cy="36.72" r="1.09" style="fill:#666"/><circle cx="247.02" cy="36.72" r="1.09" style="fill:#666"/><circle cx="250.88" cy="36.72" r="1.09" style="fill:#666"/><circle cx="254.75" cy="36.72" r="1.09" style="fill:#666"/><circle cx="258.61" cy="36.72" r="1.09" style="fill:#666"/><circle cx="262.47" cy="36.72" r="1.09" style="fill:#666"/><circle cx="266.34" cy="36.72" r="1.09" style="fill:#666"/><circle cx="270.2" cy="36.72" r="1.09" style="fill:#666"/><circle cx="274.06" cy="36.72" r="1.09" style="fill:#666"/><circle cx="277.93" cy="36.72" r="1.09" style="fill:#666"/><circle cx="281.79" cy="36.72" r="1.09" style="fill:#666"/><circle cx="285.67" cy="36.72" r="1.09" style="fill:#666"/><circle cx="289.55" cy="36.72" r="1.09" style="fill:#666"/><rect x="105.48" y="31.95" width="11.33" height="7.36" style="fill:#1a1a1a"/><rect x="105.48" y="30.62" width="11.33" height="1.44" style="opacity:0.25"/><polygon points="115.02 41.48 107.26 39.38 107.26 39.38 115.02 39.38 115.02 41.48" style="opacity:0.1"/><polygon points="396.87 37.41 340.93 32.82 340.93 32.82 396.87 32.82 396.87 37.41" style="opacity:0.1"/><polygon points="373.84 15.22 360.73 13.63 360.73 13.63 373.84 13.63 373.84 15.22" style="opacity:0.1"/><rect x="150.79" y="1.74" width="34.75" height="7.97" style="fill:#b3b3b3"/><polygon points="183.54 0 152.79 0 150.79 1.91 185.54 1.91 183.54 0" style="fill:#7d8485"/><polygon points="172.63 11.63 185.54 11.63 185.54 9.71 170.67 9.71 172.63 11.63" style="fill:#7d8485"/><polygon points="159.31 11.22 155.59 9.74 155.59 9.74 159.31 9.74 159.31 11.22" style="opacity:0.1"/><rect x="121.98" y="121.43" width="15" height="32.33" style="fill:#404040"/><rect x="141.65" y="121.43" width="15" height="32.33" style="fill:#333"/><rect x="342.98" y="121.43" width="15" height="32.33" style="fill:#404040"/><rect x="362.65" y="121.43" width="15" height="32.33" style="fill:#333"/><polygon points="309.21 106.96 193.44 103.2 193.44 103.2 309.21 103.2 309.21 106.96" style="opacity:0.1"/><polygon points="309.21 94.76 193.44 91 193.44 91 309.21 91 309.21 94.76" style="opacity:0.1"/><polygon points="309.21 82.14 193.44 78.38 193.44 78.38 309.21 78.38 309.21 82.14" style="opacity:0.1"/><rect x="367.12" y="65.65" width="3.46" height="44.18" rx="1.73" ry="1.73" style="fill:#1a1a1a"/><rect x="347.95" y="64.98" width="3.46" height="44.18" rx="1.73" ry="1.73" style="fill:#1a1a1a"/><rect x="361.58" y="97.85" width="15.38" height="4.96" style="fill:#999"/><polygon points="376.96 97.85 367.8 101.53 367.8 97.17 375.77 97.17 376.96 97.85" style="fill:#999"/><polygon points="369.63 102.81 361.32 102.81 360.42 102.14 368.48 102.13 369.63 102.81" style="fill:#999"/><rect x="360.42" y="97.17" width="15.35" height="4.96" style="fill:#ccc"/><rect x="342.06" y="71.59" width="15.38" height="4.96" style="fill:#999"/><polygon points="357.44 71.59 348.27 75.27 348.27 70.91 356.25 70.91 357.44 71.59" style="fill:#999"/><polygon points="350.1 76.55 341.8 76.55 340.9 75.88 348.95 75.88 350.1 76.55" style="fill:#999"/><rect x="340.9" y="70.91" width="15.35" height="4.96" style="fill:#ccc"/><polygon points="357.42 81.86 341.51 76.68 341.51 76.68 357.42 76.68 357.42 81.86" style="opacity:0.15"/><polygon points="128.97 102.12 121.77 96.94 121.77 96.94 128.97 96.94 128.97 102.12" style="opacity:0.15"/><polygon points="140.43 102.12 133.23 96.94 133.23 96.94 140.43 96.94 140.43 102.12" style="opacity:0.15"/><polygon points="128.89 96.88 121.75 96.88 124.04 64.08 128.89 64.08 128.89 96.88" style="fill:gray"/><polygon points="128.04 80.49 121.23 80.49 120.72 64.08 127.53 64.08 128.04 80.49" style="fill:#666"/><polygon points="128.04 80.53 121.23 80.53 118.43 93.49 125.24 93.49 128.04 80.53" style="fill:#b3b3b3"/><polygon points="140.44 96.88 135.59 96.88 133.29 64.08 140.44 64.08 140.44 96.88" style="fill:gray"/><polygon points="139.58 80.53 132.77 80.53 132.27 96.94 139.08 96.94 139.58 80.53" style="fill:#b3b3b3"/><polygon points="137.49 67.97 129.97 66.61 133.29 64.08 137.49 64.08 137.49 67.97" style="fill:gray"/><polygon points="139.58 80.49 132.77 80.49 129.97 66.61 136.78 66.61 139.58 80.49" style="fill:#666"/><polygon points="127.82 96.87 121.75 96.88 118.35 93.28 127.39 93.28 127.82 96.87" style="fill:gray"/><ellipse cx="146.57" cy="70.42" rx="3" ry="2.93" style="fill:#fff"/><circle cx="146.49" cy="70.42" r="2.93" style="fill:#ccc"/><circle cx="146.49" cy="70.42" r="1.94" style="fill:#387d3c;stroke:#388e3c;stroke-miterlimit:10;stroke-width:0.573957717610963px"/><circle cx="147.21" cy="69.48" r="0.5" style="fill:#fff;opacity:0.49"/><circle cx="147.16" cy="69.33" r="0.31" style="fill:#fff;opacity:0.49"/><ellipse cx="146.57" cy="78.17" rx="3" ry="2.93" style="fill:#fff"/><circle cx="146.49" cy="78.17" r="2.93" style="fill:#ccc"/><circle cx="146.49" cy="78.17" r="1.94" style="fill:#c1272d;stroke:#d45e5e;stroke-miterlimit:10;stroke-width:0.573957717610963px"/><circle cx="147.21" cy="77.23" r="0.5" style="fill:#fff;opacity:0.49"/><circle cx="147.16" cy="77.08" r="0.31" style="fill:#fff;opacity:0.49"/></svg>