<svg id="slice" xmlns="http://www.w3.org/2000/svg" viewBox="-118 256.3 373.3 281.7"><style>.st0{fill:#fff}.st1{opacity:.48}.st2{fill:#75cef4;enable-background:new}.st2,.st3{opacity:.5}.st3,.st4,.st5{enable-background:new}.st3{fill:#00bff0}.st4{opacity:.48;fill:#75cef4}.st5{opacity:.17;fill:#fff}.st6{fill:url(#SVGID_1_)}.st7{fill:url(#SVGID_2_)}.st8{fill:#ffdf8a}.st9{fill:#e64436}.st10{fill:#333}.st11{fill:#8f4293}.st12{fill:#00b2ee}.st13{fill:gray}.st14{fill:#ffd400}.st15{fill:#f27b20}</style><g id="XMLID_968_"><path id="XMLID_969_" class="st0" d="M237.9 527.6c-1.2-.9-3.6-1.2-5.6-.8-2.7.6-3.7 2.2-2 3.3 1.2.9 3.6 1.2 5.6.8 2.7-.6 3.7-2.2 2-3.3z"/></g><g id="XMLID_965_"><path id="XMLID_966_" class="st0" d="M254.4 524.9c-1.4-1-4-1.3-6.2-.9-3 .6-4.1 2.4-2.2 3.7 1.4 1 4 1.3 6.2.9 3-.6 4.1-2.4 2.2-3.7z"/></g><path class="st0" d="M242 521.9h-41.6c0-6.8 5.5-12.4 12.4-12.4 4.5 0 8.4 2.4 10.6 5.9 1.9-2.4 4.9-4 8.2-4 5.7 0 10.4 4.7 10.4 10.5z"/><g id="XMLID_735_"><g id="XMLID_737_"><g id="XMLID_740_" class="st1"><path id="XMLID_742_" class="st2" d="M-24.5 511.4l6.8-123.3 4.9-10.5 1.4-72.7 36.6-23.5 19.9-22.6h31.7l25.5-2.5 70.4 43.4 26.7 6 12 102.7 5.7 103.7-241.6-.7z"/><path id="XMLID_741_" class="st3" d="M-13.4 511L7.9 381.7l28.9 9 .7-61.3 49.4 50.8 58-69.2 6.5 77.4 21.1-13.8 40.2 137.5-226.1-1.1z"/></g><path id="XMLID_739_" class="st2" d="M-24.5 511.4l6.8-123.3L-6.1 304l50.5-36.4 57.9-11.3 70.4 43.4 26.7 6 12 102.7 5.7 103.7-241.6-.7z"/><path id="XMLID_738_" class="st4" d="M-24.5 511.4l129-123.3-2.2-131.8 79.6 21.3 17.5 28.1 12 102.7 5.7 103.7-241.6-.7z"/></g><path id="XMLID_736_" class="st5" d="M-13.5 357.4l7.4-53.4 52.5-44.5 24.3 21.7L63.8 413l-77.3-55.6z"/></g><linearGradient id="SVGID_1_" gradientUnits="userSpaceOnUse" x1="48.181" y1="319.942" x2="48.181" y2="264.252" gradientTransform="matrix(1 0 0 -1 0 796.6)"><stop offset=".073" stop-color="#f6f3ec"/><stop offset=".624" stop-color="#f6f3ec"/><stop offset="1" stop-color="#f6f3ec" stop-opacity="0"/></linearGradient><path class="st6" d="M135.3 535c-63.4-36.8-67.2-53.8-101.7-65.8-9.1-3.2-17.5-4.4-24.9-4.2-7.5-.2-15.8 1.1-24.9 4.2-18.3 6.1-19.3 32.2-22.7 60.1l174.2 5.7z"/><linearGradient id="SVGID_2_" gradientUnits="userSpaceOnUse" x1="152.1" y1="307.816" x2="152.1" y2="266.996" gradientTransform="matrix(1 0 0 -1 0 796.6)"><stop offset=".073" stop-color="#FFF"/><stop offset=".624" stop-color="#FFF"/><stop offset="1" stop-color="#FFF" stop-opacity="0"/></linearGradient><path class="st7" d="M244.9 531.6c-46.5-27-49.3-39.4-74.5-48.2-6.7-2.3-12.8-3.2-18.3-3.1-5.5-.1-11.6.8-18.3 3.1-25.3 8.8-28.1 21.3-74.5 48.2h185.6z"/><g id="XMLID_731_"><path id="XMLID_734_" class="st0" d="M-18.1 538c0-4.8 3.9-8.7 8.7-8.7s8.7 3.9 8.7 8.7"/><path class="st0" d="M94.6 521.8H44.9c0-7.5 6.1-13.6 13.6-13.6 4.6 0 8.7 2.3 11.2 5.8 2.5-3.5 6.5-5.8 11.2-5.8 7.6 0 13.7 6.1 13.7 13.6z"/></g><circle class="st8" cx="-9.8" cy="492.5" r="1.3"/><circle class="st8" cx="2.1" cy="492.6" r="1.3"/><path class="st9" d="M-6.3 481.7s2.7-5.7 5.2-6.9c0 0-1.3 5.3.1 7l-5.3-.1z"/><path class="st8" d="M-.3 484.8c0 1.8-1.5 3.3-3.3 3.3s-3.3-1.5-3.3-3.3 1.5-3.3 3.3-3.3c1.9 0 3.3 1.4 3.3 3.3z"/><path class="st0" d="M.2 482.4c0 .2-.2.4-.4.4h-6.6c-.2 0-.4-.2-.4-.4v-.8c0-.2.2-.4.4-.4h6.6c.2 0 .4.2.4.4v.8z"/><circle class="st10" cx="-5" cy="484.3" r=".6"/><circle class="st10" cx="-2.3" cy="484.3" r=".6"/><path class="st9" d="M-7.1 492.5v-1.1c0-1.8 1.5-3.3 3.3-3.3s3.3 1.5 3.3 3.3v1.1"/><path class="st0" d="M-4 488.3h.6v5.2H-4v-5.2z"/><circle class="st0" cx="-.6" cy="474.3" r=".7"/><path class="st8" d="M-6.9 484.1l-1.1-1.5s-.6 3.9 1.5 3.4l-.4-1.9zm6.3 0l1.1-1.5s.6 3.9-1.5 3.4l.4-1.9z"/><circle class="st8" cx="134.2" cy="485.2" r="1.3"/><circle class="st8" cx="146.1" cy="485.3" r="1.3"/><path class="st11" d="M137.6 474.4s2.7-5.7 5.2-6.9c0 0-1.3 5.3.1 7l-5.3-.1z"/><path class="st8" d="M143.7 477.5c0 1.8-1.5 3.3-3.3 3.3s-3.3-1.5-3.3-3.3c0-1.8 1.5-3.3 3.3-3.3s3.3 1.4 3.3 3.3z"/><path class="st0" d="M144.2 475.1c0 .2-.2.4-.4.4h-6.6c-.2 0-.4-.2-.4-.4v-.8c0-.2.2-.4.4-.4h6.6c.2 0 .4.2.4.4v.8z"/><circle class="st10" cx="138.9" cy="477" r=".6"/><circle class="st10" cx="141.7" cy="477" r=".6"/><path class="st11" d="M136.9 485.3v-1.1c0-1.8 1.5-3.3 3.3-3.3s3.3 1.5 3.3 3.3v1.1"/><path class="st0" d="M139.9 481h.6v5.2h-.6V481z"/><circle class="st0" cx="143.4" cy="467" r=".7"/><path class="st8" d="M137 476.8l-1.1-1.5s-.6 3.9 1.5 3.4l-.4-1.9zm6.4 0l1.1-1.5s.6 3.9-1.5 3.4l.4-1.9z"/><circle class="st8" cx="20.5" cy="492.5" r="1.3"/><circle class="st8" cx="8.6" cy="492.5" r="1.3"/><path class="st12" d="M17 481.7s-2.7-5.7-5.2-6.9c0 0 1.3 5.3-.1 7l5.3-.1z"/><path class="st8" d="M11 484.7c0 1.8 1.5 3.3 3.3 3.3s3.3-1.5 3.3-3.3-1.5-3.3-3.3-3.3-3.3 1.5-3.3 3.3z"/><path class="st0" d="M10.5 482.4c0 .2.2.4.4.4h6.6c.2 0 .4-.2.4-.4v-.8c0-.2-.2-.4-.4-.4h-6.6c-.2 0-.4.2-.4.4v.8z"/><circle class="st10" cx="15.7" cy="484.3" r=".6"/><circle class="st10" cx="13" cy="484.3" r=".6"/><path class="st12" d="M17.8 492.5v-1.1c0-1.8-1.5-3.3-3.3-3.3s-3.3 1.5-3.3 3.3v1.1"/><path class="st0" d="M14.2 488.3h.6v5.2h-.6v-5.2z"/><circle class="st0" cx="11.3" cy="474.2" r=".7"/><path class="st8" d="M17.6 484l1.1-1.5s.6 3.9-1.5 3.4l.4-1.9zm-6.3 0l-1.1-1.5s-.6 3.9 1.5 3.4l-.4-1.9z"/><path class="st13" d="M60.7 495.3s3.2 2.2 5.9 1.2c0 0 .2-2.4-3.1-5.1l-1.2 1.7-16.9-12.2-.3.4L62 493.5l-1.3 1.8z"/><path class="st11" d="M62.1 480.3s-1.4-6.4-2.7-8.8c0 0-.4 4.3-2.5 4.8l5.2 4z"/><path class="st8" d="M60 482.6c-1.1 1.5-3.1 1.9-4.6.8s-1.9-3.1-.8-4.6 3.1-1.9 4.6-.8c1.5 1 1.9 3.1.8 4.6z"/><path class="st10" d="M60.3 479.2c-.2-.5-.6-.9-1-1.2-1.5-1.1-3.6-.7-4.6.8-.5.7-.7 1.4-.6 2.2 3 1.1 5.2-.8 6.2-1.8z"/><path class="st8" d="M57.6 481.9v-3s-2.8 2.8-.7 3.6l.7-.6z"/><path class="st0" d="M61.8 480.9c-.1.2-.4.2-.6.1l-5.4-3.8c-.2-.1-.2-.4-.1-.6l.5-.7c.1-.2.4-.2.6-.1l5.4 3.8c.2.1.2.4.1.6l-.5.7z"/><circle class="st10" cx="59.3" cy="481.5" r=".6"/><path class="st11" d="M53.4 491.7c-1.1 1.5-3.1 1.9-4.6.8-1.5-1.1-1.9-3.1-.8-4.6l2.6-3.7c1.1-1.5 3.1-1.9 4.6-.8 1.5 1.1 1.9 3.1.8 4.6l-2.6 3.7z"/><path class="st0" d="M50.7 493.7v4.1h-1.8v-4.1"/><path class="st11" d="M49.3 491.4c1.2 0 1.3.6 1.3 1.2v2.5h-1.7v-2.8l.4-.9z"/><path class="st10" d="M48.8 497.5h2c.7 1.3 2.4 1.3 2.7.4 0 0 .9 1.8-3.2 1.5-1-.1-1.8-1-1.5-1.9zm.2-11l5.4 3.8-1 1.4-5.4-3.8 1-1.4z"/><path class="st14" d="M54.3 490l.4.3-1.1 1.6-.4-.3 1.1-1.6z"/><path class="st8" d="M59.7 482.2l2 2.5c.3.2 0 .6-.4.3l-3-2.2 1.4-.6z"/><path class="st11" d="M58.6 489.5l-3.8-3-.8 2 3.8 2.8.8-1.8z"/><circle class="st8" cx="58.5" cy="490.6" r="1.3"/><path class="st10" d="M52.5 480.5c-.8.1-1.5-.2-2-.7.3-.6 1-1.1 1.7-1.2.8-.1 1.5.2 2 .7-.3.7-1 1.1-1.7 1.2z"/><path class="st13" d="M170.7 502.4s-3.2 2.2-5.9 1.2c0 0-.2-2.4 3.1-5.1l1.2 1.7L186 488l.3.4-16.9 12.2 1.3 1.8z"/><path class="st15" d="M169.2 487.4s1.4-6.4 2.7-8.8c0 0 .4 4.3 2.5 4.8l-5.2 4z"/><path class="st8" d="M171.3 489.7c1.1 1.5 3.1 1.9 4.6.8 1.5-1.1 1.9-3.1.8-4.6s-3.1-1.9-4.6-.8c-1.5 1.1-1.8 3.1-.8 4.6z"/><path class="st10" d="M171.1 486.3c.2-.5.6-.9 1-1.2 1.5-1.1 3.6-.7 4.6.8.5.7.7 1.4.6 2.2-3 1.1-5.3-.8-6.2-1.8z"/><path class="st8" d="M173.8 489.1v-3s2.8 2.8.7 3.6l-.7-.6z"/><path class="st0" d="M169.6 488.1c.1.2.4.2.6.1l5.4-3.8c.2-.1.2-.4.1-.6l-.5-.7c-.1-.2-.4-.2-.6-.1l-5.4 3.8c-.2.1-.2.4-.1.6l.5.7z"/><circle class="st10" cx="172.1" cy="488.6" r=".6"/><path class="st15" d="M178 498.8c1.1 1.5 3.1 1.9 4.6.8 1.5-1.1 1.9-3.1.8-4.6l-2.6-3.7c-1.1-1.5-3.1-1.9-4.6-.8-1.5 1.1-1.9 3.1-.8 4.6l2.6 3.7z"/><path class="st0" d="M180.7 500.8v4.1h1.7v-4.1"/><path class="st15" d="M182 498.6c-1.2 0-1.3.6-1.3 1.2v2.5h1.7v-2.8l-.4-.9z"/><path class="st10" d="M182.6 504.6h-2c-.7 1.3-2.4 1.3-2.7.4 0 0-.9 1.8 3.2 1.5 1 0 1.8-1 1.5-1.9zm.7-9.6l-5.4 3.8-1-1.4 5.4-3.8 1 1.4z"/><path class="st14" d="M178.3 498.7l-.4.3-1.1-1.6.4-.3 1.1 1.6z"/><path class="st8" d="M171.6 489.3l-2 2.5c-.3.2 0 .6.4.3l3-2.2-1.4-.6z"/><path class="st15" d="M172.7 496.6l3.8-2.9.9 1.9-3.9 2.8-.8-1.8z"/><circle class="st8" cx="172.9" cy="497.7" r="1.3"/><path class="st10" d="M178.8 487.6c.8.1 1.5-.2 2-.7-.3-.6-1-1.1-1.7-1.2-.8-.1-1.5.2-2 .7.3.7.9 1.1 1.7 1.2z"/></svg>