<svg xmlns="http://www.w3.org/2000/svg" width="811.59" height="178.66" viewBox="0 0 811.59 178.66"><defs><style>.cls-1{isolation:isolate}.cls-2{fill:url(#linear-gradient)}.cls-3{fill:#fff}.cls-4{fill:#9c9c9c}.cls-5{fill:#e64436}.cls-6{fill:#808082}.cls-7{fill:#9ed5ec}.cls-36,.cls-8{opacity:.1}.cls-9{fill:#cacaca}.cls-10{fill:#e3e3e3}.cls-11{fill:#ccc}.cls-12{fill:#4c8bfb}.cls-13{fill:#979797}.cls-14{fill:#7c6959}.cls-15{fill:#9dca3b}.cls-16{fill:#ee3837}.cls-17{fill:#231f20;opacity:.2}.cls-17,.cls-36{mix-blend-mode:multiply}.cls-18{fill:#e0e0e0}.cls-19{fill:#9e9e9e}.cls-20{fill:#d3ae6e}.cls-21{fill:#28ae4b}.cls-22{fill:#c7ffff;opacity:.58}.cls-23{opacity:.25}.cls-24{fill:#a52e22}.cls-25{fill:#e63636}.cls-26{fill:#fd0}.cls-27{fill:url(#linear-gradient-2)}.cls-28{fill:url(#linear-gradient-3)}.cls-29{fill:#ffdf8a}.cls-30,.cls-36{fill:#333}.cls-31{fill:#ffd400}.cls-32{fill:#f3831f}.cls-33{fill:#1fa2f3}.cls-34{fill:#914295}.cls-35{fill:#faac18}.cls-37{fill:#836948}.cls-38{fill:#df543f}.cls-39{fill:#00813f}.cls-40{fill:#b9c9d2}.cls-41{fill:#e53935}.cls-42{fill:#28b04b}.cls-43{fill:#fff100}</style><linearGradient id="linear-gradient" y1="134.98" x2="721.3" y2="134.98" gradientTransform="matrix(-1 0 0 1 811.59 0)" gradientUnits="userSpaceOnUse"><stop offset="0" stop-color="#d7d7d7" stop-opacity="0"/><stop offset=".09" stop-color="#d7d7d7" stop-opacity=".03"/><stop offset=".57" stop-color="#d7d7d7"/></linearGradient><linearGradient id="linear-gradient-2" x1="-10201.33" y1="-379.79" x2="-10201.33" y2="-354.8" gradientTransform="matrix(1 -.08 0 1 10770.46 -247.77)" gradientUnits="userSpaceOnUse"><stop offset=".22" stop-color="#fff"/><stop offset=".33" stop-color="#fff" stop-opacity=".67"/><stop offset=".79" stop-color="#fff" stop-opacity="0"/></linearGradient><linearGradient id="linear-gradient-3" x1="694.34" y1="146.07" x2="694.34" y2="174.31" gradientTransform="matrix(-1 0 0 1 811.59 0)" gradientUnits="userSpaceOnUse"><stop offset=".22" stop-color="#fff"/><stop offset=".49" stop-color="#fff" stop-opacity=".67"/><stop offset=".96" stop-color="#fff" stop-opacity="0"/></linearGradient></defs><title>st-airport-flip</title><g class="cls-1"><g id="slice"><g id="New_Symbol_91" data-name="New Symbol 91"><path id="_Path_" data-name="&lt;Path&gt;" class="cls-2" d="M90.29 148.99h721.3l-58.69-28.02H118.95l-28.66 28.02z"/><path class="cls-3" d="M117.57 116.21a6.58 6.58 0 0 1 6.58 6.58H111a6.58 6.58 0 0 1 6.57-6.58z"/><path class="cls-3" d="M126.65 116.21a6.58 6.58 0 0 1 6.58 6.58h-13.16a6.58 6.58 0 0 1 6.58-6.58zm28.69-3.41a10 10 0 0 1 10 10h-20a10 10 0 0 1 10-10z"/><path class="cls-3" d="M129.47 122.79H126a4.26 4.26 0 0 1 5-4.2 6.5 6.5 0 0 1 11.44 4.24h-13z"/><g id="_Group_" data-name="&lt;Group&gt;"><path id="_Path_2" data-name="&lt;Path&gt;" class="cls-4" d="M264.67 112.65h21.34v21.95h-21.34z"/><path id="_Path_3" data-name="&lt;Path&gt;" class="cls-4" d="M264.67 71.52h21.34v38.92h-21.34z"/><g id="_Group_2" data-name="&lt;Group&gt;"><g id="_Group_3" data-name="&lt;Group&gt;"><path id="_Path_4" data-name="&lt;Path&gt;" class="cls-5" d="M266.69 110.43h21.81v3.79h-21.81z"/><path id="_Path_5" data-name="&lt;Path&gt;" class="cls-5" d="M266.69 101.12h21.81v3.79h-21.81z"/><path id="_Path_6" data-name="&lt;Path&gt;" class="cls-6" d="M266.69 68.63h21.81v3.79h-21.81z"/><path id="_Path_7" data-name="&lt;Path&gt;" class="cls-7" d="M279.3 91.18v-13.5h4.52v13.5"/><path id="_Path_8" data-name="&lt;Path&gt;" class="cls-8" d="M279.04 91.18h5.03v2.48h-5.03z"/><path id="_Path_9" data-name="&lt;Path&gt;" class="cls-7" d="M272.49 91.18v-13.5h4.52v13.5"/><path id="_Path_10" data-name="&lt;Path&gt;" class="cls-8" d="M272.24 91.18h5.03v2.48h-5.03z"/><path id="_Path_11" data-name="&lt;Path&gt;" class="cls-7" d="M265.69 91.18v-13.5h4.52v13.5"/><path id="_Path_12" data-name="&lt;Path&gt;" class="cls-8" d="M265.43 91.18h5.03v2.48h-5.03z"/></g><g id="_Group_4" data-name="&lt;Group&gt;" class="cls-8"><path id="_Path_13" data-name="&lt;Path&gt;" d="M283.08 120.81h1.24v13.6h-1.24z"/><path id="_Path_14" data-name="&lt;Path&gt;" d="M281.77 120.81h1.24v13.6h-1.24z"/></g><g id="_Group_5" data-name="&lt;Group&gt;" class="cls-8"><path id="_Path_15" data-name="&lt;Path&gt;" d="M278.92 120.81h1.24v13.6h-1.24z"/><path id="_Path_16" data-name="&lt;Path&gt;" d="M277.61 120.81h1.24v13.6h-1.24z"/></g><g id="_Group_6" data-name="&lt;Group&gt;" class="cls-8"><path id="_Path_17" data-name="&lt;Path&gt;" d="M274.76 120.81H276v13.6h-1.24z"/><path id="_Path_18" data-name="&lt;Path&gt;" d="M273.46 120.81h1.24v13.6h-1.24z"/></g><g id="_Group_7" data-name="&lt;Group&gt;" class="cls-8"><path id="_Path_19" data-name="&lt;Path&gt;" d="M270.61 120.81h1.24v13.6h-1.24z"/><path id="_Path_20" data-name="&lt;Path&gt;" d="M269.3 120.81h1.24v13.6h-1.24z"/></g><g id="_Group_8" data-name="&lt;Group&gt;" class="cls-8"><path id="_Path_21" data-name="&lt;Path&gt;" d="M266.45 120.81h1.24v13.6h-1.24z"/><path id="_Path_22" data-name="&lt;Path&gt;" d="M265.14 120.81h1.24v13.6h-1.24z"/></g></g><path id="_Path_23" data-name="&lt;Path&gt;" class="cls-9" d="M164.19 14.61h-2.17l-.8 4.19h3.89l-.92-4.19z"/><path class="cls-6" transform="rotate(-44.92 165.95 6.064)" d="M160.45 5.82h10.98v.5h-10.98z"/><path id="_Path_24" data-name="&lt;Path&gt;" class="cls-10" d="M158.59 0a9 9 0 1 0 12.79 12.7z"/><path id="_Path_25" data-name="&lt;Path&gt;" class="cls-3" d="M158.59 0c-3.51 3.53-3 8.41.45 12 2.59 2.67 6.78 2.19 10.28-1.34z"/><circle id="_Path_26" data-name="&lt;Path&gt;" class="cls-6" cx="170.06" cy="1.93" r="1.33" transform="rotate(-45 170.073 1.914)"/><path id="_Path_27" data-name="&lt;Path&gt;" class="cls-11" d="M148.67 112.65h116.86v21.95H148.67z"/><path id="_Path_28" data-name="&lt;Path&gt;" class="cls-11" d="M148.67 112.65h116.86v21.95H148.67z"/><path id="_Path_29" data-name="&lt;Path&gt;" class="cls-11" d="M148.67 71.52h116.86v38.92H148.67z"/><path id="_Path_30" data-name="&lt;Path&gt;" class="cls-8" d="M265.53 120.97l-116.86-4.74v-4.84h116.86v9.58z"/><path id="_Path_31" data-name="&lt;Path&gt;" class="cls-12" d="M173.24 19.81h-20.16l-4.65 14.5h29.13l-4.32-14.5z"/><path id="_Path_32" data-name="&lt;Path&gt;" class="cls-13" d="M155.45 19.81h.99v15.28h-.99z"/><path id="_Path_33" data-name="&lt;Path&gt;" class="cls-13" d="M169.98 19.81h.99v15.28h-.99z"/><path id="_Path_34" data-name="&lt;Path&gt;" class="cls-8" d="M166 34a2.72 2.72 0 1 0-5.43 0v.36H166z"/><circle id="_Path_35" data-name="&lt;Path&gt;" class="cls-12" cx="166.5" cy="21.01" r=".58"/><path id="_Path_36" data-name="&lt;Path&gt;" class="cls-13" d="M152.47 18.71h21.11v1.23h-21.11z"/><path id="_Path_37" data-name="&lt;Path&gt;" class="cls-13" d="M158.35 35.42h9.12v33.26h-9.12z"/><path id="_Path_38" data-name="&lt;Path&gt;" class="cls-8" d="M167.46 54.64l-9.11-3.73v-6.7h9.11v10.43z"/><path id="_Path_39" data-name="&lt;Path&gt;" class="cls-13" d="M173.24 44.42h-20.16l-4.65-10.13h29.13l-4.32 10.13z"/><g id="_Group_9" data-name="&lt;Group&gt;"><g id="_Group_10" data-name="&lt;Group&gt;"><g id="_Group_11" data-name="&lt;Group&gt;"><path class="cls-14" d="M246.97 42.49h.63v27.69h-.63z"/><circle id="_Path_40" data-name="&lt;Path&gt;" class="cls-15" cx="247.3" cy="42.2" r="3"/></g><g id="_Group_12" data-name="&lt;Group&gt;"><path class="cls-14" d="M257.35 42.49h.63v27.69h-.63z"/><circle id="_Path_41" data-name="&lt;Path&gt;" class="cls-16" cx="257.68" cy="42.2" r="3"/></g><path id="_Path_42" data-name="&lt;Path&gt;" class="cls-5" d="M147.26 110.43h119.43v3.79H147.26z"/><path id="_Path_43" data-name="&lt;Path&gt;" class="cls-5" d="M147.26 101.12h119.43v3.79H147.26z"/><path id="_Path_44" data-name="&lt;Path&gt;" class="cls-6" d="M147.26 68.63h119.43v3.79H147.26z"/><path id="_Path_45" data-name="&lt;Path&gt;" class="cls-7" d="M181.96 91.18v-13.5h-24.77v13.5"/><path id="_Path_46" data-name="&lt;Path&gt;" class="cls-8" d="M155.79 91.18h27.57v2.48h-27.57z"/><path id="_Path_47" data-name="&lt;Path&gt;" class="cls-7" d="M219.22 91.18v-13.5h-24.76v13.5"/><path id="_Path_48" data-name="&lt;Path&gt;" class="cls-8" d="M193.05 91.18h27.57v2.48h-27.57z"/><path id="_Path_49" data-name="&lt;Path&gt;" class="cls-7" d="M256.48 91.18v-13.5h-24.76v13.5"/><path id="_Path_50" data-name="&lt;Path&gt;" class="cls-8" d="M230.31 91.18h27.57v2.48h-27.57z"/></g><g id="_Group_13" data-name="&lt;Group&gt;" class="cls-8"><path id="_Path_51" data-name="&lt;Path&gt;" d="M154.48 120.81h6.77v13.6h-6.77z"/><path id="_Path_52" data-name="&lt;Path&gt;" d="M161.65 120.81h6.77v13.6h-6.77z"/></g><g id="_Group_14" data-name="&lt;Group&gt;" class="cls-8"><path id="_Path_53" data-name="&lt;Path&gt;" d="M177.25 120.81h6.77v13.6h-6.77z"/><path id="_Path_54" data-name="&lt;Path&gt;" d="M184.41 120.81h6.77v13.6h-6.77z"/></g><g id="_Group_15" data-name="&lt;Group&gt;" class="cls-8"><path id="_Path_55" data-name="&lt;Path&gt;" d="M200.01 120.81h6.77v13.6h-6.77z"/><path id="_Path_56" data-name="&lt;Path&gt;" d="M207.18 120.81h6.77v13.6h-6.77z"/></g><g id="_Group_16" data-name="&lt;Group&gt;" class="cls-8"><path id="_Path_57" data-name="&lt;Path&gt;" d="M222.77 120.81h6.77v13.6h-6.77z"/><path id="_Path_58" data-name="&lt;Path&gt;" d="M229.94 120.81h6.77v13.6h-6.77z"/></g><g id="_Group_17" data-name="&lt;Group&gt;" class="cls-8"><path id="_Path_59" data-name="&lt;Path&gt;" d="M245.54 120.81h6.77v13.6h-6.77z"/><path id="_Path_60" data-name="&lt;Path&gt;" d="M252.7 120.81h6.77v13.6h-6.77z"/></g></g><g id="_Group_18" data-name="&lt;Group&gt;"><path class="cls-14" d="M142.08 20.66h.61v114.47h-.61z"/><circle id="_Path_61" data-name="&lt;Path&gt;" class="cls-14" cx="142.38" cy="21.05" r="1.52"/></g><path class="cls-3" d="M136.84 24.32l-.02-.16 4.8-.54h1.67v.17h-1.66l-4.79.53zm6.32 8.92h-1.67l-4.47-.6.02-.16 4.46.6 1.66-.01v.17z"/><g id="_Group_19" data-name="&lt;Group&gt;"><path id="_Path_62" data-name="&lt;Path&gt;" class="cls-3" d="M120.39 24.83v7.35l2.8.15v-7.66l-2.8.16z"/><path id="_Path_63" data-name="&lt;Path&gt;" class="cls-3" d="M114.8 25.14v6.75l2.8.14v-7.04l-2.8.15z"/><path id="_Path_64" data-name="&lt;Path&gt;" class="cls-3" d="M125.98 24.51v7.96l2.8.15v-8.27l-2.8.16z"/><path id="_Path_65" data-name="&lt;Path&gt;" class="cls-3" d="M131.57 24.2v8.56l2.8.15v-8.87l-2.8.16z"/><path id="_Path_66" data-name="&lt;Path&gt;" class="cls-16" d="M112.01 25.3v6.45l2.79.14v-6.75l-2.79.16z"/><path id="_Path_67" data-name="&lt;Path&gt;" class="cls-16" d="M117.6 24.99v7.04l2.79.15v-7.35l-2.79.16z"/><path id="_Path_68" data-name="&lt;Path&gt;" class="cls-16" d="M123.19 24.67v7.66l2.79.14v-7.96l-2.79.16z"/><path id="_Path_69" data-name="&lt;Path&gt;" class="cls-16" d="M128.78 24.35v8.27l2.79.14V24.2l-2.79.15z"/><path id="_Path_70" data-name="&lt;Path&gt;" class="cls-16" d="M134.37 24.04v8.87l2.8.14v-9.17l-2.8.16z"/></g><g id="_Group_20" data-name="&lt;Group&gt;"><path id="_Path_71" data-name="&lt;Path&gt;" class="cls-3" d="M159.25 68.3a3.33 3.33 0 1 1-6.67 0z"/><path class="cls-3" d="M155.91 71.75a3.46 3.46 0 0 1-3.46-3.46.12.12 0 0 1 .12-.12h6.67a.12.12 0 0 1 .12.12 3.46 3.46 0 0 1-3.45 3.46zm-3.21-3.33a3.21 3.21 0 0 0 6.41 0z"/><path id="_Path_72" data-name="&lt;Path&gt;" class="cls-3" d="M168.21 68.3a4.48 4.48 0 0 1-9 0z"/><path class="cls-3" d="M163.73 72.95a4.66 4.66 0 0 1-4.65-4.65.17.17 0 0 1 .17-.17h9a.17.17 0 0 1 .17.17 4.66 4.66 0 0 1-4.69 4.65zm-4.32-4.48a4.32 4.32 0 0 0 8.63 0z"/><path id="_Path_73" data-name="&lt;Path&gt;" class="cls-3" d="M177.18 68.3a4.48 4.48 0 0 1-9 0z"/><path class="cls-3" d="M172.7 72.95a4.66 4.66 0 0 1-4.7-4.65.17.17 0 0 1 .17-.17h9a.17.17 0 0 1 .17.17 4.66 4.66 0 0 1-4.64 4.65zm-4.32-4.48a4.32 4.32 0 0 0 8.63 0z"/><path id="_Path_74" data-name="&lt;Path&gt;" class="cls-3" d="M184.9 68.3a4.48 4.48 0 0 1-9 0z"/><path class="cls-3" d="M180.42 72.95a4.66 4.66 0 0 1-4.65-4.65.17.17 0 0 1 .17-.17h9a.17.17 0 0 1 .17.17 4.66 4.66 0 0 1-4.69 4.65zm-4.32-4.48a4.32 4.32 0 0 0 8.63 0z"/><path id="_Path_75" data-name="&lt;Path&gt;" class="cls-3" d="M193.87 68.3a4.48 4.48 0 1 1-9 0z"/><path class="cls-3" d="M189.39 72.95a4.66 4.66 0 0 1-4.65-4.65.17.17 0 0 1 .17-.17h9a.17.17 0 0 1 .17.17 4.66 4.66 0 0 1-4.69 4.65zm-4.32-4.48a4.32 4.32 0 0 0 8.63 0z"/><path id="_Path_76" data-name="&lt;Path&gt;" class="cls-3" d="M199.71 68.3a2.92 2.92 0 0 1-5.84 0z"/><path class="cls-3" d="M196.79 71.33a3 3 0 0 1-3-3 .11.11 0 0 1 .11-.11h5.84a.11.11 0 0 1 .11.11 3 3 0 0 1-3.06 3zM194 68.41a2.81 2.81 0 0 0 5.62 0z"/></g><g id="_Group_21" data-name="&lt;Group&gt;" class="cls-8"><path id="_Path_77" data-name="&lt;Path&gt;" d="M158.37 29.61h2.23a2.71 2.71 0 0 0 4.6.74 2.71 2.71 0 0 0 .25-.35 2.7 2.7 0 0 0 .18-.38v-.06a2.69 2.69 0 0 0 .11-.41V29a2.67 2.67 0 0 0-.46-2h.44a.36.36 0 0 0 .36-.36V26a.36.36 0 0 0-.36-.36h-.41c-.85-1.44.71-4.18.71-4.18a33.33 33.33 0 0 0-5.51 4.18h-.18a.36.36 0 0 0-.33.36v.66a.36.36 0 0 0 .36.36h.53a2.7 2.7 0 0 0-.5 1.55l-2.16.63c-.23 0-.23.41.14.41z"/><circle id="_Path_78" data-name="&lt;Path&gt;" cx="166.58" cy="21.13" r=".6"/></g><circle id="_Path_79" data-name="&lt;Path&gt;" class="cls-6" cx="415.43" cy="132.91" r="2.18"/><circle id="_Path_80" data-name="&lt;Path&gt;" class="cls-6" cx="371.47" cy="132.91" r="2.18"/><ellipse class="cls-17" cx="388.95" cy="134.82" rx="80.19" ry="3.93"/><path class="cls-18" transform="rotate(180 369.125 129.945)" d="M366.41 127.66h5.43v4.56h-5.43z"/><path class="cls-18" transform="rotate(180 417.735 129.945)" d="M415.02 127.66h5.43v4.56h-5.43z"/><circle id="_Path_81" data-name="&lt;Path&gt;" class="cls-6" cx="420.31" cy="132.91" r="2.18"/><circle id="_Path_82" data-name="&lt;Path&gt;" class="cls-6" cx="366.58" cy="132.91" r="2.18"/><path class="cls-18" d="M347.47 113.74a.86.86 0 0 0 .9-.83v-4.76a.47.47 0 0 1 .48-.45h3.31a2.2 2.2 0 0 0 2.28-2.1v-2.8a.47.47 0 0 1 .48-.45h5.52a.83.83 0 1 0 0-1.66h-5.52a2.2 2.2 0 0 0-2.28 2.1v2.8a.47.47 0 0 1-.48.45h-3.31a2.2 2.2 0 0 0-2.28 2.1v4.76a.86.86 0 0 0 .9.84z"/><path class="cls-18" d="M357.42 102.19a.87.87 0 0 0 .9-.83v-3.14a.47.47 0 0 1 .48-.45h4a.83.83 0 1 0 0-1.66h-4a2.2 2.2 0 0 0-2.28 2.1v3.14a.87.87 0 0 0 .9.84z"/><path class="cls-19" d="M369.52 119.72l58.53-13.97h7.55l-35.03 13.98"/><path class="cls-18" d="M369.52 119.72l58.53-13.97h4.11l-38.35 13.98"/><path class="cls-20" d="M474.29 113.6v1.86s-26.83 11.72-51 11.71h-75.1c-10.92 0-20.41-3.7-20.41-5.67s4.71-3.69 6.53-4.48 6.23-6.06 22.24-6.05l117.72.05z"/><path class="cls-21" d="M479.06 91.94h-4.68l-18.97 19.03 7.17.01 15.5-15.56.98-3.48z"/><path class="cls-21" d="M478.08 95.42l-15.5 15.56h6.17l6.93-6.96 2.4-8.6z"/><path class="cls-21" d="M473.73 110.98l1.17-4.17.78-2.79-6.93 6.96h4.98z"/><path class="cls-3" d="M351.8 115.91a.29.29 0 0 0 .31.28h.27a.29.29 0 0 0 .3-.28v-.25a.29.29 0 0 0-.31-.29h-.26a.3.3 0 0 0-.31.29z"/><path class="cls-22" d="M357.93 119.55a.72.72 0 0 0 .75.69h1.62a.73.73 0 0 0 .75-.7v-2.78a.72.72 0 0 0-.75-.69h-1.62a.73.73 0 0 0-.75.7zm5.73 0a.72.72 0 0 0 .75.69H366a.72.72 0 0 0 .75-.69v-2.78a.72.72 0 0 0-.75-.69h-1.62a.72.72 0 0 0-.75.69zm5.73.01a.72.72 0 0 0 .75.69h1.62a.72.72 0 0 0 .75-.69v-2.78a.73.73 0 0 0-.75-.69h-1.62a.72.72 0 0 0-.75.69zm5.73 0a.72.72 0 0 0 .75.69h1.63a.72.72 0 0 0 .75-.69v-2.78a.72.72 0 0 0-.75-.69h-1.63a.72.72 0 0 0-.75.69zm5.73 0a.72.72 0 0 0 .75.69h1.62a.72.72 0 0 0 .75-.69v-2.78a.73.73 0 0 0-.75-.69h-1.62a.72.72 0 0 0-.75.69zm5.72 0a.73.73 0 0 0 .75.69h1.62a.73.73 0 0 0 .76-.69v-2.78a.72.72 0 0 0-.75-.69h-1.62a.72.72 0 0 0-.75.69zm5.73.01a.73.73 0 0 0 .75.69h1.62a.72.72 0 0 0 .75-.69v-2.78a.72.72 0 0 0-.75-.69h-1.63a.72.72 0 0 0-.75.69zm5.7 0a.72.72 0 0 0 .75.69h1.62a.73.73 0 0 0 .75-.69v-2.78a.72.72 0 0 0-.75-.69h-1.62a.72.72 0 0 0-.75.69zm5.76 0a.72.72 0 0 0 .75.69h1.62a.72.72 0 0 0 .75-.69v-2.77a.72.72 0 0 0-.75-.69h-1.62a.73.73 0 0 0-.75.7zm5.74 0a.72.72 0 0 0 .75.69h1.62a.72.72 0 0 0 .75-.69v-2.77a.73.73 0 0 0-.75-.69h-1.62a.72.72 0 0 0-.75.69zm5.72.01a.72.72 0 0 0 .75.69h1.62a.72.72 0 0 0 .75-.69v-2.78a.72.72 0 0 0-.75-.69H416a.73.73 0 0 0-.76.69zm5.73 0a.72.72 0 0 0 .75.69h1.62a.72.72 0 0 0 .75-.69v-2.78a.73.73 0 0 0-.75-.7h-1.62a.73.73 0 0 0-.75.69zm5.73 0a.72.72 0 0 0 .75.69h1.62a.73.73 0 0 0 .75-.69v-2.78a.73.73 0 0 0-.76-.69h-1.62a.72.72 0 0 0-.75.69zm5.73 0a.72.72 0 0 0 .74.69h1.63a.72.72 0 0 0 .75-.69v-2.78a.73.73 0 0 0-.75-.69h-1.62a.72.72 0 0 0-.75.69zm5.73 0a.72.72 0 0 0 .75.69h1.62a.71.71 0 0 0 .75-.69v-2.78a.73.73 0 0 0-.75-.69h-1.62a.73.73 0 0 0-.75.69z"/><path class="cls-3" d="M449.13 121.37h-2.82a.48.48 0 0 1-.33-.14.43.43 0 0 1-.13-.3v-7.14a.46.46 0 0 1 .47-.44h2.82a.45.45 0 0 1 .46.44v7.14a.43.43 0 0 1-.13.31.48.48 0 0 1-.34.13zm-2.82-.32h2.81a.12.12 0 0 0 .12 0 .11.11 0 0 0 0-.08v-7.14a.14.14 0 0 0-.15-.13h-2.81a.14.14 0 0 0-.15.13v7.14a.12.12 0 0 0 0 .08.16.16 0 0 0 .11 0zm-92.49.46h-3.16a.46.46 0 0 1-.47-.44v-7.21a.46.46 0 0 1 .47-.44h3.16a.46.46 0 0 1 .47.44v7.21a.42.42 0 0 1-.12.3.48.48 0 0 1-.35.14zm-3.31-.45a.14.14 0 0 0 .15.13h3.16a.17.17 0 0 0 .12 0 .11.11 0 0 0 0-.08v-7.21a.14.14 0 0 0-.15-.13h-3.16a.14.14 0 0 0-.15.13z"/><path class="cls-23" d="M458.31 115.77l9 2.4c5.4-2 7-2.71 7-2.71v-.58z"/><path class="cls-21" d="M476.69 117.37h4.19l.18-1.99-7.13-1.59-15.55-.02-.07 2 18.38 1.6z"/><path class="cls-18" d="M327.8 122.36c0 2 9.5 5.67 20.41 5.68h75.1c15.53 0 32.16-4.83 42.06-8.29a7.27 7.27 0 0 0 2.32-1.75s-18.57 5.78-26.82 5.78c-9.53 0-29 .56-40.78.55h-55.14a57.66 57.66 0 0 1-17-2.54 1.45 1.45 0 0 0-.15.57z"/><path class="cls-3" d="M344.94 123.44a57.8 57.8 0 0 1-17-2.54 1.42 1.42 0 0 0-.14.57c0 2 9.49 3.94 20.41 3.94h75.1c15.53 0 32.16-3.1 42.05-6.56-9.91 2.53-21.38 4.6-32.37 4.59z"/><path class="cls-19" d="M437.04 144.13l-32.55-22.03H375.1l54.39 22.03h7.55z"/><path d="M374.2 122.09l2.63 2.26 4.31 3.7h20.42l-1.48-3.7-.9-2.27z" class="cls-23"/><path class="cls-18" d="M433.27 144.13l-34.09-22.03H374.2l54.39 22.03h4.68z"/><path class="cls-24" d="M327.8 121.47c0 1 2.37 2.4 6.11 3.57v-7.88c-2.04.84-6.11 2.47-6.11 4.31z"/><path class="cls-25" d="M327.8 121.47c0 1 2.37 1.27 6.11 2.44v-6.75c-2.04.84-6.11 2.47-6.11 4.31z"/><path class="cls-24" d="M327.8 122.45c0 1 2.37 2.34 6.11 3.48v-7.68c-2.04.84-6.11 2.4-6.11 4.2z"/><path class="cls-25" d="M327.8 122.36c0 1 2.37 1.27 6.11 2.44v-6.75c-2.04.86-6.11 2.47-6.11 4.31z"/><ellipse class="cls-3" cx="342.48" cy="117.82" rx="3.51" ry="3.24"/><ellipse class="cls-6" cx="342.48" cy="117.82" rx="1.2" ry="1.11"/><path class="cls-26" d="M465.77 102.91h2.73v2.52h-2.73zm3.46 0h2.73v2.52h-2.73zm-3.46 3.37h2.73v2.52h-2.73zm3.46 0h2.73v2.52h-2.73zm1.06-3.57c-.92-1.42-3.36-1.74-.25-3.9 2.7-1.86 4.16-2.73 4.53-2.22.59.81-3.59 2.68-3.59 2.68s3.72-1.57 3.92-.51c.17.89-3.78 1.27-3.78 1.27s2.82-.35 2.9.59c.05.63-4.05.3-4.05.3a2.35 2.35 0 0 1 .32 1.79z"/></g><path id="_Path_83" data-name="&lt;Path&gt;" class="cls-27" d="M700.54 161.56c-46.81-4.08-76.67-25.21-96.58-30.28a36.68 36.68 0 0 0-12.7-1.09 39.32 39.32 0 0 0-12.7 3c-8.45 3.44-15 9.26-23.53 12.55a61.56 61.56 0 0 1-30.25 3.74c-6.86-.95-13.63-3.13-20.66-2-13.18 2.12-20 12.9-37 13.43-13.63 0-22.57 8.93-27.14 10.48-18.19 6.15 78.61 8.27 99.14 6.82 27.94-2 55.42 1.08 82.87-3.52 11.53-1.93 47.11 5.06 58.27 1.52 2.39-.73 19.94-14.68 20.28-14.65z"/><path id="_Path_84" data-name="&lt;Path&gt;" class="cls-28" d="M23.43 147.35c9.31-4.73 19.23-8 29.77-10.73 11.68-3 21.84-9.94 33.59-12.63a36.49 36.49 0 0 1 12.7-.76 40 40 0 0 1 12.7 3.35c8.45 3.66 15 9.65 23.53 13.16a62.19 62.19 0 0 0 30.28 4.54c6.86-.77 13.63-2.78 20.66-1.46 11 2.06 17.1 10.93 27.2 14.51 4.85 1.72 9.95 3 14.16 6s7.41 8.1 6.27 13.12l-218 .67c-4.23 0-8.62 0-12.31-2.4a8.49 8.49 0 0 1-3.61-4.61c-1.39-4.65 2.12-8.37 5.5-11.18a93.31 93.31 0 0 1 17.56-11.58z"/><path id="_Path_85" data-name="&lt;Path&gt;" class="cls-8" d="M148.4 110.43h21.81v3.79H148.4z"/><path id="_Path_86" data-name="&lt;Path&gt;" class="cls-8" d="M148.4 101.12h21.81v3.79H148.4z"/><path class="cls-3" d="M241.26 147.4v3.25h.99v-3.25m1.4 0v3.25h-.99v-3.25"/><circle class="cls-29" cx="244.32" cy="144.7" r=".72"/><circle class="cls-29" cx="240.81" cy="144.7" r=".72"/><path class="cls-21" d="M244 138.08s-1.55-3.24-3-3.92c0 0 .74 3-.07 4z"/><path class="cls-29" d="M240.58 139.84a1.89 1.89 0 0 0 1.89 1.89 1.89 1.89 0 0 0 1.89-1.89 1.89 1.89 0 0 0-1.89-1.89 1.89 1.89 0 0 0-1.89 1.89z"/><rect class="cls-3" x="240.31" y="137.78" width="4.26" height=".97" rx=".25" ry=".25"/><circle class="cls-30" cx="243.29" cy="139.57" r=".34"/><circle class="cls-30" cx="241.73" cy="139.57" r=".34"/><path class="cls-21" d="M240.67 146.23a1.89 1.89 0 1 0 3.78 0v-2.61a1.89 1.89 0 1 0-3.78 0z"/><path class="cls-21" d="M243.65 147.4v1.73h-.99v-1.73"/><path class="cls-30" d="M242.59 150.47h1.15c.38.74 1.37.74 1.51.2 0 0 .53 1-1.85.88a.84.84 0 0 1-.81-1.08z"/><path class="cls-21" d="M241.26 147.4v1.73h.99v-1.73"/><path class="cls-30" d="M242.32 150.47h-1.15c-.38.74-1.37.74-1.51.2 0 0-.53 1 1.85.88a.84.84 0 0 0 .81-1.08z"/><path class="cls-3" d="M242.38 141.73h.38v5.09h-.38z"/><path class="cls-30" d="M240.67 145.29h3.78v.95h-3.78z"/><path class="cls-31" d="M242.07 145.2h.99v1.08h-.99z"/><circle class="cls-3" cx="240.76" cy="133.85" r=".41"/><path class="cls-29" d="M244.37 139.43l.63-.86s.36 2.21-.86 1.94zm-3.61 0l-.63-.86s-.36 2.21.86 1.94z"/><circle class="cls-29" cx="239.05" cy="145.78" r=".72"/><circle class="cls-29" cx="235.54" cy="145.78" r=".72"/><path class="cls-32" d="M238.76 139.16s-1.55-3.24-3-3.92c0 0 .74 3-.07 4z"/><path class="cls-29" d="M235.32 140.92a1.89 1.89 0 0 0 1.89 1.89 1.89 1.89 0 0 0 1.89-1.89 1.89 1.89 0 0 0-1.89-1.89 1.89 1.89 0 0 0-1.89 1.89z"/><rect class="cls-3" x="235.05" y="138.86" width="4.26" height=".97" rx=".25" ry=".25"/><circle class="cls-30" cx="238.02" cy="140.65" r=".34"/><circle class="cls-30" cx="236.46" cy="140.65" r=".34"/><path class="cls-32" d="M235.41 147.31a1.89 1.89 0 1 0 3.78 0v-2.61a1.89 1.89 0 1 0-3.78 0z"/><path class="cls-3" d="M238.38 148.49v3.24h-.99v-3.24"/><path class="cls-32" d="M238.38 148.49v1.72h-.99v-1.72"/><path class="cls-30" d="M237.32 151.55h1.15c.38.74 1.37.74 1.51.2 0 0 .53 1-1.85.88a.84.84 0 0 1-.81-1.08z"/><path class="cls-3" d="M235.99 148.49v3.24h.99v-3.24"/><path class="cls-32" d="M235.99 148.49v1.72h.99v-1.72"/><path class="cls-30" d="M237 151.55h-1.1c-.38.74-1.37.74-1.51.2 0 0-.53 1 1.85.88a.84.84 0 0 0 .76-1.08z"/><path class="cls-3" d="M237.11 142.81h.38v5.09h-.38z"/><path class="cls-30" d="M235.41 146.37h3.78v.95h-3.78z"/><path class="cls-31" d="M236.8 146.28h.99v1.08h-.99z"/><circle class="cls-3" cx="235.5" cy="134.93" r=".41"/><path class="cls-29" d="M239.1 140.51l.63-.86s.36 2.21-.86 1.94zm-3.6 0l-.63-.86s-.36 2.21.86 1.94z"/><circle class="cls-29" cx="255.19" cy="145.93" r=".72"/><circle class="cls-29" cx="251.68" cy="145.93" r=".72"/><path class="cls-33" d="M254.9 139.31s-1.55-3.24-3-3.92c0 0 .74 3-.07 4z"/><path class="cls-29" d="M251.45 141.07a1.89 1.89 0 0 0 1.89 1.89 1.89 1.89 0 0 0 1.89-1.89 1.89 1.89 0 0 0-1.89-1.89 1.89 1.89 0 0 0-1.89 1.89z"/><rect class="cls-3" x="251.18" y="139.01" width="4.26" height=".97" rx=".25" ry=".25"/><circle class="cls-30" cx="254.16" cy="140.8" r=".34"/><circle class="cls-30" cx="252.6" cy="140.8" r=".34"/><path class="cls-33" d="M251.54 147.46a1.89 1.89 0 1 0 3.78 0v-2.61a1.89 1.89 0 1 0-3.78 0z"/><path class="cls-3" d="M254.52 148.63v3.25h-.99v-3.25"/><path class="cls-33" d="M254.52 148.63v1.73h-.99v-1.73"/><path class="cls-30" d="M253.46 151.7h1.15c.38.74 1.37.74 1.51.2 0 0 .53 1-1.85.88a.84.84 0 0 1-.81-1.08z"/><path class="cls-3" d="M252.13 148.63v3.25h.99v-3.25"/><path class="cls-33" d="M252.13 148.63v1.73h.99v-1.73"/><path class="cls-30" d="M253.19 151.7H252c-.38.74-1.37.74-1.51.2 0 0-.53 1 1.85.88a.84.84 0 0 0 .85-1.08z"/><path class="cls-3" d="M253.24 142.96h.38v5.09h-.38z"/><path class="cls-30" d="M251.54 146.52h3.78v.95h-3.78z"/><path class="cls-31" d="M252.94 146.43h.99v1.08h-.99z"/><circle class="cls-3" cx="251.63" cy="135.08" r=".41"/><path class="cls-29" d="M255.24 140.66l.63-.86s.36 2.21-.86 1.94zm-3.61 0l-.63-.86s-.36 2.21.86 1.94z"/><circle class="cls-29" cx="268.39" cy="146.18" r=".72"/><circle class="cls-29" cx="264.88" cy="146.18" r=".72"/><path class="cls-34" d="M268.1 139.56s-1.55-3.24-3-3.92c0 0 .74 3-.07 4z"/><path class="cls-29" d="M264.65 141.32a1.89 1.89 0 0 0 1.89 1.89 1.89 1.89 0 0 0 1.89-1.89 1.89 1.89 0 0 0-1.89-1.89 1.89 1.89 0 0 0-1.89 1.89z"/><rect class="cls-3" x="264.38" y="139.26" width="4.26" height=".97" rx=".25" ry=".25"/><circle class="cls-30" cx="267.35" cy="141.05" r=".34"/><circle class="cls-30" cx="265.8" cy="141.05" r=".34"/><path class="cls-34" d="M264.74 147.71a1.89 1.89 0 1 0 3.78 0v-2.61a1.89 1.89 0 1 0-3.78 0z"/><path class="cls-3" d="M267.71 148.88v3.25h-.99v-3.25"/><path class="cls-34" d="M267.71 148.88v1.72h-.99v-1.72"/><path class="cls-30" d="M266.66 151.95h1.15c.38.74 1.37.74 1.51.2 0 0 .53 1-1.85.88a.84.84 0 0 1-.81-1.08z"/><path class="cls-3" d="M265.33 148.88v3.25h.99v-3.25"/><path class="cls-34" d="M265.33 148.88v1.72h.99v-1.72"/><path class="cls-30" d="M266.39 151.95h-1.15c-.38.74-1.37.74-1.51.2 0 0-.53 1 1.85.88a.84.84 0 0 0 .81-1.08z"/><path class="cls-3" d="M266.44 143.21h.38v5.09h-.38z"/><path class="cls-30" d="M264.74 146.77h3.78v.95h-3.78z"/><path class="cls-31" d="M266.14 146.68h.99v1.08h-.99z"/><circle class="cls-3" cx="264.83" cy="135.33" r=".41"/><path class="cls-29" d="M268.43 140.91l.63-.86s.36 2.21-.86 1.94zm-3.6 0l-.63-.86s-.36 2.21.86 1.94z"/><rect class="cls-35" x="226.27" y="143.46" width="6.7" height="4.58" rx=".56" ry=".56"/><path class="cls-35" d="M230.39 144.32H229a.16.16 0 0 1-.16-.16v-1.43a.16.16 0 0 1 .16-.16h1.43a.16.16 0 0 1 .16.16v1.43a.16.16 0 0 1-.2.16zm-1.27-.32h1.11v-1.11h-1.11zm27.77 2.65h-.6a.1.1 0 0 1-.1-.1v-1.43a.1.1 0 0 1 .1-.1h.6a.1.1 0 0 1 .1.1v1.43a.1.1 0 0 1-.1.1zm-.49-.21h.39v-1.22h-.39z"/><path class="cls-34" d="M253.94 147.79a.52.52 0 0 0 .44.56h4.36a.51.51 0 0 0 .44-.56l-.53-.6-.69-.79c0-.3-.1-.56-.24-.56h-2.32c-.12 0-.24.26-.24.56l-.69.79z"/><path class="cls-36" d="M253.94 147.79a.52.52 0 0 0 .44.56h4.36a.51.51 0 0 0 .44-.56l-.53-.6h-4.19z"/><path class="cls-37" d="M277.17 152.6a1 1 0 0 0 1.06 1h6.13a1 1 0 0 0 1.06-1v-3.18a1 1 0 0 0-1.06-1h-6.13a1 1 0 0 0-1.06 1z"/><path class="cls-37" d="M282 149.29h-1.43a.16.16 0 0 1-.16-.16v-1.43a.16.16 0 0 1 .16-.16H282a.16.16 0 0 1 .16.16v1.43a.16.16 0 0 1-.16.16zm-1.27-.32h1.11v-1.11h-1.11z"/><path class="cls-36" d="M283.61 148.43h.51v5.17h-.51zm-5.07 0h.51v5.17h-.51z"/><path class="cls-37" d="M243.45 149.42c0 .32.48.58 1.06.58h6.13c.59 0 1.06-.26 1.06-.58v-1.81c0-.32-.48-.58-1.06-.58h-6.13c-.59 0-1.06.26-1.06.58z"/><path class="cls-36" d="M249.89 147.04h.51v2.95h-.51zm-5.07 0h.51v2.95h-.51z"/><path class="cls-38" d="M252.75 152.77c0 .32.48.58 1.06.58h6.13c.59 0 1.06-.26 1.06-.58V151c0-.32-.48-.58-1.06-.58h-6.13c-.59 0-1.06.26-1.06.58z"/><path class="cls-36" d="M259.19 150.39h.51v2.95h-.51zm-5.07 0h.51v2.95h-.51z"/><path class="cls-35" d="M252.8 149.93c0 .2.36.36.8.36h4.6c.44 0 .8-.16.8-.36v-1.11c0-.2-.36-.36-.8-.36h-4.6c-.44 0-.8.16-.8.36z"/><path class="cls-36" d="M257.63 148.47h.38v1.81h-.38zm-3.81 0h.38v1.81h-.38z"/><path class="cls-39" d="M261.41 147.46h8.44v5.79h-8.44z"/><path class="cls-39" d="M266.45 148.33H265a.16.16 0 0 1-.16-.16v-1.43a.16.16 0 0 1 .16-.16h1.43a.16.16 0 0 1 .16.16v1.43a.16.16 0 0 1-.14.16zm-1.27-.32h1.11v-1.11h-1.11z"/><path class="cls-36" d="M263.16 147.46h4.9v5.79h-4.9z"/><path class="cls-40" d="M242.79 150.19h9.58v3.36h-9.58z"/><circle class="cls-41" cx="250.35" cy="151.62" r=".59"/><path class="cls-42" d="M245.47 151.94l-.06.86-.8-.65.86-.21z"/><circle class="cls-43" cx="244.4" cy="151.3" r=".21"/><path class="cls-34" transform="rotate(-70.64 248.103 152.171)" d="M247.52 151.6h1.14v1.14h-1.14z"/><rect class="cls-30" x="233.87" y="147.73" width="8.55" height="5.85" rx=".72" ry=".72"/><path class="cls-30" d="M239 148.68h-1.43a.16.16 0 0 1-.16-.16v-1.43a.16.16 0 0 1 .16-.16H239a.16.16 0 0 1 .16.16v1.43a.16.16 0 0 1-.16.16zm-1.27-.32h1.11v-1.11h-1.11z"/><path class="cls-40" d="M240.24 147.74h.57v.68h-.57zm-4.58 0h.57v.68h-.57z"/><path class="cls-37" d="M222.9 148.08h10.51v5.47H222.9z"/><path class="cls-40" d="M227.28 148.12h1.66v1.38h-1.66z"/><path class="cls-35" d="M233.41 153.55h-.73l.73-.74v.74zm0-5.47v.77l-.77-.77h.77zm-10.51 5.47v-.73l.73.73h-.73zm0-5.47h.84l-.84.84v-.84z"/></g></g></g></svg>