<?xml version="1.0" encoding="UTF-8"?>
<svg width="538px" height="223px" viewBox="0 0 538 223" version="1.1" xmlns="http://www.w3.org/2000/svg" xmlns:xlink="http://www.w3.org/1999/xlink">
    <!-- Generator: Sketch 41 (35326) - http://www.bohemiancoding.com/sketch -->
    <title>Slice 1</title>
    <desc>Created with Sketch.</desc>
    <defs>
        <linearGradient x1="50.0001138%" y1="30.7598578%" x2="50.0001138%" y2="77.7294671%" id="linearGradient-1">
            <stop stop-color="#F6F3EC" offset="22.35%"></stop>
            <stop stop-color="#F6F3EC" stop-opacity="0.6723" offset="32.77%"></stop>
            <stop stop-color="#F6F3EC" stop-opacity="0" offset="79.3%"></stop>
        </linearGradient>
        <linearGradient x1="49.9896312%" y1="98.2513419%" x2="49.9896312%" y2="81.7948658%" id="linearGradient-2">
            <stop stop-color="#FFFFFF" stop-opacity="0" offset="4.384121%"></stop>
            <stop stop-color="#FFFFFF" stop-opacity="0.6723" offset="39.46%"></stop>
            <stop stop-color="#FFFFFF" offset="53.18%"></stop>
        </linearGradient>
    </defs>
    <g id="Page-1" stroke="none" stroke-width="1" fill="none" fill-rule="evenodd">
        <g id="Group">
            <g id="XMLID_370_" transform="translate(52.000000, 0.000000)">
                <g id="XMLID_375_" opacity="0.48" transform="translate(8.000000, 0.000000)">
                    <polygon id="XMLID_377_" fill="#75CEF4" opacity="0.5" points="378.9 195.7 369.6 127.5 362.9 112.9 326.1 37.1 318.7 10.2 274.3 0 236.1 10.1 157.2 5.1 60 21.1 24.9 43.1 8.6 125.7 0.9 196.6"></polygon>
                    <polygon id="XMLID_376_" fill="#00BFF0" opacity="0.5" points="363.7 195.2 334.8 118.6 295.6 131.2 294.6 45.9 177.5 86.6 98.9 50.3 90 97.9 61.4 78.7 6.8 196.6"></polygon>
                </g>
                <polygon id="XMLID_374_" fill="#75CEF4" opacity="0.5" points="381 195.7 377.6 127.5 337.6 19.4 303.3 0 165.2 5.1 69.2 34.7 43.5 73.9 14.1 148.4 8.9 196.6"></polygon>
                <polygon id="XMLID_371_" fill="#75CEF4" opacity="0.48" points="380.4 195.7 156.6 97.5 160.4 5.1 72.7 13.8 39.5 19.4 24.9 43.1 8.2 125.7 0.3 196.6"></polygon>
            </g>
            <path d="M536.2,207.6 C439.7,199.1 440.1,188.2 399,180.9 C389.4,179.2 380.7,178.5 372.8,178.6 C364.9,178.5 356.2,179.2 346.6,180.9 C305.5,188.3 305.9,199.1 209.4,207.6 C197.7,208.6 304.8,222.3 346.6,222.3 L399,222.3 C440.7,222.3 547.9,208.6 536.2,207.6 Z" id="XMLID_369_" fill="url(#linearGradient-1)"></path>
            <g transform="translate(266.000000, 166.000000)">
                <path d="M16.5,24.1 C16.5,24.1 19.7,26.3 22.4,25.3 C22.4,25.3 22.6,22.9 19.3,20.2 L18.1,21.9 L1.2,9.7 L0.9,10.1 L17.8,22.3 L16.5,24.1 Z" id="Shape" fill="#808080"></path>
                <g transform="translate(3.000000, 0.000000)">
                    <g>
                        <path d="M15,9.1 C15,9.1 13.6,2.7 12.3,0.3 C12.3,0.3 11.9,4.6 9.8,5.1 L15,9.1 Z" id="Shape" fill="#00B2EE"></path>
                        <path d="M12.9,11.4 C11.8,12.9 9.8,13.3 8.3,12.2 L8.3,12.2 C6.8,11.1 6.4,9.1 7.5,7.6 L7.5,7.6 C8.6,6.1 10.6,5.7 12.1,6.8 L12.1,6.8 C13.6,7.8 13.9,9.9 12.9,11.4 L12.9,11.4 Z" id="Shape" fill="#FFDF8A"></path>
                        <path d="M13.1,8 C12.9,7.5 12.5,7.1 12.1,6.8 C10.6,5.7 8.5,6.1 7.5,7.6 C7,8.3 6.8,9 6.9,9.8 C9.9,10.9 12.2,9 13.1,8 Z" id="Shape" fill="#333333"></path>
                        <path d="M10.4,10.7 L10.4,7.7 C10.4,7.7 7.6,10.5 9.7,11.3 L10.4,10.7 Z" id="Shape" fill="#FFDF8A"></path>
                        <path d="M14.6,9.8 C14.5,10 14.2,10 14,9.9 L8.6,6.1 C8.4,6 8.4,5.7 8.5,5.5 L9,4.8 C9.1,4.6 9.4,4.6 9.6,4.7 L15,8.5 C15.2,8.6 15.2,8.9 15.1,9.1 L14.6,9.8 Z" id="Shape" fill="#FFFFFF"></path>
                        <circle id="Oval" fill="#333333" transform="translate(12.115770, 10.295110) rotate(-54.725411) translate(-12.115770, -10.295110) " cx="12.11577" cy="10.29511" r="0.600004563"></circle>
                        <path d="M6.3,20.5 C5.2,22 3.2,22.4 1.7,21.3 C0.2,20.2 -0.2,18.2 0.9,16.7 L3.5,13 C4.6,11.5 6.6,11.1 8.1,12.2 C9.6,13.3 10,15.3 8.9,16.8 L6.3,20.5 Z" id="Shape" fill="#00B2EE"></path>
                        <polyline id="Shape" fill="#FFFFFF" points="3.5 22.5 3.5 26.6 1.8 26.6 1.8 22.5"></polyline>
                        <path d="M2.2,20.3 C3.4,20.3 3.5,20.9 3.5,21.5 L3.5,24 L1.8,24 L1.8,21.2 L2.2,20.3 Z" id="Shape" fill="#00B2EE"></path>
                        <path d="M1.6,26.3 L3.6,26.3 C4.3,27.6 6,27.6 6.3,26.7 C6.3,26.7 7.2,28.5 3.1,28.2 C2.1,28.1 1.3,27.2 1.6,26.3 Z" id="Shape" fill="#333333"></path>
                        <rect id="Rectangle-path" fill="#333333" transform="translate(4.044135, 17.869230) rotate(-54.725411) translate(-4.044135, -17.869230) " x="3.19412854" y="14.5692049" width="1.70001293" height="6.60005019"></rect>
                        <rect id="Rectangle-path" fill="#FFD400" transform="translate(6.935700, 19.884275) rotate(-54.717424) translate(-6.935700, -19.884275) " x="5.98571546" y="19.3842831" width="1.89996908" height="0.499991862"></rect>
                    </g>
                    <path d="M12.6,11 L14.6,13.5 C14.9,13.7 14.6,14.1 14.2,13.8 L11.2,11.6 L12.6,11 Z" id="Shape" fill="#FFDF8A"></path>
                </g>
                <polygon id="Shape" fill="#00B2EE" points="14.5 18.3 10.7 15.4 9.8 17.3 13.7 20.1"></polygon>
                <circle id="Oval" fill="#FFDF8A" transform="translate(14.315910, 19.396380) rotate(-54.725411) translate(-14.315910, -19.396380) " cx="14.31591" cy="19.39638" r="1.30000989"></circle>
            </g>
            <path d="M405.4,218.4 C413.1,212.4 382.7,211.3 380.6,211 C320.4,204.1 320.6,195.4 295,189.5 C289,188.1 283.6,187.6 278.7,187.7 C274.9,187.6 270.8,188 266.4,188.7 C262.1,180 259.8,172.9 259.8,172.9 C256.6,161.4 241.2,152.1 225.2,152.1 C223.8,152.1 222.4,152.2 221.1,152.3 C219.7,152.2 218.3,152.1 216.8,152.1 C215,152.1 213.3,152.2 211.6,152.5 C212.1,141.1 201.2,132.7 183.9,132.7 C182,132.7 180.1,132.8 178.3,133 C176.6,132.8 174.8,132.7 172.9,132.7 C152.1,132.7 130,144.9 123.5,159.8 C123.5,159.8 118.2,170.6 109.7,183.2 C107.3,182.9 104.9,182.9 102.5,183 C95.8,183.4 89.5,185.2 83.3,186.9 C55.6,194.7 27.8,205.3 0.1,218.4 L405.4,218.4 L405.4,218.4 Z" id="Shape" fill="url(#linearGradient-2)"></path>
            <g transform="translate(33.000000, 173.000000)">
                <g transform="translate(1.000000, 0.000000)">
                    <circle id="Oval" fill="#FFDF8A" cx="12.8" cy="20.5" r="1.3"></circle>
                    <path d="M7.2,8.9 C7.2,8.9 9.9,3.2 12.4,2 C12.4,2 11.1,7.3 12.5,9 L7.2,8.9 Z" id="Shape" fill="#00B2EE"></path>
                    <path d="M13.2,12 C13.2,13.8 11.7,15.3 9.9,15.3 L9.9,15.3 C8.1,15.3 6.6,13.8 6.6,12 L6.6,12 C6.6,10.2 8.1,8.7 9.9,8.7 L9.9,8.7 C11.8,8.6 13.2,10.1 13.2,12 L13.2,12 Z" id="Shape" fill="#FFDF8A"></path>
                    <path d="M13.7,9.6 C13.7,9.8 13.5,10 13.3,10 L6.7,10 C6.5,10 6.3,9.8 6.3,9.6 L6.3,8.8 C6.3,8.6 6.5,8.4 6.7,8.4 L13.3,8.4 C13.5,8.4 13.7,8.6 13.7,8.8 L13.7,9.6 Z" id="Shape" fill="#FFFFFF"></path>
                    <circle id="Oval" fill="#333333" cx="8.5" cy="11.5" r="0.6"></circle>
                    <circle id="Oval" fill="#333333" cx="11.2" cy="11.5" r="0.6"></circle>
                    <rect id="Rectangle-path" fill="#00B2EE" x="1.2" y="16.6" width="6.6" height="1.9"></rect>
                    <path d="M13.1,23.2 C13.1,25 11.6,26.5 9.8,26.5 C8,26.5 6.5,25 6.5,23.2 L6.5,18.6 C6.5,16.8 8,15.3 9.8,15.3 C11.6,15.3 13.1,16.8 13.1,18.6 L13.1,23.2 Z" id="Shape" fill="#00B2EE"></path>
                    <polyline id="Shape" fill="#FFFFFF" points="7.9 25.3 7.9 31 9.6 31 9.6 25.3"></polyline>
                    <polyline id="Shape" fill="#00B2EE" points="7.9 25.3 7.9 28.3 9.6 28.3 9.6 25.3"></polyline>
                    <path d="M9.7,30.6 L7.7,30.6 C7,31.9 5.3,31.9 5,31 C5,31 4.1,32.8 8.2,32.5 C9.3,32.5 10.1,31.6 9.7,30.6 Z" id="Shape" fill="#333333"></path>
                    <polyline id="Shape" fill="#FFFFFF" points="12.1 25.3 12.1 31 10.3 31 10.3 25.3"></polyline>
                    <polyline id="Shape" fill="#00B2EE" points="12.1 25.3 12.1 28.3 10.3 28.3 10.3 25.3"></polyline>
                    <path d="M10.2,30.6 L12.2,30.6 C12.9,31.9 14.6,31.9 14.9,31 C14.9,31 15.8,32.8 11.7,32.5 C10.6,32.5 9.9,31.6 10.2,30.6 Z" id="Shape" fill="#333333"></path>
                    <rect id="Rectangle-path" fill="#FFFFFF" x="9.5" y="15.3" width="0.6" height="8.9"></rect>
                    <rect id="Rectangle-path" fill="#333333" x="6.4" y="21.5" width="6.6" height="1.7"></rect>
                    <rect id="Rectangle-path" fill="#FFD400" x="8.9" y="21.4" width="1.7" height="1.9"></rect>
                    <circle id="Oval" fill="#FFFFFF" cx="12.9" cy="1.4" r="0.7"></circle>
                    <path d="M6.6,11.3 L5.5,9.8 C5.5,9.8 4.9,13.7 7,13.2 L6.6,11.3 Z" id="Shape" fill="#FFDF8A"></path>
                    <path d="M12.9,11.3 L14,9.8 C14,9.8 14.6,13.7 12.5,13.2 L12.9,11.3 Z" id="Shape" fill="#FFDF8A"></path>
                    <circle id="Oval" fill="#FFDF8A" cx="1.3" cy="17.5" r="1.3"></circle>
                </g>
                <path d="M4.7,14.5 C4.7,14.5 4.6,10.6 2.3,9 C2.3,9 0.2,10.2 7.10542736e-15,14.5 L2.1,14.5 L2.1,32.4 L2.6,32.4 L2.6,14.5 L4.7,14.5 Z" id="Shape" fill="#808080"></path>
            </g>
            <g transform="translate(171.000000, 115.000000)">
                <g>
                    <circle id="Oval" fill="#FFDF8A" cx="2.2" cy="19.9" r="1.3"></circle>
                    <path d="M7.9,8.3 C7.9,8.3 5.2,2.6 2.7,1.4 C2.7,1.4 4,6.7 2.6,8.4 L7.9,8.3 Z" id="Shape" fill="#E64436"></path>
                    <path d="M1.8,11.3 C1.8,13.1 3.3,14.6 5.1,14.6 L5.1,14.6 C6.9,14.6 8.4,13.1 8.4,11.3 L8.4,11.3 C8.4,9.5 6.9,8 5.1,8 L5.1,8 C3.3,8 1.8,9.5 1.8,11.3 L1.8,11.3 Z" id="Shape" fill="#FFDF8A"></path>
                    <path d="M1.3,9 C1.3,9.2 1.5,9.4 1.7,9.4 L8.3,9.4 C8.5,9.4 8.7,9.2 8.7,9 L8.7,8.2 C8.7,8 8.5,7.8 8.3,7.8 L1.7,7.8 C1.5,7.8 1.3,8 1.3,8.2 L1.3,9 Z" id="Shape" fill="#FFFFFF"></path>
                    <circle id="Oval" fill="#333333" cx="6.6" cy="10.9" r="0.6"></circle>
                    <circle id="Oval" fill="#333333" cx="3.8" cy="10.9" r="0.6"></circle>
                    <rect id="Rectangle-path" fill="#E64436" x="7.2" y="15.9" width="6.6" height="1.9"></rect>
                    <path d="M2,22.6 C2,24.4 3.5,25.9 5.3,25.9 C7.1,25.9 8.6,24.4 8.6,22.6 L8.6,18 C8.6,16.2 7.1,14.7 5.3,14.7 C3.5,14.7 2,16.2 2,18 L2,22.6 Z" id="Shape" fill="#E64436"></path>
                    <polyline id="Shape" fill="#FFFFFF" points="7.2 24.6 7.2 30.3 5.4 30.3 5.4 24.6"></polyline>
                    <polyline id="Shape" fill="#E64436" points="7.2 24.6 7.2 27.7 5.4 27.7 5.4 24.6"></polyline>
                    <path d="M5.3,30 L7.3,30 C8,31.3 9.7,31.3 10,30.4 C10,30.4 10.9,32.2 6.8,31.9 C5.8,31.9 5,30.9 5.3,30 Z" id="Shape" fill="#333333"></path>
                    <polyline id="Shape" fill="#FFFFFF" points="3 24.6 3 30.3 4.7 30.3 4.7 24.6"></polyline>
                    <polyline id="Shape" fill="#E64436" points="3 24.6 3 27.7 4.7 27.7 4.7 24.6"></polyline>
                    <path d="M4.9,30 L2.9,30 C2.2,31.3 0.5,31.3 0.2,30.4 C0.2,30.4 -0.7,32.2 3.4,31.9 C4.4,31.9 5.2,30.9 4.9,30 Z" id="Shape" fill="#333333"></path>
                    <rect id="Rectangle-path" fill="#FFFFFF" x="5" y="14.7" width="0.6" height="8.9"></rect>
                    <rect id="Rectangle-path" fill="#333333" x="2" y="20.9" width="6.6" height="1.7"></rect>
                    <rect id="Rectangle-path" fill="#FFD400" x="4.4" y="20.8" width="1.7" height="1.9"></rect>
                    <circle id="Oval" fill="#FFFFFF" cx="2.1" cy="0.8" r="0.7"></circle>
                    <path d="M8.5,10.6 L9.6,9.1 C9.6,9.1 10.2,13 8.1,12.5 L8.5,10.6 Z" id="Shape" fill="#FFDF8A"></path>
                    <path d="M2.1,10.6 L1,9.1 C1,9.1 0.4,13 2.5,12.5 L2.1,10.6 Z" id="Shape" fill="#FFDF8A"></path>
                    <circle id="Oval" fill="#FFDF8A" cx="13.8" cy="16.9" r="1.3"></circle>
                </g>
                <path d="M11.3,13.9 C11.3,13.9 11.4,10 13.7,8.4 C13.7,8.4 15.8,9.6 16,13.9 L14,13.9 L14,31.8 L13.5,31.8 L13.5,13.9 L11.3,13.9 Z" id="Shape" fill="#808080"></path>
            </g>
            <g transform="translate(438.000000, 182.000000)">
                <path d="M6.7,24.5 C6.7,24.5 3.5,26.7 0.8,25.7 C0.8,25.7 0.6,23.3 3.9,20.6 L5.1,22.3 L22,10.1 L22.3,10.5 L5.4,22.7 L6.7,24.5 Z" id="Shape" fill="#808080"></path>
                <g transform="translate(5.000000, 0.000000)">
                    <g>
                        <path d="M0.2,9.5 C0.2,9.5 1.6,3.1 2.9,0.7 C2.9,0.7 3.3,5 5.4,5.5 L0.2,9.5 Z" id="Shape" fill="#F27B20"></path>
                        <path d="M2.3,11.8 C3.4,13.3 5.4,13.7 6.9,12.6 L6.9,12.6 C8.4,11.5 8.8,9.5 7.7,8 L7.7,8 C6.6,6.5 4.6,6.1 3.1,7.2 L3.1,7.2 C1.6,8.2 1.3,10.3 2.3,11.8 L2.3,11.8 Z" id="Shape" fill="#FFDF8A"></path>
                        <path d="M2.1,8.4 C2.3,7.9 2.7,7.5 3.1,7.2 C4.6,6.1 6.7,6.5 7.7,8 C8.2,8.7 8.4,9.4 8.3,10.2 C5.3,11.3 3,9.4 2.1,8.4 Z" id="Shape" fill="#333333"></path>
                        <path d="M4.8,11.1 L4.8,8.1 C4.8,8.1 7.6,10.9 5.5,11.7 L4.8,11.1 Z" id="Shape" fill="#FFDF8A"></path>
                        <path d="M0.6,10.1 C0.7,10.3 1,10.3 1.2,10.2 L6.6,6.4 C6.8,6.3 6.8,6 6.7,5.8 L6.2,5.1 C6.1,4.9 5.8,4.9 5.6,5 L0.2,8.8 C5.99520433e-14,8.9 5.99520433e-14,9.2 0.1,9.4 L0.6,10.1 Z" id="Shape" fill="#FFFFFF"></path>
                        <circle id="Oval" fill="#333333" transform="translate(3.111390, 10.675830) rotate(-35.274589) translate(-3.111390, -10.675830) " cx="3.11139" cy="10.67583" r="0.600004563"></circle>
                        <path d="M8.9,20.9 C10,22.4 12,22.8 13.5,21.7 C15,20.6 15.4,18.6 14.3,17.1 L11.7,13.4 C10.6,11.9 8.6,11.5 7.1,12.6 C5.6,13.7 5.2,15.7 6.3,17.2 L8.9,20.9 Z" id="Shape" fill="#F27B20"></path>
                        <polyline id="Shape" fill="#FFFFFF" points="11.7 22.9 11.7 27 13.4 27 13.4 22.9"></polyline>
                        <path d="M13,20.7 C11.8,20.7 11.7,21.3 11.7,21.9 L11.7,24.4 L13.4,24.4 L13.4,21.6 L13,20.7 Z" id="Shape" fill="#F27B20"></path>
                        <path d="M13.5,26.7 L11.5,26.7 C10.8,28 9.1,28 8.8,27.1 C8.8,27.1 7.9,28.9 12,28.6 C13.1,28.5 13.9,27.6 13.5,26.7 Z" id="Shape" fill="#333333"></path>
                        <rect id="Rectangle-path" fill="#333333" transform="translate(11.236105, 18.322840) rotate(-35.274589) translate(-11.236105, -18.322840) " x="7.9360799" y="17.4728335" width="6.60005019" height="1.70001293"></rect>
                        <rect id="Rectangle-path" fill="#FFD400" transform="translate(8.662905, 20.016910) rotate(-35.274589) translate(-8.662905, -20.016910) " x="8.1629012" y="19.0669028" width="0.500003802" height="1.90001445"></rect>
                    </g>
                    <path d="M2.6,11.4 L0.6,13.9 C0.3,14.1 0.6,14.5 1,14.2 L4,12 L2.6,11.4 Z" id="Shape" fill="#FFDF8A"></path>
                </g>
                <polygon id="Shape" fill="#F27B20" points="8.7 18.7 12.5 15.7 13.4 17.7 9.5 20.5"></polygon>
                <circle id="Oval" fill="#FFDF8A" transform="translate(8.912560, 19.782370) rotate(-35.274589) translate(-8.912560, -19.782370) " cx="8.91256" cy="19.78237" r="1.30000989"></circle>
                <path d="M14.8,9.7 C15.6,9.8 16.3,9.5 16.8,9 C16.5,8.4 15.8,7.9 15.1,7.8 C14.3,7.7 13.6,8 13.1,8.5 C13.4,9.2 14,9.6 14.8,9.7 Z" id="Shape" fill="#333333"></path>
            </g>
        </g>
    </g>
</svg>