<svg id="slice" xmlns="http://www.w3.org/2000/svg" viewBox="-123 273.3 364.2 247.7"><style>.st0{opacity:.48}.st1{fill:#75cef4}.st1,.st2{opacity:.5;enable-background:new}.st2{fill:#00bff0}.st3{opacity:.5;fill:#e6f6fd}.st3,.st4{enable-background:new}.st4{opacity:.48;fill:#75cef4}.st5{fill:#FFF}.st6{fill:url(#SVGID_1_)}.st7{fill:gray}.st8{fill:#00b2ee}.st9{fill:#ffdf8a}.st10{fill:#333}.st11{fill:#ffd400}.st12{fill:#8f4293}.st13{fill:url(#SVGID_2_)}.st14{fill:#e64436}</style><g id="XMLID_46_"><g id="XMLID_50_"><g id="XMLID_54_" class="st0"><path id="XMLID_58_" class="st1" d="M226.8 492.2l-7.4-115.5-2.6-47.4-23.4-30-23.2-8.5-19.8-15.2h-34.7l-28-2.3L10.6 314l-39.8 20.3-15.4 61.5-23.5 97 294.9-.6z"/><path id="XMLID_57_" class="st2" d="M214.6 491.8l-23.4-121.1-31.7 8.5-.7-57.5-54.2 47.7-63.5-44.9-7.2 52.5-23.2-12.9-44 128.7 247.9-1z"/></g><path id="XMLID_53_" class="st3" d="M198.7 492.2l-6-115.5-59-59.6-22.9-9.5-17.3 1.8-25.4 31.9-30.2 34.5-58.9 20-19 97 238.7-.6z"/><path id="XMLID_52_" class="st1" d="M226.8 492.2l-7.4-115.5-23.6-24.3-43.4-57.4-60 8.3-53 19.6-61.3 35.1-22.7 37.8-23.5 97 294.9-.6z"/><path id="XMLID_51_" class="st4" d="M226.8 492.2l-58-102-47.2-8-13.6 17.5-28.9-118.8L.4 293.3l-29.6 21-15.4 81.5-23.5 97 294.9-.6z"/></g><path id="XMLID_49_" class="st5" d="M237.1 492.3c-10.7-10.4-12.2-38.2-12.2-38.2 0-10.1-10.3-18.4-23.1-18.4-1.1 0-2.3.1-3.3.2-1.1-.2-2.2-.2-3.3-.2-12.7 0-23.1 8.3-23.1 18.4 0 0-1.4 27.7-12.2 38.2h77.2z"/></g><linearGradient id="SVGID_1_" gradientUnits="userSpaceOnUse" x1="126.6" y1="321.098" x2="126.6" y2="277.629" gradientTransform="matrix(1 0 0 -1 0 796.6)"><stop offset=".073" stop-color="#FFF"/><stop offset=".624" stop-color="#FFF"/><stop offset="1" stop-color="#FFF" stop-opacity="0"/></linearGradient><path class="st6" d="M225.5 521c-49.5-28.7-52.5-42-79.4-51.4-7.1-2.5-13.6-3.4-19.5-3.3-5.8-.1-12.3.8-19.5 3.3-26.9 9.3-29.9 22.6-79.4 51.4h197.8z"/><path class="st7" d="M127.1 475.3s-3.2 2.2-5.9 1.2c0 0-.2-2.4 3.1-5.1l1.2 1.7 16.9-12.2.3.4-16.9 12.2 1.3 1.8z"/><path class="st8" d="M125.6 460.3s1.4-6.4 2.7-8.8c0 0 .4 4.3 2.5 4.8l-5.2 4z"/><path class="st9" d="M127.7 462.6c1.1 1.5 3.1 1.9 4.6.8 1.5-1.1 1.9-3.1.8-4.6s-3.1-1.9-4.6-.8c-1.5 1-1.9 3.1-.8 4.6z"/><path class="st10" d="M127.4 459.1c.2-.5.6-.9 1-1.2 1.5-1.1 3.6-.7 4.6.8.5.7.7 1.4.6 2.2-2.9 1.1-5.2-.7-6.2-1.8z"/><path class="st9" d="M130.1 461.9v-3s2.8 2.8.7 3.6l-.7-.6z"/><path class="st5" d="M125.9 460.9c.1.2.4.2.6.1l5.4-3.8c.2-.1.2-.4.1-.6l-.5-.7c-.1-.2-.4-.2-.6-.1l-5.4 3.8c-.2.1-.2.4-.1.6l.5.7z"/><circle class="st10" cx="128.5" cy="461.4" r=".6"/><path class="st8" d="M134.3 471.6c1.1 1.5 3.1 1.9 4.6.8s1.9-3.1.8-4.6l-2.6-3.7c-1.1-1.5-3.1-1.9-4.6-.8-1.5 1.1-1.9 3.1-.8 4.6l2.6 3.7z"/><path class="st5" d="M137.1 473.7v4.1h1.7v-4.1"/><path class="st8" d="M138.4 471.4c-1.2 0-1.3.6-1.3 1.2v2.5h1.7v-2.8l-.4-.9z"/><path class="st10" d="M138.9 477.4h-2c-.7 1.3-2.4 1.3-2.7.4 0 0-.9 1.8 3.2 1.5 1.1 0 1.9-.9 1.5-1.9zm.9-9.6l-5.4 3.8-1-1.4 5.4-3.8 1 1.4z"/><path class="st11" d="M134.6 471.5l-.4.3-1.1-1.6.4-.3 1.1 1.6z"/><path class="st9" d="M128 462.2l-2 2.5c-.3.2 0 .6.4.3l3-2.2-1.4-.6z"/><path class="st8" d="M129.1 469.5l3.8-3 .9 1.9-3.9 2.9-.8-1.8z"/><circle class="st9" cx="129.3" cy="470.5" r="1.3"/><path class="st7" d="M-34.9 481s3.2 2.2 5.9 1.2c0 0 .2-2.4-3.1-5.1l-1.2 1.7-16.9-12.2-.3.4 16.8 12.3-1.2 1.7z"/><path class="st12" d="M-33.5 466.1s-1.4-6.4-2.7-8.8c0 0-.4 4.3-2.5 4.8l5.2 4z"/><path class="st9" d="M-35.6 468.4c-1.1 1.5-3.1 1.9-4.6.8-1.5-1.1-1.9-3.1-.8-4.6s3.1-1.9 4.6-.8c1.5 1 1.9 3.1.8 4.6z"/><path class="st10" d="M-35.3 464.9c-.2-.5-.6-.9-1-1.2-1.5-1.1-3.6-.7-4.6.8-.5.7-.7 1.4-.6 2.2 3 1.1 5.2-.8 6.2-1.8z"/><path class="st9" d="M-38 467.7v-3s-2.8 2.8-.7 3.6l.7-.6z"/><path class="st5" d="M-33.8 466.7c-.1.2-.4.2-.6.1l-5.4-3.8c-.2-.1-.2-.4-.1-.6l.5-.7c.1-.2.4-.2.6-.1l5.4 3.8c.2.1.2.4.1.6l-.5.7z"/><circle class="st10" cx="-36.3" cy="467.2" r=".6"/><path class="st12" d="M-42.2 477.4c-1.1 1.5-3.1 1.9-4.6.8-1.5-1.1-1.9-3.1-.8-4.6l2.6-3.7c1.1-1.5 3.1-1.9 4.6-.8 1.5 1.1 1.9 3.1.8 4.6l-2.6 3.7z"/><path class="st5" d="M-44.9 479.4v4.2h-1.8v-4.2"/><path class="st12" d="M-46.3 477.2c1.2 0 1.3.6 1.3 1.2v2.5h-1.7v-2.8l.4-.9z"/><path class="st10" d="M-46.8 483.2h2c.7 1.3 2.4 1.3 2.7.4 0 0 .9 1.8-3.2 1.5-1.1 0-1.9-.9-1.5-1.9zm.1-11l5.4 3.8-1 1.4-5.4-3.8 1-1.4z"/><path class="st11" d="M-41.4 475.7l.4.3-1.1 1.6-.4-.3 1.1-1.6z"/><path class="st9" d="M-35.9 467.9l2 2.5c.3.2 0 .6-.4.3l-3-2.2 1.4-.6z"/><path class="st12" d="M-37 475.3l-3.8-3-.8 1.9 3.8 2.9.8-1.8z"/><circle class="st9" cx="-37.1" cy="476.3" r="1.3"/><path class="st10" d="M-43.1 466.3c-.8.1-1.5-.2-2-.7.3-.6 1-1.1 1.7-1.2.8-.1 1.5.2 2 .7-.3.6-1 1.1-1.7 1.2z"/><linearGradient id="SVGID_2_" gradientUnits="userSpaceOnUse" x1="15.9" y1="318.833" x2="15.9" y2="287.537" gradientTransform="matrix(1 0 0 -1 0 796.6)"><stop offset=".073" stop-color="#FFF"/><stop offset=".624" stop-color="#FFF"/><stop offset="1" stop-color="#FFF" stop-opacity="0"/></linearGradient><path class="st13" d="M154.7 510.6c-69.5-20.7-73.7-30.2-111.5-37-10-1.8-19.1-2.5-27.3-2.4-8.2-.1-17.3.6-27.3 2.4-37.8 6.7-42 16.3-111.5 37h277.6z"/><circle class="st9" cx="-10.7" cy="474.2" r="1.3"/><circle class="st9" cx="1.2" cy="474.3" r="1.3"/><path class="st14" d="M-7.3 463.4s2.7-5.7 5.2-6.9c0 0-1.3 5.3.1 7l-5.3-.1z"/><path class="st9" d="M-1.2 466.5c0 1.8-1.5 3.3-3.3 3.3s-3.3-1.5-3.3-3.3c0-1.8 1.5-3.3 3.3-3.3s3.3 1.5 3.3 3.3z"/><path class="st5" d="M-.7 464.1c0 .2-.2.4-.4.4h-6.6c-.2 0-.4-.2-.4-.4v-.8c0-.2.2-.4.4-.4h6.6c.2 0 .4.2.4.4v.8z"/><circle class="st10" cx="-5.9" cy="466" r=".6"/><circle class="st10" cx="-3.2" cy="466" r=".6"/><path class="st14" d="M-8 474.3v-1.1c0-1.8 1.5-3.3 3.3-3.3s3.3 1.5 3.3 3.3v1.1"/><path class="st5" d="M-5 470h.6v5.2H-5V470z"/><circle class="st5" cx="-1.5" cy="456" r=".7"/><path class="st9" d="M-7.8 465.8l-1.2-1.5s-.6 3.9 1.5 3.4l-.3-1.9zm6.3 0l1.1-1.5s.6 3.9-1.5 3.4l.4-1.9z"/></svg>