<svg id="slice" xmlns="http://www.w3.org/2000/svg" width="379.9" height="271.1" viewBox="0 0 379.9 271.1"><style>.st0{opacity:.11;fill:#231f20}.st1{fill:#94917f}.st2{fill:#baafa2}.st3{fill:#785768}.st4{fill:#aaa89a}.st5{opacity:.1}.st6{fill:#8ce1f9}.st7{fill:#ceccbf}.st8{fill:#8d667a}.st9{fill:#918c84}.st10{fill:#c2beb6}.st11{fill:#f0e1d1}.st12{fill:#b6b4a8}.st13{fill:#94938a}.st14{fill:#7d7c71}.st15{fill:#633b4f}.st16{fill:#85837d}.st17{fill:#8a7665}.st18{fill:#6a695c}.st19{fill:#b9b7a4}.st20{fill:#2f9f42}.st21{opacity:.13}.st22{opacity:.2;fill:#231f20}.st23{fill:#d53e2e}.st24{fill:#003673}.st25{fill:#f09a1a}.st26{fill:#fdbf0f}.st27{fill:#736357}.st28{fill:#d84637}.st29{fill:#00a9e9}.st30{fill:#ffde00}.st31{fill:#48b780}.st32{fill:#7c6959}.st33{fill:#d3ae6e}.st34{fill:#fff}.st35{fill:#ffe95a}.st36{fill:#ffc300}.st37{fill:#f27b20}.st38{fill:#ee3837}.st39{fill:#4c8bfb}.st40{fill:#b757c5}.st41{fill:#ffdf8a}.st42{fill:#333}.st43{fill:#6a57ab}.st44{fill:#5d377a}.st45{fill:#393939}.st46{fill:#fde08b}.st47{fill:#dc3126}.st48{fill:#fdd500}.st49{fill:#515c5d}.st50{fill:#7d8586}.st51{fill:#afd136}.st52{fill:url(#SVGID_1_)}.st53{fill:url(#SVGID_2_)}.st54{fill:#e8d184}.st55{fill:#ca7836}.st56{fill:#54d184}.st57{opacity:.48}.st58{opacity:.5;fill:#75cef4}.st59{opacity:.5;fill:#00bff0}.st60{opacity:.5;fill:#e6f6fd}.st61{opacity:.48;fill:#75cef4}.st62{fill:url(#SVGID_3_)}.st63{fill:gray}.st64{fill:#8f4293}.st65{fill:#ffd400}.st66{fill:url(#SVGID_4_)}.st67{fill:#28ae4b}.st68{fill:#e64436}.st69{fill:url(#SVGID_5_)}.st70{fill:url(#XMLID_113_)}.st71{opacity:.17;fill:#fff}.st72{fill:url(#SVGID_6_)}.st73{fill:url(#SVGID_7_)}.st74{fill:#00b2ee}.st75{fill:#b89860}.st76{fill:#b0b0b0}.st77{fill:#864537}.st78{fill:#fbcf99}.st79{fill:#fbcd48}.st80{fill:#fd0}.st81{fill:#d2392c}.st82{fill:url(#SVGID_8_)}.st83{fill:url(#SVGID_9_)}.st84{fill:url(#SVGID_10_)}.st85{fill:url(#SVGID_11_)}.st86{fill:url(#XMLID_213_)}.st87{fill:#afd77d}.st88{opacity:.1;fill:#231f20}.st89{fill:#7cb342}.st90{fill:#f9ce1d}.st91{fill:#ffe36c}.st92{fill:#5e35b1}.st93{fill:#9575cd}.st94{fill:#29b6f6}.st95{fill:#4ad0ff}.st96{fill:#9dce2e}.st97{fill:#e53935}.st98{fill:#f94b4b}.st99{fill:#fb8c00}.st100{fill:#fc9f42}.st101{fill:#9dca3b}.st102{fill:#66a622}.st103{fill:#ffb300}.st104{fill:#f57c00}.st105{fill:#a1cacf}.st106{fill:#dff3f5}.st107{fill:#bad7db}.st108{fill:#c3dfe3}.st109{fill:#bcdee3}.st110{opacity:.5}.st111{opacity:.8}.st112{fill:url(#XMLID_215_)}.st113{fill:url(#SVGID_12_)}.st114{fill:#f6f3ec}.st115{fill:#d7d7d7}.st116{fill:#959d9e}.st117{fill:#b3b3b3}.st118{fill:#e0e0e0}.st119{fill:#4d4d4d}.st120{fill:#595959}.st121{fill:#ffeb5e}.st122{fill:#6d7576}.st123{fill:#c9e09d}.st124{fill:#8f8f8f}.st125{fill:#5c6566}.st126{fill:#a19e97}.st127{fill:#61c6ec}.st128{fill:#77bf82}.st129{fill:#f3ff73}.st130{fill:url(#XMLID_218_)}.st131{fill:url(#SVGID_13_)}.st132{fill:url(#SVGID_14_)}.st133{fill:url(#XMLID_221_)}.st134{fill:#555047}.st135{fill:#896339}.st136{fill:#736f68}.st137{fill:#949494}.st138{fill:#83dee8}.st139{fill:#85827d}.st140{opacity:.2}.st141{fill:#404040}.st142{fill:silver}.st143{fill:#eee}.st144{fill:#44c2c2}.st144,.st145{clip-path:url(#SVGID_16_)}.st145{fill:#a3d89f}.st146{fill:#c83a74}.st146,.st147{clip-path:url(#SVGID_16_)}.st147{fill:#ffa376}.st148{opacity:.24}.st149{opacity:.48;fill:#85827d}.st150{opacity:.48;fill:none;stroke:#85827d;stroke-width:.9;stroke-miterlimit:10}.st151{opacity:.83;fill:#85827d}.st152{fill:#888480}.st153{fill:#7099ba}.st154{fill:#b0e1e8}.st155{opacity:.22;fill:#fff}.st156{fill:url(#XMLID_230_)}.st157{fill:url(#SVGID_17_)}.st158{fill:url(#SVGID_18_)}.st159{fill:url(#XMLID_231_)}.st160{fill:#9db9bd}.st161{fill:#d1e3e6}.st162{fill:#b6d6db}.st163{fill:#9ccfd9}.st164{fill:#b4d3d9}.st165{fill:#97babf}.st166{fill:#c1dff5}.st167{fill:#c5e7eb}.st168{fill:#8ab8d4}.st169{fill:#e6e6e6}.st170{fill:#716e69}.st171{fill:#71bdde}.st172{fill:#659bc7}.st173{fill:#70afd4}.st174{fill:none}.st175{fill:#97cee6}.st176{opacity:8e-2;fill:#0f0f0f}.st177{opacity:.1;fill:#0f0f0f}.st178{fill:#385fe4}.st179{fill:#ccc}.st180{fill:#2986e4}.st181{opacity:.21}.st182{clip-path:url(#SVGID_20_)}.st183{filter:url(#Adobe_OpacityMaskFilter)}.st184{mask:url(#SVGID_21_);fill:#33659a}.st185{filter:url(#Adobe_OpacityMaskFilter_1_)}.st186{mask:url(#SVGID_22_);fill:#385fe4}.st187{filter:url(#Adobe_OpacityMaskFilter_2_)}.st188{opacity:.17;mask:url(#SVGID_23_)}.st189{clip-path:url(#SVGID_25_)}.st190{opacity:.77}.st191{fill:#e8c97b}.st192{fill:#2d56e2}.st193{opacity:.11}.st194{fill:#0bbf68}.st195{fill:#98bee4}.st196{fill:#3f5656}.st197{fill:#d7c17d}.st198{opacity:.2;fill:#fff}.st199{fill:url(#SVGID_26_)}.st200{fill:url(#XMLID_342_)}.st201{fill:url(#SVGID_27_)}.st202{fill:url(#XMLID_352_)}.st203{fill:#9c9c9c}.st204{fill:#808082}.st205{fill:#9ed5ec}.st206{fill:#cacaca}.st207{fill:#e3e3e3}.st208{fill:#979797}.st209{fill:#9e9e9e}.st210{opacity:.58;fill:#c7ffff}.st211{opacity:.25}.st212{fill:#a52e22}.st213{fill:#e63636}.st214{fill:url(#XMLID_360_)}.st215{fill:url(#XMLID_362_)}.st216{fill:#969696}.st217{fill:#0158bb}.st218{fill:#1565c0}.st219{fill:#3dd1f9}.st220{fill:#f5a816}.st221{fill:#c62828}.st222{fill:#bdbdbd}.st223{fill:#a5a5a5}.st224{fill:#424242}.st225{fill:#e6e7e8}.st226{clip-path:url(#SVGID_31_);fill:#fff}.st227{fill:#e91c24}.st227,.st228{clip-path:url(#SVGID_31_)}.st228{fill:#1976d2}.st229{fill:#4d8acf}.st230{fill:none;stroke:#fff;stroke-width:.9;stroke-miterlimit:10}.st231{fill:#00adee}.st232{clip-path:url(#SVGID_33_);fill:#fff}.st233{fill:#dbdbdb}.st234{fill:url(#SVGID_34_)}.st235{fill:url(#SVGID_35_)}.st236{fill:url(#SVGID_36_)}.st237{fill:url(#SVGID_37_)}.st238{fill:url(#SVGID_38_)}.st239{fill:url(#SVGID_39_)}.st240{fill:url(#SVGID_40_)}.st241{fill:url(#SVGID_41_)}.st242{fill:#f7ce97}.st243{fill:#4c4c4c}.st244{fill:#e9e9e9}.st245{fill:#eb9b95}.st246{fill:#656565}.st247{fill:#5e5a48}.st248{fill:url(#SVGID_42_)}.st249{fill:url(#SVGID_43_)}.st250{fill:#999}.st251{opacity:.36;fill:#00a64c}.st252{fill:#d4d4d4}.st252,.st253{fill-rule:evenodd;clip-rule:evenodd}.st253{fill:#fff}.st254{fill:#008141}.st254,.st255{fill-rule:evenodd;clip-rule:evenodd}.st255{fill:#00a64c}.st256{fill:#28b265}.st257{opacity:.4;fill:#ffe000}.st258{fill:#c8cbcc}.st259{fill:#b8b8b8}.st260{fill:#949496}.st261{fill:#c8ead4}.st262{fill:#7d8485}.st263{fill:#2364d5}.st264{fill:url(#XMLID_368_)}.st265{fill:url(#SVGID_44_)}.st266{fill:url(#SVGID_45_)}.st267{fill:url(#SVGID_46_)}.st268{fill:#8700ee}.st269{fill:#00b533}.st270{fill:#eeda00}.st271{fill:#f2206d}.st272{fill:#6299fb}.st273{opacity:.7;fill:url(#SVGID_47_)}.st274{opacity:.7;fill:url(#SVGID_48_)}.st275{opacity:.7;fill:url(#SVGID_49_)}.st276{fill:#ee5e5d}.st277{fill:#e09d17}.st278{fill:#f0ede9}.st279{clip-path:url(#SVGID_51_)}.st280{fill:#eec85c}.st281{opacity:.32;fill:#9a0000}.st282{fill:#f0f0f0}.st283{fill:#81d4fa}.st284{opacity:.49;fill:#c9edfc}.st285{fill:#d8746a}.st286{fill:#fcbe8d}.st287{fill:#00a9e7}.st288{fill:#6a7173}.st289{opacity:.6}.st290{fill:url(#SVGID_52_)}.st291{fill:url(#SVGID_53_)}.st292{fill:url(#XMLID_388_)}.st293{fill:url(#SVGID_54_)}.st294{fill:url(#SVGID_55_)}.st295{fill:url(#SVGID_56_)}.st296{fill:url(#SVGID_57_)}.st297{fill:#67635d}.st298{fill:#999690}.st299{fill:#e6da91}.st300{opacity:.55;fill:#bbaf3e}.st301{fill:#a8a69b}.st302{clip-path:url(#SVGID_59_)}.st303{fill:url(#SVGID_60_)}.st304{fill:url(#SVGID_61_)}.st305{opacity:.1;clip-path:url(#SVGID_59_)}.st306{clip-path:url(#SVGID_63_)}.st307{fill:#e3e3e2}.st308{fill:#cf4140}.st309{fill:url(#SVGID_64_)}.st310{fill:url(#SVGID_65_)}.st311{fill:url(#SVGID_66_)}.st312{fill:url(#SVGID_67_)}.st313{fill:#666}.st314{fill:#c1161c}.st315{fill:#b47945}.st316{fill:#d9dadb}.st317{fill:#36af49}.st318{fill:#2a943e}.st319{fill:#9ea0a2}.st320{fill:#bebfc1}.st321{fill:#f5961d}.st322{fill:#ffef00}.st323{fill:#6d6d6d}.st324{fill:url(#SVGID_68_)}.st325{fill:url(#XMLID_391_)}.st326{fill:#795d00}.st327{fill:#bb8024}.st327,.st328{clip-path:url(#SVGID_70_)}.st328{opacity:.1}.st329{fill:#955d00}.st330{fill:#f38836}.st331{fill:url(#XMLID_392_)}.st332{fill:url(#SVGID_71_)}.st333{fill:url(#SVGID_72_)}.st334{fill:url(#XMLID_393_)}.st335{opacity:.99}.st336{fill:#e8af38}.st337{fill:#98ab00}.st338{fill:#e75c52}.st339{fill:#a9897d}.st340{fill:#cb9d7b}.st341{fill:#996b63}.st342{fill:#35b8e8}.st343{opacity:.12;fill:url(#SVGID_73_)}.st344{opacity:.12;fill:url(#SVGID_74_)}.st345{opacity:.28;fill:url(#SVGID_77_)}.st346{opacity:.2;clip-path:url(#SVGID_81_)}.st347{fill:#fff59c}.st348{fill:#ebdbce}.st349{fill:#b07a53}.st350{fill:#1185ba}.st351{fill:#1f57a1}.st351,.st352{opacity:.32}.st353{fill:#c28d65}.st354{fill:#eb776f}.st355{fill:#afdb39}.st356{fill:#ebdb57}.st357{opacity:.16}.st358{fill:#cba483}.st359{fill:url(#XMLID_394_)}.st360{fill:url(#SVGID_82_)}.st361{fill:url(#SVGID_83_)}.st362{fill:#bee6eb}.st363{fill:#f9df00}.st364{fill:#d84733}.st365{fill:#fce000}.st366{fill:#575757}.st367{fill:#b3b2b3}.st368{fill:#e5e5e4}.st369{fill:#d5302b}.st370{fill:url(#SVGID_84_)}.st371{fill:url(#SVGID_85_)}.st372{fill:#ec4180}.st373{fill:#fbcb54}.st374{fill:#7296f0}.st375{fill:#fc793d}.st376{opacity:.14}.st377{fill:#404144}.st378{fill:#606163}.st379{opacity:.3}.st380,.st381{fill:#d7b256}.st381{opacity:.38}.st382{fill:#3d3d39}.st383{fill:#393b36}.st384{opacity:.6;fill:#3bff65}.st385{opacity:.6;fill:#fc793d}.st386{clip-path:url(#SVGID_87_)}.st387{opacity:.29}.st388{fill:#9a51a8}.st389{fill:#fef6e0}.st390{fill:#a06ea9}.st391{fill:#353535}.st392{clip-path:url(#SVGID_89_);fill:#fff}.st393{opacity:.23;fill:#fff}.st394{opacity:.13;fill:#fff}.st395{opacity:5e-2}.st396{opacity:.45}.st397{opacity:.2}.st397,.st398{fill:#fff170}.st399{opacity:.21;fill:#fff}.st400{opacity:.1;fill:#fff}.st401{opacity:.27;fill:url(#SVGID_90_)}.st402{opacity:.27;fill:url(#SVGID_91_)}.st403{fill:url(#SVGID_92_)}.st404{fill:url(#SVGID_93_)}.st405{fill:#2850a8}.st406{fill:#286ee4}.st407{fill:#0053df}.st408{fill:#007dd0}.st409{fill:#2891e4}.st410{opacity:.72}.st411{opacity:.28;fill:url(#SVGID_94_)}.st412{opacity:.28;fill:url(#SVGID_95_)}.st413{fill:#2d6b7f}.st414,.st415{fill:#ff7c40}.st415{opacity:.21}.st416{opacity:.28;fill:url(#SVGID_96_)}.st417{opacity:.28;fill:url(#SVGID_97_)}.st418{opacity:.28;fill:url(#SVGID_98_)}.st419{opacity:.28;fill:url(#SVGID_99_)}.st420,.st421{fill:#ffee0a}.st421{opacity:.21}.st422{opacity:.28;fill:url(#SVGID_100_)}.st423{opacity:.28;fill:url(#SVGID_101_)}.st424,.st425{fill:#fd45ff}.st425{opacity:.21}.st426{opacity:.28;fill:url(#SVGID_102_)}.st427{opacity:.28;fill:url(#SVGID_103_)}.st428,.st429{fill:#52ff52}.st429{opacity:.21}.st430{opacity:.28;fill:url(#SVGID_104_)}.st431{opacity:.28;fill:url(#SVGID_105_)}.st432{opacity:.28;fill:url(#SVGID_106_)}.st433{opacity:.28;fill:url(#SVGID_107_)}.st434,.st435{fill:#59fff3}.st435{opacity:.21}.st436{opacity:.28;fill:url(#SVGID_108_)}.st437{opacity:.28;fill:url(#SVGID_109_)}.st438{opacity:.28;fill:url(#SVGID_110_)}.st439{opacity:.28;fill:url(#SVGID_111_)}.st440{opacity:.28;fill:url(#SVGID_112_)}.st441{opacity:.28;fill:url(#SVGID_113_)}.st442{opacity:.28;fill:url(#SVGID_114_)}.st443{opacity:.28;fill:url(#SVGID_115_)}.st444{opacity:.28;fill:url(#SVGID_116_)}.st445{opacity:.28;fill:url(#SVGID_117_)}.st446{opacity:.28;fill:url(#SVGID_118_)}.st447{opacity:.28;fill:url(#SVGID_119_)}.st448{opacity:.28;fill:url(#SVGID_120_)}.st449{opacity:.28;fill:url(#SVGID_121_)}.st450{opacity:.28;fill:url(#SVGID_122_)}.st451{opacity:.28;fill:url(#SVGID_123_)}.st452{opacity:.28;fill:url(#SVGID_124_)}.st453{opacity:.28;fill:url(#SVGID_125_)}.st454{opacity:.28;fill:url(#SVGID_126_)}.st455{opacity:.28;fill:url(#SVGID_127_)}.st456{opacity:.28;fill:url(#SVGID_128_)}.st457{opacity:.28;fill:url(#SVGID_129_)}.st458{opacity:.28;fill:url(#SVGID_130_)}.st459{opacity:.28;fill:url(#SVGID_131_)}.st460{opacity:.28;fill:url(#SVGID_132_)}.st461{opacity:.28;fill:url(#SVGID_133_)}.st462{opacity:.28;fill:url(#SVGID_134_)}.st463{opacity:.28;fill:url(#SVGID_135_)}.st464{opacity:.28;fill:url(#SVGID_136_)}.st465{opacity:.28;fill:url(#SVGID_137_)}.st466{opacity:.28;fill:url(#SVGID_138_)}.st467{opacity:.28;fill:url(#SVGID_139_)}.st468{opacity:.28;fill:url(#SVGID_140_)}.st469{opacity:.28;fill:url(#SVGID_141_)}.st470{opacity:.28;fill:url(#SVGID_142_)}.st471{opacity:.28;fill:url(#SVGID_143_)}.st472{opacity:.28;fill:url(#SVGID_144_)}.st473{opacity:.28;fill:url(#SVGID_145_)}.st474{opacity:.28;fill:url(#SVGID_146_)}.st475{opacity:.28;fill:url(#SVGID_147_)}.st476{opacity:.28;fill:url(#SVGID_148_)}.st477{opacity:.28;fill:url(#SVGID_149_)}.st478{opacity:.28;fill:url(#SVGID_150_)}.st479{opacity:.28;fill:url(#SVGID_151_)}.st480{opacity:.28;fill:url(#SVGID_152_)}.st481{opacity:.28;fill:url(#SVGID_153_)}.st482{opacity:.28;fill:url(#SVGID_154_)}.st483{opacity:.28;fill:url(#SVGID_155_)}.st484{opacity:.28;fill:url(#SVGID_156_)}.st485{opacity:.28;fill:url(#SVGID_157_)}.st486{opacity:.28;fill:url(#SVGID_158_)}.st487{opacity:.28;fill:url(#SVGID_159_)}.st488{opacity:.28;fill:url(#SVGID_160_)}.st489{opacity:.28;fill:url(#SVGID_161_)}.st490{opacity:.28;fill:url(#SVGID_162_)}.st491{opacity:.28;fill:url(#SVGID_163_)}.st492{opacity:.28;fill:url(#SVGID_164_)}.st493{opacity:.28;fill:url(#SVGID_165_)}.st494{opacity:.28;fill:url(#SVGID_166_)}.st495{opacity:.28;fill:url(#SVGID_167_)}.st496{opacity:.28;fill:url(#SVGID_168_)}.st497{opacity:.28;fill:url(#SVGID_169_)}.st498{opacity:.28;fill:url(#SVGID_170_)}.st499{opacity:.28;fill:url(#SVGID_171_)}.st500{opacity:.28;fill:url(#SVGID_172_)}.st501{opacity:.28;fill:url(#SVGID_173_)}.st502{fill:#898f90}.st503{opacity:.25;fill:#fff}.st504{fill:#00b8f0}.st505{fill:#00a7f0}.st506{opacity:.91;fill:url(#SVGID_174_)}.st507{opacity:.12;fill:#ffee0a}.st508{opacity:.62}.st509{fill:url(#SVGID_175_)}.st510{fill:url(#SVGID_176_)}.st511{fill:url(#SVGID_177_)}.st512{fill:url(#SVGID_178_)}.st513{fill:#7d857e}.st514{fill:#89908a}.st515{opacity:.91;fill:url(#SVGID_179_)}.st516{opacity:.12}.st516,.st517{fill:#78ff5e}.st518{fill:url(#SVGID_180_)}.st519{fill:url(#SVGID_181_)}.st520{fill:url(#SVGID_182_)}.st521{fill:url(#SVGID_183_)}.st522{fill:#85847d}.st523{fill:#908f89}.st524{opacity:.91;fill:url(#SVGID_184_)}.st525{opacity:.12;fill:#ff5e91}.st526{fill:#ff8373}.st527{fill:url(#SVGID_185_)}.st528{fill:url(#SVGID_186_)}.st529{fill:url(#SVGID_187_)}.st530{fill:url(#SVGID_188_)}.st531{fill:#5d6667}.st532{fill:url(#XMLID_395_)}.st533{fill:url(#XMLID_401_)}.st534{fill:url(#SVGID_189_)}.st535{fill:#b13837}.st536{fill:#3b627a}.st537{fill:url(#SVGID_190_)}.st538{fill:url(#XMLID_405_)}.st539{fill:url(#SVGID_191_)}.st540{fill:#754517}.st541{fill:#845930}.st542{fill:#a35f25}.st543{fill:#aa6c37}.st544{fill:#b07644}.st545{fill:#efdbc1}.st546{fill:#ffc805}.st547{fill:#231f20}.st548{fill:#00a351}.st549{fill:#084}.st550{fill:#ef6522}.st551{fill:#7a4b1f}.st552{fill:#32cbe6}.st553{fill:url(#SVGID_192_)}.st554{opacity:.1;fill:#005fd0}.st555{fill:#e6e5e1}.st556{fill:#7b9eb8}.st557{fill:#a5b3ad}.st558{fill:#c7c7c7}.st559{fill:url(#XMLID_412_)}.st560{fill:url(#SVGID_193_)}.st561{fill:url(#SVGID_194_)}.st562{fill:#388e3c}.st563{fill:#2e7d32}.st564{fill:#ffe18c}.st565{opacity:.25;fill:#29b6f6}.st566{fill:#414042}.st567{fill:#2f4c52}.st568{fill:#455d82}.st569{fill:#795548}.st570{fill:#d3d4d6}.st571{fill:#bcbec0}.st572{clip-path:url(#SVGID_196_)}.st573{fill:url(#SVGID_197_)}.st574{fill:url(#SVGID_198_)}.st575{clip-path:url(#SVGID_200_)}.st576{opacity:.5;fill:#f9ce1d}.st577{opacity:.28}.st578{fill:#d7d8d9}.st579{fill:#ebeced}.st580{fill:#ffd600}.st581{fill:#039be5}.st582{fill:url(#XMLID_418_)}.st583{fill:url(#SVGID_201_)}.st584{fill:#34d4f0}.st585{fill:#74e4f6}.st585,.st586{opacity:.51}.st587{fill:#74e4f6}.st588{fill:url(#XMLID_420_)}.st589{fill:#434fbf}.st590{opacity:.51}.st590,.st591{fill:#7182f0}.st592{opacity:.36}.st593{opacity:.38}.st594{opacity:.39;fill:#ffff5c}.st595{opacity:.58;fill:#fff}.st596{opacity:.19;fill:#73c1de}.st597{opacity:.19;fill:#7335de}.st598{fill:#f5f2e2}.st599{fill:#a3a2a1}.st600{fill:#5a99d1}.st601{fill:#b8a485}.st602{fill:#eee5d5}.st603{fill:#ffc}.st604{fill:#ffd200}.st605{fill:#f26e21}.st606{fill:#f5871f}.st607{fill:#cfcfcf}.st608{fill:#019049}.st609{fill:#07a860}.st610{fill:#ab00ee}.st611{fill:#93d8f7}.st612{fill:#725d4c}.st613{fill:#028f1f}.st614{fill:#0da760}.st615{fill:#f4c138}.st616{fill:#f9646d}</style><g id="New_Symbol_80"><ellipse class="st5" cx="182.7" cy="228.1" rx="98.4" ry="6.3"/><path class="st535" d="M229.1 99.3h27.8l-14-14.1h-13.8z"/><path class="st39" d="M229.1 99.3h27.8v126.2h-27.8z"/><path class="st140" d="M229.1 99.3h27.8v126.2h-27.8z"/><path class="st536" d="M233.4 49.3h2.6v165.3h-2.6zm9.4 0h2.6v177.1h-2.6z"/><path class="st204" d="M192.9 42.5h2.1v148.6h-2.1z"/><circle class="st204" cx="194" cy="43.2" r="2.7"/><path class="st204" d="M201.6 21.3h2.1v148.6h-2.1z"/><circle class="st204" cx="202.7" cy="22" r="2.7"/><path class="st204" d="M210.6 59.4h2.1V208h-2.1z"/><circle class="st204" cx="211.6" cy="60.1" r="2.7"/><path class="st536" d="M115.3 54.5h2.6v168.4h-2.6z"/><circle class="st536" cx="116.6" cy="55.2" r="2.7"/><circle class="st536" cx="116.6" cy="67" r="2.7"/><path class="st536" d="M102.1 65.6h28.3v2.6h-28.3z"/><circle class="st536" cx="101.6" cy="67" r="4.6"/><circle class="st536" cx="131.6" cy="67" r="4.6"/><path class="st38" d="M229.1 99.3H122.6l14-14.1h92.5z"/><path class="st30" d="M145.1 99.5c0-16.8 13.7-30.5 30.5-30.5s30.5 13.7 30.5 30.5"/><path class="st38" d="M160.1 99.7c0-8.8 7.1-15.9 15.9-15.9s15.9 7.1 15.9 15.9"/><path class="st39" d="M122.6 99.3h106.5v107.8H122.6z"/><path class="st30" d="M133.3 143.9v-17.6c0-4.4 3.6-8 8-8s8 3.6 8 8v17.6h-16z"/><path class="st536" d="M130.5 143.9h21.7v5.5h-21.7z"/><path class="st30" d="M202.5 143.9v-17.6c0-4.4 3.6-8 8-8s8 3.6 8 8v17.6h-16z"/><path class="st536" d="M199.7 143.9h21.7v5.5h-21.7z"/><path class="st30" d="M169.1 143.9v-17.6c0-4.4 3.6-8 8-8s8 3.6 8 8v17.6h-16z"/><path class="st536" d="M166.2 143.9h21.7v5.5h-21.7z"/><path class="st140" d="M135.6 160.5H216v46.6h-80.4z"/><path class="st536" d="M134.7 203.4h81.7v3.5h-81.7zm5.2-3.6h71.4v3.5h-71.4z"/><path class="st5" d="M160.3 175.8h11.5v24.1h-11.5zm-12.4 0h11.5v24.1h-11.5z"/><path class="st16" d="M156.6 186.3h1.7v4.3h-1.7zm4.8 0h1.7v4.3h-1.7z"/><path class="st5" d="M194.4 175.8h11.5v24.1h-11.5zm-12.4 0h11.5v24.1H182z"/><path class="st16" d="M190.7 186.3h1.7v4.3h-1.7zm4.8 0h1.7v4.3h-1.7z"/><path class="st34" d="M170.5 220.5c0-2 1.7-3.7 3.7-3.7s35.2 1.7 35.2 3.7h-38.9z"/><path class="st34" d="M209.4 220.9h-38.9c-.2 0-.4-.2-.4-.4 0-2.2 1.8-4.1 4.1-4.1.9 0 9.7.4 18.4 1.1 17.2 1.3 17.2 2.4 17.2 3 0 .2-.2.4-.4.4zm-38.5-.8h37.2c-5.1-1.5-30.7-2.9-33.9-2.9-1.7 0-3.1 1.3-3.3 2.9z"/><path class="st34" d="M166.1 220.5c0-1.4 1.2-2.6 2.6-2.6 1.4 0 2.6 1.2 2.6 2.6h-5.2z"/><path class="st34" d="M171.3 220.9h-5.2c-.2 0-.4-.2-.4-.4 0-1.6 1.3-3 3-3 1.6 0 3 1.3 3 3 0 .2-.2.4-.4.4zm-4.7-.8h4.3c-.2-1-1.1-1.8-2.2-1.8s-2 .8-2.1 1.8z"/><path class="st7" d="M118.4 207.1h115v5.2h-115zm-3.6 5.2H237v5.2H114.8zm-4.1 5.2h130.4v5.2H110.7zm-4.3 5.2h138.9v5.2H106.4z"/><path class="st5" d="M114.8 212.3H237v2.6l-122.2-1.7zm3.6-5.2h115v2.1l-115-1.4zm-7.7 10.4h130.4v2.6l-130.4-1.7zm-4.3 5.2h138.9v2.6l-138.9-1.7z"/><path class="st34" d="M226.8 217.5c0-1.3 1-2.3 2.3-2.3 1.3 0 2.3 1 2.3 2.3h-4.6zm-12.9 0c0-2.5 2-4.4 4.4-4.4s4.4 2 4.4 4.4h-8.8z"/><path class="st34" d="M220.6 217.5c0-1.7 1.4-3.1 3.1-3.1 1.7 0 3.1 1.4 3.1 3.1h-6.2zM116.1 229.9c0-2 1.6-3.7 3.7-3.7 2 0 3.7 1.6 3.7 3.7h-7.4zm-20.4 0c0-3.9 3.1-7 7-7s7 3.1 7 7h-14z"/><path class="st34" d="M106.3 229.9c0-2.7 2.2-4.9 4.9-4.9s4.9 2.2 4.9 4.9h-9.8z"/><path class="st5" d="M135.6 160.5h80.3v6.8l-80.3-4.5zm-12.3-56.4h106v6.8l-106-4.5z"/><path class="st34" d="M161.3 113c-.1-.6.4-1.1 1-1.2.6-.1 1.1.4 1.2 1 0 .6-.4 1.1-1 1.2h-.1c-.6 0-1-.4-1.1-1zm24 .9c-.6 0-1-.5-1-1.1 0-.6.5-1 1.1-1 .6 0 1 .5 1 1.1 0 .6-.5 1-1.1 1 .1 0 0 0 0 0zm-27.3 0c-.6-.1-1-.6-.9-1.2.1-.6.6-1 1.2-.9.6.1 1 .6.9 1.2-.1.5-.5.9-1 .9h-.2zm30.6-1.1c-.1-.6.2-1.1.8-1.3.6-.1 1.1.2 1.2.8.1.6-.2 1.1-.8 1.3h-.2c-.5 0-.9-.3-1-.8zm-23.1-.5c-.2-.5.1-1.2.6-1.3.6-.2 1.2.1 1.4.6.2.5-.1 1.2-.6 1.4-.1 0-.2.1-.4.1-.4-.1-.8-.3-1-.8zm15.4.7c-.5-.2-.8-.8-.6-1.4.2-.5.8-.8 1.4-.6.5.2.8.8.6 1.4-.2.4-.6.7-1 .7-.2-.1-.3-.1-.4-.1zm28.5-.2c-.6-.1-1-.6-1-1.1 0-.6.6-1 1.1-1 .6 0 1 .6 1 1.2 0 .5-.5 1-1.1.9 0 .1 0 0 0 0zm-55.7-.1c-.5-.2-.8-.9-.6-1.4.2-.5.8-.8 1.4-.6.5.2.8.8.6 1.4-.2.4-.6.7-1 .7-.2 0-.3-.1-.4-.1zm58.9-.9c-.1-.6.3-1.1.9-1.2.6-.1 1.1.3 1.2.9.1.6-.3 1.1-.9 1.2h-.1c-.5 0-1-.4-1.1-.9zm-20-.2c-.3-.5-.1-1.2.4-1.4.5-.3 1.2-.1 1.4.4.3.5.1 1.2-.4 1.4-.2.1-.3.1-.5.1-.3.1-.7-.1-.9-.5zm12.3.2c-.5-.2-.8-.8-.6-1.4.2-.5.8-.8 1.4-.6.5.2.8.8.6 1.4-.2.4-.6.7-1 .7-.1 0-.2 0-.4-.1zm11.9-.7c-.2-.6.1-1.1.7-1.3.6-.2 1.2.1 1.3.7.2.6-.1 1.2-.7 1.3h-.3c-.4 0-.9-.3-1-.7zm-47.4-.5c-.3-.5-.2-1.1.2-1.5.5-.3 1.1-.2 1.5.2.3.5.2 1.1-.2 1.5-.2.1-.4.2-.6.2-.4.1-.7-.1-.9-.4zm-35.7.4c-.6 0-1-.5-1-1.1 0-.6.5-1 1.1-1 .6 0 1 .5 1 1.1 0 .6-.5 1-1.1 1zm43.3-.5c-.4-.4-.5-1.1 0-1.5.4-.4 1.1-.4 1.5 0 .4.4.4 1.1 0 1.5-.2.2-.5.3-.8.3-.3 0-.5-.1-.7-.3zm-40.1-.6c-.1-.6.3-1.1.9-1.2.6-.1 1.1.3 1.2.9.1.6-.3 1.1-.9 1.2h-.2c-.5 0-.9-.4-1-.9zm12.9.4c-.5-.4-.5-1-.1-1.5s1.1-.5 1.5-.1c.5.4.5 1 .1 1.5-.2.2-.5.4-.8.4-.3 0-.5-.1-.7-.3zm-20.5 0c-.6-.2-.9-.8-.7-1.3.2-.6.8-.9 1.3-.7.6.2.9.8.7 1.3-.1.5-.6.8-1 .8-.1 0-.2 0-.3-.1zm91.5-.6c-.3-.5 0-1.2.5-1.4.5-.3 1.2-.1 1.4.5.3.5 0 1.2-.5 1.4-.2.1-.3.1-.5.1-.3 0-.7-.3-.9-.6zm-19.8-.3c-.4-.4-.5-1-.1-1.5.4-.4 1.1-.5 1.5-.1.4.4.5 1.1.1 1.5-.2.2-.5.4-.8.4-.2 0-.5-.1-.7-.3zm-4.8 0c-.4-.4-.5-1.1 0-1.5.4-.4 1.1-.4 1.5 0 .4.4.5 1.1 0 1.5-.2.2-.5.3-.8.3-.2 0-.5-.1-.7-.3zm-55.2-.5c-.2-.5 0-1.2.6-1.4.5-.2 1.2 0 1.4.6.2.5 0 1.2-.5 1.4-.1.1-.3.1-.4.1-.5 0-.9-.3-1.1-.7zm-15.9-.6c-.5-.4-.5-1-.2-1.5.4-.5 1-.5 1.5-.2.5.4.5 1 .2 1.5-.2.3-.5.4-.8.4-.3 0-.5-.1-.7-.2zm47.5-.4c-.5-.4-.5-1-.2-1.5.4-.5 1-.5 1.5-.2.5.4.6 1 .2 1.5-.2.3-.5.4-.8.4-.2 0-.5 0-.7-.2zm51.9-.3c-.4-.5-.3-1.1.2-1.5.5-.4 1.1-.3 1.5.2.4.5.3 1.1-.2 1.5-.2.1-.4.2-.7.2-.3 0-.6-.1-.8-.4zm-77.7-.7c-.3-.5-.1-1.2.4-1.5.5-.3 1.2-.1 1.5.4.3.5.1 1.2-.4 1.5-.2.1-.4.2-.5.2-.5-.1-.8-.3-1-.6zm27.5-.2c-.2-.5 0-1.2.5-1.4.5-.2 1.2 0 1.4.5.2.5 0 1.2-.5 1.4-.1.1-.3.1-.5.1-.3 0-.7-.2-.9-.6zm-29.5.3c-.4-.4-.4-1.1 0-1.5.4-.4 1.1-.4 1.5 0 .4.4.4 1.1 0 1.5-.2.2-.5.3-.8.3-.2 0-.5-.1-.7-.3zm53.4-1.2c-.3-.5-.1-1.2.4-1.4.5-.3 1.2-.1 1.4.4.3.5.1 1.2-.4 1.4-.2.1-.3.1-.5.1-.3.1-.7-.1-.9-.5zm-75.9-1.4c-.2-.6.1-1.2.6-1.4.6-.2 1.2.1 1.4.7.2.5-.1 1.2-.6 1.3-.1 0-.2.1-.4.1-.4 0-.8-.2-1-.7z"/><path class="st536" d="M243.457 195.357l1.838 1.838-9.404 9.405-1.837-1.84zm.015-19.794l1.838 1.84-9.404 9.403-1.84-1.838zm.014-19.793l1.84 1.838-9.406 9.404-1.838-1.838zm.014-19.794l1.84 1.838-9.405 9.405-1.838-1.84zm-.055-19.723l1.84 1.838-9.406 9.407-1.84-1.84zm.015-19.793l1.84 1.838-9.406 9.404-1.838-1.838zm.015-19.795l1.84 1.84-9.406 9.403-1.84-1.838zm.015-19.793l1.838 1.838-9.404 9.405-1.838-1.84z"/><path class="st536" d="M235.61 198.19l9.405 9.405-1.838 1.838-9.405-9.404zm.032-19.795l9.404 9.405-1.838 1.838-9.404-9.404zm.015-19.793l9.405 9.404-1.84 1.84-9.403-9.406zm.015-19.794l9.404 9.404-1.838 1.84-9.405-9.406zm-.056-19.723l9.405 9.405-1.837 1.838-9.404-9.404zm.002-19.79l9.405 9.406-1.84 1.84-9.403-9.404zm.028-19.797l9.404 9.404-1.838 1.84-9.405-9.406zm.004-19.788l9.404 9.405-1.838 1.838-9.405-9.404z"/><path class="st38" d="M248.5 50.7h-18.7l-2.4-15.1H251z"/><path class="st140" d="M248.5 50.7h-3.6l-2.4-15.1h8.5z"/><path class="st536" d="M229.3 111.3h4.9v2.6h-4.9zm-111.6 0h4.9v2.6h-4.9zm0 73.5h4.9v2.6h-4.9zm111.6-.3h4.9v2.6h-4.9z"/></g></svg>