<svg id="slice" xmlns="http://www.w3.org/2000/svg" width="432.4" height="273.8" viewBox="0 0 432.4 273.8"><style>.st0{opacity:.11;fill:#231f20}.st1{fill:#94917f}.st2{fill:#baafa2}.st3{fill:#785768}.st4{fill:#aaa89a}.st5{opacity:.1}.st6{fill:#8ce1f9}.st7{fill:#ceccbf}.st8{fill:#8d667a}.st9{fill:#918c84}.st10{fill:#c2beb6}.st11{fill:#f0e1d1}.st12{fill:#b6b4a8}.st13{fill:#94938a}.st14{fill:#7d7c71}.st15{fill:#633b4f}.st16{fill:#85837d}.st17{fill:#8a7665}.st18{fill:#6a695c}.st19{fill:#b9b7a4}.st20{fill:#2f9f42}.st21{opacity:.13}.st22{opacity:.2;fill:#231f20}.st23{fill:#d53e2e}.st24{fill:#003673}.st25{fill:#f09a1a}.st26{fill:#fdbf0f}.st27{fill:#736357}.st28{fill:#d84637}.st29{fill:#00a9e9}.st30{fill:#ffde00}.st31{fill:#48b780}.st32{fill:#7c6959}.st33{fill:#d3ae6e}.st34{fill:#FFF}.st35{fill:#ffe95a}.st36{fill:#ffc300}.st37{fill:#f27b20}.st38{fill:#ee3837}.st39{fill:#4c8bfb}.st40{fill:#b757c5}.st41{fill:#ffdf8a}.st42{fill:#333}.st43{fill:#6a57ab}.st44{fill:#5d377a}.st45{fill:#393939}.st46{fill:#fde08b}.st47{fill:#dc3126}.st48{fill:#fdd500}.st49{fill:#515c5d}.st50{fill:#7d8586}.st51{fill:#afd136}.st52{fill:url(#SVGID_1_)}.st53{fill:url(#SVGID_2_)}.st54{fill:#e8d184}.st55{fill:#ca7836}.st56{fill:#54d184}.st57{opacity:.48}.st58{opacity:.5;fill:#75cef4}.st59{opacity:.5;fill:#00bff0}.st60{opacity:.5;fill:#e6f6fd}.st61{opacity:.48;fill:#75cef4}.st62{fill:url(#SVGID_3_)}.st63{fill:gray}.st64{fill:#8f4293}.st65{fill:#ffd400}.st66{fill:url(#SVGID_4_)}.st67{fill:#28ae4b}.st68{fill:#e64436}.st69{fill:url(#SVGID_5_)}.st70{fill:url(#XMLID_113_)}.st71{opacity:.17;fill:#FFF}.st72{fill:url(#SVGID_6_)}.st73{fill:url(#SVGID_7_)}.st74{fill:#00b2ee}.st75{fill:#b89860}.st76{fill:#b0b0b0}.st77{fill:#864537}.st78{fill:#fbcf99}.st79{fill:#fbcd48}.st80{fill:#FD0}.st81{fill:#d2392c}.st82{fill:url(#SVGID_8_)}.st83{fill:url(#SVGID_9_)}.st84{fill:url(#SVGID_10_)}.st85{fill:url(#SVGID_11_)}.st86{fill:url(#XMLID_213_)}.st87{fill:#afd77d}.st88{opacity:.1;fill:#231f20}.st89{fill:#7cb342}.st90{fill:#f9ce1d}.st91{fill:#ffe36c}.st92{fill:#5e35b1}.st93{fill:#9575cd}.st94{fill:#29b6f6}.st95{fill:#4ad0ff}.st96{fill:#9dce2e}.st97{fill:#e53935}.st98{fill:#f94b4b}.st99{fill:#fb8c00}.st100{fill:#fc9f42}.st101{fill:#9dca3b}.st102{fill:#66a622}.st103{fill:#ffb300}.st104{fill:#f57c00}.st105{fill:#a1cacf}.st106{fill:#dff3f5}.st107{fill:#bad7db}.st108{fill:#c3dfe3}.st109{fill:#bcdee3}.st110{opacity:.5}.st111{opacity:.8}.st112{fill:url(#XMLID_215_)}.st113{fill:url(#SVGID_12_)}.st114{fill:#f6f3ec}.st115{fill:#d7d7d7}.st116{fill:#959d9e}.st117{fill:#b3b3b3}.st118{fill:#e0e0e0}.st119{fill:#4d4d4d}.st120{fill:#595959}.st121{fill:#ffeb5e}.st122{fill:#6d7576}.st123{fill:#c9e09d}.st124{fill:#8f8f8f}.st125{fill:#5c6566}.st126{fill:#a19e97}.st127{fill:#61c6ec}.st128{fill:#77bf82}.st129{fill:#f3ff73}.st130{fill:url(#XMLID_218_)}.st131{fill:url(#SVGID_13_)}.st132{fill:url(#SVGID_14_)}.st133{fill:url(#XMLID_221_)}.st134{fill:#555047}.st135{fill:#896339}.st136{fill:#736f68}.st137{fill:#949494}.st138{fill:#83dee8}.st139{fill:#85827d}.st140{opacity:.2}.st141{fill:#404040}.st142{fill:silver}.st143{fill:#EEE}.st144{fill:#44c2c2}.st144,.st145{clip-path:url(#SVGID_16_)}.st145{fill:#a3d89f}.st146{fill:#c83a74}.st146,.st147{clip-path:url(#SVGID_16_)}.st147{fill:#ffa376}.st148{opacity:.24}.st149{opacity:.48;fill:#85827d}.st150{opacity:.48;fill:none;stroke:#85827d;stroke-width:.9;stroke-miterlimit:10}.st151{opacity:.83;fill:#85827d}.st152{fill:#888480}.st153{fill:#7099ba}.st154{fill:#b0e1e8}.st155{opacity:.22;fill:#FFF}.st156{fill:url(#XMLID_230_)}.st157{fill:url(#SVGID_17_)}.st158{fill:url(#SVGID_18_)}.st159{fill:url(#XMLID_231_)}.st160{fill:#9db9bd}.st161{fill:#d1e3e6}.st162{fill:#b6d6db}.st163{fill:#9ccfd9}.st164{fill:#b4d3d9}.st165{fill:#97babf}.st166{fill:#c1dff5}.st167{fill:#c5e7eb}.st168{fill:#8ab8d4}.st169{fill:#e6e6e6}.st170{fill:#716e69}.st171{fill:#71bdde}.st172{fill:#659bc7}.st173{fill:#70afd4}.st174{fill:none}.st175{fill:#97cee6}.st176{opacity:8e-2;fill:#0f0f0f}.st177{opacity:.1;fill:#0f0f0f}.st178{fill:#385fe4}.st179{fill:#CCC}.st180{fill:#2986e4}.st181{opacity:.21}.st182{clip-path:url(#SVGID_20_)}.st183{filter:url(#Adobe_OpacityMaskFilter)}.st184{mask:url(#SVGID_21_);fill:#33659a}.st185{filter:url(#Adobe_OpacityMaskFilter_1_)}.st186{mask:url(#SVGID_22_);fill:#385fe4}.st187{filter:url(#Adobe_OpacityMaskFilter_2_)}.st188{opacity:.17;mask:url(#SVGID_23_)}.st189{clip-path:url(#SVGID_25_)}.st190{opacity:.77}.st191{fill:#e8c97b}.st192{fill:#2d56e2}.st193{opacity:.11}.st194{fill:#0bbf68}.st195{fill:#98bee4}.st196{fill:#3f5656}.st197{fill:#d7c17d}.st198{opacity:.2;fill:#FFF}.st199{fill:url(#SVGID_26_)}.st200{fill:url(#XMLID_342_)}.st201{fill:url(#SVGID_27_)}.st202{fill:url(#XMLID_352_)}.st203{fill:#9c9c9c}.st204{fill:#808082}.st205{fill:#9ed5ec}.st206{fill:#cacaca}.st207{fill:#e3e3e3}.st208{fill:#979797}.st209{fill:#9e9e9e}.st210{opacity:.58;fill:#c7ffff}.st211{opacity:.25}.st212{fill:#a52e22}.st213{fill:#e63636}.st214{fill:url(#XMLID_360_)}.st215{fill:url(#XMLID_362_)}.st216{fill:#969696}.st217{fill:#0158bb}.st218{fill:#1565c0}.st219{fill:#3dd1f9}.st220{fill:#f5a816}.st221{fill:#c62828}.st222{fill:#bdbdbd}.st223{fill:#a5a5a5}.st224{fill:#424242}.st225{fill:#e6e7e8}.st226{clip-path:url(#SVGID_31_);fill:#FFF}.st227{fill:#e91c24}.st227,.st228{clip-path:url(#SVGID_31_)}.st228{fill:#1976d2}.st229{fill:#4d8acf}.st230{fill:none;stroke:#FFF;stroke-width:.9;stroke-miterlimit:10}.st231{fill:#00adee}.st232{clip-path:url(#SVGID_33_);fill:#FFF}.st233{fill:#dbdbdb}.st234{fill:url(#SVGID_34_)}.st235{fill:url(#SVGID_35_)}.st236{fill:url(#SVGID_36_)}.st237{fill:url(#SVGID_37_)}.st238{fill:url(#SVGID_38_)}.st239{fill:url(#SVGID_39_)}.st240{fill:url(#SVGID_40_)}.st241{fill:url(#SVGID_41_)}.st242{fill:#f7ce97}.st243{fill:#4c4c4c}.st244{fill:#e9e9e9}.st245{fill:#eb9b95}.st246{fill:#656565}.st247{fill:#5e5a48}.st248{fill:url(#SVGID_42_)}.st249{fill:url(#SVGID_43_)}.st250{fill:#999}.st251{opacity:.36;fill:#00a64c}.st252{fill:#d4d4d4}.st252,.st253{fill-rule:evenodd;clip-rule:evenodd}.st253{fill:#FFF}.st254{fill:#008141}.st254,.st255{fill-rule:evenodd;clip-rule:evenodd}.st255{fill:#00a64c}.st256{fill:#28b265}.st257{opacity:.4;fill:#ffe000}.st258{fill:#c8cbcc}.st259{fill:#b8b8b8}.st260{fill:#949496}.st261{fill:#c8ead4}.st262{fill:#7d8485}.st263{fill:#2364d5}.st264{fill:url(#XMLID_368_)}.st265{fill:url(#SVGID_44_)}.st266{fill:url(#SVGID_45_)}.st267{fill:url(#SVGID_46_)}.st268{fill:#8700ee}.st269{fill:#00b533}.st270{fill:#eeda00}.st271{fill:#f2206d}.st272{fill:#6299fb}.st273{opacity:.7;fill:url(#SVGID_47_)}.st274{opacity:.7;fill:url(#SVGID_48_)}.st275{opacity:.7;fill:url(#SVGID_49_)}.st276{fill:#ee5e5d}.st277{fill:#e09d17}.st278{fill:#f0ede9}.st279{clip-path:url(#SVGID_51_)}.st280{fill:#eec85c}.st281{opacity:.32;fill:#9a0000}.st282{fill:#f0f0f0}.st283{fill:#81d4fa}.st284{opacity:.49;fill:#c9edfc}.st285{fill:#d8746a}.st286{fill:#fcbe8d}.st287{fill:#00a9e7}.st288{fill:#6a7173}.st289{opacity:.6}.st290{fill:url(#SVGID_52_)}.st291{fill:url(#SVGID_53_)}.st292{fill:url(#XMLID_388_)}.st293{fill:url(#SVGID_54_)}.st294{fill:url(#SVGID_55_)}.st295{fill:url(#SVGID_56_)}.st296{fill:url(#SVGID_57_)}.st297{fill:#67635d}.st298{fill:#999690}.st299{fill:#e6da91}.st300{opacity:.55;fill:#bbaf3e}.st301{fill:#a8a69b}.st302{clip-path:url(#SVGID_59_)}.st303{fill:url(#SVGID_60_)}.st304{fill:url(#SVGID_61_)}.st305{opacity:.1;clip-path:url(#SVGID_59_)}.st306{clip-path:url(#SVGID_63_)}.st307{fill:#e3e3e2}.st308{fill:#cf4140}.st309{fill:url(#SVGID_64_)}.st310{fill:url(#SVGID_65_)}.st311{fill:url(#SVGID_66_)}.st312{fill:url(#SVGID_67_)}.st313{fill:#666}.st314{fill:#c1161c}.st315{fill:#b47945}.st316{fill:#d9dadb}.st317{fill:#36af49}.st318{fill:#2a943e}.st319{fill:#9ea0a2}.st320{fill:#bebfc1}.st321{fill:#f5961d}.st322{fill:#ffef00}.st323{fill:#6d6d6d}.st324{fill:url(#SVGID_68_)}.st325{fill:url(#XMLID_391_)}.st326{fill:#795d00}.st327{fill:#bb8024}.st327,.st328{clip-path:url(#SVGID_70_)}.st328{opacity:.1}.st329{fill:#955d00}.st330{fill:#f38836}.st331{fill:url(#XMLID_392_)}.st332{fill:url(#SVGID_71_)}.st333{fill:url(#SVGID_72_)}.st334{fill:url(#XMLID_393_)}.st335{opacity:.99}.st336{fill:#e8af38}.st337{fill:#98ab00}.st338{fill:#e75c52}.st339{fill:#a9897d}.st340{fill:#cb9d7b}.st341{fill:#996b63}.st342{fill:#35b8e8}.st343{opacity:.12;fill:url(#SVGID_73_)}.st344{opacity:.12;fill:url(#SVGID_74_)}.st345{opacity:.28;fill:url(#SVGID_77_)}.st346{opacity:.2;clip-path:url(#SVGID_81_)}.st347{fill:#fff59c}.st348{fill:#ebdbce}.st349{fill:#b07a53}.st350{fill:#1185ba}.st351{fill:#1f57a1}.st351,.st352{opacity:.32}.st353{fill:#c28d65}.st354{fill:#eb776f}.st355{fill:#afdb39}.st356{fill:#ebdb57}.st357{opacity:.16}.st358{fill:#cba483}.st359{fill:url(#XMLID_394_)}.st360{fill:url(#SVGID_82_)}.st361{fill:url(#SVGID_83_)}.st362{fill:#bee6eb}.st363{fill:#f9df00}.st364{fill:#d84733}.st365{fill:#fce000}.st366{fill:#575757}.st367{fill:#b3b2b3}.st368{fill:#e5e5e4}.st369{fill:#d5302b}.st370{fill:url(#SVGID_84_)}.st371{fill:url(#SVGID_85_)}.st372{fill:#ec4180}.st373{fill:#fbcb54}.st374{fill:#7296f0}.st375{fill:#fc793d}.st376{opacity:.14}.st377{fill:#404144}.st378{fill:#606163}.st379{opacity:.3}.st380,.st381{fill:#d7b256}.st381{opacity:.38}.st382{fill:#3d3d39}.st383{fill:#393b36}.st384{opacity:.6;fill:#3bff65}.st385{opacity:.6;fill:#fc793d}.st386{clip-path:url(#SVGID_87_)}.st387{opacity:.29}.st388{fill:#9a51a8}.st389{fill:#fef6e0}.st390{fill:#a06ea9}.st391{fill:#353535}.st392{clip-path:url(#SVGID_89_);fill:#FFF}.st393{opacity:.23;fill:#FFF}.st394{opacity:.13;fill:#FFF}.st395{opacity:5e-2}.st396{opacity:.45}.st397{opacity:.2}.st397,.st398{fill:#fff170}.st399{opacity:.21;fill:#FFF}.st400{opacity:.1;fill:#FFF}.st401{opacity:.27;fill:url(#SVGID_90_)}.st402{opacity:.27;fill:url(#SVGID_91_)}.st403{fill:url(#SVGID_92_)}.st404{fill:url(#SVGID_93_)}.st405{fill:#2850a8}.st406{fill:#286ee4}.st407{fill:#0053df}.st408{fill:#007dd0}.st409{fill:#2891e4}.st410{opacity:.72}.st411{opacity:.28;fill:url(#SVGID_94_)}.st412{opacity:.28;fill:url(#SVGID_95_)}.st413{fill:#2d6b7f}.st414,.st415{fill:#ff7c40}.st415{opacity:.21}.st416{opacity:.28;fill:url(#SVGID_96_)}.st417{opacity:.28;fill:url(#SVGID_97_)}.st418{opacity:.28;fill:url(#SVGID_98_)}.st419{opacity:.28;fill:url(#SVGID_99_)}.st420,.st421{fill:#ffee0a}.st421{opacity:.21}.st422{opacity:.28;fill:url(#SVGID_100_)}.st423{opacity:.28;fill:url(#SVGID_101_)}.st424,.st425{fill:#fd45ff}.st425{opacity:.21}.st426{opacity:.28;fill:url(#SVGID_102_)}.st427{opacity:.28;fill:url(#SVGID_103_)}.st428,.st429{fill:#52ff52}.st429{opacity:.21}.st430{opacity:.28;fill:url(#SVGID_104_)}.st431{opacity:.28;fill:url(#SVGID_105_)}.st432{opacity:.28;fill:url(#SVGID_106_)}.st433{opacity:.28;fill:url(#SVGID_107_)}.st434,.st435{fill:#59fff3}.st435{opacity:.21}.st436{opacity:.28;fill:url(#SVGID_108_)}.st437{opacity:.28;fill:url(#SVGID_109_)}.st438{opacity:.28;fill:url(#SVGID_110_)}.st439{opacity:.28;fill:url(#SVGID_111_)}.st440{opacity:.28;fill:url(#SVGID_112_)}.st441{opacity:.28;fill:url(#SVGID_113_)}.st442{opacity:.28;fill:url(#SVGID_114_)}.st443{opacity:.28;fill:url(#SVGID_115_)}.st444{opacity:.28;fill:url(#SVGID_116_)}.st445{opacity:.28;fill:url(#SVGID_117_)}.st446{opacity:.28;fill:url(#SVGID_118_)}.st447{opacity:.28;fill:url(#SVGID_119_)}.st448{opacity:.28;fill:url(#SVGID_120_)}.st449{opacity:.28;fill:url(#SVGID_121_)}.st450{opacity:.28;fill:url(#SVGID_122_)}.st451{opacity:.28;fill:url(#SVGID_123_)}.st452{opacity:.28;fill:url(#SVGID_124_)}.st453{opacity:.28;fill:url(#SVGID_125_)}.st454{opacity:.28;fill:url(#SVGID_126_)}.st455{opacity:.28;fill:url(#SVGID_127_)}.st456{opacity:.28;fill:url(#SVGID_128_)}.st457{opacity:.28;fill:url(#SVGID_129_)}.st458{opacity:.28;fill:url(#SVGID_130_)}.st459{opacity:.28;fill:url(#SVGID_131_)}.st460{opacity:.28;fill:url(#SVGID_132_)}.st461{opacity:.28;fill:url(#SVGID_133_)}.st462{opacity:.28;fill:url(#SVGID_134_)}.st463{opacity:.28;fill:url(#SVGID_135_)}.st464{opacity:.28;fill:url(#SVGID_136_)}.st465{opacity:.28;fill:url(#SVGID_137_)}.st466{opacity:.28;fill:url(#SVGID_138_)}.st467{opacity:.28;fill:url(#SVGID_139_)}.st468{opacity:.28;fill:url(#SVGID_140_)}.st469{opacity:.28;fill:url(#SVGID_141_)}.st470{opacity:.28;fill:url(#SVGID_142_)}.st471{opacity:.28;fill:url(#SVGID_143_)}.st472{opacity:.28;fill:url(#SVGID_144_)}.st473{opacity:.28;fill:url(#SVGID_145_)}.st474{opacity:.28;fill:url(#SVGID_146_)}.st475{opacity:.28;fill:url(#SVGID_147_)}.st476{opacity:.28;fill:url(#SVGID_148_)}.st477{opacity:.28;fill:url(#SVGID_149_)}.st478{opacity:.28;fill:url(#SVGID_150_)}.st479{opacity:.28;fill:url(#SVGID_151_)}.st480{opacity:.28;fill:url(#SVGID_152_)}.st481{opacity:.28;fill:url(#SVGID_153_)}.st482{opacity:.28;fill:url(#SVGID_154_)}.st483{opacity:.28;fill:url(#SVGID_155_)}.st484{opacity:.28;fill:url(#SVGID_156_)}.st485{opacity:.28;fill:url(#SVGID_157_)}.st486{opacity:.28;fill:url(#SVGID_158_)}.st487{opacity:.28;fill:url(#SVGID_159_)}.st488{opacity:.28;fill:url(#SVGID_160_)}.st489{opacity:.28;fill:url(#SVGID_161_)}.st490{opacity:.28;fill:url(#SVGID_162_)}.st491{opacity:.28;fill:url(#SVGID_163_)}.st492{opacity:.28;fill:url(#SVGID_164_)}.st493{opacity:.28;fill:url(#SVGID_165_)}.st494{opacity:.28;fill:url(#SVGID_166_)}.st495{opacity:.28;fill:url(#SVGID_167_)}.st496{opacity:.28;fill:url(#SVGID_168_)}.st497{opacity:.28;fill:url(#SVGID_169_)}.st498{opacity:.28;fill:url(#SVGID_170_)}.st499{opacity:.28;fill:url(#SVGID_171_)}.st500{opacity:.28;fill:url(#SVGID_172_)}.st501{opacity:.28;fill:url(#SVGID_173_)}.st502{fill:#898f90}.st503{opacity:.25;fill:#FFF}.st504{fill:#00b8f0}.st505{fill:#00a7f0}.st506{opacity:.91;fill:url(#SVGID_174_)}.st507{opacity:.12;fill:#ffee0a}.st508{opacity:.62}.st509{fill:url(#SVGID_175_)}.st510{fill:url(#SVGID_176_)}.st511{fill:url(#SVGID_177_)}.st512{fill:url(#SVGID_178_)}.st513{fill:#7d857e}.st514{fill:#89908a}.st515{opacity:.91;fill:url(#SVGID_179_)}.st516{opacity:.12}.st516,.st517{fill:#78ff5e}.st518{fill:url(#SVGID_180_)}.st519{fill:url(#SVGID_181_)}.st520{fill:url(#SVGID_182_)}.st521{fill:url(#SVGID_183_)}.st522{fill:#85847d}.st523{fill:#908f89}.st524{opacity:.91;fill:url(#SVGID_184_)}.st525{opacity:.12;fill:#ff5e91}.st526{fill:#ff8373}.st527{fill:url(#SVGID_185_)}.st528{fill:url(#SVGID_186_)}.st529{fill:url(#SVGID_187_)}.st530{fill:url(#SVGID_188_)}.st531{fill:#5d6667}.st532{fill:url(#XMLID_395_)}.st533{fill:url(#XMLID_401_)}.st534{fill:url(#SVGID_189_)}.st535{fill:#b13837}.st536{fill:#3b627a}.st537{fill:url(#SVGID_190_)}.st538{fill:url(#XMLID_405_)}.st539{fill:url(#SVGID_191_)}.st540{fill:#754517}.st541{fill:#845930}.st542{fill:#a35f25}.st543{fill:#aa6c37}.st544{fill:#b07644}.st545{fill:#efdbc1}.st546{fill:#ffc805}.st547{fill:#231f20}.st548{fill:#00a351}.st549{fill:#084}.st550{fill:#ef6522}.st551{fill:#7a4b1f}.st552{fill:#32cbe6}.st553{fill:url(#SVGID_192_)}.st554{opacity:.1;fill:#005fd0}.st555{fill:#e6e5e1}.st556{fill:#7b9eb8}.st557{fill:#a5b3ad}.st558{fill:#c7c7c7}.st559{fill:url(#XMLID_412_)}.st560{fill:url(#SVGID_193_)}.st561{fill:url(#SVGID_194_)}.st562{fill:#388e3c}.st563{fill:#2e7d32}.st564{fill:#ffe18c}.st565{opacity:.25;fill:#29b6f6}.st566{fill:#414042}.st567{fill:#2f4c52}.st568{fill:#455d82}.st569{fill:#795548}.st570{fill:#d3d4d6}.st571{fill:#bcbec0}.st572{clip-path:url(#SVGID_196_)}.st573{fill:url(#SVGID_197_)}.st574{fill:url(#SVGID_198_)}.st575{clip-path:url(#SVGID_200_)}.st576{opacity:.5;fill:#f9ce1d}.st577{opacity:.28}.st578{fill:#d7d8d9}.st579{fill:#ebeced}.st580{fill:#ffd600}.st581{fill:#039be5}.st582{fill:url(#XMLID_418_)}.st583{fill:url(#SVGID_201_)}.st584{fill:#34d4f0}.st585{fill:#74e4f6}.st585,.st586{opacity:.51}.st587{fill:#74e4f6}.st588{fill:url(#XMLID_420_)}.st589{fill:#434fbf}.st590{opacity:.51}.st590,.st591{fill:#7182f0}.st592{opacity:.36}.st593{opacity:.38}.st594{opacity:.39;fill:#ffff5c}.st595{opacity:.58;fill:#FFF}.st596{opacity:.19;fill:#73c1de}.st597{opacity:.19;fill:#7335de}.st598{fill:#f5f2e2}.st599{fill:#a3a2a1}.st600{fill:#5a99d1}.st601{fill:#b8a485}.st602{fill:#eee5d5}.st603{fill:#FFC}.st604{fill:#ffd200}.st605{fill:#f26e21}.st606{fill:#f5871f}.st607{fill:#cfcfcf}.st608{fill:#019049}.st609{fill:#07a860}.st610{fill:#ab00ee}.st611{fill:#93d8f7}.st612{fill:#725d4c}.st613{fill:#028f1f}.st614{fill:#0da760}.st615{fill:#f4c138}.st616{fill:#f9646d}</style><g id="New_Symbol_70"><path class="st34" d="M335 223.4h19c.4 0 .8-.4.8-.9 0-1.5-1-2.7-2.1-2.7H351c0-.9-.6-1.7-1.4-1.7h-10.1c-.8 0-1.4.8-1.4 1.7h-1.7c-1.2 0-2.1 1.2-2.1 2.7-.1.5.3.9.7.9zM360 222.5h10.3c.2 0 .4-.2.4-.5 0-.8-.5-1.4-1.2-1.4h-.9c0-.5-.3-.9-.7-.9h-5.5c-.4 0-.7.4-.7.9h-.9c-.6 0-1.2.6-1.2 1.4 0 .3.2.5.4.5z"/><path class="st34" d="M396.1 254.1h-52l-6.5-7.5h30c1 0 2-.5 2.7-1.3h54.4c6.4 0 6-6.7-1.6-9.5h-9.8c-5.4-5.3-15-9.5-21.4-9.5h-72l-3.5-4c.6-1.2.9-2.5.9-3.8h4.2v1.2c0 .5.3.9.7.9h8.3c.4 0 .7-.4.7-.9 0-1.4-.9-2.5-2-2.5h-3.7c-1.9-4.8-14-8.6-19.9-8.6h-49.5c.2-.7.1-1.5-.1-2.2-.9-2.5-4.1-3.6-7.3-2.5-4.7 1.5-9.5 2.9-14.3 4.1 1.7-1 2.7-2.7 2.3-4.4-.6-2.1-3.1-3.2-5.6-2.6-3.8.9-7.6 1.7-11.4 2.3.5-.6.7-1.3.5-2-.3-1.6-2.1-2.5-3.9-2.2-8.6 1.4-17.3 2.1-26.1 2.3-1.9 0-3.3 1.3-3.2 2.9.1.8.5 1.4 1.1 1.9-8.6.1-17.3-.4-26-1.6-2.7-.3-4.8 1.1-4.9 3.3 0 2.2 2.2 4.3 4.9 4.7 5.8.7 11.6 1.2 17.3 1.4-2.5.5-4.2 2.3-4.1 4.5.2 2.7 3.1 5.1 6.6 5.1 7.2.2 14.4-.1 21.5-.6.5.8 1.1 1.6 1.8 2.2-4.7.4-9.5.7-14.3.8-.8 0-1.6.2-2.2.5h-26.5c-2.7 0-6.8 1.8-9.1 4s-1.9 4 .8 4h8.8c-2.3 1.1-4.5 2.6-6.1 4.3-2.7 2.7-2.9 5.1-.9 6h-27.6c-19 0-30.5 4.4-36.3 9.9-5.7 5.4-5.2 9.9 1.3 9.9h139.5v4.1h16.3c1.4 3 4 5 7 5h166.5c20.5 0 4.3-9.9-2.7-9.9h-15.6c0-5.3-3.6-9.7-8-9.7z"/><g><g id="XMLID_1593_"><ellipse id="XMLID_1638_" class="st5" cx="318.9" cy="205.6" rx="13.6" ry="1.5"/><path class="st27" d="M305.5 22.3h4.1v183.3h-4.1z"/><path id="XMLID_1636_" class="st27" d="M313.6 20.6c0 3.6-2.7 7-6.1 7.4-3.4.5-6.1-2.1-6.1-5.8s2.7-7 6.1-7.4c3.4-.4 6.1 2.2 6.1 5.8z"/><ellipse id="XMLID_1635_" class="st5" cx="167.9" cy="233.1" rx="13.6" ry="1.5"/><path class="st27" d="M154.6 49.8h4.1v183.3h-4.1z"/><path id="XMLID_1633_" class="st27" d="M162.7 48.1c0 3.6-2.7 7-6.1 7.4-3.4.5-6.1-2.1-6.1-5.8 0-3.6 2.7-7 6.1-7.4 3.4-.4 6.1 2.2 6.1 5.8z"/><path id="XMLID_1632_" d="M159 58.8l11.3-2.1v15L159 73.8z"/><path id="XMLID_1631_" class="st34" d="M170.3 56.7l11.2-2v15l-11.2 2z"/><path id="XMLID_1630_" d="M181.5 54.7l11.3-2v15l-11.3 2z"/><path id="XMLID_1629_" class="st34" d="M192.8 52.7l11.2-2.1v15l-11.2 2.1z"/><path id="XMLID_1628_" d="M204 50.6l11.3-2v15l-11.3 2z"/><path id="XMLID_1627_" class="st34" d="M215.3 48.6l11.2-2.1v15l-11.2 2.1z"/><path id="XMLID_1626_" d="M226.5 46.5l11.3-2v15l-11.3 2z"/><path id="XMLID_1625_" class="st34" d="M237.8 44.5l11.2-2v15l-11.2 2z"/><path id="XMLID_1624_" d="M249 42.5l11.3-2.1v15L249 57.5z"/><path id="XMLID_1623_" class="st34" d="M260.3 40.4l11.2-2v15l-11.2 2z"/><path id="XMLID_1622_" d="M271.5 38.4l11.3-2v15l-11.3 2z"/><path id="XMLID_1621_" class="st34" d="M282.8 36.4l11.2-2.1v15l-11.2 2.1z"/><path id="XMLID_1620_" d="M294 34.3l11.3-2v15l-11.3 2z"/><path id="XMLID_1619_" class="st34" d="M159 73.8l11.3-2.1v15L159 88.8z"/><path id="XMLID_1618_" d="M170.3 71.7l11.2-2v15l-11.2 2z"/><path id="XMLID_1617_" class="st34" d="M181.5 69.7l11.3-2v14.9l-11.3 2.1z"/><path id="XMLID_1616_" d="M192.8 67.7l11.2-2.1v15l-11.2 2z"/><path id="XMLID_1615_" class="st34" d="M204 65.6l11.3-2v15l-11.3 2z"/><path id="XMLID_1614_" d="M215.3 63.6l11.2-2.1v15l-11.2 2.1z"/><path id="XMLID_1613_" class="st34" d="M226.5 61.5l11.3-2v15l-11.3 2z"/><path id="XMLID_1612_" d="M237.8 59.5l11.2-2v15l-11.2 2z"/><path id="XMLID_1611_" class="st34" d="M249 57.5l11.3-2.1v15L249 72.5z"/><path id="XMLID_1610_" d="M260.3 55.4l11.2-2v15l-11.2 2z"/><path id="XMLID_1609_" class="st34" d="M271.5 53.4l11.3-2v14.9l-11.3 2.1z"/><path id="XMLID_1608_" d="M282.8 51.4l11.2-2.1v15l-11.2 2z"/><path id="XMLID_1607_" class="st34" d="M294 49.3l11.3-2v15l-11.3 2z"/><path id="XMLID_1606_" d="M159 88.8l11.3-2.1v15l-11.3 2z"/><path id="XMLID_1605_" class="st34" d="M170.3 86.7l11.2-2v15l-11.2 2z"/><path id="XMLID_1604_" d="M181.5 84.7l11.3-2.1v15l-11.3 2.1z"/><path id="XMLID_1603_" class="st34" d="M192.8 82.6l11.2-2v15l-11.2 2z"/><path id="XMLID_1602_" d="M204 80.6l11.3-2v15l-11.3 2z"/><path id="XMLID_1601_" class="st34" d="M215.3 78.6l11.2-2.1v15l-11.2 2.1z"/><path id="XMLID_1600_" d="M226.5 76.5l11.3-2v15l-11.3 2z"/><path id="XMLID_1599_" class="st34" d="M237.8 74.5l11.2-2v14.9l-11.2 2.1z"/><path id="XMLID_1598_" d="M249 72.5l11.3-2.1v15l-11.3 2z"/><path id="XMLID_1597_" class="st34" d="M260.3 70.4l11.2-2v15l-11.2 2z"/><path id="XMLID_1596_" d="M271.5 68.4l11.3-2.1v15l-11.3 2.1z"/><path id="XMLID_1595_" class="st34" d="M282.8 66.3l11.2-2v15l-11.2 2z"/><path id="XMLID_1594_" d="M294 64.3l11.3-2v15l-11.3 2z"/></g><g id="XMLID_344_"><ellipse id="XMLID_1592_" class="st5" cx="314.7" cy="230.6" rx="46" ry="1.9"/><path class="st75" d="M329.8 231.3c-.7 0-1.2-.6-1.2-1.2v-25c0-.7.6-1.2 1.2-1.2s1.2.6 1.2 1.2v25c.1.6-.5 1.2-1.2 1.2z"/><path class="st76" d="M331.1 175.5c-.3 0-.5-.2-.5-.5v-4.6c0-.6-.5-1-1-1H325c-1.1 0-2.1-.9-2.1-2.1v-2.1c0-.6-.5-1-1-1h-3.1c-.3 0-.5-.2-.5-.5s.2-.5.5-.5h3.1c1.1 0 2.1.9 2.1 2.1v2.1c0 .6.5 1 1 1h4.6c1.1 0 2.1.9 2.1 2.1v4.6c-.1.1-.3.4-.6.4z"/><path class="st76" d="M333.8 172.2H331c-.3 0-.5-.2-.5-.5s.2-.5.5-.5h2.7c.6 0 1-.5 1-1v-2.4c0-.6-.5-1-1-1h-3.6c-1.1 0-2.1-.9-2.1-2.1v-5.5c0-.3.2-.5.5-.5s.5.2.5.5v5.5c0 .6.5 1 1 1h3.6c1.1 0 2.1.9 2.1 2.1v2.4c.1 1.1-.8 2-1.9 2z"/><path class="st76" d="M331.4 163.5h-6.2c-.3 0-.5-.2-.5-.5s.2-.5.5-.5h6.2c.6 0 1-.5 1-1v-2.9c0-.3.2-.5.5-.5s.5.2.5.5v2.9c0 1.1-.9 2-2 2z"/><path id="XMLID_1587_" class="st33" d="M325.8 179.6c0 5.2-.2 15-.2 15h-21.8c-4.5 0-8.2 3.7-8.2 8.2v.5c0 4.5 3.7 8.2 8.2 8.2h21.8c4.5 0 8.2-3.7 8.2-8.2v-21.8c0-5.4-8-6.2-8-1.9z"/><path id="XMLID_1586_" class="st33" d="M325.8 179.6c0-5.2 5.6-6.2 7.5-4.3 0 0 4.8 2.5 7.7 4.8 3 2.3 1.1 4.3-.9 4.3h-9.3c-2.4.1-5-1.7-5-4.8z"/><path id="XMLID_1585_" class="st34" d="M335.8 179.6c0 .8-.6 1.4-1.4 1.4-.8 0-1.4-.6-1.4-1.4 0-.8.6-1.4 1.4-1.4.8.1 1.4.7 1.4 1.4z"/><path id="XMLID_1584_" d="M335 179.6c0 .3-.3.6-.6.6s-.6-.3-.6-.6.3-.6.6-.6c.3.1.6.3.6.6z"/><path class="st33" d="M335.5 224.5c-.7 0-1.2-.6-1.2-1.2v-8.9H327c-.7 0-1.2-.6-1.2-1.2v-7.5c0-.7.6-1.2 1.2-1.2s1.2.6 1.2 1.2v6.3h7.3c.7 0 1.2.6 1.2 1.2v10.2c0 .6-.5 1.1-1.2 1.1z"/><path class="st75" d="M297 231.3c-.7 0-1.2-.6-1.2-1.2v-25c0-.7.6-1.2 1.2-1.2s1.2.6 1.2 1.2v25c.1.6-.5 1.2-1.2 1.2zM304.1 231.3c-.7 0-1.2-.6-1.2-1.2v-25c0-.7.6-1.2 1.2-1.2s1.2.6 1.2 1.2v25c0 .6-.6 1.2-1.2 1.2z"/><path id="XMLID_1580_" class="st77" d="M345.3 182.5c0 1-.8 1.8-1.8 1.8s-1.8-.8-1.8-1.8.8-1.8 1.8-1.8 1.8.8 1.8 1.8z"/><path class="st76" d="M323.1 172.7h-3.2c-.3 0-.5-.2-.5-.5s.2-.5.5-.5h3.2c.6 0 1-.5 1-1v-1.5c0-.3.2-.5.5-.5s.5.2.5.5v1.5c.1 1-.8 2-2 2z"/><path id="XMLID_1578_" class="st78" d="M333.8 199.5c-5.5-7.7-4.3-13.5 0-15v15z"/><path id="XMLID_1577_" class="st79" d="M277.3 214.2h1.8v8.4h-1.8z"/><path id="XMLID_1576_" class="st79" d="M321 214.2h1.8v8.4H321z"/><path id="XMLID_1575_" class="st5" d="M277.3 214.2h1.8v8.4h-1.8z"/><path id="XMLID_1574_" class="st5" d="M321 214.2h1.8v8.4H321z"/><g id="XMLID_1570_"><path id="XMLID_1573_" class="st80" d="M295.7 166.6H307v11.3h-11.3z"/><g id="XMLID_1571_"><path id="XMLID_1572_" class="st28" d="M301.9 171.6v-5h-1.5v5h-4.7v1.5h4.7v4.7h1.5v-4.7h5v-1.5z"/></g></g><g id="XMLID_1566_"><path id="XMLID_1569_" class="st31" d="M286.3 167.9h6.8v6.8h-6.8z"/><g id="XMLID_1567_"><path id="XMLID_1568_" class="st81" d="M290.4 170.5v-2.6h-1.5v2.6h-2.6v1.5h2.6v2.6h1.5V172h2.7v-1.5z"/></g></g><g id="XMLID_1562_"><path id="XMLID_1565_" class="st40" d="M293.8 177.7h11.9v11.9h-11.9z"/><g id="XMLID_1563_"><path id="XMLID_1564_" class="st31" d="M300.4 183v-5.3h-1.5v5.3h-5.1v1.5h5.1v5.1h1.5v-5.1h5.3V183z"/></g></g><g id="XMLID_1558_"><path id="XMLID_1561_" class="st29" d="M281.2 174.5h11.9v11.9h-11.9z"/><g id="XMLID_1559_"><path id="XMLID_1560_" class="st40" d="M287.8 179.8v-5.3h-1.6v5.3h-5v1.5h5v5.1h1.6v-5.1h5.2v-1.5z"/></g></g><g id="XMLID_1554_"><path id="XMLID_1557_" class="st31" d="M306.8 173.7h11.9v11.9h-11.9z"/><g id="XMLID_1555_"><path id="XMLID_1556_" class="st80" d="M313.4 179v-5.3h-1.5v5.3h-5.1v1.5h5.1v5h1.5v-5h5.3V179z"/></g></g><path id="XMLID_1553_" class="st38" d="M278.1 184.9H321v28.4h-42.9z"/><path id="XMLID_1552_" class="st5" d="M278.1 207.2H321v6.1h-42.9z"/><path id="XMLID_1551_" class="st79" d="M280.3 213.7c0 1.3-1 2.3-2.3 2.3-1.3 0-2.3-1-2.3-2.3v-32.4c0-1.3 1-2.3 2.3-2.3 1.3 0 2.3 1 2.3 2.3v32.4z"/><path id="XMLID_1550_" class="st79" d="M324 213.7c0 1.3-1 2.3-2.3 2.3-1.3 0-2.3-1-2.3-2.3v-32.4c0-1.3 1-2.3 2.3-2.3 1.3 0 2.3 1 2.3 2.3v32.4z"/><path id="XMLID_1549_" class="st79" d="M280.3 228.1c0 1.3-1 2.3-2.3 2.3-1.3 0-2.3-1-2.3-2.3v-4.8c0-1.3 1-2.3 2.3-2.3 1.3 0 2.3 1 2.3 2.3v4.8z"/><path id="XMLID_1548_" class="st79" d="M324 228.1c0 1.3-1 2.3-2.3 2.3-1.3 0-2.3-1-2.3-2.3v-4.8c0-1.3 1-2.3 2.3-2.3 1.3 0 2.3 1 2.3 2.3v4.8z"/></g></g></g></svg>