<svg id="slice" xmlns="http://www.w3.org/2000/svg" width="520.6" height="347.6" viewBox="0 0 520.6 347.6"><style>.st0{opacity:.11;fill:#231f20}.st1{fill:#94917f}.st2{fill:#baafa2}.st3{fill:#785768}.st4{fill:#aaa89a}.st5{opacity:.1}.st6{fill:#8ce1f9}.st7{fill:#ceccbf}.st8{fill:#8d667a}.st9{fill:#918c84}.st10{fill:#c2beb6}.st11{fill:#f0e1d1}.st12{fill:#b6b4a8}.st13{fill:#94938a}.st14{fill:#7d7c71}.st15{fill:#633b4f}.st16{fill:#85837d}.st17{fill:#8a7665}.st18{fill:#6a695c}.st19{fill:#b9b7a4}.st20{fill:#2f9f42}.st21{opacity:.13}.st22{opacity:.2;fill:#231f20}.st23{fill:#d53e2e}.st24{fill:#003673}.st25{fill:#f09a1a}.st26{fill:#fdbf0f}.st27{fill:#736357}.st28{fill:#d84637}.st29{fill:#00a9e9}.st30{fill:#ffde00}.st31{fill:#48b780}.st32{fill:#7c6959}.st33{fill:#d3ae6e}.st34{fill:#fff}.st35{fill:#ffe95a}.st36{fill:#ffc300}.st37{fill:#f27b20}.st38{fill:#ee3837}.st39{fill:#4c8bfb}.st40{fill:#b757c5}.st41{fill:#ffdf8a}.st42{fill:#333}.st43{fill:#6a57ab}.st44{fill:#5d377a}.st45{fill:#393939}.st46{fill:#fde08b}.st47{fill:#dc3126}.st48{fill:#fdd500}.st49{fill:#515c5d}.st50{fill:#7d8586}.st51{fill:#afd136}.st52{fill:url(#SVGID_1_)}.st53{fill:url(#SVGID_2_)}.st54{fill:#e8d184}.st55{fill:#ca7836}.st56{fill:#54d184}.st57{opacity:.48}.st58{opacity:.5;fill:#75cef4}.st59{opacity:.5;fill:#00bff0}.st60{opacity:.5;fill:#e6f6fd}.st61{opacity:.48;fill:#75cef4}.st62{fill:url(#SVGID_3_)}.st63{fill:gray}.st64{fill:#8f4293}.st65{fill:#ffd400}.st66{fill:url(#SVGID_4_)}.st67{fill:#28ae4b}.st68{fill:#e64436}.st69{fill:url(#SVGID_5_)}.st70{fill:url(#XMLID_113_)}.st71{opacity:.17;fill:#fff}.st72{fill:url(#SVGID_6_)}.st73{fill:url(#SVGID_7_)}.st74{fill:#00b2ee}.st75{fill:#b89860}.st76{fill:#b0b0b0}.st77{fill:#864537}.st78{fill:#fbcf99}.st79{fill:#fbcd48}.st80{fill:#fd0}.st81{fill:#d2392c}.st82{fill:url(#SVGID_8_)}.st83{fill:url(#SVGID_9_)}.st84{fill:url(#SVGID_10_)}.st85{fill:url(#SVGID_11_)}.st86{fill:url(#XMLID_213_)}.st87{fill:#afd77d}.st88{opacity:.1;fill:#231f20}.st89{fill:#7cb342}.st90{fill:#f9ce1d}.st91{fill:#ffe36c}.st92{fill:#5e35b1}.st93{fill:#9575cd}.st94{fill:#29b6f6}.st95{fill:#4ad0ff}.st96{fill:#9dce2e}.st97{fill:#e53935}.st98{fill:#f94b4b}.st99{fill:#fb8c00}.st100{fill:#fc9f42}.st101{fill:#9dca3b}.st102{fill:#66a622}.st103{fill:#ffb300}.st104{fill:#f57c00}.st105{fill:#a1cacf}.st106{fill:#dff3f5}.st107{fill:#bad7db}.st108{fill:#c3dfe3}.st109{fill:#bcdee3}.st110{opacity:.5}.st111{opacity:.8}.st112{fill:url(#XMLID_215_)}.st113{fill:url(#SVGID_12_)}.st114{fill:#f6f3ec}.st115{fill:#d7d7d7}.st116{fill:#959d9e}.st117{fill:#b3b3b3}.st118{fill:#e0e0e0}.st119{fill:#4d4d4d}.st120{fill:#595959}.st121{fill:#ffeb5e}.st122{fill:#6d7576}.st123{fill:#c9e09d}.st124{fill:#8f8f8f}.st125{fill:#5c6566}.st126{fill:#a19e97}.st127{fill:#61c6ec}.st128{fill:#77bf82}.st129{fill:#f3ff73}.st130{fill:url(#XMLID_218_)}.st131{fill:url(#SVGID_13_)}.st132{fill:url(#SVGID_14_)}.st133{fill:url(#XMLID_221_)}.st134{fill:#555047}.st135{fill:#896339}.st136{fill:#736f68}.st137{fill:#949494}.st138{fill:#83dee8}.st139{fill:#85827d}.st140{opacity:.2}.st141{fill:#404040}.st142{fill:silver}.st143{fill:#eee}.st144{fill:#44c2c2}.st144,.st145{clip-path:url(#SVGID_16_)}.st145{fill:#a3d89f}.st146{fill:#c83a74}.st146,.st147{clip-path:url(#SVGID_16_)}.st147{fill:#ffa376}.st148{opacity:.24}.st149{opacity:.48;fill:#85827d}.st150{opacity:.48;fill:none;stroke:#85827d;stroke-width:.9;stroke-miterlimit:10}.st151{opacity:.83;fill:#85827d}.st152{fill:#888480}.st153{fill:#7099ba}.st154{fill:#b0e1e8}.st155{opacity:.22;fill:#fff}.st156{fill:url(#XMLID_230_)}.st157{fill:url(#SVGID_17_)}.st158{fill:url(#SVGID_18_)}.st159{fill:url(#XMLID_231_)}.st160{fill:#9db9bd}.st161{fill:#d1e3e6}.st162{fill:#b6d6db}.st163{fill:#9ccfd9}.st164{fill:#b4d3d9}.st165{fill:#97babf}.st166{fill:#c1dff5}.st167{fill:#c5e7eb}.st168{fill:#8ab8d4}.st169{fill:#e6e6e6}.st170{fill:#716e69}.st171{fill:#71bdde}.st172{fill:#659bc7}.st173{fill:#70afd4}.st174{fill:none}.st175{fill:#97cee6}.st176{opacity:8e-2;fill:#0f0f0f}.st177{opacity:.1;fill:#0f0f0f}.st178{fill:#385fe4}.st179{fill:#ccc}.st180{fill:#2986e4}.st181{opacity:.21}.st182{clip-path:url(#SVGID_20_)}.st183{filter:url(#Adobe_OpacityMaskFilter)}.st184{mask:url(#SVGID_21_);fill:#33659a}.st185{filter:url(#Adobe_OpacityMaskFilter_1_)}.st186{mask:url(#SVGID_22_);fill:#385fe4}.st187{filter:url(#Adobe_OpacityMaskFilter_2_)}.st188{opacity:.17;mask:url(#SVGID_23_)}.st189{clip-path:url(#SVGID_25_)}.st190{opacity:.77}.st191{fill:#e8c97b}.st192{fill:#2d56e2}.st193{opacity:.11}.st194{fill:#0bbf68}.st195{fill:#98bee4}.st196{fill:#3f5656}.st197{fill:#d7c17d}.st198{opacity:.2;fill:#fff}.st199{fill:url(#SVGID_26_)}.st200{fill:url(#XMLID_342_)}.st201{fill:url(#SVGID_27_)}.st202{fill:url(#XMLID_352_)}.st203{fill:#9c9c9c}.st204{fill:#808082}.st205{fill:#9ed5ec}.st206{fill:#cacaca}.st207{fill:#e3e3e3}.st208{fill:#979797}.st209{fill:#9e9e9e}.st210{opacity:.58;fill:#c7ffff}.st211{opacity:.25}.st212{fill:#a52e22}.st213{fill:#e63636}.st214{fill:url(#XMLID_360_)}.st215{fill:url(#XMLID_362_)}.st216{fill:#969696}.st217{fill:#0158bb}.st218{fill:#1565c0}.st219{fill:#3dd1f9}.st220{fill:#f5a816}.st221{fill:#c62828}.st222{fill:#bdbdbd}.st223{fill:#a5a5a5}.st224{fill:#424242}.st225{fill:#e6e7e8}.st226{clip-path:url(#SVGID_31_);fill:#fff}.st227{fill:#e91c24}.st227,.st228{clip-path:url(#SVGID_31_)}.st228{fill:#1976d2}.st229{fill:#4d8acf}.st230{fill:none;stroke:#fff;stroke-width:.9;stroke-miterlimit:10}.st231{fill:#00adee}.st232{clip-path:url(#SVGID_33_);fill:#fff}.st233{fill:#dbdbdb}.st234{fill:url(#SVGID_34_)}.st235{fill:url(#SVGID_35_)}.st236{fill:url(#SVGID_36_)}.st237{fill:url(#SVGID_37_)}.st238{fill:url(#SVGID_38_)}.st239{fill:url(#SVGID_39_)}.st240{fill:url(#SVGID_40_)}.st241{fill:url(#SVGID_41_)}.st242{fill:#f7ce97}.st243{fill:#4c4c4c}.st244{fill:#e9e9e9}.st245{fill:#eb9b95}.st246{fill:#656565}.st247{fill:#5e5a48}.st248{fill:url(#SVGID_42_)}.st249{fill:url(#SVGID_43_)}.st250{fill:#999}.st251{opacity:.36;fill:#00a64c}.st252{fill:#d4d4d4}.st252,.st253{fill-rule:evenodd;clip-rule:evenodd}.st253{fill:#fff}.st254{fill:#008141}.st254,.st255{fill-rule:evenodd;clip-rule:evenodd}.st255{fill:#00a64c}.st256{fill:#28b265}.st257{opacity:.4;fill:#ffe000}.st258{fill:#c8cbcc}.st259{fill:#b8b8b8}.st260{fill:#949496}.st261{fill:#c8ead4}.st262{fill:#7d8485}.st263{fill:#2364d5}.st264{fill:url(#XMLID_368_)}.st265{fill:url(#SVGID_44_)}.st266{fill:url(#SVGID_45_)}.st267{fill:url(#SVGID_46_)}.st268{fill:#8700ee}.st269{fill:#00b533}.st270{fill:#eeda00}.st271{fill:#f2206d}.st272{fill:#6299fb}.st273{opacity:.7;fill:url(#SVGID_47_)}.st274{opacity:.7;fill:url(#SVGID_48_)}.st275{opacity:.7;fill:url(#SVGID_49_)}.st276{fill:#ee5e5d}.st277{fill:#e09d17}.st278{fill:#f0ede9}.st279{clip-path:url(#SVGID_51_)}.st280{fill:#eec85c}.st281{opacity:.32;fill:#9a0000}.st282{fill:#f0f0f0}.st283{fill:#81d4fa}.st284{opacity:.49;fill:#c9edfc}.st285{fill:#d8746a}.st286{fill:#fcbe8d}.st287{fill:#00a9e7}.st288{fill:#6a7173}.st289{opacity:.6}.st290{fill:url(#SVGID_52_)}.st291{fill:url(#SVGID_53_)}.st292{fill:url(#XMLID_388_)}.st293{fill:url(#SVGID_54_)}.st294{fill:url(#SVGID_55_)}.st295{fill:url(#SVGID_56_)}.st296{fill:url(#SVGID_57_)}.st297{fill:#67635d}.st298{fill:#999690}.st299{fill:#e6da91}.st300{opacity:.55;fill:#bbaf3e}.st301{fill:#a8a69b}.st302{clip-path:url(#SVGID_59_)}.st303{fill:url(#SVGID_60_)}.st304{fill:url(#SVGID_61_)}.st305{opacity:.1;clip-path:url(#SVGID_59_)}.st306{clip-path:url(#SVGID_63_)}.st307{fill:#e3e3e2}.st308{fill:#cf4140}.st309{fill:url(#SVGID_64_)}.st310{fill:url(#SVGID_65_)}.st311{fill:url(#SVGID_66_)}.st312{fill:url(#SVGID_67_)}.st313{fill:#666}.st314{fill:#c1161c}.st315{fill:#b47945}.st316{fill:#d9dadb}.st317{fill:#36af49}.st318{fill:#2a943e}.st319{fill:#9ea0a2}.st320{fill:#bebfc1}.st321{fill:#f5961d}.st322{fill:#ffef00}.st323{fill:#6d6d6d}.st324{fill:url(#SVGID_68_)}.st325{fill:url(#XMLID_391_)}.st326{fill:#795d00}.st327{fill:#bb8024}.st327,.st328{clip-path:url(#SVGID_70_)}.st328{opacity:.1}.st329{fill:#955d00}.st330{fill:#f38836}.st331{fill:url(#XMLID_392_)}.st332{fill:url(#SVGID_71_)}.st333{fill:url(#SVGID_72_)}.st334{fill:url(#XMLID_393_)}.st335{opacity:.99}.st336{fill:#e8af38}.st337{fill:#98ab00}.st338{fill:#e75c52}.st339{fill:#a9897d}.st340{fill:#cb9d7b}.st341{fill:#996b63}.st342{fill:#35b8e8}.st343{opacity:.12;fill:url(#SVGID_73_)}.st344{opacity:.12;fill:url(#SVGID_74_)}.st345{opacity:.28;fill:url(#SVGID_77_)}.st346{opacity:.2;clip-path:url(#SVGID_81_)}.st347{fill:#fff59c}.st348{fill:#ebdbce}.st349{fill:#b07a53}.st350{fill:#1185ba}.st351{fill:#1f57a1}.st351,.st352{opacity:.32}.st353{fill:#c28d65}.st354{fill:#eb776f}.st355{fill:#afdb39}.st356{fill:#ebdb57}.st357{opacity:.16}.st358{fill:#cba483}.st359{fill:url(#XMLID_394_)}.st360{fill:url(#SVGID_82_)}.st361{fill:url(#SVGID_83_)}.st362{fill:#bee6eb}.st363{fill:#f9df00}.st364{fill:#d84733}.st365{fill:#fce000}.st366{fill:#575757}.st367{fill:#b3b2b3}.st368{fill:#e5e5e4}.st369{fill:#d5302b}.st370{fill:url(#SVGID_84_)}.st371{fill:url(#SVGID_85_)}.st372{fill:#ec4180}.st373{fill:#fbcb54}.st374{fill:#7296f0}.st375{fill:#fc793d}.st376{opacity:.14}.st377{fill:#404144}.st378{fill:#606163}.st379{opacity:.3}.st380,.st381{fill:#d7b256}.st381{opacity:.38}.st382{fill:#3d3d39}.st383{fill:#393b36}.st384{opacity:.6;fill:#3bff65}.st385{opacity:.6;fill:#fc793d}.st386{clip-path:url(#SVGID_87_)}.st387{opacity:.29}.st388{fill:#9a51a8}.st389{fill:#fef6e0}.st390{fill:#a06ea9}.st391{fill:#353535}.st392{clip-path:url(#SVGID_89_);fill:#fff}.st393{opacity:.23;fill:#fff}.st394{opacity:.13;fill:#fff}.st395{opacity:5e-2}.st396{opacity:.45}.st397{opacity:.2}.st397,.st398{fill:#fff170}.st399{opacity:.21;fill:#fff}.st400{opacity:.1;fill:#fff}.st401{opacity:.27;fill:url(#SVGID_90_)}.st402{opacity:.27;fill:url(#SVGID_91_)}.st403{fill:url(#SVGID_92_)}.st404{fill:url(#SVGID_93_)}.st405{fill:#2850a8}.st406{fill:#286ee4}.st407{fill:#0053df}.st408{fill:#007dd0}.st409{fill:#2891e4}.st410{opacity:.72}.st411{opacity:.28;fill:url(#SVGID_94_)}.st412{opacity:.28;fill:url(#SVGID_95_)}.st413{fill:#2d6b7f}.st414,.st415{fill:#ff7c40}.st415{opacity:.21}.st416{opacity:.28;fill:url(#SVGID_96_)}.st417{opacity:.28;fill:url(#SVGID_97_)}.st418{opacity:.28;fill:url(#SVGID_98_)}.st419{opacity:.28;fill:url(#SVGID_99_)}.st420,.st421{fill:#ffee0a}.st421{opacity:.21}.st422{opacity:.28;fill:url(#SVGID_100_)}.st423{opacity:.28;fill:url(#SVGID_101_)}.st424,.st425{fill:#fd45ff}.st425{opacity:.21}.st426{opacity:.28;fill:url(#SVGID_102_)}.st427{opacity:.28;fill:url(#SVGID_103_)}.st428,.st429{fill:#52ff52}.st429{opacity:.21}.st430{opacity:.28;fill:url(#SVGID_104_)}.st431{opacity:.28;fill:url(#SVGID_105_)}.st432{opacity:.28;fill:url(#SVGID_106_)}.st433{opacity:.28;fill:url(#SVGID_107_)}.st434,.st435{fill:#59fff3}.st435{opacity:.21}.st436{opacity:.28;fill:url(#SVGID_108_)}.st437{opacity:.28;fill:url(#SVGID_109_)}.st438{opacity:.28;fill:url(#SVGID_110_)}.st439{opacity:.28;fill:url(#SVGID_111_)}.st440{opacity:.28;fill:url(#SVGID_112_)}.st441{opacity:.28;fill:url(#SVGID_113_)}.st442{opacity:.28;fill:url(#SVGID_114_)}.st443{opacity:.28;fill:url(#SVGID_115_)}.st444{opacity:.28;fill:url(#SVGID_116_)}.st445{opacity:.28;fill:url(#SVGID_117_)}.st446{opacity:.28;fill:url(#SVGID_118_)}.st447{opacity:.28;fill:url(#SVGID_119_)}.st448{opacity:.28;fill:url(#SVGID_120_)}.st449{opacity:.28;fill:url(#SVGID_121_)}.st450{opacity:.28;fill:url(#SVGID_122_)}.st451{opacity:.28;fill:url(#SVGID_123_)}.st452{opacity:.28;fill:url(#SVGID_124_)}.st453{opacity:.28;fill:url(#SVGID_125_)}.st454{opacity:.28;fill:url(#SVGID_126_)}.st455{opacity:.28;fill:url(#SVGID_127_)}.st456{opacity:.28;fill:url(#SVGID_128_)}.st457{opacity:.28;fill:url(#SVGID_129_)}.st458{opacity:.28;fill:url(#SVGID_130_)}.st459{opacity:.28;fill:url(#SVGID_131_)}.st460{opacity:.28;fill:url(#SVGID_132_)}.st461{opacity:.28;fill:url(#SVGID_133_)}.st462{opacity:.28;fill:url(#SVGID_134_)}.st463{opacity:.28;fill:url(#SVGID_135_)}.st464{opacity:.28;fill:url(#SVGID_136_)}.st465{opacity:.28;fill:url(#SVGID_137_)}.st466{opacity:.28;fill:url(#SVGID_138_)}.st467{opacity:.28;fill:url(#SVGID_139_)}.st468{opacity:.28;fill:url(#SVGID_140_)}.st469{opacity:.28;fill:url(#SVGID_141_)}.st470{opacity:.28;fill:url(#SVGID_142_)}.st471{opacity:.28;fill:url(#SVGID_143_)}.st472{opacity:.28;fill:url(#SVGID_144_)}.st473{opacity:.28;fill:url(#SVGID_145_)}.st474{opacity:.28;fill:url(#SVGID_146_)}.st475{opacity:.28;fill:url(#SVGID_147_)}.st476{opacity:.28;fill:url(#SVGID_148_)}.st477{opacity:.28;fill:url(#SVGID_149_)}.st478{opacity:.28;fill:url(#SVGID_150_)}.st479{opacity:.28;fill:url(#SVGID_151_)}.st480{opacity:.28;fill:url(#SVGID_152_)}.st481{opacity:.28;fill:url(#SVGID_153_)}.st482{opacity:.28;fill:url(#SVGID_154_)}.st483{opacity:.28;fill:url(#SVGID_155_)}.st484{opacity:.28;fill:url(#SVGID_156_)}.st485{opacity:.28;fill:url(#SVGID_157_)}.st486{opacity:.28;fill:url(#SVGID_158_)}.st487{opacity:.28;fill:url(#SVGID_159_)}.st488{opacity:.28;fill:url(#SVGID_160_)}.st489{opacity:.28;fill:url(#SVGID_161_)}.st490{opacity:.28;fill:url(#SVGID_162_)}.st491{opacity:.28;fill:url(#SVGID_163_)}.st492{opacity:.28;fill:url(#SVGID_164_)}.st493{opacity:.28;fill:url(#SVGID_165_)}.st494{opacity:.28;fill:url(#SVGID_166_)}.st495{opacity:.28;fill:url(#SVGID_167_)}.st496{opacity:.28;fill:url(#SVGID_168_)}.st497{opacity:.28;fill:url(#SVGID_169_)}.st498{opacity:.28;fill:url(#SVGID_170_)}.st499{opacity:.28;fill:url(#SVGID_171_)}.st500{opacity:.28;fill:url(#SVGID_172_)}.st501{opacity:.28;fill:url(#SVGID_173_)}.st502{fill:#898f90}.st503{opacity:.25;fill:#fff}.st504{fill:#00b8f0}.st505{fill:#00a7f0}.st506{opacity:.91;fill:url(#SVGID_174_)}.st507{opacity:.12;fill:#ffee0a}.st508{opacity:.62}.st509{fill:url(#SVGID_175_)}.st510{fill:url(#SVGID_176_)}.st511{fill:url(#SVGID_177_)}.st512{fill:url(#SVGID_178_)}.st513{fill:#7d857e}.st514{fill:#89908a}.st515{opacity:.91;fill:url(#SVGID_179_)}.st516{opacity:.12}.st516,.st517{fill:#78ff5e}.st518{fill:url(#SVGID_180_)}.st519{fill:url(#SVGID_181_)}.st520{fill:url(#SVGID_182_)}.st521{fill:url(#SVGID_183_)}.st522{fill:#85847d}.st523{fill:#908f89}.st524{opacity:.91;fill:url(#SVGID_184_)}.st525{opacity:.12;fill:#ff5e91}.st526{fill:#ff8373}.st527{fill:url(#SVGID_185_)}.st528{fill:url(#SVGID_186_)}.st529{fill:url(#SVGID_187_)}.st530{fill:url(#SVGID_188_)}.st531{fill:#5d6667}.st532{fill:url(#XMLID_395_)}.st533{fill:url(#XMLID_401_)}.st534{fill:url(#SVGID_189_)}.st535{fill:#b13837}.st536{fill:#3b627a}.st537{fill:url(#SVGID_190_)}.st538{fill:url(#XMLID_405_)}.st539{fill:url(#SVGID_191_)}.st540{fill:#754517}.st541{fill:#845930}.st542{fill:#a35f25}.st543{fill:#aa6c37}.st544{fill:#b07644}.st545{fill:#efdbc1}.st546{fill:#ffc805}.st547{fill:#231f20}.st548{fill:#00a351}.st549{fill:#084}.st550{fill:#ef6522}.st551{fill:#7a4b1f}.st552{fill:#32cbe6}.st553{fill:url(#SVGID_192_)}.st554{opacity:.1;fill:#005fd0}.st555{fill:#e6e5e1}.st556{fill:#7b9eb8}.st557{fill:#a5b3ad}.st558{fill:#c7c7c7}.st559{fill:url(#XMLID_412_)}.st560{fill:url(#SVGID_193_)}.st561{fill:url(#SVGID_194_)}.st562{fill:#388e3c}.st563{fill:#2e7d32}.st564{fill:#ffe18c}.st565{opacity:.25;fill:#29b6f6}.st566{fill:#414042}.st567{fill:#2f4c52}.st568{fill:#455d82}.st569{fill:#795548}.st570{fill:#d3d4d6}.st571{fill:#bcbec0}.st572{clip-path:url(#SVGID_196_)}.st573{fill:url(#SVGID_197_)}.st574{fill:url(#SVGID_198_)}.st575{clip-path:url(#SVGID_200_)}.st576{opacity:.5;fill:#f9ce1d}.st577{opacity:.28}.st578{fill:#d7d8d9}.st579{fill:#ebeced}.st580{fill:#ffd600}.st581{fill:#039be5}.st582{fill:url(#XMLID_418_)}.st583{fill:url(#SVGID_201_)}.st584{fill:#34d4f0}.st585{fill:#74e4f6}.st585,.st586{opacity:.51}.st587{fill:#74e4f6}.st588{fill:url(#XMLID_420_)}.st589{fill:#434fbf}.st590{opacity:.51}.st590,.st591{fill:#7182f0}.st592{opacity:.36}.st593{opacity:.38}.st594{opacity:.39;fill:#ffff5c}.st595{opacity:.58;fill:#fff}.st596{opacity:.19;fill:#73c1de}.st597{opacity:.19;fill:#7335de}.st598{fill:#f5f2e2}.st599{fill:#a3a2a1}.st600{fill:#5a99d1}.st601{fill:#b8a485}.st602{fill:#eee5d5}.st603{fill:#ffc}.st604{fill:#ffd200}.st605{fill:#f26e21}.st606{fill:#f5871f}.st607{fill:#cfcfcf}.st608{fill:#019049}.st609{fill:#07a860}.st610{fill:#ab00ee}.st611{fill:#93d8f7}.st612{fill:#725d4c}.st613{fill:#028f1f}.st614{fill:#0da760}.st615{fill:#f4c138}.st616{fill:#f9646d}</style><g id="New_Symbol_76"><g id="New_Symbol_65_2_"><ellipse class="st114" cx="255.5" cy="323.1" rx="1.2" ry="1.3"/><path class="st114" d="M471.7 314.7c-2.1 0-3.9 1.9-3.9 4.2h7.7c0-2.3-1.7-4.2-3.8-4.2zm-11.9 1h-4.2c-2.1-2.9-8.5-6.8-11.1-6.8h-19.9c-5 0-4.5-2.9-4.4-3.9.2-1 .9-2.3 4.3-2.3h11.8c1.2 0 1.7-1.6.7-2.3-4.2-2.9-7-4.8-10.3-4.8H284.1c-2.2 0-4.3 1-5.5 3-1.2 2.1-4.8 8.7-7.3 10.6-1.1.8-1.7 2.2-1.7 3.6 0 1.2.4 2.3 1.2 3.1.7.8 1.7 1.3 2.8 1.3l5 .1c2.6-1.4 2.5 1.3 0 2.2h-15.9c-2.6 0-4.7 1.1-4.7 2.5s2.1 2.5 4.7 2.5h168.7c1.2 0 2.2-.5 4.2-1.4h9.9c1.1 0 2-.9 2-2 0-.6-.3-1.1-.7-1.5h12.8c1.1 0 2-.9 2-2s-.7-1.9-1.8-1.9z"/><path id="XMLID_456_" class="st114" d="M213.6 314.5c0-1.9 1.4-3.5 3.2-3.5s3.2 1.6 3.2 3.5h-6.4z"/><path id="XMLID_455_" class="st114" d="M239 316c0-1.3 1-2.4 2.2-2.4 1.2 0 2.2 1.1 2.2 2.4"/><path id="XMLID_408_" class="st115" d="M415.6 307c0-2.3 1.7-4.2 3.9-4.2s3.9 1.9 3.9 4.2h-7.8z"/><path id="XMLID_407_" class="st115" d="M284.6 315.4c0-1.6 1.2-3 2.7-3s2.7 1.3 2.7 3h-5.4z"/><path class="st115" d="M454.5 305.8h-8.8c-.9 0-1.7-.8-1.7-1.7 0-.9.8-1.7 1.7-1.7h8.8c.9 0 1.7.8 1.7 1.7 0 .9-.7 1.7-1.7 1.7z"/><path id="XMLID_406_" class="st115" d="M418.7 314.9c0-2.3 1.7-4.2 3.9-4.2s3.9 1.9 3.9 4.2h-7.8z"/><path id="XMLID_404_" class="st34" d="M155.5 301.9c0-2 1.5-3.6 3.3-3.6 1.8 0 3.3 1.6 3.3 3.6h-6.6z"/><path class="st34" d="M372.5 291.5c-3.8-7.4-16.2-13.2-23.5-13.2H238.8c-2.2 0-7.6 2.9-9.5 4.6-2.2 2-13.1 7.1-16 8h-.4c-1.9 0-5.4 3.6-5.4 5.6 0 2 3.6 1.7 5.4 1.7l9.2.2c2.8 0 2.8 4.7 0 4.7h-27.4c-1.5 0-4.7 2.3-4.7 3.9s3.2 1.9 4.7 1.9h188.1l-10.3-17.4z"/><path class="st34" d="M194.5 297.6c-2.2 0-4 1.9-4 4.3h7.9c0-2.4-1.7-4.3-3.9-4.3zm0-6.4h6.1c0-2.4-1.8-4.3-4-4.3-1.3 0-2.5.7-3.3 1.9-.5-.5-1.1-.7-1.8-.7-1.6 0-2.9 1.4-2.9 3.2h5.9z"/><ellipse class="st34" cx="183.7" cy="303.3" rx="2.2" ry="2.4"/><path class="st34" d="M197.8 295.5h6c0-1.8-1.3-3.2-3-3.2s-3 1.4-3 3.2z"/><path id="XMLID_384_" class="st115" d="M349 302.3c0-1.9 1.4-3.4 3.2-3.4s3.2 1.5 3.2 3.4H349z"/><path id="XMLID_383_" class="st34" d="M392.8 316.3c0-2.4 1.8-4.3 4-4.3s4 1.9 4 4.3h-8z"/><path id="XMLID_382_" class="st34" d="M334.2 314.1c0-1.9 1.4-3.4 3.1-3.4 1.7 0 3.1 1.5 3.1 3.4h-6.2z"/><path id="XMLID_381_" class="st115" d="M228.1 302.8c0-1.7 1.2-3 2.8-3 1.5 0 2.8 1.4 2.8 3h-5.6z"/><path class="st115" d="M390.8 291.2h-9c-.9 0-1.7-.8-1.7-1.7 0-.9.8-1.7 1.7-1.7h9c.9 0 1.7.8 1.7 1.7 0 .9-.8 1.7-1.7 1.7z"/><path class="st34" d="M385.3 300.3h16.9c1.1 0 2.1-.9 2.1-2.1 0-1.1-.9-2.1-2.1-2.1h-16.9c-1.1 0-2.1.9-2.1 2.1 0 1.2.9 2.1 2.1 2.1zm22.6 1.3h-30.3c-1.5 0-2.8 1.2-2.8 2.8 0 .8.3 1.5.9 2h-13.5c-1.5 0-2.8 1.2-2.8 2.8s1.2 2.8 2.8 2.8h30.3c1.5 0 2.8-1.2 2.8-2.8 0-.8-.3-1.5-.9-2h13.5c1.5 0 2.8-1.2 2.8-2.8s-1.3-2.8-2.8-2.8z"/><path id="XMLID_380_" class="st115" d="M361.2 306.2c0-2.4 1.8-4.3 4-4.3s4 1.9 4 4.3h-8z"/><path id="XMLID_367_" class="st114" d="M247.8 311.8c0-2.3 1.7-4.2 3.9-4.2s3.9 1.9 3.9 4.2h-7.8z"/><path id="XMLID_366_" class="st114" d="M249.9 304.1c0-2.3 1.7-4.2 3.9-4.2s3.9 1.9 3.9 4.2h-7.8z"/><path id="XMLID_365_" class="st114" d="M246 304.1c0-1.7 1.3-3.1 2.8-3.1s2.8 1.4 2.8 3.1H246z"/><path id="XMLID_364_" class="st114" d="M329.4 309c0-2.4 1.8-4.3 4-4.3s4 1.9 4 4.3h-8z"/><path id="XMLID_363_" class="st114" d="M325.4 309c0-1.8 1.3-3.2 2.9-3.2s2.9 1.4 2.9 3.2h-5.8z"/><path id="XMLID_350_" class="st114" d="M309.2 309.9c0-2.8 2.1-5 4.6-5 2.5 0 4.6 2.2 4.6 5"/></g><ellipse class="st88" cx="288.8" cy="291" rx="154.1" ry="10.5"/><path class="st97" d="M394.4 247.3h27v13.3h-27z"/><path class="st362" d="M395.4 261.6h25v11.6h-25z"/><path class="st179" d="M419.5 262.5v9.6h-23.1v-9.6h23.1m1.9-1.9h-27v13.5h27v-13.5z"/><path class="st179" d="M406.9 261.9h1.9v10.9h-1.9z"/><path class="st97" d="M392.6 282h30.5v3.3h-30.5z"/><path class="st141" d="M394.4 285.3h4.4v5.6h-4.4zm22.6 0h4.4v5.6H417z"/><path class="st179" d="M417.5 270.2h-19.2c-2.2 0-3.9 1.7-3.9 3.9v7.9h27v-7.9c0-2.2-1.8-3.9-3.9-3.9z"/><circle class="st363" cx="398.9" cy="274.6" r="1.5"/><circle class="st363" cx="417" cy="274.6" r="1.5"/><circle class="st34" cx="392.9" cy="271.7" r="1.5"/><path class="st288" d="M402.7 273.1h1.3v8.9h-1.3zm2.3 0h1.3v8.9H405zm2.3 0h1.3v8.9h-1.3zm2.3 0h1.3v8.9h-1.3zm2.3 0h1.3v8.9h-1.3z"/><circle class="st34" cx="422.9" cy="271.7" r="1.5"/><path class="st364" d="M313.9 98.2h21.5v21.5h-21.5z"/><path class="st365" d="M322.4 111.2h-8.5v-4.8h8.5v-8.2h4.9v8.2h8v4.8h-8v8.5h-4.9z"/><path class="st364" d="M287.6 146c-4.5-4.5-4.7-12.6-.6-22.8 4-9.9 11.5-20.8 21.3-30.6s20.7-17.4 30.6-21.3c10.2-4.1 18.3-3.9 22.8.6l-1.6 1.6c-3.8-3.8-11.1-3.9-20.4-.1-9.7 3.9-20.2 11.3-29.8 20.8s-17 20.2-20.8 29.8c-3.7 9.3-3.7 16.6.1 20.4l-1.6 1.6z"/><path class="st94" d="M361.7 146l-1.6-1.6c3.8-3.8 3.9-11.1.1-20.4-3.9-9.7-11.3-20.2-20.8-29.8-9.6-9.6-20.2-17-29.8-20.8-9.3-3.7-16.6-3.7-20.4.1l-1.6-1.6c4.5-4.5 12.6-4.7 22.8-.6 9.9 4 20.8 11.5 30.6 21.3s17.4 20.7 21.3 30.6c4.1 10.2 3.9 18.3-.6 22.8z"/><path class="st90" d="M365.2 109H363c0-21.1-17.2-38.4-38.4-38.4-21.1 0-38.4 17.2-38.4 38.4H284c0-22.4 18.2-40.6 40.6-40.6 22.4 0 40.6 18.2 40.6 40.6zm-40.6 40.6c-22.4 0-40.6-18.2-40.6-40.6h2.2c0 21.1 17.2 38.4 38.4 38.4 21.1 0 38.4-17.2 38.4-38.4h2.2c0 22.4-18.2 40.6-40.6 40.6z"/><path class="st364" d="M297.5 149.6c-4.1 0-7.5-1.1-9.9-3.6l1.6-1.6c8 8 31-1.5 50.2-20.7 19.2-19.2 28.7-42.2 20.7-50.2l1.6-1.6c9.2 9.2.1 32.6-20.7 53.4-15.3 15.3-32.1 24.3-43.5 24.3z"/><path class="st94" d="M351.8 149.6c-3.7 0-8.1-1-13-2.9-9.9-4-20.8-11.5-30.6-21.3s-17.4-20.7-21.3-30.6c-4.1-10.2-3.9-18.3.6-22.8l1.6 1.6c-3.8 3.8-3.9 11.1-.1 20.4 3.9 9.7 11.3 20.2 20.8 29.8 9.6 9.6 20.2 17 29.8 20.8 9.3 3.7 16.6 3.7 20.4-.1l1.6 1.6c-2.3 2.3-5.6 3.5-9.8 3.5z"/><path class="st169" d="M165.4 176.5h80.7v48.4h-80.7z"/><path class="st298" d="M231.1 176.5h15v48.4h-15z"/><path class="st366" d="M175.4 166.6h10v10h-10zm50.7 0h10v10h-10z"/><circle class="st97" cx="199.9" cy="203.4" r="15.2"/><path class="st365" d="M201.6 191.5l-6.8 13.6h6.8z"/><path class="st365" d="M198.3 215.4l6.8-13.6h-6.8z"/><path class="st141" d="M174.5 225h-1.9c0-8.1-4.8-11.6-9.9-15.3-5.5-4-11.2-8.1-11.2-18.3 0-11.9 9-20.8 20.9-20.8v1.9c-10.8 0-19 8.1-19 18.9 0 9.2 5.1 12.8 10.5 16.7 5.2 3.9 10.6 7.8 10.6 16.9z"/><path class="st90" d="M188.3 173.5h-15.8c-1.1 0-1.9-.9-1.9-1.9s.9-1.9 1.9-1.9h15.8c1.1 0 1.9.9 1.9 1.9s-.9 1.9-1.9 1.9z"/><path class="st141" d="M240 225h-1.9c0-5.3 4.2-8.8 8.6-12.4 5.6-4.6 11.9-9.8 11.9-19.9 0-12-7.9-20.1-19.5-20.1v-1.9c12.8 0 21.4 8.8 21.4 22 0 11.1-7 16.8-12.6 21.4-4.3 3.4-7.9 6.4-7.9 10.9z"/><path class="st90" d="M239 173.5h-15.8c-1.1 0-1.9-.9-1.9-1.9s.9-1.9 1.9-1.9H239c1.1 0 1.9.9 1.9 1.9s-.8 1.9-1.9 1.9z"/><path class="st366" d="M165.4 176.5h80.7v6.3h-80.7z"/><path class="st365" d="M171.6 149.7l.3 6.8 2.7-1.5z"/><path class="st365" d="M175.5 159.8l-.3-6.8-2.6 1.5zm13.6-8.6l-5.2 4.4 2.8 1.2z"/><path class="st365" d="M183.5 160.4l5.2-4.4-2.8-1.2zm39-10.9l.1 6.8 2.7-1.4z"/><path class="st365" d="M226.1 159.7l-.1-6.8-2.7 1.4zm10.9-9.5l-3.2 6 3 .1z"/><path class="st365" d="M235.1 160.8l3.3-5.9-3-.2z"/><path class="st367" d="M355 186.4h-.4l-60.7-5.5c-2.3-.2-3.9-2.2-3.7-4.5.2-2.3 2.2-3.9 4.5-3.7l60.7 5.5c2.3.2 3.9 2.2 3.7 4.5-.2 2.1-2 3.7-4.1 3.7zm0-11.1h-.4l-60.7-5.5c-2.3-.2-3.9-2.2-3.7-4.5.2-2.3 2.2-3.9 4.5-3.7l60.7 5.5c2.3.2 3.9 2.2 3.7 4.5-.2 2.1-2 3.7-4.1 3.7zm0 22.2h-.4l-60.7-5.5c-2.3-.2-3.9-2.2-3.7-4.5.2-2.3 2.2-3.9 4.5-3.7l60.7 5.5c2.3.2 3.9 2.2 3.7 4.5-.2 2.1-2 3.7-4.1 3.7zm0 11h-.4l-60.7-5.5c-2.3-.2-3.9-2.2-3.7-4.5.2-2.3 2.2-3.9 4.5-3.7l60.7 5.5c2.3.2 3.9 2.2 3.7 4.5-.2 2.1-2 3.7-4.1 3.7zm0 11.1h-.4l-60.7-5.5c-2.3-.2-3.9-2.2-3.7-4.5.2-2.3 2.2-3.9 4.5-3.7l60.7 5.5c2.3.2 3.9 2.2 3.7 4.5-.2 2.1-2 3.7-4.1 3.7zm0 11.1h-.4l-60.7-5.5c-2.3-.2-3.9-2.2-3.7-4.5.2-2.3 2.2-3.9 4.5-3.7l60.7 5.5c2.3.2 3.9 2.2 3.7 4.5-.2 2.1-2 3.7-4.1 3.7z"/><path class="st368" d="M294.3 180.9c-2.1 0-3.9-1.6-4.1-3.7-.2-2.3 1.5-4.3 3.7-4.5l60.7-5.5c2.3-.2 4.3 1.5 4.5 3.7.2 2.3-1.5 4.3-3.7 4.5l-60.7 5.5c-.2-.1-.3 0-.4 0zm0 11c-2.1 0-3.9-1.6-4.1-3.7-.2-2.3 1.5-4.3 3.7-4.5l60.7-5.5c2.3-.2 4.3 1.5 4.5 3.7.2 2.3-1.5 4.3-3.7 4.5l-60.7 5.5h-.4zm0 11.1c-2.1 0-3.9-1.6-4.1-3.7-.2-2.3 1.5-4.3 3.7-4.5l60.7-5.5c2.3-.2 4.3 1.5 4.5 3.7.2 2.3-1.5 4.3-3.7 4.5l-60.7 5.5h-.4zm0 11.1c-2.1 0-3.9-1.6-4.1-3.7-.2-2.3 1.5-4.3 3.7-4.5l60.7-5.5c2.3-.2 4.3 1.5 4.5 3.7.2 2.3-1.5 4.3-3.7 4.5l-60.7 5.5h-.4zm0 11c-2.1 0-3.9-1.6-4.1-3.7-.2-2.3 1.5-4.3 3.7-4.5l60.7-5.5c2.3-.2 4.3 1.5 4.5 3.7.2 2.3-1.5 4.3-3.7 4.5l-60.7 5.5h-.4zm30.3 8.3c-2.1 0-3.9-1.6-4.1-3.7-.2-2.3 1.5-4.3 3.7-4.5l30.4-2.8c2.3-.2 4.3 1.5 4.5 3.7.2 2.3-1.5 4.3-3.7 4.5l-30.4 2.8h-.4z"/><path class="st369" d="M355.6 169.8h-61.9c-7.6 0-13.8-6.2-13.8-13.8h89.6c-.1 7.6-6.3 13.8-13.9 13.8z"/><path class="st298" d="M364.2 232.5h20.4v58.2h-20.4z"/><path class="st179" d="M150.3 232.5h213.9v58.2H150.3z"/><circle class="st362" cx="180" cy="261.6" r="11.8"/><circle class="st362" cx="215.9" cy="261.6" r="11.8"/><circle class="st362" cx="251.7" cy="261.6" r="11.8"/><circle class="st362" cx="287.6" cy="261.6" r="11.8"/><g><path class="st298" d="M306.6 266.5h17v24.1h-17z"/><path class="st169" d="M319.4 276.5h2.5v4.3h-2.5z"/><path class="st298" d="M325.6 266.5h17v24.1h-17z"/><path class="st169" d="M327.3 276.5h2.5v4.3h-2.5z"/></g><path class="st369" d="M371.7 225h21.6v7.5h-21.6z"/><path class="st97" d="M142.8 225h228.9v7.5H142.8z"/></g></svg>