<svg id="slice" xmlns="http://www.w3.org/2000/svg" viewBox="-36 274.6 537.1 244.4"><style>.st0{opacity:.48}.st1{opacity:.5;fill:#75cef4;enable-background:new}.st2{opacity:.5;fill:#00bff0}.st2,.st3{enable-background:new}.st3{opacity:.48;fill:#75cef4}.st4{fill:url(#XMLID_2_)}.st5{fill:gray}.st6{fill:#00b2ee}.st7{fill:#ffdf8a}.st8{fill:#333}.st9{fill:#fff}.st10{fill:#ffd400}.st11{fill:url(#SVGID_1_)}.st12{fill:#e64436}.st13{fill:#f27b20}</style><g id="XMLID_370_"><g id="XMLID_375_" class="st0"><path id="XMLID_377_" class="st1" d="M402.9 470.3l-9.3-68.2-6.7-14.6-36.8-75.8-7.4-26.9-44.4-10.2-38.2 10.1-69.5 44.2L84 295.7l-35.1 22-16.3 82.6-7.7 70.9 378-.9z"/><path id="XMLID_376_" class="st2" d="M387.7 469.8l-28.9-76.6-39.2 12.6-1-85.3-117.1 40.7-78.6-36.3-8.9 47.6-28.6-19.2-54.6 117.9 356.9-1.4z"/></g><path id="XMLID_374_" class="st1" d="M397 470.3l-3.4-68.2-40-108.1-34.3-19.4-128.7 54.3-105.4-19.6-25.7 39.2L30.1 423l-5.2 48.2 372.1-.9z"/><path id="XMLID_371_" class="st3" d="M396.4 470.3l-223.8-98.2 13.2-43.2-97.1-40.5-33.2 5.6-14.6 23.7-16.7 82.6-7.9 70.9 380.1-.9z"/></g><linearGradient id="XMLID_2_" gradientUnits="userSpaceOnUse" x1="307.896" y1="328.564" x2="307.896" y2="308.034" gradientTransform="matrix(1 0 0 -1 0 795.2)"><stop offset=".224" stop-color="#f6f3ec"/><stop offset=".328" stop-color="#f6f3ec" stop-opacity=".672"/><stop offset=".793" stop-color="#f6f3ec" stop-opacity="0"/></linearGradient><path id="XMLID_369_" class="st4" d="M462.2 489.6c-56.4-20.8-78.1-26.8-119.2-34.1-9.6-1.7-18.3-2.4-26.2-2.3-7.9-.1-16.6.6-26.2 2.3-41.1 7.4-40.7 18.2-137.2 26.7-11.7 1 95.4 14.7 137.2 14.7H343c41.7 0 130.9-6.3 119.2-7.3z"/><path class="st5" d="M246.5 464.7s3.2 2.2 5.9 1.2c0 0 .2-2.4-3.1-5.1l-1.2 1.7-16.9-12.2-.3.4 16.9 12.2-1.3 1.8z"/><path class="st6" d="M248 449.7s-1.4-6.4-2.7-8.8c0 0-.4 4.3-2.5 4.8l5.2 4z"/><path class="st7" d="M245.9 452c-1.1 1.5-3.1 1.9-4.6.8-1.5-1.1-1.9-3.1-.8-4.6s3.1-1.9 4.6-.8c1.5 1 1.8 3.1.8 4.6z"/><path class="st8" d="M246.1 448.6c-.2-.5-.6-.9-1-1.2-1.5-1.1-3.6-.7-4.6.8-.5.7-.7 1.4-.6 2.2 3 1.1 5.3-.8 6.2-1.8z"/><path class="st7" d="M243.4 451.3v-3s-2.8 2.8-.7 3.6l.7-.6z"/><path class="st9" d="M247.6 450.4c-.1.2-.4.2-.6.1l-5.4-3.8c-.2-.1-.2-.4-.1-.6l.5-.7c.1-.2.4-.2.6-.1l5.4 3.8c.2.1.2.4.1.6l-.5.7z"/><circle class="st8" cx="245.1" cy="450.9" r=".6"/><path class="st6" d="M239.3 461.1c-1.1 1.5-3.1 1.9-4.6.8-1.5-1.1-1.9-3.1-.8-4.6l2.6-3.7c1.1-1.5 3.1-1.9 4.6-.8 1.5 1.1 1.9 3.1.8 4.6l-2.6 3.7z"/><path class="st9" d="M236.5 463.1v4.1h-1.7v-4.1"/><path class="st6" d="M235.2 460.9c1.2 0 1.3.6 1.3 1.2v2.5h-1.7v-2.8l.4-.9z"/><path class="st8" d="M234.6 466.9h2c.7 1.3 2.4 1.3 2.7.4 0 0 .9 1.8-3.2 1.5-1-.1-1.8-1-1.5-1.9zm.2-11l5.4 3.8-1 1.4-5.4-3.8 1-1.4z"/><path class="st10" d="M240.1 459.4l.4.3-1.1 1.6-.4-.3 1.1-1.6z"/><path class="st7" d="M245.6 451.6l2 2.5c.3.2 0 .6-.4.3l-3-2.2 1.4-.6z"/><path class="st6" d="M244.5 458.9l-3.8-2.9-.9 1.9 3.9 2.8.8-1.8z"/><circle class="st7" cx="244.3" cy="460" r="1.3"/><linearGradient id="SVGID_1_" gradientUnits="userSpaceOnUse" x1="167.373" y1="303.699" x2="167.373" y2="317.802" gradientTransform="matrix(1 0 0 -1 0 795.2)"><stop offset=".044" stop-color="#FFF" stop-opacity="0"/><stop offset=".395" stop-color="#FFF" stop-opacity=".672"/><stop offset=".532" stop-color="#FFF"/></linearGradient><path class="st11" d="M369.4 493c7.7-6-22.7-7.1-24.8-7.4-60.2-6.9-60-15.6-85.6-21.5-6-1.4-11.4-1.9-16.3-1.8-3.8-.1-7.9.3-12.3 1-4.3-8.7-6.6-15.8-6.6-15.8-3.2-11.5-18.6-20.8-34.6-20.8-1.4 0-2.8.1-4.1.2-1.4-.1-2.8-.2-4.3-.2-1.8 0-3.5.1-5.2.4.5-11.4-10.4-19.8-27.7-19.8-1.9 0-3.8.1-5.6.3-1.7-.2-3.5-.3-5.4-.3-20.8 0-42.9 12.2-49.4 27.1 0 0-5.3 10.8-13.8 23.4-2.4-.3-4.8-.3-7.2-.2-6.7.4-13 2.2-19.2 3.9-27.7 7.8-55.5 18.4-83.2 31.5h405.3z"/><circle class="st7" cx="10.8" cy="468.1" r="1.3"/><path class="st6" d="M5.2 456.5s2.7-5.7 5.2-6.9c0 0-1.3 5.3.1 7l-5.3-.1z"/><path class="st7" d="M11.2 459.6c0 1.8-1.5 3.3-3.3 3.3s-3.3-1.5-3.3-3.3 1.5-3.3 3.3-3.3c1.9-.1 3.3 1.4 3.3 3.3z"/><path class="st9" d="M11.7 457.2c0 .2-.2.4-.4.4H4.7c-.2 0-.4-.2-.4-.4v-.8c0-.2.2-.4.4-.4h6.6c.2 0 .4.2.4.4v.8z"/><circle class="st8" cx="6.5" cy="459.1" r=".6"/><circle class="st8" cx="9.2" cy="459.1" r=".6"/><path class="st6" d="M-.8 464.2h6.6v1.9H-.8v-1.9z"/><path class="st6" d="M11.1 470.8c0 1.8-1.5 3.3-3.3 3.3s-3.3-1.5-3.3-3.3v-4.6c0-1.8 1.5-3.3 3.3-3.3s3.3 1.5 3.3 3.3v4.6z"/><path class="st9" d="M5.9 472.9v5.7h1.7v-5.7"/><path class="st6" d="M5.9 472.9v3h1.7v-3"/><path class="st8" d="M7.7 478.2h-2c-.7 1.3-2.4 1.3-2.7.4 0 0-.9 1.8 3.2 1.5 1.1 0 1.9-.9 1.5-1.9z"/><path class="st9" d="M10.1 472.9v5.7H8.3v-5.7"/><path class="st6" d="M10.1 472.9v3H8.3v-3"/><path class="st8" d="M8.2 478.2h2c.7 1.3 2.4 1.3 2.7.4 0 0 .9 1.8-3.2 1.5-1.1 0-1.8-.9-1.5-1.9z"/><path class="st9" d="M7.5 462.9h.6v8.9h-.6v-8.9z"/><path class="st8" d="M4.4 469.1H11v1.7H4.4v-1.7z"/><path class="st10" d="M6.9 469h1.7v1.9H6.9V469z"/><circle class="st9" cx="10.9" cy="449" r=".7"/><path class="st7" d="M4.6 458.9l-1.1-1.5s-.6 3.9 1.5 3.4l-.4-1.9zm6.3 0l1.1-1.5s.6 3.9-1.5 3.4l.4-1.9z"/><circle class="st7" cx="-.7" cy="465.1" r="1.3"/><path class="st5" d="M1.7 462.1s-.1-3.9-2.4-5.5c0 0-2.1 1.2-2.3 5.5h2.1V480h.5v-17.9h2.1z"/><circle class="st7" cx="137.2" cy="409.5" r="1.3"/><path class="st12" d="M142.9 397.9s-2.7-5.7-5.2-6.9c0 0 1.3 5.3-.1 7l5.3-.1z"/><path class="st7" d="M136.8 400.9c0 1.8 1.5 3.3 3.3 3.3s3.3-1.5 3.3-3.3c0-1.8-1.5-3.3-3.3-3.3s-3.3 1.5-3.3 3.3z"/><path class="st9" d="M136.3 398.6c0 .2.2.4.4.4h6.6c.2 0 .4-.2.4-.4v-.8c0-.2-.2-.4-.4-.4h-6.6c-.2 0-.4.2-.4.4v.8z"/><circle class="st8" cx="141.6" cy="400.5" r=".6"/><circle class="st8" cx="138.8" cy="400.5" r=".6"/><path class="st12" d="M142.2 405.5h6.6v1.9h-6.6v-1.9z"/><path class="st12" d="M137 412.2c0 1.8 1.5 3.3 3.3 3.3s3.3-1.5 3.3-3.3v-4.6c0-1.8-1.5-3.3-3.3-3.3s-3.3 1.5-3.3 3.3v4.6z"/><path class="st9" d="M142.2 414.2v5.7h-1.8v-5.7"/><path class="st12" d="M142.2 414.2v3.1h-1.8v-3.1"/><path class="st8" d="M140.3 419.6h2c.7 1.3 2.4 1.3 2.7.4 0 0 .9 1.8-3.2 1.5-1 0-1.8-1-1.5-1.9z"/><path class="st9" d="M138 414.2v5.7h1.7v-5.7"/><path class="st12" d="M138 414.2v3.1h1.7v-3.1"/><path class="st8" d="M139.9 419.6h-2c-.7 1.3-2.4 1.3-2.7.4 0 0-.9 1.8 3.2 1.5 1 0 1.8-1 1.5-1.9z"/><path class="st9" d="M140 404.3h.6v8.9h-.6v-8.9z"/><path class="st8" d="M137 410.5h6.6v1.7H137v-1.7z"/><path class="st10" d="M139.4 410.4h1.7v1.9h-1.7v-1.9z"/><circle class="st9" cx="137.1" cy="390.4" r=".7"/><path class="st7" d="M143.5 400.2l1.1-1.5s.6 3.9-1.5 3.4l.4-1.9zm-6.4 0l-1.1-1.5s-.6 3.9 1.5 3.4l-.4-1.9z"/><circle class="st7" cx="148.8" cy="406.5" r="1.3"/><path class="st5" d="M146.3 403.5s.1-3.9 2.4-5.5c0 0 2.1 1.2 2.3 5.5h-2v17.9h-.5v-17.9h-2.2zm192.4 77.6s-3.2 2.2-5.9 1.2c0 0-.2-2.4 3.1-5.1l1.2 1.7 16.9-12.2.3.4-16.9 12.2 1.3 1.8z"/><path class="st13" d="M337.2 466.1s1.4-6.4 2.7-8.8c0 0 .4 4.3 2.5 4.8l-5.2 4z"/><path class="st7" d="M339.3 468.4c1.1 1.5 3.1 1.9 4.6.8 1.5-1.1 1.9-3.1.8-4.6s-3.1-1.9-4.6-.8c-1.5 1-1.8 3.1-.8 4.6z"/><path class="st8" d="M339.1 465c.2-.5.6-.9 1-1.2 1.5-1.1 3.6-.7 4.6.8.5.7.7 1.4.6 2.2-3 1.1-5.3-.8-6.2-1.8z"/><path class="st7" d="M341.8 467.7v-3s2.8 2.8.7 3.6l-.7-.6z"/><path class="st9" d="M337.6 466.7c.1.2.4.2.6.1l5.4-3.8c.2-.1.2-.4.1-.6l-.5-.7c-.1-.2-.4-.2-.6-.1l-5.4 3.8c-.2.1-.2.4-.1.6l.5.7z"/><circle class="st8" cx="340.1" cy="467.3" r=".6"/><path class="st13" d="M345.9 477.5c1.1 1.5 3.1 1.9 4.6.8 1.5-1.1 1.9-3.1.8-4.6l-2.6-3.7c-1.1-1.5-3.1-1.9-4.6-.8-1.5 1.1-1.9 3.1-.8 4.6l2.6 3.7z"/><path class="st9" d="M348.7 479.5v4.1h1.7v-4.1"/><path class="st13" d="M350 477.3c-1.2 0-1.3.6-1.3 1.2v2.5h1.7v-2.8l-.4-.9z"/><path class="st8" d="M350.5 483.3h-2c-.7 1.3-2.4 1.3-2.7.4 0 0-.9 1.8 3.2 1.5 1.1-.1 1.9-1 1.5-1.9zm.8-9.7l-5.4 3.8-1-1.4 5.4-3.8 1 1.4z"/><path class="st10" d="M346.2 477.4l-.4.3-1.1-1.6.4-.3 1.1 1.6z"/><path class="st7" d="M339.6 468l-2 2.5c-.3.2 0 .6.4.3l3-2.2-1.4-.6z"/><path class="st13" d="M340.7 475.3l3.8-3 .9 2-3.9 2.8-.8-1.8z"/><circle class="st7" cx="340.9" cy="476.4" r="1.3"/><path class="st8" d="M346.8 466.3c.8.1 1.5-.2 2-.7-.3-.6-1-1.1-1.7-1.2-.8-.1-1.5.2-2 .7.3.7.9 1.1 1.7 1.2z"/></svg>