<svg id="slice" xmlns="http://www.w3.org/2000/svg" viewBox="-87 220.3 436.6 353.7"><style>.st0{fill:#75cef4;enable-background:new}.st0,.st1{opacity:.48}.st2{opacity:.5;fill:#75cef4;enable-background:new}.st3{fill:#00bff0}.st3,.st4{opacity:.5;enable-background:new}.st4{fill:#e6f6fd}.st5{fill:url(#SVGID_1_)}.st6{fill:#ffdf8a}.st7{fill:#f27b20}.st8{fill:#FFF}.st9{fill:#333}.st10{fill:gray}.st11{fill:#00b2ee}.st12{fill:#ffd400}.st13{fill:url(#SVGID_2_)}</style><g id="XMLID_294_"><g id="XMLID_300_"><path id="XMLID_307_" class="st0" d="M272.8 555.6l-5.6-263.2-30.9-23.8-41.4-32.6-48.4-15.7-85.4 26.4-23.4 47.2-27.3 23.3L-.7 555.9l273.5-.3z"/><g id="XMLID_303_" class="st1"><path id="XMLID_306_" class="st2" d="M272.7 555.3l-4.3-189.4-9-51.6-57.3-58.7-15.3 27.8-81.9-13.9-27.3 8.3-2.3 108.8 19.2 169.3 178.2-.6z"/><path id="XMLID_304_" class="st3" d="M262.4 554.9l-8.3-190.6-32.9 8.9-.8-60.2-56.4 49.9L98 274l-7.5 96.8-24.1-55.4-14.1 240.5 210.1-1z"/></g><path id="XMLID_302_" class="st4" d="M-2 555.1l.8-235.8 26.3-35.4 32.1-37.4L65 232l66.3-7.3-17.5 100 70.3 19.7 63.7 211.5-249.8-.8z"/><path id="XMLID_301_" class="st2" d="M272.8 555.4L259 410.3l-46-98.6-10.9-56.1-70.6-23.5-56.8 100.4-49.5-21.8L8.8 478l14.1 77.9 249.9-.5z"/></g><linearGradient id="SVGID_1_" gradientUnits="userSpaceOnUse" x1="-6386.38" y1="273.607" x2="-6386.38" y2="222.6" gradientTransform="rotate(180 -3143.09 398.3)"><stop offset=".073" stop-color="#FFF"/><stop offset=".624" stop-color="#FFF"/><stop offset="1" stop-color="#FFF" stop-opacity="0"/></linearGradient><path class="st5" d="M-87 574h374.4c-53.7-20-56.9-29.2-86-35.7-7.7-1.7-14.8-2.4-21.1-2.3-6.3-.1-13.4.6-21.1 2.3-9.8 2.2-16.6 4.7-23.4 7.7-18-9-29-15.1-50.8-19.9-10.4-2.3-19.8-3.2-28.3-3.1-8.5-.1-17.9.8-28.3 3.1C-10.8 534.8-15 547.2-87 574z"/><circle class="st6" cx="83.8" cy="530.9" r="1.3"/><circle class="st6" cx="95.7" cy="531" r="1.3"/><path class="st7" d="M87.3 520.1s2.7-5.7 5.2-6.9c0 0-1.3 5.3.1 7l-5.3-.1z"/><path class="st6" d="M93.3 523.2c0 1.8-1.5 3.3-3.3 3.3s-3.3-1.5-3.3-3.3c0-1.8 1.5-3.3 3.3-3.3 1.9 0 3.3 1.5 3.3 3.3z"/><path class="st8" d="M93.8 520.9c0 .2-.2.4-.4.4h-6.6c-.2 0-.4-.2-.4-.4v-.8c0-.2.2-.4.4-.4h6.6c.2 0 .4.2.4.4v.8z"/><circle class="st9" cx="88.6" cy="522.8" r=".6"/><circle class="st9" cx="91.3" cy="522.8" r=".6"/><path class="st7" d="M86.5 531v-1.1c0-1.8 1.5-3.3 3.3-3.3s3.3 1.5 3.3 3.3v1.1"/><path class="st8" d="M89.6 526.8h.6v5.2h-.6v-5.2z"/><circle class="st8" cx="93" cy="512.7" r=".7"/><path class="st6" d="M86.7 522.5l-1.1-1.5s-.6 3.9 1.5 3.4l-.4-1.9zm6.3 0l1.1-1.5s.6 3.9-1.5 3.4l.4-1.9z"/><path class="st10" d="M61.9 524.8s3.2 2.2 5.9 1.2c0 0 .2-2.4-3.1-5.1l-1.2 1.7-16.9-12.2-.3.4L63.2 523l-1.3 1.8z"/><path class="st11" d="M63.4 509.8s-1.4-6.4-2.7-8.8c0 0-.4 4.3-2.5 4.8l5.2 4z"/><path class="st6" d="M61.3 512.1c-1.1 1.5-3.1 1.9-4.6.8-1.5-1.1-1.9-3.1-.8-4.6 1.1-1.5 3.1-1.9 4.6-.8 1.5 1 1.9 3.1.8 4.6z"/><path class="st9" d="M61.5 508.6c-.2-.5-.6-.9-1-1.2-1.5-1.1-3.6-.7-4.6.8-.5.7-.7 1.4-.6 2.2 3 1.2 5.3-.7 6.2-1.8z"/><path class="st6" d="M58.9 511.4v-3s-2.8 2.8-.7 3.6l.7-.6z"/><path class="st8" d="M63 510.4c-.1.2-.4.2-.6.1l-5.4-3.8c-.2-.1-.2-.4-.1-.6l.5-.7c.1-.2.4-.2.6-.1l5.4 3.8c.2.1.2.4.1.6l-.5.7z"/><circle class="st9" cx="60.5" cy="511" r=".6"/><path class="st11" d="M54.7 521.2c-1.1 1.5-3.1 1.9-4.6.8-1.5-1.1-1.9-3.1-.8-4.6l2.6-3.7c1.1-1.5 3.1-1.9 4.6-.8 1.5 1.1 1.9 3.1.8 4.6l-2.6 3.7z"/><path class="st8" d="M51.9 523.2v4.1h-1.7v-4.1"/><path class="st11" d="M50.6 520.9c1.2 0 1.3.6 1.3 1.2v2.5h-1.7v-2.8l.4-.9z"/><path class="st9" d="M50.1 527h2c.7 1.3 2.4 1.3 2.7.4 0 0 .9 1.8-3.2 1.5-1.1-.1-1.9-1-1.5-1.9zm.1-11.1l5.4 3.8-1 1.4-5.4-3.8 1-1.4z"/><path class="st12" d="M55.5 519.5l.4.3-1.1 1.5-.4-.3 1.1-1.5z"/><path class="st6" d="M61 511.7l2 2.5c.3.2 0 .6-.4.3l-3-2.2 1.4-.6z"/><path class="st11" d="M59.9 519l-3.8-3-.9 2 3.9 2.8.8-1.8z"/><circle class="st6" cx="59.7" cy="520.1" r="1.3"/><linearGradient id="SVGID_2_" gradientUnits="userSpaceOnUse" x1="4302.188" y1="263.969" x2="4302.188" y2="226.222" gradientTransform="matrix(1 0 0 -1 -4094.488 796.6)"><stop offset=".073" stop-color="#f6f3ec"/><stop offset=".624" stop-color="#f6f3ec"/><stop offset="1" stop-color="#f6f3ec" stop-opacity="0"/></linearGradient><path class="st13" d="M306.6 572.2c-49.5-24.9-52.5-36.5-79.4-44.6-7.1-2.2-13.6-3-19.5-2.9-5.8-.1-12.3.7-19.5 2.9-26.9 8.1-29.9 19.7-79.4 44.6h197.8z"/><path class="st10" d="M207.2 538.7s-3.2 2.2-5.9 1.2c0 0-.2-2.4 3.1-5.1l1.2 1.7 16.9-12.2.3.4-16.8 12.2 1.2 1.8z"/><path class="st7" d="M205.8 523.7s1.4-6.4 2.7-8.8c0 0 .4 4.3 2.5 4.8l-5.2 4z"/><path class="st6" d="M207.9 526c1.1 1.5 3.1 1.9 4.6.8s1.9-3.1.8-4.6-3.1-1.9-4.6-.8c-1.5 1-1.9 3.1-.8 4.6z"/><path class="st9" d="M207.6 522.6c.2-.5.6-.9 1-1.2 1.5-1.1 3.6-.7 4.6.8.5.7.7 1.4.6 2.2-3 1.1-5.2-.8-6.2-1.8z"/><path class="st6" d="M210.3 525.3v-3s2.8 2.8.7 3.6l-.7-.6z"/><path class="st8" d="M206.1 524.3c.1.2.4.2.6.1l5.4-3.8c.2-.1.2-.4.1-.6l-.5-.7c-.1-.2-.4-.2-.6-.1l-5.4 3.8c-.2.1-.2.4-.1.6l.5.7z"/><circle class="st9" cx="208.6" cy="524.9" r=".6"/><path class="st7" d="M214.5 535.1c1.1 1.5 3.1 1.9 4.6.8s1.9-3.1.8-4.6l-2.6-3.7c-1.1-1.5-3.1-1.9-4.6-.8-1.5 1.1-1.9 3.1-.8 4.6l2.6 3.7z"/><path class="st8" d="M217.2 537.1v4.1h1.8v-4.1"/><path class="st7" d="M218.6 534.8c-1.2 0-1.3.6-1.3 1.2v2.5h1.7v-2.8l-.4-.9z"/><path class="st9" d="M219.1 540.9h-2c-.7 1.3-2.4 1.3-2.7.4 0 0-.9 1.8 3.2 1.5 1.1-.1 1.8-1 1.5-1.9zm.8-9.6l-5.4 3.8-1-1.4 5.4-3.8 1 1.4z"/><path class="st12" d="M214.7 535l-.4.3-1.1-1.6.4-.3 1.1 1.6z"/><path class="st6" d="M208.2 525.6l-2 2.5c-.3.2 0 .6.4.3l3-2.2-1.4-.6z"/><path class="st7" d="M209.3 532.9l3.8-3 .8 2-3.8 2.8-.8-1.8z"/><circle class="st6" cx="209.4" cy="534" r="1.3"/><path class="st9" d="M215.3 523.9c.8.1 1.5-.2 2-.7-.3-.6-1-1.1-1.7-1.2-.8-.1-1.5.2-2 .7.3.6.9 1.1 1.7 1.2z"/></g></svg>