<svg xmlns="http://www.w3.org/2000/svg" xmlns:xlink="http://www.w3.org/1999/xlink" width="811.59" height="178.66" viewBox="0 0 811.59 178.66"><defs><style>.cls-1{isolation:isolate;}.cls-2{fill:url(#linear-gradient);}.cls-3{fill:#fff;}.cls-4{fill:#9c9c9c;}.cls-5{fill:#e64436;}.cls-6{fill:#808082;}.cls-7{fill:#9ed5ec;}.cls-36,.cls-8{opacity:0.1;}.cls-9{fill:#cacaca;}.cls-10{fill:#e3e3e3;}.cls-11{fill:#ccc;}.cls-12{fill:#4c8bfb;}.cls-13{fill:#979797;}.cls-14{fill:#7c6959;}.cls-15{fill:#9dca3b;}.cls-16{fill:#ee3837;}.cls-17{fill:#231f20;opacity:0.2;}.cls-17,.cls-36{mix-blend-mode:multiply;}.cls-18{fill:#e0e0e0;}.cls-19{fill:#9e9e9e;}.cls-20{fill:#d3ae6e;}.cls-21{fill:#28ae4b;}.cls-22{fill:#c7ffff;opacity:0.58;}.cls-23{opacity:0.25;}.cls-24{fill:#a52e22;}.cls-25{fill:#e63636;}.cls-26{fill:#fd0;}.cls-27{fill:url(#linear-gradient-2);}.cls-28{fill:url(#linear-gradient-3);}.cls-29{fill:#ffdf8a;}.cls-30,.cls-36{fill:#333;}.cls-31{fill:#ffd400;}.cls-32{fill:#f3831f;}.cls-33{fill:#1fa2f3;}.cls-34{fill:#914295;}.cls-35{fill:#faac18;}.cls-37{fill:#836948;}.cls-38{fill:#df543f;}.cls-39{fill:#00813f;}.cls-40{fill:#b9c9d2;}.cls-41{fill:#e53935;}.cls-42{fill:#28b04b;}.cls-43{fill:#fff100;}</style><linearGradient id="linear-gradient" y1="134.98" x2="721.3" y2="134.98" gradientTransform="matrix(-1, 0, 0, 1, 811.59, 0)" gradientUnits="userSpaceOnUse"><stop offset="0" stop-color="#d7d7d7" stop-opacity="0"/><stop offset="0.09" stop-color="#d7d7d7" stop-opacity="0.03"/><stop offset="0.57" stop-color="#d7d7d7"/></linearGradient><linearGradient id="linear-gradient-2" x1="-10201.33" y1="-379.79" x2="-10201.33" y2="-354.8" gradientTransform="matrix(1, -0.08, 0, 1, 10770.46, -247.77)" gradientUnits="userSpaceOnUse"><stop offset="0.22" stop-color="#fff"/><stop offset="0.33" stop-color="#fff" stop-opacity="0.67"/><stop offset="0.79" stop-color="#fff" stop-opacity="0"/></linearGradient><linearGradient id="linear-gradient-3" x1="694.34" y1="146.07" x2="694.34" y2="174.31" gradientTransform="matrix(-1, 0, 0, 1, 811.59, 0)" gradientUnits="userSpaceOnUse"><stop offset="0.22" stop-color="#fff"/><stop offset="0.49" stop-color="#fff" stop-opacity="0.67"/><stop offset="0.96" stop-color="#fff" stop-opacity="0"/></linearGradient></defs><title>st-airport-flip</title><g class="cls-1"><g id="slice"><g id="New_Symbol_91" data-name="New Symbol 91"><polygon id="_Path_" data-name="&lt;Path&gt;" class="cls-2" points="90.29 148.99 811.59 148.99 752.9 120.97 118.95 120.97 90.29 148.99"/><path class="cls-3" d="M117.57,116.21a6.58,6.58,0,0,1,6.58,6.58H111A6.58,6.58,0,0,1,117.57,116.21Z"/><path class="cls-3" d="M126.65,116.21a6.58,6.58,0,0,1,6.58,6.58H120.07A6.58,6.58,0,0,1,126.65,116.21Z"/><path class="cls-3" d="M155.34,112.8a10,10,0,0,1,10,10h-20A10,10,0,0,1,155.34,112.8Z"/><path class="cls-3" d="M129.47,122.79H126a4.26,4.26,0,0,1,5-4.2,6.5,6.5,0,0,1,11.44,4.24h-13Z"/><g id="_Group_" data-name="&lt;Group&gt;"><rect id="_Path_2" data-name="&lt;Path&gt;" class="cls-4" x="264.67" y="112.65" width="21.34" height="21.95"/><rect id="_Path_3" data-name="&lt;Path&gt;" class="cls-4" x="264.67" y="71.52" width="21.34" height="38.92"/><g id="_Group_2" data-name="&lt;Group&gt;"><g id="_Group_3" data-name="&lt;Group&gt;"><rect id="_Path_4" data-name="&lt;Path&gt;" class="cls-5" x="266.69" y="110.43" width="21.81" height="3.79"/><rect id="_Path_5" data-name="&lt;Path&gt;" class="cls-5" x="266.69" y="101.12" width="21.81" height="3.79"/><rect id="_Path_6" data-name="&lt;Path&gt;" class="cls-6" x="266.69" y="68.63" width="21.81" height="3.79"/><polyline id="_Path_7" data-name="&lt;Path&gt;" class="cls-7" points="279.3 91.18 279.3 77.68 283.82 77.68 283.82 91.18"/><rect id="_Path_8" data-name="&lt;Path&gt;" class="cls-8" x="279.04" y="91.18" width="5.03" height="2.48"/><polyline id="_Path_9" data-name="&lt;Path&gt;" class="cls-7" points="272.49 91.18 272.49 77.68 277.01 77.68 277.01 91.18"/><rect id="_Path_10" data-name="&lt;Path&gt;" class="cls-8" x="272.24" y="91.18" width="5.03" height="2.48"/><polyline id="_Path_11" data-name="&lt;Path&gt;" class="cls-7" points="265.69 91.18 265.69 77.68 270.21 77.68 270.21 91.18"/><rect id="_Path_12" data-name="&lt;Path&gt;" class="cls-8" x="265.43" y="91.18" width="5.03" height="2.48"/></g><g id="_Group_4" data-name="&lt;Group&gt;" class="cls-8"><rect id="_Path_13" data-name="&lt;Path&gt;" x="283.08" y="120.81" width="1.24" height="13.6"/><rect id="_Path_14" data-name="&lt;Path&gt;" x="281.77" y="120.81" width="1.24" height="13.6"/></g><g id="_Group_5" data-name="&lt;Group&gt;" class="cls-8"><rect id="_Path_15" data-name="&lt;Path&gt;" x="278.92" y="120.81" width="1.24" height="13.6"/><rect id="_Path_16" data-name="&lt;Path&gt;" x="277.61" y="120.81" width="1.24" height="13.6"/></g><g id="_Group_6" data-name="&lt;Group&gt;" class="cls-8"><rect id="_Path_17" data-name="&lt;Path&gt;" x="274.76" y="120.81" width="1.24" height="13.6"/><rect id="_Path_18" data-name="&lt;Path&gt;" x="273.46" y="120.81" width="1.24" height="13.6"/></g><g id="_Group_7" data-name="&lt;Group&gt;" class="cls-8"><rect id="_Path_19" data-name="&lt;Path&gt;" x="270.61" y="120.81" width="1.24" height="13.6"/><rect id="_Path_20" data-name="&lt;Path&gt;" x="269.3" y="120.81" width="1.24" height="13.6"/></g><g id="_Group_8" data-name="&lt;Group&gt;" class="cls-8"><rect id="_Path_21" data-name="&lt;Path&gt;" x="266.45" y="120.81" width="1.24" height="13.6"/><rect id="_Path_22" data-name="&lt;Path&gt;" x="265.14" y="120.81" width="1.24" height="13.6"/></g></g><polygon id="_Path_23" data-name="&lt;Path&gt;" class="cls-9" points="164.19 14.61 162.02 14.61 161.22 18.8 165.11 18.8 164.19 14.61"/><rect class="cls-6" x="160.45" y="5.82" width="10.98" height="0.5" transform="translate(44.16 118.95) rotate(-44.92)"/><path id="_Path_24" data-name="&lt;Path&gt;" class="cls-10" d="M158.59,0a9,9,0,1,0,12.79,12.7Z"/><path id="_Path_25" data-name="&lt;Path&gt;" class="cls-3" d="M158.59,0c-3.51,3.53-3,8.41.45,12,2.59,2.67,6.78,2.19,10.28-1.34Z"/><circle id="_Path_26" data-name="&lt;Path&gt;" class="cls-6" cx="170.06" cy="1.93" r="1.33" transform="translate(48.46 120.82) rotate(-45)"/><rect id="_Path_27" data-name="&lt;Path&gt;" class="cls-11" x="148.67" y="112.65" width="116.86" height="21.95"/><rect id="_Path_28" data-name="&lt;Path&gt;" class="cls-11" x="148.67" y="112.65" width="116.86" height="21.95"/><rect id="_Path_29" data-name="&lt;Path&gt;" class="cls-11" x="148.67" y="71.52" width="116.86" height="38.92"/><polygon id="_Path_30" data-name="&lt;Path&gt;" class="cls-8" points="265.53 120.97 148.67 116.23 148.67 111.39 265.53 111.39 265.53 120.97"/><polygon id="_Path_31" data-name="&lt;Path&gt;" class="cls-12" points="173.24 19.81 153.08 19.81 148.43 34.31 177.56 34.31 173.24 19.81"/><rect id="_Path_32" data-name="&lt;Path&gt;" class="cls-13" x="155.45" y="19.81" width="0.99" height="15.28"/><rect id="_Path_33" data-name="&lt;Path&gt;" class="cls-13" x="169.98" y="19.81" width="0.99" height="15.28"/><path id="_Path_34" data-name="&lt;Path&gt;" class="cls-8" d="M166,34a2.72,2.72,0,1,0-5.43,0v.36H166Z"/><circle id="_Path_35" data-name="&lt;Path&gt;" class="cls-12" cx="166.5" cy="21.01" r="0.58"/><rect id="_Path_36" data-name="&lt;Path&gt;" class="cls-13" x="152.47" y="18.71" width="21.11" height="1.23"/><rect id="_Path_37" data-name="&lt;Path&gt;" class="cls-13" x="158.35" y="35.42" width="9.12" height="33.26"/><polygon id="_Path_38" data-name="&lt;Path&gt;" class="cls-8" points="167.46 54.64 158.35 50.91 158.35 44.21 167.46 44.21 167.46 54.64"/><polygon id="_Path_39" data-name="&lt;Path&gt;" class="cls-13" points="173.24 44.42 153.08 44.42 148.43 34.29 177.56 34.29 173.24 44.42"/><g id="_Group_9" data-name="&lt;Group&gt;"><g id="_Group_10" data-name="&lt;Group&gt;"><g id="_Group_11" data-name="&lt;Group&gt;"><rect class="cls-14" x="246.97" y="42.49" width="0.63" height="27.69"/><circle id="_Path_40" data-name="&lt;Path&gt;" class="cls-15" cx="247.3" cy="42.2" r="3"/></g><g id="_Group_12" data-name="&lt;Group&gt;"><rect class="cls-14" x="257.35" y="42.49" width="0.63" height="27.69"/><circle id="_Path_41" data-name="&lt;Path&gt;" class="cls-16" cx="257.68" cy="42.2" r="3"/></g><rect id="_Path_42" data-name="&lt;Path&gt;" class="cls-5" x="147.26" y="110.43" width="119.43" height="3.79"/><rect id="_Path_43" data-name="&lt;Path&gt;" class="cls-5" x="147.26" y="101.12" width="119.43" height="3.79"/><rect id="_Path_44" data-name="&lt;Path&gt;" class="cls-6" x="147.26" y="68.63" width="119.43" height="3.79"/><polyline id="_Path_45" data-name="&lt;Path&gt;" class="cls-7" points="181.96 91.18 181.96 77.68 157.19 77.68 157.19 91.18"/><rect id="_Path_46" data-name="&lt;Path&gt;" class="cls-8" x="155.79" y="91.18" width="27.57" height="2.48"/><polyline id="_Path_47" data-name="&lt;Path&gt;" class="cls-7" points="219.22 91.18 219.22 77.68 194.46 77.68 194.46 91.18"/><rect id="_Path_48" data-name="&lt;Path&gt;" class="cls-8" x="193.05" y="91.18" width="27.57" height="2.48"/><polyline id="_Path_49" data-name="&lt;Path&gt;" class="cls-7" points="256.48 91.18 256.48 77.68 231.72 77.68 231.72 91.18"/><rect id="_Path_50" data-name="&lt;Path&gt;" class="cls-8" x="230.31" y="91.18" width="27.57" height="2.48"/></g><g id="_Group_13" data-name="&lt;Group&gt;" class="cls-8"><rect id="_Path_51" data-name="&lt;Path&gt;" x="154.48" y="120.81" width="6.77" height="13.6"/><rect id="_Path_52" data-name="&lt;Path&gt;" x="161.65" y="120.81" width="6.77" height="13.6"/></g><g id="_Group_14" data-name="&lt;Group&gt;" class="cls-8"><rect id="_Path_53" data-name="&lt;Path&gt;" x="177.25" y="120.81" width="6.77" height="13.6"/><rect id="_Path_54" data-name="&lt;Path&gt;" x="184.41" y="120.81" width="6.77" height="13.6"/></g><g id="_Group_15" data-name="&lt;Group&gt;" class="cls-8"><rect id="_Path_55" data-name="&lt;Path&gt;" x="200.01" y="120.81" width="6.77" height="13.6"/><rect id="_Path_56" data-name="&lt;Path&gt;" x="207.18" y="120.81" width="6.77" height="13.6"/></g><g id="_Group_16" data-name="&lt;Group&gt;" class="cls-8"><rect id="_Path_57" data-name="&lt;Path&gt;" x="222.77" y="120.81" width="6.77" height="13.6"/><rect id="_Path_58" data-name="&lt;Path&gt;" x="229.94" y="120.81" width="6.77" height="13.6"/></g><g id="_Group_17" data-name="&lt;Group&gt;" class="cls-8"><rect id="_Path_59" data-name="&lt;Path&gt;" x="245.54" y="120.81" width="6.77" height="13.6"/><rect id="_Path_60" data-name="&lt;Path&gt;" x="252.7" y="120.81" width="6.77" height="13.6"/></g></g><g id="_Group_18" data-name="&lt;Group&gt;"><rect class="cls-14" x="142.08" y="20.66" width="0.61" height="114.47"/><circle id="_Path_61" data-name="&lt;Path&gt;" class="cls-14" cx="142.38" cy="21.05" r="1.52"/></g><polygon class="cls-3" points="136.84 24.32 136.82 24.16 141.62 23.62 143.29 23.62 143.29 23.79 141.63 23.79 136.84 24.32"/><polygon class="cls-3" points="143.16 33.24 141.49 33.24 137.02 32.64 137.04 32.48 141.5 33.08 143.16 33.07 143.16 33.24"/><g id="_Group_19" data-name="&lt;Group&gt;"><polygon id="_Path_62" data-name="&lt;Path&gt;" class="cls-3" points="120.39 24.83 120.39 32.18 123.19 32.33 123.19 24.67 120.39 24.83"/><polygon id="_Path_63" data-name="&lt;Path&gt;" class="cls-3" points="114.8 25.14 114.8 31.89 117.6 32.03 117.6 24.99 114.8 25.14"/><polygon id="_Path_64" data-name="&lt;Path&gt;" class="cls-3" points="125.98 24.51 125.98 32.47 128.78 32.62 128.78 24.35 125.98 24.51"/><polygon id="_Path_65" data-name="&lt;Path&gt;" class="cls-3" points="131.57 24.2 131.57 32.76 134.37 32.91 134.37 24.04 131.57 24.2"/><polygon id="_Path_66" data-name="&lt;Path&gt;" class="cls-16" points="112.01 25.3 112.01 31.75 114.8 31.89 114.8 25.14 112.01 25.3"/><polygon id="_Path_67" data-name="&lt;Path&gt;" class="cls-16" points="117.6 24.99 117.6 32.03 120.39 32.18 120.39 24.83 117.6 24.99"/><polygon id="_Path_68" data-name="&lt;Path&gt;" class="cls-16" points="123.19 24.67 123.19 32.33 125.98 32.47 125.98 24.51 123.19 24.67"/><polygon id="_Path_69" data-name="&lt;Path&gt;" class="cls-16" points="128.78 24.35 128.78 32.62 131.57 32.76 131.57 24.2 128.78 24.35"/><polygon id="_Path_70" data-name="&lt;Path&gt;" class="cls-16" points="134.37 24.04 134.37 32.91 137.17 33.05 137.17 23.88 134.37 24.04"/></g><g id="_Group_20" data-name="&lt;Group&gt;"><path id="_Path_71" data-name="&lt;Path&gt;" class="cls-3" d="M159.25,68.3a3.33,3.33,0,1,1-6.67,0Z"/><path class="cls-3" d="M155.91,71.75a3.46,3.46,0,0,1-3.46-3.46.12.12,0,0,1,.12-.12h6.67a.12.12,0,0,1,.12.12A3.46,3.46,0,0,1,155.91,71.75Zm-3.21-3.33a3.21,3.21,0,0,0,6.41,0Z"/><path id="_Path_72" data-name="&lt;Path&gt;" class="cls-3" d="M168.21,68.3a4.48,4.48,0,0,1-9,0Z"/><path class="cls-3" d="M163.73,72.95a4.66,4.66,0,0,1-4.65-4.65.17.17,0,0,1,.17-.17h9a.17.17,0,0,1,.17.17A4.66,4.66,0,0,1,163.73,72.95Zm-4.32-4.48a4.32,4.32,0,0,0,8.63,0Z"/><path id="_Path_73" data-name="&lt;Path&gt;" class="cls-3" d="M177.18,68.3a4.48,4.48,0,0,1-9,0Z"/><path class="cls-3" d="M172.7,72.95A4.66,4.66,0,0,1,168,68.3a.17.17,0,0,1,.17-.17h9a.17.17,0,0,1,.17.17A4.66,4.66,0,0,1,172.7,72.95Zm-4.32-4.48a4.32,4.32,0,0,0,8.63,0Z"/><path id="_Path_74" data-name="&lt;Path&gt;" class="cls-3" d="M184.9,68.3a4.48,4.48,0,0,1-9,0Z"/><path class="cls-3" d="M180.42,72.95a4.66,4.66,0,0,1-4.65-4.65.17.17,0,0,1,.17-.17h9a.17.17,0,0,1,.17.17A4.66,4.66,0,0,1,180.42,72.95Zm-4.32-4.48a4.32,4.32,0,0,0,8.63,0Z"/><path id="_Path_75" data-name="&lt;Path&gt;" class="cls-3" d="M193.87,68.3a4.48,4.48,0,1,1-9,0Z"/><path class="cls-3" d="M189.39,72.95a4.66,4.66,0,0,1-4.65-4.65.17.17,0,0,1,.17-.17h9a.17.17,0,0,1,.17.17A4.66,4.66,0,0,1,189.39,72.95Zm-4.32-4.48a4.32,4.32,0,0,0,8.63,0Z"/><path id="_Path_76" data-name="&lt;Path&gt;" class="cls-3" d="M199.71,68.3a2.92,2.92,0,0,1-5.84,0Z"/><path class="cls-3" d="M196.79,71.33a3,3,0,0,1-3-3,.11.11,0,0,1,.11-.11h5.84a.11.11,0,0,1,.11.11A3,3,0,0,1,196.79,71.33ZM194,68.41a2.81,2.81,0,0,0,5.62,0Z"/></g><g id="_Group_21" data-name="&lt;Group&gt;" class="cls-8"><path id="_Path_77" data-name="&lt;Path&gt;" d="M158.37,29.61h2.23a2.71,2.71,0,0,0,4.6.74h0a2.71,2.71,0,0,0,.25-.35l0,0a2.7,2.7,0,0,0,.18-.38l0-.06a2.69,2.69,0,0,0,.11-.41V29a2.67,2.67,0,0,0-.46-2h.44a.36.36,0,0,0,.36-.36V26a.36.36,0,0,0-.36-.36h-.41c-.85-1.44.71-4.18.71-4.18a33.33,33.33,0,0,0-5.51,4.18h-.18A.36.36,0,0,0,160,26v.66a.36.36,0,0,0,.36.36h.53a2.7,2.7,0,0,0-.5,1.55l-2.16.63C158,29.2,158,29.61,158.37,29.61Z"/><circle id="_Path_78" data-name="&lt;Path&gt;" cx="166.58" cy="21.13" r="0.6"/></g><circle id="_Path_79" data-name="&lt;Path&gt;" class="cls-6" cx="415.43" cy="132.91" r="2.18"/><circle id="_Path_80" data-name="&lt;Path&gt;" class="cls-6" cx="371.47" cy="132.91" r="2.18"/><ellipse class="cls-17" cx="388.95" cy="134.82" rx="80.19" ry="3.93"/><rect class="cls-18" x="366.41" y="127.66" width="5.43" height="4.56" transform="translate(738.25 259.89) rotate(180)"/><rect class="cls-18" x="415.02" y="127.66" width="5.43" height="4.56" transform="translate(835.47 259.89) rotate(180)"/><circle id="_Path_81" data-name="&lt;Path&gt;" class="cls-6" cx="420.31" cy="132.91" r="2.18"/><circle id="_Path_82" data-name="&lt;Path&gt;" class="cls-6" cx="366.58" cy="132.91" r="2.18"/><path class="cls-18" d="M347.47,113.74a.86.86,0,0,0,.9-.83v-4.76a.47.47,0,0,1,.48-.45h3.31a2.2,2.2,0,0,0,2.28-2.1v-2.8a.47.47,0,0,1,.48-.45h5.52a.83.83,0,1,0,0-1.66h-5.52a2.2,2.2,0,0,0-2.28,2.1v2.8a.47.47,0,0,1-.48.45h-3.31a2.2,2.2,0,0,0-2.28,2.1v4.76A.86.86,0,0,0,347.47,113.74Z"/><path class="cls-18" d="M357.42,102.19a.87.87,0,0,0,.9-.83V98.22a.47.47,0,0,1,.48-.45h4a.83.83,0,1,0,0-1.66h-4a2.2,2.2,0,0,0-2.28,2.1v3.14A.87.87,0,0,0,357.42,102.19Z"/><polyline class="cls-19" points="369.52 119.72 428.05 105.75 435.6 105.75 400.57 119.73"/><polyline class="cls-18" points="369.52 119.72 428.05 105.75 432.16 105.75 393.81 119.73"/><path class="cls-20" d="M474.29,113.6v1.86s-26.83,11.72-51,11.71l-75.1,0c-10.92,0-20.41-3.7-20.41-5.67s4.71-3.69,6.53-4.48,6.23-6.06,22.24-6.05l117.72.05Z"/><polygon class="cls-21" points="479.06 91.94 474.38 91.94 455.41 110.97 462.58 110.98 478.08 95.42 479.06 91.94"/><polygon class="cls-21" points="478.08 95.42 462.58 110.98 468.75 110.98 475.68 104.02 478.08 95.42"/><polygon class="cls-21" points="473.73 110.98 474.9 106.81 475.68 104.02 468.75 110.98 470.75 110.98 473.73 110.98"/><path class="cls-3" d="M351.8,115.91a.29.29,0,0,0,.31.28h.27a.29.29,0,0,0,.3-.28v-.25a.29.29,0,0,0-.31-.29h-.26a.3.3,0,0,0-.31.29Z"/><path class="cls-22" d="M357.93,119.55a.72.72,0,0,0,.75.69h1.62a.73.73,0,0,0,.75-.7v-2.78a.72.72,0,0,0-.75-.69h-1.62a.73.73,0,0,0-.75.7Z"/><path class="cls-22" d="M363.66,119.55a.72.72,0,0,0,.75.69H366a.72.72,0,0,0,.75-.69v-2.78a.72.72,0,0,0-.75-.69h-1.62a.72.72,0,0,0-.75.69Z"/><path class="cls-22" d="M369.39,119.56a.72.72,0,0,0,.75.69h1.62a.72.72,0,0,0,.75-.69v-2.78a.73.73,0,0,0-.75-.69h-1.62a.72.72,0,0,0-.75.69Z"/><path class="cls-22" d="M375.12,119.56a.72.72,0,0,0,.75.69h1.63a.72.72,0,0,0,.75-.69v-2.78a.72.72,0,0,0-.75-.69h-1.63a.72.72,0,0,0-.75.69Z"/><path class="cls-22" d="M380.85,119.56a.72.72,0,0,0,.75.69h1.62a.72.72,0,0,0,.75-.69v-2.78a.73.73,0,0,0-.75-.69H381.6a.72.72,0,0,0-.75.69Z"/><path class="cls-22" d="M386.57,119.56a.73.73,0,0,0,.75.69h1.62a.73.73,0,0,0,.76-.69v-2.78a.72.72,0,0,0-.75-.69h-1.62a.72.72,0,0,0-.75.69Z"/><path class="cls-22" d="M392.3,119.57a.73.73,0,0,0,.75.69h1.62a.72.72,0,0,0,.75-.69v-2.78a.72.72,0,0,0-.75-.69h-1.63a.72.72,0,0,0-.75.69Z"/><path class="cls-22" d="M398,119.57a.72.72,0,0,0,.75.69h1.62a.73.73,0,0,0,.75-.69v-2.78a.72.72,0,0,0-.75-.69h-1.62a.72.72,0,0,0-.75.69Z"/><path class="cls-22" d="M403.76,119.57a.72.72,0,0,0,.75.69h1.62a.72.72,0,0,0,.75-.69V116.8a.72.72,0,0,0-.75-.69h-1.62a.73.73,0,0,0-.75.7Z"/><path class="cls-22" d="M409.5,119.57a.72.72,0,0,0,.75.69h1.62a.72.72,0,0,0,.75-.69V116.8a.73.73,0,0,0-.75-.69h-1.62a.72.72,0,0,0-.75.69Z"/><path class="cls-22" d="M415.22,119.58a.72.72,0,0,0,.75.69h1.62a.72.72,0,0,0,.75-.69V116.8a.72.72,0,0,0-.75-.69H416a.73.73,0,0,0-.76.69Z"/><path class="cls-22" d="M420.95,119.58a.72.72,0,0,0,.75.69h1.62a.72.72,0,0,0,.75-.69V116.8a.73.73,0,0,0-.75-.7H421.7a.73.73,0,0,0-.75.69Z"/><path class="cls-22" d="M426.68,119.58a.72.72,0,0,0,.75.69h1.62a.73.73,0,0,0,.75-.69V116.8a.73.73,0,0,0-.76-.69h-1.62a.72.72,0,0,0-.75.69Z"/><path class="cls-22" d="M432.41,119.58a.72.72,0,0,0,.74.69h1.63a.72.72,0,0,0,.75-.69v-2.78a.73.73,0,0,0-.75-.69h-1.62a.72.72,0,0,0-.75.69Z"/><path class="cls-22" d="M438.14,119.58a.72.72,0,0,0,.75.69h1.62a.71.71,0,0,0,.75-.69v-2.78a.73.73,0,0,0-.75-.69h-1.62a.73.73,0,0,0-.75.69Z"/><path class="cls-3" d="M449.13,121.37h-2.82a.48.48,0,0,1-.33-.14.43.43,0,0,1-.13-.3v-7.14a.46.46,0,0,1,.47-.44h2.82a.45.45,0,0,1,.46.44v7.14a.43.43,0,0,1-.13.31A.48.48,0,0,1,449.13,121.37Zm-2.82-.32h2.81a.12.12,0,0,0,.12,0,.11.11,0,0,0,0-.08v-7.14a.14.14,0,0,0-.15-.13h-2.81a.14.14,0,0,0-.15.13v7.14a.12.12,0,0,0,0,.08.16.16,0,0,0,.11,0Z"/><path class="cls-3" d="M353.82,121.51h-3.16a.46.46,0,0,1-.47-.44v-7.21a.46.46,0,0,1,.47-.44h3.16a.46.46,0,0,1,.47.44v7.21a.42.42,0,0,1-.12.3A.48.48,0,0,1,353.82,121.51Zm-3.31-.45a.14.14,0,0,0,.15.13h3.16a.17.17,0,0,0,.12,0,.11.11,0,0,0,0-.08v-7.21a.14.14,0,0,0-.15-.13h-3.16a.14.14,0,0,0-.15.13Z"/><path class="cls-23" d="M458.31,115.77l9,2.4c5.4-2,7-2.71,7-2.71v-.58Z"/><polygon class="cls-21" points="476.69 117.37 480.88 117.37 481.06 115.38 473.93 113.79 458.38 113.77 458.31 115.77 476.69 117.37"/><path class="cls-18" d="M327.8,122.36c0,2,9.5,5.67,20.41,5.68h75.1c15.53,0,32.16-4.83,42.06-8.29a7.27,7.27,0,0,0,2.32-1.75s-18.57,5.78-26.82,5.78c-9.53,0-29,.56-40.78.55H376.83l-31.88,0a57.66,57.66,0,0,1-17-2.54A1.45,1.45,0,0,0,327.8,122.36Z"/><path class="cls-3" d="M344.94,123.44a57.8,57.8,0,0,1-17-2.54,1.42,1.42,0,0,0-.14.57c0,2,9.49,3.94,20.41,3.94l75.1,0c15.53,0,32.16-3.1,42.05-6.56-9.91,2.53-21.38,4.6-32.37,4.59Z"/><polygon class="cls-19" points="437.04 144.13 404.49 122.1 375.1 122.1 429.49 144.13 437.04 144.13"/><g class="cls-23"><path d="M374.2,122.09l2.63,2.26,4.31,3.7h20.42l-1.48-3.7-.9-2.27Z"/></g><polygon class="cls-18" points="433.27 144.13 399.18 122.1 374.2 122.1 428.59 144.13 433.27 144.13"/><path class="cls-24" d="M327.8,121.47c0,1,2.37,2.4,6.11,3.57v-7.88C331.87,118,327.8,119.63,327.8,121.47Z"/><path class="cls-25" d="M327.8,121.47c0,1,2.37,1.27,6.11,2.44v-6.75C331.87,118,327.8,119.63,327.8,121.47Z"/><path class="cls-24" d="M327.8,122.45c0,1,2.37,2.34,6.11,3.48v-7.68C331.87,119.09,327.8,120.65,327.8,122.45Z"/><path class="cls-25" d="M327.8,122.36c0,1,2.37,1.27,6.11,2.44v-6.75C331.87,118.91,327.8,120.52,327.8,122.36Z"/><ellipse class="cls-3" cx="342.48" cy="117.82" rx="3.51" ry="3.24"/><ellipse class="cls-6" cx="342.48" cy="117.82" rx="1.2" ry="1.11"/><rect class="cls-26" x="465.77" y="102.91" width="2.73" height="2.52"/><rect class="cls-26" x="469.23" y="102.91" width="2.73" height="2.52"/><rect class="cls-26" x="465.77" y="106.28" width="2.73" height="2.52"/><rect class="cls-26" x="469.23" y="106.28" width="2.73" height="2.52"/><path class="cls-26" d="M470.29,102.71c-.92-1.42-3.36-1.74-.25-3.9,2.7-1.86,4.16-2.73,4.53-2.22.59.81-3.59,2.68-3.59,2.68s3.72-1.57,3.92-.51c.17.89-3.78,1.27-3.78,1.27s2.82-.35,2.9.59c.05.63-4.05.3-4.05.3A2.35,2.35,0,0,1,470.29,102.71Z"/></g><path id="_Path_83" data-name="&lt;Path&gt;" class="cls-27" d="M700.54,161.56c-46.81-4.08-76.67-25.21-96.58-30.28a36.68,36.68,0,0,0-12.7-1.09,39.32,39.32,0,0,0-12.7,3c-8.45,3.44-15,9.26-23.53,12.55a61.56,61.56,0,0,1-30.25,3.74c-6.86-.95-13.63-3.13-20.66-2-13.18,2.12-20,12.9-37,13.43-13.63,0-22.57,8.93-27.14,10.48-18.19,6.15,78.61,8.27,99.14,6.82,27.94-2,55.42,1.08,82.87-3.52,11.53-1.93,47.11,5.06,58.27,1.52C682.65,175.48,700.2,161.53,700.54,161.56Z"/><path id="_Path_84" data-name="&lt;Path&gt;" class="cls-28" d="M23.43,147.35c9.31-4.73,19.23-8,29.77-10.73,11.68-3,21.84-9.94,33.59-12.63a36.49,36.49,0,0,1,12.7-.76,40,40,0,0,1,12.7,3.35c8.45,3.66,15,9.65,23.53,13.16A62.19,62.19,0,0,0,166,144.28c6.86-.77,13.63-2.78,20.66-1.46,11,2.06,17.1,10.93,27.2,14.51,4.85,1.72,9.95,3,14.16,6s7.41,8.1,6.27,13.12l-218,.67c-4.23,0-8.62,0-12.31-2.4a8.49,8.49,0,0,1-3.61-4.61c-1.39-4.65,2.12-8.37,5.5-11.18A93.31,93.31,0,0,1,23.43,147.35Z"/><rect id="_Path_85" data-name="&lt;Path&gt;" class="cls-8" x="148.4" y="110.43" width="21.81" height="3.79"/><rect id="_Path_86" data-name="&lt;Path&gt;" class="cls-8" x="148.4" y="101.12" width="21.81" height="3.79"/><polyline class="cls-3" points="241.26 147.4 241.26 150.65 242.25 150.65 242.25 147.4"/><polyline class="cls-3" points="243.65 147.4 243.65 150.65 242.66 150.65 242.66 147.4"/><circle class="cls-29" cx="244.32" cy="144.7" r="0.72"/><circle class="cls-29" cx="240.81" cy="144.7" r="0.72"/><path class="cls-21" d="M244,138.08s-1.55-3.24-3-3.92c0,0,.74,3-.07,4Z"/><path class="cls-29" d="M240.58,139.84a1.89,1.89,0,0,0,1.89,1.89h0a1.89,1.89,0,0,0,1.89-1.89h0a1.89,1.89,0,0,0-1.89-1.89h0a1.89,1.89,0,0,0-1.89,1.89Z"/><rect class="cls-3" x="240.31" y="137.78" width="4.26" height="0.97" rx="0.25" ry="0.25"/><circle class="cls-30" cx="243.29" cy="139.57" r="0.34"/><circle class="cls-30" cx="241.73" cy="139.57" r="0.34"/><path class="cls-21" d="M240.67,146.23a1.89,1.89,0,1,0,3.78,0v-2.61a1.89,1.89,0,1,0-3.78,0Z"/><polyline class="cls-21" points="243.65 147.4 243.65 149.13 242.66 149.13 242.66 147.4"/><path class="cls-30" d="M242.59,150.47h1.15c.38.74,1.37.74,1.51.2,0,0,.53,1-1.85.88A.84.84,0,0,1,242.59,150.47Z"/><polyline class="cls-21" points="241.26 147.4 241.26 149.13 242.25 149.13 242.25 147.4"/><path class="cls-30" d="M242.32,150.47h-1.15c-.38.74-1.37.74-1.51.2,0,0-.53,1,1.85.88A.84.84,0,0,0,242.32,150.47Z"/><rect class="cls-3" x="242.38" y="141.73" width="0.38" height="5.09"/><rect class="cls-30" x="240.67" y="145.29" width="3.78" height="0.95"/><rect class="cls-31" x="242.07" y="145.2" width="0.99" height="1.08"/><circle class="cls-3" cx="240.76" cy="133.85" r="0.41"/><path class="cls-29" d="M244.37,139.43l.63-.86s.36,2.21-.86,1.94Z"/><path class="cls-29" d="M240.76,139.43l-.63-.86s-.36,2.21.86,1.94Z"/><circle class="cls-29" cx="239.05" cy="145.78" r="0.72"/><circle class="cls-29" cx="235.54" cy="145.78" r="0.72"/><path class="cls-32" d="M238.76,139.16s-1.55-3.24-3-3.92c0,0,.74,3-.07,4Z"/><path class="cls-29" d="M235.32,140.92a1.89,1.89,0,0,0,1.89,1.89h0a1.89,1.89,0,0,0,1.89-1.89h0a1.89,1.89,0,0,0-1.89-1.89h0a1.89,1.89,0,0,0-1.89,1.89Z"/><rect class="cls-3" x="235.05" y="138.86" width="4.26" height="0.97" rx="0.25" ry="0.25"/><circle class="cls-30" cx="238.02" cy="140.65" r="0.34"/><circle class="cls-30" cx="236.46" cy="140.65" r="0.34"/><path class="cls-32" d="M235.41,147.31a1.89,1.89,0,1,0,3.78,0V144.7a1.89,1.89,0,1,0-3.78,0Z"/><polyline class="cls-3" points="238.38 148.49 238.38 151.73 237.39 151.73 237.39 148.49"/><polyline class="cls-32" points="238.38 148.49 238.38 150.21 237.39 150.21 237.39 148.49"/><path class="cls-30" d="M237.32,151.55h1.15c.38.74,1.37.74,1.51.2,0,0,.53,1-1.85.88A.84.84,0,0,1,237.32,151.55Z"/><polyline class="cls-3" points="235.99 148.49 235.99 151.73 236.98 151.73 236.98 148.49"/><polyline class="cls-32" points="235.99 148.49 235.99 150.21 236.98 150.21 236.98 148.49"/><path class="cls-30" d="M237,151.55H235.9c-.38.74-1.37.74-1.51.2,0,0-.53,1,1.85.88A.84.84,0,0,0,237,151.55Z"/><rect class="cls-3" x="237.11" y="142.81" width="0.38" height="5.09"/><rect class="cls-30" x="235.41" y="146.37" width="3.78" height="0.95"/><rect class="cls-31" x="236.8" y="146.28" width="0.99" height="1.08"/><circle class="cls-3" cx="235.5" cy="134.93" r="0.41"/><path class="cls-29" d="M239.1,140.51l.63-.86s.36,2.21-.86,1.94Z"/><path class="cls-29" d="M235.5,140.51l-.63-.86s-.36,2.21.86,1.94Z"/><circle class="cls-29" cx="255.19" cy="145.93" r="0.72"/><circle class="cls-29" cx="251.68" cy="145.93" r="0.72"/><path class="cls-33" d="M254.9,139.31s-1.55-3.24-3-3.92c0,0,.74,3-.07,4Z"/><path class="cls-29" d="M251.45,141.07a1.89,1.89,0,0,0,1.89,1.89h0a1.89,1.89,0,0,0,1.89-1.89h0a1.89,1.89,0,0,0-1.89-1.89h0a1.89,1.89,0,0,0-1.89,1.89Z"/><rect class="cls-3" x="251.18" y="139.01" width="4.26" height="0.97" rx="0.25" ry="0.25"/><circle class="cls-30" cx="254.16" cy="140.8" r="0.34"/><circle class="cls-30" cx="252.6" cy="140.8" r="0.34"/><path class="cls-33" d="M251.54,147.46a1.89,1.89,0,1,0,3.78,0v-2.61a1.89,1.89,0,1,0-3.78,0Z"/><polyline class="cls-3" points="254.52 148.63 254.52 151.88 253.53 151.88 253.53 148.63"/><polyline class="cls-33" points="254.52 148.63 254.52 150.36 253.53 150.36 253.53 148.63"/><path class="cls-30" d="M253.46,151.7h1.15c.38.74,1.37.74,1.51.2,0,0,.53,1-1.85.88A.84.84,0,0,1,253.46,151.7Z"/><polyline class="cls-3" points="252.13 148.63 252.13 151.88 253.12 151.88 253.12 148.63"/><polyline class="cls-33" points="252.13 148.63 252.13 150.36 253.12 150.36 253.12 148.63"/><path class="cls-30" d="M253.19,151.7H252c-.38.74-1.37.74-1.51.2,0,0-.53,1,1.85.88A.84.84,0,0,0,253.19,151.7Z"/><rect class="cls-3" x="253.24" y="142.96" width="0.38" height="5.09"/><rect class="cls-30" x="251.54" y="146.52" width="3.78" height="0.95"/><rect class="cls-31" x="252.94" y="146.43" width="0.99" height="1.08"/><circle class="cls-3" cx="251.63" cy="135.08" r="0.41"/><path class="cls-29" d="M255.24,140.66l.63-.86s.36,2.21-.86,1.94Z"/><path class="cls-29" d="M251.63,140.66l-.63-.86s-.36,2.21.86,1.94Z"/><circle class="cls-29" cx="268.39" cy="146.18" r="0.72"/><circle class="cls-29" cx="264.88" cy="146.18" r="0.72"/><path class="cls-34" d="M268.1,139.56s-1.55-3.24-3-3.92c0,0,.74,3-.07,4Z"/><path class="cls-29" d="M264.65,141.32a1.89,1.89,0,0,0,1.89,1.89h0a1.89,1.89,0,0,0,1.89-1.89h0a1.89,1.89,0,0,0-1.89-1.89h0a1.89,1.89,0,0,0-1.89,1.89Z"/><rect class="cls-3" x="264.38" y="139.26" width="4.26" height="0.97" rx="0.25" ry="0.25"/><circle class="cls-30" cx="267.35" cy="141.05" r="0.34"/><circle class="cls-30" cx="265.8" cy="141.05" r="0.34"/><path class="cls-34" d="M264.74,147.71a1.89,1.89,0,1,0,3.78,0V145.1a1.89,1.89,0,1,0-3.78,0Z"/><polyline class="cls-3" points="267.71 148.88 267.71 152.13 266.72 152.13 266.72 148.88"/><polyline class="cls-34" points="267.71 148.88 267.71 150.6 266.72 150.6 266.72 148.88"/><path class="cls-30" d="M266.66,151.95h1.15c.38.74,1.37.74,1.51.2,0,0,.53,1-1.85.88A.84.84,0,0,1,266.66,151.95Z"/><polyline class="cls-3" points="265.33 148.88 265.33 152.13 266.32 152.13 266.32 148.88"/><polyline class="cls-34" points="265.33 148.88 265.33 150.6 266.32 150.6 266.32 148.88"/><path class="cls-30" d="M266.39,151.95h-1.15c-.38.74-1.37.74-1.51.2,0,0-.53,1,1.85.88A.84.84,0,0,0,266.39,151.95Z"/><rect class="cls-3" x="266.44" y="143.21" width="0.38" height="5.09"/><rect class="cls-30" x="264.74" y="146.77" width="3.78" height="0.95"/><rect class="cls-31" x="266.14" y="146.68" width="0.99" height="1.08"/><circle class="cls-3" cx="264.83" cy="135.33" r="0.41"/><path class="cls-29" d="M268.43,140.91l.63-.86s.36,2.21-.86,1.94Z"/><path class="cls-29" d="M264.83,140.91l-.63-.86s-.36,2.21.86,1.94Z"/><rect class="cls-35" x="226.27" y="143.46" width="6.7" height="4.58" rx="0.56" ry="0.56"/><path class="cls-35" d="M230.39,144.32H229a.16.16,0,0,1-.16-.16v-1.43a.16.16,0,0,1,.16-.16h1.43a.16.16,0,0,1,.16.16v1.43A.16.16,0,0,1,230.39,144.32Zm-1.27-.32h1.11v-1.11h-1.11Z"/><path class="cls-35" d="M256.89,146.65h-.6a.1.1,0,0,1-.1-.1v-1.43a.1.1,0,0,1,.1-.1h.6a.1.1,0,0,1,.1.1v1.43A.1.1,0,0,1,256.89,146.65Zm-.49-.21h.39v-1.22h-.39Z"/><path class="cls-34" d="M253.94,147.79a.52.52,0,0,0,.44.56h4.36a.51.51,0,0,0,.44-.56l-.53-.6-.69-.79c0-.3-.1-.56-.24-.56H255.4c-.12,0-.24.26-.24.56l-.69.79Z"/><path class="cls-36" d="M253.94,147.79a.52.52,0,0,0,.44.56h4.36a.51.51,0,0,0,.44-.56l-.53-.6h-4.19Z"/><path class="cls-37" d="M277.17,152.6a1,1,0,0,0,1.06,1h6.13a1,1,0,0,0,1.06-1v-3.18a1,1,0,0,0-1.06-1h-6.13a1,1,0,0,0-1.06,1Z"/><path class="cls-37" d="M282,149.29h-1.43a.16.16,0,0,1-.16-.16V147.7a.16.16,0,0,1,.16-.16H282a.16.16,0,0,1,.16.16v1.43A.16.16,0,0,1,282,149.29Zm-1.27-.32h1.11v-1.11h-1.11Z"/><rect class="cls-36" x="283.61" y="148.43" width="0.51" height="5.17"/><rect class="cls-36" x="278.54" y="148.43" width="0.51" height="5.17"/><path class="cls-37" d="M243.45,149.42c0,.32.48.58,1.06.58h6.13c.59,0,1.06-.26,1.06-.58v-1.81c0-.32-.48-.58-1.06-.58h-6.13c-.59,0-1.06.26-1.06.58Z"/><rect class="cls-36" x="249.89" y="147.04" width="0.51" height="2.95"/><rect class="cls-36" x="244.82" y="147.04" width="0.51" height="2.95"/><path class="cls-38" d="M252.75,152.77c0,.32.48.58,1.06.58h6.13c.59,0,1.06-.26,1.06-.58V151c0-.32-.48-.58-1.06-.58h-6.13c-.59,0-1.06.26-1.06.58Z"/><rect class="cls-36" x="259.19" y="150.39" width="0.51" height="2.95"/><rect class="cls-36" x="254.12" y="150.39" width="0.51" height="2.95"/><path class="cls-35" d="M252.8,149.93c0,.2.36.36.8.36h4.6c.44,0,.8-.16.8-.36v-1.11c0-.2-.36-.36-.8-.36h-4.6c-.44,0-.8.16-.8.36Z"/><rect class="cls-36" x="257.63" y="148.47" width="0.38" height="1.81"/><rect class="cls-36" x="253.82" y="148.47" width="0.38" height="1.81"/><rect class="cls-39" x="261.41" y="147.46" width="8.44" height="5.79"/><path class="cls-39" d="M266.45,148.33H265a.16.16,0,0,1-.16-.16v-1.43a.16.16,0,0,1,.16-.16h1.43a.16.16,0,0,1,.16.16v1.43A.16.16,0,0,1,266.45,148.33Zm-1.27-.32h1.11V146.9h-1.11Z"/><rect class="cls-36" x="263.16" y="147.46" width="4.9" height="5.79"/><rect class="cls-40" x="242.79" y="150.19" width="9.58" height="3.36"/><circle class="cls-41" cx="250.35" cy="151.62" r="0.59"/><polygon class="cls-42" points="245.47 151.94 245.41 152.8 244.61 152.15 245.47 151.94"/><circle class="cls-43" cx="244.4" cy="151.3" r="0.21"/><rect class="cls-34" x="247.52" y="151.6" width="1.14" height="1.14" transform="translate(22.29 335.8) rotate(-70.64)"/><rect class="cls-30" x="233.87" y="147.73" width="8.55" height="5.85" rx="0.72" ry="0.72"/><path class="cls-30" d="M239,148.68h-1.43a.16.16,0,0,1-.16-.16v-1.43a.16.16,0,0,1,.16-.16H239a.16.16,0,0,1,.16.16v1.43A.16.16,0,0,1,239,148.68Zm-1.27-.32h1.11v-1.11h-1.11Z"/><rect class="cls-40" x="240.24" y="147.74" width="0.57" height="0.68"/><rect class="cls-40" x="235.66" y="147.74" width="0.57" height="0.68"/><rect class="cls-37" x="222.9" y="148.08" width="10.51" height="5.47"/><rect class="cls-40" x="227.28" y="148.12" width="1.66" height="1.38"/><polygon class="cls-35" points="233.41 153.55 232.68 153.55 233.41 152.81 233.41 153.55"/><polygon class="cls-35" points="233.41 148.08 233.41 148.85 232.64 148.08 233.41 148.08"/><polygon class="cls-35" points="222.9 153.55 222.9 152.82 223.63 153.55 222.9 153.55"/><polygon class="cls-35" points="222.9 148.08 223.74 148.08 222.9 148.92 222.9 148.08"/></g></g></g></svg>