<?xml version="1.0" encoding="utf-8"?>
<!-- Generator: Adobe Illustrator 19.1.0, SVG Export Plug-In . SVG Version: 6.00 Build 0)  -->
<svg version="1.1" id="slice" xmlns="http://www.w3.org/2000/svg" xmlns:xlink="http://www.w3.org/1999/xlink" x="0px" y="0px"
	 width="197.9px" height="278.4px" viewBox="0 0 197.9 278.4" style="enable-background:new 0 0 197.9 278.4;" xml:space="preserve"
	>
<style type="text/css">
	.st0{opacity:0.11;fill:#231F20;}
	.st1{fill:#94917F;}
	.st2{fill:#BAAFA2;}
	.st3{fill:#785768;}
	.st4{fill:#AAA89A;}
	.st5{opacity:0.1;}
	.st6{fill:#8CE1F9;}
	.st7{fill:#CECCBF;}
	.st8{fill:#8D667A;}
	.st9{fill:#918C84;}
	.st10{fill:#C2BEB6;}
	.st11{fill:#F0E1D1;}
	.st12{fill:#B6B4A8;}
	.st13{fill:#94938A;}
	.st14{fill:#7D7C71;}
	.st15{fill:#633B4F;}
	.st16{fill:#85837D;}
	.st17{fill:#8A7665;}
	.st18{fill:#6A695C;}
	.st19{fill:#B9B7A4;}
	.st20{fill:#2F9F42;}
	.st21{opacity:0.13;}
	.st22{opacity:0.2;fill:#231F20;}
	.st23{fill:#D53E2E;}
	.st24{fill:#003673;}
	.st25{fill:#F09A1A;}
	.st26{fill:#FDBF0F;}
	.st27{fill:#736357;}
	.st28{fill:#D84637;}
	.st29{fill:#00A9E9;}
	.st30{fill:#FFDE00;}
	.st31{fill:#48B780;}
	.st32{fill:#7C6959;}
	.st33{fill:#D3AE6E;}
	.st34{fill:#FFFFFF;}
	.st35{fill:#FFE95A;}
	.st36{fill:#FFC300;}
	.st37{fill:#F27B20;}
	.st38{fill:#EE3837;}
	.st39{fill:#4C8BFB;}
	.st40{fill:#B757C5;}
	.st41{fill:#FFDF8A;}
	.st42{fill:#333333;}
	.st43{fill:#6A57AB;}
	.st44{fill:#5D377A;}
	.st45{fill:#393939;}
	.st46{fill:#FDE08B;}
	.st47{fill:#DC3126;}
	.st48{fill:#FDD500;}
	.st49{fill:#515C5D;}
	.st50{fill:#7D8586;}
	.st51{fill:#AFD136;}
	.st52{fill:url(#SVGID_1_);}
	.st53{fill:url(#SVGID_2_);}
	.st54{fill:#E8D184;}
	.st55{fill:#CA7836;}
	.st56{fill:#54D184;}
	.st57{opacity:0.48;}
	.st58{opacity:0.5;fill:#75CEF4;}
	.st59{opacity:0.5;fill:#00BFF0;}
	.st60{opacity:0.5;fill:#E6F6FD;}
	.st61{opacity:0.48;fill:#75CEF4;}
	.st62{fill:url(#SVGID_3_);}
	.st63{fill:#808080;}
	.st64{fill:#8F4293;}
	.st65{fill:#FFD400;}
	.st66{fill:url(#SVGID_4_);}
	.st67{fill:#28AE4B;}
	.st68{fill:#E64436;}
	.st69{fill:url(#SVGID_5_);}
	.st70{fill:url(#XMLID_158_);}
	.st71{opacity:0.17;fill:#FFFFFF;}
	.st72{fill:url(#SVGID_6_);}
	.st73{fill:url(#SVGID_7_);}
	.st74{fill:#00B2EE;}
	.st75{fill:#B89860;}
	.st76{fill:#B0B0B0;}
	.st77{fill:#864537;}
	.st78{fill:#FBCF99;}
	.st79{fill:#FBCD48;}
	.st80{fill:#FFDD00;}
	.st81{fill:#D2392C;}
	.st82{fill:url(#SVGID_8_);}
	.st83{fill:url(#SVGID_9_);}
	.st84{fill:url(#SVGID_10_);}
	.st85{fill:url(#SVGID_11_);}
	.st86{fill:url(#XMLID_160_);}
	.st87{fill:#AFD77D;}
	.st88{opacity:0.1;fill:#231F20;}
	.st89{fill:#7CB342;}
	.st90{fill:#F9CE1D;}
	.st91{fill:#FFE36C;}
	.st92{fill:#5E35B1;}
	.st93{fill:#9575CD;}
	.st94{fill:#29B6F6;}
	.st95{fill:#4AD0FF;}
	.st96{fill:#9DCE2E;}
	.st97{fill:#E53935;}
	.st98{fill:#F94B4B;}
	.st99{fill:#FB8C00;}
	.st100{fill:#FC9F42;}
	.st101{fill:#9DCA3B;}
	.st102{fill:#66A622;}
	.st103{fill:#FFB300;}
	.st104{fill:#F57C00;}
	.st105{fill:#A1CACF;}
	.st106{fill:#DFF3F5;}
	.st107{fill:#BAD7DB;}
	.st108{fill:#C3DFE3;}
	.st109{fill:#BCDEE3;}
	.st110{opacity:0.5;}
	.st111{opacity:0.8;}
	.st112{fill:url(#XMLID_161_);}
	.st113{fill:url(#SVGID_12_);}
	.st114{fill:#F6F3EC;}
	.st115{fill:#D7D7D7;}
	.st116{fill:#959D9E;}
	.st117{fill:#B3B3B3;}
	.st118{fill:#E0E0E0;}
	.st119{fill:#4D4D4D;}
	.st120{fill:#595959;}
	.st121{fill:#FFEB5E;}
	.st122{fill:#6D7576;}
	.st123{fill:#C9E09D;}
	.st124{fill:#8F8F8F;}
	.st125{fill:#5C6566;}
	.st126{fill:#A19E97;}
	.st127{fill:#61C6EC;}
	.st128{fill:#77BF82;}
	.st129{fill:#F3FF73;}
	.st130{fill:url(#XMLID_163_);}
	.st131{fill:url(#SVGID_13_);}
	.st132{fill:url(#SVGID_14_);}
	.st133{fill:url(#XMLID_165_);}
	.st134{fill:#555047;}
	.st135{fill:#896339;}
	.st136{fill:#736F68;}
	.st137{fill:#949494;}
	.st138{fill:#83DEE8;}
	.st139{fill:#85827D;}
	.st140{opacity:0.2;}
	.st141{fill:#404040;}
	.st142{fill:#C0C0C0;}
	.st143{fill:#EEEEEE;}
	.st144{clip-path:url(#SVGID_16_);fill:#44C2C2;}
	.st145{clip-path:url(#SVGID_16_);fill:#A3D89F;}
	.st146{clip-path:url(#SVGID_16_);fill:#C83A74;}
	.st147{clip-path:url(#SVGID_16_);fill:#FFA376;}
	.st148{opacity:0.24;}
	.st149{fill:none;stroke:#85827D;stroke-width:0.9;stroke-miterlimit:10;}
	.st150{opacity:0.83;}
	.st151{fill:#888480;}
	.st152{fill:#7099BA;}
	.st153{fill:#B0E1E8;}
	.st154{opacity:0.22;fill:#FFFFFF;}
	.st155{fill:url(#XMLID_172_);}
	.st156{fill:url(#SVGID_17_);}
	.st157{fill:url(#SVGID_18_);}
	.st158{fill:url(#XMLID_174_);}
	.st159{fill:#9DB9BD;}
	.st160{fill:#D1E3E6;}
	.st161{fill:#B6D6DB;}
	.st162{fill:#9CCFD9;}
	.st163{fill:#B4D3D9;}
	.st164{fill:#97BABF;}
	.st165{fill:#C1DFF5;}
	.st166{fill:#C5E7EB;}
	.st167{fill:#8AB8D4;}
	.st168{fill:#E6E6E6;}
	.st169{fill:#716E69;}
	.st170{fill:#71BDDE;}
	.st171{fill:#659BC7;}
	.st172{fill:#70AFD4;}
	.st173{fill:none;}
	.st174{fill:#97CEE6;}
	.st175{opacity:8.000000e-02;fill:#0F0F0F;}
	.st176{opacity:0.1;fill:#0F0F0F;}
	.st177{fill:#385FE4;}
	.st178{fill:#CCCCCC;}
	.st179{fill:#2986E4;}
	.st180{opacity:0.21;}
	.st181{clip-path:url(#SVGID_20_);}
	.st182{filter:url(#Adobe_OpacityMaskFilter);}
	.st183{mask:url(#SVGID_21_);fill:#33659A;}
	.st184{filter:url(#Adobe_OpacityMaskFilter_1_);}
	.st185{mask:url(#SVGID_22_);fill:#385FE4;}
	.st186{filter:url(#Adobe_OpacityMaskFilter_2_);}
	.st187{opacity:0.17;mask:url(#SVGID_23_);}
	.st188{clip-path:url(#SVGID_25_);}
	.st189{opacity:0.77;}
	.st190{fill:#E8C97B;}
	.st191{fill:#2D56E2;}
	.st192{opacity:0.11;}
	.st193{fill:#0BBF68;}
	.st194{fill:#98BEE4;}
	.st195{fill:#3F5656;}
	.st196{fill:#D7C17D;}
	.st197{opacity:0.2;fill:#FFFFFF;}
	.st198{fill:url(#SVGID_26_);}
	.st199{fill:url(#XMLID_228_);}
	.st200{fill:url(#SVGID_27_);}
	.st201{fill:url(#XMLID_231_);}
	.st202{fill:#9C9C9C;}
	.st203{fill:#808082;}
	.st204{fill:#9ED5EC;}
	.st205{fill:#CACACA;}
	.st206{fill:#E3E3E3;}
	.st207{fill:#979797;}
	.st208{fill:#9E9E9E;}
	.st209{opacity:0.58;fill:#C7FFFF;}
	.st210{opacity:0.25;}
	.st211{fill:#A52E22;}
	.st212{fill:#E63636;}
	.st213{fill:url(#XMLID_261_);}
	.st214{fill:url(#XMLID_278_);}
	.st215{fill:#F3831F;}
	.st216{fill:#1FA2F3;}
	.st217{fill:#914295;}
	.st218{fill:#FAAC18;}
	.st219{opacity:0.1;fill:#333333;}
	.st220{fill:#836948;}
	.st221{fill:#DF543F;}
	.st222{fill:#00813F;}
	.st223{fill:#B9C9D2;}
	.st224{fill:#28B04B;}
	.st225{fill:#FFF100;}
	.st226{fill:#969696;}
	.st227{fill:#0158BB;}
	.st228{fill:#1565C0;}
	.st229{fill:#3DD1F9;}
	.st230{fill:#F5A816;}
	.st231{fill:#C62828;}
	.st232{fill:#BDBDBD;}
	.st233{fill:#A5A5A5;}
	.st234{fill:#424242;}
	.st235{fill:#E6E7E8;}
	.st236{clip-path:url(#SVGID_31_);fill:#FFFFFF;}
	.st237{clip-path:url(#SVGID_31_);fill:#E91C24;}
	.st238{clip-path:url(#SVGID_31_);fill:#1976D2;}
	.st239{fill:#4D8ACF;}
	.st240{fill:none;stroke:#FFFFFF;stroke-width:0.6591;stroke-miterlimit:10;}
	.st241{fill:#00ADEE;}
	.st242{clip-path:url(#SVGID_33_);fill:#FFFFFF;}
	.st243{fill:#DBDBDB;}
	.st244{fill:#9AD3D3;}
	.st245{fill:url(#SVGID_34_);}
	.st246{fill:url(#SVGID_35_);}
	.st247{fill:url(#SVGID_36_);}
	.st248{fill:url(#SVGID_37_);}
	.st249{fill:url(#SVGID_38_);}
	.st250{fill:url(#SVGID_39_);}
	.st251{fill:url(#SVGID_40_);}
	.st252{fill:url(#SVGID_41_);}
	.st253{fill:#F7CE97;}
	.st254{fill:#4C4C4C;}
	.st255{fill:#E9E9E9;}
	.st256{fill:#EB9B95;}
	.st257{fill:#656565;}
	.st258{fill:#5E5A48;}
	.st259{fill:url(#SVGID_42_);}
	.st260{fill:url(#SVGID_43_);}
	.st261{fill:#999999;}
	.st262{opacity:0.36;}
	.st263{fill:#00A64C;}
	.st264{fill-rule:evenodd;clip-rule:evenodd;fill:#D4D4D4;}
	.st265{fill-rule:evenodd;clip-rule:evenodd;fill:#FFFFFF;}
	.st266{fill-rule:evenodd;clip-rule:evenodd;fill:#008141;}
	.st267{fill-rule:evenodd;clip-rule:evenodd;fill:#00A64C;}
	.st268{fill:#28B265;}
	.st269{opacity:0.4;fill:#FFE000;}
	.st270{fill:#C8CBCC;}
	.st271{fill:#B8B8B8;}
	.st272{fill:#949496;}
	.st273{fill:#C8EAD4;}
	.st274{fill:#7D8485;}
	.st275{fill:#2364D5;}
	.st276{fill:url(#XMLID_279_);}
	.st277{fill:url(#SVGID_44_);}
	.st278{fill:url(#SVGID_45_);}
	.st279{fill:url(#SVGID_46_);}
	.st280{fill:#8700EE;}
	.st281{fill:#00B533;}
	.st282{fill:#EEDA00;}
	.st283{fill:#F2206D;}
	.st284{fill:#6299FB;}
	.st285{opacity:0.7;fill:url(#SVGID_47_);}
	.st286{opacity:0.7;fill:url(#SVGID_48_);}
	.st287{opacity:0.7;fill:url(#SVGID_49_);}
	.st288{fill:#EE5E5D;}
	.st289{fill:#E09D17;}
	.st290{fill:#F0EDE9;}
	.st291{clip-path:url(#SVGID_51_);}
	.st292{fill:#EEC85C;}
	.st293{opacity:0.32;fill:#9A0000;}
	.st294{fill:#F0F0F0;}
	.st295{fill:#81D4FA;}
	.st296{opacity:0.49;fill:#C9EDFC;}
	.st297{fill:#D8746A;}
	.st298{fill:#FCBE8D;}
	.st299{fill:#00A9E7;}
	.st300{fill:#6A7173;}
	.st301{opacity:0.6;}
	.st302{fill:url(#SVGID_52_);}
	.st303{fill:url(#SVGID_53_);}
	.st304{fill:url(#XMLID_280_);}
	.st305{fill:url(#SVGID_54_);}
	.st306{fill:url(#SVGID_55_);}
	.st307{fill:url(#SVGID_56_);}
	.st308{fill:url(#SVGID_57_);}
	.st309{fill:#67635D;}
	.st310{fill:#999690;}
	.st311{fill:#E6DA91;}
	.st312{opacity:0.55;fill:#BBAF3E;}
	.st313{fill:#A8A69B;}
	.st314{clip-path:url(#SVGID_59_);}
	.st315{fill:url(#SVGID_60_);}
	.st316{fill:url(#SVGID_61_);}
	.st317{opacity:0.1;clip-path:url(#SVGID_59_);}
	.st318{clip-path:url(#SVGID_63_);}
	.st319{fill:#E3E3E2;}
	.st320{fill:#CF4140;}
	.st321{fill:url(#SVGID_64_);}
	.st322{fill:url(#SVGID_65_);}
	.st323{fill:url(#SVGID_66_);}
	.st324{fill:url(#SVGID_67_);}
	.st325{fill:#666666;}
	.st326{fill:#C1161C;}
	.st327{fill:#B47945;}
	.st328{fill:#D9DADB;}
	.st329{fill:#36AF49;}
	.st330{fill:#2A943E;}
	.st331{fill:#9EA0A2;}
	.st332{fill:#BEBFC1;}
	.st333{fill:#F5961D;}
	.st334{fill:#FFEF00;}
	.st335{fill:#6D6D6D;}
	.st336{fill:url(#SVGID_68_);}
	.st337{fill:url(#XMLID_281_);}
	.st338{fill:#795D00;}
	.st339{clip-path:url(#SVGID_70_);fill:#BB8024;}
	.st340{opacity:0.1;clip-path:url(#SVGID_70_);}
	.st341{fill:#955D00;}
	.st342{fill:#F38836;}
	.st343{fill:url(#XMLID_295_);}
	.st344{fill:url(#SVGID_71_);}
	.st345{fill:url(#SVGID_72_);}
	.st346{fill:url(#XMLID_296_);}
	.st347{opacity:0.99;}
	.st348{fill:#E8AF38;}
	.st349{fill:#98AB00;}
	.st350{fill:#E75C52;}
	.st351{fill:#A9897D;}
	.st352{fill:#CB9D7B;}
	.st353{fill:#996B63;}
	.st354{fill:#35B8E8;}
	.st355{opacity:0.12;fill:url(#SVGID_73_);}
	.st356{opacity:0.12;fill:url(#SVGID_74_);}
	.st357{opacity:0.28;fill:url(#SVGID_77_);}
	.st358{clip-path:url(#SVGID_81_);}
	.st359{fill:#FFF59C;}
	.st360{fill:#EBDBCE;}
	.st361{fill:#B07A53;}
	.st362{fill:#1185BA;}
	.st363{opacity:0.32;fill:#1F57A1;}
	.st364{opacity:0.32;}
	.st365{fill:#C28D65;}
	.st366{fill:#EB776F;}
	.st367{fill:#AFDB39;}
	.st368{fill:#EBDB57;}
	.st369{opacity:0.16;}
	.st370{fill:#CBA483;}
	.st371{fill:url(#XMLID_297_);}
	.st372{fill:url(#SVGID_82_);}
	.st373{fill:url(#SVGID_83_);}
	.st374{fill:#BEE6EB;}
	.st375{fill:#F9DF00;}
	.st376{fill:#D84733;}
	.st377{fill:#FCE000;}
	.st378{fill:#575757;}
	.st379{fill:#B3B2B3;}
	.st380{fill:#E5E5E4;}
	.st381{fill:#D5302B;}
	.st382{fill:url(#SVGID_84_);}
	.st383{fill:url(#SVGID_85_);}
	.st384{fill:#EC4180;}
	.st385{fill:#FBCB54;}
	.st386{fill:#7296F0;}
	.st387{fill:#FC793D;}
	.st388{opacity:0.14;}
	.st389{fill:#404144;}
	.st390{fill:#606163;}
	.st391{opacity:0.3;}
	.st392{fill:#D7B256;}
	.st393{opacity:0.38;fill:#D7B256;}
	.st394{fill:#3D3D39;}
	.st395{fill:#393B36;}
	.st396{opacity:0.6;fill:#3BFF65;}
	.st397{opacity:0.6;fill:#FC793D;}
	.st398{clip-path:url(#SVGID_87_);}
	.st399{opacity:0.29;}
	.st400{fill:#9A51A8;}
	.st401{fill:#FEF6E0;}
	.st402{fill:#A06EA9;}
	.st403{fill:#353535;}
	.st404{clip-path:url(#SVGID_89_);}
	.st405{opacity:0.23;fill:#FFFFFF;}
	.st406{opacity:0.13;fill:#FFFFFF;}
	.st407{opacity:5.000000e-02;}
	.st408{opacity:0.45;}
	.st409{opacity:0.2;fill:#FFF170;}
	.st410{fill:#FFF170;}
	.st411{opacity:0.21;fill:#FFFFFF;}
	.st412{opacity:0.1;fill:#FFFFFF;}
	.st413{opacity:0.27;fill:url(#SVGID_90_);}
	.st414{opacity:0.27;fill:url(#SVGID_91_);}
	.st415{fill:url(#SVGID_92_);}
	.st416{fill:url(#SVGID_93_);}
	.st417{fill:#2850A8;}
	.st418{fill:#286EE4;}
	.st419{fill:#0053DF;}
	.st420{fill:#007DD0;}
	.st421{fill:#2891E4;}
	.st422{opacity:0.72;}
	.st423{opacity:0.28;fill:url(#SVGID_94_);}
	.st424{opacity:0.28;fill:url(#SVGID_95_);}
	.st425{fill:#2D6B7F;}
	.st426{fill:#FF7C40;}
	.st427{opacity:0.21;fill:#FF7C40;}
	.st428{opacity:0.28;fill:url(#SVGID_96_);}
	.st429{opacity:0.28;fill:url(#SVGID_97_);}
	.st430{opacity:0.28;fill:url(#SVGID_98_);}
	.st431{opacity:0.28;fill:url(#SVGID_99_);}
	.st432{fill:#FFEE0A;}
	.st433{opacity:0.21;fill:#FFEE0A;}
	.st434{opacity:0.28;fill:url(#SVGID_100_);}
	.st435{opacity:0.28;fill:url(#SVGID_101_);}
	.st436{fill:#FD45FF;}
	.st437{opacity:0.21;fill:#FD45FF;}
	.st438{opacity:0.28;fill:url(#SVGID_102_);}
	.st439{opacity:0.28;fill:url(#SVGID_103_);}
	.st440{fill:#52FF52;}
	.st441{opacity:0.21;fill:#52FF52;}
	.st442{opacity:0.28;fill:url(#SVGID_104_);}
	.st443{opacity:0.28;fill:url(#SVGID_105_);}
	.st444{opacity:0.28;fill:url(#SVGID_106_);}
	.st445{opacity:0.28;fill:url(#SVGID_107_);}
	.st446{fill:#59FFF3;}
	.st447{opacity:0.21;fill:#59FFF3;}
	.st448{opacity:0.28;fill:url(#SVGID_108_);}
	.st449{opacity:0.28;fill:url(#SVGID_109_);}
	.st450{opacity:0.28;fill:url(#SVGID_110_);}
	.st451{opacity:0.28;fill:url(#SVGID_111_);}
	.st452{opacity:0.28;fill:url(#SVGID_112_);}
	.st453{opacity:0.28;fill:url(#SVGID_113_);}
	.st454{opacity:0.28;fill:url(#SVGID_114_);}
	.st455{opacity:0.28;fill:url(#SVGID_115_);}
	.st456{opacity:0.28;fill:url(#SVGID_116_);}
	.st457{opacity:0.28;fill:url(#SVGID_117_);}
	.st458{opacity:0.28;fill:url(#SVGID_118_);}
	.st459{opacity:0.28;fill:url(#SVGID_119_);}
	.st460{opacity:0.28;fill:url(#SVGID_120_);}
	.st461{opacity:0.28;fill:url(#SVGID_121_);}
	.st462{opacity:0.28;fill:url(#SVGID_122_);}
	.st463{opacity:0.28;fill:url(#SVGID_123_);}
	.st464{opacity:0.28;fill:url(#SVGID_124_);}
	.st465{opacity:0.28;fill:url(#SVGID_125_);}
	.st466{opacity:0.28;fill:url(#SVGID_126_);}
	.st467{opacity:0.28;fill:url(#SVGID_127_);}
	.st468{opacity:0.28;fill:url(#SVGID_128_);}
	.st469{opacity:0.28;fill:url(#SVGID_129_);}
	.st470{opacity:0.28;fill:url(#SVGID_130_);}
	.st471{opacity:0.28;fill:url(#SVGID_131_);}
	.st472{opacity:0.28;fill:url(#SVGID_132_);}
	.st473{opacity:0.28;fill:url(#SVGID_133_);}
	.st474{opacity:0.28;fill:url(#SVGID_134_);}
	.st475{opacity:0.28;fill:url(#SVGID_135_);}
	.st476{opacity:0.28;fill:url(#SVGID_136_);}
	.st477{opacity:0.28;fill:url(#SVGID_137_);}
	.st478{opacity:0.28;fill:url(#SVGID_138_);}
	.st479{opacity:0.28;fill:url(#SVGID_139_);}
	.st480{opacity:0.28;fill:url(#SVGID_140_);}
	.st481{opacity:0.28;fill:url(#SVGID_141_);}
	.st482{opacity:0.28;fill:url(#SVGID_142_);}
	.st483{opacity:0.28;fill:url(#SVGID_143_);}
	.st484{opacity:0.28;fill:url(#SVGID_144_);}
	.st485{opacity:0.28;fill:url(#SVGID_145_);}
	.st486{opacity:0.28;fill:url(#SVGID_146_);}
	.st487{opacity:0.28;fill:url(#SVGID_147_);}
	.st488{opacity:0.28;fill:url(#SVGID_148_);}
	.st489{opacity:0.28;fill:url(#SVGID_149_);}
	.st490{opacity:0.28;fill:url(#SVGID_150_);}
	.st491{opacity:0.28;fill:url(#SVGID_151_);}
	.st492{opacity:0.28;fill:url(#SVGID_152_);}
	.st493{opacity:0.28;fill:url(#SVGID_153_);}
	.st494{opacity:0.28;fill:url(#SVGID_154_);}
	.st495{opacity:0.28;fill:url(#SVGID_155_);}
	.st496{opacity:0.28;fill:url(#SVGID_156_);}
	.st497{opacity:0.28;fill:url(#SVGID_157_);}
	.st498{opacity:0.28;fill:url(#SVGID_158_);}
	.st499{opacity:0.28;fill:url(#SVGID_159_);}
	.st500{opacity:0.28;fill:url(#SVGID_160_);}
	.st501{opacity:0.28;fill:url(#SVGID_161_);}
	.st502{opacity:0.28;fill:url(#SVGID_162_);}
	.st503{opacity:0.28;fill:url(#SVGID_163_);}
	.st504{opacity:0.28;fill:url(#SVGID_164_);}
	.st505{opacity:0.28;fill:url(#SVGID_165_);}
	.st506{opacity:0.28;fill:url(#SVGID_166_);}
	.st507{opacity:0.28;fill:url(#SVGID_167_);}
	.st508{opacity:0.28;fill:url(#SVGID_168_);}
	.st509{opacity:0.28;fill:url(#SVGID_169_);}
	.st510{opacity:0.28;fill:url(#SVGID_170_);}
	.st511{opacity:0.28;fill:url(#SVGID_171_);}
	.st512{opacity:0.28;fill:url(#SVGID_172_);}
	.st513{opacity:0.28;fill:url(#SVGID_173_);}
	.st514{fill:#898F90;}
	.st515{opacity:0.25;fill:#FFFFFF;}
	.st516{fill:#00B8F0;}
	.st517{fill:#00A7F0;}
	.st518{opacity:0.91;fill:url(#SVGID_174_);}
	.st519{opacity:0.12;fill:#FFEE0A;}
	.st520{opacity:0.62;}
	.st521{fill:url(#SVGID_175_);}
	.st522{fill:url(#SVGID_176_);}
	.st523{fill:url(#SVGID_177_);}
	.st524{fill:url(#SVGID_178_);}
	.st525{fill:#7D857E;}
	.st526{fill:#89908A;}
	.st527{opacity:0.91;fill:url(#SVGID_179_);}
	.st528{opacity:0.12;fill:#78FF5E;}
	.st529{fill:#78FF5E;}
	.st530{fill:url(#SVGID_180_);}
	.st531{fill:url(#SVGID_181_);}
	.st532{fill:url(#SVGID_182_);}
	.st533{fill:url(#SVGID_183_);}
	.st534{fill:#85847D;}
	.st535{fill:#908F89;}
	.st536{opacity:0.91;fill:url(#SVGID_184_);}
	.st537{opacity:0.12;fill:#FF5E91;}
	.st538{fill:#FF8373;}
	.st539{fill:url(#SVGID_185_);}
	.st540{fill:url(#SVGID_186_);}
	.st541{fill:url(#SVGID_187_);}
	.st542{fill:url(#SVGID_188_);}
	.st543{fill:#5D6667;}
	.st544{fill:url(#XMLID_298_);}
	.st545{fill:url(#XMLID_299_);}
	.st546{fill:url(#SVGID_189_);}
	.st547{fill:#B13837;}
	.st548{fill:#3B627A;}
	.st549{fill:url(#SVGID_190_);}
	.st550{fill:url(#XMLID_312_);}
	.st551{fill:url(#SVGID_191_);}
	.st552{fill:#754517;}
	.st553{fill:#845930;}
	.st554{fill:#A35F25;}
	.st555{fill:#AA6C37;}
	.st556{fill:#B07644;}
	.st557{fill:#EFDBC1;}
	.st558{fill:#FFC805;}
	.st559{fill:#231F20;}
	.st560{fill:#00A351;}
	.st561{fill:#008844;}
	.st562{fill:#EF6522;}
	.st563{fill:#7A4B1F;}
	.st564{fill:#32CBE6;}
	.st565{fill:url(#SVGID_192_);}
	.st566{opacity:0.1;fill:#005FD0;}
	.st567{fill:#C48E4F;}
	.st568{fill:#F8AEAE;}
	.st569{fill:#E6E5E1;}
	.st570{fill:#7B9EB8;}
	.st571{fill:#A5B3AD;}
	.st572{fill:#C7C7C7;}
	.st573{fill:url(#XMLID_315_);}
	.st574{fill:url(#SVGID_193_);}
	.st575{fill:url(#SVGID_194_);}
	.st576{fill:#388E3C;}
	.st577{fill:#2E7D32;}
	.st578{fill:#FFE18C;}
	.st579{opacity:0.25;fill:#29B6F6;}
	.st580{fill:#414042;}
	.st581{fill:#2F4C52;}
	.st582{fill:#455D82;}
	.st583{fill:#795548;}
	.st584{fill:#D3D4D6;}
	.st585{fill:#BCBEC0;}
	.st586{clip-path:url(#SVGID_196_);}
	.st587{fill:url(#SVGID_197_);}
	.st588{fill:url(#SVGID_198_);}
	.st589{clip-path:url(#SVGID_200_);}
	.st590{opacity:0.5;fill:#F9CE1D;}
	.st591{opacity:0.28;}
	.st592{fill:#D7D8D9;}
	.st593{fill:#EBECED;}
	.st594{fill:#FFD600;}
	.st595{fill:#039BE5;}
	.st596{fill:url(#XMLID_316_);}
	.st597{fill:url(#SVGID_201_);}
	.st598{fill:#34D4F0;}
	.st599{opacity:0.51;fill:#74E4F6;}
	.st600{opacity:0.51;}
	.st601{fill:#74E4F6;}
	.st602{fill:url(#XMLID_329_);}
	.st603{fill:#434FBF;}
	.st604{opacity:0.51;fill:#7182F0;}
	.st605{fill:#7182F0;}
	.st606{opacity:0.38;}
	.st607{opacity:0.39;fill:#FFFF5C;}
	.st608{opacity:0.58;fill:#FFFFFF;}
	.st609{opacity:0.19;fill:#73C1DE;}
	.st610{opacity:0.19;fill:#7335DE;}
	.st611{fill:#F5F2E2;}
	.st612{fill:#A3A2A1;}
	.st613{fill:#5A99D1;}
	.st614{fill:#B8A485;}
	.st615{fill:#EEE5D5;}
	.st616{fill:#FFFFCC;}
	.st617{fill:#FFD200;}
	.st618{fill:#F26E21;}
	.st619{fill:#F5871F;}
	.st620{fill:#CFCFCF;}
	.st621{fill:#019049;}
	.st622{fill:#07A860;}
	.st623{fill:#AB00EE;}
	.st624{fill:#93D8F7;}
	.st625{fill:#725D4C;}
	.st626{fill:#028F1F;}
	.st627{fill:#0DA760;}
	.st628{fill:#F4C138;}
	.st629{fill:#F9646D;}
	.st630{fill:url(#SVGID_202_);}
	.st631{clip-path:url(#SVGID_204_);}
	.st632{fill:#8DE0F2;}
	.st633{fill:url(#SVGID_205_);}
	.st634{fill:url(#XMLID_330_);}
	.st635{fill:none;stroke:#D7D7D7;stroke-width:5.6;stroke-miterlimit:10;}
	.st636{fill:none;stroke:#FFFFCC;stroke-width:0.7;stroke-miterlimit:10;stroke-dasharray:2.1,4.2;}
	.st637{fill:#4CB5CF;}
	.st638{fill:#638AAA;}
	.st639{fill:url(#XMLID_331_);}
	.st640{fill:url(#XMLID_332_);}
	.st641{fill:url(#SVGID_206_);}
	.st642{fill:url(#XMLID_337_);}
	.st643{clip-path:url(#SVGID_208_);}
	.st644{fill:url(#SVGID_209_);}
	.st645{opacity:0.51;clip-path:url(#SVGID_208_);}
	.st646{fill:url(#SVGID_210_);}
	.st647{fill:url(#SVGID_211_);}
	.st648{fill:url(#SVGID_212_);}
	.st649{fill:url(#XMLID_363_);}
	.st650{fill:url(#SVGID_213_);}
	.st651{fill:url(#XMLID_364_);}
	.st652{fill:#E0F3F5;}
	.st653{opacity:0.64;fill:#7EC1C4;}
	.st654{fill:#C4DFE3;}
	.st655{fill:#7EC1C4;}
	.st656{opacity:0.53;fill:#7EC1C4;}
	.st657{opacity:0.82;fill:#7EC1C4;}
	.st658{opacity:0.3;fill:#7EC1C4;}
	.st659{fill:#79A6AD;}
	.st660{fill:#C5161D;}
	.st661{fill:#E91C24;}
	.st662{fill:#00A551;}
	.st663{fill:#2C7C2F;}
	.st664{fill:#AEC7DC;}
	.st665{fill:none;stroke:#97BABF;stroke-width:1.9787;stroke-miterlimit:10;}
	.st666{fill:#9DCB3B;}
	.st667{fill:#D9EBED;}
	.st668{fill:#008C45;}
	.st669{fill:#AE5F2D;}
	.st670{fill:#7A347E;}
	.st671{fill:#754C28;}
	.st672{fill:#0085B7;}
	.st673{fill:#D89614;}
	.st674{fill:#ECDEC9;}
	.st675{fill:#9C8954;}
	.st676{opacity:8.000000e-02;}
	.st677{fill:#4E4E6B;}
	.st678{fill:#859537;}
	.st679{fill:#8A773F;}
	.st680{fill:#CC29B9;}
	.st681{fill:#6D42E3;}
	.st682{fill:#16C447;}
	.st683{fill:#C26D11;}
	.st684{fill:url(#XMLID_404_);}
	.st685{clip-path:url(#SVGID_215_);}
	.st686{fill:#0081A8;}
	.st687{clip-path:url(#SVGID_215_);fill:#C7B31E;}
	.st688{fill:#B5B5B5;}
	.st689{fill:#E8E8E8;}
	.st690{fill:#0791AA;}
	.st691{fill:#C7B31E;}
	.st692{fill:#9D9D9D;}
	.st693{fill:#F7F01F;}
	.st694{fill:#7DC6D3;}
	.st695{fill:#4DB0C2;}
	.st696{fill:#00BE69;}
	.st697{fill:#F57F17;}
	.st698{fill:#E77969;}
	.st699{fill:#F7E2A5;}
	.st700{fill:#F4D784;}
	.st701{fill:#54C391;}
	.st702{fill:#008E5C;}
	.st703{fill:#076E2F;}
	.st704{clip-path:url(#SVGID_215_);fill:#FFFFFF;}
	.st705{clip-path:url(#SVGID_215_);fill:#F5F129;}
	.st706{opacity:0.1;clip-path:url(#SVGID_215_);}
	.st707{fill:url(#SVGID_216_);}
	.st708{fill:#9DCFD8;}
	.st709{fill:#B1E1E7;}
	.st710{fill:#73BCDD;}
	.st711{fill:#7BA8CD;}
	.st712{fill:#7299BA;}
	.st713{fill:#5B93C1;}
	.st714{fill:#D2E3E6;}
	.st715{fill:#48494D;}
	.st716{fill:#16BDCC;}
	.st717{fill:#D63E3E;}
	.st718{fill:url(#SVGID_217_);}
	.st719{fill:url(#SVGID_218_);}
	.st720{fill:url(#SVGID_219_);}
	.st721{fill:#DCDFD8;}
	.st722{opacity:0.7;}
	.st723{fill:#EF5350;}
	.st724{fill:#70CC47;}
	.st725{fill:#8BD463;}
	.st726{fill:url(#SVGID_220_);}
	.st727{fill:#E24C41;}
	.st728{fill:#EB6760;}
	.st729{fill:#2DB9EB;}
	.st730{fill:#FFDF00;}
	.st731{fill:#373B40;}
	.st732{fill:#FFFBDB;}
	.st733{fill:#D7E1E3;}
	.st734{opacity:0.2;fill:#373B40;}
	.st735{fill:#C6E9FA;}
	.st736{fill:#20242A;}
	.st737{fill:#332E2E;}
	.st738{fill:#FDBE0C;}
	.st739{fill:#F7FFFA;}
	.st740{fill:#9E978A;}
	.st741{fill:#B4AFA5;}
	.st742{fill:#E68ECD;}
	.st743{fill:#98D4BC;}
	.st744{fill:#88A2D6;}
	.st745{fill:#E36868;}
	.st746{fill:#F8AE37;}
	.st747{fill:#B99960;}
	.st748{fill:#D4AF6E;}
	.st749{opacity:0.12;}
	.st750{fill:#F0B21C;}
	.st751{fill:#B46D3D;}
	.st752{fill:#CAA56E;}
	.st753{fill:#A8844F;}
	.st754{fill:#59595C;}
	.st755{fill:#B56D3D;}
	.st756{opacity:0.19;fill:#FCD09A;}
	.st757{fill:#85E1E7;}
	.st758{fill:#E7F3F2;}
	.st759{opacity:0.19;}
	.st760{opacity:0.6;fill:url(#SVGID_221_);}
	.st761{fill:#48AACF;}
	.st762{opacity:0.6;fill:#3E31FF;}
	.st763{opacity:0.6;fill:#1B4DF9;}
	.st764{opacity:0.6;fill:#85E1E7;}
	.st765{fill:#62ACCD;}
	.st766{fill:#81FFFF;}
	.st767{opacity:0.6;fill:#FFFFFF;}
	.st768{opacity:0.6;fill:#73BCDD;}
	.st769{fill:#2E93C1;}
	.st770{opacity:0.6;fill:#1E9AE3;}
	.st771{opacity:0.6;fill:#48AACF;}
	.st772{opacity:0.15;fill:#81FFFF;}
	.st773{opacity:0.6;fill:#2E93C1;}
	.st774{opacity:0.67;fill:#62ACCD;}
	.st775{opacity:0.67;fill:#9DCFD8;}
	.st776{opacity:0.28;fill:#81FFFF;}
	.st777{fill:#8AAFB5;}
	.st778{opacity:0.99;fill:#91F3FA;}
	.st779{fill:#1FC2F5;}
	.st780{opacity:0.99;fill:#62ACCD;}
	.st781{opacity:0.99;fill:#A9DEE8;}
	.st782{opacity:0.36;fill:url(#SVGID_222_);}
	.st783{fill:url(#SVGID_223_);}
	.st784{opacity:0.6;fill:#62ACCD;}
	.st785{fill:url(#SVGID_224_);}
	.st786{fill:url(#SVGID_225_);}
	.st787{fill:url(#SVGID_226_);}
	.st788{fill:#CAF5F6;}
	.st789{fill:#00C1F2;}
	.st790{fill:#FF931E;}
	.st791{fill:#D94636;}
	.st792{fill:#D43E2E;}
	.st793{fill:#FDCE48;}
	.st794{fill:#464647;}
	.st795{fill:#D33E2F;}
	.st796{fill:#FF8A33;}
	.st797{fill:#746458;}
	.st798{fill:#57ABA9;}
	.st799{fill:#6CCCC9;}
	.st800{fill:#A7C1C5;}
	.st801{fill:#B6E2F8;}
	.st802{fill:#61AAC9;}
	.st803{fill:#E1F3FC;}
	.st804{fill:#FFF58B;}
	.st805{fill:#B59A48;}
	.st806{fill:#EED257;}
	.st807{fill:#D9D286;}
	.st808{fill:#FF916D;}
	.st809{fill:#FFE327;}
	.st810{fill:#64E8BE;}
	.st811{opacity:0.2;fill:#333333;}
	.st812{opacity:0.22;fill:#333333;}
	.st813{fill:url(#XMLID_406_);}
	.st814{fill:url(#XMLID_407_);}
	.st815{fill:url(#XMLID_408_);}
	.st816{fill:url(#SVGID_227_);}
	.st817{fill:url(#XMLID_422_);}
	.st818{fill:url(#XMLID_423_);}
	.st819{fill:url(#SVGID_228_);}
	.st820{fill:url(#SVGID_229_);}
	.st821{opacity:0.55;fill:#D8FBFF;}
	.st822{opacity:0.5;fill:url(#SVGID_230_);}
	.st823{fill:#29B65E;}
	.st824{fill:#009047;}
	.st825{fill:#91651C;}
	.st826{fill:#BD822B;}
	.st827{fill:#D5B06E;}
	.st828{fill:#007DC5;}
	.st829{fill:#A66D40;}
	.st830{fill:#FF8C33;}
	.st831{fill:#A67108;}
	.st832{fill:#F1B31C;}
	.st833{fill:#B88A13;}
	.st834{fill:#B93A2C;}
	.st835{fill:#C36E2C;}
	.st836{fill:#A8362A;}
	.st837{fill:#34875D;}
	.st838{fill:#602C63;}
	.st839{fill:#0086B7;}
	.st840{fill:#CDB300;}
	.st841{fill:#26A89B;}
	.st842{fill:#DA4637;}
	.st843{fill:#48B980;}
	.st844{fill:#F58B37;}
	.st845{fill:#00ABE9;}
	.st846{fill:#4859B9;}
	.st847{fill:#E86E1C;}
	.st848{fill:#C8541F;}
	.st849{fill:#B9191E;}
	.st850{opacity:0.19;fill:#212121;}
	.st851{opacity:0.3;fill:#28B04B;}
	.st852{fill:#F9858E;}
	.st853{fill:#5F14A6;}
	.st854{fill:#8C28DE;}
	.st855{fill:#A2A5A3;}
	.st856{fill:#AB3125;}
	.st857{clip-path:url(#SVGID_232_);}
	.st858{fill:#00914A;}
	.st859{opacity:0.39;fill:#791F11;}
	.st860{fill:#B6E5CD;}
	.st861{fill:#E9D386;}
	.st862{fill:#413D3D;}
	.st863{fill:#666262;}
	.st864{fill:#85D4AC;}
	.st865{opacity:0.1;fill:#B6E5CD;}
	.st866{fill:#F5951F;}
	.st867{fill:#00369C;}
	.st868{fill:#2759D9;}
	.st869{fill:#2297CC;}
	.st870{fill:#764C2E;}
	.st871{fill:#D4AF19;}
	.st872{fill:#62A807;}
	.st873{fill:#008E1F;}
	.st874{opacity:0.37;fill:#FFFFFF;}
	.st875{fill:#BBE5FA;}
	.st876{fill:#7A5951;}
	.st877{fill:#212121;}
	.st878{clip-path:url(#XMLID_424_);fill:#212121;}
	.st879{fill:#CC372C;}
	.st880{fill:#EBAD11;}
	.st881{fill:#E33483;}
	.st882{fill:#3788DE;}
</style>
<g id="New_Symbol_88">
</g>
<g id="New_Symbol_85">
</g>
<g id="New_Symbol_83">
</g>
<g id="New_Symbol_70">
</g>
<g id="New_Symbol_79">
</g>
<g id="New_Symbol_8">
</g>
<g id="New_Symbol_15" class="st110">
</g>
<g id="New_Symbol_16" class="st111">
</g>
<g id="New_Symbol_14" class="st110">
</g>
<g id="New_Symbol_67">
	<g id="New_Symbol_65_11_">
	</g>
</g>
<g id="New_Symbol_86">
	<g id="New_Symbol_82_2_">
	</g>
	<g id="New_Symbol_82_1_">
	</g>
</g>
<g id="New_Symbol_9">
</g>
<g id="New_Symbol_10">
</g>
<g id="New_Symbol_12">
</g>
<g id="New_Symbol_13">
</g>
<g id="New_Symbol_84">
	<g id="New_Symbol_65_10_">
	</g>
</g>
<g id="New_Symbol_87">
</g>
<g id="New_Symbol_91">
</g>
<g id="New_Symbol_89">
</g>
<g id="New_Symbol_94">
</g>
<g id="New_Symbol_68">
</g>
<g id="New_Symbol_66">
</g>
<g id="New_Symbol_90">
	<ellipse id="XMLID_1996_" class="st5" cx="98.9" cy="267" rx="98.9" ry="11.4"/>
	<g id="XMLID_1995_">
		<rect x="36.3" y="1.9" class="st203" width="1.6" height="138.4"/>
	</g>
	<circle id="XMLID_1994_" class="st203" cx="37.1" cy="2.5" r="2.5"/>
	<g id="XMLID_1993_">
		<rect x="44.4" y="1.9" class="st203" width="1.6" height="138.4"/>
	</g>
	<circle id="XMLID_1992_" class="st203" cx="45.2" cy="2.5" r="2.5"/>
	<rect id="XMLID_1991_" x="11.5" y="21.1" class="st270" width="108.8" height="248.3"/>
	<rect id="XMLID_1990_" x="31.2" y="21.1" class="st271" width="108.8" height="248.3"/>
	<polyline id="XMLID_1989_" class="st5" points="139.7,233.1 139.7,251.5 31,238.4 31,234.2 	"/>
	<polyline id="XMLID_1988_" class="st5" points="139.7,19.4 139.7,37.8 31,24.7 31,17.2 	"/>
	<rect id="XMLID_1987_" x="8.1" y="15.3" class="st272" width="20.8" height="6.2"/>
	<rect id="XMLID_1986_" x="28.9" y="15.3" class="st203" width="113.5" height="6.2"/>
	<rect id="XMLID_1985_" x="28.9" y="230" class="st203" width="113.5" height="6.2"/>
	<polyline id="XMLID_1984_" class="st273" points="64.4,138.6 64.4,116.3 47.4,116.3 47.4,138.6 	"/>
	<polyline id="XMLID_1983_" class="st5" points="123.7,138.6 123.7,116.3 106.7,116.3 106.7,138.6 	"/>
	<polyline id="XMLID_1982_" class="st5" points="64.4,175.8 64.4,153.6 47.4,153.6 47.4,175.8 	"/>
	<polyline id="XMLID_1981_" class="st273" points="123.7,175.8 123.7,153.6 106.7,153.6 106.7,175.8 	"/>
	<rect id="XMLID_1977_" x="45.2" y="138.6" class="st5" width="21.5" height="4.1"/>
	<rect id="XMLID_1975_" x="104.4" y="138.6" class="st5" width="21.5" height="4.1"/>
	<rect id="XMLID_1974_" x="45.2" y="175.8" class="st5" width="21.5" height="4.1"/>
	<rect id="XMLID_1973_" x="104.4" y="175.8" class="st5" width="21.5" height="4.1"/>
	<polyline id="XMLID_1972_" class="st5" points="64.4,211.7 64.4,189.5 47.4,189.5 47.4,211.7 	"/>
	<polyline id="XMLID_1970_" class="st273" points="94,211.7 94,189.5 77.1,189.5 77.1,211.7 	"/>
	<polyline id="XMLID_1969_" class="st273" points="123.7,211.7 123.7,189.5 106.7,189.5 106.7,211.7 	"/>
	<rect id="XMLID_1968_" x="45.2" y="211.7" class="st5" width="21.5" height="4.1"/>
	<rect id="XMLID_1967_" x="74.8" y="211.7" class="st5" width="21.5" height="4.1"/>
	<rect id="XMLID_1966_" x="104.4" y="211.7" class="st5" width="21.5" height="4.1"/>
	<polyline id="XMLID_1933_" class="st273" points="64.4,64.2 64.4,42 47.4,42 47.4,64.2 	"/>
	<polyline id="XMLID_1891_" class="st5" points="94,64.2 94,42 77.1,42 77.1,64.2 	"/>
	<polyline id="XMLID_1880_" class="st5" points="123.7,64.2 123.7,42 106.7,42 106.7,64.2 	"/>
	<polyline id="XMLID_1879_" class="st274" points="123.7,101.5 123.7,79.3 106.7,79.3 106.7,101.5 	"/>
	<polyline id="XMLID_1878_" class="st5" points="64.4,101.5 64.4,79.3 47.4,79.3 47.4,101.5 	"/>
	<rect id="XMLID_1877_" x="45.2" y="64.2" class="st5" width="21.5" height="4.1"/>
	<rect id="XMLID_1876_" x="74.8" y="64.2" class="st5" width="21.5" height="4.1"/>
	<rect id="XMLID_1875_" x="104.4" y="64.2" class="st5" width="21.5" height="4.1"/>
	<rect id="XMLID_1874_" x="45.2" y="101.5" class="st5" width="21.5" height="4.1"/>
	<rect id="XMLID_1873_" x="104.4" y="101.5" class="st5" width="21.5" height="4.1"/>
	<g id="XMLID_1868_">
		<path id="XMLID_1872_" class="st34" d="M90.8,14.1c0,4.1-3.3,7.4-7.4,7.4c-4.1,0-7.4-3.3-7.4-7.4H90.8z"/>
		<path id="XMLID_1871_" class="st34" d="M108.4,14.1c0,5.6-4.6,10.2-10.2,10.2c-5.6,0-10.2-4.6-10.2-10.2H108.4z"/>
		<path id="XMLID_1870_" class="st34" d="M120.3,14.1c0,4.1-3.3,7.4-7.4,7.4c-4.1,0-7.4-3.3-7.4-7.4H120.3z"/>
		<path id="XMLID_1869_" class="st34" d="M127.2,14.1c0,2.4-1.9,4.3-4.3,4.3c-2.4,0-4.3-1.9-4.3-4.3H127.2z"/>
	</g>
	<path id="XMLID_1867_" class="st34" d="M129.8,270.9c0-4.3,3.5-7.8,7.8-7.8c4.3,0,7.8,3.5,7.8,7.8H129.8z"/>
	<path id="XMLID_1866_" class="st34" d="M143.1,270.9c0-2.8,2.3-5.1,5.1-5.1s5.1,2.3,5.1,5.1H143.1z"/>
	<g id="XMLID_1741_">
		<rect id="XMLID_1864_" x="41.7" y="247.5" class="st5" width="11.1" height="22.4"/>
		<rect id="XMLID_1863_" x="50.1" y="256.8" class="st16" width="1.6" height="4"/>
		<rect id="XMLID_1862_" x="53.5" y="247.5" class="st5" width="11.1" height="22.4"/>
		<rect id="XMLID_1857_" x="54.6" y="256.8" class="st16" width="1.6" height="4"/>
	</g>
	<g id="XMLID_1736_">
		<rect id="XMLID_1740_" x="74.2" y="247.5" class="st5" width="11.1" height="22.4"/>
		<rect id="XMLID_1739_" x="82.6" y="256.8" class="st16" width="1.6" height="4"/>
		<rect id="XMLID_1738_" x="86" y="247.5" class="st5" width="11.1" height="22.4"/>
		<rect id="XMLID_1737_" x="87.1" y="256.8" class="st16" width="1.6" height="4"/>
	</g>
	<g id="XMLID_1731_">
		<rect id="XMLID_1735_" x="106.8" y="247.5" class="st5" width="11.1" height="22.4"/>
		<rect id="XMLID_1734_" x="115.2" y="256.8" class="st16" width="1.6" height="4"/>
		<rect id="XMLID_1733_" x="118.6" y="247.5" class="st5" width="11.1" height="22.4"/>
		<rect id="XMLID_1732_" x="119.7" y="256.8" class="st16" width="1.6" height="4"/>
	</g>
	<polygon id="XMLID_1729_" class="st38" points="85.7,182.3 68.9,167 76.9,167 76.9,101.7 94.2,101.7 94.3,167.1 102.2,167.2 	"/>
	<g id="XMLID_1618_">
		<path class="st34" d="M85.4,178.9c-0.2-0.2-0.2-0.5,0-0.7l0,0c0.2-0.2,0.5-0.2,0.7,0l0,0c0.2,0.2,0.2,0.5,0,0.8l0,0
			c-0.1,0.1-0.2,0.2-0.4,0.2l0,0C85.6,179,85.5,179,85.4,178.9z M86.4,177.9c-0.2-0.2-0.2-0.6,0.1-0.7l0,0c0.2-0.2,0.5-0.2,0.7,0
			l0,0c0.2,0.2,0.2,0.6-0.1,0.7l0,0c-0.1,0.1-0.2,0.1-0.3,0.1l0,0C86.7,178.1,86.6,178,86.4,177.9z M83.9,177.4
			c-0.2-0.2-0.2-0.5,0-0.7l0,0c0.2-0.2,0.5-0.2,0.8,0l0,0c0.2,0.2,0.2,0.5,0,0.8l0,0c-0.1,0.1-0.2,0.2-0.4,0.2l0,0
			C84.1,177.6,84,177.5,83.9,177.4z M88,176.5c-0.2-0.2-0.2-0.6,0-0.7l0,0c0.2-0.2,0.6-0.2,0.8,0.1l0,0c0.2,0.2,0.2,0.5-0.1,0.7l0,0
			c-0.1,0.1-0.2,0.1-0.3,0.1l0,0C88.3,176.7,88.1,176.7,88,176.5z M82.3,176c-0.2-0.2-0.2-0.5,0-0.7l0,0c0.2-0.2,0.5-0.2,0.7,0l0,0
			c0.2,0.2,0.2,0.5,0,0.7l0,0c-0.1,0.1-0.2,0.2-0.4,0.2l0,0C82.6,176.1,82.4,176.1,82.3,176z M89.6,175.2c-0.2-0.2-0.2-0.6,0.1-0.8
			l0,0c0.2-0.2,0.5-0.2,0.7,0.1l0,0c0.2,0.2,0.2,0.5,0,0.7l0,0c-0.1,0.1-0.2,0.1-0.4,0.1l0,0C89.9,175.3,89.7,175.3,89.6,175.2z
			 M80.8,174.5c-0.2-0.2-0.2-0.5,0-0.7l0,0c0.2-0.2,0.5-0.2,0.8,0l0,0c0.2,0.2,0.2,0.5,0,0.7l0,0c-0.1,0.1-0.2,0.2-0.4,0.2l0,0
			C81,174.7,80.9,174.6,80.8,174.5z M91.2,173.8c-0.2-0.2-0.2-0.5,0-0.7l0,0c0.2-0.2,0.6-0.2,0.8,0.1l0,0c0.2,0.2,0.2,0.5-0.1,0.7
			l0,0c-0.1,0.1-0.2,0.1-0.3,0.1l0,0C91.5,174,91.3,173.9,91.2,173.8z M79.3,173.1c-0.2-0.2-0.2-0.5,0-0.7l0,0
			c0.2-0.2,0.5-0.2,0.7,0l0,0c0.2,0.2,0.2,0.5,0,0.7l0,0c-0.1,0.1-0.2,0.2-0.4,0.2l0,0C79.5,173.2,79.4,173.2,79.3,173.1z
			 M92.8,172.4c-0.2-0.2-0.2-0.5,0.1-0.7l0,0c0.2-0.2,0.5-0.2,0.7,0.1l0,0c0.2,0.2,0.2,0.5,0,0.7l0,0c-0.1,0.1-0.2,0.1-0.3,0.1l0,0
			C93.1,172.6,92.9,172.5,92.8,172.4z M77.8,171.6c-0.2-0.2-0.2-0.5,0-0.7l0,0c0.2-0.2,0.5-0.2,0.7,0l0,0c0.2,0.2,0.2,0.5,0,0.8l0,0
			c-0.1,0.1-0.2,0.2-0.4,0.2l0,0C78,171.8,77.9,171.7,77.8,171.6z M94.4,171c-0.2-0.2-0.2-0.5,0-0.7l0,0c0.2-0.2,0.6-0.2,0.8,0l0,0
			c0.2,0.2,0.2,0.6-0.1,0.8l0,0c-0.1,0.1-0.2,0.1-0.3,0.1l0,0C94.7,171.2,94.5,171.2,94.4,171z M76.2,170.2c-0.2-0.2-0.2-0.5,0-0.7
			l0,0c0.1-0.1,0.2-0.1,0.3-0.2l0,0c0,0,0-0.1,0-0.2l0,0c0-0.3,0.2-0.5,0.5-0.5l0,0c0.3,0,0.5,0.2,0.5,0.5l0,0
			c0,0.2-0.2,0.5-0.4,0.5l0,0c0.1,0.2,0,0.4-0.1,0.5l0,0c-0.1,0.1-0.2,0.2-0.4,0.2l0,0C76.5,170.3,76.3,170.3,76.2,170.2z M96,169.7
			c-0.2-0.2-0.2-0.5,0-0.7l0,0c0.2-0.2,0.5-0.2,0.7,0l0,0c0.2,0.2,0.2,0.6,0,0.7l0,0c-0.1,0.1-0.2,0.1-0.4,0.1l0,0
			C96.3,169.9,96.1,169.8,96,169.7z M94.4,169.1c0-0.3,0.2-0.5,0.5-0.5l0,0c0.3,0,0.5,0.2,0.5,0.5l0,0c0,0.3-0.2,0.5-0.5,0.5l0,0
			C94.6,169.6,94.4,169.4,94.4,169.1z M92.3,169.1c0-0.3,0.2-0.5,0.5-0.5l0,0c0.3,0,0.5,0.2,0.5,0.5l0,0c0,0.3-0.2,0.5-0.5,0.5l0,0
			C92.5,169.6,92.3,169.4,92.3,169.1z M78.6,169.1c0-0.3,0.2-0.5,0.5-0.5l0,0c0.3,0,0.5,0.2,0.5,0.5l0,0c0,0.3-0.2,0.5-0.5,0.5l0,0
			C78.8,169.6,78.6,169.4,78.6,169.1z M90.3,168.9c0-0.3,0.2-0.5,0.5-0.5l0,0c0.3,0,0.5,0.2,0.5,0.5l0,0c0,0.3-0.2,0.5-0.5,0.5l0,0
			C90.6,169.5,90.3,169.2,90.3,168.9z M80,168.5c0-0.3,0.2-0.5,0.5-0.5l0,0c0.3,0,0.5,0.2,0.5,0.5l0,0c0,0.3-0.2,0.5-0.5,0.5l0,0
			C80.3,169,80,168.7,80,168.5z M90.3,166.8c0-0.3,0.2-0.5,0.5-0.5l0,0c0.3,0,0.5,0.2,0.5,0.5l0,0c0,0.3-0.2,0.5-0.5,0.5l0,0
			C90.6,167.4,90.3,167.1,90.3,166.8z M80,166.4c0-0.3,0.2-0.5,0.5-0.5l0,0c0.3,0,0.5,0.2,0.5,0.5l0,0c0,0.3-0.2,0.5-0.5,0.5l0,0
			C80.3,166.9,80,166.6,80,166.4z M90.3,164.7c0-0.3,0.2-0.5,0.5-0.5l0,0c0.3,0,0.5,0.2,0.5,0.5l0,0c0,0.3-0.2,0.5-0.5,0.5l0,0
			C90.6,165.3,90.3,165,90.3,164.7z M80,164.3c0-0.3,0.2-0.5,0.5-0.5l0,0c0.3,0,0.5,0.2,0.5,0.5l0,0c0,0.3-0.2,0.5-0.5,0.5l0,0
			C80.3,164.8,80,164.5,80,164.3z M90.3,162.6c0-0.3,0.2-0.5,0.5-0.5l0,0c0.3,0,0.5,0.2,0.5,0.5l0,0c0,0.3-0.2,0.5-0.5,0.5l0,0
			C90.6,163.2,90.3,162.9,90.3,162.6z M80,162.1c0-0.3,0.2-0.5,0.5-0.5l0,0c0.3,0,0.5,0.2,0.5,0.5l0,0c0,0.3-0.2,0.5-0.5,0.5l0,0
			C80.3,162.7,80,162.4,80,162.1z M90.3,160.5c0-0.3,0.2-0.5,0.5-0.5l0,0c0.3,0,0.5,0.2,0.5,0.5l0,0c0,0.3-0.2,0.5-0.5,0.5l0,0
			C90.6,161.1,90.3,160.8,90.3,160.5z M80,160c0-0.3,0.2-0.5,0.5-0.5l0,0c0.3,0,0.5,0.2,0.5,0.5l0,0c0,0.3-0.2,0.5-0.5,0.5l0,0
			C80.3,160.6,80,160.3,80,160z M90.3,158.4c0-0.3,0.2-0.5,0.5-0.5l0,0c0.3,0,0.5,0.2,0.5,0.5l0,0c0,0.3-0.2,0.5-0.5,0.5l0,0
			C90.6,159,90.3,158.7,90.3,158.4z M80,157.9c0-0.3,0.2-0.5,0.5-0.5l0,0c0.3,0,0.5,0.2,0.5,0.5l0,0c0,0.3-0.2,0.5-0.5,0.5l0,0
			C80.3,158.5,80,158.2,80,157.9z M90.3,156.3c0-0.3,0.2-0.5,0.5-0.5l0,0c0.3,0,0.5,0.2,0.5,0.5l0,0c0,0.3-0.2,0.5-0.5,0.5l0,0
			C90.6,156.8,90.3,156.6,90.3,156.3z M80,155.8c0-0.3,0.2-0.5,0.5-0.5l0,0c0.3,0,0.5,0.2,0.5,0.5l0,0c0,0.3-0.2,0.5-0.5,0.5l0,0
			C80.3,156.4,80,156.1,80,155.8z M90.3,154.2c0-0.3,0.2-0.5,0.5-0.5l0,0c0.3,0,0.5,0.2,0.5,0.5l0,0c0,0.3-0.2,0.5-0.5,0.5l0,0
			C90.6,154.7,90.3,154.5,90.3,154.2z M80.1,153.7c0-0.3,0.2-0.5,0.5-0.5l0,0c0.3,0,0.5,0.2,0.5,0.5l0,0c0,0.3-0.2,0.5-0.5,0.5l0,0
			C80.3,154.3,80.1,154,80.1,153.7z M90.3,152.1c0-0.3,0.2-0.5,0.5-0.5l0,0c0.3,0,0.5,0.2,0.5,0.5l0,0c0,0.3-0.2,0.5-0.5,0.5l0,0
			C90.6,152.6,90.3,152.4,90.3,152.1z M80.1,151.6c0-0.3,0.2-0.5,0.5-0.5l0,0c0.3,0,0.5,0.2,0.5,0.5l0,0c0,0.3-0.2,0.5-0.5,0.5l0,0
			C80.3,152.2,80.1,151.9,80.1,151.6z M90.3,150c0-0.3,0.2-0.5,0.5-0.5l0,0c0.3,0,0.5,0.2,0.5,0.5l0,0c0,0.3-0.2,0.5-0.5,0.5l0,0
			C90.5,150.5,90.3,150.3,90.3,150z M80.1,149.5c0-0.3,0.2-0.5,0.5-0.5l0,0c0.3,0,0.5,0.2,0.5,0.5l0,0c0,0.3-0.2,0.5-0.5,0.5l0,0
			C80.3,150,80.1,149.8,80.1,149.5z M90.3,147.9c0-0.3,0.2-0.5,0.5-0.5l0,0c0.3,0,0.5,0.2,0.5,0.5l0,0c0,0.3-0.2,0.5-0.5,0.5l0,0
			C90.5,148.4,90.3,148.2,90.3,147.9z M80.1,147.4c0-0.3,0.2-0.5,0.5-0.5l0,0c0.3,0,0.5,0.2,0.5,0.5l0,0c0,0.3-0.2,0.5-0.5,0.5l0,0
			C80.3,147.9,80.1,147.7,80.1,147.4z M90.3,145.8c0-0.3,0.2-0.5,0.5-0.5l0,0c0.3,0,0.5,0.2,0.5,0.5l0,0c0,0.3-0.2,0.5-0.5,0.5l0,0
			C90.5,146.3,90.3,146.1,90.3,145.8z M80.1,145.3c0-0.3,0.2-0.5,0.5-0.5l0,0c0.3,0,0.5,0.2,0.5,0.5l0,0c0,0.3-0.2,0.5-0.5,0.5l0,0
			C80.3,145.8,80.1,145.6,80.1,145.3z M90.3,143.7c0-0.3,0.2-0.5,0.5-0.5l0,0c0.3,0,0.5,0.2,0.5,0.5l0,0c0,0.3-0.2,0.5-0.5,0.5l0,0
			C90.5,144.2,90.3,144,90.3,143.7z M80.1,143.2c0-0.3,0.2-0.5,0.5-0.5l0,0c0.3,0,0.5,0.2,0.5,0.5l0,0c0,0.3-0.2,0.5-0.5,0.5l0,0
			C80.3,143.7,80.1,143.5,80.1,143.2z M90.3,141.6c0-0.3,0.2-0.5,0.5-0.5l0,0c0.3,0,0.5,0.2,0.5,0.5l0,0c0,0.3-0.2,0.5-0.5,0.5l0,0
			C90.5,142.1,90.3,141.9,90.3,141.6z M80.1,141.1c0-0.3,0.2-0.5,0.5-0.5l0,0c0.3,0,0.5,0.2,0.5,0.5l0,0c0,0.3-0.2,0.5-0.5,0.5l0,0
			C80.3,141.6,80.1,141.4,80.1,141.1z M90.3,139.5c0-0.3,0.2-0.5,0.5-0.5l0,0c0.3,0,0.5,0.2,0.5,0.5l0,0c0,0.3-0.2,0.5-0.5,0.5l0,0
			C90.5,140,90.3,139.8,90.3,139.5z M80.1,139c0-0.3,0.2-0.5,0.5-0.5l0,0c0.3,0,0.5,0.2,0.5,0.5l0,0c0,0.3-0.2,0.5-0.5,0.5l0,0
			C80.3,139.5,80.1,139.3,80.1,139z M90.3,137.4c0-0.3,0.2-0.5,0.5-0.5l0,0c0.3,0,0.5,0.2,0.5,0.5l0,0c0,0.3-0.2,0.5-0.5,0.5l0,0
			C90.5,137.9,90.3,137.7,90.3,137.4z M80.1,136.9c0-0.3,0.2-0.5,0.5-0.5l0,0c0.3,0,0.5,0.2,0.5,0.5l0,0c0,0.3-0.2,0.5-0.5,0.5l0,0
			C80.3,137.4,80.1,137.2,80.1,136.9z M90.3,135.3c0-0.3,0.2-0.5,0.5-0.5l0,0c0.3,0,0.5,0.2,0.5,0.5l0,0c0,0.3-0.2,0.5-0.5,0.5l0,0
			C90.5,135.8,90.3,135.6,90.3,135.3z M80.1,134.8c0-0.3,0.2-0.5,0.5-0.5l0,0c0.3,0,0.5,0.2,0.5,0.5l0,0c0,0.3-0.2,0.5-0.5,0.5l0,0
			C80.3,135.3,80.1,135.1,80.1,134.8z M90.3,133.2c0-0.3,0.2-0.5,0.5-0.5l0,0c0.3,0,0.5,0.2,0.5,0.5l0,0c0,0.3-0.2,0.5-0.5,0.5l0,0
			C90.5,133.7,90.3,133.5,90.3,133.2z M80.1,132.7c0-0.3,0.2-0.5,0.5-0.5l0,0c0.3,0,0.5,0.2,0.5,0.5l0,0c0,0.3-0.2,0.5-0.5,0.5l0,0
			C80.3,133.2,80.1,133,80.1,132.7z M90.3,131.1c0-0.3,0.2-0.5,0.5-0.5l0,0c0.3,0,0.5,0.2,0.5,0.5l0,0c0,0.3-0.2,0.5-0.5,0.5l0,0
			C90.5,131.6,90.3,131.4,90.3,131.1z M80.1,130.6c0-0.3,0.2-0.5,0.5-0.5l0,0c0.3,0,0.5,0.2,0.5,0.5l0,0c0,0.3-0.2,0.5-0.5,0.5l0,0
			C80.3,131.1,80.1,130.9,80.1,130.6z M90.3,129c0-0.3,0.2-0.5,0.5-0.5l0,0c0.3,0,0.5,0.2,0.5,0.5l0,0c0,0.3-0.2,0.5-0.5,0.5l0,0
			C90.5,129.5,90.3,129.3,90.3,129z M80.1,128.5c0-0.3,0.2-0.5,0.5-0.5l0,0c0.3,0,0.5,0.2,0.5,0.5l0,0c0,0.3-0.2,0.5-0.5,0.5l0,0
			C80.3,129,80.1,128.8,80.1,128.5z M90.3,126.9c0-0.3,0.2-0.5,0.5-0.5l0,0c0.3,0,0.5,0.2,0.5,0.5l0,0c0,0.3-0.2,0.5-0.5,0.5l0,0
			C90.5,127.4,90.3,127.2,90.3,126.9z M80.1,126.4c0-0.3,0.2-0.5,0.5-0.5l0,0c0.3,0,0.5,0.2,0.5,0.5l0,0c0,0.3-0.2,0.5-0.5,0.5l0,0
			C80.3,126.9,80.1,126.7,80.1,126.4z M90.3,124.8c0-0.3,0.2-0.5,0.5-0.5l0,0c0.3,0,0.5,0.2,0.5,0.5l0,0c0,0.3-0.2,0.5-0.5,0.5l0,0
			C90.5,125.3,90.3,125.1,90.3,124.8z M80.1,124.3c0-0.3,0.2-0.5,0.5-0.5l0,0c0.3,0,0.5,0.2,0.5,0.5l0,0c0,0.3-0.2,0.5-0.5,0.5l0,0
			C80.3,124.8,80.1,124.6,80.1,124.3z M90.3,122.7c0-0.3,0.2-0.5,0.5-0.5l0,0c0.3,0,0.5,0.2,0.5,0.5l0,0c0,0.3-0.2,0.5-0.5,0.5l0,0
			C90.5,123.2,90.3,123,90.3,122.7z M80.1,122.2c0-0.3,0.2-0.5,0.5-0.5l0,0c0.3,0,0.5,0.2,0.5,0.5l0,0c0,0.3-0.2,0.5-0.5,0.5l0,0
			C80.3,122.7,80.1,122.5,80.1,122.2z M90.3,120.6c0-0.3,0.2-0.5,0.5-0.5l0,0c0.3,0,0.5,0.2,0.5,0.5l0,0c0,0.3-0.2,0.5-0.5,0.5l0,0
			C90.5,121.1,90.3,120.8,90.3,120.6z M80.1,120.1c0-0.3,0.2-0.5,0.5-0.5l0,0c0.3,0,0.5,0.2,0.5,0.5l0,0c0,0.3-0.2,0.5-0.5,0.5l0,0
			C80.3,120.6,80.1,120.4,80.1,120.1z M90.3,118.5c0-0.3,0.2-0.5,0.5-0.5l0,0c0.3,0,0.5,0.2,0.5,0.5l0,0c0,0.3-0.2,0.5-0.5,0.5l0,0
			C90.5,119,90.3,118.7,90.3,118.5z M80.1,118c0-0.3,0.2-0.5,0.5-0.5l0,0c0.3,0,0.5,0.2,0.5,0.5l0,0c0,0.3-0.2,0.5-0.5,0.5l0,0
			C80.3,118.5,80.1,118.3,80.1,118z M90.3,116.4c0-0.3,0.2-0.5,0.5-0.5l0,0c0.3,0,0.5,0.2,0.5,0.5l0,0c0,0.3-0.2,0.5-0.5,0.5l0,0
			C90.5,116.9,90.3,116.6,90.3,116.4z M80.1,115.9c0-0.3,0.2-0.5,0.5-0.5l0,0c0.3,0,0.5,0.2,0.5,0.5l0,0c0,0.3-0.2,0.5-0.5,0.5l0,0
			C80.3,116.4,80.1,116.2,80.1,115.9z M90.3,114.2c0-0.3,0.2-0.5,0.5-0.5l0,0c0.3,0,0.5,0.2,0.5,0.5l0,0c0,0.3-0.2,0.5-0.5,0.5l0,0
			C90.5,114.8,90.3,114.5,90.3,114.2z M80.1,113.8c0-0.3,0.2-0.5,0.5-0.5l0,0c0.3,0,0.5,0.2,0.5,0.5l0,0c0,0.3-0.2,0.5-0.5,0.5l0,0
			C80.3,114.3,80.1,114.1,80.1,113.8z M90.3,112.1c0-0.3,0.2-0.5,0.5-0.5l0,0c0.3,0,0.5,0.2,0.5,0.5l0,0c0,0.3-0.2,0.5-0.5,0.5l0,0
			C90.5,112.7,90.3,112.4,90.3,112.1z M80.1,111.7c0-0.3,0.2-0.5,0.5-0.5l0,0c0.3,0,0.5,0.2,0.5,0.5l0,0c0,0.3-0.2,0.5-0.5,0.5l0,0
			C80.3,112.2,80.1,111.9,80.1,111.7z M90.3,110c0-0.3,0.2-0.5,0.5-0.5l0,0c0.3,0,0.5,0.2,0.5,0.5l0,0c0,0.3-0.2,0.5-0.5,0.5l0,0
			C90.5,110.6,90.3,110.3,90.3,110z M80.1,109.6c0-0.3,0.2-0.5,0.5-0.5l0,0c0.3,0,0.5,0.2,0.5,0.5l0,0c0,0.3-0.2,0.5-0.5,0.5l0,0
			C80.3,110.1,80.1,109.8,80.1,109.6z M90.3,107.9c0-0.3,0.2-0.5,0.5-0.5l0,0c0.3,0,0.5,0.2,0.5,0.5l0,0c0,0.3-0.2,0.5-0.5,0.5l0,0
			C90.5,108.5,90.3,108.2,90.3,107.9z M80.1,107.5c0-0.3,0.2-0.5,0.5-0.5l0,0c0.3,0,0.5,0.2,0.5,0.5l0,0c0,0.3-0.2,0.5-0.5,0.5l0,0
			C80.3,108,80.1,107.7,80.1,107.5z M90.3,105.8c0-0.3,0.2-0.5,0.5-0.5l0,0c0.3,0,0.5,0.2,0.5,0.5l0,0c0,0.3-0.2,0.5-0.5,0.5l0,0
			C90.5,106.4,90.3,106.1,90.3,105.8z M80.1,105.3c0-0.3,0.2-0.5,0.5-0.5l0,0c0.3,0,0.5,0.2,0.5,0.5l0,0c0,0.3-0.2,0.5-0.5,0.5l0,0
			C80.3,105.9,80.1,105.6,80.1,105.3z M89.6,104.4c0-0.3,0.2-0.5,0.5-0.5l0,0c0.3,0,0.5,0.2,0.5,0.5l0,0c0,0.3-0.2,0.5-0.5,0.5l0,0
			C89.9,104.9,89.6,104.7,89.6,104.4z M87.5,104.4c0-0.3,0.2-0.5,0.5-0.5l0,0c0.3,0,0.5,0.2,0.5,0.5l0,0c0,0.3-0.2,0.5-0.5,0.5l0,0
			C87.8,104.9,87.5,104.7,87.5,104.4z M85.4,104.4c0-0.3,0.2-0.5,0.5-0.5l0,0c0.3,0,0.5,0.2,0.5,0.5l0,0c0,0.3-0.2,0.5-0.5,0.5l0,0
			C85.7,104.9,85.4,104.7,85.4,104.4z M83.3,104.4c0-0.3,0.2-0.5,0.5-0.5l0,0c0.3,0,0.5,0.2,0.5,0.5l0,0c0,0.3-0.2,0.5-0.5,0.5l0,0
			C83.6,104.9,83.3,104.7,83.3,104.4z M81.2,104.4c0-0.3,0.2-0.5,0.5-0.5l0,0c0.3,0,0.5,0.2,0.5,0.5l0,0c0,0.3-0.2,0.5-0.5,0.5l0,0
			C81.5,104.9,81.2,104.7,81.2,104.4z"/>
	</g>
	<g id="XMLID_387_">
		<rect id="XMLID_1617_" x="77" y="79.7" class="st275" width="17.3" height="17.3"/>
		<g id="XMLID_1615_">
			<polygon id="XMLID_1616_" class="st67" points="86.6,87.5 86.6,79.7 84.4,79.7 84.4,87.5 77,87.5 77,89.7 84.4,89.7 84.4,97.1 
				86.6,97.1 86.6,89.7 94.3,89.7 94.3,87.5 			"/>
		</g>
	</g>
</g>
<g id="New_Symbol_71">
	<g id="New_Symbol_65_9_">
	</g>
</g>
<g id="New_Symbol_73">
	<g id="New_Symbol_64_2_">
	</g>
</g>
<g id="New_Symbol_74">
	<g id="New_Symbol_65_8_">
	</g>
</g>
<g id="New_Symbol_92">
</g>
<g id="New_Symbol_93">
	<g id="New_Symbol_64_1_" class="st347">
	</g>
</g>
<g id="New_Symbol_76">
	<g id="New_Symbol_65_7_">
	</g>
</g>
<g id="New_Symbol_77">
</g>
<g id="New_Symbol_78">
	<g id="New_Symbol_65_6_">
	</g>
</g>
<g id="New_Symbol_80">
</g>
<g id="XMLID_193_">
	<g id="New_Symbol_13_2_">
	</g>
</g>
<g id="New_Symbol_82">
</g>
<g id="New_Symbol_96">
</g>
<g id="New_Symbol_98">
	<g id="New_Symbol_65_5_">
	</g>
</g>
<g id="New_Symbol_97">
</g>
<g id="New_Symbol_99">
</g>
<g id="New_Symbol_100">
</g>
<g id="New_Symbol_101">
</g>
<g id="New_Symbol_102">
</g>
<g id="New_Symbol_103">
</g>
<g id="New_Symbol_105">
</g>
<g id="New_Symbol_105_1_">
</g>
<g id="New_Symbol_113">
	<g id="New_Symbol_65_4_">
	</g>
	<g id="New_Symbol_65_3_">
	</g>
	<g id="New_Symbol_65_2_">
	</g>
	<g id="New_Symbol_13_1_">
	</g>
</g>
<g id="New_Symbol_106">
</g>
<g id="New_Symbol_107">
</g>
<g id="New_Symbol_108">
</g>
<g id="New_Symbol_109">
</g>
<g id="New_Symbol_111">
</g>
<g id="_x5C_">
</g>
<g id="New_Symbol_114">
	<g id="New_Symbol_65_1_">
	</g>
</g>
<g id="New_Symbol_141">
</g>
<g id="New_Symbol_112">
</g>
<g id="New_Symbol_118">
</g>
<g id="New_Symbol_121">
</g>
<g id="New_Symbol_120">
	<g id="New_Symbol_119">
	</g>
</g>
<g id="New_Symbol_65">
</g>
<g id="New_Symbol_64" class="st347">
</g>
<g id="New_Symbol_140">
</g>
<g id="New_Symbol_110">
</g>
</svg>
