<svg id="Layer_1" xmlns="http://www.w3.org/2000/svg" width="620" height="390" viewBox="0 0 620 390"><style>.st0,.st1{opacity:.5;fill:#75cef4;enable-background:new}.st1{opacity:.17;fill:#fff}.st2{fill:url(#SVGID_1_)}.st3{fill:url(#SVGID_2_)}.st4{fill:#bf8f68}.st5{fill:#f27b20}.st6{fill:#fff}.st7{fill:#333}.st8{fill:none;stroke:#fff;stroke-width:.68;stroke-miterlimit:10}.st9{fill:#ffd400}.st10{fill:gray}.st11{fill:#e64436}.st12{fill:#ffdf8a}.st13{fill:#e0bb95}.st14{fill:#8f4293}</style><title>Penguin_dash_village_building_bc</title><path class="st0" d="M50.2 343.2H547l-13.4-145.5-39-110.5-102.8-44.3-73.7-14.5-76.4 3.5-128.6 52.3-41.9 74.3L57 243z"/><path class="st0" d="M241.7 31.9l-18.1 28.7-110.5 23.6-41.9 74.3L57 243l39.8 100.2h172.4l88.5-155.7-39.6-159.1z"/><path class="st0" d="M391.8 42.9l102.8 44.3-55.5 256H269.2l-51.4-182.4z"/><path class="st1" d="M494.6 87.2l39 110.5-175.9-10.2-139.9-26.7 174-117.9zM217.8 160.8l5.8-100.2-110.5 23.6-41.9 74.3L57 243z"/><linearGradient id="SVGID_1_" gradientUnits="userSpaceOnUse" x1="121.8" y1="73.97" x2="121.8" y2="27.29" gradientTransform="matrix(1 0 0 -1 0 392)"><stop offset=".07" stop-color="#f6f3ec"/><stop offset=".62" stop-color="#f6f3ec"/><stop offset="1" stop-color="#f6f3ec" stop-opacity="0"/></linearGradient><path class="st2" d="M241.1 366.9c-59.8-30.8-63.3-45.1-95.8-55.1-7.6-2.4-15.5-3.6-23.5-3.5-8-.1-15.9 1.1-23.5 3.5-32.5 10-36 24.3-95.8 55.1h238.6z"/><linearGradient id="SVGID_2_" gradientUnits="userSpaceOnUse" x1="336.31" y1="77.45" x2="336.31" y2="26.79" gradientTransform="matrix(1 0 0 -1 0 392)"><stop offset=".07" stop-color="#fff"/><stop offset=".62" stop-color="#fff"/><stop offset="1" stop-color="#fff" stop-opacity="0"/></linearGradient><path class="st3" d="M617.5 379H55.1c80.6-41.6 85.4-60.8 129.2-74.4 20.6-6.4 42.7-6.4 63.4 0 12.4 3.7 24.2 9.2 35.2 16.1 27-18.8 43.5-31.3 76.3-41.5 15.6-4.8 29.8-6.7 42.5-6.4 12.8-.3 26.9 1.6 42.5 6.4 58.8 18.2 65.2 44 173.3 99.8z"/><circle class="st4" cx="184.3" cy="307.4" r="1.4"/><path class="st5" d="M190.7 294.2s-3.1-6.4-5.9-7.8c0 0 1.5 6-.1 7.9l6-.1z"/><path class="st4" d="M183.8 297.7c0 2.1 1.7 3.8 3.8 3.8 2.1 0 3.8-1.7 3.8-3.8 0-2.1-1.7-3.8-3.8-3.8-2.1.1-3.8 1.7-3.8 3.8z"/><path class="st6" d="M183.8 293.6h7.5c.3 0 .5.2.5.5v.9c0 .3-.2.5-.5.5h-7.5c-.3 0-.5-.2-.5-.5v-.9c0-.2.2-.5.5-.5z"/><circle class="st7" cx="189.2" cy="297.2" r=".7"/><circle class="st7" cx="186.1" cy="297.2" r=".7"/><path class="st5" d="M189.9 302.9h7.5v2.1h-7.5z"/><path class="st5" d="M184 310.4c-.1 2.1 1.5 3.8 3.6 3.9 2.1.1 3.8-1.5 3.9-3.6V305.1c.1-2.1-1.5-3.8-3.6-3.9-2.1-.1-3.8 1.5-3.9 3.6V310.4z"/><path class="st6" d="M189.9 312.8v6.4h-2v-6.4"/><path class="st5" d="M189.9 312.8v3.4h-2v-3.4"/><path class="st7" d="M187.8 318.8h2.3c.8 1.5 2.7 1.5 3 .4 0 0 1.1 2-3.7 1.7-.9 0-1.7-.7-1.7-1.7 0-.1 0-.2.1-.4z"/><path class="st6" d="M185.2 312.8v6.4h1.9v-6.4"/><path class="st5" d="M185.2 312.8v3.4h1.9v-3.4"/><path class="st7" d="M187.3 318.8H185c-.8 1.5-2.7 1.5-3 .4 0 0-1.1 2 3.7 1.7.9 0 1.7-.8 1.7-1.7-.1-.1-.1-.2-.1-.4z"/><path class="st8" d="M187.8 301.5v10.1"/><path class="st7" d="M184 308.5h7.5v1.9H184z"/><path class="st9" d="M186.8 308.4h2v2.1h-2z"/><circle class="st6" cx="184.2" cy="285.8" r=".8"/><path class="st4" d="M191.3 296.9l1.2-1.7s.7 4.4-1.7 3.9l.5-2.2zM184.2 296.9l-1.2-1.7s-.7 4.4 1.7 3.9l-.5-2.2z"/><circle class="st4" cx="197.3" cy="304" r="1.4"/><path class="st10" d="M194.6 300.6s.1-4.4 2.8-6.2c0 0 2.4 1.4 2.6 6.2h-2.3v20.2h-.7v-20.2h-2.4zM347.8 286s3.6 2.5 6.6 1.4c0 0 .3-2.8-3.5-5.7l-1.4 1.9-19.1-13.8-.4.5 19.1 13.8-1.3 1.9z"/><path class="st11" d="M349.5 269s-1.6-7.3-3.1-10c0 0-.5 4.8-2.9 5.4l6 4.6z"/><path class="st12" d="M347.1 271.6c-1.2 1.7-3.5 2.1-5.2.9-1.7-1.2-2.1-3.5-.9-5.2 1.2-1.7 3.5-2.1 5.2-.9 1.7 1.2 2.1 3.5.9 5.2z"/><path class="st7" d="M347.4 267.7c-1-1.8-3.2-2.6-5.1-1.6-1.3.7-2.1 2.1-2 3.6 2.6.9 5.4.1 7.1-2z"/><path class="st12" d="M344.4 270.9v-3.4s-3.1 3.2-.8 4.1l.8-.7z"/><path class="st6" d="M342.2 264.8l.5-.8c.2-.2.5-.3.7-.1l6.1 4.3c.2.2.3.5.1.7l-.5.8c-.2.2-.5.3-.7.1l-6.1-4.3c-.2-.1-.3-.5-.1-.7z"/><ellipse transform="rotate(-54.73 346.256 270.33)" class="st7" cx="346.2" cy="270.3" rx=".7" ry=".7"/><path class="st11" d="M339.6 281.9c-1.1 1.8-3.4 2.3-5.2 1.2-1.8-1.1-2.3-3.4-1.2-5.2.1-.1.1-.2.2-.3l3-4.2c1.1-1.8 3.4-2.3 5.2-1.2 1.8 1.1 2.3 3.4 1.2 5.2-.1.1-.1.2-.2.3l-3 4.2z"/><path class="st6" d="M336.5 284.1v4.7h-1.9v-4.7"/><path class="st11" d="M335 281.6c1.3 0 1.5.6 1.5 1.3v2.8h-2v-3.2l.5-.9z"/><path class="st7" d="M334.4 288.4h2.3c.8 1.5 2.7 1.5 3 .4 0 0 1 2-3.7 1.7-.9 0-1.7-.7-1.7-1.7.1 0 .1-.2.1-.4z"/><path transform="rotate(-54.73 337.116 278.925)" class="st7" d="M336.2 275.2h1.9v7.5h-1.9z"/><path transform="rotate(-54.73 340.182 281.07)" class="st9" d="M339.1 280.8h2.1v.5h-2.1z"/><path class="st12" d="M346.8 271.1l2.3 2.9c.3.2 0 .7-.5.4l-3.4-2.4 1.6-.9z"/><path class="st11" d="M345.5 279.4l-4.3-3.3-.9 2.2 4.3 3.2z"/><ellipse transform="rotate(-54.73 345.35 280.61)" class="st12" cx="345.3" cy="280.6" rx="1.4" ry="1.4"/><path class="st7" d="M338.6 269.3c-.8.1-1.7-.2-2.2-.8.7-1.3 2.2-1.7 3.5-1.1.3.1.5.3.7.5-.5.8-1.2 1.3-2 1.4z"/><circle class="st13" cx="430.3" cy="304.3" r="1.4"/><circle class="st13" cx="443.7" cy="304.4" r="1.4"/><path class="st14" d="M434.2 292.1s3.1-6.4 5.9-7.8c0 0-1.5 6 .1 7.9l-6-.1z"/><path class="st13" d="M441 295.6c0 2.1-1.7 3.8-3.8 3.8-2.1 0-3.8-1.7-3.8-3.8 0-2.1 1.7-3.8 3.8-3.8 2.1 0 3.8 1.7 3.8 3.8z"/><path class="st6" d="M433.6 291.5h7.5c.3 0 .5.2.5.5v.9c0 .3-.2.5-.5.5h-7.5c-.3 0-.5-.2-.5-.5v-.9c0-.3.2-.5.5-.5z"/><circle class="st7" cx="435.6" cy="295.1" r=".7"/><circle class="st7" cx="438.7" cy="295.1" r=".7"/><path class="st14" d="M433.3 304.4v-1.3c-.1-2.1 1.5-3.8 3.6-3.9 2.1-.1 3.8 1.5 3.9 3.6V304.5"/><path class="st8" d="M437.1 299.6v5.9"/><circle class="st6" cx="440.6" cy="283.7" r=".8"/><path class="st13" d="M433.5 294.8l-1.2-1.7s-.7 4.4 1.7 3.9l-.5-2.2zM440.6 294.8l1.2-1.7s.7 4.4-1.7 3.9l.5-2.2z"/></svg>