<svg id="slice" xmlns="http://www.w3.org/2000/svg" xmlns:xlink="http://www.w3.org/1999/xlink" width="287" height="173.8" viewBox="-656 364.2 287 173.8"><style>.st0{fill:#f6f3ec}.st1{fill:#d7d7d7}.st2{fill:#fff}.st3{opacity:.1}.st4{fill:#388e3c}.st5{fill:#2e7d32}.st6{fill:#ffe18c}.st7{fill:#e53935}.st8{opacity:.25}.st9{fill:#29b6f6}.st10{opacity:.1;enable-background:new}.st11{fill:#414042}.st12{fill:#2f4c52}.st13{fill:#455d82}.st14{fill:#795548}.st15{opacity:.2}.st16{fill:#f9ce1d}.st17{clip-path:url(#SVGID_2_)}.st18{clip-path:url(#SVGID_4_)}.st19{opacity:.29}</style><g id="New_Symbol_98"><g id="New_Symbol_65"><ellipse class="st0" cx="-566.3" cy="536.6" rx="1.1" ry="1.2"/><path class="st0" d="M-372.5 529c-1.9 0-3.5 1.7-3.5 3.8h6.9c.1-2.1-1.5-3.8-3.4-3.8zm-10.7 1h-3.7c-1.9-2.6-7.6-6.1-10-6.1h-17.9c-4.5 0-4.1-2.6-3.9-3.5.1-.9.8-2.1 3.8-2.1h10.6c1.1 0 1.6-1.4.6-2.1-3.7-2.6-6.3-4.3-9.3-4.3h-127.7c-1.9 0-3.8.9-4.9 2.7-1.1 1.8-4.3 7.8-6.5 9.5-.9.8-1.5 1.9-1.5 3.2 0 1.1.4 2.1 1.1 2.8.6.7 1.5 1.2 2.5 1.2l4.5.1c2.4-1.2 2.3 1.2 0 1.9h-14.3c-2.3 0-4.2 1-4.2 2.3 0 1.3 1.9 2.3 4.2 2.3h151.3c1.1 0 2-.5 3.8-1.3h8.9c1 0 1.8-.8 1.8-1.8 0-.5-.2-1-.6-1.3h11.5c1 0 1.8-.8 1.8-1.8s-.9-1.7-1.9-1.7z"/><path id="XMLID_21_" class="st0" d="M-603.9 528.9c0-1.7 1.3-3.1 2.9-3.1s2.9 1.4 2.9 3.1h-5.8z"/><path id="XMLID_20_" class="st0" d="M-581.1 530.2c0-1.2.9-2.1 1.9-2.1s1.9 1 1.9 2.1"/><path id="XMLID_15_" class="st1" d="M-422.8 522.1c0-2.1 1.5-3.8 3.5-3.8s3.5 1.7 3.5 3.8h-7z"/><path id="XMLID_14_" class="st1" d="M-540.3 529.7c0-1.5 1.1-2.6 2.4-2.6 1.3 0 2.4 1.2 2.4 2.6h-4.8z"/><path class="st1" d="M-387.9 521h-7.9c-.8 0-1.5-.7-1.5-1.5s.7-1.5 1.5-1.5h7.9c.8 0 1.5.7 1.5 1.5s-.7 1.5-1.5 1.5z"/><path id="XMLID_13_" class="st1" d="M-420 529.2c0-2.1 1.5-3.8 3.5-3.8s3.5 1.7 3.5 3.8h-7z"/><path id="XMLID_12_" class="st2" d="M-655.9 517.6c0-1.8 1.3-3.2 2.9-3.2s2.9 1.4 2.9 3.2h-5.8z"/><path class="st2" d="M-461.4 508.3c-3.4-6.6-14.5-11.9-21.1-11.9h-98.7c-2 0-6.8 2.6-8.5 4.1-2 1.8-11.7 6.4-14.3 7.1h-.4c-1.7 0-4.9 3.2-4.9 5s3.2 1.5 4.9 1.5l8.3.2c2.5 0 2.5 4.2 0 4.2h-24.7c-1.3 0-4.2 2.1-4.2 3.5s2.9 1.7 4.2 1.7h168.6l-9.2-15.4z"/><path class="st2" d="M-621 513.7c-2 0-3.5 1.7-3.5 3.9h7.1c-.1-2.2-1.6-3.9-3.6-3.9zm0-5.7h5.5c0-2.1-1.6-3.9-3.5-3.9-1.2 0-2.3.7-2.9 1.7-.5-.4-1-.7-1.6-.7-1.4 0-2.6 1.3-2.6 2.8h3.6l1.5.1z"/><ellipse class="st2" cx="-630.7" cy="518.9" rx="2" ry="2.2"/><path class="st2" d="M-618.1 511.9h5.4c0-1.6-1.2-2.9-2.7-2.9s-2.7 1.3-2.7 2.9z"/><path id="XMLID_11_" class="st1" d="M-482.5 518c0-1.7 1.3-3.1 2.8-3.1 1.6 0 2.8 1.4 2.8 3.1h-5.6z"/><path id="XMLID_10_" class="st2" d="M-443.3 530.5c0-2.1 1.6-3.9 3.5-3.9 2 0 3.5 1.7 3.5 3.9h-7z"/><path id="XMLID_9_" class="st2" d="M-495.7 528.5c0-1.7 1.2-3 2.8-3 1.5 0 2.8 1.4 2.8 3h-5.6z"/><path id="XMLID_8_" class="st1" d="M-590.8 518.3c0-1.5 1.1-2.7 2.5-2.7s2.5 1.2 2.5 2.7h-5z"/><path class="st1" d="M-445 508h-8.1c-.8 0-1.5-.7-1.5-1.5s.7-1.5 1.5-1.5h8.1c.8 0 1.5.7 1.5 1.5s-.7 1.5-1.5 1.5z"/><path class="st2" d="M-450 516.2h15.1c1 0 1.8-.8 1.8-1.8s-.8-1.8-1.8-1.8H-450c-1 0-1.8.8-1.8 1.8s.8 1.8 1.8 1.8zm20.3 1.1h-27.1c-1.4 0-2.5 1.1-2.5 2.5 0 .7.3 1.4.8 1.8h-12.1c-1.4 0-2.5 1.1-2.5 2.5s1.1 2.5 2.5 2.5h27.1c1.4 0 2.5-1.1 2.5-2.5 0-.7-.3-1.4-.8-1.8h12.1c1.4 0 2.5-1.1 2.5-2.5s-1.1-2.5-2.5-2.5z"/><path id="XMLID_7_" class="st1" d="M-471.5 521.5c0-2.1 1.6-3.9 3.5-3.9 2 0 3.5 1.7 3.5 3.9h-7z"/><path id="XMLID_6_" class="st0" d="M-573.2 526.4c0-2.1 1.5-3.8 3.5-3.8s3.5 1.7 3.5 3.8h-7z"/><path id="XMLID_5_" class="st0" d="M-571.3 519.5c0-2.1 1.5-3.8 3.5-3.8 1.9 0 3.5 1.7 3.5 3.8h-7z"/><path id="XMLID_4_" class="st0" d="M-574.8 519.5c0-1.5 1.1-2.8 2.5-2.8s2.5 1.2 2.5 2.8h-5z"/><path id="XMLID_3_" class="st0" d="M-500 523.9c0-2.1 1.6-3.9 3.5-3.9 2 0 3.5 1.7 3.5 3.9h-7z"/><path id="XMLID_2_" class="st0" d="M-503.7 523.9c0-1.6 1.2-2.8 2.6-2.8 1.4 0 2.6 1.3 2.6 2.8h-5.2z"/><path id="XMLID_1_" class="st0" d="M-518.2 524.8c0-2.5 1.8-4.5 4.1-4.5s4.1 2 4.1 4.5"/></g><ellipse cx="-529.1" cy="508.4" rx="126.9" ry="6.4" class="st3"/><path class="st4" d="M-622 488.8l36.1-74.9v74.9zm92.5 0l37.1-76.9v76.9z"/><path class="st4" d="M-499.2 488.8l29.8-61.8v61.8zm-68.6 0l27.5-56.9v56.9z"/><path class="st4" d="M-545.3 488.8l23-47.8v47.8zm-42.1 0l27.5-56.9v56.9zm-54.3 0l27.2-56.3v56.3z"/><path class="st4" d="M-622 488.8l36.1-74.9 1.6 74.9z"/><path class="st5" d="M-549.7 488.8l-36.2-74.9v74.9z"/><path class="st4" d="M-529.5 488.8l37.1-76.9 1.3 76.9z"/><path class="st5" d="M-455.3 488.8l-37.1-76.9v76.9z"/><path class="st4" d="M-499.2 488.8l29.8-61.8 1.6 61.8z"/><path class="st5" d="M-439.6 488.8l-29.8-61.8v61.8z"/><path class="st4" d="M-567.8 488.8l27.5-56.9 2.1 56.9z"/><path class="st5" d="M-512.9 488.8l-27.4-56.9v56.9z"/><circle class="st2" cx="-590.1" cy="472.5" r="1.6"/><path class="st6" d="M-589.1 477.2h10.5v11.5h-10.5z"/><path class="st2" d="M-589.1 484.5h10.5v4.3h-10.5z"/><path class="st7" d="M-588.5 472.5l-.1 6.3h10c0-3.5-4.4-6.3-9.9-6.3z"/><path class="st2" d="M-578.6 475.7c.4 0 .8.4.8.8v1.6c0 .4-.4.8-.8.8h-10.5c-.4 0-.8-.4-.8-.8v-1.6c0-.4.4-.8.8-.8h10.5z"/><path class="st4" d="M-545.3 488.8l23-47.8 3 47.8z"/><path class="st5" d="M-499.2 488.8l-23.1-47.8v47.8z"/><path class="st4" d="M-587.4 488.8l27.5-56.9 2.3 56.9z"/><path class="st5" d="M-532.5 488.8l-27.4-56.9v56.9z"/><path class="st4" d="M-641.7 488.8l27.2-56.3 1 56.3z"/><path class="st5" d="M-587.4 488.8l-27.1-56.3v56.3z"/><g class="st8"><path class="st9" d="M-647.1 488.8c0-58.8 47.7-106.4 106.4-106.4s106.4 47.7 106.4 106.4h-212.8z"/></g><path class="st10" d="M-440.3 452.9H-459c-3.7-12.7-9.3-24.3-16.4-34.3h14.2v-1.1h-14.9c-15.9-21.7-38.9-35.3-64.4-35.3s-48.5 13.6-64.4 35.3H-620v1.1h14.2c-7.1 10-12.7 21.6-16.4 34.3H-641v1.1h18.5c-3.1 10.9-4.8 22.6-4.8 34.8h1.1c0-12.2 1.7-23.9 4.8-34.8h20.1c-2.3 10.9-3.5 22.6-3.5 34.8h1.1c0-12.2 1.2-23.9 3.5-34.8h21.4c-1.4 10.9-2.2 22.6-2.2 34.8h1c0-12.2.8-23.9 2.2-34.8h23.6c-.5 11.3-.8 23.1-.8 34.8h1.1c0-12.5.3-24.1.8-34.8h25.1c.5 10.7.8 22.3.8 34.8h1.1c0-11.7-.3-23.5-.8-34.8h23.6c1.4 10.9 2.2 22.6 2.2 34.8h1.1c0-12.2-.8-23.9-2.2-34.8h21.2c2.3 10.9 3.5 22.6 3.5 34.8h1.1c0-12.2-1.2-23.9-3.5-34.8h20.1c3.1 10.9 4.8 22.6 4.8 34.8h1.1c0-12.2-1.7-23.9-4.8-34.8h18.5v-1.1h-.1zm-37.2-35.3h-15.4c-8.9-16.4-20.8-28.2-34.3-33 19.5 3.9 36.9 15.8 49.7 33zm-65.4-34.1c-3.5 3.9-6.4 16.7-8.5 34.1h-18.3c6.7-19.6 16.2-32.4 26.8-34.1zm-27.8 34.1h-16.5c10-18.2 23.8-30.5 39.2-33.5-8.9 4.3-16.9 16.4-22.7 33.5zm30.1-34.2c3.5 0 7.1 12.6 9.7 34.3h-19.4c2.5-21.8 6.2-34.3 9.7-34.3zm2.3.1c10.6 1.6 20 14.4 26.8 34.1h-18.3c-2.1-17.4-5-30.2-8.5-34.1zm5 .6c15.5 3 29.2 15.3 39.2 33.5h-16.5c-5.8-17.1-13.7-29.2-22.7-33.5zm-20.8.6c-13.5 4.8-25.4 16.6-34.3 33h-15.4c12.8-17.3 30.2-29.2 49.7-33zm-67.1 68.2c3.8-12.7 9.4-24.3 16.6-34.3h15.6c-5.3 10-9.4 21.6-12.2 34.3h-20zm21.1 0c2.8-12.7 7-24.3 12.3-34.3h16.7c-3.3 10-5.9 21.6-7.7 34.3h-21.3zm22.4 0c1.7-12.7 4.3-24.3 7.7-34.2h18.5c-1.2 10.2-2.1 21.9-2.6 34.3l-23.6-.1zm24.6 0c.6-13 1.5-24.5 2.7-34.3h19.7c1.1 9.7 2.1 21.3 2.7 34.3h-25.1zm26 0c-.6-12.4-1.5-24.1-2.6-34.3h18.5c3.3 9.9 5.9 21.5 7.7 34.3h-23.6zm24.6 0c-1.7-12.7-4.4-24.3-7.7-34.3h16.7c5.3 9.9 9.5 21.5 12.3 34.3h-21.3zm22.4 0c-2.7-12.7-6.9-24.3-12.2-34.3h15.6c7.2 9.9 12.9 21.5 16.6 34.3h-20z"/><path class="st7" d="M-651.1 488.8h220.9v19.6h-220.9z"/><g class="st3"><path d="M-651.1 494.8h220.9v1.1h-220.9zm0 6.5h220.9v1.1h-220.9z"/><path d="M-638.6 488.8h1.1v6.5h-1.1zm13 0h1.1v6.5h-1.1zm13 0h1.1v6.5h-1.1zm13 0h1.1v6.5h-1.1zm13 0h1.1v6.5h-1.1zm12.9 0h1.1v6.5h-1.1zm13 0h1.1v6.5h-1.1zm13 0h1.1v6.5h-1.1zm13 0h1.1v6.5h-1.1zm13 0h1.1v6.5h-1.1zm13 0h1.1v6.5h-1.1zm13 0h1.1v6.5h-1.1zm13 0h1.1v6.5h-1.1zm13 0h1.1v6.5h-1.1zm13 0h1.1v6.5h-1.1zm13 0h1.1v6.5h-1.1zm-194.9 13h1.1v6.5h-1.1zm13 0h1.1v6.5h-1.1zm13 0h1.1v6.5h-1.1zm13 0h1.1v6.5h-1.1zm13 0h1.1v6.5h-1.1zm12.9 0h1.1v6.5h-1.1zm13 0h1.1v6.5h-1.1zm13 0h1.1v6.5h-1.1zm13 0h1.1v6.5h-1.1zm13 0h1.1v6.5h-1.1zm13 0h1.1v6.5h-1.1zm13 0h1.1v6.5h-1.1zm13 0h1.1v6.5h-1.1zm13 0h1.1v6.5h-1.1zm13 0h1.1v6.5h-1.1zm13 0h1.1v6.5h-1.1zm-201.4-6.5h1.1v6.5h-1.1zm13 0h1.1v6.5h-1.1zm13 0h1.1v6.5h-1.1zm13 0h1.1v6.5h-1.1zm13 0h1.1v6.5h-1.1zm13 0h1.1v6.5h-1.1zm12.9 0h1.1v6.5h-1.1zm13 0h1.1v6.5h-1.1zm13 0h1.1v6.5h-1.1zm13 0h1.1v6.5h-1.1zm13 0h1.1v6.5h-1.1zm13 0h1.1v6.5h-1.1zm13 0h1.1v6.5h-1.1zm13 0h1.1v6.5h-1.1zm13 0h1.1v6.5h-1.1zm13 0h1.1v6.5h-1.1zm13 0h1.1v6.5h-1.1z"/></g><path class="st3 st11" d="M-535.2 474.4c7.9 0 14.3 6.4 14.3 14.3v9.1h-28.7v-9.1c.1-7.9 6.5-14.3 14.4-14.3m0-10.5c-13.7 0-24.9 11.2-24.9 24.9v19.6h49.7v-19.6c.1-13.8-11.1-24.9-24.8-24.9z"/><path class="st12" d="M-560.2 503.1v-14.3c0-10.8 8.8-19.6 19.6-19.6s19.6 8.8 19.6 19.6v14.3h-39.2z"/><path class="st13" d="M-540.6 474.4c7.9 0 14.3 6.4 14.3 14.3v9.1H-555v-9.1c0-7.9 6.4-14.3 14.4-14.3m0-10.5c-13.7 0-24.9 11.2-24.9 24.9v19.6h49.7v-19.6c0-13.8-11.1-24.9-24.8-24.9z"/><path class="st14" d="M-540.6 474.4c-7.9 0-14.3 6.4-14.3 14.3v19.6h28.7v-19.6c-.1-7.9-6.5-14.3-14.4-14.3z"/><path d="M-538.2 474.6c-.8-.1-1.6-.2-2.5-.2-7.9 0-14.3 6.4-14.3 14.3v19.6h4.9v-19.6c0-7 5.2-12.9 11.9-14.1z" class="st15"/><path class="st12" d="M-541.2 463.9h1.1v10.5h-1.1zm-24.3 24.3h10.5v1.1h-10.5zm0 14.3h10.5v1.1h-10.5zm0-7.1h10.5v1.1h-10.5zm39.2-7.2h10.5v1.1h-10.5zm-.842-4.437l-.42-1.016 9.7-4.02.42 1.015zm-7.502-8.063l-1.016-.422 4.02-9.7 1.016.422zm-12.003-.015l-4.017-9.7 1.016-.422 4.018 9.7zm-7.428 8.085l-9.7-4.02.42-1.015 9.7 4.018zm27.775 18.73h10.5v1.1h-10.5zm0-7.1h10.5v1.1h-10.5zm-24.898-16.435l-7.424-7.425.778-.778 7.424 7.426zm21.138.052l-.778-.777 7.424-7.425.778.778z"/><path class="st10" d="M-541.2 474.4h1.1v33.9h-1.1zm-7.4 2.2h1.1v31.7h-1.1zm14.9-.1h1.1v31.8h-1.1z"/><circle cx="-532.2" cy="494.9" r="2.5" class="st15"/><circle class="st16" cx="-533.2" cy="493.8" r="2.5"/><path d="M-540.6 382.3c41.8 0 75.7 47.7 75.7 106.4v19.6h34.7v-19.6h-4c0-58.7-47.7-106.4-106.4-106.4z" class="st15"/><path class="st2" d="M-391.8 411.1c0 23.6-16.5 42.7-40.1 42.7s-42.7-19.1-42.7-42.7 19-42.8 42.6-42.8 40.2 19.2 40.2 42.8z"/><path class="st8 st9" d="M-474.1 390.4c-3.4 6.1-5.3 13.2-5.3 20.7 0 23.6 19.1 42.7 42.7 42.7 3.9 0 7.6-.5 11.2-1.5-8.5-25.8-25.9-47.7-48.6-61.9z"/><defs><path id="SVGID_1_" d="M-474.1 390.4c-3.4 6.1-5.3 13.2-5.3 20.7 0 23.6 19.1 42.7 42.7 42.7 3.9 0 7.6-.5 11.2-1.5-8.5-25.8-25.9-47.7-48.6-61.9z"/></defs><clipPath id="SVGID_2_"><use xlink:href="#SVGID_1_" overflow="visible"/></clipPath><g class="st17"><path class="st4" d="M-523.9 476.3l42.3-87.6v87.6z"/><path class="st5" d="M-439.3 476.3l-42.3-87.6v87.6z"/></g><defs><path id="SVGID_3_" d="M-474.1 390.4c-3.4 6.1-5.3 13.2-5.3 20.7 0 23.6 19.1 42.7 42.7 42.7 3.9 0 7.6-.5 11.2-1.5-8.5-25.8-25.9-47.7-48.6-61.9z"/></defs><clipPath id="SVGID_4_"><use xlink:href="#SVGID_3_" overflow="visible"/></clipPath><g class="st18"><g class="st19"><path class="st2" d="M-486.2 387.9c-4.2 5.6-7 12.4-8 19.8-3.1 23.4 13.5 44.9 36.9 47.9 3.8.5 7.6.5 11.3 0-5.1-26.8-19.6-50.7-40.2-67.7z"/><path d="M-451.8 457.4c-1.9 0-3.8-.1-5.7-.4-11.7-1.5-22.1-7.5-29.3-16.9-7.2-9.4-10.3-21-8.8-32.7 1-7.4 3.8-14.5 8.2-20.5l.9-1.3 1.2 1c21.1 17.4 35.6 41.8 40.7 68.6l.3 1.6-1.6.2c-1.9.3-3.9.4-5.9.4zm-34.1-67.3c-3.6 5.3-5.9 11.4-6.8 17.8-1.4 10.9 1.5 21.7 8.2 30.5 6.7 8.7 16.4 14.3 27.4 15.7 3.1.4 6.2.5 9.3.2-5.2-25-18.6-47.7-38.1-64.2z"/></g><path d="M-484.3 416.1h45.4v3h-45.4z" class="st19"/></g><g class="st8"><circle class="st9" cx="-436.7" cy="411.1" r="42.7"/></g><g class="st8"><circle class="st9" cx="-436.7" cy="411.1" r="42.7"/></g><g class="st8"><path class="st2" d="M-465.1 400.7c7.2-8.6 14.3-14.3 24.1-18.3-1.9-2.7-3.3-3.7-7.3-5.4-9.1 5-16.6 12.6-21.4 21.8l4.6 1.9z"/></g><path class="st13" d="M-436.7 457.9c-25.8 0-46.9-21-46.9-46.9s21.1-46.8 46.9-46.8c25.8 0 46.9 21 46.9 46.9s-21 46.8-46.9 46.8zm0-85.4c-21.3 0-38.6 17.3-38.6 38.6s17.3 38.6 38.6 38.6 38.6-17.3 38.6-38.6-17.3-38.6-38.6-38.6z"/><path class="st13" d="M-440.8 453.8h8.3V468h-8.3z"/><path class="st12" d="M-444.9 468h16.5v40.3h-16.5z"/><path class="st2" d="M-643 509.7c0-3.6 2.9-6.5 6.5-6.5s6.5 2.9 6.5 6.5"/><path class="st2" d="M-632.6 509.7c0-2.5 2-4.5 4.5-4.5s4.5 2 4.5 4.5m2.6 0c0-2.5 2-4.5 4.5-4.5s4.5 2 4.5 4.5m139.3 0c0-4 3.3-7.3 7.3-7.3s7.3 3.3 7.3 7.3"/><path class="st2" d="M-479.3 509.7c0-2.8 2.3-5.1 5.1-5.1s5.1 2.3 5.1 5.1m5.9 0c0-2.8 2.3-5.1 5.1-5.1s5.1 2.3 5.1 5.1"/></g></svg>