<svg id="slice" xmlns="http://www.w3.org/2000/svg" xmlns:xlink="http://www.w3.org/1999/xlink" width="403.3" height="280" viewBox="0 0 403.3 280"><style>.st0{opacity:.11;fill:#231f20}.st1{fill:#94917f}.st2{fill:#baafa2}.st3{fill:#785768}.st4{fill:#aaa89a}.st5{opacity:.1}.st6{fill:#8ce1f9}.st7{fill:#ceccbf}.st8{fill:#8d667a}.st9{fill:#918c84}.st10{fill:#c2beb6}.st11{fill:#f0e1d1}.st12{fill:#b6b4a8}.st13{fill:#94938a}.st14{fill:#7d7c71}.st15{fill:#633b4f}.st16{fill:#85837d}.st17{fill:#8a7665}.st18{fill:#6a695c}.st19{fill:#b9b7a4}.st20{fill:#2f9f42}.st21{opacity:.13}.st22{opacity:.2;fill:#231f20}.st23{fill:#d53e2e}.st24{fill:#003673}.st25{fill:#f09a1a}.st26{fill:#fdbf0f}.st27{fill:#736357}.st28{fill:#d84637}.st29{fill:#00a9e9}.st30{fill:#ffde00}.st31{fill:#48b780}.st32{fill:#7c6959}.st33{fill:#d3ae6e}.st34{fill:#FFF}.st35{fill:#ffe95a}.st36{fill:#ffc300}.st37{fill:#f27b20}.st38{fill:#ee3837}.st39{fill:#4c8bfb}.st40{fill:#b757c5}.st41{fill:#ffdf8a}.st42{fill:#333}.st43{fill:#6a57ab}.st44{fill:#5d377a}.st45{fill:#393939}.st46{fill:#fde08b}.st47{fill:#dc3126}.st48{fill:#fdd500}.st49{fill:#515c5d}.st50{fill:#7d8586}.st51{fill:#afd136}.st52{fill:url(#SVGID_1_)}.st53{fill:url(#SVGID_2_)}.st54{fill:#e8d184}.st55{fill:#ca7836}.st56{fill:#54d184}.st57{opacity:.48}.st58{opacity:.5;fill:#75cef4}.st59{opacity:.5;fill:#00bff0}.st60{opacity:.5;fill:#e6f6fd}.st61{opacity:.48;fill:#75cef4}.st62{fill:url(#SVGID_3_)}.st63{fill:gray}.st64{fill:#8f4293}.st65{fill:#ffd400}.st66{fill:url(#SVGID_4_)}.st67{fill:#28ae4b}.st68{fill:#e64436}.st69{fill:url(#SVGID_5_)}.st70{fill:url(#XMLID_113_)}.st71{opacity:.17;fill:#FFF}.st72{fill:url(#SVGID_6_)}.st73{fill:url(#SVGID_7_)}.st74{fill:#00b2ee}.st75{fill:#b89860}.st76{fill:#b0b0b0}.st77{fill:#864537}.st78{fill:#fbcf99}.st79{fill:#fbcd48}.st80{fill:#FD0}.st81{fill:#d2392c}.st82{fill:url(#SVGID_8_)}.st83{fill:url(#SVGID_9_)}.st84{fill:url(#SVGID_10_)}.st85{fill:url(#SVGID_11_)}.st86{fill:url(#XMLID_213_)}.st87{fill:#afd77d}.st88{opacity:.1;fill:#231f20}.st89{fill:#7cb342}.st90{fill:#f9ce1d}.st91{fill:#ffe36c}.st92{fill:#5e35b1}.st93{fill:#9575cd}.st94{fill:#29b6f6}.st95{fill:#4ad0ff}.st96{fill:#9dce2e}.st97{fill:#e53935}.st98{fill:#f94b4b}.st99{fill:#fb8c00}.st100{fill:#fc9f42}.st101{fill:#9dca3b}.st102{fill:#66a622}.st103{fill:#ffb300}.st104{fill:#f57c00}.st105{fill:#a1cacf}.st106{fill:#dff3f5}.st107{fill:#bad7db}.st108{fill:#c3dfe3}.st109{fill:#bcdee3}.st110{opacity:.5}.st111{opacity:.8}.st112{fill:url(#XMLID_215_)}.st113{fill:url(#SVGID_12_)}.st114{fill:#f6f3ec}.st115{fill:#d7d7d7}.st116{fill:#959d9e}.st117{fill:#b3b3b3}.st118{fill:#e0e0e0}.st119{fill:#4d4d4d}.st120{fill:#595959}.st121{fill:#ffeb5e}.st122{fill:#6d7576}.st123{fill:#c9e09d}.st124{fill:#8f8f8f}.st125{fill:#5c6566}.st126{fill:#a19e97}.st127{fill:#61c6ec}.st128{fill:#77bf82}.st129{fill:#f3ff73}.st130{fill:url(#XMLID_218_)}.st131{fill:url(#SVGID_13_)}.st132{fill:url(#SVGID_14_)}.st133{fill:url(#XMLID_221_)}.st134{fill:#555047}.st135{fill:#896339}.st136{fill:#736f68}.st137{fill:#949494}.st138{fill:#83dee8}.st139{fill:#85827d}.st140{opacity:.2}.st141{fill:#404040}.st142{fill:silver}.st143{fill:#EEE}.st144{fill:#44c2c2}.st144,.st145{clip-path:url(#SVGID_16_)}.st145{fill:#a3d89f}.st146{fill:#c83a74}.st146,.st147{clip-path:url(#SVGID_16_)}.st147{fill:#ffa376}.st148{opacity:.24}.st149{opacity:.48;fill:#85827d}.st150{opacity:.48;fill:none;stroke:#85827d;stroke-width:.9;stroke-miterlimit:10}.st151{opacity:.83;fill:#85827d}.st152{fill:#888480}.st153{fill:#7099ba}.st154{fill:#b0e1e8}.st155{opacity:.22;fill:#FFF}.st156{fill:url(#XMLID_230_)}.st157{fill:url(#SVGID_17_)}.st158{fill:url(#SVGID_18_)}.st159{fill:url(#XMLID_231_)}.st160{fill:#9db9bd}.st161{fill:#d1e3e6}.st162{fill:#b6d6db}.st163{fill:#9ccfd9}.st164{fill:#b4d3d9}.st165{fill:#97babf}.st166{fill:#c1dff5}.st167{fill:#c5e7eb}.st168{fill:#8ab8d4}.st169{fill:#e6e6e6}.st170{fill:#716e69}.st171{fill:#71bdde}.st172{fill:#659bc7}.st173{fill:#70afd4}.st174{fill:none}.st175{fill:#97cee6}.st176{opacity:8e-2;fill:#0f0f0f}.st177{opacity:.1;fill:#0f0f0f}.st178{fill:#385fe4}.st179{fill:#CCC}.st180{fill:#2986e4}.st181{opacity:.21}.st182{clip-path:url(#SVGID_20_)}.st183{filter:url(#Adobe_OpacityMaskFilter)}.st184{mask:url(#SVGID_21_);fill:#33659a}.st185{filter:url(#Adobe_OpacityMaskFilter_1_)}.st186{mask:url(#SVGID_22_);fill:#385fe4}.st187{filter:url(#Adobe_OpacityMaskFilter_2_)}.st188{opacity:.17;mask:url(#SVGID_23_)}.st189{clip-path:url(#SVGID_25_)}.st190{opacity:.77}.st191{fill:#e8c97b}.st192{fill:#2d56e2}.st193{opacity:.11}.st194{fill:#0bbf68}.st195{fill:#98bee4}.st196{fill:#3f5656}.st197{fill:#d7c17d}.st198{opacity:.2;fill:#FFF}.st199{fill:url(#SVGID_26_)}.st200{fill:url(#XMLID_342_)}.st201{fill:url(#SVGID_27_)}.st202{fill:url(#XMLID_352_)}.st203{fill:#9c9c9c}.st204{fill:#808082}.st205{fill:#9ed5ec}.st206{fill:#cacaca}.st207{fill:#e3e3e3}.st208{fill:#979797}.st209{fill:#9e9e9e}.st210{opacity:.58;fill:#c7ffff}.st211{opacity:.25}.st212{fill:#a52e22}.st213{fill:#e63636}.st214{fill:url(#XMLID_360_)}.st215{fill:url(#XMLID_362_)}.st216{fill:#969696}.st217{fill:#0158bb}.st218{fill:#1565c0}.st219{fill:#3dd1f9}.st220{fill:#f5a816}.st221{fill:#c62828}.st222{fill:#bdbdbd}.st223{fill:#a5a5a5}.st224{fill:#424242}.st225{fill:#e6e7e8}.st226{clip-path:url(#SVGID_31_);fill:#FFF}.st227{fill:#e91c24}.st227,.st228{clip-path:url(#SVGID_31_)}.st228{fill:#1976d2}.st229{fill:#4d8acf}.st230{fill:none;stroke:#FFF;stroke-width:.9;stroke-miterlimit:10}.st231{fill:#00adee}.st232{clip-path:url(#SVGID_33_);fill:#FFF}.st233{fill:#dbdbdb}.st234{fill:url(#SVGID_34_)}.st235{fill:url(#SVGID_35_)}.st236{fill:url(#SVGID_36_)}.st237{fill:url(#SVGID_37_)}.st238{fill:url(#SVGID_38_)}.st239{fill:url(#SVGID_39_)}.st240{fill:url(#SVGID_40_)}.st241{fill:url(#SVGID_41_)}.st242{fill:#f7ce97}.st243{fill:#4c4c4c}.st244{fill:#e9e9e9}.st245{fill:#eb9b95}.st246{fill:#656565}.st247{fill:#5e5a48}.st248{fill:url(#SVGID_42_)}.st249{fill:url(#SVGID_43_)}.st250{fill:#999}.st251{opacity:.36;fill:#00a64c}.st252{fill:#d4d4d4}.st252,.st253{fill-rule:evenodd;clip-rule:evenodd}.st253{fill:#FFF}.st254{fill:#008141}.st254,.st255{fill-rule:evenodd;clip-rule:evenodd}.st255{fill:#00a64c}.st256{fill:#28b265}.st257{opacity:.4;fill:#ffe000}.st258{fill:#c8cbcc}.st259{fill:#b8b8b8}.st260{fill:#949496}.st261{fill:#c8ead4}.st262{fill:#7d8485}.st263{fill:#2364d5}.st264{fill:url(#XMLID_368_)}.st265{fill:url(#SVGID_44_)}.st266{fill:url(#SVGID_45_)}.st267{fill:url(#SVGID_46_)}.st268{fill:#8700ee}.st269{fill:#00b533}.st270{fill:#eeda00}.st271{fill:#f2206d}.st272{fill:#6299fb}.st273{opacity:.7;fill:url(#SVGID_47_)}.st274{opacity:.7;fill:url(#SVGID_48_)}.st275{opacity:.7;fill:url(#SVGID_49_)}.st276{fill:#ee5e5d}.st277{fill:#e09d17}.st278{fill:#f0ede9}.st279{clip-path:url(#SVGID_51_)}.st280{fill:#eec85c}.st281{opacity:.32;fill:#9a0000}.st282{fill:#f0f0f0}.st283{fill:#81d4fa}.st284{opacity:.49;fill:#c9edfc}.st285{fill:#d8746a}.st286{fill:#fcbe8d}.st287{fill:#00a9e7}.st288{fill:#6a7173}.st289{opacity:.6}.st290{fill:url(#SVGID_52_)}.st291{fill:url(#SVGID_53_)}.st292{fill:url(#XMLID_388_)}.st293{fill:url(#SVGID_54_)}.st294{fill:url(#SVGID_55_)}.st295{fill:url(#SVGID_56_)}.st296{fill:url(#SVGID_57_)}.st297{fill:#67635d}.st298{fill:#999690}.st299{fill:#e6da91}.st300{opacity:.55;fill:#bbaf3e}.st301{fill:#a8a69b}.st302{clip-path:url(#SVGID_59_)}.st303{fill:url(#SVGID_60_)}.st304{fill:url(#SVGID_61_)}.st305{opacity:.1;clip-path:url(#SVGID_59_)}.st306{clip-path:url(#SVGID_63_)}.st307{fill:#e3e3e2}.st308{fill:#cf4140}.st309{fill:url(#SVGID_64_)}.st310{fill:url(#SVGID_65_)}.st311{fill:url(#SVGID_66_)}.st312{fill:url(#SVGID_67_)}.st313{fill:#666}.st314{fill:#c1161c}.st315{fill:#b47945}.st316{fill:#d9dadb}.st317{fill:#36af49}.st318{fill:#2a943e}.st319{fill:#9ea0a2}.st320{fill:#bebfc1}.st321{fill:#f5961d}.st322{fill:#ffef00}.st323{fill:#6d6d6d}.st324{fill:url(#SVGID_68_)}.st325{fill:url(#XMLID_391_)}.st326{fill:#795d00}.st327{fill:#bb8024}.st327,.st328{clip-path:url(#SVGID_70_)}.st328{opacity:.1}.st329{fill:#955d00}.st330{fill:#f38836}.st331{fill:url(#XMLID_392_)}.st332{fill:url(#SVGID_71_)}.st333{fill:url(#SVGID_72_)}.st334{fill:url(#XMLID_393_)}.st335{opacity:.99}.st336{fill:#e8af38}.st337{fill:#98ab00}.st338{fill:#e75c52}.st339{fill:#a9897d}.st340{fill:#cb9d7b}.st341{fill:#996b63}.st342{fill:#35b8e8}.st343{opacity:.12;fill:url(#SVGID_73_)}.st344{opacity:.12;fill:url(#SVGID_74_)}.st345{opacity:.28;fill:url(#SVGID_77_)}.st346{opacity:.2;clip-path:url(#SVGID_81_)}.st347{fill:#fff59c}.st348{fill:#ebdbce}.st349{fill:#b07a53}.st350{fill:#1185ba}.st351{fill:#1f57a1}.st351,.st352{opacity:.32}.st353{fill:#c28d65}.st354{fill:#eb776f}.st355{fill:#afdb39}.st356{fill:#ebdb57}.st357{opacity:.16}.st358{fill:#cba483}.st359{fill:url(#XMLID_394_)}.st360{fill:url(#SVGID_82_)}.st361{fill:url(#SVGID_83_)}.st362{fill:#bee6eb}.st363{fill:#f9df00}.st364{fill:#d84733}.st365{fill:#fce000}.st366{fill:#575757}.st367{fill:#b3b2b3}.st368{fill:#e5e5e4}.st369{fill:#d5302b}.st370{fill:url(#SVGID_84_)}.st371{fill:url(#SVGID_85_)}.st372{fill:#ec4180}.st373{fill:#fbcb54}.st374{fill:#7296f0}.st375{fill:#fc793d}.st376{opacity:.14}.st377{fill:#404144}.st378{fill:#606163}.st379{opacity:.3}.st380,.st381{fill:#d7b256}.st381{opacity:.38}.st382{fill:#3d3d39}.st383{fill:#393b36}.st384{opacity:.6;fill:#3bff65}.st385{opacity:.6;fill:#fc793d}.st386{clip-path:url(#SVGID_87_)}.st387{opacity:.29}.st388{fill:#9a51a8}.st389{fill:#fef6e0}.st390{fill:#a06ea9}.st391{fill:#353535}.st392{clip-path:url(#SVGID_89_);fill:#FFF}.st393{opacity:.23;fill:#FFF}.st394{opacity:.13;fill:#FFF}.st395{opacity:5e-2}.st396{opacity:.45}.st397{opacity:.2}.st397,.st398{fill:#fff170}.st399{opacity:.21;fill:#FFF}.st400{opacity:.1;fill:#FFF}.st401{opacity:.27;fill:url(#SVGID_90_)}.st402{opacity:.27;fill:url(#SVGID_91_)}.st403{fill:url(#SVGID_92_)}.st404{fill:url(#SVGID_93_)}.st405{fill:#2850a8}.st406{fill:#286ee4}.st407{fill:#0053df}.st408{fill:#007dd0}.st409{fill:#2891e4}.st410{opacity:.72}.st411{opacity:.28;fill:url(#SVGID_94_)}.st412{opacity:.28;fill:url(#SVGID_95_)}.st413{fill:#2d6b7f}.st414,.st415{fill:#ff7c40}.st415{opacity:.21}.st416{opacity:.28;fill:url(#SVGID_96_)}.st417{opacity:.28;fill:url(#SVGID_97_)}.st418{opacity:.28;fill:url(#SVGID_98_)}.st419{opacity:.28;fill:url(#SVGID_99_)}.st420,.st421{fill:#ffee0a}.st421{opacity:.21}.st422{opacity:.28;fill:url(#SVGID_100_)}.st423{opacity:.28;fill:url(#SVGID_101_)}.st424,.st425{fill:#fd45ff}.st425{opacity:.21}.st426{opacity:.28;fill:url(#SVGID_102_)}.st427{opacity:.28;fill:url(#SVGID_103_)}.st428,.st429{fill:#52ff52}.st429{opacity:.21}.st430{opacity:.28;fill:url(#SVGID_104_)}.st431{opacity:.28;fill:url(#SVGID_105_)}.st432{opacity:.28;fill:url(#SVGID_106_)}.st433{opacity:.28;fill:url(#SVGID_107_)}.st434,.st435{fill:#59fff3}.st435{opacity:.21}.st436{opacity:.28;fill:url(#SVGID_108_)}.st437{opacity:.28;fill:url(#SVGID_109_)}.st438{opacity:.28;fill:url(#SVGID_110_)}.st439{opacity:.28;fill:url(#SVGID_111_)}.st440{opacity:.28;fill:url(#SVGID_112_)}.st441{opacity:.28;fill:url(#SVGID_113_)}.st442{opacity:.28;fill:url(#SVGID_114_)}.st443{opacity:.28;fill:url(#SVGID_115_)}.st444{opacity:.28;fill:url(#SVGID_116_)}.st445{opacity:.28;fill:url(#SVGID_117_)}.st446{opacity:.28;fill:url(#SVGID_118_)}.st447{opacity:.28;fill:url(#SVGID_119_)}.st448{opacity:.28;fill:url(#SVGID_120_)}.st449{opacity:.28;fill:url(#SVGID_121_)}.st450{opacity:.28;fill:url(#SVGID_122_)}.st451{opacity:.28;fill:url(#SVGID_123_)}.st452{opacity:.28;fill:url(#SVGID_124_)}.st453{opacity:.28;fill:url(#SVGID_125_)}.st454{opacity:.28;fill:url(#SVGID_126_)}.st455{opacity:.28;fill:url(#SVGID_127_)}.st456{opacity:.28;fill:url(#SVGID_128_)}.st457{opacity:.28;fill:url(#SVGID_129_)}.st458{opacity:.28;fill:url(#SVGID_130_)}.st459{opacity:.28;fill:url(#SVGID_131_)}.st460{opacity:.28;fill:url(#SVGID_132_)}.st461{opacity:.28;fill:url(#SVGID_133_)}.st462{opacity:.28;fill:url(#SVGID_134_)}.st463{opacity:.28;fill:url(#SVGID_135_)}.st464{opacity:.28;fill:url(#SVGID_136_)}.st465{opacity:.28;fill:url(#SVGID_137_)}.st466{opacity:.28;fill:url(#SVGID_138_)}.st467{opacity:.28;fill:url(#SVGID_139_)}.st468{opacity:.28;fill:url(#SVGID_140_)}.st469{opacity:.28;fill:url(#SVGID_141_)}.st470{opacity:.28;fill:url(#SVGID_142_)}.st471{opacity:.28;fill:url(#SVGID_143_)}.st472{opacity:.28;fill:url(#SVGID_144_)}.st473{opacity:.28;fill:url(#SVGID_145_)}.st474{opacity:.28;fill:url(#SVGID_146_)}.st475{opacity:.28;fill:url(#SVGID_147_)}.st476{opacity:.28;fill:url(#SVGID_148_)}.st477{opacity:.28;fill:url(#SVGID_149_)}.st478{opacity:.28;fill:url(#SVGID_150_)}.st479{opacity:.28;fill:url(#SVGID_151_)}.st480{opacity:.28;fill:url(#SVGID_152_)}.st481{opacity:.28;fill:url(#SVGID_153_)}.st482{opacity:.28;fill:url(#SVGID_154_)}.st483{opacity:.28;fill:url(#SVGID_155_)}.st484{opacity:.28;fill:url(#SVGID_156_)}.st485{opacity:.28;fill:url(#SVGID_157_)}.st486{opacity:.28;fill:url(#SVGID_158_)}.st487{opacity:.28;fill:url(#SVGID_159_)}.st488{opacity:.28;fill:url(#SVGID_160_)}.st489{opacity:.28;fill:url(#SVGID_161_)}.st490{opacity:.28;fill:url(#SVGID_162_)}.st491{opacity:.28;fill:url(#SVGID_163_)}.st492{opacity:.28;fill:url(#SVGID_164_)}.st493{opacity:.28;fill:url(#SVGID_165_)}.st494{opacity:.28;fill:url(#SVGID_166_)}.st495{opacity:.28;fill:url(#SVGID_167_)}.st496{opacity:.28;fill:url(#SVGID_168_)}.st497{opacity:.28;fill:url(#SVGID_169_)}.st498{opacity:.28;fill:url(#SVGID_170_)}.st499{opacity:.28;fill:url(#SVGID_171_)}.st500{opacity:.28;fill:url(#SVGID_172_)}.st501{opacity:.28;fill:url(#SVGID_173_)}.st502{fill:#898f90}.st503{opacity:.25;fill:#FFF}.st504{fill:#00b8f0}.st505{fill:#00a7f0}.st506{opacity:.91;fill:url(#SVGID_174_)}.st507{opacity:.12;fill:#ffee0a}.st508{opacity:.62}.st509{fill:url(#SVGID_175_)}.st510{fill:url(#SVGID_176_)}.st511{fill:url(#SVGID_177_)}.st512{fill:url(#SVGID_178_)}.st513{fill:#7d857e}.st514{fill:#89908a}.st515{opacity:.91;fill:url(#SVGID_179_)}.st516{opacity:.12}.st516,.st517{fill:#78ff5e}.st518{fill:url(#SVGID_180_)}.st519{fill:url(#SVGID_181_)}.st520{fill:url(#SVGID_182_)}.st521{fill:url(#SVGID_183_)}.st522{fill:#85847d}.st523{fill:#908f89}.st524{opacity:.91;fill:url(#SVGID_184_)}.st525{opacity:.12;fill:#ff5e91}.st526{fill:#ff8373}.st527{fill:url(#SVGID_185_)}.st528{fill:url(#SVGID_186_)}.st529{fill:url(#SVGID_187_)}.st530{fill:url(#SVGID_188_)}.st531{fill:#5d6667}.st532{fill:url(#XMLID_395_)}.st533{fill:url(#XMLID_401_)}.st534{fill:url(#SVGID_189_)}.st535{fill:#b13837}.st536{fill:#3b627a}.st537{fill:url(#SVGID_190_)}.st538{fill:url(#XMLID_405_)}.st539{fill:url(#SVGID_191_)}.st540{fill:#754517}.st541{fill:#845930}.st542{fill:#a35f25}.st543{fill:#aa6c37}.st544{fill:#b07644}.st545{fill:#efdbc1}.st546{fill:#ffc805}.st547{fill:#231f20}.st548{fill:#00a351}.st549{fill:#084}.st550{fill:#ef6522}.st551{fill:#7a4b1f}.st552{fill:#32cbe6}.st553{fill:url(#SVGID_192_)}.st554{opacity:.1;fill:#005fd0}.st555{fill:#e6e5e1}.st556{fill:#7b9eb8}.st557{fill:#a5b3ad}.st558{fill:#c7c7c7}.st559{fill:url(#XMLID_412_)}.st560{fill:url(#SVGID_193_)}.st561{fill:url(#SVGID_194_)}.st562{fill:#388e3c}.st563{fill:#2e7d32}.st564{fill:#ffe18c}.st565{opacity:.25;fill:#29b6f6}.st566{fill:#414042}.st567{fill:#2f4c52}.st568{fill:#455d82}.st569{fill:#795548}.st570{fill:#d3d4d6}.st571{fill:#bcbec0}.st572{clip-path:url(#SVGID_196_)}.st573{fill:url(#SVGID_197_)}.st574{fill:url(#SVGID_198_)}.st575{clip-path:url(#SVGID_200_)}.st576{opacity:.5;fill:#f9ce1d}.st577{opacity:.28}.st578{fill:#d7d8d9}.st579{fill:#ebeced}.st580{fill:#ffd600}.st581{fill:#039be5}.st582{fill:url(#XMLID_418_)}.st583{fill:url(#SVGID_201_)}.st584{fill:#34d4f0}.st585{fill:#74e4f6}.st585,.st586{opacity:.51}.st587{fill:#74e4f6}.st588{fill:url(#XMLID_420_)}.st589{fill:#434fbf}.st590{opacity:.51}.st590,.st591{fill:#7182f0}.st592{opacity:.36}.st593{opacity:.38}.st594{opacity:.39;fill:#ffff5c}.st595{opacity:.58;fill:#FFF}.st596{opacity:.19;fill:#73c1de}.st597{opacity:.19;fill:#7335de}.st598{fill:#f5f2e2}.st599{fill:#a3a2a1}.st600{fill:#5a99d1}.st601{fill:#b8a485}.st602{fill:#eee5d5}.st603{fill:#FFC}.st604{fill:#ffd200}.st605{fill:#f26e21}.st606{fill:#f5871f}.st607{fill:#cfcfcf}.st608{fill:#019049}.st609{fill:#07a860}.st610{fill:#ab00ee}.st611{fill:#93d8f7}.st612{fill:#725d4c}.st613{fill:#028f1f}.st614{fill:#0da760}.st615{fill:#f4c138}.st616{fill:#f9646d}</style><g id="New_Symbol_97"><path class="st547" d="M75.1 179h228.8v52.6H75.1z"/><defs><path id="SVGID_199_" d="M75.1 179h228.8v52.6H75.1z"/></defs><clipPath id="SVGID_1_"><use xlink:href="#SVGID_199_" overflow="visible"/></clipPath><g clip-path="url(#SVGID_1_)"><path class="st34" d="M303.8 210.3v9.9l-9.5 11.7H74.6l.5-.3v-28.9l11.2-2.7 28.5-6.9 58-14 40.5 9.7 11.8 2.8 1.3.3 23.2 5.6 7.7 1.9 31.6 7.5 14.9 3.4z"/><path class="st576" d="M172.8 179l-7.3 9.9-5.2 7.1-.2.2-13 17.5-13.3 18.1H74.6l.5-.3v-12.2l26.1-10.8 6.3-2.6 21.1-8.7h.1l11.9-4.9 4.4-1.8 10.8-4.5 17-7z"/><path class="st576" d="M172.8 179l-13.3 7.2-10.1 5.4-11.7 6.3-23.7 12.7-38.9 21v-28.9l11.2-2.8 28.5-6.9zM172.8 179l-4.1 13.7-1.2 4-10.7 35.1h-34.7l18.8-19.5 15.2-15.9 2.1-2.1 6-6.3zM223.6 231.8h-34.8l-7-23.2-3-9.7-6-19.9 22.8 23.7.1.1 3.3 3.4 6.1 6.4z"/><path class="st576" d="M303.8 210.3v12.9l-5.2 8.7h-43.9l-28.8-18.6-14.9-9.6-3.9-2.5-8.3-5.4-26-16.8 40.5 9.7 11.8 2.8 1.3.3 23.2 5.6 7.7 1.9 31.6 7.5 14.9 3.5z"/><path class="st576" d="M271.1 231.8h-64.3l-14.9-23.1-5-7.8-14.1-21.9 28.1 15.1 9.2 4.9 6.6 3.6 15.5 8.3zM191.9 231.8h-41.5l8.7-20.5 4.3-10.2 2-4.6 2.3-5.3 5.1-12.2 7.3 20.2 3.6 9.8z"/><path class="st34" d="M208.7 214.9c-.7-.1-1.1-.8-1-1.5.1-.7.8-1.1 1.5-1 .7.1 1.1.8 1 1.5-.1.6-.7 1-1.2 1-.1.1-.2.1-.3 0zm-68.1-1.3c-.6-.3-.8-1.1-.5-1.7.4-.6 1.1-.8 1.7-.5.6.3.8 1.1.4 1.7-.2.4-.6.6-1.1.6-.1 0-.3 0-.5-.1zm127.9-1.9c-.6-.3-.8-1.1-.5-1.7.4-.6 1.1-.8 1.7-.5.6.4.8 1.1.5 1.7-.2.4-.7.6-1.1.6-.2.1-.4 0-.6-.1zm-85.9-1.6c-.7-.2-1.1-.8-1-1.5.1-.7.8-1.1 1.5-1 .7.2 1.1.8 1 1.5-.1.6-.7 1-1.2 1-.1.1-.2.1-.3 0zm-79.2-1.6c-.1-.7.4-1.3 1-1.4.7-.1 1.3.3 1.4 1 .1.7-.4 1.3-1 1.4h-.2c-.6 0-1.1-.4-1.2-1zm135-1.3c-.4-.5-.3-1.3.2-1.8.5-.4 1.3-.3 1.8.2.4.6.3 1.3-.2 1.8-.2.2-.5.3-.8.3-.3 0-.7-.2-1-.5zm-132.1-.9c-.3-.6 0-1.4.6-1.7.6-.3 1.4 0 1.7.6.3.6 0 1.4-.6 1.7-.2.1-.4.1-.5.1-.5 0-1-.2-1.2-.7zm85-3.1c-.7-.2-1.1-.8-1-1.5.1-.7.8-1.1 1.5-1 .7.1 1.1.8 1 1.5-.1.6-.7 1-1.2 1h-.3zm-57.4-.9c-.5-.5-.6-1.2-.1-1.8.5-.5 1.3-.6 1.8-.1s.6 1.2.1 1.8c-.2.3-.6.4-.9.4-.4.1-.7-.1-.9-.3zm88.1-2c-.5-.5-.4-1.3.1-1.8s1.3-.4 1.8.1.4 1.3-.1 1.8c-.2.2-.5.3-.8.3-.4 0-.8-.1-1-.4zm-60.3-.3c-.3-.6 0-1.4.6-1.7.6-.3 1.4 0 1.7.6.3.6 0 1.4-.6 1.7-.2.1-.4.1-.5.1-.6 0-1-.3-1.2-.7zm49.4-1.7c-.4-.6-.2-1.4.4-1.7.6-.4 1.4-.2 1.7.4.4.6.2 1.4-.4 1.7-.2.1-.5.2-.7.2-.3 0-.7-.2-1-.6zm79.1-1.1c-.1-.7.3-1.3 1-1.5.7-.1 1.3.3 1.5 1 .1.7-.3 1.3-1 1.5h-.2c-.6 0-1.2-.4-1.3-1zm-131.6-1c0-.7.6-1.2 1.2-1.3.7 0 1.3.6 1.3 1.2 0 .7-.6 1.3-1.2 1.3-.7.1-1.3-.5-1.3-1.2zm-25.9-1c-.3-.6 0-1.4.6-1.7.6-.3 1.4 0 1.7.6.3.6 0 1.4-.6 1.7-.2.1-.3.1-.5.1-.6.1-1-.2-1.2-.7zm69.9-2.2c-.3-.6-.1-1.4.5-1.7.6-.3 1.4-.1 1.7.5.3.6.1 1.4-.5 1.7-.2.1-.4.1-.6.1-.5.1-.9-.1-1.1-.6zm40.3.6c-.7-.2-1.1-.8-.9-1.5.2-.7.8-1.1 1.5-.9.7.2 1.1.9.9 1.5-.1.6-.7 1-1.2 1-.1-.1-.2-.1-.3-.1zm-153.7-1.8c-.4-.6-.2-1.4.4-1.7.6-.4 1.4-.2 1.7.4.4.6.2 1.3-.4 1.7-.2.1-.4.2-.7.2-.3-.1-.7-.3-1-.6zm12.4-.7c-.7 0-1.3-.6-1.2-1.3 0-.7.6-1.2 1.3-1.2.7 0 1.2.6 1.2 1.3-.1.7-.6 1.2-1.3 1.2zm162.2-3.8c-.3-.7 0-1.4.7-1.6.6-.3 1.4.1 1.6.7.3.7-.1 1.4-.7 1.6-.2.1-.3.1-.5.1-.4 0-.9-.3-1.1-.8zm-102.9.5c-.7-.2-1-.9-.8-1.6.2-.7.9-1 1.6-.8.7.2 1 .9.8 1.6-.2.5-.7.9-1.2.9-.2-.1-.3-.1-.4-.1z"/><path class="st90" d="M75.1 231.6v.2h-.5z"/></g><ellipse class="st5" cx="206" cy="231.6" rx="143.4" ry="7.3"/><path class="st94" d="M75.1 179v52.6h195.5V179H75.1zm36.2 36.2H82.6v-28.6h28.6v28.6zm34.4 0H117v-28.6h28.6v28.6zm47.6-18.4h-40.9v-10.3h40.9v10.3zm35.5 18.4h-28.6v-28.6h28.6v28.6zm34.4 0h-28.6v-28.6h28.6v28.6z"/><path class="st94" d="M247.6 186.5h2.5v28.6h-2.5z"/><path class="st94" d="M234.5 199.6h28.6v2.5h-28.6z"/><path class="st566" d="M183.5 130.3h11.9v32.5h-11.9z"/><path class="st34" d="M219.1 50.5h9.8a52.26 52.26 0 0 0-20.7-14.2c4.2 3.6 7.9 8.5 10.9 14.2zM153.6 103.4h-13.9c2.3 6.6 5.9 12.5 10.5 17.6h9.8c-2.9-5.2-5.1-11.1-6.4-17.6zM170.8 36.3c-8 3-15.1 8-20.7 14.2h9.8c2.9-5.7 6.7-10.6 10.9-14.2zM219.1 121h9.8c4.6-5.1 8.1-11.1 10.5-17.6h-13.9c-1.5 6.5-3.7 12.4-6.4 17.6zM227.2 85.8h15.1c0-6.2-1.1-12.1-3-17.6h-13.9c1.2 5.5 1.8 11.4 1.8 17.6z"/><path class="st34" d="M211 68.2h14.4c-1.4-6.5-3.5-12.4-6.3-17.6h-11.9c1.7 5.1 3 11.1 3.8 17.6zM171.7 50.5h-11.9c-2.7 5.2-4.9 11.2-6.3 17.6h14.4c.9-6.4 2.1-12.4 3.8-17.6zM219.1 121h-11.9c-2.3 7.2-5.2 13.1-8.7 16.8 3.3-.6 6.5-1.5 9.5-2.6 4.4-3.6 8.1-8.4 11.1-14.2zM171.7 121h-11.9c3 5.7 6.7 10.6 11 14.2 3 1.2 6.2 2 9.5 2.6-3.4-3.7-6.3-9.5-8.6-16.8zM207.2 50.5c-2.3-7.2-5.2-13.1-8.7-16.8-2.1-.4-4.2-.6-6.3-.7 1.2 3.7 2.3 9.8 3.1 17.5h11.9z"/><path class="st34" d="M186.6 33c-2.1.1-4.2.4-6.3.7-3.4 3.8-6.4 9.6-8.7 16.8h11.9c.8-7.7 1.9-13.8 3.1-17.5zM182.3 68.2h-14.4c-.7 5.5-1.1 11.5-1.1 17.6h15.1c0-6.2.1-12.1.4-17.6zM196.6 103.4c-.3 6.5-.7 12.4-1.3 17.6h11.9c1.6-5.2 2.9-11.2 3.8-17.6h-14.4zM182.3 103.4h-14.4c.8 6.5 2.1 12.4 3.8 17.6h11.9c-.6-5.2-1-11.1-1.3-17.6zM195.4 50.5h-11.9c-.5 5.2-1 11.2-1.3 17.6h14.4c-.2-6.4-.7-12.4-1.2-17.6z"/><path class="st34" d="M181.9 85.8c0 6.2.1 12.1.4 17.6h14.4c.2-5.5.4-11.5.4-17.6h-15.2zM183.5 121c.8 7.7 1.9 13.8 3.1 17.5.9 0 1.9.1 2.8.1.9 0 1.9 0 2.8-.1 1.2-3.7 2.3-9.8 3.1-17.5h-11.8z"/><circle class="st34" cx="172.8" cy="162.8" r="9.2"/><path class="st577" d="M219.1 50.5h9.8a52.26 52.26 0 0 0-20.7-14.2c4.2 3.6 7.9 8.5 10.9 14.2z"/><path class="st578" d="M159.8 50.5H150c-4.6 5.1-8.1 11.1-10.5 17.6h13.9c1.5-6.4 3.7-12.4 6.4-17.6z"/><path class="st577" d="M153.6 103.4h-13.9c2.3 6.6 5.9 12.5 10.5 17.6h9.8c-2.9-5.2-5.1-11.1-6.4-17.6z"/><path class="st579" d="M153.6 68.2h-13.9c-1.9 5.5-3 11.4-3 17.6h15.1c-.1-6.2.6-12.1 1.8-17.6z"/><path class="st578" d="M151.7 85.8h-15.1c0 6.2 1.1 12.1 3 17.6h13.9c-1.1-5.5-1.8-11.5-1.8-17.6z"/><path class="st577" d="M170.8 36.3c-8 3-15.1 8-20.7 14.2h9.8c2.9-5.7 6.7-10.6 10.9-14.2z"/><path class="st578" d="M159.8 121H150c5.6 6.3 12.7 11.2 20.7 14.2-4.1-3.6-7.9-8.4-10.9-14.2zM225.4 103.4h13.9c1.9-5.5 3-11.4 3-17.6h-15.1c0 6.1-.6 12.1-1.8 17.6z"/><path class="st577" d="M219.1 121h9.8c4.6-5.1 8.1-11.1 10.5-17.6h-13.9c-1.5 6.5-3.7 12.4-6.4 17.6z"/><path class="st578" d="M219.1 50.5c2.7 5.2 4.9 11.2 6.3 17.6h13.9c-2.3-6.6-5.9-12.5-10.5-17.6h-9.7z"/><path class="st577" d="M227.2 85.8h15.1c0-6.2-1.1-12.1-3-17.6h-13.9c1.2 5.5 1.8 11.4 1.8 17.6z"/><path class="st578" d="M208.1 135.3c8-3 15.1-8 20.7-14.2H219c-2.9 5.7-6.6 10.5-10.9 14.2z"/><path class="st579" d="M211 103.4h14.4c1.2-5.5 1.8-11.5 1.8-17.6h-15.1c0 6.1-.4 12.1-1.1 17.6z"/><path class="st577" d="M211 68.2h14.4c-1.4-6.5-3.5-12.4-6.3-17.6h-11.9c1.7 5.1 3 11.1 3.8 17.6z"/><path class="st578" d="M212.1 85.8h15.1c0-6.2-.7-12.1-1.8-17.6H211c.7 5.5 1.1 11.4 1.1 17.6zM207.2 121h11.9c2.7-5.2 4.9-11.2 6.3-17.6H211c-.8 6.5-2.1 12.4-3.8 17.6zM167.9 68.2h-14.4c-1.2 5.5-1.8 11.5-1.8 17.6h15.1c0-6.2.4-12.1 1.1-17.6z"/><path class="st577" d="M171.7 50.5h-11.9c-2.7 5.2-4.9 11.2-6.3 17.6h14.4c.9-6.4 2.1-12.4 3.8-17.6z"/><path class="st578" d="M153.6 103.4c1.4 6.5 3.5 12.4 6.3 17.6h11.9c-1.6-5.2-2.9-11.2-3.8-17.6h-14.4z"/><path class="st579" d="M166.8 85.8h-15.1c0 6.2.7 12.1 1.8 17.6h14.4c-.7-5.5-1.1-11.5-1.1-17.6z"/><path class="st577" d="M219.1 121h-11.9c-2.3 7.2-5.2 13.1-8.7 16.8 3.3-.6 6.5-1.5 9.5-2.6 4.4-3.6 8.1-8.4 11.1-14.2zM171.7 121h-11.9c3 5.7 6.7 10.6 11 14.2 3 1.2 6.2 2 9.5 2.6-3.4-3.7-6.3-9.5-8.6-16.8z"/><path class="st579" d="M207.2 50.5h11.9c-3-5.7-6.7-10.6-11-14.2-3-1.2-6.2-2-9.5-2.6 3.4 3.8 6.4 9.6 8.6 16.8z"/><path class="st578" d="M159.8 50.5h11.9c2.3-7.2 5.2-13.1 8.7-16.8-3.3.6-6.5 1.5-9.5 2.6-4.3 3.6-8.1 8.5-11.1 14.2zM196.6 68.2H211c-.8-6.5-2.1-12.4-3.8-17.6h-11.9c.6 5.1 1.1 11.1 1.3 17.6z"/><path class="st577" d="M207.2 50.5c-2.3-7.2-5.2-13.1-8.7-16.8-2.1-.4-4.2-.6-6.3-.7 1.2 3.7 2.3 9.8 3.1 17.5h11.9z"/><path class="st578" d="M166.8 85.8c0 6.2.4 12.1 1.1 17.6h14.4c-.2-5.5-.4-11.5-.4-17.6h-15.1z"/><path class="st577" d="M186.6 33c-2.1.1-4.2.4-6.3.7-3.4 3.8-6.4 9.6-8.7 16.8h11.9c.8-7.7 1.9-13.8 3.1-17.5zM182.3 68.2h-14.4c-.7 5.5-1.1 11.5-1.1 17.6h15.1c0-6.2.1-12.1.4-17.6z"/><path class="st578" d="M196.6 103.4H211c.7-5.5 1.1-11.5 1.1-17.6H197c0 6.1-.1 12.1-.4 17.6z"/><path class="st579" d="M197 85.8h15.1c0-6.2-.4-12.1-1.1-17.6h-14.4c.3 5.5.4 11.4.4 17.6z"/><path class="st578" d="M192.3 138.6c2.1-.1 4.2-.4 6.3-.7 3.4-3.8 6.4-9.6 8.7-16.8h-11.9c-.8 7.6-1.9 13.7-3.1 17.5z"/><path class="st579" d="M171.7 121c2.3 7.2 5.2 13.1 8.7 16.8 2.1.4 4.2.6 6.3.7-1.2-3.7-2.3-9.8-3.1-17.5h-11.9z"/><path class="st577" d="M196.6 103.4c-.3 6.5-.7 12.4-1.3 17.6h11.9c1.6-5.2 2.9-11.2 3.8-17.6h-14.4z"/><path class="st579" d="M182.3 68.2c.3-6.5.7-12.4 1.3-17.6h-11.9c-1.6 5.2-2.9 11.2-3.8 17.6h14.4z"/><path class="st577" d="M182.3 103.4h-14.4c.8 6.5 2.1 12.4 3.8 17.6h11.9c-.6-5.2-1-11.1-1.3-17.6z"/><path class="st578" d="M197 85.8c0-6.2-.1-12.1-.4-17.6h-14.4c-.2 5.5-.4 11.5-.4 17.6H197z"/><path class="st577" d="M195.4 50.5h-11.9c-.5 5.2-1 11.2-1.3 17.6h14.4c-.2-6.4-.7-12.4-1.2-17.6z"/><path class="st579" d="M183.5 121h11.9c.5-5.2 1-11.2 1.3-17.6h-14.4c.3 6.5.7 12.4 1.2 17.6zM195.4 50.5c-.8-7.7-1.9-13.8-3.1-17.5-.9 0-1.9-.1-2.8-.1-.9 0-1.9 0-2.8.1-1.2 3.7-2.3 9.8-3.1 17.5h11.8z"/><path class="st577" d="M181.9 85.8c0 6.2.1 12.1.4 17.6h14.4c.2-5.5.4-11.5.4-17.6h-15.2zM183.5 121c.8 7.7 1.9 13.8 3.1 17.5.9 0 1.9.1 2.8.1.9 0 1.9 0 2.8-.1 1.2-3.7 2.3-9.8 3.1-17.5h-11.8z"/><g><path class="st580" d="M225 51l1.9 11 5.6-11-2.8-12.2z"/><path class="st580" d="M229.3 54.3l11-1.9-10.9-5.6-12.2 2.7z"/></g><g><path class="st580" d="M212.5 112.8l2 11 5.6-11-2.8-12.2z"/><path class="st580" d="M216.9 116.1l11-1.9-11-5.6-12.2 2.8z"/></g><g><path class="st580" d="M133.7 86l3.1 8 2.7-9.1-3.9-8.8z"/><path class="st580" d="M137.5 87.9l8.1-3.1-9.1-2.6-8.9 3.8z"/></g><g><path class="st97" d="M172.8 146.5H206c68.4 0 97.8 32.5 97.8 32.5h-131v-32.5z"/><path class="st5" d="M172.8 146.5H206c68.4 0 97.8 32.5 97.8 32.5h-131v-32.5z"/><path class="st97" d="M75.1 179s29.3-32.5 97.8-32.5 97.8 32.5 97.8 32.5H75.1z"/></g><g><path class="st97" d="M152.4 204.1h19.3v27.4h-19.3z"/><path class="st90" d="M167 215.4h2.8v4.9H167z"/><g><path class="st97" d="M174 204.1h19.3v27.4H174z"/><path class="st90" d="M175.9 215.4h2.8v4.9h-2.8z"/></g></g><circle class="st5" cx="172.8" cy="162.8" r="9.2"/><g><path class="st94" d="M213.2 186.5h2.5v28.6h-2.5z"/><path class="st94" d="M200.1 199.6h28.6v2.5h-28.6z"/></g><g><path class="st94" d="M130.1 186.5h2.5v28.6h-2.5z"/><path class="st94" d="M117 199.6h28.6v2.5H117z"/></g><g><path class="st94" d="M95.7 186.5h2.5v28.6h-2.5z"/><path class="st94" d="M82.6 199.6h28.6v2.5H82.6z"/></g><g><path class="st94" d="M183.9 186.5h2.5v10.3h-2.5zM175.7 186.5h2.5v10.3h-2.5zM167.5 186.5h2.5v10.3h-2.5zM159.3 186.5h2.5v10.3h-2.5z"/></g><path class="st581" d="M270.6 179v52.6h33.2V179h-33.2zm25.4 36.2h-17.6v-28.6H296v28.6z"/><g><path class="st581" d="M286 186.5h2.5v28.6H286z"/><path class="st581" d="M272.9 199.6h28.6v2.5h-28.6z"/></g><linearGradient id="XMLID_113_" gradientUnits="userSpaceOnUse" x1="270.865" y1="235.315" x2="270.865" y2="252.344"><stop offset=".224" stop-color="#caf5f6"/><stop offset=".328" stop-color="#caf5f6" stop-opacity=".672"/><stop offset=".793" stop-color="#caf5f6" stop-opacity="0"/></linearGradient><path id="XMLID_254_" class="st70" d="M356.5 243.9c-37.3-6.9-39.7-19.5-55.6-25.5-3.7-1.4-7.1-1.9-10.1-1.9-3-.1-6.4.5-10.1 1.9-6.7 2.5-12 7.4-18.8 9.8-7.7 2.7-16.2 3.2-24.1 1.3-5.5-1.3-10.9-3.8-16.5-3.2-10.5 1-25.9 21.3-36.1 18.6 2.2 4.3 47.7 11.6 64 11.7 22.3.1 43.6-3.6 65.5-5.9 9.2-1 18.6-3.6 27.5-6.1 1.9-.5 14-.8 14.3-.7z"/></g></svg>