<?xml version="1.0" encoding="utf-8"?>
<!-- Generator: Adobe Illustrator 19.1.0, SVG Export Plug-In . SVG Version: 6.00 Build 0)  -->
<svg version="1.1" id="slice" xmlns="http://www.w3.org/2000/svg" xmlns:xlink="http://www.w3.org/1999/xlink" x="0px" y="0px"
	 width="537.1px" height="244.4px" viewBox="0 0 537.1 244.4" style="enable-background:new 0 0 537.1 244.4;" xml:space="preserve"
	>
<style type="text/css">
	.st0{opacity:0.11;fill:#231F20;}
	.st1{fill:#94917F;}
	.st2{fill:#BAAFA2;}
	.st3{fill:#785768;}
	.st4{fill:#AAA89A;}
	.st5{opacity:0.1;}
	.st6{fill:#8CE1F9;}
	.st7{fill:#CECCBF;}
	.st8{fill:#8D667A;}
	.st9{fill:#918C84;}
	.st10{fill:#C2BEB6;}
	.st11{fill:#F0E1D1;}
	.st12{fill:#B6B4A8;}
	.st13{fill:#94938A;}
	.st14{fill:#7D7C71;}
	.st15{fill:#633B4F;}
	.st16{fill:#85837D;}
	.st17{fill:#8A7665;}
	.st18{fill:#6A695C;}
	.st19{fill:#B9B7A4;}
	.st20{fill:#2F9F42;}
	.st21{opacity:0.13;}
	.st22{opacity:0.2;fill:#231F20;}
	.st23{fill:#D53E2E;}
	.st24{fill:#003673;}
	.st25{fill:#F09A1A;}
	.st26{fill:#FDBF0F;}
	.st27{fill:#736357;}
	.st28{fill:#D84637;}
	.st29{fill:#00A9E9;}
	.st30{fill:#FFDE00;}
	.st31{fill:#48B780;}
	.st32{fill:#7C6959;}
	.st33{fill:#D3AE6E;}
	.st34{fill:#FFFFFF;}
	.st35{fill:#FFE95A;}
	.st36{fill:#FFC300;}
	.st37{fill:#F27B20;}
	.st38{fill:#EE3837;}
	.st39{fill:#4C8BFB;}
	.st40{fill:#B757C5;}
	.st41{fill:#FFDF8A;}
	.st42{fill:#333333;}
	.st43{fill:#6A57AB;}
	.st44{fill:#5D377A;}
	.st45{fill:#393939;}
	.st46{fill:#FDE08B;}
	.st47{fill:#DC3126;}
	.st48{fill:#FDD500;}
	.st49{fill:#515C5D;}
	.st50{fill:#7D8586;}
	.st51{fill:#AFD136;}
	.st52{fill:url(#SVGID_1_);}
	.st53{fill:url(#SVGID_2_);}
	.st54{fill:#E8D184;}
	.st55{fill:#CA7836;}
	.st56{fill:#54D184;}
	.st57{opacity:0.48;}
	.st58{opacity:0.5;fill:#75CEF4;}
	.st59{opacity:0.5;fill:#00BFF0;}
	.st60{opacity:0.5;fill:#E6F6FD;}
	.st61{opacity:0.48;fill:#75CEF4;}
	.st62{fill:url(#SVGID_3_);}
	.st63{fill:#808080;}
	.st64{fill:#8F4293;}
	.st65{fill:#FFD400;}
	.st66{fill:url(#SVGID_4_);}
	.st67{fill:#28AE4B;}
	.st68{fill:#E64436;}
	.st69{fill:url(#SVGID_5_);}
	.st70{fill:url(#XMLID_158_);}
	.st71{opacity:0.17;fill:#FFFFFF;}
	.st72{fill:url(#SVGID_6_);}
	.st73{fill:url(#SVGID_7_);}
	.st74{fill:#00B2EE;}
	.st75{fill:#B89860;}
	.st76{fill:#B0B0B0;}
	.st77{fill:#864537;}
	.st78{fill:#FBCF99;}
	.st79{fill:#FBCD48;}
	.st80{fill:#FFDD00;}
	.st81{fill:#D2392C;}
	.st82{fill:url(#SVGID_8_);}
	.st83{fill:url(#SVGID_9_);}
	.st84{fill:url(#SVGID_10_);}
	.st85{fill:url(#SVGID_11_);}
	.st86{fill:url(#XMLID_160_);}
	.st87{fill:#AFD77D;}
	.st88{opacity:0.1;fill:#231F20;}
	.st89{fill:#7CB342;}
	.st90{fill:#F9CE1D;}
	.st91{fill:#FFE36C;}
	.st92{fill:#5E35B1;}
	.st93{fill:#9575CD;}
	.st94{fill:#29B6F6;}
	.st95{fill:#4AD0FF;}
	.st96{fill:#9DCE2E;}
	.st97{fill:#E53935;}
	.st98{fill:#F94B4B;}
	.st99{fill:#FB8C00;}
	.st100{fill:#FC9F42;}
	.st101{fill:#9DCA3B;}
	.st102{fill:#66A622;}
	.st103{fill:#FFB300;}
	.st104{fill:#F57C00;}
	.st105{fill:#A1CACF;}
	.st106{fill:#DFF3F5;}
	.st107{fill:#BAD7DB;}
	.st108{fill:#C3DFE3;}
	.st109{fill:#BCDEE3;}
	.st110{opacity:0.5;}
	.st111{opacity:0.8;}
	.st112{fill:url(#XMLID_161_);}
	.st113{fill:url(#SVGID_12_);}
	.st114{fill:#F6F3EC;}
	.st115{fill:#D7D7D7;}
	.st116{fill:#959D9E;}
	.st117{fill:#B3B3B3;}
	.st118{fill:#E0E0E0;}
	.st119{fill:#4D4D4D;}
	.st120{fill:#595959;}
	.st121{fill:#FFEB5E;}
	.st122{fill:#6D7576;}
	.st123{fill:#C9E09D;}
	.st124{fill:#8F8F8F;}
	.st125{fill:#5C6566;}
	.st126{fill:#A19E97;}
	.st127{fill:#61C6EC;}
	.st128{fill:#77BF82;}
	.st129{fill:#F3FF73;}
	.st130{fill:url(#XMLID_163_);}
	.st131{fill:url(#SVGID_13_);}
	.st132{fill:url(#SVGID_14_);}
	.st133{fill:url(#XMLID_165_);}
	.st134{fill:#555047;}
	.st135{fill:#896339;}
	.st136{fill:#736F68;}
	.st137{fill:#949494;}
	.st138{fill:#83DEE8;}
	.st139{fill:#85827D;}
	.st140{opacity:0.2;}
	.st141{fill:#404040;}
	.st142{fill:#C0C0C0;}
	.st143{fill:#EEEEEE;}
	.st144{clip-path:url(#SVGID_16_);fill:#44C2C2;}
	.st145{clip-path:url(#SVGID_16_);fill:#A3D89F;}
	.st146{clip-path:url(#SVGID_16_);fill:#C83A74;}
	.st147{clip-path:url(#SVGID_16_);fill:#FFA376;}
	.st148{opacity:0.24;}
	.st149{fill:none;stroke:#85827D;stroke-width:0.9;stroke-miterlimit:10;}
	.st150{opacity:0.83;}
	.st151{fill:#888480;}
	.st152{fill:#7099BA;}
	.st153{fill:#B0E1E8;}
	.st154{opacity:0.22;fill:#FFFFFF;}
	.st155{fill:url(#XMLID_172_);}
	.st156{fill:url(#SVGID_17_);}
	.st157{fill:url(#SVGID_18_);}
	.st158{fill:url(#XMLID_174_);}
	.st159{fill:#9DB9BD;}
	.st160{fill:#D1E3E6;}
	.st161{fill:#B6D6DB;}
	.st162{fill:#9CCFD9;}
	.st163{fill:#B4D3D9;}
	.st164{fill:#97BABF;}
	.st165{fill:#C1DFF5;}
	.st166{fill:#C5E7EB;}
	.st167{fill:#8AB8D4;}
	.st168{fill:#E6E6E6;}
	.st169{fill:#716E69;}
	.st170{fill:#71BDDE;}
	.st171{fill:#659BC7;}
	.st172{fill:#70AFD4;}
	.st173{fill:none;}
	.st174{fill:#97CEE6;}
	.st175{opacity:8.000000e-02;fill:#0F0F0F;}
	.st176{opacity:0.1;fill:#0F0F0F;}
	.st177{fill:#385FE4;}
	.st178{fill:#CCCCCC;}
	.st179{fill:#2986E4;}
	.st180{opacity:0.21;}
	.st181{clip-path:url(#SVGID_20_);}
	.st182{filter:url(#Adobe_OpacityMaskFilter);}
	.st183{mask:url(#SVGID_21_);fill:#33659A;}
	.st184{filter:url(#Adobe_OpacityMaskFilter_1_);}
	.st185{mask:url(#SVGID_22_);fill:#385FE4;}
	.st186{filter:url(#Adobe_OpacityMaskFilter_2_);}
	.st187{opacity:0.17;mask:url(#SVGID_23_);}
	.st188{clip-path:url(#SVGID_25_);}
	.st189{opacity:0.77;}
	.st190{fill:#E8C97B;}
	.st191{fill:#2D56E2;}
	.st192{opacity:0.11;}
	.st193{fill:#0BBF68;}
	.st194{fill:#98BEE4;}
	.st195{fill:#3F5656;}
	.st196{fill:#D7C17D;}
	.st197{opacity:0.2;fill:#FFFFFF;}
	.st198{fill:url(#SVGID_26_);}
	.st199{fill:url(#XMLID_228_);}
	.st200{fill:url(#SVGID_27_);}
	.st201{fill:url(#XMLID_231_);}
	.st202{fill:#9C9C9C;}
	.st203{fill:#808082;}
	.st204{fill:#9ED5EC;}
	.st205{fill:#CACACA;}
	.st206{fill:#E3E3E3;}
	.st207{fill:#979797;}
	.st208{fill:#9E9E9E;}
	.st209{opacity:0.58;fill:#C7FFFF;}
	.st210{opacity:0.25;}
	.st211{fill:#A52E22;}
	.st212{fill:#E63636;}
	.st213{fill:url(#XMLID_261_);}
	.st214{fill:url(#XMLID_278_);}
	.st215{fill:#F3831F;}
	.st216{fill:#1FA2F3;}
	.st217{fill:#914295;}
	.st218{fill:#FAAC18;}
	.st219{opacity:0.1;fill:#333333;}
	.st220{fill:#836948;}
	.st221{fill:#DF543F;}
	.st222{fill:#00813F;}
	.st223{fill:#B9C9D2;}
	.st224{fill:#28B04B;}
	.st225{fill:#FFF100;}
	.st226{fill:#969696;}
	.st227{fill:#0158BB;}
	.st228{fill:#1565C0;}
	.st229{fill:#3DD1F9;}
	.st230{fill:#F5A816;}
	.st231{fill:#C62828;}
	.st232{fill:#BDBDBD;}
	.st233{fill:#A5A5A5;}
	.st234{fill:#424242;}
	.st235{fill:#E6E7E8;}
	.st236{clip-path:url(#SVGID_31_);fill:#FFFFFF;}
	.st237{clip-path:url(#SVGID_31_);fill:#E91C24;}
	.st238{clip-path:url(#SVGID_31_);fill:#1976D2;}
	.st239{fill:#4D8ACF;}
	.st240{fill:none;stroke:#FFFFFF;stroke-width:0.6591;stroke-miterlimit:10;}
	.st241{fill:#00ADEE;}
	.st242{clip-path:url(#SVGID_33_);fill:#FFFFFF;}
	.st243{fill:#DBDBDB;}
	.st244{fill:#9AD3D3;}
	.st245{fill:url(#SVGID_34_);}
	.st246{fill:url(#SVGID_35_);}
	.st247{fill:url(#SVGID_36_);}
	.st248{fill:url(#SVGID_37_);}
	.st249{fill:url(#SVGID_38_);}
	.st250{fill:url(#SVGID_39_);}
	.st251{fill:url(#SVGID_40_);}
	.st252{fill:url(#SVGID_41_);}
	.st253{fill:#F7CE97;}
	.st254{fill:#4C4C4C;}
	.st255{fill:#E9E9E9;}
	.st256{fill:#EB9B95;}
	.st257{fill:#656565;}
	.st258{fill:#5E5A48;}
	.st259{fill:url(#SVGID_42_);}
	.st260{fill:url(#SVGID_43_);}
	.st261{fill:#999999;}
	.st262{opacity:0.36;}
	.st263{fill:#00A64C;}
	.st264{fill-rule:evenodd;clip-rule:evenodd;fill:#D4D4D4;}
	.st265{fill-rule:evenodd;clip-rule:evenodd;fill:#FFFFFF;}
	.st266{fill-rule:evenodd;clip-rule:evenodd;fill:#008141;}
	.st267{fill-rule:evenodd;clip-rule:evenodd;fill:#00A64C;}
	.st268{fill:#28B265;}
	.st269{opacity:0.4;fill:#FFE000;}
	.st270{fill:#C8CBCC;}
	.st271{fill:#B8B8B8;}
	.st272{fill:#949496;}
	.st273{fill:#C8EAD4;}
	.st274{fill:#7D8485;}
	.st275{fill:#2364D5;}
	.st276{fill:url(#XMLID_279_);}
	.st277{fill:url(#SVGID_44_);}
	.st278{fill:url(#SVGID_45_);}
	.st279{fill:url(#SVGID_46_);}
	.st280{fill:#8700EE;}
	.st281{fill:#00B533;}
	.st282{fill:#EEDA00;}
	.st283{fill:#F2206D;}
	.st284{fill:#6299FB;}
	.st285{opacity:0.7;fill:url(#SVGID_47_);}
	.st286{opacity:0.7;fill:url(#SVGID_48_);}
	.st287{opacity:0.7;fill:url(#SVGID_49_);}
	.st288{fill:#EE5E5D;}
	.st289{fill:#E09D17;}
	.st290{fill:#F0EDE9;}
	.st291{clip-path:url(#SVGID_51_);}
	.st292{fill:#EEC85C;}
	.st293{opacity:0.32;fill:#9A0000;}
	.st294{fill:#F0F0F0;}
	.st295{fill:#81D4FA;}
	.st296{opacity:0.49;fill:#C9EDFC;}
	.st297{fill:#D8746A;}
	.st298{fill:#FCBE8D;}
	.st299{fill:#00A9E7;}
	.st300{fill:#6A7173;}
	.st301{opacity:0.6;}
	.st302{fill:url(#SVGID_52_);}
	.st303{fill:url(#SVGID_53_);}
	.st304{fill:url(#XMLID_280_);}
	.st305{fill:url(#SVGID_54_);}
	.st306{fill:url(#SVGID_55_);}
	.st307{fill:url(#SVGID_56_);}
	.st308{fill:url(#SVGID_57_);}
	.st309{fill:#67635D;}
	.st310{fill:#999690;}
	.st311{fill:#E6DA91;}
	.st312{opacity:0.55;fill:#BBAF3E;}
	.st313{fill:#A8A69B;}
	.st314{clip-path:url(#SVGID_59_);}
	.st315{fill:url(#SVGID_60_);}
	.st316{fill:url(#SVGID_61_);}
	.st317{opacity:0.1;clip-path:url(#SVGID_59_);}
	.st318{clip-path:url(#SVGID_63_);}
	.st319{fill:#E3E3E2;}
	.st320{fill:#CF4140;}
	.st321{fill:url(#SVGID_64_);}
	.st322{fill:url(#SVGID_65_);}
	.st323{fill:url(#SVGID_66_);}
	.st324{fill:url(#SVGID_67_);}
	.st325{fill:#666666;}
	.st326{fill:#C1161C;}
	.st327{fill:#B47945;}
	.st328{fill:#D9DADB;}
	.st329{fill:#36AF49;}
	.st330{fill:#2A943E;}
	.st331{fill:#9EA0A2;}
	.st332{fill:#BEBFC1;}
	.st333{fill:#F5961D;}
	.st334{fill:#FFEF00;}
	.st335{fill:#6D6D6D;}
	.st336{fill:url(#SVGID_68_);}
	.st337{fill:url(#XMLID_281_);}
	.st338{fill:#795D00;}
	.st339{clip-path:url(#SVGID_70_);fill:#BB8024;}
	.st340{opacity:0.1;clip-path:url(#SVGID_70_);}
	.st341{fill:#955D00;}
	.st342{fill:#F38836;}
	.st343{fill:url(#XMLID_295_);}
	.st344{fill:url(#SVGID_71_);}
	.st345{fill:url(#SVGID_72_);}
	.st346{fill:url(#XMLID_296_);}
	.st347{opacity:0.99;}
	.st348{fill:#E8AF38;}
	.st349{fill:#98AB00;}
	.st350{fill:#E75C52;}
	.st351{fill:#A9897D;}
	.st352{fill:#CB9D7B;}
	.st353{fill:#996B63;}
	.st354{fill:#35B8E8;}
	.st355{opacity:0.12;fill:url(#SVGID_73_);}
	.st356{opacity:0.12;fill:url(#SVGID_74_);}
	.st357{opacity:0.28;fill:url(#SVGID_77_);}
	.st358{clip-path:url(#SVGID_81_);}
	.st359{fill:#FFF59C;}
	.st360{fill:#EBDBCE;}
	.st361{fill:#B07A53;}
	.st362{fill:#1185BA;}
	.st363{opacity:0.32;fill:#1F57A1;}
	.st364{opacity:0.32;}
	.st365{fill:#C28D65;}
	.st366{fill:#EB776F;}
	.st367{fill:#AFDB39;}
	.st368{fill:#EBDB57;}
	.st369{opacity:0.16;}
	.st370{fill:#CBA483;}
	.st371{fill:url(#XMLID_297_);}
	.st372{fill:url(#SVGID_82_);}
	.st373{fill:url(#SVGID_83_);}
	.st374{fill:#BEE6EB;}
	.st375{fill:#F9DF00;}
	.st376{fill:#D84733;}
	.st377{fill:#FCE000;}
	.st378{fill:#575757;}
	.st379{fill:#B3B2B3;}
	.st380{fill:#E5E5E4;}
	.st381{fill:#D5302B;}
	.st382{fill:url(#SVGID_84_);}
	.st383{fill:url(#SVGID_85_);}
	.st384{fill:#EC4180;}
	.st385{fill:#FBCB54;}
	.st386{fill:#7296F0;}
	.st387{fill:#FC793D;}
	.st388{opacity:0.14;}
	.st389{fill:#404144;}
	.st390{fill:#606163;}
	.st391{opacity:0.3;}
	.st392{fill:#D7B256;}
	.st393{opacity:0.38;fill:#D7B256;}
	.st394{fill:#3D3D39;}
	.st395{fill:#393B36;}
	.st396{opacity:0.6;fill:#3BFF65;}
	.st397{opacity:0.6;fill:#FC793D;}
	.st398{clip-path:url(#SVGID_87_);}
	.st399{opacity:0.29;}
	.st400{fill:#9A51A8;}
	.st401{fill:#FEF6E0;}
	.st402{fill:#A06EA9;}
	.st403{fill:#353535;}
	.st404{clip-path:url(#SVGID_89_);}
	.st405{opacity:0.23;fill:#FFFFFF;}
	.st406{opacity:0.13;fill:#FFFFFF;}
	.st407{opacity:5.000000e-02;}
	.st408{opacity:0.45;}
	.st409{opacity:0.2;fill:#FFF170;}
	.st410{fill:#FFF170;}
	.st411{opacity:0.21;fill:#FFFFFF;}
	.st412{opacity:0.1;fill:#FFFFFF;}
	.st413{opacity:0.27;fill:url(#SVGID_90_);}
	.st414{opacity:0.27;fill:url(#SVGID_91_);}
	.st415{fill:url(#SVGID_92_);}
	.st416{fill:url(#SVGID_93_);}
	.st417{fill:#2850A8;}
	.st418{fill:#286EE4;}
	.st419{fill:#0053DF;}
	.st420{fill:#007DD0;}
	.st421{fill:#2891E4;}
	.st422{opacity:0.72;}
	.st423{opacity:0.28;fill:url(#SVGID_94_);}
	.st424{opacity:0.28;fill:url(#SVGID_95_);}
	.st425{fill:#2D6B7F;}
	.st426{fill:#FF7C40;}
	.st427{opacity:0.21;fill:#FF7C40;}
	.st428{opacity:0.28;fill:url(#SVGID_96_);}
	.st429{opacity:0.28;fill:url(#SVGID_97_);}
	.st430{opacity:0.28;fill:url(#SVGID_98_);}
	.st431{opacity:0.28;fill:url(#SVGID_99_);}
	.st432{fill:#FFEE0A;}
	.st433{opacity:0.21;fill:#FFEE0A;}
	.st434{opacity:0.28;fill:url(#SVGID_100_);}
	.st435{opacity:0.28;fill:url(#SVGID_101_);}
	.st436{fill:#FD45FF;}
	.st437{opacity:0.21;fill:#FD45FF;}
	.st438{opacity:0.28;fill:url(#SVGID_102_);}
	.st439{opacity:0.28;fill:url(#SVGID_103_);}
	.st440{fill:#52FF52;}
	.st441{opacity:0.21;fill:#52FF52;}
	.st442{opacity:0.28;fill:url(#SVGID_104_);}
	.st443{opacity:0.28;fill:url(#SVGID_105_);}
	.st444{opacity:0.28;fill:url(#SVGID_106_);}
	.st445{opacity:0.28;fill:url(#SVGID_107_);}
	.st446{fill:#59FFF3;}
	.st447{opacity:0.21;fill:#59FFF3;}
	.st448{opacity:0.28;fill:url(#SVGID_108_);}
	.st449{opacity:0.28;fill:url(#SVGID_109_);}
	.st450{opacity:0.28;fill:url(#SVGID_110_);}
	.st451{opacity:0.28;fill:url(#SVGID_111_);}
	.st452{opacity:0.28;fill:url(#SVGID_112_);}
	.st453{opacity:0.28;fill:url(#SVGID_113_);}
	.st454{opacity:0.28;fill:url(#SVGID_114_);}
	.st455{opacity:0.28;fill:url(#SVGID_115_);}
	.st456{opacity:0.28;fill:url(#SVGID_116_);}
	.st457{opacity:0.28;fill:url(#SVGID_117_);}
	.st458{opacity:0.28;fill:url(#SVGID_118_);}
	.st459{opacity:0.28;fill:url(#SVGID_119_);}
	.st460{opacity:0.28;fill:url(#SVGID_120_);}
	.st461{opacity:0.28;fill:url(#SVGID_121_);}
	.st462{opacity:0.28;fill:url(#SVGID_122_);}
	.st463{opacity:0.28;fill:url(#SVGID_123_);}
	.st464{opacity:0.28;fill:url(#SVGID_124_);}
	.st465{opacity:0.28;fill:url(#SVGID_125_);}
	.st466{opacity:0.28;fill:url(#SVGID_126_);}
	.st467{opacity:0.28;fill:url(#SVGID_127_);}
	.st468{opacity:0.28;fill:url(#SVGID_128_);}
	.st469{opacity:0.28;fill:url(#SVGID_129_);}
	.st470{opacity:0.28;fill:url(#SVGID_130_);}
	.st471{opacity:0.28;fill:url(#SVGID_131_);}
	.st472{opacity:0.28;fill:url(#SVGID_132_);}
	.st473{opacity:0.28;fill:url(#SVGID_133_);}
	.st474{opacity:0.28;fill:url(#SVGID_134_);}
	.st475{opacity:0.28;fill:url(#SVGID_135_);}
	.st476{opacity:0.28;fill:url(#SVGID_136_);}
	.st477{opacity:0.28;fill:url(#SVGID_137_);}
	.st478{opacity:0.28;fill:url(#SVGID_138_);}
	.st479{opacity:0.28;fill:url(#SVGID_139_);}
	.st480{opacity:0.28;fill:url(#SVGID_140_);}
	.st481{opacity:0.28;fill:url(#SVGID_141_);}
	.st482{opacity:0.28;fill:url(#SVGID_142_);}
	.st483{opacity:0.28;fill:url(#SVGID_143_);}
	.st484{opacity:0.28;fill:url(#SVGID_144_);}
	.st485{opacity:0.28;fill:url(#SVGID_145_);}
	.st486{opacity:0.28;fill:url(#SVGID_146_);}
	.st487{opacity:0.28;fill:url(#SVGID_147_);}
	.st488{opacity:0.28;fill:url(#SVGID_148_);}
	.st489{opacity:0.28;fill:url(#SVGID_149_);}
	.st490{opacity:0.28;fill:url(#SVGID_150_);}
	.st491{opacity:0.28;fill:url(#SVGID_151_);}
	.st492{opacity:0.28;fill:url(#SVGID_152_);}
	.st493{opacity:0.28;fill:url(#SVGID_153_);}
	.st494{opacity:0.28;fill:url(#SVGID_154_);}
	.st495{opacity:0.28;fill:url(#SVGID_155_);}
	.st496{opacity:0.28;fill:url(#SVGID_156_);}
	.st497{opacity:0.28;fill:url(#SVGID_157_);}
	.st498{opacity:0.28;fill:url(#SVGID_158_);}
	.st499{opacity:0.28;fill:url(#SVGID_159_);}
	.st500{opacity:0.28;fill:url(#SVGID_160_);}
	.st501{opacity:0.28;fill:url(#SVGID_161_);}
	.st502{opacity:0.28;fill:url(#SVGID_162_);}
	.st503{opacity:0.28;fill:url(#SVGID_163_);}
	.st504{opacity:0.28;fill:url(#SVGID_164_);}
	.st505{opacity:0.28;fill:url(#SVGID_165_);}
	.st506{opacity:0.28;fill:url(#SVGID_166_);}
	.st507{opacity:0.28;fill:url(#SVGID_167_);}
	.st508{opacity:0.28;fill:url(#SVGID_168_);}
	.st509{opacity:0.28;fill:url(#SVGID_169_);}
	.st510{opacity:0.28;fill:url(#SVGID_170_);}
	.st511{opacity:0.28;fill:url(#SVGID_171_);}
	.st512{opacity:0.28;fill:url(#SVGID_172_);}
	.st513{opacity:0.28;fill:url(#SVGID_173_);}
	.st514{fill:#898F90;}
	.st515{opacity:0.25;fill:#FFFFFF;}
	.st516{fill:#00B8F0;}
	.st517{fill:#00A7F0;}
	.st518{opacity:0.91;fill:url(#SVGID_174_);}
	.st519{opacity:0.12;fill:#FFEE0A;}
	.st520{opacity:0.62;}
	.st521{fill:url(#SVGID_175_);}
	.st522{fill:url(#SVGID_176_);}
	.st523{fill:url(#SVGID_177_);}
	.st524{fill:url(#SVGID_178_);}
	.st525{fill:#7D857E;}
	.st526{fill:#89908A;}
	.st527{opacity:0.91;fill:url(#SVGID_179_);}
	.st528{opacity:0.12;fill:#78FF5E;}
	.st529{fill:#78FF5E;}
	.st530{fill:url(#SVGID_180_);}
	.st531{fill:url(#SVGID_181_);}
	.st532{fill:url(#SVGID_182_);}
	.st533{fill:url(#SVGID_183_);}
	.st534{fill:#85847D;}
	.st535{fill:#908F89;}
	.st536{opacity:0.91;fill:url(#SVGID_184_);}
	.st537{opacity:0.12;fill:#FF5E91;}
	.st538{fill:#FF8373;}
	.st539{fill:url(#SVGID_185_);}
	.st540{fill:url(#SVGID_186_);}
	.st541{fill:url(#SVGID_187_);}
	.st542{fill:url(#SVGID_188_);}
	.st543{fill:#5D6667;}
	.st544{fill:url(#XMLID_298_);}
	.st545{fill:url(#XMLID_299_);}
	.st546{fill:url(#SVGID_189_);}
	.st547{fill:#B13837;}
	.st548{fill:#3B627A;}
	.st549{fill:url(#SVGID_190_);}
	.st550{fill:url(#XMLID_312_);}
	.st551{fill:url(#SVGID_191_);}
	.st552{fill:#754517;}
	.st553{fill:#845930;}
	.st554{fill:#A35F25;}
	.st555{fill:#AA6C37;}
	.st556{fill:#B07644;}
	.st557{fill:#EFDBC1;}
	.st558{fill:#FFC805;}
	.st559{fill:#231F20;}
	.st560{fill:#00A351;}
	.st561{fill:#008844;}
	.st562{fill:#EF6522;}
	.st563{fill:#7A4B1F;}
	.st564{fill:#32CBE6;}
	.st565{fill:url(#SVGID_192_);}
	.st566{opacity:0.1;fill:#005FD0;}
	.st567{fill:#C48E4F;}
	.st568{fill:#F8AEAE;}
	.st569{fill:#E6E5E1;}
	.st570{fill:#7B9EB8;}
	.st571{fill:#A5B3AD;}
	.st572{fill:#C7C7C7;}
	.st573{fill:url(#XMLID_315_);}
	.st574{fill:url(#SVGID_193_);}
	.st575{fill:url(#SVGID_194_);}
	.st576{fill:#388E3C;}
	.st577{fill:#2E7D32;}
	.st578{fill:#FFE18C;}
	.st579{opacity:0.25;fill:#29B6F6;}
	.st580{fill:#414042;}
	.st581{fill:#2F4C52;}
	.st582{fill:#455D82;}
	.st583{fill:#795548;}
	.st584{fill:#D3D4D6;}
	.st585{fill:#BCBEC0;}
	.st586{clip-path:url(#SVGID_196_);}
	.st587{fill:url(#SVGID_197_);}
	.st588{fill:url(#SVGID_198_);}
	.st589{clip-path:url(#SVGID_200_);}
	.st590{opacity:0.5;fill:#F9CE1D;}
	.st591{opacity:0.28;}
	.st592{fill:#D7D8D9;}
	.st593{fill:#EBECED;}
	.st594{fill:#FFD600;}
	.st595{fill:#039BE5;}
	.st596{fill:url(#XMLID_316_);}
	.st597{fill:url(#SVGID_201_);}
	.st598{fill:#34D4F0;}
	.st599{opacity:0.51;fill:#74E4F6;}
	.st600{opacity:0.51;}
	.st601{fill:#74E4F6;}
	.st602{fill:url(#XMLID_329_);}
	.st603{fill:#434FBF;}
	.st604{opacity:0.51;fill:#7182F0;}
	.st605{fill:#7182F0;}
	.st606{opacity:0.38;}
	.st607{opacity:0.39;fill:#FFFF5C;}
	.st608{opacity:0.58;fill:#FFFFFF;}
	.st609{opacity:0.19;fill:#73C1DE;}
	.st610{opacity:0.19;fill:#7335DE;}
	.st611{fill:#F5F2E2;}
	.st612{fill:#A3A2A1;}
	.st613{fill:#5A99D1;}
	.st614{fill:#B8A485;}
	.st615{fill:#EEE5D5;}
	.st616{fill:#FFFFCC;}
	.st617{fill:#FFD200;}
	.st618{fill:#F26E21;}
	.st619{fill:#F5871F;}
	.st620{fill:#CFCFCF;}
	.st621{fill:#019049;}
	.st622{fill:#07A860;}
	.st623{fill:#AB00EE;}
	.st624{fill:#93D8F7;}
	.st625{fill:#725D4C;}
	.st626{fill:#028F1F;}
	.st627{fill:#0DA760;}
	.st628{fill:#F4C138;}
	.st629{fill:#F9646D;}
	.st630{fill:url(#SVGID_202_);}
	.st631{clip-path:url(#SVGID_204_);}
	.st632{fill:#8DE0F2;}
	.st633{fill:url(#SVGID_205_);}
	.st634{fill:url(#XMLID_330_);}
	.st635{fill:none;stroke:#D7D7D7;stroke-width:5.6;stroke-miterlimit:10;}
	.st636{fill:none;stroke:#FFFFCC;stroke-width:0.7;stroke-miterlimit:10;stroke-dasharray:2.1,4.2;}
	.st637{fill:#4CB5CF;}
	.st638{fill:#638AAA;}
	.st639{fill:url(#XMLID_331_);}
	.st640{fill:url(#XMLID_332_);}
	.st641{fill:url(#SVGID_206_);}
	.st642{fill:url(#XMLID_337_);}
	.st643{clip-path:url(#SVGID_208_);}
	.st644{fill:url(#SVGID_209_);}
	.st645{opacity:0.51;clip-path:url(#SVGID_208_);}
	.st646{fill:url(#SVGID_210_);}
	.st647{fill:url(#SVGID_211_);}
	.st648{fill:url(#SVGID_212_);}
	.st649{fill:url(#XMLID_363_);}
	.st650{fill:url(#SVGID_213_);}
	.st651{fill:url(#XMLID_364_);}
	.st652{fill:#E0F3F5;}
	.st653{opacity:0.64;fill:#7EC1C4;}
	.st654{fill:#C4DFE3;}
	.st655{fill:#7EC1C4;}
	.st656{opacity:0.53;fill:#7EC1C4;}
	.st657{opacity:0.82;fill:#7EC1C4;}
	.st658{opacity:0.3;fill:#7EC1C4;}
	.st659{fill:#79A6AD;}
	.st660{fill:#C5161D;}
	.st661{fill:#E91C24;}
	.st662{fill:#00A551;}
	.st663{fill:#2C7C2F;}
	.st664{fill:#AEC7DC;}
	.st665{fill:none;stroke:#97BABF;stroke-width:1.9787;stroke-miterlimit:10;}
	.st666{fill:#9DCB3B;}
	.st667{fill:#D9EBED;}
	.st668{fill:#008C45;}
	.st669{fill:#AE5F2D;}
	.st670{fill:#7A347E;}
	.st671{fill:#754C28;}
	.st672{fill:#0085B7;}
	.st673{fill:#D89614;}
	.st674{fill:#ECDEC9;}
	.st675{fill:#9C8954;}
	.st676{opacity:8.000000e-02;}
	.st677{fill:#4E4E6B;}
	.st678{fill:#859537;}
	.st679{fill:#8A773F;}
	.st680{fill:#CC29B9;}
	.st681{fill:#6D42E3;}
	.st682{fill:#16C447;}
	.st683{fill:#C26D11;}
	.st684{fill:url(#XMLID_404_);}
	.st685{clip-path:url(#SVGID_215_);}
	.st686{fill:#0081A8;}
	.st687{clip-path:url(#SVGID_215_);fill:#C7B31E;}
	.st688{fill:#B5B5B5;}
	.st689{fill:#E8E8E8;}
	.st690{fill:#0791AA;}
	.st691{fill:#C7B31E;}
	.st692{fill:#9D9D9D;}
	.st693{fill:#F7F01F;}
	.st694{fill:#7DC6D3;}
	.st695{fill:#4DB0C2;}
	.st696{fill:#00BE69;}
	.st697{fill:#F57F17;}
	.st698{fill:#E77969;}
	.st699{fill:#F7E2A5;}
	.st700{fill:#F4D784;}
	.st701{fill:#54C391;}
	.st702{fill:#008E5C;}
	.st703{fill:#076E2F;}
	.st704{clip-path:url(#SVGID_215_);fill:#FFFFFF;}
	.st705{clip-path:url(#SVGID_215_);fill:#F5F129;}
	.st706{opacity:0.1;clip-path:url(#SVGID_215_);}
	.st707{fill:url(#SVGID_216_);}
	.st708{fill:#9DCFD8;}
	.st709{fill:#B1E1E7;}
	.st710{fill:#73BCDD;}
	.st711{fill:#7BA8CD;}
	.st712{fill:#7299BA;}
	.st713{fill:#5B93C1;}
	.st714{fill:#D2E3E6;}
	.st715{fill:#48494D;}
	.st716{fill:#16BDCC;}
	.st717{fill:#D63E3E;}
	.st718{fill:url(#SVGID_217_);}
	.st719{fill:url(#SVGID_218_);}
	.st720{fill:url(#SVGID_219_);}
	.st721{fill:#DCDFD8;}
	.st722{opacity:0.7;}
	.st723{fill:#EF5350;}
	.st724{fill:#70CC47;}
	.st725{fill:#8BD463;}
	.st726{fill:url(#SVGID_220_);}
	.st727{fill:#E24C41;}
	.st728{fill:#EB6760;}
	.st729{fill:#2DB9EB;}
	.st730{fill:#FFDF00;}
	.st731{fill:#373B40;}
	.st732{fill:#FFFBDB;}
	.st733{fill:#D7E1E3;}
	.st734{opacity:0.2;fill:#373B40;}
	.st735{fill:#C6E9FA;}
	.st736{fill:#20242A;}
	.st737{fill:#332E2E;}
	.st738{fill:#FDBE0C;}
	.st739{fill:#F7FFFA;}
	.st740{fill:#9E978A;}
	.st741{fill:#B4AFA5;}
	.st742{fill:#E68ECD;}
	.st743{fill:#98D4BC;}
	.st744{fill:#88A2D6;}
	.st745{fill:#E36868;}
	.st746{fill:#F8AE37;}
	.st747{fill:#B99960;}
	.st748{fill:#D4AF6E;}
	.st749{opacity:0.12;}
	.st750{fill:#F0B21C;}
	.st751{fill:#B46D3D;}
	.st752{fill:#CAA56E;}
	.st753{fill:#A8844F;}
	.st754{fill:#59595C;}
	.st755{fill:#B56D3D;}
	.st756{opacity:0.19;fill:#FCD09A;}
	.st757{fill:#85E1E7;}
	.st758{fill:#E7F3F2;}
	.st759{opacity:0.19;}
	.st760{opacity:0.6;fill:url(#SVGID_221_);}
	.st761{fill:#48AACF;}
	.st762{opacity:0.6;fill:#3E31FF;}
	.st763{opacity:0.6;fill:#1B4DF9;}
	.st764{opacity:0.6;fill:#85E1E7;}
	.st765{fill:#62ACCD;}
	.st766{fill:#81FFFF;}
	.st767{opacity:0.6;fill:#FFFFFF;}
	.st768{opacity:0.6;fill:#73BCDD;}
	.st769{fill:#2E93C1;}
	.st770{opacity:0.6;fill:#1E9AE3;}
	.st771{opacity:0.6;fill:#48AACF;}
	.st772{opacity:0.15;fill:#81FFFF;}
	.st773{opacity:0.6;fill:#2E93C1;}
	.st774{opacity:0.67;fill:#62ACCD;}
	.st775{opacity:0.67;fill:#9DCFD8;}
	.st776{opacity:0.28;fill:#81FFFF;}
	.st777{fill:#8AAFB5;}
	.st778{opacity:0.99;fill:#91F3FA;}
	.st779{fill:#1FC2F5;}
	.st780{opacity:0.99;fill:#62ACCD;}
	.st781{opacity:0.99;fill:#A9DEE8;}
	.st782{opacity:0.36;fill:url(#SVGID_222_);}
	.st783{fill:url(#SVGID_223_);}
	.st784{opacity:0.6;fill:#62ACCD;}
	.st785{fill:url(#SVGID_224_);}
	.st786{fill:url(#SVGID_225_);}
	.st787{fill:url(#SVGID_226_);}
	.st788{fill:#CAF5F6;}
	.st789{fill:#00C1F2;}
	.st790{fill:#FF931E;}
	.st791{fill:#D94636;}
	.st792{fill:#D43E2E;}
	.st793{fill:#FDCE48;}
	.st794{fill:#464647;}
	.st795{fill:#D33E2F;}
	.st796{fill:#FF8A33;}
	.st797{fill:#746458;}
	.st798{fill:#57ABA9;}
	.st799{fill:#6CCCC9;}
	.st800{fill:#A7C1C5;}
	.st801{fill:#B6E2F8;}
	.st802{fill:#61AAC9;}
	.st803{fill:#E1F3FC;}
	.st804{fill:#FFF58B;}
	.st805{fill:#B59A48;}
	.st806{fill:#EED257;}
	.st807{fill:#D9D286;}
	.st808{fill:#FF916D;}
	.st809{fill:#FFE327;}
	.st810{fill:#64E8BE;}
	.st811{opacity:0.2;fill:#333333;}
	.st812{opacity:0.22;fill:#333333;}
	.st813{fill:url(#XMLID_406_);}
	.st814{fill:url(#XMLID_407_);}
	.st815{fill:url(#XMLID_408_);}
	.st816{fill:url(#SVGID_227_);}
	.st817{fill:url(#XMLID_422_);}
	.st818{fill:url(#XMLID_423_);}
	.st819{fill:url(#SVGID_228_);}
	.st820{fill:url(#SVGID_229_);}
	.st821{opacity:0.55;fill:#D8FBFF;}
	.st822{opacity:0.5;fill:url(#SVGID_230_);}
	.st823{fill:#29B65E;}
	.st824{fill:#009047;}
	.st825{fill:#91651C;}
	.st826{fill:#BD822B;}
	.st827{fill:#D5B06E;}
	.st828{fill:#007DC5;}
	.st829{fill:#A66D40;}
	.st830{fill:#FF8C33;}
	.st831{fill:#A67108;}
	.st832{fill:#F1B31C;}
	.st833{fill:#B88A13;}
	.st834{fill:#B93A2C;}
	.st835{fill:#C36E2C;}
	.st836{fill:#A8362A;}
	.st837{fill:#34875D;}
	.st838{fill:#602C63;}
	.st839{fill:#0086B7;}
	.st840{fill:#CDB300;}
	.st841{fill:#26A89B;}
	.st842{fill:#DA4637;}
	.st843{fill:#48B980;}
	.st844{fill:#F58B37;}
	.st845{fill:#00ABE9;}
	.st846{fill:#4859B9;}
	.st847{fill:#E86E1C;}
	.st848{fill:#C8541F;}
	.st849{fill:#B9191E;}
	.st850{opacity:0.19;fill:#212121;}
	.st851{opacity:0.3;fill:#28B04B;}
	.st852{fill:#F9858E;}
	.st853{fill:#5F14A6;}
	.st854{fill:#8C28DE;}
	.st855{fill:#A2A5A3;}
	.st856{fill:#AB3125;}
	.st857{clip-path:url(#SVGID_232_);}
	.st858{fill:#00914A;}
	.st859{opacity:0.39;fill:#791F11;}
	.st860{fill:#B6E5CD;}
	.st861{fill:#E9D386;}
	.st862{fill:#413D3D;}
	.st863{fill:#666262;}
	.st864{fill:#85D4AC;}
	.st865{opacity:0.1;fill:#B6E5CD;}
	.st866{fill:#F5951F;}
	.st867{fill:#00369C;}
	.st868{fill:#2759D9;}
	.st869{fill:#2297CC;}
	.st870{fill:#764C2E;}
	.st871{fill:#D4AF19;}
	.st872{fill:#62A807;}
	.st873{fill:#008E1F;}
	.st874{opacity:0.37;fill:#FFFFFF;}
	.st875{fill:#BBE5FA;}
	.st876{fill:#7A5951;}
	.st877{fill:#212121;}
	.st878{clip-path:url(#XMLID_424_);fill:#212121;}
	.st879{fill:#CC372C;}
	.st880{fill:#EBAD11;}
	.st881{fill:#E33483;}
	.st882{fill:#3788DE;}
</style>
<g id="New_Symbol_88">
</g>
<g id="New_Symbol_85">
</g>
<g id="New_Symbol_83">
</g>
<g id="New_Symbol_70">
</g>
<g id="New_Symbol_79">
</g>
<g id="New_Symbol_8">
</g>
<g id="New_Symbol_15" class="st110">
</g>
<g id="New_Symbol_16" class="st111">
</g>
<g id="New_Symbol_14" class="st110">
</g>
<g id="New_Symbol_67">
	<g id="New_Symbol_65_11_">
	</g>
</g>
<g id="New_Symbol_86">
	<g id="New_Symbol_82_2_">
	</g>
	<g id="New_Symbol_82_1_">
	</g>
</g>
<g id="New_Symbol_9">
</g>
<g id="New_Symbol_10">
</g>
<g id="New_Symbol_12">
</g>
<g id="New_Symbol_13">
</g>
<g id="New_Symbol_84">
	<g id="New_Symbol_65_10_">
	</g>
</g>
<g id="New_Symbol_87">
</g>
<g id="New_Symbol_91">
</g>
<g id="New_Symbol_89">
</g>
<g id="New_Symbol_94">
</g>
<g id="New_Symbol_68">
</g>
<g id="New_Symbol_66">
</g>
<g id="New_Symbol_90">
</g>
<g>
	<g id="XMLID_370_">
		<g id="XMLID_375_" class="st57">
			<polygon id="XMLID_377_" class="st58" points="438.9,195.7 429.6,127.5 422.9,112.9 386.1,37.1 378.7,10.2 334.3,0 296.1,10.1 
				226.6,54.3 120,21.1 84.9,43.1 68.6,125.7 60.9,196.6 			"/>
			<polygon id="XMLID_376_" class="st59" points="423.7,195.2 394.8,118.6 355.6,131.2 354.6,45.9 237.5,86.6 158.9,50.3 150,97.9 
				121.4,78.7 66.8,196.6 			"/>
		</g>
		<polygon id="XMLID_374_" class="st58" points="433,195.7 429.6,127.5 389.6,19.4 355.3,0 226.6,54.3 121.2,34.7 95.5,73.9 
			66.1,148.4 60.9,196.6 		"/>
		<polygon id="XMLID_371_" class="st61" points="432.4,195.7 208.6,97.5 221.8,54.3 124.7,13.8 91.5,19.4 76.9,43.1 60.2,125.7 
			52.3,196.6 		"/>
	</g>
	<linearGradient id="XMLID_158_" gradientUnits="userSpaceOnUse" x1="372.8" y1="192.0356" x2="372.8" y2="212.5657">
		<stop  offset="0.2235" style="stop-color:#F6F3EC"/>
		<stop  offset="0.3277" style="stop-color:#F6F3EC;stop-opacity:0.6723"/>
		<stop  offset="0.793" style="stop-color:#F6F3EC;stop-opacity:0"/>
	</linearGradient>
	<path id="XMLID_369_" class="st70" d="M536.2,207.6c-96.5-8.5-96.1-19.4-137.2-26.7c-9.6-1.7-18.3-2.4-26.2-2.3
		c-7.9-0.1-16.6,0.6-26.2,2.3c-41.1,7.4-40.7,18.2-137.2,26.7c-11.7,1,95.4,14.7,137.2,14.7c9.2,0,43.2,0,52.4,0
		C440.7,222.3,547.9,208.6,536.2,207.6z"/>
	<g>
		<path class="st63" d="M282.5,190.1c0,0,3.2,2.2,5.9,1.2c0,0,0.2-2.4-3.1-5.1l-1.2,1.7l-16.9-12.2l-0.3,0.4l16.9,12.2L282.5,190.1z
			"/>
		<g>
			<g>
				<path class="st74" d="M284,175.1c0,0-1.4-6.4-2.7-8.8c0,0-0.4,4.3-2.5,4.8L284,175.1z"/>
				<path class="st41" d="M281.9,177.4c-1.1,1.5-3.1,1.9-4.6,0.8l0,0c-1.5-1.1-1.9-3.1-0.8-4.6l0,0c1.1-1.5,3.1-1.9,4.6-0.8l0,0
					C282.6,173.8,282.9,175.9,281.9,177.4L281.9,177.4z"/>
				<g>
					<path class="st42" d="M282.1,174c-0.2-0.5-0.6-0.9-1-1.2c-1.5-1.1-3.6-0.7-4.6,0.8c-0.5,0.7-0.7,1.4-0.6,2.2
						C278.9,176.9,281.2,175,282.1,174z"/>
				</g>
				<path class="st41" d="M279.4,176.7l0-3c0,0-2.8,2.8-0.7,3.6L279.4,176.7z"/>
				<path class="st34" d="M283.6,175.8c-0.1,0.2-0.4,0.2-0.6,0.1l-5.4-3.8c-0.2-0.1-0.2-0.4-0.1-0.6l0.5-0.7
					c0.1-0.2,0.4-0.2,0.6-0.1l5.4,3.8c0.2,0.1,0.2,0.4,0.1,0.6L283.6,175.8z"/>
				<circle class="st42" cx="281.1" cy="176.3" r="0.6"/>
				<path class="st74" d="M275.3,186.5c-1.1,1.5-3.1,1.9-4.6,0.8c-1.5-1.1-1.9-3.1-0.8-4.6l2.6-3.7c1.1-1.5,3.1-1.9,4.6-0.8
					c1.5,1.1,1.9,3.1,0.8,4.6L275.3,186.5z"/>
				<polyline class="st34" points="272.5,188.5 272.5,192.6 270.8,192.6 270.8,188.5 				"/>
				<path class="st74" d="M271.2,186.3c1.2,0,1.3,0.6,1.3,1.2v2.5h-1.7v-2.8L271.2,186.3z"/>
				<path class="st42" d="M270.6,192.3h2c0.7,1.3,2.4,1.3,2.7,0.4c0,0,0.9,1.8-3.2,1.5C271.1,194.1,270.3,193.2,270.6,192.3z"/>
				
					<rect x="269.7" y="183.1" transform="matrix(0.8164 0.5775 -0.5775 0.8164 156.3246 -123.9019)" class="st42" width="6.6" height="1.7"/>
				
					<rect x="275.5" y="184.8" transform="matrix(0.8163 0.5776 -0.5776 0.8163 157.9288 -125.1328)" class="st65" width="0.5" height="1.9"/>
			</g>
			<path class="st41" d="M281.6,177l2,2.5c0.3,0.2,0,0.6-0.4,0.3l-3-2.2L281.6,177z"/>
		</g>
		<polygon class="st74" points="280.5,184.3 276.7,181.4 275.8,183.3 279.7,186.1 		"/>
		<circle class="st41" cx="280.3" cy="185.4" r="1.3"/>
	</g>
	<linearGradient id="SVGID_1_" gradientUnits="userSpaceOnUse" x1="203.3312" y1="216.9014" x2="203.3312" y2="202.7982">
		<stop  offset="4.384121e-02" style="stop-color:#FFFFFF;stop-opacity:0"/>
		<stop  offset="0.3946" style="stop-color:#FFFFFF;stop-opacity:0.6723"/>
		<stop  offset="0.5318" style="stop-color:#FFFFFF"/>
	</linearGradient>
	<path class="st52" d="M405.4,218.4c7.7-6-22.7-7.1-24.8-7.4c-60.2-6.9-60-15.6-85.6-21.5c-6-1.4-11.4-1.9-16.3-1.8
		c-3.8-0.1-7.9,0.3-12.3,1c-4.3-8.7-6.6-15.8-6.6-15.8c-3.2-11.5-18.6-20.8-34.6-20.8c-1.4,0-2.8,0.1-4.1,0.2
		c-1.4-0.1-2.8-0.2-4.3-0.2c-1.8,0-3.5,0.1-5.2,0.4c0.5-11.4-10.4-19.8-27.7-19.8c-1.9,0-3.8,0.1-5.6,0.3c-1.7-0.2-3.5-0.3-5.4-0.3
		c-20.8,0-42.9,12.2-49.4,27.1c0,0-5.3,10.8-13.8,23.4c-2.4-0.3-4.8-0.3-7.2-0.2c-6.7,0.4-13,2.2-19.2,3.9
		c-27.7,7.8-55.5,18.4-83.2,31.5H405.4z"/>
	<g>
		<g>
			<circle class="st41" cx="46.8" cy="193.5" r="1.3"/>
			<path class="st74" d="M41.2,181.9c0,0,2.7-5.7,5.2-6.9c0,0-1.3,5.3,0.1,7L41.2,181.9z"/>
			<path class="st41" d="M47.2,185c0,1.8-1.5,3.3-3.3,3.3l0,0c-1.8,0-3.3-1.5-3.3-3.3l0,0c0-1.8,1.5-3.3,3.3-3.3l0,0
				C45.8,181.6,47.2,183.1,47.2,185L47.2,185z"/>
			<path class="st34" d="M47.7,182.6c0,0.2-0.2,0.4-0.4,0.4h-6.6c-0.2,0-0.4-0.2-0.4-0.4v-0.8c0-0.2,0.2-0.4,0.4-0.4h6.6
				c0.2,0,0.4,0.2,0.4,0.4V182.6z"/>
			<circle class="st42" cx="42.5" cy="184.5" r="0.6"/>
			<circle class="st42" cx="45.2" cy="184.5" r="0.6"/>
			<rect x="35.2" y="189.6" class="st74" width="6.6" height="1.9"/>
			<path class="st74" d="M47.1,196.2c0,1.8-1.5,3.3-3.3,3.3c-1.8,0-3.3-1.5-3.3-3.3v-4.6c0-1.8,1.5-3.3,3.3-3.3
				c1.8,0,3.3,1.5,3.3,3.3V196.2z"/>
			<polyline class="st34" points="41.9,198.3 41.9,204 43.6,204 43.6,198.3 			"/>
			<polyline class="st74" points="41.9,198.3 41.9,201.3 43.6,201.3 43.6,198.3 			"/>
			<path class="st42" d="M43.7,203.6h-2c-0.7,1.3-2.4,1.3-2.7,0.4c0,0-0.9,1.8,3.2,1.5C43.3,205.5,44.1,204.6,43.7,203.6z"/>
			<polyline class="st34" points="46.1,198.3 46.1,204 44.3,204 44.3,198.3 			"/>
			<polyline class="st74" points="46.1,198.3 46.1,201.3 44.3,201.3 44.3,198.3 			"/>
			<path class="st42" d="M44.2,203.6h2c0.7,1.3,2.4,1.3,2.7,0.4c0,0,0.9,1.8-3.2,1.5C44.6,205.5,43.9,204.6,44.2,203.6z"/>
			<g>
				<rect x="43.5" y="188.3" class="st34" width="0.6" height="8.9"/>
			</g>
			<rect x="40.4" y="194.5" class="st42" width="6.6" height="1.7"/>
			<rect x="42.9" y="194.4" class="st65" width="1.7" height="1.9"/>
			<circle class="st34" cx="46.9" cy="174.4" r="0.7"/>
			<path class="st41" d="M40.6,184.3l-1.1-1.5c0,0-0.6,3.9,1.5,3.4L40.6,184.3z"/>
			<path class="st41" d="M46.9,184.3l1.1-1.5c0,0,0.6,3.9-1.5,3.4L46.9,184.3z"/>
			<circle class="st41" cx="35.3" cy="190.5" r="1.3"/>
		</g>
		<path class="st63" d="M37.7,187.5c0,0-0.1-3.9-2.4-5.5c0,0-2.1,1.2-2.3,5.5h2.1v17.9h0.5v-17.9H37.7z"/>
	</g>
	<g>
		<g>
			<circle class="st41" cx="173.2" cy="134.9" r="1.3"/>
			<path class="st68" d="M178.9,123.3c0,0-2.7-5.7-5.2-6.9c0,0,1.3,5.3-0.1,7L178.9,123.3z"/>
			<path class="st41" d="M172.8,126.3c0,1.8,1.5,3.3,3.3,3.3l0,0c1.8,0,3.3-1.5,3.3-3.3l0,0c0-1.8-1.5-3.3-3.3-3.3l0,0
				C174.3,123,172.8,124.5,172.8,126.3L172.8,126.3z"/>
			<path class="st34" d="M172.3,124c0,0.2,0.2,0.4,0.4,0.4h6.6c0.2,0,0.4-0.2,0.4-0.4v-0.8c0-0.2-0.2-0.4-0.4-0.4h-6.6
				c-0.2,0-0.4,0.2-0.4,0.4V124z"/>
			<circle class="st42" cx="177.6" cy="125.9" r="0.6"/>
			<circle class="st42" cx="174.8" cy="125.9" r="0.6"/>
			<rect x="178.2" y="130.9" class="st68" width="6.6" height="1.9"/>
			<path class="st68" d="M173,137.6c0,1.8,1.5,3.3,3.3,3.3c1.8,0,3.3-1.5,3.3-3.3V133c0-1.8-1.5-3.3-3.3-3.3c-1.8,0-3.3,1.5-3.3,3.3
				V137.6z"/>
			<polyline class="st34" points="178.2,139.6 178.2,145.3 176.4,145.3 176.4,139.6 			"/>
			<polyline class="st68" points="178.2,139.6 178.2,142.7 176.4,142.7 176.4,139.6 			"/>
			<path class="st42" d="M176.3,145h2c0.7,1.3,2.4,1.3,2.7,0.4c0,0,0.9,1.8-3.2,1.5C176.8,146.9,176,145.9,176.3,145z"/>
			<polyline class="st34" points="174,139.6 174,145.3 175.7,145.3 175.7,139.6 			"/>
			<polyline class="st68" points="174,139.6 174,142.7 175.7,142.7 175.7,139.6 			"/>
			<path class="st42" d="M175.9,145h-2c-0.7,1.3-2.4,1.3-2.7,0.4c0,0-0.9,1.8,3.2,1.5C175.4,146.9,176.2,145.9,175.9,145z"/>
			<g>
				<rect x="176" y="129.7" class="st34" width="0.6" height="8.9"/>
			</g>
			<rect x="173" y="135.9" class="st42" width="6.6" height="1.7"/>
			<rect x="175.4" y="135.8" class="st65" width="1.7" height="1.9"/>
			<circle class="st34" cx="173.1" cy="115.8" r="0.7"/>
			<path class="st41" d="M179.5,125.6l1.1-1.5c0,0,0.6,3.9-1.5,3.4L179.5,125.6z"/>
			<path class="st41" d="M173.1,125.6l-1.1-1.5c0,0-0.6,3.9,1.5,3.4L173.1,125.6z"/>
			<circle class="st41" cx="184.8" cy="131.9" r="1.3"/>
		</g>
		<path class="st63" d="M182.3,128.9c0,0,0.1-3.9,2.4-5.5c0,0,2.1,1.2,2.3,5.5H185v17.9h-0.5v-17.9H182.3z"/>
	</g>
	<g>
		<path class="st63" d="M444.7,206.5c0,0-3.2,2.2-5.9,1.2c0,0-0.2-2.4,3.1-5.1l1.2,1.7l16.9-12.2l0.3,0.4l-16.9,12.2L444.7,206.5z"
			/>
		<g>
			<g>
				<path class="st37" d="M443.2,191.5c0,0,1.4-6.4,2.7-8.8c0,0,0.4,4.3,2.5,4.8L443.2,191.5z"/>
				<path class="st41" d="M445.3,193.8c1.1,1.5,3.1,1.9,4.6,0.8l0,0c1.5-1.1,1.9-3.1,0.8-4.6l0,0c-1.1-1.5-3.1-1.9-4.6-0.8l0,0
					C444.6,190.2,444.3,192.3,445.3,193.8L445.3,193.8z"/>
				<g>
					<path class="st42" d="M445.1,190.4c0.2-0.5,0.6-0.9,1-1.2c1.5-1.1,3.6-0.7,4.6,0.8c0.5,0.7,0.7,1.4,0.6,2.2
						C448.3,193.3,446,191.4,445.1,190.4z"/>
				</g>
				<path class="st41" d="M447.8,193.1l0-3c0,0,2.8,2.8,0.7,3.6L447.8,193.1z"/>
				<path class="st34" d="M443.6,192.1c0.1,0.2,0.4,0.2,0.6,0.1l5.4-3.8c0.2-0.1,0.2-0.4,0.1-0.6l-0.5-0.7c-0.1-0.2-0.4-0.2-0.6-0.1
					l-5.4,3.8c-0.2,0.1-0.2,0.4-0.1,0.6L443.6,192.1z"/>
				<circle class="st42" cx="446.1" cy="192.7" r="0.6"/>
				<path class="st37" d="M451.9,202.9c1.1,1.5,3.1,1.9,4.6,0.8c1.5-1.1,1.9-3.1,0.8-4.6l-2.6-3.7c-1.1-1.5-3.1-1.9-4.6-0.8
					c-1.5,1.1-1.9,3.1-0.8,4.6L451.9,202.9z"/>
				<polyline class="st34" points="454.7,204.9 454.7,209 456.4,209 456.4,204.9 				"/>
				<path class="st37" d="M456,202.7c-1.2,0-1.3,0.6-1.3,1.2v2.5h1.7v-2.8L456,202.7z"/>
				<path class="st42" d="M456.5,208.7h-2c-0.7,1.3-2.4,1.3-2.7,0.4c0,0-0.9,1.8,3.2,1.5C456.1,210.5,456.9,209.6,456.5,208.7z"/>
				
					<rect x="450.9" y="199.5" transform="matrix(-0.8164 0.5775 -0.5775 -0.8164 940.6251 101.5141)" class="st42" width="6.6" height="1.7"/>
				
					<rect x="451.2" y="201.2" transform="matrix(-0.8164 0.5775 -0.5775 -0.8164 936.7925 106.458)" class="st65" width="0.5" height="1.9"/>
			</g>
			<path class="st41" d="M445.6,193.4l-2,2.5c-0.3,0.2,0,0.6,0.4,0.3l3-2.2L445.6,193.4z"/>
		</g>
		<polygon class="st37" points="446.7,200.7 450.5,197.7 451.4,199.7 447.5,202.5 		"/>
		<circle class="st41" cx="446.9" cy="201.8" r="1.3"/>
		<g>
			<path class="st42" d="M452.8,191.7c0.8,0.1,1.5-0.2,2-0.7c-0.3-0.6-1-1.1-1.7-1.2c-0.8-0.1-1.5,0.2-2,0.7
				C451.4,191.2,452,191.6,452.8,191.7z"/>
		</g>
	</g>
</g>
<g id="New_Symbol_71">
	<g id="New_Symbol_65_9_">
	</g>
</g>
<g id="New_Symbol_73">
	<g id="New_Symbol_64_2_">
	</g>
</g>
<g id="New_Symbol_74">
	<g id="New_Symbol_65_8_">
	</g>
</g>
<g id="New_Symbol_92">
</g>
<g id="New_Symbol_93">
	<g id="New_Symbol_64_1_" class="st347">
	</g>
</g>
<g id="New_Symbol_76">
	<g id="New_Symbol_65_7_">
	</g>
</g>
<g id="New_Symbol_77">
</g>
<g id="New_Symbol_78">
	<g id="New_Symbol_65_6_">
	</g>
</g>
<g id="New_Symbol_80">
</g>
<g id="XMLID_193_">
	<g id="New_Symbol_13_2_">
	</g>
</g>
<g id="New_Symbol_82">
</g>
<g id="New_Symbol_96">
</g>
<g id="New_Symbol_98">
	<g id="New_Symbol_65_5_">
	</g>
</g>
<g id="New_Symbol_97">
</g>
<g id="New_Symbol_99">
</g>
<g id="New_Symbol_100">
</g>
<g id="New_Symbol_101">
</g>
<g id="New_Symbol_102">
</g>
<g id="New_Symbol_103">
</g>
<g id="New_Symbol_105">
</g>
<g id="New_Symbol_105_1_">
</g>
<g id="New_Symbol_113">
	<g id="New_Symbol_65_4_">
	</g>
	<g id="New_Symbol_65_3_">
	</g>
	<g id="New_Symbol_65_2_">
	</g>
	<g id="New_Symbol_13_1_">
	</g>
</g>
<g id="New_Symbol_106">
</g>
<g id="New_Symbol_107">
</g>
<g id="New_Symbol_108">
</g>
<g id="New_Symbol_109">
</g>
<g id="New_Symbol_111">
</g>
<g id="_x5C_">
</g>
<g id="New_Symbol_114">
	<g id="New_Symbol_65_1_">
	</g>
</g>
<g id="New_Symbol_141">
</g>
<g id="New_Symbol_112">
</g>
<g id="New_Symbol_118">
</g>
<g id="New_Symbol_121">
</g>
<g id="New_Symbol_120">
	<g id="New_Symbol_119">
	</g>
</g>
<g id="New_Symbol_65">
</g>
<g id="New_Symbol_64" class="st347">
</g>
<g id="New_Symbol_140">
</g>
<g id="New_Symbol_110">
</g>
</svg>
