<svg id="slice" xmlns="http://www.w3.org/2000/svg" width="411.8" height="281.7" viewBox="0 0 411.8 281.7"><style>.st0{opacity:.11;fill:#231f20}.st1{fill:#94917f}.st2{fill:#baafa2}.st3{fill:#785768}.st4{fill:#aaa89a}.st5{opacity:.1}.st6{fill:#8ce1f9}.st7{fill:#ceccbf}.st8{fill:#8d667a}.st9{fill:#918c84}.st10{fill:#c2beb6}.st11{fill:#f0e1d1}.st12{fill:#b6b4a8}.st13{fill:#94938a}.st14{fill:#7d7c71}.st15{fill:#633b4f}.st16{fill:#85837d}.st17{fill:#8a7665}.st18{fill:#6a695c}.st19{fill:#b9b7a4}.st20{fill:#2f9f42}.st21{opacity:.13}.st22{opacity:.2;fill:#231f20}.st23{fill:#d53e2e}.st24{fill:#003673}.st25{fill:#f09a1a}.st26{fill:#fdbf0f}.st27{fill:#736357}.st28{fill:#d84637}.st29{fill:#00a9e9}.st30{fill:#ffde00}.st31{fill:#48b780}.st32{fill:#7c6959}.st33{fill:#d3ae6e}.st34{fill:#fff}.st35{fill:#ffe95a}.st36{fill:#ffc300}.st37{fill:#f27b20}.st38{fill:#ee3837}.st39{fill:#4c8bfb}.st40{fill:#b757c5}.st41{fill:#ffdf8a}.st42{fill:#333}.st43{fill:#6a57ab}.st44{fill:#5d377a}.st45{fill:#393939}.st46{fill:#fde08b}.st47{fill:#dc3126}.st48{fill:#fdd500}.st49{fill:#515c5d}.st50{fill:#7d8586}.st51{fill:#afd136}.st52{fill:url(#SVGID_1_)}.st53{fill:url(#SVGID_2_)}.st54{fill:#e8d184}.st55{fill:#ca7836}.st56{fill:#54d184}.st57{opacity:.48}.st58{opacity:.5;fill:#75cef4}.st59{opacity:.5;fill:#00bff0}.st60{opacity:.5;fill:#e6f6fd}.st61{opacity:.48;fill:#75cef4}.st62{fill:url(#SVGID_3_)}.st63{fill:gray}.st64{fill:#8f4293}.st65{fill:#ffd400}.st66{fill:url(#SVGID_4_)}.st67{fill:#28ae4b}.st68{fill:#e64436}.st69{fill:url(#SVGID_5_)}.st70{fill:url(#XMLID_113_)}.st71{opacity:.17;fill:#fff}.st72{fill:url(#SVGID_6_)}.st73{fill:url(#SVGID_7_)}.st74{fill:#00b2ee}.st75{fill:#b89860}.st76{fill:#b0b0b0}.st77{fill:#864537}.st78{fill:#fbcf99}.st79{fill:#fbcd48}.st80{fill:#fd0}.st81{fill:#d2392c}.st82{fill:url(#SVGID_8_)}.st83{fill:url(#SVGID_9_)}.st84{fill:url(#SVGID_10_)}.st85{fill:url(#SVGID_11_)}.st86{fill:url(#XMLID_213_)}.st87{fill:#afd77d}.st88{opacity:.1;fill:#231f20}.st89{fill:#7cb342}.st90{fill:#f9ce1d}.st91{fill:#ffe36c}.st92{fill:#5e35b1}.st93{fill:#9575cd}.st94{fill:#29b6f6}.st95{fill:#4ad0ff}.st96{fill:#9dce2e}.st97{fill:#e53935}.st98{fill:#f94b4b}.st99{fill:#fb8c00}.st100{fill:#fc9f42}.st101{fill:#9dca3b}.st102{fill:#66a622}.st103{fill:#ffb300}.st104{fill:#f57c00}.st105{fill:#a1cacf}.st106{fill:#dff3f5}.st107{fill:#bad7db}.st108{fill:#c3dfe3}.st109{fill:#bcdee3}.st110{opacity:.5}.st111{opacity:.8}.st112{fill:url(#XMLID_215_)}.st113{fill:url(#SVGID_12_)}.st114{fill:#f6f3ec}.st115{fill:#d7d7d7}.st116{fill:#959d9e}.st117{fill:#b3b3b3}.st118{fill:#e0e0e0}.st119{fill:#4d4d4d}.st120{fill:#595959}.st121{fill:#ffeb5e}.st122{fill:#6d7576}.st123{fill:#c9e09d}.st124{fill:#8f8f8f}.st125{fill:#5c6566}.st126{fill:#a19e97}.st127{fill:#61c6ec}.st128{fill:#77bf82}.st129{fill:#f3ff73}.st130{fill:url(#XMLID_218_)}.st131{fill:url(#SVGID_13_)}.st132{fill:url(#SVGID_14_)}.st133{fill:url(#XMLID_221_)}.st134{fill:#555047}.st135{fill:#896339}.st136{fill:#736f68}.st137{fill:#949494}.st138{fill:#83dee8}.st139{fill:#85827d}.st140{opacity:.2}.st141{fill:#404040}.st142{fill:silver}.st143{fill:#eee}.st144{fill:#44c2c2}.st144,.st145{clip-path:url(#SVGID_16_)}.st145{fill:#a3d89f}.st146{fill:#c83a74}.st146,.st147{clip-path:url(#SVGID_16_)}.st147{fill:#ffa376}.st148{opacity:.24}.st149{opacity:.48;fill:#85827d}.st150{opacity:.48;fill:none;stroke:#85827d;stroke-width:.9;stroke-miterlimit:10}.st151{opacity:.83;fill:#85827d}.st152{fill:#888480}.st153{fill:#7099ba}.st154{fill:#b0e1e8}.st155{opacity:.22;fill:#fff}.st156{fill:url(#XMLID_230_)}.st157{fill:url(#SVGID_17_)}.st158{fill:url(#SVGID_18_)}.st159{fill:url(#XMLID_231_)}.st160{fill:#9db9bd}.st161{fill:#d1e3e6}.st162{fill:#b6d6db}.st163{fill:#9ccfd9}.st164{fill:#b4d3d9}.st165{fill:#97babf}.st166{fill:#c1dff5}.st167{fill:#c5e7eb}.st168{fill:#8ab8d4}.st169{fill:#e6e6e6}.st170{fill:#716e69}.st171{fill:#71bdde}.st172{fill:#659bc7}.st173{fill:#70afd4}.st174{fill:none}.st175{fill:#97cee6}.st176{opacity:8e-2;fill:#0f0f0f}.st177{opacity:.1;fill:#0f0f0f}.st178{fill:#385fe4}.st179{fill:#ccc}.st180{fill:#2986e4}.st181{opacity:.21}.st182{clip-path:url(#SVGID_20_)}.st183{filter:url(#Adobe_OpacityMaskFilter)}.st184{mask:url(#SVGID_21_);fill:#33659a}.st185{filter:url(#Adobe_OpacityMaskFilter_1_)}.st186{mask:url(#SVGID_22_);fill:#385fe4}.st187{filter:url(#Adobe_OpacityMaskFilter_2_)}.st188{opacity:.17;mask:url(#SVGID_23_)}.st189{clip-path:url(#SVGID_25_)}.st190{opacity:.77}.st191{fill:#e8c97b}.st192{fill:#2d56e2}.st193{opacity:.11}.st194{fill:#0bbf68}.st195{fill:#98bee4}.st196{fill:#3f5656}.st197{fill:#d7c17d}.st198{opacity:.2;fill:#fff}.st199{fill:url(#SVGID_26_)}.st200{fill:url(#XMLID_342_)}.st201{fill:url(#SVGID_27_)}.st202{fill:url(#XMLID_352_)}.st203{fill:#9c9c9c}.st204{fill:#808082}.st205{fill:#9ed5ec}.st206{fill:#cacaca}.st207{fill:#e3e3e3}.st208{fill:#979797}.st209{fill:#9e9e9e}.st210{opacity:.58;fill:#c7ffff}.st211{opacity:.25}.st212{fill:#a52e22}.st213{fill:#e63636}.st214{fill:url(#XMLID_360_)}.st215{fill:url(#XMLID_362_)}.st216{fill:#969696}.st217{fill:#0158bb}.st218{fill:#1565c0}.st219{fill:#3dd1f9}.st220{fill:#f5a816}.st221{fill:#c62828}.st222{fill:#bdbdbd}.st223{fill:#a5a5a5}.st224{fill:#424242}.st225{fill:#e6e7e8}.st226{clip-path:url(#SVGID_31_);fill:#fff}.st227{fill:#e91c24}.st227,.st228{clip-path:url(#SVGID_31_)}.st228{fill:#1976d2}.st229{fill:#4d8acf}.st230{fill:none;stroke:#fff;stroke-width:.9;stroke-miterlimit:10}.st231{fill:#00adee}.st232{clip-path:url(#SVGID_33_);fill:#fff}.st233{fill:#dbdbdb}.st234{fill:url(#SVGID_34_)}.st235{fill:url(#SVGID_35_)}.st236{fill:url(#SVGID_36_)}.st237{fill:url(#SVGID_37_)}.st238{fill:url(#SVGID_38_)}.st239{fill:url(#SVGID_39_)}.st240{fill:url(#SVGID_40_)}.st241{fill:url(#SVGID_41_)}.st242{fill:#f7ce97}.st243{fill:#4c4c4c}.st244{fill:#e9e9e9}.st245{fill:#eb9b95}.st246{fill:#656565}.st247{fill:#5e5a48}.st248{fill:url(#SVGID_42_)}.st249{fill:url(#SVGID_43_)}.st250{fill:#999}.st251{opacity:.36;fill:#00a64c}.st252{fill:#d4d4d4}.st252,.st253{fill-rule:evenodd;clip-rule:evenodd}.st253{fill:#fff}.st254{fill:#008141}.st254,.st255{fill-rule:evenodd;clip-rule:evenodd}.st255{fill:#00a64c}.st256{fill:#28b265}.st257{opacity:.4;fill:#ffe000}.st258{fill:#c8cbcc}.st259{fill:#b8b8b8}.st260{fill:#949496}.st261{fill:#c8ead4}.st262{fill:#7d8485}.st263{fill:#2364d5}.st264{fill:url(#XMLID_368_)}.st265{fill:url(#SVGID_44_)}.st266{fill:url(#SVGID_45_)}.st267{fill:url(#SVGID_46_)}.st268{fill:#8700ee}.st269{fill:#00b533}.st270{fill:#eeda00}.st271{fill:#f2206d}.st272{fill:#6299fb}.st273{opacity:.7;fill:url(#SVGID_47_)}.st274{opacity:.7;fill:url(#SVGID_48_)}.st275{opacity:.7;fill:url(#SVGID_49_)}.st276{fill:#ee5e5d}.st277{fill:#e09d17}.st278{fill:#f0ede9}.st279{clip-path:url(#SVGID_51_)}.st280{fill:#eec85c}.st281{opacity:.32;fill:#9a0000}.st282{fill:#f0f0f0}.st283{fill:#81d4fa}.st284{opacity:.49;fill:#c9edfc}.st285{fill:#d8746a}.st286{fill:#fcbe8d}.st287{fill:#00a9e7}.st288{fill:#6a7173}.st289{opacity:.6}.st290{fill:url(#SVGID_52_)}.st291{fill:url(#SVGID_53_)}.st292{fill:url(#XMLID_388_)}.st293{fill:url(#SVGID_54_)}.st294{fill:url(#SVGID_55_)}.st295{fill:url(#SVGID_56_)}.st296{fill:url(#SVGID_57_)}.st297{fill:#67635d}.st298{fill:#999690}.st299{fill:#e6da91}.st300{opacity:.55;fill:#bbaf3e}.st301{fill:#a8a69b}.st302{clip-path:url(#SVGID_59_)}.st303{fill:url(#SVGID_60_)}.st304{fill:url(#SVGID_61_)}.st305{opacity:.1;clip-path:url(#SVGID_59_)}.st306{clip-path:url(#SVGID_63_)}.st307{fill:#e3e3e2}.st308{fill:#cf4140}.st309{fill:url(#SVGID_64_)}.st310{fill:url(#SVGID_65_)}.st311{fill:url(#SVGID_66_)}.st312{fill:url(#SVGID_67_)}.st313{fill:#666}.st314{fill:#c1161c}.st315{fill:#b47945}.st316{fill:#d9dadb}.st317{fill:#36af49}.st318{fill:#2a943e}.st319{fill:#9ea0a2}.st320{fill:#bebfc1}.st321{fill:#f5961d}.st322{fill:#ffef00}.st323{fill:#6d6d6d}.st324{fill:url(#SVGID_68_)}.st325{fill:url(#XMLID_391_)}.st326{fill:#795d00}.st327{fill:#bb8024}.st327,.st328{clip-path:url(#SVGID_70_)}.st328{opacity:.1}.st329{fill:#955d00}.st330{fill:#f38836}.st331{fill:url(#XMLID_392_)}.st332{fill:url(#SVGID_71_)}.st333{fill:url(#SVGID_72_)}.st334{fill:url(#XMLID_393_)}.st335{opacity:.99}.st336{fill:#e8af38}.st337{fill:#98ab00}.st338{fill:#e75c52}.st339{fill:#a9897d}.st340{fill:#cb9d7b}.st341{fill:#996b63}.st342{fill:#35b8e8}.st343{opacity:.12;fill:url(#SVGID_73_)}.st344{opacity:.12;fill:url(#SVGID_74_)}.st345{opacity:.28;fill:url(#SVGID_77_)}.st346{opacity:.2;clip-path:url(#SVGID_81_)}.st347{fill:#fff59c}.st348{fill:#ebdbce}.st349{fill:#b07a53}.st350{fill:#1185ba}.st351{fill:#1f57a1}.st351,.st352{opacity:.32}.st353{fill:#c28d65}.st354{fill:#eb776f}.st355{fill:#afdb39}.st356{fill:#ebdb57}.st357{opacity:.16}.st358{fill:#cba483}.st359{fill:url(#XMLID_394_)}.st360{fill:url(#SVGID_82_)}.st361{fill:url(#SVGID_83_)}.st362{fill:#bee6eb}.st363{fill:#f9df00}.st364{fill:#d84733}.st365{fill:#fce000}.st366{fill:#575757}.st367{fill:#b3b2b3}.st368{fill:#e5e5e4}.st369{fill:#d5302b}.st370{fill:url(#SVGID_84_)}.st371{fill:url(#SVGID_85_)}.st372{fill:#ec4180}.st373{fill:#fbcb54}.st374{fill:#7296f0}.st375{fill:#fc793d}.st376{opacity:.14}.st377{fill:#404144}.st378{fill:#606163}.st379{opacity:.3}.st380,.st381{fill:#d7b256}.st381{opacity:.38}.st382{fill:#3d3d39}.st383{fill:#393b36}.st384{opacity:.6;fill:#3bff65}.st385{opacity:.6;fill:#fc793d}.st386{clip-path:url(#SVGID_87_)}.st387{opacity:.29}.st388{fill:#9a51a8}.st389{fill:#fef6e0}.st390{fill:#a06ea9}.st391{fill:#353535}.st392{clip-path:url(#SVGID_89_);fill:#fff}.st393{opacity:.23;fill:#fff}.st394{opacity:.13;fill:#fff}.st395{opacity:5e-2}.st396{opacity:.45}.st397{opacity:.2}.st397,.st398{fill:#fff170}.st399{opacity:.21;fill:#fff}.st400{opacity:.1;fill:#fff}.st401{opacity:.27;fill:url(#SVGID_90_)}.st402{opacity:.27;fill:url(#SVGID_91_)}.st403{fill:url(#SVGID_92_)}.st404{fill:url(#SVGID_93_)}.st405{fill:#2850a8}.st406{fill:#286ee4}.st407{fill:#0053df}.st408{fill:#007dd0}.st409{fill:#2891e4}.st410{opacity:.72}.st411{opacity:.28;fill:url(#SVGID_94_)}.st412{opacity:.28;fill:url(#SVGID_95_)}.st413{fill:#2d6b7f}.st414,.st415{fill:#ff7c40}.st415{opacity:.21}.st416{opacity:.28;fill:url(#SVGID_96_)}.st417{opacity:.28;fill:url(#SVGID_97_)}.st418{opacity:.28;fill:url(#SVGID_98_)}.st419{opacity:.28;fill:url(#SVGID_99_)}.st420,.st421{fill:#ffee0a}.st421{opacity:.21}.st422{opacity:.28;fill:url(#SVGID_100_)}.st423{opacity:.28;fill:url(#SVGID_101_)}.st424,.st425{fill:#fd45ff}.st425{opacity:.21}.st426{opacity:.28;fill:url(#SVGID_102_)}.st427{opacity:.28;fill:url(#SVGID_103_)}.st428,.st429{fill:#52ff52}.st429{opacity:.21}.st430{opacity:.28;fill:url(#SVGID_104_)}.st431{opacity:.28;fill:url(#SVGID_105_)}.st432{opacity:.28;fill:url(#SVGID_106_)}.st433{opacity:.28;fill:url(#SVGID_107_)}.st434,.st435{fill:#59fff3}.st435{opacity:.21}.st436{opacity:.28;fill:url(#SVGID_108_)}.st437{opacity:.28;fill:url(#SVGID_109_)}.st438{opacity:.28;fill:url(#SVGID_110_)}.st439{opacity:.28;fill:url(#SVGID_111_)}.st440{opacity:.28;fill:url(#SVGID_112_)}.st441{opacity:.28;fill:url(#SVGID_113_)}.st442{opacity:.28;fill:url(#SVGID_114_)}.st443{opacity:.28;fill:url(#SVGID_115_)}.st444{opacity:.28;fill:url(#SVGID_116_)}.st445{opacity:.28;fill:url(#SVGID_117_)}.st446{opacity:.28;fill:url(#SVGID_118_)}.st447{opacity:.28;fill:url(#SVGID_119_)}.st448{opacity:.28;fill:url(#SVGID_120_)}.st449{opacity:.28;fill:url(#SVGID_121_)}.st450{opacity:.28;fill:url(#SVGID_122_)}.st451{opacity:.28;fill:url(#SVGID_123_)}.st452{opacity:.28;fill:url(#SVGID_124_)}.st453{opacity:.28;fill:url(#SVGID_125_)}.st454{opacity:.28;fill:url(#SVGID_126_)}.st455{opacity:.28;fill:url(#SVGID_127_)}.st456{opacity:.28;fill:url(#SVGID_128_)}.st457{opacity:.28;fill:url(#SVGID_129_)}.st458{opacity:.28;fill:url(#SVGID_130_)}.st459{opacity:.28;fill:url(#SVGID_131_)}.st460{opacity:.28;fill:url(#SVGID_132_)}.st461{opacity:.28;fill:url(#SVGID_133_)}.st462{opacity:.28;fill:url(#SVGID_134_)}.st463{opacity:.28;fill:url(#SVGID_135_)}.st464{opacity:.28;fill:url(#SVGID_136_)}.st465{opacity:.28;fill:url(#SVGID_137_)}.st466{opacity:.28;fill:url(#SVGID_138_)}.st467{opacity:.28;fill:url(#SVGID_139_)}.st468{opacity:.28;fill:url(#SVGID_140_)}.st469{opacity:.28;fill:url(#SVGID_141_)}.st470{opacity:.28;fill:url(#SVGID_142_)}.st471{opacity:.28;fill:url(#SVGID_143_)}.st472{opacity:.28;fill:url(#SVGID_144_)}.st473{opacity:.28;fill:url(#SVGID_145_)}.st474{opacity:.28;fill:url(#SVGID_146_)}.st475{opacity:.28;fill:url(#SVGID_147_)}.st476{opacity:.28;fill:url(#SVGID_148_)}.st477{opacity:.28;fill:url(#SVGID_149_)}.st478{opacity:.28;fill:url(#SVGID_150_)}.st479{opacity:.28;fill:url(#SVGID_151_)}.st480{opacity:.28;fill:url(#SVGID_152_)}.st481{opacity:.28;fill:url(#SVGID_153_)}.st482{opacity:.28;fill:url(#SVGID_154_)}.st483{opacity:.28;fill:url(#SVGID_155_)}.st484{opacity:.28;fill:url(#SVGID_156_)}.st485{opacity:.28;fill:url(#SVGID_157_)}.st486{opacity:.28;fill:url(#SVGID_158_)}.st487{opacity:.28;fill:url(#SVGID_159_)}.st488{opacity:.28;fill:url(#SVGID_160_)}.st489{opacity:.28;fill:url(#SVGID_161_)}.st490{opacity:.28;fill:url(#SVGID_162_)}.st491{opacity:.28;fill:url(#SVGID_163_)}.st492{opacity:.28;fill:url(#SVGID_164_)}.st493{opacity:.28;fill:url(#SVGID_165_)}.st494{opacity:.28;fill:url(#SVGID_166_)}.st495{opacity:.28;fill:url(#SVGID_167_)}.st496{opacity:.28;fill:url(#SVGID_168_)}.st497{opacity:.28;fill:url(#SVGID_169_)}.st498{opacity:.28;fill:url(#SVGID_170_)}.st499{opacity:.28;fill:url(#SVGID_171_)}.st500{opacity:.28;fill:url(#SVGID_172_)}.st501{opacity:.28;fill:url(#SVGID_173_)}.st502{fill:#898f90}.st503{opacity:.25;fill:#fff}.st504{fill:#00b8f0}.st505{fill:#00a7f0}.st506{opacity:.91;fill:url(#SVGID_174_)}.st507{opacity:.12;fill:#ffee0a}.st508{opacity:.62}.st509{fill:url(#SVGID_175_)}.st510{fill:url(#SVGID_176_)}.st511{fill:url(#SVGID_177_)}.st512{fill:url(#SVGID_178_)}.st513{fill:#7d857e}.st514{fill:#89908a}.st515{opacity:.91;fill:url(#SVGID_179_)}.st516{opacity:.12}.st516,.st517{fill:#78ff5e}.st518{fill:url(#SVGID_180_)}.st519{fill:url(#SVGID_181_)}.st520{fill:url(#SVGID_182_)}.st521{fill:url(#SVGID_183_)}.st522{fill:#85847d}.st523{fill:#908f89}.st524{opacity:.91;fill:url(#SVGID_184_)}.st525{opacity:.12;fill:#ff5e91}.st526{fill:#ff8373}.st527{fill:url(#SVGID_185_)}.st528{fill:url(#SVGID_186_)}.st529{fill:url(#SVGID_187_)}.st530{fill:url(#SVGID_188_)}.st531{fill:#5d6667}.st532{fill:url(#XMLID_395_)}.st533{fill:url(#XMLID_401_)}.st534{fill:url(#SVGID_189_)}.st535{fill:#b13837}.st536{fill:#3b627a}.st537{fill:url(#SVGID_190_)}.st538{fill:url(#XMLID_405_)}.st539{fill:url(#SVGID_191_)}.st540{fill:#754517}.st541{fill:#845930}.st542{fill:#a35f25}.st543{fill:#aa6c37}.st544{fill:#b07644}.st545{fill:#efdbc1}.st546{fill:#ffc805}.st547{fill:#231f20}.st548{fill:#00a351}.st549{fill:#084}.st550{fill:#ef6522}.st551{fill:#7a4b1f}.st552{fill:#32cbe6}.st553{fill:url(#SVGID_192_)}.st554{opacity:.1;fill:#005fd0}.st555{fill:#e6e5e1}.st556{fill:#7b9eb8}.st557{fill:#a5b3ad}.st558{fill:#c7c7c7}.st559{fill:url(#XMLID_412_)}.st560{fill:url(#SVGID_193_)}.st561{fill:url(#SVGID_194_)}.st562{fill:#388e3c}.st563{fill:#2e7d32}.st564{fill:#ffe18c}.st565{opacity:.25;fill:#29b6f6}.st566{fill:#414042}.st567{fill:#2f4c52}.st568{fill:#455d82}.st569{fill:#795548}.st570{fill:#d3d4d6}.st571{fill:#bcbec0}.st572{clip-path:url(#SVGID_196_)}.st573{fill:url(#SVGID_197_)}.st574{fill:url(#SVGID_198_)}.st575{clip-path:url(#SVGID_200_)}.st576{opacity:.5;fill:#f9ce1d}.st577{opacity:.28}.st578{fill:#d7d8d9}.st579{fill:#ebeced}.st580{fill:#ffd600}.st581{fill:#039be5}.st582{fill:url(#XMLID_418_)}.st583{fill:url(#SVGID_201_)}.st584{fill:#34d4f0}.st585{fill:#74e4f6}.st585,.st586{opacity:.51}.st587{fill:#74e4f6}.st588{fill:url(#XMLID_420_)}.st589{fill:#434fbf}.st590{opacity:.51}.st590,.st591{fill:#7182f0}.st592{opacity:.36}.st593{opacity:.38}.st594{opacity:.39;fill:#ffff5c}.st595{opacity:.58;fill:#fff}.st596{opacity:.19;fill:#73c1de}.st597{opacity:.19;fill:#7335de}.st598{fill:#f5f2e2}.st599{fill:#a3a2a1}.st600{fill:#5a99d1}.st601{fill:#b8a485}.st602{fill:#eee5d5}.st603{fill:#ffc}.st604{fill:#ffd200}.st605{fill:#f26e21}.st606{fill:#f5871f}.st607{fill:#cfcfcf}.st608{fill:#019049}.st609{fill:#07a860}.st610{fill:#ab00ee}.st611{fill:#93d8f7}.st612{fill:#725d4c}.st613{fill:#028f1f}.st614{fill:#0da760}.st615{fill:#f4c138}.st616{fill:#f9646d}</style><g id="New_Symbol_87"><path class="st34" d="M310.7 243.5h13.6c.6 0 1-.5 1-1v-.3c0-.6-.5-1-1-1h-1.9v-.2c0-.6-.5-1-1-1h-7.7c-.6 0-1 .5-1 1v.1h-1.9c-.6 0-1 .5-1 1v.3c-.1.6.3 1.1.9 1.1z"/><path class="st34" d="M405.8 240.4h-9.5c-5.3-4.5-14.7-8.1-21-8.1H305l-1.3-1.3c-.3-.3-1.4-1.7-2-2.2.5-1 .8-2 .8-3.1h4.1v.5c0 .7.6 1.3 1.3 1.3h7c.7 0 1.3-.6 1.3-1.3v-.4c0-.7-.6-1.3-1.3-1.3h-4.4c-1.9-4.1-13.7-7.3-19.5-7.3h-50.8c.2-.5.2-1.1.2-1.6-.4-2.3-3.2-3.9-6.3-3.6l-13.8 1.3c1.8-.6 2.9-2 2.6-3.5-.3-1.8-2.6-3.1-5.1-2.9l-11 1c.5-.5.7-1.1.6-1.7-.2-1.3-1.9-2.3-3.7-2.1l-25.2 2.4c-1.8.2-3.1 1.4-2.9 2.7.1.6.5 1.2 1.2 1.6l-24.4 2.3c-2.5.2-4.3 1.9-3.9 3.8.3 1.8 2.6 3.1 5.1 2.9l15.8-1.5c-2.2.7-3.6 2.4-3.3 4.3.4 2.3 3.2 3.9 6.3 3.6l17.8-1.7c-.1.4-.1.7-.1 1.1 0 .3 0 .6.1.9l-9.6.9c-2 .2-3.4 1.6-3.2 3 .2.9.9 1.6 1.8 2h-28.1c-2.7 0-6.7 1.5-8.9 3.5s-1.9 3.5.8 3.5h8.6c-2.3 1-4.4 2.2-6 3.7-2.6 2.3-2.8 4.3-.9 5.1h-27c-18.6 0-29.9 3.8-35.5 8.4-5.6 4.7-5.1 8.4 1.2 8.4h37c-2.5 1.1-4.4 2.6-4.4 4.3 0 0-15.4 7.7 5.2 7.7H288c20.6 0 5.2-7.7 5.2-7.7 0-.2 0-.5-.1-.7 11.1 0 22.3-.2 33.4-1.1 2.9-.2 6-.5 8.5-2 .3-.1.5-.3.7-.5H347c1.8 0 3.2-1.5 3.2-3.2v-1c0-1.8-1.5-3.2-3.2-3.2h-18.3c-.2-.1-.3-.1-.5-.2-.4-.1-.8-.2-1.1-.2H316c-.7 0-1.3-.2-1.8-.5-3.6-.7-1.1-3.9 2.9-3.9l11-.2c3.3-.8 4.6-1.8 4.6-2.8h15.7c1.4 0 2.7-.4 3.8-1.1h55.2c6.3-.1 5.9-5.9-1.6-8.3zm-211.5-8.1h-6.7l5.8-.6.9.6z"/><path class="st197" d="M302.1 211.5c-41.9 0-151.5-93-151.5-119.5s33.9-48 75.8-48 75.8 21.5 75.8 48l-.1 119.5z"/><ellipse class="st22" cx="228.9" cy="251.1" rx="126" ry="8.6"/><path class="st103" d="M274.9 98.9c-2.8 22.5-21.9 40.1-51.5 40.1s-54-17.6-56.9-40.1h-16.3v154.8h152V98.9h-27.3z"/><path class="st197" d="M126.5 86.6h151.6V173H126.5z"/><g class="st5"><path d="M205.6 88h-1.9l-3.9-14.6c-.2-1.3-1.2-2.4-2.4-2.8-.4-.1-.8-.2-1.3-.2h-1.3c-.3 0-.6.1-.9.1-1.4.4-2.5 1.5-2.7 2.9L187.5 88h-1.9v72h20.1v-9.8h.1V88h-.2z"/><path class="st34" d="M185.1 160.5V87.6h2l3.8-14.3c.2-1.1.9-2.1 1.8-2.7l-.4-.1 1.6-.4c.4-.1.7-.1 1-.1h1.3c.5 0 1 .1 1.4.3 1.4.5 2.4 1.7 2.7 3.2l3.8 14.2h2.1v63.1h-.1v9.8l-21-.1zm.9-72v71.1h19.2v-9.8h.1V88.5h-1.9l-3.9-14.9c-.2-1.2-1-2.1-2.1-2.5-.4-.1-.7-.2-1.1-.2h-1.8l-.3.1c-1.2.3-2.2 1.3-2.4 2.6l-3.9 15-1.9-.1z"/><path d="M278.3 103.2V88h-1.9l-.2-.8-3.6-13.8c-.3-1.5-1.5-2.7-3-3-.2 0-.5-.1-.7-.1h-1.3c-.2 0-.4 0-.6.1h-.4c-1.4.4-2.4 1.5-2.7 2.9L260.2 88h-1.9v71.8h20.1v-55.7l-.1-.9z"/><path class="st34" d="M278.7 160.5h-21V87.6h2l3.8-14.3c.2-1.2.9-2.2 1.9-2.8l-.3-.1 1.3-.4h.2l.1.1v-.2h.1c.2 0 .4-.1.6-.1h1.3c.3 0 .5 0 .8.1 1.7.3 3.1 1.7 3.4 3.4l3.7 14.2h2l.1 73zm-20-.9h19.2V88.5h-1.8l-3.9-14.9c-.2-1.4-1.3-2.4-2.6-2.7-.2 0-.4-.1-.6-.1h-1.3c-.2 0-.3 0-.5.1h-.1l-.2.1c-1.2.3-2.2 1.3-2.4 2.6l-4 15h-1.8v71z"/><path d="M253.1 88l-3.8-14.6c-.3-1.8-1.8-3.1-3.6-3.1h-1.8c-.1 0-.2 0-.3.1h-.2c-1.4.4-2.4 1.5-2.7 2.9L236.8 88h-1.9v72H255v-9.8h.3V88h-2.2z"/><path class="st34" d="M255.4 160.5h-21l.1-72.9h2l3.8-14.3c.2-1 .8-2 1.6-2.6l-.7-.1 2.1-.6.1.1V70h.2c.2 0 .4-.1.6-.1h1.3c2 0 3.7 1.4 4.1 3.4l3.7 14.2h2.2v63.1h-.3l.2 9.9zm-20.1-.9h19.2v-9.8h.3V88.5h-2l-3.9-14.9c-.3-1.6-1.6-2.7-3.2-2.7h-2.2c-1.2.3-2.1 1.3-2.4 2.6l-4 15h-1.8v71.1z"/><path d="M156.4 150.3V88h-1.9l-3.9-14.6c-.3-1.6-1.5-2.7-3-3-.2 0-.5-.1-.7-.1h-1.3c-.3 0-.6.1-.9.1-1.4.4-2.4 1.5-2.7 2.9L138.2 88h-1.9v72.2h20.1v-9.9z"/><path class="st34" d="M135.9 160.5V87.6h2l3.8-14.3c.2-1.1.9-2.1 1.9-2.7l-.4-.1 1.5-.4c.4-.1.7-.1 1-.1h1.3c.3 0 .5 0 .8.1 1.7.3 3.1 1.6 3.4 3.4l3.8 14.2h2v72.9l-21.1-.1zm.9-72v71.1H156V88.5h-1.8l-3.9-14.9c-.2-1.4-1.3-2.4-2.7-2.7-.2 0-.4-.1-.6-.1h-1.7l-.3.1c-1.2.3-2.1 1.3-2.4 2.6l-3.9 15h-1.9z"/><path d="M180.6 88h-2l-3.9-14.6c-.1-.4-.2-.9-.5-1.2-.2-.4-.5-.7-.8-1-.6-.5-1.5-.9-2.4-.9h-1.8c-.1 0-.3.1-.4.1-1.4.4-2.5 1.5-2.7 2.9L162.3 88h-1.9v72h20.1V88z"/><path class="st34" d="M160.1 160.5l-.1-72.9h2l3.7-14.3c.3-1.5 1.5-2.8 3-3.2.2 0 .3-.1.5-.1s.4-.1.6-.1h1.3c1 0 1.9.3 2.7 1 .4.3.7.7.9 1.1.2.4.4.9.5 1.4l3.8 14.2h2v72.8l-20.9.1zm.8-72l.1 71.1h19.2V88.5h-1.9l-4-14.9c-.1-.4-.2-.8-.4-1.1-.2-.3-.4-.6-.7-.8-.6-.5-1.3-.8-2.1-.8h-1.7c-.1 0-.3 0-.4.1-1.2.3-2.2 1.3-2.4 2.6l-3.9 15-1.8-.1z"/><g><path d="M228.4 88l-3.9-14.6c-.3-1.8-1.9-3.1-3.7-3h-1.3c-.2 0-.4 0-.6.1-.1 0-.2 0-.3.1-1.4.3-2.5 1.5-2.7 2.9L212.1 88h-1.9v72h20.1v-9.8h.2V88h-2.1z"/><path class="st34" d="M209.8 160.5V87.6h2l3.8-14.3c.2-.9.7-1.8 1.4-2.4h-2.3l4-.9c.1 0 .3-.1.4-.1.2 0 .4-.1.6-.1h1.3c2 0 3.7 1.4 4.1 3.4l3.8 14.3h2.1v63.1h-.2v9.8l-21 .1zm.9-72v71.1h19.2v-9.8h.2V88.5h-1.9l-4-15c-.3-1.6-1.6-2.7-3.2-2.7h-1.3c-.2 0-.3 0-.5.1h-.3c-1.2.3-2.2 1.3-2.4 2.6l-3.9 15h-1.9z"/></g></g><path class="st90" d="M190 65.5h1.3c1.8 0 3.3 1.3 3.6 3.1l4.2 16h-17l4.2-16c.4-1.9 1.9-3.1 3.7-3.1z"/><path class="st90" d="M180.7 83.1h20.1v72h-20.1z"/><path class="st91" d="M180.7 88.9h20.1v60.4h-20.1z"/><path class="st90" d="M180.7 138.8h20.1v2.4h-20.1zm0 4.1h20.1v2.4h-20.1zm0-50h20.1v2.4h-20.1zm0 4.1h20.1v2.4h-20.1zm6.6 11.6h6.7c2 0 3.6 1.6 3.6 3.6v17.6c0 2-1.6 3.6-3.6 3.6h-6.7c-2 0-3.6-1.6-3.6-3.6v-17.6c0-1.9 1.6-3.6 3.6-3.6z"/><path class="st92" d="M262.7 65.4h1.3c1.8 0 3.3 1.3 3.6 3.1l4.2 16h-17l4.2-16c.4-1.8 1.9-3.1 3.7-3.1z"/><path class="st92" d="M273.38 155.118l-20.1-.012.044-72 20.1.012z"/><path class="st93" d="M273.385 149.318l-20.1-.012.035-60.4 20.1.012z"/><path class="st92" d="M273.377 141.322l-20.1-.012.002-2.4 20.1.012zm-.005 3.985l-20.1-.012.002-2.4 20.1.012zm.058-49.884l-20.1-.012.002-2.4 20.1.014zm-.004 3.985l-20.1-.01.002-2.4 20.1.01zM260 108.6h6.7c2 0 3.6 1.6 3.6 3.6v17.6c0 2-1.6 3.6-3.6 3.6H260c-2 0-3.6-1.6-3.6-3.6v-17.6c0-1.9 1.6-3.6 3.6-3.6z"/><path class="st94" d="M239.4 65.4h1.3c1.8 0 3.3 1.3 3.6 3.1l4.2 16h-17l4.2-16c.4-1.8 2-3.1 3.7-3.1z"/><path class="st94" d="M249.972 155.11l-20.1-.028.1-72 20.1.028z"/><path class="st95" d="M249.98 149.31l-20.1-.028.083-60.4 20.1.028z"/><path class="st94" d="M249.962 141.313l-20.1-.027.003-2.4 20.1.027zm.088 3.987l-20.1-.028.004-2.4 20.1.027zm.04-49.885l-20.1-.028.002-2.4 20.1.028zm-.012 3.985l-20.1-.027.003-2.4 20.1.027zm-13.378 9.2h6.7c2 0 3.6 1.6 3.6 3.6v17.6c0 2-1.6 3.6-3.6 3.6h-6.7c-2 0-3.6-1.6-3.6-3.6v-17.6c0-2 1.6-3.6 3.6-3.6z"/><path class="st89" d="M214.7 65.5h1.3c1.8 0 3.3 1.3 3.6 3.1l4.2 16h-17l4.2-16c.3-1.9 1.9-3.1 3.7-3.1z"/><path class="st89" d="M205.3 83.1h20.1v72h-20.1z"/><path class="st96" d="M205.3 88.9h20.1v60.4h-20.1z"/><path class="st89" d="M205.3 138.8h20.1v2.4h-20.1zm0 4.1h20.1v2.4h-20.1zm0-50h20.1v2.4h-20.1zm0 4.1h20.1v2.4h-20.1zm6.7 11.6h6.7c2 0 3.6 1.6 3.6 3.6v17.6c0 2-1.6 3.6-3.6 3.6H212c-2 0-3.6-1.6-3.6-3.6v-17.6c-.1-1.9 1.6-3.6 3.6-3.6z"/><path class="st97" d="M140.8 65.5h1.3c1.8 0 3.3 1.3 3.6 3.1l4.2 16h-17l4.2-16c.3-1.9 1.9-3.1 3.7-3.1z"/><path class="st97" d="M131.4 83.1h20.1v72h-20.1z"/><path class="st98" d="M131.4 88.9h20.1v60.4h-20.1z"/><path class="st97" d="M131.4 138.8h20.1v2.4h-20.1zm0 4.1h20.1v2.4h-20.1zm0-50h20.1v2.4h-20.1zm0 4.1h20.1v2.4h-20.1zm6.7 11.6h6.7c2 0 3.6 1.6 3.6 3.6v17.6c0 2-1.6 3.6-3.6 3.6h-6.7c-2 0-3.6-1.6-3.6-3.6v-17.6c-.1-1.9 1.6-3.6 3.6-3.6z"/><path class="st99" d="M175.63 155.09l-20.1.023-.08-72 20.1-.023z"/><path class="st100" d="M175.624 149.29l-20.1.023-.067-60.4 20.1-.023z"/><path class="st99" d="M175.638 141.294l-20.1.022-.003-2.4 20.1-.022zm.01 3.986l-20.1.022-.004-2.4 20.1-.022zm-.012-49.885l-20.1.022-.003-2.4 20.1-.022zm.01 3.985l-20.1.023-.004-2.4 20.1-.022zM162.2 108.6h6.7c2 0 3.6 1.6 3.6 3.6v17.6c0 2-1.6 3.6-3.6 3.6h-6.7c-2 0-3.6-1.6-3.6-3.6v-17.6c0-1.9 1.6-3.6 3.6-3.6zm2.7-43.2h1.3c1.8 0 3.3 1.3 3.7 3l4.2 16h-17l4.2-16c.3-1.7 1.8-3 3.6-3z"/><path class="st5" d="M165.8 83.1h9.9v62.2h-9.9zm-24.4 0h9.9v62.2h-9.9zm49.5 0h9.9v62.2h-9.9zm24.7 0h9.9v62.2h-9.9zm24.8 0h9.9v62.2h-9.9zm22.9 0h9.9v62.2h-9.9zm-92.7 0h3.1l-3.9-14.6c-.3-1.8-1.9-3.1-3.7-3h-1.3c-.3 0-.6.1-.9.1 1.4.4 2.5 1.5 2.7 2.9l4 14.6zm25.1 0h3.1l-3.9-14.6c-.3-1.8-1.9-3.1-3.7-3h-1.3c-.3 0-.6.1-.9.1 1.4.4 2.5 1.5 2.7 2.9l4 14.6zm24.6 0h3.1l-3.9-14.6c-.3-1.8-1.9-3.1-3.7-3h-1.3c-.3 0-.6.1-.9.1 1.4.4 2.5 1.5 2.7 2.9l4 14.6zm24.7 0h3.1l-3.9-14.6c-.3-1.8-1.9-3.1-3.7-3h-1.3c-.3 0-.6.1-.9.1 1.4.4 2.5 1.5 2.7 2.9l4 14.6zm23.4 0h3.1l-3.9-14.6c-.3-1.8-1.9-3.1-3.7-3h-1.3c-.3 0-.6.1-.9.1 1.4.4 2.5 1.5 2.7 2.9l4 14.6zm-122 0h3.1l-3.9-14.6c-.3-1.8-1.9-3.1-3.7-3h-1.3c-.3 0-.6.1-.9.1 1.4.4 2.5 1.5 2.7 2.9l4 14.6z"/><path class="st90" d="M237.8 155.3h4.4v35.6h-4.4z"/><path class="st5" d="M256.4 95.7c-2.8 22.5-27.2 40.1-56.9 40.1s-54-17.6-56.9-40.1h-16.3v154.8h152V95.7h-21.9z"/><path class="st101" d="M126 238.9h152.4v14.8H126z"/><path class="st65" d="M256.4 98.9c-2.8 22.5-27.2 40.1-56.9 40.1s-54-17.6-56.9-40.1h-16.3v154.8h152V98.9h-21.9z"/><path class="st102" d="M278.4 227.4h23.8v26.3h-23.8z"/><path class="st89" d="M126 227.4h152.4v26.3H126z"/><path class="st5" d="M191 207.9h22.8v45.9H191z"/><path class="st5" d="M191 207.9h22.8v45.9H191z"/><path class="st90" d="M250.6 236.2v-27.8h-21.1v27.8m-54.3 0v-27.8H154v27.8"/><path class="st34" d="M191 207.9h22.8v45.9H191z"/><path class="st5" d="M191 207.9h22.8v45.9H191z"/><path class="st90" d="M194.9 231.9h3.3v6.9h-3.3z"/><path class="st5" d="M250.6 186.9v-27.7h-21.1v27.7"/><path class="st90" d="M227.8 171.9h24.6v2.3h-24.6z"/><path class="st90" d="M238.9 158.4h2.3v29.3h-2.3z"/><path class="st104" d="M226.6 185.5h26.7v2.9h-26.7z"/><path class="st34" d="M235.6 185.6c0 2.7 2.2 4.8 4.8 4.8s4.8-2.2 4.8-4.8h-9.6z"/><path class="st34" d="M240.5 191.2c-3.1 0-5.7-2.5-5.7-5.7 0-.5.4-.8.8-.8h9.7c.5 0 .8.4.8.8 0 3.2-2.5 5.7-5.6 5.7zm-3.9-4.8c.4 1.8 2 3.2 3.9 3.2s3.6-1.4 3.9-3.2h-7.8z"/><path class="st34" d="M226 185.6c0 2.7 2.2 4.8 4.8 4.8 2.7 0 4.8-2.2 4.8-4.8H226z"/><path class="st34" d="M230.8 191.2c-3.1 0-5.7-2.5-5.7-5.7 0-.5.4-.8.8-.8h9.7c.5 0 .8.4.8.8.1 3.2-2.5 5.7-5.6 5.7zm-3.9-4.8c.4 1.8 2 3.2 3.9 3.2s3.6-1.4 3.9-3.2h-7.8z"/><path class="st90" d="M200.1 155.3h4.4v35.6h-4.4z"/><path class="st5" d="M212.9 186.9v-27.7h-21.1v27.7"/><path class="st90" d="M190.1 171.9h24.6v2.3h-24.6z"/><path class="st90" d="M201.2 158.4h2.3v29.3h-2.3z"/><path class="st104" d="M188.9 185.5h26.7v2.9h-26.7z"/><path class="st34" d="M200.7 158.3c0 2.7 2.2 4.8 4.8 4.8 2.7 0 4.8-2.2 4.8-4.8h-9.6z"/><path class="st34" d="M205.5 164c-3.1 0-5.7-2.5-5.7-5.7 0-.5.4-.8.8-.8h9.7c.5 0 .8.4.8.8.1 3.1-2.4 5.7-5.6 5.7zm-3.9-4.9c.4 1.8 2 3.2 3.9 3.2s3.6-1.4 3.9-3.2h-7.8z"/><path class="st34" d="M191 158.3c0 2.7 2.2 4.8 4.8 4.8 2.7 0 4.8-2.2 4.8-4.8H191z"/><path class="st34" d="M195.9 164c-3.1 0-5.7-2.5-5.7-5.7 0-.5.4-.8.8-.8h9.7c.5 0 .8.4.8.8 0 3.1-2.5 5.7-5.6 5.7zm-4-4.9c.4 1.8 2 3.2 3.9 3.2s3.6-1.4 3.9-3.2h-7.8z"/><path class="st90" d="M162.4 155.3h4.4v35.6h-4.4z"/><path class="st5" d="M175.2 186.9v-27.7H154v27.7"/><path class="st90" d="M152.4 171.9H177v2.3h-24.6z"/><path class="st90" d="M163.5 158.4h2.3v29.3h-2.3z"/><path class="st104" d="M151.2 185.5h26.7v2.9h-26.7z"/><path class="st34" d="M160.2 185.6c0 2.7 2.2 4.8 4.8 4.8 2.7 0 4.8-2.2 4.8-4.8h-9.6z"/><path class="st34" d="M165.1 191.2c-3.1 0-5.7-2.5-5.7-5.7 0-.5.4-.8.8-.8h9.7c.5 0 .8.4.8.8 0 3.2-2.5 5.7-5.6 5.7zm-4-4.8c.4 1.8 2 3.2 3.9 3.2s3.6-1.4 3.9-3.2h-7.8z"/><path class="st34" d="M150.6 185.6c0 2.7 2.2 4.8 4.8 4.8 2.7 0 4.8-2.2 4.8-4.8h-9.6z"/><path class="st34" d="M155.4 191.2c-3.1 0-5.7-2.5-5.7-5.7 0-.5.4-.8.8-.8h9.7c.5 0 .8.4.8.8 0 3.2-2.5 5.7-5.6 5.7zm-3.9-4.8c.4 1.8 2 3.2 3.9 3.2s3.6-1.4 3.9-3.2h-7.8z"/><path class="st90" d="M237.8 204.5h4.4v35.6h-4.4z"/><path class="st5" d="M250.6 236.2v-27.8h-21.1v27.8"/><path class="st90" d="M227.8 221.2h24.6v2.3h-24.6z"/><path class="st90" d="M238.9 207.6h2.3v29.3h-2.3z"/><path class="st104" d="M226.6 234.7h26.7v2.9h-26.7z"/><g><path class="st34" d="M235.6 234.8c0 2.7 2.2 4.8 4.8 4.8s4.8-2.2 4.8-4.8h-9.6z"/><path class="st34" d="M240.5 240.5c-3.1 0-5.7-2.5-5.7-5.7 0-.5.4-.8.8-.8h9.7c.5 0 .8.4.8.8 0 3.1-2.5 5.7-5.6 5.7zm-3.9-4.9c.4 1.8 2 3.2 3.9 3.2s3.6-1.4 3.9-3.2h-7.8z"/><path class="st34" d="M226 234.8c0 2.7 2.2 4.8 4.8 4.8 2.7 0 4.8-2.2 4.8-4.8H226z"/><path class="st34" d="M230.8 240.5c-3.1 0-5.7-2.5-5.7-5.7 0-.5.4-.8.8-.8h9.7c.5 0 .8.4.8.8.1 3.1-2.5 5.7-5.6 5.7zm-3.9-4.9c.4 1.8 2 3.2 3.9 3.2s3.6-1.4 3.9-3.2h-7.8z"/></g><path class="st90" d="M162.4 204.5h4.4v35.6h-4.4z"/><path class="st5" d="M175.2 236.2v-27.8H154v27.8"/><path class="st90" d="M152.4 221.2H177v2.3h-24.6z"/><path class="st90" d="M163.5 207.6h2.3v29.3h-2.3z"/><path class="st104" d="M151.2 234.7h26.7v2.9h-26.7z"/><g><path class="st34" d="M160.2 234.8c0 2.7 2.2 4.8 4.8 4.8 2.7 0 4.8-2.2 4.8-4.8h-9.6z"/><path class="st34" d="M165.1 240.5c-3.1 0-5.7-2.5-5.7-5.7 0-.5.4-.8.8-.8h9.7c.5 0 .8.4.8.8 0 3.1-2.5 5.7-5.6 5.7zm-4-4.9c.4 1.8 2 3.2 3.9 3.2s3.6-1.4 3.9-3.2h-7.8z"/><path class="st34" d="M150.6 234.8c0 2.7 2.2 4.8 4.8 4.8 2.7 0 4.8-2.2 4.8-4.8h-9.6z"/><path class="st34" d="M155.4 240.5c-3.1 0-5.7-2.5-5.7-5.7 0-.5.4-.8.8-.8h9.7c.5 0 .8.4.8.8 0 3.1-2.5 5.7-5.6 5.7zm-3.9-4.9c.4 1.8 2 3.2 3.9 3.2s3.6-1.4 3.9-3.2h-7.8z"/></g><g><path class="st34" d="M270.8 254.8c0-2.4 2-4.4 4.4-4.4 2.4 0 4.4 2 4.4 4.4h-8.8z"/><path class="st34" d="M279.6 255.7h-8.8c-.5 0-.8-.4-.8-.8 0-2.9 2.3-5.2 5.2-5.2s5.2 2.3 5.2 5.2c0 .4-.4.8-.8.8zm-7.9-1.7h7c-.4-1.6-1.8-2.8-3.5-2.8s-3.1 1.2-3.5 2.8z"/><path class="st34" d="M257.1 254.8c0-4.7 3.8-8.5 8.5-8.5s8.5 3.8 8.5 8.5h-17z"/><path class="st34" d="M274 255.7h-16.9c-.5 0-.8-.4-.8-.8 0-5.1 4.2-9.3 9.3-9.3s9.3 4.2 9.3 9.3c-.1.4-.5.8-.9.8zm-16.1-1.7h15.2c-.4-3.8-3.7-6.8-7.6-6.8s-7.2 3-7.6 6.8z"/><path class="st34" d="M247.1 254.8c0-3.3 2.6-5.9 5.9-5.9s5.9 2.6 5.9 5.9h-11.8z"/><path class="st34" d="M258.9 255.7h-11.8c-.5 0-.8-.4-.8-.8a6.7 6.7 0 0 1 13.4 0c.1.4-.3.8-.8.8zM248 254h10c-.4-2.4-2.5-4.3-5-4.3s-4.6 1.9-5 4.3z"/></g><g><path class="st34" d="M138.8 253.2c0-2.4 2-4.4 4.4-4.4 2.4 0 4.4 2 4.4 4.4h-8.8z"/><path class="st34" d="M147.6 254h-8.8c-.5 0-.8-.4-.8-.8 0-2.9 2.3-5.2 5.2-5.2 2.9 0 5.2 2.3 5.2 5.2 0 .4-.3.8-.8.8zm-7.9-1.7h7c-.4-1.6-1.8-2.8-3.5-2.8-1.7.1-3.1 1.2-3.5 2.8z"/><path class="st34" d="M125.1 253.2c0-4.7 3.8-8.5 8.5-8.5s8.5 3.8 8.5 8.5h-17z"/><path class="st34" d="M142 254h-16.9c-.5 0-.8-.4-.8-.8 0-5.1 4.2-9.3 9.3-9.3s9.3 4.2 9.3 9.3c0 .4-.4.8-.9.8zm-16-1.7h15.2c-.4-3.8-3.7-6.8-7.6-6.8s-7.2 3-7.6 6.8z"/><path class="st34" d="M115.1 253.2c0-3.3 2.6-5.9 5.9-5.9 3.3 0 5.9 2.6 5.9 5.9h-11.8z"/><path class="st34" d="M127 254h-11.8c-.5 0-.8-.4-.8-.8a6.7 6.7 0 0 1 13.4 0c0 .4-.4.8-.8.8zm-11-1.7h10.1c-.4-2.4-2.5-4.3-5-4.3s-4.7 1.9-5.1 4.3z"/></g></g></svg>