<svg id="slice" xmlns="http://www.w3.org/2000/svg" xmlns:xlink="http://www.w3.org/1999/xlink" width="287" height="173.8" viewBox="0 0 287 173.8"><style>.st0{opacity:.11;fill:#231f20}.st1{fill:#94917f}.st2{fill:#baafa2}.st3{fill:#785768}.st4{fill:#aaa89a}.st5{opacity:.1}.st6{fill:#8ce1f9}.st7{fill:#ceccbf}.st8{fill:#8d667a}.st9{fill:#918c84}.st10{fill:#c2beb6}.st11{fill:#f0e1d1}.st12{fill:#b6b4a8}.st13{fill:#94938a}.st14{fill:#7d7c71}.st15{fill:#633b4f}.st16{fill:#85837d}.st17{fill:#8a7665}.st18{fill:#6a695c}.st19{fill:#b9b7a4}.st20{fill:#2f9f42}.st21{opacity:.13}.st22{opacity:.2;fill:#231f20}.st23{fill:#d53e2e}.st24{fill:#003673}.st25{fill:#f09a1a}.st26{fill:#fdbf0f}.st27{fill:#736357}.st28{fill:#d84637}.st29{fill:#00a9e9}.st30{fill:#ffde00}.st31{fill:#48b780}.st32{fill:#7c6959}.st33{fill:#d3ae6e}.st34{fill:#fff}.st35{fill:#ffe95a}.st36{fill:#ffc300}.st37{fill:#f27b20}.st38{fill:#ee3837}.st39{fill:#4c8bfb}.st40{fill:#b757c5}.st41{fill:#ffdf8a}.st42{fill:#333}.st43{fill:#6a57ab}.st44{fill:#5d377a}.st45{fill:#393939}.st46{fill:#fde08b}.st47{fill:#dc3126}.st48{fill:#fdd500}.st49{fill:#515c5d}.st50{fill:#7d8586}.st51{fill:#afd136}.st52{fill:url(#SVGID_1_)}.st53{fill:url(#SVGID_2_)}.st54{fill:#e8d184}.st55{fill:#ca7836}.st56{fill:#54d184}.st57{opacity:.48}.st58{opacity:.5;fill:#75cef4}.st59{opacity:.5;fill:#00bff0}.st60{opacity:.5;fill:#e6f6fd}.st61{opacity:.48;fill:#75cef4}.st62{fill:url(#SVGID_3_)}.st63{fill:gray}.st64{fill:#8f4293}.st65{fill:#ffd400}.st66{fill:url(#SVGID_4_)}.st67{fill:#28ae4b}.st68{fill:#e64436}.st69{fill:url(#SVGID_5_)}.st70{fill:url(#XMLID_158_)}.st71{opacity:.17;fill:#fff}.st72{fill:url(#SVGID_6_)}.st73{fill:url(#SVGID_7_)}.st74{fill:#00b2ee}.st75{fill:#b89860}.st76{fill:#b0b0b0}.st77{fill:#864537}.st78{fill:#fbcf99}.st79{fill:#fbcd48}.st80{fill:#fd0}.st81{fill:#d2392c}.st82{fill:url(#SVGID_8_)}.st83{fill:url(#SVGID_9_)}.st84{fill:url(#SVGID_10_)}.st85{fill:url(#SVGID_11_)}.st86{fill:url(#XMLID_160_)}.st87{fill:#afd77d}.st88{opacity:.1;fill:#231f20}.st89{fill:#7cb342}.st90{fill:#f9ce1d}.st91{fill:#ffe36c}.st92{fill:#5e35b1}.st93{fill:#9575cd}.st94{fill:#29b6f6}.st95{fill:#4ad0ff}.st96{fill:#9dce2e}.st97{fill:#e53935}.st98{fill:#f94b4b}.st99{fill:#fb8c00}.st100{fill:#fc9f42}.st101{fill:#9dca3b}.st102{fill:#66a622}.st103{fill:#ffb300}.st104{fill:#f57c00}.st105{fill:#a1cacf}.st106{fill:#dff3f5}.st107{fill:#bad7db}.st108{fill:#c3dfe3}.st109{fill:#bcdee3}.st110{opacity:.5}.st111{opacity:.8}.st112{fill:url(#XMLID_161_)}.st113{fill:url(#SVGID_12_)}.st114{fill:#f6f3ec}.st115{fill:#d7d7d7}.st116{fill:#959d9e}.st117{fill:#b3b3b3}.st118{fill:#e0e0e0}.st119{fill:#4d4d4d}.st120{fill:#595959}.st121{fill:#ffeb5e}.st122{fill:#6d7576}.st123{fill:#c9e09d}.st124{fill:#8f8f8f}.st125{fill:#5c6566}.st126{fill:#a19e97}.st127{fill:#61c6ec}.st128{fill:#77bf82}.st129{fill:#f3ff73}.st130{fill:url(#XMLID_163_)}.st131{fill:url(#SVGID_13_)}.st132{fill:url(#SVGID_14_)}.st133{fill:url(#XMLID_165_)}.st134{fill:#555047}.st135{fill:#896339}.st136{fill:#736f68}.st137{fill:#949494}.st138{fill:#83dee8}.st139{fill:#85827d}.st140{opacity:.2}.st141{fill:#404040}.st142{fill:silver}.st143{fill:#eee}.st144{fill:#44c2c2}.st144,.st145{clip-path:url(#SVGID_16_)}.st145{fill:#a3d89f}.st146{fill:#c83a74}.st146,.st147{clip-path:url(#SVGID_16_)}.st147{fill:#ffa376}.st148{opacity:.24}.st149{fill:none;stroke:#85827d;stroke-width:.9;stroke-miterlimit:10}.st150{opacity:.83}.st151{fill:#888480}.st152{fill:#7099ba}.st153{fill:#b0e1e8}.st154{opacity:.22;fill:#fff}.st155{fill:url(#XMLID_172_)}.st156{fill:url(#SVGID_17_)}.st157{fill:url(#SVGID_18_)}.st158{fill:url(#XMLID_174_)}.st159{fill:#9db9bd}.st160{fill:#d1e3e6}.st161{fill:#b6d6db}.st162{fill:#9ccfd9}.st163{fill:#b4d3d9}.st164{fill:#97babf}.st165{fill:#c1dff5}.st166{fill:#c5e7eb}.st167{fill:#8ab8d4}.st168{fill:#e6e6e6}.st169{fill:#716e69}.st170{fill:#71bdde}.st171{fill:#659bc7}.st172{fill:#70afd4}.st173{fill:none}.st174{fill:#97cee6}.st175{opacity:8e-2;fill:#0f0f0f}.st176{opacity:.1;fill:#0f0f0f}.st177{fill:#385fe4}.st178{fill:#ccc}.st179{fill:#2986e4}.st180{opacity:.21}.st181{clip-path:url(#SVGID_20_)}.st182{filter:url(#Adobe_OpacityMaskFilter)}.st183{mask:url(#SVGID_21_);fill:#33659a}.st184{filter:url(#Adobe_OpacityMaskFilter_1_)}.st185{mask:url(#SVGID_22_);fill:#385fe4}.st186{filter:url(#Adobe_OpacityMaskFilter_2_)}.st187{opacity:.17;mask:url(#SVGID_23_)}.st188{clip-path:url(#SVGID_25_)}.st189{opacity:.77}.st190{fill:#e8c97b}.st191{fill:#2d56e2}.st192{opacity:.11}.st193{fill:#0bbf68}.st194{fill:#98bee4}.st195{fill:#3f5656}.st196{fill:#d7c17d}.st197{opacity:.2;fill:#fff}.st198{fill:url(#SVGID_26_)}.st199{fill:url(#XMLID_228_)}.st200{fill:url(#SVGID_27_)}.st201{fill:url(#XMLID_231_)}.st202{fill:#9c9c9c}.st203{fill:#808082}.st204{fill:#9ed5ec}.st205{fill:#cacaca}.st206{fill:#e3e3e3}.st207{fill:#979797}.st208{fill:#9e9e9e}.st209{opacity:.58;fill:#c7ffff}.st210{opacity:.25}.st211{fill:#a52e22}.st212{fill:#e63636}.st213{fill:url(#XMLID_261_)}.st214{fill:url(#XMLID_278_)}.st215{fill:#f3831f}.st216{fill:#1fa2f3}.st217{fill:#914295}.st218{fill:#faac18}.st219{opacity:.1;fill:#333}.st220{fill:#836948}.st221{fill:#df543f}.st222{fill:#00813f}.st223{fill:#b9c9d2}.st224{fill:#28b04b}.st225{fill:#fff100}.st226{fill:#969696}.st227{fill:#0158bb}.st228{fill:#1565c0}.st229{fill:#3dd1f9}.st230{fill:#f5a816}.st231{fill:#c62828}.st232{fill:#bdbdbd}.st233{fill:#a5a5a5}.st234{fill:#424242}.st235{fill:#e6e7e8}.st236{clip-path:url(#SVGID_31_);fill:#fff}.st237{fill:#e91c24}.st237,.st238{clip-path:url(#SVGID_31_)}.st238{fill:#1976d2}.st239{fill:#4d8acf}.st240{fill:none;stroke:#fff;stroke-width:.6591;stroke-miterlimit:10}.st241{fill:#00adee}.st242{clip-path:url(#SVGID_33_);fill:#fff}.st243{fill:#dbdbdb}.st244{fill:#9ad3d3}.st245{fill:url(#SVGID_34_)}.st246{fill:url(#SVGID_35_)}.st247{fill:url(#SVGID_36_)}.st248{fill:url(#SVGID_37_)}.st249{fill:url(#SVGID_38_)}.st250{fill:url(#SVGID_39_)}.st251{fill:url(#SVGID_40_)}.st252{fill:url(#SVGID_41_)}.st253{fill:#f7ce97}.st254{fill:#4c4c4c}.st255{fill:#e9e9e9}.st256{fill:#eb9b95}.st257{fill:#656565}.st258{fill:#5e5a48}.st259{fill:url(#SVGID_42_)}.st260{fill:url(#SVGID_43_)}.st261{fill:#999}.st262{opacity:.36}.st263{fill:#00a64c}.st264{fill:#d4d4d4}.st264,.st265{fill-rule:evenodd;clip-rule:evenodd}.st265{fill:#fff}.st266{fill:#008141}.st266,.st267{fill-rule:evenodd;clip-rule:evenodd}.st267{fill:#00a64c}.st268{fill:#28b265}.st269{opacity:.4;fill:#ffe000}.st270{fill:#c8cbcc}.st271{fill:#b8b8b8}.st272{fill:#949496}.st273{fill:#c8ead4}.st274{fill:#7d8485}.st275{fill:#2364d5}.st276{fill:url(#XMLID_279_)}.st277{fill:url(#SVGID_44_)}.st278{fill:url(#SVGID_45_)}.st279{fill:url(#SVGID_46_)}.st280{fill:#8700ee}.st281{fill:#00b533}.st282{fill:#eeda00}.st283{fill:#f2206d}.st284{fill:#6299fb}.st285{opacity:.7;fill:url(#SVGID_47_)}.st286{opacity:.7;fill:url(#SVGID_48_)}.st287{opacity:.7;fill:url(#SVGID_49_)}.st288{fill:#ee5e5d}.st289{fill:#e09d17}.st290{fill:#f0ede9}.st291{clip-path:url(#SVGID_51_)}.st292{fill:#eec85c}.st293{opacity:.32;fill:#9a0000}.st294{fill:#f0f0f0}.st295{fill:#81d4fa}.st296{opacity:.49;fill:#c9edfc}.st297{fill:#d8746a}.st298{fill:#fcbe8d}.st299{fill:#00a9e7}.st300{fill:#6a7173}.st301{opacity:.6}.st302{fill:url(#SVGID_52_)}.st303{fill:url(#SVGID_53_)}.st304{fill:url(#XMLID_280_)}.st305{fill:url(#SVGID_54_)}.st306{fill:url(#SVGID_55_)}.st307{fill:url(#SVGID_56_)}.st308{fill:url(#SVGID_57_)}.st309{fill:#67635d}.st310{fill:#999690}.st311{fill:#e6da91}.st312{opacity:.55;fill:#bbaf3e}.st313{fill:#a8a69b}.st314{clip-path:url(#SVGID_59_)}.st315{fill:url(#SVGID_60_)}.st316{fill:url(#SVGID_61_)}.st317{opacity:.1;clip-path:url(#SVGID_59_)}.st318{clip-path:url(#SVGID_63_)}.st319{fill:#e3e3e2}.st320{fill:#cf4140}.st321{fill:url(#SVGID_64_)}.st322{fill:url(#SVGID_65_)}.st323{fill:url(#SVGID_66_)}.st324{fill:url(#SVGID_67_)}.st325{fill:#666}.st326{fill:#c1161c}.st327{fill:#b47945}.st328{fill:#d9dadb}.st329{fill:#36af49}.st330{fill:#2a943e}.st331{fill:#9ea0a2}.st332{fill:#bebfc1}.st333{fill:#f5961d}.st334{fill:#ffef00}.st335{fill:#6d6d6d}.st336{fill:url(#SVGID_68_)}.st337{fill:url(#XMLID_281_)}.st338{fill:#795d00}.st339{fill:#bb8024}.st339,.st340{clip-path:url(#SVGID_70_)}.st340{opacity:.1}.st341{fill:#955d00}.st342{fill:#f38836}.st343{fill:url(#XMLID_295_)}.st344{fill:url(#SVGID_71_)}.st345{fill:url(#SVGID_72_)}.st346{fill:url(#XMLID_296_)}.st347{opacity:.99}.st348{fill:#e8af38}.st349{fill:#98ab00}.st350{fill:#e75c52}.st351{fill:#a9897d}.st352{fill:#cb9d7b}.st353{fill:#996b63}.st354{fill:#35b8e8}.st355{opacity:.12;fill:url(#SVGID_73_)}.st356{opacity:.12;fill:url(#SVGID_74_)}.st357{opacity:.28;fill:url(#SVGID_77_)}.st358{clip-path:url(#SVGID_81_)}.st359{fill:#fff59c}.st360{fill:#ebdbce}.st361{fill:#b07a53}.st362{fill:#1185ba}.st363{fill:#1f57a1}.st363,.st364{opacity:.32}.st365{fill:#c28d65}.st366{fill:#eb776f}.st367{fill:#afdb39}.st368{fill:#ebdb57}.st369{opacity:.16}.st370{fill:#cba483}.st371{fill:url(#XMLID_297_)}.st372{fill:url(#SVGID_82_)}.st373{fill:url(#SVGID_83_)}.st374{fill:#bee6eb}.st375{fill:#f9df00}.st376{fill:#d84733}.st377{fill:#fce000}.st378{fill:#575757}.st379{fill:#b3b2b3}.st380{fill:#e5e5e4}.st381{fill:#d5302b}.st382{fill:url(#SVGID_84_)}.st383{fill:url(#SVGID_85_)}.st384{fill:#ec4180}.st385{fill:#fbcb54}.st386{fill:#7296f0}.st387{fill:#fc793d}.st388{opacity:.14}.st389{fill:#404144}.st390{fill:#606163}.st391{opacity:.3}.st392,.st393{fill:#d7b256}.st393{opacity:.38}.st394{fill:#3d3d39}.st395{fill:#393b36}.st396{opacity:.6;fill:#3bff65}.st397{opacity:.6;fill:#fc793d}.st398{clip-path:url(#SVGID_87_)}.st399{opacity:.29}.st400{fill:#9a51a8}.st401{fill:#fef6e0}.st402{fill:#a06ea9}.st403{fill:#353535}.st404{clip-path:url(#SVGID_89_)}.st405{opacity:.23;fill:#fff}.st406{opacity:.13;fill:#fff}.st407{opacity:5e-2}.st408{opacity:.45}.st409{opacity:.2}.st409,.st410{fill:#fff170}.st411{opacity:.21;fill:#fff}.st412{opacity:.1;fill:#fff}.st413{opacity:.27;fill:url(#SVGID_90_)}.st414{opacity:.27;fill:url(#SVGID_91_)}.st415{fill:url(#SVGID_92_)}.st416{fill:url(#SVGID_93_)}.st417{fill:#2850a8}.st418{fill:#286ee4}.st419{fill:#0053df}.st420{fill:#007dd0}.st421{fill:#2891e4}.st422{opacity:.72}.st423{opacity:.28;fill:url(#SVGID_94_)}.st424{opacity:.28;fill:url(#SVGID_95_)}.st425{fill:#2d6b7f}.st426,.st427{fill:#ff7c40}.st427{opacity:.21}.st428{opacity:.28;fill:url(#SVGID_96_)}.st429{opacity:.28;fill:url(#SVGID_97_)}.st430{opacity:.28;fill:url(#SVGID_98_)}.st431{opacity:.28;fill:url(#SVGID_99_)}.st432,.st433{fill:#ffee0a}.st433{opacity:.21}.st434{opacity:.28;fill:url(#SVGID_100_)}.st435{opacity:.28;fill:url(#SVGID_101_)}.st436,.st437{fill:#fd45ff}.st437{opacity:.21}.st438{opacity:.28;fill:url(#SVGID_102_)}.st439{opacity:.28;fill:url(#SVGID_103_)}.st440,.st441{fill:#52ff52}.st441{opacity:.21}.st442{opacity:.28;fill:url(#SVGID_104_)}.st443{opacity:.28;fill:url(#SVGID_105_)}.st444{opacity:.28;fill:url(#SVGID_106_)}.st445{opacity:.28;fill:url(#SVGID_107_)}.st446,.st447{fill:#59fff3}.st447{opacity:.21}.st448{opacity:.28;fill:url(#SVGID_108_)}.st449{opacity:.28;fill:url(#SVGID_109_)}.st450{opacity:.28;fill:url(#SVGID_110_)}.st451{opacity:.28;fill:url(#SVGID_111_)}.st452{opacity:.28;fill:url(#SVGID_112_)}.st453{opacity:.28;fill:url(#SVGID_113_)}.st454{opacity:.28;fill:url(#SVGID_114_)}.st455{opacity:.28;fill:url(#SVGID_115_)}.st456{opacity:.28;fill:url(#SVGID_116_)}.st457{opacity:.28;fill:url(#SVGID_117_)}.st458{opacity:.28;fill:url(#SVGID_118_)}.st459{opacity:.28;fill:url(#SVGID_119_)}.st460{opacity:.28;fill:url(#SVGID_120_)}.st461{opacity:.28;fill:url(#SVGID_121_)}.st462{opacity:.28;fill:url(#SVGID_122_)}.st463{opacity:.28;fill:url(#SVGID_123_)}.st464{opacity:.28;fill:url(#SVGID_124_)}.st465{opacity:.28;fill:url(#SVGID_125_)}.st466{opacity:.28;fill:url(#SVGID_126_)}.st467{opacity:.28;fill:url(#SVGID_127_)}.st468{opacity:.28;fill:url(#SVGID_128_)}.st469{opacity:.28;fill:url(#SVGID_129_)}.st470{opacity:.28;fill:url(#SVGID_130_)}.st471{opacity:.28;fill:url(#SVGID_131_)}.st472{opacity:.28;fill:url(#SVGID_132_)}.st473{opacity:.28;fill:url(#SVGID_133_)}.st474{opacity:.28;fill:url(#SVGID_134_)}.st475{opacity:.28;fill:url(#SVGID_135_)}.st476{opacity:.28;fill:url(#SVGID_136_)}.st477{opacity:.28;fill:url(#SVGID_137_)}.st478{opacity:.28;fill:url(#SVGID_138_)}.st479{opacity:.28;fill:url(#SVGID_139_)}.st480{opacity:.28;fill:url(#SVGID_140_)}.st481{opacity:.28;fill:url(#SVGID_141_)}.st482{opacity:.28;fill:url(#SVGID_142_)}.st483{opacity:.28;fill:url(#SVGID_143_)}.st484{opacity:.28;fill:url(#SVGID_144_)}.st485{opacity:.28;fill:url(#SVGID_145_)}.st486{opacity:.28;fill:url(#SVGID_146_)}.st487{opacity:.28;fill:url(#SVGID_147_)}.st488{opacity:.28;fill:url(#SVGID_148_)}.st489{opacity:.28;fill:url(#SVGID_149_)}.st490{opacity:.28;fill:url(#SVGID_150_)}.st491{opacity:.28;fill:url(#SVGID_151_)}.st492{opacity:.28;fill:url(#SVGID_152_)}.st493{opacity:.28;fill:url(#SVGID_153_)}.st494{opacity:.28;fill:url(#SVGID_154_)}.st495{opacity:.28;fill:url(#SVGID_155_)}.st496{opacity:.28;fill:url(#SVGID_156_)}.st497{opacity:.28;fill:url(#SVGID_157_)}.st498{opacity:.28;fill:url(#SVGID_158_)}.st499{opacity:.28;fill:url(#SVGID_159_)}.st500{opacity:.28;fill:url(#SVGID_160_)}.st501{opacity:.28;fill:url(#SVGID_161_)}.st502{opacity:.28;fill:url(#SVGID_162_)}.st503{opacity:.28;fill:url(#SVGID_163_)}.st504{opacity:.28;fill:url(#SVGID_164_)}.st505{opacity:.28;fill:url(#SVGID_165_)}.st506{opacity:.28;fill:url(#SVGID_166_)}.st507{opacity:.28;fill:url(#SVGID_167_)}.st508{opacity:.28;fill:url(#SVGID_168_)}.st509{opacity:.28;fill:url(#SVGID_169_)}.st510{opacity:.28;fill:url(#SVGID_170_)}.st511{opacity:.28;fill:url(#SVGID_171_)}.st512{opacity:.28;fill:url(#SVGID_172_)}.st513{opacity:.28;fill:url(#SVGID_173_)}.st514{fill:#898f90}.st515{opacity:.25;fill:#fff}.st516{fill:#00b8f0}.st517{fill:#00a7f0}.st518{opacity:.91;fill:url(#SVGID_174_)}.st519{opacity:.12;fill:#ffee0a}.st520{opacity:.62}.st521{fill:url(#SVGID_175_)}.st522{fill:url(#SVGID_176_)}.st523{fill:url(#SVGID_177_)}.st524{fill:url(#SVGID_178_)}.st525{fill:#7d857e}.st526{fill:#89908a}.st527{opacity:.91;fill:url(#SVGID_179_)}.st528{opacity:.12}.st528,.st529{fill:#78ff5e}.st530{fill:url(#SVGID_180_)}.st531{fill:url(#SVGID_181_)}.st532{fill:url(#SVGID_182_)}.st533{fill:url(#SVGID_183_)}.st534{fill:#85847d}.st535{fill:#908f89}.st536{opacity:.91;fill:url(#SVGID_184_)}.st537{opacity:.12;fill:#ff5e91}.st538{fill:#ff8373}.st539{fill:url(#SVGID_185_)}.st540{fill:url(#SVGID_186_)}.st541{fill:url(#SVGID_187_)}.st542{fill:url(#SVGID_188_)}.st543{fill:#5d6667}.st544{fill:url(#XMLID_298_)}.st545{fill:url(#XMLID_299_)}.st546{fill:url(#SVGID_189_)}.st547{fill:#b13837}.st548{fill:#3b627a}.st549{fill:url(#SVGID_190_)}.st550{fill:url(#XMLID_312_)}.st551{fill:url(#SVGID_191_)}.st552{fill:#754517}.st553{fill:#845930}.st554{fill:#a35f25}.st555{fill:#aa6c37}.st556{fill:#b07644}.st557{fill:#efdbc1}.st558{fill:#ffc805}.st559{fill:#231f20}.st560{fill:#00a351}.st561{fill:#084}.st562{fill:#ef6522}.st563{fill:#7a4b1f}.st564{fill:#32cbe6}.st565{fill:url(#SVGID_192_)}.st566{opacity:.1;fill:#005fd0}.st567{fill:#c48e4f}.st568{fill:#f8aeae}.st569{fill:#e6e5e1}.st570{fill:#7b9eb8}.st571{fill:#a5b3ad}.st572{fill:#c7c7c7}.st573{fill:url(#XMLID_315_)}.st574{fill:url(#SVGID_193_)}.st575{fill:url(#SVGID_194_)}.st576{fill:#388e3c}.st577{fill:#2e7d32}.st578{fill:#ffe18c}.st579{opacity:.25;fill:#29b6f6}.st580{fill:#414042}.st581{fill:#2f4c52}.st582{fill:#455d82}.st583{fill:#795548}.st584{fill:#d3d4d6}.st585{fill:#bcbec0}.st586{clip-path:url(#SVGID_196_)}.st587{fill:url(#SVGID_197_)}.st588{fill:url(#SVGID_198_)}.st589{clip-path:url(#SVGID_200_)}.st590{opacity:.5;fill:#f9ce1d}.st591{opacity:.28}.st592{fill:#d7d8d9}.st593{fill:#ebeced}.st594{fill:#ffd600}.st595{fill:#039be5}.st596{fill:url(#XMLID_316_)}.st597{fill:url(#SVGID_201_)}.st598{fill:#34d4f0}.st599{fill:#74e4f6}.st599,.st600{opacity:.51}.st601{fill:#74e4f6}.st602{fill:url(#XMLID_329_)}.st603{fill:#434fbf}.st604{opacity:.51}.st604,.st605{fill:#7182f0}.st606{opacity:.38}.st607{opacity:.39;fill:#ffff5c}.st608{opacity:.58;fill:#fff}.st609{opacity:.19;fill:#73c1de}.st610{opacity:.19;fill:#7335de}.st611{fill:#f5f2e2}.st612{fill:#a3a2a1}.st613{fill:#5a99d1}.st614{fill:#b8a485}.st615{fill:#eee5d5}.st616{fill:#ffc}.st617{fill:#ffd200}.st618{fill:#f26e21}.st619{fill:#f5871f}.st620{fill:#cfcfcf}.st621{fill:#019049}.st622{fill:#07a860}.st623{fill:#ab00ee}.st624{fill:#93d8f7}.st625{fill:#725d4c}.st626{fill:#028f1f}.st627{fill:#0da760}.st628{fill:#f4c138}.st629{fill:#f9646d}.st630{fill:url(#SVGID_202_)}.st631{clip-path:url(#SVGID_204_)}.st632{fill:#8de0f2}.st633{fill:url(#SVGID_205_)}.st634{fill:url(#XMLID_330_)}.st635{stroke:#d7d7d7;stroke-width:5.6}.st635,.st636{fill:none;stroke-miterlimit:10}.st636{stroke:#ffc;stroke-width:.7;stroke-dasharray:2.1,4.2}.st637{fill:#4cb5cf}.st638{fill:#638aaa}.st639{fill:url(#XMLID_331_)}.st640{fill:url(#XMLID_332_)}.st641{fill:url(#SVGID_206_)}.st642{fill:url(#XMLID_337_)}.st643{clip-path:url(#SVGID_208_)}.st644{fill:url(#SVGID_209_)}.st645{opacity:.51;clip-path:url(#SVGID_208_)}.st646{fill:url(#SVGID_210_)}.st647{fill:url(#SVGID_211_)}.st648{fill:url(#SVGID_212_)}.st649{fill:url(#XMLID_363_)}.st650{fill:url(#SVGID_213_)}.st651{fill:url(#XMLID_364_)}.st652{fill:#e0f3f5}.st653{opacity:.64;fill:#7ec1c4}.st654{fill:#c4dfe3}.st655,.st656{fill:#7ec1c4}.st656{opacity:.53}.st657{opacity:.82;fill:#7ec1c4}.st658{opacity:.3;fill:#7ec1c4}.st659{fill:#79a6ad}.st660{fill:#c5161d}.st661{fill:#e91c24}.st662{fill:#00a551}.st663{fill:#2c7c2f}.st664{fill:#aec7dc}.st665{fill:none;stroke:#97babf;stroke-width:1.9787;stroke-miterlimit:10}.st666{fill:#9dcb3b}.st667{fill:#d9ebed}.st668{fill:#008c45}.st669{fill:#ae5f2d}.st670{fill:#7a347e}.st671{fill:#754c28}.st672{fill:#0085b7}.st673{fill:#d89614}.st674{fill:#ecdec9}.st675{fill:#9c8954}.st676{opacity:8e-2}.st677{fill:#4e4e6b}.st678{fill:#859537}.st679{fill:#8a773f}.st680{fill:#cc29b9}.st681{fill:#6d42e3}.st682{fill:#16c447}.st683{fill:#c26d11}.st684{fill:url(#XMLID_404_)}.st685{clip-path:url(#SVGID_215_)}.st686{fill:#0081a8}.st687{clip-path:url(#SVGID_215_);fill:#c7b31e}.st688{fill:#b5b5b5}.st689{fill:#e8e8e8}.st690{fill:#0791aa}.st691{fill:#c7b31e}.st692{fill:#9d9d9d}.st693{fill:#f7f01f}.st694{fill:#7dc6d3}.st695{fill:#4db0c2}.st696{fill:#00be69}.st697{fill:#f57f17}.st698{fill:#e77969}.st699{fill:#f7e2a5}.st700{fill:#f4d784}.st701{fill:#54c391}.st702{fill:#008e5c}.st703{fill:#076e2f}.st704{clip-path:url(#SVGID_215_);fill:#fff}.st705{fill:#f5f129}.st705,.st706{clip-path:url(#SVGID_215_)}.st706{opacity:.1}.st707{fill:url(#SVGID_216_)}.st708{fill:#9dcfd8}.st709{fill:#b1e1e7}.st710{fill:#73bcdd}.st711{fill:#7ba8cd}.st712{fill:#7299ba}.st713{fill:#5b93c1}.st714{fill:#d2e3e6}.st715{fill:#48494d}.st716{fill:#16bdcc}.st717{fill:#d63e3e}.st718{fill:url(#SVGID_217_)}.st719{fill:url(#SVGID_218_)}.st720{fill:url(#SVGID_219_)}.st721{fill:#dcdfd8}.st722{opacity:.7}.st723{fill:#ef5350}.st724{fill:#70cc47}.st725{fill:#8bd463}.st726{fill:url(#SVGID_220_)}.st727{fill:#e24c41}.st728{fill:#eb6760}.st729{fill:#2db9eb}.st730{fill:#ffdf00}.st731{fill:#373b40}.st732{fill:#fffbdb}.st733{fill:#d7e1e3}.st734{opacity:.2;fill:#373b40}.st735{fill:#c6e9fa}.st736{fill:#20242a}.st737{fill:#332e2e}.st738{fill:#fdbe0c}.st739{fill:#f7fffa}.st740{fill:#9e978a}.st741{fill:#b4afa5}.st742{fill:#e68ecd}.st743{fill:#98d4bc}.st744{fill:#88a2d6}.st745{fill:#e36868}.st746{fill:#f8ae37}.st747{fill:#b99960}.st748{fill:#d4af6e}.st749{opacity:.12}.st750{fill:#f0b21c}.st751{fill:#b46d3d}.st752{fill:#caa56e}.st753{fill:#a8844f}.st754{fill:#59595c}.st755{fill:#b56d3d}.st756{opacity:.19;fill:#fcd09a}.st757{fill:#85e1e7}.st758{fill:#e7f3f2}.st759{opacity:.19}.st760{opacity:.6;fill:url(#SVGID_221_)}.st761{fill:#48aacf}.st762{opacity:.6;fill:#3e31ff}.st763{opacity:.6;fill:#1b4df9}.st764{opacity:.6;fill:#85e1e7}.st765{fill:#62accd}.st766{fill:#81ffff}.st767{opacity:.6;fill:#fff}.st768{opacity:.6;fill:#73bcdd}.st769{fill:#2e93c1}.st770{opacity:.6;fill:#1e9ae3}.st771{opacity:.6;fill:#48aacf}.st772{opacity:.15;fill:#81ffff}.st773{opacity:.6;fill:#2e93c1}.st774{opacity:.67;fill:#62accd}.st775{opacity:.67;fill:#9dcfd8}.st776{opacity:.28;fill:#81ffff}.st777{fill:#8aafb5}.st778{opacity:.99;fill:#91f3fa}.st779{fill:#1fc2f5}.st780{opacity:.99;fill:#62accd}.st781{opacity:.99;fill:#a9dee8}.st782{opacity:.36;fill:url(#SVGID_222_)}.st783{fill:url(#SVGID_223_)}.st784{opacity:.6;fill:#62accd}.st785{fill:url(#SVGID_224_)}.st786{fill:url(#SVGID_225_)}.st787{fill:url(#SVGID_226_)}.st788{fill:#caf5f6}.st789{fill:#00c1f2}.st790{fill:#ff931e}.st791{fill:#d94636}.st792{fill:#d43e2e}.st793{fill:#fdce48}.st794{fill:#464647}.st795{fill:#d33e2f}.st796{fill:#ff8a33}.st797{fill:#746458}.st798{fill:#57aba9}.st799{fill:#6cccc9}.st800{fill:#a7c1c5}.st801{fill:#b6e2f8}.st802{fill:#61aac9}.st803{fill:#e1f3fc}.st804{fill:#fff58b}.st805{fill:#b59a48}.st806{fill:#eed257}.st807{fill:#d9d286}.st808{fill:#ff916d}.st809{fill:#ffe327}.st810{fill:#64e8be}.st811{opacity:.2;fill:#333}.st812{opacity:.22;fill:#333}.st813{fill:url(#XMLID_406_)}.st814{fill:url(#XMLID_407_)}.st815{fill:url(#XMLID_408_)}.st816{fill:url(#SVGID_227_)}.st817{fill:url(#XMLID_422_)}.st818{fill:url(#XMLID_423_)}.st819{fill:url(#SVGID_228_)}.st820{fill:url(#SVGID_229_)}.st821{opacity:.55;fill:#d8fbff}.st822{opacity:.5;fill:url(#SVGID_230_)}.st823{fill:#29b65e}.st824{fill:#009047}.st825{fill:#91651c}.st826{fill:#bd822b}.st827{fill:#d5b06e}.st828{fill:#007dc5}.st829{fill:#a66d40}.st830{fill:#ff8c33}.st831{fill:#a67108}.st832{fill:#f1b31c}.st833{fill:#b88a13}.st834{fill:#b93a2c}.st835{fill:#c36e2c}.st836{fill:#a8362a}.st837{fill:#34875d}.st838{fill:#602c63}.st839{fill:#0086b7}.st840{fill:#cdb300}.st841{fill:#26a89b}.st842{fill:#da4637}.st843{fill:#48b980}.st844{fill:#f58b37}.st845{fill:#00abe9}.st846{fill:#4859b9}.st847{fill:#e86e1c}.st848{fill:#c8541f}.st849{fill:#b9191e}.st850{opacity:.19;fill:#212121}.st851{opacity:.3;fill:#28b04b}.st852{fill:#f9858e}.st853{fill:#5f14a6}.st854{fill:#8c28de}.st855{fill:#a2a5a3}.st856{fill:#ab3125}.st857{clip-path:url(#SVGID_232_)}.st858{fill:#00914a}.st859{opacity:.39;fill:#791f11}.st860{fill:#b6e5cd}.st861{fill:#e9d386}.st862{fill:#413d3d}.st863{fill:#666262}.st864{fill:#85d4ac}.st865{opacity:.1;fill:#b6e5cd}.st866{fill:#f5951f}.st867{fill:#00369c}.st868{fill:#2759d9}.st869{fill:#2297cc}.st870{fill:#764c2e}.st871{fill:#d4af19}.st872{fill:#62a807}.st873{fill:#008e1f}.st874{opacity:.37;fill:#fff}.st875{fill:#bbe5fa}.st876{fill:#7a5951}.st877,.st878{fill:#212121}.st878{clip-path:url(#XMLID_424_)}.st879{fill:#cc372c}.st880{fill:#ebad11}.st881{fill:#e33483}.st882{fill:#3788de}</style><g id="New_Symbol_98"><g id="New_Symbol_65_5_"><ellipse class="st114" cx="89.7" cy="172.4" rx="1.1" ry="1.2"/><path class="st114" d="M283.5 164.8c-1.9 0-3.5 1.7-3.5 3.8h6.9c.1-2.1-1.5-3.8-3.4-3.8zm-10.7 1h-3.7c-1.9-2.6-7.6-6.1-10-6.1h-17.9c-4.5 0-4.1-2.6-3.9-3.5.1-.9.8-2.1 3.8-2.1h10.6c1.1 0 1.6-1.4.6-2.1-3.7-2.6-6.3-4.3-9.3-4.3H115.3c-1.9 0-3.8.9-4.9 2.7-1.1 1.8-4.3 7.8-6.5 9.5-.9.8-1.5 1.9-1.5 3.2 0 1.1.4 2.1 1.1 2.8.6.7 1.5 1.2 2.5 1.2l4.5.1c2.4-1.2 2.3 1.2 0 1.9H96.2c-2.3 0-4.2 1-4.2 2.3s1.9 2.3 4.2 2.3h151.3c1.1 0 2-.5 3.8-1.3h8.9c1 0 1.8-.8 1.8-1.8 0-.5-.2-1-.6-1.3h11.5c1 0 1.8-.8 1.8-1.8s-.9-1.7-1.9-1.7z"/><path id="XMLID_3357_" class="st114" d="M52.1 164.7c0-1.7 1.3-3.1 2.9-3.1s2.9 1.4 2.9 3.1h-5.8z"/><path id="XMLID_3355_" class="st114" d="M74.9 166c0-1.2.9-2.1 1.9-2.1s1.9 1 1.9 2.1"/><path id="XMLID_3354_" class="st115" d="M233.2 157.9c0-2.1 1.5-3.8 3.5-3.8s3.5 1.7 3.5 3.8h-7z"/><path id="XMLID_3353_" class="st115" d="M115.7 165.5c0-1.5 1.1-2.6 2.4-2.6 1.3 0 2.4 1.2 2.4 2.6h-4.8z"/><path class="st115" d="M268.1 156.8h-7.9c-.8 0-1.5-.7-1.5-1.5s.7-1.5 1.5-1.5h7.9c.8 0 1.5.7 1.5 1.5s-.7 1.5-1.5 1.5z"/><path id="XMLID_3351_" class="st115" d="M236 165c0-2.1 1.5-3.8 3.5-3.8s3.5 1.7 3.5 3.8h-7z"/><path id="XMLID_3350_" class="st34" d="M.1 153.4c0-1.8 1.3-3.2 2.9-3.2s2.9 1.4 2.9 3.2H.1z"/><path class="st34" d="M194.6 144.1c-3.4-6.6-14.5-11.9-21.1-11.9H74.8c-2 0-6.8 2.6-8.5 4.1-2 1.8-11.7 6.4-14.3 7.1h-.4c-1.7 0-4.9 3.2-4.9 5 0 1.8 3.2 1.5 4.9 1.5l8.3.2c2.5 0 2.5 4.2 0 4.2H35.2c-1.3 0-4.2 2.1-4.2 3.5s2.9 1.7 4.2 1.7h168.6l-9.2-15.4z"/><path class="st34" d="M35 149.5c-2 0-3.5 1.7-3.5 3.9h7.1c-.1-2.2-1.6-3.9-3.6-3.9zm0-5.7h5.5c0-2.1-1.6-3.9-3.5-3.9-1.2 0-2.3.7-2.9 1.7-.5-.4-1-.7-1.6-.7-1.4 0-2.6 1.3-2.6 2.8H35z"/><ellipse class="st34" cx="25.3" cy="154.7" rx="2" ry="2.2"/><path class="st34" d="M37.9 147.7h5.4c0-1.6-1.2-2.9-2.7-2.9s-2.7 1.3-2.7 2.9z"/><path id="XMLID_3348_" class="st115" d="M173.5 153.8c0-1.7 1.3-3.1 2.8-3.1 1.6 0 2.8 1.4 2.8 3.1h-5.6z"/><path id="XMLID_3347_" class="st34" d="M212.7 166.3c0-2.1 1.6-3.9 3.5-3.9 2 0 3.5 1.7 3.5 3.9h-7z"/><path id="XMLID_3346_" class="st34" d="M160.3 164.3c0-1.7 1.2-3 2.8-3 1.5 0 2.8 1.4 2.8 3h-5.6z"/><path id="XMLID_3345_" class="st115" d="M65.2 154.1c0-1.5 1.1-2.7 2.5-2.7s2.5 1.2 2.5 2.7h-5z"/><path class="st115" d="M211 143.8h-8.1c-.8 0-1.5-.7-1.5-1.5s.7-1.5 1.5-1.5h8.1c.8 0 1.5.7 1.5 1.5s-.7 1.5-1.5 1.5z"/><path class="st34" d="M206 152h15.1c1 0 1.8-.8 1.8-1.8s-.8-1.8-1.8-1.8H206c-1 0-1.8.8-1.8 1.8s.8 1.8 1.8 1.8zm20.3 1.1h-27.1c-1.4 0-2.5 1.1-2.5 2.5 0 .7.3 1.4.8 1.8h-12.1c-1.4 0-2.5 1.1-2.5 2.5s1.1 2.5 2.5 2.5h27.1c1.4 0 2.5-1.1 2.5-2.5 0-.7-.3-1.4-.8-1.8h12.1c1.4 0 2.5-1.1 2.5-2.5s-1.1-2.5-2.5-2.5z"/><path id="XMLID_3344_" class="st115" d="M184.5 157.3c0-2.1 1.6-3.9 3.5-3.9 2 0 3.5 1.7 3.5 3.9h-7z"/><path id="XMLID_3343_" class="st114" d="M82.8 162.2c0-2.1 1.5-3.8 3.5-3.8s3.5 1.7 3.5 3.8h-7z"/><path id="XMLID_3341_" class="st114" d="M84.7 155.3c0-2.1 1.5-3.8 3.5-3.8 1.9 0 3.5 1.7 3.5 3.8h-7z"/><path id="XMLID_3340_" class="st114" d="M81.2 155.3c0-1.5 1.1-2.8 2.5-2.8s2.5 1.2 2.5 2.8h-5z"/><path id="XMLID_3338_" class="st114" d="M156 159.7c0-2.1 1.6-3.9 3.5-3.9 2 0 3.5 1.7 3.5 3.9h-7z"/><path id="XMLID_3337_" class="st114" d="M152.3 159.7c0-1.6 1.2-2.8 2.6-2.8 1.4 0 2.6 1.3 2.6 2.8h-5.2z"/><path id="XMLID_3335_" class="st114" d="M137.8 160.6c0-2.5 1.8-4.5 4.1-4.5s4.1 2 4.1 4.5"/></g><ellipse class="st5" cx="126.9" cy="144.2" rx="126.9" ry="6.4"/><path class="st576" d="M34 124.6l36.1-74.9v74.9z"/><path class="st577" d="M106.3 124.6L70.1 49.7v74.9z"/><path class="st576" d="M126.5 124.6l37.1-76.9v76.9z"/><path class="st577" d="M200.7 124.6l-37.1-76.9v76.9z"/><path class="st576" d="M156.8 124.6l29.8-61.8v61.8z"/><path class="st577" d="M216.4 124.6l-29.8-61.8v61.8z"/><path class="st576" d="M88.2 124.6l27.5-56.9v56.9z"/><path class="st577" d="M143.1 124.6l-27.4-56.9v56.9z"/><circle class="st34" cx="65.9" cy="108.3" r="1.6"/><path class="st578" d="M66.9 113h10.5v11.5H66.9z"/><path class="st34" d="M66.9 120.3h10.5v4.3H66.9z"/><path class="st97" d="M67.5 108.3l-.1 6.3h10c0-3.5-4.4-6.3-9.9-6.3z"/><path class="st34" d="M77.4 111.5c.4 0 .8.4.8.8v1.6c0 .4-.4.8-.8.8H66.9c-.4 0-.8-.4-.8-.8v-1.6c0-.4.4-.8.8-.8h10.5z"/><path class="st576" d="M110.7 124.6l23-47.8v47.8z"/><path class="st577" d="M156.8 124.6l-23.1-47.8v47.8z"/><path class="st576" d="M68.6 124.6l27.5-56.9v56.9z"/><path class="st577" d="M123.5 124.6L96.1 67.7v56.9z"/><path class="st576" d="M14.3 124.6l27.2-56.3v56.3z"/><path class="st577" d="M68.6 124.6L41.5 68.3v56.3z"/><path class="st579" d="M8.9 124.6c0-58.8 47.7-106.4 106.4-106.4s106.4 47.7 106.4 106.4H8.9z"/><g class="st5"><path d="M202 124.6h-1c0-58.1-38.4-105.4-85.6-105.4S29.7 66.4 29.7 124.6h-1.1c0-58.7 38.9-106.4 86.7-106.4 47.9-.1 86.7 47.7 86.7 106.4z"/><path d="M179.6 124.6h-1.1c0-58.1-28.3-105.4-63.2-105.4S52.2 66.4 52.2 124.6h-1.1c0-58.7 28.8-106.4 64.2-106.4s64.3 47.7 64.3 106.4z"/><path d="M155.8 124.6h-1.1c0-58.1-17.7-105.4-39.4-105.4S76 66.4 76 124.6h-1.1c0-58.7 18.1-106.4 40.5-106.4s40.4 47.7 40.4 106.4z"/><path d="M129.7 124.6h-1.1c0-63-6.9-105.4-13.3-105.4S102 61.6 102 124.6h-1c0-52.3 5.4-106.4 14.4-106.4s14.3 54 14.3 106.4z"/><path d="M36 53.4h158.7v1.1H36zM15 88.7h200.8v1.1H15z"/></g><path class="st97" d="M4.9 124.6h220.9v19.6H4.9z"/><g class="st5"><path d="M4.9 130.6h220.9v1.1H4.9zm0 6.5h220.9v1.1H4.9z"/><path d="M17.4 124.6h1.1v6.5h-1.1zm13 0h1.1v6.5h-1.1zm13 0h1.1v6.5h-1.1zm13 0h1.1v6.5h-1.1zm13 0h1.1v6.5h-1.1zm12.9 0h1.1v6.5h-1.1zm13 0h1.1v6.5h-1.1zm13 0h1.1v6.5h-1.1zm13 0h1.1v6.5h-1.1zm13 0h1.1v6.5h-1.1zm13 0h1.1v6.5h-1.1zm13 0h1.1v6.5h-1.1zm13 0h1.1v6.5h-1.1zm13 0h1.1v6.5h-1.1zm13 0h1.1v6.5h-1.1zm13 0h1.1v6.5h-1.1zm-194.9 13h1.1v6.5h-1.1zm13 0h1.1v6.5h-1.1zm13 0h1.1v6.5h-1.1zm13 0h1.1v6.5h-1.1zm13 0h1.1v6.5h-1.1zm12.9 0h1.1v6.5h-1.1zm13 0h1.1v6.5h-1.1zm13 0h1.1v6.5h-1.1zm13 0h1.1v6.5h-1.1zm13 0h1.1v6.5h-1.1zm13 0h1.1v6.5h-1.1zm13 0h1.1v6.5h-1.1zm13 0h1.1v6.5h-1.1zm13 0h1.1v6.5h-1.1zm13 0h1.1v6.5h-1.1zm13 0h1.1v6.5h-1.1zm-201.4-6.5H12v6.5h-1.1zm13 0H25v6.5h-1.1zm13 0H38v6.5h-1.1zm13 0H51v6.5h-1.1zm13 0H64v6.5h-1.1zm13 0H77v6.5h-1.1zm12.9 0h1.1v6.5h-1.1zm13 0h1.1v6.5h-1.1zm13 0h1.1v6.5h-1.1zm13 0h1.1v6.5h-1.1zm13 0h1.1v6.5h-1.1zm13 0h1.1v6.5h-1.1zm13 0h1.1v6.5h-1.1zm13 0h1.1v6.5h-1.1zm13 0h1.1v6.5h-1.1zm13 0h1.1v6.5h-1.1zm13 0h1.1v6.5h-1.1z"/></g><path class="st5 st580" d="M120.8 110.2c7.9 0 14.3 6.4 14.3 14.3v9.1h-28.7v-9.1c.1-7.9 6.5-14.3 14.4-14.3m0-10.5c-13.7 0-24.9 11.2-24.9 24.9v19.6h49.7v-19.6c.1-13.8-11.1-24.9-24.8-24.9z"/><path class="st581" d="M95.8 138.9v-14.3c0-10.8 8.8-19.6 19.6-19.6s19.6 8.8 19.6 19.6v14.3H95.8z"/><path class="st582" d="M115.4 110.2c7.9 0 14.3 6.4 14.3 14.3v9.1H101v-9.1c0-7.9 6.4-14.3 14.4-14.3m0-10.5c-13.7 0-24.9 11.2-24.9 24.9v19.6h49.7v-19.6c0-13.8-11.1-24.9-24.8-24.9z"/><path class="st583" d="M115.4 110.2c-7.9 0-14.3 6.4-14.3 14.3v19.6h28.7v-19.6c-.1-7.9-6.5-14.3-14.4-14.3z"/><path class="st584" d="M117.8 110.4c-.8-.1-1.6-.2-2.5-.2-7.9 0-14.3 6.4-14.3 14.3v19.6h4.9v-19.6c0-7 5.2-12.9 11.9-14.1z"/><path class="st581" d="M114.8 99.7h1.1v10.5h-1.1zM90.5 124H101v1.1H90.5zm0 14.3H101v1.1H90.5zm0-7.1H101v1.1H90.5zm39.2-7.2h10.5v1.1h-10.5zm8.408-9.487l.42 1.016-9.7 4.02-.42-1.02zm-13.756-13.128l1.016.42-4.02 9.7-1.017-.42zm-18-.002l4.02 9.7-1.016.42-4.02-9.7zM92.62 114.535l9.7 4.018-.42 1.017-9.7-4.02zM129.7 138.3h10.5v1.1h-10.5zm0-7.1h10.5v1.1h-10.5zm-31.598-24.604l7.424 7.425-.778.78-7.424-7.422zm34.495-.018l.778.778-7.425 7.424-.778-.777z"/><path class="st585" d="M114.8 110.2h1.1v33.9h-1.1zm-7.4 2.2h1.1v31.7h-1.1zm14.9-.1h1.1v31.8h-1.1z"/><circle class="st584" cx="123.8" cy="130.7" r="2.5"/><circle class="st90" cx="122.8" cy="129.6" r="2.5"/><path class="st584" d="M115.4 18.1c41.8 0 75.7 47.7 75.7 106.4v19.6h34.7v-19.6h-4c0-58.7-47.7-106.4-106.4-106.4z"/><path class="st34" d="M264.2 46.9c0 23.6-16.5 42.7-40.1 42.7s-42.7-19.1-42.7-42.7 19-42.8 42.6-42.8 40.2 19.2 40.2 42.8z"/><path class="st579" d="M181.9 26.2c-3.4 6.1-5.3 13.2-5.3 20.7 0 23.6 19.1 42.7 42.7 42.7 3.9 0 7.6-.5 11.2-1.5-8.5-25.8-25.9-47.7-48.6-61.9z"/><defs><path id="SVGID_195_" d="M181.9 26.2c-3.4 6.1-5.3 13.2-5.3 20.7 0 23.6 19.1 42.7 42.7 42.7 3.9 0 7.6-.5 11.2-1.5-8.5-25.8-25.9-47.7-48.6-61.9z"/></defs><clipPath id="SVGID_1_"><use xlink:href="#SVGID_195_" overflow="visible"/></clipPath><g clip-path="url(#SVGID_1_)"><path class="st576" d="M132.1 112.1l42.3-87.6v87.6z"/><path class="st577" d="M216.7 112.1l-42.3-87.6v87.6z"/></g><g clip-path="url(#SVGID_1_)"><g class="st399"><path class="st34" d="M169.8 23.7c-4.2 5.6-7 12.4-8 19.8-3.1 23.4 13.5 44.9 36.9 47.9 3.8.5 7.6.5 11.3 0-5.1-26.8-19.6-50.7-40.2-67.7z"/><path d="M204.2 93.2c-1.9 0-3.8-.1-5.7-.4-24.2-3.2-41.3-25.4-38.2-49.6 1-7.4 3.8-14.5 8.2-20.5l.9-1.3 1.2 1c21.1 17.4 35.6 41.8 40.7 68.6l.3 1.6-1.6.2c-1.8.3-3.8.4-5.8.4zm-34.1-67.3c-3.6 5.3-5.9 11.4-6.8 17.8-2.9 22.5 13 43.3 35.6 46.2 3.1.4 6.2.5 9.3.2-5.2-25-18.6-47.7-38.1-64.2z"/></g><path d="M171.7 51.9h45.4v3h-45.4z" class="st399"/></g><circle class="st579" cx="219.3" cy="46.9" r="42.7"/><circle class="st579" cx="219.3" cy="46.9" r="42.7"/><path class="st515" d="M190.9 36.5c7.2-8.6 14.3-14.3 24.1-18.3-1.9-2.7-3.3-3.7-7.3-5.4-9.1 5-16.6 12.6-21.4 21.8l4.6 1.9z"/><path class="st582" d="M219.3 93.7c-25.8 0-46.9-21-46.9-46.9S193.5 0 219.3 0s46.9 21 46.9 46.9-21 46.8-46.9 46.8zm0-85.4c-21.3 0-38.6 17.3-38.6 38.6s17.3 38.6 38.6 38.6 38.6-17.3 38.6-38.6-17.3-38.6-38.6-38.6z"/><path class="st582" d="M215.2 89.6h8.3v14.2h-8.3z"/><path class="st581" d="M211.1 103.8h16.5v40.3h-16.5z"/><path class="st34" d="M13 145.5c0-3.6 2.9-6.5 6.5-6.5s6.5 2.9 6.5 6.5"/><path class="st34" d="M23.4 145.5c0-2.5 2-4.5 4.5-4.5s4.5 2 4.5 4.5m2.6 0c0-2.5 2-4.5 4.5-4.5s4.5 2 4.5 4.5m139.3 0c0-4 3.3-7.3 7.3-7.3s7.3 3.3 7.3 7.3"/><path class="st34" d="M176.7 145.5c0-2.8 2.3-5.1 5.1-5.1s5.1 2.3 5.1 5.1m5.9 0c0-2.8 2.3-5.1 5.1-5.1s5.1 2.3 5.1 5.1"/></g></svg>