<svg xmlns="http://www.w3.org/2000/svg" width="498.62" height="283.55" viewBox="0 0 498.62 283.55"><defs><style>.cls-1{isolation:isolate}.cls-2,.cls-5,.cls-6{opacity:.5}.cls-3{opacity:.8}.cls-4,.cls-7{opacity:.48}.cls-5,.cls-7{fill:#75cef4}.cls-6{fill:#00bff0;mix-blend-mode:multiply}.cls-8{fill:url(#linear-gradient)}.cls-9{fill:url(#linear-gradient-2)}.cls-10{fill:gray}.cls-11{fill:#8f4293}.cls-12{fill:#ffdf8a}.cls-13{fill:#333}.cls-14{fill:#fff}.cls-15{fill:#ffd400}.cls-16{fill:#584539}.cls-17{fill:#e64436}.cls-18{fill:#9b643d}.cls-19{fill:#f27b20}.cls-20{fill:#e0bb95}.cls-21{opacity:.99}</style><linearGradient id="linear-gradient" x1="369.83" y1="237.48" x2="369.83" y2="268.71" gradientUnits="userSpaceOnUse"><stop offset=".22" stop-color="#f6f3ec"/><stop offset=".33" stop-color="#f6f3ec" stop-opacity=".67"/><stop offset=".79" stop-color="#f6f3ec" stop-opacity="0"/></linearGradient><linearGradient id="linear-gradient-2" x1="203.33" y1="265.06" x2="203.33" y2="243.83" gradientUnits="userSpaceOnUse"><stop offset=".04" stop-color="#fff" stop-opacity="0"/><stop offset=".39" stop-color="#fff" stop-opacity=".67"/><stop offset=".53" stop-color="#fff"/></linearGradient></defs><title>building-santas-back-ice</title><g class="cls-1"><g id="slice"><g id="_Group_" data-name="&lt;Group&gt;"><g id="_Group_2" data-name="&lt;Group&gt;" class="cls-4"><path id="_Path_" data-name="&lt;Path&gt;" class="cls-5" d="M421.74 243.44l-9.24-98.27-6.71-14.58-36.84-75.81-7.33-26.85L339.01 0l-35.93 12.42-43.57 39.61-105.45 30.38-36.27 8.34-16.36 82.68-7.7 70.9 328.01-.89z"/><path id="_Path_2" data-name="&lt;Path&gt;" class="cls-6" d="M406.57 242.84l-28.93-106.6-39.21 12.6-.92-85.24-67.1 70.66-78.62-36.23-8.89 47.55-28.67-19.19-54.57 117.94 306.91-1.49z"/></g><path id="_Path_3" data-name="&lt;Path&gt;" class="cls-5" d="M421.74 243.44l-9.24-98.27-12.47-66.45-61.85-61.03-78.67 34.34-105.45 30.38-36.27 8.34-16.36 82.68-7.7 70.9 328.01-.89z"/><path id="_Path_4" data-name="&lt;Path&gt;" class="cls-7" d="M421.74 243.44l-175.13-98.23 12.9-93.18-118.04-.36-23.68 39.08-16.36 82.68-7.7 70.9 328.01-.89z"/></g><path id="_Path_5" data-name="&lt;Path&gt;" class="cls-8" d="M497.92 261.15c-75.68-13-75.36-29.49-107.56-40.68a62.11 62.11 0 0 0-41.06 0c-32.2 11.19-31.88 27.71-107.56 40.68-9.19 1.57 74.82 22.4 107.56 22.4h41.06c32.74 0 116.75-20.83 107.56-22.4z"/><path class="cls-9" d="M405.41 267.31c7.74-9.07-22.68-10.76-24.83-11.13-60.23-10.32-60-23.47-85.6-32.37a46.36 46.36 0 0 0-16.34-2.81 44.06 44.06 0 0 0-12.35 1.56c-4.27-13.1-6.63-23.77-6.63-23.77-3.15-17.3-18.64-31.33-34.59-31.33a25.49 25.49 0 0 0-4.15.37 28.05 28.05 0 0 0-4.28-.37 25.38 25.38 0 0 0-5.18.53c.52-17.2-10.4-29.82-27.67-29.82a37.56 37.56 0 0 0-5.63.48 32.3 32.3 0 0 0-5.36-.48c-20.8 0-42.94 18.29-49.45 40.86 0 0-5.33 16.3-13.8 35.26a27.3 27.3 0 0 0-7.2-.29c-6.69.61-13 3.26-19.18 5.88C55.46 231.69 27.73 247.65 0 267.31z"/><path class="cls-10" d="M167.66 140.86s3.17 2.24 5.86 1.22c0 0 .24-2.44-3.08-5.06l-1.21 1.67-16.87-12.24-.31.43 16.87 12.24z"/><path class="cls-11" d="M169.12 125.88s-1.38-6.43-2.73-8.84c0 0-.42 4.25-2.54 4.79z"/><path class="cls-12" d="M167 128.17a3.32 3.32 0 0 1-4.63.79 3.32 3.32 0 0 1-.79-4.63 3.32 3.32 0 0 1 4.63-.79 3.32 3.32 0 0 1 .79 4.63z"/><path class="cls-13" d="M167.26 124.74a3.32 3.32 0 0 0-6.27 1.79 5.71 5.71 0 0 0 6.27-1.79z"/><path class="cls-12" d="M164.58 127.5v-3s-2.76 2.8-.74 3.65z"/><rect class="cls-14" x="165.1" y="120.28" width="1.7" height="7.49" rx=".44" ry=".44" transform="rotate(-54.73 165.93 124.023)"/><circle class="cls-13" cx="166.25" cy="127.05" r=".59" transform="rotate(-54.73 166.238 127.048)"/><path class="cls-11" d="M160.4 137.25a3.32 3.32 0 1 1-5.43-3.84l2.65-3.75a3.32 3.32 0 1 1 5.43 3.84z"/><path class="cls-14" d="M157.65 139.26v4.11h-1.74v-4.11"/><path class="cls-11" d="M156.31 137c1.16 0 1.34.58 1.34 1.18v2.49h-1.74v-2.81z"/><path class="cls-13" d="M155.79 143.06h2c.67 1.31 2.41 1.31 2.65.36 0 0 .93 1.8-3.24 1.54a1.48 1.48 0 0 1-1.41-1.9z"/><path class="cls-13" transform="rotate(-54.73 158.148 134.656)" d="M157.34 131.33H159v6.65h-1.66z"/><path class="cls-15" transform="rotate(-54.73 160.87 136.518)" d="M159.92 136.29h1.9v.47h-1.9z"/><path class="cls-12" d="M166.72 127.76l2 2.54c.28.2 0 .6-.41.31l-3-2.15z"/><path class="cls-11" d="M165.61 135.08l-3.79-2.96-.87 1.93 3.86 2.82.8-1.79z"/><circle class="cls-12" cx="165.45" cy="136.15" r="1.27" transform="rotate(-54.73 165.435 136.15)"/><path class="cls-13" d="M159.47 126.12a2.27 2.27 0 0 1-2-.7 2.27 2.27 0 0 1 3.67-.49 2.27 2.27 0 0 1-1.67 1.19z"/><circle class="cls-16" cx="130.68" cy="198.25" r="1.27"/><circle class="cls-16" cx="142.59" cy="198.32" r="1.27"/><path class="cls-17" d="M134.14 187.44s2.73-5.7 5.22-6.88c0 0-1.31 5.34.12 7z"/><path class="cls-16" d="M140.19 190.53a3.32 3.32 0 0 1-3.32 3.32 3.32 3.32 0 0 1-3.32-3.32 3.32 3.32 0 0 1 3.32-3.32 3.32 3.32 0 0 1 3.32 3.32z"/><rect class="cls-14" x="133.18" y="186.91" width="7.49" height="1.7" rx=".44" ry=".44"/><circle class="cls-13" cx="135.44" cy="190.05" r=".59"/><circle class="cls-13" cx="138.17" cy="190.05" r=".59"/><path class="cls-17" d="M133.39 198.29v-1.12a3.32 3.32 0 1 1 6.65 0v1.12"/><path class="cls-14" d="M136.41 194.07h.6v5.25h-.6z"/><circle class="cls-14" cx="139.87" cy="180" r=".71"/><path class="cls-16" d="M133.55 189.82l-1.11-1.5s-.63 3.88 1.5 3.4zM139.87 189.82l1.11-1.5s.63 3.88-1.5 3.4z"/><circle class="cls-18" cx="81.72" cy="230.18" r="1.27"/><path class="cls-19" d="M87.38 218.55s-2.73-5.7-5.22-6.88c0 0 1.31 5.34-.12 7z"/><path class="cls-18" d="M81.32 221.64a3.32 3.32 0 0 0 3.33 3.36 3.32 3.32 0 0 0 3.35-3.36 3.32 3.32 0 0 0-3.32-3.32 3.32 3.32 0 0 0-3.32 3.32z"/><rect class="cls-14" x="80.85" y="218.02" width="7.49" height="1.7" rx=".44" ry=".44"/><circle class="cls-13" cx="86.07" cy="221.16" r=".59"/><circle class="cls-13" cx="83.34" cy="221.16" r=".59"/><path class="cls-19" d="M86.71 226.24h6.63v1.88h-6.63z"/><path class="cls-19" d="M81.48 232.87a3.32 3.32 0 1 0 6.65 0v-4.59a3.32 3.32 0 1 0-6.65 0z"/><path class="cls-14" d="M86.7 234.93v5.7h-1.73v-5.7"/><path class="cls-19" d="M86.7 234.93v3.03h-1.73v-3.03"/><path class="cls-13" d="M84.85 240.31h2c.67 1.31 2.41 1.31 2.65.36 0 0 .93 1.8-3.25 1.54a1.48 1.48 0 0 1-1.4-1.9z"/><path class="cls-14" d="M82.51 234.93v5.7h1.74v-5.7"/><path class="cls-19" d="M82.51 234.93v3.03h1.74v-3.03"/><path class="cls-13" d="M84.37 240.31h-2c-.67 1.31-2.41 1.31-2.65.36 0 0-.93 1.8 3.25 1.54a1.48 1.48 0 0 0 1.4-1.9z"/><path class="cls-14" d="M84.5 224.96h.6v8.94h-.6z"/><path class="cls-13" d="M81.48 231.21h6.65v1.66h-6.65z"/><path class="cls-15" d="M83.94 231.06h1.74v1.9h-1.74z"/><circle class="cls-14" cx="81.64" cy="211.11" r=".71"/><path class="cls-18" d="M88 220.93l1.11-1.5s.63 3.88-1.5 3.4zM81.64 220.93l-1.11-1.5s-.63 3.88 1.5 3.4z"/><circle class="cls-18" cx="93.27" cy="227.2" r="1.27"/><path class="cls-10" d="M90.82 224.19s.05-3.88 2.45-5.46c0 0 2.11 1.23 2.29 5.46h-2.07v17.88H93v-17.88z"/><circle class="cls-12" cx="394.15" cy="238.19" r="1.27"/><path class="cls-17" d="M388.49 226.56s2.73-5.7 5.22-6.88c0 0-1.31 5.34.12 7z"/><path class="cls-12" d="M394.54 229.64a3.32 3.32 0 0 1-3.32 3.32 3.32 3.32 0 0 1-3.32-3.32 3.32 3.32 0 0 1 3.32-3.32 3.32 3.32 0 0 1 3.32 3.32z"/><rect class="cls-14" x="387.52" y="226.03" width="7.49" height="1.7" rx=".44" ry=".44"/><circle class="cls-13" cx="389.79" cy="229.17" r=".59"/><circle class="cls-13" cx="392.52" cy="229.17" r=".59"/><path class="cls-17" d="M382.52 234.24h6.63v1.88h-6.63z"/><path class="cls-17" d="M394.38 240.88a3.32 3.32 0 1 1-6.65 0v-4.59a3.32 3.32 0 1 1 6.65 0z"/><path class="cls-14" d="M389.16 242.94v5.7h1.74v-5.7"/><path class="cls-17" d="M389.16 242.94v3.03h1.74v-3.03"/><path class="cls-13" d="M391 248.32h-2c-.67 1.31-2.41 1.31-2.65.36 0 0-.93 1.8 3.25 1.54a1.48 1.48 0 0 0 1.4-1.9z"/><path class="cls-14" d="M393.35 242.94v5.7h-1.74v-5.7"/><path class="cls-17" d="M393.35 242.94v3.03h-1.74v-3.03"/><path class="cls-13" d="M391.49 248.32h2c.67 1.31 2.41 1.31 2.65.36 0 0 .93 1.8-3.25 1.54a1.48 1.48 0 0 1-1.4-1.9z"/><path class="cls-14" d="M390.76 232.97h.6v8.94h-.6z"/><path class="cls-13" d="M387.74 239.22h6.65v1.66h-6.65z"/><path class="cls-15" d="M390.19 239.06h1.74v1.9h-1.74z"/><circle class="cls-14" cx="394.22" cy="219.12" r=".71"/><path class="cls-12" d="M387.89 228.93l-1.11-1.5s-.63 3.88 1.5 3.4zM394.22 228.93l1.11-1.5s.63 3.88-1.5 3.4z"/><circle class="cls-12" cx="382.6" cy="235.2" r="1.27"/><path class="cls-10" d="M385 232.19s-.05-3.88-2.45-5.46c0 0-2.11 1.23-2.29 5.46h2.07v17.88h.54v-17.88zM266.13 225s-3.17 2.24-5.86 1.22c0 0-.24-2.44 3.08-5.06l1.21 1.67 16.87-12.24.31.43-16.87 12.24z"/><path class="cls-19" d="M264.67 210s1.38-6.43 2.73-8.84c0 0 .42 4.25 2.54 4.79z"/><path class="cls-20" d="M266.77 212.33a3.32 3.32 0 0 0 4.63.79 3.32 3.32 0 0 0 .79-4.63 3.32 3.32 0 0 0-4.63-.79 3.32 3.32 0 0 0-.79 4.63z"/><path class="cls-13" d="M266.53 208.9a3.32 3.32 0 0 1 6.27 1.79 5.71 5.71 0 0 1-6.27-1.79z"/><path class="cls-20" d="M269.22 211.66v-3s2.76 2.8.74 3.65z"/><rect class="cls-14" x="264.1" y="207.33" width="7.49" height="1.7" rx=".44" ry=".44" transform="rotate(-35.27 267.88 208.202)"/><circle class="cls-13" cx="267.54" cy="211.21" r=".59" transform="rotate(-35.27 267.563 211.218)"/><path class="cls-19" d="M273.39 221.41a3.32 3.32 0 1 0 5.43-3.84l-2.65-3.75a3.32 3.32 0 1 0-5.43 3.84z"/><path class="cls-14" d="M276.14 223.42v4.11h1.74v-4.11"/><path class="cls-19" d="M277.48 221.19c-1.16 0-1.34.58-1.34 1.18v2.49h1.74V222z"/><path class="cls-13" d="M278 227.22h-2c-.67 1.31-2.41 1.31-2.65.36 0 0-.93 1.8 3.24 1.54a1.48 1.48 0 0 0 1.41-1.9z"/><path class="cls-13" transform="rotate(-35.27 275.67 218.835)" d="M272.3 217.99h6.65v1.66h-6.65z"/><path class="cls-15" transform="rotate(-35.27 272.967 220.695)" d="M272.69 219.73h.47v1.9h-.47z"/><path class="cls-20" d="M267.07 211.92l-2 2.54c-.28.2 0 .6.41.31l3-2.15z"/><path class="cls-19" d="M268.18 219.24l3.79-2.96.87 1.93-3.86 2.82-.8-1.79z"/><circle class="cls-20" cx="268.34" cy="220.31" r="1.27" transform="rotate(-35.27 268.374 220.326)"/><path class="cls-13" d="M274.22 210.24a2.27 2.27 0 0 0 2-.72 2.27 2.27 0 0 0-3.67-.46 2.27 2.27 0 0 0 1.67 1.18z"/></g></g></svg>