<svg id="Layer_1" data-name="Layer 1" xmlns="http://www.w3.org/2000/svg" viewBox="0 0 500 303.39"><defs><style>.cls-1{fill:#75cef4;opacity:.5}.cls-2,.cls-7{fill:#fff}.cls-2{opacity:.17}.cls-3{fill:url(#linear-gradient)}.cls-4{fill:url(#linear-gradient-2)}.cls-5{fill:#ffdf8a}.cls-6{fill:#f27b20}.cls-8{fill:#333}.cls-9{fill:none;stroke:#fff;stroke-miterlimit:10;stroke-width:.6px}.cls-10{fill:#ffd400}.cls-11{fill:gray}.cls-12{fill:#e64436}.cls-13{fill:#8f4293}</style><linearGradient id="linear-gradient" x1="102.09" y1="263.87" x2="102.09" y2="305.16" gradientUnits="userSpaceOnUse"><stop offset=".07" stop-color="#f6f3ec"/><stop offset=".62" stop-color="#f6f3ec"/><stop offset="1" stop-color="#f6f3ec" stop-opacity="0"/></linearGradient><linearGradient id="linear-gradient-2" x1="283.67" y1="260.79" x2="283.67" y2="305.61" gradientUnits="userSpaceOnUse"><stop offset=".07" stop-color="#fff"/><stop offset=".62" stop-color="#fff"/><stop offset="1" stop-color="#fff" stop-opacity="0"/></linearGradient></defs><title>PenguinDash_VillageBuilding_BC</title><path class="cls-1" d="M65.58 283.07h375.88l-10.13-115.19-29.48-78.45L324 22.69l-55.7-11.44-57.86 2.76-93.49 71.43L89 136.85l-18.29 66.87-5.13 79.35z"/><path class="cls-1" d="M210.44 14.01l-13.65 45.36-79.84 26.07L89 136.85l-18.29 66.87 30.16 79.35h130.39l67-123.24L268.3 11.25l-57.86 2.76z"/><path class="cls-1" d="M324 22.69l77.85 66.74-42.04 193.64H231.26l-38.87-144.41L324 22.69z"/><path class="cls-2" d="M401.85 89.43l29.48 78.45-133.07-8.05-105.87-21.17L324 22.69l77.85 66.74zm-209.46 49.23l4.4-79.29-79.84 26.07L89 136.85l-18.29 66.87 121.68-65.06z"/><path class="cls-3" d="M203.07 307.13c-50.58-27.28-53.6-39.9-81.1-48.78a60.3 60.3 0 0 0-19.89-3.14 60.3 60.3 0 0 0-19.89 3.14c-27.5 8.88-30.52 21.5-81.1 48.78z"/><path class="cls-4" d="M521.7 317.82H45.64C113.86 281 117.94 264 155 252a87 87 0 0 1 53.66 0 116.16 116.16 0 0 1 29.77 14.27c22.87-16.64 36.83-27.72 64.62-36.7a116.74 116.74 0 0 1 71.94 0c49.77 16.09 55.22 38.9 146.71 88.25z"/><circle class="cls-5" cx="150.17" cy="254.45" r="1.27"/><path class="cls-6" d="M155.82 242.82s-2.73-5.7-5.22-6.88c0 0 1.31 5.34-.12 7z"/><path class="cls-5" d="M149.77 245.91a3.32 3.32 0 0 0 3.32 3.32 3.32 3.32 0 0 0 3.32-3.32 3.32 3.32 0 0 0-3.32-3.32 3.32 3.32 0 0 0-3.32 3.32z"/><rect class="cls-7" x="149.3" y="242.29" width="7.49" height="1.7" rx=".44" ry=".44"/><circle class="cls-8" cx="154.52" cy="245.43" r=".59"/><circle class="cls-8" cx="151.79" cy="245.43" r=".59"/><path class="cls-6" d="M155.16 250.51h6.63v1.88h-6.63z"/><path class="cls-6" d="M149.93 257.14a3.32 3.32 0 1 0 6.65 0v-4.59a3.32 3.32 0 1 0-6.65 0z"/><path class="cls-7" d="M155.15 259.2v5.7h-1.74v-5.7"/><path class="cls-6" d="M155.15 259.2v3.03h-1.74v-3.03"/><path class="cls-8" d="M153.29 264.58h2c.67 1.31 2.41 1.31 2.65.36 0 0 .93 1.8-3.25 1.54a1.48 1.48 0 0 1-1.4-1.9z"/><path class="cls-7" d="M150.96 259.2v5.7h1.74v-5.7"/><path class="cls-6" d="M150.96 259.2v3.03h1.74v-3.03"/><path class="cls-8" d="M152.82 264.58h-2c-.67 1.31-2.41 1.31-2.65.36 0 0-.93 1.8 3.25 1.54a1.48 1.48 0 0 0 1.4-1.9z"/><path class="cls-9" d="M153.25 249.23v8.94"/><path class="cls-8" d="M149.93 255.48h6.65v1.66h-6.65z"/><path class="cls-10" d="M152.38 255.32h1.74v1.9h-1.74z"/><circle class="cls-7" cx="150.09" cy="235.38" r=".71"/><path class="cls-5" d="M156.42 245.2l1.11-1.5s.63 3.88-1.5 3.4zm-6.33 0l-1.11-1.5s-.63 3.88 1.5 3.4z"/><circle class="cls-5" cx="161.71" cy="251.46" r="1.27"/><path class="cls-11" d="M159.27 248.46s.05-3.88 2.45-5.46c0 0 2.11 1.23 2.29 5.46h-2.07v17.88h-.54v-17.88zm135.61-12.96s3.17 2.24 5.86 1.22c0 0 .24-2.44-3.08-5.06l-1.21 1.67-16.87-12.23-.31.43 16.87 12.24z"/><path class="cls-12" d="M296.34 220.52s-1.38-6.43-2.73-8.84c0 0-.42 4.25-2.54 4.79z"/><path class="cls-5" d="M294.24 222.81a3.32 3.32 0 0 1-4.63.79 3.32 3.32 0 0 1-.79-4.63 3.32 3.32 0 0 1 4.63-.79 3.32 3.32 0 0 1 .79 4.63z"/><path class="cls-8" d="M294.48 219.38a3.32 3.32 0 0 0-6.27 1.79 5.71 5.71 0 0 0 6.27-1.79z"/><path class="cls-5" d="M291.8 222.14v-3s-2.76 2.8-.74 3.65z"/><rect class="cls-7" x="292.32" y="214.92" width="1.7" height="7.49" rx=".44" ry=".44" transform="rotate(-54.73 293.13 218.654)"/><circle class="cls-8" cx="293.47" cy="221.69" r=".59" transform="rotate(-54.73 293.438 221.68)"/><path class="cls-12" d="M287.62 231.89a3.32 3.32 0 1 1-5.43-3.84l2.65-3.75a3.32 3.32 0 1 1 5.43 3.84z"/><path class="cls-7" d="M284.87 233.9v4.11h-1.74v-4.11"/><path class="cls-12" d="M283.53 231.67c1.16 0 1.34.58 1.34 1.18v2.49h-1.74v-2.81z"/><path class="cls-8" d="M283 237.69h2c.67 1.31 2.41 1.31 2.65.36 0 0 .93 1.8-3.24 1.54a1.48 1.48 0 0 1-1.41-1.9z"/><path class="cls-8" transform="rotate(-54.73 285.358 229.293)" d="M284.56 225.97h1.66v6.65h-1.66z"/><path class="cls-10" transform="rotate(-54.73 288.09 231.16)" d="M287.14 230.92h1.9v.47h-1.9z"/><path class="cls-5" d="M293.94 222.4l2 2.54c.28.2 0 .6-.41.31l-3-2.15z"/><path class="cls-12" d="M292.83 229.72l-3.78-2.96-.88 1.93 3.87 2.82.79-1.79z"/><circle class="cls-5" cx="292.68" cy="230.79" r="1.27" transform="rotate(-54.73 292.645 230.786)"/><path class="cls-8" d="M286.69 220.76a2.27 2.27 0 0 1-2-.7 2.27 2.27 0 0 1 3.67-.49 2.27 2.27 0 0 1-1.67 1.19z"/><circle class="cls-5" cx="367.79" cy="251.75" r="1.27"/><circle class="cls-5" cx="379.69" cy="251.82" r="1.27"/><path class="cls-13" d="M371.24 240.94s2.73-5.7 5.22-6.88c0 0-1.31 5.34.12 7z"/><path class="cls-5" d="M377.29 244a3.32 3.32 0 0 1-3.32 3.32 3.32 3.32 0 0 1-3.32-3.32 3.32 3.32 0 0 1 3.35-3.3 3.32 3.32 0 0 1 3.32 3.32z"/><rect class="cls-7" x="370.28" y="240.41" width="7.49" height="1.7" rx=".44" ry=".44"/><circle class="cls-8" cx="372.54" cy="243.55" r=".59"/><circle class="cls-8" cx="375.27" cy="243.55" r=".59"/><path class="cls-13" d="M370.49 251.79v-1.12a3.32 3.32 0 1 1 6.65 0v1.12"/><path class="cls-9" d="M373.81 247.57v5.25"/><circle class="cls-7" cx="376.98" cy="233.5" r=".71"/><path class="cls-5" d="M370.65 243.32l-1.11-1.5s-.63 3.88 1.5 3.4zm6.35 0l1.11-1.5s.63 3.88-1.5 3.4z"/></svg>