<svg id="Layer_1" xmlns="http://www.w3.org/2000/svg" viewBox="0 0 147.2 47.9"><style>.st0{fill:#7199ba}.st1{opacity:.1;fill:#010101}.st2{fill:#fef48e}.st3,.st4{fill:#b59a47}.st4{display:none}.st5{fill:#efd358}.st6{fill:#a7c1c5}.st7{fill:#b7e2f9}.st8{fill:#62aac9}.st9{fill:#e2f4fd}.st10{fill:#dad386}.st11{fill:#ccc}.st12{fill:#e8e8e8}.st13{fill:#fff}.st14{fill:#fbcd49}.st15{fill:#fff;stroke:#b59a47;stroke-miterlimit:10}.st16{fill:#f6906f}.st17{fill:#fee322}</style><circle class="st0" cx="22.5" cy="39.3" r="5.7"/><circle class="st0" cx="97.2" cy="39.3" r="5.7"/><ellipse class="st1" cx="73.6" cy="45" rx="73.6" ry="2.9"/><path class="st2" d="M123.6 7.5v30.4H3.5V25.1c0-3.5.2-5 4.9-5H11V7.5C11 3.3 14.4 0 18.5 0h99.8c4.3 0 5.3 3.4 5.3 7.5z"/><path class="st3" d="M125.1.3H27.2c-4.2 0-7.5 3.3-7.5 7.5v12.5H17c-4.7 0-4.9 1.6-4.9 5v14.5h120.5v-32c0-4.2-3.4-7.5-7.5-7.5z"/><path class="st3" d="M41.2 38.2h16V42h-16z"/><path class="st4" d="M125.1.4H27.8c-4.1 0-7.5 3.3-7.5 7.5v12.4h-2.6c-4.7 0-4.9 1.6-4.9 5v10.9h119.8V7.9c0-4.1-3.3-7.5-7.5-7.5z"/><path class="st5" d="M130.6 7.5c0-4.2-1.4-7.5-5.5-7.5h-98c-4.2 0-7.5 3.4-7.5 7.5v12.6H17c-4.7 0-4.9 1.6-4.9 5v11h118.2v-5.8h.4V7.5z"/><path class="st6" d="M70.4 17.2c0 .6-.5 1-1 1h-8.9c-.6 0-1-.5-1-1V8.4c0-.6.5-1 1-1h8.9c.6 0 1 .5 1 1v8.8zm-13.4 0c0 .6-.5 1-1 1h-9c-.6 0-1-.5-1-1V8.4c0-.6.5-1 1-1h8.9c.6 0 1 .5 1 1v8.8zm26.8 0c0 .6-.5 1-1 1h-8.9c-.6 0-1-.5-1-1V8.4c0-.6.5-1 1-1h8.9c.6 0 1 .5 1 1v8.8zm13.6 0c0 .6-.5 1-1 1h-8.9c-.6 0-1-.5-1-1V8.4c0-.6.5-1 1-1h8.9c.6 0 1 .5 1 1v8.8zm13.4 0c0 .6-.5 1-1 1h-8.9c-.6 0-1-.5-1-1V8.4c0-.6.5-1 1-1h8.9c.6 0 1 .5 1 1v8.8zm13.4 0c0 .6-.5 1-1 1h-8.9c-.6 0-1-.5-1-1V8.4c0-.6.5-1 1-1h8.9c.6 0 1 .5 1 1v8.8zm-96 0c0 .6.5 1 1 1h8.9c.6 0 1-.5 1-1V8.4c0-.6-.5-1-1-1h-8.9c-.6 0-1 .5-1 1v8.8zm99.4-9.9c-.6 0-1 .5-1 1v8.9c0 .6.5 1 1 1h5v-11h-5zM25.4 17.2V8.4c0-.6-.5-1-1-1h-4.8v11h4.8c.6-.1 1-.6 1-1.2z"/><path class="st7" d="M70.4 18.8c0 .6-.5 1-1 1h-8.9c-.6 0-1-.5-1-1V10c0-.6.5-1 1-1h8.9c.6 0 1 .5 1 1v8.8zm-13.4 0c0 .6-.5 1-1 1h-9c-.6 0-1-.5-1-1V10c0-.6.5-1 1-1h8.9c.6 0 1 .5 1 1v8.8zm26.8 0c0 .6-.5 1-1 1h-8.9c-.6 0-1-.5-1-1V10c0-.6.5-1 1-1h8.9c.6 0 1 .5 1 1v8.8zm13.6 0c0 .6-.5 1-1 1h-8.9c-.6 0-1-.5-1-1V10c0-.6.5-1 1-1h8.9c.6 0 1 .5 1 1v8.8zm13.4 0c0 .6-.5 1-1 1h-8.9c-.6 0-1-.5-1-1V10c0-.6.5-1 1-1h8.9c.6 0 1 .5 1 1v8.8zm13.4 0c0 .6-.5 1-1 1h-8.9c-.6 0-1-.5-1-1V10c0-.6.5-1 1-1h8.9c.6 0 1 .5 1 1v8.8zm-96 0c0 .6.5 1 1 1h8.9c.6 0 1-.5 1-1V10c0-.6-.5-1-1-1h-8.9c-.6 0-1 .5-1 1v8.8z"/><path class="st8" d="M127.6 8.9c-.6 0-1 .5-1 1v8.9c0 .6.5 1 1 1h5v-11h-5z"/><path class="st7" d="M127.6 8.9c-.6 0-1 .5-1 1v8.9c0 .6.5 1 1 1h3.3v-11h-3.3zM25.4 18.8V10c0-.6-.5-1-1-1h-4.8v11h4.8c.6-.1 1-.6 1-1.2z"/><path class="st9" d="M11.1 8.9h8.5v11h-8.5z"/><circle class="st0" cx="32.1" cy="39.3" r="5.7"/><path class="st3" d="M24.8 39.1c0-3.9 3.2-7.1 7.1-7.1s7.1 3.2 7.1 7.1m57.4 0c0-3.9 3.2-7.1 7.1-7.1 3.9 0 7.1 3.2 7.1 7.1"/><path class="st3" d="M108.4 39.1c0-3.9 3.2-7.1 7.1-7.1 3.9 0 7.1 3.2 7.1 7.1"/><path class="st0" d="M26.4 39.3c0-3.2 2.6-5.7 5.7-5.7 3.2 0 5.7 2.6 5.7 5.7"/><circle class="st10" cx="32.1" cy="39.3" r="3.3"/><circle class="st0" cx="103.7" cy="39.3" r="5.7"/><circle class="st10" cx="103.7" cy="39.3" r="3.3"/><circle class="st0" cx="115.6" cy="39.3" r="5.7"/><circle class="st10" cx="115.6" cy="39.3" r="3.3"/><path class="st3" d="M126 36.4h7.2v4.1H126z"/><path class="st11" d="M126 36.4h4.8V39H126z"/><path class="st12" d="M3.9 27.5H12v8.9H3.9z"/><path class="st3" d="M11.4 36.4H23v4.1H11.4z"/><path class="st12" d="M2.1 36.4H23V39H2.1z"/><path class="st0" d="M10 36.4h13V39H10z"/><path class="st13" d="M11.9 23.2h1.7v4.2h-1.7zm-8.9 0h1.7v4.2H3z"/><path class="st14" d="M130.9 23.2h1.7v4.2h-1.7z"/><path class="st8" d="M33 12.6c-.2 0-.4.2-.4.4v.6c0 .2.2.4.4.4h.5c-.3.4-.5.9-.5 1.5l-2.1.6c-.3 0-.3.4.1.4h2.2c.4 1 1.3 1.7 2.5 1.7.8 0 1.5-.4 2-1 .1-.1.2-.2.2-.3.1-.1.1-.2.2-.4v-.1c0-.1.1-.3.1-.4v-.5c0-.6-.2-1.1-.5-1.5h.4c.2 0 .4-.2.4-.4V13c0-.2-.2-.4-.4-.4h-.4c-.6-1.1.1-2.9.5-3.7h-.5c-1.6 1-3.8 2.9-4.7 3.7zm2.8 5.6c-1.1 0-2.1.7-2.5 1.7h4.9c-.3-1-1.2-1.7-2.4-1.7z"/><path class="st15" d="M23 24.7h105.4M26.4 26h102"/><circle class="st16" cx="20.1" cy="4.2" r="2"/><circle class="st17" cx="24.8" cy="4.2" r="1.3"/><circle class="st16" cx="11.6" cy="4.2" r="2"/><circle class="st17" cx="14.1" cy="4.2" r="1.3"/><path class="st0" d="M32.7 23.7h2.4v3.2h-2.4z"/><path class="st16" d="M36.6 29.6l-2.5-4.3 2.5-4.2h4.9l2.5 4.2-2.5 4.3z"/></svg>