<svg id="Layer_1" xmlns="http://www.w3.org/2000/svg" viewBox="0 0 147.2 72.6"><style>.st0{fill:#7199ba}.st1{opacity:.1;fill:#010101}.st2{fill:#c2e0f5}.st3{fill:#97bbbf}.st4{fill:#57aba9}.st5{fill:#6fcac8}.st6{fill:#CCC}.st7{fill:#FFF}.st8{fill:#bad7dc}.st9{fill:#a7c1c5}.st10{fill:#b7e2f9}.st11{fill:#62aac9}.st12{fill:#e2f4fd}.st13{fill:none;stroke:#6fcac8;stroke-width:2.069;stroke-linecap:round;stroke-miterlimit:10;stroke-dasharray:0,4.138}.st14{fill:#e8e8e8}.st15{fill:#fbcd49}</style><circle class="st0" cx="22.5" cy="64" r="5.7"/><circle class="st0" cx="97.2" cy="64" r="5.7"/><ellipse class="st1" cx="73.6" cy="69.7" rx="73.6" ry="2.9"/><path class="st2" d="M123.6 32.3v30.4H3.5V49.8c0-3.5.2-5 4.9-5H11V32.3c0-4.2 3.4-7.5 7.5-7.5h99.8c4.3-.1 5.3 3.3 5.3 7.5z"/><path class="st3" d="M125.1 24.7h-98c-4.2 0-7.5 3.4-7.5 7.5v12.6H17c-4.7 0-4.9 1.6-4.9 5v14.7h120.6V32.2c-.1-4.1-3.5-7.5-7.6-7.5z"/><path class="st4" d="M28.1 19.9S37.3 4 49 4c0 0-5.9 8.8 2.1 15.3l-23 .6z"/><path class="st5" d="M28.1 19.9S37.3 4 49 4c0 0-12.2 10.2-4.2 16.7l-16.7-.8z"/><circle class="st6" cx="52.4" cy="3.1" r="3.1"/><circle class="st7" cx="52.2" cy="2.3" r="2.1"/><path class="st0" d="M41.2 62.9h16v3.8h-16z"/><path class="st3" d="M125.1 24.7h-98c-4.2 0-7.5 3.4-7.5 7.5v12.6H17c-4.7 0-4.9 1.6-4.9 5v11h120.6V32.2c-.1-4.1-3.5-7.5-7.6-7.5z"/><path class="st8" d="M125.1 24.7h-98c-4.2 0-7.5 3.4-7.5 7.5v12.6H17c-4.7 0-4.9 1.6-4.9 5v11h118.2V32.2c-.1-4.1-1.1-7.5-5.2-7.5z"/><path class="st3" d="M125.1 24.7h-98c-4.2 0-7.5 3.4-7.5 7.5v12.6H17c-4.7 0-4.9 1.6-4.9 5V55h120.6V32.2c-.1-4.1-3.5-7.5-7.6-7.5z"/><path class="st8" d="M125.1 24.7h-98c-4.2 0-7.5 3.4-7.5 7.5v12.6H17c-4.7 0-4.9 1.6-4.9 5V55h118.6V32.2c-.1-4.1-1.5-7.5-5.6-7.5z"/><path class="st9" d="M70.4 41.9c0 .6-.5 1-1 1h-8.9c-.6 0-1-.5-1-1V33c0-.6.5-1 1-1h8.9c.6 0 1 .5 1 1v8.9zM57 41.9c0 .6-.5 1-1 1h-9c-.6 0-1-.5-1-1V33c0-.6.5-1 1-1h8.9c.6 0 1 .5 1 1v8.9zM83.8 41.9c0 .6-.5 1-1 1h-8.9c-.6 0-1-.5-1-1V33c0-.6.5-1 1-1h8.9c.6 0 1 .5 1 1v8.9zM97.4 41.9c0 .6-.5 1-1 1h-8.9c-.6 0-1-.5-1-1V33c0-.6.5-1 1-1h8.9c.6 0 1 .5 1 1v8.9zM110.8 41.9c0 .6-.5 1-1 1h-8.9c-.6 0-1-.5-1-1V33c0-.6.5-1 1-1h8.9c.6 0 1 .5 1 1v8.9zM124.2 41.9c0 .6-.5 1-1 1h-8.9c-.6 0-1-.5-1-1V33c0-.6.5-1 1-1h8.9c.6 0 1 .5 1 1v8.9zM28.2 41.9c0 .6.5 1 1 1h8.9c.6 0 1-.5 1-1V33c0-.6-.5-1-1-1h-8.9c-.6 0-1 .5-1 1v8.9zM127.6 32c-.6 0-1 .5-1 1v8.9c0 .6.5 1 1 1h5V32h-5zM25.4 41.9V33c0-.6-.5-1-1-1h-4.8v11h4.8c.6 0 1-.5 1-1.1z"/><path class="st10" d="M70.4 43.6c0 .6-.5 1-1 1h-8.9c-.6 0-1-.5-1-1v-8.9c0-.6.5-1 1-1h8.9c.6 0 1 .5 1 1v8.9zM57 43.6c0 .6-.5 1-1 1h-9c-.6 0-1-.5-1-1v-8.9c0-.6.5-1 1-1h8.9c.6 0 1 .5 1 1v8.9zM83.8 43.6c0 .6-.5 1-1 1h-8.9c-.6 0-1-.5-1-1v-8.9c0-.6.5-1 1-1h8.9c.6 0 1 .5 1 1v8.9zM97.4 43.6c0 .6-.5 1-1 1h-8.9c-.6 0-1-.5-1-1v-8.9c0-.6.5-1 1-1h8.9c.6 0 1 .5 1 1v8.9zM110.8 43.6c0 .6-.5 1-1 1h-8.9c-.6 0-1-.5-1-1v-8.9c0-.6.5-1 1-1h8.9c.6 0 1 .5 1 1v8.9zM124.2 43.6c0 .6-.5 1-1 1h-8.9c-.6 0-1-.5-1-1v-8.9c0-.6.5-1 1-1h8.9c.6 0 1 .5 1 1v8.9zM28.2 43.6c0 .6.5 1 1 1h8.9c.6 0 1-.5 1-1v-8.9c0-.6-.5-1-1-1h-8.9c-.6 0-1 .5-1 1v8.9z"/><path class="st11" d="M127.6 33.6c-.6 0-1 .5-1 1v8.9c0 .6.5 1 1 1h5v-11h-5z"/><path class="st10" d="M127.6 33.6c-.6 0-1 .5-1 1v8.9c0 .6.5 1 1 1h3.3v-11h-3.3zM25.4 43.6v-8.9c0-.6-.5-1-1-1h-4.8v11h4.8c.6-.1 1-.6 1-1.1z"/><path class="st12" d="M11.1 33.6h8.5v11h-8.5z"/><circle class="st0" cx="32.1" cy="64" r="5.7"/><path class="st3" d="M24.8 63.8c0-3.9 3.2-7.1 7.1-7.1s7.1 3.2 7.1 7.1M96.4 63.8c0-3.9 3.2-7.1 7.1-7.1 3.9 0 7.1 3.2 7.1 7.1"/><path class="st3" d="M108.4 63.8c0-3.9 3.2-7.1 7.1-7.1 3.9 0 7.1 3.2 7.1 7.1"/><path class="st0" d="M26.4 64c0-3.2 2.6-5.7 5.7-5.7 3.2 0 5.7 2.6 5.7 5.7"/><circle class="st8" cx="32.1" cy="64" r="3.3"/><circle class="st0" cx="103.7" cy="64" r="5.7"/><circle class="st8" cx="103.7" cy="64" r="3.3"/><circle class="st0" cx="115.6" cy="64" r="5.7"/><circle class="st8" cx="115.6" cy="64" r="3.3"/><path class="st0" d="M126 61.1h7.2v4.1H126z"/><path class="st6" d="M126 61.1h4.8v2.6H126zM53.9 23.6c0 .9-.8 1.7-1.7 1.7H26.9c-.9 0-1.7-.8-1.7-1.7v-3.1c0-.9.8-1.7 1.7-1.7h25.2c.9 0 1.7.8 1.7 1.7v3.1z"/><path class="st7" d="M53.9 21.5c0 .9-.8 1.7-1.7 1.7H26.9c-.9 0-1.7-.8-1.7-1.7v-1c0-.9.8-1.7 1.7-1.7h25.2c.9 0 1.7.8 1.7 1.7v1z"/><path class="st13" d="M24.1 28.9h106.2"/><path class="st14" d="M3.9 52.2H12v8.9H3.9z"/><path class="st0" d="M11.4 61.1H23v4.1H11.4z"/><path class="st14" d="M2.1 61.1H23v2.6H2.1z"/><path class="st6" d="M10 61.1h13v2.6H10z"/><path class="st7" d="M11.9 47.9h1.7v4.2h-1.7zM3 47.9h1.7v4.2H3z"/><path class="st15" d="M130.9 47.9h1.7v4.2h-1.7z"/><g><path class="st11" d="M33 37.4c-.2 0-.4.2-.4.4v.6c0 .2.2.4.4.4h.5c-.3.4-.5.9-.5 1.5l-2.1.6c-.3 0-.3.4.1.4h2.2c.4 1 1.3 1.7 2.5 1.7.8 0 1.5-.4 2-1 .1-.1.2-.2.2-.3.1-.1.1-.2.2-.4v-.1c0-.1.1-.3.1-.4v-.1-.4c0-.6-.2-1.1-.5-1.5h.4c.2 0 .4-.2.4-.4v-.6c0-.2-.2-.4-.4-.4h-.4c-.6-1.1.1-2.9.5-3.7h-.5c-1.6 1-3.8 2.9-4.7 3.7z"/><path class="st11" d="M35.8 42.9c-1.1 0-2.1.7-2.5 1.7H38.2c-.3-1-1.2-1.7-2.4-1.7z"/></g></svg>