<svg id="Layer_1" xmlns="http://www.w3.org/2000/svg" xmlns:xlink="http://www.w3.org/1999/xlink" viewBox="0 0 230.3 82.8"><style>.st0{fill:#fff}</style><symbol id="New_Symbol_14" viewBox="-67.4 -24.2 134.8 48.5"><path class="st0" d="M67.4-18c0-1.8-.5-4.8-1.3-6.3H-66.1c-.8 1.4-1.3 4.5-1.3 6.3 0 5.3 4.3 8.5 9.7 8.5h26.4v.5c0 7 5.7 12.6 12.6 12.6 1.6 0 3.1-.3 4.5-.8 2.3 12.2 13 21.4 25.9 21.4 12.6 0 23.1-8.8 25.7-20.6C43.9 3.2 49-2.3 49-9v-.5h8.7c5.4 0 9.7-3.1 9.7-8.5z"/></symbol><use xlink:href="#New_Symbol_14" width="134.8" height="48.5" x="-67.4" y="-24.2" transform="matrix(1.7087 0 0 -1.7087 115.173 41.406)" overflow="visible"/></svg>