<svg xmlns="http://www.w3.org/2000/svg" width="209.725" height="103.283" viewBox="0 0 209.725 103.283"><path d="M209.725 51.64c-6.1-1.824-5.14-17.447-5.124-13.898.01-7.114 3.247-14.36 1.65-21.414-1.254-5.538-6.346-9.78-11.667-12.05-5.97-2.55-27.76-.975-34.02-.384-5.184.507-25.42.883-31.358.882 3.458-.034-22.505 1.05-24.342-4.776-1.837 5.825-29.48 4.742-26.022 4.775-5.936 0-27.853-.375-33.036-.882-6.262-.59-24.692-2.164-30.662.383C9.822 6.546 4.73 10.79 3.475 16.328c-1.597 7.054 1.64 14.3 1.65 21.414.016-3.548.974 12.075-5.125 13.9 6.1 1.824 5.14 17.447 5.124 13.898-.008 7.114-3.246 14.36-1.65 21.414 1.255 5.538 6.347 9.78 11.668 12.05 5.97 2.55 24.4.975 30.662.384 5.183-.507 27.1-.883 33.037-.882-3.457.033 24.186-1.05 26.023 4.775 1.837-5.824 27.8-4.74 24.342-4.774 5.937 0 26.174.375 31.357.882 6.262.59 28.05 2.164 34.02-.383 5.32-2.27 10.413-6.513 11.668-12.05 1.597-7.055-1.64-14.3-1.65-21.415-.016 3.55-.973-12.074 5.125-13.9z" fill="#20c691"/></svg>