<svg id="layout" xmlns="http://www.w3.org/2000/svg" xmlns:xlink="http://www.w3.org/1999/xlink" viewBox="0 0 571.28 237.09"><defs><style>.cls-25,.cls-51,.cls-56,.cls-6,.cls-7{fill:none}.cls-2{fill:#e7e7e7}.cls-3{fill:#fff}.cls-4{fill:#404040}.cls-6{stroke:#92d7f6;stroke-linejoin:round;stroke-width:2.95px}.cls-25,.cls-47,.cls-51,.cls-56,.cls-6,.cls-7{stroke-linecap:round}.cls-7{stroke:#f6ef1f}.cls-25,.cls-47,.cls-51,.cls-56,.cls-7{stroke-miterlimit:10}.cls-7{stroke-width:9px}.cls-10{fill:#7dc5d2}.cls-11{fill:#0790a9}.cls-12,.cls-13{opacity:.1}.cls-18{fill:#0080a7}.cls-25{stroke:#39f;stroke-width:1.52px}.cls-26{fill:#e0bb95}.cls-27{fill:#32a558}.cls-28{fill:#39f}.cls-29{fill:#332e2e}.cls-30,.cls-47{fill:#f9ce1d}.cls-31{fill:#e67969}.cls-32{fill:#fadcbc}.cls-33{fill:#f27455}.cls-34{fill:#774d2e}.cls-35{fill:#f6e1a4}.cls-36{fill:#f3d683}.cls-39{fill:#076e2f}.cls-43{fill:#ffde89}.cls-44{fill:#62a707}.cls-45{fill:#008d1f}.cls-46{fill:#f73}.cls-47{stroke:#f73;stroke-width:1.68px}.cls-48{fill:#f6be1a}.cls-49{fill:#6f00ff}.cls-51{stroke:#6f00ff;stroke-width:1.6px}.cls-52{fill:#9b643d}.cls-53{fill:#ffe14d}.cls-56{stroke:#ffe14d;stroke-width:1.4px}</style><linearGradient id="linear-gradient" x1="14802.62" y1="193.23" x2="14802.62" y2="205.19" gradientTransform="matrix(-1 0 0 1 15273.97 0)" gradientUnits="userSpaceOnUse"><stop offset=".22" stop-color="#fff"/><stop offset=".33" stop-color="#fff" stop-opacity=".67"/><stop offset=".79" stop-color="#fff" stop-opacity="0"/></linearGradient><clipPath id="clip-path"><path fill="none" d="M0 220.97h535.5V0H0v220.97z"/></clipPath><linearGradient id="linear-gradient-2" x1="14967.69" y1="210.79" x2="14967.69" y2="229.82" gradientTransform="matrix(-1 0 0 1 15273.97 0)" gradientUnits="userSpaceOnUse"><stop offset=".07" stop-color="#fff"/><stop offset=".62" stop-color="#fff"/><stop offset="1" stop-color="#fff" stop-opacity="0"/></linearGradient><symbol id="New_Symbol_193" data-name="New Symbol 193" viewBox="0 0 106.49 114.21"><path class="cls-2" d="M97.33 64.16A45.77 45.77 0 1 1 6.2 72.72a45.18 45.18 0 0 1 41-49.42C72.4 20.93 95 39 97.33 64.16z"/><path class="cls-3" d="M77 64.16c2.35 25.17 4.21 47.48-21 49.84A45.77 45.77 0 0 1 6.2 72.72a45.18 45.18 0 0 1 41-49.42C72.4 20.93 74.62 39 77 64.16z"/><path class="cls-4" d="M22.5 68.26a4.85 4.85 0 1 1-5.11-4.58 4.84 4.84 0 0 1 5.11 4.58zM49.83 84.51a10.14 10.14 0 0 1-19.68 4.88zM52.61 66.42a4.85 4.85 0 1 1-5.11-4.58 4.87 4.87 0 0 1 5.11 4.58z"/><path d="M22.14 75.8l-14.4 7.75a1.16 1.16 0 0 0 .72 2.16l15.21-2.32c8.38-1.81 3.44-9.33-1.53-7.59z" fill="#f4861f"/><path class="cls-6" d="M10.27 65.21c1.78-4.41 4.93-7.27 12.73-4.86M40.13 61.56l16.3.1"/><path class="cls-7" d="M60.55 46.43"/><path d="M62 50.13l8 21.25c2.3 6 6.61 15.33 13.07 15.33l11.71-2c10.13 0 7.3-12.85 4.84-22.66l-3.4-13.7" stroke-dasharray="0 3.96" stroke-width="9" stroke-miterlimit="10" stroke="#f6ef1f" stroke-linecap="round" fill="none"/><path class="cls-7" d="M95.74 46.43"/><path stroke-dasharray="0 3.91" stroke-width="9" stroke-miterlimit="10" stroke="#f6ef1f" stroke-linecap="round" fill="none" d="M91.83 46.43H62.51"/><path class="cls-10" d="M60.55 46.43L70 71.38c2.3 6 6.61 15.33 13.07 15.33l11.71-2c10.13 0 7.3-12.85 4.84-22.66l-3.88-15.62z"/><path class="cls-11" d="M95.85 30.22v16.9H7.58v-9.27A37.84 37.84 0 0 1 45.42 0h20.2a30.23 30.23 0 0 1 30.23 30.22z"/><path class="cls-12" d="M95.85 36.3v10.82H7.58c0-3 1.21-5.7 4.85-7.65s9.69-3.17 19.39-3.17z"/><g class="cls-13"><path d="M101.76 63.06l-5.3-15.94H85.52c-.08-.35 9.92 38.51 9.93 38.6 10.8 0 8.94-12.85 6.31-22.66z"/></g><g class="cls-13"><path d="M65.62 0h-6.44C70.05 3.4 77.9 12.29 81.73 22.94c1.52 4.23 1.92 8.71 2.47 13.16.19 1.58.38 3.16.53 4.75 0 .39.08.78.13 1.18q-1.32-9.69.3 2.3l.36 2.79h10.32v-16.9A30.22 30.22 0 0 0 65.62 0z"/></g><path class="cls-10" d="M8.67 38.26h44.2a7.22 7.22 0 0 1 7.22 7.22v1.64H1.45v-1.64a7.22 7.22 0 0 1 7.22-7.22z"/><path fill="#4dafc1" d="M97.43 92.07l-8.54 1.15-1.33-9.89 8.55-1.14 1.32 9.88z"/><path class="cls-12" d="M56.47 48.55H8.81a4.31 4.31 0 0 1-4.11-5.62l6-18.93a4.31 4.31 0 0 1 4.11-3h39.25a4.31 4.31 0 0 1 4.27 3.77l2.41 18.93a4.31 4.31 0 0 1-4.27 4.85z"/><path stroke-width="5.85" stroke-dasharray="0 3.9" fill="#f6ef1f" stroke-miterlimit="10" stroke="#f6ef1f" stroke-linecap="round" d="M58.62 48.55H2.92V21h46.22l9.48 27.55z"/></symbol><symbol id="New_Symbol_194" data-name="New Symbol 194" viewBox="0 0 571.28 237.09"><path d="M545 194.55c-32.88-6.49-32.07-15-45.83-20.73a21.34 21.34 0 0 0-8.92-1.75 23.39 23.39 0 0 0-9.2 1.86c-6.22 2.49-11.3 7.2-17.54 9.56a35.85 35.85 0 0 1-21.68 1.39c-4.79-1.26-9.44-3.6-14.5-3-9.48 1-20.74 17.65-29.68 15.15 1.68 4.17 7.35 1.78 10.81 4.33 11.6 8.56 26.93 9.68 41.57 9.69 19.93 0 39.32-3.7 59.08-6 8.3-1 16.91-3.6 25-6 1.81-.61 10.67-4.54 10.89-4.5z" fill="url(#linear-gradient)"/><path class="cls-12" d="M124.31 206.88c0 13.77 100.06 30.21 223.48 30.21s223.49-2.67 223.49-16.44-100.06-38.71-223.49-38.71-223.48 11.16-223.48 24.94z"/><g clip-path="url(#clip-path)"><path class="cls-18" d="M512.8 181.86c-.46 1.72-.95 3.44-1.44 5.15a19.07 19.07 0 0 1-36.62-10.65 2 2 0 0 1 .07-.23l.3-1c.26-.85.54-1.68.83-2.52l.7-2a18.94 18.94 0 0 1 36.16 11.22z"/><path class="cls-18" d="M503.9 204.54c-1 1.63-2 3.25-3 4.85a19.37 19.37 0 0 1-32.61-20.9l1-1.59c.4-.63.83-1.25 1.28-1.87l1.41-1.91a19.25 19.25 0 0 1 31.95 21.42z"/><path class="cls-18" d="M477.46 226.27a32.54 32.54 0 0 1-10.06.59 19.72 19.72 0 0 1 4-39.23 7.05 7.05 0 0 0-2.1.19 19.65 19.65 0 1 1 8.12 38.45z"/><path class="cls-18" d="M442.69 214.6c-1.31-1.29-2.61-2.61-3.89-3.93a20 20 0 1 1 28.78-27.87l.1.1 1 1c.56.59 1.11 1.2 1.65 1.82l1.44 1.66a19.92 19.92 0 0 1-29.06 27.2z"/><path class="cls-18" d="M427.66 196.06l-2.43-3.86a20.37 20.37 0 1 1 34.45-21.75c.12.18.23.35.33.53l.27.47 1.73 3 .34.59a20.29 20.29 0 0 1-34.69 21.06z"/><path class="cls-18" d="M417.16 177.76l-1.94-3.84a20.7 20.7 0 1 1 36.95-18.66c.09.19.19.37.27.56l.14.3 1.55 3.36.16.33a20.62 20.62 0 0 1-37.13 17.95z"/><path class="cls-18" d="M408.48 159.5l-1.48-3.28a21 21 0 0 1 38.5-16.84l.24.57.08.21 1.2 3 .08.19a20.95 20.95 0 0 1-38.66 16.14z"/><path d="M510.43 179.27a4.37 4.37 0 0 0 5.37-3 4.37 4.37 0 0 0-3-5.37l-33.22-9.2a4.35 4.35 0 0 0-5.37 3 4.36 4.36 0 0 0 3 5.37z" fill="#c6b21e"/><path d="M238.37 136c-38.92 27.84-159.3 92.63-100.25-50.3" stroke-width="35" stroke="#b4b4b4" stroke-miterlimit="10" fill="none"/><path d="M91.18 70.09c-3.86 14.3 7.56 29.82 25.5 34.67s35.63-2.82 39.49-17.11" fill="#b4b4b4"/><path d="M224.31 154.56c-43.54 35.6-144.63 38.14-172 7.2" stroke="#e7e7e7" stroke-width="35" stroke-miterlimit="10" fill="none"/><path class="cls-2" d="M.23 169.93c4.25 14.19 22.13 21.37 39.94 16S69 164.81 64.72 150.62"/><path class="cls-3" d="M150.42 173.67c-72.81 4.16-85-23.5-85-23.5 10.5 11.87 41.68 16.32 66.21 15.46 33.22-1.19 64.49-10.62 81.61-24.62l5.57 4.32c-7.39 10.55-11.04 25.07-68.39 28.34z"/><path class="cls-2" d="M300.18 101c35.65.28 64.17 21.79 63.33 47.92-.84 25.71-30.47 45.93-65.65 45.66l-61.8-.33c-35.36-.25-33.71-21.43-33.34-47.25.38-25.85-.64-46.57 34.72-46.29z"/><path class="cls-11" d="M230.57 82c-.48.27-.94.56-1.39.86h-.06l-.09.06H228.82c-.44.31-.87.63-1.28 1a21.83 21.83 0 0 1 1.78-1.3c.45-.31.92-.6 1.4-.87zm-10.73 108.57l.15.31V191.09c.15.3.31.59.48.88V192.12l.06.11v.1l.36.58c-.38-.59-.73-1.2-1.05-1.81s-.56-1-.82-1.56zm13.42 12.8c.55.22 1.11.42 1.69.61h.71l1.2.34q-.88-.24-1.74-.54c-.65-.19-1.3-.41-2-.67zm3.69 1.21zm12.1-126.66h-4a21.22 21.22 0 0 0-6.51 1.52A20.4 20.4 0 0 0 220.2 97.5l-1.2-.42.19-.57c-.06.18-.13.37-.2.56-.35 1.05-.68 2.14-1 3.26a20.93 20.93 0 0 0-.53 7.92 20.72 20.72 0 0 0-1.72 6.89v.21c-.09 1.25-.17 2.53-.23 3.82a20.85 20.85 0 0 0 1 7.6 20.88 20.88 0 0 0-1.4 7.35V137.44a.57.57 0 0 0 0 .13v.54a20.91 20.91 0 0 0 1.28 7.45 20.85 20.85 0 0 0-1.43 7.51v4a20.83 20.83 0 0 0 1.33 7.26 20.88 20.88 0 0 0-.74 7.72c0 .46.09.92.14 1.38v.57c.08.72.17 1.42.26 2.12a20.88 20.88 0 0 0 2.42 7.31 18.9 18.9 0 0 0 9.42 16 17.89 17.89 0 0 0 13.21 5.44 20.59 20.59 0 0 0 3.42-.28 21 21 0 0 0 7.42 1.41H256a20.89 20.89 0 0 0 7.36-1.33 20.88 20.88 0 0 0 7.49 1.44H275a20.89 20.89 0 0 0 7.36-1.32 20.86 20.86 0 0 0 7.48 1.43H294a21.11 21.11 0 0 0 7.36-1.32 21 21 0 0 0 7.46 1.43H312.85a20.78 20.78 0 0 0 7.33-1.55 20.35 20.35 0 0 0 2.07.11 21.05 21.05 0 0 0 5.41-.71c1.19-.32 2.36-.67 3.53-1.05h.08l.25-.09a20.68 20.68 0 0 0 6.55-3.58 21 21 0 0 0 7-2.72c1.14-.7 2.25-1.43 3.34-2.19a21 21 0 0 0 5.28-5.32 21 21 0 0 0 5.92-4.61l.17-.19.05-.06c.79-.9 1.55-1.81 2.29-2.74a21 21 0 0 0 3.49-6.57 21 21 0 0 0 4.31-6.13l.66-1.47a.61.61 0 0 1 0-.12V166.78c.19-.46.38-.93.56-1.4a21.18 21.18 0 0 0 1.86-7.58 20.81 20.81 0 0 0 2.27-7.11c.14-1.08.26-2.18.34-3.28v-.1c0-.21 0-.42.05-.63a20.9 20.9 0 0 0-.84-7.44 21 21 0 0 0 .1-7.47v-.51c-.08-.48-.17-.94-.27-1.41V128.47c0-.16-.07-.33-.11-.49a20.94 20.94 0 0 0-3-6.88 21 21 0 0 0-2.12-7.19c-.34-.67-.69-1.34-1.05-2l-.09-.17-.06-.1v-.05l-.54-.94a20.78 20.78 0 0 0-4.84-5.66 21 21 0 0 0-4.13-6.26l-.12-.14c-.85-.88-1.72-1.73-2.61-2.56a20.92 20.92 0 0 0-6.26-4 20.88 20.88 0 0 0-5.74-4.77c-1.19-.67-2.4-1.31-3.63-1.9a21 21 0 0 0-7.17-2 21 21 0 0 0-6.92-2.88c-.6-.13-1.21-.26-1.83-.37h-.33c-.61-.11-1.21-.22-1.82-.31a21.45 21.45 0 0 0-3.17-.24 20.77 20.77 0 0 0-5 .61 21.13 21.13 0 0 0-6.73-1.15h-4.16a21.1 21.1 0 0 0-7.35 1.32 21 21 0 0 0-7.46-1.43h-4.19a21.1 21.1 0 0 0-7.35 1.32 21.14 21.14 0 0 0-7.49-1.43h-4.16a21 21 0 0 0-7.33 1.32 21 21 0 0 0-7.34-1.43h-.8zm19.48 42.16a20.84 20.84 0 0 0 7.35-1.33 20.74 20.74 0 0 0 7.49 1.43h4.16a20.87 20.87 0 0 0 7.35-1.32 20.92 20.92 0 0 0 7.49 1.43h4.16a21.53 21.53 0 0 0 5-.6 20.94 20.94 0 0 0 3.67.9c.45.07.9.16 1.35.25a20.6 20.6 0 0 0 2.54.4 22.46 22.46 0 0 0 2.25 1.27c.41.19.82.41 1.21.63a20.53 20.53 0 0 0 2.36 1.15 20.31 20.31 0 0 0 1.82 1.9c.34.32.67.65 1 1a20.26 20.26 0 0 0 1.93 1.79 20.64 20.64 0 0 0 1.18 2.35c.23.4.45.8.65 1.21a21.3 21.3 0 0 0 1.3 2.23 20.11 20.11 0 0 0 .43 2.54c.1.44.19.89.27 1.34a21.37 21.37 0 0 0 .6 2.57 18.76 18.76 0 0 0-.34 2.62c0 .45-.08.9-.14 1.34a21.14 21.14 0 0 0-.17 2.5 20.26 20.26 0 0 0-1 2.27c-.16.41-.34.82-.52 1.22a20.2 20.2 0 0 0-.94 2.4 21.77 21.77 0 0 0-1.74 1.95c-.28.36-.59.72-.9 1.07a19.78 19.78 0 0 0-1.67 2.13 20.06 20.06 0 0 0-2.33 1.41c-.39.27-.79.54-1.2.79a22.26 22.26 0 0 0-2.23 1.57 21.25 21.25 0 0 0-2.63.69c-.45.15-.91.29-1.36.41a20 20 0 0 0-2.58.86 20.27 20.27 0 0 0-2.08-.1H309a20.87 20.87 0 0 0-7.35 1.32 20.92 20.92 0 0 0-7.49-1.43H290a21.1 21.1 0 0 0-7.35 1.32 21.14 21.14 0 0 0-7.49-1.43H271a20.89 20.89 0 0 0-7.36 1.33 20.58 20.58 0 0 0-7.14-1.46c-.12-.39-.25-.78-.39-1.16a21 21 0 0 0 .82-5.92v-3.61a20.85 20.85 0 0 0-1.29-7.35 20.76 20.76 0 0 0 1.44-7.46v-3.88a21.17 21.17 0 0 0-1.05-6.79 21.17 21.17 0 0 0 1.38-6.5c0-.84.09-1.65.14-2.4a21.17 21.17 0 0 0 6.78 1.17h4z"/><path class="cls-11" d="M309.51 89.51a52.86 52.86 0 0 1 52.28 54.12c-.69 29.05-25.15 51.89-54.2 51.58l-51-.37c-29.19-.31-27.83-24.23-27.52-53.42.32-29.19-.53-52.6 28.66-52.29z"/><g class="cls-13"><path d="M246.8 208.88a12.52 12.52 0 0 1-5.92-1.53c-1.42-.88-2.63-2-4.28-2.49a16.86 16.86 0 0 1-6.39-2.8c-7.21-5.39-13.39-12.12-12.54-21.75a.53.53 0 0 0 0-.13c3.5-1.55 9.22-3.76 8.44-4.18.48-.37 1-.73 1.51-1.08.79-.51 1.59-1 2.41-1.5l.22-.13a27.28 27.28 0 0 1 3.24-1.63 26.58 26.58 0 0 1 2.87-1 26 26 0 0 1 5.11-2.88l1.49-.64H243.11l1.45-.62h.11a25.75 25.75 0 0 1 5.95-1.72 26.26 26.26 0 0 1 5.45-3.15l3.15-1.34h.09a25.75 25.75 0 0 1 5.95-1.72 26.27 26.27 0 0 1 5.48-3.16l3.08-1.31.13-.05a26.3 26.3 0 0 1 6-1.73 26 26 0 0 1 5.48-3.15l1.78-.76H287.55l.11-.05h.18l.53-.23.76-.31a26.4 26.4 0 0 1 5.65-1.59l.15-.06c2.3-1 12.32-5.88 14.7-5.16a16.29 16.29 0 0 1 7.45 4.7 12.55 12.55 0 0 1 3 3 7.87 7.87 0 0 1 .94 4.62 8.9 8.9 0 0 1 2.08 4.34c.11.72.21 1.46.29 2.22a7.77 7.77 0 0 1-.73 4.19 8.05 8.05 0 0 1 1.18 4v2.21a8.1 8.1 0 0 1-1.09 4.08 8.15 8.15 0 0 1 1.22 4.07V180.64a8 8 0 0 1-1.07 4 7.83 7.83 0 0 1 .79 4.2v.07c0 .49-.1 1-.17 1.46 0 .12 0 .25-.05.37a8.87 8.87 0 0 1-2 4.31 7.87 7.87 0 0 1-1.1 4.65 12.63 12.63 0 0 1-3.56 3.32 17.09 17.09 0 0 1-7.22 4.18 25.66 25.66 0 0 1-6.92.93h-.56a25.76 25.76 0 0 1-6.21.77h-3.52a26.46 26.46 0 0 1-6.16-.72 26.27 26.27 0 0 1-6.28.78h-3.48a26 26 0 0 1-6.16-.72 25.69 25.69 0 0 1-6.27.78h-3.48a26.4 26.4 0 0 1-6.16-.72 26.27 26.27 0 0 1-6.28.78zM218 196c.18.32.38.64.59.94s.44.7.7 1.05q-.27-.36-.51-.72l-.07-.09-.06-.1v-.12zM219.24 198z"/></g><g class="cls-13"><path d="M337.08 200.93l-.43-.32c-1.43-1.25-2.83-2.53-4.15-3.9-.34-.35-1.31-1.48-2-2.31l-.38-.54c-.56-.85-1.1-1.71-1.61-2.59-.88-1.5-1.65-3-2.45-4.59-1-2.85-1.91-5.69-2.63-8.62-.8-3.19-.85-7.06-1.88-10.17a1.94 1.94 0 0 1 0-.24c-.14-1.43-.25-2.87-.36-4.31a250.94 250.94 0 0 1-.8-31.86c.14-2.82.56-5.65.69-8.46.16-1 .32-1.89.51-2.83.52-2.67 1.15-5.33 1.92-8 .35-1.2.72-2.39 1.13-3.56.08-.24.23-.65.41-1.1.34-.74.75-1.64.95-2 .56-1.07 1.15-2.13 1.78-3.17.46-.76 1-1.49 1.45-2.23 1.66-1.67 3.67-3.26 5.24-5 1-.64 2-1.24 3.07-1.83a22.73 22.73 0 0 0 4.78-3.61 29.66 29.66 0 0 0 4-1.32 64 64 0 0 1 29.6 55.53c-.71 25.69-16.63 47.33-38.84 57.03z"/></g><path class="cls-11" d="M341.39 92.42c0 12.26 2.83 28.65 8.45 46 4.71 14.57 10.61 27.44 16.63 37.07a62.77 62.77 0 0 0 9.35-31.57 64 64 0 0 0-34.11-58.17 65.44 65.44 0 0 0-.32 6.67z"/><ellipse cx="369.49" cy="142.41" rx="21.38" ry="30.99" stroke="#c6b21e" fill="#c6b21e" stroke-width="5.85" stroke-dasharray="0 3.9" stroke-miterlimit="10" stroke-linecap="round"/><ellipse cx="375.84" cy="142.41" rx="21.38" ry="30.99" fill="#9c9c9c" stroke="#c6b21e" stroke-width="5.85" stroke-dasharray="0 3.9" stroke-miterlimit="10" stroke-linecap="round"/><use width="106.49" height="114.21" transform="matrix(-1 0 0 1 447.08 26.3)" xlink:href="#New_Symbol_193"/><path class="cls-12" d="M395.89 26.3a.76.76 0 0 1 0 .21c0 1.33-3 2.4-6.61 2.4s-6.6-1.07-6.6-2.4a.76.76 0 0 1 0-.21z"/><path class="cls-25" d="M390.88 19.26c-1.37.13-5.33.43-7.08.59"/><circle class="cls-26" cx="383.44" cy="19.89" r="1.63"/><path class="cls-3" d="M385.69 18.29a.76.76 0 1 0-1.52.14l.26 2.75A.76.76 0 0 0 386 21z"/><path class="cls-27" d="M392.57 25.79h-2.66l1.33-6.75 1.33 6.75z"/><path class="cls-28" d="M391.24 18.27a3.25 3.25 0 0 1 3.25 3.25v2.73a3.25 3.25 0 0 1-6.5 0v-2.73a3.26 3.26 0 0 1 3.25-3.25z"/><path class="cls-25" d="M391 25.91l-6 .24"/><path class="cls-29" d="M384.14 22.8a1.48 1.48 0 0 0-1.42 1.53 1.16 1.16 0 0 0 1.19 1.1l1.1-.05.06 1.53-3.33.13a.38.38 0 0 1-.4-.36l-.15-3.68a1.49 1.49 0 0 1 1.36-1.56 1.47 1.47 0 0 1 1.59 1.36z"/><path class="cls-30" d="M383.53 25.44v.58a.37.37 0 0 0 .39.36.38.38 0 0 0 .37-.39v-.58a.37.37 0 0 0-.39-.36.38.38 0 0 0-.37.39z"/><path class="cls-25" d="M391.14 25.89l-4.53 3.93"/><path class="cls-29" d="M383.81 27.77a1.47 1.47 0 0 0-.14 2.08 1.13 1.13 0 0 0 1.61.11l.83-.71 1 1.15-2.52 2.18a.38.38 0 0 1-.54 0l-2.44-2.81a1.5 1.5 0 0 1 .08-2.07 1.47 1.47 0 0 1 2.12.07z"/><path class="cls-30" d="M385 30.21l.38.44a.38.38 0 0 0 .57-.5l-.37-.44a.39.39 0 0 0-.54 0 .37.37 0 0 0-.04.5z"/><path class="cls-31" d="M385 23.06l2.83-.58-.97-4.74-2.83.58.97 4.74z"/><path class="cls-31" d="M385 23.06l-1.29-.58-.97-4.73 1.29.57.97 4.74z"/><path class="cls-29" d="M387.99 22.62h6.5v1.63h-6.5v-1.63z"/><path class="cls-30" d="M387.99 24.25h.81v-1.63h-.81v1.63z"/><path class="cls-25" d="M392.46 20.32c-1.3.48-2.45.61-4.1 1.22"/><circle class="cls-26" cx="388.02" cy="21.67" r="1.63"/><path class="cls-3" d="M390.74 22.13l-1-2.58a.75.75 0 0 0-1-.45.77.77 0 0 0-.45 1l1 2.58a.78.78 0 0 0 1 .45.76.76 0 0 0 .45-1z"/><path class="cls-32" d="M390.15 14.42l.19-2a4.4 4.4 0 0 1 1.13 2.66.51.51 0 0 1-.24.43c-.28.16-.7-.05-.93-.47a1 1 0 0 1-.15-.62z"/><circle class="cls-26" cx="389.88" cy="15.26" r="3.25"/><path class="cls-33" d="M388.3 12.42a3.25 3.25 0 0 1 1.64-.41.88.88 0 0 1-.45.75l.49.14a.86.86 0 0 1-1.08.6l.25.45a.87.87 0 0 1-1.19-.34l-.14.5a.89.89 0 0 1-.62-.69 3.42 3.42 0 0 1 1.1-1z"/><path class="cls-34" d="M391.31 15.83a.85.85 0 0 0 1.29-1.12z"/><path class="cls-33" d="M389.73 15a4.33 4.33 0 0 1-1.07-2.79 3.25 3.25 0 0 1 4.24 4.28 4.38 4.38 0 0 1-3.17-1.49z"/><path class="cls-26" d="M386.74 14.45l-.77 3.09 1.13-.62-.36-2.47z"/><path class="cls-29" d="M387.53 15.61a.65.65 0 1 0 .25-.89.65.65 0 0 0-.25.89z"/><path class="cls-3" d="M387.29 17.23l1.81-1a1.87 1.87 0 0 1-.22 2.13 3.19 3.19 0 0 1-1.59-1.13z"/><circle class="cls-33" cx="392.92" cy="15.71" r=".81"/><circle class="cls-33" cx="393.03" cy="14.44" r=".81"/><circle class="cls-33" cx="387.37" cy="13.49" r=".81"/><path class="cls-28" d="M393.16 13.44l-1.53-5.11-4.15 4.45 5.68.66z"/><path d="M393.19 13.8l-5.85-.73"/><path class="cls-3" d="M393.54 14.21a.8.8 0 0 0 .45-.6.76.76 0 0 0-.67-.85l-5.84-.76a.76.76 0 0 0-.19 1.51l5.85.73a.77.77 0 0 0 .4-.03z"/><circle class="cls-3" cx="391.75" cy="7.6" r=".76"/><path class="cls-26" d="M389.44 15.54a.86.86 0 0 1 0-.63l.9-2.07s1.18 1.43.62 2.73a.84.84 0 0 1-.46.43.83.83 0 0 1-1.06-.46z"/><path class="cls-35" d="M454.09 219a129.11 129.11 0 0 0-58.49-8.44V98.22a132.43 132.43 0 0 1 58.49 11.51z"/><path class="cls-36" d="M454.09 219a139 139 0 0 0-63.22-8.44V100.9a139.24 139.24 0 0 1 63.22 8.83z"/><path class="cls-35" d="M454.09 219a147.3 147.3 0 0 0-67.23-8.44V102.42a146.47 146.47 0 0 1 67.23 7.31z"/><path class="cls-36" d="M454.09 219a160.88 160.88 0 0 0-73.7-8.44v-105.8a158.9 158.9 0 0 1 73.7 5z"/><path class="cls-35" d="M448.13 211.48a188.42 188.42 0 0 0-63.7-6.92V106.1a186.12 186.12 0 0 1 63.7 3.76z"/><path class="cls-36" d="M448.13 212.64a196 196 0 0 0-66.32-6.92v-98.26a193.66 193.66 0 0 1 66.32 3.54z"/><path class="cls-35" d="M448.13 214.11a202.52 202.52 0 0 0-68.55-6.92v-97.76a199.85 199.85 0 0 1 68.55 3.07z"/><path class="cls-36" d="M448.13 214.73a212.64 212.64 0 0 0-72.13-6.92v-96.52a210 210 0 0 1 72.13 1.83z"/><path class="cls-35" d="M454.09 219a72.43 72.43 0 0 1 31.14-7.44V105.68a68.29 68.29 0 0 0-31.14 4z"/><path class="cls-36" d="M454.09 219a77.08 77.08 0 0 1 33.5-7.44V105.9a73.08 73.08 0 0 0-33.5 3.83z"/><path class="cls-35" d="M454.09 219a81 81 0 0 1 35.5-7.44V106.42a77 77 0 0 0-35.5 3.31z"/><path class="cls-36" d="M454.09 219a87.59 87.59 0 0 1 38.72-7.44v-103.8a83.25 83.25 0 0 0-38.72 2z"/><path fill="#54c290" d="M454.45 110.25h40.57v110.72h-40.57z"/><path fill="#008d5c" d="M374.8 110.25h77.72v110.72H374.8z"/><path class="cls-39" d="M400.57 193.82h18.56v-2.42h-18.56v2.42zM401.96 198.89h15.79v-2.42h-15.79v2.42zM401.6 159.72h16.51a10.27 10.27 0 0 0 10.27-10.27v-8.64a10.27 10.27 0 0 0-10.27-10.27H401.6a10.27 10.27 0 0 0-10.27 10.27v8.64a10.27 10.27 0 0 0 10.27 10.27z"/><path d="M447.72 222.18h11.53a1.16 1.16 0 0 0 1.16-1.16V110.77a1.16 1.16 0 0 0-1.16-1.16h-11.53a1.16 1.16 0 0 0-1.16 1.16V221a1.16 1.16 0 0 0 1.16 1.18z" fill="#07a760"/><path class="cls-11" d="M396.18 182.57l-.42 1.44-.37 1.19-.75 2.3a19.06 19.06 0 1 1-36.25-11.82c.05-.17.11-.34.17-.51l.12-.34.54-1.49.25-.7.1-.33.05-.13s0-.12 0 0a19 19 0 0 1 36.55 10.41z"/><path class="cls-11" d="M387.55 204.14c-.79 1.48-1.63 3-2.54 4.47l-.11.18a19.37 19.37 0 1 1-33.07-20.17l.37-.57c.5-.76 1-1.58 1.49-2.43l.08-.15a19.3 19.3 0 0 1 33.78 18.67z"/><path class="cls-11" d="M369.63 225.64a38.53 38.53 0 0 1-7.14 3.89 19.66 19.66 0 1 1-14.72-36.45c-.22.11-.24.17-.11.1L350 192a19.51 19.51 0 0 1 19.59 33.61z"/><path class="cls-11" d="M330.86 227.14a48.71 48.71 0 0 1-5.66-3.74l-.46-.34a20 20 0 0 1 24.15-31.81l.77.62a12.13 12.13 0 0 0 1 .74l1.19.81a19.87 19.87 0 0 1-21 33.72z"/><path class="cls-11" d="M311 208.61l-2.82-3.93A20.26 20.26 0 1 1 341 181l.34.48.42.63 1.76 2.62.56.84a20.18 20.18 0 0 1-33.15 23z"/><path class="cls-11" d="M299.21 190l-.52-1-.26-.49-.33-.65-1.28-2.63a20.54 20.54 0 1 1 36.94-17.95l.05.11.53 1.09c.15.32.3.65.44 1l.11.25.2.4.39.8.11.2A20.49 20.49 0 0 1 299.21 190z"/><path class="cls-11" d="M290.7 167.39l-1.07-4.93a20.76 20.76 0 1 1 40.58-8.79l.09.4.19 1L331 158l.22 1.14a20.7 20.7 0 0 1-40.56 8.27z"/><path class="cls-11" d="M288.2 142.44q.17-2.87.6-5.83l.05-.32a21 21 0 1 1 41.5 6.19l-.1.63a21.38 21.38 0 0 0-.28 2.12v.26a20.93 20.93 0 0 1-41.74-3.05z"/><path class="cls-3" d="M369.75 155.9A17.59 17.59 0 0 0 399 175.4c5.39-8.09 4.65-21.71-3.44-27.09s-20.42-.5-25.81 7.59z"/><path class="cls-3" d="M374.31 160c-1.71-5.38-6.45-7.95-10.61-5.75s-6.14 8.35-4.44 13.73 7.19 12 11.35 9.82 5.39-12.39 3.7-17.8z"/><path d="M393.55 186.53a4.36 4.36 0 0 0 5.29-3.16 4.36 4.36 0 0 0-3.16-5.3l-33.42-8.43a4.37 4.37 0 0 0-5.3 3.16 4.37 4.37 0 0 0 3.16 5.3z" fill="#f4f029"/><path class="cls-3" d="M475.13 160.54c.68 9.69 13.76 17 23.45 16.32a17.59 17.59 0 0 0-2.45-35.1c-9.7.68-21.68 9.09-21 18.78z"/><path class="cls-12" d="M288.2 142.38s0-.33.06-.84.1-1.26.17-2c.15-1.46.37-2.94.37-2.94l.08-.52.09-.56a20.92 20.92 0 0 1 11.38-15l-.12.49a11.46 11.46 0 0 0-2.28 7.91 12.49 12.49 0 0 0 .17 2.73 12.41 12.41 0 0 0-.17 3.16c-.2 4.63 2.19 9.4 7.19 10.78-.11.68-.19 1.36-.25 2.06-6.48 4.88-5.14 17.34 4 19.11v1.28c-3.33 6.07-.68 15.54 7.93 16.2.44.39.89.78 1.35 1.15 0 5.33 3.42 10.67 10.28 10.67h.1c.42 4.94 3.82 9.57 10.21 9.57a11.37 11.37 0 0 0 3.18-.44 9.66 9.66 0 0 0 9.33 6h.33a10.29 10.29 0 0 0 5.56 1.5c.39 0 .76 0 1.12-.06 6.39 2.05 14.24 1.2 20.42-1.88a22.75 22.75 0 0 0 3.69 1.3 19.25 19.25 0 0 1-5.22 3.8 19.39 19.39 0 0 1-7.63 9.91l-.9.6c-.61.4-1.45.91-2.34 1.41a40.16 40.16 0 0 1-3.8 1.82 19.58 19.58 0 0 1-16.06-.62 19.84 19.84 0 0 1-15.65-1.82l-.89-.51c-.57-.34-1.31-.8-2-1.27-1.41-.94-2.67-1.91-2.67-1.91l-.6-.46q-.3-.23-.6-.48a19.92 19.92 0 0 1-5.67-7.81 20.06 20.06 0 0 1-7.62-6.38l-2.38-3.33-.06-.1c-.11-.14-.21-.29-.32-.44a20.24 20.24 0 0 1-3.18-8 20.34 20.34 0 0 1-5.62-6.55l-.3-.55-.3-.56-.09-.16-.38-.75-.16-.33-.88-1.8-.09-.18a3.54 3.54 0 0 1-.16-.34 20.37 20.37 0 0 1-1.88-9.54 20.67 20.67 0 0 1-4.35-8.85l-.86-3.91c0-.12-.07-.34-.09-.47a20.61 20.61 0 0 1 .48-9.9 20.87 20.87 0 0 1-1.92-10.19z"/></g><path class="cls-3" d="M359.7 222a10.16 10.16 0 0 0-20.31 0z"/><ellipse class="cls-12" cx="297.08" cy="83.65" rx="10.88" ry="1.97"/><path class="cls-3" d="M340.87 222a7 7 0 0 0-13.87 0zM501.87 222a8.85 8.85 0 0 0-17.7 0z"/><path class="cls-3" d="M485.46 222a6.07 6.07 0 0 0-12.13 0zM471.34 222a4.1 4.1 0 1 0-8.2 0zM516.7 221a4.43 4.43 0 0 0-8.86 0zM277.19 207.07a7.36 7.36 0 0 0-14.72 0z"/><path class="cls-3" d="M263.55 207.07a5 5 0 0 0-10.09 0z"/><path d="M263 230.73c21.67-12.58 23-18.39 34.74-22.48a25.76 25.76 0 0 1 17 0c11.79 4.09 13.08 9.9 34.75 22.48z" fill="url(#linear-gradient-2)"/><ellipse class="cls-12" cx="331.86" cy="87.39" rx="8.34" ry="1.97"/><path class="cls-43" d="M326.28 82a1.19 1.19 0 1 0 1.19-1.19 1.19 1.19 0 0 0-1.19 1.19z"/><path class="cls-44" d="M328.06 85.14l4.8-.84-.97-6.89-4.81.84.98 6.89z"/><path class="cls-43" d="M331.46 82.32a1.19 1.19 0 1 0 1.19-1.19 1.19 1.19 0 0 0-1.19 1.19z"/><path class="cls-45" d="M328.14 85.14l-.69-.83-.97-6.89.69.83.97 6.89z"/><path class="cls-32" d="M333.82 74.55l.16-1.84a4 4 0 0 1 1.02 2.44.5.5 0 0 1-.22.39c-.26.14-.65 0-.86-.42a1 1 0 0 1-.1-.57z"/><circle class="cls-32" cx="333.58" cy="75.33" r="2.99"/><path class="cls-30" d="M332.11 72.73a2.89 2.89 0 0 1 1.5-.38.81.81 0 0 1-.41.69l.46.12a.8.8 0 0 1-1 .56l.23.41a.8.8 0 0 1-1.09-.3l-.13.45a.79.79 0 0 1-.57-.62 3 3 0 0 1 1-.93z"/><path class="cls-34" d="M334.89 75.84a.79.79 0 0 0 1.18-1z"/><path class="cls-30" d="M333.44 75.12a4 4 0 0 1-1-2.55 3 3 0 0 1 3.93 3.9 4 4 0 0 1-2.93-1.35z"/><path class="cls-32" d="M330.69 74.61l-.68 2.83 1.03-.57-.35-2.26z"/><path class="cls-29" d="M331.42 75.66a.6.6 0 1 0 .23-.82.6.6 0 0 0-.23.82z"/><path class="cls-3" d="M331.21 77.15l1.66-.93a1.74 1.74 0 0 1-.19 2 2.9 2.9 0 0 1-1.47-1.07z"/><circle class="cls-30" cx="336.38" cy="75.72" r=".74"/><circle class="cls-30" cx="336.46" cy="74.55" r=".74"/><circle class="cls-30" cx="331.26" cy="73.71" r=".74"/><path class="cls-46" d="M336.57 73.64l-1.43-4.69-3.79 4.12 5.22.57z"/><path d="M336.61 73.96l-5.38-.63"/><path class="cls-3" d="M336.93 74.34a.7.7 0 0 0-.21-1.34l-5.37-.63a.7.7 0 1 0-.16 1.4l5.37.62a.66.66 0 0 0 .37-.05z"/><circle class="cls-3" cx="335.24" cy="68.28" r=".7"/><path class="cls-32" d="M333.18 75.59a.78.78 0 0 1 0-.58l.82-1.91a2.8 2.8 0 0 1 .59 2.5.77.77 0 0 1-.42.41.75.75 0 0 1-.99-.42z"/><path class="cls-27" d="M336.11 86.53l-2.91-.08 1.65-7.38 1.26 7.46z"/><path class="cls-46" d="M334.87 78.23c-2.46-.06-4.14 1.24-4.21 3.76-.08 3.35 2 6 4 6.07s4.17-2.51 4.26-5.86c.02-2.52-1.6-3.91-4.05-3.97z"/><path class="cls-47" d="M334.44 87.21l-4.66.05"/><path class="cls-29" d="M328.87 83.42a1.7 1.7 0 0 0-1.68 1.71 1.31 1.31 0 0 0 1.33 1.3h1.25v1.68h-3.82a.44.44 0 0 1-.44-.44v-4.2a1.72 1.72 0 0 1 1.61-1.75 1.69 1.69 0 0 1 1.75 1.7z"/><path class="cls-30" d="M328.08 86.43v.66a.43.43 0 0 0 .44.43.44.44 0 0 0 .43-.44v-.66a.45.45 0 0 0-.45-.43.44.44 0 0 0-.42.44z"/><path class="cls-47" d="M333.24 79.51l-6.2.75"/><circle class="cls-32" cx="326.26" cy="80.49" r="1.49"/><path class="cls-3" d="M328.73 81l-.73-2.37a.7.7 0 0 0-1.33.41l.75 2.42a.7.7 0 1 0 1.33-.42z"/><path class="cls-29" d="M338.19 85.17l-7-.18a7.88 7.88 0 0 1-.42-1.5l7.92.19a6.53 6.53 0 0 1-.5 1.49z"/><path class="cls-30" d="M330.67 84.98l.6.01.04-1.49-.61-.02-.03 1.5z"/><path class="cls-44" d="M326.91 83.79l4.82-.72-.8-6.91-4.82.73.8 6.9z"/><path class="cls-45" d="M327 83.8l-.68-.85-.8-6.91.67.85.81 6.91z"/><path class="cls-47" d="M334.58 82.7l-2.4-1.56"/><circle class="cls-32" cx="331.49" cy="80.72" r="1.49"/><path class="cls-3" d="M333.76 79.78a.68.68 0 0 0-.95.25l-1.28 2.18a.7.7 0 1 0 1.21.71l1.26-2.19a.69.69 0 0 0-.24-.95z"/><path class="cls-48" d="M291.66 66.94v1.79a1.8 1.8 0 0 1-1.8 1.77v-1.79a1.79 1.79 0 0 1 1.8-1.77zM289.86 68.71v1.79a1.79 1.79 0 0 1-1.8 1.77v-1.79a1.79 1.79 0 0 1 1.8-1.77zM288.06 70.48v1.79a1.78 1.78 0 0 1-1.8 1.76v-1.78a1.77 1.77 0 0 1 1.8-1.77z"/><path class="cls-48" d="M284.35 74.65L285 74a.9.9 0 0 1 1.26 0l-.64.63a.89.89 0 0 1-1.27.02zM285.6 75.92l.64-.62a.9.9 0 0 0 0-1.27l-.64.63a.9.9 0 0 0 0 1.26z"/><circle class="cls-32" cx="294.61" cy="68.66" r="3.41"/><path class="cls-29" d="M296.76 69.45a.7.7 0 0 1-1 0 .69.69 0 1 1 1 0z"/><path class="cls-48" d="M296.21 65.66a3.36 3.36 0 0 0-3.17 0 3.28 3.28 0 0 0 1.8.63 3.35 3.35 0 0 0 1.1-.12 3.47 3.47 0 0 0 .53 1 3.38 3.38 0 0 0 1.53 1.1 3.39 3.39 0 0 0-1.79-2.61z"/><path class="cls-48" d="M294.85 68.5a5.08 5.08 0 0 0 2-2.64 3.67 3.67 0 0 0-5.78 3.22 4.79 4.79 0 0 0 3.78-.58z"/><path class="cls-3" d="M296.63 71.41l-1.53-1.54a2 2 0 0 0-.42 2.2 3.32 3.32 0 0 0 1.95-.66z"/><path class="cls-32" d="M298.02 68.52l-.31 3.45-.96-.97 1.27-2.48z"/><path class="cls-49" d="M292.07 66.19l2.86-4.82 3.1 5.59-5.96-.77z"/><path class="cls-3" d="M291.52 66.9a.83.83 0 0 1-.3-.73.8.8 0 0 1 .89-.7l6.14.75a.8.8 0 1 1-.19 1.58l-6.14-.74a.79.79 0 0 1-.4-.16z"/><circle class="cls-3" cx="295" cy="60.59" r=".8"/><path class="cls-32" d="M295.27 65.93s-1.81.91-1.83 2.45a.92.92 0 0 0 .26.64.9.9 0 0 0 1.3-.02.86.86 0 0 0 .27-.63z"/><path d="M294 68.75a.46.46 0 0 0-.65 0 .48.48 0 0 0 0 .66.47.47 0 0 0 .66 0" stroke="#f9ce1d" stroke-width=".24" stroke-miterlimit="10" fill="none"/><path class="cls-51" d="M294.63 74.78l4.47 1.26"/><circle class="cls-32" cx="300.74" cy="76.53" r="1.71"/><path class="cls-3" d="M299.75 73.89a.82.82 0 0 0-1 .54l-.83 2.77a.8.8 0 0 0 1.54.46l.83-2.77a.82.82 0 0 0-.54-1z"/><path class="cls-51" d="M292.32 82.94l9.13.08"/><path class="cls-29" d="M302.28 79.48a1.55 1.55 0 0 1 1.53 1.57 1.19 1.19 0 0 1-1.21 1.18h-1.15v1.6h3.49a.41.41 0 0 0 .41-.4v-3.91A1.57 1.57 0 0 0 303.9 78a1.55 1.55 0 0 0-1.62 1.48z"/><path class="cls-30" d="M303 82.24v.6a.42.42 0 0 1-.41.4.4.4 0 0 1-.39-.41v-.6a.4.4 0 0 1 .4-.4.41.41 0 0 1 .4.41z"/><path class="cls-27" d="M290.24 81.7l2.76.43.06-9.61-2.82 9.18z"/><path class="cls-49" d="M291.35 83.69a2.48 2.48 0 0 0 3-2.38c.34-2.26 2.07-2.74 2.41-4.93a4.26 4.26 0 0 0-8.41-1.29c-.33 2.2 1.18 3.17.83 5.43a2.47 2.47 0 0 0 2.17 3.17z"/><path class="cls-43" d="M298.35 71.18l3.22 2.56c.28.15-.91.09-1.32-.12L297 72.18z"/><path class="cls-44" d="M299.56 80.4l-4.62-1.56 2.01-6.66 4.62 1.56-2.01 6.66z"/><path class="cls-45" d="M299.48 80.39l.81-.72 2.01-6.66-.81.72-2.01 6.66z"/><path class="cls-51" d="M289.77 74.39l4.36 1.6"/><circle class="cls-32" cx="295.72" cy="76.61" r="1.71"/><path class="cls-3" d="M294.94 73.9a.79.79 0 0 0-1 .46l-1.05 2.69a.8.8 0 0 0 1.5.58l1-2.69a.81.81 0 0 0-.45-1.04z"/><path class="cls-29" d="M295 79.61l-5.91-.9a4.44 4.44 0 0 1 .11 1.74l5.17.79a4.15 4.15 0 0 1 .63-1.63z"/><path class="cls-30" d="M294.85 81.32l-.72-.11.25-1.69.73.11-.26 1.69z"/><ellipse class="cls-12" cx="313.19" cy="96.39" rx="8.34" ry="1.97"/><path class="cls-43" d="M313.42 90.08a1.19 1.19 0 1 1-1.19-1.19 1.19 1.19 0 0 1 1.19 1.19z"/><path class="cls-44" d="M311.47 90.58h2.13l1.33-5.83h-2.13l-1.33 5.83z"/><path class="cls-45" d="M313.7 90.58l4.78.11 1.33-5.83-4.78-.11-1.33 5.83z"/><path class="cls-44" d="M313.94 90.64h-.61v-.06l1.32-5.8a.08.08 0 0 1 .08-.07h.6a.05.05 0 0 1 0 .07l-1.33 5.8a.09.09 0 0 1-.06.06z"/><path class="cls-35" d="M313.64 90.47a7.44 7.44 0 0 1 3.19-.44l1.34-5.92a8 8 0 0 0-3.21.61z"/><path class="cls-36" d="M313.64 90.47a7.94 7.94 0 0 1 3.44-.44l1.31-5.77a7.92 7.92 0 0 0-3.43.46z"/><path class="cls-35" d="M313.64 90.47a8.58 8.58 0 0 1 3.65-.44l1.29-5.69a8.2 8.2 0 0 0-3.62.38z"/><path class="cls-36" d="M313.64 90.47a9.19 9.19 0 0 1 4-.44l1.27-5.57a8.76 8.76 0 0 0-3.94.26z"/><path class="cls-35" d="M313.64 90.47a3.21 3.21 0 0 0-1.55-.39l1.28-5.57a3.29 3.29 0 0 1 1.59.21z"/><path class="cls-36" d="M313.64 90.47a3.45 3.45 0 0 0-1.67-.39l1.27-5.56a3.57 3.57 0 0 1 1.72.2z"/><path class="cls-35" d="M313.64 90.47a3.64 3.64 0 0 0-1.77-.39l1.26-5.53a3.88 3.88 0 0 1 1.83.17z"/><path class="cls-36" d="M313.64 90.47a4 4 0 0 0-1.94-.39c.41-1.82.83-3.64 1.24-5.46a4.28 4.28 0 0 1 2 .1z"/><path class="cls-12" d="M313.64 90.47a9.19 9.19 0 0 1 4-.44l1.27-5.57a8.76 8.76 0 0 0-3.94.26z"/><path class="cls-52" d="M314.61 83.03l.88 2.79-3.51.18 2.63-2.97z"/><path class="cls-52" d="M314.92 84.8a3.13 3.13 0 0 1-3.48 2.73 3.13 3.13 0 0 1-2.73-3.48 3.13 3.13 0 0 1 3.48-2.73 3.13 3.13 0 0 1 2.73 3.48z"/><path class="cls-34" d="M313.59 81.85a3.05 3.05 0 0 0-1.4-.53 3.13 3.13 0 0 0-3.48 2.73 3.18 3.18 0 0 0 .48 2.08c2.12 2.01 7.14-2.13 4.4-4.28z"/><path class="cls-34" d="M306.56 86.82a2.52 2.52 0 0 0 2.63-1.9 2.52 2.52 0 0 0-2.63 1.9z"/><path class="cls-52" d="M313.55 85.62v-1.76s-2.73 2.15-.7 2.25z"/><path class="cls-53" d="M309.55 81.93l2.58-4.17 2.61 4.95-5.19-.78z"/><path class="cls-3" d="M309.05 82.53a.72.72 0 0 1-.25-.64.7.7 0 0 1 .79-.59l5.36.77a.7.7 0 0 1-.2 1.38l-5.35-.77a.62.62 0 0 1-.35-.15z"/><circle class="cls-3" cx="312.21" cy="77.09" r=".7"/><path class="cls-53" d="M313.56 94.06a3.13 3.13 0 0 1-6.25 0v-4.32a3.13 3.13 0 1 1 6.25 0z"/><path fill="#333" d="M307.31 92.49h6.25v1.56h-6.25z"/><path fill="#ffd300" d="M313.3 92.35h.44v1.79h-.44z"/><path class="cls-56" d="M310.28 96.47c.29 0 4.51-.13 5.15-.12"/><path class="cls-29" d="M316.21 93.27a1.35 1.35 0 0 1 1.32 1.39 1.05 1.05 0 0 1-1.08 1h-1v1.4l3.06.08a.35.35 0 0 0 .36-.34l.09-3.42a1.39 1.39 0 0 0-1.31-1.38 1.35 1.35 0 0 0-1.44 1.27z"/><path class="cls-30" d="M316.8 95.69v.53a.36.36 0 0 1-.36.34.35.35 0 0 1-.34-.36v-.53a.35.35 0 0 1 .36-.34.36.36 0 0 1 .34.36z"/><path class="cls-56" d="M316.85 90.58c-3.88 2-4.86-1.84-4.86-1.84"/><circle class="cls-52" cx="318.3" cy="90.22" r="1.49"/><path class="cls-3" d="M317.83 91.64l-.6-2.46a.7.7 0 0 0-1.36.34l.6 2.45a.71.71 0 0 0 .85.52.69.69 0 0 0 .51-.85z"/><path class="cls-34" d="M313.65 88.71a2.49 2.49 0 0 1-1.4-1 2.45 2.45 0 0 1-.44-1.67 2.47 2.47 0 0 1 1.84 2.67z"/></symbol></defs><use width="571.28" height="237.09" xlink:href="#New_Symbol_194"/></svg>