<svg id="slice" xmlns="http://www.w3.org/2000/svg" xmlns:xlink="http://www.w3.org/1999/xlink" width="89.7" height="96.7" viewBox="0 0 89.7 96.7"><style>.st0{opacity:.11;fill:#231f20}.st1{fill:#94917f}.st2{fill:#baafa2}.st3{fill:#785768}.st4{fill:#aaa89a}.st5{opacity:.1}.st6{fill:#8ce1f9}.st7{fill:#ceccbf}.st8{fill:#8d667a}.st9{fill:#918c84}.st10{fill:#c2beb6}.st11{fill:#f0e1d1}.st12{fill:#b6b4a8}.st13{fill:#94938a}.st14{fill:#7d7c71}.st15{fill:#633b4f}.st16{fill:#85837d}.st17{fill:#8a7665}.st18{fill:#6a695c}.st19{fill:#b9b7a4}.st20{fill:#2f9f42}.st21{opacity:.13}.st22{opacity:.2;fill:#231f20}.st23{fill:#d53e2e}.st24{fill:#003673}.st25{fill:#f09a1a}.st26{fill:#fdbf0f}.st27{fill:#736357}.st28{fill:#d84637}.st29{fill:#00a9e9}.st30{fill:#ffde00}.st31{fill:#48b780}.st32{fill:#7c6959}.st33{fill:#d3ae6e}.st34{fill:#FFF}.st35{fill:#ffe95a}.st36{fill:#ffc300}.st37{fill:#f27b20}.st38{fill:#ee3837}.st39{fill:#4c8bfb}.st40{fill:#b757c5}.st41{fill:#ffdf8a}.st42{fill:#333}.st43{fill:#6a57ab}.st44{fill:#5d377a}.st45{fill:#393939}.st46{fill:#fde08b}.st47{fill:#dc3126}.st48{fill:#fdd500}.st49{fill:#515c5d}.st50{fill:#7d8586}.st51{fill:#afd136}.st52{fill:url(#SVGID_1_)}.st53{fill:url(#SVGID_2_)}.st54{fill:#e8d184}.st55{fill:#ca7836}.st56{fill:#54d184}.st57{opacity:.48}.st58{opacity:.5;fill:#75cef4}.st59{opacity:.5;fill:#00bff0}.st60{opacity:.5;fill:#e6f6fd}.st61{opacity:.48;fill:#75cef4}.st62{fill:url(#SVGID_3_)}.st63{fill:gray}.st64{fill:#8f4293}.st65{fill:#ffd400}.st66{fill:url(#SVGID_4_)}.st67{fill:#28ae4b}.st68{fill:#e64436}.st69{fill:url(#SVGID_5_)}.st70{fill:url(#XMLID_158_)}.st71{opacity:.17;fill:#FFF}.st72{fill:url(#SVGID_6_)}.st73{fill:url(#SVGID_7_)}.st74{fill:#00b2ee}.st75{fill:#b89860}.st76{fill:#b0b0b0}.st77{fill:#864537}.st78{fill:#fbcf99}.st79{fill:#fbcd48}.st80{fill:#FD0}.st81{fill:#d2392c}.st82{fill:url(#SVGID_8_)}.st83{fill:url(#SVGID_9_)}.st84{fill:url(#SVGID_10_)}.st85{fill:url(#SVGID_11_)}.st86{fill:url(#XMLID_160_)}.st87{fill:#afd77d}.st88{opacity:.1;fill:#231f20}.st89{fill:#7cb342}.st90{fill:#f9ce1d}.st91{fill:#ffe36c}.st92{fill:#5e35b1}.st93{fill:#9575cd}.st94{fill:#29b6f6}.st95{fill:#4ad0ff}.st96{fill:#9dce2e}.st97{fill:#e53935}.st98{fill:#f94b4b}.st99{fill:#fb8c00}.st100{fill:#fc9f42}.st101{fill:#9dca3b}.st102{fill:#66a622}.st103{fill:#ffb300}.st104{fill:#f57c00}.st105{fill:#a1cacf}.st106{fill:#dff3f5}.st107{fill:#bad7db}.st108{fill:#c3dfe3}.st109{fill:#bcdee3}.st110{opacity:.5}.st111{opacity:.8}.st112{fill:url(#XMLID_161_)}.st113{fill:url(#SVGID_12_)}.st114{fill:#f6f3ec}.st115{fill:#d7d7d7}.st116{fill:#959d9e}.st117{fill:#b3b3b3}.st118{fill:#e0e0e0}.st119{fill:#4d4d4d}.st120{fill:#595959}.st121{fill:#ffeb5e}.st122{fill:#6d7576}.st123{fill:#c9e09d}.st124{fill:#8f8f8f}.st125{fill:#5c6566}.st126{fill:#a19e97}.st127{fill:#61c6ec}.st128{fill:#77bf82}.st129{fill:#f3ff73}.st130{fill:url(#XMLID_163_)}.st131{fill:url(#SVGID_13_)}.st132{fill:url(#SVGID_14_)}.st133{fill:url(#XMLID_165_)}.st134{fill:#555047}.st135{fill:#896339}.st136{fill:#736f68}.st137{fill:#949494}.st138{fill:#83dee8}.st139{fill:#85827d}.st140{opacity:.2}.st141{fill:#404040}.st142{fill:silver}.st143{fill:#EEE}.st144{fill:#44c2c2}.st144,.st145{clip-path:url(#SVGID_16_)}.st145{fill:#a3d89f}.st146{fill:#c83a74}.st146,.st147{clip-path:url(#SVGID_16_)}.st147{fill:#ffa376}.st148{opacity:.24}.st149{fill:none;stroke:#85827d;stroke-width:.9;stroke-miterlimit:10}.st150{opacity:.83}.st151{fill:#888480}.st152{fill:#7099ba}.st153{fill:#b0e1e8}.st154{opacity:.22;fill:#FFF}.st155{fill:url(#XMLID_172_)}.st156{fill:url(#SVGID_17_)}.st157{fill:url(#SVGID_18_)}.st158{fill:url(#XMLID_174_)}.st159{fill:#9db9bd}.st160{fill:#d1e3e6}.st161{fill:#b6d6db}.st162{fill:#9ccfd9}.st163{fill:#b4d3d9}.st164{fill:#97babf}.st165{fill:#c1dff5}.st166{fill:#c5e7eb}.st167{fill:#8ab8d4}.st168{fill:#e6e6e6}.st169{fill:#716e69}.st170{fill:#71bdde}.st171{fill:#659bc7}.st172{fill:#70afd4}.st173{fill:none}.st174{fill:#97cee6}.st175{opacity:8e-2;fill:#0f0f0f}.st176{opacity:.1;fill:#0f0f0f}.st177{fill:#385fe4}.st178{fill:#CCC}.st179{fill:#2986e4}.st180{opacity:.21}.st181{clip-path:url(#SVGID_20_)}.st182{filter:url(#Adobe_OpacityMaskFilter)}.st183{mask:url(#SVGID_21_);fill:#33659a}.st184{filter:url(#Adobe_OpacityMaskFilter_1_)}.st185{mask:url(#SVGID_22_);fill:#385fe4}.st186{filter:url(#Adobe_OpacityMaskFilter_2_)}.st187{opacity:.17;mask:url(#SVGID_23_)}.st188{clip-path:url(#SVGID_25_)}.st189{opacity:.77}.st190{fill:#e8c97b}.st191{fill:#2d56e2}.st192{opacity:.11}.st193{fill:#0bbf68}.st194{fill:#98bee4}.st195{fill:#3f5656}.st196{fill:#d7c17d}.st197{opacity:.2;fill:#FFF}.st198{fill:url(#SVGID_26_)}.st199{fill:url(#XMLID_228_)}.st200{fill:url(#SVGID_27_)}.st201{fill:url(#XMLID_231_)}.st202{fill:#9c9c9c}.st203{fill:#808082}.st204{fill:#9ed5ec}.st205{fill:#cacaca}.st206{fill:#e3e3e3}.st207{fill:#979797}.st208{fill:#9e9e9e}.st209{opacity:.58;fill:#c7ffff}.st210{opacity:.25}.st211{fill:#a52e22}.st212{fill:#e63636}.st213{fill:url(#XMLID_261_)}.st214{fill:url(#XMLID_278_)}.st215{fill:#f3831f}.st216{fill:#1fa2f3}.st217{fill:#914295}.st218{fill:#faac18}.st219{opacity:.1;fill:#333}.st220{fill:#836948}.st221{fill:#df543f}.st222{fill:#00813f}.st223{fill:#b9c9d2}.st224{fill:#28b04b}.st225{fill:#fff100}.st226{fill:#969696}.st227{fill:#0158bb}.st228{fill:#1565c0}.st229{fill:#3dd1f9}.st230{fill:#f5a816}.st231{fill:#c62828}.st232{fill:#bdbdbd}.st233{fill:#a5a5a5}.st234{fill:#424242}.st235{fill:#e6e7e8}.st236{clip-path:url(#SVGID_31_);fill:#FFF}.st237{fill:#e91c24}.st237,.st238{clip-path:url(#SVGID_31_)}.st238{fill:#1976d2}.st239{fill:#4d8acf}.st240{fill:none;stroke:#FFF;stroke-width:.6591;stroke-miterlimit:10}.st241{fill:#00adee}.st242{clip-path:url(#SVGID_33_);fill:#FFF}.st243{fill:#dbdbdb}.st244{fill:#9ad3d3}.st245{fill:url(#SVGID_34_)}.st246{fill:url(#SVGID_35_)}.st247{fill:url(#SVGID_36_)}.st248{fill:url(#SVGID_37_)}.st249{fill:url(#SVGID_38_)}.st250{fill:url(#SVGID_39_)}.st251{fill:url(#SVGID_40_)}.st252{fill:url(#SVGID_41_)}.st253{fill:#f7ce97}.st254{fill:#4c4c4c}.st255{fill:#e9e9e9}.st256{fill:#eb9b95}.st257{fill:#656565}.st258{fill:#5e5a48}.st259{fill:url(#SVGID_42_)}.st260{fill:url(#SVGID_43_)}.st261{fill:#999}.st262{opacity:.36}.st263{fill:#00a64c}.st264{fill:#d4d4d4}.st264,.st265{fill-rule:evenodd;clip-rule:evenodd}.st265{fill:#FFF}.st266{fill:#008141}.st266,.st267{fill-rule:evenodd;clip-rule:evenodd}.st267{fill:#00a64c}.st268{fill:#28b265}.st269{opacity:.4;fill:#ffe000}.st270{fill:#c8cbcc}.st271{fill:#b8b8b8}.st272{fill:#949496}.st273{fill:#c8ead4}.st274{fill:#7d8485}.st275{fill:#2364d5}.st276{fill:url(#XMLID_279_)}.st277{fill:url(#SVGID_44_)}.st278{fill:url(#SVGID_45_)}.st279{fill:url(#SVGID_46_)}.st280{fill:#8700ee}.st281{fill:#00b533}.st282{fill:#eeda00}.st283{fill:#f2206d}.st284{fill:#6299fb}.st285{opacity:.7;fill:url(#SVGID_47_)}.st286{opacity:.7;fill:url(#SVGID_48_)}.st287{opacity:.7;fill:url(#SVGID_49_)}.st288{fill:#ee5e5d}.st289{fill:#e09d17}.st290{fill:#f0ede9}.st291{clip-path:url(#SVGID_51_)}.st292{fill:#eec85c}.st293{opacity:.32;fill:#9a0000}.st294{fill:#f0f0f0}.st295{fill:#81d4fa}.st296{opacity:.49;fill:#c9edfc}.st297{fill:#d8746a}.st298{fill:#fcbe8d}.st299{fill:#00a9e7}.st300{fill:#6a7173}.st301{opacity:.6}.st302{fill:url(#SVGID_52_)}.st303{fill:url(#SVGID_53_)}.st304{fill:url(#XMLID_280_)}.st305{fill:url(#SVGID_54_)}.st306{fill:url(#SVGID_55_)}.st307{fill:url(#SVGID_56_)}.st308{fill:url(#SVGID_57_)}.st309{fill:#67635d}.st310{fill:#999690}.st311{fill:#e6da91}.st312{opacity:.55;fill:#bbaf3e}.st313{fill:#a8a69b}.st314{clip-path:url(#SVGID_59_)}.st315{fill:url(#SVGID_60_)}.st316{fill:url(#SVGID_61_)}.st317{opacity:.1;clip-path:url(#SVGID_59_)}.st318{clip-path:url(#SVGID_63_)}.st319{fill:#e3e3e2}.st320{fill:#cf4140}.st321{fill:url(#SVGID_64_)}.st322{fill:url(#SVGID_65_)}.st323{fill:url(#SVGID_66_)}.st324{fill:url(#SVGID_67_)}.st325{fill:#666}.st326{fill:#c1161c}.st327{fill:#b47945}.st328{fill:#d9dadb}.st329{fill:#36af49}.st330{fill:#2a943e}.st331{fill:#9ea0a2}.st332{fill:#bebfc1}.st333{fill:#f5961d}.st334{fill:#ffef00}.st335{fill:#6d6d6d}.st336{fill:url(#SVGID_68_)}.st337{fill:url(#XMLID_281_)}.st338{fill:#795d00}.st339{fill:#bb8024}.st339,.st340{clip-path:url(#SVGID_70_)}.st340{opacity:.1}.st341{fill:#955d00}.st342{fill:#f38836}.st343{fill:url(#XMLID_295_)}.st344{fill:url(#SVGID_71_)}.st345{fill:url(#SVGID_72_)}.st346{fill:url(#XMLID_296_)}.st347{opacity:.99}.st348{fill:#e8af38}.st349{fill:#98ab00}.st350{fill:#e75c52}.st351{fill:#a9897d}.st352{fill:#cb9d7b}.st353{fill:#996b63}.st354{fill:#35b8e8}.st355{opacity:.12;fill:url(#SVGID_73_)}.st356{opacity:.12;fill:url(#SVGID_74_)}.st357{opacity:.28;fill:url(#SVGID_77_)}.st358{clip-path:url(#SVGID_81_)}.st359{fill:#fff59c}.st360{fill:#ebdbce}.st361{fill:#b07a53}.st362{fill:#1185ba}.st363{fill:#1f57a1}.st363,.st364{opacity:.32}.st365{fill:#c28d65}.st366{fill:#eb776f}.st367{fill:#afdb39}.st368{fill:#ebdb57}.st369{opacity:.16}.st370{fill:#cba483}.st371{fill:url(#XMLID_297_)}.st372{fill:url(#SVGID_82_)}.st373{fill:url(#SVGID_83_)}.st374{fill:#bee6eb}.st375{fill:#f9df00}.st376{fill:#d84733}.st377{fill:#fce000}.st378{fill:#575757}.st379{fill:#b3b2b3}.st380{fill:#e5e5e4}.st381{fill:#d5302b}.st382{fill:url(#SVGID_84_)}.st383{fill:url(#SVGID_85_)}.st384{fill:#ec4180}.st385{fill:#fbcb54}.st386{fill:#7296f0}.st387{fill:#fc793d}.st388{opacity:.14}.st389{fill:#404144}.st390{fill:#606163}.st391{opacity:.3}.st392,.st393{fill:#d7b256}.st393{opacity:.38}.st394{fill:#3d3d39}.st395{fill:#393b36}.st396{opacity:.6;fill:#3bff65}.st397{opacity:.6;fill:#fc793d}.st398{clip-path:url(#SVGID_87_)}.st399{opacity:.29}.st400{fill:#9a51a8}.st401{fill:#fef6e0}.st402{fill:#a06ea9}.st403{fill:#353535}.st404{clip-path:url(#SVGID_89_)}.st405{opacity:.23;fill:#FFF}.st406{opacity:.13;fill:#FFF}.st407{opacity:5e-2}.st408{opacity:.45}.st409{opacity:.2}.st409,.st410{fill:#fff170}.st411{opacity:.21;fill:#FFF}.st412{opacity:.1;fill:#FFF}.st413{opacity:.27;fill:url(#SVGID_90_)}.st414{opacity:.27;fill:url(#SVGID_91_)}.st415{fill:url(#SVGID_92_)}.st416{fill:url(#SVGID_93_)}.st417{fill:#2850a8}.st418{fill:#286ee4}.st419{fill:#0053df}.st420{fill:#007dd0}.st421{fill:#2891e4}.st422{opacity:.72}.st423{opacity:.28;fill:url(#SVGID_94_)}.st424{opacity:.28;fill:url(#SVGID_95_)}.st425{fill:#2d6b7f}.st426,.st427{fill:#ff7c40}.st427{opacity:.21}.st428{opacity:.28;fill:url(#SVGID_96_)}.st429{opacity:.28;fill:url(#SVGID_97_)}.st430{opacity:.28;fill:url(#SVGID_98_)}.st431{opacity:.28;fill:url(#SVGID_99_)}.st432,.st433{fill:#ffee0a}.st433{opacity:.21}.st434{opacity:.28;fill:url(#SVGID_100_)}.st435{opacity:.28;fill:url(#SVGID_101_)}.st436,.st437{fill:#fd45ff}.st437{opacity:.21}.st438{opacity:.28;fill:url(#SVGID_102_)}.st439{opacity:.28;fill:url(#SVGID_103_)}.st440,.st441{fill:#52ff52}.st441{opacity:.21}.st442{opacity:.28;fill:url(#SVGID_104_)}.st443{opacity:.28;fill:url(#SVGID_105_)}.st444{opacity:.28;fill:url(#SVGID_106_)}.st445{opacity:.28;fill:url(#SVGID_107_)}.st446,.st447{fill:#59fff3}.st447{opacity:.21}.st448{opacity:.28;fill:url(#SVGID_108_)}.st449{opacity:.28;fill:url(#SVGID_109_)}.st450{opacity:.28;fill:url(#SVGID_110_)}.st451{opacity:.28;fill:url(#SVGID_111_)}.st452{opacity:.28;fill:url(#SVGID_112_)}.st453{opacity:.28;fill:url(#SVGID_113_)}.st454{opacity:.28;fill:url(#SVGID_114_)}.st455{opacity:.28;fill:url(#SVGID_115_)}.st456{opacity:.28;fill:url(#SVGID_116_)}.st457{opacity:.28;fill:url(#SVGID_117_)}.st458{opacity:.28;fill:url(#SVGID_118_)}.st459{opacity:.28;fill:url(#SVGID_119_)}.st460{opacity:.28;fill:url(#SVGID_120_)}.st461{opacity:.28;fill:url(#SVGID_121_)}.st462{opacity:.28;fill:url(#SVGID_122_)}.st463{opacity:.28;fill:url(#SVGID_123_)}.st464{opacity:.28;fill:url(#SVGID_124_)}.st465{opacity:.28;fill:url(#SVGID_125_)}.st466{opacity:.28;fill:url(#SVGID_126_)}.st467{opacity:.28;fill:url(#SVGID_127_)}.st468{opacity:.28;fill:url(#SVGID_128_)}.st469{opacity:.28;fill:url(#SVGID_129_)}.st470{opacity:.28;fill:url(#SVGID_130_)}.st471{opacity:.28;fill:url(#SVGID_131_)}.st472{opacity:.28;fill:url(#SVGID_132_)}.st473{opacity:.28;fill:url(#SVGID_133_)}.st474{opacity:.28;fill:url(#SVGID_134_)}.st475{opacity:.28;fill:url(#SVGID_135_)}.st476{opacity:.28;fill:url(#SVGID_136_)}.st477{opacity:.28;fill:url(#SVGID_137_)}.st478{opacity:.28;fill:url(#SVGID_138_)}.st479{opacity:.28;fill:url(#SVGID_139_)}.st480{opacity:.28;fill:url(#SVGID_140_)}.st481{opacity:.28;fill:url(#SVGID_141_)}.st482{opacity:.28;fill:url(#SVGID_142_)}.st483{opacity:.28;fill:url(#SVGID_143_)}.st484{opacity:.28;fill:url(#SVGID_144_)}.st485{opacity:.28;fill:url(#SVGID_145_)}.st486{opacity:.28;fill:url(#SVGID_146_)}.st487{opacity:.28;fill:url(#SVGID_147_)}.st488{opacity:.28;fill:url(#SVGID_148_)}.st489{opacity:.28;fill:url(#SVGID_149_)}.st490{opacity:.28;fill:url(#SVGID_150_)}.st491{opacity:.28;fill:url(#SVGID_151_)}.st492{opacity:.28;fill:url(#SVGID_152_)}.st493{opacity:.28;fill:url(#SVGID_153_)}.st494{opacity:.28;fill:url(#SVGID_154_)}.st495{opacity:.28;fill:url(#SVGID_155_)}.st496{opacity:.28;fill:url(#SVGID_156_)}.st497{opacity:.28;fill:url(#SVGID_157_)}.st498{opacity:.28;fill:url(#SVGID_158_)}.st499{opacity:.28;fill:url(#SVGID_159_)}.st500{opacity:.28;fill:url(#SVGID_160_)}.st501{opacity:.28;fill:url(#SVGID_161_)}.st502{opacity:.28;fill:url(#SVGID_162_)}.st503{opacity:.28;fill:url(#SVGID_163_)}.st504{opacity:.28;fill:url(#SVGID_164_)}.st505{opacity:.28;fill:url(#SVGID_165_)}.st506{opacity:.28;fill:url(#SVGID_166_)}.st507{opacity:.28;fill:url(#SVGID_167_)}.st508{opacity:.28;fill:url(#SVGID_168_)}.st509{opacity:.28;fill:url(#SVGID_169_)}.st510{opacity:.28;fill:url(#SVGID_170_)}.st511{opacity:.28;fill:url(#SVGID_171_)}.st512{opacity:.28;fill:url(#SVGID_172_)}.st513{opacity:.28;fill:url(#SVGID_173_)}.st514{fill:#898f90}.st515{opacity:.25;fill:#FFF}.st516{fill:#00b8f0}.st517{fill:#00a7f0}.st518{opacity:.91;fill:url(#SVGID_174_)}.st519{opacity:.12;fill:#ffee0a}.st520{opacity:.62}.st521{fill:url(#SVGID_175_)}.st522{fill:url(#SVGID_176_)}.st523{fill:url(#SVGID_177_)}.st524{fill:url(#SVGID_178_)}.st525{fill:#7d857e}.st526{fill:#89908a}.st527{opacity:.91;fill:url(#SVGID_179_)}.st528{opacity:.12}.st528,.st529{fill:#78ff5e}.st530{fill:url(#SVGID_180_)}.st531{fill:url(#SVGID_181_)}.st532{fill:url(#SVGID_182_)}.st533{fill:url(#SVGID_183_)}.st534{fill:#85847d}.st535{fill:#908f89}.st536{opacity:.91;fill:url(#SVGID_184_)}.st537{opacity:.12;fill:#ff5e91}.st538{fill:#ff8373}.st539{fill:url(#SVGID_185_)}.st540{fill:url(#SVGID_186_)}.st541{fill:url(#SVGID_187_)}.st542{fill:url(#SVGID_188_)}.st543{fill:#5d6667}.st544{fill:url(#XMLID_298_)}.st545{fill:url(#XMLID_299_)}.st546{fill:url(#SVGID_189_)}.st547{fill:#b13837}.st548{fill:#3b627a}.st549{fill:url(#SVGID_190_)}.st550{fill:url(#XMLID_312_)}.st551{fill:url(#SVGID_191_)}.st552{fill:#754517}.st553{fill:#845930}.st554{fill:#a35f25}.st555{fill:#aa6c37}.st556{fill:#b07644}.st557{fill:#efdbc1}.st558{fill:#ffc805}.st559{fill:#231f20}.st560{fill:#00a351}.st561{fill:#084}.st562{fill:#ef6522}.st563{fill:#7a4b1f}.st564{fill:#32cbe6}.st565{fill:url(#SVGID_192_)}.st566{opacity:.1;fill:#005fd0}.st567{fill:#c48e4f}.st568{fill:#f8aeae}.st569{fill:#e6e5e1}.st570{fill:#7b9eb8}.st571{fill:#a5b3ad}.st572{fill:#c7c7c7}.st573{fill:url(#XMLID_315_)}.st574{fill:url(#SVGID_193_)}.st575{fill:url(#SVGID_194_)}.st576{fill:#388e3c}.st577{fill:#2e7d32}.st578{fill:#ffe18c}.st579{opacity:.25;fill:#29b6f6}.st580{fill:#414042}.st581{fill:#2f4c52}.st582{fill:#455d82}.st583{fill:#795548}.st584{fill:#d3d4d6}.st585{fill:#bcbec0}.st586{clip-path:url(#SVGID_196_)}.st587{fill:url(#SVGID_197_)}.st588{fill:url(#SVGID_198_)}.st589{clip-path:url(#SVGID_200_)}.st590{opacity:.5;fill:#f9ce1d}.st591{opacity:.28}.st592{fill:#d7d8d9}.st593{fill:#ebeced}.st594{fill:#ffd600}.st595{fill:#039be5}.st596{fill:url(#XMLID_316_)}.st597{fill:url(#SVGID_201_)}.st598{fill:#34d4f0}.st599{fill:#74e4f6}.st599,.st600{opacity:.51}.st601{fill:#74e4f6}.st602{fill:url(#XMLID_329_)}.st603{fill:#434fbf}.st604{opacity:.51}.st604,.st605{fill:#7182f0}.st606{opacity:.38}.st607{opacity:.39;fill:#ffff5c}.st608{opacity:.58;fill:#FFF}.st609{opacity:.19;fill:#73c1de}.st610{opacity:.19;fill:#7335de}.st611{fill:#f5f2e2}.st612{fill:#a3a2a1}.st613{fill:#5a99d1}.st614{fill:#b8a485}.st615{fill:#eee5d5}.st616{fill:#FFC}.st617{fill:#ffd200}.st618{fill:#f26e21}.st619{fill:#f5871f}.st620{fill:#cfcfcf}.st621{fill:#019049}.st622{fill:#07a860}.st623{fill:#ab00ee}.st624{fill:#93d8f7}.st625{fill:#725d4c}.st626{fill:#028f1f}.st627{fill:#0da760}.st628{fill:#f4c138}.st629{fill:#f9646d}.st630{fill:url(#SVGID_202_)}.st631{clip-path:url(#SVGID_204_)}.st632{fill:#8de0f2}.st633{fill:url(#SVGID_205_)}.st634{fill:url(#XMLID_330_)}.st635{stroke:#d7d7d7;stroke-width:5.6}.st635,.st636{fill:none;stroke-miterlimit:10}.st636{stroke:#FFC;stroke-width:.7;stroke-dasharray:2.1,4.2}.st637{fill:#4cb5cf}.st638{fill:#638aaa}.st639{fill:url(#XMLID_331_)}.st640{fill:url(#XMLID_332_)}.st641{fill:url(#SVGID_206_)}.st642{fill:url(#XMLID_337_)}.st643{clip-path:url(#SVGID_208_)}.st644{fill:url(#SVGID_209_)}.st645{opacity:.51;clip-path:url(#SVGID_208_)}.st646{fill:url(#SVGID_210_)}.st647{fill:url(#SVGID_211_)}.st648{fill:url(#SVGID_212_)}.st649{fill:url(#XMLID_363_)}.st650{fill:url(#SVGID_213_)}.st651{fill:url(#XMLID_364_)}.st652{fill:#e0f3f5}.st653{opacity:.64;fill:#7ec1c4}.st654{fill:#c4dfe3}.st655,.st656{fill:#7ec1c4}.st656{opacity:.53}.st657{opacity:.82;fill:#7ec1c4}.st658{opacity:.3;fill:#7ec1c4}.st659{fill:#79a6ad}.st660{fill:#c5161d}.st661{fill:#e91c24}.st662{fill:#00a551}.st663{fill:#2c7c2f}.st664{fill:#aec7dc}.st665{fill:none;stroke:#97babf;stroke-width:1.9787;stroke-miterlimit:10}.st666{fill:#9dcb3b}.st667{fill:#d9ebed}.st668{fill:#008c45}.st669{fill:#ae5f2d}.st670{fill:#7a347e}.st671{fill:#754c28}.st672{fill:#0085b7}.st673{fill:#d89614}.st674{fill:#ecdec9}.st675{fill:#9c8954}.st676{opacity:8e-2}.st677{fill:#4e4e6b}.st678{fill:#859537}.st679{fill:#8a773f}.st680{fill:#cc29b9}.st681{fill:#6d42e3}.st682{fill:#16c447}.st683{fill:#c26d11}.st684{fill:url(#XMLID_404_)}.st685{clip-path:url(#SVGID_215_)}.st686{fill:#0081a8}.st687{clip-path:url(#SVGID_215_);fill:#c7b31e}.st688{fill:#b5b5b5}.st689{fill:#e8e8e8}.st690{fill:#0791aa}.st691{fill:#c7b31e}.st692{fill:#9d9d9d}.st693{fill:#f7f01f}.st694{fill:#7dc6d3}.st695{fill:#4db0c2}.st696{fill:#00be69}.st697{fill:#f57f17}.st698{fill:#e77969}.st699{fill:#f7e2a5}.st700{fill:#f4d784}.st701{fill:#54c391}.st702{fill:#008e5c}.st703{fill:#076e2f}.st704{clip-path:url(#SVGID_215_);fill:#FFF}.st705{fill:#f5f129}.st705,.st706{clip-path:url(#SVGID_215_)}.st706{opacity:.1}.st707{fill:url(#SVGID_216_)}.st708{fill:#9dcfd8}.st709{fill:#b1e1e7}.st710{fill:#73bcdd}.st711{fill:#7ba8cd}.st712{fill:#7299ba}.st713{fill:#5b93c1}.st714{fill:#d2e3e6}.st715{fill:#48494d}.st716{fill:#16bdcc}.st717{fill:#d63e3e}.st718{fill:url(#SVGID_217_)}.st719{fill:url(#SVGID_218_)}.st720{fill:url(#SVGID_219_)}.st721{fill:#dcdfd8}.st722{opacity:.7}.st723{fill:#ef5350}.st724{fill:#70cc47}.st725{fill:#8bd463}.st726{fill:url(#SVGID_220_)}.st727{fill:#e24c41}.st728{fill:#eb6760}.st729{fill:#2db9eb}.st730{fill:#ffdf00}.st731{fill:#373b40}.st732{fill:#fffbdb}.st733{fill:#d7e1e3}.st734{opacity:.2;fill:#373b40}.st735{fill:#c6e9fa}.st736{fill:#20242a}.st737{fill:#332e2e}.st738{fill:#fdbe0c}.st739{fill:#f7fffa}.st740{fill:#9e978a}.st741{fill:#b4afa5}.st742{fill:#e68ecd}.st743{fill:#98d4bc}.st744{fill:#88a2d6}.st745{fill:#e36868}.st746{fill:#f8ae37}.st747{fill:#b99960}.st748{fill:#d4af6e}.st749{opacity:.12}.st750{fill:#f0b21c}.st751{fill:#b46d3d}.st752{fill:#caa56e}.st753{fill:#a8844f}.st754{fill:#59595c}.st755{fill:#b56d3d}.st756{opacity:.19;fill:#fcd09a}.st757{fill:#85e1e7}.st758{fill:#e7f3f2}.st759{opacity:.19}.st760{opacity:.6;fill:url(#SVGID_221_)}.st761{fill:#48aacf}.st762{opacity:.6;fill:#3e31ff}.st763{opacity:.6;fill:#1b4df9}.st764{opacity:.6;fill:#85e1e7}.st765{fill:#62accd}.st766{fill:#81ffff}.st767{opacity:.6;fill:#FFF}.st768{opacity:.6;fill:#73bcdd}.st769{fill:#2e93c1}.st770{opacity:.6;fill:#1e9ae3}.st771{opacity:.6;fill:#48aacf}.st772{opacity:.15;fill:#81ffff}.st773{opacity:.6;fill:#2e93c1}.st774{opacity:.67;fill:#62accd}.st775{opacity:.67;fill:#9dcfd8}.st776{opacity:.28;fill:#81ffff}.st777{fill:#8aafb5}.st778{opacity:.99;fill:#91f3fa}.st779{fill:#1fc2f5}.st780{opacity:.99;fill:#62accd}.st781{opacity:.99;fill:#a9dee8}.st782{opacity:.36;fill:url(#SVGID_222_)}.st783{fill:url(#SVGID_223_)}.st784{opacity:.6;fill:#62accd}.st785{fill:url(#SVGID_224_)}.st786{fill:url(#SVGID_225_)}.st787{fill:url(#SVGID_226_)}.st788{fill:#caf5f6}.st789{fill:#00c1f2}.st790{fill:#ff931e}.st791{fill:#d94636}.st792{fill:#d43e2e}.st793{fill:#fdce48}.st794{fill:#464647}.st795{fill:#d33e2f}.st796{fill:#ff8a33}.st797{fill:#746458}.st798{fill:#57aba9}.st799{fill:#6cccc9}.st800{fill:#a7c1c5}.st801{fill:#b6e2f8}.st802{fill:#61aac9}.st803{fill:#e1f3fc}.st804{fill:#fff58b}.st805{fill:#b59a48}.st806{fill:#eed257}.st807{fill:#d9d286}.st808{fill:#ff916d}.st809{fill:#ffe327}.st810{fill:#64e8be}.st811{opacity:.2;fill:#333}.st812{opacity:.22;fill:#333}.st813{fill:url(#XMLID_406_)}.st814{fill:url(#XMLID_407_)}.st815{fill:url(#XMLID_408_)}.st816{fill:url(#SVGID_227_)}.st817{fill:url(#XMLID_422_)}.st818{fill:url(#XMLID_423_)}.st819{fill:url(#SVGID_228_)}.st820{fill:url(#SVGID_229_)}.st821{opacity:.55;fill:#d8fbff}.st822{opacity:.5;fill:url(#SVGID_230_)}.st823{fill:#29b65e}.st824{fill:#009047}.st825{fill:#91651c}.st826{fill:#bd822b}.st827{fill:#d5b06e}.st828{fill:#007dc5}.st829{fill:#a66d40}.st830{fill:#ff8c33}.st831{fill:#a67108}.st832{fill:#f1b31c}.st833{fill:#b88a13}.st834{fill:#b93a2c}.st835{fill:#c36e2c}.st836{fill:#a8362a}.st837{fill:#34875d}.st838{fill:#602c63}.st839{fill:#0086b7}.st840{fill:#cdb300}.st841{fill:#26a89b}.st842{fill:#da4637}.st843{fill:#48b980}.st844{fill:#f58b37}.st845{fill:#00abe9}.st846{fill:#4859b9}.st847{fill:#e86e1c}.st848{fill:#c8541f}.st849{fill:#b9191e}.st850{opacity:.19;fill:#212121}.st851{opacity:.3;fill:#28b04b}.st852{fill:#f9858e}.st853{fill:#5f14a6}.st854{fill:#8c28de}.st855{fill:#a2a5a3}.st856{fill:#ab3125}.st857{clip-path:url(#SVGID_232_)}.st858{fill:#00914a}.st859{opacity:.39;fill:#791f11}.st860{fill:#b6e5cd}.st861{fill:#e9d386}.st862{fill:#413d3d}.st863{fill:#666262}.st864{fill:#85d4ac}.st865{opacity:.1;fill:#b6e5cd}.st866{fill:#f5951f}.st867{fill:#00369c}.st868{fill:#2759d9}.st869{fill:#2297cc}.st870{fill:#764c2e}.st871{fill:#d4af19}.st872{fill:#62a807}.st873{fill:#008e1f}.st874{opacity:.37;fill:#FFF}.st875{fill:#bbe5fa}.st876{fill:#7a5951}.st877,.st878{fill:#212121}.st878{clip-path:url(#XMLID_424_)}.st879{fill:#cc372c}.st880{fill:#ebad11}.st881{fill:#e33483}.st882{fill:#3788de}</style><g id="New_Symbol_110"><circle class="st41" cx="62.9" cy="75.8" r="1.2"/><path class="st34" d="M63.3 81.1l-3.9-.3-.1 1.6 3.9.4"/><path class="st68" d="M65.3 82.5c.1-1.1-.4-1.3-1-1.3l-2.4-.2-.1 1.6 2.6.2.9-.3z"/><path class="st42" d="M59.6 82.6l.2-1.9c-1.2-.7-1-2.4-.1-2.5 0 0-1.6-1-1.7 2.9-.1.9.7 1.7 1.6 1.5z"/><path class="st872" d="M65.4 76.1h-2.1l-1.4-5.8h2.2z"/><path class="st873" d="M63.2 76.1l-4.8.1-1.3-5.8 4.7-.1z"/><path class="st872" d="M62.9 76.2h.6s.1 0 0-.1l-1.3-5.8s0-.1-.1-.1h-.6s-.1 0 0 .1l1.4 5.9c0-.1 0 0 0 0z"/><path class="st699" d="M63.2 76c-1.1-.4-2.2-.5-3.2-.4-.4-2-.9-3.9-1.3-5.9 1 0 2.1.2 3.2.6.5 1.9.9 3.8 1.3 5.7z"/><path class="st700" d="M63.2 76c-1.2-.4-2.4-.6-3.4-.4-.4-1.9-.9-3.8-1.3-5.8 1.1-.1 2.2 0 3.4.5.5 1.9.9 3.8 1.3 5.7z"/><path class="st699" d="M63.2 76c-1.3-.4-2.5-.6-3.6-.4-.4-1.9-.9-3.8-1.3-5.7 1.1-.2 2.4 0 3.6.4.5 1.9.9 3.8 1.3 5.7z"/><path class="st700" d="M63.2 76c-1.4-.5-2.7-.6-4-.4-.4-1.9-.8-3.7-1.3-5.6 1.2-.2 2.6-.1 3.9.3.6 1.9 1 3.8 1.4 5.7z"/><path class="st699" d="M63.2 76c.5-.3 1-.4 1.6-.4-.4-1.9-.8-3.7-1.3-5.6-.6-.1-1.1 0-1.6.2.5 2 .9 3.9 1.3 5.8z"/><path class="st700" d="M63.2 76c.5-.3 1.1-.4 1.7-.4-.4-1.9-.8-3.7-1.3-5.6-.6-.1-1.2 0-1.7.2.5 2 .9 3.9 1.3 5.8z"/><path class="st699" d="M63.2 76c.6-.3 1.2-.4 1.8-.4-.4-1.8-.8-3.7-1.3-5.5-.6-.1-1.3 0-1.8.2.5 1.9.9 3.8 1.3 5.7z"/><path class="st700" d="M63.2 76c.6-.3 1.3-.4 1.9-.4-.4-1.8-.8-3.6-1.2-5.5-.7-.1-1.4-.1-2 .1.5 2 .9 3.9 1.3 5.8z"/><path class="st874" d="M63.2 76c-1.4-.5-2.7-.6-4-.4-.4-1.9-.8-3.7-1.3-5.6 1.2-.2 2.6-.1 3.9.3.6 1.9 1 3.8 1.4 5.7z"/><path class="st68" d="M61.6 79.8c0 1.7 1.4 3.1 3.1 3.1 1.7 0 3.1-1.4 3.1-3.1v-4.3c0-1.7-1.4-3.1-3.1-3.1-1.7 0-3.1 1.4-3.1 3.1v4.3z"/><path class="st42" d="M61.6 78.2h6.3v1.6h-6.3z"/><path class="st65" d="M61.4 78.1h.4v1.8h-.4z"/><circle class="st41" cx="58.9" cy="74.8" r="1.2"/><g><path class="st41" d="M64.9 69l-2.6-1.6c-.2-.2-.6.1-.3.4l2.3 2.6.6-1.4z"/><path class="st68" d="M64.7 64.9s6.2-.4 8.7.1c0 0-3.7 1.5-3.7 3.6l-5-3.7z"/><path class="st41" d="M63.2 67.4c-1.1 1.4-.9 3.3.5 4.4 1.4 1.1 3.3.9 4.4-.5 1.1-1.4.9-3.3-.5-4.4-1.4-1.1-3.4-.8-4.4.5z"/><path class="st683" d="M66.2 66.3c.5.1.9.3 1.4.6 1.4 1.1 1.6 3 .5 4.4-.5.6-1.1 1-1.8 1.1-3-.1-3.5-6.5-.1-6.1z"/><path class="st683" d="M61.9 72.5c.6.1 1.2 0 1.7-.3s.9-.8 1.1-1.3c-.6-.1-1.2 0-1.7.3s-.9.8-1.1 1.3zM69.2 73.7c-.5-.2-1-.6-1.3-1.1-.3-.5-.4-1.1-.3-1.7.5.2 1 .6 1.3 1.1.3.5.4 1.1.3 1.7z"/><path class="st41" d="M63.5 69l1.3-1.2s.4 3.5-1.1 2.1l-.2-.9z"/><path class="st34" d="M64.2 65.4c-.1.2-.1.4.1.6l4.9 3.9c.2.1.4.1.6-.1l.5-.6c.1-.2.1-.4-.1-.6l-4.9-3.9c-.2-.1-.4-.1-.6.1l-.5.6z"/><circle class="st34" cx="74.1" cy="65" r=".7"/></g><g><path class="st68" d="M60.8 78.1h-.3c-1.6-.2-2.3-2.2-2.3-2.4l1.9-.6c.1.4.5 1 .7 1 0 0 .6.1 1.8-1.9l1.7 1.1c-1.2 1.9-2.3 2.8-3.5 2.8z"/></g><g><path class="st875" d="M40.6 49.1c-1.4-1.9-2.1-4.5-2.9-6.9-.9-2.6-2.2-4.2-2.4-7v-.5c.1-12.8 9.3-11.7 9.3-11.7 0 4.9 8.1 19.8 10.7 20 .2 3.2.2 6.4.2 9.6-3.4.7-6.8.5-10.1-.4-1.4-.4-2.8-1-4-2.1-.3-.4-.5-.7-.8-1z"/><path class="st789" d="M50.5 16c-.5 0-.8-.4-.8-.8V9.5c0-.5-.4-.8-.8-.8h-4.5c-1.4 0-2.5-1.1-2.5-2.5V3.5c0-.5-.4-.8-.8-.8h-3c-.5 0-.8-.4-.8-.8-.2-.6.2-.9.7-.9h3c1.4 0 2.5 1.1 2.5 2.5v2.7c0 .5.4.8.8.8h4.5c1.4 0 2.5 1.1 2.5 2.5v5.6c0 .5-.3.9-.8.9z"/><path class="st789" d="M43.7 12.6h-2.5c-1.4 0-2.5-1.1-2.5-2.5V7.9c0-.5.4-.8.8-.8.5 0 .8.4.8.8V10c0 .5.4.8.8.8h2.5c.5 0 .8-.4.8-.8V8.3c0-.5.4-.8.8-.8.5 0 .8.4.8.8V10c.2 1.5-.9 2.6-2.3 2.6zM47 5.1h-4.2c-.5 0-.8-.4-.8-.8 0-.5.4-.8.8-.8H47c.5 0 .8-.4.8-.8V.8c0-.5.4-.8.8-.8.5 0 .8.4.8.8v1.7c.2 1.5-1 2.6-2.4 2.6zM78.9 6h-4.2c-1.4 0-2.5-1.1-2.5-2.5V1.7c0-.5.4-.8.8-.8.5 0 .8.4.8.8v1.7c0 .5.4.8.8.8h4.2c.5 0 .8.4.8.8.2.6-.2 1-.7 1z"/><path class="st789" d="M71.9 16.9c-.5 0-.8-.4-.8-.8v-5.6c0-1.4 1.1-2.5 2.5-2.5H78c.5 0 .8-.4.8-.8V4.4c0-1.4 1.1-2.5 2.5-2.5h3c.5 0 .8.4.8.8 0 .5-.4.8-.8.8h-3c-.5 0-.8.4-.8.8V7c0 1.4-1.1 2.5-2.5 2.5h-4.5c-.5 0-.8.4-.8.8V16c0 .5-.4.9-.8.9z"/><path class="st789" d="M81.2 13.5h-2.5c-1.4 0-2.5-1.1-2.5-2.5V9.2c0-.5.4-.8.8-.8.5 0 .8.4.8.8V11c0 .5.4.8.8.8h2.5c.5 0 .8-.4.8-.8V8.8c0-.5.4-.8.8-.8.5 0 .8.4.8.8V11c.2 1.4-.9 2.5-2.3 2.5z"/><path class="st875" d="M57.8 57.7l-12.9 2.8s-.8-4.6-4.2-3.9l2 9.4 16.6-3.6"/><path class="st34" d="M67.2 63.5l-2.8.9c-2.1.7-4.3.7-6.4 0l-2.8-.9c-3.6-1.2-6.4-4.2-7.2-7.9l-6.4-30.1c-1-4.6 1.2-9.4 5.4-11.6 1.5-.8 3.3-1.3 5-1.3h18.6c1.7 0 3.5.4 5 1.3 4.2 2.2 6.4 7 5.4 11.6l-6.4 30.1c-1 3.8-3.7 6.8-7.4 7.9z"/><path class="st875" d="M60.2 63.5c-3.6-1.2-6.4-4.2-7.2-7.9l-6.4-30.1c-1-4.6 1.2-9.1 5.4-11.3 1.5-.8 3.3-1 5-1h-5c-1.7 0-3.5.1-5 1-4.2 2.2-6.4 6.8-5.4 11.5l6.4 30c.8 3.7 3.6 6.7 7.2 7.9l2.8.9c1.9.6 3.8.6 5.7.2-.2-.1-.5-.1-.7-.2l-2.8-1z"/><path class="st699" d="M49.6 55.2c2.4-.9 5-1.3 7.4-1.1V39.9c-2.4-.1-5 .4-7.4 1.5v13.8z"/><path class="st700" d="M49.6 55.2c2.6-1 5.4-1.3 8-1.1V40.2c-2.6-.3-5.4.1-8 1.1v13.9z"/><path class="st699" d="M49.6 55.2c2.8-1 5.7-1.4 8.5-1.1V40.4c-2.8-.4-5.7-.1-8.5.9v13.9z"/><path class="st700" d="M49.6 55.2c3.1-1.1 6.3-1.4 9.3-1.1V40.7c-3.1-.5-6.3-.3-9.3.6v13.9z"/><path class="st699" d="M49.6 55.2c-1.3-.6-2.6-.9-3.9-.9V40.9c1.3-.1 2.6 0 3.9.5v13.8z"/><path class="st700" d="M49.6 55.2c-1.4-.6-2.8-1-4.2-.9V40.9c1.4-.2 2.8 0 4.2.5v13.8z"/><path class="st699" d="M49.6 55.2c-1.5-.7-3-1-4.5-.9V41c1.5-.2 3-.1 4.5.4v13.8z"/><path class="st700" d="M49.6 55.2c-1.6-.7-3.3-1-4.9-.9V41.2c1.6-.3 3.3-.2 4.9.2v13.8z"/><path class="st872" d="M44.4 41.4h5.1v14h-5.1z"/><path class="st873" d="M49.8 41.4h9.8v14h-9.8z"/><path class="st872" d="M50.4 55.6H49c-.1 0-.1-.1-.1-.1v-14c0-.1.1-.1.1-.1h1.5c.1 0 .1.1.1.1v14s-.1.1-.2.1z"/><path class="st789" d="M59.8 46.3l-1.3 2.8 1.3 2.1-1.3 2.1h2.4v-10h-2.4z"/><path class="st34" d="M81.7 49.1c1.8-1.9 2.8-4.5 3.9-6.9 1.3-2.6 2.9-4.2 3.3-7v-.5C88.7 21.9 76.3 23 76.3 23c0 4.9.3 9.8.4 14.7 0 .9 0 1.8-.4 2.6-.8 1.4-2.5 1.7-4.1 1.9-3.4.4-6.9.7-10.4.9-.2 3.2-.3 6.4-.3 9.6 4.5.7 9.2.5 13.7-.4 1.9-.4 3.8-1 5.4-2.1l1.1-1.1z"/><path class="st789" d="M44.7 46.3l1.2 2.8-1.2 2.1 1.2 2.1h-2v-10h2z"/><path class="st34" d="M68.9 15.6c-.6.8-1.5 1.3-2.5 1.3H54.8c-1 0-1.9-.5-2.5-1.3-1.1-1.6.1-3.6 1.2-4.6s7.3-2.5 6.1-6.8l9.2 6.5c1.3 1 1.5 2.9.6 4.2l-.5.7z"/><g><circle class="st789" cx="53.9" cy="19.9" r="1.7"/><circle class="st789" cx="61.5" cy="19.9" r="1.7"/><path class="st42" d="M52.3 27c0 2.3 2.4 4.2 5.3 4.2s5.3-1.9 5.3-4.2H52.3z"/><path class="st34" d="M55.7 29c-.7 0-1.3-.6-1.3-1.3v-1.3h2.5v1.3c0 .7-.6 1.3-1.2 1.3zM60.2 29c-.7 0-1.3-.6-1.3-1.3v-1.3h2.5v1.3c.1.7-.5 1.3-1.2 1.3z"/><g><path class="st789" d="M55.2 22.7c-1.5 0-3.5 1.7-3.5 1.7-.8.6-1.9.5-2.7 0l-.9-.7.4 2.4c.1.7.5 1.3 1.2 1.7l.3.1c.6.3 1.4.4 2 .2l1.5-.6c.5-.2 1-.2 1.5-.1l.7.2c1.5.4 3-.7 3-2.3-.1-.8-1.1-2.6-3.5-2.6z"/><path class="st789" d="M60.3 22.7c1.5 0 3.5 1.7 3.5 1.7.8.6 1.9.5 2.7 0l.9-.7-.4 2.4c-.1.7-.5 1.3-1.2 1.7l-.3.1c-.6.3-1.4.4-2 .2l-1.5-.6c-.5-.2-1-.2-1.5-.1l-.7.2c-1.5.4-3-.7-3-2.3.1-.8 1.1-2.6 3.5-2.6z"/></g></g><path class="st34" d="M66.8 58.5l-12.5 4.3s-1.3-4.5-4.7-3.4l3.1 9.1L68.8 63"/></g><g><circle class="st876" cx="20.5" cy="35.3" r="1.3"/><circle class="st876" cx="13.5" cy="35" r="1.3"/><path class="st876" d="M20.1 59v6.6s2.3-.1 2.3 1.7h-4.8v-8.5"/><path class="st876" d="M15.1 62.9c1.1.3 2.3.3 3.5 0 2.5-.7 4.3-2.9 4.6-5.4l1.1-10.7c.1-.6 0-1.2-.1-1.8l-1-5.4c-.3-1.8-1.5-3.4-3.1-4.4l-.1-.1c-1.9-1.1-4.3-1.1-6.3 0l-.1.1c-1.6.9-2.8 2.5-3.1 4.4l-1 5.4c-.1.6-.1 1.2-.1 1.8l1.1 10.7c.3 2.6 2.1 4.7 4.6 5.4z"/><path class="st140 st877" d="M9.5 44.8l1-5.4c.3-1.8 1.5-3.4 3.1-4.4l.1-.1c.4-.2.7-.4 1.1-.5-1.4 1-2.4 2.4-2.7 4.1l-1 5.4c-.1.6-.1 1.2-.1 1.8l1.1 10.7c.3 2.6 2.1 4.7 4.6 5.4 1.1.3 2.3.3 3.5 0 .1 0 .2 0 .2-.1-.6.4-1.2.7-1.9.9-1.1.3-2.3.3-3.5 0-2.5-.7-4.3-2.9-4.6-5.4l-1-10.6c-.1-.6 0-1.2.1-1.8z"/><circle class="st877" cx="20" cy="38" r=".5"/><circle class="st877" cx="16.8" cy="38" r=".5"/><defs><path id="XMLID_25_" d="M18.4 43.7c1 0 1.7-.7 1.7-1.6v-1.7c0-.9-.7-1.6-1.6-1.6h-.1c-.9 0-1.6.7-1.6 1.6v1.7c0 .9.7 1.6 1.6 1.6z"/></defs><use xlink:href="#XMLID_25_" overflow="visible" fill="#a66d40"/><clipPath id="XMLID_158_"><use xlink:href="#XMLID_25_" overflow="visible"/></clipPath><path d="M18.4 39.9c1 0 1.7-.7 1.7-1.6v-1.7c0-.9-.7-1.6-1.6-1.6h-.1c-.9 0-1.6.7-1.6 1.6v1.7c0 .8.7 1.6 1.6 1.6z" clip-path="url(#XMLID_158_)" fill="#212121"/><path class="st877" d="M17.1 42.1c0 .7.5 1.2 1.2 1.2h.2c.7 0 1.2-.5 1.2-1.2h-2.6z"/><g><defs><path id="XMLID_7_" d="M17.1 42.1c0 .7.5 1.2 1.2 1.2h.2c.7 0 1.2-.5 1.2-1.2h-2.6z"/></defs><clipPath id="XMLID_160_"><use xlink:href="#XMLID_7_" overflow="visible"/></clipPath></g><path class="st876" d="M16.7 59v6.6s2.3-.1 2.3 1.7h-4.8v-8.5M25.1 52.5L27 52l3.4-1-.2.6.5.5-.2.5.5.3-3.5 1-1.4.4-2 .6-1.3.4-.6-2.2-1.1-3.6 2.9-.8z"/><g><path class="st34" d="M19.1 46.2h3.2v11h-3.2z"/><path class="st879" d="M19.1 54v1.4l3.2 1.4v-1.4zM19.1 50.8v1.5l3.2 1.3v-1.4zM19.1 47.7v1.4l3.2 1.4v-1.4z"/><path class="st34" d="M9.1 44.6h16v3.2h-16z"/><g><path class="st879" d="M21.9 47.8h1.4l1.4-3.2h-1.4zM18.8 47.8h1.4l1.4-3.2h-1.5zM15.6 47.8H17l1.4-3.2H17zM12.5 47.8h1.4l1.4-3.2h-1.4zM9.3 47.8h1.5l1.3-3.2h-1.4z"/></g></g><g><path class="st699" d="M25.2 58.6c-1.8-.7-3.7-1-5.6-.8V47.4c1.8-.1 3.7.3 5.6 1.1v10.1z"/><path class="st700" d="M25.2 58.6c-2-.7-4-1-6-.8V47.6c2-.2 4 .1 6 .8v10.2z"/><path class="st699" d="M25.2 58.6c-2.1-.8-4.3-1-6.4-.8v-10c2.1-.3 4.3 0 6.4.7v10.1z"/><path class="st700" d="M25.2 58.6c-2.3-.8-4.7-1.1-7-.8V48c2.3-.4 4.7-.2 7 .5v10.1z"/><path class="st699" d="M25.2 58.6c1-.5 2-.7 3-.7v-9.8c-1-.1-2 0-3 .4v10.1z"/><path class="st700" d="M25.2 58.6c1-.5 2.1-.7 3.2-.7v-9.8c-1-.1-2.1 0-3.2.4v10.1z"/><path class="st699" d="M25.2 58.6c1.1-.5 2.3-.7 3.4-.7v-9.8c-1.1-.2-2.3-.1-3.4.3v10.2z"/><path class="st700" d="M25.2 58.6c1.2-.5 2.5-.7 3.7-.7v-9.6c-1.2-.2-2.5-.2-3.7.2v10.1z"/><path class="st873" d="M25.3 48.5h3.9v10.3h-3.9z"/><path class="st872" d="M17.7 48.5h7.4v10.3h-7.4z"/><path class="st876" d="M14.1 53.5L16 53l3.4-1-.2.6.5.5-.2.5.4.3-3.4 1-1.5.4-2 .6-1.3.4-.6-2.2-.6-2.1c-.2-.8.2-1.6 1-1.9.8-.2 1.6.2 1.9 1l.7 2.4z"/><path class="st872" d="M24.6 58.9h1.1c.1 0 .1 0 .1-.1V48.6c0-.1 0-.1-.1-.1h-1.1c-.1 0-.1 0-.1.1v10.2c0 .1.1.1.1.1z"/></g></g><g><circle class="st41" cx="24.6" cy="75.8" r="1.2"/><path class="st34" d="M24.2 81.1l3.9-.3.1 1.6-3.8.4"/><path class="st40" d="M22.3 82.5c-.1-1.1.4-1.3 1-1.3l2.3-.2.1 1.6-2.6.2-.8-.3z"/><path class="st42" d="M27.9 82.6l-.2-1.9c1.2-.7 1-2.4.1-2.5 0 0 1.6-1 1.7 2.9.1.9-.7 1.7-1.6 1.5z"/><path class="st872" d="M22.1 76.1h2.2l1.3-5.8h-2.1z"/><path class="st873" d="M24.4 76.1l4.7.1 1.4-5.8-4.8-.1z"/><path class="st872" d="M24.6 76.2H24s-.1 0 0-.1l1.3-5.8s0-.1.1-.1h.6s.1 0 0 .1l-1.4 5.9c.1-.1 0 0 0 0z"/><path class="st699" d="M24.3 76c1.1-.4 2.2-.5 3.2-.4.4-2 .9-3.9 1.3-5.9-1 0-2.1.2-3.2.6-.4 1.9-.9 3.8-1.3 5.7z"/><path class="st700" d="M24.3 76c1.2-.4 2.4-.6 3.4-.4.4-1.9.9-3.8 1.3-5.8-1.1-.1-2.2 0-3.4.5-.4 1.9-.9 3.8-1.3 5.7z"/><path class="st699" d="M24.3 76c1.3-.4 2.5-.6 3.6-.4.4-1.9.9-3.8 1.3-5.7-1.1-.2-2.4 0-3.6.4-.4 1.9-.9 3.8-1.3 5.7z"/><path class="st700" d="M24.3 76c1.4-.5 2.7-.6 4-.4.4-1.9.8-3.7 1.3-5.6-1.2-.2-2.6-.1-3.9.3-.5 1.9-1 3.8-1.4 5.7z"/><path class="st699" d="M24.3 76c-.5-.3-1-.4-1.6-.4.4-1.9.8-3.7 1.3-5.6.6-.1 1.1 0 1.6.2-.4 2-.9 3.9-1.3 5.8z"/><path class="st700" d="M24.3 76c-.5-.3-1.1-.4-1.7-.4.4-1.9.8-3.7 1.3-5.6.6-.1 1.2 0 1.7.2-.4 2-.9 3.9-1.3 5.8z"/><path class="st699" d="M24.3 76c-.6-.3-1.2-.4-1.8-.4.4-1.8.8-3.7 1.3-5.5.6-.1 1.3 0 1.8.2-.4 1.9-.9 3.8-1.3 5.7z"/><path class="st700" d="M24.3 76c-.6-.3-1.3-.4-1.9-.4.4-1.8.8-3.6 1.2-5.5.7-.1 1.4-.1 2 .1-.4 2-.9 3.9-1.3 5.8z"/><path class="st5" d="M24.3 76c1.4-.5 2.7-.6 4-.4.4-1.9.8-3.7 1.3-5.6-1.2-.2-2.6-.1-3.9.3-.5 1.9-1 3.8-1.4 5.7z"/><path class="st40" d="M25.9 79.8c0 1.7-1.4 3.1-3.1 3.1-1.7 0-3.1-1.4-3.1-3.1v-4.3c0-1.7 1.4-3.1 3.1-3.1 1.7 0 3.1 1.4 3.1 3.1v4.3z"/><path class="st42" d="M19.7 78.2H26v1.6h-6.3z"/><path class="st65" d="M25.7 78.1h.4v1.8h-.4z"/><circle class="st41" cx="28.6" cy="74.8" r="1.2"/><g><path class="st41" d="M22.6 69l2.6-1.6c.2-.2.6.1.3.4l-2.3 2.6-.6-1.4z"/><path class="st40" d="M22.8 64.9s-6.2-.4-8.7.1c0 0 3.7 1.5 3.7 3.6l5-3.7z"/><path class="st41" d="M24.4 67.4c1.1 1.4.9 3.3-.5 4.4-1.4 1.1-3.3.9-4.4-.5-1.1-1.3-.9-3.3.5-4.4 1.3-1.1 3.3-.8 4.4.5z"/><path class="st231" d="M21.3 66.3c-.5.1-.9.3-1.4.6-1.4 1.1-1.6 3-.5 4.4.5.6 1.1 1 1.8 1.1 3-.1 3.6-6.5.1-6.1z"/><path class="st231" d="M25.6 72.5c-.6.1-1.2 0-1.7-.3s-.9-.8-1.1-1.3c.6-.1 1.2 0 1.7.3s.9.8 1.1 1.3zM18.4 73.7c.5-.2 1-.6 1.3-1.1.3-.5.4-1.1.3-1.7-.5.2-1 .6-1.3 1.1-.4.5-.4 1.1-.3 1.7z"/><path class="st41" d="M24 69l-1.3-1.2s-.4 3.5 1.1 2.1l.2-.9z"/><path class="st34" d="M23.3 65.4c.1.2.1.4-.1.6l-4.9 3.9c-.1.1-.3.1-.5-.1l-.5-.6c-.1-.2-.1-.4.1-.6l4.9-3.9c.2-.1.4-.1.6.1l.4.6z"/><circle class="st34" cx="13.4" cy="65" r=".7"/></g><g><path class="st40" d="M26.7 78.1c-1.2 0-2.3-.9-3.5-2.8l1.7-1.1c1.2 1.9 1.8 1.9 1.8 1.9.2 0 .6-.6.7-1l1.9.6c-.1.2-.7 2.2-2.3 2.4h-.3z"/></g></g><g><circle class="st41" cx="46.9" cy="79.4" r="1.2"/><path class="st34" d="M46.6 84.7l3.8-.4.2 1.7-3.9.3"/><path class="st37" d="M44.6 86.1c-.1-1.1.4-1.3 1-1.3l2.3-.2.1 1.6-2.6.2-.8-.3z"/><path class="st42" d="M50.3 86.1l-.2-1.9c1.2-.7 1-2.4.1-2.5 0 0 1.6-1 1.7 2.9.1 1-.7 1.8-1.6 1.5z"/><path class="st872" d="M44.4 79.6h2.2l1.3-5.8h-2.1z"/><path class="st873" d="M46.7 79.6l4.8.1 1.3-5.8-4.8-.1z"/><path class="st872" d="M46.9 79.7h-.6s-.1 0 0-.1l1.3-5.8s0-.1.1-.1h.6s.1 0 0 .1l-1.4 5.9c.1 0 .1 0 0 0z"/><path class="st699" d="M46.6 79.5c1.1-.4 2.2-.5 3.2-.4.4-2 .9-3.9 1.3-5.9-1 0-2.1.2-3.2.6-.4 1.9-.8 3.8-1.3 5.7z"/><path class="st700" d="M46.6 79.5c1.2-.4 2.4-.6 3.4-.4.4-1.9.9-3.8 1.3-5.8-1.1-.1-2.2 0-3.4.5-.4 1.9-.8 3.8-1.3 5.7z"/><path class="st699" d="M46.6 79.5c1.3-.4 2.5-.6 3.6-.4.4-1.9.9-3.8 1.3-5.7-1.1-.2-2.4 0-3.6.4-.4 1.9-.8 3.8-1.3 5.7z"/><path class="st700" d="M46.6 79.5c1.4-.5 2.7-.6 4-.4.4-1.9.8-3.7 1.3-5.6-1.2-.2-2.6-.1-3.9.3-.5 1.9-.9 3.8-1.4 5.7z"/><path class="st699" d="M46.6 79.5c-.5-.3-1-.4-1.6-.4.4-1.9.8-3.7 1.3-5.6.6-.1 1.1 0 1.6.2-.4 2-.8 3.9-1.3 5.8z"/><path class="st700" d="M46.6 79.5c-.5-.3-1.1-.4-1.7-.4.4-1.9.8-3.7 1.3-5.6.6-.1 1.2 0 1.7.2-.4 2-.8 3.9-1.3 5.8z"/><path class="st699" d="M46.6 79.5c-.6-.3-1.2-.4-1.8-.4.4-1.8.8-3.7 1.3-5.5.6-.1 1.3 0 1.8.2-.4 1.9-.8 3.8-1.3 5.7z"/><path class="st700" d="M46.6 79.5c-.6-.3-1.3-.4-1.9-.4.4-1.8.8-3.6 1.2-5.5.7-.1 1.4-.1 2 .1-.4 2-.8 3.9-1.3 5.8z"/><path class="st5" d="M46.6 79.5c1.4-.5 2.7-.6 4-.4.4-1.9.8-3.7 1.3-5.6-1.2-.2-2.6-.1-3.9.3-.5 1.9-.9 3.8-1.4 5.7z"/><path class="st37" d="M48.3 83.3c0 1.7-1.4 3.1-3.1 3.1-1.7 0-3.1-1.4-3.1-3.1V79c0-1.7 1.4-3.1 3.1-3.1 1.7 0 3.1 1.4 3.1 3.1v4.3z"/><path class="st42" d="M42 81.8h6.3v1.6H42z"/><path class="st65" d="M48 81.6h.4v1.8H48z"/><circle class="st41" cx="50.9" cy="78.3" r="1.2"/><g><path class="st41" d="M45 72.5l2.6-1.6c.2-.2.6.1.3.4l-2.3 2.6-.6-1.4z"/><path class="st37" d="M45.2 68.5s-6.2-.4-8.7.1c0 0 3.7 1.5 3.7 3.6l5-3.7z"/><path class="st41" d="M46.7 71c1.1 1.4.9 3.3-.5 4.4-1.4 1.1-3.3.9-4.4-.5-1.1-1.4-.9-3.3.5-4.4 1.3-1.1 3.3-.9 4.4.5z"/><path class="st880" d="M43.7 69.8c-.5.1-.9.3-1.4.6-1.4 1.1-1.6 3-.5 4.4.5.6 1.1 1 1.8 1.1 2.9 0 3.5-6.5.1-6.1z"/><path class="st41" d="M46.3 72.5L45 71.3s-.4 3.5 1.1 2.1l.2-.9z"/><path class="st34" d="M45.7 68.9c.1.2.1.4-.1.6l-4.9 3.9c-.2.1-.4.1-.6-.1l-.5-.6c-.1-.2-.1-.4.1-.6l4.9-3.9c.2-.1.4-.1.6.1l.5.6z"/><circle class="st34" cx="35.8" cy="68.5" r=".7"/></g><g><path class="st37" d="M49 81.6c-1.2 0-2.3-.9-3.5-2.8l1.7-1.1c1 1.6 1.7 1.9 1.8 1.9.2 0 .6-.6.7-1l1.9.6c-.1.2-.7 2.2-2.3 2.4H49z"/></g></g><g><circle class="st41" cx="10" cy="71.9" r="1.2"/><path class="st34" d="M5.4 77h3.8v1.6H5.4"/><path class="st696" d="M3.2 78.2c0-1.1.5-1.3 1.1-1.3h2.3v1.6H4l-.8-.3z"/><path class="st42" d="M8.9 78.7v-1.9c1.2-.6 1.2-2.3.3-2.5 0 0 1.7-.9 1.5 3.1 0 .9-.9 1.7-1.8 1.3z"/><path class="st696" d="M6.3 75.8c0 1.7-1.4 3.1-3.1 3.1C1.4 79 0 77.6 0 75.8v-4.3c0-1.7 1.4-3.1 3.1-3.1 1.7 0 3.1 1.4 3.1 3.1v4.3z"/><path class="st42" d="M0 74.3h6.3v1.6H0z"/><path class="st65" d="M6 74.1h.4v1.8H6z"/><g><path class="st696" d="M8.5 63.8s-3-5.4-4.9-7.2c0 0 .8 3.9-1 5l5.9 2.2z"/><path class="st41" d="M7.2 66.4c-.5 1.6-2.3 2.5-4 2-1.6-.5-2.5-2.3-2-4 .5-1.6 2.3-2.5 4-2 1.7.6 2.6 2.4 2 4z"/><path class="st697" d="M6.5 63.2c-.3-.4-.8-.6-1.3-.8-1.6-.5-3.4.3-4 2-.2.7-.2 1.5.1 2.1 3.1.3 4.6-2.1 5.2-3.3z"/><path class="st41" d="M4.8 66.5L4 63.7s-1.7 3.3.3 3.5l.5-.7z"/><path class="st34" d="M8.4 64.4c-.1.2-.3.3-.5.3l-5.9-2c-.2-.1-.3-.3-.3-.5l.2-.7c.1-.2.3-.3.5-.3l5.9 2c.2.1.3.3.3.5l-.2.7z"/><circle class="st42" cx="6.2" cy="65.6" r=".6"/><circle class="st34" cx="3.3" cy="55.9" r=".7"/><path class="st41" d="M6.8 66.1l2.5 1.7c.3.1.2.5-.3.4l-3.3-1.1 1.1-1z"/></g><path class="st872" d="M9.4 75l-4.8-.8 1-6.9 4.8.9z"/><circle class="st41" cx="4.8" cy="72.2" r="1.2"/><path class="st873" d="M9.4 75l.6-.8 1-6.9-.7.9z"/></g><g><path class="st34" d="M79.6 63.8l-2.9.6.4 1.8 2.9-.6"/><path class="st696" d="M78.8 47.7s2.8-5.9 5.4-7.1c0 0-1.4 5.5.1 7.3l-5.5-.2z"/><path class="st41" d="M85.1 50.9c0 1.9-1.5 3.4-3.4 3.4s-3.4-1.5-3.4-3.4 1.5-3.4 3.4-3.4c1.9-.1 3.4 1.5 3.4 3.4z"/><path class="st34" d="M85.6 48.4c0 .3-.2.5-.5.5h-6.9c-.3 0-.5-.2-.5-.5v-.8c0-.3.2-.5.5-.5h6.9c.3 0 .5.2.5.5v.8z"/><circle class="st42" cx="79.7" cy="51.3" r=".6"/><circle class="st42" cx="82.5" cy="51.3" r=".6"/><path class="st696" d="M85 62.6c0 1.9-1.5 3.4-3.4 3.4s-3.4-1.5-3.4-3.4v-4.8c0-1.9 1.5-3.4 3.4-3.4s3.4 1.5 3.4 3.4v4.8z"/><path class="st34" d="M80.3 54.3h.7v9.3h-.7z"/><path class="st42" d="M78.1 60.8H85v1.7h-6.9z"/><path class="st65" d="M79.7 60.7h1.8v2h-1.8z"/><circle class="st34" cx="84.8" cy="40" r=".7"/><path class="st41" d="M78.2 50.2l-1.1-1.6s-.7 4 1.6 3.5l-.5-1.9zM84.8 50.2l1.1-1.6s.7 4-1.6 3.5l.5-1.9z"/><path class="st696" d="M79.6 63.8l-1.5.3.4 1.8 1.5-.3"/><path class="st42" d="M77.1 66.4l-.4-2.1c-.7-.4-1.2-2.2-.9-2.6 0 0-2-.6-.9 3.6.3 1 1.4 1.6 2.2 1.1z"/><path class="st34" d="M82.3 63.8l-2.9.6.4 1.8 2.9-.6"/><path class="st696" d="M82.5 63.3l-1.7.8.4 1.8 1.5-.3"/><path class="st42" d="M79.8 66.4l-.4-2.1c-.7-.4-1.2-2.2-.9-2.6 0 0-2-.6-.9 3.6.3 1 1.4 1.6 2.2 1.1z"/><path class="st699" d="M78.9 61c1.3-.5 2.6-.7 3.9-.6V53c-1.3-.1-2.6.2-3.9.8V61z"/><path class="st700" d="M78.9 61c1.4-.5 2.8-.7 4.2-.6v-7.2c-1.4-.1-2.8.1-4.2.6V61z"/><path class="st699" d="M78.9 61c1.5-.5 3-.7 4.4-.6v-7.1c-1.5-.2-3 0-4.4.5V61z"/><path class="st700" d="M78.9 61c1.6-.6 3.3-.8 4.9-.6v-7c-1.6-.3-3.3-.2-4.9.3V61z"/><path class="st699" d="M79.2 60.5c1.4-.4 2.8-.5 4.2-.5v-6.5c-1.4-.2-2.8-.1-4.2.2v6.8z"/><path class="st700" d="M79.2 60.6c1.5-.4 2.9-.6 4.4-.5v-6.5c-1.5-.2-2.9-.1-4.4.2v6.8z"/><path class="st699" d="M79.2 60.7c1.5-.4 3-.6 4.5-.5v-6.4c-1.5-.2-3-.1-4.5.2v6.7z"/><path class="st700" d="M79.2 60.7c1.6-.4 3.2-.6 4.8-.5v-6.4c-1.6-.2-3.2-.2-4.8.1v6.8z"/><path class="st699" d="M78.9 61c-.7-.3-1.4-.5-2.1-.5v-7c.7-.1 1.4 0 2.1.3V61z"/><path class="st700" d="M78.9 61c-.7-.3-1.5-.5-2.2-.5v-7c.7-.1 1.5 0 2.2.3V61z"/><path class="st699" d="M78.9 61c-.8-.3-1.6-.5-2.3-.5v-6.9c.8-.1 1.6 0 2.3.2V61z"/><path class="st700" d="M78.9 61c-.8-.4-1.7-.5-2.6-.5v-6.8c.8-.2 1.7-.1 2.6.1V61z"/><path class="st873" d="M76.1 53.8h2.7v7.3h-2.7z"/><path class="st872" d="M79 53.8h5.1v7.3H79z"/><circle class="st41" cx="83.9" cy="58.4" r="1.3"/><path class="st872" d="M79.3 61.2h-.8s-.1 0-.1-.1v-7.3s0-.1.1-.1h.8s.1 0 .1.1l-.1 7.4c.1 0 0 0 0 0z"/><circle class="st41" cx="76.5" cy="58.8" r="1.3"/></g><g><circle class="st41" cx="79.6" cy="72.6" r="1.2"/><path class="st34" d="M84.3 77.7h-3.9v1.6h3.9"/><path class="st74" d="M86.4 79c0-1.1-.5-1.3-1.1-1.3H83v1.6h2.6l.8-.3z"/><path class="st42" d="M80.7 79.4v-1.9c-1.2-.6-1.2-2.3-.3-2.5 0 0-1.7-.9-1.5 3.1.1.9 1 1.7 1.8 1.3z"/><path class="st74" d="M83.4 76.6c0 1.7 1.4 3.1 3.1 3.1 1.7 0 3.1-1.4 3.1-3.1v-4.3c0-1.7-1.4-3.1-3.1-3.1-1.7 0-3.1 1.4-3.1 3.1v4.3z"/><path class="st42" d="M83.4 75h6.3v1.6h-6.3z"/><path class="st65" d="M83.2 74.8h.4v1.8h-.4z"/><g><path class="st74" d="M81.2 64.5s3-5.4 4.9-7.2c0 0-.8 3.9 1 5l-5.9 2.2z"/><path class="st41" d="M82.4 67.1c.5 1.6 2.3 2.5 4 2 1.6-.5 2.5-2.3 2-4-.5-1.6-2.3-2.5-4-2-1.6.6-2.5 2.4-2 4z"/><path class="st697" d="M83.1 64c.3-.4.8-.6 1.3-.8 1.6-.5 3.4.3 4 2 .2.7.2 1.5-.1 2.1-3.1.2-4.6-2.2-5.2-3.3z"/><path class="st41" d="M84.8 67.2l.8-2.7s1.7 3.3-.3 3.5l-.5-.8z"/><path class="st34" d="M81.3 65.2c.1.2.3.3.5.3l5.9-2c.2-.1.3-.3.3-.5l-.2-.7c-.1-.2-.3-.3-.5-.3l-5.9 2c-.2.1-.3.3-.3.5l.2.7z"/><circle class="st42" cx="83.4" cy="66.3" r=".6"/><circle class="st34" cx="86.3" cy="56.6" r=".7"/><path class="st41" d="M82.8 66.8l-2.5 1.7c-.3.1-.2.5.3.4l3.3-1.1-1.1-1z"/></g><path class="st872" d="M80.2 75.8l4.8-.9-1-6.9-4.8.9z"/><circle class="st41" cx="84.8" cy="72.9" r="1.2"/><path class="st873" d="M80.3 75.8l-.7-.9-1-6.9.7.9z"/></g><g><circle class="st41" cx="74.2" cy="86.1" r="1.2"/><path class="st34" d="M74.5 91.4l-3.8-.3-.2 1.6 3.9.3"/><path class="st881" d="M76.5 92.8c.1-1.1-.4-1.3-1-1.3l-2.3-.2-.2 1.6 2.6.2.9-.3z"/><path class="st42" d="M70.8 92.9L71 91c-1.2-.7-1-2.4-.1-2.5 0 0-1.6-1-1.7 2.9-.1.9.7 1.7 1.6 1.5z"/><path class="st872" d="M74.9 86.6h-2.1l-1.3-5.8h2.1z"/><path class="st873" d="M72.7 86.6l-4.8.1-1.3-5.8 4.8-.1z"/><path class="st872" d="M72.5 86.7h.6s.1 0 0-.1l-1.3-5.8s0-.1-.1-.1h-.6s-.1 0 0 .1l1.4 5.9c-.1-.1-.1 0 0 0z"/><path class="st699" d="M72.8 86.5c-1.1-.4-2.2-.5-3.2-.4-.4-2-.9-3.9-1.3-5.9 1 0 2.1.2 3.2.6.4 1.9.8 3.8 1.3 5.7z"/><path class="st700" d="M72.8 86.5c-1.2-.4-2.4-.6-3.4-.4-.4-1.9-.9-3.8-1.3-5.8 1.1-.1 2.2 0 3.4.5.4 1.9.8 3.8 1.3 5.7z"/><path class="st699" d="M72.8 86.5c-1.3-.4-2.5-.6-3.6-.4-.4-1.9-.9-3.8-1.3-5.7 1.1-.2 2.4 0 3.6.4.4 1.9.8 3.8 1.3 5.7z"/><path class="st700" d="M72.8 86.5c-1.4-.5-2.7-.6-4-.4-.4-1.9-.8-3.7-1.3-5.6 1.2-.2 2.6-.1 3.9.3.5 1.9.9 3.8 1.4 5.7z"/><path class="st699" d="M72.8 86.5c.5-.3 1-.4 1.6-.4-.4-1.9-.8-3.7-1.3-5.6-.6-.1-1.1 0-1.6.2.4 2 .8 3.9 1.3 5.8z"/><path class="st700" d="M72.8 86.5c.5-.3 1.1-.4 1.7-.4-.4-1.9-.8-3.7-1.3-5.6-.6-.1-1.2 0-1.7.2.4 2 .8 3.9 1.3 5.8z"/><path class="st699" d="M72.8 86.5c.6-.3 1.2-.4 1.8-.4-.4-1.8-.8-3.7-1.3-5.5-.6-.1-1.3 0-1.8.2.4 1.9.8 3.8 1.3 5.7z"/><path class="st700" d="M72.8 86.5c.6-.3 1.3-.4 1.9-.4-.4-1.8-.8-3.6-1.2-5.5-.7-.1-1.4-.1-2 .1.4 2 .8 3.9 1.3 5.8z"/><path class="st5" d="M72.8 86.5c-1.4-.5-2.7-.6-4-.4-.4-1.9-.8-3.7-1.3-5.6 1.2-.2 2.6-.1 3.9.3.5 1.9.9 3.8 1.4 5.7z"/><g><path class="st41" d="M73.8 80.7l-3 .7c-.3 0-.3.4.1.5l3.5.2-.6-1.4z"/><path class="st881" d="M70.8 78s4-4.7 6.2-6.1c0 0-1.6 3.7 0 5.1l-6.2 1z"/><path class="st41" d="M71.5 80.8c.2 1.7 1.8 2.9 3.5 2.7 1.7-.2 2.9-1.8 2.7-3.5-.2-1.7-1.8-2.9-3.5-2.7-1.7.3-2.9 1.8-2.7 3.5z"/><path class="st42" d="M72.8 77.9c.4-.3.9-.5 1.4-.5 1.7-.2 3.3 1 3.5 2.7.1.8-.1 1.5-.5 2.1-2.1 2-7.1-2.2-4.4-4.3z"/><path class="st41" d="M72.8 81.6v-1.8s2.7 2.2.7 2.3l-.7-.5z"/><path class="st34" d="M70.8 78.7c0 .2.2.4.5.4l6.2-.8c.2 0 .4-.2.4-.5l-.1-.8c0-.2-.2-.4-.5-.4l-6.3.9c-.2 0-.4.2-.4.5l.2.7z"/><circle class="st34" cx="77.4" cy="71.3" r=".7"/></g><path class="st881" d="M72.8 90.1c0 1.7 1.4 3.1 3.1 3.1 1.7 0 3.1-1.4 3.1-3.1v-4.3c0-1.7-1.4-3.1-3.1-3.1-1.7 0-3.1 1.4-3.1 3.1v4.3z"/><path class="st42" d="M72.8 88.5h6.3v1.6h-6.3z"/><path class="st65" d="M72.7 88.4h.4v1.8h-.4z"/><circle class="st41" cx="67.7" cy="86.1" r="1.2"/><g><path class="st881" d="M71 88.5c-2.2 0-3.9-1.6-4-1.7l1.4-1.4s1.4 1.3 2.9 1.1c.9-.1 1.8-.8 2.5-2l1.7 1.1c-1.1 1.7-2.4 2.7-4 2.9H71z"/></g></g><g><circle class="st41" cx="24.9" cy="89.6" r="1.2"/><path class="st34" d="M24.5 94.9l3.9-.3.1 1.7-3.9.3"/><path class="st882" d="M22.5 96.4c-.1-1.1.4-1.3 1-1.3l2.3-.2.1 1.6-2.6.2-.8-.3z"/><path class="st42" d="M28.2 96.4l-.2-1.9c1.2-.7 1-2.4.1-2.5 0 0 1.6-1 1.7 2.9.1.9-.7 1.7-1.6 1.5z"/><path class="st872" d="M24.1 90.1h2.1l1.4-5.8h-2.2z"/><path class="st873" d="M26.3 90.1l4.8.2 1.3-5.9-4.7-.1z"/><path class="st872" d="M26.6 90.2H26s-.1 0 0-.1l1.3-5.8s0-.1.1-.1h.6s.1 0 0 .1l-1.4 5.9z"/><path class="st699" d="M26.3 90c1.1-.4 2.2-.5 3.2-.4.4-2 .9-3.9 1.3-5.9-1 0-2.1.2-3.2.6-.4 1.9-.9 3.8-1.3 5.7z"/><path class="st700" d="M26.3 90c1.2-.4 2.4-.6 3.4-.4.4-1.9.9-3.8 1.3-5.8-1.1-.1-2.2 0-3.4.5-.4 1.9-.9 3.8-1.3 5.7z"/><path class="st699" d="M26.3 90c1.3-.4 2.5-.6 3.6-.4.4-1.9.9-3.8 1.3-5.7-1.1-.2-2.4 0-3.6.4-.4 1.9-.9 3.8-1.3 5.7z"/><path class="st700" d="M26.3 90c1.4-.5 2.7-.6 4-.4.4-1.9.8-3.7 1.3-5.6-1.2-.2-2.6-.1-3.9.3-.5 1.9-1 3.8-1.4 5.7z"/><path class="st699" d="M26.3 90c-.5-.3-1-.4-1.6-.4.4-1.9.8-3.7 1.3-5.6.6-.1 1.1 0 1.6.2-.4 2-.9 3.9-1.3 5.8z"/><path class="st700" d="M26.3 90c-.5-.3-1.1-.4-1.7-.4.4-1.9.8-3.7 1.3-5.6.6-.1 1.2 0 1.7.2-.4 2-.9 3.9-1.3 5.8z"/><path class="st699" d="M26.3 90c-.6-.3-1.2-.4-1.8-.4.4-1.8.8-3.7 1.3-5.5.6-.1 1.3 0 1.8.2-.4 1.9-.9 3.8-1.3 5.7z"/><path class="st700" d="M26.3 90c-.6-.3-1.3-.4-1.9-.4.4-1.8.8-3.6 1.2-5.5.7-.1 1.4-.1 2 .1-.4 2-.9 3.9-1.3 5.8z"/><path class="st5" d="M26.3 90c1.4-.5 2.7-.6 4-.4.4-1.9.8-3.7 1.3-5.6-1.2-.2-2.6-.1-3.9.3-.5 1.9-1 3.8-1.4 5.7z"/><g><path class="st41" d="M25.3 84.2l3 .7c.3 0 .3.4-.1.5l-3.5.2.6-1.4z"/><path class="st882" d="M28.3 81.5s-4-4.7-6.2-6.1c0 0 1.6 3.7 0 5.1l6.2 1z"/><path class="st41" d="M27.6 84.4c-.2 1.7-1.8 2.9-3.5 2.7-1.7-.2-2.9-1.8-2.7-3.5.2-1.7 1.8-2.9 3.5-2.7 1.6.2 2.9 1.8 2.7 3.5z"/><path class="st683" d="M26.2 81.4c-.4-.3-.9-.5-1.4-.5-1.7-.2-3.3 1-3.5 2.7-.1.8.1 1.5.5 2.1 2.2 2 7.2-2.1 4.4-4.3z"/><path class="st683" d="M19.2 86.4c.6 0 1.2-.1 1.7-.5s.8-.9 1-1.4c-.6-.1-1.2.1-1.7.5s-.9.8-1 1.4z"/><path class="st41" d="M26.2 85.2v-1.8s-2.7 2.2-.7 2.3l.7-.5z"/><path class="st34" d="M28.3 82.2c0 .2-.2.4-.5.4l-6.2-.8c-.2 0-.4-.2-.4-.5l.1-.8c0-.2.2-.4.5-.4l6.2.9c.2 0 .4.2.4.5l-.1.7z"/><circle class="st34" cx="21.7" cy="74.9" r=".7"/></g><path class="st882" d="M26.2 93.6c0 1.7-1.4 3.1-3.1 3.1-1.7 0-3.1-1.4-3.1-3.1v-4.3c0-1.7 1.4-3.1 3.1-3.1 1.7 0 3.1 1.4 3.1 3.1v4.3z"/><path class="st683" d="M26.3 88.3c-.5-.1-1.1-.5-1.4-1s-.5-1.1-.4-1.7c.6.1 1.1.5 1.4 1s.5 1.1.4 1.7z"/><path class="st42" d="M19.9 92.1h6.3v1.6h-6.3z"/><path class="st65" d="M25.9 91.9h.4v1.8h-.4z"/><circle class="st41" cx="31.3" cy="89.6" r="1.2"/><g><path class="st882" d="M28 92.1h-.5c-1.6-.2-2.9-1.2-4-2.9l1.7-1.1c.8 1.2 1.6 1.9 2.5 2 1.5.2 2.9-1.1 2.9-1.1l1.4 1.4c-.1 0-1.8 1.7-4 1.7z"/></g></g></g></svg>