<?xml version="1.0" encoding="utf-8"?>
<!-- Generator: Adobe Illustrator 19.1.0, SVG Export Plug-In . SVG Version: 6.00 Build 0)  -->
<svg version="1.1" id="slice" xmlns="http://www.w3.org/2000/svg" xmlns:xlink="http://www.w3.org/1999/xlink" x="0px" y="0px"
	 viewBox="-81 332.1 447.3 129.9" style="enable-background:new -81 332.1 447.3 129.9;" xml:space="preserve">
<style type="text/css">
	.st0{fill:#FFFFFF;}
	.st1{fill:#DCDFD8;}
	.st2{fill:#70CC47;}
	.st3{fill:#8BD463;}
	.st4{opacity:0.1;enable-background:new    ;}
	.st5{fill:url(#SVGID_1_);}
</style>
<g id="New_Symbol_109">
	<path class="st0" d="M55.1,391.1c-2.5,1.7-4.9,3.7-7.4,5.6c-2.4,1.9-4.8,3.9-7.2,5.9c-2.4,2-4.8,3.9-7.2,5.9c-2.3,2-4.8,4-7.1,6.1
		c-2.3,2.1-4.5,4.4-6.7,6.5c-2.3,2.2-4.5,4.3-6.7,6.5s-4.4,4.5-6.5,6.7c-2.2,2.3-4.2,4.7-6.2,7c-2.2,2.4-4.2,4.8-6.1,7"/>
	<path class="st1" d="M-2.6,449.1c-3.4,0.5-3.9,0.5-6.7-1.5c1.9-2.2,3.7-4.5,5.9-7c2-2.2,4.3-4.3,6.6-6.7c2.1-2.2,4.3-4.4,6.5-6.7
		c2.2-2.2,4.4-4.4,6.7-6.6c2.2-2.1,4.4-4.4,6.7-6.5c2.3-2.1,4.6-4.3,6.9-6.3c2.4-2.1,4.8-4.1,7.2-6c2.4-2,5-3.8,7.5-5.7
		s4.9-3.8,7.5-5.5c3.2,0.1,3.9-0.6,5.9,1.9c-2.8,2-5.5,3.9-8.3,6.1c-2.7,2.1-5.3,4.4-8,6.7c-2.7,2.2-5.5,4.3-8.1,6.6
		c-2.6,2.3-5,4.9-7.5,7.2c-2.6,2.4-5.2,4.7-7.6,7.1c-2.5,2.5-4.9,5.1-7.2,7.5c-2.5,2.6-4.9,5.2-7.1,7.7
		C1.8,443.9-0.6,446.6-2.6,449.1z"/>
	<path class="st0" d="M-19.6,407.3c3.3-0.1,6.7,0.7,10,0.7c3.3-0.1,6.7-1.1,10-1.2c3.3-0.1,6.7,0.4,10,0.3c3.3,0,6.7-0.4,10-0.5
		c3.3,0,6.7,0.1,10,0.1s6.7,0.3,10,0.2c3.3,0,6.7-0.7,10-0.8c3.3,0,6.7,0.4,10,0.4s6.7,0.3,10,0.3s6.7,0.2,10,0.2s6.7-0.5,10-0.5
		s6.7-0.1,10-0.1s6.7-0.4,10-0.4s6.7,0.5,10,0.5s6.7,0.6,10,0.6s6.7-0.8,10-0.8s6.7,0.6,10,0.6s6.7-0.3,10-0.2c3.3,0,6.7,0.3,10,0.3
		s6.7-0.3,10-0.2"/>
	<path class="st1" d="M-19.7,409.5c-1.2-1.2-0.8-2.1,0.4-3.3c3.3-0.1,6.5-0.9,9.8-1c3.3-0.1,6.7,0.6,10.1,0.6
		c3.3-0.1,6.7,0.2,10,0.1c3.3,0,6.7-0.6,10-0.6s6.7,0.1,10,0c3.3,0,6.7-0.4,10-0.4s6.7,0.5,10,0.5s6.7-0.9,10-0.9s6.7,0.9,10.1,0.8
		c3.3,0,6.7-0.9,10-0.9s6.7-0.1,10-0.1s6.7,0.6,10,0.6s6.7,0.6,10,0.6c3.4,0,6.7-0.1,10-0.1c3.4,0,6.7-0.8,10.1-0.7
		c3.4,0,6.7,0.1,10,0.1s6.7,0.6,10,0.7c3.4,0,6.7-0.2,10-0.1c3.3,0,6.7,0.2,10,0.3c3.3,0,6.3,0.3,9.6,0.4c1.1,1.4,1.5,2.3,0.2,3.5
		c-3.3-0.1-7-0.3-10.4-0.4c-3.3,0-6.7,0.1-10,0.1s-6.7-0.5-10-0.5h-20c-3.3,0-6.7-0.4-10-0.4s-6.7,0.8-10,0.7c-3.3,0-6.7-0.4-10-0.4
		h-10c-3.3,0-6.7,0.4-10,0.5c-3.3,0-6.7-1-10-1s-6.7-0.1-10,0c-3.3,0-6.7,0-10,0.1c-3.3,0-6.7,0.2-10,0.3c-3.3,0-6.7-0.1-10-0.1
		s-6.7,0.9-10,0.9s-6.7,0.1-10,0.1s-6.7,0.3-10,0.3c-3.3,0.1-6.7-0.1-10,0C-12.9,409.5-16.4,409.4-19.7,409.5L-19.7,409.5z"/>
	<path class="st0" d="M-33,430c3.3,0.1,6.5,0.6,9.8,0.7c3.3,0.1,6.5-0.1,9.8,0c3.3,0.1,6.5,1,9.8,1.1c3.3,0.1,6.5-0.2,9.8-0.2
		c3.3,0.1,6.5,0.1,9.8,0.2c3.3,0.1,6.5-0.3,9.8-0.2s6.5,0.2,9.8,0.3c3.3,0.1,6.5-0.1,9.8-0.1c3.3,0.1,6.5,1.1,9.8,1.1
		c3.3,0,6.5-0.9,9.8-0.9s6.5,0.6,9.8,0.6s6.5,0.3,9.8,0.3s6.5-0.8,9.8-0.8s6.5,1.1,9.8,1.1s6.5,0.3,9.8,0.3s6.5-0.3,9.8-0.2
		c3.3,0,6.5-0.1,9.8-0.1s6.5,0.1,9.8,0.1s6.5-0.3,9.8-0.3s6.5-0.4,9.8-0.4s6.5,0.6,9.8,0.6c3.3,0,6.5-0.1,9.8-0.1s6.5-0.7,9.8-0.8"
		/>
	<path class="st1" d="M128.4,434.5c-3.4,0-6.7,0.3-10.1,0.3c-3.4,0-6.7,0.3-10.1,0.3c-3.4,0-6.7,0.1-10.1,0c-3.4,0-6.7-0.9-10.1-0.9
		c-3.4,0-6.7,0.1-10.1,0c-3.4,0-6.7-0.5-10.1-0.5c-3.4,0-6.8,0.9-10.1,0.8c-3.4,0-6.7-0.4-10.1-0.4l-10.1-0.3
		c-3.4-0.1-6.7-0.2-10.1-0.2c-3.4-0.1-6.8,0.3-10.1,0.3c-3.4-0.1-6.7-1.2-10.1-1.3s-6.7,0-10.1-0.1c-3.4-0.1-6.8,0.7-10.1,0.6
		c-3.4-0.1-6.7-1.4-10.1-1.5c-3.4-0.1-6.5,0.3-9.9,0.2c-1-1.4-0.9-2.2,0.5-3.3c3.2,0.1,6.5,0.7,9.7,0.8s6.4,0,9.7,0.1
		c3.2,0.1,6.4,0.7,9.6,0.8s6.4-0.4,9.7-0.3c3.2,0.1,6.4,0.4,9.7,0.5c3.2,0.1,6.4,0,9.7,0c3.2,0.1,6.4-0.2,9.7-0.1
		c3.2,0.1,6.4,0.3,9.7,0.4c3.2,0.1,6.4,0.4,9.7,0.4c3.2,0,6.4,0,9.7,0.1c3.2,0,6.4,0.3,9.7,0.3c3.2,0,6.4-0.1,9.7-0.1
		c3.2,0,6.4-0.4,9.7-0.4c3.2,0,6.4-0.1,9.7-0.1c3.2,0,6.4-0.2,9.7-0.2c3.2,0,6.4-0.1,9.7-0.1c3.2,0,6.4,0.5,9.7,0.5
		c3.2,0,6.4-0.4,9.7-0.4c3.2,0,6.4,1.1,9.7,1.1c3.2,0,6.4-0.7,9.7-0.7c3.2,0,6.4,0.1,9.7,0.1c3.2,0,6.4-0.8,9.7-0.8
		c3.2,0,6.2,1.1,9.4,1c2.5,1,3.5,0.2,4.4,2.7c-3,0-6.1-0.3-9.3-0.3c-3.1,0-6.2,0.9-9.3,0.9c-3.1,0-6.2,0.2-9.3,0.3
		c-3.1,0-6.2-0.6-9.4-0.5c-3.1,0-6.3-0.5-9.4-0.4c-3.2,0-6.3,0.8-9.3,0.8C134.6,434.8,131.5,434.5,128.4,434.5L128.4,434.5z"/>
	<path class="st1" d="M56.3,393.5c-2.5,1.7-5,3.6-7.5,5.5c-2.4,1.9-4.9,3.7-7.4,5.7c-2.4,2-4.9,3.8-7.3,5.9c-2.3,2-4.6,4.1-6.9,6.2
		c-2.3,2.1-4.6,4.2-6.8,6.4c-2.3,2.2-4.3,4.6-6.4,6.8c-2.2,2.2-4.4,4.5-6.4,6.7c-2.2,2.3-4.5,4.5-6.5,6.7c-2.2,2.4-4.3,4.7-6.2,7
		 M89.8,457.2c0.1,0,3.9,0,7.6-0.8c0.3-0.9,0.5-1.8,0.8-2.7c0.8-2.8,1.8-5.5,2.5-8.3c0.8-2.8,1.6-5.6,2.3-8.3
		c0.7-2.8,1.2-5.5,1.9-8.3c0.3-1.2,0.7-2.4,0.6-3.5c-0.1-1,0.7-2.1,0.3-3c-0.3-0.5-0.8-1-1-1.6c-0.3-0.7,0.2-1.5,0.7-2.3
		c1.1-1.8,2.3-3.7,2.8-5.4c0.3-1,0.6-1.8,0.6-2.7c0.1-2.6,0.7-5.2,1.6-7.9c0.4-1.1,0.9-2.2,0.5-3.2c-0.2-0.5-0.6-0.9-0.5-1.4
		c0.1-0.6,0.8-1.4,0.8-2c0-0.3-0.4-0.5-0.6-0.8c-0.2-0.3-0.3-0.6-0.6-0.8c-1.3-0.6-4.4-0.5-6.5-0.1c-0.5,3.4-0.9,6.8-1.5,10.2
		c-0.6,3.3-1.1,6.7-1.7,10.1c-0.6,3.3-1.5,6.6-2.3,9.9c-0.2,1-1,5.7-2.4,11.1c-0.9,3.5-2.2,7.4-3.1,10.9
		C91.2,452.1,90,457.1,89.8,457.2L89.8,457.2z"/>
	<path class="st1" d="M-32.2,432.4c3.3,0.1,6.5,0.6,9.8,0.7s6.5-0.4,9.8-0.3c3.3,0.1,6.5,0.8,9.8,0.9c3.3,0.1,6.5,0.3,9.8,0.3
		c3.3,0.1,6.5-0.7,9.8-0.7c3.3,0.1,6.5,1.2,9.8,1.3s6.5,0.2,9.8,0.2c3.3,0.1,6.5-0.8,9.8-0.7c3.3,0.1,6.5,0,9.8,0s6.5,0.6,9.8,0.6
		s6.5,0.1,9.8,0.2c3.3,0,6.5-0.5,9.8-0.4c3.3,0,6.5,0.3,9.8,0.4h9.8c3.3,0,6.5,0.7,9.8,0.7h9.8c3.3,0,6.5-0.4,9.8-0.4
		s6.5-0.2,9.8-0.3h9.8c3.3,0,6.5,0.3,9.8,0.2c3.3,0,6.5-0.3,9.8-0.3s6.5,0.5,9.8,0.5c3.3,0,6.5-0.2,9.8-0.3"/>
	<path class="st0" d="M98.1,438c0.2,0.1,0.4,0.1,0.6,0.2h5.6c0.3,0,0.7,0.1,1,0.1c4,0,4,0,8.1-0.1c-0.4-0.1-0.8-0.2-1.3-0.3
		c0-0.5-0.5-1-1.3-1.4c-2.2-1.1-6-1.3-9-0.6c-0.4,0.1-0.8,0.2-1,0.3c-0.6,0.4-0.4,1-1.2,1.2c-0.7,0.2-2,0.1-2,0.4
		C97.6,437.9,97.9,437.9,98.1,438z M-0.7,433.1c0.3-0.5-0.7-1-1.7-1.2c-2-0.4-4.5-0.1-5.9,0.7c-0.2,0.1-0.4,0.2-0.4,0.3
		c-0.1,0.3,0.4,0.6,0,0.8c-0.3,0.2-1.1,0.2-0.9,0.5c0.1,0.1,0.2,0.1,0.4,0.1c1.4,0.2,2.5-0.4,3.8-0.6c3.3-0.6,7.3,0.9,10.5,0.2
		c0.1-0.2,0.1-0.4,0.2-0.6c-1.1-0.5-2.7-0.6-4.1-0.6c-1.2-0.1-2.5-0.1-3.7-0.2 M88.2,436.1c-0.4,0.5,0.5,1.1,1.5,1.3
		c1.9,0.4,4.4,0.2,6-0.6c0.2-0.1,0.3-0.2,0.4-0.4c0.2-0.3-0.2-0.6,0.2-0.8c0.3-0.2,1.1-0.3,1-0.5c-0.1-0.1-0.2-0.1-0.4-0.2
		c-1.3-0.2-2.6,0.4-4,0.6c-3.4,0.6-7.1-1-10.5-0.4c-0.1,0.2-0.2,0.3-0.3,0.5c1,0.5,2.5,0.7,4,0.8c1.2,0.1,2.5,0.1,3.7,0.2
		 M27.2,405.6c-0.3,0.5,0.7,1,1.7,1.3c2,0.4,4.5,0.2,5.9-0.5c0.2-0.1,0.3-0.2,0.4-0.4c0.1-0.3-0.3-0.6,0.1-0.8
		c0.3-0.2,1.1-0.2,0.9-0.4c-0.1-0.1-0.2-0.2-0.4-0.2c-1.3-0.2-2.2-1.2-3.5-0.9c-3.4,0.6-7.6,0.5-10.9,1.2c-0.1,0.2-0.1,0.3-0.2,0.5
		c1,0.5,2.6,0.6,4.1,0.7c1.2,0.1,2.5,0.2,3.7,0.3"/>
	<g>
		<path class="st2" d="M353.8,436.8l-0.1,1.3c-0.1,1.8-1.5,3.2-3.3,3.4l-16.2,3.2l1.1-17l15.7,5.2
			C352.7,433.4,353.9,435,353.8,436.8z"/>
		<path class="st2" d="M263.7,441.8l1.3-20.1l71.9,4.5l-1.3,20.1L263.7,441.8z"/>
		<path class="st3" d="M269.4,442.2l1.3-20.1l60.3,3.8l-1.3,20.1L269.4,442.2z"/>
		<path class="st2" d="M277.4,442.7l1.3-20.1l2.4,0.1l-1.3,20.1L277.4,442.7z M273.5,442.5l1.3-20.1l2.4,0.1l-1.3,20.1L273.5,442.5z
			 M323.3,445.6l1.3-20.1l2.4,0.2l-1.3,20.1L323.3,445.6z M319.3,445.3l1.3-20.1l2.4,0.1l-1.3,20.1L319.3,445.3z M310.9,431.4
			l-0.4,6.7c-0.1,2-1.9,3.5-3.9,3.4l-17.6-1.1c-2-0.1-3.5-1.9-3.4-3.9l0.4-6.7c0.1-2,1.9-3.5,3.9-3.4l17.6,1.1
			C309.5,427.7,311,429.4,310.9,431.4z"/>
		<path class="st4" d="M336.1,436.6l-0.6,9.9l-62.1-3.8l0.6-9.9L336.1,436.6z"/>
		<path class="st4" d="M335.8,441.3l-0.2,3.1l14.8-3c1.8-0.2,3.2-1.7,3.3-3.5l0.1-1.3c0-0.3,0-0.6-0.1-0.9c-0.4,1.3-1.6,2.4-3.1,2.5
			L335.8,441.3L335.8,441.3z"/>
		
			<linearGradient id="SVGID_1_" gradientUnits="userSpaceOnUse" x1="320.5" y1="358.674" x2="320.5" y2="338.499" gradientTransform="matrix(1 0 0 -1 0 796.2)">
			<stop  offset="7.300000e-02" style="stop-color:#FFFFFF"/>
			<stop  offset="0.624" style="stop-color:#FFFFFF"/>
			<stop  offset="1" style="stop-color:#FFFFFF;stop-opacity:0"/>
		</linearGradient>
		<path class="st5" d="M366.3,458.7c-23-13.3-24.3-19.5-36.8-23.8c-3.3-1.2-6.3-1.6-9-1.5c-2.7-0.1-5.7,0.4-9,1.5
			c-12.5,4.3-13.9,10.5-36.8,23.8H366.3L366.3,458.7z"/>
	</g>
</g>
</svg>
