<svg xmlns="http://www.w3.org/2000/svg" width="433.55" height="160.34" viewBox="0 0 433.55 160.34"><defs><style>.cls-1{isolation:isolate}.cls-2{opacity:.5}.cls-3{opacity:.8}.cls-4{opacity:.99}.cls-5{fill:#f6f3ec}.cls-6{fill:#d7d7d7}.cls-52,.cls-7{fill:#fff}.cls-8{fill:#f5f2e2}.cls-43,.cls-9{opacity:.1}.cls-10{fill:#b4d3d9}.cls-11{fill:#97babf}.cls-12{fill:#e0f3f5}.cls-13,.cls-17,.cls-18,.cls-19,.cls-20{fill:#7ec1c4}.cls-13{opacity:.64}.cls-14{fill:#c1dff5}.cls-15{fill:#c4dfe3}.cls-16{fill:#c5e7eb}.cls-18{opacity:.53}.cls-19{opacity:.82}.cls-20{opacity:.3}.cls-21{fill:#79a6ad}.cls-22{fill:#b9c9d2}.cls-23{fill:#c5161d}.cls-24{fill:#e91c24}.cls-25{fill:#9b643d}.cls-26{fill:#333}.cls-27{fill:#00a551}.cls-28{fill:#fdd500}.cls-29{fill:#2c7c2f}.cls-30{fill:#fadcbc}.cls-31{fill:#aec7dc}.cls-32{fill:#ccc;mix-blend-mode:multiply}.cls-33{fill:#9dcb3b}.cls-34{fill:#d9ebed}.cls-35{fill:#008c45}.cls-36{fill:#fde08b}.cls-37{fill:#ae5f2d}.cls-38{fill:#914295}.cls-39{fill:#7a347e}.cls-40{fill:#e0bb95}.cls-41{fill:#754c28}.cls-42{fill:#0085b7}.cls-43{fill:#0f0f0f}.cls-44{fill:#716e69}.cls-45{fill:#71bdde}.cls-46{fill:#888480}.cls-47{fill:#659bc7}.cls-48{fill:#70afd4}.cls-49{fill:#b0e1e8}.cls-50{fill:none}.cls-51{fill:#97cee6}.cls-52{opacity:.22}.cls-53{fill:#9c8954}.cls-54{fill:#4e4e6b}.cls-55{fill:#859537}.cls-56{fill:#00b2ee}.cls-57{fill:#ffdf8a}.cls-58{fill:#ffd400}.cls-59{fill:#e64436}.cls-60{fill:#b757c5}.cls-61{fill:#bf8f68}.cls-62{fill:#8a773f}.cls-63{fill:#cc29b9}.cls-64{fill:#f5a816}.cls-65{fill:#794448}.cls-66{fill:#6d42e3}.cls-67{fill:#584539}.cls-68{fill:#16c447}.cls-69{fill:#212121}.cls-70{fill:#c26d11}</style></defs><title>easteregg-schoolyard</title><g class="cls-1"><g id="slice"><g id="New_Symbol_113" data-name="New Symbol 113"><g id="New_Symbol_65-8" data-name="New Symbol 65"><ellipse class="cls-5" cx="179.25" cy="118.98" rx="1.25" ry="1.15" transform="rotate(-89.91 179.254 118.983)"/><path class="cls-5" d="M381.08 111.44a3.78 3.78 0 0 0-3.61 3.93h7.21a3.78 3.78 0 0 0-3.6-3.93zM370 112.42h-3.89c-1.93-2.73-7.88-6.36-10.4-6.36h-18.6c-4.7 0-4.24-2.74-4.09-3.66s.84-2.18 4-2.17h11.06a1.18 1.18 0 0 0 .67-2.16c-3.89-2.7-6.57-4.52-9.64-4.52L206 93.32a5.9 5.9 0 0 0-5.11 2.81c-1.16 1.91-4.5 8.12-6.8 9.93a4.26 4.26 0 0 0-1.56 3.36 4.39 4.39 0 0 0 1.09 2.93 3.68 3.68 0 0 0 2.65 1.25l4.65.11c2.47-1.28 2.35 1.23 0 2h-14.85c-2.44 0-4.41 1.06-4.42 2.37s2 2.38 4.41 2.38l157.54.25c1.09 0 2.09-.5 3.94-1.3h9.23a1.87 1.87 0 0 0 1.27-3.25h12a1.88 1.88 0 0 0 0-3.76z"/><path id="_Path_" data-name="&lt;Path&gt;" class="cls-5" d="M140.13 110.95a3 3 0 1 1 6 0z"/><path id="_Path_2" data-name="&lt;Path&gt;" class="cls-5" d="M163.79 112.3a2 2 0 1 1 4.05 0"/><path id="_Path_3" data-name="&lt;Path&gt;" class="cls-6" d="M328.68 104.19a3.62 3.62 0 1 1 7.21 0z"/><path id="_Path_4" data-name="&lt;Path&gt;" class="cls-6" d="M206.36 111.85a2.54 2.54 0 1 1 5.06 0z"/><path class="cls-6" d="M365.07 103.1h-8.2a1.57 1.57 0 0 1 0-3.13h8.2a1.57 1.57 0 1 1 0 3.13z"/><path id="_Path_5" data-name="&lt;Path&gt;" class="cls-6" d="M331.65 111.59a3.62 3.62 0 1 1 7.21 0z"/><path id="_Path_6" data-name="&lt;Path&gt;" class="cls-7" d="M85.91 99a3.06 3.06 0 1 1 6.11 0z"/><path class="cls-7" d="M288.55 89.66c-3.56-6.93-15.09-12.39-21.92-12.4l-102.9-.16c-2.07 0-7.13 2.71-8.87 4.28-2 1.84-12.21 6.65-14.92 7.41a2.86 2.86 0 0 0-.39 0c-1.74 0-5.08 3.35-5.09 5.24s3.34 1.62 5.08 1.62l8.6.21c2.61 0 2.6 4.43 0 4.43h-25.63c-1.36 0-4.39 2.15-4.39 3.64s3 1.75 4.39 1.75l175.63.27z"/><path class="cls-7" d="M122.29 95.08a3.87 3.87 0 0 0-3.7 4H126a3.87 3.87 0 0 0-3.71-4zM122.3 89.11h5.7a3.87 3.87 0 0 0-3.68-4 3.61 3.61 0 0 0-3 1.74 2.56 2.56 0 0 0-1.72-.69 2.85 2.85 0 0 0-2.72 3h5.44z"/><ellipse class="cls-7" cx="112.21" cy="100.43" rx="2.26" ry="2.07" transform="rotate(-89.91 112.207 100.43)"/><path class="cls-7" d="M125.34 93.16H131a2.81 2.81 0 1 0-5.61 0z"/><path id="_Path_7" data-name="&lt;Path&gt;" class="cls-6" d="M266.54 99.74a3 3 0 1 1 5.89 0z"/><path id="_Path_8" data-name="&lt;Path&gt;" class="cls-7" d="M307.4 112.81a3.7 3.7 0 1 1 7.38 0z"/><path id="_Path_9" data-name="&lt;Path&gt;" class="cls-7" d="M252.74 110.74a2.91 2.91 0 1 1 5.8 0z"/><path id="_Path_10" data-name="&lt;Path&gt;" class="cls-6" d="M153.71 100a2.6 2.6 0 1 1 5.18 0z"/><path class="cls-6" d="M305.58 89.39h-8.4a1.6 1.6 0 0 1 0-3.2h8.4a1.6 1.6 0 1 1 0 3.2z"/><path class="cls-7" d="M300.42 97.92h15.75a1.92 1.92 0 1 0 0-3.84h-15.75a1.92 1.92 0 0 0 0 3.84zM321.55 99.12h-28.26a2.6 2.6 0 0 0-1.78 4.5h-12.59a2.6 2.6 0 0 0 0 5.21h28.26a2.6 2.6 0 0 0 1.78-4.5h12.59a2.6 2.6 0 0 0 0-5.21z"/><path id="_Path_11" data-name="&lt;Path&gt;" class="cls-6" d="M277.94 103.41a3.7 3.7 0 1 1 7.38 0z"/><path id="_Path_12" data-name="&lt;Path&gt;" class="cls-5" d="M172.06 108.4a3.62 3.62 0 1 1 7.21 0z"/><path id="_Path_13" data-name="&lt;Path&gt;" class="cls-5" d="M174.06 101.24a3.62 3.62 0 1 1 7.21 0z"/><path id="_Path_14" data-name="&lt;Path&gt;" class="cls-5" d="M170.37 101.24a2.67 2.67 0 1 1 5.31 0z"/><path id="_Path_15" data-name="&lt;Path&gt;" class="cls-5" d="M248.27 105.91a3.7 3.7 0 1 1 7.38 0z"/><path id="_Path_16" data-name="&lt;Path&gt;" class="cls-5" d="M244.49 105.91a2.73 2.73 0 1 1 5.44 0z"/><path id="_Path_17" data-name="&lt;Path&gt;" class="cls-5" d="M229.37 106.75a4.31 4.31 0 1 1 8.59 0"/></g><path class="cls-8" d="M407.7 91.52c-10.48 3.23 1.67 8.22-9.72 11-9.75 2.4-27.07 1-37.73 1.07l-38.11.41c-12.81.15-23.86 2.09-36.27 2.64s-25.53-.41-37.75-1c-10.4-.48-17.42-1.18-26.51-3.24-8.65-2-57.69-3.3-47.27-11.73 4.84-3.91 17.17-1.42 24.32-3.2 4.62-1.15 4.89-3.13 8.33-4.77s9.78-2.78 14.07-3.69c23.05-4.85 47.54 1.18 71.65-1.42 14.18-1.52 26-2.49 40.69-2.2 4.92.1 9.85.2 14.76.43q4.9.22 9.75.6c4.27.29 8.09 2 5.57 1.87 9.76 2.79 20.81 1.77 31.6 4.05 6.05 1.34 23.37 5.86 12.62 9.18z"/><g id="New_Symbol_65-9" data-name="New Symbol 65"><ellipse class="cls-5" cx="363.41" cy="108.77" rx="1.25" ry=".86" transform="rotate(-89.91 363.416 108.765)"/><path class="cls-5" d="M211.9 100.68c1.49 0 2.7 1.76 2.7 3.94h-5.41c.01-2.19 1.22-3.94 2.71-3.94zM220.25 101.68h2.92c1.46-2.73 5.94-6.34 7.83-6.33h14c3.53 0 3.19-2.73 3.08-3.65s-.63-2.18-3-2.18h-8.31c-.87 0-1.22-1.5-.5-2.16 2.92-2.69 4.95-4.5 7.25-4.5l99.95.16a4.32 4.32 0 0 1 3.83 2.83c.86 1.92 3.36 8.13 5.08 9.94a4.94 4.94 0 0 1 1.16 3.37 5.31 5.31 0 0 1-.83 2.93 2.56 2.56 0 0 1-2 1.25l-3.49.1c-1.85-1.29-1.77 1.22 0 2h11.15c1.83 0 3.31 1.07 3.31 2.38s-1.49 2.37-3.32 2.37L240 110c-.82 0-1.57-.51-3-1.32h-6.93c-.78 0-1.41-.84-1.41-1.88a2.19 2.19 0 0 1 .46-1.38h-9c-.78 0-1.41-.84-1.41-1.88s.76-1.86 1.54-1.86z"/><path id="_Path_18" data-name="&lt;Path&gt;" class="cls-5" d="M392.81 100.84c0-1.8-1-3.26-2.23-3.26s-2.24 1.45-2.24 3.25z"/><path id="_Path_19" data-name="&lt;Path&gt;" class="cls-5" d="M375 102.13c0-1.22-.68-2.21-1.52-2.21s-1.52 1-1.52 2.21"/><path id="_Path_20" data-name="&lt;Path&gt;" class="cls-6" d="M251.26 93.57c0-2.17-1.21-3.93-2.7-3.94s-2.71 1.76-2.71 3.93z"/><path id="_Path_21" data-name="&lt;Path&gt;" class="cls-6" d="M343.08 101.56c0-1.52-.85-2.76-1.89-2.76s-1.9 1.23-1.9 2.76z"/><path class="cls-6" d="M223.95 92.38h6.16c.65 0 1.18-.7 1.18-1.56s-.52-1.57-1.17-1.57H224c-.65 0-1.18.7-1.18 1.56s.48 1.56 1.13 1.57z"/><path id="_Path_22" data-name="&lt;Path&gt;" class="cls-6" d="M249 101c0-2.17-1.21-3.93-2.7-3.94s-2.71 1.76-2.71 3.93z"/><path id="_Path_23" data-name="&lt;Path&gt;" class="cls-7" d="M433.55 89.09c0-1.84-1-3.33-2.29-3.33S429 87.24 429 89.08z"/><path class="cls-7" d="M281.43 79.15c2.69-6.92 11.36-12.35 16.49-12.34l77.26.12c1.55 0 5.35 2.73 6.65 4.31 1.53 1.85 9.15 6.68 11.18 7.45a1.64 1.64 0 0 1 .3 0c1.3 0 3.81 3.36 3.8 5.26s-2.51 1.61-3.82 1.61l-6.46.18c-2 0-2 4.42 0 4.43h19.24c1 0 3.29 2.16 3.29 3.65s-2.27 1.74-3.3 1.74l-131.86-.21z"/><path class="cls-7" d="M406.24 85c1.53 0 2.77 1.81 2.76 4h-5.54c.01-2.18 1.25-4 2.78-4zM406.25 79.05H402c0-2.22 1.25-4 2.78-4a2.68 2.68 0 0 1 2.22 1.72 1.7 1.7 0 0 1 1.29-.68c1.13 0 2 1.33 2 3h-4.08z"/><ellipse class="cls-7" cx="413.8" cy="90.4" rx="2.26" ry="1.56" transform="rotate(-89.91 413.801 90.401)"/><path class="cls-7" d="M404 83.1h-4.21c0-1.65.95-3 2.11-3s2.1 1.34 2.1 3z"/><path id="_Path_24" data-name="&lt;Path&gt;" class="cls-6" d="M297.94 89.29c0-1.78-1-3.22-2.21-3.22s-2.21 1.44-2.22 3.21z"/><path id="_Path_25" data-name="&lt;Path&gt;" class="cls-7" d="M267.22 102.25c0-2.22-1.23-4-2.76-4s-2.77 1.8-2.78 4z"/><path id="_Path_26" data-name="&lt;Path&gt;" class="cls-7" d="M308.26 100.33c0-1.75-1-3.17-2.17-3.17s-2.18 1.41-2.18 3.16z"/><path id="_Path_27" data-name="&lt;Path&gt;" class="cls-6" d="M382.64 89.82c0-1.56-.87-2.83-1.94-2.83s-1.95 1.26-1.95 2.82z"/><path class="cls-6" d="M268.65 78.83H275c.66 0 1.2-.72 1.21-1.6s-.54-1.6-1.2-1.6h-6.3c-.66 0-1.2.72-1.21 1.6s.5 1.6 1.15 1.6z"/><path class="cls-7" d="M272.5 87.38h-11.82c-.8 0-1.44-.86-1.44-1.92s.65-1.92 1.45-1.92h11.82c.8 0 1.44.86 1.44 1.92s-.65 1.92-1.45 1.92zM256.64 88.52h21.22c1.08 0 2 1.17 2 2.61a3 3 0 0 1-.63 1.9h9.45c1.08 0 2 1.17 2 2.61s-.88 2.6-2 2.6h-21.22c-1.08 0-2-1.17-2-2.61a3 3 0 0 1 .63-1.9h-9.45c-1.08 0-2-1.17-2-2.61s.92-2.6 2-2.6z"/><path id="_Path_28" data-name="&lt;Path&gt;" class="cls-6" d="M289.36 92.92c0-2.22-1.23-4-2.76-4s-2.77 1.8-2.78 4z"/><path id="_Path_29" data-name="&lt;Path&gt;" class="cls-5" d="M368.84 98.2c0-2.17-1.21-3.93-2.7-3.94s-2.71 1.76-2.71 3.93z"/><path id="_Path_30" data-name="&lt;Path&gt;" class="cls-5" d="M367.36 91c0-2.17-1.21-3.93-2.7-3.94s-2.66 1.8-2.71 3.94z"/><path id="_Path_31" data-name="&lt;Path&gt;" class="cls-5" d="M370.13 91c0-1.6-.89-2.9-2-2.9s-2 1.29-2 2.89z"/><path id="_Path_32" data-name="&lt;Path&gt;" class="cls-5" d="M311.63 95.51c0-2.22-1.23-4-2.76-4s-2.77 1.8-2.78 4z"/><path id="_Path_33" data-name="&lt;Path&gt;" class="cls-5" d="M314.47 95.52c0-1.64-.91-3-2-3s-2 1.32-2 3z"/><path id="_Path_34" data-name="&lt;Path&gt;" class="cls-5" d="M325.82 96.4c0-2.59-1.44-4.69-3.22-4.69s-3.23 2.09-3.23 4.68"/></g><ellipse id="_Path_35" data-name="&lt;Path&gt;" class="cls-9" cx="151.79" cy="88.18" rx="4.94" ry="119.18" transform="rotate(-89.91 151.789 88.18)"/><path id="_Rectangle_" data-name="&lt;Rectangle&gt;" class="cls-10" transform="rotate(.09 101.864 6.286)" d="M102.71 0h4.49v12.18h-4.49z"/><path id="_Rectangle_2" data-name="&lt;Rectangle&gt;" class="cls-9" transform="rotate(.09 108.23 6.281)" d="M105.63.01h1.58v12.18h-1.58z"/><path id="_Path_36" data-name="&lt;Path&gt;" class="cls-11" transform="rotate(-89.91 143.316 67.69)" d="M122.56 34.7h41.5v65.98h-41.5z"/><path id="_Path_37" data-name="&lt;Path&gt;" class="cls-12" transform="rotate(-89.91 138.412 67.685)" d="M117.66 37.24h41.5v60.89h-41.5z"/><path id="_Path_38" data-name="&lt;Path&gt;" class="cls-11" d="M239.46 88.59l-65.98-.1.05-32.16 58.53.1 7.45-3.62-.05 35.78z"/><path id="_Path_39" data-name="&lt;Path&gt;" class="cls-12" transform="rotate(-89.91 201.59 72.454)" d="M185.51 42.01h32.16v60.89h-32.16z"/><path id="_Path_40" data-name="&lt;Path&gt;" class="cls-13" d="M239.51 52.69l-60.09-.1-8.25 3.74 60.89.09 7.45-3.73z"/><path id="_Path_41" data-name="&lt;Path&gt;" class="cls-11" d="M115.38 88.62l-65.98-.1.12-76.43L81.74 1.35 115.5 12.2l-.12 76.42z"/><path id="_Path_42" data-name="&lt;Path&gt;" class="cls-12" transform="rotate(-89.91 77.545 50.354)" d="M39.33 19.91h76.43V80.8H39.33z"/><path id="_Path_43" data-name="&lt;Path&gt;" class="cls-11" transform="rotate(-89.91 50.152 72.873)" d="M34.58 57.06h31.14v31.62H34.58z"/><path id="_Path_44" data-name="&lt;Path&gt;" class="cls-14" transform="rotate(-89.91 47.805 72.87)" d="M32.23 58.28h31.14v29.18H32.23z"/><path id="_Path_45" data-name="&lt;Path&gt;" class="cls-9" transform="rotate(-89.91 65.885 55.542)" d="M64.1 54.24h3.57v2.61H64.1z"/><path id="_Path_46" data-name="&lt;Path&gt;" class="cls-10" transform="rotate(-89.91 47.831 55.516)" d="M46.05 38.76h3.57v33.5h-3.57z"/><path id="_Path_47" data-name="&lt;Path&gt;" class="cls-11" transform="rotate(-89.91 174.844 46.93)" d="M173.06 44.64h3.57v4.59h-3.57z"/><path id="_Path_48" data-name="&lt;Path&gt;" class="cls-9" transform="rotate(-89.91 174.844 46.93)" d="M173.06 44.64h3.57v4.59h-3.57z"/><path id="_Path_49" data-name="&lt;Path&gt;" class="cls-10" transform="rotate(-89.91 143.12 46.885)" d="M141.34 17.45h3.57v58.86h-3.57z"/><path id="_Path_50" data-name="&lt;Path&gt;" class="cls-11" d="M47.16 12.09L81.74 1.35l26.31 10.84"/><g id="_Group_" data-name="&lt;Group&gt;" class="cls-9"><path transform="rotate(-89.91 47.063 77.179)" d="M41.44 68.95h11.23v16.46H41.44z"/><path class="cls-14" d="M55.8 83.33H38.29V71.05H55.8zm-16.46-1.07h15.42V72.08H39.34z"/></g><g id="_Group_2" data-name="&lt;Group&gt;" class="cls-9"><path transform="rotate(-89.91 47.063 77.179)" d="M41.44 74.32h11.23v5.72H41.44z"/><path class="cls-14" d="M50.43 83.32h-6.76V71.04h6.77zm-5.72-1.06h4.67V72.08h-4.65z"/></g><path id="_Rectangle_3" data-name="&lt;Rectangle&gt;" class="cls-15" transform="rotate(.09 89.172 57.226)" d="M82.39 54.34h9.29v9.29h-9.29z"/><path id="_Rectangle_4" data-name="&lt;Rectangle&gt;" class="cls-15" transform="rotate(.09 70.073 57.24)" d="M68.96 54.32h9.29v9.29h-9.29z"/><path id="_Rectangle_5" data-name="&lt;Rectangle&gt;" class="cls-16" transform="rotate(.09 89.182 69.958)" d="M82.37 67.33h9.29v9.29h-9.29z"/><path id="_Rectangle_6" data-name="&lt;Rectangle&gt;" class="cls-15" transform="rotate(.09 70.083 69.973)" d="M68.94 67.31h9.29v9.29h-9.29z"/><path id="_Rectangle_7" data-name="&lt;Rectangle&gt;" class="cls-16" transform="rotate(.09 140.106 63.552)" d="M137.25 55.29h11.87v11.87h-11.87z"/><path id="_Rectangle_8" data-name="&lt;Rectangle&gt;" class="cls-16" transform="rotate(.09 127.374 63.562)" d="M120.1 55.27h11.87v11.87H120.1z"/><path id="_Rectangle_9" data-name="&lt;Rectangle&gt;" class="cls-16" transform="rotate(.09 140.116 76.284)" d="M137.22 71.89h11.87v11.87h-11.87z"/><path id="_Rectangle_10" data-name="&lt;Rectangle&gt;" class="cls-16" transform="rotate(.09 127.384 76.294)" d="M120.08 71.86h11.87v11.87h-11.87z"/><path id="_Rectangle_11" data-name="&lt;Rectangle&gt;" class="cls-16" transform="rotate(.09 159.205 63.537)" d="M154.51 55.32h11.87v11.87h-11.87z"/><path id="_Rectangle_12" data-name="&lt;Rectangle&gt;" class="cls-16" transform="rotate(.09 159.215 76.27)" d="M154.49 71.92h11.87v11.87h-11.87z"/><path id="_Rectangle_13" data-name="&lt;Rectangle&gt;" class="cls-17" transform="rotate(.09 222.872 69.853)" d="M218.89 61.24h11.34v11.87h-11.34z"/><path id="_Rectangle_14" data-name="&lt;Rectangle&gt;" class="cls-18" transform="rotate(.09 222.877 76.22)" d="M218.87 73.28h11.34v11.87h-11.34z"/><path id="_Rectangle_15" data-name="&lt;Rectangle&gt;" class="cls-13" transform="rotate(.09 210.14 69.863)" d="M207.49 61.22h11.34v11.87h-11.34z"/><path id="_Rectangle_16" data-name="&lt;Rectangle&gt;" class="cls-19" transform="rotate(.09 210.144 76.23)" d="M207.47 73.26h11.34v11.87h-11.34z"/><path id="_Rectangle_17" data-name="&lt;Rectangle&gt;" class="cls-18" transform="rotate(.09 197.402 63.507)" d="M196.09 61.21h11.34v11.87h-11.34z"/><path id="_Rectangle_18" data-name="&lt;Rectangle&gt;" class="cls-13" transform="rotate(.09 197.412 76.24)" d="M196.07 73.24h11.34v11.87h-11.34z"/><path id="_Rectangle_19" data-name="&lt;Rectangle&gt;" class="cls-20" transform="rotate(.09 191.036 63.512)" d="M184.69 61.19h11.34v11.87h-11.34z"/><path id="_Rectangle_20" data-name="&lt;Rectangle&gt;" class="cls-17" transform="rotate(.09 191.046 76.244)" d="M184.68 73.23h11.34V85.1h-11.34z"/><path id="_Rectangle_21" data-name="&lt;Rectangle&gt;" class="cls-18" transform="rotate(.09 178.303 63.522)" d="M173.3 61.17h11.34v11.87H173.3z"/><path id="_Rectangle_22" data-name="&lt;Rectangle&gt;" class="cls-13" transform="rotate(.09 178.313 76.254)" d="M173.28 73.21h11.34v11.87h-11.34z"/><path id="_Rectangle_23" data-name="&lt;Rectangle&gt;" class="cls-16" transform="rotate(.09 89.162 44.493)" d="M82.41 39.55h9.29v9.29h-9.29z"/><path id="_Rectangle_24" data-name="&lt;Rectangle&gt;" class="cls-15" transform="rotate(.09 70.063 44.508)" d="M68.99 39.53h9.29v9.29h-9.29z"/><path id="_Rectangle_25" data-name="&lt;Rectangle&gt;" class="cls-16" transform="rotate(.09 57.33 44.518)" d="M55.34 39.5h9.29v9.29h-9.29z"/><path id="_Rectangle_26" data-name="&lt;Rectangle&gt;" class="cls-16" transform="rotate(.09 89.152 31.761)" d="M82.43 25.82h9.29v9.29h-9.29z"/><path id="_Rectangle_27" data-name="&lt;Rectangle&gt;" class="cls-16" transform="rotate(.09 95.538 57.22)" d="M94.2 54.34h9.29v9.29H94.2z"/><path id="_Rectangle_28" data-name="&lt;Rectangle&gt;" class="cls-15" transform="rotate(.09 95.548 69.953)" d="M94.18 67.33h9.29v9.29h-9.29z"/><path id="_Rectangle_29" data-name="&lt;Rectangle&gt;" class="cls-16" transform="rotate(.09 95.528 44.488)" d="M94.22 39.55h9.29v9.29h-9.29z"/><path id="_Rectangle_30" data-name="&lt;Rectangle&gt;" class="cls-15" transform="rotate(.09 95.518 31.756)" d="M94.24 25.82h9.29v9.29h-9.29z"/><path id="_Rectangle_31" data-name="&lt;Rectangle&gt;" class="cls-16" transform="rotate(.09 70.053 31.776)" d="M69.01 25.8h9.29v9.29h-9.29z"/><path id="_Rectangle_32" data-name="&lt;Rectangle&gt;" class="cls-15" transform="rotate(.09 57.32 31.786)" d="M55.36 25.78h9.29v9.29h-9.29z"/><path id="_Path_51" data-name="&lt;Path&gt;" class="cls-11" d="M57.77 70.34l-21.4-.03.01-1.94 10.7-4.67 10.69 4.7v1.94z"/><path class="cls-11" transform="rotate(.09 38.257 76.364)" d="M38.99 69.17h1.33v13.76h-1.33z"/><path class="cls-11" transform="rotate(.09 50.99 76.354)" d="M52.95 69.19h1.33v13.76h-1.33z"/><path id="_Path_52" data-name="&lt;Path&gt;" class="cls-11" transform="rotate(-89.91 187.937 82.222)" d="M181.5 66.41h12.87v31.62H181.5z"/><path id="_Path_53" data-name="&lt;Path&gt;" class="cls-14" transform="rotate(-89.91 185.585 82.214)" d="M179.15 67.63h12.87v29.18h-12.87z"/><path id="_Path_54" data-name="&lt;Path&gt;" class="cls-11" transform="rotate(-89.91 203.658 74.028)" d="M201.87 72.72h3.57v2.61h-3.57z"/><path id="_Path_55" data-name="&lt;Path&gt;" class="cls-9" transform="rotate(-89.91 203.658 74.028)" d="M201.87 72.72h3.57v2.61h-3.57z"/><path id="_Path_56" data-name="&lt;Path&gt;" class="cls-10" transform="rotate(-89.91 185.599 73.998)" d="M183.81 57.25h3.57v33.5h-3.57z"/><g id="_Group_3" data-name="&lt;Group&gt;" class="cls-9"><path transform="rotate(-89.91 184.845 82.875)" d="M179.23 74.64h11.23V91.1h-11.23z"/><path class="cls-14" d="M193.59 89h-17.51V76.72h17.51zm-16.46-1h15.42V77.82h-15.42z"/></g><g id="_Group_4" data-name="&lt;Group&gt;" class="cls-9"><path transform="rotate(-89.91 184.845 82.875)" d="M179.23 80.01h11.23v5.72h-11.23z"/><path class="cls-14" d="M188.22 89h-6.77V76.72h6.77zm-5.72-1h4.67V77.82h-4.67z"/></g><path id="_Path_57" data-name="&lt;Path&gt;" class="cls-11" d="M195.55 76.04l-21.39-.03v-1.95l10.71-4.67 10.69 4.71-.01 1.94z"/><path id="_Path_58" data-name="&lt;Path&gt;" class="cls-11" transform="rotate(-89.91 183.748 87.72)" d="M182.82 78.8h1.86v17.85h-1.86z"/><path id="_Rectangle_33" data-name="&lt;Rectangle&gt;" class="cls-21" transform="rotate(.09 44.628 82.726)" d="M37.27 82.79h17.54v7.4H37.27z"/><path id="_Rectangle_34" data-name="&lt;Rectangle&gt;" class="cls-11" transform="rotate(.09 38.267 89.097)" d="M32.13 86.56h16.33v1.94H32.13z"/><path id="_Rectangle_35" data-name="&lt;Rectangle&gt;" class="cls-11" transform="rotate(.09 38.267 89.097)" d="M30.8 88.24h16.33v1.94H30.8z"/><path id="_Rectangle_36" data-name="&lt;Rectangle&gt;" class="cls-11" transform="rotate(.09 44.628 82.726)" d="M34.99 84.63h16.33v1.94H34.99z"/><path id="_Rectangle_37" data-name="&lt;Rectangle&gt;" class="cls-11" transform="rotate(.09 44.628 82.726)" d="M37.28 82.79h16.33v1.94H37.28z"/><path id="_Rectangle_38" data-name="&lt;Rectangle&gt;" class="cls-10" transform="rotate(-179.91 112.625 12.342)" d="M108.78 10.59h7.7v3.5h-7.7z"/><path id="_Rectangle_39" data-name="&lt;Rectangle&gt;" class="cls-9" transform="rotate(-179.91 112.625 12.342)" d="M108.78 10.59h7.7v3.5h-7.7z"/><path id="_Rectangle_40" data-name="&lt;Rectangle&gt;" class="cls-10" transform="rotate(.09 76.404 12.672)" d="M43.26 10.54h65.51v3.5H43.26z"/><g id="_Group_5" data-name="&lt;Group&gt;"><path class="cls-7" d="M57.38 8.81a6.6 6.6 0 0 1-13.19 0z"/><path class="cls-7" d="M50.78 15.49a6.69 6.69 0 0 1-6.68-6.7.1.1 0 0 1 .1-.1h13.19a.1.1 0 0 1 .1.1 6.69 6.69 0 0 1-6.69 6.68zm-6.5-6.61a6.5 6.5 0 0 0 6.49 6.41 6.5 6.5 0 0 0 6.5-6.39z"/></g><g id="_Group_6" data-name="&lt;Group&gt;"><path class="cls-7" d="M64.95 8.82a4.12 4.12 0 0 1-8.24 0z"/><path class="cls-7" d="M60.83 13a4.18 4.18 0 0 1-4.17-4.19h8.24a.06.06 0 0 1 .06.06A4.18 4.18 0 0 1 60.83 13zm-4.06-4.13a4.06 4.06 0 0 0 4.05 4 4.06 4.06 0 0 0 4.06-4z"/></g><g id="_Group_7" data-name="&lt;Group&gt;"><path class="cls-7" d="M61.33 10.74V10l-11.64-.63 6.91-1.55c4.15-.93 8.54-2.46 12.83-1.65a5.15 5.15 0 0 1 2.78 1.26 2.32 2.32 0 0 1 .44 2.83 2.37 2.37 0 0 1-1.53.91 7 7 0 0 1-1.82 0c-2.66-.17-5.3-.43-7.97-.43z"/><path class="cls-7" d="M70.24 11.27h-1l-1.86-.14c-2-.16-4.06-.32-6.1-.32V10l-11.59-.6v-.07l6.91-1.55c.78-.17 1.58-.37 2.36-.57 3.44-.85 7-1.74 10.49-1.08a5.26 5.26 0 0 1 2.8 1.27 2.37 2.37 0 0 1 .44 2.87 2.39 2.39 0 0 1-1.55.92 4.66 4.66 0 0 1-.9.08zm-8.88-.57c2 0 4.08.17 6.07.32l1.86.14a6.93 6.93 0 0 0 1.82 0 2.32 2.32 0 0 0 1.51-.9 2.31 2.31 0 0 0-.44-2.78 5.2 5.2 0 0 0-2.76-1.28c-3.48-.66-7 .23-10.46 1.08-.78.19-1.58.39-2.36.57l-6.68 1.5 11.41.65z"/></g><g id="New_Symbol_65-10" data-name="New Symbol 65"><ellipse class="cls-5" cx="93.35" cy="137.64" rx="1.25" ry="1.15" transform="rotate(-89.91 93.351 137.635)"/><path class="cls-5" d="M295.18 130.1a3.78 3.78 0 0 0-3.61 3.93h7.21a3.78 3.78 0 0 0-3.6-3.93zM284.07 131.07h-3.89c-1.93-2.73-7.88-6.36-10.4-6.36h-18.6c-4.7 0-4.24-2.74-4.09-3.66s.84-2.18 4-2.17h11.06a1.18 1.18 0 0 0 .67-2.16c-3.89-2.7-6.57-4.52-9.64-4.52l-133.12-.2a5.9 5.9 0 0 0-5.11 2.81c-1.16 1.91-4.5 8.12-6.8 9.93a4.26 4.26 0 0 0-1.56 3.36 4.39 4.39 0 0 0 1.09 2.93 3.68 3.68 0 0 0 2.65 1.25l4.65.11c2.47-1.28 2.35 1.23 0 2h-14.85c-2.44 0-4.41 1.06-4.42 2.37s2 2.38 4.41 2.38l157.54.25c1.09 0 2.09-.5 3.94-1.3h9.23a1.87 1.87 0 0 0 1.27-3.25h12a1.88 1.88 0 0 0 0-3.76z"/><path id="_Path_59" data-name="&lt;Path&gt;" class="cls-5" d="M54.22 129.6a3 3 0 1 1 6 0z"/><path id="_Path_60" data-name="&lt;Path&gt;" class="cls-5" d="M77.89 131a2 2 0 1 1 4.05 0"/><path id="_Path_61" data-name="&lt;Path&gt;" class="cls-6" d="M242.78 122.85a3.62 3.62 0 1 1 7.21 0z"/><path id="_Path_62" data-name="&lt;Path&gt;" class="cls-6" d="M120.45 130.5a2.54 2.54 0 1 1 5.06 0z"/><path class="cls-6" d="M279.17 121.75H271a1.57 1.57 0 0 1 0-3.13h8.2a1.57 1.57 0 1 1 0 3.13z"/><path id="_Path_63" data-name="&lt;Path&gt;" class="cls-6" d="M245.74 130.24a3.62 3.62 0 1 1 7.21 0z"/><path id="_Path_64" data-name="&lt;Path&gt;" class="cls-7" d="M0 117.7a3.2 3.2 0 0 1 3.06-3.33 3.2 3.2 0 0 1 3 3.34z"/><path class="cls-7" d="M202.65 108.32c-3.56-6.93-15.09-12.39-21.92-12.4l-102.9-.16c-2.07 0-7.13 2.71-8.87 4.28-2 1.84-12.21 6.65-14.92 7.41a2.86 2.86 0 0 0-.39 0c-1.74 0-5.08 3.35-5.09 5.24s3.34 1.62 5.08 1.62l8.6.21c2.61 0 2.6 4.43 0 4.43H36.61c-1.36 0-4.39 2.15-4.39 3.64s3 1.75 4.39 1.75l175.63.27z"/><path class="cls-7" d="M36.39 113.73a3.87 3.87 0 0 0-3.7 4h7.38a3.87 3.87 0 0 0-3.68-4zM36.4 107.77h5.72a3.87 3.87 0 0 0-3.68-4 3.61 3.61 0 0 0-3 1.74 2.56 2.56 0 0 0-1.72-.69 2.85 2.85 0 0 0-2.72 3h5.4z"/><ellipse class="cls-7" cx="26.3" cy="119.09" rx="2.26" ry="2.07" transform="rotate(-89.91 26.3 119.088)"/><path class="cls-7" d="M39.44 111.82H45a2.81 2.81 0 1 0-5.61 0z"/><path id="_Path_65" data-name="&lt;Path&gt;" class="cls-6" d="M180.63 118.39a3 3 0 1 1 5.89 0z"/><path id="_Path_66" data-name="&lt;Path&gt;" class="cls-7" d="M221.49 131.47a3.7 3.7 0 1 1 7.38 0z"/><path id="_Path_67" data-name="&lt;Path&gt;" class="cls-7" d="M166.84 129.4a2.91 2.91 0 1 1 5.8 0z"/><path id="_Path_68" data-name="&lt;Path&gt;" class="cls-6" d="M67.81 118.62a2.6 2.6 0 1 1 5.18 0z"/><path class="cls-6" d="M219.68 108h-8.4a1.6 1.6 0 1 1 0-3.2h8.4a1.6 1.6 0 0 1 0 3.2z"/><path class="cls-7" d="M214.52 116.58h15.75a1.92 1.92 0 0 0 0-3.84h-15.75a1.92 1.92 0 1 0 0 3.84zM235.64 117.78h-28.26a2.6 2.6 0 0 0-1.78 4.5h-12.59a2.6 2.6 0 1 0 0 5.21h28.26A2.6 2.6 0 0 0 223 123h12.59a2.6 2.6 0 0 0 0-5.21z"/><path id="_Path_69" data-name="&lt;Path&gt;" class="cls-6" d="M192 122.06a3.7 3.7 0 1 1 7.38 0z"/><path id="_Path_70" data-name="&lt;Path&gt;" class="cls-5" d="M86.16 127.05a3.62 3.62 0 1 1 7.21 0z"/><path id="_Path_71" data-name="&lt;Path&gt;" class="cls-5" d="M88.16 119.9a3.62 3.62 0 1 1 7.21 0z"/><path id="_Path_72" data-name="&lt;Path&gt;" class="cls-5" d="M84.46 119.89a2.67 2.67 0 1 1 5.31 0z"/><path id="_Path_73" data-name="&lt;Path&gt;" class="cls-5" d="M162.37 124.57a3.7 3.7 0 1 1 7.38 0z"/><path id="_Path_74" data-name="&lt;Path&gt;" class="cls-5" d="M158.59 124.56a2.73 2.73 0 1 1 5.44 0z"/><path id="_Path_75" data-name="&lt;Path&gt;" class="cls-5" d="M143.46 125.41a4.31 4.31 0 1 1 8.59 0"/></g><path class="cls-11" d="M340.36 65.84a1.15 1.15 0 0 0 1.15-1.15v-7.61a1.15 1.15 0 0 1 1.15-1.15h6.09a3.46 3.46 0 0 0 3.46-3.45v-3.65a1.15 1.15 0 0 1 1.15-1.15h4.11a1.15 1.15 0 0 0 0-2.3h-4.11a3.46 3.46 0 0 0-3.46 3.45v3.66a1.15 1.15 0 0 1-1.15 1.15h-6.09a3.46 3.46 0 0 0-3.46 3.45v7.62a1.15 1.15 0 0 0 1.16 1.13z"/><path class="cls-11" d="M349.66 61.27h3.48a3.46 3.46 0 0 0 3.46-3.45v-2.93a1.15 1.15 0 1 0-2.3 0v2.93a1.15 1.15 0 0 1-1.17 1.18h-3.48a1.15 1.15 0 0 1-1.15-1.15v-2.42a1.15 1.15 0 1 0-2.3 0v2.38a3.46 3.46 0 0 0 3.46 3.46zM327.23 65.82a1.15 1.15 0 0 0 1.15-1.15v-7.61a3.46 3.46 0 0 0-3.45-3.46h-6.09a1.15 1.15 0 0 1-1.15-1.15v-3.68a3.46 3.46 0 0 0-3.45-3.46h-4.12a1.15 1.15 0 0 0 0 2.3h4.12a1.15 1.15 0 0 1 1.15 1.15v3.66a3.46 3.46 0 0 0 3.45 3.46h6.09a1.15 1.15 0 0 1 1.15 1.15v7.62a1.15 1.15 0 0 0 1.15 1.17z"/><path class="cls-11" d="M314.48 61.22H318a3.46 3.46 0 0 0 3.46-3.45v-2.38a1.15 1.15 0 1 0-2.3 0v2.38a1.15 1.15 0 0 1-1.16 1.15h-3.47a1.15 1.15 0 0 1-1.15-1.15v-2.94a1.15 1.15 0 1 0-2.3 0v2.93a3.46 3.46 0 0 0 3.4 3.46zM316.31 50h5.78a3.46 3.46 0 0 0 3.46-3.45v-4.44a1.15 1.15 0 1 0-2.3 0v4.45a1.15 1.15 0 0 1-1.15 1.15h-5.78a1.15 1.15 0 0 0 0 2.3z"/><path class="cls-22" d="M337.51 138.3h-8.26a.29.29 0 0 1 0-.58h8.26a.29.29 0 1 1 0 .58zM337.52 133.8h-8.26a.29.29 0 1 1 0-.58h8.26a.29.29 0 0 1 0 .58zM337.52 129.3h-8.26a.29.29 0 0 1 0-.58h8.26a.29.29 0 0 1 0 .58zM337.53 124.8h-8.26a.29.29 0 1 1 0-.58h8.26a.29.29 0 0 1 0 .58zM337.54 120.3h-8.26a.29.29 0 0 1 0-.58h8.26a.29.29 0 0 1 0 .58zM337.55 115.8h-8.26a.29.29 0 0 1 0-.58h8.26a.29.29 0 0 1 0 .58zM337.55 111.29h-8.26a.29.29 0 1 1 0-.58h8.26a.29.29 0 1 1 0 .58zM337.56 106.79h-8.26a.29.29 0 1 1 0-.58h8.26a.29.29 0 0 1 0 .58zM337.57 102.29h-8.27a.29.29 0 0 1 0-.58h8.26a.29.29 0 0 1 0 .58z"/><path class="cls-22" d="M337.68 142a.29.29 0 0 1-.29-.29l.07-45.86a.29.29 0 0 1 .29-.29.29.29 0 0 1 .29.29l-.04 45.88a.29.29 0 0 1-.32.27zM329.22 142a.29.29 0 0 1-.29-.29l.07-45.85a.29.29 0 0 1 .29-.29.29.29 0 0 1 .29.29l-.07 45.86a.29.29 0 0 1-.29.28z"/><path class="cls-22" d="M337.57 97.79h-8.26a.29.29 0 0 1 0-.58h8.26a.29.29 0 1 1 0 .58zM370.82 138.35h-8.26a.29.29 0 1 1 0-.58h8.26a.29.29 0 0 1 0 .58zM370.82 133.85h-8.26a.29.29 0 1 1 0-.58h8.26a.29.29 0 1 1 0 .58zM370.83 129.35h-8.26a.29.29 0 0 1 0-.58h8.26a.29.29 0 1 1 0 .58zM370.84 124.85h-8.26a.29.29 0 0 1 0-.58h8.26a.29.29 0 0 1 0 .58z"/><path class="cls-22" d="M371 142.07a.29.29 0 0 1-.29-.29v-18.91a.29.29 0 0 1 .29-.29.29.29 0 0 1 .29.29v18.91a.29.29 0 0 1-.29.29zM362.53 142.06a.29.29 0 0 1-.29-.29v-18.91a.29.29 0 0 1 .29-.29.29.29 0 0 1 .29.29v18.91a.29.29 0 0 1-.29.29z"/><path class="cls-23" d="M362.52 81.77s-1.52-6.52-2.93-8.94c0 0-.35 4.33-2.5 4.91z"/><path class="cls-24" d="M362.52 81.77s-1.52-6.52-2.93-8.94c0 0 .61 5.25-1.54 5.83z"/><path class="cls-25" d="M360.42 84.14a3.38 3.38 0 0 1-4.7.89 3.38 3.38 0 0 1-.89-4.7 3.38 3.38 0 0 1 4.7-.89 3.38 3.38 0 0 1 .89 4.7z"/><path class="cls-26" d="M360.61 80.64a3.38 3.38 0 0 0-6.35 1.93 5.81 5.81 0 0 0 6.35-1.93z"/><path class="cls-25" d="M357.92 83.5l-.06-3.09s-2.75 2.9-.69 3.72z"/><rect class="cls-7" x="358.39" y="76.13" width="1.73" height="7.62" rx=".45" ry=".45" transform="rotate(-55.72 359.233 79.947)"/><circle class="cls-26" cx="359.62" cy="83.01" r=".6" transform="rotate(-55.72 359.6 83.008)"/><path class="cls-23" d="M353.85 93.49a3.38 3.38 0 1 1-5.59-3.81l2.63-3.86a3.38 3.38 0 1 1 5.59 3.81z"/><path class="cls-24" d="M353.85 93.49a3.38 3.38 0 0 1-4.7.89c-1.54-1.05-.79-2.28.26-3.82L352 86.7c1.05-1.54 2-2.82 3.55-1.76a3.38 3.38 0 0 1 .89 4.7z"/><path class="cls-7" d="M351.9 94l3.45 2.35-.99 1.46-3.46-2.35"/><path class="cls-27" d="M349.25 93.84c.66-1 1.25-.8 1.76-.45l2.1 1.43-1 1.46-2.36-1.61z"/><path class="cls-26" d="M354 97.73l1.16-1.7c1.48.18 2.48-1.28 1.82-2 0 0 2 .25-.56 3.61a1.51 1.51 0 0 1-2.42.09z"/><path class="cls-26" transform="rotate(-55.72 351.51 90.895)" d="M350.68 87.51h1.69v6.76h-1.69z"/><path class="cls-28" transform="rotate(-55.72 354.287 92.738)" d="M353.34 92.5h1.93v.47h-1.93z"/><circle class="cls-7" cx="359.47" cy="72.06" r=".72" transform="rotate(-55.72 359.45 72.073)"/><path class="cls-25" d="M360.11 83.72l2.11 2.55c.29.19 0 .61-.41.33l-3.14-2.14z"/><path class="cls-24" transform="rotate(-55.72 354.99 84.88)" d="M350.76 84.09h8.5v1.57h-8.5z"/><circle class="cls-25" cx="357.47" cy="81.25" r="1" transform="rotate(-55.72 357.452 81.256)"/><path class="cls-22" d="M325.22 106.39h-9.58a.58.58 0 0 1 0-1.16h9.58a.58.58 0 0 1 0 1.16z"/><path class="cls-11" transform="rotate(-90 374.915 129.085)" d="M362.47 127.85h25.9v1.98h-25.9z"/><path class="cls-11" transform="rotate(-90 357.835 123.985)" d="M340.3 122.76h36.02v1.98H340.3z"/><path class="cls-22" d="M393.1 127.62a2.09 2.09 0 0 1-1.19-.37l-52.14-36a2.1 2.1 0 1 1 2.38-3.45l52.14 36a2.1 2.1 0 0 1-1.19 3.82z"/><path class="cls-11" transform="rotate(-55.35 366.298 110.65)" d="M365.34 78.95h1.98v63.39h-1.98z"/><path class="cls-29" transform="rotate(-89.91 333.766 113.412)" d="M326.7 106.08h14.14v14.66H326.7z"/><path class="cls-24" d="M311 114.24s4.77-4.34 7.22-5.49c0 0-2.09 3.63-.71 5.26z"/><path class="cls-30" d="M311.35 117.27a3.26 3.26 0 0 0 3.24 3.28 3.26 3.26 0 0 0 3.28-3.24 3.26 3.26 0 0 0-3.24-3.28 3.26 3.26 0 0 0-3.28 3.24z"/><path class="cls-30" d="M313 117.06l-3.07.87c-.33 0-.33.48.15.48h3.66z"/><path class="cls-26" d="M313.11 114.39a3.26 3.26 0 0 1 4 5 5.6 5.6 0 0 1-4-5z"/><path class="cls-30" d="M313.67 118.13l1.74-2.42s.6 3.8-1.49 3.33z"/><rect class="cls-7" x="313.74" y="110.9" width="1.66" height="7.34" rx=".43" ry=".43" transform="rotate(-89.68 314.58 114.565)"/><circle class="cls-26" cx="312.6" cy="116.81" r=".58" transform="rotate(-89.68 312.606 116.802)"/><path class="cls-23" d="M311.44 128.28a3.26 3.26 0 1 0 6.51 0v-4.5a3.26 3.26 0 1 0-6.51 0z"/><path class="cls-24" d="M313 128.28c0 1.8-.1 3.26 1.7 3.27a3.26 3.26 0 0 0 3.28-3.24v-4.5a3.26 3.26 0 0 0-3.24-3.28c-1.8 0-1.73 1.44-1.74 3.24z"/><path class="cls-7" d="M312.71 129.74l-4.03-.02-.01 1.71 4.03.02"/><path class="cls-24" d="M314.89 131.07c0-1.13-.56-1.32-1.15-1.32h-2.44v1.71h2.76z"/><path class="cls-26" d="M309 131.55v-2c-1.28-.67-1.27-2.37-.34-2.6 0 0-1.76-.92-1.53 3.17a1.45 1.45 0 0 0 1.87 1.43z"/><path class="cls-26" transform="rotate(-89.4 315.694 127.057)" d="M313.89 124.23h1.63v6.51h-1.63z"/><path class="cls-28" transform="rotate(-89.68 311.497 127.42)" d="M310.56 127.2h1.86v.46h-1.86z"/><circle class="cls-7" cx="318.7" cy="108.21" r=".7" transform="rotate(-89.68 318.714 108.205)"/><path class="cls-24" transform="rotate(-89.4 316.565 115.38)" d="M311.35 115.05h8.5v1.57h-8.5z"/><circle class="cls-30" cx="315.63" cy="111.45" r="1" transform="rotate(-89.68 315.644 111.443)"/><path class="cls-14" d="M333.72 46.48l-1.03 3.14h-3.3l2.67 1.94-1.03 3.15 2.68-1.94 2.68 1.95-1.02-3.15 2.68-1.94-3.31-.01-1.02-3.14z"/><path id="_Path_76" data-name="&lt;Path&gt;" class="cls-9" d="M410.88 142.88c0 2.73-20.74 4.85-46.33 4.74s-46.33-2.41-46.33-5.14 20.74-4.85 46.33-4.74 46.33 2.41 46.33 5.14z"/><path class="cls-11" transform="rotate(-90 341.74 119.03)" d="M319.27 117.82h45.86v1.98h-45.86z"/><path class="cls-11" transform="rotate(-90 323.95 118.98)" d="M301.46 117.79h45.86v1.98h-45.86z"/><path class="cls-31" d="M323.54 69h19.79v25.43h-19.79z"/><path class="cls-11" transform="rotate(-89.91 332.972 95.399)" d="M331.99 83.93h1.98v22.94h-1.98z"/><path class="cls-31" d="M323.48 103.77h19.79v25.43h-19.79z"/><path class="cls-11" transform="rotate(-89.91 349.232 130.163)" d="M348.23 103.34h1.98V157h-1.98z"/><path class="cls-11" d="M323.77 68.25l19.86.03-9.91-14.96-9.95 14.93z"/><circle class="cls-7" cx="339.88" cy="73.13" r="1.99" transform="rotate(-89.91 339.88 73.126)"/><circle class="cls-11" cx="339.63" cy="73.91" r="1.14" transform="rotate(-89.91 339.635 73.912)"/><circle class="cls-7" cx="327.12" cy="73.11" r="1.99" transform="rotate(-89.91 327.125 73.11)"/><circle class="cls-11" cx="327.37" cy="73.9" r="1.14" transform="rotate(-89.91 327.37 73.896)"/><path class="cls-32" transform="rotate(-89.91 333.432 69.958)" d="M332.51 60.07h1.84v19.79h-1.84z"/><path class="cls-7" d="M344.49 69.23h-22a1.16 1.16 0 0 1 0-2.33h22a1.16 1.16 0 0 1 0 2.33z"/><path class="cls-9" d="M336.43 103.79h6.79v25.43h-6.79zM336.49 69.79h6.79v25.43h-6.79z"/><path class="cls-11" transform="rotate(-90 408.91 136.64)" d="M403.98 135.38h10.94v1.98h-10.94z"/><path class="cls-11" transform="rotate(-90 391.115 136.595)" d="M386.17 135.36h10.94v1.98h-10.94z"/><path class="cls-11" transform="rotate(-89.91 400.672 130.423)" d="M399.68 119.42h1.98v22h-1.98z"/><path class="cls-7" d="M344.43 104.73h-22a1.16 1.16 0 0 1 0-2.33h22a1.16 1.16 0 0 1 0 2.33z"/><path class="cls-22" d="M315.63 111.68a.23.23 0 0 1-.23-.23v-6.18a.23.23 0 0 1 .23-.23.23.23 0 0 1 .23.23v6.18a.23.23 0 0 1-.23.23z"/><path class="cls-33" d="M400.79 134.75a.35.35 0 0 1 0-.7h.13a.35.35 0 1 1 0 .7h-.12zm-.93 0h-.13a.35.35 0 0 1-.33-.37.37.37 0 0 1 .37-.33h.12a.35.35 0 0 1 0 .7zm2 0a.35.35 0 0 1 0-.7h.11a.35.35 0 0 1 .07.7h-.15zm-3 0h-.16a.35.35 0 0 1-.3-.39.34.34 0 0 1 .39-.3h.12a.35.35 0 0 1 0 .7zm4.06-.07a.35.35 0 0 1-.05-.69h.13a.34.34 0 0 1 .39.3.35.35 0 0 1-.3.39h-.16zm-5.1-.09h-.18a.35.35 0 1 1 .14-.68h.11a.35.35 0 0 1-.06.69zm6.13-.09a.35.35 0 0 1-.07-.69h.11a.34.34 0 0 1 .42.26.35.35 0 0 1-.26.42h-.12zm-7.15-.15h-.21a.35.35 0 0 1 .19-.67h.1a.35.35 0 0 1-.09.69zm8.17-.1a.35.35 0 0 1-.1-.68h.12a.35.35 0 0 1 .17.68h-.1zm-9.16-.23H395.58a.35.35 0 0 1-.2-.45.34.34 0 0 1 .45-.2h.11a.35.35 0 0 1-.12.68zm10.16-.08a.35.35 0 0 1-.11-.68h.1a.35.35 0 1 1 .24.66h-.12zm-11.28-.36l-.11-.05a.35.35 0 0 1 .31-.62l-.16.31.22-.28zm12.25 0a.35.35 0 0 1-.14-.67h.1a.35.35 0 1 1 .28.64h-.11a.35.35 0 0 1-.17-.1zm-13-.44a.34.34 0 0 1-.18 0l-.11-.06a.35.35 0 1 1 .37-.59l.09.06a.35.35 0 0 1-.18.65zm14 0a.35.35 0 0 1-.17-.66l.1-.05a.35.35 0 1 1 .34.61l-.1.06a.35.35 0 0 1-.27-.1zm.89-.54a.35.35 0 0 1-.2-.64l.1-.07a.35.35 0 0 1 .4.58l-.09.06a.34.34 0 0 1-.3-.08zm-15.73 0a.35.35 0 0 1-.21-.07l-.09-.07a.35.35 0 1 1 .42-.56l.09.07a.35.35 0 0 1-.21.63zm-.81-.66a.35.35 0 0 1-.23-.09l-.1-.09a.35.35 0 0 1 .48-.51l.08.07a.35.35 0 0 1-.23.61z"/><circle class="cls-34" cx="333.64" cy="81.17" r="4.26" transform="rotate(-89.91 333.64 81.167)"/><path class="cls-7" d="M333.54 92.4a6.11 6.11 0 0 1-6.1-6.12h.35a5.76 5.76 0 0 0 5.74 5.72 5.76 5.76 0 0 0 5.76-5.75h.35a6.11 6.11 0 0 1-6.11 6.1z"/><circle class="cls-7" cx="339.82" cy="108.4" r="1.99" transform="rotate(-89.91 339.827 108.394)"/><circle class="cls-11" cx="340.27" cy="107.86" r="1.14" transform="rotate(-89.91 340.277 107.863)"/><circle class="cls-7" cx="327.07" cy="108.38" r="1.99" transform="rotate(-89.91 327.072 108.379)"/><circle class="cls-11" cx="327.86" cy="108" r="1.14" transform="rotate(-89.91 327.862 107.998)"/><path class="cls-7" d="M333.48 127.66a6.11 6.11 0 0 1-6.1-6.12h.35a5.76 5.76 0 0 0 5.75 5.77 5.77 5.77 0 0 0 5.76-5.75h.35a6.12 6.12 0 0 1-6.11 6.1z"/><circle class="cls-34" cx="333.41" cy="116.43" r="4.26" transform="rotate(-89.91 333.413 116.43)"/><path class="cls-11" d="M293.52 35.69a1 1 0 0 1-1-1v-6.93a1 1 0 0 0-1-1h-5.51a3.13 3.13 0 0 1-3.12-3.13v-5.44a1 1 0 1 1 2.08 0v5.39a1 1 0 0 0 1 1h5.51a3.13 3.13 0 0 1 3.12 3.13v6.89a1 1 0 0 1-1.08 1.09z"/><path class="cls-11" d="M285.13 31.53H282a3.13 3.13 0 0 1-3.12-3.13v-2.66a1 1 0 1 1 2.08 0v2.66a1 1 0 0 0 1 1h3.14a1 1 0 0 0 1-1v-2.14a1 1 0 1 1 2.08 0v2.15a3.13 3.13 0 0 1-3.05 3.12zM289.27 22.28H284a1 1 0 0 1 0-2.08h5.22a1 1 0 0 0 1-1V17a1 1 0 1 1 2.08 0v2.15a3.13 3.13 0 0 1-3.03 3.13zM304.82 35.71a1 1 0 0 1-1-1v-6.93a3.13 3.13 0 0 1 3.13-3.12h5.51a1 1 0 0 0 1-1v-5.42a1 1 0 1 1 2.08 0v5.39a3.13 3.13 0 0 1-3.13 3.12h-5.51a1 1 0 0 0-1 1v6.89a1 1 0 0 1-1.08 1.07z"/><path class="cls-11" d="M316.37 31.58h-3.14a3.13 3.13 0 0 1-3.12-3.13v-2.16a1 1 0 1 1 2.08 0v2.15a1 1 0 0 0 1 1h3.14a1 1 0 0 0 1-1v-2.63a1 1 0 1 1 2.08 0v2.65a3.13 3.13 0 0 1-3.04 3.12z"/><path class="cls-22" d="M277.38 101h-7.47a.26.26 0 1 1 0-.53h7.47a.26.26 0 0 1 0 .53zM277.39 96.94h-7.47a.26.26 0 0 1 0-.53h7.47a.26.26 0 0 1 0 .53zM277.39 92.87h-7.47a.26.26 0 0 1 0-.53h7.47a.26.26 0 0 1 0 .53zM277.4 88.8h-7.47a.26.26 0 0 1 0-.53h7.47a.26.26 0 1 1 0 .53zM277.41 84.73h-7.47a.26.26 0 1 1 0-.53h7.47a.26.26 0 0 1 0 .53zM277.41 80.66h-7.47a.26.26 0 0 1 0-.53h7.47a.26.26 0 0 1 0 .53zM277.42 76.59h-7.47a.26.26 0 0 1 0-.53h7.47a.26.26 0 0 1 0 .53zM277.43 72.52H270a.26.26 0 0 1 0-.53h7.47a.26.26 0 0 1 0 .53zM277.43 68.45H270a.26.26 0 0 1 0-.53h7.47a.26.26 0 1 1 0 .53z"/><path class="cls-22" d="M269.75 104.36a.26.26 0 0 1-.26-.26l.07-41.46a.26.26 0 0 1 .26-.26.26.26 0 0 1 .26.26L270 104.1a.26.26 0 0 1-.25.26zM277.4 104.37a.26.26 0 0 1-.26-.26l.07-41.46a.26.26 0 0 1 .26-.26.26.26 0 0 1 .26.26l-.07 41.46a.26.26 0 0 1-.26.26z"/><path class="cls-22" d="M277.44 64.39H270a.26.26 0 0 1 0-.53h7.47a.26.26 0 0 1 0 .53zM265.48 72.16h-3.37a.53.53 0 0 1 0-1.05h3.37a.53.53 0 0 1 0 1.05z"/><path class="cls-35" d="M305.48 75.14s-5.62-.53-7.94 0c0 0 3.37 1.44 3.27 3.31z"/><path class="cls-27" d="M304 76.3s-4.09-1.69-6.41-1.21c0 0 3.37 1.44 3.27 3.31z"/><path class="cls-36" d="M306.82 77.45a2.85 2.85 0 0 1-.54 4 2.85 2.85 0 0 1-4-.54 2.85 2.85 0 0 1 .54-4 2.85 2.85 0 0 1 4 .54z"/><path class="cls-37" d="M304.07 76.36a2.85 2.85 0 0 0-.15 5.59 4.9 4.9 0 0 0 .15-5.59z"/><path class="cls-36" d="M305.64 79.28l-2.49-.78s1.58 3 2.8 1.54z"/><rect class="cls-7" x="299.93" y="76.53" width="6.43" height="1.46" rx=".38" ry=".38" transform="rotate(-37.26 303.122 77.264)"/><circle class="cls-26" cx="305.7" cy="77.79" r=".51" transform="rotate(-37.26 305.69 77.783)"/><path class="cls-35" d="M312.55 85.21a2.85 2.85 0 1 1-4.55 3.45l-2.38-3.13a2.85 2.85 0 1 1 4.54-3.45z"/><path class="cls-27" d="M311.44 86c1 1.25 1.82 2.2.56 3.16a2.85 2.85 0 0 1-4-.54l-2.38-3.13a2.85 2.85 0 0 1 .54-4c1.25-1 1.94.13 2.89 1.38z"/><path class="cls-7" d="M315.53 86.87l2.13 2.81-1.19.9-2.13-2.8"/><path class="cls-27" d="M312 88.95l2-1.54 1 1.35 1.19-.9-1.3-1.7c-.31-.41-.79-.67-1.53-.11l-.1.08-1 .78"/><path class="cls-26" d="M316.23 90.43l1.38-1c1.14.54 2.33-.36 2-1.13 0 0 1.57.75-1.41 2.74a1.27 1.27 0 0 1-1.97-.61z"/><path class="cls-26" transform="rotate(-37.26 309.832 86.365)" d="M307 85.65h5.71v1.43H307z"/><path class="cls-28" transform="rotate(-37.26 312.05 84.635)" d="M311.87 83.82h.4v1.63h-.4z"/><circle class="cls-7" cx="296.91" cy="74.98" r=".61" transform="rotate(-37.26 296.889 74.981)"/><path class="cls-36" d="M306.41 77.59l2.61-1c.23-.18.49.16.15.41l-2.55 1.94z"/><path class="cls-38" d="M313.8 47.5a33.64 33.64 0 0 0-1.08-6.5s-.7 3-2.26 3.15z"/><path class="cls-39" d="M312.72 41s0 3.68-1.51 3.85l2.59 2.68-3.35-3.38c1.55-.21 2.27-3.15 2.27-3.15z"/><path class="cls-40" d="M312.09 48.92a2.38 2.38 0 0 1-3.36.12 2.38 2.38 0 0 1-.12-3.36 2.38 2.38 0 0 1 3.36-.12 2.38 2.38 0 0 1 .12 3.36z"/><path class="cls-26" d="M312.59 46.51a2.38 2.38 0 0 0-4.62.66 4.09 4.09 0 0 0 4.62-.66z"/><path class="cls-40" d="M310.42 48.21l.29-2.16s-2.22 1.72-.87 2.52z"/><rect class="cls-7" x="311.12" y="43.2" width="1.21" height="5.36" rx=".32" ry=".32" transform="rotate(-47.01 311.72 45.877)"/><circle class="cls-26" cx="311.65" cy="48.05" r=".42" transform="rotate(-47.01 311.647 48.06)"/><circle class="cls-7" cx="312.72" cy="40.43" r=".51" transform="rotate(-47.01 312.71 40.428)"/><path class="cls-40" d="M311.92 48.6l1.2 2c.18.17-.06.42-.32.18l-2-1.82z"/><path class="cls-22" d="M312.37 89.88a.26.26 0 0 1-.21-.1L292.1 63.39a.26.26 0 0 1 .42-.32l20.07 26.38a.26.26 0 0 1-.21.42z"/><circle class="cls-36" cx="310.69" cy="87.05" r=".91" transform="rotate(-37.26 310.676 87.045)"/><path class="cls-41" transform="rotate(-37.23 312.897 90.253)" d="M311.12 89.73h3.54v1.05h-3.54z"/><path class="cls-11" transform="rotate(-89.91 285.073 62.235)" d="M284.18 37.77h1.79V86.7h-1.79z"/><path class="cls-42" transform="rotate(-89.91 299.197 47.508)" d="M292.8 40.88h12.78v13.26H292.8z"/><path class="cls-14" d="M299.37 18.03l.92 2.85h3l-2.43 1.76.92 2.84-2.41-1.76-2.43 1.75.93-2.84-2.42-1.76h3l.92-2.84z"/><path class="cls-31" d="M308.48 61.43h-17.89v-23h17.89z"/><path class="cls-9" d="M308.46 62h-6.14V39h6.14z"/><path class="cls-11" d="M308.31 37.74l-17.95-.02 9-13.5 8.95 13.52z"/><path class="cls-32" transform="rotate(-89.91 299.576 39.266)" d="M298.74 30.32h1.66v17.89h-1.66z"/><path class="cls-7" d="M309.47 38.6h-19.89a1.05 1.05 0 0 1 0-2.11h19.89a1.05 1.05 0 0 1 0 2.11z"/><path class="cls-11" transform="rotate(-89.94 265.463 83.365)" d="M244.74 82.47h41.46v1.79h-41.46z"/><path class="cls-11" transform="rotate(-89.94 281.556 83.391)" d="M260.84 82.49h41.46v1.79h-41.46z"/><path id="_Path_77" data-name="&lt;Path&gt;" class="cls-9" d="M328.27 105.54c0 2.73-16.43 4.86-36.7 4.76s-36.7-2.4-36.69-5.13 16.43-4.86 36.7-4.76 36.69 2.4 36.69 5.13z"/><path class="cls-11" transform="rotate(-89.94 291.811 83.196)" d="M270.88 82.3h41.88v1.79h-41.88z"/><path class="cls-11" transform="rotate(-89.94 309.115 83.222)" d="M288.18 82.32h41.88v1.79h-41.88z"/><path class="cls-31" d="M282.39 92.8H264.5v-23h17.89z"/><path class="cls-11" transform="rotate(-89.91 273.398 93.629)" d="M272.5 83.69h1.79v19.89h-1.79z"/><path class="cls-9" d="M282.39 92.8h-6.14v-23h6.14z"/><path class="cls-7" d="M283.38 70.66h-19.89a1.05 1.05 0 0 1 0-2.11h19.89a1.05 1.05 0 0 1 0 2.11z"/><path class="cls-11" transform="matrix(.85 -.52 .52 .85 9.15 166.42)" d="M290.96 66.11h16.86v1.79h-16.86z"/><circle class="cls-7" cx="293.89" cy="42.11" r="1.8" transform="rotate(-89.91 293.889 42.107)"/><circle class="cls-11" cx="294.66" cy="42.47" r="1.03" transform="rotate(-90 294.395 42.665)"/><circle class="cls-7" cx="305.42" cy="42.13" r="1.8" transform="rotate(-89.91 305.418 42.128)"/><circle class="cls-11" cx="306.09" cy="42.56" r="1.03" transform="rotate(-89.91 306.099 42.558)"/><circle class="cls-34" cx="299.66" cy="49.4" r="3.85" transform="rotate(-89.91 299.664 49.394)"/><path class="cls-7" d="M299.74 59.55a5.53 5.53 0 0 1-5.52-5.55h.32a5.21 5.21 0 0 0 5.2 5.22 5.21 5.21 0 0 0 5.21-5.2h.32a5.53 5.53 0 0 1-5.52 5.52z"/><circle class="cls-7" cx="267.75" cy="73.95" r="1.8" transform="rotate(-89.91 267.748 73.948)"/><circle class="cls-11" cx="268.08" cy="73.26" r="1.03" transform="rotate(-89.91 268.078 73.257)"/><circle class="cls-7" cx="279.28" cy="73.97" r="1.8" transform="rotate(-89.91 279.278 73.969)"/><circle class="cls-11" cx="279.3" cy="73.21" r="1.03" transform="rotate(-89.91 279.302 73.203)"/><path class="cls-7" d="M273.44 91.39a5.52 5.52 0 0 1-5.52-5.53h.32a5.21 5.21 0 0 0 5.2 5.22 5.21 5.21 0 0 0 5.21-5.2h.35a5.53 5.53 0 0 1-5.52 5.52z"/><circle class="cls-34" cx="273.47" cy="81.24" r="3.85" transform="rotate(-89.91 273.469 81.24)"/><path id="_Path_78" data-name="&lt;Path&gt;" class="cls-9" d="M280.44 135.76c0 1.85-14.06 3.29-31.41 3.21s-31.4-1.64-31.4-3.49 14.06-3.29 31.41-3.21 31.4 1.64 31.4 3.49z"/><path class="cls-11" d="M261.1 135.5l-24.03-.03 12.05-18.06 11.98 18.09z"/><g id="New_Symbol_13-3" data-name="New Symbol 13"><ellipse class="cls-43" cx="88.48" cy="142.28" rx="1.43" ry="17.86" transform="rotate(-89.91 88.486 142.277)"/><g id="_Group_8" data-name="&lt;Group&gt;"><path id="_Path_79" data-name="&lt;Path&gt;" class="cls-44" transform="rotate(-89.91 85.954 135.73)" d="M79.54 134.24h12.84v2.98H79.54z"/><path id="_Path_80" data-name="&lt;Path&gt;" class="cls-45" d="M86.02 95.36l-12.84 40.32 12.77.02 12.77.02-12.7-40.36z"/><path id="_Path_81" data-name="&lt;Path&gt;" class="cls-9" d="M84.47 135.69l2.97.01v1.46l-2.98-.99.01-.48z"/></g><g id="_Group_9" data-name="&lt;Group&gt;"><path id="_Path_82" data-name="&lt;Path&gt;" class="cls-46" transform="rotate(-89.91 77.364 138.343)" d="M73.4 137.34h7.93v2H73.4z"/><path id="_Path_83" data-name="&lt;Path&gt;" class="cls-47" d="M77.41 112.83l-8.62 27.08 8.57.01 8.58.01-8.53-27.1z"/><g id="_Group_10" data-name="&lt;Group&gt;"><g id="_Group_11" data-name="&lt;Group&gt;"><path class="cls-48" d="M81.22 124.92l-3.84 3.82-3.82-3.83.48-1.51 3.35 3.35 3.35-3.34.48 1.51z"/><path class="cls-48" d="M82.67 129.54l-5.3 5.29-5.28-5.3.48-1.5 4.81 4.81 4.82-4.81.47 1.51z"/><path class="cls-48" d="M84.13 134.17l-5.77 5.75h-1.99l-5.75-5.77.48-1.51 6.27 6.29 6.28-6.27.48 1.51z"/></g><g id="_Group_12" data-name="&lt;Group&gt;"><path class="cls-48" d="M78.31 115.67l-.91.9-.9-.91.49-1.51.42.42.42-.42.48 1.52zM79.76 120.29l-2.37 2.36-2.36-2.37.48-1.5 1.88 1.89 1.89-1.89.48 1.51z"/></g></g><path id="_Path_84" data-name="&lt;Path&gt;" class="cls-9" d="M76.36 139.92h2v1.35l-2-.91v-.44z"/></g><g id="_Group_13" data-name="&lt;Group&gt;"><path id="_Path_85" data-name="&lt;Path&gt;" class="cls-46" transform="rotate(-89.91 95.522 136.302)" d="M89.48 134.9h12.08v2.8H89.48z"/><path id="_Path_86" data-name="&lt;Path&gt;" class="cls-49" d="M95.58 100.07L83.5 138.01l12.02.02 12.01.01-11.95-37.97z"/><path id="_Path_87" data-name="&lt;Path&gt;" class="cls-50" d="M95.58 100.07L83.5 138.01l12.02.02 12.01.01-11.95-37.97z"/><path id="_Path_88" data-name="&lt;Path&gt;" class="cls-9" d="M94.12 138.02l2.8.01v1.88l-2.81-1.27.01-.62z"/><g id="_Group_14" data-name="&lt;Group&gt;"><g id="_Group_15" data-name="&lt;Group&gt;"><path class="cls-51" d="M100.82 116.71l-5.28 5.26-5.25-5.28.48-1.51 4.77 4.79 4.8-4.77.48 1.51z"/><path class="cls-51" d="M102.86 123.19l-7.33 7.31-7.3-7.33.48-1.51 6.82 6.84 6.85-6.82.48 1.51z"/><path class="cls-51" d="M104.9 129.67l-8.39 8.36-1.99-.01-8.35-8.38.48-1.51 8.87 8.9 8.9-8.88.48 1.52z"/></g><g id="_Group_16" data-name="&lt;Group&gt;"><path class="cls-51" d="M96.73 103.75l-1.16 1.16-1.16-1.16.48-1.51.68.68.69-.68.47 1.51zM98.78 110.23l-3.23 3.21-3.2-3.22.48-1.51 2.73 2.74 2.74-2.73.48 1.51z"/></g></g><path id="_Path_89" data-name="&lt;Path&gt;" class="cls-52" d="M95.58 100.07l-6.97 37.94H83.5l12.08-37.94z"/><path class="cls-7" d="M85.31 134.13h-8.94a.12.12 0 0 0-.12.12 1.61 1.61 0 0 0 3.1.6 1.6 1.6 0 0 0 3 0 1.61 1.61 0 0 0 3.1-.59.12.12 0 0 0-.14-.13zM77.8 131.16a1.61 1.61 0 0 0 1.61-1.6.12.12 0 0 0-.12-.12h-8.94a.12.12 0 0 0-.12.12 1.61 1.61 0 0 0 3.1.6 1.6 1.6 0 0 0 3 0 1.61 1.61 0 0 0 1.47 1zM76.27 123.45a1.61 1.61 0 0 0 3.1.6 1.61 1.61 0 0 0 3.1-.59.12.12 0 0 0-.12-.12h-6a.12.12 0 0 0-.08.11zM75.79 120.42a1.61 1.61 0 0 0 1.61-1.6.12.12 0 0 0-.12-.12h-3a.12.12 0 0 0-.12.12 1.61 1.61 0 0 0 1.63 1.6zM106.65 131H94.13a.12.12 0 0 0-.12.12 2.2 2.2 0 0 0 4.29.68 2.19 2.19 0 0 0 4.17 0 2.2 2.2 0 0 0 4.29-.67.12.12 0 0 0-.11-.13zM96.22 127.18a2.21 2.21 0 0 0 2.21-2.2.12.12 0 0 0-.12-.12H85.79a.12.12 0 0 0-.12.12 2.2 2.2 0 0 0 4.29.68 2.19 2.19 0 0 0 4.17 0 2.2 2.2 0 0 0 2.09 1.52zM95.2 118.75a.12.12 0 0 0-.12.12 2.2 2.2 0 0 0 4.29.68 2.2 2.2 0 0 0 4.29-.67.12.12 0 0 0-.12-.12H95.2zM92.17 115.05a2.2 2.2 0 0 0 2.09-1.52 2.2 2.2 0 0 0 4.29-.67.12.12 0 0 0-.12-.12h-8.34a.12.12 0 0 0-.12.12 2.21 2.21 0 0 0 2.2 2.19zM97.3 109.64a2.21 2.21 0 0 0 2.21-2.2.12.12 0 0 0-.12-.12h-4.17a.12.12 0 0 0-.12.12 2.21 2.21 0 0 0 2.2 2.2z"/></g></g><path class="cls-53" d="M131.92 126.39h1v13.48h-1zM170.89 126.39h1v13.48h-1z"/><ellipse class="cls-9" cx="155.23" cy="140.45" rx="23.64" ry="1.84"/><g id="_Group_17" data-name="&lt;Group&gt;"><path class="cls-54" d="M131.1 98.67h41.48v26.75H131.1z"/><path class="cls-53" d="M173.58 126.43H130.1V97.67h43.48zm-41.48-2h39.48V99.67H132.1z"/></g><path class="cls-55" d="M141.69 110l-.83-.55 2.39-3.62a3.6 3.6 0 0 0 .5-.93l.4-1.4.54 1.36c.54 1.34 1 2.73 1.46 4.11l.19.62-4.47.22v-.07zm2.48-3.74l-.08.12-1.58 2.38 2.5-.12c-.27-.82-.55-1.64-.85-2.4zM140.11 117.54h-3.34l.69-.81a12.06 12.06 0 0 0 1.73-2.71 1.38 1.38 0 0 1 .41-.57 1.37 1.37 0 0 1 .76-.23h.51a28.89 28.89 0 0 1 3.27-.07 2.8 2.8 0 0 1 2.29 1.46c.49.67 1 1.33 1.58 2l.68.78-1 .05c-2.54.04-5.06.1-7.58.1zm-1.26-1c2.57 0 5.17 0 7.74-.13-.33-.41-.66-.83-1-1.25-.54-.72-.82-1-1.54-1.06a28.43 28.43 0 0 0-3.16.07h-.5a1 1 0 0 0-.23 0 1.09 1.09 0 0 0-.1.19 13 13 0 0 1-1.21 2.17zM149.64 110.34a3.67 3.67 0 0 1-1-.11 2 2 0 0 1-1.4-1.18 2.13 2.13 0 0 1 .21-1.74 1.87 1.87 0 0 1 .51-.63 1.16 1.16 0 0 1 1-.2v.1a1.7 1.7 0 0 1 .58.32 7.76 7.76 0 0 1 1.08 1 1.93 1.93 0 0 1 .33.5 2.1 2.1 0 0 1 .09 1.08.77.77 0 0 1-.79.79zm-1-2.89h-.06a.88.88 0 0 0-.22.3 1.18 1.18 0 0 0-.15.92 1 1 0 0 0 .73.56 3.73 3.73 0 0 0 1.12.06 1.07 1.07 0 0 0 0-.49 1.11 1.11 0 0 0-.17-.24 6.76 6.76 0 0 0-.95-.92c-.17-.14-.24-.15-.24-.15zM163.73 107a3.29 3.29 0 0 1-1.43-.43 3.12 3.12 0 0 0-2.76-.16l-.26.05a3.93 3.93 0 0 1-2.93-.27l-.21-.15a1.91 1.91 0 0 0-.24-.16 1.08 1.08 0 0 0-.95.09 4.17 4.17 0 0 0-1 .87l-.73-.68a5 5 0 0 1 1.23-1.06 2 2 0 0 1 1.88-.11 2.93 2.93 0 0 1 .38.25l.16.11a3.06 3.06 0 0 0 2.19.13l.26-.05a5.22 5.22 0 0 1 2.59-.1 5.37 5.37 0 0 1 .82.34 2.19 2.19 0 0 0 1 .33v1zM153.35 109.43l-.09-1c3.17-.3 6.39-.43 9.58-.42v1c-3.17-.01-6.36.12-9.49.42zM157.56 119.59v-.27h-4.6l.06-5.38h1l-.05 4.37h4.46v.26h.82a43 43 0 0 1 .12-4.68c-1.94 0-3.9 0-5.84-.08v-1c2.1.08 4.24.11 6.34.08h.56l-.05.55a41.56 41.56 0 0 0-.15 5.61v.52z"/><path class="cls-55" d="M147.1 114.24c-2.77 0-5.57-.12-8.33-.37l-1.07-.1.77-.76a16.22 16.22 0 0 0 2.87-3.83l.88.47a17.19 17.19 0 0 1-2.32 3.35c2.32.18 4.66.28 7 .28-.21-.36-.44-.72-.66-1.07a8.22 8.22 0 0 1-1.57-3.6l1-.1a7.35 7.35 0 0 0 1.41 3.15 15.22 15.22 0 0 1 1.1 1.9l.32.7h-1.4z"/><path class="cls-56" d="M172.89 116.4s5-4.62 7.61-5.85c0 0-2.2 3.85-.72 5.58z"/><path class="cls-57" d="M173.3 119.6a3.45 3.45 0 0 0 3.45 3.45 3.45 3.45 0 0 0 3.45-3.45 3.45 3.45 0 0 0-3.45-3.45 3.45 3.45 0 0 0-3.45 3.45z"/><path class="cls-26" d="M175.15 116.55a3.45 3.45 0 0 1 4.24 5.27 5.93 5.93 0 0 1-4.24-5.27z"/><path class="cls-57" d="M175.76 120.5l1.82-2.57s.66 4-1.56 3.53z"/><rect class="cls-7" x="172.81" y="115.85" width="7.77" height="1.76" rx=".46" ry=".46"/><circle class="cls-26" cx="174.62" cy="119.11" r=".62"/><path class="cls-56" d="M173.46 131.26a3.45 3.45 0 1 0 6.9 0v-4.76a3.45 3.45 0 1 0-6.9 0z"/><path class="cls-7" d="M176.17 135.04v4.26h1.81v-4.26"/><path class="cls-56" d="M177.56 132.72c-1.2 0-1.39.6-1.39 1.22v2.59H178v-2.92z"/><path class="cls-26" d="M178.1 139H176c-.7 1.35-2.5 1.35-2.75.37 0 0-1 1.87 3.37 1.6a1.54 1.54 0 0 0 1.48-1.97zM173.46 129.54h6.9v1.72h-6.9z"/><path class="cls-58" d="M173.26 129.37h.48v1.97h-.48z"/><circle class="cls-7" cx="181.03" cy="109.97" r=".74"/><circle class="cls-57" cx="176.85" cy="129.82" r="1.31"/><path class="cls-57" d="M173.8 119.43l-3.24.94c-.35 0-.35.51.16.51h3.87z"/><path class="cls-59" d="M188.79 116.4s5-4.62 7.61-5.85c0 0-2.2 3.85-.72 5.58z"/><path class="cls-40" d="M189.2 119.6a3.45 3.45 0 0 0 3.45 3.45 3.45 3.45 0 0 0 3.45-3.45 3.45 3.45 0 0 0-3.45-3.45 3.45 3.45 0 0 0-3.45 3.45z"/><path class="cls-26" d="M191 116.55a3.45 3.45 0 0 1 4.24 5.27 5.93 5.93 0 0 1-4.24-5.27z"/><path class="cls-40" d="M191.66 120.5l1.82-2.57s.66 4-1.56 3.53z"/><rect class="cls-7" x="188.71" y="115.85" width="7.77" height="1.76" rx=".46" ry=".46"/><circle class="cls-26" cx="190.52" cy="119.11" r=".62"/><path class="cls-59" d="M189.36 131.26a3.45 3.45 0 1 0 6.9 0v-4.76a3.45 3.45 0 1 0-6.9 0z"/><path class="cls-7" d="M192.07 135.04v4.26h1.81v-4.26"/><path class="cls-59" d="M193.46 132.72c-1.2 0-1.39.6-1.39 1.22v2.59h1.81v-2.92z"/><path class="cls-26" d="M194 139h-2.09c-.7 1.35-2.5 1.35-2.75.37 0 0-1 1.87 3.37 1.6A1.54 1.54 0 0 0 194 139zM189.36 129.54h6.9v1.72h-6.9z"/><path class="cls-58" d="M189.16 129.37h.48v1.97h-.48z"/><circle class="cls-7" cx="196.93" cy="109.97" r=".74"/><circle class="cls-57" cx="192.75" cy="129.82" r="1.31"/><path class="cls-40" d="M189.7 119.43l-3.24.94c-.35 0-.35.51.16.51h3.87z"/><path class="cls-60" d="M132.89 116.4s-5-4.62-7.61-5.85c0 0 2.2 3.85.72 5.58z"/><path class="cls-61" d="M132.48 119.6A3.45 3.45 0 0 1 129 123a3.45 3.45 0 0 1-3.45-3.45 3.45 3.45 0 0 1 3.45-3.45 3.45 3.45 0 0 1 3.45 3.45z"/><path class="cls-26" d="M130.63 116.55a3.45 3.45 0 0 0-4.24 5.27 5.93 5.93 0 0 0 4.24-5.27z"/><path class="cls-26" d="M124.69 122.07a2.36 2.36 0 0 0 1-1.91 2.36 2.36 0 0 0-3.15 2.2 2.36 2.36 0 0 0 2.15-.29z"/><path class="cls-61" d="M130 120.5l-1.82-2.57s-.66 4 1.56 3.53z"/><rect class="cls-7" x="125.2" y="115.85" width="7.77" height="1.76" rx=".46" ry=".46"/><circle class="cls-26" cx="131.16" cy="119.11" r=".62"/><path class="cls-60" d="M132.32 131.26a3.45 3.45 0 1 1-6.9 0v-4.76a3.45 3.45 0 1 1 6.9 0z"/><path class="cls-7" d="M129.61 135.04v4.26h-1.81v-4.26"/><path class="cls-60" d="M128.22 132.72c1.2 0 1.39.6 1.39 1.22v2.59h-1.81v-2.92zM130.3 125.81c.45-1.11 1.08-1.06 1.66-.83l2.4 1-.68 1.67-2.7-1.1z"/><path class="cls-26" d="M127.68 139h2.09c.7 1.35 2.5 1.35 2.75.37 0 0 1 1.87-3.37 1.6a1.54 1.54 0 0 1-1.47-1.97zM125.42 129.54h6.9v1.72h-6.9z"/><path class="cls-58" d="M132.03 129.37h.48v1.97h-.48z"/><circle class="cls-7" cx="124.75" cy="109.97" r=".74"/><circle class="cls-61" cx="128.93" cy="129.82" r="1.31"/><path class="cls-62" transform="rotate(-47.21 139.523 122.305)" d="M133.29 121.8h12.43v1h-12.43z"/><circle class="cls-61" cx="134.99" cy="127.21" r="1.31"/><path class="cls-61" d="M132 119.43l3.24.94c.35 0 .35.51-.16.51h-3.88z"/><path class="cls-63" d="M176.69 144.2a3.13 3.13 0 1 0 6.25 0v-4.32a3.13 3.13 0 1 0-6.25 0z"/><path class="cls-7" d="M179.14 147.63v3.87h1.64v-3.87"/><path class="cls-63" d="M180.4 145.53c-1.09 0-1.26.54-1.26 1.11V149h1.64v-2.65z"/><path class="cls-26" d="M180.89 151.2H179c-.63 1.23-2.27 1.23-2.49.34 0 0-.87 1.69 3.05 1.45a1.39 1.39 0 0 0 1.33-1.79zM176.69 142.64h6.25v1.56h-6.25z"/><path class="cls-58" d="M176.51 142.49h.44v1.79h-.44z"/><circle class="cls-57" cx="179.76" cy="142.9" r="1.19"/><path class="cls-63" d="M179 129.47s6-1.62 8.56-1.53c0 0-3.37 2.18-2.91 4.19z"/><path class="cls-57" d="M178 132.21a3.13 3.13 0 0 0 1.33 4.21 3.13 3.13 0 0 0 4.21-1.33 3.13 3.13 0 0 0-1.33-4.21 3.13 3.13 0 0 0-4.21 1.33z"/><path class="cls-64" d="M180.72 130.53a3.12 3.12 0 0 1 1.21 6 5.37 5.37 0 0 1-1.21-6z"/><path class="cls-64" d="M184.27 138.12a1.71 1.71 0 0 1-1.84-1.94 1.69 1.69 0 0 1 1.84 1.94z"/><path class="cls-57" d="M179.56 134l2.54-1.31s-1.15 3.51-2.73 2.19z"/><rect class="cls-7" x="181.08" y="127.8" width="1.6" height="7.04" rx=".42" ry=".42" transform="rotate(-62.56 181.886 131.324)"/><circle class="cls-26" cx="179.22" cy="132.37" r=".56" transform="rotate(-62.56 179.224 132.366)"/><circle class="cls-7" cx="188.19" cy="127.7" r=".67" transform="rotate(-62.56 188.192 127.696)"/><path class="cls-57" d="M178.42 132.28l-3-.6c-.28-.15-.5.26-.09.47l3.11 1.62z"/><path class="cls-63" d="M121.54 151.54a3.13 3.13 0 1 1-6.25 0v-4.32a3.13 3.13 0 1 1 6.25 0z"/><path class="cls-7" d="M119.08 154.97v3.86h-1.64v-3.86"/><path class="cls-63" d="M117.82 152.86c1.09 0 1.26.54 1.26 1.11v2.35h-1.64v-2.65z"/><path class="cls-26" d="M117.33 158.53h1.9c.63 1.23 2.27 1.23 2.49.34 0 0 .87 1.69-3.05 1.45a1.39 1.39 0 0 1-1.34-1.79zM115.28 149.98h6.25v1.56h-6.25z"/><path class="cls-58" d="M121.28 149.83h.44v1.79h-.44z"/><circle class="cls-25" cx="118.46" cy="150.24" r="1.19"/><path class="cls-63" d="M119.26 136.8s-6-1.62-8.56-1.53c0 0 3.37 2.18 2.91 4.19z"/><path class="cls-25" d="M120.27 139.55a3.13 3.13 0 0 1-1.33 4.21 3.13 3.13 0 0 1-4.21-1.33 3.13 3.13 0 0 1 1.33-4.21 3.13 3.13 0 0 1 4.21 1.33z"/><path class="cls-65" d="M117.51 137.86a3.12 3.12 0 0 0-1.21 6 5.37 5.37 0 0 0 1.21-6z"/><path class="cls-65" d="M113.95 145.45a1.71 1.71 0 0 0 1.84-1.94 1.69 1.69 0 0 0-1.84 1.94z"/><path class="cls-25" d="M118.66 141.3l-2.54-1.3s1.15 3.51 2.73 2.19z"/><rect class="cls-7" x="112.82" y="137.86" width="7.04" height="1.6" rx=".42" ry=".42" transform="rotate(-27.44 116.34 138.642)"/><circle class="cls-26" cx="119" cy="139.7" r=".56" transform="rotate(-27.44 118.99 139.701)"/><circle class="cls-7" cx="110.03" cy="135.03" r=".67" transform="rotate(-27.44 110.021 135.016)"/><path class="cls-25" d="M119.8 139.62l3-.6c.28-.15.5.26.09.47l-3.11 1.62z"/><circle class="cls-57" cx="143.14" cy="152.64" r="1.19"/><path class="cls-7" d="M147.2 153.8l3.86-.31.13 1.63-3.86.31"/><path class="cls-66" d="M145.21 155.22c-.09-1.08.44-1.3 1-1.35l2.34-.19.13 1.63-2.64.21z"/><path class="cls-26" d="M150.9 155.25l-.15-1.89c1.17-.73 1-2.36.14-2.51 0 0 1.62-1 1.69 2.93a1.39 1.39 0 0 1-1.68 1.47z"/><path class="cls-66" d="M148.89 152.48a3.13 3.13 0 1 1-6.25 0v-4.32a3.13 3.13 0 1 1 6.25 0z"/><path class="cls-26" d="M142.64 150.92h6.25v1.56h-6.25z"/><path class="cls-58" d="M148.63 150.77h.44v1.79h-.44z"/><circle class="cls-57" cx="148.9" cy="152.56" r="1.19"/><path class="cls-57" d="M145.6 141.64l2.59-1.64c.21-.24.56.07.25.41l-2.33 2.59z"/><path class="cls-66" d="M145.8 137.6s-6.17-.45-8.7.14c0 0 3.73 1.49 3.66 3.55z"/><path class="cls-57" d="M147.32 140.1a3.13 3.13 0 0 1-.5 4.39 3.13 3.13 0 0 1-4.39-.5 3.13 3.13 0 0 1 .5-4.39 3.13 3.13 0 0 1 4.39.5z"/><path class="cls-64" d="M144.28 139a3.12 3.12 0 0 0 0 6.13c2.89-.13 3.45-6.6 0-6.13z"/><path class="cls-57" d="M146.94 141.65l-1.29-1.2s-.38 3.45 1.12 2.08z"/><rect class="cls-7" x="139.77" y="139.18" width="7.04" height="1.6" rx=".42" ry=".42" transform="matrix(.78 -.62 .62 .78 -55.99 119.6)"/><circle class="cls-7" cx="136.4" cy="137.63" r=".67" transform="rotate(-38.49 136.404 137.63)"/><circle class="cls-25" cx="171.67" cy="152.64" r="1.19"/><path class="cls-7" d="M167.6 153.8l-3.85-.31-.13 1.63 3.85.31"/><path class="cls-64" d="M169.59 155.22c.09-1.08-.44-1.3-1-1.35l-2.34-.19-.13 1.63 2.64.21z"/><path class="cls-26" d="M163.9 155.25l.15-1.89c-1.17-.73-1-2.36-.14-2.51 0 0-1.62-1-1.69 2.93a1.39 1.39 0 0 0 1.68 1.47z"/><path class="cls-64" d="M165.91 152.48a3.13 3.13 0 1 0 6.25 0v-4.32a3.13 3.13 0 1 0-6.25 0z"/><path class="cls-26" d="M165.91 150.92h6.25v1.56h-6.25z"/><path class="cls-58" d="M165.73 150.77h.44v1.79h-.44z"/><circle class="cls-25" cx="165.9" cy="152.56" r="1.19"/><path class="cls-57" d="M169.2 141.64l-2.59-1.64c-.21-.24-.56.07-.25.41l2.32 2.63z"/><path class="cls-64" d="M169 137.6s6.17-.45 8.7.14c0 0-3.73 1.49-3.66 3.55z"/><path class="cls-25" d="M167.48 140.1a3.13 3.13 0 0 0 .5 4.39 3.13 3.13 0 0 0 4.39-.5 3.13 3.13 0 0 0-.5-4.39 3.13 3.13 0 0 0-4.39.5z"/><path class="cls-26" d="M170.52 139a3.12 3.12 0 0 1 0 6.13c-2.88-.13-3.45-6.6 0-6.13z"/><path class="cls-25" d="M167.86 141.65l1.29-1.2s.38 3.45-1.12 2.08z"/><rect class="cls-7" x="170.71" y="136.46" width="1.6" height="7.04" rx=".42" ry=".42" transform="rotate(-51.51 171.506 139.98)"/><circle class="cls-7" cx="178.4" cy="137.63" r=".67" transform="rotate(-51.51 178.4 137.633)"/><circle class="cls-67" cx="192.32" cy="147.44" r="1.19"/><path class="cls-68" d="M185.89 148.74a3.13 3.13 0 1 0 6.25 0v-4.32a3.13 3.13 0 1 0-6.25 0z"/><path class="cls-7" d="M187.24 152.17v3.87h1.63v-3.87"/><path class="cls-68" d="M188.5 150.07c-1.09 0-1.26.54-1.26 1.11v2.35h1.64v-2.65z"/><path class="cls-26" d="M189 155.74h-1.9c-.63 1.23-2.27 1.23-2.49.34 0 0-.87 1.69 3.05 1.45a1.39 1.39 0 0 0 1.34-1.79z"/><path class="cls-7" d="M189.63 152.17v3.87h1.64v-3.87"/><path class="cls-68" d="M190.89 150.07c-1.09 0-1.26.54-1.26 1.11v2.35h1.64v-2.65z"/><path class="cls-26" d="M191.38 155.74h-1.9c-.63 1.23-.61 1.36-.83.46 0 0-2.53 1.56 1.39 1.32a1.39 1.39 0 0 0 1.34-1.78zM185.89 147.18h6.25v1.56h-6.25z"/><path class="cls-58" d="M185.71 147.03h.44v1.79h-.44z"/><circle class="cls-67" cx="185.93" cy="147.44" r="1.19"/><path class="cls-67" d="M189.18 137.9l-2.59-1.64c-.21-.24-.56.07-.25.41l2.32 2.63z"/><path class="cls-68" d="M189 133.86s6.17-.45 8.7.14c0 0-3.73 1.49-3.66 3.55z"/><path class="cls-67" d="M187.47 136.37a3.13 3.13 0 0 0 .5 4.39 3.13 3.13 0 0 0 4.39-.5 3.13 3.13 0 0 0-.5-4.39 3.13 3.13 0 0 0-4.39.5z"/><path class="cls-69" d="M190.5 135.24a3.12 3.12 0 0 1 0 6.13c-2.88-.1-3.5-6.57 0-6.13z"/><path class="cls-67" d="M187.85 137.91l1.29-1.2s.38 3.45-1.12 2.08z"/><rect class="cls-7" x="190.7" y="132.72" width="1.6" height="7.04" rx=".42" ry=".42" transform="rotate(-51.51 191.489 136.244)"/><circle class="cls-7" cx="198.38" cy="133.9" r=".67" transform="rotate(-51.51 198.383 133.897)"/><circle class="cls-57" cx="131.09" cy="148.9" r="1.19"/><path class="cls-56" d="M137.52 150.2a3.13 3.13 0 1 1-6.25 0v-4.32a3.13 3.13 0 1 1 6.25 0z"/><path class="cls-7" d="M136.17 153.63v3.87h-1.63v-3.87"/><path class="cls-56" d="M134.91 151.53c1.09 0 1.26.54 1.26 1.11V155h-1.64v-2.65z"/><path class="cls-26" d="M134.42 157.2h1.9c.63 1.23 2.27 1.23 2.49.34 0 0 .87 1.69-3.05 1.45a1.39 1.39 0 0 1-1.34-1.79z"/><path class="cls-7" d="M133.78 153.63v3.87h-1.64v-3.87"/><path class="cls-56" d="M132.52 151.53c1.09 0 1.26.54 1.26 1.11V155h-1.64v-2.65z"/><path class="cls-26" d="M132 157.2h1.9c.63 1.23.61 1.36.83.46 0 0 2.53 1.56-1.39 1.32a1.39 1.39 0 0 1-1.34-1.78zM131.26 148.64h6.25v1.56h-6.25z"/><path class="cls-58" d="M137.26 148.49h.44v1.79h-.44z"/><circle class="cls-57" cx="137.48" cy="148.9" r="1.19"/><path class="cls-57" d="M134.23 139.36l2.59-1.64c.21-.24.56.07.25.41l-2.32 2.63z"/><path class="cls-56" d="M134.43 135.32s-6.17-.45-8.7.14c0 0 3.73 1.49 3.66 3.55z"/><path class="cls-57" d="M135.94 137.82a3.13 3.13 0 0 1-.5 4.39 3.13 3.13 0 0 1-4.39-.5 3.13 3.13 0 0 1 .5-4.39 3.13 3.13 0 0 1 4.39.5z"/><path class="cls-70" d="M132.91 136.7a3.12 3.12 0 0 0 0 6.13c2.88-.1 3.45-6.57 0-6.13z"/><path class="cls-70" d="M137.19 142.92a2.52 2.52 0 0 1-2.76-1.69 2.49 2.49 0 0 1 2.76 1.69zM129.94 144.07a2.52 2.52 0 0 0 1.63-2.8 2.49 2.49 0 0 0-1.63 2.8z"/><path class="cls-57" d="M135.56 139.37l-1.29-1.2s-.38 3.45 1.12 2.08z"/><rect class="cls-7" x="128.39" y="136.9" width="7.04" height="1.6" rx=".42" ry=".42" transform="matrix(.78 -.62 .62 .78 -57.04 112.03)"/><circle class="cls-7" cx="125.02" cy="135.35" r=".67" transform="rotate(-38.49 125.033 135.364)"/><circle class="cls-57" cx="163.75" cy="153.55" r="1.19"/><path class="cls-7" d="M159.68 154.71l-3.85-.31-.13 1.64 3.85.3"/><path class="cls-59" d="M161.68 156.14c.09-1.08-.44-1.3-1-1.35l-2.34-.19-.13 1.63 2.64.21z"/><path class="cls-26" d="M156 156.17l.15-1.89c-1.17-.73-1-2.36-.14-2.51 0 0-1.62-1-1.69 2.93a1.39 1.39 0 0 0 1.68 1.47z"/><path class="cls-59" d="M158 153.4a3.13 3.13 0 1 0 6.25 0v-4.32a3.13 3.13 0 1 0-6.25 0z"/><path class="cls-26" d="M158 151.84h6.25v1.56H158z"/><path class="cls-58" d="M157.82 151.69h.44v1.79h-.44z"/><circle class="cls-57" cx="157.99" cy="153.48" r="1.19"/><path class="cls-57" d="M161.28 142.55l-2.59-1.64c-.21-.24-.56.07-.25.41l2.32 2.63z"/><path class="cls-59" d="M161.08 138.52s6.17-.45 8.7.14c0 0-3.73 1.49-3.66 3.55z"/><path class="cls-57" d="M159.57 141a3.13 3.13 0 0 0 .5 4.39 3.13 3.13 0 0 0 4.39-.5 3.13 3.13 0 0 0-.5-4.39 3.13 3.13 0 0 0-4.39.5z"/><path class="cls-70" d="M162.6 139.9a3.12 3.12 0 0 1 0 6.13c-2.88-.1-3.45-6.58 0-6.13z"/><path class="cls-70" d="M158.32 146.11a2.52 2.52 0 0 0 2.76-1.69 2.49 2.49 0 0 0-2.76 1.69zM165.57 147.26a2.52 2.52 0 0 1-1.63-2.8 2.49 2.49 0 0 1 1.63 2.8z"/><path class="cls-57" d="M159.95 142.57l1.29-1.2s.38 3.45-1.12 2.08z"/><rect class="cls-7" x="162.8" y="137.37" width="1.6" height="7.04" rx=".42" ry=".42" transform="rotate(-51.51 163.588 140.9)"/><circle class="cls-7" cx="170.49" cy="138.55" r=".67" transform="rotate(-51.51 170.482 138.553)"/></g></g></g></svg>