<svg id="slice" xmlns="http://www.w3.org/2000/svg" width="286.9" height="171.3" viewBox="0 0 286.9 171.3"><style>.st0{opacity:.11;fill:#231f20}.st1{fill:#94917f}.st2{fill:#baafa2}.st3{fill:#785768}.st4{fill:#aaa89a}.st5{opacity:.1}.st6{fill:#8ce1f9}.st7{fill:#ceccbf}.st8{fill:#8d667a}.st9{fill:#918c84}.st10{fill:#c2beb6}.st11{fill:#f0e1d1}.st12{fill:#b6b4a8}.st13{fill:#94938a}.st14{fill:#7d7c71}.st15{fill:#633b4f}.st16{fill:#85837d}.st17{fill:#8a7665}.st18{fill:#6a695c}.st19{fill:#b9b7a4}.st20{fill:#2f9f42}.st21{opacity:.13}.st22{opacity:.2;fill:#231f20}.st23{fill:#d53e2e}.st24{fill:#003673}.st25{fill:#f09a1a}.st26{fill:#fdbf0f}.st27{fill:#736357}.st28{fill:#d84637}.st29{fill:#00a9e9}.st30{fill:#ffde00}.st31{fill:#48b780}.st32{fill:#7c6959}.st33{fill:#d3ae6e}.st34{fill:#fff}.st35{fill:#ffe95a}.st36{fill:#ffc300}.st37{fill:#f27b20}.st38{fill:#ee3837}.st39{fill:#4c8bfb}.st40{fill:#b757c5}.st41{fill:#ffdf8a}.st42{fill:#333}.st43{fill:#6a57ab}.st44{fill:#5d377a}.st45{fill:#393939}.st46{fill:#fde08b}.st47{fill:#dc3126}.st48{fill:#fdd500}.st49{fill:#515c5d}.st50{fill:#7d8586}.st51{fill:#afd136}.st52{fill:url(#SVGID_1_)}.st53{fill:url(#SVGID_2_)}.st54{fill:#e8d184}.st55{fill:#ca7836}.st56{fill:#54d184}.st57{opacity:.48}.st58{opacity:.5;fill:#75cef4}.st59{opacity:.5;fill:#00bff0}.st60{opacity:.5;fill:#e6f6fd}.st61{opacity:.48;fill:#75cef4}.st62{fill:url(#SVGID_3_)}.st63{fill:gray}.st64{fill:#8f4293}.st65{fill:#ffd400}.st66{fill:url(#SVGID_4_)}.st67{fill:#28ae4b}.st68{fill:#e64436}.st69{fill:url(#SVGID_5_)}.st70{fill:url(#XMLID_158_)}.st71{opacity:.17;fill:#fff}.st72{fill:url(#SVGID_6_)}.st73{fill:url(#SVGID_7_)}.st74{fill:#00b2ee}.st75{fill:#b89860}.st76{fill:#b0b0b0}.st77{fill:#864537}.st78{fill:#fbcf99}.st79{fill:#fbcd48}.st80{fill:#fd0}.st81{fill:#d2392c}.st82{fill:url(#SVGID_8_)}.st83{fill:url(#SVGID_9_)}.st84{fill:url(#SVGID_10_)}.st85{fill:url(#SVGID_11_)}.st86{fill:url(#XMLID_160_)}.st87{fill:#afd77d}.st88{opacity:.1;fill:#231f20}.st89{fill:#7cb342}.st90{fill:#f9ce1d}.st91{fill:#ffe36c}.st92{fill:#5e35b1}.st93{fill:#9575cd}.st94{fill:#29b6f6}.st95{fill:#4ad0ff}.st96{fill:#9dce2e}.st97{fill:#e53935}.st98{fill:#f94b4b}.st99{fill:#fb8c00}.st100{fill:#fc9f42}.st101{fill:#9dca3b}.st102{fill:#66a622}.st103{fill:#ffb300}.st104{fill:#f57c00}.st105{fill:#a1cacf}.st106{fill:#dff3f5}.st107{fill:#bad7db}.st108{fill:#c3dfe3}.st109{fill:#bcdee3}.st110{opacity:.5}.st111{opacity:.8}.st112{fill:url(#XMLID_161_)}.st113{fill:url(#SVGID_12_)}.st114{fill:#f6f3ec}.st115{fill:#d7d7d7}.st116{fill:#959d9e}.st117{fill:#b3b3b3}.st118{fill:#e0e0e0}.st119{fill:#4d4d4d}.st120{fill:#595959}.st121{fill:#ffeb5e}.st122{fill:#6d7576}.st123{fill:#c9e09d}.st124{fill:#8f8f8f}.st125{fill:#5c6566}.st126{fill:#a19e97}.st127{fill:#61c6ec}.st128{fill:#77bf82}.st129{fill:#f3ff73}.st130{fill:url(#XMLID_163_)}.st131{fill:url(#SVGID_13_)}.st132{fill:url(#SVGID_14_)}.st133{fill:url(#XMLID_165_)}.st134{fill:#555047}.st135{fill:#896339}.st136{fill:#736f68}.st137{fill:#949494}.st138{fill:#83dee8}.st139{fill:#85827d}.st140{opacity:.2}.st141{fill:#404040}.st142{fill:silver}.st143{fill:#eee}.st144{fill:#44c2c2}.st144,.st145{clip-path:url(#SVGID_16_)}.st145{fill:#a3d89f}.st146{fill:#c83a74}.st146,.st147{clip-path:url(#SVGID_16_)}.st147{fill:#ffa376}.st148{opacity:.24}.st149{fill:none;stroke:#85827d;stroke-width:.9;stroke-miterlimit:10}.st150{opacity:.83}.st151{fill:#888480}.st152{fill:#7099ba}.st153{fill:#b0e1e8}.st154{opacity:.22;fill:#fff}.st155{fill:url(#XMLID_172_)}.st156{fill:url(#SVGID_17_)}.st157{fill:url(#SVGID_18_)}.st158{fill:url(#XMLID_174_)}.st159{fill:#9db9bd}.st160{fill:#d1e3e6}.st161{fill:#b6d6db}.st162{fill:#9ccfd9}.st163{fill:#b4d3d9}.st164{fill:#97babf}.st165{fill:#c1dff5}.st166{fill:#c5e7eb}.st167{fill:#8ab8d4}.st168{fill:#e6e6e6}.st169{fill:#716e69}.st170{fill:#71bdde}.st171{fill:#659bc7}.st172{fill:#70afd4}.st173{fill:none}.st174{fill:#97cee6}.st175{opacity:8e-2;fill:#0f0f0f}.st176{opacity:.1;fill:#0f0f0f}.st177{fill:#385fe4}.st178{fill:#ccc}.st179{fill:#2986e4}.st180{opacity:.21}.st181{clip-path:url(#SVGID_20_)}.st182{filter:url(#Adobe_OpacityMaskFilter)}.st183{mask:url(#SVGID_21_);fill:#33659a}.st184{filter:url(#Adobe_OpacityMaskFilter_1_)}.st185{mask:url(#SVGID_22_);fill:#385fe4}.st186{filter:url(#Adobe_OpacityMaskFilter_2_)}.st187{opacity:.17;mask:url(#SVGID_23_)}.st188{clip-path:url(#SVGID_25_)}.st189{opacity:.77}.st190{fill:#e8c97b}.st191{fill:#2d56e2}.st192{opacity:.11}.st193{fill:#0bbf68}.st194{fill:#98bee4}.st195{fill:#3f5656}.st196{fill:#d7c17d}.st197{opacity:.2;fill:#fff}.st198{fill:url(#SVGID_26_)}.st199{fill:url(#XMLID_228_)}.st200{fill:url(#SVGID_27_)}.st201{fill:url(#XMLID_231_)}.st202{fill:#9c9c9c}.st203{fill:#808082}.st204{fill:#9ed5ec}.st205{fill:#cacaca}.st206{fill:#e3e3e3}.st207{fill:#979797}.st208{fill:#9e9e9e}.st209{opacity:.58;fill:#c7ffff}.st210{opacity:.25}.st211{fill:#a52e22}.st212{fill:#e63636}.st213{fill:url(#XMLID_261_)}.st214{fill:url(#XMLID_278_)}.st215{fill:#f3831f}.st216{fill:#1fa2f3}.st217{fill:#914295}.st218{fill:#faac18}.st219{opacity:.1;fill:#333}.st220{fill:#836948}.st221{fill:#df543f}.st222{fill:#00813f}.st223{fill:#b9c9d2}.st224{fill:#28b04b}.st225{fill:#fff100}.st226{fill:#969696}.st227{fill:#0158bb}.st228{fill:#1565c0}.st229{fill:#3dd1f9}.st230{fill:#f5a816}.st231{fill:#c62828}.st232{fill:#bdbdbd}.st233{fill:#a5a5a5}.st234{fill:#424242}.st235{fill:#e6e7e8}.st236{clip-path:url(#SVGID_31_);fill:#fff}.st237{fill:#e91c24}.st237,.st238{clip-path:url(#SVGID_31_)}.st238{fill:#1976d2}.st239{fill:#4d8acf}.st240{fill:none;stroke:#fff;stroke-width:.6591;stroke-miterlimit:10}.st241{fill:#00adee}.st242{clip-path:url(#SVGID_33_);fill:#fff}.st243{fill:#dbdbdb}.st244{fill:#9ad3d3}.st245{fill:url(#SVGID_34_)}.st246{fill:url(#SVGID_35_)}.st247{fill:url(#SVGID_36_)}.st248{fill:url(#SVGID_37_)}.st249{fill:url(#SVGID_38_)}.st250{fill:url(#SVGID_39_)}.st251{fill:url(#SVGID_40_)}.st252{fill:url(#SVGID_41_)}.st253{fill:#f7ce97}.st254{fill:#4c4c4c}.st255{fill:#e9e9e9}.st256{fill:#eb9b95}.st257{fill:#656565}.st258{fill:#5e5a48}.st259{fill:url(#SVGID_42_)}.st260{fill:url(#SVGID_43_)}.st261{fill:#999}.st262{opacity:.36}.st263{fill:#00a64c}.st264{fill:#d4d4d4}.st264,.st265{fill-rule:evenodd;clip-rule:evenodd}.st265{fill:#fff}.st266{fill:#008141}.st266,.st267{fill-rule:evenodd;clip-rule:evenodd}.st267{fill:#00a64c}.st268{fill:#28b265}.st269{opacity:.4;fill:#ffe000}.st270{fill:#c8cbcc}.st271{fill:#b8b8b8}.st272{fill:#949496}.st273{fill:#c8ead4}.st274{fill:#7d8485}.st275{fill:#2364d5}.st276{fill:url(#XMLID_279_)}.st277{fill:url(#SVGID_44_)}.st278{fill:url(#SVGID_45_)}.st279{fill:url(#SVGID_46_)}.st280{fill:#8700ee}.st281{fill:#00b533}.st282{fill:#eeda00}.st283{fill:#f2206d}.st284{fill:#6299fb}.st285{opacity:.7;fill:url(#SVGID_47_)}.st286{opacity:.7;fill:url(#SVGID_48_)}.st287{opacity:.7;fill:url(#SVGID_49_)}.st288{fill:#ee5e5d}.st289{fill:#e09d17}.st290{fill:#f0ede9}.st291{clip-path:url(#SVGID_51_)}.st292{fill:#eec85c}.st293{opacity:.32;fill:#9a0000}.st294{fill:#f0f0f0}.st295{fill:#81d4fa}.st296{opacity:.49;fill:#c9edfc}.st297{fill:#d8746a}.st298{fill:#fcbe8d}.st299{fill:#00a9e7}.st300{fill:#6a7173}.st301{opacity:.6}.st302{fill:url(#SVGID_52_)}.st303{fill:url(#SVGID_53_)}.st304{fill:url(#XMLID_280_)}.st305{fill:url(#SVGID_54_)}.st306{fill:url(#SVGID_55_)}.st307{fill:url(#SVGID_56_)}.st308{fill:url(#SVGID_57_)}.st309{fill:#67635d}.st310{fill:#999690}.st311{fill:#e6da91}.st312{opacity:.55;fill:#bbaf3e}.st313{fill:#a8a69b}.st314{clip-path:url(#SVGID_59_)}.st315{fill:url(#SVGID_60_)}.st316{fill:url(#SVGID_61_)}.st317{opacity:.1;clip-path:url(#SVGID_59_)}.st318{clip-path:url(#SVGID_63_)}.st319{fill:#e3e3e2}.st320{fill:#cf4140}.st321{fill:url(#SVGID_64_)}.st322{fill:url(#SVGID_65_)}.st323{fill:url(#SVGID_66_)}.st324{fill:url(#SVGID_67_)}.st325{fill:#666}.st326{fill:#c1161c}.st327{fill:#b47945}.st328{fill:#d9dadb}.st329{fill:#36af49}.st330{fill:#2a943e}.st331{fill:#9ea0a2}.st332{fill:#bebfc1}.st333{fill:#f5961d}.st334{fill:#ffef00}.st335{fill:#6d6d6d}.st336{fill:url(#SVGID_68_)}.st337{fill:url(#XMLID_281_)}.st338{fill:#795d00}.st339{fill:#bb8024}.st339,.st340{clip-path:url(#SVGID_70_)}.st340{opacity:.1}.st341{fill:#955d00}.st342{fill:#f38836}.st343{fill:url(#XMLID_295_)}.st344{fill:url(#SVGID_71_)}.st345{fill:url(#SVGID_72_)}.st346{fill:url(#XMLID_296_)}.st347{opacity:.99}.st348{fill:#e8af38}.st349{fill:#98ab00}.st350{fill:#e75c52}.st351{fill:#a9897d}.st352{fill:#cb9d7b}.st353{fill:#996b63}.st354{fill:#35b8e8}.st355{opacity:.12;fill:url(#SVGID_73_)}.st356{opacity:.12;fill:url(#SVGID_74_)}.st357{opacity:.28;fill:url(#SVGID_77_)}.st358{clip-path:url(#SVGID_81_)}.st359{fill:#fff59c}.st360{fill:#ebdbce}.st361{fill:#b07a53}.st362{fill:#1185ba}.st363{fill:#1f57a1}.st363,.st364{opacity:.32}.st365{fill:#c28d65}.st366{fill:#eb776f}.st367{fill:#afdb39}.st368{fill:#ebdb57}.st369{opacity:.16}.st370{fill:#cba483}.st371{fill:url(#XMLID_297_)}.st372{fill:url(#SVGID_82_)}.st373{fill:url(#SVGID_83_)}.st374{fill:#bee6eb}.st375{fill:#f9df00}.st376{fill:#d84733}.st377{fill:#fce000}.st378{fill:#575757}.st379{fill:#b3b2b3}.st380{fill:#e5e5e4}.st381{fill:#d5302b}.st382{fill:url(#SVGID_84_)}.st383{fill:url(#SVGID_85_)}.st384{fill:#ec4180}.st385{fill:#fbcb54}.st386{fill:#7296f0}.st387{fill:#fc793d}.st388{opacity:.14}.st389{fill:#404144}.st390{fill:#606163}.st391{opacity:.3}.st392,.st393{fill:#d7b256}.st393{opacity:.38}.st394{fill:#3d3d39}.st395{fill:#393b36}.st396{opacity:.6;fill:#3bff65}.st397{opacity:.6;fill:#fc793d}.st398{clip-path:url(#SVGID_87_)}.st399{opacity:.29}.st400{fill:#9a51a8}.st401{fill:#fef6e0}.st402{fill:#a06ea9}.st403{fill:#353535}.st404{clip-path:url(#SVGID_89_)}.st405{opacity:.23;fill:#fff}.st406{opacity:.13;fill:#fff}.st407{opacity:5e-2}.st408{opacity:.45}.st409{opacity:.2}.st409,.st410{fill:#fff170}.st411{opacity:.21;fill:#fff}.st412{opacity:.1;fill:#fff}.st413{opacity:.27;fill:url(#SVGID_90_)}.st414{opacity:.27;fill:url(#SVGID_91_)}.st415{fill:url(#SVGID_92_)}.st416{fill:url(#SVGID_93_)}.st417{fill:#2850a8}.st418{fill:#286ee4}.st419{fill:#0053df}.st420{fill:#007dd0}.st421{fill:#2891e4}.st422{opacity:.72}.st423{opacity:.28;fill:url(#SVGID_94_)}.st424{opacity:.28;fill:url(#SVGID_95_)}.st425{fill:#2d6b7f}.st426,.st427{fill:#ff7c40}.st427{opacity:.21}.st428{opacity:.28;fill:url(#SVGID_96_)}.st429{opacity:.28;fill:url(#SVGID_97_)}.st430{opacity:.28;fill:url(#SVGID_98_)}.st431{opacity:.28;fill:url(#SVGID_99_)}.st432,.st433{fill:#ffee0a}.st433{opacity:.21}.st434{opacity:.28;fill:url(#SVGID_100_)}.st435{opacity:.28;fill:url(#SVGID_101_)}.st436,.st437{fill:#fd45ff}.st437{opacity:.21}.st438{opacity:.28;fill:url(#SVGID_102_)}.st439{opacity:.28;fill:url(#SVGID_103_)}.st440,.st441{fill:#52ff52}.st441{opacity:.21}.st442{opacity:.28;fill:url(#SVGID_104_)}.st443{opacity:.28;fill:url(#SVGID_105_)}.st444{opacity:.28;fill:url(#SVGID_106_)}.st445{opacity:.28;fill:url(#SVGID_107_)}.st446,.st447{fill:#59fff3}.st447{opacity:.21}.st448{opacity:.28;fill:url(#SVGID_108_)}.st449{opacity:.28;fill:url(#SVGID_109_)}.st450{opacity:.28;fill:url(#SVGID_110_)}.st451{opacity:.28;fill:url(#SVGID_111_)}.st452{opacity:.28;fill:url(#SVGID_112_)}.st453{opacity:.28;fill:url(#SVGID_113_)}.st454{opacity:.28;fill:url(#SVGID_114_)}.st455{opacity:.28;fill:url(#SVGID_115_)}.st456{opacity:.28;fill:url(#SVGID_116_)}.st457{opacity:.28;fill:url(#SVGID_117_)}.st458{opacity:.28;fill:url(#SVGID_118_)}.st459{opacity:.28;fill:url(#SVGID_119_)}.st460{opacity:.28;fill:url(#SVGID_120_)}.st461{opacity:.28;fill:url(#SVGID_121_)}.st462{opacity:.28;fill:url(#SVGID_122_)}.st463{opacity:.28;fill:url(#SVGID_123_)}.st464{opacity:.28;fill:url(#SVGID_124_)}.st465{opacity:.28;fill:url(#SVGID_125_)}.st466{opacity:.28;fill:url(#SVGID_126_)}.st467{opacity:.28;fill:url(#SVGID_127_)}.st468{opacity:.28;fill:url(#SVGID_128_)}.st469{opacity:.28;fill:url(#SVGID_129_)}.st470{opacity:.28;fill:url(#SVGID_130_)}.st471{opacity:.28;fill:url(#SVGID_131_)}.st472{opacity:.28;fill:url(#SVGID_132_)}.st473{opacity:.28;fill:url(#SVGID_133_)}.st474{opacity:.28;fill:url(#SVGID_134_)}.st475{opacity:.28;fill:url(#SVGID_135_)}.st476{opacity:.28;fill:url(#SVGID_136_)}.st477{opacity:.28;fill:url(#SVGID_137_)}.st478{opacity:.28;fill:url(#SVGID_138_)}.st479{opacity:.28;fill:url(#SVGID_139_)}.st480{opacity:.28;fill:url(#SVGID_140_)}.st481{opacity:.28;fill:url(#SVGID_141_)}.st482{opacity:.28;fill:url(#SVGID_142_)}.st483{opacity:.28;fill:url(#SVGID_143_)}.st484{opacity:.28;fill:url(#SVGID_144_)}.st485{opacity:.28;fill:url(#SVGID_145_)}.st486{opacity:.28;fill:url(#SVGID_146_)}.st487{opacity:.28;fill:url(#SVGID_147_)}.st488{opacity:.28;fill:url(#SVGID_148_)}.st489{opacity:.28;fill:url(#SVGID_149_)}.st490{opacity:.28;fill:url(#SVGID_150_)}.st491{opacity:.28;fill:url(#SVGID_151_)}.st492{opacity:.28;fill:url(#SVGID_152_)}.st493{opacity:.28;fill:url(#SVGID_153_)}.st494{opacity:.28;fill:url(#SVGID_154_)}.st495{opacity:.28;fill:url(#SVGID_155_)}.st496{opacity:.28;fill:url(#SVGID_156_)}.st497{opacity:.28;fill:url(#SVGID_157_)}.st498{opacity:.28;fill:url(#SVGID_158_)}.st499{opacity:.28;fill:url(#SVGID_159_)}.st500{opacity:.28;fill:url(#SVGID_160_)}.st501{opacity:.28;fill:url(#SVGID_161_)}.st502{opacity:.28;fill:url(#SVGID_162_)}.st503{opacity:.28;fill:url(#SVGID_163_)}.st504{opacity:.28;fill:url(#SVGID_164_)}.st505{opacity:.28;fill:url(#SVGID_165_)}.st506{opacity:.28;fill:url(#SVGID_166_)}.st507{opacity:.28;fill:url(#SVGID_167_)}.st508{opacity:.28;fill:url(#SVGID_168_)}.st509{opacity:.28;fill:url(#SVGID_169_)}.st510{opacity:.28;fill:url(#SVGID_170_)}.st511{opacity:.28;fill:url(#SVGID_171_)}.st512{opacity:.28;fill:url(#SVGID_172_)}.st513{opacity:.28;fill:url(#SVGID_173_)}.st514{fill:#898f90}.st515{opacity:.25;fill:#fff}.st516{fill:#00b8f0}.st517{fill:#00a7f0}.st518{opacity:.91;fill:url(#SVGID_174_)}.st519{opacity:.12;fill:#ffee0a}.st520{opacity:.62}.st521{fill:url(#SVGID_175_)}.st522{fill:url(#SVGID_176_)}.st523{fill:url(#SVGID_177_)}.st524{fill:url(#SVGID_178_)}.st525{fill:#7d857e}.st526{fill:#89908a}.st527{opacity:.91;fill:url(#SVGID_179_)}.st528{opacity:.12}.st528,.st529{fill:#78ff5e}.st530{fill:url(#SVGID_180_)}.st531{fill:url(#SVGID_181_)}.st532{fill:url(#SVGID_182_)}.st533{fill:url(#SVGID_183_)}.st534{fill:#85847d}.st535{fill:#908f89}.st536{opacity:.91;fill:url(#SVGID_184_)}.st537{opacity:.12;fill:#ff5e91}.st538{fill:#ff8373}.st539{fill:url(#SVGID_185_)}.st540{fill:url(#SVGID_186_)}.st541{fill:url(#SVGID_187_)}.st542{fill:url(#SVGID_188_)}.st543{fill:#5d6667}.st544{fill:url(#XMLID_298_)}.st545{fill:url(#XMLID_299_)}.st546{fill:url(#SVGID_189_)}.st547{fill:#b13837}.st548{fill:#3b627a}.st549{fill:url(#SVGID_190_)}.st550{fill:url(#XMLID_312_)}.st551{fill:url(#SVGID_191_)}.st552{fill:#754517}.st553{fill:#845930}.st554{fill:#a35f25}.st555{fill:#aa6c37}.st556{fill:#b07644}.st557{fill:#efdbc1}.st558{fill:#ffc805}.st559{fill:#231f20}.st560{fill:#00a351}.st561{fill:#084}.st562{fill:#ef6522}.st563{fill:#7a4b1f}.st564{fill:#32cbe6}.st565{fill:url(#SVGID_192_)}.st566{opacity:.1;fill:#005fd0}.st567{fill:#c48e4f}.st568{fill:#f8aeae}.st569{fill:#e6e5e1}.st570{fill:#7b9eb8}.st571{fill:#a5b3ad}.st572{fill:#c7c7c7}.st573{fill:url(#XMLID_315_)}.st574{fill:url(#SVGID_193_)}.st575{fill:url(#SVGID_194_)}.st576{fill:#388e3c}.st577{fill:#2e7d32}.st578{fill:#ffe18c}.st579{opacity:.25;fill:#29b6f6}.st580{fill:#414042}.st581{fill:#2f4c52}.st582{fill:#455d82}.st583{fill:#795548}.st584{fill:#d3d4d6}.st585{fill:#bcbec0}.st586{clip-path:url(#SVGID_196_)}.st587{fill:url(#SVGID_197_)}.st588{fill:url(#SVGID_198_)}.st589{clip-path:url(#SVGID_200_)}.st590{opacity:.5;fill:#f9ce1d}.st591{opacity:.28}.st592{fill:#d7d8d9}.st593{fill:#ebeced}.st594{fill:#ffd600}.st595{fill:#039be5}.st596{fill:url(#XMLID_316_)}.st597{fill:url(#SVGID_201_)}.st598{fill:#34d4f0}.st599{fill:#74e4f6}.st599,.st600{opacity:.51}.st601{fill:#74e4f6}.st602{fill:url(#XMLID_329_)}.st603{fill:#434fbf}.st604{opacity:.51}.st604,.st605{fill:#7182f0}.st606{opacity:.38}.st607{opacity:.39;fill:#ffff5c}.st608{opacity:.58;fill:#fff}.st609{opacity:.19;fill:#73c1de}.st610{opacity:.19;fill:#7335de}.st611{fill:#f5f2e2}.st612{fill:#a3a2a1}.st613{fill:#5a99d1}.st614{fill:#b8a485}.st615{fill:#eee5d5}.st616{fill:#ffc}.st617{fill:#ffd200}.st618{fill:#f26e21}.st619{fill:#f5871f}.st620{fill:#cfcfcf}.st621{fill:#019049}.st622{fill:#07a860}.st623{fill:#ab00ee}.st624{fill:#93d8f7}.st625{fill:#725d4c}.st626{fill:#028f1f}.st627{fill:#0da760}.st628{fill:#f4c138}.st629{fill:#f9646d}.st630{fill:url(#SVGID_202_)}.st631{clip-path:url(#SVGID_204_)}.st632{fill:#8de0f2}.st633{fill:url(#SVGID_205_)}.st634{fill:url(#XMLID_330_)}.st635{stroke:#d7d7d7;stroke-width:5.6}.st635,.st636{fill:none;stroke-miterlimit:10}.st636{stroke:#ffc;stroke-width:.7;stroke-dasharray:2.1,4.2}.st637{fill:#4cb5cf}.st638{fill:#638aaa}.st639{fill:url(#XMLID_331_)}.st640{fill:url(#XMLID_332_)}.st641{fill:url(#SVGID_206_)}.st642{fill:url(#XMLID_337_)}.st643{clip-path:url(#SVGID_208_)}.st644{fill:url(#SVGID_209_)}.st645{opacity:.51;clip-path:url(#SVGID_208_)}.st646{fill:url(#SVGID_210_)}.st647{fill:url(#SVGID_211_)}.st648{fill:url(#SVGID_212_)}.st649{fill:url(#XMLID_363_)}.st650{fill:url(#SVGID_213_)}.st651{fill:url(#XMLID_364_)}.st652{fill:#e0f3f5}.st653{opacity:.64;fill:#7ec1c4}.st654{fill:#c4dfe3}.st655,.st656{fill:#7ec1c4}.st656{opacity:.53}.st657{opacity:.82;fill:#7ec1c4}.st658{opacity:.3;fill:#7ec1c4}.st659{fill:#79a6ad}.st660{fill:#c5161d}.st661{fill:#e91c24}.st662{fill:#00a551}.st663{fill:#2c7c2f}.st664{fill:#aec7dc}.st665{fill:none;stroke:#97babf;stroke-width:1.9787;stroke-miterlimit:10}.st666{fill:#9dcb3b}.st667{fill:#d9ebed}.st668{fill:#008c45}.st669{fill:#ae5f2d}.st670{fill:#7a347e}.st671{fill:#754c28}.st672{fill:#0085b7}.st673{fill:#d89614}.st674{fill:#ecdec9}.st675{fill:#9c8954}.st676{opacity:8e-2}.st677{fill:#4e4e6b}.st678{fill:#859537}.st679{fill:#8a773f}.st680{fill:#cc29b9}.st681{fill:#6d42e3}.st682{fill:#16c447}.st683{fill:#c26d11}.st684{fill:url(#XMLID_404_)}.st685{clip-path:url(#SVGID_215_)}.st686{fill:#0081a8}.st687{clip-path:url(#SVGID_215_);fill:#c7b31e}.st688{fill:#b5b5b5}.st689{fill:#e8e8e8}.st690{fill:#0791aa}.st691{fill:#c7b31e}.st692{fill:#9d9d9d}.st693{fill:#f7f01f}.st694{fill:#7dc6d3}.st695{fill:#4db0c2}.st696{fill:#00be69}.st697{fill:#f57f17}.st698{fill:#e77969}.st699{fill:#f7e2a5}.st700{fill:#f4d784}.st701{fill:#54c391}.st702{fill:#008e5c}.st703{fill:#076e2f}.st704{clip-path:url(#SVGID_215_);fill:#fff}.st705{fill:#f5f129}.st705,.st706{clip-path:url(#SVGID_215_)}.st706{opacity:.1}.st707{fill:url(#SVGID_216_)}.st708{fill:#9dcfd8}.st709{fill:#b1e1e7}.st710{fill:#73bcdd}.st711{fill:#7ba8cd}.st712{fill:#7299ba}.st713{fill:#5b93c1}.st714{fill:#d2e3e6}.st715{fill:#48494d}.st716{fill:#16bdcc}.st717{fill:#d63e3e}.st718{fill:url(#SVGID_217_)}.st719{fill:url(#SVGID_218_)}.st720{fill:url(#SVGID_219_)}.st721{fill:#dcdfd8}.st722{opacity:.7}.st723{fill:#ef5350}.st724{fill:#70cc47}.st725{fill:#8bd463}.st726{fill:url(#SVGID_220_)}.st727{fill:#e24c41}.st728{fill:#eb6760}.st729{fill:#2db9eb}.st730{fill:#ffdf00}.st731{fill:#373b40}.st732{fill:#fffbdb}.st733{fill:#d7e1e3}.st734{opacity:.2;fill:#373b40}.st735{fill:#c6e9fa}.st736{fill:#20242a}.st737{fill:#332e2e}.st738{fill:#fdbe0c}.st739{fill:#f7fffa}.st740{fill:#9e978a}.st741{fill:#b4afa5}.st742{fill:#e68ecd}.st743{fill:#98d4bc}.st744{fill:#88a2d6}.st745{fill:#e36868}.st746{fill:#f8ae37}.st747{fill:#b99960}.st748{fill:#d4af6e}.st749{opacity:.12}.st750{fill:#f0b21c}.st751{fill:#b46d3d}.st752{fill:#caa56e}.st753{fill:#a8844f}.st754{fill:#59595c}.st755{fill:#b56d3d}.st756{opacity:.19;fill:#fcd09a}.st757{fill:#85e1e7}.st758{fill:#e7f3f2}.st759{opacity:.19}.st760{opacity:.6;fill:url(#SVGID_221_)}.st761{fill:#48aacf}.st762{opacity:.6;fill:#3e31ff}.st763{opacity:.6;fill:#1b4df9}.st764{opacity:.6;fill:#85e1e7}.st765{fill:#62accd}.st766{fill:#81ffff}.st767{opacity:.6;fill:#fff}.st768{opacity:.6;fill:#73bcdd}.st769{fill:#2e93c1}.st770{opacity:.6;fill:#1e9ae3}.st771{opacity:.6;fill:#48aacf}.st772{opacity:.15;fill:#81ffff}.st773{opacity:.6;fill:#2e93c1}.st774{opacity:.67;fill:#62accd}.st775{opacity:.67;fill:#9dcfd8}.st776{opacity:.28;fill:#81ffff}.st777{fill:#8aafb5}.st778{opacity:.99;fill:#91f3fa}.st779{fill:#1fc2f5}.st780{opacity:.99;fill:#62accd}.st781{opacity:.99;fill:#a9dee8}.st782{opacity:.36;fill:url(#SVGID_222_)}.st783{fill:url(#SVGID_223_)}.st784{opacity:.6;fill:#62accd}.st785{fill:url(#SVGID_224_)}.st786{fill:url(#SVGID_225_)}.st787{fill:url(#SVGID_226_)}.st788{fill:#caf5f6}.st789{fill:#00c1f2}.st790{fill:#ff931e}.st791{fill:#d94636}.st792{fill:#d43e2e}.st793{fill:#fdce48}.st794{fill:#464647}.st795{fill:#d33e2f}.st796{fill:#ff8a33}.st797{fill:#746458}.st798{fill:#57aba9}.st799{fill:#6cccc9}.st800{fill:#a7c1c5}.st801{fill:#b6e2f8}.st802{fill:#61aac9}.st803{fill:#e1f3fc}.st804{fill:#fff58b}.st805{fill:#b59a48}.st806{fill:#eed257}.st807{fill:#d9d286}.st808{fill:#ff916d}.st809{fill:#ffe327}.st810{fill:#64e8be}.st811{opacity:.2;fill:#333}.st812{opacity:.22;fill:#333}.st813{fill:url(#XMLID_406_)}.st814{fill:url(#XMLID_407_)}.st815{fill:url(#XMLID_408_)}.st816{fill:url(#SVGID_227_)}.st817{fill:url(#XMLID_422_)}.st818{fill:url(#XMLID_423_)}.st819{fill:url(#SVGID_228_)}.st820{fill:url(#SVGID_229_)}.st821{opacity:.55;fill:#d8fbff}.st822{opacity:.5;fill:url(#SVGID_230_)}.st823{fill:#29b65e}.st824{fill:#009047}.st825{fill:#91651c}.st826{fill:#bd822b}.st827{fill:#d5b06e}.st828{fill:#007dc5}.st829{fill:#a66d40}.st830{fill:#ff8c33}.st831{fill:#a67108}.st832{fill:#f1b31c}.st833{fill:#b88a13}.st834{fill:#b93a2c}.st835{fill:#c36e2c}.st836{fill:#a8362a}.st837{fill:#34875d}.st838{fill:#602c63}.st839{fill:#0086b7}.st840{fill:#cdb300}.st841{fill:#26a89b}.st842{fill:#da4637}.st843{fill:#48b980}.st844{fill:#f58b37}.st845{fill:#00abe9}.st846{fill:#4859b9}.st847{fill:#e86e1c}.st848{fill:#c8541f}.st849{fill:#b9191e}.st850{opacity:.19;fill:#212121}.st851{opacity:.3;fill:#28b04b}.st852{fill:#f9858e}.st853{fill:#5f14a6}.st854{fill:#8c28de}.st855{fill:#a2a5a3}.st856{fill:#ab3125}.st857{clip-path:url(#SVGID_232_)}.st858{fill:#00914a}.st859{opacity:.39;fill:#791f11}.st860{fill:#b6e5cd}.st861{fill:#e9d386}.st862{fill:#413d3d}.st863{fill:#666262}.st864{fill:#85d4ac}.st865{opacity:.1;fill:#b6e5cd}.st866{fill:#f5951f}.st867{fill:#00369c}.st868{fill:#2759d9}.st869{fill:#2297cc}.st870{fill:#764c2e}.st871{fill:#d4af19}.st872{fill:#62a807}.st873{fill:#008e1f}.st874{opacity:.37;fill:#fff}.st875{fill:#bbe5fa}.st876{fill:#7a5951}.st877,.st878{fill:#212121}.st878{clip-path:url(#XMLID_424_)}.st879{fill:#cc372c}.st880{fill:#ebad11}.st881{fill:#e33483}.st882{fill:#3788de}</style><g id="New_Symbol_114"><path class="st301 st757" d="M129.3 18.1h.5l.1.1.3.2.4.1h.3l.1-.1.3.1.2.1.2.3.1.2v.4l-.2.5-.2.5h-.1l-.2.2-.1.1-.1.2v.1l-.1.1-.7.1-.7-.3-.9-.8-.3-.3-.1-.4v-.2l.7-.8z"/><g id="New_Symbol_65_1_"><ellipse class="st114" cx="89.7" cy="169.9" rx="1.1" ry="1.2"/><path class="st114" d="M283.4 162.3c-1.9 0-3.5 1.7-3.5 3.8h6.9c.1-2.1-1.5-3.8-3.4-3.8zm-10.6 1H269c-1.9-2.6-7.6-6.1-10-6.1h-17.9c-4.5 0-4.1-2.6-3.9-3.5.1-.9.8-2.1 3.8-2.1h10.6c1.1 0 1.6-1.4.6-2.1-3.7-2.6-6.3-4.3-9.3-4.3H115.3c-1.9 0-3.8.9-4.9 2.7-1.1 1.8-4.3 7.8-6.5 9.5-.9.8-1.5 1.9-1.5 3.2 0 1.1.4 2.1 1.1 2.8.6.7 1.5 1.2 2.5 1.2l4.5.1c2.4-1.2 2.3 1.2 0 1.9H96.2c-2.3 0-4.2 1-4.2 2.3s1.9 2.3 4.2 2.3h151.3c1.1 0 2-.5 3.8-1.3h8.9c1 0 1.8-.8 1.8-1.8 0-.5-.2-1-.6-1.3h11.5c1 0 1.8-.8 1.8-1.8s-.9-1.7-1.9-1.7z"/><path id="XMLID_1189_" class="st114" d="M52.1 162.2c0-1.7 1.3-3.1 2.9-3.1s2.9 1.4 2.9 3.1h-5.8z"/><path id="XMLID_1187_" class="st114" d="M74.8 163.5c0-1.2.9-2.1 1.9-2.1 1.1 0 1.9 1 1.9 2.1"/><path id="XMLID_1185_" class="st115" d="M233.1 155.5c0-2.1 1.5-3.8 3.5-3.8s3.5 1.7 3.5 3.8h-7z"/><path id="XMLID_1183_" class="st115" d="M115.7 163c0-1.5 1.1-2.6 2.4-2.6 1.3 0 2.4 1.2 2.4 2.6h-4.8z"/><path class="st115" d="M268 154.4h-7.9c-.8 0-1.5-.7-1.5-1.5s.7-1.5 1.5-1.5h7.9c.8 0 1.5.7 1.5 1.5s-.6 1.5-1.5 1.5z"/><path id="XMLID_1182_" class="st115" d="M236 162.6c0-2.1 1.5-3.8 3.5-3.8s3.5 1.7 3.5 3.8h-7z"/><path id="XMLID_1181_" class="st34" d="M0 150.9c0-1.8 1.3-3.2 2.9-3.2s2.9 1.4 2.9 3.2H0z"/><path class="st34" d="M194.6 141.6c-3.4-6.6-14.5-11.9-21.1-11.9H74.7c-2 0-6.8 2.6-8.5 4.1-2 1.8-11.7 6.4-14.3 7.1h-.4c-1.7 0-4.9 3.2-4.9 5 0 1.8 3.2 1.5 4.9 1.5l8.3.2c2.5 0 2.5 4.2 0 4.2H35.1c-1.3 0-4.2 2.1-4.2 3.5s2.9 1.7 4.2 1.7h168.6l-9.1-15.4z"/><path class="st34" d="M34.9 147c-2 0-3.5 1.7-3.5 3.9h7.1c0-2.1-1.6-3.9-3.6-3.9zm0-5.7h5.5c0-2.1-1.6-3.9-3.5-3.9-1.2 0-2.3.7-2.9 1.7-.5-.4-1-.7-1.6-.7-1.4 0-2.6 1.3-2.6 2.8h5.1z"/><ellipse class="st34" cx="25.3" cy="152.2" rx="2" ry="2.2"/><path class="st34" d="M37.9 145.2h5.4c0-1.6-1.2-2.9-2.7-2.9s-2.7 1.3-2.7 2.9z"/><path id="XMLID_1163_" class="st115" d="M173.4 151.3c0-1.7 1.3-3.1 2.8-3.1s2.8 1.4 2.8 3.1h-5.6z"/><path id="XMLID_1161_" class="st34" d="M212.7 163.8c0-2.1 1.6-3.9 3.5-3.9 2 0 3.5 1.7 3.5 3.9h-7z"/><path id="XMLID_1160_" class="st34" d="M160.2 161.9c0-1.7 1.2-3 2.8-3 1.5 0 2.8 1.4 2.8 3h-5.6z"/><path id="XMLID_1159_" class="st115" d="M65.1 151.7c0-1.5 1.1-2.7 2.5-2.7s2.5 1.2 2.5 2.7h-5z"/><path class="st115" d="M210.9 141.3h-8.1c-.8 0-1.5-.7-1.5-1.5s.7-1.5 1.5-1.5h8.1c.8 0 1.5.7 1.5 1.5s-.6 1.5-1.5 1.5z"/><path class="st34" d="M206 149.5h15.1c1 0 1.8-.8 1.8-1.8s-.8-1.8-1.8-1.8H206c-1 0-1.8.8-1.8 1.8s.7 1.8 1.8 1.8zm20.2 1.1h-27.1c-1.4 0-2.5 1.1-2.5 2.5 0 .7.3 1.4.8 1.8h-12.1c-1.4 0-2.5 1.1-2.5 2.5s1.1 2.5 2.5 2.5h27.1c1.4 0 2.5-1.1 2.5-2.5 0-.7-.3-1.4-.8-1.8h12.1c1.4 0 2.5-1.1 2.5-2.5s-1.1-2.5-2.5-2.5z"/><path id="XMLID_1158_" class="st115" d="M184.4 154.8c0-2.1 1.6-3.9 3.5-3.9 2 0 3.5 1.7 3.5 3.9h-7z"/><path id="XMLID_1148_" class="st114" d="M82.7 159.7c0-2.1 1.5-3.8 3.5-3.8s3.5 1.7 3.5 3.8h-7z"/><path id="XMLID_1132_" class="st114" d="M84.6 152.9c0-2.1 1.5-3.8 3.5-3.8s3.5 1.7 3.5 3.8h-7z"/><path id="XMLID_1131_" class="st114" d="M81.1 152.9c0-1.5 1.1-2.8 2.5-2.8s2.5 1.2 2.5 2.8h-5z"/><path id="XMLID_1130_" class="st114" d="M155.9 157.2c0-2.1 1.6-3.9 3.5-3.9s3.5 1.7 3.5 3.9h-7z"/><path id="XMLID_1129_" class="st114" d="M152.3 157.2c0-1.6 1.2-2.8 2.6-2.8 1.4 0 2.6 1.3 2.6 2.8h-5.2z"/><path id="XMLID_990_" class="st114" d="M137.8 158.1c0-2.5 1.8-4.5 4.1-4.5s4.1 2 4.1 4.5"/></g><ellipse class="st5" cx="150.8" cy="139" rx="79.4" ry="5.5"/><ellipse class="st758" cx="150.8" cy="137.5" rx="79.4" ry="5.5"/><path class="st714" d="M211.9 135.8l-44.2-1.2-42.8-1.1-17.6-.4v-15.6l37.4-6.9 43.3-8 10.2-1.9 8 1.2z"/><path class="st5" d="M188 102.6l-20.3 32-1.6 2.7h-44.4l3.2-3.8 19.8-22.9z"/><path class="st714" d="M199.3 101c1.8-1.4 12.4 3.2 3.8 10.2-8 6.4-9.4 24-9.4 24l18.3.6-4.6-31.9c-.1-.1 0-3.9-8.1-2.9z"/><path class="st759" d="M199.3 101c1.8-1.4 12.4 3.2 3.8 10.2-8 6.4-1.8 24-1.8 24l10.7.6-4.6-31.9c-.1-.1 0-3.9-8.1-2.9z"/><path id="XMLID_205_" class="st714" d="M180.4 125.8h11.1l2.2-5.7h-11.2z"/><radialGradient id="SVGID_1_" cx="157.639" cy="71.662" r="1.62" gradientUnits="userSpaceOnUse"><stop offset="0" stop-color="#de4a3f"/><stop offset=".65" stop-color="#d43e30"/><stop offset=".928" stop-color="#ce392e"/><stop offset="1" stop-color="#cb372d"/></radialGradient><path d="M157.8 69.8c-.6 1.4-1.2 2.9-1.6 3.7h1.4s.6-1.6 1.3-3.5" opacity=".6" fill="url(#SVGID_1_)"/><path class="st301 st713" d="M159.2 74.7c-1.8 0-3.6-.2-5.2-.7-1.2-.4-1.9-1.6-1.6-2.9.4-1.2 1.6-1.9 2.9-1.6 2.5.7 5.3.7 7.8 0 .3-.1.4-.1.5-.2 0 0 0-.1.1-.3.3-1.2.1-2.7-.6-4-.7-1.3-1.8-2.5-3.3-3.6-1-.8-2.1-1.4-3.3-1.9-1.2-.5-1.7-1.9-1.2-3 .5-1.2 1.9-1.7 3-1.2 1.5.7 2.9 1.5 4.2 2.5 2.1 1.5 3.6 3.3 4.6 5.2 1.2 2.4 1.5 5 .9 7.3-.3 1.2-.8 2.1-1.6 2.7-.7.6-1.5.9-2.2 1.1-1.6.4-3.3.6-5 .6z"/><path class="st301 st710" d="M134.2 54.8s-.6 3-.7 3c-4.3-.2-7.7-6.3-10.3-11.5-3.5-6.9-4.7-18.2.9-26.8.7-1.1 2.1-1.4 3.2-.7s1.4 2.1.7 3.2c-4.6 7.1-2 16.2.9 21.9 1.9 3.7 2.8 6.2 5.4 6.3 1.3.1 2.2 1.2 2.2 2.4-.1 1.2-1.1 2.2-2.3 2.2z"/><path class="st301 st757" d="M123.2 46.2l-2.7-8.9.2-9.3 3.4-8.6 3.2-.7-4.5 13.5z"/><path class="st301 st761" d="M133.7 52.3l-4.7-4.8-3.1-6.1-.7-6.6.3-3.7 3.2 12.3z"/><path class="st762" d="M150.8 76.2h-13.3l.7-.9h11.9"/><path class="st763" d="M144.1 76.2h-6.6l.7-.9h5.9z"/><path class="st764" d="M136.4 38.5l-3.3-4.4s-1.9 11.4 4.4 10l-1.1-5.6z"/><path class="st301 st765" d="M136.1 29.6l5.3-3.5 3.8-6.1 6.5-3.1 4.5-4.8-2.2 8 1 8.2-6.6-.3-6.3.8z"/><path d="M141.1 29.5l4.1-7 5.3-5.2 6.3-4.9-3.2 7.9 1 7.3-6.4 1.7z" class="st5"/><path class="st301 st710" d="M134.7 39.9l3.1 7.7 7.7 1.3v2l8.3-3.3 3.6-7.6-.8-3.5-3.6-6.3-7.5-.9v1.2l-6.5 3-2.9 6.6z"/><path d="M146.5 40.7l-2 4.7 1 3.6v1.8l8.3-3.3 3.6-7.5-.8-3.5-3.6-6.2-7.7-.9-5.2 2.7 6.3 1.4-1.2.8z" class="st5"/><path class="st591 st766" d="M134.8 39.9l3.1 7.6 7.6 1.5v1.8l4.4-6.9-.8-7.7-3.6-5.8v-1.1l-7.5 3.2-2 7.6z"/><path class="st767" d="M149.7 40.5c-.6 1.9-2.4 3.4-4.5 3.4s-3.9-1.4-4.5-3.4h9z"/><path class="st301 st710" d="M134.5 34.1l1.6 1.2 6-3.4 7.1-.5 6.6 2.8 1.5-.1-1.4-2.4.1-2.8-6.7-2.7-7.1 1-6.4 2.5-.8 2z"/><path class="st591 st766" d="M135.9 35l3.6-.7 2.8-3.8-6.6-1.1-1.4 2.3.4 2.4z"/><path class="st301 st765" d="M159.1 11.7l-2.2 2.2-2.2-2.2 2.2-2z"/><path class="st768" d="M156.5 38.5l2.7-4.4s1.9 11.4-3.9 10l1.2-5.6z"/><path class="st5" d="M156.5 38.5l2.7-4.4s1.9 11.4-3.9 10l1.2-5.6z"/><g class="st301"><path class="st757" d="M128.6 42.4l5 2.3.5 1.4 5.2 1.2-11.4 20-.9-5.3z"/><path class="st769" d="M161.9 51.9l-11.8-4.6v17.5l10.8 2.5z"/><path class="st757" d="M128.6 42.4l5 2.3.5 1.4 5.2 1.2v17.5l-11.4 2.5z"/></g><path class="st770" d="M156.3 105.3c-3.8 2.6-7.5 5.2-11.2 7.8-4-13.7-5.9-27.8-5.8-41.6 4.8-4.2 9.9-8.4 15.1-12.6-2 15.3-1.3 31 1.9 46.4z"/><path class="st768" d="M132.5 111.5c1 5.5 8.3 9.9 13.8 9.9h7.7c5.5 0 8.3-4.4 6.6-9.8-4.7-15.2-6.8-30.7-6.5-45.9.1-5.5-3.8-9.9-9.2-9.9-5.3 0-12.1 3.2-12.9 8.7-2.2 15.2-2.2 31.9.5 47z"/><path class="st764" d="M133.1 105.3c4.7 2.6 9.4 5.2 14.2 7.8-3.4-14.8-4.4-29.9-3-44.8-3.3-2.4-5.5-4.9-8.7-7.3-2.7 14.7-4.3 29.6-2.5 44.3z"/><path class="st301 st761" d="M152.2 56.8l-.6-.2-.3-1.7 2.4-4-2.5.3.6-3.9-6.3 1.4-7-1-1.4 5.6-.8 5.2-.3 7.6-.9 7.3-1.8 7.3-.2 7.4.9 7.4 1.3 7.3.3 8.2 8.1-4.8 7.7-3.1-.5-6.2-1.3-6.6.5-6.8.9-6.7-1.3-6.8 2.1-6.5z"/><path class="st768" d="M152.6 104.7c-5.1 2.1-10.2 4.2-15.2 6.3-3-15-3.5-30.4-1.6-45.5 5.3-3.2 10.6-6.4 16.1-9.6-2.6 16-2.4 32.5.7 48.8z"/><path class="st771" d="M152.6 104.7c-4.1 2-8.1 3.9-12.2 5.9-3.5-15.4-4.4-31.2-2.7-46.6 4.6-2.7 9.3-5.4 14.1-8.1-2.5 16-2.3 32.5.8 48.8z"/><path class="st768" d="M156.3 105.3c-4.1 2.6-8.2 5.2-12.2 7.8-4.2-14.4-6.2-29.2-5.9-43.7 5.3-3.5 10.7-7.1 16.2-10.6-2 15.4-1.3 31.1 1.9 46.5z"/><path class="st771" d="M159.8 108.3c-2.5 1.2-8.1 2.4-10.6 3.6-5.9-14.2-9.6-28.8-11-43.2 5.3-3.3 10.6-6.6 16.1-9.9-2.1 16.4 1.8 33.1 5.5 49.5z"/><path class="st772" d="M140.8 108.1c-2.9 1.2 9.5 1.9 6.6 3.1-6.8-14.5-11.1-29.3-12.8-43.9 6.1-3.4 12.3-6.7 18.7-10.1-2.4 16.6-16.8 34.2-12.5 50.9z"/><path class="st773" d="M159.8 108.3c-2.5 1.2-8.1 2.4-10.6 3.6-5.9-14.2-3.5-39.4-3.5-39.4s3.1-10.4 8.6-13.7c-2.1 16.4 1.8 33.1 5.5 49.5z"/><path class="st764" d="M132.5 105.3c.9 2.2 1.8 4.4 2.8 6.6-3.8-15.8-4.9-32-3.3-47.8.8-1.7 1.5-3.5 2.3-5.2-3.1 15.3-3.7 31-1.8 46.4z"/><path class="st768" d="M138.3 58.8c.5-2.7 1.1-5.3 1.7-8 4.1 2.6 8.3 5.3 12.5 8h-14.2z"/><path class="st774" d="M157.6 48.6l-6-2.1-3.2 15.9 9.2-2z"/><path class="st5" d="M155.5 48.1l-4.3-1.6-1.1 6.3 2.2 2.5 2.9-3.6z"/><path class="st775" d="M132.9 48.6l9.1-3.2v17l-9.1-2z"/><path class="st776" d="M132.9 48.6l9.1-3.2-1.2 9.5-7.9 5.5zm-5.6-6.2l3.1 2.6-2.1 13.6-1.3-2 1.5-8.1z"/><path class="st758" d="M128 97.9h31.7v21.8H128z"/><path class="st759" d="M146.3 97.9h13.5v21.8h-13.5z"/><ellipse class="st5" cx="154.9" cy="136.5" rx="37.3" ry="3.8"/><path class="st758" d="M166.1 137.2h-44.4l4-34.5H162z"/><path class="st5" d="M148.7 102.7l1.1 34.5h16.3l-4.1-34.5z"/><path class="st714" d="M185.2 125.7h2.3v10.8h-2.3z"/><path class="st759" d="M186.5 125.7h1v10.8h-1z"/><ellipse class="st676" cx="187" cy="138.5" rx="12.1" ry="1.3"/><path class="st714" d="M189.9 138h-7.2l.7-2.2h5.9z"/><path class="st5" d="M185.6 135.8l.2 2.2h4.1l-.6-2.2z"/><path id="XMLID_204_" class="st34" d="M147.5 138.9c0-4.1 3.3-7.5 7.5-7.5 4.1 0 7.5 3.3 7.5 7.5h-15z"/><path id="XMLID_203_" class="st34" d="M140.7 138.9c0-2.8 2.2-5 5-5s5 2.2 5 5h-10z"/><path id="XMLID_202_" class="st34" d="M160.6 139c0-1.8 1.4-3.2 3.2-3.2 1.8 0 3.2 1.4 3.2 3.2h-6.4z"/><path id="XMLID_201_" class="st34" d="M133.6 98c0-2.5 2-4.5 4.5-4.5s4.5 2 4.5 4.5h-9z"/><path id="XMLID_197_" class="st34" d="M129.5 98c0-1.7 1.4-3 3-3 1.7 0 3 1.4 3 3h-6z"/><path id="XMLID_196_" class="st34" d="M141.5 98c0-1.1.9-1.9 1.9-1.9 1.1 0 1.9.9 1.9 1.9h-3.8z"/><path class="st759" d="M138.4 122.9h-9c0-1.3-1.1-2.4-2.4-2.4v-3.4c1.3 0 2.4-1.1 2.4-2.4h9c0 1.3 1.1 2.4 2.4 2.4v3.4c-1.3 0-2.4 1-2.4 2.4z"/><path id="XMLID_195_" class="st714" d="M180 125.8h10.2l2.3-5.7h-10.2z"/><path id="XMLID_184_" class="st759" d="M180 125.8h10.2l2.3-5.7h-10.2z"/><path class="st612" d="M243.6 138.4c-.1 0-.2 0-.3-.1-.1-.1-.1-.2-.1-.3s0-.2.1-.3c.2-.2.5-.2.7 0 .1.1.1.2.1.3s0 .2-.1.3-.3.1-.4.1zm-91.7 9.6c0-.3.2-.5.5-.5.2 0 .5.2.5.5 0 .2-.2.5-.5.5-.3-.1-.5-.3-.5-.5zm4.7.4c-.3 0-.5-.2-.5-.5s.2-.5.5-.5c.2 0 .5.2.5.5-.1.3-.3.5-.5.5zm-8.5 0c-.3 0-.5-.2-.5-.5 0-.2.2-.5.5-.5s.5.2.5.5-.2.5-.5.5zm12.2-.5c0-.3.2-.5.5-.5.2 0 .5.2.5.5s-.2.5-.5.5-.5-.2-.5-.5zm-16.4.5c-.3 0-.5-.2-.5-.5s.2-.5.5-.5c.2 0 .5.2.5.5s-.2.5-.5.5zm20.7-.5c0-.3.2-.5.5-.5s.5.2.5.5-.2.5-.5.5-.5-.3-.5-.5zm-24.9.5c-.3 0-.5-.2-.5-.5 0-.2.2-.5.5-.5.2 0 .5.2.5.5-.1.2-.3.5-.5.5zm29.1-.6c0-.3.2-.5.5-.5s.5.2.5.5-.2.5-.5.5-.5-.2-.5-.5zm-33.3.5c-.3 0-.5-.2-.5-.5 0-.2.2-.5.5-.5s.5.2.5.5c-.1.3-.3.5-.5.5zm38-.1c-.3 0-.5-.2-.5-.5s.2-.5.5-.5.5.2.5.5-.3.5-.5.5zm-42.3 0c-.3 0-.5-.2-.4-.5 0-.3.2-.5.5-.5s.5.2.5.5c-.1.3-.3.5-.6.5zm46-.6c0-.3.2-.5.4-.5.3 0 .5.2.5.4 0 .3-.2.5-.5.5-.1.1-.4-.1-.4-.4zm-50.2.5c-.3 0-.5-.2-.5-.5s.2-.5.5-.4c.3 0 .5.2.4.5.1.2-.1.4-.4.4zm54.5-.6c0-.3.2-.5.5-.5s.5.2.5.5c0 .2-.2.5-.4.5-.4-.1-.6-.3-.6-.5zm-58.7.4c-.3 0-.5-.2-.5-.5s.2-.5.5-.5.5.2.5.5c-.1.3-.3.5-.5.5zm62.9-.6c0-.3.2-.5.4-.5.3 0 .5.2.5.4 0 .3-.2.5-.5.5-.2 0-.4-.2-.4-.4zm-67.2.4c-.3 0-.5-.2-.4-.5 0-.3.2-.4.5-.4.2 0 .5.2.4.5 0 .2-.2.4-.5.4.1 0 0 0 0 0zm71.4-.6c0-.3.2-.5.4-.5s.5.2.5.4c0 .3-.2.5-.4.5-.3 0-.5-.2-.5-.4zm-75.6.4c-.3 0-.5-.2-.4-.5 0-.3.2-.5.5-.5.2 0 .5.2.4.5 0 .3-.2.5-.5.5zm79.8-.6c0-.2.2-.5.4-.5s.5.2.5.4-.2.5-.4.5c-.3 0-.5-.2-.5-.4zm-84 .4c-.3 0-.5-.2-.4-.5 0-.2.2-.5.5-.4.3 0 .5.2.4.5 0 .2-.2.4-.5.4zm88.2-.7c0-.3.2-.5.4-.5s.5.2.5.4c0 .3-.2.5-.4.5s-.4-.1-.5-.4zm-92.4.4c-.3 0-.5-.2-.4-.5 0-.3.2-.5.5-.4.3 0 .4.2.4.5s-.2.4-.5.4zm96.6-.7c0-.3.2-.5.4-.5s.5.2.5.4-.2.5-.4.5c-.2.1-.4-.1-.5-.4zm-100.8.4c-.3 0-.5-.2-.4-.5 0-.2.2-.4.5-.4s.5.2.4.5c-.1.3-.3.4-.5.4zm105.6-.3c-.3 0-.5-.2-.5-.4 0-.3.2-.5.4-.5s.5.2.5.4c0 .3-.2.5-.4.5zm-109.9 0c-.3 0-.4-.2-.4-.5s.2-.4.5-.4c.2 0 .4.2.4.5 0 .2-.2.4-.5.4.1 0 .1 0 0 0zm113.6-.8c0-.3.2-.5.4-.5.3 0 .5.2.5.4 0 .3-.2.5-.4.5h-.1c-.2 0-.4-.1-.4-.4zm-117.8.4c-.3 0-.5-.3-.4-.5 0-.3.3-.4.5-.4.3 0 .4.2.4.5s-.2.4-.5.4c.1 0 0 0 0 0zm122-.8c0-.2.2-.5.4-.5s.5.2.5.4c0 .3-.2.5-.4.5h-.1c-.2 0-.4-.2-.4-.4zm-126.2.4c-.3 0-.5-.3-.4-.5 0-.3.3-.4.5-.4s.4.2.4.5c0 .2-.2.4-.5.4zm130.4-.9c0-.3.2-.5.4-.5.3 0 .5.2.5.4 0 .3-.1.5-.4.5-.3 0-.5-.1-.5-.4zm-134.6.4c-.3 0-.4-.3-.4-.5s.3-.4.5-.4c.3 0 .4.3.4.5 0 .3-.2.4-.5.4.1 0 0 0 0 0zm138.8-.9c0-.3.1-.5.4-.5.3 0 .5.1.5.4 0 .3-.1.5-.4.5h-.1c-.2 0-.4-.2-.4-.4zm-143 .4c-.2 0-.4-.3-.4-.5 0-.3.3-.4.5-.4.3 0 .4.3.4.5s-.2.4-.5.4c.1 0 0 0 0 0zm147.2-1c0-.3.1-.5.4-.5.2 0 .5.1.5.4 0 .2-.1.5-.4.5h-.1c-.2 0-.4-.2-.4-.4zm-151.4.3c-.2 0-.4-.3-.4-.5 0-.3.3-.4.5-.4.3 0 .4.3.4.5 0 .3-.2.5-.5.4.1.1.1.1 0 0zm155.5-1.1c0-.2.1-.5.4-.6.2 0 .5.1.5.4 0 .3-.1.5-.4.5h-.1c-.1.1-.3 0-.4-.3zm-159.6.4c-.2 0-.4-.3-.4-.5.1-.2.3-.4.5-.4s.4.3.4.5-.2.4-.5.4zm163.7-1.3c-.1-.2.1-.5.3-.6.2-.1.5.1.6.3.1.2-.1.5-.3.6h-.1c-.2.1-.4-.1-.5-.3zm-167.9.3c-.3-.1-.4-.3-.3-.6.1-.2.3-.4.6-.3.2.1.4.3.3.6 0 .2-.2.4-.5.4 0 0 0-.1-.1-.1zm172-1.5c-.1-.2 0-.5.2-.6.2-.1.5 0 .6.3.1.2 0 .5-.2.6h-.2c-.2 0-.4-.1-.4-.3zm-176.1.2c-.2-.1-.4-.4-.2-.6.1-.2.4-.4.6-.2.2.1.4.4.2.6-.1.2-.2.3-.4.3 0-.1-.1-.1-.2-.1zm-2.8-2.5c-.1 0-.2 0-.3-.2-.1-.1-.1-.2-.1-.3s.1-.2.2-.3c.2-.2.5-.2.6 0 .1.1.1.2.1.3 0 .1 0 .2-.1.3-.2.1-.3.2-.4.2z" id="XMLID_175_"/><path class="st612" d="M243.6 138.5c-.1 0-.2 0-.3-.1-.1-.1-.1-.2-.1-.3s0-.2.1-.3c.2-.2.5-.2.7 0 .1.1.1.2.1.3s0 .2-.1.3c-.2 0-.3.1-.4.1zm-91.7 9.6c0-.2.2-.5.5-.5.2 0 .5.2.5.5s-.2.5-.5.5-.5-.2-.5-.5zm4.7.5c-.3 0-.5-.2-.5-.5s.2-.5.5-.5c.2 0 .5.2.5.5-.1.3-.3.5-.5.5zm-8.5 0c-.3 0-.5-.2-.5-.5s.2-.5.5-.5.5.2.5.5-.2.5-.5.5zm12.7-.1c-.3 0-.5-.2-.5-.5 0-.2.2-.5.5-.5.2 0 .5.2.5.5s-.2.5-.5.5zm-16.9 0c-.3 0-.5-.2-.5-.5 0-.2.2-.5.5-.5.2 0 .5.2.5.5s-.2.5-.5.5zm20.7-.5c0-.3.2-.5.5-.5s.5.2.5.5-.2.5-.5.5-.5-.2-.5-.5zm-24.9.5c-.3 0-.5-.2-.5-.5s.2-.5.5-.5c.2 0 .5.2.5.5-.1.3-.3.5-.5.5zm29.1-.5c0-.3.2-.5.5-.5s.5.2.5.5c0 .2-.2.5-.5.5-.3-.1-.5-.3-.5-.5zm-33.3.4c-.3 0-.5-.2-.5-.5s.2-.5.5-.5.5.2.5.5c-.1.3-.3.5-.5.5zm-4.3-.1c-.3 0-.5-.2-.4-.5 0-.3.2-.5.5-.5s.5.2.5.5c-.1.3-.3.5-.6.5zm41.8-.4c0-.3.2-.5.5-.5s.5.2.5.5c0 .2-.2.5-.5.5-.3-.1-.5-.3-.5-.5zm4.2-.2c0-.2.2-.5.4-.5.3 0 .5.2.5.4 0 .3-.2.5-.5.5-.1.1-.4-.1-.4-.4zm-50.2.5c-.3 0-.5-.2-.5-.5s.2-.5.5-.4c.3 0 .5.2.4.5.1.2-.1.4-.4.4zm54.5-.6c0-.3.2-.5.5-.5s.5.2.5.5-.2.5-.4.5c-.4-.1-.6-.3-.6-.5zm-58.7.4c-.3 0-.5-.2-.5-.5s.2-.5.5-.5.5.2.5.5c-.1.3-.3.5-.5.5zm62.9-.6c0-.3.2-.5.4-.5.3 0 .5.2.5.5 0 .2-.2.5-.5.5-.2 0-.4-.2-.4-.5zm-67.2.5c-.2 0-.5-.2-.4-.5 0-.2.2-.5.5-.4.2 0 .5.2.4.5 0 .2-.2.4-.5.4.1 0 0 0 0 0zm71.4-.7c0-.3.2-.5.4-.5s.5.2.5.4c0 .3-.2.5-.4.5-.3.1-.5-.1-.5-.4zm-75.6.5c-.3 0-.5-.2-.4-.5 0-.3.2-.5.5-.4.2 0 .5.2.4.5 0 .2-.2.4-.5.4zm79.8-.7c0-.3.2-.5.4-.5s.5.2.5.4c0 .3-.2.5-.4.5-.3 0-.5-.2-.5-.4zm-84 .4c-.3 0-.5-.2-.4-.5 0-.3.2-.5.5-.4.3 0 .5.2.4.5 0 .2-.2.4-.5.4zm88.2-.7c0-.3.2-.5.4-.5s.5.2.5.4-.2.5-.4.5c-.3.1-.4-.1-.5-.4zm-92.4.5c-.3 0-.5-.2-.4-.5 0-.2.2-.5.5-.4.3 0 .4.2.4.5 0 .2-.2.4-.5.4zm96.6-.7c0-.3.2-.5.4-.5s.5.2.5.4-.2.5-.4.5-.4-.2-.5-.4zm-100.8.4c-.3 0-.5-.2-.4-.5 0-.3.2-.5.5-.4.3 0 .5.2.4.5-.1.2-.3.4-.5.4zm105.1-.8c0-.3.2-.5.4-.5s.5.2.5.4c0 .3-.2.5-.4.5-.3.1-.5-.1-.5-.4zm-109.4.4c-.3 0-.4-.2-.4-.5s.2-.5.5-.4c.2 0 .4.2.4.5s-.2.4-.5.4c.1 0 .1 0 0 0zm113.6-.7c0-.3.2-.5.4-.5.3 0 .5.2.5.4 0 .3-.2.5-.4.5-.3 0-.5-.2-.5-.4zm-117.8.4c-.3 0-.5-.2-.4-.5 0-.3.3-.4.5-.4.3 0 .4.2.4.5 0 .2-.2.4-.5.4.1 0 0 0 0 0zm122-.9c0-.2.2-.5.4-.5s.5.1.5.4c0 .2-.2.5-.4.5h-.1c-.2.1-.4-.1-.4-.4zm-126.2.5c-.3 0-.5-.3-.4-.5 0-.2.3-.4.5-.4s.4.3.4.5-.2.4-.5.4zm130.4-.9c0-.2.2-.5.4-.5.3 0 .5.2.5.4 0 .3-.1.5-.4.5-.3 0-.5-.2-.5-.4zm-134.6.4c-.3 0-.4-.3-.4-.5 0-.3.3-.4.5-.4.3 0 .4.3.4.5s-.2.4-.5.4c.1 0 0 0 0 0zm138.8-1c0-.3.1-.5.4-.5.3 0 .5.1.5.4 0 .2-.1.5-.4.5h-.1c-.2 0-.4-.1-.4-.4zm-143 .4c-.2 0-.4-.3-.4-.5s.3-.4.5-.4.4.3.4.5c0 .3-.2.4-.5.4.1 0 0 0 0 0zm147.2-1c0-.2.1-.5.4-.5.2 0 .5.1.5.4 0 .3-.1.5-.4.5h-.1c-.2 0-.4-.2-.4-.4zm-151.4.4c-.2 0-.4-.3-.4-.5s.3-.4.5-.4c.3 0 .4.3.4.5s-.2.4-.5.4c.1 0 .1 0 0 0zm155.5-1.1c0-.2.1-.5.4-.6.2 0 .5.1.5.4 0 .2-.1.5-.4.5h-.1c-.1 0-.3-.1-.4-.3zm-159.6.3c-.2 0-.4-.3-.4-.5.1-.2.3-.4.5-.4s.4.3.4.5c0 .3-.2.4-.5.4zM236 142c-.1-.2.1-.5.3-.6.2-.1.5.1.6.3.1.2-.1.5-.3.6h-.1c-.2.1-.4 0-.5-.3zm-167.9.4c-.3-.1-.4-.3-.3-.6.1-.2.3-.4.6-.3.2.1.4.3.3.6 0 .2-.2.4-.4.4-.1-.1-.1-.1-.2-.1zm172-1.6c-.1-.2 0-.5.2-.6.2-.1.5 0 .6.2.1.2 0 .5-.2.6h-.2c-.2.1-.4 0-.4-.2zM64 141c-.2-.1-.4-.4-.2-.6.1-.2.4-.4.6-.2.2.1.4.4.2.6-.1.2-.2.3-.4.3 0 0-.1 0-.2-.1zm-2.8-2.5c-.1 0-.2 0-.3-.1-.1-.1-.1-.2-.1-.3 0-.1.1-.3.2-.3.2-.2.5-.2.6 0 .1.1.1.2.1.3 0 .1 0 .2-.1.3-.2 0-.3.1-.4.1z" id="XMLID_173_"/><path class="st612" d="M243.6 138.8c-.1 0-.2-.1-.3-.1-.1-.1-.1-.2-.1-.3 0-.1 0-.2.1-.3.2-.2.5-.2.7 0 .1.1.1.2.1.3 0 .1 0 .2-.1.3-.2 0-.3.1-.4.1zm-91.7 9.6c0-.3.2-.5.5-.5.2 0 .5.2.5.5 0 .2-.2.5-.5.5-.3-.1-.5-.3-.5-.5zm4.7.4c-.3 0-.5-.2-.5-.5s.2-.5.5-.5c.2 0 .5.2.5.5-.1.3-.3.5-.5.5zm-8.5 0zm-.4-.4c0-.3.2-.5.5-.5s.5.2.5.5-.2.5-.5.5c-.3-.1-.5-.3-.5-.5zm12.6-.1c0-.3.2-.5.5-.5.2 0 .5.2.5.5s-.2.5-.5.5-.5-.2-.5-.5zm-16.4.5c-.3 0-.5-.2-.5-.5s.2-.5.5-.5c.2 0 .5.2.5.5s-.2.5-.5.5zm20.7-.5c0-.3.2-.5.5-.5s.5.2.5.5-.2.5-.5.5-.5-.3-.5-.5zm-25.4 0c0-.3.2-.5.5-.5.2 0 .5.2.5.5 0 .2-.2.5-.5.5-.3-.1-.5-.3-.5-.5zm29.6-.1c0-.2.2-.5.5-.5s.5.2.5.5c0 .2-.2.5-.5.5s-.5-.2-.5-.5zm-33.3.5c-.3 0-.5-.2-.5-.5s.2-.5.5-.5.5.2.5.5c-.1.3-.3.5-.5.5zm37.5-.6c0-.3.2-.5.5-.5s.5.2.5.5-.2.5-.5.5-.5-.2-.5-.5zm-41.8.5c-.3 0-.5-.2-.4-.5 0-.3.2-.5.5-.5s.5.2.5.5c-.1.3-.3.5-.6.5zm46-.6c0-.3.2-.5.4-.5.3 0 .5.2.5.5 0 .2-.2.5-.5.5-.1 0-.4-.2-.4-.5zm-50.2.5c-.3 0-.5-.2-.5-.5 0-.2.2-.5.5-.4.3 0 .5.2.4.5.1.2-.1.4-.4.4zm54.5-.6c0-.2.2-.5.5-.5s.5.2.5.4c0 .3-.2.5-.4.5-.4 0-.6-.2-.6-.4zm-58.7.4c-.3 0-.5-.2-.5-.5s.2-.5.5-.4c.3 0 .5.2.5.5-.1.2-.3.4-.5.4zm62.9-.6c0-.2.2-.5.4-.5.3 0 .5.2.5.4 0 .3-.2.5-.5.5-.2 0-.4-.2-.4-.4zm-67.2.4c-.2 0-.5-.2-.4-.5 0-.3.2-.5.5-.5.2 0 .5.2.4.5 0 .3-.2.5-.5.5.1 0 0 0 0 0zm71.4-.6c0-.3.2-.5.4-.5s.5.2.5.4c0 .3-.2.5-.4.5-.3 0-.5-.2-.5-.4zm-75.6.4c-.3 0-.5-.2-.4-.5 0-.2.2-.5.5-.4.2 0 .5.2.4.5 0 .2-.2.4-.5.4zm79.8-.6c0-.3.2-.5.4-.5s.5.2.5.4c0 .3-.2.5-.4.5-.3 0-.5-.2-.5-.4zm-84 .4c-.3 0-.5-.2-.4-.5 0-.2.2-.4.5-.4s.5.2.4.5c0 .2-.2.4-.5.4zm88.2-.7c0-.2.2-.5.4-.5s.5.2.5.4c0 .3-.2.5-.4.5-.3 0-.4-.1-.5-.4zm-92.4.4c-.3 0-.5-.2-.4-.5 0-.3.2-.5.5-.4.3 0 .4.2.4.5s-.2.4-.5.4zm96.6-.7c0-.3.2-.5.4-.5s.5.2.5.4c0 .3-.2.5-.4.5s-.4-.1-.5-.4zm-100.8.4c-.3 0-.5-.2-.4-.5 0-.3.2-.5.5-.4.3 0 .5.2.4.5-.1.3-.3.4-.5.4zm105.1-.7c0-.3.2-.5.4-.5s.5.2.5.4-.2.5-.4.5c-.3 0-.5-.2-.5-.4zm-109.4.4c-.3 0-.4-.2-.4-.5 0-.2.2-.4.5-.4.2 0 .4.2.4.5 0 .2-.2.4-.5.4.1 0 .1 0 0 0zM211 146c0-.3.2-.5.4-.5.3 0 .5.2.5.4s-.2.5-.4.5c-.3 0-.5-.1-.5-.4zm-117.8.4c-.3 0-.5-.2-.4-.5 0-.3.3-.5.5-.4.3 0 .4.3.4.5 0 .3-.2.4-.5.4.1 0 0 0 0 0zm122-.8c0-.2.2-.5.4-.5s.5.2.5.4c0 .3-.2.5-.4.5h-.1c-.2 0-.4-.2-.4-.4zM89 146c-.3 0-.5-.3-.4-.5 0-.3.3-.5.5-.4.2 0 .4.3.4.5s-.2.4-.5.4zm130.4-.9c0-.2.2-.5.4-.5.3 0 .5.2.5.4s-.1.5-.4.5c-.3 0-.5-.1-.5-.4zm-134.6.4c-.3 0-.4-.3-.4-.5 0-.3.3-.4.5-.4.3 0 .4.3.4.5 0 .3-.2.4-.5.4.1 0 0 0 0 0zm138.8-.9c0-.2.1-.5.4-.5.3 0 .5.1.5.4 0 .3-.1.5-.4.5h-.1c-.2 0-.4-.2-.4-.4zm-143 .4c-.2 0-.4-.3-.4-.5 0-.3.3-.4.5-.4s.4.3.4.5-.2.4-.5.4c.1 0 0 0 0 0zm147.2-1c0-.3.1-.5.4-.5.2 0 .5.1.5.4 0 .2-.1.5-.4.5h-.1c-.2 0-.4-.2-.4-.4zm-151.4.3c-.2 0-.4-.3-.4-.5 0-.3.3-.4.5-.4.3 0 .4.3.4.5 0 .3-.2.5-.5.4.1.1.1.1 0 0zm155.5-1.1c0-.2.1-.5.4-.5.2 0 .5.1.5.4 0 .2-.1.5-.4.5h-.1c-.1 0-.3-.1-.4-.4zm-159.6.4c-.2-.1-.4-.3-.4-.6.1-.2.3-.4.5-.4s.4.3.4.5c0 .3-.2.5-.5.5zm163.7-1.3c-.1-.2.1-.5.3-.6.2-.1.5.1.6.3.1.2-.1.5-.3.6h-.1c-.2.1-.4-.1-.5-.3zm-167.9.3c-.3-.1-.4-.3-.3-.6.1-.2.3-.4.6-.3.2.1.4.3.3.6 0 .2-.2.3-.4.3h-.2zm172-1.5c-.1-.2 0-.5.2-.6.2-.1.5 0 .6.2.1.2 0 .5-.2.6h-.2c-.2.1-.4 0-.4-.2zm-176.1.2c-.2-.1-.4-.4-.2-.6.1-.2.4-.3.6-.2.2.1.4.4.2.6-.1.2-.2.3-.4.3 0-.1-.1-.1-.2-.1zm-2.8-2.5c-.1 0-.2-.1-.3-.2-.1-.1-.1-.2-.1-.3 0-.1.1-.2.1-.3.2-.2.5-.2.6 0 .1.1.1.2.1.3s0 .2-.1.3c-.1.1-.2.2-.3.2z" id="XMLID_171_"/><path class="st612" d="M243.6 139c-.1 0-.2 0-.3-.1-.1-.1-.1-.2-.1-.3s0-.2.1-.3c.2-.2.5-.2.7 0 .1.1.1.2.1.3s0 .2-.1.3c-.2.1-.3.1-.4.1zm-91.7 9.6c0-.2.2-.5.5-.5.2 0 .5.2.5.5s-.2.5-.5.5-.5-.2-.5-.5zm4.7.5c-.3 0-.5-.2-.5-.5 0-.2.2-.5.5-.5.2 0 .5.2.5.5-.1.3-.3.5-.5.5zm-8.5 0zm-.4-.5c0-.3.2-.5.5-.5s.5.2.5.5-.2.5-.5.5-.5-.2-.5-.5zm12.6 0c0-.3.2-.5.5-.5.2 0 .5.2.5.5s-.2.5-.5.5-.5-.2-.5-.5zm-16.4.5c-.3 0-.5-.2-.5-.5 0-.2.2-.5.5-.5.2 0 .5.2.5.5s-.2.5-.5.5zm20.7-.5c0-.3.2-.5.5-.5s.5.2.5.5-.2.5-.5.5c-.3-.1-.5-.3-.5-.5zm-25.4-.1c0-.3.2-.5.5-.5.2 0 .5.2.5.5s-.2.5-.5.5-.5-.2-.5-.5zm29.6 0c0-.3.2-.5.5-.5s.5.2.5.5-.2.5-.5.5c-.3-.1-.5-.3-.5-.5zm-33.3.4c-.3 0-.5-.2-.5-.5s.2-.5.5-.5.5.2.5.5c-.1.3-.3.5-.5.5zm37.5-.5c0-.3.2-.5.5-.5s.5.2.5.5-.2.5-.5.5c-.3-.1-.5-.3-.5-.5zm-41.8.4c-.3 0-.5-.2-.4-.5 0-.3.2-.5.5-.5s.5.2.5.5c-.1.3-.3.5-.6.5zm46-.5c0-.3.2-.5.4-.5.3 0 .5.2.5.5s-.2.5-.5.5c-.1-.1-.4-.3-.4-.5zm-50.2.4c-.3 0-.5-.2-.5-.5s.2-.5.5-.5.5.2.4.5c.1.3-.1.5-.4.5zm54.5-.6c0-.3.2-.5.5-.5s.5.2.5.4c0 .3-.2.5-.4.5-.4.1-.6-.1-.6-.4zm-58.7.5c-.3 0-.5-.2-.5-.5s.2-.5.5-.5.5.2.5.5c-.1.3-.3.5-.5.5zm62.9-.6c0-.3.2-.5.4-.5.3 0 .5.2.5.4s-.2.5-.5.5c-.2 0-.4-.2-.4-.4zm-67.2.4c-.2 0-.5-.2-.4-.5 0-.3.2-.5.5-.4.2 0 .5.2.4.5 0 .2-.2.4-.5.4.1 0 0 0 0 0zm71.4-.6c0-.3.2-.5.4-.5s.5.2.5.4c0 .3-.2.5-.4.5-.3 0-.5-.2-.5-.4zm-75.6.4c-.3 0-.5-.2-.4-.5 0-.3.2-.4.5-.4.2 0 .5.2.4.5 0 .2-.2.4-.5.4zm79.8-.7c0-.3.2-.5.4-.5s.5.2.5.4c0 .3-.2.5-.4.5-.3.1-.5-.1-.5-.4zm-84 .5c-.3 0-.5-.2-.4-.5 0-.3.2-.5.5-.4.3 0 .5.2.4.5 0 .2-.2.4-.5.4zm88.2-.7c0-.3.2-.5.4-.5s.5.2.5.4-.2.5-.4.5c-.3 0-.4-.2-.5-.4zm-92.4.4c-.3 0-.5-.2-.4-.5 0-.2.2-.4.5-.4s.4.2.4.5c0 .2-.2.4-.5.4zm96.6-.7c0-.3.2-.5.4-.5s.5.2.5.4c0 .3-.2.5-.4.5s-.4-.2-.5-.4zm-100.8.4c-.3 0-.5-.2-.4-.5 0-.3.2-.4.5-.4s.5.2.4.5c-.1.2-.3.4-.5.4zm105.1-.7c0-.3.2-.5.4-.5s.5.2.5.4c0 .3-.2.5-.4.5-.3 0-.5-.2-.5-.4zm-109.4.4c-.3 0-.5-.2-.4-.5 0-.2.2-.4.5-.4.2 0 .4.2.4.5 0 .2-.2.4-.5.4.1 0 .1 0 0 0zm113.6-.8c0-.2.2-.5.4-.5.3 0 .5.2.5.4s-.2.5-.4.5c-.3 0-.5-.2-.5-.4zm-117.8.4c-.3 0-.5-.2-.4-.5 0-.3.3-.4.5-.4.3 0 .4.2.4.5 0 .2-.2.4-.5.4.1 0 0 0 0 0zm122-.8c0-.3.2-.5.4-.5s.5.2.5.4c0 .3-.2.5-.4.5h-.1c-.2 0-.4-.2-.4-.4zm-126.2.4c-.3 0-.5-.3-.4-.5 0-.3.3-.4.5-.4s.4.3.4.5-.2.4-.5.4zm130.4-.9c0-.2.2-.5.4-.5.3 0 .5.1.5.4 0 .2-.1.5-.4.5-.3 0-.5-.2-.5-.4zm-134.6.4c-.2 0-.4-.3-.4-.5 0-.3.3-.4.5-.4.3 0 .4.3.4.5s-.2.4-.5.4c.1 0 0 0 0 0zm138.8-.9c0-.3.1-.5.4-.5.3 0 .5.1.5.4 0 .2-.1.5-.4.5h-.1c-.2 0-.4-.2-.4-.4zm-143 .4c-.2 0-.4-.3-.4-.5 0-.3.3-.4.5-.4s.4.3.4.5-.2.4-.5.4c.1 0 0 0 0 0zm147.2-1.1c0-.2.1-.5.4-.5.2 0 .5.1.5.4 0 .3-.1.5-.4.5h-.1c-.2 0-.4-.1-.4-.4zm-151.4.4c-.2 0-.4-.3-.4-.5s.3-.4.5-.4c.3 0 .4.3.4.5 0 .3-.2.4-.5.4.1 0 .1 0 0 0zm155.5-1.1c0-.2.1-.5.4-.5.2 0 .5.1.5.4 0 .2-.1.5-.4.5h-.1c-.1 0-.3-.2-.4-.4zm-159.6.3c-.2 0-.4-.3-.4-.5.1-.3.3-.4.5-.4s.4.3.4.5c0 .3-.2.5-.5.4 0 .1 0 .1 0 0zm163.7-1.2c-.1-.2.1-.5.3-.6.2-.1.5.1.6.3.1.2-.1.5-.3.6h-.1c-.2 0-.4-.1-.5-.3zm-167.9.3c-.3-.1-.4-.3-.3-.6.1-.2.3-.4.6-.3.2.1.4.3.3.6 0 .2-.2.3-.4.3h-.2zm172-1.6c-.1-.2 0-.5.2-.6.2-.1.5 0 .6.2.1.2 0 .5-.2.6h-.2c-.2.1-.4 0-.4-.2zm-176.1.3c-.2-.1-.4-.4-.2-.6.1-.2.4-.4.6-.2.2.1.4.4.2.6-.1.2-.2.3-.4.3 0-.1-.1-.1-.2-.1zm-2.8-2.6c-.1 0-.2 0-.3-.1-.1-.1-.1-.2-.1-.3s.1-.2.1-.3c.2-.2.5-.2.6 0 .1.1.1.2.1.3s0 .2-.1.3c-.1.1-.2.1-.3.1z" id="XMLID_169_"/><path class="st612" d="M243.6 139.3c-.1 0-.2 0-.3-.1-.1-.1-.1-.2-.1-.3 0-.1 0-.2.1-.3.2-.2.5-.2.7 0 .1.1.1.2.1.3 0 .1 0 .2-.1.3-.2 0-.3.1-.4.1zm-91.7 9.6c0-.3.2-.5.5-.5.2 0 .5.2.5.5s-.2.5-.5.5-.5-.2-.5-.5zm4.7.5c-.3 0-.5-.2-.5-.5s.2-.5.5-.5c.2 0 .5.2.5.5-.1.3-.3.5-.5.5zm-8.5 0zm-.4-.5c0-.3.2-.5.5-.5s.5.2.5.5-.2.5-.5.5-.5-.2-.5-.5zm12.6 0c0-.3.2-.5.5-.5.2 0 .5.2.5.5s-.2.5-.5.5c-.3-.1-.5-.3-.5-.5zm-16.4.4c-.3 0-.5-.2-.5-.5s.2-.5.5-.5c.2 0 .5.2.5.5s-.2.5-.5.5zm20.7-.5c0-.3.2-.5.5-.5s.5.2.5.5-.2.5-.5.5-.5-.2-.5-.5zm-25.4 0c0-.2.2-.5.5-.5.2 0 .5.2.5.5 0 .2-.2.5-.5.5s-.5-.2-.5-.5zm29.6 0c0-.3.2-.5.5-.5s.5.2.5.5c0 .2-.2.5-.5.5-.3-.1-.5-.3-.5-.5zm-33.3.4c-.3 0-.5-.2-.5-.5s.2-.5.5-.5.5.2.5.5c-.1.3-.3.5-.5.5zm37.5-.5c0-.3.2-.5.5-.5s.5.2.5.5-.2.5-.5.5c-.3-.1-.5-.3-.5-.5zm-41.8.4c-.3 0-.5-.2-.4-.5 0-.2.2-.5.5-.5s.5.2.5.5c-.1.3-.3.5-.6.5zm46-.6c0-.3.2-.5.4-.5.3 0 .5.2.5.5 0 .2-.2.5-.5.5-.1 0-.4-.2-.4-.5zm-50.2.5c-.3 0-.5-.2-.5-.5s.2-.5.5-.5.5.2.4.5c.1.3-.1.5-.4.5zm54.5-.6c0-.2.2-.5.5-.5s.5.2.5.5-.2.5-.4.5c-.4-.1-.6-.3-.6-.5zm-59.2 0c0-.3.2-.5.5-.5s.5.2.5.5-.2.5-.5.5c-.3-.1-.5-.3-.5-.5zm63.4-.2c0-.2.2-.5.4-.5.3 0 .5.2.5.4 0 .3-.2.5-.5.5-.2.1-.4-.1-.4-.4zm-67.2.5c-.2 0-.5-.2-.4-.5 0-.3.2-.5.5-.4.2 0 .5.2.4.5 0 .2-.2.4-.5.4.1 0 0 0 0 0zm71.4-.7c0-.3.2-.5.4-.5s.5.2.5.4c0 .3-.2.5-.4.5-.3.1-.5-.1-.5-.4zm-75.6.5c-.3 0-.5-.2-.4-.5 0-.3.2-.5.5-.4.2 0 .5.2.4.5 0 .2-.2.4-.5.4zm79.8-.7c0-.3.2-.5.4-.5s.5.2.5.4-.2.5-.4.5c-.3 0-.5-.2-.5-.4zm-84 .4c-.3 0-.5-.2-.4-.5 0-.3.2-.5.5-.4.3 0 .5.2.4.5 0 .2-.2.4-.5.4zm88.2-.7c0-.2.2-.5.4-.5s.5.2.5.4c0 .3-.2.5-.4.5-.3.1-.4-.1-.5-.4zm-92.4.5c-.3 0-.5-.2-.4-.5 0-.3.2-.5.5-.4.3 0 .4.2.4.5 0 .2-.2.4-.5.4zm96.6-.7c0-.3.2-.5.4-.5s.5.2.5.4-.2.5-.4.5-.4-.2-.5-.4zm-100.8.4c-.3 0-.5-.2-.4-.5 0-.3.2-.5.5-.4.3 0 .5.2.4.5-.1.2-.3.4-.5.4zm105.1-.8c0-.3.2-.5.4-.5s.5.2.5.4-.2.5-.4.5c-.3 0-.5-.1-.5-.4zm-109.4.4c-.3 0-.5-.2-.4-.5 0-.3.2-.5.5-.4.2 0 .4.2.4.5s-.2.4-.5.4c.1 0 .1 0 0 0zm113.6-.7c0-.3.2-.5.4-.5.3 0 .5.2.5.4 0 .3-.2.5-.4.5-.3 0-.5-.2-.5-.4zm-117.8.4c-.3 0-.5-.2-.4-.5 0-.3.3-.5.5-.4.3 0 .4.2.4.5 0 .2-.2.4-.5.4.1 0 0 0 0 0zm122-.9c0-.2.2-.5.4-.5s.5.2.5.4-.2.5-.4.5h-.1c-.2.1-.4-.1-.4-.4zm-126.2.4c-.3 0-.5-.3-.4-.5 0-.3.3-.4.5-.4s.4.3.4.5c0 .3-.2.4-.5.4zm130.4-.8c0-.2.2-.5.4-.5.3 0 .5.2.5.4 0 .3-.1.5-.4.5-.3 0-.5-.2-.5-.4zm-134.6.4c-.2 0-.4-.3-.4-.5s.3-.4.5-.4c.3 0 .4.3.4.5s-.2.4-.5.4c.1 0 0 0 0 0zm138.8-1c0-.2.1-.5.4-.5.3 0 .5.1.5.4 0 .2-.1.5-.4.5h-.1c-.2 0-.4-.1-.4-.4zm-143 .4c-.2 0-.4-.3-.4-.5s.3-.4.5-.4c.3 0 .4.3.4.5 0 .3-.2.4-.5.4.1 0 0 0 0 0zm147.2-1c0-.3.1-.5.4-.5.2 0 .5.1.5.4 0 .2-.1.5-.4.5h-.1c-.2 0-.4-.2-.4-.4zm-151.4.4c-.2 0-.4-.3-.4-.5 0-.3.3-.4.5-.4.3.1.4.3.4.5s-.2.4-.5.4c.1 0 .1 0 0 0zm155.5-1.1c0-.3.1-.5.4-.5.2-.1.5.1.5.4 0 .2-.1.5-.4.6h-.1c-.1-.2-.3-.3-.4-.5zm-159.6.3c-.2 0-.4-.3-.4-.5.1-.2.3-.4.6-.4.2.1.4.3.4.6-.1.2-.3.3-.6.3zm163.7-1.3c-.1-.2.1-.5.3-.6.2-.1.5.1.6.3.1.2-.1.5-.3.6h-.1c-.2.1-.4 0-.5-.3zm-167.9.4c-.3-.1-.4-.3-.3-.6.1-.2.3-.4.6-.3.2.1.4.3.3.6 0 .2-.2.3-.5.3h-.1zm172-1.6c-.1-.2 0-.5.2-.6.2-.1.5 0 .6.3.1.2 0 .5-.2.6h-.2c-.2 0-.4-.1-.4-.3zm-176.1.2c-.2-.1-.4-.4-.2-.6.1-.2.4-.3.6-.2.2.1.4.4.2.6-.1.2-.2.3-.4.3 0 0-.1 0-.2-.1zm-2.8-2.5c-.1 0-.2 0-.3-.1-.1-.1-.1-.2-.1-.3 0-.1.1-.2.1-.3.2-.2.5-.2.6 0 .1.1.1.2.1.3 0 .1 0 .2-.1.3-.1 0-.2.1-.3.1z" id="XMLID_166_"/><path class="st612" d="M243.6 139.5c-.1 0-.2 0-.3-.1-.1-.1-.1-.2-.1-.3 0-.1 0-.2.1-.3.2-.2.5-.2.7 0 .1.1.1.2.1.3 0 .1 0 .2-.1.3-.2.1-.3.1-.4.1zm-91.2 10.1c-.3 0-.5-.2-.5-.5 0-.2.2-.5.5-.5.2 0 .5.2.5.5-.1.3-.3.5-.5.5zm4.2 0c-.3 0-.5-.2-.5-.5s.2-.5.5-.5c.2 0 .5.2.5.5-.1.3-.3.5-.5.5zm-8.5 0c-.3 0-.5-.2-.5-.5s.2-.5.5-.5.5.2.5.5-.2.5-.5.5zm12.2-.5c0-.3.2-.5.5-.5s.5.2.5.5c0 .2-.2.5-.5.5s-.5-.2-.5-.5zm-16.4.5c-.3 0-.5-.2-.5-.5s.2-.5.5-.5c.2 0 .5.2.5.5s-.2.5-.5.5zm20.7-.5c0-.2.2-.5.5-.5s.5.2.5.5c0 .2-.2.5-.5.5-.3-.1-.5-.3-.5-.5zm-24.9.4c-.3 0-.5-.2-.5-.5s.2-.5.5-.5c.2 0 .5.2.5.5-.1.3-.3.5-.5.5zm29.1-.5c0-.3.2-.5.5-.5s.5.2.5.4c0 .3-.2.5-.5.5-.3.1-.5-.1-.5-.4zm-33.3.5c-.3 0-.5-.2-.5-.5s.2-.5.5-.4c.3 0 .5.2.5.5-.1.2-.3.4-.5.4zm37.5-.6c0-.2.2-.5.5-.5s.5.2.5.5c0 .2-.2.5-.5.5s-.5-.2-.5-.5zm-41.8.5c-.3 0-.5-.2-.4-.5 0-.3.2-.5.5-.5s.5.2.5.5c-.1.3-.3.5-.6.5zm46-.6c0-.2.2-.5.4-.5.3 0 .5.2.5.5s-.2.5-.5.5c-.1-.1-.4-.3-.4-.5zm-50.2.4c-.3 0-.5-.2-.5-.5s.2-.5.5-.5.5.2.4.5c.1.3-.1.5-.4.5zm54.5-.5c0-.3.2-.5.4-.5.3 0 .5.2.5.4 0 .3-.2.5-.4.5-.3 0-.5-.2-.5-.4zm-58.7.4c-.3 0-.5-.2-.5-.5s.2-.5.5-.5.5.2.5.5c-.1.3-.3.5-.5.5zm62.9-.6c0-.3.2-.5.4-.5.3 0 .5.2.5.5 0 .2-.2.5-.5.5-.2-.1-.4-.3-.4-.5zm-67.2.4c-.3 0-.5-.2-.4-.5 0-.3.2-.5.5-.5.2 0 .5.2.4.5 0 .3-.2.5-.5.5.1 0 0 0 0 0zm71.4-.6c0-.2.2-.5.4-.5s.5.2.5.4c0 .3-.2.5-.4.5-.3 0-.5-.2-.5-.4zm-75.6.4c-.3 0-.5-.2-.4-.5 0-.2.2-.5.5-.4.2 0 .5.2.4.5 0 .2-.2.4-.5.4zm80.3-.2c-.3 0-.5-.2-.5-.4 0-.3.2-.5.4-.5s.5.2.5.4c.1.3-.1.5-.4.5zm-84.5 0c-.3 0-.5-.2-.4-.5 0-.3.2-.5.5-.4.3 0 .5.2.4.5 0 .2-.2.4-.5.4zm88.2-.7c0-.3.2-.5.4-.5s.5.2.5.4-.2.5-.4.5-.4-.2-.5-.4zm-92.4.4c-.3 0-.5-.2-.4-.5 0-.3.2-.5.5-.4.3 0 .4.2.4.5 0 .2-.2.4-.5.4zm96.6-.7c0-.3.2-.5.4-.5s.5.2.5.4c0 .3-.2.5-.4.5s-.4-.1-.5-.4zm-100.8.4c-.3 0-.5-.2-.4-.5 0-.3.2-.5.5-.4.3 0 .5.2.4.5-.1.3-.3.4-.5.4zm105.1-.7c0-.2.2-.5.4-.5s.5.2.5.4c0 .3-.2.5-.4.5-.3 0-.5-.2-.5-.4zm-109.4.4c-.3 0-.4-.2-.4-.5s.2-.4.5-.4c.2 0 .4.2.4.5 0 .2-.2.4-.5.4.1 0 .1 0 0 0zm113.6-.8c0-.2.2-.5.4-.5.3 0 .5.2.5.4s-.2.5-.4.5c-.3 0-.5-.1-.5-.4zm-117.8.4c-.3 0-.5-.2-.4-.5 0-.3.2-.4.5-.4s.4.2.4.5-.2.4-.5.4c.1 0 0 0 0 0zm122-.8c0-.3.2-.5.4-.5s.5.2.5.4-.2.5-.4.5h-.1c-.2 0-.4-.2-.4-.4zm-126.2.4c-.3 0-.5-.3-.4-.5 0-.2.3-.4.5-.4s.4.3.4.5-.2.4-.5.4zm130.4-.9c0-.3.2-.5.4-.5.3 0 .5.2.5.4 0 .3-.1.5-.4.5-.3 0-.5-.1-.5-.4zm-134.6.4c-.2 0-.4-.3-.4-.5 0-.3.3-.4.5-.4.3 0 .4.3.4.5 0 .3-.2.4-.5.4.1 0 0 0 0 0zm138.8-.9c0-.3.1-.5.4-.5.3 0 .5.2.5.4s-.1.5-.4.5h-.1c-.2 0-.4-.2-.4-.4zm-143 .4c-.2 0-.4-.3-.4-.5s.3-.4.5-.4.4.3.4.5-.2.4-.5.4c.1 0 0 0 0 0zm147.2-1c0-.2.1-.5.4-.5.3 0 .5.1.5.4 0 .3-.1.5-.4.5h-.1c-.2 0-.4-.2-.4-.4zm-151.4.3c-.2 0-.4-.3-.4-.5s.3-.4.5-.4c.3 0 .4.3.4.5 0 .3-.2.4-.5.4.1 0 .1 0 0 0zm155.5-1.1c0-.2.1-.5.4-.5.2-.1.5.1.5.4 0 .2-.1.5-.4.5h-.1c-.1 0-.3-.1-.4-.4zm-159.6.4c-.2-.1-.4-.3-.4-.5.1-.2.3-.4.6-.4s.4.3.4.5c-.1.2-.3.4-.6.4zm163.7-1.3c-.1-.2.1-.5.3-.6.2-.1.5.1.6.3.1.2-.1.5-.3.6h-.1c-.2.1-.4-.1-.5-.3zm-167.9.3c-.3-.1-.4-.3-.3-.6.1-.2.3-.4.6-.3.2.1.4.3.3.6 0 .2-.2.3-.4.3h-.2zm172-1.5c-.1-.2 0-.5.2-.6.2-.1.5 0 .6.2.1.2 0 .5-.2.6h-.2c-.2.1-.4-.1-.4-.2zm-176.1.2c-.2-.1-.4-.4-.2-.6.1-.2.4-.3.6-.2.2.1.4.4.2.6-.1.2-.2.3-.4.3 0-.1-.1-.1-.2-.1zm-2.8-2.6c-.1 0-.2-.1-.3-.1-.1-.1-.1-.2-.1-.3 0-.1.1-.2.1-.3.2-.2.5-.2.6 0 .1.1.1.2.1.3 0 .1 0 .2-.1.3-.1.1-.2.1-.3.1z" id="XMLID_164_"/><path class="st612" d="M243.6 139.8c-.1 0-.2 0-.3-.1-.1-.1-.1-.2-.1-.3 0-.1 0-.2.1-.3.2-.2.5-.2.7 0 .1.1.1.2.1.3 0 .1 0 .3-.1.3-.2.1-.3.1-.4.1zm-91.2 10.1c-.3 0-.5-.2-.5-.5s.2-.5.5-.5c.2 0 .5.2.5.5-.1.3-.3.5-.5.5zm4.2 0c-.3 0-.5-.2-.5-.5s.2-.5.5-.5c.2 0 .5.2.5.5-.1.3-.3.5-.5.5zm-8.5 0c-.3 0-.5-.2-.5-.5s.2-.5.5-.5.5.2.5.5-.2.5-.5.5zm12.2-.5c0-.3.2-.5.5-.5s.5.2.5.5-.2.5-.5.5-.5-.2-.5-.5zm-16.4.5c-.3 0-.5-.2-.5-.5s.2-.5.5-.5c.2 0 .5.2.5.5s-.2.5-.5.5zm20.7-.5c0-.3.2-.5.5-.5s.5.2.5.5-.2.5-.5.5c-.3-.1-.5-.3-.5-.5zm-24.9.4c-.3 0-.5-.2-.5-.5 0-.2.2-.5.5-.5.2 0 .5.2.5.5-.1.3-.3.5-.5.5zm29.1-.5c0-.2.2-.5.5-.5s.5.2.5.5c0 .2-.2.5-.5.5-.3-.1-.5-.3-.5-.5zm-33.3.4c-.3 0-.5-.2-.5-.5s.2-.5.5-.5.5.2.5.5c-.1.3-.3.5-.5.5zm37.5-.5c0-.3.2-.5.5-.5s.5.2.5.5-.2.5-.5.5c-.3-.1-.5-.3-.5-.5zm-41.8.4c-.3 0-.5-.2-.4-.5 0-.2.2-.5.5-.5s.5.2.5.5c-.1.3-.3.5-.6.5zm46-.5c0-.3.2-.5.4-.5.3 0 .5.2.5.4 0 .3-.2.5-.5.5-.1 0-.4-.2-.4-.4zm-50.2.4c-.3 0-.5-.2-.5-.5s.2-.5.5-.4c.3 0 .5.2.4.5.1.2-.1.4-.4.4zm54.5-.6c0-.2.2-.5.4-.5.3 0 .5.2.5.5s-.2.5-.4.5c-.3 0-.5-.2-.5-.5zm-58.7.5c-.3 0-.5-.2-.5-.5s.2-.5.5-.5.5.2.5.5c-.1.3-.3.5-.5.5zm62.9-.7c0-.2.2-.5.4-.5.3 0 .5.2.5.5 0 .2-.2.5-.5.5-.2 0-.4-.2-.4-.5zm-67.2.5c-.3 0-.5-.2-.4-.5 0-.3.2-.5.5-.4.2 0 .5.2.4.5 0 .2-.2.4-.5.4.1 0 0 0 0 0zm71.4-.6c0-.3.2-.5.4-.5s.5.2.5.4c0 .3-.2.5-.4.5-.3 0-.5-.2-.5-.4zm-75.6.4c-.3 0-.5-.2-.4-.5 0-.3.2-.5.5-.4.2 0 .5.2.4.5 0 .2-.2.4-.5.4zm80.3-.2c-.3 0-.5-.2-.5-.4 0-.3.2-.5.4-.5s.5.2.5.4c.1.2-.1.4-.4.5zm-84.5 0c-.3 0-.5-.2-.4-.5 0-.3.2-.5.5-.4.3 0 .5.2.4.5 0 .2-.2.4-.5.4zm88.2-.7c0-.2.2-.5.4-.5s.5.2.5.4c0 .3-.2.5-.4.5-.3 0-.4-.2-.5-.4zm-92.4.4c-.3 0-.5-.2-.4-.5 0-.3.2-.5.5-.4.3 0 .4.2.4.5 0 .2-.2.4-.5.4zm96.6-.7c0-.3.2-.5.4-.5s.5.2.5.4-.2.5-.4.5-.4-.2-.5-.4zm-100.8.4c-.3 0-.5-.2-.4-.5 0-.3.2-.4.5-.4s.5.2.4.5c-.1.2-.3.4-.5.4zm105.1-.7c0-.3.2-.5.4-.5s.5.2.5.4c0 .3-.2.5-.4.5h-.1c-.2 0-.4-.2-.4-.4zm-109.4.4c-.3 0-.4-.2-.4-.5s.2-.5.5-.4c.2 0 .4.2.4.5 0 .2-.2.4-.5.4.1 0 .1 0 0 0zm113.6-.8c0-.2.2-.5.4-.5.3 0 .5.2.5.4 0 .3-.2.5-.4.5-.3 0-.5-.2-.5-.4zm-117.8.4c-.3 0-.5-.2-.4-.5 0-.3.2-.4.5-.4s.4.2.4.5c0 .2-.2.4-.5.4.1 0 0 0 0 0zm122-.8c0-.2.2-.5.4-.5s.5.2.5.4-.2.5-.4.5h-.1c-.2 0-.4-.2-.4-.4zm-126.2.4c-.3 0-.5-.3-.4-.5 0-.3.3-.4.5-.4s.4.2.4.5c0 .2-.2.4-.5.4zm130.4-.9c0-.2.2-.5.4-.5.3 0 .5.1.5.4 0 .2-.1.5-.4.5-.3 0-.5-.2-.5-.4zm-134.6.4c-.2 0-.4-.3-.4-.5s.3-.4.5-.4c.3 0 .4.3.4.5s-.2.4-.5.4c.1 0 0 0 0 0zm138.8-.9c0-.2.1-.5.4-.5.3 0 .5.1.5.4 0 .2-.1.5-.4.5h-.1c-.2 0-.4-.2-.4-.4zm-143 .3c-.2 0-.4-.3-.4-.5 0-.3.3-.4.5-.4s.4.3.4.5c0 .3-.2.5-.5.4.1.1 0 .1 0 0zm147.2-1c0-.2.1-.5.4-.5.3 0 .5.1.5.4 0 .2-.1.5-.4.5h-.1c-.2 0-.4-.1-.4-.4zm-151.4.4c-.2 0-.4-.3-.4-.5 0-.3.3-.4.5-.4.3 0 .4.3.4.5 0 .3-.2.4-.5.4.1 0 .1 0 0 0zm155.5-1.1c0-.2.1-.5.4-.6.2 0 .5.1.5.4 0 .2-.1.5-.4.5h-.1c-.1.1-.3-.1-.4-.3zm-159.6.3c-.2 0-.4-.3-.4-.5.1-.2.3-.4.6-.4s.4.3.4.5c-.1.3-.3.5-.6.4 0 .1 0 .1 0 0zm163.7-1.2c-.1-.2.1-.5.3-.6.2-.1.5.1.6.3.1.2-.1.5-.3.6h-.1c-.2 0-.4-.1-.5-.3zm-167.9.3c-.3-.1-.4-.3-.3-.6.1-.2.3-.4.6-.3.2.1.4.3.3.6 0 .2-.2.4-.4.4-.1-.1-.1-.1-.2-.1zm172-1.6c-.1-.2 0-.5.2-.6.2-.1.5 0 .6.2.1.2 0 .5-.2.6h-.2c-.2.1-.4 0-.4-.2zm-176.1.3c-.2-.1-.4-.4-.2-.6.1-.2.4-.4.6-.2.2.1.4.4.2.6-.1.2-.2.3-.4.3 0-.1-.1-.1-.2-.1zm-2.8-2.6c-.1 0-.2 0-.3-.1-.1-.1-.1-.2-.1-.3 0-.1.1-.2.1-.3.2-.2.5-.2.6 0 .1.1.1.2.1.3 0 .1 0 .2-.1.3-.1.1-.2.1-.3.1z" id="XMLID_162_"/><path class="st612" d="M243.6 140.1c-.1 0-.2-.1-.3-.1s-.1-.2-.1-.3 0-.2.1-.3c.2-.2.5-.2.7 0 .1.1.1.2.1.3s0 .2-.1.3c-.2 0-.3.1-.4.1zm-91.2 10.1c-.3 0-.5-.2-.5-.5 0-.2.2-.5.5-.5.2 0 .5.2.5.5-.1.3-.3.5-.5.5zm4.2 0c-.3 0-.5-.2-.5-.5s.2-.5.5-.5c.2 0 .5.2.5.5-.1.3-.3.5-.5.5zm-8.5 0c-.3 0-.5-.2-.5-.5s.2-.5.5-.5.5.2.5.5-.2.5-.5.5zm12.7-.1c-.3 0-.5-.2-.5-.5 0-.2.2-.5.5-.5.2 0 .5.2.5.5s-.2.5-.5.5zm-16.9 0c-.3 0-.5-.2-.5-.5s.2-.5.5-.5c.2 0 .5.2.5.5s-.2.5-.5.5zm20.7-.5c0-.2.2-.5.5-.5s.5.2.5.5-.2.5-.5.5-.5-.2-.5-.5zm-24.9.5c-.3 0-.5-.2-.5-.5s.2-.5.5-.5c.2 0 .5.2.5.5-.1.3-.3.5-.5.5zm29.1-.6c0-.2.2-.5.5-.5s.5.2.5.5-.2.5-.5.5-.5-.2-.5-.5zm-33.3.5c-.3 0-.5-.2-.5-.5s.2-.5.5-.5.5.2.5.5c-.1.3-.3.5-.5.5zm-4.3-.1c-.3 0-.5-.2-.4-.5 0-.3.2-.5.5-.5s.5.2.5.5c-.1.3-.3.5-.6.5zm41.8-.5c0-.2.2-.5.5-.5s.5.2.5.5c0 .2-.2.5-.5.5s-.5-.2-.5-.5zm4.2-.1c0-.2.2-.5.4-.5.3 0 .5.2.5.5 0 .2-.2.5-.5.5-.1 0-.4-.2-.4-.5zm-50.2.5c-.3 0-.5-.2-.5-.5s.2-.5.5-.5.5.2.4.5c.1.3-.1.5-.4.5zm54.5-.6c0-.3.2-.5.5-.5s.5.2.5.4c0 .3-.2.5-.4.5-.4 0-.6-.2-.6-.4zm-58.7.4c-.3 0-.5-.2-.5-.5 0-.2.2-.5.5-.5s.5.2.5.5c-.1.3-.3.5-.5.5zm62.9-.6c0-.3.2-.5.4-.5.3 0 .5.2.5.5s-.2.5-.5.5c-.2 0-.4-.2-.4-.5zm-67.2.5c-.2 0-.5-.2-.4-.5 0-.3.2-.5.5-.5.2 0 .5.2.4.5 0 .3-.2.5-.5.5.1 0 0 0 0 0zm71.4-.7c0-.2.2-.5.4-.5s.5.2.5.4c0 .3-.2.5-.4.5-.3.1-.5-.1-.5-.4zm-75.6.5c-.3 0-.5-.2-.4-.5 0-.2.2-.5.5-.4.2 0 .5.2.4.5 0 .2-.2.4-.5.4zm79.8-.7c0-.3.2-.5.4-.5s.5.2.5.4c0 .3-.2.5-.4.5-.3 0-.5-.2-.5-.4zm-84 .4c-.3 0-.5-.2-.4-.5 0-.3.2-.4.5-.4s.5.2.4.5c0 .2-.2.4-.5.4zm88.2-.7c0-.2.2-.5.4-.5s.5.2.5.4-.2.5-.4.5c-.3.1-.4-.1-.5-.4zm-92.4.5c-.3 0-.5-.2-.4-.5 0-.3.2-.5.5-.4.3 0 .4.2.4.5 0 .2-.2.4-.5.4zm96.6-.8c0-.3.2-.5.4-.5s.5.2.5.4c0 .3-.2.5-.4.5-.2.1-.4-.1-.5-.4zm-100.8.5c-.3 0-.5-.2-.4-.5 0-.3.2-.5.5-.4.3 0 .5.2.4.5-.1.2-.3.4-.5.4zm105.1-.8c0-.2.2-.5.4-.5s.5.2.5.4-.2.5-.4.5c-.3 0-.5-.1-.5-.4zm-109.4.4c-.3 0-.4-.2-.4-.5s.2-.4.5-.4c.2 0 .4.2.4.5s-.2.4-.5.4c.1 0 .1 0 0 0zm113.6-.7c0-.3.2-.5.4-.5.3 0 .5.2.5.4s-.2.5-.4.5c-.3 0-.5-.2-.5-.4zm-117.8.4c-.3 0-.5-.2-.4-.5 0-.2.3-.4.5-.4.3 0 .4.2.4.5 0 .2-.2.4-.5.4.1 0 0 0 0 0zm122-.9c0-.3.2-.5.4-.5s.5.1.5.4c0 .3-.2.5-.4.5h-.1c-.2.1-.4-.1-.4-.4zm-126.2.4c-.3 0-.5-.3-.4-.5 0-.3.3-.5.5-.4.2 0 .4.3.4.5 0 .3-.2.4-.5.4zm130.4-.8c0-.3.2-.5.4-.5.3 0 .5.2.5.4 0 .3-.1.5-.4.5-.3 0-.5-.2-.5-.4zm-134.6.4c-.3 0-.4-.3-.4-.5 0-.3.3-.4.5-.4.3 0 .4.3.4.5s-.2.4-.5.4c.1 0 0 0 0 0zm138.8-1c0-.3.1-.5.4-.5.3 0 .5.2.5.4s-.1.5-.4.5h-.1c-.2 0-.4-.1-.4-.4zm-143 .4c-.2 0-.4-.3-.4-.5s.3-.4.5-.4.4.3.4.5-.2.4-.5.4c.1 0 0 0 0 0zm147.2-1c0-.3.1-.5.4-.5.2 0 .5.1.5.4 0 .3-.1.5-.4.5h-.1c-.2 0-.4-.2-.4-.4zm-151.4.4c-.2 0-.4-.3-.4-.5s.3-.4.5-.4c.3 0 .4.3.4.5s-.2.4-.5.4c.1 0 .1 0 0 0zm155.5-1.1c0-.2.1-.5.4-.5.2-.1.5.1.5.4 0 .2-.1.5-.4.5h-.1c-.1-.1-.3-.2-.4-.4zm-159.6.3c-.2 0-.4-.3-.4-.5.1-.2.3-.4.5-.4.2.1.4.3.4.6 0 .2-.2.3-.5.3zm163.7-1.3c-.1-.2.1-.5.3-.6.2-.1.5.1.6.3.1.2-.1.5-.3.6h-.1c-.2.1-.4 0-.5-.3zm-167.9.4c-.3-.1-.4-.3-.3-.6.1-.2.3-.4.6-.3.2.1.4.3.3.6 0 .2-.2.3-.4.3h-.2zm172-1.6c-.1-.2 0-.5.2-.6.2-.1.5 0 .6.2.1.2 0 .5-.2.6h-.2c-.2.1-.4 0-.4-.2zm-176.1.2c-.2-.1-.4-.4-.2-.6.1-.2.4-.3.6-.2.2.1.4.4.2.6-.1.2-.2.3-.4.3 0 0-.1 0-.2-.1zm-2.8-2.5c-.1 0-.2-.1-.3-.2-.1-.1-.1-.2-.1-.3 0-.1.1-.2.1-.3.2-.2.5-.2.6 0 .1.1.1.2.1.3s0 .2-.1.3c-.1.1-.2.2-.3.2z" id="XMLID_159_"/><path class="st612" d="M243.6 138.6c-.1 0-.2 0-.3-.1-.1-.1-.1-.2-.1-.3s0-.2.1-.3c.2-.2.5-.2.7 0 .1.1.1.2.1.3s0 .2-.1.3c-.2.1-.3.1-.4.1zm-91.7 9.6c0-.2.2-.5.5-.5.2 0 .5.2.5.5s-.2.5-.5.5-.5-.2-.5-.5zm4.7.5c-.3 0-.5-.2-.5-.5s.2-.5.5-.5c.2 0 .5.2.5.5-.1.3-.3.5-.5.5zm-8.5 0c-.3 0-.5-.2-.5-.5 0-.2.2-.5.5-.5s.5.2.5.5-.2.5-.5.5zm12.2-.5c0-.3.2-.5.5-.5.2 0 .5.2.5.5 0 .2-.2.5-.5.5s-.5-.2-.5-.5zm-16.4.5c-.3 0-.5-.2-.5-.5s.2-.5.5-.5c.2 0 .5.2.5.5s-.2.5-.5.5zm20.7-.5c0-.3.2-.5.5-.5s.5.2.5.5-.2.5-.5.5c-.3-.1-.5-.3-.5-.5zm-24.9.4c-.3 0-.5-.2-.5-.5s.2-.5.5-.5c.2 0 .5.2.5.5-.1.3-.3.5-.5.5zm29.1-.5c0-.3.2-.5.5-.5s.5.2.5.5-.2.5-.5.5c-.3-.1-.5-.3-.5-.5zm-33.3.4c-.3 0-.5-.2-.5-.5s.2-.5.5-.5.5.2.5.5c-.1.3-.3.5-.5.5zm38-.1c-.3 0-.5-.2-.5-.5 0-.2.2-.5.5-.5s.5.2.5.5-.3.5-.5.5zm-42.3 0c-.3 0-.5-.2-.4-.5 0-.3.2-.5.5-.5s.5.2.5.5c-.1.3-.3.5-.6.5zm46-.5c0-.3.2-.5.4-.5.3 0 .5.2.5.5s-.2.5-.5.5c-.1-.1-.4-.3-.4-.5zm-50.2.4c-.3 0-.5-.2-.5-.5 0-.2.2-.5.5-.5s.5.2.4.5c.1.3-.1.5-.4.5zm54.5-.6c0-.3.2-.5.5-.5s.5.2.5.5c0 .2-.2.5-.4.5-.4 0-.6-.2-.6-.5zm-58.7.5c-.3 0-.5-.2-.5-.5 0-.2.2-.5.5-.4.3 0 .5.2.5.5-.1.2-.3.4-.5.4zm62.9-.6c0-.3.2-.5.4-.5.3 0 .5.2.5.4 0 .3-.2.5-.5.5-.2 0-.4-.2-.4-.4zm-67.2.4c-.2 0-.5-.2-.4-.5 0-.2.2-.5.5-.4.2 0 .5.2.4.5 0 .2-.2.4-.5.4.1 0 0 0 0 0zm71.4-.6c0-.3.2-.5.4-.5s.5.2.5.5c0 .2-.2.5-.4.5-.3-.1-.5-.3-.5-.5zm-75.6.4c-.3 0-.5-.2-.4-.5 0-.3.2-.5.5-.4.2 0 .5.2.4.5 0 .2-.2.4-.5.4zm79.8-.7c0-.3.2-.5.4-.5s.5.2.5.4c0 .3-.2.5-.4.5-.3.1-.5-.1-.5-.4zm-84 .5c-.3 0-.5-.2-.4-.5 0-.3.2-.4.5-.4s.5.2.4.5c0 .2-.2.4-.5.4zm88.2-.7c0-.3.2-.5.4-.5s.5.2.5.4c0 .3-.2.5-.4.5s-.4-.2-.5-.4zm-92.4.4c-.3 0-.5-.2-.4-.5 0-.3.2-.5.5-.4.3 0 .4.2.4.5 0 .2-.2.4-.5.4zm96.6-.7c0-.2.2-.5.4-.5s.5.2.5.4c0 .3-.2.5-.4.5s-.4-.2-.5-.4zm-100.8.4c-.3 0-.5-.2-.4-.5 0-.3.2-.5.5-.4.3 0 .5.2.4.5-.1.2-.3.4-.5.4zm105.1-.7c0-.2.2-.5.4-.5s.5.2.5.4c0 .3-.2.5-.4.5-.3 0-.5-.2-.5-.4zm-109.4.4c-.3 0-.4-.2-.4-.5 0-.2.2-.5.5-.4.2 0 .4.2.4.5 0 .2-.2.4-.5.4.1 0 .1 0 0 0zm113.6-.8c0-.2.2-.5.4-.5.3 0 .5.2.5.4s-.2.5-.4.5h-.1c-.2 0-.4-.2-.4-.4zm-117.8.4c-.3 0-.5-.2-.4-.5 0-.2.3-.4.5-.4.3 0 .4.2.4.5 0 .2-.2.4-.5.4.1 0 0 0 0 0zm122-.8c0-.3.2-.5.4-.5s.5.2.5.4c0 .3-.2.5-.4.5h-.1c-.2 0-.4-.2-.4-.4zm-126.2.4c-.3 0-.5-.3-.4-.5 0-.2.3-.4.5-.4s.4.3.4.5-.2.4-.5.4zm130.4-.9c0-.3.2-.5.4-.5.3 0 .5.2.5.4 0 .3-.1.5-.4.5-.3 0-.5-.2-.5-.4zm-134.6.4c-.3 0-.4-.3-.4-.5 0-.3.3-.4.5-.4.3 0 .4.3.4.5s-.2.4-.5.4c.1 0 0 0 0 0zm138.8-.9c0-.3.1-.5.4-.5.3 0 .5.1.5.4 0 .2-.1.5-.4.5h-.1c-.2 0-.4-.2-.4-.4zm-143 .4c-.2 0-.4-.3-.4-.5s.3-.4.5-.4.4.3.4.5-.2.4-.5.4c.1 0 0 0 0 0zm147.2-1.1c0-.2.1-.5.4-.5.2 0 .5.1.5.4 0 .2-.1.5-.4.5h-.1c-.2 0-.4-.1-.4-.4zm-151.4.4c-.2 0-.4-.3-.4-.5s.3-.4.5-.4c.3 0 .4.3.4.5 0 .3-.2.4-.5.4.1 0 .1 0 0 0zm155.5-1.1c0-.2.1-.5.4-.5.2-.1.5.1.5.4 0 .2-.1.5-.4.6h-.1c-.1-.1-.3-.3-.4-.5zm-159.6.4c-.2-.1-.4-.3-.4-.5.1-.2.3-.4.5-.4s.4.3.4.5-.2.4-.5.4zm163.7-1.3c-.1-.2.1-.5.3-.6.2-.1.5.1.6.3.1.2-.1.5-.3.6h-.1c-.2 0-.4-.1-.5-.3zm-167.9.3c-.3-.1-.4-.3-.3-.6.1-.3.3-.4.6-.3.2.1.4.3.3.6 0 .2-.2.4-.5.4 0-.1 0-.1-.1-.1zm172-1.6c-.1-.2 0-.5.2-.6.2-.1.5 0 .6.2.1.2 0 .5-.2.6h-.2c-.2.1-.4 0-.4-.2zm-176.1.3c-.2-.1-.4-.4-.2-.6.1-.2.4-.3.6-.2.2.1.4.4.2.6-.1.2-.2.3-.4.3 0-.1-.1-.1-.2-.1zm-2.8-2.6c-.1 0-.2-.1-.3-.2-.1-.1-.1-.2-.1-.3s.1-.2.2-.3c.2-.2.5-.2.6 0 .1.1.1.2.1.3s0 .2-.1.3c-.2.2-.3.2-.4.2z" id="XMLID_157_"/><path class="st612" d="M243.6 138.9c-.1 0-.2 0-.3-.1-.1-.1-.1-.2-.1-.3 0-.1 0-.2.1-.3.2-.2.5-.2.7 0 .1.1.1.2.1.3 0 .1 0 .2-.1.3-.2 0-.3.1-.4.1zm-91.7 9.6c0-.3.2-.5.5-.5.2 0 .5.2.5.5 0 .2-.2.5-.5.5s-.5-.2-.5-.5zm4.7.5c-.3 0-.5-.2-.5-.5s.2-.5.5-.5c.2 0 .5.2.5.5-.1.3-.3.5-.5.5zm-8.5 0c-.3 0-.5-.2-.5-.5s.2-.5.5-.5.5.2.5.5-.2.5-.5.5zm12.2-.5c0-.3.2-.5.5-.5.2 0 .5.2.5.5s-.2.5-.5.5c-.3-.1-.5-.3-.5-.5zm-16.4.4c-.3 0-.5-.2-.5-.5 0-.2.2-.5.5-.5.2 0 .5.2.5.5s-.2.5-.5.5zm20.7-.5c0-.3.2-.5.5-.5s.5.2.5.5c0 .2-.2.5-.5.5s-.5-.2-.5-.5zm-24.9.5c-.3 0-.5-.2-.5-.5s.2-.5.5-.5c.2 0 .5.2.5.5-.1.3-.3.5-.5.5zm29.1-.5c0-.3.2-.5.5-.5s.5.2.5.5c0 .2-.2.5-.5.5-.3-.1-.5-.3-.5-.5zm-33.3.4c-.3 0-.5-.2-.5-.5s.2-.5.5-.5.5.2.5.5c-.1.3-.3.5-.5.5zm38-.1c-.3 0-.5-.2-.5-.4 0-.3.2-.5.5-.5s.5.2.5.5c0 .2-.3.4-.5.4zm-42.3 0c-.3 0-.5-.2-.4-.5 0-.3.2-.5.5-.5s.5.2.5.5c-.1.3-.3.5-.6.5zm46-.6c0-.3.2-.5.4-.5.3 0 .5.2.5.5s-.2.5-.5.5c-.1 0-.4-.2-.4-.5zm-50.2.5c-.3 0-.5-.2-.5-.5s.2-.5.5-.5.5.2.4.5c.1.3-.1.5-.4.5zm54.5-.6c0-.3.2-.5.5-.5s.5.2.5.4c0 .3-.2.5-.4.5-.4 0-.6-.2-.6-.4zm-58.7.4c-.3 0-.5-.2-.5-.5s.2-.5.5-.4c.3 0 .5.2.5.5-.1.2-.3.4-.5.4zm62.9-.6c0-.3.2-.5.4-.5.3 0 .5.2.5.4 0 .3-.2.5-.5.5-.2.1-.4-.1-.4-.4zm-67.2.5c-.2 0-.5-.2-.4-.5 0-.2.2-.5.5-.4.2 0 .5.2.4.5 0 .2-.2.4-.5.4.1 0 0 0 0 0zm71.4-.7c0-.3.2-.5.4-.5s.5.2.5.4c0 .3-.2.5-.4.5-.3.1-.5-.1-.5-.4zm-75.6.5c-.3 0-.5-.2-.4-.5 0-.3.2-.4.5-.4.2 0 .5.2.4.5 0 .2-.2.4-.5.4zm79.8-.7c0-.2.2-.5.4-.5s.5.2.5.4-.2.5-.4.5c-.3 0-.5-.2-.5-.4zm-84 .4c-.3 0-.5-.2-.4-.5 0-.2.2-.5.5-.4.3 0 .5.2.4.5 0 .2-.2.4-.5.4zm88.2-.7c0-.3.2-.5.4-.5s.5.2.5.4-.2.5-.4.5c-.2.1-.4-.1-.5-.4zm-92.4.5c-.3 0-.5-.2-.4-.5 0-.3.2-.4.5-.4s.4.2.4.5c0 .2-.2.4-.5.4zm96.6-.7c0-.3.2-.5.4-.5s.5.2.5.4-.2.5-.4.5-.4-.2-.5-.4zm-101.3-.1c0-.3.2-.5.5-.4.3 0 .5.2.4.5 0 .3-.2.5-.5.4-.2 0-.4-.3-.4-.5zm105.6-.3c0-.3.2-.5.4-.5s.5.2.5.4c0 .3-.2.5-.4.5-.3.1-.5-.1-.5-.4zm-109.4.4c-.3 0-.4-.2-.4-.5s.2-.5.5-.4c.2 0 .4.2.4.5s-.2.4-.5.4c.1 0 .1 0 0 0zm113.6-.7c0-.3.2-.5.4-.5.3 0 .5.2.5.4 0 .3-.2.5-.4.5h-.1c-.2 0-.4-.2-.4-.4zm-117.8.4c-.3 0-.5-.2-.4-.5 0-.3.3-.5.5-.4.3 0 .4.2.4.5 0 .2-.2.4-.5.4.1 0 0 0 0 0zm122-.9c0-.2.2-.5.4-.5s.5.2.5.4-.2.5-.4.5h-.1c-.2.1-.4-.1-.4-.4zm-126.2.4c-.3 0-.5-.3-.4-.5 0-.3.3-.4.5-.4s.4.2.4.5-.2.4-.5.4zm130.4-.8c0-.2.2-.5.4-.5.3 0 .5.1.5.4 0 .3-.1.5-.4.5-.3 0-.5-.2-.5-.4zm-134.6.4c-.3 0-.4-.3-.4-.5s.3-.4.5-.4c.3 0 .4.3.4.5s-.2.4-.5.4c.1 0 0 0 0 0zm138.8-1c0-.3.1-.5.4-.5.3 0 .5.1.5.4 0 .3-.1.5-.4.5h-.1c-.2 0-.4-.1-.4-.4zm-143 .4c-.2 0-.4-.3-.4-.5 0-.3.3-.4.5-.4s.4.3.4.5c0 .3-.2.4-.5.4.1 0 0 0 0 0zm147.2-1c0-.3.1-.5.4-.5.2 0 .5.1.5.4 0 .2-.1.5-.4.5h-.1c-.2 0-.4-.2-.4-.4zm-151.4.4c-.2 0-.4-.3-.4-.5s.3-.4.5-.4c.3 0 .4.3.4.5s-.2.4-.5.4c.1 0 .1 0 0 0zm155.5-1.1c0-.2.1-.5.4-.5.2 0 .5.1.5.4 0 .2-.1.5-.4.5h-.1c-.1-.1-.3-.2-.4-.4zm-159.6.3c-.2-.1-.4-.3-.4-.5.1-.3.3-.4.5-.4s.4.3.4.5c0 .3-.2.4-.5.4zm163.7-1.3c-.1-.2.1-.5.3-.6.2-.1.5.1.6.3.1.2-.1.5-.3.6h-.1c-.2.1-.4 0-.5-.3zm-167.9.4c-.3-.1-.4-.3-.3-.6.1-.2.3-.4.6-.3.2.1.4.3.3.6 0 .2-.2.3-.5.3h-.1zm172-1.6c-.1-.2 0-.5.2-.6.2-.1.5 0 .6.3.1.2 0 .5-.2.6h-.2c-.2 0-.4-.1-.4-.3zm-176.1.2c-.2-.1-.4-.4-.2-.6.1-.2.4-.3.6-.2.2.1.4.4.2.6-.1.2-.2.3-.4.3 0 0-.1 0-.2-.1zm-2.8-2.5c-.1 0-.2 0-.3-.1-.1-.1-.1-.2-.1-.3 0-.1.1-.2.1-.3.2-.2.5-.2.6 0 .1.1.1.2.1.3 0 .1 0 .2-.1.3-.1 0-.2.1-.3.1z" id="XMLID_152_"/><path class="st612" d="M243.6 139.1c-.1 0-.2 0-.3-.1-.1-.1-.1-.2-.1-.3s0-.2.1-.3c.2-.2.5-.2.7 0 .1.1.1.2.1.3s0 .2-.1.3-.3.1-.4.1zm-91.7 9.7c0-.3.2-.5.5-.5.2 0 .5.2.5.5 0 .2-.2.5-.5.5-.3-.1-.5-.3-.5-.5zm4.7.4c-.3 0-.5-.2-.5-.5s.2-.5.5-.5c.2 0 .5.2.5.5-.1.3-.3.5-.5.5zm-8.5 0c-.3 0-.5-.2-.5-.5 0-.2.2-.5.5-.5s.5.2.5.5-.2.5-.5.5zm12.7 0c-.3 0-.5-.2-.5-.5s.2-.5.5-.5c.2 0 .5.2.5.5s-.2.5-.5.5zm-16.9 0c-.3 0-.5-.2-.5-.5s.2-.5.5-.5c.2 0 .5.2.5.5s-.2.5-.5.5zm20.7-.5c0-.3.2-.5.5-.5s.5.2.5.5-.2.5-.5.5c-.3-.1-.5-.3-.5-.5zm-24.9.4c-.3 0-.5-.2-.5-.5s.2-.5.5-.5c.2 0 .5.2.5.5-.1.3-.3.5-.5.5zm29.1-.5c0-.3.2-.5.5-.5s.5.2.5.5-.2.5-.5.5-.5-.2-.5-.5zm-33.3.5c-.3 0-.5-.2-.5-.5s.2-.5.5-.5.5.2.5.5c-.1.3-.3.5-.5.5zm38-.1c-.3 0-.5-.2-.5-.5 0-.2.2-.5.5-.5s.5.2.5.4c0 .4-.3.6-.5.6zm-42.3 0c-.3 0-.5-.2-.4-.5 0-.3.2-.5.5-.4.3 0 .5.2.5.5-.1.2-.3.4-.6.4zm46-.6c0-.3.2-.5.4-.5.3 0 .5.2.5.5 0 .2-.2.5-.5.5-.1 0-.4-.2-.4-.5zm-50.2.5c-.3 0-.5-.2-.5-.5s.2-.5.5-.5.5.2.4.5c.1.3-.1.5-.4.5zm54.5-.6c0-.3.2-.5.5-.5s.5.2.5.5c0 .2-.2.5-.4.5-.4-.1-.6-.3-.6-.5zm-58.7.4c-.3 0-.5-.2-.5-.5 0-.2.2-.5.5-.4.3 0 .5.2.5.5-.1.2-.3.4-.5.4zm62.9-.6c0-.3.2-.5.4-.5.3 0 .5.2.5.4 0 .3-.2.5-.5.5-.2 0-.4-.2-.4-.4zm-67.2.4c-.2 0-.5-.2-.4-.5 0-.3.2-.5.5-.5.2 0 .5.2.4.5 0 .3-.2.5-.5.5.1 0 0 0 0 0zm71.4-.6c0-.2.2-.5.4-.5s.5.2.5.4-.2.5-.4.5c-.3 0-.5-.2-.5-.4zm-75.6.4c-.3 0-.5-.2-.4-.5 0-.2.2-.5.5-.4.2 0 .5.2.4.5 0 .2-.2.4-.5.4zm79.8-.6c0-.3.2-.5.4-.5s.5.2.5.4c0 .3-.2.5-.4.5-.3 0-.5-.2-.5-.4zm-84 .4c-.3 0-.5-.2-.4-.5 0-.2.2-.5.5-.4.3 0 .5.2.4.5 0 .2-.2.4-.5.4zm88.2-.7c0-.3.2-.5.4-.5s.5.2.5.4c0 .3-.2.5-.4.5s-.4-.1-.5-.4zm-92.4.4c-.3 0-.5-.2-.4-.5 0-.3.2-.5.5-.4.3 0 .4.2.4.5 0 .2-.2.4-.5.4zm96.6-.7c0-.2.2-.5.4-.5s.5.2.5.4c0 .3-.2.5-.4.5s-.4-.1-.5-.4zm-101.3-.1c0-.3.2-.5.5-.4.3 0 .5.2.4.5 0 .2-.2.5-.5.4-.2 0-.4-.2-.4-.5zm105.6-.2c0-.3.2-.5.4-.5s.5.2.5.4-.2.5-.4.5c-.3 0-.5-.2-.5-.4zM97 146.7c0-.3.2-.5.5-.4.2 0 .4.2.4.5s-.2.5-.5.4c-.2 0-.4-.2-.4-.5zm114-.3c0-.3.2-.5.4-.5.3 0 .5.2.5.4s-.2.5-.4.5h-.1c-.2 0-.4-.1-.4-.4zm-117.8.4c-.3 0-.5-.2-.4-.5 0-.2.3-.4.5-.4.3 0 .4.2.4.5s-.2.4-.5.4c.1 0 0 0 0 0zm122-.8c0-.3.2-.5.4-.5s.5.2.5.4c0 .3-.2.5-.4.5h-.1c-.2 0-.4-.2-.4-.4zm-126.6-.1c0-.3.3-.4.5-.4s.4.3.4.5-.3.4-.5.4-.4-.2-.4-.5zm130.8-.4c0-.3.2-.5.4-.5.3 0 .5.1.5.4 0 .2-.1.5-.4.5-.3 0-.5-.1-.5-.4zm-134.6.4c-.2 0-.4-.3-.4-.5 0-.3.3-.4.5-.4.3 0 .4.3.4.5 0 .3-.2.4-.5.4.1 0 0 0 0 0zm138.8-.9c0-.2.1-.5.4-.5.3 0 .5.1.5.4 0 .3-.1.5-.4.5h-.1c-.2 0-.4-.2-.4-.4zm-143 .4c-.2 0-.4-.3-.4-.5s.3-.4.5-.4.4.3.4.5-.2.4-.5.4c.1 0 0 0 0 0zm147.2-1c0-.3.1-.5.4-.5.2 0 .5.1.5.4 0 .2-.1.5-.4.5h-.1c-.2 0-.4-.2-.4-.4zm-151.4.3c-.2 0-.4-.3-.4-.5 0-.3.3-.4.5-.4.3 0 .4.3.4.5 0 .3-.2.5-.5.4.1.1.1 0 0 0zm155.5-1.1c0-.3.1-.5.4-.5.2-.1.5.1.5.4 0 .2-.1.5-.4.5h-.1c-.1 0-.3-.1-.4-.4zm-159.6.4c-.2 0-.4-.3-.4-.5.1-.2.3-.4.5-.4.2.1.4.3.4.5s-.2.4-.5.4zm163.7-1.3c-.1-.2.1-.5.3-.6.2-.1.5.1.6.3.1.2-.1.5-.3.6h-.1c-.2.1-.4-.1-.5-.3zm-167.9.3c-.3-.1-.4-.3-.3-.6.1-.2.3-.4.6-.3.2.1.4.3.3.6 0 .2-.2.4-.5.4 0-.1 0-.1-.1-.1zm172-1.5c-.1-.2 0-.5.2-.6.2-.1.5 0 .6.2.1.2 0 .5-.2.6h-.2c-.2.1-.4 0-.4-.2zm-176.1.2c-.2-.1-.4-.4-.2-.6.1-.2.4-.4.6-.2.2.1.4.4.2.6-.1.2-.2.3-.4.3 0-.1-.1-.1-.2-.1zm-2.8-2.5c-.1 0-.2-.1-.3-.1-.1-.1-.1-.2-.1-.3 0-.1.1-.2.1-.3.2-.2.5-.2.6 0 .1.1.1.2.1.3s0 .2-.1.3c-.1 0-.2.1-.3.1z" id="XMLID_150_"/><path class="st612" d="M243.6 139.4c-.1 0-.2 0-.3-.1-.1-.1-.1-.2-.1-.3 0-.1 0-.2.1-.3.2-.2.5-.2.7 0 .1.1.1.2.1.3 0 .1 0 .2-.1.3-.2.1-.3.1-.4.1zm-91.7 9.6c0-.3.2-.5.5-.5.2 0 .5.2.5.5s-.2.5-.5.5-.5-.2-.5-.5zm4.7.5c-.3 0-.5-.2-.5-.5 0-.2.2-.5.5-.5.2 0 .5.2.5.5-.1.3-.3.5-.5.5zm-8.5 0c-.3 0-.5-.2-.5-.5s.2-.5.5-.5.5.2.5.5-.2.5-.5.5zm12.2-.5c0-.2.2-.5.5-.5s.5.2.5.5c0 .2-.2.5-.5.5s-.5-.2-.5-.5zm-16.4.5c-.3 0-.5-.2-.5-.5 0-.2.2-.5.5-.5.2 0 .5.2.5.5s-.2.5-.5.5zm20.7-.5c0-.3.2-.5.5-.5s.5.2.5.5c0 .2-.2.5-.5.5-.3-.1-.5-.3-.5-.5zm-24.9.4c-.3 0-.5-.2-.5-.5 0-.2.2-.5.5-.5.2 0 .5.2.5.5-.1.3-.3.5-.5.5zm29.1-.5c0-.3.2-.5.5-.5s.5.2.5.5-.2.5-.5.5c-.3-.1-.5-.3-.5-.5zm-33.3.4c-.3 0-.5-.2-.5-.5s.2-.5.5-.5.5.2.5.5c-.1.3-.3.5-.5.5zm38-.1c-.3 0-.5-.2-.5-.5s.2-.5.5-.5.5.2.5.5-.3.5-.5.5zm-42.3 0c-.3 0-.5-.2-.4-.5 0-.2.2-.5.5-.5s.5.2.5.5c-.1.3-.3.5-.6.5zm46-.5c0-.3.2-.5.4-.5.3 0 .5.2.5.5s-.2.5-.5.5c-.1-.1-.4-.3-.4-.5zm-50.2.4c-.3 0-.5-.2-.5-.5s.2-.5.5-.5.5.2.4.5c.1.3-.1.5-.4.5zm54.5-.6c0-.3.2-.5.4-.5.3 0 .5.2.5.5s-.2.5-.4.5c-.3 0-.5-.2-.5-.5zm-58.7.5c-.3 0-.5-.2-.5-.5s.2-.5.5-.5.5.2.5.5c-.1.3-.3.5-.5.5zm62.9-.6c0-.3.2-.5.4-.5.3 0 .5.2.5.4 0 .3-.2.5-.5.5-.2 0-.4-.2-.4-.4zm-67.2.4c-.3 0-.5-.2-.4-.5 0-.2.2-.5.5-.4.2 0 .5.2.4.5 0 .2-.2.4-.5.4.1 0 0 0 0 0zm71.4-.6c0-.3.2-.5.4-.5s.5.2.5.4c0 .3-.2.5-.4.5-.3 0-.5-.2-.5-.4zm-75.6.4c-.3 0-.5-.2-.4-.5 0-.3.2-.5.5-.4.2 0 .5.2.4.5 0 .2-.2.4-.5.4zm79.8-.7c0-.2.2-.5.4-.5s.5.2.5.4-.2.5-.4.5c-.3.1-.5-.1-.5-.4zm-84 .5c-.3 0-.5-.2-.4-.5 0-.3.2-.5.5-.4.3 0 .5.2.4.5 0 .2-.2.4-.5.4zm88.2-.7c0-.3.2-.5.4-.5.3 0 .5.2.5.4s-.2.5-.4.5-.4-.2-.5-.4zm-92.4.4c-.3 0-.5-.2-.4-.5 0-.2.2-.5.5-.4.3 0 .4.2.4.5 0 .2-.2.4-.5.4zm96.6-.7c0-.3.2-.5.4-.5s.5.2.5.4c0 .3-.2.5-.4.5s-.4-.2-.5-.4zm-100.8.4c-.3 0-.5-.2-.4-.5 0-.2.2-.5.5-.4.3 0 .5.2.4.5-.1.2-.3.4-.5.4zm105.1-.7c0-.3.2-.5.4-.5s.5.2.5.4c0 .3-.2.5-.4.5-.3 0-.5-.2-.5-.4zm-109.4.4c-.3 0-.5-.2-.4-.5 0-.3.2-.5.5-.4.2 0 .4.2.4.5 0 .2-.2.4-.5.4.1 0 .1 0 0 0zm113.6-.8c0-.3.2-.5.4-.5.3 0 .5.2.5.4 0 .3-.2.5-.4.5h-.1c-.2 0-.4-.2-.4-.4zm-117.8.4c-.3 0-.5-.2-.4-.5 0-.3.2-.4.5-.4s.4.2.4.5c0 .2-.2.4-.5.4.1 0 0 0 0 0zm122-.8c0-.3.2-.5.4-.5s.5.2.5.4-.2.5-.4.5h-.1c-.2 0-.4-.2-.4-.4zm-126.2.4c-.3 0-.5-.3-.4-.5 0-.3.3-.4.5-.4s.4.2.4.5c0 .2-.2.4-.5.4zm130.4-.9c0-.2.2-.5.4-.5.3 0 .5.2.5.4 0 .3-.1.5-.4.5-.3 0-.5-.2-.5-.4zm-134.6.4c-.2 0-.4-.3-.4-.5s.3-.4.5-.4c.3 0 .4.3.4.5s-.2.4-.5.4c.1 0 0 0 0 0zm138.8-.9c0-.3.1-.5.4-.5.3 0 .5.1.5.4 0 .2-.1.5-.4.5h-.1c-.2 0-.4-.2-.4-.4zm-143 .4c-.2 0-.4-.3-.4-.5 0-.3.3-.4.5-.4.3 0 .4.3.4.5s-.2.4-.5.4c.1 0 0 0 0 0zm147.2-1.1c0-.2.1-.5.4-.5.3 0 .5.1.5.4 0 .2-.1.5-.4.5h-.1c-.2 0-.4-.1-.4-.4zm-151.4.4c-.2 0-.4-.3-.4-.5s.3-.4.5-.4c.3 0 .4.3.4.5 0 .3-.2.4-.5.4.1 0 .1 0 0 0zm155.5-1.1c0-.2.1-.5.4-.5.2 0 .5.1.5.4 0 .2-.1.5-.4.5h-.1c-.1 0-.3-.2-.4-.4zm-159.6.3c-.2 0-.4-.3-.4-.5.1-.3.3-.4.6-.4.2 0 .4.3.4.5-.1.3-.3.5-.6.4 0 .1 0 .1 0 0zM236 143c-.1-.2.1-.5.3-.6.2-.1.5.1.6.3.1.2-.1.5-.3.6h-.1c-.2 0-.4-.1-.5-.3zm-167.9.3c-.3-.1-.4-.3-.3-.6.1-.2.3-.4.6-.3.2.1.4.3.3.6 0 .2-.2.3-.5.3h-.1zm172-1.6c-.1-.2 0-.5.2-.6.2-.1.5 0 .6.2.1.2 0 .5-.2.6h-.2c-.2.1-.4 0-.4-.2zM64 142c-.2-.1-.4-.4-.2-.6.1-.2.4-.3.6-.2.2.1.4.4.2.6-.1.2-.2.3-.4.3 0-.1-.1-.1-.2-.1zm-2.8-2.6c-.1 0-.2 0-.3-.1-.1-.1-.1-.2-.1-.3 0-.1.1-.2.1-.3.2-.2.5-.2.6 0 .1.1.1.2.1.3 0 .1 0 .2-.1.3-.1.1-.2.1-.3.1z" id="XMLID_130_"/><path class="st612" d="M243.6 139.7c-.1 0-.2 0-.3-.1-.1-.1-.1-.2-.1-.3s0-.2.1-.3c.2-.2.5-.2.7 0 .1.1.1.2.1.3s0 .2-.1.3c-.2 0-.3.1-.4.1zm-91.7 9.6c0-.3.2-.5.5-.5.2 0 .5.2.5.5 0 .2-.2.5-.5.5s-.5-.2-.5-.5zm4.2 0c0-.3.2-.5.5-.5.2 0 .5.2.5.5s-.2.5-.5.5-.5-.2-.5-.5zm-8 .5zm-.4-.5c0-.3.2-.5.5-.5s.5.2.5.5c0 .2-.2.5-.5.5s-.5-.2-.5-.5zm12.6 0c0-.3.2-.5.5-.5s.5.2.5.5-.2.5-.5.5c-.3-.1-.5-.3-.5-.5zm-16.4.4c-.3 0-.5-.2-.5-.5s.2-.5.5-.5c.2 0 .5.2.5.5s-.2.5-.5.5zm20.7-.5c0-.2.2-.5.5-.5s.5.2.5.5-.2.5-.5.5-.5-.2-.5-.5zm-24.9.5c-.3 0-.5-.2-.5-.5s.2-.5.5-.5c.2 0 .5.2.5.5-.1.3-.3.5-.5.5zm29.1-.6c0-.2.2-.5.5-.5s.5.2.5.5-.2.5-.5.5-.5-.2-.5-.5zm-33.3.5c-.3 0-.5-.2-.5-.5s.2-.5.5-.5.5.2.5.5c-.1.3-.3.5-.5.5zm37.5-.6c0-.2.2-.5.5-.5s.5.2.5.5-.2.5-.5.5-.5-.2-.5-.5zm-41.8.5c-.3 0-.5-.2-.4-.5 0-.3.2-.5.5-.5s.5.2.5.5c-.1.3-.3.5-.6.5zm46-.6c0-.3.2-.5.4-.5.3 0 .5.2.5.5 0 .2-.2.5-.5.5-.1 0-.4-.2-.4-.5zm-50.2.5c-.3 0-.5-.2-.5-.5 0-.2.2-.5.5-.5s.5.2.4.5c.1.3-.1.5-.4.5zm54.5-.6c0-.3.2-.5.4-.5.3 0 .5.2.5.5 0 .2-.2.5-.4.5-.3-.1-.5-.3-.5-.5zm-58.7.4c-.3 0-.5-.2-.5-.5 0-.2.2-.4.5-.4s.5.2.5.5c-.1.2-.3.4-.5.4zm62.9-.6c0-.3.2-.5.4-.5.3 0 .5.2.5.4 0 .3-.2.5-.5.5-.2.1-.4-.1-.4-.4zm-67.2.5c-.3 0-.5-.2-.4-.5 0-.3.2-.5.5-.4.2 0 .5.2.4.5 0 .2-.2.4-.5.4.1 0 0 0 0 0zm71.4-.7c0-.2.2-.5.4-.5s.5.2.5.4-.2.5-.4.5c-.3.1-.5-.1-.5-.4zm-75.6.5c-.3 0-.5-.2-.4-.5 0-.3.2-.5.5-.5.2 0 .5.2.4.5 0 .3-.2.5-.5.5zm79.8-.7c0-.3.2-.5.4-.5s.5.2.5.4c0 .3-.2.5-.4.5-.3 0-.5-.2-.5-.4zm-84 .4c-.3 0-.5-.2-.4-.5 0-.3.2-.5.5-.4.3 0 .5.2.4.5 0 .2-.2.4-.5.4zm88.2-.7c0-.3.2-.5.4-.5s.5.2.5.4c0 .3-.2.5-.4.5-.3.1-.4-.1-.5-.4zm-92.4.5c-.3 0-.5-.2-.4-.5 0-.3.2-.5.5-.4.3 0 .4.2.4.5 0 .2-.2.4-.5.4zm96.6-.8c0-.2.2-.5.4-.5s.5.2.5.4c0 .3-.2.5-.4.5-.2.1-.4-.1-.5-.4zm-100.8.5c-.3 0-.5-.2-.4-.5 0-.3.2-.4.5-.4s.5.2.4.5c-.1.2-.3.4-.5.4zm105.1-.8c0-.3.2-.5.4-.5s.5.2.5.4-.2.5-.4.5c-.3 0-.5-.1-.5-.4zm-109.4.4c-.3 0-.4-.2-.4-.5 0-.2.2-.4.5-.4.2 0 .4.2.4.5s-.2.4-.5.4c.1 0 .1 0 0 0zM211 147c0-.3.2-.5.4-.5.3 0 .5.2.5.4 0 .3-.2.5-.4.5h-.1c-.2 0-.4-.2-.4-.4zm-117.8.4c-.3 0-.5-.2-.4-.5 0-.2.2-.4.5-.4s.4.2.4.5c0 .2-.2.4-.5.4.1 0 0 0 0 0zm122-.9c0-.2.2-.5.4-.5s.5.2.5.4c0 .3-.2.5-.4.5h-.1c-.2.1-.4-.1-.4-.4zm-126.2.4c-.3 0-.5-.3-.4-.5 0-.2.3-.4.5-.4s.4.3.4.5c0 .3-.2.4-.5.4zm130.4-.8c0-.3.2-.5.4-.5.3 0 .5.1.5.4 0 .2-.1.5-.4.5-.3 0-.5-.2-.5-.4zm-134.6.4c-.2 0-.4-.3-.4-.5s.3-.4.5-.4c.3 0 .4.3.4.5s-.2.4-.5.4c.1 0 0 0 0 0zm138.8-1c0-.2.1-.5.4-.5.3 0 .5.1.5.4 0 .3-.1.5-.4.5h-.1c-.2 0-.4-.1-.4-.4zm-143 .4c-.2 0-.4-.3-.4-.5s.3-.4.5-.4.4.3.4.5-.2.4-.5.4c.1 0 0 0 0 0zm147.2-1c0-.3.1-.5.4-.5.3 0 .5.1.5.4 0 .2-.1.5-.4.5h-.1c-.2 0-.4-.2-.4-.4zm-151.4.4c-.2 0-.4-.3-.4-.5 0-.3.3-.4.5-.4.3 0 .4.3.4.5s-.2.4-.5.4c.1 0 .1 0 0 0zm155.5-1.1c0-.3.1-.5.4-.5.2 0 .5.1.5.4 0 .2-.1.5-.4.5h-.1c-.1-.1-.3-.2-.4-.4zm-159.6.3c-.2 0-.4-.3-.4-.5.1-.2.3-.4.6-.4s.4.3.4.5c-.1.3-.3.4-.6.4zm163.7-1.3c-.1-.2.1-.5.3-.6.2-.1.5.1.6.3.1.2-.1.5-.3.6h-.1c-.2.1-.4 0-.5-.3zm-167.9.4c-.3-.1-.4-.3-.3-.6.1-.2.3-.4.6-.3.2.1.4.3.3.6 0 .2-.2.3-.5.3h-.1zm172-1.6c-.1-.2 0-.5.2-.6.2-.1.5 0 .6.2.1.2 0 .5-.2.6h-.2c-.2.1-.4 0-.4-.2zm-176.1.2c-.2-.1-.4-.4-.2-.6.1-.2.4-.4.6-.2.2.1.4.4.2.6-.1.2-.2.3-.4.3 0 0-.1 0-.2-.1zm-2.8-2.5c-.1 0-.2 0-.3-.2-.1-.1-.1-.2-.1-.3 0-.1.1-.2.1-.3.2-.2.5-.2.6 0 .1.1.1.2.1.3s0 .2-.1.3c-.1.1-.2.2-.3.2z" id="XMLID_126_"/><path class="st612" d="M243.6 139.9c-.1 0-.2 0-.3-.1-.1-.1-.1-.2-.1-.3 0-.1 0-.2.1-.3.2-.2.5-.2.7 0 .1.1.1.2.1.3 0 .1 0 .2-.1.3-.2.1-.3.1-.4.1zm-91.7 9.7c0-.3.2-.5.5-.5.2 0 .5.2.5.5s-.2.5-.5.5c-.3-.1-.5-.3-.5-.5zm4.2 0c0-.2.2-.5.5-.5.2 0 .5.2.5.5s-.2.5-.5.5c-.3-.1-.5-.3-.5-.5zm-8 .4zm-.4-.4c0-.3.2-.5.5-.5s.5.2.5.5-.2.5-.5.5c-.3-.1-.5-.3-.5-.5zm12.6-.1c0-.3.2-.5.5-.5s.5.2.5.5c0 .2-.2.5-.5.5s-.5-.2-.5-.5zm-16.4.5c-.3 0-.5-.2-.5-.5 0-.2.2-.5.5-.5.2 0 .5.2.5.5s-.2.5-.5.5zm20.7-.5c0-.2.2-.5.5-.5s.5.2.5.5c0 .2-.2.5-.5.5-.3-.1-.5-.3-.5-.5zm-24.9.4c-.3 0-.5-.2-.5-.5s.2-.5.5-.5c.2 0 .5.2.5.5-.1.3-.3.5-.5.5zm29.1-.5c0-.3.2-.5.5-.5s.5.2.5.5-.2.5-.5.5-.5-.2-.5-.5zm-33.3.5c-.3 0-.5-.2-.5-.5s.2-.5.5-.5.5.2.5.5c-.1.3-.3.5-.5.5zm37.5-.6c0-.2.2-.5.5-.5s.5.2.5.5c0 .2-.2.5-.5.5s-.5-.2-.5-.5zm-41.8.5c-.3 0-.5-.2-.4-.5 0-.3.2-.5.5-.5s.5.2.5.5c-.1.3-.3.5-.6.5zm46-.6c0-.3.2-.5.4-.5.3 0 .5.2.5.4 0 .3-.2.5-.5.5-.1 0-.4-.2-.4-.4zm-50.2.4c-.3 0-.5-.2-.5-.5s.2-.5.5-.4c.3 0 .5.2.4.5.1.2-.1.4-.4.4zm54.5-.5c0-.3.2-.5.4-.5.3 0 .5.2.5.5s-.2.5-.4.5c-.3-.1-.5-.3-.5-.5zm-58.7.4c-.3 0-.5-.2-.5-.5s.2-.5.5-.5.5.2.5.5c-.1.3-.3.5-.5.5zm62.9-.6c0-.3.2-.5.4-.5.3 0 .5.2.5.5 0 .2-.2.5-.5.5-.2-.1-.4-.3-.4-.5zm-67.2.4c-.3 0-.5-.2-.4-.5 0-.2.2-.5.5-.4.2 0 .5.2.4.5 0 .2-.2.4-.5.4.1 0 0 0 0 0zm71.4-.6c0-.3.2-.5.4-.5s.5.2.5.4c0 .3-.2.5-.4.5-.3 0-.5-.2-.5-.4zm-75.6.4c-.3 0-.5-.2-.4-.5 0-.3.2-.5.5-.4.2 0 .5.2.4.5 0 .2-.2.4-.5.4zm79.8-.6c0-.2.2-.5.4-.5s.5.2.5.4c0 .3-.2.5-.4.5-.3 0-.5-.2-.5-.4zm-84 .4c-.3 0-.5-.2-.4-.5 0-.3.2-.5.5-.4.3 0 .5.2.4.5 0 .2-.2.4-.5.4zm88.2-.7c0-.3.2-.5.4-.5s.5.2.5.4c0 .3-.2.5-.4.5s-.4-.2-.5-.4zm-92.4.4c-.3 0-.5-.2-.4-.5 0-.2.2-.5.5-.4.3 0 .4.2.4.5 0 .2-.2.4-.5.4zm96.6-.7c0-.3.2-.5.4-.5s.5.2.5.4c0 .3-.2.5-.4.5s-.4-.1-.5-.4zm-100.8.4c-.3 0-.5-.2-.4-.5 0-.2.2-.5.5-.4.3 0 .5.2.4.5-.1.3-.3.4-.5.4zm105.1-.7c0-.3.2-.5.4-.5s.5.2.5.4c0 .3-.2.5-.4.5-.3 0-.5-.2-.5-.4zm-109.4.4c-.3 0-.4-.2-.4-.5s.2-.5.5-.4c.2 0 .4.2.4.5 0 .2-.2.4-.5.4.1 0 .1 0 0 0zm113.6-.8c0-.2.2-.5.4-.5.3 0 .5.2.5.4s-.2.5-.4.5h-.1c-.2 0-.4-.1-.4-.4zm-117.8.4c-.3 0-.5-.2-.4-.5 0-.3.2-.4.5-.4s.4.2.4.5-.2.4-.5.4c.1 0 0 0 0 0zm122-.8c0-.3.2-.5.4-.5s.5.2.5.4-.2.5-.4.5h-.1c-.2 0-.4-.2-.4-.4zm-126.2.4c-.3 0-.5-.2-.4-.5 0-.2.3-.4.5-.4s.4.3.4.5-.2.4-.5.4zm130.4-.9c0-.3.2-.5.4-.5.3 0 .5.2.5.4 0 .3-.1.5-.4.5-.3 0-.5-.1-.5-.4zm-134.6.4c-.2 0-.4-.3-.4-.5 0-.3.3-.4.5-.4.3 0 .4.3.4.5 0 .3-.2.4-.5.4.1 0 0 0 0 0zm138.8-.9c0-.3.1-.5.4-.5.3 0 .5.1.5.4 0 .2-.1.5-.4.5h-.1c-.2 0-.4-.2-.4-.4zm-143 .4c-.2 0-.4-.3-.4-.5 0-.3.3-.4.5-.4s.4.3.4.5-.2.4-.5.4c.1 0 0 0 0 0zm147.2-1c0-.2.1-.5.4-.5.3 0 .5.1.5.4 0 .2-.1.5-.4.5h-.1c-.2 0-.4-.2-.4-.4zm-151.4.3c-.2-.1-.4-.3-.4-.5s.3-.4.5-.4c.3 0 .4.3.4.5 0 .3-.2.4-.5.4.1 0 .1 0 0 0zm155.5-1.1c0-.2.1-.5.4-.5.2-.1.5.1.5.4 0 .2-.1.5-.4.6h-.1c-.1-.1-.3-.3-.4-.5zm-159.6.4c-.2-.1-.4-.3-.4-.5.1-.3.3-.4.6-.4s.4.3.4.5c-.1.2-.3.4-.6.4zm163.7-1.3c-.1-.2.1-.5.3-.6.2-.1.5.1.6.3.1.2-.1.5-.3.6h-.1c-.2.1-.4-.1-.5-.3zm-167.9.3c-.3-.1-.4-.3-.3-.6.1-.2.3-.4.6-.3.2.1.4.3.3.6 0 .2-.2.4-.5.4 0-.1 0-.1-.1-.1zm172-1.5c-.1-.2 0-.5.2-.6.2-.1.5 0 .6.2.1.2 0 .5-.2.6h-.2c-.2.1-.4-.1-.4-.2zm-176.1.2c-.2-.1-.4-.4-.2-.6.1-.2.4-.4.6-.2.2.1.4.4.2.6-.1.2-.2.3-.4.3 0-.1-.1-.1-.2-.1zm-2.8-2.6c-.1 0-.2 0-.3-.1-.1-.1-.1-.2-.1-.3s.1-.2.1-.3c.2-.2.5-.2.6 0 .1.1.1.2.1.3s0 .2-.1.3c-.1.1-.2.1-.3.1z" id="XMLID_123_"/><path class="st612" d="M243.6 143.1c-.1 0-.2 0-.3-.1-.1-.1-.1-.2-.1-.3 0-.1 0-.2.1-.3.2-.2.5-.2.7 0 .1.1.1.2.1.3 0 .1 0 .2-.1.3-.2.1-.3.1-.4.1zm-91.7 9.7c0-.3.2-.5.5-.5.2 0 .5.2.5.5 0 .2-.2.5-.5.5-.3-.1-.5-.3-.5-.5zm4.2 0c0-.3.2-.5.5-.5.2 0 .5.2.5.5s-.2.5-.5.5c-.3-.1-.5-.3-.5-.5zm-8 .4zm-.4-.4c0-.2.2-.5.5-.5s.5.2.5.5-.2.5-.5.5c-.3-.1-.5-.3-.5-.5zm12.6-.1c0-.3.2-.5.5-.5s.5.2.5.5-.2.5-.5.5-.5-.2-.5-.5zm-16.4.5c-.3 0-.5-.2-.5-.5s.2-.5.5-.5c.2 0 .5.2.5.5s-.2.5-.5.5zm20.7-.5c0-.3.2-.5.5-.5s.5.2.5.4c0 .3-.2.5-.5.5s-.5-.2-.5-.4zm-24.9.4c-.3 0-.5-.2-.5-.5s.2-.5.5-.4c.2 0 .5.2.5.5-.1.2-.3.4-.5.4zm29.1-.5c0-.3.2-.5.5-.5s.5.2.5.5-.2.5-.5.5-.5-.2-.5-.5zm-33.3.5c-.3 0-.5-.2-.5-.5 0-.2.2-.5.5-.5s.5.2.5.5c-.1.3-.3.5-.5.5zm37.5-.6c0-.3.2-.5.5-.5s.5.2.5.5c0 .2-.2.5-.5.5s-.5-.2-.5-.5zm-41.8.5c-.3 0-.5-.2-.4-.5 0-.3.2-.5.5-.5s.5.2.5.5c-.1.3-.3.5-.6.5zm46-.6c0-.3.2-.5.4-.5.3 0 .5.2.5.5s-.2.5-.5.5c-.1-.1-.4-.3-.4-.5zm-50.2.4c-.3 0-.5-.2-.5-.5 0-.2.2-.5.5-.4.3 0 .5.2.4.5.1.2-.1.4-.4.4zm54.5-.5c0-.3.2-.5.4-.5.3 0 .5.2.5.5 0 .2-.2.5-.4.5-.3-.1-.5-.3-.5-.5zm-58.7.4c-.3 0-.5-.2-.5-.5s.2-.5.5-.5.5.2.5.5c-.1.3-.3.5-.5.5zm62.9-.6c0-.3.2-.5.4-.5.3 0 .5.2.5.4 0 .3-.2.5-.5.5-.2 0-.4-.2-.4-.4zm-67.2.4c-.3 0-.5-.2-.4-.5 0-.3.2-.5.5-.4.2 0 .5.2.4.5 0 .2-.2.4-.5.4.1 0 0 0 0 0zm71.4-.6c0-.3.2-.5.4-.5s.5.2.5.4-.2.5-.4.5c-.3 0-.5-.2-.5-.4zm-75.6.4c-.3 0-.5-.2-.4-.5 0-.3.2-.5.5-.5.2 0 .5.2.4.5 0 .3-.2.5-.5.5zm79.8-.6c0-.2.2-.5.4-.5s.5.2.5.4-.2.5-.4.5c-.3 0-.5-.2-.5-.4zm-84 .4c-.3 0-.5-.2-.4-.5 0-.3.2-.5.5-.4.3 0 .5.2.4.5 0 .2-.2.4-.5.4zm88.2-.7c0-.3.2-.5.4-.5s.5.2.5.4c0 .3-.2.5-.4.5-.3 0-.4-.2-.5-.4zm-92.4.4c-.3 0-.5-.2-.4-.5 0-.3.2-.5.5-.4.3 0 .4.2.4.5 0 .2-.2.4-.5.4zm96.6-.7c0-.2.2-.5.4-.5s.5.2.5.4c0 .3-.2.5-.4.5s-.4-.1-.5-.4zm-100.8.4c-.3 0-.5-.2-.4-.5 0-.2.2-.4.5-.4s.5.2.4.5c-.1.2-.3.4-.5.4zm105.1-.7c0-.3.2-.5.4-.5s.5.2.5.4c0 .3-.2.5-.4.5-.3 0-.5-.2-.5-.4zm-109.4.4c-.3 0-.4-.2-.4-.5 0-.2.2-.4.5-.4.2 0 .4.2.4.5 0 .2-.2.4-.5.4.1 0 .1 0 0 0zm113.6-.8c0-.3.2-.5.4-.5.3 0 .5.2.5.4 0 .3-.2.5-.4.5h-.1c-.2 0-.4-.1-.4-.4zm-117.8.4c-.3 0-.5-.3-.4-.5 0-.3.2-.4.5-.4s.4.2.4.5-.2.4-.5.4c.1 0 0 0 0 0zm122-.8c0-.2.2-.5.4-.5s.5.2.5.4c0 .3-.2.5-.4.5h-.1c-.2 0-.4-.2-.4-.4zm-126.2.4c-.3 0-.5-.3-.4-.5 0-.3.3-.4.5-.4s.4.3.4.5-.2.4-.5.4zm130.4-.9c0-.3.2-.5.4-.5.3 0 .5.1.5.4 0 .2-.1.5-.4.5-.3 0-.5-.1-.5-.4zm-134.6.4c-.2 0-.4-.3-.4-.5s.3-.4.5-.4c.3 0 .4.3.4.5 0 .3-.2.4-.5.4.1 0 0 0 0 0zm138.8-.9c0-.2.1-.5.4-.5.3 0 .5.1.5.4 0 .3-.1.5-.4.5h-.1c-.2 0-.4-.2-.4-.4zm-143 .4c-.2 0-.4-.3-.4-.5 0-.3.3-.4.5-.4s.4.3.4.5-.2.4-.5.4c.1 0 0 0 0 0zm147.2-1c0-.3.1-.5.4-.5.3 0 .5.1.5.4 0 .2-.1.5-.4.5h-.1c-.2 0-.4-.2-.4-.4zm-151.4.3c-.2 0-.4-.3-.4-.5 0-.3.3-.4.5-.4.3 0 .4.3.4.5 0 .3-.2.4-.5.4.1 0 .1 0 0 0zm155.5-1.1c0-.3.1-.5.4-.6.2 0 .5.1.5.4 0 .3-.1.5-.4.5h-.1c-.1.1-.3-.1-.4-.3zm-159.6.4c-.2 0-.4-.3-.4-.5.1-.2.3-.4.5-.4.3 0 .4.3.4.5s-.2.4-.5.4zm163.7-1.3c-.1-.2.1-.5.3-.6.2-.1.5.1.6.3.1.2-.1.5-.3.6h-.1c-.2.1-.4-.1-.5-.3zm-167.9.3c-.3-.1-.4-.3-.3-.6.1-.2.3-.4.6-.3.2.1.4.3.3.6 0 .2-.2.3-.5.3h-.1zm172-1.5c-.1-.2 0-.5.2-.6.2-.1.5 0 .6.2.1.2 0 .5-.2.6h-.2c-.2.1-.4-.1-.4-.2zm-176.1.2c-.2-.1-.4-.4-.2-.6.1-.2.4-.4.6-.2.2.1.4.4.2.6-.1.2-.2.3-.4.3 0-.1-.1-.1-.2-.1zm-2.8-2.6c-.1 0-.2 0-.3-.1-.1-.1-.1-.2-.1-.3s.1-.2.2-.3c.2-.2.5-.2.6 0 .1.1.1.2.1.3s0 .2-.1.3c-.2.1-.3.1-.4.1z" id="XMLID_120_"/><path class="st612" d="M243.6 141.8c-.1 0-.2 0-.3-.1s-.1-.2-.1-.3 0-.2.1-.3c.2-.2.5-.2.7 0 .1.1.1.2.1.3s0 .2-.1.3c-.2.1-.3.1-.4.1zm-91.7 9.6c0-.2.2-.5.5-.5.2 0 .5.2.5.5s-.2.5-.5.5-.5-.2-.5-.5zm4.7.5c-.3 0-.5-.2-.5-.5s.2-.5.5-.5c.2 0 .5.2.5.5-.1.3-.3.5-.5.5zm-8.5 0zm-.4-.5c0-.2.2-.5.5-.5s.5.2.5.5c0 .2-.2.5-.5.5s-.5-.2-.5-.5zm12.6 0c0-.3.2-.5.5-.5.2 0 .5.2.5.5s-.2.5-.5.5-.5-.2-.5-.5zm-16.4.5c-.3 0-.5-.2-.5-.5s.2-.5.5-.5c.2 0 .5.2.5.5s-.2.5-.5.5zm20.7-.5c0-.3.2-.5.5-.5s.5.2.5.5-.2.5-.5.5c-.3-.1-.5-.3-.5-.5zm-25.4-.1c0-.3.2-.5.5-.5.2 0 .5.2.5.5 0 .2-.2.5-.5.5s-.5-.2-.5-.5zm29.6 0c0-.2.2-.5.5-.5s.5.2.5.5-.2.5-.5.5c-.3-.1-.5-.3-.5-.5zm-33.3.4c-.3 0-.5-.2-.5-.5 0-.2.2-.5.5-.5s.5.2.5.5c-.1.3-.3.5-.5.5zm37.5-.5c0-.3.2-.5.5-.5s.5.2.5.5-.2.5-.5.5c-.3-.1-.5-.3-.5-.5zm-41.8.4c-.3 0-.5-.2-.4-.5 0-.3.2-.5.5-.5s.5.2.5.5c-.1.3-.3.5-.6.5zm46-.5c0-.3.2-.5.4-.5.3 0 .5.2.5.4s-.2.5-.5.5c-.1 0-.4-.2-.4-.4zm-50.2.4c-.3 0-.5-.2-.5-.5s.2-.5.5-.5.5.2.4.5c.1.3-.1.5-.4.5zm54.5-.6c0-.2.2-.5.5-.5s.5.2.5.5c0 .2-.2.5-.4.5-.4 0-.6-.2-.6-.5zm-58.7.5c-.3 0-.5-.2-.5-.5s.2-.5.5-.5.5.2.5.5c-.1.3-.3.5-.5.5zm62.9-.7c0-.2.2-.5.4-.5.3 0 .5.2.5.4 0 .3-.2.5-.5.5-.2.1-.4-.1-.4-.4zm-67.2.5c-.2 0-.5-.2-.4-.5 0-.3.2-.5.5-.4.2 0 .5.2.4.5 0 .2-.2.4-.5.4.1 0 0 0 0 0zm71.4-.6c0-.3.2-.5.4-.5s.5.2.5.4-.2.5-.4.5c-.3 0-.5-.2-.5-.4zm-75.6.4c-.3 0-.5-.2-.4-.5 0-.2.2-.4.5-.4.2 0 .5.2.4.5 0 .2-.2.4-.5.4zm79.8-.7c0-.3.2-.5.4-.5s.5.2.5.4-.2.5-.4.5c-.3.1-.5-.1-.5-.4zm-84 .5c-.3 0-.5-.2-.4-.5 0-.3.2-.5.5-.4.3 0 .5.2.4.5 0 .2-.2.4-.5.4zm88.2-.7c0-.2.2-.5.4-.5s.5.2.5.4-.2.5-.4.5c-.3 0-.4-.2-.5-.4zm-92.4.4c-.3 0-.5-.2-.4-.5 0-.3.2-.5.5-.4.3 0 .4.2.4.5 0 .2-.2.4-.5.4zm96.6-.7c0-.2.2-.5.4-.5s.5.2.5.4c0 .3-.2.5-.4.5s-.4-.2-.5-.4zm-100.8.4c-.3 0-.5-.2-.4-.5 0-.3.2-.4.5-.4s.5.2.4.5c-.1.2-.3.4-.5.4zm105.1-.8c0-.2.2-.5.4-.5s.5.2.5.4-.2.5-.4.5c-.3.1-.5-.1-.5-.4zm-109.4.5c-.3 0-.4-.2-.4-.5 0-.2.2-.4.5-.4.2 0 .4.2.4.5 0 .2-.2.4-.5.4.1 0 .1 0 0 0zm113.6-.8c0-.3.2-.5.4-.5.3 0 .5.2.5.4s-.2.5-.4.5c-.3 0-.5-.2-.5-.4zm-117.8.4c-.3 0-.5-.2-.4-.5 0-.2.3-.4.5-.4.3 0 .4.2.4.5 0 .2-.2.4-.5.4.1 0 0 0 0 0zm122-.8c0-.3.2-.5.4-.5s.5.2.5.4c0 .3-.2.5-.4.5h-.1c-.2 0-.4-.2-.4-.4zm-126.2.4c-.3 0-.5-.3-.4-.5 0-.3.3-.5.5-.4.2 0 .4.3.4.5s-.2.4-.5.4zm130.4-.9c0-.3.2-.5.4-.5.3 0 .5.1.5.4 0 .2-.1.5-.4.5-.3 0-.5-.2-.5-.4zm-134.6.4c-.3 0-.4-.3-.4-.5 0-.3.3-.4.5-.4.3 0 .4.3.4.5s-.2.4-.5.4c.1 0 0 0 0 0zm138.8-.9c0-.2.1-.5.4-.5.3 0 .5.1.5.4 0 .3-.1.5-.4.5h-.1c-.2 0-.4-.2-.4-.4zm-143 .3c-.2 0-.4-.3-.4-.5 0-.3.3-.4.5-.4s.4.3.4.5c0 .3-.2.4-.5.4.1 0 0 0 0 0zm147.2-1c0-.3.1-.5.4-.5.2 0 .5.1.5.4 0 .2-.1.5-.4.5h-.1c-.2 0-.4-.1-.4-.4zm-151.4.4c-.2 0-.4-.3-.4-.5s.3-.4.5-.4c.3 0 .4.3.4.5 0 .3-.2.4-.5.4.1 0 .1 0 0 0zm155.5-1.1c0-.2.1-.5.4-.5.2 0 .5.1.5.4 0 .2-.1.5-.4.5h-.1c-.1 0-.3-.2-.4-.4zm-159.6.3c-.2 0-.4-.3-.4-.5.1-.2.3-.4.5-.4.2.1.4.3.4.6 0 .2-.2.4-.5.3 0 .1 0 0 0 0zm163.7-1.2c-.1-.2.1-.5.3-.6.2-.1.5.1.6.3.1.2-.1.5-.3.6h-.1c-.2 0-.4-.1-.5-.3zm-167.9.3c-.3-.1-.4-.3-.3-.6.1-.2.3-.4.6-.3.2.1.4.3.3.6 0 .2-.2.3-.4.3h-.2zm172-1.6c-.1-.2 0-.5.2-.6.2-.1.5 0 .6.2.1.2 0 .5-.2.6h-.2c-.2.1-.4 0-.4-.2zm-176.1.3c-.2-.1-.4-.4-.2-.6.1-.2.4-.4.6-.2.2.1.4.4.2.6-.1.2-.2.3-.4.3 0-.1-.1-.1-.2-.1zm-2.8-2.6c-.1 0-.2-.1-.3-.2-.1-.1-.1-.2-.1-.3 0-.1.1-.2.1-.3.2-.2.5-.2.6 0 .1.1.1.2.1.3s0 .2-.1.3c-.1.2-.2.2-.3.2z" id="XMLID_116_"/><path class="st777" d="M243.6 138.7c-.2 0-.4-.1-.6-.2-.2-.2-.2-.4-.2-.6s.1-.4.2-.6c.3-.3.9-.3 1.2 0 .2.2.2.4.2.6s-.1.4-.2.6c-.2.1-.4.2-.6.2zm-92.1 9.2c0-.5.4-.8.8-.8.5 0 .8.4.8.8 0 .5-.4.8-.8.8-.4.1-.8-.3-.8-.8zm4.3 0c0-.5.4-.8.8-.8.5 0 .8.4.8.8 0 .5-.4.8-.8.8-.5.1-.8-.3-.8-.8zm-7.7.9c-.5 0-.8-.4-.8-.8 0-.5.4-.8.8-.8.5 0 .8.4.8.8.1.4-.3.8-.8.8zm11.9-.9c0-.4.4-.8.8-.8.5 0 .8.4.8.8 0 .5-.4.8-.8.8s-.8-.3-.8-.8zm-16.1.8c-.5 0-.8-.4-.8-.8 0-.5.4-.8.8-.8.5 0 .8.4.8.8 0 .5-.3.8-.8.8zm20.3-.8c0-.5.4-.8.8-.8.5 0 .8.4.8.8 0 .5-.4.8-.8.8s-.8-.4-.8-.8zm-24.5.8c-.5 0-.8-.4-.8-.8 0-.5.4-.8.8-.8.5 0 .8.4.8.8s-.4.8-.8.8zm28.7-.9c0-.5.4-.8.8-.8.5 0 .8.4.8.8 0 .5-.4.8-.8.8s-.8-.4-.8-.8zm-33.8 0c0-.5.4-.8.8-.8.5 0 .8.4.8.8s-.4.8-.8.8-.8-.4-.8-.8zm38.9.7c-.5 0-.8-.4-.8-.8 0-.5.3-.8.8-.8s.8.3.8.8c0 .4-.3.8-.8.8zm-42.3 0c-.5 0-.8-.4-.8-.9s.4-.8.8-.8c.5 0 .8.4.8.8 0 .5-.3.9-.8.9zm45.7-.9c0-.5.3-.8.8-.9.5 0 .8.3.9.8 0 .5-.3.8-.8.9-.5 0-.9-.4-.9-.8zm-49.9.8c-.5 0-.8-.4-.8-.9s.4-.8.9-.8.8.4.8.9c-.1.4-.4.8-.9.8zm54.1-1c0-.5.3-.8.8-.8s.8.3.9.8c0 .5-.3.8-.8.9-.5-.1-.9-.4-.9-.9zm-58.3.8c-.5 0-.8-.4-.8-.9s.4-.8.9-.8.8.4.8.8c-.1.6-.5.9-.9.9zm62.5-.9c0-.5.3-.8.8-.9.5 0 .8.3.9.8 0 .5-.3.9-.8.9s-.9-.4-.9-.8zm-66.8.8c-.5 0-.8-.4-.8-.9s.4-.8.9-.8c.4 0 .8.4.8.9 0 .4-.4.8-.9.8zm71-1c0-.4.3-.8.8-.9.5 0 .8.3.9.8 0 .5-.3.8-.8.9-.5 0-.8-.4-.9-.8zm-75.2.8c-.4 0-.8-.4-.8-.9s.4-.8.9-.8.8.4.8.9c-.1.4-.4.8-.9.8zm79.5-1c0-.5.3-.8.8-.9.5 0 .8.3.9.8 0 .5-.3.8-.8.9-.5-.1-.9-.4-.9-.8zm-83.7.7c-.5 0-.8-.4-.8-.9s.4-.8.9-.8.8.4.8.9c-.1.5-.4.8-.9.8zm87.9-1c0-.5.3-.8.8-.9.5 0 .8.3.9.8 0 .5-.3.8-.8.9h-.1c-.4 0-.8-.4-.8-.8zm-92.1.8c-.5 0-.8-.4-.8-.9s.4-.8.9-.8.8.4.8.9c-.1.4-.5.8-.9.8zm96.3-1.1c0-.5.3-.8.8-.9.5 0 .8.3.9.8 0 .5-.3.9-.8.9h-.1c-.4 0-.8-.4-.8-.8zm-100.6.8c-.5 0-.8-.4-.8-.9s.4-.8.9-.8.8.4.8.9c0 .4-.4.8-.9.8.1 0 .1 0 0 0zm104.8-1.1c0-.5.3-.8.8-.9.5 0 .8.3.9.8 0 .5-.3.8-.8.9h-.1c-.4-.1-.8-.4-.8-.8zm-109 .7c-.5 0-.8-.4-.8-.9s.4-.8.9-.8.8.4.8.9-.4.8-.9.8c.1 0 0 0 0 0zm113.2-1.1c0-.5.3-.9.8-.9s.8.3.9.8c0 .5-.3.8-.8.9h-.1c-.4 0-.7-.3-.8-.8zm-117.4.8c-.5 0-.8-.5-.7-.9 0-.5.4-.8.9-.8.4 0 .8.4.7.9-.1.4-.4.8-.9.8.1 0 0 0 0 0zm121.6-1.2c0-.5.3-.9.7-.9.5 0 .9.3.9.7 0 .5-.3.9-.7.9h-.1c-.4.1-.7-.3-.8-.7zm-125.8.7c-.5 0-.8-.5-.7-.9 0-.5.5-.8.9-.7.5 0 .8.5.7.9-.1.4-.4.7-.9.7zm130-1.2c-.1-.4.3-.9.7-.9.5 0 .9.3.9.7 0 .5-.3.9-.7.9h-.1c-.4.1-.7-.2-.8-.7zm-134.2.8c-.5-.1-.8-.5-.7-.9.1-.4.5-.8.9-.7.5.1.8.5.7.9-.1.4-.4.7-.9.7zm138.4-1.3c-.1-.5.2-.9.7-.9.5-.1.9.2.9.7.1.5-.2.9-.7.9h-.1c-.4 0-.7-.3-.8-.7zm-142.6.7c-.5-.1-.8-.5-.7-.9.1-.5.5-.8.9-.7.5.1.8.5.7.9 0 .4-.4.7-.8.7h-.1zm146.8-1.3c-.1-.5.2-.9.7-1 .5-.1.9.2 1 .7.1.4-.2.9-.7.9h-.1c-.5.1-.8-.2-.9-.6zm-151 .7c-.4-.1-.8-.5-.7-1 .1-.4.5-.8.9-.7.5.1.8.5.7 1-.1.4-.4.7-.8.7h-.1zm155.2-1.4c-.1-.5.2-.9.6-1 .5-.1.9.2 1 .7.1.4-.2.9-.6 1h-.2c-.4-.1-.8-.3-.8-.7zm-159.4.6c-.4-.1-.7-.5-.6-1 .1-.4.5-.7 1-.6.4.1.7.5.6 1-.1.4-.4.7-.8.7-.1-.1-.2-.1-.2-.1zm163.5-1.5c-.1-.4.2-.9.6-1 .4-.1.9.1 1 .6.1.4-.2.9-.6 1h-.2c-.4 0-.7-.3-.8-.6zm-167.7.5c-.4-.1-.7-.6-.6-1 .1-.5.6-.7 1-.6.4.1.7.6.6 1-.1.4-.4.6-.8.6 0 .1-.1.1-.2 0zm171.7-1.7c-.2-.4 0-.9.4-1.1.4-.2.9 0 1.1.4.2.4 0 .9-.4 1.1-.1 0-.2.1-.3.1-.3 0-.6-.2-.8-.5zm-175.8.4c-.4-.2-.6-.7-.4-1.1.2-.4.7-.6 1.1-.4.4.2.6.7.4 1.1-.1.3-.4.5-.8.5-.1 0-.2-.1-.3-.1zm-2.7-2.5c-.2 0-.4-.1-.6-.2-.2-.2-.2-.4-.2-.6s.1-.4.2-.6c.3-.3.8-.3 1.2 0 .2.2.2.4.2.6s-.1.4-.2.6c-.2.1-.4.2-.6.2z" id="XMLID_114_"/><g class="st111"><path class="st778" d="M145.8 68.6h10.8l4.6-8.7h-10.9z"/><path class="st779" d="M145.8 68.6h10.8l5.7 4.5h-10.9z"/><path class="st780" d="M151.1 72.6H162l4.5-8.7h-10.8z"/><path class="st781" d="M155.5 63.9h10.8l-5.1-4h-10.9z"/></g><g class="st301"><path class="st713" d="M159.9 74.7c-2.4 0-4.8-.5-7-1.5-.6-.3-1.4-.7-2-1.3-.8-1-.8-2.4.2-3.3.9-.8 2.4-.8 3.2.2 0 0 .1.1.4.2 2.2 1 4.8 1.3 7.2.9 1.3-.2 2.5.6 2.7 1.9.2 1.3-.6 2.5-1.9 2.7-.9.1-1.8.2-2.8.2z"/></g><g><path class="st717" d="M101.6 148.1c0 1.9-1.6 3.5-3.5 3.5s-3.5-1.6-3.5-3.5v-4.8c0-1.9 1.6-3.5 3.5-3.5s3.5 1.6 3.5 3.5v4.8z"/><path class="st34" d="M98.9 151.9v4.3H97v-4.3"/><path class="st717" d="M97.5 149.6c1.2 0 1.4.6 1.4 1.2v2.6H97v-2.9l.5-.9z"/><path class="st42" d="M96.9 155.9H99c.7 1.4 2.5 1.4 2.8.4 0 0 1 1.9-3.4 1.6-1-.1-1.8-1-1.5-2zm-2.2-9.5h6.9v1.7h-6.9z"/><path class="st65" d="M101.3 146.2h.5v2h-.5z"/><circle class="st41" cx="98.2" cy="146.7" r="1.3"/><path class="st717" d="M98.2 131.6s-6.9-.5-9.7.2c0 0 4.1 1.7 4.1 3.9l5.6-4.1z"/><path class="st41" d="M99.8 134.4c1.2 1.5.9 3.7-.6 4.9-1.5 1.2-3.7.9-4.9-.6-1.2-1.5-.9-3.7.6-4.9 1.6-1.2 3.8-.9 4.9.6z"/><path class="st683" d="M96.5 133.1c-.5.1-1.1.3-1.5.7-1.5 1.2-1.8 3.4-.6 4.9.5.7 1.3 1.1 2 1.2 2.1-2.7.8-5.5.1-6.8z"/><path class="st41" d="M98.5 136.6l-3.1-.9s2 3.6 3.4 1.8l-.3-.9z"/><path class="st34" d="M98.7 132.1c.2.2.1.5-.1.6l-5.4 4.3c-.2.2-.5.1-.6-.1l-.5-.7c-.2-.2-.1-.5.1-.6l5.4-4.3c.2-.2.5-.1.6.1l.5.7z"/><circle class="st42" cx="98.5" cy="134.8" r=".6"/><circle class="st34" cx="87.7" cy="131.6" r=".7"/><path class="st41" d="M99.3 134.5l3.1-1.3c.3-.2.6.2.2.5l-3 2.4-.3-1.6z"/></g><g><circle class="st41" cx="112.2" cy="147.8" r="1.3"/><path class="st681" d="M119.3 149.2c0 1.9-1.6 3.5-3.5 3.5s-3.5-1.6-3.5-3.5v-4.8c0-1.9 1.6-3.5 3.5-3.5s3.5 1.6 3.5 3.5v4.8z"/><path class="st34" d="M117.9 153v4.3H116V153"/><path class="st681" d="M116.5 150.7c1.2 0 1.4.6 1.4 1.2v2.6H116v-2.9l.5-.9z"/><path class="st42" d="M115.9 157h2.1c.7 1.4 2.5 1.4 2.8.4 0 0 1 1.9-3.4 1.6-1-.1-1.9-1-1.5-2z"/><path class="st34" d="M115.2 153v4.3h-1.8V153"/><path class="st681" d="M113.8 150.7c1.2 0 1.4.6 1.4 1.2v2.6h-1.8v-2.9l.4-.9z"/><path class="st42" d="M113.2 157h2.1c.7 1.4.7 1.5.9.5 0 0 2.8 1.7-1.5 1.5-1-.1-1.8-1-1.5-2zm-.8-9.5h6.9v1.7h-6.9z"/><path class="st65" d="M119.1 147.3h.5v2h-.5z"/><circle class="st41" cx="119.3" cy="147.8" r="1.3"/><path class="st41" d="M115.7 137.2l2.9-1.8c.2-.3.6.1.3.5l-2.6 2.9-.6-1.6z"/><path class="st681" d="M115.9 132.7s-6.9-.5-9.7.2c0 0 4.1 1.7 4.1 3.9l5.6-4.1z"/><path class="st41" d="M117.6 135.5c1.2 1.5.9 3.7-.6 4.9-1.5 1.2-3.7.9-4.9-.6-1.2-1.5-.9-3.7.6-4.9 1.5-1.2 3.7-.9 4.9.6z"/><path class="st683" d="M114.2 134.2c-.5.1-1.1.3-1.5.7-1.5 1.2-1.8 3.4-.6 4.9.5.7 1.3 1.1 2 1.2 3.3-.1 4-7.3.1-6.8z"/><path class="st683" d="M119 141.1c-.6.1-1.3 0-1.9-.4-.6-.4-1-.9-1.2-1.5.6-.1 1.3 0 1.9.4.6.4 1 .9 1.2 1.5zm-8.1 1.3c.6-.2 1.1-.6 1.5-1.2.3-.6.5-1.3.3-1.9-.6.2-1.1.6-1.5 1.2-.3.6-.4 1.3-.3 1.9z"/><path class="st41" d="M117.2 137.2l-1.4-1.3s-.4 3.8 1.2 2.3l.2-1z"/><path class="st34" d="M116.4 133.2c.2.2.1.5-.1.6l-5.4 4.3c-.2.2-.5.1-.6-.1l-.5-.7c-.2-.2-.1-.5.1-.6l5.4-4.3c.2-.2.5-.1.6.1l.5.7z"/><circle class="st34" cx="105.5" cy="132.7" r=".7"/></g><g><path class="st41" d="M178.8 119.9l3.1 1.3c.4 0 .3.5-.2.5l-3.9-.5 1-1.3z"/><path class="st682" d="M182.6 117.5s-3.5-5.9-5.6-7.8c0 0 1 4.3-.9 5.6l6.5 2.2z"/><path class="st41" d="M181.3 120.5c-.5 1.8-2.5 2.9-4.3 2.3-1.8-.5-2.9-2.5-2.3-4.3.5-1.8 2.5-2.9 4.3-2.3 1.8.5 2.8 2.5 2.3 4.3z"/><path class="st230" d="M180.4 117c-.4-.4-.9-.7-1.4-.8-1.8-.5-3.8.5-4.3 2.3-.2.8-.2 1.6.1 2.4 1.9 2.6 8.2-1 5.6-3.9z"/><path class="st41" d="M179.6 121.1l.3-1.9s-3.4 1.8-1.2 2.3l.9-.4z"/><path class="st34" d="M182.5 118.3c-.1.2-.3.4-.6.3l-6.6-2c-.2-.1-.4-.3-.3-.6l.2-.8c.1-.2.3-.4.6-.3l6.6 2c.2.1.4.3.3.6l-.2.8z"/><circle class="st34" cx="176.6" cy="109" r=".7"/><circle class="st41" cx="172.1" cy="129.1" r="1.3"/><path class="st682" d="M179.3 130.5c0 1.9-1.6 3.5-3.5 3.5s-3.5-1.6-3.5-3.5v-4.8c0-1.9 1.6-3.5 3.5-3.5s3.5 1.6 3.5 3.5v4.8z"/><path class="st34" d="M177.8 134.3v4.3H176v-4.3"/><path class="st682" d="M176.4 132c1.2 0 1.4.6 1.4 1.2v2.6H176v-2.9l.4-.9z"/><path class="st42" d="M175.8 138.3h2.1c.7 1.4 2.5 1.4 2.8.4 0 0 1 1.9-3.4 1.6-1-.1-1.8-1.1-1.5-2z"/><path class="st34" d="M175.1 134.3v4.3h-1.8v-4.3"/><path class="st682" d="M173.7 132c1.2 0 1.4.6 1.4 1.2v2.6h-1.8v-2.9l.4-.9z"/><path class="st42" d="M173.2 138.3h2.1c.7 1.4.7 1.5.9.5 0 0 2.8 1.7-1.5 1.5-1.1-.1-1.9-1.1-1.5-2zM172.3 128.8h6.9v1.7h-6.9z"/><path class="st65" d="M179 128.6h.5v2h-.5z"/><circle class="st41" cx="179.2" cy="129.1" r="1.3"/></g><radialGradient id="SVGID_2_" cx="155.98" cy="65.868" r="6.584" gradientUnits="userSpaceOnUse"><stop offset="0" stop-color="#de4a3f"/><stop offset=".65" stop-color="#d43e30"/><stop offset=".928" stop-color="#ce392e"/><stop offset="1" stop-color="#cb372d"/></radialGradient><path d="M159 70c.8-2.1 1.8-4.5 2-5 .1-.2.3-.7.1-1.1-.1-.2-.2-.3-.3-.4l-1.6-1.5c.5 0 .9-.1 1.3-.1.8-.1 2.4-.2 3.2-.2l-1.1-.9c-.9 0-1.4.1-2.2.2-.8.1-1.6.2-2.4.2l-1 .3-4.4.1-.1.2c-.8 1-1.3 2.2-1.8 3.2l-2.4 5.5.7.5 2.5-5.8c.5-1 1-2 1.6-2.9l4.7-.1 2.2 1.9.1.1s0 .1-.1.3c-.4.9-1.1 2.6-1.8 4.3-.1.3-.3.6-.4 1" opacity=".36" fill="url(#SVGID_2_)"/><g class="st301"><radialGradient id="SVGID_3_" cx="158.4" cy="58.84" r="3.045" gradientUnits="userSpaceOnUse"><stop offset="0" stop-color="#de4a3f"/><stop offset=".65" stop-color="#d43e30"/><stop offset=".928" stop-color="#ce392e"/><stop offset="1" stop-color="#cb372d"/></radialGradient><path class="st62" d="M160.9 57.6l-2 .4-1.4-.5-2.2-1.5-.2 5 2.1.2.1-.1 1.3.6 3-1.1-.7-3zm-1.6 1.5h-.1.1z"/></g><path class="st768" d="M154.5 67.6c0-.3-.1-.7-.3-1-.2-.3-.7-.3-.9 0-.1.1-.1.3-.1.5-.2.3-.5.4-.8.1-.2-.3-.5-.5-.9-.4-.3 0-.5-.1-.6-.4v-.3c-.1-.1-.2-.3-.4-.3h-.6c-.3.1-.6.1-.8.2-.1 0-.3.1-.4.1l-.3.3c-.1 0-.1.1-.2.1 0 .1 0 .2-.1.3-.1.5-.2.7-.4 1.2-.2.3-.2.7-.3 1.1 0 .2.1.4.2.7v.2c0 .2-.1.4-.2.6v.1c0 .1 0 .2-.1.3 0 .6.6 1.1 1.1 1.3.5.3 1 .4 1.6.5.9.4 1.9.3 2.7-.1.3 0 .6-.1.8-.2.3-.1.7-.2.9-.5.1-.1.1-.3.1-.4.2-1.3.2-2.7 0-4z"/><path class="st764" d="M121.3 23.9l-5.6 6.5 1.5 1.3c1.8-2.3 3.1-5.1 4.1-7.8z"/><path class="st776" d="M118.7 33l-3-2.6L134.1 9l.7-2.2-1-2.1-2.2-.7-2.1 1-3.3 3.8-3-2.6 3.3-3.8 4.8-2.4 5.1 1.7 2.4 4.8-1.7 5.1z"/><path class="st764" d="M136.3 4v-.3c-.7-.7-1.4-1.2-2-1.6h-.2c-1.5.3-2.9.4-4.3.4-.1.1-.2.1-.3.2-1.1.7-2.3 1.4-3.4 2.1-.6.8-1.2 1.6-1.7 2.5l1.8 1.5 3.3-3.8 2.1-1 2.2.7 1.1 2.1-.8 2.2-2.7 3.1v.4c-1.5 2.2-2.6 3.7-4.7 5.1l-3.5 4c-.5 1.1-.8 2.3-1.2 3.6-.8 2.3-2.2 4.9-4 7.1l.7.6 18.4-21.4 1.7-5.1c-.8-.6-2.4-1.2-2.5-2.4z"/><path class="st784" d="M133.5 3.8c-.4-.1-.7-.3-1.1-.5-.2-.1-.3-.4-.2-.6-.9 0-1.7.4-2.3 1.4-.1.2-.4.3-.6.2-1.3-.5-3.4 2.3-4.4 3.4l1.4 1.2 3.3-3.8 2.1-1 2.2.7.8 1.5v-.4c-.3-.7-.7-1.6-1.2-2.1z"/><path class="st768" d="M138.5 6.3v.1c0 .2-.1.4-.4.5-.1 0-.2.1-.4.1-.1.1-.1.3-.2.4-.1.1-.2.2-.3.2-.3 1.3-1.2 2.3-2 3.3-1.2 3.4-3.8 6-6.3 8.4-2.7 2.5-5.3 5-7.4 8 .3.1.6.5.3.8-1.2 1.4-2.3 3-3.4 4.5l.2.2L137 11.4l1.7-5.1c0 .2-.1.1-.2 0z"/><g class="st301"><radialGradient id="SVGID_4_" cx="127.236" cy="16.493" r="14.258" gradientUnits="userSpaceOnUse"><stop offset="0" stop-color="#de4a3f"/><stop offset=".65" stop-color="#d43e30"/><stop offset=".928" stop-color="#ce392e"/><stop offset="1" stop-color="#cb372d"/></radialGradient><path class="st66" d="M118.7 33l-3-2.6.9-1.1 3.1 2.6z"/><radialGradient id="SVGID_5_" cx="127.07" cy="16.525" r="14.104" gradientUnits="userSpaceOnUse"><stop offset="0" stop-color="#de4a3f"/><stop offset=".65" stop-color="#d43e30"/><stop offset=".928" stop-color="#ce392e"/><stop offset="1" stop-color="#cb372d"/></radialGradient><path class="st69" d="M122.3 28.8l-3-2.6 2-2.3 3 2.6-2 2.3zm4.5-5.3l-3-2.6 2-2.3 3 2.6-2 2.3zm4.6-5.3l-3-2.6 2-2.3 3 2.6-2 2.3zm4.6-5.3l-3-2.6 1.1-1.3.4-.6 3.6 1.8-1 1.5-1.1 1.2zM134.6 6l-.9-1.3-.2-.1 2.4-3.2.4.3 2 3-3.7 1.3zm-4.9-1.2L127 1.9l3.7-1.8.6 4-1.6.7z"/><radialGradient id="SVGID_6_" cx="127.236" cy="16.49" r="14.258" gradientUnits="userSpaceOnUse"><stop offset="0" stop-color="#de4a3f"/><stop offset=".65" stop-color="#d43e30"/><stop offset=".928" stop-color="#ce392e"/><stop offset="1" stop-color="#cb372d"/></radialGradient><path class="st72" d="M126.2 8.8l-3-2.6 1-1.1 3 2.6z"/></g><g class="st301"><path class="st757" d="M127 20.4l-2.2-.2-.2.3-.5-.1-1.2-1.4-.1-.7 2.8-4.3 4.8.8v1.9l-2.3 2.6z"/></g><g class="st5"><path d="M130.2 14.8l-6.3 5.4.2.2.5.1.2-.3 2.2.2 1.1-1.1 2.3-2.6v-1.9z"/></g></g></svg>