<?xml version="1.0" encoding="utf-8"?>
<!-- Generator: Adobe Illustrator 19.1.0, SVG Export Plug-In . SVG Version: 6.00 Build 0)  -->
<svg version="1.1" id="Layer_1" xmlns="http://www.w3.org/2000/svg" xmlns:xlink="http://www.w3.org/1999/xlink" x="0px" y="0px"
	 viewBox="115.5 203.5 597.8 684" style="enable-background:new 115.5 203.5 597.8 684;" xml:space="preserve">
<style type="text/css">
	.st0{fill:#FFFFFF;stroke:#FFFFFF;stroke-width:2;stroke-linejoin:round;stroke-miterlimit:10;}
	.st1{fill:#333333;stroke:#333333;stroke-linecap:round;stroke-linejoin:round;stroke-miterlimit:10;}
	.st2{fill:none;stroke:#4D4D4D;stroke-width:2;stroke-linecap:round;stroke-miterlimit:10;}
	.st3{fill:url(#SVGID_1_);}
	.st4{fill:#FFFFFF;}
	.st5{fill:#978475;}
	.st6{fill:none;stroke:#808080;stroke-width:2;stroke-linecap:round;stroke-miterlimit:10;}
	.st7{fill:#4D4D4D;stroke:#4D4D4D;stroke-width:0.25;stroke-linejoin:round;stroke-miterlimit:10;}
	.st8{opacity:0.1;enable-background:new    ;}
	.st9{fill:#EE3837;}
	.st10{fill:none;stroke:#4D4D4D;stroke-linecap:round;stroke-linejoin:round;stroke-miterlimit:10;}
	.st11{fill:#EE3837;stroke:#D33E2F;stroke-width:0.5;stroke-linejoin:round;stroke-miterlimit:10;}
</style>
<path class="st0" d="M335.5,886.5c0-6.5,5.7-12.2,12.2-12.2s12.2,5.7,12.2,12.2H335.5L335.5,886.5z M298,886.5
	c0-13,10.6-22.8,22.8-22.8c13,0,22.8,10.6,22.8,22.8H298z M271.2,886.5c0-9,7.3-16.3,16.3-16.3s16.3,7.3,16.3,16.3H271.2
	L271.2,886.5z"/>
<path class="st1" d="M368.8,791.3c0,1.6-0.8,2.4-2.4,2.4H364c-1.6,0-2.4-0.8-2.4-2.4v-12.2c0-1.6,0.8-2.4,2.4-2.4h2.4
	c1.6,0,2.4,0.8,2.4,2.4V791.3z M375.3,791.3c0,1.6,0.8,2.4,2.4,2.4h2.4c1.6,0,2.4-0.8,2.4-2.4v-12.2c0-1.6-0.8-2.4-2.4-2.4h-2.4
	c-1.6,0-2.4,0.8-2.4,2.4V791.3z"/>
<path class="st2" d="M340.3,819.8v-31.7c0-1.6,0.8-2.4,2.4-2.4h58.6c1.6,0,2.4,0.8,2.4,2.4v31.7"/>
<radialGradient id="SVGID_1_" cx="-1224.6014" cy="1479.7684" r="102.8419" gradientTransform="matrix(-2.555 0 0 -2.555 -2756.2329 4256.1499)" gradientUnits="userSpaceOnUse">
	<stop  offset="0" style="stop-color:#DE4A3F"/>
	<stop  offset="0.65" style="stop-color:#D43E30"/>
	<stop  offset="0.928" style="stop-color:#CE392E"/>
	<stop  offset="1" style="stop-color:#CB372D"/>
</radialGradient>
<path class="st3" d="M118.2,458.4c0-140,113.9-253.9,253.9-253.9S626,317.6,626,458.4c0,74.9-32.6,141.6-83.8,188
	c-21.2,21.2-125.3,91.1-125.3,100.9h-87.8c0-9.8-105-79.8-125.3-100.9C150.7,600,118.2,533.3,118.2,458.4L118.2,458.4z"/>
<path class="st4" d="M118.2,458.4c0-140,113.9-253.9,253.9-253.9c-106.6,0-193.7,113.9-193.7,253.9c0,74.9,24.4,141.6,64.3,188
	c16.3,21.2,96,91.1,96,100.9h-10.6c0-9.8-105-79.8-125.3-100.9C150.7,600,118.2,533.3,118.2,458.4z M441.3,646.4
	c21.2-46.4,34.2-113.9,34.2-188c0-140-46.4-253.9-103.4-253.9c106.6,0,193.7,113.9,193.7,253.9c0,74.9-24.4,141.6-64.3,188
	c-16.3,21.2-96,91.1-96,100.9H390C390,737.6,433.1,667.6,441.3,646.4L441.3,646.4z M302.9,646.4c-21.2-46.4-34.2-113.9-34.2-188
	c0-140,46.4-253.9,103.4-253.9v542.8h-17.9C354.2,737.6,311,667.6,302.9,646.4L302.9,646.4z"/>
<path class="st5" d="M404.6,886.5h-65.1l-6.5-66.7h78.1L404.6,886.5z"/>
<path class="st6" d="M118.2,878.4v-420c0-140,113.9-253.9,253.9-253.9c123.7,0,226.2,88.7,249,205.9L709,871 M542.2,870.2V458.4
	c0-140-74.1-253.9-165.2-253.9c-80.6,0-147.3,88.7-162,205.9l-57.8,468"/>
<path class="st7" d="M121.4,886.5h-3.2l-2.5-32.6h7.3L121.4,886.5z"/>
<path class="st6" d="M116.5,864.5l5.7,2.5 M116.5,871.9l5.7,3.2"/>
<path class="st7" d="M158,886.5h-3.2l-1.6-32.6h7.3L158,886.5z"/>
<path class="st6" d="M154,864.5l5.7,2.5 M154,871.9l5.7,3.2"/>
<path class="st7" d="M543.8,886.5h-3.3l-2.4-32.6h7.3L543.8,886.5z"/>
<path class="st6" d="M538.9,864.5l5.7,2.5 M538.9,871.9l5.7,3.2"/>
<path class="st7" d="M710.6,886.5h-3.2l-1.6-32.6h7.3L710.6,886.5z"/>
<path class="st6" d="M706.6,864.5l5.7,2.5 M706.6,871.9l5.7,3.2"/>
<path class="st8" d="M118.2,458.4c0-44.8,11.4-86.3,31.7-122.9c13,181.5,163.6,324.7,348.3,324.7c9.8,0,18.7,0,28.5-0.8
	c-35.8,28.5-111.5,79.8-111.5,88.8h-87.8c0-9.8-105-79.8-125.3-100.9C150.7,600,118.2,533.3,118.2,458.4L118.2,458.4z"/>
<path class="st9" d="M334.6,835.2c-1.6,3.3-3.3,5.7-4.9,9c-2.4,4.1,0.8,9,4.9,9s7.3-4.9,4.9-9C337.9,840.9,336.3,837.7,334.6,835.2z
	 M409.5,835.2c-1.6,3.3-3.3,5.7-4.9,9c-2.4,4.1,0.8,9,4.9,9s7.3-4.9,4.9-9C412.8,840.9,411.1,837.7,409.5,835.2z M372.1,835.2
	c-1.6,3.3-3.3,5.7-4.9,9c-2.4,4.1,0.8,9,4.9,9c4.9,0,7.3-4.9,4.9-9C375.3,840.9,373.7,837.7,372.1,835.2z"/>
<path class="st10" d="M336.3,835.2c3.3,3.3,8.1,11.4,14.6,11.4c13,0,20.3-11.4,20.3-11.4s9.8,13,18.7,13s17.9-13,17.9-13
	 M344.4,785.6l-15.5-38.3 M399.8,785.6l15.4-38.3 M355.8,785.6l-6.5-38.3 M388.4,785.6l6.5-38.3"/>
<path class="st0" d="M420.1,886.5c0-3.3,3.3-6.5,6.5-6.5s6.5,3.3,6.5,6.5H420.1z M399.8,886.5c0-7.3,5.7-12.2,12.2-12.2
	c7.3,0,12.2,5.7,12.2,12.2H399.8L399.8,886.5z M384.3,886.5c0-4.9,4.1-9,9-9s9,4.1,9,9H384.3z"/>
<path class="st11" d="M330.6,830.3C330.6,830.3,329.8,830.3,330.6,830.3C329.8,830.3,329.8,830.3,330.6,830.3
	c-0.8,3.3,1.6,4.9,4.1,4.9h0.8v-0.8C334.6,832,333,830.3,330.6,830.3L330.6,830.3z M338.7,830.3
	C339.5,830.3,339.5,830.3,338.7,830.3C339.5,830.3,339.5,830.3,338.7,830.3c0.8,3.3-1.6,4.9-4.1,4.9h-0.8v-0.8
	C334.6,832,336.3,830.3,338.7,830.3L338.7,830.3z M368,830.3C367.2,830.3,367.2,830.3,368,830.3C367.2,830.3,367.2,830.3,368,830.3
	c-0.8,3.3,1.6,4.9,4.1,4.9h0.8v-0.8C372.1,832,370.5,830.3,368,830.3L368,830.3z M376.2,830.3C376.2,830.3,377,830.3,376.2,830.3
	C377,830.3,377,830.3,376.2,830.3c0.8,3.3-1.6,4.9-4.1,4.9h-0.8v-0.8C372.1,832,373.7,830.3,376.2,830.3L376.2,830.3z M405.4,830.3
	C404.6,830.3,404.6,830.3,405.4,830.3C404.6,830.3,404.6,830.3,405.4,830.3c-0.8,3.3,1.6,4.9,4.1,4.9h0.8v-0.8
	C409.5,832,407.1,830.3,405.4,830.3L405.4,830.3z M413.6,830.3C413.6,830.3,414.4,830.3,413.6,830.3
	C414.4,830.3,414.4,830.3,413.6,830.3c0.8,3.3-1.6,4.9-4.1,4.9h-0.8v-0.8C409.5,832,411.1,830.3,413.6,830.3L413.6,830.3z"/>
<path class="st2" d="M334.6,835.2h74.9"/>
</svg>
