<?xml version="1.0" encoding="utf-8"?>
<!-- Generator: Adobe Illustrator 19.1.0, SVG Export Plug-In . SVG Version: 6.00 Build 0)  -->
<svg version="1.1" id="slice" xmlns="http://www.w3.org/2000/svg" xmlns:xlink="http://www.w3.org/1999/xlink" x="0px" y="0px"
	 viewBox="-176 633.4 433.5 160.3" style="enable-background:new -176 633.4 433.5 160.3;" xml:space="preserve">
<style type="text/css">
	.st0{fill:#F6F3EC;}
	.st1{fill:#D7D7D7;}
	.st2{fill:#FFFFFF;}
	.st3{fill:#F5F2E2;}
	.st4{opacity:0.1;enable-background:new    ;}
	.st5{fill:#B4D3D9;}
	.st6{fill:#97BABF;}
	.st7{fill:#E0F3F5;}
	.st8{opacity:0.64;fill:#7EC1C4;enable-background:new    ;}
	.st9{fill:#C1DFF5;}
	.st10{opacity:0.1;}
	.st11{fill:#C4DFE3;}
	.st12{fill:#C5E7EB;}
	.st13{fill:#7EC1C4;}
	.st14{opacity:0.53;fill:#7EC1C4;enable-background:new    ;}
	.st15{opacity:0.82;fill:#7EC1C4;enable-background:new    ;}
	.st16{opacity:0.3;fill:#7EC1C4;enable-background:new    ;}
	.st17{fill:#79A6AD;}
	.st18{fill:#B9C9D2;}
	.st19{fill:#2C7C2F;}
	.st20{fill:#E91C24;}
	.st21{fill:#FDE08B;}
	.st22{fill:#333333;}
	.st23{fill:#C5161D;}
	.st24{fill:#FDD500;}
	.st25{fill:#AEC7DC;}
	.st26{fill:#CCCCCC;}
	.st27{fill:#9DCB3B;}
	.st28{fill:#D9EBED;}
	.st29{fill:#914295;}
	.st30{fill:#7A347E;}
	.st31{fill:#0085B7;}
	.st32{opacity:0.1;fill:#0F0F0F;enable-background:new    ;}
	.st33{fill:#716E69;}
	.st34{fill:#71BDDE;}
	.st35{fill:#888480;}
	.st36{fill:#659BC7;}
	.st37{fill:#70AFD4;}
	.st38{fill:#B0E1E8;}
	.st39{fill:none;}
	.st40{fill:#97CEE6;}
	.st41{opacity:0.22;fill:#FFFFFF;enable-background:new    ;}
	.st42{fill:#9C8954;}
	.st43{opacity:8.000000e-02;enable-background:new    ;}
	.st44{fill:#4E4E6B;}
	.st45{fill:#859537;}
	.st46{fill:#00B2EE;}
	.st47{fill:#FFDF8A;}
	.st48{fill:#FFD400;}
	.st49{fill:#E64436;}
	.st50{fill:#B757C5;}
	.st51{fill:#8A773F;}
	.st52{fill:#CC29B9;}
	.st53{fill:#F5A816;}
	.st54{fill:#6D42E3;}
	.st55{fill:#16C447;}
	.st56{fill:#C26D11;}
</style>
<g id="New_Symbol_113">
	<g id="New_Symbol_65_4_">
		<ellipse class="st0" cx="3.3" cy="752.4" rx="1.1" ry="1.3"/>
		<path class="st0" d="M205.1,744.8c-2,0-3.6,1.8-3.6,3.9h7.2C208.7,746.6,207.1,744.8,205.1,744.8z M194,745.8h-3.9
			c-1.9-2.7-7.9-6.4-10.4-6.4h-18.6c-4.7,0-4.2-2.7-4.1-3.7c0.2-0.9,0.8-2.2,4-2.2h11.1c1.2,0,1.6-1.5,0.7-2.2
			c-3.9-2.7-6.6-4.5-9.6-4.5L30,726.7c-2,0-4,1-5.1,2.8c-1.2,1.9-4.5,8.1-6.8,9.9c-1,0.8-1.6,2-1.6,3.4c0,1.1,0.4,2.2,1.1,2.9
			c0.7,0.8,1.6,1.2,2.7,1.3l4.6,0.1c2.5-1.3,2.3,1.2,0,2H10c-2.4,0-4.4,1.1-4.4,2.4c0,1.3,2,2.4,4.4,2.4l157.5,0.2
			c1.1,0,2.1-0.5,3.9-1.3h9.2c1,0,1.9-0.8,1.9-1.9c0-0.5-0.2-1-0.6-1.4h12c1,0,1.9-0.8,1.9-1.9C195.8,746.7,195,745.8,194,745.8z"/>
		<path id="XMLID_3171_" class="st0" d="M-35.9,744.3c0-1.8,1.3-3.3,3-3.2c1.6,0,3,1.5,3,3.3L-35.9,744.3L-35.9,744.3z"/>
		<path id="XMLID_3170_" class="st0" d="M-12.2,745.7c0-1.2,0.9-2.2,2-2.2s2,1,2,2.2"/>
		<path id="XMLID_3169_" class="st1" d="M152.7,737.6c0-2.2,1.6-3.9,3.6-3.9s3.6,1.8,3.6,3.9H152.7L152.7,737.6z"/>
		<path id="XMLID_3167_" class="st1" d="M30.4,745.2c0-1.5,1.1-2.8,2.5-2.8s2.5,1.2,2.5,2.8H30.4z"/>
		<path class="st1" d="M189.1,736.5h-8.2c-0.9,0-1.6-0.7-1.6-1.6c0-0.9,0.7-1.6,1.6-1.6h8.2c0.9,0,1.6,0.7,1.6,1.6
			C190.6,735.8,189.9,736.5,189.1,736.5z"/>
		<path id="XMLID_3166_" class="st1" d="M155.6,745c0-2.2,1.6-3.9,3.6-3.9s3.6,1.8,3.6,3.9H155.6L155.6,745z"/>
		<path id="XMLID_3165_" class="st2" d="M-90.1,732.4c0-1.8,1.4-3.3,3.1-3.3s3.1,1.5,3,3.3H-90.1z"/>
		<path class="st2" d="M112.6,723.1c-3.6-6.9-15.1-12.4-21.9-12.4l-102.9-0.2c-2.1,0-7.1,2.7-8.9,4.3c-2,1.8-12.2,6.6-14.9,7.4h-0.4
			c-1.7,0-5.1,3.3-5.1,5.2s3.3,1.6,5.1,1.6l8.6,0.2c2.6,0,2.6,4.4,0,4.4h-25.6c-1.4,0-4.4,2.1-4.4,3.6s3,1.7,4.4,1.8l175.6,0.3
			L112.6,723.1L112.6,723.1z"/>
		<path class="st2" d="M-53.7,728.5c-2,0-3.7,1.8-3.7,4h7.4C-50,730.3-51.7,728.5-53.7,728.5z M-53.7,722.5h5.7c0-2.2-1.6-4-3.7-4
			c-1.3,0-2.4,0.7-3,1.7c-0.5-0.4-1.1-0.7-1.7-0.7c-1.5,0-2.7,1.3-2.7,3H-53.7z"/>
		<ellipse class="st2" cx="-63.8" cy="733.8" rx="2.1" ry="2.3"/>
		<path class="st2" d="M-50.7,726.6h5.5c0-1.7-1.3-3-2.8-3C-49.4,723.6-50.7,724.9-50.7,726.6z"/>
		<path id="XMLID_3164_" class="st1" d="M90.5,733.1c0-1.8,1.3-3.2,3-3.2c1.6,0,2.9,1.4,2.9,3.2H90.5z"/>
		<path id="XMLID_3163_" class="st2" d="M131.4,746.2c0-2.2,1.7-4,3.7-4s3.7,1.8,3.7,4H131.4z"/>
		<path id="XMLID_3162_" class="st2" d="M76.7,744.1c0-1.7,1.3-3.2,2.9-3.2s2.9,1.4,2.9,3.2H76.7L76.7,744.1z"/>
		<path id="XMLID_3161_" class="st1" d="M-22.3,733.4c0-1.6,1.2-2.8,2.6-2.8s2.6,1.3,2.6,2.8H-22.3z"/>
		<path class="st1" d="M129.6,722.8h-8.4c-0.9,0-1.6-0.7-1.6-1.6s0.7-1.6,1.6-1.6h8.4c0.9,0,1.6,0.7,1.6,1.6
			S130.5,722.8,129.6,722.8z"/>
		<path class="st2" d="M124.4,731.3h15.7c1.1,0,1.9-0.9,1.9-1.9s-0.9-1.9-1.9-1.9h-15.7c-1.1,0-1.9,0.9-1.9,1.9
			C122.5,730.5,123.4,731.3,124.4,731.3z M145.5,732.5h-28.3c-1.4,0-2.6,1.2-2.6,2.6c0,0.8,0.3,1.4,0.8,1.9h-12.6
			c-1.4,0-2.6,1.2-2.6,2.6s1.2,2.6,2.6,2.6h28.3c1.4,0,2.6-1.2,2.6-2.6c0-0.8-0.3-1.4-0.8-1.9h12.6c1.4,0,2.6-1.2,2.6-2.6
			S147,732.5,145.5,732.5z"/>
		<path id="XMLID_3160_" class="st1" d="M101.9,736.8c0-2.2,1.7-4,3.7-4s3.7,1.8,3.7,4H101.9z"/>
		<path id="XMLID_3159_" class="st0" d="M-3.9,741.8c0-2.2,1.6-3.9,3.6-3.9s3.6,1.8,3.6,3.9H-3.9z"/>
		<path id="XMLID_3158_" class="st0" d="M-1.9,734.6c0-2.2,1.6-3.9,3.6-3.9s3.6,1.8,3.6,3.9H-1.9z"/>
		<path id="XMLID_3157_" class="st0" d="M-5.6,734.6c0-1.6,1.2-2.9,2.7-2.9s2.7,1.3,2.7,2.9C-0.2,734.6-5.6,734.6-5.6,734.6z"/>
		<path id="XMLID_3156_" class="st0" d="M72.3,739.3c0-2.2,1.7-4,3.7-4s3.7,1.8,3.7,4H72.3z"/>
		<path id="XMLID_3095_" class="st0" d="M68.5,739.3c0-1.6,1.2-3,2.7-3s2.7,1.3,2.7,3H68.5z"/>
		<path id="XMLID_3094_" class="st0" d="M53.4,740.2c0-2.6,1.9-4.7,4.3-4.7s4.3,2.1,4.3,4.7"/>
	</g>
	<path class="st3" d="M231.7,724.9c-10.5,3.2,1.7,8.2-9.7,11c-9.8,2.4-27.1,1-37.7,1.1c-12.7,0.1-25.4,0.3-38.1,0.4
		c-12.8,0.1-23.9,2.1-36.3,2.6c-12.3,0.5-25.5-0.4-37.8-1c-10.4-0.5-17.4-1.2-26.5-3.2c-8.7-2-57.7-3.3-47.3-11.7
		c4.8-3.9,17.2-1.4,24.3-3.2c4.6-1.1,4.9-3.1,8.3-4.8c3.4-1.6,9.8-2.8,14.1-3.7c23.1-4.9,47.5,1.2,71.6-1.4
		c14.2-1.5,26-2.5,40.7-2.2c4.9,0.1,9.9,0.2,14.8,0.4c3.3,0.1,6.5,0.3,9.8,0.6c4.3,0.3,8.1,2,5.6,1.9c9.8,2.8,20.8,1.8,31.6,4.1
		C225.1,717.1,242.5,721.6,231.7,724.9L231.7,724.9z"/>
	<g id="New_Symbol_65_3_">
		<ellipse class="st0" cx="187.4" cy="742.2" rx="0.9" ry="1.3"/>
		<path class="st0" d="M35.9,734.1c1.5,0,2.7,1.8,2.7,3.9h-5.4C33.2,735.8,34.4,734.1,35.9,734.1z M44.2,735.1h2.9
			c1.5-2.7,5.9-6.3,7.8-6.3h14c3.5,0,3.2-2.7,3.1-3.7c-0.1-0.9-0.6-2.2-3-2.2h-8.3c-0.9,0-1.2-1.5-0.5-2.2c2.9-2.7,4.9-4.5,7.3-4.5
			l99.9,0.2c1.5,0,3,1,3.8,2.8c0.9,1.9,3.4,8.1,5.1,9.9c0.7,0.8,1.2,2,1.2,3.4c0,1.1-0.3,2.2-0.8,2.9s-1.2,1.2-2,1.2l-3.5,0.1
			c-1.9-1.3-1.8,1.2,0,2h11.2c1.8,0,3.3,1.1,3.3,2.4s-1.5,2.4-3.3,2.4L64,743.4c-0.8,0-1.6-0.5-3-1.3h-6.9c-0.8,0-1.4-0.8-1.4-1.9
			c0-0.5,0.2-1,0.5-1.4h-9c-0.8,0-1.4-0.8-1.4-1.9C42.8,735.9,43.5,735.1,44.2,735.1L44.2,735.1z"/>
		<path id="XMLID_3093_" class="st0" d="M216.8,734.2c0-1.8-1-3.3-2.2-3.3s-2.2,1.5-2.2,3.3H216.8L216.8,734.2z"/>
		<path id="XMLID_3092_" class="st0" d="M199,735.5c0-1.2-0.7-2.2-1.5-2.2s-1.5,1-1.5,2.2"/>
		<path id="XMLID_3091_" class="st1" d="M75.3,727c0-2.2-1.2-3.9-2.7-3.9s-2.7,1.8-2.7,3.9H75.3z"/>
		<path id="XMLID_3090_" class="st1" d="M167.1,735c0-1.5-0.8-2.8-1.9-2.8c-1,0-1.9,1.2-1.9,2.8H167.1L167.1,735z"/>
		<path class="st1" d="M47.9,725.8h6.2c0.6,0,1.2-0.7,1.2-1.6s-0.5-1.6-1.2-1.6h-6.2c-0.6,0-1.2,0.7-1.2,1.6
			C46.8,725.1,47.3,725.8,47.9,725.8z"/>
		<path id="XMLID_3089_" class="st1" d="M73,734.4c0-2.2-1.2-3.9-2.7-3.9s-2.7,1.8-2.7,3.9H73z"/>
		<path id="XMLID_3088_" class="st2" d="M257.5,722.5c0-1.8-1-3.3-2.3-3.3s-2.3,1.5-2.3,3.3H257.5L257.5,722.5z"/>
		<path class="st2" d="M105.4,712.6c2.7-6.9,11.4-12.3,16.5-12.3l77.3,0.1c1.6,0,5.3,2.7,6.7,4.3c1.5,1.8,9.1,6.7,11.2,7.5h0.3
			c1.3,0,3.8,3.4,3.8,5.3s-2.5,1.6-3.8,1.6l-6.5,0.2c-2,0-2,4.4,0,4.4h19.2c1,0,3.3,2.2,3.3,3.6c0,1.5-2.3,1.7-3.3,1.7l-131.9-0.2
			L105.4,712.6L105.4,712.6z"/>
		<path class="st2" d="M230.2,718.4c1.5,0,2.8,1.8,2.8,4h-5.5C227.5,720.2,228.7,718.4,230.2,718.4z M230.3,712.5H226
			c0-2.2,1.2-4,2.8-4c0.9,0,1.8,0.7,2.3,1.7c0.4-0.4,0.8-0.7,1.3-0.7c1.1,0,2,1.3,2,3H230.3L230.3,712.5z"/>
		<ellipse class="st2" cx="237.8" cy="723.8" rx="1.6" ry="2.3"/>
		<path class="st2" d="M228,716.5h-4.2c0-1.7,0.9-3,2.1-3C227,713.5,228,714.8,228,716.5z"/>
		<path id="XMLID_3087_" class="st1" d="M121.9,722.7c0-1.8-1-3.2-2.2-3.2s-2.2,1.4-2.2,3.2H121.9z"/>
		<path id="XMLID_3086_" class="st2" d="M91.2,735.6c0-2.2-1.2-4-2.8-4c-1.5,0-2.8,1.8-2.8,4H91.2z"/>
		<path id="XMLID_3085_" class="st2" d="M132.3,733.7c0-1.7-1-3.2-2.2-3.2s-2.2,1.4-2.2,3.2H132.3z"/>
		<path id="XMLID_3084_" class="st1" d="M206.6,723.2c0-1.6-0.9-2.8-1.9-2.8c-1.1,0-1.9,1.3-1.9,2.8H206.6z"/>
		<path class="st1" d="M92.6,712.2h6.3c0.7,0,1.2-0.7,1.2-1.6c0-0.9-0.5-1.6-1.2-1.6h-6.3c-0.7,0-1.2,0.7-1.2,1.6
			C91.4,711.5,92,712.2,92.6,712.2z"/>
		<path class="st2" d="M96.5,720.8H84.7c-0.8,0-1.4-0.9-1.4-1.9c0-1.1,0.6-1.9,1.4-1.9h11.8c0.8,0,1.4,0.9,1.4,1.9
			S97.3,720.8,96.5,720.8z M80.6,721.9h21.2c1.1,0,2,1.2,2,2.6c0,0.8-0.2,1.4-0.6,1.9h9.5c1.1,0,2,1.2,2,2.6c0,1.4-0.9,2.6-2,2.6
			H91.5c-1.1,0-2-1.2-2-2.6c0-0.8,0.2-1.4,0.6-1.9h-9.5c-1.1,0-2-1.2-2-2.6C78.6,723.1,79.6,721.9,80.6,721.9z"/>
		<path id="XMLID_3083_" class="st1" d="M113.4,726.3c0-2.2-1.2-4-2.8-4c-1.5,0-2.8,1.8-2.8,4H113.4z"/>
		<path id="XMLID_3082_" class="st0" d="M192.8,731.6c0-2.2-1.2-3.9-2.7-3.9s-2.7,1.8-2.7,3.9H192.8L192.8,731.6z"/>
		<path id="XMLID_3081_" class="st0" d="M191.4,724.4c0-2.2-1.2-3.9-2.7-3.9s-2.7,1.8-2.7,3.9H191.4L191.4,724.4z"/>
		<path id="XMLID_3080_" class="st0" d="M194.1,724.4c0-1.6-0.9-2.9-2-2.9s-2,1.3-2,2.9H194.1z"/>
		<path id="XMLID_3079_" class="st0" d="M135.6,728.9c0-2.2-1.2-4-2.8-4c-1.5,0-2.8,1.8-2.8,4H135.6z"/>
		<path id="XMLID_3078_" class="st0" d="M138.5,728.9c0-1.6-0.9-3-2-3s-2,1.3-2,3H138.5z"/>
		<path id="XMLID_3077_" class="st0" d="M149.8,729.8c0-2.6-1.4-4.7-3.2-4.7s-3.2,2.1-3.2,4.7"/>
	</g>
	<ellipse id="XMLID_441_" class="st4" cx="-24.1" cy="721.4" rx="119.2" ry="4.9"/>
	<path id="XMLID_440_" class="st5" d="M-73.3,633.4h4.5v12.2h-4.5C-73.3,645.6-73.3,633.4-73.3,633.4z"/>
	<path id="XMLID_439_" class="st4" d="M-70.4,633.4h1.6v12.2h-1.6V633.4z"/>
	<path id="XMLID_438_" class="st6" d="M-65.7,680.3l66,0.1l-0.1,41.5l-66-0.1C-65.8,721.8-65.7,680.3-65.7,680.3z"/>
	<path id="XMLID_437_" class="st7" d="M-68,680.3l60.9,0.1l-0.1,41.5l-60.8-0.1C-68,721.8-68,680.3-68,680.3z"/>
	<path id="XMLID_436_" class="st6" d="M63.5,722l-66-0.1v-32.2l58.6,0.1l7.4-3.6V722z"/>
	<path id="XMLID_435_" class="st7" d="M-4.9,689.8l60.9,0.1l-0.1,32.2L-5,722C-5,722-4.9,689.8-4.9,689.8z"/>
	<path id="XMLID_434_" class="st8" d="M63.5,686.1L3.4,686l-8.2,3.7l60.9,0.1L63.5,686.1z"/>
	<path id="XMLID_433_" class="st6" d="M-60.6,722l-66-0.1l0.1-76.4l32.2-10.7l33.8,10.8L-60.6,722L-60.6,722z"/>
	<path id="XMLID_432_" class="st7" d="M-128.8,645.5l60.9,0.1L-68,722l-60.9-0.1C-128.9,721.9-128.8,645.5-128.8,645.5z"/>
	<path id="XMLID_431_" class="st6" d="M-141.7,690.7l31.6,0.1v31.1h-31.6V690.7z"/>
	<path id="XMLID_430_" class="st9" d="M-142.8,690.7h29.2v31.1h-29.2V690.7z"/>
	<path id="XMLID_426_" class="st4" d="M-111.4,687.2h2.6v3.6h-2.6V687.2z"/>
	<path id="XMLID_421_" class="st5" d="M-144.9,687.1l33.5,0.1v3.6l-33.5-0.1V687.1z"/>
	<path id="XMLID_420_" class="st6" d="M1.2,682.1h-4.6v-3.6h4.6V682.1z"/>
	<path id="XMLID_418_" class="st4" d="M1.2,682.1h-4.6v-3.6h4.6V682.1z"/>
	<path id="XMLID_413_" class="st5" d="M-62.3,678.5l58.9,0.1v3.6l-58.9-0.1C-62.3,682.1-62.3,678.5-62.3,678.5z"/>
	<path id="XMLID_412_" class="st6" d="M-128.8,645.5l34.5-10.7l26.4,10.8"/>
	<g id="XMLID_411_" class="st10">
		<path d="M-120.7,716.2h-16.5V705h16.5V716.2z"/>
		<path class="st9" d="M-120.2,716.7h-17.5v-12.3h17.5V716.7z M-136.7,715.7h15.4v-10.2h-15.4C-136.7,705.5-136.7,715.7-136.7,715.7
			z"/>
	</g>
	<g id="XMLID_410_" class="st10">
		<path d="M-126.1,716.2h-5.7V705h5.7V716.2z"/>
		<path class="st9" d="M-125.6,716.7h-6.8v-12.3h6.8V716.7z M-131.3,715.7h4.7v-10.2h-4.7V715.7z"/>
	</g>
	<path id="XMLID_405_" class="st11" d="M-93.6,687.7h9.3v9.3h-9.3V687.7z"/>
	<path id="XMLID_402_" class="st11" d="M-107,687.7h9.3v9.3h-9.3V687.7z"/>
	<path id="XMLID_401_" class="st12" d="M-93.6,700.7h9.3v9.3h-9.3V700.7z"/>
	<path id="XMLID_399_" class="st11" d="M-107.1,700.7h9.3v9.3h-9.3V700.7z"/>
	<path id="XMLID_397_" class="st12" d="M-38.7,688.7h11.9v11.9h-11.9V688.7z"/>
	<path id="XMLID_396_" class="st12" d="M-55.9,688.7H-44v11.9h-11.9V688.7z"/>
	<path id="XMLID_395_" class="st12" d="M-38.8,705.3h11.9v11.9h-11.9V705.3z"/>
	<path id="XMLID_393_" class="st12" d="M-55.9,705.3H-44v11.9h-11.9V705.3z"/>
	<path id="XMLID_392_" class="st12" d="M-21.5,688.7h11.9v11.9h-11.9V688.7z"/>
	<path id="XMLID_391_" class="st12" d="M-21.5,705.3h11.9v11.9h-11.9V705.3z"/>
	<path id="XMLID_390_" class="st13" d="M42.9,694.6h11.3v11.9H42.9V694.6z"/>
	<path id="XMLID_389_" class="st14" d="M42.9,706.7h11.3v11.9H42.9V706.7z"/>
	<path id="XMLID_385_" class="st8" d="M31.5,694.6h11.3v11.9H31.5V694.6z"/>
	<path id="XMLID_379_" class="st15" d="M31.5,706.7h11.3v11.9H31.5V706.7z"/>
	<path id="XMLID_378_" class="st14" d="M20.1,694.6h11.3v11.9H20.1V694.6z"/>
	<path id="XMLID_373_" class="st8" d="M20.1,706.6h11.3v11.9H20.1V706.6z"/>
	<path id="XMLID_368_" class="st16" d="M8.7,694.6H20v11.9H8.7V694.6z"/>
	<path id="XMLID_362_" class="st13" d="M8.7,706.6H20v11.9H8.7V706.6z"/>
	<path id="XMLID_361_" class="st14" d="M-2.7,694.6H8.6v11.9H-2.7V694.6z"/>
	<path id="XMLID_359_" class="st8" d="M-2.7,706.6H8.6v11.9H-2.7V706.6z"/>
	<path id="XMLID_358_" class="st12" d="M-93.6,672.9h9.3v9.3h-9.3V672.9z"/>
	<path id="XMLID_354_" class="st11" d="M-107,672.9h9.3v9.3h-9.3V672.9z"/>
	<path id="XMLID_353_" class="st12" d="M-120.7,672.9h9.3v9.3h-9.3V672.9z"/>
	<path id="XMLID_352_" class="st12" d="M-93.6,659.2h9.3v9.3h-9.3V659.2z"/>
	<path id="XMLID_341_" class="st12" d="M-81.8,687.7h9.3v9.3h-9.3V687.7z"/>
	<path id="XMLID_340_" class="st11" d="M-81.8,700.7h9.3v9.3h-9.3V700.7z"/>
	<path id="XMLID_305_" class="st12" d="M-81.8,672.9h9.3v9.3h-9.3V672.9z"/>
	<path id="XMLID_293_" class="st11" d="M-81.8,659.2h9.3v9.3h-9.3V659.2z"/>
	<path id="XMLID_292_" class="st12" d="M-107,659.2h9.3v9.3h-9.3V659.2z"/>
	<path id="XMLID_282_" class="st11" d="M-120.6,659.2h9.3v9.3h-9.3V659.2z"/>
	<path id="XMLID_274_" class="st6" d="M-118.2,703.7h-21.4v-1.9l10.7-4.7l10.7,4.7C-118.2,701.8-118.2,703.7-118.2,703.7z"/>
	<path class="st6" d="M-137,702.6h1.3v13.8h-1.3V702.6z M-123.1,702.6h1.3v13.8h-1.3V702.6z"/>
	<path id="XMLID_273_" class="st6" d="M-3.9,709.2l31.6,0.1v12.9l-31.6-0.1V709.2z"/>
	<path id="XMLID_271_" class="st9" d="M-5,709.2h29.2v12.9H-5V709.2z"/>
	<path id="XMLID_270_" class="st6" d="M26.3,705.6h2.6v3.6h-2.6V705.6z"/>
	<path id="XMLID_268_" class="st4" d="M26.3,705.6h2.6v3.6h-2.6V705.6z"/>
	<path id="XMLID_260_" class="st5" d="M-7.2,705.6l33.5,0.1v3.6l-33.5-0.1V705.6z"/>
	<g id="XMLID_257_" class="st10">
		<path d="M17.1,721.9H0.6v-11.2h16.5V721.9z"/>
		<path class="st9" d="M17.6,722.4H0.1v-12.3h17.5V722.4z M1.1,721.4h15.4v-10.2H1.1V721.4z"/>
	</g>
	<g id="XMLID_256_" class="st10">
		<path d="M11.7,721.9H6v-11.2h5.7V721.9z"/>
		<path class="st9" d="M12.2,722.4H5.4v-12.3h6.8V722.4z M6.5,721.4h4.7v-10.2H6.5V721.4z"/>
	</g>
	<path id="XMLID_255_" class="st6" d="M19.6,709.4H-1.8v-1.9l10.7-4.7l10.7,4.7C19.6,707.5,19.6,709.4,19.6,709.4z"/>
	<path id="XMLID_254_" class="st6" d="M-1.2,720.2h17.8v1.9H-1.2V720.2z"/>
	<path id="XMLID_252_" class="st17" d="M-138.7,716.2h17.5v7.4h-17.5V716.2z"/>
	<path id="XMLID_251_" class="st6" d="M-143.9,720h16.3v1.9h-16.3V720z"/>
	<path id="XMLID_237_" class="st6" d="M-145.2,721.6h16.3v1.9h-16.3V721.6z"/>
	<path id="XMLID_236_" class="st6" d="M-141,718h16.3v1.9H-141V718z"/>
	<path id="XMLID_234_" class="st6" d="M-138.7,716.2h16.3v1.9h-16.3V716.2z"/>
	<path id="XMLID_233_" class="st5" d="M-59.6,647.5h-7.7V644h7.7C-59.6,644-59.6,647.5-59.6,647.5z"/>
	<path id="XMLID_230_" class="st4" d="M-59.6,647.5h-7.7V644h7.7C-59.6,644-59.6,647.5-59.6,647.5z"/>
	<path id="XMLID_229_" class="st5" d="M-132.7,643.9l65.5,0.1v3.5l-65.5-0.1V643.9z"/>
	<g id="XMLID_227_">
		<path class="st2" d="M-118.6,642.2c0,3.6-3,6.6-6.6,6.6c-3.6,0-6.6-3-6.6-6.6C-131.8,642.2-118.6,642.2-118.6,642.2z"/>
		<path class="st2" d="M-125.2,648.9c-3.7,0-6.7-3-6.7-6.7c0-0.1,0-0.1,0.1-0.1h13.3v0.1C-118.5,645.9-121.5,648.9-125.2,648.9z
			 M-131.7,642.3c0,3.5,2.9,6.4,6.5,6.4c3.5,0,6.4-2.9,6.5-6.4H-131.7z"/>
	</g>
	<g id="XMLID_224_">
		<path class="st2" d="M-111.1,642.2c0,2.3-1.9,4.1-4.1,4.1c-2.3,0-4.1-1.9-4.1-4.1C-119.3,642.2-111.1,642.2-111.1,642.2z"/>
		<path class="st2" d="M-115.2,646.4c-1.1,0-2.2-0.4-3-1.2c-0.8-0.8-1.2-1.8-1.2-3h8.2c0,0,0.1,0,0.1,0.1c0,1.1-0.4,2.2-1.2,3
			C-113,646-114.1,646.4-115.2,646.4z M-119.2,642.3c0,1.1,0.4,2.1,1.2,2.8c0.8,0.8,1.8,1.2,2.9,1.2s2.1-0.4,2.9-1.2
			c0.8-0.8,1.2-1.7,1.2-2.8H-119.2z"/>
	</g>
	<g id="XMLID_223_">
		<path class="st2" d="M-114.7,644.1v-0.7l-11.6-0.6c2.3-0.5,4.6-1,6.9-1.6c4.2-0.9,8.5-2.5,12.8-1.6c1,0.2,2.1,0.5,2.8,1.3
			s1,2,0.4,2.8c-0.3,0.5-0.9,0.8-1.5,0.9c-0.6,0.1-1.2,0.1-1.8,0C-109.4,644.4-112,644.1-114.7,644.1L-114.7,644.1z"/>
		<path class="st2" d="M-105.8,644.7h-1c-0.6,0-1.2-0.1-1.9-0.1c-2-0.2-4.1-0.3-6.1-0.3v-0.7l-11.5-0.8c2.3-0.5,4.6-1,6.9-1.6
			l2.4-0.6c3.4-0.9,7-1.7,10.5-1.1c0.8,0.2,2,0.5,2.8,1.3c0.7,0.7,1.1,2,0.4,2.9c-0.3,0.5-0.9,0.8-1.6,0.9
			C-105.2,644.7-105.5,644.7-105.8,644.7L-105.8,644.7z M-114.6,644.1c2,0,4.1,0.2,6.1,0.3c0.6,0,1.2,0.1,1.9,0.1
			c0.6,0,1.2,0.1,1.8,0c0.7-0.1,1.2-0.4,1.5-0.9c0.6-0.9,0.2-2.1-0.4-2.8c-0.8-0.8-2-1.1-2.8-1.3c-3.5-0.7-7,0.2-10.5,1.1l-2.4,0.6
			c-2.2,0.5-4.5,1-6.7,1.5l11.4,0.7L-114.6,644.1L-114.6,644.1z"/>
	</g>
	<g id="New_Symbol_65_2_">
		<ellipse class="st0" cx="-82.7" cy="771" rx="1.1" ry="1.3"/>
		<path class="st0" d="M119.2,763.5c-2,0-3.6,1.8-3.6,3.9h7.2C122.8,765.3,121.2,763.5,119.2,763.5L119.2,763.5z M108.1,764.5h-3.9
			c-1.9-2.7-7.9-6.4-10.4-6.4H75.2c-4.7,0-4.2-2.7-4.1-3.7c0.2-0.9,0.8-2.2,4-2.2h11.1c1.2,0,1.6-1.5,0.7-2.2
			c-3.9-2.7-6.6-4.5-9.6-4.5l-133.2-0.1c-2,0-4,1-5.1,2.8c-1.2,1.9-4.5,8.1-6.8,9.9c-1,0.8-1.6,2-1.6,3.4c0,1.1,0.4,2.2,1.1,2.9
			c0.7,0.8,1.6,1.2,2.7,1.3l4.6,0.1c2.5-1.3,2.3,1.2,0,2h-14.9c-2.4,0-4.4,1.1-4.4,2.4c0,1.3,2,2.4,4.4,2.4l157.5,0.2
			c1.1,0,2.1-0.5,3.9-1.3h9.2c1,0,1.9-0.8,1.9-1.9c0-0.5-0.2-1-0.6-1.4h12c1,0,1.9-0.8,1.9-1.9C109.9,765.3,109.1,764.5,108.1,764.5
			L108.1,764.5z"/>
		<path id="XMLID_3076_" class="st0" d="M-121.8,763c0-1.8,1.3-3.3,3-3.2c1.6,0,3,1.5,3,3.3L-121.8,763L-121.8,763z"/>
		<path id="XMLID_3075_" class="st0" d="M-98.1,764.4c0-1.2,0.9-2.2,2-2.2s2,1,2,2.2"/>
		<path id="XMLID_3074_" class="st1" d="M66.8,756.2c0-2.2,1.6-3.9,3.6-3.9s3.6,1.8,3.6,3.9H66.8L66.8,756.2z"/>
		<path id="XMLID_3073_" class="st1" d="M-55.5,763.9c0-1.5,1.1-2.8,2.5-2.8s2.5,1.2,2.5,2.8H-55.5z"/>
		<path class="st1" d="M103.2,755.2H95c-0.9,0-1.6-0.7-1.6-1.6c0-0.9,0.7-1.6,1.6-1.6h8.2c0.9,0,1.6,0.7,1.6,1.6
			C104.7,754.5,104,755.2,103.2,755.2z"/>
		<path id="XMLID_3072_" class="st1" d="M69.7,763.6c0-2.2,1.6-3.9,3.6-3.9s3.6,1.8,3.6,3.9H69.7L69.7,763.6z"/>
		<path id="XMLID_2861_" class="st2" d="M-176,751.1c0-1.8,1.4-3.3,3.1-3.3c1.7,0,3.1,1.5,3,3.3H-176z"/>
		<path class="st2" d="M26.6,741.7c-3.6-6.9-15.1-12.4-21.9-12.4l-102.9-0.1c-2.1,0-7.1,2.7-8.9,4.3c-2,1.8-12.2,6.6-14.9,7.4h-0.4
			c-1.7,0-5.1,3.3-5.1,5.2s3.3,1.6,5.1,1.6l8.6,0.2c2.6,0,2.6,4.4,0,4.4h-25.6c-1.4,0-4.4,2.1-4.4,3.6s3,1.7,4.4,1.8L36.2,758
			L26.6,741.7z"/>
		<path class="st2" d="M-139.6,747.1c-2,0-3.7,1.8-3.7,4h7.4C-135.9,748.9-137.6,747.1-139.6,747.1z M-139.6,741.2h5.7
			c0-2.2-1.6-4-3.7-4c-1.3,0-2.4,0.7-3,1.7c-0.5-0.4-1.1-0.7-1.7-0.7c-1.5,0-2.7,1.3-2.7,3H-139.6z"/>
		<ellipse class="st2" cx="-149.7" cy="752.5" rx="2.1" ry="2.3"/>
		<path class="st2" d="M-136.6,745.2h5.5c0-1.7-1.3-3-2.8-3S-136.6,743.6-136.6,745.2z"/>
		<path id="XMLID_2860_" class="st1" d="M4.6,751.8c0-1.8,1.3-3.2,3-3.2c1.6,0,2.9,1.4,2.9,3.2H4.6z"/>
		<path id="XMLID_2859_" class="st2" d="M45.5,764.9c0-2.2,1.7-4,3.7-4s3.7,1.8,3.7,4H45.5z"/>
		<path id="XMLID_1445_" class="st2" d="M-9.2,762.8c0-1.7,1.3-3.2,2.9-3.2s2.9,1.4,2.9,3.2H-9.2z"/>
		<path id="XMLID_1444_" class="st1" d="M-108.2,752c0-1.6,1.2-2.8,2.6-2.8s2.6,1.3,2.6,2.8H-108.2z"/>
		<path class="st1" d="M43.7,741.4h-8.4c-0.9,0-1.6-0.7-1.6-1.6c0-0.9,0.7-1.6,1.6-1.6h8.4c0.9,0,1.6,0.7,1.6,1.6
			C45.3,740.7,44.6,741.4,43.7,741.4z"/>
		<path class="st2" d="M38.5,750h15.7c1.1,0,1.9-0.9,1.9-1.9c0-1.1-0.9-1.9-1.9-1.9H38.5c-1.1,0-1.9,0.9-1.9,1.9S37.5,750,38.5,750z
			 M59.6,751.2H31.3c-1.4,0-2.6,1.2-2.6,2.6c0,0.8,0.3,1.4,0.8,1.9H16.9c-1.4,0-2.6,1.2-2.6,2.6c0,1.4,1.2,2.6,2.6,2.6h28.3
			c1.4,0,2.6-1.2,2.6-2.6c0-0.8-0.3-1.4-0.8-1.9h12.6c1.4,0,2.6-1.2,2.6-2.6C62.2,752.4,61.1,751.2,59.6,751.2L59.6,751.2z"/>
		<path id="XMLID_1443_" class="st1" d="M16,755.5c0-2.2,1.7-4,3.7-4s3.7,1.8,3.7,4H16z"/>
		<path id="XMLID_1442_" class="st0" d="M-89.8,760.5c0-2.2,1.6-3.9,3.6-3.9s3.6,1.8,3.6,3.9C-82.6,760.5-89.8,760.5-89.8,760.5z"/>
		<path id="XMLID_1441_" class="st0" d="M-87.8,753.3c0-2.2,1.6-3.9,3.6-3.9s3.6,1.8,3.6,3.9H-87.8z"/>
		<path id="XMLID_1440_" class="st0" d="M-91.5,753.3c0-1.6,1.2-2.9,2.7-2.9s2.7,1.3,2.7,2.9H-91.5z"/>
		<path id="XMLID_1439_" class="st0" d="M-13.6,758c0-2.2,1.7-4,3.7-4s3.7,1.8,3.7,4C-6.2,758-13.6,758-13.6,758z"/>
		<path id="XMLID_1438_" class="st0" d="M-17.4,758c0-1.6,1.2-3,2.7-3s2.7,1.3,2.7,3C-12,758-17.4,758-17.4,758z"/>
		<path id="XMLID_218_" class="st0" d="M-32.5,758.8c0-2.6,1.9-4.7,4.3-4.7s4.3,2.1,4.3,4.7"/>
	</g>
	<path class="st6" d="M164.4,699.2c0.6,0,1.2-0.5,1.2-1.1v-7.6c0-0.6,0.5-1.2,1.2-1.1h6.1c1.9,0,3.5-1.5,3.5-3.4v-3.7
		c0-0.6,0.5-1.2,1.2-1.1h4.1c0.6,0,1.2-0.5,1.2-1.1s-0.5-1.2-1.1-1.2h-4.1c-1.9,0-3.5,1.5-3.5,3.4v3.7c0,0.6-0.5,1.2-1.2,1.1h-6.1
		c-1.9,0-3.5,1.5-3.5,3.4v7.6C163.2,698.7,163.7,699.2,164.4,699.2L164.4,699.2z"/>
	<path class="st6" d="M173.7,694.7h3.5c1.9,0,3.5-1.5,3.5-3.4v-2.9c0-0.6-0.5-1.2-1.1-1.2s-1.2,0.5-1.2,1.1v2.9
		c0,0.6-0.5,1.2-1.2,1.1h-3.5c-0.6,0-1.2-0.5-1.2-1.2v-2.4c0-0.6-0.5-1.2-1.1-1.2s-1.2,0.5-1.2,1.1v2.4
		C170.2,693.1,171.8,694.7,173.7,694.7L173.7,694.7z M151.2,699.2c0.6,0,1.2-0.5,1.2-1.1v-7.6c0-1.9-1.5-3.5-3.4-3.5h-6.1
		c-0.6,0-1.2-0.5-1.2-1.2v-3.7c0-1.9-1.5-3.5-3.4-3.5h-4.1c-0.6,0-1.2,0.5-1.2,1.1c0,0.6,0.5,1.2,1.1,1.2h4.1c0.6,0,1.2,0.5,1.1,1.2
		v3.7c0,1.9,1.5,3.5,3.4,3.5h6.1c0.6,0,1.2,0.5,1.1,1.2v7.6C150.1,698.7,150.6,699.2,151.2,699.2L151.2,699.2z"/>
	<path class="st6" d="M138.5,694.6h3.5c1.9,0,3.5-1.5,3.5-3.4v-2.4c0-0.6-0.5-1.2-1.1-1.2s-1.2,0.5-1.2,1.1v2.4
		c0,0.6-0.5,1.2-1.2,1.1h-3.5c-0.6,0-1.2-0.5-1.2-1.2v-2.9c0-0.6-0.5-1.2-1.1-1.2s-1.2,0.5-1.2,1.1v2.9
		C135,693.1,136.6,694.6,138.5,694.6z M140.3,683.4h5.8c1.9,0,3.5-1.5,3.5-3.4v-4.5c0-0.6-0.5-1.2-1.1-1.2s-1.2,0.5-1.2,1.1v4.5
		c0,0.6-0.5,1.2-1.2,1.1h-5.8c-0.6,0-1.2,0.5-1.2,1.1C139.2,682.9,139.7,683.4,140.3,683.4z"/>
	<path class="st18" d="M161.5,771.7h-8.3c-0.2,0-0.3-0.1-0.3-0.3s0.1-0.3,0.3-0.3h8.3c0.2,0,0.3,0.1,0.3,0.3
		S161.7,771.7,161.5,771.7z M161.5,767.2h-8.3c-0.2,0-0.3-0.1-0.3-0.3s0.1-0.3,0.3-0.3h8.3c0.2,0,0.3,0.1,0.3,0.3
		S161.7,767.2,161.5,767.2z M161.5,762.7h-8.3c-0.2,0-0.3-0.1-0.3-0.3s0.1-0.3,0.3-0.3h8.3c0.2,0,0.3,0.1,0.3,0.3
		S161.7,762.7,161.5,762.7z M161.5,758.2h-8.3c-0.2,0-0.3-0.1-0.3-0.3s0.1-0.3,0.3-0.3h8.3c0.2,0,0.3,0.1,0.3,0.3
		S161.7,758.2,161.5,758.2z M161.5,753.7h-8.3c-0.2,0-0.3-0.1-0.3-0.3s0.1-0.3,0.3-0.3h8.3c0.2,0,0.3,0.1,0.3,0.3
		S161.7,753.7,161.5,753.7z M161.5,749.2h-8.3c-0.2,0-0.3-0.1-0.3-0.3s0.1-0.3,0.3-0.3h8.3c0.2,0,0.3,0.1,0.3,0.3
		S161.7,749.2,161.5,749.2z M161.6,744.7h-8.3c-0.2,0-0.3-0.1-0.3-0.3s0.1-0.3,0.3-0.3h8.3c0.2,0,0.3,0.1,0.3,0.3
		C161.8,744.6,161.7,744.7,161.6,744.7z M161.6,740.2h-8.3c-0.2,0-0.3-0.1-0.3-0.3s0.1-0.3,0.3-0.3h8.3c0.2,0,0.3,0.1,0.3,0.3
		S161.7,740.2,161.6,740.2z M161.6,735.7h-8.3c-0.2,0-0.3-0.1-0.3-0.3s0.1-0.3,0.3-0.3h8.3c0.2,0,0.3,0.1,0.3,0.3
		S161.7,735.7,161.6,735.7z"/>
	<path class="st18" d="M161.7,775.4c-0.2,0-0.3-0.1-0.3-0.3l0.1-45.9c0-0.2,0.1-0.3,0.3-0.3s0.3,0.1,0.3,0.3l-0.1,45.9
		C162,775.3,161.8,775.4,161.7,775.4z M153.2,775.4c-0.2,0-0.3-0.1-0.3-0.3l0.1-45.9c0-0.2,0.1-0.3,0.3-0.3s0.3,0.1,0.3,0.3
		l-0.1,45.9C153.5,775.3,153.4,775.4,153.2,775.4z"/>
	<path class="st18" d="M161.6,731.2h-8.3c-0.2,0-0.3-0.1-0.3-0.3s0.1-0.3,0.3-0.3h8.3c0.2,0,0.3,0.1,0.3,0.3
		S161.7,731.2,161.6,731.2z M194.8,771.8h-8.3c-0.2,0-0.3-0.1-0.3-0.3c0-0.2,0.1-0.3,0.3-0.3h8.3c0.2,0,0.3,0.1,0.3,0.3
		C195.1,771.6,195,771.8,194.8,771.8z M194.8,767.3h-8.3c-0.2,0-0.3-0.1-0.3-0.3c0-0.2,0.1-0.3,0.3-0.3h8.3c0.2,0,0.3,0.1,0.3,0.3
		C195.1,767.1,195,767.3,194.8,767.3z M194.8,762.7h-8.3c-0.2,0-0.3-0.1-0.3-0.3s0.1-0.3,0.3-0.3h8.3c0.2,0,0.3,0.1,0.3,0.3
		S195,762.7,194.8,762.7z M194.8,758.2h-8.3c-0.2,0-0.3-0.1-0.3-0.3s0.1-0.3,0.3-0.3h8.3c0.2,0,0.3,0.1,0.3,0.3
		S195,758.2,194.8,758.2z"/>
	<path class="st18" d="M195,775.5c-0.2,0-0.3-0.1-0.3-0.3v-18.9c0-0.2,0.1-0.3,0.3-0.3c0.2,0,0.3,0.1,0.3,0.3v18.9
		C195.3,775.3,195.1,775.5,195,775.5z M186.5,775.5c-0.2,0-0.3-0.1-0.3-0.3v-18.9c0-0.2,0.1-0.3,0.3-0.3c0.2,0,0.3,0.1,0.3,0.3v18.9
		C186.8,775.3,186.7,775.5,186.5,775.5z M149.2,739.8h-9.6c-0.3,0-0.6-0.3-0.6-0.6c0-0.3,0.3-0.6,0.6-0.6h9.6c0.3,0,0.6,0.3,0.6,0.6
		C149.8,739.5,149.5,739.8,149.2,739.8z"/>
	<path class="st6" d="M198.4,749.3h2v25.9h-2V749.3z M181.3,739.1h2v36h-2V739.1z"/>
	<path class="st18" d="M217.1,761c-0.4,0-0.8-0.1-1.2-0.4l-52.1-36c-1-0.7-1.2-2-0.5-2.9c0.7-1,2-1.2,2.9-0.5l52.1,36
		c1,0.7,1.2,2,0.5,2.9C218.4,760.7,217.8,761,217.1,761L217.1,761z"/>
	<path class="st6" d="M164.8,725.2l52.2,36l-1.1,1.6l-52.2-36.1L164.8,725.2z"/>
	<path class="st19" d="M165.1,753.9h-14.7v-14.1h14.7V753.9z"/>
	<path class="st20" d="M135,747.6c0,0,4.8-4.3,7.2-5.5c0,0-2.1,3.6-0.7,5.3L135,747.6z"/>
	<path class="st21" d="M135.3,750.7c0,1.8,1.4,3.3,3.2,3.3s3.3-1.4,3.3-3.2s-1.4-3.3-3.2-3.3C136.8,747.4,135.4,748.9,135.3,750.7z"
		/>
	<path class="st21" d="M137,750.5l-3.1,0.9c-0.3,0-0.3,0.5,0.1,0.5h3.7L137,750.5z"/>
	<path class="st22" d="M137.1,747.8c0.5-0.2,1-0.4,1.5-0.4c1.8,0,3.2,1.5,3.2,3.3c0,0.8-0.3,1.5-0.8,2.1
		C138,751.9,137.3,749.1,137.1,747.8z"/>
	<path class="st21" d="M137.7,751.5l1.7-2.4c0,0,0.6,3.8-1.5,3.3L137.7,751.5z"/>
	<path class="st2" d="M134.9,748.3c0,0.2,0.2,0.4,0.4,0.4h6.5c0.2,0,0.4-0.2,0.4-0.4v-0.8c0-0.2-0.2-0.4-0.4-0.4h-6.5
		c-0.2,0-0.4,0.2-0.4,0.4V748.3z"/>
	<circle class="st22" cx="136.6" cy="750.2" r="0.6"/>
	<path class="st23" d="M135.4,761.7c0,1.8,1.4,3.3,3.2,3.3s3.3-1.4,3.3-3.2v-4.5c0-1.8-1.4-3.3-3.2-3.3s-3.3,1.4-3.3,3.2V761.7z"/>
	<path class="st20" d="M137,761.7c0,1.8-0.1,3.3,1.7,3.3s3.3-1.4,3.3-3.2v-4.5c0-1.8-1.4-3.3-3.2-3.3s-1.7,1.4-1.7,3.2L137,761.7z"
		/>
	<path class="st2" d="M136.7,763.1h-4v1.7l4,0.1"/>
	<path class="st20" d="M138.9,764.5c0-1.1-0.6-1.3-1.1-1.3h-2.4v1.7h2.8L138.9,764.5L138.9,764.5z"/>
	<path class="st22" d="M133,764.9v-2c-1.3-0.7-1.3-2.4-0.3-2.6c0,0-1.8-0.9-1.5,3.2C131.2,764.5,132.1,765.3,133,764.9z M142,761.7
		h-6.5v-1.6h6.5V761.7z"/>
	<path class="st24" d="M135.3,759.9h0.5v1.9h-0.5V759.9z"/>
	<circle class="st2" cx="142.7" cy="741.6" r="0.7"/>
	<path class="st20" d="M140.4,753.5h-1.6V745h1.6V753.5z"/>
	<circle class="st21" cx="139.6" cy="744.8" r="1"/>
	<path class="st9" d="M157.7,679.9l-1,3.1h-3.3l2.7,2l-1.1,3.1l2.7-1.9l2.7,1.9l-1-3.1l2.6-2h-3.3L157.7,679.9L157.7,679.9z"/>
	<path id="XMLID_222_" class="st4" d="M234.9,776.3c0,2.7-20.7,4.9-46.3,4.7c-25.6-0.1-46.3-2.4-46.3-5.1s20.7-4.9,46.3-4.7
		S234.9,773.6,234.9,776.3z"/>
	<path class="st6" d="M165.2,729.3h2v45.9h-2V729.3z M147.4,729.3h2v45.9h-2V729.3z"/>
	<path class="st25" d="M147.5,702.4h19.8v25.4h-19.8V702.4z"/>
	<path class="st6" d="M145.5,727.8h22.9v2h-22.9V727.8z"/>
	<path class="st25" d="M147.5,737.2h19.8v25.4h-19.8V737.2z"/>
	<path class="st6" d="M146.4,762.6l53.7,0.1v2l-53.7-0.1L146.4,762.6L146.4,762.6z M147.8,701.6l19.8,0.1l-9.9-15L147.8,701.6
		L147.8,701.6z"/>
	<circle class="st2" cx="163.9" cy="706.5" r="2"/>
	<circle class="st6" cx="163.6" cy="707.3" r="1.1"/>
	<circle class="st2" cx="151.1" cy="706.5" r="2"/>
	<circle class="st6" cx="151.4" cy="707.3" r="1.1"/>
	<path class="st26" d="M167.4,704.3h-19.8v-1.8h19.8V704.3z"/>
	<path class="st2" d="M168.5,702.6h-22c-0.6,0-1.2-0.5-1.2-1.2c0-0.6,0.5-1.2,1.2-1.2h22c0.6,0,1.2,0.5,1.2,1.2
		C169.7,702.1,169.1,702.6,168.5,702.6z"/>
	<path class="st4" d="M160.4,737.2h6.8v25.4h-6.8V737.2z M160.5,703.2h6.8v25.4h-6.8V703.2z"/>
	<path class="st6" d="M232.5,764.3h2v10.9h-2V764.3z M214.6,764.3h2v10.9h-2V764.3z"/>
	<path class="st6" d="M213.7,762.8h22v2h-22V762.8z"/>
	<path class="st2" d="M168.4,738.1h-22c-0.6,0-1.2-0.5-1.2-1.2c0-0.6,0.5-1.2,1.2-1.2h22c0.6,0,1.2,0.5,1.2,1.2
		C169.6,737.6,169.1,738.1,168.4,738.1z"/>
	<path class="st18" d="M139.6,745.1c-0.1,0-0.2-0.1-0.2-0.2v-6.2c0-0.1,0.1-0.2,0.2-0.2s0.2,0.1,0.2,0.2v6.2
		C139.9,745,139.8,745.1,139.6,745.1L139.6,745.1z"/>
	<path class="st27" d="M224.8,768.2c-0.2,0-0.3-0.2-0.3-0.3c0-0.2,0.1-0.4,0.3-0.4h0.1c0.2,0,0.3,0.2,0.3,0.3s-0.2,0.3-0.3,0.3
		L224.8,768.2z M223.9,768.1C223.9,768.1,223.8,768.1,223.9,768.1h-0.1c-0.2,0-0.3-0.2-0.3-0.4s0.2-0.3,0.4-0.3h0.1
		c0.2,0,0.3,0.2,0.3,0.4C224.2,768,224,768.1,223.9,768.1z M225.8,768.1c-0.2,0-0.3-0.1-0.3-0.3c0-0.2,0.1-0.4,0.3-0.4h0.1
		c0.2,0,0.4,0.1,0.4,0.3s-0.1,0.4-0.3,0.4H225.8C225.9,768.1,225.8,768.1,225.8,768.1z M222.8,768.1h-0.2c-0.2,0-0.3-0.2-0.3-0.4
		s0.2-0.3,0.4-0.3h0.1c0.2,0,0.3,0.2,0.3,0.4C223.1,767.9,223,768.1,222.8,768.1z M226.9,768c-0.2,0-0.3-0.1-0.3-0.3
		s0.1-0.4,0.3-0.4h0.1c0.2,0,0.4,0.1,0.4,0.3c0,0.2-0.1,0.4-0.3,0.4H226.9z M221.8,767.9C221.8,767.9,221.7,767.9,221.8,767.9h-0.2
		c-0.2,0-0.3-0.2-0.3-0.4s0.2-0.3,0.4-0.3h0.1c0.2,0,0.3,0.2,0.3,0.4C222.1,767.8,221.9,767.9,221.8,767.9z M227.9,767.8
		c-0.2,0-0.3-0.1-0.3-0.3s0.1-0.4,0.3-0.4h0.1c0.2-0.1,0.4,0.1,0.4,0.3c0,0.2-0.1,0.4-0.3,0.4H227.9
		C228,767.8,227.9,767.8,227.9,767.8z M220.8,767.6C220.7,767.6,220.7,767.6,220.8,767.6h-0.2c-0.2-0.1-0.3-0.2-0.2-0.4
		c0.1-0.2,0.2-0.3,0.4-0.2h0.1c0.2,0,0.3,0.2,0.3,0.4C221.1,767.5,220.9,767.6,220.8,767.6L220.8,767.6z M228.9,767.5
		c-0.2,0-0.3-0.1-0.3-0.3c-0.1-0.2,0.1-0.4,0.2-0.4h0.1c0.2,0,0.4,0.1,0.4,0.3s-0.1,0.4-0.3,0.4H228.9
		C229,767.5,229,767.5,228.9,767.5L228.9,767.5z M219.8,767.3h-0.2c-0.2-0.1-0.3-0.3-0.2-0.5c0.1-0.2,0.3-0.3,0.5-0.2h0.1
		c0.2,0.1,0.3,0.3,0.2,0.5C220,767.2,219.9,767.3,219.8,767.3z M229.9,767.2c-0.1,0-0.3-0.1-0.3-0.2c-0.1-0.2,0-0.4,0.2-0.4h0.1
		c0.2-0.1,0.4,0,0.4,0.2c0.1,0.2,0,0.4-0.2,0.4H229.9z M218.8,766.9h-0.1l-0.1-0.1c-0.2-0.1-0.2-0.3-0.2-0.5c0-0.2,0.3-0.2,0.5-0.2
		h0.1c0.2,0.1,0.3,0.3,0.2,0.5C219.1,766.8,218.9,766.9,218.8,766.9L218.8,766.9z M230.9,766.9c-0.1,0-0.3-0.1-0.3-0.2
		c-0.1-0.2,0-0.4,0.2-0.5h0.1c0.2-0.1,0.4,0,0.5,0.2s0,0.4-0.2,0.5h-0.1C231,766.8,230.9,766.9,230.9,766.9z M217.9,766.4h-0.2
		l-0.1-0.1c-0.2-0.1-0.2-0.3-0.1-0.5c0.1-0.2,0.3-0.2,0.5-0.1l0.1,0.1c0.2,0.1,0.2,0.3,0.1,0.5C218.1,766.4,218,766.4,217.9,766.4z
		 M231.8,766.4c-0.1,0-0.2-0.1-0.3-0.2c-0.1-0.2,0-0.4,0.1-0.5l0.1-0.1c0.2-0.1,0.4,0,0.5,0.1c0.1,0.2,0,0.4-0.1,0.5l-0.1,0.2H231.8
		z M232.7,765.9c-0.1,0-0.2-0.1-0.3-0.2c-0.1-0.2-0.1-0.4,0.1-0.5l0.1-0.1c0.2-0.1,0.4-0.1,0.5,0.1s0.1,0.4-0.1,0.5l-0.1,0.1
		C232.9,765.8,232.8,765.9,232.7,765.9z M217,765.8c-0.1,0-0.1,0-0.2-0.1l-0.1-0.1c-0.2-0.1-0.2-0.3-0.1-0.5
		c0.1-0.2,0.3-0.2,0.5-0.1l0.1,0.1c0.2,0.1,0.2,0.3,0.1,0.5C217.2,765.8,217.1,765.8,217,765.8z M216.2,765.2c-0.1,0-0.2,0-0.2-0.1
		l-0.1-0.1c-0.1-0.1-0.1-0.4,0-0.5s0.4-0.2,0.5,0l0.1,0.1c0.1,0.1,0.2,0.3,0,0.5C216.4,765.1,216.3,765.2,216.2,765.2z"/>
	<circle class="st28" cx="157.6" cy="714.6" r="4.3"/>
	<path class="st2" d="M157.5,725.8c-1.6,0-3.2-0.6-4.3-1.8c-1.2-1.2-1.8-2.7-1.8-4.3h0.3c0,1.5,0.6,3,1.7,4.1s2.5,1.7,4.1,1.7
		c1.5,0,3-0.6,4.1-1.7s1.7-2.5,1.7-4.1h0.3c0,1.6-0.6,3.2-1.8,4.3C160.7,725.2,159.2,725.8,157.5,725.8z"/>
	<circle class="st2" cx="163.8" cy="741.8" r="2"/>
	<circle class="st6" cx="164.3" cy="741.3" r="1.1"/>
	<circle class="st2" cx="151.1" cy="741.8" r="2"/>
	<circle class="st6" cx="151.9" cy="741.4" r="1.1"/>
	<path class="st2" d="M157.5,761.1c-1.6,0-3.2-0.6-4.3-1.8c-1.2-1.2-1.8-2.7-1.8-4.3h0.3c0,1.5,0.6,3,1.7,4.1s2.5,1.7,4.1,1.7
		c1.5,0,3-0.6,4.1-1.7s1.7-2.5,1.7-4.1h0.3c0,1.6-0.6,3.2-1.8,4.3S159.1,761.1,157.5,761.1z"/>
	<circle class="st28" cx="157.4" cy="749.8" r="4.3"/>
	<path class="st6" d="M117.5,669.1c-0.6,0-1-0.5-1-1v-6.9c0-0.6-0.5-1-1-1H110c-1.7,0-3.1-1.4-3.1-3.1v-5.4c0-0.6,0.5-1,1-1
		c0.6,0,1,0.5,1,1v5.4c0,0.6,0.5,1,1,1h5.5c1.7,0,3.1,1.4,3.1,3.1v6.9C118.6,668.6,118.1,669.1,117.5,669.1z"/>
	<path class="st6" d="M109.1,664.9H106c-1.7,0-3.1-1.4-3.1-3.1v-2.7c0-0.6,0.5-1,1-1c0.6,0,1,0.5,1,1v2.7c0,0.6,0.5,1,1,1h3.1
		c0.6,0,1-0.5,1-1v-2.2c0-0.6,0.5-1,1-1c0.6,0,1,0.5,1,1v2.2C112.3,663.5,110.9,664.9,109.1,664.9z M113.3,655.7h-5.2
		c-0.6,0-1-0.5-1-1s0.5-1,1-1h5.2c0.6,0,1-0.5,1-1v-2.2c0-0.6,0.5-1,1-1s1,0.5,1,1v2.2C116.4,654.3,115,655.7,113.3,655.7z
		 M128.8,669.1c-0.6,0-1-0.5-1-1v-6.9c0-1.7,1.4-3.1,3.1-3.1h5.5c0.6,0,1-0.5,1-1v-5.4c0-0.6,0.5-1,1-1c0.6,0,1,0.5,1,1v5.4
		c0,1.7-1.4,3.1-3.1,3.1h-5.5c-0.6,0-1,0.5-1,1v6.9C129.9,668.6,129.4,669.1,128.8,669.1z"/>
	<path class="st6" d="M140.4,665h-3.1c-1.7,0-3.1-1.4-3.1-3.1v-2.2c0-0.6,0.5-1,1-1c0.6,0,1,0.5,1,1v2.2c0,0.6,0.5,1,1,1h3.1
		c0.6,0,1-0.5,1-1v-2.7c0-0.6,0.5-1,1-1c0.6,0,1,0.5,1,1v2.7C143.5,663.6,142.1,665,140.4,665L140.4,665z"/>
	<path class="st18" d="M101.4,734.4h-7.5c-0.1,0-0.3-0.1-0.3-0.3c0-0.1,0.1-0.3,0.3-0.3h7.5c0.1,0,0.3,0.1,0.3,0.3
		C101.6,734.3,101.5,734.4,101.4,734.4z M101.4,730.3h-7.5c-0.1,0-0.3-0.1-0.3-0.3c0-0.1,0.1-0.3,0.3-0.3h7.5c0.1,0,0.3,0.1,0.3,0.3
		C101.7,730.2,101.5,730.3,101.4,730.3z M101.4,726.3h-7.5c-0.1,0-0.3-0.1-0.3-0.3c0-0.1,0.1-0.3,0.3-0.3h7.5c0.1,0,0.3,0.1,0.3,0.3
		C101.7,726.2,101.5,726.3,101.4,726.3z M101.4,722.2h-7.5c-0.1,0-0.3-0.1-0.3-0.3c0-0.1,0.1-0.3,0.3-0.3h7.5c0.1,0,0.3,0.1,0.3,0.3
		S101.5,722.2,101.4,722.2z M101.4,718.1h-7.5c-0.1,0-0.3-0.1-0.3-0.3c0-0.1,0.1-0.3,0.3-0.3h7.5c0.1,0,0.3,0.1,0.3,0.3
		C101.7,718,101.6,718.1,101.4,718.1z M101.4,714.1h-7.5c-0.1,0-0.3-0.1-0.3-0.3c0-0.1,0.1-0.3,0.3-0.3h7.5c0.1,0,0.3,0.1,0.3,0.3
		C101.7,713.9,101.6,714.1,101.4,714.1z M101.4,710h-7.5c-0.1,0-0.3-0.1-0.3-0.3c0-0.1,0.1-0.3,0.3-0.3h7.5c0.1,0,0.3,0.1,0.3,0.3
		S101.6,710,101.4,710z M101.4,705.9h-7.5c-0.1,0-0.3-0.1-0.3-0.3c0-0.1,0.1-0.3,0.3-0.3h7.5c0.1,0,0.3,0.1,0.3,0.3
		C101.7,705.8,101.6,705.9,101.4,705.9z M101.4,701.9h-7.5c-0.1,0-0.3-0.1-0.3-0.3c0-0.1,0.1-0.3,0.3-0.3h7.5c0.1,0,0.3,0.1,0.3,0.3
		C101.7,701.7,101.6,701.9,101.4,701.9z"/>
	<path class="st18" d="M93.7,737.8c-0.1,0-0.3-0.1-0.3-0.3l0.1-41.5c0-0.1,0.1-0.3,0.3-0.3c0.1,0,0.3,0.1,0.3,0.3L94,737.5
		C94,737.6,93.9,737.8,93.7,737.8z M101.4,737.8c-0.1,0-0.3-0.1-0.3-0.3l0.1-41.5c0-0.1,0.1-0.3,0.3-0.3c0.1,0,0.3,0.1,0.3,0.3
		l-0.1,41.5C101.7,737.7,101.5,737.8,101.4,737.8z"/>
	<path class="st18" d="M101.4,697.8h-7.5c-0.1,0-0.3-0.1-0.3-0.3c0-0.1,0.1-0.3,0.3-0.3h7.5c0.1,0,0.3,0.1,0.3,0.3
		C101.7,697.7,101.6,697.8,101.4,697.8z M89.5,705.6h-3.4c-0.3,0-0.5-0.2-0.5-0.5c0-0.3,0.2-0.5,0.5-0.5h3.4c0.3,0,0.5,0.2,0.5,0.5
		C90,705.3,89.8,705.6,89.5,705.6z"/>
	<path class="st2" d="M139.5,720.3l2.2,2.8l-1.2,0.9l-2.2-2.8"/>
	<circle class="st2" cx="120.9" cy="708.4" r="0.6"/>
	<path class="st29" d="M137.8,680.9c0,0-0.4-4.7-1.1-6.5c0,0-0.7,3-2.3,3.2L137.8,680.9L137.8,680.9z"/>
	<path class="st30" d="M136.7,674.4c0,0,0,3.7-1.5,3.9l2.6,2.7l-3.3-3.4C136,677.3,136.7,674.4,136.7,674.4z"/>
	<path class="st21" d="M136.1,682.3c-0.9,1-2.4,1-3.4,0.1s-1-2.4-0.1-3.4s2.4-1,3.4-0.1C136.9,679.9,137,681.4,136.1,682.3z"/>
	<path class="st22" d="M136.6,679.9c-0.1-0.4-0.3-0.7-0.6-1c-1-0.9-2.5-0.8-3.4,0.1c-0.4,0.4-0.6,1-0.6,1.5
		C134,681.7,135.8,680.5,136.6,679.9z"/>
	<path class="st21" d="M134.4,681.6l0.3-2.2c0,0-2.2,1.7-0.9,2.5L134.4,681.6L134.4,681.6z"/>
	<path class="st2" d="M137.5,681.3c-0.1,0.1-0.3,0.1-0.4,0l-3.5-3.2c-0.1-0.1-0.1-0.3,0-0.4l0.4-0.4c0.1-0.1,0.3-0.1,0.4,0l3.5,3.2
		c0.1,0.1,0.1,0.3,0,0.4L137.5,681.3z"/>
	<circle class="st22" cx="135.7" cy="681.5" r="0.4"/>
	<circle class="st2" cx="136.7" cy="673.8" r="0.5"/>
	<path class="st21" d="M135.9,682l1.2,2c0.2,0.2-0.1,0.4-0.3,0.2l-2-1.8L135.9,682L135.9,682z"/>
	<path class="st6" d="M84.6,694.7l48.9,0.1v1.8l-48.9-0.1V694.7z"/>
	<path class="st31" d="M116.6,674.5h13.3v12.8h-13.3V674.5z"/>
	<path class="st9" d="M123.4,651.4l0.9,2.9h3l-2.4,1.7l0.9,2.9l-2.4-1.8l-2.5,1.8l1-2.9l-2.4-1.7h2.9L123.4,651.4z"/>
	<path class="st25" d="M132.5,694.8h-17.9v-23h17.9V694.8z"/>
	<path class="st4" d="M132.5,695.4h-6.1v-23h6.1V695.4z"/>
	<path class="st6" d="M132.3,671.1h-17.9l9-13.5L132.3,671.1z"/>
	<path class="st26" d="M114.6,671.8h17.9v1.7h-17.9V671.8z"/>
	<path class="st2" d="M133.5,672h-19.9c-0.6,0-1.1-0.5-1.1-1.1c0-0.6,0.5-1.1,1.1-1.1h19.9c0.6,0,1.1,0.5,1.1,1.1
		C134.5,671.5,134,672,133.5,672z"/>
	<path class="st6" d="M88.6,696h1.8v41.5h-1.8V696z M104.7,696.1h1.8v41.5h-1.8V696.1z"/>
	<path id="XMLID_221_" class="st4" d="M152.3,738.9c0,2.7-16.4,4.9-36.7,4.8s-36.7-2.4-36.7-5.1c0-2.7,16.4-4.9,36.7-4.8
		C135.9,733.9,152.3,736.2,152.3,738.9z"/>
	<path class="st6" d="M114.9,695.7h1.8v41.9h-1.8V695.7z M132.2,695.7h1.8v41.9h-1.8V695.7z"/>
	<path class="st25" d="M106.4,726.2H88.5v-23h17.9V726.2z"/>
	<path class="st6" d="M87.5,726.1h19.9v1.8H87.5V726.1z"/>
	<path class="st4" d="M106.4,726.2h-6.1v-23h6.1V726.2z"/>
	<path class="st2" d="M107.4,704.1H87.5c-0.6,0-1.1-0.5-1.1-1.1s0.5-1.1,1.1-1.1h19.9c0.6,0,1.1,0.5,1.1,1.1
		C108.4,703.6,108,704.1,107.4,704.1z"/>
	<path class="st6" d="M130.1,695.2l0.9,1.5l-14.4,8.8l-0.9-1.5L130.1,695.2z"/>
	<circle class="st2" cx="117.9" cy="675.5" r="1.8"/>
	<circle class="st6" cx="118.7" cy="675.9" r="1"/>
	<circle class="st2" cx="129.4" cy="675.5" r="1.8"/>
	<circle class="st6" cx="130.1" cy="676" r="1"/>
	<circle class="st28" cx="123.7" cy="682.8" r="3.9"/>
	<path class="st2" d="M123.7,692.9c-1.5,0-2.9-0.6-3.9-1.6s-1.6-2.4-1.6-3.9h0.3c0,1.4,0.5,2.7,1.5,3.7s2.3,1.5,3.7,1.5
		c2.9,0,5.2-2.3,5.2-5.2h0.3c0,1.5-0.6,2.9-1.6,3.9C126.6,692.4,125.2,692.9,123.7,692.9z"/>
	<circle class="st2" cx="91.7" cy="707.4" r="1.8"/>
	<circle class="st6" cx="92.1" cy="706.7" r="1"/>
	<circle class="st2" cx="103.3" cy="707.4" r="1.8"/>
	<circle class="st6" cx="103.3" cy="706.6" r="1"/>
	<path class="st2" d="M97.4,724.8c-3.1,0-5.5-2.5-5.5-5.5h0.3c0,2.9,2.3,5.2,5.2,5.2s5.2-2.3,5.2-5.2h0.3
		C103,722.3,100.5,724.8,97.4,724.8z"/>
	<circle class="st28" cx="97.5" cy="714.6" r="3.9"/>
	<path id="XMLID_220_" class="st4" d="M104.4,769.2c0,1.8-14.1,3.3-31.4,3.2s-31.4-1.6-31.4-3.5c0-1.8,14.1-3.3,31.4-3.2
		C90.4,765.8,104.4,767.3,104.4,769.2z"/>
	<path class="st6" d="M85.1,768.9h-24l12-18.1L85.1,768.9z"/>
	<g id="New_Symbol_13_1_">
		<ellipse class="st32" cx="-87.3" cy="775.6" rx="17.9" ry="1.4"/>
		<g id="XMLID_1210_">
			<path id="XMLID_1214_" class="st33" d="M-91.5,762.7h3v12.8h-3V762.7z"/>
			<path id="XMLID_1212_" class="st34" d="M-90,728.8l-12.8,40.3h25.5L-90,728.8z"/>
			<path id="XMLID_1211_" class="st4" d="M-91.5,769.1h2.9v1.5l-2.9-1V769.1z"/>
		</g>
		<g id="XMLID_1200_">
			<path id="XMLID_1209_" class="st35" d="M-99.6,767.8h2v7.9h-2V767.8z"/>
			<path id="XMLID_1208_" class="st36" d="M-98.6,746.2l-8.6,27.1h17.1L-98.6,746.2z"/>
			<g id="XMLID_1205_">
				<g id="XMLID_1207_">
					<path class="st37" d="M-94.8,758.3l-3.8,3.8l-3.8-3.8l0.4-1.5l3.4,3.4l3.3-3.4L-94.8,758.3z"/>
					<path class="st37" d="M-93.3,762.9l-5.3,5.3l-5.3-5.3l0.5-1.5l4.8,4.8l4.8-4.8L-93.3,762.9z"/>
					<path class="st37" d="M-91.9,767.6l-5.7,5.7h-2l-5.8-5.7l0.5-1.6l6.3,6.3l6.3-6.2L-91.9,767.6L-91.9,767.6z"/>
				</g>
				<path id="XMLID_1206_" class="st37" d="M-97.7,749.1l-0.9,0.9l-0.9-0.9l0.5-1.5l0.4,0.4l0.4-0.4L-97.7,749.1z M-96.2,753.7
					l-2.4,2.4l-2.4-2.4l0.5-1.5l1.9,1.9l1.9-1.9C-96.7,752.2-96.2,753.7-96.2,753.7z"/>
			</g>
			<path id="XMLID_1202_" class="st4" d="M-99.6,773.3h2v1.4l-2-0.9V773.3z"/>
		</g>
		<g id="XMLID_1190_">
			<path id="XMLID_1199_" class="st35" d="M-81.9,763.7h2.8v12.1h-2.8V763.7z"/>
			<path id="XMLID_1197_" class="st38" d="M-80.4,733.5l-12.1,37.9h24L-80.4,733.5z"/>
			<path id="XMLID_1196_" class="st39" d="M-80.4,733.5l-12.1,37.9h24L-80.4,733.5z"/>
			<path id="XMLID_1195_" class="st4" d="M-81.9,771.4h2.8v1.9l-2.8-1.3C-81.9,772-81.9,771.4-81.9,771.4z"/>
			<g id="XMLID_1192_">
				<g id="XMLID_1194_">
					<path class="st40" d="M-75.2,750.1l-5.3,5.3l-5.2-5.3l0.5-1.5l4.7,4.8l4.8-4.8L-75.2,750.1z"/>
					<path class="st40" d="M-73.1,756.6l-7.4,7.3l-7.3-7.3l0.5-1.5l6.8,6.8l6.9-6.8L-73.1,756.6z"/>
					<path class="st40" d="M-71.1,763.1l-8.4,8.3h-2l-8.3-8.4l0.4-1.5l8.9,8.9l8.9-8.8L-71.1,763.1z"/>
				</g>
				<path id="XMLID_1193_" class="st40" d="M-79.3,737.2l-1.1,1.1l-1.2-1.2l0.5-1.5l0.7,0.7l0.7-0.7
					C-79.7,735.6-79.3,737.2-79.3,737.2z M-77.2,743.6l-3.2,3.2l-3.3-3.2l0.5-1.5l2.8,2.7l2.7-2.7L-77.2,743.6z"/>
			</g>
			<path id="XMLID_1191_" class="st41" d="M-80.4,733.5l-7,37.9h-5.1C-92.5,771.4-80.4,733.5-80.4,733.5z"/>
			<path class="st2" d="M-90.7,767.5h-9c-0.1,0-0.1,0.1-0.1,0.1c0,0.9,0.7,1.6,1.6,1.6c0.7,0,1.3-0.4,1.5-1c0.2,0.6,0.8,1,1.5,1
				c0.7,0,1.3-0.4,1.5-1c0.2,0.6,0.8,1,1.5,1C-91.3,769.2-90.6,768.5-90.7,767.5C-90.6,767.6-90.6,767.5-90.7,767.5z M-98.2,764.6
				c0.9,0,1.6-0.7,1.6-1.6c0-0.1-0.1-0.1-0.1-0.1h-9c-0.1,0-0.1,0.1-0.1,0.1c0,0.9,0.7,1.6,1.6,1.6c0.7,0,1.3-0.4,1.5-1
				c0.2,0.6,0.8,1,1.5,1c0.7,0,1.3-0.4,1.5-1C-99.5,764.1-98.9,764.6-98.2,764.6z M-99.7,756.9c0,0.9,0.7,1.6,1.6,1.6
				c0.7,0,1.3-0.4,1.5-1c0.2,0.6,0.8,1,1.5,1c0.9,0,1.6-0.7,1.6-1.6c0-0.1-0.1-0.1-0.1-0.1h-6C-99.7,756.7-99.7,756.8-99.7,756.9z
				 M-100.2,753.8c0.9,0,1.6-0.7,1.6-1.6c0-0.1-0.1-0.1-0.1-0.1h-3c-0.1,0-0.1,0.1-0.1,0.1C-101.8,753.1-101.1,753.8-100.2,753.8z
				 M-69.4,764.4H-82c-0.1,0-0.1,0.1-0.1,0.1c0,1.2,1,2.2,2.2,2.2c1,0,1.8-0.6,2.1-1.5c0.3,0.9,1.1,1.5,2.1,1.5s1.8-0.6,2.1-1.5
				c0.3,0.9,1.1,1.5,2.1,1.5c1.2,0,2.2-1,2.2-2.2C-69.2,764.5-69.3,764.4-69.4,764.4z M-79.8,760.6c1.2,0,2.2-1,2.2-2.2
				c0-0.1-0.1-0.1-0.1-0.1h-12.6c-0.1,0-0.1,0.1-0.1,0.1c0,1.2,1,2.2,2.2,2.2c1,0,1.8-0.6,2.1-1.5c0.3,0.9,1.1,1.5,2.1,1.5
				s1.8-0.6,2.1-1.5C-81.6,759.9-80.8,760.6-79.8,760.6z M-80.8,752.2c-0.1,0-0.1,0.1-0.1,0.1c0,1.2,1,2.2,2.2,2.2
				c1,0,1.8-0.6,2.1-1.5c0.3,0.9,1.1,1.5,2.1,1.5c1.2,0,2.2-1,2.2-2.2c0-0.1-0.1-0.1-0.1-0.1S-80.8,752.2-80.8,752.2z M-83.8,748.5
				c1,0,1.8-0.6,2.1-1.5c0.3,0.9,1.1,1.5,2.1,1.5c1.2,0,2.2-1,2.2-2.2c0-0.1-0.1-0.1-0.1-0.1h-8.4c-0.1,0-0.1,0.1-0.1,0.1
				C-86,747.5-85,748.5-83.8,748.5z M-78.7,743c1.2,0,2.2-1,2.2-2.2c0-0.1-0.1-0.1-0.1-0.1h-4.2c-0.1,0-0.1,0.1-0.1,0.1
				C-80.9,742-79.9,743-78.7,743z"/>
		</g>
	</g>
	<g>
		<path class="st42" d="M-44.1,759.8h1v13.5h-1V759.8z M-5.1,759.8h1v13.5h-1V759.8z"/>
		<ellipse class="st43" cx="-20.8" cy="773.8" rx="23.6" ry="1.8"/>
		<g id="XMLID_68_">
			<path class="st44" d="M-44.9,732.1h41.5v26.8h-41.5V732.1z"/>
			<path class="st42" d="M-2.4,759.8h-43.5v-28.7h43.5V759.8z M-43.9,757.8h39.5v-24.7h-39.5V757.8z"/>
		</g>
		<path class="st45" d="M-34.3,743.4l-0.8-0.6l2.4-3.6c0.2-0.3,0.4-0.6,0.5-0.9l0.4-1.4l0.5,1.4c0.5,1.3,1,2.7,1.5,4.1l0.2,0.6
			l-4.5,0.2v-0.1C-34.1,743.1-34.3,743.4-34.3,743.4z M-31.8,739.6l-0.1,0.1l-1.6,2.4l2.5-0.1C-31.3,741.2-31.5,740.4-31.8,739.6z
			 M-35.9,750.9h-3.4l0.7-0.8c0.7-0.8,1.3-1.7,1.7-2.7c0.1-0.2,0.2-0.4,0.4-0.6c0.3-0.2,0.6-0.2,0.8-0.2h0.5
			c1.1-0.1,2.2-0.1,3.3-0.1c1.2,0.1,1.7,0.6,2.3,1.5c0.5,0.7,1,1.3,1.6,2l0.7,0.8l-1,0.1H-35.9L-35.9,750.9z M-37.1,749.9
			c2.6,0,5.2,0,7.7-0.1c-0.3-0.4-0.7-0.8-1-1.2c-0.5-0.7-0.8-1-1.5-1.1c-1-0.1-2.1,0-3.2,0.1h-0.7c0,0-0.1,0.1-0.1,0.2
			C-36.3,748.6-36.7,749.3-37.1,749.9z M-26.4,743.7c-0.3,0-0.6,0-1-0.1c-0.7-0.2-1.2-0.6-1.4-1.2c-0.2-0.5-0.1-1.1,0.2-1.7
			c0.1-0.2,0.3-0.4,0.5-0.6c0.3-0.2,0.7-0.3,1-0.2v0.1c0.3,0.1,0.5,0.2,0.6,0.3c0.4,0.3,0.8,0.7,1.1,1c0.1,0.1,0.2,0.3,0.3,0.5
			c0.2,0.4,0.1,0.8,0.1,1.1c0,0.1,0,0.5-0.4,0.7c-0.2,0.1-0.3,0.1-0.4,0.1L-26.4,743.7L-26.4,743.7z M-27.3,740.8
			C-27.4,740.9-27.4,740.9-27.3,740.8l-0.3,0.3c-0.2,0.3-0.2,0.7-0.2,0.9c0.1,0.3,0.4,0.5,0.7,0.6c0.3,0.1,0.7,0.1,1.1,0.1v-0.5
			c0-0.1-0.1-0.2-0.2-0.2l-0.9-0.9C-27.2,740.9-27.3,740.9-27.3,740.8z M-12.3,740.4c-0.5,0-1-0.2-1.4-0.4c-0.2-0.1-0.4-0.2-0.7-0.3
			c-0.6-0.2-1.3,0-2.1,0.1l-0.3,0.1c-0.9,0.2-2,0.3-2.9-0.3c-0.1,0-0.1-0.1-0.2-0.1c-0.1-0.1-0.2-0.1-0.2-0.2
			c-0.3-0.1-0.7-0.1-0.9,0.1c-0.4,0.2-0.7,0.5-1,0.9l-0.7-0.7c0.3-0.4,0.7-0.8,1.2-1.1c0.6-0.3,1.3-0.4,1.9-0.1
			c0.1,0.1,0.3,0.2,0.4,0.2s0.1,0.1,0.2,0.1c0.6,0.4,1.4,0.3,2.2,0.1l0.2-0.1c0.8-0.2,1.7-0.4,2.6-0.1c0.3,0.1,0.6,0.2,0.8,0.3
			c0.4,0.2,0.7,0.3,1,0.3L-12.3,740.4C-12.2,740.4-12.2,740.4-12.3,740.4z M-22.7,742.8l-0.1-1c3.2-0.3,6.4-0.4,9.6-0.4v1
			C-16.3,742.4-19.5,742.5-22.7,742.8z M-18.4,753v-0.3H-23l0.1-5.4h1l-0.1,4.4h4.5v0.3h0.8c0-1.6,0-3.1,0.1-4.7
			c-1.9,0-3.9,0-5.8-0.1v-1c2.1,0.1,4.2,0.1,6.3,0.1h0.6l-0.1,0.6c-0.2,1.9-0.2,3.7-0.2,5.6v0.5H-18.4L-18.4,753z"/>
		<path class="st45" d="M-28.9,747.6c-2.8,0-5.6-0.1-8.3-0.4l-1.1-0.1l0.8-0.8c1.1-1.1,2.1-2.4,2.9-3.8l0.9,0.5
			c-0.6,1.2-1.4,2.3-2.3,3.3c2.3,0.2,4.7,0.3,7,0.3c-0.2-0.4-0.4-0.7-0.7-1.1c-0.7-1.1-1.4-2.2-1.6-3.6l1-0.1
			c0.1,1.1,0.7,2.1,1.4,3.2c0.4,0.6,0.8,1.2,1.1,1.9l0.3,0.7C-27.5,747.6-28.9,747.6-28.9,747.6z"/>
		<path class="st46" d="M-3.1,749.8c0,0,5-4.6,7.6-5.9c0,0-2.2,3.9-0.7,5.6L-3.1,749.8z"/>
		<path class="st47" d="M-2.7,753c0,1.9,1.5,3.4,3.4,3.4s3.4-1.5,3.4-3.4s-1.5-3.4-3.4-3.4S-2.7,751.1-2.7,753z"/>
		<path class="st22" d="M-0.9,749.9c0.5-0.3,1-0.4,1.6-0.4c1.9,0,3.4,1.5,3.4,3.4c0,0.8-0.3,1.6-0.8,2.2
			C0.1,754.3-0.7,751.4-0.9,749.9z"/>
		<path class="st47" d="M-0.2,753.9l1.8-2.6c0,0,0.7,4-1.6,3.5C0,754.8-0.2,753.9-0.2,753.9z"/>
		<path class="st2" d="M-3.2,750.6c0,0.3,0.2,0.5,0.5,0.5h6.9c0.3,0,0.5-0.2,0.5-0.5v-0.8c0-0.3-0.2-0.5-0.5-0.5h-6.9
			c-0.3,0-0.5,0.2-0.5,0.5V750.6z"/>
		<circle class="st22" cx="-1.4" cy="752.5" r="0.6"/>
		<path class="st46" d="M-2.5,764.7c0,1.9,1.5,3.4,3.4,3.4s3.4-1.5,3.4-3.4v-4.8c0-1.9-1.5-3.4-3.4-3.4s-3.4,1.5-3.4,3.4V764.7z"/>
		<path class="st2" d="M0.2,768.4v4.3H2v-4.3"/>
		<path class="st46" d="M1.6,766.1c-1.2,0-1.4,0.6-1.4,1.2v2.6H2V767L1.6,766.1L1.6,766.1z"/>
		<path class="st22" d="M2.1,772.4H0c-0.7,1.4-2.5,1.4-2.7,0.4c0,0-1,1.9,3.4,1.6C1.6,774.3,2.5,773.3,2.1,772.4z M-2.5,762.9h6.9
			v1.7h-6.9V762.9z"/>
		<path class="st48" d="M-2.7,762.8h0.5v2h-0.5V762.8z"/>
		<circle class="st2" cx="5" cy="743.4" r="0.7"/>
		<circle class="st47" cx="0.9" cy="763.2" r="1.3"/>
		<path class="st47" d="M-2.2,752.8l-3.2,0.9c-0.4,0-0.4,0.5,0.2,0.5h3.9L-2.2,752.8z"/>
		<path class="st49" d="M12.8,749.8c0,0,5-4.6,7.6-5.9c0,0-2.2,3.9-0.7,5.6L12.8,749.8z"/>
		<path class="st47" d="M13.2,753c0,1.9,1.5,3.4,3.4,3.4s3.4-1.5,3.4-3.4s-1.5-3.4-3.4-3.4S13.2,751.1,13.2,753z"/>
		<path class="st22" d="M15,749.9c0.5-0.3,1-0.4,1.6-0.4c1.9,0,3.4,1.5,3.4,3.4c0,0.8-0.3,1.6-0.8,2.2C16,754.3,15.2,751.4,15,749.9
			z"/>
		<path class="st47" d="M15.7,753.9l1.8-2.6c0,0,0.7,4-1.6,3.5C15.9,754.8,15.7,753.9,15.7,753.9z"/>
		<path class="st2" d="M12.7,750.6c0,0.3,0.2,0.5,0.5,0.5h6.9c0.3,0,0.5-0.2,0.5-0.5v-0.8c0-0.3-0.2-0.5-0.5-0.5h-6.9
			c-0.3,0-0.5,0.2-0.5,0.5V750.6z"/>
		<circle class="st22" cx="14.5" cy="752.5" r="0.6"/>
		<path class="st49" d="M13.4,764.7c0,1.9,1.5,3.4,3.4,3.4s3.4-1.5,3.4-3.4v-4.8c0-1.9-1.5-3.4-3.4-3.4s-3.4,1.5-3.4,3.4V764.7z"/>
		<path class="st2" d="M16.1,768.4v4.3h1.8v-4.3"/>
		<path class="st49" d="M17.5,766.1c-1.2,0-1.4,0.6-1.4,1.2v2.6h1.8V767L17.5,766.1L17.5,766.1z"/>
		<path class="st22" d="M18,772.4h-2.1c-0.7,1.4-2.5,1.4-2.7,0.4c0,0-1,1.9,3.4,1.6C17.5,774.3,18.4,773.3,18,772.4z M13.4,762.9
			h6.9v1.7h-6.9V762.9z"/>
		<path class="st48" d="M13.2,762.8h0.5v2h-0.5V762.8z"/>
		<circle class="st2" cx="20.9" cy="743.4" r="0.7"/>
		<circle class="st47" cx="16.8" cy="763.2" r="1.3"/>
		<path class="st47" d="M13.7,752.8l-3.2,0.9c-0.4,0-0.4,0.5,0.2,0.5h3.9L13.7,752.8z"/>
		<g>
			<path class="st50" d="M-43.1,749.8c0,0-5-4.6-7.6-5.9c0,0,2.2,3.9,0.7,5.6C-50,749.5-43.1,749.8-43.1,749.8z"/>
			<path class="st47" d="M-43.5,753c0,1.9-1.5,3.4-3.4,3.4s-3.4-1.5-3.4-3.4s1.5-3.4,3.4-3.4C-45.1,749.6-43.5,751.1-43.5,753z"/>
			<path class="st22" d="M-45.4,749.9c-0.5-0.3-1-0.4-1.6-0.4c-1.9,0-3.4,1.5-3.4,3.4c0,0.8,0.3,1.6,0.8,2.2
				C-46.3,754.3-45.6,751.4-45.4,749.9z"/>
			<path class="st22" d="M-51.3,755.5c0.6-0.5,1-1.2,1-1.9c-0.7-0.2-1.5-0.2-2.1,0.3s-1,1.2-1,1.9C-52.8,756-52,755.9-51.3,755.5z"
				/>
			<path class="st47" d="M-46,753.9l-1.8-2.6c0,0-0.7,4,1.6,3.5L-46,753.9z"/>
			<path class="st2" d="M-43,750.6c0,0.3-0.2,0.5-0.5,0.5h-6.9c-0.3,0-0.5-0.2-0.5-0.5v-0.8c0-0.3,0.2-0.5,0.5-0.5h6.9
				c0.3,0,0.5,0.2,0.5,0.5V750.6z"/>
			<circle class="st22" cx="-44.8" cy="752.5" r="0.6"/>
			<path class="st50" d="M-43.7,764.7c0,1.9-1.5,3.4-3.4,3.4s-3.4-1.5-3.4-3.4v-4.8c0-1.9,1.5-3.4,3.4-3.4s3.4,1.5,3.4,3.4V764.7z"
				/>
			<path class="st2" d="M-46.4,768.4v4.3h-1.8v-4.3"/>
			<path class="st50" d="M-47.8,766.1c1.2,0,1.4,0.6,1.4,1.2v2.6h-1.8V767L-47.8,766.1L-47.8,766.1z M-45.7,759.2
				c0.5-1.1,1.1-1.1,1.7-0.8l2.4,1l-0.7,1.7L-45,760L-45.7,759.2L-45.7,759.2z"/>
			<path class="st22" d="M-48.3,772.4h2.1c0.7,1.4,2.5,1.4,2.7,0.4c0,0,1,1.9-3.4,1.6C-47.9,774.3-48.7,773.3-48.3,772.4z
				 M-50.6,762.9h6.9v1.7h-6.9V762.9z"/>
			<path class="st48" d="M-44,762.8h0.5v2H-44V762.8z"/>
			<circle class="st2" cx="-51.2" cy="743.4" r="0.7"/>
			<circle class="st47" cx="-47.1" cy="763.2" r="1.3"/>
			<path class="st51" d="M-32.7,750.8l0.7,0.7l-8.4,9.1l-0.7-0.7C-41.1,759.9-32.7,750.8-32.7,750.8z"/>
			<circle class="st47" cx="-41" cy="760.6" r="1.3"/>
			<path class="st47" d="M-44,752.8l3.2,0.9c0.4,0,0.4,0.5-0.2,0.5h-3.9L-44,752.8z"/>
		</g>
		<g>
			<path class="st52" d="M0.7,777.6c0,1.7,1.4,3.1,3.1,3.1s3.1-1.4,3.1-3.1v-4.3c0-1.7-1.4-3.1-3.1-3.1s-3.1,1.4-3.1,3.1V777.6z"/>
			<path class="st2" d="M3.1,781v3.9h1.7V781"/>
			<path class="st52" d="M4.4,778.9c-1.1,0-1.3,0.5-1.3,1.1v2.3h1.6v-2.6C4.7,779.7,4.4,778.9,4.4,778.9z"/>
			<path class="st22" d="M4.9,784.6H3c-0.6,1.2-2.3,1.2-2.5,0.3c0,0-0.9,1.7,3.1,1.5C4.5,786.3,5.2,785.5,4.9,784.6z M0.7,776H7v1.6
				H0.7C0.7,777.6,0.7,776,0.7,776z"/>
			<path class="st48" d="M0.5,775.9h0.4v1.8H0.5V775.9z"/>
			<circle class="st47" cx="3.8" cy="776.3" r="1.2"/>
			<path class="st52" d="M3,762.9c0,0,6-1.6,8.6-1.5c0,0-3.4,2.2-2.9,4.2L3,762.9z"/>
			<path class="st47" d="M2,765.6c-0.8,1.5-0.2,3.4,1.3,4.2c1.5,0.8,3.4,0.2,4.2-1.3s0.2-3.4-1.3-4.2C4.6,763.5,2.7,764.1,2,765.6z"
				/>
			<path class="st53" d="M4.7,763.9c0.5,0,1,0.1,1.5,0.4c1.5,0.8,2.1,2.7,1.3,4.2c-0.4,0.7-0.9,1.2-1.6,1.4
				C3.7,767.9,4.3,765.2,4.7,763.9z"/>
			<path class="st53" d="M8.3,771.5c-0.5,0-1-0.2-1.4-0.5c-0.4-0.4-0.5-0.9-0.5-1.4c0.5,0,1,0.1,1.4,0.5
				C8.2,770.5,8.3,771,8.3,771.5z"/>
			<path class="st47" d="M3.6,767.4l2.5-1.3c0,0-1.2,3.5-2.7,2.2L3.6,767.4L3.6,767.4z"/>
			<path class="st2" d="M2.6,763.4c-0.1,0.2,0,0.5,0.2,0.6l5.5,2.9c0.2,0.1,0.5,0,0.6-0.2l0.4-0.7c0.1-0.2,0-0.5-0.2-0.6l-5.5-2.9
				c-0.2-0.1-0.5,0-0.6,0.2L2.6,763.4z"/>
			<circle class="st22" cx="3.2" cy="765.8" r="0.6"/>
			<circle class="st2" cx="12.2" cy="761.1" r="0.7"/>
			<path class="st47" d="M2.4,765.7l-3-0.6c-0.3-0.1-0.5,0.3-0.1,0.5l3.1,1.6V765.7z"/>
		</g>
		<g>
			<path class="st52" d="M-54.5,784.9c0,1.7-1.4,3.1-3.1,3.1c-1.7,0-3.1-1.4-3.1-3.1v-4.3c0-1.7,1.4-3.1,3.1-3.1
				c1.7,0,3.1,1.4,3.1,3.1V784.9z"/>
			<path class="st2" d="M-56.9,788.4v3.8h-1.7v-3.8"/>
			<path class="st52" d="M-58.2,786.3c1.1,0,1.3,0.5,1.3,1.1v2.3h-1.6v-2.6C-58.5,787.1-58.2,786.3-58.2,786.3z"/>
			<path class="st22" d="M-58.7,791.9h1.9c0.6,1.2,2.3,1.2,2.5,0.3c0,0,0.9,1.7-3.1,1.5C-58.3,793.7-59,792.8-58.7,791.9z
				 M-60.7,783.4h6.3v1.6h-6.3V783.4z"/>
			<path class="st48" d="M-54.7,783.2h0.4v1.8h-0.4V783.2z"/>
			<circle class="st47" cx="-57.5" cy="783.6" r="1.2"/>
			<path class="st52" d="M-56.7,770.2c0,0-6-1.6-8.6-1.5c0,0,3.4,2.2,2.9,4.2L-56.7,770.2z"/>
			<path class="st47" d="M-55.7,772.9c0.8,1.5,0.2,3.4-1.3,4.2s-3.4,0.2-4.2-1.3s-0.2-3.4,1.3-4.2S-56.5,771.4-55.7,772.9z"/>
			<path class="st53" d="M-58.5,771.3c-0.5,0-1,0.1-1.5,0.4c-1.5,0.8-2.1,2.7-1.3,4.2c0.4,0.7,0.9,1.2,1.6,1.4
				C-57.4,775.2-58,772.5-58.5,771.3z"/>
			<path class="st53" d="M-62.1,778.9c0.5,0,1-0.2,1.4-0.5c0.4-0.4,0.5-0.9,0.5-1.4c-0.5,0-1,0.1-1.4,0.5
				C-62,777.8-62.1,778.3-62.1,778.9z"/>
			<path class="st47" d="M-57.3,774.7l-2.5-1.3c0,0,1.2,3.5,2.7,2.2L-57.3,774.7L-57.3,774.7z"/>
			<path class="st2" d="M-56.4,770.8c0.1,0.2,0,0.5-0.2,0.6l-5.5,2.9c-0.2,0.1-0.5,0-0.6-0.2l-0.4-0.7c-0.1-0.2,0-0.5,0.2-0.6
				l5.5-2.9c0.2-0.1,0.5,0,0.6,0.2L-56.4,770.8z"/>
			<circle class="st22" cx="-57" cy="773.1" r="0.6"/>
			<circle class="st2" cx="-66" cy="768.4" r="0.7"/>
			<path class="st47" d="M-56.2,773l3-0.6c0.3-0.1,0.5,0.3,0.1,0.5l-3.1,1.6C-56.2,774.5-56.2,773-56.2,773z"/>
		</g>
		<g>
			<circle class="st47" cx="-32.9" cy="786" r="1.2"/>
			<path class="st2" d="M-28.8,787.2l3.9-0.3l0.1,1.6l-3.9,0.3"/>
			<path class="st54" d="M-30.8,788.6c-0.1-1.1,0.4-1.3,1-1.3l2.3-0.2l0.1,1.6l-2.6,0.2L-30.8,788.6L-30.8,788.6z"/>
			<path class="st22" d="M-25.1,788.7l-0.2-1.9c1.2-0.7,1-2.4,0.1-2.5c0,0,1.6-1,1.7,2.9C-23.4,788.1-24.2,788.9-25.1,788.7z"/>
			<path class="st54" d="M-27.1,785.9c0,1.7-1.4,3.1-3.1,3.1c-1.7,0-3.1-1.4-3.1-3.1v-4.3c0-1.7,1.4-3.1,3.1-3.1
				c1.7,0,3.1,1.4,3.1,3.1V785.9z"/>
			<path class="st22" d="M-33.4,784.3h6.3v1.6h-6.3V784.3z"/>
			<path class="st48" d="M-27.4,784.2h0.4v1.8h-0.4V784.2z"/>
			<circle class="st47" cx="-27.1" cy="786" r="1.2"/>
			<path class="st47" d="M-30.4,775l2.6-1.6c0.2-0.2,0.6,0.1,0.3,0.4l-2.3,2.6L-30.4,775z"/>
			<path class="st54" d="M-30.2,771c0,0-6.2-0.4-8.7,0.1c0,0,3.7,1.5,3.7,3.6L-30.2,771z"/>
			<path class="st47" d="M-28.7,773.5c1.1,1.4,0.9,3.3-0.5,4.4c-1.4,1.1-3.3,0.9-4.4-0.5c-1.1-1.4-0.9-3.3,0.5-4.4
				S-29.8,772.2-28.7,773.5z"/>
			<path class="st53" d="M-31.7,772.4c-0.5,0.1-0.9,0.3-1.4,0.6c-1.4,1.1-1.6,3-0.5,4.4c0.5,0.6,1.1,1,1.8,1.1
				C-28.8,778.4-28.3,771.9-31.7,772.4z"/>
			<path class="st47" d="M-29.1,775l-1.3-1.2c0,0-0.4,3.5,1.1,2.1L-29.1,775z"/>
			<path class="st2" d="M-29.7,771.5c0.1,0.2,0.1,0.4-0.1,0.6l-4.9,3.9c-0.2,0.1-0.4,0.1-0.6-0.1l-0.5-0.6c-0.1-0.2-0.1-0.4,0.1-0.6
				l4.9-3.9c0.2-0.1,0.4-0.1,0.6,0.1L-29.7,771.5z"/>
			<circle class="st2" cx="-39.6" cy="771" r="0.7"/>
		</g>
		<g>
			<circle class="st47" cx="-4.3" cy="786" r="1.2"/>
			<path class="st2" d="M-8.4,787.2l-3.9-0.3l-0.1,1.6l3.9,0.3"/>
			<path class="st53" d="M-6.4,788.6c0.1-1.1-0.4-1.3-1-1.3l-2.3-0.2l-0.1,1.6l2.6,0.2L-6.4,788.6L-6.4,788.6z"/>
			<path class="st22" d="M-12.1,788.7l0.2-1.9c-1.2-0.7-1-2.4-0.1-2.5c0,0-1.6-1-1.7,2.9C-13.8,788.1-13,788.9-12.1,788.7z"/>
			<path class="st53" d="M-10.1,785.9c0,1.7,1.4,3.1,3.1,3.1s3.1-1.4,3.1-3.1v-4.3c0-1.7-1.4-3.1-3.1-3.1s-3.1,1.4-3.1,3.1V785.9z"
				/>
			<path class="st22" d="M-10.1,784.3h6.3v1.6h-6.3V784.3z"/>
			<path class="st48" d="M-10.3,784.2h0.4v1.8h-0.4V784.2z"/>
			<circle class="st47" cx="-10.1" cy="786" r="1.2"/>
			<path class="st47" d="M-6.8,775l-2.6-1.6c-0.2-0.2-0.6,0.1-0.3,0.4l2.3,2.6L-6.8,775z"/>
			<path class="st53" d="M-7,771c0,0,6.2-0.4,8.7,0.1c0,0-3.7,1.5-3.7,3.6L-7,771z"/>
			<path class="st47" d="M-8.5,773.5c-1.1,1.4-0.9,3.3,0.5,4.4c1.4,1.1,3.3,0.9,4.4-0.5c1.1-1.4,0.9-3.3-0.5-4.4
				S-7.4,772.2-8.5,773.5z"/>
			<path class="st22" d="M-5.5,772.4c0.5,0.1,0.9,0.3,1.4,0.6c1.4,1.1,1.6,3,0.5,4.4c-0.5,0.6-1.1,1-1.8,1.1
				C-8.4,778.4-8.9,771.9-5.5,772.4z"/>
			<path class="st47" d="M-8.1,775l1.3-1.2c0,0,0.4,3.5-1.1,2.1C-7.9,775.9-8.1,775-8.1,775z"/>
			<path class="st2" d="M-7.5,771.5c-0.1,0.2-0.1,0.4,0.1,0.6l4.9,3.9c0.2,0.1,0.4,0.1,0.6-0.1l0.5-0.6c0.1-0.2,0.1-0.4-0.1-0.6
				l-4.9-3.9c-0.2-0.1-0.4-0.1-0.6,0.1L-7.5,771.5z"/>
			<circle class="st2" cx="2.4" cy="771" r="0.7"/>
		</g>
		<g>
			<circle class="st47" cx="16.3" cy="780.8" r="1.2"/>
			<path class="st55" d="M9.9,782.1c0,1.7,1.4,3.1,3.1,3.1s3.1-1.4,3.1-3.1v-4.3c0-1.7-1.4-3.1-3.1-3.1s-3.1,1.4-3.1,3.1V782.1z"/>
			<path class="st2" d="M11.2,785.6v3.8h1.7v-3.8"/>
			<path class="st55" d="M12.5,783.5c-1.1,0-1.3,0.5-1.3,1.1v2.3h1.6v-2.6C12.8,784.3,12.5,783.5,12.5,783.5z"/>
			<path class="st22" d="M13,789.1h-1.9c-0.6,1.2-2.3,1.2-2.5,0.3c0,0-0.9,1.7,3.1,1.5C12.6,790.9,13.3,790,13,789.1z"/>
			<path class="st2" d="M13.6,785.6v3.8h1.7v-3.8"/>
			<path class="st55" d="M14.9,783.5c-1.1,0-1.3,0.5-1.3,1.1v2.3h1.6v-2.6C15.2,784.3,14.9,783.5,14.9,783.5z"/>
			<path class="st22" d="M15.4,789.1h-1.9c-0.6,1.2-0.6,1.4-0.8,0.5c0,0-2.5,1.6,1.4,1.3C15,790.9,15.7,790,15.4,789.1z M9.9,780.6
				h6.3v1.6H9.9V780.6z"/>
			<path class="st48" d="M9.7,780.4h0.4v1.8H9.7V780.4z"/>
			<circle class="st47" cx="9.9" cy="780.8" r="1.2"/>
			<path class="st47" d="M13.2,771.3l-2.6-1.6c-0.2-0.2-0.6,0.1-0.3,0.4l2.3,2.6L13.2,771.3z"/>
			<path class="st55" d="M13,767.3c0,0,6.2-0.4,8.7,0.1c0,0-3.7,1.5-3.7,3.6L13,767.3z"/>
			<path class="st47" d="M11.5,769.8c-1.1,1.4-0.9,3.3,0.5,4.4s3.3,0.9,4.4-0.5s0.9-3.3-0.5-4.4C14.5,768.2,12.5,768.4,11.5,769.8z"
				/>
			<path class="st53" d="M14.5,768.6c0.5,0.1,0.9,0.3,1.4,0.6c1.4,1.1,1.6,3,0.5,4.4c-0.5,0.6-1.1,1-1.8,1.1
				C11.6,774.7,11,768.2,14.5,768.6z"/>
			<path class="st47" d="M11.8,771.3l1.3-1.2c0,0,0.4,3.5-1.1,2.1C12,772.2,11.8,771.3,11.8,771.3z"/>
			<path class="st2" d="M12.5,767.7c-0.1,0.2-0.1,0.4,0.1,0.6l4.9,3.9c0.2,0.1,0.4,0.1,0.6-0.1l0.5-0.6c0.1-0.2,0.1-0.4-0.1-0.6
				l-4.9-3.9c-0.2-0.1-0.4-0.1-0.6,0.1L12.5,767.7z"/>
			<circle class="st2" cx="22.4" cy="767.3" r="0.7"/>
		</g>
		<g>
			<circle class="st47" cx="-44.9" cy="782.3" r="1.2"/>
			<path class="st46" d="M-38.5,783.6c0,1.7-1.4,3.1-3.1,3.1c-1.7,0-3.1-1.4-3.1-3.1v-4.3c0-1.7,1.4-3.1,3.1-3.1
				c1.7,0,3.1,1.4,3.1,3.1V783.6z"/>
			<path class="st2" d="M-39.8,787v3.9h-1.7V787"/>
			<path class="st46" d="M-41.1,784.9c1.1,0,1.3,0.5,1.3,1.1v2.3h-1.6v-2.6L-41.1,784.9z"/>
			<path class="st22" d="M-41.6,790.6h1.9c0.6,1.2,2.3,1.2,2.5,0.3c0,0,0.9,1.7-3.1,1.5C-41.2,792.3-41.9,791.5-41.6,790.6z"/>
			<path class="st2" d="M-42.2,787v3.9h-1.7V787"/>
			<path class="st46" d="M-43.5,784.9c1.1,0,1.3,0.5,1.3,1.1v2.3h-1.6v-2.6L-43.5,784.9z"/>
			<path class="st22" d="M-44,790.6h1.9c0.6,1.2,0.6,1.4,0.8,0.5c0,0,2.5,1.6-1.4,1.3C-43.6,792.3-44.3,791.5-44,790.6z M-44.7,782
				h6.3v1.6h-6.3V782z"/>
			<path class="st48" d="M-38.7,781.9h0.4v1.8h-0.4V781.9z"/>
			<circle class="st47" cx="-38.5" cy="782.3" r="1.2"/>
			<path class="st47" d="M-41.8,772.8l2.6-1.6c0.2-0.2,0.6,0.1,0.3,0.4l-2.3,2.6L-41.8,772.8z"/>
			<path class="st46" d="M-41.6,768.7c0,0-6.2-0.4-8.7,0.1c0,0,3.7,1.5,3.7,3.6L-41.6,768.7z"/>
			<path class="st47" d="M-40.1,771.2c1.1,1.4,0.9,3.3-0.5,4.4c-1.4,1.1-3.3,0.9-4.4-0.5c-1.1-1.4-0.9-3.3,0.5-4.4
				S-41.1,769.9-40.1,771.2z"/>
			<path class="st56" d="M-43.1,770.1c-0.5,0.1-0.9,0.3-1.4,0.6c-1.4,1.1-1.6,3-0.5,4.4c0.5,0.6,1.1,1,1.8,1.1
				C-40.2,776.1-39.6,769.7-43.1,770.1z"/>
			<path class="st56" d="M-38.8,776.3c-0.6,0.1-1.2,0-1.7-0.3c-0.5-0.3-0.9-0.8-1.1-1.3c0.6-0.1,1.2,0,1.7,0.3
				C-39.4,775.3-39,775.8-38.8,776.3z M-46.1,777.5c0.5-0.2,1-0.6,1.3-1.1s0.4-1.1,0.3-1.7c-0.5,0.2-1,0.6-1.3,1.1
				S-46.2,776.9-46.1,777.5z"/>
			<path class="st47" d="M-40.4,772.8l-1.3-1.2c0,0-0.4,3.5,1.1,2.1L-40.4,772.8z"/>
			<path class="st2" d="M-41.1,769.2c0.1,0.2,0.1,0.4-0.1,0.6l-4.9,3.9c-0.2,0.1-0.4,0.1-0.6-0.1l-0.5-0.6c-0.1-0.2-0.1-0.4,0.1-0.6
				l4.9-3.9c0.2-0.1,0.4-0.1,0.6,0.1L-41.1,769.2z"/>
			<circle class="st2" cx="-51" cy="768.8" r="0.7"/>
		</g>
		<g>
			<circle class="st47" cx="-12.3" cy="787" r="1.2"/>
			<path class="st2" d="M-16.3,788.1l-3.9-0.3l-0.1,1.6l3.9,0.3"/>
			<path class="st49" d="M-14.3,789.5c0.1-1.1-0.4-1.3-1-1.3l-2.3-0.2l-0.1,1.6l2.6,0.2L-14.3,789.5L-14.3,789.5z"/>
			<path class="st22" d="M-20,789.6l0.2-1.9c-1.2-0.7-1-2.4-0.1-2.5c0,0-1.6-1-1.7,2.9C-21.7,789-20.9,789.8-20,789.6z"/>
			<path class="st49" d="M-18,786.8c0,1.7,1.4,3.1,3.1,3.1s3.1-1.4,3.1-3.1v-4.3c0-1.7-1.4-3.1-3.1-3.1s-3.1,1.4-3.1,3.1V786.8z"/>
			<path class="st22" d="M-18,785.2h6.3v1.6H-18V785.2z"/>
			<path class="st48" d="M-18.2,785.1h0.4v1.8h-0.4V785.1z"/>
			<circle class="st47" cx="-18" cy="786.9" r="1.2"/>
			<path class="st47" d="M-14.7,776l-2.6-1.6c-0.2-0.2-0.6,0.1-0.3,0.4l2.3,2.6L-14.7,776z"/>
			<path class="st49" d="M-14.9,771.9c0,0,6.2-0.4,8.7,0.1c0,0-3.7,1.5-3.7,3.6L-14.9,771.9z"/>
			<path class="st47" d="M-16.4,774.4c-1.1,1.4-0.9,3.3,0.5,4.4c1.4,1.1,3.3,0.9,4.4-0.5c1.1-1.4,0.9-3.3-0.5-4.4
				S-15.4,773.1-16.4,774.4z"/>
			<path class="st56" d="M-13.4,773.3c0.5,0.1,0.9,0.3,1.4,0.6c1.4,1.1,1.6,3,0.5,4.4c-0.5,0.6-1.1,1-1.8,1.1
				C-16.3,779.3-16.8,772.9-13.4,773.3z"/>
			<path class="st56" d="M-17.7,779.5c0.6,0.1,1.2,0,1.7-0.3s0.9-0.8,1.1-1.3c-0.6-0.1-1.2,0-1.7,0.3S-17.5,779-17.7,779.5z
				 M-10.4,780.7c-0.5-0.2-1-0.6-1.3-1.1s-0.4-1.1-0.3-1.7c0.5,0.2,1,0.6,1.3,1.1S-10.3,780.1-10.4,780.7z"/>
			<path class="st47" d="M-16.1,776l1.3-1.2c0,0,0.4,3.5-1.1,2.1C-15.9,776.9-16.1,776-16.1,776z"/>
			<path class="st2" d="M-15.4,772.4c-0.1,0.2-0.1,0.4,0.1,0.6l4.9,3.9c0.2,0.1,0.4,0.1,0.6-0.1l0.5-0.6c0.1-0.2,0.1-0.4-0.1-0.6
				l-4.9-3.9c-0.2-0.1-0.4-0.1-0.6,0.1L-15.4,772.4z"/>
			<circle class="st2" cx="-5.5" cy="771.9" r="0.7"/>
		</g>
	</g>
</g>
</svg>
