<svg id="Layer_1" xmlns="http://www.w3.org/2000/svg" viewBox="0 0 39.8 38.7"><style>.st0{fill:none;stroke:#979797;stroke-width:2.2837;stroke-linecap:round;stroke-miterlimit:10}.st1{fill:#ef3a38}.st2{fill:#333}.st3{fill:#fedf8a}.st4{fill:#f17c21}.st5{fill:#fff}.st6{fill:#fed401}</style><path class="st0" d="M9.1 31.9v5.4m22-5.4v5.4"/><path class="st1" d="M35.4 24.6h-20c-3.3 0-8.8 2.7-10 7.5h30v-7.5z"/><path class="st2" d="M5.4 32.1c-.1.6-.2 1.2-.2 1.9h30.2v-1.9h-30z"/><path class="st3" d="M20.5 10.3l-3.2.9c-.4 0-.4.5.2.5h3.9l-.9-1.4z"/><path class="st0" d="M16.8 33.9c0 2-1.6 3.7-3.7 3.7H4.8c-2 0-3.7-1.6-3.7-3.7m37.6 0c0 2-1.6 3.7-3.7 3.7h-8.3c-2 0-3.7-1.6-3.7-3.7"/><path class="st4" d="M19.8 7.2s5-4.6 7.6-5.9c0 0-2.2 3.9-.7 5.6l-6.9.3z"/><path class="st3" d="M20.3 10.4c0 1.9 1.5 3.4 3.4 3.4s3.4-1.5 3.4-3.4S25.6 7 23.7 7c-1.9-.1-3.4 1.5-3.4 3.4z"/><path class="st2" d="M22.1 7.3c.5-.3 1-.4 1.6-.4 1.9 0 3.4 1.5 3.4 3.4 0 .8-.3 1.6-.8 2.2-3.2-.8-4-3.8-4.2-5.2z"/><path class="st3" d="M22.7 11.3l1.8-2.6s.7 4-1.6 3.5l-.2-.9z"/><path class="st5" d="M19.8 7.9c0 .3.2.5.5.5h6.9c.3 0 .5-.2.5-.5v-.8c0-.3-.2-.5-.5-.5h-6.9c-.3 0-.5.2-.5.5v.8z"/><circle class="st2" cx="21.6" cy="9.9" r=".6"/><path class="st4" d="M20.4 22c0 1.9 1.5 3.4 3.4 3.4s3.4-1.5 3.4-3.4v-4.8c0-1.9-1.5-3.4-3.4-3.4s-3.4 1.5-3.4 3.4V22z"/><path class="st5" d="M19.1 25.8v4.3h1.8v-4.3"/><path class="st4" d="M24.3 25.5h-3.5v1.8H19v-2.6c0-.6.2-1.2 1.4-1.2l1.6.1"/><path class="st2" d="M21 29.7h-2.1c-.7 1.4-2.5 1.4-2.8.4 0 0-1 1.9 3.4 1.6 1 0 1.9-1 1.5-2zm-.6-9.4h6.9V22h-6.9z"/><path class="st6" d="M20.2 20.1h.5v2h-.5z"/><circle class="st5" cx="28" cy=".7" r=".7"/><path class="st1" d="M11.8 28.4v-5.1c0-2.8 2-4.8 4.3-4.8v8.9"/><path class="st4" d="M23.582 15.2l.6 1.803-7.777 2.594-.6-1.802z"/><circle class="st3" cx="16.2" cy="18.7" r="1.3"/></svg>