<svg width="287" height="172" viewBox="0 0 287 172" xmlns="http://www.w3.org/2000/svg"><title>Slice 1</title><defs><radialGradient cx="53.296%" cy="50.324%" fx="53.296%" fy="50.324%" r="60%" id="a"><stop stop-color="#DE4A3F" offset="0%"/><stop stop-color="#D43E30" offset="65%"/><stop stop-color="#CE392E" offset="92.8%"/><stop stop-color="#CB372D" offset="100%"/></radialGradient><radialGradient cx="49.87%" cy="49.686%" fx="49.87%" fy="49.686%" r="42.753%" id="b"><stop stop-color="#DE4A3F" offset="0%"/><stop stop-color="#D43E30" offset="65%"/><stop stop-color="#CE392E" offset="92.8%"/><stop stop-color="#CB372D" offset="100%"/></radialGradient><radialGradient cx="50.769%" cy="49.825%" fx="50.769%" fy="49.825%" r="46.846%" id="c"><stop stop-color="#DE4A3F" offset="0%"/><stop stop-color="#D43E30" offset="65%"/><stop stop-color="#CE392E" offset="92.8%"/><stop stop-color="#CB372D" offset="100%"/></radialGradient><radialGradient cx="288.4%" cy="-346.135%" fx="288.4%" fy="-346.135%" r="356.45%" id="d"><stop stop-color="#DE4A3F" offset="0%"/><stop stop-color="#D43E30" offset="65%"/><stop stop-color="#CE392E" offset="92.8%"/><stop stop-color="#CB372D" offset="100%"/></radialGradient><radialGradient cx="40.895%" cy="57.23%" fx="40.895%" fy="57.23%" r="74.232%" id="e"><stop stop-color="#DE4A3F" offset="0%"/><stop stop-color="#D43E30" offset="65%"/><stop stop-color="#CE392E" offset="92.8%"/><stop stop-color="#CB372D" offset="100%"/></radialGradient><radialGradient cx="100.9%" cy="307.838%" fx="100.9%" fy="307.838%" r="356.45%" id="f"><stop stop-color="#DE4A3F" offset="0%"/><stop stop-color="#D43E30" offset="65%"/><stop stop-color="#CE392E" offset="92.8%"/><stop stop-color="#CB372D" offset="100%"/></radialGradient></defs><g fill="none" fill-rule="evenodd"><g transform="translate(0 129)"><ellipse fill="#F6F3EC" cx="89.7" cy="40.9" rx="1.1" ry="1.2"/><path d="M283.4 33.3c-1.9 0-3.5 1.7-3.5 3.8h6.9c.1-2.1-1.5-3.8-3.4-3.8zm-10.6 1H269c-1.9-2.6-7.6-6.1-10-6.1h-17.9c-4.5 0-4.1-2.6-3.9-3.5.1-.9.8-2.1 3.8-2.1h10.6c1.1 0 1.6-1.4.6-2.1-3.7-2.6-6.3-4.3-9.3-4.3H115.3c-1.9 0-3.8.9-4.9 2.7-1.1 1.8-4.3 7.8-6.5 9.5-.9.8-1.5 1.9-1.5 3.2 0 1.1.4 2.1 1.1 2.8.6.7 1.5 1.2 2.5 1.2l4.5.1c2.4-1.2 2.3 1.2 0 1.9H96.2c-2.3 0-4.2 1-4.2 2.3 0 1.3 1.9 2.3 4.2 2.3h151.3c1.1 0 2-.5 3.8-1.3h8.9c1 0 1.8-.8 1.8-1.8 0-.5-.2-1-.6-1.3h11.5c1 0 1.8-.8 1.8-1.8s-.9-1.7-1.9-1.7zM52.1 33.2c0-1.7 1.3-3.1 2.9-3.1 1.6 0 2.9 1.4 2.9 3.1h-5.8zm22.7 1.3c0-1.2.9-2.1 1.9-2.1 1.1 0 1.9 1 1.9 2.1" fill="#F6F3EC"/><path d="M233.1 26.5c0-2.1 1.5-3.8 3.5-3.8s3.5 1.7 3.5 3.8h-7zM115.7 34c0-1.5 1.1-2.6 2.4-2.6 1.3 0 2.4 1.2 2.4 2.6h-4.8zM268 25.4h-7.9c-.8 0-1.5-.7-1.5-1.5s.7-1.5 1.5-1.5h7.9c.8 0 1.5.7 1.5 1.5s-.6 1.5-1.5 1.5zm-32 8.2c0-2.1 1.5-3.8 3.5-3.8s3.5 1.7 3.5 3.8h-7z" fill="#D7D7D7"/><path d="M0 21.9c0-1.8 1.3-3.2 2.9-3.2 1.6 0 2.9 1.4 2.9 3.2H0zm194.6-9.3C191.2 6 180.1.7 173.5.7H74.7c-2 0-6.8 2.6-8.5 4.1-2 1.8-11.7 6.4-14.3 7.1h-.4c-1.7 0-4.9 3.2-4.9 5 0 1.8 3.2 1.5 4.9 1.5l8.3.2c2.5 0 2.5 4.2 0 4.2H35.1c-1.3 0-4.2 2.1-4.2 3.5s2.9 1.7 4.2 1.7h168.6l-9.1-15.4z" fill="#FFF"/><path d="M34.9 18c-2 0-3.5 1.7-3.5 3.9h7.1c0-2.1-1.6-3.9-3.6-3.9zm0-5.7h5.5c0-2.1-1.6-3.9-3.5-3.9-1.2 0-2.3.7-2.9 1.7-.5-.4-1-.7-1.6-.7-1.4 0-2.6 1.3-2.6 2.8h5.1v.1z" fill="#FFF"/><ellipse fill="#FFF" cx="25.3" cy="23.2" rx="2" ry="2.2"/><path d="M37.9 16.2h5.4c0-1.6-1.2-2.9-2.7-2.9-1.5 0-2.7 1.3-2.7 2.9z" fill="#FFF"/><path d="M173.4 22.3c0-1.7 1.3-3.1 2.8-3.1 1.5 0 2.8 1.4 2.8 3.1h-5.6z" fill="#D7D7D7"/><path d="M212.7 34.8c0-2.1 1.6-3.9 3.5-3.9 2 0 3.5 1.7 3.5 3.9h-7zm-52.5-1.9c0-1.7 1.2-3 2.8-3 1.5 0 2.8 1.4 2.8 3h-5.6z" fill="#FFF"/><path d="M65.1 22.7c0-1.5 1.1-2.7 2.5-2.7s2.5 1.2 2.5 2.7h-5zm145.8-10.4h-8.1c-.8 0-1.5-.7-1.5-1.5s.7-1.5 1.5-1.5h8.1c.8 0 1.5.7 1.5 1.5s-.6 1.5-1.5 1.5z" fill="#D7D7D7"/><path d="M206 20.5h15.1c1 0 1.8-.8 1.8-1.8s-.8-1.8-1.8-1.8H206c-1 0-1.8.8-1.8 1.8s.7 1.8 1.8 1.8zm20.2 1.1h-27.1c-1.4 0-2.5 1.1-2.5 2.5 0 .7.3 1.4.8 1.8h-12.1c-1.4 0-2.5 1.1-2.5 2.5s1.1 2.5 2.5 2.5h27.1c1.4 0 2.5-1.1 2.5-2.5 0-.7-.3-1.4-.8-1.8h12.1c1.4 0 2.5-1.1 2.5-2.5s-1.1-2.5-2.5-2.5z" fill="#FFF"/><path d="M184.4 25.8c0-2.1 1.6-3.9 3.5-3.9 2 0 3.5 1.7 3.5 3.9h-7z" fill="#D7D7D7"/><path d="M82.7 30.7c0-2.1 1.5-3.8 3.5-3.8s3.5 1.7 3.5 3.8h-7zm1.9-6.8c0-2.1 1.5-3.8 3.5-3.8s3.5 1.7 3.5 3.8h-7z" fill="#F6F3EC"/><path d="M81.1 23.9c0-1.5 1.1-2.8 2.5-2.8s2.5 1.2 2.5 2.8h-5zm74.8 4.3c0-2.1 1.6-3.9 3.5-3.9s3.5 1.7 3.5 3.9h-7z" fill="#F6F3EC"/><path d="M152.3 28.2c0-1.6 1.2-2.8 2.6-2.8 1.4 0 2.6 1.3 2.6 2.8h-5.2zm-14.5.9c0-2.5 1.8-4.5 4.1-4.5s4.1 2 4.1 4.5" fill="#F6F3EC"/></g><g transform="translate(71)"><path fill="#85E1E7" opacity=".6" d="M58.3 18.1h.5l.1.1.3.2.4.1h.3l.1-.1.3.1.2.1.2.3.1.2v.4l-.2.5-.2.5h-.1l-.2.2-.1.1-.1.2v.1l-.1.1-.7.1-.7-.3-.9-.8-.3-.3-.1-.4v-.2l.7-.8z"/><ellipse fill="#000" opacity=".1" cx="79.8" cy="139" rx="79.4" ry="5.5"/><ellipse fill="#E7F3F2" cx="79.8" cy="137.5" rx="79.4" ry="5.5"/><path fill="#D2E3E6" d="M140.9 135.8l-44.2-1.2-42.8-1.1-17.6-.4v-15.6l37.4-6.9 43.3-8 10.2-1.9 8 1.2z"/><path fill="#000" opacity=".1" d="M117 102.6l-20.3 32-1.6 2.7H50.7l3.2-3.8 19.8-22.9z"/><path d="M128.3 101c1.8-1.4 12.4 3.2 3.8 10.2-8 6.4-9.4 24-9.4 24l18.3.6-4.6-31.9c-.1-.1 0-3.9-8.1-2.9z" fill="#D2E3E6"/><path d="M128.3 101c1.8-1.4 12.4 3.2 3.8 10.2-8 6.4-1.8 24-1.8 24l10.7.6-4.6-31.9c-.1-.1 0-3.9-8.1-2.9z" fill="#000" opacity=".19"/><path fill="#D2E3E6" d="M109.4 125.8h11.1l2.2-5.7h-11.2z"/><path d="M86.8 69.8c-.6 1.4-1.2 2.9-1.6 3.7h1.4s.6-1.6 1.3-3.5" fill="url(#a)" opacity=".6"/><path d="M88.2 74.7c-1.8 0-3.6-.2-5.2-.7-1.2-.4-1.9-1.6-1.6-2.9.4-1.2 1.6-1.9 2.9-1.6 2.5.7 5.3.7 7.8 0 .3-.1.4-.1.5-.2 0 0 0-.1.1-.3.3-1.2.1-2.7-.6-4-.7-1.3-1.8-2.5-3.3-3.6-1-.8-2.1-1.4-3.3-1.9-1.2-.5-1.7-1.9-1.2-3 .5-1.2 1.9-1.7 3-1.2 1.5.7 2.9 1.5 4.2 2.5 2.1 1.5 3.6 3.3 4.6 5.2 1.2 2.4 1.5 5 .9 7.3-.3 1.2-.8 2.1-1.6 2.7-.7.6-1.5.9-2.2 1.1-1.6.4-3.3.6-5 .6z" fill="#5B93C1" opacity=".6"/><path d="M63.2 54.8s-.6 3-.7 3c-4.3-.2-7.7-6.3-10.3-11.5-3.5-6.9-4.7-18.2.9-26.8.7-1.1 2.1-1.4 3.2-.7s1.4 2.1.7 3.2c-4.6 7.1-2 16.2.9 21.9 1.9 3.7 2.8 6.2 5.4 6.3 1.3.1 2.2 1.2 2.2 2.4-.1 1.2-1.1 2.2-2.3 2.2z" fill="#73BCDD" opacity=".6"/><path fill="#85E1E7" opacity=".6" d="M52.2 46.2l-2.7-8.9.2-9.3 3.4-8.6 3.2-.7-4.5 13.5z"/><path fill="#48AACF" opacity=".6" d="M62.7 52.3L58 47.5l-3.1-6.1-.7-6.6.3-3.7 3.2 12.3z"/><path fill="#3E31FF" opacity=".6" d="M79.8 76.2H66.5l.7-.9h11.9"/><path fill="#1B4DF9" opacity=".6" d="M73.1 76.2h-6.6l.7-.9h5.9z"/><path d="M65.4 38.5l-3.3-4.4s-1.9 11.4 4.4 10l-1.1-5.6z" fill="#85E1E7" opacity=".6"/><path fill="#62ACCD" opacity=".6" d="M65.1 29.6l5.3-3.5 3.8-6.1 6.5-3.1 4.5-4.8-2.2 8 1 8.2-6.6-.3-6.3.8z"/><path fill="#000" opacity=".1" d="M70.1 29.5l4.1-7 5.3-5.2 6.3-4.9-3.2 7.9 1 7.3-6.4 1.7z"/><path fill="#73BCDD" opacity=".6" d="M63.7 39.9l3.1 7.7 7.7 1.3v2l8.3-3.3 3.6-7.6-.8-3.5-3.6-6.3-7.5-.9v1.2l-6.5 3-2.9 6.6z"/><path fill="#000" opacity=".1" d="M75.5 40.7l-2 4.7 1 3.6v1.8l8.3-3.3 3.6-7.5-.8-3.5-3.6-6.2-7.7-.9-5.2 2.7 6.3 1.4-1.2.8z"/><path fill="#81FFFF" opacity=".28" d="M63.8 39.9l3.1 7.6 7.6 1.5v1.8l4.4-6.9-.8-7.7-3.6-5.8v-1.1L67 32.5l-2 7.6z"/><path d="M78.7 40.5c-.6 1.9-2.4 3.4-4.5 3.4s-3.9-1.4-4.5-3.4h9z" fill="#FFF" opacity=".6"/><path fill="#73BCDD" opacity=".6" d="M63.5 34.1l1.6 1.2 6-3.4 7.1-.5 6.6 2.8 1.5-.1-1.4-2.4.1-2.8-6.7-2.7-7.1 1-6.4 2.5-.8 2z"/><path fill="#81FFFF" opacity=".28" d="M64.9 35l3.6-.7 2.8-3.8-6.6-1.1-1.4 2.3.4 2.4z"/><path fill="#62ACCD" opacity=".6" d="M88.1 11.7l-2.2 2.2-2.2-2.2 2.2-2z"/><path d="M85.5 38.5l2.7-4.4s1.9 11.4-3.9 10l1.2-5.6z" fill="#73BCDD" opacity=".6"/><path d="M85.5 38.5l2.7-4.4s1.9 11.4-3.9 10l1.2-5.6z" fill="#000" opacity=".1"/><g opacity=".6"><path fill="#85E1E7" d="M57.6 42.4l5 2.3.5 1.4 5.2 1.2-11.4 20L56 62z"/><path fill="#2E93C1" d="M90.9 51.9l-11.8-4.6v17.5l10.8 2.5z"/><path fill="#85E1E7" d="M57.6 42.4l5 2.3.5 1.4 5.2 1.2v17.5l-11.4 2.5z"/></g><path d="M85.3 105.3c-3.8 2.6-7.5 5.2-11.2 7.8-4-13.7-5.9-27.8-5.8-41.6 4.8-4.2 9.9-8.4 15.1-12.6-2 15.3-1.3 31 1.9 46.4z" fill="#1E9AE3" opacity=".6"/><path d="M61.5 111.5c1 5.5 8.3 9.9 13.8 9.9H83c5.5 0 8.3-4.4 6.6-9.8-4.7-15.2-6.8-30.7-6.5-45.9.1-5.5-3.8-9.9-9.2-9.9-5.3 0-12.1 3.2-12.9 8.7-2.2 15.2-2.2 31.9.5 47z" fill="#73BCDD" opacity=".6"/><path d="M62.1 105.3c4.7 2.6 9.4 5.2 14.2 7.8-3.4-14.8-4.4-29.9-3-44.8-3.3-2.4-5.5-4.9-8.7-7.3-2.7 14.7-4.3 29.6-2.5 44.3z" fill="#85E1E7" opacity=".6"/><path fill="#48AACF" opacity=".6" d="M81.2 56.8l-.6-.2-.3-1.7 2.4-4-2.5.3.6-3.9-6.3 1.4-7-1-1.4 5.6-.8 5.2-.3 7.6-.9 7.3-1.8 7.3-.2 7.4.9 7.4 1.3 7.3.3 8.2 8.1-4.8 7.7-3.1-.5-6.2-1.3-6.6.5-6.8.9-6.7-1.3-6.8 2.1-6.5z"/><path d="M81.6 104.7c-5.1 2.1-10.2 4.2-15.2 6.3-3-15-3.5-30.4-1.6-45.5 5.3-3.2 10.6-6.4 16.1-9.6-2.6 16-2.4 32.5.7 48.8z" fill="#73BCDD" opacity=".6"/><path d="M81.6 104.7c-4.1 2-8.1 3.9-12.2 5.9C65.9 95.2 65 79.4 66.7 64c4.6-2.7 9.3-5.4 14.1-8.1-2.5 16-2.3 32.5.8 48.8z" fill="#48AACF" opacity=".6"/><path d="M85.3 105.3c-4.1 2.6-8.2 5.2-12.2 7.8-4.2-14.4-6.2-29.2-5.9-43.7 5.3-3.5 10.7-7.1 16.2-10.6-2 15.4-1.3 31.1 1.9 46.5z" fill="#73BCDD" opacity=".6"/><path d="M88.8 108.3c-2.5 1.2-8.1 2.4-10.6 3.6-5.9-14.2-9.6-28.8-11-43.2 5.3-3.3 10.6-6.6 16.1-9.9-2.1 16.4 1.8 33.1 5.5 49.5z" fill="#48AACF" opacity=".6"/><path d="M69.8 108.1c-2.9 1.2 9.5 1.9 6.6 3.1-6.8-14.5-11.1-29.3-12.8-43.9 6.1-3.4 12.3-6.7 18.7-10.1-2.4 16.6-16.8 34.2-12.5 50.9z" fill="#81FFFF" opacity=".15"/><path d="M88.8 108.3c-2.5 1.2-8.1 2.4-10.6 3.6-5.9-14.2-3.5-39.4-3.5-39.4s3.1-10.4 8.6-13.7c-2.1 16.4 1.8 33.1 5.5 49.5z" fill="#2E93C1" opacity=".6"/><path d="M61.5 105.3c.9 2.2 1.8 4.4 2.8 6.6-3.8-15.8-4.9-32-3.3-47.8.8-1.7 1.5-3.5 2.3-5.2-3.1 15.3-3.7 31-1.8 46.4z" fill="#85E1E7" opacity=".6"/><path d="M67.3 58.8c.5-2.7 1.1-5.3 1.7-8 4.1 2.6 8.3 5.3 12.5 8H67.3z" fill="#73BCDD" opacity=".6"/><path fill="#62ACCD" opacity=".67" d="M86.6 48.6l-6-2.1-3.2 15.9 9.2-2z"/><path fill="#000" opacity=".1" d="M84.5 48.1l-4.3-1.6-1.1 6.3 2.2 2.5 2.9-3.6z"/><path fill="#9DCFD8" opacity=".67" d="M61.9 48.6l9.1-3.2v17l-9.1-2z"/><path d="M61.9 48.6l9.1-3.2-1.2 9.5-7.9 5.5V48.6zm-5.6-6.2l3.1 2.6-2.1 13.6-1.3-2 1.5-8.1-1.2-6.1z" fill="#81FFFF" opacity=".28"/><path fill="#E7F3F2" d="M57 97.9h31.7v21.8H57z"/><path fill="#000" opacity=".19" d="M75.3 97.9h13.5v21.8H75.3z"/><ellipse fill="#000" opacity=".1" cx="83.9" cy="136.5" rx="37.3" ry="3.8"/><path fill="#E7F3F2" d="M95.1 137.2H50.7l4-34.5H91z"/><path fill="#000" opacity=".1" d="M77.7 102.7l1.1 34.5h16.3L91 102.7z"/><path fill="#D2E3E6" d="M114.2 125.7h2.3v10.8h-2.3z"/><path fill="#000" opacity=".19" d="M115.5 125.7h1v10.8h-1z"/><ellipse fill="#000" opacity=".08" cx="116" cy="138.5" rx="12.1" ry="1.3"/><path fill="#D2E3E6" d="M118.9 138h-7.2l.7-2.2h5.9z"/><path fill="#000" opacity=".1" d="M114.6 135.8l.2 2.2h4.1l-.6-2.2z"/><path d="M67.4 122.9h-9c0-1.3-1.1-2.4-2.4-2.4v-3.4c1.3 0 2.4-1.1 2.4-2.4h9c0 1.3 1.1 2.4 2.4 2.4v3.4c-1.3 0-2.4 1-2.4 2.4z" fill="#000" opacity=".19"/><path fill="#D2E3E6" d="M109 125.8h10.2l2.3-5.7h-10.2z"/><path fill="#000" opacity=".19" d="M109 125.8h10.2l2.3-5.7h-10.2z"/><g opacity=".8"><path fill="#91F3FA" opacity=".99" d="M74.8 68.6h10.8l4.6-8.7H79.3z"/><path fill="#1FC2F5" d="M74.8 68.6h10.8l5.7 4.5H80.4z"/><path fill="#62ACCD" opacity=".99" d="M80.1 72.6H91l4.5-8.7H84.7z"/><path fill="#A9DEE8" opacity=".99" d="M84.5 63.9h10.8l-5.1-4H79.3z"/></g><path d="M88.9 74.7c-2.4 0-4.8-.5-7-1.5-.6-.3-1.4-.7-2-1.3-.8-1-.8-2.4.2-3.3.9-.8 2.4-.8 3.2.2 0 0 .1.1.4.2 2.2 1 4.8 1.3 7.2.9 1.3-.2 2.5.6 2.7 1.9.2 1.3-.6 2.5-1.9 2.7-.9.1-1.8.2-2.8.2z" opacity=".6" fill="#5B93C1"/><path d="M88 70c.8-2.1 1.8-4.5 2-5 .1-.2.3-.7.1-1.1-.1-.2-.2-.3-.3-.4L88.2 62c.5 0 .9-.1 1.3-.1.8-.1 2.4-.2 3.2-.2l-1.1-.9c-.9 0-1.4.1-2.2.2-.8.1-1.6.2-2.4.2l-1 .3-4.4.1-.1.2c-.8 1-1.3 2.2-1.8 3.2l-2.4 5.5.7.5 2.5-5.8c.5-1 1-2 1.6-2.9l4.7-.1 2.2 1.9.1.1s0 .1-.1.3c-.4.9-1.1 2.6-1.8 4.3-.1.3-.3.6-.4 1" fill="url(#b)" opacity=".36"/><path d="M5.9 1.6l-2 .4-1.4-.5L.3 0 .1 5l2.1.2.1-.1 1.3.6 3-1.1-.7-3zM4.3 3.1h-.1.1z" opacity=".6" transform="translate(84 56)" fill="url(#c)"/><path d="M83.5 67.6c0-.3-.1-.7-.3-1-.2-.3-.7-.3-.9 0-.1.1-.1.3-.1.5-.2.3-.5.4-.8.1-.2-.3-.5-.5-.9-.4-.3 0-.5-.1-.6-.4v-.3c-.1-.1-.2-.3-.4-.3h-.6c-.3.1-.6.1-.8.2-.1 0-.3.1-.4.1l-.3.3c-.1 0-.1.1-.2.1 0 .1 0 .2-.1.3-.1.5-.2.7-.4 1.2-.2.3-.2.7-.3 1.1 0 .2.1.4.2.7v.2c0 .2-.1.4-.2.6v.1c0 .1 0 .2-.1.3 0 .6.6 1.1 1.1 1.3.5.3 1 .4 1.6.5.9.4 1.9.3 2.7-.1.3 0 .6-.1.8-.2.3-.1.7-.2.9-.5.1-.1.1-.3.1-.4.2-1.3.2-2.7 0-4z" fill="#73BCDD" opacity=".6"/><path d="M50.3 23.9l-5.6 6.5 1.5 1.3c1.8-2.3 3.1-5.1 4.1-7.8z" fill="#85E1E7" opacity=".6"/><path fill="#81FFFF" opacity=".28" d="M47.7 33l-3-2.6L63.1 9l.7-2.2-1-2.1-2.2-.7-2.1 1-3.3 3.8-3-2.6 3.3-3.8L60.3 0l5.1 1.7 2.4 4.8-1.7 5.1z"/><path d="M65.3 4v-.3c-.7-.7-1.4-1.2-2-1.6h-.2c-1.5.3-2.9.4-4.3.4-.1.1-.2.1-.3.2-1.1.7-2.3 1.4-3.4 2.1-.6.8-1.2 1.6-1.7 2.5l1.8 1.5L58.5 5l2.1-1 2.2.7 1.1 2.1-.8 2.2-2.7 3.1v.4c-1.5 2.2-2.6 3.7-4.7 5.1l-3.5 4c-.5 1.1-.8 2.3-1.2 3.6-.8 2.3-2.2 4.9-4 7.1l.7.6 18.4-21.4 1.7-5.1c-.8-.6-2.4-1.2-2.5-2.4z" fill="#85E1E7" opacity=".6"/><path d="M62.5 3.8c-.4-.1-.7-.3-1.1-.5-.2-.1-.3-.4-.2-.6-.9 0-1.7.4-2.3 1.4-.1.2-.4.3-.6.2-1.3-.5-3.4 2.3-4.4 3.4l1.4 1.2 3.3-3.8 2.1-1 2.2.7.8 1.5v-.4c-.3-.7-.7-1.6-1.2-2.1z" fill="#62ACCD" opacity=".6"/><path d="M67.5 6.3v.1c0 .2-.1.4-.4.5-.1 0-.2.1-.4.1-.1.1-.1.3-.2.4-.1.1-.2.2-.3.2-.3 1.3-1.2 2.3-2 3.3-1.2 3.4-3.8 6-6.3 8.4-2.7 2.5-5.3 5-7.4 8 .3.1.6.5.3.8-1.2 1.4-2.3 3-3.4 4.5l.2.2L66 11.4l1.7-5.1c0 .2-.1.1-.2 0z" fill="#73BCDD" opacity=".6"/><g opacity=".6"><path fill="url(#d)" d="M3.7 33l-3-2.6.9-1.1 3.1 2.6z" transform="translate(44)"/><path d="M7.3 28.8l-3-2.6 2-2.3 3 2.6-2 2.3zm4.5-5.3l-3-2.6 2-2.3 3 2.6-2 2.3zm4.6-5.3l-3-2.6 2-2.3 3 2.6-2 2.3zm4.6-5.3l-3-2.6L19.1 9l.4-.6 3.6 1.8-1 1.5-1.1 1.2zM19.6 6l-.9-1.3-.2-.1 2.4-3.2.4.3 2 3L19.6 6zm-4.9-1.2L12 1.9 15.7.1l.6 4-1.6.7z" fill="url(#e)" transform="translate(44)"/><path fill="url(#f)" d="M11.2 8.8l-3-2.6 1-1.1 3 2.6z" transform="translate(44)"/></g><path d="M56 20.4l-2.2-.2-.2.3-.5-.1-1.2-1.4-.1-.7 2.8-4.3 4.8.8v1.9l-2.3 2.6z" opacity=".6" fill="#85E1E7"/><path d="M59.2 14.8l-6.3 5.4.2.2.5.1.2-.3 2.2.2 1.1-1.1 2.3-2.6v-1.9z" opacity=".1" fill="#000"/></g><g fill="#FFF"><path d="M147.5 138.9c0-4.1 3.3-7.5 7.5-7.5 4.1 0 7.5 3.3 7.5 7.5h-15z"/><path d="M140.7 138.9c0-2.8 2.2-5 5-5s5 2.2 5 5h-10zm19.9.1c0-1.8 1.4-3.2 3.2-3.2 1.8 0 3.2 1.4 3.2 3.2h-6.4zm-27-41c0-2.5 2-4.5 4.5-4.5s4.5 2 4.5 4.5h-9z"/><path d="M129.5 98c0-1.7 1.4-3 3-3 1.7 0 3 1.4 3 3h-6zm12 0c0-1.1.9-1.9 1.9-1.9 1.1 0 1.9.9 1.9 1.9h-3.8z"/></g><g transform="translate(60 137)"><rect fill="#A3A2A1" x=".75" y="1" width="1" height="5" rx=".5"/><path d="M1.276 2A1.01 1.01 0 0 1 .25 1c0-.556.456-1 1.026-1 .57 0 1.026.444.97 1 .056.556-.4 1-.97 1z" fill="#8AAFB5"/><rect fill="#A3A2A1" x="7.75" y="4.75" width="1" height="5" rx=".5"/><path d="M8.276 5.75a1.01 1.01 0 0 1-1.026-1c0-.556.456-1 1.026-1 .57 0 1.026.444.97 1 .056.556-.4 1-.97 1z" fill="#8AAFB5"/><rect fill="#A3A2A1" x="3.75" y="3.5" width="1" height="5" rx=".5"/><path d="M4.276 4.5a1.01 1.01 0 0 1-1.026-1c0-.556.456-1 1.026-1 .57 0 1.026.444.97 1 .056.556-.4 1-.97 1z" fill="#8AAFB5"/><rect fill="#A3A2A1" x="11.75" y="5.75" width="1" height="5" rx=".5"/><path d="M12.276 6.75a1.01 1.01 0 0 1-1.026-1c0-.556.456-1 1.026-1 .57 0 1.026.444.97 1 .056.556-.4 1-.97 1z" fill="#8AAFB5"/><rect fill="#A3A2A1" x="16" y="6.5" width="1" height="5" rx=".5"/><path d="M16.526 7.5a1.01 1.01 0 0 1-1.026-1c0-.556.456-1 1.026-1 .57 0 1.026.444.97 1 .056.556-.4 1-.97 1z" fill="#8AAFB5"/><rect fill="#A3A2A1" x="20.25" y="7.25" width="1" height="5" rx=".5"/><path d="M20.776 8.25a1.01 1.01 0 0 1-1.026-1c0-.556.456-1 1.026-1 .57 0 1.026.444.97 1 .056.556-.4 1-.97 1z" fill="#8AAFB5"/><rect fill="#A3A2A1" x="24.5" y="7.75" width="1" height="5" rx=".5"/><path d="M25.026 8.75a1.01 1.01 0 0 1-1.026-1c0-.556.456-1 1.026-1 .57 0 1.026.444.97 1 .056.556-.4 1-.97 1z" fill="#8AAFB5"/><rect fill="#A3A2A1" x="28.75" y="8.25" width="1" height="5" rx=".5"/><path d="M29.276 9.25a1.01 1.01 0 0 1-1.026-1c0-.556.456-1 1.026-1 .57 0 1.026.444.97 1 .056.556-.4 1-.97 1z" fill="#8AAFB5"/><rect fill="#A3A2A1" x="32.75" y="8.75" width="1" height="5" rx=".5"/><path d="M33.276 9.75a1.01 1.01 0 0 1-1.026-1c0-.556.456-1 1.026-1 .57 0 1.026.444.97 1 .056.556-.4 1-.97 1z" fill="#8AAFB5"/><rect fill="#A3A2A1" x="36.75" y="9" width="1" height="5" rx=".5"/><path d="M37.276 10a1.01 1.01 0 0 1-1.026-1c0-.556.456-1 1.026-1 .57 0 1.026.444.97 1 .056.556-.4 1-.97 1z" fill="#8AAFB5"/><rect fill="#A3A2A1" x="41" y="9.5" width="1" height="5" rx=".5"/><path d="M41.526 10.5a1.01 1.01 0 0 1-1.026-1c0-.556.456-1 1.026-1 .57 0 1.026.444.97 1 .056.556-.4 1-.97 1z" fill="#8AAFB5"/><rect fill="#A3A2A1" x="45.25" y="9.75" width="1" height="5" rx=".5"/><path d="M45.776 10.75a1.01 1.01 0 0 1-1.026-1c0-.556.456-1 1.026-1 .57 0 1.026.444.97 1 .056.556-.4 1-.97 1z" fill="#8AAFB5"/><rect fill="#A3A2A1" x="49.5" y="10" width="1" height="5" rx=".5"/><path d="M50.026 11A1.01 1.01 0 0 1 49 10c0-.556.456-1 1.026-1 .57 0 1.026.444.97 1 .056.556-.4 1-.97 1z" fill="#8AAFB5"/><rect fill="#A3A2A1" x="53.5" y="10.25" width="1" height="5" rx=".5"/><path d="M54.026 11.25a1.01 1.01 0 0 1-1.026-1c0-.556.456-1 1.026-1 .57 0 1.026.444.97 1 .056.556-.4 1-.97 1z" fill="#8AAFB5"/><rect fill="#A3A2A1" x="57.75" y="10.5" width="1" height="5" rx=".5"/><path d="M58.276 11.5a1.01 1.01 0 0 1-1.026-1c0-.556.456-1 1.026-1 .57 0 1.026.444.97 1 .056.556-.4 1-.97 1z" fill="#8AAFB5"/><rect fill="#A3A2A1" x="62.5" y="10.5" width="1" height="5" rx=".5"/><path d="M63.026 11.5a1.01 1.01 0 0 1-1.026-1c0-.556.456-1 1.026-1 .57 0 1.026.444.97 1 .056.556-.4 1-.97 1z" fill="#8AAFB5"/><rect fill="#A3A2A1" x="66.75" y="10.75" width="1" height="5" rx=".5"/><path d="M67.276 11.75a1.01 1.01 0 0 1-1.026-1c0-.556.456-1 1.026-1 .57 0 1.026.444.97 1 .056.556-.4 1-.97 1z" fill="#8AAFB5"/><rect fill="#A3A2A1" x="71" y="10.875" width="1" height="5" rx=".5"/><path d="M71.526 11.875a1.01 1.01 0 0 1-1.026-1c0-.556.456-1 1.026-1 .57 0 1.026.444.97 1 .056.556-.4 1-.97 1z" fill="#8AAFB5"/><rect fill="#A3A2A1" x="75.25" y="11" width="1" height="5" rx=".5"/><path d="M75.776 12a1.01 1.01 0 0 1-1.026-1c0-.556.456-1 1.026-1 .57 0 1.026.444.97 1 .056.556-.4 1-.97 1z" fill="#8AAFB5"/><rect fill="#A3A2A1" x="79.5" y="11.25" width="1" height="5" rx=".5"/><path d="M80.026 12.25a1.01 1.01 0 0 1-1.026-1c0-.556.456-1 1.026-1 .57 0 1.026.444.97 1 .056.556-.4 1-.97 1z" fill="#8AAFB5"/><rect fill="#A3A2A1" x="83.5" y="11.25" width="1" height="5" rx=".5"/><path d="M84.026 12.25a1.01 1.01 0 0 1-1.026-1c0-.556.456-1 1.026-1 .57 0 1.026.444.97 1 .056.556-.4 1-.97 1z" fill="#8AAFB5"/><rect fill="#A3A2A1" x="87.5" y="11.25" width="1" height="5" rx=".5"/><path d="M88.026 12.25a1.01 1.01 0 0 1-1.026-1c0-.556.456-1 1.026-1 .57 0 1.026.444.97 1 .056.556-.4 1-.97 1z" fill="#8AAFB5"/><rect fill="#A3A2A1" x="91.75" y="11.25" width="1" height="5" rx=".5"/><path d="M92.276 12.25a1.01 1.01 0 0 1-1.026-1c0-.556.456-1 1.026-1 .57 0 1.026.444.97 1 .056.556-.4 1-.97 1z" fill="#8AAFB5"/><rect fill="#A3A2A1" x="182.75" y="1" width="1" height="5" rx=".5"/><path d="M183.276 2a1.01 1.01 0 0 1-1.026-1c0-.556.456-1 1.026-1 .57 0 1.026.444.97 1 .056.556-.4 1-.97 1z" fill="#8AAFB5"/><rect fill="#A3A2A1" x="175.75" y="4.75" width="1" height="5" rx=".5"/><path d="M176.276 5.75a1.01 1.01 0 0 1-1.026-1c0-.556.456-1 1.026-1 .57 0 1.026.444.97 1 .056.556-.4 1-.97 1z" fill="#8AAFB5"/><rect fill="#A3A2A1" x="179.75" y="3.5" width="1" height="5" rx=".5"/><path d="M180.276 4.5a1.01 1.01 0 0 1-1.026-1c0-.556.456-1 1.026-1 .57 0 1.026.444.97 1 .056.556-.4 1-.97 1z" fill="#8AAFB5"/><rect fill="#A3A2A1" x="171.75" y="5.75" width="1" height="5" rx=".5"/><path d="M172.276 6.75a1.01 1.01 0 0 1-1.026-1c0-.556.456-1 1.026-1 .57 0 1.026.444.97 1 .056.556-.4 1-.97 1z" fill="#8AAFB5"/><rect fill="#A3A2A1" x="167.5" y="6.5" width="1" height="5" rx=".5"/><path d="M168.026 7.5a1.01 1.01 0 0 1-1.026-1c0-.556.456-1 1.026-1 .57 0 1.026.444.97 1 .056.556-.4 1-.97 1z" fill="#8AAFB5"/><rect fill="#A3A2A1" x="163.25" y="7.25" width="1" height="5" rx=".5"/><path d="M163.776 8.25a1.01 1.01 0 0 1-1.026-1c0-.556.456-1 1.026-1 .57 0 1.026.444.97 1 .056.556-.4 1-.97 1z" fill="#8AAFB5"/><rect fill="#A3A2A1" x="159" y="7.75" width="1" height="5" rx=".5"/><path d="M159.526 8.75a1.01 1.01 0 0 1-1.026-1c0-.556.456-1 1.026-1 .57 0 1.026.444.97 1 .056.556-.4 1-.97 1z" fill="#8AAFB5"/><rect fill="#A3A2A1" x="154.75" y="8.25" width="1" height="5" rx=".5"/><path d="M155.276 9.25a1.01 1.01 0 0 1-1.026-1c0-.556.456-1 1.026-1 .57 0 1.026.444.97 1 .056.556-.4 1-.97 1z" fill="#8AAFB5"/><rect fill="#A3A2A1" x="150.75" y="8.75" width="1" height="5" rx=".5"/><path d="M151.276 9.75a1.01 1.01 0 0 1-1.026-1c0-.556.456-1 1.026-1 .57 0 1.026.444.97 1 .056.556-.4 1-.97 1z" fill="#8AAFB5"/><rect fill="#A3A2A1" x="146.75" y="9" width="1" height="5" rx=".5"/><path d="M147.276 10a1.01 1.01 0 0 1-1.026-1c0-.556.456-1 1.026-1 .57 0 1.026.444.97 1 .056.556-.4 1-.97 1z" fill="#8AAFB5"/><rect fill="#A3A2A1" x="142.5" y="9.5" width="1" height="5" rx=".5"/><path d="M143.026 10.5a1.01 1.01 0 0 1-1.026-1c0-.556.456-1 1.026-1 .57 0 1.026.444.97 1 .056.556-.4 1-.97 1z" fill="#8AAFB5"/><rect fill="#A3A2A1" x="138.25" y="9.75" width="1" height="5" rx=".5"/><path d="M138.776 10.75a1.01 1.01 0 0 1-1.026-1c0-.556.456-1 1.026-1 .57 0 1.026.444.97 1 .056.556-.4 1-.97 1z" fill="#8AAFB5"/><rect fill="#A3A2A1" x="134" y="10" width="1" height="5" rx=".5"/><path d="M134.526 11a1.01 1.01 0 0 1-1.026-1c0-.556.456-1 1.026-1 .57 0 1.026.444.97 1 .056.556-.4 1-.97 1z" fill="#8AAFB5"/><rect fill="#A3A2A1" x="130" y="10.25" width="1" height="5" rx=".5"/><path d="M130.526 11.25a1.01 1.01 0 0 1-1.026-1c0-.556.456-1 1.026-1 .57 0 1.026.444.97 1 .056.556-.4 1-.97 1z" fill="#8AAFB5"/><rect fill="#A3A2A1" x="125.75" y="10.5" width="1" height="5" rx=".5"/><path d="M126.276 11.5a1.01 1.01 0 0 1-1.026-1c0-.556.456-1 1.026-1 .57 0 1.026.444.97 1 .056.556-.4 1-.97 1z" fill="#8AAFB5"/><rect fill="#A3A2A1" x="121" y="10.5" width="1" height="5" rx=".5"/><path d="M121.526 11.5a1.01 1.01 0 0 1-1.026-1c0-.556.456-1 1.026-1 .57 0 1.026.444.97 1 .056.556-.4 1-.97 1z" fill="#8AAFB5"/><rect fill="#A3A2A1" x="116.75" y="10.75" width="1" height="5" rx=".5"/><path d="M117.276 11.75a1.01 1.01 0 0 1-1.026-1c0-.556.456-1 1.026-1 .57 0 1.026.444.97 1 .056.556-.4 1-.97 1z" fill="#8AAFB5"/><rect fill="#A3A2A1" x="112.5" y="10.75" width="1" height="5" rx=".5"/><path d="M113.026 11.75a1.01 1.01 0 0 1-1.026-1c0-.556.456-1 1.026-1 .57 0 1.026.444.97 1 .056.556-.4 1-.97 1z" fill="#8AAFB5"/><rect fill="#A3A2A1" x="108.25" y="11" width="1" height="5" rx=".5"/><path d="M108.776 12a1.01 1.01 0 0 1-1.026-1c0-.556.456-1 1.026-1 .57 0 1.026.444.97 1 .056.556-.4 1-.97 1z" fill="#8AAFB5"/><rect fill="#A3A2A1" x="104" y="11.25" width="1" height="5" rx=".5"/><path d="M104.526 12.25a1.01 1.01 0 0 1-1.026-1c0-.556.456-1 1.026-1 .57 0 1.026.444.97 1 .056.556-.4 1-.97 1z" fill="#8AAFB5"/><rect fill="#A3A2A1" x="100" y="11.25" width="1" height="5" rx=".5"/><path d="M100.526 12.25a1.01 1.01 0 0 1-1.026-1c0-.556.456-1 1.026-1 .57 0 1.026.444.97 1 .056.556-.4 1-.97 1z" fill="#8AAFB5"/><rect fill="#A3A2A1" x="96" y="11.25" width="1" height="5" rx=".5"/><path d="M96.526 12.25a1.01 1.01 0 0 1-1.026-1c0-.556.456-1 1.026-1 .57 0 1.026.444.97 1 .056.556-.4 1-.97 1z" fill="#8AAFB5"/></g><g transform="translate(87 130)"><path d="M14.6 18.1c0 1.9-1.6 3.5-3.5 3.5S7.6 20 7.6 18.1v-4.8c0-1.9 1.6-3.5 3.5-3.5s3.5 1.6 3.5 3.5v4.8z" fill="#D63E3E"/><path fill="#FFF" d="M11.9 21.9v4.3H10v-4.3"/><path d="M10.5 19.6c1.2 0 1.4.6 1.4 1.2v2.6H10v-2.9l.5-.9z" fill="#D63E3E"/><path d="M9.9 25.9H12c.7 1.4 2.5 1.4 2.8.4 0 0 1 1.9-3.4 1.6-1-.1-1.8-1-1.5-2zm-2.2-9.5h6.9v1.7H7.7v-1.7z" fill="#333"/><path fill="#FFD400" d="M14.3 16.2h.5v2h-.5z"/><circle fill="#FFDF8A" cx="11.2" cy="16.7" r="1.3"/><path d="M11.2 1.6s-6.9-.5-9.7.2c0 0 4.1 1.7 4.1 3.9l5.6-4.1z" fill="#D63E3E"/><path d="M12.8 4.4c1.2 1.5.9 3.7-.6 4.9-1.5 1.2-3.7.9-4.9-.6-1.2-1.5-.9-3.7.6-4.9 1.6-1.2 3.8-.9 4.9.6z" fill="#FFDF8A"/><path d="M9.5 3.1c-.5.1-1.1.3-1.5.7C6.5 5 6.2 7.2 7.4 8.7c.5.7 1.3 1.1 2 1.2 2.1-2.7.8-5.5.1-6.8z" fill="#C26D11"/><path d="M11.5 6.6l-3.1-.9s2 3.6 3.4 1.8l-.3-.9z" fill="#FFDF8A"/><path d="M11.7 2.1c.2.2.1.5-.1.6L6.2 7c-.2.2-.5.1-.6-.1l-.5-.7c-.2-.2-.1-.5.1-.6l5.4-4.3c.2-.2.5-.1.6.1l.5.7z" fill="#FFF"/><circle fill="#333" cx="11.5" cy="4.8" r=".6"/><circle fill="#FFF" cx=".7" cy="1.6" r=".7"/><path d="M12.3 4.5l3.1-1.3c.3-.2.6.2.2.5l-3 2.4-.3-1.6z" fill="#FFDF8A"/></g><g transform="translate(104 132)"><circle fill="#FFDF8A" cx="8.2" cy="15.8" r="1.3"/><path d="M15.3 17.2c0 1.9-1.6 3.5-3.5 3.5s-3.5-1.6-3.5-3.5v-4.8c0-1.9 1.6-3.5 3.5-3.5s3.5 1.6 3.5 3.5v4.8z" fill="#6D42E3"/><path fill="#FFF" d="M13.9 21v4.3H12V21"/><path d="M12.5 18.7c1.2 0 1.4.6 1.4 1.2v2.6H12v-2.9l.5-.9z" fill="#6D42E3"/><path d="M11.9 25H14c.7 1.4 2.5 1.4 2.8.4 0 0 1 1.9-3.4 1.6-1-.1-1.9-1-1.5-2z" fill="#333"/><path fill="#FFF" d="M11.2 21v4.3H9.4V21"/><path d="M9.8 18.7c1.2 0 1.4.6 1.4 1.2v2.6H9.4v-2.9l.4-.9z" fill="#6D42E3"/><path d="M9.2 25h2.1c.7 1.4.7 1.5.9.5 0 0 2.8 1.7-1.5 1.5-1-.1-1.8-1-1.5-2zm-.8-9.5h6.9v1.7H8.4v-1.7z" fill="#333"/><path fill="#FFD400" d="M15.1 15.3h.5v2h-.5z"/><circle fill="#FFDF8A" cx="15.3" cy="15.8" r="1.3"/><path d="M11.7 5.2l2.9-1.8c.2-.3.6.1.3.5l-2.6 2.9-.6-1.6z" fill="#FFDF8A"/><path d="M11.9.7S5 .2 2.2.9c0 0 4.1 1.7 4.1 3.9L11.9.7z" fill="#6D42E3"/><path d="M13.6 3.5c1.2 1.5.9 3.7-.6 4.9-1.5 1.2-3.7.9-4.9-.6-1.2-1.5-.9-3.7.6-4.9 1.5-1.2 3.7-.9 4.9.6z" fill="#FFDF8A"/><path d="M10.2 2.2c-.5.1-1.1.3-1.5.7-1.5 1.2-1.8 3.4-.6 4.9.5.7 1.3 1.1 2 1.2 3.3-.1 4-7.3.1-6.8z" fill="#C26D11"/><path d="M15 9.1c-.6.1-1.3 0-1.9-.4-.6-.4-1-.9-1.2-1.5.6-.1 1.3 0 1.9.4.6.4 1 .9 1.2 1.5zm-8.1 1.3c.6-.2 1.1-.6 1.5-1.2.3-.6.5-1.3.3-1.9-.6.2-1.1.6-1.5 1.2-.3.6-.4 1.3-.3 1.9z" fill="#C26D11"/><path d="M13.2 5.2l-1.4-1.3s-.4 3.8 1.2 2.3l.2-1z" fill="#FFDF8A"/><path d="M12.4 1.2c.2.2.1.5-.1.6L6.9 6.1c-.2.2-.5.1-.6-.1l-.5-.7c-.2-.2-.1-.5.1-.6L11.3.4c.2-.2.5-.1.6.1l.5.7z" fill="#FFF"/><circle fill="#FFF" cx="1.5" cy=".7" r=".7"/></g><g transform="translate(170 108)"><path d="M8.8 11.9l3.1 1.3c.4 0 .3.5-.2.5l-3.9-.5 1-1.3z" fill="#FFDF8A"/><path d="M12.6 9.5S9.1 3.6 7 1.7c0 0 1 4.3-.9 5.6l6.5 2.2z" fill="#16C447"/><path d="M11.3 12.5c-.5 1.8-2.5 2.9-4.3 2.3-1.8-.5-2.9-2.5-2.3-4.3.5-1.8 2.5-2.9 4.3-2.3 1.8.5 2.8 2.5 2.3 4.3z" fill="#FFDF8A"/><path d="M10.4 9c-.4-.4-.9-.7-1.4-.8-1.8-.5-3.8.5-4.3 2.3-.2.8-.2 1.6.1 2.4 1.9 2.6 8.2-1 5.6-3.9z" fill="#F5A816"/><path d="M9.6 13.1l.3-1.9S6.5 13 8.7 13.5l.9-.4z" fill="#FFDF8A"/><path d="M12.5 10.3c-.1.2-.3.4-.6.3l-6.6-2c-.2-.1-.4-.3-.3-.6l.2-.8c.1-.2.3-.4.6-.3l6.6 2c.2.1.4.3.3.6l-.2.8z" fill="#FFF"/><circle fill="#FFF" cx="6.6" cy="1" r=".7"/><circle fill="#FFDF8A" cx="2.1" cy="21.1" r="1.3"/><path d="M9.3 22.5c0 1.9-1.6 3.5-3.5 3.5s-3.5-1.6-3.5-3.5v-4.8c0-1.9 1.6-3.5 3.5-3.5s3.5 1.6 3.5 3.5v4.8z" fill="#16C447"/><path fill="#FFF" d="M7.8 26.3v4.3H6v-4.3"/><path d="M6.4 24c1.2 0 1.4.6 1.4 1.2v2.6H6v-2.9l.4-.9z" fill="#16C447"/><path d="M5.8 30.3h2.1c.7 1.4 2.5 1.4 2.8.4 0 0 1 1.9-3.4 1.6-1-.1-1.8-1.1-1.5-2z" fill="#333"/><path fill="#FFF" d="M5.1 26.3v4.3H3.3v-4.3"/><path d="M3.7 24c1.2 0 1.4.6 1.4 1.2v2.6H3.3v-2.9l.4-.9z" fill="#16C447"/><path d="M3.2 30.3h2.1c.7 1.4.7 1.5.9.5 0 0 2.8 1.7-1.5 1.5-1.1-.1-1.9-1.1-1.5-2zm-.9-9.5h6.9v1.7H2.3v-1.7z" fill="#333"/><path fill="#FFD400" d="M9 20.6h.5v2H9z"/><circle fill="#FFDF8A" cx="9.2" cy="21.1" r="1.3"/></g></g></svg>