<svg id="Layer_1" xmlns="http://www.w3.org/2000/svg" viewBox="0 0 22.4 19"><style>.st0{fill:#c48e4f}.st1{fill:#231f20}.st1,.st2{opacity:.1}.st3{fill:#231f20}.st4{fill:#FFF}.st5{fill:#666}.st6{fill:#f8afae}.st7{fill:#333}</style><path class="st0" d="M22.4 19c-.2-4.4-3.7-8.8-5.6-8.8-3.6-.6-1.3 5.4 1.8 8.8h3.8z"/><path class="st1" d="M22.4 19c-.2-4.4-3.7-8.8-5.6-8.8-3.6-.6-1.3 5.4 1.8 8.8h3.8z"/><path class="st0" d="M19.3 19c.2-.9.4-1.8.4-2.7 0-5.1-3.7-9.2-8.3-9.2-4.6 0-8.3 4.1-8.3 9.2 0 1 .1 1.9.4 2.7h15.8z"/><path class="st2 st3" d="M12.1 11.9c2 0 3.7-1.1 4.5-2.7-1.4-1.3-3.2-2.1-5.2-2.1-1.5 0-3 .5-4.2 1.3.7 2 2.6 3.5 4.9 3.5zM16.5 19h2.8c.2-.9.4-1.8.4-2.7 0-2.4-.8-4.5-2.1-6.2.4 1.1.6 2.2.6 3.4-.1 2-.7 4-1.7 5.5z"/><path class="st0" d="M.7 0C-1.5 4.7 1.8 11.5 4 11.9 8.7 13.6 4.9 1.1.7 0z"/><circle class="st0" cx="11.6" cy="5.3" r="5.1"/><path class="st2 st3" d="M14.1.9c1.1.9 1.8 2.3 1.8 3.9 0 2.8-2.3 5.1-5.1 5.1-1 0-1.8-.3-2.6-.7.9.8 2.1 1.2 3.3 1.2 2.8 0 5.1-2.3 5.1-5.1.1-1.9-1-3.5-2.5-4.4z"/><path class="st4" d="M8.9 7.1s-.4 4.3 1.1 5.8V7.5M14.1 7.1s.4 4.3-1.1 5.8V7.5"/><circle class="st5" cx="11.6" cy="5.2" r="1.2"/><path class="st6" d="M13.3 4.3c-.7 0-1.4.4-1.7 1-.4-.6-1-1-1.7-1-1.1 0-2 .9-2 2s.9 2 2 2c.7 0 1.4-.4 1.7-1 .4.6 1 1 1.7 1 1.1 0 2-.9 2-2s-.9-2-2-2z"/><path class="st2 st3" d="M14.9 5.2c.1.2.1.4.1.6 0 1.1-.9 2-2 2-.7 0-1.4-.4-1.7-1-.4.6-1 1-1.7 1S8.3 7.5 8 7c.3.8 1 1.4 1.9 1.4.7 0 1.4-.4 1.7-1 .4.6 1 1 1.7 1 1.1 0 2-.9 2-2 0-.5-.2-.9-.4-1.2z"/><circle class="st7" cx="9.4" cy="3" r=".6"/><circle class="st7" cx="13.4" cy="3" r=".6"/></svg>