<svg id="layout" xmlns="http://www.w3.org/2000/svg" xmlns:xlink="http://www.w3.org/1999/xlink" viewBox="0 0 286.9 171.3"><style>.st0{opacity:.6}.st1{fill:#85e1e7}.st2{opacity:.1;enable-background:new}.st3{fill:#e7f3f2}.st4{fill:#d2e3e6}.st5,.st7{opacity:.19;enable-background:new}.st7{opacity:.6;fill:none;stroke:#5b93c1;stroke-width:4.63;stroke-linecap:round;stroke-miterlimit:10}.st8{fill:#73bcdd}.st9{fill:#48aacf}.st12{opacity:.6;fill:#85e1e7;enable-background:new}.st13{fill:#62accd}.st14{opacity:.1}.st15{opacity:.28}.st16{fill:#81ffff}.st18,.st21,.st26{opacity:.6;fill:#73bcdd;enable-background:new}.st21,.st26{fill:#48aacf}.st26{opacity:.28;fill:#81ffff}.st28{fill:#fff}.st29{stroke:#a3a2a1;stroke-width:.93}.st29,.st30,.st31,.st44{fill:none;stroke-linecap:round;stroke-miterlimit:10}.st30{stroke-dasharray:0,4.22;stroke:#a3a2a1;stroke-width:.93}.st31,.st44{stroke:#8aafb5;stroke-width:1.65}.st44{stroke:#ee3c39;stroke-width:1.605}.st45{fill:#332e2e}.st46{fill:#f9ce1d}.st47{fill:#ee3c39}.st48{fill:#fadcbc}.st49{fill:#774d2e}.st50{fill:none;stroke:#5590cc;stroke-width:1.605;stroke-linecap:round;stroke-miterlimit:10}.st51{fill:#231f20}.st52{fill:#5590cc}.st53{fill:#584539}.st54{fill:#f47c20}.st55{fill:none;stroke:#32a558;stroke-width:1.605;stroke-linecap:round;stroke-miterlimit:10}.st56{fill:#32a558}.st58{fill:#f6f3ec}.st59{fill:#d7d7d7}</style><symbol id="New_Symbol_114-2" viewBox="-143.4 -85.6 286.9 171.3"><g class="st0"><path class="st1" d="M-14.1-67.6h.4l.1.1.3.2.5.2h.3l.1-.1h.2l.2.2.3.3.1.2V-66.2l-.1.1-.2.5-.2.5-.2.2h-.1l-.1.3h-.1v.1l-.8.2-.7-.3-.9-.8-.2-.3-.2-.4.1-.2.6-.9z"/></g><use xlink:href="#New_Symbol_65" width="286.9" height="41.6" x="-143.5" y="-20.8" transform="translate(0 64.8513) scale(.9999)" overflow="visible"/><ellipse class="st2" cx="7.4" cy="53.3" rx="79.4" ry="5.5"/><ellipse class="st3" cx="7.4" cy="51.9" rx="79.4" ry="5.5"/><path class="st4" d="M68.5 50.1L24.3 49l-42.9-1.1-17.6-.5V31.8l37.4-6.9L44.6 17l10.1-1.9 8.1 1.1z"/><path class="st2" d="M44.6 17L24.3 49l-1.7 2.6h-44.4l3.2-3.7 19.8-23z"/><path class="st4" d="M55.8 15.4c1.8-1.4 12.4 3.2 3.8 10.2-7.9 6.4-9.4 24-9.4 24l18.3.6-4.6-31.9c0-.2.1-3.9-8.1-2.9z"/><path class="st5" d="M55.8 15.4c1.8-1.4 12.4 3.2 3.8 10.2-7.9 6.4-1.8 24-1.8 24l10.7.6-4.6-31.9c0-.2.1-3.9-8.1-2.9z"/><path class="st4" d="M36.9 40.1h11.2l2.1-5.6H39z"/><radialGradient id="SVGID_1_" cx="14.195" cy="-13.9837" r="1.62" gradientUnits="userSpaceOnUse"><stop offset="0" stop-color="#de4a3f"/><stop offset=".65" stop-color="#d43e30"/><stop offset=".93" stop-color="#ce392e"/><stop offset="1" stop-color="#cb372d"/></radialGradient><path d="M14.4-15.8c-.6 1.4-1.2 2.9-1.6 3.7h1.4s.6-1.6 1.3-3.5" opacity=".6" fill="url(#SVGID_1_)"/><path class="st7" d="M14-28.3c1.3.6 2.6 1.3 3.8 2.2 1.6 1.2 3 2.7 3.9 4.4.9 1.7 1.2 3.7.7 5.7-.1.6-.4 1.1-.9 1.5-.4.3-.8.5-1.3.6-3 .8-6.1.8-9.1 0"/><g class="st0"><path class="st8" d="M-9.3-30.9s-.6 3-.7 3c-4.3-.2-7.7-6.3-10.3-11.5-3.5-6.9-4.7-18.2.9-26.8.8-1 2.2-1.2 3.2-.4.9.7 1.1 1.9.6 2.9-4.6 7.1-1.9 16.2.9 21.9 1.9 3.7 2.8 6.2 5.4 6.3 1.3 0 2.3 1.1 2.2 2.4.2 1.3-.9 2.3-2.2 2.2z"/></g><g class="st0"><path class="st1" d="M-20.2-39.4l-2.7-8.9.2-9.3 3.4-8.6 3.2-.7-4.6 13.5z"/></g><g class="st0"><path class="st9" d="M-9.8-33.4l-4.7-4.8-3-6-.8-6.7.4-3.6 3.1 12.3z"/></g><path opacity=".6" fill="#3e31ff" d="M7.4-9.4H-6l.8-.9H6.7"/><path opacity=".6" fill="#1b4df9" d="M.7-9.4H-6l.8-.9H.7z"/><path class="st12" d="M-7-47.1l-3.3-4.4s-1.9 11.4 4.4 10L-7-47.1z"/><g class="st0"><path class="st13" d="M-7.3-56.1l5.3-3.4 3.8-6.2 6.5-3.1 4.5-4.7-2.2 7.9 1 8.3-6.6-.3-6.3.8z"/></g><g class="st14"><path d="M-2.4-56.2l4.1-7 5.4-5.1 6.2-4.9-3.1 7.8 1 7.4-6.5 1.6z"/></g><g class="st0"><path class="st8" d="M-8.7-45.7l3.1 7.7L2-36.7v1.9l8.4-3.2 3.5-7.7-.8-3.5-3.5-6.3-7.6-.9v1.3l-6.4 2.9-3 6.6z"/></g><g class="st14"><path d="M3.1-44.9l-2 4.7.9 3.6v1.7l8.3-3.2 3.7-7.6-.8-3.5-3.6-6.2-7.7-.9-5.2 2.8L3-52.1l-1.3.8z"/></g><g class="st15"><path class="st16" d="M-8.6-45.7l3.1 7.6L2-36.6v1.7l4.5-6.9-.8-7.7L2-55.3v-1.1l-7.4 3.2-2 7.6z"/></g><path d="M6.3-45.1C5.6-42.6 3-41.2.5-41.9c-1.6-.4-2.8-1.7-3.2-3.2h9z" opacity=".6" fill="#fff"/><g class="st0"><path class="st8" d="M-8.9-51.5l1.6 1.1 6-3.3 7.1-.5 6.6 2.8 1.4-.1-1.4-2.4.1-2.8-6.7-2.7-7.1 1-6.4 2.4-.8 2.1z"/></g><g class="st15"><path class="st16" d="M-7.6-50.6l3.7-.8 2.7-3.8-6.6-1-1.4 2.3.5 2.4z"/></g><g class="st0"><path class="st13" d="M15.6-74l-2.1 2.3-2.2-2.3 2.2-2z"/></g><path class="st18" d="M13.1-47.1l2.8-4.4s1.9 11.4-3.9 10l1.1-5.6z"/><path class="st2" d="M13.1-47.1l2.8-4.4s1.9 11.4-3.9 10l1.1-5.6z"/><g class="st0"><path class="st1" d="M-14.9-43.2l5.1 2.3.5 1.3 5.2 1.2-11.4 20.1-1-5.3z"/><path fill="#2e93c1" d="M18.5-33.7L6.7-38.4v17.5l10.8 2.6z"/><path class="st1" d="M-14.9-43.2l5.1 2.3.5 1.3 5.2 1.2v17.5l-11.4 2.6z"/></g><path d="M12.8 19.7C9 22.3 5.3 24.9 1.6 27.5-2.4 14-4.3 0-4.3-14.1c4.8-4.2 9.9-8.4 15.1-12.6-1.8 15.4-1.2 31.1 2 46.4z" opacity=".6" fill="#1e9ae3"/><path class="st18" d="M-10.9 25.9c1 5.5 8.3 9.9 13.8 9.9h7.7c5.5 0 8.3-4.4 6.6-9.8-4.6-14.9-6.8-30.3-6.5-45.9.1-5.5-3.8-9.9-9.2-9.9s-12.2 3.2-13 8.7c-2.2 15.5-2.1 31.4.6 47z"/><path class="st12" d="M-10.3 19.7c4.7 2.6 9.4 5.2 14.2 7.8C.5 12.8-.5-2.3.9-17.3c-3.3-2.4-5.5-4.9-8.7-7.3C-10.6-10-12.1 5-10.3 19.7z"/><g class="st0"><path class="st9" d="M9-28.8v-.1l-.3-1.8.9-4.1-.6.3-.4-4.5-6.6.7-6.8.6.7 5.6-2.5 5.2v7.5l-1.6 7.2-.4 7.4-.4 7.3.7 7.3-.4 7.4 1.5 6.8 8.1-2.1 8.3-3.6-2.3-7L7 4.6 5.5-2.1l1.8-6.8-1.5-6.7L8-22.2z"/></g><path class="st18" d="M9.2 19C4 21.1-1 23.2-6.1 25.3-9 10.3-9.6-5-7.6-20.2c5.3-3.2 10.6-6.4 16.1-9.6C5.9-13.6 6.1 2.9 9.2 19z"/><path class="st21" d="M9.2 19C5.1 21 1 23-3 24.9c-3.4-15.3-4.4-31-2.7-46.6 4.6-2.7 9.3-5.4 14.1-8.1C5.9-13.6 6.1 2.9 9.2 19z"/><path class="st18" d="M12.8 19.7C8.7 22.3 4.6 24.9.6 27.5-3.6 13.3-5.6-1.4-5.3-16.2 0-19.7 5.4-23.3 10.9-26.8 9-11.3 9.6 4.4 12.8 19.7z"/><path class="st21" d="M16.4 22.6c-2.5 1.2-8.1 2.4-10.6 3.6C.1 12.5-3.7-2.1-5.2-16.9c5.3-3.3 10.6-6.6 16.1-9.9-2.1 16.3 1.8 33 5.5 49.4z"/><path d="M-2.7 22.4c-2.9 1.2 9.5 1.9 6.6 3.1C-2.6 11.7-6.9-3.2-8.8-18.4c6.1-3.4 12.3-6.7 18.7-10.1C7.5-11.9-6.9 5.7-2.7 22.4z" opacity=".15" fill="#81ffff"/><path d="M16.4 22.6c-2.5 1.2-8.1 2.4-10.6 3.6C-.1 12 2.3-13.1 2.3-13.1s3.1-10.4 8.6-13.7c-2.1 16.3 1.8 33 5.5 49.4z" opacity=".6" fill="#2e93c1"/><path class="st12" d="M-11 19.7c.9 2.2 1.8 4.4 2.8 6.6-3.8-15.7-4.9-31.9-3.3-47.9.8-1.7 1.5-3.5 2.4-5.2-3.2 15.3-3.8 31-1.9 46.5z"/><path class="st18" d="M-5.2-26.8c.5-2.7 1.1-5.3 1.7-8 4.1 2.7 8.3 5.3 12.5 8H-5.2z"/><path opacity=".67" fill="#62accd" d="M14.1-37l-6-2.1L5-23.2l9.1-2z"/><path class="st2" d="M12.1-37.6l-4.4-1.5-1.1 6.2 2.3 2.5 2.9-3.5z"/><path opacity=".67" fill="#9dcfd8" d="M-10.6-37l9.2-3.2v17l-9.2-2z"/><path class="st26" d="M-10.6-37l9.2-3.2-1.3 9.4-7.9 5.6zM-16.1-43.2l3.1 2.5-2.2 13.6-1.3-2 1.6-8.1z"/><path class="st3" d="M-15.4 12.2h31.7V34h-31.7z"/><path class="st5" d="M2.8 12.2h13.4V34H2.8z"/><ellipse class="st2" cx="11.5" cy="50.8" rx="37.3" ry="3.8"/><path class="st3" d="M22.6 51.6h-44.4l4-34.5h36.4z"/><path class="st2" d="M5.3 17.1l1 34.5h16.3l-4-34.5z"/><path class="st4" d="M41.7 40.1H44v10.8h-2.3z"/><path class="st5" d="M43 40.1h1v10.8h-1z"/><ellipse cx="43.5" cy="52.8" rx="12.1" ry="1.3" opacity=".08"/><path class="st4" d="M46.5 52.3h-7.2l.6-2.2h5.9z"/><path class="st2" d="M42.2 50.1l.1 2.2h4.2l-.7-2.2z"/><path class="st28" d="M4 53.2c0-4.1 3.3-7.5 7.5-7.5 4.1 0 7.5 3.3 7.5 7.5H4z"/><path class="st28" d="M-2.7 53.2c0-2.8 2.2-5 5-5s5 2.2 5 5h-10zM17.1 53.4c.1-1.8 1.6-3.1 3.4-3 1.6.1 2.9 1.4 3 3h-6.4zM-9.9 12.4c.2-2.5 2.4-4.4 4.8-4.2 2.3.2 4 1.9 4.2 4.2h-9z"/><path class="st28" d="M-13.9 12.4c0-1.7 1.3-3 3-3s3 1.3 3 3h-6zM-1.9 12.4c.1-1.1 1-1.9 2.1-1.8 1 .1 1.7.8 1.8 1.8h-3.9z"/><path class="st5" d="M-5 37.2h-9c0-1.3-1.1-2.4-2.4-2.4v-3.4c1.3 0 2.4-1.1 2.4-2.4h9c0 1.3 1.1 2.4 2.4 2.4v3.4C-4 34.8-5 35.9-5 37.2z"/><path class="st4" d="M36.6 40.1h10.1l2.3-5.6H38.8z"/><path class="st5" d="M36.6 40.1h10.1l2.3-5.6H38.8z"/><path class="st29" d="M100.1 52.2"/><path class="st30" d="M97.1 54.8C86.7 59.1 51.2 62.3 9 62.3c-45.3 0-82.9-3.7-90-8.4"/><path class="st29" d="M100.1 52.4"/><path class="st30" d="M97.1 55C86.7 59.3 51.2 62.5 9 62.5c-45.3 0-82.9-3.7-90-8.4"/><path class="st29" d="M100.1 52.6"/><path class="st30" d="M97.1 55.2C86.7 59.5 51.2 62.7 9 62.7c-45.3 0-82.9-3.7-90-8.5"/><path class="st29" d="M100.1 52.9"/><path class="st30" d="M97.1 55.5C86.7 59.8 51.1 63 8.9 63c-45.3 0-82.9-3.6-90-8.4"/><path class="st29" d="M100.1 53.2"/><path class="st30" d="M97.1 55.8C86.7 60.1 51.2 63.3 9 63.3c-45.3 0-82.9-3.7-90-8.4"/><path class="st29" d="M100.1 53.4"/><path class="st30" d="M97.1 56C86.7 60.3 51.2 63.5 9 63.5c-45.3 0-82.9-3.7-90-8.5"/><path class="st29" d="M100.1 53.7"/><path class="st30" d="M97.1 56.4C86.7 60.7 51.2 63.9 9 63.9c-45.3 0-82.9-3.7-90-8.4"/><path class="st29" d="M100.1 54"/><path class="st30" d="M97.1 56.6C86.7 60.9 51.2 64.1 9 64.1c-45.3 0-82.9-3.7-90-8.5"/><path class="st29" d="M100.1 52.5"/><path class="st30" d="M97.1 55.1C86.7 59.4 51.2 62.6 9 62.6c-45.3 0-82.9-3.7-90-8.5"/><path class="st29" d="M100.1 52.8"/><path class="st30" d="M97.1 55.4C86.7 59.7 51.2 62.9 9 62.9c-45.3 0-82.9-3.7-90-8.4"/><path class="st29" d="M100.1 53"/><path class="st30" d="M97.1 55.6c-10.4 4.4-46 7.5-88.2 7.5-45.3 0-82.9-3.7-90-8.5"/><path class="st29" d="M100.1 53.3"/><path class="st30" d="M97.1 55.9C86.7 60.2 51.2 63.4 9 63.4c-45.3 0-82.9-3.7-90-8.4"/><path class="st29" d="M100.1 53.6"/><path class="st30" d="M97.1 56.2C86.7 60.5 51.2 63.7 9 63.7c-45.3 0-82.9-3.7-90-8.5"/><path class="st29" d="M100.1 53.8"/><path class="st30" d="M97.1 56.4C86.7 60.7 51.2 63.9 9 63.9c-45.3 0-82.9-3.7-90-8.4"/><path class="st29" d="M100.1 57"/><path class="st30" d="M97.1 59.6C86.7 63.9 51.2 67.1 9 67.1c-45.3 0-82.9-3.7-90-8.4"/><path class="st29" d="M100.1 55.7"/><path class="st30" d="M97.1 58.4C86.7 62.7 51.2 65.9 9 65.9c-45.3 0-82.9-3.7-90-8.5"/><path class="st29" d="M-82.3 55.7"/><path class="st31" d="M100.1 52.2"/><path d="M97.1 54.8C86.7 59.1 51.2 62.3 9 62.3c-45.3 0-82.9-3.7-90-8.5" fill="none" stroke="#8aafb5" stroke-width="1.65" stroke-linecap="round" stroke-miterlimit="10" stroke-dasharray="0,4.22"/><path class="st31" d="M-82.3 52.2"/><g opacity=".8"><path opacity=".99" fill="#91f3fa" d="M2.3-17.1h10.9l4.5-8.6H6.9z"/><path fill="#1fc2f5" d="M2.3-17.1h10.9l5.7 4.6H8z"/><path opacity=".99" fill="#62accd" d="M7.7-13.1h10.9l4.5-8.6H12.2z"/><path opacity=".99" fill="#a9dee8" d="M12-21.7h10.9l-5.2-4H6.9z"/></g><path class="st7" d="M9.2-15.3c.3.3.7.6 1.2.8 2.7 1.2 5.6 1.6 8.5 1.1"/><radialGradient id="SVGID_2_" cx="12.535" cy="-19.7737" r="6.5856" gradientUnits="userSpaceOnUse"><stop offset="0" stop-color="#de4a3f"/><stop offset=".65" stop-color="#d43e30"/><stop offset=".93" stop-color="#ce392e"/><stop offset="1" stop-color="#cb372d"/></radialGradient><path d="M15.6-15.6c.8-2.1 1.8-4.5 2-5 .2-.3.2-.7.1-1.1-.1-.2-.2-.3-.3-.4l-1.6-1.5 1.3-.1c.8-.1 2.4-.2 3.2-.2L19.2-25c-.7 0-1.5.1-2.2.2-.8.1-1.6.2-2.4.2l-1 .3-4.4.1-.2.2c-.7 1-1.3 2.1-1.8 3.2l-2.4 5.5.8.7 2.5-5.8c.5-1 1-2 1.6-2.9l4.7-.1 2.2 1.9.1.1c0 .1-.1.2-.1.3-.4.9-1.1 2.6-1.8 4.3l-.4 1" opacity=".36" fill="url(#SVGID_2_)"/><g class="st0"><radialGradient id="SVGID_3_" cx="14.955" cy="-26.8037" r="3.05" gradientUnits="userSpaceOnUse"><stop offset="0" stop-color="#de4a3f"/><stop offset=".65" stop-color="#d43e30"/><stop offset=".93" stop-color="#ce392e"/><stop offset="1" stop-color="#cb372d"/></radialGradient><path d="M17.5-28l-2 .4-1.4-.5-2.2-1.5-.2 5 2.1.2.1-.1 1.3.6 3-1.1-.7-3zm-1.6 1.5h-.1.1z" fill="url(#SVGID_3_)"/></g><path class="st18" d="M11.1-18.1c0-.4-.1-.7-.3-1-.2-.3-.6-.3-.9 0-.1.2-.1.3-.1.5h-.2c-.1.2-.4.3-.6.2-.1 0-.1-.1-.2-.1-.2-.3-.5-.5-.9-.4-.3.1-.5-.1-.6-.3v-.3c-.1-.1-.3-.2-.4-.3h-.6l-.8.2c-.1 0-.3.1-.4.1l-.3.3-.2.1-.1.3c0 .4-.2.8-.4 1.2-.1.3-.2.7-.3 1.1 0 .2.1.4.2.7v.2c0 .2 0 .4-.1.6v.1c0 .1 0 .2-.1.3.2.6.6 1.1 1.1 1.3.5.3 1 .4 1.6.5.9.4 1.9.3 2.7-.1l.8-.2c.4 0 .7-.2.9-.5.1-.1.1-.3.1-.4.3-1.4.3-2.7.1-4.1z"/><path class="st12" d="M-22.2-61.8l-5.6 6.5 1.6 1.3c1.7-2.3 3.1-5 4-7.8z"/><path class="st26" d="M-24.8-52.6l-3-2.7 18.4-21.4.8-2.2-1.1-2-2.2-.8-2.1 1.1-3.2 3.8-3-2.6 3.2-3.8 4.8-2.4 5.1 1.6 2.4 4.8-1.6 5.1z"/><path class="st12" d="M-7.1-81.6v-.3c-.6-.6-1.3-1.2-2-1.6h-.1c-1.4.3-2.9.4-4.3.3l-.3.2c-1.1.7-2.3 1.4-3.4 2.1-.6.8-1.2 1.6-1.7 2.5l1.8 1.5 3.2-3.8 2.1-1 2.2.7 1.1 2.1-.7 2.2-2.7 3.1c.1.1.1.3 0 .4-1.2 2-2.8 3.8-4.7 5.1l-3.5 4c-.5 1.1-.8 2.3-1.2 3.6-.9 2.6-2.3 5-4 7.1l.7.6 18.4-21.4 1.7-5.1c-.9-.6-2.5-1.2-2.6-2.3z"/><path d="M-10-81.9c-.4-.1-.8-.3-1.1-.5-.2-.1-.3-.4-.2-.6-1 0-1.8.5-2.3 1.4-.1.2-.3.3-.6.2-1.3-.5-3.4 2.3-4.4 3.4l1.4 1.2 3.3-3.8 2.1-1 2.2.7.8 1.5v-.4c-.3-.8-.6-1.5-1.2-2.1z" opacity=".6" fill="#62accd"/><path class="st18" d="M-4.9-79.3v.1c0 .2-.2.4-.4.5-.1 0-.2.1-.4.1-.1.1-.1.2-.2.4 0 .2-.1.2-.2.3-.4 1.2-1.1 2.4-2 3.3-1.2 3.4-3.8 6-6.3 8.4-2.7 2.4-5.2 5.1-7.4 8 .3.1.4.4.4.6 0 .1-.1.1-.1.2-1.2 1.4-2.3 3-3.3 4.5l.2.2 18.4-21.4 1.7-5.1c-.2 0-.3 0-.4-.1z"/><g class="st0"><radialGradient id="SVGID_4_" cx="-16.205" cy="-69.1537" r="14.26" gradientUnits="userSpaceOnUse"><stop offset="0" stop-color="#de4a3f"/><stop offset=".65" stop-color="#d43e30"/><stop offset=".93" stop-color="#ce392e"/><stop offset="1" stop-color="#cb372d"/></radialGradient><path fill="url(#SVGID_4_)" d="M-24.8-52.6l-3-2.6 1-1.2 3 2.6z"/><radialGradient id="SVGID_5_" cx="-16.375" cy="-69.1137" r="14.1" gradientUnits="userSpaceOnUse"><stop offset="0" stop-color="#de4a3f"/><stop offset=".65" stop-color="#d43e30"/><stop offset=".93" stop-color="#ce392e"/><stop offset="1" stop-color="#cb372d"/></radialGradient><path d="M-21.2-56.8l-3-2.6 2-2.3 3 2.6-2 2.3zm4.6-5.3l-3-2.6 2-2.3 3 2.6-2 2.3zm4.6-5.3l-3-2.6 2-2.3 3 2.6-2 2.3zm4.6-5.3l-3-2.6 1.1-1.3.4-.6 3.6 1.8-1 1.5-1.1 1.2zm-1.4-6.9l-.9-1.3-.2-.1 2.4-3.2.5.2 2 3-3.8 1.4zm-4.9-1.2l-2.7-2.9 3.7-1.8.6 4-1.6.7z" fill="url(#SVGID_5_)"/><radialGradient id="SVGID_6_" cx="-16.205" cy="-69.1537" r="14.26" gradientUnits="userSpaceOnUse"><stop offset="0" stop-color="#de4a3f"/><stop offset=".65" stop-color="#d43e30"/><stop offset=".93" stop-color="#ce392e"/><stop offset="1" stop-color="#cb372d"/></radialGradient><path fill="url(#SVGID_6_)" d="M-17.2-76.8l-3.1-2.6 1-1.2 3.1 2.6z"/></g><g class="st0"><path class="st1" d="M-16.4-65.2l-2.2-.2-.3.2h-.5l-1.2-1.5-.1-.6 2.9-4.4 4.8.8v2l-2.3 2.6z"/></g><g class="st14"><path d="M-13.2-70.9l-6.3 5.5.1.2h.5l.3-.2 2.2.2 1.1-1.1 2.3-2.6v-2z"/></g><g><path class="st44" d="M-45.5 61.8v6.3"/><g><path class="st45" d="M-42 68.9c0 .9-.7 1.6-1.6 1.6-.7 0-1.2-.5-1.2-1.2v-1.2h-1.6v3.5c0 .2.2.4.4.4h3.9c.8 0 1.6-.7 1.6-1.5.1-.8-.6-1.6-1.5-1.6z"/><g><path class="st46" d="M-44.7 69.7h-.6c-.2 0-.4-.2-.4-.4s.2-.4.4-.4h.6c.2 0 .4.2.4.4s-.2.4-.4.4z"/></g></g></g><g><path class="st47" d="M-47 61.8h2.9l-1.4-7.1z"/><path class="st47" d="M-45.5 53.9c-1.9 0-3.4 1.5-3.4 3.4v2.9c0 1.9 1.5 3.4 3.4 3.4s3.4-1.5 3.4-3.4v-2.9c0-1.8-1.6-3.4-3.4-3.4z"/></g><g><path class="st45" d="M-49 58.5h6.8v1.7H-49z"/><path class="st46" d="M-42.6 58.5h.6v1.7h-.6z"/></g><path class="st44" d="M-45.5 55.3v6.4"/><g><g><circle class="st48" cx="-45.5" cy="63.4" r="1.7"/></g><g><g><path class="st28" d="M-44 62.5h-2.9c-.4 0-.8-.4-.8-.8s.4-.8.8-.8h2.9c.4 0 .8.4.8.8s-.4.8-.8.8z"/></g></g></g><g><circle class="st49" cx="-45.9" cy="53.6" r=".9"/><circle class="st49" cx="-46.9" cy="54" r=".9"/><circle class="st49" cx="-47.8" cy="54.5" r=".9"/><path class="st49" d="M-44.4 49.9l-4.5 2.4 1.1 2.2 4.6-2.4"/><circle class="st48" cx="-45.4" cy="50.5" r="3.4"/><g><g><path class="st45" d="M-44.1 48.7c.2.3 0 .8-.3.9-.3.2-.8 0-.9-.3-.2-.3 0-.8.3-.9.4-.2.8-.1.9.3z"/></g></g><g><g><path class="st49" d="M-44.1 47.4c-.3.2-.7 0-.9-.3.2.3 0 .7-.3.9s-.7 0-.9-.3c.2.3 0 .7-.3.9s-.7 0-.9-.3c-.5-.9-.1-2.1.8-2.6s2.1-.1 2.6.8c.4.3.3.7-.1.9z"/></g></g><g><path class="st49" d="M-45.5 50.3c-.3-1.1-1-2-1.8-2.6-1.2.8-1.8 2.3-1.4 3.8.4 1.3 1.4 2.2 2.7 2.5.6-1.1.9-2.4.5-3.7z"/></g><g><path class="st49" d="M-46.1 50c0-1.1-.4-2.2-1.1-3-1.4.4-2.3 1.7-2.4 3.2 0 1.4.7 2.6 1.9 3.1.9-.7 1.6-1.9 1.6-3.3z"/></g><g><path class="st48" d="M-45.5 49.8l-2.4-.7s.3 2 1.8 2.5c.2.1.5.1.7-.1.4-.2.6-.8.4-1.2-.1-.3-.3-.4-.5-.5z"/></g><g><path class="st47" d="M-49.2 51.9l-4-4 6.2-1.6z"/><g><path class="st28" d="M-48.7 52.6c-.2.2-.5.2-.8.1-.4-.2-.6-.6-.5-1l2.3-5.8c.2-.4.6-.6 1-.5.4.2.6.6.5 1l-2.3 5.8c0 .2-.1.3-.2.4z"/></g><circle class="st28" cx="-53.9" cy="47.7" r=".8"/></g><path class="st48" d="M-43 48.1l2.8-.6c.3-.1.5.2.1.4l-2.9 1.5v-1.3z"/><path class="st28" d="M-42.2 49.4l-1.9 1c.4.8 1.2 1.1 2 1 .2-.6.2-1.4-.1-2z"/></g><g><g><path class="st50" d="M-30.1 55.6v14.9"/><g><path class="st51" d="M-26.5 71.3c0 .9-.7 1.6-1.6 1.6-.7 0-1.2-.5-1.2-1.2v-1.2h-1.6V74c0 .2.2.4.4.4h3.9c.8 0 1.6-.7 1.6-1.5 0-.9-.7-1.6-1.5-1.6z"/><g><path class="st46" d="M-29.3 72h-.6c-.2 0-.4-.2-.4-.4s.2-.4.4-.4h.6c.2 0 .4.2.4.4s-.2.4-.4.4z"/></g></g></g><g><path class="st50" d="M-30 45.5c-2.8 2.6-3.2 7.9-2.8 10.2"/><g><circle class="st48" cx="-32.5" cy="57.3" r="1.7"/></g><g><g><path class="st28" d="M-31.2 56.2l-2.9.5c-.4.1-.9-.2-.9-.6-.1-.4.2-.9.6-.9l2.9-.5c.4-.1.9.2.9.6.1.4-.2.8-.6.9z"/></g></g></g><g><path class="st50" d="M-26.7 55.6v14.9"/><g><path class="st45" d="M-23.1 71.3c0 .9-.7 1.6-1.6 1.6-.7 0-1.2-.5-1.2-1.2v-1.2h-1.6V74c0 .2.2.4.4.4h3.9c.8 0 1.6-.7 1.6-1.5 0-.9-.7-1.6-1.5-1.6z"/><g><path class="st46" d="M-25.9 72h-.6c-.2 0-.4-.2-.4-.4s.2-.4.4-.4h.6c.2 0 .4.2.4.4s-.2.4-.4.4z"/></g></g></g><path class="st47" d="M-30.3 55.6h3.6l-1.8-11z"/><path class="st52" d="M-26.6 49.7c0-1.2 1.2-1.5 1.2-3.1 0-1.5-1.2-2.8-3.1-2.8s-3.1 1.3-3.1 2.8c0 1.5 1.2 1.9 1.2 3.1 0 1.5-2.4 2.7-2.4 5.2 0 2.2 1.6 3.5 4.3 3.5s4.3-1.2 4.3-3.5c0-2.5-2.4-3.7-2.4-5.2z"/><g><path class="st45" d="M-30.5 49.3c0 .1.1.3.1.4 0 .4-.2.9-.5 1.3h4.9c-.3-.4-.5-.9-.5-1.3 0-.1 0-.3.1-.4h-4.1z"/></g><path class="st53" d="M-30.4 39.1l-1.4-2.2s-1.1 1.9-.2 3.2c.1.2.3.4.6.4.5.1 1-.2 1.1-.7.1-.2.1-.5-.1-.7z"/><circle class="st48" cx="-28.6" cy="40.2" r="3.6"/><path class="st54" d="M-25.3 38.6c-.5-1-1.3-1.7-2.5-2-2-.4-3.9.8-4.3 2.8-.2.8-.1 1.5.2 2.2.3.1.5.2.8.3 2.5.5 5-.9 5.8-3.3z"/><path class="st48" d="M-26.4 39.7l3-.4c.3-.1.5.3 0 .5l-3.2 1.3.2-1.4z"/><path class="st54" d="M-32.5 48.5c.9.9 2.3.9 3.2 0 .4-.4.4-1.2 0-1.6-.4-.4-.4-1.2 0-1.6.4-.4.4-1.2 0-1.6s-.4-1.2 0-1.6c.4-.4.4-1.2 0-1.6h-3.2c-.4.4-.4 1.2 0 1.6.4.4.4 1.2 0 1.6-.4.4-.4 1.2 0 1.6.4.4.4 1.2 0 1.6-.5.4-.5 1.1 0 1.6z"/><g><path class="st52" d="M-32.5 39.7l.1-6.4 6.3 3.8z"/><g><path class="st28" d="M-32.6 40.8c-.3 0-.6-.2-.7-.6-.2-.5 0-1 .5-1.2l6.6-2.8c.5-.2 1 0 1.2.5s0 1-.5 1.2l-6.6 2.8c-.2.1-.4.1-.5.1z"/></g><circle class="st28" cx="-32.7" cy="32.5" r=".9"/></g><path class="st48" d="M-25.7 39.6l-2.1-1.6s-.4 2.1.9 3.1c.2.1.4.2.7.2.5-.1.9-.6.8-1.1 0-.3-.1-.5-.3-.6z"/><path class="st54" d="M-30.7 48.5c.9.9 2.3.9 3.2 0 .4-.4.4-1.2 0-1.6-.4-.4-.4-1.2 0-1.6.4-.4.4-1.2 0-1.6s-.4-1.2 0-1.6c.4-.4.4-1.2 0-1.6h-3.2c-.4.4-.4 1.2 0 1.6.4.4.4 1.2 0 1.6s-.4 1.2 0 1.6c.4.4.4 1.2 0 1.6-.5.4-.5 1.1 0 1.6z"/><g><path class="st50" d="M-26.8 45.5c-.5 3.8 2.5 8.1 4.2 9.7"/><g><circle class="st48" cx="-21.2" cy="56.3" r="1.7"/></g><g><g><path class="st28" d="M-21 54.6l-1.9 2.2c-.3.3-.8.4-1.1.1-.3-.3-.4-.8-.1-1.1l1.9-2.2c.3-.3.8-.4 1.1-.1.4.2.4.7.1 1.1z"/></g></g></g></g><g><path class="st55" d="M30 32.5c-2.8 2.4-2.9 6.3-1.9 8.6"/><g><circle class="st53" cx="28.9" cy="42.6" r="1.7"/></g><g><g><path class="st28" d="M29.8 41.2l-2.6 1.2c-.4.2-.9 0-1.1-.4-.2-.4 0-.9.4-1.1l2.6-1.2c.4-.2.9 0 1.1.4.2.4 0 .9-.4 1.1z"/></g></g></g><g><path class="st55" d="M30.2 41.7v9.2"/><g><path class="st51" d="M33.8 51.6c0 .9-.7 1.6-1.6 1.6-.7 0-1.2-.5-1.2-1.2v-1.2h-1.6v3.5c0 .2.2.4.4.4h3.9c.8 0 1.6-.7 1.6-1.5 0-.9-.7-1.6-1.5-1.6z"/><g><path class="st46" d="M31 52.4h-.6c-.2 0-.4-.2-.4-.4s.2-.4.4-.4h.6c.2 0 .4.2.4.4s-.2.4-.4.4z"/></g></g></g><g><path class="st55" d="M33.3 41.7v9.2"/><g><path class="st45" d="M36.9 51.6c0 .9-.7 1.6-1.6 1.6-.7 0-1.2-.5-1.2-1.2v-1.2h-1.6v3.5c0 .2.2.4.4.4h3.9c.8 0 1.6-.7 1.6-1.5.1-.9-.6-1.6-1.5-1.6z"/><g><path class="st46" d="M34.2 52.4h-.6c-.2 0-.4-.2-.4-.4s.2-.4.4-.4h.6c.2 0 .4.2.4.4s-.2.4-.4.4z"/></g></g></g><path class="st56" d="M30.5 41.7h2.8l-1.4-9.6z"/><path class="st56" d="M31.9 43.5c1.1 0 2.6-.5 2.6-2.8s1.6-3 1.6-5.3-1.4-4.1-4.3-4.1-4.3 1.8-4.3 4.1 1.6 3 1.6 5.3 1.7 2.8 2.8 2.8z"/><g><path class="st45" d="M34.9 38.9h-6c.2.5.4 1 .4 1.7h5.2c.1-.7.2-1.2.4-1.7z"/></g><path class="st53" d="M30.2 26.9l-1.3-2.1s-1 1.8-.2 3.1c.1.2.3.3.6.4.5.1 1-.2 1.1-.7 0-.3 0-.5-.2-.7z"/><circle class="st53" cx="31.9" cy="27.9" r="3.4"/><path d="M35 26.4c-.4-.9-1.3-1.6-2.3-1.9-1.8-.4-3.7.8-4.1 2.6-.2.7-.1 1.4.2 2.1.2.1.5.2.8.2 2.3.6 4.7-.8 5.4-3z" fill="#a04343"/><g><path class="st56" d="M28.3 27.5l.1-6.1 5.9 3.6z"/><g><path class="st28" d="M28.1 28.4c-.3 0-.6-.2-.7-.5-.2-.4 0-1 .5-1.1l6.2-2.6c.4-.2 1 0 1.1.5.2.4 0 1-.5 1.1l-6.2 2.6c-.1 0-.2.1-.4 0z"/></g><circle class="st28" cx="28" cy="20.6" r=".9"/></g><path class="st53" d="M34.8 27.9l-1.3-2.1s-1 1.8-.2 3.1c.1.2.3.3.6.4.5.1 1-.2 1.1-.7 0-.3-.1-.5-.2-.7z"/><path class="st53" d="M34.4 28.2l2.5 1.4c.3.1.2.5-.2.4l-3.2-.7.9-1.1z"/><g><path class="st55" d="M33.4 32.3c-.5 3.6 2 6.7 4.3 7.7"/><g><circle class="st53" cx="39.2" cy="40.6" r="1.7"/></g><g><g><path class="st28" d="M39 38.9l-1.1 2.7c-.2.4-.6.6-1.1.4-.4-.2-.6-.6-.4-1.1l1.1-2.7c.2-.4.6-.6 1.1-.4.3.3.5.7.4 1.1z"/></g></g></g></symbol><symbol id="New_Symbol_65" viewBox="-143.5 -20.8 286.9 41.6"><path class="st58" d="M-53.8 18.2c-.7-.1-1.3.4-1.3 1.1-.1.7.4 1.3 1.1 1.3.7.1 1.3-.4 1.3-1.1v-.1c0-.6-.5-1.2-1.1-1.2zM140 11.9c-2 .1-3.5 1.8-3.4 3.8h6.9c0-2.1-1.5-3.8-3.5-3.8zM129.3 12.8h-3.8c-1.9-2.6-7.6-6.1-10-6.1H97.7c-4.5 0-4.1-2.6-3.9-3.5s.8-2.1 3.8-2.1h10.6c.6 0 1.1-.5 1.1-1.2 0-.4-.2-.7-.5-.9-3.7-2.6-6.3-4.3-9.3-4.3H-28.2c-2 0-3.9 1-4.9 2.7-1.1 1.8-4.3 7.8-6.5 9.5-1 .8-1.5 2-1.5 3.2 0 1 .3 2 1 2.8.7.8 1.6 1.2 2.6 1.2l4.5.1c2.4-1.2 2.3 1.2 0 1.9h-14.3c-2.3 0-4.2 1-4.2 2.3s1.9 2.3 4.2 2.3H104c1.1 0 2-.5 3.8-1.3h8.9c1 0 1.8-.8 1.8-1.8 0-.5-.2-1-.6-1.3h11.5c1 0 1.8-.8 1.8-1.8-.1-.9-.9-1.7-1.9-1.7zM-91.4 11.7c-.1-1.6 1-3 2.6-3.1 1.6-.1 3 1 3.1 2.6v.5h-5.7zM-68.7 13c-.3-1.1.4-2.2 1.5-2.4 1.1-.3 2.2.4 2.4 1.5.1.3.1.6 0 .9"/><path class="st59" d="M89.6 5c-.2-1.9 1.2-3.6 3.1-3.8s3.6 1.2 3.8 3.1v.6h-6.9zM-27.8 12.5c-.1-1.3.9-2.5 2.3-2.6 1.3-.1 2.5.9 2.6 2.3v.3h-4.9zM124.5 3.9h-7.9c-.8-.1-1.4-.8-1.3-1.7.1-.7.6-1.2 1.3-1.3h7.9c.8.1 1.4.8 1.3 1.7 0 .6-.6 1.2-1.3 1.3zM92.5 12.1c-.1-1.9 1.3-3.6 3.2-3.7s3.6 1.3 3.7 3.2v.5h-6.9z"/><path class="st28" d="M-143.5.4c-.1-1.7 1.2-3.1 2.9-3.2 1.7.1 3 1.5 2.9 3.2h-5.8zM51.1-8.9C47.7-15.6 36.6-20.8 30-20.8h-98.8c-2 0-6.8 2.6-8.5 4.1-2 1.8-11.7 6.4-14.3 7.1h-.4c-1.7 0-4.9 3.2-4.9 5S-93.7-3-92-3l8.3.2c2.5 0 2.5 4.2 0 4.2h-24.6c-1.3 0-4.2 2.1-4.2 3.5s2.9 1.7 4.2 1.7H60.3L51.1-8.9z"/><path class="st28" d="M-108.5-3.5c-2 .1-3.6 1.8-3.5 3.9h7.1c0-2.1-1.6-3.8-3.6-3.9zM-108.5-9.2h5.5c.1-2-1.5-3.8-3.6-3.9-1.2 0-2.3.7-2.9 1.7-.5-.4-1-.6-1.7-.6-1.5.1-2.7 1.3-2.6 2.8h5.3zM-118.2-.5c-1.2-.1-2.3.8-2.4 2s.8 2.3 2 2.4c1.2.1 2.3-.8 2.4-2v-.2c0-1.2-.8-2.1-2-2.2zM-105.6-5.3h5.4c.1-1.5-1-2.8-2.5-2.9s-2.8 1-2.9 2.5v.4z"/><path class="st59" d="M30 .8c-.1-1.6 1-2.9 2.6-3.1 1.6-.1 2.9 1 3.1 2.6v.5H30z"/><path class="st28" d="M69.2 13.3c-.1-2 1.3-3.7 3.3-3.8s3.7 1.3 3.8 3.3v.5h-7.1zM16.7 11.4c-.2-1.5 1-2.9 2.5-3.1 1.5-.2 2.9 1 3.1 2.5v.6h-5.6z"/><path class="st59" d="M-78.4 1.2c0-1.4 1.1-2.5 2.5-2.5s2.5 1.1 2.5 2.5h-5zM67.4-9.2h-8.1c-.8.1-1.6-.6-1.7-1.4-.1-.8.6-1.6 1.4-1.7H67.3c.8-.1 1.6.6 1.7 1.4.1.8-.6 1.6-1.4 1.7h-.2z"/><path class="st28" d="M62.5-1h15.1c1 .1 1.9-.7 2-1.7.1-1-.7-1.9-1.7-2H62.5c-1 .1-1.8 1-1.7 2 .1.9.8 1.6 1.7 1.7zM82.8.1H55.6c-1.4 0-2.5 1.1-2.5 2.5 0 .7.3 1.4.8 1.8h-12c-1.4 0-2.5 1.1-2.5 2.5s1.1 2.5 2.5 2.5H69c1.4 0 2.5-1.1 2.5-2.5 0-.7-.3-1.4-.8-1.8h12.1c1.4 0 2.5-1.1 2.5-2.5S84.2.1 82.8.1z"/><path class="st59" d="M40.9 4.3c-.1-2 1.3-3.7 3.3-3.8s3.7 1.3 3.8 3.3v.5h-7.1z"/><path class="st58" d="M-60.7 9.2c-.1-1.9 1.3-3.6 3.2-3.7s3.6 1.3 3.7 3.2v.5h-6.9zM-58.8 2.4c-.2-1.9 1.2-3.6 3.1-3.8 1.9-.2 3.6 1.2 3.8 3.1v.6h-6.9z"/><path class="st58" d="M-62.4 2.4c-.1-1.4 1-2.7 2.4-2.8 1.4-.1 2.7.9 2.8 2.3v.5h-5.2zM12.4 6.7c-.2-2 1.3-3.7 3.2-3.9s3.7 1.3 3.9 3.2v.7h-7.1z"/><path class="st58" d="M8.8 6.7c-.1-1.4.9-2.7 2.4-2.8s2.7.9 2.8 2.4v.5H8.8zM-5.7 7.6c-.2-2.3 1.5-4.3 3.8-4.5 2.3-.2 4.3 1.5 4.5 3.8v.7"/></symbol><use xlink:href="#New_Symbol_114-2" width="286.9" height="171.3" id="XMLID_1_" x="-143.4" y="-85.6" transform="translate(143.445 85.645)" overflow="visible"/></svg>