<svg id="layout" xmlns="http://www.w3.org/2000/svg" xmlns:xlink="http://www.w3.org/1999/xlink" width="89.66" height="96.75" viewBox="0 0 89.66 96.75"><defs><style>.cls-1{fill:#a66d40}.cls-2{fill:#bbe5fa}.cls-3{fill:#00c1f2}.cls-4{fill:#fff}.cls-5{fill:#f7e2a5}.cls-6{fill:#f4d784}.cls-7{fill:#62a807}.cls-8{fill:#008e1f}.cls-11{fill:#7a5951}.cls-12{fill:#212121}.cls-14{fill:#cc372c}.cls-15,.cls-23,.cls-29,.cls-32,.cls-34,.cls-38,.cls-41,.cls-45{fill:none;stroke-miterlimit:10}.cls-15,.cls-34{stroke:#32a558}.cls-15,.cls-23,.cls-29,.cls-32,.cls-34,.cls-38,.cls-41,.cls-45{stroke-linecap:round}.cls-15,.cls-38,.cls-41,.cls-45{stroke-width:1.4px}.cls-16{fill:#332e2e}.cls-17{fill:#f9ce1d}.cls-18{fill:#32a558}.cls-19{fill:#fadcbc}.cls-20{opacity:.1}.cls-21{fill:#00acc1}.cls-22{fill:#6252a2}.cls-23{stroke:#6252a2;stroke-width:1.59px}.cls-24{fill:#9b643d}.cls-25{fill:#774d2e}.cls-26{fill:#584539}.cls-28{fill:#f37637}.cls-29{stroke:#f37637;stroke-width:1.44px}.cls-31{fill:#e0bb95}.cls-32{stroke:#6f00ff}.cls-32,.cls-34{stroke-width:1.68px}.cls-33{fill:#6f00ff}.cls-35{fill:#bf8f68}.cls-37{fill:#f57c00}.cls-38{stroke:#ad00ad}.cls-39{fill:#ad00ad}.cls-41{stroke:#ee3c39}.cls-42{fill:#ee3c39}.cls-45{stroke:#e81f64}.cls-46{fill:#e81f64}</style><clipPath id="clip-path"><path class="cls-1" d="M18.44 43.72h.08a1.64 1.64 0 0 0 1.63-1.64v-1.75a1.63 1.63 0 0 0-1.63-1.63h-.08a1.63 1.63 0 0 0-1.63 1.63v1.75a1.64 1.64 0 0 0 1.63 1.64z"/></clipPath><symbol id="New_Symbol_110" data-name="New Symbol 110" viewBox="0 0 89.66 96.75"><path class="cls-2" d="M40.65 49.09c-1.37-1.91-2.06-4.54-2.91-6.91-.93-2.58-2.17-4.18-2.45-7a4.89 4.89 0 0 1 0-.54c.13-12.78 9.3-11.66 9.3-11.66 0 4.92 8.11 19.84 10.68 20q.24 4.77.24 9.55a21.49 21.49 0 0 1-10.14-.4 8.57 8.57 0 0 1-4-2.15 7.27 7.27 0 0 1-.72-.89z"/><path class="cls-3" d="M50.49 16a.84.84 0 0 1-.84-.84V9.54a.85.85 0 0 0-.85-.84h-4.45a2.53 2.53 0 0 1-2.53-2.53V3.5a.85.85 0 0 0-.82-.85h-3A.84.84 0 1 1 38 1h3a2.52 2.52 0 0 1 2.5 2.5v2.67a.85.85 0 0 0 .85.85h4.45a2.52 2.52 0 0 1 2.53 2.52v5.58a.85.85 0 0 1-.84.88z"/><path class="cls-3" d="M43.69 12.6h-2.54a2.53 2.53 0 0 1-2.53-2.53V7.93a.85.85 0 0 1 1.69 0v2.14a.84.84 0 0 0 .84.85h2.54a.84.84 0 0 0 .84-.85V8.33a.85.85 0 0 1 1.69 0v1.74a2.53 2.53 0 0 1-2.53 2.53zM47 5.11h-4.2a.84.84 0 0 1 0-1.68H47a.85.85 0 0 0 .85-.85V.84a.84.84 0 1 1 1.68 0v1.74A2.53 2.53 0 0 1 47 5.11zM78.94 6h-4.23a2.53 2.53 0 0 1-2.53-2.53V1.74a.85.85 0 1 1 1.69 0v1.74a.84.84 0 0 0 .84.84h4.23a.85.85 0 0 1 0 1.69z"/><path class="cls-3" d="M71.88 16.85A.84.84 0 0 1 71 16v-5.56a2.53 2.53 0 0 1 2.53-2.53H78a.85.85 0 0 0 .84-.84V4.39a2.54 2.54 0 0 1 2.53-2.53h3a.85.85 0 0 1 0 1.69h-3a.85.85 0 0 0-.84.84v2.68A2.54 2.54 0 0 1 78 9.6h-4.44a.84.84 0 0 0-.84.84V16a.84.84 0 0 1-.84.85z"/><path class="cls-3" d="M81.22 13.5h-2.55a2.54 2.54 0 0 1-2.53-2.5V9.23a.85.85 0 1 1 1.69 0V11a.85.85 0 0 0 .84.84h2.55a.85.85 0 0 0 .84-.84V8.82a.84.84 0 1 1 1.68 0V11a2.53 2.53 0 0 1-2.52 2.5z"/><path class="cls-2" d="M57.77 57.75l-12.94 2.8s-.78-4.63-4.23-3.89l2 9.4 16.59-3.6"/><path class="cls-4" d="M67.21 63.54l-2.83.89a10.59 10.59 0 0 1-6.4 0l-2.83-.89A10.65 10.65 0 0 1 48 55.62l-6.5-30.08a10.66 10.66 0 0 1 5.4-11.62 10.65 10.65 0 0 1 5-1.25h18.56a10.65 10.65 0 0 1 5 1.25 10.66 10.66 0 0 1 5.4 11.62l-6.45 30.08a10.65 10.65 0 0 1-7.2 7.92z"/><path class="cls-2" d="M60.17 63.54A10.65 10.65 0 0 1 53 55.62l-6.47-30.08a10.24 10.24 0 0 1 5.39-11.32 10.42 10.42 0 0 1 5-1h-5a10.4 10.4 0 0 0-5 1 10.45 10.45 0 0 0-5.4 11.47L48 55.7a10.57 10.57 0 0 0 7.2 7.87l2.83.88a10.55 10.55 0 0 0 5.71.18c-.23 0-.46-.12-.69-.19z"/><path class="cls-5" d="M49.62 55.2A16.44 16.44 0 0 1 57 54.13V39.91a16.73 16.73 0 0 0-7.4 1.46z"/><path class="cls-6" d="M49.62 55.2a17.62 17.62 0 0 1 8-1.07V40.25a17.66 17.66 0 0 0-8 1.12z"/><path class="cls-5" d="M49.62 55.2a18.67 18.67 0 0 1 8.51-1.07V40.45a18.43 18.43 0 0 0-8.51.92z"/><path class="cls-6" d="M49.62 55.2A20.38 20.38 0 0 1 59 54.13V40.74a20 20 0 0 0-9.33.63z"/><path class="cls-5" d="M49.62 55.2a9.22 9.22 0 0 0-3.95-.94v-13.4a8.71 8.71 0 0 1 3.95.51z"/><path class="cls-6" d="M49.62 55.2a9.77 9.77 0 0 0-4.25-.94V40.89a9.15 9.15 0 0 1 4.25.48z"/><path class="cls-5" d="M49.62 55.2a10.26 10.26 0 0 0-4.5-.94V41a9.9 9.9 0 0 1 4.5.42z"/><path class="cls-6" d="M49.62 55.2a11.18 11.18 0 0 0-4.91-.94V41.12a10.63 10.63 0 0 1 4.91.25z"/><path class="cls-7" d="M44.43 41.44h5.14v14.02h-5.14z"/><path class="cls-8" d="M49.81 41.44h9.84v14.02h-9.84z"/><rect class="cls-7" x="48.82" y="41.36" width="1.75" height="14.25" rx=".15"/><path class="cls-3" d="M59.75 46.31l-1.25 2.77 1.25 2.09-1.25 2.1h2.44v-10H58.5l1.25 3.04z"/><path class="cls-4" d="M81.71 49.09c1.85-1.91 2.79-4.54 3.93-6.91 1.26-2.58 2.93-4.18 3.31-7a3.27 3.27 0 0 0 0-.54c-.18-12.78-12.57-11.66-12.57-11.66 0 4.92.32 9.78.42 14.66a5 5 0 0 1-.41 2.58c-.75 1.35-2.51 1.71-4.05 1.9q-5.17.61-10.38.87-.33 4.77-.34 9.55a39 39 0 0 0 13.71-.4 13.26 13.26 0 0 0 5.38-2.15 8.7 8.7 0 0 0 1-.9z"/><path class="cls-3" d="M44.69 46.31l1.25 2.77-1.25 2.09 1.25 2.1h-2v-10h2l-1.25 3.04z"/><path class="cls-4" d="M68.89 15.56a3.13 3.13 0 0 1-2.53 1.29H54.77a3.1 3.1 0 0 1-2.53-1.29C51.12 14 52.3 11.92 53.4 11s7.33-2.49 6.14-6.77l9.19 6.54a3.11 3.11 0 0 1 .58 4.23z"/><path class="cls-3" d="M55.66 19.87a1.74 1.74 0 1 1-1.74-1.74 1.74 1.74 0 0 1 1.74 1.74zM63.2 19.87a1.74 1.74 0 1 1-1.74-1.74 1.74 1.74 0 0 1 1.74 1.74z"/><path d="M52.33 27c0 2.32 2.38 4.21 5.32 4.21S63 29.28 63 27z" fill="#333"/><path class="cls-4" d="M54.39 26.46h2.51v1.26A1.26 1.26 0 0 1 55.65 29a1.26 1.26 0 0 1-1.26-1.26v-1.28zM58.94 26.46h2.51v1.26A1.26 1.26 0 0 1 60.2 29a1.26 1.26 0 0 1-1.26-1.26v-1.28z"/><path class="cls-3" d="M55.21 22.67c-1.49 0-3.51 1.74-3.51 1.74a2.34 2.34 0 0 1-2.7-.05l-.93-.66.39 2.4a2.38 2.38 0 0 0 1.18 1.7l.25.14a2.39 2.39 0 0 0 2 .15l1.52-.58a2.38 2.38 0 0 1 1.49-.06l.69.19a2.38 2.38 0 0 0 3-2.29 3.21 3.21 0 0 0-3.38-2.68z"/><path class="cls-3" d="M60.31 22.67c1.5 0 3.52 1.74 3.52 1.74a2.35 2.35 0 0 0 2.71-.05l.92-.66-.38 2.4a2.4 2.4 0 0 1-1.18 1.7l-.26.14a2.36 2.36 0 0 1-2 .15l-1.53-.58a2.37 2.37 0 0 0-1.49-.06l-.68.19a2.37 2.37 0 0 1-3-2.29 3.21 3.21 0 0 1 3.37-2.68z"/><path class="cls-4" d="M66.78 58.48l-12.53 4.27s-1.32-4.52-4.65-3.38l3.1 9.1L68.77 63"/><circle class="cls-11" cx="20.49" cy="35.34" r="1.34"/><circle class="cls-11" cx="13.46" cy="35" r="1.34"/><path class="cls-11" d="M20.08 59v6.61s2.35-.11 2.35 1.65h-4.8v-8.47"/><path class="cls-11" d="M15.09 63a6.43 6.43 0 0 0 3.48 0 6.33 6.33 0 0 0 4.56-5.43l1.13-10.74A6 6 0 0 0 24.2 45l-1-5.41a6.31 6.31 0 0 0-3.09-4.37l-.11-.09a6.36 6.36 0 0 0-6.29 0l-.15.08a6.31 6.31 0 0 0-3.09 4.37l-1 5.42a6.31 6.31 0 0 0-.07 1.79l1.13 10.74A6.33 6.33 0 0 0 15.09 63z"/><g opacity=".2"><path class="cls-12" d="M9.47 44.82l1-5.4a6.31 6.31 0 0 1 3.09-4.37l.15-.08a6 6 0 0 1 1.13-.51 6.35 6.35 0 0 0-2.7 4.12l-1 5.41a6.31 6.31 0 0 0-.07 1.79l1.13 10.74A6.34 6.34 0 0 0 16.76 62a6.46 6.46 0 0 0 3.49 0l.22-.08a6.07 6.07 0 0 1-1.9.91 6.24 6.24 0 0 1-3.48 0 6.32 6.32 0 0 1-4.56-5.43L9.4 46.62a6.4 6.4 0 0 1 .07-1.8z"/></g><circle class="cls-12" cx="20.01" cy="38.01" r=".5"/><circle class="cls-12" cx="16.83" cy="38.01" r=".5"/><path class="cls-1" d="M18.44 43.72h.08a1.64 1.64 0 0 0 1.63-1.64v-1.75a1.63 1.63 0 0 0-1.63-1.63h-.08a1.63 1.63 0 0 0-1.63 1.63v1.75a1.64 1.64 0 0 0 1.63 1.64z"/><g clip-path="url(#clip-path)"><path class="cls-12" d="M18.44 39.87h.08a1.63 1.63 0 0 0 1.63-1.64v-1.75a1.63 1.63 0 0 0-1.63-1.63h-.08a1.63 1.63 0 0 0-1.63 1.63v1.75a1.63 1.63 0 0 0 1.63 1.64z"/></g><path class="cls-12" d="M17.14 42.08a1.22 1.22 0 0 0 1.22 1.22h.23a1.23 1.23 0 0 0 1.23-1.22z"/><path class="cls-11" d="M16.74 59v6.61s2.34-.11 2.34 1.65h-4.79v-8.47M25.12 52.53l1.86-.54 3.43-1-.17.6.49.51-.2.5.44.31-3.43 1-1.47.43-1.97.57-1.31.38-.64-2.22-1.03-3.55 2.88-.83 1.12 3.84z"/><path class="cls-4" d="M19.08 46.23h3.23v10.98h-3.23z"/><path class="cls-14" d="M19.08 53.97v1.43l3.24 1.39v-1.43l-3.24-1.39zM19.08 50.83v1.43l3.24 1.39v-1.43l-3.24-1.39zM19.08 47.68v1.43l3.24 1.39v-1.43l-3.24-1.39z"/><path class="cls-4" d="M9.13 47.85v-3.23h16.01v3.23H9.13z"/><path class="cls-14" d="M21.9 47.85h1.43l1.39-3.23h-1.43l-1.39 3.23zM18.75 47.85h1.43l1.39-3.23h-1.43l-1.39 3.23zM15.61 47.85h1.43l1.39-3.23H17l-1.39 3.23zM12.47 47.85h1.43l1.39-3.23h-1.43l-1.39 3.23zM9.32 47.85h1.43l1.39-3.23h-1.43l-1.39 3.23z"/><path class="cls-5" d="M25.24 58.63a12.47 12.47 0 0 0-5.56-.78V47.41a12.93 12.93 0 0 1 5.56 1.07z"/><path class="cls-6" d="M25.24 58.63a13.57 13.57 0 0 0-6-.78V47.66a13.46 13.46 0 0 1 6 .82z"/><path class="cls-5" d="M25.24 58.63a14.38 14.38 0 0 0-6.39-.78V47.8a14.31 14.31 0 0 1 6.39.68z"/><path class="cls-6" d="M25.24 58.63a15.63 15.63 0 0 0-7-.78V48a15.46 15.46 0 0 1 7 .46z"/><path class="cls-5" d="M25.24 58.63a7.14 7.14 0 0 1 3-.69V48.1a6.75 6.75 0 0 0-3 .38z"/><path class="cls-6" d="M25.24 58.63a7.65 7.65 0 0 1 3.19-.69v-9.82a7.29 7.29 0 0 0-3.19.36z"/><path class="cls-5" d="M25.24 58.63a7.88 7.88 0 0 1 3.38-.69v-9.77a7.66 7.66 0 0 0-3.38.31z"/><path class="cls-6" d="M25.24 58.63a8.63 8.63 0 0 1 3.69-.69V48.3a8.24 8.24 0 0 0-3.69.18z"/><path class="cls-8" d="M25.28 48.53h3.86v10.29h-3.86z"/><path class="cls-7" d="M17.7 48.53h7.39v10.29H17.7z"/><path class="cls-11" d="M14.12 53.53L16 53l3.43-1-.17.6.49.51-.2.5.44.31-3.43 1-1.47.43-2 .57-1.31.38-.64-2.22-.6-2.08a1.5 1.5 0 0 1 1-1.86 1.49 1.49 0 0 1 1.86 1z"/><path class="cls-7" d="M24.64 58.93h1.1a.1.1 0 0 0 .1-.11V48.58a.1.1 0 0 0-.1-.11h-1.1a.11.11 0 0 0-.11.11v10.24a.11.11 0 0 0 .11.11z"/><path class="cls-15" d="M73.41 67.17c-1.19.42-3.4.74-4.92 1.29"/><path class="cls-16" d="M66.78 65.77a1.36 1.36 0 0 0-.78 1.74 1.06 1.06 0 0 0 1.35.63l.94-.34.48 1.32-2.88 1a.35.35 0 0 1-.45-.21l-1.16-3.22A1.37 1.37 0 0 1 65 65a1.35 1.35 0 0 1 1.78.77z"/><path class="cls-17" d="M67 68.26l.18.49a.34.34 0 0 0 .44.21.33.33 0 0 0 .21-.44l-.17-.5a.35.35 0 1 0-.66.24z"/><path class="cls-18" d="M73.41 67.17h2.45l-1.23-8.32-1.22 8.32z"/><path class="cls-18" d="M74.63 68.74a2.17 2.17 0 0 0 2.29-2.46c0-2 1.43-2.64 1.43-4.58a3.72 3.72 0 0 0-7.44 0c0 1.94 1.44 2.58 1.44 4.58a2.17 2.17 0 0 0 2.28 2.46z"/><path class="cls-16" d="M77.25 64.73H72a3.72 3.72 0 0 1 .32 1.49h4.58a3.72 3.72 0 0 1 .35-1.49z"/><path class="cls-17" d="M73.89 64.73h1.49v1.49h-1.49z"/><circle class="cls-4" cx="74.63" cy="46.7" r="1.04"/><path class="cls-18" d="M77.62 53.7l-2.99-5.96-2.98 5.96h5.97z"/><path class="cls-4" d="M77.48 55.15a.86.86 0 0 1-.83-.62 2.12 2.12 0 0 0-2-1.48 2.09 2.09 0 0 0-2 1.48.89.89 0 0 1-1.1.58A.88.88 0 0 1 71 54a3.86 3.86 0 0 1 7.37 0 .89.89 0 0 1-.58 1.1 1.09 1.09 0 0 1-.31.05z"/><path class="cls-17" d="M74.15 53.44a1.38 1.38 0 0 0-1.15-.07 1.56 1.56 0 0 0-.87.84 15.7 15.7 0 0 0-.29 1.55A1.89 1.89 0 0 1 70 57a1.81 1.81 0 0 0 1.61 1.11 3.18 3.18 0 0 0 2.89-1.65c.5-1.04.61-2.46-.35-3.02z"/><path class="cls-17" d="M75.12 53.44a1.36 1.36 0 0 1 1.15-.07 1.53 1.53 0 0 1 .87.84 15.72 15.72 0 0 1 .3 1.55A1.87 1.87 0 0 0 79.28 57a1.8 1.8 0 0 1-1.6 1.11 3.17 3.17 0 0 1-2.89-1.65c-.56-1.04-.63-2.46.33-3.02z"/><path class="cls-19" d="M78.59 53.08l-1.53 1.52a.81.81 0 0 0-.23.56.79.79 0 0 0 .79.79.81.81 0 0 0 .56-.23 2.9 2.9 0 0 0 .41-2.64zM72.21 54.6l-1.53-1.52a2.9 2.9 0 0 0 .41 2.64.79.79 0 0 0 1.35-.56.81.81 0 0 0-.23-.56z"/><circle class="cls-19" cx="74.63" cy="55.16" r="2.99"/><path class="cls-4" d="M76.44 55.51a1.81 1.81 0 0 1-3.62 0z"/><path class="cls-17" d="M74.82 52.16a.56.56 0 0 0-.32-.37.67.67 0 0 0-.52 0c-.21.09-.35.27-.55.38a.8.8 0 0 1-.93-.17.76.76 0 0 0 .14.81 1.34 1.34 0 0 0 1.37.38c.48-.19.99-.58.81-1.03z"/><path class="cls-17" d="M74.44 52.16a.6.6 0 0 1 .33-.37.65.65 0 0 1 .51 0c.21.09.36.27.56.38a.81.81 0 0 0 .93-.18.76.76 0 0 1-.15.81 1.34 1.34 0 0 1-1.37.38c-.48-.18-.93-.57-.81-1.02z"/><path class="cls-16" d="M74 54.31a.61.61 0 1 1-.6-.61.6.6 0 0 1 .6.61zM76.44 54.31a.6.6 0 0 1-.6.6.61.61 0 0 1 0-1.21.6.6 0 0 1 .6.61z"/><path class="cls-5" d="M73.55 62.78a8.7 8.7 0 0 1 3.87-.55v-7.4a8.8 8.8 0 0 0-3.87.76z"/><path class="cls-6" d="M73.55 62.78a9.36 9.36 0 0 1 4.19-.55V55a9.24 9.24 0 0 0-4.19.58z"/><path class="cls-5" d="M73.55 62.78a9.79 9.79 0 0 1 4.45-.55v-7.12a9.74 9.74 0 0 0-4.45.48z"/><path class="cls-6" d="M73.55 62.78a10.8 10.8 0 0 1 4.88-.55v-7a10.67 10.67 0 0 0-4.88.33z"/><path class="cls-5" d="M74 62.29a12.35 12.35 0 0 1 4.21-.45v-6.49a12.21 12.21 0 0 0-4.21.25z"/><path class="cls-6" d="M74 62.37a12.84 12.84 0 0 1 4.38-.46v-6.47a12.94 12.94 0 0 0-4.38.23z"/><path class="cls-5" d="M74 62.46a13.45 13.45 0 0 1 4.48-.46v-6.43a13.29 13.29 0 0 0-4.53.2z"/><path class="cls-6" d="M74 62.51a14.08 14.08 0 0 1 4.77-.46v-6.36a14.16 14.16 0 0 0-4.77.12z"/><path class="cls-5" d="M73.55 62.78a5 5 0 0 0-2-.49v-7a4.55 4.55 0 0 1 2 .27z"/><path class="cls-6" d="M73.55 62.78a5.17 5.17 0 0 0-2.21-.49v-6.95a4.79 4.79 0 0 1 2.21.25z"/><path class="cls-5" d="M73.55 62.78a5.47 5.47 0 0 0-2.34-.49v-6.92a5.07 5.07 0 0 1 2.34.22z"/><path class="cls-6" d="M73.55 62.78a6 6 0 0 0-2.55-.49v-6.83a5.42 5.42 0 0 1 2.56.13z"/><path class="cls-8" d="M70.85 55.62h2.68v7.29h-2.68z"/><path class="cls-7" d="M73.66 55.62h5.14v7.29h-5.14z"/><rect class="cls-7" x="73.14" y="55.58" width=".92" height="7.41" rx=".08"/><circle class="cls-19" cx="78.6" cy="59.18" r="1.49"/><circle class="cls-19" cx="71.03" cy="59.08" r="1.49"/><path class="cls-15" d="M76 67.57c-1.12.6-3 1.6-4.44 2.37"/><path class="cls-16" d="M69.42 67.53a1.36 1.36 0 0 0-.55 1.84 1.05 1.05 0 0 0 1.42.43l.89-.48.66 1.23-2.7 1.45a.35.35 0 0 1-.47-.14l-1.62-3a1.36 1.36 0 0 1 .5-1.83 1.35 1.35 0 0 1 1.87.5z"/><path class="cls-17" d="M70 70l.25.47a.35.35 0 1 0 .62-.34l-.25-.46a.35.35 0 0 0-.47-.14.35.35 0 0 0-.15.47z"/><path class="cls-7" d="M84.04 69.91H81.9l-1.33-5.83h2.14l1.33 5.83z"/><path class="cls-8" d="M81.8 69.91l-4.78.11-1.33-5.83 4.78-.11 1.33 5.83z"/><path class="cls-7" d="M81.56 70h.61v-.06l-1.32-5.8a.07.07 0 0 0-.07-.06h-.61v.06l1.33 5.8a.07.07 0 0 0 .06.06z"/><path class="cls-5" d="M81.86 69.81a7.4 7.4 0 0 0-3.18-.45l-1.35-5.91a8 8 0 0 1 3.22.6z"/><path class="cls-6" d="M81.86 69.81a7.91 7.91 0 0 0-3.43-.45l-1.32-5.77a8.12 8.12 0 0 1 3.44.46z"/><path class="cls-5" d="M81.86 69.81a8.39 8.39 0 0 0-3.64-.45l-1.3-5.69a8.41 8.41 0 0 1 3.63.38z"/><path class="cls-6" d="M81.86 69.81a9 9 0 0 0-4-.45l-1.27-5.57a8.78 8.78 0 0 1 3.94.26z"/><path class="cls-5" d="M81.86 69.81a3.25 3.25 0 0 1 1.55-.4l-1.27-5.57a3.28 3.28 0 0 0-1.59.21z"/><path class="cls-6" d="M81.86 69.81a3.61 3.61 0 0 1 1.67-.4l-1.27-5.56a3.64 3.64 0 0 0-1.71.2z"/><path class="cls-5" d="M81.86 69.81a3.78 3.78 0 0 1 1.78-.4l-1.26-5.53a3.86 3.86 0 0 0-1.83.17z"/><path class="cls-6" d="M81.86 69.81a4 4 0 0 1 2-.4c-.42-1.82-.83-3.64-1.25-5.46a4.23 4.23 0 0 0-2 .1z"/><path class="cls-20" d="M81.86 69.81a9 9 0 0 0-4-.45l-1.27-5.57a8.78 8.78 0 0 1 3.94.26z"/><path class="cls-21" d="M85.37 68.83l.63 8.99"/><path class="cls-22" d="M85.31 68a3.38 3.38 0 0 1 3.61 3.14l.34 4.86a3.38 3.38 0 0 1-6.75.48l-.34-4.82A3.39 3.39 0 0 1 85.31 68z"/><path class="cls-23" d="M86.13 78.82h-9.64"/><path class="cls-16" d="M75.69 75.31a1.54 1.54 0 0 0-1.53 1.54A1.19 1.19 0 0 0 75.35 78h1.14v1.59H73a.4.4 0 0 1-.4-.4v-3.84a1.56 1.56 0 0 1 1.48-1.57 1.53 1.53 0 0 1 1.61 1.53z"/><path class="cls-17" d="M75 78v.59a.39.39 0 0 0 .39.4.4.4 0 0 0 .4-.4V78a.4.4 0 1 0-.8 0z"/><path class="cls-16" d="M82.74 74.53h6.77v1.69h-6.77v-1.69z"/><path class="cls-17" d="M82.74 76.22h1.7v-1.69h-1.7v1.69z"/><path class="cls-23" d="M85.37 68.83c-1.21 2.65-5 4.31-7.59 1.11"/><circle class="cls-24" cx="76.72" cy="68.62" r="1.69"/><path class="cls-24" d="M82.37 61.9a3.36 3.36 0 0 0-1.76 1.89L79.43 67l1.27-.58a3.38 3.38 0 1 0 1.67-4.48z"/><ellipse class="cls-25" cx="85.21" cy="64.07" rx="1.69" ry="2.93" transform="rotate(-32.1 85.218 64.0724)"/><path class="cls-25" d="M83.34 64.27l3.15 6.87 3.17-1.45-2.32-5.06-4-.36z"/><path class="cls-4" d="M80.89 66.73l2-.92a2 2 0 0 1-.4 2.29 3.34 3.34 0 0 1-1.6-1.37z"/><circle class="cls-4" cx="84.74" cy="58.01" r="1.18"/><path class="cls-22" d="M80.57 63s2.07-4.17 4.06-3.83 2.67 4.46 2.67 4.46z"/><path class="cls-4" d="M87.71 64.55a1 1 0 0 0 .58-.81 1 1 0 0 0-.89-1.08L80.66 62a1 1 0 0 0-1.08.89 1 1 0 0 0 .89 1.11l6.74.63a.93.93 0 0 0 .5-.08z"/><path class="cls-24" d="M83.64 64.3l.86-2.3s1.35 1.49.82 2.92a.9.9 0 0 1-1.68-.62z"/><path class="cls-16" d="M81.14 65.23a.68.68 0 1 0 1.24-.57.7.7 0 0 0-.91-.34.69.69 0 0 0-.33.91z"/><path class="cls-7" d="M40.54 79.73h2.14l1.33-5.83h-2.14l-1.33 5.83z"/><path class="cls-8" d="M42.78 79.73l4.77.11 1.33-5.83-4.77-.11-1.33 5.83z"/><path class="cls-7" d="M43 79.79h-.61v-.06l1.32-5.8a.08.08 0 0 1 .08-.06h.61s.05 0 0 .06l-1.32 5.8a.07.07 0 0 1-.08.06z"/><path class="cls-5" d="M42.72 79.63a7.4 7.4 0 0 1 3.18-.45l1.35-5.91a8 8 0 0 0-3.22.6z"/><path class="cls-6" d="M42.72 79.63a8.06 8.06 0 0 1 3.43-.45l1.31-5.77a8.09 8.09 0 0 0-3.43.46z"/><path class="cls-5" d="M42.72 79.63a8.39 8.39 0 0 1 3.64-.45l1.3-5.69a8.41 8.41 0 0 0-3.63.38z"/><path class="cls-6" d="M42.72 79.63a9 9 0 0 1 4-.45L48 73.61a8.77 8.77 0 0 0-3.94.26z"/><path class="cls-5" d="M42.72 79.63a3.37 3.37 0 0 0-1.55-.4l1.27-5.57a3.28 3.28 0 0 1 1.59.21z"/><path class="cls-6" d="M42.72 79.63a3.62 3.62 0 0 0-1.68-.4l1.27-5.56a3.67 3.67 0 0 1 1.72.2z"/><path class="cls-5" d="M42.72 79.63a3.78 3.78 0 0 0-1.78-.4l1.26-5.53a3.87 3.87 0 0 1 1.83.17z"/><path class="cls-6" d="M42.72 79.63a4 4 0 0 0-1.95-.4q.61-2.73 1.25-5.46a4.24 4.24 0 0 1 2 .1z"/><path class="cls-20" d="M42.72 79.63a9 9 0 0 1 4-.45L48 73.61a8.77 8.77 0 0 0-3.94.26z"/><path class="cls-26" d="M44.54 70a3.07 3.07 0 1 0 .61 2.27l1.27.16z"/><ellipse cx="40.62" cy="71.49" rx="2.66" ry="1.54" transform="rotate(-75.06 40.6202 71.4948)" fill="#a04343"/><path class="cls-4" d="M45.09 72.64l-2-.26a1.86 1.86 0 0 0 1 1.89 3.14 3.14 0 0 0 1-1.63z"/><circle class="cls-4" cx="38.76" cy="63.85" r="1.07"/><path class="cls-28" d="M44.37 69.32l-5.2-4.49-.48 6.85 5.68-2.36z"/><path class="cls-4" d="M38.57 72.58a.88.88 0 0 1-.71-.55.89.89 0 0 1 .48-1.18L44 68.49a.9.9 0 0 1 .69 1.67L39 72.52a.92.92 0 0 1-.43.06z"/><path class="cls-26" d="M42 71.27l-1.32-1.77s-.78 1.66.07 2.76a.85.85 0 0 0 .54.31.82.82 0 0 0 .91-.7.79.79 0 0 0-.2-.6z"/><path class="cls-16" d="M44.47 71.41a.62.62 0 0 1-.7.53.61.61 0 0 1-.53-.69.62.62 0 0 1 .69-.54.63.63 0 0 1 .54.7z"/><path class="cls-21" d="M41.61 75.66l-.82 6.33"/><path class="cls-28" d="M41.71 74.94a3.08 3.08 0 0 0-3.45 2.65l-.33 2.56a3.07 3.07 0 1 0 6.09.79l.34-2.55a3.08 3.08 0 0 0-2.65-3.45z"/><path class="cls-29" d="M40.58 83l5.94-.1"/><path class="cls-16" d="M47.18 79.66A1.4 1.4 0 0 1 48.6 81a1.08 1.08 0 0 1-1.06 1.1h-1v1.44h3.15a.35.35 0 0 0 .35-.37L50 79.65a1.42 1.42 0 0 0-1.36-1.41 1.4 1.4 0 0 0-1.46 1.42z"/><path class="cls-17" d="M47.9 82.13v.54a.37.37 0 0 1-.36.37.36.36 0 0 1-.36-.36v-.54a.36.36 0 0 1 .35-.37.37.37 0 0 1 .37.36z"/><path class="cls-16" d="M44.22 79.42l-6.1-.8-.2 1.53 6.1.79.2-1.52z"/><path class="cls-17" d="M44.02 80.94l-1.52-.2.2-1.52 1.52.2-.2 1.52z"/><path class="cls-29" d="M41 77.35c1.2 1 2.64 1.37 5 .37"/><circle class="cls-26" cx="47.37" cy="77.12" r="1.54"/><path class="cls-4" d="M45.8 79.09a.71.71 0 0 0 .82.19.72.72 0 0 0 .38-1l-.77-1.78a.71.71 0 0 0-.94-.38.72.72 0 0 0-.38 1l.77 1.78a.62.62 0 0 0 .12.19z"/><path d="M44.22 74.35l-4.74-.62a.39.39 0 0 0-.44.35l-.14 1a.4.4 0 0 0 .35.45h.07l-.76.58a.32.32 0 0 0-.06.46l.71.93a.33.33 0 0 0 .46.06l.89-.69-.07.53a.34.34 0 0 0 .29.37l1.16.15a.32.32 0 0 0 .36-.28l.22-1.64 1.46.19a.4.4 0 0 0 .45-.35l.13-1a.4.4 0 0 0-.34-.49z" fill="#fde04c"/><path class="cls-7" d="M66.83 81.03H64.7l-1.33-5.83h2.14l1.32 5.83z"/><path class="cls-8" d="M64.6 81.03l-4.78.11-1.33-5.83 4.78-.11 1.33 5.83z"/><path class="cls-7" d="M64.36 81.09H65v-.06l-1.32-5.8a.08.08 0 0 0-.08-.06H63s-.06 0 0 .06L64.28 81a.08.08 0 0 0 .08.09z"/><path class="cls-5" d="M64.66 80.92a7.44 7.44 0 0 0-3.19-.44l-1.34-5.91a7.77 7.77 0 0 1 3.21.6z"/><path class="cls-6" d="M64.66 80.92a7.94 7.94 0 0 0-3.44-.44l-1.31-5.77a7.92 7.92 0 0 1 3.43.46z"/><path class="cls-5" d="M64.66 80.92a8.58 8.58 0 0 0-3.66-.44l-1.29-5.69a8.2 8.2 0 0 1 3.62.38z"/><path class="cls-6" d="M64.66 80.92a9.19 9.19 0 0 0-4-.44l-1.26-5.57a8.76 8.76 0 0 1 3.94.26z"/><path class="cls-5" d="M64.66 80.92a3.21 3.21 0 0 1 1.55-.39L64.94 75a3.32 3.32 0 0 0-1.6.21z"/><path class="cls-6" d="M64.66 80.92a3.45 3.45 0 0 1 1.67-.39L65.06 75a3.7 3.7 0 0 0-1.72.2z"/><path class="cls-5" d="M64.66 80.92a3.88 3.88 0 0 1 1.77-.39L65.17 75a3.88 3.88 0 0 0-1.83.17z"/><path class="cls-6" d="M64.66 80.92a4 4 0 0 1 1.94-.39c-.41-1.82-.83-3.64-1.24-5.46a4.28 4.28 0 0 0-2 .1z"/><path class="cls-20" d="M64.66 80.92a9.19 9.19 0 0 0-4-.44l-1.26-5.57a8.76 8.76 0 0 1 3.94.26z"/><path class="cls-31" d="M66.77 70.85l-3.52.28 2.52 2.85 1-3.13z"/><path class="cls-31" d="M64.57 71.05a3.12 3.12 0 0 0 .5 4.39 3.12 3.12 0 0 0 4.39-.5 3.13 3.13 0 0 0-.5-4.39 3.12 3.12 0 0 0-4.39.5z"/><path class="cls-16" d="M67.6 69.93a3.06 3.06 0 0 1 1.36.62 3.13 3.13 0 0 1 .5 4.39 3.18 3.18 0 0 1-1.82 1.12c-2.92-.06-3.49-6.58-.04-6.13z"/><path class="cls-16" d="M63.32 76.14A2.4 2.4 0 0 0 65 75.8a2.44 2.44 0 0 0 1.07-1.35 2.4 2.4 0 0 0-1.69.34 2.44 2.44 0 0 0-1.06 1.35zM70.57 77.29a2.42 2.42 0 0 1-1.33-1.1 2.51 2.51 0 0 1-.31-1.7 2.49 2.49 0 0 1 1.64 2.8z"/><path class="cls-31" d="M65 72.6l1.28-1.21s.38 3.45-1.12 2.08z"/><path class="cls-16" d="M65.77 69.23a1.55 1.55 0 0 1 .56 2.37l-.57-.35a.56.56 0 0 1-.2-.77.58.58 0 0 1-.78.19.56.56 0 0 1-.19-.78c.53-.89.89-.81 1.18-.66z"/><path class="cls-32" d="M67.3 86l-7.75.07"/><path class="cls-16" d="M58.63 82.25A1.69 1.69 0 0 0 57 84a1.28 1.28 0 0 0 1.32 1.27h1.26v1.63h-3.82a.44.44 0 0 1-.44-.44v-4.17a1.72 1.72 0 0 1 1.61-1.75 1.68 1.68 0 0 1 1.7 1.71z"/><path class="cls-17" d="M57.84 85.24v.11a.44.44 0 1 0 .87 0v-.11a.43.43 0 0 0-.44-.43.44.44 0 0 0-.43.43z"/><ellipse class="cls-33" cx="67.24" cy="81.68" rx="4.63" ry="5.54"/><path class="cls-33" d="M68.69 85.41h-2.91l1.46-8.43 1.45 8.43z"/><path class="cls-16" d="M71.86 81.68v.94h-9.22v-.94-.56h9.23c-.01.18-.01.37-.01.56z"/><path class="cls-17" d="M62.47 82.61h.66v-1.49h-.66v1.49z"/><path class="cls-33" d="M70.32 72.74L71.58 68l-5.4 1.5 4.14 3.24z"/><path class="cls-4" d="M70.21 73.51a.68.68 0 0 0 .64-.25.7.7 0 0 0-.11-1l-4.23-3.36a.7.7 0 1 0-.87 1.1l4.23 3.38a.64.64 0 0 0 .34.13z"/><circle class="cls-4" cx="72.02" cy="67.48" r=".7"/><path class="cls-32" d="M60.68 79.4s4.9 1.36 6.11-1.32"/><circle class="cls-31" cx="59.22" cy="78.93" r="1.49"/><path class="cls-4" d="M61.18 77.43a.7.7 0 0 0-.86.49l-.67 2.44a.7.7 0 0 0 .49.86.69.69 0 0 0 .86-.49l.67-2.44a.71.71 0 0 0-.49-.86z"/><path class="cls-34" d="M4.26 68.54A26.19 26.19 0 0 0 15.33 71"/><circle class="cls-35" cx="15.82" cy="71.15" r="1.49"/><path class="cls-4" d="M14.49 69.07a.7.7 0 0 0-.75.64l-.21 2.53a.7.7 0 0 0 1.4.11l.2-2.52a.7.7 0 0 0-.64-.76z"/><path d="M12.62 67l3.3 2.33c.29.13-4.63-1.24-4.63-1.24z" fill="#ffdf8a"/><path class="cls-7" d="M14.45 76.08l-4.72-1.25 1.56-6.78L16 69.3l-1.55 6.78z"/><path class="cls-8" d="M14.36 76.07l.76-.77 1.56-6.78-.76.77-1.56 6.78z"/><path class="cls-34" d="M4.2 78l7.75.18"/><path class="cls-16" d="M12.91 74.35a1.7 1.7 0 0 1 1.66 1.73 1.33 1.33 0 0 1-1.35 1.29h-1.25v1.68l3.82.09a.44.44 0 0 0 .45-.43l.1-4.21a1.73 1.73 0 0 0-1.59-1.77 1.71 1.71 0 0 0-1.84 1.62z"/><path class="cls-17" d="M13.66 77.38V78a.44.44 0 0 1-.88 0v-.65a.44.44 0 1 1 .87 0z"/><ellipse class="cls-18" cx="4.66" cy="73.29" rx="5.54" ry="4.63" transform="rotate(-85.14 4.6585 73.2873)"/><path class="cls-18" d="M2.9 76.88l2.89.25-.73-8.53-2.16 8.28z"/><path class="cls-16" d="M.05 72.89v.94l9.16.78a9.1 9.1 0 0 0 .11-.93v-.56l-9.2-.78z"/><path class="cls-17" d="M9.33 74.63l-.65-.06.12-1.49.66.06-.13 1.49z"/><path class="cls-34" d="M4.26 68.54s0 4.58 6.46 4.59"/><circle class="cls-35" cx="11.21" cy="73.34" r="1.49"/><path class="cls-4" d="M9.88 71.26a.7.7 0 0 0-.75.64l-.21 2.52a.7.7 0 0 0 1.4.12l.2-2.52a.7.7 0 0 0-.64-.76z"/><path class="cls-16" d="M6.52 61.48c-1.08 2.07 3.14 1.8 2 4l1.52.79c.24-.45 1.09-3.49-1.46-4.82a1.85 1.85 0 0 0-2.06.03zM10 66.26l-1.71 3.3a1.07 1.07 0 0 1-1.49.29 1.08 1.08 0 0 1-.62-1.38l1.72-3.3z"/><circle class="cls-35" cx="6.65" cy="64.85" r="3.28"/><path class="cls-35" d="M9.85 64.13l.67 2.97-1.07-.54.4-2.43z"/><path class="cls-4" d="M9.27 66.83L7.59 66a1.72 1.72 0 0 0 .25 2 2.87 2.87 0 0 0 1.43-1.17z"/><path class="cls-16" d="M8.65 64.93a.62.62 0 0 1-.82.26.61.61 0 0 1-.25-.82.6.6 0 0 1 1.07.56zM6.5 64.42a4.5 4.5 0 0 0 1-2.74 3.32 3.32 0 0 0-3.45 1 3.33 3.33 0 0 0-.49 3.19 4.24 4.24 0 0 0 2.94-1.45z"/><path class="cls-16" d="M6 64.33l-1.7 3.3a1.17 1.17 0 0 1-1.58.25A1.16 1.16 0 0 1 2 66.44l1.72-3.29zM7.39 62.54s-.1.94 1.27 1.64l1.36.71-.09-2-2.22-1.45-.91.05z"/><path class="cls-18" d="M4.13 63.02l1.07-4.79 4.09 3.82-5.16.97z"/><path class="cls-4" d="M3.86 63.76a.72.72 0 0 1-.45-.53.71.71 0 0 1 .59-.82l5.3-1a.7.7 0 1 1 .27 1.38l-5.31 1a.77.77 0 0 1-.4-.03z"/><circle class="cls-4" cx="5.05" cy="57.57" r=".7"/><path class="cls-35" d="M6.74 64.39l-.64-2.06s-1.27 1.25-.86 2.53a.76.76 0 0 0 .39.47.79.79 0 0 0 1.06-.33.74.74 0 0 0 .05-.61z"/><path class="cls-7" d="M15.59 83.8h2.14l1.33-5.83h-2.14l-1.33 5.83z"/><path class="cls-8" d="M17.83 83.8l4.78.11 1.33-5.83-4.78-.11-1.33 5.83z"/><path class="cls-7" d="M18.07 83.86h-.61s-.05 0-.05-.06l1.33-5.8a.07.07 0 0 1 .07-.06h.61V78l-1.33 5.8a.07.07 0 0 1-.02.06z"/><path class="cls-5" d="M17.77 83.69a7.54 7.54 0 0 1 3.23-.44l1.35-5.91a8 8 0 0 0-3.22.6z"/><path class="cls-6" d="M17.77 83.69a8 8 0 0 1 3.43-.44l1.32-5.77a8 8 0 0 0-3.44.46z"/><path class="cls-5" d="M17.77 83.69a8.53 8.53 0 0 1 3.64-.44l1.3-5.69a8.41 8.41 0 0 0-3.63.38z"/><path class="cls-6" d="M17.77 83.69a9.14 9.14 0 0 1 4-.44L23 77.68a8.78 8.78 0 0 0-3.94.26z"/><path class="cls-5" d="M17.77 83.69a3.24 3.24 0 0 0-1.55-.39l1.27-5.57a3.28 3.28 0 0 1 1.59.21z"/><path class="cls-6" d="M17.77 83.69a3.48 3.48 0 0 0-1.67-.39l1.27-5.56a3.64 3.64 0 0 1 1.71.2z"/><path class="cls-5" d="M17.77 83.69A3.89 3.89 0 0 0 16 83.3l1.26-5.53a3.86 3.86 0 0 1 1.83.17z"/><path class="cls-6" d="M17.77 83.69a4.06 4.06 0 0 0-1.95-.39c.42-1.82.83-3.64 1.25-5.46a4.23 4.23 0 0 1 2 .1z"/><path class="cls-20" d="M17.77 83.69a9.14 9.14 0 0 1 4-.44L23 77.68a8.78 8.78 0 0 0-3.94.26z"/><path class="cls-19" d="M17.84 75.22l2.51.91-2.59 2.36.08-3.27z"/><path class="cls-19" d="M19.27 75.7a3.13 3.13 0 0 1-1 4.32 3.12 3.12 0 0 1-4.31-1 3.12 3.12 0 0 1 1-4.31 3.12 3.12 0 0 1 4.31 1z"/><path class="cls-37" d="M16.37 74.26a3.12 3.12 0 0 0-.69 6.09c2.91.22 4.17-6.16.69-6.09z"/><path class="cls-19" d="M18.73 77.2l-1.15-1.33s-.75 3.39.89 2.18z"/><path class="cls-38" d="M15.54 90c.29 0 4.51-.18 5.15-.17"/><path class="cls-16" d="M21.43 86.72a1.36 1.36 0 0 1 1.34 1.37 1.06 1.06 0 0 1-1.07 1h-1v1.4h3.05a.35.35 0 0 0 .36-.34l.05-3.43a1.36 1.36 0 1 0-2.71-.07z"/><path class="cls-17" d="M22.05 89.13v.53a.34.34 0 0 1-.35.34.35.35 0 0 1-.35-.35v-.53a.35.35 0 0 1 .7 0z"/><path class="cls-18" d="M14.03 89.07l2.44.26-.33-8.4-2.11 8.14z"/><path class="cls-39" d="M15.08 90.76a2.16 2.16 0 0 0 2.54-2.2c.21-2 1.71-2.47 1.92-4.4a3.43 3.43 0 0 0-3.32-3.93 3.42 3.42 0 0 0-4.08 3.13c-.21 1.93 1.15 2.72.93 4.71a2.17 2.17 0 0 0 2.01 2.69z"/><path class="cls-16" d="M18.11 87.06l-5.2-.56a3.8 3.8 0 0 1 .17 1.5l4.55.49a3.7 3.7 0 0 1 .48-1.43z"/><path class="cls-17" d="M18.05 88.55l-.64-.07.16-1.48.64.07-.16 1.48z"/><path class="cls-37" d="M16.28 74.38a3 3 0 0 0-2.15 1.76 3 3 0 0 0 2.25-1.26 3.28 3.28 0 0 0 .9.37 3 3 0 0 0 1.67-.1 3 3 0 0 0-2.67-.77z"/><path class="cls-38" d="M16.5 81.93c1.07 5.07 5.16.79 5.16.79"/><circle class="cls-19" cx="22.58" cy="82.07" r="1.49"/><path class="cls-4" d="M22.74 83.56l-1.57-2a.7.7 0 1 0-1.1.87l1.57 2a.7.7 0 0 0 1 .11.69.69 0 0 0 .1-.98z"/><path class="cls-39" d="M13.46 77l-.75-4.85 5.2 2.07L13.46 77z"/><path class="cls-4" d="M13.47 77.78a.68.68 0 0 1-.6-.32.71.71 0 0 1 .21-1l4.57-2.9a.7.7 0 1 1 .75 1.18l-4.57 2.9a.66.66 0 0 1-.36.14z"/><circle class="cls-4" cx="12.33" cy="71.59" r=".7"/><path d="M18.26 77.9a.4.4 0 1 0 .36.44" stroke="#f9ce1d" stroke-width=".21" fill="none" stroke-miterlimit="10"/><path class="cls-37" d="M15.49 77.94l1 1.22a1.56 1.56 0 0 1-.23 2.19l-1-1.22a1.56 1.56 0 0 1 .23-2.19zM15.26 80.13l1 1.22a1.57 1.57 0 0 1-.24 2.2l-1-1.22a1.57 1.57 0 0 1 .24-2.2zM15 82.33l1 1.22a1.55 1.55 0 0 1-.24 2.19l-1-1.22a1.56 1.56 0 0 1 .24-2.19zM14.82 87.21l.08-.78a.78.78 0 0 1 .86-.69l-.08.78a.78.78 0 0 1-.86.69z"/><path class="cls-37" d="M16.37 87.38l.09-.78a.79.79 0 0 0-.7-.86l-.08.78a.78.78 0 0 0 .69.86z"/><path class="cls-7" d="M30.75 90.44h2.14l1.33-5.83h-2.14l-1.33 5.83z"/><path class="cls-8" d="M32.99 90.44l4.78.11 1.33-5.83-4.78-.11-1.33 5.83z"/><path class="cls-7" d="M33.23 90.5h-.61v-.06l1.33-5.8a.07.07 0 0 1 .07-.06h.61s.05 0 .05.06l-1.33 5.8a.07.07 0 0 1-.12.06z"/><path class="cls-5" d="M32.93 90.33a7.38 7.38 0 0 1 3.18-.44L37.46 84a7.85 7.85 0 0 0-3.22.6z"/><path class="cls-6" d="M32.93 90.33a7.89 7.89 0 0 1 3.43-.44l1.32-5.77a8 8 0 0 0-3.44.46z"/><path class="cls-5" d="M32.93 90.33a8.53 8.53 0 0 1 3.64-.44l1.3-5.69a8.26 8.26 0 0 0-3.63.38z"/><path class="cls-6" d="M32.93 90.33a9.14 9.14 0 0 1 4-.44l1.27-5.57a8.78 8.78 0 0 0-3.94.26z"/><path class="cls-5" d="M32.93 90.33a3.24 3.24 0 0 0-1.55-.39l1.27-5.57a3.28 3.28 0 0 1 1.59.21z"/><path class="cls-6" d="M32.93 90.33a3.48 3.48 0 0 0-1.67-.39l1.27-5.56a3.52 3.52 0 0 1 1.71.2z"/><path class="cls-5" d="M32.93 90.33a3.77 3.77 0 0 0-1.78-.39l1.26-5.53a3.86 3.86 0 0 1 1.83.17z"/><path class="cls-6" d="M32.93 90.33a4.06 4.06 0 0 0-1.93-.39c.42-1.82.83-3.64 1.25-5.46a4.23 4.23 0 0 1 2 .1z"/><path class="cls-20" d="M32.93 90.33a9.14 9.14 0 0 1 4-.44l1.27-5.57a8.78 8.78 0 0 0-3.94.26z"/><path class="cls-41" d="M31.13 96l13-.49"/><path class="cls-16" d="M44.66 92.4a1.37 1.37 0 0 1 1.41 1.31 1.06 1.06 0 0 1-1 1.09h-1l.06 1.4 3-.11a.35.35 0 0 0 .34-.37l-.13-3.42A1.38 1.38 0 0 0 46 91a1.35 1.35 0 0 0-1.34 1.4z"/><path class="cls-17" d="M45.41 94.78v.53a.36.36 0 0 1-.34.36.34.34 0 0 1-.36-.34v-.52a.34.34 0 0 1 .33-.36.35.35 0 0 1 .37.33z"/><path class="cls-42" d="M29.04 94.21l3.14.23-.88-9.69-2.26 9.46z"/><path class="cls-42" d="M32.67 89.26c.07-1 1.13-1.26 1.22-2.59a2.53 2.53 0 0 0-2.54-2.62 2.55 2.55 0 0 0-2.9 2.23c-.09 1.33.92 1.71.84 2.74-.09 1.33-2.24 2.23-2.4 4.41-.14 2 1.21 3.13 3.54 3.3s3.84-.8 4-2.76c.14-2.18-1.86-3.38-1.76-4.71z"/><path class="cls-16" d="M29.28 88.66a1.43 1.43 0 0 1 0 .36 2.07 2.07 0 0 1-.51 1.11l4.24.3a2.14 2.14 0 0 1-.35-1.17 1.36 1.36 0 0 1 .07-.35z"/><path class="cls-17" d="M33.02 90.43l-.55-.04.11-1.49.55.04-.11 1.49z"/><path class="cls-25" d="M32.1 82c-2 1.52-4.29 1.18-5.11.18-1.32-1.58.09-3.17 2.09-4.69s3-2.24 4.54-1.31c1.66 1.08.48 4.35-1.52 5.82z"/><circle class="cls-24" cx="31.56" cy="81.07" r="2.99"/><path class="cls-16" d="M33.43 80.35a.6.6 0 1 1-.56-.65.62.62 0 0 1 .56.65z"/><path class="cls-25" d="M33.75 78a3.5 3.5 0 0 1-4.94-.35z"/><path class="cls-41" d="M31.06 86.19c1.58 5.72 5.5 2.34 5.5 2.34"/><circle class="cls-24" cx="37.77" cy="88.03" r="1.49"/><path class="cls-4" d="M37.54 89.5l-1-2.32a.7.7 0 1 0-1.28.55l1 2.32a.7.7 0 0 0 1.29-.55z"/><path class="cls-24" d="M33.81 79.11l1.9 2.45-1.19-.08-.71-2.37z"/><path class="cls-4" d="M34.48 81.73l-1.91-.13a1.71 1.71 0 0 0 1 1.66 2.77 2.77 0 0 0 .91-1.53z"/><path class="cls-25" d="M31.62 80.85a4.44 4.44 0 0 0 .2-2.91 3.35 3.35 0 0 0-3 2 3.31 3.31 0 0 0 .4 3.2 4.17 4.17 0 0 0 2.4-2.29z"/><path fill="#f33" d="M26.92 79.56l-1.25-4.74 5.39 1.51-4.14 3.23z"/><path class="cls-4" d="M27 80.34a.7.7 0 0 1-.53-1.24l4.24-3.36a.71.71 0 0 1 1 .11.7.7 0 0 1-.12 1l-4.23 3.35a.64.64 0 0 1-.36.14z"/><circle class="cls-4" cx="25.23" cy="74.3" r=".7"/><path class="cls-24" d="M30.49 78.87a3.18 3.18 0 0 0 .17 2.66.68.68 0 0 0 .48.27.75.75 0 0 0 .76-.74.84.84 0 0 0-.16-.57z"/><path class="cls-7" d="M75.42 91.88h-2.13l-1.33-5.83h2.14l1.32 5.83z"/><path class="cls-8" d="M73.19 91.88l-4.78.11-1.33-5.83 4.78-.11 1.33 5.83z"/><path class="cls-7" d="M73 91.94h.61v-.06l-1.32-5.81a.09.09 0 0 0-.09-.07h-.6v.06l1.32 5.81a.1.1 0 0 0 .08.07z"/><path class="cls-5" d="M73.25 91.77a7.42 7.42 0 0 0-3.19-.44l-1.34-5.92a7.79 7.79 0 0 1 3.21.61z"/><path class="cls-6" d="M73.25 91.77a7.91 7.91 0 0 0-3.43-.44l-1.32-5.78a8.07 8.07 0 0 1 3.43.47z"/><path class="cls-5" d="M73.25 91.77a8.43 8.43 0 0 0-3.65-.44l-1.29-5.69a8.06 8.06 0 0 1 3.62.38z"/><path class="cls-6" d="M73.25 91.77a9.19 9.19 0 0 0-4-.44L68 85.76a8.76 8.76 0 0 1 3.94.26z"/><path class="cls-5" d="M73.25 91.77a3.24 3.24 0 0 1 1.55-.39l-1.27-5.57a3.32 3.32 0 0 0-1.6.21z"/><path class="cls-6" d="M73.25 91.77a3.45 3.45 0 0 1 1.67-.39l-1.27-5.56a3.57 3.57 0 0 0-1.72.2z"/><path class="cls-5" d="M73.25 91.77a3.65 3.65 0 0 1 1.75-.39l-1.27-5.53a3.76 3.76 0 0 0-1.83.17z"/><path class="cls-6" d="M73.25 91.77a4 4 0 0 1 1.94-.39c-.41-1.82-.83-3.64-1.24-5.46a4.15 4.15 0 0 0-2 .1z"/><path class="cls-20" d="M73.25 91.77a9.19 9.19 0 0 0-4-.44L68 85.76a8.76 8.76 0 0 1 3.94.26z"/><path class="cls-26" d="M73.31 81.13l-2.53.85 2.54 2.43-.01-3.28z"/><path class="cls-26" d="M71.88 81.58a3.13 3.13 0 0 0 .86 4.34 3.13 3.13 0 0 0 4.34-.87 3.12 3.12 0 0 0-.87-4.33 3.12 3.12 0 0 0-4.33.86z"/><path d="M74.81 80.21a3.13 3.13 0 0 1 .55 6.11c-2.92.14-4.03-6.26-.55-6.11z" fill="#1a1a1a"/><path class="cls-26" d="M72.38 83.09l1.18-1.3s.67 3.41-.94 2.16z"/><path class="cls-45" d="M75.25 96c-.29 0-4.5-.28-5.14-.28"/><path class="cls-16" d="M69.44 92.56a1.35 1.35 0 0 0-1.37 1.34 1 1 0 0 0 1 1.06h1v1.4h-3.06a.35.35 0 0 1-.31-.36v-3.42a1.36 1.36 0 1 1 2.71 0z"/><path class="cls-17" d="M68.76 95v.52a.35.35 0 1 0 .7 0V95a.35.35 0 0 0-.7 0z"/><path class="cls-18" d="M76.8 95.07l-2.44.2.52-8.39 1.92 8.19z"/><path class="cls-46" d="M75.71 96.74a2.17 2.17 0 0 1-2.49-2.26c-.16-2-1.64-2.51-1.81-4.45a3.73 3.73 0 0 1 7.42-.62c.16 1.93-1.22 2.69-1 4.69a2.16 2.16 0 0 1-2.12 2.64z"/><path class="cls-16" d="M72.77 93l5.23-.48a3.77 3.77 0 0 0-.2 1.52l-4.56.38a3.8 3.8 0 0 0-.47-1.42z"/><path class="cls-17" d="M72.79 94.46l.64-.06-.12-1.48-.64.05.12 1.49z"/><path class="cls-45" d="M69.6 89.53c4.92 2.15 5.67-.74 5.67-.74"/><circle class="cls-26" cx="68.26" cy="88.88" r="1.49"/><path class="cls-4" d="M70.46 87.76a.69.69 0 0 0-.93.33l-1.11 2.27a.7.7 0 0 0 .33.94.69.69 0 0 0 .93-.33l1.11-2.27a.71.71 0 0 0-.33-.94z"/><path class="cls-46" d="M77.66 83.01l.86-4.82-5.25 1.94 4.39 2.88z"/><path class="cls-4" d="M77.62 83.8a.71.71 0 0 0 .62-.31.7.7 0 0 0-.2-1l-4.49-3a.7.7 0 0 0-1 .19.69.69 0 0 0 .19 1l4.5 3a.77.77 0 0 0 .38.12z"/><circle class="cls-4" cx="78.91" cy="77.63" r=".7"/></symbol></defs><use width="89.66" height="96.75" xlink:href="#New_Symbol_110"/></svg>