<svg id="Layer_1" xmlns="http://www.w3.org/2000/svg" viewBox="0 0 21.1 57.1"><style>.st0{fill:#8c8c8c}.st1{stroke:#979797;stroke-width:1.381}.st1,.st2{fill:none;stroke-linecap:round;stroke-miterlimit:10}.st2{stroke:#ffd107;stroke-width:1.1186;stroke-linejoin:round}.st3{fill:#c32127}.st4{fill:#e64536}.st5{fill:#fbde89}.st6{fill:#333}.st7{fill:#FFF}.st8{fill:#e52127}.st9{fill:#fad307}.st10{fill:#fedf8a}</style><circle class="st0" cx="9.3" cy="50.5" r="2.2"/><circle class="st1" cx="9.5" cy="50.5" r="5.9"/><path class="st2" d="M9.5 50.5V26.2"/><circle class="st1" cx="9.6" cy="34.4" r="2.3"/><path class="st3" d="M14.7 7.7s-4.8-5-7.4-6.3c0 0 2 4 .4 5.7l7 .6z"/><path class="st4" d="M12.3 7.6s-2.5-4.8-5-6.2c0 0 2 4 .4 5.7l4.6.5z"/><path class="st5" d="M14.1 10.9c-.1 1.9-1.8 3.4-3.7 3.3-1.9-.1-3.4-1.8-3.3-3.7.1-1.9 1.8-3.4 3.7-3.3 1.9.1 3.4 1.8 3.3 3.7z"/><path class="st6" d="M12.4 7.7c-.5-.3-1-.5-1.6-.5-1.9-.1-3.6 1.4-3.7 3.3 0 .9.2 1.6.7 2.3 3.4-.7 4.3-3.6 4.6-5.1z"/><path class="st5" d="M11.5 11.7L9.8 9s-.9 4 1.4 3.7l.3-1z"/><path class="st7" d="M14.7 8.5c0 .3-.2.5-.5.4l-6.9-.4c-.3 0-.4-.2-.4-.5v-.9c0-.3.2-.5.5-.4l6.9.4c.3 0 .5.2.4.5v.9z"/><circle class="st6" cx="12.8" cy="10.3" r=".6"/><path class="st4" d="M13.2 22.7c-.1 1.9-1.8 3.4-3.7 3.3-1.9-.1-3.4-1.8-3.3-3.7l.3-4.8c.1-1.9 1.8-3.4 3.7-3.3 1.9.1 3.4 1.8 3.3 3.7l-.3 4.8z"/><path class="st4" d="M11.6 22.6c-.1 1.9-.1 3.5-2 3.4-1.9-.1-3.4-1.8-3.3-3.7l.3-4.8c.1-1.9 1.8-3.4 3.7-3.3 1.9.1 1.7 1.7 1.6 3.6l-.3 4.8z"/><path class="st7" d="M13.2 28l-2.1 3.7-1.6-.9 2.2-3.7"/><path class="st8" d="M9.2 25.1l2.7 1.5-1 1.7 1.6.9 1.2-2.1c.3-.5.3-1.2-.6-1.7l-.1-.1-1.4-.8"/><path class="st6" d="M9.6 30.5l1.8 1c-.1 1.5 1.5 2.4 2.2 1.7 0 0-.1 2.1-3.8-.3-.8-.5-1-1.8-.2-2.4zM6.352 20.603l6.99.395-.097 1.697-6.99-.395z"/><path class="st9" d="M13.055 20.787l.5.028-.113 1.997-.5-.028z"/><circle class="st7" cx="6.8" cy=".7" r=".7"/><path class="st5" d="M13.6 10.7l3.2 1.1c.4 0 .3.5-.2.5l-3.9-.2.9-1.4z"/><path class="st4" d="M18.9 20.1L10 16.7l1.3-1.8 8.4 3.4z"/><circle class="st10" cx="19.7" cy="19.4" r="1.4"/><path class="st4" d="M1.8 16.8l9.3-1.8-.2 2.2L2 18.8z"/><circle class="st10" cx="1.4" cy="17.8" r="1.4"/><path class="st6" d="M11.7 26.2c0 .3-.3.6-.6.6H7.7c-.3 0-.6-.3-.6-.6s.3-.6.6-.6h3.5c.3 0 .5.3.5.6z"/></svg>