<svg id="slice" xmlns="http://www.w3.org/2000/svg" viewBox="-81 332.1 447.3 129.9"><style>.st0{fill:#FFF}.st1{fill:#dcdfd8}.st2{fill:#70cc47}.st3{fill:#8bd463}.st4{opacity:.1;enable-background:new}.st5{fill:url(#SVGID_1_)}</style><g id="New_Symbol_109"><path class="st0" d="M55.1 391.1c-2.5 1.7-4.9 3.7-7.4 5.6-2.4 1.9-4.8 3.9-7.2 5.9-2.4 2-4.8 3.9-7.2 5.9-2.3 2-4.8 4-7.1 6.1-2.3 2.1-4.5 4.4-6.7 6.5-2.3 2.2-4.5 4.3-6.7 6.5s-4.4 4.5-6.5 6.7c-2.2 2.3-4.2 4.7-6.2 7-2.2 2.4-4.2 4.8-6.1 7"/><path class="st1" d="M-2.6 449.1c-3.4.5-3.9.5-6.7-1.5 1.9-2.2 3.7-4.5 5.9-7 2-2.2 4.3-4.3 6.6-6.7 2.1-2.2 4.3-4.4 6.5-6.7 2.2-2.2 4.4-4.4 6.7-6.6 2.2-2.1 4.4-4.4 6.7-6.5 2.3-2.1 4.6-4.3 6.9-6.3 2.4-2.1 4.8-4.1 7.2-6 2.4-2 5-3.8 7.5-5.7s4.9-3.8 7.5-5.5c3.2.1 3.9-.6 5.9 1.9-2.8 2-5.5 3.9-8.3 6.1-2.7 2.1-5.3 4.4-8 6.7-2.7 2.2-5.5 4.3-8.1 6.6-2.6 2.3-5 4.9-7.5 7.2-2.6 2.4-5.2 4.7-7.6 7.1-2.5 2.5-4.9 5.1-7.2 7.5-2.5 2.6-4.9 5.2-7.1 7.7-2.5 2.5-4.9 5.2-6.9 7.7z"/><path class="st0" d="M-19.6 407.3c3.3-.1 6.7.7 10 .7 3.3-.1 6.7-1.1 10-1.2 3.3-.1 6.7.4 10 .3 3.3 0 6.7-.4 10-.5 3.3 0 6.7.1 10 .1s6.7.3 10 .2c3.3 0 6.7-.7 10-.8 3.3 0 6.7.4 10 .4s6.7.3 10 .3 6.7.2 10 .2 6.7-.5 10-.5 6.7-.1 10-.1 6.7-.4 10-.4 6.7.5 10 .5 6.7.6 10 .6 6.7-.8 10-.8 6.7.6 10 .6 6.7-.3 10-.2c3.3 0 6.7.3 10 .3s6.7-.3 10-.2"/><path class="st1" d="M-19.7 409.5c-1.2-1.2-.8-2.1.4-3.3 3.3-.1 6.5-.9 9.8-1 3.3-.1 6.7.6 10.1.6 3.3-.1 6.7.2 10 .1 3.3 0 6.7-.6 10-.6s6.7.1 10 0c3.3 0 6.7-.4 10-.4s6.7.5 10 .5 6.7-.9 10-.9 6.7.9 10.1.8c3.3 0 6.7-.9 10-.9s6.7-.1 10-.1 6.7.6 10 .6 6.7.6 10 .6c3.4 0 6.7-.1 10-.1 3.4 0 6.7-.8 10.1-.7 3.4 0 6.7.1 10 .1s6.7.6 10 .7c3.4 0 6.7-.2 10-.1 3.3 0 6.7.2 10 .3 3.3 0 6.3.3 9.6.4 1.1 1.4 1.5 2.3.2 3.5-3.3-.1-7-.3-10.4-.4-3.3 0-6.7.1-10 .1s-6.7-.5-10-.5h-20c-3.3 0-6.7-.4-10-.4s-6.7.8-10 .7c-3.3 0-6.7-.4-10-.4h-10c-3.3 0-6.7.4-10 .5-3.3 0-6.7-1-10-1s-6.7-.1-10 0c-3.3 0-6.7 0-10 .1-3.3 0-6.7.2-10 .3-3.3 0-6.7-.1-10-.1s-6.7.9-10 .9-6.7.1-10 .1-6.7.3-10 .3c-3.3.1-6.7-.1-10 0-3.1-.3-6.6-.4-9.9-.3z"/><path class="st0" d="M-33 430c3.3.1 6.5.6 9.8.7 3.3.1 6.5-.1 9.8 0 3.3.1 6.5 1 9.8 1.1 3.3.1 6.5-.2 9.8-.2 3.3.1 6.5.1 9.8.2 3.3.1 6.5-.3 9.8-.2s6.5.2 9.8.3c3.3.1 6.5-.1 9.8-.1 3.3.1 6.5 1.1 9.8 1.1 3.3 0 6.5-.9 9.8-.9s6.5.6 9.8.6 6.5.3 9.8.3 6.5-.8 9.8-.8 6.5 1.1 9.8 1.1 6.5.3 9.8.3 6.5-.3 9.8-.2c3.3 0 6.5-.1 9.8-.1s6.5.1 9.8.1 6.5-.3 9.8-.3 6.5-.4 9.8-.4 6.5.6 9.8.6c3.3 0 6.5-.1 9.8-.1s6.5-.7 9.8-.8"/><path class="st1" d="M128.4 434.5c-3.4 0-6.7.3-10.1.3-3.4 0-6.7.3-10.1.3-3.4 0-6.7.1-10.1 0-3.4 0-6.7-.9-10.1-.9-3.4 0-6.7.1-10.1 0-3.4 0-6.7-.5-10.1-.5-3.4 0-6.8.9-10.1.8-3.4 0-6.7-.4-10.1-.4l-10.1-.3c-3.4-.1-6.7-.2-10.1-.2-3.4-.1-6.8.3-10.1.3-3.4-.1-6.7-1.2-10.1-1.3s-6.7 0-10.1-.1c-3.4-.1-6.8.7-10.1.6-3.4-.1-6.7-1.4-10.1-1.5-3.4-.1-6.5.3-9.9.2-1-1.4-.9-2.2.5-3.3 3.2.1 6.5.7 9.7.8s6.4 0 9.7.1c3.2.1 6.4.7 9.6.8s6.4-.4 9.7-.3c3.2.1 6.4.4 9.7.5 3.2.1 6.4 0 9.7 0 3.2.1 6.4-.2 9.7-.1 3.2.1 6.4.3 9.7.4 3.2.1 6.4.4 9.7.4 3.2 0 6.4 0 9.7.1 3.2 0 6.4.3 9.7.3 3.2 0 6.4-.1 9.7-.1 3.2 0 6.4-.4 9.7-.4 3.2 0 6.4-.1 9.7-.1 3.2 0 6.4-.2 9.7-.2 3.2 0 6.4-.1 9.7-.1 3.2 0 6.4.5 9.7.5 3.2 0 6.4-.4 9.7-.4 3.2 0 6.4 1.1 9.7 1.1 3.2 0 6.4-.7 9.7-.7 3.2 0 6.4.1 9.7.1 3.2 0 6.4-.8 9.7-.8 3.2 0 6.2 1.1 9.4 1 2.5 1 3.5.2 4.4 2.7-3 0-6.1-.3-9.3-.3-3.1 0-6.2.9-9.3.9-3.1 0-6.2.2-9.3.3-3.1 0-6.2-.6-9.4-.5-3.1 0-6.3-.5-9.4-.4-3.2 0-6.3.8-9.3.8-4-.1-7.1-.4-10.2-.4z"/><path class="st1" d="M56.3 393.5c-2.5 1.7-5 3.6-7.5 5.5-2.4 1.9-4.9 3.7-7.4 5.7-2.4 2-4.9 3.8-7.3 5.9-2.3 2-4.6 4.1-6.9 6.2-2.3 2.1-4.6 4.2-6.8 6.4-2.3 2.2-4.3 4.6-6.4 6.8-2.2 2.2-4.4 4.5-6.4 6.7-2.2 2.3-4.5 4.5-6.5 6.7-2.2 2.4-4.3 4.7-6.2 7m94.9 6.8c.1 0 3.9 0 7.6-.8.3-.9.5-1.8.8-2.7.8-2.8 1.8-5.5 2.5-8.3.8-2.8 1.6-5.6 2.3-8.3.7-2.8 1.2-5.5 1.9-8.3.3-1.2.7-2.4.6-3.5-.1-1 .7-2.1.3-3-.3-.5-.8-1-1-1.6-.3-.7.2-1.5.7-2.3 1.1-1.8 2.3-3.7 2.8-5.4.3-1 .6-1.8.6-2.7.1-2.6.7-5.2 1.6-7.9.4-1.1.9-2.2.5-3.2-.2-.5-.6-.9-.5-1.4.1-.6.8-1.4.8-2 0-.3-.4-.5-.6-.8-.2-.3-.3-.6-.6-.8-1.3-.6-4.4-.5-6.5-.1-.5 3.4-.9 6.8-1.5 10.2-.6 3.3-1.1 6.7-1.7 10.1-.6 3.3-1.5 6.6-2.3 9.9-.2 1-1 5.7-2.4 11.1-.9 3.5-2.2 7.4-3.1 10.9-1.4 5.8-2.6 10.8-2.8 10.9z"/><path class="st1" d="M-32.2 432.4c3.3.1 6.5.6 9.8.7s6.5-.4 9.8-.3c3.3.1 6.5.8 9.8.9 3.3.1 6.5.3 9.8.3 3.3.1 6.5-.7 9.8-.7 3.3.1 6.5 1.2 9.8 1.3s6.5.2 9.8.2c3.3.1 6.5-.8 9.8-.7 3.3.1 6.5 0 9.8 0s6.5.6 9.8.6 6.5.1 9.8.2c3.3 0 6.5-.5 9.8-.4 3.3 0 6.5.3 9.8.4h9.8c3.3 0 6.5.7 9.8.7h9.8c3.3 0 6.5-.4 9.8-.4s6.5-.2 9.8-.3h9.8c3.3 0 6.5.3 9.8.2 3.3 0 6.5-.3 9.8-.3s6.5.5 9.8.5c3.3 0 6.5-.2 9.8-.3"/><path class="st2" d="M353.8 436.8l-.1 1.3c-.1 1.8-1.5 3.2-3.3 3.4l-16.2 3.2 1.1-17 15.7 5.2c1.7.5 2.9 2.1 2.8 3.9z"/><path class="st2" d="M263.7 441.8l1.3-20.1 71.9 4.5-1.3 20.1-71.9-4.5z"/><path class="st3" d="M269.4 442.2l1.3-20.1 60.3 3.8-1.3 20.1-60.3-3.8z"/><path class="st2" d="M277.4 442.7l1.3-20.1 2.4.1-1.3 20.1-2.4-.1zm-4-.2l1.3-20.1 2.4.1-1.3 20.1-2.4-.1zm49.9 3.1l1.3-20.1 2.4.1-1.3 20.1-2.4-.1zm-4-.3l1.3-20.1 2.4.1-1.3 20.1-2.4-.1zm-8.4-13.9l-.4 6.7c-.1 2-1.9 3.5-3.9 3.4l-17.6-1.1c-2-.1-3.5-1.9-3.4-3.9l.4-6.7c.1-2 1.9-3.5 3.9-3.4l17.6 1.1c2 .2 3.5 1.9 3.4 3.9z"/><path class="st4" d="M336.1 436.6l-.6 9.9-62.1-3.8.6-9.9 62.1 3.8z"/><path class="st4" d="M335.8 441.3l-.2 3.1 14.8-3c1.8-.2 3.2-1.7 3.3-3.5l.1-1.3c0-.3 0-.6-.1-.9-.4 1.3-1.6 2.4-3.1 2.5l-14.8 3.1z"/><linearGradient id="SVGID_1_" gradientUnits="userSpaceOnUse" x1="320.5" y1="358.674" x2="320.5" y2="338.499" gradientTransform="matrix(1 0 0 -1 0 796.2)"><stop offset=".073" stop-color="#FFF"/><stop offset=".624" stop-color="#FFF"/><stop offset="1" stop-color="#FFF" stop-opacity="0"/></linearGradient><path class="st5" d="M366.3 458.7c-23-13.3-24.3-19.5-36.8-23.8-3.3-1.2-6.3-1.6-9-1.5-2.7-.1-5.7.4-9 1.5-12.5 4.3-13.9 10.5-36.8 23.8h91.6z"/></g></svg>