<svg id="Layer_1" xmlns="http://www.w3.org/2000/svg" viewBox="-218 304.8 173.5 184.2"><style>.st0{fill:none;stroke:#b99960;stroke-width:6.6954;stroke-linecap:round;stroke-linejoin:round;stroke-miterlimit:10}.st1{fill:#d5b06f}.st2{fill:#b99960}.st3{fill:#fff}.st4{fill:none;stroke:#b0b0b0;stroke-width:4.7023;stroke-linecap:round;stroke-linejoin:round;stroke-miterlimit:10}.st5{fill:#5f449b}.st6{fill:#44b3e6}.st7{fill:#333}.st8{fill:#b46d3d}.st9{fill:none;stroke:#d5b06f;stroke-width:6.6954;stroke-linecap:round;stroke-linejoin:round;stroke-miterlimit:10}</style><g id="Layer_2"><path class="st0" d="M-149.4 433.2c2.5 19.2.4 35.6-11.6 46.2m69.2-59.6c14.6 6.7 22.5 16.2 23.3 36.5"/><path class="st1" d="M-112.5 373.1c2.8 11.8 5.4 25.3 5.4 25.3l-39.6 9.4c-10.2 2.4-16.5 12.6-14.1 22.8l.2 1c2.4 10.2 12.6 16.5 22.8 14.1l39.6-9.3c10.2-2.4 16.5-12.6 14.1-22.8l-10.5-44.7-17.9 4.2z"/><path class="st2" d="M-161 429.7c2.8 9.7 12.7 15.5 22.6 13.2l39.6-9.3c1.1-.3 2.2-.6 3.2-1.1 1.6.3 3.1.4 4.7.4-2.1 1.6-4.5 2.8-7.3 3.5l-39.6 9.3c-10.2 2.4-20.4-3.9-22.8-14.1l-.2-1c0-.3-.1-.6-.2-.9z"/><path class="st3" d="M-156 412.6c.8 3.2-1.2 6.4-4.4 7.1-14.5 3.4-17.9-4.6-18.7-7.8 1.4-.3 12.8-3 16-3.8 3.2-.8 6.3 1.3 7.1 4.5zm72 1c-14.2-9.8-16.1-27.8-6.8-29.8l6.8 29.8z"/><path class="st4" d="M-93.2 357.1l1.8-11c.5-2.7-1.4-5.3-4.1-5.7l-6.9-1.1c-2.7-.5-4.5-3-4.1-5.7l1.1-6.5m13.8 20.7l8.4 1.4c2.7.5 5.3-1.4 5.7-4.1l.8-4.9"/><path class="st1" d="M-112.6 369.2c1.9-11.5 11.3-15.1 18.6-13.8 10.7 1.9 21.4 14.8 29.6 23.6 8.2 8.8 1.3 14.3-5.2 13.2l-29.6-5c-7.7-1.3-15-8.2-13.4-18z"/><path class="st5" d="M-96.7 349.1l-6.9 4-8 .4c-2 .1-3.5 2.1-2.9 4.1l1 3.5c.6 2 2.8 2.9 4.6 1.8l6.9-4 8-.4c2-.1 3.5-2.1 2.9-4.1l-1-3.5c-.5-1.9-2.8-2.8-4.6-1.8z"/><circle class="st6" cx="-102.7" cy="356" r="4.4"/><path class="st3" d="M-78.1 375c-.7 3.9-4.3 6.5-8.2 5.9-3.9-.7-6.5-4.3-5.8-8.2.7-3.9 4.3-6.5 8.2-5.8 3.8.6 6.4 4.2 5.8 8.1z"/><path class="st7" d="M-81.6 373.9c1.5 1.2 1.7 3.4.5 4.8-1.2 1.5-3.4 1.7-4.8.5-1.5-1.2-1.7-3.4-.5-4.8 1.2-1.5 3.3-1.7 4.8-.5z"/><path class="st8" d="M-57.3 393.2c-2.9-.5-4.8-3.2-4.3-6.1.5-2.9 3.2-4.8 6.1-4.3 2.9.5 4.8 3.2 4.3 6.1-.5 2.8-3.2 4.8-6.1 4.3z"/><path class="st9" d="M-100.5 421.8c8.1 12.3 14.3 26 11 46.7m-49.5-31.2c8.4 11.1 4.5 32.2-2.3 43.7"/></g></svg>