<svg id="layout" xmlns="http://www.w3.org/2000/svg" viewBox="0 0 10.9 10.9"><defs><style>.cls-1{fill:none}.cls-2{fill:#62aac8}</style></defs><path class="cls-1" d="M10.82.63A.72.72 0 0 1 9.45.32.73.73 0 0 1 9.54 0H1a1 1 0 0 0-1 1v8.9a1 1 0 0 0 1 1h.87a3.36 3.36 0 0 1 3.52-2.43 3 3 0 0 1-2.94-2.78H1.29c-.37 0-.36-.28-.11-.37l1.39-.69a2.94 2.94 0 0 1 1-1.47l.15-.08.15-.08h.06l-.11-.09a.7.7 0 0 1-.11-1 .71.71 0 0 1 1-.11l.47.38L9.7.87l-1.07 4 .25.2a.7.7 0 0 1 .11 1 .72.72 0 0 1-.64.25h-.09a1.54 1.54 0 0 1 0 2.17 1.55 1.55 0 0 1 .35 1.65 3.39 3.39 0 0 1 .33.78h1a1 1 0 0 0 1-1V1a.87.87 0 0 0-.12-.37zM8.24 6.29z"/><path class="cls-1" d="M6.75 8.13a3 3 0 0 1-1.36.34 4.53 4.53 0 0 1 1.33.2 1.62 1.62 0 0 1 .03-.54z"/><path class="cls-2" d="M8.25 8.47a1.54 1.54 0 0 0 0-2.17h.09A.72.72 0 0 0 9 6.09a.7.7 0 0 0-.11-1l-.25-.2 1.07-4-4.55 1.25-.47-.38a.71.71 0 0 0-1 .11.7.7 0 0 0 .11 1l.11.09-.04.04-.16.11-.15.08a2.94 2.94 0 0 0-1 1.47l-1.39.69c-.25.09-.26.37.11.37h1.17a2.93 2.93 0 0 0 4.3 2.44 1.62 1.62 0 0 0 0 .54 4.53 4.53 0 0 0-1.33-.2 3.36 3.36 0 0 0-3.55 2.4h7.06a3.39 3.39 0 0 0-.33-.78 1.55 1.55 0 0 0-.35-1.65zm0-2.18zM10.17 1a.71.71 0 0 0 .65-.41A1 1 0 0 0 9.9 0h-.36a.73.73 0 0 0-.09.32.72.72 0 0 0 .72.68z"/></svg>