<?xml version="1.0" encoding="utf-8"?>
<!-- Generator: Adobe Illustrator 19.1.0, SVG Export Plug-In . SVG Version: 6.00 Build 0)  -->
<svg version="1.1" id="Layer_1" xmlns="http://www.w3.org/2000/svg" xmlns:xlink="http://www.w3.org/1999/xlink" x="0px" y="0px"
	 viewBox="0 0 12.7 31.7" style="enable-background:new 0 0 12.7 31.7;" xml:space="preserve">
<style type="text/css">
	.st0{fill:#29AE4A;}
	.st1{fill:#FEDF8A;}
	.st2{fill:#333333;}
	.st3{fill:#FFFFFF;}
	.st4{fill:#FED401;}
</style>
<g>
	<g>
		<path class="st0" d="M2.6,7.2c0,0,5-4.6,7.6-5.9c0,0-2.2,3.9-0.7,5.6L2.6,7.2z"/>
		<path class="st1" d="M3,10.4c0,1.9,1.5,3.4,3.4,3.4l0,0c1.9,0,3.4-1.5,3.4-3.4l0,0c0-1.9-1.5-3.4-3.4-3.4l0,0
			C4.5,6.9,3,8.5,3,10.4L3,10.4z"/>
		<g>
			<path class="st2" d="M4.8,7.3c0.5-0.3,1-0.4,1.6-0.4c1.9,0,3.4,1.5,3.4,3.4c0,0.8-0.3,1.6-0.8,2.2C5.8,11.7,5,8.7,4.8,7.3z"/>
		</g>
		<path class="st1" d="M5.5,11.3l1.8-2.6c0,0,0.7,4-1.6,3.5L5.5,11.3z"/>
		<path class="st3" d="M2.5,7.9c0,0.3,0.2,0.5,0.5,0.5h6.9c0.3,0,0.5-0.2,0.5-0.5V7.1c0-0.3-0.2-0.5-0.5-0.5H3
			c-0.3,0-0.5,0.2-0.5,0.5V7.9z"/>
		<circle class="st2" cx="4.3" cy="9.9" r="0.6"/>
		<path class="st0" d="M3.2,22c0,1.9,1.5,3.4,3.4,3.4c1.9,0,3.4-1.5,3.4-3.4v-4.8c0-1.9-1.5-3.4-3.4-3.4c-1.9,0-3.4,1.5-3.4,3.4V22z
			"/>
		<polyline class="st3" points="5.9,25.8 5.9,30.1 7.7,30.1 7.7,25.8 		"/>
		<path class="st0" d="M7.3,23.5c-1.2,0-1.4,0.6-1.4,1.2v2.6h1.8v-2.9L7.3,23.5z"/>
		<path class="st2" d="M7.8,29.7H5.7C5,31.1,3.2,31.1,3,30.1c0,0-1,1.9,3.4,1.6C7.3,31.7,8.2,30.7,7.8,29.7z"/>
		<rect x="3.2" y="20.3" class="st2" width="6.9" height="1.7"/>
		<rect x="3" y="20.1" class="st4" width="0.5" height="2"/>
		<circle class="st3" cx="10.7" cy="0.7" r="0.7"/>
		<circle class="st1" cx="6.5" cy="20.6" r="1.3"/>
	</g>
	<path class="st1" d="M3.5,10.2l-3.2,0.9c-0.4,0-0.4,0.5,0.2,0.5h3.9L3.5,10.2z"/>
</g>
<g>
	<path class="st2" d="M10.7,13c0.6,0.5,1.3,0.8,2.1,0.6c0.1-0.7-0.1-1.5-0.7-2c-0.6-0.5-1.3-0.8-2.1-0.6C9.8,11.7,10.1,12.4,10.7,13
		z"/>
</g>
</svg>
