<svg xmlns="http://www.w3.org/2000/svg" width="1925" height="374" viewBox="20 0 1945 374"><defs><linearGradient x1="50%" y1="67.477%" x2="50%" y2="-26.048%" id="a"><stop stop-color="#FFF" offset="0%"/><stop stop-color="#F2FEFF" offset="17.3%"/><stop stop-color="#D8FBFF" offset="99.5%"/></linearGradient></defs><g fill="none" fill-rule="evenodd"><path d="M1719.45 4.422c-411 15.32-426.017 101.694-1125.62 54.95C454.36 46.955 120.15 1.732.99 1.032v372.96h1963.82V1.032c-69.86-.86-151.37-.12-245.36 3.39z" fill="#FFF"/><path d="M1719.45 4.422c-411 15.32-426.017 101.694-1125.62 54.95C454.36 46.955 120.15 1.732.99 1.032v372.96h1963.82V1.032c-69.86-.86-151.37-.12-245.36 3.39z" fill="#FFF"/><path d="M1027.31 95.13C904.792 96.244 782.326 89 660.41 77.266 596.174 71.084.99 33.171.99 34.073v339.919h1963.82V34.072c-472.24 0-817.377 59.97-937.5 61.06v-.002z" fill="#EDFDFF"/><path d="M1964.81 278.498V.328H.99v278.19c16.34.11 57.95-1.4 115.26-3.77 59.37-2.44 135.59-5.81 218.07-9.26 189.04-7.91 410.98-16.28 538.3-15.11 76.01.7 148.14 3.71 223.97 7.55 3.25.16 6.51.33 9.78.5h.02c163.89 8.42 346.43 20.44 623.25 21.46 89.46.33 167.61-.26 235.17-1.39z" fill="url(#a)" transform="matrix(1 0 0 -1 0 374.32)"/></g></svg>