<svg id="Layer_1" xmlns="http://www.w3.org/2000/svg" xmlns:xlink="http://www.w3.org/1999/xlink" viewBox="4257 824.3 3445.3 285.7"><style>.st0{opacity:8e-2;fill:#0f0f0f}.st0,.st1{enable-background:new}.st1{opacity:.1}.st2{fill:#888480}.st3{fill:#7099ba}.st4{fill:#8ab8d4}.st5{fill:#FFF;stroke:#FFF;stroke-width:.4721;stroke-linejoin:round;stroke-miterlimit:10}.st6{fill:#b0e1e8}.st7{opacity:.22;fill:#FFF;enable-background:new}.st8{fill:#716e69}.st9{fill:#71bdde}.st10{fill:#659bc7}.st11{fill:#70afd4}.st12{fill:none}.st13{fill:#97cee6}.st14{fill:#FFF}.st15{opacity:.51}.st16{fill:#32d0e6}.st17{fill:#32cbe6}.st18{fill:#8de0f2}.st19{fill:#f5f2e2}.st20{fill:url(#XMLID_37_)}.st21{fill:#638aaa}.st22{fill:#4cb5cf}.st23{fill:url(#XMLID_38_)}.st24{fill:url(#XMLID_39_)}.st25{fill:url(#XMLID_40_)}.st26{fill:url(#XMLID_41_)}.st27{fill:url(#XMLID_42_)}.st28{fill:url(#XMLID_43_)}.st29{fill:#d8fbff}.st30{fill:#FFF;stroke:#FFF;stroke-width:1.4219;stroke-linejoin:round;stroke-miterlimit:10}.st31{fill:#d7d7d7}.st32{fill:none;stroke:#FFF;stroke-width:4.2658;stroke-linecap:round}.st32,.st33{stroke-miterlimit:10}.st33{stroke:#f6f3ec;stroke-width:3.5548}.st33,.st34{fill:none;stroke-linecap:round}.st34{stroke-width:1.4219}.st34,.st35{stroke:#FFF;stroke-miterlimit:10}.st35{fill:#FFF;stroke-width:.3305;stroke-linejoin:round}.st36{fill:url(#XMLID_45_)}</style><symbol id="New_Symbol_12" viewBox="-26.7 -31.1 53.4 62.3"><path class="st0" d="M26.3-29.1c0-1.1-11.4-2-25.5-2s-25.5.9-25.5 2 11.4 2 25.5 2 25.5-.8 25.5-2z"/><g id="XMLID_12_"><path id="XMLID_13_" class="st1" d="M2.3-18.5h4.8v-2.3l-4.8 1.6v.7z"/></g><g id="XMLID_6_"><path id="XMLID_11_" class="st2" d="M-7.1-29.1h-4.1v16.2h4.1v-16.2z"/><path id="XMLID_10_" class="st3" d="M-9.1 31.2l-17.6-55.4H8.5L-9.1 31.2z"/><g id="XMLID_9_"><path class="st4" d="M-1.1 6.1l-8-8-8 8 1.3 3.9 6.7-6.8 6.7 6.8 1.3-3.9z"/><path class="st4" d="M1.8-3.4L-9.1-14.3l-11 10.9 1.3 3.9 9.7-9.7L.6.5l1.2-3.9z"/><path class="st4" d="M4.8-12.8L-6.6-24.2h-5.1l-11.4 11.4 1.3 3.8 12.7-12.7L3.6-9l1.2-3.8z"/><path class="st5" d="M7.2-12.3h-18.4c-.2 0-.3-.1-.3-.3 0-1.8 1.5-3.4 3.4-3.4 1.4 0 2.5.8 3.1 2 .5-1.2 1.7-2 3.1-2s2.5.8 3.1 2c.5-1.2 1.7-2 3.1-2 1.8 0 3.4 1.5 3.4 3.4-.2.2-.4.3-.5.3z"/></g><path class="st4" d="M-7.1 25l-2-1.9-2 1.9 1.3 3.9.7-.7.7.7 1.3-3.9zm3-9.4l-5-5-5 5 1.3 3.8 3.7-3.7 3.7 3.7 1.3-3.8z"/><path id="XMLID_8_" class="st1" d="M-11.2-24.2h4.1V-27l-4.1 1.8v1z"/></g><g id="XMLID_1_"><path id="XMLID_5_" class="st2" d="M15.3-29.1h-3.1v13h3.1v-13z"/><path id="XMLID_4_" class="st6" d="M13.8 16.5l-13-41h25.9l-12.9 41z"/><path id="XMLID_3_" class="st7" d="M13.8 16.5l-7.5-41H.8l13 41z"/><path id="XMLID_2_" class="st1" d="M12.2-24.5h3.1v-2l-3.1 1.3v.7z"/><path class="st5" d="M-8.2-6.4c1.8 0 3.4 1.5 3.4 3.4 0 .2-.1.3-.3.3h-18.3c-.2 0-.3-.1-.3-.3 0-1.8 1.5-3.4 3.4-3.4 1.4 0 2.5.8 3.1 2 .5-1.2 1.7-2 3.1-2s2.5.8 3 2c.3-1.2 1.5-2 2.9-2zm-3.3 15.9c0-1.8 1.5-3.4 3.4-3.4 1.4 0 2.5.8 3.1 2 .5-1.2 1.7-2 3.1-2 1.7 0 3.3 1.5 3.3 3.4 0 .2-.1.3-.3.3h-12.3c-.1 0-.3-.2-.3-.3zm-.9 6.1c1.8 0 3.4 1.5 3.4 3.4 0 .2-.1.3-.3.3h-6.1c-.2 0-.3-.1-.3-.3 0-1.9 1.5-3.4 3.3-3.4zM17.9-11c0-1.9 1.5-3.4 3.4-3.4s3.4 1.5 3.4 3.4h-6.8zM7.8-4.5c1.9 0 3.4 1.5 3.4 3.4H4.4c0-1.9 1.5-3.4 3.4-3.4zm3.4 3.3c0-1.9 1.5-3.4 3.4-3.4S18-3.1 18-1.2h-6.8zm5.4 5.7C18.5 4.5 20 6 20 7.9h-6.7c-.1-1.9 1.5-3.4 3.3-3.4z"/></g></symbol><symbol id="New_Symbol_13" viewBox="-27.7 -34.5 55.4 69.1"><path class="st0" d="M26-32.5c0-1.1-11.4-2-25.5-2s-25.5.9-25.5 2 11.4 2 25.5 2 25.5-.9 25.5-2z"/><g id="XMLID_32_"><path id="XMLID_35_" class="st8" d="M-1-32.3h-4.3V-14H-1v-18.3z"/><path id="XMLID_34_" class="st9" d="M-3.1 34.6l-18.3-57.7h36.5L-3.1 34.6z"/><path id="XMLID_33_" class="st1" d="M-5.3-23.1H-1v-2.1l-4.3 1.4v.7z"/></g><g id="XMLID_25_"><path id="XMLID_31_" class="st2" d="M-14-32.6h-2.8v11.4h2.8v-11.4z"/><path id="XMLID_30_" class="st10" d="M-15.4 9.6l-12.3-38.8h24.6L-15.4 9.6z"/><g id="XMLID_27_"><g id="XMLID_29_"><path class="st11" d="M-9.9-7.7l-5.5-5.5-5.5 5.5.7 2.1 4.8-4.7 4.8 4.8.7-2.2z"/><path class="st11" d="M-7.8-14.3l-7.6-7.6-7.6 7.6.7 2.1 6.9-6.8 6.9 6.8.7-2.1z"/><path class="st11" d="M-5.7-20.9l-8.3-8.3h-2.8l-8.3 8.3.7 2.1 9-8.9 9 8.9.7-2.1z"/></g><path class="st11" d="M-14.1 5.5l-1.3-1.3-1.3 1.3.7 2.2.6-.6.6.6.7-2.2zm2.1-6.6l-3.4-3.4-3.4 3.4.7 2.2 2.7-2.7 2.7 2.7.7-2.2z" id="XMLID_28_"/></g><path id="XMLID_26_" class="st1" d="M-16.8-29.2h2.8v-1.9l-2.8 1.3v.6z"/></g><g id="XMLID_14_"><path id="XMLID_24_" class="st2" d="M12.6-32.6H8.5v17.3h4.1v-17.3z"/><path id="XMLID_23_" class="st6" d="M10.6 27.8L-6.6-26.4h34.3L10.6 27.8z"/><path id="XMLID_22_" class="st12" d="M10.6 27.8L-6.6-26.4h34.3L10.6 27.8z"/><path id="XMLID_19_" class="st1" d="M8.5-26.4h4.1v-2.7l-4.1 1.8v.9z"/><g id="XMLID_16_"><g id="XMLID_18_"><path class="st13" d="M18.1 4.1l-7.6-7.6L3 4.1l.7 2.1 6.8-6.8 6.9 6.8.7-2.1z"/><path class="st13" d="M21-5.2L10.5-15.6.1-5.2.8-3l9.7-9.8L20.3-3l.7-2.2z"/><path class="st13" d="M23.9-14.4L12-26.4H9.1l-11.9 12 .6 2.1L10.5-25l12.8 12.7.6-2.1z"/></g><path class="st13" d="M12.2 22.6l-1.7-1.7-1.6 1.7.7 2.1.9-.9 1 .9.7-2.1zm2.9-9.3l-4.6-4.6L6 13.3l.6 2.2 3.9-3.9 4 3.9.6-2.2z" id="XMLID_17_"/></g><path id="XMLID_15_" class="st7" d="M10.6 27.8L.7-26.4h-7.3l17.2 54.2z"/><path class="st14" d="M-4-20.9h-12.8c-.1 0-.2-.1-.2-.2 0-1.3 1-2.3 2.3-2.3 1 0 1.8.6 2.1 1.4.3-.8 1.2-1.4 2.1-1.4s1.8.6 2.1 1.4c.3-.8 1.2-1.4 2.1-1.4 1.3 0 2.3 1 2.3 2.3.1.2 0 .2 0 .2zm-10.8 4.3c1.3 0 2.3 1 2.3 2.3 0 .1-.1.2-.2.2h-12.9c-.1 0-.2-.1-.2-.2 0-1.3 1-2.3 2.3-2.3 1 0 1.8.6 2.1 1.4.3-.8 1.2-1.4 2.1-1.4s1.8.6 2.1 1.4c.6-.8 1.4-1.4 2.4-1.4zm-2.2 11c0-1.3 1-2.3 2.3-2.3 1 0 1.8.6 2.1 1.4.3-.8 1.2-1.4 2.1-1.4 1.3 0 2.3 1 2.3 2.3 0 .1-.1.2-.2.2h-8.4c-.1-.1-.2-.1-.2-.2zm-.7 4.3c1.3 0 2.3 1 2.3 2.3 0 .1-.1.2-.2.2h-4.2c-.1 0-.2-.1-.2-.2 0-1.3 1-2.3 2.3-2.3zm44.1-15.1h-18c-.1 0-.2-.1-.2-.2 0-1.7 1.4-3.2 3.2-3.2 1.4 0 2.6.9 3 2.2.4-1.3 1.6-2.2 3-2.2s2.6.9 3 2.2c.4-1.3 1.6-2.2 3-2.2 1.7 0 3.2 1.4 3.2 3.2 0 .2-.1.2-.2.2zm-14.9 5.5c1.7 0 3.2 1.4 3.2 3.2 0 .1-.1.2-.2.2h-18c-.1 0-.2-.1-.2-.2 0-1.7 1.4-3.2 3.2-3.2 1.4 0 2.6.9 3 2.2.4-1.3 1.6-2.2 3-2.2s2.6.9 3 2.2c.5-1.3 1.6-2.2 3-2.2zm-1.4 12c-.1 0-.2-.1-.2-.2 0-1.7 1.4-3.2 3.2-3.2 1.4 0 2.6.9 3 2.2.4-1.3 1.6-2.2 3-2.2 1.7 0 3.2 1.4 3.2 3.2 0 .1-.1.2-.2.2h-6-6zM5.7 6.4c1.4 0 2.6.9 3 2.2.4-1.3 1.6-2.2 3-2.2 1.7 0 3.2 1.4 3.2 3.2 0 .1-.1.2-.2.2h-12c-.1 0-.2-.1-.2-.2.1-1.8 1.5-3.2 3.2-3.2zm7.3 7.8c1.7 0 3.2 1.4 3.2 3.2 0 0-.1.1-.2.1h-6s-.1-.1-.1-.2c0-1.7 1.4-3.1 3.1-3.1z"/></g></symbol><g id="Layer_307"><g class="st15"><path class="st16" d="M6001.6 965.9c-23.5 3.5-46.9 6.7-70.4 9.7-.4-.3-.8-.6-1.1-.8-3.1.5-6.1.9-9.2 1.4-4.3-1.6-8.6-3.2-12.8-4.8-2.5.4-4.9.9-7.4 1.3-6.2-2.4-12.4-4.8-18.5-7.2-3.7.6-7.5 1.2-11.2 1.8-7.1-2.1-14.1-4.2-21.2-6.5-.1.1-.3.2-.4.3-4.6-1.7-9.3-3.4-13.9-5.1-11.7 3.2-23.4 6.6-35.2 10.1l-8.4-4.5c-4.8 1.2-9.6 2.5-14.3 3.8-2.2-1.1-4.3-2.1-6.5-3.2-.8.3-1.6.6-2.4.8-8.2-2.2-16.4-4.6-24.5-7-4.8 1.9-9.7 3.8-14.5 5.8-2.9-.6-5.8-1.3-8.7-1.9-5.4 2.4-10.8 4.8-16.1 7.4-1.6-.3-3.2-.5-4.7-.8-2.4-3.1-4.8-6.2-7.3-9.4-2.2.2-4.3.4-6.5.5-3.6-3.1-7.2-6.2-10.8-9.4-8.5 1.7-17.1 3.4-25.6 5.4-2.9-1.6-5.8-3.3-8.7-4.9-6 .6-12 1.3-18 2-2.4-1.8-4.9-3.6-7.3-5.5-.9.4-1.9.8-2.8 1.2-1.9-2.1-3.7-4.2-5.6-6.3-1.8-.3-3.7-.6-5.5-.9-1.5-2.5-3-5.1-4.4-7.7-6.8 3.5-13.7 7.1-20.5 11-15.5-9.6-31-20.1-46.4-31.8-13.7 3.6-27.3 7.8-41 12.6-6.8-3.4-13.6-6.9-20.3-10.6l-8.7 4.2c-10.5-6.8-21-14-31.4-21.7-16.2 8-32.3 17.3-48.4 28-2.8-3.4-5.7-6.9-8.5-10.4-3.8 3.8-7.6 7.7-11.4 11.7-23.4-28.9-46.6-62-69.8-100.2-13 20.1-25.9 42.2-38.8 66.6-3.5-6.9-6.9-14-10.4-21.2-3.6 6.1-7.2 12.3-10.9 18.8-5.2-9.1-10.4-18.6-15.6-28.3-1.5.4-3 .9-4.5 1.3-16.5 21.8-33 46.3-49.4 73.8 6.7 59 13.4 115.5 20.1 169.7 259.6-57.2 540.6-85.2 821.2-83.9"/><path class="st16" d="M6804.2 930.8c-21.6-17.5-43.3-32.4-65.2-44.9-.4-1.2-.7-2.3-1.1-3.5-2.9 3.1-5.7 6.1-8.6 9.1-4-5.8-8-11.4-12-16.8-2.3 2.8-4.6 5.6-6.9 8.3-5.8-7.6-11.6-15-17.5-22-3.5 4-7 8-10.6 11.9-6.5-4.1-13-8-19.5-11.7-4.7-3.9-9.5-7.6-14.2-11.1-11.2 17.5-22.4 33.9-33.6 49.2-2.7-3.2-5.4-6.3-8.1-9.3-4.6 5.7-9.2 11.1-13.8 16.5-2.1-1.9-4.2-3.8-6.2-5.7-.8 1.1-1.6 2.1-2.4 3.2-7.9-2.2-15.8-4.2-23.7-6.1-4.7 6.5-9.4 12.8-14.1 19-2.8-.2-5.7-.4-8.5-.6-5.2 7-10.5 13.7-15.7 20.2h-4.6c-2.4-5-4.7-9.9-7.1-14.7-2.1 1.1-4.2 2.3-6.3 3.4-3.5-4-7-7.9-10.6-11.7-8.4 6.4-16.8 12.4-25.1 18.1-2.9-1.4-5.7-2.7-8.6-4-5.9 3-11.8 6-17.8 8.8l-7.2-4.5c-.9.8-1.8 1.6-2.8 2.4l-5.6-5.6c-1.8.3-3.7.7-5.5 1-1.5-2.4-2.9-4.8-4.4-7.1-6.8 6.6-13.6 12.9-20.4 18.9-15.5-5.1-31-9.4-46.6-13.1-13.8 7.9-27.6 15.1-41.5 21.7-6.9-.5-13.8-1-20.7-1.4-3 1.6-5.9 3.1-8.9 4.6-10.7-1.4-21.4-2.7-32.2-3.8-16.6 7.9-33.3 14.9-50 21.2-2.9-.9-5.9-1.9-8.8-2.8-4 2-7.9 3.9-11.9 5.8-24.4-7.5-48.8-14-73.2-20.1-13.7 7.6-27.4 14.7-41.1 21.5-3.7-1.3-7.4-2.7-11.1-4-3.9 1.7-7.7 3.4-11.6 5.1-5.6-1.6-11.1-3.3-16.7-4.9-1.6.2-3.2.4-4.9.6-5.4-1.9-10.8-3.9-16.1-5.8 2.3 18.3 4.6 36.6 6.8 55 273.3 1.6 545.9 31.1 797.8 88.3"/></g><g class="st15"><path class="st17" d="M5831.7 967.3c.5-1 1.1-2 1.6-2.9-.6.9-1.1 1.9-1.6 2.9-.1 0-.1 0 0 0zM5588.8 953c-.9-3-1.8-6.1-2.8-9.1-.9 1.5-1.8 3.1-2.7 4.7 1.8 1.4 3.6 2.9 5.5 4.4zm-71-25.7c-.2-.9-.3-1.8-.5-2.7-.5.5-1.1 1-1.6 1.6.7.4 1.4.7 2.1 1.1zm-92.8-23.7c-3 3-5.9 6.1-8.9 9.2 3-1.1 5.9-2.2 8.9-3.2v-6zm-131.9-62.9c-1.1-3.5-2.1-6.9-3.2-10.5l-1.8 1.2c1.8 4.6 3.7 9.2 5.5 13.8-.2-1.5-.3-3-.5-4.5zm-30.9 40.5c-.1.9-.1 1.7-.2 2.6 1.6.9 3.3 1.9 4.9 2.8-1.5-1.8-3.1-3.6-4.7-5.4z"/><path class="st17" d="M6001.8 967.5c-1.6 3-3.1 5.9-4.7 8.9-11.5 1.4-22.9 2.8-34.4 4.1-1.4-.6-2.8-1.2-4.2-1.7 1.4-1 2.8-2.1 4.2-3.1-9 .9-18.1 1.8-27.1 2.6-1.6-.7-3.2-1.3-4.8-2-2.8.4-5.5.8-8.3 1.3-4.3-1.6-8.6-3.2-12.8-4.8-2.5.4-4.9.9-7.4 1.3-6.2-2.3-12.4-4.7-18.5-7.2-3.7.6-7.5 1.2-11.2 1.8-7.1-2.1-14.1-4.2-21.2-6.4-.1.1-.3.2-.4.3-4.6-1.7-9.3-3.3-13.9-5.1.6 4.2 1.2 8.3 1.9 12.5-3.2.2-6.4.5-9.6.7-.3.9-.7 1.8-1 2.7-5.2-.5-10.4-1.1-15.6-1.7l-1.2-2.1c-.9.3-1.7.5-2.6.8-5.1-2.3-10.3-4.7-15.4-7.2-4.8 1.2-9.6 2.5-14.3 3.8-2.2-1-4.3-2.1-6.5-3.2-.8.3-1.6.6-2.4.8-8.2-2.2-16.4-4.5-24.5-6.9-.8.2-1.7.4-2.5.6 3.5 6.3 7 12.5 10.6 18.5-17.7-1.1-35.5-2.3-53.1-3.6-1.4-1.3-2.9-2.5-4.3-3.8 2-.3 4-.6 6-1-.2 0-.5-.1-.7-.1-2.4-3.1-4.8-6.2-7.3-9.3-2.2.2-4.3.4-6.5.6-3.3-2.8-6.6-5.8-9.9-8.7-8.5 3.2-17 6.7-25.5 10.4-.2.1-.4.3-.7.4-2.2-1.1-4.5-2.3-6.7-3.5l4.2-3.6c-2.2-1.2-4.3-2.4-6.5-3.6-5.9 1.4-11.8 3-17.7 4.6-2.5-2.6-5.1-5.2-7.6-7.9-.9.4-1.9.8-2.8 1.2-1.9-2-3.7-4.1-5.6-6.2-1.8-.3-3.7-.5-5.5-.8-1.5-2.5-3-5.1-4.4-7.7-1.2.5-2.3.9-3.5 1.4.5 8.2 1.1 16.4 1.6 24.6-2.1.5-4.3 1.1-6.4 1.6-19.6-13.9-39.2-29.7-58.7-47.9-2 .5-3.9 1-5.9 1.5 2.4 5.9 4.8 11.8 7.2 17.5-2.2 1.5-4.4 3.1-6.6 4.7-5.2-1.9-10.5-3.9-15.7-5.9-1.1 1.3-2.3 2.6-3.4 4-12.3-6-24.6-12.4-36.9-19.3-2.9 1.4-5.8 2.8-8.7 4.3-10.5-6.7-21-13.8-31.4-21.4.8 9.4 1.7 18.7 2.5 27.9-9.7.6-19.4 1.4-29.1 2.3-1.1-2.8-2.1-5.5-3.2-8.3 1.9-2.9 3.9-5.9 5.8-8.7-8.2 4.7-16.3 9.8-24.5 15.2-2.8-3.4-5.7-6.8-8.5-10.3-3.8 3.8-7.6 7.8-11.4 11.8-20.4-24.6-40.8-52.4-61-84 .2 6.4.4 12.7.6 19.1 2.3 2 4.5 4.1 6.8 6v25.6c-2.7-.7-5.5-1.3-8.2-2-6.2-18.2-12.5-37.1-18.7-56.7l-.3 66.9c-7-2.5-13.9-5.1-20.8-7.7-1.9 2.3-3.8 4.7-5.8 7-6-5.3-12-10.8-18-16.5-1.4 2.5-2.9 5-4.3 7.6-5.2-9.1-10.4-18.4-15.6-28-1.5.4-3 .9-4.5 1.3-14.9 19.9-29.7 42-44.5 66.5 5.7 58.7 11.4 115.3 17.2 169.9 258.8-16.9 538.6-70.4 818-59.7v-77.1c-.7-.1-1.2 0-1.7.1z"/><path class="st17" d="M5511.5 918.4c-2.1.6-4.3 1.2-6.4 1.9 1 .5 2 1 3.1 1.6 1-1.2 2.1-2.4 3.3-3.5zm223.5 52.5c-1.1.2-2.3.4-3.4.7 4.8.7 9.6 1.3 14.4 1.9.2-.7.3-1.5.5-2.2-2.8-.7-5.7-1.5-8.5-2.2l-3 1.8zm-7.8-1.9c-1.9.3-3.8.6-5.6.9 2.8.5 5.5 1 8.3 1.6-.9-.9-1.8-1.7-2.7-2.5zm2.5-4.8l-2.4 1.5c.6.4 1.3.8 1.9 1.3 2-1.3 4-2.6 6-3.8-1.8.2-3.7.6-5.5 1zm212.3 10.2c-.9-.1-1.9-.1-2.8-.2l-1.5.6c1.4-.1 2.8-.3 4.3-.4zm-124.6-8.9h.5c1.5-1.6 2.9-3.2 4.4-4.8-2.3.8-4.6 1.7-6.8 2.5.6.9 1.2 1.6 1.9 2.3zM6641.8 881.3c.3 3.6.6 7.3.9 10.9-.1-7.6-.2-15.2-.2-22.8-2.8 1.8-5.6 3.5-8.4 5.2.2 2.3.5 4.5.7 6.8 2.3 0 4.7-.1 7-.1zm-88.3 28.3c-.4 3.8-.7 7.6-1.1 11.4.4-3.9.8-7.6 1.1-11.4zM6100.6 968l2.7-.6c-.4-.3-.9-.7-1.3-1-.5.5-1 1-1.4 1.6zm232.1-17.9c-3.2 2.6-6.4 5.2-9.6 7.7 5.5-3.3 11-6.7 16.5-10.3-.1.1-.1.3-.2.4-2.2.8-4.5 1.5-6.7 2.2zm-107 11.2c3.9-.2 7.8-.5 11.7-.7-.3-1.4-.5-2.8-.8-4.1-3.6 1.7-7.2 3.3-10.9 4.8z"/><path class="st17" d="M6760 870.4c-6.5 6.7-13 13.2-19.5 19.4-.4-1.2-.7-2.3-1.1-3.5-2.9 3.1-5.7 6.1-8.6 9.1-4.5-7.1-9-14-13.6-20.6-1.6 3.7-3.3 7.4-4.9 11-5.8-7.8-11.7-15.3-17.6-22.4-3.6 4.4-7.3 8.7-11 12.9-7-5.3-14-10.3-21-15-4.2-2.8-8.4-5.5-12.7-8.1-2.1 20-4.3 39.7-6.4 59.1l-7.5.3c-.2-1.3-.3-2.7-.5-4-.5 1.4-.9 2.8-1.4 4.1-2.6-.3-5.1-.6-7.7-.9.1-7.3.1-14.7.2-22-3.4 4.2-6.9 8.4-10.3 12.4l-3.3-3.9c-.6 3.3-1.2 6.5-1.8 9.8l-8.1 3c-1-2.9-1.9-5.8-2.9-8.7-1.9 2.3-3.9 4.6-5.8 6.9-2.1-2-4.1-3.9-6.2-5.8-.8 1.1-1.6 2.1-2.4 3.2-7.4-2.1-14.8-4.1-22.2-5.9.2 8.9.4 17.8.6 26.8-4.5 2.7-9.1 5.4-13.7 7.9-5.3-2.5-10.6-4.9-15.9-7.2-3.6 3.6-7.2 7.1-10.8 10.6h-4.6c-2.5-5-5-10-7.5-14.8-2 1.1-3.9 2.3-5.9 3.4-4-4.8-8.1-9.4-12.1-13.9-7.8 7-15.7 13.7-23.6 20.1-2.9-1.4-5.7-2.7-8.6-4.1-5.6 2.8-11.2 5.5-16.8 8.2-2.5-1.4-5-2.9-7.6-4.2-1.1.9-2.2 1.8-3.3 2.6-1.9-1.9-3.7-3.8-5.6-5.6-1.8.3-3.7.6-5.5 1-2-3-4-5.9-6-8.8-6.3 7.1-12.6 14-18.8 20.5-15.5-5.2-31-9.6-46.6-13.4-6.7 10.9-13.4 21.3-20.1 31.2-8.1 1.8-16.1 3.5-24.2 5.1-1.2-4.9-2.3-9.8-3.5-14.6-4.8-.5-9.5-1.1-14.3-1.6-3 1.5-5.9 3.1-8.9 4.6-4.9-1-9.8-2-14.7-2.9-3.6 1.7-7.2 3.4-10.9 5.1-2.1-.2-4.2-.4-6.3-.5-.8-1.3-1.6-2.5-2.4-3.8-1.5 4.2-2.9 8.3-4.4 12.4-9.5 1.8-19.1 3.6-28.6 5.2-.5-1.1-.9-2.2-1.4-3.3-4.5 1.8-9 3.5-13.5 5.2-2.9-.9-5.9-1.9-8.8-2.8-4 2-7.9 3.9-11.9 5.8-24.4-7.5-48.8-14.1-73.2-20.3-2.6.9-5.3 1.7-7.9 2.6 4.7 4 9.5 8.1 14.2 12.2-11.4 2.9-22.9 5.6-34.3 8.2-2.2-.4-4.3-.7-6.5-1.1 1.6-1.7 3.1-3.4 4.7-5.1-1.1.1-2.2.1-3.3.2l-1.5.9c-2.1 1.2-4.3 2.4-6.4 3.5-2.7-1.1-5.5-2.1-8.2-3.2-4.8 1.4-9.6 2.8-14.5 4.2-5.2-1.6-10.4-3.3-15.6-4.9l-6 .6c-5.4-1.9-10.8-3.9-16.1-5.8-.1 18-.1 36-.2 54.1 275.1 1.3 549.7 30.7 803.2 88.3l.3-183.2c-15.3-20.8-30.7-39.3-46.2-55.8z"/><path class="st17" d="M6095.1 963.6c.5-.2.9-.4 1.4-.6-.7-.4-1.3-.7-2-1.1-.1.8-.3 1.5-.4 2.3.3-.1.6-.4 1-.6z"/></g></g><g id="Layer_305"><path class="st18" d="M6693.1 953.9c5.8-18.1-22.1-22-24.3-.4 6-7.7-22.3-10.8-16.8 2.7-4-26.8-25.7-19-23.4-.1-3.5-36.9-37.5-22.7-29.2-1 1-7.3-1.1-14.6-9.4-13.9-8.9.6-11.4 7-11.2 14.3 6.1-32.3-47.7-30.7-41.9-1.5-5.6-9.9-10.6-10.1-15-.8 5.5-16.2-51.8-12.9-41.1 1.1m258.3-.2c-.1-.7-.1-1.4-.2-2h.1c0 .7 0 1.3.1 2z"/><path class="st18" d="M6738.9 951.1c0-.2 0-.3-.1-.5h.1v-1c0-.2 0-.3-.1-.5h.1v-1c0-.2 0-.3-.1-.5h.1v-1c0-.2 0-.3-.1-.5h.1v-1c0-.2 0-.3-.1-.5h.1v-1c0-.2 0-.3-.1-.5h.1c-.6-16.5 17.7-23 22.8-1.6.5-7.5 15.8-6.6 18-2.2 4.2-16.4 25.3-14.1 24.5-.3v7.5c.1 1.6-.1 3.5-.8 5.4l-41.2.1c0 .2.1.4.1.6-.1-.2-.2-.4-.2-.6h-.1c.1.7.3 1.4.4 2.1-.3-.8-.5-1.5-.6-2.1H6739c0 .2 0 .4.1.5 0-.2 0-.4-.1-.5h-.1v-.9z"/><path class="st18" d="M6689.4 952.2v1.3c.1-.4.2-.9.2-1.3h20c.1.3.2.7.3 1 0-.3.1-.7.1-1l28.8-.1c-.1-.5-.1-1-.2-1.5h.2c-.1-.5-.1-1-.2-1.5h.2c-.1-.5-.1-1-.2-1.5h.2c-.1-.5-.1-1-.2-1.5h.2c-.1-.5-.1-1-.2-1.5h.2c-.1-.5-.1-1-.2-1.5h.2c-3.8-28.7-27.2-23.6-30-8.6-1.4-2.8-4-4.6-8.3-4.2-6.6.5-9.7 4.1-10.8 8.9-.4-25.5-43.6-23.9-42.8.2v2.9c-5.1-8.5-9.6-9.1-13.7-1.8v11.9l56.2-.2zm-42.3-8.5c-.1-.2-.2-.4-.3-.5h.3v.5zm0 1.5c-.1-.2-.2-.4-.3-.5h.3v.5zm0 1.5c-.1-.2-.2-.4-.3-.5h.3v.5zm0 1.5c-.1-.2-.2-.4-.3-.5h.3v.5zm.1 1.8c-.2-.3-.3-.5-.5-.8h.4c0 .3.1.5.1.8zm.3 2c-.3-.5-.5-.9-.8-1.3h.5c.1.5.2.9.3 1.3z"/></g><g id="Layer_304"><path class="st18" d="M6376.9 982.8c3.9-17.9-14.9-21.7-16.4-.4 4.1-7.5-15-10.7-11.3 2.6-2.7-26.4-17.3-18.7-15.8-.1-2.3-36.4-25.3-22.4-19.6-1 .7-7.2-.8-14.4-6.3-13.7-6 .6-7.7 6.9-7.6 14.1 4.1-31.9-32.1-30.3-28.2-1.5-3.8-9.7-7.2-10-10.1-.8 3.7-16-34.9-12.7-27.6 1.1m173.9-.1c0-.7-.1-1.4-.2-2h.1c0 .7 0 1.4.1 2zm-.1-3v-.5h.1V978h.1v-1.5h.1V975h.1v-1.5h.1V972h.1c-.4-16.3 11.9-22.7 15.4-1.5.4-7.4 10.6-6.5 12.1-2.2 2.8-16.2 17.1-13.9 16.5-.3v7.5c.1 1.6-.1 3.4-.5 5.4l-27.7.1c0 .2 0 .4.1.6-.1-.2-.1-.4-.2-.6h-.1l.3 2.1c-.2-.8-.4-1.5-.4-2.1h-15.5c-.6-.3-.6-.6-.6-1z"/><path class="st18" d="M6374.4 981.1v1.3c.1-.4.1-.9.1-1.3h13.5c.1.3.2.6.2 1 0-.3.1-.6.1-1l19.4-.1c0-.5-.1-1-.1-1.5h.1c0-.5-.1-1-.1-1.5h.1c0-.5-.1-1-.1-1.5h.1c0-.5-.1-1-.1-1.5h.1c0-.5-.1-1-.1-1.5h.1c0-.5-.1-1-.1-1.5h.1c-2.6-28.3-18.3-23.2-20.2-8.5-.9-2.8-2.7-4.6-5.6-4.2-4.5.4-6.5 4.1-7.2 8.8-.3-25.2-29.3-23.6-28.8.2v2.9c-3.4-8.4-6.5-9-9.2-1.8v11.8l37.7-.1zm-28.5-8.3c-.1-.2-.2-.4-.2-.5h.2v.5zm0 1.5c-.1-.2-.2-.4-.2-.5h.2v.5zm0 1.4c-.1-.2-.2-.4-.2-.5h.2v.5zm0 1.5c-.1-.2-.2-.4-.2-.5h.2v.5zm.1 1.7c-.1-.3-.2-.5-.3-.7h.3v.7zm.2 2.1c-.2-.4-.3-.9-.5-1.3h.4c0 .4 0 .8.1 1.3z"/></g><g id="Layer_303"><path class="st18" d="M5797.1 991.3c-4.8-22 18.3-26.7 20.2-.5-5-9.3 18.5-13.1 13.9 3.2 3.3-32.5 21.3-23 19.4-.1 2.9-44.8 31.1-27.6 24.2-1.2-.9-8.9.9-17.8 7.8-16.8 7.4.7 9.4 8.5 9.3 17.3-5.1-39.3 39.5-37.3 34.7-1.8 4.7-12 8.8-12.3 12.5-.9-4.6-19.7 42.9-15.7 34 1.3m-214.1-.2c.1-.9.1-1.7.2-2.5h-.1c0 .8-.1 1.7-.1 2.5z"/><path class="st18" d="M5759.1 987.9c0-.2 0-.4.1-.6h-.1v-1.2c0-.2 0-.4.1-.6h-.1v-1.2c0-.2 0-.4.1-.6h-.1v-1.2c0-.2 0-.4.1-.6h-.1v-1.2c0-.2 0-.4.1-.6h-.1v-1.2c0-.2 0-.4.1-.6h-.1c.5-20.1-14.7-27.9-18.9-1.9-.5-9.1-13.1-8-14.9-2.7-3.4-19.9-21-17.1-20.3-.3v9c-.1 2 .1 4.2.6 6.6l34.1.1c0 .3-.1.5-.1.8.1-.3.1-.5.2-.8h.1c-.1.8-.2 1.7-.3 2.6.3-.9.4-1.8.5-2.6h19v-1.2zm87.5 1.4v-14.5c-3.4-8.8-7.1-8.1-11.3 2.2v-3.5c.7-29.3-35.1-31.2-35.4-.2-.9-5.9-3.4-10.3-8.9-10.9-3.5-.5-5.7 1.7-6.9 5.1-2.3-18.1-21.7-24.4-24.8 10.5h.2c-.1.6-.1 1.2-.2 1.8h.2c-.1.6-.1 1.2-.2 1.8h.2c-.1.6-.1 1.2-.2 1.8h.2c-.1.6-.1 1.2-.2 1.8h.2c-.1.6-.1 1.2-.2 1.8h.2c-.1.6-.1 1.2-.2 1.8l23.9.1c0 .4.1.8.1 1.2l.3-1.2h16.6c.1.5.1 1.1.2 1.6v-1.6l46.2.4zm-11.4-11h.3c-.1.2-.2.4-.3.7v-.7zm0 1.8h.3c-.1.2-.2.4-.3.7v-.7zm0 1.9h.3c-.1.2-.2.4-.3.7v-.7zm0 1.8h.3c-.1.2-.2.4-.3.7v-.7zm0 1.8h.3c-.1.3-.3.6-.4.9.1-.3.1-.6.1-.9zm-.1 1.9h.5c-.2.5-.4 1-.6 1.6 0-.6 0-1.1.1-1.6z"/></g><g id="Layer_302"><path class="st18" d="M6230.1 992.5c-4.8-16.2 18.3-20.6 20.2-1.2-5-6.7 18.5-10.5 13.9 1.9 3.3-24.4 21.3-18 19.4-.8 2.9-33.6 31.1-21.8 24.2-1.9-.9-6.6.9-13.3 7.8-12.9 7.4.3 9.4 6 9.3 12.6-5.1-29.1 39.5-29.4 34.7-2.7 4.7-9.1 8.8-9.5 12.5-1.2-4.6-14.5 42.9-13.4 34-.3m-214.1 8.2c.1-.6.1-1.3.2-1.9h-.1c0 .6-.1 1.2-.1 1.9zm.1-2.8c0-.2 0-.3.1-.5h-.1v-.9c0-.2 0-.3.1-.5h-.1v-.9c0-.2 0-.3.1-.5h-.1v-.9c0-.2 0-.3.1-.5h-.1v-.9c0-.2 0-.3.1-.5h-.1v-.9c0-.2 0-.3.1-.5h-.1c.5-15-14.7-20.3-18.9-.7-.5-6.8-13.1-5.5-14.9-1.4-3.4-14.8-21-12-20.3.5v7c-.1 1.5.1 3.1.6 4.9l34.1-1.3c0 .2-.1.4-.1.6.1-.2.1-.4.2-.6h.1c-.1.6-.2 1.3-.3 2 .3-.7.4-1.4.5-2l18.9-.7h.1v-.8z"/><path class="st18" d="M6279.6 989.1v-10.8c-3.4-6.5-7.1-5.8-11.3 2.1V977.8c.7-21.9-35.1-22-35.4 1.2-.9-4.4-3.4-7.6-8.9-7.8-3.5-.2-5.7 1.5-6.9 4.1-2.3-13.5-21.7-17.4-24.8 8.8h.2c-.1.5-.1.9-.2 1.4h.2c-.1.5-.1.9-.2 1.4h.2c-.1.5-.1.9-.2 1.4h.2c-.1.5-.1.9-.2 1.4h.2c-.1.5-.1.9-.2 1.4h.2c-.1.5-.1.9-.2 1.4l23.9-.9c0 .3.1.6.1.9l.3-.9 16.6-.6c.1.4.1.8.2 1.2V991l46.2-1.9zm-11.4-7.8h.3c-.1.2-.2.3-.3.5v-.5zm0 1.3h.3c-.1.2-.2.3-.3.5v-.5zm0 1.4h.3c-.1.2-.2.3-.3.5v-.5zm0 1.4h.3c-.1.2-.2.3-.3.5v-.5zm0 1.4h.3c-.1.2-.3.5-.4.7.1-.3.1-.5.1-.7zm-.1 1.4h.5l-.6 1.2c0-.5 0-.9.1-1.2z"/></g><g id="Layer_301"><path class="st18" d="M5494.6 991.8c-3.9-18.1 15.1-21.9 16.6-.4-4.1-7.6 15.2-10.8 11.4 2.6 2.7-26.7 17.5-18.9 15.9-.1 2.4-36.8 25.6-22.7 19.9-1-.7-7.3.8-14.6 6.4-13.8 6.1.6 7.7 7 7.7 14.2-4.2-32.3 32.5-30.7 28.5-1.5 3.8-9.8 7.3-10.1 10.2-.8-3.7-16.2 35.3-12.9 28 1.1m-175.9-.1c0-.7.1-1.4.2-2h-.1c0 .6-.1 1.3-.1 2zm.1-3v-.5h-.1V987h-.1v-1.5h-.1V984h-.1v-1.5h-.1V981h-.1c.4-16.5-12-23-15.6-1.6-.4-7.5-10.8-6.6-12.3-2.2-2.8-16.4-17.3-14-16.7-.3v7.5c-.1 1.6.1 3.4.5 5.4l28.1.1c0 .2 0 .4-.1.6.1-.2.1-.4.2-.6h.1l-.3 2.1c.2-.8.4-1.5.4-2.1h15.6c.7-.3.7-.6.7-.9z"/><path class="st18" d="M5535.3 990.2v-11.9c-2.8-7.3-5.9-6.6-9.3 1.8v-2.9c.6-24.1-28.9-25.7-29.1-.2-.7-4.8-2.8-8.5-7.3-8.9-2.9-.4-4.7 1.4-5.7 4.2-1.9-14.9-17.8-20-20.4 8.6h.2c-.1.5-.1 1-.2 1.5h.2c-.1.5-.1 1-.2 1.5h.2c-.1.5-.1 1-.2 1.5h.2c-.1.5-.1 1-.2 1.5h.2c-.1.5-.1 1-.2 1.5h.2c-.1.5-.1 1-.2 1.5l19.6.1c0 .3 0 .7.1 1 .1-.3.2-.7.2-1h13.7c0 .4.1.9.1 1.3V990l38.1.2zm-9.3-9.1h.2c-.1.2-.2.4-.2.5v-.5zm0 1.5h.2c-.1.2-.2.4-.2.5v-.5zm0 1.5h.2c-.1.2-.2.4-.2.5v-.5zm0 1.5h.2c-.1.2-.2.4-.2.5v-.5zm0 1.5h.3c-.1.2-.2.5-.3.8-.1-.3-.1-.5 0-.8zm-.2 1.5h.4c-.2.4-.3.8-.5 1.3.1-.4.1-.8.1-1.3z"/></g><g id="Layer_299"><g id="XMLID_1146_"><path id="XMLID_5855_" class="st19" d="M6831.7 931.4c0-.5.4-.9.9-.8 255.8 29.7 827.3 56.5 839.2 57.5.5 0 29-.3 30.5 0V1110s-870.9-.3-870.9-.7c-.1-550.5-.1-1.3.3-177.9z"/></g></g><g id="Layer_298"><g id="XMLID_44_"><path id="XMLID_1143_" class="st14" d="M6829.4 1109.3c-550.7-75.2-1660.9 5.5-1659.1-153.4 146.4 19.2 293.2 33.8 440.1 43.9 406.7 15.9 814.5-1.4 1219-52.6v162.1z"/><path id="XMLID_1142_" class="st19" d="M6832.9 930.2c-244.4 29.6-886.1 78.3-1094 56.1-5.9.1-102.2-3-196.9-9-94.7-5.5-187.9-14-187.9-14-92-10.4-171.6 5.7-171.7 37.3 0 80.8.3 108.6.3 108.6h1649.8l.4-179z"/></g></g><g id="Layer_297"><g id="XMLID_7_"><path id="XMLID_21_" class="st14" d="M5197 1109.3c-312.1-39.4-627.9-39.4-940 0v-92.7c311.2-41 626.1-35.3 937.3-111.5.9 67.8 1.8 135.9 2.7 204.2z"/><path id="XMLID_20_" class="st19" d="M4257 987.7v121.6c312.1-39.4 627.9-39.4 940 0V922.1"/></g></g><path id="Layer_43" class="st19" d="M4257 1058.6h925.8v50.7H4257v-50.7z"/><g id="Layer_296"><linearGradient id="XMLID_37_" gradientUnits="userSpaceOnUse" x1="6735.607" y1="-139.908" x2="6735.607" y2="-193.923" gradientTransform="matrix(1 0 0 -1 0 800.2)"><stop offset="0" stop-color="#FFF"/><stop offset="1" stop-color="#f5f2e2"/></linearGradient><path id="XMLID_7389_" class="st20" d="M7024.9 981.1c-170.9-22.4-170.2-51-242.9-70.4-17-4.5-32.5-6.3-46.4-6-13.9-.3-29.4 1.5-46.4 6-72.7 19.4-72 47.9-242.9 70.4-20.7 2.7 169 38.8 242.9 38.8 16.3 0 31.9-1.2 46.4-3.4 14.5 2.2 30.1 3.4 46.4 3.4 73.9-.1 263.7-36.1 242.9-38.8z"/></g><g id="Layer_295"><path id="XMLID_122_" class="st14" d="M5823.7 1001.9c0-3.3 2.6-5.9 5.9-5.9s5.9 2.6 5.9 5.9h-11.8z"/></g><g id="Layer_294"><path id="XMLID_237_" class="st14" d="M5935.2 1011.2c0-5.2 4.2-9.5 9.5-9.5 5.2 0 9.5 4.2 9.5 9.5h-19z"/></g><g id="Layer_293"><path id="XMLID_252_" class="st14" d="M5956.8 1011.9c0-3.4 2.8-6.2 6.2-6.2s6.2 2.8 6.2 6.2h-12.4z"/></g><path id="Layer_287" class="st21" d="M6772.2 953.3h3.8l-8.4-26.7-1.9 5.9-.5-1.6-3.3 10.4-2.7-8.4-.7 2.4-5.8-18.4-1.9 5.9-.5-1.6-2.7 8.5-1-3.1-.5 1.7-4.1-12.9-1.3 4.2-.3-1.1-2.3 7.3-1.9-5.9-4 12.7-1.6-4.9-2.4 7.7-2.5-8-.5 1.7-2-6.3-3.7 11.6-1.7-5.3-.5 1.7-1.4-4.6-2 6.2-1-3.2-.5 1.7-2.1-6.7-1 3-.3-.8-1.5 4.8-2.1-6.8-3.1 9.8-.3-1.1-2.2 6.9-3.3-10.4-3.1 9.7-2.3-7.2-1.4 4.5-.7-2.3-1.3 4.1-1.5-4.8-.9 2.8-1.8-5.7-4.2 13.3h3.6l-.9 2.9h3.7v1.2h1v-1.2h1.9v.1h2.8v1.2h.7v-1.1h2.8l-.5-1.5h2v1.2h.7v-1.1h2.8l-.8-2.5h2.2l-.9 3h3.3l-.2.6h2v1h1.4v-1h1.7v1.6h1.3v-1.6h2.6v.1h.8v.9h1v-1h2v1.5h1v-1.6h2.6l-2.1 6.8h7.3v2.3h1.9v-2.3h3.7v.1h4.4l-1.8 5.8h10.1v3.2h2.7v-3.2h3.3v1.2h2.7v-1h6.6v3h2v-2.9h4v1h2v-1h1.5l-.6-2h6.6l-2-4.4zM6732 948l-.8-2.6h1.6l-.8 2.6z"/><use xlink:href="#New_Symbol_12" width="53.4" height="62.3" id="Layer_286" x="-26.7" y="-31.1" transform="matrix(.72 0 0 -.72 6641.485 924.204)" overflow="visible"/><path id="Layer_285" class="st22" d="M5163.6 949.7h6.9l-.7 2.1h1.6v1.1h2.1v-1.1h4.2v3.2h2.1v-3.2h6.9v1.1h2.8v-1.2h3.4v3.4h2.8v-3.3h10.6l-1.9-6.1h4.6v-.1h3.9v2.4h2v-2.4h7.6l-2.3-7.1h2.7v1.6h1v-1.6h2.1v1h1.1v-1h.8v-.1h2.7v1.7h1.4v-1.7h1.8v1h1.4v-1.1h2.1l-.2-.7h3.5l-1-3.1h2.3l-.8 2.6h2.9v1.2h.8v-1.2h2.1l-.5 1.6h2.9v1.2h.8v-1.2h2.9v-.1h2v1.2h1v-1.2h3.9l-.9-3h3.8l-4.4-14-1.9 5.9-.9-3-1.6 5-1.4-4.3-.8 2.4-1.5-4.8-2.4 7.5-3.2-10.2-3.5 10.9-2.3-7.2-.4 1.1-3.3-10.3-2.3 7.1-1.6-5-.3.8-1-3.2-2.2 7.1-.6-1.7-1.1 3.3-2.1-6.5-1.5 4.8-.6-1.8-1.8 5.5-3.8-12.1-2.1 6.6-.6-1.8-2.7 8.4-2.6-8.1-1.6 5.1-4.2-13.3-2 6.2-2.4-7.6-.4 1.1-1.4-4.4-4.3 13.5-.5-1.7-1 3.2-2.8-8.9-.5 1.6-2-6.2-6.1 19.3-.8-2.5-2.8 8.8-3.5-10.9-.5 1.6-2-6.2-8.9 28h3.9l-.9 5zm42.6-12.9h1.7l-.9 2.7-.8-2.7z"/><path id="Layer_284" class="st21" d="M5379 978.6h5.6l-12.5-39.6-2.8 8.8-.7-2.3-4.9 15.4-3.9-12.5-1.1 3.5-8.6-27.2-2.8 8.8-.7-2.3-4 12.6-1.4-4.5-.8 2.4-6-19.1-2 6.2-.5-1.6-3.4 10.8-2.8-8.7-6 18.8-2.3-7.3-3.6 11.5-3.8-11.9-.8 2.6-3-9.4-5.4 17.2-2.5-7.8-.8 2.5-2.1-6.8-2.9 9.2-1.5-4.7-.8 2.5-3.2-10-1.4 4.5-.4-1.2-2.2 7-3.2-10.1-4.6 14.6-.5-1.6-3.2 10.2-4.9-15.5-4.5 14.4-3.4-10.7-2.1 6.7-1.1-3.4-1.9 6.1-2.2-7.1-1.3 4.2-2.7-8.4-6.3 19.8h5.3l-1.3 4.2h5.5v1.7h1.5v-1.8h2.8v.1h4.1v1.6h1.1v-1.6h4.1l-.7-2.3h2.9v1.6h1.1v-1.4h4.1l-1.2-3.7h3.2l-1.4 4.4h5l-.3.9h3v1.5h2v-1.5h2.6v2.3h2v-2.3h3.9v.1h1.2v1.4h1.5V969h2.9v2.2h1.5V969h3.8l-3.2 10.1h10.8v3.4h2.9v-3.4h5.5l-.1.2h6.6l-2.7 8.6h15v4.8h4v-4.8h4.9v1.7h4v-1.5h9.8v4.5h2.9V988h5.9v1.5h2.9V988h2.2l-.9-3h9.8l-2.6-6.4zm-59.5-7.9l-1.2-3.9h2.4l-1.2 3.9z"/><path id="Layer_283" class="st21" d="M5196.6 963h3.3l-7.5-23.7-1.7 5.3-.4-1.4-2.9 9.3-2.4-7.5-.7 2.1-5.2-16.3-1.7 5.3-.4-1.4-2.4 7.5-.9-2.7-.5 1.5-3.6-11.5-1.2 3.7-.3-1-2.1 6.5-1.7-5.2-3.6 11.3-1.4-4.4-2.2 6.9-2.3-7.1-.5 1.5-1.8-5.6-3.3 10.3-1.5-4.7-.5 1.5-1.3-4.1-1.8 5.5-.9-2.8-.5 1.5-1.9-6-.9 2.7-.2-.7-1.3 4.2-1.9-6-2.8 8.8-.3-1-1.9 6.1-2.9-9.3-2.7 8.6-2-6.4-1.3 4-.7-2.1-1.1 3.6-1.3-4.2-.8 2.5-1.6-5-3.8 11.9h3.2l-.8 2.5h3.3v1.1h.9v-1.1h1.7v.1h2.4v1h.6v-1h2.4l-.4-1.4h1.8v1h.6v-1h2.4l-.7-2.2h1.9l-.8 2.6h3l-.2.6h1.8v.9h1.2v-.9h1.5v1.5h1.2v-1.4h2.3v.1h.7v.8h.9v-.8h1.8v1.4h.9v-1.4h2.3l-1.9 6h6.5v2.1h1.7v-2.1h3.3v.1h3.9l-1.6 5.1h9v2.8h2.4v-2.8h2.9v1h2.4v-.9h5.9v2.7h1.8v-2.7h3.5v.9h1.8v-.9h1.3l-.6-1.8h5.9l-.8-3.9zm-35.7-4.6l-.7-2.3h1.5l-.8 2.3z"/><path id="Layer_282" class="st21" d="M5418.8 979.5h3.3l-7.5-23.7-1.7 5.3-.4-1.4-2.9 9.3-2.4-7.5-.7 2.1-5.2-16.3-1.7 5.3-.4-1.4-2.4 7.5-.9-2.7-.5 1.5-3.6-11.5-1.2 3.7-.3-1-2.1 6.5-1.7-5.2-3.6 11.3-1.4-4.4-2.2 6.9-2.3-7.1-.5 1.5-1.8-5.6-3.3 10.3-1.5-4.7-.5 1.5-1.3-4.1-1.8 5.5-.9-2.8-.5 1.5-1.9-6-.9 2.7-.2-.7-1.3 4.2-1.9-6-2.8 8.8-.3-1-1.9 6.1-2.9-9.3-2.7 8.6-2-6.4-1.3 4-.7-2.1-1.1 3.6-1.3-4.2-.8 2.5-1.6-5-3.8 11.9h3.2l-.8 2.5h3.3v1.1h.9V974h1.7v.1h2.4v1h.6v-1h2.4l-.4-1.4h1.8v1h.6v-1h2.4l-.7-2.2h1.9l-.8 2.6h3l-.2.6h1.8v.9h1.2v-.9h1.5v1.5h1.2v-1.4h2.3v.1h.7v.8h.9v-.8h1.8v1.4h.9v-1.4h2.3l-1.9 6h6.5v2.1h1.7v-2.2h3.3v.1h3.9l-1.6 5.1h9v2.8h2.4V985h2.9v1h2.4v-.9h5.9v2.7h1.8v-2.7h3.5v.9h1.8v-.9h1.3l-.6-1.8h5.9l-.8-3.8zm-35.7-4.7l-.7-2.3h1.5l-.8 2.3z"/><g id="Layer_281"><linearGradient id="XMLID_38_" gradientUnits="userSpaceOnUse" x1="6575.292" y1="-144.303" x2="6575.292" y2="-233.5" gradientTransform="matrix(1 0 0 -1 0 800.2)"><stop offset="0" stop-color="#caf5f6"/><stop offset=".328" stop-color="#caf5f6"/><stop offset=".793" stop-color="#caf5f6" stop-opacity="0"/></linearGradient><path id="XMLID_11318_" class="st23" d="M7116.2 1008.3c-319.6-20.9-318.2-47.4-454.2-65.4-31.8-4.2-60.7-5.9-86.7-5.6-26-.2-54.9 1.4-86.7 5.6-136 18-134.6 44.6-454.2 65.4-38.8 2.5 315.9 36 454.2 36 30.5 0 59.7-1.1 86.7-3.1 27 2 56.2 3.1 86.7 3.1 138.2.1 492.9-33.4 454.2-36z"/></g><g id="Layer_280"><linearGradient id="XMLID_39_" gradientUnits="userSpaceOnUse" x1="6391.4" y1="-185.921" x2="6391.4" y2="-215.808" gradientTransform="matrix(1 0 0 -1 0 800.2)"><stop offset="0" stop-color="#FFF"/><stop offset=".467" stop-color="#FFF"/><stop offset="1" stop-color="#FFF" stop-opacity="0"/></linearGradient><path id="XMLID_639_" class="st24" d="M6539.2 1009.9c-87.3-12.7-86.9-29-124.1-40-8.7-2.6-16.6-3.6-23.7-3.4-7.1-.1-15 .9-23.7 3.4-37.1 11-36.8 27.2-124.1 40-10.6 1.5 86.3 16.1 124.1 16.1 8.3 0 16.3 5.2 23.7 4 7.4 1.2 15.4-4 23.7-4 37.8.1 134.7-14.5 124.1-16.1z"/></g><g id="Layer_279"><linearGradient id="XMLID_40_" gradientUnits="userSpaceOnUse" x1="5247" y1="-152.378" x2="5247" y2="-196.433" gradientTransform="matrix(1 0 0 -1 0 800.2)"><stop offset="0" stop-color="#FFF"/><stop offset=".467" stop-color="#FFF"/><stop offset="1" stop-color="#FFF" stop-opacity="0"/></linearGradient><path id="XMLID_5358_" class="st25" d="M5459.1 986c-125.3-18.3-124.7-41.6-178.1-57.4-12.5-3.7-23.8-5.1-34-4.9-10.2-.2-21.5 1.2-34 4.9-53.3 15.8-52.8 39.1-178.1 57.4-15.2 2.2 123.9 31.6 178.1 31.6 11.9 0 23.4-1 34-2.7 10.6 1.8 22 2.7 34 2.7 54.2 0 193.3-29.4 178.1-31.6z"/></g><g id="Layer_278"><linearGradient id="XMLID_41_" gradientUnits="userSpaceOnUse" x1="6317.801" y1="-184.797" x2="6317.801" y2="-197.997" gradientTransform="matrix(1 0 0 -1 0 800.2)"><stop offset="0" stop-color="#FFF"/><stop offset=".467" stop-color="#FFF"/><stop offset="1" stop-color="#FFF" stop-opacity="0"/></linearGradient><path id="XMLID_7026_" class="st26" d="M6367.7 995c-29.5-5.5-29.4-12.5-41.9-17.2-2.9-1.1-5.6-1.5-8-1.5-2.4-.1-5.1.4-8 1.5-12.6 4.7-12.4 11.7-41.9 17.2-3.6.7 29.2 9.5 41.9 9.5 2.8 0 5.5-.3 8-.8 2.5.5 5.2.8 8 .8 12.8 0 45.5-8.8 41.9-9.5z"/></g><g id="Layer_277"><linearGradient id="XMLID_42_" gradientUnits="userSpaceOnUse" x1="6024.807" y1="-239.444" x2="6024.807" y2="-299.9" gradientTransform="matrix(1 0 0 -1 0 800.2)"><stop offset="0" stop-color="#caf5f6"/><stop offset=".328" stop-color="#caf5f6"/><stop offset=".793" stop-color="#caf5f6" stop-opacity="0"/></linearGradient><path id="XMLID_1232_" class="st27" d="M6164.7 1082.7c-82.7-15.4-82.3-34.9-117.5-48.2-8.2-3.1-15.7-4.3-22.4-4.1-6.7-.2-14.2 1-22.4 4.1-35.2 13.3-34.8 32.8-117.5 48.2-10 1.9 81.7 26.5 117.5 26.5 7.9 0 15.4-.8 22.4-2.3 7 1.5 14.5 2.3 22.4 2.3 35.8.1 127.6-24.6 117.5-26.5z"/></g><g id="Layer_276"><linearGradient id="XMLID_43_" gradientUnits="userSpaceOnUse" x1="5391.45" y1="-182.056" x2="5391.45" y2="-207.588" gradientTransform="matrix(1 0 0 -1 0 800.2)"><stop offset=".224" stop-color="#caf5f6"/><stop offset=".328" stop-color="#caf5f6" stop-opacity=".672"/><stop offset=".793" stop-color="#caf5f6" stop-opacity="0"/></linearGradient><path id="XMLID_204_" class="st28" d="M5501.7 997.6c-50.7-9.4-50.5-21.4-72.1-29.6-5-1.9-9.6-2.6-13.8-2.5-4.1-.1-8.7.6-13.8 2.5-9.2 3.5-16.3 10-25.5 13.3-10.5 3.7-22 4.4-32.8 1.8-7.4-1.8-14.8-5.2-22.4-4.4-14.3 1.4-26.2 16.7-40.1 13.1 3.1 5.9 8.2 10.5 13.7 14.1 18.7 12.1 42.1 13.9 64.3 14 30.3.2 59.3-4.9 89.1-8 12.5-1.3 25.3-4.9 37.4-8.2 2.7-.7 15.7-6.2 16-6.1z"/></g><use xlink:href="#New_Symbol_12" width="53.4" height="62.3" id="Layer_264" x="-26.7" y="-31.1" transform="matrix(.5047 0 0 -.5047 6761.597 906.51)" overflow="visible"/><use xlink:href="#New_Symbol_12" width="53.4" height="62.3" id="Layer_263" x="-26.7" y="-31.1" transform="matrix(.5745 0 0 -.5745 5900.1 974.114)" overflow="visible"/><g id="Layer_262"><g id="XMLID_7449_"><circle id="XMLID_7601_" class="st14" cx="6058.8" cy="1075.4" r="2.2"/><path id="XMLID_7600_" class="st14" d="M6044.4 1079.8c0-1.4 1.1-2.5 2.5-2.5s2.5 1.1 2.5 2.5h-5z"/><path id="XMLID_7599_" class="st14" d="M6045.8 1073.5c0-1.4 1.1-2.5 2.5-2.5s2.5 1.1 2.5 2.5h-5z"/><path id="XMLID_7598_" class="st29" d="M6043.2 1073.5c0-1 .8-1.9 1.9-1.9 1 0 1.9.8 1.9 1.9h-3.8z"/><path id="XMLID_7597_" class="st14" d="M6022 1079.8c0-1.2.9-2.1 2.1-2.1s2.1.9 2.1 2.1h-4.2z"/><circle id="XMLID_7596_" class="st14" cx="6040" cy="1080.6" r="1.4"/><circle id="XMLID_7595_" class="st30" cx="6071.6" cy="1077.7" r="4.2"/><circle id="XMLID_7594_" class="st30" cx="6065.7" cy="1067.4" r="1.5"/><circle id="XMLID_7593_" class="st30" cx="6076.2" cy="1071.4" r="4"/><circle id="XMLID_7587_" class="st14" cx="6054.2" cy="1081.4" r=".9"/><path id="XMLID_7586_" class="st14" d="M6064.6 1067.7c-1 1.6-4.5 5.4-5.8 5.6v4.2l5.9.1c1.8 0 1.8 2.8 0 2.8h-10.4v1.6h113.3v-16.1h-99.3c-1.5 0-2.9.6-3.7 1.8z"/><path id="XMLID_7585_" class="st31" d="M6158.2 1080c0-1.4 1.1-2.5 2.5-2.5s2.5 1.1 2.5 2.5h-5z"/><path id="XMLID_7584_" class="st19" d="M6151.4 1075.8c0-1.4 1.1-2.5 2.5-2.5s2.5 1.1 2.5 2.5h-5z"/><path id="XMLID_7583_" class="st14" d="M6183.7 1081c0-1.4 1.1-2.5 2.5-2.5s2.5 1.1 2.5 2.5h-5z"/><path id="XMLID_7580_" class="st32" d="M6154.7 1080h19.3"/><path id="XMLID_7579_" class="st32" d="M6162 1077.4h19.3"/><path id="XMLID_7578_" class="st33" d="M6161.7 1073.5h5.8"/><path id="XMLID_7517_" class="st34" d="M6148.3 1071h19.3"/></g></g><g id="Layer_260"><g id="XMLID_6794_"><path id="XMLID_12537_" class="st35" d="M6485.4 990c0-1.6 1.3-2.9 2.9-2.9s2.9 1.3 2.9 2.9h-5.8z"/><path id="XMLID_12532_" class="st35" d="M6479.5 990c0-1.6 1.3-2.9 2.9-2.9s2.9 1.3 2.9 2.9h-5.8z"/><path id="XMLID_12519_" class="st35" d="M6487.1 991.5c0-1.6 1.3-2.9 2.9-2.9s2.9 1.3 2.9 2.9h-5.8z"/></g></g><g id="Layer_259"><g id="XMLID_12545_"><path id="XMLID_12554_" class="st35" d="M6429.7 990c0-1.6 1.3-2.9 2.9-2.9s2.9 1.3 2.9 2.9h-5.8z"/><path id="XMLID_12550_" class="st35" d="M6423.8 990c0-1.6 1.3-2.9 2.9-2.9s2.9 1.3 2.9 2.9h-5.8z"/><path id="XMLID_12549_" class="st35" d="M6431.5 991.5c0-1.6 1.3-2.9 2.9-2.9s2.9 1.3 2.9 2.9h-5.8z"/></g></g><g id="Layer_253"><path id="XMLID_5763_" class="st14" d="M5972.9 1019.4c0-3.3 2.6-5.9 5.9-5.9s5.9 2.6 5.9 5.9h-11.8z"/></g><g id="Layer_239"><use xlink:href="#New_Symbol_13" width="55.4" height="69.1" id="XMLID_530_" x="-27.7" y="-34.5" transform="matrix(1.5003 0 0 -1.5003 6798.502 954.883)" overflow="visible"/></g><use xlink:href="#New_Symbol_13" width="55.4" height="69.1" id="Layer_238" x="-27.7" y="-34.5" transform="matrix(.65 0 0 -.65 6796.428 934.67)" overflow="visible"/><g id="Layer_224"><linearGradient id="XMLID_45_" gradientUnits="userSpaceOnUse" x1="5284.2" y1="-164.72" x2="5284.2" y2="-240.993" gradientTransform="matrix(1 0 0 -1 0 800.2)"><stop offset="0" stop-color="#caf5f6"/><stop offset=".328" stop-color="#caf5f6"/><stop offset=".793" stop-color="#caf5f6" stop-opacity="0"/></linearGradient><path id="XMLID_11307_" class="st36" d="M5605 1019.5c-189.5-17.8-188.7-40.6-269.4-55.9-18.8-3.6-36-5-51.4-4.8-15.4-.2-32.6 1.2-51.4 4.8-80.6 15.4-79.8 38.1-269.4 55.9-23 2.2 187.4 30.8 269.4 30.8 18.1 0 35.4-.9 51.4-2.7 16 1.7 33.3 2.7 51.4 2.7 82 0 292.4-28.6 269.4-30.8z"/></g><use xlink:href="#New_Symbol_12" width="53.4" height="62.3" id="Layer_180" x="-26.7" y="-31.1" transform="matrix(.72 0 0 -.72 5094.245 956.088)" overflow="visible"/><use xlink:href="#New_Symbol_12" width="53.4" height="62.3" id="Layer_179" x="-26.7" y="-31.1" transform="matrix(1 0 0 -1 5235.804 944.677)" overflow="visible"/><use xlink:href="#New_Symbol_12" width="53.4" height="62.3" id="Layer_168" x="-26.7" y="-31.1" transform="matrix(1.8456 0 0 -1.8456 6734.002 1012.455)" overflow="visible"/><use xlink:href="#New_Symbol_12" width="53.4" height="62.3" id="Layer_91" x="-26.7" y="-31.1" transform="matrix(.9803 0 0 -.9803 5486.5 1011.835)" overflow="visible"/><use xlink:href="#New_Symbol_13" width="55.4" height="69.1" id="Layer_90" x="-27.7" y="-34.5" transform="matrix(.9157 0 0 -.9157 5536.055 986.69)" overflow="visible"/></svg>