<svg id="Layer_1" xmlns="http://www.w3.org/2000/svg" viewBox="0 0 98.4 98.4"><style>.st0{fill:#a4dcea}</style><path class="st0" d="M61.6 8.6c3.1.1 6-.1 8.7-.4 5.4-.6 12.4-1.3 16.5 3.4 4.7 4.1 4.1 11 3.4 16.5-.3 2.7-.5 5.6-.4 8.7.1 7.4 3.4 11.3 8.6 12.4-5.3 1.1-8.5 5-8.6 12.4-.1 3.1.1 6 .4 8.7.6 5.5 1.3 12.4-3.4 16.5-4.1 4.7-11 4.1-16.5 3.4-2.7-.3-5.6-.5-8.7-.4-7.4.1-11.3 3.4-12.4 8.6-1.1-5.3-5-8.6-12.4-8.6-3.1-.1-6 .1-8.7.4-5.5.6-12.4 1.3-16.5-3.4-4.7-4.1-4-11.1-3.4-16.5.3-2.7.5-5.6.4-8.7-.1-7.4-3.4-11.3-8.6-12.4 5.2-1.1 8.5-5 8.6-12.4.1-3.1-.1-6-.4-8.7-.6-5.4-1.3-12.4 3.4-16.5 4.1-4.7 11-4.1 16.5-3.4 2.7.3 5.6.5 8.7.4 7.4-.1 11.3-3.3 12.4-8.6 1 5.3 5 8.5 12.4 8.6z"/></svg>