<svg xmlns="http://www.w3.org/2000/svg" viewBox="0 94.6 150 72.3"><path fill="#ccc" d="M130.8 117.5c-.5 0-.9-.4-.9-.8V112c0-.2-.2-.4-.5-.4h-3.2c-1.2 0-2.2-.9-2.2-2.1v-2.7c0-.2-.2-.4-.5-.4h-5.4c-.5 0-.9-.4-.9-.8s.4-.8.9-.8h5.4c1.2 0 2.2.9 2.2 2.1v2.7c0 .2.2.4.5.4h3.2c1.2 0 2.2.9 2.2 2.1v4.6c.1.4-.3.8-.8.8zm-9.7-11.3c-.5 0-.9-.4-.9-.8v-3.1c0-.2-.2-.4-.5-.4h-3.9c-.5 0-.9-.4-.9-.8s.4-.8.9-.8h3.9c1.2 0 2.2.9 2.2 2.1v3.1c.1.3-.3.7-.8.7z"/><path fill="#A8A8A8" d="M109.3 122.6l-57.1-28h-7.4L79 122.7"/><path fill="#ccc" d="M109.3 122.6l-57.1-28h-4l37.4 28.1"/><path fill="#E64436" d="M7.1 117.3v1.8s26.2 11.4 49.7 11.4h73.3c10.7 0 19.9-3.6 19.9-5.5s-4.6-3.6-6.4-4.4c-1.8-.8-6.1-5.9-21.7-5.9H7.1v2.6z"/><path fill="#D3AE6E" d="M7.1 117.3v1.8s26.2 11.4 49.7 11.4h73.3c10.7 0 19.9-3.6 19.9-5.5s-4.6-3.6-6.4-4.4c-1.8-.8-6.1-5.9-21.7-5.9H7.1v2.6z"/><path fill="#28AE4B" d="M2.5 96.2H7l18.5 18.6h-7L3.4 99.6zm.9 3.4l15.1 15.2h-6L5.7 108zm4.2 15.2l-1.1-4.1-.8-2.7 6.8 6.8h-1.9z"/><path fill="#fff" d="M126.6 119.6c0 .2-.1.3-.3.3h-.3c-.2 0-.3-.1-.3-.3v-.2c0-.2.1-.3.3-.3h.3c.2 0 .3.1.3.3v.2zm-6 3.5c0 .4-.3.7-.7.7h-1.6c-.4 0-.7-.3-.7-.7v-2.7c0-.4.3-.7.7-.7h1.6c.4 0 .7.3.7.7v2.7zm-5.6 0c0 .4-.3.7-.7.7h-1.6c-.4 0-.7-.3-.7-.7v-2.7c0-.4.3-.7.7-.7h1.6c.4 0 .7.3.7.7v2.7zm-5.6 0c0 .4-.3.7-.7.7h-1.6c-.4 0-.7-.3-.7-.7v-2.7c0-.4.3-.7.7-.7h1.6c.4 0 .7.3.7.7v2.7zm-5.6 0c0 .4-.3.7-.7.7h-1.6c-.4 0-.7-.3-.7-.7v-2.7c0-.4.3-.7.7-.7h1.6c.4 0 .7.3.7.7v2.7zm-5.6 0c0 .4-.3.7-.7.7h-1.6c-.4 0-.7-.3-.7-.7v-2.7c0-.4.3-.7.7-.7h1.6c.4 0 .7.3.7.7v2.7zm-5.5 0c0 .4-.3.7-.7.7h-1.6c-.4 0-.7-.3-.7-.7v-2.7c0-.4.3-.7.7-.7H92c.4 0 .7.3.7.7v2.7zm-5.6.1c0 .4-.3.7-.7.7h-1.6c-.4 0-.7-.3-.7-.7v-2.7c0-.4.3-.7.7-.7h1.6c.4 0 .7.3.7.7v2.7zm-5.6 0c0 .4-.3.7-.7.7h-1.6c-.4 0-.7-.3-.7-.7v-2.7c0-.4.3-.7.7-.7h1.6c.4 0 .7.3.7.7v2.7zm-5.6 0c0 .4-.3.7-.7.7h-1.6c-.4 0-.7-.3-.7-.7v-2.7c0-.4.3-.7.7-.7h1.6c.4 0 .7.3.7.7v2.7zm-5.6 0c0 .4-.3.7-.7.7H68c-.4 0-.7-.3-.7-.7v-2.7c0-.4.3-.7.7-.7h1.6c.4 0 .7.3.7.7v2.7zm-5.6 0c0 .4-.3.7-.7.7h-1.6c-.4 0-.7-.3-.7-.7v-2.7c0-.4.3-.7.7-.7H64c.4 0 .7.3.7.7v2.7zm-5.6 0c0 .4-.3.7-.7.7h-1.6c-.4 0-.7-.3-.7-.7v-2.7c0-.4.3-.7.7-.7h1.6c.4 0 .7.3.7.7v2.7zm-5.6 0c0 .4-.3.7-.7.7h-1.6c-.4 0-.7-.3-.7-.7v-2.7c0-.4.3-.7.7-.7h1.6c.4 0 .7.3.7.7v2.7zm-5.5 0c0 .4-.3.7-.7.7h-1.6c-.4 0-.7-.3-.7-.7v-2.7c0-.4.3-.7.7-.7h1.6c.4 0 .7.3.7.7v2.7zm-5.6 0c0 .4-.3.7-.7.7h-1.6c-.4 0-.7-.3-.7-.7v-2.7c0-.4.3-.7.7-.7h1.6c.4 0 .7.3.7.7v2.7z"/><path fill="none" stroke="#fff" stroke-width=".5" stroke-miterlimit="10" d="M34.7 124.5c0 .2-.1.3-.3.3h-2.7c-.2 0-.3-.1-.3-.3v-7c0-.2.1-.3.3-.3h2.7c.2 0 .3.1.3.3v7zm93.3.1c0 .2-.1.3-.3.3h-3.1c-.2 0-.3-.1-.3-.3v-7c0-.2.1-.3.3-.3h3.1c.2 0 .3.1.3.3v7z"/><path fill="#28AE4B" d="M0 113.8h4.1l17.8 3.9H7z"/><path fill="#ccc" d="M133.3 126.9c6.4 0 12.3-1.1 16.6-2.5.1.2.1.4.1.6 0 1.9-9.3 5.5-19.9 5.5H56.8c-15.1 0-31.4-4.7-41-8.1 9.7 2.5 20.9 4.5 31.6 4.5 27.6.1 73.4 0 85.9 0z"/><path fill="#fff" d="M133.3 126.9c6.4 0 12.3-1.1 16.6-2.5.1.2.1.4.1.6 0 1.9-9.3 3.8-19.9 3.8H56.8c-15.1 0-31.4-3-41-6.4 9.7 2.5 20.9 4.5 31.6 4.5 27.6.1 73.4 0 85.9 0z"/><path fill="#A8A8A8" d="M43.4 167l31.8-40h28.7l-53.1 40z"/><path fill="#ccc" d="M46.2 167l33.3-40h24.4l-53.1 40z"/><path fill="#A52E22" d="M150 125c0 1-2.3 2.3-6 3.5v-7.7c2 .8 6 2.4 6 4.2z"/><path fill="#E64436" d="M150 125c0 1-2.3 1.2-6 2.4v-6.6c2 .8 6 2.4 6 4.2z"/><ellipse fill="#fff" cx="135.7" cy="121.5" rx="3.4" ry="3.2"/><ellipse fill="#333" cx="136.9" cy="121.4" rx="1.7" ry="1.6"/><path fill="#fd0" d="M12.7 106.9h2.7v2.5h-2.7zm-3.3 0h2.7v2.5H9.4zm3.3 3.3h2.7v2.5h-2.7zm-3.3 0h2.7v2.5H9.4zm1.6-3.5c.9-1.4 3.3-1.7.2-3.8-2.6-1.8-4.1-2.7-4.4-2.2-.6.8 3.5 2.6 3.5 2.6s-3.6-1.5-3.8-.5c-.2.9 3.7 1.2 3.7 1.2s-2.8-.3-2.8.6c0 .6 4 .3 4 .3s-.7.9-.4 1.8z"/></svg>