<svg xmlns="http://www.w3.org/2000/svg" viewBox="0 0 155.91 60.14" width="155.91" height="60.14"><defs><style>.cls-1{fill:#332e2e;}</style></defs><title>face_eyes_sunglasses2</title><g id="Layer_2" data-name="Layer 2"><g id="ART"><path d="M11.77,28.45V21.39a7.16,7.16,0,0,0-7.16-7.17h0A4.6,4.6,0,0,1,0,9.62H0A4.57,4.57,0,0,1,3,5.3C8.25,3.4,20.53,0,41.29,0,54.38,0,63.14,3.84,68.81,8A15.38,15.38,0,0,0,87.1,8c5.67-4.2,14.43-8,27.52-8,20.76,0,33,3.4,38.28,5.3a4.57,4.57,0,0,1,3,4.32h0a4.6,4.6,0,0,1-4.61,4.6h0a7.17,7.17,0,0,0-7.17,7.17v7.06L78,24Z"/><path d="M114.62,0A30.08,30.08,0,0,0,85.33,21.32a11.44,11.44,0,0,0-14.76,0,30.07,30.07,0,1,0,1.3,9.08A6.33,6.33,0,0,1,77.27,24a6.08,6.08,0,0,1,6.76,6A30.07,30.07,0,1,0,114.62,0Z"/><circle class="cls-1" cx="41.8" cy="30.07" r="24.69"/><circle class="cls-1" cx="114.1" cy="30.07" r="24.69"/></g></g></svg>