<svg xmlns="http://www.w3.org/2000/svg" viewBox="0 0 157.59 54.28"><defs><style>.cls-1{fill:#212121;}.cls-2{fill:#332e2e;}.cls-3{fill:#fff;}</style></defs><title>face_eyes_sunglasses1</title><g id="Layer_2" data-name="Layer 2"><g id="ART"><circle class="cls-1" cx="150.53" cy="7.06" r="7.06"/><circle class="cls-1" cx="7.06" cy="7.26" r="7.06"/><path id="_Path_" data-name="&lt;Path&gt;" class="cls-1" d="M63.77,16.14a15,15,0,0,1,15-15h0a15,15,0,0,1,15,15h-7a8,8,0,0,0-8-8h0a8,8,0,0,0-8,8Z"/><path class="cls-2" d="M118.89,47.23a25,25,0,0,0,24.59-25.15V10.78A3.53,3.53,0,0,0,140,7.26H97.35a3.53,3.53,0,0,0-3.53,3.52V22.4A24.86,24.86,0,0,0,118.89,47.23Z"/><path class="cls-2" d="M39.18,47A25,25,0,0,0,63.77,21.88V10.58a3.53,3.53,0,0,0-3.53-3.52H17.64a3.53,3.53,0,0,0-3.53,3.52V22.2A24.86,24.86,0,0,0,39.18,47Z"/><path class="cls-1" d="M94.34,0a7.57,7.57,0,0,0-7.57,7.58V22.2a31.88,31.88,0,1,0,63.76,0V0Zm49.14,22.08a24.83,24.83,0,1,1-49.66.32V10.78a3.53,3.53,0,0,1,3.53-3.52H140a3.53,3.53,0,0,1,3.53,3.52Z"/><circle class="cls-3" cx="150.29" cy="7.26" r="2.56"/><path class="cls-1" d="M63.25.2H7.06V22.4a31.88,31.88,0,1,0,63.76,0V7.78A7.57,7.57,0,0,0,63.25.2Zm.52,21.68a24.83,24.83,0,1,1-49.66.32V10.58a3.53,3.53,0,0,1,3.53-3.52h42.6a3.53,3.53,0,0,1,3.53,3.52Z"/><circle class="cls-3" cx="7.06" cy="7.26" r="2.56"/></g></g></svg>