<svg xmlns="http://www.w3.org/2000/svg" xmlns:xlink="http://www.w3.org/1999/xlink" viewBox="0 0 145.32 54.54" width="145.32" height="54.54"><defs><style>.cls-1{fill:#332e2e;}.cls-2,.cls-3{opacity:0.5;}.cls-2{fill:url(#linear-gradient);}.cls-3{fill:url(#linear-gradient-2);}</style><linearGradient id="linear-gradient" x1="18903.87" y1="47.71" x2="18862.23" y2="6.07" gradientTransform="matrix(-1, 0, 0, 1, 18991.11, 0)" gradientUnits="userSpaceOnUse"><stop offset="0" stop-color="#a4ecf9"/><stop offset="1" stop-color="#3ddaf2"/></linearGradient><linearGradient id="linear-gradient-2" x1="58.08" y1="47.71" x2="16.43" y2="6.06" gradientTransform="matrix(1, 0, 0, 1, 0, 0)" xlink:href="#linear-gradient"/></defs><title>face_eyes_glasses3</title><g id="Layer_2" data-name="Layer 2"><g id="ART"><path class="cls-1" d="M56.1,27.27A18.85,18.85,0,1,1,37.26,8.42,18.86,18.86,0,0,1,56.1,27.27Z"/><path class="cls-1" d="M126.91,27.27A18.85,18.85,0,1,1,108.06,8.42,18.86,18.86,0,0,1,126.91,27.27Z"/><path class="cls-2" d="M108.06,52.09C88,52.09,77.8,43.61,77.8,26.89S88,1.69,108.06,1.69s30.26,8.48,30.26,25.2S128.14,52.09,108.06,52.09Z"/><path class="cls-3" d="M37.26,52.09C17.18,52.09,7,43.61,7,26.89S17.18,1.69,37.26,1.69s30.25,8.48,30.25,25.2S57.33,52.09,37.26,52.09Z"/><path d="M37.26,0c-26.46,0-32,14.83-32,27.27,0,22.54,17.41,27.27,32,27.27,26.45,0,32-14.83,32-27.27C69.26,4.73,51.86,0,37.26,0Zm0,52.47C17.18,52.47,7,44,7,27.27S17.18,2.07,37.26,2.07s30.25,8.48,30.25,25.2S57.33,52.47,37.26,52.47Z"/><path d="M108.06,0c-26.45,0-32,14.83-32,27.27,0,22.54,17.41,27.27,32,27.27,26.46,0,32-14.83,32-27.27C140.07,4.73,122.66,0,108.06,0Zm0,52.47C88,52.47,77.8,44,77.8,27.27S88,2.07,108.06,2.07s30.26,8.48,30.26,25.2S128.14,52.47,108.06,52.47Z"/><circle cx="142.06" cy="23.77" r="3.26"/><circle cx="3.26" cy="23.77" r="3.26"/><path d="M67.29,27.27a2.68,2.68,0,0,0,2.35-1.56,3.4,3.4,0,0,1,6,0A2.68,2.68,0,0,0,78,27.27h.15a2.55,2.55,0,0,0,2.36-3.56,8.64,8.64,0,0,0-15.76,0,2.55,2.55,0,0,0,2.36,3.56Z"/></g></g></svg>