<svg xmlns="http://www.w3.org/2000/svg" viewBox="0 0 205.4 162.92" width="205.4" height="162.92"><defs><style>.cls-1{fill:#764c2e;}.cls-2{fill:#9b643d;}.cls-3{fill:none;stroke:#f9ce1d;stroke-miterlimit:10;stroke-width:3px;}</style></defs><title>head_elf_hair4</title><g id="Layer_2" data-name="Layer 2"><g id="ART"><path class="cls-1" d="M14.42,88.28a88.28,88.28,0,1,1,176.56,0Z"/><path class="cls-2" d="M201.54,36.15,163.37,74.32a19.75,19.75,0,1,0,27.93,27.92C215.14,78.41,201.54,36.15,201.54,36.15Z"/><path class="cls-2" d="M42,74.32,3.86,36.15S-9.74,78.41,14.1,102.24A19.75,19.75,0,0,0,42,74.32Z"/><circle class="cls-2" cx="102.7" cy="88.28" r="74.64"/><path class="cls-1" d="M102.7,39.89A74.25,74.25,0,0,0,145,26.76a74.59,74.59,0,0,0-84.5,0A74.27,74.27,0,0,0,102.7,39.89Z"/><line class="cls-3" x1="182.59" y1="97.03" x2="182.59" y2="115.9"/><line class="cls-3" x1="22.81" y1="97.03" x2="22.81" y2="115.9"/></g></g></svg>