<svg xmlns="http://www.w3.org/2000/svg" viewBox="0 0 205.4 177.97" width="205.4" height="177.97"><defs><style>.cls-1{fill:#764c2e;}.cls-2{fill:#e0bb95;}</style></defs><title>head_elf_hair10</title><g id="Layer_2" data-name="Layer 2"><g id="ART"><circle class="cls-1" cx="32.02" cy="124.33" r="15.79"/><circle class="cls-1" cx="23.91" cy="102.25" r="15.79"/><circle class="cls-1" cx="47.81" cy="145.08" r="15.79"/><circle class="cls-1" cx="71.12" cy="158.57" r="15.79"/><circle class="cls-1" cx="86.91" cy="162.19" r="15.79"/><circle class="cls-1" cx="173.38" cy="124.33" r="15.79"/><circle class="cls-1" cx="181.5" cy="102.25" r="15.79"/><circle class="cls-1" cx="157.59" cy="145.08" r="15.79"/><circle class="cls-1" cx="134.28" cy="158.57" r="15.79"/><circle class="cls-1" cx="118.49" cy="162.19" r="15.79"/><path class="cls-2" d="M201.54,35.42,163.37,73.58a19.75,19.75,0,1,0,27.94,27.93C215.14,77.67,201.54,35.42,201.54,35.42Z"/><path class="cls-2" d="M42,73.58,3.86,35.42S-9.74,77.67,14.1,101.51A19.75,19.75,0,0,0,42,73.58Z"/><circle class="cls-2" cx="102.7" cy="87.55" r="74.64"/><circle class="cls-1" cx="71.12" cy="21.58" r="15.79"/><circle class="cls-1" cx="102.7" cy="21.58" r="21.58"/><circle class="cls-1" cx="134.28" cy="21.58" r="15.79"/><circle class="cls-1" cx="37.77" cy="57.63" r="13.51"/><circle class="cls-1" cx="167.63" cy="57.63" r="13.51"/><circle class="cls-1" cx="51.29" cy="37.37" r="14.97"/><circle class="cls-1" cx="154.11" cy="37.37" r="14.97"/></g></g></svg>