<svg id="Layer_1" data-name="Layer 1" xmlns="http://www.w3.org/2000/svg" viewBox="0 0 875 875"><defs><style>.cls-1{opacity:0.2;}.cls-2,.cls-4{fill:none;stroke-miterlimit:10;}.cls-2{stroke:#e53935;stroke-linecap:round;stroke-width:10.95px;}.cls-3{fill:#e53935;}.cls-4{stroke:#fff;stroke-linecap:square;stroke-width:2.54px;}.cls-5{fill:#fff;}.cls-6{fill:#333;}.cls-7{fill:#ffd400;}.cls-8{fill:#bf8f68;}</style></defs><title>Untitled-4</title><ellipse class="cls-1" cx="425.79" cy="703.75" rx="46.27" ry="8.64"/><path class="cls-2" d="M389.25,636.57c-7.82-19.76,2.56-42.61,20.83-46"/><path class="cls-2" d="M487,577c-16.81,22.25-36.43,21.48-47.38,13.62"/><path class="cls-3" d="M447.66,639.47a22.81,22.81,0,1,1-45.63,0V608a22.81,22.81,0,1,1,45.63,0Z"/><path class="cls-4" d="M424.84,585.16s6,7.32,6,20.46v39.44"/><polyline class="cls-5" points="410.76 674.37 410.76 692.71 422.71 692.71 422.71 674.37"/><polyline class="cls-3" points="410.76 653.6 410.76 674.37 422.71 674.37 422.71 653.6"/><polyline class="cls-5" points="439.54 674.37 439.54 692.71 427.59 692.71 427.59 674.37"/><polyline class="cls-3" points="439.54 653.6 439.54 674.37 427.59 674.37 427.59 653.6"/><path class="cls-6" d="M426.77,690.54h13.85c4.62,9,16.57,9,18.2,2.45,0,0,6.38,12.35-22.27,10.59C429.77,703.16,424.4,696.92,426.77,690.54Z"/><rect class="cls-6" x="402.03" y="628.08" width="45.63" height="11.4"/><rect class="cls-7" x="424.84" y="626.98" width="11.95" height="13.04"/><path class="cls-6" d="M409.75,690.54H423.6c4.62,9,16.57,9,18.2,2.45,0,0,6.38,12.35-22.28,10.59C412.75,703.16,407.37,696.92,409.75,690.54Z"/><path class="cls-3" d="M443.62,541.18S424.94,502,407.84,493.87c0,0,8.91,36.68-.89,48.07Z"/><circle class="cls-5" cx="404.36" cy="489.67" r="5.53" transform="translate(-85.91 893.3) rotate(-89.91)"/><path class="cls-8" d="M447.66,562.37a22.82,22.82,0,0,1-22.85,22.78h0A22.82,22.82,0,0,1,402,562.3h0a22.82,22.82,0,0,1,22.85-22.78h0a22.82,22.82,0,0,1,22.78,22.85Z"/><path class="cls-8" d="M404.79,557.43l-7.59-10.34s-4.39,26.62,10.28,23.38Z"/><path class="cls-8" d="M443.7,557.49l7.62-10.32s4.31,26.63-10.35,23.35Z"/><path class="cls-5" d="M434.57,569.47a9.7,9.7,0,1,1-19.4,0Z"/><rect class="cls-5" x="419.05" y="517.63" width="11.65" height="51.42" rx="3.04" ry="3.04" transform="translate(-119.1 967.4) rotate(-89.91)"/><circle class="cls-6" cx="415.89" cy="558.24" r="4.07" transform="matrix(0, -1, 1, 0, -142.97, 973.3)"/><circle class="cls-6" cx="435.7" cy="558.27" r="4.07" transform="translate(-123.21 993.14) rotate(-89.91)"/><circle class="cls-8" cx="486.98" cy="576.96" r="8.49"/><circle class="cls-8" cx="389.25" cy="636.57" r="8.49"/></svg>