<svg id="Layer_1" data-name="Layer 1" xmlns="http://www.w3.org/2000/svg" xmlns:xlink="http://www.w3.org/1999/xlink" viewBox="0 0 875 875"><defs><style>.cls-1{fill:#fff;}.cls-2{opacity:0.2;}.cls-3{clip-path:url(#clip-path);}.cls-4{fill:#bae4f9;}.cls-5{fill:#022288;}.cls-6{clip-path:url(#clip-path-2);}.cls-7{clip-path:url(#clip-path-3);}.cls-8{clip-path:url(#clip-path-4);}.cls-9{clip-path:url(#clip-path-5);}.cls-10{clip-path:url(#clip-path-6);}.cls-11{clip-path:url(#clip-path-7);}.cls-12{clip-path:url(#clip-path-8);}.cls-13{clip-path:url(#clip-path-9);}.cls-14{fill:#fb8c00;}.cls-15{fill:#c62828;}.cls-16{fill:#d94637;}.cls-17{clip-path:url(#clip-path-10);}.cls-18{clip-path:url(#clip-path-11);}.cls-19{fill:#231f20;}</style><clipPath id="clip-path"><path id="_Clipping_Path_" data-name="&lt;Clipping Path&gt;" class="cls-1" d="M679.09,533.11c-6.94,7-3.55,31,11.4,31.4,9.4.23,60.25-29.14,56.83-35.32S688.17,524,679.09,533.11Z"/></clipPath><clipPath id="clip-path-2"><path id="_Clipping_Path_2" data-name="&lt;Clipping Path&gt;" class="cls-1" d="M658.8,570.08s27.58.3,36.66-8.83c6.94-7,3.55-31-11.4-31.4-9.4-.23-28.37,11.61-28.37,11.61Z"/></clipPath><clipPath id="clip-path-3"><path id="_Clipping_Path_3" data-name="&lt;Clipping Path&gt;" class="cls-1" d="M625.72,570.37s29.82,7,41.89-.66c9.23-5.88,11.4-32.79-4.73-36.82-10.14-2.53-33.58,5.69-33.58,5.69Z"/></clipPath><clipPath id="clip-path-4"><path id="_Clipping_Path_4" data-name="&lt;Clipping Path&gt;" class="cls-1" d="M590.24,566.54s31.41,13.14,46,6.91c11.18-4.76,18.47-33.87,1.52-41.22-10.65-4.62-37.84.12-37.84.12Z"/></clipPath><clipPath id="clip-path-5"><path id="_Clipping_Path_5" data-name="&lt;Clipping Path&gt;" class="cls-1" d="M552.34,555.45S584.92,574.67,602,570c13-3.54,25.47-34.47,7.94-45.14-11-6.7-41.67-5.61-41.67-5.61Z"/></clipPath><clipPath id="clip-path-6"><path id="_Clipping_Path_6" data-name="&lt;Clipping Path&gt;" class="cls-1" d="M518.73,529.12s23.31,29.79,40.87,31.7c13.43,1.46,36.29-22.8,23.86-39.13-7.82-10.26-36.75-20.43-36.75-20.43Z"/></clipPath><clipPath id="clip-path-7"><path id="_Clipping_Path_7" data-name="&lt;Clipping Path&gt;" class="cls-1" d="M493.25,507.89s23.31,29.79,40.87,31.7c13.43,1.46,36.29-22.8,23.86-39.13C550.17,490.2,521.24,480,521.24,480Z"/></clipPath><clipPath id="clip-path-8"><path id="_Clipping_Path_8" data-name="&lt;Clipping Path&gt;" class="cls-1" d="M320.12,525.56l97-28.6a7.5,7.5,0,0,0,4.3-3.31l6.76-11.18a7.5,7.5,0,0,1,8.57-3.31l4.14,1.24a7.5,7.5,0,0,1,5.24,8.45l-.75,4.37a7.5,7.5,0,0,0,2.65,7.08l1.73,1.41a7.5,7.5,0,0,1,.41,11.26L445,517.78a7.5,7.5,0,0,1-7.94,1.51l-9.56-3.84a7.5,7.5,0,0,0-4.8-.27l-83.5,23a7.87,7.87,0,0,0-5.9,7.23v1.4a7.16,7.16,0,0,1-5.39,7.3l-6.4,1.54a7.4,7.4,0,0,1-9-6.31l-.28-1.78c-.4-3-2.47-5.54-5.38-5.54h0c-4.83,0-7-7.61-4.4-11.87l1.37-2.58a7.55,7.55,0,0,1,10.09-2.75l.39.13A7.47,7.47,0,0,0,320.12,525.56Z"/></clipPath><clipPath id="clip-path-9"><path id="_Clipping_Path_9" data-name="&lt;Clipping Path&gt;" class="cls-1" d="M388,569.84l83.55-56.9a7.5,7.5,0,0,0,3.08-4.47l3-12.71a7.5,7.5,0,0,1,7.14-5.77l4.32-.09a7.5,7.5,0,0,1,7.57,6.44l.62,4.39a7.5,7.5,0,0,0,4.69,5.93l2.08.81a7.5,7.5,0,0,1,3.84,10.59l-3.37,6.14a7.5,7.5,0,0,1-7.1,3.87l-10.27-.73a7.5,7.5,0,0,0-4.65,1.21L410.44,575.9a7.5,7.5,0,0,0-3,8.56l.43,1.33a7.5,7.5,0,0,1-3.28,8.72L398.76,598a7.5,7.5,0,0,1-10.63-3.21l-1.07-2.26a7.5,7.5,0,0,0-7.1-4.27h0a7.5,7.5,0,0,1-7.6-9.29l.63-2.54a7.5,7.5,0,0,1,8.82-5.54l.44.09A7.5,7.5,0,0,0,388,569.84Z"/></clipPath><clipPath id="clip-path-10"><path id="_Clipping_Path_10" data-name="&lt;Clipping Path&gt;" class="cls-1" d="M367.88,263.93l-82.35,31.39a239.45,239.45,0,0,1-71.74,15.32l-71.58,4.05a6.37,6.37,0,0,1-6.58-7.74L145,264.81a36.86,36.86,0,0,1,25.53-27.35l21-2.84c27.82-2.8,45.61-26.22,76.74-31.74s69.54,10.56,69.54,10.56Z"/></clipPath><clipPath id="clip-path-11"><path id="_Clipping_Path_11" data-name="&lt;Clipping Path&gt;" class="cls-1" d="M374.31,251.35l-27,83.53a31.39,31.39,0,0,1-28.1,21.7l-165.51,9.36a20.35,20.35,0,0,1-20.69-14.62l-5.28-18.11a6.37,6.37,0,0,1,6.54-8.14s166.7,25,184.35-61.12"/></clipPath></defs><title>Untitled-4</title><ellipse class="cls-2" cx="399.7" cy="674.11" rx="205.03" ry="38.28"/><path id="_Clipping_Path_12" data-name="&lt;Clipping Path&gt;" class="cls-1" d="M679.09,533.11c-6.94,7-3.55,31,11.4,31.4,9.4.23,60.25-29.14,56.83-35.32S688.17,524,679.09,533.11Z"/><g class="cls-3"><path class="cls-4" d="M679.09,541.6c-6.94,7-3.55,31,11.4,31.4,9.4.23,60.25-29.14,56.83-35.32S688.17,532.47,679.09,541.6Z"/></g><path class="cls-5" d="M674.47,561.49s20.68.23,27.49-6.62c5.21-5.23,2.67-23.28-8.55-23.55-7.05-.17-21.28,8.71-21.28,8.71Z"/><path id="_Clipping_Path_13" data-name="&lt;Clipping Path&gt;" class="cls-1" d="M658.8,570.08s27.58.3,36.66-8.83c6.94-7,3.55-31-11.4-31.4-9.4-.23-28.37,11.61-28.37,11.61Z"/><g class="cls-6"><path class="cls-4" d="M660.92,582.82s27.58.3,36.66-8.83c6.94-7,3.55-31-11.4-31.4-9.4-.23-28.37,11.61-28.37,11.61Z"/></g><path class="cls-5" d="M651.12,567.86s20.68.23,27.49-6.62c5.21-5.23,2.67-23.28-8.55-23.55-7.05-.17-21.28,8.71-21.28,8.71Z"/><path id="_Clipping_Path_14" data-name="&lt;Clipping Path&gt;" class="cls-1" d="M625.72,570.37s29.82,7,41.89-.66c9.23-5.88,11.4-32.79-4.73-36.82-10.14-2.53-33.58,5.69-33.58,5.69Z"/><g class="cls-7"><path class="cls-4" d="M627.85,583.11s29.82,7,41.89-.66c9.23-5.88,11.4-32.79-4.73-36.82-10.14-2.53-33.58,5.69-33.58,5.69Z"/></g><path class="cls-5" d="M617.94,566.09s22.37,5.27,31.42-.49c6.92-4.41,8.55-24.59-3.54-27.61-7.6-1.9-25.18,4.27-25.18,4.27Z"/><path id="_Clipping_Path_15" data-name="&lt;Clipping Path&gt;" class="cls-1" d="M590.24,566.54s31.41,13.14,46,6.91c11.18-4.76,18.47-33.87,1.52-41.22-10.65-4.62-37.84.12-37.84.12Z"/><g class="cls-8"><path class="cls-4" d="M590.24,583.52s31.41,13.14,46,6.91c11.18-4.76,18.47-33.87,1.52-41.22-10.65-4.62-37.84.12-37.84.12Z"/></g><path class="cls-5" d="M582.49,560.43s23.56,9.85,34.53,5.18c8.39-3.57,13.85-25.4,1.14-30.91-8-3.47-28.38.09-28.38.09Z"/><path id="_Clipping_Path_16" data-name="&lt;Clipping Path&gt;" class="cls-1" d="M552.34,555.45S584.92,574.67,602,570c13-3.54,25.47-34.47,7.94-45.14-11-6.7-41.67-5.61-41.67-5.61Z"/><g class="cls-9"><path class="cls-4" d="M548.09,574.55s32.58,19.23,49.62,14.59c13-3.54,25.47-34.47,7.94-45.14-11-6.7-41.67-5.61-41.67-5.61Z"/></g><path class="cls-5" d="M544.74,547.55S569.17,562,582,558.49c9.77-2.66,19.1-25.86,6-33.85-8.27-5-31.25-4.21-31.25-4.21Z"/><path id="_Clipping_Path_17" data-name="&lt;Clipping Path&gt;" class="cls-1" d="M518.73,529.12s23.31,29.79,40.87,31.7c13.43,1.46,36.29-22.8,23.86-39.13-7.82-10.26-36.75-20.43-36.75-20.43Z"/><g class="cls-10"><path class="cls-4" d="M514.48,550.35s23.31,29.79,40.87,31.7c13.43,1.46,36.29-22.8,23.86-39.13-7.82-10.26-36.75-20.43-36.75-20.43Z"/></g><path class="cls-5" d="M514.53,519s17.48,22.34,30.66,23.77c10.07,1.09,27.22-17.1,17.9-29.35-5.86-7.7-27.56-15.32-27.56-15.32Z"/><path id="_Clipping_Path_18" data-name="&lt;Clipping Path&gt;" class="cls-1" d="M493.25,507.89s23.31,29.79,40.87,31.7c13.43,1.46,36.29-22.8,23.86-39.13C550.17,490.2,521.24,480,521.24,480Z"/><g class="cls-11"><path class="cls-4" d="M489,529.12s23.31,29.79,40.87,31.7c13.43,1.46,36.29-22.8,23.86-39.13C545.93,511.42,517,501.26,517,501.26Z"/></g><ellipse class="cls-4" cx="468.44" cy="499.66" rx="70.66" ry="51.24" transform="translate(-141.2 187.53) rotate(-19.73)"/><ellipse class="cls-5" cx="486.8" cy="509.56" rx="37.82" ry="27.42" transform="translate(-143.47 194.31) rotate(-19.73)"/><path id="_Clipping_Path_19" data-name="&lt;Clipping Path&gt;" class="cls-1" d="M320.12,525.56l97-28.6a7.5,7.5,0,0,0,4.3-3.31l6.76-11.18a7.5,7.5,0,0,1,8.57-3.31l4.14,1.24a7.5,7.5,0,0,1,5.24,8.45l-.75,4.37a7.5,7.5,0,0,0,2.65,7.08l1.73,1.41a7.5,7.5,0,0,1,.41,11.26L445,517.78a7.5,7.5,0,0,1-7.94,1.51l-9.56-3.84a7.5,7.5,0,0,0-4.8-.27l-83.5,23a7.87,7.87,0,0,0-5.9,7.23v1.4a7.16,7.16,0,0,1-5.39,7.3l-6.4,1.54a7.4,7.4,0,0,1-9-6.31l-.28-1.78c-.4-3-2.47-5.54-5.38-5.54h0c-4.83,0-7-7.61-4.4-11.87l1.37-2.58a7.55,7.55,0,0,1,10.09-2.75l.39.13A7.47,7.47,0,0,0,320.12,525.56Z"/><g class="cls-12"><path class="cls-4" d="M320.12,534.06l97-28.6a7.5,7.5,0,0,0,4.3-3.31L428.13,491a7.5,7.5,0,0,1,8.57-3.31l4.14,1.24a7.5,7.5,0,0,1,5.24,8.45l-.75,4.37A7.5,7.5,0,0,0,448,508.8l1.73,1.41a7.5,7.5,0,0,1,.41,11.26L445,526.27a7.5,7.5,0,0,1-7.94,1.51l-9.56-3.84a7.5,7.5,0,0,0-4.8-.27l-83.5,23a7.87,7.87,0,0,0-5.9,7.23v1.4a7.16,7.16,0,0,1-5.39,7.3l-6.4,1.54a7.4,7.4,0,0,1-9-6.31l-.28-2.39c-.4-3-2.47-6.15-5.38-6.15h0c-4.83,0-7-7-4.4-11.26l1.37-2.27a7.5,7.5,0,0,1,10.09-2.6l.39.21A7.49,7.49,0,0,0,320.12,534.06Z"/></g><path id="_Clipping_Path_20" data-name="&lt;Clipping Path&gt;" class="cls-1" d="M388,569.84l83.55-56.9a7.5,7.5,0,0,0,3.08-4.47l3-12.71a7.5,7.5,0,0,1,7.14-5.77l4.32-.09a7.5,7.5,0,0,1,7.57,6.44l.62,4.39a7.5,7.5,0,0,0,4.69,5.93l2.08.81a7.5,7.5,0,0,1,3.84,10.59l-3.37,6.14a7.5,7.5,0,0,1-7.1,3.87l-10.27-.73a7.5,7.5,0,0,0-4.65,1.21L410.44,575.9a7.5,7.5,0,0,0-3,8.56l.43,1.33a7.5,7.5,0,0,1-3.28,8.72L398.76,598a7.5,7.5,0,0,1-10.63-3.21l-1.07-2.26a7.5,7.5,0,0,0-7.1-4.27h0a7.5,7.5,0,0,1-7.6-9.29l.63-2.54a7.5,7.5,0,0,1,8.82-5.54l.44.09A7.5,7.5,0,0,0,388,569.84Z"/><g class="cls-13"><path id="_Path_" data-name="&lt;Path&gt;" class="cls-4" d="M504.53,534.82a7.5,7.5,0,0,1-7.1,3.87L487.16,538a7.5,7.5,0,0,0-4.65,1.21l-72.06,47.35a7.5,7.5,0,0,0-3,8.56l.43,1.33a7.5,7.5,0,0,1-3.28,8.72l-5.81,3.49a7.5,7.5,0,0,1-10.63-3.21l-1.07-2.26a7.5,7.5,0,0,0-7.1-4.27h0a7.5,7.5,0,0,1-7.6-9.29L373,587a7.5,7.5,0,0,1,8.82-5.54l.44.09a7.5,7.5,0,0,0,5.76-1.14l56.84-40.8-28.38-4,76.79-58.25s36.25,48.43,35.45,48.17S504.53,534.82,504.53,534.82Z"/></g><path class="cls-14" d="M294.16,405.55a5.34,5.34,0,0,0,7.39-.33,15.42,15.42,0,0,0-.52-22.14l0,0a5.34,5.34,0,0,0-7.39.32,5,5,0,0,0,.18,7.24,5.37,5.37,0,0,1,.16,7.7,5,5,0,0,0,.19,7.22Z"/><path class="cls-15" d="M308,438.54a38.24,38.24,0,0,0,27.62,9.71,39.89,39.89,0,0,0,27.1-12.35l7-7.32a15.07,15.07,0,0,0-.57-21.69l-.05,0a16,16,0,0,0-22.18,1l-7,7.32a7.75,7.75,0,0,1-5.23,2.4,7.15,7.15,0,0,1-5.15-1.8l0,0-14.77-13.4,0,0a16,16,0,0,0-22.18,1,15.07,15.07,0,0,0,.58,21.68l14.76,13.4Z"/><path class="cls-14" d="M280.26,412.71a14.34,14.34,0,0,0,19.87-.91,13.51,13.51,0,0,0-.51-19.43L288.1,381.91l0,0a14.35,14.35,0,0,0-19.87.91,13.51,13.51,0,0,0,.51,19.43l11.52,10.44Z"/><path class="cls-1" d="M287.29,423.36a6.39,6.39,0,0,0,8.84-.41L312.9,405.4a6,6,0,0,0-.24-8.63h0a6.38,6.38,0,0,0-8.83.4l-16.77,17.55a6,6,0,0,0,.22,8.64Z"/><path class="cls-16" d="M385.38,346c18.77,10.08,32.93,31.57,4.2,44.94C364.35,402.71,349,375.34,349,375.34c-2,20.49-10.67,135.35,56.2,150.21,73.63,16.36,131-38.83,126.31-71.64C513.47,326.75,385.38,346,385.38,346Z"/><ellipse class="cls-14" cx="386.25" cy="385.33" rx="48.57" ry="35.22" transform="translate(-157.68 427.87) rotate(-49.4)"/><path class="cls-4" d="M334,367.79s23.31,29.79,40.87,31.7c13.43,1.46,36.29-22.8,23.86-39.13C391,350.09,362,339.92,362,339.92Z"/><path class="cls-5" d="M329.85,357.66S347.33,380,360.5,381.43c10.07,1.09,27.22-17.1,17.9-29.35-5.86-7.7-27.56-15.32-27.56-15.32Z"/><path class="cls-4" d="M308.57,346.56s23.31,29.79,40.87,31.7c13.43,1.46,36.29-22.8,23.86-39.13-7.82-10.26-36.75-20.43-36.75-20.43Z"/><path class="cls-5" d="M342.59,303.48s10.92,37.43.14,48.06-59.85-.66-59.85-.66Z"/><path class="cls-5" d="M262.26,280.27c-47.78,6.88-139.48,34.44-134.49,52.92,3.56,13.18,177.49,9.09,177.49,9.09l34.32-78.19S310,273.39,262.26,280.27Z"/><path id="_Clipping_Path_21" data-name="&lt;Clipping Path&gt;" class="cls-1" d="M367.88,263.93l-82.35,31.39a239.45,239.45,0,0,1-71.74,15.32l-71.58,4.05a6.37,6.37,0,0,1-6.58-7.74L145,264.81a36.86,36.86,0,0,1,25.53-27.35l21-2.84c27.82-2.8,45.61-26.22,76.74-31.74s69.54,10.56,69.54,10.56Z"/><g class="cls-17"><path class="cls-4" d="M412.12,279.84l-82.35,31.39A239.44,239.44,0,0,1,258,326.54l-71.58,4.05a6.37,6.37,0,0,1-6.58-7.74l9.36-42.14a36.86,36.86,0,0,1,25.53-27.35l21-2.84c27.82-2.8,45.61-26.22,76.74-31.74s69.54,10.56,69.54,10.56Z"/></g><path class="cls-1" d="M285,347.26a6.72,6.72,0,0,0,10.89-5.46,101.38,101.38,0,0,0-3.09-22.28,128.82,128.82,0,0,0-5.25-15.75,5.38,5.38,0,0,0-10,.2,70.21,70.21,0,0,0-3.83,16.25c-.8,7.49-1.09,15.88-1.18,22.45a6.72,6.72,0,0,0,10,6l2.51-1.4Z"/><path class="cls-1" d="M269.11,347.26A6.72,6.72,0,0,0,280,341.8a101.38,101.38,0,0,0-3.09-22.28,128.82,128.82,0,0,0-5.25-15.75,5.38,5.38,0,0,0-10,.2,70.2,70.2,0,0,0-3.83,16.25c-.8,7.49-1.09,15.88-1.18,22.45a6.72,6.72,0,0,0,10,6l2.51-1.4Z"/><path class="cls-1" d="M252.48,342.31a6.72,6.72,0,0,0,10.89-5.46,101.38,101.38,0,0,0-3.09-22.28A128.82,128.82,0,0,0,255,298.82a5.38,5.38,0,0,0-10,.2,70.21,70.21,0,0,0-3.83,16.25c-.8,7.49-1.09,15.88-1.18,22.45a6.72,6.72,0,0,0,10,6l2.51-1.4Z"/><path class="cls-1" d="M151,334.95a128.86,128.86,0,0,0-5.25-15.75,5.38,5.38,0,0,0-10,.2,70.2,70.2,0,0,0-3.83,16.25C131,343.14,153.07,342.82,151,334.95Z"/><path class="cls-1" d="M165.82,334.95a128.86,128.86,0,0,0-5.25-15.75,5.38,5.38,0,0,0-10,.2,70.2,70.2,0,0,0-3.83,16.25C145.91,343.14,167.93,342.82,165.82,334.95Z"/><path class="cls-1" d="M182.81,334.95a128.86,128.86,0,0,0-5.25-15.75,5.38,5.38,0,0,0-10,.2,70.2,70.2,0,0,0-3.83,16.25C162.89,343.14,184.91,342.82,182.81,334.95Z"/><path id="_Clipping_Path_22" data-name="&lt;Clipping Path&gt;" class="cls-1" d="M374.31,251.35l-27,83.53a31.39,31.39,0,0,1-28.1,21.7l-165.51,9.36a20.35,20.35,0,0,1-20.69-14.62l-5.28-18.11a6.37,6.37,0,0,1,6.54-8.14s166.7,25,184.35-61.12"/><g class="cls-18"><path class="cls-4" d="M395.54,242.85l-27,104.75a31.39,31.39,0,0,1-28.1,21.7L175,378.66A20.35,20.35,0,0,1,154.28,364L149,345.93a6.37,6.37,0,0,1,6.54-8.14s143.35,12.27,161-73.86"/></g><path class="cls-5" d="M157.52,300a6.72,6.72,0,0,1-10.31-6.48,101.39,101.39,0,0,1,5.2-21.88,128.82,128.82,0,0,1,6.73-15.17,5.38,5.38,0,0,1,10,1.15,70.23,70.23,0,0,1,2.27,16.55c.08,7.53-.43,15.91-1,22.46a6.72,6.72,0,0,1-10.52,5L157.52,300Z"/><path class="cls-4" d="M195.16,279.92c-4.48-3.53-9.9,19.87-7.8,27.74a128.82,128.82,0,0,0,5.25,15.75,5.38,5.38,0,0,0,10-.2A70.21,70.21,0,0,0,206.48,307c.8-7.49,1.09-15.88,1.18-22.45a6.72,6.72,0,0,0-10-6l-2.51,1.4Z"/><path class="cls-4" d="M211.08,279.92a6.72,6.72,0,0,0-10.89,5.46,101.38,101.38,0,0,0,3.09,22.28,128.82,128.82,0,0,0,5.25,15.75,5.38,5.38,0,0,0,10-.2A70.2,70.2,0,0,0,222.4,307c.8-7.49,1.09-15.88,1.18-22.45a6.72,6.72,0,0,0-10-6l-2.51,1.4Z"/><path class="cls-4" d="M227.71,276.38a6.72,6.72,0,0,0-10.89,5.46,101.38,101.38,0,0,0,3.09,22.28,128.82,128.82,0,0,0,5.25,15.75,5.38,5.38,0,0,0,10-.2A70.21,70.21,0,0,0,239,303.42c.8-7.49,1.09-15.88,1.18-22.45a6.72,6.72,0,0,0-10-6l-2.51,1.4Z"/><circle class="cls-5" cx="276.25" cy="239.67" r="11.67"/><path class="cls-16" d="M262.35,182.25S431,102,446.67,265.82c0,0-79.42-69.78-70.2-29.16Z"/><rect class="cls-1" x="305.06" y="148.87" width="32.28" height="142.51" rx="8.42" ry="8.42" transform="translate(-23.31 401.61) rotate(-62.2)"/><path class="cls-1" d="M457.08,272.63a13.55,13.55,0,1,1-5.66-18.31A13.55,13.55,0,0,1,457.08,272.63Z"/><g class="cls-2"><path class="cls-19" d="M357.1,476.66h0a8,8,0,0,0,7.93-7.17l1.17-10.72c1-8.58,8.65-14.8,17.09-14.8h.07c8.47,3.63,14.52,9,13.52,17.55l-1.18,10.35a40.22,40.22,0,0,1-14.2,26.33,93.25,93.25,0,0,1-9.67,6.31C360.47,490,357.1,476.66,357.1,476.66Z"/></g><path class="cls-14" d="M318.45,485c2.82.25,5.37-.45,5.7-3.3,1-8.78-5.15-15.94-13.75-15.94h0c-2.81,0-5.37.43-5.71,3.29s1.69,4.69,4.51,5a5,5,0,0,1,4.77,5.69,4.84,4.84,0,0,0,4.5,5.47A1,1,0,0,0,318.45,485Z"/><path class="cls-16" d="M349.39,503a38.24,38.24,0,0,0,27.9-8.89,39.89,39.89,0,0,0,14.2-26.18l1.18-10.05a15.07,15.07,0,0,0-13.52-17h-.07A16,16,0,0,0,362,455l-1.17,10.06a9.64,9.64,0,0,1-2.73,5.67,8.15,8.15,0,0,1-5.2,2.26h0L333,470.63s0-.3-.06-.3a15.91,15.91,0,0,0-17.09,14,15,15,0,0,0,13.53,16.88L349.22,503C349.27,503,349.34,503,349.39,503Z"/><path class="cls-16" d="M331.79,478.45s0,0,.06,0l19.86,1.82h0a8.27,8.27,0,0,0,5.2-1.68,7.77,7.77,0,0,0,2.73-5.08l.8-6.89a10.62,10.62,0,0,1-2.39,4.14,8.15,8.15,0,0,1-5.2,2.26h0L333,470.63s0-.3-.06-.3a15.91,15.91,0,0,0-17.09,14,15.15,15.15,0,0,0,0,3.86A16,16,0,0,1,331.79,478.45Z"/><path class="cls-14" d="M311.66,499.09A14.34,14.34,0,0,0,327,486.4a13.51,13.51,0,0,0-12.11-15.2l-15.49-1.41h-.06A14.35,14.35,0,0,0,284,482.48a13.51,13.51,0,0,0,12.12,15.2l15.48,1.4Z"/><path class="cls-1" d="M323.69,503.36a6.39,6.39,0,0,0,6.81-5.65l2.82-24.66c.4-3.42-2-7.29-5.39-7.29h0a7.08,7.08,0,0,0-6.81,6.18l-2.82,24.38a6.13,6.13,0,0,0,5.38,6.9S323.68,503.36,323.69,503.36Z"/><path class="cls-4" d="M389.82,594.54l42.46,82.41s-37.77-.51-35.79,14h67.63L407.64,586Z"/><path class="cls-4" d="M431.28,682s-31.13,4.11-27.11,18.55l60-9.62"/><path class="cls-4" d="M313.4,552.08l42.46,81.84s-37.77,2.56-35.79,13.45H387.7L331.21,543Z"/><path class="cls-4" d="M357,639.58s-31.13,4.11-27.11,18.55l57.83-10.76"/></svg>