<svg xmlns="http://www.w3.org/2000/svg" viewBox="0 0 200 385"><defs><style>.cls-1{fill:#bdbdbd;}.cls-2{fill:#fff;}.cls-3{opacity:0.08;}.cls-4{fill:#40d39b;}.cls-5{fill:#53bca6;}.cls-6{fill:#6ae5b9;}.cls-7{fill:#8efcdc;}.cls-8{opacity:0.04;}.cls-9{fill:#f2faff;}.cls-10{fill:#37414d;}.cls-11{fill:#ecf3f8;}.cls-12{fill:none;}</style></defs><title>silly_pen_icing</title><g id="Layer_2" data-name="Layer 2"><g id="ART"><polygon class="cls-1" points="109.57 360.41 119.87 317.68 100.29 317.68 80.71 317.68 91.01 360.41 109.57 360.41"/><polygon class="cls-2" points="97.36 330.08 101.81 364.52 102.69 364.52 107.8 330.01 97.36 330.08"/><g class="cls-3"><polygon points="100.29 340.14 114.46 340.14 119.87 317.68 100.29 317.68 80.71 317.68 86.12 340.14 100.29 340.14"/></g><path class="cls-4" d="M154.8,97.69s-6-12.76-18.42-19.91-26.45-6-26.45-6a3.66,3.66,0,0,0-3.44,2.93l-12.07,60a3.5,3.5,0,0,0,1.34,3.62l0,0,7.87,4.54h0a3.53,3.53,0,0,0,4.45-.29L154,102.13A3.66,3.66,0,0,0,154.8,97.69Z"/><path class="cls-5" d="M90.07,71.92s-14.06-1.16-26.45,6S45.2,97.82,45.2,97.82a3.66,3.66,0,0,0,.82,4.44l45.91,40.45a3.51,3.51,0,0,0,3.8.65v0l7.87-4.54h0a3.52,3.52,0,0,0,2-4l-12.07-60A3.66,3.66,0,0,0,90.07,71.92Z"/><path class="cls-6" d="M139.41,68.44S121.76,56.22,100,56.22,60.59,68.44,60.59,68.44a5.57,5.57,0,0,0-2.29,6.48L88,163.11a5.32,5.32,0,0,0,4.51,3.75v0h13.82a5.38,5.38,0,0,0,5.65-3.78L141.7,74.92A5.57,5.57,0,0,0,139.41,68.44Z"/><path class="cls-7" d="M106.35,142l10.57-83.42A66.19,66.19,0,0,0,100,56.22c-21.76,0-39.41,12.22-39.41,12.22a5.57,5.57,0,0,0-2.29,6.48L82,145.17l.87,1.51A5.33,5.33,0,0,0,88,149.46v0l13.55-2.73v0A5.39,5.39,0,0,0,106.35,142Z"/><path class="cls-4" d="M104.08,155v-.05c-1.88-.46-7.54-1.87-8-4.27L81.34,59.48c0-.15,0-.3,0-.45a78.88,78.88,0,0,0-20.7,9.41,5.57,5.57,0,0,0-2.29,6.48L88,163.11a5.32,5.32,0,0,0,4.51,3.75v0h13.82a5.38,5.38,0,0,0,5.65-3.78l2.33-6.89Z"/><path class="cls-4" d="M151.66,162l-40.6-28.85a10.09,10.09,0,0,0-5.41-1.57H94.35a10.09,10.09,0,0,0-5.41,1.57L48.34,162a10.1,10.1,0,0,0-4.18,11.78l34,150.42A9.71,9.71,0,0,0,86.4,331v.08h25.14v0a9.77,9.77,0,0,0,10.28-6.86l34-150.42A10.1,10.1,0,0,0,151.66,162Z"/><path class="cls-6" d="M89.43,175.69A13.59,13.59,0,1,1,65.9,162.1c2.31-4,14.75-15.22,23.95-23.24a4.72,4.72,0,0,1,7.73,4.46C95.24,155.3,91.75,171.68,89.43,175.69Z"/><g class="cls-8"><path d="M90.27,313.7S75,208.88,75,186.88c0-30.66,30.61-53.76,30.61-53.76a10.3,10.3,0,0,1,2.72-1.2,10.08,10.08,0,0,0-2.68-.37H94.35a10.09,10.09,0,0,0-5.41,1.57L48.34,162a10.1,10.1,0,0,0-4.18,11.78l34,150.42A9.7,9.7,0,0,0,86.4,331v.08h16.66V331C99.57,330.56,91.69,317.92,90.27,313.7Z"/></g><rect class="cls-9" x="71.93" y="313.7" width="56.14" height="21.6" rx="2.62" ry="2.62"/><rect class="cls-9" x="71.93" y="313.7" width="56.14" height="21.6" rx="2.62" ry="2.62"/><path class="cls-2" d="M76.61,331.71a.93.93,0,0,1-.93-.93v-13.1a.94.94,0,1,1,1.87,0v13.1A.94.94,0,0,1,76.61,331.71Z"/><path class="cls-2" d="M84.41,331.71a.94.94,0,0,1-.94-.93v-13.1a.94.94,0,1,1,1.87,0v13.1A.93.93,0,0,1,84.41,331.71Z"/><path class="cls-2" d="M92.2,331.71a.93.93,0,0,1-.93-.93v-13.1a.94.94,0,1,1,1.87,0v13.1A.94.94,0,0,1,92.2,331.71Z"/><path class="cls-2" d="M100,331.71a.94.94,0,0,1-.94-.93v-13.1a.94.94,0,0,1,1.88,0v13.1A.94.94,0,0,1,100,331.71Z"/><path class="cls-2" d="M107.8,331.71a.94.94,0,0,1-.94-.93v-13.1a.94.94,0,1,1,1.87,0v13.1A.93.93,0,0,1,107.8,331.71Z"/><path class="cls-2" d="M115.59,331.71a.93.93,0,0,1-.93-.93v-13.1a.94.94,0,1,1,1.87,0v13.1A.94.94,0,0,1,115.59,331.71Z"/><path class="cls-2" d="M123.39,331.71a.94.94,0,0,1-.94-.93v-13.1a.94.94,0,1,1,1.87,0v13.1A.93.93,0,0,1,123.39,331.71Z"/><path class="cls-6" d="M110.57,175.69A13.59,13.59,0,0,0,134.1,162.1c-2.31-4-14.75-15.22-23.95-23.24a4.72,4.72,0,0,0-7.73,4.46C104.76,155.3,108.25,171.68,110.57,175.69Z"/><line class="cls-9" x1="80.42" y1="136.21" x2="119.58" y2="136.21"/><path class="cls-9" d="M119.58,141.21H80.68a5.17,5.17,0,0,1-5.24-4.55,5,5,0,0,1,5-5.45h38.9a5.18,5.18,0,0,1,5.24,4.56A5,5,0,0,1,119.58,141.21Z"/><g class="cls-8"><path d="M87.66,332.69V316.31a2.61,2.61,0,0,1,2.61-2.61H74.55a2.61,2.61,0,0,0-2.62,2.61v16.38a2.61,2.61,0,0,0,2.62,2.61H90.27A2.61,2.61,0,0,1,87.66,332.69Z"/></g><rect class="cls-10" x="97.79" y="364.04" width="4.99" height="10.77" rx="2.4" ry="2.4"/><path class="cls-11" d="M100.29,369.42a9.25,9.25,0,0,0,9.25-9.25H91A9.25,9.25,0,0,0,100.29,369.42Z"/><g class="cls-8"><path d="M109.15,362.84a9.42,9.42,0,0,0,.39-2.67H91a9.42,9.42,0,0,0,.39,2.67Z"/></g><rect class="cls-12" width="200" height="385"/></g></g></svg>