<?xml version="1.0" encoding="iso-8859-1"?>
<!-- Generator: Adobe Illustrator 19.1.0, SVG Export Plug-In . SVG Version: 6.00 Build 0)  -->
<svg version="1.1" id="Concert_Stage" xmlns="http://www.w3.org/2000/svg" xmlns:xlink="http://www.w3.org/1999/xlink" x="0px"
	 y="0px" width="1600px" height="900px" viewBox="0 0 1600 900" style="enable-background:new 0 0 1600 900;" xml:space="preserve">
<g>
	<rect x="0" y="0" style="fill:#000034;" width="1600" height="900"/>
</g>
<g>
	<g>
		<rect x="313.93" style="fill:#1664A7;" width="311.441" height="417.938"/>
	</g>
	<g style="opacity:0.25;">
		<g>
			<g>
				<g>
					<g>
						<path style="fill:#063F80;" d="M497.506,304.663c-1.104,0-2-0.896-2-2V154.075c0-1.104,0.896-2,2-2s2,0.896,2,2v148.588
							C499.506,303.768,498.61,304.663,497.506,304.663z"/>
					</g>
					<g>
						<path style="fill:#063F80;" d="M433.167,267.516c-0.691,0-1.363-0.359-1.734-1c-0.552-0.957-0.225-2.18,0.732-2.732
							l128.681-74.294c0.956-0.554,2.18-0.224,2.732,0.732c0.552,0.957,0.225,2.18-0.732,2.732l-128.681,74.294
							C433.85,267.43,433.506,267.516,433.167,267.516z"/>
					</g>
					<g>
						<path style="fill:#063F80;" d="M561.843,267.516c-0.339,0-0.683-0.086-0.998-0.269l-128.681-74.294
							c-0.957-0.552-1.284-1.775-0.732-2.732c0.553-0.956,1.771-1.286,2.732-0.732l128.681,74.294
							c0.957,0.552,1.284,1.775,0.732,2.732C563.207,267.157,562.535,267.516,561.843,267.516z"/>
					</g>
					<g>
						<path style="fill:#063F80;" d="M497.505,195.804c-0.346,0-0.69-0.089-1-0.268l-16.202-9.354
							c-0.957-0.552-1.284-1.775-0.732-2.732c0.553-0.957,1.771-1.287,2.732-0.732l15.202,8.776l15.201-8.776
							c0.955-0.555,2.179-0.225,2.732,0.732c0.552,0.957,0.225,2.18-0.732,2.732l-16.201,9.354
							C498.195,195.714,497.85,195.804,497.505,195.804z"/>
					</g>
					<g>
						<path style="fill:#063F80;" d="M497.505,177.991c-0.346,0-0.69-0.089-1-0.268l-24.645-14.228
							c-0.957-0.552-1.284-1.775-0.732-2.732s1.773-1.287,2.732-0.732l23.645,13.65l23.644-13.65
							c0.955-0.555,2.18-0.225,2.732,0.732c0.552,0.957,0.225,2.18-0.732,2.732l-24.644,14.228
							C498.195,177.902,497.85,177.991,497.505,177.991z"/>
					</g>
					<g>
						<path style="fill:#063F80;" d="M513.704,274.289c-0.339,0-0.683-0.086-0.998-0.269l-15.202-8.777l-15.201,8.777
							c-0.958,0.553-2.18,0.224-2.732-0.732c-0.552-0.957-0.225-2.18,0.732-2.732l16.201-9.354c0.619-0.357,1.381-0.357,2,0
							l16.202,9.354c0.957,0.552,1.284,1.775,0.732,2.732C515.067,273.93,514.395,274.289,513.704,274.289z"/>
					</g>
					<g>
						<path style="fill:#063F80;" d="M522.146,296.975c-0.339,0-0.683-0.086-0.998-0.269l-23.645-13.651l-23.644,13.651
							c-0.956,0.553-2.181,0.224-2.732-0.732c-0.552-0.957-0.225-2.18,0.732-2.732l24.644-14.229c0.619-0.357,1.381-0.357,2,0
							l24.645,14.229c0.957,0.552,1.284,1.775,0.732,2.732C523.509,296.616,522.838,296.975,522.146,296.975z"/>
					</g>
					<g>
						<path style="fill:#063F80;" d="M543.638,222.441c-0.339,0-0.683-0.086-0.998-0.269l-16.202-9.354
							c-0.619-0.357-1-1.018-1-1.732v-18.708c0-1.104,0.896-2,2-2s2,0.896,2,2v17.554l15.202,8.777
							c0.957,0.552,1.284,1.775,0.732,2.732C545.002,222.082,544.33,222.441,543.638,222.441z"/>
					</g>
					<g>
						<path style="fill:#063F80;" d="M567.507,218.409c-0.339,0-0.683-0.086-0.998-0.269l-24.644-14.228
							c-0.619-0.357-1-1.018-1-1.732l-0.001-28.457c0-1.104,0.896-2,2-2s2,0.896,2,2l0.001,27.302l23.644,13.65
							c0.957,0.552,1.284,1.775,0.732,2.732C568.87,218.05,568.198,218.409,567.507,218.409z"/>
					</g>
					<g>
						<path style="fill:#063F80;" d="M467.57,266.359c-1.104,0-2-0.896-2-2v-17.554l-15.202-8.777
							c-0.957-0.552-1.284-1.775-0.732-2.732c0.553-0.957,1.772-1.286,2.732-0.732l16.202,9.354c0.619,0.357,1,1.018,1,1.732v18.709
							C469.57,265.464,468.674,266.359,467.57,266.359z"/>
					</g>
					<g>
						<path style="fill:#063F80;" d="M452.144,285.014c-1.104,0-2-0.896-2-2l-0.001-27.302L426.5,242.061
							c-0.957-0.552-1.284-1.775-0.732-2.732c0.553-0.957,1.771-1.286,2.732-0.732l24.644,14.228c0.619,0.357,1,1.018,1,1.732
							l0.001,28.457C454.144,284.119,453.249,285.014,452.144,285.014z"/>
					</g>
					<g>
						<path style="fill:#063F80;" d="M527.438,266.359c-1.104,0-2-0.896-2-2v-18.708c0-0.714,0.381-1.375,1-1.732l16.202-9.354
							c0.954-0.554,2.179-0.225,2.732,0.732c0.552,0.957,0.225,2.18-0.732,2.732l-15.202,8.777v17.553
							C529.438,265.464,528.543,266.359,527.438,266.359z"/>
					</g>
					<g>
						<path style="fill:#063F80;" d="M542.864,285.014c-1.104,0-2-0.896-2-2v-28.456c0-0.714,0.381-1.375,1-1.732l24.645-14.229
							c0.955-0.554,2.179-0.225,2.732,0.732c0.552,0.957,0.225,2.18-0.732,2.732l-23.645,13.652v27.301
							C544.864,284.119,543.968,285.014,542.864,285.014z"/>
					</g>
					<g>
						<path style="fill:#063F80;" d="M451.37,222.441c-0.691,0-1.363-0.359-1.734-1c-0.552-0.957-0.225-2.18,0.732-2.732
							l15.202-8.777v-17.553c0-1.104,0.896-2,2-2s2,0.896,2,2v18.708c0,0.714-0.381,1.375-1,1.732l-16.202,9.354
							C452.053,222.355,451.709,222.441,451.37,222.441z"/>
					</g>
					<g>
						<path style="fill:#063F80;" d="M427.502,218.409c-0.691,0-1.363-0.359-1.734-1c-0.552-0.957-0.225-2.18,0.732-2.732
							l23.645-13.652v-27.301c0-1.104,0.896-2,2-2s2,0.896,2,2v28.456c0,0.714-0.381,1.375-1,1.732L428.5,218.14
							C428.185,218.322,427.84,218.409,427.502,218.409z"/>
					</g>
				</g>
			</g>
			<g>
				<g>
					<path style="fill:#063F80;" d="M411.781,159.778c-1.104,0-2-0.896-2-2V78.675c0-1.104,0.896-2,2-2s2,0.896,2,2v79.104
						C413.781,158.883,412.885,159.778,411.781,159.778z"/>
				</g>
				<g>
					<path style="fill:#063F80;" d="M377.531,140.003c-0.691,0-1.363-0.359-1.734-1c-0.552-0.957-0.225-2.18,0.732-2.732
						l68.506-39.552c0.956-0.554,2.179-0.225,2.732,0.732c0.552,0.957,0.225,2.18-0.732,2.732l-68.506,39.552
						C378.215,139.917,377.87,140.003,377.531,140.003z"/>
				</g>
				<g>
					<path style="fill:#063F80;" d="M446.033,140.003c-0.339,0-0.683-0.086-0.998-0.269l-68.506-39.552
						c-0.957-0.552-1.284-1.775-0.732-2.732c0.553-0.957,1.772-1.286,2.732-0.732l68.506,39.552
						c0.957,0.552,1.284,1.775,0.732,2.732C447.396,139.644,446.724,140.003,446.033,140.003z"/>
				</g>
				<g>
					<path style="fill:#063F80;" d="M411.782,95.38c-0.346,0-0.69-0.089-1-0.268l-13.12-7.574c-0.956-0.552-1.284-1.775-0.732-2.732
						c0.553-0.957,1.772-1.286,2.732-0.732l12.12,6.997l12.119-6.997c0.958-0.554,2.179-0.225,2.732,0.732
						c0.552,0.957,0.225,2.18-0.732,2.732l-13.119,7.574C412.472,95.291,412.128,95.38,411.782,95.38z"/>
				</g>
				<g>
					<path style="fill:#063F80;" d="M424.899,152.648c-0.339,0-0.683-0.086-0.998-0.269l-12.12-6.997l-12.119,6.997
						c-0.957,0.553-2.18,0.224-2.732-0.732c-0.552-0.957-0.225-2.18,0.732-2.732l13.119-7.575c0.619-0.357,1.381-0.357,2,0
						l13.12,7.575c0.957,0.552,1.284,1.775,0.732,2.732C426.262,152.289,425.59,152.648,424.899,152.648z"/>
				</g>
				<g>
					<path style="fill:#063F80;" d="M446.417,115.379c-0.339,0-0.683-0.086-0.998-0.269l-13.119-7.574c-0.619-0.357-1-1.017-1-1.732
						l-0.001-15.15c0-1.104,0.896-2,2-2s2,0.896,2,2l0.001,13.995l12.119,6.997c0.957,0.552,1.284,1.775,0.732,2.732
						C447.78,115.02,447.108,115.379,446.417,115.379z"/>
				</g>
				<g>
					<path style="fill:#063F80;" d="M390.263,147.799c-1.104,0-2-0.896-2-2v-13.995l-12.119-6.997
						c-0.957-0.552-1.284-1.775-0.732-2.732c0.553-0.956,1.773-1.286,2.732-0.732l13.119,7.574c0.619,0.357,1,1.018,1,1.732v15.149
						C392.263,146.903,391.368,147.799,390.263,147.799z"/>
				</g>
				<g>
					<path style="fill:#063F80;" d="M433.298,147.799c-1.104,0-2-0.896-2-2V130.65c0-0.714,0.381-1.375,1-1.732l13.12-7.575
						c0.958-0.554,2.18-0.224,2.732,0.732c0.552,0.957,0.225,2.18-0.732,2.732l-12.12,6.998v13.994
						C435.298,146.903,434.403,147.799,433.298,147.799z"/>
				</g>
				<g>
					<path style="fill:#063F80;" d="M377.146,115.379c-0.691,0-1.363-0.359-1.734-1c-0.552-0.957-0.225-2.18,0.732-2.732
						l12.119-6.998V90.654c0-1.104,0.896-2,2-2s2,0.896,2,2v15.149c0,0.714-0.381,1.375-1,1.732l-13.119,7.575
						C377.83,115.292,377.485,115.379,377.146,115.379z"/>
				</g>
			</g>
			<g>
				<g>
					<path style="fill:#063F80;" d="M530.035,399.84c-1.104,0-2-0.896-2-2v-79.104c0-1.104,0.896-2,2-2s2,0.896,2,2v79.104
						C532.035,398.944,531.139,399.84,530.035,399.84z"/>
				</g>
				<g>
					<path style="fill:#063F80;" d="M564.288,380.065c-0.339,0-0.683-0.086-0.998-0.269l-68.506-39.552
						c-0.957-0.552-1.284-1.775-0.732-2.732c0.553-0.957,1.772-1.286,2.732-0.732l68.506,39.552
						c0.957,0.552,1.284,1.775,0.732,2.732C565.651,379.706,564.979,380.065,564.288,380.065z"/>
				</g>
				<g>
					<path style="fill:#063F80;" d="M495.786,380.065c-0.691,0-1.363-0.359-1.734-1c-0.552-0.957-0.225-2.18,0.732-2.732
						l68.506-39.552c0.955-0.554,2.179-0.225,2.732,0.732c0.552,0.957,0.225,2.18-0.732,2.732l-68.506,39.552
						C496.469,379.978,496.125,380.065,495.786,380.065z"/>
				</g>
				<g>
					<path style="fill:#063F80;" d="M516.919,392.71c-0.691,0-1.363-0.359-1.734-1c-0.552-0.957-0.225-2.18,0.732-2.732l13.12-7.575
						c0.619-0.357,1.381-0.357,2,0l13.119,7.575c0.957,0.552,1.284,1.775,0.732,2.732c-0.554,0.956-1.774,1.285-2.732,0.732
						l-12.119-6.997l-12.12,6.997C517.601,392.623,517.258,392.71,516.919,392.71z"/>
				</g>
				<g>
					<path style="fill:#063F80;" d="M530.036,335.442c-0.346,0-0.69-0.089-1-0.268l-13.119-7.575
						c-0.957-0.552-1.284-1.775-0.732-2.732c0.553-0.956,1.771-1.286,2.732-0.732l12.119,6.997l12.12-6.997
						c0.958-0.554,2.179-0.224,2.732,0.732c0.552,0.957,0.225,2.18-0.732,2.732l-13.12,7.575
						C530.726,335.352,530.382,335.442,530.036,335.442z"/>
				</g>
				<g>
					<path style="fill:#063F80;" d="M551.553,387.86c-1.104,0-2-0.896-2-2v-15.149c0-0.714,0.381-1.375,1-1.732l13.12-7.574
						c0.959-0.555,2.179-0.225,2.732,0.732c0.552,0.957,0.225,2.18-0.732,2.732l-12.12,6.997v13.995
						C553.553,386.965,552.658,387.86,551.553,387.86z"/>
				</g>
				<g>
					<path style="fill:#063F80;" d="M495.401,355.44c-0.691,0-1.363-0.359-1.734-1c-0.552-0.957-0.225-2.18,0.732-2.732
						l12.119-6.997v-13.995c0-1.104,0.896-2,2-2s2,0.896,2,2v15.15c0,0.714-0.381,1.375-1,1.732l-13.119,7.574
						C496.084,355.354,495.74,355.44,495.401,355.44z"/>
				</g>
				<g>
					<path style="fill:#063F80;" d="M564.672,355.44c-0.339,0-0.683-0.086-0.998-0.269l-13.12-7.575c-0.619-0.357-1-1.018-1-1.732
						v-15.149c0-1.104,0.896-2,2-2s2,0.896,2,2v13.994l12.12,6.998c0.957,0.552,1.284,1.775,0.732,2.732
						C566.035,355.081,565.363,355.44,564.672,355.44z"/>
				</g>
				<g>
					<path style="fill:#063F80;" d="M508.518,387.86c-1.104,0-2-0.896-2-2v-13.994l-12.119-6.998
						c-0.957-0.552-1.284-1.775-0.732-2.732c0.553-0.957,1.772-1.287,2.732-0.732l13.119,7.575c0.619,0.357,1,1.018,1,1.732v15.149
						C510.518,386.965,509.623,387.86,508.518,387.86z"/>
				</g>
			</g>
			<g>
				<g>
					<path style="fill:#063F80;" d="M558.589,111.581c-1.104,0-2-0.896-2-2v-21.91c0-1.104,0.896-2,2-2s2,0.896,2,2v21.91
						C560.589,110.685,559.693,111.581,558.589,111.581z"/>
				</g>
				<g>
					<path style="fill:#063F80;" d="M549.103,106.104c-0.691,0-1.363-0.359-1.734-1c-0.552-0.957-0.225-2.18,0.732-2.732
						l18.975-10.955c0.957-0.554,2.179-0.225,2.732,0.732c0.552,0.957,0.225,2.18-0.732,2.732l-18.975,10.955
						C549.786,106.017,549.442,106.104,549.103,106.104z"/>
				</g>
				<g>
					<path style="fill:#063F80;" d="M568.074,106.104c-0.339,0-0.683-0.086-0.998-0.269L548.101,94.88
						c-0.957-0.552-1.284-1.775-0.732-2.732c0.553-0.957,1.772-1.286,2.732-0.732l18.975,10.955
						c0.957,0.552,1.284,1.775,0.732,2.732C569.437,105.745,568.765,106.104,568.074,106.104z"/>
				</g>
			</g>
			<g>
				<g>
					<path style="fill:#063F80;" d="M389.173,241.324c-1.104,0-2-0.896-2-2v-21.91c0-1.104,0.896-2,2-2s2,0.896,2,2v21.91
						C391.173,240.428,390.278,241.324,389.173,241.324z"/>
				</g>
				<g>
					<path style="fill:#063F80;" d="M398.659,235.847c-0.339,0-0.684-0.086-0.998-0.269l-18.974-10.955
						c-0.957-0.552-1.284-1.775-0.732-2.732c0.553-0.957,1.776-1.286,2.732-0.732l18.974,10.955
						c0.957,0.552,1.284,1.775,0.732,2.732C400.022,235.488,399.35,235.847,398.659,235.847z"/>
				</g>
				<g>
					<path style="fill:#063F80;" d="M379.689,235.847c-0.691,0-1.363-0.359-1.734-1c-0.552-0.957-0.225-2.18,0.732-2.732
						l18.974-10.955c0.955-0.554,2.18-0.225,2.732,0.732c0.552,0.957,0.225,2.18-0.732,2.732l-18.974,10.955
						C380.373,235.76,380.028,235.847,379.689,235.847z"/>
				</g>
			</g>
			<g>
				<g>
					<path style="fill:#063F80;" d="M443.954,374.284c-1.104,0-2-0.896-2-2v-21.91c0-1.104,0.896-2,2-2s2,0.896,2,2v21.91
						C445.954,373.389,445.058,374.284,443.954,374.284z"/>
				</g>
				<g>
					<path style="fill:#063F80;" d="M434.468,368.807c-0.691,0-1.363-0.359-1.734-1c-0.552-0.957-0.225-2.18,0.732-2.732
						l18.975-10.955c0.956-0.554,2.179-0.224,2.732,0.732c0.552,0.957,0.225,2.18-0.732,2.732l-18.975,10.955
						C435.152,368.721,434.807,368.807,434.468,368.807z"/>
				</g>
				<g>
					<path style="fill:#063F80;" d="M453.439,368.807c-0.339,0-0.683-0.086-0.998-0.269l-18.975-10.955
						c-0.957-0.552-1.284-1.775-0.732-2.732c0.552-0.956,1.771-1.286,2.732-0.732l18.975,10.955
						c0.957,0.552,1.284,1.775,0.732,2.732C454.802,368.448,454.131,368.807,453.439,368.807z"/>
				</g>
			</g>
			<g>
				<g>
					<path style="fill:#063F80;" d="M390.263,327.113c-1.104,0-2-0.896-2-2v-21.909c0-1.104,0.896-2,2-2s2,0.896,2,2v21.909
						C392.263,326.218,391.368,327.113,390.263,327.113z"/>
				</g>
				<g>
					<path style="fill:#063F80;" d="M380.779,321.637c-0.691,0-1.363-0.359-1.734-1c-0.552-0.957-0.225-2.18,0.732-2.732
						l18.974-10.955c0.955-0.555,2.18-0.225,2.732,0.732c0.552,0.957,0.225,2.18-0.732,2.732l-18.974,10.955
						C381.463,321.55,381.118,321.637,380.779,321.637z"/>
				</g>
				<g>
					<path style="fill:#063F80;" d="M399.749,321.637c-0.339,0-0.684-0.086-0.998-0.269l-18.974-10.955
						c-0.957-0.552-1.284-1.775-0.732-2.732c0.553-0.957,1.775-1.287,2.732-0.732l18.974,10.955
						c0.957,0.552,1.284,1.775,0.732,2.732C401.112,321.278,400.44,321.637,399.749,321.637z"/>
				</g>
			</g>
			<g>
				<g>
					<path style="fill:#063F80;" d="M495.784,122.536c-1.104,0-2-0.896-2-2v-21.91c0-1.104,0.896-2,2-2s2,0.896,2,2v21.91
						C497.784,121.64,496.888,122.536,495.784,122.536z"/>
				</g>
				<g>
					<path style="fill:#063F80;" d="M505.269,117.059c-0.339,0-0.683-0.086-0.998-0.269l-18.975-10.955
						c-0.957-0.552-1.284-1.775-0.732-2.732c0.553-0.957,1.771-1.286,2.732-0.732l18.975,10.955
						c0.957,0.552,1.284,1.775,0.732,2.732C506.632,116.7,505.961,117.059,505.269,117.059z"/>
				</g>
				<g>
					<path style="fill:#063F80;" d="M486.298,117.059c-0.691,0-1.363-0.359-1.734-1c-0.552-0.957-0.225-2.18,0.732-2.732
						l18.975-10.955c0.955-0.554,2.179-0.225,2.732,0.732c0.552,0.957,0.225,2.18-0.732,2.732l-18.975,10.955
						C486.982,116.972,486.637,117.059,486.298,117.059z"/>
				</g>
			</g>
		</g>
	</g>
</g>
<g>
	<g>
		<rect x="644.279" style="fill:#8195FF;" width="311.441" height="417.938"/>
	</g>
	<g style="opacity:0.25;">
		<g>
			<g>
				<g>
					<path style="fill:#5771FF;" d="M764.377,398.381c-1.104,0-2-0.896-2-2V247.793c0-1.104,0.896-2,2-2s2,0.896,2,2v148.588
						C766.377,397.486,765.481,398.381,764.377,398.381z"/>
				</g>
				<g>
					<path style="fill:#5771FF;" d="M828.716,361.234c-0.339,0-0.683-0.086-0.998-0.269l-128.681-74.294
						c-0.957-0.552-1.284-1.775-0.732-2.732c0.552-0.956,1.773-1.287,2.732-0.732l128.681,74.294
						c0.957,0.552,1.284,1.775,0.732,2.732C830.079,360.876,829.407,361.234,828.716,361.234z"/>
				</g>
				<g>
					<path style="fill:#5771FF;" d="M700.039,361.234c-0.691,0-1.363-0.359-1.734-1c-0.552-0.957-0.225-2.18,0.732-2.732
						l128.681-74.294c0.956-0.555,2.179-0.224,2.732,0.732c0.552,0.957,0.225,2.18-0.732,2.732l-128.681,74.294
						C700.722,361.148,700.378,361.234,700.039,361.234z"/>
				</g>
				<g>
					<path style="fill:#5771FF;" d="M764.378,289.522c-0.346,0-0.69-0.089-1-0.268l-16.201-9.354
						c-0.957-0.552-1.284-1.775-0.732-2.732c0.553-0.957,1.772-1.286,2.732-0.732l15.201,8.776l15.202-8.776
						c0.959-0.554,2.179-0.225,2.732,0.732c0.552,0.957,0.225,2.18-0.732,2.732l-16.202,9.354
						C765.068,289.433,764.723,289.522,764.378,289.522z"/>
				</g>
				<g>
					<path style="fill:#5771FF;" d="M764.378,271.71c-0.346,0-0.69-0.089-1-0.268l-24.644-14.228
						c-0.957-0.552-1.284-1.775-0.732-2.732c0.553-0.956,1.772-1.286,2.732-0.732l23.644,13.65l23.645-13.65
						c0.959-0.554,2.18-0.224,2.732,0.732c0.552,0.957,0.225,2.18-0.732,2.732l-24.645,14.228
						C765.068,271.62,764.723,271.71,764.378,271.71z"/>
				</g>
				<g>
					<path style="fill:#5771FF;" d="M748.178,368.007c-0.691,0-1.363-0.359-1.734-1c-0.552-0.957-0.225-2.18,0.732-2.732
						l16.202-9.354c0.619-0.357,1.381-0.357,2,0l16.201,9.354c0.957,0.552,1.284,1.775,0.732,2.732
						c-0.554,0.956-1.776,1.285-2.732,0.732l-15.201-8.777l-15.202,8.777C748.862,367.921,748.517,368.007,748.178,368.007z"/>
				</g>
				<g>
					<path style="fill:#5771FF;" d="M739.736,390.693c-0.691,0-1.363-0.359-1.734-1c-0.552-0.957-0.225-2.18,0.732-2.732
						l24.645-14.228c0.619-0.357,1.381-0.357,2,0l24.644,14.228c0.957,0.552,1.284,1.775,0.732,2.732
						c-0.553,0.956-1.773,1.285-2.732,0.732l-23.644-13.65l-23.645,13.65C740.419,390.607,740.075,390.693,739.736,390.693z"/>
				</g>
				<g>
					<path style="fill:#5771FF;" d="M718.244,316.159c-0.691,0-1.363-0.359-1.734-1c-0.552-0.957-0.225-2.18,0.732-2.732
						l15.202-8.777v-17.554c0-1.104,0.896-2,2-2s2,0.896,2,2v18.708c0,0.714-0.381,1.375-1,1.732l-16.202,9.354
						C718.926,316.073,718.583,316.159,718.244,316.159z"/>
				</g>
				<g>
					<path style="fill:#5771FF;" d="M694.376,312.127c-0.691,0-1.363-0.359-1.734-1c-0.552-0.957-0.225-2.18,0.732-2.732
						l23.644-13.65l0.001-27.302c0-1.104,0.896-2,2-2l0,0c1.104,0,2,0.896,2,2l-0.001,28.457c0,0.714-0.381,1.375-1,1.732
						l-24.644,14.228C695.058,312.041,694.715,312.127,694.376,312.127z"/>
				</g>
				<g>
					<path style="fill:#5771FF;" d="M794.312,360.078c-1.104,0-2-0.896-2-2v-18.708c0-0.714,0.381-1.375,1-1.732l16.202-9.354
						c0.958-0.555,2.179-0.225,2.732,0.732c0.552,0.957,0.225,2.18-0.732,2.732l-15.202,8.776v17.554
						C796.312,359.182,795.417,360.078,794.312,360.078z"/>
				</g>
				<g>
					<path style="fill:#5771FF;" d="M809.738,378.733L809.738,378.733c-1.104,0-2-0.896-2-2l0.001-28.457
						c0-0.714,0.381-1.375,1-1.732l24.644-14.228c0.956-0.555,2.179-0.225,2.732,0.732c0.552,0.957,0.225,2.18-0.732,2.732
						l-23.644,13.651l-0.001,27.302C811.738,377.837,810.842,378.733,809.738,378.733z"/>
				</g>
				<g>
					<path style="fill:#5771FF;" d="M734.444,360.078c-1.104,0-2-0.896-2-2v-17.553l-15.202-8.777
						c-0.957-0.552-1.284-1.775-0.732-2.732c0.553-0.957,1.773-1.287,2.732-0.732l16.202,9.354c0.619,0.357,1,1.018,1,1.732v18.708
						C736.444,359.182,735.549,360.078,734.444,360.078z"/>
				</g>
				<g>
					<path style="fill:#5771FF;" d="M719.018,378.733c-1.104,0-2-0.896-2-2v-27.301l-23.645-13.652
						c-0.957-0.552-1.284-1.775-0.732-2.732c0.553-0.957,1.772-1.287,2.732-0.732l24.645,14.229c0.619,0.357,1,1.018,1,1.732v28.456
						C721.018,377.837,720.123,378.733,719.018,378.733z"/>
				</g>
				<g>
					<path style="fill:#5771FF;" d="M810.512,316.159c-0.339,0-0.683-0.086-0.998-0.269l-16.202-9.354c-0.619-0.357-1-1.018-1-1.732
						v-18.708c0-1.104,0.896-2,2-2s2,0.896,2,2v17.553l15.202,8.777c0.957,0.552,1.284,1.775,0.732,2.732
						C811.876,315.8,811.204,316.159,810.512,316.159z"/>
				</g>
				<g>
					<path style="fill:#5771FF;" d="M834.381,312.127c-0.339,0-0.683-0.086-0.998-0.269l-24.645-14.229
						c-0.619-0.357-1-1.018-1-1.732v-28.456c0-1.104,0.896-2,2-2s2,0.896,2,2v27.301l23.645,13.651
						c0.957,0.552,1.284,1.775,0.732,2.732C835.744,311.768,835.072,312.127,834.381,312.127z"/>
				</g>
			</g>
		</g>
		<g>
			<g>
				<path style="fill:#5771FF;" d="M866.624,230.369c-1.104,0-2-0.896-2-2v-79.103c0-1.104,0.896-2,2-2s2,0.896,2,2v79.103
					C868.624,229.473,867.728,230.369,866.624,230.369z"/>
			</g>
			<g>
				<path style="fill:#5771FF;" d="M900.873,210.593c-0.339,0-0.683-0.086-0.998-0.269l-68.505-39.551
					c-0.957-0.552-1.284-1.775-0.732-2.732c0.553-0.956,1.772-1.287,2.732-0.732l68.505,39.551c0.957,0.552,1.284,1.775,0.732,2.732
					C902.236,210.234,901.564,210.593,900.873,210.593z"/>
			</g>
			<g>
				<path style="fill:#5771FF;" d="M832.372,210.593c-0.691,0-1.363-0.359-1.734-1c-0.552-0.957-0.225-2.18,0.732-2.732
					l68.505-39.551c0.955-0.555,2.179-0.224,2.732,0.732c0.552,0.957,0.225,2.18-0.732,2.732l-68.505,39.551
					C833.055,210.507,832.711,210.593,832.372,210.593z"/>
			</g>
			<g>
				<path style="fill:#5771FF;" d="M866.623,165.971c-0.346,0-0.69-0.089-1-0.268l-13.119-7.575
					c-0.957-0.552-1.284-1.775-0.732-2.732c0.553-0.956,1.772-1.286,2.732-0.732l12.119,6.997l12.12-6.997
					c0.959-0.554,2.179-0.224,2.732,0.732c0.552,0.957,0.225,2.18-0.732,2.732l-13.12,7.575
					C867.313,165.881,866.968,165.971,866.623,165.971z"/>
			</g>
			<g>
				<path style="fill:#5771FF;" d="M853.506,223.239c-0.691,0-1.363-0.359-1.734-1c-0.552-0.957-0.225-2.18,0.732-2.732l13.12-7.575
					c0.619-0.357,1.381-0.357,2,0l13.119,7.575c0.957,0.552,1.284,1.775,0.732,2.732c-0.554,0.956-1.773,1.286-2.732,0.732
					l-12.119-6.997l-12.12,6.997C854.188,223.152,853.844,223.239,853.506,223.239z"/>
			</g>
			<g>
				<path style="fill:#5771FF;" d="M831.988,185.969c-0.691,0-1.363-0.359-1.734-1c-0.552-0.957-0.225-2.18,0.732-2.732
					l12.119-6.998v-13.995c0-1.104,0.896-2,2-2s2,0.896,2,2v15.149c0,0.714-0.381,1.375-1,1.732l-13.119,7.575
					C832.672,185.883,832.327,185.969,831.988,185.969z"/>
			</g>
			<g>
				<path style="fill:#5771FF;" d="M888.14,218.39c-1.104,0-2-0.896-2-2V201.24c0-0.714,0.381-1.375,1-1.732l13.12-7.575
					c0.958-0.554,2.179-0.225,2.732,0.732c0.552,0.957,0.225,2.18-0.732,2.732l-12.12,6.998v13.995
					C890.14,217.494,889.245,218.39,888.14,218.39z"/>
			</g>
			<g>
				<path style="fill:#5771FF;" d="M845.105,218.39c-1.104,0-2-0.896-2-2v-13.994l-12.119-6.998
					c-0.957-0.552-1.284-1.775-0.732-2.732s1.773-1.286,2.732-0.732l13.119,7.575c0.619,0.357,1,1.018,1,1.732v15.149
					C847.105,217.494,846.21,218.39,845.105,218.39z"/>
			</g>
			<g>
				<path style="fill:#5771FF;" d="M901.258,185.969c-0.339,0-0.683-0.086-0.998-0.269l-13.12-7.575c-0.619-0.357-1-1.018-1-1.732
					v-15.149c0-1.104,0.896-2,2-2s2,0.896,2,2v13.994l12.12,6.998c0.957,0.552,1.284,1.775,0.732,2.732
					C902.622,185.61,901.95,185.969,901.258,185.969z"/>
			</g>
		</g>
		<g>
			<g>
				<path style="fill:#5771FF;" d="M751.259,154.93c-1.104,0-2-0.896-2-2V73.826c0-1.104,0.896-2,2-2s2,0.896,2,2v79.104
					C753.259,154.034,752.364,154.93,751.259,154.93z"/>
			</g>
			<g>
				<path style="fill:#5771FF;" d="M785.508,135.154c-0.339,0-0.683-0.086-0.998-0.269l-68.505-39.552
					c-0.957-0.552-1.284-1.775-0.732-2.732c0.553-0.957,1.772-1.286,2.732-0.732l68.505,39.552c0.957,0.552,1.284,1.775,0.732,2.732
					C786.872,134.796,786.2,135.154,785.508,135.154z"/>
			</g>
			<g>
				<path style="fill:#5771FF;" d="M717.008,135.154c-0.691,0-1.363-0.359-1.734-1c-0.552-0.957-0.225-2.18,0.732-2.732
					L784.51,91.87c0.955-0.554,2.179-0.225,2.732,0.732c0.552,0.957,0.225,2.18-0.732,2.732l-68.505,39.552
					C717.691,135.068,717.346,135.154,717.008,135.154z"/>
			</g>
			<g>
				<path style="fill:#5771FF;" d="M751.258,90.531c-0.346,0-0.69-0.089-1-0.268l-13.119-7.574
					c-0.957-0.552-1.284-1.775-0.732-2.732c0.553-0.956,1.772-1.286,2.732-0.732l12.119,6.997l12.12-6.997
					c0.957-0.554,2.18-0.224,2.732,0.732c0.552,0.957,0.224,2.18-0.732,2.732l-13.12,7.574
					C751.949,90.442,751.604,90.531,751.258,90.531z"/>
			</g>
			<g>
				<path style="fill:#5771FF;" d="M738.141,147.799c-0.691,0-1.363-0.359-1.734-1c-0.552-0.957-0.225-2.18,0.732-2.732
					l13.119-7.574c0.619-0.357,1.381-0.357,2,0l13.12,7.574c0.956,0.552,1.284,1.775,0.732,2.732
					c-0.553,0.956-1.775,1.285-2.732,0.732l-12.12-6.997l-12.119,6.997C738.824,147.713,738.48,147.799,738.141,147.799z"/>
			</g>
			<g>
				<path style="fill:#5771FF;" d="M716.624,110.53c-0.691,0-1.363-0.359-1.734-1c-0.552-0.957-0.225-2.18,0.732-2.732l12.119-6.997
					V85.806c0-1.104,0.896-2,2-2s2,0.896,2,2v15.149c0,0.714-0.381,1.375-1,1.732l-13.119,7.574
					C717.306,110.443,716.963,110.53,716.624,110.53z"/>
			</g>
			<g>
				<path style="fill:#5771FF;" d="M772.776,142.95c-1.104,0-2-0.896-2-2v-15.149c0-0.714,0.381-1.375,1-1.732l13.12-7.574
					c0.958-0.554,2.179-0.224,2.732,0.732c0.552,0.957,0.225,2.18-0.732,2.732l-12.12,6.997v13.995
					C774.776,142.055,773.881,142.95,772.776,142.95z"/>
			</g>
			<g>
				<path style="fill:#5771FF;" d="M729.741,142.95c-1.104,0-2-0.896-2-2v-13.994l-12.119-6.998
					c-0.957-0.552-1.284-1.775-0.732-2.732c0.552-0.956,1.772-1.286,2.732-0.732l13.119,7.575c0.619,0.357,1,1.018,1,1.732v15.149
					C731.741,142.055,730.845,142.95,729.741,142.95z"/>
			</g>
			<g>
				<path style="fill:#5771FF;" d="M785.894,110.53c-0.339,0-0.683-0.086-0.998-0.269l-13.12-7.575c-0.619-0.357-1-1.018-1-1.732
					V85.806c0-1.104,0.896-2,2-2s2,0.896,2,2V99.8l12.12,6.998c0.957,0.552,1.284,1.775,0.732,2.732
					C787.258,110.171,786.586,110.53,785.894,110.53z"/>
			</g>
		</g>
		<g>
			<g>
				<path style="fill:#5771FF;" d="M885.598,389.687c-1.104,0-2-0.896-2-2v-21.91c0-1.104,0.896-2,2-2s2,0.896,2,2v21.91
					C887.598,388.792,886.703,389.687,885.598,389.687z"/>
			</g>
			<g>
				<path style="fill:#5771FF;" d="M895.083,384.21c-0.339,0-0.683-0.086-0.998-0.269l-18.974-10.955
					c-0.957-0.552-1.284-1.775-0.732-2.732c0.553-0.957,1.771-1.286,2.732-0.732l18.974,10.955c0.957,0.552,1.284,1.775,0.732,2.732
					C896.446,383.851,895.774,384.21,895.083,384.21z"/>
			</g>
			<g>
				<path style="fill:#5771FF;" d="M876.113,384.21c-0.691,0-1.363-0.359-1.734-1c-0.552-0.957-0.225-2.18,0.732-2.732
					l18.974-10.955c0.955-0.554,2.179-0.225,2.732,0.732c0.552,0.957,0.225,2.18-0.732,2.732l-18.974,10.955
					C876.797,384.124,876.452,384.21,876.113,384.21z"/>
			</g>
		</g>
		<g>
			<g>
				<path style="fill:#5771FF;" d="M876.111,288.426c-1.104,0-2-0.896-2-2v-21.91c0-1.104,0.896-2,2-2s2,0.896,2,2v21.91
					C878.111,287.53,877.216,288.426,876.111,288.426z"/>
			</g>
			<g>
				<path style="fill:#5771FF;" d="M866.626,282.949c-0.691,0-1.363-0.359-1.734-1c-0.552-0.957-0.225-2.18,0.732-2.732
					l18.975-10.955c0.958-0.555,2.179-0.224,2.732,0.732c0.552,0.957,0.225,2.18-0.732,2.732l-18.975,10.955
					C867.308,282.862,866.965,282.949,866.626,282.949z"/>
			</g>
			<g>
				<path style="fill:#5771FF;" d="M885.596,282.949c-0.339,0-0.683-0.086-0.998-0.269l-18.975-10.955
					c-0.957-0.552-1.284-1.775-0.732-2.732c0.553-0.956,1.772-1.287,2.732-0.732l18.975,10.955c0.957,0.552,1.284,1.775,0.732,2.732
					C886.96,282.59,886.288,282.949,885.596,282.949z"/>
			</g>
		</g>
		<g>
			<g>
				<path style="fill:#5771FF;" d="M837.341,107.939c-1.104,0-2-0.896-2-2v-21.91c0-1.104,0.896-2,2-2s2,0.896,2,2v21.91
					C839.341,107.043,838.445,107.939,837.341,107.939z"/>
			</g>
			<g>
				<path style="fill:#5771FF;" d="M827.855,102.462c-0.691,0-1.363-0.359-1.734-1c-0.552-0.957-0.225-2.18,0.732-2.732
					l18.975-10.955c0.955-0.554,2.179-0.225,2.732,0.732c0.552,0.957,0.225,2.18-0.732,2.732l-18.975,10.955
					C828.539,102.376,828.194,102.462,827.855,102.462z"/>
			</g>
			<g>
				<path style="fill:#5771FF;" d="M846.826,102.462c-0.339,0-0.683-0.086-0.998-0.269l-18.975-10.955
					c-0.957-0.552-1.284-1.775-0.732-2.732c0.553-0.957,1.773-1.286,2.732-0.732l18.975,10.955c0.957,0.552,1.284,1.775,0.732,2.732
					C848.189,102.103,847.517,102.462,846.826,102.462z"/>
			</g>
		</g>
		<g>
			<g>
				<path style="fill:#5771FF;" d="M779.336,217.983c-1.104,0-2-0.896-2-2v-21.91c0-1.104,0.896-2,2-2s2,0.896,2,2v21.91
					C781.336,217.087,780.44,217.983,779.336,217.983z"/>
			</g>
			<g>
				<path style="fill:#5771FF;" d="M769.85,212.505c-0.691,0-1.363-0.359-1.734-1c-0.552-0.957-0.225-2.18,0.732-2.732
					l18.975-10.955c0.958-0.554,2.18-0.225,2.732,0.732c0.552,0.957,0.225,2.18-0.732,2.732l-18.975,10.955
					C770.533,212.419,770.189,212.505,769.85,212.505z"/>
			</g>
			<g>
				<path style="fill:#5771FF;" d="M788.821,212.505c-0.339,0-0.683-0.086-0.998-0.269l-18.975-10.955
					c-0.957-0.552-1.284-1.775-0.732-2.732c0.553-0.957,1.772-1.286,2.732-0.732l18.975,10.955c0.957,0.552,1.284,1.775,0.732,2.732
					C790.184,212.147,789.512,212.505,788.821,212.505z"/>
			</g>
		</g>
		<g>
			<g>
				<path style="fill:#5771FF;" d="M717.006,196.923c-1.104,0-2-0.896-2-2v-21.91c0-1.104,0.896-2,2-2s2,0.896,2,2v21.91
					C719.006,196.028,718.11,196.923,717.006,196.923z"/>
			</g>
			<g>
				<path style="fill:#5771FF;" d="M707.52,191.446c-0.691,0-1.363-0.359-1.734-1c-0.552-0.957-0.225-2.18,0.732-2.732
					l18.975-10.955c0.958-0.554,2.18-0.225,2.732,0.732c0.552,0.957,0.225,2.18-0.732,2.732l-18.975,10.955
					C708.203,191.36,707.859,191.446,707.52,191.446z"/>
			</g>
			<g>
				<path style="fill:#5771FF;" d="M726.491,191.446c-0.339,0-0.683-0.086-0.998-0.269l-18.975-10.955
					c-0.957-0.552-1.284-1.775-0.732-2.732c0.553-0.957,1.772-1.286,2.732-0.732l18.975,10.955c0.957,0.552,1.284,1.775,0.732,2.732
					C727.854,191.088,727.182,191.446,726.491,191.446z"/>
			</g>
		</g>
	</g>
</g>
<g>
	<g>
		<rect x="974.458" style="fill:#902BB0;" width="311.441" height="417.938"/>
	</g>
	<g style="opacity:0.25;">
		<g>
			<g>
				<g>
					<g>
						<path style="fill:#6F118C;" d="M1102.324,320.736c-1.104,0-2-0.896-2-2V170.148c0-1.104,0.896-2,2-2s2,0.896,2,2v148.588
							C1104.324,319.841,1103.428,320.736,1102.324,320.736z"/>
					</g>
					<g>
						<path style="fill:#6F118C;" d="M1166.663,283.59c-0.339,0-0.683-0.086-0.998-0.269l-128.682-74.294
							c-0.957-0.552-1.284-1.775-0.732-2.732c0.553-0.956,1.772-1.287,2.732-0.732l128.682,74.294
							c0.957,0.552,1.284,1.775,0.732,2.732C1168.026,283.231,1167.354,283.59,1166.663,283.59z"/>
					</g>
					<g>
						<path style="fill:#6F118C;" d="M1037.985,283.59c-0.691,0-1.363-0.359-1.734-1c-0.552-0.957-0.225-2.18,0.732-2.732
							l128.682-74.294c0.957-0.555,2.179-0.224,2.732,0.732c0.552,0.957,0.225,2.18-0.732,2.732l-128.682,74.294
							C1038.668,283.504,1038.324,283.59,1037.985,283.59z"/>
					</g>
					<g>
						<path style="fill:#6F118C;" d="M1102.325,211.878c-0.346,0-0.69-0.089-1-0.268l-16.201-9.354
							c-0.957-0.552-1.284-1.775-0.732-2.732c0.553-0.956,1.776-1.287,2.732-0.732l15.201,8.777l15.202-8.777
							c0.954-0.555,2.179-0.224,2.732,0.732c0.552,0.957,0.225,2.18-0.732,2.732l-16.202,9.354
							C1103.015,211.788,1102.671,211.878,1102.325,211.878z"/>
					</g>
					<g>
						<path style="fill:#6F118C;" d="M1102.325,194.065c-0.346,0-0.69-0.089-1-0.268l-24.644-14.229
							c-0.957-0.552-1.284-1.775-0.732-2.732c0.553-0.957,1.772-1.287,2.732-0.732l23.644,13.651l23.645-13.651
							c0.954-0.555,2.18-0.225,2.732,0.732c0.552,0.957,0.225,2.18-0.732,2.732l-24.645,14.229
							C1103.015,193.976,1102.671,194.065,1102.325,194.065z"/>
					</g>
					<g>
						<path style="fill:#6F118C;" d="M1118.525,290.362c-0.339,0-0.683-0.086-0.998-0.269l-15.201-8.776l-15.202,8.776
							c-0.959,0.553-2.18,0.224-2.732-0.732c-0.552-0.957-0.225-2.18,0.732-2.732l16.202-9.354c0.619-0.357,1.381-0.357,2,0
							l16.201,9.354c0.957,0.552,1.284,1.775,0.732,2.732C1119.888,290.003,1119.216,290.362,1118.525,290.362z"/>
					</g>
					<g>
						<path style="fill:#6F118C;" d="M1126.967,313.048c-0.339,0-0.683-0.086-0.998-0.269l-23.644-13.65l-23.645,13.65
							c-0.96,0.553-2.18,0.223-2.732-0.732c-0.552-0.957-0.225-2.18,0.732-2.732l24.645-14.228c0.619-0.357,1.381-0.357,2,0
							l24.644,14.228c0.957,0.552,1.284,1.775,0.732,2.732C1128.331,312.69,1127.659,313.048,1126.967,313.048z"/>
					</g>
					<g>
						<path style="fill:#6F118C;" d="M1056.191,238.515c-0.691,0-1.363-0.359-1.734-1c-0.552-0.957-0.225-2.18,0.732-2.732
							l15.201-8.777l0.001-17.554c0-1.104,0.896-2,2-2l0,0c1.104,0,2,0.896,2,2l-0.001,18.708c0,0.714-0.381,1.375-1,1.732
							l-16.201,9.354C1056.875,238.428,1056.53,238.515,1056.191,238.515z"/>
					</g>
					<g>
						<path style="fill:#6F118C;" d="M1032.323,234.483c-0.691,0-1.363-0.359-1.734-1c-0.552-0.957-0.225-2.18,0.732-2.732
							l23.644-13.651v-27.302c0-1.104,0.896-2,2-2s2,0.896,2,2v28.457c0,0.714-0.381,1.375-1,1.732l-24.644,14.228
							C1033.006,234.396,1032.662,234.483,1032.323,234.483z"/>
					</g>
					<g>
						<path style="fill:#6F118C;" d="M1132.259,282.433c-1.104,0-2-0.896-2-2v-18.708c0-0.714,0.381-1.375,1-1.732l16.201-9.354
							c0.955-0.555,2.179-0.225,2.732,0.732c0.552,0.957,0.225,2.18-0.732,2.732l-15.201,8.777v17.554
							C1134.259,281.538,1133.364,282.433,1132.259,282.433z"/>
					</g>
					<g>
						<path style="fill:#6F118C;" d="M1147.685,301.088c-1.104,0-2-0.896-2-2V270.63c0-0.714,0.381-1.375,1-1.732l24.645-14.228
							c0.957-0.555,2.179-0.225,2.732,0.732c0.552,0.957,0.225,2.18-0.732,2.732l-23.645,13.65v27.302
							C1149.685,300.192,1148.79,301.088,1147.685,301.088z"/>
					</g>
					<g>
						<path style="fill:#6F118C;" d="M1072.391,282.433c-1.104,0-2-0.896-2-2V262.88l-15.202-8.777
							c-0.957-0.552-1.284-1.775-0.732-2.732c0.553-0.957,1.771-1.287,2.732-0.732l16.202,9.355c0.619,0.357,1,1.018,1,1.732v18.708
							C1074.391,281.538,1073.496,282.433,1072.391,282.433z"/>
					</g>
					<g>
						<path style="fill:#6F118C;" d="M1056.964,301.088L1056.964,301.088c-1.104,0-2-0.896-2-2l0.001-27.301l-23.645-13.652
							c-0.957-0.552-1.284-1.775-0.732-2.732c0.553-0.957,1.773-1.287,2.732-0.732l24.645,14.229c0.619,0.357,1,1.018,1,1.732
							l-0.001,28.456C1058.964,300.192,1058.069,301.088,1056.964,301.088z"/>
					</g>
					<g>
						<path style="fill:#6F118C;" d="M1148.459,238.515c-0.339,0-0.684-0.086-0.998-0.269l-16.201-9.354
							c-0.619-0.357-1-1.018-1-1.732v-18.708c0-1.104,0.896-2,2-2s2,0.896,2,2v17.553l15.201,8.777
							c0.957,0.552,1.284,1.775,0.732,2.732C1149.822,238.156,1149.15,238.515,1148.459,238.515z"/>
					</g>
					<g>
						<path style="fill:#6F118C;" d="M1172.328,234.483c-0.339,0-0.683-0.086-0.998-0.269l-24.645-14.229
							c-0.619-0.357-1-1.018-1-1.732v-28.456c0-1.104,0.896-2,2-2s2,0.896,2,2v27.301l23.645,13.652
							c0.957,0.552,1.284,1.775,0.732,2.732C1173.691,234.124,1173.019,234.483,1172.328,234.483z"/>
					</g>
				</g>
			</g>
			<g>
				<g>
					<path style="fill:#6F118C;" d="M1188.048,159.778c-1.104,0-2-0.896-2-2V78.675c0-1.104,0.896-2,2-2s2,0.896,2,2v79.104
						C1190.048,158.883,1189.153,159.778,1188.048,159.778z"/>
				</g>
				<g>
					<path style="fill:#6F118C;" d="M1222.297,140.003c-0.339,0-0.683-0.086-0.998-0.269l-68.505-39.552
						c-0.957-0.552-1.284-1.775-0.732-2.732c0.553-0.957,1.772-1.286,2.732-0.732l68.505,39.552
						c0.957,0.552,1.284,1.775,0.732,2.732C1223.661,139.644,1222.989,140.003,1222.297,140.003z"/>
				</g>
				<g>
					<path style="fill:#6F118C;" d="M1153.797,140.003c-0.691,0-1.363-0.359-1.734-1c-0.552-0.957-0.225-2.18,0.732-2.732
						l68.505-39.552c0.954-0.554,2.179-0.225,2.732,0.732c0.552,0.957,0.225,2.18-0.732,2.732l-68.505,39.552
						C1154.48,139.917,1154.135,140.003,1153.797,140.003z"/>
				</g>
				<g>
					<path style="fill:#6F118C;" d="M1188.047,95.38c-0.346,0-0.69-0.089-1-0.268l-13.119-7.574
						c-0.957-0.552-1.284-1.775-0.732-2.732c0.553-0.957,1.772-1.286,2.732-0.732l12.119,6.997l12.12-6.997
						c0.958-0.554,2.179-0.225,2.732,0.732c0.552,0.957,0.224,2.18-0.732,2.732l-13.12,7.574
						C1188.738,95.291,1188.393,95.38,1188.047,95.38z"/>
				</g>
				<g>
					<path style="fill:#6F118C;" d="M1174.93,152.648c-0.691,0-1.363-0.359-1.734-1c-0.552-0.957-0.225-2.18,0.732-2.732
						l13.12-7.575c0.619-0.357,1.381-0.357,2,0l13.119,7.575c0.957,0.552,1.284,1.775,0.732,2.732
						c-0.554,0.956-1.774,1.285-2.732,0.732l-12.119-6.997l-12.12,6.997C1175.613,152.562,1175.269,152.648,1174.93,152.648z"/>
				</g>
				<g>
					<path style="fill:#6F118C;" d="M1153.413,115.379c-0.691,0-1.363-0.359-1.734-1c-0.552-0.957-0.225-2.18,0.732-2.732
						l12.119-6.997V90.654c0-1.104,0.896-2,2-2s2,0.896,2,2v15.15c0,0.714-0.381,1.375-1,1.732l-13.119,7.574
						C1154.095,115.292,1153.752,115.379,1153.413,115.379z"/>
				</g>
				<g>
					<path style="fill:#6F118C;" d="M1209.565,147.799c-1.104,0-2-0.896-2-2V130.65c0-0.714,0.381-1.375,1-1.732l13.12-7.574
						c0.958-0.554,2.179-0.224,2.732,0.732c0.552,0.957,0.225,2.18-0.732,2.732l-12.12,6.997v13.995
						C1211.565,146.903,1210.67,147.799,1209.565,147.799z"/>
				</g>
				<g>
					<path style="fill:#6F118C;" d="M1166.53,147.799c-1.104,0-2-0.896-2-2v-13.994l-12.119-6.998
						c-0.957-0.552-1.284-1.775-0.732-2.732c0.553-0.956,1.772-1.286,2.732-0.732l13.119,7.575c0.619,0.357,1,1.018,1,1.732v15.149
						C1168.53,146.903,1167.634,147.799,1166.53,147.799z"/>
				</g>
				<g>
					<path style="fill:#6F118C;" d="M1222.683,115.379c-0.339,0-0.683-0.086-0.998-0.269l-13.12-7.575c-0.619-0.357-1-1.018-1-1.732
						V90.654c0-1.104,0.896-2,2-2s2,0.896,2,2v13.994l12.12,6.998c0.957,0.552,1.284,1.775,0.732,2.732
						C1224.047,115.02,1223.375,115.379,1222.683,115.379z"/>
				</g>
			</g>
			<g>
				<g>
					<path style="fill:#6F118C;" d="M1178.92,399.84c-1.104,0-2-0.896-2-2v-79.104c0-1.104,0.896-2,2-2s2,0.896,2,2v79.104
						C1180.92,398.944,1180.024,399.84,1178.92,399.84z"/>
				</g>
				<g>
					<path style="fill:#6F118C;" d="M1213.172,380.065c-0.339,0-0.683-0.086-0.998-0.269l-68.506-39.552
						c-0.957-0.552-1.284-1.775-0.732-2.732c0.553-0.957,1.772-1.286,2.732-0.732l68.506,39.552
						c0.957,0.552,1.284,1.775,0.732,2.732C1214.535,379.706,1213.863,380.065,1213.172,380.065z"/>
				</g>
				<g>
					<path style="fill:#6F118C;" d="M1144.67,380.065c-0.691,0-1.363-0.359-1.734-1c-0.552-0.957-0.225-2.18,0.732-2.732
						l68.506-39.552c0.955-0.554,2.179-0.225,2.732,0.732c0.552,0.957,0.225,2.18-0.732,2.732l-68.506,39.552
						C1145.353,379.978,1145.008,380.065,1144.67,380.065z"/>
				</g>
				<g>
					<path style="fill:#6F118C;" d="M1165.802,392.71c-0.691,0-1.363-0.359-1.734-1c-0.552-0.957-0.225-2.18,0.732-2.732
						l13.12-7.575c0.619-0.357,1.381-0.357,2,0l13.119,7.575c0.957,0.552,1.284,1.775,0.732,2.732
						c-0.553,0.956-1.774,1.285-2.732,0.732l-12.119-6.997l-12.12,6.997C1166.485,392.623,1166.141,392.71,1165.802,392.71z"/>
				</g>
				<g>
					<path style="fill:#6F118C;" d="M1178.92,335.442c-0.346,0-0.69-0.089-1-0.268l-13.119-7.575
						c-0.957-0.552-1.284-1.775-0.732-2.732c0.552-0.956,1.771-1.286,2.732-0.732l12.119,6.997l12.12-6.997
						c0.958-0.554,2.18-0.224,2.732,0.732c0.552,0.957,0.225,2.18-0.732,2.732l-13.12,7.575
						C1179.61,335.352,1179.265,335.442,1178.92,335.442z"/>
				</g>
				<g>
					<path style="fill:#6F118C;" d="M1200.437,387.86L1200.437,387.86c-1.104,0-2-0.896-2-2l0.001-15.149
						c0-0.715,0.381-1.375,1-1.732l13.119-7.574c0.959-0.555,2.179-0.225,2.732,0.732c0.552,0.957,0.225,2.18-0.732,2.732
						l-12.119,6.997l-0.001,13.995C1202.437,386.965,1201.542,387.86,1200.437,387.86z"/>
				</g>
				<g>
					<path style="fill:#6F118C;" d="M1144.285,355.44c-0.691,0-1.363-0.359-1.734-1c-0.552-0.957-0.225-2.18,0.732-2.732
						l12.119-6.997v-13.995c0-1.104,0.896-2,2-2s2,0.896,2,2v15.15c0,0.714-0.381,1.375-1,1.732l-13.119,7.574
						C1144.967,355.354,1144.624,355.44,1144.285,355.44z"/>
				</g>
				<g>
					<path style="fill:#6F118C;" d="M1213.555,355.44c-0.339,0-0.683-0.086-0.998-0.269l-13.12-7.575c-0.619-0.357-1-1.018-1-1.732
						v-15.149c0-1.104,0.896-2,2-2s2,0.896,2,2v13.994l12.12,6.998c0.957,0.552,1.284,1.775,0.732,2.732
						C1214.919,355.081,1214.247,355.44,1213.555,355.44z"/>
				</g>
				<g>
					<path style="fill:#6F118C;" d="M1157.402,387.86c-1.104,0-2-0.896-2-2v-13.994l-12.119-6.998
						c-0.957-0.552-1.284-1.775-0.732-2.732c0.553-0.957,1.772-1.287,2.732-0.732l13.119,7.575c0.619,0.357,1,1.018,1,1.732v15.149
						C1159.402,386.965,1158.506,387.86,1157.402,387.86z"/>
				</g>
			</g>
			<g>
				<g>
					<path style="fill:#6F118C;" d="M1041.24,111.581c-1.104,0-2-0.896-2-2v-21.91c0-1.104,0.896-2,2-2s2,0.896,2,2v21.91
						C1043.24,110.685,1042.344,111.581,1041.24,111.581z"/>
				</g>
				<g>
					<path style="fill:#6F118C;" d="M1050.725,106.104c-0.339,0-0.683-0.086-0.998-0.269l-18.974-10.955
						c-0.957-0.552-1.284-1.775-0.732-2.732c0.553-0.957,1.771-1.286,2.732-0.732l18.974,10.955
						c0.957,0.552,1.284,1.775,0.732,2.732C1052.089,105.745,1051.417,106.104,1050.725,106.104z"/>
				</g>
				<g>
					<path style="fill:#6F118C;" d="M1031.755,106.104c-0.691,0-1.363-0.359-1.734-1c-0.552-0.957-0.225-2.18,0.732-2.732
						l18.974-10.955c0.955-0.554,2.179-0.225,2.732,0.732c0.552,0.957,0.225,2.18-0.732,2.732l-18.974,10.955
						C1032.439,106.017,1032.094,106.104,1031.755,106.104z"/>
				</g>
			</g>
			<g>
				<g>
					<path style="fill:#6F118C;" d="M1210.655,214.445c-1.104,0-2-0.896-2-2v-21.91c0-1.104,0.896-2,2-2s2,0.896,2,2v21.91
						C1212.655,213.55,1211.759,214.445,1210.655,214.445z"/>
				</g>
				<g>
					<path style="fill:#6F118C;" d="M1201.17,208.968c-0.691,0-1.363-0.359-1.734-1c-0.552-0.957-0.225-2.18,0.732-2.732
						l18.975-10.955c0.955-0.555,2.18-0.225,2.732,0.732c0.552,0.957,0.225,2.18-0.732,2.732l-18.975,10.955
						C1201.853,208.882,1201.508,208.968,1201.17,208.968z"/>
				</g>
				<g>
					<path style="fill:#6F118C;" d="M1220.14,208.968c-0.339,0-0.683-0.086-0.998-0.269l-18.975-10.955
						c-0.957-0.552-1.284-1.775-0.732-2.732c0.553-0.957,1.772-1.287,2.732-0.732l18.975,10.955
						c0.957,0.552,1.284,1.775,0.732,2.732C1221.504,208.609,1220.832,208.968,1220.14,208.968z"/>
				</g>
			</g>
			<g>
				<g>
					<path style="fill:#6F118C;" d="M1092.838,389.637c-1.104,0-2-0.896-2-2v-21.91c0-1.104,0.896-2,2-2s2,0.896,2,2v21.91
						C1094.838,388.741,1093.942,389.637,1092.838,389.637z"/>
				</g>
				<g>
					<path style="fill:#6F118C;" d="M1083.352,384.16c-0.691,0-1.363-0.359-1.734-1c-0.552-0.957-0.225-2.18,0.732-2.732
						l18.975-10.955c0.956-0.554,2.179-0.224,2.732,0.732c0.552,0.957,0.225,2.18-0.732,2.732l-18.975,10.955
						C1084.036,384.074,1083.691,384.16,1083.352,384.16z"/>
				</g>
				<g>
					<path style="fill:#6F118C;" d="M1102.323,384.16c-0.339,0-0.683-0.086-0.998-0.269l-18.975-10.955
						c-0.957-0.552-1.284-1.775-0.732-2.732c0.553-0.956,1.771-1.286,2.732-0.732l18.975,10.955
						c0.957,0.552,1.284,1.775,0.732,2.732C1103.686,383.801,1103.014,384.16,1102.323,384.16z"/>
				</g>
			</g>
			<g>
				<g>
					<path style="fill:#6F118C;" d="M1044.643,357.002c-1.104,0-2-0.896-2-2v-21.91c0-1.104,0.896-2,2-2s2,0.896,2,2v21.91
						C1046.643,356.106,1045.748,357.002,1044.643,357.002z"/>
				</g>
				<g>
					<path style="fill:#6F118C;" d="M1035.158,351.525c-0.691,0-1.363-0.359-1.734-1c-0.552-0.957-0.225-2.18,0.732-2.732
						l18.975-10.955c0.959-0.555,2.179-0.225,2.732,0.732c0.552,0.957,0.225,2.18-0.732,2.732l-18.975,10.955
						C1035.84,351.438,1035.497,351.525,1035.158,351.525z"/>
				</g>
				<g>
					<path style="fill:#6F118C;" d="M1054.129,351.525c-0.339,0-0.683-0.086-0.998-0.269l-18.975-10.955
						c-0.957-0.552-1.284-1.775-0.732-2.732c0.553-0.957,1.772-1.287,2.732-0.732l18.975,10.955
						c0.957,0.552,1.284,1.775,0.732,2.732C1055.492,351.166,1054.82,351.525,1054.129,351.525z"/>
				</g>
			</g>
			<g>
				<g>
					<path style="fill:#6F118C;" d="M1102.325,132.64c-1.104,0-2-0.896-2-2v-21.91c0-1.104,0.896-2,2-2s2,0.896,2,2v21.91
						C1104.325,131.744,1103.429,132.64,1102.325,132.64z"/>
				</g>
				<g>
					<path style="fill:#6F118C;" d="M1092.839,127.163c-0.691,0-1.363-0.359-1.734-1c-0.552-0.957-0.225-2.18,0.732-2.732
						l18.975-10.955c0.955-0.554,2.18-0.225,2.732,0.732c0.552,0.957,0.225,2.18-0.732,2.732l-18.975,10.955
						C1093.523,127.077,1093.178,127.163,1092.839,127.163z"/>
				</g>
				<g>
					<path style="fill:#6F118C;" d="M1111.81,127.163c-0.339,0-0.683-0.086-0.998-0.269l-18.975-10.955
						c-0.957-0.552-1.284-1.775-0.732-2.732c0.553-0.957,1.772-1.286,2.732-0.732l18.975,10.955
						c0.957,0.552,1.284,1.775,0.732,2.732C1113.173,126.804,1112.502,127.163,1111.81,127.163z"/>
				</g>
			</g>
			<g>
				<g>
					<path style="fill:#6F118C;" d="M1210.655,288.426c-1.104,0-2-0.896-2-2v-21.91c0-1.104,0.896-2,2-2s2,0.896,2,2v21.91
						C1212.655,287.53,1211.759,288.426,1210.655,288.426z"/>
				</g>
				<g>
					<path style="fill:#6F118C;" d="M1201.17,282.949c-0.691,0-1.363-0.359-1.734-1c-0.552-0.957-0.225-2.18,0.732-2.732
						l18.975-10.955c0.958-0.555,2.18-0.224,2.732,0.732c0.552,0.957,0.225,2.18-0.732,2.732l-18.975,10.955
						C1201.852,282.862,1201.508,282.949,1201.17,282.949z"/>
				</g>
				<g>
					<path style="fill:#6F118C;" d="M1220.14,282.949c-0.339,0-0.683-0.086-0.998-0.269l-18.975-10.955
						c-0.957-0.552-1.284-1.775-0.732-2.732c0.553-0.956,1.772-1.287,2.732-0.732l18.975,10.955
						c0.957,0.552,1.284,1.775,0.732,2.732C1221.504,282.59,1220.832,282.949,1220.14,282.949z"/>
				</g>
			</g>
		</g>
	</g>
</g>
<g>
	<rect x="0" y="406.891" style="fill:#D8FBFF;" width="1600" height="328.667"/>
</g>
<g>
	<g style="opacity:0.5;">
		<ellipse style="fill:#FFFFFF;" cx="1005.602" cy="533.389" rx="133.016" ry="22.023"/>
	</g>
	<g style="opacity:0.5;">
		<ellipse style="fill:#FFFFFF;" cx="573.562" cy="575.297" rx="76.558" ry="12.675"/>
	</g>
	<g style="opacity:0.5;">
		<ellipse style="fill:#FFFFFF;" cx="812.218" cy="463.267" rx="76.558" ry="12.675"/>
	</g>
</g>
<g>
	<rect x="0" y="772.862" width="1600" height="127.097"/>
</g>
<g>
	<rect x="0" y="746.106" style="fill:#434343;" width="1600" height="26.755"/>
</g>
<g>
	<rect x="424.716" y="772.903" style="fill:none;" width="750.568" height="126.988"/>
</g>
<g>
	<rect x="1175.284" y="772.903" style="fill:none;" width="424.716" height="126.988"/>
</g>
<g>
	<rect x="0" y="772.903" style="fill:none;" width="424.716" height="126.988"/>
</g>
<g>
	<g>
		<g>
			<polygon style="fill:#252525;" points="1600,295.397 1600,294.277 1277.748,295.397 1277.748,609.792 1600,609.792 			"/>
		</g>
		<g>
			<polygon style="fill:#383838;" points="1262.016,289.877 1600,289.877 1600,295.397 1277.748,295.397 			"/>
		</g>
		<g>
			<g>
				<rect x="1178.654" y="434.764" style="fill:#383838;" width="101.053" height="192.264"/>
			</g>
			<g style="opacity:0.15;enable-background:new    ;">
				<ellipse cx="1229.181" cy="620.694" rx="133.016" ry="22.023"/>
			</g>
			<polygon style="fill:#231F20;" points="1279.711,242.601 1279.711,627.031 1178.651,627.031 1161.991,621.181 1161.991,236.751 
				1263.041,236.751 			"/>
			<g>
				<polygon style="fill:#383838;" points="1279.707,242.597 1232.956,242.597 1178.654,242.597 1178.654,627.028 1279.707,627.028 
									"/>
			</g>
			<g>
				<rect x="1178.654" y="434.764" style="fill:#383838;" width="101.053" height="192.264"/>
			</g>
			<g>
				<polygon style="fill:#262626;" points="1161.99,621.182 1161.99,429.015 1178.654,434.764 1178.654,627.028 				"/>
			</g>
			<g>
				<circle style="fill:#262626;" cx="1229.132" cy="482.026" r="36.445"/>
				<path style="fill:#565656;" d="M1229.131,520.041c-20.961,0-38.015-17.054-38.015-38.015s17.054-38.015,38.015-38.015
					c20.962,0,38.016,17.053,38.016,38.015S1250.093,520.041,1229.131,520.041z M1229.131,447.15
					c-19.23,0-34.876,15.646-34.876,34.876c0,19.231,15.646,34.876,34.876,34.876c19.231,0,34.877-15.646,34.877-34.876
					C1264.008,462.796,1248.363,447.15,1229.131,447.15z"/>
			</g>
			<g>
				<circle style="fill:#231F20;" cx="1229.132" cy="482.026" r="10.524"/>
			</g>
			<g>
				<circle style="fill:#262626;" cx="1229.132" cy="579.766" r="36.445"/>
				<path style="fill:#565656;" d="M1229.131,617.781c-20.961,0-38.015-17.053-38.015-38.015s17.054-38.015,38.015-38.015
					c20.962,0,38.016,17.053,38.016,38.015S1250.093,617.781,1229.131,617.781z M1229.131,544.89
					c-19.23,0-34.876,15.646-34.876,34.876s15.646,34.876,34.876,34.876c19.231,0,34.877-15.646,34.877-34.876
					S1248.363,544.89,1229.131,544.89z"/>
			</g>
			<g>
				<circle style="fill:#231F20;" cx="1229.132" cy="579.766" r="10.524"/>
			</g>
			<g>
				<circle style="fill:#231F20;" cx="1258.659" cy="530.945" r="6.919"/>
			</g>
			<g>
				<circle style="fill:#231F20;" cx="1199.703" cy="530.945" r="6.919"/>
			</g>
			<g style="opacity:0.1;enable-background:new    ;">
				<polygon points="1279.707,434.764 1178.654,434.764 1279.707,627.028 				"/>
			</g>
			<g>
				<polygon style="fill:#383838;" points="1279.707,242.597 1227.743,241.411 1178.654,242.597 1178.654,434.862 1279.707,434.862 
									"/>
			</g>
			<g>
				<polygon style="fill:#262626;" points="1161.99,429.015 1161.99,236.75 1178.654,242.597 1178.654,434.764 				"/>
			</g>
			<g>
				<circle style="fill:#262626;" cx="1229.132" cy="289.859" r="36.445"/>
				<path style="fill:#565656;" d="M1229.131,327.874c-20.961,0-38.015-17.053-38.015-38.015s17.054-38.015,38.015-38.015
					c20.962,0,38.016,17.054,38.016,38.015S1250.093,327.874,1229.131,327.874z M1229.131,254.983
					c-19.23,0-34.876,15.646-34.876,34.876c0,19.23,15.646,34.876,34.876,34.876c19.231,0,34.877-15.646,34.877-34.876
					C1264.008,270.629,1248.363,254.983,1229.131,254.983z"/>
			</g>
			<g>
				<circle style="fill:#231F20;" cx="1229.132" cy="289.859" r="10.524"/>
			</g>
			<g>
				<circle style="fill:#262626;" cx="1229.132" cy="387.502" r="36.445"/>
				<path style="fill:#565656;" d="M1229.131,425.517c-20.961,0-38.015-17.053-38.015-38.015s17.054-38.015,38.015-38.015
					c20.962,0,38.016,17.054,38.016,38.015S1250.093,425.517,1229.131,425.517z M1229.131,352.626
					c-19.23,0-34.876,15.646-34.876,34.876c0,19.23,15.646,34.876,34.876,34.876c19.231,0,34.877-15.646,34.877-34.876
					C1264.008,368.271,1248.363,352.626,1229.131,352.626z"/>
			</g>
			<g>
				<circle style="fill:#231F20;" cx="1229.132" cy="387.502" r="10.524"/>
			</g>
			<g>
				<circle style="fill:#231F20;" cx="1258.659" cy="338.681" r="6.919"/>
			</g>
			<g>
				<circle style="fill:#231F20;" cx="1199.703" cy="338.681" r="6.919"/>
			</g>
			<g style="opacity:0.1;enable-background:new    ;">
				<polygon points="1279.707,242.597 1178.654,242.597 1279.707,434.764 				"/>
			</g>
			<g>
				<polygon style="fill:#383838;" points="1161.99,236.75 1263.044,236.75 1279.707,242.597 1178.654,242.597 				"/>
			</g>
		</g>
		<g>
			<g style="opacity:0.15;enable-background:new    ;">
				<ellipse cx="1343.957" cy="689.022" rx="160.309" ry="26.542"/>
			</g>
			<g>
				<polygon style="fill:#383838;" points="1232.821,507.414 1328.225,507.414 1328.225,688.93 1248.584,688.93 1232.821,683.41 
									"/>
			</g>
			<g>
				<circle style="fill:#262626;" cx="1280.477" cy="552.034" r="34.408"/>
				<path style="fill:#565656;" d="M1280.477,587.924c-19.79,0-35.89-16.1-35.89-35.89s16.1-35.89,35.89-35.89
					c19.789,0,35.889,16.1,35.889,35.89S1300.266,587.924,1280.477,587.924z M1280.477,519.108
					c-18.155,0-32.927,14.771-32.927,32.927s14.771,32.927,32.927,32.927s32.926-14.771,32.926-32.927
					S1298.632,519.108,1280.477,519.108z"/>
			</g>
			<g>
				<circle style="fill:#262626;" cx="1280.477" cy="644.31" r="34.408"/>
				<path style="fill:#565656;" d="M1280.477,680.2c-19.79,0-35.89-16.1-35.89-35.89s16.1-35.889,35.89-35.889
					c19.789,0,35.889,16.1,35.889,35.889S1300.266,680.2,1280.477,680.2z M1280.477,611.384c-18.155,0-32.927,14.771-32.927,32.926
					c0,18.156,14.771,32.927,32.927,32.927s32.926-14.771,32.926-32.927C1313.403,626.155,1298.632,611.384,1280.477,611.384z"/>
			</g>
			<g>
				<circle style="fill:#231F20;" cx="1308.445" cy="598.218" r="6.532"/>
			</g>
			<g style="opacity:0.1;enable-background:new    ;">
				<polygon points="1328.133,507.414 1232.821,507.414 1328.133,688.93 				"/>
			</g>
			<g>
				<rect x="1328.133" y="507.414" style="fill:#383838;" width="95.404" height="181.516"/>
			</g>
			<g>
				<circle style="fill:#262626;" cx="1375.789" cy="552.034" r="34.408"/>
				<path style="fill:#565656;" d="M1375.789,587.924c-19.789,0-35.889-16.1-35.889-35.89s16.1-35.89,35.889-35.89
					c19.79,0,35.89,16.1,35.89,35.89S1395.579,587.924,1375.789,587.924z M1375.789,519.108c-18.155,0-32.926,14.771-32.926,32.927
					s14.771,32.927,32.926,32.927c18.156,0,32.927-14.771,32.927-32.927S1393.945,519.108,1375.789,519.108z"/>
			</g>
			<g>
				<circle style="fill:#231F20;" cx="1375.789" cy="552.034" r="9.936"/>
			</g>
			<g>
				<circle style="fill:#262626;" cx="1375.789" cy="644.31" r="34.408"/>
				<path style="fill:#565656;" d="M1375.789,680.2c-19.789,0-35.889-16.1-35.889-35.89s16.1-35.889,35.889-35.889
					c19.79,0,35.89,16.1,35.89,35.889S1395.579,680.2,1375.789,680.2z M1375.789,611.384c-18.155,0-32.926,14.771-32.926,32.926
					c0,18.156,14.771,32.927,32.926,32.927c18.156,0,32.927-14.771,32.927-32.927
					C1408.715,626.155,1393.945,611.384,1375.789,611.384z"/>
			</g>
			<g>
				<circle style="fill:#231F20;" cx="1375.789" cy="644.31" r="9.936"/>
			</g>
			<g>
				<circle style="fill:#231F20;" cx="1348.097" cy="598.218" r="6.532"/>
			</g>
			<g>
				<circle style="fill:#231F20;" cx="1403.757" cy="598.218" r="6.532"/>
			</g>
			<g style="opacity:0.1;enable-background:new    ;">
				<polygon points="1423.537,507.414 1328.133,507.414 1423.537,688.93 				"/>
			</g>
			<g>
				<rect x="1232.821" y="325.99" style="fill:#383838;" width="95.404" height="181.516"/>
			</g>
			<g>
				<circle style="fill:#262626;" cx="1280.477" cy="370.61" r="34.408"/>
				<path style="fill:#565656;" d="M1280.477,406.5c-19.79,0-35.89-16.1-35.89-35.889s16.1-35.89,35.89-35.89
					c19.789,0,35.889,16.1,35.889,35.89S1300.266,406.5,1280.477,406.5z M1280.477,337.684c-18.155,0-32.927,14.771-32.927,32.927
					c0,18.155,14.771,32.926,32.927,32.926s32.926-14.771,32.926-32.926C1313.403,352.455,1298.632,337.684,1280.477,337.684z"/>
			</g>
			<g>
				<circle style="fill:#262626;" cx="1280.477" cy="462.794" r="34.408"/>
				<path style="fill:#565656;" d="M1280.477,498.684c-19.79,0-35.89-16.1-35.89-35.89s16.1-35.889,35.89-35.889
					c19.789,0,35.889,16.1,35.889,35.889S1300.266,498.684,1280.477,498.684z M1280.477,429.868
					c-18.155,0-32.927,14.771-32.927,32.926c0,18.156,14.771,32.927,32.927,32.927s32.926-14.771,32.926-32.927
					C1313.403,444.639,1298.632,429.868,1280.477,429.868z"/>
			</g>
			<g>
				<circle style="fill:#231F20;" cx="1308.445" cy="416.702" r="6.532"/>
			</g>
			<g style="opacity:0.1;enable-background:new    ;">
				<polygon points="1328.133,325.99 1232.821,325.99 1328.133,507.414 				"/>
			</g>
			<g>
				<polygon style="fill:#262626;" points="1327.141,683.502 1327.141,501.986 1342.873,504.7 1342.873,507.506 1342.873,688.93 
									"/>
			</g>
			<g>
				<polygon style="fill:#383838;" points="1439.392,507.414 1428.697,506.068 1345.148,505.526 1343.988,507.414 1343.988,688.93 
					1439.392,688.93 				"/>
			</g>
			<g>
				<circle style="fill:#262626;" cx="1391.736" cy="552.034" r="34.408"/>
				<path style="fill:#565656;" d="M1391.736,587.924c-19.79,0-35.89-16.1-35.89-35.89s16.1-35.89,35.89-35.89
					s35.89,16.1,35.89,35.89S1411.526,587.924,1391.736,587.924z M1391.736,519.108c-18.156,0-32.927,14.771-32.927,32.927
					s14.771,32.927,32.927,32.927s32.927-14.771,32.927-32.927S1409.892,519.108,1391.736,519.108z"/>
			</g>
			<g>
				<circle style="fill:#231F20;" cx="1391.736" cy="552.034" r="9.936"/>
			</g>
			<g>
				<circle style="fill:#262626;" cx="1391.736" cy="644.31" r="34.408"/>
				<path style="fill:#565656;" d="M1391.736,680.2c-19.79,0-35.89-16.1-35.89-35.89s16.1-35.889,35.89-35.889
					s35.89,16.1,35.89,35.889S1411.526,680.2,1391.736,680.2z M1391.736,611.384c-18.156,0-32.927,14.771-32.927,32.926
					c0,18.156,14.771,32.927,32.927,32.927s32.927-14.771,32.927-32.927C1424.663,626.155,1409.892,611.384,1391.736,611.384z"/>
			</g>
			<g>
				<circle style="fill:#231F20;" cx="1391.736" cy="644.31" r="9.936"/>
			</g>
			<g>
				<circle style="fill:#231F20;" cx="1419.612" cy="598.218" r="6.532"/>
			</g>
			<g>
				<circle style="fill:#231F20;" cx="1363.86" cy="598.218" r="6.532"/>
			</g>
			<g style="opacity:0.1;enable-background:new    ;">
				<polygon points="1439.392,507.414 1344.08,507.414 1439.392,688.93 				"/>
			</g>
			<g>
				<polygon style="fill:#383838;" points="1328.348,501.986 1423.66,501.986 1439.392,507.414 1344.08,507.414 				"/>
			</g>
			<g>
				<polygon style="fill:#383838;" points="1343.988,325.99 1299.85,325.99 1248.584,325.99 1248.584,688.93 1343.988,688.93 				
					"/>
			</g>
			<g>
				<rect x="1248.584" y="507.414" style="fill:#383838;" width="95.404" height="181.516"/>
			</g>
			<g>
				<polygon style="fill:#262626;" points="1232.852,683.41 1232.852,501.986 1248.584,507.414 1248.584,688.93 				"/>
			</g>
			<g>
				<circle style="fill:#262626;" cx="1296.24" cy="552.034" r="34.408"/>
				<path style="fill:#565656;" d="M1296.24,587.924c-19.79,0-35.89-16.1-35.89-35.89s16.1-35.89,35.89-35.89
					s35.89,16.1,35.89,35.89S1316.03,587.924,1296.24,587.924z M1296.24,519.108c-18.156,0-32.927,14.771-32.927,32.927
					s14.771,32.927,32.927,32.927s32.927-14.771,32.927-32.927S1314.396,519.108,1296.24,519.108z"/>
			</g>
			<g>
				<circle style="fill:#231F20;" cx="1296.24" cy="552.034" r="9.936"/>
			</g>
			<g>
				<circle style="fill:#262626;" cx="1296.24" cy="644.31" r="34.408"/>
				<path style="fill:#565656;" d="M1296.24,680.2c-19.79,0-35.89-16.1-35.89-35.89s16.1-35.889,35.89-35.889
					s35.89,16.1,35.89,35.889S1316.03,680.2,1296.24,680.2z M1296.24,611.384c-18.156,0-32.927,14.771-32.927,32.926
					c0,18.156,14.771,32.927,32.927,32.927s32.927-14.771,32.927-32.927C1329.167,626.155,1314.396,611.384,1296.24,611.384z"/>
			</g>
			<g>
				<circle style="fill:#231F20;" cx="1296.24" cy="644.31" r="9.936"/>
			</g>
			<g>
				<circle style="fill:#231F20;" cx="1324.116" cy="598.218" r="6.532"/>
			</g>
			<g>
				<circle style="fill:#231F20;" cx="1268.456" cy="598.218" r="6.532"/>
			</g>
			<g style="opacity:0.1;enable-background:new    ;">
				<polygon points="1343.988,507.414 1248.584,507.414 1343.988,688.93 				"/>
			</g>
			<g>
				<polygon style="fill:#383838;" points="1343.988,325.99 1294.929,324.87 1248.584,325.99 1248.584,507.506 1343.988,507.506 
									"/>
			</g>
			<g>
				<polygon style="fill:#262626;" points="1232.852,501.986 1232.852,320.47 1248.584,325.99 1248.584,507.414 				"/>
			</g>
			<g>
				<circle style="fill:#262626;" cx="1296.24" cy="370.61" r="34.408"/>
				<path style="fill:#565656;" d="M1296.24,406.5c-19.79,0-35.89-16.1-35.89-35.889s16.1-35.89,35.89-35.89s35.89,16.1,35.89,35.89
					S1316.03,406.5,1296.24,406.5z M1296.24,337.684c-18.156,0-32.927,14.771-32.927,32.927c0,18.155,14.771,32.926,32.927,32.926
					s32.927-14.771,32.927-32.926C1329.167,352.455,1314.396,337.684,1296.24,337.684z"/>
			</g>
			<g>
				<circle style="fill:#231F20;" cx="1296.24" cy="370.61" r="9.936"/>
			</g>
			<g>
				<circle style="fill:#262626;" cx="1296.24" cy="462.794" r="34.408"/>
				<path style="fill:#565656;" d="M1296.24,498.684c-19.79,0-35.89-16.1-35.89-35.89s16.1-35.889,35.89-35.889
					s35.89,16.1,35.89,35.889S1316.03,498.684,1296.24,498.684z M1296.24,429.868c-18.156,0-32.927,14.771-32.927,32.926
					c0,18.156,14.771,32.927,32.927,32.927s32.927-14.771,32.927-32.927C1329.167,444.639,1314.396,429.868,1296.24,429.868z"/>
			</g>
			<g>
				<circle style="fill:#231F20;" cx="1296.24" cy="462.794" r="9.936"/>
			</g>
			<g>
				<circle style="fill:#231F20;" cx="1324.116" cy="416.702" r="6.532"/>
			</g>
			<g>
				<circle style="fill:#231F20;" cx="1268.456" cy="416.702" r="6.532"/>
			</g>
			<g style="opacity:0.1;enable-background:new    ;">
				<polygon points="1343.988,325.99 1248.584,325.99 1343.988,507.414 				"/>
			</g>
			<g>
				<polygon style="fill:#383838;" points="1232.852,320.47 1328.256,320.47 1343.988,325.99 1248.584,325.99 				"/>
			</g>
		</g>
	</g>
	<g>
		<g>
			<polygon style="fill:#252525;" points="0,295.397 0,294.277 322.252,295.397 322.252,609.792 0,609.792 			"/>
		</g>
		<g>
			<polygon style="fill:#383838;" points="337.984,289.877 0,289.877 0,295.397 322.252,295.397 			"/>
		</g>
		<g>
			<g>
				<rect x="320.293" y="434.764" style="fill:#383838;" width="101.053" height="192.264"/>
			</g>
			<g style="opacity:0.15;enable-background:new    ;">
				<ellipse cx="370.819" cy="620.694" rx="133.016" ry="22.023"/>
			</g>
			<polygon style="fill:#231F20;" points="320.289,242.601 320.289,627.031 421.349,627.031 438.009,621.181 438.009,236.751 
				336.959,236.751 			"/>
			<g>
				<polygon style="fill:#383838;" points="320.293,242.597 367.044,242.597 421.346,242.597 421.346,627.028 320.293,627.028 				
					"/>
			</g>
			<g>
				<rect x="320.293" y="434.764" style="fill:#383838;" width="101.053" height="192.264"/>
			</g>
			<g>
				<polygon style="fill:#262626;" points="438.01,621.182 438.01,429.015 421.346,434.764 421.346,627.028 				"/>
			</g>
			<g>
				<circle style="fill:#262626;" cx="370.868" cy="482.026" r="36.445"/>
				<path style="fill:#565656;" d="M332.853,482.026c0-20.961,17.054-38.015,38.016-38.015c20.961,0,38.015,17.053,38.015,38.015
					s-17.054,38.015-38.015,38.015C349.907,520.041,332.853,502.987,332.853,482.026z M335.992,482.026
					c0,19.231,15.646,34.876,34.877,34.876c19.23,0,34.876-15.646,34.876-34.876c0-19.23-15.646-34.876-34.876-34.876
					C351.637,447.15,335.992,462.796,335.992,482.026z"/>
			</g>
			<g>
				<circle style="fill:#231F20;" cx="370.868" cy="482.026" r="10.524"/>
			</g>
			<g>
				<circle style="fill:#262626;" cx="370.868" cy="579.766" r="36.445"/>
				<path style="fill:#565656;" d="M332.853,579.766c0-20.961,17.054-38.015,38.016-38.015c20.961,0,38.015,17.053,38.015,38.015
					s-17.054,38.015-38.015,38.015C349.907,617.781,332.853,600.728,332.853,579.766z M335.992,579.766
					c0,19.23,15.646,34.876,34.877,34.876c19.23,0,34.876-15.646,34.876-34.876s-15.646-34.876-34.876-34.876
					C351.637,544.89,335.992,560.536,335.992,579.766z"/>
			</g>
			<g>
				<circle style="fill:#231F20;" cx="370.868" cy="579.766" r="10.524"/>
			</g>
			<g>
				<circle style="fill:#231F20;" cx="341.341" cy="530.945" r="6.919"/>
			</g>
			<g>
				<circle style="fill:#231F20;" cx="400.297" cy="530.945" r="6.919"/>
			</g>
			<g style="opacity:0.1;enable-background:new    ;">
				<polygon points="320.293,434.764 421.346,434.764 320.293,627.028 				"/>
			</g>
			<g>
				<polygon style="fill:#383838;" points="320.293,242.597 372.257,241.411 421.346,242.597 421.346,434.862 320.293,434.862 				
					"/>
			</g>
			<g>
				<polygon style="fill:#262626;" points="438.01,429.015 438.01,236.75 421.346,242.597 421.346,434.764 				"/>
			</g>
			<g>
				<circle style="fill:#262626;" cx="370.868" cy="289.859" r="36.445"/>
				<path style="fill:#565656;" d="M332.853,289.859c0-20.961,17.054-38.015,38.016-38.015c20.961,0,38.015,17.054,38.015,38.015
					s-17.054,38.015-38.015,38.015C349.907,327.874,332.853,310.821,332.853,289.859z M335.992,289.859
					c0,19.23,15.646,34.876,34.877,34.876c19.23,0,34.876-15.646,34.876-34.876c0-19.231-15.646-34.876-34.876-34.876
					C351.637,254.983,335.992,270.629,335.992,289.859z"/>
			</g>
			<g>
				<circle style="fill:#231F20;" cx="370.868" cy="289.859" r="10.524"/>
			</g>
			<g>
				<circle style="fill:#262626;" cx="370.868" cy="387.502" r="36.445"/>
				<path style="fill:#565656;" d="M332.853,387.502c0-20.961,17.054-38.015,38.016-38.015c20.961,0,38.015,17.054,38.015,38.015
					s-17.054,38.015-38.015,38.015C349.907,425.517,332.853,408.464,332.853,387.502z M335.992,387.502
					c0,19.23,15.646,34.876,34.877,34.876c19.23,0,34.876-15.646,34.876-34.876c0-19.231-15.646-34.876-34.876-34.876
					C351.637,352.626,335.992,368.271,335.992,387.502z"/>
			</g>
			<g>
				<circle style="fill:#231F20;" cx="370.868" cy="387.502" r="10.524"/>
			</g>
			<g>
				<circle style="fill:#231F20;" cx="341.341" cy="338.681" r="6.919"/>
			</g>
			<g>
				<circle style="fill:#231F20;" cx="400.297" cy="338.681" r="6.919"/>
			</g>
			<g style="opacity:0.1;enable-background:new    ;">
				<polygon points="320.293,242.597 421.346,242.597 320.293,434.764 				"/>
			</g>
			<g>
				<polygon style="fill:#383838;" points="438.01,236.75 336.956,236.75 320.293,242.597 421.346,242.597 				"/>
			</g>
		</g>
		<g>
			<g style="opacity:0.15;enable-background:new    ;">
				<ellipse cx="256.043" cy="689.022" rx="160.309" ry="26.542"/>
			</g>
			<g>
				<polygon style="fill:#383838;" points="367.179,507.414 271.775,507.414 271.775,688.93 351.416,688.93 367.179,683.41 				"/>
			</g>
			<g>
				<circle style="fill:#262626;" cx="319.523" cy="552.034" r="34.408"/>
				<path style="fill:#565656;" d="M283.634,552.034c0-19.79,16.1-35.89,35.889-35.89c19.79,0,35.89,16.1,35.89,35.89
					s-16.1,35.89-35.89,35.89C299.734,587.924,283.634,571.824,283.634,552.034z M286.597,552.034
					c0,18.156,14.771,32.927,32.926,32.927s32.927-14.771,32.927-32.927s-14.771-32.927-32.927-32.927
					S286.597,533.879,286.597,552.034z"/>
			</g>
			<g>
				<circle style="fill:#262626;" cx="319.523" cy="644.31" r="34.408"/>
				<path style="fill:#565656;" d="M283.634,644.31c0-19.79,16.1-35.889,35.889-35.889c19.79,0,35.89,16.1,35.89,35.889
					s-16.1,35.89-35.89,35.89C299.734,680.2,283.634,664.1,283.634,644.31z M286.597,644.31c0,18.156,14.771,32.927,32.926,32.927
					s32.927-14.771,32.927-32.927c0-18.155-14.771-32.926-32.927-32.926S286.597,626.155,286.597,644.31z"/>
			</g>
			<g>
				<circle style="fill:#231F20;" cx="291.555" cy="598.218" r="6.532"/>
			</g>
			<g style="opacity:0.1;enable-background:new    ;">
				<polygon points="271.867,507.414 367.179,507.414 271.867,688.93 				"/>
			</g>
			<g>
				<rect x="176.463" y="507.414" style="fill:#383838;" width="95.404" height="181.516"/>
			</g>
			<g>
				<circle style="fill:#262626;" cx="224.211" cy="552.034" r="34.408"/>
				<path style="fill:#565656;" d="M188.322,552.034c0-19.79,16.1-35.89,35.89-35.89c19.789,0,35.889,16.1,35.889,35.89
					s-16.1,35.89-35.889,35.89C204.421,587.924,188.322,571.824,188.322,552.034z M191.285,552.034
					c0,18.156,14.771,32.927,32.927,32.927c18.155,0,32.926-14.771,32.926-32.927s-14.771-32.927-32.926-32.927
					C206.055,519.108,191.285,533.879,191.285,552.034z"/>
			</g>
			<g>
				<circle style="fill:#231F20;" cx="224.211" cy="552.034" r="9.936"/>
			</g>
			<g>
				<circle style="fill:#262626;" cx="224.211" cy="644.31" r="34.408"/>
				<path style="fill:#565656;" d="M188.322,644.31c0-19.79,16.1-35.889,35.89-35.889c19.789,0,35.889,16.1,35.889,35.889
					S244,680.2,224.211,680.2C204.421,680.2,188.322,664.1,188.322,644.31z M191.285,644.31c0,18.156,14.771,32.927,32.927,32.927
					c18.155,0,32.926-14.771,32.926-32.927c0-18.155-14.771-32.926-32.926-32.926C206.055,611.384,191.285,626.155,191.285,644.31z"
					/>
			</g>
			<g>
				<circle style="fill:#231F20;" cx="224.211" cy="644.31" r="9.936"/>
			</g>
			<g>
				<circle style="fill:#231F20;" cx="251.903" cy="598.218" r="6.532"/>
			</g>
			<g>
				<circle style="fill:#231F20;" cx="196.243" cy="598.218" r="6.532"/>
			</g>
			<g style="opacity:0.1;enable-background:new    ;">
				<polygon points="176.463,507.414 271.867,507.414 176.463,688.93 				"/>
			</g>
			<g>
				<rect x="271.775" y="325.99" style="fill:#383838;" width="95.404" height="181.516"/>
			</g>
			<g>
				<circle style="fill:#262626;" cx="319.523" cy="370.61" r="34.408"/>
				<path style="fill:#565656;" d="M283.634,370.61c0-19.79,16.1-35.89,35.889-35.89c19.79,0,35.89,16.1,35.89,35.89
					s-16.1,35.889-35.89,35.889C299.734,406.5,283.634,390.4,283.634,370.61z M286.597,370.61c0,18.155,14.771,32.926,32.926,32.926
					s32.927-14.771,32.927-32.926c0-18.156-14.771-32.927-32.927-32.927S286.597,352.455,286.597,370.61z"/>
			</g>
			<g>
				<circle style="fill:#262626;" cx="319.523" cy="462.794" r="34.408"/>
				<path style="fill:#565656;" d="M283.634,462.794c0-19.79,16.1-35.889,35.889-35.889c19.79,0,35.89,16.1,35.89,35.889
					s-16.1,35.89-35.89,35.89C299.734,498.684,283.634,482.584,283.634,462.794z M286.597,462.794
					c0,18.156,14.771,32.927,32.926,32.927s32.927-14.771,32.927-32.927c0-18.155-14.771-32.926-32.927-32.926
					S286.597,444.639,286.597,462.794z"/>
			</g>
			<g>
				<circle style="fill:#231F20;" cx="291.555" cy="416.702" r="6.532"/>
			</g>
			<g style="opacity:0.1;enable-background:new    ;">
				<polygon points="271.867,325.99 367.179,325.99 271.867,507.414 				"/>
			</g>
			<g>
				<polygon style="fill:#262626;" points="272.859,683.502 272.859,501.986 257.127,504.7 257.127,507.506 257.127,688.93 				"/>
			</g>
			<g>
				<polygon style="fill:#383838;" points="160.608,507.414 171.303,506.068 254.852,505.526 256.012,507.414 256.012,688.93 
					160.608,688.93 				"/>
			</g>
			<g>
				<circle style="fill:#262626;" cx="208.264" cy="552.034" r="34.408"/>
				<path style="fill:#565656;" d="M172.374,552.034c0-19.79,16.1-35.89,35.89-35.89s35.89,16.1,35.89,35.89
					s-16.1,35.89-35.89,35.89S172.374,571.824,172.374,552.034z M175.337,552.034c0,18.156,14.771,32.927,32.927,32.927
					s32.927-14.771,32.927-32.927s-14.771-32.927-32.927-32.927S175.337,533.879,175.337,552.034z"/>
			</g>
			<g>
				<circle style="fill:#231F20;" cx="208.264" cy="552.034" r="9.936"/>
			</g>
			<g>
				<circle style="fill:#262626;" cx="208.264" cy="644.31" r="34.408"/>
				<path style="fill:#565656;" d="M172.374,644.31c0-19.79,16.1-35.889,35.89-35.889s35.89,16.1,35.89,35.889
					s-16.1,35.89-35.89,35.89S172.374,664.1,172.374,644.31z M175.337,644.31c0,18.156,14.771,32.927,32.927,32.927
					s32.927-14.771,32.927-32.927c0-18.155-14.771-32.926-32.927-32.926S175.337,626.155,175.337,644.31z"/>
			</g>
			<g>
				<circle style="fill:#231F20;" cx="208.264" cy="644.31" r="9.936"/>
			</g>
			<g>
				<circle style="fill:#231F20;" cx="180.388" cy="598.218" r="6.532"/>
			</g>
			<g>
				<circle style="fill:#231F20;" cx="236.14" cy="598.218" r="6.532"/>
			</g>
			<g style="opacity:0.1;enable-background:new    ;">
				<polygon points="160.608,507.414 255.92,507.414 160.608,688.93 				"/>
			</g>
			<g>
				<polygon style="fill:#383838;" points="271.652,501.986 176.34,501.986 160.608,507.414 255.92,507.414 				"/>
			</g>
			<g>
				<polygon style="fill:#383838;" points="256.012,325.99 300.15,325.99 351.416,325.99 351.416,688.93 256.012,688.93 				"/>
			</g>
			<g>
				<rect x="256.012" y="507.414" style="fill:#383838;" width="95.404" height="181.516"/>
			</g>
			<g>
				<polygon style="fill:#262626;" points="367.148,683.41 367.148,501.986 351.416,507.414 351.416,688.93 				"/>
			</g>
			<g>
				<circle style="fill:#262626;" cx="303.76" cy="552.034" r="34.408"/>
				<path style="fill:#565656;" d="M267.87,552.034c0-19.79,16.1-35.89,35.89-35.89s35.89,16.1,35.89,35.89s-16.1,35.89-35.89,35.89
					S267.87,571.824,267.87,552.034z M270.833,552.034c0,18.156,14.771,32.927,32.927,32.927s32.927-14.771,32.927-32.927
					s-14.771-32.927-32.927-32.927S270.833,533.879,270.833,552.034z"/>
			</g>
			<g>
				<circle style="fill:#231F20;" cx="303.76" cy="552.034" r="9.936"/>
			</g>
			<g>
				<circle style="fill:#262626;" cx="303.76" cy="644.31" r="34.408"/>
				<path style="fill:#565656;" d="M267.87,644.31c0-19.79,16.1-35.889,35.89-35.889s35.89,16.1,35.89,35.889
					s-16.1,35.89-35.89,35.89S267.87,664.1,267.87,644.31z M270.833,644.31c0,18.156,14.771,32.927,32.927,32.927
					s32.927-14.771,32.927-32.927c0-18.155-14.771-32.926-32.927-32.926S270.833,626.155,270.833,644.31z"/>
			</g>
			<g>
				<circle style="fill:#231F20;" cx="303.76" cy="644.31" r="9.936"/>
			</g>
			<g>
				<circle style="fill:#231F20;" cx="275.884" cy="598.218" r="6.532"/>
			</g>
			<g>
				<circle style="fill:#231F20;" cx="331.544" cy="598.218" r="6.532"/>
			</g>
			<g style="opacity:0.1;enable-background:new    ;">
				<polygon points="256.012,507.414 351.416,507.414 256.012,688.93 				"/>
			</g>
			<g>
				<polygon style="fill:#383838;" points="256.012,325.99 305.071,324.87 351.416,325.99 351.416,507.506 256.012,507.506 				"/>
			</g>
			<g>
				<polygon style="fill:#262626;" points="367.148,501.986 367.148,320.47 351.416,325.99 351.416,507.414 				"/>
			</g>
			<g>
				<circle style="fill:#262626;" cx="303.76" cy="370.61" r="34.408"/>
				<path style="fill:#565656;" d="M267.87,370.61c0-19.79,16.1-35.89,35.89-35.89s35.89,16.1,35.89,35.89
					s-16.1,35.889-35.89,35.889S267.87,390.4,267.87,370.61z M270.833,370.61c0,18.155,14.771,32.926,32.927,32.926
					s32.927-14.771,32.927-32.926c0-18.156-14.771-32.927-32.927-32.927S270.833,352.455,270.833,370.61z"/>
			</g>
			<g>
				<circle style="fill:#231F20;" cx="303.76" cy="370.61" r="9.936"/>
			</g>
			<g>
				<circle style="fill:#262626;" cx="303.76" cy="462.794" r="34.408"/>
				<path style="fill:#565656;" d="M267.87,462.794c0-19.79,16.1-35.889,35.89-35.889s35.89,16.1,35.89,35.889
					s-16.1,35.89-35.89,35.89S267.87,482.584,267.87,462.794z M270.833,462.794c0,18.156,14.771,32.927,32.927,32.927
					s32.927-14.771,32.927-32.927c0-18.155-14.771-32.926-32.927-32.926S270.833,444.639,270.833,462.794z"/>
			</g>
			<g>
				<circle style="fill:#231F20;" cx="303.76" cy="462.794" r="9.936"/>
			</g>
			<g>
				<circle style="fill:#231F20;" cx="275.884" cy="416.702" r="6.532"/>
			</g>
			<g>
				<circle style="fill:#231F20;" cx="331.544" cy="416.702" r="6.532"/>
			</g>
			<g style="opacity:0.1;enable-background:new    ;">
				<polygon points="256.012,325.99 351.416,325.99 256.012,507.414 				"/>
			</g>
			<g>
				<polygon style="fill:#383838;" points="367.148,320.47 271.744,320.47 256.012,325.99 351.416,325.99 				"/>
			</g>
		</g>
	</g>
</g>
<g style="display:none;">
	<g style="display:inline;">
		<g>
			<path style="fill:none;stroke:#F8981D;stroke-width:10;stroke-miterlimit:10;" d="M115.878,241.031
				c2.507-2.179,5.048-4.336,7.622-6.471"/>
			<path style="fill:none;stroke:#F8981D;stroke-width:10;stroke-miterlimit:10;stroke-dasharray:20.035,801.3988;" d="
				M832.643,239.928c-2.561,53.224-64.441,99.946-134.946,117.746c-76.038,19.196-159.337,12.398-238.917,3.673
				c-46.823-5.133-101.348-15.228-118.628-47.337c-14.685-27.287,7.286-59.57,41.141-75.41s76.221-18.454,116.417-17.109
				c132.674,4.438,256.592,46.3,381.075,80.023c124.483,33.723,261.478,59.92,388.798,32.385
				c33.183-7.176,69.575-22.402,72.497-47.524c2.9-24.931-28.778-44.247-58.717-56.515
				c-94.147-38.578-205.145-54.937-312.477-46.055c-59.676,4.939-120.435,18.451-163.944,48.607
				c-43.509,30.157-65.183,79.763-39.787,119.406c17.007,26.549,52.311,45.167,90.436,54.504
				c38.125,9.337,79.114,10.373,119.313,9.379c203.47-5.03,403.869-61.522,558.974-157.574
				c39.633-24.543,86.381-105.486,42.841-135.586c-97.159-67.166-256.025-81.147-372.35-32.768
				c-116.325,48.379-201.573,82.839-171.54,177.922c10.726,33.958,31.932,65.699,44.602,99.3
				c12.671,33.601,15.951,71.398-7.784,101.653c-28.567,36.416-88.555,52.875-145.245,60.23
				c-114.273,14.826-234.714,3.312-339.864-32.49c-43.211-14.713-88.759-39.24-89.81-73.974
				c-0.764-25.241,24.225-48.215,55.4-59.251c31.175-11.037,67.35-11.959,101.823-9.325
				c131.459,10.044,253.229,72.05,311.323,158.529c20.58,30.635,32.965,68.363,9.683,97.954
				c-22.692,28.84-71.121,40.257-115.57,47.792c-113.798,19.292-230.695,28.867-347.534,28.464
				c-54.863-0.189-112.715-3.26-158.366-25.424c-79.433-38.565-93.309-119.471-83.49-188.633
				c4.482-31.571,10.729-67.214-17.044-91.671c-30.173-26.57-89.483-26.063-129.534-7.68c-54.098,24.83-79.823,75.88-69.111,121.796
				c10.712,45.916,53.756,85.808,108.073,110.384c54.316,24.576,118.924,35.016,182.818,36.851
				c87.642,2.516,184.659-14.599,234.53-67.153c32.785-34.548,40.711-79.818,77.643-112.07
				c45.998-40.167,123.954-49.962,195.092-57.115c103.234-10.38,209.142-20.695,310.803-3.999
				c101.66,16.696,199.794,66.417,227.809,139.529c11.77,30.716,8.509,67.327-22.854,89.579
				c-32.67,23.179-83.663,23.67-129.251,22.712c-48.686-1.023-98.149-2.14-144.48-13.083s-89.933-33.267-109.033-65.902
				c-22.309-38.118-7.054-83.482,24.825-117.802c31.878-34.32,78.267-59.835,123.782-84.694
				c77.254-42.192,154.508-84.385,231.761-126.577c27.948-15.264,59.329-38.081,47.368-61.986
				c-9.765-19.518-42.581-25.967-70.72-29.353c-191.237-23.013-385.718-31.7-579.383-25.883
				c-114.069,3.427-229.528,12.157-335.91,42.335s-203.833,84.079-253.523,158.944c-49.69,74.865-43.459,171.725,31.621,234.367
				c57.805,48.229,147.473,70.953,235.154,75.444c85.511,4.379,174.004-7.34,246.922-40.167s128.534-88.048,139.771-149.946
				c11.237-61.899-26.336-128.91-99.212-161.787c-36.833-16.617-85.371-23.843-123.408-8.735
				c-30.222,12.004-48.344,35.722-58.549,59.668c-18.06,42.377-15.184,90.611,16.069,128.699
				c31.252,38.088,93.133,63.563,153.443,57.302c50.887-5.282,95.789-35.722,105.712-71.677c0.684-2.48-4.378-3.31-5.263-0.864
				c-20.434,56.523-43.66,113.165-88.197,161.537c-49.677,53.955-131.778,96.618-220.924,94.517
				c-71.248-1.68-137.019-31.717-183.145-71.305c-46.126-39.587-75.146-88.105-100.078-136.748
				c-19.833-38.695-37.637-78.436-42.341-119.597c-4.704-41.161,4.636-84.254,35.573-118.869
				c62.707-70.165,201.27-87.5,308.884-58.082s188.775,94.945,254.759,163.497c65.984,68.552,121.942,142.962,201.429,203.437
				c70.626,53.733,158.824,95.13,255.185,119.775c66.32,16.962,145.017,24.865,202.872-4.211
				c54.708-27.494,74.248-80.917,69.206-129.19c-10.882-104.186-118.821-194.383-250.411-235.989
				c-131.59-41.606-282.41-40.428-422.638-18.4c-64.05,10.061-136.311,30.919-153.892,76.894
				c-10.026,26.217,1.55,55.052,23.778,76.928c22.228,21.875,54.017,37.626,87.111,50.26
				c146.729,56.018,331.867,54.786,477.167-3.175c66.058-26.351,127.833-69.008,135.297-123.596
				c5.129-37.507-16.912-75.053-50.67-103.621s-78.365-49.199-124.199-66.698c-176.731-67.476-382.674-93.602-580.319-73.619
				c-64.753,6.547-131.03,18.762-181.528,49.003c-69.671,41.723-97.706,113.677-81.461,178.299S457.419,484.62,527.91,525.606
				c70.491,40.986,154.992,67.331,241.016,87.084c114.527,26.299,244.473,40.704,350.651-0.151
				c85.22-32.791,140.172-95.664,182.347-158.787c26.629-39.855,49.992-81.502,58.321-125.409s0.513-90.612-31.587-128.268
				c-48.421-56.803-141.456-83.521-229.776-101.746C979.637,73.722,857.001,57.842,733.419,51.004
				c-125.381-6.937-255.441-4.001-370.781,32.476C247.299,119.956,149.04,195.703,135.09,286.725
				c-16.024,104.552,85.108,206.073,216.724,249.398c131.616,43.325,285.504,36.823,424.013,7.001
				c106.32-22.892,212.286-62.116,271.99-130.16c26.667-30.392,41.012-73.667,7.652-100.323
				c-30.281-24.195-82.811-21.724-127.013-15.783c-63.168,8.491-134.955,26.09-156.116,70.265
				c-16.753,34.972,9.618,76.305,54.101,94.149"/>
			<path style="fill:none;stroke:#F8981D;stroke-width:10;stroke-miterlimit:10;" d="M998.649,236.145
				c-2.047-2.616-4.148-5.206-6.3-7.769"/>
		</g>
	</g>
	<g style="display:inline;">
		<g>
			<path style="fill:none;stroke:#41B655;stroke-width:10;stroke-miterlimit:10;" d="M1528.242,515.097
				c-2.507,2.179-5.048,4.336-7.622,6.471"/>
			<path style="fill:none;stroke:#41B655;stroke-width:10;stroke-miterlimit:10;stroke-dasharray:20.035,801.3988;" d="
				M811.478,516.2c2.561-53.224,64.441-99.946,134.946-117.746c76.038-19.197,159.337-12.398,238.917-3.673
				c46.823,5.133,101.348,15.228,118.628,47.337c14.685,27.287-7.286,59.57-41.141,75.41
				c-33.855,15.84-76.221,18.454-116.417,17.109c-132.675-4.438-256.592-46.3-381.075-80.023
				c-124.483-33.723-261.478-59.92-388.798-32.385c-33.183,7.176-69.575,22.402-72.497,47.524
				c-2.9,24.931,28.778,44.247,58.717,56.515c94.147,38.578,205.145,54.937,312.477,46.054
				c59.676-4.939,120.435-18.451,163.943-48.607c43.509-30.157,65.183-79.763,39.788-119.405
				c-17.007-26.549-52.311-45.167-90.436-54.504s-79.114-10.373-119.313-9.379c-203.47,5.03-403.87,61.522-558.974,157.574
				C70.61,522.544,23.861,603.486,67.402,633.586c97.159,67.166,256.025,81.147,372.35,32.768
				c116.325-48.379,201.572-82.839,171.54-177.922c-10.726-33.958-31.932-65.699-44.602-99.3s-15.951-71.398,7.784-101.653
				c28.568-36.416,88.555-52.875,145.245-60.23c114.273-14.826,234.714-3.312,339.864,32.49
				c43.211,14.713,88.759,39.24,89.81,73.975c0.764,25.241-24.225,48.215-55.4,59.251c-31.175,11.037-67.35,11.959-101.823,9.325
				C860.71,392.246,738.94,330.24,680.846,243.761c-20.58-30.635-32.965-68.363-9.683-97.954
				c22.692-28.84,71.121-40.257,115.57-47.792c113.798-19.292,230.695-28.867,347.534-28.464
				c54.863,0.189,112.715,3.26,158.366,25.424c79.433,38.565,93.309,119.471,83.49,188.633
				c-4.482,31.57-10.729,67.214,17.044,91.671c30.173,26.57,89.483,26.063,129.534,7.68c54.098-24.83,79.823-75.88,69.111-121.796
				c-10.711-45.916-53.756-85.808-108.073-110.384c-54.316-24.576-118.925-35.016-182.818-36.851
				c-87.642-2.516-184.659,14.599-234.53,67.152c-32.785,34.548-40.711,79.818-77.643,112.07
				c-45.998,40.167-123.954,49.962-195.092,57.114c-103.234,10.38-209.143,20.695-310.803,3.999s-199.794-66.417-227.809-139.529
				c-11.77-30.717-8.509-67.327,22.854-89.579c32.67-23.179,83.663-23.67,129.251-22.712c48.686,1.023,98.149,2.14,144.48,13.083
				c46.331,10.943,89.933,33.267,109.033,65.902c22.309,38.118,7.054,83.482-24.825,117.802
				c-31.878,34.32-78.267,59.835-123.782,84.694c-77.254,42.192-154.508,84.384-231.761,126.577
				c-27.948,15.264-59.329,38.081-47.368,61.986c9.765,19.518,42.581,25.967,70.72,29.353
				c191.237,23.013,385.718,31.701,579.383,25.883c114.069-3.427,229.528-12.157,335.91-42.335
				c106.382-30.178,203.833-84.079,253.523-158.944c49.69-74.865,43.459-171.725-31.621-234.367
				c-57.805-48.229-147.473-70.953-235.154-75.444c-85.511-4.379-174.004,7.34-246.922,40.167
				c-72.919,32.826-128.534,88.048-139.771,149.946c-11.237,61.899,26.336,128.91,99.212,161.787
				c36.833,16.617,85.371,23.843,123.409,8.735c30.222-12.004,48.344-35.722,58.549-59.668
				c18.06-42.378,15.184-90.611-16.069-128.699c-31.253-38.088-93.133-63.563-153.443-57.302
				c-50.887,5.282-95.789,35.722-105.712,71.677c-0.685,2.48,4.378,3.31,5.263,0.864c20.434-56.524,43.66-113.165,88.197-161.537
				c49.678-53.955,131.778-96.618,220.924-94.517c71.248,1.68,137.019,31.718,183.145,71.305
				c46.126,39.587,75.146,88.105,100.078,136.748c19.833,38.695,37.637,78.436,42.341,119.597
				c4.704,41.161-4.636,84.254-35.573,118.869c-62.708,70.165-201.27,87.499-308.884,58.082
				c-107.614-29.417-188.775-94.945-254.759-163.497c-65.984-68.552-121.942-142.962-201.429-203.437
				c-70.626-53.733-158.824-95.13-255.185-119.775c-66.32-16.962-145.017-24.865-202.872,4.211
				c-54.708,27.494-74.248,80.917-69.205,129.19c10.882,104.186,118.821,194.383,250.411,235.989
				c131.589,41.606,282.41,40.428,422.638,18.4c64.05-10.061,136.31-30.919,153.892-76.894c10.026-26.217-1.55-55.052-23.778-76.928
				c-22.228-21.875-54.017-37.626-87.111-50.26c-146.729-56.018-331.867-54.786-477.167,3.175
				c-66.058,26.351-127.832,69.008-135.297,123.596c-5.129,37.507,16.912,75.053,50.67,103.621
				c33.759,28.568,78.366,49.199,124.199,66.698c176.731,67.476,382.674,93.602,580.318,73.619
				c64.753-6.547,131.031-18.763,181.528-49.003c69.671-41.723,97.706-113.677,81.461-178.299s-72.044-121.582-142.535-162.568
				c-70.491-40.986-154.992-67.331-241.016-87.084c-114.527-26.299-244.473-40.704-350.651,0.151
				c-85.22,32.791-140.172,95.664-182.346,158.787c-26.629,39.855-49.993,81.502-58.321,125.409
				c-8.328,43.907-0.513,90.612,31.587,128.268c48.421,56.803,141.456,83.521,229.776,101.746
				c119.245,24.607,241.881,40.487,365.463,47.325c125.381,6.937,255.441,4.001,370.781-32.476
				c115.34-36.477,213.599-112.223,227.549-203.245c16.023-104.552-85.108-206.073-216.725-249.398
				c-131.616-43.325-285.504-36.823-424.012-7.001c-106.32,22.892-212.286,62.116-271.99,130.16
				c-26.667,30.392-41.012,73.667-7.652,100.323c30.281,24.195,82.811,21.724,127.013,15.783
				c63.169-8.491,134.955-26.09,156.116-70.265c16.753-34.972-9.618-76.305-54.1-94.149"/>
			<path style="fill:none;stroke:#41B655;stroke-width:10;stroke-miterlimit:10;" d="M645.472,519.983
				c2.047,2.616,4.148,5.206,6.3,7.769"/>
		</g>
	</g>
</g>
<g>
	<g>
		<g>
			<rect x="1572.445" y="756.689" width="4.803" height="9.174"/>
		</g>
		<g>
			<rect x="1543.205" y="756.689" width="4.803" height="9.174"/>
		</g>
		<g>
			<rect x="1513.966" y="756.689" width="4.803" height="9.174"/>
		</g>
		<g>
			<rect x="1484.726" y="756.689" width="4.803" height="9.174"/>
		</g>
		<g>
			<rect x="1455.487" y="756.689" width="4.803" height="9.174"/>
		</g>
		<g>
			<rect x="1426.247" y="756.689" width="4.803" height="9.174"/>
		</g>
		<g>
			<rect x="1397.008" y="756.689" width="4.803" height="9.174"/>
		</g>
		<g>
			<rect x="1367.768" y="756.689" width="4.803" height="9.174"/>
		</g>
		<g>
			<rect x="1338.529" y="756.689" width="4.803" height="9.174"/>
		</g>
		<g>
			<rect x="1309.289" y="756.689" width="4.803" height="9.174"/>
		</g>
		<g>
			<rect x="1280.05" y="756.689" width="4.803" height="9.174"/>
		</g>
		<g>
			<rect x="1250.811" y="756.689" width="4.803" height="9.174"/>
		</g>
		<g>
			<rect x="1221.571" y="756.689" width="4.803" height="9.174"/>
		</g>
		<g>
			<rect x="1192.332" y="756.689" width="4.803" height="9.174"/>
		</g>
		<g>
			<rect x="1163.092" y="756.689" width="4.803" height="9.174"/>
		</g>
		<g>
			<rect x="1133.853" y="756.689" width="4.803" height="9.174"/>
		</g>
		<g>
			<rect x="1104.613" y="756.689" width="4.803" height="9.174"/>
		</g>
		<g>
			<rect x="1075.374" y="756.689" width="4.803" height="9.174"/>
		</g>
		<g>
			<rect x="1046.134" y="756.689" width="4.803" height="9.174"/>
		</g>
		<g>
			<rect x="1016.895" y="756.689" width="4.803" height="9.174"/>
		</g>
		<g>
			<rect x="987.655" y="756.689" width="4.803" height="9.174"/>
		</g>
		<g>
			<rect x="958.416" y="756.689" width="4.803" height="9.174"/>
		</g>
		<g>
			<rect x="929.176" y="756.689" width="4.803" height="9.174"/>
		</g>
		<g>
			<rect x="899.937" y="756.689" width="4.803" height="9.174"/>
		</g>
		<g>
			<rect x="870.697" y="756.689" width="4.803" height="9.174"/>
		</g>
		<g>
			<rect x="841.458" y="756.689" width="4.803" height="9.174"/>
		</g>
		<g>
			<rect x="812.218" y="756.689" width="4.803" height="9.174"/>
		</g>
		<g>
			<rect x="782.979" y="756.689" width="4.803" height="9.174"/>
		</g>
		<g>
			<rect x="753.739" y="756.689" width="4.803" height="9.174"/>
		</g>
		<g>
			<rect x="724.5" y="756.689" width="4.803" height="9.174"/>
		</g>
		<g>
			<rect x="695.26" y="756.689" width="4.803" height="9.174"/>
		</g>
		<g>
			<rect x="666.021" y="756.689" width="4.803" height="9.174"/>
		</g>
		<g>
			<rect x="636.781" y="756.689" width="4.803" height="9.174"/>
		</g>
		<g>
			<rect x="607.542" y="756.689" width="4.803" height="9.174"/>
		</g>
		<g>
			<rect x="578.302" y="756.689" width="4.803" height="9.174"/>
		</g>
		<g>
			<rect x="549.063" y="756.689" width="4.803" height="9.174"/>
		</g>
		<g>
			<rect x="519.823" y="756.689" width="4.803" height="9.174"/>
		</g>
		<g>
			<rect x="490.584" y="756.689" width="4.803" height="9.174"/>
		</g>
		<g>
			<rect x="461.344" y="756.689" width="4.803" height="9.174"/>
		</g>
		<g>
			<rect x="432.105" y="756.689" width="4.803" height="9.174"/>
		</g>
		<g>
			<rect x="402.865" y="756.689" width="4.803" height="9.174"/>
		</g>
		<g>
			<rect x="373.626" y="756.689" width="4.803" height="9.174"/>
		</g>
		<g>
			<rect x="344.386" y="756.689" width="4.803" height="9.174"/>
		</g>
		<g>
			<rect x="315.147" y="756.689" width="4.803" height="9.174"/>
		</g>
		<g>
			<rect x="285.907" y="756.689" width="4.803" height="9.174"/>
		</g>
		<g>
			<rect x="256.668" y="756.689" width="4.803" height="9.174"/>
		</g>
		<g>
			<rect x="227.428" y="756.689" width="4.803" height="9.174"/>
		</g>
		<g>
			<rect x="198.189" y="756.689" width="4.803" height="9.174"/>
		</g>
		<g>
			<rect x="168.949" y="756.689" width="4.803" height="9.174"/>
		</g>
		<g>
			<rect x="139.71" y="756.689" width="4.803" height="9.174"/>
		</g>
		<g>
			<rect x="110.47" y="756.689" width="4.803" height="9.174"/>
		</g>
		<g>
			<rect x="81.231" y="756.689" width="4.803" height="9.174"/>
		</g>
		<g>
			<rect x="51.991" y="756.689" width="4.803" height="9.174"/>
		</g>
		<g>
			<rect x="22.752" y="756.689" width="4.803" height="9.174"/>
		</g>
	</g>
	<g>
		<g>
			<circle style="fill:#FEE900;" cx="1574.846" cy="757.191" r="4.086"/>
		</g>
		<g>
			<circle style="fill:#FEE900;" cx="1545.607" cy="757.191" r="4.086"/>
		</g>
		<g>
			<circle style="fill:#FEE900;" cx="1516.368" cy="757.191" r="4.086"/>
		</g>
		<g>
			<circle style="fill:#FEE900;" cx="1487.128" cy="757.191" r="4.086"/>
		</g>
		<g>
			<circle style="fill:#FEE900;" cx="1457.889" cy="757.191" r="4.086"/>
		</g>
		<g>
			<circle style="fill:#FEE900;" cx="1428.649" cy="757.191" r="4.086"/>
		</g>
		<g>
			<circle style="fill:#FEE900;" cx="1399.41" cy="757.191" r="4.086"/>
		</g>
		<g>
			<circle style="fill:#FEE900;" cx="1370.17" cy="757.191" r="4.086"/>
		</g>
		<g>
			<circle style="fill:#FEE900;" cx="1340.931" cy="757.191" r="4.086"/>
		</g>
		<g>
			<circle style="fill:#FEE900;" cx="1311.691" cy="757.191" r="4.086"/>
		</g>
		<g>
			<circle style="fill:#FEE900;" cx="1282.452" cy="757.191" r="4.086"/>
		</g>
		<g>
			<circle style="fill:#FEE900;" cx="1253.212" cy="757.191" r="4.086"/>
		</g>
		<g>
			<circle style="fill:#FEE900;" cx="1223.973" cy="757.191" r="4.086"/>
		</g>
		<g>
			<circle style="fill:#FEE900;" cx="1194.733" cy="757.191" r="4.086"/>
		</g>
		<g>
			<circle style="fill:#FEE900;" cx="1165.494" cy="757.191" r="4.086"/>
		</g>
		<g>
			<circle style="fill:#FEE900;" cx="1136.254" cy="757.191" r="4.086"/>
		</g>
		<g>
			<circle style="fill:#FEE900;" cx="1107.015" cy="757.191" r="4.086"/>
		</g>
		<g>
			<circle style="fill:#FEE900;" cx="1077.775" cy="757.191" r="4.086"/>
		</g>
		<g>
			<circle style="fill:#FEE900;" cx="1048.536" cy="757.191" r="4.086"/>
		</g>
		<g>
			<circle style="fill:#FEE900;" cx="1019.296" cy="757.191" r="4.086"/>
		</g>
		<g>
			<circle style="fill:#FEE900;" cx="990.057" cy="757.191" r="4.086"/>
		</g>
		<g>
			<circle style="fill:#FEE900;" cx="960.817" cy="757.191" r="4.086"/>
		</g>
		<g>
			<circle style="fill:#FEE900;" cx="931.578" cy="757.191" r="4.086"/>
		</g>
		<g>
			<circle style="fill:#FEE900;" cx="902.338" cy="757.191" r="4.086"/>
		</g>
		<g>
			<circle style="fill:#FEE900;" cx="873.099" cy="757.191" r="4.086"/>
		</g>
		<g>
			<circle style="fill:#FEE900;" cx="843.859" cy="757.191" r="4.086"/>
		</g>
		<g>
			<circle style="fill:#FEE900;" cx="814.62" cy="757.191" r="4.086"/>
		</g>
		<g>
			<circle style="fill:#FEE900;" cx="785.38" cy="757.191" r="4.086"/>
		</g>
		<g>
			<circle style="fill:#FEE900;" cx="756.141" cy="757.191" r="4.086"/>
		</g>
		<g>
			<circle style="fill:#FEE900;" cx="726.901" cy="757.191" r="4.086"/>
		</g>
		<g>
			<circle style="fill:#FEE900;" cx="697.662" cy="757.191" r="4.086"/>
		</g>
		<g>
			<circle style="fill:#FEE900;" cx="668.422" cy="757.191" r="4.086"/>
		</g>
		<g>
			<circle style="fill:#FEE900;" cx="639.183" cy="757.191" r="4.086"/>
		</g>
		<g>
			<circle style="fill:#FEE900;" cx="609.943" cy="757.191" r="4.086"/>
		</g>
		<g>
			<circle style="fill:#FEE900;" cx="580.704" cy="757.191" r="4.086"/>
		</g>
		<g>
			<circle style="fill:#FEE900;" cx="551.464" cy="757.191" r="4.086"/>
		</g>
		<g>
			<circle style="fill:#FEE900;" cx="522.225" cy="757.191" r="4.086"/>
		</g>
		<g>
			<circle style="fill:#FEE900;" cx="492.985" cy="757.191" r="4.086"/>
		</g>
		<g>
			<circle style="fill:#FEE900;" cx="463.746" cy="757.191" r="4.086"/>
		</g>
		<g>
			<circle style="fill:#FEE900;" cx="434.506" cy="757.191" r="4.086"/>
		</g>
		<g>
			<circle style="fill:#FEE900;" cx="405.267" cy="757.191" r="4.086"/>
		</g>
		<g>
			<circle style="fill:#FEE900;" cx="376.027" cy="757.191" r="4.086"/>
		</g>
		<g>
			<circle style="fill:#FEE900;" cx="346.788" cy="757.191" r="4.086"/>
		</g>
		<g>
			<circle style="fill:#FEE900;" cx="317.548" cy="757.191" r="4.086"/>
		</g>
		<g>
			<circle style="fill:#FEE900;" cx="288.309" cy="757.191" r="4.086"/>
		</g>
		<g>
			<circle style="fill:#FEE900;" cx="259.07" cy="757.191" r="4.086"/>
		</g>
		<g>
			<circle style="fill:#FEE900;" cx="229.83" cy="757.191" r="4.086"/>
		</g>
		<g>
			<circle style="fill:#FEE900;" cx="200.591" cy="757.191" r="4.086"/>
		</g>
		<g>
			<circle style="fill:#FEE900;" cx="171.351" cy="757.191" r="4.086"/>
		</g>
		<g>
			<circle style="fill:#FEE900;" cx="142.112" cy="757.191" r="4.086"/>
		</g>
		<g>
			<circle style="fill:#FEE900;" cx="112.872" cy="757.191" r="4.086"/>
		</g>
		<g>
			<circle style="fill:#FEE900;" cx="83.633" cy="757.191" r="4.086"/>
		</g>
		<g>
			<circle style="fill:#FEE900;" cx="54.393" cy="757.191" r="4.086"/>
		</g>
		<g>
			<circle style="fill:#FEE900;" cx="25.154" cy="757.191" r="4.086"/>
		</g>
	</g>
</g>
<path style="fill:#231F20;" d="M1600.001,844.901v55.1h-1600v-36.49c3.74,2.9,7.04,6.34,9.79,10.19
	c19.35-16.58,42.34-34.98,59.75-45c-1.12-1.61-1.79-3.56-1.82-5.67c-0.09-5.65,4.42-10.3,10.08-10.39
	c5.64-0.09,10.29,4.42,10.37,10.07c0.09,5.65-4.41,10.3-10.06,10.39c-2.09,0.03-4.04-0.57-5.68-1.62c-2.53,5.35-6.2,13.81-9.02,23.3
	c6.15-2.81,12.99-4.39,20.2-4.39c11.77,0,22.56,4.18,30.97,11.14c20.86-18.28,48.7-41.32,68.97-52.98
	c-1.12-1.61-1.79-3.56-1.82-5.67c-0.09-5.65,4.42-10.3,10.08-10.39c5.64-0.09,10.29,4.42,10.37,10.07
	c0.09,5.65-4.41,10.3-10.06,10.38c-2.09,0.04-4.04-0.56-5.68-1.61c-6.37,13.43-19.87,46.52-9.21,66.38
	c8.46-7.16,19.41-11.49,31.36-11.49c17.19,0,32.28,8.93,40.93,22.39c0.13-0.32,0.28-0.64,0.42-0.96
	c-2.63-13.76-8.26-27.03-11.76-34.4c-1.63,1.05-3.58,1.65-5.68,1.62c-5.64-0.09-10.14-4.74-10.06-10.39
	c0.09-5.64,4.73-10.15,10.38-10.07c5.66,0.09,10.17,4.74,10.08,10.39c-0.03,2.11-0.7,4.06-1.83,5.67
	c7.64,4.4,16.35,10.4,25.36,17.16c7.9-5.56,17.53-8.83,27.92-8.83c12.32,0,23.56,4.59,32.12,12.13
	c20.76-18.15,48.11-40.72,68.1-52.22c-1.12-1.61-1.79-3.56-1.82-5.67c-0.09-5.65,4.42-10.3,10.07-10.39
	c5.65-0.08,10.29,4.43,10.38,10.07c0.09,5.65-4.41,10.3-10.06,10.39c-2.09,0.03-4.04-0.57-5.68-1.62
	c-5.47,11.53-16.19,37.52-12.39,57.22c4.84-1.61,10-2.5,15.38-2.5c9.19,0,17.79,2.56,25.13,6.99c7.33-4.43,15.93-6.99,25.13-6.99
	c5.37,0,10.54,0.89,15.37,2.5c3.8-19.7-6.92-45.69-12.38-57.22c-1.64,1.05-3.59,1.65-5.68,1.62c-5.65-0.09-10.15-4.74-10.07-10.39
	c0.09-5.64,4.74-10.15,10.38-10.07c5.66,0.09,10.17,4.74,10.08,10.39c-0.03,2.11-0.7,4.06-1.82,5.67
	c19.99,11.5,47.34,34.07,68.09,52.22c8.57-7.54,19.81-12.13,32.12-12.13c10.4,0,20.02,3.27,27.93,8.83
	c9-6.76,17.71-12.76,25.35-17.16c-1.12-1.61-1.79-3.56-1.82-5.67c-0.09-5.65,4.42-10.3,10.07-10.39
	c5.65-0.08,10.29,4.43,10.38,10.07c0.09,5.65-4.41,10.3-10.06,10.39c-2.09,0.03-4.04-0.57-5.68-1.62
	c-3.49,7.37-9.13,20.64-11.75,34.4c0.14,0.32,0.29,0.64,0.42,0.96c8.65-13.46,23.74-22.39,40.92-22.39
	c11.96,0,22.9,4.33,31.37,11.49c10.66-19.86-2.84-52.95-9.22-66.38c-1.63,1.05-3.59,1.65-5.68,1.61
	c-5.64-0.08-10.15-4.73-10.06-10.38c0.09-5.65,4.73-10.16,10.38-10.07c5.65,0.09,10.16,4.74,10.08,10.39
	c-0.04,2.11-0.71,4.06-1.83,5.67c20.28,11.66,48.12,34.7,68.97,52.98c8.41-6.96,19.2-11.14,30.98-11.14c7.21,0,14.04,1.58,20.2,4.39
	c-2.83-9.49-6.49-17.95-9.03-23.3c-1.63,1.05-3.58,1.65-5.68,1.62c-5.64-0.09-10.14-4.74-10.06-10.39
	c0.09-5.65,4.73-10.16,10.38-10.07c5.65,0.09,10.17,4.74,10.08,10.39c-0.03,2.11-0.71,4.06-1.83,5.67
	c17.41,10.02,40.4,28.42,59.76,45c8.81-12.34,23.24-20.39,39.56-20.39c11.55,0,22.15,4.03,30.49,10.76
	c8.22-6.37,18.53-10.17,29.73-10.17c10.49,0,20.19,3.34,28.14,8.99c8.91-10.8,22.41-17.69,37.51-17.69
	c13.22,0,25.2,5.28,33.96,13.84c2.58-19.36-7.52-43.77-12.77-54.85c-1.63,1.05-3.59,1.65-5.68,1.62
	c-5.64-0.09-10.15-4.74-10.06-10.39c0.09-5.64,4.73-10.15,10.38-10.07c5.65,0.09,10.16,4.74,10.08,10.39
	c-0.04,2.11-0.71,4.06-1.83,5.67c26.08,15,64.67,48.82,84.81,67.13c8.19-15.29,24.31-25.68,42.87-25.68
	c18.55,0,34.67,10.39,42.86,25.68c20.14-18.31,58.73-52.13,84.81-67.13c-1.12-1.61-1.79-3.56-1.83-5.67
	c-0.08-5.65,4.43-10.3,10.08-10.39c5.65-0.08,10.29,4.43,10.38,10.07c0.09,5.65-4.42,10.3-10.06,10.39
	c-2.09,0.03-4.05-0.57-5.68-1.62c-5.25,11.08-15.35,35.49-12.77,54.85c8.76-8.56,20.74-13.84,33.96-13.84
	c15.1,0,28.6,6.89,37.51,17.69c7.95-5.65,17.65-8.99,28.14-8.99c11.21,0,21.51,3.8,29.73,10.17c8.34-6.73,18.94-10.76,30.49-10.76
	c16.32,0,30.75,8.05,39.56,20.39c19.36-16.58,42.35-34.98,59.76-45c-1.12-1.61-1.79-3.56-1.83-5.67
	c-0.08-5.65,4.43-10.3,10.08-10.39c5.65-0.09,10.29,4.42,10.38,10.07c0.08,5.65-4.42,10.3-10.06,10.39
	c-2.1,0.03-4.05-0.57-5.68-1.62c-2.54,5.35-6.2,13.81-9.03,23.3c6.16-2.81,12.99-4.39,20.2-4.39c11.78,0,22.57,4.18,30.98,11.14
	C1586.561,856.251,1593.171,850.581,1600.001,844.901z"/>
</svg>
