<svg xmlns="http://www.w3.org/2000/svg" xmlns:xlink="http://www.w3.org/1999/xlink" viewBox="0 0 317.7 275.52"><defs><style>.cls-1,.cls-14,.cls-15,.cls-18,.cls-8,.cls-9{fill:none;}.cls-2{isolation:isolate;}.cls-11,.cls-16,.cls-3{fill:#fff;}.cls-4{opacity:0.2;}.cls-5{fill:#725d4c;}.cls-6{fill:#06703a;}.cls-7{clip-path:url(#clip-path);}.cls-14,.cls-15,.cls-8,.cls-9{stroke:#07824a;}.cls-14,.cls-15,.cls-18,.cls-8,.cls-9{stroke-miterlimit:10;}.cls-8{stroke-width:3.22px;}.cls-9{stroke-width:1.71px;}.cls-10{fill:#739aaf;mix-blend-mode:multiply;}.cls-11,.cls-16{stroke:#fff;stroke-linejoin:round;}.cls-11{stroke-width:0.54px;}.cls-12{fill:url(#linear-gradient);}.cls-13{clip-path:url(#clip-path-2);}.cls-14{stroke-width:2.35px;}.cls-15{stroke-width:1.25px;}.cls-16{stroke-width:0.39px;}.cls-17{fill:url(#linear-gradient-2);}.cls-18{stroke:#f73;stroke-linecap:round;stroke-width:8.6px;}.cls-19{fill:#e0bb95;}.cls-20{fill:#00acc1;}.cls-21{fill:#f73;}.cls-22{fill:#332e2e;}.cls-23{fill:#6f00ff;}.cls-24{fill:#ffd200;}.cls-25{fill:url(#linear-gradient-3);}.cls-26{fill:url(#linear-gradient-4);}.cls-27{fill:url(#linear-gradient-5);}.cls-28{fill:url(#linear-gradient-6);}</style><clipPath id="clip-path"><polygon class="cls-1" points="244.19 2.35 210.89 102.09 245.92 102.09 277.49 102.09 244.19 2.35"/></clipPath><linearGradient id="linear-gradient" x1="79.37" y1="111.85" x2="79.37" y2="129.19" gradientTransform="matrix(-1, 0, 0, 1, 323.56, 0)" gradientUnits="userSpaceOnUse"><stop offset="0.37" stop-color="#f6f3ec"/><stop offset="0.43" stop-color="#f6f3ec" stop-opacity="0.95"/><stop offset="0.53" stop-color="#f6f3ec" stop-opacity="0.82"/><stop offset="0.67" stop-color="#f6f3ec" stop-opacity="0.62"/><stop offset="0.83" stop-color="#f6f3ec" stop-opacity="0.33"/><stop offset="1" stop-color="#f6f3ec" stop-opacity="0"/></linearGradient><clipPath id="clip-path-2"><polygon class="cls-1" points="172.33 1.77 196.71 74.8 171.07 74.8 147.95 74.8 172.33 1.77"/></clipPath><linearGradient id="linear-gradient-2" x1="163.2" y1="81.94" x2="163.2" y2="94.64" gradientTransform="translate(9.13)" xlink:href="#linear-gradient"/><linearGradient id="linear-gradient-3" x1="209.35" y1="227.54" x2="155.39" y2="173.59" gradientUnits="userSpaceOnUse"><stop offset="0.07" stop-color="#f6f3ec"/><stop offset="0.62" stop-color="#f6f3ec"/><stop offset="1" stop-color="#f6f3ec"/></linearGradient><linearGradient id="linear-gradient-4" x1="173.5" y1="156.81" x2="160.65" y2="143.95" gradientTransform="matrix(0.98, 0.2, -0.2, 0.98, 31.65, -32.76)" gradientUnits="userSpaceOnUse"><stop offset="0.07" stop-color="#f6f3ec"/><stop offset="0.62" stop-color="#f6f3ec"/><stop offset="1" stop-color="#fff"/></linearGradient><linearGradient id="linear-gradient-5" x1="202.23" y1="151.83" x2="192.83" y2="142.43" gradientTransform="translate(14.8 -14.94) rotate(5.65)" xlink:href="#linear-gradient-4"/><linearGradient id="linear-gradient-6" x1="159.32" y1="239.66" x2="141.2" y2="221.54" gradientTransform="matrix(1, 0, 0, 1, 0, 0)" xlink:href="#linear-gradient-4"/></defs><title>st_elkski_loadingillustration</title><g class="cls-2"><g id="Layer_2" data-name="Layer 2"><g id="Layer_1-2" data-name="Layer 1"><path class="cls-3" d="M204.84,66.44c-69.45,0-170.68,16.15-170.68,48.78,0,20.08,25.9,22.37,25.9,40.06,0,26.37-60.06,32-60.06,71.23,0,32.82,37.86,49,73.48,49,59.35,0,67.22-25,101.76-25,32.67,0,42.34,18,83.72,18,34.69,0,58.74-22.2,58.74-51.8,0-40.25-41.05-45.8-41.05-66.76,0-18.08,23.48-23.55,23.48-46S262.2,66.44,204.84,66.44Z"/><g class="cls-4"><path d="M82.73,208.75c-1.18-6.09.41-11.92,2.77-17.51.56-1.33,6.22-15.2,6.14-15.2-4.51.23-6.7,6.88-11.22,6.93-2.53,0-4.62-2.24-5.21-4.7s0-5,.59-7.49c1.12-4.33,2.54-8.54,4-12.75,1.4-3.94-.65-6.1-1.86-10-2.1-6.84-2.08-14.74,2-20.65a19,19,0,0,1,14.52-8,22,22,0,0,1,15.7,5.75c7.36,6.66,9.74,17,12.33,26.62s6.45,19.89,15.16,24.65c2,1.08,4.5,2.28,4.62,4.55.08,1.54-1.06,2.85-2.13,4a322,322,0,0,1-32,29.11c-3.83,3-9.67,9.76-15,8.1S83.75,214,82.73,208.75Z"/></g><rect class="cls-5" x="240.51" y="81.69" width="7.36" height="34.79"/><polygon class="cls-6" points="244.19 2.35 210.89 102.09 245.92 102.09 277.49 102.09 244.19 2.35"/><g class="cls-7"><polyline class="cls-8" points="279.61 23.58 244.19 57.27 208.77 23.58"/><polyline class="cls-8" points="279.61 45.99 244.19 79.68 208.77 45.99"/><polyline class="cls-8" points="279.61 68.4 244.19 102.09 208.77 68.4"/><polyline class="cls-9" points="189.41 22.91 171.46 40.86 151.67 22.91"/><polyline class="cls-9" points="189.41 49.54 171.46 67.49 151.67 49.54"/><polyline class="cls-8" points="279.61 1.17 244.19 34.86 208.77 1.17"/></g><polygon class="cls-10" points="240.51 102.09 247.87 102.09 247.87 107.05 240.51 103.72 240.51 102.09"/><path class="cls-11" d="M225.78,85.28a5.49,5.49,0,1,1-11,0Z"/><path class="cls-11" d="M236.75,85.28a5.49,5.49,0,1,1-11,0Z"/><path class="cls-11" d="M247.72,85.28a5.49,5.49,0,1,1-11,0Z"/><path class="cls-11" d="M239.86,44a5.49,5.49,0,1,1-11,0Z"/><path class="cls-11" d="M250.83,44a5.49,5.49,0,1,1-11,0Z"/><path class="cls-11" d="M261.8,44a5.49,5.49,0,1,1-11,0Z"/><path class="cls-11" d="M256.89,65.63a5.49,5.49,0,0,1-11,0Z"/><path class="cls-11" d="M267.86,65.63a5.49,5.49,0,0,1-11,0Z"/><path class="cls-11" d="M258.69,24.4a5.49,5.49,0,0,1-11,0Z"/><path class="cls-12" d="M261.53,129.19a17.34,17.34,0,1,0-34.68,0Z"/><rect class="cls-5" x="169.64" y="59.86" width="5.39" height="25.47"/><polygon class="cls-6" points="172.33 1.77 196.71 74.8 171.07 74.8 147.95 74.8 172.33 1.77"/><g class="cls-13"><polyline class="cls-14" points="146.4 17.32 172.33 41.98 198.26 17.32"/><polyline class="cls-14" points="146.4 33.72 172.33 58.39 198.26 33.72"/><polyline class="cls-14" points="146.4 50.13 172.33 74.8 198.26 50.13"/><polyline class="cls-15" points="212.44 16.83 225.58 29.97 240.06 16.83"/><polyline class="cls-15" points="212.44 36.32 225.58 49.46 240.06 36.32"/><polyline class="cls-14" points="146.4 0.91 172.33 25.58 198.26 0.91"/></g><polygon class="cls-10" points="175.03 74.8 169.64 74.8 169.64 78.43 175.03 75.99 175.03 74.8"/><path class="cls-16" d="M185.81,62.49a4,4,0,1,0,8,0Z"/><path class="cls-16" d="M177.78,62.49a4,4,0,1,0,8,0Z"/><path class="cls-16" d="M169.75,62.49a4,4,0,1,0,8,0Z"/><path class="cls-16" d="M175.5,32.29a4,4,0,1,0,8,0Z"/><path class="cls-16" d="M167.47,32.29a4,4,0,1,0,8,0Z"/><path class="cls-16" d="M159.44,32.29a4,4,0,1,0,8,0Z"/><path class="cls-16" d="M163,48.1a4,4,0,1,0,8,0Z"/><path class="cls-16" d="M155,48.1a4,4,0,1,0,8,0Z"/><path class="cls-16" d="M161.72,17.92a4,4,0,0,0,8,0Z"/><path class="cls-17" d="M159.64,94.64a12.7,12.7,0,1,1,25.39,0Z"/><path class="cls-18" d="M118.83,133.24c17.41,0,24.2,1,37.89-7"/><circle class="cls-19" cx="164.63" cy="121.61" r="9.16"/><path class="cls-18" d="M118.83,133.24c-17.42,0-34.87,6.72-38.9,23.69"/><circle class="cls-19" cx="77.81" cy="165.84" r="9.16"/><polygon class="cls-20" points="116.31 171.3 131.34 171.3 123.83 133.24 116.31 171.3"/><path class="cls-21" d="M137.16,181V147.27a18.33,18.33,0,0,0-36.66,0V181Z"/><circle class="cls-3" cx="118.83" cy="73.83" r="6.38"/><path class="cls-21" d="M137.16,101.66s-1-21.45-18.33-21.45-18.33,21.45-18.33,21.45Z"/><path class="cls-3" d="M136.32,110.51a5.37,5.37,0,0,1-5.12-3.77,13,13,0,0,0-24.75,0,5.37,5.37,0,1,1-10.25-3.2,23.71,23.71,0,0,1,45.25,0,5.37,5.37,0,0,1-3.52,6.73A5.66,5.66,0,0,1,136.32,110.51Z"/><path class="cls-19" d="M143.1,97.81l-9.37,9.37a4.85,4.85,0,0,0,6.86,6.86C146.44,108.19,143.1,97.81,143.1,97.81Z"/><path class="cls-19" d="M103.92,107.18l-9.37-9.37S91.21,108.19,97.07,114a4.85,4.85,0,1,0,6.85-6.86Z"/><circle class="cls-19" cx="118.83" cy="110.61" r="18.33"/><path class="cls-22" d="M115.12,105.36a3.7,3.7,0,1,1-3.7-3.7A3.7,3.7,0,0,1,115.12,105.36Z"/><path class="cls-22" d="M129.93,105.36a3.7,3.7,0,1,1-3.7-3.7A3.7,3.7,0,0,1,129.93,105.36Z"/><path class="cls-3" d="M128.47,114.23a9.65,9.65,0,0,1-19.29,0Z"/><path class="cls-23" d="M100.5,181c0,13.26,14.67,22.15,21.82,22.63L118.83,181Z"/><path class="cls-24" d="M92.59,198l60.89-46.87a17.72,17.72,0,0,1,24.61,2.79,17.52,17.52,0,0,1-3,24.8l-61.13,47a17.52,17.52,0,0,1-24.56-3.2h0A17.52,17.52,0,0,1,92.59,198Z"/><path class="cls-23" d="M111.22,124.5c-2.37,0-4.83,0-7,1s-3.81,3.4-3.25,5.7a5.31,5.31,0,0,0,3.49,3.47,15.64,15.64,0,0,0,5.06.64l16.38.3c3.38.06,7.24-.08,9.4-2.67,3.53-4.23-.29-9.58-5.15-8.81C124,125.15,117.46,124.52,111.22,124.5Z"/><path class="cls-23" d="M109.58,141.11c-3.44,3.08-7.81,5-11.26,8a21.53,21.53,0,0,0-6.8,13.28c-.58,4.53-.7,9.74,4.22,11.94a8.06,8.06,0,0,0,9.1-2,12.12,12.12,0,0,1-3.3-13c1.53-4.13,5.21-7.07,9-9.36s7.84-4.22,11-7.31c3.86-3.81,5.38-9.16,3-14.15-3,.15-9.55-1-10.35,2.43-.44,1.9-.1,3.55-1,5.45A16.51,16.51,0,0,1,109.58,141.11Z"/><path class="cls-23" d="M104.51,136.87a10.73,10.73,0,0,1-10.31-4.72c-3.63-5.78-.75-13.87-4.09-19.81a10.52,10.52,0,0,0-19.47,2.92,9.07,9.07,0,0,1,9.71,6.92c.42,2,.09,4.17.12,6.26a19.56,19.56,0,0,0,9.82,16.34,21.2,21.2,0,0,0,19.2.57,23.18,23.18,0,0,0,12.23-15s-5-1.07-5.53-1a4.39,4.39,0,0,0-2.91,1.61C110.55,133.66,108.64,136.32,104.51,136.87Z"/><path class="cls-23" d="M129,113.35a8.8,8.8,0,0,1-7.29-3.85l-.08-.11a3.45,3.45,0,0,0-5.69,0,9,9,0,0,1-7.44,3.94,8.56,8.56,0,0,1-4.85-1.48l-.26-.18a7.89,7.89,0,0,1-3.35-6.46v-3.3a4.07,4.07,0,0,1,4.07-4.07h29.36a4.07,4.07,0,0,1,4.06,4.07v3.3a7.89,7.89,0,0,1-3.39,6.48l-.12.09a8.85,8.85,0,0,1-5,1.57Z"/><path d="M133.51,98.72a3.19,3.19,0,0,1,3.18,3.19v3.3a7,7,0,0,1-3,5.76l-.12.09a7.95,7.95,0,0,1-11.08-2l-.08-.11a4.33,4.33,0,0,0-7.15,0l0,0a8.08,8.08,0,0,1-6.68,3.51,7.68,7.68,0,0,1-4.35-1.34l-.25-.17a7,7,0,0,1-3-5.74v-3.3a3.2,3.2,0,0,1,.93-2.26,3.17,3.17,0,0,1,2.26-.93h29.36m0-1.76H104.15a5,5,0,0,0-5,5v3.3a8.76,8.76,0,0,0,3.73,7.18l.26.18a9.4,9.4,0,0,0,5.35,1.64,9.85,9.85,0,0,0,8.13-4.27l0,0a2.56,2.56,0,0,1,4.25,0l.07.11a9.7,9.7,0,0,0,13.54,2.5.57.57,0,0,1,.13-.08,8.82,8.82,0,0,0,3.76-7.21v-3.3a5,5,0,0,0-4.94-5Z"/><path class="cls-25" d="M159.26,173.94c23-14,52.24-18.59,77.54-9.38,2.78,1,5.6,2.25,7.62,4.42s3,5.51,1.76,8.19-4.48,3.94-7.44,3.91-5.79-1.13-8.61-2a14.55,14.55,0,0,0-6.1-1,5.71,5.71,0,0,0-4.82,3.4c-.88,2.45.67,5.19,2.74,6.77s4.61,2.4,6.86,3.71,4.36,3.41,4.46,6c.12,3.08-2.71,5.62-5.7,6.34s-6.13.06-9.16-.48-6.25-.93-9.11.23-5.08,4.41-4.05,7.31c1.45,4.09,8,5,8.56,9.32a5.17,5.17,0,0,1-3,4.93,10.85,10.85,0,0,1-6,.85c-7-.63-13.56-3.82-20-6.61-22.85-9.81-48.64-7-70.88,5.91,2-6.66,7.26-13.58,11.2-19.22a123.14,123.14,0,0,1,14.46-17.19A108.2,108.2,0,0,1,159.26,173.94Z"/><path class="cls-26" d="M173.86,140.58a4.93,4.93,0,0,0-1.14.38,1.32,1.32,0,0,0-.77,1.25,1.35,1.35,0,0,0,1.21,1,8.78,8.78,0,0,0,1.69-.08,4.4,4.4,0,0,1,3.86,1.76,3.46,3.46,0,0,1-.13,4.12c-1.26,1.44-3.46,1.37-5.36,1.56-7.77.8-13.76,8.09-17.29,14.47a12.31,12.31,0,0,0-.37-2.62,30.55,30.55,0,0,1-.19-3.45,28.56,28.56,0,0,1,.93-7.06c1.81-7,6-12,11.49-16.38a9.7,9.7,0,0,1,5.08-2.44,4.34,4.34,0,0,1,4.68,3.36c.38,1.93-1.64,3.51-3.35,4Z"/><path class="cls-27" d="M203.74,143.88c2,.19,4.2.89,4.95,2.72a4,4,0,0,1-1.73,4.63,7.77,7.77,0,0,1-5.15,1c-1.78-.2-3.5-.71-5.27-.94a17.82,17.82,0,0,0-12.36,3.08C189.15,147.63,194.63,143,203.74,143.88Z"/><path class="cls-28" d="M158.85,234.05c.91,1.76,1.52,4,.39,5.63a4,4,0,0,1-4.83,1.06,7.77,7.77,0,0,1-3.6-3.81c-.79-1.6-1.3-3.33-2.06-4.94a17.8,17.8,0,0,0-9.28-8.72C147.78,223.82,154.65,225.91,158.85,234.05Z"/></g></g></g></svg>