<svg id="Layer_1" xmlns="http://www.w3.org/2000/svg" xmlns:xlink="http://www.w3.org/1999/xlink" viewBox="-280.8 371.6 46.8 39.5"><style>.st0{opacity:.17;fill:#010101;enable-background:new}.st1{fill:#25b466}.st2{fill:#edbd43}.st3,.st4{opacity:.16;fill:#1e0d0d;enable-background:new}.st4{opacity:.3;fill:#fff}</style><symbol id="New_Symbol_157" viewBox="-10 -8.4 19.9 16.8"><path class="st0" d="M8.9-4.6c2.1 1.3.9 2.4-2.7 2.4S-1.9-3.3-4-4.6c-1-.6-1.2-1.2-.8-1.6l1.3-2.2 8.2 2.2c1.7.4 3.2 1 4.2 1.6z"/><path class="st1" d="M2.8 1.9c0-.4 0-.9-.1-1.3V.4c-.3-1-.8-2-1.6-2.8l-4.7-5.9-4.8 6c-.7.7-1.2 1.7-1.5 2.8v.2c-.1.3-.1.8-.1 1.2s0 .9.1 1.3v.2c.7 2.8 3.2 4.9 6.2 4.9s5.6-2.1 6.3-4.9v-.2c.2-.4.2-.8.2-1.3z"/><path class="st2" d="M-5 8.2V-6.6l1.4-1.8 1.4 1.8V8.2c-.5.1-.9.2-1.4.2s-1-.1-1.4-.2zM-8.4.5h-1.5v.2c-.1.3-.1.8-.1 1.2s0 .9.1 1.3h1.4c-.1-.4-.1-.7-.1-1.1-.1-.6 0-1.1.2-1.6zM2.8 1.9c0-.4 0-.9-.1-1.3V.4H1.4c.1.4.2.8.2 1.2 0 .6-.1 1.1-.2 1.6h1.4V1.9z"/><path class="st2" d="M1.1 2.1c0-.5-.1-1-.2-1.4h-9c-.1.3-.1.6-.1 1 0 .6.1 1.3.4 1.8H1c0-.4.1-.9.1-1.4z"/><path class="st3" d="M1.5 1.7C1.5-1-.7-3.2-3.4-3.2c-1.5 0-2.8.7-3.7 1.7.8-.8 2-1.3 3.3-1.3 2.7.1 4.9 2.2 4.9 4.9 0 1.2-.5 2.4-1.2 3.2 1-.8 1.6-2.2 1.6-3.6z"/><path class="st4" d="M-.1 5.4c-.8.7-2 1.2-3.2 1.2-2.7 0-4.9-2.2-4.9-4.9 0-1.2.4-2.3 1.2-3.2C-8-.6-8.6.7-8.6 2.1-8.7 4.8-6.5 7-3.8 7-2.4 7-1 6.4-.1 5.4z"/></symbol><use xlink:href="#New_Symbol_157" width="19.9" height="16.8" id="XMLID_7_" x="-10" y="-8.4" transform="matrix(2.3482 0 0 -2.3482 -257.39 391.288)" overflow="visible"/></svg>