<svg id="Layer_1" xmlns="http://www.w3.org/2000/svg" xmlns:xlink="http://www.w3.org/1999/xlink" width="451.3" height="392.9" viewBox="0 0 451.3 392.9"><style>.st1{fill:#fff2f3}.st2{opacity:.51}.st4{fill:#fff}.st5{fill:#ffe14d}.st6{fill:#f73}.st8{fill:#297acc}.st10{fill:#a0a2a4}.st14{fill:#39f}.st15{fill:#f9ce1d}.st16{fill:#bf8f68}.st19{fill:#332e2e}.st20{fill:#f33}.st23{opacity:.1;enable-background:new}.st27{fill:none;stroke:#b2e4fa;stroke-miterlimit:10}</style><symbol id="New_Symbol_40" viewBox="-24 -19 48 38"><path d="M-20.5-17.5h40.9c1.1 0 2 .9 2 2.1v30.9c0 1.1-.9 2-2 2h-40.9c-1.1 0-2-.9-2-2v-30.9c0-1.2.9-2.1 2-2.1z" opacity=".51" fill="none" stroke="#fff2f3" stroke-width="3" stroke-miterlimit="10"/><path class="st1" d="M-6.2-5.6L10.1 0-6.2 5.6z"/></symbol><g id="Layer_2_1_"><g id="Layer_1-2"><g id="_Group_"><g class="st2"><path class="st1" d="M287.7 114.2V248c0 6.4-5.2 11.6-11.7 11.6H174.7c-6.4 0-11.6-5.2-11.7-11.6V114.2c0-6.4 5.2-11.6 11.7-11.6h101.4c6.4 0 11.6 5.2 11.6 11.6zM172.9 248c0 1 .8 1.8 1.8 1.8h101.4c1 0 1.8-.8 1.8-1.8V114.2c0-1-.8-1.8-1.8-1.8H174.7c-1 0-1.8.8-1.8 1.8V248z"/></g><path class="st1" d="M207.1 201.3l18.3-53.2 18.2 53.2z"/></g><use xlink:href="#New_Symbol_40" width="48" height="38" x="-24" y="-19" transform="matrix(-3.27 0 0 3.27 78.493 330.37)" overflow="visible"/><use xlink:href="#New_Symbol_40" width="48" height="38" id="New_Symbol_40-5" x="-24" y="-19" transform="matrix(3.27 0 0 3.27 372.702 330.37)" overflow="visible"/><path d="M167.8 386V275.9c0-1.1.9-2 2-2H281c1.1 0 2 .9 2 2V386c0 1.1-.9 2-2 2H169.8c-1.1 0-2-.9-2-2z" opacity=".51" fill="none" stroke="#fff2f3" stroke-width="9.82" stroke-miterlimit="10" id="_Group_2"/><path class="st4" d="M334.4 205.4c4.2 0 7.6 2 8 4.5.4-3.4 5-6.1 10.6-6.1 5.5 0 10 2.5 10.6 5.8.6-2.4 3.9-4.2 8-4.2 3.7 0 6.8 1.5 7.8 3.6-.8-11.4-12.3-20.4-26.4-20.4s-25.8 9.2-26.5 20.7c.8-2.2 4-3.9 7.9-3.9z"/><path class="st4" d="M353.6 269.4l-27.1-60.2c-.1-.1 0-.3.1-.4.2-.1.3 0 .4.1l26.6 58.9 25.2-59.1c.1-.1.2-.2.4-.2.1.1.2.2.2.4l-25.8 60.5z"/><path class="st4" d="M353.6 269.4l-27.1-60.2c-.1-.1 0-.3.1-.4.2-.1.3 0 .4.1l26.6 58.9 25.2-59.1c.1-.1.2-.2.4-.2.1.1.2.2.2.4l-25.8 60.5z"/><path class="st4" d="M353.6 269.2L342 209.5c0-.2.1-.3.2-.3.2 0 .3.1.3.2l11 56.6 9.9-56.8c0-.2.2-.3.4-.2.1 0 .2.2.2.3l-10.4 59.9z"/><path class="st5" d="M327.1 267.9h52.1v32.6h-52.1z"/><path class="st6" d="M345.2 282.5v-14.6h-4.1v14.6h-14v4.1h14v13.9h4.1v-13.9h34v-4.1z"/><path opacity=".5" fill="#d0d2d3" d="M364.2 267.9h15v32.6h-15z"/><path class="st8" d="M196.5 317.9l.9 12c15.4-1.2 26.9-14.5 25.8-29.9l-12 .9c.7 8.7-5.9 16.4-14.7 17 .1 0 .1 0 0 0z"/><path d="M193 351c-6.4.5-12-4.3-12.5-10.8-.4-5 3.3-9.3 8.3-9.7h.1l8.6-.6-.9-12-26.2 1.9c-1.7.1-2.9 1.6-2.8 3.2l2.2 29.4c.4 6.3 5.7 11.2 12.1 11.1 6.4-.3 11.4-5.7 11.2-12.1-.1-.1-.1-.2-.1-.4z"/><path d="M185.8 330.8l-.3-4.5c-.1-1.7 1.1-3.1 2.8-3.2s3.1 1.1 3.2 2.8l.3 4.5c.1 1.7-1.1 3.1-2.8 3.2s-3.1-1.1-3.2-2.8z" fill="#f6be1a"/><path class="st10" d="M189.1 289.1l11.1-39.6c1.5-5.3-1.6-10.9-7-12.4-5.3-1.5-10.9 1.6-12.4 7l-11.1 39.6"/><path d="M183.7 287.5l11.1-39.6c1.5-5.3 2.1-9.8-1.5-10.8-5.3-1.5-10.8 1.6-12.3 6.9v.1l-11.1 39.6" fill="#bdbdbd"/><path transform="rotate(-74.402 200.136 275.421)" fill="#333" d="M196 248.4h8.4v54.1H196z"/><path class="st10" d="M189.7 252.5l-5.4 6.5-1.6 5.6 3.3 1.1z"/><path class="st6" d="M161.3 353.6c8.1-24 16.6-24.7 22.1-44.5 2.9-10.2 1.1-19.7-3.8-21s-11.3 5.8-14.2 16c-5.7 20.4 1 24.2-4.1 49.5z"/><path class="st5" d="M172.3 313.9c3-9 6.2-9.2 8.2-16.5 1.1-3.8.4-7.3-1.4-7.9s-4.2 2.2-5.3 6c-2.1 7.6.4 9-1.5 18.4zM157.2 317.9l-.2 3.6 3.2 1.6-3.6-.2-1.7 3.2.2-3.6-3.2-1.7 3.6.2zM158 329.1l-.1 1.6 1.5.8-1.7-.1-.8 1.5.2-1.7-1.5-.8 1.6.1zM154.7 337.8l-.2 3.6 3.2 1.6-3.6-.2-1.7 3.2.2-3.6-3.2-1.7 3.6.2z"/><path class="st6" d="M178.6 328.7l-.2 2.9 2.6 1.4-2.9-.2-1.4 2.6.2-2.9-2.6-1.4 3 .2zM150.9 355.4l-.1 1.5 1.4.7-1.5-.1-.7 1.3.1-1.5-1.4-.7 1.5.1zM152 366.2l-.2 3.5 3.1 1.7-3.5-.2-1.7 3.1.3-3.5-3.2-1.7 3.6.2zM146.3 344.5l-.1 1.3 1.1.6-1.2-.1-.6 1.1.1-1.3-1.1-.5h1.2zM174.1 350.8v1.2l1.1.6h-1.3l-.6 1.1.1-1.3-1.1-.6 1.3.1zM158.7 377.2l-.1 2.6 2.3 1.1-2.6-.1-1.2 2.2.2-2.5-2.3-1.2 2.6.2z"/><path fill="#f7981d" d="M166.9 364.9l-.1 1.5 1.3.7-1.4-.1-.7 1.3.1-1.5-1.4-.7 1.5.1z"/><path class="st5" d="M156.6 349.6l-.2 1.8 1.6.8-1.7-.1-.9 1.5.1-1.7-1.5-.8 1.7.1zM176 338.1l-.3 4 3.5 1.9-3.9-.3-1.9 3.5.3-3.9-3.5-1.9 3.9.3zM167.4 354.8v1.1l.9.4h-1l-.5.9v-1.1l-.9-.4h1zM160 359.7l-.2 2.9 2.5 1.3-2.8-.2-1.4 2.5.2-2.8-2.5-1.3 2.8.1z"/><path class="st14" d="M180.5 314.7v12.1c15.5 0 28-12.5 28-28h-12.1c-.1 8.8-7.2 15.9-15.9 15.9z"/><path d="M174.4 347.5c-6.4 0-11.7-5.2-11.7-11.7 0-5 4-9 9-9h8.7v-12.1H154c-1.7 0-3 1.3-3 3v29.5c-.1 6.3 4.9 11.6 11.2 12 6.4.2 11.9-4.8 12.1-11.2.1-.2.1-.4.1-.5z"/><path class="st15" d="M168.8 326.8v-4.5c0-1.7 1.3-3 3-3s3 1.3 3 3v4.5c0 1.7-1.3 3-3 3s-3-1.4-3-3z"/><path class="st8" d="M264.9 298.8c-.8 0-1.6-.2-2.3-.5-7.9-3.9-13.1-11.4-18.7-19.3-8.3-11.9-16.1-23.2-33.3-24.3-3-.2-5.2-2.7-5-5.7s2.7-5.2 5.7-5c22.3 1.4 32.9 16.6 41.4 28.8 4.7 6.8 9.1 13.1 14.6 15.8 2.7 1.3 3.8 4.5 2.4 7.2-.9 1.9-2.8 3-4.8 3z"/><circle class="st16" cx="275" cy="298.4" r="11.2"/><path class="st4" d="M271.4 280.1c-2.6-1.3-5.8-.2-7.1 2.4l-8.4 17.1c-1.2 2.7 0 5.8 2.7 7 2.5 1.1 5.5.1 6.8-2.4l8.4-17.1c1.3-2.5.2-5.7-2.4-7z"/><path fill="none" d="M223.8 249.5l-12.6 45.7"/><path fill="#00acc1" d="M202.2 292.7l18 5 3.6-48.2z"/><path class="st14" d="M225.2 244.3c-12.2-3.4-24.7 3.8-28.1 15.9l-5.1 18.5c-3.4 12.2 3.7 24.8 15.8 28.2 12.2 3.4 24.8-3.7 28.2-15.8 0-.1 0-.1.1-.2l5.1-18.5c3.4-12.1-3.8-24.7-16-28.1.1 0 0 0 0 0z"/><path transform="rotate(-74.295 204.03 276.303)" class="st19" d="M198.4 243.5h11.4v65.6h-11.4z"/><path transform="rotate(-74.562 229.662 283.215)" class="st15" d="M224 275h11.4v16.4H224z"/><path class="st20" d="M296.3 300.4c-1.5 0-2.7-1.2-2.7-2.7 0-1.5 1.2-2.7 2.7-2.7h27c1.5 0 2.7 1.2 2.7 2.7 0 1.5-1.2 2.7-2.7 2.7h-27z"/><path class="st4" d="M269.3 300.4c-1.5 0-2.7-1.2-2.7-2.7 0-1.5 1.2-2.7 2.7-2.7h27c1.5 0 2.7 1.2 2.7 2.7 0 1.5-1.2 2.7-2.7 2.7h-27z"/><path class="st20" d="M242.4 300.4c-1.5.1-2.7-1-2.8-2.5-.1-1.5 1-2.7 2.5-2.8h27.2c1.5 0 2.7 1.2 2.7 2.7 0 1.5-1.2 2.7-2.7 2.7l-26.9-.1z"/><path class="st4" d="M215.5 300.4c-1.5 0-2.7-1.2-2.7-2.7 0-1.5 1.2-2.7 2.7-2.7h27c1.5-.1 2.7 1 2.8 2.5.1 1.5-1 2.7-2.5 2.8h-.3l-27 .1z"/><path class="st14" d="M209.8 299.7c-8.1-3.5-14.7-9.8-18.4-17.9-3.4-7.2-3.9-15.3-1.4-22.8 3.8-10.9 15.5-20.4 36.9-14.5l-2.9 10.3c-12.3-3.4-21-.6-24 7.7-3.9 11.1 4.1 23.1 14 27.4l-4.2 9.8z"/><circle class="st16" cx="222.2" cy="299.3" r="11.2"/><path class="st4" d="M217.9 281.2c-2.7-1.2-5.8.1-6.9 2.8l-7.6 17.4c-1.3 2.6-.2 5.8 2.4 7.1 2.6 1.3 5.8.2 7.1-2.4.1-.1.1-.3.2-.4l7.6-17.5c1.1-2.7-.2-5.8-2.8-7z"/><circle class="st16" cx="231.3" cy="222.3" r="22.9"/><path d="M198.7 251.3c-2.8 0-5.5-.6-8-1.8-5.6-2.7-9-7.5-12.3-12.2-2.4-3.4-4.6-6.6-7.6-8.8-5.9-4.2-13.8-4.2-19.7.1l-4.2-5.5c8.4-6.1 19.7-6.1 28.1-.1 3.8 2.9 6.5 6.7 9.1 10.4 2.9 4.1 5.7 8.1 9.6 10 5.3 2.4 11.5.8 15.1-3.8l5.6 4.1c-3.7 4.8-9.6 7.6-15.7 7.6z" fill="#e53935"/><path class="st20" d="M207.9 242.7c-1.9-3.9-7.7-5.1-12.6-4.6-2 .2-4.1.6-6.3 1.1-4.1.8-8.4 1.7-12.8 1.3-13-1.3-22.4-12.8-21.2-25.7.1-1.5.4-3 .9-4.5l6.7 2c-2.6 8.8 2.4 18.1 11.2 20.7 1 .3 2.1.5 3.1.6 3.4.3 7-.4 10.8-1.2 2.2-.4 4.5-.9 6.9-1.2 6.8-.7 16.1 1 19.7 8.5l-6.4 3z"/><path class="st20" d="M210.4 234.1l32.6 10.6c2 .7 3.1 2.8 2.5 4.9l-1.7 5.1c-.7 2-2.8 3.1-4.9 2.5l-32.6-10.6c-2-.7-3.1-2.8-2.5-4.9l1.7-5.1c.7-2.1 2.9-3.2 4.9-2.5z"/><ellipse transform="rotate(-67.058 220.815 217.825)" class="st19" cx="220.8" cy="217.8" rx="19.8" ry="11.4"/><path class="st19" d="M209.4 221.4l10.3 6.1c5.7 3.4 7.5 10.7 4.2 16.4l-10.3-6.1c-5.7-3.3-7.6-10.7-4.2-16.4 0 .1 0 .1 0 0z"/><path class="st19" d="M213.6 237.8l10.3 6.1c5.7 3.4 7.5 10.7 4.2 16.4l-10.3-6.1c-5.6-3.4-7.5-10.7-4.2-16.4z"/><path class="st19" d="M216.9 267.5l3-5.2c1.7-2.8 5.3-3.8 8.2-2.1l-3 5.2c-1.7 2.9-5.3 3.8-8.2 2.1zM227.2 273.6l3.1-5.2c1.7-2.8.7-6.5-2.1-8.2l-3 5.2c-1.7 2.9-.8 6.5 2 8.2z"/><path class="st16" d="M251.2 211l11.3 19.9-9.1-2.5z"/><path class="st4" d="M252.5 230.9l-14.4-4c-1.5 5.5.5 11.5 5.2 14.9 4.1-2.6 7.4-6.4 9.2-10.9z"/><circle class="st4" cx="215.1" cy="159.6" r="7.9"/><path class="st14" d="M250.7 205.7l-33.6-38.4-10.7 49.9z"/><path class="st4" d="M204.6 223.7c-3.6-.9-5.7-4.6-4.8-8.2.6-2.4 2.5-4.3 4.9-4.8l44.2-11.5c3.6-.9 7.3 1.2 8.2 4.8s-1.2 7.3-4.8 8.2l-44.2 11.5c-1.2.3-2.3.3-3.5 0z"/><path class="st19" d="M249.2 221.2c-.7 2.5-3.2 3.9-5.7 3.2-2.5-.7-3.9-3.2-3.2-5.7.7-2.5 3.2-3.9 5.7-3.2 2.5.7 3.9 3.2 3.2 5.7z"/><linearGradient id="SVGID_1_" gradientUnits="userSpaceOnUse" x1="590.09" y1="893.047" x2="576.327" y2="906.809" gradientTransform="scale(1 -1) rotate(-15.439 -3712.208 1593.808)"><stop offset="0" stop-color="#a4ecf9"/><stop offset="1" stop-color="#3ddaf2"/></linearGradient><circle cx="243.5" cy="218.5" r="9.7" opacity=".5" fill="url(#SVGID_1_)"/><path class="st19" d="M243.5 229.5c-4 0-7.7-2.1-9.6-5.6-1.4-2.6-1.8-5.6-1-8.4 1.6-5.9 7.7-9.3 13.6-7.7 5.9 1.6 9.3 7.7 7.7 13.6-.8 2.8-2.7 5.2-5.2 6.7-1.7 1-3.5 1.4-5.5 1.4zm0-19.4c-3.8 0-7.1 2.5-8.1 6.2-1.2 4.5 1.4 9.1 5.9 10.3 4.5 1.1 9.1-1.6 10.2-6.1 1.1-4.4-1.4-8.8-5.7-10.1-.8-.2-1.5-.3-2.3-.3z"/><path class="st16" d="M231.5 217.6l-8.2-14.4s-7.5 11.4-2.4 20.4c1.7 2.9 5.4 3.9 8.3 2.3 2.9-1.7 3.9-5.4 2.3-8.3z"/><path class="st4" d="M346.6 358.5c0 3.3 2.6 5.9 5.9 5.9 3.3 0 5.9-2.6 5.9-5.9 0-3.3-2.6-5.9-5.9-5.9-3.2 0-5.9 2.7-5.9 5.9z"/><path class="st20" d="M321.2 297.8l31.4 54.4 31.4-54.4z"/><path class="st20" d="M321.3 297.8l31.3 54.4 18.4-54.4z"/><path class="st4" d="M388 300.6c0 1.8-1.5 3.3-3.3 3.3h-64.4c-1.8 0-3.3-1.4-3.3-3.2v-6c0-1.8 1.5-3.3 3.3-3.3h64.4c1.8 0 3.3 1.5 3.3 3.3v5.9z"/><path class="st4" d="M378.2 300.6c0 1.8-1.5 3.3-3.3 3.3h-54.6c-1.8 0-3.3-1.4-3.3-3.2v-6c0-1.8 1.5-3.3 3.3-3.3H375c1.8 0 3.3 1.5 3.3 3.3v5.9z"/><path class="st14" d="M116.4 288v-3.6h-6.3v3.6c-10 1.7-16.7 11.3-15 21.3 1.7 10 11.3 16.7 21.3 15s16.7-11.3 15-21.3c-1.4-7.7-7.4-13.6-15-15z"/><circle class="st23" cx="103.1" cy="297.8" r="1.2"/><circle class="st4" cx="108.8" cy="304.7" r="1.2"/><circle class="st23" cx="117.8" cy="304.7" r="1.2"/><circle class="st4" cx="119.5" cy="292.4" r="1.2"/><circle class="st4" cx="120.1" cy="311" r="1.2"/><circle class="st4" cx="121.3" cy="300.1" r="1.2"/><circle class="st4" cx="110.1" cy="291.5" r="1.2"/><circle class="st23" cx="120.7" cy="318.2" r="1.2"/><circle class="st23" cx="106.6" cy="312.1" r="1.2"/><circle class="st4" cx="101.9" cy="316.1" r="1.2"/><path d="M126.5 293.1c-2.7-2.7-6.3-4.5-10.1-5.1v-3.6h-3.2v3.3c10.2 4.6 14.6 16.6 10 26.8-2 4.4-5.5 7.9-9.9 9.9 10.1.1 18.4-8.1 18.5-18.2.1-4.9-1.8-9.6-5.3-13.1z" opacity=".1" fill="#231f20"/><path d="M109.7 282.3l-.1 4.7s0 .1.1.1h.1l1-1h.1l1.1 1.1h.1l1.1-1.1h.1l1.1 1.1h.1l1.1-1.1h.1l1 1h.1V282.4s0-.1-.1-.1h-7z" fill="#607d8b"/><path d="M113.5 285.2v-8.1c0-.9-.7-1.6-1.6-1.6-.9 0-1.6.7-1.6 1.6v2.3" fill="none" stroke="#607d8b" stroke-width="1.03" stroke-miterlimit="10"/><path class="st27" d="M333.6 69.7v107M301.5 94.1v19.4M313.3 103.8v57.6M101.9 269.4v-49.7M120.7 258.1v-9M113.8 253.6v-26.8M178.2 107V0M197.1 82.6V63.2M190.2 72.9V15.3"/><path d="M203.8 120.8l-4.4-22c-.6-3-3.2-5.2-6.3-5.2h-10.3c-3.1 0-5.7 2.2-6.3 5.2l-4.4 22c-.7 3.5 1.5 6.9 5 7.6.4.1.8.1 1.3.1h19.2c3.5 0 6.4-2.9 6.4-6.4-.1-.5-.1-.9-.2-1.3z" fill="#ad00ad"/><path d="M203.8 120.8l-4.4-22c-.4-2.1-1.8-3.8-3.7-4.6.2.4.3.8.4 1.3l4.4 22c.7 3.5-1.6 6.9-5 7.6-.4.1-.8.1-1.3.1H175c-.9 0-1.8-.2-2.6-.5 1 2.3 3.3 3.9 5.9 3.9h19.2c3.5 0 6.4-2.9 6.4-6.4 0-.6 0-1-.1-1.4z" opacity=".2"/><defs><path id="SVGID_2_" d="M197.5 128.5h-19.2c-3.5 0-6.4-2.9-6.4-6.4 0-.4 0-.8.1-1.3l4.4-22c.6-3 3.2-5.2 6.3-5.2H193c3 0 5.6 2.2 6.2 5.1l4.4 22c.7 3.5-1.5 6.9-5 7.6-.3.1-.7.2-1.1.2z"/></defs><clipPath id="SVGID_3_"><use xlink:href="#SVGID_2_" overflow="visible"/></clipPath><g clip-path="url(#SVGID_3_)"><path class="st4" d="M180.1 125.1c-.4-.1-.7-.5-.6-.9.1-.4.5-.7.9-.7.4.1.7.4.6.8 0 .4-.4.7-.7.7l-.2.1zm9-9.5c-.4-.1-.7-.4-.7-.8.1-.4.4-.7.9-.7.4 0 .7.4.7.8-.1.4-.4.7-.9.7zm-6-7.5c-.4 0-.8-.4-.7-.8 0-.4.4-.7.8-.7s.8.4.7.8c-.1.3-.4.7-.8.7zm-7.2 8.3c-.4 0-.7-.4-.7-.8s.4-.7.8-.7.7.4.7.8c-.1.4-.4.7-.8.7zm7.2-13.9c0-.4.3-.8.7-.8.4 0 .8.3.8.7 0 .4-.3.8-.7.8h-.1c-.4 0-.7-.3-.7-.7zm14.1.6c-.3-.2-.4-.7-.2-1 .2-.4.7-.5 1-.2.3.2.4.7.2 1-.1.2-.4.4-.6.4-.1-.1-.2-.1-.4-.2zm-20-2.4c-.3-.2-.4-.7-.2-1 .2-.4.7-.5 1-.3.4.2.5.7.2 1.1-.1.2-.4.4-.6.4-.2 0-.3-.1-.4-.2z" opacity=".5"/><path class="st4" d="M191.4 125.9c-.3-.2-.4-.7-.2-1 .2-.4.7-.5 1-.3.3.2.4.7.2 1-.1.2-.4.4-.6.4-.1 0-.2 0-.4-.1zm8.4 0c-.3-.2-.4-.7-.2-1 .2-.4.7-.5 1-.3.3.2.4.7.2 1-.1.2-.4.4-.6.4-.1 0-.3 0-.4-.1zm-3.6-5.8c-.1-.4.1-.8.6-.9.4-.1.8.2.9.6.1.4-.2.8-.6.9h-.2c-.3 0-.6-.2-.7-.6zm-20.9 2.2c-.3-.3-.4-.7-.1-1.1.3-.3.7-.4 1.1-.2.3.3.4.7.2 1.1-.1.2-.4.3-.6.3-.3 0-.5 0-.6-.1zm10.2-1.6c-.4 0-.8-.3-.8-.7 0-.4.3-.8.7-.8.4 0 .8.3.8.7 0 .4-.3.8-.7.8zm5.5-.1c-.4-.1-.7-.5-.6-.9.1-.4.5-.7.9-.6.4.1.7.5.6.9-.1.4-.4.6-.8.6h-.1zm7.1-11c-.2-.4-.1-.8.2-1.1.4-.2.8-.1 1.1.2.2.4.1.8-.2 1.1-.1.1-.3.1-.4.1-.3 0-.6-.1-.7-.3zm-4.6-.8c-.1-.4.1-.8.4-1h.1c.4-.2.8 0 1 .4v.1c.1.4 0 .8-.4 1H194.3c-.4 0-.7-.2-.8-.5zm-5.6 1.2c-.4-.2-.6-.6-.4-1 .2-.4.6-.6 1-.4.4.2.6.6.4 1-.1.3-.4.5-.7.4-.1.1-.2 0-.3 0zm-10.1-1.5c-.4-.2-.6-.6-.4-1 .2-.4.6-.6 1-.4.4.2.6.6.4 1-.1.3-.4.5-.7.4h-.3zm4 6c-.4-.2-.5-.6-.4-1 .2-.4.6-.6 1-.4.4.2.6.6.4 1-.1.3-.4.5-.7.4-.1.1-.2.1-.3 0zm8.5-9.3c-.1-.4.1-.8.5-.9.4-.1.8.2.9.6.1.4-.2.8-.6.9h-.2c-.2 0-.5-.2-.6-.6zm2.2-4.5c-.4 0-.8-.4-.7-.8 0-.4.4-.7.8-.7s.7.4.7.8-.4.7-.8.7zm3.1 15c-.4 0-.7-.4-.7-.8s.4-.7.8-.7.7.4.7.8-.4.7-.8.7zm-10.4-17.6c-.2-.4 0-.8.4-1 .4-.2.8 0 1 .4.2.4 0 .8-.4 1h-.3c-.2.1-.5-.1-.7-.4zm-5.6.3c-.4 0-.7-.4-.7-.8s.4-.7.8-.7.7.4.7.8c-.1.4-.4.7-.8.7z" opacity=".75"/></g></g></g></svg>