<svg xmlns="http://www.w3.org/2000/svg" width="150" height="150" viewBox="0 0 150 150"><path fill="#fff" d="M110.294 30.73a4.019 4.019 0 0 1-7.764-2.072 4.014 4.014 0 0 1 4.918-2.845 4.016 4.016 0 0 1 2.846 4.916zM66.5 102.5v19h7v-19"/><path fill="#B67945" d="M73.5 93.5c-5.143 0-7 2.317-7 5v12h7v-17z"/><path fill="#FFE18C" d="M54.272 33.098c-2.107 7.9 2.583 16.013 10.483 18.12 7.903 2.11 16.012-2.587 18.12-10.486 2.107-7.895-2.58-16.01-10.483-18.12-7.903-2.106-16.012 2.59-18.12 10.486z"/><path fill="#FFE18C" d="M53.273 31.783c-2.26 8.466 2.77 17.163 11.238 19.424 8.472 2.26 17.163-2.774 19.422-11.24 2.26-8.464-2.77-17.16-11.24-19.422-8.467-2.26-17.16 2.775-19.42 11.238z"/><path fill="#FFE18C" d="M63.51 39.56l10.413-8.65s-1.728 17.418-10.376 12.92l-.038-4.27z"/><path fill="#37B34A" d="M84.29 67.543c0-8.175-6.623-14.803-14.796-14.803"/><path fill="#2A963E" d="M54.69 87.98c0 8.176 6.628 14.806 14.804 14.806 8.173 0 14.797-6.63 14.797-14.805V67.544c0-8.175-6.623-14.803-14.796-14.803-8.176 0-14.805 6.63-14.805 14.803V87.98z"/><path fill="#36B149" d="M54.69 87.98c0 8.176 6.628 14.806 14.804 14.806 8.173 0 9.006-6.11 9.006-14.286v-21c0-8.175-.827-15-9-15-8.176 0-14.81 6.87-14.81 15.043V87.98z"/><path fill="#333" d="M74.5 121.5h-9c-2.997 5.813-10.547 6.243-11.607 2.015 0 0-4.14 8.016 14.455 6.873 4.394-.274 7.694-4.745 6.152-8.888z"/><path fill="#FFE18C" d="M58.798 35.572l-14.497.3c-1.458-.39-2.02 1.718.088 2.28l16.052 4.285-1.642-6.865z"/><path fill="#F7981D" d="M93.072 140.824c1.142-15.208 7.928-16.947 7.928-29.27 0-6.382-3.55-11.554-7.928-11.554s-7.928 5.172-7.928 11.554c0 12.71 6.342 13.865 7.928 29.27z"/><path fill="#FFF100" d="M92.823 120c.538-7.156 3.73-7.977 3.73-13.773 0-3.003-1.672-5.435-3.73-5.435-2.06 0-3.73 2.432-3.73 5.435 0 5.98 2.983 6.524 3.73 13.773z"/><path fill="#A0A2A4" d="M103.5 97.5v-36c0-4.885-5.015-8.643-9.9-8.643-4.888 0-10.1 3.758-10.1 8.643v36"/><path fill="#C0C1C3" d="M96.5 97.5V61.314c0-4.885-.845-8.66-4.15-8.66-4.888 0-8.85 3.962-8.85 8.846v36"/><path fill="#333" d="M54.5 80.5h48v8h-48z"/><path fill="#FFD600" d="M54.5 80.5h2v8h-2z"/><path fill="#2A963E" d="M84.76 41.224a16.693 16.693 0 0 1-6.523 9.366c-5.415-1.722-12.436-5.692-10.18-14.15 2.264-8.482-2.907-12.067-8.93-13.39 3.89-2.645 8.858-3.654 13.76-2.344l29.752 7.94s-14.297-.847-17.88 12.578z"/><path fill="#36B149" d="M79.645 39.857c-1.052 3.947-5.14 5.516-8.23 7.698C66 45.83 65.8 44.898 68.054 36.438c2.266-8.48-2.905-12.066-8.927-13.39 3.89-2.644 8.857-3.653 13.76-2.343l29.75 7.94s-19.41-2.212-22.993 11.212z"/><path fill="#fff" d="M78.237 52.75c-.217 0-.437-.032-.655-.103-9.422-2.997-13.654-9.11-11.613-16.765.743-2.784.6-5.052-.428-6.738-1.153-1.897-3.467-3.236-6.877-3.984a2.157 2.157 0 0 1-1.646-2.572 2.158 2.158 0 0 1 2.57-1.647c4.607 1.01 7.85 3.015 9.642 5.957 1.663 2.733 1.97 6.13.91 10.1-1.427 5.352 1.517 9.233 8.75 11.534a2.163 2.163 0 0 1 1.403 2.715 2.157 2.157 0 0 1-2.058 1.505z"/><path fill="#333" d="M62.498 31.91l23.483 6.265-1.208 4.53L61.29 36.44z"/><ellipse transform="rotate(-165.02 59.246 33.034)" fill="#60BADE" cx="59.237" cy="33.038" rx="4.007" ry="6.576"/><path fill="#333" d="M58.19 40.654c-.322 0-.642-.042-.95-.124-1.447-.385-2.537-1.592-3.068-3.398-.47-1.6-.452-3.528.056-5.432.987-3.697 3.48-6.28 6.057-6.28.323 0 .644.042.954.125 2.807.748 4.13 4.627 3.007 8.83-.988 3.696-3.478 6.28-6.057 6.28zm2.094-12.877c-1.263 0-3.023 1.695-3.78 4.53-.392 1.47-.42 2.985-.073 4.158.287.97.802 1.622 1.414 1.787.11.03.228.043.345.043 1.262 0 3.023-1.695 3.78-4.53.82-3.074-.048-5.6-1.34-5.945a1.318 1.318 0 0 0-.346-.043z"/><circle fill="#FFE18C" cx="69.875" cy="79.968" r="4.754"/><path fill="#333" d="M98.5 80.5h5v8h-5z"/></svg>