<svg id="Layer_1" data-name="Layer 1" xmlns="http://www.w3.org/2000/svg" width="180" height="215" viewBox="0 0 180 215"><defs><style>.cls-2{fill:#fff}.cls-3{fill:#e53935}.cls-4{fill:#39f}.cls-5{fill:#f9ce1d}.cls-6{fill:none;stroke:#39f;stroke-width:10px;stroke-miterlimit:10}.cls-7{fill:#bf8f68}.cls-8{fill:#00acc1}.cls-11{fill:#f33}.cls-12{fill:#a0a2a4}.cls-13{fill:#c0c1c3}.cls-15{fill:#332e2e}</style><linearGradient id="linear-gradient" x1="-1819.78" y1="336.73" x2="-1832.61" y2="323.9" gradientTransform="matrix(-1 .01 .01 1 -1745.97 -252.05)" gradientUnits="userSpaceOnUse"><stop offset="0" stop-color="#a4ecf9"/><stop offset="1" stop-color="#3ddaf2"/></linearGradient></defs><path fill="#fff100" d="M38.27 42.43l22.43 59.81L.42 120.88l61.17 20.71 8.69 40.38 15.9-25.55 35.77 36.12-.77-43.32 42.2 15.47-34.39-46.88 50.59-30.35-50.07 6.58 17.75-49.93-33.53 35.16L87.75 2.28l-9.61 75.07-39.87-34.92z"/><path class="cls-2" d="M72.6 153.32a5.49 5.49 0 1 1-6.6-4.14 5.47 5.47 0 0 1 6.6 4.14z"/><path class="cls-3" d="M83.22 92.84l-17.36 55.94-39.74-43.02 57.1-12.92z"/><path class="cls-3" d="M83.16 92.86l-17.3 55.92L37.9 103.1l45.26-10.24z"/><rect class="cls-2" x="21.61" y="93.27" width="66.15" height="11.7" rx="3.05" transform="rotate(-12.75 54.676 99.087)"/><path class="cls-2" d="M31.92 107.14a3 3 0 0 0 3.65 2.3L85.25 98.2a3 3 0 0 0 2.31-3.64l-1.24-5.46a3.05 3.05 0 0 0-3.65-2.31L33 98a3 3 0 0 0-2.3 3.65z"/><path class="cls-4" d="M84.06 170.33l-9 6.76a26.09 26.09 0 0 1 5.14-36.52l6.77 9a14.83 14.83 0 0 0-2.91 20.76z"/><path d="M63 193.21a10.88 10.88 0 0 0 15.25 2.15 8.45 8.45 0 0 0 1.66-11.82l-4.86-6.45 9-6.76L98.85 190a2.81 2.81 0 0 1-.55 3.94l-22 16.55a11.06 11.06 0 0 1-15.21-1.68 10.9 10.9 0 0 1 1.91-15.6z"/><path class="cls-5" d="M81.62 185.79l3.38-2.54a2.82 2.82 0 0 0-3.39-4.5l-3.37 2.55a2.81 2.81 0 1 0 3.38 4.49z"/><path class="cls-4" d="M115.55 165l10.72 3.41a26.08 26.08 0 0 0-16.93-32.76l-3.41 10.71a14.83 14.83 0 0 1 9.62 18.64z"/><path d="M143 179.61a10.87 10.87 0 0 1-13.67 7.06 8.43 8.43 0 0 1-5.48-10.6l2.45-7.69-10.75-3.38-7.46 23.42a2.81 2.81 0 0 0 1.82 3.53l26.2 8.35a11.05 11.05 0 0 0 13.8-6.61 10.88 10.88 0 0 0-6.91-14.08z"/><path class="cls-5" d="M123 178.75l-4-1.28a2.81 2.81 0 1 1 1.71-5.36l4 1.28a2.81 2.81 0 1 1-1.71 5.36z"/><path class="cls-6" d="M104.75 99.3c-29.2-5.88-41.43 23.23-59.26 26.7"/><circle class="cls-7" cx="35.19" cy="128.02" r="10.5"/><path class="cls-2" d="M52 133.79l-3.4-17.45a4.93 4.93 0 0 0-9.6 1.88l3.41 17.46a4.92 4.92 0 1 0 9.59-1.89z"/><path class="cls-8" d="M93.09 96.27l.36 44.28M102.19 140.47l-17.49.15 8.39-44.35 9.1 44.2z"/><path class="cls-4" d="M93.05 91.27a21.34 21.34 0 0 1 21.5 21.15l.14 17.87a21.33 21.33 0 1 1-42.65.34l-.14-17.86a21.32 21.32 0 0 1 21.15-21.5z"/><path class="cls-6" d="M106 99.55c25.58 26 48.77-7.61 32-30.15"/><circle class="cls-7" cx="131.81" cy="60.95" r="10.5"/><path class="cls-2" d="M149.16 61.2a4.92 4.92 0 0 0-6.88-1L128 70.72a4.92 4.92 0 1 0 5.84 7.92l14.32-10.56a4.92 4.92 0 0 0 1-6.88z"/><circle class="cls-7" cx="92.88" cy="69.95" r="21.32"/><path d="M106.07 92a15 15 0 0 0 16.29 9.09c8.72-1.65 14.14-10.65 22.37-14a19 19 0 0 1 21.51 5.82" stroke-width="6.5" stroke="#e53935" stroke-miterlimit="10" fill="none"/><path d="M106.57 91.86c3.75-4.41 10.73-4.11 16.13-2s10.3 5.59 16 6.54a18.75 18.75 0 0 0 21.81-19" stroke="#f33" stroke-width="6.5" stroke-miterlimit="10" fill="none"/><rect class="cls-11" x="73.68" y="86.45" width="39.15" height="12.23" rx="3.87" transform="rotate(180 93.29 92.407)"/><path class="cls-12" d="M74.87 139.81v-38.37a9.35 9.35 0 1 1 18.7 0v38.37s-19.16-.46-18.7 0"/><path class="cls-12" d="M76.45 106.85l-25.99 7.21v5.41l25.84.15.15-12.77z"/><path class="cls-13" d="M74.87 139.81v-38.37a9.36 9.36 0 0 1 9.35-9.36c3.49 0 4.1 4.19 4.1 9.36v38.37z"/><path class="cls-12" d="M93.53 139.81v-38.37a9.36 9.36 0 1 1 18.71 0v38.37s-19.17-.46-18.71 0"/><path class="cls-13" d="M93.53 139.81v-38.37a9.36 9.36 0 0 1 9.36-9.36c3.49 0 4.09 4.19 4.09 9.36v38.37z"/><path fill="#333" d="M74.86 120.89h37.38v7.82H74.86z"/><path class="cls-15" transform="rotate(179.54 93.35 125.132)" d="M72 119.8h42.7v10.66H72z"/><path class="cls-12" d="M110.44 106.85l25.99 7.21v5.41l-25.84.15-.15-12.77z"/><ellipse class="cls-15" cx="103.44" cy="68.47" rx="10.66" ry="18.46" transform="rotate(-7.96 103.479 68.507)"/><path class="cls-15" d="M112.85 74.48l-10.76 3a11.14 11.14 0 0 0-7.76 13.73l10.76-3a11.14 11.14 0 0 0 7.76-13.73z"/><path class="cls-15" d="M105.09 88.21l-10.76 3a11.15 11.15 0 0 0-7.75 13.73l10.76-3a11.15 11.15 0 0 0 7.75-13.73zM95 114.2l-1.5-5.38a5.58 5.58 0 0 0-6.87-3.88l1.5 5.38A5.57 5.57 0 0 0 95 114.2zM84.2 117.19l-1.5-5.38a5.57 5.57 0 0 1 3.88-6.87l1.5 5.38a5.59 5.59 0 0 1-3.88 6.87z"/><path class="cls-7" d="M77.68 54.99l-14.96 15.2 8.84-.07 6.12-15.13z"/><circle class="cls-2" cx="122.67" cy="17.38" r="7.42"/><path class="cls-4" d="M79.47 50.37l39.54-26.53-2.44 47.55-37.1-21.02z"/><path class="cls-2" d="M116.62 77.64a6.25 6.25 0 0 0 3-11.68l-37.1-21a6.25 6.25 0 0 0-6.14 10.84l37.11 21a6.22 6.22 0 0 0 3.13.84z"/><path stroke-linecap="round" stroke-linejoin="round" stroke-width="1.5" stroke="#332e2e" fill="none" d="M86.43 63.89l-8.16-1.01 5.5 4.71"/><circle cx="82.82" cy="63.58" r="9.07" opacity=".5" fill="url(#linear-gradient)"/><circle cx="82.82" cy="63.58" r="9.07" stroke-width="2.5" stroke="#332e2e" stroke-miterlimit="10" fill="none"/><path class="cls-7" d="M93.86 65.7l10.81-11s4 12-2.77 18.91a5.64 5.64 0 0 1-8-7.92z"/><path class="cls-2" d="M71.79 73.1a21.35 21.35 0 0 0 4.32 10h9.63a10.58 10.58 0 0 0-10.62-10.56 10.82 10.82 0 0 0-3.33.56z"/><g opacity=".6"><path class="cls-11" d="M162.39 85.51a22.06 22.06 0 0 0 1.38-8.25l-6.5.19a15.38 15.38 0 0 1-1 5.75 22.53 22.53 0 0 0-7.76-.4 33.26 33.26 0 0 0-3.81-12.2l3.41-2.52a4.92 4.92 0 1 0-5.84-7.92 10.4 10.4 0 0 0-2-5.45 10.5 10.5 0 1 0-12.29 16 4.92 4.92 0 1 0 5.84 7.92l2.69-2a25 25 0 0 1 2.15 10.07 68.1 68.1 0 0 0-5.66 4.39c-1.05-.49-2.11-1-3.19-1.55-1.9-.94-3.87-1.92-5.94-2.72-4-1.55-9.21-2.34-13.73-.95a2.7 2.7 0 0 0-.56-.14 11.16 11.16 0 0 0 3.65-9l.26.15A6.25 6.25 0 1 0 119.65 66l-2.72-1.55L119 23.84 85.27 46.47l-2.72-1.54a6.25 6.25 0 0 0-7.68 9.67l-.12.13-.13.12-.12.13-.12.12-.13.13-.12.13-.13.14-.12.13-.12.12v2.94c-.1.19-.18.38-.27.58L62.72 70.19l8.84-.07a21 21 0 0 0 .25 3c0 .32.11.64.18 1s.06.36.1.53c.12.53.26 1.06.42 1.57.06.21.13.42.2.63.15.44.31.87.48 1.3l.24.55c.2.46.42.9.66 1.34.1.2.21.39.32.59.23.39.47.78.72 1.15.12.19.25.37.38.56l.62.85a21.55 21.55 0 0 0 4.15 4l-3 .16a3.89 3.89 0 0 0-2.74 1.36L24.11 100a3 3 0 0 0-2.3 3.65l1.19 5.5a3 3 0 0 0 3.65 2.3l3.87-.88 6.6 7.14a10.65 10.65 0 0 0-4 0 10.5 10.5 0 1 0 9.18 18 4.92 4.92 0 0 0 9.7-1.91l13.84 15L72 128.92v1.71a21.2 21.2 0 0 0 4.67 13.12 26 26 0 0 0-4.92 7.71 5.48 5.48 0 1 0-3.33 8.42 5.37 5.37 0 0 0 1.45-.55 26 26 0 0 0 5.16 17.76l3.17 4.21a2.81 2.81 0 0 0 3 4.74 8.43 8.43 0 0 1-3 9.32 10.88 10.88 0 0 1-15.2-2.15 10.9 10.9 0 0 0-1.9 15.56 11.06 11.06 0 0 0 15.21 1.68l22-16.55a2.81 2.81 0 0 0 .55-3.94l-14.8-19.63a14.84 14.84 0 0 1 1.87-19.9 21.2 21.2 0 0 0 21.17-3.66 14.83 14.83 0 0 1 8.45 18.23l-7.46 23.43a2.8 2.8 0 0 0 1.82 3.53l26.2 8.35a11.05 11.05 0 0 0 13.8-6.61 10.88 10.88 0 0 0-6.94-14 10.87 10.87 0 0 1-13.67 7.06 8.43 8.43 0 0 1-5.87-7.82 2.81 2.81 0 0 0 1.24-5.46l1.6-5a26.07 26.07 0 0 0-12.75-31 21.29 21.29 0 0 0 1.17-7.08l-.09-10.66h-.05l21.83-.12v-5.41l-4.65-1.29a22.82 22.82 0 0 0 7.26-4.19 26.83 26.83 0 0 0 6.78-9.09 22.2 22.2 0 0 0 10.42-5 21.56 21.56 0 0 0 3-3.29 14.71 14.71 0 0 1 4.38 3.74l5.14-4a20.73 20.73 0 0 0-6.32-5.58zm-40.87 7.36c1.79.7 3.54 1.57 5.4 2.49l.32.17a15.69 15.69 0 0 1-5.49 2.35 11.54 11.54 0 0 1-9.13-2.4 3.82 3.82 0 0 0 .3-1.69l-.1-1.92a16 16 0 0 1 8.7 1zm11 8.12a11.84 11.84 0 0 1-8.32 3 27.29 27.29 0 0 0 9.94-5.43l.53.18a16.92 16.92 0 0 1-2.14 2.26zM152 89.57a15.18 15.18 0 0 1-3.77 2.37q.23-1.23.36-2.49v-.08a14.62 14.62 0 0 1 3.85-.23c-.18.14-.32.3-.44.43z"/><path class="cls-11" d="M129.12 21A7.42 7.42 0 1 0 119 23.84 7.42 7.42 0 0 0 129.12 21z"/></g></svg>