<svg xmlns="http://www.w3.org/2000/svg" width="225" height="238.2" viewBox="-193 277.8 225 238.2"><path fill="#FCEE21" d="M-139.7 357l29.9 56.7-57.6 26.2 63.5 12.9 13.8 39 12.5-27.4 40.2 31.4-6.3-43 44 10-40.2-42.2 46.5-36.7-49 12.9 11.3-51.9-28.9 39.2-35.6-73.3v75.9z"/><g fill="#FEE18C"><path d="M-18 427.3l-.8-11.1 8.2-.6c3.1-.2 5.7 2 5.9 5.1.2 3.1-2 5.7-5.1 5.9l-8.2.7z"/><path d="M-15.4 419.4l-3.5-2.6 2-2.6c.7-.9 2.1-1.2 3.1-.4.9.7 1.2 2.1.4 3.1l-2 2.5z"/></g><path stroke="#38B14A" stroke-width="10.048" stroke-miterlimit="10" fill="none" d="M-61.5 417.7l20.7 8 5.7-6.8 17.4 1.7"/><g fill="#FEE18C"><path d="M-111.7 381.1l11.1.3.2-8.2c.1-3.1-2.4-5.6-5.4-5.7-3.1-.1-5.6 2.4-5.7 5.4l-.2 8.2z"/><path d="M-104 378l2.7 3.3 2.4-2c.9-.8 1-2.1.2-3.1-.8-.9-2.1-1-3.1-.2l-2.2 2z"/></g><path stroke="#38B14A" stroke-width="11.932" stroke-miterlimit="10" fill="none" d="M-106.5 380.9l-.7 19.9 21.7 15.8"/><path fill="#fff" d="M-92.6 488c.5 3.8-2.1 7.2-5.9 7.8-3.8.5-7.2-2.1-7.8-5.9-.5-3.8 2.1-7.2 5.9-7.8 3.8-.5 7.2 2.1 7.8 5.9z"/><path fill="#C32126" d="M-72.7 413.5l-27.9 68.1-45-58.3z"/><path fill="#E82128" d="M-90.2 415.8l-10.4 65.8-45-58.3z"/><path fill="#fff" d="M-149.8 427.2c.3 2.1 2.2 3.5 4.3 3.3l62.8-8.5c2.1-.3 3.6-2.2 3.3-4.3l-.9-7c-.3-2.1-2.2-3.5-4.3-3.3l-62.8 8.5c-2.1.3-3.6 2.2-3.3 4.3l.9 7zm81.1 40.3l18.5 15.8-6.6 7.8-18.6-15.8"/><path fill="#B77945" d="M-83.9 464.9c4.4-5.2 7.8-3.8 10.4-1.5l11.2 9.6-6.7 7.8-16.4-14 1.5-1.9z"/><path fill="#333" d="M-58.7 490.4l7.8-9.1c8.5 2 15.2-5.8 11.8-10.6 0 0 11.7 2.7-5.5 20.5-4.2 4.3-11.3 4.3-14.1-.8z"/><path fill="#fff" d="M-103.7 460.4l-17 17.5 7.4 7.1 17-17.4"/><path fill="#B77945" d="M-88.9 456.4c-4.9-4.8-8.1-3.1-10.5-.5l-10.3 10.6 7.4 7.1 15-15.5-1.6-1.7z"/><path fill="#2B9746" d="M-102.5 445.8c-3.5 10.3 2 21.4 12.4 24.9 10.3 3.5 21.4-2.1 24.9-12.4l8.6-25.7c3.5-10.3-2-21.4-12.3-24.9s-21.4 2-24.9 12.4l-8.7 25.7z"/><g fill="#FEE18C"><path d="M-53.4 374.2c-5.2-9.6-17.1-13.1-26.7-7.9-3.9 2.1-6.8 5.3-8.5 9l6.6 7c1.9 2-1.7 8.1-3.6 6 0 0-4.9-4-4.6-1.9.3 2.2 1 4.3 2.1 6.4 5.2 9.6 17.1 13.1 26.6 7.9 9.7-5 13.3-17 8.1-26.5z"/><path d="M-77.9 381.1l17.8 2.2S-78.5 397.5-82 385l4.1-3.9z"/></g><path fill="#FEE18C" d="M-78.3 372.8l-13.6-13.7c-.9-1.7-3.5-.4-2.1 2.2l10.5 19.3 5.2-7.8z"/><path fill="#2B9746" d="M-60.1 403.1c-4.8 2.6-10 3.2-15 2.3-3.3-6.8-5.8-17.2 4.4-22.8 10.3-5.6 9-13.8 4.8-20.8 6.1 1.3 11.6 5.3 14.8 11.1l19.5 36c-.1 0-12.3-14.6-28.5-5.8z"/><path fill="#38B14A" d="M-63.4 396.9c-4.8 2.6-10 .1-14.9-.9-3.3-6.8-2.5-7.8 7.7-13.3 10.3-5.6 9-13.8 4.8-20.8 6.1 1.3 11.6 5.3 14.8 11.1l19.5 36c-.2-.1-15.7-20.9-31.9-12.1z"/><path fill="#fff" d="M-24.7 416.3c-2.6 3.7-7.5 3.1-9.3-.3-1.4-2.6-.5-5.8 2.1-7.2 3.3-1.8 7.7.3 7.9 4.8.2.9 0 1.9-.7 2.7z"/><path stroke="#fff" stroke-width="5.737" stroke-linecap="round" stroke-linejoin="round" stroke-miterlimit="10" d="M-66 361.8c4.2 7 5.5 15.3-4.8 20.8-10.2 5.5-7.7 15.9-4.4 22.8" fill="none"/><path fill="#333" d="M-71.37 373.035l15.37 28.41-5.454 2.95-15.368-28.41z"/><ellipse transform="rotate(-118.44 -75.535 371.022)" fill="#61BBDF" stroke="#333" stroke-width="3.129" stroke-miterlimit="10" cx="-75.4" cy="371" rx="5.3" ry="8.7"/><path fill="#38B14A" d="M-102.5 445.8c-3.5 10.3 2 21.4 12.4 24.9 10.3 3.5 13.6-4.7 17-15l8.6-25.7c3.5-10.3 5.8-18.8-4.5-22.2-10.3-3.5-21.4 2-24.9 12.4l-8.6 25.6z"/><path fill="#333" d="M-111.5 484.1l-8.6-8.3c-8.2 2.7-15.6-4.4-12.7-9.4 0 0-11.4 3.8 7.5 19.9 4.4 3.8 11.5 3.2 13.8-2.2z"/><path fill="#A0A1A3" d="M-103.7 462.9v-48.2c0-6.5 5.3-11.8 11.8-11.8s11.8 5.3 11.8 11.8v48.2c-.1 0-24.2-.5-23.6 0"/><path fill="#A0A1A3" d="M-101.7 421.6l-32.6 9v6.8l32.4.2z"/><path fill="#C0C1C3" d="M-103.7 462.9v-48.2c0-6.5 5.3-11.8 11.8-11.8 4.4 0 5.1 5.3 5.1 11.8v48.2h-16.9z"/><path fill="#A0A1A3" d="M-80.2 462.9v-48.2c0-6.5 5.3-11.8 11.8-11.8s11.8 5.3 11.8 11.8v48.2c-.2 0-24.2-.5-23.6 0"/><path fill="#C0C1C3" d="M-80.2 462.9v-48.2c0-6.5 5.3-11.8 11.8-11.8 4.4 0 5.2 5.3 5.2 11.8v48.2h-17z"/><path fill="#333" d="M-103.7 439.2h46.9v9.8h-46.9z"/><path fill="#A0A1A3" d="M-59 421.6l32.6 9v6.8l-32.4.2z"/></svg>