<svg xmlns="http://www.w3.org/2000/svg" xmlns:xlink="http://www.w3.org/1999/xlink" viewBox="-200 -125 1840 1075" width="2040" height="1300"><style>.st0{fill:#80deea}.st1{fill:#26c6da}.st2{fill:#e9f9fd}.st3{fill:#1b69c1}.st6{fill:#725d4c}.st7{fill:#7399ad}.st10{fill:#fff}.st13{fill:#6bb4fd}.st14{fill:#dbf3fb}.st15{fill:#00c1f2}.st16{fill:#c7e8f9}.st18{fill:#ffc5a5}.st19{fill:#fadcbc}.st20{fill:#fff8bd}.st21{fill:#332f2e}.st22{opacity:.22;enable-background:new}.st23{fill:#84d2f6}.st24{opacity:.2;enable-background:new}.st25{fill:#2c84db}.st26{fill:#c1e8ed}.st27{fill:#f4fdff}.st29{fill:#2a56ad}.st30{fill:#f73}.st31{fill:#d92626}.st32{fill:#049aad}.st33{fill:#00b4c9}.st34{fill:#93dae4}.st37{fill:#bdbdbd}.st40{fill:#e0bb95}.st41{fill:#fee14c}.st42{fill:#fce68d}.st43{fill:#41474c}.st44{fill:#74797e}.st45{fill:#39f}</style><g id="ground"><path class="st0" d="M500.2 358l-13.5-7.2-8.1-4.5-5.5-3 .3-53.7 26.9 14.9-.1 53.5z"/><path class="st1" d="M500.2 358l-.1-26.5.2-26.9 36.2-5.6-.3 53.5-36 5.5z"/><path class="st2" d="M509.7 284.1l-36.3 5.5 26.9 15 36.2-5.5z"/><path class="st1" d="M529.5 297.8l-5 .7-15.3 2.4-8.5 1.3-15.4-8.6-4.8-2.7 28.7-4.4z"/><path class="st0" d="M529.5 297.8l-5 .7-15.3 2.4v-14.4z"/><path class="st2" d="M524.5 298.5l-23.8 3.7-15.4-8.6 23.8-3.7z"/><path class="st2" d="M509.2 297.8c-2.9 0-5.3 2.3-5.3 5.3l-.5 83.5c0 2.9 2.3 5.3 5.3 5.3 2.9 0 5.3-2.4 5.3-5.3l.5-83.5c0-2.9-2.3-5.3-5.3-5.3z"/><path class="st0" d="M511 298.4c-2.9 0-5.3 2.3-5.3 5.3l-.5 83.5c0 2.9 2.3 5.3 5.3 5.3 2.9 0 5.3-2.4 5.3-5.3l.5-83.5c0-2.9-2.4-5.3-5.3-5.3z"/><path class="st2" d="M525.7 295.4c-2.9 0-5.3 2.3-5.3 5.3l-.5 83.5c0 2.9 2.3 5.3 5.3 5.3 2.9 0 5.3-2.4 5.3-5.3l.5-83.5c0-2.9-2.3-5.3-5.3-5.3z"/><path class="st0" d="M527.5 295.9c-2.9 0-5.3 2.3-5.3 5.3l-.5 83.5c0 2.9 2.3 5.3 5.3 5.3 2.9 0 5.3-2.4 5.3-5.3l.5-83.5c0-2.9-2.4-5.2-5.3-5.3z"/><path class="st1" d="M531.5 304.6V316l-7.7 1.2v-5.7l.1-5.7 7.6-1.2zm-7.7 24.3v5.7l7.7-1.2V322l-7.6 1.2-.1 5.7zm0 17.4v5.7l7.7-1.2v-11.4l-7.6 1.2-.1 5.7z"/><path class="st3" d="M530 314.8l-6.2 1v-4.3l.1-5.7 6.2-.9-.1 9.9zm-6.2 14.1v4.3l6.2-1 .1-9.9-6.2.9-.1 5.7zm0 17.4v4.3l6.2-1 .1-9.9-6.2.9-.1 5.7z"/><path class="st2" d="M522.9 317.3c-.1-.5.3-.9.7-1l7.7-1.2c.5-.1.9.3 1 .7s-.3.9-.7 1L524 318h-.2c-.4 0-.8-.3-.9-.7zm1-10.6l7.8-1.2c.4-.1.8-.5.7-1-.1-.4-.5-.8-1-.7l-7.7 1.2c-.4.1-.8.5-.7 1 .1.4.5.7.9.7zm-.1 28.7c.1 0 .1 0 0 0l7.8-1.2c.4-.1.8-.5.7-1-.1-.4-.5-.8-1-.7l-7.7 1.2c-.4.1-.8.5-.7 1 .1.4.5.7.9.7zm7.6-14.2l-7.7 1.2c-.4.1-.8.5-.7 1 .1.4.5.7.9.7h.1l7.7-1.2c.4-.1.8-.5.7-1-.1-.4-.5-.8-1-.7zm-.1 28.7l-7.7 1.2c-.4.1-.8.5-.7 1 .1.4.5.7.9.7h.1l7.7-1.2c.4-.1.8-.5.7-1-.1-.4-.5-.8-1-.7zm.1-11.3l-7.7 1.2c-.4.1-.8.5-.7 1 .1.4.5.7.9.7h.1l7.7-1.2c.4-.1.8-.5.7-1-.1-.4-.5-.8-1-.7z"/><path class="st1" d="M514.8 307.5v11.4l-7.7 1.2v-5.7l.1-5.7 7.6-1.2zm-7.7 24.3v5.7l7.7-1.2v-11.4l-7.6 1.2-.1 5.7zm0 17.4v5.7l7.7-1.2v-11.4l-7.6 1.2-.1 5.7z"/><path class="st3" d="M513.2 317.7l-6.2 1v-4.3l.1-5.7 6.2-.9-.1 9.9zm-6.1 14.1v4.3l6.2-1 .1-9.9-6.2.9-.1 5.7zm0 17.4v4.3l6.2-1 .1-9.9-6.2.9-.1 5.7z"/><path class="st2" d="M506.1 320.2c-.1-.5.3-.9.7-1l7.7-1.2c.5-.1.9.3 1 .7s-.3.9-.7 1l-7.6 1.2h-.2c-.4 0-.7-.3-.9-.7zm1.1-10.6l7.8-1.2c.4-.1.8-.5.7-1-.1-.4-.5-.8-1-.7l-7.7 1.2c-.4.1-.8.5-.7 1 .1.4.5.7.9.7zm-.1 28.7c.1 0 .1 0 0 0l7.8-1.2c.4-.1.8-.5.7-1-.1-.4-.5-.8-1-.7l-7.7 1.2c-.4.1-.8.5-.7 1 .1.4.4.7.9.7zm7.6-14.2l-7.7 1.2c-.4.1-.8.5-.7 1 .1.4.5.7.9.7h.1l7.7-1.2c.4-.1.8-.5.7-1-.1-.4-.5-.8-1-.7zm-.2 28.7l-7.7 1.2c-.4.1-.8.5-.7 1 .1.4.5.7.9.7h.1l7.7-1.2c.4-.1.8-.5.7-1 0-.4-.5-.8-1-.7zm.2-11.3l-7.7 1.2c-.4.1-.8.5-.7 1 .1.4.5.7.9.7h.1l7.7-1.2c.4-.1.8-.5.7-1-.1-.4-.5-.8-1-.7z"/><path fill="#59493c" d="M270.8 357.8h8.6V395h-8.6z"/><path fill="#06552c" d="M275.1 259.2l37 117.1H238z"/><path class="st6" d="M297.1 372.5h5.8v23h-5.8z"/><path class="st7" d="M302.9 388.6h-5.8v3.9l5.8-2.6z"/><path fill="#0a713b" d="M300 310l24.9 78.6h-49.8z"/><defs><path id="SVGID_1_" d="M300 310l24.9 78.6h-49.8z"/></defs><clipPath id="SVGID_2_"><use xlink:href="#SVGID_1_" overflow="visible"/></clipPath><path d="M325.1 325.3l2.9 2.8-28 28-28-28 2.9-2.8 25.1 25.1 25.1-25.1zM300 368l-25.1-25.1-2.9 2.9 28 28 28-28-2.9-2.9L300 368zm0 17.7l-25.1-25.1-2.9 2.9 28 28 28-28-2.9-2.9-25.1 25.1zm28-110.5l-2.9-2.9-25.1 25.1-25.1-25.1-2.9 2.9 28 28 28-28zM300 315l-25.1-25.1-2.9 2.9 28 28 28-28-2.9-2.9L300 315zm0 17.7l-25.1-25.1-2.9 2.9 28 28 28-28-2.9-2.9-25.1 25.1z" clip-path="url(#SVGID_2_)" fill="#06824a"/><path class="st10" d="M303.1 372c.1 2.7-2 4.7-4.5 4.7-2 0-3.7-1.3-4.4-3.1-.6 1.8-2.3 3.1-4.3 3.1s-3.7-1.2-4.4-3c-.6 1.8-2.2 3-4.2 3-2.6 0-4.7-2.1-4.7-4.7 0-.2.2-.3.3-.3h25.9c.2 0 .3.2.3.3zm17.1-13.8h-25.8c-.1 0-.3.1-.3.3 0 2.6 2.1 4.7 4.7 4.7 1.9 0 3.6-1.2 4.2-3 .7 1.8 2.4 3 4.4 3s3.6-1.2 4.3-2.9c.7 1.7 2.4 2.9 4.3 2.9 2.6 0 4.7-2.1 4.5-4.7 0-.1-.1-.3-.3-.3zm-30.3-12.7c2 0 3.7-1.3 4.3-3.1.7 1.8 2.4 3.1 4.4 3.1 2.5 0 4.6-2.1 4.5-4.7 0-.1-.1-.3-.3-.3H285.5c-.1 0-.3.1-.3.3 0 2.6 2.1 4.7 4.7 4.7zm14.7-13.5c2.6 0 4.7-2.1 4.5-4.7 0-.1-.1-.3-.3-.3h-8.6c-.1 0-.3.1-.3.3 0 2.6 2.1 4.7 4.7 4.7z"/><path class="st6" d="M243.3 360.5h8.1v35h-8.1z"/><path class="st7" d="M251.4 383h-8.1v5.5l8.1-3.7z"/><path fill="#038f48" d="M247.3 272.9L282.2 383h-69.7z"/><defs><path id="SVGID_3_" d="M247.3 272.9L282.2 383h-69.7z"/></defs><clipPath id="SVGID_4_"><use xlink:href="#SVGID_3_" overflow="visible"/></clipPath><path d="M283.1 294.9l2.9 2.9-38.7 38.6-38.6-38.6 2.9-2.9 35.7 35.7 35.8-35.7zm-35.8 60.5l-35.7-35.8-2.9 2.9 38.6 38.6 38.7-38.6-2.9-2.9-35.8 35.8zm0 24.7l-35.7-35.7-2.9 2.8 38.6 38.7 38.7-38.7-2.9-2.8-35.8 35.7zM286 223.6l-2.9-2.9-35.8 35.7-35.7-35.7-2.9 2.9 38.6 38.6 38.7-38.6zm-38.7 57.6l-35.7-35.8-2.9 2.9 38.6 38.6 38.7-38.6-2.9-2.9-35.8 35.8zm0 24.7l-35.7-35.8-2.9 2.9 38.6 38.7L286 273l-2.9-2.9-35.8 35.8z" clip-path="url(#SVGID_4_)" fill="#00a760"/><path class="st7" d="M247.3 272.9L267.4 383h14.8z"/><path class="st10" d="M251.6 362.9c.1 3.5-2.7 6.4-6.3 6.4-2.8 0-5.2-1.9-6.1-4.4-.8 2.5-3.1 4.4-6 4.4-2.8 0-5.2-1.9-6.1-4.4-.8 2.5-3.2 4.4-6 4.4-3.5 0-6.4-2.9-6.4-6.4 0-.2.2-.3.3-.3h36.3c.2 0 .3.2.3.3zm24-18.1h-36.4c-.1 0-.3.1-.3.3 0 3.5 2.9 6.4 6.4 6.4 3 0 5.4-1.9 6.1-4.5.8 2.6 3.3 4.5 6.1 4.5s5.2-1.8 6-4.5c.8 2.6 3.3 4.5 6.1 4.5 3.5 0 6.4-2.8 6.3-6.4 0-.1-.1-.3-.3-.3zm-45.4-11c2.8 0 5.2-1.8 6-4.4.9 2.5 3.3 4.4 6.1 4.4 3.5 0 6.4-2.8 6.3-6.4 0-.1-.1-.3-.3-.3h-24.2c-.1 0-.3.1-.3.3 0 3.5 2.9 6.4 6.4 6.4zm8.4-23.8c0 3.5 2.9 6.4 6.4 6.4 2.9 0 5.3-1.9 6-4.4.9 2.5 3.3 4.4 6.1 4.4 3.6 0 6.4-2.9 6.3-6.4 0-.1-.1-.3-.3-.3h-24.2c-.1 0-.3.1-.3.3zm3.7-9.4c3.5 0 6.4-2.8 6.3-6.4 0-.1-.1-.3-.3-.3h-12.1c-.1 0-.3.1-.3.3 0 3.5 2.9 6.4 6.4 6.4z"/><g><path class="st0" d="M334.8 402.5l-9-14.6-20.1 1-9.7 24.2s18.2 17 18.6 17 22.8-11.9 22.8-11.9l-2.6-15.7z"/><path class="st13" d="M314.5 396.5l-8.8-7.5 20.1-1.1 5.8 9.5z"/><path class="st10" d="M316.7 417.4l8.1-12.8-10.3-8.1-6.4 8.1.9 7.1z"/><path class="st13" d="M316.7 417.4l-2.2 12.8 22.9-11.9-2.6-15.8-10 2.1z"/><path class="st0" d="M316.7 417.4l20.7.9-12.6-13.7z"/><path class="st13" d="M308.1 404.6l-7.8-2.1-4.3 10.7 13-1.5zm81.9-25.8l2.9 11.8-6.4 8.6-18.3-2.7-3.4-16.8 12.3-7.4z"/><path class="st0" d="M389 378.8l-15.5-.1 3.6-6.4zm-3.5 20.4l-3.7-9.2-8.4.8-5.2 5.7z"/><path class="st0" d="M364.8 379.7l8.7-1 8.3 11.3-8.4.8z"/><path class="st10" d="M389 378.8l-7.2 11.2-8.3-11.3z"/><path class="st13" d="M403.5 377.9l-2.4 9.7 5.3 7.1 15-2.2 2.8-13.8-10.1-6.1z"/><path class="st0" d="M404.3 377.9H417l-2.9-5.3zm2.9 16.8l3-7.6 6.9.7 4.3 4.7z"/><path class="st0" d="M424.2 378.7l-7.2-.8-6.8 9.2 6.9.7z"/><path class="st10" d="M404.3 377.9l5.9 9.2 6.8-9.2z"/><path class="st13" d="M411.9 435.5l-2.4 9.7 5.3 7.1 15.1-2.3 2.7-13.9-10.1-6.1z"/><path class="st0" d="M412.7 435.5l12.7-.2-2.9-5.3zm2.9 16.7l3-7.6 7 .7 4.3 4.7z"/><path class="st0" d="M432.6 436.1l-7.2-.8-6.8 9.3 7 .7z"/><path class="st10" d="M412.7 435.5l5.9 9.1 6.8-9.3z"/><g><path class="st13" d="M413.9 398.5l-2.4 9.6 5.3 7.1 15-2.2 2.8-13.8-10-6.1z"/><path class="st0" d="M414.7 398.5l12.8-.1-2.9-5.3zm2.9 16.7l3-7.6 6.9.7 4.3 4.7zM434.6 399.2l-7.1-.8-6.9 9.2 6.9.7z"/><path class="st10" d="M414.7 398.5l5.9 9.1 6.9-9.2z"/></g><g><path class="st13" d="M415.1 396l-9.4-7.6-14.5-3.5-17.8 13.9-10.8 17.9 10.8 12.6 19.4 3.1 24.1-14.2z"/><path class="st0" d="M401.1 408.7l15.8 9.5-24.1 14.2v-19.5zm-8.3-12.2h7.7s5.5-8 5.2-8.1-14.5-3.5-14.5-3.5l1.6 11.6zm-19.4 2.3l-10.8 17.9 10.8 12.6 8.8-24.6z"/><path class="st10" d="M392.2 392.2l-10 12.5 10.6 8.2 8.3-4.2-.6-12.2z"/></g><g><path class="st13" d="M421.9 414.3l7.6-6.1 11.7-2.8 14.4 11.2 8.7 14.4-8.7 10.1-15.7 2.5-19.4-11.4z"/><path class="st0" d="M433.2 424.5l-12.7 7.7 19.4 11.4v-15.7zm6.7-9.8h-6.2s-4.4-6.4-4.2-6.5c.2-.1 11.7-2.8 11.7-2.8l-1.3 9.3zm15.7 1.9l8.7 14.4-8.7 10.1-7.2-19.8z"/><path class="st10" d="M440.4 411.3l8 10-8.5 6.6-6.7-3.4.4-9.8z"/></g><g><path class="st0" d="M371.6 385.1L359.2 365l-27.7 1.4-13.4 33.5s25.1 23.4 25.7 23.4 31.5-16.4 31.5-16.4l-3.7-21.8z"/><path class="st13" d="M343.7 376.7l-12.2-10.3 27.7-1.5 8.1 13.2z"/><path class="st10" d="M346.7 405.6l11.2-17.6-14.2-11.3-8.9 11.3 1.3 9.8z"/><path class="st13" d="M346.7 405.6l-3 17.6 31.6-16.4-3.7-21.7-13.7 2.9z"/><path class="st0" d="M346.7 405.6l28.6 1.2-17.4-18.8z"/><path class="st13" d="M334.8 388l-10.8-2.9-5.9 14.7 18-2z"/></g><g><path class="st0" d="M369.5 426.9l-8.6 13.9-19.2-1-9.3-23.1s17.3-16.2 17.7-16.2 21.8 11.3 21.8 11.3l-2.4 15.1z"/><path class="st13" d="M350.2 432.7l-8.4 7.2 19.2 1 5.5-9.1z"/><path class="st10" d="M352.3 412.7l7.7 12.2-9.8 7.8-6.2-7.8 1-6.8z"/><path class="st13" d="M352.3 412.7l-2.1-12.1 21.8 11.3-2.5 15-9.5-2z"/><path class="st0" d="M352.3 412.7l19.7-.8-12 13z"/><path class="st13" d="M344 424.9l-7.4 2-4.1-10.2 12.5 1.4z"/></g><g><path class="st13" d="M385.8 429l-2.4 9.6 5.3 7.1 15-2.2 2.8-13.8-10.1-6.1z"/><path class="st0" d="M386.6 429l12.7-.1-2.9-5.3zm2.9 16.7l3-7.6 6.9.7 4.3 4.7z"/><path class="st0" d="M406.5 429.7l-7.2-.8-6.8 9.2 6.9.7z"/><path class="st10" d="M386.6 429l5.9 9.1 6.8-9.2z"/></g></g><g><path class="st14" d="M1106.1 226l-42-6.5-5.5 3.1-6.3-5.1-10.5 5.1v9.3l-8.8 4.9h-.2l.3 62.1 8.9 1.4v5.2l20.8 3.3v-5.3l12.2 1.9.2-30.8-.3-31.2z"/><path class="st15" d="M1075.2 235.2l15.7-8.3 9.4-5.3 6.3-3.5-.3-62.3-31.2 17.4.1 62z"/><path class="st16" d="M1073.9 187.3c-.4-.6-.1-1.5.5-1.8l31.2-17.4c.6-.4 1.5-.1 1.8.5.4.6.1 1.5-.5 1.8l-31.2 17.4c-.1.2-.4.2-.6.2-.5 0-.9-.2-1.2-.7zm31.7-5.7l-31.2 17.4c-.6.3-.9 1.2-.5 1.8.3.5.7.7 1.2.7.2 0 .5-.1.6-.2l31.2-17.4c.6-.3.9-1.2.5-1.8-.3-.6-1.2-.9-1.8-.5zm0 13.5l-31.2 17.4c-.6.3-.9 1.2-.5 1.8.3.5.7.7 1.2.7.2 0 .5-.1.6-.2l31.2-17.4c.6-.3.9-1.2.5-1.8-.3-.6-1.2-.9-1.8-.5z"/><path class="st14" d="M1075.1 173.2l.3 31.2-.2 30.8-41.9-6.5-.3-62.1h.2l31-17.3 42.1 6.5-31.2 17.4z"/><path fill="#9fceff" d="M1041.2 165.3l5.7.8 17.8 2.8 9.9 1.5 18-10 5.5-3.1-33.4-5.2z"/><path class="st15" d="M1074.6 170.4l-9.9-1.5-17.8-2.8-5.7-.8 23.5-13.2v4.1l.2-.1 27.7 4.3-18 10z"/><path class="st2" d="M1065.3 237.5v-82.9l-10.5-8.4-10.5 5.1.2 82.9 20.8 3.3z"/><path class="st14" d="M1063 238.6v-82.9l-10.5-8.4-10.5 5.1.2 82.9 20.8 3.3z"/><path class="st15" d="M1060.3 177.9v17.2l-15.5-2.4-.2-17.6 15.7 2.8zm-15.5 41.7l15.5 2.4v-17.1l-15.7-2.9.2 17.6z"/><path class="st10" d="M1064.1 248.5c0 .6-.6 1.1-1.3 1.1h-.2l-20.9-3.2c-.7-.1-1.2-.8-1.1-1.5s.8-1.2 1.5-1.1l20.9 3.2c.7.1 1.2.8 1.1 1.5zm-22.2-72.3l20.9 3.2h.2c.7 0 1.2-.5 1.3-1.1.1-.7-.4-1.4-1.1-1.5l-20.9-3.2c-.7-.1-1.4.4-1.5 1.1-.1.7.4 1.4 1.1 1.5zm21.3 18.1l-20.9-3.2c-.7-.1-1.4.4-1.5 1.1-.1.7.4 1.4 1.1 1.5l20.9 3.2h.2c.7 0 1.2-.5 1.3-1.1.1-.7-.4-1.4-1.1-1.5zm0 26.9l-20.9-3.2c-.7-.1-1.4.4-1.5 1.1-.1.7.4 1.4 1.1 1.5l20.9 3.2h.2c.7 0 1.2-.5 1.3-1.1.1-.7-.4-1.4-1.1-1.5zm0-17.5l-20.9-3.2c-.7-.1-1.4.4-1.5 1.1-.1.7.4 1.4 1.1 1.5l20.9 3.2h.2c.7 0 1.2-.5 1.3-1.1.1-.7-.4-1.4-1.1-1.5z"/><path class="st18" d="M943.5 438.5l12.1-6.4 7.3-4 4.9-2.7-.3-73.9-24 13.3v73.7z"/><path class="st19" d="M943.5 443.7l.1-54.8-.2-24-32.4-5 .3 78.8 32.2 5z"/><path class="st2" d="M935 346.5l32.4 5-24 13.4-32.3-5z"/><path class="st19" d="M917.3 358.8l4.5.7 13.6 2.1 7.6 1.1 13.8-7.7 4.3-2.3-25.7-4z"/><path class="st18" d="M917.3 358.8l4.5.7 13.6 2.1v-12.9z"/><path class="st2" d="M921.8 359.5l21.2 3.2 13.8-7.7-21.2-3.2z"/><path class="st2" d="M935.4 358.8c2.6 0 4.8 2.1 4.8 4.7l.4 74.6c0 2.6-2.1 4.8-4.7 4.8s-4.7-2.1-4.7-4.7l-.4-74.6c-.1-2.7 2-4.8 4.6-4.8z"/><path class="st20" d="M933.9 359.3c2.6 0 4.8 2.1 4.8 4.7l.4 74.6c0 2.6-2.1 4.8-4.7 4.8s-4.7-2.1-4.7-4.7l-.4-74.6c-.2-2.6 2-4.8 4.6-4.8z"/><path class="st2" d="M920.7 356.6c2.6 0 4.8 2.1 4.8 4.7l.4 74.6c0 2.6-2.1 4.8-4.7 4.8s-4.7-2.1-4.7-4.7l-.4-74.6c-.2-2.6 2-4.8 4.6-4.8z"/><path class="st20" d="M919.1 357.1c2.6 0 4.8 2.1 4.8 4.7l.4 74.6c0 2.6-2.1 4.8-4.7 4.8s-4.7-2.1-4.7-4.7l-.4-74.6c-.1-2.6 2-4.7 4.6-4.8z"/><path class="st1" d="M915.5 364.9v10.2l6.9 1V366z"/><path class="st3" d="M916.8 365.1l.1 8.9 5.5.9V366z"/><path class="st10" d="M922.4 376.9l-6.9-1c-.4-.1-.7-.5-.7-.9.1-.4.5-.7.9-.6l6.8 1c.4.1.7.5.7.9-.1.3-.4.6-.8.6z"/><path class="st2" d="M922.4 366.7l-7-1.1c-.4-.1-.7-.5-.7-.9s.5-.7.9-.6l6.9 1.1c.4.1.7.5.7.9-.1.4-.5.6-.8.6z"/><path class="st1" d="M915.5 380.4v10.2l6.9 1v-10.1z"/><path class="st3" d="M916.8 380.7l.1 8.8 5.5.9v-8.9z"/><path class="st10" d="M922.4 392.4l-6.9-1c-.4-.1-.7-.5-.7-.9.1-.4.5-.7.9-.6l6.8 1c.4.1.7.5.7.9-.1.3-.4.6-.8.6z"/><path class="st2" d="M922.4 382.3l-7-1.1c-.4-.1-.7-.5-.7-.9s.5-.7.9-.6l6.9 1.1c.4.1.7.5.7.9-.1.3-.5.6-.8.6z"/><g><path class="st1" d="M915.5 396v10.1l6.9 1.1v-10.1z"/><path class="st3" d="M916.8 396.2l.1 8.9 5.5.8v-8.8z"/><path class="st10" d="M922.4 408l-6.9-1c-.4-.1-.7-.5-.7-.9.1-.4.5-.7.9-.6l6.8 1c.4.1.7.5.7.9-.1.3-.4.6-.8.6z"/><path class="st2" d="M922.4 397.8l-7-1.1c-.4-.1-.7-.5-.7-.9.1-.4.5-.7.9-.6l6.9 1.1c.4.1.7.5.7.9-.1.4-.5.6-.8.6z"/></g><g><path class="st1" d="M930.5 367.4v10.2l6.9 1v-5l-.1-5.1z"/><path class="st3" d="M931.8 367.6v8.9l5.6.9v-8.9z"/><path class="st10" d="M937.4 379.4l-6.9-1c-.4-.1-.7-.5-.7-.9.1-.4.5-.7.9-.6l6.8 1c.4.1.7.5.7.9-.1.3-.5.6-.8.6z"/><path class="st2" d="M937.3 369.3l-7-1.1c-.4-.1-.7-.5-.7-.9s.5-.7.9-.6l6.9 1.1c.4.1.7.5.7.9 0 .3-.4.6-.8.6z"/><path class="st1" d="M930.5 383v10.1l6.9 1.1v-5.1l-.1-5.1z"/><path class="st3" d="M931.8 383.2v8.9l5.6.8V384z"/><path class="st10" d="M937.4 395l-6.9-1.1c-.4-.1-.7-.5-.7-.9s.5-.7.9-.6l6.8 1.1c.4.1.7.5.7.9-.1.3-.5.6-.8.6z"/><path class="st2" d="M937.3 384.8l-7-1.1c-.4-.1-.7-.5-.7-.9s.5-.7.9-.6l6.9 1.1c.4.1.7.5.7.9 0 .3-.4.6-.8.6z"/><g><path class="st1" d="M930.5 398.5v10.2l6.9 1v-5l-.1-5.1z"/><path class="st3" d="M931.8 398.7v8.9l5.6.9v-8.9z"/><path class="st10" d="M937.4 410.5l-6.9-1c-.4-.1-.7-.5-.7-.9.1-.4.5-.7.9-.6l6.8 1c.4.1.7.5.7.9-.1.3-.5.6-.8.6z"/><path class="st2" d="M937.3 400.4l-7-1.1c-.4-.1-.7-.5-.7-.9s.5-.7.9-.6l6.9 1.1c.4.1.7.5.7.9 0 .3-.4.6-.8.6z"/></g></g><g><path class="st3" d="M1273.6 270.1l24.9-13.2 15-8.3 10.1-5.6-.5-123.2-49.6 27.6.1 122.7z"/><path class="st21" d="M1315 146l.2 21-30.7 16.6-.1-21.3L1315 146z"/><path class="st22" d="M1273.9 163.1l24.6-13.2 15-8.4 9.6-5.4v-14.4l-49.6 27.5z"/><path class="st23" d="M1273.6 270.1l.3-108.9-.4-13.8-64.9-10.9-.5-.1-19.6-3.3.5 122.8 84.6 14.2z"/><path class="st24" d="M1273.5 149.3l.5 13.8h-.4L1189 149l-.5-13.9 19.6 3.3.5.1z"/><path class="st23" d="M1175.6 130.8l101.4 16.8-27.3-88-74.1 71.2z"/><path class="st25" d="M1277 147.6l59.3-33.1-86.6-54.9 27.3 88z"/><path class="st10" d="M1336.1 114.5v8.5l-11.4 6.4-22.3 12.4-25.7 13.5v-.1l-101.1-17-.5-7.8 23.5 4 .5.1 74.2 12.4-25.9-86.5c-.4-1.3.3-2.7 1.6-3 1.3-.4 2.7.3 3 1.6l26.2 87.8 57.9-32.3z"/><path class="st26" d="M1220.7 125.8c-13.7-3.4-18.6 5.4-35.7-3.4 6.4-10.3 24.3-24.4 30.9-36.3 4.9-8.8 24.5-24 33.3-36.3 21.6 15.7 79.9 52.7 78.4 59.7-2 8.8-11.8 5.1-18.6 7.6-6.8 2.5-6 10.3-11.8 13.2-5.9 2.9-9.6 2.9-14.4 2.9-1.5 0-3.1-.4-4.6-1-4.9-2-10.2-2.4-15.3-.8-4.2 1.4-9.1 2.5-13.8 2.5-9.9.3-14.7-4.6-28.4-8.1z"/><path class="st27" d="M1220.7 121.5c-13.7-3.4-16.4 6.4-33.5-2.5 6.4-10.3 22.1-25.4 28.7-37.2 4.2-7.7 19.6-20.1 29.3-31.3 2.3-2.7 6.3-3.3 9.2-1.3 24.4 17.3 73.9 50.7 72.5 57.3-2 8.8-11 3.9-17.9 6.4-6.8 2.5-6 10.3-11.8 13.2-5.9 2.9-9.6 2.9-14.4 2.9-1.5 0-3.1-.4-4.6-1-4.9-2-10.2-2.4-15.3-.8-4.2 1.4-9.1 2.5-13.8 2.5-9.9.1-14.7-4.8-28.4-8.2z"/><path class="st3" d="M1272.8 108.9l19.9-10.5 12-6.6 4.7-2.8 2-51.7-38.7 21.6.1 50z"/><path class="st21" d="M1305.8 57.7l.1 16.8-24.6 13.3-.1-17 24.6-13.1z"/><path class="st13" d="M1305.8 57.7l.2 16.8-1.2.6-.4-17 1.4-.4z"/><path class="st25" d="M1304.8 73.7l-23.4 12v2.1l24.6-13.3-.6-.4-.6-.4z"/><path class="st10" d="M1273.1 113.6c-1.1 0-2-.9-2-2V58.3c0-1.1.9-2 2-2s2 .9 2 2v53.3c0 1.1-.9 2-2 2z"/><path class="st23" d="M1280.2 91.5l4.6-1.7s-.5 2.2-2.3 2.6c-1.8.4-2.3-.9-2.3-.9zm8.2 3.6c1.8-.4 2.3-2.6 2.3-2.6l-4.6 1.7s.5 1.3 2.3.9zm15.3-14.2s.5 1.3 2.3.9 2.3-2.6 2.3-2.6l-4.6 1.7z"/><path class="st22" d="M1272.9 71.4l19.7-10.6 12-6.6 6.2-3.7.2-11.8-38.4 21.7z"/><path class="st23" d="M1272.8 108.9l.2-39.1-.3-11-51.9-8.7-.3-.1-15.7-2.6.5 50.2 67.5 11.3z"/><path class="st25" d="M1267.7 73.4l.1 3.1V86l-.6 1.4-18.5-3.1V70.9h4.5l14.5 2.5z"/><path class="st13" d="M1248.6 70.6v13.7l17.6-11.5-16.2-2.7-1.4.5z"/><path class="st21" d="M1267.8 73.3l.1 2.6h-.1l-.1 10.1-17.7-2.7V70.1l4.2.8h.1l13.5 2.4z"/><path d="M1268.3 80.5c.1.2-.1.4-.4.4l-9.1-1.2v5.5c0 .3-.3.5-.5.5-.3 0-.5-.2-.5-.5v-5.7l-8.3-1.1c-.3 0-.5-.3-.4-.5 0-.3.3-.5.5-.4l8.2 1.1.1-11.9c0-.3.2-.5.5-.5s.5.2.5.5l-.1 12.1 9.1 1.2c.3 0 .5.3.4.5z" fill="#219750"/><path class="st13" d="M1257.4 93.2c-2.3-.5-2.6-2.3-2.6-2.3l6.2 1.3s-.5 1.5-3.6 1zm2.9 4s.3 1.8 2.6 2.3c3.1.5 3.6-1 3.6-1l-6.2-1.3zm-11.1-1.3c3.1.6 3.6-1.2 3.6-1.2l-6.2-1.4s.3 2.2 2.6 2.6z"/><path class="st24" d="M1272.6 60.3l.5 11.1h-.3L1205.2 60l-.5-11 15.7 2.6.4.1z"/><path class="st23" d="M1194.5 45.6l81 13.4-21.8-70.3-59.2 56.9z"/><path class="st25" d="M1275.4 59l47.4-26.5-69.1-43.8 21.7 70.3z"/><path class="st10" d="M1322.7 32.5v6.8l-9.1 5.1-17.8 9.9-20.5 10.8-80.8-13.6-.6-6.2 18.8 3.1.5.1 59.2 9.9-20.7-69.2c-.3-1 .3-2.1 1.3-2.4s2.1.3 2.4 1.3l21 70.3 46.3-25.9z"/><path class="st26" d="M1313.6 28.9c-1.9 2.6-6.1 1.4-8.7 3.3s-2.5 5.9-4.7 8.3c-1.7 1.8-4.3 2.3-6.8 2.4-2.5 0-5-.3-7.4.4-6 1.6-9.3 8.8-15.4 9.8-6 1-11.2-4.6-17.3-5.1-2.7-.2-5.4.5-8 .4-7.6-.4-13.6-8-21.2-8-3.6 0-6.9 1.7-10.4 2.5s-7.7.5-9.8-2.4c-1.4-2-1.3-4.7-.4-6.9.1-.2.2-.5.3-.7 1.2-2.4 3.2-4.2 5.1-6.1 7-6.6 14-13.1 21-19.7 6.2-5.8 12.4-11.6 18.6-17.5 2.1-2 4-4.6 7.2-4 3.7.7 7.3 4.2 10.4 6.2 14.4 9.5 28.8 18.9 43.2 28.4 1.5 1 3.1 2 4.1 3.6.9 1.5 1.2 3.6.2 5.1z"/><path class="st27" d="M1313.3 23.8c-2 1.9-5.9 1.1-8.3 2.8-2.6 1.9-2.5 5.9-4.7 8.3-1.7 1.8-4.3 2.3-6.8 2.4-2.5 0-5-.3-7.4.4-6 1.6-9.3 8.8-15.4 9.8-6 1-11.2-4.6-17.3-5.1-2.7-.2-5.4.5-8 .4-7.6-.4-13.6-8-21.2-8-3.6 0-6.9 1.7-10.4 2.5s-7.7.5-9.8-2.4c-.3-.4-.5-.8-.7-1.3.1-.2.2-.5.3-.7 1.2-2.4 3.2-4.2 5.1-6.1 7-6.6 14-13.1 21-19.7 6.2-5.8 12.4-11.6 18.6-17.5 2.1-2 4-4.6 7.2-4 3.7.7 7.3 4.2 10.4 6.2 14.4 9.5 28.8 18.9 43.2 28.4 1.6 1 3.2 2 4.2 3.6z"/><path class="st25" d="M1227.7 162.1v52l-16-2.7-16-2.7v-51.9l16 2.6 16 2.7zm-32 64.7v51.9l16 2.7 16 2.7v-52l-16-2.7-16-2.6z"/><path class="st29" d="M1227.7 162.1v47.7l-26.1-4.3v-47.8l26.1 4.4zm-26.1 113.4l26.1 4.3v-47.7l-26.1-4.4v47.8z"/><path class="st2" d="M1192.9 208.2c.2-1.5 1.7-2.5 3.2-2.3l32 5.4c1.5.3 2.5 1.7 2.3 3.2-.2 1.4-1.4 2.3-2.7 2.3h-.5l-32-5.4c-1.5-.3-2.5-1.7-2.3-3.2zm35.2 73.1l-32-5.4c-1.5-.2-3 .8-3.2 2.3s.8 2.9 2.3 3.2l32 5.4h.5c1.3 0 2.5-.9 2.7-2.3.2-1.5-.8-2.9-2.3-3.2z"/><path class="st23" d="M1228.7 256.3c-.1.5-.5.8-1 .8h-.2l-16.2-2.7v26.1c0 .5-.4 1-1 1s-1-.4-1-1V254l-13.8-2.3c-.5-.1-.9-.6-.8-1.2s.6-.9 1.2-.8l13.4 2.3v-22.5c0-.6.4-1 1-1s1 .4 1 1v22.8l16.6 2.8c.5.1.9.6.8 1.2zm-33.2-74.6l13.8 2.3v26.5c0 .6.4 1 1 1s1-.5 1-1v-26.1l16.2 2.7h.2c.5 0 .9-.3 1-.8.1-.6-.3-1.1-.8-1.2l-16.6-2.8v-22.8c0-.6-.4-1-1-1s-1 .4-1 1V182l-13.4-2.3c-.6-.1-1.1.3-1.2.8-.1.6.3 1.1.8 1.2z"/><g><path class="st25" d="M1266.7 168.1v52l-16-2.7-16-2.7v-51.9l16 2.6z"/><path class="st29" d="M1240.6 163.7v47.8l26.1 4.3v-47.7z"/><path class="st2" d="M1266.7 222.8h-.5l-32-5.4c-1.5-.3-2.5-1.7-2.3-3.2s1.7-2.5 3.2-2.3l32 5.4c1.5.3 2.5 1.7 2.3 3.2-.2 1.4-1.4 2.3-2.7 2.3z"/><path class="st23" d="M1234.5 187.7l13.8 2.3v26.5c0 .6.4 1 1 1s1-.5 1-1v-26.1l16.2 2.7h.2c.5 0 .9-.3 1-.8.1-.6-.3-1.1-.8-1.2l-16.6-2.8v-22.8c0-.6-.4-1-1-1s-1 .4-1 1V188l-13.4-2.3c-.6-.1-1.1.3-1.2.8-.1.6.3 1.1.8 1.2z"/></g></g><g><path class="st18" d="M1143.1 175.9c-2.6 2.2-6.4 2.2-9 0v-28.6h9v28.6z"/><ellipse class="st30" cx="1138.6" cy="147.4" rx="4.5" ry="1.2"/><ellipse class="st31" cx="1138.6" cy="147.4" rx="3.4" ry=".7"/><path class="st18" d="M1131 174.5c-2.6 2.2-6.4 2.2-9 0v-38.6h9v38.6z"/><ellipse class="st30" cx="1126.5" cy="136" rx="4.5" ry="1.2"/><ellipse class="st31" cx="1126.5" cy="136" rx="3.4" ry=".7"/><path class="st18" d="M1092.4 203l18.6-49.8 79.9 14.2 20.3 29.9v136.1l-40.5 22.2v-.1l-.2.1-78.3-16.5.2-136.1v119.9"/><path class="st19" d="M1170.5 355.6l-78.3-16.5.2-136.1 78.3 16.5z"/><path class="st3" d="M1161.4 227.2v21.3l-23.9-5v-21.3l23.9 5zm-61.1 8.5l23.9 5.1v-21.3l-23.9-5.1v21.3z"/><path class="st2" d="M1193 167.2c-4.7-2.5-10.1-3.5-15.4-4.5-15.8-2.9-31.5-5.8-47.3-8.7-5-.9-10.4-1.8-14.9.4-4.3 2.1-6.9 6.5-9.3 10.6l-13.5 23.4c-2.3 4.1-4.7 9.1-2.6 13.3 1.2 2.4 3.6 3.9 6.2 4.7s5.2.9 7.9 1.2c7.6.8 15 2.7 22.3 4.6l33 8.7c5 1.3 10.4 2.6 15 .3 5.1-2.4 7.4-8.2 9.4-13.5 2.8-7.7 5.6-15.3 8.4-23 .8-2.3 2.2-4.9 4.6-5 2.1-.1 3.6 1.9 4.8 3.7 2.5 3.9 4.9 7.8 7.4 11.7.8 1.3 2.4 3.3 4.2 2.9 1.9-.5 2-2.9 1.2-4.4-.6-1.3-1.9-2.2-2.7-3.4-1.1-1.7-1.9-3.7-2.9-5.5-3.9-6.9-8.7-13.7-15.8-17.5z"/><path class="st25" d="M1194.1 223.5l7.1-1.1v23l-7.1 1.2-7.1 1.2v-23.1l7.1-1.2zm-7.1 32.3v23.1l7.1-1.2 7.1-1.2v-23.1l-7.1 1.2-7.1 1.2zm11.9-52.2l-4.8.9-7.1 1.1v7.1l14.2-2.3v-7.1l-2.3.3z"/><path class="st29" d="M1187 224.7l11.6-1.9V244l-11.6 1.9v-21.2zm0 52.3l11.6-1.9v-21.2l-11.6 1.9V277zm7.1-72.5l-7.1 1.1v5.2l11.9-2v-5.2l-4.8.9z"/><path class="st2" d="M1185.8 248c-.1-.7.3-1.3 1-1.4l14.2-2.4c.7-.1 1.3.3 1.4 1s-.3 1.3-1 1.4l-14.2 2.4h-.2c-.6 0-1.1-.4-1.2-1zm15.2 27.3l-14.2 2.4c-.7.1-1.1.7-1 1.4.1.6.6 1 1.2 1h.2l14.2-2.4c.7-.1 1.1-.7 1-1.4s-.7-1.1-1.4-1z"/><path class="st23" d="M1201.7 264c0 .2-.1.5-.4.5l-6.2 1v11.8c0 .2-.2.4-.4.4s-.4-.2-.4-.4v-11.6l-7.3 1.2c-.2 0-.4-.2-.4-.4s.1-.5.4-.5l7.3-1.2v-10.1c0-.2.2-.4.4-.4s.4.2.4.4v9.9l6.1-1c.2 0 .5.1.5.4zm-14.7-28.2l7.3-1.2v11.7c0 .2.2.4.4.4s.4-.2.4-.4v-11.9l6.2-1c.3 0 .4-.3.4-.5 0-.3-.3-.4-.5-.4l-6.1 1v-9.8c0-.2-.2-.4-.4-.4s-.4.2-.4.4v10l-7.3 1.2c-.3 0-.4.3-.4.5s.2.4.4.4zm7.1-23.8c.2 0 .4-.2.4-.4v-7.1c0-.2-.2-.4-.4-.4s-.4.2-.4.4v7.1c0 .2.2.4.4.4z"/></g><g><path class="st32" d="M1158.6 267.5c-.1 1.5-.2 3-.5 4.4-.1.8-.3 1.6-.5 2.4-1 3.8-2.9 7.4-6 9.8-3.7 2.8-9.6 3.2-12.9 0-4.1 5.9-9.8 5.9-13.2 0-3.4 3.3-9.2 2.9-12.9 0-3.1-2.4-5-6-6-9.8-.2-.8-.4-1.6-.5-2.4-.3-1.5-.4-2.9-.5-4.4-.2-4.5.5-9 2-13.2.3-1 .7-1.9 1.1-2.9 1-2.2 2.2-4.3 3.7-6.3.8-1.1 1.8-2.2 2.8-3.3.7-.7 1.4-1.4 2.1-2 4.2-3.7 9.4-6.6 14.8-7.8 5.4 1.2 10.6 4.1 14.8 7.8.7.6 1.4 1.3 2.1 2 1 1.1 2 2.1 2.8 3.3 1.4 1.9 2.6 3.9 3.6 6 .4.9.8 1.8 1.1 2.7 1.6 4.4 2.3 9.1 2.1 13.7z"/><path class="st33" d="M1158.7 263.6c-.1 1.5-.2 3-.5 4.4-.1.8-.3 1.6-.5 2.4-1 3.8-2.9 7.4-6 9.8-3.7 2.8-9.6 3.2-12.9 0-4.1 5.9-9.8 5.9-13.2 0-3.4 3.3-9.2 2.9-12.9 0-3.1-2.4-5-6-6-9.8-.2-.8-.4-1.6-.5-2.4-.3-1.5-.4-2.9-.5-4.4-.2-4.5.5-9 2-13.2.3-1 .7-1.9 1.1-2.9 1-2.2 2.2-4.3 3.7-6.3.8-1.1 1.8-2.2 2.8-3.3.7-.7 1.4-1.4 2.1-2 4.2-3.7 9.4-6.6 14.8-7.8 5.4 1.2 10.6 4.1 14.8 7.8.7.6 1.4 1.3 2.1 2 1 1.1 2 2.1 2.8 3.3 1.4 1.9 2.6 3.9 3.6 6 .4.9.8 1.8 1.1 2.7 1.5 4.4 2.3 9 2.1 13.7z"/><path class="st32" d="M1107.7 250.4c.3-1 .7-1.9 1.1-2.9.4 1.2 1.1 2.2 1.9 2.9 1.8 1.4 4.3 1.3 6-.3.3 2.6 2.1 4.9 4.3 5.4 2.2.5 4.5-.9 5.6-3.2 2.9 7.3 9.3 5.4 10.8 0 1.1 2.3 3.4 3.7 5.6 3.2s4-2.8 4.3-5.4c1.7 1.6 4.2 1.7 6 .3 1-.8 1.7-1.9 2-3.2.5.9.9 1.8 1.2 2.7-.2 2.1-1.2 4.1-2.7 5-1.6 1-3.7.6-4.8-1-.6 2.7-2.6 4.9-4.9 5.5s-4.8-.4-6.3-2.6c-1.1 2.4-3.4 4-5.7 4-2.3.1-4.6-1.5-5.7-4-1.5 2.1-4 3.2-6.3 2.6s-4.2-2.8-4.9-5.5c-1.1 1.6-3.2 2-4.8 1-1.4-.9-2.4-2.6-2.7-4.5zm49.7 14.6c-2.1 1.7-5.1 1.5-7.1-.3-.4 3.1-2.5 5.8-5.1 6.4s-5.4-1-6.6-3.7c-1.8 6.4-9.3 8.6-12.8 0-1.3 2.7-4.1 4.3-6.6 3.7-2.6-.6-4.7-3.3-5.1-6.4-2 1.9-5 2-7.1.3-.5-.4-.9-.9-1.3-1.4.1 1.5.2 3 .5 4.4.1.8.3 1.6.5 2.4 1.8 1 4.2.6 5.5-1.3.8 3.2 3.1 5.8 5.8 6.5 2.7.7 5.7-.5 7.5-3 1.3 2.9 4 4.7 6.8 4.7 2.7.1 5.5-1.8 6.8-4.7 1.8 2.5 4.8 3.7 7.5 3s5-3.3 5.8-6.5c1.3 1.9 3.6 2.3 5.5 1.3l.8-6.8c-.4.5-.8 1-1.3 1.4zm-37.1-21.9c2.3.6 4.8-.5 6.3-2.6 1.1 2.5 3.4 4.1 5.7 4 2.3 0 4.6-1.6 5.7-4 1.5 2.2 4 3.2 6.3 2.6 2.2-.6 4.1-2.6 4.8-5.2-.7-.6-1.4-1.3-2.1-2-.7 1.7-2.1 3-3.7 3.4-2.2.5-4.5-.9-5.6-3.2-1.5 5.4-7.9 7.3-10.8 0-1.1 2.3-3.4 3.7-5.6 3.2-1.6-.4-3-1.7-3.7-3.4-.7.6-1.4 1.3-2.1 2 .7 2.6 2.6 4.6 4.8 5.2z"/><path class="st34" d="M1146.1 267.7c-1.9-.9-4-5.1 0-6.9 4 1.7 2 5.9 0 6.9zm-.5-21.3c-3.9-2-5.9 2.2-5.4 4.3 2 .9 6.6-.1 5.4-4.3zm-15.8 16.9c-.9 2 .3 6.5 4.5 5.3 1.9-3.9-2.4-5.8-4.5-5.3z"/><path class="st32" d="M1157.2 263.3c-4.2 1.3-5.3-3.3-4.5-5.3 2.1-.5 6.4 1.4 4.5 5.3zm-16.7 12.9c-.8 2 .3 6.5 4.5 5.3 1.9-3.9-2.4-5.8-4.5-5.3zm-10.1-39.7c4.3.6 4.8-4 3.7-5.8-2.2-.3-6.2 2.2-3.7 5.8z"/></g><g><path fill="#a1887f" d="M1070.6 203.3v2.8l-5.3 33.3-7.6-1.2v-32.9l5.3-.3 2.3-1.7z"/><path fill="#a14444" d="M1070.6 203.3v32.8l-5.3 3.3v-36.1z"/><path class="st37" d="M1070.6 203.3l-5.3 3.2-7.6-1.2 5.3-3.2z"/><path class="st37" d="M1072.2 201.2l-1.6 2.1-5.3 3.2-7.6-1.2-1.6-1.6 6.6-4z"/><path fill="#eff1f3" d="M1072.2 201.2l-6.6 4-9.5-1.5 6.6-4z"/><path fill="#434343" d="M1060.4 202.9l2.6-1.6 4.9.8-2.6 1.5z"/><path class="st1" d="M1040.2 265.8l18.1-37.1 57.2 10 13.3 22.2v104.7l-30.1 16.5v-.1l-.2.1-58.2-12.3.1-104.7v32.6"/><path class="st27" d="M1098.7 277.4l-.2 104.7-25.7-5.4h-.1l-9.4-2-1.7-.4-1.2-.2-20.2-4.3.2-104.7z"/><path class="st0" d="M1042.9 367.7l.1-99.3 53.1 11.1-.2 99.4z"/><path class="st26" d="M1130.6 261.9c-1.3.3-2.6-1.2-3.2-2.2-1.9-2.9-3.7-5.9-5.6-8.8-.9-1.3-2-2.9-3.6-2.8-1.8.1-2.8 2.1-3.4 3.8-2.1 5.8-4.2 11.5-6.3 17.3-1.5 4-3.2 8.3-7.1 10.2-3.5 1.7-7.6.7-11.3-.3-8.3-2.2-16.6-4.4-24.9-6.5-5.5-1.5-11.1-2.9-16.8-3.5-2-.2-4-.3-5.9-.9s-3.8-1.7-4.7-3.5c-1.1-2.2-.6-4.7.5-7.1.4-1 1-2 1.5-2.9L1050 237c1.8-3.1 3.8-6.4 7-8 3.4-1.7 7.5-1 11.2-.3l35.7 6.6c4 .7 8 1.5 11.6 3.4 5.4 2.9 9 7.9 11.9 13.2.8 1.4 1.3 2.9 2.2 4.2l.1.1c.6.9 1.5 1.5 2 2.5.4 1 .4 2.8-1.1 3.2z"/><path class="st27" d="M1129.6 256.1c-.4-.4-.8-.9-1.1-1.3-1.9-2.9-3.7-5.9-5.6-8.8-.9-1.3-2-2.9-3.6-2.8-1.8.1-2.8 2.1-3.4 3.8-2.1 5.8-4.2 11.5-6.3 17.3-1.5 4-3.2 8.3-7.1 10.2-3.5 1.7-7.6.7-11.3-.3-8.3-2.2-16.6-4.4-24.9-6.5-5.5-1.5-11.1-2.9-16.8-3.5-2-.2-4-.3-5.9-.9s-3.8-1.7-4.7-3.5c-.4-.7-.5-1.4-.6-2.2.4-1 1-2 1.5-2.9L1050 237c1.8-3.1 3.8-6.4 7-8 3.4-1.7 7.5-1 11.2-.3l35.7 6.6c4 .7 8 1.5 11.6 3.4 5.4 2.9 9 7.9 11.9 13.2.8 1.4 1.3 2.9 2.2 4.2 0-.1 0 0 0 0z"/><path class="st25" d="M1084.2 283.2v16l-32-5.3v-16l5.1.8 10.9 1.9 16 2.6zm-26.9 18.5l-5.1-.8v16l32 5.3v-16l-16-2.6-10.9-1.9zm0 23l-5.1-.8v16l32 5.3v-16l-16-2.6-10.9-1.9z"/><path class="st29" d="M1084.2 283.2v11.6l-26.9-4.5v-11.6l10.9 1.9 16 2.6zm-26.9 18.5v11.6l26.9 4.5v-11.6l-16-2.6-10.9-1.9zm0 23v11.6l26.9 4.5v-11.6l-16-2.6-10.9-1.9z"/><path class="st23" d="M1069.2 280.5v16c0 .6-.4 1-1 1s-1-.4-1-1v-16c0-.6.4-1 1-1s1 .4 1 1zm-1 22c-.6 0-1 .4-1 1v16c0 .6.4 1 1 1s1-.4 1-1v-16c0-.6-.4-1-1-1zm0 23c-.6 0-1 .4-1 1v16c0 .6.4 1 1 1s1-.4 1-1v-16c0-.6-.4-1-1-1z"/></g><g><path class="st27" d="M987 352.7l-.3 49.5-17-3.7-6.2-1.4-1.1-.2-.8-.2-13.3-2.9.3-49.4z"/><path class="st23" d="M950 392.4l.3-45.9 34.9 7.6-.2 46z"/><path class="st3" d="M951.9 349.8l5.5 1.2-.1 8.4-5.5-1.2.1-8.4zm12.9 11.2l5.5 1.2.1-8.4-5.6-1.2v8.4zm18.5-4.4l-5.5-1.3-.1 8.5 5.5 1.2.1-8.4zm-31.5 15.6l5.5 1.2.1-8.4-5.5-1.2-.1 8.4zm13 2.8l5.5 1.2.1-8.4-5.6-1.2v8.4zm12.9 2.8l5.5 1.2.1-8.4-5.5-1.3-.1 8.5zm-25.9 9.4l5.5 1.2.1-8.4-5.5-1.2-.1 8.4zm13 2.8l5.5 1.2.1-8.4-5.6-1.2v8.4zm12.9 2.8l5.5 1.2.1-8.4-5.5-1.3-.1 8.5z"/><path class="st16" d="M1008.1 343.4c-.9.2-1.7-.8-2.1-1.5-1.2-1.9-2.4-3.9-3.6-5.8-.6-.9-1.3-1.9-2.4-1.9-1.2 0-1.9 1.3-2.3 2.5-1.4 3.8-2.8 7.6-4.3 11.4-1 2.6-2.2 5.5-4.7 6.7-2.3 1.1-5 .4-7.5-.2-5.5-1.5-10.9-3-16.4-4.4-3.6-1-7.3-2-11.1-2.4-1.3-.1-2.7-.2-3.9-.6-1.3-.4-2.5-1.2-3.1-2.4-.7-1.5-.4-3.1.3-4.7.3-.7.7-1.3 1-1.9 2.3-3.9 4.5-7.7 6.8-11.6 1.2-2.1 2.5-4.2 4.7-5.2 2.3-1.1 4.9-.6 7.4-.2 7.8 1.5 15.7 3 23.5 4.5 2.6.5 5.3 1 7.6 2.3 3.5 1.9 5.9 5.3 7.8 8.7.5.9.9 1.9 1.4 2.8 0 0 0 .1.1.1.4.6 1 1 1.3 1.6.5.7.5 1.9-.5 2.2z"/><path class="st27" d="M1007.5 339.5c-.3-.3-.5-.6-.7-.9-1.2-1.9-2.4-3.9-3.6-5.8-.6-.9-1.3-1.9-2.4-1.9-1.2 0-1.9 1.3-2.3 2.5-1.4 3.8-2.8 7.6-4.3 11.4-1 2.6-2.2 5.5-4.7 6.7-2.3 1.1-5 .4-7.5-.2-5.5-1.5-10.9-3-16.4-4.4-3.7-1-7.3-2-11.1-2.4-1.3-.1-2.7-.2-3.9-.6-1.3-.4-2.5-1.2-3.1-2.4-.2-.5-.3-.9-.4-1.4.3-.7.7-1.3 1-1.9 2.3-3.9 4.5-7.7 6.8-11.6 1.2-2.1 2.5-4.2 4.7-5.2 2.3-1.1 4.9-.6 7.4-.2 7.8 1.5 15.7 3 23.5 4.5 2.6.5 5.3 1 7.6 2.3 3.5 1.9 5.9 5.3 7.8 8.7.6.9 1 1.9 1.6 2.8z"/><path class="st3" d="M966.4 317.6l6.2-10.4 16.6 3.1 4.3 6.2v3.7l-.1 6.3v3.7l-9.3 5v-.1.1l-17.8-3.9.1-13.7v10"/><path class="st27" d="M984.2 321.5l-.1 13.7-7.9-1.8-2.9-.6-.5-.1-.4-.1-6.1-1.3.1-13.7z"/><path class="st23" d="M967.1 330.6l.1-12 16.2 3.5-.1 12.1z"/><path class="st16" d="M994 317.1c-.4.1-.8-.4-1-.7-.6-.9-1.1-1.8-1.7-2.7-.3-.4-.6-.9-1.1-.9-.6 0-.9.6-1.1 1.1-.7 1.8-1.3 3.5-2 5.3-.5 1.2-1 2.5-2.2 3.1-1.1.5-2.3.2-3.5-.1-2.5-.7-5.1-1.4-7.6-2.1-1.7-.5-3.4-.9-5.1-1.1-.6-.1-1.2-.1-1.8-.3-.6-.2-1.1-.5-1.4-1.1-.3-.7-.2-1.5.2-2.2.1-.3.3-.6.5-.9 1.1-1.8 2.1-3.6 3.2-5.4.6-1 1.2-2 2.2-2.4 1.1-.5 2.3-.3 3.4-.1 3.6.7 7.3 1.4 10.9 2.1 1.2.2 2.5.5 3.5 1.1 1.6.9 2.7 2.5 3.6 4.1.2.4.4.9.7 1.3.2.3.5.5.6.8.2.5.2 1-.3 1.1z"/><path class="st27" d="M993.7 315.4c-.1-.1-.2-.3-.3-.4-.6-.9-1.1-1.8-1.7-2.7-.3-.4-.6-.9-1.1-.9-.6 0-.9.6-1.1 1.1-.7 1.8-1.3 3.5-2 5.3-.5 1.2-1 2.5-2.2 3.1-1.1.5-2.3.2-3.5-.1-2.5-.7-5.1-1.4-7.6-2.1-1.7-.5-3.4-.9-5.1-1.1-.6-.1-1.2-.1-1.8-.3-.6-.2-1.1-.5-1.4-1.1-.1-.2-.2-.4-.2-.7.1-.3.3-.6.5-.9 1.1-1.8 2.1-3.6 3.2-5.4.6-1 1.2-2 2.2-2.4 1.1-.5 2.3-.3 3.4-.1 3.6.7 7.3 1.4 10.9 2.1 1.2.2 2.5.5 3.5 1.1 1.6.9 2.7 2.5 3.6 4.1.3.5.5.9.7 1.4 0-.1 0-.1 0 0z"/></g><g><path class="st40" d="M1007.5 294.3c-2.6 2.2-6.4 2.2-9 0v-38.6h9v38.6z"/><ellipse class="st30" cx="1003" cy="255.9" rx="4.5" ry="1.2"/><path class="st31" d="M1003 255.2c1.9 0 3.4.3 3.4.7s-1.5.7-3.4.7-3.4-.3-3.4-.7 1.5-.7 3.4-.7z"/><path class="st41" d="M980.4 310.1l18.7-36.5 56.8 11 12.9 21.3v104.7l-30.1 16.5v-.1l-.2.1-58.2-12.3.1-104.7v32.6"/><path class="st27" d="M1038.7 322.4l-.2 104.7-25.7-5.4h-.1l-9.4-2-1.7-.4-1.2-.2-20.2-4.3.2-104.7z"/><path class="st42" d="M982.9 412.7l.1-99.3 53.1 11.1-.2 99.4z"/><path class="st26" d="M1070.6 306.9c-1.3.3-2.6-1.2-3.2-2.2-1.9-2.9-3.7-5.9-5.6-8.8-.9-1.3-2-2.9-3.6-2.8-1.8.1-2.8 2.1-3.4 3.8-2.1 5.8-4.2 11.5-6.3 17.3-1.5 4-3.2 8.3-7.1 10.2-3.5 1.7-7.6.7-11.3-.3-8.3-2.2-16.6-4.4-24.9-6.5-5.5-1.5-11.1-2.9-16.8-3.5-2-.2-4-.3-5.9-.9s-3.8-1.7-4.7-3.5c-1.1-2.2-.6-4.7.5-7.1.4-1 1-2 1.5-2.9L990 282c1.8-3.1 3.8-6.4 7-8 3.4-1.7 7.5-1 11.2-.3l35.7 6.6c4 .7 8 1.5 11.6 3.4 5.4 2.9 9 7.9 11.9 13.2.8 1.4 1.3 2.9 2.2 4.2l.1.1c.6.9 1.5 1.5 2 2.5.4 1 .4 2.8-1.1 3.2z"/><path class="st27" d="M1069.6 301.1c-.4-.4-.8-.9-1.1-1.3-1.9-2.9-3.7-5.9-5.6-8.8-.9-1.3-2-2.9-3.6-2.8-1.8.1-2.8 2.1-3.4 3.8-2.1 5.8-4.2 11.5-6.3 17.3-1.5 4-3.2 8.3-7.1 10.2-3.5 1.7-7.6.7-11.3-.3-8.3-2.2-16.6-4.4-24.9-6.5-5.5-1.5-11.1-2.9-16.8-3.5-2-.2-4-.3-5.9-.9s-3.8-1.7-4.7-3.5c-.4-.7-.5-1.4-.6-2.2.4-1 1-2 1.5-2.9L990 282c1.8-3.1 3.8-6.4 7-8 3.4-1.7 7.5-1 11.2-.3l35.7 6.6c4 .7 8 1.5 11.6 3.4 5.4 2.9 9 7.9 11.9 13.2.8 1.4 1.3 2.9 2.2 4.2 0-.1 0 0 0 0z"/><path class="st25" d="M1003.2 323.7v23.1l-7.1-1.2-7.1-1.2v-23l7.1 1.1 7.1 1.2zM989 352.4v23.1l7.1 1.2 7.1 1.2v-23.1l-7.1-1.2-7.1-1.2z"/><path class="st29" d="M1003.2 323.7v21.2l-11.6-1.9v-21.2l11.6 1.9zm-11.6 50.4l11.6 1.9v-21.2l-11.6-1.9v21.2z"/><path class="st23" d="M1003.6 365.5c0 .3-.2.4-.4.4l-7.3-1.2v11.6c0 .2-.2.4-.4.4s-.4-.2-.4-.4v-11.8l-6.2-1c-.2 0-.4-.3-.4-.5s.3-.4.5-.4l6.1 1v-9.9c0-.2.2-.4.4-.4s.4.2.4.4v10.1l7.3 1.2c.2 0 .4.3.4.5zm-14.7-33.1l6.2 1v11.9c0 .2.2.4.4.4s.4-.2.4-.4v-11.7l7.3 1.2c.2 0 .4-.1.4-.4 0-.2-.2-.5-.4-.5l-7.3-1.2v-10c0-.2-.2-.4-.4-.4s-.4.2-.4.4v9.8l-6.1-1c-.2 0-.5.2-.5.4s.2.5.4.5z"/><path class="st2" d="M987.8 344.2c.1-.7.7-1.1 1.4-1l14.2 2.4c.7.1 1.1.7 1 1.4-.1.6-.6 1-1.2 1h-.2l-14.2-2.4c-.7-.1-1.1-.7-1-1.4zm15.6 32.5l-14.2-2.4c-.7-.1-1.3.3-1.4 1s.3 1.3 1 1.4l14.2 2.4h.2c.6 0 1.1-.4 1.2-1 .1-.7-.3-1.3-1-1.4z"/><g><path class="st25" d="M1026.1 327.6v23.1l-7.1-1.2-7.1-1.2v-23l7.1 1.1 7.1 1.2zm-14.2 28.7v23.1l7.1 1.2 7.1 1.2v-23.1l-7.1-1.2-7.1-1.2z"/><path class="st29" d="M1026.1 327.6v21.2l-11.6-1.9v-21.2l11.6 1.9zm-11.6 50.4l11.6 1.9v-21.2l-11.6-1.9V378z"/><path class="st23" d="M1026.6 369.4c0 .3-.2.4-.4.4l-7.3-1.2v11.6c0 .2-.2.4-.4.4s-.4-.2-.4-.4v-11.8l-6.2-1c-.2 0-.4-.3-.4-.5s.3-.4.5-.4l6.1 1v-9.9c0-.2.2-.4.4-.4s.4.2.4.4v10.1l7.3 1.2c.1 0 .4.3.4.5zm-14.8-33.1l6.2 1v11.9c0 .2.2.4.4.4s.4-.2.4-.4v-11.7l7.3 1.2c.2 0 .4-.1.4-.4 0-.2-.2-.5-.4-.5l-7.3-1.2v-10c0-.2-.2-.4-.4-.4s-.4.2-.4.4v9.8l-6.1-1c-.2 0-.5.2-.5.4s.2.5.4.5z"/><path class="st2" d="M1010.7 348.1c.1-.7.7-1.1 1.4-1l14.2 2.4c.7.1 1.1.7 1 1.4-.1.6-.6 1-1.2 1h-.2l-14.2-2.4c-.7-.1-1.1-.7-1-1.4zm15.6 32.5l-14.2-2.4c-.7-.1-1.3.3-1.4 1s.3 1.3 1 1.4l14.2 2.4h.2c.6 0 1.1-.4 1.2-1 .1-.7-.2-1.3-1-1.4z"/></g></g><g><path class="st21" d="M1090.1 187.1l36.8 9.3 13.2-36.8-1.6-2-35.1-7.3-15 34.8z"/><path class="st43" d="M1088.4 185.1l36.8 9.3 13.3-36.8-36.8-9.3z"/><path class="st21" d="M1136.8 158.6l-1.2 3.2-1.4 4.2-.4-.1-7-1.8 2.3-6.4.4-.9 3.8.9 3.5.9zm-12 5l.3.1 1.5-4.1 1.2-3.2-3.6-.9-3.8-1-.3 1-2.3 6.4 7 1.7zm-9-2.2l.3.1 1.5-4.2 1.1-3.2-3.5-.9-3.8-.9-.4.9-2.3 6.4 7.1 1.8zm-8.7-2.2l1.5-4.1 1.1-3.2-3.5-.9-3.8-1-.4.9-2.3 6.5 7 1.7.4.1zm19.4 5.8l-.4 1-2.3 6.4 7 1.8.4.1 1.5-4.2 1.1-3.2-3.5-.9-3.8-1zm-4.4 7l1.5-4.1 1.2-3.2-3.5-.9-3.9-1-.3.9-2.3 6.5 7 1.7.3.1zm-9-2.2l1.5-4.2 1.2-3.2-3.6-.9-3.8-1-.3 1-2.3 6.4 7 1.8.3.1zm-9-2.3l1.5-4.1 1.1-3.3-3.5-.8-3.8-1-.4.9-2.3 6.4 7 1.8.4.1zm19.1 6.2l-.4.9-2.3 6.4 7 1.8.4.1 1.4-4.2 1.2-3.2-3.5-.9-3.8-.9zm-4.4 6.9l1.5-4.1 1.2-3.2-3.6-.9-3.8-1-.3 1-2.3 6.4 7 1.7.3.1zm-14.1-10.5l-2.3 6.4 7.1 1.8.3.1 1.5-4.2 1.1-3.2-3.5-.9-3.8-.9-.4.9zm-3.9 6l1.5-4.1 1.1-3.2-3.5-.9-3.8-1-.4 1-2.3 6.4 7 1.7.4.1zm19 6.2l-.3.9-2.3 6.4 7 1.8.3.1 1.5-4.1 1.2-3.3-3.5-.8-3.9-1zm-5.2-1.3l-3.8-1-.3 1-2.3 6.4 7 1.8h.3l1.5-4.1 1.2-3.2-3.6-.9zm-9-2.3l-3.8-.9-.4.9-2.3 6.4 7 1.8.4.1 1.5-4.1 1.1-3.3-3.5-.9zm-9-2.2l-3.9-1-.3 1-2.3 6.4 7 1.8h.3l1.5-4.1 1.2-3.2-3.5-.9z"/><path class="st44" d="M1129.6 156c0 .4-.4.8-.8.8s-.8-.4-.8-.8.4-.8.8-.8.8.4.8.8zm-4 7.8c-.4 0-.8.4-.8.8s.4.8.8.8.8-.4.8-.8-.4-.8-.8-.8zm-3.2 8.6c-.4 0-.8.4-.8.8s.4.8.8.8.8-.4.8-.8-.4-.8-.8-.8zm-3.2 8.6c-.4 0-.8.4-.8.8s.4.8.8.8.8-.4.8-.8-.4-.8-.8-.8zm-3.1 8.7c-.4 0-.8.4-.8.8s.4.8.8.8.8-.4.8-.8-.4-.8-.8-.8zm21.6-32.5c-.4 0-.8.4-.8.8s.4.8.8.8.8-.4.8-.8-.4-.8-.8-.8zm-3.1 8.6c-.4 0-.8.4-.8.8s.4.8.8.8.8-.4.8-.8-.4-.8-.8-.8zm-3.2 8.6c-.4 0-.8.4-.8.8s.4.8.8.8.8-.4.8-.8-.4-.8-.8-.8zm-3.2 8.6c-.4 0-.8.4-.8.8s.4.8.8.8.8-.4.8-.8-.4-.8-.8-.8zm-3.2 8.7c-.4 0-.8.4-.8.8s.4.8.8.8.8-.4.8-.8-.4-.8-.8-.8zm-5.2-38.8c-.4 0-.8.4-.8.8s.4.8.8.8.8-.4.8-.8-.4-.8-.8-.8zm-3.1 8.6c-.4 0-.8.4-.8.8s.4.8.8.8.8-.4.8-.8-.4-.8-.8-.8zm-3.2 8.6c-.4 0-.8.4-.8.8s.4.8.8.8.8-.4.8-.8-.4-.8-.8-.8zm-3.2 8.6c-.4 0-.8.4-.8.8s.4.8.8.8.8-.4.8-.8-.4-.8-.8-.8zm-3.2 8.6c-.4 0-.8.4-.8.8s.4.8.8.8.8-.4.8-.8-.4-.8-.8-.8zm3.4-36.8c-.4 0-.8.4-.8.8s.4.8.8.8.8-.4.8-.8-.4-.8-.8-.8zm-3.1 8.7c-.4 0-.8.4-.8.8s.4.8.8.8.8-.4.8-.8-.4-.8-.8-.8zm-3.2 8.6c-.4 0-.8.4-.8.8s.4.8.8.8.8-.4.8-.8-.4-.8-.8-.8zm-3.2 8.6c-.4 0-.8.4-.8.8s.4.8.8.8.8-.4.8-.8-.4-.8-.8-.8zm-3.2 8.6c-.4 0-.8.4-.8.8s.4.8.8.8.8-.4.8-.8-.4-.8-.8-.8zm4.1-36.5c-.4 0-.8.4-.8.8s.4.8.8.8.8-.4.8-.8-.4-.8-.8-.8zm-3.2 8.7c-.4 0-.8.4-.8.8s.4.8.8.8.8-.4.8-.8-.4-.8-.8-.8zm-3.1 8.6c-.4 0-.8.4-.8.8s.4.8.8.8.8-.4.8-.8-.4-.8-.8-.8zm-3.2 8.6c-.4 0-.8.4-.8.8s.4.8.8.8.8-.4.8-.8-.4-.8-.8-.8zm-3.2 8.6c-.4 0-.8.4-.8.8s.4.8.8.8.8-.4.8-.8-.4-.8-.8-.8z"/><path class="st10" d="M1113.5 156.8c0 .9-.7 1.6-1.6 1.6s-1.6-.7-1.6-1.6.7-1.6 1.6-1.6 1.6.7 1.6 1.6zm8.5 20.7c-.7 0-1.2.5-1.2 1.2s.5 1.2 1.2 1.2 1.2-.5 1.2-1.2-.5-1.2-1.2-1.2z"/></g><g><path class="st21" d="M1134.4 197.9l36.8 9.3 13.3-36.8-1.7-2-35.1-7.3-14.9 34.8z"/><path class="st43" d="M1132.8 195.9l36.8 9.3 13.2-36.8-36.8-9.3z"/><path class="st21" d="M1181.2 169.4l-1.2 3.2-1.5 4.2-.3-.1-7-1.8 2.3-6.4.3-1 3.8 1 3.6.9zm-12.1 5l.4.1 1.5-4.1 1.1-3.3-3.5-.8-3.8-1-.4.9-2.3 6.4 7 1.8zm-9-2.2h.3l1.5-4.1 1.2-3.2-3.5-.9-3.9-1-.3 1-2.3 6.4 7 1.8zm-8.7-2.2l1.5-4.1 1.2-3.3-3.6-.9-3.8-.9-.3.9-2.3 6.4 7 1.8.3.1zm19.4 5.8l-.3 1-2.3 6.4 7 1.8h.3l1.5-4.1 1.2-3.2-3.5-.9-3.9-1zm-4.3 7l1.5-4.1 1.1-3.3-3.5-.9-3.8-.9-.3.9-2.4 6.4 7.1 1.8.3.1zm-9-2.3l1.5-4.1 1.1-3.2-3.5-.9-3.8-1-.4 1-2.3 6.4 7 1.8h.4zm-9.1-2.2l1.5-4.2 1.2-3.2-3.5-.9-3.9-.9-.3.9-2.3 6.4 7 1.8.3.1zm19.1 6.2l-.3.9-2.3 6.4 7 1.8.3.1 1.5-4.2 1.2-3.2-3.6-.9-3.8-.9zm-4.3 6.9l1.5-4.1 1.1-3.2-3.5-.9-3.8-1-.4.9-2.3 6.5 7 1.7.4.1zm-14.1-10.5l-2.3 6.4 7 1.8.3.1 1.5-4.2 1.2-3.2-3.5-.9-3.9-1-.3 1zm-4 6l1.5-4.1 1.2-3.3-3.6-.8-3.8-1-.3.9-2.3 6.4 7 1.8.3.1zm19.1 6.2l-.3.9-2.4 6.4 7.1 1.8.3.1 1.5-4.1 1.1-3.3-3.5-.9-3.8-.9zm-5.2-1.3l-3.8-1-.4 1-2.3 6.4 7 1.7.4.1 1.5-4.1 1.1-3.2-3.5-.9zm-9-2.3l-3.9-.9-.3.9-2.3 6.4 7 1.8.3.1 1.5-4.2 1.2-3.2-3.5-.9zm-9.1-2.2l-3.8-1-.3 1-2.4 6.4 7.1 1.7.3.1 1.5-4.1 1.2-3.2-3.6-.9z"/><path class="st44" d="M1173.9 166.8c0 .4-.4.8-.8.8s-.8-.4-.8-.8.4-.8.8-.8.8.4.8.8zm-3.9 7.8c-.4 0-.8.4-.8.8s.4.8.8.8.8-.4.8-.8-.4-.8-.8-.8zm-3.2 8.6c-.4 0-.8.4-.8.8s.4.8.8.8.8-.4.8-.8-.4-.8-.8-.8zm-3.2 8.6c-.4 0-.8.4-.8.8s.4.8.8.8.8-.4.8-.8-.4-.8-.8-.8zm-3.2 8.6c-.4 0-.8.4-.8.8s.4.8.8.8.8-.4.8-.8-.4-.8-.8-.8zm21.7-32.4c-.4 0-.8.4-.8.8s.4.8.8.8.8-.4.8-.8-.4-.8-.8-.8zm-3.2 8.6c-.4 0-.8.4-.8.8s.4.8.8.8.8-.4.8-.8-.4-.8-.8-.8zm-3.2 8.6c-.4 0-.8.4-.8.8s.4.8.8.8.8-.4.8-.8-.4-.8-.8-.8zm-3.1 8.6c-.4 0-.8.4-.8.8s.4.8.8.8.8-.4.8-.8-.4-.8-.8-.8zm-3.2 8.6c-.4 0-.8.4-.8.8s.4.8.8.8.8-.4.8-.8-.4-.8-.8-.8zm-5.2-38.8c-.4 0-.8.4-.8.8s.4.8.8.8.8-.4.8-.8-.4-.8-.8-.8zm-3.2 8.7c-.4 0-.8.4-.8.8s.4.8.8.8.8-.4.8-.8-.4-.8-.8-.8zm-3.2 8.6c-.4 0-.8.4-.8.8s.4.8.8.8.8-.4.8-.8-.4-.8-.8-.8zm-3.1 8.6c-.4 0-.8.4-.8.8s.4.8.8.8.8-.4.8-.8-.4-.8-.8-.8zm-3.2 8.6c-.4 0-.8.4-.8.8s.4.8.8.8.8-.4.8-.8-.4-.8-.8-.8zm3.4-36.8c-.4 0-.8.4-.8.8s.4.8.8.8.8-.4.8-.8-.4-.8-.8-.8zm-3.2 8.6c-.4 0-.8.4-.8.8s.4.8.8.8.8-.4.8-.8-.4-.8-.8-.8zm-3.2 8.7c-.4 0-.8.4-.8.8s.4.8.8.8.8-.4.8-.8-.4-.8-.8-.8zm-3.1 8.6c-.4 0-.8.4-.8.8s.4.8.8.8.8-.4.8-.8-.4-.8-.8-.8zm-3.2 8.6c-.4 0-.8.4-.8.8s.4.8.8.8.8-.4.8-.8-.4-.8-.8-.8zm4.1-36.5c-.4 0-.8.4-.8.8s.4.8.8.8.8-.4.8-.8-.4-.8-.8-.8zm-3.2 8.7c-.4 0-.8.4-.8.8s.4.8.8.8.8-.4.8-.8-.4-.8-.8-.8zm-3.2 8.6c-.4 0-.8.4-.8.8s.4.8.8.8.8-.4.8-.8-.4-.8-.8-.8zm-3.2 8.6c-.4 0-.8.4-.8.8s.4.8.8.8.8-.4.8-.8-.4-.8-.8-.8zm-3.1 8.6c-.4 0-.8.4-.8.8s.4.8.8.8.8-.4.8-.8-.4-.8-.8-.8z"/><circle class="st10" cx="1176.2" cy="172.2" r="2"/></g></g><g><path class="st3" d="M614.6 380.4l-8.7-19.5-30 2.9-8.5 10.2-.5 6.5-1 11-.5 6.5 15.3 10.2h.1l31.8-3.8 2-24-1.5 17.5"/><path class="st27" d="M582.8 384.3l-2 23.9 14-1.7h.1l5.1-.6.9-.1.7-.1 11-1.3 2-24z"/><path class="st23" d="M611.3 403.1L613 382l-28.9 3.6-1.7 21z"/><path class="st3" d="M611.5 384.6l-.6 6.8-7.8 1 .6-6.9 7.8-.9zm-26.1 10.5l7.8-1 .6-6.8-7.8.9-.6 6.9z"/><path class="st45" d="M595.9 394.9l-1 11.6 5.1-.6.9-.1.7-.1.9-10.2c.2-1.8-1.2-3.5-3-3.6h-.3c-1.8 0-3.2 1.3-3.3 3z"/><path class="st21" d="M595.6 394.8l-.6 10.5v.4l-.1.9 5.1-.6.9-.1.9-10.5c.1-1.2-.5-2.3-1.5-3-.4-.2-.8-.4-1.2-.4-1.7-.4-3.4.9-3.5 2.8z"/><path class="st16" d="M566.4 375.1c.7.2 1.4-.5 1.8-1 1.1-1.5 2.3-3 3.4-4.4.5-.7 1.2-1.4 2.1-1.3 1 .1 1.4 1.2 1.7 2.2.9 3.2 1.7 6.4 2.6 9.6.6 2.2 1.3 4.6 3.3 5.8 1.8 1.1 4 .7 6.1.4 4.6-.8 9.1-1.6 13.7-2.3 3-.5 6.1-1 9.2-1.1 1.1 0 2.2 0 3.2-.2 1.1-.2 2.1-.8 2.7-1.7.7-1.1.5-2.5.1-3.8-.2-.6-.4-1.1-.7-1.6-1.5-3.3-3.1-6.6-4.6-9.9-.8-1.8-1.7-3.6-3.4-4.6-1.8-1.1-4-.9-6-.7-6.5.6-12.9 1.2-19.4 1.9-2.2.2-4.4.4-6.4 1.3-3 1.3-5.2 3.8-7 6.5-.5.7-.8 1.5-1.4 2.1l-.1.1c-.4.4-.9.7-1.2 1.2-.4.2-.5 1.2.3 1.5z"/><path class="st27" d="M567.2 372c.3-.2.5-.5.6-.7 1.1-1.5 2.3-3 3.4-4.4.5-.7 1.2-1.4 2.1-1.3 1 .1 1.4 1.2 1.7 2.2.9 3.2 1.7 6.4 2.6 9.6.6 2.2 1.4 4.6 3.3 5.8 1.8 1.1 4 .7 6.1.4 4.6-.8 9.1-1.6 13.7-2.3 3-.5 6.1-1 9.2-1.1 1.1 0 2.2 0 3.2-.2 1.1-.2 2.1-.8 2.7-1.7.2-.4.4-.7.4-1.1-.2-.6-.4-1.1-.7-1.6-1.5-3.3-3.1-6.6-4.6-9.9-.8-1.8-1.7-3.6-3.4-4.6-1.8-1.1-4-.9-6-.7-6.5.6-12.9 1.2-19.4 1.9-2.2.2-4.4.4-6.4 1.3-3 1.3-5.2 3.8-7 6.5-.6.4-1 1.2-1.5 1.9z"/><path class="st3" d="M602.2 357.4l-4.5-8.8-13.5 1-3.9 4.8-.3 3-.4 5.1-.3 3 7.2 4.8v-.1l14.8-1.7.9-11.1-.7 8"/><path class="st27" d="M587.4 359.1l-.9 11.1 6.5-.7 2.4-.3.4-.1h.4l5.1-.6.9-11.1z"/><path class="st23" d="M600.7 367.9l.8-9.8-13.5 1.6-.8 9.8z"/><path class="st16" d="M579.8 354.9c.3.1.7-.2.8-.5.5-.7 1.1-1.4 1.6-2.1.2-.3.6-.7 1-.6s.7.6.8 1c.4 1.5.8 3 1.2 4.4.3 1 .6 2.1 1.5 2.7.8.5 1.9.3 2.8.2 2.1-.4 4.2-.7 6.3-1.1 1.4-.2 2.8-.5 4.3-.5.5 0 1 0 1.5-.1s1-.4 1.2-.8c.3-.5.2-1.2 0-1.8-.1-.3-.2-.5-.3-.8-.7-1.5-1.4-3.1-2.1-4.6-.4-.8-.8-1.7-1.6-2.1-.8-.5-1.8-.4-2.8-.3l-9 .9c-1 .1-2 .2-3 .6-1.4.6-2.4 1.8-3.2 3-.2.3-.4.7-.6 1-.2.2-.4.3-.5.6-.2.3-.2.7.1.9z"/><path class="st27" d="M580.2 353.4l.3-.3c.5-.7 1.1-1.4 1.6-2.1.2-.3.6-.7 1-.6s.7.6.8 1c.4 1.5.8 3 1.2 4.4.3 1 .6 2.1 1.5 2.7.8.5 1.9.3 2.8.2 2.1-.4 4.2-.7 6.3-1.1 1.4-.2 2.8-.5 4.3-.5.5 0 1 0 1.5-.1s1-.4 1.2-.8c.1-.2.2-.3.2-.5-.1-.3-.2-.5-.3-.8-.7-1.5-1.4-3.1-2.1-4.6-.4-.8-.8-1.7-1.6-2.1-.8-.5-1.8-.4-2.8-.3l-9 .9c-1 .1-2 .2-3 .6-1.4.6-2.4 1.8-3.2 3-.3.3-.5.7-.7 1zM582.7 363.2c3.4 2 5.9 5.3 7 9 .1.5.2 1 0 1.5-.4.6-1.2.6-1.9.5-2.2-.3-4.4-.8-6.5-1.6-.6-.2-1.2-.4-1.6-1-.3-.4-.3-.9-.4-1.4-.3-2.3-.7-4.6-1-7-.4-2 3.4-.5 4.4 0z"/><path class="st32" d="M575.8 396.3c0 .5-.1 1-.2 1.5-.1.3-.1.5-.2.8-.4 1.3-1.1 2.4-2.2 3.2-1.3.9-3.3.9-4.3-.2-1.5 1.9-3.4 1.8-4.4-.2-1.2 1-3.1.8-4.3-.2-1-.8-1.6-2.1-1.8-3.4-.1-.3-.1-.5-.1-.8-.1-.5-.1-1-.1-1.5 0-1.5.3-3 .9-4.4.1-.3.3-.6.4-.9.4-.7.8-1.4 1.4-2 .3-.4.6-.7 1-1 .2-.2.5-.4.7-.6 1.5-1.2 3.3-2.1 5.1-2.4 1.8.5 3.5 1.6 4.8 2.9l.7.7c.3.4.6.8.9 1.1.4.7.8 1.3 1.1 2.1l.3.9c.3 1.3.4 2.9.3 4.4z"/><path class="st33" d="M575.9 395c0 .5-.1 1-.2 1.5-.1.3-.1.5-.2.8-.4 1.3-1.1 2.4-2.2 3.2-1.3.9-3.3.9-4.3-.2-1.5 1.9-3.4 1.8-4.4-.2-1.2 1-3.1.8-4.3-.2-1-.8-1.6-2.1-1.8-3.4-.1-.3-.1-.5-.1-.8-.1-.5-.1-1-.1-1.5 0-1.5.3-3 .9-4.4.1-.3.3-.6.4-.9.4-.7.8-1.4 1.4-2 .3-.4.6-.7 1-1 .2-.2.5-.4.7-.6 1.5-1.2 3.3-2.1 5.1-2.4 1.8.5 3.5 1.6 4.8 2.9l.7.7c.3.4.6.8.9 1.1.4.7.8 1.3 1.1 2.1l.3.9c.3 1.2.4 2.8.3 4.4z"/><path class="st32" d="M559.1 389.6c.1-.3.3-.6.4-.9.1.4.3.8.6 1 .6.5 1.4.5 2 0 .1.9.6 1.7 1.3 1.9s1.5-.2 1.9-1c.9 2.5 3 2 3.6.2.3.8 1.1 1.3 1.8 1.2.7-.1 1.4-.9 1.5-1.7.5.6 1.4.6 2 .2.3-.2.6-.6.7-1.1.3.3.4.6.5 1-.1.7-.5 1.3-1 1.6-.5.3-1.2.1-1.6-.4-.3.9-1 1.6-1.7 1.7-.8.2-1.6-.2-2.1-1-.4.8-1.2 1.3-2 1.2-.8 0-1.5-.6-1.8-1.4-.5.7-1.4 1-2.2.7-.8-.2-1.4-1-1.5-1.9-.4.5-1.1.6-1.6.3s-.7-.9-.8-1.6zm16.2 5.7c-.8.6-1.8.5-2.4-.2-.2 1-.9 1.9-1.8 2-.9.1-1.8-.5-2.2-1.4-.7 2.2-3.3 2.8-4.3-.2-.5.9-1.4 1.3-2.3 1.1-.9-.2-1.5-1.2-1.6-2.2-.7.6-1.7.6-2.4 0-.1-.1-.3-.3-.4-.5 0 .5 0 1 .1 1.5 0 .3 0 .5.1.8.6.4 1.4.3 1.9-.3.2 1.1.9 2 1.8 2.3.9.3 2-.1 2.6-.9.4 1 1.3 1.7 2.2 1.7 1 .1 1.9-.5 2.4-1.4.6.9 1.6 1.4 2.5 1.2 1-.2 1.8-1 2.1-2.1.4.6 1.2.8 1.8.5l.4-2.4c-.2.2-.3.4-.5.5zm-12-7.9c.8.3 1.7 0 2.2-.7.3.8 1 1.4 1.8 1.4.8.1 1.6-.4 2-1.2.5.8 1.3 1.2 2.1 1 .7-.2 1.4-.9 1.7-1.7-.2-.2-.4-.5-.8-.7-.3.6-.8 1-1.3 1.1-.7.1-1.5-.4-1.8-1.2-.6 1.8-2.7 2.3-3.6-.2-.4.8-1.2 1.2-1.9 1-.5-.1-1-.6-1.2-1.2-.2.2-.5.4-.7.6.2.8.8 1.6 1.5 1.8z"/><path class="st34" d="M571.6 396.1c-.7-.3-1.3-1.8.1-2.3 1.3.7.6 2-.1 2.3zm.2-7.1c-1.3-.7-2 .6-1.9 1.4.7.3 2.2 0 1.9-1.4zm-5.6 5.4c-.3.6 0 2.2 1.4 1.8.7-1.3-.7-2-1.4-1.8z"/><path class="st32" d="M575.4 394.9c-1.4.3-1.7-1.2-1.4-1.8.7-.2 2.1.5 1.4 1.8zm-5.8 4c-.4.6 0 2.2 1.4 1.8.7-1.3-.7-2-1.4-1.8zm-2.7-13.5c1.4.3 1.7-1.3 1.3-1.9-.7-.1-2.1.6-1.3 1.9z"/><g><path class="st3" d="M569.4 363.5l-14.2-31-50.3 6.5-11.9 16.6-.6 10.5-.9 17.7-.6 10.6 25.3 15.7v-.1l.2.1 51-7.9 2-38.7-1.6 28.2"/><path class="st27" d="M518.3 371.4l-1.9 38.7 22.5-3.5h.1l8.2-1.3 1.5-.2 1.1-.2 17.6-2.7 2-38.7z"/><path class="st23" d="M565.2 400.2l1.8-34.1-46.5 7.2-1.7 34.1z"/><path class="st3" d="M564.6 370.3l-.6 11.1-12.5 1.9.6-11.1 12.5-1.9zM523 388.6l12.6-1.9.6-11.1-12.6 2-.6 11z"/><path class="st45" d="M539.9 387.8l-1 18.8 8.2-1.3 1.5-.2 1.1-.2.9-16.5c.2-3-2.1-5.5-5.1-5.7h-.5c-2.7.2-4.9 2.3-5.1 5.1z"/><path class="st21" d="M539.4 387.7l-.4 16.9v2l8.2-1.3 1.5-.2.9-17h-.1c.1-1.9-.9-3.8-2.6-4.7-.6-.3-1.3-.5-1.9-.6-2.8-.4-5.5 1.8-5.6 4.9z"/><path class="st16" d="M491.3 357.4c1.1.4 2.3-.9 2.8-1.7 1.7-2.5 3.5-4.9 5.2-7.4.8-1.1 1.9-2.4 3.2-2.3 1.6.1 2.3 1.9 2.8 3.4 1.6 5.1 3.1 10.2 4.7 15.3 1.1 3.5 2.4 7.4 5.6 9.1 2.9 1.6 6.5 1 9.8.3l21.9-4.5c4.9-1 9.8-2 14.7-2.2 1.7-.1 3.5-.1 5.2-.5s3.3-1.3 4.2-2.8c1.1-1.9.7-4.1-.1-6.2-.3-.9-.7-1.8-1.2-2.6-2.7-5.3-5.3-10.5-8-15.8-1.4-2.8-3-5.7-5.7-7.3-2.9-1.6-6.4-1.2-9.7-.8-10.4 1.3-20.8 2.7-31.2 4-3.5.5-7 .9-10.2 2.4-4.8 2.2-8.2 6.5-10.9 10.8-.7 1.1-1.3 2.4-2.1 3.5 0 0 0 .1-.1.1-.5.7-1.4 1.2-1.8 2-.3 1.2-.4 2.8.9 3.2z"/><path class="st27" d="M492.5 352.4c.4-.3.7-.8 1-1.1 1.7-2.5 3.5-4.9 5.2-7.4.8-1.1 1.9-2.4 3.2-2.3 1.6.1 2.3 1.9 2.8 3.4 1.6 5.1 3.1 10.2 4.7 15.3 1.1 3.5 2.4 7.4 5.6 9.1 2.9 1.6 6.6 1 9.8.3l21.9-4.5c4.9-1 9.8-2 14.7-2.2 1.7-.1 3.5-.1 5.2-.5s3.3-1.3 4.2-2.8c.3-.6.5-1.2.6-1.9-.3-.9-.7-1.8-1.2-2.6-2.7-5.3-5.3-10.5-8-15.8-1.4-2.8-3-5.7-5.7-7.3-2.9-1.6-6.4-1.2-9.7-.8-10.4 1.3-20.8 2.7-31.2 4-3.5.5-7 .9-10.2 2.4-4.8 2.2-8.2 6.5-10.9 10.8-.6 1.4-1.2 2.7-2 3.9 0-.1 0 0 0 0z"/></g><g><path class="st32" d="M507.8 396.7c0 .9-.1 1.9-.3 2.8l-.3 1.5c-.6 2.4-1.8 4.6-3.7 6.1-2.3 1.8-6 2-8.1 0-2.5 3.7-6.1 3.7-8.2 0-2.1 2.1-5.8 1.8-8.1 0-1.9-1.5-3.1-3.7-3.7-6.1l-.3-1.5c-.2-.9-.3-1.8-.3-2.8-.1-2.8.3-5.6 1.2-8.2.2-.6.5-1.2.7-1.8.6-1.4 1.4-2.7 2.3-3.9.5-.7 1.1-1.4 1.7-2l1.3-1.3c2.6-2.3 5.9-4.1 9.2-4.9 3.4.8 6.6 2.6 9.2 4.9.5.4.9.8 1.3 1.3.6.7 1.2 1.3 1.7 2 .9 1.2 1.6 2.4 2.2 3.7.3.6.5 1.1.7 1.7 1.2 2.7 1.7 5.6 1.5 8.5z"/><path class="st33" d="M507.9 394.2c0 .9-.1 1.9-.3 2.8l-.3 1.5c-.6 2.4-1.8 4.6-3.7 6.1-2.3 1.8-6 2-8.1 0-2.5 3.7-6.1 3.7-8.2 0-2.1 2.1-5.8 1.8-8.1 0-1.9-1.5-3.1-3.7-3.7-6.1l-.3-1.5c-.2-.9-.3-1.8-.3-2.8-.1-2.8.3-5.6 1.2-8.2.2-.6.5-1.2.7-1.8.6-1.4 1.4-2.7 2.3-3.9.5-.7 1.1-1.4 1.7-2l1.3-1.3c2.6-2.3 5.9-4.1 9.2-4.9 3.4.8 6.6 2.6 9.2 4.9.5.4.9.8 1.3 1.3.6.7 1.2 1.3 1.7 2 .9 1.2 1.6 2.4 2.2 3.7.3.6.5 1.1.7 1.7 1.1 2.7 1.6 5.6 1.5 8.5z"/><path class="st32" d="M475.7 386c.2-.6.5-1.2.7-1.8.2.7.7 1.4 1.2 1.8 1.1.9 2.7.8 3.7-.2.2 1.6 1.3 3.1 2.7 3.4s2.8-.5 3.5-2c1.8 4.6 5.8 3.4 6.8 0 .7 1.5 2.2 2.3 3.5 2 1.4-.3 2.5-1.7 2.7-3.4 1.1 1 2.6 1.1 3.7.2.6-.5 1-1.2 1.3-2 .6.6.8 1.1 1 1.7-.1 1.3-.8 2.5-1.7 3.1-1 .6-2.3.4-3-.6-.4 1.7-1.6 3.1-3.1 3.4-1.4.4-3-.3-4-1.6-.7 1.5-2.1 2.5-3.6 2.5-1.4 0-2.9-1-3.6-2.5-.9 1.3-2.5 2-4 1.6-1.4-.4-2.6-1.7-3.1-3.4-.7 1-2 1.2-3 .6-.9-.5-1.5-1.7-1.7-2.8zm31.4 9.1c-1.3 1-3.2.9-4.4-.2-.2 1.9-1.6 3.6-3.2 4s-3.4-.6-4.2-2.3c-1.1 4-5.8 5.4-8 0-.8 1.7-2.5 2.7-4.2 2.3-1.6-.4-2.9-2-3.2-4-1.2 1.2-3.1 1.2-4.4.2-.3-.2-.6-.5-.8-.9 0 .9.1 1.9.3 2.8l.3 1.5c1.1.6 2.6.4 3.4-.8.5 2 1.9 3.6 3.6 4s3.6-.3 4.7-1.9c.8 1.8 2.5 3 4.2 2.9 1.7 0 3.4-1.1 4.2-2.9 1.1 1.6 3 2.3 4.7 1.9s3.1-2.1 3.6-4c.8 1.2 2.3 1.4 3.4.8l.8-4.3c-.2.3-.5.6-.8.9zm-23.4-13.6c1.5.4 3.1-.3 4-1.6.7 1.5 2.2 2.5 3.6 2.5 1.5 0 2.9-1 3.6-2.5 1 1.3 2.6 2 4 1.6s2.6-1.7 3-3.3c-.5-.4-.9-.8-1.5-1.3-.4 1.1-1.3 1.9-2.3 2.1-1.3.3-2.8-.5-3.5-2-1 3.4-5 4.6-6.8 0-.7 1.5-2.1 2.3-3.5 2-1-.2-1.8-1-2.3-2.1l-1.3 1.3c.4 1.7 1.6 2.9 3 3.3z"/><path class="st34" d="M500 396.8c-1.2-.6-2.5-3.2 0-4.3 2.5 1.1 1.2 3.7 0 4.3zm-.3-13.3c-2.4-1.3-3.7 1.4-3.4 2.7 1.3.6 4.1-.1 3.4-2.7zm-9.9 10.6c-.6 1.2.2 4.1 2.8 3.3 1.2-2.5-1.5-3.6-2.8-3.3z"/><path class="st32" d="M507 394.1c-2.7.8-3.4-2.1-2.8-3.3 1.3-.3 4 .8 2.8 3.3zm-10.5 8.1c-.5 1.2.2 4 2.8 3.3 1.2-2.5-1.5-3.6-2.8-3.3zm-6.4-24.9c2.7.4 3-2.5 2.3-3.6-1.3-.2-3.8 1.3-2.3 3.6z"/></g><g><path class="st40" d="M471.5 306.8c2.2 1.9 5.5 1.9 7.7 0v-33.2h-7.8v16.6l.1 16.6z"/><ellipse class="st30" cx="475.4" cy="273.7" rx="3.9" ry="1"/><ellipse class="st31" cx="475.4" cy="273.7" rx="2.9" ry=".6"/><path class="st41" d="M494.8 320.4l-16.5-30.5-48.4 9.1-11.2 17.7v90.2l26 14.3v-.1h.1l50.2-10.5-.2-90.2v28.1"/><path class="st27" d="M444.7 331l.1 90.1 22.1-4.6h.1l8.1-1.8 1.5-.3 1-.2 17.4-3.6-.2-90.2z"/><path class="st42" d="M492.7 408.7l-.1-85.5-45.7 9.6.1 85.6z"/><path class="st26" d="M417.1 317.6c1.1.3 2.2-1 2.7-1.9 1.6-2.5 3.2-5 4.8-7.6.7-1.2 1.7-2.5 3.1-2.4 1.6.1 2.4 1.8 3 3.2 1.8 5 3.6 9.9 5.5 14.9 1.3 3.4 2.8 7.2 6.1 8.8 3 1.4 6.5.6 9.8-.2 7.2-1.9 14.3-3.8 21.5-5.6 4.8-1.3 9.6-2.5 14.5-3 1.7-.2 3.5-.2 5.1-.8 1.7-.5 3.2-1.5 4-3 1-1.9.5-4.1-.4-6.1-.4-.9-.8-1.7-1.3-2.5-2.9-5.1-5.8-10.2-8.8-15.2-1.5-2.7-3.3-5.5-6.1-6.9-3-1.4-6.5-.9-9.7-.3-10.2 1.9-20.5 3.8-30.7 5.7-3.4.6-6.9 1.3-10 2.9-4.6 2.5-7.8 6.8-10.2 11.3-.6 1.2-1.2 2.5-1.9 3.6 0 0 0 .1-.1.1-.5.7-1.3 1.3-1.7 2.1-.4 1-.4 2.6.8 2.9z"/><path class="st27" d="M418 312.7c.4-.4.7-.8.9-1.1 1.6-2.5 3.2-5 4.8-7.6.7-1.2 1.7-2.5 3.1-2.4 1.6.1 2.4 1.8 3 3.3 1.8 5 3.6 9.9 5.5 14.9 1.3 3.4 2.8 7.2 6.1 8.8 3 1.4 6.5.6 9.8-.2 7.2-1.9 14.3-3.8 21.5-5.6 4.8-1.3 9.6-2.5 14.5-3 1.7-.2 3.5-.2 5.1-.8 1.7-.5 3.2-1.5 4-3 .3-.6.5-1.2.5-1.9-.4-.9-.8-1.7-1.3-2.5-2.9-5.1-5.8-10.2-8.8-15.2-1.5-2.7-3.3-5.5-6.1-6.9-3-1.4-6.5-.9-9.7-.3-10.2 1.9-20.5 3.8-30.7 5.7-3.4.6-6.9 1.3-10 2.9-4.6 2.5-7.8 6.8-10.2 11.3-.6 1.2-1.2 2.5-2 3.6.1-.1 0-.1 0 0z"/><path class="st25" d="M487.4 330.1v19.8l-6.1 1.1-6.1 1v-19.9l6.1-1 6.1-1zm-12.2 28.8v19.8l6.1-1 6.1-1v-19.9l-6.1 1.1-6.1 1z"/><path class="st29" d="M485.2 330.5v18.2l-10 1.7v-18.3l10-1.6zm-10 46.6l10-1.6v-18.3l-10 1.7v18.2z"/><path class="st23" d="M487.7 366c0 .2-.1.4-.3.4l-5.1.8v10.2c-.1.2-.2.4-.4.4s-.4-.2-.4-.4v-10l-6.3 1c-.2 0-.3-.1-.4-.3 0-.2.1-.4.3-.4l6.4-1v-8.8c0-.2.2-.4.4-.4s.4.2.4.4v8.6l5-.8c.2 0 .4.1.4.3zm-12.5-24.3l6.3-1v9.9c0 .2.2.4.4.4s.3-.2.4-.4v-10.1l5.1-.8c.2 0 .3-.2.3-.4s-.2-.3-.4-.3l-5 .8v-8.7c0-.2-.2-.4-.4-.4s-.4.2-.4.4v8.9l-6.4 1c-.2 0-.3.2-.3.4.1.2.2.3.4.3z"/><path class="st2" d="M474.2 352.1c-.1-.6.3-1.1.9-1.2l12.2-2c.6-.1 1.1.3 1.2.9s-.3 1.1-.9 1.2l-12.2 2h-.2c-.5 0-1-.4-1-.9zm13.1 23.6l-12.2 2c-.6.1-1 .6-.9 1.2 0 .5.5.9 1 .9h.2l12.2-2c.6-.1 1-.6.9-1.2s-.6-1-1.2-.9z"/><g><path class="st25" d="M467.6 333.5v19.8l-6.1 1.1-6.1 1v-19.9l6.1-1 6.1-1zm-12.2 28.8v19.8l6.1-1 6.1-1v-19.9l-6.1 1.1-6.1 1z"/><path class="st29" d="M465.4 333.9v18.2l-10 1.7v-18.3l10-1.6zm-10 46.6l10-1.6v-18.3l-10 1.7v18.2z"/><path class="st23" d="M467.9 369.4c0 .2-.1.4-.3.4l-5.1.8v10.2c-.1.2-.2.4-.4.4s-.4-.2-.4-.4v-10l-6.3 1c-.2 0-.3-.1-.4-.3 0-.2.1-.4.3-.4l6.4-1v-8.8c0-.2.2-.4.4-.4s.4.2.4.4v8.6l5-.8c.2 0 .4.1.4.3zm-12.5-24.3l6.3-1v9.9c0 .2.2.4.4.4s.3-.2.4-.4v-10.1l5.1-.8c.2 0 .3-.2.3-.4s-.2-.3-.4-.3l-5 .8v-8.7c0-.2-.2-.4-.4-.4s-.4.2-.4.4v8.9l-6.4 1c-.2 0-.3.2-.3.4.1.2.2.3.4.3z"/><path class="st2" d="M454.4 355.5c-.1-.6.3-1.1.9-1.2l12.2-2c.6-.1 1.1.3 1.2.9s-.3 1.1-.9 1.2l-12.2 2h-.2c-.5 0-1-.4-1-.9zm13.1 23.6l-12.2 2c-.6.1-1 .6-.9 1.2 0 .5.5.9 1 .9h.2l12.2-2c.6-.1 1-.6.9-1.2s-.6-1-1.2-.9z"/></g></g><g><path class="st45" d="M466.7 390.5l-1 18.8 8.2-1.3 1.5-.2 1.1-.2.9-16.5c.2-3-2.1-5.5-5.1-5.7h-.5c-2.7.1-5 2.3-5.1 5.1z"/><path class="st21" d="M466.2 390.3l-.4 16.9v2l8.2-1.3 1.5-.2.9-17h-.1c.1-1.9-.9-3.8-2.6-4.7-.6-.3-1.3-.5-1.9-.6-2.8-.3-5.5 1.8-5.6 4.9z"/></g></g><path class="st2" d="M1443.4 111.4c-214.2 28.4-431.1 327.4-649.8 307.1-349-32.5-696.2-51-977.9 33.8h-1112.4v697.6h4013.6V111.4H1443.4z"/></g></svg>