<svg width="81" height="93" xmlns="http://www.w3.org/2000/svg"><g fill="none" fill-rule="evenodd"><circle fill="#EEE" fill-rule="nonzero" cx="16.4" cy="77.2" r="4.2"/><path d="M16 64.3c-7.2.3-12.8 6.3-12.6 13.5.3 7.2 6.3 12.8 13.5 12.6 7.2-.3 12.8-6.3 12.6-13.5-.3-7.2-6.3-12.9-13.5-12.6zm.7 21.1c-4.5.2-8.2-3.3-8.3-7.8-.2-4.5 3.3-8.2 7.8-8.3 4.5-.2 8.2 3.3 8.3 7.8.2 4.4-3.3 8.1-7.8 8.3z" fill="#212121" fill-rule="nonzero"/><circle fill="#EEE" fill-rule="nonzero" transform="rotate(-75.618 66.94 75.229)" cx="66.94" cy="75.229" r="4.2"/><path d="M66.7 62.5c-7.2.3-12.8 6.3-12.6 13.5.3 7.2 6.3 12.8 13.5 12.6 7.2-.3 12.8-6.3 12.6-13.5-.3-7.3-6.3-12.9-13.5-12.6zm.7 21.1c-4.5.2-8.2-3.3-8.3-7.8-.2-4.5 3.3-8.2 7.8-8.3 4.5-.2 8.2 3.3 8.3 7.8.1 4.5-3.3 8.1-7.8 8.3z" fill="#212121" fill-rule="nonzero"/><circle fill="#EEE" fill-rule="nonzero" cx="44.4" cy="72.8" r="5.2"/><path d="M21.1 52.8l2.2 8.4"/><path d="M23.3 62.4c-.6 0-1.1-.4-1.2-.9l-2.2-8.4c-.2-.7.2-1.3.9-1.5.7-.2 1.4.2 1.5.9l2.2 8.4c.2.7-.2 1.3-.9 1.5h-.3z" fill="#EEE" fill-rule="nonzero"/><path d="M44.3 73.2c-.2 0-.4 0-.5-.1L22.5 62.8c-.6-.3-.9-1-.6-1.7.3-.6 1-.9 1.7-.6l20.1 9.7 6.1-16.6c.2-.6 1-1 1.6-.7.6.2 1 1 .7 1.6l-6.5 17.9c-.1.3-.4.6-.7.7-.3 0-.4.1-.6.1z" fill="#F33" fill-rule="nonzero"/><path d="M50.8 55.2c-.7 0-1.2-.5-1.2-1.2l-.4-10.3-8.4-3.7c-.6-.3-.9-1-.6-1.6.3-.6 1-.9 1.6-.6l9.1 4c.4.2.7.6.7 1.1L52 54c.1.6-.4 1.2-1.2 1.2.1 0 .1 0 0 0z" fill="#B9BDC3" fill-rule="nonzero"/><path d="M45.9 40.9l-4.6-2"/><path d="M45.9 42.6c-.2 0-.5 0-.7-.1l-4.6-2c-.9-.4-1.2-1.4-.9-2.2.4-.9 1.4-1.2 2.2-.9l4.6 2c.9.4 1.2 1.4.9 2.2-.2.6-.9 1-1.5 1z" fill="#212121" fill-rule="nonzero"/><path d="M16.2 78.3c-.4 0-.7-.2-1-.5-.3-.4-.4-.9-.2-1.3l6.8-15.4c.2-.3.4-.6.8-.7l27.8-7.7c.5-.1 1 0 1.3.4L67.6 74c.4.5.3 1.3-.2 1.8-.5.4-1.3.3-1.8-.2L50.2 55.4l-26.5 7.3-5.6 12.7 25.8-4.8c.7-.1 1.3.3 1.5 1 .1.7-.3 1.3-1 1.5l-28.2 5.2c.1 0 .1 0 0 0z" fill="#F33" fill-rule="nonzero"/><path d="M16.7 55.2c-1.2 0-2.2-1-2.3-2.2 0-1.2.9-2.3 2.2-2.3l8.9-.3c1.3-.1 2.3.9 2.3 2.2 0 1.2-.9 2.3-2.2 2.3l-8.9.3z" fill="#333" fill-rule="nonzero"/><path d="M34.3 36.4c-.6 0-1.1-.4-1.3-.9-.4-1.1-2.1-4.2-4.4-4.7-1.6-.3-3.6.6-5.7 2.8-.6.6-1.5.6-2 0-.6-.5-.6-1.5 0-2 2.9-3 5.7-4.2 8.3-3.6 4.4.9 6.4 6.3 6.5 6.5.3.7-.1 1.6-.8 1.8-.2.1-.4.1-.6.1z" fill="#F33" fill-rule="nonzero"/><path d="M39.9 31.7c.8 1.4.3 3.1-1.1 3.8-1.1.6-2.4.2-3-.8l-1-1.8-2.5 1.4 3.1 5.6c.2.4.6.5 1 .3l6.2-3.5c1.3-.7 1.9-2.4 1.2-3.8-.7-1.5-2.5-2-3.9-1.2z" fill="#332F2E" fill-rule="nonzero"/><path d="M36.2 35.3l-1 .5c-.4.2-.8.1-1-.3-.2-.4-.1-.8.3-1l1-.5c.4-.2.8-.1 1 .3.2.4 0 .8-.3 1z" fill="#F8C329" fill-rule="nonzero"/><path fill="#30A658" fill-rule="nonzero" d="M16.1 32.4h5l-2.6-12.7z"/><path d="M18.5 18.2c-3.4 0-6.1 2.8-6.1 6.1v5.1c0 3.4 2.8 6.1 6.1 6.1 3.4 0 6.1-2.8 6.1-6.1v-5.1c.1-3.3-2.7-6.1-6.1-6.1z" fill="#F33" fill-rule="nonzero"/><path d="M18.6 45.1c-.8 0-1.4-.6-1.4-1.4V32.4c0-.8.6-1.4 1.4-1.4.8 0 1.4.6 1.4 1.4v11.3c.1.8-.6 1.4-1.4 1.4.1 0 0 0 0 0z" fill="#F33" fill-rule="nonzero"/><path d="M25 45.1c0 1.5-1.2 2.8-2.8 2.8-1.2 0-2.2-1-2.2-2.1v-2.1h-2.9V50c0 .4.3.7.7.7h7c1.5 0 2.8-1.2 2.8-2.7.3-1.6-1-2.9-2.6-2.9z" fill="#332F2E" fill-rule="nonzero"/><path d="M20.1 46.5H19c-.4 0-.7-.3-.7-.7 0-.4.3-.7.7-.7h1.1c.4 0 .7.3.7.7 0 .4-.3.7-.7.7z" fill="#F8C329" fill-rule="nonzero"/><path fill="#332F2E" fill-rule="nonzero" d="M12.4 26.42l12.2-.035.008 3.1-12.2.035z"/><path fill="#F8C329" fill-rule="nonzero" d="M23.2 26.405l1.5-.005.01 3.1-1.5.005z"/><path d="M13.7 23.1c-.3 0-.6-.1-.8-.2l-9.3-6.4c-.7-.4-.8-1.3-.4-2s1.3-.8 2-.4l9.3 6.3c.7.4.8 1.3.4 2-.3.5-.7.7-1.2.7z" fill="#F33" fill-rule="nonzero"/><circle fill="#E0BB95" fill-rule="nonzero" cx="3.8" cy="14.9" r="3.1"/><path d="M8.6 13.3c-.7-.4-1.5-.3-2 .4L3.7 18c-.4.7-.3 1.5.4 2 .7.4 1.5.3 2-.4L9 15.3c.4-.7.2-1.5-.4-2z" fill="#FFF" fill-rule="nonzero"/><path d="M22.7 23.1c-.5 0-.9-.2-1.2-.6-.4-.7-.3-1.5.4-2l9.3-6.3c.7-.4 1.5-.3 2 .4.4.7.3 1.5-.4 2l-9.3 6.3c-.2.1-.5.2-.8.2z" fill="#F33" fill-rule="nonzero"/><circle fill="#E0BB95" fill-rule="nonzero" cx="32.6" cy="14.9" r="3.1"/><path d="M32.8 18l-2.9-4.3c-.4-.7-1.3-.8-2-.4s-.8 1.3-.4 2l2.9 4.3c.4.7 1.3.8 2 .4.6-.5.8-1.4.4-2z" fill="#FFF" fill-rule="nonzero"/><path d="M17.3 11l-2.2-3.1s-.8 3.5.6 5.4c.2.3.5.5.8.5.6 0 1.1-.7 1.1-1.6 0-.5-.1-.9-.3-1.2z" fill="#FADCBC" fill-rule="nonzero"/><circle fill="#E0BB95" fill-rule="nonzero" cx="18.5" cy="12.1" r="6.1"/><path d="M16.7 14.4c-.2.9-1 1.4-1.9 1.2-.9-.2-1.4-1-1.2-1.9l3.1.7zm-1.4.3c.5.7.3 1.7-.5 2.2" fill="#7C5539" fill-rule="nonzero"/><path d="M18.6 11.6c.4-2 .1-3.9-.8-5.6-2.5.3-4.7 2.2-5.3 4.8-.5 2.4.5 4.7 2.3 6.1 1.8-1.1 3.3-3 3.8-5.3z" fill="#F33" fill-rule="nonzero"/><path d="M20.1 9.1c.8-.6 1.3-1.3 1.5-2.2-1-.7-2.4-.8-3.4 0-1 .7-1.4 1.8-1.2 2.9 1 .1 2.2-.1 3.1-.7z" fill="#F33" fill-rule="nonzero"/><path fill="#E0BB95" fill-rule="nonzero" d="M22.5 7.5l4.2 4.4h-2.4z"/><g fill-rule="nonzero"><path d="M22.7 10.5c0 .7-.6 1.2-1.2 1.2-.7 0-1.2-.6-1.2-1.2 0-.7.5-1.2 1.2-1.2.6 0 1.2.5 1.2 1.2z" fill="#332F2E"/><path d="M24.6 12.7h-4.3c0 1.5 1.3 3 2.6 3.5.9-.8 1.5-1.8 1.7-3.5z" fill="#FFF"/></g><g transform="translate(7)"><path fill="#F33" fill-rule="nonzero" d="M5.2 12.4L2.6 2.7l11.1 3z"/><path d="M5 12.3l9.5-5.8"/><path d="M5.4 14c-.5.1-1-.1-1.3-.5-.5-.6-.4-1.5.2-2l8.6-7c.6-.5 1.5-.4 2 .2.5.6.4 1.5-.2 2l-8.6 7c-.2.1-.4.2-.7.3z" fill="#FFF" fill-rule="nonzero"/><circle fill="#FFF" fill-rule="nonzero" cx="1.7" cy="1.6" r="1.4"/></g><path d="M19.5 12.2c-.1-.4-.3-.8-.6-1l-3.4-2.6s-.6 3.4 1.5 5c.3.2.7.4 1.2.3.8-.1 1.4-.9 1.3-1.7z" fill="#E0BB95" fill-rule="nonzero"/><path d="M78.9 88.3c-.1-1.6-16.2-2.4-36.1-1.7-19.9.7-36 2.6-35.9 4.2.1 1.6 16.2 2.4 36.1 1.7 19.9-.6 36-2.5 35.9-4.2z" fill="#000" fill-rule="nonzero" opacity=".2"/></g></svg>