<svg width="103" height="120" xmlns="http://www.w3.org/2000/svg"><g fill="none" fill-rule="evenodd"><circle fill="#EEE" fill-rule="nonzero" cx="17.9" cy="97.6" r="5.6"/><path d="M18 80.4C8.4 80.4.6 88.2.6 97.8c0 9.6 7.8 17.4 17.4 17.4 9.6 0 17.4-7.8 17.4-17.4 0-9.7-7.8-17.4-17.4-17.4zm0 31.7c-7.9 0-14.3-6.4-14.3-14.3S10.1 83.5 18 83.5s14.3 6.4 14.3 14.3-6.4 14.3-14.3 14.3z" fill="#212121" fill-rule="nonzero"/><circle fill="#EEE" fill-rule="nonzero" cx="85.5" cy="97.6" r="5.6"/><path d="M85.6 80.4c-9.6 0-17.4 7.8-17.4 17.4 0 9.6 7.8 17.4 17.4 17.4 9.6 0 17.4-7.8 17.4-17.4 0-9.7-7.8-17.4-17.4-17.4zm0 31.7c-7.9 0-14.3-6.4-14.3-14.3s6.4-14.3 14.3-14.3 14.3 6.4 14.3 14.3-6.4 14.3-14.3 14.3z" fill="#212121" fill-rule="nonzero"/><circle fill="#EEE" fill-rule="nonzero" cx="55.5" cy="93.1" r="7"/><path d="M25.4 65.3l2.5 11.3"/><path d="M27.9 77.7c-.5 0-1-.4-1.1-.9l-2.5-11.3c-.1-.6.3-1.2.9-1.3.6-.1 1.2.3 1.3.9L29 76.4c.1.6-.3 1.2-.9 1.3h-.2z" fill="#EEE" fill-rule="nonzero"/><path d="M55.4 93c-.2 0-.4 0-.5-.1L27 78.2c-.6-.3-.8-1-.5-1.5.3-.6 1-.8 1.5-.5l26.8 14.1 9.1-22.4c.2-.6.9-.9 1.5-.6.6.2.9.9.6 1.5l-9.6 23.6c-.1.3-.4.5-.7.6h-.3z" fill="#30A658" fill-rule="nonzero"/><path d="M64.9 69.4c-.6 0-1.1-.5-1.1-1.1V54.2l-11.4-5.5c-.6-.3-.8-.9-.5-1.5.3-.6.9-.8 1.5-.5l12 5.8c.4.2.6.6.6 1v14.8c.1.6-.4 1.1-1.1 1.1z" fill="#B9BDC3" fill-rule="nonzero"/><path d="M58.9 50.6l-6-2.9"/><path d="M58.9 52.8c-.3 0-.7-.1-1-.2l-6-2.9c-1.1-.5-1.6-1.9-1-3 .5-1.1 1.9-1.6 3-1l6 2.9c1.1.5 1.6 1.9 1 3-.3.8-1.1 1.2-2 1.2z" fill="#212121" fill-rule="nonzero"/><path d="M17.6 98.6c-.4 0-.7-.2-.9-.5-.2-.3-.3-.8-.1-1.2l9.8-20.2c.1-.3.4-.5.8-.6l37.5-8.9c.4-.1.9.1 1.2.4l20.2 28.6c.4.5.2 1.2-.3 1.6-.5.4-1.2.2-1.6-.3l-19.8-28-36.2 8.6-8.7 17.8 35.6-5.3c.6-.1 1.2.3 1.3 1 .1.6-.3 1.2-1 1.3l-37.7 5.6c.1.1 0 .1-.1.1z" fill="#30A658" fill-rule="nonzero"/><path d="M31.3 68.3H19.4c-1.7 0-3-1.3-3-3s1.3-3 3-3h11.9c1.7 0 3 1.3 3 3s-1.3 3-3 3z" fill="#333" fill-rule="nonzero"/><path d="M100.6 115.4c0-2.2-21.5-4-48-4-26.6 0-48 1.8-48 4s21.5 4 48 4c26.5-.1 48.1-1.8 48-4z" fill="#000" fill-rule="nonzero" opacity=".2"/><g transform="translate(16)" fill-rule="nonzero"><path d="M33.2 78.8c-.7 0-1.4-.4-1.9-1C23.4 65.1 11.3 60 11.2 60c-1.1-.5-1.6-1.7-1.2-2.8.5-1.1 1.7-1.7 2.8-1.2.5.2 13.5 5.6 22.2 19.6.6 1 .3 2.4-.7 3-.3.1-.7.2-1.1.2z" fill="#30A658"/><path d="M42.2 72.4c1.4 1.8 1.1 4.5-.7 5.9-1.4 1.1-3.5.9-4.6-.6L35 75.2l-3.4 2.7 5.9 7.5c.4.5 1.1.6 1.5.2l8.4-6.6c1.8-1.4 2.3-4 .9-5.9-1.5-1.8-4.2-2.1-6.1-.7z" fill="#332F2E"/><path d="M37.5 78.7l-1.3 1c-.5.4-1.2.3-1.5-.2-.4-.5-.3-1.2.2-1.5l1.3-1c.5-.4 1.2-.3 1.5.2.4.4.3 1.1-.2 1.5z" fill="#F8C329"/><path d="M25.9 85c-.9 0-1.8-.6-2.1-1.5C19.1 69.2 8.7 61.4 8.5 61.3c-1-.7-1.2-2.1-.5-3.1s2.1-1.2 3.1-.5c.5.3 11.7 8.7 16.8 24.3.4 1.1-.3 2.4-1.4 2.8-.2.2-.4.2-.6.2z" fill="#30A658"/><path d="M35.6 80.9c1 2.1 0 4.6-2.1 5.6-1.7.7-3.6 0-4.3-1.7l-1.3-2.9-4 1.8 3.9 8.7c.2.6.9.8 1.4.6l9.8-4.4c2.1-.9 3.1-3.4 2.3-5.5-.9-2.2-3.5-3.2-5.7-2.2z" fill="#332F2E"/><path d="M29.6 85.8l-1.5.7c-.6.2-1.2 0-1.4-.6-.2-.6 0-1.2.6-1.4l1.5-.7c.6-.2 1.2 0 1.4.6.2.6 0 1.1-.6 1.4z" fill="#F8C329"/><path fill="#30A658" d="M5.1 58l7.6 1.2.4-26.2z"/><path d="M8.1 63.5c3 .5 7.3-.3 8.3-6.4 1-6.2 5.7-7.4 6.7-13.4S21 32.1 13.4 30.9C5.8 29.7 1.1 34 .2 40c-1 6 3.1 8.7 2.1 14.8-1 6.1 2.9 8.2 5.8 8.7z" fill="#30A658"/><path d="M18.2 52.4L2.1 49.8c.4 1.4.5 2.9.3 4.8l14.1 2.3c.3-1.9.9-3.3 1.7-4.5z" fill="#332F2E"/><path fill="#F8C329" d="M15.53 56.711l.754-4.639 1.875.305-.753 4.639z"/><circle fill="#584539" cx="14.9" cy="21.6" r="9.3"/><path d="M20.9 19.9c-.2 1-1.1 1.7-2.2 1.6-1-.2-1.7-1.1-1.6-2.2.2-1 1.1-1.7 2.2-1.6 1.1.2 1.8 1.2 1.6 2.2z" fill="#332F2E"/><path d="M21.6 15.1c-5.7-5.6-9.8-.6-12.2 3.9 4.4 2.4 9.7.6 12.2-3.9z" fill="#B71C1C"/><path d="M14.3 12.3c-6.3.5-11.3 7.5-7.5 14 6.1-1.8 9.4-7.9 7.5-14z" fill="#B71C1C"/><g transform="translate(8 32)"><path d="M23.1 17.6c-.4 0-.8-.1-1.2-.3L1.4 4.2c-1-.7-1.3-2-.7-3 .7-1 2-1.3 3-.7l20.5 13.1c1 .7 1.3 2 .7 3-.3.6-1 1-1.8 1z" fill="#30A658"/><circle fill="#584539" cx="27.1" cy="17.9" r="4.7"/><path d="M26.5 10.2c-1-.7-2.4-.4-3 .7l-4.3 6.6c-.7 1-.4 2.4.7 3 1 .7 2.4.4 3-.7l4.3-6.6c.6-1 .3-2.3-.7-3z" fill="#FFF"/></g><g transform="translate(3)"><path fill="#31A657" d="M2.8 19.4l.4-15.3 14.9 9.3z"/><path d="M2.4 21.8c-.7-.1-1.4-.6-1.7-1.3-.5-1.1.1-2.4 1.2-2.8l15.6-6.4c1.1-.5 2.4.1 2.8 1.2.5 1.1-.1 2.4-1.2 2.8L3.5 21.7c-.3.1-.7.2-1.1.1z" fill="#FFF"/><circle fill="#FFF" cx="2.4" cy="2.2" r="2.2"/></g><path fill="#584539" d="M22.6 16.4l4.6 7.6-3.6-.6z"/><path d="M23.8 24.4l-5.9-.9c-.4 2.3.9 4.3 2.8 5.4 1.5-1.1 2.6-2.6 3.1-4.5z" fill="#FFF"/><path d="M15.3 19.9l-3.9-5.5s-2.5 4.9-.1 8.4c.4.5.9.9 1.6 1 1.3.2 2.6-.7 2.8-2 .1-.7 0-1.4-.4-1.9z" fill="#584539"/></g></g></svg>