<svg width="48" height="69" xmlns="http://www.w3.org/2000/svg"><g fill="none"><path d="M4.3 68.8c-1 0-2-.2-3.1-.4-.8-.2-1.2-1.1-1-1.8.2-.8 1.1-1.2 1.8-1 2.2.7 4.5.3 6.5-.9l25.4-16.5c.7-.4 1.6-.2 2 .4.5.7.2 1.6-.5 2L10.2 67.1c-1.8 1.1-3.8 1.7-5.9 1.7z" fill="#603813"/><path d="M10.8 68.8c-1 0-2-.2-3.1-.4-.8-.2-1.2-1.1-1-1.8.2-.8 1.1-1.2 1.8-1 2.2.7 4.5.3 6.5-.9l25.4-16.5c.7-.4 1.6-.2 2 .4.5.7.2 1.6-.5 2L16.5 67.1c-1.6 1.1-3.6 1.7-5.7 1.7z" fill="#754C24"/><path d="M5.7 28.2c-.8-.1-1.5.5-1.6 1.3L3.8 33c-.1.8.5 1.5 1.3 1.6.8.1 1.5-.5 1.6-1.3l.3-3.5c.1-.8-.5-1.5-1.3-1.6z" fill="#332F2E"/><path d="M5.5 31.3c-.4 0-.8.3-.8.7L2.4 59.2c0 .4.3.8.7.8.4 0 .8-.3.8-.7l2.3-27.2c0-.4-.3-.8-.7-.8z" fill="#332F2E"/><path d="M4.7 60.3c-.1 0-.1 0 0 0L1.4 60c-.5 0-.9-.5-.8-1 0-.5.5-.9 1-.8l3.2.3c.5 0 .9.5.8 1-.1.4-.5.8-.9.8z" fill="#000"/><path d="M13.4 37.7c-1.9 0-4-.5-6.3-1.4-.8-.3-1.2-1.3-.8-2.1.3-.8 1.3-1.2 2.1-.8 3.4 1.5 6.5 1.6 8.1.2 1.1-.9 1.5-2.5 1.1-4.5-.2-.9.4-1.7 1.2-1.9.9-.2 1.7.4 1.9 1.2.3 1.5.3 3 0 4.3-.4 1.3-1.1 2.4-2.1 3.3-1.5 1.2-3.2 1.7-5.2 1.7z" fill="#9D0E9D"/><path d="M4.6 36.8c1.9 0 3.4-1.5 3.4-3.3 0-1.8-1.5-3.3-3.4-3.3s-3.4 1.5-3.4 3.3c.1 1.9 1.6 3.3 3.4 3.3z" fill="#BF8F68"/><path d="M8.1 37.8c-.5.5-1.2.7-1.8.4-.8-.3-1.2-1.3-.8-2.1l1.7-3.9c.3-.8 1.3-1.2 2.1-.8.8.3 1.2 1.3.8 2.1l-1.7 3.9c-.1.2-.2.3-.3.4z" fill="#E6F8FC"/><path d="M20.5 48.3l-3 1.9c-2.5-3.8-1.4-8.9 2.4-11.4l1.9 3c-2.1 1.4-2.7 4.3-1.3 6.5z" fill="#9D0E9D"/><path d="M13.4 55.1c1 1.6 3.1 2 4.7 1 1.2-.8 1.6-2.4.8-3.7l-1.4-2.1 3-1.9 4.2 6.4c.3.4.2 1-.2 1.2l-7.3 4.7c-1.6 1-3.7.7-4.7-.9-1.2-1.5-.7-3.7.9-4.7z" fill="#000"/><path d="M19.4 53.1l1.1-.7c.4-.3.5-.8.2-1.2-.3-.4-.8-.5-1.2-.2l-1.1.7c-.4.3-.5.8-.2 1.2.2.4.8.5 1.2.2z" fill="#00C1F2"/><path d="M26.4 48.7l-3 1.9c-2.5-3.8-1.4-8.9 2.4-11.4l1.9 3c-2.2 1.4-2.8 4.3-1.3 6.5z" fill="#9D0E9D"/><path d="M19.2 55.5c1 1.6 3.2 2 4.7 1 1.2-.8 1.6-2.4.8-3.7l-1.4-2.1 3-1.9 4.3 6.4c.3.4.2 1-.2 1.2l-7.3 4.7c-1.6 1-3.7.7-4.7-.9-1.2-1.5-.8-3.7.8-4.7z" fill="#332F2E"/><path d="M25.3 53.5l1.1-.7c.4-.3.5-.8.2-1.2-.3-.4-.8-.5-1.2-.2l-1.1.7c-.4.3-.5.8-.2 1.2.2.4.8.5 1.2.2z" fill="#00C1F2"/><path d="M18.4 40.3l-2.2-3.4c-2-3-1.3-7 1.6-9.2 3.1-2.3 7.5-1.5 9.6 1.8l2.3 3.5c2 3.1 1.1 7.2-2 9.3-3.1 2-7.3 1.1-9.3-2z" fill="#9D0E9D"/><path fill="#332F2E" d="M19.2 41.5l11.3-7.3-1.8-2.8-11.3 7.3z"/><path d="M19.2 41.5l2.8-1.8-1.8-2.8-2.8 1.8 1.8 2.8zm-5.4-8.9c-.7 0-1.4-.3-1.8-1-.7-1-.4-2.4.6-3.1l8.5-5.7c1-.7 2.4-.4 3.1.6.7 1 .4 2.4-.6 3.1l-8.5 5.8c-.4.2-.8.3-1.3.3z" fill="#00C1F2"/><path d="M25.5 35.3c-1.7 0-3.4-.4-4.7-1.2-1.2-.7-2.2-1.8-2.9-3.1-.7-1.4-1-2.9-.7-4.3.2-.9.9-1.7 1.9-1.8 1-.1 1.9.4 2.3 1.3.2.4 1 .7 1.7.6.9-.2 1.7-.9 2.4-2s1.1-2.4 1.6-3.9l.1-.2c.6-1.8 1.1-3.5 2.2-5.1.7-1 2.1-1.3 3.1-.6 1 .7 1.3 2.1.6 3.1-.7 1.1-1.2 2.4-1.7 3.9v.2c-.5 1.6-1 3.3-2 4.9-1.1 1.8-2.7 3.1-4.4 3.7.7.1 1.5 0 2.2-.2 1.7-.4 3.3-1.3 4.7-2.2.4-.3.9-.6 1.3-.8 1.3-.8 2.6-1.7 4-2.4 1.1-.5 2.5-.1 3 1s.1 2.4-1 3c-1.2.6-2.3 1.3-3.5 2.1-.5.3-.9.6-1.3.9-1.7 1.1-3.7 2.2-6 2.8-1.1.2-2.1.3-2.9.3z" fill="#00C1F2"/><path d="M14.4 28.6c3.7 0 6.8-3 6.8-6.7s-3-6.7-6.8-6.7v13.4z" fill="#BF8F68"/><path d="M14.6 15.2c-3.7 0-6.8 3-6.8 6.7s3 6.7 6.8 6.7V15.2z" fill="#BF8F68"/><path d="M20.8 24.1c1.4-1.2.8-4.2-1.3-6.6-2.1-2.4-4.9-3.4-6.4-2.2-1.4 1.2-.8 4.2 1.3 6.6 2.1 2.4 5 3.4 6.4 2.2z" fill="#332F2E"/><path fill="#BF8F68" d="M8.1 20.5l-1.4 6.6L9 25.6l-.9-5.1z"/><path d="M9.2 26.2l3.7-2.4c.9 1.5.9 3.3-.1 4.6-1.4-.3-2.6-1-3.6-2.2zm4.2-21c1.3 0 2.3-1 2.3-2.3 0-1.3-1-2.3-2.3-2.3-1.3 0-2.3 1-2.3 2.3-.1 1.3 1 2.3 2.3 2.3z" fill="#E6F8FC"/><path fill="#9D0E9D" d="M7.5 19l6-13.7 7.4 13z"/><path d="M22 19.9c.6-.4.9-1 .9-1.8 0-1.1-1-1.9-2.1-1.9l-13.5.7c-1.1 0-1.9 1-1.9 2.1s1 1.9 2.1 1.9l13.5-.7c.4 0 .7-.1 1-.3z" fill="#E6F8FC"/><path d="M13.9 20.6l1-4.8s3.1 2.5 2.5 5.5c-.1.4-.4.9-.8 1.1-.8.5-1.9.3-2.5-.5-.2-.4-.2-.8-.2-1.3z" fill="#BF8F68"/><path d="M9.3 23.8c-.5-.7-.3-1.8.5-2.2.7-.5 1.8-.3 2.2.5l-.5.3c-.3-.5-1-.7-1.5-.3-.5.3-.7 1-.3 1.5l-.4.2zm8.5 12.3c-.3-.7 0-1.6.8-1.9l3.3-1.4c.7-.3 1.6 0 1.9.8.3.7 0 1.6-.8 1.9l-3.3 1.4c-.7.2-1.6-.1-1.9-.8z" fill="#332F2E"/><path d="M20.6 34.8c-.2-.4 0-.8.4-1L46.2 23c.4-.2.8 0 1 .4.2.4 0 .8-.4 1L21.6 35.2c-.4.2-.8 0-1-.4z" fill="#332F2E"/><path d="M47.1 26c-.3 0-.7-.2-.8-.5L45 22.6c-.2-.4 0-1 .5-1.2.4-.2 1 0 1.2.4l1.3 2.9c.2.4 0 1-.5 1.2-.1.1-.2.1-.4.1z" fill="#000"/><path d="M22.5 36.7c1.9 0 3.4-1.5 3.4-3.3 0-1.8-1.5-3.3-3.4-3.3s-3.4 1.5-3.4 3.3c0 1.8 1.6 3.3 3.4 3.3z" fill="#BF8F68"/><path d="M24.8 32.5c-.5 0-1-.2-1.3-.7-.5-.7-.4-1.7.3-2.2 1.5-1.1 2.2-1.7 3.5-2.8l.2-.2c.7-.6 1.7-.4 2.2.2.6.7.5 1.7-.2 2.2l-.2.2c-1.3 1.1-2.1 1.7-3.7 2.9-.1.3-.4.4-.8.4z" fill="#9D0E9D"/><path d="M24 28.1c-.6-.3-1.4-.2-1.8.3-.6.6-.6 1.6 0 2.2l3.1 2.9c.6.6 1.6.6 2.2 0 .6-.6.6-1.6 0-2.2l-3.1-2.9c-.1-.2-.3-.2-.4-.3z" fill="#E6F8FC"/></g></svg>