<svg width="58" height="67" xmlns="http://www.w3.org/2000/svg"><g fill="none"><path d="M4.3 64.3c-1-.2-1.9-.7-2.9-1.1-.7-.4-.9-1.4-.5-2 .4-.7 1.4-.9 2-.5 2 1.2 4.3 1.4 6.5.7l28.6-10c.8-.2 1.6.2 1.8.9.3.8-.2 1.6-1 1.8L10.4 64.2c-2 .5-4.1.6-6.1.1z" fill="#603813"/><path d="M10.6 65.9c-1-.2-1.9-.7-2.9-1.1-.7-.4-.9-1.4-.5-2 .4-.7 1.4-.9 2-.5 2 1.2 4.3 1.4 6.5.7l28.6-10c.8-.2 1.6.2 1.8.9.3.8-.2 1.6-1 1.8l-28.6 10c-1.8.5-3.9.7-5.9.2z" fill="#754C24"/><path d="M15.2 25.2c-.8-.3-1.6.1-1.9.9l-1.1 3.3c-.3.8.1 1.6.9 1.9.8.3 1.6-.1 1.9-.9l1.1-3.3c.3-.8-.1-1.6-.9-1.9z" fill="#332F2E"/><path d="M14.3 28.2c-.4-.1-.8.1-.9.5L4.7 54.6c-.1.4.1.8.5.9.4.1.8-.1.9-.5l8.7-25.9c.1-.4-.1-.8-.5-.9z" fill="#332F2E"/><path d="M6.7 56.2c-.1-.1-.1-.1 0 0l-3.1-1.1c-.5-.1-.8-.7-.5-1.2.1-.5.7-.8 1.2-.5l3 1c.5.1.8.7.5 1.2-.3.4-.7.6-1.1.6z" fill="#000"/><path d="M20.5 36.3c-1.8-.4-3.8-1.4-5.8-2.9-.7-.5-.9-1.5-.3-2.2.5-.7 1.5-.9 2.2-.3 2.9 2.3 5.9 3.1 7.8 2.1 1.3-.6 2-2.1 2.1-4.1 0-.9.8-1.6 1.6-1.6.9 0 1.6.8 1.6 1.6-.1 1.5-.4 3-1 4.2-.7 1.2-1.6 2.1-2.8 2.7-1.7.8-3.5.9-5.4.5z" fill="#F73"/><path d="M12.1 33.3c1.8.4 3.7-.7 4.1-2.4.4-1.7-.7-3.6-2.5-4-1.8-.4-3.7.7-4.1 2.4-.3 1.9.8 3.6 2.5 4z" fill="#BF8F68"/><path d="M15.3 35.1c-.6.4-1.3.4-1.8 0-.7-.5-.9-1.5-.3-2.2l2.6-3.4c.5-.7 1.5-.9 2.2-.3.7.5.9 1.5.3 2.2l-2.6 3.4c-.2.2-.3.2-.4.3z" fill="#E6F8FC"/><path d="M24.9 48.2l-3.4 1.1c-1.5-4.3.7-9 5-10.5l1.1 3.4c-2.3.9-3.6 3.6-2.7 6z" fill="#F73"/><path d="M16.4 53.2c.6 1.8 2.5 2.7 4.3 2.1 1.4-.5 2.1-2 1.7-3.4l-.9-2.4 3.4-1.1 2.6 7.2c.2.5 0 1-.5 1.1l-8.2 2.8c-1.8.6-3.8-.2-4.4-2-.8-1.7.2-3.7 2-4.3z" fill="#000"/><path d="M22.7 52.6l1.2-.4c.5-.2.7-.7.5-1.1-.2-.5-.7-.7-1.1-.5L22 51c-.5.2-.7.7-.5 1.1.1.5.7.7 1.2.5z" fill="#F9CE1D"/><path d="M30.5 50l-3.4 1.1c-1.5-4.3.7-9 5-10.5l1.1 3.4c-2.4.9-3.6 3.5-2.7 6z" fill="#F73"/><path d="M21.9 54.9c.6 1.8 2.6 2.7 4.3 2.1 1.4-.5 2.1-2 1.7-3.4l-.9-2.4 3.4-1.1 2.7 7.2c.2.5 0 1-.5 1.1l-8.2 2.8c-1.8.6-3.8-.2-4.4-2-.8-1.6.1-3.7 1.9-4.3z" fill="#332F2E"/><path d="M28.3 54.4l1.2-.4c.5-.2.7-.7.5-1.1-.2-.5-.7-.7-1.1-.5l-1.2.4c-.5.2-.7.7-.5 1.1.1.5.6.7 1.1.5z" fill="#F9CE1D"/><path d="M24.7 40l-1.3-3.8c-1.2-3.4.4-7.1 3.7-8.6 3.6-1.5 7.6.3 8.9 4l1.4 3.9c1.2 3.5-.6 7.3-4.1 8.6-3.5 1.2-7.4-.6-8.6-4.1z" fill="#F73"/><path fill="#332F2E" d="M25.2 41.3l12.7-4.4-1.1-3.1-12.7 4.4z"/><path d="M25.2 41.3l3.1-1.1-1.1-3.1-3.1 1.1 1.1 3.1zm-3.1-9.9c-.7-.2-1.3-.6-1.5-1.4-.4-1.1.2-2.4 1.3-2.9l9.6-3.5c1.1-.4 2.4.2 2.9 1.3.4 1.1-.2 2.4-1.3 2.9l-9.6 3.6c-.5.1-.9.1-1.4 0z" fill="#F9CE1D"/><path d="M32.8 36.8c-1.7-.4-3.2-1.2-4.3-2.3-1-1-1.7-2.3-2.1-3.7-.3-1.5-.3-3.1.3-4.3.4-.8 1.3-1.4 2.3-1.3 1 .1 1.8.8 1.9 1.8.1.4.8.9 1.5 1 .9 0 1.9-.5 2.8-1.4.9-.9 1.6-2.1 2.5-3.4l.1-.2c1-1.6 1.9-3.1 3.3-4.4.9-.8 2.3-.8 3.2.2.8.9.8 2.3-.2 3.2-.9.9-1.7 2-2.6 3.4v.2c-.9 1.4-1.8 3-3.1 4.3-1.5 1.5-3.4 2.4-5.2 2.6.7.3 1.5.4 2.2.3 1.7 0 3.5-.5 5.1-1 .5-.2 1-.4 1.5-.5 1.5-.5 2.9-1 4.5-1.4 1.2-.2 2.5.5 2.7 1.7.2 1.2-.5 2.4-1.7 2.7-1.3.3-2.5.7-3.9 1.2-.6.2-1 .4-1.5.6-1.9.7-4.1 1.3-6.5 1.3-1-.3-2-.4-2.8-.6z" fill="#F9CE1D"/><path d="M23.6 27.7c3.6.9 7.3-1.3 8.2-4.9.9-3.6-1.3-7.2-5-8.1-3.6-.9-7.2 1.3-8.1 4.9-.9 3.5 1.3 7.2 4.9 8.1z" fill="#BF8F68"/><path d="M30.9 24.8c1.6-.8 1.8-3.9.3-6.7-1.5-2.8-4-4.5-5.7-3.7-1.6.8-1.8 3.9-.3 6.7 1.5 2.9 4 4.5 5.7 3.7z" fill="#332F2E"/><path fill="#BF8F68" d="M19.1 18.2l-2.9 6.1 2.6-.9.3-5.2z"/><path d="M19.1 24.1l4.2-1.5c.5 1.7.1 3.4-1.2 4.4-1.3-.5-2.3-1.5-3-2.9zm9.1-19.4c1.3.3 2.5-.4 2.8-1.7.3-1.3-.4-2.5-1.7-2.8-1.3-.3-2.5.4-2.8 1.7-.4 1.2.4 2.5 1.7 2.8z" fill="#E6F8FC"/><path fill="#F73" d="M19.2 16.7l9.1-11.9 4.1 14.4z"/><path d="M33 21c.7-.2 1.1-.8 1.3-1.5.3-1.1-.5-2.1-1.6-2.3l-13.3-2.5c-1.1-.3-2.1.5-2.3 1.6-.3 1.1.5 2.1 1.6 2.3L32 21.1c.4 0 .7 0 1-.1z" fill="#E6F8FC"/><path d="M25 19.8l2.1-4.4s2.4 3.2 1.1 5.9c-.2.4-.6.8-1 .9-.9.3-1.9-.2-2.3-1.1-.1-.5 0-.9.1-1.3z" fill="#BF8F68"/><path d="M19.8 21.8c-.3-.8.1-1.8 1-2 .8-.3 1.8.1 2 1l-.6.2c-.2-.6-.8-.9-1.4-.6-.6.2-.9.8-.6 1.4h-.4zm5.3 13.9c-.1-.8.4-1.6 1.2-1.7l3.5-.6c.8-.1 1.6.4 1.7 1.2.1.8-.4 1.6-1.2 1.7l-3.5.6c-.7.1-1.5-.4-1.7-1.2z" fill="#332F2E"/><path d="M28.2 35.1c-.1-.4.2-.8.6-.9l27-4.5c.4-.1.8.2.9.6.1.4-.2.8-.6.9l-27 4.5c-.5.2-.8-.1-.9-.6z" fill="#332F2E"/><path d="M56 32.9c-.3-.1-.6-.4-.7-.7l-.6-3.1c-.1-.4.2-1 .8-1 .4-.1 1 .2 1.1.7l.6 3.1c.1.4-.2 1-.8 1H56z" fill="#000"/><path d="M29.6 37.4c1.8.4 3.7-.7 4.1-2.4.4-1.7-.7-3.6-2.5-4-1.8-.4-3.7.7-4.1 2.4-.5 1.8.7 3.6 2.5 4z" fill="#BF8F68"/><path d="M32.8 33.9c-.5-.1-.9-.4-1.1-1-.3-.8 0-1.7.8-2.1 1.7-.7 2.5-1.1 4.1-1.9l.2-.1c.8-.4 1.7 0 2.1.7.4.8.1 1.8-.7 2.1l-.2.1c-1.5.8-2.4 1.2-4.3 1.9-.2.4-.5.4-.9.3z" fill="#F73"/><path d="M33 29.4c-.5-.4-1.3-.5-1.8-.1-.7.4-1 1.4-.5 2.1L33 35c.4.7 1.4 1 2.1.5.7-.4 1-1.4.5-2.1l-2.3-3.6c0-.2-.2-.2-.3-.4z" fill="#E6F8FC"/></g></svg>