<svg version="1.1" id="Layer_1" xmlns="http://www.w3.org/2000/svg" x="0" y="0" viewBox="0 0 120.9 188.78" xml:space="preserve"><style>.st0{fill:#774e2e}.st1{fill:#ee3d3a}.st2{fill:#fff}.st3{fill:#9b643d}.st4{fill:#f9ce1d}.st5{fill:#332e2e}.st6{fill:#99633c}.st8{fill:#f58b37}</style><g transform="translate(1039 757)"><path class="st0" d="M-941.3-672.22c1.2-7.3-2.7-14.7-9.8-17.7-7.2-3-15.3-.4-19.6 5.7-4.7 1.6-8 6.1-8 11.3 0 6.6 5.4 12 12 12 1.4 0 2.7-.2 4-.7 2 4 6 6.7 10.7 6.7 6.6 0 12-5.4 12-12 0-1.9-.5-3.7-1.3-5.3z"/><path class="st1" d="M-964.8-618.02c2.04-1.2 8.23-5.18 11.6-13.3 3.49-8.41 1.72-15.87 1.1-18.1 8.3-.7 14.8-3.8 19.3-9.3 6-7.6 7.9-19.6 5-32.2-.4-2-2.4-3.3-4.4-2.8-2 .4-3.3 2.4-2.8 4.4 1.9 8 1.9 19-3.7 25.8-3.7 4.6-9.6 6.9-17.5 6.8-1.8-2.1-4-3.8-6.6-4.8-3.3-1.4-6.7-1.6-10.1-1-10.6-13.4-16.8-35-9.6-45.6 1.1-1.7.7-4-1-5.1s-4-.7-5.1 1c-9 13.3-3 36.8 8.5 52.5-2.23 1.44-7.7 5.4-10.7 12.8-4.43 10.92-.01 20.78.8 22.5 1 1.36 4.61 5.9 11.25 7.66 6.89 1.82 12.46-.56 13.95-1.26z"/><path class="st1" d="M-942.7-675.82l-2.1-29.2-22.2 19.2 24.3 10z"/><path class="st2" d="M-945.7-670.22c-1.5-.6-2.5-2.2-2.4-3.9.4-4.1-1.9-7.8-5.7-9.4-3.8-1.6-8.1-.5-10.7 2.6-1.4 1.6-3.8 1.8-5.4.5-1.6-1.4-1.8-3.8-.5-5.4 4.8-5.7 12.6-7.7 19.5-4.8s11.1 9.8 10.4 17.2c-.2 2.1-2.1 3.7-4.2 3.5-.3 0-.6-.1-1-.3z"/><circle class="st3" cx="-945.2" cy="-669.92" r="3.5"/><path class="st3" d="M-943.8-666.72c5.5-2.3 6.1-10 6.1-10l-8.8 3.6 2.7 6.4z"/><circle class="st3" cx="-969.4" cy="-679.92" r="3.5"/><path class="st3" d="M-972.6-678.62c-2.3-5.5 2.8-11.4 2.8-11.4l3.6 8.8-6.4 2.6z"/><path class="st4" d="M-947.1-661.62c-.5 0-.9-.1-1.4-.3-1.8-.8-2.7-2.9-2-4.7l.9.4c-.3.7-.3 1.4 0 2.1.3.7.8 1.2 1.5 1.5 1.4.6 2.9-.1 3.5-1.5.3-.7.3-1.4 0-2.1-.3-.7-.8-1.2-1.5-1.5l.4-.9c.9.4 1.6 1.1 2 2s.4 1.9 0 2.8c-.7 1.4-2 2.2-3.4 2.2zm-24.3-10c-.5 0-.9-.1-1.4-.3-1.8-.8-2.7-2.9-2-4.7.8-1.8 2.9-2.7 4.7-2l-.4.9c-1.4-.6-2.9.1-3.5 1.5s.1 2.9 1.5 3.5c.7.3 1.4.3 2.1 0s1.2-.8 1.5-1.5l.9.4c-.4.9-1.1 1.6-2 2-.4.1-.9.2-1.4.2z"/><circle class="st3" cx="-957.3" cy="-674.92" r="14.4"/><path class="st5" d="M-958.3-679.42c-.6 1.4-2.1 2-3.5 1.4s-2-2.1-1.4-3.5 2.1-2 3.5-1.4c1.3.6 2 2.2 1.4 3.5zm9.8 4.1c-.6 1.4-2.1 2-3.5 1.4s-2-2.1-1.4-3.5 2.1-2 3.5-1.4c1.3.6 1.9 2.1 1.4 3.5z"/><path class="st2" d="M-950.5-670.42c-1.7 4.1-6.3 6-10.4 4.3-4.1-1.7-6-6.3-4.3-10.4l14.7 6.1z"/><path class="st0" d="M-941.3-683.22c0 2.3-1.8 4.1-4.1 4.1-2 0-3.6-1.4-4-3.2-.7.3-1.5.4-2.3.4-2.6 0-4.9-1.6-6-3.8-.6.4-1.3.6-2.1.6-2.3 0-4.1-1.8-4.1-4.1s1.8-4.1 4.1-4.1c1 0 2 .4 2.7 1 1.2-1.7 3.2-2.8 5.4-2.8 3.6 0 6.6 3 6.6 6.6 0 .4 0 .8-.1 1.2 2.2.1 3.9 1.9 3.9 4.1z"/><g transform="translate(53 36)"><circle class="st6" cx="-1033.2" cy="-750.82" r="6.1"/><circle class="st6" cx="-986" cy="-734.02" r="6.1"/></g><path class="st2" d="M-923.1-693.32c-.3-1.7-1.9-2.8-3.6-2.5l-10.9 2.1c-1.7.3-2.8 1.9-2.5 3.6.3 1.7 1.9 2.8 3.6 2.5l10.9-2.1c1.7-.3 2.8-1.9 2.5-3.6zm-55.2-15.7l-7.6-8.1c-1.2-1.2-3.1-1.3-4.3-.1s-1.3 3.1-.1 4.3l7.6 8.1c1.2 1.2 3.1 1.3 4.3.1 1.2-1.1 1.3-3.1.1-4.3z"/><path class="st5" d="M-990.9-646.82l-1.5 3.9 37.3 15.5c.6-1.2 1.2-2.5 1.7-3.8.3-.8.6-1.5.9-2.3l-37.5-15.5c-.3.6-.6 1.4-.9 2.2z"/><path class="st4" d="M-976.8-636.52l2.5-6.1 6.1 2.5-2.5 6.1-6.1-2.5z"/><path d="M-921.7-712.02c-7.9 14.9-26.4 20.5-41.3 12.6-10.6-5.6-16.5-16.6-16.2-27.9.1-4.6 1.3-9.2 3.6-13.5 7.9-14.9 26.4-20.5 41.3-12.6 6.9 3.7 11.8 9.6 14.3 16.3 2.9 8 2.6 17.1-1.7 25.1z" fill="#dbf3fb"/><path class="st2" d="M-920-737.02c-.1 4.6-1.3 9.2-3.6 13.5-7.9 14.9-26.4 20.5-41.3 12.6-6.9-3.7-11.8-9.6-14.3-16.3.1-4.6 1.3-9.2 3.6-13.5 7.9-14.9 26.4-20.5 41.3-12.6 6.9 3.6 11.8 9.5 14.3 16.3z"/><path class="st8" d="M-947.1-729.22l-21.2-4.5 17.6 11.2 3.6-6.7z"/><path class="st8" d="M-950.7-721.12c-.3 0-.5-.1-.8-.2l-17.6-11.2c-.6-.4-.8-1.1-.5-1.7.3-.6.9-1 1.6-.8l21.2 4.5c.4.1.8.4 1 .8.2.4.2.9 0 1.2l-3.6 6.8c-.2.3-.5.6-.9.7-.2-.1-.3-.1-.4-.1zm-10.4-9.7l9.8 6.3 2-3.8-11.8-2.5z"/><path d="M-931.9-727.62c-.4.8-1.8.9-3 .3-1.2-.6-1.8-1.8-1.4-2.6.4-.8 1.7-1 3-.3 1.2.6 1.8 1.8 1.4 2.6zm-26.1-15.8c-1.2-.6-2.6-.5-3 .3s.2 2 1.4 2.6 2.6.5 3-.3c.4-.8-.2-2-1.4-2.6z" fill="#7c6959"/></g></svg>