<svg version="1.1" id="Layer_1" xmlns="http://www.w3.org/2000/svg" x="0" y="0" viewBox="0 0 69.21 95.9" xml:space="preserve"><style>.st0{fill:#f33}.st1{fill:#332e2e}.st3{fill:#bf8f68}.st4{fill:#fff}.st5{fill:#f5be1a}</style><path class="st0" d="M44.9 95.9c-1.5 0-2.7-1.2-2.7-2.7V68.3c0-1.5 1.2-2.7 2.7-2.7s2.7 1.2 2.7 2.7v24.9c0 1.5-1.2 2.7-2.7 2.7z"/><ellipse transform="rotate(-16.219 38.9 56.5)" class="st0" cx="38.9" cy="56.5" rx="14.8" ry="17.8"/><path class="st0" d="M37.8 69.3l8.9-2.6-12-24.6 3.1 27.2z"/><path class="st1" d="M24.7 60.7c.3 1 .6 1.9.9 2.9l28.3-8.2c-.2-1-.5-1.9-.7-2.9-.2-.6-.3-1.1-.5-1.7l-28.5 8.3c.1.4.3 1 .5 1.6z"/><path d="M36.1 55.5l4.6-1.3 1.3 4.6-4.6 1.3-1.3-4.6z" fill="#f9ce1d"/><path class="st0" d="M63.1 52.7c-1.2 0-2.2-.8-2.6-1.9-1.5-5-4.2-11-5.6-12.2-1.6-.1-7 1.8-10.7 3.1-2.9 1-5.9 2.1-8.8 2.9-1.4.4-2.9-.4-3.3-1.8-.4-1.4.4-2.9 1.8-3.3 2.7-.8 5.6-1.8 8.5-2.8 8-2.8 12.3-4.3 14.9-2.9 1.1.6 2.8 1.9 5.2 7.1 1.4 3.1 2.6 6.4 3.2 8.4.4 1.4-.4 2.9-1.8 3.3-.3.1-.6.1-.8.1z"/><circle class="st3" cx="64.4" cy="54.6" r="4.8"/><path class="st4" d="M69.1 48.2c-.3-1.2-1.6-1.9-2.8-1.5L58.5 49c-1.2.3-1.9 1.6-1.5 2.8.4 1.2 1.6 1.9 2.8 1.5l7.8-2.3c1.2-.3 1.9-1.6 1.5-2.8z"/><path class="st0" d="M14.4 51.6c-.5 0-1-.1-1.4-.2-3.3-1.1-5.2-5.8-7.5-12.4-.5-1.3-.9-2.6-1.3-3.5-.6-1.4 0-3 1.4-3.5 1.4-.6 3 0 3.5 1.4.4 1 .9 2.3 1.4 3.8.9 2.4 2.8 8 4.1 9 2.3 0 11.4-3.4 18.9-6.7 1.4-.6 3 0 3.6 1.4s0 3-1.4 3.6c-7.5 3.4-16.9 7.1-21.3 7.1z"/><circle class="st3" cx="4.8" cy="30.1" r="4.8"/><path class="st4" d="M12.5 32c-.5-1.1-1.8-1.7-3-1.2L2 34C.9 34.5.3 35.8.8 37c.5 1.1 1.8 1.7 3 1.2l7.5-3.2c1.2-.5 1.7-1.8 1.2-3z"/><path class="st0" d="M35.6 95.9c-1.5 0-2.7-1.2-2.7-2.7V68.3c0-1.5 1.2-2.7 2.7-2.7s2.7 1.2 2.7 2.7v24.9c0 1.5-1.2 2.7-2.7 2.7z"/><circle class="st4" cx="23.4" cy="3.3" r="3.3"/><path class="st0" d="M38.9 22.2L24.4 6.5l-3.9 21 18.4-5.3z"/><path class="st4" d="M39.8 26.7c-1.1.3-2.4-.1-3.1-1.1-1.6-2.5-4.7-3.6-7.5-2.8s-4.8 3.4-4.9 6.4c0 1.6-1.3 2.8-2.9 2.8s-2.8-1.3-2.8-2.9c.1-5.4 3.7-10.1 8.9-11.6s10.8.5 13.8 5c.9 1.3.5 3-.8 3.9-.2.1-.5.3-.7.3z"/><path class="st3" d="M41.3 19.4L38 25.5c-.3.6-.4 1.3-.2 1.9.4 1.3 1.8 2.1 3.1 1.7.7-.2 1.2-.6 1.5-1.2 2.1-3.8-1.1-8.5-1.1-8.5zM23 29.8l-6.1-3.3s-.2 5.7 3.6 7.8c.6.3 1.3.4 1.9.2 1.3-.4 2.1-1.8 1.7-3.1 0-.8-.5-1.3-1.1-1.6z"/><circle class="st3" cx="31" cy="29.3" r="10.5"/><path class="st1" d="M28.4 27.3c.3 1-.3 2.1-1.3 2.4-1 .3-2.1-.3-2.4-1.3S25 26.3 26 26c1-.4 2.1.2 2.4 1.3zm7.4-2.2c.3 1-.3 2.1-1.3 2.4-1 .3-2.1-.3-2.4-1.3-.3-1 .3-2.1 1.3-2.4 1-.3 2.1.3 2.4 1.3z"/><path class="st4" d="M36.9 28.8c.9 3.1-.9 6.3-4 7.2s-6.3-.9-7.2-4l11.2-3.2z"/><path class="st5" d="M31.8 30c-.3-.5-.8-.8-1.3-.9-.6-.1-1.2.1-1.6.4-.6.5-.8 1.2-1.4 1.7-.8.7-2.2.9-3 .3-.1 1 .3 1.8 1.2 2.4 1.3.8 3.2.8 4.6-.1 1.3-.8 2.3-2.5 1.5-3.8z"/><path class="st5" d="M30.7 30.4c0-.5.2-1.1.7-1.4.4-.4 1-.6 1.6-.5.7.1 1.3.5 2 .7 1.1.2 2.3-.4 2.7-1.4.6.8.7 1.7.3 2.6-.7 1.4-2.3 2.4-3.9 2.4-1.6-.1-3.4-.9-3.4-2.4z"/></svg>