<svg width="10" height="79" xmlns="http://www.w3.org/2000/svg"><g fill="none" fill-rule="nonzero"><path d="M239.8-57.5c-11.8 5.7-21.1 15-30.3 26.9C157.9 33.9 76.8 67.6 32.6 134.2-36.1 246.3 15 385.6 126.3 436.4l-59.8 96.7C-99.2 414.8-102.4 235.8-35.4 123.5 20.3 24.1 196.9-27.9 193.3-87.1l46.5 29.6z" fill="#D8DDE2"/><path d="M1161.4 428.1c-67.7 2.5-131.6 7.7-193.4 12.8-62.2 5.1-206.5 10.4-275 12.9l-22.3.8-3.2-22.1c-13.1-87.2-67.2-171.4-152.3-236.9-88.3-68-168.2-115-297.8-132.3-43.1-5.8-88.4-8.6-138.3-8.6-94.6 0-191.8 10.4-285.8 20.4l-.5.1c-25.5 2.7-52 5.5-77.9 8.1-80.7 8-146.2 11.7-206.3 11.7-121.2 0-253.7-28-310.6-42.6-56.9-14.6-105-29.5-137.5-39.4-48.1-14.6-96.1-29.2-144.2-43.8 13.205-11.435 9.54-123.461 14.51-125.1 16.8-5.5 97.45 31.67 112.94 38.8 37.15 17.1 94.006 33.698 130.906 46.32 16.34 5.59 62.803 25.616 112.182 36.28 62.126 13.416 130.52 17.2 167.962 17.2 21.1 0 43.3-1 65.9-2.8 60.3-5 120.5-15.9 178.8-26.4 17.7-3.2 36-6.5 54-9.6 145.7-25 278.1-37.1 404.7-37.1 53.2 0 105.6 2.2 155.7 6.7 96.7 8.5 229 25.6 314.3 50.7 91 26.8 172 62.2 240.6 105.3 64.2 40.3 123.5 90.8 181.2 154.4 47.9 52.8 89.1 107.9 130.7 164.5l27.9 38-47.2 1.7z" fill="#D8DDE2"/><path d="M931.8 414.8c-61.9 5-125.9 10.2-193.8 12.7-14.1-93.7-71.4-183.4-161.8-253-91.7-70.6-215.9-119.4-349.7-137.3-44.2-5.9-90.6-8.8-141.6-8.8-95.9 0-193.8 10.4-288.4 20.5-25.7 2.7-52.2 5.6-78.2 8.1-79.8 7.9-144.6 11.6-203.9 11.6-111.8 0-248.8-19.9-313.7-38-64.9-18.1-254.3-74.7-308.7-108.2l27.3-70.07c69.4 42.7 331.162 124.07 378.162 135.87C-655.538 0-593.6 6.3-539.6 6.3c21.8 0 44.7-1 68-2.9 61.5-5.1 122.3-16.1 181.2-26.7 17.6-3.2 35.8-6.5 53.8-9.5C-92.3-57.5 38.7-69.5 163.9-69.5c52.4 0 104.1 2.2 153.6 6.6 95.1 8.4 185.8 25.1 269.5 49.8C675.8 13 754.7 47.5 821.4 89.4c62.2 39.1 119.8 88.1 176 150 48.3 53.2 91 110.7 129 162.5-68.3 2.5-132.5 7.8-194.6 12.9z" fill="#EEE"/><path d="M-783.6-3.5c15 5 31.1 9.6 47.8 13.6l-1.4 5.8c-16.8-4-33.1-8.6-48.3-13.7l1.9-5.7zm-129.42-40.344c17.103 6.363 35.515 12.405 54.669 17.878l-2.047 5.85c-19.27-5.48-37.915-11.538-55.244-18.02l2.622-5.708zm-63.533-18.031c-14.279-6.791-29.698-13.319-45.786-19.324l2.096-5.587c16.187 6.018 31.805 12.57 46.27 19.485l-2.58 5.426zM-126.9-7.3l.5 6c33.8-3 68.1-5.7 102-8l-.4-6c-33.9 2.3-68.2 5-102.1 8zM-267.6 8.4c-4.7.9-17.7 3.3-37.3 6.2l.9 5.9c19.8-2.9 32.8-5.3 37.5-6.1 10-1.9 33.2-4.9 63.7-8.2l-.6-6c-30.6 3.3-54 6.3-64.2 8.2zm-215.1 22.4l.2 6c33.3-1.1 67.7-3.4 102.2-6.8l-.6-6c-34.4 3.4-68.7 5.7-101.8 6.8zm-178.8-1.3c31.9 4.1 66.3 6.7 102.2 7.6l.2-6c-35.7-1-69.9-3.5-101.6-7.6l-.8 6zM51.8-19.8l.3 6c36.6-1.9 70.9-3.2 102.1-3.7l-.1-6c-31.2.6-65.6 1.8-102.3 3.7zm179.1-3.7l-.1 6c7 .1 13.9.3 20.5.6 27.3 1.1 54.6 3.3 81 6.7l.8-6c-26.6-3.3-54.1-5.6-81.6-6.7-6.6-.2-13.5-.4-20.6-.6zm499.7 172.1l-3.7 4.7c26.4 21.2 51.7 44.3 75 68.8l4.3-4.2c-23.5-24.7-49-48-75.6-69.3zm121.1 131.3c21.3 27.5 40.2 56.1 56.2 84.8l5.2-3c-16.2-29-35.2-57.7-56.7-85.5l-4.7 3.7zM407.5 2.7c33.4 7.3 66.4 16.6 97.9 27.8l2-5.7c-31.8-11.2-65-20.7-98.6-28l-1.3 5.9zM576 59.4c30.7 14.4 60.6 31 89 49.3l3.2-5c-28.6-18.5-58.8-35.2-89.7-49.7l-2.5 5.4zm369.7 371.8l-5.6 2.1c6.6 17.4 11.3 33.8 13.7 47.4l5.9-1c-2.5-14.2-7.2-30.5-14-48.5z" fill="#F4FDFF"/><path d="M617.1 301c-26.8-34.5-61.7-60.3-106.6-78.8-85.2-35.1-188.2-35.6-271-36.1-20.1-.1-39-.2-56.4-.8-110.2-3.7-223.1 8.8-332.2 20.8-48.5 5.4-98.6 10.9-148.1 15-96.3 8-175.1 8.9-248 2.9-43.565-3.579-197.824-23.425-317.624-52.8C-994.09 139.013-1091.206 96.594-1130 80.7l3.79-73.15c33.316 13.639 138.955 56.045 262.81 90.05 130.418 35.807 279.503 63.01 323.1 66.6 69.5 5.7 145.1 4.8 238.1-2.9 48.7-4 98.4-9.5 146.5-14.8 111.3-12.3 226.3-25 340.8-21.2 16.6.6 35.1.7 54.8.8 88 .5 197.6 1.1 293.6 40.6 54.1 22.3 98.2 55 131.1 97.4 37.7 48.4 61.8 110.7 71.7 185.1l-59.6 8c-8.5-63.7-28.5-116.2-59.6-156.2z" fill="#D8DDE2"/><g><path d="M-21.7 67.9c0 1 .1 2 .3 2.9.1.5.2 1.1.3 1.6.7 2.5 1.9 4.9 4 6.5 2.5 1.9 6.4 2.2 8.6 0 2.7 3.9 6.5 3.9 8.8 0 2.2 2.2 6.1 1.9 8.6 0 2.1-1.6 3.3-4 4-6.5.1-.5.3-1 .3-1.6.2-1 .3-2 .3-2.9.1-3-.3-6-1.3-8.8-.2-.6-.5-1.3-.8-1.9-.7-1.5-1.5-2.9-2.5-4.2-.6-.7-1.2-1.5-1.9-2.2-.4-.5-.9-.9-1.4-1.3-2.8-2.5-6.2-4.4-9.8-5.2-3.6.8-7.1 2.8-9.8 5.2-.5.4-.9.9-1.4 1.3-.7.7-1.3 1.4-1.9 2.2-.9 1.2-1.7 2.6-2.4 4-.3.6-.5 1.2-.7 1.8-.9 2.9-1.4 6-1.3 9.1z" fill="#219750"/><path d="M-21.7 65.3c0 1 .1 2 .3 2.9.1.5.2 1.1.3 1.6.7 2.5 1.9 4.9 4 6.5 2.5 1.9 6.4 2.2 8.6 0 2.7 3.9 6.5 3.9 8.8 0 2.2 2.2 6.1 1.9 8.6 0 2.1-1.6 3.3-4 4-6.5.1-.5.3-1 .3-1.6.2-1 .3-2 .3-2.9.1-3-.3-6-1.3-8.8-.2-.6-.5-1.3-.8-1.9-.7-1.5-1.5-2.9-2.5-4.2-.6-.7-1.2-1.5-1.9-2.2-.4-.5-.9-.9-1.4-1.3-2.8-2.5-6.2-4.4-9.8-5.2-3.6.8-7.1 2.8-9.8 5.2-.5.4-.9.9-1.4 1.3-.7.7-1.3 1.4-1.9 2.2-.9 1.2-1.7 2.6-2.4 4-.3.6-.5 1.2-.7 1.8-1 2.9-1.5 6-1.3 9.1z" fill="#30A658"/><path d="M-20.3 56.2c.2-.6.5-1.2.6-1.9.3.9.8 1.7 1.4 2.2 1.2.9 2.9.8 4-.2.2 1.8 1.5 3.3 2.9 3.6 1.4.3 3-.6 3.7-2.1 1 3.6 5.2 4.9 7.2 0 .7 1.5 2.3 2.4 3.7 2.1 1.5-.3 2.7-1.8 2.9-3.6 1.1 1.1 2.8 1.1 4 .2.6-.4 1-1.1 1.3-1.9.3.6.6 1.3.8 1.9-.2 1.2-.9 2.4-1.8 3-1.1.6-2.5.4-3.2-.7-.4 1.7-1.7 3.2-3.2 3.6-1.5.4-3.2-.3-4.2-1.7-.7 1.6-2.3 2.6-3.8 2.6-1.5.1-3.1-1-3.8-2.6-1 1.4-2.7 2.1-4.2 1.7-1.6-.3-2.9-1.8-3.3-3.6-.8 1.1-2.2 1.3-3.2.7-1-.6-1.6-1.9-1.8-3.3zm33 10c-1.4 1.1-3.4 1-4.7-.2-.3 2.1-1.7 3.9-3.4 4.3-1.7.4-3.6-.7-4.4-2.5-2.3 5.8-7.3 4.3-8.5 0-.8 1.8-2.7 2.9-4.4 2.5-1.7-.4-3.2-2.2-3.4-4.3-1.3 1.2-3.3 1.3-4.7.2-.4-.2-.7-.5-.9-.9l.9 4.5c1.2.6 2.8.3 3.6-.9.5 2.1 2 3.8 3.8 4.3 1.8.5 3.8-.3 5-2 .9 1.9 2.7 3.1 4.5 3.1 1.8.1 3.6-1.2 4.5-3.1 1.2 1.7 3.2 2.5 5 2 1.8-.5 3.3-2.2 3.8-4.3.8 1.3 2.4 1.6 3.6.9.1-.5.2-1.1.3-1.6.2-.9.3-1.9.3-2.9l-.9.9zm-24.8-14.5c1.5.4 3.2-.3 4.2-1.7.7 1.6 2.3 2.7 3.8 2.6 1.5 0 3.1-1 3.8-2.6 1 1.4 2.7 2.1 4.2 1.7 1.5-.4 2.7-1.8 3.2-3.5-.4-.5-.9-.9-1.4-1.3-.5 1.1-1.4 2-2.5 2.3-1.4.3-3-.6-3.7-2.1-2 4.9-6.2 3.6-7.2 0-.7 1.5-2.3 2.4-3.7 2.1-1.1-.2-2-1.1-2.5-2.3-.5.4-1 .9-1.4 1.3.5 1.7 1.7 3.1 3.2 3.5z" fill="#219750"/></g><g transform="translate(-138 -53)"><ellipse fill="#D8DDE2" cx="138.7" cy="168.3" rx="138.6" ry="37.6"/><path d="M92.5 175.9c0 6.9 20.7 12.5 46.2 12.5 25.5 0 46.2-5.6 46.2-12.5v-49H92.5l.2 50.1" fill="#B9BDC3"/><ellipse fill="#D8DDE2" cx="138.7" cy="126.8" rx="46.2" ry="12.5"/><ellipse fill="#4F4F4F" cx="138.7" cy="126.8" rx="23.1" ry="6.3"/><path fill="#80DEEA" d="M138.6 131.1h8.5V81.9l-8.5-4.8z"/><path d="M138.6 75.8v1.3l8.5 4.8V53.5c-2.8 2.2-4.8 14.2-8.5 22.3z" fill="#2196F3"/><path d="M84.6 36.5c0-.2.1-.5.1-.7 0 .2 0 .4-.1.7zm2.3 25.6c-.1-.3-.1-.6-.2-.8 0 .2.1.5.2.8zm-.4-1.4c-1.6-6.4-2.2-13.5-2.4-16.6.2 3.1.8 10.2 2.4 16.6zm3.3 8.7c-.1-.1-.2-.3-.3-.4.2.1.2.2.3.4zm-5.5-30.5c0-.3.1-.6.1-.9 0 .2-.1.5-.1.9zm-.1 1.9v-.7.7zm6.4 29.6c.4.5.8 1 1.3 1.4-.5-.4-.9-.9-1.3-1.4zM202.2 42c0-1.7-.1-3.4-.4-5-.6 6.5-2 12.7-4.9 12.9-6.4.5-11.6-18.5-19.6-19.5-8-1-6.2 14.2-15.5 14.2s-10.4-13.2-14-12.3c-.4.1-.8.4-1.2.9.3.5.6 1.1.6 1.8v18.5c.2-.2.4-.3.6-.4 3.7-.9 4.7 12.3 14 12.3s7.5-15.2 15.5-14.2c8 .9 13.2 20 19.6 19.5 6.3-.5 5.3-28.7 5.3-28.7zm-71.6 20.7c-10.4 0-8.6-32.2-17.5-32.2s-8 21.5-17.8 21.7c-.5 0-1-.1-1.4-.2.2 4.3 1.2 13.7 3.7 20.5 7.5-3.2 7.4-21.2 15.6-21.2 8.9 0 7.2 32.2 17.5 32.2 3.5 0 6-3.3 8.1-7.7V55c-2.2 4.4-4.8 7.7-8.2 7.7zm-40.1 7.6c-.2-.2-.3-.5-.5-.7.1.2.3.5.5.7zm-5.3-36.7c0 .1 0 .2-.1.3.1 0 .1-.1.1-.3 0 .1 0 0 0 0zm8.2 39.1c-.1 0-.1-.1-.2-.1.1 0 .2.1.2.1z" fill="#FFF"/><path d="M146.6 33.2c-2.5 3.2-4.5 14.1-8 21.7v20.8c3.7-8.1 5.7-20.1 8.5-22.3V35c0-.6-.2-1.2-.5-1.8z" fill="#FFF"/><path d="M86.2 30.6c.1-.3.2-.6.4-.9-.1.2-.2.5-.4.9zm-.6 1.9l.3-.9-.3.9zm3.3-7.4c.3-.5.6-.9.9-1.4-.4.5-.6.9-.9 1.4zm-1 1.7c.2-.4.4-.7.6-1.1-.2.4-.4.8-.6 1.1zm55.2-26c19.5 0 36.8 6.3 47.5 16.5-10.3-6-23.5-9.4-38-9.4-32.6 0-59 18.3-59 41.8V52c.5.1.9.2 1.4.2 9.9-.2 8.9-21.7 17.8-21.7s7.2 32.2 17.5 32.2c3.5 0 6-3.3 8.1-7.7V35c0-2.1 2.1-3.8 4.3-3.8 1.5 0 2.9.8 3.7 2 .4-.5.8-.8 1.2-.9 3.7-.9 4.7 12.3 14 12.3s7.5-15.2 15.5-14.2 13.2 20 19.6 19.5c2.9-.2 4.3-6.4 4.9-12.9C198.3 16.2 173.4.8 143.1.8 119.7.7 99.5 9.2 89.9 23.3 99.5 9.2 119.7.8 143.1.8zM87 28.7c.1-.3.3-.7.5-1-.2.3-.3.6-.5 1z" fill="#80DEEA"/><path d="M142.9 31.2c-2.1 0-4.3 1.7-4.3 3.8v19.9c3.5-7.6 5.4-18.5 8-21.7-.8-1.2-2.3-2-3.7-2z" fill="#80DEEA"/></g></g></svg>