<svg xmlns="http://www.w3.org/2000/svg" xmlns:xlink="http://www.w3.org/1999/xlink" width="550" height="270" viewBox="-136.253 396.753 550 270" enable-background="new -136.253 396.753 550 270"><path fill="#fff" d="M413.344 505.174c-2.55-16.2-16.56-27.754-32.486-27.733-.036-2.928-.278-5.89-.747-8.87-5.068-32.19-34.316-54.58-66.363-51.638-5.698-13.647-20.165-22.174-35.447-19.776-9.67 1.517-17.682 7.103-22.578 14.73-9.55-3.418-20.073-4.563-30.803-2.88-31.015 4.87-53.108 31.687-52.9 62.11-1.41.044-2.83.166-4.26.39-18.658 2.927-31.406 20.404-28.473 39.033 1.945 12.354 10.302 22.106 21.15 26.424-15.04 8.436-24.005 25.582-21.168 43.596 3.58 22.736 24.623 38.397 47.34 35.505.008 2.447.203 4.926.596 7.42 4.173 26.503 29.077 44.61 55.624 40.445 6.605-1.037 12.69-3.356 18.038-6.66 13.342 7.794 29.36 11.215 45.822 8.632 28.08-4.407 49.562-25.04 56.38-50.824.168-.024.335-.046.502-.072 27.222-4.272 46.053-28.28 42.064-53.62-1.305-8.283-4.888-15.684-10.07-21.746 12.474-6.22 20.058-19.98 17.778-34.466z"/><defs><path id="a" d="M413.344 505.174c-2.55-16.2-16.56-27.754-32.486-27.733-.036-2.928-.278-5.89-.747-8.87-5.068-32.19-34.316-54.58-66.363-51.638-5.698-13.647-20.165-22.174-35.447-19.776-9.67 1.517-17.682 7.103-22.578 14.73-9.55-3.418-20.073-4.563-30.803-2.88-31.015 4.87-53.108 31.687-52.9 62.11-1.41.044-2.83.166-4.26.39-18.658 2.927-31.406 20.404-28.473 39.033 1.945 12.354 10.302 22.106 21.15 26.424-15.04 8.436-24.005 25.582-21.168 43.596 3.58 22.736 24.623 38.397 47.34 35.505.008 2.447.203 4.926.596 7.42 4.173 26.503 29.077 44.61 55.624 40.445 6.605-1.037 12.69-3.356 18.038-6.66 13.342 7.794 29.36 11.215 45.822 8.632 28.08-4.407 49.562-25.04 56.38-50.824.168-.024.335-.046.502-.072 27.222-4.272 46.053-28.28 42.064-53.62-1.305-8.283-4.888-15.684-10.07-21.746 12.474-6.22 20.058-19.98 17.778-34.466z"/></defs><clipPath id="b"><use xlink:href="#a" overflow="visible"/></clipPath><path clip-path="url(#b)" fill="#DCDDDE" stroke="#000" stroke-width="2.611" stroke-linecap="round" stroke-linejoin="round" stroke-miterlimit="10" d="M141.506 486.02l308.66 146.627-117.076 52.967-173.26-17.465-42.48-127.24z"/><defs><path id="c" d="M413.344 505.174c-2.55-16.2-16.56-27.754-32.486-27.733-.036-2.928-.278-5.89-.747-8.87-5.068-32.19-34.316-54.58-66.363-51.638-5.698-13.647-20.165-22.174-35.447-19.776-9.67 1.517-17.682 7.103-22.578 14.73-9.55-3.418-20.073-4.563-30.803-2.88-31.015 4.87-53.108 31.687-52.9 62.11-1.41.044-2.83.166-4.26.39-18.658 2.927-31.406 20.404-28.473 39.033 1.945 12.354 10.302 22.106 21.15 26.424-15.04 8.436-24.005 25.582-21.168 43.596 3.58 22.736 24.623 38.397 47.34 35.505.008 2.447.203 4.926.596 7.42 4.173 26.503 29.077 44.61 55.624 40.445 6.605-1.037 12.69-3.356 18.038-6.66 13.342 7.794 29.36 11.215 45.822 8.632 28.08-4.407 49.562-25.04 56.38-50.824.168-.024.335-.046.502-.072 27.222-4.272 46.053-28.28 42.064-53.62-1.305-8.283-4.888-15.684-10.07-21.746 12.474-6.22 20.058-19.98 17.778-34.466z"/></defs><clipPath id="d"><use xlink:href="#c" overflow="visible"/></clipPath><g clip-path="url(#d)"><path fill="#fff" d="M173.87 542.84c1.444.68 1.464 1.807.044 2.5l-17.43 8.518c-1.42.694-3.762.704-5.207.02l-17.73-8.373c-1.445-.682-1.466-1.808-.046-2.5l17.43-8.518c1.42-.694 3.764-.704 5.208-.022l17.73 8.374z"/><path fill="#DCDDDE" stroke="#000" stroke-width="2.611" stroke-linecap="round" stroke-linejoin="round" stroke-miterlimit="10" d="M173.87 542.84c1.444.68 1.464 1.807.044 2.5l-17.43 8.518c-1.42.694-3.762.704-5.207.02l-17.73-8.373c-1.445-.682-1.466-1.808-.046-2.5l17.43-8.518c1.42-.694 3.764-.704 5.208-.022l17.73 8.374z"/></g><defs><path id="e" d="M413.344 505.174c-2.55-16.2-16.56-27.754-32.486-27.733-.036-2.928-.278-5.89-.747-8.87-5.068-32.19-34.316-54.58-66.363-51.638-5.698-13.647-20.165-22.174-35.447-19.776-9.67 1.517-17.682 7.103-22.578 14.73-9.55-3.418-20.073-4.563-30.803-2.88-31.015 4.87-53.108 31.687-52.9 62.11-1.41.044-2.83.166-4.26.39-18.658 2.927-31.406 20.404-28.473 39.033 1.945 12.354 10.302 22.106 21.15 26.424-15.04 8.436-24.005 25.582-21.168 43.596 3.58 22.736 24.623 38.397 47.34 35.505.008 2.447.203 4.926.596 7.42 4.173 26.503 29.077 44.61 55.624 40.445 6.605-1.037 12.69-3.356 18.038-6.66 13.342 7.794 29.36 11.215 45.822 8.632 28.08-4.407 49.562-25.04 56.38-50.824.168-.024.335-.046.502-.072 27.222-4.272 46.053-28.28 42.064-53.62-1.305-8.283-4.888-15.684-10.07-21.746 12.474-6.22 20.058-19.98 17.778-34.466z"/></defs><clipPath id="f"><use xlink:href="#e" overflow="visible"/></clipPath><path fill="#DCDDDE" stroke="#000" stroke-width="2.611" stroke-linecap="round" stroke-linejoin="round" stroke-miterlimit="10" d="M295.017 573.28c1.445.684 1.465 1.81.045 2.502l-17.43 8.518c-1.42.694-3.763.704-5.207.022l-17.73-8.374c-1.445-.682-1.465-1.808-.045-2.502l17.43-8.517c1.42-.695 3.763-.705 5.207-.023l17.73 8.374z" clip-path="url(#f)"/><defs><path id="g" d="M413.344 505.174c-2.55-16.2-16.56-27.754-32.486-27.733-.036-2.928-.278-5.89-.747-8.87-5.068-32.19-34.316-54.58-66.363-51.638-5.698-13.647-20.165-22.174-35.447-19.776-9.67 1.517-17.682 7.103-22.578 14.73-9.55-3.418-20.073-4.563-30.803-2.88-31.015 4.87-53.108 31.687-52.9 62.11-1.41.044-2.83.166-4.26.39-18.658 2.927-31.406 20.404-28.473 39.033 1.945 12.354 10.302 22.106 21.15 26.424-15.04 8.436-24.005 25.582-21.168 43.596 3.58 22.736 24.623 38.397 47.34 35.505.008 2.447.203 4.926.596 7.42 4.173 26.503 29.077 44.61 55.624 40.445 6.605-1.037 12.69-3.356 18.038-6.66 13.342 7.794 29.36 11.215 45.822 8.632 28.08-4.407 49.562-25.04 56.38-50.824.168-.024.335-.046.502-.072 27.222-4.272 46.053-28.28 42.064-53.62-1.305-8.283-4.888-15.684-10.07-21.746 12.474-6.22 20.058-19.98 17.778-34.466z"/></defs><clipPath id="h"><use xlink:href="#g" overflow="visible"/></clipPath><g clip-path="url(#h)" stroke="#000" stroke-linecap="round" stroke-linejoin="round" stroke-miterlimit="10"><path fill="#DCDDDE" stroke-width="2.611" d="M238.136 546.416c1.445.682 1.464 1.808.044 2.5l-17.43 8.52c-1.42.693-3.763.703-5.207.02l-17.73-8.373c-1.445-.682-1.465-1.808-.045-2.5l17.43-8.52c1.42-.693 3.763-.703 5.207-.02l17.73 8.373z"/><path stroke-width="2.308" d="M238.136 546.416c1.445.682 1.464 1.808.044 2.5l-17.43 8.52c-1.42.693-3.763.703-5.207.02l-17.73-8.373c-1.445-.682-1.465-1.808-.045-2.5l17.43-8.52c1.42-.693 3.763-.703 5.207-.02l17.73 8.373z" fill="none"/><path stroke-width="2.308" d="M295.017 573.28c1.445.684 1.465 1.81.045 2.502l-17.43 8.518c-1.42.694-3.763.704-5.207.022l-17.73-8.374c-1.445-.682-1.465-1.808-.045-2.502l17.43-8.517c1.42-.695 3.763-.705 5.207-.023l17.73 8.374z" fill="none"/></g><defs><path id="i" d="M413.344 505.174c-2.55-16.2-16.56-27.754-32.486-27.733-.036-2.928-.278-5.89-.747-8.87-5.068-32.19-34.316-54.58-66.363-51.638-5.698-13.647-20.165-22.174-35.447-19.776-9.67 1.517-17.682 7.103-22.578 14.73-9.55-3.418-20.073-4.563-30.803-2.88-31.015 4.87-53.108 31.687-52.9 62.11-1.41.044-2.83.166-4.26.39-18.658 2.927-31.406 20.404-28.473 39.033 1.945 12.354 10.302 22.106 21.15 26.424-15.04 8.436-24.005 25.582-21.168 43.596 3.58 22.736 24.623 38.397 47.34 35.505.008 2.447.203 4.926.596 7.42 4.173 26.503 29.077 44.61 55.624 40.445 6.605-1.037 12.69-3.356 18.038-6.66 13.342 7.794 29.36 11.215 45.822 8.632 28.08-4.407 49.562-25.04 56.38-50.824.168-.024.335-.046.502-.072 27.222-4.272 46.053-28.28 42.064-53.62-1.305-8.283-4.888-15.684-10.07-21.746 12.474-6.22 20.058-19.98 17.778-34.466z"/></defs><clipPath id="j"><use xlink:href="#i" overflow="visible"/></clipPath><g clip-path="url(#j)"><path fill="#fff" d="M266.602 559.86c1.444.683 1.464 1.808.044 2.502l-17.43 8.517c-1.42.693-3.762.703-5.206.02l-17.73-8.372c-1.446-.682-1.466-1.808-.046-2.502l17.43-8.518c1.42-.694 3.764-.704 5.208-.02l17.73 8.372z"/><path fill="#DCDDDE" stroke="#000" stroke-width="2.611" stroke-linecap="round" stroke-linejoin="round" stroke-miterlimit="10" d="M266.602 559.86c1.444.683 1.464 1.808.044 2.502l-17.43 8.517c-1.42.693-3.762.703-5.206.02l-17.73-8.372c-1.446-.682-1.466-1.808-.046-2.502l17.43-8.518c1.42-.694 3.764-.704 5.208-.02l17.73 8.372z"/></g><defs><path id="k" d="M413.344 505.174c-2.55-16.2-16.56-27.754-32.486-27.733-.036-2.928-.278-5.89-.747-8.87-5.068-32.19-34.316-54.58-66.363-51.638-5.698-13.647-20.165-22.174-35.447-19.776-9.67 1.517-17.682 7.103-22.578 14.73-9.55-3.418-20.073-4.563-30.803-2.88-31.015 4.87-53.108 31.687-52.9 62.11-1.41.044-2.83.166-4.26.39-18.658 2.927-31.406 20.404-28.473 39.033 1.945 12.354 10.302 22.106 21.15 26.424-15.04 8.436-24.005 25.582-21.168 43.596 3.58 22.736 24.623 38.397 47.34 35.505.008 2.447.203 4.926.596 7.42 4.173 26.503 29.077 44.61 55.624 40.445 6.605-1.037 12.69-3.356 18.038-6.66 13.342 7.794 29.36 11.215 45.822 8.632 28.08-4.407 49.562-25.04 56.38-50.824.168-.024.335-.046.502-.072 27.222-4.272 46.053-28.28 42.064-53.62-1.305-8.283-4.888-15.684-10.07-21.746 12.474-6.22 20.058-19.98 17.778-34.466z"/></defs><clipPath id="l"><use xlink:href="#k" overflow="visible"/></clipPath><g clip-path="url(#l)"><path fill="#FFE300" d="M238.357 573.663c1.444.682 1.465 1.808.044 2.5l-17.43 8.52c-1.42.693-3.762.703-5.206.02l-17.73-8.373c-1.445-.682-1.465-1.808-.045-2.5l17.43-8.52c1.42-.693 3.76-.703 5.206-.02l17.73 8.373z"/><path stroke="#000" stroke-width="2.308" stroke-linecap="round" stroke-linejoin="round" stroke-miterlimit="10" d="M238.357 573.663c1.444.682 1.465 1.808.044 2.5l-17.43 8.52c-1.42.693-3.762.703-5.206.02l-17.73-8.373c-1.445-.682-1.465-1.808-.045-2.5l17.43-8.52c1.42-.693 3.76-.703 5.206-.02l17.73 8.373z" fill="none"/></g><defs><path id="m" d="M413.344 505.174c-2.55-16.2-16.56-27.754-32.486-27.733-.036-2.928-.278-5.89-.747-8.87-5.068-32.19-34.316-54.58-66.363-51.638-5.698-13.647-20.165-22.174-35.447-19.776-9.67 1.517-17.682 7.103-22.578 14.73-9.55-3.418-20.073-4.563-30.803-2.88-31.015 4.87-53.108 31.687-52.9 62.11-1.41.044-2.83.166-4.26.39-18.658 2.927-31.406 20.404-28.473 39.033 1.945 12.354 10.302 22.106 21.15 26.424-15.04 8.436-24.005 25.582-21.168 43.596 3.58 22.736 24.623 38.397 47.34 35.505.008 2.447.203 4.926.596 7.42 4.173 26.503 29.077 44.61 55.624 40.445 6.605-1.037 12.69-3.356 18.038-6.66 13.342 7.794 29.36 11.215 45.822 8.632 28.08-4.407 49.562-25.04 56.38-50.824.168-.024.335-.046.502-.072 27.222-4.272 46.053-28.28 42.064-53.62-1.305-8.283-4.888-15.684-10.07-21.746 12.474-6.22 20.058-19.98 17.778-34.466z"/></defs><clipPath id="n"><use xlink:href="#m" overflow="visible"/></clipPath><g clip-path="url(#n)"><path fill="#fff" d="M388.77 644.42c1.444.68 1.463 1.807.044 2.5l-17.43 8.518c-1.42.694-3.764.704-5.208.022l-17.73-8.374c-1.444-.682-1.464-1.808-.044-2.5l17.43-8.52c1.42-.693 3.763-.703 5.207-.02l17.73 8.373z"/><path fill="#DCDDDE" stroke="#000" stroke-width="2.611" stroke-linecap="round" stroke-linejoin="round" stroke-miterlimit="10" d="M388.77 644.42c1.444.68 1.463 1.807.044 2.5l-17.43 8.518c-1.42.694-3.764.704-5.208.022l-17.73-8.374c-1.444-.682-1.464-1.808-.044-2.5l17.43-8.52c1.42-.693 3.763-.703 5.207-.02l17.73 8.373z"/><path fill="#DCDDDE" stroke="#000" stroke-width="2.611" stroke-linecap="round" stroke-linejoin="round" stroke-miterlimit="10" d="M347.675 652.735c1.445.682 1.465 1.808.045 2.5l-17.43 8.52c-1.42.693-3.763.703-5.208.02l-17.73-8.373c-1.445-.682-1.465-1.808-.044-2.5l17.43-8.52c1.42-.693 3.763-.703 5.207-.02l17.73 8.373z"/><path fill="#DCDDDE" stroke="#000" stroke-width="2.611" stroke-linecap="round" stroke-linejoin="round" stroke-miterlimit="10" d="M300.75 656.894c1.445.682 1.466 1.808.046 2.5l-17.43 8.52c-1.42.693-3.763.703-5.207.02l-17.73-8.373c-1.446-.682-1.465-1.807-.045-2.5l17.43-8.518c1.42-.694 3.762-.704 5.207-.022l17.73 8.374z"/><path fill="#DCDDDE" stroke="#000" stroke-width="2.611" stroke-linecap="round" stroke-linejoin="round" stroke-miterlimit="10" d="M327.963 671.31c1.444.68 1.464 1.806.045 2.5l-17.43 8.518c-1.42.694-3.763.704-5.207.022l-17.73-8.374c-1.444-.682-1.464-1.808-.044-2.5l17.43-8.52c1.42-.693 3.762-.703 5.206-.02l17.73 8.373z"/></g><defs><path id="o" d="M413.344 505.174c-2.55-16.2-16.56-27.754-32.486-27.733-.036-2.928-.278-5.89-.747-8.87-5.068-32.19-34.316-54.58-66.363-51.638-5.698-13.647-20.165-22.174-35.447-19.776-9.67 1.517-17.682 7.103-22.578 14.73-9.55-3.418-20.073-4.563-30.803-2.88-31.015 4.87-53.108 31.687-52.9 62.11-1.41.044-2.83.166-4.26.39-18.658 2.927-31.406 20.404-28.473 39.033 1.945 12.354 10.302 22.106 21.15 26.424-15.04 8.436-24.005 25.582-21.168 43.596 3.58 22.736 24.623 38.397 47.34 35.505.008 2.447.203 4.926.596 7.42 4.173 26.503 29.077 44.61 55.624 40.445 6.605-1.037 12.69-3.356 18.038-6.66 13.342 7.794 29.36 11.215 45.822 8.632 28.08-4.407 49.562-25.04 56.38-50.824.168-.024.335-.046.502-.072 27.222-4.272 46.053-28.28 42.064-53.62-1.305-8.283-4.888-15.684-10.07-21.746 12.474-6.22 20.058-19.98 17.778-34.466z"/></defs><clipPath id="p"><use xlink:href="#o" overflow="visible"/></clipPath><g clip-path="url(#p)"><path fill="#fff" d="M304.217 604.486c1.445.682 1.465 1.808.045 2.5l-17.43 8.52c-1.42.693-3.762.703-5.207.02l-17.73-8.373c-1.445-.682-1.464-1.808-.044-2.5l17.43-8.52c1.42-.694 3.763-.703 5.208-.02l17.73 8.373z"/><path fill="#DCDDDE" stroke="#000" stroke-width="2.611" stroke-linecap="round" stroke-linejoin="round" stroke-miterlimit="10" d="M304.217 604.486c1.445.682 1.465 1.808.045 2.5l-17.43 8.52c-1.42.693-3.762.703-5.207.02l-17.73-8.373c-1.445-.682-1.464-1.808-.044-2.5l17.43-8.52c1.42-.694 3.763-.703 5.208-.02l17.73 8.373z"/><path fill="#DCDDDE" stroke="#000" stroke-width="2.611" stroke-linecap="round" stroke-linejoin="round" stroke-miterlimit="10" d="M146.368 502.195c1.445.682 1.465 1.808.045 2.5l-17.43 8.52c-1.42.693-3.762.703-5.207.02l-17.73-8.373c-1.445-.682-1.464-1.808-.044-2.5l17.43-8.52c1.42-.694 3.762-.703 5.207-.02l17.728 8.373z"/><path fill="#DCDDDE" stroke="#000" stroke-width="2.611" stroke-linecap="round" stroke-linejoin="round" stroke-miterlimit="10" d="M245.087 657.5c1.444.682 1.465 1.808.045 2.5l-17.43 8.52c-1.42.693-3.762.703-5.207.02l-41.065-19.665c-1.445-.682-1.464-1.808-.044-2.5l17.43-8.52c1.42-.694 3.762-.703 5.207-.02l41.064 19.665z"/></g><defs><path id="q" d="M413.344 505.174c-2.55-16.2-16.56-27.754-32.486-27.733-.036-2.928-.278-5.89-.747-8.87-5.068-32.19-34.316-54.58-66.363-51.638-5.698-13.647-20.165-22.174-35.447-19.776-9.67 1.517-17.682 7.103-22.578 14.73-9.55-3.418-20.073-4.563-30.803-2.88-31.015 4.87-53.108 31.687-52.9 62.11-1.41.044-2.83.166-4.26.39-18.658 2.927-31.406 20.404-28.473 39.033 1.945 12.354 10.302 22.106 21.15 26.424-15.04 8.436-24.005 25.582-21.168 43.596 3.58 22.736 24.623 38.397 47.34 35.505.008 2.447.203 4.926.596 7.42 4.173 26.503 29.077 44.61 55.624 40.445 6.605-1.037 12.69-3.356 18.038-6.66 13.342 7.794 29.36 11.215 45.822 8.632 28.08-4.407 49.562-25.04 56.38-50.824.168-.024.335-.046.502-.072 27.222-4.272 46.053-28.28 42.064-53.62-1.305-8.283-4.888-15.684-10.07-21.746 12.474-6.22 20.058-19.98 17.778-34.466z"/></defs><clipPath id="r"><use xlink:href="#q" overflow="visible"/></clipPath><path fill="#DCDDDE" stroke="#000" stroke-width="2.611" stroke-linecap="round" stroke-linejoin="round" stroke-miterlimit="10" d="M201.698 529.207c1.444.682 1.465 1.808.045 2.5l-17.43 8.52c-1.42.693-3.763.703-5.207.02l-46.112-21.777c-1.445-.682-1.465-1.808-.045-2.5l17.43-8.52c1.42-.693 3.762-.703 5.206-.02l46.112 21.777z" clip-path="url(#r)"/><defs><path id="s" d="M413.344 505.174c-2.55-16.2-16.56-27.754-32.486-27.733-.036-2.928-.278-5.89-.747-8.87-5.068-32.19-34.316-54.58-66.363-51.638-5.698-13.647-20.165-22.174-35.447-19.776-9.67 1.517-17.682 7.103-22.578 14.73-9.55-3.418-20.073-4.563-30.803-2.88-31.015 4.87-53.108 31.687-52.9 62.11-1.41.044-2.83.166-4.26.39-18.658 2.927-31.406 20.404-28.473 39.033 1.945 12.354 10.302 22.106 21.15 26.424-15.04 8.436-24.005 25.582-21.168 43.596 3.58 22.736 24.623 38.397 47.34 35.505.008 2.447.203 4.926.596 7.42 4.173 26.503 29.077 44.61 55.624 40.445 6.605-1.037 12.69-3.356 18.038-6.66 13.342 7.794 29.36 11.215 45.822 8.632 28.08-4.407 49.562-25.04 56.38-50.824.168-.024.335-.046.502-.072 27.222-4.272 46.053-28.28 42.064-53.62-1.305-8.283-4.888-15.684-10.07-21.746 12.474-6.22 20.058-19.98 17.778-34.466z"/></defs><clipPath id="t"><use xlink:href="#s" overflow="visible"/></clipPath><g clip-path="url(#t)"><path fill="#fff" d="M345.734 597.41c1.445.683 1.465 1.81.045 2.502l-17.43 8.518c-1.42.694-3.763.704-5.208.022l-31.48-14.87c-1.445-.68-1.465-1.807-.045-2.5l17.43-8.518c1.42-.694 3.762-.704 5.207-.02l31.48 14.867z"/><path fill="#DCDDDE" stroke="#000" stroke-width="2.611" stroke-linecap="round" stroke-linejoin="round" stroke-miterlimit="10" d="M345.734 597.41c1.445.683 1.465 1.81.045 2.502l-17.43 8.518c-1.42.694-3.763.704-5.208.022l-31.48-14.87c-1.445-.68-1.465-1.807-.045-2.5l17.43-8.518c1.42-.694 3.762-.704 5.207-.02l31.48 14.867z"/></g><defs><path id="u" d="M413.344 505.174c-2.55-16.2-16.56-27.754-32.486-27.733-.036-2.928-.278-5.89-.747-8.87-5.068-32.19-34.316-54.58-66.363-51.638-5.698-13.647-20.165-22.174-35.447-19.776-9.67 1.517-17.682 7.103-22.578 14.73-9.55-3.418-20.073-4.563-30.803-2.88-31.015 4.87-53.108 31.687-52.9 62.11-1.41.044-2.83.166-4.26.39-18.658 2.927-31.406 20.404-28.473 39.033 1.945 12.354 10.302 22.106 21.15 26.424-15.04 8.436-24.005 25.582-21.168 43.596 3.58 22.736 24.623 38.397 47.34 35.505.008 2.447.203 4.926.596 7.42 4.173 26.503 29.077 44.61 55.624 40.445 6.605-1.037 12.69-3.356 18.038-6.66 13.342 7.794 29.36 11.215 45.822 8.632 28.08-4.407 49.562-25.04 56.38-50.824.168-.024.335-.046.502-.072 27.222-4.272 46.053-28.28 42.064-53.62-1.305-8.283-4.888-15.684-10.07-21.746 12.474-6.22 20.058-19.98 17.778-34.466z"/></defs><clipPath id="v"><use xlink:href="#u" overflow="visible"/></clipPath><g clip-path="url(#v)"><path fill="#fff" d="M388.034 617.39c1.444.682 1.465 1.808.045 2.5l-17.43 8.52c-1.42.693-3.764.703-5.208.02l-31.482-14.868c-1.444-.682-1.464-1.808-.044-2.5l17.43-8.52c1.42-.692 3.763-.702 5.207-.02l31.48 14.868z"/><path fill="#DCDDDE" stroke="#000" stroke-width="2.611" stroke-linecap="round" stroke-linejoin="round" stroke-miterlimit="10" d="M388.034 617.39c1.444.682 1.465 1.808.045 2.5l-17.43 8.52c-1.42.693-3.764.703-5.208.02l-31.482-14.868c-1.444-.682-1.464-1.808-.044-2.5l17.43-8.52c1.42-.692 3.763-.702 5.207-.02l31.48 14.868z"/></g><defs><path id="w" d="M413.344 505.174c-2.55-16.2-16.56-27.754-32.486-27.733-.036-2.928-.278-5.89-.747-8.87-5.068-32.19-34.316-54.58-66.363-51.638-5.698-13.647-20.165-22.174-35.447-19.776-9.67 1.517-17.682 7.103-22.578 14.73-9.55-3.418-20.073-4.563-30.803-2.88-31.015 4.87-53.108 31.687-52.9 62.11-1.41.044-2.83.166-4.26.39-18.658 2.927-31.406 20.404-28.473 39.033 1.945 12.354 10.302 22.106 21.15 26.424-15.04 8.436-24.005 25.582-21.168 43.596 3.58 22.736 24.623 38.397 47.34 35.505.008 2.447.203 4.926.596 7.42 4.173 26.503 29.077 44.61 55.624 40.445 6.605-1.037 12.69-3.356 18.038-6.66 13.342 7.794 29.36 11.215 45.822 8.632 28.08-4.407 49.562-25.04 56.38-50.824.168-.024.335-.046.502-.072 27.222-4.272 46.053-28.28 42.064-53.62-1.305-8.283-4.888-15.684-10.07-21.746 12.474-6.22 20.058-19.98 17.778-34.466z"/></defs><clipPath id="x"><use xlink:href="#w" overflow="visible"/></clipPath><g clip-path="url(#x)"><path fill="#fff" d="M360.27 630.96c1.444.68 1.464 1.806.044 2.5l-17.43 8.518c-1.42.694-3.763.704-5.207.02l-45.16-21.327c-1.443-.682-1.463-1.807-.043-2.5l17.43-8.518c1.42-.694 3.762-.704 5.207-.02l45.16 21.327z"/><path fill="#DCDDDE" stroke="#000" stroke-width="2.611" stroke-linecap="round" stroke-linejoin="round" stroke-miterlimit="10" d="M360.27 630.96c1.444.68 1.464 1.806.044 2.5l-17.43 8.518c-1.42.694-3.763.704-5.207.02l-45.16-21.327c-1.443-.682-1.463-1.807-.043-2.5l17.43-8.518c1.42-.694 3.762-.704 5.207-.02l45.16 21.327z"/></g><defs><path id="y" d="M413.344 505.174c-2.55-16.2-16.56-27.754-32.486-27.733-.036-2.928-.278-5.89-.747-8.87-5.068-32.19-34.316-54.58-66.363-51.638-5.698-13.647-20.165-22.174-35.447-19.776-9.67 1.517-17.682 7.103-22.578 14.73-9.55-3.418-20.073-4.563-30.803-2.88-31.015 4.87-53.108 31.687-52.9 62.11-1.41.044-2.83.166-4.26.39-18.658 2.927-31.406 20.404-28.473 39.033 1.945 12.354 10.302 22.106 21.15 26.424-15.04 8.436-24.005 25.582-21.168 43.596 3.58 22.736 24.623 38.397 47.34 35.505.008 2.447.203 4.926.596 7.42 4.173 26.503 29.077 44.61 55.624 40.445 6.605-1.037 12.69-3.356 18.038-6.66 13.342 7.794 29.36 11.215 45.822 8.632 28.08-4.407 49.562-25.04 56.38-50.824.168-.024.335-.046.502-.072 27.222-4.272 46.053-28.28 42.064-53.62-1.305-8.283-4.888-15.684-10.07-21.746 12.474-6.22 20.058-19.98 17.778-34.466z"/></defs><clipPath id="z"><use xlink:href="#y" overflow="visible"/></clipPath><g clip-path="url(#z)"><path fill="#fff" d="M319.11 638.32c1.444.68 1.464 1.807.044 2.5l-17.398 8.503c-1.42.693-3.763.703-5.207.02l-10.375-4.9c-1.444-.682-3.898-1.493-5.454-1.804-1.554-.31-6.286 1.125-7.706 1.82l-18.607 9.092c-1.42.694-3.763.704-5.207.022l-40.835-19.286c-1.445-.682-1.465-1.808-.045-2.5l45.07-22.026c1.42-.694 3.763-.704 5.208-.022l60.51 28.58z"/><path fill="#DCDDDE" stroke="#000" stroke-width="2.611" stroke-linecap="round" stroke-linejoin="round" stroke-miterlimit="10" d="M319.11 638.32c1.444.68 1.464 1.807.044 2.5l-17.398 8.503c-1.42.693-3.763.703-5.207.02l-10.375-4.9c-1.444-.682-3.898-1.493-5.454-1.804-1.554-.31-6.286 1.125-7.706 1.82l-18.607 9.092c-1.42.694-3.763.704-5.207.022l-40.835-19.286c-1.445-.682-1.465-1.808-.045-2.5l45.07-22.026c1.42-.694 3.763-.704 5.208-.022l60.51 28.58z"/></g><defs><path id="A" d="M413.344 505.174c-2.55-16.2-16.56-27.754-32.486-27.733-.036-2.928-.278-5.89-.747-8.87-5.068-32.19-34.316-54.58-66.363-51.638-5.698-13.647-20.165-22.174-35.447-19.776-9.67 1.517-17.682 7.103-22.578 14.73-9.55-3.418-20.073-4.563-30.803-2.88-31.015 4.87-53.108 31.687-52.9 62.11-1.41.044-2.83.166-4.26.39-18.658 2.927-31.406 20.404-28.473 39.033 1.945 12.354 10.302 22.106 21.15 26.424-15.04 8.436-24.005 25.582-21.168 43.596 3.58 22.736 24.623 38.397 47.34 35.505.008 2.447.203 4.926.596 7.42 4.173 26.503 29.077 44.61 55.624 40.445 6.605-1.037 12.69-3.356 18.038-6.66 13.342 7.794 29.36 11.215 45.822 8.632 28.08-4.407 49.562-25.04 56.38-50.824.168-.024.335-.046.502-.072 27.222-4.272 46.053-28.28 42.064-53.62-1.305-8.283-4.888-15.684-10.07-21.746 12.474-6.22 20.058-19.98 17.778-34.466z"/></defs><clipPath id="B"><use xlink:href="#A" overflow="visible"/></clipPath><path clip-path="url(#B)" d="M277.335 570.302l2.542 6.346-13.25-1.113z"/><defs><path id="C" d="M413.344 505.174c-2.55-16.2-16.56-27.754-32.486-27.733-.036-2.928-.278-5.89-.747-8.87-5.068-32.19-34.316-54.58-66.363-51.638-5.698-13.647-20.165-22.174-35.447-19.776-9.67 1.517-17.682 7.103-22.578 14.73-9.55-3.418-20.073-4.563-30.803-2.88-31.015 4.87-53.108 31.687-52.9 62.11-1.41.044-2.83.166-4.26.39-18.658 2.927-31.406 20.404-28.473 39.033 1.945 12.354 10.302 22.106 21.15 26.424-15.04 8.436-24.005 25.582-21.168 43.596 3.58 22.736 24.623 38.397 47.34 35.505.008 2.447.203 4.926.596 7.42 4.173 26.503 29.077 44.61 55.624 40.445 6.605-1.037 12.69-3.356 18.038-6.66 13.342 7.794 29.36 11.215 45.822 8.632 28.08-4.407 49.562-25.04 56.38-50.824.168-.024.335-.046.502-.072 27.222-4.272 46.053-28.28 42.064-53.62-1.305-8.283-4.888-15.684-10.07-21.746 12.474-6.22 20.058-19.98 17.778-34.466z"/></defs><clipPath id="D"><use xlink:href="#C" overflow="visible"/></clipPath><path clip-path="url(#D)" d="M238.41 560.09l13.208-1.22-2.316 6.364z"/><defs><path id="E" d="M413.344 505.174c-2.55-16.2-16.56-27.754-32.486-27.733-.036-2.928-.278-5.89-.747-8.87-5.068-32.19-34.316-54.58-66.363-51.638-5.698-13.647-20.165-22.174-35.447-19.776-9.67 1.517-17.682 7.103-22.578 14.73-9.55-3.418-20.073-4.563-30.803-2.88-31.015 4.87-53.108 31.687-52.9 62.11-1.41.044-2.83.166-4.26.39-18.658 2.927-31.406 20.404-28.473 39.033 1.945 12.354 10.302 22.106 21.15 26.424-15.04 8.436-24.005 25.582-21.168 43.596 3.58 22.736 24.623 38.397 47.34 35.505.008 2.447.203 4.926.596 7.42 4.173 26.503 29.077 44.61 55.624 40.445 6.605-1.037 12.69-3.356 18.038-6.66 13.342 7.794 29.36 11.215 45.822 8.632 28.08-4.407 49.562-25.04 56.38-50.824.168-.024.335-.046.502-.072 27.222-4.272 46.053-28.28 42.064-53.62-1.305-8.283-4.888-15.684-10.07-21.746 12.474-6.22 20.058-19.98 17.778-34.466z"/></defs><clipPath id="F"><use xlink:href="#E" overflow="visible"/></clipPath><path clip-path="url(#F)" d="M226.867 576.197l-13.208 1.222 2.316-6.366z"/><defs><path id="G" d="M413.344 505.174c-2.55-16.2-16.56-27.754-32.486-27.733-.036-2.928-.278-5.89-.747-8.87-5.068-32.19-34.316-54.58-66.363-51.638-5.698-13.647-20.165-22.174-35.447-19.776-9.67 1.517-17.682 7.103-22.578 14.73-9.55-3.418-20.073-4.563-30.803-2.88-31.015 4.87-53.108 31.687-52.9 62.11-1.41.044-2.83.166-4.26.39-18.658 2.927-31.406 20.404-28.473 39.033 1.945 12.354 10.302 22.106 21.15 26.424-15.04 8.436-24.005 25.582-21.168 43.596 3.58 22.736 24.623 38.397 47.34 35.505.008 2.447.203 4.926.596 7.42 4.173 26.503 29.077 44.61 55.624 40.445 6.605-1.037 12.69-3.356 18.038-6.66 13.342 7.794 29.36 11.215 45.822 8.632 28.08-4.407 49.562-25.04 56.38-50.824.168-.024.335-.046.502-.072 27.222-4.272 46.053-28.28 42.064-53.62-1.305-8.283-4.888-15.684-10.07-21.746 12.474-6.22 20.058-19.98 17.778-34.466z"/></defs><clipPath id="H"><use xlink:href="#G" overflow="visible"/></clipPath><path clip-path="url(#H)" d="M226.684 546.38l-13.25-1.11 2.544 6.344z"/><defs><path id="I" d="M413.344 505.174c-2.55-16.2-16.56-27.754-32.486-27.733-.036-2.928-.278-5.89-.747-8.87-5.068-32.19-34.316-54.58-66.363-51.638-5.698-13.647-20.165-22.174-35.447-19.776-9.67 1.517-17.682 7.103-22.578 14.73-9.55-3.418-20.073-4.563-30.803-2.88-31.015 4.87-53.108 31.687-52.9 62.11-1.41.044-2.83.166-4.26.39-18.658 2.927-31.406 20.404-28.473 39.033 1.945 12.354 10.302 22.106 21.15 26.424-15.04 8.436-24.005 25.582-21.168 43.596 3.58 22.736 24.623 38.397 47.34 35.505.008 2.447.203 4.926.596 7.42 4.173 26.503 29.077 44.61 55.624 40.445 6.605-1.037 12.69-3.356 18.038-6.66 13.342 7.794 29.36 11.215 45.822 8.632 28.08-4.407 49.562-25.04 56.38-50.824.168-.024.335-.046.502-.072 27.222-4.272 46.053-28.28 42.064-53.62-1.305-8.283-4.888-15.684-10.07-21.746 12.474-6.22 20.058-19.98 17.778-34.466z"/></defs><clipPath id="J"><use xlink:href="#I" overflow="visible"/></clipPath><path clip-path="url(#J)" fill="#fff" stroke="#000" stroke-width="2.611" stroke-linecap="round" stroke-linejoin="round" stroke-miterlimit="10" d="M188.91 527.97c-7.252-7.114-1.942-10.914 4.757-18.6 5.06-5.8 18.263-18.744 18.263-18.744 3.132-3.847 7.968-5.918 12.36-7.564 4.39-1.645 33.788-11.453 35.093-11.426 8.783-3.29 47.355 5.8 70.24-5.02 22.884-10.816 46.65-27.86 46.65-27.86"/><defs><path id="K" d="M413.344 505.174c-2.55-16.2-16.56-27.754-32.486-27.733-.036-2.928-.278-5.89-.747-8.87-5.068-32.19-34.316-54.58-66.363-51.638-5.698-13.647-20.165-22.174-35.447-19.776-9.67 1.517-17.682 7.103-22.578 14.73-9.55-3.418-20.073-4.563-30.803-2.88-31.015 4.87-53.108 31.687-52.9 62.11-1.41.044-2.83.166-4.26.39-18.658 2.927-31.406 20.404-28.473 39.033 1.945 12.354 10.302 22.106 21.15 26.424-15.04 8.436-24.005 25.582-21.168 43.596 3.58 22.736 24.623 38.397 47.34 35.505.008 2.447.203 4.926.596 7.42 4.173 26.503 29.077 44.61 55.624 40.445 6.605-1.037 12.69-3.356 18.038-6.66 13.342 7.794 29.36 11.215 45.822 8.632 28.08-4.407 49.562-25.04 56.38-50.824.168-.024.335-.046.502-.072 27.222-4.272 46.053-28.28 42.064-53.62-1.305-8.283-4.888-15.684-10.07-21.746 12.474-6.22 20.058-19.98 17.778-34.466z"/></defs><clipPath id="L"><use xlink:href="#K" overflow="visible"/></clipPath><path clip-path="url(#L)" fill="#fff" stroke="#000" stroke-width="2.611" stroke-linecap="round" stroke-linejoin="round" stroke-miterlimit="10" d="M251.735 482.034c-10.522 5.167-27.84 12.782-35.608 19.74-5.734 5.135-31.95 23.77-36.893 28.558-12.54 7.276-4.292 28.406 13.1 14.552l32.326-19.77 49.886-24.77"/><defs><path id="M" d="M413.344 505.174c-2.55-16.2-16.56-27.754-32.486-27.733-.036-2.928-.278-5.89-.747-8.87-5.068-32.19-34.316-54.58-66.363-51.638-5.698-13.647-20.165-22.174-35.447-19.776-9.67 1.517-17.682 7.103-22.578 14.73-9.55-3.418-20.073-4.563-30.803-2.88-31.015 4.87-53.108 31.687-52.9 62.11-1.41.044-2.83.166-4.26.39-18.658 2.927-31.406 20.404-28.473 39.033 1.945 12.354 10.302 22.106 21.15 26.424-15.04 8.436-24.005 25.582-21.168 43.596 3.58 22.736 24.623 38.397 47.34 35.505.008 2.447.203 4.926.596 7.42 4.173 26.503 29.077 44.61 55.624 40.445 6.605-1.037 12.69-3.356 18.038-6.66 13.342 7.794 29.36 11.215 45.822 8.632 28.08-4.407 49.562-25.04 56.38-50.824.168-.024.335-.046.502-.072 27.222-4.272 46.053-28.28 42.064-53.62-1.305-8.283-4.888-15.684-10.07-21.746 12.474-6.22 20.058-19.98 17.778-34.466z"/></defs><clipPath id="N"><use xlink:href="#M" overflow="visible"/></clipPath><path clip-path="url(#N)" fill="#fff" stroke="#000" stroke-width="2.611" stroke-linecap="round" stroke-linejoin="round" stroke-miterlimit="10" d="M281.496 490.708l-35.72 23.584c-6.53 4.204-10.786 9.504-12.4 12.492l-20.28 32.536c-8.25 11.877 9.207 23.424 20.78 8.212 0 0 23.443-28.807 24.682-29.405 4.737-2.286 27.42-14.356 27.42-14.356 19.958-9.137 27.02 2.06 36.935 4.932l18.975-13.876"/><defs><path id="O" d="M413.344 505.174c-2.55-16.2-16.56-27.754-32.486-27.733-.036-2.928-.278-5.89-.747-8.87-5.068-32.19-34.316-54.58-66.363-51.638-5.698-13.647-20.165-22.174-35.447-19.776-9.67 1.517-17.682 7.103-22.578 14.73-9.55-3.418-20.073-4.563-30.803-2.88-31.015 4.87-53.108 31.687-52.9 62.11-1.41.044-2.83.166-4.26.39-18.658 2.927-31.406 20.404-28.473 39.033 1.945 12.354 10.302 22.106 21.15 26.424-15.04 8.436-24.005 25.582-21.168 43.596 3.58 22.736 24.623 38.397 47.34 35.505.008 2.447.203 4.926.596 7.42 4.173 26.503 29.077 44.61 55.624 40.445 6.605-1.037 12.69-3.356 18.038-6.66 13.342 7.794 29.36 11.215 45.822 8.632 28.08-4.407 49.562-25.04 56.38-50.824.168-.024.335-.046.502-.072 27.222-4.272 46.053-28.28 42.064-53.62-1.305-8.283-4.888-15.684-10.07-21.746 12.474-6.22 20.058-19.98 17.778-34.466z"/></defs><clipPath id="P"><use xlink:href="#O" overflow="visible"/></clipPath><path clip-path="url(#P)" fill="#fff" stroke="#000" stroke-width="2.611" stroke-linecap="round" stroke-linejoin="round" stroke-miterlimit="10" d="M322.044 518.257c.435 6.523-2.777 12.907-12.634 21.622-9.718 8.592-20.824 15.523-20.824 15.523-19.16 12.475-10.83 35.483 12.495 23.286l35.21-21.43c16.115-8.26 27.04-26.502 32.664-45.22 1.307-4.348 41.052-26.505 41.052-26.505"/><path fill="#fff" d="M138.344 505.174c-2.55-16.2-16.56-27.754-32.486-27.733-.036-2.928-.278-5.89-.747-8.87-5.068-32.19-34.316-54.58-66.363-51.638C33.05 403.285 18.58 394.758 3.3 397.156c-9.67 1.517-17.683 7.103-22.58 14.73-9.55-3.418-20.072-4.563-30.802-2.88-31.014 4.87-53.107 31.687-52.9 62.11-1.41.044-2.83.166-4.258.39-18.658 2.93-31.406 20.404-28.473 39.033 1.945 12.354 10.302 22.106 21.15 26.424-15.04 8.436-24.006 25.582-21.168 43.596 3.58 22.736 24.623 38.397 47.34 35.505.008 2.447.203 4.926.596 7.42 4.173 26.503 29.077 44.61 55.624 40.445 6.605-1.037 12.69-3.356 18.038-6.66 13.342 7.794 29.36 11.215 45.822 8.632 28.08-4.407 49.562-25.04 56.38-50.824.168-.024.335-.046.502-.072 27.222-4.272 46.054-28.28 42.064-53.62-1.305-8.283-4.888-15.684-10.07-21.746 12.474-6.22 20.058-19.98 17.778-34.466z"/><defs><path id="Q" d="M138.344 505.174c-2.55-16.2-16.56-27.754-32.486-27.733-.036-2.928-.278-5.89-.747-8.87-5.068-32.19-34.316-54.58-66.363-51.638C33.05 403.285 18.58 394.758 3.3 397.156c-9.67 1.517-17.683 7.103-22.58 14.73-9.55-3.418-20.072-4.563-30.802-2.88-31.014 4.87-53.107 31.687-52.9 62.11-1.41.044-2.83.166-4.258.39-18.658 2.93-31.406 20.404-28.473 39.033 1.945 12.354 10.302 22.106 21.15 26.424-15.04 8.436-24.006 25.582-21.168 43.596 3.58 22.736 24.623 38.397 47.34 35.505.008 2.447.203 4.926.596 7.42 4.173 26.503 29.077 44.61 55.624 40.445 6.605-1.037 12.69-3.356 18.038-6.66 13.342 7.794 29.36 11.215 45.822 8.632 28.08-4.407 49.562-25.04 56.38-50.824.168-.024.335-.046.502-.072 27.222-4.272 46.054-28.28 42.064-53.62-1.305-8.283-4.888-15.684-10.07-21.746 12.474-6.22 20.058-19.98 17.778-34.466z"/></defs><clipPath id="R"><use xlink:href="#Q" overflow="visible"/></clipPath><path clip-path="url(#R)" fill="#DCDDDE" stroke="#000" stroke-width="2.611" stroke-linecap="round" stroke-linejoin="round" stroke-miterlimit="10" d="M-133.496 486.02l308.662 146.627L58.09 685.614l-173.26-17.465-42.482-127.24z"/><defs><path id="S" d="M138.344 505.174c-2.55-16.2-16.56-27.754-32.486-27.733-.036-2.928-.278-5.89-.747-8.87-5.068-32.19-34.316-54.58-66.363-51.638C33.05 403.285 18.58 394.758 3.3 397.156c-9.67 1.517-17.683 7.103-22.58 14.73-9.55-3.418-20.072-4.563-30.802-2.88-31.014 4.87-53.107 31.687-52.9 62.11-1.41.044-2.83.166-4.258.39-18.658 2.93-31.406 20.404-28.473 39.033 1.945 12.354 10.302 22.106 21.15 26.424-15.04 8.436-24.006 25.582-21.168 43.596 3.58 22.736 24.623 38.397 47.34 35.505.008 2.447.203 4.926.596 7.42 4.173 26.503 29.077 44.61 55.624 40.445 6.605-1.037 12.69-3.356 18.038-6.66 13.342 7.794 29.36 11.215 45.822 8.632 28.08-4.407 49.562-25.04 56.38-50.824.168-.024.335-.046.502-.072 27.222-4.272 46.054-28.28 42.064-53.62-1.305-8.283-4.888-15.684-10.07-21.746 12.474-6.22 20.058-19.98 17.778-34.466z"/></defs><clipPath id="T"><use xlink:href="#S" overflow="visible"/></clipPath><g clip-path="url(#T)"><path fill="#fff" d="M-101.133 542.84c1.445.68 1.465 1.807.045 2.5l-17.43 8.518c-1.42.694-3.762.704-5.207.02l-17.73-8.373c-1.445-.682-1.466-1.808-.046-2.5l17.43-8.518c1.42-.694 3.762-.704 5.206-.022l17.73 8.374z"/><path fill="#DCDDDE" stroke="#000" stroke-width="2.611" stroke-linecap="round" stroke-linejoin="round" stroke-miterlimit="10" d="M-101.133 542.84c1.445.68 1.465 1.807.045 2.5l-17.43 8.518c-1.42.694-3.762.704-5.207.02l-17.73-8.373c-1.445-.682-1.466-1.808-.046-2.5l17.43-8.518c1.42-.694 3.762-.704 5.206-.022l17.73 8.374z"/></g><defs><path id="U" d="M138.344 505.174c-2.55-16.2-16.56-27.754-32.486-27.733-.036-2.928-.278-5.89-.747-8.87-5.068-32.19-34.316-54.58-66.363-51.638C33.05 403.285 18.58 394.758 3.3 397.156c-9.67 1.517-17.683 7.103-22.58 14.73-9.55-3.418-20.072-4.563-30.802-2.88-31.014 4.87-53.107 31.687-52.9 62.11-1.41.044-2.83.166-4.258.39-18.658 2.93-31.406 20.404-28.473 39.033 1.945 12.354 10.302 22.106 21.15 26.424-15.04 8.436-24.006 25.582-21.168 43.596 3.58 22.736 24.623 38.397 47.34 35.505.008 2.447.203 4.926.596 7.42 4.173 26.503 29.077 44.61 55.624 40.445 6.605-1.037 12.69-3.356 18.038-6.66 13.342 7.794 29.36 11.215 45.822 8.632 28.08-4.407 49.562-25.04 56.38-50.824.168-.024.335-.046.502-.072 27.222-4.272 46.054-28.28 42.064-53.62-1.305-8.283-4.888-15.684-10.07-21.746 12.474-6.22 20.058-19.98 17.778-34.466z"/></defs><clipPath id="V"><use xlink:href="#U" overflow="visible"/></clipPath><path fill="#DCDDDE" stroke="#000" stroke-width="2.611" stroke-linecap="round" stroke-linejoin="round" stroke-miterlimit="10" d="M20.016 573.28c1.445.684 1.465 1.81.045 2.502L2.63 584.3c-1.42.694-3.763.704-5.207.022l-17.73-8.374c-1.445-.682-1.465-1.808-.045-2.502l17.43-8.517c1.42-.695 3.763-.705 5.207-.023l17.73 8.374z" clip-path="url(#V)"/><defs><path id="W" d="M138.344 505.174c-2.55-16.2-16.56-27.754-32.486-27.733-.036-2.928-.278-5.89-.747-8.87-5.068-32.19-34.316-54.58-66.363-51.638C33.05 403.285 18.58 394.758 3.3 397.156c-9.67 1.517-17.683 7.103-22.58 14.73-9.55-3.418-20.072-4.563-30.802-2.88-31.014 4.87-53.107 31.687-52.9 62.11-1.41.044-2.83.166-4.258.39-18.658 2.93-31.406 20.404-28.473 39.033 1.945 12.354 10.302 22.106 21.15 26.424-15.04 8.436-24.006 25.582-21.168 43.596 3.58 22.736 24.623 38.397 47.34 35.505.008 2.447.203 4.926.596 7.42 4.173 26.503 29.077 44.61 55.624 40.445 6.605-1.037 12.69-3.356 18.038-6.66 13.342 7.794 29.36 11.215 45.822 8.632 28.08-4.407 49.562-25.04 56.38-50.824.168-.024.335-.046.502-.072 27.222-4.272 46.054-28.28 42.064-53.62-1.305-8.283-4.888-15.684-10.07-21.746 12.474-6.22 20.058-19.98 17.778-34.466z"/></defs><clipPath id="X"><use xlink:href="#W" overflow="visible"/></clipPath><g clip-path="url(#X)" stroke="#000" stroke-linecap="round" stroke-linejoin="round" stroke-miterlimit="10"><path fill="#DCDDDE" stroke-width="2.611" d="M-36.865 546.416c1.445.682 1.464 1.808.044 2.5l-17.43 8.52c-1.42.693-3.764.703-5.208.02l-17.73-8.373c-1.445-.682-1.465-1.808-.045-2.5l17.43-8.52c1.42-.693 3.763-.703 5.207-.02l17.73 8.373z"/><path stroke-width="2.308" d="M-36.865 546.416c1.445.682 1.464 1.808.044 2.5l-17.43 8.52c-1.42.693-3.764.703-5.208.02l-17.73-8.373c-1.445-.682-1.465-1.808-.045-2.5l17.43-8.52c1.42-.693 3.763-.703 5.207-.02l17.73 8.373z" fill="none"/><path stroke-width="2.308" d="M20.016 573.28c1.445.684 1.465 1.81.045 2.502L2.63 584.3c-1.42.694-3.763.704-5.207.022l-17.73-8.374c-1.445-.682-1.465-1.808-.045-2.502l17.43-8.517c1.42-.695 3.763-.705 5.207-.023l17.73 8.374z" fill="none"/></g><defs><path id="Y" d="M138.344 505.174c-2.55-16.2-16.56-27.754-32.486-27.733-.036-2.928-.278-5.89-.747-8.87-5.068-32.19-34.316-54.58-66.363-51.638C33.05 403.285 18.58 394.758 3.3 397.156c-9.67 1.517-17.683 7.103-22.58 14.73-9.55-3.418-20.072-4.563-30.802-2.88-31.014 4.87-53.107 31.687-52.9 62.11-1.41.044-2.83.166-4.258.39-18.658 2.93-31.406 20.404-28.473 39.033 1.945 12.354 10.302 22.106 21.15 26.424-15.04 8.436-24.006 25.582-21.168 43.596 3.58 22.736 24.623 38.397 47.34 35.505.008 2.447.203 4.926.596 7.42 4.173 26.503 29.077 44.61 55.624 40.445 6.605-1.037 12.69-3.356 18.038-6.66 13.342 7.794 29.36 11.215 45.822 8.632 28.08-4.407 49.562-25.04 56.38-50.824.168-.024.335-.046.502-.072 27.222-4.272 46.054-28.28 42.064-53.62-1.305-8.283-4.888-15.684-10.07-21.746 12.474-6.22 20.058-19.98 17.778-34.466z"/></defs><clipPath id="Z"><use xlink:href="#Y" overflow="visible"/></clipPath><g clip-path="url(#Z)"><path fill="#fff" d="M-8.4 559.86c1.445.683 1.465 1.808.045 2.502l-17.43 8.517c-1.42.693-3.762.703-5.206.02l-17.732-8.372c-1.445-.682-1.465-1.808-.045-2.502l17.43-8.518c1.42-.694 3.764-.704 5.208-.02l17.73 8.372z"/><path fill="#DCDDDE" stroke="#000" stroke-width="2.611" stroke-linecap="round" stroke-linejoin="round" stroke-miterlimit="10" d="M-8.4 559.86c1.445.683 1.465 1.808.045 2.502l-17.43 8.517c-1.42.693-3.762.703-5.206.02l-17.732-8.372c-1.445-.682-1.465-1.808-.045-2.502l17.43-8.518c1.42-.694 3.764-.704 5.208-.02l17.73 8.372z"/></g><defs><path id="aa" d="M138.344 505.174c-2.55-16.2-16.56-27.754-32.486-27.733-.036-2.928-.278-5.89-.747-8.87-5.068-32.19-34.316-54.58-66.363-51.638C33.05 403.285 18.58 394.758 3.3 397.156c-9.67 1.517-17.683 7.103-22.58 14.73-9.55-3.418-20.072-4.563-30.802-2.88-31.014 4.87-53.107 31.687-52.9 62.11-1.41.044-2.83.166-4.258.39-18.658 2.93-31.406 20.404-28.473 39.033 1.945 12.354 10.302 22.106 21.15 26.424-15.04 8.436-24.006 25.582-21.168 43.596 3.58 22.736 24.623 38.397 47.34 35.505.008 2.447.203 4.926.596 7.42 4.173 26.503 29.077 44.61 55.624 40.445 6.605-1.037 12.69-3.356 18.038-6.66 13.342 7.794 29.36 11.215 45.822 8.632 28.08-4.407 49.562-25.04 56.38-50.824.168-.024.335-.046.502-.072 27.222-4.272 46.054-28.28 42.064-53.62-1.305-8.283-4.888-15.684-10.07-21.746 12.474-6.22 20.058-19.98 17.778-34.466z"/></defs><clipPath id="ab"><use xlink:href="#aa" overflow="visible"/></clipPath><g clip-path="url(#ab)"><path fill="#FFE300" d="M-36.644 573.663c1.444.682 1.465 1.808.044 2.5l-17.43 8.52c-1.42.693-3.763.703-5.207.02l-17.73-8.373c-1.445-.682-1.465-1.808-.045-2.5l17.43-8.52c1.42-.693 3.762-.703 5.207-.02l17.73 8.373z"/><path stroke="#000" stroke-width="2.308" stroke-linecap="round" stroke-linejoin="round" stroke-miterlimit="10" d="M-36.644 573.663c1.444.682 1.465 1.808.044 2.5l-17.43 8.52c-1.42.693-3.763.703-5.207.02l-17.73-8.373c-1.445-.682-1.465-1.808-.045-2.5l17.43-8.52c1.42-.693 3.762-.703 5.207-.02l17.73 8.373z" fill="none"/></g><defs><path id="ac" d="M138.344 505.174c-2.55-16.2-16.56-27.754-32.486-27.733-.036-2.928-.278-5.89-.747-8.87-5.068-32.19-34.316-54.58-66.363-51.638C33.05 403.285 18.58 394.758 3.3 397.156c-9.67 1.517-17.683 7.103-22.58 14.73-9.55-3.418-20.072-4.563-30.802-2.88-31.014 4.87-53.107 31.687-52.9 62.11-1.41.044-2.83.166-4.258.39-18.658 2.93-31.406 20.404-28.473 39.033 1.945 12.354 10.302 22.106 21.15 26.424-15.04 8.436-24.006 25.582-21.168 43.596 3.58 22.736 24.623 38.397 47.34 35.505.008 2.447.203 4.926.596 7.42 4.173 26.503 29.077 44.61 55.624 40.445 6.605-1.037 12.69-3.356 18.038-6.66 13.342 7.794 29.36 11.215 45.822 8.632 28.08-4.407 49.562-25.04 56.38-50.824.168-.024.335-.046.502-.072 27.222-4.272 46.054-28.28 42.064-53.62-1.305-8.283-4.888-15.684-10.07-21.746 12.474-6.22 20.058-19.98 17.778-34.466z"/></defs><clipPath id="ad"><use xlink:href="#ac" overflow="visible"/></clipPath><g clip-path="url(#ad)"><path fill="#fff" d="M113.77 644.42c1.444.68 1.463 1.807.044 2.5l-17.43 8.518c-1.42.694-3.764.704-5.208.022l-17.73-8.374c-1.444-.682-1.464-1.808-.044-2.5l17.43-8.52c1.42-.693 3.763-.703 5.207-.02l17.73 8.373z"/><path fill="#DCDDDE" stroke="#000" stroke-width="2.611" stroke-linecap="round" stroke-linejoin="round" stroke-miterlimit="10" d="M113.77 644.42c1.444.68 1.463 1.807.044 2.5l-17.43 8.518c-1.42.694-3.764.704-5.208.022l-17.73-8.374c-1.444-.682-1.464-1.808-.044-2.5l17.43-8.52c1.42-.693 3.763-.703 5.207-.02l17.73 8.373z"/><path fill="#DCDDDE" stroke="#000" stroke-width="2.611" stroke-linecap="round" stroke-linejoin="round" stroke-miterlimit="10" d="M72.675 652.735c1.445.682 1.465 1.808.045 2.5l-17.43 8.52c-1.42.693-3.763.703-5.208.02l-17.73-8.373c-1.445-.682-1.465-1.808-.044-2.5l17.43-8.52c1.42-.693 3.763-.703 5.207-.02l17.73 8.373z"/><path fill="#DCDDDE" stroke="#000" stroke-width="2.611" stroke-linecap="round" stroke-linejoin="round" stroke-miterlimit="10" d="M25.75 656.894c1.445.682 1.466 1.808.046 2.5l-17.43 8.52c-1.42.693-3.763.703-5.207.02l-17.73-8.373c-1.446-.682-1.465-1.807-.045-2.5l17.43-8.518c1.42-.694 3.762-.704 5.207-.022l17.73 8.374z"/><path fill="#DCDDDE" stroke="#000" stroke-width="2.611" stroke-linecap="round" stroke-linejoin="round" stroke-miterlimit="10" d="M52.962 671.31c1.444.68 1.464 1.806.045 2.5l-17.43 8.518c-1.42.694-3.763.704-5.207.022l-17.73-8.374c-1.445-.682-1.465-1.808-.045-2.5l17.43-8.52c1.42-.693 3.762-.703 5.207-.02l17.73 8.373z"/></g><defs><path id="ae" d="M138.344 505.174c-2.55-16.2-16.56-27.754-32.486-27.733-.036-2.928-.278-5.89-.747-8.87-5.068-32.19-34.316-54.58-66.363-51.638C33.05 403.285 18.58 394.758 3.3 397.156c-9.67 1.517-17.683 7.103-22.58 14.73-9.55-3.418-20.072-4.563-30.802-2.88-31.014 4.87-53.107 31.687-52.9 62.11-1.41.044-2.83.166-4.258.39-18.658 2.93-31.406 20.404-28.473 39.033 1.945 12.354 10.302 22.106 21.15 26.424-15.04 8.436-24.006 25.582-21.168 43.596 3.58 22.736 24.623 38.397 47.34 35.505.008 2.447.203 4.926.596 7.42 4.173 26.503 29.077 44.61 55.624 40.445 6.605-1.037 12.69-3.356 18.038-6.66 13.342 7.794 29.36 11.215 45.822 8.632 28.08-4.407 49.562-25.04 56.38-50.824.168-.024.335-.046.502-.072 27.222-4.272 46.054-28.28 42.064-53.62-1.305-8.283-4.888-15.684-10.07-21.746 12.474-6.22 20.058-19.98 17.778-34.466z"/></defs><clipPath id="af"><use xlink:href="#ae" overflow="visible"/></clipPath><g clip-path="url(#af)"><path fill="#fff" d="M29.216 604.486c1.445.682 1.465 1.808.045 2.5l-17.43 8.52c-1.42.693-3.76.703-5.206.02l-17.73-8.373c-1.445-.682-1.464-1.808-.044-2.5l17.43-8.52c1.42-.694 3.762-.703 5.207-.02l17.73 8.373z"/><path fill="#DCDDDE" stroke="#000" stroke-width="2.611" stroke-linecap="round" stroke-linejoin="round" stroke-miterlimit="10" d="M29.216 604.486c1.445.682 1.465 1.808.045 2.5l-17.43 8.52c-1.42.693-3.76.703-5.206.02l-17.73-8.373c-1.445-.682-1.464-1.808-.044-2.5l17.43-8.52c1.42-.694 3.762-.703 5.207-.02l17.73 8.373z"/><path fill="#DCDDDE" stroke="#000" stroke-width="2.611" stroke-linecap="round" stroke-linejoin="round" stroke-miterlimit="10" d="M-128.634 502.195c1.445.682 1.465 1.808.045 2.5l-17.43 8.52c-1.42.693-3.76.703-5.206.02l-17.73-8.373c-1.445-.682-1.464-1.808-.044-2.5l17.43-8.52c1.42-.694 3.762-.703 5.207-.02l17.73 8.373z"/><path fill="#DCDDDE" stroke="#000" stroke-width="2.611" stroke-linecap="round" stroke-linejoin="round" stroke-miterlimit="10" d="M-29.914 657.5c1.444.682 1.465 1.808.045 2.5l-17.43 8.52c-1.42.693-3.76.703-5.206.02l-41.065-19.665c-1.446-.682-1.465-1.808-.045-2.5l17.43-8.52c1.42-.694 3.762-.703 5.207-.02l41.064 19.665z"/></g><defs><path id="ag" d="M138.344 505.174c-2.55-16.2-16.56-27.754-32.486-27.733-.036-2.928-.278-5.89-.747-8.87-5.068-32.19-34.316-54.58-66.363-51.638C33.05 403.285 18.58 394.758 3.3 397.156c-9.67 1.517-17.683 7.103-22.58 14.73-9.55-3.418-20.072-4.563-30.802-2.88-31.014 4.87-53.107 31.687-52.9 62.11-1.41.044-2.83.166-4.258.39-18.658 2.93-31.406 20.404-28.473 39.033 1.945 12.354 10.302 22.106 21.15 26.424-15.04 8.436-24.006 25.582-21.168 43.596 3.58 22.736 24.623 38.397 47.34 35.505.008 2.447.203 4.926.596 7.42 4.173 26.503 29.077 44.61 55.624 40.445 6.605-1.037 12.69-3.356 18.038-6.66 13.342 7.794 29.36 11.215 45.822 8.632 28.08-4.407 49.562-25.04 56.38-50.824.168-.024.335-.046.502-.072 27.222-4.272 46.054-28.28 42.064-53.62-1.305-8.283-4.888-15.684-10.07-21.746 12.474-6.22 20.058-19.98 17.778-34.466z"/></defs><clipPath id="ah"><use xlink:href="#ag" overflow="visible"/></clipPath><path fill="#DCDDDE" stroke="#000" stroke-width="2.611" stroke-linecap="round" stroke-linejoin="round" stroke-miterlimit="10" d="M-73.304 529.207c1.444.682 1.465 1.808.045 2.5l-17.43 8.52c-1.42.693-3.762.703-5.206.02l-46.113-21.777c-1.444-.682-1.464-1.808-.044-2.5l17.43-8.52c1.42-.693 3.763-.703 5.207-.02l46.113 21.777z" clip-path="url(#ah)"/><defs><path id="ai" d="M138.344 505.174c-2.55-16.2-16.56-27.754-32.486-27.733-.036-2.928-.278-5.89-.747-8.87-5.068-32.19-34.316-54.58-66.363-51.638C33.05 403.285 18.58 394.758 3.3 397.156c-9.67 1.517-17.683 7.103-22.58 14.73-9.55-3.418-20.072-4.563-30.802-2.88-31.014 4.87-53.107 31.687-52.9 62.11-1.41.044-2.83.166-4.258.39-18.658 2.93-31.406 20.404-28.473 39.033 1.945 12.354 10.302 22.106 21.15 26.424-15.04 8.436-24.006 25.582-21.168 43.596 3.58 22.736 24.623 38.397 47.34 35.505.008 2.447.203 4.926.596 7.42 4.173 26.503 29.077 44.61 55.624 40.445 6.605-1.037 12.69-3.356 18.038-6.66 13.342 7.794 29.36 11.215 45.822 8.632 28.08-4.407 49.562-25.04 56.38-50.824.168-.024.335-.046.502-.072 27.222-4.272 46.054-28.28 42.064-53.62-1.305-8.283-4.888-15.684-10.07-21.746 12.474-6.22 20.058-19.98 17.778-34.466z"/></defs><clipPath id="aj"><use xlink:href="#ai" overflow="visible"/></clipPath><g clip-path="url(#aj)"><path fill="#fff" d="M70.733 597.41c1.445.683 1.465 1.81.045 2.502l-17.43 8.518c-1.42.694-3.762.704-5.207.022l-31.48-14.868c-1.444-.682-1.464-1.808-.044-2.5l17.43-8.52c1.42-.693 3.762-.703 5.207-.02l31.48 14.867z"/><path fill="#DCDDDE" stroke="#000" stroke-width="2.611" stroke-linecap="round" stroke-linejoin="round" stroke-miterlimit="10" d="M70.733 597.41c1.445.683 1.465 1.81.045 2.502l-17.43 8.518c-1.42.694-3.762.704-5.207.022l-31.48-14.868c-1.444-.682-1.464-1.808-.044-2.5l17.43-8.52c1.42-.693 3.762-.703 5.207-.02l31.48 14.867z"/></g><defs><path id="ak" d="M138.344 505.174c-2.55-16.2-16.56-27.754-32.486-27.733-.036-2.928-.278-5.89-.747-8.87-5.068-32.19-34.316-54.58-66.363-51.638C33.05 403.285 18.58 394.758 3.3 397.156c-9.67 1.517-17.683 7.103-22.58 14.73-9.55-3.418-20.072-4.563-30.802-2.88-31.014 4.87-53.107 31.687-52.9 62.11-1.41.044-2.83.166-4.258.39-18.658 2.93-31.406 20.404-28.473 39.033 1.945 12.354 10.302 22.106 21.15 26.424-15.04 8.436-24.006 25.582-21.168 43.596 3.58 22.736 24.623 38.397 47.34 35.505.008 2.447.203 4.926.596 7.42 4.173 26.503 29.077 44.61 55.624 40.445 6.605-1.037 12.69-3.356 18.038-6.66 13.342 7.794 29.36 11.215 45.822 8.632 28.08-4.407 49.562-25.04 56.38-50.824.168-.024.335-.046.502-.072 27.222-4.272 46.054-28.28 42.064-53.62-1.305-8.283-4.888-15.684-10.07-21.746 12.474-6.22 20.058-19.98 17.778-34.466z"/></defs><clipPath id="al"><use xlink:href="#ak" overflow="visible"/></clipPath><g clip-path="url(#al)"><path fill="#fff" d="M113.035 617.39c1.444.682 1.465 1.808.045 2.5l-17.43 8.52c-1.42.693-3.763.703-5.207.02L58.96 613.563c-1.444-.682-1.464-1.808-.044-2.5l17.43-8.52c1.42-.692 3.763-.702 5.207-.02l31.482 14.868z"/><path fill="#DCDDDE" stroke="#000" stroke-width="2.611" stroke-linecap="round" stroke-linejoin="round" stroke-miterlimit="10" d="M113.035 617.39c1.444.682 1.465 1.808.045 2.5l-17.43 8.52c-1.42.693-3.763.703-5.207.02L58.96 613.563c-1.444-.682-1.464-1.808-.044-2.5l17.43-8.52c1.42-.692 3.763-.702 5.207-.02l31.482 14.868z"/></g><defs><path id="am" d="M138.344 505.174c-2.55-16.2-16.56-27.754-32.486-27.733-.036-2.928-.278-5.89-.747-8.87-5.068-32.19-34.316-54.58-66.363-51.638C33.05 403.285 18.58 394.758 3.3 397.156c-9.67 1.517-17.683 7.103-22.58 14.73-9.55-3.418-20.072-4.563-30.802-2.88-31.014 4.87-53.107 31.687-52.9 62.11-1.41.044-2.83.166-4.258.39-18.658 2.93-31.406 20.404-28.473 39.033 1.945 12.354 10.302 22.106 21.15 26.424-15.04 8.436-24.006 25.582-21.168 43.596 3.58 22.736 24.623 38.397 47.34 35.505.008 2.447.203 4.926.596 7.42 4.173 26.503 29.077 44.61 55.624 40.445 6.605-1.037 12.69-3.356 18.038-6.66 13.342 7.794 29.36 11.215 45.822 8.632 28.08-4.407 49.562-25.04 56.38-50.824.168-.024.335-.046.502-.072 27.222-4.272 46.054-28.28 42.064-53.62-1.305-8.283-4.888-15.684-10.07-21.746 12.474-6.22 20.058-19.98 17.778-34.466z"/></defs><clipPath id="an"><use xlink:href="#am" overflow="visible"/></clipPath><g clip-path="url(#an)"><path fill="#fff" d="M85.27 630.96c1.444.68 1.464 1.806.044 2.5l-17.43 8.518c-1.42.694-3.763.704-5.207.02l-45.16-21.327c-1.443-.682-1.463-1.807-.043-2.5l17.43-8.518c1.42-.694 3.762-.704 5.207-.02l45.16 21.327z"/><path fill="#DCDDDE" stroke="#000" stroke-width="2.611" stroke-linecap="round" stroke-linejoin="round" stroke-miterlimit="10" d="M85.27 630.96c1.444.68 1.464 1.806.044 2.5l-17.43 8.518c-1.42.694-3.763.704-5.207.02l-45.16-21.327c-1.443-.682-1.463-1.807-.043-2.5l17.43-8.518c1.42-.694 3.762-.704 5.207-.02l45.16 21.327z"/></g><defs><path id="ao" d="M138.344 505.174c-2.55-16.2-16.56-27.754-32.486-27.733-.036-2.928-.278-5.89-.747-8.87-5.068-32.19-34.316-54.58-66.363-51.638C33.05 403.285 18.58 394.758 3.3 397.156c-9.67 1.517-17.683 7.103-22.58 14.73-9.55-3.418-20.072-4.563-30.802-2.88-31.014 4.87-53.107 31.687-52.9 62.11-1.41.044-2.83.166-4.258.39-18.658 2.93-31.406 20.404-28.473 39.033 1.945 12.354 10.302 22.106 21.15 26.424-15.04 8.436-24.006 25.582-21.168 43.596 3.58 22.736 24.623 38.397 47.34 35.505.008 2.447.203 4.926.596 7.42 4.173 26.503 29.077 44.61 55.624 40.445 6.605-1.037 12.69-3.356 18.038-6.66 13.342 7.794 29.36 11.215 45.822 8.632 28.08-4.407 49.562-25.04 56.38-50.824.168-.024.335-.046.502-.072 27.222-4.272 46.054-28.28 42.064-53.62-1.305-8.283-4.888-15.684-10.07-21.746 12.474-6.22 20.058-19.98 17.778-34.466z"/></defs><clipPath id="ap"><use xlink:href="#ao" overflow="visible"/></clipPath><g clip-path="url(#ap)"><path fill="#fff" d="M44.11 638.32c1.444.68 1.464 1.807.044 2.5l-17.398 8.503c-1.42.693-3.763.703-5.207.02l-10.375-4.9c-1.444-.682-3.898-1.493-5.454-1.804-1.554-.31-6.286 1.125-7.706 1.82l-18.607 9.092c-1.42.694-3.763.704-5.207.022l-40.835-19.286c-1.445-.682-1.465-1.808-.045-2.5l45.07-22.026c1.42-.694 3.763-.704 5.208-.022l60.51 28.58z"/><path fill="#DCDDDE" stroke="#000" stroke-width="2.611" stroke-linecap="round" stroke-linejoin="round" stroke-miterlimit="10" d="M44.11 638.32c1.444.68 1.464 1.807.044 2.5l-17.398 8.503c-1.42.693-3.763.703-5.207.02l-10.375-4.9c-1.444-.682-3.898-1.493-5.454-1.804-1.554-.31-6.286 1.125-7.706 1.82l-18.607 9.092c-1.42.694-3.763.704-5.207.022l-40.835-19.286c-1.445-.682-1.465-1.808-.045-2.5l45.07-22.026c1.42-.694 3.763-.704 5.208-.022l60.51 28.58z"/></g><defs><path id="aq" d="M138.344 505.174c-2.55-16.2-16.56-27.754-32.486-27.733-.036-2.928-.278-5.89-.747-8.87-5.068-32.19-34.316-54.58-66.363-51.638C33.05 403.285 18.58 394.758 3.3 397.156c-9.67 1.517-17.683 7.103-22.58 14.73-9.55-3.418-20.072-4.563-30.802-2.88-31.014 4.87-53.107 31.687-52.9 62.11-1.41.044-2.83.166-4.258.39-18.658 2.93-31.406 20.404-28.473 39.033 1.945 12.354 10.302 22.106 21.15 26.424-15.04 8.436-24.006 25.582-21.168 43.596 3.58 22.736 24.623 38.397 47.34 35.505.008 2.447.203 4.926.596 7.42 4.173 26.503 29.077 44.61 55.624 40.445 6.605-1.037 12.69-3.356 18.038-6.66 13.342 7.794 29.36 11.215 45.822 8.632 28.08-4.407 49.562-25.04 56.38-50.824.168-.024.335-.046.502-.072 27.222-4.272 46.054-28.28 42.064-53.62-1.305-8.283-4.888-15.684-10.07-21.746 12.474-6.22 20.058-19.98 17.778-34.466z"/></defs><clipPath id="ar"><use xlink:href="#aq" overflow="visible"/></clipPath><path clip-path="url(#ar)" d="M2.334 570.302l2.542 6.346-13.25-1.113z"/><defs><path id="as" d="M138.344 505.174c-2.55-16.2-16.56-27.754-32.486-27.733-.036-2.928-.278-5.89-.747-8.87-5.068-32.19-34.316-54.58-66.363-51.638C33.05 403.285 18.58 394.758 3.3 397.156c-9.67 1.517-17.683 7.103-22.58 14.73-9.55-3.418-20.072-4.563-30.802-2.88-31.014 4.87-53.107 31.687-52.9 62.11-1.41.044-2.83.166-4.258.39-18.658 2.93-31.406 20.404-28.473 39.033 1.945 12.354 10.302 22.106 21.15 26.424-15.04 8.436-24.006 25.582-21.168 43.596 3.58 22.736 24.623 38.397 47.34 35.505.008 2.447.203 4.926.596 7.42 4.173 26.503 29.077 44.61 55.624 40.445 6.605-1.037 12.69-3.356 18.038-6.66 13.342 7.794 29.36 11.215 45.822 8.632 28.08-4.407 49.562-25.04 56.38-50.824.168-.024.335-.046.502-.072 27.222-4.272 46.054-28.28 42.064-53.62-1.305-8.283-4.888-15.684-10.07-21.746 12.474-6.22 20.058-19.98 17.778-34.466z"/></defs><clipPath id="at"><use xlink:href="#as" overflow="visible"/></clipPath><path clip-path="url(#at)" d="M-36.59 560.09l13.207-1.22-2.316 6.364z"/><defs><path id="au" d="M138.344 505.174c-2.55-16.2-16.56-27.754-32.486-27.733-.036-2.928-.278-5.89-.747-8.87-5.068-32.19-34.316-54.58-66.363-51.638C33.05 403.285 18.58 394.758 3.3 397.156c-9.67 1.517-17.683 7.103-22.58 14.73-9.55-3.418-20.072-4.563-30.802-2.88-31.014 4.87-53.107 31.687-52.9 62.11-1.41.044-2.83.166-4.258.39-18.658 2.93-31.406 20.404-28.473 39.033 1.945 12.354 10.302 22.106 21.15 26.424-15.04 8.436-24.006 25.582-21.168 43.596 3.58 22.736 24.623 38.397 47.34 35.505.008 2.447.203 4.926.596 7.42 4.173 26.503 29.077 44.61 55.624 40.445 6.605-1.037 12.69-3.356 18.038-6.66 13.342 7.794 29.36 11.215 45.822 8.632 28.08-4.407 49.562-25.04 56.38-50.824.168-.024.335-.046.502-.072 27.222-4.272 46.054-28.28 42.064-53.62-1.305-8.283-4.888-15.684-10.07-21.746 12.474-6.22 20.058-19.98 17.778-34.466z"/></defs><clipPath id="av"><use xlink:href="#au" overflow="visible"/></clipPath><path clip-path="url(#av)" d="M-48.134 576.197l-13.21 1.222 2.32-6.366z"/><defs><path id="aw" d="M138.344 505.174c-2.55-16.2-16.56-27.754-32.486-27.733-.036-2.928-.278-5.89-.747-8.87-5.068-32.19-34.316-54.58-66.363-51.638C33.05 403.285 18.58 394.758 3.3 397.156c-9.67 1.517-17.683 7.103-22.58 14.73-9.55-3.418-20.072-4.563-30.802-2.88-31.014 4.87-53.107 31.687-52.9 62.11-1.41.044-2.83.166-4.258.39-18.658 2.93-31.406 20.404-28.473 39.033 1.945 12.354 10.302 22.106 21.15 26.424-15.04 8.436-24.006 25.582-21.168 43.596 3.58 22.736 24.623 38.397 47.34 35.505.008 2.447.203 4.926.596 7.42 4.173 26.503 29.077 44.61 55.624 40.445 6.605-1.037 12.69-3.356 18.038-6.66 13.342 7.794 29.36 11.215 45.822 8.632 28.08-4.407 49.562-25.04 56.38-50.824.168-.024.335-.046.502-.072 27.222-4.272 46.054-28.28 42.064-53.62-1.305-8.283-4.888-15.684-10.07-21.746 12.474-6.22 20.058-19.98 17.778-34.466z"/></defs><clipPath id="ax"><use xlink:href="#aw" overflow="visible"/></clipPath><path clip-path="url(#ax)" d="M-48.317 546.38l-13.25-1.11 2.544 6.344z"/><defs><path id="ay" d="M138.344 505.174c-2.55-16.2-16.56-27.754-32.486-27.733-.036-2.928-.278-5.89-.747-8.87-5.068-32.19-34.316-54.58-66.363-51.638C33.05 403.285 18.58 394.758 3.3 397.156c-9.67 1.517-17.683 7.103-22.58 14.73-9.55-3.418-20.072-4.563-30.802-2.88-31.014 4.87-53.107 31.687-52.9 62.11-1.41.044-2.83.166-4.258.39-18.658 2.93-31.406 20.404-28.473 39.033 1.945 12.354 10.302 22.106 21.15 26.424-15.04 8.436-24.006 25.582-21.168 43.596 3.58 22.736 24.623 38.397 47.34 35.505.008 2.447.203 4.926.596 7.42 4.173 26.503 29.077 44.61 55.624 40.445 6.605-1.037 12.69-3.356 18.038-6.66 13.342 7.794 29.36 11.215 45.822 8.632 28.08-4.407 49.562-25.04 56.38-50.824.168-.024.335-.046.502-.072 27.222-4.272 46.054-28.28 42.064-53.62-1.305-8.283-4.888-15.684-10.07-21.746 12.474-6.22 20.058-19.98 17.778-34.466z"/></defs><clipPath id="az"><use xlink:href="#ay" overflow="visible"/></clipPath><path clip-path="url(#az)" fill="#fff" stroke="#000" stroke-width="2.611" stroke-linecap="round" stroke-linejoin="round" stroke-miterlimit="10" d="M-86.09 527.97c-7.254-7.114-1.944-10.914 4.755-18.6 5.06-5.8 18.263-18.744 18.263-18.744 3.132-3.847 7.968-5.918 12.36-7.564 4.39-1.645 33.788-11.453 35.094-11.426 8.783-3.29 47.355 5.8 70.24-5.02 22.884-10.816 46.65-27.86 46.65-27.86"/><defs><path id="aA" d="M138.344 505.174c-2.55-16.2-16.56-27.754-32.486-27.733-.036-2.928-.278-5.89-.747-8.87-5.068-32.19-34.316-54.58-66.363-51.638C33.05 403.285 18.58 394.758 3.3 397.156c-9.67 1.517-17.683 7.103-22.58 14.73-9.55-3.418-20.072-4.563-30.802-2.88-31.014 4.87-53.107 31.687-52.9 62.11-1.41.044-2.83.166-4.258.39-18.658 2.93-31.406 20.404-28.473 39.033 1.945 12.354 10.302 22.106 21.15 26.424-15.04 8.436-24.006 25.582-21.168 43.596 3.58 22.736 24.623 38.397 47.34 35.505.008 2.447.203 4.926.596 7.42 4.173 26.503 29.077 44.61 55.624 40.445 6.605-1.037 12.69-3.356 18.038-6.66 13.342 7.794 29.36 11.215 45.822 8.632 28.08-4.407 49.562-25.04 56.38-50.824.168-.024.335-.046.502-.072 27.222-4.272 46.054-28.28 42.064-53.62-1.305-8.283-4.888-15.684-10.07-21.746 12.474-6.22 20.058-19.98 17.778-34.466z"/></defs><clipPath id="aB"><use xlink:href="#aA" overflow="visible"/></clipPath><path clip-path="url(#aB)" fill="#fff" stroke="#000" stroke-width="2.611" stroke-linecap="round" stroke-linejoin="round" stroke-miterlimit="10" d="M-23.266 482.034c-10.522 5.167-27.84 12.782-35.61 19.74-5.733 5.135-31.95 23.77-36.892 28.558-12.54 7.276-4.292 28.406 13.1 14.552l32.327-19.77 49.886-24.77"/><defs><path id="aC" d="M138.344 505.174c-2.55-16.2-16.56-27.754-32.486-27.733-.036-2.928-.278-5.89-.747-8.87-5.068-32.19-34.316-54.58-66.363-51.638C33.05 403.285 18.58 394.758 3.3 397.156c-9.67 1.517-17.683 7.103-22.58 14.73-9.55-3.418-20.072-4.563-30.802-2.88-31.014 4.87-53.107 31.687-52.9 62.11-1.41.044-2.83.166-4.258.39-18.658 2.93-31.406 20.404-28.473 39.033 1.945 12.354 10.302 22.106 21.15 26.424-15.04 8.436-24.006 25.582-21.168 43.596 3.58 22.736 24.623 38.397 47.34 35.505.008 2.447.203 4.926.596 7.42 4.173 26.503 29.077 44.61 55.624 40.445 6.605-1.037 12.69-3.356 18.038-6.66 13.342 7.794 29.36 11.215 45.822 8.632 28.08-4.407 49.562-25.04 56.38-50.824.168-.024.335-.046.502-.072 27.222-4.272 46.054-28.28 42.064-53.62-1.305-8.283-4.888-15.684-10.07-21.746 12.474-6.22 20.058-19.98 17.778-34.466z"/></defs><clipPath id="aD"><use xlink:href="#aC" overflow="visible"/></clipPath><path clip-path="url(#aD)" fill="#fff" stroke="#000" stroke-width="2.611" stroke-linecap="round" stroke-linejoin="round" stroke-miterlimit="10" d="M6.798 490.73l-28.927 14.117c-6.896 1.32-13.624 5.033-16.532 6.797L-72.64 529.47c-13.134 6.08-3.924 24.856 13.765 17.577 0 0 34.906-12.403 36.19-12.902 10.238-3.974 38.77-12.962 38.77-12.962 21.36-5.077 26.97 4.808 36.136 9.554L79.178 518.7"/><defs><path id="aE" d="M138.344 505.174c-2.55-16.2-16.56-27.754-32.486-27.733-.036-2.928-.278-5.89-.747-8.87-5.068-32.19-34.316-54.58-66.363-51.638C33.05 403.285 18.58 394.758 3.3 397.156c-9.67 1.517-17.683 7.103-22.58 14.73-9.55-3.418-20.072-4.563-30.802-2.88-31.014 4.87-53.107 31.687-52.9 62.11-1.41.044-2.83.166-4.258.39-18.658 2.93-31.406 20.404-28.473 39.033 1.945 12.354 10.302 22.106 21.15 26.424-15.04 8.436-24.006 25.582-21.168 43.596 3.58 22.736 24.623 38.397 47.34 35.505.008 2.447.203 4.926.596 7.42 4.173 26.503 29.077 44.61 55.624 40.445 6.605-1.037 12.69-3.356 18.038-6.66 13.342 7.794 29.36 11.215 45.822 8.632 28.08-4.407 49.562-25.04 56.38-50.824.168-.024.335-.046.502-.072 27.222-4.272 46.054-28.28 42.064-53.62-1.305-8.283-4.888-15.684-10.07-21.746 12.474-6.22 20.058-19.98 17.778-34.466z"/></defs><clipPath id="aF"><use xlink:href="#aE" overflow="visible"/></clipPath><path clip-path="url(#aF)" fill="#fff" stroke="#000" stroke-width="2.611" stroke-linecap="round" stroke-linejoin="round" stroke-miterlimit="10" d="M47.044 518.257c.435 6.523-2.777 12.907-12.634 21.622-9.718 8.592-20.825 15.523-20.825 15.523-19.158 12.475-10.83 35.484 12.495 23.287l35.21-21.43c16.115-8.26 27.04-26.5 32.664-45.22 1.307-4.347 41.052-26.504 41.052-26.504"/></svg>