<svg xmlns="http://www.w3.org/2000/svg" xmlns:xlink="http://www.w3.org/1999/xlink" viewBox="0 0 457.2 346.9"><symbol id="a" viewBox="-19 -19 48 38"><path opacity=".51" fill="none" stroke="#FEF2F3" stroke-width="3" stroke-miterlimit="10" d="M25.4-17.5h-40.9c-1.1 0-2.1.9-2.1 2.1v30.9c0 1.1.9 2.1 2.1 2.1h40.9c1.1 0 2.1-.9 2.1-2.1v-30.9c0-1.2-.9-2.1-2.1-2.1z"/><path fill="#FEF2F3" d="M-1.2 5.6L15.1 0-1.2-5.6z"/></symbol><use xlink:href="#a" width="48" height="38" x="-19" y="-19" transform="matrix(0 -3.272 -3.282 0 228.83 130.563)" overflow="visible"/><use xlink:href="#a" width="48" height="38" x="-19" y="-19" transform="rotate(180 49.133 131.751) scale(3.272)" overflow="visible" opacity=".47"/><use xlink:href="#a" width="48" height="38" x="-19" y="-19" transform="matrix(3.272 0 0 -3.272 359.86 263.502)" overflow="visible" opacity=".47"/><path opacity=".51" fill="none" stroke="#FEF2F3" stroke-width="9.817" stroke-miterlimit="10" d="M286.5 209v110c0 1.1-.9 2-2 2H173.2c-1.1 0-2-.9-2-2V209c0-1.1.9-2 2-2h111.2c1.2 0 2.1.8 2.1 2z"/><path opacity=".21" fill="#30A4DD" d="M300.1 250.5c-3.8-1-7.5-2-11.3-3l-1.2-3c2.5-.4 5.1-.8 7.6-1.2 3.2-.5 4.8-3.3 3.6-6.3-.4-.9-1-1.8-1.7-2.5.2 0 .3 0 .5-.1 1.5-.2 2.8-.9 3.6-1.9.1.4.3.7.4 1.1.2.5.8.8 1.3.8.6-.1 1.2-.2 1.7-.3.5-.1.8-.6.6-1.1-.1-.3-.3-.7-.4-1 2.7-2.4 10-.4 11.4.1-.5.6-.6 1.4-.3 2.2.4 1.2 1.7 1.8 2.9 1.4 1.2-.4 1.7-1.6 1.3-2.8-.4-1.2-1.7-1.8-2.9-1.4-.3.1-.6.3-.9.6-3.6-3.7-12.3-9.6-15.9-12-.1-.2-.1-.3-.2-.5-.2-.5-.7-.8-1.3-.8-.6.1-1.2.2-1.7.3-.5.1-.8.5-.6 1.1.2.4.3.9.5 1.3-1.4-.6-3-.9-4.5-.6-1.2-1.7-2.4-3.5-3.6-5.2-.2-.7-1.3-.5-.9.5.7 1.9 1.3 3.7 2 5.6-1.1.7-1.9 1.6-2.3 2.8-1.8-1.3-4.2-2-6.4-1.6-.6.1-1.3.2-1.9.3-1.6-4.4-3.1-8.8-4.6-13.2-2.6-8-26.2 1.3-20.9 16.2 0 .1.3.7.6 1.7-.7.1-1.3.2-2 .3-3.7-10.2-7.1-20.4-10.3-30.6-.9-2.7-2.1-9 3.5-9.9 4.1-.6 6.7 1.7 7.4 4.1.3 1.1.3 2.1-.2 2.9-.5.9-1.6 1.5-3.1 1.7-1.1.2-1.7 1.2-1.4 2.2.3 1.1 1.5 1.8 2.6 1.6 3.3-.5 4.8-2.1 5.6-3.4 1-1.6 1.1-3.7.5-5.7-1.7-5.7-7.8-8-12.6-7.3-6.3 1-8.8 6.4-6.4 14.3 8.3 26.6 18.3 53.3 29.9 79.8 4.1 9.4 10 13.6 17.2 12.6 6.6-1 7.2-6.5 5-11.5-2.6-6-9.9-7.1-13.4-6.9-1.1.1-1.8 1-1.4 2.1.4 1.1 1.6 1.9 2.7 1.8.1 0 6.3-.4 8.1 3.6.6 1.5 2.4 6.3-2.8 7-3.2.5-7.4-.1-11.4-9.4-2-4.6-4-9.2-5.9-13.8.7-.1 1.3-.2 2-.3 2.4 5.7 4.4 10.4-.3-.7 3.3 7.9 27.4 5.3 39.1 9.1.4 1 .8 1.9 1.3 2.9 1.3 2.9 5.1 2.4 4-.1-3-6.9-5.9-13.7-8.7-20.6-.5-1.9-2.1-2.9-3.5-3.3zm-35.2 9.3c-3.8-9.2-7.4-18.5-10.7-27.7.7-.1 1.3-.2 2-.3 3.4 9.2 5.5 14.9 10.7 27.7-.6.1-1.3.2-2 .3zm-13.8-158c-1 0-2.1.1-3.1.1-1.4 0-2.3 1.2-2.1 2.5.1.7.2 1.4.4 2.1h-1c-.5 0-.9-.3-1-.8-.2-1.3-.4-2.5-.7-3.8-.2-1.3-1.5-2.4-2.9-2.4-.9 0-1.7.1-2.6.1-1.4 0-2.3 1.2-2.1 2.5.1.7.2 1.3.3 2-.8 0-1.5 0-2.3.1-.3-.6-.6-1.1-1.1-1.5 0 0-3.5-5-6.5-8-.5-.6-1-.9-1.5-1.2.4-.4.6-.9.5-1.5-.2-1-1.1-1.8-2.2-1.8s-1.8.9-1.6 1.9c.1.6.5 1.1 1 1.4-.5.5-.8 1.3-.6 2.2.4 2.2.7 4.5 1.1 6.7l-20.3.6c-4.9.1-8.2 4.1-7.3 8.9 1.9 10.8 4.1 21.6 6.6 32.5 1.1 4.8 6 8.6 10.9 8.4h.5c2.1-.1 3.8-.8 5.1-2.1 1.8 5.8 5.6 6.4 7.1 6.3-.2-.7-1.5-6-1.8-7.5-.4-1.5-1.9-2.6-3.4-2.6.1-1 .1-2-.1-3.1-2.5-10.9-4.7-21.7-6.7-32.5 0 0 10.5-.6 16.1-.7 3.7-.1 4.9-2.7 4.7-5 .9 0 1.7-.1 2.6-.1.1.1.3.1.4.1.1 0 .3 0 .4-.1h1.1c.5 0 .9.3 1 .8.3 1.5.5 2.9.8 4.4h-1.1c-1.4 0-2.3 1.2-2 2.5.2 1.1.4 2.3.6 3.4.1.5.5.8 1 .8s.8-.4.7-.8c-.2-1.1-.4-2.3-.6-3.4-.1-.4.2-.8.7-.8h1.4c.6.8 1.5 1.3 2.5 1.3.7 0 1.5 0 2.2-.1.5 0 .9.3 1 .8l.6 3.3c.1.5.5.8 1 .8s.8-.4.7-.8l-.6-3.3c-.3-1.3-1.6-2.4-3-2.4-.7 0-1.5 0-2.2.1-.5 0-.9-.3-1-.8-.3-1.6-.6-3.3-.9-4.9-.2-1.3-1.5-2.4-2.9-2.4h-.6c-.1-.7-.2-1.3-.3-2-.1-.4.2-.8.7-.8.9 0 1.7-.1 2.6-.1.5 0 .9.3 1 .8.2 1.3.4 2.5.7 3.8.2 1.3 1.6 2.4 2.9 2.4h1c.2.9.3 1.9.5 2.8.1.5.5.8 1 .8s.8-.4.7-.8c-.2-.9-.3-1.9-.5-2.8 1.1 0 2.2-.1 3.2-.1.5 0 .8-.4.7-.8-.1-.4-.5-.8-1-.8-1.1 0-2.1.1-3.2.1-.1-.7-.2-1.4-.4-2.1-.1-.4.2-.8.7-.8 1 0 2.1-.1 3.1-.1.5 0 .8-.4.7-.8-.4-.5-.8-.9-1.3-.9z"/><path fill="none" stroke="#F0B31D" stroke-width="5.151" stroke-linecap="round" stroke-linejoin="round" stroke-miterlimit="10" d="M183.1 201c10.2 33.1 22.9 66.1 38.1 98.9m12.7-115.3c9.7 33 21.8 66.1 36.5 99"/><path fill="#CF2127" d="M216 288.4c-10.5-23.6-19.7-47.3-27.6-70.9 16.8-5.5 33.6-10.9 50.5-16.4 7.5 23.7 16.3 47.4 26.4 71-16.5 5.4-32.9 10.9-49.3 16.3z"/><path fill="#E82128" d="M226 285.1c-10.4-23.6-19.5-47.3-27.3-71 13.4-4.4 26.8-8.7 40.2-13.1 7.5 23.7 16.3 47.4 26.4 71-13.1 4.4-26.2 8.7-39.3 13.1z"/><path fill="#CF2127" d="M240.4 233.6c.5 1.5-.2 3-1.6 3.5-4.5 1.5-9 3-13.5 4.4-1.4.5-3.1-.3-3.6-1.8s.2-3 1.6-3.5c4.5-1.5 9-3 13.5-4.4 1.5-.5 3.1.3 3.6 1.8zm1.5-4.3c1.3 3.6-2.6 12.7-2.6 12.7s-9.1-4.8-10.5-8.5c-1.3-3.6.6-7.6 4.2-8.7 3.6-1.1 7.5.9 8.9 4.5z"/><path fill="none" stroke="#F0B31D" stroke-width="5.151" stroke-linecap="round" stroke-linejoin="round" stroke-miterlimit="10" d="M216 288.4c-9.1-20.6-17.3-41.2-24.5-61.8 16.8-5.5 33.5-10.9 50.3-16.4 6.9 20.7 14.7 41.3 23.5 61.9-16.5 5.4-32.9 10.9-49.3 16.3z"/><path fill="none" stroke="#6584C2" stroke-miterlimit="10" d="M258.2 276.5c2.2 5.1 4.5 10.1 6.8 15.2m-9.2-13.3c1 2.2 1.9 4.4 2.9 6.7m1.4-9.2c1.8 4.1 3.6 8.2 5.5 12.4"/><path fill="#936136" d="M248.2 238c1.1 3-.3 6.3-3.3 7.2-10.9 3.6-21.8 7.2-32.6 10.7-3 1-6.3-.7-7.5-3.7-1.2-3 .3-6.2 3.3-7.2 10.9-3.6 21.8-7.2 32.7-10.7 3-.9 6.3.7 7.4 3.7zm-43.8 13.4c-1.6-4.2-3.2-8.3-4.7-12.5-1.1-3 .4-6.3 3.4-7.2 10.9-3.6 21.9-7.2 32.9-10.8 3-1 6.3.7 7.3 3.7 1.4 4 2.8 7.9 4.3 11.9"/><path fill="#B77945" d="M246.6 237.3c.8 2.2-.8 4.8-3.6 5.8-10.3 3.4-20.5 6.7-30.8 10.1-2.8.9-5.8-.1-6.7-2.4-.9-2.2.7-4.8 3.6-5.8 10.3-3.4 20.6-6.7 30.8-10.1 2.9-.9 5.9.1 6.7 2.4z"/><path fill="#38B14A" d="M231.8 233.1c.5 1.5-.2 3-1.7 3.5-4.5 1.5-9 3-13.5 4.4-1.4.5-3.1-.3-3.6-1.8s.2-3 1.6-3.5c4.5-1.5 9-3 13.5-4.4 1.6-.4 3.2.4 3.7 1.8zm-22.5-3.4c1.5-.5 3.1.3 3.6 1.8.8 2.3 1.7 4.7 2.5 7 .5 1.5-.2 3-1.6 3.5-1.4.5-3.1-.3-3.6-1.8-.9-2.3-1.7-4.7-2.6-7-.6-1.4.2-3 1.7-3.5zm20.1-6.5c1.5-.5 3.1.3 3.6 1.8.8 2.3 1.7 4.7 2.5 7 .5 1.5-.2 3-1.7 3.5-1.4.5-3.1-.3-3.6-1.8-.9-2.3-1.7-4.7-2.5-7-.5-1.5.2-3.1 1.7-3.5z"/><path fill="#FEE18C" d="M210.9 226.4c.5 1.4-.2 2.8-1.6 3.3-1.4.4-2.8-.3-3.3-1.7s.2-2.8 1.6-3.3c1.3-.4 2.8.4 3.3 1.7zm20-6.5c.5 1.4-.2 2.8-1.6 3.3-1.4.4-2.8-.3-3.3-1.7s.2-2.8 1.6-3.3c1.4-.4 2.9.3 3.3 1.7z"/><path fill="#DA4737" d="M185.4 87.8c-1.1.3-2.1-.2-2.2-1.3-.1-1 .6-2.1 1.7-2.5 1.1-.3 2.1.2 2.2 1.3.2 1.1-.6 2.2-1.7 2.5z"/><path fill="#BA9A60" d="M200.3 110.7c-1-5.6-6.4-8.7-12.2-6.8-5.8 1.8-9.7 7.8-8.7 13.4 1.8 10 3.9 20 6.2 30 1.3 5.6 7 8.7 12.8 6.9 5.7-1.8 9.2-7.9 8-13.5-2.3-10.1-4.3-20.1-6.1-30z"/><path fill="#D5B06E" d="M196.3 111.9c-1-5.6-2.4-9.9-8.2-8.1-5.8 1.8-9.7 7.8-8.7 13.4 1.8 10 3.9 20 6.2 30 1.3 5.6 7 8.7 12.8 6.9 5.7-1.8 5.3-6.6 4-12.2-2.3-10-4.3-20-6.1-30zm-8.9-23.3c-.3-.7-1.2-.9-2-.6-.8.2-1.5 1-1.7 1.8l-1.8 7.5c-1.7 4.8.5 9.6 6 7.8 5.6-1.7 6.2-7.4 3.3-10.8-1.2-1.8-2.5-3.8-3.8-5.7z"/><path fill="#E0E0E0" d="M201.9 152.5c.5 2-2.3 7.1-2.3 7.1s-4.7-2.7-5.2-4.7.8-4.2 2.8-4.8c2.2-.7 4.3.4 4.7 2.4z"/><path fill="#78CEF4" d="M184 98.7c-.5.1-.9-.4-1-1.2-.1-.8.1-1.6.6-1.7.5-.1.9.4 1 1.2.1.8-.2 1.5-.6 1.7z"/><path fill="#333" d="M183.7 97.9c-.3.1-.5-.2-.6-.7-.1-.4.1-.9.3-1 .3-.1.5.2.6.7.1.5 0 .9-.3 1z"/><path fill="#78CEF4" d="M189.9 96.8c.5-.1.7-.9.6-1.7-.1-.8-.6-1.3-1-1.2-.5.1-.7.9-.6 1.7.1.8.5 1.4 1 1.2z"/><path fill="#333" d="M189.9 95.9c.3-.1.4-.5.3-1-.1-.4-.3-.7-.6-.7-.3.1-.4.5-.3 1 .1.5.3.8.6.7z"/><path fill="none" stroke="#B0B0B0" stroke-width="1.717" stroke-linecap="round" stroke-linejoin="round" stroke-miterlimit="10" d="M185.7 101.1c-2.7.8-5.4 1.7-8.1 2.5-.9.3-1.6 1.3-1.4 2.2.3 1.6.5 3.3.8 4.9.2.9-.5 1.9-1.4 2.2-.7.2-1.5.5-2.2.7-.9.3-1.6 1.3-1.4 2.2l.6 3.3m6.5-15.9c-.2-1-.3-1.9-.5-2.9-.1-.9-1-1.4-1.9-1.1-.9.3-1.8.5-2.6.8-.9.3-1.6 1.3-1.4 2.1.2 1.3.4 2.5.6 3.8.1.9-.5 1.9-1.4 2.2-2 .6-4 1.2-6 1.9m4-1.6c-.1-.8-.3-1.7-.4-2.5-.1-.9-1-1.4-2-1.1-1.1.3-2.1.7-3.2 1m24.8-5.8c2.7-.8 5.4-1.7 8.1-2.5.9-.3 1.8.2 2 1.1.3 1.6.5 3.2.8 4.9.2.9 1 1.4 2 1.1.7-.2 1.5-.5 2.2-.7.9-.3 1.8.2 2 1.1l.6 3.3M195.7 98c-.2-1-.3-1.9-.5-2.9-.1-.9.5-1.9 1.4-2.2.9-.3 1.8-.5 2.6-.8.9-.3 1.8.2 1.9 1.1.2 1.3.4 2.5.6 3.8.1.9 1 1.4 1.9 1.1 2-.6 4-1.3 6-1.9m-3.9 1c-.1-.8-.3-1.7-.4-2.5-.1-.9.5-1.9 1.4-2.2 1.1-.3 2.1-.7 3.2-1"/><path fill="#DA4737" d="M179.8 119.4c1.5 8 3.2 16.1 5 24.2 6.9-2.2 13.8-4.4 20.8-6.6-1.8-8.1-3.4-16.1-4.8-24.2-7.1 2.2-14.1 4.4-21 6.6z"/><path fill="none" stroke="#894638" stroke-width="1.145" stroke-miterlimit="10" d="M211.9 236.8c-14.3-39.1-25.1-78.3-32.4-117.2m52.9 110.5c-14.1-39.1-24.6-78.3-31.7-117.2"/><path fill="#FEE18C" d="M221 225.7c-1.3-2.2-2.5-4.5-3.7-6.7-.1-.7-1.2-.7-1 .3.5 2.6 1 5.3 1.6 7.9 1-.5 2.1-1 3.1-1.5z"/><path fill="#78CEF4" d="M229.7 230.1c1.6 4.5-.6 9.3-5 10.7-4.4 1.5-9.4-1-11-5.5-1.6-4.5.7-9.3 5.1-10.7 4.4-1.4 9.3 1 10.9 5.5zm-1.2 14.7c.4 1.2-.1 2.4-1.3 2.8-1.2.4-2.5-.3-2.9-1.4-.4-1.2.1-2.4 1.3-2.8 1.1-.4 2.4.2 2.9 1.4z"/><path fill="#38B14A" d="M228.2 230.6c1.3 3.6-2.6 12.7-2.6 12.7s-9.1-4.8-10.5-8.5c-1.3-3.6.6-7.6 4.2-8.7 3.6-1.2 7.6.8 8.9 4.5z"/><path d="M179.8 153.3c-1.4-6-2.8-12-4-18m7.6 32.6c-1.4-5.4-1.3-5.2-2.7-10.6m16.2 56.4c-2.8-8.6-5.5-17.2-8-25.8m78.5 73.5c-2.5-6-4.9-12-7.2-18m13.4 32.6c-2.3-5.4-2.3-5.2-4.5-10.6m25.9 56.1c-4.3-8.5-8.5-17-12.5-25.6m-64.6 11.8c2.8 6 5.8 11.9 8.8 17.9m-15.5-32.5c2.5 5.4 2.4 5.2 4.9 10.6m-24.3-57.5c3.2 8.6 6.6 17.2 10.2 25.7M184.1 232c5.4 15.4 11.3 30.7 17.8 46.1" fill="none" stroke="#6584C2" stroke-miterlimit="10"/><path fill="#78CEF4" d="M112.4 187.6l13.1 7.2 22.4-2.1-1.9-20-13.8-9.1z"/><path fill="#49B880" d="M110.307 165.68l21.9-2.074 2.075 21.9-21.9 2.075z"/><path fill="#FEDF00" d="M123.4 174.3l-.9-9.8-2.8.3.9 9.8-9.4.9.3 2.8 9.4-.9.9 9.3 2.8-.3-.9-9.3 9.7-.9-.2-2.8z"/><path fill="#78CEF4" d="M220.6 28l12.2 6.8 21-2-1.8-18.7-12.9-8.5z"/><path fill="#6584C2" d="M218.665 7.515l20.408-1.933 1.933 20.408-20.408 1.933z"/><path fill="#F68B37" d="M230.9 15.6l-.9-9.1-2.6.2.9 9.1-8.7.9.2 2.6 8.8-.9.8 8.8 2.6-.3-.9-8.7 9.1-.9-.2-2.6z"/></svg>