<svg xmlns="http://www.w3.org/2000/svg" viewBox="0 0 171.78 262.43" width="171.78" height="262.43"><defs><style>.cls-1{fill:#804100;}.cls-11,.cls-2,.cls-4,.cls-8{fill:none;stroke-linecap:round;stroke-linejoin:round;}.cls-2{stroke:#804100;}.cls-2,.cls-4{stroke-width:24.85px;}.cls-3{fill:#a66d40;}.cls-4{stroke:#a66d40;}.cls-5{fill:#e53935;}.cls-6{fill:#212121;}.cls-7{fill:#fff;}.cls-11,.cls-8{stroke:#fff;}.cls-8{stroke-width:3.74px;}.cls-9{fill:#019049;}.cls-10{fill:#06703a;}.cls-11{stroke-width:7.46px;}</style></defs><title>gingerbread_man</title><g id="Layer_2" data-name="Layer 2"><g id="ART"><circle class="cls-1" cx="91.69" cy="80.52" r="44.73"/><rect class="cls-1" x="62.54" y="102.14" width="59.64" height="104.37" rx="25.02" ry="25.02" transform="translate(184.71 308.65) rotate(-180)"/><path class="cls-2" d="M79.83,127.64c-52.49,0-62.43-35.92-62.43-35.92" transform="translate(0)"/><path class="cls-2" d="M96.92,121.55c52.5,0,62.44,35.91,62.44,35.91" transform="translate(0)"/><path class="cls-2" d="M109,182.63c.63,61,41.48,46.84,27.65,67.37" transform="translate(0)"/><path class="cls-2" d="M74.92,182.63c-.62,61-41.47,46.84-27.64,67.37" transform="translate(0)"/><circle class="cls-3" cx="84.23" cy="80.52" r="44.73"/><rect class="cls-3" x="55.08" y="102.14" width="59.64" height="104.37" rx="25.02" ry="25.02" transform="translate(169.8 308.65) rotate(180)"/><path class="cls-4" d="M89.46,121.55c52.5,0,62.44,35.91,62.44,35.91" transform="translate(0)"/><path class="cls-4" d="M74.86,127.64c-52.49,0-62.43-35.92-62.43-35.92" transform="translate(0)"/><path class="cls-4" d="M101.58,182.63c.62,61,41.47,46.84,27.65,67.37" transform="translate(0)"/><path class="cls-4" d="M67.47,182.63c-.62,61-41.47,46.84-27.65,67.37" transform="translate(0)"/><path class="cls-5" d="M77.12,81.52a6.22,6.22,0,1,0,6.22-6.22A6.22,6.22,0,0,0,77.12,81.52Z" transform="translate(0)"/><path class="cls-6" d="M77.12,103.39a6.22,6.22,0,1,0,6.22-6.22A6.22,6.22,0,0,0,77.12,103.39Z" transform="translate(0)"/><path class="cls-7" d="M79.36,131.22a4,4,0,1,0,4-4A4,4,0,0,0,79.36,131.22Z" transform="translate(0)"/><path class="cls-7" d="M79.36,156.08a4,4,0,1,0,4-4A4,4,0,0,0,79.36,156.08Z" transform="translate(0)"/><path class="cls-7" d="M79.36,180.93a4,4,0,1,0,4-4A4,4,0,0,0,79.36,180.93Z" transform="translate(0)"/><path class="cls-7" d="M66.93,69.1a4,4,0,1,0,4-4A4,4,0,0,0,66.93,69.1Z" transform="translate(0)"/><path class="cls-7" d="M91.78,69.1a4,4,0,1,0,4-4A4,4,0,0,0,91.78,69.1Z" transform="translate(0)"/><path class="cls-8" d="M26.54,92.8l-3.8.22a6.76,6.76,0,0,0-5.6,3.58h0a6.77,6.77,0,0,1-5.59,3.57h0A6.78,6.78,0,0,0,6,103.75l-1.79,3.36" transform="translate(0)"/><path class="cls-8" d="M31.68,100.91l-3.8.22a6.74,6.74,0,0,0-5.59,3.57h0a6.75,6.75,0,0,1-5.59,3.58h0a6.75,6.75,0,0,0-5.59,3.58l-1.79,3.36" transform="translate(0)"/><path class="cls-8" d="M136.33,156.55l3.81-.21a6.78,6.78,0,0,0,5.59-3.58h0a6.78,6.78,0,0,1,5.59-3.58h0a6.77,6.77,0,0,0,5.59-3.57l1.79-3.37" transform="translate(0)"/><path class="cls-8" d="M131.19,148.44l3.8-.21a6.75,6.75,0,0,0,5.59-3.58h0a6.74,6.74,0,0,1,5.59-3.57h0a6.78,6.78,0,0,0,5.59-3.58l1.79-3.37" transform="translate(0)"/><path class="cls-8" d="M115.25,244.23l3.6-1.27a6.78,6.78,0,0,0,4.37-5h0a6.73,6.73,0,0,1,4.36-5h0a6.76,6.76,0,0,0,4.37-5l.78-3.73" transform="translate(0)"/><path class="cls-8" d="M108.05,237.88l3.59-1.27a6.74,6.74,0,0,0,4.37-5h0a6.76,6.76,0,0,1,4.37-5h0a6.76,6.76,0,0,0,4.37-5l.78-3.73" transform="translate(0)"/><path class="cls-8" d="M55.34,241.36l-3.59-1.27a6.76,6.76,0,0,1-4.37-5h0a6.74,6.74,0,0,0-4.37-5h0a6.78,6.78,0,0,1-4.37-5l-.78-3.73" transform="translate(0)"/><path class="cls-8" d="M62.54,235,59,233.74a6.78,6.78,0,0,1-4.37-5h0a6.74,6.74,0,0,0-4.37-5h0a6.75,6.75,0,0,1-4.36-5L45.07,215" transform="translate(0)"/><path class="cls-9" d="M128.14,53.64c-36.45,4.81-68.47-2.12-65.6-12C65.19,32.47,107.2,6.85,107.2,6.85S112.89,24.88,128.14,53.64Z" transform="translate(0)"/><path class="cls-10" d="M107.2,6.85s5.69,18,20.94,46.79c-2.22.29-4.43.54-6.61.75-11.37-21.81-17.48-37.51-19.84-44.08C105,8.17,107.2,6.85,107.2,6.85Z" transform="translate(0)"/><path class="cls-11" d="M128.14,53.64c-36.45,4.81-63.68-3.76-67-13.91" transform="translate(0)"/><path class="cls-7" d="M101.22,7a7,7,0,1,0,7-7A7,7,0,0,0,101.22,7Z" transform="translate(0)"/></g></g></svg>