<svg xmlns="http://www.w3.org/2000/svg" xmlns:xlink="http://www.w3.org/1999/xlink" viewBox="0 0 363.08 400"><defs><style>.cls-1{fill:#f9f9f9;}.cls-2{fill:#fff;}.cls-3{clip-path:url(#clip-path);}.cls-4{fill:#404040;}.cls-10,.cls-5,.cls-9{fill:none;stroke-linecap:round;}.cls-5{stroke:#e53935;stroke-width:30.42px;}.cls-10,.cls-5{stroke-linejoin:round;}.cls-6{fill:#f5871f;}.cls-7{fill:#e53935;}.cls-8{fill:#ef6c00;}.cls-9{stroke:#f9ce1d;stroke-miterlimit:10;stroke-width:8.15px;}.cls-10{stroke:#5d4037;stroke-width:16.3px;}.cls-11{fill:#bdbdbd;}.cls-12{fill:#5d4037;}.cls-13{fill:#4e342e;}</style><clipPath id="clip-path"><path id="_Clipping_Path_" data-name="&lt;Clipping Path&gt;" class="cls-1" d="M279.3,56.49l11.89,77.88-82.13,2.08,7.68-41h0a101.85,101.85,0,0,1-29.87-4.48l-28.75-8.84a19.82,19.82,0,0,1-8-4.76h0a19.81,19.81,0,0,1-.46-27.87l.82-.85a19.84,19.84,0,0,1,7.22-4.8l10.75-4.11A19.89,19.89,0,0,0,180,28.06h0a19.85,19.85,0,0,1,12.55-12l9-2.88h27.41A51,51,0,0,1,279.3,56.49Z"/></clipPath></defs><title>polar_bear_scuba</title><g id="Layer_2" data-name="Layer 2"><g id="ART"><path class="cls-2" d="M227.32,13.19A13.2,13.2,0,1,1,214.12,0,13.2,13.2,0,0,1,227.32,13.19Z"/><path class="cls-2" d="M253.39,13.19A13.19,13.19,0,1,1,240.2,0,13.19,13.19,0,0,1,253.39,13.19Z"/><path id="_Clipping_Path_2" data-name="&lt;Clipping Path&gt;" class="cls-1" d="M279.3,56.49l11.89,77.88-82.13,2.08,7.68-41h0a101.85,101.85,0,0,1-29.87-4.48l-28.75-8.84a19.82,19.82,0,0,1-8-4.76h0a19.81,19.81,0,0,1-.46-27.87l.82-.85a19.84,19.84,0,0,1,7.22-4.8l10.75-4.11A19.89,19.89,0,0,0,180,28.06h0a19.85,19.85,0,0,1,12.55-12l9-2.88h27.41A51,51,0,0,1,279.3,56.49Z"/><g class="cls-3"><path class="cls-4" d="M160,56.06a6.23,6.23,0,0,1-5.89,0,5.64,5.64,0,0,0-8.47,4.88v2.33a5.67,5.67,0,0,0,2.28,4.53l5.65,4.2a6.05,6.05,0,0,0,7,0l5.66-4.2a5.66,5.66,0,0,0,2.27-4.53V60.94A5.63,5.63,0,0,0,160,56.06Z"/></g><path class="cls-4" d="M196.58,30.31a5.49,5.49,0,1,1-5.48-5.49A5.48,5.48,0,0,1,196.58,30.31Z"/><path class="cls-4" d="M214,30.31a5.49,5.49,0,1,1-5.49-5.49A5.48,5.48,0,0,1,214,30.31Z"/><path class="cls-5" d="M347.86,257.35c-3.13-97.69-33-98.39-33-98.39"/><path class="cls-6" d="M139.53,111a4.52,4.52,0,0,0,4.58,4.77,14.79,14.79,0,0,0,14.52-15.16s-.09,0-.09,0a4.92,4.92,0,0,0-9.83.17A4.91,4.91,0,0,1,144,106c-2.7,0-4.42,2.27-4.42,5Z"/><path class="cls-7" d="M209.49,177.87l-50.25.16A36.27,36.27,0,0,1,133.39,168c-6.94-6.66-11.25-15.6-11.25-25.18v-.17l-.35-18.93c-.14-8.09,7.22-14.75,15.31-14.89s15.47,6.26,15.47,14.32v19a6.43,6.43,0,0,0,1.66,4.68,7.17,7.17,0,0,0,5.07,1.94l50-.16Z"/><path class="cls-6" d="M122.14,110.24c0,7.23,6.77,13,14,12.84s10.56-6.1,10.44-13.35L143.87,95V94.9c0-7.22-3.35-13-10.57-12.83S121,88.17,121.14,95.41l1,14.78Z"/><path class="cls-6" d="M343.79,272.37c0-2.69-1-4.82-3.7-4.78-8.25.15-14.22,7-14.08,15.16a3,3,0,0,0,.31,0,5,5,0,0,0,5.12,4.78,5,5,0,0,0,4.88-5c0-2.84,1-5.2,3.91-5.25,2.7-.05,3.56-2.27,3.56-5Z"/><path class="cls-6" d="M361.17,273.09a12.81,12.81,0,0,0-13.11-12.83A13.26,13.26,0,0,0,335,273.6l.09,14.78v.06c0,7.21,6.4,12.95,13.62,12.82a13,13,0,0,0,12.81-13.33l-.36-14.78Z"/><path class="cls-7" d="M313.37,218.76a63,63,0,0,1-63,63h0a63,63,0,0,1-63-63V171a63,63,0,0,1,63-63h0a63,63,0,0,1,63,63Z"/><path class="cls-8" d="M210.31,108.36c0,26.33-27.63,34.29-27.63,34.29,0,37.52,135,37.52,135,0,0,0-27.62-8-27.62-34.29Z"/><path class="cls-9" d="M182.68,142.65c0,37.52,135,37.52,135,0"/><path class="cls-7" d="M239.49,220.93H204.72V370.24c-17.39,2-26.68,7.14-26.68,20.18h61.45Z"/><rect class="cls-6" x="196.03" y="320.89" width="26.08" height="34.77" rx="8.15" ry="8.15"/><path class="cls-7" d="M261.22,220.93h39.11V370.24c13,2,21.44,7.14,21.44,20.18H261.22Z"/><rect class="cls-6" x="282.95" y="320.89" width="26.08" height="34.77" rx="8.15" ry="8.15"/><path class="cls-10" d="M269.65,191.87s34.59-15.31,36.49-55"/><path class="cls-10" d="M194.23,137.4c1.9,39.7,36.49,55,36.49,55"/><rect class="cls-6" x="217.76" y="177.47" width="65.19" height="47.81" rx="12.22" ry="12.22"/><rect class="cls-6" x="204.72" y="220.93" width="91.27" height="34.77" rx="12.22" ry="12.22"/><rect class="cls-8" x="4.49" y="289.71" width="17.53" height="76.33"/><rect class="cls-6" y="278.53" width="8.98" height="96.61"/><rect class="cls-8" x="147.76" y="289.71" width="17.53" height="76.33" transform="translate(313.06 655.75) rotate(180)"/><polygon class="cls-6" points="160.05 375.15 169.03 375.15 169.79 278.53 160.8 278.53 160.05 375.15"/><path class="cls-11" d="M156.88,325.68a74.32,74.32,0,1,1-74.32-74.32A74.32,74.32,0,0,1,156.88,325.68Z"/><path class="cls-6" d="M130.87,326.84a48.31,48.31,0,1,1-48.31-48.31A48.31,48.31,0,0,1,130.87,326.84Z"/><circle class="cls-12" cx="82.56" cy="327.71" r="38" transform="translate(-207.55 154.36) rotate(-45)"/><path class="cls-13" d="M82.56,365.71a38,38,0,0,0,35.31-24,56.81,56.81,0,0,0-70.63,0A38,38,0,0,0,82.56,365.71Z"/><circle class="cls-6" cx="42.98" cy="280.35" r="6.52"/><circle class="cls-6" cx="129.9" cy="280.35" r="6.52"/><rect class="cls-6" x="80.93" y="288.61" width="4.35" height="82.57"/><rect class="cls-6" x="80.72" y="286.5" width="4.35" height="82.57" transform="translate(410.68 244.9) rotate(90)"/></g></g></svg>