<svg xmlns="http://www.w3.org/2000/svg" viewBox="0 0 154.61 181.85" width="154.61" height="181.85"><defs><style>.cls-1,.cls-9{fill:none;stroke-linecap:round;stroke-linejoin:round;stroke-width:8.03px;}.cls-1{stroke:#bc955c;}.cls-2{fill:#e1b77e;}.cls-3{fill:#bc955c;}.cls-4{fill:#fff;}.cls-5{fill:#e1251b;}.cls-6{fill:#00b2e3;}.cls-7{fill:#101820;}.cls-8{fill:#ca8342;}.cls-9{stroke:#e1b77e;}</style></defs><title>reindeer_baby_boy</title><g id="Layer_2" data-name="Layer 2"><g id="ART"><path class="cls-1" d="M40.52,120.45c10.31,21.6,14.46,41.9-4.12,57.39"/><path class="cls-1" d="M104.15,89.22c11.93,14.16,16.6,32,7.15,57.09"/><path class="cls-2" d="M67.38,40.24c6.45,13,13.17,28.14,13.17,28.14L36.81,90A22.78,22.78,0,0,0,26.5,120.54l.57,1.13A22.77,22.77,0,0,0,57.57,132l43.74-21.66a22.77,22.77,0,0,0,10.31-30.5L87.26,30.4Z"/><path class="cls-3" d="M26,119.53a22.76,22.76,0,0,0,30,9.32L99.76,107.2a23.1,23.1,0,0,0,3.49-2.14,30.28,30.28,0,0,0,5.61-.76,22.57,22.57,0,0,1-7.55,6L57.57,132a22.76,22.76,0,0,1-30.5-10.3l-.57-1.13C26.34,120.21,26.18,119.87,26,119.53Z"/><path class="cls-4" d="M27.14,98.18a7.08,7.08,0,0,1-3.18,9.5c-16,7.93-22.22-.48-24-4l17.65-8.74A7.09,7.09,0,0,1,27.14,98.18Z"/><path class="cls-4" d="M111.62,79.82c-19.25-7.53-26.36-28.12-16-32.89Z"/><path class="cls-2" d="M67.38,40.24c-6.27-12.5.25-22.66,8.19-26.59,11.68-5.77,31.19-.88,45.32,1.85s11.4,12.94,4.34,16.48L93.11,48.15C84.69,52.37,72.71,50.87,67.38,40.24Z"/><rect class="cls-5" x="47.98" y="33.13" width="25.97" height="5.41" transform="translate(131.46 30.3) rotate(145.06)"/><path class="cls-6" d="M102.5,10.12a23.66,23.66,0,0,0-38.8,27.1Z"/><path class="cls-7" d="M95.49,10.61A8.22,8.22,0,1,0,82,20Z"/><path class="cls-4" d="M104.86,21.45A8.57,8.57,0,0,1,101,33h0a8.57,8.57,0,0,1-11.5-3.82h0a8.57,8.57,0,0,1,3.82-11.5h0a8.57,8.57,0,0,1,11.5,3.82Z"/><path class="cls-7" d="M98.83,18.65A4.12,4.12,0,0,1,102.71,23h0a4.12,4.12,0,0,1-4.33,3.88h0a4.1,4.1,0,0,1-3.87-4.32h0a4.1,4.1,0,0,1,4.32-3.88Z"/><path class="cls-8" d="M137.91,24.2a6.33,6.33,0,0,1-8.48-2.84h0a6.33,6.33,0,0,1,2.83-8.49h0a6.33,6.33,0,0,1,8.49,2.84h0a6.33,6.33,0,0,1-2.84,8.49Z"/><path class="cls-9" d="M94.54,94c20.7,6,40.7,8.4,56.05-13"/><path class="cls-9" d="M53.73,122.44c17.09,4.35,17.51,25.13,16.47,47.35"/></g></g></svg>