<svg xmlns="http://www.w3.org/2000/svg" xmlns:xlink="http://www.w3.org/1999/xlink" viewBox="0 0 410.36 375.84" width="410.36" height="375.84"><defs><style>.cls-1{fill:none;}.cls-2{fill:#45c894;}.cls-3{clip-path:url(#clip-path);}.cls-4{fill:#fff;}</style><clipPath id="clip-path"><rect class="cls-1" x="24.6" y="-17.26" width="361.17" height="410.36" transform="translate(393.1 -17.26) rotate(90)"/></clipPath></defs><title>polkadots</title><g id="Layer_2" data-name="Layer 2"><g id="Layer_1-2" data-name="Layer 1"><rect class="cls-2" y="7.34" width="410.36" height="361.17"/><g class="cls-3"><circle class="cls-4" cx="34.2" cy="43.45" r="7.34"/><circle class="cls-4" cx="376.17" cy="43.45" r="7.34"/><circle class="cls-4" cx="307.77" cy="43.45" r="7.34"/><circle class="cls-4" cx="239.38" cy="43.45" r="7.34"/><circle class="cls-4" cx="170.99" cy="43.45" r="7.34"/><circle class="cls-4" cx="102.59" cy="43.45" r="7.34"/><circle class="cls-4" cx="34.2" cy="332.39" r="7.34"/><circle class="cls-4" cx="376.17" cy="332.39" r="7.34"/><circle class="cls-4" cx="307.77" cy="332.39" r="7.34"/><circle class="cls-4" cx="239.38" cy="332.39" r="7.34"/><circle class="cls-4" cx="170.99" cy="332.39" r="7.34"/><circle class="cls-4" cx="102.59" cy="332.39" r="7.34"/><circle class="cls-4" cx="34.2" cy="260.15" r="7.34"/><circle class="cls-4" cx="376.17" cy="260.15" r="7.34"/><circle class="cls-4" cx="307.77" cy="260.15" r="7.34"/><circle class="cls-4" cx="239.38" cy="260.15" r="7.34"/><circle class="cls-4" cx="170.99" cy="260.15" r="7.34"/><circle class="cls-4" cx="102.59" cy="260.15" r="7.34"/><circle class="cls-4" cx="34.2" cy="187.92" r="7.34"/><circle class="cls-4" cx="376.17" cy="187.92" r="7.34"/><circle class="cls-4" cx="307.77" cy="187.92" r="7.34"/><circle class="cls-4" cx="239.38" cy="187.92" r="7.34"/><circle class="cls-4" cx="170.99" cy="187.92" r="7.34"/><circle class="cls-4" cx="102.59" cy="187.92" r="7.34"/><circle class="cls-4" cx="34.2" cy="115.69" r="7.34"/><circle class="cls-4" cx="376.17" cy="115.69" r="7.34"/><circle class="cls-4" cx="307.77" cy="115.69" r="7.34"/><circle class="cls-4" cx="239.38" cy="115.69" r="7.34"/><circle class="cls-4" cx="170.99" cy="115.69" r="7.34"/><circle class="cls-4" cx="102.59" cy="115.69" r="7.34"/><circle class="cls-4" cx="68.39" cy="79.57" r="7.34"/><circle class="cls-4" cx="341.97" cy="79.57" r="7.34"/><circle class="cls-4" cx="273.58" cy="79.57" r="7.34"/><circle class="cls-4" cx="205.18" cy="79.57" r="7.34"/><circle class="cls-4" cx="136.79" cy="79.57" r="7.34"/><circle class="cls-4" cx="68.39" cy="296.27" r="7.34"/><circle class="cls-4" cx="341.97" cy="296.27" r="7.34"/><circle class="cls-4" cx="273.58" cy="296.27" r="7.34"/><circle class="cls-4" cx="205.18" cy="296.27" r="7.34"/><circle class="cls-4" cx="136.79" cy="296.27" r="7.34"/><circle class="cls-4" cx="68.39" cy="224.04" r="7.34"/><circle class="cls-4" cx="341.97" cy="224.04" r="7.34"/><circle class="cls-4" cx="273.58" cy="224.04" r="7.34"/><circle class="cls-4" cx="205.18" cy="224.04" r="7.34"/><circle class="cls-4" cx="136.79" cy="224.04" r="7.34"/><circle class="cls-4" cx="68.39" cy="151.8" r="7.34"/><circle class="cls-4" cx="341.97" cy="151.8" r="7.34"/><circle class="cls-4" cx="273.58" cy="151.8" r="7.34"/><circle class="cls-4" cx="205.18" cy="151.8" r="7.34"/><circle class="cls-4" cx="136.79" cy="151.8" r="7.34"/><path class="cls-4" d="M410.36,86.91a7.34,7.34,0,0,1,0-14.68Z"/><path class="cls-4" d="M410.36,303.61a7.34,7.34,0,0,1,0-14.68Z"/><path class="cls-4" d="M410.36,231.37a7.34,7.34,0,0,1,0-14.67Z"/><path class="cls-4" d="M410.36,159.14a7.34,7.34,0,0,1,0-14.67Z"/><path class="cls-4" d="M0,86.91a7.34,7.34,0,0,0,7.34-7.34A7.34,7.34,0,0,0,0,72.23Z"/><circle class="cls-4" cx="68.39" cy="7.34" r="7.34"/><circle class="cls-4" cx="341.97" cy="7.34" r="7.34"/><circle class="cls-4" cx="273.58" cy="7.34" r="7.34"/><circle class="cls-4" cx="205.18" cy="7.34" r="7.34"/><circle class="cls-4" cx="136.79" cy="7.34" r="7.34"/><path class="cls-4" d="M410.36,0a7.34,7.34,0,0,0,0,14.67Z"/><path class="cls-4" d="M0,0A7.34,7.34,0,0,1,7.34,7.34,7.34,7.34,0,0,1,0,14.67Z"/><path class="cls-4" d="M0,303.61a7.34,7.34,0,0,0,7.34-7.34A7.34,7.34,0,0,0,0,288.93Z"/><circle class="cls-4" cx="68.39" cy="368.5" r="7.34"/><circle class="cls-4" cx="341.97" cy="368.5" r="7.34"/><circle class="cls-4" cx="273.58" cy="368.5" r="7.34"/><circle class="cls-4" cx="205.18" cy="368.5" r="7.34"/><circle class="cls-4" cx="136.79" cy="368.5" r="7.34"/><path class="cls-4" d="M410.36,361.17a7.34,7.34,0,0,0,0,14.67Z"/><path class="cls-4" d="M0,361.17a7.34,7.34,0,0,1,7.34,7.33A7.34,7.34,0,0,1,0,375.84Z"/><path class="cls-4" d="M0,231.37A7.34,7.34,0,0,0,7.34,224,7.34,7.34,0,0,0,0,216.7Z"/><path class="cls-4" d="M0,159.14a7.34,7.34,0,0,0,7.34-7.34A7.34,7.34,0,0,0,0,144.47Z"/></g></g></g></svg>