<svg id="Layer_1" data-name="Layer 1" xmlns="http://www.w3.org/2000/svg" width="66.8px" height="1335.6px" viewBox="0 0 66.8 1335.6">
  <title>Artboard 1</title>
  <g id="_15" data-name="15">
    <g>
      <g>
        <circle cx="54.3" cy="1280.6" r="5.4" style="fill: #fadcbc"/>
        <circle cx="51.7" cy="1283.2" r="6.9" style="fill: #fff"/>
      </g>
      <g>
        <circle cx="12.5" cy="1280.6" r="5.4" style="fill: #fadcbc"/>
        <circle cx="15.1" cy="1283.2" r="6.9" style="fill: #fff"/>
      </g>
    </g>
    <g>
      <path d="M23.6,1279.2l4.8-.8a67.4,67.4,0,0,0-2-8.5c-1.2-4-5.8-9.7-5.8-9.7s-2.7,6.9-2.6,11,.9,8.8.9,8.8Z" style="fill: #332e2e"/>
      <path d="M42.6,1280l-4.8-.8a55.6,55.6,0,0,1,1.9-8.5c1.2-4,5.9-9.7,5.9-9.7s2.6,6.9,2.5,11a80.9,80.9,0,0,1-.8,8.7Z" style="fill: #332e2e"/>
    </g>
    <ellipse cx="32.9" cy="1285.2" rx="22.3" ry="14.6" style="fill: #f33"/>
    <g>
      <path d="M17.6,1288.6A15.6,15.6,0,0,1,31,1271.1h0a15.6,15.6,0,0,1,17.5,13.4h0A15.7,15.7,0,0,1,35.1,1302h0a15.6,15.6,0,0,1-17.5-13.4Z" style="fill: #ea3232"/>
      <path d="M17.7,1287.3a15.3,15.3,0,0,1,15.2-15.2h0A15.2,15.2,0,0,1,48,1287.3h0a15.1,15.1,0,0,1-15.1,15.1h0a15.1,15.1,0,0,1-15.2-15.1Z" style="fill: #fadcbc"/>
      <g>
        <path d="M47.4,1293.1l4.9,7s3.1-17.5-6.6-15.6Z" style="fill: #fadcbc"/>
        <path d="M13.5,1299.5s-2.6-17.7,6.9-15.4l-1.9,8.6-5,6.8" style="fill: #fadcbc"/>
      </g>
      <polygon points="32.9 1262.2 32.9 1262.2 35.1 1274.5 30.7 1274.5 32.9 1262.2" style="fill: #fadcbc"/>
      <circle cx="32.9" cy="1291.6" r="15.8" style="fill: #fff"/>
      <path d="M21,1292.7a12,12,0,0,1,24,0c0,6.7-12,24.2-12,24.2S21,1299.4,21,1292.7Z" style="fill: #f33"/>
      <circle cx="32.9" cy="1316.9" r="5" transform="translate(-13.4 0.4) rotate(-0.6)" style="fill: #fff"/>
    </g>
  </g>
  <g id="_14" data-name="14">
    <g>
      <path d="M23,1200l5-.9a84.5,84.5,0,0,0-2.1-9.1c-1.3-4.3-6.2-10.3-6.2-10.3s-2.7,7.3-2.6,11.7a75.7,75.7,0,0,0,.9,9.2Z" style="fill: #332e2e"/>
      <path d="M43.1,1200.8l-5-.8a84.5,84.5,0,0,1,2.1-9.1c1.3-4.3,6.2-10.3,6.2-10.3s2.7,7.3,2.6,11.6a69,69,0,0,1-1,9.3Z" style="fill: #332e2e"/>
    </g>
    <g>
      <g>
        <circle cx="54.3" cy="1201.5" r="5.4" style="fill: #fadcbc"/>
        <circle cx="51.7" cy="1204" r="6.9" style="fill: #fff"/>
      </g>
      <g>
        <circle cx="12.5" cy="1201.5" r="5.4" style="fill: #fadcbc"/>
        <circle cx="15.1" cy="1204" r="6.9" style="fill: #fff"/>
      </g>
    </g>
    <ellipse cx="32.9" cy="1201.6" rx="22.3" ry="14.6" style="fill: #f33"/>
    <path d="M50.1,1199.3a17.8,17.8,0,0,0-4.8-9.8,31.4,31.4,0,0,0-12.3-2.4,33.1,33.1,0,0,0-11.8,2.2,17,17,0,0,0,.8,25.1,34.8,34.8,0,0,0,11.1,1.9,31.3,31.3,0,0,0,11.7-2.2A18,18,0,0,0,50.1,1199.3Z" style="fill: #ea3232"/>
    <g>
      <path d="M17.7,1197.2a15.2,15.2,0,0,1,15.2-15.1h0A15.2,15.2,0,0,1,48,1197.2h0a15.2,15.2,0,0,1-15.1,15.2h0a15.3,15.3,0,0,1-15.2-15.2Z" style="fill: #fadcbc"/>
      <g>
        <path d="M47.4,1203l4.9,7s3.1-17.6-6.6-15.6Z" style="fill: #fadcbc"/>
        <path d="M13.5,1209.3s-2.6-17.6,6.9-15.3l-1.9,8.6-5,6.7" style="fill: #fadcbc"/>
      </g>
      <polygon points="32.9 1172.2 32.9 1172.2 35.1 1184.4 30.7 1184.4 32.9 1172.2" style="fill: #fadcbc"/>
      <circle cx="32.9" cy="1201.5" r="15.8" style="fill: #fff"/>
      <path d="M21,1202.6a12,12,0,0,1,24,0c0,6.6-12,24.2-12,24.2S21,1209.2,21,1202.6Z" style="fill: #f33"/>
      <circle cx="32.9" cy="1226.9" r="5" transform="matrix(1, -0.01, 0.01, 1, -12.52, 0.4)" style="fill: #fff"/>
    </g>
  </g>
  <g id="_13" data-name="13">
    <g>
      <path d="M23,1112l5-.9a79.9,79.9,0,0,0-2.1-9c-1.3-4.4-6.2-10.4-6.2-10.4s-2.7,7.3-2.6,11.7a75.9,75.9,0,0,0,.9,9.3Z" style="fill: #332e2e"/>
      <path d="M43.1,1112.9l-5-.9a79.9,79.9,0,0,1,2.1-9c1.3-4.4,6.2-10.4,6.2-10.4s2.7,7.3,2.6,11.7a66.4,66.4,0,0,1-1,9.2Z" style="fill: #332e2e"/>
    </g>
    <g>
      <g>
        <circle cx="12.5" cy="1119.6" r="5.4" style="fill: #fadcbc"/>
        <circle cx="15.1" cy="1117" r="6.9" style="fill: #fff"/>
      </g>
      <g>
        <circle cx="54.3" cy="1119.6" r="5.4" style="fill: #fadcbc"/>
        <circle cx="51.7" cy="1117" r="6.9" style="fill: #fff"/>
      </g>
    </g>
    <ellipse cx="32.9" cy="1112.6" rx="22.3" ry="14.6" style="fill: #f33"/>
    <path d="M50.1,1110.3a17.8,17.8,0,0,0-4.8-9.8,29.7,29.7,0,0,0-12.3-2.4,33.1,33.1,0,0,0-11.8,2.1,16.9,16.9,0,0,0-5,14.4,16.3,16.3,0,0,0,5.8,10.7,32.3,32.3,0,0,0,11.1,2,31.3,31.3,0,0,0,11.7-2.2A18.1,18.1,0,0,0,50.1,1110.3Z" style="fill: #ea3232"/>
    <g>
      <path d="M17.7,1108.2A15.3,15.3,0,0,1,32.9,1093h0A15.2,15.2,0,0,1,48,1108.2h0a15.1,15.1,0,0,1-15.1,15.1h0a15.2,15.2,0,0,1-15.2-15.1Z" style="fill: #fadcbc"/>
      <g>
        <path d="M47.4,1114l4.9,6.9s3.1-17.5-6.6-15.5Z" style="fill: #fadcbc"/>
        <path d="M13.5,1120.3s-2.6-17.7,6.9-15.4l-1.9,8.6-5,6.8" style="fill: #fadcbc"/>
      </g>
      <polygon points="32.9 1083.1 32.9 1083.1 35.1 1095.3 30.7 1095.3 32.9 1083.1" style="fill: #fadcbc"/>
      <circle cx="32.9" cy="1112.4" r="15.8" style="fill: #fff"/>
      <path d="M21,1113.5a12,12,0,0,1,24,0c0,6.7-12,24.2-12,24.2S21,1120.2,21,1113.5Z" style="fill: #f33"/>
      <circle cx="32.9" cy="1137.8" r="5" transform="translate(-11.6 0.4) rotate(-0.6)" style="fill: #fff"/>
    </g>
  </g>
  <g id="_12" data-name="12">
    <g>
      <path d="M23.4,1025.9l4.8-.7a66.9,66.9,0,0,0-2-8.6c-1.2-4.2-5.9-9.8-5.9-9.8s-2.6,6.9-2.5,11.1a69.6,69.6,0,0,0,.9,8.8Z" style="fill: #332e2e"/>
      <path d="M42.7,1026.7l-4.8-.8a61.3,61.3,0,0,1,1.9-8.6c1.2-4.1,5.9-9.8,5.9-9.8s2.6,7,2.5,11.1a81.2,81.2,0,0,1-.8,8.9Z" style="fill: #332e2e"/>
    </g>
    <path d="M16,1036.4a17.1,17.1,0,0,1,14.8-19.2h0A17.2,17.2,0,0,1,50,1032.1h0a17.2,17.2,0,0,1-14.8,19.1h0A17.2,17.2,0,0,1,16,1036.4Z" style="fill: #ea3232"/>
    <g>
      <g>
        <circle cx="15.4" cy="1035.3" r="5" style="fill: #fadcbc"/>
        <circle cx="17.7" cy="1032.9" r="6.2" transform="translate(-1015.3 1041.3) rotate(-89.5)" style="fill: #fff"/>
      </g>
      <g>
        <circle cx="51.4" cy="1035.3" r="5" style="fill: #fadcbc"/>
        <circle cx="49.1" cy="1032.9" r="6.2" style="fill: #fff"/>
      </g>
    </g>
    <ellipse cx="32.9" cy="1032.2" rx="20.4" ry="13.3" style="fill: #f33"/>
    <path d="M48.6,1030a16,16,0,0,0-4.4-9,28.7,28.7,0,0,0-11.2-2.1,28.8,28.8,0,0,0-10.8,2,15.7,15.7,0,0,0-4.6,13.2,16.3,16.3,0,0,0,5.2,9.8,29.9,29.9,0,0,0,10.2,1.8,30.4,30.4,0,0,0,10.7-2A16.5,16.5,0,0,0,48.6,1030Z" style="fill: #ea3232"/>
    <g>
      <path d="M19.1,1019.3A13.9,13.9,0,0,1,33,1005.5h0a13.8,13.8,0,0,1,13.8,13.8h0A13.8,13.8,0,0,1,33,1033.1h0a13.7,13.7,0,0,1-13.9-13.8Z" style="fill: #fadcbc"/>
      <g>
        <path d="M46.1,1024.6l4.4,6.4s2.9-15.9-6-14.2Z" style="fill: #fadcbc"/>
        <path d="M15.2,1030.4s-2.4-16,6.4-13.9l-1.8,7.8-4.6,6.1" style="fill: #fadcbc"/>
      </g>
      <polygon points="32.9 996.5 32.9 996.5 34.9 1007.7 30.9 1007.7 32.9 996.5" style="fill: #fadcbc"/>
      <circle cx="32.9" cy="1023.3" r="14.4" style="fill: #fff"/>
      <path d="M22.1,1024.3a10.9,10.9,0,0,1,21.8,0c0,6-10.9,22.1-10.9,22.1S22.1,1030.3,22.1,1024.3Z" style="fill: #f33"/>
      <circle cx="32.9" cy="1046.4" r="4.6" style="fill: #fff"/>
    </g>
  </g>
  <g id="_11" data-name="11">
    <path d="M16,945.4a17.1,17.1,0,0,1,14.8-19.2h0A17.1,17.1,0,0,1,50,941h0a17.2,17.2,0,0,1-14.8,19.2h0A17.3,17.3,0,0,1,16,945.4Z" style="fill: #ea3232"/>
    <g>
      <g>
        <circle cx="15.4" cy="951.9" r="5" style="fill: #fadcbc"/>
        <circle cx="17.7" cy="949.5" r="6.2" transform="translate(-931.9 958.6) rotate(-89.5)" style="fill: #fff"/>
      </g>
      <g>
        <circle cx="51.4" cy="951.9" r="5" style="fill: #fadcbc"/>
        <circle cx="49.1" cy="949.5" r="6.2" style="fill: #fff"/>
      </g>
    </g>
    <ellipse cx="32.9" cy="943.3" rx="20.4" ry="13.3" style="fill: #f33"/>
    <path d="M48.6,941.1a15.7,15.7,0,0,0-4.4-8.9,29.2,29.2,0,0,0-22-.1,15.5,15.5,0,0,0-4.6,13.2,16.3,16.3,0,0,0,5.2,9.8A29.9,29.9,0,0,0,33,956.8a30.4,30.4,0,0,0,10.7-2A16.4,16.4,0,0,0,48.6,941.1Z" style="fill: #ea3232"/>
    <g>
      <path d="M19.1,930.4A13.9,13.9,0,0,1,33,916.6h0a13.8,13.8,0,0,1,13.8,13.8h0A13.8,13.8,0,0,1,33,944.3h0a13.8,13.8,0,0,1-13.9-13.9Z" style="fill: #fadcbc"/>
      <g>
        <path d="M46.1,935.8l4.4,6.3s2.9-15.9-6-14.2Z" style="fill: #fadcbc"/>
        <path d="M15.2,941.6s-2.4-16.1,6.4-14l-1.8,7.8-4.6,6.2" style="fill: #fadcbc"/>
      </g>
      <polygon points="32.9 907.7 32.9 907.7 34.9 918.9 30.9 918.9 32.9 907.7" style="fill: #fadcbc"/>
      <circle cx="32.9" cy="934.5" r="14.4" style="fill: #fff"/>
      <path d="M22.1,935.4a10.9,10.9,0,0,1,21.8,0c0,6-10.9,22.2-10.9,22.2S22.1,941.4,22.1,935.4Z" style="fill: #f33"/>
      <circle cx="32.9" cy="957.6" r="4.6" style="fill: #fff"/>
    </g>
  </g>
  <g id="_10" data-name="10">
    <g>
      <g>
        <circle cx="15.4" cy="860.7" r="5" style="fill: #fadcbc"/>
        <circle cx="17.7" cy="858.3" r="6.2" transform="translate(-840.7 868.2) rotate(-89.5)" style="fill: #fff"/>
      </g>
      <g>
        <circle cx="51.4" cy="860.7" r="5" style="fill: #fadcbc"/>
        <circle cx="49.1" cy="858.3" r="6.2" style="fill: #fff"/>
      </g>
    </g>
    <ellipse cx="32.9" cy="852.1" rx="20.4" ry="13.3" style="fill: #f33"/>
    <path d="M48.6,849.9a15.4,15.4,0,0,0-4.4-8.9A27,27,0,0,0,33,838.8a28.8,28.8,0,0,0-10.8,2A15.7,15.7,0,0,0,17.6,854a16,16,0,0,0,5.2,9.8A29.9,29.9,0,0,0,33,865.6a30.4,30.4,0,0,0,10.7-2A16.4,16.4,0,0,0,48.6,849.9Z" style="fill: #ea3232"/>
    <g>
      <path d="M19.1,841.5A13.9,13.9,0,0,1,33,827.7h0a13.8,13.8,0,0,1,13.8,13.8h0A13.8,13.8,0,0,1,33,855.3h0a13.9,13.9,0,0,1-13.9-13.8Z" style="fill: #fadcbc"/>
      <g>
        <path d="M46.1,846.7l4.4,6.4s2.9-16-6-14.2Z" style="fill: #fadcbc"/>
        <path d="M15.2,852.5s-2.4-16,6.4-13.9l-1.8,7.8-4.6,6.1" style="fill: #fadcbc"/>
      </g>
      <polygon points="32.9 818.6 32.9 818.6 34.9 829.8 30.9 829.8 32.9 818.6" style="fill: #fadcbc"/>
      <circle cx="32.9" cy="845.4" r="14.4" style="fill: #fff"/>
      <path d="M22.1,846.4a10.9,10.9,0,0,1,21.8,0c0,6-10.9,22.1-10.9,22.1S22.1,852.5,22.1,846.4Z" style="fill: #f33"/>
      <circle cx="32.9" cy="868.5" r="4.6" style="fill: #fff"/>
    </g>
  </g>
  <g id="_9" data-name="9">
    <g>
      <path d="M23.4,755.4l4.8-.8a71.2,71.2,0,0,0-2-8.6c-1.2-4.1-5.9-9.8-5.9-9.8s-2.6,7-2.5,11.1a69.8,69.8,0,0,0,.9,8.9Z" style="fill: #332e2e"/>
      <path d="M42.7,756.2l-4.8-.8a58.3,58.3,0,0,1,1.9-8.6c1.2-4.2,5.9-9.8,5.9-9.8s2.6,7,2.5,11.1a81.1,81.1,0,0,1-.8,8.8Z" style="fill: #332e2e"/>
    </g>
    <g>
      <g>
        <circle cx="54.3" cy="756.3" r="5.4" style="fill: #fadcbc"/>
        <circle cx="51.7" cy="758.9" r="6.9" style="fill: #fff"/>
      </g>
      <g>
        <circle cx="12.5" cy="756.3" r="5.4" style="fill: #fadcbc"/>
        <circle cx="15.1" cy="758.9" r="6.9" style="fill: #fff"/>
      </g>
    </g>
    <ellipse cx="32.9" cy="756.5" rx="22.3" ry="14.6" style="fill: #f33"/>
    <path d="M50.1,754.1a17.8,17.8,0,0,0-4.8-9.8A31.4,31.4,0,0,0,33,741.9a33.1,33.1,0,0,0-11.8,2.2,16.8,16.8,0,0,0-5,14.4A16.3,16.3,0,0,0,22,769.1a32.3,32.3,0,0,0,11.1,2,31.3,31.3,0,0,0,11.7-2.2A17.8,17.8,0,0,0,50.1,754.1Z" style="fill: #ea3232"/>
    <g>
      <path d="M17.7,752a15.2,15.2,0,0,1,15.2-15.1h0A15.1,15.1,0,0,1,48,752h0a15.2,15.2,0,0,1-15.1,15.2h0A15.2,15.2,0,0,1,17.7,752Z" style="fill: #fadcbc"/>
      <g>
        <path d="M47.4,757.9l4.9,7s3.1-17.6-6.6-15.6Z" style="fill: #fadcbc"/>
        <path d="M13.5,764.2s-2.6-17.6,6.9-15.3l-1.9,8.6-5,6.7" style="fill: #fadcbc"/>
      </g>
      <polygon points="32.9 727 32.9 727 35.1 739.3 30.7 739.3 32.9 727" style="fill: #fadcbc"/>
      <circle cx="32.9" cy="756.4" r="15.8" style="fill: #fff"/>
      <path d="M21,757.5a12,12,0,0,1,24,0c0,6.6-12,24.2-12,24.2S21,764.1,21,757.5Z" style="fill: #f33"/>
      <circle cx="32.9" cy="781.7" r="5" transform="matrix(1, -0.01, 0.01, 1, -7.97, 0.38)" style="fill: #fff"/>
    </g>
  </g>
  <g id="_8" data-name="8">
    <g>
      <path d="M23.4,666.4l4.8-.8a71.2,71.2,0,0,0-2-8.6c-1.2-4.1-5.9-9.8-5.9-9.8s-2.6,7-2.5,11.1a67.1,67.1,0,0,0,.9,8.8Z" style="fill: #332e2e"/>
      <path d="M42.7,667.1l-4.8-.7a58.3,58.3,0,0,1,1.9-8.6c1.2-4.2,5.9-9.8,5.9-9.8s2.6,6.9,2.5,11.1a81.1,81.1,0,0,1-.8,8.8Z" style="fill: #332e2e"/>
    </g>
    <g>
      <g>
        <circle cx="12.5" cy="674.4" r="5.4" style="fill: #fadcbc"/>
        <circle cx="15.1" cy="671.8" r="6.9" style="fill: #fff"/>
      </g>
      <g>
        <circle cx="54.3" cy="674.4" r="5.4" style="fill: #fadcbc"/>
        <circle cx="51.7" cy="671.8" r="6.9" style="fill: #fff"/>
      </g>
    </g>
    <ellipse cx="32.9" cy="667.4" rx="22.3" ry="14.6" style="fill: #f33"/>
    <path d="M50.1,665.1a17.8,17.8,0,0,0-4.8-9.8A29.7,29.7,0,0,0,33,652.9,33.1,33.1,0,0,0,21.2,655a16.9,16.9,0,0,0-5,14.4A16.3,16.3,0,0,0,22,680.1a32.3,32.3,0,0,0,11.1,2,31.3,31.3,0,0,0,11.7-2.2A18.1,18.1,0,0,0,50.1,665.1Z" style="fill: #ea3232"/>
    <g>
      <path d="M17.7,663a15.2,15.2,0,0,1,15.2-15.1h0A15.1,15.1,0,0,1,48,663h0a15.2,15.2,0,0,1-15.1,15.2h0A15.3,15.3,0,0,1,17.7,663Z" style="fill: #fadcbc"/>
      <g>
        <path d="M47.4,668.8l4.9,7s3.1-17.6-6.6-15.6Z" style="fill: #fadcbc"/>
        <path d="M13.5,675.1s-2.6-17.7,6.9-15.4l-1.9,8.6-5,6.8" style="fill: #fadcbc"/>
      </g>
      <polygon points="32.9 637.9 32.9 637.9 35.1 650.1 30.7 650.1 32.9 637.9" style="fill: #fadcbc"/>
      <circle cx="32.9" cy="667.3" r="15.8" style="fill: #fff"/>
      <path d="M21,668.3a12,12,0,0,1,24,0c0,6.7-12,24.2-12,24.2S21,675,21,668.3Z" style="fill: #f33"/>
      <circle cx="32.9" cy="692.6" r="5" transform="matrix(1, -0.01, 0.01, 1, -7.07, 0.37)" style="fill: #fff"/>
    </g>
  </g>
  <g id="_7" data-name="7">
    <g>
      <circle cx="19.4" cy="589.5" r="5.2" transform="matrix(0.01, -1, 1, 0.01, -570.2, 603.52)" style="fill: #332e2e"/>
      <rect x="13" y="577" width="14.7" height="10.46" transform="translate(-559.2 523.7) rotate(-82.2)" style="fill: #332e2e"/>
    </g>
    <path d="M41.6,566.2l-5.2-.6a72.6,72.6,0,0,1,1.9-9.5c1.1-4.5,6-10.9,6-10.9s3.1,7.4,3.1,12a69.6,69.6,0,0,1-.6,9.6Z" style="fill: #332e2e"/>
    <g>
      <circle cx="56.3" cy="553.7" r="6" style="fill: #fadcbc"/>
      <circle cx="55.6" cy="557.6" r="7.5" style="fill: #fff"/>
    </g>
    <g>
      <circle cx="9.7" cy="583.6" r="6" style="fill: #fadcbc"/>
      <circle cx="11.7" cy="580.1" r="7.5" style="fill: #fff"/>
    </g>
    <ellipse cx="32.6" cy="571.8" rx="24.6" ry="16.1" style="fill: #f33"/>
    <line x1="54.9" y1="559.2" x2="51.1" y2="573.3" style="fill: none;stroke: #f33;stroke-linecap: round;stroke-miterlimit: 10;stroke-width: 11.988717428098466px"/>
    <line x1="11.9" y1="579.4" x2="14.4" y2="570.1" style="fill: none;stroke: #f33;stroke-linecap: round;stroke-miterlimit: 10;stroke-width: 11.988717428098466px"/>
    <g>
      <path d="M15.7,575.5a17.2,17.2,0,0,1,14.8-19.2h0a17.2,17.2,0,0,1,19.2,14.9h0a17.1,17.1,0,0,1-14.8,19.1h0a17.2,17.2,0,0,1-19.2-14.8Z" style="fill: #ea3232"/>
      <path d="M15.9,574.1a16.7,16.7,0,0,1,16.7-16.7h0a16.7,16.7,0,0,1,16.7,16.7h0a16.7,16.7,0,0,1-16.7,16.7h0a16.5,16.5,0,0,1-16.7-16.7Z" style="fill: #fadcbc"/>
      <g>
        <path d="M48.4,580.5l5.5,7.7s3.4-19.3-7.2-17.2Z" style="fill: #fadcbc"/>
        <path d="M11.1,587.5s-2.8-19.4,7.8-16.9l-2.2,9.5-5.6,7.4" style="fill: #fadcbc"/>
      </g>
      <polygon points="32.6 546.5 32.6 546.5 35 560 30.2 560 32.6 546.5" style="fill: #fadcbc"/>
      <circle cx="32.6" cy="578.9" r="17.4" style="fill: #fff"/>
      <path d="M19.5,580.1a13.2,13.2,0,1,1,26.4,0c0,7.3-13.2,26.7-13.2,26.7S19.5,587.4,19.5,580.1Z" style="fill: #f33"/>
      <circle cx="32.6" cy="606.8" r="5.6" transform="translate(-574.9 619.2) rotate(-88.1)" style="fill: #fff"/>
    </g>
  </g>
  <g id="_6" data-name="6">
    <g>
      <circle cx="18.9" cy="505.5" r="5.7" transform="translate(-5.2 0.2) rotate(-0.6)" style="fill: #332e2e"/>
      <rect x="11.9" y="491.9" width="16" height="11.44" transform="matrix(0.14, -0.99, 0.99, 0.14, -475.78, 450.04)" style="fill: #332e2e"/>
    </g>
    <path d="M43.2,474.2l-5.8-.8a98.2,98.2,0,0,1,2-10.3c1.2-4.9,6.5-11.9,6.5-11.9s3.4,8.1,3.5,13.1a74.7,74.7,0,0,1-.7,10.5Z" style="fill: #332e2e"/>
    <g>
      <circle cx="10.7" cy="499.5" r="6.5" style="fill: #fadcbc"/>
      <circle cx="11.1" cy="495.1" r="8.2" style="fill: #fff"/>
    </g>
    <ellipse cx="33.3" cy="484" rx="26.9" ry="17.7" style="fill: #f33"/>
    <path d="M56.1,468.3c1.6,8.4-2.7,17.5-2.7,17.5" style="fill: none;stroke: #f33;stroke-linecap: round;stroke-miterlimit: 10;stroke-width: 13.086339117560085px"/>
    <path d="M10.7,492.4c-1.1-5.1,2.7-10.2,2.7-10.2" style="fill: none;stroke: #f33;stroke-linecap: round;stroke-miterlimit: 10;stroke-width: 13.086339117560085px"/>
    <g>
      <path d="M15,488a18.8,18.8,0,0,1,16.1-20.9h0A18.8,18.8,0,0,1,52,483.3h0a18.8,18.8,0,0,1-16.1,20.9h0A18.6,18.6,0,0,1,15,488Z" style="fill: #ea3232"/>
      <path d="M15.1,486.5a18.1,18.1,0,0,1,18.2-18.2h0a18.2,18.2,0,0,1,18.2,18.2h0a18.1,18.1,0,0,1-18.2,18.2h0a18,18,0,0,1-18.2-18.2Z" style="fill: #fadcbc"/>
      <g>
        <path d="M50.6,493.5l6,8.3s3.8-21.1-7.9-18.7Z" style="fill: #fadcbc"/>
        <path d="M9.9,501.1s-3-21.1,8.5-18.4l-2.3,10.4-6.2,8" style="fill: #fadcbc"/>
      </g>
      <polygon points="33.3 456.4 33.3 456.4 35.9 471.2 30.7 471.2 33.3 456.4" style="fill: #fadcbc"/>
      <circle cx="33.3" cy="491.8" r="19.1" style="fill: #fff"/>
      <path d="M19,493.1a14.4,14.4,0,1,1,28.8,0c0,7.9-14.4,29.1-14.4,29.1S19,501,19,493.1Z" style="fill: #f33"/>
      <circle cx="33.3" cy="522.2" r="6.1" style="fill: #fff"/>
    </g>
    <circle cx="55.7" cy="467.2" r="8.2" style="fill: #fff"/>
    <circle cx="54.9" cy="463" r="6.5" style="fill: #fadcbc"/>
  </g>
  <g id="_5" data-name="5">
    <g>
      <circle cx="17.3" cy="422.5" r="6.4" style="fill: #332e2e"/>
      <rect x="9.5" y="407.2" width="18" height="12.86" transform="translate(-393.9 376) rotate(-82.2)" style="fill: #332e2e"/>
    </g>
    <path d="M43.5,382l-6.4-.9a97.2,97.2,0,0,1,2.3-11.5c1.4-5.6,7.4-13.4,7.4-13.4s3.8,9,3.9,14.7a92.7,92.7,0,0,1-.7,11.8Z" style="fill: #332e2e"/>
    <g>
      <circle cx="10.4" cy="412.7" r="7.3" style="fill: #fadcbc"/>
      <circle cx="9.3" cy="407.9" r="9.3" style="fill: #fff"/>
    </g>
    <ellipse cx="32.3" cy="395.4" rx="30.2" ry="19.8" style="fill: #f33"/>
    <path d="M58,377.8c1.9,9.4-2.9,19.6-2.9,19.6" style="fill: none;stroke: #f33;stroke-linecap: round;stroke-miterlimit: 10;stroke-width: 14.71233561037895px"/>
    <path d="M9.3,407.4a14.7,14.7,0,0,1,.8-14.1" style="fill: none;stroke: #f33;stroke-linecap: round;stroke-miterlimit: 10;stroke-width: 14.71233561037895px"/>
    <g>
      <path d="M11.7,400a21.2,21.2,0,0,1,18.2-23.6h0a21,21,0,0,1,23.5,18.2h0a21,21,0,0,1-18.2,23.6h0A21.2,21.2,0,0,1,11.7,400Z" style="fill: #ea3232"/>
      <path d="M11.8,398.1a20.6,20.6,0,0,1,20.5-20.5h0a20.6,20.6,0,0,1,20.5,20.5h0a20.5,20.5,0,0,1-20.5,20.5h0a20.4,20.4,0,0,1-20.5-20.5Z" style="fill: #fadcbc"/>
      <g>
        <path d="M51.8,406.1l6.7,9.4s4.2-23.7-8.9-21.1Z" style="fill: #fadcbc"/>
        <path d="M6.1,414.6s-3.4-23.8,9.5-20.7l-2.7,11.6-6.8,9.1" style="fill: #fadcbc"/>
      </g>
      <polygon points="32.3 364.3 32.3 364.3 35.2 380.9 29.4 380.9 32.3 364.3" style="fill: #fadcbc"/>
      <circle cx="32.3" cy="404" r="21.4" style="fill: #fff"/>
      <path d="M16.3,405.5a16.1,16.1,0,0,1,32.2,0c0,9-16.1,32.9-16.1,32.9S16.3,414.5,16.3,405.5Z" style="fill: #f33"/>
      <circle cx="32.3" cy="438.4" r="6.9" style="fill: #fff"/>
    </g>
    <g>
      <circle cx="57.6" cy="371" r="9.3" style="fill: #fff"/>
      <circle cx="56.6" cy="367.4" r="7.3" style="fill: #fadcbc"/>
    </g>
  </g>
  <g id="_4" data-name="4">
    <g>
      <circle cx="18.9" cy="326.9" r="5.7" transform="translate(-4.9 0.3) rotate(-0.9)" style="fill: #332e2e"/>
      <rect x="11.9" y="313.2" width="16" height="11.44" transform="translate(-298.8 295.6) rotate(-82.2)" style="fill: #332e2e"/>
    </g>
    <path d="M43.2,296.7l-5.8-.8a102.8,102.8,0,0,1,2-10.4c1.2-4.9,6.5-11.8,6.5-11.8s3.4,8,3.5,13a73.2,73.2,0,0,1-.7,10.5Z" style="fill: #332e2e"/>
    <g>
      <circle cx="54.8" cy="284.4" r="6.5" style="fill: #fadcbc"/>
      <circle cx="55.7" cy="288.6" r="8.2" style="fill: #fff"/>
    </g>
    <g>
      <circle cx="10.7" cy="320.9" r="6.5" transform="translate(-310.2 328.4) rotate(-89.4)" style="fill: #fadcbc"/>
      <circle cx="11.1" cy="316.5" r="8.2" transform="translate(-203.1 83.3) rotate(-40.6)" style="fill: #fff"/>
    </g>
    <ellipse cx="33.3" cy="305.4" rx="26.9" ry="17.7" style="fill: #f33"/>
    <path d="M56,289.7c1.7,8.4-2.6,17.4-2.6,17.4" style="fill: none;stroke: #f33;stroke-linecap: round;stroke-miterlimit: 10;stroke-width: 13.086339117560085px"/>
    <path d="M10.7,313.8c-1.1-5.1,2.7-10.3,2.7-10.3" style="fill: none;stroke: #f33;stroke-linecap: round;stroke-miterlimit: 10;stroke-width: 13.086339117560085px"/>
    <g>
      <path d="M15,309.4a18.6,18.6,0,0,1,16.1-20.9h0A18.8,18.8,0,0,1,52,304.6h0a18.7,18.7,0,0,1-16.1,20.9h0A18.4,18.4,0,0,1,15,309.4Z" style="fill: #ea3232"/>
      <path d="M15.1,307.9a18.1,18.1,0,0,1,18.2-18.2h0a18.2,18.2,0,0,1,18.2,18.2h0a18.2,18.2,0,0,1-18.2,18.2h0a18.1,18.1,0,0,1-18.2-18.2Z" style="fill: #fadcbc"/>
      <g>
        <path d="M50.6,314.9l6,8.3s3.8-21.1-7.9-18.7Z" style="fill: #fadcbc"/>
        <path d="M9.9,322.5s-3-21.1,8.5-18.4L16,314.4l-6.1,8.1" style="fill: #fadcbc"/>
      </g>
      <polygon points="33.3 277.8 33.3 277.8 35.9 292.5 30.6 292.5 33.3 277.8" style="fill: #fadcbc"/>
      <circle cx="33.3" cy="313.1" r="19.1" transform="translate(-7.4 0.9) rotate(-1.4)" style="fill: #fff"/>
      <path d="M19,314.4a14.4,14.4,0,0,1,28.8,0c0,8-14.4,29.1-14.4,29.1S19,322.4,19,314.4Z" style="fill: #f33"/>
      <circle cx="33.3" cy="343.5" r="6.1" style="fill: #fff"/>
    </g>
  </g>
  <g id="_3" data-name="3">
    <g>
      <circle cx="19.4" cy="233.3" r="5.2" style="fill: #332e2e"/>
      <rect x="13" y="220.9" width="14.7" height="10.46" transform="translate(-206.4 215.7) rotate(-82.2)" style="fill: #332e2e"/>
    </g>
    <path d="M41.6,210.1l-5.2-.6a72.6,72.6,0,0,1,1.9-9.5c1.1-4.5,6-10.9,6-10.9s3.1,7.4,3.1,12a69.6,69.6,0,0,1-.6,9.6Z" style="fill: #332e2e"/>
    <g>
      <circle cx="56.3" cy="197.5" r="6" style="fill: #fadcbc"/>
      <circle cx="55.6" cy="201.4" r="7.5" style="fill: #fff"/>
    </g>
    <g>
      <circle cx="9.7" cy="227.5" r="6" style="fill: #fadcbc"/>
      <circle cx="11.7" cy="224" r="7.5" style="fill: #fff"/>
    </g>
    <ellipse cx="32.6" cy="215.6" rx="24.6" ry="16.1" style="fill: #f33"/>
    <line x1="54.9" y1="203" x2="51.1" y2="217.2" style="fill: none;stroke: #f33;stroke-linecap: round;stroke-miterlimit: 10;stroke-width: 11.988717428098466px"/>
    <line x1="11.9" y1="223.3" x2="14.4" y2="213.9" style="fill: none;stroke: #f33;stroke-linecap: round;stroke-miterlimit: 10;stroke-width: 11.988717428098466px"/>
    <g>
      <path d="M15.7,219.4a17.2,17.2,0,0,1,14.8-19.2h0A17.2,17.2,0,0,1,49.7,215h0a17.1,17.1,0,0,1-14.8,19.2h0a17.2,17.2,0,0,1-19.2-14.8Z" style="fill: #ea3232"/>
      <path d="M15.9,217.9a16.7,16.7,0,0,1,16.7-16.7h0a16.7,16.7,0,0,1,16.7,16.7h0a16.6,16.6,0,0,1-16.7,16.6h0a16.5,16.5,0,0,1-16.7-16.6Z" style="fill: #fadcbc"/>
      <g>
        <path d="M48.4,224.3l5.5,7.6s3.4-19.3-7.2-17.1Z" style="fill: #fadcbc"/>
        <path d="M11.1,231.3s-2.8-19.4,7.8-16.9l-2.2,9.5-5.6,7.4" style="fill: #fadcbc"/>
      </g>
      <polygon points="32.6 190.3 32.6 190.3 35 203.8 30.2 203.8 32.6 190.3" style="fill: #fadcbc"/>
      <circle cx="32.6" cy="222.7" r="17.4" style="fill: #fff"/>
      <path d="M19.5,223.9a13.2,13.2,0,0,1,26.4,0c0,7.3-13.2,26.7-13.2,26.7S19.5,231.2,19.5,223.9Z" style="fill: #f33"/>
      <circle cx="32.6" cy="250.6" r="5.6" transform="translate(-218.9 274.8) rotate(-88.1)" style="fill: #fff"/>
    </g>
  </g>
  <g id="_2" data-name="2">
    <g>
      <g>
        <circle cx="12.5" cy="145.8" r="5.4" style="fill: #fadcbc"/>
        <circle cx="15.1" cy="143.2" r="6.9" style="fill: #fff"/>
      </g>
      <g>
        <circle cx="54.3" cy="145.8" r="5.4" style="fill: #fadcbc"/>
        <circle cx="51.7" cy="143.2" r="6.9" style="fill: #fff"/>
      </g>
    </g>
    <ellipse cx="32.9" cy="138.7" rx="22.3" ry="14.6" style="fill: #f33"/>
    <path d="M16,138.5a17.1,17.1,0,0,1,14.8-19.2h0A17.1,17.1,0,0,1,50,134.1h0a17.2,17.2,0,0,1-14.8,19.2h0A17.3,17.3,0,0,1,16,138.5Z" style="fill: #ea3232"/>
    <g>
      <path d="M17.7,128.8a15.3,15.3,0,0,1,15.2-15.2h0A15.2,15.2,0,0,1,48,128.8h0a15.1,15.1,0,0,1-15.1,15.1h0a15.1,15.1,0,0,1-15.2-15.1Z" style="fill: #fadcbc"/>
      <g>
        <path d="M47.4,134.7l4.9,6.9s3.1-17.5-6.6-15.6Z" style="fill: #fadcbc"/>
        <path d="M13.5,141s-2.6-17.7,6.9-15.4l-1.9,8.6-5,6.8" style="fill: #fadcbc"/>
      </g>
      <polygon points="32.9 103.7 32.9 103.7 35.1 116 30.7 116 32.9 103.7" style="fill: #fadcbc"/>
      <circle cx="32.9" cy="133.1" r="15.8" style="fill: #fff"/>
      <path d="M21,134.2a12,12,0,0,1,24,0c0,6.7-12,24.2-12,24.2S21,140.9,21,134.2Z" style="fill: #f33"/>
      <circle cx="32.9" cy="158.4" r="5" style="fill: #fff"/>
    </g>
  </g>
  <g id="_1" data-name="1">
    <g>
      <g>
        <circle cx="56.5" cy="33.1" r="6" style="fill: #fadcbc"/>
        <circle cx="53.6" cy="35.9" r="7.5" style="fill: #fff"/>
      </g>
      <g>
        <circle cx="10.3" cy="33.1" r="6" style="fill: #fadcbc"/>
        <circle cx="13.3" cy="35.9" r="7.5" style="fill: #fff"/>
      </g>
    </g>
    <g>
      <path d="M22.5,31.4l5.2-.8a69.6,69.6,0,0,0-2.1-9.4c-1.3-4.5-6.5-10.7-6.5-10.7S16.3,18,16.5,22.6s1,9.6,1,9.6Z" style="fill: #332e2e"/>
      <path d="M43.6,32.3l-5.3-.9a75.8,75.8,0,0,1,2.2-9.3c1.3-4.5,6.4-10.7,6.4-10.7s2.9,7.5,2.8,12.1-1,9.6-1,9.6Z" style="fill: #332e2e"/>
    </g>
    <ellipse cx="32.9" cy="38.1" rx="24.6" ry="16.1" style="fill: #f33"/>
    <g>
      <path d="M16,41.8A17.1,17.1,0,0,1,30.8,22.6h0A17.2,17.2,0,0,1,50,37.4h0A17.2,17.2,0,0,1,35.2,56.6h0A17.2,17.2,0,0,1,16,41.8Z" style="fill: #ea3232"/>
      <path d="M16.2,40.3A16.7,16.7,0,0,1,32.9,23.6h0A16.6,16.6,0,0,1,49.5,40.3h0A16.6,16.6,0,0,1,32.9,56.9h0A16.5,16.5,0,0,1,16.2,40.3Z" style="fill: #fadcbc"/>
      <g>
        <path d="M48.7,46.8l5.4,7.6s3.5-19.3-7.2-17.1Z" style="fill: #fadcbc"/>
        <path d="M11.4,53.7S8.6,34.3,19.1,36.8L17,46.3l-5.6,7.4" style="fill: #fadcbc"/>
      </g>
      <polygon points="32.9 12.7 32.9 12.7 35.3 26.2 30.5 26.2 32.9 12.7" style="fill: #fadcbc"/>
      <circle cx="32.9" cy="45.1" r="17.4" style="fill: #fff"/>
      <path d="M19.8,46.3a13.2,13.2,0,0,1,26.4,0C46.2,53.6,33,73,33,73S19.8,53.6,19.8,46.3Z" style="fill: #f33"/>
      <circle cx="32.9" cy="73" r="5.6" style="fill: #fff"/>
    </g>
  </g>
</svg>
