<svg id="Layer_1" data-name="Layer 1" xmlns="http://www.w3.org/2000/svg" viewBox="0 0 127 93.06" width="127" height="94"><defs><style>.cls-1{fill:#6f00ff;}.cls-2{fill:#5b00ea;}.cls-3{fill:#4c00c4;}</style></defs><title>Santa_selfie_bow_custer</title><path class="cls-1" d="M60.34,46.41l-1.77-9h0c-.27.28-.56.55-.85.83l.22,8.31s-7.78,21-34.62,35h0l-.83,11.53C55.15,74,60.34,46.41,60.34,46.41Z" transform="translate(0 0)"/><path class="cls-2" d="M58.57,37.43l-.65,9.15s-7.78,21-34.62,35l0,.32L23.56,78,5.91,71.84S43.66,52.28,58.57,37.43" transform="translate(0 0)"/><path class="cls-1" d="M66.66,46.41l1.77-9h0c.27.28.56.55.85.83l-.22,8.31s7.78,21,34.62,35h0l.83,11.53C71.85,74,66.66,46.41,66.66,46.41Z" transform="translate(0 0)"/><path class="cls-2" d="M68.43,37.43l.65,9.15s7.78,21,34.62,35l0,.32L103.44,78l17.65-6.2S83.34,52.28,68.43,37.43" transform="translate(0 0)"/><path class="cls-2" d="M58.79,31.58S44.65,7.08,20.65.39c0,0-4.85-2.23-8.3,4a28.28,28.28,0,0,0-1.79,3.91h0c-2.41-.09-6.81.41-8,5C.24,22-1.61,35.35,2.14,55.23c0,0,.84,8.48,11.07,5.46,9.11-2.7,43.3-15.13,43.3-15.13Zm-1.93-.49h0ZM11.26,8.32h0Zm.94.12-.4-.07c.17-.35.35-.71.55-1.06,3.45-6.19,8.3-4,8.3-4,17.6,4.91,29.89,19.4,35.2,26.77C51,25.47,33.44,10.18,12.2,8.44Z" transform="translate(0 0)"/><path class="cls-3" d="M12.2,8.44c21.24,1.74,38.78,17,43.65,21.67-5.31-7.37-17.6-21.86-35.2-26.77,0,0-4.85-2.22-8.3,4-.2.35-.38.71-.55,1.06Z" transform="translate(0 0)"/><path class="cls-1" d="M20.71,50.17a150.15,150.15,0,0,1,21.43.4l0,.1,14.4-5.11C26.25,54.44,14.5,24.35,30,15.21A59.83,59.83,0,0,0,15,11,6.76,6.76,0,0,0,14,13c-2.14,8.15-3,25.85,6.78,37.13Z" transform="translate(0 0)"/><path class="cls-3" d="M2.14,55.23S3,63.71,13.21,60.69c5.16-1.53,19-6.4,29.47-10.15l-.54,0C9.52,47.9,2,54.58,2.14,55.23Z" transform="translate(0 0)"/><path class="cls-2" d="M70.49,45.56S104.68,58,113.79,60.69c10.23,3,11.07-5.46,11.07-5.46,3.75-19.88,1.9-33.19-.41-41.94-1.21-4.6-5.61-5.1-8-5h0a28.28,28.28,0,0,0-1.79-3.91c-3.45-6.2-8.3-4-8.3-4-24,6.69-38.14,31.19-38.14,31.19Zm-.34-14.47h0ZM115.73,8.32h0ZM71.15,30.11c5.31-7.37,17.6-21.86,35.2-26.77,0,0,4.85-2.22,8.3,4,.2.35.38.71.55,1.06l-.4.07C93.56,10.18,76,25.47,71.15,30.11Z" transform="translate(0 0)"/><path class="cls-3" d="M114.8,8.44C93.56,10.18,76,25.47,71.15,30.11c5.31-7.37,17.6-21.86,35.2-26.77,0,0,4.85-2.22,8.3,4,.2.35.38.71.55,1.06Z" transform="translate(0 0)"/><path class="cls-1" d="M106.29,50.17a150.15,150.15,0,0,0-21.43.4l0,.1-14.4-5.11c30.26,8.88,42-21.21,26.48-30.35A59.83,59.83,0,0,1,112,11,6.76,6.76,0,0,1,113,13c2.14,8.15,3,25.85-6.78,37.13Z" transform="translate(0 0)"/><path class="cls-3" d="M124.86,55.23s-.84,8.48-11.07,5.46c-5.16-1.53-19-6.4-29.47-10.15l.54,0C117.48,47.9,125,54.58,124.86,55.23Z" transform="translate(0 0)"/><path class="cls-3" d="M79.88,36c.62-3,8.54-5.2,5.15-8.29s-16.65,9.5-16.65,9.5H58.79S45.53,24.6,42.14,27.7,46.67,33,47.29,36s-8.79-.49-8.79,2.48,9,11.6,22.78,2.21a6,6,0,0,1,4.61,0c13.74,9.39,22.78.76,22.78-2.21S79.26,39,79.88,36Z" transform="translate(0 0)"/><rect class="cls-2" x="55.83" y="30.09" width="15.33" height="21.18" rx="3.35"/><path class="cls-1" d="M55.83,39s.9,1.72,7.67,1.72S71.17,39,71.17,39V33.64H55.83Z" transform="translate(0 0)"/><path class="cls-3" d="M65.51,48.39h-4a10.54,10.54,0,0,1-5.66-1.65v1.18a3.35,3.35,0,0,0,3.35,3.35h8.64a3.35,3.35,0,0,0,3.35-3.35V46.74A10.54,10.54,0,0,1,65.51,48.39Z" transform="translate(0 0)"/></svg>
