<svg xmlns="http://www.w3.org/2000/svg" viewBox="0 0 84 138" width="84" height="138"><g opacity=".25"><path d="M79.6 109c5.5-20.9-7.4-42.3-28.4-47.9-20.9-5.5-42.4 7-47.9 27.9s7 42 27.9 47.5c21 5.6 42.9-6.6 48.4-27.5z"/><path d="M79 69.9c4.1-15.6-5.1-31.6-20.7-35.7-15.6-4.1-31.6 5.2-35.7 20.8-4.1 15.6 5.2 31.6 20.8 35.7C59 94.9 74.9 85.5 79 69.9z"/><path d="M83.2 31.5C86.5 19 79.1 6.1 66.6 2.8 54-.5 41.2 7 37.9 19.5 34.6 32 42.1 44.9 54.6 48.2c12.6 3.3 25.3-4.2 28.6-16.7z"/><path d="M77.3 103.8c.5-2 .1-2.9-.2-4.8-.3-1.8-.3-3.8-.5-5.7-.3-3.4-1.5-7.3-3.3-10.2-.7-1.2-1.5-2.6-2.3-4 1.4-1.4 2.4-3.2 3.4-5.2 1.7-3.4 2.8-6.7 3.1-10.7.2-3.1-.6-5-1.1-8.1-.5-3.1-2.2-6.3-4.3-8.8-.5-.6-1.1-2.2-1.7-2.7 3.2-1.3 7-3.7 8.3-7.3 1.5-4.1 3.2-9.1 2.8-13.5-.2-1.8-1.5-4.1-2.2-5.9-.7-1.9-1.9-3.9-3.4-5.2-1.3-1.1-2.9-1.7-4.3-2.4-1.8-.8-3-2.1-4.9-2.6-2-.5-4-.9-6.1-.5-2.4.5-4.7.7-6.9 1.8-4.9 2.6-9 8.4-9.9 13.9-.8 4.9-1.1 12 2.2 15.7.2.3.5.5.8.8-2.1.4-4.2 1-6.2 2-4.1 2.1-6.5 5.4-8 9.9-1.7 5.4-3.9 11.7-3 17.4-2.3.8-4.7 2.5-6.6 3.5-4.2 2.2-7.3 5.8-9.5 10-2.3 4.3-2.8 9.4-3.7 14.1-1 4.9-.6 8.9.3 13.6.6 2.9 1 5.9 2.8 8.3 3.2 4.2 6.4 8.6 11.3 11 3 1.4 6 2.6 9.2 3.8 2.2.8 4.5 2.1 6.9 2.3 7 .5 15.1-2.3 20.7-6.3 3.2-2.3 5.8-5.3 9.1-7.4 3.1-2 4.2-4.9 5.2-8.4.6-2.9 1.3-5.7 2-8.4z"/><path d="M59.3 6.1c-2.4.5-4.7.7-6.9 1.8-4.9 2.5-8.9 8.3-9.8 13.7-.8 4.5-1.1 11.5 2.2 15.2 2 2.2 6.4 4 9.2 4.8 4.1 1.2 8.5 2.7 12.8 2.3 5.3-.5 9-3.3 10.8-8.1 1.5-4 3.2-9 2.7-13.3-.2-1.8-1.5-4.1-2.2-5.8-.7-1.8-1.9-3.9-3.4-5.2-1.3-1.1-2.9-1.7-4.3-2.3-1.8-.8-3-2.1-4.9-2.5-2.1-.6-4.2-1-6.2-.6z"/><path d="M51.1 37.3c-4.3.3-8.4.7-12.4 2.7-4.1 2-6.5 5.3-7.9 9.7-2.2 7-5.3 15.6-1.1 22.4 5.4 8.7 16.1 12.9 26.1 11.6 3.4-.4 6.9-1.4 10.1-2.9 3.4-1.6 5.1-4.3 6.7-7.5 1.7-3.4 2.8-6.6 3-10.5.2-3.1-.6-5.9-1.1-9-.5-3-.8-6.1-2.9-8.6-3.3-4-8.5-5.3-13.4-6.6l-7.1-1.3z"/><path d="M30 66.3c-2.8.1-6.2 2.6-8.7 3.9-4.2 2.2-7.3 5.8-9.5 10C9.5 84.5 9 89.6 8 94.3c-1 4.9-.6 8.9.3 13.6.6 2.9 1 5.9 2.8 8.3 3.2 4.2 6.4 8.6 11.3 11 3 1.4 6 2.6 9.2 3.8 2.2.8 4.5 2.1 6.9 2.3 7 .5 15.1-2.3 20.7-6.3 3.2-2.3 5.8-5.3 9.1-7.4 3.1-2 4.2-4.9 5.2-8.4.7-2.7 1.5-5.5 2.2-8.2.5-2 .1-2.9-.2-4.8-.3-1.8-.3-3.8-.5-5.7-.3-3.4-1.5-7.3-3.3-10.2-1.5-2.5-3-5.7-5.1-7.7-2.5-2.4-6.3-3.4-9.4-4.7-3.4-1.4-6-3.4-9.6-4.4l-17.6.8z"/><circle cx="56" cy="49.8" r="4.1"/><circle cx="55.2" cy="49.6" r="4.1"/><circle cx="55.1" cy="17.5" r="3.3"/><circle cx="54.5" cy="17.3" r="3.3"/><circle cx="49.5" cy="29.3" r="1.2"/><circle cx="51.6" cy="33.3" r="1.2"/><circle cx="55.3" cy="36.2" r="1.2"/><circle cx="60.2" cy="37.7" r="1.2"/><circle cx="65.3" cy="37.2" r="1.2"/><circle cx="69.8" cy="34.6" r="1.2"/><path d="M78.9 31.9c.1-.4-.1-.7-.5-.8l-15.9-6c-.2-.1-.4-.2-.6-.2-2.2-.6-4.4.7-5 2.9-.6 2.2.7 4.4 2.9 5 .5.1 1 .2 1.5.1l16.9-.4c.3 0 .6-.2.7-.6z"/><circle cx="78.4" cy="31.3" r=".7"/><circle cx="69.2" cy="21.2" r="3.3"/><circle cx="68.6" cy="21" r="3.3"/><circle cx="60.8" cy="28.3" r="4.1"/><circle cx="53" cy="61.1" r="4.1"/><circle cx="52.2" cy="60.9" r="4.1"/><circle cx="49.9" cy="73.1" r="4.1"/><circle cx="49.1" cy="72.9" r="4.1"/><path d="M62.5 24.6l16 6.1-.2 1.3-17.1.4z"/><circle cx="26.3" cy="85.5" r="1.3"/><circle cx="61.4" cy="118" r="1.3"/><circle cx="27.1" cy="119.7" r="1.3"/><circle cx="42" cy="108.1" r="1.3"/><circle cx="64.3" cy="102" r="1.3"/><circle cx="52.6" cy="115.2" r="1.3"/><circle cx="59.3" cy="79.9" r="1.3"/><circle cx="51.6" cy="92.2" r="1.3"/><circle cx="23.3" cy="74.1" r="1.3"/><circle cx="44" cy="62" r="1.3"/><circle cx="39.3" cy="44.6" r="1.3"/><circle cx="65.2" cy="40.3" r="1.3"/><circle cx="72.6" cy="15.2" r="1.3"/><circle cx="64.6" cy="14.4" r="1.3"/><circle cx="44.7" cy="128" r="1.3"/><circle cx="36.4" cy="118.3" r="1.3"/><circle cx="50.8" cy="104.4" r="1.3"/><circle cx="65.2" cy="54.5" r="1.3"/><circle cx="47.3" cy="22" r="1.3"/><circle cx="22.3" cy="107.2" r="1.3"/><circle cx="68.9" cy="89.3" r="1.3"/><circle cx="35.7" cy="94.9" r="1.3"/><circle cx="13" cy="89.4" r="1.3"/><circle cx="12.7" cy="104.5" r="1.3"/><circle cx="40.7" cy="79.4" r="1.3"/><circle cx="35.7" cy="54.9" r="1.3"/><circle cx="44.5" cy="51.7" r="1.3"/><circle cx="67.7" cy="60.4" r="1.3"/><circle cx="57.1" cy="10.2" r="1.3"/><circle cx="59.7" cy="67.1" r="1.3"/><path opacity=".5" d="M29 68.2c-.1 1.1.7 2.2 1.1 3.3.4 1.2.7 2.3 1.6 3.2.8.8 1.6 1.1 2.2 2 .6.9.9 1.9 2 2.2 1.2-1.9 1.5-5.1 2.1-7.3.6-2.2 2.2-5.3.8-7.4-.7-1.1-1.2-1.8-1.7-3.1-.9-2.2-2.9-3.1-4.2-4.9-.7-.9-.5-1.7-.5-2.7 0-.3.2-2.3.1-2.5-1.2-1.4-2.2 2.8-2.4 3.4-.5 2-1.2 4-1.7 6-.4 1.6-.7 2.8-.4 4.3.3 1.5.7 2.8 1 4.3"/><path opacity=".5" d="M64.7 122.3c-1.9 1.5-5.5 4.9-8.2 6.5-4.3 2.5-10 4.4-16.2 4.5-4 .1-6.1-1.6-9.5-4.1-2.3-1.7-8.9-6.2-7.2-9.6 1.5-3 7-2 9.9-2.5 2.2-.4 3.8-1.2 5.7-2.3 1-.6 2-.9 3.1-1.2 1.8-.6 3-1.6 4.6-2.8 1.7-1.2 3.6-1.6 5.2-2.9 2.6-2.1 4.6-5.1 6.6-7.8 1-1.4 3.7-9.7 6.2-7 1.2 1.3 1.9 5 2.3 6.7.4 2 .7 3.7.7 5.7 0 1.6.4 3.2.3 4.8-.1 1.1-.6 2.2-.5 3.3-.1-.1.5 6-3 8.7z"/><path opacity=".5" d="M18.5 96.8c-1.1-.8-.8-2.7-.4-3.9.6-1.9.9-1.6 2.8-1.6 1.4 0 2.5.4 3.9.6 2.1.4 2.3.7 2.6 3.5.1.7.5 3.1 0 3.6-.6.7-3.4.4-4.4.4-1.3-.1-5.9-.3-4.9-2.5"/></g><path fill="#F7D89E" d="M77.6 107c5.5-20.9-7.4-42.3-28.4-47.9-20.9-5.5-42.4 7-47.9 27.9s7 42 27.9 47.5c21 5.6 42.9-6.6 48.4-27.5z"/><path fill="#F7D89E" d="M77 67.9c4.1-15.6-5.1-31.6-20.7-35.7-15.6-4.1-31.6 5.2-35.7 20.8-4.1 15.6 5.2 31.6 20.8 35.7C57 92.9 72.9 83.5 77 67.9z"/><path fill="#F7D89E" d="M81.2 29.5C84.5 17 77.1 4.1 64.6.8 52-2.5 39.2 5 35.9 17.5 32.6 30 40.1 42.9 52.6 46.2c12.6 3.3 25.3-4.2 28.6-16.7z"/><path fill="#F0F0F0" d="M75.3 101.8c.5-2 .1-2.9-.2-4.8-.3-1.8-.3-3.8-.5-5.7-.3-3.4-1.5-7.3-3.3-10.2-.7-1.2-1.5-2.6-2.3-4 1.4-1.4 2.4-3.2 3.4-5.2 1.7-3.4 2.8-6.7 3.1-10.7.2-3.1-.6-5-1.1-8.1-.5-3.1-2.2-6.3-4.3-8.8-.5-.6-1.1-2.2-1.7-2.7 3.2-1.3 7-3.7 8.3-7.3 1.5-4.1 3.2-9.1 2.8-13.5-.2-1.8-1.5-4.1-2.2-5.9-.7-1.9-1.9-3.9-3.4-5.2C72.6 8.6 71 8 69.6 7.3c-1.8-.8-3-2.1-4.9-2.6-2-.5-4-.9-6.1-.5-2.4.5-4.7.7-6.9 1.8-4.9 2.6-9 8.4-9.9 13.9-.8 4.9-1.1 12 2.2 15.7.2.3.5.5.8.8-2.1.4-4.2 1-6.2 2-4.1 2.1-6.5 5.4-8 9.9-1.7 5.4-3.9 11.7-3 17.4-2.3.8-4.7 2.5-6.6 3.5-4.2 2.2-7.3 5.8-9.5 10-2.3 4.3-2.8 9.4-3.7 14.1-1 4.9-.6 8.9.3 13.6.6 2.9 1 5.9 2.8 8.3 3.2 4.2 6.4 8.6 11.3 11 3 1.4 6 2.6 9.2 3.8 2.2.8 4.5 2.1 6.9 2.3 7 .5 15.1-2.3 20.7-6.3 3.2-2.3 5.8-5.3 9.1-7.4 3.1-2 4.2-4.9 5.2-8.4.6-2.9 1.3-5.7 2-8.4z"/><path fill="#F0F0F0" d="M57.3 4.1c-2.4.5-4.7.7-6.9 1.8-4.9 2.5-8.9 8.3-9.8 13.7-.8 4.5-1.1 11.5 2.2 15.2 2 2.2 6.4 4 9.2 4.8 4.1 1.2 8.5 2.7 12.8 2.3 5.3-.5 9-3.3 10.8-8.1 1.5-4 3.2-9 2.7-13.3-.2-1.8-1.5-4.1-2.2-5.8-.7-1.8-1.9-3.9-3.4-5.2-1.3-1.1-2.9-1.7-4.3-2.3-1.8-.8-3-2.1-4.9-2.5-2.1-.6-4.2-1-6.2-.6z"/><path fill="#F0F0F0" d="M49.1 35.3c-4.3.3-8.4.7-12.4 2.7-4.1 2-6.5 5.3-7.9 9.7-2.2 7-5.3 15.6-1.1 22.4 5.4 8.7 16.1 12.9 26.1 11.6 3.4-.4 6.9-1.4 10.1-2.9 3.4-1.6 5.1-4.3 6.7-7.5 1.7-3.4 2.8-6.6 3-10.5.2-3.1-.6-5.9-1.1-9-.5-3-.8-6.1-2.9-8.6-3.3-4-8.5-5.3-13.4-6.6l-7.1-1.3z"/><path fill="#F0F0F0" d="M28 64.3c-2.8.1-6.2 2.6-8.7 3.9-4.2 2.2-7.3 5.8-9.5 10C7.5 82.5 7 87.6 6 92.3c-1 4.9-.6 8.9.3 13.6.6 2.9 1 5.9 2.8 8.3 3.2 4.2 6.4 8.6 11.3 11 3 1.4 6 2.6 9.2 3.8 2.2.8 4.5 2.1 6.9 2.3 7 .5 15.1-2.3 20.7-6.3 3.2-2.3 5.8-5.3 9.1-7.4 3.1-2 4.2-4.9 5.2-8.4.7-2.7 1.5-5.5 2.2-8.2.5-2 .1-2.9-.2-4.8-.3-1.8-.3-3.8-.5-5.7-.3-3.4-1.5-7.3-3.3-10.2-1.5-2.5-3-5.7-5.1-7.7-2.5-2.4-6.3-3.4-9.4-4.7-3.4-1.4-6-3.4-9.6-4.4l-17.6.8z"/><circle fill="#E0E0E0" cx="54" cy="47.8" r="4.1"/><circle fill="#4D4D4D" cx="53.2" cy="47.6" r="4.1"/><circle fill="#E0E0E0" cx="53.1" cy="15.5" r="3.3"/><circle fill="#4D4D4D" cx="52.5" cy="15.3" r="3.3"/><circle fill="#4D4D4D" cx="47.5" cy="27.3" r="1.2"/><circle fill="#4D4D4D" cx="49.6" cy="31.3" r="1.2"/><circle fill="#4D4D4D" cx="53.3" cy="34.2" r="1.2"/><circle fill="#4D4D4D" cx="58.2" cy="35.7" r="1.2"/><circle fill="#4D4D4D" cx="63.3" cy="35.2" r="1.2"/><circle fill="#4D4D4D" cx="67.8" cy="32.6" r="1.2"/><path fill="#E0E0E0" d="M76.9 29.9c.1-.4-.1-.7-.5-.8l-15.9-6c-.2-.1-.4-.2-.6-.2-2.2-.6-4.4.7-5 2.9-.6 2.2.7 4.4 2.9 5 .5.1 1 .2 1.5.1l16.9-.4c.3 0 .6-.2.7-.6z"/><circle fill="#E68234" cx="76.4" cy="29.3" r=".7"/><circle fill="#E0E0E0" cx="67.2" cy="19.2" r="3.3"/><circle fill="#4D4D4D" cx="66.6" cy="19" r="3.3"/><circle fill="#E68234" cx="58.8" cy="26.3" r="4.1"/><circle fill="#E0E0E0" cx="51" cy="59.1" r="4.1"/><circle fill="#4D4D4D" cx="50.2" cy="58.9" r="4.1"/><circle fill="#E0E0E0" cx="47.9" cy="71.1" r="4.1"/><circle fill="#4D4D4D" cx="47.1" cy="70.9" r="4.1"/><path fill="#E68234" d="M60.5 22.6l16 6.1-.2 1.3-17.1.4z"/><circle fill="#E0E0E0" cx="24.3" cy="83.5" r="1.3"/><circle fill="#E0E0E0" cx="59.4" cy="116" r="1.3"/><circle fill="#E0E0E0" cx="25.1" cy="117.7" r="1.3"/><circle fill="#E0E0E0" cx="40" cy="106.1" r="1.3"/><circle fill="#E0E0E0" cx="62.3" cy="100" r="1.3"/><circle fill="#E0E0E0" cx="50.6" cy="113.2" r="1.3"/><circle fill="#E0E0E0" cx="57.3" cy="77.9" r="1.3"/><circle fill="#fff" cx="49.6" cy="90.2" r="1.3"/><circle fill="#fff" cx="21.3" cy="72.1" r="1.3"/><circle fill="#fff" cx="42" cy="60" r="1.3"/><circle fill="#fff" cx="37.3" cy="42.6" r="1.3"/><circle fill="#fff" cx="63.2" cy="38.3" r="1.3"/><circle fill="#fff" cx="70.6" cy="13.2" r="1.3"/><circle fill="#fff" cx="62.6" cy="12.4" r="1.3"/><circle fill="#fff" cx="42.7" cy="126" r="1.3"/><circle fill="#fff" cx="34.4" cy="116.3" r="1.3"/><circle fill="#fff" cx="48.8" cy="102.4" r="1.3"/><circle fill="#fff" cx="63.2" cy="52.5" r="1.3"/><circle fill="#fff" cx="45.3" cy="20" r="1.3"/><circle fill="#fff" cx="20.3" cy="105.2" r="1.3"/><circle fill="#fff" cx="66.9" cy="87.3" r="1.3"/><circle fill="#fff" cx="33.7" cy="92.9" r="1.3"/><circle fill="#fff" cx="11" cy="87.4" r="1.3"/><circle fill="#E0E0E0" cx="10.7" cy="102.5" r="1.3"/><circle fill="#E0E0E0" cx="38.7" cy="77.4" r="1.3"/><circle fill="#E0E0E0" cx="33.7" cy="52.9" r="1.3"/><circle fill="#E0E0E0" cx="42.5" cy="49.7" r="1.3"/><circle fill="#E0E0E0" cx="65.7" cy="58.4" r="1.3"/><circle fill="#E0E0E0" cx="55.1" cy="8.2" r="1.3"/><circle fill="#E0E0E0" cx="57.7" cy="65.1" r="1.3"/><path opacity=".5" fill="#fff" d="M27 66.2c-.1 1.1.7 2.2 1.1 3.3.4 1.2.7 2.3 1.6 3.2.8.8 1.6 1.1 2.2 2 .6.9.9 1.9 2 2.2 1.2-1.9 1.5-5.1 2.1-7.3.6-2.2 2.2-5.3.8-7.4-.7-1.1-1.2-1.8-1.7-3.1-.9-2.2-2.9-3.1-4.2-4.9-.7-.9-.5-1.7-.5-2.7 0-.3.2-2.3.1-2.5-1.2-1.4-2.2 2.8-2.4 3.4-.5 2-1.2 4-1.7 6-.4 1.6-.7 2.8-.4 4.3.3 1.5.7 2.8 1 4.3"/><path opacity=".5" fill="#fff" d="M62.7 120.3c-1.9 1.5-5.5 4.9-8.2 6.5-4.3 2.5-10 4.4-16.2 4.5-4 .1-6.1-1.6-9.5-4.1-2.3-1.7-8.9-6.2-7.2-9.6 1.5-3 7-2 9.9-2.5 2.2-.4 3.8-1.2 5.7-2.3 1-.6 2-.9 3.1-1.2 1.8-.6 3-1.6 4.6-2.8 1.7-1.2 3.6-1.6 5.2-2.9 2.6-2.1 4.6-5.1 6.6-7.8 1-1.4 3.7-9.7 6.2-7 1.2 1.3 1.9 5 2.3 6.7.4 2 .7 3.7.7 5.7 0 1.6.4 3.2.3 4.8-.1 1.1-.6 2.2-.5 3.3-.1-.1.5 6-3 8.7z"/><path opacity=".5" fill="#fff" d="M16.5 94.8c-1.1-.8-.8-2.7-.4-3.9.6-1.9.9-1.6 2.8-1.6 1.4 0 2.5.4 3.9.6 2.1.4 2.3.7 2.6 3.5.1.7.5 3.1 0 3.6-.6.7-3.4.4-4.4.4-1.3-.1-5.9-.3-4.9-2.5"/></svg>