<svg xmlns="http://www.w3.org/2000/svg" viewBox="0 0 228.36 355"><defs><style>.cls-1{isolation:isolate;}.cls-11,.cls-2{fill:none;}.cls-3{fill:#e53935;}.cls-14,.cls-4,.cls-6{fill:#231f20;}.cls-13,.cls-4{opacity:0.15;}.cls-13,.cls-4,.cls-6{mix-blend-mode:multiply;}.cls-5{fill:#8d6e63;}.cls-6{opacity:0.2;}.cls-7{fill:#212121;}.cls-8{fill:#fff;}.cls-9{fill:#f9ce1d;}.cls-10{fill:#ef9a9a;}.cls-11{stroke:#e53935;stroke-linecap:round;stroke-linejoin:round;stroke-width:47.07px;}.cls-12{fill:#f7caad;}</style></defs><title>santa_wave</title><g class="cls-1"><g id="Layer_2" data-name="Layer 2"><g id="ART"><path class="cls-2" d="M119.66,136.62H46a24.09,24.09,0,0,1-24.09-24.1V64.82"/><path class="cls-3" d="M119.66,152.57H46a40.09,40.09,0,0,1-40-40V64.82H37.89v47.7A8.15,8.15,0,0,0,46,120.66h73.63Z"/><path class="cls-4" d="M6,102.55v10A40.09,40.09,0,0,0,46,152.57h73.63v-10H46A40.1,40.1,0,0,1,6,102.55Z"/><path class="cls-5" d="M228.36,139.94a56.18,56.18,0,1,1-56.18-56.18A56.18,56.18,0,0,1,228.36,139.94Z"/><path class="cls-6" d="M187.5,85.9a48.32,48.32,0,0,1,31.24,45c0,26.67-21.89,48.29-48.88,48.29S121,157.61,121,130.94a47.76,47.76,0,0,1,9.62-28.79A56.19,56.19,0,1,0,187.5,85.9Z"/><rect class="cls-3" x="72.79" y="232.35" width="41.88" height="54.85"/><path class="cls-7" d="M72.79,305.14v20.94A28.91,28.91,0,0,0,43.88,355h70.8V305.14Z"/><rect class="cls-8" x="72.79" y="287.19" width="41.88" height="17.95"/><rect class="cls-3" x="124.65" y="232.35" width="41.88" height="54.85"/><path class="cls-7" d="M166.53,305.14v20.94A28.92,28.92,0,0,1,195.45,355h-70.8V305.14Z"/><rect class="cls-8" x="124.65" y="287.19" width="41.88" height="17.95"/><circle class="cls-3" cx="120.66" cy="178.5" r="73.79"/><rect class="cls-7" x="46.87" y="178.5" width="147.58" height="23.93"/><rect class="cls-9" x="103.71" y="178.5" width="31.91" height="23.93"/><path class="cls-4" d="M147.65,109.82A73.79,73.79,0,0,1,78.71,239.2a73.79,73.79,0,1,0,68.94-129.38Z"/><path class="cls-10" d="M94.23,70.78A11.22,11.22,0,1,1,83,59.83,11.08,11.08,0,0,1,94.23,70.78Z"/><path class="cls-10" d="M167.53,70.78a11.22,11.22,0,1,1-11.22-11A11.1,11.1,0,0,1,167.53,70.78Z"/><path class="cls-8" d="M78.78,12a12,12,0,1,1-12-12A12,12,0,0,1,78.78,12Z"/><path class="cls-9" d="M22.67,62.39a6,6,0,0,0,6,5.92A18.28,18.28,0,0,0,46.9,50.09v0a6,6,0,0,0-11.91,0,6.36,6.36,0,0,1-6.38,6.31,6,6,0,0,0-5.95,6Z"/><path class="cls-9" d="M4,61.21a16,16,0,0,0,32-.12l0-18V43A16,16,0,0,0,4,43.1l0,18A.13.13,0,0,1,4,61.21Z"/><rect class="cls-8" y="64.82" width="43.88" height="17.95" rx="7.85" ry="7.85"/><line class="cls-11" x1="183.48" y1="127.64" x2="203.43" y2="171.52"/><path class="cls-12" d="M119.66,35.9A39.88,39.88,0,0,0,79.78,75.79v39.88h79.77V75.79A39.89,39.89,0,0,0,119.66,35.9Z"/><g class="cls-13"><path class="cls-14" d="M140.6,82.77H64.82c0,40.75,33.73,73.79,75.35,73.79h.43a36.9,36.9,0,1,0,0-73.79Z"/></g><path class="cls-8" d="M130.63,73.79H54.85c0,40.76,33.73,73.79,75.35,73.79h.43a36.9,36.9,0,1,0,0-73.79Z"/><path class="cls-10" d="M130.63,73.79c0,5-4.91,9-11,9s-11-4-11-9,4.91-9,11-9S130.63,68.83,130.63,73.79Z"/><path class="cls-7" d="M127.64,85.76a8,8,0,1,1-16,0Z"/><circle class="cls-9" cx="182.49" cy="127.64" r="20.94"/><polygon class="cls-5" points="178.37 129.29 159.8 142.7 175.79 156.11 184.04 133.41 178.37 129.29"/><path class="cls-3" d="M84.2,12h-.44V59.83h75.79C159.55,33.4,125.81,12,84.2,12Z"/><rect class="cls-8" x="73.79" y="35.9" width="91.74" height="23.93" rx="7.85" ry="7.85"/><path class="cls-7" d="M103.71,65.81a3,3,0,1,1-3-3A3,3,0,0,1,103.71,65.81Z"/><path class="cls-7" d="M135.62,65.81a3,3,0,1,0,3-3A3,3,0,0,0,135.62,65.81Z"/></g></g></g></svg>