<svg xmlns="http://www.w3.org/2000/svg" viewBox="0 0 176.49 280"><defs><style>.cls-1{fill:none;stroke:#d43e2e;stroke-miterlimit:10;stroke-width:12.04px;}.cls-2{fill:#fff;}.cls-3{fill:#f58b37;stroke:#f58b37;stroke-linejoin:round;stroke-width:4.01px;}.cls-4{fill:#221f1f;}.cls-5{fill:#29b6f6;}.cls-6{fill:#f29312;}</style></defs><title>snowman</title><g id="Layer_2" data-name="Layer 2"><g id="ART"><path class="cls-1" d="M114.14,72.16c13.1,1.83,20.46,27.18,42.53,33.23"/><path class="cls-1" d="M114.14,72.16c11.09-5.53,14.44-9.52,25.14-4.51s36.12,9.69,36.12,9.69"/><circle class="cls-2" cx="80.65" cy="214.89" r="65.11" transform="translate(-147.02 244.02) rotate(-76.72)"/><path class="cls-2" d="M29.55,118.75a51.1,51.1,0,1,1,51.1,51.17A51.14,51.14,0,0,1,29.55,118.75Z"/><path class="cls-1" d="M46.3,74.33s-2.84-.17-2.89,5.85,39.35,14.88,52.89,11,20.24-13.87,17.06-15.72l-7-5.82Z"/><path class="cls-2" d="M36.8,43.86A43.86,43.86,0,1,1,80.65,87.71,43.86,43.86,0,0,1,36.8,43.86Z"/><polygon class="cls-3" points="80.65 39.22 50.83 47.84 80.65 50.23 80.65 39.22"/><path class="cls-4" d="M93.88,31.08c0,1.3,1.6,2.37,3.58,2.37s3.59-1.07,3.59-2.37-1.61-2.37-3.59-2.37S93.88,29.77,93.88,31.08Z"/><path class="cls-4" d="M53.74,31.08c0,1.3,1.61,2.37,3.59,2.37s3.59-1.07,3.59-2.37-1.61-2.37-3.59-2.37S53.74,29.77,53.74,31.08Z"/><circle class="cls-5" cx="16.28" cy="118.79" r="16.28"/><path class="cls-6" d="M0,121.26c0,12,16.28,30.39,16.28,30.39s16.28-18.35,16.28-30.39Z"/></g></g></svg>