<svg width="190" height="87" fill="none" xmlns="http://www.w3.org/2000/svg"><path d="M114.799 30.4935h-11.521v11.5213h11.521V30.4935z" fill="#FFDF00"/><path d="M109.684 35.6536v-5.1601h-1.468v5.1601h-4.938v1.468h4.938v4.8932h1.468v-4.8932h5.16v-1.468h-5.16z" fill="#DA4637"/><path opacity=".1" d="M114.798 30.4933h-2.046v11.5212h2.046V30.4933z" fill="#000"/><path d="M120.268 42.014h-11.521v11.5212h11.521V42.014z" fill="#914295"/><path d="M115.108 47.1741V42.014h-1.423v5.1601h-4.938v1.4679h4.938v4.9377h1.423V48.642h5.16v-1.4679h-5.16z" fill="#48B980"/><path d="M108.749 42.0153H93.8025v11.5212h14.9465V42.0153z" fill="#DA4637"/><path d="M100.208 47.1753v-5.1601h-1.4677v5.1601h-4.9377v1.468h4.9377v4.9376h1.4677v-4.9376h8.541v-1.468h-8.541z" fill="#FFDF00"/><path opacity=".1" d="M108.702 42.015h-3.07v11.5213h3.07V42.015zM120.27 42.014h-8.541v11.5212h8.541V42.014z" fill="#000"/><path d="M116.577 48.4653v10.676" stroke="#E53935" stroke-width="2.70838" stroke-miterlimit="10" stroke-linecap="round"/><path d="M122.583 60.4315c0 1.4679-1.157 2.6245-2.625 2.6245-1.112 0-2.046-.8897-2.046-2.0463v-1.9572h-2.714v5.9163c0 .3558.312.6672.668.6672h6.628c1.423 0 2.624-1.1121 2.669-2.5355.089-1.4235-1.112-2.669-2.58-2.669z" fill="#332E2E"/><path d="M117.953 61.7209h-1.023c-.356 0-.667-.3114-.667-.6672 0-.3559.311-.6673.667-.6673h1.023c.356 0 .668.3114.668.6673 0 .3558-.312.6672-.668.6672z" fill="#F9CE1D"/><path d="M111.864 48.4653v10.676" stroke="#E53935" stroke-width="2.70838" stroke-miterlimit="10" stroke-linecap="round"/><path d="M105.859 60.4315c0 1.4679 1.157 2.6245 2.624 2.6245 1.113 0 2.047-.8897 2.047-2.0463v-1.9572h2.713v5.9163c0 .3558-.311.6672-.667.6672h-6.628c-1.424 0-2.625-1.1121-2.669-2.5355-.089-1.4235 1.068-2.669 2.58-2.669z" fill="#332E2E"/><path d="M110.487 61.7209h1.023c.356 0 .667-.3114.667-.6672 0-.3559-.311-.6673-.667-.6673h-1.023c-.356 0-.667.3114-.667.6673 0 .3558.311.6672.667.6672z" fill="#F9CE1D"/><path d="M111.865 48.4634h4.715l-2.357-12.0106-2.358 12.0106z" fill="#E53935"/><path d="M114.223 35.1188c-3.203 0-5.783 2.5801-5.783 5.7829v4.8487c0 3.2028 2.58 5.7829 5.783 5.7829 3.203 0 5.783-2.5801 5.783-5.7829v-4.8932c0-3.1583-2.58-5.7384-5.783-5.7384z" fill="#E53935"/><path d="M120.006 42.8152H108.44v2.8915h11.566v-2.8915z" fill="#332E2E"/><path d="M115.646 42.8146h-2.892v2.8914h2.892v-2.8914z" fill="#F9CE1D"/><path d="M114.222 14.9685c1.106 0 2.002-.8962 2.002-2.0018 0-1.1055-.896-2.0017-2.002-2.0017-1.105 0-2.002.8962-2.002 2.0017 0 1.1056.897 2.0018 2.002 2.0018z" fill="#fff"/><path d="M120.003 26.4904l-5.783-11.5213-5.782 11.5213h11.565z" fill="#F33"/><path d="M119.737 27.9577c-.711 0-1.379-.4448-1.601-1.201-.534-1.6904-2.091-2.847-3.915-2.847-1.824 0-3.38 1.1566-3.914 2.847-.267.8896-1.246 1.379-2.135 1.1121-.89-.2669-1.379-1.2456-1.113-2.1352.979-3.1139 3.826-5.2491 7.118-5.2491 3.292 0 6.139 2.0907 7.117 5.2491.267.8896-.222 1.8238-1.112 2.1352-.133.0444-.267.0889-.445.0889z" fill="#fff"/><path d="M121.872 25.2878l-2.936 2.936c-.266.2669-.444.6672-.444 1.0676 0 .8451.667 1.5124 1.512 1.5124.4 0 .801-.1779 1.068-.4448 1.823-1.8239.8-5.0712.8-5.0712zM109.505 28.2238l-2.935-2.936s-1.068 3.2918.8 5.1156c.267.2669.667.4449 1.068.4449.845 0 1.512-.6673 1.512-1.5125 0-.4448-.133-.8007-.445-1.112z" fill="#BF8F68"/><path d="M114.223 29.335c0 3.7811-3.069 6.8504-6.851 6.8504V29.335h6.851zM114.224 29.3352c0 3.7811 3.07 6.8505 6.851 6.8505v-6.8505h-6.851z" fill="#332E2E"/><path d="M107.372 29.336c0-3.7811 3.07-6.8505 6.851-6.8505s6.85 3.0694 6.85 6.8505h-13.701z" fill="#332E2E"/><path d="M114.221 35.1189c3.194 0 5.783-2.5891 5.783-5.7829 0-3.1938-2.589-5.7828-5.783-5.7828-3.194 0-5.783 2.589-5.783 5.7828s2.589 5.7829 5.783 5.7829z" fill="#BF8F68"/><path d="M113.062 27.6449c0 .6227-.533 1.1565-1.156 1.1565-.667 0-1.157-.5338-1.157-1.1565 0-.6228.534-1.1566 1.157-1.1566s1.156.5338 1.156 1.1566zM117.735 27.6452c0 .6228-.534 1.1566-1.157 1.1566-.667 0-1.157-.5338-1.157-1.1566 0-.6227.534-1.1566 1.157-1.1566s1.157.5339 1.157 1.1566z" fill="#332E2E"/><path d="M117.733 30.0031c0 1.9127-1.557 3.5142-3.514 3.5142-1.913 0-3.515-1.557-3.515-3.5142h7.029z" fill="#fff"/><path d="M116.089 23.865c-3.025-1.0232-6.316.5782-7.339 3.6031 3.024 1.0231 6.316-.5783 7.339-3.6031z" fill="#332E2E"/><path d="M110.622 37.1655c-5.471 0-10.9872-4.4484-10.9872-9.475" stroke="#F33" stroke-width="2.70838" stroke-miterlimit="10" stroke-linecap="round"/><path d="M99.6327 27.6905c1.5973 0 2.8913-1.2945 2.8913-2.8914s-1.294-2.8914-2.8913-2.8914c-1.5969 0-2.8914 1.2945-2.8914 2.8914s1.2945 2.8914 2.8914 2.8914z" fill="#BF8F68"/><path d="M102.08 26.3554h-4.8936c-.7562 0-1.3345.6228-1.3345 1.3345 0 .7118.6228 1.3345 1.3345 1.3345h4.8936c.756 0 1.334-.6227 1.334-1.3345 0-.7117-.578-1.3345-1.334-1.3345z" fill="#fff"/><path d="M125.21 30.004h-21.975v21.9749h21.975V30.004z" fill="#00ABE9"/><path d="M115.424 39.8349V30.004h-2.803v9.8309h-9.386v2.8025h9.386v9.3415h2.803v-9.3415h9.786v-2.8025h-9.786z" fill="#4859B9"/><path d="M125.209 48.4192c1.597 0 2.891-1.2946 2.891-2.8914 0-1.5969-1.294-2.8915-2.891-2.8915s-2.892 1.2946-2.892 2.8915c0 1.5968 1.295 2.8914 2.892 2.8914z" fill="#BF8F68"/><path d="M79.1709 26.6676c-1.7348 1.7349-4.5818 1.7349-6.3166 0-.8897-.8896-.8897-2.2686 0-3.1583.8896-.8897.8896-2.2687 0-3.1583-.8897-.8897-.8897-2.2687 0-3.1584.8896-.8896.8896-2.2686 0-3.1583-.8897-.8897-.8897-2.2687 0-3.1583h6.3166c.8897.8896.8897 2.2686 0 3.1583-.8896.8897-.8896 2.2687 0 3.1583.8897.8897.8897 2.2687 0 3.1584-.8896.8896-.8896 2.2686 0 3.1583.8452.8897.8452 2.2687 0 3.1583z" fill="#F57C00"/><path opacity=".2" d="M75.1669 78.8462c8.4759 0 15.3469-1.0157 15.3469-2.2687 0-1.2529-6.871-2.2686-15.3469-2.2686-8.4758 0-15.3468 1.0157-15.3468 2.2686 0 1.253 6.871 2.2687 15.3468 2.2687z" fill="#000"/><path d="M76.0134 40.681v27.3574" stroke="#AD00AD" stroke-width="3.13604" stroke-miterlimit="10" stroke-linecap="round"/><path d="M82.9523 69.5962c0 1.6903-1.3789 3.0248-3.0248 3.0248-1.2901 0-2.3577-1.0676-2.3577-2.3576v-2.2686H74.456v6.8504c0 .4448.3559.8007.8007.8007h7.6067c1.6459 0 3.0249-1.29 3.1138-2.9359.089-1.6904-1.29-3.1138-3.0249-3.1138z" fill="#000"/><path d="M77.5681 71.0636h-1.1566c-.4448 0-.8007-.3558-.8007-.8007 0-.4448.3559-.8007.8007-.8007h1.1566c.4449 0 .8007.3559.8007.8007 0 .4449-.3558.8007-.8007.8007z" fill="#F9CE1D"/><path d="M68.94 40.6804v29.0477" stroke="#AD00AD" stroke-width="3.13604" stroke-miterlimit="10" stroke-linecap="round"/><path d="M75.879 71.2411c0 1.6903-1.379 3.0248-3.0249 3.0248-1.29 0-2.3576-1.0676-2.3576-2.3576v-2.2687h-3.1139v6.8505c0 .4448.3559.8007.8007.8007h7.6512c1.6459 0 3.0249-1.29 3.1138-2.9359.0445-1.6904-1.3345-3.1138-3.0693-3.1138z" fill="#332E2E"/><path d="M70.4972 72.7095h-1.1566c-.4448 0-.8007-.3559-.8007-.8007s.3559-.8007.8007-.8007h1.1566c.4448 0 .8007.3559.8007.8007s-.3559.8007-.8007.8007z" fill="#F9CE1D"/><path d="M68.939 40.6796h7.0729l-3.5587-21.53-3.5142 21.53z" fill="#E53935"/><path d="M72.4533 19.1496c-8.0515 0-10.9874 5.0266-9.208 9.4305" stroke="#6F00FF" stroke-width="3.13604" stroke-miterlimit="10" stroke-linecap="round"/><path d="M77.2578 29.0255c0-2.3131 1.3345-3.0249 1.3345-6.0052 0-2.8915-2.4021-5.427-6.0943-5.427-3.6921 0-6.0942 2.58-6.0942 5.427 0 2.9803 1.3345 3.6921 1.3345 6.0052 0 2.9804-3.6477 5.3381-3.6477 10.2312 0 4.4039 3.2029 6.806 8.4519 6.806 5.2491 0 8.4519-2.4021 8.4519-6.806-.089-4.8931-3.7366-7.2508-3.7366-10.2312z" fill="#6F00FF"/><path d="M79.1249 33.5201c-.7118-1.2011-1.379-2.2687-1.6904-3.3363h-9.9198c-.3114 1.0676-1.0232 2.1352-1.6904 3.3363h13.3006z" fill="#332E2E"/><path d="M76.5445 30.1393h-3.3362v3.3363h3.3362v-3.3363z" fill="#F9CE1D"/><path d="M80.9042 39.2553H64.0005v6.806h16.9037v-6.806z" fill="#6F00FF"/><path d="M61.9109 5.31555c1.1546 0 2.0907-.93605 2.0907-2.09073 0-1.15468-.9361-2.09073-2.0907-2.09073-1.1547 0-2.0908.93605-2.0908 2.09073 0 1.15468.9361 2.09073 2.0908 2.09073z" fill="#fff"/><path d="M73.7874 3.98125C70.1843-.378134 65.9583.689471 63.4228 3.00261c-2.2687 2.09073-2.0908 5.73838.0889 8.22949l10.2757-7.25085z" fill="#6F00FF"/><path d="M75.9228 6.38288c-.6672.48932-1.6459.48932-2.3131-.04448-1.6459-1.24554-3.9146-1.29003-5.6049-.13345-1.6904 1.15657-2.4021 3.33626-1.7794 5.29355.3114 1.0231-.2224 2.1352-1.29 2.4466-1.0231.3114-2.1352-.2224-2.4466-1.29-1.1566-3.60321.1335-7.51776 3.2473-9.69745C68.85.777954 72.9424.866921 75.9673 3.18006c.8452.66726 1.0231 1.86831.3559 2.75798-.089.17794-.2224.35587-.4004.44484z" fill="#fff"/><path d="M63.4239 26.6676c1.7349 1.7349 4.5818 1.7349 6.3167 0 .8896-.8896.8896-2.2686 0-3.1583-.8897-.8897-.8897-2.2687 0-3.1583.8896-.8897.8896-2.2687 0-3.1584-.8897-.8896-.8897-2.2686 0-3.1583.8896-.8897.8896-2.2687 0-3.1583h-6.3167c-.8897.8896-.8897 2.2686 0 3.1583.8897.8897.8897 2.2687 0 3.1583-.8897.8897-.8897 2.2687 0 3.1584.8897.8896.8897 2.2686 0 3.1583-.8897.8897-.8897 2.2687 0 3.1583z" fill="#F57C00"/><path d="M63.4226 10.9199c0-4.27043 3.4697-7.69566 7.6957-7.69566 4.2259 0 7.7401 3.42523 7.7401 7.69566H63.4226z" fill="#F57C00"/><path d="M63.6015 6.24994s-1.2011 3.78106.9341 5.91626c.3114.3114.7562.5338 1.2456.5338.9786 0 1.7793-.8007 1.7793-1.7793 0-.4893-.1779-.93414-.5338-1.24553l-3.4252-3.42523z" fill="#FADCBC"/><path d="M72.4558 17.5929c3.6851 0 6.6725-2.9874 6.6725-6.6725 0-3.68514-2.9874-6.67254-6.6725-6.67254-3.6851 0-6.6725 2.9874-6.6725 6.67254 0 3.6851 2.9874 6.6725 6.6725 6.6725z" fill="#FADCBC"/><path d="M73.075 9.45145c0 .75625-.6228 1.33455-1.3345 1.33455-.7563 0-1.3346-.6228-1.3346-1.33455 0-.75622.6228-1.33451 1.3346-1.33451.7117 0 1.3345.57829 1.3345 1.33451zM78.4569 9.45108c0 .75622-.6228 1.33452-1.3346 1.33452-.7562 0-1.3345-.6228-1.3345-1.33452 0-.75622.6228-1.3345 1.3345-1.3345.7563 0 1.3346.57828 1.3346 1.3345z" fill="#332E2E"/><path d="M77.879 11.676c0 2.2242-1.8239 4.048-4.048 4.048-2.2242 0-4.048-1.8238-4.048-4.048h8.096z" fill="#fff"/><path d="M68.3951 11.8837c-.2815-.6952-.5629-1.3905-.596-2.13549-.0331-.64562.1655-1.29125.596-1.78788.3973-.44697.9436-.82772 1.5395-.96016.4967-.11588.9933-.09933 1.5065-.08277 1.672.03311 3.3605.08277 5.0325.11588.3311 0 .6622.01655.9768-.08277.3145-.09933.6125-.33109.6952-.64563.2484-.82772-1.0098-1.672-1.6057-1.93687-.5463-.24832-2.1356-.97671-5.1154-.97671 0 0-.7118.66217-2.5163 1.58922-1.0098.52975-1.9368 1.42369-2.5328 2.4004-.6125 1.00982-.8939 2.2183-.7284 3.39368.0828.5959.2649 1.2085.1821 1.8044-.0993.596-.4635 1.1423-.4966 1.7548-.0993 1.4237 1.6223 2.5659 2.8308 1.7217.6125-.4305.8774-1.2416.8443-1.9866-.0331-.7449-.3146-1.4733-.596-2.1686-.0165 0-.0165-.0166-.0165-.0166z" fill="#F57C00"/><path d="M88.5116 24.8433H69.3837v14.7686h19.1279V24.8433z" fill="#F6BE1A"/><path d="M77.6132 31.4269v-6.5836h-1.8683v6.5836h-6.3612v1.8683h6.3612v6.3167h1.8683v-6.3167h10.8984v-1.8683H77.6132z" fill="#6A1B9A"/><path d="M88.5111 31.4718c1.8426 0 3.3363-1.4937 3.3363-3.3363 0-1.8425-1.4937-3.3362-3.3363-3.3362-1.8425 0-3.3362 1.4937-3.3362 3.3362 0 1.8426 1.4937 3.3363 3.3362 3.3363z" fill="#FADCBC"/><path d="M63.2443 28.5811c.9342 2.3131 3.2028 4.4928 6.7615 5.5604" stroke="#6F00FF" stroke-width="3.13604" stroke-miterlimit="10" stroke-linecap="round"/><path d="M73.2106 38.5898c1.8426 0 3.3363-1.4937 3.3363-3.3363s-1.4937-3.3363-3.3363-3.3363-3.3363 1.4937-3.3363 3.3363 1.4937 3.3363 3.3363 3.3363z" fill="#FADCBC"/><path d="M71.478 30.0042c-.8008-.2669-1.6904.1335-2.0018.9787l-1.8683 5.338c-.2669.8007.1334 1.6904.9786 2.0018.8007.2669 1.6904-.1335 2.0018-.9787l1.8683-5.338c.2669-.8452-.1335-1.7349-.9786-2.0018z" fill="#fff"/><path d="M59.4191 58.5945c9.1028-9.1028 9.1028-23.8613 0-32.9641-9.1028-9.1028-23.8613-9.1028-32.9641 0-9.1028 9.1028-9.1028 23.8613 0 32.9641 9.1028 9.1028 23.8613 9.1028 32.9641 0z" fill="#FFDE00"/><path d="M34.0166 33.3839c-2.3576 0-4.2259 1.9128-4.2259 4.2259h8.4964c0-2.3131-1.9128-4.2259-4.2705-4.2259z" fill="#806F00"/><path d="M22.5855 30.9833S12.1319 44.3283 3.4576 44.7287c-3.4252278.1779-3.82558 3.2028-1.20105 3.2028l20.15105 4.6708c-1.2455-7.3398-2.0463-14.6351.1779-21.619z" fill="#F38836"/><path d="M115.691 39.9246H101.59v14.1013h14.101V39.9246z" fill="#B757C5"/><path d="M107.818 46.1968v-6.2722h1.913v6.2722h5.96v1.8683h-5.96v5.9608h-1.913v-5.9608h-6.228v-1.8683h6.228z" fill="#FFDE00"/><path d="M84.464 54.7363h-8.4519v8.4519h8.4519v-8.4519z" fill="#B757C5"/><path d="M79.3483 58.0281v-3.2918h1.9128v3.2918h3.2473v1.8683h-3.2473v3.3362h-1.9128v-3.3362h-3.3362v-1.8683h3.3362zM118.046 53.8923h-14.857v14.8575h14.857V53.8923z" fill="#48B780"/><path d="M109.772 60.5203v-6.628h1.913v6.628h6.361v1.9128h-6.361v6.3167h-1.913v-6.3167h-6.583v-1.9128h6.583z" fill="#D84637"/><path d="M133.794 49.8881h-14.857v14.8575h14.857V49.8881z" fill="#00A9E9"/><path d="M125.565 56.5162v-6.6281h1.913v6.6281h6.361v1.9128h-6.361v6.3611h-1.913V58.429h-6.628v-1.9128h6.628z" fill="#B757C5"/><path d="M101.72 48.7764H86.8629v14.8575H101.72V48.7764z" fill="#D84637"/><path d="M93.491 55.449v-6.6726h1.8683v6.6726h6.3607v1.8683h-6.3607v6.3611H93.491v-6.3611h-6.6281V55.449h6.6281z" fill="#00A9E9"/><path d="M30.3706 81.8283c0 2.4911 4.3594 4.4929 9.7419 4.4929H166.179c5.382 0 9.742-2.0018 9.742-4.4929V81.25c0-2.491-4.36-4.4928-9.742-4.4928H40.157c-5.3825 0-9.7419 2.0018-9.7419 4.4928v.5783h-.0445z" fill="#0097D1"/><path d="M109.105 84.1407c6.672-.4004 13.345-.5783 19.973-.7118 3.336-.0889 6.672-.0889 10.009-.1779l10.009-.0445 10.008.0445 9.965.1335c1.646 0 3.291-.089 4.893-.3559.801-.1335 1.601-.2669 2.313-.5338.356-.1335.712-.3114.934-.4893.045-.0445.089-.089.089-.1335v-.3558s0-.0445-.044-.089c-.134-.1779-.445-.4004-.801-.5783-.356-.1779-.712-.3114-1.112-.4448-.756-.2225-1.602-.4004-2.402-.5783-1.646-.3114-3.292-.4893-4.938-.5783 1.646-.089 3.336-.089 5.027.0445.845.0889 1.69.1779 2.491.4003.4.089.845.2224 1.245.3559.401.1779.845.3559 1.246.8007.089.1334.178.3114.222.4893v.6673c-.044.0889-.044.1779-.089.2669-.089.1779-.178.2669-.267.4003-.4.4004-.8.5783-1.245.7562-.845.3559-1.646.5783-2.491.7563-1.691.3558-3.381.4893-5.071.5783-1.691.0444-3.337.0889-5.027.0889l-4.982.0445-10.009.0445-10.009-.0445c-3.336-.0445-6.672-.089-10.009-.1779-6.583 0-13.256-.2225-19.928-.5783z" fill="#F6FBFD"/><path opacity=".49" d="M170.849 83.8748c2.669-.4004 5.294-.4894 7.963-.5339h2.002c.667 0 1.334 0 2.001.0445.668 0 1.335.089 1.958.0445.667 0 1.29-.0445 1.957-.1334.623-.089 1.29-.178 1.868-.4449.134-.0445.267-.1334.356-.1779.089-.089.178-.1779.178-.1779v-.178c0 .089.044.089.044.089s-.044 0-.044-.0445c-.089-.0445-.267-.1334-.4-.1779-1.246-.3559-2.58-.4893-3.87-.6673-2.625-.3114-5.294-.5338-7.919-.6672 2.67-.0445 5.339.0889 7.963.2669 1.335.1334 2.669.2224 4.004.5338.177.0445.355.0889.533.1779.045.0445.089.0445.134.089.044.0445.133.1334.178.2669v.3114c-.045.3113-.223.4893-.401.5782-.178.1335-.311.2225-.489.3114-.667.3114-1.334.4893-2.002.5783-1.334.2669-2.713.2669-4.048.3114-.667.0445-1.334.0445-2.001.0445h-2.002c-2.669.0445-5.338-.0445-7.963-.4448z" fill="#F6FBFD"/><path d="M20.4505 72.9757c0 5.3825 4.3594 9.7419 9.7419 9.7419H156.259c5.382 0 9.742-4.3594 9.742-9.7419v-1.2011c0-5.3825-4.36-9.7419-9.742-9.7419H30.1924c-5.3825 0-9.7419 4.3594-9.7419 9.7419v1.2011z" fill="#FFDE00"/><path d="M30.1924 76.6226H156.259c4.537 0 8.363-3.1139 9.43-7.3398.223.8007.312 1.6014.312 2.4466v1.201c0 5.3825-4.36 9.7419-9.742 9.7419H30.1924c-5.3825 0-9.7419-4.3594-9.7419-9.7419v-1.201c0-.8452.1334-1.6459.3114-2.4466 1.0676 4.2704 4.8931 7.3398 9.4305 7.3398z" fill="#CACACA"/></svg>