<svg width="126" height="88" fill="none" xmlns="http://www.w3.org/2000/svg"><path d="M77.135 6.80101c1.8406 0 3.3326-1.49207 3.3326-3.33263 0-1.84057-1.492-3.332638-3.3326-3.332638-1.8406 0-3.3326 1.492068-3.3326 3.332638 0 1.84056 1.492 3.33263 3.3326 3.33263z" fill="#00A551"/><path d="M122.313 5.45929H68.4803c-1.4782 0-2.5532.96754-2.5532 2.44572V37.2806c0 1.4782 1.075 2.5801 2.5532 2.5801h5.1065c.2956-2.2307 1.7738-2.9564 3.5476-2.9564s3.252.7525 3.5476 2.9564h41.658c1.478 0 2.956-1.0751 2.956-2.5801V7.93189c-.027-1.50506-1.478-2.4726-2.983-2.4726z" fill="#9B51A0"/><path d="M77.1616 9.1931c1.8405 0 3.3326-1.49207 3.3326-3.33263 0-1.84057-1.4921-3.33264-3.3326-3.33264-1.8406 0-3.3327 1.49207-3.3327 3.33264 0 1.84056 1.4921 3.33263 3.3327 3.33263z" fill="#9B51A0"/><path d="M122.313 5.45929H68.4803c-1.4782 0-2.5532.96754-2.5532 2.44572V37.2806c0 1.4782 1.075 2.5801 2.5532 2.5801h5.1065c.2956-2.2307 1.7738-2.9564 3.5476-2.9564s3.252.7525 3.5476 2.9564h41.658c1.478 0 2.956-1.0751 2.956-2.5801V7.93189c-.027-1.50506-1.478-2.4726-2.983-2.4726z" fill="#009047"/><path d="M77.1616 9.1931c1.8405 0 3.3326-1.49207 3.3326-3.33263 0-1.84057-1.4921-3.33264-3.3326-3.33264-1.8406 0-3.3327 1.49207-3.3327 3.33264 0 1.84056 1.4921 3.33263 3.3327 3.33263z" fill="#00A551"/><path d="M122.312 3.25238H68.4796c-1.4782 0-2.5532 1.3438-2.5532 2.82199V35.4499c0 1.4782 1.075 2.2039 2.5532 2.2039h5.1065c.2956-1.6664 1.7738-2.9564 3.5476-2.9564s3.252 1.29 3.5477 2.9564h41.6576c1.478 0 2.957-.6988 2.957-2.2039V6.07437c-.027-1.47819-1.479-2.82199-2.984-2.82199z" fill="#00A551"/><path opacity=".2" d="M96.0797 71.4889c8.4313 0 15.2653-.7099 15.2653-1.5856 0-.8758-6.834-1.5857-15.2653-1.5857-8.431 0-15.2656.7099-15.2656 1.5857 0 .8757 6.8346 1.5856 15.2656 1.5856z" fill="#332E2E"/><path opacity=".11" d="M79.471 36.1748c-1.5588-1.7739-2.1769-4.1927-1.9888-6.5041.1881-2.3382 1.2363-4.542 2.7414-6.3158.8869-1.0213 1.8813-1.9351 3.0101-2.7145.2419-.1882 0-.5913-.2419-.4032-2.0426 1.4245-3.8164 3.2789-4.9183 5.5365-1.0751 2.2039-1.4245 4.7571-.8063 7.1491.3225 1.3438.9675 2.5801 1.8813 3.6013.1881.2419.5107-.1075.3225-.3493z" fill="#B231CC"/><path opacity=".11" d="M82.9366 21.527c-1.0213.9138-1.962 1.9351-2.7951 3.0102-.0806.1075-.0269.2687.0806.3225.1344.0806.2419.0268.3225-.0807.8063-1.0481 1.7201-2.0425 2.7414-2.9294.215-.1882-.1344-.5376-.3494-.3226zM101.157 61.8408c-2.6066-1.2094-4.7299-3.3326-5.9393-5.9396-.1344-.2688-.5375-.0269-.4031.2419 1.2363 2.6876 3.4401 4.8646 6.1274 6.1009.269.1343.511-.2688.215-.4032zM99.8153 58.9407c-.7256-.5106-1.3707-1.1288-1.9082-1.8545-.0806-.1075-.215-.1612-.3225-.0806-.1075.0538-.1613.215-.0806.3225.5912.7794 1.29 1.4513 2.0963 2.0157.1075.0807.2688.0269.3225-.0806.0269-.1075-.0269-.2419-.1075-.3225z" fill="#B231CC"/><path d="M95.728 48.5947c-4.6765 3.6014-7.7403 9.5947-9.0841 12.7124z" fill="#32A658"/><path d="M95.728 48.5947c-4.6765 3.6014-7.7403 9.5947-9.0841 12.7124" stroke="#8F0093" stroke-width="2.93438" stroke-miterlimit="10" stroke-linecap="round"/><path d="M80.1131 60.0169c-.6181 1.4513.0269 3.1176 1.4513 3.7358 1.1019.5106 2.4189 0 2.9026-1.1288l.8332-1.9082 2.6876 1.1825-2.5801 5.8859c-.1613.3763-.5913.5106-.9675.3763l-6.5578-2.8758c-1.4244-.6181-2.1501-2.2307-1.5857-3.6551.6181-1.532 2.3382-2.2307 3.8164-1.6126z" fill="#332E2E"/><path d="M84.1705 63.2949l1.0213.4569c.3763.1613.8063 0 .9675-.3762.1613-.3763 0-.8063-.3762-.9676l-1.0213-.4569c-.3763-.1612-.8063 0-.9676.3763-.1612.4031-.0268.8331.3763.9675z" fill="#F9CE1D"/><path d="M99.9765 49.4239c-1.6932 4.8646 2.2035 7.0953 5.1605 8.7078" stroke="#9E3494" stroke-width="3.16374" stroke-miterlimit="10" stroke-linecap="round"/><path d="M103.364 64.5529c1.371.7525 3.091.215 3.843-1.1557.565-1.075.162-2.4188-.886-2.9832l-1.855-.9675 1.398-2.607 5.644 3.037c.349.1612.483.6181.295.9944l-3.386 6.3159c-.726 1.3438-2.392 1.9619-3.79 1.2631-1.478-.7256-2.015-2.4994-1.263-3.897z" fill="#332E2E"/><path d="M106.938 60.737l.511-.9676c.161-.3493.054-.8062-.296-.9944-.349-.1612-.806-.0537-.994.2957l-.511.9944c-.161.3494-.054.8063.296.9944.349.1881.806.0537.994-.3225z" fill="#F9CE1D"/><path d="M85.8403 17.443c1.4513 7.0415 4.2465 11.6105 7.5791 15.9913z" fill="#32A658"/><path d="M85.8403 17.443c1.4513 7.0415 4.2465 11.6105 7.5791 15.9913" stroke="#8F0093" stroke-width="2.93438" stroke-miterlimit="10" stroke-linecap="round"/><path d="M85.2762 17.4693c1.7218 0 3.1176-1.3958 3.1176-3.1177 0-1.7218-1.3958-3.1176-3.1176-3.1176s-3.1176 1.3958-3.1176 3.1176c0 1.7219 1.3958 3.1177 3.1176 3.1177z" fill="#BF8F68"/><path d="M81.7815 18.1947c-.1344-.8062.3494-1.5588 1.1825-1.72l5.214-.9676c.8063-.1343 1.5588.3494 1.7201 1.1826.1343.8063-.3494 1.5588-1.1826 1.72l-5.2139.9676c-.8063.1612-1.5857-.3763-1.7201-1.1826z" fill="#fff"/><path d="M106.899 41.0478c.306-5.7511-3.34-10.62-8.1426-10.8749-4.8024-.2549-8.9431 4.2006-9.2484 9.9517-.3053 5.7512 3.3404 10.62 8.1429 10.8749 4.8021.255 8.9431-4.2006 9.2481-9.9517z" fill="#9E3494"/><path d="M98.7665 30.1553c.6182.0269 1.1826.0807 1.7205.215-5.6712.4032-7.2301 4.6765-7.4988 9.9173-.2957 5.2408.8331 9.6485 6.4234 10.6967-.5376.0537-1.1288.0537-1.747.0269-7.1221-.3763-8.4659-5.1334-8.1434-10.8849.2956-5.7514 2.1232-10.3204 9.2453-9.971z" fill="#8F0093"/><path d="M97.0728 33.8357c-1.6932-.2151-3.1445-1.0751-4.1658-2.3114 1.3707-.9944 3.252-1.5051 5.8321-1.3707 1.8279.1075 3.2519.4838 4.3809 1.102-1.344 1.8275-3.6283 2.9026-6.0472 2.5801z" fill="#8F0093"/><path d="M106.909 41.0384c-.026.6181-.08 1.1825-.134 1.7738l-17.2813-.9138c0-.5644 0-1.1825.0269-1.7738.0269-.3494.0537-.6988.0806-1.0482l17.3618.9138c-.027.3494-.054.6988-.054 1.0482z" fill="#332E2E"/><path d="M94.5885 39.3588l-.1481 2.7912 2.7912.1481.1481-2.7912-2.7912-.1481z" fill="#F9CE1D"/><path d="M102.26 11.8774c1.128 0 2.042-.9145 2.042-2.04258 0-1.12809-.914-2.04258-2.042-2.04258-1.128 0-2.043.91449-2.043 2.04258 0 1.12808.915 2.04258 2.043 2.04258z" fill="#fff"/><path d="M94.6533 22.7361l7.3367-10.8579 4.327 12.3898-11.6637-1.5319z" fill="#9E3494"/><path d="M94.5457 25.6112c.7257.0806 1.4513-.2957 1.8007-.9945.7794-1.6663 2.4995-2.6069 4.3266-2.365 1.801.2418 3.252 1.6125 3.548 3.4132.161.9407 1.048 1.5588 1.989 1.3976.941-.1613 1.559-1.0482 1.397-1.9889-.564-3.2788-3.198-5.7783-6.504-6.2352-3.3053-.43-6.5035 1.3169-7.9011 4.3539-.4031.8601-.0269 1.8813.8332 2.2845.1612.0537.3225.0806.5106.1344z" fill="#fff"/><path d="M92.9352 21.2868l2.6069 3.3864c.2419.3225.3763.7256.2957 1.1557-.1075.86-.8869 1.4513-1.747 1.3438-.43-.0538-.8062-.2688-1.0481-.5913-1.6126-2.1501-.1075-5.2946-.1075-5.2946zM104.976 25.8829l3.386-2.607s.618 3.4402-1.478 5.0527c-.323.2419-.726.3763-1.156.2957-.86-.1075-1.451-.8869-1.344-1.747.054-.3762.296-.7256.592-.9944z" fill="#BF8F68"/><path d="M100.11 32.7895c3.563 0 6.451-2.8879 6.451-6.4503 0-3.5623-2.888-6.4502-6.451-6.4502-3.5621 0-6.45 2.8879-6.45 6.4502 0 3.5624 2.8879 6.4503 6.45 6.4503z" fill="#BF8F68"/><path d="M100.893 24.8323c-.081.6451.376 1.2363 1.021 1.317.672.0806 1.237-.3763 1.317-1.0213.081-.6451-.376-1.2363-1.021-1.317-.645-.0537-1.236.3763-1.317 1.0213zM96.1884 24.214c-.0806.645.3763 1.2363 1.0213 1.3169s1.2363-.3763 1.3169-1.0213c.0807-.645-.3762-1.2363-1.0212-1.3169-.6451-.0806-1.2363.3763-1.317 1.0213z" fill="#332E2E"/><path d="M95.8641 26.5798c-.2419 1.9351 1.1288 3.7357 3.0639 3.9776 1.935.2419 3.736-1.1288 3.978-3.0638l-7.0419-.9138z" fill="#fff"/><path d="M99.9486 22.7919c-.4031-1.2363-1.4244-1.962-2.4188-2.3651.8063-.3494 1.6932-.5375 2.6072-.5375 1.397 0 2.687.4569 3.736 1.2094-1.237-.0806-2.984.2419-3.9244 1.6932z" fill="#332E2E"/><path d="M108.468 42.4638c5.993-1.4513 1.478-7.0146-4.408-7.7671" stroke="#9E3494" stroke-width="3.16374" stroke-miterlimit="10" stroke-linecap="round"/><path d="M107.151 45.7699c1.975 0 3.575-1.6003 3.575-3.5745 0-1.9741-1.6-3.5745-3.575-3.5745-1.974 0-3.574 1.6004-3.574 3.5745 0 1.9742 1.6 3.5745 3.574 3.5745z" fill="#fff"/><path d="M106.103 45.8781c1.722 0 3.117-1.3958 3.117-3.1177 0-1.7218-1.395-3.1176-3.117-3.1176s-3.118 1.3958-3.118 3.1176c0 1.7219 1.396 3.1177 3.118 3.1177z" fill="#BF8F68"/><path d="M122.313 41.526H68.4803c-1.4782 0-2.5532.8869-2.5532 2.3651v29.3756c0 1.4781 1.075 3.2251 2.5532 3.2251h5.1065c.2956-2.2307 1.7738-2.9564 3.5476-2.9564s3.252.7525 3.5476 2.9564h41.658c1.478 0 2.956-1.7201 2.956-3.2251V43.8911c-.027-1.4782-1.478-2.3651-2.983-2.3651z" fill="#9B51A0"/><path d="M77.1616 45.1806c1.8405 0 3.3326-1.4921 3.3326-3.3326 0-1.8406-1.4921-3.3327-3.3326-3.3327-1.8406 0-3.3327 1.4921-3.3327 3.3327 0 1.8405 1.4921 3.3326 3.3327 3.3326z" fill="#9B51A0"/><path d="M122.313 41.526H68.4803c-1.4782 0-2.5532.8869-2.5532 2.3651v29.3756c0 1.4781 1.075 3.2251 2.5532 3.2251h5.1065c.2956-2.2307 1.7738-2.9564 3.5476-2.9564s3.252.7525 3.5476 2.9564h41.658c1.478 0 2.956-1.7201 2.956-3.2251V43.8911c-.027-1.4782-1.478-2.3651-2.983-2.3651z" fill="#009047"/><path d="M77.1616 45.1806c1.8405 0 3.3326-1.4921 3.3326-3.3326 0-1.8406-1.4921-3.3327-3.3326-3.3327-1.8406 0-3.3327 1.4921-3.3327 3.3327 0 1.8405 1.4921 3.3326 3.3327 3.3326z" fill="#009047"/><path d="M122.312 39.2943H68.4796c-1.4782 0-2.5532 1.2631-2.5532 2.7413v29.3756c0 1.4782 1.075 2.822 2.5532 2.822h5.1065c.2956-2.7683 1.7738-2.9564 3.5476-2.9564s3.252.1881 3.5477 2.9564h41.6576c1.478 0 2.957-1.3438 2.957-2.822V42.0625c-.027-1.5051-1.479-2.7682-2.984-2.7682z" fill="#00A551"/><path d="M77.135 42.7895c1.8406 0 3.3326-1.492 3.3326-3.3326 0-1.8406-1.492-3.3326-3.3326-3.3326-1.8406 0-3.3326 1.492-3.3326 3.3326 0 1.8406 1.492 3.3326 3.3326 3.3326z" fill="#00A551"/><path opacity=".2" d="M96.0797 71.4889c8.4313 0 15.2653-.7099 15.2653-1.5856 0-.8758-6.834-1.5857-15.2653-1.5857-8.431 0-15.2656.7099-15.2656 1.5857 0 .8757 6.8346 1.5856 15.2656 1.5856z" fill="#332E2E"/><path opacity=".11" d="M79.471 36.1748c-1.5588-1.7739-2.1769-4.1927-1.9888-6.5041.1881-2.3382 1.2363-4.542 2.7414-6.3158.8869-1.0213 1.8813-1.9351 3.0101-2.7145.2419-.1882 0-.5913-.2419-.4032-2.0426 1.4245-3.8164 3.2789-4.9183 5.5365-1.0751 2.2039-1.4245 4.7571-.8063 7.1491.3225 1.3438.9675 2.5801 1.8813 3.6013.1881.2419.5107-.1075.3225-.3493z" fill="#B231CC"/><path opacity=".11" d="M82.9366 21.527c-1.0213.9138-1.962 1.9351-2.7951 3.0102-.0806.1075-.0269.2687.0806.3225.1344.0806.2419.0268.3225-.0807.8063-1.0481 1.7201-2.0425 2.7414-2.9294.215-.1882-.1344-.5376-.3494-.3226zM101.157 61.8408c-2.6066-1.2094-4.7299-3.3326-5.9393-5.9396-.1344-.2688-.5375-.0269-.4031.2419 1.2363 2.6876 3.4401 4.8646 6.1274 6.1009.269.1343.511-.2688.215-.4032zM99.8153 58.9407c-.7256-.5106-1.3707-1.1288-1.9082-1.8545-.0806-.1075-.215-.1612-.3225-.0806-.1075.0538-.1613.215-.0806.3225.5912.7794 1.29 1.4513 2.0963 2.0157.1075.0807.2688.0269.3225-.0806.0269-.1075-.0269-.2419-.1075-.3225z" fill="#B231CC"/><path d="M95.728 48.5947c-4.6765 3.6014-7.7403 9.5947-9.0841 12.7124z" fill="#32A658"/><path d="M95.728 48.5947c-4.6765 3.6014-7.7403 9.5947-9.0841 12.7124" stroke="#8F0093" stroke-width="2.93438" stroke-miterlimit="10" stroke-linecap="round"/><path d="M80.1131 60.0169c-.6181 1.4513.0269 3.1176 1.4513 3.7358 1.1019.5106 2.4189 0 2.9026-1.1288l.8332-1.9082 2.6876 1.1825-2.5801 5.8859c-.1613.3763-.5913.5106-.9675.3763l-6.5578-2.8758c-1.4244-.6181-2.1501-2.2307-1.5857-3.6551.6181-1.532 2.3382-2.2307 3.8164-1.6126z" fill="#332E2E"/><path d="M84.1705 63.2949l1.0213.4569c.3763.1613.8063 0 .9675-.3762.1613-.3763 0-.8063-.3762-.9676l-1.0213-.4569c-.3763-.1612-.8063 0-.9676.3763-.1612.4031-.0268.8331.3763.9675z" fill="#F9CE1D"/><path d="M99.9765 49.4239c-1.6932 4.8646 2.2035 7.0953 5.1605 8.7078" stroke="#9E3494" stroke-width="3.16374" stroke-miterlimit="10" stroke-linecap="round"/><path d="M103.364 64.5529c1.371.7525 3.091.215 3.843-1.1557.565-1.075.162-2.4188-.886-2.9832l-1.855-.9675 1.398-2.607 5.644 3.037c.349.1612.483.6181.295.9944l-3.386 6.3159c-.726 1.3438-2.392 1.9619-3.79 1.2631-1.478-.7256-2.015-2.4994-1.263-3.897z" fill="#332E2E"/><path d="M106.938 60.737l.511-.9676c.161-.3493.054-.8062-.296-.9944-.349-.1612-.806-.0537-.994.2957l-.511.9944c-.161.3494-.054.8063.296.9944.349.1881.806.0537.994-.3225z" fill="#F9CE1D"/><path d="M85.8403 17.443c1.4513 7.0415 4.2465 11.6105 7.5791 15.9913z" fill="#32A658"/><path d="M85.8403 17.443c1.4513 7.0415 4.2465 11.6105 7.5791 15.9913" stroke="#8F0093" stroke-width="2.93438" stroke-miterlimit="10" stroke-linecap="round"/><path d="M85.2762 17.4693c1.7218 0 3.1176-1.3958 3.1176-3.1177 0-1.7218-1.3958-3.1176-3.1176-3.1176s-3.1176 1.3958-3.1176 3.1176c0 1.7219 1.3958 3.1177 3.1176 3.1177z" fill="#BF8F68"/><path d="M81.7815 18.1947c-.1344-.8062.3494-1.5588 1.1825-1.72l5.214-.9676c.8063-.1343 1.5588.3494 1.7201 1.1826.1343.8063-.3494 1.5588-1.1826 1.72l-5.2139.9676c-.8063.1612-1.5857-.3763-1.7201-1.1826z" fill="#fff"/><path d="M106.899 41.0478c.306-5.7511-3.34-10.62-8.1426-10.8749-4.8024-.2549-8.9431 4.2006-9.2484 9.9517-.3053 5.7512 3.3404 10.62 8.1429 10.8749 4.8021.255 8.9431-4.2006 9.2481-9.9517z" fill="#9E3494"/><path d="M98.7665 30.1553c.6182.0269 1.1826.0807 1.7205.215-5.6712.4032-7.2301 4.6765-7.4988 9.9173-.2957 5.2408.8331 9.6485 6.4234 10.6967-.5376.0537-1.1288.0537-1.747.0269-7.1221-.3763-8.4659-5.1334-8.1434-10.8849.2956-5.7514 2.1232-10.3204 9.2453-9.971z" fill="#8F0093"/><path d="M97.0728 33.8357c-1.6932-.2151-3.1445-1.0751-4.1658-2.3114 1.3707-.9944 3.252-1.5051 5.8321-1.3707 1.8279.1075 3.2519.4838 4.3809 1.102-1.344 1.8275-3.6283 2.9026-6.0472 2.5801z" fill="#8F0093"/><path d="M106.909 41.0384c-.026.6181-.08 1.1825-.134 1.7738l-17.2813-.9138c0-.5644 0-1.1825.0269-1.7738.0269-.3494.0537-.6988.0806-1.0482l17.3618.9138c-.027.3494-.054.6988-.054 1.0482z" fill="#332E2E"/><path d="M94.5885 39.3588l-.1481 2.7912 2.7912.1481.1481-2.7912-2.7912-.1481z" fill="#F9CE1D"/><path d="M102.26 11.8774c1.128 0 2.042-.9145 2.042-2.04258 0-1.12809-.914-2.04258-2.042-2.04258-1.128 0-2.043.91449-2.043 2.04258 0 1.12808.915 2.04258 2.043 2.04258z" fill="#fff"/><path d="M94.6533 22.7361l7.3367-10.8579 4.327 12.3898-11.6637-1.5319z" fill="#9E3494"/><path d="M94.5457 25.6112c.7257.0806 1.4513-.2957 1.8007-.9945.7794-1.6663 2.4995-2.6069 4.3266-2.365 1.801.2418 3.252 1.6125 3.548 3.4132.161.9407 1.048 1.5588 1.989 1.3976.941-.1613 1.559-1.0482 1.397-1.9889-.564-3.2788-3.198-5.7783-6.504-6.2352-3.3053-.43-6.5035 1.3169-7.9011 4.3539-.4031.8601-.0269 1.8813.8332 2.2845.1612.0537.3225.0806.5106.1344z" fill="#fff"/><path d="M92.9352 21.2868l2.6069 3.3864c.2419.3225.3763.7256.2957 1.1557-.1075.86-.8869 1.4513-1.747 1.3438-.43-.0538-.8062-.2688-1.0481-.5913-1.6126-2.1501-.1075-5.2946-.1075-5.2946zM104.976 25.8829l3.386-2.607s.618 3.4402-1.478 5.0527c-.323.2419-.726.3763-1.156.2957-.86-.1075-1.451-.8869-1.344-1.747.054-.3762.296-.7256.592-.9944z" fill="#BF8F68"/><path d="M100.11 32.7895c3.563 0 6.451-2.8879 6.451-6.4503 0-3.5623-2.888-6.4502-6.451-6.4502-3.5621 0-6.45 2.8879-6.45 6.4502 0 3.5624 2.8879 6.4503 6.45 6.4503z" fill="#BF8F68"/><path d="M100.893 24.8323c-.081.6451.376 1.2363 1.021 1.317.672.0806 1.237-.3763 1.317-1.0213.081-.6451-.376-1.2363-1.021-1.317-.645-.0537-1.236.3763-1.317 1.0213zM96.1884 24.214c-.0806.645.3763 1.2363 1.0213 1.3169s1.2363-.3763 1.3169-1.0213c.0807-.645-.3762-1.2363-1.0212-1.3169-.6451-.0806-1.2363.3763-1.317 1.0213z" fill="#332E2E"/><path d="M95.8641 26.5798c-.2419 1.9351 1.1288 3.7357 3.0639 3.9776 1.935.2419 3.736-1.1288 3.978-3.0638l-7.0419-.9138z" fill="#fff"/><path d="M99.9486 22.7919c-.4031-1.2363-1.4244-1.962-2.4188-2.3651.8063-.3494 1.6932-.5375 2.6072-.5375 1.397 0 2.687.4569 3.736 1.2094-1.237-.0806-2.984.2419-3.9244 1.6932z" fill="#332E2E"/><path d="M108.468 42.4638c5.993-1.4513 1.478-7.0146-4.408-7.7671" stroke="#9E3494" stroke-width="3.16374" stroke-miterlimit="10" stroke-linecap="round"/><path d="M107.151 45.7699c1.975 0 3.575-1.6003 3.575-3.5745 0-1.9741-1.6-3.5745-3.575-3.5745-1.974 0-3.574 1.6004-3.574 3.5745 0 1.9742 1.6 3.5745 3.574 3.5745z" fill="#fff"/><path d="M106.103 45.8781c1.722 0 3.117-1.3958 3.117-3.1177 0-1.7218-1.395-3.1176-3.117-3.1176s-3.118 1.3958-3.118 3.1176c0 1.7219 1.396 3.1177 3.118 3.1177z" fill="#BF8F68"/><path d="M56.788 16.969H2.95525c-1.50506 0-2.9294932.9675-2.9294932 2.4726v29.3487c0 1.4782 1.4244332 2.5801 2.9294932 2.5801h5.10646c.29563-2.2307 1.77382-2.9564 3.54759-2.9564 1.7739 0 3.2521.7525 3.5477 2.9564h41.6579c1.4782 0 3.1445-1.0751 3.1445-2.5801V19.4416c-.0269-1.5051-1.6663-2.4726-3.1714-2.4726z" fill="#9B51A0"/><path d="M11.6629 20.7028c1.8406 0 3.3326-1.4921 3.3326-3.3326 0-1.8406-1.492-3.3327-3.3326-3.3327-1.84057 0-3.33264 1.4921-3.33264 3.3327 0 1.8405 1.49207 3.3326 3.33264 3.3326z" fill="#9B51A0"/><g opacity=".2" fill="#000"><path opacity=".2" d="M56.788 16.969H2.95525c-1.50506 0-2.9294932.9675-2.9294932 2.4726v29.3487c0 1.4782 1.4244332 2.5801 2.9294932 2.5801h5.10646c.29563-2.2307 1.77382-2.9564 3.54759-2.9564 1.7739 0 3.2521.7525 3.5477 2.9564h41.6579c1.4782 0 3.1445-1.0751 3.1445-2.5801V19.4416c-.0269-1.5051-1.6663-2.4726-3.1714-2.4726z"/><path opacity=".2" d="M11.6629 20.7028c1.8406 0 3.3326-1.4921 3.3326-3.3326 0-1.8406-1.492-3.3327-3.3326-3.3327-1.84057 0-3.33264 1.4921-3.33264 3.3327 0 1.8405 1.49207 3.3326 3.33264 3.3326z"/></g><path d="M56.7877 14.761H2.95488c-1.50506 0-2.9294894 1.3439-2.9294894 2.822v29.3756c0 1.4782 1.4244294 2.2038 2.9294894 2.2038h5.10646c.29564-1.6663 1.77382-2.9563 3.54766-2.9563 1.7738 0 3.252 1.29 3.5476 2.9563h41.658c1.4781 0 3.1445-.6987 3.1445-2.2038V17.583c-.0269-1.4781-1.6664-2.822-3.1714-2.822z" fill="#9B51A0"/><path d="M11.6367 18.3097c1.8405 0 3.3326-1.4921 3.3326-3.3327 0-1.8405-1.4921-3.3326-3.3326-3.3326-1.84061 0-3.33268 1.4921-3.33268 3.3326 0 1.8406 1.49207 3.3327 3.33268 3.3327z" fill="#9B51A0"/><path d="M28.4339 71.8475c.1344-4.3001 1.2363-9.8635-3.6282-15.5075" stroke="#2A8C4A" stroke-width="3.32962" stroke-miterlimit="10" stroke-linecap="round"/><path d="M40.1526 77.8153c-.1344 1.962-1.8544 3.4402-3.8164 3.3864l-9.0035-.2687c-.5106 0-.9407-.4301-.9138-.9407l.215-8.1703 3.6014.1075-.0806 2.6876c-.0538 1.5588 1.1557 2.8488 2.7145 2.9026 1.9888.0806 3.6551-1.5051 3.7089-3.4939 2.0694.0269 3.6551 1.7738 3.5745 3.7895z" fill="#332E2E"/><path d="M31.0966 74.6436c0-.5106-.4031-.9138-.9138-.9406l-1.3975-.0269c-.5107 0-.9138.4031-.9407.9138 0 .5106.4031.9138.9138.9406l1.3975.0269c.4838 0 .9138-.4031.9407-.9138z" fill="#F9CE1D"/><path d="M23.8112 59.7544c8.4122-.43 9.541 3.5745 11.4224 7.4447" stroke="#32A658" stroke-width="3.32962" stroke-miterlimit="10" stroke-linecap="round"/><path d="M43.4289 65.2379c.8869 1.8007.1613 3.9508-1.6394 4.8377-1.3976.6988-3.0908.1075-3.7627-1.2631l-1.1825-2.392-3.2252 1.5857 3.6014 7.3372c.2419.4568.7794.645 1.2363.43l8.0897-3.9777c1.747-.8869 2.5801-2.9564 1.7739-4.7571-.8332-1.9082-3.0639-2.6876-4.8915-1.8007z" fill="#332E2E"/><path d="M38.4303 69.6457l-1.2632.6181c-.4569.2419-1.0213.0538-1.2363-.43-.2419-.4569-.0537-1.0213.43-1.2363l1.2632-.6182c.4569-.2418 1.0213-.0537 1.2363.4301.215.4568.0269 1.0212-.43 1.2363z" fill="#F9CE1D"/><path opacity=".11" d="M3.03546 52.7651c.08063 2.8758 1.42443 5.5902 3.44014 7.6328 2.20384 2.2039 5.1602 3.467 8.2241 3.8971 1.7738.2418 3.6014.215 5.3752-.0269.3225-.0538.1881-.5375-.1344-.4838-3.037.43-6.2352.1613-9.0841-1.0482-2.60698-1.1019-4.81082-3.037-6.12775-5.5364-.72565-1.3707-1.12879-2.8758-1.18254-4.4077 0-.3494-.51065-.3494-.51065-.0269z" fill="#00A551"/><path opacity=".11" d="M17.5489 62.2267c-1.6394-.1075-3.2789-.3762-4.8646-.8062-.3225-.0807-.4569.4031-.1343.4837 1.6394.4301 3.3057.7257 4.9989.8332.3225 0 .3225-.4838 0-.5107zM29.0509 69.3759c-1.3169 1.075-2.7951 1.9619-4.3539 2.6607-.2957.1344-.0269.5644.2419.43 1.5856-.7256 3.0907-1.6394 4.4345-2.7413.2688-.2151-.0806-.5644-.3225-.3494zM50.5793 63.1663c1.5588 2.5264 2.2307 5.5634 1.8007 8.4929-.0538.3225.43.4569.4837.1344.4301-3.0639-.215-6.2353-1.8544-8.8691-.1613-.2957-.5913-.0538-.43.2418zM50.0954 66.391c.3494.8869.5644 1.8007.6451 2.7414.0268.3225.5375.3225.5106 0-.0806-.9944-.2956-1.962-.645-2.8758-.0538-.1343-.1613-.215-.3225-.1881-.1344.0538-.2419.215-.1882.3225z" fill="#00A551"/><path d="M25.2617 43.4405c3.8701-.6181 7.5253 2.0426 8.1166 5.9128l.9138 5.859c.6181 3.8701-2.0426 7.5253-5.9128 8.1165-3.8701.6182-7.5253-2.0425-8.1166-5.9127l-.9137-5.859c-.5913-3.897 2.0425-7.4984 5.9127-8.1166z" fill="#32A658"/><path d="M25.2624 43.4411c.5644-.0806 1.1019-.1075 1.6663-.0538-2.9563 1.2095-4.8645 4.3271-4.327 7.6597l.9138 5.859c.5106 3.3058 3.2251 5.7246 6.4502 5.9934-.5106.1881-1.0481.3494-1.6125.4569-3.8702.6181-7.5253-2.0426-8.1166-5.9128l-.9138-5.859c-.5644-3.9239 2.0695-7.5253 5.9396-8.1434z" fill="#2A8C4A"/><path d="M33.7455 51.7229l-14.0217 2.1853.5422 3.4789 14.0217-2.1854-.5422-3.4788z" fill="#332E2E"/><path d="M29.9953 52.3053l-3.4789.5422.5422 3.4788 3.4789-.5422-.5422-3.4788z" fill="#F9CE1D"/><path d="M23.2727 21.6674c1.2172 0 2.2039-.9866 2.2039-2.2038 0-1.2171-.9867-2.2038-2.2039-2.2038-1.2171 0-2.2038.9867-2.2038 2.2038 0 1.2172.9867 2.2038 2.2038 2.2038z" fill="#fff"/><path d="M18.435 34.755l5.0796-13.1425 7.4447 11.933L18.435 34.755z" fill="#32A658"/><path d="M18.865 36.2886c.7794-.0806 1.4781-.645 1.6125-1.4513.4032-1.9082 1.9889-3.3057 3.9508-3.5207 1.962-.1882 3.7627.8869 4.5421 2.7144.3762.9138 1.4781 1.3707 2.4188.9945.9138-.3763 1.3707-1.4782.9944-2.4189-1.3707-3.3057-4.7302-5.2946-8.2778-4.9452-3.5745.3494-6.4503 2.9295-7.2028 6.3965-.215.9944.43 1.962 1.4244 2.177.1613.0806.3494.0806.5376.0537z" fill="#fff"/><path d="M32.4116 36.5046c-.4031-4.0852-4.0314-7.0953-8.1434-6.7191-4.0852.4032-7.0953 4.0315-6.719 8.1435l14.8624-1.4244zM31.1204 42.9533c.95 0 1.7201-.7701 1.7201-1.7201s-.7701-1.7201-1.7201-1.7201-1.7201.7701-1.7201 1.7201.7701 1.7201 1.7201 1.7201zM27.2495 43.3308c.95 0 1.7201-.7701 1.7201-1.72 0-.95-.7701-1.7201-1.7201-1.7201s-1.7201.7701-1.7201 1.7201c0 .9499.7701 1.72 1.7201 1.72z" fill="#F47455"/><path d="M33.0817 42.7924c.95 0 1.7201-.7701 1.7201-1.7201s-.7701-1.7201-1.7201-1.7201-1.7201.7701-1.7201 1.7201.7701 1.7201 1.7201 1.7201zM29.2124 43.1699c.95 0 1.7201-.7701 1.7201-1.72 0-.95-.7701-1.7201-1.7201-1.7201-.9499 0-1.72.7701-1.72 1.7201 0 .9499.7701 1.72 1.72 1.72zM19.6982 44.0564c.95 0 1.7201-.7702 1.7201-1.7201 0-.95-.7701-1.7201-1.7201-1.7201s-1.7201.7701-1.7201 1.7201c0 .9499.7701 1.7201 1.7201 1.7201zM23.5675 43.6788c.9499 0 1.7201-.7701 1.7201-1.7201s-.7702-1.7201-1.7201-1.7201c-.95 0-1.7201.7701-1.7201 1.7201s.7701 1.7201 1.7201 1.7201z" fill="#F47455"/><path d="M17.7353 44.2415c.9499 0 1.72-.7701 1.72-1.7201s-.7701-1.7201-1.72-1.7201c-.95 0-1.7201.7701-1.7201 1.7201s.7701 1.7201 1.7201 1.7201zM21.6579 43.8688c.95 0 1.7201-.7701 1.7201-1.7201 0-.9499-.7701-1.7201-1.7201-1.7201-.9499 0-1.72.7702-1.72 1.7201 0 .95.7701 1.7201 1.72 1.7201z" fill="#F47455"/><path d="M32.6435 36.5073l-15.3307 1.4625.4365 4.5752L33.08 41.0825l-.4365-4.5752z" fill="#F47455"/><path d="M16.2583 33.6566l3.5208 2.9026c.3494.2688.5644.6719.5913 1.1288.0806.9138-.5913 1.747-1.5051 1.8007-.4569.0538-.8869-.0806-1.2094-.3762-2.2307-1.8007-1.3976-5.4559-1.3976-5.4559zM29.9917 35.5637l2.9026-3.5208s1.4782 3.4401-.3225 5.644c-.2688.3494-.6719.5644-1.1288.5913-.9138.0806-1.7469-.5913-1.8007-1.5051-.1075-.4569.0538-.8869.3494-1.2094z" fill="#E0BB95"/><path d="M25.0331 43.5432c3.4878-.0381 6.2843-2.8965 6.2462-6.3843-.0382-3.4878-2.8965-6.2843-6.3843-6.2462-3.4879.0382-6.2844 2.8965-6.2462 6.3844.0381 3.4878 2.8965 6.2843 6.3843 6.2461z" fill="#E0BB95"/><path d="M28.619 35.079c-.0537-.6987-.6987-1.2094-1.3706-1.1556-.7257.0537-1.2632.6719-1.1557 1.3707M23.54 35.5908c-.0537-.6988-.6988-1.2094-1.3707-1.1556-.6719.0537-1.2094.645-1.1556 1.3706" stroke="#332E2E" stroke-width=".274136" stroke-miterlimit="10"/><path d="M21.4164 39.0556c-.0537 1.1826.8601 2.2038 2.0426 2.2576 1.1826.0537 2.2039-.86 2.2576-2.0426l-4.3002-.215z" fill="#fff"/><path d="M24.16 28.602c1.9619-.1881 3.682 1.2632 3.8701 3.1982.0538.6451-.43 1.2095-1.075 1.2901-.645.0537-1.2094-.43-1.2901-1.0751.0538.6451-.43 1.2095-1.075 1.2901-.645.0538-1.2094-.43-1.2901-1.075.0538.645-.43 1.2094-1.075 1.29-.645.0538-1.2094-.43-1.2901-1.075-.1612-1.962 1.2901-3.6552 3.2252-3.8433z" fill="#F47455"/><path opacity=".2" d="M33.1481 82.8422c11.9191-.0588 21.5771-.997 21.5717-2.0954-.0055-1.0984-9.6722-1.9411-21.5914-1.8822-11.9191.0589-21.5771.997-21.5716 2.0954.0054 1.0984 9.6721 1.9411 21.5913 1.8822z" fill="#332E2E"/><path d="M40.8766 53.4648c-.5644-8.6541-8.2241-9.5679-12.8468-7.8209" stroke="#32A658" stroke-width="3.32962" stroke-miterlimit="10" stroke-linecap="round"/><path d="M40.4181 59.8079c1.7664 0 3.1983-1.4319 3.1983-3.1982 0-1.7664-1.4319-3.1983-3.1983-3.1983-1.7663 0-3.1983 1.4319-3.1983 3.1983 0 1.7663 1.432 3.1982 3.1983 3.1982z" fill="#BF8F68"/><path d="M45.0428 54.0267c-.1075.8332-.86 1.3707-1.6932 1.2632l-5.3752-.7526c-.8332-.1075-1.3707-.86-1.2632-1.6932.1075-.8331.8601-1.3706 1.6932-1.2631l5.3752.7525c.8063.1344 1.3707.86 1.2632 1.6932z" fill="#fff"/><path d="M19.4292 58.4907c-6.6384-1.7469-7.2834-10.4817 1.3976-11.5567.0806 0 .1612-.0269.2419-.0269.0806 0 .1343-.0269.215-.0269" stroke="#2A8C4A" stroke-width="3.32962" stroke-miterlimit="10" stroke-linecap="round"/><path d="M22.3575 62.9525c1.7663 0 3.1982-1.4319 3.1982-3.1982 0-1.7664-1.4319-3.1983-3.1982-3.1983-1.7664 0-3.1983 1.4319-3.1983 3.1983 0 1.7663 1.4319 3.1982 3.1983 3.1982z" fill="#BF8F68"/><path d="M21.8739 56.6104l-2.1501 4.972c-.3225.7794-1.2094 1.102-1.9619.7794-.7794-.3225-1.102-1.2094-.7794-1.9619l2.15-4.9721c.3226-.7794 1.2095-1.1019 1.962-.7794.7794.3225 1.1019 1.1826.7794 1.962z" fill="#fff"/><path d="M56.7884 53.0348H2.95562c-1.47819 0-2.929497.8869-2.929497 2.3651v29.3755c0 1.4782 1.424437 3.2252 2.929497 3.2252h5.10645c.29564-2.2307 1.77382-2.9564 3.54763-2.9564 1.7738 0 3.252.7525 3.5477 2.9564h41.6579c1.4782 0 3.1445-1.7201 3.1445-3.2252V55.3999c-.0269-1.4782-1.6663-2.3651-3.1714-2.3651z" fill="#9B51A0"/><path d="M11.6633 56.6894c1.8405 0 3.3326-1.4921 3.3326-3.3327 0-1.8405-1.4921-3.3326-3.3326-3.3326-1.8406 0-3.33267 1.4921-3.33267 3.3326 0 1.8406 1.49207 3.3327 3.33267 3.3327z" fill="#9B51A0"/><g opacity=".2" fill="#000"><path opacity=".2" d="M56.7884 53.0348H2.95562c-1.47819 0-2.929497.8869-2.929497 2.3651v29.3755c0 1.4782 1.424437 3.2252 2.929497 3.2252h5.10645c.29564-2.2307 1.77382-2.9564 3.54763-2.9564 1.7738 0 3.252.7525 3.5477 2.9564h41.6579c1.4782 0 3.1445-1.7201 3.1445-3.2252V55.3999c-.0269-1.4782-1.6663-2.3651-3.1714-2.3651z"/><path opacity=".2" d="M11.6633 56.6894c1.8405 0 3.3326-1.4921 3.3326-3.3327 0-1.8405-1.4921-3.3326-3.3326-3.3326-1.8406 0-3.33267 1.4921-3.33267 3.3326 0 1.8406 1.49207 3.3327 3.33267 3.3327z"/></g><path d="M56.7884 53.0348H2.95562c-1.47819 0-2.929497.8869-2.929497 2.3651v29.3755c0 1.4782 1.424437 3.2252 2.929497 3.2252h5.10645c.29564-2.2307 1.77382-2.9564 3.54763-2.9564 1.7738 0 3.252.7525 3.5477 2.9564h41.6579c1.4782 0 3.1445-1.7201 3.1445-3.2252V55.3999c-.0269-1.4782-1.6663-2.3651-3.1714-2.3651z" fill="#9B51A0"/><path d="M56.788 50.8036H2.95525c-1.47818 0-2.9294932 1.2632-2.9294932 2.7413v29.3756c0 1.4782 1.4244332 2.822 2.9294932 2.822h5.10646c.29563-2.7682 1.77382-2.9564 3.54759-2.9564 1.7739 0 3.2521.1882 3.5477 2.9564h41.6579c1.4782 0 3.1445-1.3438 3.1445-2.822V53.5718c-.0269-1.505-1.6663-2.7682-3.1714-2.7682z" fill="#9B51A0"/><path d="M11.637 54.2973c1.8406 0 3.3327-1.4921 3.3327-3.3326 0-1.8406-1.4921-3.3327-3.3327-3.3327-1.84055 0-3.33262 1.4921-3.33262 3.3327 0 1.8405 1.49207 3.3326 3.33262 3.3326z" fill="#9B51A0"/><path d="M56.788 50.8036H2.95525c-1.47818 0-2.9294932 1.2632-2.9294932 2.7413v29.3756c0 1.4782 1.4244332 2.822 2.9294932 2.822h5.10646c.29563-2.7682 1.77382-2.9564 3.54759-2.9564 1.7739 0 3.2521.1882 3.5477 2.9564h41.6579c1.4782 0 3.1445-1.3438 3.1445-2.822V53.5718c-.0269-1.505-1.6663-2.7682-3.1714-2.7682z" fill="#9B51A0"/><path d="M28.4327 71.8473c.1343-4.3001 1.2363-9.8635-3.6283-15.5075" stroke="#2A8C4A" stroke-width="3.32962" stroke-miterlimit="10" stroke-linecap="round"/><path d="M40.1517 77.8129c-.1344 1.9619-1.8545 3.4401-3.8164 3.3864l-9.0035-.2688c-.5107 0-.9407-.43-.9138-.9406l.215-8.1704 3.6014.1075-.0806 2.6876c-.0538 1.5588 1.1557 2.8489 2.7145 2.9026 1.9888.0807 3.6551-1.505 3.7089-3.4938 2.0694.0268 3.6551 1.7738 3.5745 3.7895z" fill="#332E2E"/><path d="M31.094 74.6426c0-.5106-.4031-.9137-.9137-.9406l-1.3976-.0269c-.5106 0-.9138.4031-.9407.9138 0 .5106.4032.9138.9138.9407l1.3976.0268c.4838 0 .9138-.4031.9406-.9138z" fill="#F9CE1D"/><path d="M23.8099 59.7534c8.4123-.43 9.541 3.5746 11.4224 7.4447" stroke="#32A658" stroke-width="3.32962" stroke-miterlimit="10" stroke-linecap="round"/><path d="M43.428 65.2365c.8869 1.8007.1612 3.9508-1.6394 4.8377-1.3976.6988-3.0908.1075-3.7627-1.2632l-1.1825-2.392-3.2252 1.5857 3.6014 7.3372c.2419.4569.7794.645 1.2363.43l8.0897-3.9777c1.747-.8869 2.5801-2.9563 1.7738-4.757-.8331-1.9082-3.0638-2.6876-4.8914-1.8007z" fill="#332E2E"/><path d="M38.4297 69.6429l-1.2631.6182c-.4569.2418-1.0213.0537-1.2363-.4301-.2419-.4569-.0538-1.0213.43-1.2363l1.2632-.6181c.4568-.2419 1.0212-.0538 1.2363.43.215.4569.0268 1.0213-.4301 1.2363z" fill="#F9CE1D"/><path opacity=".11" d="M3.03418 52.7658c.08063 2.8757 1.42443 5.5902 3.44014 7.6328 2.20384 2.2038 5.16018 3.467 8.22408 3.897 1.7738.2419 3.6014.215 5.3752-.0268.3225-.0538.1881-.5376-.1344-.4838-3.037.43-6.2352.1612-9.0841-1.0482-2.60696-1.1019-4.8108-3.037-6.12773-5.5365-.72565-1.3706-1.12879-2.8757-1.18254-4.4076 0-.3494-.51065-.3494-.51065-.0269z" fill="#00A551"/><path opacity=".11" d="M17.5476 62.2258c-1.6394-.1075-3.2789-.3763-4.8645-.8063-.3226-.0806-.4569.4031-.1344.4838 1.6394.43 3.3057.7256 4.9989.8331.3225 0 .3225-.4838 0-.5106zM29.0496 69.3757c-1.3169 1.075-2.7951 1.9619-4.3539 2.6607-.2956.1344-.0269.5644.2419.43 1.5857-.7256 3.0907-1.6394 4.4345-2.7413.2688-.215-.0806-.5644-.3225-.3494zM50.578 63.1653c1.5588 2.5264 2.2307 5.5634 1.8007 8.4928-.0538.3226.43.4569.4838.1344.43-3.0638-.2151-6.2352-1.8545-8.8691-.1612-.2956-.5913-.0537-.43.2419zM50.0942 66.3924c.3493.8869.5643 1.8007.645 2.7414.0269.3225.5375.3225.5106 0-.0806-.9944-.2956-1.962-.645-2.8758-.0538-.1343-.1613-.215-.3225-.1881-.1344.0538-.2419.215-.1881.3225z" fill="#00A551"/><path d="M25.2604 43.4404c3.8702-.6182 7.5253 2.0425 8.1166 5.9127l.9138 5.859c.6181 3.8701-2.0426 7.5253-5.9128 8.1166-3.8701.6181-7.5253-2.0426-8.1165-5.9128l-.9138-5.859c-.5913-3.897 2.0426-7.4984 5.9127-8.1165z" fill="#32A658"/><path d="M25.2611 43.4385c.5644-.0806 1.1019-.1075 1.6663-.0537-2.9564 1.2094-4.8646 4.327-4.3271 7.6597l.9138 5.8589c.5107 3.3058 3.2252 5.7247 6.4503 5.9934-.5107.1881-1.0482.3494-1.6126.4569-3.8701.6182-7.5253-2.0426-8.1165-5.9127l-.9138-5.859c-.5644-3.9239 2.0694-7.5253 5.9396-8.1435z" fill="#2A8C4A"/><path d="M33.7458 51.7235l-14.0217 2.1853.5422 3.4789 14.0217-2.1854-.5422-3.4788z" fill="#332E2E"/><path d="M29.9956 52.3059l-3.4789.5422.5422 3.4789 3.4789-.5422-.5422-3.4789z" fill="#F9CE1D"/><path d="M23.2741 21.6725c1.2171 0 2.2038-.9867 2.2038-2.2038 0-1.2172-.9867-2.2039-2.2038-2.2039-1.2172 0-2.2038.9867-2.2038 2.2039 0 1.2171.9866 2.2038 2.2038 2.2038z" fill="#fff"/><path d="M18.4363 34.76l5.0796-13.1424 7.4447 11.933L18.4363 34.76z" fill="#32A658"/><path d="M18.8647 36.2912c.7794-.0806 1.4781-.645 1.6125-1.4513.4032-1.9082 1.9888-3.3058 3.9508-3.5208 1.962-.1881 3.7627.8869 4.5421 2.7145.3762.9138 1.4781 1.3707 2.4188.9944.9138-.3762 1.3707-1.4782.9944-2.4188-1.3707-3.3058-4.7302-5.2946-8.2778-4.9452-3.5745.3494-6.4503 2.9295-7.2028 6.3965-.215.9944.43 1.9619 1.4244 2.177.1613.0806.3494.0806.5376.0537z" fill="#fff"/><path d="M32.4094 36.5045c-.4032-4.0852-4.0314-7.0953-8.1435-6.719-4.0851.4031-7.0953 4.0314-6.719 8.1434l14.8625-1.4244zM31.1208 42.9545c.9499 0 1.72-.7701 1.72-1.7201s-.7701-1.7201-1.72-1.7201c-.95 0-1.7201.7701-1.7201 1.7201s.7701 1.7201 1.7201 1.7201zM27.2499 43.332c.9499 0 1.72-.7701 1.72-1.72 0-.95-.7701-1.7201-1.72-1.7201-.95 0-1.7201.7701-1.7201 1.7201 0 .9499.7701 1.72 1.7201 1.72z" fill="#F47455"/><path d="M33.0821 42.7936c.9499 0 1.72-.7701 1.72-1.7201 0-.9499-.7701-1.72-1.72-1.72-.95 0-1.7201.7701-1.7201 1.72 0 .95.7701 1.7201 1.7201 1.7201zM29.2128 43.1712c.95 0 1.7201-.7701 1.7201-1.7201s-.7701-1.7201-1.7201-1.7201-1.7201.7701-1.7201 1.7201.7701 1.7201 1.7201 1.7201zM19.6973 44.0582c.95 0 1.7201-.7701 1.7201-1.7201s-.7701-1.7201-1.7201-1.7201-1.7201.7701-1.7201 1.7201.7701 1.7201 1.7201 1.7201zM23.5666 43.6806c.9499 0 1.72-.7701 1.72-1.7201 0-.9499-.7701-1.72-1.72-1.72-.95 0-1.7201.7701-1.7201 1.72 0 .95.7701 1.7201 1.7201 1.7201z" fill="#F47455"/><path d="M17.7344 44.2433c.9499 0 1.72-.7701 1.72-1.7201 0-.9499-.7701-1.72-1.72-1.72-.95 0-1.7201.7701-1.7201 1.72 0 .95.7701 1.7201 1.7201 1.7201zM21.657 43.8706c.95 0 1.7201-.7701 1.7201-1.72 0-.95-.7701-1.7201-1.7201-1.7201-.9499 0-1.72.7701-1.72 1.7201 0 .9499.7701 1.72 1.72 1.72z" fill="#F47455"/><path d="M32.6403 36.5087l-15.3307 1.4626.4364 4.5751 15.3307-1.4625-.4364-4.5752z" fill="#F47455"/><path d="M16.258 33.66l3.5208 2.9026c.3494.2688.5644.6719.5913 1.1288.0806.9138-.5913 1.7469-1.5051 1.8007-.4569.0537-.8869-.0806-1.2094-.3763-2.2307-1.8007-1.3976-5.4558-1.3976-5.4558zM29.9914 35.567l2.9026-3.5207s1.4782 3.4401-.3225 5.6439c-.2688.3494-.6719.5644-1.1288.5913-.9138.0806-1.747-.5913-1.8007-1.505-.1075-.4569.0538-.887.3494-1.2095z" fill="#E0BB95"/><path d="M25.0324 43.5457c3.4879-.0382 6.2844-2.8965 6.2462-6.3844-.0381-3.4878-2.8965-6.2843-6.3843-6.2461-3.4878.0381-6.2843 2.8965-6.2462 6.3843.0382 3.4878 2.8965 6.2843 6.3843 6.2462z" fill="#E0BB95"/><path d="M28.62 35.0805c-.0537-.6988-.6988-1.2095-1.3707-1.1557-.7256.0537-1.2631.6719-1.1556 1.3707M23.541 35.5922c-.0538-.6987-.6988-1.2094-1.3707-1.1556-.6719.0537-1.2094.645-1.1557 1.3706" stroke="#332E2E" stroke-width=".274136" stroke-miterlimit="10"/><path d="M21.4174 39.057c-.0537 1.1826.8601 2.2038 2.0426 2.2576 1.1825.0537 2.2038-.86 2.2576-2.0426l-4.3002-.215z" fill="#fff"/><path d="M24.1593 28.6036c1.962-.1882 3.682 1.2632 3.8702 3.1982.0537.6451-.4301 1.2095-1.0751 1.2901-.645.0537-1.2094-.43-1.29-1.0751.0537.6451-.4301 1.2095-1.0751 1.2901-.645.0537-1.2094-.43-1.29-1.0751.0537.6451-.43 1.2095-1.0751 1.2901-.645.0537-1.2094-.43-1.29-1.075-.1613-1.962 1.29-3.6552 3.2251-3.8433z" fill="#F47455"/><path opacity=".2" d="M33.1468 82.8413c11.9191-.0589 21.5771-.9971 21.5717-2.0955-.0055-1.0984-9.6722-1.9411-21.5914-1.8822-11.9191.0589-21.577.997-21.5716 2.0954.0054 1.0984 9.6722 1.9411 21.5913 1.8823z" fill="#332E2E"/><path d="M40.8753 53.4638c-.5644-8.6541-8.2241-9.5679-12.8468-7.821" stroke="#32A658" stroke-width="3.32962" stroke-miterlimit="10" stroke-linecap="round"/><path d="M40.4172 59.8064c1.7663 0 3.1982-1.4319 3.1982-3.1982 0-1.7664-1.4319-3.1983-3.1982-3.1983-1.7664 0-3.1983 1.4319-3.1983 3.1983 0 1.7663 1.4319 3.1982 3.1983 3.1982z" fill="#BF8F68"/><path d="M45.0419 54.0276c-.1075.8332-.86 1.3707-1.6932 1.2632l-5.3752-.7525c-.8332-.1076-1.3707-.8601-1.2632-1.6932.1075-.8332.86-1.3707 1.6932-1.2632l5.3752.7525c.8063.1344 1.3707.8601 1.2632 1.6932z" fill="#fff"/><path d="M19.4279 58.4897c-6.6384-1.747-7.2834-10.4817 1.3976-11.5567.0806 0 .1612-.0269.2419-.0269.0806 0 .1344-.0269.215-.0269" stroke="#2A8C4A" stroke-width="3.32962" stroke-miterlimit="10" stroke-linecap="round"/><path d="M22.3566 62.951c1.7663 0 3.1982-1.4319 3.1982-3.1982 0-1.7664-1.4319-3.1983-3.1982-3.1983-1.7664 0-3.1983 1.4319-3.1983 3.1983 0 1.7663 1.4319 3.1982 3.1983 3.1982z" fill="#BF8F68"/><path d="M21.8729 56.6089l-2.1501 4.9721c-.3225.7794-1.2094 1.1019-1.9619.7794-.7794-.3225-1.1019-1.2094-.7794-1.962l2.1501-4.9721c.3225-.7794 1.2094-1.1019 1.9619-.7794.7794.3226 1.1019 1.1826.7794 1.962z" fill="#fff"/></svg>