<svg width="157" height="99" fill="none" xmlns="http://www.w3.org/2000/svg"><path d="M120.461 50.7679c3.915 0 7.088-3.1732 7.088-7.0875 0-3.9144-3.173-7.0876-7.088-7.0876-3.914 0-7.087 3.1732-7.087 7.0876 0 3.9143 3.173 7.0875 7.087 7.0875z" fill="#F3FAFE"/><path d="M113.696 46.4457c-.832-1.7719-.617-4.0807.51-5.9332.591-.9128 1.396-1.7182 2.336-2.3088.242-.1611.483-.2953.752-.4027.268-.1342.537-.2148.805-.2953.537-.1879 1.154-.2953 1.745-.3222 2.47-.161 4.94 1.2887 6.148 3.5438.322.5638.51 1.1544.644 1.7987.135.6712.161 1.3692.054 2.0404-.215 1.3423-.886 2.631-1.906 3.5438-.51.4564-1.128.8054-1.745 1.0739-.322.1342-.645.2147-.994.2953-.349.0805-.724.1074-1.1.1074-1.477-.0269-2.927-.6981-3.866-1.8256-.457-.5638-.806-1.235-.967-1.933-.188-.698-.214-1.5303 0-2.282.188-.7517.591-1.4229 1.155-1.9598.564-.5101 1.235-.8859 1.96-1.047.751-.1879 1.61-.1074 2.308.2148.725.3221 1.289.8859 1.638 1.5839.161.349.269.698.322 1.0739.054.4027 0 .8054-.107 1.1813-.242.7517-.779 1.3691-1.477 1.6913-.349.1342-.698.2148-1.1.2148-.403 0-.779-.1343-1.101-.349-.645-.4027-1.02-1.1276-.94-1.8525.081-.7517.671-1.3423 1.316-1.396.322-.0537.671.0537.912.2416.242.188.376.4833.376.7517v.0269c0 .0537-.053.1074-.107.1074s-.107-.0269-.107-.0806c-.081-.4027-.537-.6711-.94-.5638-.403.1074-.698.5101-.698.9128 0 .4296.268.8323.644 1.0202.376.2148.832.1611 1.208-.0537.376-.1879.671-.5638.752-.9933.107-.4027 0-.8591-.215-1.235-.215-.3758-.564-.6711-.966-.8322-.403-.1611-.859-.1879-1.262-.0537-.859.2148-1.53.9396-1.718 1.7987-.215.8591.107 1.7719.671 2.4431.591.6712 1.45 1.047 2.336 1.047.886 0 1.745-.4027 2.389-.9665.671-.5906 1.128-1.396 1.262-2.2819.161-.886-.027-1.7988-.43-2.6042-.778-1.6108-2.523-2.7384-4.349-2.7384-1.799 0-3.597.9128-4.725 2.3626-1.128 1.4497-1.584 3.3827-1.208 5.1814 0 .0537-.027.1074-.081.1342-.053.0269-.107 0-.134-.0805z" fill="#548FCC"/><path opacity=".2" d="M124.892 38.1501c.939 1.2081 1.53 2.7115 1.53 4.376 0 3.8928-3.168 7.0607-7.061 7.0607-1.664 0-3.168-.5638-4.376-1.5303 1.289 1.6377 3.302 2.6847 5.531 2.6847 3.892 0 7.06-3.1679 7.06-7.0607 0-2.2283-1.074-4.215-2.684-5.5304z" fill="#010101"/><path d="M101.347 28.9954l-87.9236-5.8258C-1.95979 22.1494.805431 1.9875 13.9604 3.00768" stroke="#fff" stroke-width="5.91754" stroke-miterlimit="10" stroke-linecap="round" stroke-linejoin="round"/><path d="M101.347 28.9954l-87.9236-5.8258C-1.95979 22.1494.805431 1.9875 13.9604 3.00768" stroke="#EB2227" stroke-width="5.91754" stroke-miterlimit="10" stroke-linejoin="round" stroke-dasharray="2.96 2.96"/><path opacity=".1" d="M101.83 32.0556l-87.9237-5.8257c-15.38316-1.0202-12.61794-21.15529.537-20.16195" stroke="#250D0E" stroke-width="5.91754" stroke-miterlimit="10" stroke-linecap="round" stroke-linejoin="round"/><path opacity=".1" d="M61.9358 17.8537c3.9144 0 7.0876-3.1732 7.0876-7.0875 0-3.91438-3.1732-7.08758-7.0876-7.08758-3.9143 0-7.0875 3.1732-7.0875 7.08758 0 3.9143 3.1732 7.0875 7.0875 7.0875z" fill="#250D0E"/><path d="M60.861 16.7801c3.9143 0 7.0875-3.1733 7.0875-7.0876 0-3.91435-3.1732-7.08755-7.0875-7.08755-3.9144 0-7.0876 3.1732-7.0876 7.08755 0 3.9143 3.1732 7.0876 7.0876 7.0876z" fill="#F3FAFE"/><path d="M54.4185 11.9483c-.698-1.8256-.349-4.1076.9128-5.87949.6443-.88595 1.5034-1.61081 2.4967-2.14774.2416-.13424.5101-.26847.7786-.34901.2684-.10739.5369-.18793.8054-.24162.5369-.16109 1.1812-.21478 1.7719-.21478 2.4699 0 4.8324 1.61081 5.9063 3.94648.2684.59063.4295 1.18126.5101 1.85243.0805.67117.0536 1.36923-.0806 2.04033-.2953 1.3424-1.047 2.5773-2.1477 3.4096-.537.4027-1.1813.7248-1.8256.9396-.3222.1074-.6712.1611-.9933.2416-.3759.0537-.7249.0537-1.1008.0269-1.4765-.1074-2.8726-.886-3.7317-2.0672-.4295-.5907-.7248-1.2887-.8591-1.9867-.1342-.698-.1074-1.55711.1343-2.28197.2416-.72486.698-1.39603 1.2618-1.87928.5906-.48324 1.2886-.8054 2.0403-.91279.7517-.13423 1.6108 0 2.3088.37586.6981.37585 1.235.96648 1.5303 1.69135.1342.349.2148.72486.2416 1.10071.0269.40272-.0537.80542-.1879 1.18122-.2953.7249-.8859 1.3155-1.584 1.584-.349.1342-.7248.1879-1.1275.1342-.4027-.0268-.7517-.1879-1.0739-.4027-.6175-.4564-.9396-1.1812-.8322-1.9061.1073-.7517.7517-1.28863 1.396-1.31548.3222-.02685.6712.10739.8859.29532.2148.21477.349.51008.3222.75171v.02684c0 .05371-.0537.10741-.1074.10741s-.1074-.0537-.1074-.08056c-.0537-.4027-.4832-.72486-.8859-.61748-.4027.08054-.7517.4564-.7517.88594-.0269.4296.2147.8323.5906 1.047.3759.2148.8322.2148 1.2081.0269.4027-.1879.698-.537.8323-.9397.1342-.40266.0536-.85906-.1343-1.26176-.1879-.37585-.5101-.69801-.9128-.88594-.4027-.18793-.8322-.24162-1.2618-.13424-.8591.16109-1.5839.8591-1.8255 1.69135-.2685.83229 0 1.77189.51 2.46989.537.698 1.3692 1.1544 2.2552 1.2081.8591.0537 1.7719-.2684 2.4699-.8054.698-.5369 1.2081-1.3155 1.4229-2.2014.2147-.85912.0805-1.79875-.2685-2.631-.6712-1.6645-2.3357-2.89946-4.1344-3.03369-1.7988-.13423-3.6512.67117-4.8593 2.04035-1.2349 1.36919-1.8256 3.27534-1.5303 5.10094 0 .0536-.0268.1073-.0805.1342-.1074-.0269-.1611-.0537-.1879-.1342z" fill="#34A658"/><path opacity=".2" d="M65.6395 4.48431c.8591 1.2618 1.3423 2.81892 1.2349 4.45657-.2684 3.89282-3.6243 6.84592-7.5171 6.57742-1.6376-.1073-3.1411-.7785-4.2686-1.7987 1.1812 1.7182 3.1142 2.8995 5.3425 3.0337 3.8928.2685 7.2486-2.6847 7.5171-6.5775.1611-2.22825-.7786-4.29545-2.3088-5.69149z" fill="#010101"/><path d="M24.5911 61.0239c3.9143 0 7.0875-3.1732 7.0875-7.0875 0-3.9144-3.1732-7.0876-7.0875-7.0876-3.9144 0-7.0876 3.1732-7.0876 7.0876 0 3.9143 3.1732 7.0875 7.0876 7.0875z" fill="#F3FAFE"/><path d="M17.6376 56.245c-.698-1.8256-.349-4.1076.9128-5.8794.6443-.886 1.5034-1.6108 2.4967-2.1478.2416-.1342.5101-.2685.7786-.349.2684-.1074.5369-.1879.8054-.2416.5369-.1611 1.1812-.2148 1.7719-.2148 2.4699 0 4.8324 1.6108 5.9063 3.9465.2684.5906.4295 1.1812.5101 1.8524.0805.6712.0536 1.3692-.0806 2.0404-.2953 1.3423-1.047 2.5773-2.1477 3.4095-.537.4027-1.1813.7249-1.8256.9397-.3222.1073-.6712.161-.9933.2416-.3759.0537-.7249.0537-1.1008.0268-1.4765-.1074-2.8726-.8859-3.7317-2.0672-.4295-.5906-.7248-1.2886-.8591-1.9866-.1342-.6981-.1073-1.5572.1343-2.282.2416-.7249.698-1.3961 1.2618-1.8793.5906-.4832 1.2886-.8054 2.0403-.9128.7517-.1342 1.6108 0 2.3088.3759.6981.3758 1.235.9665 1.5303 1.6913.1342.349.2148.7249.2416 1.1007.0269.4027-.0537.8054-.1879 1.1813-.2953.7249-.8859 1.3155-1.584 1.584-.349.1342-.7248.1879-1.1275.1342-.4027-.0269-.7517-.1879-1.0739-.4027-.6175-.4564-.9396-1.1813-.8322-1.9061.1073-.7517.7517-1.2887 1.396-1.3155.3222-.0269.6712.1074.8859.2953.2148.2148.349.5101.3222.7517v.0268c0 .0537-.0537.1074-.1074.1074s-.1074-.0537-.1074-.0805c-.0537-.4027-.4832-.7249-.8859-.6175-.4027.0806-.7517.4564-.7517.886-.0269.4295.2147.8322.5906 1.047.3759.2148.8323.2148 1.2081.0268.4027-.1879.698-.5369.8323-.9396.1342-.4027.0536-.8591-.1343-1.2618-.1879-.3759-.5101-.698-.9128-.886-.4027-.1879-.8322-.2416-1.2618-.1342-.8591.1611-1.5839.8591-1.8255 1.6914-.2685.8322 0 1.7719.51 2.4699.537.698 1.3692 1.1544 2.2552 1.2081.8591.0537 1.7719-.2685 2.4699-.8054.698-.537 1.2081-1.3155 1.4229-2.2015.2147-.8591.0805-1.7987-.2685-2.631-.6712-1.6645-2.3357-2.8994-4.1344-3.0336-1.7988-.1343-3.6512.6711-4.8593 2.0403-1.2349 1.3692-1.8256 3.2753-1.5303 5.1009 0 .0537-.0268.1074-.0805.1342-.1074-.0268-.1611-.0537-.1879-.1342z" fill="#9E3794"/><path opacity=".2" d="M29.3429 48.7282c.8591 1.2618 1.3423 2.8189 1.2349 4.4565-.2685 3.8928-3.6243 6.846-7.5171 6.5775-1.6376-.1074-3.1411-.7785-4.2686-1.7987 1.1812 1.7182 3.1142 2.8994 5.3425 3.0337 3.8928.2684 7.2486-2.6847 7.5171-6.5775.1611-2.2283-.7517-4.2955-2.3088-5.6915z" fill="#010101"/><path d="M45.7741 49.184l96.0039 6.3896c15.383 1.0201 15.303-19.3029 2.148-20.0546" stroke="#fff" stroke-width="5.91754" stroke-miterlimit="10" stroke-linecap="round" stroke-linejoin="round"/><path d="M45.7741 49.184l96.0039 6.3896c15.383 1.0201 15.303-19.3029 2.148-20.0546" stroke="#EB2227" stroke-width="5.91754" stroke-miterlimit="10" stroke-linejoin="round" stroke-dasharray="2.96 2.96"/><path d="M132.651 80.2728L19.6793 72.7826C4.29607 71.7624 4.37661 92.0854 17.5315 92.8371" stroke="#fff" stroke-width="5.91754" stroke-miterlimit="10" stroke-linecap="round" stroke-linejoin="round"/><path d="M132.651 80.2728L19.6793 72.7826C4.29607 71.7624 4.37661 92.0854 17.5315 92.8371" stroke="#EB2227" stroke-width="5.91754" stroke-miterlimit="10" stroke-linejoin="round" stroke-dasharray="2.96 2.96"/><path opacity=".1" d="M46.2303 52.2447l96.0037 6.3627c15.384 1.0202 15.303-19.3028 2.148-20.0545M133.134 83.3333L20.1355 75.8431C4.75228 74.8229 4.83282 95.1459 17.9877 95.8976" stroke="#250D0E" stroke-width="5.91754" stroke-miterlimit="10" stroke-linecap="round" stroke-linejoin="round"/></svg>