<svg width="144" height="88" fill="none" xmlns="http://www.w3.org/2000/svg"><path d="M2.55713 79.2519s5.00768-6.3141 7.34823-7.3483c3.59244-1.6329 12.13824-.5987 15.56734-2.4494 2.3406-1.1975 7.3483-7.3482 7.3483-7.3482" stroke="#BA9A60" stroke-width="5.06734" stroke-miterlimit="10" stroke-linecap="round" stroke-linejoin="round"/><path d="M118.115 30.7535v-8.4368c0-1.5241-1.47-2.776-2.939-2.776h-4.246c-1.524 0-2.939-1.1975-2.939-2.6672v-3.7557c0-1.5241-1.035-2.9938-2.504-2.9938h-6.8585c-1.5241 0-2.7216-1.08858-2.7216-2.55823l.1633-3.97348" stroke="#B9BBBD" stroke-width="2.1717" stroke-miterlimit="10" stroke-linecap="round" stroke-linejoin="round"/><path d="M118.496 24.6029h4.844c1.524 0 2.776-1.0886 2.776-2.5583V17.799c0-1.5241-1.306-2.5583-2.776-2.5583h-6.477c-1.524 0-2.341-1.4152-2.341-2.8848V5.27978c0-1.52408-1.633-2.39498-3.102-2.39498h-3.81" stroke="#B9BBBD" stroke-width="2.1717" stroke-miterlimit="10" stroke-linecap="round" stroke-linejoin="round"/><path d="M114.904 9.41665h4.191c1.524 0 2.667-1.57851 2.667-3.04816V1.08865M101.84 15.1866h5.824" stroke="#B9BBBD" stroke-width="2.1717" stroke-miterlimit="10" stroke-linecap="round" stroke-linejoin="round"/><path d="M107.936 38.9182c0-9.4166 10.07-11.1584 13.608-7.6204 0 0 8.6 4.4089 13.88 8.4913 5.389 4.0279 2.068 7.6748-1.633 7.6748h-16.765c-4.409-.0544-9.09-2.9937-9.09-8.5457z" fill="#D5B06E"/><path d="M113.66 33.7982L75.7258 45.4444l4.2336 13.7896 37.9346-11.6462-4.234-13.7896z" fill="#D5B06E"/><path d="M125.845 39.0818c0 1.3064-1.089 2.5039-2.504 2.5039-1.307 0-2.504-1.0886-2.504-2.5039 0-1.4152 1.088-2.5038 2.504-2.5038 1.415 0 2.504 1.0886 2.504 2.5038z" fill="#fff"/><path d="M143.099 44.1982c0 1.8506-1.415 3.2114-3.211 3.2114-1.851 0-3.212-1.4152-3.212-3.2114 0-1.7963 1.415-3.2115 3.212-3.2115 1.85 0 3.211 1.4152 3.211 3.2115z" fill="#884537"/><path d="M87.47 56.8809c10.342-13.499 20.956-14.5331 25.964-8.0014L87.47 56.8809z" fill="#FDD19B"/><path d="M124.647 37.8296c.598.2722.762 1.0886.435 1.6329-.272.5988-1.089.7621-1.633.4355-.599-.2722-.762-1.0886-.435-1.6329.49-.5988 1.197-.7077 1.633-.4355z" fill="#58595B"/><path d="M76.5838 61.9976s28.1412.2177 29.8282 7.7292c1.034 4.6267-14.6419 9.9065-14.6419 9.9065" stroke="#BA9A60" stroke-width="5.06734" stroke-miterlimit="10" stroke-linecap="round" stroke-linejoin="round"/><path d="M77.9445 65.5901s24.1135-.871 29.6105 7.6203c2.667 4.1913-12.3557 11.3218-12.3557 11.3218" stroke="#D5B06E" stroke-width="5.06734" stroke-miterlimit="10" stroke-linecap="round" stroke-linejoin="round"/><path d="M94.7642 39.4628H40.6595c-8.1647 0-14.8053 6.4773-14.8053 14.5331v.8165c0 8.1647 6.7494 15.0775 14.8053 15.0775h39.3538c8.1648 0 14.6965-6.6951 14.6965-14.8053l.0544-15.6218z" fill="#D5B06E"/><path d="M32.7123 41.2043c0 2.5583-2.0684 4.5723-4.6267 4.5723-11.5394 0-12.7913-6.3141-12.7913-9.2533h12.7913c2.6672.0544 4.6267 2.1228 4.6267 4.681z" fill="#E2E3E4"/><path d="M4.73438 83.6611s5.00768-6.314 7.34822-7.3482c3.5925-1.633 12.1382-.5988 15.5674-2.4494 2.3405-1.1975 7.3482-7.3483 7.3482-7.3483" stroke="#D5B06E" stroke-width="5.06734" stroke-miterlimit="10" stroke-linecap="round" stroke-linejoin="round"/><path d="M72.1752 38.7552H48.9875V69.89h23.1877V38.7552z" fill="#28B04B"/><path d="M47.5714 62.2697H72.882" stroke="#F2B31B" stroke-width="3.61952" stroke-miterlimit="10" stroke-linecap="round" stroke-linejoin="round"/><path d="M62.2159 41.2589c-3.9191.5988-7.5115-1.9595-8.1103-5.8785-.5987-3.9191 1.9595-7.5116 5.8786-8.1103l9.5799-1.5241c3.9191-.5987 7.5115 1.9595 8.1103 5.8786.5987 3.919-1.9595 7.5115-5.8786 8.1103l-9.5799 1.524z" fill="#039BE5"/><path d="M77.6204 31.5702c.5987 3.919-2.5583 4.1912-6.3685 4.7899l-9.5799 1.5241c-3.9191.5987-6.9672 1.2519-7.566-2.5583.5988 3.9191 4.1913 6.4774 8.1103 5.8786l9.5799-1.5241c3.8647-.5987 6.4774-4.3 5.8242-8.1102z" fill="#0277BD"/><path d="M63.4086 26.7075l-3.3853.547 2.2486 13.9172 3.3853-.5469-2.2486-13.9173z" fill="#58595B"/><path d="M65.9781 40.0748l-3.9763.6429.1563.9672 3.9764-.6428-.1564-.9673z" fill="#FDD500"/><path d="M73.59 49.1516l-1.0886-18.2889 4.3001.8709.4899 17.5813-3.7014-.1633z" fill="#039BE5"/><path d="M76.0393 53.0159c-1.4697.2178-2.776-.762-3.1026-2.2317-.2177-1.4696.762-2.776 2.2317-3.1025 1.4696-.2722 2.776.762 3.1026 2.2316.1633 1.5785-.8709 2.8849-2.2317 3.1026z" fill="#FDE08C"/><path d="M57.8047 45.6677l-8.0014 3.4836-1.4696-3.3747 8.0014-3.5381" fill="#fff"/><path d="M54.8654 36.1426l2.5583 5.8242-3.9191 1.7418 1.4697 3.3747 4.7899-2.1228c1.1975-.4899 2.0684-1.4696 1.0887-3.5925l-.0545-.2721-1.2519-2.8849" fill="#039BE5"/><path d="M48.824 45.3412l1.7418 3.9735c-1.9051 2.5039-.4354 5.8242 1.5241 5.4432 0 0-2.6671 3.3203-5.8242-4.8989-.5987-2.1772.4899-4.4089 2.5583-4.5178z" fill="#58595B"/><path d="M91.0627 20.684S83.4967 8.92678 79.0334 5.17102c0 0 2.4494 8.76348-1.4152 11.37618l13.4445 4.1368z" fill="#0277BD"/><path d="M86.5993 19.5407s-3.157-10.55972-7.5659-14.31548c0 0 2.4494 8.76348-1.4152 11.37618l8.9811 2.9393z" fill="#039BE5"/><path d="M88.5585 26.8891c-.9798 3.8102-4.79 6.0419-8.6002 5.0621-3.8101-.9798-6.0418-4.7899-5.0621-8.6001.9798-3.8102 4.79-6.0419 8.6002-5.0622 3.7557.9254 6.0963 4.79 5.0621 8.6002z" fill="#FDE08C"/><path d="M86.4361 19.9219c-.8164-.7621-1.8506-1.3064-2.9393-1.633-3.8102-.9797-7.6204 1.252-8.6001 5.0622-.4355 1.6329-.2177 3.3203.4354 4.7899 7.0217-.1088 10.0698-5.4976 11.104-8.2191z" fill="#AE5F2D"/><path d="M83.2238 27.3244l-2.2862-6.0419s-3.3203 7.6204 1.252 7.7837l1.0342-1.7418z" fill="#FDE08C"/><path d="M90.8447 22.2621c-.1633.4899-.6532.8164-1.0886.6531l-13.6078-3.538c-.4899-.1633-.8165-.6532-.6532-1.0886l.4354-1.633c.1633-.4898.6532-.8164 1.0887-.6531l13.6078 3.4291c.4899.1633.8165.6532.6532 1.0887l-.4355 1.7418z" fill="#fff"/><path d="M87.6331 26.2903l5.933 3.4291c.6532.1633.4355 1.1975-.5987.8709l-7.6204-1.9595 2.2861-2.3405z" fill="#FDE08C"/><path d="M87.4701 25.4737c-.1633.6531-.8709 1.0886-1.5241.8709-.6531-.1633-1.0886-.8709-.8709-1.5241.1633-.6532.8709-1.0886 1.5241-.8709.5988.2177 1.0342.8709.8709 1.5241z" fill="#58595B"/><path d="M79.0331 7.40248c1.0522 0 1.9051-.85294 1.9051-1.9051 0-1.05215-.8529-1.90509-1.9051-1.90509-1.0521 0-1.905.85294-1.905 1.90509 0 1.05216.8529 1.9051 1.905 1.9051z" fill="#fff"/></svg>