<svg width="110" height="102" fill="none" xmlns="http://www.w3.org/2000/svg"><path opacity=".14" d="M51.6147 101.203L26.8099 76.0363l31.0965-31.1116 24.8048 25.1669-31.0965 31.1114z" fill="#000"/><path d="M51.2363 100.101L26.4466 74.9342 57.528 43.8226l24.8048 25.1669-31.0965 31.1115z" fill="#F9F9F9"/><path d="M58.2975 67.3301c1.539-.3319 2.9874-.3168 4.3755.2414 3.2289 1.2825 4.6472 4.8886 3.2892 8.3136-.8298 2.1123-2.5197 3.2741-4.5415 4.0436-1.8105.6789-3.7418.7845-5.6429.7393-3.4552-.0604-6.9254-.2113-10.3806-.3169-.0302 0-.0604-.0151-.1207-.0452-.0453-1.5088-.1207-3.0478-.1358-4.5717-.0302-2.7008-.0905-5.4016-.0151-8.0872.0453-1.9917.5583-3.8777 1.6899-5.5826 2.067-3.078 6.2012-4.0134 9.1282-1.9162 2.0973 1.4937 2.7763 3.6664 2.5047 6.171-.0151.3169-.0906.6186-.1509 1.0109z" fill="#DB4437"/><g opacity=".1" fill="#000"><path opacity=".1" d="M50.6173 22.443c.7695.3773 1.0863 1.2976.7242 2.052L32.1193 65.0367c-.3621.7695-1.2825 1.0863-2.052.7242L2.27511 52.3325c-.76949-.3772-1.08634-1.2975-.72423-2.052L20.7731 9.73889c.3621-.76949 1.2825-1.08634 2.052-.72423L50.6173 22.443z"/><path opacity=".1" d="M32.209 65.0813l19.2222-40.5417c.3621-.7695.0302-1.6898-.7242-2.0519l-2.4745-1.192-21.5156 12.3571c-2.565.9053-3.8927 3.7117-2.9874 6.2918l3.9531 24.6539 2.4744 1.1919c.7695.3772 1.6748.0604 2.052-.7091z"/><path opacity=".15" d="M20.4558 11.3223L2.57647 49.0274c-.33194.7091.01509 1.5842.76949 1.9614l2.47445 1.192L26.7174 41.1062c2.5046-.7846 3.7418-3.3949 2.7762-5.8542L24.937 11.8956l-2.4744-1.1919c-.7695-.3621-1.6748-.0905-2.0068.6186z"/></g><path d="M49.9989 22.2315c.7695.3772 1.0863 1.2976.7242 2.052L31.5009 64.8251c-.3621.7695-1.2825 1.0864-2.052.7243L1.65667 52.121c-.769493-.3772-1.086343-1.2976-.724229-2.052L20.1546 9.52734c.3622-.7695 1.2825-1.08635 2.052-.72423L49.9989 22.2315z" fill="#DB4437"/><path d="M31.5898 64.8709L50.812 24.3443c.3622-.7695.0302-1.6899-.7242-2.052l-2.4744-1.1919-21.5156 12.342c-2.565.9053-3.8927 3.7117-2.9875 6.2917l3.9531 24.654 2.4745 1.1919c.7695.3772 1.6898.0604 2.0519-.7091z" fill="#DB4437"/><path opacity=".15" d="M19.8369 11.1269l-17.87942 37.69c-.33194.7091.01509 1.5842.76949 1.9614l2.47445 1.192L26.0984 40.9107c2.5046-.7846 3.7418-3.3948 2.7762-5.8542L24.318 11.7002l-2.4744-1.192c-.7695-.3772-1.6748-.1056-2.0067.6187z" fill="#231F20"/><g opacity=".15"><path opacity=".15" d="M23.8092 17.5479l-7.8487 31.8176 34.2787 8.4558 7.8487-31.8176-34.2787-8.4558z" fill="#000"/><path opacity=".15" d="M16.1579 48.7246l-2.7391 11.1039 34.2786 8.4558 2.7392-11.1039-34.2787-8.4558z" fill="#000"/><path opacity=".19" d="M41.1323 62.9469c.0539-.2184-3.9884-1.4034-9.0287-2.6468-5.0404-1.2433-9.17-2.0742-9.2239-1.8557-.0539.2184 3.9884 1.4034 9.0287 2.6468 5.0404 1.2433 9.1701 2.0741 9.2239 1.8557z" fill="#000"/><path opacity=".15" d="M32.6237 50.5786l-2.3488 9.5218 2.212.5457 2.3488-9.5219-2.212-.5456z" fill="#000"/><path opacity=".15" d="M39.6144 27.0155L22.746 54.6267l9.4753 2.3386 9.4904 2.3387-2.0973-32.2885z" fill="#000"/><g opacity=".15" stroke="#000" stroke-width=".565048" stroke-miterlimit="10"><path opacity=".15" d="M48.1572 35.8885L35.5436 43.508l-7.6195-12.6136"/><path opacity=".15" d="M46.4983 42.6172l-12.6136 7.6195-7.6195-12.6137"/><path opacity=".15" d="M44.8377 49.3467L32.224 56.9662l-7.6194-12.6136M53.1358 15.7003l-12.6136 7.6346-7.6195-12.6137"/><path opacity=".15" d="M51.4768 22.429l-12.6136 7.6195-7.6195-12.5986"/><path opacity=".15" d="M49.8179 29.1594l-12.6136 7.6195-7.6195-12.5986"/></g><path opacity=".22" d="M39.6144 27.0155l-12.8399 28.607-4.0285-.9958 16.8684-27.6112z" fill="#000"/><path opacity=".1" d="M31.1201 56.6931l2.2179.5432-.3772 1.4937-1.9614-1.5541.1207-.4828z" fill="#000"/><path opacity=".15" d="M40.3691 23.9523l.2565 1.1316 1.0713.4376-1.0109.5884-.0755 1.1618-.8751-.7695-1.1165.2716.4526-1.0562-.6035-.9958 1.1467.1207.7544-.8902z" fill="#000" stroke="#000" stroke-width=".0941798" stroke-miterlimit="10" stroke-linejoin="round"/><path opacity=".15" d="M39.7809 26.3211l-.7846 1.72.3471.0906.347.0754.0905-1.886z" fill="#000" stroke="#000" stroke-width=".0941798" stroke-miterlimit="10" stroke-linejoin="round"/><path opacity=".15" d="M37.6389 30.2439s-.0453 2.7762 2.3085 2.0067c-.7544 2.1727-2.6555 4.1794-4.8735 2.1877 0 0 .513 8.1325 5.2658 3.8928-1.1769 5.5675-6.8349 6.8952-8.555 1.5088 0 0-.4828 11.9799 9.1132 7.0763-1.207 4.3454-11.0897 8.0268-14.1526 1.1618.1961 4.285 5.2657 8.2381 8.7511 8.57 3.4853.3319 5.9749-.7393 5.9749-.7393" stroke="#000" stroke-width=".282524" stroke-miterlimit="10" stroke-linecap="round"/><path opacity=".15" d="M37.6996 43.8381c-.1358.5432-.679.8751-1.2222.7394-.5431-.1358-.8751-.679-.7393-1.2222l1.9615.4828z" fill="#000" stroke="#000" stroke-width=".188344" stroke-miterlimit="10" stroke-linejoin="round"/><path opacity=".15" d="M39.6596 44.3217c-.1358.5432-.6789.8751-1.2221.7393-.5432-.1358-.8751-.6789-.7393-1.2221l1.9614.4828zM41.637 44.8036c-.1358.5431-.679.8751-1.2221.7393-.5432-.1358-.8751-.679-.7394-1.2222l1.9615.4829zM29.25 46.3128c-.1358.5431-.6789.8751-1.2221.7393-.5432-.1358-.8751-.679-.7393-1.2221l1.9614.4828zM31.2118 46.7955c-.1358.5432-.6789.8751-1.2221.7393-.5432-.1358-.8751-.679-.7393-1.2221l1.9614.4828zM33.1874 47.2937c-.1358.5432-.679.8751-1.2221.7393-.5432-.1358-.8751-.679-.7393-1.2221l1.9614.4828zM25.9906 51.6389c-.1358.5432-.6789.8751-1.2221.7393-.5432-.1357-.8751-.6789-.7393-1.2221l1.9614.4828zM27.9662 52.1371c-.1358.5432-.6789.8751-1.2221.7393-.5432-.1357-.8751-.6789-.7393-1.2221l1.9614.4828zM29.928 52.6198c-.1358.5432-.679.8751-1.2221.7394-.5432-.1358-.8751-.679-.7393-1.2222l1.9614.4828zM31.9054 53.1026c-.1358.5431-.679.8751-1.2222.7393-.5431-.1358-.8751-.679-.7393-1.2222l1.9615.4829zM33.8672 53.5861c-.1358.5432-.679.8751-1.2222.7393-.5431-.1358-.8751-.6789-.7393-1.2221l1.9615.4828zM34.4695 39.9765c-.1358.5431-.679.8751-1.2222.7393-.5432-.1358-.8751-.679-.7393-1.2221l1.9615.4828zM36.4467 40.4592c-.1357.5432-.6789.8751-1.2221.7393-.5432-.1358-.8751-.679-.7393-1.2221l1.9614.4828zM38.4086 40.941c-.1358.5432-.679.8751-1.2221.7393-.5432-.1358-.8751-.6789-.7393-1.2221l1.9614.4828zM38.2709 50.8542c-.1358.5432-.679.8751-1.2221.7393-.5432-.1358-.8751-.6789-.7393-1.2221l1.9614.4828zM40.2345 51.3369c-.1358.5432-.679.8751-1.2222.7393-.5431-.1358-.8751-.6789-.7393-1.2221l1.9615.4828zM42.21 51.8205c-.1358.5432-.679.8751-1.2221.7393-.5432-.1358-.8751-.679-.7394-1.2221l1.9615.4828zM36.2953 50.3724c-.1358.5431-.6789.8751-1.2221.7393-.5432-.1358-.8751-.679-.7393-1.2222l1.9614.4829zM39.6149 38.1962c-.1358.5432-.679.8751-1.2221.7393-.5432-.1358-.8751-.6789-.7393-1.2221l1.9614.4828zM41.5768 38.6781c-.1358.5431-.679.8751-1.2222.7393-.5432-.1358-.8751-.679-.7393-1.2222l1.9615.4829zM36.507 34.4085c-.1358.5432-.679.8751-1.2221.7394-.5432-.1358-.8752-.679-.7394-1.2222l1.9615.4828zM38.4826 34.9067c-.1358.5432-.679.8751-1.2222.7394-.5431-.1358-.8751-.679-.7393-1.2222l1.9615.4828zM40.687 32.3108c-.1357.5431-.6789.8751-1.2221.7393-.5432-.1358-.8751-.679-.7393-1.2222l1.9614.4829zM39.7504 28.3127c-.0754.3018-.3922.4979-.694.4225-.3018-.0755-.4979-.3923-.4225-.6941l1.1165.2716z" fill="#000" stroke="#000" stroke-width=".188344" stroke-miterlimit="10" stroke-linejoin="round"/><path opacity=".15" d="M36.8998 31.6169c.0754-.0755.1508-.1207.2414-.1358.2112-.0453.4074.1056.4526.3319.0302.1358-.0151.2565-.1056.3621-.0754.1057-.166.166-.2716.2264-.181.1207-.3772.2263-.5582.347h-.0151c-.0604-.0754-.1056-.1509-.166-.2414-.0905-.1358-.1961-.2867-.2716-.4225-.0603-.1056-.1056-.2263-.1056-.347 0-.2263.1961-.4225.4225-.4225.1659 0 .2715.1056.347.2414.0151.0302.0151.0453.0302.0604zM34.2134 37.683c.0755-.0754.1509-.1207.2414-.1358.2113-.0452.4074.1056.4527.332.0302.1358-.0151.2565-.1056.3621-.0755.1056-.166.1659-.2716.2263-.1811.1207-.3772.2263-.5583.347h-.0151c-.0603-.0754-.1056-.1509-.1659-.2414-.0906-.1358-.1962-.2867-.2716-.4225-.0604-.1056-.1056-.2263-.1056-.347 0-.2263.1961-.4224.4224-.4224.166 0 .2716.1056.3471.2414.015.0301.0301.0452.0301.0603zM30.2605 44.3368c.0755-.0754.1509-.1207.2415-.1358.2112-.0452.4073.1057.4526.332.0302.1358-.0151.2565-.1056.3621-.0755.1056-.166.166-.2716.2263-.1811.1207-.3772.2263-.5583.347h-.0151c-.0603-.0754-.1056-.1508-.1659-.2414-.0906-.1358-.1962-.2866-.2716-.4224-.0604-.1056-.1056-.2264-.1056-.3471 0-.2263.1961-.4224.4224-.4224.166 0 .2716.1056.3471.2414.0151.0151.0151.0453.0301.0603zM40.0972 35.9621c.0754-.0754.1508-.1207.2414-.1358.2112-.0452.4073.1057.4526.332.0302.1358-.0151.2565-.1056.3621-.0755.1056-.166.166-.2716.2263-.1811.1207-.3772.2263-.5583.347h-.015c-.0604-.0754-.1057-.1508-.166-.2414-.0905-.1358-.1962-.2866-.2716-.4224-.0603-.1057-.1056-.2264-.1056-.3471 0-.2263.1961-.4224.4224-.4224.166 0 .2716.1056.3471.2414 0 .0151.0151.0452.0302.0603zM39.722 42.4499c.0755-.0755.1509-.1207.2414-.1358.2113-.0453.4074.1056.4527.3319.0302.1358-.0151.2565-.1056.3621-.0755.1057-.166.166-.2716.2264-.1811.1207-.3772.2263-.5583.347h-.0151c-.0603-.0755-.1056-.1509-.1659-.2414-.0906-.1358-.1962-.2867-.2716-.4225-.0604-.1056-.1056-.2263-.1056-.347 0-.2263.1961-.4225.4224-.4225.166 0 .2716.1056.3471.2414.015.0302.015.0453.0301.0604zM36.8378 45.8607c.0755-.0754.1509-.1207.2414-.1358.2113-.0453.4074.1056.4527.3319.0301.1358-.0151.2565-.1056.3621-.0755.1057-.166.166-.2716.2264-.1811.1207-.3772.2263-.5583.347h-.0151c-.0603-.0754-.1056-.1509-.166-.2414-.0905-.1358-.1961-.2867-.2715-.4225-.0604-.1056-.1057-.2263-.1057-.347 0-.2263.1962-.4225.4225-.4225.166 0 .2716.1056.347.2414.0151.0302.0302.0453.0302.0604zM40.8216 49.8738c.0755-.0754.1509-.1207.2415-.1358.2112-.0453.4073.1056.4526.3319.0302.1358-.0151.2565-.1056.3622-.0755.1056-.166.1659-.2716.2263-.1811.1207-.3772.2263-.5583.347h-.0151c-.0603-.0754-.1056-.1509-.1659-.2414-.0906-.1358-.1962-.2867-.2716-.4225-.0604-.1056-.1056-.2263-.1056-.347 0-.2263.1961-.4225.4224-.4225.166 0 .2716.1056.3471.2414.0151.0302.0301.0453.0301.0604zM40.0972 54.0082c.0754-.0754.1508-.1207.2414-.1357.2112-.0453.4073.1056.4526.3319.0302.1358-.0151.2565-.1056.3621-.0755.1056-.166.166-.2716.2263-.1811.1207-.3772.2263-.5583.347h-.015c-.0604-.0754-.1057-.1508-.166-.2414-.0905-.1358-.1962-.2866-.2716-.4224-.0603-.1056-.1056-.2263-.1056-.3471 0-.2263.1961-.4224.4224-.4224.166 0 .2716.1056.3471.2414 0 .0151.0151.0453.0302.0603zM30.9558 49.3911c.0754-.0755.1509-.1207.2414-.1358.2112-.0453.4074.1056.4526.3319.0302.1358-.015.2565-.1056.3621-.0754.1057-.1659.166-.2716.2264-.181.1207-.3772.2263-.5582.347h-.0151c-.0604-.0754-.1056-.1509-.166-.2414-.0905-.1358-.1961-.2867-.2716-.4225-.0603-.1056-.1056-.2263-.1056-.347 0-.2263.1962-.4225.4225-.4225.166 0 .2716.1056.347.2414.0151.0151.0151.0302.0302.0604zM26.7293 47.8672c.0754-.0754.1509-.1207.2414-.1358.2112-.0452.4074.1057.4526.332.0302.1358-.015.2565-.1056.3621-.0754.1056-.1659.166-.2716.2263-.181.1207-.3772.2263-.5582.347h-.0151c-.0604-.0754-.1056-.1508-.166-.2414-.0905-.1358-.1961-.2866-.2716-.4224-.0603-.1056-.1056-.2264-.1056-.3471 0-.2263.1962-.4224.4225-.4224.166 0 .2716.1056.347.2414.0151.0302.0302.0452.0302.0603zM28.3143 55.0786c.0754-.0754.1508-.1207.2414-.1358.2112-.0452.4073.1057.4526.332.0302.1358-.0151.2565-.1056.3621-.0754.1056-.166.166-.2716.2263-.1811.1207-.3772.2263-.5583.347h-.015c-.0604-.0754-.1057-.1508-.166-.2414-.0905-.1358-.1962-.2866-.2716-.4224-.0603-.1057-.1056-.2264-.1056-.3471 0-.2263.1961-.4224.4225-.4224.1659 0 .2715.1056.347.2414.0151.0302.0302.0452.0302.0603zM36.22 53.0118c.0755-.0754.1509-.1207.2414-.1357.2113-.0453.4074.1056.4527.3319.0301.1358-.0151.2565-.1056.3621-.0755.1056-.166.166-.2716.2263-.1811.1207-.3772.2263-.5583.3471h-.0151c-.0603-.0755-.1056-.1509-.1659-.2415-.0906-.1358-.1962-.2866-.2716-.4224-.0604-.1056-.1057-.2263-.1057-.3471 0-.2263.1962-.4224.4225-.4224.166 0 .2716.1056.347.2414.0151.0151.0151.0302.0302.0603zM37.9099 56.3168c.0754-.0754.1509-.1207.2414-.1358.2112-.0452.4074.1056.4526.332.0302.1357-.015.2565-.1056.3621-.0754.1056-.1659.1659-.2716.2263-.181.1207-.3772.2263-.5582.347h-.0151c-.0604-.0754-.1056-.1509-.166-.2414-.0905-.1358-.1961-.2867-.2716-.4225-.0603-.1056-.1056-.2263-.1056-.347 0-.2263.1962-.4225.4225-.4225.166 0 .2716.1057.347.2415.0151.015.0302.0301.0302.0603zM34.2444 48.5461c.0755-.0754.1509-.1207.2414-.1358.2113-.0452.4074.1057.4527.332.0302.1358-.0151.2565-.1056.3621-.0755.1056-.166.166-.2716.2263-.1811.1207-.3772.2263-.5583.347h-.0151c-.0603-.0754-.1056-.1508-.1659-.2414-.0906-.1358-.1962-.2866-.2716-.4224-.0604-.1057-.1056-.2264-.1056-.3471 0-.2263.1961-.4224.4224-.4224.166 0 .2716.1056.3471.2414.015.0151.015.0302.0301.0603zM33.7316 43.7173c.0755-.0754.1509-.1207.2414-.1358.2113-.0452.4074.1056.4527.332.0301.1358-.0151.2565-.1057.3621-.0754.1056-.1659.1659-.2715.2263-.1811.1207-.3772.2263-.5583.347h-.0151c-.0603-.0754-.1056-.1509-.166-.2414-.0905-.1358-.1961-.2867-.2715-.4224-.0604-.1057-.1057-.2264-.1057-.3471 0-.2263.1962-.4224.4225-.4224.166 0 .2716.1056.347.2414 0 .0301.0151.0452.0302.0603z" fill="#000"/></g><path d="M23.077 16.4479l-7.8487 31.8177 34.2787 8.4558 7.8487-31.8176-34.2787-8.4559z" fill="#426CB3"/><path d="M15.429 47.6105l-2.7391 11.104 34.2787 8.4558 2.7391-11.104-34.2787-8.4558z" fill="#fff"/><path opacity=".19" d="M40.4024 61.8307c.0538-.2184-3.9885-1.4034-9.0288-2.6468-5.0403-1.2433-9.17-2.0742-9.2239-1.8557-.0539.2184 3.9884 1.4034 9.0288 2.6468 5.0403 1.2433 9.17 2.0742 9.2239 1.8557z" fill="#333"/><path d="M31.8937 49.4633l-2.3488 9.5218 2.212.5457 2.3488-9.5219-2.212-.5456z" fill="#725D4C"/><path d="M38.8776 25.9131L22.0091 53.5243l9.4753 2.3386 9.4904 2.3387-2.0972-32.2885z" fill="#048F4A"/><mask id="a" maskUnits="userSpaceOnUse" x="22" y="25" width="19" height="34"><path d="M38.8776 25.9131L22.0091 53.5243l9.4753 2.3386 9.4904 2.3387-2.0972-32.2885z" fill="#048F4A"/></mask><g mask="url(#a)" stroke="#06A65F" stroke-width=".565048" stroke-miterlimit="10"><path d="M47.4189 34.7848l-12.6136 7.6195-7.6195-12.6136"/><path d="M45.76 41.5135L33.1463 49.133l-7.6194-12.6136"/><path d="M44.0993 48.2439l-12.6136 7.6195-7.6195-12.6136M50.7385 21.3252l-12.6137 7.6195-7.6194-12.6137"/><path d="M49.0778 28.0547l-12.6136 7.6195-7.6195-12.6136"/></g><path opacity=".22" d="M38.8776 25.9131l-12.84 28.607-4.0285-.9958 16.8685-27.6112z" fill="#fff"/><path opacity=".1" d="M30.3832 55.5907l2.2179.5431-.3772 1.4938-1.9614-1.5541.1207-.4828z" fill="#000"/><path d="M39.6311 22.8507l.2565 1.1316 1.0713.4376-.9958.5884-.0906 1.1618-.86-.7695-1.1316.2716.4678-1.0713-.6187-.9807 1.1618.1207.7393-.8902z" fill="#FACC48" stroke="#FACC48" stroke-width=".0941798" stroke-miterlimit="10" stroke-linejoin="round"/><path d="M39.0429 25.2195l-.7845 1.7201.347.0754.347.0905.0905-1.886z" fill="#FACC48" stroke="#FACC48" stroke-width=".0941798" stroke-miterlimit="10" stroke-linejoin="round"/><path d="M36.9158 29.1415s-.0453 2.7762 2.3085 2.0067c-.7544 2.1727-2.6555 4.1794-4.8735 2.1877 0 0 .513 8.1325 5.2658 3.8928-1.1769 5.5675-6.8349 6.8952-8.555 1.5088 0 0-.4828 11.9799 9.1132 7.0763-1.207 4.3454-11.0897 8.0268-14.1526 1.1618.1962 4.285 5.2658 8.2381 8.7511 8.57 3.4853.3319 5.9749-.7393 5.9749-.7393" stroke="#F2C036" stroke-width=".282524" stroke-miterlimit="10" stroke-linecap="round"/><path d="M36.9629 42.7358c-.1358.5431-.6789.8751-1.2221.7393-.5432-.1358-.8751-.679-.7393-1.2221l1.9614.4828z" fill="#fff" stroke="#fff" stroke-width=".188344" stroke-miterlimit="10" stroke-linejoin="round"/><path d="M38.923 43.2185c-.1358.5432-.679.8751-1.2221.7393-.5432-.1358-.8751-.679-.7393-1.2221l1.9614.4828zM40.9021 43.7021c-.1358.5431-.679.8751-1.2222.7393-.5431-.1358-.8751-.679-.7393-1.2222l1.9615.4829zM28.5134 45.2096c-.1358.5431-.679.8751-1.2221.7393-.5432-.1358-.8751-.679-.7394-1.2222l1.9615.4829zM30.4752 45.6931c-.1358.5432-.679.8751-1.2221.7393-.5432-.1357-.8752-.6789-.7394-1.2221l1.9615.4828zM32.4525 46.1758c-.1358.5432-.679.8752-1.2221.7394-.5432-.1358-.8752-.679-.7394-1.2222l1.9615.4828zM25.2695 50.5357c-.1358.5432-.679.8751-1.2221.7393-.5432-.1358-.8751-.6789-.7393-1.2221l1.9614.4828zM27.2313 51.0201c-.1358.5432-.679.8752-1.2221.7394-.5432-.1358-.8751-.679-.7394-1.2222l1.9615.4828zM29.2069 51.5175c-.1358.5431-.679.8751-1.2222.7393-.5431-.1358-.8751-.679-.7393-1.2221l1.9615.4828zM31.1687 52.0002c-.1358.5432-.6789.8751-1.2221.7393-.5432-.1358-.8751-.679-.7393-1.2221l1.9614.4828zM33.1305 52.4829c-.1358.5432-.6789.8751-1.2221.7393-.5432-.1358-.8751-.679-.7393-1.2221l1.9614.4828zM33.7345 38.8732c-.1358.5432-.6789.8752-1.2221.7394-.5432-.1358-.8751-.679-.7393-1.2222l1.9614.4828zM35.7101 39.356c-.1358.5431-.6789.8751-1.2221.7393-.5432-.1358-.8751-.679-.7393-1.2222l1.9614.4829z" fill="#fff" stroke="#fff" stroke-width=".188344" stroke-miterlimit="10" stroke-linejoin="round"/><path d="M37.6702 39.8395c-.1358.5432-.679.8751-1.2221.7393-.5432-.1358-.8751-.6789-.7394-1.2221l1.9615.4828zM37.536 49.7518c-.1358.5432-.679.8752-1.2222.7394-.5431-.1358-.8751-.679-.7393-1.2222l1.9615.4828zM39.4995 50.2346c-.1358.5431-.6789.8751-1.2221.7393-.5432-.1358-.8751-.679-.7393-1.2222l1.9614.4829zM41.4734 50.7181c-.1358.5432-.6789.8751-1.2221.7393-.5432-.1358-.8751-.6789-.7393-1.2221l1.9614.4828zM35.5759 49.2545c-.1358.5432-.679.8751-1.2221.7393-.5432-.1358-.8751-.6789-.7394-1.2221l1.9615.4828zM38.8783 37.0784c-.1358.5431-.679.8751-1.2222.7393-.5431-.1358-.8751-.679-.7393-1.2222l1.9615.4829zM40.8556 37.5757c-.1358.5432-.6789.8751-1.2221.7393-.5432-.1358-.8751-.679-.7393-1.2221l1.9614.4828zM35.7721 33.3062c-.1358.5431-.679.8751-1.2222.7393-.5431-.1358-.8751-.679-.7393-1.2222l1.9615.4829zM37.7459 33.7889c-.1358.5432-.6789.8751-1.2221.7393-.5432-.1358-.8751-.679-.7393-1.2221l1.9614.4828zM39.9504 31.2093c-.1358.5431-.679.8751-1.2221.7393-.5432-.1358-.8751-.679-.7393-1.2222l1.9614.4829zM39.031 27.2104c-.0754.3017-.3923.4979-.694.4224-.3018-.0754-.4979-.3923-.4225-.694l1.1165.2716z" fill="#fff" stroke="#fff" stroke-width=".188344" stroke-miterlimit="10" stroke-linejoin="round"/><path d="M36.1606 30.516c.0755-.0755.1509-.1207.2414-.1358.2113-.0453.4074.1056.4527.3319.0302.1358-.0151.2565-.1056.3621-.0755.1056-.166.166-.2716.2263-.1811.1208-.3772.2264-.5583.3471h-.0151c-.0603-.0755-.1056-.1509-.1659-.2414-.0906-.1358-.1962-.2867-.2716-.4225-.0604-.1056-.1056-.2263-.1056-.347 0-.2264.1961-.4225.4224-.4225.166 0 .2716.1056.3471.2414.015.0302.0301.0453.0301.0604zM33.4898 36.5811c.0754-.0755.1509-.1207.2414-.1358.2112-.0453.4074.1056.4526.3319.0302.1358-.015.2565-.1056.3621-.0754.1057-.1659.166-.2716.2264-.181.1207-.3772.2263-.5582.347h-.0151c-.0604-.0754-.1056-.1509-.166-.2414-.0905-.1358-.1961-.2867-.2716-.4225-.0603-.1056-.1056-.2263-.1056-.347 0-.2263.1962-.4225.4225-.4225.166 0 .2716.1056.347.2414 0 .0302.0151.0453.0302.0604zM29.5231 43.2359c.0755-.0754.1509-.1207.2414-.1358.2113-.0453.4074.1056.4527.3319.0301.1358-.0151.2565-.1056.3622-.0755.1056-.166.1659-.2716.2263-.1811.1207-.3772.2263-.5583.347h-.0151c-.0603-.0754-.1056-.1509-.1659-.2414-.0906-.1358-.1962-.2867-.2716-.4225-.0604-.1056-.1057-.2263-.1057-.347 0-.2263.1962-.4225.4225-.4225.166 0 .2716.1057.347.2414.0151.0151.0151.0302.0302.0604zM39.3597 34.8602c.0755-.0754.1509-.1207.2414-.1358.2113-.0453.4074.1056.4527.3319.0302.1358-.0151.2565-.1056.3622-.0755.1056-.166.1659-.2716.2263-.1811.1207-.3772.2263-.5583.347h-.0151c-.0603-.0754-.1056-.1509-.1659-.2414-.0906-.1358-.1962-.2867-.2716-.4225-.0604-.1056-.1056-.2263-.1056-.347 0-.2263.1961-.4225.4224-.4225.166 0 .2716.1057.3471.2415.015.015.015.0301.0301.0603zM38.9828 41.349c.0755-.0755.1509-.1208.2414-.1358.2113-.0453.4074.1056.4527.3319.0302.1358-.0151.2565-.1056.3621-.0755.1056-.166.166-.2716.2263-.1811.1207-.3772.2264-.5583.3471h-.0151c-.0603-.0755-.1056-.1509-.1659-.2414-.0906-.1358-.1962-.2867-.2716-.4225-.0604-.1056-.1056-.2263-.1056-.347 0-.2264.1961-.4225.4224-.4225.166 0 .2716.1056.3471.2414.015.0151.0301.0453.0301.0604zM36.1158 44.7587c.0755-.0754.1509-.1207.2414-.1357.2113-.0453.4074.1056.4527.3319.0302.1358-.0151.2565-.1056.3621-.0755.1056-.166.166-.2716.2263-.1811.1207-.3772.2263-.5583.3471h-.0151c-.0603-.0755-.1056-.1509-.1659-.2415-.0906-.1357-.1962-.2866-.2716-.4224-.0604-.1056-.1056-.2263-.1056-.347 0-.2264.1961-.4225.4224-.4225.166 0 .2716.1056.3471.2414 0 .0302.015.0453.0301.0603zM40.098 48.772c.0754-.0754.1509-.1207.2414-.1358.2112-.0452.4074.1056.4527.332.0301.1357-.0151.2565-.1057.3621-.0754.1056-.1659.1659-.2715.2263-.1811.1207-.3772.2263-.5583.347h-.0151c-.0603-.0754-.1056-.1509-.166-.2414-.0905-.1358-.1961-.2867-.2715-.4225-.0604-.1056-.1057-.2263-.1057-.347 0-.2263.1962-.4225.4225-.4225.166 0 .2716.1057.347.2415 0 .0301.0151.0452.0302.0603zM39.3597 52.9064c.0755-.0754.1509-.1207.2414-.1358.2113-.0452.4074.1057.4527.332.0302.1358-.0151.2565-.1056.3621-.0755.1056-.166.166-.2716.2263-.1811.1207-.3772.2263-.5583.347h-.0151c-.0603-.0754-.1056-.1508-.1659-.2414-.0906-.1358-.1962-.2866-.2716-.4224-.0604-.1056-.1056-.2264-.1056-.3471 0-.2263.1961-.4224.4224-.4224.166 0 .2716.1056.3471.2414.015.0151.015.0302.0301.0603zM30.2167 48.2893c.0754-.0754.1508-.1207.2414-.1358.2112-.0453.4073.1056.4526.3319.0302.1358-.0151.2565-.1056.3622-.0754.1056-.166.1659-.2716.2263-.181.1207-.3772.2263-.5582.347h-.0151c-.0604-.0754-.1057-.1509-.166-.2414-.0905-.1358-.1962-.2867-.2716-.4225-.0603-.1056-.1056-.2263-.1056-.347 0-.2263.1961-.4225.4225-.4225.1659 0 .2715.1056.347.2414.0151.0151.0302.0302.0302.0604zM25.9919 46.7654c.0754-.0754.1508-.1207.2414-.1357.2112-.0453.4074.1056.4526.3319.0302.1358-.0151.2565-.1056.3621-.0754.1056-.166.166-.2716.2263-.181.1207-.3772.2263-.5582.3471h-.0151c-.0604-.0755-.1056-.1509-.166-.2415-.0905-.1358-.1961-.2866-.2716-.4224-.0603-.1056-.1056-.2263-.1056-.3471 0-.2263.1961-.4224.4225-.4224.1659 0 .2716.1056.347.2414.0151.0302.0302.0453.0302.0603zM27.5751 53.9775c.0754-.0754.1508-.1207.2414-.1357.2112-.0453.4073.1056.4526.3319.0302.1358-.0151.2565-.1056.3621-.0754.1056-.166.166-.2716.2263-.181.1207-.3772.2263-.5583.347h-.015c-.0604-.0754-.1057-.1508-.166-.2414-.0905-.1358-.1962-.2866-.2716-.4224-.0603-.1056-.1056-.2263-.1056-.347 0-.2264.1961-.4225.4225-.4225.1659 0 .2715.1056.347.2414.0151.0151.0302.0453.0302.0603zM35.4826 51.9109c.0754-.0754.1509-.1207.2414-.1358.2112-.0453.4074.1056.4526.332.0302.1357-.015.2564-.1056.3621-.0754.1056-.1659.1659-.2716.2263-.181.1207-.3772.2263-.5582.347h-.0151c-.0604-.0754-.1056-.1509-.166-.2414-.0905-.1358-.1961-.2867-.2716-.4225-.0603-.1056-.1056-.2263-.1056-.347 0-.2263.1962-.4225.4225-.4225.166 0 .2716.1057.347.2415.0151.015.0151.0301.0302.0603zM37.1708 55.2149c.0754-.0755.1508-.1207.2414-.1358.2112-.0453.4073.1056.4526.3319.0302.1358-.0151.2565-.1056.3621-.0754.1057-.166.166-.2716.2264-.181.1207-.3772.2263-.5582.347h-.0151c-.0604-.0755-.1057-.1509-.166-.2414-.0905-.1358-.1961-.2867-.2716-.4225-.0603-.1056-.1056-.2263-.1056-.347 0-.2263.1961-.4225.4225-.4225.1659 0 .2715.1056.347.2414.0151.0151.0302.0302.0302.0604zM33.5053 47.4442c.0754-.0755.1509-.1207.2414-.1358.2112-.0453.4074.1056.4526.3319.0302.1358-.015.2565-.1056.3621-.0754.1057-.1659.166-.2716.2264-.181.1207-.3772.2263-.5582.347h-.0151c-.0604-.0754-.1056-.1509-.166-.2414-.0905-.1358-.1961-.2867-.2716-.4225-.0603-.1056-.1056-.2263-.1056-.347 0-.2263.1962-.4225.4225-.4225.166 0 .2716.1056.347.2414.0151.0151.0151.0302.0302.0604zM32.9942 42.6155c.0754-.0754.1509-.1207.2414-.1358.2112-.0452.4074.1057.4526.332.0302.1358-.015.2565-.1056.3621-.0754.1056-.1659.166-.2716.2263-.181.1207-.3772.2263-.5582.347h-.0151c-.0604-.0754-.1056-.1508-.166-.2414-.0905-.1358-.1961-.2866-.2716-.4224-.0603-.1057-.1056-.2264-.1056-.3471 0-.2263.1962-.4224.4225-.4224.166 0 .2716.1056.347.2414.0151.0302.0151.0452.0302.0603z" fill="#DB4437"/><path opacity=".14" d="M19.7461 10.2669L.508829 50.7935c-.362114.7695-.030177 1.6898.739311 2.067l2.47445 1.192L25.2231 41.6954c2.565-.9053 3.8927-3.7117 2.9874-6.2918l-3.953-24.669-2.4745-1.19193c-.7695-.3772-1.6748-.04526-2.0369.72423z" fill="#000"/><path d="M19.3691 9.15002L.14693 49.6917c-.362114.7695-.030176 1.6898.724228 2.052L3.3456 52.9356l21.5156-12.3571c2.565-.9053 3.8927-3.7117 2.9874-6.2917l-3.953-24.65396-2.4745-1.19196c-.7695-.3772-1.6898-.04526-2.052.70914z" fill="#DB4437"/><g opacity=".1"><path opacity=".1" d="M37.9717 19.41c4.9338 1.3579 7.529 6.5784 10.6371 10.6371 5.13 6.6991 13.2172 11.1652 21.6514 11.3613 8.4343.1961 17.0043-4.104 21.5005-11.301 2.9271-4.7074 4.0738-10.2749 6.1861-15.3898 2.1122-5.11486 5.7482-10.21463 11.1052-11.49712" stroke="#000" stroke-width="1.33623" stroke-miterlimit="10" stroke-linecap="round"/><path opacity=".1" d="M49.4387 25.8378l1.7954 2.912c.1358.2263.0604.513-.1508.6488l-.2565.166c-.2264.1358-.513.0754-.6488-.1509l-1.7955-2.912c-.1358-.2263-.0604-.513.1509-.6488l.2565-.166c.2263-.1358.513-.0603.6488.1509z" fill="#000"/><path opacity=".1" d="M48.6832 26.3215l1.7955 2.912c.1358.2263.0604.513-.1509.6488l-.2565.166c-.2263.1358-.513.0754-.6488-.1509l-1.7954-2.912c-.1358-.2263-.0604-.513.1508-.6488l.2565-.1659c.2264-.1358.513-.0755.6488.1508zM52.9538 20.5127c-.3923.0151-1.026.2263-1.5842.5734-2.2632 1.4031-2.8668 4.3453-1.4787 6.5934 1.3881 2.2482 4.285 3.1082 6.5332 1.705.5582-.347.9958-.7997 1.2975-1.1165l3.1836-4.7528c1.1618-1.72-.3168-4.0436-2.3688-3.7569l-5.5826.7544z" fill="#000"/><path opacity=".4" d="M57.5262 25.8523l1.9313-2.6102c.7695-1.0109.0603-2.2633-1.1769-2.0218M51.4153 23.1368c.3622-.6186 1.1166-.9807 1.8106-.8902" stroke="#000" stroke-width=".801735" stroke-miterlimit="10" stroke-linecap="round"/><path opacity=".1" d="M72.7944 43.3548l-3.3949.3923c-.2565.0302-.4828-.1509-.5129-.4074l-.0302-.3018c-.0302-.2565.1509-.4979.4074-.528l3.3948-.3923c.2565-.0302.4828.1509.513.4074l.0301.3017c.0302.2716-.1508.4979-.4073.5281z" fill="#000"/><path opacity=".1" d="M72.6894 42.4651l-3.3948.3923c-.2565.0302-.4829-.1509-.513-.4074l-.0302-.3017c-.0302-.2565.1509-.498.4074-.5281l3.3948-.3923c.2565-.0302.4828.1509.513.4074l.0302.3017c.0452.2716-.1509.4979-.4074.5281zM76.0387 48.9373c.2113-.4677.2565-1.1014.1811-1.7502-.2867-2.6404-2.6555-4.466-5.2808-4.1643-2.6405.3018-4.5416 2.6254-4.2549 5.2658.0755.6488.2716 1.207.5583 1.72l2.7913 4.8131c1.0561 1.7804 3.7116 1.4485 4.3453-.5281l1.6597-5.3563z" fill="#000"/><path opacity=".4" d="M69.2644 50.6878l1.5088 2.8516c.5734 1.1165 2.0067 1.0109 2.3236-.2112M74.3788 46.2978c.4074.5884.4074 1.4183.0151 2.0218" stroke="#000" stroke-width=".801735" stroke-miterlimit="10" stroke-linecap="round"/><path opacity=".1" d="M89.0741 36.6859l-2.7008 2.1425c-.1961.1659-.4979.1207-.6638-.0755l-.1962-.2414c-.166-.1961-.1207-.4979.0754-.6639l2.6857-2.1425c.1962-.1659.4979-.1207.6639.0755l.1961.2414c.1811.2112.1358.513-.0603.6639z" fill="#000"/><path opacity=".1" d="M88.5324 35.9923l-2.6857 2.1425c-.1961.166-.4979.1207-.6639-.0754l-.1961-.2414c-.166-.1962-.1207-.4979.0754-.6639l2.6857-2.1425c.1962-.166.4979-.1207.6639.0754l.1961.2415c.1509.2112.1207.4979-.0754.6638zM94.8384 39.7935c-.0604-.3621-.4074-1.1165-.7997-1.6295-1.6295-2.0821-4.632-2.399-6.7142-.7544-2.0821 1.6597-2.5046 4.5868-.8751 6.669.4074.513.8751.7091 1.373 1.1165l4.9036 2.6253c1.8408.9506 3.9682-.679 3.4703-2.6857l-1.3579-5.3412z" fill="#000"/><path opacity=".4" d="M89.9185 44.7576l2.7762 1.6144c1.0713.6337 2.2481-.2112 1.8709-1.4183M91.9715 38.3464c.6488.2867 1.1014.9958 1.0713 1.705" stroke="#000" stroke-width=".801735" stroke-miterlimit="10" stroke-linecap="round"/><path opacity=".1" d="M97.7818 21.8391l-.8147 3.3345c-.0604.2565-.3169.4074-.5734.347l-.3017-.0754c-.2565-.0604-.4074-.3169-.3471-.5734l.8148-3.3344c.0604-.2565.3169-.4074.5734-.347l.3017.0754c.2565.0754.4225.3168.347.5733z" fill="#000"/><path opacity=".1" d="M96.9214 21.6283l-.8148 3.3345c-.0603.2565-.3168.4074-.5733.347l-.3018-.0754c-.2565-.0604-.4074-.3169-.347-.5734l.8147-3.3344c.0604-.2565.3169-.4074.5734-.347l.3017.0754c.2565.0754.4074.3319.3471.5733zM104.375 20.7679c-.588-.4376-1.056-.6639-1.69-.8148-2.58-.6186-5.1749.9657-5.7935 3.5608-.6337 2.5801.8449 5.1601 3.4095 5.7787.634.1509 1.192.1056 1.796.0453l5.477-1.0109c2.037-.3923 2.761-2.9573 1.131-4.2247l-4.33-3.3344z" fill="#000"/><path opacity=".4" d="M103.409 27.6333l3.198-.4526c1.253-.166 1.645-1.5541.619-2.2633M101.085 21.341c.694-.1811 1.479.0905 1.901.6789" stroke="#000" stroke-width=".801735" stroke-miterlimit="10" stroke-linecap="round"/><path opacity=".1" d="M96.6647 11.2322l1.6144-3.09308c.1207-.21124.3923-.30176.6035-.19615l.3018.16597c.2263.12071.3017.39229.1961.60352l-1.6144 3.09304c-.1207.2113-.3923.3018-.6035.1962l-.3018-.166c-.2263-.1056-.3168-.3772-.1961-.6035z" fill="#000"/><path opacity=".1" d="M97.4477 11.64l1.6144-3.09303c.1207-.21123.3923-.30176.6035-.19615l.3018.16597c.2266.12071.3016.39229.1966.60353l-1.6149 3.09308c-.1207.2112-.3923.3017-.6035.1961l-.3018-.166c-.2263-.1056-.3168-.3772-.1961-.6035zM90.1757 10.8101c.5281.5583.7997.8299 1.373 1.1316 2.3538 1.2222 5.2054.2716 6.4275-2.09721 1.2222-2.36883.4527-5.17521-1.886-6.39734-.5733-.30176-1.2372-.45265-1.6747-.43756l-5.5977-.39229c-2.0671-.10561-3.3496 2.24813-2.0671 3.87764l3.425 4.31516z" fill="#000"/><path opacity=".4" d="M92.6052 4.23156l-3.2138-.31685c-1.2523-.1358-1.9614 1.11651-1.1316 2.05197M93.3606 10.916c-.7091.015-1.4032-.4527-1.6747-1.11656" stroke="#000" stroke-width=".801735" stroke-miterlimit="10" stroke-linecap="round"/></g><path d="M37.4448 17.8107c4.9338 1.358 7.529 6.5784 10.6371 10.6371 5.13 6.6991 13.2172 11.1652 21.6514 11.3614 8.4342.1961 17.0043-4.104 21.5005-11.301 2.9271-4.7075 4.0738-10.275 6.1861-15.3898 2.1124-5.11491 5.7481-10.21467 11.1051-11.49716" stroke="#fff" stroke-width="1.33623" stroke-miterlimit="10" stroke-linecap="round"/><path d="M48.911 24.2392l1.7955 2.912c.1358.2263.0603.513-.1509.6488l-.2565.1659c-.2263.1358-.513.0755-.6488-.1508l-1.7955-2.912c-.1358-.2264-.0603-.513.1509-.6488l.2565-.166c.2263-.1358.513-.0754.6488.1509z" fill="#636363"/><path d="M48.1573 24.7063l1.7955 2.912c.1358.2263.0603.513-.1509.6487l-.2565.166c-.2263.1358-.513.0755-.6488-.1509l-1.7955-2.912c-.1358-.2263-.0603-.513.1509-.6487l.2565-.166c.2112-.1358.513-.0604.6488.1509z" fill="#636363"/><path d="M52.4262 18.9122c-.3923.0151-1.026.2263-1.5843.5734-2.2632 1.4032-2.8667 4.3453-1.4786 6.5935 1.3881 2.2481 4.285 3.1081 6.5331 1.7049.5583-.347.9958-.7997 1.2976-1.1165l3.1836-4.7528c1.1618-1.72-.3169-4.0436-2.3689-3.7569l-5.5825.7544z" fill="#DB4437"/><path opacity=".4" d="M56.9966 24.2525l1.9313-2.6103c.7695-1.0109.0604-2.2632-1.1769-2.0218M50.8875 21.537c.3621-.6186 1.1165-.9807 1.8105-.8902" stroke="#fff" stroke-width=".801735" stroke-miterlimit="10" stroke-linecap="round"/><path d="M72.254 41.7561l-3.3948.3923c-.2565.0302-.4828-.1509-.513-.4074l-.0302-.3018c-.0301-.2564.1509-.4979.4074-.528l3.3948-.3923c.2565-.0302.4828.1509.513.4074l.0302.3017c.0453.2565-.1509.4979-.4074.5281z" fill="#636363"/><path d="M72.1628 40.8655l-3.3948.3923c-.2565.0302-.4828-.1509-.513-.4073l-.0302-.3018c-.0301-.2565.1509-.4979.4074-.5281l3.3948-.3923c.2565-.0302.4829.1509.513.4074l.0302.3018c.0302.2715-.1509.4979-.4074.528z" fill="#636363"/><path d="M75.4967 47.324c.2112-.4677.2565-1.1014.181-1.7502-.2866-2.6404-2.6555-4.4661-5.2808-4.1643-2.6404.3017-4.5415 2.6253-4.2548 5.2657.0754.6488.2715 1.2071.5582 1.7201l2.7913 4.8131c1.0562 1.7803 3.7117 1.4484 4.3454-.5281l1.6597-5.3563z" fill="#4C8DFD"/><path opacity=".4" d="M68.7385 49.089l1.5088 2.8516c.5734 1.1166 2.0067 1.0109 2.3236-.2112M73.8358 44.6982c.4073.5884.4073 1.4182.015 2.0218" stroke="#fff" stroke-width=".801735" stroke-miterlimit="10" stroke-linecap="round"/><path d="M88.5301 35.0862l-2.6856 2.1425c-.1962.1659-.4979.1207-.6639-.0755l-.1962-.2414c-.1659-.1961-.1207-.4979.0755-.6639l2.6857-2.1425c.1961-.1659.4979-.1207.6638.0755l.1962.2414c.1659.2112.1358.4979-.0755.6639z" fill="#636363"/><path d="M87.9883 34.3931l-2.6857 2.1425c-.1962.166-.4979.1207-.6639-.0755l-.1961-.2414c-.166-.1961-.1207-.4979.0754-.6638l2.6857-2.1425c.1961-.166.4979-.1207.6639.0754l.1961.2414c.166.1962.1358.4979-.0754.6639z" fill="#636363"/><path d="M94.3099 38.1798c-.0604-.3621-.4074-1.1165-.7997-1.6295-1.6295-2.0822-4.632-2.399-6.7142-.7544-2.0821 1.6597-2.5046 4.5867-.8751 6.6689.4074.513.8751.7091 1.373 1.1165l4.9036 2.6253c1.8408.9506 3.9682-.6789 3.4703-2.6856l-1.3579-5.3412z" fill="#FFD500"/><path opacity=".4" d="M89.3745 43.1602l2.7762 1.6144c1.0713.6337 2.2481-.2113 1.8709-1.4183M91.4276 36.7318c.6487.2867 1.1014.9958 1.0712 1.7049" stroke="#fff" stroke-width=".801735" stroke-miterlimit="10" stroke-linecap="round"/><path d="M97.2545 20.2397l-.8148 3.3345c-.0603.2565-.3168.4074-.5733.347l-.3018-.0754c-.2565-.0604-.4073-.3169-.347-.5734l.8148-3.3344c.0603-.2565.3168-.4074.5733-.3471l.3018.0755c.2565.0603.4073.3168.347.5733z" fill="#636363"/><path d="M96.394 20.0289l-.8147 3.3345c-.0604.2565-.3169.4073-.5734.347l-.3017-.0754c-.2565-.0604-.4074-.3169-.3471-.5734l.8148-3.3345c.0603-.2565.3168-.4073.5733-.347l.3018.0755c.2565.0754.4074.3168.347.5733z" fill="#636363"/><path d="M103.831 19.1693c-.588-.4375-1.056-.6639-1.69-.8147-2.5797-.6186-5.1748.9656-5.7935 3.5607-.6337 2.5801.845 5.1602 3.41 5.7788.6335.1509 1.1915.1056 1.7955.0452l5.477-1.0109c2.037-.3922 2.761-2.9572 1.132-4.2246l-4.331-3.3345z" fill="#DB4437"/><path opacity=".4" d="M102.88 26.0348l3.199-.4527c1.252-.1659 1.644-1.5541.618-2.2632M100.557 19.7424c.694-.181 1.479.0905 1.901.679" stroke="#fff" stroke-width=".801735" stroke-miterlimit="10" stroke-linecap="round"/><path d="M96.1197 9.63335l1.6145-3.09306c.1207-.21123.3923-.30176.6035-.19614l.3017.16597c.2264.1207.3018.39229.1962.60352l-1.6144 3.09306c-.1207.2112-.3923.3018-.6035.1961l-.3018-.1659c-.2263-.1207-.3018-.39232-.1962-.60355z" fill="#636363"/><path d="M96.9048 10.0403l1.6144-3.09302c.1207-.21123.3923-.30176.6036-.19614l.3017.16597c.2263.1207.3018.39229.1962.60352l-1.5994 3.09307c-.1207.2112-.3923.3017-.6035.1961l-.3018-.1659c-.2263-.1207-.3168-.3923-.2112-.6036z" fill="#636363"/><path d="M89.6484 9.19626c.5281.55826.7996.82984 1.373 1.13164 2.3537 1.2221 5.2054.2716 6.4275-2.09728 1.2221-2.36883.4527-5.17521-1.886-6.39734-.5733-.30176-1.2372-.45264-1.6748-.43756l-5.6127-.39229c-2.0671-.105613-3.3496 2.24813-2.0671 3.87764l3.4401 4.31519z" fill="#36B24A"/><path opacity=".4" d="M92.0639 2.63233l-3.1987-.33194c-1.2523-.13579-1.9614 1.11652-1.1316 2.05198M92.8172 9.30164c-.7092.01509-1.4032-.45264-1.6748-1.11651" stroke="#fff" stroke-width=".801735" stroke-miterlimit="10" stroke-linecap="round"/></svg>