<?xml version="1.0" encoding="utf-8"?>
<!-- Generator: Adobe Illustrator 19.1.0, SVG Export Plug-In . SVG Version: 6.00 Build 0)  -->
<svg version="1.1" id="Layer_1" xmlns="http://www.w3.org/2000/svg" xmlns:xlink="http://www.w3.org/1999/xlink" x="0px" y="0px"
	 viewBox="0 0 62 100" style="enable-background:new 0 0 62 100;" xml:space="preserve">
<style type="text/css">
	.st0{clip-path:url(#XMLID_2_);}
	.st1{fill:#80441D;}
	.st2{fill:none;stroke:#80441D;stroke-width:7.5;stroke-linecap:round;stroke-linejoin:round;stroke-miterlimit:10;}
	.st3{fill:#A66E40;}
	.st4{fill:none;stroke:#A66E40;stroke-width:7.5;stroke-linecap:round;stroke-linejoin:round;stroke-miterlimit:10;}
	.st5{fill:#DA4737;}
	.st6{fill:#333333;}
	.st7{fill:#EC407A;}
	.st8{fill:#F58720;}
	.st9{fill:#26B2E7;}
	.st10{fill:#FFFFFF;}
	.st11{fill:none;stroke:#FFFFFF;stroke-width:1.1285;stroke-linecap:round;stroke-linejoin:round;stroke-miterlimit:10;}
	.st12{fill:#099149;}
	.st13{fill:#0D713B;}
	.st14{fill:none;stroke:#FFFFFF;stroke-width:2.25;stroke-linecap:round;stroke-linejoin:round;stroke-miterlimit:10;}
	.st15{fill:#7CB342;}
	.st16{fill:#2B66B1;}
	.st17{fill:#BCE5FA;}
	.st18{fill:#5A4A3D;}
	.st19{fill:#08552D;}
	.st20{fill:#739AAE;}
	.st21{fill:#725D4D;}
	.st22{clip-path:url(#SVGID_2_);}
	.st23{fill:none;stroke:#0B834B;stroke-width:1.2504;stroke-miterlimit:10;}
	.st24{fill:#FECC81;}
	.st25{fill:none;stroke:#D43F2D;stroke-width:6;stroke-miterlimit:10;}
	.st26{fill:#F68B37;stroke:#F68B37;stroke-width:2;stroke-linejoin:round;stroke-miterlimit:10;}
	.st27{fill:#7D6A5A;}
	.st28{fill:#F27BAA;}
	.st29{fill:#FED208;}
	.st30{fill:#692C90;}
	.st31{clip-path:url(#XMLID_3_);fill:#692C90;}
	.st32{fill:#29357F;}
</style>
<g>
	<defs>
		<rect id="XMLID_167_" x="0" y="0" width="62" height="100"/>
	</defs>
	<clipPath id="XMLID_2_">
		<use xlink:href="#XMLID_167_"  style="overflow:visible;"/>
	</clipPath>
	<g class="st0">
		<g>
			<circle class="st1" cx="32.7" cy="34.7" r="13.5"/>
			<path class="st1" d="M30.8,72.7H35c3.8,0,6.9-3.1,6.9-6.9V48.1c0-3.8-3.1-6.9-6.9-6.9h-4.2c-3.8,0-6.9,3.1-6.9,6.9v17.7
				C23.9,69.6,27,72.7,30.8,72.7z"/>
			<path class="st2" d="M29.1,48.9c-15.8,0-18.8-10.8-18.8-10.8"/>
			<path class="st2" d="M34.3,47.1c15.8,0,18.8,10.8,18.8,10.8"/>
			<path class="st2" d="M38,65.5c0.2,18.4,12.5,14.1,8.3,20.3"/>
			<path class="st2" d="M27.7,65.5c-0.2,18.4-12.5,14.1-8.3,20.3"/>
			<circle class="st1" cx="32.5" cy="35" r="1.9"/>
			<circle class="st1" cx="32.5" cy="42.5" r="1.2"/>
			<circle class="st1" cx="32.5" cy="50" r="1.2"/>
			<circle class="st1" cx="32.5" cy="57.5" r="1.2"/>
			<circle class="st1" cx="32.5" cy="65" r="1.2"/>
			<circle class="st1" cx="28.7" cy="31.2" r="1.2"/>
			<circle class="st1" cx="36.2" cy="31.2" r="1.2"/>
		</g>
		<g>
			<circle class="st3" cx="30.5" cy="34.7" r="13.5"/>
			<path class="st3" d="M28.6,72.7h4.2c3.8,0,6.9-3.1,6.9-6.9V48.1c0-3.8-3.1-6.9-6.9-6.9h-4.2c-3.8,0-6.9,3.1-6.9,6.9v17.7
				C21.7,69.6,24.8,72.7,28.6,72.7z"/>
			<path class="st4" d="M32.1,47.1c15.8,0,18.8,10.8,18.8,10.8"/>
			<path class="st4" d="M27.6,48.9c-15.8,0-18.8-10.8-18.8-10.8"/>
			<path class="st4" d="M35.7,65.5c0.2,18.4,12.5,14.1,8.3,20.3"/>
			<path class="st4" d="M25.4,65.5c-0.2,18.4-12.5,14.1-8.3,20.3"/>
			<circle class="st5" cx="30.2" cy="35" r="1.9"/>
			<circle class="st6" cx="30.2" cy="42.5" r="1.9"/>
			<circle class="st7" cx="30.2" cy="50" r="1.2"/>
			<circle class="st8" cx="30.2" cy="57.5" r="1.2"/>
			<circle class="st9" cx="30.2" cy="65" r="1.2"/>
			<circle class="st10" cx="26.5" cy="31.2" r="1.2"/>
			<circle class="st10" cx="34" cy="31.2" r="1.2"/>
			<path class="st11" d="M13.1,38.4l-1.1,0.1c-0.7,0-1.4,0.4-1.7,1.1l0,0c-0.3,0.6-1,1-1.7,1.1h0c-0.7,0-1.4,0.4-1.7,1.1l-0.5,1"/>
			<path class="st11" d="M14.6,40.9l-1.1,0.1c-0.7,0-1.4,0.4-1.7,1.1l0,0c-0.3,0.6-1,1-1.7,1.1h0c-0.7,0-1.4,0.4-1.7,1.1l-0.5,1"/>
			<path class="st11" d="M46.2,57.6l1.1-0.1c0.7,0,1.4-0.4,1.7-1.1h0c0.3-0.6,1-1,1.7-1.1h0c0.7,0,1.4-0.4,1.7-1.1l0.5-1"/>
			<path class="st11" d="M44.6,55.2l1.1-0.1c0.7,0,1.4-0.4,1.7-1.1l0,0c0.3-0.6,1-1,1.7-1.1h0c0.7,0,1.4-0.4,1.7-1.1l0.5-1"/>
			<g>
				<path class="st11" d="M39.8,84.1l1.1-0.4c0.7-0.2,1.2-0.8,1.3-1.5l0,0c0.1-0.7,0.6-1.3,1.3-1.5h0c0.7-0.2,1.2-0.8,1.3-1.5
					l0.2-1.1"/>
				<path class="st11" d="M37.7,82.2l1.1-0.4c0.7-0.2,1.2-0.8,1.3-1.5h0c0.1-0.7,0.6-1.3,1.3-1.5l0,0c0.7-0.2,1.2-0.8,1.3-1.5
					l0.2-1.1"/>
			</g>
			<g>
				<path class="st11" d="M21.8,83.2l-1.1-0.4c-0.7-0.2-1.2-0.8-1.3-1.5v0c-0.1-0.7-0.6-1.3-1.3-1.5h0c-0.7-0.2-1.2-0.8-1.3-1.5
					l-0.2-1.1"/>
				<path class="st11" d="M23.9,81.3l-1.1-0.4c-0.7-0.2-1.2-0.8-1.3-1.5l0,0c-0.1-0.7-0.6-1.3-1.3-1.5h0c-0.7-0.2-1.2-0.8-1.3-1.5
					l-0.2-1.1"/>
			</g>
		</g>
		<path class="st12" d="M43.7,26.6c-11,1.5-20.7-0.6-19.8-3.6c0.8-2.8,13.5-10.5,13.5-10.5S39.1,17.9,43.7,26.6z"/>
		<g>
			<path class="st13" d="M37.4,12.5c0,0,1.7,5.4,6.3,14.1c-0.7,0.1-1.3,0.2-2,0.2c-3.4-6.6-5.3-11.3-6-13.3
				C36.8,12.9,37.4,12.5,37.4,12.5z"/>
		</g>
		<path class="st14" d="M43.7,26.6c-11,1.5-19.2-1.1-20.2-4.2"/>
		<circle class="st10" cx="37.7" cy="12.5" r="2.1"/>
	</g>
	<g class="st0">
		<path class="st15" d="M89,0c0,0-33.5,6.8-40.2,43.4c-7.3,40-37.4,74.1-37.4,74.1l0.3,17.2l10.4,1.9l-0.7-17.3l66.1-56.1L99,0H89z"
			/>
		<polygon class="st16" points="121.5,104.6 417,110.9 417,128.1 292,186.8 21.2,136.5 21.3,119.3 		"/>
		<path class="st17" d="M97.7,59.6l-76.2,59.7l271.2,50.8l125.2-59.6c0,0-94.3-22.1-177.3-34.2S97.7,59.6,97.7,59.6z"/>
		<g>
			<g>
				<rect x="262" y="93" class="st18" width="7" height="29"/>
				<polygon class="st19" points="265.6,15.7 236.4,108 265.6,108 294.8,108 				"/>
				<polygon class="st20" points="262,108 269,108 269,111.7 262,109.4 				"/>
			</g>
			<g>
				<rect x="326" y="96" class="st21" width="8" height="41"/>
				<polygon class="st13" points="329.9,9.6 295.6,118 329.9,118 364.2,118 				"/>
				<g>
					<defs>
						<polygon id="SVGID_1_" points="329.9,9.6 295.6,118 329.9,118 364.2,118 						"/>
					</defs>
					<clipPath id="SVGID_2_">
						<use xlink:href="#SVGID_1_"  style="overflow:visible;"/>
					</clipPath>
					<g class="st22">
						<g>
							<polyline class="st23" points="366.5,33.2 329.9,69.8 293.3,33.2 							"/>
							<polyline class="st23" points="366.5,57.6 329.9,94.2 293.3,57.6 							"/>
							<polyline class="st23" points="366.5,81.9 329.9,118.5 293.3,81.9 							"/>
						</g>
						<g>
							<polyline class="st23" points="366.5,-39.8 329.9,-3.2 293.3,-39.8 							"/>
							<polyline class="st23" points="366.5,-15.5 329.9,21.1 293.3,-15.5 							"/>
							<polyline class="st23" points="366.5,8.9 329.9,45.5 293.3,8.9 							"/>
						</g>
					</g>
				</g>
				<polygon class="st20" points="326,118 334,118 334,123.9 326,120.3 				"/>
			</g>
		</g>
		<g>
			<polygon class="st8" points="166.2,189.6 60.3,170.5 75.3,155.5 90.1,140.5 196,159.6 196,178 			"/>
			<polygon class="st24" points="166.5,189.6 60.4,170.5 90.4,140.5 196.5,159.6 			"/>
		</g>
		<g>
			<path class="st25" d="M311.6,46.5c6.5,0.9,10.2,13.5,21.2,16.6"/>
			<path class="st25" d="M311.6,46.5c5.5-2.8,7.2-4.7,12.5-2.2c5.3,2.5,18,4.8,18,4.8"/>
			<circle class="st10" cx="294.9" cy="117.6" r="32.4"/>
			<ellipse class="st10" cx="294.9" cy="69.7" rx="25.5" ry="25.5"/>
			<path class="st25" d="M277.8,47.6c0,0-1.4-0.1-1.4,2.9s19.6,7.4,26.4,5.5s10.1-6.9,8.5-7.8l-3.5-2.9L277.8,47.6z"/>
			<circle class="st10" cx="294.9" cy="32.4" r="21.9"/>
			<polygon class="st26" points="295,30.1 280.1,34.4 295,35.6 			"/>
			<ellipse class="st27" cx="303.3" cy="26" rx="1.8" ry="1.2"/>
			<ellipse class="st27" cx="283.3" cy="26" rx="1.8" ry="1.2"/>
			<g>
				<g>
					<circle class="st28" cx="262.9" cy="69.7" r="8.1"/>
					<path class="st29" d="M254.7,70c0,6,8.1,15.1,8.1,15.1S271,76,271,70H254.7z"/>
				</g>
			</g>
		</g>
		<g>
			<ellipse class="st10" cx="224.9" cy="109.7" rx="25.5" ry="25.5"/>
			<circle class="st10" cx="224.9" cy="72.4" r="21.9"/>
			<polygon class="st26" points="225,70.1 210.1,74.4 225,75.6 			"/>
			<ellipse class="st27" cx="233.3" cy="66" rx="1.8" ry="1.2"/>
			<ellipse class="st27" cx="213.3" cy="66" rx="1.8" ry="1.2"/>
		</g>
		<g>
			<circle class="st10" cx="164.9" cy="102.4" r="21.9"/>
			<polygon class="st26" points="165,100.1 150.1,104.4 165,105.6 			"/>
			<ellipse class="st27" cx="173.3" cy="96" rx="1.8" ry="1.2"/>
			<ellipse class="st27" cx="153.3" cy="96" rx="1.8" ry="1.2"/>
		</g>
		<g>
			<g>
				<path class="st10" d="M103.2,107H70.9c0-9,7.2-16.1,16.1-16.1S103.2,98,103.2,107z"/>
			</g>
			<path class="st10" d="M76.7,102.9c-4.2-0.6-8.9-1-12.3,1.5c-1.3,1-2.4,2.5-2.1,4.2c0.2,1.7,1.8,2.8,3.4,3.3
				c1.6,0.5,3.3,0.4,5,0.6c0.7,0.1,1.5,0.2,2.1,0.6c0.7,0.5,1.1,1.2,1.6,1.9c1.8,2.6,4.9,4.3,8.1,4.7c3.2,0.4,6.4-0.5,9.1-2.2
				c1.4-0.9,2.7-2,4.2-2.6c3.8-1.5,8.1,0.5,12.1-0.4c2.4-0.5,4.5-2.1,5.7-4.2c0.8-1.5,1.2-3.5,0-4.8c-0.8-0.9-2.2-1.2-2.7-2.4
				c-0.5-1.2,0.4-2.5,0-3.7c-0.2-0.5-0.6-0.9-1.1-1.3c-2.7-2.1-6.4-2.8-9.6-1.8c-2.8,0.8-5.2,2.8-8,3.6c-2.6,0.7-5.5,0.4-8.2,0.4
				c-2.8,0-5.7,0.4-7.8,2.2c0.7,0,1.4-0.1,2.1-0.1"/>
		</g>
		<polygon class="st26" points="79,109.1 64.1,113.4 79,114.6 		"/>
		<ellipse class="st27" cx="53.3" cy="114" rx="1.8" ry="1.2"/>
		<ellipse class="st27" cx="73.3" cy="120" rx="1.8" ry="1.2"/>
		<g>
			<circle class="st10" cx="107.5" cy="100.3" r="4.8"/>
			<circle class="st10" cx="117.5" cy="100.6" r="4.8"/>
			<circle class="st10" cx="128.1" cy="101" r="4.8"/>
			<circle class="st10" cx="112.5" cy="92.5" r="4.8"/>
			<circle class="st10" cx="123.1" cy="92.8" r="4.8"/>
			<circle class="st10" cx="118" cy="85.2" r="4.8"/>
		</g>
		<path class="st10" d="M99,1c0,0-33.3,6.3-40,42.9c-7.3,40-37.4,75.4-37.4,75.4l76-55.6L99,1z"/>
	</g>
	<g class="st0">
		<g>
			<g>
				<path class="st30" d="M-145.5,9.4c0,0,1.1-0.1,3.2-0.3c2.1-0.1,5.1-0.4,9-0.4c1.9,0,4.1-0.1,6.4,0c2.3,0,4.9,0.1,7.5,0.2
					c5.4,0.2,11.5,0.6,18,1.4c3.3,0.3,6.7,0.7,10.2,1.1c3.5,0.4,7.1,1,10.9,1.5c7.4,1,15.2,2.1,23.2,3.2c4,0.5,8,1.1,12.1,1.6
					c4.1,0.4,8.2,1,12.4,1.3c1,0.1,2.1,0.2,3.1,0.3c1,0.1,2.1,0.1,3.1,0.2l3.1,0.2l0.8,0.1l0.2,0l0.1,0c-0.2,0,0,0,0,0l0.4,0
					l1.6,0.1c2.1,0.1,4.4,0.3,6.4,0.3c2.1,0,4.1,0.1,6.2,0.1c8.4,0.2,16.8-0.1,25.1-0.6c4.1-0.3,8.3-0.6,12.3-1
					c4.1-0.4,8.1-0.9,12-1.4c7.9-1,15.6-2.2,22.8-3.5c3.6-0.6,7.1-1.4,10.5-2.1c1.7-0.3,3.4-0.7,5-1c1.7-0.4,3.3-0.7,4.9-1
					c3.2-0.7,6.3-1.4,9.2-2c3-0.6,5.8-1.1,8.5-1.5c5.4-0.9,10.1-1.3,14-1.5c3.9-0.2,7,0,9.1,0.1c2.1,0.2,3.2,0.3,3.2,0.3l0.1,0
					c0.3,0,0.5,0.3,0.4,0.6c0,0.2-0.2,0.4-0.5,0.4c0,0-1.1,0.1-3.1,0.2c-2,0.2-5,0.4-8.7,1.1c-3.7,0.6-8.2,1.6-13.4,3
					C99,11.9,93.3,13.7,87,15.6c-12.5,3.8-27.3,7.7-43.5,10.5c-16.1,2.8-33.6,4.4-51.1,4.2c-4.4-0.1-8.8-0.2-13.1-0.5
					c-2.2-0.1-4.4-0.3-6.5-0.5c-1.1-0.1-2.2-0.2-3.2-0.3c-1.1-0.1-2.1-0.3-3.2-0.4c-8.6-1-16.9-2.3-25-3.8
					c-16.1-2.9-31-6.2-43.9-8.5c-1.6-0.3-3.2-0.6-4.7-0.9c-1.5-0.3-3-0.5-4.5-0.8c-2.9-0.5-5.7-1-8.3-1.4c-2.6-0.4-5.1-0.7-7.4-1
					c-2.3-0.3-4.4-0.6-6.3-0.8c-3.8-0.4-6.8-0.7-8.8-0.8c-2-0.2-3.1-0.2-3.1-0.2c-0.3,0-0.5-0.3-0.5-0.5
					C-146,9.6-145.8,9.4-145.5,9.4L-145.5,9.4z"/>
			</g>
			<g>
				<path class="st30" d="M-129.6-3c0,0,0.9,0.1,2.7,0.3c1.7,0.2,4.3,0.4,7.6,0.8c3.3,0.3,7.2,0.6,11.7,0.8c2.2,0.1,4.6,0.2,7.1,0.2
					c2.5,0,5.2,0,8,0c2.7-0.1,5.5-0.2,8.4-0.3c1.5-0.1,2.9-0.2,4.4-0.3c1.5-0.1,3-0.2,4.6-0.4c1.5-0.2,3.1-0.4,4.7-0.5
					c1.6-0.1,3.1-0.5,4.7-0.7c0.8-0.1,1.6-0.3,2.4-0.4c0.8-0.1,1.6-0.2,2.4-0.4c1.6-0.3,3.2-0.6,4.9-1c1.6-0.3,3.3-0.8,4.9-1.1
					c1.6-0.4,3.3-0.7,5-1.2c3.3-1,6.6-1.8,9.9-3c3.3-1,6.5-2.4,9.8-3.6c1.6-0.7,3.2-1.4,4.8-2.1l2.4-1.1l2.3-1.2
					c6.4-2.9,12.3-6.6,18.1-10.3c1.4-1,2.8-2,4.2-2.9c1.4-1,2.7-2.1,4-3.1c0.7-0.5,1.3-1,2-1.5c0.6-0.5,1.4-1.1,2-1.7
					c1.3-1.1,2.7-2.2,4-3.4c5.4-4.6,11.3-9.4,18.3-12.5l1.3-0.6l0.4-0.2l0.1,0l0.3-0.1l0.6-0.2c0.8-0.3,1.5-0.5,2.3-0.8
					c1.9-0.5,3.8-1.1,5.5-1.3c3.4-0.6,6.8-0.7,9.9-0.6c6.2,0.3,11.6,1.6,16.2,3.1c4.6,1.4,8.3,3.2,11.3,4.6c3,1.5,5.3,2.9,6.8,3.8
					c1.5,0.9,2.3,1.5,2.3,1.5l0.1,0c0.2,0.2,0.3,0.5,0.1,0.7c-0.1,0.2-0.4,0.3-0.6,0.2c0,0-0.9-0.3-2.5-1c-1.6-0.6-4-1.5-7.1-2.5
					c-3.1-1-6.9-2.1-11.4-2.9c-4.4-0.8-9.5-1.5-15.1-1.2c-2.8,0.2-5.6,0.5-8.5,1.2c-1.5,0.3-2.8,0.8-4.3,1.3
					c-0.7,0.3-1.4,0.6-2.2,0.9c-0.3,0.2-0.8,0.3-1.1,0.5l-1,0.5c-5.6,2.9-10.7,7.4-15.8,12.2c-2.6,2.4-5.1,4.9-8,7.2
					c-1.4,1.2-2.8,2.4-4.2,3.5c-1.5,1.1-3,2.2-4.5,3.3C0.7-16.3-5.8-12.3-12.6-9.1l-2.5,1.2l-2.6,1.1c-1.7,0.7-3.5,1.5-5.2,2.2
					C-26.5-3.4-30-2-33.5-1c-0.9,0.3-1.8,0.5-2.7,0.8l-1.3,0.4l-1.3,0.3c-1.8,0.4-3.6,0.9-5.3,1.3c-1.8,0.5-3.5,0.7-5.3,1.1
					c-1.8,0.3-3.5,0.7-5.3,0.9c-1.7,0.2-3.5,0.5-5.2,0.7c-1.7,0.3-3.4,0.3-5.1,0.5c-3.4,0.4-6.7,0.5-9.9,0.6
					c-1.6,0.1-3.2,0.1-4.8,0.1c-1.6,0-3.1,0-4.6,0c-3-0.1-6-0.3-8.8-0.5c-2.8-0.3-5.4-0.5-8-0.9c-2.5-0.4-5-0.7-7.2-1.1
					c-4.5-0.8-8.4-1.7-11.6-2.5c-3.2-0.8-5.7-1.5-7.4-2c-1.7-0.5-2.6-0.8-2.6-0.8c-0.3-0.1-0.4-0.4-0.3-0.6
					C-130.2-2.9-129.9-3.1-129.6-3L-129.6-3z"/>
			</g>
			<g>
				<path class="st30" d="M-144.8-0.3c0,0,1.2,0.1,3.5,0.4c1.2,0.1,2.6,0.3,4.2,0.5c1.7,0.2,3.6,0.4,5.7,0.7c4.3,0.6,9.5,1.2,15.4,2
					c3,0.4,6.1,0.8,9.4,1.2c1.7,0.2,3.4,0.4,5.1,0.6c1.7,0.2,3.5,0.4,5.3,0.6c3.6,0.4,7.4,0.7,11.3,1.1c2,0.1,3.9,0.3,5.9,0.5
					c2,0.1,4,0.3,6.1,0.4c8.3,0.5,16.9,0.7,25.8,0.5c4.4-0.1,8.9-0.3,13.5-0.7c1.1-0.1,2.3-0.2,3.4-0.3l1.7-0.2l0.2,0l0.1,0
					c0.1,0-0.2,0,0,0l0.4-0.1l0.9-0.1c1.2-0.1,2.4-0.3,3.6-0.4c1.2-0.1,2.4-0.3,3.5-0.5c1.1-0.2,2.2-0.3,3.4-0.5
					c1.1-0.2,2.2-0.3,3.4-0.6l3.5-0.6C-8.3,4.1-7.1,3.9-6,3.7c4.6-0.9,9.2-2,13.8-3.2c9.2-2.3,18.4-5.1,27.4-8.1
					C37.5-8.3,39.7-9,42-9.8c2.2-0.8,4.4-1.5,6.6-2.3c2.2-0.8,4.4-1.6,6.5-2.4c2.2-0.8,4.3-1.6,6.5-2.4c8.6-3.2,16.9-6.3,24.8-9.3
					c4.1-1.5,8.1-2.9,12.2-3.9c2-0.5,4.1-1,6.1-1.4c1-0.2,2-0.3,3-0.5c0.5-0.1,1-0.1,1.5-0.2l0.9-0.1l0.7-0.1
					c0.9-0.1,1.8-0.2,2.8-0.2c1,0,2-0.1,3-0.1c1.9,0,3.7,0,5.5,0.1c3.6,0.3,6.9,0.7,9.9,1.2c6.1,1,11.3,2.6,15.4,3.8
					c4.2,1.2,7.4,2.5,9.6,3.2c2.2,0.8,3.3,1.3,3.3,1.3l0.1,0c0.3,0.1,0.4,0.4,0.3,0.6c-0.1,0.2-0.3,0.4-0.6,0.3c0,0-1.2-0.3-3.4-0.8
					c-2.2-0.5-5.5-1.2-9.8-2c-4.2-0.8-9.4-1.7-15.3-2.1c-3-0.3-6.1-0.3-9.5-0.3c-1.7,0-3.4,0.1-5.1,0.3c-0.9,0.1-1.7,0.2-2.6,0.3
					c-0.9,0.1-1.8,0.3-2.7,0.4c-7.2,1.2-14.7,3.9-22.4,7.2C81.7-15.8,73.5-12.2,65-8.7c-17,7-35.5,14-54.7,18.9
					c-9.6,2.4-19.3,4.3-28.9,5.5c-9.6,1.2-19.2,1.6-28.5,1.5c-9.2-0.1-18.2-0.8-26.6-1.8c-8.4-1-16.3-2.3-23.6-3.6
					c-7.3-1.3-13.9-2.8-19.7-4.1C-122.7,6.3-127.8,5-132,4c-4.2-1.1-7.4-1.9-9.7-2.5c-2.2-0.6-3.4-0.9-3.4-0.9
					c-0.3-0.1-0.4-0.3-0.4-0.6C-145.4-0.2-145.1-0.4-144.8-0.3L-144.8-0.3z"/>
			</g>
			<g>
				<path class="st30" d="M-135.7,18.7c0,0,0.9-0.2,2.6-0.5c0.8-0.1,1.9-0.3,3.1-0.5c0.6-0.1,1.3-0.2,2-0.3c0.7-0.1,1.5-0.2,2.3-0.3
					c1.6-0.2,3.4-0.4,5.3-0.6c1.9-0.2,4-0.3,6.3-0.4c4.5-0.2,9.6-0.4,15.2-0.2c2.8,0,5.7,0.3,8.7,0.4c1.5,0.1,3,0.2,4.6,0.4
					c1.5,0.2,3.1,0.3,4.7,0.5c6.3,0.8,13,1.8,19.8,3.3c3.4,0.7,6.9,1.6,10.4,2.5c3.5,0.9,7,1.9,10.5,3.1c7,2.2,14,5,20.9,7.9
					l5.1,2.4l2.6,1.2l2.4,1.2c3.4,1.6,6.5,3.4,9.7,5c3.1,1.6,6.2,3.2,9.2,4.8c3,1.5,6,2.9,8.9,4.3c1.5,0.7,2.9,1.3,4.3,1.9l1.1,0.4
					l0.1,0.1l0.1,0c0,0-0.1,0,0,0l0.3,0.1l0.6,0.2c0.8,0.3,1.6,0.6,2.2,0.8c1.3,0.5,2.7,1,4.1,1.4c1.4,0.4,2.8,0.8,4.2,1.1
					c5.5,1.3,10.8,2,15.7,1.9c2.4,0,4.8-0.3,7-0.6c0.6-0.1,1.1-0.2,1.6-0.3c0.3-0.1,0.5-0.1,0.8-0.2l0.2,0l0,0c-0.2,0.1,0,0-0.1,0
					l0.1,0l0.4-0.1c0.3-0.1,0.6-0.2,0.8-0.2c0.2-0.1,0.5-0.1,0.7-0.2c0.4-0.1,0.9-0.3,1.3-0.5c3.6-1.4,6.6-3.3,8.6-5.3
					c2-2,3-4.1,3.4-5.6c0.1-0.4,0.2-0.7,0.3-1c0-0.3,0.1-0.6,0.1-0.8c0.1-0.4,0.1-0.6,0.1-0.6l0-0.2c0-0.3,0.3-0.4,0.6-0.4
					c0.2,0,0.4,0.2,0.4,0.5c0,0,0,0.2,0,0.7c0,0.2,0,0.5,0,0.8c0,0.3,0,0.7-0.1,1.2c-0.2,1.7-0.8,4.4-2.6,7.1
					c-1.8,2.7-4.8,5.5-8.7,7.7c-4,2.2-8.9,3.7-14.3,4.4c-5.5,0.7-11.5,0.6-17.7-0.4c-6.2-1-12.6-2.9-19-5.3
					C8.7,58.5,2.4,55.4-4,52.3c-3.2-1.6-6.4-3.1-9.6-4.7c-3.2-1.6-6.5-3-9.8-4.5c-6.6-2.9-13.3-5.6-20-7.9
					c-6.7-2.3-13.4-4.4-19.9-6.1c-6.5-1.8-12.9-3.1-19-4.3c-6.1-1.1-11.9-2.1-17.3-2.7c-2.7-0.3-5.3-0.7-7.7-0.9
					c-2.5-0.2-4.8-0.5-7-0.6c-2.2-0.1-4.2-0.3-6.1-0.4c-1.9-0.1-3.6-0.1-5.2-0.2c-1.6-0.1-3-0.1-4.2-0.1c-1.2,0-2.3,0-3.1,0
					c-1.7,0-2.6,0-2.6,0c-0.3,0-0.5-0.2-0.5-0.5C-136.2,19-136,18.8-135.7,18.7L-135.7,18.7z"/>
			</g>
			<g>
				<path class="st30" d="M124-43.1c0,0-1,0.3-2.9,0.8c-1.9,0.5-4.7,1.2-8.2,2c-3.5,0.8-7.8,1.8-12.7,3c-2.4,0.6-5,1.2-7.7,1.9
					c-2.7,0.7-5.6,1.4-8.5,2.2c-1.5,0.4-3,0.8-4.5,1.3c-1.5,0.5-3,0.9-4.6,1.4c-3.1,1-6.3,2-9.5,3.2c-1.6,0.6-3.2,1.2-4.8,1.8
					c-1.5,0.6-3.4,1.4-4.9,2.1c-3.1,1.4-6.6,2.9-9.9,4.6c-3.4,1.7-6.8,3.4-10.4,5.2c-1.8,0.9-3.5,1.8-5.3,2.7
					C28.1-10,26.3-9,24.5-8.1C17.2-4.4,9.4-0.8,1.4,2.3l-3.1,1.1l-0.8,0.3l-0.9,0.3l-1.5,0.5c-2,0.6-3.9,1.3-5.9,1.9
					C-13,7-15.1,7.6-17.3,8.2c-1.1,0.3-2.1,0.5-3.2,0.7c-1.1,0.2-2.1,0.4-3.1,0.7c-8.4,1.7-16.7,2.8-24.8,3.1c-1,0.1-2,0.1-3,0.2
					c-1,0-2,0-3,0.1c-2,0-3.9,0-5.9,0c-3.9-0.2-7.6-0.2-11.3-0.6C-78.9,12-85.7,10.8-92,9.7c-1.6-0.2-3.1-0.6-4.6-0.9
					c-1.5-0.3-2.9-0.6-4.3-0.9c-2.8-0.7-5.4-1.4-7.9-2c-2.5-0.7-4.8-1.4-6.9-2c-2.1-0.7-4-1.4-5.8-2c-3.5-1.1-6.1-2.3-8-3
					c-1.8-0.7-2.8-1.2-2.8-1.2l-0.1,0c-0.3-0.1-0.4-0.4-0.3-0.7c0.1-0.2,0.3-0.3,0.6-0.3c0,0,1,0.2,2.9,0.7c1.9,0.4,4.6,1.1,8.2,1.8
					c1.8,0.3,3.7,0.8,5.9,1.2c2.1,0.4,4.5,0.8,6.9,1.2c2.5,0.4,5.1,0.7,7.9,1.1c2.8,0.3,5.7,0.7,8.8,1c1.5,0.1,3.1,0.3,4.7,0.4
					c0.8,0.1,1.6,0.1,2.4,0.2c0.8,0,1.6,0.1,2.5,0.1c1.7,0.1,3.4,0.2,5.1,0.3c1.7,0,3.5,0.1,5.2,0.1c3.5,0.1,7.2-0.1,10.9-0.1
					c1.9-0.1,3.7-0.2,5.6-0.3c0.9-0.1,1.9-0.1,2.9-0.2c1-0.1,1.9-0.2,2.9-0.3c1.9-0.2,3.9-0.3,5.8-0.6c1.9-0.3,3.9-0.5,5.9-0.8
					c2-0.3,3.9-0.7,5.9-1c1-0.2,2-0.4,3-0.6c1-0.2,2-0.5,3-0.7c1-0.2,2-0.5,3-0.7c1-0.2,2-0.5,3-0.7c2-0.5,3.9-1.1,5.9-1.7
					c2-0.6,3.9-1.3,5.9-1.9l1.5-0.5l0.7-0.2l0.7-0.3L-2.2-7c15.4-5.9,30-13.8,44.3-19.9c7.2-3.1,14.2-5.8,21.1-7.7
					c6.9-2,13.5-3.5,19.6-4.6c6.1-1.1,11.8-1.9,16.8-2.5c5-0.6,9.4-1,13-1.4c7.2-0.7,11.3-1,11.3-1c0.3,0,0.5,0.2,0.5,0.4
					C124.4-43.4,124.3-43.2,124-43.1L124-43.1z"/>
			</g>
		</g>
		<g>
			<defs>
				<path id="XMLID_168_" d="M-72.3-0.5c-0.2-0.4-0.6-0.6-1-0.8c-1.9-0.8-3.8-1.4-5.6-2.2c-9.2-3.8-16.9-10.6-25.1-16.3
					s-17.6-10.8-27.6-10.4c-3,0.1-6.1,0.8-8.8,2.3l-2.4-16.1c-18.8-7-47.5-9.8-74.4-8.8c-18.6-0.9-37.4,2.1-55,9.2
					c-1.7,0.7-3.3,1.3-5,2c-16.4,6.6-31.5,16.3-44.3,28.4l-49.9,47.3l5.3,10.3l0.8-0.3l0.2,0.3l34.8-12.3c15.9-5.6,32.3-9.6,49-11.9
					l1.9-0.3c25.5-3.5,43.2-0.3,71,5.3l18.7,3.7c0.1,0,0.3,0.1,0.4,0.1c15.9,3.1,32.1,1.2,48.2-0.8c2.2-0.2,4.4-0.4,6.6-0.6
					l44.3-5.1l-0.3-4.8c0.4-0.2,0.9-0.3,1.3-0.5c7.2-3.2,12.8-9.5,16.5-16.5C-72.3,0.3-72.1-0.1-72.3-0.5z"/>
			</defs>
			<use xlink:href="#XMLID_168_"  style="overflow:visible;fill:#863B96;"/>
			<clipPath id="XMLID_3_">
				<use xlink:href="#XMLID_168_"  style="overflow:visible;"/>
			</clipPath>
			<path class="st31" d="M-72.3,7.5c-0.2-0.4-0.6-0.6-1-0.8c-1.9-0.8-3.8-1.4-5.6-2.2C-88.2,0.7-95.8-6.1-104-11.8
				s-17.6-10.8-27.6-10.4c-3,0.1-6.1,0.8-8.8,2.3l-2.4-16.1c-18.8-7-47.5-9.8-74.4-8.8c-18.6-0.9-37.4,2.1-55,9.2
				c-1.7,0.7-3.3,1.3-5,2c-16.4,6.6-31.5,16.3-44.3,28.4l-49.9,47.3l5.3,10.3l0.8-0.3l0.2,0.3l34.8-12.3c15.9-5.6,32.3-9.6,49-11.9
				l1.9-0.3c25.5-3.5,43.2-0.3,71,5.3l18.7,3.7c0.1,0,0.3,0.1,0.4,0.1c15.9,3.1,32.1,1.2,48.2-0.8c2.2-0.2,4.4-0.4,6.6-0.6l44.3-5.1
				l-0.3-4.8c0.4-0.2,0.9-0.3,1.3-0.5c7.2-3.2,12.8-9.5,16.5-16.5C-72.3,8.3-72.1,7.9-72.3,7.5z"/>
		</g>
		<path class="st30" d="M-368.6,37l-2.3-10.8c-0.6-2.9-4.3-3.7-6.1-1.5l-23.3,28.9c-2,2.5,0.1,6.1,3.2,5.6l35.5-5.1
			c2.7-0.4,3.9-3.6,2.1-5.7l-8.5-10C-368.2,38.1-368.5,37.6-368.6,37z"/>
		<circle class="st32" cx="-137.7" cy="-6.3" r="7.5"/>
	</g>
</g>
</svg>
