<?xml version="1.0" encoding="utf-8"?>
<!-- Generator: Adobe Illustrator 19.1.0, SVG Export Plug-In . SVG Version: 6.00 Build 0)  -->
<svg version="1.1" id="Layer_1" xmlns="http://www.w3.org/2000/svg" xmlns:xlink="http://www.w3.org/1999/xlink" x="0px" y="0px"
	 viewBox="0 0 69 90" style="enable-background:new 0 0 69 90;" xml:space="preserve">
<style type="text/css">
	.st0{clip-path:url(#XMLID_2_);}
	.st1{fill:#80441D;}
	.st2{fill:none;stroke:#80441D;stroke-width:7.5;stroke-linecap:round;stroke-linejoin:round;stroke-miterlimit:10;}
	.st3{fill:#A66E40;}
	.st4{fill:none;stroke:#A66E40;stroke-width:7.5;stroke-linecap:round;stroke-linejoin:round;stroke-miterlimit:10;}
	.st5{fill:#DA4737;}
	.st6{fill:#333333;}
	.st7{fill:#EC407A;}
	.st8{fill:#F58720;}
	.st9{fill:#26B2E7;}
	.st10{fill:#FFFFFF;}
	.st11{fill:none;stroke:#FFFFFF;stroke-width:1.1285;stroke-linecap:round;stroke-linejoin:round;stroke-miterlimit:10;}
	.st12{fill:#099149;}
	.st13{fill:#0D713B;}
	.st14{fill:none;stroke:#FFFFFF;stroke-width:2.25;stroke-linecap:round;stroke-linejoin:round;stroke-miterlimit:10;}
	.st15{fill:#998676;}
	.st16{fill:#5D4137;}
	.st17{fill:none;stroke:#5D4137;stroke-width:5.25;stroke-miterlimit:10;}
	.st18{fill:#7CB342;}
	.st19{fill:#E53A35;}
	.st20{fill:#F7BF1A;}
	.st21{fill:#CC2128;}
</style>
<g>
	<defs>
		<rect id="XMLID_166_" x="0" y="0" width="69" height="90"/>
	</defs>
	<clipPath id="XMLID_2_">
		<use xlink:href="#XMLID_166_"  style="overflow:visible;"/>
	</clipPath>
	<g class="st0">
		<g>
			<circle class="st1" cx="36.9" cy="28" r="13.5"/>
			<path class="st1" d="M38.8,66h-4.2c-3.8,0-6.9-3.1-6.9-6.9V41.4c0-3.8,3.1-6.9,6.9-6.9h4.2c3.8,0,6.9,3.1,6.9,6.9v17.7
				C45.7,63,42.6,66,38.8,66z"/>
			<path class="st2" d="M40.5,42.2c15.8,0,18.8-10.8,18.8-10.8"/>
			<path class="st2" d="M35.4,40.4c-15.8,0-18.8,10.8-18.8,10.8"/>
			<path class="st2" d="M31.7,58.8C31.5,77.2,19.2,73,23.4,79.2"/>
			<path class="st2" d="M42,58.8c0.2,18.4,12.5,14.1,8.3,20.3"/>
			<circle class="st1" cx="37.2" cy="28.3" r="1.9"/>
			<circle class="st1" cx="37.2" cy="35.8" r="1.2"/>
			<circle class="st1" cx="37.2" cy="43.3" r="1.2"/>
			<circle class="st1" cx="37.2" cy="50.8" r="1.2"/>
			<circle class="st1" cx="37.2" cy="58.3" r="1.2"/>
			<circle class="st1" cx="41" cy="24.6" r="1.2"/>
			<circle class="st1" cx="33.5" cy="24.6" r="1.2"/>
		</g>
		<g>
			<circle class="st3" cx="39.2" cy="28" r="13.5"/>
			<path class="st3" d="M41.1,66h-4.2C33.1,66,30,63,30,59.1V41.4c0-3.8,3.1-6.9,6.9-6.9h4.2c3.8,0,6.9,3.1,6.9,6.9v17.7
				C48,63,44.9,66,41.1,66z"/>
			<path class="st4" d="M37.6,40.4c-15.8,0-18.8,10.8-18.8,10.8"/>
			<path class="st4" d="M42,42.2c15.8,0,18.8-10.8,18.8-10.8"/>
			<path class="st4" d="M34,58.8C33.8,77.2,21.4,73,25.6,79.2"/>
			<path class="st4" d="M44.3,58.8c0.2,18.4,12.5,14.1,8.3,20.3"/>
			<circle class="st5" cx="39.5" cy="28.3" r="1.9"/>
			<circle class="st6" cx="39.5" cy="35.8" r="1.9"/>
			<circle class="st7" cx="39.5" cy="43.3" r="1.2"/>
			<circle class="st8" cx="39.5" cy="50.8" r="1.2"/>
			<circle class="st9" cx="39.5" cy="58.3" r="1.2"/>
			<circle class="st10" cx="43.2" cy="24.6" r="1.2"/>
			<circle class="st10" cx="35.7" cy="24.6" r="1.2"/>
			<path class="st11" d="M56.6,31.7l1.1,0.1c0.7,0,1.4,0.4,1.7,1.1v0c0.3,0.6,1,1,1.7,1.1l0,0c0.7,0,1.4,0.4,1.7,1.1l0.5,1"/>
			<path class="st11" d="M55,34.2l1.1,0.1c0.7,0,1.4,0.4,1.7,1.1v0c0.3,0.6,1,1,1.7,1.1h0c0.7,0,1.4,0.4,1.7,1.1l0.5,1"/>
			<path class="st11" d="M23.5,51l-1.1-0.1c-0.7,0-1.4-0.4-1.7-1.1h0c-0.3-0.6-1-1-1.7-1.1h0c-0.7,0-1.4-0.4-1.7-1.1l-0.5-1"/>
			<path class="st11" d="M25,48.5l-1.1-0.1c-0.7,0-1.4-0.4-1.7-1.1h0c-0.3-0.6-1-1-1.7-1.1h0c-0.7,0-1.4-0.4-1.7-1.1l-0.5-1"/>
			<g>
				<path class="st11" d="M29.8,77.4L28.7,77c-0.7-0.2-1.2-0.8-1.3-1.5l0,0c-0.1-0.7-0.6-1.3-1.3-1.5h0c-0.7-0.2-1.2-0.8-1.3-1.5
					l-0.2-1.1"/>
				<path class="st11" d="M32,75.5l-1.1-0.4c-0.7-0.2-1.2-0.8-1.3-1.5l0,0c-0.1-0.7-0.6-1.3-1.3-1.5h0c-0.7-0.2-1.2-0.8-1.3-1.5
					l-0.2-1.1"/>
			</g>
			<g>
				<path class="st11" d="M47.9,76.6l1.1-0.4c0.7-0.2,1.2-0.8,1.3-1.5v0c0.1-0.7,0.6-1.3,1.3-1.5h0c0.7-0.2,1.2-0.8,1.3-1.5l0.2-1.1
					"/>
				<path class="st11" d="M45.7,74.6l1.1-0.4c0.7-0.2,1.2-0.8,1.3-1.5l0,0c0.1-0.7,0.6-1.3,1.3-1.5h0c0.7-0.2,1.2-0.8,1.3-1.5
					l0.2-1.1"/>
			</g>
		</g>
		<path class="st12" d="M25.9,19.9c11,1.5,20.7-0.6,19.8-3.6C44.9,13.5,32.3,5.8,32.3,5.8S30.5,11.2,25.9,19.9z"/>
		<g>
			<path class="st13" d="M32.3,5.8c0,0-1.7,5.4-6.3,14.1c0.7,0.1,1.3,0.2,2,0.2c3.4-6.6,5.3-11.3,6-13.3C32.9,6.2,32.3,5.8,32.3,5.8
				z"/>
		</g>
		<path class="st14" d="M25.9,19.9c11,1.5,19.2-1.1,20.2-4.2"/>
		<circle class="st10" cx="32" cy="5.8" r="2.1"/>
	</g>
	<g class="st0">
		<path class="st15" d="M16.1-14.4L25,30.2c0.4,2.1,0.5,4.3,0.3,6.5l-5.6,50.4l0,0c-13.4,2.5-27.2,2.5-40.7,0l0,0l-5.6-51.3
			c-0.1-1.5-0.1-3.1,0.2-4.6l9.1-45.6l16.6-3.3L16.1-14.4z"/>
		<g>
			<path class="st15" d="M-17.2-17.5l-7.5,19.2l24.1-4.5l24,4.5l-7.5-19.3c0,0-5.9-9.1-16.6-9.1S-17.2-17.5-17.2-17.5z"/>
			<path class="st16" d="M14.9,60.5l0.1-0.2c0,0-6.3,4.5-15.6,4.5s-14.8-4.5-14.8-4.5C-5.7,71.1,5.4,71.2,14.9,60.5z"/>
			<path class="st16" d="M-0.5,43h-6.4c0,0,3.6-47.7,3.1-47.7c-29,0-22,13.1-16.5,19.3c3.2,3.5,7.2-3.8,10.9-1.4
				c3.7,2.5-1.5,32.9-1.5,32.9l3.1,5c1.7,2.5,4.3,4,7.3,4v0l0,0l0,0v0c3,0,5.5-1.5,7.2-4l3.1-5c0,0-5.2-30.4-1.5-32.9
				c3.7-2.5,7.7,4.8,10.8,1.3C24.6,8.3,31.5-4.7,2.6-4.7C2.1-4.7,5.7,43,5.7,43H-0.5z"/>
		</g>
		<path class="st17" d="M-11.7-0.8c0,0,4.6-1.9,11.6-1.9s11.6,1.9,11.6,1.9"/>
	</g>
	<g class="st0">
		<g>
			<g>
				<g>
					<g>
						<circle class="st12" cx="82.6" cy="75.8" r="12.3"/>
						<circle class="st12" cx="82.6" cy="150.6" r="12.3"/>
					</g>
					<g>
						<circle class="st12" cx="109" cy="86.8" r="12.3"/>
						<circle class="st12" cx="56.1" cy="139.7" r="12.3"/>
					</g>
					<g>
						<circle class="st12" cx="109" cy="86.8" r="12.3"/>
						<circle class="st12" cx="56.1" cy="139.7" r="12.3"/>
					</g>
					<g>
						<circle class="st12" cx="120" cy="113.2" r="12.3"/>
						<circle class="st12" cx="45.2" cy="113.2" r="12.3"/>
					</g>
					<g>
						<circle class="st12" cx="109" cy="139.7" r="12.3"/>
						<circle class="st12" cx="56.1" cy="86.8" r="12.3"/>
					</g>
				</g>
				<g>
					<g>
						<circle class="st12" cx="95.7" cy="78.2" r="12.3"/>
						<circle class="st12" cx="69.5" cy="148.3" r="12.3"/>
					</g>
					<g>
						<circle class="st12" cx="116.6" cy="97.7" r="12.3"/>
						<circle class="st12" cx="48.5" cy="128.7" r="12.3"/>
					</g>
					<g>
						<circle class="st12" cx="116.6" cy="97.7" r="12.3"/>
						<circle class="st12" cx="48.5" cy="128.7" r="12.3"/>
					</g>
					<g>
						<circle class="st12" cx="117.6" cy="126.3" r="12.3"/>
						<circle class="st12" cx="47.5" cy="100.1" r="12.3"/>
					</g>
					<g>
						<circle class="st12" cx="98.1" cy="147.3" r="12.3"/>
						<circle class="st12" cx="67.1" cy="79.2" r="12.3"/>
					</g>
				</g>
			</g>
			<circle class="st12" cx="120" cy="116.5" r="4.1"/>
			<circle class="st12" cx="60.2" cy="144.1" r="4.1"/>
			<circle class="st12" cx="46.2" cy="104" r="4.1"/>
			<circle class="st12" cx="104.7" cy="76.1" r="4.1"/>
			<circle class="st12" cx="104.7" cy="141.6" r="4.1"/>
			<circle class="st12" cx="60.1" cy="80.3" r="4.1"/>
			<circle class="st12" cx="51.7" cy="129" r="5.4"/>
			<circle class="st12" cx="94.9" cy="151.2" r="5.4"/>
			<circle class="st12" cx="113" cy="94.2" r="5.4"/>
			<circle class="st12" cx="78.2" cy="74.7" r="5.4"/>
		</g>
		<g>
			<g>
				<g>
					<g>
						<circle class="st18" cx="82.6" cy="79.8" r="12.3"/>
						<circle class="st18" cx="82.6" cy="154.6" r="12.3"/>
					</g>
					<g>
						<circle class="st18" cx="109" cy="90.8" r="12.3"/>
						<circle class="st18" cx="56.1" cy="143.7" r="12.3"/>
					</g>
					<g>
						<circle class="st18" cx="109" cy="90.8" r="12.3"/>
						<circle class="st18" cx="56.1" cy="143.7" r="12.3"/>
					</g>
					<g>
						<circle class="st18" cx="120" cy="117.2" r="12.3"/>
						<circle class="st18" cx="45.2" cy="117.2" r="12.3"/>
					</g>
					<g>
						<circle class="st18" cx="109" cy="143.7" r="12.3"/>
						<circle class="st18" cx="56.1" cy="90.8" r="12.3"/>
					</g>
				</g>
				<g>
					<g>
						<circle class="st18" cx="95.7" cy="82.2" r="12.3"/>
						<circle class="st18" cx="69.5" cy="152.3" r="12.3"/>
					</g>
					<g>
						<circle class="st18" cx="116.6" cy="101.7" r="12.3"/>
						<circle class="st18" cx="48.5" cy="132.7" r="12.3"/>
					</g>
					<g>
						<circle class="st18" cx="116.6" cy="101.7" r="12.3"/>
						<circle class="st18" cx="48.5" cy="132.7" r="12.3"/>
					</g>
					<g>
						<circle class="st18" cx="117.6" cy="130.3" r="12.3"/>
						<circle class="st18" cx="47.5" cy="104.1" r="12.3"/>
					</g>
					<g>
						<circle class="st18" cx="98.1" cy="151.3" r="12.3"/>
						<circle class="st18" cx="67.1" cy="83.2" r="12.3"/>
					</g>
				</g>
			</g>
			<circle class="st19" cx="120" cy="120.5" r="4.1"/>
			<circle class="st20" cx="60.2" cy="148.1" r="4.1"/>
			<circle class="st19" cx="46.2" cy="108" r="4.1"/>
			<circle class="st19" cx="104.7" cy="80.1" r="4.1"/>
			<circle class="st20" cx="104.7" cy="145.6" r="4.1"/>
			<circle class="st19" cx="60.1" cy="84.3" r="4.1"/>
			<circle class="st20" cx="51.7" cy="133" r="5.4"/>
			<circle class="st20" cx="94.9" cy="155.2" r="5.4"/>
			<circle class="st20" cx="113" cy="98.2" r="5.4"/>
			<circle class="st20" cx="78.2" cy="78.7" r="5.4"/>
		</g>
		<g>
			<polygon class="st19" points="77.2,155.6 73.2,191.6 77.2,189.6 81.2,191.6 85.2,154.6 81.2,155.1 			"/>
			<polygon class="st19" points="89.2,155.6 93.2,191.6 89.2,189.6 85.2,191.6 81.2,154.6 85.2,155.1 			"/>
			<g>
				<path class="st19" d="M81.6,151"/>
				<path class="st19" d="M63.6,161.6L83.2,151l-19.6-10.6C58,152,63.6,161.6,63.6,161.6z"/>
				<path class="st19" d="M103.7,161.6L84.1,151l19.6-10.6C109.3,152,103.7,161.6,103.7,161.6z"/>
				<circle class="st19" cx="83.4" cy="151" r="10"/>
				<circle class="st21" cx="83.4" cy="151" r="10"/>
				<circle class="st20" cx="83.4" cy="151" r="5"/>
			</g>
		</g>
	</g>
</g>
</svg>
