<?xml version="1.0" encoding="utf-8"?>
<!-- Generator: Adobe Illustrator 19.1.0, SVG Export Plug-In . SVG Version: 6.00 Build 0)  -->
<svg version="1.1" id="Layer_1" xmlns="http://www.w3.org/2000/svg" xmlns:xlink="http://www.w3.org/1999/xlink" x="0px" y="0px"
	 viewBox="0 0 44 80" style="enable-background:new 0 0 44 80;" xml:space="preserve">
<style type="text/css">
	.st0{fill:#E53A35;}
	.st1{fill:#FFFFFF;}
	.st2{fill:#B4B4B4;}
	.st3{fill:#F7CBAE;}
	.st4{fill:#231F20;}
	.st5{fill:#EF9A9B;}
	.st6{opacity:0.15;fill:#231F20;}
	.st7{fill:none;}
	.st8{fill:#F9CE1E;}
	.st9{opacity:0.2;fill:#231F20;}
	.st10{fill:#212121;}
</style>
<g>
	<g>
		<ellipse class="st0" cx="24.4" cy="12.3" rx="12" ry="12.3"/>
	</g>
	<g>
		<ellipse class="st1" cx="24.4" cy="14.3" rx="11.8" ry="11.5"/>
	</g>
	<g>
		<ellipse class="st2" cx="24.4" cy="14.3" rx="8.8" ry="8.6"/>
	</g>
	<g>
		<ellipse class="st3" cx="24.4" cy="14.3" rx="7.9" ry="7.7"/>
	</g>
	<g>
		<path class="st2" d="M25.8,8.8l-2.1-2.1l2.5-0.8c2.6,0.5,5,2.2,6.2,4.8c0.1,0.3,0.3,0.6,0.4,1C28.4,11.3,25.8,8.8,25.8,8.8z"/>
	</g>
	<path class="st2" d="M21,6.3c0,0,2.9-1.2,6-0.3l-0.8,1.2l-3.5-0.6L21,6.3z"/>
	<g>
		<path class="st2" d="M22.6,8.9l1.9-2.3l-2.6-0.5c-2.6,0.7-4.8,2.7-5.7,5.3c-0.1,0.3-0.2,0.7-0.3,1C20.3,11.7,22.6,8.9,22.6,8.9z"
			/>
	</g>
	<g>
		<path class="st4" d="M26.2,17.6c0,0.9-0.8,1.6-1.7,1.6c-0.9,0-1.7-0.7-1.7-1.6"/>
	</g>
	<g>
		<path class="st4" d="M22.1,12.4c0,0.3-0.3,0.5-0.6,0.5c-0.3,0-0.6-0.2-0.6-0.5c0-0.3,0.3-0.5,0.6-0.5
			C21.9,11.9,22.1,12.1,22.1,12.4z"/>
	</g>
	<g>
		<path class="st4" d="M26.7,12.4c0,0.3,0.2,0.5,0.6,0.5c0.3,0,0.6-0.2,0.6-0.5c0-0.3-0.3-0.5-0.6-0.5C27,11.9,26.7,12.1,26.7,12.4z
			"/>
	</g>
	<g>
		<ellipse class="st5" cx="24.4" cy="14.8" rx="1.6" ry="1.5"/>
	</g>
	<g>
		<path class="st0" d="M24.6,29.7h-15c-4.5,0-8.2-3.7-8.2-8.2v-8.4h6.5v8.4c0,0.9,0.7,1.7,1.7,1.7h15V29.7z"/>
	</g>
	<path class="st6" d="M1.4,19.5v2c0,4.5,3.7,8.2,8.2,8.2h15v-2h-15C5.1,27.6,1.4,24,1.4,19.5z"/>
	<path class="st7" d="M24.6,28.9h-15c-2.7,0-4.9-2.2-4.9-4.9v-9.7"/>
	<g>
		<path class="st8" d="M4.9,11.8c0,0.6,0.5,1.1,1.1,1.1c1.8,0,3.3-1.5,3.3-3.3c0,0,0,0,0,0c0-0.6-0.5-1.1-1.1-1.1
			C7.6,8.5,7.1,9,7.1,9.6c0,0.6-0.5,1.1-1.2,1.1C5.3,10.7,4.9,11.2,4.9,11.8C4.9,11.8,4.9,11.8,4.9,11.8z"/>
		<path class="st8" d="M1.5,11.6c0,1.6,1.3,2.9,2.9,2.9c1.6,0,2.9-1.3,2.9-2.9l0-3.3c0,0,0,0,0,0c0-1.6-1.3-2.9-2.9-2.9
			c-1.6,0-2.9,1.3-2.9,2.9L1.5,11.6C1.5,11.6,1.5,11.6,1.5,11.6z"/>
	</g>
	<g>
		<path class="st1" d="M8.1,12.5c0.6,0,1.1,0.5,1.1,1.1v0.8c0,0.6-0.5,1.1-1.1,1.1H1.3c-0.6,0-1.1-0.5-1.1-1.1v-0.8
			c0-0.6,0.5-1.1,1.1-1.1H8.1z"/>
	</g>
	<path class="st0" d="M30,23.5c-5.9-0.9-9.8,0.4-12.3,2.3c-2.7,0-4.8,2.8-4.8,6.1c0,1.3,0.3,2.5,0.9,3.5c-0.1,3.2-0.2,6.2-0.2,6.2
		l22.3,1.3l0.6-13.2C36.5,29.7,32.8,23.9,30,23.5z"/>
	<ellipse class="st9" cx="24" cy="77.8" rx="19.8" ry="2.1"/>
	<path class="st1" d="M24.3,46.4c-0.9,0-1.6-0.7-1.6-1.6v-22c0-0.9,0.7-1.6,1.6-1.6c0.9,0,1.6,0.7,1.6,1.6v22
		C25.9,45.7,25.2,46.4,24.3,46.4z"/>
	<path class="st6" d="M37.9,32.1c-1-4.2-3.2-7.5-6.1-9.5h-2c1.1,1.6,1.9,3.6,2.4,5.7c1.9,8.4-2.2,17-9.2,19.2
		c-2.2,0.7-4.5,0.7-6.6,0c3.2,3.6,7.8,5.2,12.4,3.8C35.7,49.1,39.8,40.5,37.9,32.1z"/>
	<path class="st10" d="M17.5,69.8c0,0.1,0,0.2,0,0.4h0c0,4-7.4,6.2-7.4,6.2v1.3h0.2h2.3h4.9l0,0c0.6,0,1.2-0.2,1.7-0.6l0,0l0.1-0.1
		c0,0,0.1,0,0.1-0.1l1.6-1.2v1.8h0.5h1.4v-3.4v-4L17.5,69.8z"/>
	<path class="st10" d="M30.6,70.3L30.6,70.3c0-0.1,0-0.2,0-0.4l-5.3,0.3v4v3.4h1.4h0.5v-1.8l1.6,1.2c0,0,0.1,0,0.1,0.1l0.1,0.1l0,0
		c0.5,0.4,1.1,0.6,1.7,0.6l0,0h4.9h2.3H38v-1.3C38,76.5,30.6,74.3,30.6,70.3z"/>
	<polygon class="st0" points="39.7,70.4 8.9,70.4 13.4,42.9 35.9,42.9 	"/>
	<polygon class="st6" points="39.7,70.4 8.9,70.4 18.2,65.9 24.4,49.4 30.7,65.9 	"/>
	<path class="st1" d="M9.5,72c-0.9,0-1.6-0.7-1.6-1.6c0-0.9,0.7-1.6,1.6-1.6c3.8,0,6.7-2.5,8.9-7.8c1.9-4.3,3.1-10.4,3.8-17.9
		c0.1-0.9,0.9-1.5,1.8-1.5c0.9,0.1,1.5,0.9,1.5,1.8c-0.7,7.9-2.1,14.2-4.1,18.9C18.6,68.8,14.6,72,9.5,72z"/>
	<path class="st1" d="M39.1,72c-5.2,0-9.2-3.3-12-9.9c-2-4.7-3.3-11.1-4-19.1c-0.1-0.9,0.6-1.7,1.5-1.7c0.9-0.1,1.7,0.6,1.7,1.5
		c0.6,7.6,1.9,13.7,3.8,18.1c2.2,5.3,5.2,7.9,9,7.9c0.9,0,1.6,0.7,1.6,1.6C40.8,71.3,40,72,39.1,72z"/>
	<polygon class="st10" points="13.4,41.6 13,44 35.6,44 35.6,41.6 	"/>
	<rect x="21.9" y="41.6" class="st8" width="4.9" height="2.4"/>
	<rect x="21" y="21.2" class="st3" width="6.8" height="2.2"/>
	<path class="st0" d="M33.6,49.6c-0.6,0-1.3-0.2-1.8-0.6c-1.3-1-1.6-2.9-0.6-4.2c1.6-2.1,3.9-6.3,3.4-8.9c-0.6-4-3.7-7.9-3.8-8
		c-1-1.3-0.8-3.2,0.4-4.2c1.3-1,3.2-0.8,4.2,0.4c0.2,0.2,4.1,5.2,5,10.8c1,6-4,12.8-4.6,13.5C35.4,49.1,34.5,49.6,33.6,49.6z"/>
	<path class="st1" d="M32.1,24.5H17c-0.9,0-1.6-0.7-1.6-1.6c0-0.9,0.7-1.6,1.6-1.6h15c0.9,0,1.6,0.7,1.6,1.6
		C33.7,23.7,33,24.5,32.1,24.5z"/>
	<g>
		<path class="st8" d="M32.5,48.1c0.3-0.5,0.1-1.2-0.4-1.5c-1.6-0.9-3.6-0.4-4.5,1.2c0,0,0,0,0,0c-0.3,0.5-0.1,1.2,0.4,1.5
			c0.5,0.3,1.2,0.1,1.5-0.4c0.3-0.5,1-0.7,1.6-0.4C31.5,48.8,32.2,48.6,32.5,48.1L32.5,48.1z"/>
		<path class="st8" d="M35.3,50c0.8-1.4,0.3-3.2-1.1-4c-1.4-0.8-3.2-0.3-4,1.1l-1.6,2.8c0,0,0,0,0,0c-0.8,1.4-0.3,3.2,1.1,4
			c1.4,0.8,3.2,0.3,4-1.1L35.3,50C35.3,50,35.3,50,35.3,50z"/>
	</g>
	<g>
		<path class="st1" d="M30,46c-0.5-0.3-0.7-1-0.4-1.5l0.4-0.7c0.3-0.5,1-0.7,1.5-0.4l5.9,3.4c0.5,0.3,0.7,1,0.4,1.5L37.4,49
			c-0.3,0.5-1,0.7-1.5,0.4L30,46z"/>
	</g>
</g>
</svg>
