<?xml version="1.0" encoding="utf-8"?>
<!-- Generator: Adobe Illustrator 19.1.0, SVG Export Plug-In . SVG Version: 6.00 Build 0)  -->
<svg version="1.1" id="Layer_1" xmlns="http://www.w3.org/2000/svg" xmlns:xlink="http://www.w3.org/1999/xlink" x="0px" y="0px"
	 viewBox="0 0 49 88" style="enable-background:new 0 0 49 88;" xml:space="preserve">
<style type="text/css">
	.st0{clip-path:url(#XMLID_2_);}
	.st1{fill:#E53A35;}
	.st2{fill:#FFFFFF;}
	.st3{fill:#B4B4B4;}
	.st4{fill:#F7CBAE;}
	.st5{fill:#231F20;}
	.st6{fill:#EF9A9B;}
	.st7{opacity:0.2;fill:#231F20;}
	.st8{opacity:0.15;fill:#231F20;}
	.st9{fill:#212121;}
	.st10{fill:#F9CE1E;}
	.st11{fill:#A66E40;}
	.st12{fill:#F58720;}
	.st13{fill:#D43F2D;}
	.st14{fill:none;stroke:#C62828;stroke-width:3;stroke-linecap:round;stroke-linejoin:round;stroke-miterlimit:10;}
	.st15{fill:#C62828;}
	.st16{opacity:0.2;}
	.st17{fill:none;stroke:#795649;stroke-width:6;stroke-linecap:round;stroke-linejoin:round;stroke-miterlimit:10;}
	.st18{fill:#BCE5FA;}
	.st19{fill:#4E352E;}
	
		.st20{clip-path:url(#XMLID_2_);fill:none;stroke:#F9CE1E;stroke-width:6;stroke-linecap:round;stroke-linejoin:round;stroke-miterlimit:10;}
</style>
<g>
	<defs>
		<rect id="XMLID_185_" width="49" height="88"/>
	</defs>
	<clipPath id="XMLID_2_">
		<use xlink:href="#XMLID_185_"  style="overflow:visible;"/>
	</clipPath>
	<g class="st0">
		<path class="st1" d="M11.2,57.6c0.6,0.3,1.2,0.4,1.9,0.2c1.6-0.4,2.6-2,2.3-3.6c-0.6-2.5-0.9-7.3,0.6-9.6c2.3-3.4,6.7-5.6,6.7-5.7
			c1.5-0.7,2.1-2.5,1.4-4c-0.7-1.5-2.5-2.1-4-1.4c-0.2,0.1-5.9,3-9.1,7.7c-3.4,5.1-1.7,13.3-1.5,14.2C9.7,56.4,10.4,57.2,11.2,57.6z
			"/>
		<g>
			<ellipse class="st1" cx="28.1" cy="22.7" rx="12" ry="12.3"/>
		</g>
		<g>
			<ellipse class="st2" cx="28.1" cy="24.7" rx="11.8" ry="11.5"/>
		</g>
		<g>
			<ellipse class="st3" cx="28.1" cy="24.7" rx="8.8" ry="8.6"/>
		</g>
		<g>
			<ellipse class="st4" cx="28.1" cy="24.7" rx="7.9" ry="7.7"/>
		</g>
		<g>
			<path class="st3" d="M29.5,19.2l-2.1-2.1l2.5-0.8c2.6,0.5,5,2.2,6.2,4.8c0.1,0.3,0.3,0.6,0.4,1C32,21.8,29.5,19.2,29.5,19.2z"/>
		</g>
		<path class="st3" d="M24.6,16.8c0,0,2.9-1.2,6-0.3l-0.8,1.2l-3.5-0.6L24.6,16.8z"/>
		<g>
			<path class="st3" d="M26.2,19.3l1.9-2.3l-2.6-0.5c-2.6,0.7-4.8,2.7-5.7,5.3c-0.1,0.3-0.2,0.7-0.3,1
				C23.9,22.1,26.2,19.3,26.2,19.3z"/>
		</g>
		<g>
			<path class="st5" d="M29.9,28c0,0.9-0.8,1.6-1.7,1.6c-0.9,0-1.7-0.7-1.7-1.6"/>
		</g>
		<g>
			<path class="st5" d="M25.8,22.8c0,0.3-0.3,0.5-0.6,0.5c-0.3,0-0.6-0.2-0.6-0.5c0-0.3,0.3-0.5,0.6-0.5
				C25.5,22.3,25.8,22.5,25.8,22.8z"/>
		</g>
		<g>
			<path class="st5" d="M30.3,22.8c0,0.3,0.2,0.5,0.6,0.5c0.3,0,0.6-0.2,0.6-0.5c0-0.3-0.3-0.5-0.6-0.5
				C30.6,22.3,30.3,22.5,30.3,22.8z"/>
		</g>
		<g>
			<ellipse class="st6" cx="28" cy="25.2" rx="1.6" ry="1.5"/>
		</g>
		<path class="st1" d="M33.6,33.9c-5.9-0.9-9.8,0.4-12.3,2.3c-2.7,0-4.8,2.8-4.8,6.1c0,1.3,0.3,2.5,0.9,3.5
			c-0.1,3.2-0.2,6.2-0.2,6.2l22.3,1.3l0.6-13.2C40.1,40.2,36.5,34.3,33.6,33.9z"/>
		<ellipse class="st7" cx="27.6" cy="88.3" rx="19.8" ry="2.1"/>
		<path class="st2" d="M27.9,56.9c-0.9,0-1.6-0.7-1.6-1.6v-22c0-0.9,0.7-1.6,1.6-1.6c0.9,0,1.6,0.7,1.6,1.6v22
			C29.5,56.1,28.8,56.9,27.9,56.9z"/>
		<path class="st8" d="M41.5,42.5c-1-4.2-3.2-7.5-6.1-9.5h-2c1.1,1.6,1.9,3.6,2.4,5.7c1.9,8.4-2.2,17-9.2,19.2
			c-2.2,0.7-4.5,0.7-6.6,0c3.2,3.6,7.8,5.2,12.4,3.8C39.3,59.5,43.4,50.9,41.5,42.5z"/>
		<path class="st9" d="M21.2,80.3c0,0.1,0,0.2,0,0.4h0c0,4-7.4,6.2-7.4,6.2v1.3H14h2.3h4.9l0,0c0.6,0,1.2-0.2,1.7-0.6l0,0l0.1-0.1
			c0,0,0.1,0,0.1-0.1l1.6-1.2V88h0.5h1.4v-3.4v-4L21.2,80.3z"/>
		<path class="st9" d="M34.2,80.7L34.2,80.7c0-0.1,0-0.2,0-0.4l-5.3,0.3v4v3.4h1.4h0.5v-1.8l1.6,1.2c0,0,0.1,0,0.1,0.1l0.1,0.1l0,0
			c0.5,0.4,1.1,0.6,1.7,0.6l0,0h4.9h2.3h0.2V87C41.6,87,34.2,84.8,34.2,80.7z"/>
		<polygon class="st1" points="43.4,80.9 12.5,80.9 17,53.4 39.5,53.4 		"/>
		<polygon class="st8" points="43.4,80.9 12.5,80.9 21.8,76.3 28.1,59.8 34.3,76.3 		"/>
		<path class="st2" d="M13.1,82.5c-0.9,0-1.6-0.7-1.6-1.6c0-0.9,0.7-1.6,1.6-1.6c3.8,0,6.7-2.5,8.9-7.8c1.9-4.3,3.1-10.4,3.8-17.9
			c0.1-0.9,0.9-1.5,1.8-1.5c0.9,0.1,1.5,0.9,1.5,1.8C28.4,61.7,27,68.1,25,72.7C22.2,79.2,18.2,82.5,13.1,82.5z"/>
		<path class="st2" d="M42.8,82.5c-5.2,0-9.2-3.3-12-9.9c-2-4.7-3.3-11.1-4-19.1c-0.1-0.9,0.6-1.7,1.5-1.7c0.9-0.1,1.7,0.6,1.7,1.5
			c0.6,7.6,1.9,13.7,3.8,18.1c2.2,5.3,5.2,7.9,9,7.9c0.9,0,1.6,0.7,1.6,1.6C44.4,81.7,43.7,82.5,42.8,82.5z"/>
		<polygon class="st9" points="17,52 16.6,54.5 39.2,54.5 39.2,52 		"/>
		<rect x="25.5" y="52" class="st10" width="4.9" height="2.4"/>
		<rect x="24.6" y="31.7" class="st4" width="6.8" height="2.2"/>
		<path class="st1" d="M37.2,60c-0.6,0-1.3-0.2-1.8-0.6c-1.3-1-1.6-2.9-0.6-4.2c1.6-2.1,3.9-6.3,3.4-8.9c-0.6-4-3.7-7.9-3.8-8
			c-1-1.3-0.8-3.2,0.4-4.2c1.3-1,3.2-0.8,4.2,0.4c0.2,0.2,4.1,5.2,5,10.8c1,6-4,12.8-4.6,13.5C39,59.6,38.1,60,37.2,60z"/>
		<path class="st2" d="M35.7,34.9h-15c-0.9,0-1.6-0.7-1.6-1.6s0.7-1.6,1.6-1.6h15c0.9,0,1.6,0.7,1.6,1.6S36.6,34.9,35.7,34.9z"/>
		<g>
			<path class="st10" d="M36.1,58.5c0.3-0.5,0.1-1.2-0.4-1.5c-1.6-0.9-3.6-0.4-4.5,1.2c0,0,0,0,0,0c-0.3,0.5-0.1,1.2,0.4,1.5
				c0.5,0.3,1.2,0.1,1.5-0.4c0.3-0.5,1-0.7,1.6-0.4C35.1,59.2,35.8,59.1,36.1,58.5L36.1,58.5z"/>
			<path class="st10" d="M38.9,60.4c0.8-1.4,0.3-3.2-1.1-4c-1.4-0.8-3.2-0.3-4,1.1l-1.6,2.8c0,0,0,0,0,0c-0.8,1.4-0.3,3.2,1.1,4
				c1.4,0.8,3.2,0.3,4-1.1L38.9,60.4C38.9,60.4,38.9,60.4,38.9,60.4z"/>
		</g>
		<g>
			<path class="st2" d="M33.6,56.4c-0.5-0.3-0.7-1-0.4-1.5l0.4-0.7c0.3-0.5,1-0.7,1.5-0.4l5.9,3.4c0.5,0.3,0.7,1,0.4,1.5L41,59.4
				c-0.3,0.5-1,0.7-1.5,0.4L33.6,56.4z"/>
		</g>
	</g>
	<g class="st0">
		<g>
			<polygon class="st11" points="8.6,410 -100.5,372 -100.5,362 126.4,292.3 235.5,320.3 235.7,330.3 			"/>
			<polygon class="st12" points="8.3,400 -100.9,362 126.2,282.3 235.5,320.3 			"/>
			<g>
				<g>
					<polygon class="st12" points="-21,240.2 -54.1,363.9 -36.1,369.9 -19.4,356.7 31.2,234.1 					"/>
					<polygon class="st11" points="-3,244.2 -36.1,369.9 -1.4,357.7 49.2,238.1 					"/>
				</g>
				<g>
					<polygon class="st12" points="-8.5,58.7 -8.5,30 -1.8,30 25.8,59.6 					"/>
					<path class="st11" d="M-1.1,63.1L-1.8,30c0,0,34,32.5,43.7,42.8C21.5,71.1-1.1,63.1-1.1,63.1z"/>
				</g>
				<g>
					<defs>
						<path id="XMLID_186_" d="M-37.3,82.1l-5.6,10.3c-3.7,6.7-5.8,14.2-6.2,21.8l-1.4,24.9l-2.2,12.9c-1,6,0.7,12.1,4.8,16.7l0,0
							c5.6,6.3,45.1,14.9,45.1,14.9s-1.9-3.4-10.4,9.7c-6.6,10.1-12.3,23.6-10.3,37.1c3.6,23.8,17.7,39.8,38.4,46.8
							c5,1.7,39.7,13.8,47.4,12.5c24.2-4,28-30.9,28-30.9l39.8-0.4l26.6-0.3c13.4-0.1,25-9.5,27.9-22.6l3.2-14.3l1.2-5.3
							c3.5-15.9-1.1-32.6-12.3-44.5l22.6,4.3c-10.9-12.9-41.6-18.3-53.4-19.6l-16.6,1.5c-16.5,1.5-33.2,1.1-49.6-1.3l-15.2-2.2
							l-3.3-33.8c-4.1-45.8,3.6-47.9,3.6-47.9C56.5,63,8.3,55.2,4.5,55.4c-14,0.9-27.1,7.6-36.1,18.4l0,0
							C-33.8,76.4-35.7,79.2-37.3,82.1z"/>
					</defs>
					<use xlink:href="#XMLID_186_"  style="overflow:visible;fill:#F58720;"/>
					<clipPath id="XMLID_3_">
						<use xlink:href="#XMLID_186_"  style="overflow:visible;"/>
					</clipPath>
				</g>
				<g>
					<polygon class="st12" points="19,252.2 -14.1,375.9 3.9,381.9 20.6,368.7 71.2,246.1 					"/>
					<polygon class="st11" points="37,256.2 3.9,381.9 38.6,368.7 89.2,250.1 					"/>
				</g>
				<path class="st11" d="M-6.3,93.5l-5.6,10.3c-3.7,6.7-5.8,14.2-6.2,21.8l-1.4,24.9l-2.2,12.9c-1,6,0.7,12.1,4.8,16.7l0,0
					c5.6,6.3,14.6,8.4,22.5,5.2l0.2-0.1c4.1-1.7,7.6-4.7,9.8-8.6l10.4-18.1h0c3.1-3.1,8.2-0.3,7.4,3.9c-2.4,11.9-7.1,29.2-15.6,42.2
					c-6.6,10.1-12.3,23.6-10.3,37.1c3.6,23.8,17.7,39.8,38.4,46.8c20.8,7,75.4-18.4,75.4-18.4l39.8-0.4l26.6-0.3
					c13.4-0.1,25-9.5,27.9-22.6l3.2-14.3l1.2-5.3c3.5-15.9-1.1-32.6-12.3-44.5l0,0c-8.1-8.6-19.1-14.1-30.8-15.3l-16.6,1.5
					c-16.5,1.5-33.2,1.1-49.6-1.3l-15.2-2.2l-3.3-33.8C85.8,62,46.6,66.1,35.4,66.8c-14,0.9-27.1,7.6-36.1,18.4l0,0
					C-2.8,87.8-4.7,90.6-6.3,93.5z"/>
				<g>
					<path class="st1" d="M-6.5,83C-6,69,19.7,54.2,33.2,51.1C14.9,35.7-26.5,43-26.5,43v36L-6.5,83z"/>
					<polygon class="st13" points="-6.5,83 -6.5,47 -26.5,43 -26.5,79 					"/>
					<polyline class="st1" points="-26.5,43 -26.5,79 -6.5,83 					"/>
					<polyline class="st13" points="-26.5,43 -26.5,79 -6.5,83 					"/>
					<line class="st14" x1="-21" y1="49" x2="-21" y2="80"/>
					<line class="st14" x1="-14" y1="51" x2="-14" y2="81"/>
					<path class="st15" d="M40.6,63C8.7,57.6-6.5,83-6.5,83V47C-6.5,47,35.4,37.3,40.6,63z"/>
				</g>
				<g>
					<polygon class="st12" points="21.5,63.7 21.5,35 28.2,35 55.8,64.6 					"/>
					<path class="st11" d="M28.9,68.1L28.2,35c0,0,34,32.5,43.7,42.8C51.5,76.1,28.9,68.1,28.9,68.1z"/>
				</g>
				<g class="st16">
					<line class="st17" x1="123.6" y1="188.5" x2="164.2" y2="180"/>
					<line class="st17" x1="35.8" y1="184" x2="76.4" y2="175.5"/>
					<line class="st17" x1="103" y1="207" x2="143.6" y2="198.5"/>
					<line class="st17" x1="41.6" y1="79.5" x2="62.2" y2="76"/>
					<line class="st17" x1="21" y1="98" x2="41.6" y2="94.5"/>
					<line class="st17" x1="-8.4" y1="139.5" x2="12.2" y2="136"/>
					<line class="st17" x1="51" y1="138" x2="71.6" y2="134.5"/>
					<line class="st17" x1="147.6" y1="238.5" x2="188.2" y2="230"/>
					<line class="st17" x1="127" y1="257" x2="167.6" y2="248.5"/>
					<line class="st17" x1="55.8" y1="234" x2="96.4" y2="225.5"/>
					<line class="st17" x1="15.8" y1="254" x2="56.4" y2="245.5"/>
				</g>
			</g>
			<g>
				<path class="st17" d="M-29.3,159c0,0-0.8,5-0.6,10.5"/>
				<path class="st17" d="M-42.3,155c0,0-0.8,5-0.6,10.5"/>
				<polyline class="st17" points="26.9,161.4 -17.6,137.5 -49,132.3 				"/>
				<line class="st17" x1="66.4" y1="74.1" x2="4.4" y2="149.4"/>
			</g>
			
				<ellipse transform="matrix(-0.9848 -0.1736 0.1736 -0.9848 -16.0652 296.7623)" class="st18" cx="4.9" cy="149.1" rx="5.4" ry="7.2"/>
		</g>
		
			<ellipse transform="matrix(-0.9848 -0.1736 0.1736 -0.9848 -10.5085 233.2484)" class="st19" cx="4.9" cy="117.1" rx="5.4" ry="7.2"/>
	</g>
	<line class="st20" x1="10.1" y1="40.9" x2="10.1" y2="41.4"/>
</g>
</svg>
