<?xml version="1.0" encoding="utf-8"?>
<!-- Generator: Adobe Illustrator 19.1.0, SVG Export Plug-In . SVG Version: 6.00 Build 0)  -->
<svg version="1.1" id="Layer_1" xmlns="http://www.w3.org/2000/svg" xmlns:xlink="http://www.w3.org/1999/xlink" x="0px" y="0px"
	 viewBox="0 0 79 104" style="enable-background:new 0 0 79 104;" xml:space="preserve">
<style type="text/css">
	.st0{clip-path:url(#XMLID_2_);}
	.st1{opacity:0.2;fill:#231F20;}
	.st2{fill:#E53A35;}
	.st3{fill:#212121;}
	.st4{fill:#FFFFFF;}
	.st5{opacity:0.15;fill:#231F20;}
	.st6{fill:#F9CE1E;}
	.st7{fill:none;stroke:#E53A35;stroke-width:8.7826;stroke-linecap:round;stroke-miterlimit:10;}
	.st8{opacity:5.000000e-02;fill:#231F20;}
	.st9{fill:#EF9A9B;}
	.st10{fill:#F7CBAE;}
	.st11{clip-path:url(#XMLID_2_);fill:#FFFFFF;}
	.st12{fill:#434343;}
	
		.st13{clip-path:url(#XMLID_2_);fill:none;stroke:#F9CE1E;stroke-width:8;stroke-linecap:round;stroke-linejoin:round;stroke-miterlimit:10;}
</style>
<g>
	<g>
		<defs>
			<rect id="XMLID_44_" width="79" height="104"/>
		</defs>
		<clipPath id="XMLID_2_">
			<use xlink:href="#XMLID_44_"  style="overflow:visible;"/>
		</clipPath>
		<g class="st0">
			<ellipse class="st1" cx="34.3" cy="127" rx="25.6" ry="2.2"/>
			<rect x="35.5" y="97" class="st2" width="10.2" height="13.4"/>
			<path class="st3" d="M45.7,114.8v5.1c3.9,0,7.1,3.2,7.1,7.1h-7.1H35.5v-12.2H45.7z"/>
			<rect x="35.5" y="110.4" class="st4" width="10.2" height="4.4"/>
			<rect x="22.8" y="97" class="st2" width="10.2" height="13.4"/>
			<path class="st3" d="M22.8,114.8v5.1c-3.9,0-7.1,3.2-7.1,7.1h7.1h10.2v-12.2H22.8z"/>
			<rect x="22.8" y="110.4" class="st4" width="10.2" height="4.4"/>
			<g>
				<circle class="st2" cx="34.5" cy="83.8" r="18.1"/>
				<path class="st5" d="M34.5,65.8c-4.2,0-8,1.4-11.1,3.8c3.2,5.3,9.1,8.9,15.9,8.9c0,0,0,0,0.1,0c0,0,0,0,0.1,0
					c4.1,0,7.6-2.7,8.7-6.5C44.8,68.2,39.9,65.8,34.5,65.8z"/>
				<rect x="16.5" y="83.8" class="st3" width="36.1" height="5.9"/>
				<rect x="30.4" y="83.8" class="st6" width="7.8" height="5.9"/>
				<path class="st5" d="M41.1,67c4.7,3.3,7.8,8.7,7.8,14.8c0,10-8.1,18.1-18.1,18.1c-2.3,0-4.6-0.4-6.6-1.3c2.9,2,6.4,3.2,10.3,3.2
					c10,0,18.1-8.1,18.1-18.1C52.6,76.2,47.8,69.7,41.1,67z"/>
			</g>
			<g>
				<path class="st7" d="M47.5,71.5c9.7,1.7,14.3,12.3,5.3,16.4"/>
				<path class="st6" d="M52.2,88c0.7-0.3,1.1-1.2,0.7-1.9c-1-2.2-3.7-3.3-5.9-2.3c0,0,0,0,0,0c-0.7,0.3-1.1,1.2-0.7,1.9
					c0.3,0.7,1.2,1.1,1.9,0.7c0.8-0.3,1.7,0,2,0.8C50.6,88,51.4,88.3,52.2,88C52.2,88,52.2,88,52.2,88z"/>
				<path class="st8" d="M52.2,88c0.7-0.3,1.1-1.2,0.7-1.9c-1-2.2-3.7-3.3-5.9-2.3c0,0,0,0,0,0c-0.7,0.3-1.1,1.2-0.7,1.9
					c0.3,0.7,1.2,1.1,1.9,0.7c0.8-0.3,1.7,0,2,0.8C50.6,88,51.4,88.3,52.2,88C52.2,88,52.2,88,52.2,88z"/>
				<path class="st6" d="M50.5,85.2l-4,1.8c0,0,0,0,0,0c-2,0.9-2.8,3.2-2,5.2c0.9,2,3.2,2.8,5.2,2c0,0,4-1.8,4-1.8
					c2-0.9,2.8-3.2,2-5.2C54.8,85.1,52.5,84.3,50.5,85.2z"/>
				<g>
					<path class="st4" d="M51,84.4c-0.3-0.7,0-1.6,0.7-1.9l1.3-0.6c0.7-0.3,1.6,0,1.9,0.7l3.2,7.1c0.3,0.7,0,1.6-0.7,1.9l-1.3,0.6
						c-0.7,0.3-1.6,0-1.9-0.7L51,84.4z"/>
				</g>
			</g>
			<g>
				<ellipse class="st9" cx="25.3" cy="57.5" rx="2.7" ry="2.7"/>
				<ellipse class="st9" cx="43.2" cy="57.5" rx="2.7" ry="2.7"/>
				<circle class="st4" cx="21.3" cy="43.1" r="2.9"/>
				<g>
					<g>
						<path class="st10" d="M34.3,49c-5.4,0-9.8,4.4-9.8,9.8v9.8H44v-9.8C44,53.3,39.7,49,34.3,49z"/>
					</g>
				</g>
				<g>
					<g>
						<path class="st4" d="M37,58.2C37,58.2,37,58.2,37,58.2l-18.5,0c0,10,8.3,18.1,18.4,18.1c0,0,0,0,0.1,0c0,0,0,0,0,0
							c5,0,9-4,9-9S41.9,58.2,37,58.2z"/>
					</g>
				</g>
				<ellipse class="st9" cx="34.3" cy="58.2" rx="2.7" ry="2.2"/>
				<path class="st3" d="M36.2,61.2c0,1.1-0.9,2-2,2c-1.1,0-2-0.9-2-2H36.2z"/>
				<path class="st2" d="M25.6,43.1c0,0-0.1,0-0.1,0v11.7H44C44,48.3,35.8,43.1,25.6,43.1z"/>
				<g>
					<path class="st4" d="M44,49c0.8,0,1.5,0.7,1.5,1.5v2.9c0,0.8-0.7,1.5-1.5,1.5H24.5c-0.8,0-1.5-0.7-1.5-1.5v-2.9
						c0-0.8,0.7-1.5,1.5-1.5H44z"/>
				</g>
				<path class="st3" d="M30.4,56.3c0,0.4-0.3,0.7-0.7,0.7c-0.4,0-0.7-0.3-0.7-0.7c0-0.4,0.3-0.7,0.7-0.7
					C30,55.5,30.4,55.9,30.4,56.3z"/>
				<path class="st3" d="M38.2,56.3c0,0.4,0.3,0.7,0.7,0.7c0.4,0,0.7-0.3,0.7-0.7c0-0.4-0.3-0.7-0.7-0.7
					C38.5,55.5,38.2,55.9,38.2,56.3z"/>
			</g>
		</g>
		<circle class="st11" cx="18.5" cy="78.6" r="6"/>
		<g class="st0">
			<g>
				<polygon class="st12" points="57.1,48.9 -1,97.7 101.4,125.2 159.5,75.3 				"/>
			</g>
		</g>
		<line class="st13" x1="18.8" y1="79.4" x2="19.6" y2="80.1"/>
	</g>
</g>
</svg>
