<?xml version="1.0" encoding="utf-8"?>
<!-- Generator: Adobe Illustrator 19.1.0, SVG Export Plug-In . SVG Version: 6.00 Build 0)  -->
<svg version="1.1" id="Layer_1" xmlns="http://www.w3.org/2000/svg" xmlns:xlink="http://www.w3.org/1999/xlink" x="0px" y="0px"
	 viewBox="0 0 79 131" style="enable-background:new 0 0 79 131;" xml:space="preserve">
<style type="text/css">
	.st0{clip-path:url(#XMLID_2_);}
	.st1{opacity:0.2;fill:#231F20;}
	.st2{fill:#E53A35;}
	.st3{fill:#212121;}
	.st4{fill:#FFFFFF;}
	.st5{opacity:0.15;fill:#231F20;}
	.st6{fill:#F9CE1E;}
	.st7{fill:none;stroke:#E53A35;stroke-width:8.7826;stroke-linecap:round;stroke-miterlimit:10;}
	.st8{opacity:5.000000e-02;fill:#231F20;}
	.st9{fill:#EF9A9B;}
	.st10{fill:#F7CBAE;}
	.st11{fill:#BCE5FA;}
	.st12{fill:#A66E40;}
	.st13{fill:#5A4A3D;}
	.st14{fill:#0D713B;}
	.st15{fill:#739AAE;}
	.st16{fill:none;stroke:#FFFFFF;stroke-width:4;stroke-linecap:round;stroke-linejoin:round;stroke-miterlimit:10;}
	.st17{fill:#A5DFF9;}
	.st18{fill:none;stroke:#BCE5FA;stroke-width:4;stroke-linecap:round;stroke-linejoin:round;stroke-miterlimit:10;}
	.st19{fill:#CC382C;}
	.st20{fill:#44B3E6;}
	.st21{clip-path:url(#XMLID_3_);fill:#44B3E6;}
	.st22{clip-path:url(#XMLID_4_);fill:#44B3E6;}
	.st23{clip-path:url(#XMLID_5_);fill:#FFFFFF;}
	.st24{fill:none;stroke:#FFFFFF;stroke-width:14;stroke-linecap:round;stroke-linejoin:round;stroke-miterlimit:10;}
	.st25{clip-path:url(#XMLID_6_);fill:#FFFFFF;}
	.st26{clip-path:url(#XMLID_7_);fill:#FFFFFF;}
	.st27{fill:#D43B2B;}
	.st28{fill:#099149;}
	.st29{fill:#26B9EC;}
	.st30{fill:#D43F2D;}
	.st31{fill:none;stroke:#FFFFFF;stroke-miterlimit:10;}
	.st32{fill:none;stroke:#FFFFFF;stroke-width:0.65;stroke-miterlimit:10;}
	.st33{clip-path:url(#XMLID_8_);}
	.st34{clip-path:url(#SVGID_2_);}
	.st35{fill:none;stroke:#CC382C;stroke-width:11.9318;stroke-miterlimit:10;}
	.st36{fill:none;stroke:#FFFFFF;stroke-width:5;stroke-miterlimit:10;}
	.st37{clip-path:url(#XMLID_9_);}
	.st38{clip-path:url(#SVGID_4_);}
	.st39{clip-path:url(#XMLID_10_);}
	.st40{clip-path:url(#SVGID_6_);}
	.st41{clip-path:url(#XMLID_11_);}
	.st42{clip-path:url(#SVGID_8_);}
</style>
<g>
	<g>
		<defs>
			<polygon id="XMLID_112_" points="78.6,130.6 0.4,130.6 0.4,0.4 36.6,0.4 78.6,0.4 78.6,33.9 			"/>
		</defs>
		<clipPath id="XMLID_2_">
			<use xlink:href="#XMLID_112_"  style="overflow:visible;"/>
		</clipPath>
		<g class="st0">
			
				<ellipse transform="matrix(0.9999 1.368467e-02 -1.368467e-02 0.9999 1.4251 -9.626728e-02)" class="st1" cx="7.7" cy="104.1" rx="25.6" ry="2.2"/>
			
				<rect x="14" y="74.7" transform="matrix(1 -5.467668e-03 5.467668e-03 1 -0.4449 0.1055)" class="st2" width="10.2" height="13.4"/>
			<path class="st3" d="M24.3,92.5l0,5.1c3.9,0,7.1,3.1,7.1,7l-7.1,0l-10.2,0.1L14,92.6L24.3,92.5z"/>
			
				<rect x="16.9" y="85.2" transform="matrix(-5.467668e-03 -1 1 -5.467668e-03 -71.0966 109.9467)" class="st4" width="4.4" height="10.2"/>
			<g>
				
					<rect x="0.5" y="69.4" transform="matrix(-0.9325 -0.3611 0.3611 -0.9325 -16.6978 149.1179)" class="st2" width="10.2" height="13.4"/>
				<path class="st3" d="M-3.2,84.6l-1.9,4.8c-3.6-1.4-7.7,0.4-9.2,4l6.6,2.6l9.6,3.7l4.4-11.4L-3.2,84.6z"/>
				
					<rect x="0.2" y="79.3" transform="matrix(0.3611 -0.9325 0.9325 0.3611 -77.2118 56.1428)" class="st4" width="4.4" height="10.2"/>
				<g>
					<circle class="st2" cx="18.9" cy="60" r="18.1"/>
					<path class="st5" d="M25.4,43.1c-3.9-1.5-8-1.6-11.7-0.5c1.1,6.1,5.3,11.6,11.6,14c0,0,0,0,0.1,0c0,0,0,0,0,0
						c3.8,1.5,8.1,0.2,10.4-2.9C34.2,49.1,30.5,45.1,25.4,43.1z"/>
					
						<rect x="14.9" y="44.6" transform="matrix(0.3611 -0.9325 0.9325 0.3611 -47.0525 56.6935)" class="st3" width="5.9" height="36.1"/>
					
						<rect x="14.7" y="58.7" transform="matrix(0.3611 -0.9325 0.9325 0.3611 -47.1157 56.4251)" class="st6" width="5.9" height="7.8"/>
					<path class="st5" d="M31.1,46.7c3.2,4.7,4.1,10.9,1.9,16.7C29.4,72.6,19,77.3,9.7,73.7c-2.2-0.8-4.1-2.1-5.7-3.6
						c2,2.9,4.9,5.3,8.4,6.7c9.3,3.6,19.8-1,23.4-10.3C38.5,59.4,36.4,51.6,31.1,46.7z"/>
				</g>
				<g>
					<path class="st7" d="M11.1,43.7C1.4,41.8-6.7,50,0.2,57.1"/>
					<path class="st6" d="M0.7,57.4c-0.6-0.6-0.6-1.5,0-2.1c1.8-1.7,4.6-1.7,6.3,0c0,0,0,0,0,0c0.6,0.6,0.6,1.5,0,2.1
						c-0.6,0.6-1.5,0.6-2.1,0c-0.6-0.6-1.6-0.6-2.2,0C2.2,57.9,1.3,57.9,0.7,57.4C0.7,57.4,0.7,57.4,0.7,57.4z"/>
					<path class="st8" d="M0.7,57.4c-0.6-0.6-0.6-1.5,0-2.1c1.8-1.7,4.6-1.7,6.3,0c0,0,0,0,0,0c0.6,0.6,0.6,1.5,0,2.1
						c-0.6,0.6-1.5,0.6-2.1,0c-0.6-0.6-1.6-0.6-2.2,0C2.2,57.9,1.3,57.9,0.7,57.4C0.7,57.4,0.7,57.4,0.7,57.4z"/>
					<path class="st6" d="M3.3,55.3l3.1,3.1c0,0,0,0,0,0c1.5,1.5,1.5,4,0,5.5c-1.5,1.5-4,1.5-5.5,0c0,0-3.1-3.1-3.1-3.1
						c-1.5-1.5-1.5-4,0-5.5C-0.7,53.8,1.8,53.8,3.3,55.3z"/>
					<g>
						<path class="st4" d="M3.1,54.5c0.6-0.6,0.6-1.5,0-2.1l-1-1c-0.6-0.6-1.5-0.6-2.1,0l-5.5,5.5c-0.6,0.6-0.6,1.5,0,2.1l1,1
							c0.6,0.6,1.5,0.6,2.1,0L3.1,54.5z"/>
					</g>
				</g>
				<path class="st7" d="M33.7,50.7c1.2,8-2.2,14.5-11.9,15.8"/>
				<g>
					
						<ellipse transform="matrix(0.9325 0.3611 -0.3611 0.9325 12.9159 -5.0003)" class="st9" cx="19.8" cy="32.1" rx="2.7" ry="2.7"/>
					
						<ellipse transform="matrix(0.9325 0.3611 -0.3611 0.9325 16.383 -10.6019)" class="st9" cx="36.6" cy="38.5" rx="2.7" ry="2.7"/>
					<circle class="st4" cx="21.3" cy="17.2" r="2.9"/>
					<g>
						<g>
							<path class="st10" d="M31.3,27.3c-5-1.9-10.7,0.5-12.6,5.6L15.1,42l9.1,3.5c0,0,0,0,0,0s0,0,0,0l9.1,3.5l3.5-9.1
								C38.8,34.9,36.3,29.3,31.3,27.3z"/>
						</g>
					</g>
					<g>
						<g>
							<path class="st4" d="M30.4,37C30.4,37,30.4,37,30.4,37l-17.3-6.7c-3.6,9.3,1.2,19.8,10.7,23.5c0,0,0,0,0.1,0c0,0,0,0,0,0
								c4.6,1.8,9.9-0.5,11.7-5.2C37.4,44,35.1,38.8,30.4,37z"/>
						</g>
					</g>
					<ellipse transform="matrix(0.9325 0.3611 -0.3611 0.9325 14.8794 -7.6588)" class="st9" cx="27.9" cy="36" rx="2.7" ry="2.2"/>
					<path class="st3" d="M28.7,39.4c-0.4,1-1.5,1.5-2.5,1.1c-1-0.4-1.5-1.5-1.1-2.5L28.7,39.4z"/>
					<path class="st2" d="M25.3,18.7C25.3,18.7,25.2,18.7,25.3,18.7L21,29.6l17.3,6.7C40.6,30.3,34.8,22.4,25.3,18.7z"/>
					<g>
						<path class="st4" d="M40.4,30.9c0.8,0.3,1.1,1.1,0.8,1.9l-1.1,2.7c-0.3,0.8-1.1,1.1-1.9,0.8l-18.2-7c-0.8-0.3-1.1-1.1-0.8-1.9
							l1.1-2.7c0.3-0.8,1.1-1.1,1.9-0.8L40.4,30.9z"/>
					</g>
					<path class="st3" d="M25,32.8c-0.1,0.4-0.6,0.6-0.9,0.4c-0.4-0.1-0.6-0.6-0.4-0.9c0.1-0.4,0.6-0.6,0.9-0.4
						C25,32,25.1,32.4,25,32.8z"/>
					<path class="st3" d="M32.3,35.6c-0.1,0.4,0,0.8,0.4,0.9c0.4,0.1,0.8,0,0.9-0.4c0.1-0.4,0-0.8-0.4-0.9
						C32.8,35,32.4,35.2,32.3,35.6z"/>
				</g>
			</g>
		</g>
		<g class="st0">
			<g>
				<g>
					<path class="st11" d="M66.5,136.2c0,3.8-8.6,6.8-19.5,6.8s-19.5-3.2-19.5-7v-6.5h39V136.2z"/>
				</g>
				<g>
					<ellipse class="st4" cx="47.1" cy="128.9" rx="19.7" ry="6.9"/>
				</g>
				<g>
					<ellipse class="st12" cx="47.1" cy="128.9" rx="12.8" ry="4.5"/>
				</g>
			</g>
			<g>
				<g>
					<rect x="43.5" y="102.5" class="st13" width="7" height="26"/>
					<polygon class="st14" points="46.8,24.2 17.6,116.5 46.8,116.5 76.1,116.5 					"/>
					<polygon class="st15" points="43.5,116.5 50.5,116.5 50.5,120.4 43.5,118.1 					"/>
				</g>
			</g>
		</g>
		<g class="st0">
			<g>
				<g>
					<g>
						<g>
							<path class="st11" d="M105.5,205.2c0,5.8-13.8,10.5-30.5,10.5s-30.5-4.9-30.5-10.7v-10.4h61V205.2z"/>
						</g>
						<g>
							<ellipse class="st4" cx="75.2" cy="193.9" rx="30.2" ry="10.6"/>
						</g>
					</g>
					<g>
						<g>
							<path class="st11" d="M100.5,192.1c0,4.8-11.2,8.6-25,8.6s-25-4-25-8.9v-9.4h50V192.1z"/>
						</g>
						<g>
							<ellipse class="st4" cx="75.2" cy="181.9" rx="25" ry="8.8"/>
						</g>
					</g>
				</g>
				<rect x="55.2" y="57.3" class="st11" width="40" height="123"/>
				<g>
					<ellipse class="st11" cx="75.4" cy="180.6" rx="20.2" ry="7.1"/>
				</g>
				<line class="st16" x1="65.2" y1="182.3" x2="65.2" y2="57.3"/>
				<line class="st16" x1="75.2" y1="182.3" x2="75.2" y2="57.3"/>
				<rect x="82.2" y="57.3" class="st17" width="13" height="125"/>
				<line class="st18" x1="85.2" y1="182.3" x2="85.2" y2="57.3"/>
				<path class="st4" d="M80.1,82.9h-9.8c-8.3,0-15.1-6.8-15.1-15.1V55.9c0-7.1,6.6-12.2,13.5-10.5L87,50c4.8,1.2,8.2,5.5,8.2,10.5
					v7.3C95.2,76.1,88.4,82.9,80.1,82.9z"/>
				<circle class="st17" cx="74.9" cy="56.3" r="3"/>
				<circle class="st11" cx="84.5" cy="70.1" r="1.7"/>
				<circle class="st11" cx="68.5" cy="69.1" r="4.1"/>
			</g>
			<path class="st19" d="M95.2,87.1c-12.9,24.4-41.8,16.5-41.8,16.5l0,15.8c0,0,38.4,6.1,42.3-14.5C95.8,104,95.2,87.1,95.2,87.1z"
				/>
			<path class="st19" d="M53.5,116.4c12.9,24.4,42.3,15.2,42.3,15.2l0,15.8c0,0-38.4,6.1-42.3-14.5C53.5,132,53.5,116.4,53.5,116.4z
				"/>
			<g>
				<g>
					<g>
						<g>
							<path class="st11" d="M162.5,185.2c0,5.8-13.8,10.5-30.5,10.5s-30.5-4.9-30.5-10.7v-10.4h61V185.2z"/>
						</g>
						<g>
							<ellipse class="st4" cx="132.2" cy="173.9" rx="30.2" ry="10.6"/>
						</g>
					</g>
					<g>
						<g>
							<path class="st11" d="M157.5,172.1c0,4.8-11.2,8.6-25,8.6s-25-4-25-8.9v-9.4h50V172.1z"/>
						</g>
						<g>
							<ellipse class="st4" cx="132.2" cy="161.9" rx="25" ry="8.8"/>
						</g>
					</g>
				</g>
				<rect x="112.2" y="17.3" class="st11" width="40" height="143"/>
				<g>
					<ellipse class="st11" cx="132.4" cy="160.6" rx="20.2" ry="7.1"/>
				</g>
				<line class="st16" x1="122.2" y1="162.3" x2="122.2" y2="17.3"/>
				<line class="st16" x1="132.2" y1="162.3" x2="132.2" y2="17.3"/>
				<rect x="139.2" y="17.3" class="st17" width="13" height="145"/>
				<line class="st18" x1="142.2" y1="162.3" x2="142.2" y2="17.3"/>
				<path class="st4" d="M137.1,42.9h-9.8c-8.3,0-15.1-6.8-15.1-15.1V15.9c0-7.1,6.6-12.2,13.5-10.5L144,10
					c4.8,1.2,8.2,5.5,8.2,10.5v7.3C152.2,36.1,145.4,42.9,137.1,42.9z"/>
				<circle class="st17" cx="131.9" cy="16.3" r="3"/>
				<circle class="st11" cx="141.5" cy="30.1" r="1.7"/>
				<circle class="st11" cx="125.5" cy="29.1" r="4.1"/>
			</g>
			<g>
				<g>
					<polygon class="st11" points="73.5,248.4 73.5,259.7 225.6,311.7 226.5,311.4 226.5,205.7 					"/>
					<polygon class="st20" points="386,244.2 234.2,203.5 226.5,205.7 226.5,311.4 386.3,255.5 					"/>
				</g>
				<g>
					<g>
						<polygon class="st4" points="73.7,248.4 225.7,300.3 226.5,300.1 226.5,194.9 						"/>
						<polygon class="st11" points="234.3,192.2 226.5,194.9 226.5,300.1 386.2,244.2 						"/>
					</g>
				</g>
			</g>
			<g>
				<g>
					<polygon class="st11" points="83.5,233.4 83.5,244.1 226.3,293 226.5,292.9 226.5,193.4 					"/>
					<polygon class="st20" points="377.1,229.4 234.4,191.2 226.5,193.4 226.5,292.9 377.3,240.1 					"/>
				</g>
				<g>
					<polygon class="st4" points="82.9,233.4 226,282.3 226.5,282.1 226.5,183.2 					"/>
					<polygon class="st11" points="234,180.5 226.5,183.2 226.5,282.1 377.1,229.4 					"/>
				</g>
			</g>
			<g>
				<polygon class="st11" points="92.4,219.1 92.5,219.2 92.5,229.1 226.3,274.9 226.5,274.8 226.5,172.2 				"/>
				<polygon class="st20" points="367.5,215.4 233.8,169.6 226.5,172.2 226.5,274.8 367.7,225.4 				"/>
			</g>
			<g>
				<polygon class="st4" points="233.7,99.6 92.3,149.1 113.4,156.4 254.8,106.9 				"/>
				<polygon class="st20" points="254.7,106.6 113.3,156.1 113.4,226.4 254.8,176.9 				"/>
				<polygon class="st11" points="92.4,219.1 113.5,226.4 113.5,156.4 92.3,149.1 				"/>
				<g>
					<polygon class="st4" points="203.7,39.6 182.3,47.1 346.4,102.4 367.8,94.9 					"/>
					<polygon class="st20" points="367.7,94.6 346.3,102.1 346.4,232.4 367.8,224.9 					"/>
					<line class="st18" x1="367.7" y1="104.6" x2="346.3" y2="112.1"/>
					<line class="st18" x1="367.7" y1="114.6" x2="346.3" y2="122.1"/>
					<polygon class="st11" points="182.4,167.1 346.5,222.4 346.5,102.4 182.3,47.1 					"/>
					<path class="st20" d="M183.9,163.5l6.8-91.2l31.6-15.2l69.9,76.5c20,22,28.1,52.4,21.3,81.3c-0.3,1.3-0.5,2.1-0.6,2
						C312.2,216.5,183.9,163.5,183.9,163.5z"/>
					<polyline class="st16" points="346.6,112.4 240.1,76.5 182.4,57.1 					"/>
					<polyline class="st16" points="346.6,122.4 252.6,90.8 182.4,67.1 					"/>
				</g>
				<g>
					<g>
						<line class="st18" x1="113.6" y1="166.4" x2="238.3" y2="122.8"/>
					</g>
					<g>
						<line class="st18" x1="113.6" y1="176.4" x2="238.3" y2="132.8"/>
					</g>
					<line class="st16" x1="92.4" y1="159.1" x2="113.6" y2="166.4"/>
					<line class="st16" x1="92.4" y1="169.1" x2="113.6" y2="176.4"/>
				</g>
			</g>
			<g>
				<defs>
					<path id="XMLID_122_" d="M155.6,214.7l-11.9,8.2c-2.9,2-2.3,6.5,1,7.7l7.6,2.7c3.4,1.2,7.2,0.9,10.4-0.8l20.8-11.2L155.6,214.7
						z"/>
				</defs>
				<use xlink:href="#XMLID_122_"  style="overflow:visible;fill:#FFFFFF;"/>
				<clipPath id="XMLID_3_">
					<use xlink:href="#XMLID_122_"  style="overflow:visible;"/>
				</clipPath>
				<path class="st21" d="M177.1,213.8l-19.4,13.1c-2.9,2-2.3,6.5,1,7.7l7.6,2.7c3.4,1.2,7.2,0.9,10.4-0.8l28.4-16.1L177.1,213.8z"
					/>
			</g>
			<g>
				<defs>
					<path id="XMLID_121_" d="M183.6,223.7l-11.9,8.2c-2.9,2-2.3,6.5,1,7.7l7.6,2.7c3.4,1.2,7.2,0.9,10.4-0.8l20.8-11.2L183.6,223.7
						z"/>
				</defs>
				<use xlink:href="#XMLID_121_"  style="overflow:visible;fill:#FFFFFF;"/>
				<clipPath id="XMLID_4_">
					<use xlink:href="#XMLID_121_"  style="overflow:visible;"/>
				</clipPath>
				<path class="st22" d="M205.1,222.8l-19.4,13.1c-2.9,2-2.3,6.5,1,7.7l7.6,2.7c3.4,1.2,7.2,0.9,10.4-0.8l28.4-16.1L205.1,222.8z"
					/>
			</g>
			<g>
				<defs>
					<path id="XMLID_120_" d="M203.8,140l-50.5,19.4c-5.8,1.5-9.5,7.2-8.5,13.2l7.5,43.2c0,0,80.1,26.3,81.4,25.7s68.3-25,68.3-25
						l-52.4-70.9L203.8,140z"/>
				</defs>
				<use xlink:href="#XMLID_120_"  style="overflow:visible;fill:#BCE5FA;"/>
				<clipPath id="XMLID_5_">
					<use xlink:href="#XMLID_120_"  style="overflow:visible;"/>
				</clipPath>
				<polygon class="st23" points="118.8,152.2 175.9,174.3 252.8,149.6 223.7,92.7 				"/>
			</g>
			<g>
				<path class="st20" d="M216.8,213.9L216.8,213.9c-0.3-1.5-1.1-2.8-2.4-3.6l-59.7-31.2l52.6,39.2
					C210.9,222.6,217.7,219.4,216.8,213.9z"/>
			</g>
			<g>
				<path class="st20" d="M216.8,231.9L216.8,231.9c-0.3-1.5-1.1-2.8-2.4-3.6l-43.8-24.7l36.8,32.8
					C210.9,240.6,217.7,237.4,216.8,231.9z"/>
			</g>
			<polyline class="st24" points="130.6,129.9 164.4,117.8 182.3,90.1 			"/>
			<g>
				<polygon class="st4" points="330.7,144.6 205.3,188.1 226.4,195.4 351.8,151.9 				"/>
				<polygon class="st20" points="351.7,151.6 226.3,195.1 226.4,265.4 351.8,221.9 				"/>
				<polygon class="st11" points="205.4,258.1 226.5,265.4 226.5,195.4 205.3,188.1 				"/>
				<g>
					<g>
						<line class="st18" x1="226.6" y1="205.4" x2="351.3" y2="161.8"/>
					</g>
					<g>
						<line class="st18" x1="226.6" y1="215.4" x2="351.3" y2="171.8"/>
					</g>
					<line class="st16" x1="205.4" y1="198.1" x2="226.6" y2="205.4"/>
					<line class="st16" x1="205.4" y1="208.1" x2="226.6" y2="215.4"/>
				</g>
			</g>
			<g>
				<defs>
					<path id="XMLID_119_" d="M178,144.4l-0.3-43.7c2.5-12.1,12.6-21.2,24.9-22.4l0,0c11.9-1.2,23.3,5.1,28.5,15.9l18.6,51.4
						L214,158.2L178,144.4z"/>
				</defs>
				<use xlink:href="#XMLID_119_"  style="overflow:visible;fill:#BCE5FA;"/>
				<clipPath id="XMLID_6_">
					<use xlink:href="#XMLID_119_"  style="overflow:visible;"/>
				</clipPath>
				<polygon class="st25" points="216.7,84.3 185.4,155.9 153.3,148.8 187,80.2 				"/>
			</g>
			<g>
				<path class="st4" d="M186.9,116.6L186.9,116.6c-0.5,1.1-0.3,2.3,0.5,3.3l17.6,24.1l-7.7-26.3
					C196.1,113.5,188.6,112.7,186.9,116.6z"/>
				<path class="st11" d="M201.7,142.5L201.7,142.5c0.5-1.1,0.3-2.3-0.4-3.3l-12.8-18l2.9,20.1C192.4,145.5,200,146.4,201.7,142.5z"
					/>
			</g>
			<g>
				<path class="st4" d="M192.6,97.1L192.6,97.1c-0.3,1.5,0.1,3,1,4.3l21.4,27.7l-12-32.9C201.2,91,193.6,91.6,192.6,97.1z"/>
				<path class="st4" d="M148.3,170L148.3,170c0.6,1.4,1.7,2.5,3.2,3l32.9,12.1l-27.7-21.4C152.3,160.2,146.2,164.8,148.3,170z"/>
				<path class="st11" d="M211.6,128L211.6,128c0.3-1.5-0.1-3-1-4.3l-21.1-28l11.6,33.1C203,134,210.6,133.4,211.6,128z"/>
			</g>
			<g>
				<defs>
					<path id="XMLID_118_" d="M228.1,62.7c1.7-1,2.8-2.8,2.8-4.9c0-2.4-1.5-4.5-3.7-5.3c0.5-0.8,0.7-1.7,0.7-2.7
						c0-3.1-2.5-5.6-5.6-5.6c-1.3,0-2.5,0.4-3.4,1.2c-0.2-2.9-2.6-5.2-5.6-5.2c-0.8,0-1.6,0.2-2.3,0.5c-1-1.5-2.7-2.5-4.7-2.5
						c-2.1,0-3.9,1.1-4.9,2.8c-1-1.1-2.5-1.8-4.1-1.8c-3,0-5.4,2.3-5.6,5.2c-0.5-0.1-0.9-0.2-1.4-0.2c-3.1,0-5.6,2.5-5.6,5.6
						c0,0.5,0.1,1.1,0.2,1.6c-2.4,0.6-4.2,2.8-4.2,5.4c0,3.1,2.5,5.6,5.6,5.6c0.7,0,1.4-0.1,2-0.4c0,0,0,0,0.1,0
						c-1.4,3.1-1.8,6.6-0.8,10l3.9,14c1.7,6.2,7.4,10.5,13.8,10.5h0c5.6,0,10.7-3.3,13-8.2c0.3,0.1,0.7,0.1,1,0.1
						c3.1,0,5.6-2.5,5.6-5.6c0-0.7-0.1-1.3-0.3-1.9c2-0.9,3.3-2.8,3.3-5.1c0-1.5-0.6-2.8-1.5-3.8c2.1-0.8,3.5-2.8,3.5-5.2
						C230,65.2,229.3,63.7,228.1,62.7z"/>
				</defs>
				<use xlink:href="#XMLID_118_"  style="overflow:visible;fill:#BCE5FA;"/>
				<clipPath id="XMLID_7_">
					<use xlink:href="#XMLID_118_"  style="overflow:visible;"/>
				</clipPath>
				<polygon class="st26" points="215.7,33.3 184.4,104.9 155.3,97.8 189,29.2 				"/>
			</g>
			<g>
				<path class="st20" d="M205.9,68c0,1.1,0.9,2,2,2c1.1,0,2-0.9,2-2c0-1.1-0.9-2-2-2C206.8,66.1,205.9,67,205.9,68z"/>
			</g>
			<g>
				<path class="st20" d="M193.9,68c0,1.1,0.9,2,2,2c1.1,0,2-0.9,2-2c0-1.1-0.9-2-2-2C194.8,66.1,193.9,67,193.9,68z"/>
			</g>
			<g>
				<path class="st20" d="M204,74.5c0,2-1.7,3.5-3.8,3.5c-2.1,0-6.7-1.6-6.7-3.5c0-2,4.7-3.5,6.7-3.5C202.3,71,204,72.5,204,74.5z"
					/>
			</g>
			<g>
				<path class="st20" d="M205,81.5c0,2-1.7,3.5-3.8,3.5c-2.1,0-3.7-1.6-3.7-3.5H205z"/>
			</g>
			<polyline class="st24" points="211,174.1 246.5,140.4 233.3,99.6 			"/>
			<g>
				<g>
					<g>
						<g>
							<path class="st11" d="M382.5,291.2c0,5.8-13.8,10.5-30.5,10.5s-30.5-4.9-30.5-10.7v-10.4h61V291.2z"/>
						</g>
						<g>
							<ellipse class="st4" cx="352.2" cy="279.9" rx="30.2" ry="10.6"/>
						</g>
					</g>
					<g>
						<g>
							<path class="st11" d="M377.5,278.1c0,4.8-11.2,8.6-25,8.6s-25-4-25-8.9v-9.4h50V278.1z"/>
						</g>
						<g>
							<ellipse class="st4" cx="352.2" cy="267.9" rx="25" ry="8.8"/>
						</g>
					</g>
				</g>
				<rect x="332.2" y="143.3" class="st11" width="40" height="123"/>
				<g>
					<ellipse class="st11" cx="352.4" cy="266.6" rx="20.2" ry="7.1"/>
				</g>
				<line class="st16" x1="342.2" y1="268.3" x2="342.2" y2="143.3"/>
				<line class="st16" x1="352.2" y1="268.3" x2="352.2" y2="143.3"/>
				<rect x="359.2" y="143.3" class="st17" width="13" height="125"/>
				<line class="st18" x1="362.2" y1="268.3" x2="362.2" y2="143.3"/>
				<path class="st4" d="M357.1,168.9h-9.8c-8.3,0-15.1-6.8-15.1-15.1v-11.8c0-7.1,6.6-12.2,13.5-10.5L364,136
					c4.8,1.2,8.2,5.5,8.2,10.5v7.3C372.2,162.1,365.4,168.9,357.1,168.9z"/>
				<circle class="st17" cx="351.9" cy="142.3" r="3"/>
				<circle class="st11" cx="361.5" cy="156.1" r="1.7"/>
				<circle class="st11" cx="345.5" cy="155.1" r="4.1"/>
			</g>
			<g>
				<g>
					<g>
						<path class="st11" d="M327.5,296.2c0,3.8-8.6,6.8-19.5,6.8s-19.5-3.2-19.5-7v-6.5h39V296.2z"/>
					</g>
					<g>
						<ellipse class="st4" cx="308.1" cy="288.9" rx="19.7" ry="6.9"/>
					</g>
					<g>
						<ellipse class="st12" cx="308.1" cy="288.9" rx="12.8" ry="4.5"/>
					</g>
				</g>
				<g>
					<g>
						<rect x="304.5" y="262.5" class="st13" width="7" height="26"/>
						<polygon class="st14" points="307.8,184.2 278.6,276.5 307.8,276.5 337.1,276.5 						"/>
						<polygon class="st15" points="304.5,276.5 311.5,276.5 311.5,280.4 304.5,278.1 						"/>
					</g>
				</g>
			</g>
			<path class="st27" d="M45.8,128.6c-3.2,1.8-5.8,2.4-7,1.2c-1.2-1.2-0.6-3.8,1.2-7c-3.5-1-5.8-2.5-5.8-4.1s2.3-3.2,5.8-4.1
				c-1.8-3.2-2.4-5.8-1.2-7c1.2-1.2,3.8-0.6,7,1.2c1-3.5,2.5-5.8,4.1-5.8c1.7,0,3.2,2.3,4.1,5.8c0.4,1.4,0.7,3.1,0.9,4.9
				c0.1,0.9,0.2,1.9,0.2,2.9c0,0.7,0.1,1.4,0.1,2.2s0,1.5-0.1,2.2c0,1-0.1,1.9-0.2,2.9c-0.2,1.8-0.5,3.5-0.9,4.9
				c-1,3.5-2.5,5.8-4.1,5.8C48.3,134.4,46.8,132.2,45.8,128.6z"/>
			<g>
				<g>
					<path class="st28" d="M152.9,37.5c0,6.1-4.9,16.5-11.1,16.5c-6.1,0-11.1-10.5-11.1-16.5s4.9-11,11.1-11
						C148,26.5,152.9,31.4,152.9,37.5z"/>
					<path class="st29" d="M163.3,51.2c0,6.1-4.9,16.5-11,16.5c-6.1,0-11.1-10.5-11.1-16.5s4.9-11,11.1-11
						C158.4,40.1,163.3,45.1,163.3,51.2z"/>
					<path class="st30" d="M141.2,51.2c0,6.1-4.9,16.5-11.1,16.5c-6.1,0-11.1-10.5-11.1-16.5s4.9-11,11.1-11
						C136.3,40.1,141.2,45.1,141.2,51.2z"/>
					<path class="st4" d="M152.3,66.1c0,6.1-4.9,16.5-11.1,16.5c-6.1,0-11.1-10.5-11.1-16.5c0-6.1,4.9-11,11.1-11
						C147.3,55.1,152.3,60,152.3,66.1z"/>
				</g>
				<line class="st31" x1="141" y1="74.5" x2="141" y2="125.5"/>
				<line class="st32" x1="134.6" y1="68.2" x2="141.1" y2="126"/>
				<line class="st32" x1="147.6" y1="68.2" x2="141.1" y2="126"/>
			</g>
			<g>
				<g>
					<path class="st28" d="M296.5,99.5c0,6.1,4.9,16.5,11.1,16.5c6.1,0,11-10.5,11-16.5c0-6.1-4.9-11-11-11
						C301.5,88.5,296.5,93.4,296.5,99.5z"/>
					<path class="st29" d="M286.1,113.2c0,6.1,4.9,16.5,11,16.5c6.1,0,11.1-10.5,11.1-16.5c0-6.1-4.9-11-11.1-11
						C291.1,102.1,286.1,107.1,286.1,113.2z"/>
					<path class="st30" d="M308.2,113.2c0,6.1,4.9,16.5,11,16.5s11.1-10.5,11.1-16.5c0-6.1-4.9-11-11.1-11S308.2,107.1,308.2,113.2z
						"/>
					<path class="st4" d="M297.2,128.1c0,6.1,4.9,16.5,11.1,16.5s11-10.5,11-16.5c0-6.1-4.9-11-11-11S297.2,122,297.2,128.1z"/>
				</g>
				<line class="st31" x1="308" y1="136.5" x2="308" y2="187.5"/>
				<line class="st32" x1="314.9" y1="130.2" x2="308.4" y2="188"/>
				<line class="st32" x1="301.9" y1="130.2" x2="308.4" y2="188"/>
			</g>
		</g>
		<g class="st0">
			<g>
				<g>
					<path class="st11" d="M-778.7,145.6c0-3.9-9.8-7-20.9-7c-11.1,0-20.9,3.2-20.9,7.1v14.7h41.6L-778.7,145.6z"/>
					<ellipse class="st11" cx="-798.9" cy="160.8" rx="20.1" ry="7"/>
					<ellipse class="st4" cx="-798.9" cy="145.8" rx="20.1" ry="7"/>
				</g>
				<g>
					<g>
						<g>
							<defs>
								<polygon id="XMLID_117_" points="-842.5,144.9 -842.5,-60.1 -760.4,-65.1 -758.5,144.3 								"/>
							</defs>
							<clipPath id="XMLID_8_">
								<use xlink:href="#XMLID_117_"  style="overflow:visible;"/>
							</clipPath>
							<g class="st33">
								<g>
									<path class="st4" d="M-816.5-64.5h33v266.9c0,32.2-26.3,58.4-58.5,58.4c-32.2,0-58.5-26.2-58.5-58.4v-30.9h33v30.9
										c0,13.8,11.7,25,25.5,25c13.8,0,25.5-11.2,25.5-25V-64.5z"/>
									<g>
										<defs>
											<path id="SVGID_1_" d="M-816.5-64.5h33v266.9c0,32.2-26.3,58.4-58.5,58.4c-32.2,0-58.5-26.2-58.5-58.4v-30.9h33v30.9
												c0,13.8,11.7,25,25.5,25c13.8,0,25.5-11.2,25.5-25V-64.5z"/>
										</defs>
										<clipPath id="SVGID_2_">
											<use xlink:href="#SVGID_1_"  style="overflow:visible;"/>
										</clipPath>
										<g class="st34">
											<line class="st35" x1="-757.2" y1="217" x2="-912.9" y2="283.9"/>
											<line class="st35" x1="-757.2" y1="188.4" x2="-912.9" y2="255.4"/>
											<line class="st35" x1="-757.2" y1="159.9" x2="-912.9" y2="226.8"/>
											<line class="st35" x1="-757.2" y1="131.4" x2="-912.9" y2="198.3"/>
											<line class="st35" x1="-757.2" y1="102.8" x2="-912.9" y2="169.7"/>
											<line class="st35" x1="-757.2" y1="74.3" x2="-912.9" y2="141.2"/>
											<line class="st35" x1="-757.2" y1="45.8" x2="-912.9" y2="112.7"/>
											<line class="st35" x1="-757.2" y1="17.2" x2="-912.9" y2="84.1"/>
											<line class="st35" x1="-757.2" y1="-11.3" x2="-912.9" y2="55.6"/>
											<line class="st35" x1="-757.2" y1="-39.9" x2="-912.9" y2="27.1"/>
											<line class="st35" x1="-757.2" y1="-68.4" x2="-912.9" y2="-1.5"/>
											<line class="st35" x1="-757.2" y1="-96.9" x2="-912.9" y2="-30"/>
											<line class="st35" x1="-757.2" y1="-125.5" x2="-912.9" y2="-58.6"/>
										</g>
									</g>
								</g>
							</g>
						</g>
						<line class="st36" x1="-810" y1="-65.5" x2="-810" y2="133.5"/>
					</g>
				</g>
				<g>
					<path class="st11" d="M-778.7-71.4c0-3.9-9.8-7-20.9-7c-11.1,0-20.9,3.2-20.9,7.1v14.7h41.6L-778.7-71.4z"/>
					<ellipse class="st11" cx="-798.9" cy="-56.2" rx="20.1" ry="7"/>
					<ellipse class="st4" cx="-798.9" cy="-71.2" rx="20.1" ry="7"/>
				</g>
			</g>
			<g>
				<g>
					<path class="st11" d="M-378.7,151.6c0-3.9-9.8-7-20.9-7s-20.9,3.2-20.9,7.1v14.7h41.6L-378.7,151.6z"/>
					<ellipse class="st11" cx="-398.9" cy="166.8" rx="20.1" ry="7"/>
					<ellipse class="st4" cx="-398.9" cy="151.8" rx="20.1" ry="7"/>
				</g>
				<g>
					<g>
						<g>
							<defs>
								<rect id="XMLID_116_" x="-442.5" y="-54.5" width="67" height="205"/>
							</defs>
							<clipPath id="XMLID_9_">
								<use xlink:href="#XMLID_116_"  style="overflow:visible;"/>
							</clipPath>
							<g class="st37">
								<g>
									<path class="st4" d="M-416.5-58.5h33v266.9c0,32.2-26.3,58.4-58.5,58.4c-32.2,0-58.5-26.2-58.5-58.4v-30.9h33v30.9
										c0,13.8,11.7,25,25.5,25c13.8,0,25.5-11.2,25.5-25V-58.5z"/>
									<g>
										<defs>
											<path id="SVGID_3_" d="M-416.5-58.5h33v266.9c0,32.2-26.3,58.4-58.5,58.4c-32.2,0-58.5-26.2-58.5-58.4v-30.9h33v30.9
												c0,13.8,11.7,25,25.5,25c13.8,0,25.5-11.2,25.5-25V-58.5z"/>
										</defs>
										<clipPath id="SVGID_4_">
											<use xlink:href="#SVGID_3_"  style="overflow:visible;"/>
										</clipPath>
										<g class="st38">
											<line class="st35" x1="-357.2" y1="223" x2="-512.9" y2="289.9"/>
											<line class="st35" x1="-357.2" y1="194.4" x2="-512.9" y2="261.4"/>
											<line class="st35" x1="-357.2" y1="165.9" x2="-512.9" y2="232.8"/>
											<line class="st35" x1="-357.2" y1="137.4" x2="-512.9" y2="204.3"/>
											<line class="st35" x1="-357.2" y1="108.8" x2="-512.9" y2="175.7"/>
											<line class="st35" x1="-357.2" y1="80.3" x2="-512.9" y2="147.2"/>
											<line class="st35" x1="-357.2" y1="51.8" x2="-512.9" y2="118.7"/>
											<line class="st35" x1="-357.2" y1="23.2" x2="-512.9" y2="90.1"/>
											<line class="st35" x1="-357.2" y1="-5.3" x2="-512.9" y2="61.6"/>
											<line class="st35" x1="-357.2" y1="-33.9" x2="-512.9" y2="33.1"/>
											<line class="st35" x1="-357.2" y1="-62.4" x2="-512.9" y2="4.5"/>
											<line class="st35" x1="-357.2" y1="-90.9" x2="-512.9" y2="-24"/>
											<line class="st35" x1="-357.2" y1="-119.5" x2="-512.9" y2="-52.6"/>
										</g>
									</g>
								</g>
							</g>
						</g>
						<line class="st36" x1="-410" y1="-59.5" x2="-410" y2="139.5"/>
					</g>
				</g>
				<g>
					<ellipse class="st11" cx="-398.9" cy="-50.2" rx="20.1" ry="7"/>
					<ellipse class="st4" cx="-398.9" cy="-65.2" rx="20.1" ry="7"/>
				</g>
			</g>
			<g>
				<g>
					<path class="st11" d="M21.3,217.6c0-3.9-9.8-7-20.9-7s-20.9,3.2-20.9,7.1v14.7h41.6L21.3,217.6z"/>
					<ellipse class="st11" cx="1.1" cy="232.8" rx="20.1" ry="7"/>
					<ellipse class="st4" cx="1.1" cy="217.8" rx="20.1" ry="7"/>
				</g>
				<g>
					<g>
						<g>
							<defs>
								<rect id="XMLID_115_" x="-42.5" y="11.5" width="67" height="205"/>
							</defs>
							<clipPath id="XMLID_10_">
								<use xlink:href="#XMLID_115_"  style="overflow:visible;"/>
							</clipPath>
							<g class="st39">
								<g>
									<path class="st4" d="M-16.5,7.5h33v266.9c0,32.2-26.3,58.4-58.5,58.4c-32.2,0-58.5-26.2-58.5-58.4v-30.9h33v30.9
										c0,13.8,11.7,25,25.5,25c13.8,0,25.5-11.2,25.5-25V7.5z"/>
									<g>
										<defs>
											<path id="SVGID_5_" d="M-16.5,7.5h33v266.9c0,32.2-26.3,58.4-58.5,58.4c-32.2,0-58.5-26.2-58.5-58.4v-30.9h33v30.9
												c0,13.8,11.7,25,25.5,25c13.8,0,25.5-11.2,25.5-25V7.5z"/>
										</defs>
										<clipPath id="SVGID_6_">
											<use xlink:href="#SVGID_5_"  style="overflow:visible;"/>
										</clipPath>
										<g class="st40">
											<line class="st35" x1="42.8" y1="289" x2="-112.9" y2="355.9"/>
											<line class="st35" x1="42.8" y1="260.4" x2="-112.9" y2="327.4"/>
											<line class="st35" x1="42.8" y1="231.9" x2="-112.9" y2="298.8"/>
											<line class="st35" x1="42.8" y1="203.4" x2="-112.9" y2="270.3"/>
											<line class="st35" x1="42.8" y1="174.8" x2="-112.9" y2="241.7"/>
											<line class="st35" x1="42.8" y1="146.3" x2="-112.9" y2="213.2"/>
											<line class="st35" x1="42.8" y1="117.8" x2="-112.9" y2="184.7"/>
											<line class="st35" x1="42.8" y1="89.2" x2="-112.9" y2="156.1"/>
											<line class="st35" x1="42.8" y1="60.7" x2="-112.9" y2="127.6"/>
											<line class="st35" x1="42.8" y1="32.1" x2="-112.9" y2="99.1"/>
											<line class="st35" x1="42.8" y1="3.6" x2="-112.9" y2="70.5"/>
											<line class="st35" x1="42.8" y1="-24.9" x2="-112.9" y2="42"/>
											<line class="st35" x1="42.8" y1="-53.5" x2="-112.9" y2="13.4"/>
										</g>
									</g>
								</g>
							</g>
						</g>
						<line class="st36" x1="-10" y1="6.5" x2="-10" y2="205.5"/>
					</g>
				</g>
				<g>
					<path class="st11" d="M-18.9,15.5c0,3.9,9.1,7.2,20.2,7.2s20.2-3,20.2-6.9V-4.5h-40.9L-18.9,15.5z"/>
				</g>
			</g>
			<g>
				<g>
					<path class="st11" d="M-1178.7,217.6c0-3.9-9.8-7-20.9-7s-20.9,3.2-20.9,7.1v14.7h41.6L-1178.7,217.6z"/>
					<ellipse class="st11" cx="-1198.9" cy="232.8" rx="20.1" ry="7"/>
					<ellipse class="st4" cx="-1198.9" cy="217.8" rx="20.1" ry="7"/>
				</g>
				<g>
					<g>
						<g>
							<defs>
								<rect id="XMLID_113_" x="-1242.5" y="11.5" width="67" height="205"/>
							</defs>
							<clipPath id="XMLID_11_">
								<use xlink:href="#XMLID_113_"  style="overflow:visible;"/>
							</clipPath>
							<g class="st41">
								<g>
									<path class="st4" d="M-1216.5,7.5h33v266.9c0,32.2-26.3,58.4-58.5,58.4c-32.2,0-58.5-26.2-58.5-58.4v-30.9h33v30.9
										c0,13.8,11.7,25,25.5,25c13.8,0,25.5-11.2,25.5-25V7.5z"/>
									<g>
										<defs>
											<path id="SVGID_7_" d="M-1216.5,7.5h33v266.9c0,32.2-26.3,58.4-58.5,58.4c-32.2,0-58.5-26.2-58.5-58.4v-30.9h33v30.9
												c0,13.8,11.7,25,25.5,25c13.8,0,25.5-11.2,25.5-25V7.5z"/>
										</defs>
										<clipPath id="SVGID_8_">
											<use xlink:href="#SVGID_7_"  style="overflow:visible;"/>
										</clipPath>
										<g class="st42">
											<line class="st35" x1="-1157.2" y1="289" x2="-1312.9" y2="355.9"/>
											<line class="st35" x1="-1157.2" y1="260.4" x2="-1312.9" y2="327.4"/>
											<line class="st35" x1="-1157.2" y1="231.9" x2="-1312.9" y2="298.8"/>
											<line class="st35" x1="-1157.2" y1="203.4" x2="-1312.9" y2="270.3"/>
											<line class="st35" x1="-1157.2" y1="174.8" x2="-1312.9" y2="241.7"/>
											<line class="st35" x1="-1157.2" y1="146.3" x2="-1312.9" y2="213.2"/>
											<line class="st35" x1="-1157.2" y1="117.8" x2="-1312.9" y2="184.7"/>
											<line class="st35" x1="-1157.2" y1="89.2" x2="-1312.9" y2="156.1"/>
											<line class="st35" x1="-1157.2" y1="60.7" x2="-1312.9" y2="127.6"/>
											<line class="st35" x1="-1157.2" y1="32.1" x2="-1312.9" y2="99.1"/>
											<line class="st35" x1="-1157.2" y1="3.6" x2="-1312.9" y2="70.5"/>
											<line class="st35" x1="-1157.2" y1="-24.9" x2="-1312.9" y2="42"/>
											<line class="st35" x1="-1157.2" y1="-53.5" x2="-1312.9" y2="13.4"/>
										</g>
									</g>
								</g>
							</g>
						</g>
						<line class="st36" x1="-1210" y1="6.5" x2="-1210" y2="205.5"/>
					</g>
				</g>
				<g>
					<ellipse class="st11" cx="-1198.9" cy="15.8" rx="20.1" ry="7"/>
				</g>
			</g>
		</g>
		<g class="st0">
			<path class="st6" d="M21.2,65.3c0.8-0.1,1.4-0.8,1.3-1.6c-0.3-2.4-2.5-4.2-5-3.9c0,0,0,0,0,0c-0.8,0.1-1.4,0.8-1.3,1.6
				c0.1,0.8,0.8,1.4,1.6,1.3c0.8-0.1,1.6,0.5,1.7,1.4C19.6,64.9,20.4,65.4,21.2,65.3C21.2,65.3,21.2,65.3,21.2,65.3z"/>
			<path class="st8" d="M21.2,65.3c0.8-0.1,1.4-0.8,1.3-1.6c-0.3-2.4-2.5-4.2-5-3.9c0,0,0,0,0,0c-0.8,0.1-1.4,0.8-1.3,1.6
				c0.1,0.8,0.8,1.4,1.6,1.3c0.8-0.1,1.6,0.5,1.7,1.4C19.6,64.9,20.4,65.4,21.2,65.3C21.2,65.3,21.2,65.3,21.2,65.3z"/>
			<path class="st6" d="M20.4,62.2L16,62.7c0,0,0,0,0,0c-2.1,0.3-3.7,2.2-3.4,4.3c0.3,2.1,2.2,3.7,4.4,3.4c0,0,4.4-0.5,4.4-0.5
				c2.1-0.3,3.7-2.2,3.4-4.4C24.5,63.4,22.6,61.9,20.4,62.2z"/>
			<g>
				<path class="st4" d="M21.1,61.6c-0.1-0.8,0.5-1.5,1.3-1.6l1.5-0.2c0.8-0.1,1.5,0.5,1.6,1.3l0.9,7.8c0.1,0.8-0.5,1.5-1.3,1.6
					l-1.5,0.2c-0.8,0.1-1.5-0.5-1.6-1.3L21.1,61.6z"/>
			</g>
		</g>
	</g>
</g>
</svg>
