<?xml version="1.0" encoding="utf-8"?>
<!-- Generator: Adobe Illustrator 19.1.0, SVG Export Plug-In . SVG Version: 6.00 Build 0)  -->
<svg version="1.1" id="Layer_1" xmlns="http://www.w3.org/2000/svg" xmlns:xlink="http://www.w3.org/1999/xlink" x="0px" y="0px"
	 viewBox="0 0 82 137" style="enable-background:new 0 0 82 137;" xml:space="preserve">
<style type="text/css">
	.st0{clip-path:url(#XMLID_2_);}
	.st1{fill:#F58720;}
	.st2{fill:#FECC81;}
	.st3{opacity:0.2;fill:#231F20;}
	.st4{fill:#E53A35;}
	.st5{fill:#212121;}
	.st6{fill:#FFFFFF;}
	.st7{opacity:0.15;fill:#231F20;}
	.st8{fill:#F9CE1E;}
	.st9{fill:none;stroke:#E53A35;stroke-width:8.7826;stroke-linecap:round;stroke-miterlimit:10;}
	.st10{opacity:5.000000e-02;fill:#231F20;}
	.st11{fill:#EF9A9B;}
	.st12{fill:#F7CBAE;}
	.st13{fill:#D85327;}
	.st14{fill:#F15C25;}
	.st15{fill:#B24425;}
	.st16{fill:#FFE29B;}
	.st17{fill:#E0E0E0;}
	.st18{fill:#735F4E;}
	.st19{fill:#BCE5FA;}
	.st20{clip-path:url(#XMLID_3_);}
	.st21{clip-path:url(#SVGID_2_);}
	.st22{fill:none;stroke:#CC382C;stroke-width:11.9318;stroke-miterlimit:10;}
	.st23{fill:none;stroke:#FFFFFF;stroke-width:5;stroke-miterlimit:10;}
	.st24{clip-path:url(#XMLID_4_);}
	.st25{clip-path:url(#SVGID_4_);}
	.st26{clip-path:url(#XMLID_5_);}
	.st27{clip-path:url(#SVGID_6_);}
	.st28{clip-path:url(#XMLID_6_);}
	.st29{clip-path:url(#SVGID_8_);}
</style>
<g>
	<g>
		<defs>
			<rect id="XMLID_107_" x="0.4" y="0.1" width="81.2" height="136.9"/>
		</defs>
		<clipPath id="XMLID_2_">
			<use xlink:href="#XMLID_107_"  style="overflow:visible;"/>
		</clipPath>
		<g class="st0">
			<path class="st1" d="M53.6,174.5c0,7.6-17.7,13.8-39.3,13.8s-39.3-6-39.3-13.6v-35.2h78.5L53.6,174.5z"/>
			<ellipse class="st2" cx="14.4" cy="140" rx="39.2" ry="13.7"/>
		</g>
		<g class="st0">
			<g>
				<ellipse class="st3" cx="62.4" cy="109.8" rx="25.6" ry="2.2"/>
				<rect x="63.7" y="79.8" class="st4" width="10.2" height="13.4"/>
				<path class="st5" d="M73.9,97.6v5.1c3.9,0,7.1,3.2,7.1,7.1h-7.1H63.7V97.6H73.9z"/>
				<rect x="63.7" y="93.2" class="st6" width="10.2" height="4.4"/>
				<rect x="51" y="79.8" class="st4" width="10.2" height="13.4"/>
				<path class="st5" d="M51,97.6v5.1c-3.9,0-7.1,3.2-7.1,7.1H51h10.2V97.6H51z"/>
				<rect x="51" y="93.2" class="st6" width="10.2" height="4.4"/>
				<g>
					<circle class="st4" cx="62.7" cy="66.6" r="18.1"/>
					<path class="st7" d="M62.7,48.6c-4.2,0-8,1.4-11.1,3.8c3.2,5.3,9.1,8.9,15.9,8.9c0,0,0,0,0.1,0c0,0,0,0,0.1,0
						c4.1,0,7.6-2.7,8.7-6.5C73,51,68.1,48.6,62.7,48.6z"/>
					<rect x="44.6" y="66.6" class="st5" width="36.1" height="5.9"/>
					<rect x="58.5" y="66.6" class="st8" width="7.8" height="5.9"/>
					<path class="st7" d="M69.3,49.8c4.7,3.3,7.8,8.7,7.8,14.8c0,10-8.1,18.1-18.1,18.1c-2.3,0-4.6-0.4-6.6-1.3
						c2.9,2,6.4,3.2,10.3,3.2c10,0,18.1-8.1,18.1-18.1C80.7,59,76,52.5,69.3,49.8z"/>
				</g>
				<g>
					<path class="st9" d="M49.5,54.3c-9.7,1.7-14.3,12.3-5.3,16.4"/>
					<path class="st8" d="M44.8,70.8c-0.7-0.3-1.1-1.2-0.7-1.9c1-2.2,3.7-3.3,5.9-2.3c0,0,0,0,0,0c0.7,0.3,1.1,1.2,0.7,1.9
						c-0.3,0.7-1.2,1.1-1.9,0.7c-0.8-0.3-1.7,0-2,0.8C46.4,70.8,45.5,71.1,44.8,70.8C44.8,70.8,44.8,70.8,44.8,70.8z"/>
					<path class="st10" d="M44.8,70.8c-0.7-0.3-1.1-1.2-0.7-1.9c1-2.2,3.7-3.3,5.9-2.3c0,0,0,0,0,0c0.7,0.3,1.1,1.2,0.7,1.9
						c-0.3,0.7-1.2,1.1-1.9,0.7c-0.8-0.3-1.7,0-2,0.8C46.4,70.8,45.5,71.1,44.8,70.8C44.8,70.8,44.8,70.8,44.8,70.8z"/>
					<path class="st8" d="M46.4,67.9l4,1.8c0,0,0,0,0,0c2,0.9,2.8,3.2,2,5.2c-0.9,2-3.2,2.8-5.2,2c0,0-4-1.8-4-1.8
						c-2-0.9-2.8-3.2-2-5.2C42.2,67.9,44.5,67.1,46.4,67.9z"/>
					<g>
						<path class="st6" d="M46,67.2c0.3-0.7,0-1.6-0.7-1.9l-1.3-0.6c-0.7-0.3-1.6,0-1.9,0.7l-3.2,7.1c-0.3,0.7,0,1.6,0.7,1.9
							l1.3,0.6c0.7,0.3,1.6,0,1.9-0.7L46,67.2z"/>
					</g>
				</g>
				<g>
					<path class="st9" d="M75.6,54.3C85.3,56,89.9,66.6,81,70.7"/>
					<path class="st8" d="M80.3,70.8c0.7-0.3,1.1-1.2,0.7-1.9c-1-2.2-3.7-3.3-5.9-2.3c0,0,0,0,0,0c-0.7,0.3-1.1,1.2-0.7,1.9
						c0.3,0.7,1.2,1.1,1.9,0.7c0.8-0.3,1.7,0,2,0.8C78.7,70.8,79.6,71.1,80.3,70.8C80.3,70.8,80.3,70.8,80.3,70.8z"/>
					<path class="st10" d="M80.3,70.8c0.7-0.3,1.1-1.2,0.7-1.9c-1-2.2-3.7-3.3-5.9-2.3c0,0,0,0,0,0c-0.7,0.3-1.1,1.2-0.7,1.9
						c0.3,0.7,1.2,1.1,1.9,0.7c0.8-0.3,1.7,0,2,0.8C78.7,70.8,79.6,71.1,80.3,70.8C80.3,70.8,80.3,70.8,80.3,70.8z"/>
					<path class="st8" d="M78.7,67.9l-4,1.8c0,0,0,0,0,0c-2,0.9-2.8,3.2-2,5.2c0.9,2,3.2,2.8,5.2,2c0,0,4-1.8,4-1.8
						c2-0.9,2.8-3.2,2-5.2C83,67.9,80.7,67.1,78.7,67.9z"/>
					<g>
						<path class="st6" d="M79.1,67.2c-0.3-0.7,0-1.6,0.7-1.9l1.3-0.6c0.7-0.3,1.6,0,1.9,0.7l3.2,7.1c0.3,0.7,0,1.6-0.7,1.9
							l-1.3,0.6c-0.7,0.3-1.6,0-1.9-0.7L79.1,67.2z"/>
					</g>
				</g>
				<g>
					<ellipse class="st11" cx="53.5" cy="40.3" rx="2.7" ry="2.7"/>
					<ellipse class="st11" cx="71.4" cy="40.3" rx="2.7" ry="2.7"/>
					<circle class="st6" cx="49.5" cy="25.9" r="2.9"/>
					<g>
						<g>
							<path class="st12" d="M62.4,31.7c-5.4,0-9.8,4.4-9.8,9.8v9.8h19.5v-9.8C72.2,36.1,67.8,31.7,62.4,31.7z"/>
						</g>
					</g>
					<g>
						<g>
							<path class="st6" d="M65.1,41C65.1,41,65.1,41,65.1,41H46.6c0,10,8.3,18.1,18.4,18.1c0,0,0,0,0.1,0c0,0,0,0,0,0c5,0,9-4,9-9
								S70.1,41,65.1,41z"/>
						</g>
					</g>
					<ellipse class="st11" cx="62.4" cy="41" rx="2.7" ry="2.2"/>
					<path class="st5" d="M64.4,43.9c0,1.1-0.9,2-2,2c-1.1,0-2-0.9-2-2H64.4z"/>
					<path class="st4" d="M53.8,25.9c0,0-0.1,0-0.1,0v11.7h18.5C72.2,31.1,64,25.9,53.8,25.9z"/>
					<g>
						<path class="st6" d="M72.2,31.7c0.8,0,1.5,0.7,1.5,1.5v2.9c0,0.8-0.7,1.5-1.5,1.5H52.7c-0.8,0-1.5-0.7-1.5-1.5v-2.9
							c0-0.8,0.7-1.5,1.5-1.5H72.2z"/>
					</g>
					<path class="st5" d="M58.5,39.1c0,0.4-0.3,0.7-0.7,0.7c-0.4,0-0.7-0.3-0.7-0.7c0-0.4,0.3-0.7,0.7-0.7
						C58.2,38.3,58.5,38.7,58.5,39.1z"/>
					<path class="st5" d="M66.4,39.1c0,0.4,0.3,0.7,0.7,0.7c0.4,0,0.7-0.3,0.7-0.7c0-0.4-0.3-0.7-0.7-0.7
						C66.7,38.3,66.4,38.7,66.4,39.1z"/>
				</g>
			</g>
			<rect x="12" y="123.5" class="st1" width="5" height="17"/>
			<g>
				<g>
					
						<ellipse transform="matrix(-0.7005 -0.7136 0.7136 -0.7005 -5.3303 210.8717)" class="st13" cx="41.6" cy="106.6" rx="4.4" ry="5.3"/>
					<path class="st14" d="M38.5,103.2c-2.1,1.6-2.4,3.9-0.7,5.2c1.7,1.3,4.7,1.1,6.8-0.4c2.1-1.6,2.4-3.9,0.7-5.2
						C43.6,101.4,40.6,101.6,38.5,103.2z"/>
					
						<ellipse transform="matrix(-0.9637 -0.2669 0.2669 -0.9637 64.6662 203.5412)" class="st14" cx="46.2" cy="97.4" rx="6.5" ry="7.8"/>
					
						<ellipse transform="matrix(-0.9637 -0.2669 0.2669 -0.9637 64.6662 203.5412)" class="st13" cx="46.2" cy="97.4" rx="6.5" ry="7.8"/>
					<path class="st14" d="M40.9,94.3c-1,3,0.6,6.1,3.6,6.8c3,0.7,6.2-1.2,7.2-4.2c1-3-0.6-6.1-3.6-6.8
						C45.1,89.3,41.9,91.2,40.9,94.3z"/>
					
						<ellipse transform="matrix(0.7005 -0.7136 0.7136 0.7005 -79.6254 23.3689)" class="st13" cx="-12" cy="106.6" rx="4.4" ry="5.3"/>
					<path class="st14" d="M-8.9,103.2c2.1,1.6,2.4,3.9,0.7,5.2c-1.7,1.3-4.7,1.1-6.8-0.4c-2.1-1.6-2.4-3.9-0.7-5.2
						C-14,101.4-11,101.6-8.9,103.2z"/>
					<path class="st15" d="M29.6,116.7c0,0,26,0.8,22.6,19.6c0,0-0.9-18.3-24-14.2L29.6,116.7z"/>
					<path class="st15" d="M29,115.9c0,0,24.1,10,14.7,26.5c0,0,5.3-17.4-17.8-21.9L29,115.9z"/>
					<path class="st15" d="M27.2,113.1c0,0,19.3,18,4.9,30.1c0,0,10.8-14.5-9.4-26.8L27.2,113.1z"/>
					<path class="st15" d="M0,116.7c0,0-26,0.8-22.6,19.6c0,0,0.9-18.3,24-14.2L0,116.7z"/>
					<path class="st15" d="M0.6,115.9c0,0-24.1,10-14.7,26.5c0,0-5.3-17.4,17.8-21.9L0.6,115.9z"/>
					<path class="st15" d="M2.4,113.1c0,0-19.3,18-4.9,30.1c0,0-10.8-14.5,9.4-26.8L2.4,113.1z"/>
					<ellipse class="st15" cx="14.5" cy="115.1" rx="21.4" ry="10.8"/>
					<path class="st15" d="M-9.8,109.6c0,5,10.9,9.1,24.4,9.1c13.4,0,24.4-4.1,24.4-9.1s-10.9-7.7-24.4-7.7
						C1.1,101.9-9.8,104.5-9.8,109.6z"/>
					<path class="st13" d="M-11.8,107.6c0,5.2,11.7,9.4,26.2,9.4c14.5,0,26.2-4.2,26.2-9.4c0-4.5-9-8.3-21-9.2
						c-1.7-0.1-3.5,2.9-5.3,2.9c-1.7,0-3.3-3.1-4.9-3C-2.5,99.2-11.8,103-11.8,107.6z"/>
					<path class="st14" d="M-10.3,107.5c0,5.1,11.1,6.9,24.9,6.9c13.7,0,24.9-1.9,24.9-6.9c0-4.4-8.5-8.2-19.9-9
						c-1.6-0.1-3.3,2.9-5,2.9c-1.6,0-3.1-3-4.6-2.9C-1.6,99.2-10.3,103-10.3,107.5z"/>
					<rect x="23" y="92.5" class="st14" width="2" height="11"/>
					<rect x="5" y="92.5" class="st14" width="1" height="11"/>
					
						<ellipse transform="matrix(0.9637 -0.2669 0.2669 0.9637 -26.588 -0.8854)" class="st14" cx="-16.6" cy="97.4" rx="6.5" ry="7.8"/>
					
						<ellipse transform="matrix(0.9637 -0.2669 0.2669 0.9637 -26.588 -0.8854)" class="st13" cx="-16.6" cy="97.4" rx="6.5" ry="7.8"/>
					<path class="st14" d="M-11.3,94.3c1,3-0.6,6.1-3.6,6.8c-3,0.7-6.2-1.2-7.2-4.2c-1-3,0.6-6.1,3.6-6.8
						C-15.5,89.3-12.3,91.2-11.3,94.3z"/>
					<g>
						<circle class="st16" cx="24.1" cy="90.4" r="3"/>
						<path class="st14" d="M20.1,90.4c0-2.2,1.8-4,4-4c2.2,0,4,1.8,4,4c0,2.2-1.8,4-4,4C21.9,94.4,20.1,92.6,20.1,90.4z M22,90.4
							c0,1.1,0.9,2.1,2.1,2.1c1.1,0,2.1-0.9,2.1-2.1c0-1.1-0.9-2.1-2.1-2.1C23,88.4,22,89.3,22,90.4z"/>
					</g>
					<g>
						<circle class="st16" cx="6" cy="90.4" r="3"/>
						<path class="st14" d="M2,90.4c0-2.2,1.8-4,4-4c2.2,0,4,1.8,4,4c0,2.2-1.8,4-4,4C3.8,94.4,2,92.6,2,90.4z M3.9,90.4
							c0,1.1,0.9,2.1,2.1,2.1c1.1,0,2.1-0.9,2.1-2.1c0-1.1-0.9-2.1-2.1-2.1C4.8,88.4,3.9,89.3,3.9,90.4z"/>
					</g>
					<circle class="st17" cx="24.1" cy="90" r="3"/>
					<circle class="st18" cx="24.2" cy="90" r="1.3"/>
					<circle class="st17" cx="6" cy="90" r="3"/>
					<circle class="st18" cx="5.8" cy="90" r="1.3"/>
				</g>
			</g>
			<g>
				<path class="st13" d="M46.4,88.6c-0.1-0.9,0.9-2,0.8-3c-0.1-1-1.5-1.8-1.7-2.8c-0.2-1,0.9-2,0.8-3S44.7,78,44.5,77
					c-0.2-1,0.9-2,0.8-3c-0.2-1-1.5-1.9-1.7-2.8c-0.2-1,0.9-2.1,0.8-3c-0.2-1-1.5-1.9-1.7-2.8c-0.2-1.1,0.9-2.2,0.8-3
					c-0.2-1.1-0.6-1.3-1-1.7c0.1,0,0.2,0,0.3,0c5.4-0.4,11.3,9.2,12.5,17c1.2,7.8-2.1,14.4-7.4,14.8c0.2-0.4,0.3-0.8,0.2-1.2
					C47.9,90.5,46.5,89.6,46.4,88.6z"/>
				<g>
					<path class="st14" d="M46.4,88.6c-0.1-0.9,0.9-2,0.8-3c-0.1-1-1.5-1.8-1.7-2.8c-0.2-1,0.9-2,0.8-3S44.7,78,44.5,77
						c-0.2-1,0.9-2,0.8-3c-0.2-1-1.5-1.9-1.7-2.8c-0.2-1,0.9-2.1,0.8-3c-0.2-1-1.5-1.9-1.7-2.8c-0.2-1.1,0.9-2.2,0.8-3
						c-0.2-1.1-0.6-1.3-1-1.7c0.1,0,0.2,0,0.3,0C48.1,60.4,53,70.1,53.8,78c0.8,7.2-2.5,10.7-6.5,12.3
						C46.9,89.6,46.5,89.3,46.4,88.6z"/>
				</g>
				<path class="st13" d="M33.5,84.3c-3.8-6.9-4.9-17.7-0.5-20.5c0.5,0.2,1,0.3,1.5,1.2c0.4,0.7-0.2,2.2,0.4,3.2
					c0.4,0.8,2,1.1,2.5,2c0.5,0.8-0.1,2.3,0.4,3.2c0.5,0.8,2,1.1,2.5,2c0.5,0.9-0.1,2.3,0.4,3.2c0.5,0.9,2,1.2,2.5,2
					c0.5,0.9-0.1,2.3,0.4,3.2c0.5,0.9,2,1.2,2.5,2c0.5,0.9-0.1,2.3,0.4,3.2c0.5,0.9,2,1.2,2.5,2c0.2,0.3,0.2,0.8,0.2,1.2
					c0,0-0.1,0-0.1,0C44.2,95.1,37.3,91.4,33.5,84.3z"/>
				<g>
					<path class="st14" d="M33,63.9c0.5,0.2,1,0.3,1.5,1.2c0.4,0.7-0.2,2.2,0.4,3.2c0.4,0.8,2,1.1,2.5,2c0.5,0.8-0.1,2.3,0.4,3.2
						c0.5,0.8,2,1.1,2.5,2c0.5,0.9-0.1,2.3,0.4,3.2c0.5,0.9,2,1.2,2.5,2c0.5,0.9-0.1,2.3,0.4,3.2c0.5,0.9,2,1.2,2.5,2
						c0.5,0.9-0.1,2.3,0.4,3.2c0.2,0.4,0.6,0.7,1.1,0.9c-4,0.8-9.2-0.6-12.7-6.6C30.6,76.8,28.6,66.7,33,63.9z"/>
				</g>
			</g>
			<g>
				<path class="st13" d="M-17.1,88.6c0.1-0.9-0.9-2-0.8-3c0.1-1,1.5-1.8,1.7-2.8c0.2-1-0.9-2-0.8-3s1.5-1.9,1.7-2.8
					c0.2-1-0.9-2-0.8-3c0.2-1,1.5-1.9,1.7-2.8c0.2-1-0.9-2.1-0.8-3c0.2-1,1.5-1.9,1.7-2.8c0.2-1.1-0.9-2.2-0.8-3
					c0.2-1.1,0.6-1.3,1-1.7c-0.1,0-0.2,0-0.3,0c-5.4-0.4-11.3,9.2-12.5,17c-1.2,7.8,2.1,14.4,7.4,14.8c-0.2-0.4-0.3-0.8-0.2-1.2
					C-18.6,90.5-17.3,89.6-17.1,88.6z"/>
				<g>
					<path class="st14" d="M-17.1,88.6c0.1-0.9-0.9-2-0.8-3c0.1-1,1.5-1.8,1.7-2.8c0.2-1-0.9-2-0.8-3s1.5-1.9,1.7-2.8
						c0.2-1-0.9-2-0.8-3c0.2-1,1.5-1.9,1.7-2.8c0.2-1-0.9-2.1-0.8-3c0.2-1,1.5-1.9,1.7-2.8c0.2-1.1-0.9-2.2-0.8-3
						c0.2-1.1,0.6-1.3,1-1.7c-0.1,0-0.2,0-0.3,0c-5.4-0.4-10.3,9.4-11.1,17.2c-0.8,7.2,2.5,10.7,6.5,12.3
						C-17.7,89.6-17.2,89.3-17.1,88.6z"/>
				</g>
				<path class="st13" d="M-4.2,84.3c3.8-6.9,4.9-17.7,0.5-20.5c-0.5,0.2-1,0.3-1.5,1.2c-0.4,0.7,0.2,2.2-0.4,3.2
					c-0.4,0.8-2,1.1-2.5,2c-0.5,0.8,0.1,2.3-0.4,3.2c-0.5,0.8-2,1.1-2.5,2c-0.5,0.9,0.1,2.3-0.4,3.2c-0.5,0.9-2,1.2-2.5,2
					c-0.5,0.9,0.1,2.3-0.4,3.2c-0.5,0.9-2,1.2-2.5,2c-0.5,0.9,0.1,2.3-0.4,3.2c-0.5,0.9-2,1.2-2.5,2c-0.2,0.3-0.2,0.8-0.2,1.2
					c0,0,0.1,0,0.1,0C-14.9,95.1-8,91.4-4.2,84.3z"/>
				<g>
					<path class="st14" d="M-3.7,63.9c-0.5,0.2-1,0.3-1.5,1.2c-0.4,0.7,0.2,2.2-0.4,3.2c-0.4,0.8-2,1.1-2.5,2
						c-0.5,0.8,0.1,2.3-0.4,3.2c-0.5,0.8-2,1.1-2.5,2c-0.5,0.9,0.1,2.3-0.4,3.2c-0.5,0.9-2,1.2-2.5,2c-0.5,0.9,0.1,2.3-0.4,3.2
						c-0.5,0.9-2,1.2-2.5,2c-0.5,0.9,0.1,2.3-0.4,3.2c-0.2,0.4-0.6,0.7-1.1,0.9c4,0.8,9.2-0.6,12.7-6.6C-1.4,76.8,0.7,66.7-3.7,63.9
						z"/>
				</g>
			</g>
		</g>
		<g class="st0">
			<g>
				<g>
					<path class="st19" d="M-293.3,188.4c0-3.9-9.7-7.1-20.9-7.1c-11.1,0-20.9,3.1-20.9,7v15.3h41.5L-293.3,188.4z"/>
					<ellipse class="st19" cx="-313.5" cy="203.2" rx="20.1" ry="7"/>
					<ellipse class="st6" cx="-313.5" cy="188.2" rx="20.1" ry="7"/>
				</g>
				<g>
					<g>
						<g>
							<defs>
								<polygon id="XMLID_111_" points="-357,187.3 -357,-17.7 -274.9,-22.7 -273,186.7 								"/>
							</defs>
							<clipPath id="XMLID_3_">
								<use xlink:href="#XMLID_111_"  style="overflow:visible;"/>
							</clipPath>
							<g class="st20">
								<g>
									<path class="st6" d="M-331-21.5h33v266.4c0,32.2-26.3,58.4-58.5,58.4c-32.2,0-58.5-26.2-58.5-58.4v-30.4h33v30.4
										c0,13.8,11.7,25,25.5,25c13.8,0,25.5-11.2,25.5-25V-21.5z"/>
									<g>
										<defs>
											<path id="SVGID_1_" d="M-331-21.5h33v266.4c0,32.2-26.3,58.4-58.5,58.4c-32.2,0-58.5-26.2-58.5-58.4v-30.4h33v30.4
												c0,13.8,11.7,25,25.5,25c13.8,0,25.5-11.2,25.5-25V-21.5z"/>
										</defs>
										<clipPath id="SVGID_2_">
											<use xlink:href="#SVGID_1_"  style="overflow:visible;"/>
										</clipPath>
										<g class="st21">
											<line class="st22" x1="-271.7" y1="259.5" x2="-427.4" y2="326.4"/>
											<line class="st22" x1="-271.7" y1="230.9" x2="-427.4" y2="297.8"/>
											<line class="st22" x1="-271.7" y1="202.4" x2="-427.4" y2="269.3"/>
											<line class="st22" x1="-271.7" y1="173.8" x2="-427.4" y2="240.8"/>
											<line class="st22" x1="-271.7" y1="145.3" x2="-427.4" y2="212.2"/>
											<line class="st22" x1="-271.7" y1="116.8" x2="-427.4" y2="183.7"/>
											<line class="st22" x1="-271.7" y1="88.2" x2="-427.4" y2="155.1"/>
											<line class="st22" x1="-271.7" y1="59.7" x2="-427.4" y2="126.6"/>
											<line class="st22" x1="-271.7" y1="31.1" x2="-427.4" y2="98.1"/>
											<line class="st22" x1="-271.7" y1="2.6" x2="-427.4" y2="69.5"/>
											<line class="st22" x1="-271.7" y1="-25.9" x2="-427.4" y2="41"/>
											<line class="st22" x1="-271.7" y1="-54.5" x2="-427.4" y2="12.4"/>
											<line class="st22" x1="-271.7" y1="-83" x2="-427.4" y2="-16.1"/>
										</g>
									</g>
								</g>
							</g>
						</g>
						<line class="st23" x1="-324.5" y1="-22.5" x2="-324.5" y2="176.5"/>
					</g>
				</g>
				<g>
					<path class="st19" d="M-293.3-28.6c0-3.9-9.7-7.1-20.9-7.1c-11.1,0-20.9,3.1-20.9,7v15.3h41.5L-293.3-28.6z"/>
					<ellipse class="st19" cx="-313.5" cy="-13.8" rx="20.1" ry="7"/>
					<ellipse class="st6" cx="-313.5" cy="-28.8" rx="20.1" ry="7"/>
				</g>
			</g>
			<g>
				<g>
					<path class="st19" d="M106.7,194.4c0-3.9-9.7-7.1-20.9-7.1s-20.9,3.1-20.9,7v15.3h41.5L106.7,194.4z"/>
					<ellipse class="st19" cx="86.5" cy="209.2" rx="20.1" ry="7"/>
					<ellipse class="st6" cx="86.5" cy="194.2" rx="20.1" ry="7"/>
				</g>
				<g>
					<g>
						<g>
							<defs>
								<rect id="XMLID_110_" x="43" y="-11.5" width="67" height="205"/>
							</defs>
							<clipPath id="XMLID_4_">
								<use xlink:href="#XMLID_110_"  style="overflow:visible;"/>
							</clipPath>
							<g class="st24">
								<g>
									<path class="st6" d="M69-15.5h33v266.4c0,32.2-26.3,58.4-58.5,58.4c-32.2,0-58.5-26.2-58.5-58.4v-30.4h33v30.4
										c0,13.8,11.7,25,25.5,25c13.8,0,25.5-11.2,25.5-25V-15.5z"/>
									<g>
										<defs>
											<path id="SVGID_3_" d="M69-15.5h33v266.4c0,32.2-26.3,58.4-58.5,58.4c-32.2,0-58.5-26.2-58.5-58.4v-30.4h33v30.4
												c0,13.8,11.7,25,25.5,25c13.8,0,25.5-11.2,25.5-25V-15.5z"/>
										</defs>
										<clipPath id="SVGID_4_">
											<use xlink:href="#SVGID_3_"  style="overflow:visible;"/>
										</clipPath>
										<g class="st25">
											<line class="st22" x1="128.3" y1="265.5" x2="-27.4" y2="332.4"/>
											<line class="st22" x1="128.3" y1="236.9" x2="-27.4" y2="303.8"/>
											<line class="st22" x1="128.3" y1="208.4" x2="-27.4" y2="275.3"/>
											<line class="st22" x1="128.3" y1="179.8" x2="-27.4" y2="246.8"/>
											<line class="st22" x1="128.3" y1="151.3" x2="-27.4" y2="218.2"/>
											<line class="st22" x1="128.3" y1="122.8" x2="-27.4" y2="189.7"/>
											<line class="st22" x1="128.3" y1="94.2" x2="-27.4" y2="161.1"/>
											<line class="st22" x1="128.3" y1="65.7" x2="-27.4" y2="132.6"/>
											<line class="st22" x1="128.3" y1="37.1" x2="-27.4" y2="104.1"/>
											<line class="st22" x1="128.3" y1="8.6" x2="-27.4" y2="75.5"/>
											<line class="st22" x1="128.3" y1="-19.9" x2="-27.4" y2="47"/>
											<line class="st22" x1="128.3" y1="-48.5" x2="-27.4" y2="18.4"/>
											<line class="st22" x1="128.3" y1="-77" x2="-27.4" y2="-10.1"/>
										</g>
									</g>
								</g>
							</g>
						</g>
						<line class="st23" x1="75.5" y1="-16.5" x2="75.5" y2="182.5"/>
					</g>
				</g>
				<g>
					<ellipse class="st19" cx="86.5" cy="-7.8" rx="20.1" ry="7"/>
					<ellipse class="st6" cx="86.5" cy="-22.8" rx="20.1" ry="7"/>
				</g>
			</g>
			<g>
				<g>
					<path class="st19" d="M506.7,260.4c0-3.9-9.7-7.1-20.9-7.1c-11.1,0-20.9,3.1-20.9,7v15.3h41.5L506.7,260.4z"/>
					<ellipse class="st19" cx="486.5" cy="275.2" rx="20.1" ry="7"/>
					<ellipse class="st6" cx="486.5" cy="260.2" rx="20.1" ry="7"/>
				</g>
				<g>
					<g>
						<g>
							<defs>
								<rect id="XMLID_109_" x="443" y="54.5" width="67" height="205"/>
							</defs>
							<clipPath id="XMLID_5_">
								<use xlink:href="#XMLID_109_"  style="overflow:visible;"/>
							</clipPath>
							<g class="st26">
								<g>
									<path class="st6" d="M469,50.5h33v266.4c0,32.2-26.3,58.4-58.5,58.4c-32.2,0-58.5-26.2-58.5-58.4v-30.4h33v30.4
										c0,13.8,11.7,25,25.5,25c13.8,0,25.5-11.2,25.5-25V50.5z"/>
									<g>
										<defs>
											<path id="SVGID_5_" d="M469,50.5h33v266.4c0,32.2-26.3,58.4-58.5,58.4c-32.2,0-58.5-26.2-58.5-58.4v-30.4h33v30.4
												c0,13.8,11.7,25,25.5,25c13.8,0,25.5-11.2,25.5-25V50.5z"/>
										</defs>
										<clipPath id="SVGID_6_">
											<use xlink:href="#SVGID_5_"  style="overflow:visible;"/>
										</clipPath>
										<g class="st27">
											<line class="st22" x1="528.3" y1="331.5" x2="372.6" y2="398.4"/>
											<line class="st22" x1="528.3" y1="302.9" x2="372.6" y2="369.8"/>
											<line class="st22" x1="528.3" y1="274.4" x2="372.6" y2="341.3"/>
											<line class="st22" x1="528.3" y1="245.8" x2="372.6" y2="312.8"/>
											<line class="st22" x1="528.3" y1="217.3" x2="372.6" y2="284.2"/>
											<line class="st22" x1="528.3" y1="188.8" x2="372.6" y2="255.7"/>
											<line class="st22" x1="528.3" y1="160.2" x2="372.6" y2="227.1"/>
											<line class="st22" x1="528.3" y1="131.7" x2="372.6" y2="198.6"/>
											<line class="st22" x1="528.3" y1="103.1" x2="372.6" y2="170.1"/>
											<line class="st22" x1="528.3" y1="74.6" x2="372.6" y2="141.5"/>
											<line class="st22" x1="528.3" y1="46.1" x2="372.6" y2="113"/>
											<line class="st22" x1="528.3" y1="17.5" x2="372.6" y2="84.4"/>
											<line class="st22" x1="528.3" y1="-11" x2="372.6" y2="55.9"/>
										</g>
									</g>
								</g>
							</g>
						</g>
						<line class="st23" x1="475.5" y1="49.5" x2="475.5" y2="248.5"/>
					</g>
				</g>
				<g>
					<ellipse class="st19" cx="486.5" cy="58.2" rx="20.1" ry="7"/>
					<ellipse class="st6" cx="486.5" cy="43.2" rx="20.1" ry="7"/>
				</g>
			</g>
			<g>
				<g>
					<path class="st19" d="M-693.3,260.4c0-3.9-9.7-7.1-20.9-7.1c-11.1,0-20.9,3.1-20.9,7v15.3h41.5L-693.3,260.4z"/>
					<ellipse class="st19" cx="-713.5" cy="275.2" rx="20.1" ry="7"/>
					<ellipse class="st6" cx="-713.5" cy="260.2" rx="20.1" ry="7"/>
				</g>
				<g>
					<g>
						<g>
							<defs>
								<rect id="XMLID_108_" x="-757" y="54.5" width="67" height="205"/>
							</defs>
							<clipPath id="XMLID_6_">
								<use xlink:href="#XMLID_108_"  style="overflow:visible;"/>
							</clipPath>
							<g class="st28">
								<g>
									<path class="st6" d="M-731,50.5h33v266.4c0,32.2-26.3,58.4-58.5,58.4c-32.2,0-58.5-26.2-58.5-58.4v-30.4h33v30.4
										c0,13.8,11.7,25,25.5,25c13.8,0,25.5-11.2,25.5-25V50.5z"/>
									<g>
										<defs>
											<path id="SVGID_7_" d="M-731,50.5h33v266.4c0,32.2-26.3,58.4-58.5,58.4c-32.2,0-58.5-26.2-58.5-58.4v-30.4h33v30.4
												c0,13.8,11.7,25,25.5,25c13.8,0,25.5-11.2,25.5-25V50.5z"/>
										</defs>
										<clipPath id="SVGID_8_">
											<use xlink:href="#SVGID_7_"  style="overflow:visible;"/>
										</clipPath>
										<g class="st29">
											<line class="st22" x1="-671.7" y1="331.5" x2="-827.4" y2="398.4"/>
											<line class="st22" x1="-671.7" y1="302.9" x2="-827.4" y2="369.8"/>
											<line class="st22" x1="-671.7" y1="274.4" x2="-827.4" y2="341.3"/>
											<line class="st22" x1="-671.7" y1="245.8" x2="-827.4" y2="312.8"/>
											<line class="st22" x1="-671.7" y1="217.3" x2="-827.4" y2="284.2"/>
											<line class="st22" x1="-671.7" y1="188.8" x2="-827.4" y2="255.7"/>
											<line class="st22" x1="-671.7" y1="160.2" x2="-827.4" y2="227.1"/>
											<line class="st22" x1="-671.7" y1="131.7" x2="-827.4" y2="198.6"/>
											<line class="st22" x1="-671.7" y1="103.1" x2="-827.4" y2="170.1"/>
											<line class="st22" x1="-671.7" y1="74.6" x2="-827.4" y2="141.5"/>
											<line class="st22" x1="-671.7" y1="46.1" x2="-827.4" y2="113"/>
											<line class="st22" x1="-671.7" y1="17.5" x2="-827.4" y2="84.4"/>
											<line class="st22" x1="-671.7" y1="-11" x2="-827.4" y2="55.9"/>
										</g>
									</g>
								</g>
							</g>
						</g>
						<line class="st23" x1="-724.5" y1="49.5" x2="-724.5" y2="248.5"/>
					</g>
				</g>
				<g>
					<ellipse class="st19" cx="-713.5" cy="58.2" rx="20.1" ry="7"/>
				</g>
			</g>
		</g>
	</g>
</g>
</svg>
