<?xml version="1.0" encoding="utf-8"?>
<!-- Generator: Adobe Illustrator 19.1.0, SVG Export Plug-In . SVG Version: 6.00 Build 0)  -->
<svg version="1.1" id="Layer_1" xmlns="http://www.w3.org/2000/svg" xmlns:xlink="http://www.w3.org/1999/xlink" x="0px" y="0px"
	 viewBox="0 0 82 137" style="enable-background:new 0 0 82 137;" xml:space="preserve">
<style type="text/css">
	.st0{clip-path:url(#XMLID_2_);}
	.st1{opacity:0.2;fill:#231F20;}
	.st2{fill:#E53A35;}
	.st3{fill:#212121;}
	.st4{fill:#FFFFFF;}
	.st5{opacity:0.15;fill:#231F20;}
	.st6{fill:#F9CE1E;}
	.st7{fill:none;stroke:#E53A35;stroke-width:8.7826;stroke-linecap:round;stroke-miterlimit:10;}
	.st8{opacity:5.000000e-02;fill:#231F20;}
	.st9{fill:#EF9A9B;}
	.st10{fill:#F7CBAE;}
	.st11{fill:#BCE5FA;}
	.st12{clip-path:url(#XMLID_3_);}
	.st13{clip-path:url(#SVGID_2_);}
	.st14{fill:none;stroke:#CC382C;stroke-width:11.9318;stroke-miterlimit:10;}
	.st15{opacity:0.35;}
	.st16{fill:#739AAE;}
	.st17{fill:none;stroke:#FFFFFF;stroke-width:5;stroke-miterlimit:10;}
	.st18{clip-path:url(#XMLID_4_);fill:#36C2D6;}
	.st19{opacity:0.35;clip-path:url(#XMLID_4_);}
</style>
<g>
	<g>
		<defs>
			<rect id="XMLID_124_" width="82" height="137"/>
		</defs>
		<clipPath id="XMLID_2_">
			<use xlink:href="#XMLID_124_"  style="overflow:visible;"/>
		</clipPath>
		<g class="st0">
			<ellipse class="st1" cx="34.8" cy="118.5" rx="25.6" ry="2.2"/>
			<rect x="36.1" y="88.5" class="st2" width="10.2" height="13.4"/>
			<path class="st3" d="M46.3,106.3v5.1c3.9,0,7.1,3.2,7.1,7.1h-7.1H36.1v-12.2H46.3z"/>
			<rect x="36.1" y="101.9" class="st4" width="10.2" height="4.4"/>
			<rect x="23.4" y="88.5" class="st2" width="10.2" height="13.4"/>
			<path class="st3" d="M23.4,106.3v5.1c-3.9,0-7.1,3.2-7.1,7.1h7.1h10.2v-12.2H23.4z"/>
			<rect x="23.4" y="101.9" class="st4" width="10.2" height="4.4"/>
			<g>
				<circle class="st2" cx="35.1" cy="75.3" r="18.1"/>
				<path class="st5" d="M35.1,57.2c-4.2,0-8,1.4-11.1,3.8c3.2,5.3,9.1,8.9,15.9,8.9c0,0,0,0,0.1,0c0,0,0,0,0.1,0
					c4.1,0,7.6-2.7,8.7-6.5C45.4,59.6,40.5,57.2,35.1,57.2z"/>
				<rect x="17.1" y="75.3" class="st3" width="36.1" height="5.9"/>
				<rect x="31" y="75.3" class="st6" width="7.8" height="5.9"/>
				<path class="st5" d="M41.7,58.5c4.7,3.3,7.8,8.7,7.8,14.8c0,10-8.1,18.1-18.1,18.1c-2.3,0-4.6-0.4-6.6-1.3
					c2.9,2,6.4,3.2,10.3,3.2c10,0,18.1-8.1,18.1-18.1C53.2,67.7,48.4,61.1,41.7,58.5z"/>
			</g>
			<g>
				<path class="st7" d="M21.9,63c-9.7,1.7-14.3,12.3-5.3,16.4"/>
				<path class="st6" d="M17.2,79.4c-0.7-0.3-1.1-1.2-0.7-1.9c1-2.2,3.7-3.3,5.9-2.3c0,0,0,0,0,0c0.7,0.3,1.1,1.2,0.7,1.9
					c-0.3,0.7-1.2,1.1-1.9,0.7c-0.8-0.3-1.7,0-2,0.8C18.8,79.5,17.9,79.8,17.2,79.4C17.2,79.4,17.2,79.4,17.2,79.4z"/>
				<path class="st8" d="M17.2,79.4c-0.7-0.3-1.1-1.2-0.7-1.9c1-2.2,3.7-3.3,5.9-2.3c0,0,0,0,0,0c0.7,0.3,1.1,1.2,0.7,1.9
					c-0.3,0.7-1.2,1.1-1.9,0.7c-0.8-0.3-1.7,0-2,0.8C18.8,79.5,17.9,79.8,17.2,79.4C17.2,79.4,17.2,79.4,17.2,79.4z"/>
				<path class="st6" d="M18.9,76.6l4,1.8c0,0,0,0,0,0c2,0.9,2.8,3.2,2,5.2c-0.9,2-3.2,2.8-5.2,2c0,0-4-1.8-4-1.8
					c-2-0.9-2.8-3.2-2-5.2C14.6,76.6,16.9,75.7,18.9,76.6z"/>
				<g>
					<path class="st4" d="M18.4,75.9c0.3-0.7,0-1.6-0.7-1.9l-1.3-0.6c-0.7-0.3-1.6,0-1.9,0.7l-3.2,7.1c-0.3,0.7,0,1.6,0.7,1.9
						l1.3,0.6c0.7,0.3,1.6,0,1.9-0.7L18.4,75.9z"/>
				</g>
			</g>
			<g>
				<path class="st7" d="M48,63c9.7,1.7,14.3,12.3,5.3,16.4"/>
				<path class="st6" d="M52.8,79.4c0.7-0.3,1.1-1.2,0.7-1.9c-1-2.2-3.7-3.3-5.9-2.3c0,0,0,0,0,0c-0.7,0.3-1.1,1.2-0.7,1.9
					c0.3,0.7,1.2,1.1,1.9,0.7c0.8-0.3,1.7,0,2,0.8C51.2,79.5,52,79.8,52.8,79.4C52.8,79.4,52.8,79.4,52.8,79.4z"/>
				<path class="st8" d="M52.8,79.4c0.7-0.3,1.1-1.2,0.7-1.9c-1-2.2-3.7-3.3-5.9-2.3c0,0,0,0,0,0c-0.7,0.3-1.1,1.2-0.7,1.9
					c0.3,0.7,1.2,1.1,1.9,0.7c0.8-0.3,1.7,0,2,0.8C51.2,79.5,52,79.8,52.8,79.4C52.8,79.4,52.8,79.4,52.8,79.4z"/>
				<path class="st6" d="M51.1,76.6l-4,1.8c0,0,0,0,0,0c-2,0.9-2.8,3.2-2,5.2c0.9,2,3.2,2.8,5.2,2c0,0,4-1.8,4-1.8
					c2-0.9,2.8-3.2,2-5.2C55.4,76.6,53.1,75.7,51.1,76.6z"/>
				<g>
					<path class="st4" d="M51.6,75.9c-0.3-0.7,0-1.6,0.7-1.9l1.3-0.6c0.7-0.3,1.6,0,1.9,0.7l3.2,7.1c0.3,0.7,0,1.6-0.7,1.9l-1.3,0.6
						c-0.7,0.3-1.6,0-1.9-0.7L51.6,75.9z"/>
				</g>
			</g>
			<g>
				<ellipse class="st9" cx="25.9" cy="48.9" rx="2.7" ry="2.7"/>
				<ellipse class="st9" cx="43.8" cy="48.9" rx="2.7" ry="2.7"/>
				<circle class="st4" cx="21.9" cy="34.6" r="2.9"/>
				<g>
					<g>
						<path class="st10" d="M34.9,40.4c-5.4,0-9.8,4.4-9.8,9.8v9.8h19.5v-9.8C44.6,44.8,40.3,40.4,34.9,40.4z"/>
					</g>
				</g>
				<g>
					<g>
						<path class="st4" d="M37.5,49.7C37.5,49.7,37.5,49.7,37.5,49.7l-18.5,0c0,10,8.3,18.1,18.4,18.1c0,0,0,0,0.1,0c0,0,0,0,0,0
							c5,0,9-4,9-9S42.5,49.7,37.5,49.7z"/>
					</g>
				</g>
				<ellipse class="st9" cx="34.9" cy="49.7" rx="2.7" ry="2.2"/>
				<path class="st3" d="M36.8,52.6c0,1.1-0.9,2-2,2c-1.1,0-2-0.9-2-2H36.8z"/>
				<path class="st2" d="M26.2,34.6c0,0-0.1,0-0.1,0v11.7h18.5C44.6,39.8,36.4,34.6,26.2,34.6z"/>
				<g>
					<path class="st4" d="M44.6,40.4c0.8,0,1.5,0.7,1.5,1.5v2.9c0,0.8-0.7,1.5-1.5,1.5H25.1c-0.8,0-1.5-0.7-1.5-1.5v-2.9
						c0-0.8,0.7-1.5,1.5-1.5H44.6z"/>
				</g>
				<path class="st3" d="M31,47.7c0,0.4-0.3,0.7-0.7,0.7c-0.4,0-0.7-0.3-0.7-0.7c0-0.4,0.3-0.7,0.7-0.7C30.6,47,31,47.3,31,47.7z"/>
				<path class="st3" d="M38.8,47.7c0,0.4,0.3,0.7,0.7,0.7c0.4,0,0.7-0.3,0.7-0.7c0-0.4-0.3-0.7-0.7-0.7
					C39.1,47,38.8,47.3,38.8,47.7z"/>
			</g>
		</g>
		<g class="st0">
			<g>
				<path class="st11" d="M28.7,99.5c0-3.9-9.2-7.1-20.4-7.1s-20.4,3.1-20.4,7v15.1h40.5L28.7,99.5z"/>
				<ellipse class="st11" cx="8.5" cy="114.4" rx="20.1" ry="7"/>
				<ellipse class="st4" cx="8.5" cy="99.4" rx="20.1" ry="7"/>
			</g>
			<g>
				<g>
					<g>
						<defs>
							<rect id="XMLID_126_" x="-34" y="-106.5" width="67" height="205"/>
						</defs>
						<clipPath id="XMLID_3_">
							<use xlink:href="#XMLID_126_"  style="overflow:visible;"/>
						</clipPath>
						<g class="st12">
							<g>
								<path class="st4" d="M-8-110.5h33v266.6c0,32.2-26.3,58.4-58.5,58.4c-32.2,0-58.5-26.2-58.5-58.4v-30.6h33v30.6
									c0,13.8,11.7,25,25.5,25c13.8,0,25.5-11.2,25.5-25V-110.5z"/>
								<g>
									<defs>
										<path id="SVGID_1_" d="M-8-110.5h33v266.6c0,32.2-26.3,58.4-58.5,58.4c-32.2,0-58.5-26.2-58.5-58.4v-30.6h33v30.6
											c0,13.8,11.7,25,25.5,25c13.8,0,25.5-11.2,25.5-25V-110.5z"/>
									</defs>
									<clipPath id="SVGID_2_">
										<use xlink:href="#SVGID_1_"  style="overflow:visible;"/>
									</clipPath>
									<g class="st13">
										<line class="st14" x1="50.2" y1="170.6" x2="-105.5" y2="237.5"/>
										<line class="st14" x1="50.2" y1="142.1" x2="-105.5" y2="209"/>
										<line class="st14" x1="50.2" y1="113.6" x2="-105.5" y2="180.5"/>
										<line class="st14" x1="50.2" y1="85" x2="-105.5" y2="151.9"/>
										<line class="st14" x1="50.2" y1="56.5" x2="-105.5" y2="123.4"/>
										<line class="st14" x1="50.2" y1="27.9" x2="-105.5" y2="94.9"/>
										<line class="st14" x1="50.2" y1="-0.6" x2="-105.5" y2="66.3"/>
										<line class="st14" x1="50.2" y1="-29.1" x2="-105.5" y2="37.8"/>
										<line class="st14" x1="50.2" y1="-57.7" x2="-105.5" y2="9.2"/>
										<line class="st14" x1="50.2" y1="-86.2" x2="-105.5" y2="-19.3"/>
										<line class="st14" x1="50.2" y1="-114.8" x2="-105.5" y2="-47.8"/>
										<line class="st14" x1="50.2" y1="-143.3" x2="-105.5" y2="-76.4"/>
										<line class="st14" x1="50.2" y1="-171.8" x2="-105.5" y2="-104.9"/>
									</g>
								</g>
							</g>
						</g>
					</g>
					<g class="st15">
						<polygon class="st16" points="-9,-81.4 25,-76.4 25,-108.5 -9,-108.5 						"/>
					</g>
					<line class="st17" x1="-1.5" y1="-111.5" x2="-1.5" y2="87.5"/>
				</g>
			</g>
			<g>
				<path class="st11" d="M28.7-117.5c0-3.9-9.2-7.1-20.4-7.1s-20.4,3.1-20.4,7v15.1h40.5L28.7-117.5z"/>
				<ellipse class="st11" cx="8.5" cy="-102.6" rx="20.1" ry="7"/>
				<ellipse class="st4" cx="8.5" cy="-117.6" rx="20.1" ry="7"/>
			</g>
		</g>
		<g class="st0">
			<defs>
				<path id="XMLID_125_" d="M286.7,170.3c21.3-7.8,43.9-11.8,66.6-11.8h118.4c22.7,0,45.2,3.9,66.5,11.7l53.5,19.3l18,62l5.3-54.7
					c0,0-4.9-28.5-4.9-30.5c0-0.8-15.7-16.9-15.7-16.9L523.3,96c-13.3-10-28.3-17.5-44.3-22.1l-79.9-22.8c-22.1-6.3-45.2-8-68-5
					L102.4,76.2l-144.5,35c-16.3,3.9-25.8,20.9-20.7,36.9l14,43.8c4.3,13.4,11.2,25.9,20.2,36.7l21.2,25.2
					c9.3,11,24.4,15.1,37.9,10.1"/>
			</defs>
			<use xlink:href="#XMLID_125_"  style="overflow:visible;fill:#00ACC1;"/>
			<clipPath id="XMLID_4_">
				<use xlink:href="#XMLID_125_"  style="overflow:visible;"/>
			</clipPath>
			<path class="st18" d="M319.1,25.1L90.4,55.2l-144.5,35C-70.4,94.1-79.9,111-74.8,127l14,43.8c4.3,13.4,11.2,25.9,20.2,36.7
				l21.2,25.2c9.3,11,24.4,15.1,37.9,10.1l256.2-93.5c21.3-7.8,43.9-11.8,66.6-11.8h118.4c22.7,0,45.2,3.9,66.5,11.7l53.5,19.3
				l18,62l5.3-54.7c0,0-4.9-28.5-4.9-30.5c0-0.8-15.7-16.9-15.7-16.9L511.3,75c-13.3-10-28.3-17.5-44.3-22.1l-79.9-22.8
				C365,23.8,341.8,22.1,319.1,25.1z"/>
			<g class="st19">
				<path class="st4" d="M-42.1,121.1l144.5-35l228.7-30.1c22.8-3,45.9-1.3,68,5l79.9,22.8c16,4.6,31,12,44.3,22.1l71.2,53.5
					c0,0,15.7,16.1,15.7,16.9c0,1.6,2.9,19.1,4.2,26.8l0.6-6.4c0,0-4.9-28.5-4.9-30.5c0-0.8-15.7-16.9-15.7-16.9L523.3,96
					c-13.3-10-28.3-17.5-44.3-22.1l-79.9-22.8c-22.1-6.3-45.2-8-68-5L102.4,76.2l-144.5,35c-15,3.6-24.3,18.3-21.6,33
					C-61.8,133.3-53.7,123.9-42.1,121.1z"/>
			</g>
		</g>
	</g>
</g>
</svg>
