<?xml version="1.0" encoding="utf-8"?>
<!-- Generator: Adobe Illustrator 19.1.0, SVG Export Plug-In . SVG Version: 6.00 Build 0)  -->
<svg version="1.1" id="Layer_1" xmlns="http://www.w3.org/2000/svg" xmlns:xlink="http://www.w3.org/1999/xlink" x="0px" y="0px"
	 width="125.9px" height="103px" viewBox="0 0 125.9 103" style="enable-background:new 0 0 125.9 103;" xml:space="preserve">
<style type="text/css">
	.st0{fill:#404040;}
	.st1{fill:#D34637;}
	.st2{fill:none;stroke:#F3C443;stroke-width:4.3319;stroke-linecap:round;stroke-miterlimit:10;}
	.st3{fill:#E53935;}
	.st4{opacity:0.11;}
	.st5{fill:#EAAC1C;}
	.st6{fill:none;stroke:#EAAC1C;stroke-width:5.7966;stroke-linecap:round;stroke-miterlimit:10;}
	.st7{fill:#FFFFFF;}
	.st8{fill:#EF9A9A;}
	.st9{fill:#F7CAAD;}
	.st10{fill:#BDBDBD;}
	.st11{fill:#F1B31C;}
	.st12{fill:none;}
	.st13{fill:#212121;}
	.st14{fill:#F9CE1D;}
	.st15{opacity:0.15;fill:#231F20;}
	.st16{fill:#802B1F;}
	.st17{fill:#DA4637;}
</style>
<g id="New_Symbol_2">
	<g>
		<g>
			<g>
				<path class="st0" d="M117.6,103H55.1c-1,0-1.8-0.8-1.8-1.8c0-1,0.8-1.8,1.8-1.8h62.6c2.2,0,4.6-4,4.6-9.4c0-4.1-1.8-7.2-3.4-7.2
					c-0.9,0-2.3,2.2-2.3,5.4c0,2.6,1.1,4,1.5,4c1,0,1.8,0.8,1.8,1.8c0,1-0.8,1.8-1.8,1.8c-2.9,0-5.1-3.2-5.1-7.5c0-5.1,2.5-9,5.9-9
					c3.9,0,7,4.7,7,10.8C125.9,97.3,122.2,103,117.6,103z"/>
			</g>
			<g>
				<path class="st0" d="M55.1,103c-3.3,0-5.9-3.8-5.9-8.9c0-4.2,2.2-7.5,5.1-7.5c2.5,0,4.4,2.7,4.4,6.3c0,1-0.8,1.8-1.8,1.8
					c-1,0-1.8-0.8-1.8-1.8c0-1.7-0.6-2.7-0.9-2.8c-0.3,0-1.4,1.4-1.4,3.9c0,3.3,1.5,5.3,2.3,5.3c1,0,1.8,0.8,1.8,1.8
					C56.9,102.2,56.1,103,55.1,103z"/>
			</g>
		</g>
		<g>
			<path class="st3" d="M23.8,96.6c-5.3,0-9.5-4.2-9.5-9.4V61.6c0-5.2,4.3-9.4,9.5-9.4h23.6v-3.4c0-5.9,4.9-10.8,11-10.8h40.1
				c6,0,11,4.9,11,10.8v33.1L100,96.5c-0.5,0.1-1,0.1-1.5,0.1H65.3H23.8z"/>
		</g>
		<path class="st4" d="M58.4,38h40.1c6,0,11,4.9,11,10.8v33.1L100,96.5c-0.5,0.1-1,0.1-1.5,0.1H58.4c-6,0-11-4.9-11-10.8v-37
			C47.4,42.9,52.3,38,58.4,38z"/>
		<g>
			<g>
				<path class="st0" d="M67,103H5.9c-1,0-1.8-0.8-1.8-1.8c0-1,0.8-1.8,1.8-1.8H67c2.2,0,4.6-4,4.6-9.4c0-4.4-2-7.2-3.4-7.2
					c-0.9,0-2.3,2.2-2.3,5.4c0,2.6,1.1,4,1.5,4c1,0,1.8,0.8,1.8,1.8c0,1-0.8,1.8-1.8,1.8c-2.9,0-5.1-3.2-5.1-7.5c0-5.1,2.5-9,5.9-9
					c3.9,0,7,4.7,7,10.8C75.3,97.3,71.7,103,67,103z"/>
			</g>
			<g>
				<path class="st0" d="M5.9,103C2.5,103,0,99.2,0,94.1c0-4.2,2.2-7.5,5.1-7.5c2.5,0,4.4,2.7,4.4,6.3c0,1-0.8,1.8-1.8,1.8
					c-1,0-1.8-0.8-1.8-1.8c0-1.7-0.6-2.7-0.9-2.8c-0.3,0-1.4,1.4-1.4,3.9c0,3.3,1.5,5.3,2.3,5.3c1,0,1.8,0.8,1.8,1.8
					C7.7,102.2,6.9,103,5.9,103z"/>
			</g>
		</g>
		<g>
			<path class="st11" d="M14.2,73.5c-1.5,0-2.7-1.2-2.7-2.7V63c0-6.8,5.7-12.4,12.6-12.4h20.1c0.4-5.5,2.1-9.6,5.1-12.3
				c3.5-3.1,7.4-3.1,8.3-3h39.8c5.7,0,9.8,1.5,12.3,4.4c2.9,3.4,2.4,7.4,2.3,7.8c-0.3,1.5-1.7,2.4-3.1,2.2c-1.5-0.2-2.5-1.6-2.2-3
				c0-0.1,0.2-2-1.1-3.6c-1.4-1.6-4.2-2.4-8.1-2.4l-40.1,0c-0.1,0-2.4-0.1-4.4,1.7c-2.2,2-3.4,5.8-3.4,10.9v2.7H24.1
				c-4,0-7.2,3.2-7.2,7.1v7.8C16.9,72.3,15.7,73.5,14.2,73.5z"/>
		</g>
	</g>
	<g id="New_Symbol_3">
	</g>
</g>
<g id="New_Symbol_7">
</g>
<g id="New_Symbol_1">
</g>
</svg>
