<svg id="Layer_1" xmlns="http://www.w3.org/2000/svg" width="125.9" height="103" viewBox="0 0 125.9 103"><style>.st0{fill:#404040}.st1{fill:#d34637}.st2{fill:none;stroke:#f3c443;stroke-width:4.3319;stroke-linecap:round;stroke-miterlimit:10}.st3{fill:#e53935}.st4{opacity:.11}.st5{fill:#eaac1c}.st6{fill:none;stroke:#eaac1c;stroke-width:5.7966;stroke-linecap:round;stroke-miterlimit:10}.st7{fill:#FFF}.st8{fill:#ef9a9a}.st9{fill:#f7caad}.st10{fill:#bdbdbd}.st11{fill:#f1b31c}.st12{fill:none}.st13{fill:#212121}.st14{fill:#f9ce1d}.st15{opacity:.15;fill:#231f20}.st16{fill:#802b1f}.st17{fill:#da4637}</style><path class="st3" d="M67.5 96.6c6 0 11-4.9 11-10.8v-37c0-5.9-4.9-10.8-11-10.8H27.4c-6 0-11 4.9-11 10.8v33.1l9.5 14.8h41.6z"/><path class="st16" d="M16.9 52.9c6.9 8.5 9.7 12 14.3 22.3 1.5 3.2 29.1 17.7 44.3 18 1.8-1.9 3-4.5 3-7.3v-37c0-5.9-4.9-10.8-11-10.8H27.4c-6 0-11 4.9-11 10.8V52c.2.2.3.6.5.9z"/><path class="st5" d="M76.3 56.4c-1.6 0-2.9-1.3-2.9-2.9V47c0-4.1-3.4-7.5-7.5-7.5H27.4c-4.1 0-7.5 3.4-7.5 7.5v1.7c0 1.6-1.3 2.9-2.9 2.9s-3-1.3-3-2.9V47c0-7.3 6-13.3 13.3-13.3h38.5c7.3 0 13.3 6 13.3 13.3v6.6c.1 1.5-1.2 2.8-2.8 2.8z"/></svg>