<svg id="Layer_1" xmlns="http://www.w3.org/2000/svg" width="125.9" height="103" viewBox="0 0 125.9 103"><style>.st0{fill:#404040}.st1{fill:#d34637}.st2{fill:none;stroke:#f3c443;stroke-width:4.3319;stroke-linecap:round;stroke-miterlimit:10}.st3{fill:#e53935}.st4{opacity:.11}.st5{fill:#eaac1c}.st6{fill:none;stroke:#eaac1c;stroke-width:5.7966;stroke-linecap:round;stroke-miterlimit:10}.st7{fill:#FFF}.st8{fill:#ef9a9a}.st9{fill:#f7caad}.st10{fill:#bdbdbd}.st11{fill:#f1b31c}.st12{fill:none}.st13{fill:#212121}.st14{fill:#f9ce1d}.st15{opacity:.15;fill:#231f20}.st16{fill:#802b1f}.st17{fill:#da4637}</style><g id="New_Symbol_2"><path class="st0" d="M8.3 103h62.6c1 0 1.8-.8 1.8-1.8s-.8-1.8-1.8-1.8H8.3c-2.2 0-4.6-4-4.6-9.4 0-4.1 1.8-7.2 3.4-7.2.9 0 2.3 2.2 2.3 5.4 0 2.6-1.1 4-1.5 4-1 0-1.8.8-1.8 1.8s.8 1.8 1.8 1.8c2.9 0 5.1-3.2 5.1-7.5 0-5.1-2.5-9-5.9-9-3.9 0-7 4.7-7 10.8C0 97.3 3.6 103 8.3 103z"/><path class="st0" d="M70.8 103c3.3 0 5.9-3.8 5.9-8.9 0-4.2-2.2-7.5-5.1-7.5-2.5 0-4.4 2.7-4.4 6.3 0 1 .8 1.8 1.8 1.8s1.8-.8 1.8-1.8c0-1.7.6-2.7.9-2.8.3 0 1.4 1.4 1.4 3.9 0 3.3-1.5 5.3-2.3 5.3-1 0-1.8.8-1.8 1.8 0 1.1.8 1.9 1.8 1.9z"/><path class="st3" d="M102.1 96.6c5.3 0 9.5-4.2 9.5-9.4V61.6c0-5.2-4.3-9.4-9.5-9.4H78.5v-3.4c0-5.9-4.9-10.8-11-10.8H27.4c-6 0-11 4.9-11 10.8v33.1l9.5 14.7c.5.1 1 .1 1.5.1h74.7z"/><path class="st3" d="M102.1 96.6c5.3 0 9.5-4.2 9.5-9.4V61.6c0-5.2-4.3-9.4-9.5-9.4H78.5v-3.4c0-5.9-4.9-10.8-11-10.8H27.4c-6 0-11 4.9-11 10.8v33.1l9.5 14.7c.5.1 1 .1 1.5.1h74.7z"/><path d="M111.7 61.6v25.6c0 5.2-4.3 9.4-9.5 9.4H67.5c6 0 11-4.9 11-10.8V52.2h23.6c5.3 0 9.6 4.3 9.6 9.4z" class="st4"/><path class="st0" d="M58.8 103H120c1 0 1.8-.8 1.8-1.8s-.8-1.8-1.8-1.8H58.8c-2.2 0-4.6-4-4.6-9.4 0-4.4 2-7.2 3.4-7.2.9 0 2.3 2.2 2.3 5.4 0 2.6-1.1 4-1.5 4-1 0-1.8.8-1.8 1.8s.8 1.8 1.8 1.8c2.9 0 5.1-3.2 5.1-7.5 0-5.1-2.5-9-5.9-9-3.9 0-7 4.7-7 10.8 0 7.2 3.6 12.9 8.2 12.9z"/><path class="st0" d="M120 103c3.4 0 5.9-3.8 5.9-8.9 0-4.2-2.2-7.5-5.1-7.5-2.5 0-4.4 2.7-4.4 6.3 0 1 .8 1.8 1.8 1.8s1.8-.8 1.8-1.8c0-1.7.6-2.7.9-2.8.3 0 1.4 1.4 1.4 3.9 0 3.3-1.5 5.3-2.3 5.3-1 0-1.8.8-1.8 1.8 0 1.1.8 1.9 1.8 1.9z"/><g><path class="st11" d="M111.7 73.5c1.5 0 2.7-1.2 2.7-2.7V63c0-6.8-5.7-12.4-12.6-12.4H81.7c-.4-5.5-2.1-9.6-5.1-12.3-3.5-3.1-7.4-3.1-8.3-3H28.5c-5.7 0-9.8 1.5-12.3 4.4-2.9 3.4-2.4 7.4-2.3 7.8.3 1.5 1.7 2.4 3.1 2.2 1.5-.2 2.5-1.6 2.2-3 0-.1-.2-2 1.1-3.6 1.4-1.6 4.2-2.4 8.1-2.4h40.1c.1 0 2.4-.1 4.4 1.7 2.2 2 3.4 5.8 3.4 10.9V56h25.4c4 0 7.2 3.2 7.2 7.1v7.8c.1 1.4 1.3 2.6 2.8 2.6z"/></g><path class="st4" d="M25.9 96.5l-9.5-14.7v-33c0-2.6.9-5 2.5-6.9-1.6 1.9-2.5 4.3-2.5 6.9v33.1l9.5 14.6z"/></g></svg>