<?xml version="1.0" encoding="utf-8"?>
<!-- Generator: Adobe Illustrator 19.1.0, SVG Export Plug-In . SVG Version: 6.00 Build 0)  -->
<svg version="1.1" id="Layer_1" xmlns="http://www.w3.org/2000/svg" xmlns:xlink="http://www.w3.org/1999/xlink" x="0px" y="0px"
	 viewBox="-293 385 24 24" style="enable-background:new -293 385 24 24;" xml:space="preserve">
<style type="text/css">
	.st0{fill:#822B1F;}
	.st1{fill:#F9CE1D;}
	.st2{fill:#E53935;}
	.st3{opacity:0.11;enable-background:new    ;}
	.st4{fill:none;stroke:#F1B31C;stroke-width:3.3;stroke-linecap:round;stroke-miterlimit:10;}
</style>
<symbol  id="a" viewBox="-23.3 -26.5 46.7 25.3">
	<path class="st0" d="M-21.6-19.4c0-3.9,3.3-7.1,7.2-7.1h28.9c4,0,7.3,3.2,7.3,7.1L-21.6-19.4z"/>
	<path class="st1" d="M-4-8.4v-5.1h6.8v5.1H-4z"/>
	<path class="st2" d="M15.3-8c0,2.7-2.3,5-5.1,5h-20.3c-2.8,0-5.1-2.2-5.1-5v-13.6c0-2.7,2.3-5,5.1-5h20.3c2.8,0,5.1,2.2,5.1,5V-8
		L15.3-8z M-21.6-14.1v-5.3c0-3.9,3.3-7.1,7.3-7.1h28.9c4,0,7.3,3.2,7.3,7.1v5.3C21.8-14.1-21.6-14.1-21.6-14.1z"/>
	<path class="st3" d="M15.7-14.2l-0.4,9.6c0,0-7.5-23-11.1-21.9h10.3c4,0,7.3,3.2,7.3,7.1v5.3L15.7-14.2L15.7-14.2z"/>
	<path class="st4" d="M21.8-8.2v-3.9c-0.2-1.7-1.6-3.1-3.3-3.1c-1.7,0-3.1,1.4-3.1,3.1c0,0,0,0,0,0v4.2c0,2.8-2.3,5-5.1,5h-20.4
		c-2.8,0-5.1-2.2-5.1-5v-4.2c0-1.7-1.4-3.1-3.1-3.1c0,0,0,0,0,0h-0.2c-1.7,0-3.1,1.4-3.1,3.1c0,0,0,0,0,0v2.3"/>
</symbol>
<use xlink:href="#a"  width="46.7" height="25.3" id="XMLID_1_" x="-23.3" y="-26.5" transform="matrix(0.316 0 0 -0.316 -280.9997 397)" style="overflow:visible;"/>
</svg>
