<svg id="Layer_1" xmlns="http://www.w3.org/2000/svg" width="125.9" height="103" viewBox="0 0 125.9 103"><style>.st0{fill:#404040}.st1{fill:#d34637}.st2{fill:none;stroke:#f3c443;stroke-width:4.3319;stroke-linecap:round;stroke-miterlimit:10}.st3{fill:#e53935}.st4{opacity:.11}.st5{fill:#eaac1c}.st6{fill:none;stroke:#eaac1c;stroke-width:5.7966;stroke-linecap:round;stroke-miterlimit:10}.st7{fill:#FFF}.st8{fill:#ef9a9a}.st9{fill:#f7caad}.st10{fill:#bdbdbd}.st11{fill:#f1b31c}.st12{fill:none}.st13{fill:#212121}.st14{fill:#f9ce1d}.st15{opacity:.15;fill:#231f20}.st16{fill:#802b1f}.st17{fill:#da4637}</style><g id="New_Symbol_1"><path class="st3" d="M118 36.8l-13.7 15v-2L87.7 66.5l.5 3.1c-.7.8-1.5 1.5-2.2 2.3H23.9V59.2c0-4.3-3.5-7.8-7.8-7.8s-7.8 3.5-7.8 7.8v13c.2 12.2 12.1 24 26.7 24h57L116 72c1.4-1.4 2.1-3.3 2-5.2v-30z"/><path class="st0" d="M8.8 103l104.1-.1c7.1 0 12.9-5.8 12.9-13 0-2.9-1.1-5.6-3.1-7.6s-4.7-3.1-7.6-3.1c-4.9 0-8.9 4-8.9 9 0 2 .8 3.9 2.2 5.3 1.4 1.4 3.3 2.2 5.3 2.2 1 0 1.8-.8 1.8-1.8s-.8-1.8-1.8-1.8c-1.1 0-2-.4-2.8-1.2-.7-.8-1.2-1.7-1.2-2.8 0-3 2.4-5.4 5.4-5.4 1.9 0 3.7.7 5 2.1 1.4 1.4 2.1 3.2 2.1 5.1 0 5.2-4.2 9.5-9.4 9.5H8.8c-1 0-1.8.8-1.8 1.8.1 1 .8 1.8 1.8 1.8z"/><path class="st0" d="M8.8 103c1 0 1.8-.8 1.8-1.8s-.8-1.8-1.8-1.8c-1.4 0-2.7-.6-3.7-1.6S3.5 95.5 3.5 94c0-2.2 1.7-3.9 3.9-3.9.7 0 1.4.3 1.9.8s.8 1.2.8 2c0 1 .8 1.8 1.8 1.8s1.8-.8 1.8-1.8c0-1.7-.7-3.3-1.8-4.5-1.2-1.2-2.8-1.9-4.4-1.9C3.3 86.7 0 90 0 94.1c0 2.4.9 4.6 2.6 6.3 1.6 1.7 3.9 2.6 6.2 2.6z"/><path class="st4" d="M118 36.8l-13.7 15v-2L87.7 66.5l.5 3.1c-.7.8-1.5 1.5-2.2 2.3h-3.3c-.5 5.7-2.8 11-7.4 14.7-3.9 3.1-7.8 6.3-11.7 9.5h28.5L116 72c1.4-1.4 2.1-3.3 2-5.2v-30z"/><path class="st3" d="M71.6 73.5c-1.8 0-3.7-.1-5.7-.2-3.5-.2-6.1-3.3-5.9-6.8.2-3.5 3.3-6.2 6.8-5.9C83.2 61.7 85 58 87.3 53c1-2.2 2.2-4.7 4.1-7 2.2-2.7 6.2-3.1 8.9-.8 2.7 2.2 3.1 6.2.8 8.9-.9 1.1-1.6 2.6-2.4 4.3-3.6 7.9-8.6 15.1-27.1 15.1z"/><path class="st14" d="M62.5 67.5c.2-1.1-.6-2.2-1.7-2.4-3.5-.6-6.9 1.7-7.5 5.2-.2 1.1.6 2.2 1.7 2.4 1.1.2 2.2-.6 2.4-1.7.2-1.2 1.4-2 2.6-1.8 1.2.2 2.3-.6 2.5-1.7z"/><path class="st11" d="M25.6 76.5c.1 0 .1 0 0 0h56.2c1.7 0 3.7-.8 4.9-2l33.2-35.1c1-1 1-2.7 0-3.8-1-1-2.7-1-3.8 0L83 70.7c-.2.2-.9.5-1.1.5H26.6v-8.7c0-.9 0-2.5.1-3.4 0-.4.1-4.1-2.6-6.9-1.9-2-4.5-3-7.9-3-3.3 0-6 1-7.9 3-2.7 2.8-2.6 6.5-2.6 6.9 0 .9.1 2.5.1 3.4v2.1c0 1.5 1.2 2.7 2.7 2.7 1.5 0 2.7-1.2 2.7-2.7v-2.1c0-1 0-2.6-.1-3.6 0 0 0-1.8 1.2-3.1.8-.9 2.2-1.3 4-1.3 1.8 0 3.2.4 4 1.3 1.2 1.2 1.2 3.1 1.2 3.1 0 1-.1 2.6-.1 3.6v9.6c0 1.2.5 2.3 1.3 3.1.7.8 1.8 1.3 2.9 1.3z"/><g><path class="st14" d="M58.5 64.6l-3.3 4.2c-1.6 2.1-.9 5.3 1.5 7.2 2.4 1.9 5.7 1.8 7.3-.2l3.3-4.2c1.6-2.1.9-5.3-1.5-7.2-2.4-1.9-5.7-1.8-7.3.2z"/><path class="st7" d="M59.7 63.4c-.6-1-.3-2.3.7-2.9l1.8-1.1c1-.6 2.3-.3 2.9.7l6 9.6c.6 1 .3 2.3-.7 2.9l-1.8 1.1c-1 .6-2.3.3-2.9-.7l-6-9.6z"/></g></g></svg>