<?xml version="1.0" encoding="utf-8"?>
<!-- Generator: Adobe Illustrator 19.1.0, SVG Export Plug-In . SVG Version: 6.00 Build 0)  -->
<svg version="1.1" id="Layer_1" xmlns="http://www.w3.org/2000/svg" xmlns:xlink="http://www.w3.org/1999/xlink" x="0px" y="0px"
	 width="125.9px" height="103px" viewBox="0 0 125.9 103" style="enable-background:new 0 0 125.9 103;" xml:space="preserve">
<style type="text/css">
	.st0{fill:#404040;}
	.st1{fill:#D34637;}
	.st2{fill:none;stroke:#F3C443;stroke-width:4.3319;stroke-linecap:round;stroke-miterlimit:10;}
	.st3{fill:#E53935;}
	.st4{opacity:0.11;}
	.st5{fill:#EAAC1C;}
	.st6{fill:none;stroke:#EAAC1C;stroke-width:5.7966;stroke-linecap:round;stroke-miterlimit:10;}
	.st7{fill:#FFFFFF;}
	.st8{fill:#EF9A9A;}
	.st9{fill:#F7CAAD;}
	.st10{fill:#BDBDBD;}
	.st11{fill:#F1B31C;}
	.st12{fill:none;}
	.st13{fill:#212121;}
	.st14{fill:#F9CE1D;}
	.st15{opacity:0.15;fill:#231F20;}
	.st16{fill:#802B1F;}
	.st17{fill:#DA4637;}
</style>
<g id="New_Symbol_2">
	<g id="New_Symbol_3">
	</g>
</g>
<g>
	<path class="st12" d="M62.6,51.7h26c4.7,0,8.5-3.8,8.5-8.5V26.3"/>
	<path class="st3" d="M62.6,57.4h26c7.8,0,14.2-6.4,14.2-14.2V26.3H91.5v16.9c0,1.6-1.3,2.9-2.9,2.9h-26V57.4z"/>
	<path class="st4" d="M62.6,57.4h26c7.8,0,14.2-6.4,14.2-14.2V26.3H91.5v16.9c0,1.6-1.3,2.9-2.9,2.9h-26V57.4z"/>
	<circle class="st3" cx="65.2" cy="66.5" r="26.1"/>
	<rect x="39" y="66.5" class="st13" width="53.2" height="8.5"/>
	<rect x="57" y="66.5" class="st14" width="11.3" height="8.5"/>
	<path class="st4" d="M74.8,42.2c6.8,4.7,11.3,12.6,11.3,21.5c0,14.4-11.7,26.1-26.1,26.1c-3.4,0-6.6-0.6-9.5-1.8
		c4.2,2.9,9.3,4.6,14.8,4.6c14.4,0,26.1-11.7,26.1-26.1C91.3,55.5,84.5,46,74.8,42.2z"/>
	<path class="st14" d="M96.9,25.5c0,1.2-1,2.1-2.1,2.1c-3.6,0-6.5-2.9-6.5-6.4c0,0,0,0,0,0c0-1.2,0.9-2.1,2.1-2.1
		c1.2,0,2.1,0.9,2.1,2.1c0,1.2,1,2.2,2.3,2.2C96,23.3,96.9,24.3,96.9,25.5C96.9,25.5,96.9,25.5,96.9,25.5z"/>
	<path class="st14" d="M103.5,25c0,3.1-2.6,5.6-5.7,5.6c-3.1,0-5.7-2.5-5.7-5.7l0-6.4c0,0,0,0,0,0c0-3.1,2.6-5.6,5.7-5.6
		c3.1,0,5.7,2.5,5.7,5.7L103.5,25C103.5,25,103.5,25,103.5,25z"/>
	<g>
		<path class="st7" d="M91.5,26.3c-1.2,0-2.1,1-2.1,2.1v2.1c0,1.2,1,2.1,2.1,2.1h11.3c1.2,0,2.1-1,2.1-2.1v-2.1c0-1.2-1-2.1-2.1-2.1
			H91.5z"/>
	</g>
	<path class="st8" d="M72.2,28.1c0,2.4,2,4.3,4.5,4.3c2.5,0,4.5-1.9,4.5-4.3c0-2.4-2-4.3-4.5-4.3C74.2,23.8,72.2,25.7,72.2,28.1z"/>
	<path class="st8" d="M43.1,28.1c0,2.4,2,4.3,4.5,4.3c2.5,0,4.5-1.9,4.5-4.3c0-2.4-2-4.3-4.5-4.3C45.1,23.8,43.1,25.7,43.1,28.1z"/>
	<path class="st7" d="M78.3,4.8c0,2.6,2.1,4.8,4.8,4.8c2.6,0,4.8-2.1,4.8-4.8c0-2.6-2.1-4.8-4.8-4.8C80.4,0,78.3,2.1,78.3,4.8z"/>
	<g>
		<g>
			<path class="st9" d="M62.1,14.3c-8.7,0-15.8,7.1-15.8,15.8v15.8h31.7V30.1C77.9,21.3,70.8,14.3,62.1,14.3z"/>
		</g>
	</g>
	<path class="st15" d="M60.6,32L60.6,32c-8.1,0-14.7,7-14.7,15.1c0,8.1,6.6,14.9,14.7,14.9c0,0,0,0.1,0.1,0.1c0,0,0.1-0.4,0.1-0.4
		c16.5,0,29.9-13.1,29.9-29.7H60.6z"/>
	<g>
		<g>
			<path class="st7" d="M57.7,29.3C57.7,29.3,57.7,29.3,57.7,29.3c-8.1,0-14.7,6.6-14.7,14.7c0,8.1,6.6,14.7,14.7,14.7
				c0,0,0,0,0.1,0c0,0,0.1,0,0.1,0c16.5,0,29.9-13.1,29.9-29.3L57.7,29.3z"/>
		</g>
	</g>
	<ellipse class="st8" cx="62.1" cy="29.3" rx="4.4" ry="3.6"/>
	<path class="st13" d="M58.9,34.1c0,1.8,1.4,3.2,3.2,3.2c1.7,0,3.2-1.4,3.2-3.2H58.9z"/>
	<path class="st3" d="M76.2,4.8c0.1,0,0.1,0,0.2,0v19H46.2C46.2,13.3,59.6,4.8,76.2,4.8z"/>
	<g>
		<path class="st7" d="M46.2,14.3c-1.3,0-2.4,1.1-2.4,2.4v4.8c0,1.3,1.1,2.4,2.4,2.4h31.7c1.3,0,2.4-1.1,2.4-2.4v-4.8
			c0-1.3-1.1-2.4-2.4-2.4H46.2z"/>
	</g>
	<path class="st13" d="M68.4,26.1c0,0.7,0.5,1.2,1.2,1.2c0.7,0,1.2-0.5,1.2-1.2c0-0.7-0.5-1.2-1.2-1.2C69,24.9,68.4,25.5,68.4,26.1z
		"/>
	<path class="st13" d="M55.7,26.1c0,0.7-0.5,1.2-1.2,1.2c-0.7,0-1.2-0.5-1.2-1.2c0-0.7,0.5-1.2,1.2-1.2
		C55.2,24.9,55.7,25.5,55.7,26.1z"/>
</g>
<g id="New_Symbol_7">
</g>
<g id="New_Symbol_1">
</g>
</svg>
