<svg id="Layer_1" xmlns="http://www.w3.org/2000/svg" width="125.9" height="103" viewBox="0 0 125.9 103"><style>.st0{fill:#404040}.st1{fill:#d34637}.st2{fill:none;stroke:#f3c443;stroke-width:4.3319;stroke-linecap:round;stroke-miterlimit:10}.st3{fill:#e53935}.st4{opacity:.11}.st5{fill:#eaac1c}.st6{fill:none;stroke:#eaac1c;stroke-width:5.7966;stroke-linecap:round;stroke-miterlimit:10}.st7{fill:#FFF}.st8{fill:#ef9a9a}.st9{fill:#f7caad}.st10{fill:#bdbdbd}.st11{fill:#f1b31c}.st12{fill:none}.st13{fill:#212121}.st14{fill:#f9ce1d}.st15{opacity:.15;fill:#231f20}.st16{fill:#802b1f}.st17{fill:#da4637}</style><g id="New_Symbol_2"><path class="st7" d="M62.1 28.9c-7.4 0-13.5 6-13.5 13.5 0 7.4 6 13.5 13.5 13.5h.2c15.2 0 27.5-12.1 27.5-26.9H62.1z"/><path class="st8" d="M75.4 27.8c0 2.2 1.8 4 4.1 4s4.1-1.8 4.1-4-1.8-4-4.1-4-4.1 1.8-4.1 4M48.7 27.8c0 2.2 1.8 4 4.1 4s4.1-1.8 4.1-4-1.8-4-4.1-4-4.1 1.8-4.1 4"/><path class="st9" d="M80.7 29.6c0-8-6.5-14.5-14.5-14.5s-14.5 6.5-14.5 14.5c0 3.7 1.4 7 3.6 9.6v5.5h21.9v-5.5c2.1-2.5 3.5-5.9 3.5-9.6"/><path class="st3" d="M73.3 87.2H57.6c-13.7 0-24.9-11.1-24.9-24.9 0-13.7 11.1-24.9 24.9-24.9h15.8c13.7 0 24.9 11.1 24.9 24.9-.1 13.8-11.2 24.9-25 24.9z"/><path class="st10" d="M74.7 25.6c0 2.2 1.8 4 4.1 4s4.1-1.8 4.1-4-1.8-4-4.1-4-4.1 1.8-4.1 4M49.4 24.6c0 2.2 1.8 4 4.1 4s4.1-1.8 4.1-4-1.8-4-4.1-4-4.1 1.8-4.1 4"/><path class="st10" d="M74.7 21.7H60.3c-2.6 0-4.6 1.8-4.6 4s2.1 4 4.6 4h14.4c2.6 0 4.6-1.8 4.6-4s-2.1-4-4.6-4"/><path class="st7" d="M81 6.4c0 2.4 2 4.4 4.4 4.4 2.4 0 4.4-2 4.4-4.4 0-2.4-2-4.4-4.4-4.4C83 2 81 4 81 6.4"/><path class="st3" d="M79.1 6.4h.2v17.5H51.6c0-9.7 12.3-17.5 27.5-17.5"/><path class="st7" d="M51.6 15.1c-1.2 0-2.2 1-2.2 2.2v4.4c0 1.2 1 2.2 2.2 2.2h29.1c1.2 0 2.2-1 2.2-2.2v-4.4c0-1.2-1-2.2-2.2-2.2H51.6z"/></g></svg>