<?xml version="1.0" encoding="utf-8"?>
<!-- Generator: Adobe Illustrator 19.1.0, SVG Export Plug-In . SVG Version: 6.00 Build 0)  -->
<svg version="1.1" id="Layer_1" xmlns="http://www.w3.org/2000/svg" xmlns:xlink="http://www.w3.org/1999/xlink" x="0px" y="0px"
	 width="125.9px" height="103px" viewBox="0 0 125.9 103" style="enable-background:new 0 0 125.9 103;" xml:space="preserve">
<style type="text/css">
	.st0{fill:#404040;}
	.st1{fill:#D34637;}
	.st2{fill:none;stroke:#F3C443;stroke-width:4.3319;stroke-linecap:round;stroke-miterlimit:10;}
	.st3{fill:#E53935;}
	.st4{opacity:0.11;}
	.st5{fill:#EAAC1C;}
	.st6{fill:none;stroke:#EAAC1C;stroke-width:5.7966;stroke-linecap:round;stroke-miterlimit:10;}
	.st7{fill:#FFFFFF;}
	.st8{fill:#EF9A9A;}
	.st9{fill:#F7CAAD;}
	.st10{fill:#BDBDBD;}
	.st11{fill:#F1B31C;}
	.st12{fill:none;}
	.st13{fill:#212121;}
	.st14{fill:#F9CE1D;}
	.st15{opacity:0.15;fill:#231F20;}
	.st16{fill:#802B1F;}
	.st17{fill:#DA4637;}
</style>
<g id="New_Symbol_2">
	<g id="New_Symbol_3">
		<g>
			<g>
				<path class="st0" d="M22.4,103c-1.4,0-2.5-1.1-2.5-2.4v-21c0-1.3,1.1-2.4,2.5-2.4c1.4,0,2.5,1.1,2.5,2.4v21
					C24.8,101.9,23.7,103,22.4,103z"/>
			</g>
			<g>
				<path class="st0" d="M103.5,103c-1.4,0-2.5-1.1-2.5-2.4v-21c0-1.3,1.1-2.4,2.5-2.4c1.4,0,2.5,1.1,2.5,2.4v21
					C106,101.9,104.9,103,103.5,103z"/>
			</g>
			<g>
				<path class="st3" d="M99,50.6c0-6.5-5.4-11.7-12-11.7H39.1c-6.6,0-12,5.3-12,11.7v32c0,6.5,5.4,11.7,12,11.7H87
					c6.6,0,12-5.3,12-11.7V50.6z"/>
			</g>
			<g class="st4">
				<path d="M99,50.6c0-6.5-5.4-11.7-12-11.7c9.5,2.9-7.6,58.4-17.1,55.4l17.1,0c6.6,0,12-5.3,12-11.7V50.6z"/>
			</g>
			<g>
				<path class="st11" d="M99,70.7c-1.5,0-2.7-1.2-2.7-2.6V50.8c0-5-4.2-9.1-9.3-9.1H39.1c-5.1,0-9.3,4.1-9.3,9.1v17.3
					c0,1.5-1.2,2.6-2.7,2.6c-1.5,0-2.7-1.2-2.7-2.6V50.8c0-7.9,6.6-14.4,14.7-14.4h47.8c8.1,0,14.7,6.4,14.7,14.4v17.3
					C101.7,69.6,100.5,70.7,99,70.7z"/>
			</g>
		</g>
	</g>
</g>
<g id="New_Symbol_7">
</g>
<g id="New_Symbol_1">
</g>
</svg>
