<?xml version="1.0" encoding="utf-8"?>
<!-- Generator: Adobe Illustrator 19.1.0, SVG Export Plug-In . SVG Version: 6.00 Build 0)  -->
<svg version="1.1" id="Layer_1" xmlns="http://www.w3.org/2000/svg" xmlns:xlink="http://www.w3.org/1999/xlink" x="0px" y="0px"
	 width="125.9px" height="103px" viewBox="0 0 125.9 103" style="enable-background:new 0 0 125.9 103;" xml:space="preserve">
<style type="text/css">
	.st0{fill:#404040;}
	.st1{fill:#D34637;}
	.st2{fill:none;stroke:#F3C443;stroke-width:4.3319;stroke-linecap:round;stroke-miterlimit:10;}
	.st3{fill:#E53935;}
	.st4{opacity:0.11;}
	.st5{fill:#EAAC1C;}
	.st6{fill:none;stroke:#EAAC1C;stroke-width:5.7966;stroke-linecap:round;stroke-miterlimit:10;}
	.st7{fill:#FFFFFF;}
	.st8{fill:#EF9A9A;}
	.st9{fill:#F7CAAD;}
	.st10{fill:#BDBDBD;}
	.st11{fill:#F1B31C;}
	.st12{fill:none;}
	.st13{fill:#212121;}
	.st14{fill:#F9CE1D;}
	.st15{opacity:0.15;fill:#231F20;}
	.st16{fill:#802B1F;}
	.st17{fill:#DA4637;}
</style>
<g id="New_Symbol_2">
	<g id="New_Symbol_3">
	</g>
	<g>
		<path class="st7" d="M63.7,28.9L63.7,28.9c7.4,0,13.5,6,13.5,13.5c0,7.4-6,13.5-13.5,13.5c0,0-0.1,0-0.1,0c0,0-0.1,0-0.1,0
			c-15.2,0-27.5-12.1-27.5-26.9H63.7z"/>
		<path class="st8" d="M50.5,27.8c0,2.2-1.8,4-4.1,4c-2.3,0-4.1-1.8-4.1-4c0-2.2,1.8-4,4.1-4C48.6,23.8,50.5,25.6,50.5,27.8"/>
		<path class="st8" d="M77.2,27.8c0,2.2-1.8,4-4.1,4c-2.3,0-4.1-1.8-4.1-4c0-2.2,1.8-4,4.1-4C75.4,23.8,77.2,25.6,77.2,27.8"/>
		<path class="st9" d="M45.2,29.6c0-8,6.5-14.5,14.5-14.5s14.5,6.5,14.5,14.5c0,3.7-1.4,7-3.6,9.6v5.5H48.8v-5.5
			C46.5,36.7,45.2,33.3,45.2,29.6"/>
		<path class="st3" d="M52.5,87.2h15.8c13.7,0,24.9-11.1,24.9-24.9v0c0-13.7-11.1-24.9-24.9-24.9H52.5c-13.7,0-24.9,11.1-24.9,24.9
			v0C27.7,76.1,38.8,87.2,52.5,87.2z"/>
		<path class="st10" d="M51.2,25.6c0,2.2-1.8,4-4.1,4c-2.3,0-4.1-1.8-4.1-4c0-2.2,1.8-4,4.1-4C49.4,21.6,51.2,23.4,51.2,25.6"/>
		<path class="st10" d="M76.5,24.6c0,2.2-1.8,4-4.1,4c-2.3,0-4.1-1.8-4.1-4c0-2.2,1.8-4,4.1-4C74.6,20.6,76.5,22.4,76.5,24.6"/>
		<path class="st10" d="M51.2,21.7h7.2h7.2c2.6,0,4.6,1.8,4.6,4c0,2.2-2.1,4-4.6,4h-7.2h-7.2c-2.6,0-4.6-1.8-4.6-4
			C46.6,23.5,48.6,21.7,51.2,21.7"/>
		<path class="st7" d="M44.8,6.4c0,2.4-2,4.4-4.4,4.4c-2.4,0-4.4-2-4.4-4.4C36.1,4,38,2,40.5,2C42.9,2,44.8,4,44.8,6.4"/>
		<path class="st3" d="M46.8,6.4c-0.1,0-0.1,0-0.2,0v17.5h27.6C74.3,14.2,62,6.4,46.8,6.4"/>
		<path class="st7" d="M74.3,15.1c1.2,0,2.2,1,2.2,2.2v4.4c0,1.2-1,2.2-2.2,2.2H45.2c-1.2,0-2.2-1-2.2-2.2v-4.4c0-1.2,1-2.2,2.2-2.2
			H74.3z"/>
	</g>
	<path class="st4" d="M25.9,96.5l-9.5-14.7V48.8c0-2.6,0.9-5,2.5-6.9c-1.6,1.9-2.5,4.3-2.5,6.9v33.1L25.9,96.5z"/>
</g>
<g id="New_Symbol_7">
</g>
<g id="New_Symbol_1">
</g>
</svg>
