<svg id="Layer_1" xmlns="http://www.w3.org/2000/svg" width="125.9" height="103" viewBox="0 0 125.9 103"><style>.st0{fill:#404040}.st1{fill:#d34637}.st2{fill:none;stroke:#f3c443;stroke-width:4.3319;stroke-linecap:round;stroke-miterlimit:10}.st3{fill:#e53935}.st4{opacity:.11}.st5{fill:#eaac1c}.st6{fill:none;stroke:#eaac1c;stroke-width:5.7966;stroke-linecap:round;stroke-miterlimit:10}.st7{fill:#FFF}.st8{fill:#ef9a9a}.st9{fill:#f7caad}.st10{fill:#bdbdbd}.st11{fill:#f1b31c}.st12{fill:none}.st13{fill:#212121}.st14{fill:#f9ce1d}.st15{opacity:.15;fill:#231f20}.st16{fill:#802b1f}.st17{fill:#da4637}</style><path class="st12" d="M63.3 51.7h-26c-4.7 0-8.5-3.8-8.5-8.5V26.3"/><path class="st3" d="M63.3 57.4h-26c-7.8 0-14.2-6.4-14.2-14.2V26.3h11.3v16.9c0 1.6 1.3 2.9 2.9 2.9h26v11.3z"/><path class="st3" d="M86.7 66.5c0 13-9.5 23.8-21.9 25.8-1.4.2-2.7.3-4.2.3-6.1 0-11.8-2.1-16.2-5.7-.1 0-.1-.1-.2-.2-5.9-4.8-9.7-12.1-9.7-20.3 0-14.4 11.7-26.1 26.1-26.1 8.3 0 15.7 3.9 20.5 9.9 3.5 4.6 5.6 10.2 5.6 16.3z"/><path class="st15" d="M86.7 66.5c0 13-9.5 23.8-21.9 25.8-1.4.2-2.7.3-4.2.3-6.1 0-11.8-2.1-16.2-5.7-3.5-4.5-5.6-10.1-5.6-16.2 0-14.4 11.7-26.1 26.1-26.1 6.1 0 11.8 2.1 16.2 5.6 3.5 4.6 5.6 10.2 5.6 16.3z"/><path class="st13" d="M33.7 66.5h53.2V75H33.7z"/><path class="st14" d="M57.6 66.5h11.3V75H57.6zM29 25.5c0 1.2 1 2.1 2.1 2.1 3.6 0 6.5-2.9 6.5-6.4 0-1.2-.9-2.1-2.1-2.1-1.2 0-2.1.9-2.1 2.1 0 1.2-1 2.2-2.3 2.2-1.2-.1-2.1.9-2.1 2.1z"/><path class="st14" d="M22.4 25c0 3.1 2.6 5.6 5.7 5.6s5.7-2.5 5.7-5.7v-6.4c0-3.1-2.6-5.6-5.7-5.6s-5.7 2.5-5.7 5.7V25z"/><path class="st7" d="M34.3 26.3c1.2 0 2.1 1 2.1 2.1v2.1c0 1.2-1 2.1-2.1 2.1H23.1c-1.2 0-2.1-1-2.1-2.1v-2.1c0-1.2 1-2.1 2.1-2.1h11.2z"/><path class="st8" d="M53.7 28.1c0 2.4-2 4.3-4.5 4.3s-4.5-1.9-4.5-4.3 2-4.3 4.5-4.3 4.5 1.9 4.5 4.3zM82.8 28.1c0 2.4-2 4.3-4.5 4.3s-4.5-1.9-4.5-4.3 2-4.3 4.5-4.3 4.5 1.9 4.5 4.3z"/><path class="st7" d="M47.6 4.8c0 2.6-2.1 4.8-4.8 4.8-2.6 0-4.8-2.1-4.8-4.8C38 2.1 40.2 0 42.8 0c2.6 0 4.8 2.1 4.8 4.8z"/><path class="st9" d="M63.8 14.3c-8.7 0-15.8 7.1-15.8 15.8v15.8h31.7V30.1c-.1-8.8-7.2-15.8-15.9-15.8z"/><path class="st15" d="M65.3 32C73.4 32 80 39 80 47.1S73.4 62 65.3 62c0 0 0 .1-.1.1l-.1-.4c-16.5 0-29.9-13.1-29.9-29.7h30.1z"/><path class="st7" d="M68.1 29.3H38c0 16.2 13.4 29.3 30 29.3h.2c8.1 0 14.7-6.6 14.7-14.7-.1-8-6.7-14.6-14.8-14.6z"/><ellipse class="st8" cx="63.8" cy="29.3" rx="4.4" ry="3.6"/><path class="st13" d="M67 34.1c0 1.8-1.4 3.2-3.2 3.2-1.7 0-3.2-1.4-3.2-3.2H67z"/><path class="st3" d="M49.7 4.8h-.2v19h30.1c0-10.5-13.4-19-29.9-19z"/><path class="st7" d="M79.6 14.3c1.3 0 2.4 1.1 2.4 2.4v4.8c0 1.3-1.1 2.4-2.4 2.4H47.9c-1.3 0-2.4-1.1-2.4-2.4v-4.8c0-1.3 1.1-2.4 2.4-2.4h31.7z"/><path class="st13" d="M57.5 26.1c0 .7-.5 1.2-1.2 1.2s-1.2-.5-1.2-1.2.5-1.2 1.2-1.2c.6 0 1.2.6 1.2 1.2zM70.1 26.1c0 .7.5 1.2 1.2 1.2s1.2-.5 1.2-1.2-.5-1.2-1.2-1.2c-.6 0-1.2.6-1.2 1.2z"/></svg>