<?xml version="1.0" encoding="utf-8"?>
<!-- Generator: Adobe Illustrator 19.1.0, SVG Export Plug-In . SVG Version: 6.00 Build 0)  -->
<svg version="1.1" id="Layer_1" xmlns="http://www.w3.org/2000/svg" xmlns:xlink="http://www.w3.org/1999/xlink" x="0px" y="0px"
	 width="125.9px" height="103px" viewBox="0 0 125.9 103" style="enable-background:new 0 0 125.9 103;" xml:space="preserve">
<style type="text/css">
	.st0{fill:#404040;}
	.st1{fill:#D34637;}
	.st2{fill:none;stroke:#F3C443;stroke-width:4.3319;stroke-linecap:round;stroke-miterlimit:10;}
	.st3{fill:#E53935;}
	.st4{opacity:0.11;}
	.st5{fill:#EAAC1C;}
	.st6{fill:none;stroke:#EAAC1C;stroke-width:5.7966;stroke-linecap:round;stroke-miterlimit:10;}
	.st7{fill:#FFFFFF;}
	.st8{fill:#EF9A9A;}
	.st9{fill:#F7CAAD;}
	.st10{fill:#BDBDBD;}
	.st11{fill:#F1B31C;}
	.st12{fill:none;}
	.st13{fill:#212121;}
	.st14{fill:#F9CE1D;}
	.st15{opacity:0.15;fill:#231F20;}
	.st16{fill:#802B1F;}
	.st17{fill:#DA4637;}
</style>
<g id="New_Symbol_2">
	<g id="New_Symbol_3">
	</g>
</g>
<g id="New_Symbol_7">
</g>
<g id="New_Symbol_1">
	<g>
		<path class="st3" d="M7.9,36.8l13.7,15l0-2l16.7,16.7l-0.5,3.1c0.7,0.8,1.5,1.5,2.2,2.3l45.1,0l17,0l0-12.7c0-4.3,3.5-7.8,7.8-7.8
			c4.3,0,7.8,3.5,7.8,7.8l0,13l0,0c-0.2,12.1-12.1,23.9-26.7,23.9c0,0,0,0,0,0v0l-57,0L9.9,72c-1.4-1.4-2.1-3.3-2-5.2L7.9,36.8z"/>
		<path class="st4" d="M109.8,51.4c-2,0-3.9,0.8-5.3,2.1c0.2,4.5-0.7,9-2.5,13.1l0,5.3l-2.9,0c-4.7,8.3-9.9,16.2-15,24.2l6.7,0v0
			c0,0,0,0,0,0c14.6,0,26.5-11.8,26.7-23.9l0,0l0-13C117.6,54.9,114.1,51.4,109.8,51.4z"/>
		<g>
			<g>
				<path class="st0" d="M117.1,103C117,103,117,103,117.1,103l-104.1-0.1c-7.1,0-12.9-5.8-12.9-13c0-2.9,1.1-5.6,3.1-7.6
					c2-2,4.7-3.1,7.6-3.1c0,0,0,0,0,0c4.9,0,8.9,4,8.9,9c0,2-0.8,3.9-2.2,5.3c-1.4,1.4-3.3,2.2-5.3,2.2c0,0,0,0,0,0
					c-1,0-1.8-0.8-1.8-1.8c0-1,0.8-1.8,1.8-1.8h0h0c1.1,0,2-0.4,2.8-1.2c0.7-0.8,1.2-1.7,1.2-2.8c0-3-2.4-5.4-5.4-5.4c0,0,0,0,0,0
					c-1.9,0-3.7,0.7-5,2.1c-1.4,1.4-2.1,3.2-2.1,5.1c0,5.2,4.2,9.5,9.4,9.5l104.1,0.1c1,0,1.8,0.8,1.8,1.8
					C118.8,102.2,118,103,117.1,103z"/>
			</g>
			<g>
				<path class="st0" d="M117.1,103C117.1,103,117.1,103,117.1,103c-1,0-1.8-0.8-1.8-1.8c0-1,0.8-1.8,1.8-1.8l0,0c0,0,0,0,0,0
					c1.4,0,2.7-0.6,3.7-1.6c1-1,1.6-2.3,1.6-3.8c0-2.2-1.7-3.9-3.9-3.9c0,0,0,0,0,0c-0.7,0-1.4,0.3-1.9,0.8c-0.5,0.5-0.8,1.2-0.8,2
					c0,1-0.8,1.8-1.8,1.8h0c-1,0-1.8-0.8-1.8-1.8c0-1.7,0.7-3.3,1.8-4.5c1.2-1.2,2.8-1.9,4.4-1.9h0c4.1,0,7.4,3.3,7.4,7.5
					c0,2.4-0.9,4.6-2.6,6.3C121.6,102.1,119.4,103,117.1,103z"/>
			</g>
		</g>
		<g>
			<path class="st3" d="M54.2,73.5c-18.5,0-23.5-7.2-27.2-15.2c-0.8-1.7-1.5-3.2-2.4-4.3c-2.2-2.7-1.9-6.7,0.8-8.9
				c2.7-2.2,6.7-1.9,8.9,0.8c2,2.4,3.1,4.9,4.1,7c2.4,5.1,4.1,8.8,20.5,7.7c3.5-0.2,6.5,2.4,6.8,5.9c0.2,3.5-2.4,6.5-5.9,6.8
				C57.9,73.4,56,73.5,54.2,73.5z"/>
		</g>
		<path class="st14" d="M63.4,67.5c-0.2-1.1,0.6-2.2,1.7-2.4c3.5-0.6,6.9,1.7,7.5,5.2c0,0,0,0,0,0c0.2,1.1-0.6,2.2-1.7,2.4
			c-1.1,0.2-2.2-0.6-2.4-1.7c-0.2-1.2-1.4-2-2.6-1.8C64.6,69.4,63.6,68.6,63.4,67.5C63.4,67.5,63.4,67.5,63.4,67.5z"/>
		<g>
			<path class="st11" d="M100.2,76.5C100.2,76.5,100.2,76.5,100.2,76.5l-56.2,0c-1.7,0-3.7-0.8-4.9-2L6,39.3c-1-1-1-2.7,0-3.8
				c1-1,2.7-1,3.8,0l33.2,35.1c0.2,0.2,0.9,0.5,1.1,0.5l55.3,0l0-8.7c0-0.9,0-2.5-0.1-3.4c0-0.4-0.1-4.1,2.6-6.9c1.9-2,4.5-3,7.9-3
				c0,0,0,0,0,0c3.3,0,6,1,7.9,3c2.7,2.8,2.6,6.5,2.6,6.9c0,0.9-0.1,2.5-0.1,3.4v2.1c0,1.5-1.2,2.7-2.7,2.7h0
				c-1.5,0-2.7-1.2-2.7-2.7l0-2.1c0-1,0-2.6,0.1-3.6l0,0c0,0,0-1.8-1.2-3.1c-0.8-0.9-2.2-1.3-4-1.3c0,0,0,0,0,0
				c-1.8,0-3.2,0.4-4,1.3c-1.2,1.2-1.2,3.1-1.2,3.1c0,1,0.1,2.6,0.1,3.6l0,9.6c0,1.2-0.5,2.3-1.3,3.1
				C102.5,76,101.4,76.5,100.2,76.5z"/>
		</g>
		<g>
			<path class="st14" d="M67.4,64.6l3.3,4.2c0,0,0,0,0,0c1.6,2.1,0.9,5.3-1.5,7.2c-2.4,1.9-5.7,1.8-7.3-0.2c0,0-3.3-4.2-3.3-4.2
				c-1.6-2.1-0.9-5.3,1.5-7.2C62.5,62.5,65.8,62.6,67.4,64.6z"/>
			<g>
				<path class="st7" d="M66.1,63.4c0.6-1,0.3-2.3-0.7-2.9l-1.8-1.1c-1-0.6-2.3-0.3-2.9,0.7l-6,9.6c-0.6,1-0.3,2.3,0.7,2.9l1.8,1.1
					c1,0.6,2.3,0.3,2.9-0.7L66.1,63.4z"/>
			</g>
		</g>
	</g>
</g>
</svg>
