<svg id="Layer_1" xmlns="http://www.w3.org/2000/svg" width="125.9" height="103" viewBox="0 0 125.9 103"><style>.st0{fill:#404040}.st1{fill:#d34637}.st2{fill:none;stroke:#f3c443;stroke-width:4.3319;stroke-linecap:round;stroke-miterlimit:10}.st3{fill:#e53935}.st4{opacity:.11}.st5{fill:#eaac1c}.st6{fill:none;stroke:#eaac1c;stroke-width:5.7966;stroke-linecap:round;stroke-miterlimit:10}.st7{fill:#FFF}.st8{fill:#ef9a9a}.st9{fill:#f7caad}.st10{fill:#bdbdbd}.st11{fill:#f1b31c}.st12{fill:none}.st13{fill:#212121}.st14{fill:#f9ce1d}.st15{opacity:.15;fill:#231f20}.st16{fill:#802b1f}.st17{fill:#da4637}</style><g id="New_Symbol_1"><path class="st9" d="M82.7 14.1c-8.7 0-15.7 7-15.7 15.7v15.7h31.4V29.8c-.1-8.7-7.1-15.7-15.7-15.7z"/><path class="st10" d="M85.7 23.9c0 2.4 2 4.3 4.4 4.3 2.4 0 4.4-1.9 4.4-4.3s-2-4.3-4.4-4.3c-2.4 0-4.4 1.9-4.4 4.3z"/><path class="st7" d="M98.7 4.7c0 2.6 2.1 4.7 4.7 4.7s4.7-2.1 4.7-4.7S106 0 103.4 0s-4.7 2.1-4.7 4.7z"/><path class="st3" d="M96.6 4.7h.2v18.8H67C67 13.1 80.2 4.7 96.6 4.7z"/><path class="st7" d="M67 14.1c-1.3 0-2.4 1.1-2.4 2.4v4.7c0 1.3 1.1 2.4 2.4 2.4h31.4c1.3 0 2.4-1.1 2.4-2.4v-4.7c0-1.3-1.1-2.4-2.4-2.4H67z"/><path class="st10" d="M92.4 26.6c0 2.4 2 4.3 4.4 4.3 2.4 0 4.4-1.9 4.4-4.3s-2-4.3-4.4-4.3c-2.5 0-4.4 1.9-4.4 4.3z"/><path class="st10" d="M87.3 26.6c0 2.4 2 4.3 4.4 4.3 2.4 0 4.4-1.9 4.4-4.3s-2-4.3-4.4-4.3c-2.4 0-4.4 1.9-4.4 4.3z"/><path class="st8" d="M85.6 23.5c2.4 0 4.3 1.9 4.3 4.3s-1.9 4.3-4.3 4.3v-8.6z"/><circle class="st3" cx="81.6" cy="64.2" r="26.1"/><circle class="st3" cx="81.6" cy="64.2" r="26.1"/><path class="st4" d="M92.8 40.7c2.8 4.1 4.5 9.1 4.5 14.3 0 13.9-11.6 25.5-25.5 25.5-4.7 0-9.2-1.4-13-3.7 3.2 5.8 8.6 10.3 15.4 12.4 13.8 4.1 28.3-3.8 32.4-17.6 3.7-12.5-2.4-25.5-13.8-30.9z"/><path class="st13" d="M56.5 56.8l-2.3 8.1 50 14.8 2.4-8.1z"/><path class="st14" d="M55.1 56.4l-2.4 8.1 5.8 1.7 2.4-8.1z"/><ellipse class="st8" cx="66.8" cy="29" rx="4.3" ry="3.5"/><path class="st13" d="M76.4 25.8c0 .7-.5 1.2-1.2 1.2-.6 0-1.2-.5-1.2-1.2 0-.6.5-1.2 1.2-1.2.7.1 1.2.6 1.2 1.2z"/><g><path class="st7" d="M75.6 29c-8 0-14.5 6.5-14.5 14.5S67.6 58 75.6 58h.2c16.4 0 29.6-13 29.6-29H75.6z"/></g><path class="st13" d="M67.1 33.7h3c0 1.7-1.3 3-3 3.1v-3.1z"/></g></svg>