<?xml version="1.0" encoding="utf-8"?>
<!-- Generator: Adobe Illustrator 19.1.0, SVG Export Plug-In . SVG Version: 6.00 Build 0)  -->
<svg version="1.1" id="Layer_1" xmlns="http://www.w3.org/2000/svg" xmlns:xlink="http://www.w3.org/1999/xlink" x="0px" y="0px"
	 width="125.9px" height="103px" viewBox="0 0 125.9 103" style="enable-background:new 0 0 125.9 103;" xml:space="preserve">
<style type="text/css">
	.st0{fill:#404040;}
	.st1{fill:#D34637;}
	.st2{fill:none;stroke:#F3C443;stroke-width:4.3319;stroke-linecap:round;stroke-miterlimit:10;}
	.st3{fill:#E53935;}
	.st4{opacity:0.11;}
	.st5{fill:#EAAC1C;}
	.st6{fill:none;stroke:#EAAC1C;stroke-width:5.7966;stroke-linecap:round;stroke-miterlimit:10;}
	.st7{fill:#FFFFFF;}
	.st8{fill:#EF9A9A;}
	.st9{fill:#F7CAAD;}
	.st10{fill:#BDBDBD;}
	.st11{fill:#F1B31C;}
	.st12{fill:none;}
	.st13{fill:#212121;}
	.st14{fill:#F9CE1D;}
	.st15{opacity:0.15;fill:#231F20;}
	.st16{fill:#802B1F;}
	.st17{fill:#DA4637;}
</style>
<g id="New_Symbol_2">
	<g id="New_Symbol_3">
	</g>
</g>
<g>
	<path class="st3" d="M58.4,96.6c-6,0-11-4.9-11-10.8v-37c0-5.9,4.9-10.8,11-10.8h40.1c6,0,11,4.9,11,10.8v33.1L100,96.6H58.4z"/>
	<path class="st16" d="M108.9,52.9c-6.9,8.5-9.7,12-14.3,22.3c-1.5,3.2-29.1,17.7-44.3,18c-1.8-1.9-3-4.5-3-7.3v-37
		c0-5.9,4.9-10.8,11-10.8h40.1c6,0,11,4.9,11,10.8v3.1C109.3,52.2,109.2,52.6,108.9,52.9z"/>
	<path class="st5" d="M49.6,56.4c-1.6,0-2.9-1.3-2.9-2.9V47c0-7.3,6-13.3,13.3-13.3h38.5c7.3,0,13.3,6,13.3,13.3v1.7
		c0,1.6-1.3,2.9-2.9,2.9s-2.9-1.3-2.9-2.9V47c0-4.1-3.4-7.5-7.5-7.5H60c-4.1,0-7.5,3.4-7.5,7.5v6.6C52.5,55.1,51.2,56.4,49.6,56.4z"
		/>
</g>
<g id="New_Symbol_7">
</g>
<g id="New_Symbol_1">
</g>
</svg>
