<svg xmlns="http://www.w3.org/2000/svg" viewBox="0 0 122.64 130.23"><defs><style>.cls-1{fill:none;stroke:#ff8b7b;stroke-linecap:round;stroke-miterlimit:10;stroke-width:6.64px;}</style></defs><title>coral_large</title><g id="Layer_2" data-name="Layer 2"><g id="ART"><line class="cls-1" x1="62.01" y1="126.91" x2="52.51" y2="16.85"/><polyline class="cls-1" points="57.55 75.26 73.38 71.88 82.98 32.79"/><line class="cls-1" x1="78.28" y1="51.95" x2="92.88" y2="51.33"/><line class="cls-1" x1="52.51" y1="47.74" x2="66.44" y2="37.77"/><line class="cls-1" x1="53.7" y1="30.57" x2="35.43" y2="32.79"/><line class="cls-1" x1="56.75" y1="65.98" x2="39.31" y2="61.06"/><line class="cls-1" x1="73.38" y1="71.88" x2="84.16" y2="87.98"/><line class="cls-1" x1="78.62" y1="63.52" x2="89.69" y2="63.52"/><line class="cls-1" x1="52.51" y1="47.74" x2="18.82" y2="49.4"/><line class="cls-1" x1="31.26" y1="48.78" x2="23.25" y2="63.52"/><line class="cls-1" x1="44.57" y1="31.68" x2="33.23" y2="10.89"/><line class="cls-1" x1="53.3" y1="26.01" x2="78.62" y2="10.89"/><line class="cls-1" x1="70.27" y1="3.32" x2="68.64" y2="16.85"/><line class="cls-1" x1="57.55" y1="103.92" x2="3.32" y2="90.37"/><line class="cls-1" x1="13.87" y1="93.01" x2="14.4" y2="83.37"/><line class="cls-1" x1="26.85" y1="96.25" x2="35.67" y2="83.37"/><line class="cls-1" x1="35.71" y1="98.81" x2="33.22" y2="109.19"/><line class="cls-1" x1="20.13" y1="94.57" x2="7.75" y2="103.92"/><line class="cls-1" x1="48.03" y1="103.92" x2="48.03" y2="120.82"/><line class="cls-1" x1="62.01" y1="97.15" x2="119.32" y2="97.15"/><line class="cls-1" x1="57.26" y1="87.98" x2="48.03" y2="87.98"/><line class="cls-1" x1="62.01" y1="112.37" x2="73.62" y2="115.5"/><line class="cls-1" x1="73.38" y1="99.25" x2="78.62" y2="108.64"/><line class="cls-1" x1="78.77" y1="79.25" x2="92.17" y2="75.26"/><line class="cls-1" x1="84.09" y1="38.32" x2="99.66" y2="31.68"/><line class="cls-1" x1="104.09" y1="94.8" x2="115.17" y2="71.88"/><line class="cls-1" x1="92.17" y1="97.15" x2="95.89" y2="103.94"/><line class="cls-1" x1="111.11" y1="83.37" x2="119.32" y2="83.37"/><line class="cls-1" x1="107.39" y1="87.98" x2="100.77" y2="71.88"/></g></g></svg>