<svg xmlns="http://www.w3.org/2000/svg" viewBox="0 0 404.66 250" width="404.66" height="250"><defs><style>.cls-1{fill:#940000;}.cls-16,.cls-18,.cls-2{fill:#64e7bd;}.cls-3{opacity:0.18;}.cls-17,.cls-4{fill:#fff;}.cls-15,.cls-25,.cls-5,.cls-7{fill:none;}.cls-5,.cls-7{stroke:#333;}.cls-14,.cls-15,.cls-16,.cls-18,.cls-5,.cls-7{stroke-miterlimit:10;}.cls-5{stroke-width:2.43px;}.cls-13,.cls-20,.cls-26,.cls-6{fill:#333;}.cls-7{stroke-width:2.02px;}.cls-8{opacity:0.3;}.cls-9{opacity:0.62;}.cls-10{fill:#e53935;}.cls-11,.cls-12{fill:#b52d2b;}.cls-11{opacity:0.45;}.cls-13{opacity:0.05;}.cls-14,.cls-21{fill:#77e2a2;}.cls-14,.cls-16,.cls-18{stroke:#e8514d;}.cls-14{stroke-width:2.89px;}.cls-15{stroke:#db565b;stroke-width:0.41px;}.cls-16{stroke-width:2.99px;}.cls-17{opacity:0.12;}.cls-18{stroke-width:3.12px;}.cls-19{opacity:0.27;}.cls-20{opacity:0.13;}.cls-22{fill:#ce181f;}.cls-23{fill:#454545;}.cls-24{fill:#e81c24;}.cls-25{stroke:#fff;stroke-linecap:round;stroke-linejoin:round;stroke-width:2.38px;}.cls-26{opacity:0.22;}</style></defs><title>elf car</title><g id="Layer_2" data-name="Layer 2"><g id="ART"><ellipse class="cls-1" cx="398.12" cy="153.18" rx="3.18" ry="8.69"/><path class="cls-2" d="M218.77,8.34c-91.55.51-145.46,66.4-153.29,112.23H192.93Z"/><g class="cls-3"><path class="cls-4" d="M224.06,8.34C131,8.85,76.25,74.74,68.29,120.57H197.8Z"/></g><path class="cls-5" d="M76.42,107.17c-4,.53-4.7.16-7.56,3.34"/><path class="cls-6" d="M76.42,107.17c-.72.19-1.45.37-2.13.61a4.53,4.53,0,0,0-1.7.93,6.09,6.09,0,0,0-1.08,1.45c-.34.57-.67,1.2-1,1.84l-3.32-3c.65-.44,1.3-.88,2-1.31a8.46,8.46,0,0,1,2.45-1,6.11,6.11,0,0,1,2.52,0C75,106.8,75.69,107,76.42,107.17Z"/><line class="cls-7" x1="64.13" y1="117.55" x2="68.41" y2="110.76"/><ellipse class="cls-6" cx="67.7" cy="111.34" rx="3.59" ry="2.56" transform="translate(-62.27 120.61) rotate(-62.77)"/><g class="cls-8"><g class="cls-9"><path class="cls-5" d="M76.9,108.45c-4,.53-5-.08-7.9,3.11"/><path class="cls-6" d="M76.76,108.45c-.69.28-1.41.54-2.11.79a9.24,9.24,0,0,0-1.89.84,4.55,4.55,0,0,0-1.16,1.27,15.82,15.82,0,0,0-.94,1.7l-3.32-3a18.94,18.94,0,0,1,2.17-1.32,7.07,7.07,0,0,1,2.63-.81,11.33,11.33,0,0,1,2.41.19C75.29,108.25,76,108.36,76.76,108.45Z"/><line class="cls-7" x1="65.44" y1="117.91" x2="69.36" y2="111.81"/><ellipse class="cls-6" cx="67.86" cy="112.68" rx="3.59" ry="2.56" transform="translate(-63.38 121.47) rotate(-62.77)"/></g></g><path class="cls-10" d="M390.56,117C382.5,87.56,369.2,63.3,351,44.92,317.66,11.2,268.27-.89,222,.05c-20.48.42-40.83,3.74-59.66,12.07a127.54,127.54,0,0,0-41.95,29.81A144.54,144.54,0,0,0,94.72,80.72a158.43,158.43,0,0,0-11.46,36.13H38c-12.32,0-21.82,5.21-27.49,15.07-5.1,8.86-5.49,18.68-5.49,21.48v53H400.12l0-3.67C400.52,170.43,397.29,141.6,390.56,117Z"/><path class="cls-11" d="M5.05,180.26v26.1H39.91A156.76,156.76,0,0,1,5.05,180.26Z"/><path class="cls-11" d="M390.56,117C382.5,87.56,369.2,63.3,351,44.92a132.73,132.73,0,0,0-24.74-19.57,157.23,157.23,0,0,1-92.67,181H400.12l0-3.67C400.52,170.43,397.29,141.6,390.56,117Z"/><rect class="cls-12" y="201.78" width="404.66" height="8.49"/><rect class="cls-12" y="201.78" width="404.66" height="8.49"/><polygon class="cls-12" points="25.04 202.03 0 202.03 0 174.76 18.58 174.76 25.04 202.03"/><path class="cls-4" d="M20.54,104.15a19.27,19.27,0,0,1,0,38.54Z"/><path class="cls-10" d="M27.71,104.15a19.27,19.27,0,0,1,0,38.54Z"/><path class="cls-13" d="M27,120.57l.72,22.12a19.27,19.27,0,0,0,17.56-27.21Z"/><line class="cls-14" x1="262.61" y1="8.82" x2="262.61" y2="201.78"/><ellipse class="cls-12" cx="238.31" cy="132.13" rx="14.25" ry="3.96"/><line class="cls-15" x1="98.07" y1="114.22" x2="99.82" y2="111.86"/><path class="cls-16" d="M287.33,116.33h85.95c-7-27-18.36-49.24-33.78-66.18-14.56-16-32.67-26.81-52.17-33.47Z"/><path class="cls-17" d="M316.82,30.91a132.52,132.52,0,0,0-29.49-14.23V60.32Q302,45.61,316.82,30.91Z"/><path class="cls-17" d="M336,46.46q-2.82-2.84-5.79-5.45c-14.33,14.2-28.56,28.5-42.84,42.74V94.92C303.5,78.73,319.77,62.63,336,46.46Z"/><path class="cls-18" d="M262.61,10.27A286.66,286.66,0,0,0,222.94,8c-19.22.4-38.32,3.51-56,11.33a119.67,119.67,0,0,0-39.38,28,135.26,135.26,0,0,0-24.13,36.41,148.92,148.92,0,0,0-10.5,32.57H262.61Z"/><g class="cls-19"><path class="cls-4" d="M103.5,106.78c32.66-32.13,64.86-64.72,97.4-97a130.46,130.46,0,0,0-34,9.55,119.67,119.67,0,0,0-39.38,28,135.26,135.26,0,0,0-24.13,36.41,148.92,148.92,0,0,0-10.5,32.57h7.17A11.76,11.76,0,0,1,103.5,106.78Z"/><polygon class="cls-4" points="190.16 116.33 262.61 116.33 262.61 43.88 190.16 116.33"/></g><circle class="cls-20" cx="120.36" cy="128.17" r="17.65"/><ellipse class="cls-21" cx="118.81" cy="120.88" rx="1.55" ry="13.01"/><path class="cls-10" d="M119.17,105.47c-1.1-1.45-3-2.28-6.13-2.28a17.66,17.66,0,0,0,0,35.31c3.15,0,5-.83,6.13-2.27Z"/><path class="cls-13" d="M119.17,111.56q-10.12,10-20.11,20.06a17.63,17.63,0,0,0,14,6.88c3.15,0,5-.83,6.13-2.27Z"/><polygon class="cls-10" points="385.96 118.71 401.31 119.2 393.98 142.46 385.96 118.71"/><rect class="cls-1" x="400.19" y="133.88" width="2.24" height="38.18"/><circle class="cls-22" cx="399.34" cy="175.94" r="2.62"/><circle class="cls-22" cx="400.19" cy="183.06" r="2.62"/><circle class="cls-22" cx="400.19" cy="190.48" r="2.62"/><ellipse class="cls-10" cx="42.23" cy="136.73" rx="24.73" ry="16.27" transform="matrix(0.79, -0.62, 0.62, 0.79, -75.32, 55.11)"/><path class="cls-12" d="M151.74,202c0-.87.07-1.75.07-2.63,0-30.26-25.26-54.79-56.42-54.79S39,169.12,39,199.38c0,.88,0,1.76.07,2.63Z"/><path class="cls-23" d="M144.07,201.82a48.19,48.19,0,1,1-48.19-48.19A48.19,48.19,0,0,1,144.07,201.82Z"/><path class="cls-4" d="M129.07,201.79A33.09,33.09,0,1,1,96,168.7,33.08,33.08,0,0,1,129.07,201.79Z"/><path class="cls-24" d="M122.74,201.72a26.91,26.91,0,1,1-26.91-26.91A26.9,26.9,0,0,1,122.74,201.72Z"/><path class="cls-25" d="M120.79,221.29a26.57,26.57,0,0,1-37.57,0,21.26,21.26,0,0,1,0-30.06,17,17,0,0,1,24,0,13.6,13.6,0,0,1,0,19.23,10.88,10.88,0,0,1-15.39,0,8.7,8.7,0,0,1,0-12.31,7,7,0,0,1,9.85,0,5.57,5.57,0,0,1,0,7.88,4.45,4.45,0,0,1-6.3,0,3.57,3.57,0,0,1,0-5,2.87,2.87,0,0,1,4,0"/><path class="cls-26" d="M57.68,196.19c0-26.35,21.52-48.54,48.16-50.66a58,58,0,0,0-10.45-.94C64.23,144.59,39,169.12,39,199.38c0,.88,0,1.76.07,2.63H58A48.89,48.89,0,0,1,57.68,196.19Z"/><path class="cls-12" d="M390,202c0-.87.07-1.75.07-2.63,0-30.26-25.26-54.79-56.42-54.79s-56.42,24.53-56.42,54.79c0,.88,0,1.76.07,2.63Z"/><path class="cls-23" d="M382.35,201.82a48.19,48.19,0,1,1-48.19-48.19A48.19,48.19,0,0,1,382.35,201.82Z"/><path class="cls-4" d="M367.35,201.79a33.09,33.09,0,1,1-33.08-33.09A33.08,33.08,0,0,1,367.35,201.79Z"/><path class="cls-24" d="M361,201.72a26.91,26.91,0,1,1-26.91-26.91A26.9,26.9,0,0,1,361,201.72Z"/><path class="cls-25" d="M359.07,221.29a26.57,26.57,0,0,1-37.57,0,21.26,21.26,0,0,1,0-30.06,17,17,0,0,1,24.05,0,13.6,13.6,0,0,1,0,19.23,10.88,10.88,0,0,1-15.39,0,8.7,8.7,0,0,1,0-12.31,7,7,0,0,1,9.85,0,5.57,5.57,0,0,1,0,7.88,4.47,4.47,0,0,1-6.31,0,3.58,3.58,0,0,1,0-5,2.87,2.87,0,0,1,4,0"/><path class="cls-26" d="M296,196.19c0-26.35,21.52-48.54,48.16-50.66a58,58,0,0,0-10.45-.94c-31.16,0-56.42,24.53-56.42,54.79,0,.88,0,1.76.07,2.63h19A48.89,48.89,0,0,1,296,196.19Z"/></g></g></svg>