<svg xmlns="http://www.w3.org/2000/svg" xmlns:xlink="http://www.w3.org/1999/xlink" viewBox="0 0 66.2 28.61" width="66.2" height="28.61"><defs><style>.cls-1{fill:#9db9bd;}.cls-2{fill:#d1e3e6;}.cls-3{opacity:0.1;}.cls-4{fill:#b6d6db;}.cls-5{fill:none;stroke:#9ccfd9;stroke-miterlimit:10;stroke-width:1.16px;}.cls-6{fill:#b4d3d9;}.cls-7{fill:#97babf;}.cls-8{fill:#c1dff5;}.cls-9{fill:#c5e7eb;}.cls-10,.cls-11,.cls-12{fill:#fff;stroke:#fff;stroke-linejoin:round;}.cls-10{stroke-width:0.19px;}.cls-11{stroke-width:0.12px;}.cls-12{stroke-width:0.06px;}</style><symbol id="New_Symbol_21" data-name="New Symbol 21" viewBox="0 0 19.87 18.62" width="19.87" height="18.62"><polygon id="_Path_" data-name="&lt;Path&gt;" class="cls-1" points="18.81 18.62 2.25 18.62 2.25 6.43 10.53 0.72 18.81 6.9 18.81 18.62"/><polygon id="_Path_2" data-name="&lt;Path&gt;" class="cls-2" points="16.94 18.62 1.65 18.62 1.65 6.43 9.94 0.72 16.94 6.43 16.94 18.62"/><polyline id="_Path_3" data-name="&lt;Path&gt;" class="cls-2" points="1.65 6.43 9.94 0.72 16.94 6.43"/><rect id="_Path_4" data-name="&lt;Path&gt;" class="cls-3" x="7.71" y="10.99" width="3.76" height="7.56"/><rect id="_Path_5" data-name="&lt;Path&gt;" class="cls-3" x="10.96" y="15.26" width="0.51" height="1.02"/><polygon id="_Path_6" data-name="&lt;Path&gt;" class="cls-1" points="1.75 7.07 9.94 1.46 18.12 7.07 17.27 7.29 9.84 2.53 1.75 7.81 1.75 7.07"/><rect id="_Rectangle_" data-name="&lt;Rectangle&gt;" class="cls-4" x="12.4" y="10.57" width="2.98" height="2.98"/><rect id="_Rectangle_2" data-name="&lt;Rectangle&gt;" class="cls-4" x="3.72" y="10.57" width="2.98" height="2.98"/><polyline id="_Path_7" data-name="&lt;Path&gt;" class="cls-5" points="0.34 7.81 9.94 0.72 19.53 7.81"/></symbol><symbol id="New_Symbol_23" data-name="New Symbol 23" viewBox="0 0 18.38 22.24" width="18.38" height="22.24"><rect id="_Rectangle_3" data-name="&lt;Rectangle&gt;" class="cls-6" x="14.92" width="1.13" height="3.06"/><rect id="_Rectangle_4" data-name="&lt;Rectangle&gt;" class="cls-3" x="15.65" width="0.4" height="3.06"/><polygon id="_Path_8" data-name="&lt;Path&gt;" class="cls-7" points="18.14 22.24 1.57 22.24 1.57 3.06 9.65 0.35 18.14 3.06 18.14 22.24"/><polygon id="_Path_9" data-name="&lt;Path&gt;" class="cls-8" points="16.26 22.24 0.98 22.24 0.98 3.06 9.65 0.35 16.26 3.06 16.26 22.24"/><polyline id="_Path_10" data-name="&lt;Path&gt;" class="cls-7" points="0.98 3.06 9.65 0.35 16.26 3.06"/><rect id="_Path_11" data-name="&lt;Path&gt;" class="cls-3" x="6.84" y="13.86" width="3.76" height="7.56"/><rect id="_Path_12" data-name="&lt;Path&gt;" class="cls-3" x="10.09" y="18.13" width="0.51" height="1.02"/><rect id="_Rectangle_5" data-name="&lt;Rectangle&gt;" class="cls-9" x="11.73" y="14.2" width="2.98" height="2.98"/><rect id="_Rectangle_6" data-name="&lt;Rectangle&gt;" class="cls-9" x="3.04" y="14.2" width="2.98" height="2.98"/><rect id="_Rectangle_7" data-name="&lt;Rectangle&gt;" class="cls-9" x="11.73" y="9.12" width="2.98" height="2.98"/><rect id="_Rectangle_8" data-name="&lt;Rectangle&gt;" class="cls-9" x="7.42" y="9.12" width="2.98" height="2.98"/><rect id="_Rectangle_9" data-name="&lt;Rectangle&gt;" class="cls-9" x="3.04" y="9.12" width="2.98" height="2.98"/><rect id="_Rectangle_10" data-name="&lt;Rectangle&gt;" class="cls-9" x="11.73" y="4.72" width="2.98" height="2.98"/><rect id="_Rectangle_11" data-name="&lt;Rectangle&gt;" class="cls-9" x="7.42" y="4.72" width="2.98" height="2.98"/><rect id="_Rectangle_12" data-name="&lt;Rectangle&gt;" class="cls-9" x="3.04" y="4.72" width="2.98" height="2.98"/><rect id="_Rectangle_13" data-name="&lt;Rectangle&gt;" class="cls-7" x="6.02" y="21.76" width="5.39" height="0.49"/><polygon id="_Path_13" data-name="&lt;Path&gt;" class="cls-7" points="10.7 14.13 6.74 14.13 6.74 13.64 8.72 12.46 10.7 13.64 10.7 14.13"/><rect id="_Rectangle_14" data-name="&lt;Rectangle&gt;" class="cls-7" x="6.74" y="21.27" width="3.95" height="0.49"/><polygon id="_Rectangle_15" data-name="&lt;Rectangle&gt;" class="cls-6" points="16.45 3.53 18.38 3.53 18.38 2.65 16.45 2.65 16.45 3.53"/><polygon id="_Rectangle_16" data-name="&lt;Rectangle&gt;" class="cls-3" points="16.45 3.53 18.38 3.53 18.38 2.65 16.45 2.65 16.45 3.53"/><rect id="_Rectangle_17" data-name="&lt;Rectangle&gt;" class="cls-6" y="2.66" width="16.45" height="0.88"/><path id="_Path_14" data-name="&lt;Path&gt;" class="cls-10" d="M3.54,2.23a1.66,1.66,0,0,1-3.31,0Z"/><path id="_Path_15" data-name="&lt;Path&gt;" class="cls-11" d="M5.44,2.23a1,1,0,0,1-2.07,0Z"/><path id="_Path_16" data-name="&lt;Path&gt;" class="cls-12" d="M4.53,2.71V2.53L1.61,2.37,3.34,2a8.12,8.12,0,0,1,3.23-.42,1.26,1.26,0,0,1,.69.32.57.57,0,0,1,.11.71A.6.6,0,0,1,7,2.82a1.77,1.77,0,0,1-.46,0C5.87,2.78,5.2,2.71,4.53,2.71Z"/></symbol></defs><title>village_houses</title><g id="Layer_2" data-name="Layer 2"><g id="Selected"><use id="New_Symbol_21-3" data-name="New Symbol 21" width="19.87" height="18.62" transform="translate(0 4.67) scale(1.29)" xlink:href="#New_Symbol_21"/><use id="New_Symbol_23-3" data-name="New Symbol 23" width="18.38" height="22.24" transform="translate(21.46 0) scale(1.29)" xlink:href="#New_Symbol_23"/><use id="New_Symbol_21-6" data-name="New Symbol 21" width="19.87" height="18.62" transform="translate(40.64 4.67) scale(1.29)" xlink:href="#New_Symbol_21"/></g></g></svg>