<svg xmlns="http://www.w3.org/2000/svg" width="374.74" height="19.56" viewBox="0 0 374.74 19.56"><title>cutout-1</title><polygon points="0 10.73 181.98 10.73 178.16 3.81 22.79 3.81 0 10.73" style="fill:#666"/><rect y="10.73" width="181.98" height="8.83" transform="translate(181.98 30.29) rotate(-180)" style="fill:#333"/><path d="M36.64,7.38c-5.39,1.54,20.86,2.8,58.62,2.8S168,8.92,173.38,7.38s-20.86-2.8-58.62-2.8S42,5.83,36.64,7.38Z" style="fill:#333"/><polygon points="52.55 8.16 36.04 7.63 40.86 4.45 52.55 4.33 52.55 8.16" style="fill:#333"/><polygon points="157.51 7.4 174.02 6.87 169.2 3.68 157.51 3.56 157.51 7.4" style="fill:#333"/><path d="M41.51,4c-5,1.54,19.37,2.8,54.44,2.8S163.5,5.56,168.51,4s-19.37-2.8-54.44-2.8S46.51,2.47,41.51,4Z" style="fill:#ccc"/><rect x="17.3" y="7.19" width="1.5" height="1.08" style="fill:#ccc"/><polygon points="60.17 2.55 18.84 8.27 18.84 7.19 60.17 1.47 60.17 2.55" style="fill:#b3b3b3"/><path d="M102.18,0h.71A1.12,1.12,0,0,1,104,1.12V3.4a0,0,0,0,1,0,0h-3a0,0,0,0,1,0,0V1.12A1.12,1.12,0,0,1,102.18,0Z" style="fill:#fff"/><polygon points="182.08 10.51 182.02 19.56 181.98 10.73 178.16 3.81 182.08 10.51" style="fill:#4d4d4d"/><polygon points="374.74 10.73 192.77 10.73 196.58 3.81 351.95 3.81 374.74 10.73" style="fill:#666"/><rect x="192.77" y="10.73" width="181.98" height="8.83" style="fill:#333"/><path d="M338.11,7.38c5.39,1.54-20.86,2.8-58.62,2.8s-72.74-1.25-78.13-2.8,20.86-2.8,58.62-2.8S332.72,5.83,338.11,7.38Z" style="fill:#333"/><polygon points="322.19 8.16 338.71 7.63 333.89 4.45 322.19 4.33 322.19 8.16" style="fill:#333"/><polygon points="217.24 7.4 200.72 6.87 205.54 3.68 217.24 3.56 217.24 7.4" style="fill:#333"/><path d="M333.23,4c5,1.54-19.37,2.8-54.44,2.8S211.24,5.56,206.24,4s19.37-2.8,54.44-2.8S328.23,2.47,333.23,4Z" style="fill:#ccc"/><rect x="355.95" y="7.19" width="1.5" height="1.08" transform="translate(713.39 15.47) rotate(-180)" style="fill:#ccc"/><polygon points="314.58 2.55 355.9 8.27 355.9 7.19 314.58 1.47 314.58 2.55" style="fill:#b3b3b3"/><path d="M270.73,0h3a0,0,0,0,1,0,0V2.28a1.12,1.12,0,0,1-1.12,1.12h-.71a1.12,1.12,0,0,1-1.12-1.12V0a0,0,0,0,1,0,0Z" transform="translate(544.42 3.4) rotate(-180)" style="fill:#fff"/><polygon points="192.67 10.51 192.72 19.56 192.77 10.73 196.58 3.81 192.67 10.51" style="fill:#4d4d4d"/></svg>