<svg xmlns="http://www.w3.org/2000/svg" xmlns:xlink="http://www.w3.org/1999/xlink" width="323.37" height="58.86" viewBox="0 0 323.37 58.86"><defs><clipPath id="a"><path d="M295.77,29.62C295.77,13.36,288.33,0,279.43,0L44.11.1C35.21.1,28.32,13.22,28.32,29.49c0,16.08,8.12,29.37,16.12,29.37h236C288.44,58.86,295.77,45.7,295.77,29.62Z" style="fill:none"/></clipPath><clipPath id="b"><polygon points="57.77 33.26 44.25 75.95 57.77 75.95 71.28 75.95 57.77 33.26" style="fill:none"/></clipPath><clipPath id="c"><polygon points="178.96 33.26 165.45 75.95 178.96 75.95 192.47 75.95 178.96 33.26" style="fill:none"/></clipPath><clipPath id="d"><polygon points="269.86 33.26 256.34 75.95 269.86 75.95 283.37 75.95 269.86 33.26" style="fill:none"/></clipPath><clipPath id="e"><polygon points="88.06 -28.57 74.55 14.11 88.06 14.11 101.58 14.11 88.06 -28.57" style="fill:none"/></clipPath><clipPath id="f"><polygon points="148.66 -28.57 135.15 14.11 148.66 14.11 162.18 14.11 148.66 -28.57" style="fill:none"/></clipPath><clipPath id="g"><polygon points="239.56 -28.57 226.04 14.11 239.56 14.11 253.07 14.11 239.56 -28.57" style="fill:none"/></clipPath><clipPath id="h"><polygon points="118.36 0.78 104.85 43.47 118.36 43.47 131.88 43.47 118.36 0.78" style="fill:none"/></clipPath><clipPath id="i"><polygon points="209.26 0.78 195.75 43.47 209.26 43.47 222.77 43.47 209.26 0.78" style="fill:none"/></clipPath></defs><title>cutout-1</title><rect x="3.97" y="7.71" width="18.31" height="43.94" style="fill:#63ddff"/><rect y="7.71" width="7.8" height="43.94" style="fill:#0083ca"/><rect x="301.09" y="7.71" width="18.31" height="43.94" transform="translate(620.49 59.36) rotate(-180)" style="fill:#63ddff"/><rect x="315.58" y="7.71" width="7.8" height="43.94" transform="translate(638.95 59.36) rotate(-180)" style="fill:#0083ca"/><rect x="12.68" y="20.82" width="297.55" height="17.72" rx="4.44" ry="4.44" style="fill:#b3b3b3"/><path d="M295.77,29.62C295.77,13.36,288.33,0,279.43,0L44.11.1C35.21.1,28.32,13.22,28.32,29.49c0,16.08,8.12,29.37,16.12,29.37h236C288.44,58.86,295.77,45.7,295.77,29.62Z" style="fill:#bcffda"/><g style="clip-path:url(#a)"><polygon points="57.77 33.26 44.25 75.95 57.77 75.95 71.28 75.95 57.77 33.26" style="fill:#158e4b"/><g style="clip-path:url(#b)"><polyline points="72.19 42.34 57.77 56.77 43.35 42.34" style="fill:none;stroke:#19a662;stroke-miterlimit:10;stroke-width:2.2376446770932px"/><polyline points="72.19 51.94 57.77 66.36 43.35 51.94" style="fill:none;stroke:#19a662;stroke-miterlimit:10;stroke-width:2.2376446770932px"/><polyline points="72.19 23.16 57.77 37.58 43.35 23.16" style="fill:none;stroke:#19a662;stroke-miterlimit:10;stroke-width:2.2376446770932px"/><polyline points="72.19 32.76 57.77 47.17 43.35 32.76" style="fill:none;stroke:#19a662;stroke-miterlimit:10;stroke-width:2.2376446770932px"/></g><polygon points="57.77 33.26 50 75.95 44.25 75.95 57.77 33.26" style="opacity:0.05"/><polygon points="57.77 28.88 58.48 30.32 60.07 30.55 58.92 31.68 59.19 33.26 57.77 32.51 56.34 33.26 56.62 31.68 55.47 30.55 57.06 30.32 57.77 28.88" style="fill:#fbcd55;stroke:#fbcd55;stroke-linejoin:round;stroke-width:0.3729413447271883px"/><polygon points="57.77 32.26 57.27 34.83 57.77 34.83 58.27 34.83 57.77 32.26" style="fill:#fbcd55;stroke:#fbcd55;stroke-linejoin:round;stroke-width:0.3729413447271883px"/><path d="M56.19,38.24S57,42,60,40.18c-.31,3.16-2.19,6.5-5.82,4.55,0,0,3.39,10.75,8.36,3.48.27,7.86-6.9,11.54-11,4.86,0,0,3.32,16.27,14.59,6.48C65.9,65.8,53.84,74,47.46,65.8c1.68,5.69,9.8,9.32,14.6,8.61a18.26,18.26,0,0,0,7.78-3" style="fill:none;stroke:#f2bf45;stroke-linecap:round;stroke-miterlimit:10;stroke-width:1.1188240341815607px;stroke-dasharray:0,2.237644672393799"/><circle cx="55.47" cy="42.02" r="0.85" style="fill:#d23f33"/><circle cx="58.98" cy="38.32" r="0.85" style="fill:#d23f33"/><circle cx="61.39" cy="46.23" r="0.85" style="fill:#d23f33"/><circle cx="54.75" cy="50.27" r="0.85" style="fill:#d23f33"/><circle cx="62.67" cy="54.41" r="0.85" style="fill:#d23f33"/><circle cx="54.19" cy="56.99" r="0.85" style="fill:#d23f33"/><polygon points="178.96 33.26 165.45 75.95 178.96 75.95 192.47 75.95 178.96 33.26" style="fill:#158e4b"/><g style="clip-path:url(#c)"><polyline points="193.38 42.34 178.96 56.77 164.54 42.34" style="fill:none;stroke:#19a662;stroke-miterlimit:10;stroke-width:2.2376446770932px"/><polyline points="193.38 51.94 178.96 66.36 164.54 51.94" style="fill:none;stroke:#19a662;stroke-miterlimit:10;stroke-width:2.2376446770932px"/><polyline points="193.38 23.16 178.96 37.58 164.54 23.16" style="fill:none;stroke:#19a662;stroke-miterlimit:10;stroke-width:2.2376446770932px"/><polyline points="193.38 32.76 178.96 47.17 164.54 32.76" style="fill:none;stroke:#19a662;stroke-miterlimit:10;stroke-width:2.2376446770932px"/></g><polygon points="178.96 33.26 171.19 75.95 165.45 75.95 178.96 33.26" style="opacity:0.05"/><polygon points="178.96 28.88 179.67 30.32 181.26 30.55 180.11 31.68 180.38 33.26 178.96 32.51 177.54 33.26 177.81 31.68 176.66 30.55 178.25 30.32 178.96 28.88" style="fill:#fbcd55;stroke:#fbcd55;stroke-linejoin:round;stroke-width:0.3729413447271883px"/><polygon points="178.96 32.26 178.46 34.83 178.96 34.83 179.46 34.83 178.96 32.26" style="fill:#fbcd55;stroke:#fbcd55;stroke-linejoin:round;stroke-width:0.3729413447271883px"/><path d="M177.38,38.24s.86,3.74,3.77,1.94c-.31,3.16-2.19,6.5-5.82,4.55,0,0,3.39,10.75,8.36,3.48.27,7.86-6.9,11.54-11,4.86,0,0,3.32,16.27,14.59,6.48C187.1,65.8,175,74,168.66,65.8c1.68,5.69,9.8,9.32,14.6,8.61a18.26,18.26,0,0,0,7.78-3" style="fill:none;stroke:#f2bf45;stroke-linecap:round;stroke-miterlimit:10;stroke-width:1.1188240341815607px;stroke-dasharray:0,2.237644672393799"/><circle cx="176.66" cy="42.02" r="0.85" style="fill:#d23f33"/><circle cx="180.17" cy="38.32" r="0.85" style="fill:#d23f33"/><circle cx="182.58" cy="46.23" r="0.85" style="fill:#d23f33"/><circle cx="175.95" cy="50.27" r="0.85" style="fill:#d23f33"/><circle cx="183.86" cy="54.41" r="0.85" style="fill:#d23f33"/><circle cx="175.38" cy="56.99" r="0.85" style="fill:#d23f33"/><polygon points="269.86 33.26 256.34 75.95 269.86 75.95 283.37 75.95 269.86 33.26" style="fill:#158e4b"/><g style="clip-path:url(#d)"><polyline points="284.28 42.34 269.86 56.77 255.44 42.34" style="fill:none;stroke:#19a662;stroke-miterlimit:10;stroke-width:2.2376446770932px"/><polyline points="284.28 51.94 269.86 66.36 255.44 51.94" style="fill:none;stroke:#19a662;stroke-miterlimit:10;stroke-width:2.2376446770932px"/><polyline points="284.28 23.16 269.86 37.58 255.44 23.16" style="fill:none;stroke:#19a662;stroke-miterlimit:10;stroke-width:2.2376446770932px"/><polyline points="284.28 32.76 269.86 47.17 255.44 32.76" style="fill:none;stroke:#19a662;stroke-miterlimit:10;stroke-width:2.2376446770932px"/></g><polygon points="269.86 33.26 262.09 75.95 256.34 75.95 269.86 33.26" style="opacity:0.05"/><polygon points="269.86 28.88 270.57 30.32 272.16 30.55 271.01 31.68 271.28 33.26 269.86 32.51 268.43 33.26 268.7 31.68 267.55 30.55 269.14 30.32 269.86 28.88" style="fill:#fbcd55;stroke:#fbcd55;stroke-linejoin:round;stroke-width:0.3729413447271883px"/><polygon points="269.86 32.26 269.36 34.83 269.86 34.83 270.35 34.83 269.86 32.26" style="fill:#fbcd55;stroke:#fbcd55;stroke-linejoin:round;stroke-width:0.3729413447271883px"/><path d="M268.28,38.24s.86,3.74,3.77,1.94c-.31,3.16-2.19,6.5-5.82,4.55,0,0,3.39,10.75,8.36,3.48.27,7.86-6.9,11.54-11,4.86,0,0,3.32,16.27,14.59,6.48C278,65.8,265.93,74,259.55,65.8c1.68,5.69,9.8,9.32,14.6,8.61a18.26,18.26,0,0,0,7.78-3" style="fill:none;stroke:#f2bf45;stroke-linecap:round;stroke-miterlimit:10;stroke-width:1.1188240341815607px;stroke-dasharray:0,2.237644672393799"/><circle cx="267.55" cy="42.02" r="0.85" style="fill:#d23f33"/><circle cx="271.07" cy="38.32" r="0.85" style="fill:#d23f33"/><circle cx="273.48" cy="46.23" r="0.85" style="fill:#d23f33"/><circle cx="266.84" cy="50.27" r="0.85" style="fill:#d23f33"/><circle cx="274.76" cy="54.41" r="0.85" style="fill:#d23f33"/><circle cx="266.28" cy="56.99" r="0.85" style="fill:#d23f33"/><rect x="86.49" y="5.38" width="3.15" height="14.56" style="fill:#725f4f"/><rect x="83.85" y="19.01" width="8.43" height="1.25" style="fill:#725f4f"/><rect x="83.85" y="19.01" width="8.43" height="0.25" style="fill:#d2d678;opacity:0.1"/><polygon points="88.06 -28.57 74.55 14.11 88.06 14.11 101.58 14.11 88.06 -28.57" style="fill:#158e4b"/><g style="clip-path:url(#e)"><polyline points="102.49 -9.9 88.06 4.52 73.64 -9.9" style="fill:none;stroke:#19a662;stroke-miterlimit:10;stroke-width:2.2376446770932px"/><polyline points="102.49 -0.31 88.06 14.11 73.64 -0.31" style="fill:none;stroke:#19a662;stroke-miterlimit:10;stroke-width:2.2376446770932px"/></g><polygon points="88.06 -28.57 80.3 14.11 74.55 14.11 88.06 -28.57" style="opacity:0.05"/><polygon points="86.49 14.11 89.64 14.11 89.64 16.24 86.49 14.81 86.49 14.11" style="opacity:0.1"/><path d="M86.49-23.59s.86,3.74,3.77,1.94c-.31,3.16-2.19,6.5-5.82,4.55,0,0,3.39,10.75,8.36,3.48.27,7.86-6.9,11.54-11,4.86,0,0,3.32,16.27,14.59,6.48C96.2,4,84.14,12.17,77.76,4c1.68,5.69,9.8,9.32,14.6,8.61a18.26,18.26,0,0,0,7.78-3" style="fill:none;stroke:#f2bf45;stroke-linecap:round;stroke-miterlimit:10;stroke-width:1.1188240341815607px;stroke-dasharray:0,2.237644672393799"/><circle cx="88.79" cy="2.1" r="0.85" style="fill:#d23f33"/><circle cx="97.35" cy="2.36" r="0.85" style="fill:#d23f33"/><circle cx="85.18" cy="5.62" r="0.85" style="fill:#d23f33"/><circle cx="78.11" cy="4.29" r="0.85" style="fill:#d23f33"/><circle cx="91.35" cy="8.48" r="0.85" style="fill:#d23f33"/><circle cx="99.48" cy="7.48" r="0.85" style="fill:#d23f33"/><circle cx="95.97" cy="11.69" r="0.85" style="fill:#d23f33"/><circle cx="77.41" cy="10.27" r="0.85" style="fill:#d23f33"/><circle cx="98.19" cy="12.88" r="0.85" style="fill:#d23f33"/><rect x="147.09" y="5.38" width="3.15" height="14.56" style="fill:#725f4f"/><rect x="144.45" y="19.01" width="8.43" height="1.25" style="fill:#725f4f"/><rect x="144.45" y="19.01" width="8.43" height="0.25" style="fill:#d2d678;opacity:0.1"/><polygon points="148.66 -28.57 135.15 14.11 148.66 14.11 162.18 14.11 148.66 -28.57" style="fill:#158e4b"/><g style="clip-path:url(#f)"><polyline points="163.08 -9.9 148.66 4.52 134.24 -9.9" style="fill:none;stroke:#19a662;stroke-miterlimit:10;stroke-width:2.2376446770932px"/><polyline points="163.08 -0.31 148.66 14.11 134.24 -0.31" style="fill:none;stroke:#19a662;stroke-miterlimit:10;stroke-width:2.2376446770932px"/></g><polygon points="148.66 -28.57 140.89 14.11 135.15 14.11 148.66 -28.57" style="opacity:0.05"/><polygon points="147.09 14.11 150.24 14.11 150.24 16.24 147.09 14.81 147.09 14.11" style="opacity:0.1"/><path d="M147.09-23.59s.86,3.74,3.77,1.94c-.31,3.16-2.19,6.5-5.82,4.55,0,0,3.39,10.75,8.36,3.48.27,7.86-6.9,11.54-11,4.86,0,0,3.32,16.27,14.59,6.48C156.8,4,144.74,12.17,138.36,4c1.68,5.69,9.8,9.32,14.6,8.61a18.26,18.26,0,0,0,7.78-3" style="fill:none;stroke:#f2bf45;stroke-linecap:round;stroke-miterlimit:10;stroke-width:1.1188240341815607px;stroke-dasharray:0,2.237644672393799"/><circle cx="149.39" cy="2.1" r="0.85" style="fill:#d23f33"/><circle cx="157.95" cy="2.36" r="0.85" style="fill:#d23f33"/><circle cx="145.78" cy="5.62" r="0.85" style="fill:#d23f33"/><circle cx="138.7" cy="4.29" r="0.85" style="fill:#d23f33"/><circle cx="151.95" cy="8.48" r="0.85" style="fill:#d23f33"/><circle cx="160.07" cy="7.48" r="0.85" style="fill:#d23f33"/><circle cx="156.56" cy="11.69" r="0.85" style="fill:#d23f33"/><circle cx="138.01" cy="10.27" r="0.85" style="fill:#d23f33"/><circle cx="158.79" cy="12.88" r="0.85" style="fill:#d23f33"/><rect x="237.98" y="5.38" width="3.15" height="14.56" style="fill:#725f4f"/><rect x="235.34" y="19.01" width="8.43" height="1.25" style="fill:#725f4f"/><rect x="235.34" y="19.01" width="8.43" height="0.25" style="fill:#d2d678;opacity:0.1"/><polygon points="239.56 -28.57 226.04 14.11 239.56 14.11 253.07 14.11 239.56 -28.57" style="fill:#158e4b"/><g style="clip-path:url(#g)"><polyline points="253.98 -9.9 239.56 4.52 225.14 -9.9" style="fill:none;stroke:#19a662;stroke-miterlimit:10;stroke-width:2.2376446770932px"/><polyline points="253.98 -0.31 239.56 14.11 225.14 -0.31" style="fill:none;stroke:#19a662;stroke-miterlimit:10;stroke-width:2.2376446770932px"/></g><polygon points="239.56 -28.57 231.79 14.11 226.04 14.11 239.56 -28.57" style="opacity:0.05"/><polygon points="237.98 14.11 241.13 14.11 241.13 16.24 237.98 14.81 237.98 14.11" style="opacity:0.1"/><path d="M238-23.59s.86,3.74,3.77,1.94c-.31,3.16-2.19,6.5-5.82,4.55,0,0,3.39,10.75,8.36,3.48.27,7.86-6.9,11.54-11,4.86,0,0,3.32,16.27,14.59,6.48C247.69,4,235.63,12.17,229.26,4c1.68,5.69,9.8,9.32,14.6,8.61a18.26,18.26,0,0,0,7.78-3" style="fill:none;stroke:#f2bf45;stroke-linecap:round;stroke-miterlimit:10;stroke-width:1.1188240341815607px;stroke-dasharray:0,2.237644672393799"/><circle cx="240.28" cy="2.1" r="0.85" style="fill:#d23f33"/><circle cx="248.85" cy="2.36" r="0.85" style="fill:#d23f33"/><circle cx="236.67" cy="5.62" r="0.85" style="fill:#d23f33"/><circle cx="229.6" cy="4.29" r="0.85" style="fill:#d23f33"/><circle cx="242.84" cy="8.48" r="0.85" style="fill:#d23f33"/><circle cx="250.97" cy="7.48" r="0.85" style="fill:#d23f33"/><circle cx="247.46" cy="11.69" r="0.85" style="fill:#d23f33"/><circle cx="228.91" cy="10.27" r="0.85" style="fill:#d23f33"/><circle cx="249.68" cy="12.88" r="0.85" style="fill:#d23f33"/><rect x="116.79" y="34.74" width="3.15" height="14.56" style="fill:#725f4f"/><rect x="114.15" y="48.36" width="8.43" height="1.25" style="fill:#725f4f"/><rect x="114.15" y="48.36" width="8.43" height="0.25" style="fill:#d2d678;opacity:0.1"/><polygon points="118.36 0.78 104.85 43.47 118.36 43.47 131.88 43.47 118.36 0.78" style="fill:#158e4b"/><g style="clip-path:url(#h)"><polyline points="132.78 9.87 118.36 24.29 103.94 9.87" style="fill:none;stroke:#19a662;stroke-miterlimit:10;stroke-width:2.2376446770932px"/><polyline points="132.78 19.45 118.36 33.88 103.94 19.45" style="fill:none;stroke:#19a662;stroke-miterlimit:10;stroke-width:2.2376446770932px"/><polyline points="132.78 29.05 118.36 43.47 103.94 29.05" style="fill:none;stroke:#19a662;stroke-miterlimit:10;stroke-width:2.2376446770932px"/><polyline points="132.78 -9.32 118.36 5.1 103.94 -9.32" style="fill:none;stroke:#19a662;stroke-miterlimit:10;stroke-width:2.2376446770932px"/><polyline points="132.78 0.27 118.36 14.69 103.94 0.27" style="fill:none;stroke:#19a662;stroke-miterlimit:10;stroke-width:2.2376446770932px"/></g><polygon points="118.36 0.78 110.59 43.47 104.85 43.47 118.36 0.78" style="opacity:0.05"/><polygon points="116.79 43.47 119.94 43.47 119.94 45.59 116.79 44.16 116.79 43.47" style="opacity:0.1"/><polygon points="118.36 -3.6 119.08 -2.16 120.67 -1.93 119.52 -0.81 119.79 0.78 118.36 0.03 116.94 0.78 117.21 -0.81 116.06 -1.93 117.65 -2.16 118.36 -3.6" style="fill:#fbcd55;stroke:#fbcd55;stroke-linejoin:round;stroke-width:0.3729413447271883px"/><polygon points="118.36 -0.22 117.87 2.35 118.36 2.35 118.86 2.35 118.36 -0.22" style="fill:#fbcd55;stroke:#fbcd55;stroke-linejoin:round;stroke-width:0.3729413447271883px"/><path d="M116.79,5.76s.86,3.74,3.77,1.94c-.31,3.16-2.19,6.5-5.82,4.55,0,0,3.39,10.75,8.36,3.48.27,7.86-6.9,11.54-11,4.86,0,0,3.32,16.27,14.59,6.48-.19,6.25-12.25,14.46-18.62,6.25,1.68,5.69,9.8,9.32,14.6,8.61a18.26,18.26,0,0,0,7.78-3" style="fill:none;stroke:#f2bf45;stroke-linecap:round;stroke-miterlimit:10;stroke-width:1.1188240341815607px;stroke-dasharray:0,2.237644672393799"/><circle cx="116.06" cy="9.54" r="0.85" style="fill:#d23f33"/><circle cx="119.57" cy="5.84" r="0.85" style="fill:#d23f33"/><circle cx="121.98" cy="13.75" r="0.85" style="fill:#d23f33"/><circle cx="115.35" cy="17.79" r="0.85" style="fill:#d23f33"/><circle cx="123.27" cy="21.93" r="0.85" style="fill:#d23f33"/><circle cx="114.78" cy="24.51" r="0.85" style="fill:#d23f33"/><circle cx="111.46" cy="27.89" r="0.85" style="fill:#d23f33"/><circle cx="122.33" cy="27.83" r="0.85" style="fill:#d23f33"/><circle cx="119.09" cy="31.45" r="0.85" style="fill:#d23f33"/><circle cx="127.65" cy="31.71" r="0.85" style="fill:#d23f33"/><circle cx="115.48" cy="34.98" r="0.85" style="fill:#d23f33"/><circle cx="108.41" cy="33.64" r="0.85" style="fill:#d23f33"/><circle cx="121.65" cy="37.83" r="0.85" style="fill:#d23f33"/><circle cx="129.78" cy="36.83" r="0.85" style="fill:#d23f33"/><circle cx="126.26" cy="41.05" r="0.85" style="fill:#d23f33"/><circle cx="107.71" cy="39.62" r="0.85" style="fill:#d23f33"/><circle cx="128.49" cy="42.24" r="0.85" style="fill:#d23f33"/><rect x="207.68" y="34.74" width="3.15" height="14.56" style="fill:#725f4f"/><rect x="205.04" y="48.36" width="8.43" height="1.25" style="fill:#725f4f"/><rect x="205.04" y="48.36" width="8.43" height="0.25" style="fill:#d2d678;opacity:0.1"/><polygon points="209.26 0.78 195.75 43.47 209.26 43.47 222.77 43.47 209.26 0.78" style="fill:#158e4b"/><g style="clip-path:url(#i)"><polyline points="223.68 9.87 209.26 24.29 194.84 9.87" style="fill:none;stroke:#19a662;stroke-miterlimit:10;stroke-width:2.2376446770932px"/><polyline points="223.68 19.45 209.26 33.88 194.84 19.45" style="fill:none;stroke:#19a662;stroke-miterlimit:10;stroke-width:2.2376446770932px"/><polyline points="223.68 29.05 209.26 43.47 194.84 29.05" style="fill:none;stroke:#19a662;stroke-miterlimit:10;stroke-width:2.2376446770932px"/><polyline points="223.68 -9.32 209.26 5.1 194.84 -9.32" style="fill:none;stroke:#19a662;stroke-miterlimit:10;stroke-width:2.2376446770932px"/><polyline points="223.68 0.27 209.26 14.69 194.84 0.27" style="fill:none;stroke:#19a662;stroke-miterlimit:10;stroke-width:2.2376446770932px"/></g><polygon points="209.26 0.78 201.49 43.47 195.75 43.47 209.26 0.78" style="opacity:0.05"/><polygon points="207.68 43.47 210.84 43.47 210.84 45.59 207.68 44.16 207.68 43.47" style="opacity:0.1"/><polygon points="209.26 -3.6 209.97 -2.16 211.56 -1.93 210.41 -0.81 210.68 0.78 209.26 0.03 207.84 0.78 208.11 -0.81 206.96 -1.93 208.55 -2.16 209.26 -3.6" style="fill:#fbcd55;stroke:#fbcd55;stroke-linejoin:round;stroke-width:0.3729413447271883px"/><polygon points="209.26 -0.22 208.76 2.35 209.26 2.35 209.76 2.35 209.26 -0.22" style="fill:#fbcd55;stroke:#fbcd55;stroke-linejoin:round;stroke-width:0.3729413447271883px"/><path d="M207.68,5.76s.86,3.74,3.77,1.94c-.31,3.16-2.19,6.5-5.82,4.55,0,0,3.39,10.75,8.36,3.48.27,7.86-6.9,11.54-11,4.86,0,0,3.32,16.27,14.59,6.48-.19,6.25-12.25,14.46-18.62,6.25,1.68,5.69,9.8,9.32,14.6,8.61a18.26,18.26,0,0,0,7.78-3" style="fill:none;stroke:#f2bf45;stroke-linecap:round;stroke-miterlimit:10;stroke-width:1.1188240341815607px;stroke-dasharray:0,2.237644672393799"/><circle cx="206.96" cy="9.54" r="0.85" style="fill:#d23f33"/><circle cx="210.47" cy="5.84" r="0.85" style="fill:#d23f33"/><circle cx="212.88" cy="13.75" r="0.85" style="fill:#d23f33"/><circle cx="206.25" cy="17.79" r="0.85" style="fill:#d23f33"/><circle cx="214.16" cy="21.93" r="0.85" style="fill:#d23f33"/><circle cx="205.68" cy="24.51" r="0.85" style="fill:#d23f33"/><circle cx="202.35" cy="27.89" r="0.85" style="fill:#d23f33"/><circle cx="213.23" cy="27.83" r="0.85" style="fill:#d23f33"/><circle cx="209.99" cy="31.45" r="0.85" style="fill:#d23f33"/><circle cx="218.55" cy="31.71" r="0.85" style="fill:#d23f33"/><circle cx="206.38" cy="34.98" r="0.85" style="fill:#d23f33"/><circle cx="199.3" cy="33.64" r="0.85" style="fill:#d23f33"/><circle cx="212.55" cy="37.83" r="0.85" style="fill:#d23f33"/><circle cx="220.67" cy="36.83" r="0.85" style="fill:#d23f33"/><circle cx="217.16" cy="41.05" r="0.85" style="fill:#d23f33"/><circle cx="198.61" cy="39.62" r="0.85" style="fill:#d23f33"/><circle cx="219.39" cy="42.24" r="0.85" style="fill:#d23f33"/></g></svg>