<svg xmlns="http://www.w3.org/2000/svg" xmlns:xlink="http://www.w3.org/1999/xlink" width="323.38" height="60.27" viewBox="0 0 323.38 60.27"><defs><clipPath id="a"><path d="M27.35,30.31c0-16.26,7.66-30,16.56-30H279.27C288.16.27,295,14,295,30.27c0,16.08-7.37,29-16.37,30H42.44v-.1C34.44,60.17,27.35,46.4,27.35,30.31Z" style="fill:none"/></clipPath><clipPath id="b"><path d="M658.77,30c0-16.26-7.44-29.62-16.34-29.62L407.11.51c-8.89,0-15.79,13.12-15.79,29.39,0,16.08,8.12,29.37,16.12,29.37h236C651.44,59.27,658.77,46.11,658.77,30Z" style="fill:none"/></clipPath><clipPath id="c"><polygon points="420.77 33.67 407.25 76.36 420.77 76.36 434.28 76.36 420.77 33.67" style="fill:none"/></clipPath><clipPath id="d"><polygon points="451.06 -28.16 437.55 14.52 451.06 14.52 464.58 14.52 451.06 -28.16" style="fill:none"/></clipPath></defs><title>cutout-1</title><rect x="3.97" y="8.12" width="18.31" height="43.94" style="fill:#63ddff"/><rect y="8.12" width="7.8" height="43.94" style="fill:#0083ca"/><rect x="13.14" y="21.22" width="161.12" height="17.72" rx="3.27" ry="3.27" transform="translate(187.41 60.17) rotate(-180)" style="fill:#b3b3b3"/><path d="M27.35,30.31c0-16.26,7.66-30,16.56-30H279.27C288.16.27,295,14,295,30.27c0,16.08-7.37,29-16.37,30H42.44v-.1C34.44,60.17,27.35,46.4,27.35,30.31Z" style="fill:#c4ffc3"/><path d="M27.35,30.53C27.35,14.27,35,.27,43.91.27H279.27c8.89,0,15.73,14,15.73,30.22,0,16.08-7.37,28.78-16.37,29.78H42.44v-.1C34.44,60.17,27.35,46.61,27.35,30.53Z" style="fill:none"/><g style="clip-path:url(#a)"><circle cx="55.53" cy="58.4" r="23.98" transform="translate(-4.37 112.31) rotate(-88.44)" style="fill:#37b34a"/><path d="M32.58,51.52a22.4,22.4,0,0,0,6.08,16.82A17.77,17.77,0,0,0,63.74,69a14,14,0,0,0,.54-19.73,10.92,10.92,0,0,0-15.44-.42,8.44,8.44,0,0,0-2.65,5.94h0a8.44,8.44,0,0,0,2.32,6.07,6.56,6.56,0,0,0,9.27.26,5,5,0,0,0,.2-7.08,3.76,3.76,0,0,0-5.32-.15,2.75,2.75,0,0,0-.87,1.94h0a2.74,2.74,0,0,0,.76,2,2,2,0,0,0,2.8.08,1.38,1.38,0,0,0,.06-1.9,1.2,1.2,0,1,1,1.74-1.65A3.83,3.83,0,0,1,57,59.65a4.39,4.39,0,0,1-6.19-.17,5.14,5.14,0,0,1-1.41-3.69h0A5.14,5.14,0,0,1,51,52.17a6.16,6.16,0,0,1,8.71.24,7.42,7.42,0,0,1-.29,10.47,9,9,0,0,1-12.66-.35,10.81,10.81,0,0,1-3-7.78h0a10.83,10.83,0,0,1,3.4-7.61A13.32,13.32,0,0,1,66,47.64a16.37,16.37,0,0,1-.63,23.11A20.16,20.16,0,0,1,36.92,70a24.71,24.71,0,0,1-5.09-8,23.11,23.11,0,0,1,.75-10.42Z" style="fill:#fff"/><circle cx="122.85" cy="14.29" r="23.98" transform="translate(105.21 136.7) rotate(-88.44)" style="fill:#37b34a"/><path d="M99.9,7.41A22.4,22.4,0,0,0,106,24.23a17.77,17.77,0,0,0,25.08.68,14,14,0,0,0,.54-19.73,10.92,10.92,0,0,0-15.44-.42,8.44,8.44,0,0,0-2.65,5.94h0a8.44,8.44,0,0,0,2.32,6.07,6.56,6.56,0,0,0,9.27.26,5,5,0,0,0,.2-7.08A3.76,3.76,0,0,0,120,9.81a2.75,2.75,0,0,0-.87,1.94h0a2.74,2.74,0,0,0,.76,2,2,2,0,0,0,2.8.08,1.38,1.38,0,0,0,.06-1.9,1.2,1.2,0,1,1,1.74-1.65,3.83,3.83,0,0,1-.15,5.29,4.39,4.39,0,0,1-6.19-.17,5.14,5.14,0,0,1-1.41-3.69h0a5.14,5.14,0,0,1,1.61-3.61,6.16,6.16,0,0,1,8.71.24,7.42,7.42,0,0,1-.29,10.47,9,9,0,0,1-12.66-.35,10.81,10.81,0,0,1-3-7.78h0A10.83,10.83,0,0,1,114.51,3a13.32,13.32,0,0,1,18.83.51,16.37,16.37,0,0,1-.63,23.11,20.16,20.16,0,0,1-28.47-.78,24.71,24.71,0,0,1-5.09-8,24.07,24.07,0,0,1-.27-4.2A23.92,23.92,0,0,1,99.9,7.41Z" style="fill:#fff"/><circle cx="146.4" cy="75.04" r="23.98" transform="translate(67.4 219.34) rotate(-88.44)" style="fill:#37b34a"/><path d="M123.46,68.15A22.4,22.4,0,0,0,129.54,85a17.77,17.77,0,0,0,25.08.68,14,14,0,0,0,.54-19.73,10.92,10.92,0,0,0-15.44-.42,8.44,8.44,0,0,0-2.65,5.94h0a8.44,8.44,0,0,0,2.32,6.07,6.56,6.56,0,0,0,9.27.26,5,5,0,0,0,.2-7.08,3.76,3.76,0,0,0-5.32-.15,2.75,2.75,0,0,0-.87,1.94h0a2.74,2.74,0,0,0,.76,2,2,2,0,0,0,2.8.08,1.38,1.38,0,0,0,.06-1.9A1.2,1.2,0,1,1,148,71a3.83,3.83,0,0,1-.15,5.29,4.39,4.39,0,0,1-6.19-.17,5.14,5.14,0,0,1-1.41-3.69h0a5.14,5.14,0,0,1,1.61-3.61,6.16,6.16,0,0,1,8.71.24,7.42,7.42,0,0,1-.29,10.47,9,9,0,0,1-12.66-.35,10.81,10.81,0,0,1-3-7.78h0a10.83,10.83,0,0,1,3.4-7.61,13.32,13.32,0,0,1,18.83.51,16.37,16.37,0,0,1-.63,23.11,20.16,20.16,0,0,1-28.47-.78,24.71,24.71,0,0,1-5.09-8,23.11,23.11,0,0,1,.75-10.42Z" style="fill:#fff"/><circle cx="202.09" cy="29.66" r="23.98" transform="translate(166.93 230.86) rotate(-88.44)" style="fill:#37b34a"/><path d="M179.14,22.78a22.4,22.4,0,0,0,6.08,16.82,17.77,17.77,0,0,0,25.08.68,14,14,0,0,0,.54-19.73,10.92,10.92,0,0,0-15.44-.42,8.44,8.44,0,0,0-2.65,5.94h0a8.44,8.44,0,0,0,2.32,6.07,6.56,6.56,0,0,0,9.27.26,5,5,0,0,0,.2-7.08,3.76,3.76,0,0,0-5.32-.15,2.75,2.75,0,0,0-.87,1.94h0a2.74,2.74,0,0,0,.76,2,2,2,0,0,0,2.8.08,1.38,1.38,0,0,0,.06-1.9,1.2,1.2,0,1,1,1.74-1.65,3.83,3.83,0,0,1-.15,5.29,4.39,4.39,0,0,1-6.19-.17A5.14,5.14,0,0,1,196,27h0a5.14,5.14,0,0,1,1.61-3.61,6.16,6.16,0,0,1,8.71.24A7.42,7.42,0,0,1,206,34.14a9,9,0,0,1-12.66-.35,10.81,10.81,0,0,1-3-7.78h0a10.83,10.83,0,0,1,3.4-7.61,13.32,13.32,0,0,1,18.83.51A16.37,16.37,0,0,1,212,42a20.16,20.16,0,0,1-28.47-.78,24.71,24.71,0,0,1-5.09-8,23.11,23.11,0,0,1,.75-10.42Z" style="fill:#fff"/><circle cx="256.09" cy="-12.34" r="23.98" transform="translate(261.43 243.99) rotate(-88.44)" style="fill:#37b34a"/><path d="M233.14-19.22a22.4,22.4,0,0,0,6.08,16.82,17.77,17.77,0,0,0,25.08.68,14,14,0,0,0,.54-19.73,10.84,10.84,0,0,0-7.63-3.41,10.85,10.85,0,0,0-7.81,3,8.44,8.44,0,0,0-2.65,5.94h0a8.44,8.44,0,0,0,2.32,6.07,6.51,6.51,0,0,0,4.58,2,6.52,6.52,0,0,0,4.69-1.79,5,5,0,0,0,.2-7.08,3.75,3.75,0,0,0-2.64-1.18,3.73,3.73,0,0,0-2.69,1,2.75,2.75,0,0,0-.87,1.94h0a2.74,2.74,0,0,0,.76,2,2,2,0,0,0,2.8.08,1.38,1.38,0,0,0,.06-1.9,1.2,1.2,0,0,1,0-1.7,1.2,1.2,0,0,1,1.7,0,3.83,3.83,0,0,1-.15,5.29,4.39,4.39,0,0,1-6.19-.17,5.14,5.14,0,0,1-1.41-3.69h0a5.14,5.14,0,0,1,1.61-3.61,6.11,6.11,0,0,1,4.4-1.69,6.13,6.13,0,0,1,4.31,1.93A7.42,7.42,0,0,1,260-7.86a8.89,8.89,0,0,1-6.4,2.45,8.89,8.89,0,0,1-6.26-2.8,10.81,10.81,0,0,1-3-7.78h0a10.83,10.83,0,0,1,3.4-7.61,13.22,13.22,0,0,1,9.52-3.64,13.23,13.23,0,0,1,9.31,4.16A16.37,16.37,0,0,1,265.95,0a20.16,20.16,0,0,1-28.47-.78,24.71,24.71,0,0,1-5.09-8,24.07,24.07,0,0,1-.27-4.2A23.92,23.92,0,0,1,233.14-19.22Z" style="fill:#fff"/><circle cx="253.43" cy="77.55" r="23.98" transform="translate(168.99 328.77) rotate(-88.44)" style="fill:#37b34a"/><circle cx="45.08" cy="0.36" r="23.98" transform="translate(43.49 45.42) rotate(-88.44)" style="fill:#37b34a"/><path d="M22.14-6.52A22.4,22.4,0,0,0,28.21,10.3,17.77,17.77,0,0,0,53.3,11a14,14,0,0,0,.54-19.73,10.84,10.84,0,0,0-7.63-3.41,10.85,10.85,0,0,0-7.81,3,8.44,8.44,0,0,0-2.65,5.94h0a8.44,8.44,0,0,0,2.32,6.07,6.51,6.51,0,0,0,4.58,2A6.52,6.52,0,0,0,47.33,3.1,5,5,0,0,0,47.53-4,3.75,3.75,0,0,0,44.9-5.15a3.73,3.73,0,0,0-2.69,1,2.75,2.75,0,0,0-.87,1.94h0a2.74,2.74,0,0,0,.76,2,2,2,0,0,0,2.8.08A1.38,1.38,0,0,0,44.95-2a1.2,1.2,0,0,1,0-1.7,1.2,1.2,0,0,1,1.7,0,3.83,3.83,0,0,1-.15,5.29,4.39,4.39,0,0,1-6.19-.17,5.14,5.14,0,0,1-1.41-3.69h0a5.14,5.14,0,0,1,1.61-3.61A6.11,6.11,0,0,1,45-7.55a6.13,6.13,0,0,1,4.31,1.93A7.42,7.42,0,0,1,49,4.85a8.89,8.89,0,0,1-6.4,2.45,8.89,8.89,0,0,1-6.26-2.8,10.81,10.81,0,0,1-3-7.78h0a10.83,10.83,0,0,1,3.4-7.61,13.22,13.22,0,0,1,9.52-3.64,13.23,13.23,0,0,1,9.31,4.16,16.37,16.37,0,0,1-.63,23.11,20.16,20.16,0,0,1-28.47-.78,24.71,24.71,0,0,1-5.09-8,24.07,24.07,0,0,1-.27-4.2A23.92,23.92,0,0,1,22.14-6.52Z" style="fill:#fff"/></g><ellipse cx="281.63" cy="29.85" rx="13.81" ry="29.85" style="fill:#8bb17f"/><rect x="278.97" y="21.22" width="34.55" height="17.72" rx="7.93" ry="7.93" transform="translate(592.48 60.17) rotate(-180)" style="fill:#b3b3b3"/><rect x="305.07" y="8.12" width="18.31" height="43.94" style="fill:#63ddff"/><rect x="301.09" y="8.12" width="7.8" height="43.94" style="fill:#0083ca"/></svg>