<svg xmlns="http://www.w3.org/2000/svg" width="522" height="522" viewBox="0 0 522 522"><defs><clipPath id="a"><circle cx="261" cy="261" r="261" fill="none"/></clipPath></defs><title>color-guide--code-final</title><g clip-path="url(#a)"><text transform="translate(98.11 149.89)" font-size="22.687" fill="#231f20" font-family="Roboto-Bold,Roboto" font-weight="700">&gt;_</text><path d="M444.19 383.55a9.9 9.9 0 0 0 9.9-9.9V116.56a9.93 9.93 0 0 0-9.9-9.9H77.8a9.93 9.93 0 0 0-9.9 9.9v257.09a9.9 9.9 0 0 0 9.9 9.9zm-123-59.4l14-4.33 3.8 12.29-14 4.33zm66.32 16.52l-21.2-5.16 2.6-10.51 6.93 1.69 19-77.89-6.93-1.69 2.57-10.55 21.2 5.16zm-22.89-177l3.91-12.94L405.19 181l-3.3 10.92-47.29 5 3.93-13 31.47-1.55v-.14zm-218.84-17h13l-32.19 95.45h-13zm-8.08 173.12l30.91-.79 4.88 12.77-47-1.7-4.08-10.66 33.9-32.66 4.87 12.72-23.52 20.13zm77.39 11.71v-27.26a45.13 45.13 0 0 1 1.45-11.37C191.12 281.38 174 261.76 165.43 250a14.11 14.11 0 1 1 15-10c7.56 10.14 22.52 27 44.07 36.67a45.38 45.38 0 0 1 3.46-4 46.19 46.19 0 0 1-9.37-13 15.56 15.56 0 0 1-2.88.26c-9.77 0-11-7.13-11-15.92s1.21-15.84 10.82-15.92a46 46 0 0 1 10.06-18.85 7.11 7.11 0 0 1-6.48-4.47 34 34 0 0 1-14.44.37l.18.37-9.77 4.73-6.08-12.73a34 34 0 0 1-11.54-21.9 33.94 33.94 0 0 1 31.1 1c.93.52 1.82 1.08 2.68 1.67l66.13-32 9.5 19.64-9.77 4.73-3.1-6.43-52.4 25.36a34.16 34.16 0 0 1 2.53 5.65 7.1 7.1 0 0 1 8.77 6.92v.5a46.06 46.06 0 0 1 54.61 0v-.5a7.1 7.1 0 0 1 8.77-6.92 33.91 33.91 0 0 1 46.7-19.62 33.91 33.91 0 0 1-41.75 29.19 7.11 7.11 0 0 1-6.48 4.47c.84.94 1.64 1.92 2.4 2.93q.66.89 1.28 1.81 1.24 1.84 2.31 3.8t1.94 4a45.74 45.74 0 0 1 2.13 6.29c9.62.08 10.82 7.17 10.82 15.92S314.37 260 304.6 260a15.56 15.56 0 0 1-2.88-.26 46.19 46.19 0 0 1-9.37 13 45.38 45.38 0 0 1 3.46 4c21.54-9.63 36.51-26.52 44.07-36.67a14.09 14.09 0 1 1 15 10 142.44 142.44 0 0 1-31.48 31.43l3.4 11-14 4.33-2.25-7.28q-3.27 1.75-6.74 3.33a45.13 45.13 0 0 1 1.45 11.37v27.21a45 45 0 0 1-2.57 15l3.78 16.91H213.9l3.78-16.91a45 45 0 0 1-2.57-15.01z" fill="none" stroke="#231f20" stroke-miterlimit="10"/><path d="M457 386.8a9.89 9.89 0 0 0-7.33-3.25H72.29A9.89 9.89 0 0 0 65 386.8L-42.55 505.47A9.89 9.89 0 0 0-35.22 522h592.44a9.89 9.89 0 0 0 7.33-16.53zm20.35 109.1H1.33l86.77-95.77h345.8l17.35 19.15 52.06 57.46 17.35 19.15z" fill="none" stroke="#231f20" stroke-miterlimit="10"/><path fill="none" stroke="#231f20" stroke-miterlimit="10" d="M165.87 419.29l8.68-19.16h-28.82l-11.57 19.16h31.71zM139.84 476.75l-8.67 19.15h43.27l5.79-19.15h-40.39zM18.69 476.75h40.38l14.46-19.16H36.04h37.49L88 438.44H53.39 88l14.46-19.15H70.75h31.71l14.46-19.16H88.1L1.33 495.9h43.28l14.46-19.15H18.69zM229.29 419.29l2.89-19.16h-28.81l-5.79 19.16h31.71z"/><path fill="none" stroke="#231f20" stroke-miterlimit="10" d="M197.58 419.29l5.79-19.16h-28.82l-8.68 19.16h31.71zM59.07 476.75L44.61 495.9h43.28l11.57-19.15H59.07zM226.4 438.44l-2.89 19.15H261v-19.15h-34.6zM261 419.29v-19.16h-28.82l-2.89 19.16H261z"/><path fill="none" stroke="#231f20" stroke-miterlimit="10" d="M226.4 438.44h-34.6l-5.79 19.15h37.5l2.89-19.15zM451.25 419.29l-17.35-19.16h-28.82l14.46 19.16h31.71zM157.2 438.44l-8.68 19.15h37.49l5.79-19.15h-34.6zM295.6 438.44H261v19.15h37.49l-2.89-19.15z"/><path fill="none" stroke="#231f20" stroke-miterlimit="10" d="M122.6 438.44l-11.57 19.15h37.49l8.68-19.15h-34.6zM462.93 476.75l14.46 19.15h43.28l-17.36-19.15h-40.38z"/><path fill="none" stroke="#231f20" stroke-miterlimit="10" d="M422.54 476.75l11.57 19.15h43.28l-14.46-19.15h-40.39zM434 438.44h34.61H434l14.47 19.15h37.49-37.49l14.46 19.16h40.38l-52.06-57.46h-31.71L434 438.44zM301.39 476.75H180.23l-5.79 19.15h173.12l-5.79-19.15h-40.38z"/><path fill="none" stroke="#231f20" stroke-miterlimit="10" d="M341.77 476.75l5.79 19.15h43.27l-8.67-19.15h-40.39zM419.54 419.29l-14.46-19.16h-28.82l11.57 19.16h31.71zM324.42 419.29l-5.79-19.16h-28.81l2.89 19.16h31.71zM99.46 476.75L87.89 495.9h43.28l8.67-19.15H99.46z"/><path fill="none" stroke="#231f20" stroke-miterlimit="10" d="M292.71 419.29l-2.89-19.16H261v19.16h31.71zM382.16 476.75l8.67 19.15h43.28l-11.57-19.15h-40.38zM387.83 419.29l-11.57-19.16h-28.81l8.68 19.16h31.7z"/><path fill="none" stroke="#231f20" stroke-miterlimit="10" d="M356.13 419.29l-8.68-19.16h-28.82l5.79 19.16h31.71zM134.16 419.29l11.57-19.16h-28.81l-14.46 19.16h31.7zM223.51 457.59l-2.9 19.16H261v-19.16h-37.49z"/><path fill="none" stroke="#231f20" stroke-miterlimit="10" d="M186.01 457.59l-5.78 19.16h40.38l2.9-19.16h-37.5zM111.03 457.59l-11.57 19.16h40.38l8.68-19.16h-37.49z"/><path fill="none" stroke="#231f20" stroke-miterlimit="10" d="M148.52 457.59l-8.68 19.16h40.39l5.78-19.16h-37.49zM73.53 457.59l-14.46 19.16h40.39l11.57-19.16h-37.5zM122.6 438.44H88l-14.47 19.15h37.5l11.57-19.15zM261 457.59v19.16h40.39l-2.9-19.16H261zM410.97 457.59l11.57 19.16h40.39l-14.46-19.16h-37.5z"/><path fill="none" stroke="#231f20" stroke-miterlimit="10" d="M373.48 457.59l8.68 19.16h40.38l-11.57-19.16h-37.49zM335.99 457.59l5.78 19.16h40.39l-8.68-19.16h-37.49z"/><path fill="none" stroke="#231f20" stroke-miterlimit="10" d="M298.49 457.59l2.9 19.16h40.38l-5.78-19.16h-37.5zM134.16 419.29h-31.7L88 438.44h34.6l11.56-19.15zM410.97 457.59h37.5L434 438.44h-34.6l11.57 19.15zM434 438.44l-14.46-19.15h-31.71l11.57 19.15H434z"/><path fill="none" stroke="#231f20" stroke-miterlimit="10" d="M399.4 438.44l-11.57-19.15h-31.7l8.67 19.15h34.6zM295.6 438.44l2.89 19.15h37.5l-5.79-19.15h-34.6z"/><path fill="none" stroke="#231f20" stroke-miterlimit="10" d="M330.2 438.44l5.79 19.15h37.49l-8.68-19.15h-34.6z"/><path fill="none" stroke="#231f20" stroke-miterlimit="10" d="M364.8 438.44l8.68 19.15h37.49l-11.57-19.15h-34.6zM364.8 438.44l-8.67-19.15h-31.71l5.78 19.15h34.6zM295.6 438.44l-2.89-19.15H261v19.15h34.6zM226.4 438.44l2.89-19.15h-31.71l-5.78 19.15h34.6z"/><path fill="none" stroke="#231f20" stroke-miterlimit="10" d="M226.4 438.44H261v-19.15h-31.71l-2.89 19.15zM191.8 438.44l5.78-19.15h-31.71l-8.67 19.15h34.6zM295.6 438.44h34.6l-5.78-19.15h-31.71l2.89 19.15zM157.2 438.44l8.67-19.15h-31.71l-11.56 19.15h34.6z"/><path fill="none" d="M1.33 495.9l86.77-95.77M503.31 476.75l-52.06-57.47M451.25 419.28l-17.35-19.15M503.31 476.75l17.36 19.15M405.08 400.13l14.46 19.15M448.47 457.59L434 438.44M434 438.44l-14.46-19.16M462.93 476.75l14.46 19.15M462.93 476.75l-14.46-19.16M376.26 400.13l11.57 19.15M410.97 457.59l-11.57-19.15M422.54 476.75l-11.57-19.16M387.83 419.28l11.57 19.16M434.11 495.9l-11.57-19.15M347.45 400.13l8.68 19.15M356.13 419.28l8.67 19.16M373.48 457.59l8.68 19.16M390.83 495.9l-8.67-19.15M364.8 438.44l8.68 19.15M324.42 419.28l-5.79-19.15M324.42 419.28l5.78 19.16M330.2 438.44l5.79 19.15M335.99 457.59l5.78 19.16M347.56 495.9l-5.79-19.15M292.71 419.28l-2.89-19.15M292.71 419.28l2.89 19.16M298.49 457.59l2.9 19.16M295.6 438.44l2.89 19.15M261 400.13v19.15M261 457.59v19.16M261 419.28v19.16M261 438.44v19.15M220.61 476.75l2.9-19.16M226.4 438.44l2.89-19.16M226.4 438.44l-2.89 19.15M232.18 400.13l-2.89 19.15M174.44 495.9l5.79-19.15M180.23 476.75l5.78-19.16M186.01 457.59l5.79-19.15M203.37 400.13l-5.79 19.15M197.58 419.28l-5.78 19.16M131.17 495.9l8.67-19.15M148.52 457.59l8.68-19.15M174.55 400.13l-8.68 19.15M139.84 476.75l8.68-19.16M165.87 419.28l-8.67 19.16M145.73 400.13l-11.57 19.15M122.6 438.44l-11.57 19.15M87.89 495.9l11.57-19.15M111.03 457.59l-11.57 19.16M134.16 419.28l-11.56 19.16M87.99 438.44l-14.46 19.15M73.53 457.59l-14.46 19.16M87.99 438.44l14.47-19.16M44.61 495.9l14.46-19.15M116.92 400.13l-14.46 19.15"/><path fill="none" stroke="#231f20" stroke-miterlimit="10" d="M156.29 286.69l-33.9 32.67 4.08 10.65 47.04 1.7-4.88-12.77-30.91.8-.06-.14 23.5-20.18-4.87-12.73zM158.83 146.61H145.8l-32.2 95.45h13.04l32.19-95.45zM358.52 183.9l-3.92 12.99 47.29-4.98 3.3-10.93-36.64-30.29-3.91 12.95 25.37 18.58-.05.15-31.44 1.53zM312.77 296.83l14-4.33-3.4-11a118.27 118.27 0 0 1-12.88 8zM321.223 324.126l14.026-4.334 3.8 12.296-14.027 4.334zM189 197.51l6.17 12.75 9.77-4.73-.18-.37a33.76 33.76 0 0 1-15.76-7.65zM221.6 189.58l52.4-25.36 3.09 6.38 9.77-4.73-9.5-19.64-66.13 32a33.69 33.69 0 0 1 10.37 11.35zM387.88 247.06l6.94 1.69-18.98 77.9-6.93-1.69-2.57 10.55 21.19 5.16 24.12-98.99-21.2-5.16-2.57 10.54z"/><path d="M302.66 346.44a45 45 0 0 0 2.57-15v-27.2a45.13 45.13 0 0 0-1.45-11.37q3.47-1.57 6.74-3.33a118.27 118.27 0 0 0 12.88-8A142.44 142.44 0 0 0 354.91 250a14.26 14.26 0 0 1-1.52.09A14.09 14.09 0 0 1 339.87 240c-7.56 10.14-22.52 27-44.07 36.67a45.38 45.38 0 0 0-3.46-4 46 46 0 0 1-64.35 0 45.38 45.38 0 0 0-3.46 4C203 267.05 188 250.16 180.47 240A14.09 14.09 0 0 1 167 250.12a14.26 14.26 0 0 1-1.52-.09c8.55 11.73 25.69 31.34 51.13 42.83a45.13 45.13 0 0 0-1.45 11.37v27.21a45 45 0 0 0 2.57 15h85zM306.45 363.36l-3.78-16.92h-84.99l-3.78 16.92h92.55z" fill="none" stroke="#231f20" stroke-miterlimit="10"/><path d="M180.47 240a14.09 14.09 0 1 0-15 10 14.26 14.26 0 0 0 1.52.09A14.09 14.09 0 0 0 180.47 240zM353.39 250.12a14.26 14.26 0 0 0 1.52-.09 14.06 14.06 0 1 0-1.52.09zM224.13 195.23a34.16 34.16 0 0 0-2.53-5.65 33.69 33.69 0 0 0-10.39-11.33 31.7 31.7 0 0 0-2.68-1.67 33.94 33.94 0 0 0-31.1-1 33.89 33.89 0 0 0 41.75 29.19 7.1 7.1 0 0 1 5-9.57zM301.69 202.15a7.09 7.09 0 0 1-.51 2.65 33.91 33.91 0 0 0 41.75-29.19 33.91 33.91 0 0 0-46.7 19.62 7.12 7.12 0 0 1 5.46 6.92zM214.36 244.69c-.08-.71-.13-1.43-.17-2.15v-.32q-.06-1.21-.07-2.43a46.14 46.14 0 0 1 1.49-11.64c-9.62.08-10.82 7.17-10.82 15.92S206 260 215.74 260a15.56 15.56 0 0 0 2.88-.26 45.77 45.77 0 0 1-4.24-14.88zM306.18 242.22v.31c0 .72-.1 1.44-.18 2.16v.12a45.77 45.77 0 0 1-4.25 14.89 15.56 15.56 0 0 0 2.88.26c9.77 0 11-7.13 11-15.92s-1.21-15.84-10.82-15.92a46.14 46.14 0 0 1 1.49 11.64c-.06.82-.08 1.64-.12 2.46zM297.09 212.19a44.44 44.44 0 0 1 0 0zM300.68 217.8q1.06 2 1.94 4-.87-2.04-1.94-4zM298.38 214q1.24 1.84 2.31 3.8-1.07-1.96-2.31-3.8zM260.17 193.68a45.86 45.86 0 0 1 27.31 9 46.06 46.06 0 0 0-54.61 0 45.86 45.86 0 0 1 27.3-9z" fill="none" stroke="#231f20" stroke-miterlimit="10"/><path d="M292.35 272.72A45.81 45.81 0 0 0 306 244.81a46.59 46.59 0 0 1-.76 4.7A46.16 46.16 0 0 1 289.56 227h-58.77a46.16 46.16 0 0 1-15.65 22.46 46.59 46.59 0 0 1-.76-4.69 46.06 46.06 0 0 0 78 27.9zm-25.43-30a8 8 0 0 1 15.9 0m-47.06 0a8 8 0 0 1 15.9 0M239 255.26l42.26-.16a21.13 21.13 0 1 1-42.26.16zM214.36 244.69c-.08-.71-.13-1.43-.17-2.15.04.72.1 1.46.17 2.15zM214.16 242.22q-.06-1.21-.07-2.43.01 1.21.07 2.43zM306.18 242.22c0-.82.07-1.64.07-2.46q-.01 1.24-.07 2.46zM306 244.69c.08-.71.13-1.43.18-2.16-.07.72-.12 1.47-.18 2.16zM289.48 204.2q.85.7 1.67 1.45a46.36 46.36 0 0 1 3.55 3.61 7.12 7.12 0 1 0-7.24-7.11v.5c.7.5 1.37 1.02 2.02 1.55zM232.87 202.65v-.5a7.12 7.12 0 1 0-7.24 7.11 46.33 46.33 0 0 1 7.24-6.61z" fill="none" stroke="#231f20" stroke-miterlimit="10"/><path d="M214.1 239.79q0 1.22.07 2.43v.32c0 .72.1 1.44.17 2.15v.13a46.59 46.59 0 0 0 .76 4.69A46.16 46.16 0 0 0 230.79 227h-3.88a33.25 33.25 0 1 1 66.5 0h-3.85a46.16 46.16 0 0 0 15.64 22.5 46.59 46.59 0 0 0 .76-4.7v-.12c.08-.71.13-1.44.18-2.16v-.31q.07-1.22.07-2.46a46.05 46.05 0 0 0-3.62-17.93q-.87-2.07-1.94-4t-2.31-3.8q-.62-.92-1.28-1.81c-.76-1-1.56-2-2.4-2.93a46.36 46.36 0 0 0-3.55-3.61q-.82-.74-1.67-1.45c-.65-.54-1.32-1.05-2-1.55a46.06 46.06 0 0 0-54.61 0 46 46 0 0 0-18.77 37.11zM282.82 242.76a8 8 0 0 0-15.9 0M251.66 242.76a8 8 0 0 0-15.9 0M281.29 255.1l-42.26.16a21.13 21.13 0 1 0 42.26-.16z" fill="none" stroke="#231f20" stroke-miterlimit="10"/><path d="M260.16 193.8a33.25 33.25 0 0 0-33.25 33.2h66.5a33.25 33.25 0 0 0-33.25-33.2z" fill="none" stroke="#231f20" stroke-miterlimit="10"/></g><path fill="none" stroke="#231f20" stroke-miterlimit="10" d="M88.1 126.86h345.8v236.49H88.1z"/></svg>