<svg xmlns="http://www.w3.org/2000/svg" viewBox="0 0 717.42 137.52"><defs><style>.cls-1{opacity:.1}.cls-2{fill:#fff}</style></defs><title>season-of-giving_1</title><g id="Gallery"><g id="_Group_" data-name="&lt;Group&gt;"><g class="cls-1"><path d="M57.65 55.51Q64 51.44 64 42a8.65 8.65 0 0 0-2.23-5.47q-2.23-2.73-8.16-2.32a14.36 14.36 0 0 0-9.43 3.84 11.51 11.51 0 0 0-3.5 8.57A19.85 19.85 0 0 0 42 54.8a29.22 29.22 0 0 0 8.64 10.52l5.76 4.82q7.7 6.32 10.44 10.66a34 34 0 0 1 5.42 18.14q0 17.49-12.07 27.85-10.9 9.46-27.43 10.59-20.44 1.4-27.36-11.22A21.79 21.79 0 0 1 3 115.63q0-11 6.31-17.65t14.13-7.14q7.82-.54 11.18 4a7.75 7.75 0 0 1 1.44 4.43q-10.77.74-14.95 8.09a11.48 11.48 0 0 0-1.51 5.79 13.54 13.54 0 0 0 3.53 9.7q3.53 3.73 10.32 3.27a16.05 16.05 0 0 0 11.35-5.65 18.48 18.48 0 0 0 4.56-12.66q0-7.47-2.12-12.16A39.51 39.51 0 0 0 41.88 87 83 83 0 0 0 35 79.46q-3.7-3.55-6.93-7.24-7.48-8.54-7.47-17.11 0-10.83 9.36-18.64T53 27.72q16.94-1.16 21.4 8.82a18.9 18.9 0 0 1 1.23 7.7 15.21 15.21 0 0 1-3.09 9.23A10.19 10.19 0 0 1 64.82 58q-4.63.29-7.17-2.49zM121.27 99.93q-11.27 19.38-27.63 20.5-7.17.49-11.44-2.92t-4.27-12a48.29 48.29 0 0 1 5.84-22.64A28.62 28.62 0 0 1 95.95 70.4a20.17 20.17 0 0 1 8.24-2.4q7-.48 9.47 2a9.12 9.12 0 0 1 2.5 6.82q0 8.59-6.92 15.08A28.64 28.64 0 0 1 93 99.56q-.25 2.86-.25 4 0 5.15 1.82 6.67a7 7 0 0 0 5.11 1.29 18.47 18.47 0 0 0 9.74-3.25 47.37 47.37 0 0 0 8.37-8.16zm-12.86-23.32q0-3.63-2.5-3.46-3.68.35-7.12 7a53.42 53.42 0 0 0-5 14.55q5.79-.79 10.19-6.1a18.3 18.3 0 0 0 4.43-11.99z"/><path d="M174.93 96.25q-6.38 19-20.17 20-8.88.61-9.87-8.55-6.58 9.68-15.34 10.28t-11.9-7.77a19.79 19.79 0 0 1-1.13-7 46.9 46.9 0 0 1 .69-8 49 49 0 0 1 2.11-8 40.66 40.66 0 0 1 9-14.9 21 21 0 0 1 14.09-6.61q4.32-.3 6.23 1a4.08 4.08 0 0 1 1.91 3.53V71l1.08-5.42 14.48-1-7.22 34.66a13.42 13.42 0 0 0-.44 3.27q0 4.32 4.12 4 5.35-.37 8.15-10zM149.6 75.31a4.72 4.72 0 0 0-.86-2.32q-.86-1.39-3.66-1.2t-5.45 3.37q-6.38 7.65-8 21.26a37.33 37.33 0 0 0-.25 4.38q0 4.47 1.87 6.11a3.44 3.44 0 0 0 2.7.89 8.26 8.26 0 0 0 5.45-2.75 13.8 13.8 0 0 0 3.39-6.74z"/><path d="M213.31 93.61a65.4 65.4 0 0 1-15.36 13.62q-5.7 6.43-15.81 7.12-7.07.49-10.87-3.11a10.75 10.75 0 0 1-3.8-7.94 12.3 12.3 0 0 1 1.67-6.86 10.93 10.93 0 0 1 3.68-3.64 167.22 167.22 0 0 0 12.37-30.64l14.87-3q.39 9.4.79 15.7l1.23 15.87q.19 2.34.2 4.65a18.66 18.66 0 0 1-.39 4.05 48 48 0 0 0 7.22-5.55zm-35.24 13.07q9.62-.66 9.62-10a55.87 55.87 0 0 0-.39-6.11l-.59-5.7q-.54-5.46-.93-11.86a126.42 126.42 0 0 1-8.15 19.56 3.17 3.17 0 0 1 2.31 3.06 6.17 6.17 0 0 1-1.2 3.76 4.2 4.2 0 0 1-3.24 1.77q-2 .14-2.67-1.14-.01 6.98 5.24 6.66z"/><path d="M265.59 69.85q-6.09 6.8-17.82 9.57-1.18 13.83-7.9 22.53t-16.1 9.35q-11.59.8-14.92-7.52a17.32 17.32 0 0 1-1.18-6.55 46.65 46.65 0 0 1 .61-7.43 52.5 52.5 0 0 1 1.94-7.86 39.28 39.28 0 0 1 8.69-15.18 24.07 24.07 0 0 1 16.3-7.76q12.91-.89 12.91 15.17v.1a9.55 9.55 0 0 0 1.67 0 20.58 20.58 0 0 0 6.95-2.2 44 44 0 0 0 8-4.87zm-26.16 10.43q-2.7-.5-2.7-4.28a5.65 5.65 0 0 1 3.14-5.42 10 10 0 0 0-1-4.45q-.81-1.27-3.17-1.11-4.61.32-8.83 10.79t-4.23 18.39q0 4.86.88 6.1a3.63 3.63 0 0 0 1.87 1.52 8.1 8.1 0 0 0 2.61.18q3.44-.24 6.82-6.51a43.91 43.91 0 0 0 4.61-15.21z"/><path d="M273.44 62.43q4.91-5.93 11.73-6.4a11.46 11.46 0 0 1 8 2.1q3.19 2.43 3.19 7.63a49.84 49.84 0 0 1-1.67 11.9l-2.41 9.88a23.48 23.48 0 0 0-.79 5.26 4.92 4.92 0 0 0 .86 3.11q.86 1.1 3.21.93a6.43 6.43 0 0 0 3.29-.86q-.74 5.5-3.93 8.17a11.5 11.5 0 0 1-6.63 2.91q-6 .41-8.49-3a11.59 11.59 0 0 1-2.16-7.29q0-4.49 2.26-13.68t2.26-12.62q0-5.15-3.63-4.9t-6.48 6.19a20.16 20.16 0 0 0-1.37 3.63l-6.82 32.72-14.48 1 10.65-51 14.48-1zM377.17 62.18q-6.09 6.8-17.82 9.57-1.18 13.83-7.9 22.53t-16.1 9.35q-11.59.8-14.92-7.52a17.33 17.33 0 0 1-1.18-6.55 46.54 46.54 0 0 1 .61-7.43 52.52 52.52 0 0 1 1.94-7.86 39.28 39.28 0 0 1 8.69-15.18 24.07 24.07 0 0 1 16.3-7.79q12.91-.89 12.91 15.17v.1a9.51 9.51 0 0 0 1.67 0 20.58 20.58 0 0 0 6.95-2.2 44 44 0 0 0 8-4.87zM351 72.62q-2.7-.5-2.7-4.28a5.65 5.65 0 0 1 3.14-5.42 10 10 0 0 0-1-4.45q-.81-1.27-3.17-1.11-4.61.32-8.83 10.79t-4.22 18.38q0 4.86.88 6.1a3.62 3.62 0 0 0 1.9 1.52 8.1 8.1 0 0 0 2.65.16q3.44-.24 6.82-6.51A43.91 43.91 0 0 0 351 72.62z"/><path d="M398.47 38.58a24.5 24.5 0 0 0 .2-3 2.51 2.51 0 0 0-1.15-2.2 3.6 3.6 0 0 0-2.28-.7 7 7 0 0 0-4.49 2.2q-2 2-2.92 6.56l-1.73 8.06 7.36-.51-.74 4.08-7.41.51-11.58 55.09q-3.44 17.32-18 18.32a11.69 11.69 0 0 1-8.27-2.5 8.48 8.48 0 0 1-3.61-6.89 13.62 13.62 0 0 1 1.38-6.57 14.52 14.52 0 0 1 3.73-4.38q3.44-2.64 12.17-5.94l12.17-58.27q3.58-17.33 18.31-18.34a11.66 11.66 0 0 1 8.25 2.48 9.09 9.09 0 0 1 3.58 7.56 26.32 26.32 0 0 1-.29 4.14zm-38 65.44a29 29 0 0 0-7.36 4q-3.68 3.3-3.68 7.13 0 2 2.41 2.88a5.35 5.35 0 0 0 2 .16 4.62 4.62 0 0 0 2.82-1.91q1.57-1.83 2.5-6.31zM476.17 21.27q0-10.63-9.31-10-5.48.38-11 5a46.54 46.54 0 0 0-9.71 11.63 67.74 67.74 0 0 0-6.77 15.52 52.69 52.69 0 0 0-2.58 14.84q0 11.49 3.9 17.56t11.7 5.58q7.79-.53 11.62-5.82l5.81-26.09 17.43-1.07L476.17 100q-3.43 17-11.17 26t-23.44 10.09q-9 .62-13.9-4.53a17.63 17.63 0 0 1-4.92-12.67 21.63 21.63 0 0 1 4.46-13.41 14.86 14.86 0 0 1 11.16-6.35q6.7-.46 9.08.5 5.08 1.9 5.08 7.57a21.79 21.79 0 0 1-.79 5.47 12.36 12.36 0 0 0-8.52-2.91 8.47 8.47 0 0 0-6.74 3.73 12.21 12.21 0 0 0-2.38 7 10.15 10.15 0 0 0 2.08 6.33 6 6 0 0 0 5.45 2.5 18 18 0 0 0 5.35-1q6.07-2.33 9.18-16.61l5.42-24.61q-9 5.5-16.9 6-15.12 1-22.45-8.76Q416 76 416 60.46a60.29 60.29 0 0 1 3.24-19.37 56.76 56.76 0 0 1 16.61-24.61q11.66-10.22 28.27-11.36t22.75 8.28a14.34 14.34 0 0 1 2.13 8.1q0 12.48-9.51 13.13-6.28.43-9.31-2.86 2.24-1 4.09-4.84t1.9-5.66zM522.7 72.36q-6.48 19-21.65 20.09a9.68 9.68 0 0 1-7.12-2.36q-3.09-2.63-3.09-9a33.19 33.19 0 0 1 .79-6.63l6.82-32.72 14.48-1-7.22 34.66a17.36 17.36 0 0 0-.39 3.61q0 3.39 4.07 3.11a8.23 8.23 0 0 0 5.47-2.93 15.77 15.77 0 0 0 3.61-6.58zm-6.24-45.17a8 8 0 0 1-2.38 5.81 8.52 8.52 0 0 1-5.69 2.67 7.26 7.26 0 0 1-7.93-7.36 8.46 8.46 0 0 1 2.28-5.83 8.08 8.08 0 0 1 5.65-2.77 7.41 7.41 0 0 1 8.07 7.5z"/><path d="M532 77.27q0 3.34 3.44 3.1 4.66-.32 8.88-6.89 5.69-8.78 7.9-21.55a39.43 39.43 0 0 0 .59-6.32c-.17.37-.64.65-1.42.83l-1 .27a6.92 6.92 0 0 1-.74.1 2.71 2.71 0 0 1-2.7-1.51 7.2 7.2 0 0 1-.93-3.64 5.37 5.37 0 0 1 1.51-3.66 5.74 5.74 0 0 1 4-1.85q4-.27 5.5 2.15a11.67 11.67 0 0 1 1.52 6.28 63.51 63.51 0 0 1-.69 8.74 69.44 69.44 0 0 1-2.16 9.89 51.07 51.07 0 0 1-9.79 19 22.33 22.33 0 0 1-16 8.34q-5.69.39-9-2.28t-3.31-8.71a24.27 24.27 0 0 1 .49-4.89l7.21-34.66 14.48-1-7.22 34.59a18.7 18.7 0 0 0-.56 3.67zM591.17 67.66q-6.48 19-21.65 20.09a9.68 9.68 0 0 1-7.12-2.36q-3.09-2.63-3.09-9a33.27 33.27 0 0 1 .79-6.63l6.82-32.72 14.48-1-7.22 34.66a17.3 17.3 0 0 0-.39 3.61q0 3.39 4.07 3.11a8.22 8.22 0 0 0 5.47-2.93A15.77 15.77 0 0 0 587 68zm-6.23-45.17a8 8 0 0 1-2.38 5.78 8.53 8.53 0 0 1-5.69 2.67 7.26 7.26 0 0 1-7.93-7.36 8.46 8.46 0 0 1 2.28-5.83 8.08 8.08 0 0 1 5.64-2.75 7.41 7.41 0 0 1 8.07 7.5z"/><path d="M625.24 69.89q0 4.32 3.68 4.07a6.9 6.9 0 0 0 5.2-2.52 26.6 26.6 0 0 0 3.58-7l4.22-.29q-5.84 17.34-15.81 19.49a32.63 32.63 0 0 1-3.88.46 11 11 0 0 1-4.57-.67q-6.28-2.22-6.28-9.93 0-4.12 2.26-13.31t2.26-12.62q0-5.15-3.63-4.9t-6.48 6.19a20.19 20.19 0 0 0-1.37 3.63l-6.82 32.75-14.48 1 10.65-51 14.48-1-1.08 5.28q4.91-5.93 11.73-6.4a11.45 11.45 0 0 1 8 2.1q3.19 2.43 3.19 7.63a49.79 49.79 0 0 1-1.67 11.9L626 64.63a23.54 23.54 0 0 0-.76 5.26z"/><path d="M661.86 75.82q-5.35 6-12.08 6.43-9.13.63-12.27-7.75a19.8 19.8 0 0 1-1.13-7 46.89 46.89 0 0 1 .69-8 48.83 48.83 0 0 1 2.11-8 40.64 40.64 0 0 1 9-14.9 21 21 0 0 1 14.07-6.6q4.32-.3 6.23 1a4.08 4.08 0 0 1 1.91 3.53v.2l1-4.88 14.58-1-12.28 59.21q-1.91 9.75-7.8 14.48a16.88 16.88 0 0 1-9.72 3.81 12.66 12.66 0 0 1-9.06-2.45 8.57 8.57 0 0 1-3.56-6.9 13.93 13.93 0 0 1 1.35-6.62 15.43 15.43 0 0 1 4.22-4.73q2.87-2.23 11.8-5.5zm-1.62 7.52a29.56 29.56 0 0 0-7.46 4.1Q649 90.78 649 94.56a2.87 2.87 0 0 0 1.2 2.15 3.8 3.8 0 0 0 2.82.91 5.17 5.17 0 0 0 3.29-1.9q1.69-1.77 2.69-6.36zm-9-18.23q0 7.32 5 7a8.37 8.37 0 0 0 4.54-2.18 11.32 11.32 0 0 0 3.58-5.93l5.1-24.7a7.92 7.92 0 0 0-1-2.14q-.83-1.22-3.56-1t-5.37 3.36q-6.38 7.65-8 21.26a37.11 37.11 0 0 0-.28 4.33zM705.35 69.79a8.41 8.41 0 0 1-2.35 5.82 8.1 8.1 0 0 1-5.62 2.77 7.41 7.41 0 0 1-8-7.47 8.19 8.19 0 0 1 2.36-5.81 8.35 8.35 0 0 1 5.67-2.72 7.3 7.3 0 0 1 7.93 7.41zm-9.52-14.51l7.12-47.66 14.48-1-13.06 48.07z"/></g><path class="cls-2" d="M54.65 50.51Q61 46.44 61 37a8.65 8.65 0 0 0-2.23-5.47q-2.23-2.73-8.16-2.32a14.36 14.36 0 0 0-9.43 3.84 11.51 11.51 0 0 0-3.5 8.57A19.85 19.85 0 0 0 39 49.8a29.22 29.22 0 0 0 8.64 10.52l5.76 4.82q7.7 6.32 10.44 10.66a34 34 0 0 1 5.42 18.14q0 17.49-12.07 27.85-10.9 9.46-27.43 10.59-20.43 1.41-27.36-11.22A21.79 21.79 0 0 1 0 110.63Q0 99.59 6.31 93t14.13-7.14q7.82-.54 11.18 4a7.75 7.75 0 0 1 1.44 4.43q-10.77.71-14.96 8.04a11.48 11.48 0 0 0-1.51 5.79 13.54 13.54 0 0 0 3.53 9.7q3.53 3.73 10.32 3.27a16.05 16.05 0 0 0 11.35-5.65 18.48 18.48 0 0 0 4.56-12.66q0-7.47-2.12-12.16A39.51 39.51 0 0 0 38.88 82 83 83 0 0 0 32 74.46q-3.7-3.55-6.93-7.24-7.48-8.54-7.47-17.11 0-10.83 9.36-18.64T50 22.72q16.94-1.16 21.4 8.82a18.9 18.9 0 0 1 1.23 7.7 15.21 15.21 0 0 1-3.09 9.23A10.19 10.19 0 0 1 61.82 53q-4.63.29-7.17-2.49zM118.27 94.93q-11.27 19.38-27.63 20.5-7.17.49-11.44-2.92t-4.27-12a48.29 48.29 0 0 1 5.84-22.64A28.62 28.62 0 0 1 92.95 65.4a20.17 20.17 0 0 1 8.24-2.4q7-.48 9.47 2a9.12 9.12 0 0 1 2.5 6.82q0 8.59-6.92 15.08A28.64 28.64 0 0 1 90 94.56q-.25 2.86-.25 4 0 5.15 1.82 6.67a7 7 0 0 0 5.11 1.29 18.47 18.47 0 0 0 9.74-3.25 47.37 47.37 0 0 0 8.37-8.16zm-12.86-23.32q0-3.63-2.5-3.46-3.68.35-7.12 7a53.42 53.42 0 0 0-5 14.55q5.79-.79 10.19-6.1a18.3 18.3 0 0 0 4.43-11.99z"/><path class="cls-2" d="M171.93 91.25q-6.38 19-20.17 20-8.88.61-9.87-8.55-6.58 9.68-15.34 10.28t-11.9-7.77a19.79 19.79 0 0 1-1.13-7 46.9 46.9 0 0 1 .69-8 49 49 0 0 1 2.11-8 40.66 40.66 0 0 1 9-14.9 21 21 0 0 1 14.09-6.61q4.32-.3 6.23 1a4.08 4.08 0 0 1 1.91 3.53V66l1.08-5.42 14.48-1-7.22 34.66a13.42 13.42 0 0 0-.44 3.27q0 4.32 4.12 4 5.35-.37 8.15-10zM146.6 70.31a4.72 4.72 0 0 0-.86-2.32q-.86-1.39-3.66-1.2t-5.45 3.37q-6.38 7.65-8 21.26a37.33 37.33 0 0 0-.25 4.38q0 4.47 1.87 6.11a3.44 3.44 0 0 0 2.7.89 8.26 8.26 0 0 0 5.45-2.75 13.8 13.8 0 0 0 3.39-6.74z"/><path class="cls-2" d="M210.31 88.61a65.4 65.4 0 0 1-15.36 13.62q-5.7 6.43-15.81 7.12-7.07.49-10.87-3.11a10.75 10.75 0 0 1-3.8-7.94 12.3 12.3 0 0 1 1.67-6.86 10.93 10.93 0 0 1 3.68-3.64 167.22 167.22 0 0 0 12.37-30.64l14.87-3q.39 9.4.79 15.7l1.23 15.87q.19 2.34.2 4.65a18.66 18.66 0 0 1-.39 4.05 48 48 0 0 0 7.22-5.55zm-35.24 13.07q9.62-.66 9.62-10a55.87 55.87 0 0 0-.39-6.11l-.59-5.7q-.54-5.46-.93-11.86a126.42 126.42 0 0 1-8.15 19.56 3.17 3.17 0 0 1 2.31 3.06 6.17 6.17 0 0 1-1.2 3.76 4.2 4.2 0 0 1-3.24 1.77q-2 .14-2.67-1.14-.01 6.98 5.24 6.66z"/><path class="cls-2" d="M262.59 64.85q-6.09 6.8-17.82 9.57-1.18 13.83-7.9 22.53t-16.1 9.35q-11.59.8-14.92-7.52a17.32 17.32 0 0 1-1.18-6.55 46.65 46.65 0 0 1 .61-7.43 52.5 52.5 0 0 1 1.94-7.86 39.28 39.28 0 0 1 8.69-15.18 24.07 24.07 0 0 1 16.3-7.76q12.91-.89 12.91 15.17v.1a9.55 9.55 0 0 0 1.67 0 20.58 20.58 0 0 0 6.95-2.2 44 44 0 0 0 8-4.87zm-26.16 10.43q-2.7-.5-2.7-4.28a5.65 5.65 0 0 1 3.14-5.42 10 10 0 0 0-1-4.45q-.81-1.27-3.17-1.11-4.61.32-8.83 10.79t-4.23 18.39q0 4.86.88 6.1a3.63 3.63 0 0 0 1.87 1.52A8.1 8.1 0 0 0 225 97q3.44-.24 6.82-6.51a43.91 43.91 0 0 0 4.61-15.21z"/><path class="cls-2" d="M270.44 57.43q4.91-5.93 11.73-6.4a11.46 11.46 0 0 1 8 2.1q3.19 2.43 3.19 7.63a49.84 49.84 0 0 1-1.67 11.9l-2.41 9.88a23.48 23.48 0 0 0-.79 5.26 4.92 4.92 0 0 0 .86 3.11q.86 1.1 3.21.93a6.43 6.43 0 0 0 3.29-.86q-.74 5.5-3.93 8.17a11.5 11.5 0 0 1-6.63 2.91q-6 .41-8.49-3a11.59 11.59 0 0 1-2.16-7.29q0-4.49 2.26-13.68t2.26-12.62q0-5.15-3.63-4.9t-6.48 6.19a20.16 20.16 0 0 0-1.37 3.63l-6.82 32.72-14.48 1 10.65-51 14.48-1zM374.17 57.18q-6.09 6.8-17.82 9.57-1.18 13.83-7.9 22.53t-16.1 9.35q-11.59.8-14.92-7.52a17.33 17.33 0 0 1-1.18-6.55 46.54 46.54 0 0 1 .61-7.43 52.52 52.52 0 0 1 1.94-7.86 39.28 39.28 0 0 1 8.69-15.18 24.07 24.07 0 0 1 16.3-7.79q12.91-.89 12.91 15.17v.1a9.51 9.51 0 0 0 1.67 0 20.58 20.58 0 0 0 6.95-2.2 44 44 0 0 0 8-4.87zM348 67.62q-2.7-.5-2.7-4.28a5.65 5.65 0 0 1 3.14-5.42 10 10 0 0 0-1-4.45q-.81-1.27-3.17-1.11-4.61.32-8.83 10.79t-4.22 18.38q0 4.86.88 6.1a3.62 3.62 0 0 0 1.9 1.52 8.1 8.1 0 0 0 2.65.16q3.44-.24 6.82-6.51A43.91 43.91 0 0 0 348 67.62z"/><path class="cls-2" d="M395.47 33.58a24.5 24.5 0 0 0 .2-3 2.51 2.51 0 0 0-1.15-2.2 3.6 3.6 0 0 0-2.28-.7 7 7 0 0 0-4.49 2.2q-2 2-2.92 6.56l-1.73 8.06 7.36-.51-.74 4.08-7.41.51-11.58 55.09q-3.44 17.32-18 18.32a11.69 11.69 0 0 1-8.27-2.5 8.48 8.48 0 0 1-3.61-6.89 13.62 13.62 0 0 1 1.38-6.57 14.52 14.52 0 0 1 3.73-4.38q3.44-2.64 12.17-5.94l12.17-58.27q3.58-17.33 18.31-18.34a11.66 11.66 0 0 1 8.25 2.48 9.09 9.09 0 0 1 3.58 7.56 26.32 26.32 0 0 1-.29 4.14zM357.48 99a29 29 0 0 0-7.36 4q-3.68 3.3-3.68 7.13 0 2 2.41 2.88a5.35 5.35 0 0 0 2 .16 4.62 4.62 0 0 0 2.82-1.91q1.57-1.83 2.5-6.31zM473.17 16.27q0-10.63-9.31-10-5.48.38-11 5a46.54 46.54 0 0 0-9.71 11.63 67.74 67.74 0 0 0-6.77 15.52 52.69 52.69 0 0 0-2.58 14.84q0 11.49 3.9 17.56t11.7 5.58q7.79-.53 11.62-5.82l5.81-26.09 17.43-1.07L473.17 95q-3.43 17-11.17 26t-23.44 10.09q-9 .62-13.9-4.53a17.63 17.63 0 0 1-4.92-12.67 21.63 21.63 0 0 1 4.46-13.41 14.86 14.86 0 0 1 11.16-6.35q6.7-.46 9.08.5 5.08 1.9 5.08 7.57a21.79 21.79 0 0 1-.79 5.47 12.36 12.36 0 0 0-8.52-2.91 8.47 8.47 0 0 0-6.74 3.73 12.21 12.21 0 0 0-2.38 7 10.15 10.15 0 0 0 2.08 6.33 6 6 0 0 0 5.45 2.5 18 18 0 0 0 5.35-1q6.07-2.33 9.18-16.61l5.42-24.61q-9 5.5-16.9 6-15.12 1-22.45-8.76Q413 71 413 55.46a60.29 60.29 0 0 1 3.24-19.37 56.76 56.76 0 0 1 16.61-24.61Q444.51 1.26 461.12.12t22.75 8.28a14.34 14.34 0 0 1 2.13 8.1q0 12.48-9.51 13.13-6.28.43-9.31-2.86 2.24-1 4.09-4.84t1.9-5.66zM519.7 67.36q-6.48 19-21.65 20.09a9.68 9.68 0 0 1-7.12-2.36q-3.09-2.63-3.09-9a33.19 33.19 0 0 1 .79-6.63l6.82-32.72 14.48-1-7.22 34.66a17.36 17.36 0 0 0-.39 3.61q0 3.39 4.07 3.11a8.23 8.23 0 0 0 5.47-2.93 15.77 15.77 0 0 0 3.61-6.58zm-6.24-45.17a8 8 0 0 1-2.38 5.81 8.52 8.52 0 0 1-5.69 2.67 7.26 7.26 0 0 1-7.93-7.36 8.46 8.46 0 0 1 2.28-5.83 8.08 8.08 0 0 1 5.65-2.77 7.41 7.41 0 0 1 8.07 7.5z"/><path class="cls-2" d="M529 72.27q0 3.34 3.44 3.1 4.66-.32 8.88-6.89 5.69-8.78 7.9-21.55a39.43 39.43 0 0 0 .59-6.32c-.17.37-.64.65-1.42.83l-1 .27a6.92 6.92 0 0 1-.74.1 2.71 2.71 0 0 1-2.7-1.51 7.2 7.2 0 0 1-.93-3.64 5.37 5.37 0 0 1 1.51-3.66 5.74 5.74 0 0 1 4-1.85q4-.27 5.5 2.15a11.67 11.67 0 0 1 1.52 6.28 63.51 63.51 0 0 1-.69 8.74 69.44 69.44 0 0 1-2.16 9.89 51.07 51.07 0 0 1-9.79 19 22.33 22.33 0 0 1-16 8.34q-5.69.39-9-2.28t-3.31-8.71a24.27 24.27 0 0 1 .49-4.89l7.21-34.66 14.48-1-7.22 34.59a18.7 18.7 0 0 0-.56 3.67zM588.17 62.66q-6.48 19-21.65 20.09a9.68 9.68 0 0 1-7.12-2.36q-3.09-2.63-3.09-9a33.27 33.27 0 0 1 .79-6.63l6.82-32.72 14.48-1-7.22 34.66a17.3 17.3 0 0 0-.39 3.61q0 3.39 4.07 3.11a8.22 8.22 0 0 0 5.47-2.93A15.77 15.77 0 0 0 584 63zm-6.23-45.17a8 8 0 0 1-2.38 5.78 8.53 8.53 0 0 1-5.69 2.67 7.26 7.26 0 0 1-7.93-7.36 8.46 8.46 0 0 1 2.28-5.83 8.08 8.08 0 0 1 5.64-2.75 7.41 7.41 0 0 1 8.07 7.5z"/><path class="cls-2" d="M622.24 64.89q0 4.32 3.68 4.07a6.9 6.9 0 0 0 5.2-2.52 26.6 26.6 0 0 0 3.58-7l4.22-.29q-5.84 17.34-15.81 19.49a32.63 32.63 0 0 1-3.88.46 11 11 0 0 1-4.57-.67q-6.28-2.22-6.28-9.93 0-4.12 2.26-13.31t2.26-12.62q0-5.15-3.63-4.9t-6.48 6.19a20.19 20.19 0 0 0-1.37 3.63l-6.82 32.75-14.48 1 10.65-51 14.48-1-1.08 5.28q4.91-5.93 11.73-6.4a11.45 11.45 0 0 1 8 2.1q3.19 2.43 3.19 7.63a49.79 49.79 0 0 1-1.67 11.9L623 59.63a23.54 23.54 0 0 0-.76 5.26z"/><path class="cls-2" d="M658.86 70.82q-5.35 6-12.08 6.43-9.13.63-12.27-7.75a19.8 19.8 0 0 1-1.13-7 46.89 46.89 0 0 1 .69-8 48.83 48.83 0 0 1 2.11-8 40.64 40.64 0 0 1 9-14.9 21 21 0 0 1 14.07-6.6q4.32-.3 6.23 1a4.08 4.08 0 0 1 1.91 3.53v.2l1-4.88 14.58-1-12.28 59.21q-1.91 9.75-7.8 14.48a16.88 16.88 0 0 1-9.72 3.81 12.66 12.66 0 0 1-9.06-2.45 8.57 8.57 0 0 1-3.56-6.9 13.93 13.93 0 0 1 1.35-6.62 15.43 15.43 0 0 1 4.22-4.73q2.87-2.23 11.8-5.5zm-1.62 7.52a29.56 29.56 0 0 0-7.46 4.1Q646 85.78 646 89.56a2.87 2.87 0 0 0 1.2 2.15 3.8 3.8 0 0 0 2.82.91 5.17 5.17 0 0 0 3.29-1.9q1.69-1.77 2.69-6.36zm-9-18.23q0 7.32 5 7a8.37 8.37 0 0 0 4.54-2.18 11.32 11.32 0 0 0 3.58-5.93l5.1-24.7a7.92 7.92 0 0 0-1-2.14q-.83-1.22-3.56-1t-5.37 3.36q-6.38 7.65-8 21.26a37.11 37.11 0 0 0-.28 4.33zM702.35 64.79a8.41 8.41 0 0 1-2.35 5.82 8.1 8.1 0 0 1-5.62 2.77 7.41 7.41 0 0 1-8-7.47 8.19 8.19 0 0 1 2.36-5.81 8.35 8.35 0 0 1 5.67-2.72 7.3 7.3 0 0 1 7.93 7.41zm-9.52-14.51l7.12-47.66 14.48-1-13.06 48.07z"/></g></g></svg>