<svg xmlns="http://www.w3.org/2000/svg" width="56.8" height="58.6" viewBox="0 0 56.8 58.6"><path fill="#4CAF50" d="M54.7 31.2l-9.4 5.6-1.8-1c.8-1.9 1.2-3.9 1.2-6.1 0-2.2-.4-4.3-1.3-6.2l1.8-1.1 9.4 5.6 2-3.4-7.5-4.4 5.6-3.3-2-3.5-5.6 3.3L47 8l-4 .1.2 10.9-1.7 1c-2.5-3.3-6.3-5.6-10.6-6.2v-3.1l9.5-5.4-2-3.5-7.6 4.3V0h-4v6.1l-7.6-4.2-2 3.5 9.5 5.3v3c-4.4.5-8.3 2.8-10.8 6.1l-2.5-1.5.1-11h-4L9.4 16l-4.8-2.7-2 3.5 4.8 2.8L0 24.1l2.1 3.4 9.4-5.6 2.5 1.4c-.8 2-1.3 4.1-1.3 6.4 0 2.2.4 4.3 1.3 6.2l-2.4 1.4L2 31.7l-2 3.4 7.5 4.4-4.8 2.7 2 3.5 4.8-2.8.1 8.7 4-.1-.2-10.9 2.4-1.4c2.6 3.4 6.5 5.7 10.9 6.2v1.9l-9.5 5.4 2 3.5 7.6-4.3v6.7h4v-6.5l7.6 4.2 2-3.5-9.5-5.3v-1.9c4.4-.6 8.2-2.9 10.7-6.3l1.8 1-.1 11h4l.1-8.7 5.6 3.3 2-3.5-5.6-3.3 7.5-4.5-2.2-3.4zm-14-1.5c0 1.4-.2 2.8-.7 4.1l-7.2-4.1 7.1-4.1c.6 1.2.8 2.6.8 4.1zM38 22l-7.1 4.1v-8.3c2.8.6 5.3 2.1 7.1 4.2zm-11.2-4.2v8.3l-7.3-4.2c1.8-2.1 4.4-3.7 7.3-4.1zM16.7 29.7c0-1.5.3-3 .8-4.3l7.4 4.3-7.4 4.3c-.6-1.4-.8-2.8-.8-4.3zm2.7 7.7l7.4-4.3v8.5c-2.9-.5-5.5-2-7.4-4.2zm11.4 4.1V33l7.2 4.2c-1.7 2.2-4.3 3.8-7.2 4.3z"/></svg>