<svg xmlns="http://www.w3.org/2000/svg" viewBox="0 0 48.41 52"><defs><style>.cls-1{isolation:isolate;}.cls-2,.cls-8{opacity:0.2;mix-blend-mode:multiply;}.cls-3{fill:#fff;}.cls-4{fill:#03a9f4;}.cls-5{fill:#673ab7;}.cls-6{fill:#e51c23;}.cls-7{fill:#008e00;}.cls-8{fill:#231f20;}.cls-9{fill:#ffc107;}.cls-10{fill:#795548;}.cls-11,.cls-13{fill:none;stroke-linecap:round;stroke-miterlimit:10;stroke-width:0.55px;}.cls-11{stroke:#6b493f;}.cls-12{fill:#259b24;}.cls-13{stroke:#008e00;}</style></defs><title>icon_santas_canvas</title><g class="cls-1"><g id="Layer_2" data-name="Layer 2"><g id="icon"><g class="cls-2"><path d="M45.14,16A22.54,22.54,0,0,0,26.69,6.22c-6.62,0-10.42,2.25-10.42,6.82,0,5.44,7.59,4.85,7.59,11a4.9,4.9,0,0,1-5.3,5c-4.78,0-4.78-4.9-10.16-4.9C5.16,24.1,2,26.84,2,33c0,7.38,6.92,17.4,19.76,18.87a25.26,25.26,0,0,0,12.74-2,24,24,0,0,0,13-15.12C48.06,32.57,50.14,24,45.14,16ZM9.54,38.56A4.55,4.55,0,1,1,14.09,34,4.55,4.55,0,0,1,9.54,38.56Z"/></g><path class="cls-3" d="M43.14,14A22.54,22.54,0,0,0,24.69,4.22c-6.62,0-10.42,2.25-10.42,6.82,0,5.44,7.59,4.85,7.59,11a4.9,4.9,0,0,1-5.3,5c-4.78,0-4.78-4.9-10.16-4.9C3.16,22.1,0,24.84,0,31c0,7.38,6.92,17.4,19.76,18.87a25.26,25.26,0,0,0,12.74-2,24,24,0,0,0,13-15.12C46.06,30.57,48.14,22,43.14,14ZM7.54,36.56A4.55,4.55,0,1,1,12.09,32,4.55,4.55,0,0,1,7.54,36.56Z"/><circle class="cls-4" cx="24.13" cy="11.13" r="3.7"/><circle class="cls-5" cx="34.84" cy="16.53" r="4.55"/><circle class="cls-6" cx="18.24" cy="40.26" r="4.55"/><circle class="cls-7" cx="32.4" cy="38.37" r="4.55"/><path class="cls-8" d="M34.57,40.18c-2.85-3.7-.7-8.4-3.44-12a5.61,5.61,0,0,0-4.36-2.43,3.49,3.49,0,0,0-.86-1.93L24.32,22.1,4.67,1.73,20.5,28a3.42,3.42,0,0,0,1.66,1.34C20.72,34.33,28.62,41,34.57,40.18Z"/><circle class="cls-9" cx="38.5" cy="28.05" r="5.09"/><path d="M4.92.23h0A1.12,1.12,0,0,1,6.43.37L25.91,21.92a3.42,3.42,0,0,1-.46,5h0a3.42,3.42,0,0,1-4.95-.84L4.67,1.73A1.12,1.12,0,0,1,4.92.23Z"/><path class="cls-3" d="M34.57,38.26c-7,1-16.83-8.58-10.6-13.37,2.6-2,5.4-.89,7.16,1.4C33.87,29.85,31.72,34.55,34.57,38.26Z"/><path class="cls-10" d="M34.57,38.26c-7,1-16.83-8.58-10.6-13.37,2.6-2,5.4-.89,7.16,1.4C33.87,29.85,31.72,34.55,34.57,38.26Z"/><path class="cls-11" d="M31.75,36.86c-4.38-2.45-6.55-5.28-7.31-8.4"/><path class="cls-11" d="M30.94,33.14c-.52-4-3.85-3.75-5.56-6.76"/><path class="cls-12" d="M34.57,38.26c-1.31-1.7-.7-3.92-1-5.6-.12-.75-1-2.1-2.29-1.77-1.7.43-.48,3.67-2.58,2.78s-3.8,1.53-1.93,3A8.29,8.29,0,0,0,34.57,38.26Z"/><path class="cls-13" d="M27.28,35.79a8.35,8.35,0,0,0,5.09,1.53"/></g></g></g></svg>