<svg xmlns="http://www.w3.org/2000/svg" viewBox="0 25.4 150 210.8" enable-background="new 0 25.4 150 210.8"><circle fill="#FFDF8A" cx="136.8" cy="222.3" r="13.2"/><circle fill="#FFDF8A" cx="13.2" cy="223" r="13.2"/><path fill="#8F4293" d="M101 110S72.6 50.8 46.7 38.5c0 0 13.6 55.5-1.2 72.7L101 110z"/><path fill="#FFDF8A" d="M38.1 142.1c0 19.1 15.4 34.5 34.5 34.5s34.5-15.5 34.5-34.5c0-19.1-15.5-34.5-34.5-34.5-19.1 0-34.5 15.4-34.5 34.5z"/><path fill="#fff" d="M33.2 117.6c0 2.5 2.1 4.6 4.6 4.6h68.6c2.5 0 4.6-2.1 4.6-4.6v-8.4c0-2.5-2.1-4.6-4.6-4.6H37.7c-2.5 0-4.6 2.1-4.6 4.6.1-.1.1 8.4.1 8.4z"/><circle fill="#333" cx="87.4" cy="137.2" r="6.2"/><circle fill="#333" cx="59" cy="137.2" r="6.2"/><path fill="#8F4293" d="M108.8 222.8v-11.6c0-19.1-15.4-34.5-34.5-34.5s-34.5 15.5-34.5 34.5v11.6"/><path fill="none" stroke="#fff" stroke-miterlimit="10" d="M74.2 178.9v54.6"/><circle fill="#fff" cx="41.4" cy="32.8" r="7.4"/><path fill="#FFDF8A" d="M107.1 134.7l11.5-15.6s6.6 40.3-15.6 35.4l4.1-19.8zm-65.7 0l-11.5-15.6s-6.6 40.3 15.6 35.4l-4.1-19.8z"/></svg>