<svg xmlns="http://www.w3.org/2000/svg" viewBox="34 0 82.1 261.6" enable-background="new 34 0 82.1 261.6"><circle fill="#FFDF8A" cx="48" cy="162.5" r="10.4"/><circle fill="#FFDF8A" cx="98.7" cy="162.5" r="10.4"/><path fill="#8F4293" d="M52.2 67s22.4-46.8 42.9-56.6c0 0-10.7 43.9 1 57.5L52.2 67z"/><path fill="#FFDF8A" d="M102 92.3c0 15.1-12.2 27.3-27.3 27.3-15.1 0-27.3-12.2-27.3-27.3C47.4 77.2 59.6 65 74.7 65 89.8 65 102 77.2 102 92.3z"/><path fill="#fff" d="M105.9 72.9c0 2-1.6 3.6-3.6 3.6H48c-2 0-3.6-1.6-3.6-3.6v-6.7c0-2 1.6-3.6 3.6-3.6h54.3c2 0 3.6 1.6 3.6 3.6v6.7z"/><circle fill="#333" cx="63" cy="88.4" r="4.9"/><circle fill="#333" cx="85.4" cy="88.4" r="4.9"/><path fill="#8F4293" d="M100.7 184.6c0 15.1-12.2 27.3-27.3 27.3-15.1 0-27.3-12.2-27.3-27.3v-37.7c0-15.1 12.2-27.3 27.3-27.3 15.1 0 27.3 12.2 27.3 27.3v37.7z"/><path fill="#fff" d="M57.8 201.5v46.9h14.3v-46.9"/><path fill="#8F4293" d="M57.8 201.5v24.9h14.3v-24.9"/><path fill="#333" d="M73.1 245.8H56.5c-5.5 10.7-19.8 10.7-21.8 2.9 0 0-7.6 14.8 26.7 12.7 8.1-.5 14.5-8 11.7-15.6z"/><path fill="#fff" d="M92.2 201.5v46.9H77.9v-46.9"/><path fill="#8F4293" d="M92.2 201.5v24.9H77.9v-24.9"/><path fill="#333" d="M76.9 245.8h16.6c5.5 10.7 19.8 10.7 21.8 2.9 0 0 7.6 14.8-26.7 12.7-8.1-.5-14.5-8-11.7-15.6z"/><path fill="none" stroke="#fff" stroke-miterlimit="10" d="M73.4 119.6v73.5"/><path fill="#333" d="M46.1 171h54.6v13.7H46.1z"/><path fill="#FFD400" d="M66.2 169.7h14.3v15.6H66.2z"/><circle fill="#fff" cx="99.4" cy="5.9" r="5.8"/><path fill="#FFDF8A" d="M47.4 86.5l-9.1-12.4s-5.2 31.9 12.4 28l-3.3-15.6zm52 0l9.1-12.4s5.2 31.9-12.4 28l3.3-15.6z"/></svg>