<svg xmlns="http://www.w3.org/2000/svg" viewBox="19.998 0.001 110.114 261.568" enable-background="new 19.998 0.001 110.114 261.568"><path d="M27.98 135.862V1.804" fill="none" stroke="#808082" stroke-width="3" stroke-miterlimit="10"/><circle cx="27.98" cy="2.424" r="2.424" fill="#808082"/><path d="M35.842 135.862V1.804" fill="none" stroke="#808082" stroke-width="3" stroke-miterlimit="10"/><circle cx="35.842" cy="2.424" r="2.424" fill="#808082"/><path d="M22.27 20.482h105.385v240.64H22.27V20.483z" fill="#ccc"/><path d="M127.423 225.852v17.868l-105.38-12.692v-4.118M127.423 18.78v17.874L22.043 23.958v-7.3" opacity=".1" enable-background="new"/><g fill="#808082"><path d="M19.998 14.107h109.994v6.056H19.998v-6.056zM19.998 222.875h109.994v6.056H19.998v-6.055z"/></g><path d="M54.414 134.274v-21.546H37.962v21.546" fill="#FFDE00"/><path d="M111.83 134.274v-21.546H95.38v21.546M54.414 170.38v-21.546H37.962v21.546" opacity=".1" enable-background="new"/><path d="M111.83 170.38v-21.546H95.38v21.546" fill="#FFDE00"/><path d="M35.766 134.274h20.846v3.96H35.766v-3.96zM93.185 134.274h20.847v3.96H93.185v-3.96zM35.766 170.38h20.846v3.96H35.766v-3.96zM93.185 170.38h20.847v3.96H93.185v-3.96zM54.414 205.122v-21.546H37.962v21.546" opacity=".1" enable-background="new"/><g fill="#FFDE00"><path d="M83.12 205.122v-21.546H66.672v21.546M111.83 205.122v-21.546H95.38v21.546"/></g><path d="M35.766 205.122h20.846v3.96H35.766v-3.96zM64.474 205.122H85.32v3.96H64.474v-3.96zM93.185 205.122h20.847v3.96H93.185v-3.96z" opacity=".1" enable-background="new"/><path d="M54.414 62.242V40.696H37.962V62.24" fill="#FFDE00"/><path d="M83.12 62.242V40.696H66.672V62.24M111.83 62.242V40.696H95.38V62.24M54.414 98.347V76.8H37.962v21.547" opacity=".1" enable-background="new"/><path d="M111.83 98.347V76.8H95.38v21.547" fill="#FFDE00"/><path d="M35.766 62.242h20.846v3.96H35.766v-3.96zM64.474 62.242H85.32v3.96H64.474v-3.96zM93.185 62.242h20.847v3.96H93.185v-3.96zM35.766 98.347h20.846v3.96H35.766v-3.96zM93.185 98.347h20.847v3.96H93.185v-3.96z" opacity=".1" enable-background="new"/><g fill="#fff" stroke="#fff" stroke-width="2" stroke-linejoin="round" stroke-miterlimit="10"><path d="M59.527 13.676c0 3.954-3.206 7.158-7.158 7.158-3.955 0-7.16-3.206-7.16-7.158h14.317zM73.844 13.676c0 3.954-3.206 7.158-7.157 7.158-3.953 0-7.158-3.206-7.158-7.158h14.314zM88.162 13.676c0 3.954-3.206 7.158-7.158 7.158-3.954 0-7.16-3.206-7.16-7.158h14.318zM100.477 13.676c0 3.954-3.206 7.158-7.158 7.158-3.955 0-7.16-3.206-7.16-7.158h14.317zM114.795 13.676c0 3.954-3.206 7.158-7.158 7.158-3.953 0-7.158-3.206-7.158-7.158h14.315zM129.112 13.676c0 3.954-3.206 7.158-7.158 7.158-3.953 0-7.158-3.206-7.158-7.158h14.316z"/></g><path d="M32.376 239.857h10.8v21.712h-10.8v-21.713z" opacity=".1" enable-background="new"/><path d="M40.524 248.788h1.57v3.85h-1.57v-3.85z" fill="#85837D"/><path d="M43.814 239.857h10.8v21.712h-10.8v-21.713z" opacity=".1" enable-background="new"/><path d="M44.897 248.788h1.57v3.85h-1.57v-3.85z" fill="#85837D"/><path d="M63.93 239.857h10.802v21.712h-10.8v-21.713z" opacity=".1" enable-background="new"/><path d="M72.08 248.788h1.568v3.85h-1.57v-3.85z" fill="#85837D"/><path d="M75.368 239.857h10.8v21.712h-10.8v-21.713z" opacity=".1" enable-background="new"/><path d="M76.452 248.788h1.57v3.85h-1.57v-3.85z" fill="#85837D"/><path d="M95.486 239.857h10.8v21.712h-10.8v-21.713z" opacity=".1" enable-background="new"/><path d="M103.633 248.788h1.57v3.85h-1.57v-3.85z" fill="#85837D"/><path d="M106.922 239.857h10.8v21.712h-10.8v-21.713z" opacity=".1" enable-background="new"/><path d="M108.006 248.788h1.57v3.85h-1.57v-3.85z" fill="#85837D"/><path d="M75.1 176.602l-16.292-14.82h7.756V98.51h16.752l.076 63.428 7.694.096L75.1 176.602z" fill="#EE3837"/><path d="M75.107 172.956l-9.55-9.09h4.52l.07-62.745h9.843l.064 62.746h5.63l-10.577 9.09z" fill="none" stroke="#fff" stroke-width="2" stroke-linecap="round" stroke-miterlimit="10" stroke-dasharray="0,4"/><path d="M66.603 77.266h16.8v16.802h-16.8V77.266z" fill="#2364D5"/><path d="M75.93 84.77v-7.504h-2.136v7.503h-7.19v2.134h7.19v7.165h2.135v-7.166h7.476V84.77H75.93z" fill="#28AE4B"/></svg>