<svg xmlns="http://www.w3.org/2000/svg" viewBox="0 49.055 149.991 163.458" enable-background="new 0 49.055 149.991 163.458"><path d="M112.04 188.856V67.932" fill="none" stroke="#808082" stroke-width="3" stroke-miterlimit="10"/><circle cx="112.04" cy="68.491" r="2.186" fill="#808082"/><path d="M119.13 171.605V50.68" fill="none" stroke="#808082" stroke-width="3" stroke-miterlimit="10"/><circle cx="119.13" cy="51.241" r="2.186" fill="#808082"/><path d="M126.415 202.656V81.732" fill="none" stroke="#808082" stroke-width="3" stroke-miterlimit="10"/><circle cx="126.415" cy="82.291" r="2.186" fill="#808082"/><path d="M13.19 96.29H136.8v50.964H13.19V96.29z" fill="#7C6959"/><path d="M13.19 107.79H136.8v50.964H13.19V107.79z" fill="#B6B4A8"/><path d="M19.24 153.602h112.023v38.67H19.24V153.6z" fill="#94938A"/><path d="M13.19 157.592H136.8v37.962H13.19v-37.962z" fill="#B6B4A8"/><path d="M126.703 195.554H23.748v-37.962H126.61l.093 37.962z" fill="#94938A"/><g fill="#7C6959"><path d="M23.046 192.5H126.99v2.87H23.046v-2.87zM27.232 189.638h96.02v2.87h-96.02v-2.87z"/></g><path d="M43.844 170.047h9.374v19.585h-9.374v-19.585zM33.732 170.047h9.374v19.585h-9.374v-19.585z" opacity=".1" enable-background="new"/><g fill="#85837D"><path d="M40.82 178.65h1.416v3.472H40.82v-3.473zM44.763 178.65h1.415v3.472h-1.415v-3.473z"/></g><path d="M107.095 170.047h9.374v19.585h-9.375v-19.585zM96.98 170.047h9.375v19.585H96.98v-19.585z" opacity=".1" enable-background="new"/><g fill="#85837D"><path d="M104.07 178.65h1.416v3.472h-1.415v-3.473zM108.015 178.65h1.415v3.472h-1.415v-3.473z"/></g><path d="M80.455 170.047h9.374v19.585h-9.375v-19.585z" opacity=".1" enable-background="new"/><path d="M81.37 178.65h1.414v3.472H81.37v-3.473z" fill="#85837D"/><path d="M70.49 170.047h9.374v19.585H70.49v-19.585zM60.376 170.047h9.374v19.585h-9.374v-19.585z" opacity=".1" enable-background="new"/><path d="M67.466 178.65h1.415v3.472h-1.414v-3.473z" fill="#85837D"/><g fill="#fff" stroke="#fff" stroke-width="1.102" stroke-linejoin="round" stroke-miterlimit="10"><path d="M52.153 206.468c0-1.66 1.346-3.004 3.006-3.004s28.645 1.344 28.645 3.004H52.15h.003zM48.61 206.468c0-1.16.942-2.102 2.104-2.102 1.162 0 2.102.94 2.102 2.102H48.61z"/></g><g fill="#CECCBF"><path d="M9.723 195.554h130.544v4.24H9.723v-4.24zM6.812 199.798H143.18v4.24H6.812v-4.24zM3.45 204.036h143.09v4.24H3.45v-4.24zM0 208.274h149.99v4.24H0v-4.24z"/></g><path d="M6.812 199.798h136.363v2.116l-136.363-1.41v-.706zM9.723 195.554h130.544v1.737L9.723 196.136v-.58zM3.45 204.036h143.09v2.116l-143.09-1.41v-.706zM0 208.274h149.99v2.122L0 208.986v-.712z" opacity=".1" enable-background="new"/><g fill="#fff" stroke="#fff" stroke-width="2" stroke-linejoin="round" stroke-miterlimit="10"><path d="M134.93 203.46c0-1.04.845-1.883 1.885-1.883s1.884.844 1.884 1.884h-3.77zM126.996 203.46c0-1.998 1.62-3.617 3.618-3.617s3.618 1.62 3.618 3.618h-7.236z"/></g><path d="M23.73 157.592h102.835v5.583L23.73 159.46v-1.868zM13.765 111.684h123.19v5.59l-123.19-3.72v-1.87zM85.647 140.802V116.33H64.02v24.472c0 13.283 21.627 13.283 21.627 0M61.313 127.646c-.248 0-.467.117-.613.296-.11-.174-.28-.357-.523-.543-1.32-1.016-3.45-2.133-3.45-2.133-.18-.18-.43-.3-.712-.362v-1h.91c.53 0 .964-.434.964-.966v-1.072c0-.532-.434-.965-.966-.965h-1.606c-.227 0-.412-.185-.412-.412v-.487h.947c.532 0 .965-.433.965-.965v-1.3c0-.153-.124-.277-.277-.277-.152 0-.276.125-.276.278v1.3c0 .227-.185.412-.412.412h-.947v-1.406c0-.152-.124-.277-.277-.277s-.277.124-.277.277v1.406h-1.26c-.153 0-.277.124-.277.277s.124.277.277.277h1.263v.488c0 .532.432.965.965.965h1.606c.227 0 .412.185.412.412v1.07c0 .227-.185.412-.412.412h-.91v-.336c0-.532-.43-.965-.964-.965h-2.065c-.227 0-.412-.184-.412-.41v-.92c0-.53-.433-.964-.965-.964H50.23c-.152 0-.276.124-.276.277s.124.277.277.277h1.378c.227 0 .412.185.412.412v.918c0 .388.232.722.564.875v.624c0 .226-.185.41-.412.41h-1.434c-.153 0-.277.125-.277.278s.125.277.278.277h1.434c.532 0 .965-.433.965-.965v-.534h1.914c.228 0 .413.185.413.412v.474c-.024.04-.04.087-.04.138 0 .05.015.097.04.138v1.097c-.994.053-2.1.768-2.1 2.323 0 2.336-.1 6.707-.1 6.707h-9.765c-.73 0-1.407.216-1.977.584.004-.034.006-.068.006-.102 0-.63-.507-1.142-1.133-1.142H37.23c0 .63.293 2.284 3.163 2.284.023 0 .046-.002.068-.003-.39.582-.618 1.28-.618 2.034v.204c0 1.156.54 2.187 1.38 2.857v9.09c0 .358.288.646.644.646s.645-.29.645-.645v-8.43c.153.044.31.076.47.1v8.37c0 .357.29.645.645.645s.645-.29.645-.645v-8.33h8.537v8.33c0 .357.29.645.645.645s.645-.29.645-.645v-8.43c.147-.035.29-.08.43-.13v8.56c0 .355.29.644.646.644.357 0 .645-.29.645-.645v-9.376c.677-.664 1.1-1.588 1.1-2.61l.012-8.417 2.842-.004c.37 0 .723-.15.926-.396.145.182.366.3.617.3.438 0 .793-.355.793-.793 0-.438-.357-.793-.795-.793M88.482 127.646c.248 0 .467.117.614.296.11-.174.28-.357.523-.543 1.32-1.016 3.45-2.133 3.45-2.133.178-.18.428-.3.71-.362v-1h-.908c-.532 0-.965-.434-.965-.966v-1.072c0-.532.433-.965.965-.965h1.606c.227 0 .412-.185.412-.412v-.487h-.947c-.532 0-.965-.433-.965-.965v-1.3c0-.153.124-.277.277-.277s.277.125.277.278v1.3c0 .227.185.412.412.412h.947v-1.406c0-.152.125-.277.278-.277.153 0 .277.124.277.277v1.406h1.263c.153 0 .277.124.277.277s-.124.277-.277.277h-1.263v.488c0 .532-.433.965-.965.965h-1.606c-.227 0-.412.185-.412.412v1.07c0 .227.185.412.412.412h.91v-.336c0-.532.432-.965.964-.965h2.065c.227 0 .412-.184.412-.41v-.92c0-.53.433-.964.965-.964h1.377c.153 0 .277.124.277.277s-.124.277-.277.277H98.19c-.227 0-.412.185-.412.412v.918c0 .388-.232.722-.564.875v.624c0 .226.185.41.412.41h1.434c.153 0 .277.125.277.278s-.124.277-.277.277h-1.434c-.532 0-.965-.433-.965-.965v-.534h-1.913c-.227 0-.412.185-.412.412v.474c.024.04.04.087.04.138 0 .05-.015.097-.04.138v1.097c.994.053 2.1.768 2.1 2.323 0 2.336.1 6.707.1 6.707h9.765c.73 0 1.407.216 1.977.584-.003-.034-.005-.068-.005-.102 0-.63.507-1.142 1.133-1.142h3.163c0 .63-.293 2.284-3.163 2.284-.023 0-.045-.002-.068-.003.39.582.62 1.28.62 2.034v.204c0 1.156-.54 2.187-1.38 2.857v9.09c0 .358-.29.646-.645.646-.356 0-.645-.29-.645-.645v-8.43c-.152.044-.31.076-.47.1v8.37c0 .357-.288.645-.644.645-.357 0-.645-.29-.645-.645v-8.33H96.99v8.33c0 .357-.288.645-.644.645-.357 0-.645-.29-.645-.645v-8.43c-.146-.035-.29-.08-.43-.13v8.56c0 .355-.29.644-.645.644-.357 0-.645-.29-.645-.645v-9.376c-.677-.664-1.1-1.588-1.1-2.61l-.012-8.417-2.842-.004c-.37 0-.724-.15-.926-.396-.145.182-.366.3-.617.3-.438 0-.793-.355-.793-.793 0-.438.356-.793.794-.793" opacity=".1" enable-background="new"/><g fill="none" stroke="#7C6959" stroke-miterlimit="10"><path d="M85.647 140.802V116.33H64.02v24.472c0 13.283 21.627 13.283 21.627 0z"/><circle cx="74.952" cy="139.301" r="6.9"/><g stroke-width=".814"><ellipse cx="74.952" cy="139.301" rx="4.568" ry="6.9"/><ellipse cx="74.889" cy="139.301" rx="1.846" ry="6.9"/><path d="M68.052 139.3h14.02M69.127 135.96h11.755M71.502 133.586h7.44M68.696 142.54h12.402M71.393 145.126h7.226"/><path d="M82.48 128.733c0-.643-.523-1.166-1.167-1.166H68.69c-.644 0-1.167.522-1.167 1.166v1.498c0 .644.522 1.167 1.166 1.167h12.623c.643 0 1.166-.522 1.166-1.166v-1.497z"/></g><path d="M69.56 127.566l5.283-6.492 5.175 6.475"/><circle cx="74.843" cy="119.676" r="1.186"/><path d="M61.313 127.646c-.248 0-.467.117-.613.296-.11-.174-.28-.357-.523-.543-1.32-1.016-3.45-2.133-3.45-2.133-.18-.18-.43-.3-.712-.362v-1h.91c.53 0 .964-.434.964-.966v-1.072c0-.532-.434-.965-.966-.965h-1.606c-.227 0-.412-.185-.412-.412v-.487h.947c.532 0 .965-.433.965-.965v-1.3c0-.153-.124-.277-.277-.277-.152 0-.276.125-.276.278v1.3c0 .227-.185.412-.412.412h-.947v-1.406c0-.152-.124-.277-.277-.277s-.277.124-.277.277v1.406h-1.26c-.153 0-.277.124-.277.277s.124.277.277.277h1.263v.488c0 .532.432.965.965.965h1.606c.227 0 .412.185.412.412v1.07c0 .227-.185.412-.412.412h-.91v-.336c0-.532-.43-.965-.964-.965h-2.065c-.227 0-.412-.184-.412-.41v-.92c0-.53-.433-.964-.965-.964H50.23c-.152 0-.276.124-.276.277s.124.277.277.277h1.378c.227 0 .412.185.412.412v.918c0 .388.232.722.564.875v.624c0 .226-.185.41-.412.41h-1.434c-.153 0-.277.125-.277.278s.125.277.278.277h1.434c.532 0 .965-.433.965-.965v-.534h1.914c.228 0 .413.185.413.412v.474c-.024.04-.04.087-.04.138 0 .05.015.097.04.138v1.097c-.994.053-2.1.768-2.1 2.323 0 2.336-.1 6.707-.1 6.707h-9.765c-.73 0-1.407.216-1.977.584.004-.034.006-.068.006-.102 0-.63-.507-1.142-1.133-1.142H37.23c0 .63.293 2.284 3.163 2.284.023 0 .046-.002.068-.003-.39.582-.618 1.28-.618 2.034v.204c0 1.156.54 2.187 1.38 2.857v9.09c0 .358.288.646.644.646s.645-.29.645-.645v-8.43c.153.044.31.076.47.1v8.37c0 .357.29.645.645.645s.645-.29.645-.645v-8.33h8.537v8.33c0 .357.29.645.645.645s.645-.29.645-.645v-8.43c.147-.035.29-.08.43-.13v8.56c0 .355.29.644.646.644.357 0 .645-.29.645-.645v-9.376c.677-.664 1.1-1.588 1.1-2.61l.012-8.417 2.842-.004c.37 0 .723-.15.926-.396.145.182.366.3.617.3.438 0 .793-.355.793-.793 0-.438-.357-.793-.795-.793v-.004zM88.482 127.646c.248 0 .467.117.614.296.11-.174.28-.357.523-.543 1.32-1.016 3.45-2.133 3.45-2.133.178-.18.428-.3.71-.362v-1h-.908c-.532 0-.965-.434-.965-.966v-1.072c0-.532.433-.965.965-.965h1.606c.227 0 .412-.185.412-.412v-.487h-.947c-.532 0-.965-.433-.965-.965v-1.3c0-.153.124-.277.277-.277s.277.125.277.278v1.3c0 .227.185.412.412.412h.947v-1.406c0-.152.125-.277.278-.277.153 0 .277.124.277.277v1.406h1.263c.153 0 .277.124.277.277s-.124.277-.277.277h-1.263v.488c0 .532-.433.965-.965.965h-1.606c-.227 0-.412.185-.412.412v1.07c0 .227.185.412.412.412h.91v-.336c0-.532.432-.965.964-.965h2.065c.227 0 .412-.184.412-.41v-.92c0-.53.433-.964.965-.964h1.377c.153 0 .277.124.277.277s-.124.277-.277.277H98.19c-.227 0-.412.185-.412.412v.918c0 .388-.232.722-.564.875v.624c0 .226.185.41.412.41h1.434c.153 0 .277.125.277.278s-.124.277-.277.277h-1.434c-.532 0-.965-.433-.965-.965v-.534h-1.913c-.227 0-.412.185-.412.412v.474c.024.04.04.087.04.138 0 .05-.015.097-.04.138v1.097c.994.053 2.1.768 2.1 2.323 0 2.336.1 6.707.1 6.707h9.765c.73 0 1.407.216 1.977.584-.003-.034-.005-.068-.005-.102 0-.63.507-1.142 1.133-1.142h3.163c0 .63-.293 2.284-3.163 2.284-.023 0-.045-.002-.068-.003.39.582.62 1.28.62 2.034v.204c0 1.156-.54 2.187-1.38 2.857v9.09c0 .358-.29.646-.645.646-.356 0-.645-.29-.645-.645v-8.43c-.152.044-.31.076-.47.1v8.37c0 .357-.288.645-.644.645-.357 0-.645-.29-.645-.645v-8.33H96.99v8.33c0 .357-.288.645-.644.645-.357 0-.645-.29-.645-.645v-8.43c-.146-.035-.29-.08-.43-.13v8.56c0 .355-.29.644-.645.644-.357 0-.645-.29-.645-.645v-9.376c-.677-.664-1.1-1.588-1.1-2.61l-.012-8.417-2.842-.004c-.37 0-.724-.15-.926-.396-.145.182-.366.3-.617.3-.438 0-.793-.355-.793-.793 0-.438.356-.793.794-.793l-.002-.004z"/></g><path d="M40.273 86.412h-4.98L33.46 96.01h8.912l-2.1-9.598z" fill="#CACACA"/><path d="M53.205 57.914l-17.822 17.79" fill="none" stroke="#808082" stroke-width="3" stroke-miterlimit="10"/><path d="M27.43 52.904c-8.042 8.102-7.994 21.183.105 29.225 8.096 8.04 21.183 7.993 29.223-.106l-29.325-29.12" fill="#E3E3E3"/><path d="M27.43 52.904c-8.042 8.102-6.9 19.273 1.042 27.47 5.942 6.134 15.537 5.032 23.575-3.067L27.43 52.904" fill="#fff"/><path d="M71.123 90.897h-2.875L67.19 96.44h5.146l-1.213-5.543z" fill="#CACACA"/><circle cx="53.734" cy="57.322" r="3.061" fill="#808082"/><path d="M78.592 74.44L68.3 84.715" fill="none" stroke="#808082" stroke-width="3" stroke-miterlimit="10"/><path d="M63.71 71.548c-4.645 4.678-4.616 12.233.06 16.877 4.678 4.646 12.234 4.617 16.876-.06L63.71 71.545" fill="#E3E3E3"/><path d="M63.71 71.548c-4.645 4.678-4.645 10.508.033 15.152 4.677 4.646 9.157 2.952 13.8-1.725L63.708 71.548" fill="#fff"/><circle cx="80.185" cy="72.848" r="3.061" fill="#808082"/></svg>