<svg xmlns="http://www.w3.org/2000/svg" xmlns:xlink="http://www.w3.org/1999/xlink" viewBox="0 95.6 150 166.1" enable-background="new 0 95.6 150 166.1"><path fill="#4C8BFB" d="M45.4 141.8c0 7.9 6.4 14.3 14.3 14.3S74 149.7 74 141.8s-6.4-14.3-14.3-14.3v-3.9c10 0 18.2 8.2 18.2 18.2S69.7 160 59.7 160s-18.2-8.2-18.2-18.2h3.9z"/><path fill="#6A7173" d="M45.4 141.8c0 7.9 6.4 14.3 14.3 14.3S74 149.7 74 141.8s-6.4-14.3-14.3-14.3v-3.9c10 0 18.2 8.2 18.2 18.2S69.7 160 59.7 160s-18.2-8.2-18.2-18.2"/><defs><path id="a" d="M45.4 141.8c0 7.9 6.4 14.3 14.3 14.3S74 149.7 74 141.8s-6.4-14.3-14.3-14.3v-3.9c10 0 18.2 8.2 18.2 18.2S69.7 160 59.7 160s-18.2-8.2-18.2-18.2"/></defs><clipPath id="b"><use xlink:href="#a" overflow="visible"/></clipPath><path opacity=".1" clip-path="url(#b)" enable-background="new" d="M77.1 137.3l-4.2 1.4.3 3.2 5.2-1.5-1.3-3.1z"/><defs><path id="c" d="M45.4 141.8c0 7.9 6.4 14.3 14.3 14.3S74 149.7 74 141.8s-6.4-14.3-14.3-14.3v-3.9c10 0 18.2 8.2 18.2 18.2S69.7 160 59.7 160s-18.2-8.2-18.2-18.2"/></defs><clipPath id="d"><use xlink:href="#c" overflow="visible"/></clipPath><path opacity=".1" clip-path="url(#d)" enable-background="new" d="M46 144.5l-4.2 1.4.2 3.1 5.2-1.5-1.2-3z"/><g fill="#6A7173"><path d="M55.4 149.3h8.2v36.6h-8.2v-36.6zM99.9 95.6h9.1v39.8h-9.1V95.6z"/></g><g fill="#818789"><path d="M75.7 105.8H101v31.7H75.7v-31.7zM52 119.4h25.4V142H52v-22.6zM28.3 132.5h25.4V147H28.3v-14.5zM4.6 145.2H30v7.4H4.6v-7.4z"/></g><path fill="#6A7173" d="M4.6 160.6l5.8-3.9-3.5-9.1-6.9 1 4.6 12z"/><path opacity=".1" enable-background="new" d="M90.9 103.7l3.6-1.4 11.3 29.6-1.8.7-13.1-28.9zM69.7 116.7l2.8-1.1 8.1 21.1-1.4.5-9.5-20.5zM48.3 129.2l2-.8 5.2 13.5-1 .4-6.2-13.1zM26.3 141.4l1.5-.6 2.7 6.9-.8.3-3.4-6.6z"/><path fill="#FBC02D" d="M4.9 228.9H114v32.5H4.9v-32.5z"/><path fill="#6A7173" d="M2.3 219.3h114.4v9.5H2.3v-9.5z"/><path fill="#F6EFE2" d="M59.4 219.5h-51c0-28.2 22.8-51 51-51v51"/><path opacity=".2" enable-background="new" d="M4.9 228.9L114 239.2v-10.3H4.9z"/><path fill="#DFD7C5" d="M59.9 219.5H23.8c0-28.2 16.2-51 36.1-51v51"/><path fill="#F6EFE2" d="M59.4 219.5h-20c0-28.2 9-51 20.1-51v51"/><path fill="#DFD7C5" d="M59.4 219.5h51c0-28.2-22.8-51-51-51v51"/><path fill="#F6EFE2" d="M59.4 219.5h36.1c0-28.2-16.2-51-36.1-51v51"/><path fill="#D1D1D1" d="M89.3 219.5h21.1c0-27.7-22-50.2-49.5-51 18.5 7.6 28.4 25.8 28.4 51"/><path fill="#DFD7C5" d="M59.9 219.5H80c0-28.2-9-51-20.1-51v51"/><path opacity=".1" enable-background="new" d="M14.5 243.6h8.8v17.7h-8.8v-17.7z"/><path fill="#85837D" d="M21.2 250.9h1.3v3.1h-1.3v-3.1z"/><path opacity=".1" enable-background="new" d="M96.3 243.6h8.8v17.7h-8.8v-17.7z"/><path fill="#85837D" d="M103 250.9h1.3v3.1H103v-3.1z"/><path opacity=".1" enable-background="new" d="M55.4 243.6h8.8v17.7h-8.8v-17.7z"/><path fill="#85837D" d="M62.1 250.9h1.3v3.1h-1.3v-3.1z"/><g fill="#fff" stroke="#fff" stroke-width="2" stroke-linejoin="round" stroke-miterlimit="10"><path d="M61.2 219.5c0-1.9 1.6-3.5 3.5-3.5s3.5 1.6 3.5 3.5h-7zM34.9 219.5c0-1.9 1.6-3.5 3.5-3.5s3.5 1.6 3.5 3.5h-7zM50.3 219.5c0-3.7 3-6.8 6.8-6.8 3.7 0 6.8 3 6.8 6.8H50.3zM42.3 219.5c0-2.6 2.1-4.7 4.7-4.7s4.7 2.1 4.7 4.7h-9.4z"/></g></svg>