<svg xmlns="http://www.w3.org/2000/svg" viewBox="0 0 93.311 164.666" enable-background="new 0 0 93.311 164.666"><g><g><path d="M46.655 164.666c-2.042 0-3.715-1.55-3.902-3.543C36.91 97.643 0 80.96 0 46.655 0 20.89 20.89 0 46.655 0S93.31 20.89 93.31 46.655c0 34.306-36.91 50.986-42.753 114.468-.187 1.993-1.86 3.543-3.902 3.543z" fill="#FFDE00"/><path fill="#F6F3EF" d="M29.477 21.723h27.787V70.08H29.477zM29.477 21.723h27.787V70.08H29.477z"/><path fill="#81D4FA" d="M33.092 24.295h21.655v43.337H33.092z"/><path fill="#2D9720" d="M43.112 26.314l-.025.026h.03zM45.372 25.244l-.077.003.077.012zM38.104 28.687l-.018-.045-.013.045zM47.118 37.03l-.048.074.01.11.848.26.414-.256.032-.004.155-.18.076.045.042-.012.277-.54-.017-.03-.02-.006.01-.045-.095-.167-.106-.007-.018-.168-.006-.003.014-.157-.067-.014-.117.085-.154-.146-.08.023-.045.08.012.065-.128.005-.037.057-.106-.062-.037.012-.04-.02-.198.102-.002.023-.104-.087-.023.005-.05.218-.047.003v-.01l-.03-.046.015-.08-.388-.258-.065.035-.01.127h-.057l-.086.118.023.038-.04.004-.086.27.026.028.424-.042-.347.31.066.05.21-.016.07.116-.012.072zM43.573 25.393h.105l-.003-.017-.038-.01-.2.07-.033.013.085-.008zM54.747 39.954v-.05l-.01.033zM54.062 28.225l-.087-.034-.074.05.087.353.02.01.132-.033-.006.057.058.044-.192.013-.022.033.087.39.266.1-.02.013-.024.09.158.32.19-.043.113-.47v-1.13h-.48zM44.665 25.516h.013l.003-.007-.012-.008zM41.122 25.543l-.365.027-.86.087v.018l.908-.04-.006-.02zM46.06 25.09l-.102-.06.072.087zM37.55 27.81l.02-.003-.02-.012zM43.026 26.34v.065l.06-.065zM43.174 26.354l.044-.004v-.01h-.065l.008-.11-.014-.01-.112-.613-.017.087.114.646h-.012l.01.04zM43.404 25.45l-.378.03v.11l.005-.002.004.02.005-.023zM45.92 24.982l-.027-.206h-.04l-.032.172.138.082zM36.703 48.433l-.073.022-.014.206.087.07.007.078.063.077.05-.004.046-.166-.05-.068.015-.057zM36.6 49.946v.042l.524.083.02-.04-.06-.12-.347-.08zM37.365 48.948l.003.12.032.028v.027l.058.07.073-.04.037-.155-.02-.03zM44.297 36.307l.094.064.062-.038.038.04.08-.018.013-.042.097.003.07-.157.073-.012.017-.04.084-.017.033-.11.043-.004.218-.573.55-.187.037-.1.956-.488.014-.03-.028-.027.44-.25.533-.002v-.16h-.525l.06-.288.157-.015-.046-.362-.01-.005-.022-.315-.052-.008.02-.136.21-.026.206.018v-.102l-.196-.02-.083-.364-.088-.017.025-.088-.046-.036.007-.105-.198-.09.463-.246.03-.272-.046-.077-.125-.042.296-.093.12-.195-.113-.242h-.213l-.005-.25-.017-.02.057-.053.13.096v-.042l.557.15-.055-.25-.13-.01-.03.017.033-.116-.024-.038-.264.006-.028-.288-.2-.143.168-.126-.137-.092.006-.003-.366-.36.158-.07-.036-.074.58.064.048-.67-.575-.072.175-.086.164.106.113-.1-.044-.14-.145-.093v-.01l-.015.005-.183-.13-.042.013-.017.112-.025.322h-.47v-.848l.29-.053-.042-.03-.053-.015-.02-.026-.065-.007-.03.03-.475-.062.246-.01.073-.07.11.012.163-.018.586-.012v-.17l-.127.056.323-.334-.292-.375-.444-.06-.08.05-.06-.044-.03.008-.014-.048-.017-.322h-.025l.002.094-.047-.094h.026v-.174l-.164.004.164-.036v-.05l-.142.01.026-.06.052-.06.064-.015v-.048l-.404-.262-.08.023-.042-.015-.017-.03-.165-.012-.025.145-.283-.14v-.03l.096.04.007-.01-.05-.09.017-.014.1.064.1-.132-.072-.162-1.068.058.015.09-.02.003-.06-.11-.266.083-.004.007-.126.02v.02l.078.043.02-.078.027-.004-.035.09.043.023h-.133v-.028l-.016-.038-.013-.102.308-.08.2-.024.228-.01-.024-.003-.045-.032.195-.034.013.017.052-.022.307-.084.028-.14-.085-.052-.046.03-.034-.037-.053.015-.17-.29-.16.187-.315-.112-.03.023.075-.096-.376.078-.053-.01-.057.095-.065-.003-.016.045.03.052-.046.05-.136-.13-.42-.02h-.104l-.19.245-.063-.054-.02.015-.01.14.063.056-.002.026-.038.006-.02.11.05.036.14-.022.005.043.07.016-.067.002.005.033-.193.016-.043.026-.03.022-.03.05-.04.02-.146.11-.038.56.11.076-.015.022-.04-.016.002.03h.027l-.026.037-.036.005-.094.057-.062.008v-.043l-.02.022-.13-.043-.074-.33.023-.028-.186-.513-.097-.04-.065.033-.024.653-.02.012-.033-.025-.018.02-.035-.008-.007-.015-.134-.052-.008.01.045.086-.02.038-.067-.015-.133-.34-.295.452-.027.004-.008-.018.18-.33-.03-.052.04-.034.08-.454-.224.005-.017.016.048.065-.01.105-.1-.13-.067.058-.004.044-.72.03-.06.002.015.052-.165.074-.025.34-.164.17.014.03-.007.025-.158.23-.066-.217h-.08l-.056.46-.014-.445-.014-.07-.257.216-.008-.034-.07.002-.002.02.036.02-.226.082-.004.028-.118.07.014.076-.1.087-.633.06-.16.015-.227-.008v.059h.27l.485.025-.352.057-.402-.002v.027l.764-.006.324.092-.027.098.08.043.072.018-.26.353-.59-.04-.01.033.022.025-.013.027-.366-.025-.424.06-.012-.01-.027.016-.297.042.105.068-.096.055.075.09-.015.132.362.406.047-.008.037.093.01-.03.01.04.082-.008-.014.108.026.03.698-.125.01.088-.062.046-.084-.053-.825.262.03.112-.024.024-.007.094.197.228.036-.004.025-.033.03.06.155.03-.122.25.717.492.013-.137-.067-.085.015.008.065-.015-.003.014.127.088.404-.267.824.64-.013.04.313.585-.032.01.08.04.002.01-.05.076.28.865-.05.105.007.034.1.068-.136.45.07.026-.032.09.016.038.052.016-.093.12.093.275.354-.09-.018-.092.05-.06.028.05-.036.03.108-.008-.078.122.056.04-.004.007.007-.005.005.022.067.012H41.58l.128.317-.01.022-.634-.09.083.046-.043.01-.014.042.072.122-.017.002-.1.242.032.04-.065.06-.003.043.048.047-.037.07.142.08-.007.04.23.104.327-.25-.133-.19.17.022.02.225-.022.023-.053.435-.215.012-.08.21-.123-.002.062.05-.04.03.02.067-.006.003-.113.505.094.124-.05.21.028.006.096.42.066.05.077.4.058-.047-.02.167.047.07.058-.006.067.19-.02.053.145.303.025.005.134.262-.022.064.09.115-.002.043.04.006-.02.09.216.156-.04.04.068-.008-.036.1.06.04.345-.08.033.055-.002.082.098.233h.022l.024.025.158.03.037-.05-.01.075.047.035.117-.04.04-.067-.008-.03.105-.022.153-1.01-.038-.04.195-.12.003-.04-.003-.004.14-.554.066-.044.013-.04-.135-.227.13.003.104-.182-.055-.09.328-.048.032-.105zm1.297-8.604l.06-.08-.057.102-.003-.022zm.074-.1v-.04h.006l-.006-.024.065-.052-.065.114zm.53 6.05l-.01-.025h.038l-.03.026zm.994.238l-.047-.006.038-.003.01.01zm-.332-1.97l.02-.064.173.185-.22-.103.027-.017zm-.03.7l-.025-.02-.003-.045.028.065zm.103 1.23l-.327-.05.182-.087-.012-.133.157.27zm-.204-1.468l-.055-.043.045-.03.015.017-.017.028.01.027zm-.18-4.46l.04-.046.153.086h-.202l.01-.04zm.043 5.908l-.145.04.003-.018.143-.022zm.276-7.49l-.094.527.03.055-.03.12-.032-.26-.187.26-.136.028-.104.132-.114-.004-.035.046-.07-.006-.17.145-.008.042-.148.09-.01-.046.213-.248-.007-.03.014-.024.01.016.025.007.232-.694.182.105.088-.066-.01-.13-.25.013-.11.33-.05-.03-.014.002-.02.024-.053-.067-.373.08.016-.132.01-.004.02.01.217-.052.043-.084.013.01.204-.168h.705zm-1.094.043l-.216-.023-.082-.176.298.2zm-1.107.17l.046-.095.447-.182-.003-.03-.04-.043-.068-.004.003-.02.107.02.008.045.225-.076-.208.267-.027-.003-.01-.046-.36.138.005.095-.126-.03v-.038zm-6.337 1.33l-.02.002.02-.07v.067zm5.452-2.002l-.07-.243.058.14.073-.014.13.144v.054l-.19-.08zM36.895 48.426l.06-.064v-.17l-.053-.056-.06.004-.02.044-.064-.1-.212.02-.06.07.058.072.243.02.1.16zM36.864 37.55l-.02-.173-.196-.042-.06.04-.016.048.163.194zM38.678 49.967l.086.125.306-.057.035-.09-.042-.094-.32-.005zM37.52 49.525l-.288-.14v-.013l-.374-.2-.004-.054-.296-.11-.014.025-.194-.128-.868.127-.103.18.048.07.293-.078-.03.118.044.052.186-.073-.085-.158.047-.018v.008l.88.412-.047.09.01.04.745-.044zM35.687 37.658l-.125.323.048.056.18-.04.255-.336-.03-.093-.147-.013zM52.954 44.714l-.073.053.055.468.09.15.066-.003.078-.08.067-.002.014-.61-.032-.024.013-.442-.067-.06-.066.063-.004.028-.144.117.098.297-.05.054zM52.29 45.032l-.044-.08-.16.055v.02l-.05-.064-.228.173.006.043.163.097.074.003.083-.184v-.003l.128.04.03-.1zm-.202.012v-.002.002zM51.6 45.316l.013.044.06.02.023.005.082-.094-.022-.083-.068-.012zM37.49 49.44l.044.033.187-.052-.01-.164-.022-.015-.202.122zM37.473 50.066l.075.012.037-.04.238.008.098.115.07-.002.097-.118.463-.014.055-.1-.014-.09-1.028-.24-.037.07.104.083-.07.036-.015.044.002.003-.172.015-.022.026.003.082zM54.697 60.458l.05.088v-.222l-.034.02zM54.286 46.86l-.75-.213-.014-.033v-.002l-.06-.12h-.053l-.038.038.195-.3-.02-.145-.087-.066.11-.175-.06-.13-.105.042-.06-.085-2.723.497-.138-.124.572-.143.037-.004.133-.19.12-.017.18-.328-.025-.092-.05-.033-.008-.042.668-.734-.025-.086-.01-.008.002-.117.108-.07.412.113.475-.345.188.08.21.445.088.007.277.295h.115l.13.16h.065l.222.354-.043.03-.02.08-.586.062.012.214.52.238.067-.053.037-.248.114-.002.22-.486-.092-.07.02-.072.026-.016.105.09v-.236l-.258-.21.026-.1-.07-.067-.17.026-.486-.66.014-.154-.018-.02v-.006l.118-.07.065.228.115.015.026-.05.047.023.055.2.352.224-.008.024.19.16v-3.7l-.692.258-.032-.03.016-.017-.055-.187-.125-.032-.053.08-.06-.012.022-.08v-.05l.058-.06.263-.02.044.126.14.03.01-.114-.126-.114-.043.016.04-.158.37-.11.096-.27-.038-.09-.02-.005.126-.585.057.015v-.76l-.065-.047h-.006l-.012-.268.053-.028.03-.315v-3.553l-.092-.03-.135.21-.02-.037-.067-.017-.166.185-.06-.026-.162.26.15.056-.14.13-.01.094.026.03.214-.107.036.04-.083.152.022.07-.45.65.036.078-.127.133-.006.095.02.02-.07.05-.04.23-.138.085-.014.13-.035.003-.252.432.008.013-.01.006-.08-.056-.136.083-.025.083.01.012-.3.272.004.044.02.01-.126.054-.003.02-.06.012-.058.07.015.04-.056-.012-.07.05.115.99-.1.126.044.086.057.003-.03.023-.028.178.25.283h.246l.37-.375.117.012.037-.077.032.02.065.39.04.013.204.484-.103.15-.118.02-.022.042.004.007-.118.058.135-.148-.024-.14-.082-.016.02-.398-.055-.063-.466.33-.04.56.1.075.05.225-.026.023-.015.09.044.08-.287.052-.034.062-.002-.002-.382.085-.183.49.023.05-.435.21.032-.103-.023-.04-.08-.007.146-.16.008-.25-.12-.105-.14.015.01-.025-.56-1 .006-.044-.02-.03.16-.493-.067-.057-.297.034-.002-.053-.007-.005.136-.124-.05-.196-.417.065-.026.082-.038.015-.04.122.005.007-.057.067-.015-.01.068-.118-.048-.167-.053-.008-.19.125.005.237.086.026-.025.115.178.12-.107.144.078.13h.03l-.02.04-.04.002-.077.148.017.04.12.03-.004.02-.1.02-.01-.026-.12-.047-.318.245.005.106.05.014-.23-.01-.086.155.047.09-.016.017-.012.088.056.097.092.026-.214.282.115.26h.005l.03.04.727-.265.162-.792.073.004.008-.017-.054.21.024.022.15-.064-.016-.163.016-.04.032-.006.114.337-.01.022-.245-.027-.017.016-.008.093.033.047-.075.144.06.038.06-.014.01.037-.248.21-.003.034.118.12.073-.027.06.038.06-.013.006.006-.076.01-.29.445.025.04.146-.004.077-.092.165.025.15-.142.055.054.23-.064.02-.03.453-.045.058-.074-.027.198-.244.152-.016.07-.133.008-.05-.084-.14-.013-.074.057.057.277-.588.037v.16l.007.005-.01.047.672.534-.03.658-1.264-.04-.047.096-.097.013-.072.088.005.098.054.056-.107 1.008.1.133h.036l-.03.3.046.04.407-.01.16.218-2.145 3.365.02.036.05.02-.042 1.08-.156.088.174.27-.033.036.037.26.197.17.04-.003.152.193.015-.002.322.54-.008.01.057.12.067-.014 1.015.61 1.564-.273.06-.074.58-.017.285.393.456-.07-.044.02-.026.19.026.03.15-.044.023-.058.057.06-.11.397.04.05-.052.22-.058.04 1.725 6.516v-12.99l-.345-.14-.116-.215zm.218-12.304v.004l.02.02-.006.1.048.036.084-.027.01.018-.004.007.006.04-.076.04-.005-.066-.124-.068.048-.106zm-.223.798l.018.01-.024.02-.003-.027.01-.003zm-.667 5.46l.016.02-.11.08.008-.095-.02-.027.105.022zm-.143-.03zm-.13-.1l.048.096-.068-.004-.004-.09.025-.002zm-2.96.04l.005-.036.024.057-.03-.02zm.006-.098l-.022-.03.02-.003.026-.047.034.012-.058.068zM37.178 48.795l.12-.037.018-.044-.172-.18h-.005l-.052-.097-.065.002-.06.138.086.108.056-.008zM33.092 31.59v.52l.07-.1-.04-.083.087-.232zM33.335 33.04l.01-.416-.098-.25-.02-.005.072-.084-.075-.2-.05-.005-.083.077v1.08h.038zM36.404 29.914l-.078.314.026.03.243-.04-.047-.267-.07-.054zM36.3 37.79l-.062.342.117.133.08-.016.1-.39-.176-.075zM48.18 28.408l-.08-.098-.083.017-.052.35.02.016.17-.095zM37.264 27.985l-1.854.007v.003l-.01-.01h-.177l-.342.024-.02.03.022.118-.004.06.063.046.18-.02v.014l.044.047.09-.005-.064.1.1.135-.01.057.142.21.164-.005v.003l.012.028-.08.027-.2-.088-.195-.386-.35.04-.06.076.12.442.062.044.042-.005-.474.63.06.103-.374-.32-.287.177.002-.258-.634-.218-.1.12v.096l.034.04-.06.05-.007.042.418.5.308-.085.18.925-.037.043.016.18.17.182.08-.052.08.062.057-.03.153.11.038-.006.087-.114-.002.055.055.074 1.013-.07.013-.025.07.08.543-.08.042-.082-.026-.115.1.02.066-.084-.03-.157-.062-.04-.073.03.127-.14-.055-.256-.52-.28-.806.346v.004l-.17-.13-.08.024v.007l-.068.032-.098-.113-.02.006.003-.026-.227-.15.002-.05.15-.04.066-.22-.002-.004.004-.007.236.064.052-.046.527.117.077-.07-.03-.06.027-.09.124.11.036-.007.03-.05.09.098.03-.002.09-.092.14.005v.262l.055.018.627-.415-.017-.37-.055-.055-.124.08-.014-.03.026-.03.002-.093-.067-.088.193-.037.138-.266-.02-.09-.054-.044-.027-.145.39.002.094-.255-.003-.006.06-.155-.03-.04zm-1.865.22l.004-.015.014.004-.02.012zm.65.87l-.004-.013.085-.022.038-.025.03.025-.15.035zM33.825 31.113l.048-.497-.333-.37-.143.086v-.05l-.124-.087-.03.003-.102.105v-.087l-.048-.057v.382l.046-.037.054.052.068-.013-.078.093.394.538.25-.062zm-.552-.584l.005-.015.005.003-.01.01zM47.776 29.524l.038.496.067.058h.01l.06-.07-.023-.473-.038-.042zM38.51 38.592l.02.172.035.01.154-.1-.035-.143-.053-.007zM39.02 38.198l.01.044.18.093.077-.03.013-.155-.125-.087zM36.688 34.63l.03-.204-.026-.023-.133.025-.145.36.025.027.182-.07zM33.607 50.46l1.21.608.057-.02.52.728.056-.014.143.09.014.113.24.106.02-.03.103.017-.035.108.013.03.09.04.074-.046-.002-.016h.01l.005.032.067.06.08-.003.13-.116.004-.036-.06-.08.16-.11.11.077-.003.006.19.896-.655 1.197.14.098-.234.242.057.255-.014.028 1.98 2.536-.434 3.99-.07.05.008.095-.04.02-.09 1.13.012.013-.096.49.162.08.076-.08-.007.02.034.08-.05.132-.04.025-.03.09.014.03-.133.083.124.123-.006.07-.26-.002-.018.04.034.064-.137.173.023.076.09.055.036-.01.034-.056.096.023-.094.214.033.024.01.163h-.01l-.09-.178-.055.003-.048.276.046.067.014.003-.013.122h-.01l-.045.115.012.034.088.046-.08.054.135.278-.052.11.047.06.096-.01.02.097.106.054-.013.055-.014.003-.052.08.008.05-.114-.04-.03.106.263.41.353.1.006.094.067.06h.022l.03.045.022.003-.003.003.088.146.082-.037.1.122.142.008.02-.035.174.088.037-.095-.02-.052.51-.18.03.06.23-.053.045-.082-.067-.056-.18.015-.02.027-.598-.462.033-.072-.11-.173.038-.004.03-.06-.174-.46.65-1.132-.33-.26.38-.302.09-.44.146-.113v-.002l.083-.006.052-.12-.097-.216-.155.06-.05-.25.347.102.194-.176.055-.35-.042-.05.854-.222.18-.49-.06-.08-.044-.005-.02-.22-.097-.075.495.114 1.288-1.838-.055-.22 2.603-3.918-.127-.407-1.83-.758-.03.014-.02-.04-.534-.125v-.004l-.343-.203.065-.157-2.01-1.47-.044.016-.045-.145-.062-.034.022-.006.04-.22-.025-.03-.494.01.002-.01-.1-.09-.143.1.026.054-.006.02-.163.024-.1-.09-.333.026-.066-.138-.224-.05-.114-.157-.04.005-.233.256-.008-.032.103-.116-.028-.094-.104-.06-.834.43-.01.183-.204.16-.527-.208-.03.065-.34.056-.297-.427.105-.738-1.022-.213.1-.323h.005l.117-.347-.006-.007.145-.375-.076-.113-.724.094-.19.51-.502.062-.543-1.363.112-.096-.04-.398.028-.003.13-.2-.002-.025.228-.064.027-.106.88.057.013-.02.126.062.08-.094v-.036l-.077-.08.047-.093.472-.03.202.177.244-.08.177.162.033.32.002.003-.01.062.356.54.2-.07-.027-1.587.792-.598v-.05h.02l.45-1.29-.017-.03.275-.088.07-.108.084-.014.03-.035.26-.04.056-.08-.01-.07-.068-.06-.062.04-.05-.07.117-.304.2-.093.032-.076.05.037.324-.182-.004-.083.186-.022-.103.067-.017.302.217.116.254-.287.1-.004.025-.027v-.023l.443-.16.042-.07-.006-.024.193-.102.026-.088-.1-.132-.014.002-.002-.146-.09-.055-.045.012-.176.322-.025-.014-.012.004.043-.108-.02-.042-.33-.03-.058-.137h-.066l-.042.066-.05-.087.048-.097-.022-.094-.028-.02.156-.134-.02-.193-.552-.06.142-.21h.288l-.035.057.643.246.017-.04-.068-.132-.316-.13 1.153-.375-.104.173.007.032.014.01-.03.074-.03.015-.038.18-.03.014-.034.085.004.01-.197.244.06.065-.08.08.005.115.653.113-.017.073.107.097.25-.162.01.152.062.008.023-.02.02.08.054.022.122-.052.015-.54-.02-.008v-.117l-.026-.03-.096.017.045-.2-.022-.03-.278-.017-.038-.05h-.022l.005-.04-.172-.12.148-.405-.096-.04.075-.083-.043-.55-.244-.098-.023-.11-.034-.02.03-.08-.184-.188-.03.003-.054.055-.12-.137h-.04l-.044-.042-.064.005-.058-.15-.135-.038-.005-.06-.068-.065-.02.002-.012-.017.07-.243-.08-.125.016-.065-.158-.332-.043-.01.005-.063-.072-.057-.016-.12-.007-.005-.005-.048-.077-.043-.018-.096-.055-.008-.142-.297-.098.006-.17.288.045.084-.035.024-.023.088.01.022-.01.027-.136.037-.134.21-.06-.135-.05.006-.083-.108-.078.016-.027-.044.026-.084-.022-.042-.023-.003.023-.068-.046-.096.05-.063-.07-.173.07-.187-.123-.113-.033.003-.033.035-.02-.033-.24-.03-.014-.042.04-.1-.064-.043-.044.006-.065-.14-.03-.004-.028-.09-.25-.15-.26.134-.484-.17-.162.186.074.28.048.013-.103.35.05.038.063.334-.035.034v.12l-.2.128.384 1.034-.517.543.185.8-.23.25-.188-.255h-.004l.002-.03-.047-.065.144.035.027-.1-.092-.18h-.18l-.017-.592-1.716-.843-.19.067-.175-.588-.283-.09.14-.83-.043-.052.194-.19v-.004l.026-.052.044.016.068-.034v-.185h.056l.068-.065-.007-.04.217-.083.005-.222.135-.108.007-.097.034-.03.06.026.257-.098.23-.48-.193.655.1.124.196-.06.008.136.118.105.05-.002.334-.318.004-.062.1.015.043.124.29.103.223-.2v-.037l-.186-.202-.115.013-.053-.227-.392-.248.003-.056-.135-.1-.037.01-.116-.178-.112.032.05-.074-.042-.174h.048l.412.46.048-.004.026-.106-.1-.167.03-.09.003-.01h.038l.423-.464.01-.19-.155-.202.01-.185.115-.126.01-.2-.02-.026-.022-.003.053-.107-.014-.04-.19-.06-.05-.21.09.016.035-.046.066.07.104-.015.086.175.052-.002.31-.327-.035-.097.03.026.063-.008.006.138.068.068h.045l-.014.087.256.215-.01.01-.14.002-.024.028.052.3.285-.15v.02l.18.215.016-.002.008.07-.06-.01-.072.06-.036-.09-.285-.056-.21.468.126.21.283-.005.14-.296.028.04.27-.066.006-.034.08.274-.38.602.12.19-.657.053-.032.154-.094.074-.047.216.327.253.24-.156.2.06.058-.098-.002-.003.067.01.112.277.16.09-.004.086.31.45h.045l.09-.085.028.017.052-.01.416.31.09-.027.08.095.103-.01.058-.08-.024-.218-.198-.193.212.028.15.192.045-.002.065-.076-.02-.05.063-.057-.044-.156.025-.016-.02-.417-.097-.037.038-.186-.187-.17-.038.003-.022-.033h-.117l-.042-.12-.026-.006v-.13l-.068-.07h-.046l.14-.068.006-.044-.07-.076.01-.006.225.178.03-.003.22.373.035-.01.118.14.08-.016.073-.306.093-.01.134-.275-.01-.032.04-.002.066-.098-.003-.033-.015-.016.03-.138-.178-.215-.137.026.01-.15-.026-.024-.126.017.004-.013-.14-.256-.075-.02-.015-.11-.023-.017-.156.053.012-.024-.074-.12h-.063l-.042-.084-.154-.06.01-.05-.058-.085.045-.084-.008-.037-.008-.005.252-.082-.045-.077-.25-.09.13-.045.07-.12-.253-.327h-.032l-.03-.172-.297-.147-.057.022-.008-.094-.068-.06h-.027l.013-.043-.358-.365-.05.016-.048.094h-.058l.017-.135-.026-.025-.11.02.008-.115-.057-.074-.09-.016.017-.092L37 32.43l.145-.056.013-.04-.258-.453-.69-.11-.066.06-.088-.138-.43.11-.08.113-.042-.015-.073.044.007.042h-.09l.12-.27-.025-.035-.537.016-.517 1.56.236.175-.098.002-.012.11.003.004-.024.065.28.396.267.02.022-.023.137.176h.093l-.03.03.004.342.113.11-.058.105.003.01-.07.02-.083.284-.052-.076-.095.023-.044.283.084.075-.007.086-.053.035-.142-.375.08-.035.016-.032-.274-.598-.16.02-.08.234-.096-.16.02-.02.012-.137-.052-.076-.24-.06.09-.15.05-.004.018-.028-.46-1.096-.094.025.003-.077.056-.02.125-.355-.052-.057.25.018.404-.932-.018-.03-.988-.116-.086.192.033.045-.074.04.016.782.098.07-.024.25.012.008-.005.096.014.007-.126.276.013.017-.128.11-.02.326.065.077-.09.36.443.397-.06.22-.074-.025-.007.004-.382-.467v16.24l.213.106.304-.12zm3.843 14.894v-.008.008zm.19-2.386l-.008-.038.017-.037-.022-.044.045-.055-.033.173zm.03-.206l-.026-.09.005-.004.02.062.01.002-.01.03zm.304-11.055l.003.023-.007.005-.024-.078.028.05zm-1.002-7.65l.018-.038v-.003l.017.055-.26.008.225-.023zm-.888-.54l.19.13.004.062.004.003-.006.007v.014l-.197-.163.013-.016-.01-.038zm.073.907l.094.018-.29.132.197-.15zm-.49-.945l.017-.04.014.004-.004.01.04.08.24.103-.023.49-.02.012-.09-.224-.05-.008.012-.018-.04-.3-.14-.082.044-.03zm-.604.615l.05.152-.113.29-.012-.006.075-.934.02.014.273-.11-.293.595zm-.417-1.21l.045-.067h.066l.008-.017.015.003.104-.144.034.01.11.173h.01l.057-.07v-.064h.022l.122.243.11-.005.056.217-.333.083-.186-.12.048-.06v-.093l-.07-.024-.492.254-.037-.085-.012-.007.322-.23zm4.027-5.454l.117.158-.05-.048-.08-.1.013-.01zm-1.062-2.24l.028.09-.16-.177.133.086zm-1.265-2.74l.104.072.12-.017-.023.083.025.062-.053.03-.074-.03-.06-.14-.058.016.017-.077zm-.077-.142v.004-.004zm-.02 1.87l-.026.015-.02-.028.046.013zm-.506.007l.058.03-.312-.035.254.005zm-.502-1.966l.016.05-.055.04.04-.09zm-.083.282l.04-.17.03.316-.07-.146zm.043.33l.03-.17.05.047.02.003-.1.12zm.094-.692l-.03.022.06-.138-.013.102.014.016-.03-.002zm-.115 4.22l-.044.104-.01.093-.022-.035-.035-.005.11-.157zm-1.65-1.53l.013.028.026.027.157-.014.003.01-.163.217-.15-.016-.036-.07-.038-.008.19-.17zM34.528 28.23l.038.034.046-.002.042-.053.025.034h.042l.057-.054.014-.18-.025-.025-.356.015-.01-.015-.41.036-.015.043.096.155.434.047zM33.935 28.572l-.407-.112-.275.162v.042l.573.258.068-.045zM33.092 28.54l.014.013.547-.275-.067-.293h-.494z"/><path opacity=".39" d="M29.77 70.08h27.2l.197-48.357H29.575z"/><path fill="#F6F3EF" d="M49.25 73.498l8.015-3.54V21.724L49.05 25.28z"/><path opacity=".12" d="M49.25 73.498l8.015-3.54V21.724L49.05 25.28z"/><path fill="#F6F3EF" d="M40.937 72.56l-11.46-2.6V21.722l11.46 3.567z"/><path fill="#fff" d="M40.937 72.56l-21.115 3.154V28.47l21.115-3.18z"/><path fill="#F6F3EF" d="M49.05 25.28h24.654v51.117H49.05z"/><path fill="#81D4FA" d="M49.05 28.205h21.805V73.47H49.05zM40.937 27.584L22.45 30.71V72.9l18.487-2.864z"/><path fill="#4DA742" d="M40.323 37.303l.008.052.184.108.077-.036.015-.18-.127-.102zM37.574 36.825l-.064.402.12.155.08-.02.1-.455-.178-.086zM38.805 50.54l-.29-.164v-.015l-.378-.23-.004-.066-.3-.13-.013.03-.196-.15-.877.15-.105.21.05.08.296-.09-.03.14.043.06.19-.086-.086-.185.047-.022v.01l.89.482-.048.104.01.047.753-.05zM37.98 49.264l-.074.026-.013.24.088.082.007.09.064.09.053-.005.045-.195-.048-.08.013-.065zM37.876 51.032l.002.05.527.096.02-.047-.06-.14-.35-.095zM36.954 36.673l-.126.376.048.064.18-.046.26-.393-.03-.11-.15-.014zM38.143 36.547l-.02-.203-.198-.05-.062.048-.015.056.165.226zM39.976 51.057l.086.145.31-.066.036-.107-.043-.11-.324-.007zM38.76 51.172l.074.015.038-.046.24.01.1.134.068-.005.1-.138.467-.016.055-.117-.014-.106-1.04-.28-.038.082.106.096-.068.044-.017.05.003.004-.174.017-.023.03.003.096zM38.776 50.44l.044.04.19-.06-.012-.195-.022-.017-.204.142zM38.65 49.866l.002.14.033.033v.03l.058.083.074-.05.036-.178-.02-.035zM38.174 49.256l.06-.075v-.198l-.052-.065-.06.005-.023.05-.064-.116-.214.024-.062.08.06.086.245.024.1.186zM38.46 49.687l.123-.043.017-.05-.174-.213h-.005l-.05-.112-.067.003-.06.164.087.125.058-.01zM31.43 29.2l-.005.06.093-.074zM40.937 27.65v-.057l-.053.01zM35.252 28.634l-.038.05.016.213.17.21.082-.06.083.073.056-.036.157.13.038-.008.087-.133-.002.065.056.085 1.023-.08.013-.03.07.093.55-.09.042-.098-.026-.134.1.022.067-.098-.032-.182-.06-.046-.075.034.13-.162-.057-.3-.015-.01-2.45.414zM37.965 33.134l.03-.24-.025-.025-.136.028-.145.422.025.03.183-.08zM23.52 39.54l-.013-.048-.06-.024-.09.044.042.16.057.002zM27.802 40.42l-.044.003-.026.032-.193-.035-.07.084.39.85.07-.017.013-.112-.1-.178.047-.116-.012-.01.005-.02-.043-.09.04-.26zM40.29 27.86l-.067-.098.014.01.066-.02-.002.017.13.103.327-.25-.81.137.33.26zM34.578 31.277l.01-.488-.1-.294-.02-.004.073-.098-.074-.233-.05-.005-.123.13-.02-.003.13-.21-.04-.097.088-.272-.128-.132-.08.038.046-.182-.072-.03-.335.222-.123-.045-.054.05-.02.107-.15.08.072.127-.034-.005-.063.053.215.538-.07.032-.187-.25-.13.08-.038.22.224.464.214.055.24.57.2.043.125-.175-.01-.06.08.003zM39.807 37.763l.02.2.035.013.155-.115-.034-.168-.053-.01zM35.072 29.024l.037-.446-.558.095.268.424zM40.79 52.772v-.01l-.1-.107-.146.116.027.065-.007.025-.165.03-.1-.106-.337.03-.065-.16-.227-.057-.115-.185-.04.005-.236.3-.01-.038.106-.136-.028-.11-.105-.07-.843.502-.01.214-.206.188-.532-.244-.03.076-.345.065-.3-.5.107-.862-1.032-.25.1-.376h.006l.12-.405-.008-.008.146-.438-.078-.134-.732.11-.19.594-.508.073-.55-1.593.114-.11-.04-.467.027-.004.132-.235-.003-.028.23-.075.027-.124.89.067.013-.024.127.074.082-.11v-.042l-.08-.094.05-.11.477-.036.204.208.247-.093.18.19.033.374.003.002-.012.07.36.633.204-.084-.028-1.854.8-.7v-.057l.02-.004.457-1.505-.018-.034.278-.104.07-.126.085-.017.03-.042.265-.047.055-.093-.01-.08-.068-.073-.063.05-.05-.084.118-.356.203-.11.03-.088.05.043.328-.215-.004-.097.188-.026-.104.078-.017.353.22.135.256-.335.1-.006.027-.03v-.027l.1-.042v-.68l-.17-.018-.06-.16h-.066l-.04.077-.052-.102.05-.114-.023-.108-.028-.022.157-.158-.022-.226-.557-.07.143-.245h.292l-.035.07.412.182v-.186l-.134-.065.134-.05v-3.425l-.04-.036-.015-.14-.007-.007-.006-.056-.08-.05-.017-.113-.055-.01-.143-.347-.1.006-.17.337.044.098-.036.03-.024.1.01.027-.008.032-.14.044-.134.246-.06-.157-.052.005-.083-.127-.08.02-.025-.052.026-.098-.02-.05-.024-.002.023-.08-.046-.112.05-.072-.07-.202.068-.22-.123-.13-.032.003-.033.04-.02-.04-.24-.033-.016-.05.04-.116-.063-.05-.044.007-.065-.163-.03-.006-.028-.104-.25-.175-.263.156-.49-.197-.164.215.075.33.048.012-.104.41.05.045.064.39-.035.04v.14l-.2.15.386 1.208-.522.635.187.934-.23.29-.19-.297h-.004l.002-.036-.048-.075.146.04.028-.116-.093-.21h-.18l-.017-.69-1.734-.987-.194.077-.176-.688-.286-.103.143-.973-.044-.06.195-.223v-.003l.026-.06.044.018.07-.04v-.216h.055l.07-.075-.008-.046.22-.1.005-.26.137-.125.007-.113.034-.036.062.03.258-.116.232-.56-.193.764.102.145.196-.073.01.16.118.122.052-.004.334-.37.004-.073.1.017.043.145.292.12.225-.235v-.042l-.188-.236-.116.014-.052-.265-.396-.29.003-.065-.137-.115-.037.012-.116-.21-.114.038.05-.087-.04-.204h.047l.416.535.048-.004.027-.123-.102-.195.03-.108v-.003h.04l.427-.542.01-.222-.158-.237.01-.217.117-.146.01-.235-.02-.03-.02-.003.052-.126-.015-.047-.19-.07-.053-.246.093.02.035-.053.066.082.105-.02.087.205.052-.002.313-.382-.035-.11.03.03.065-.01.006.162.07.08h.046l-.014.102.257.25-.012.012-.142.004-.024.033.053.35.287-.173v.023l.182.25h.016l.008.08-.06-.01-.074.068-.036-.106-.288-.064-.214.547.127.244.286-.004.142-.346.028.048.272-.08.007-.038.08.32-.384.705.122.222-.664.062-.032.18-.094.086-.048.252.33.295.244-.182.202.072.057-.115v-.003l.067.012.113.324.163.104-.005.102.313.526.046-.002.09-.1.028.02.053-.012.42.362.09-.03.08.11.105-.012.06-.09-.026-.257-.2-.224.213.032.15.225.046-.002.065-.088-.02-.06.064-.066-.046-.18.026-.02-.02-.487-.098-.046.038-.218-.19-.2-.036.004-.023-.04h-.117l-.042-.14-.026-.006V35.2l-.07-.082h-.045l.14-.08.007-.05-.07-.09.012-.007.225.21.028-.004.222.434.036-.01.12.162.082-.017.073-.357.053-.007v-.928l-.03.006.008-.176-.025-.028-.128.02.005-.014-.14-.3-.078-.023-.016-.13-.023-.02-.157.063.013-.03-.074-.138h-.063l-.043-.1-.156-.07.012-.06-.06-.098.047-.1-.01-.042-.006-.005.255-.095-.047-.09-.25-.106.13-.052.07-.14-.255-.382h-.032l-.03-.202-.3-.17-.058.026-.01-.11-.067-.068h-.026l.014-.052-.362-.426-.05.018-.05.11-.058.002.017-.16-.026-.028-.112.022.01-.133-.058-.085-.092-.02.018-.108-.358-.318.145-.067.013-.046-.265-.527-.696-.13-.067.068-.09-.16-.435.13-.08.13-.04-.015-.074.05.006.05h-.092l.123-.314-.026-.043-.543.017-.523 1.822.24.206h-.1l-.014.128.003.005-.025.076.284.462.268.023.023-.027.138.205.096.002-.03.035.003.398.113.128-.06.124.004.012-.07.024-.083.33-.053-.09-.095.028-.044.33.084.09-.007.1-.054.04-.144-.44.08-.04.015-.037-.277-.7-.16.025-.08.273-.1-.187.022-.022.012-.16-.052-.09-.24-.07.088-.175.052-.004.017-.033-.465-1.28-.094.03.003-.09.057-.026.125-.413-.052-.066.252.02.408-1.088-.018-.033-.997-.137-.086.224.032.053-.073.047.015.914.1.083-.025.292.012.01-.005.112.014.01-.127.322.012.02-.13.128-.02.382.066.09-.09.42.448.465-.062.257-.073-.028-.007.004-.492-.694-.05.015-.304.562.033.238.277.117-.16.067-.016.042.053.138-.03.026-.02.104.01.02-.597.048-.19-.26-.228.01-.004-.044-.13-.105.002-.027-.043-.088.012-.017-.004-.06.46.1.313-.328-.014-.053-.09-.034.006-.17.135.004.07-.075.01-.344-.07-.074h-.075l-.245-.326-.122.01-.268-2.29-.382-.033-.126.354.02.03-.02.025-.183-.075-.032.113.006.018-.044.048.14.917-.278-.76-.26-.077-.02.124.072.135-.023.056.02.047-.125.06.027-.054-.02-.116-.375-.282-.126.09-.037-.272-.17-.084-.25.214.217-.228v-.04l-.4-.595-1.406.238.03.084-.197.593.03.07-.014.004-.188.807.023.06.326.175.19.472.073.01.244-.264.065.046.203-.123.083-.524.168-.08.097-.288-.054.242.055.084-.16.26.024.194.067.07.082-.008-.003.155.064.05.198-.05-.28.173-.01.04.16.345.94.084-.882.166-.053.088.182.435.54.237.106.406 1.017-.317-.2.25.015.107.168.164.002.042-.06.093-.202-.063-.083-.182-.946.14v-.078l.228-.072.018-.037-.267-.512-.277.01-.016.034-1.23-.582-.126.262-.034.004.04-.176-.023-.04-.055-.006v-.182l-.07-.083-.108.043-.015.048.006.014-.132.36-.018.007-.426-.76-.037.012-.037.224.054.06-.086.112-.07-.003-.09-.204-.77.552-.03-.112-.058.004-.014-.06-.13-.003-.044.168-.096-.023-.033.108.02.064L27 32.94l-.04.014.017.245-.972-.572-.024.03-1.882-.525-.014-.037-.098-.052-.01-.128-.024-.026-.134.017-.094-.11-.174.086-.173-.203-.036.012-.002-.01-.314-.16-.24.35-.1.014-.014-.036-.076-.03-.143.137v6.645h.003l.15.223.046-.002.083-.11-.006-.022.054.033.06-.03.004.14-.392.596v.55l.033.037.173-.188.056.035.067-.065.024-.143.162-.154v-.037l.188-.098.014-.132.122-.098.002-.018.27-.217-.204.34.156.238h.006l.035.04.064.002.138-.224.123-.032.013-.032.03-.004.047-.176-.026-.042h-.032l-.012-.088.05-.02.043-.102-.06-.135-.163-.014-.12.196.02.03-.024.05-.057-.036-.03.008.035-.106-.008-.024.155-.263-.147-.13.405-.666-.12.675.088.1.488-.31.015-.092.168.022.04.09.152-.055.12-.216.157-.045.1.08.032-.004.025-.03.16.186.467-.02.01.046.282.07.002.083.65.603h.016l.024.05-.018.066.14.244h.004l.193.5.096-.04.06.076h.007l.03.067.03.015.154.478h.183l.07-.084-.005-.15.07.03.02.164.085.02-.03.307.02.008.156.31.094-.016.135.272.02-.003.05.063.03-.002.037.384-.035.003-.092.176.02.05.062.01.01.13.063.076.084.01.332.397.048-.002.227.858.014.006.64 3.5.14.11-.013.02.086.134.115-.077.902 1.487-.007.068-.064-.01v-.05l-.057-.08-.013-.003-.083.11.565.57.052.406h.077l.376.466.16-.11.014-.17-.214-.237-.027.006-.427-1.008.57.576-.038.11.81 1.14-.03.418 1.773 1.02.306-.136 1.224.71.057-.025.526.852.056-.017.145.105.015.132.243.124.022-.034.1.024-.036.126.013.036.09.046.074-.054v-.018h.01l.004.038.068.068.082-.002.13-.135.004-.042-.06-.093.162-.13.11.09-.003.008.19 1.047-.66 1.4.142.115-.238.283.058.298-.015.033 2 2.964-.438 4.662-.07.06.008.11-.042.022-.09 1.32.012.015-.097.574.164.092.077-.09-.008.02.034.093-.052.156-.04.027-.028.107.013.035-.135.094.125.143-.006.083-.263-.002-.017.048.034.074-.14.202.024.088.092.065.035-.012.034-.066.098.026-.095.25.033.027.01.19h-.01l-.09-.207-.054.004-.05.322.047.078.013.003-.014.143h-.01l-.046.135.012.04.09.052-.083.063.137.325-.052.13.048.07.097-.012.02.112.107.063-.013.066-.014.004-.05.095.007.058-.115-.047-.03.123.266.48.358.113.005.11 1.134-.177-.42-.374.035-.085-.112-.203.038-.005.03-.072-.176-.535.657-1.325-.335-.304.386-.352.09-.513.15-.135.083-.008.053-.14-.098-.253-.157.07-.048-.293.35.12.062-.066V52.77l-.145.002zM38.25 44.15l.018-.044v-.002l.017.065-.263.008.228-.028zm-.897-.632l.193.153.003.073.005.005-.006.008v.017l-.2-.19.014-.02-.01-.045zm.074 1.06l.094.022-.293.154.2-.175zm-.498-1.104l.02-.044.014.003-.004.013.04.094.244.12-.023.57-.02.016-.09-.26-.052-.01.012-.02-.04-.35-.14-.096.04-.036zm-.61.72l.05.178-.113.34-.013-.01.076-1.09.02.016.276-.13-.297.697zm-.42-1.415l.046-.078.066-.002.008-.018.015.002.106-.168.034.013.11.2h.012l.056-.082v-.074l.022.002.124.283.114-.007.056.253-.337.096-.188-.14.048-.068v-.11l-.07-.028-.498.295-.037-.1-.013-.006.325-.265zm4.07-6.373l.118.183-.05-.056-.082-.118.013-.01zm-1.074-2.62l.027.106-.16-.207.133.1zm-1.28-3.202l.106.085.12-.02-.02.097.024.072-.053.036-.074-.036-.06-.163-.06.018.02-.09zm-.078-.165v.005-.005zm-.02 2.185l-.025.018-.02-.033.046.015zm-.51.01l.057.036-.315-.04.257.004zm-.508-2.3l.016.06-.056.047.04-.106zm-.084.33l.04-.2.03.37-.07-.17zm.044.388l.03-.2.05.057.02.005-.1.138zm.095-.81l-.03.026.06-.162-.013.12.013.018-.03-.003zm-.117 4.932l-.043.12-.01.11-.023-.04-.036-.007.112-.183zm-1.664-1.787l.012.03.026.033.16-.015.003.01-.165.255-.15-.02-.037-.082-.04-.01.19-.2zm-9.88 4.407l-.072-.007-.152.254.068-.302-.023-.025.153-.054.033.124-.007.01zm2.776 1.96l-.014-.03-.005-.007.002-.006.018.04v.002zm1.396 2.237zm.13.22l.032.017.052-.014.002.06-.086-.065zm.288.418l-.02-.005-.08-.232.12.15-.02.087zm.805-7.513l-.207-.032-.083.137-.002-.013-.08-.024-.227.15-.016.143-.04.043-.093-.038.017-.11.11-.102.01-.132.123.006.046-.182-.02-.038-.325-.09.55-.304.017.008-.147.115-.036.102.024.1.435.06.042-.045v.005l.014.036-.11.204zm.535 2.462v-.004l.068-.048v-.076l.096-.076.01-.102.116-.045.016-.054-.022-.035.018-.098-.02-.043-.03-.008.027-.023.186.19-.006.022.072.106-.188.106-.025.12-.318.065zm.586 10.79v.048l-.005-.012-.02-.035-.04-.01-.232-.56.092.016.237.514-.03.04zm.52-9.937l.098-.15.025.067.014.012-.137.07zm.588-5.252l.042-.09.038.048-.08.043zm.252.057l-.05-.062.062.017-.012.045zm1.487 7.98l-.004.008-.12-.187.032-.024.032-.084-.142-.1.03-.082.127.033.11.434-.065.002zM39.26 53.12l-.024-.09.03.058.002.026-.007.006zm-.525 15.916v-.01.011zm.192-2.788l-.008-.045.016-.044-.022-.05.045-.064-.033.204zm.03-.24l-.026-.107.006-.004.023.07.01.003-.013.036zM31.43 29.2l-.075.013.067.046z"/><path opacity=".26" d="M40.937 72.56l-21.115 3.154V28.47l21.115-3.18z"/><path d="M49.05 39.617l.04-.012.173.163.13-.094.076.016-.017.174.006.004.02.186.117.008.104.186-.01.05.023.008.02.03-.31.605-.046.013-.087-.05-.173.2-.035.006-.033.02v-1.513zm16.332-5.622h-.148l.076.06-.162.287-.06-.022.097.206-.208-.102-.123.146.03.077-.202.3-.002-.004-.015.165-.06-.022.137.164-.22-.07.03.076-.12.2.004.002-.026.03h-.003l-.07.248-.037.023h.007l-.125.592.51.857-.146.11.023.037-.044-.01-.025.035.028.034-.04-.015-.025.034-.32-.16-.083.13-.165-.192-.186-.01-.008-.05v.093l-.387-.518h.3l.012.015V36.7l-.355-.032-.016-.472.17.024.095-.254-.116-.26.143-.074-.04-.025.074-.05-.028-.082.318-.307-.096.027-.11-.228.315-.305-.073-.056.127-.048-.12-.113.21-.028-.106-.177.063-.01.04-.126h-.05l.042-.37.145.12.902-.93.06.03v-.207l.352.15 1.02-.744.286.043.142.31-.02.098h.056l-.177.417-1.03.527-.038-.064-.43.512zm-1.647 2.922l-.03-.022v.032l.03-.01zm-6.496-4.933l.06-.003.487-.537-.007-.04-.345-.256.036-.193-.125-.138-.497.15-.045.094.14.19-.142.49.03.03.338-.062-.016.2.087.076zm-.566 10.958l.096-.045-.013-.196-.076-.072h-.052l-.076.072.027.188.094.054zm-.104-8.396l.033-.19-.03-.03-.126.01-.072.082.125.177.07-.05zm5.36 30.68l.392-.118.67-2.15.096-.057-.245-.912-.09-.03-.133.11v.144l-.04.006-.03.07-.093.03-.022.033.014.08-.843.81.126.516-.273.488.47.982zm.63-26.74l.09-.018.126.075.365-.308-.322-.352-.168.07-.09.532zm-6.85-6.19l.175.355.21-.046.34-1.393.052-.004.068-.08v-.23l-.076-.08-.793.005-.226.265-.097-.038-.082.054.097.395.02.01.148-.035-.005.063.063.05-.213.013-.025.036.097.435.296.11-.023.016-.026.103zm.615 11.92l.197-.495-.03-.037-.143.005-.14.45.046.075.07.003zm1.57 5.584l-.062-.06-.153.06-.016.098.054.046.173-.098.006-.046zm-3.36-.883l-.077-.065-.074.068-.004.03-.16.13.11.333-.055.06-.05-.01-.083.058.06.523.102.167.072-.004.086-.09h.075l.015-.68-.034-.027.016-.493zm3.062 2.035l-.19.05-.036.184.028.035.202.012.07.08.376-.046.02-.187-.422-.064-.047-.064zm11.55-15.536l-.25.31.366.193-.115-.504zM59.206 51.21l.213.163.282-.104.117-.317-.606.216-.005.04zm10.52-17.217l.064-.386-.154-.182-.13.227.218.34zm1.13 20.618l-.06.03v.143L69.36 55.98l-.07 1.155.43.553-.01.248-.26.208-.2-.026-.05-.827-.018-.014.014-.097h-.036l-.1.218-.124.04-.14.228-.128.003-1.042-3.016-.01.04-.4.096-.363-.437.032-.048-.505-.58-.285.015-.02.033-1.536-.13.552.726-.302.51-.094-.007-.037.053.01.202-1.138.71-.03.138-1.846.68-.02.158.21.203 1.406-.29.08.404-2.08 2.68h-.005l-.368.552.072.1-.012.094-.075.07-.026-.007.224 2.068.007.005-.016.143-.165.166v.044l-.64.38.005.02-.418.393.145.994-.546.36-.073.68-1.472 1.485-.12-.017-.024.043-1.338.046-.242-.42.018-.13.068-.038-1.952-7.377.065-.045.06-.243-.046-.06.122-.442-.063-.067-.027.064-.167.048-.03-.033.03-.21.05-.024-.508.078-.32-.44-.645.02-.067.08-1.743.307-1.13-.68-.075.015-.063-.133.01-.01-.358-.603h-.017l-.168-.214-.046.004-.113-.097v-2.338l2.23-3.5-.18-.245-.454.01-.05-.044.03-.333h-.04l-.113-.148.118-1.124-.06-.062-.005-.108.08-.098.11-.015.052-.11 1.407.047.033-.734-.75-.595.01-.052-.006-.006v-.176l.654-.04-.062-.31.082-.06.158.014.055.093.148-.01.02-.076.273-.168.03-.22-.064.082-.505.05-.02.034-.26.07-.06-.058-.167.16-.183-.03-.088.103-.163.004-.028-.045.323-.495.084-.013-.005-.006-.07.014-.066-.042-.082.03-.13-.134.002-.038.27-.235-.013-.04-.065.015-.067-.04.084-.162-.037-.054.01-.103.018-.02.274.03.01-.025-.126-.376-.035.005-.017.045.018.18-.168.072-.028-.025.062-.234-.01.02-.082-.004-.182.882-.81.294-.035-.045h-.005l-.128-.288.238-.314-.102-.03-.063-.108.015-.098.018-.017-.05-.1.094-.174.255.012-.054-.016-.004-.12.356-.272.132.052.01.028.114-.02.005-.023-.133-.03-.02-.045.088-.165.044-.002.02-.043h-.03l-.087-.147.12-.16-.2-.134.028-.13-.096-.028-.006-.265.212-.138.06.008.055.186-.076.132.018.01.063-.075-.005-.01.045-.135.042-.017.03-.09.465-.074.054.22-.15.138.008.006.003.06.33-.04.074.065-.177.55.022.034-.01.05.627 1.113-.01.028.156-.016.134.118-.01.28-.163.176.09.007.026.044-.036.113.485-.232-.028-.055.204-.546.426-.096.003.002.037-.07.32-.056-.05-.09.018-.1.03-.027-.057-.25-.11-.085.044-.622.52-.37.06.07-.022.444.092.017.025.157-.15.165.13-.065-.004-.01.023-.045.132-.023.115-.167-.228-.54-.045-.014-.072-.434-.036-.02-.04.085-.13-.013-.414.417-.272.004-.28-.316.03-.198.034-.025-.064-.004-.05-.094.113-.14-.128-1.104.08-.054.062.013-.017-.042.064-.08.07-.012.002-.022.14-.06-.02-.01-.007-.05.333-.303-.01-.013.027-.093.15-.092.09.062.012-.006-.008-.014.28-.48.04-.005.016-.144.153-.093.046-.256.078-.058-.023-.02.006-.107.142-.148-.04-.086.502-.725-.025-.08.09-.168-.04-.044-.237.12-.03-.033.012-.106.155-.144-.166-.062.18-.292.067.03.187-.207.074.018.024.042.15-.235.11.035.027-.11.172-.044-.055-.107.025-.05.15-.013-.012-.036.05-.102.16.1.046-.096.063-.005.07.15.01-.004.056-.178.11-.003-.062-.1.01-.064.133-.08.215.04.033-.058.09.01.038-.092.357-.178.105.12.008-.014.068-.003.055.172.072-.26.065-.026.204.096.04.097.134-.03.044.095.09-.015.26.24.006.036-.23.3-.015.002.02.08.245.023.016-.102.08-.047.287.13.038.104-.04.1 1.7 1.098.023.224.034.024-.014.302-.55.424-.953-.25-.06-.1-.098-.007.326.353-.024.315-.052.044.1.355-.012.02.488.303.054-.02-.033-.124-.067.02-.252-.36.122-.215.73.31-.146-.502.547-.532.348.152.08-.304-.144-.194.065-.573-.16-.187.01-.126.607.123.222.456-.014.033-.28.096-.04.082.155.254.08-.007.072.056 1.596-1.277.072.054-.04.098-.043.02-.025.25.058.038.137-.21.41.015.345-.298.18.208.168-.102-.113-.378-.047.016-.143-.13-.06.018-.157-.362h.066l.135-.2.365.478.068-.054 1.5.92.09-.203-.19-.367-.2-.05-.058-.08.105-.645-.15-.055-.015-.04.048-.127-.028-.077.638-1.4.118.026.075-.402h.226l.013.162.213.093-.395.176.498.174-.024.81.377-.503-.213-.59h.365l-.04.116.165.27-.058.5.334-.526.417.073-.187.113.202-.068.79.483-.2-.123-.02-.138-.283-.153-.13-.643-.01-.004-.01-.04.08-.128-.03-.037.005-.042 1.267-.313.02-.167-.17-.09-.013-.043.103-.15-.094-.048-.04-.096.054-.165.083-.022.12.092.053-.167-.056-.096.22-.113v20.84zm-19.467-9.57l-.027-.065-.005.04.033.024zm.04-.21l-.04-.012-.03.052-.02.003.023.034.067-.076zm8.463 3.177l.017.148.3-.037.012.012h.084l.105-.177-.046-.038-.02-.1-.453.192zm-1.518 1.09l.095.148-.005.013.015.05 1.418-.155.105.103.07-.015.11.15.763.06.22-.17-.377-.442-.022-.02-.39-.314-.066.007-.12-.126-.707.167-.05-.2-.17-.085-.01-.05.15-.146-.27-.03-.065-.13-.065.02-.628 1.166zm.044.508l.064.006.006-.008-.07.003zM55.9 38.26l.138.074.006.074.084-.046-.007-.044.007-.008-.012-.02-.094.03-.053-.04.006-.11-.022-.024v-.004l-.05.118zm-.208.774l.003.03.026-.024-.018-.01-.01.004zm-.586 6.007l.067.016.06-.09.14.035.06.21-.017.02.035.03.955-.355.106.16-.003.006.045-.016.08-.18.234-.1-.053-.274-.003-.002.172-.634.184-.1-.115-.023v-.056L57 43.64v-.178l.09-.016-.063-.065.006-.05.223-.102.075.058.015-.105.94-.14.018-.107.092-.028.033.023.116-.09-.116-.03-.05-.14-1.002.307-.015-.025-.23-.02-.027-.045.023-.098-.207-.134v-1.24l.056-.007.004-.04.076-.07h.073l.637-.825-.187-.32-.32-.028-.032.12-.15.108.022.465-.795.857h-.01l-.058.154h-.01l-.033.352-.06.03.014.3h.007l.28.195-.007.067.085.134-.075.2.013.026-.184.287-.1-.028-.143.65.022.006.04.1-.105.3-.415.125-.044.177.047-.018.142.126-.013.127-.156-.033-.05-.14-.293.023-.064.066v.053l-.024.088zm2.35-1.375l-.074-.06-.165.057-.038.096.032-.008.285.304.044-.395-.084.005zm-2.613 1.43l.02.028-.01.105.124-.09-.018-.02-.117-.024zm-.044-.01zm-.17-.11l.003.1.076.003-.053-.107-.028.005zm4.965 7.15l.357-1.235.003-.002v-.022l-.58.134-.387-.22-.018.128-.378.01-.032-.075-.056-.017-.052.136-.125.06-.07-.033-.007-.15.01-.008-.068-.05-.084-.355-.18-.04-.088-.215.056-.048-.048-.055.086-.398-.02-.006-.154-.047-.014.075-.084.027-.022.105-.035.005-.047.065-.184-.015.454.527-.055.142-.058.003-.06-.09h-.04l-.045.072-.056.007-.026-.022-.104.126.002.23-.064.01-.062-.06-.04.055-.042.005-.087-.092-.008.002-.234-.353v-.002l-.143-.09-.005-.04.096-.122-.03-.05.013-.035-.034-.046-.06.006-.13-.2.018-.022-.09-.104.026-.4-.5-.42.008-.028-.392-.25-.06-.222-.053-.026-.028.055-.13-.018-.072-.254-.133.078v.01l.02.02-.015.17.543.736.19-.03.076.076-.03.11.518.423-.042.147-.088.017-.217-.188-.03.017-.02.08.1.078-.244.543-.126.002-.042.277-.072.058-.58-.265-.013-.238.654-.07.023-.088.048-.033-.246-.395h-.074l-.144-.178h-.128l-.31-.328-.095-.008-.236-.495-.21-.09-.528.385-.46-.127-.12.08-.004.13.013.01.026.095-.745.818.01.047.057.037.028.103-.2.365-.135.02-.148.21-.042.005-.637.16.154.136 3.035-.554.067.095.117-.046.065.145-.12.194.096.073.02.16-.216.335.04-.043h.06l.068.134.014.038.836.238.128.24.605.247.14-.06.016-.333.247-.224.473.026.076.12.343.076.056.076 1.41.018.148.135.24-.053zm1.88 4.318l-1.098-2.46-.09-.01-.463-.91-.043-.005-.007.03-.143.044.45.872-.06.063.503 1.162.005-.024.272.637.033-.068.014.024.02-.012.077.023.092.146-.062.054.47.407.032.026zm.997-7.847l.462.963.126.02.072.143-.026.047-.13.016-.096.353-.065.028.04.255.886.192-.004-.482-.12-.072.027-.116-.02-.01-.01-.03-.05.008-.63-1.463.246-.053-.023-.048.064-.147.132-.007.05-.062.47.077.01-.012-.364-.457-.66.147v.035l-.226.23-.094-.017-.005.036-.04.025-.017.088-.108.176.1.14.004-.004zm1.24.718l-.086.05.048.163.124.023.057-.056-.142-.18zm.478 4.098l-.138.044-.028-.036-.063.027-1.013-.87-.07.023-.117-.093-.122.15.432.687.078.02.016.026.052-.015.16.105-.03.354.027.006.022.047.425-.038v-.022l.34-.382.03-.034zm.244.088l-.067-.178-.02-.01-.03.033.117.155zm3.146-13.81l-.13.067.12.02.01-.088zm.47-1.32l.16-.055-.276-.09-.188-1.377-.077 2.586-.018.002-.003.04-.1.082.033.112.493-.653-.025-.646zm.397-.128l-.017-.01-.092.045.11-.035zm.18-1.427l-.202-.16-.05-.168.012.228.24.1zm.008-.39l.086-.08-.025-.01-.04-.14-.117.07.097.16zm.09 2.07l-.026-.086-.06-.04.013.043.073.082zm1.24-1.13l-.082-.51-.062.053.017.307.007.002.095.16.024-.01zM53.434 49.73l.05.087-.03.112-.145-.045v.003l-.09.205-.083-.003-.182-.11-.007-.047.253-.193.057.07.002-.02.176-.06zm-.175.1v-.002.003zm-.447.17l-.098.134.014.05.067.023.024.004.092-.104-.024-.094-.075-.013z" fill="#32B325"/></g></g></svg>