<svg xmlns="http://www.w3.org/2000/svg" viewBox="0 0 93.311 164.666" enable-background="new 0 0 93.311 164.666"><g><g><path d="M46.655 164.666c-2.042 0-3.715-1.55-3.902-3.543C36.91 97.643 0 80.96 0 46.655 0 20.89 20.89 0 46.655 0S93.31 20.89 93.31 46.655c0 34.306-36.91 50.986-42.753 114.468-.187 1.993-1.86 3.543-3.902 3.543z" fill="#FFDE00"/><path d="M67.095 35.62h.09-41.682c-3.524 0-6.034 3.087-6.034 6.61v23.074c0 3.524 2.51 5.314 6.033 5.314H37.6c.712-3 4.184-7.005 8.37-7.005s7.658 4.005 8.37 7.005h14.587-1.83c3.523 0 6.372-1.79 6.372-5.314V42.23c-.002-3.523-2.85-6.61-6.375-6.61z" fill="#B757C5"/><circle cx="45.688" cy="42.617" r="7.899" fill="#B757C5"/><path d="M67.095 35.62h.09-41.682c-3.524 0-6.034 3.087-6.034 6.61v23.074c0 3.524 2.51 5.314 6.033 5.314H37.6c.712-3 4.184-7.005 8.37-7.005s7.658 4.005 8.37 7.005h14.587-1.83c3.523 0 6.372-1.79 6.372-5.314V42.23c-.002-3.523-2.85-6.61-6.375-6.61z" opacity=".2"/><circle cx="45.688" cy="42.617" r="7.899"/><path d="M67.095 27.62h.09-41.682c-3.524 0-6.034 3.247-6.034 6.77v23.075c0 3.524 2.51 7.154 6.033 7.154H37.6c.712-5 4.184-7.006 8.37-7.006s7.658 2.005 8.37 7.005h14.587-1.83c3.523 0 6.372-3.63 6.372-7.155V34.39c-.002-3.522-2.85-6.77-6.375-6.77z" fill="#B757C5"/><circle cx="45.616" cy="28.237" r="7.899" fill="#B757C5"/><path d="M34.81 51.08l-4.454-5.8 4.454-5.8h4.04l-4.454 5.8 4.454 5.8h-4.04zM44.36 51.496h-3.854l7.19-12.41h3.832l-7.168 12.41zM52.976 36.6h-3.833l-2.866 4.95-7.19 12.41h3.854l2.86-4.95h.007zM57.226 51.08h-4.04l4.454-5.8-4.454-5.8h4.04l4.454 5.8-4.454 5.8z" fill="#fff"/></g></g></svg>