<svg xmlns="http://www.w3.org/2000/svg" viewBox="49.5 88.6 51 84.4" enable-background="new 49.5 88.6 51 84.4"><g><path fill="#37B14A" d="M73.2 173c-1 0-1.9-.8-2-1.8-3-32.3-21.7-40.8-21.7-58.2 0-13.1 10.6-23.7 23.7-23.7S96.9 99.9 96.9 113c0 17.4-18.8 25.9-21.7 58.2-.1 1-.9 1.8-2 1.8z"/><circle fill="#37B14A" cx="91.9" cy="97.2" r="8.6"/><circle opacity=".1" enable-background="new" cx="91.9" cy="97.2" r="8.6"/><path fill="#fff" d="M69.2 120.6c.8 0 1.5-.1 2.1-.2.6-.1 1.2-.4 1.7-.7s.9-.7 1.2-1.2c.3-.5.5-1.1.6-1.9-.4.4-.9.7-1.5.9s-1.1.3-1.7.3c-.9 0-1.6-.1-2.3-.5-.7-.3-1.3-.7-1.7-1.3s-.8-1.2-1.1-2c-.3-.8-.4-1.7-.4-2.6 0-.9.2-1.8.5-2.6s.8-1.5 1.4-2.1c.6-.6 1.3-1.1 2.1-1.4s1.7-.5 2.6-.5c.9 0 1.7.2 2.5.5s1.5.8 2.1 1.5c.6.7 1.1 1.5 1.4 2.4.3 1 .5 2 .5 3.3v1.5c0 1.7-.3 3.1-.8 4.4-.5 1.3-1.2 2.3-2.1 3.2-.9.9-1.9 1.5-3.1 1.9s-2.5.6-3.9.6H69v-3.5h.2zm3.5-5.9c.5 0 .9-.1 1.3-.4s.6-.5.8-.9v-1.8c0-1.2-.2-2.1-.6-2.7-.4-.6-1-.9-1.6-.9-.3 0-.6.1-.9.3-.3.2-.5.5-.7.8-.2.3-.3.7-.4 1.1-.1.4-.1.8-.1 1.2 0 .5 0 .9.1 1.3s.2.7.4 1c.2.3.4.5.7.7.3.2.7.3 1 .3z" enable-background="new"/><path fill="#fff" d="M95.6 95.3v-.7c0-2-1.6-3.6-3.6-3.6s-3.6 1.6-3.6 3.6v.7h-.7v6.7h8.7v-6.7h-.8zm-6.1-.7c0-1.3 1.1-2.4 2.4-2.4s2.4 1.1 2.4 2.4v.7h-4.8v-.7zm3.3 5.8h-1.5l.5-1.9c-.4-.1-.6-.5-.6-.9 0-.5.4-1 1-1s1 .4 1 1c0 .4-.2.7-.6.9l.2 1.9z"/></g></svg>