<svg xmlns="http://www.w3.org/2000/svg" xmlns:xlink="http://www.w3.org/1999/xlink" viewBox="81.6 0 448.8 792" enable-background="new 81.6 0 448.8 792"><g><path fill="#B757C5" d="M306 792c-9.8 0-17.9-7.5-18.8-17C259.1 469.6 81.6 389.4 81.6 224.4 81.6 100.5 182.1 0 306 0s224.4 100.5 224.4 224.4c0 165-177.5 245.2-205.6 550.6-.9 9.5-9 17-18.8 17z"/><path opacity=".1" enable-background="new" d="M311.5 93.3c-34.6.2-62.5 28.4-62.3 63 .1 22.5 12.1 42 29.9 53-.6 3-1 6.1-.7 9.4l13.2 153.8c.9 9.9 6.2 18.1 13.3 21.7-.5 9.5-1.3 19.7-3 25.2-1.2 4.1 1.1 8.4 5.2 9.6 2.2.6 4.4.3 6.3-.8 1.6-1 2.8-2.5 3.3-4.4 2.1-7.2 3.1-18.9 3.6-29.2 7.7-3.4 13.4-11.9 14.2-22.4l11.4-154c.2-3.3-.1-6.4-.8-9.4 17.7-11.2 29.4-30.9 29.3-53.3-.1-34.6-28.3-62.5-62.9-62.2z"/><path fill="#333" d="M301.8 424.2c-1.8 1.1-4.1 1.5-6.3.8-4.1-1.2-6.4-5.5-5.2-9.6 3-10.1 3.5-35.5 3.4-44.5 0-4.3 3.4-7.7 7.7-7.8 4.3 0 7.7 3.4 7.8 7.7 0 3.5.1 34.9-4 49-.7 1.9-1.9 3.5-3.4 4.4z"/><path fill="#505050" d="M301.5 392.3c11.1-.1 20.3-10.4 21.3-24l11.4-154c1.1-15.5-8.9-28.9-21.7-28.8l-24.6.1c-12.8.1-22.6 13.6-21.3 29.1l13.2 153.8c1.3 13.6 10.6 23.9 21.7 23.8z"/><defs><path id="a" d="M301.5 392.3c11.1-.1 20.3-10.4 21.3-24l11.4-154c1.1-15.5-8.9-28.9-21.7-28.8l-24.6.1c-12.8.1-22.6 13.6-21.3 29.1l13.2 153.8c1.3 13.6 10.6 23.9 21.7 23.8z"/></defs><clipPath id="b"><use xlink:href="#a" overflow="visible"/></clipPath><path clip-path="url(#b)" fill="#8C8C8C" d="M344.1 246.8c-.2.1-.4.3-.7.4-25.3 12.5-63.7 15.5-88.3-7.6-3.1-2.9-3.3-7.8-.4-10.9 2.9-3.1 7.8-3.3 10.9-.4 13.5 12.6 41.5 19.6 70.9 5 3.8-1.9 8.5-.3 10.3 3.5 1.9 3.6.6 7.9-2.7 10z"/><path opacity=".1" enable-background="new" d="M312.6 185.5h-5.4c6.8 5 11.2 14.4 10.4 24.9l-11.4 154c-.9 11.6-7.8 20.9-16.9 23.3 3.5 2.8 7.6 4.5 12.1 4.5 11.1-.1 20.3-10.4 21.3-24l11.4-154c1.3-15.4-8.7-28.7-21.5-28.7z"/><circle fill="#333" cx="300.1" cy="152" r="62.6"/><path opacity=".1" enable-background="new" d="M315.8 91.4c16.3 11.2 27 29.9 27.2 51.2.2 34.6-27.7 62.8-62.3 63-5.6 0-10.9-.7-16.1-2.1 10.2 7 22.5 11.1 35.9 11.1 34.6-.2 62.5-28.4 62.3-63-.2-29-20.1-53.2-47-60.2z"/></g></svg>