<svg xmlns="http://www.w3.org/2000/svg" viewBox="51.4 88.6 47.8 84.4" enable-background="new 51.4 88.6 47.8 84.4"><path fill="#B757C5" d="M75.3 173c-1 0-1.9-.8-2-1.8-3-32.5-21.9-41.1-21.9-58.7 0-13.2 10.7-23.9 23.9-23.9s23.9 10.7 23.9 23.9c0 17.6-18.9 26.1-21.9 58.7 0 1-.9 1.8-2 1.8z"/><path fill="#fff" d="M66.1 103.6H77v17.2H66.1z"/><path fill="#404040" d="M66.1 103.6h3.6v3.4h-3.6z"/><path fill="#fff" d="M69.7 103.6h3.6v3.4h-3.6z"/><path fill="#404040" d="M73.3 103.6h3.6v3.4h-3.6z"/><path fill="#fff" d="M66.1 107.1h3.6v3.4h-3.6z"/><path fill="#404040" d="M69.7 107.1h3.6v3.4h-3.6z"/><path fill="#fff" d="M73.3 107.1h3.6v3.4h-3.6z"/><path fill="#404040" d="M66.1 110.5h3.6v3.4h-3.6z"/><path fill="#fff" d="M69.7 110.5h3.6v3.4h-3.6z"/><path fill="#404040" d="M73.3 110.5h3.6v3.4h-3.6z"/><path fill="#fff" d="M66.1 113.9h3.6v3.4h-3.6z"/><path fill="#404040" d="M69.7 113.9h3.6v3.4h-3.6z"/><path fill="#fff" d="M73.3 113.9h3.6v3.4h-3.6z"/><path fill="#404040" d="M66.1 117.4h3.6v3.4h-3.6z"/><path fill="#fff" d="M69.7 117.4h3.6v3.4h-3.6z"/><path fill="#404040" d="M73.3 117.4h3.6v3.4h-3.6z"/><path fill="none" stroke="#fff" stroke-width="3" stroke-miterlimit="10" d="M65.3 102.4v28.4"/><path fill="#fff" d="M76.9 101.3h10.9v17.2H76.9zM76.9 101.3h3.6v3.4h-3.6z"/><path fill="#404040" d="M80.6 101.3h3.6v3.4h-3.6z"/><path fill="#fff" d="M84.2 101.3h3.6v3.4h-3.6z"/><path fill="#404040" d="M76.9 104.8h3.6v3.4h-3.6z"/><path fill="#fff" d="M80.6 104.8h3.6v3.4h-3.6z"/><path fill="#404040" d="M84.2 104.8h3.6v3.4h-3.6z"/><path fill="#fff" d="M76.9 108.2h3.6v3.4h-3.6z"/><path fill="#404040" d="M80.6 108.2h3.6v3.4h-3.6z"/><path fill="#fff" d="M84.2 108.2h3.6v3.4h-3.6z"/><path fill="#404040" d="M76.9 111.6h3.6v3.4h-3.6z"/><path fill="#fff" d="M80.6 111.6h3.6v3.4h-3.6z"/><path fill="#404040" d="M84.2 111.6h3.6v3.4h-3.6z"/><path fill="#fff" d="M76.9 115.1h3.6v3.4h-3.6z"/><path fill="#404040" d="M80.6 115.1h3.6v3.4h-3.6z"/><path fill="#fff" d="M84.2 115.1h3.6v3.4h-3.6z"/></svg>