<svg xmlns="http://www.w3.org/2000/svg" xmlns:xlink="http://www.w3.org/1999/xlink" viewBox="0 160.5 150 120" enable-background="new 0 160.5 150 120"><g><path fill="#716E69" d="M113.4 247.5h7.6v32.9h-7.6z"/><path fill="#4F9DBE" d="M117.2 160.5L150 263.9H84.5z"/><path opacity=".1" enable-background="new" d="M121.1 263.9h-7.7v3.7l7.7-2.5z"/><path fill="#716E69" d="M19.3 258.1h5.1V280h-5.1z"/><path fill="#4F9DBE" d="M21.8 200.1L43.6 269H0z"/><path opacity=".1" enable-background="new" d="M24.4 269h-5.1v2.4l5.1-1.6z"/><path fill="#888480" d="M86.7 259.7h5.2v20.8h-5.2z"/><path fill="#477DAA" d="M89.3 203.3l22.4 70.9H66.8z"/><defs><path id="a" d="M89.3 203.3l22.4 70.9H66.8z"/></defs><clipPath id="b"><use xlink:href="#a" overflow="visible"/></clipPath><path clip-path="url(#b)" fill="none" stroke="#338995" stroke-width="6" stroke-miterlimit="10" d="M65.3 218.4l24 23.9 23.9-23.9"/><defs><path id="c" d="M89.3 203.3l22.4 70.9H66.8z"/></defs><clipPath id="d"><use xlink:href="#c" overflow="visible"/></clipPath><path clip-path="url(#d)" fill="none" stroke="#338995" stroke-width="6" stroke-miterlimit="10" d="M65.3 234.3l24 24 23.9-24"/><defs><path id="e" d="M89.3 203.3l22.4 70.9H66.8z"/></defs><clipPath id="f"><use xlink:href="#e" overflow="visible"/></clipPath><path clip-path="url(#f)" fill="none" stroke="#338995" stroke-width="6" stroke-miterlimit="10" d="M65.3 250.2l24 24 23.9-24"/><defs><path id="g" d="M89.3 203.3l22.4 70.9H66.8z"/></defs><clipPath id="h"><use xlink:href="#g" overflow="visible"/></clipPath><path clip-path="url(#h)" fill="none" stroke="#338995" stroke-width="6" stroke-miterlimit="10" d="M65.3 170.6l24 23.9 23.9-23.9"/><defs><path id="i" d="M89.3 203.3l22.4 70.9H66.8z"/></defs><clipPath id="j"><use xlink:href="#i" overflow="visible"/></clipPath><path clip-path="url(#j)" fill="none" stroke="#338995" stroke-width="6" stroke-miterlimit="10" d="M65.3 186.5l24 24 23.9-24"/><defs><path id="k" d="M89.3 203.3l22.4 70.9H66.8z"/></defs><clipPath id="l"><use xlink:href="#k" overflow="visible"/></clipPath><path clip-path="url(#l)" fill="none" stroke="#338995" stroke-width="6" stroke-miterlimit="10" d="M65.3 202.4l24 24 23.9-24"/><path opacity=".1" enable-background="new" d="M91.9 274.2h-5.2v3.5l5.2-2.4z"/><path fill="#fff" stroke="#fff" stroke-linejoin="round" stroke-miterlimit="10" d="M84.1 259.3c0 2.2 1.7 3.9 3.9 3.9s3.9-1.7 3.9-3.9h-7.8zM76.3 259.3c0 2.2 1.7 3.9 3.9 3.9s3.9-1.7 3.9-3.9h-7.8zM68.5 259.3c0 2.2 1.7 3.9 3.9 3.9s3.9-1.7 3.9-3.9h-7.8zM99.9 247.1c0 2.2 1.7 3.9 3.9 3.9s3.9-1.7 3.9-3.9h-7.8zM92.1 247.1c0 2.2 1.7 3.9 3.9 3.9s3.9-1.7 3.9-3.9h-7.8zM84.3 247.1c0 2.2 1.7 3.9 3.9 3.9s3.9-1.7 3.9-3.9h-7.8zM84.1 231.1c0 2.2 1.7 3.9 3.9 3.9s3.9-1.7 3.9-3.9h-7.8zM76.3 231.1c0 2.2 1.7 3.9 3.9 3.9s3.9-1.7 3.9-3.9h-7.8zM89.6 219c0 2.2 1.7 3.9 3.9 3.9s3.9-1.7 3.9-3.9h-7.8z"/><path fill="#888480" d="M47.2 248.8h7.3v31.6h-7.3z"/><path fill="#57B8D5" d="M50.9 169.8l31.4 99.3H19.5z"/><defs><path id="m" d="M50.9 169.8l31.4 99.3H19.5z"/></defs><clipPath id="n"><use xlink:href="#m" overflow="visible"/></clipPath><path clip-path="url(#n)" fill="none" stroke="#3EA7B5" stroke-width="6" stroke-miterlimit="10" d="M17.4 191l33.5 33.5L84.5 191"/><defs><path id="o" d="M50.9 169.8l31.4 99.3H19.5z"/></defs><clipPath id="p"><use xlink:href="#o" overflow="visible"/></clipPath><path clip-path="url(#p)" fill="none" stroke="#3EA7B5" stroke-width="6" stroke-miterlimit="10" d="M17.4 213.3l33.5 33.5 33.6-33.5"/><defs><path id="q" d="M50.9 169.8l31.4 99.3H19.5z"/></defs><clipPath id="r"><use xlink:href="#q" overflow="visible"/></clipPath><path clip-path="url(#r)" fill="none" stroke="#3EA7B5" stroke-width="6" stroke-miterlimit="10" d="M17.4 235.6l33.5 33.5 33.6-33.5"/><defs><path id="s" d="M50.9 169.8l31.4 99.3H19.5z"/></defs><clipPath id="t"><use xlink:href="#s" overflow="visible"/></clipPath><path clip-path="url(#t)" fill="none" stroke="#3EA7B5" stroke-width="6" stroke-miterlimit="10" d="M17.4 124l33.5 33.6L84.5 124"/><defs><path id="u" d="M50.9 169.8l31.4 99.3H19.5z"/></defs><clipPath id="v"><use xlink:href="#u" overflow="visible"/></clipPath><path clip-path="url(#v)" fill="none" stroke="#3EA7B5" stroke-width="6" stroke-miterlimit="10" d="M17.4 146.4l33.5 33.5 33.6-33.5"/><defs><path id="w" d="M50.9 169.8l31.4 99.3H19.5z"/></defs><clipPath id="x"><use xlink:href="#w" overflow="visible"/></clipPath><path clip-path="url(#x)" fill="none" stroke="#3EA7B5" stroke-width="6" stroke-miterlimit="10" d="M17.4 168.7l33.5 33.5 33.6-33.5"/><path opacity=".22" fill="#fff" enable-background="new" d="M50.9 169.8L69 269.1h13.3z"/><path opacity=".1" enable-background="new" d="M54.6 269.1h-7.4v5l7.4-3.3z"/><path fill="#fff" stroke="#fff" stroke-linejoin="round" stroke-miterlimit="10" d="M43.7 251c0 3 2.4 5.5 5.5 5.5 3 0 5.5-2.4 5.5-5.5h-11zM32.7 251c0 3 2.4 5.5 5.5 5.5 3 0 5.5-2.4 5.5-5.5h-11zM21.8 251c0 3 2.4 5.5 5.5 5.5s5.5-2.4 5.5-5.5h-11zM65.5 235c0 3 2.4 5.5 5.5 5.5 3 0 5.5-2.4 5.5-5.5h-11zM54.6 235c0 3 2.4 5.5 5.5 5.5s5.5-2.4 5.5-5.5h-11zM43.7 235c0 3 2.4 5.5 5.5 5.5s5.5-2.4 5.5-5.5h-11zM40.9 219c0 3 2.4 5.5 5.5 5.5 3 0 5.5-2.4 5.5-5.5h-11zM30 219c0 3 2.4 5.5 5.5 5.5 3 0 5.5-2.4 5.5-5.5H30zM54.3 203.3c0 3 2.4 5.5 5.5 5.5 3 0 5.5-2.4 5.5-5.5h-11zM43.4 203.3c0 3 2.4 5.5 5.5 5.5 3 0 5.5-2.4 5.5-5.5h-11zM40.9 189.1c0 3 2.4 5.5 5.5 5.5 3 0 5.5-2.4 5.5-5.5h-11z"/></g></svg>