<svg xmlns="http://www.w3.org/2000/svg" viewBox="0 0 20 21" width="20" height="21"><path fill="#fff" d="M10.2 1.5c.7.6 1.7 1.7 1.7 3.3 0 2-1.1 2.9-2.2 3.8-.4.4-.8.8-.8 1.4 0 .6.4.9.7 1.2l1 .8c1.2 1 2.3 1.8 2.3 3.7 0 2.5-2.4 5.1-7.1 5.1C1.9 20.8 0 18.9 0 17c0-1 .5-2.3 2.1-3.3 1.7-1 3.9-1.2 5.1-1.2-.4-.5-.8-1-.8-1.8 0-.5.1-.7.3-1.1h-.9C3 9.6 1.3 7.5 1.3 5.4c0-1.2.6-2.6 1.7-3.6C4.5.5 6.3.3 7.7.3h5.1L12 1.6h-1.8zM8.1 13.2h-.6c-.2 0-1.7.1-2.8.4-.6.2-2.5.8-2.5 2.7 0 2.3 2.1 3.3 5 3.3 2.6 0 4.1-1.2 4.1-2.9-.2-1.4-1.2-2.1-3.2-3.5zM8.9 8c.6-.6.7-1.5.7-2 0-1.9-1.2-5-3.5-5-.7 0-1.5.4-1.9.9-.5.6-.6 1.3-.6 2 0 1.8 1.1 4.8 3.5 4.8.6.1 1.4-.3 1.8-.7z"/><path fill="#fff" d="M17.6 9.2V6.8h-1.7v2.4h-2.4v1.7h2.4v2.4h1.7v-2.4H20V9.2z"/></svg>