<svg xmlns="http://www.w3.org/2000/svg" viewBox="0 0 84.97 60.04" width="84.97" height="60.04"><defs><style>.cls-1{fill:#ffb703;}.cls-2{fill:#ff9802;}.cls-3{fill:#ffdb08;}.cls-4{fill:#212121;}.cls-5{fill:#f2faff;}</style></defs><title>box_fish</title><g id="Layer_2" data-name="Layer 2"><g id="ART"><path class="cls-1" d="M63.37,60H21.85a3.33,3.33,0,0,1-3.33-3.33L23.36,3.33A3.33,3.33,0,0,1,26.69,0H58.53a3.33,3.33,0,0,1,3.32,3.33L66.7,56.71A3.33,3.33,0,0,1,63.37,60Z"/><path class="cls-2" d="M63.37,50.8H21.85a3.3,3.3,0,0,1-2.67-1.35l-.66,7.26A3.33,3.33,0,0,0,21.85,60H63.37a3.33,3.33,0,0,0,3.33-3.33L66,49.45A3.31,3.31,0,0,1,63.37,50.8Z"/><path class="cls-3" d="M72.11,36.63,84.33,35c1.33-6.88.18-15,.18-15L64.13,31.16l.91,10,12.54,3.06a7.37,7.37,0,0,0,4.92-3.87Z"/><rect class="cls-3" x="20.02" y="6.56" width="5.66" height="8.64" rx="1.79" ry="1.79" transform="translate(1.05 -1.97) rotate(5.06)"/><rect class="cls-4" x="20.02" y="8.05" width="5.66" height="5.66" rx="1.79" ry="1.79" transform="translate(1.05 -1.97) rotate(5.06)"/><rect class="cls-3" x="59.66" y="6.56" width="5.66" height="8.64" rx="1.79" ry="1.79" transform="translate(125.7 16.21) rotate(174.94)"/><rect class="cls-4" x="59.66" y="8.05" width="5.66" height="5.66" rx="1.79" ry="1.79" transform="translate(125.7 16.21) rotate(174.94)"/><circle class="cls-4" cx="33.2" cy="36.4" r="0.93"/><circle class="cls-4" cx="22.85" cy="56.04" r="0.93"/><circle class="cls-4" cx="23.78" cy="24.34" r="0.93"/><circle class="cls-4" cx="25.82" cy="47" r="0.93"/><circle class="cls-4" cx="38.8" cy="48.86" r="0.93"/><circle class="cls-4" cx="64.33" cy="48.86" r="0.93"/><circle class="cls-4" cx="52.51" cy="56.04" r="0.93"/><circle class="cls-4" cx="34.13" cy="3.06" r="0.93"/><circle class="cls-4" cx="57.43" cy="44.22" r="0.93"/><circle class="cls-4" cx="31.98" cy="24.34" r="0.93"/><circle class="cls-4" cx="37.88" cy="17.16" r="0.93"/><circle class="cls-4" cx="50.86" cy="5.78" r="0.93"/><circle class="cls-4" cx="59.29" cy="4.19" r="0.93"/><circle class="cls-4" cx="48.52" cy="44.22" r="0.93"/><circle class="cls-4" cx="44.09" cy="38.25" r="0.93"/><circle class="cls-4" cx="20.59" cy="36.4" r="0.93"/><circle class="cls-4" cx="41.67" cy="56.04" r="0.93"/><circle class="cls-4" cx="50.86" cy="17.16" r="0.93"/><circle class="cls-4" cx="57.43" cy="24.05" r="0.93"/><circle class="cls-4" cx="53.44" cy="33.91" r="0.93"/><path class="cls-3" d="M.46,20A57.13,57.13,0,0,0,0,26.71l12,7.55L.16,31.47C.66,37.22,2.4,43.18,7.4,44.22l12.53-3.06.91-10Z"/><ellipse class="cls-3" cx="41.19" cy="26.13" rx="1.85" ry="1.51"/><ellipse class="cls-3" cx="44.09" cy="26.13" rx="1.85" ry="1.51"/><ellipse class="cls-3" cx="41.19" cy="29.51" rx="1.85" ry="1.51"/><ellipse class="cls-3" cx="44.09" cy="29.51" rx="1.85" ry="1.51"/><ellipse class="cls-2" cx="42.76" cy="27.85" rx="2.81" ry="0.98"/><circle class="cls-5" cx="23.07" cy="9.63" r="0.71"/><circle class="cls-5" cx="62.38" cy="9.63" r="0.71"/></g></g></svg>