<svg xmlns="http://www.w3.org/2000/svg" xmlns:xlink="http://www.w3.org/1999/xlink" viewBox="0 0 97.83 96.04" width="97.83" height="96.04"><defs><style>.cls-1{fill:none;}.cls-2{fill:#65af35;}.cls-3{fill:#1d9904;}.cls-4{fill:#022289;}.cls-5{clip-path:url(#clip-path);}.cls-6{fill:#93d839;}.cls-7{opacity:0.1;}</style><clipPath id="clip-path"><rect class="cls-1" x="12.9" y="12.04" width="72.5" height="72.5" rx="36.25" ry="36.25" transform="translate(-19.22 39.77) rotate(-37.39)"/></clipPath></defs><title>turtle</title><g id="Layer_2" data-name="Layer 2"><g id="ART"><path class="cls-2" d="M26.85,30.2,6.3,45.91S-3.88,53.69,3.08,62.79L33.81,39.3Z"/><path class="cls-2" d="M36.35,22.94,56.9,7.23S67.08-.55,74,8.55L43.3,32Z"/><path class="cls-3" d="M38.54,59.17l3.55,25.62s1.75,12.69,13.1,11.12L49.88,57.6Z"/><path class="cls-3" d="M62.32,41,86.11,51.14s11.79,5,7.29,15.56L57.83,51.53Z"/><path class="cls-2" d="M76.45,76.84l-.12-.94a5,5,0,0,0-8-3.35l-.75.58a5,5,0,0,0,1.12,8.63l.88.37A5,5,0,0,0,76.45,76.84Z"/><rect class="cls-3" x="17.8" y="3.52" width="19.4" height="32.88" rx="9.7" ry="9.7" transform="translate(-6.47 20.8) rotate(-37.39)"/><circle class="cls-4" cx="18.29" cy="15.34" r="1.94"/><circle class="cls-4" cx="25.13" cy="10.11" r="1.94"/><g class="cls-5"><polygon class="cls-3" points="14.71 33.76 0 45.01 2.38 63.37 19.47 70.48 34.18 59.24 31.8 40.88 14.71 33.76"/><polygon class="cls-2" points="34.18 59.24 19.47 70.48 21.85 88.84 38.95 95.96 53.66 84.72 51.27 66.36 34.18 59.24"/><polygon class="cls-3" points="58.89 0 44.18 11.24 46.56 29.6 63.65 36.72 78.36 25.48 75.98 7.12 58.89 0"/><polygon class="cls-2" points="78.36 25.48 63.65 36.72 66.03 55.08 83.12 62.2 97.83 50.96 95.45 32.6 78.36 25.48"/><polygon class="cls-6" points="46.52 29.64 31.81 40.88 34.19 59.24 51.28 66.36 65.99 55.11 63.61 36.75 46.52 29.64"/><polygon class="cls-2" points="27.04 4.16 12.33 15.4 14.71 33.76 31.81 40.88 46.52 29.64 44.13 11.28 27.04 4.16"/><polygon class="cls-3" points="65.99 55.11 51.28 66.36 53.66 84.72 70.75 91.83 85.46 80.59 83.08 62.23 65.99 55.11"/></g><path class="cls-7" d="M49.15,76.81A35.82,35.82,0,0,1,13.52,44.64c-.12,1.2-.19,2.42-.19,3.65a35.82,35.82,0,0,0,71.64,0c0-1.23-.07-2.45-.19-3.65A35.82,35.82,0,0,1,49.15,76.81Z"/></g></g></svg>