<svg id="Layer_1" xmlns="http://www.w3.org/2000/svg" xmlns:xlink="http://www.w3.org/1999/xlink" width="48" height="43" viewBox="0 0 48 43"><style>.st0{clip-path:url(#SVGID_2_)}.st1{fill:#c985de}.st2{fill:#9b51a0}.st3{fill:url(#SVGID_3_)}.st4{fill:#be79cf}.st5{opacity:.66;fill:url(#SVGID_4_)}.st6{opacity:.47;fill:url(#SVGID_5_)}.st7{fill:#fff}.st8{fill:url(#SVGID_6_)}.st9{opacity:.3;clip-path:url(#SVGID_8_);fill:url(#SVGID_9_)}.st10{opacity:.3;fill:url(#SVGID_10_)}.st10,.st11{clip-path:url(#SVGID_8_)}.st12{fill:none}.st13{opacity:.1}.st14{fill:none;stroke:#c985de;stroke-width:6.2485;stroke-linecap:round;stroke-miterlimit:10}.st15,.st16{stroke:#d7deda;stroke-width:6.3905}.st15{fill:none;stroke-miterlimit:10;stroke-dasharray:9.6568,85.2068}.st16{stroke-linecap:round;stroke-dasharray:2.8402,85.2068}.st16,.st17,.st18,.st19{fill:none;stroke-miterlimit:10}.st17{stroke-linecap:round;stroke:#c985de;stroke-width:6.7619}.st18,.st19{stroke:#d7deda;stroke-width:6.9156;stroke-dasharray:10.4503,92.2082}.st19{stroke-linecap:round;stroke-dasharray:3.0736,92.2082}.st20{fill:url(#SVGID_11_)}.st21,.st22{clip-path:url(#SVGID_8_);fill:#c985de}.st22{fill:#9b51a0}.st23{fill:url(#SVGID_12_)}.st24{opacity:.3;clip-path:url(#SVGID_14_);fill:url(#SVGID_15_)}.st25{opacity:.3;fill:url(#SVGID_16_)}.st25,.st26{clip-path:url(#SVGID_14_)}.st27{fill:url(#SVGID_17_)}.st28,.st29{clip-path:url(#SVGID_14_);fill:#c985de}.st29{fill:#9b51a0}.st30{fill:url(#SVGID_18_)}.st31{fill:url(#SVGID_19_)}.st32{clip-path:url(#SVGID_21_)}.st33{fill:url(#SVGID_22_)}.st34{opacity:.66;fill:url(#SVGID_23_)}.st35{opacity:.47;fill:url(#SVGID_24_)}.st36{fill:url(#SVGID_25_)}.st37,.st38{opacity:.1;clip-path:url(#SVGID_27_)}.st38{opacity:.25;fill:url(#SVGID_28_)}.st39{opacity:.25;fill:url(#SVGID_29_)}.st39,.st40{clip-path:url(#SVGID_27_)}.st41{fill:url(#SVGID_30_)}.st42{fill:url(#SVGID_33_)}.st42,.st43,.st44{clip-path:url(#SVGID_32_)}.st44{fill:#fff}.st45{clip-path:url(#SVGID_35_)}.st46{fill:url(#SVGID_36_)}.st47,.st48{opacity:.1;clip-path:url(#SVGID_38_)}.st48{opacity:.25;fill:url(#SVGID_39_)}.st49{opacity:.25;fill:url(#SVGID_40_)}.st49,.st50{clip-path:url(#SVGID_38_)}.st51{fill:#9b51a0;stroke:#c985de;stroke-width:.8438;stroke-miterlimit:10}.st52{clip-path:url(#SVGID_38_);fill:#9b51a0}.st53{fill:url(#SVGID_41_)}</style><g id="New_Symbol_19_2_"><defs><path id="SVGID_37_" d="M0 0h48v43H0z"/></defs><clipPath id="SVGID_2_"><use xlink:href="#SVGID_37_" overflow="visible"/></clipPath><ellipse cx="24.1" cy="32.8" rx="12.7" ry="1.1" opacity=".1" clip-path="url(#SVGID_2_)"/><linearGradient id="SVGID_3_" gradientUnits="userSpaceOnUse" x1="32.828" y1="32.594" x2="32.828" y2="3.476"><stop offset=".116" stop-color="#c985de" stop-opacity="0"/><stop offset="1" stop-color="#c985de"/></linearGradient><path d="M28.3 32.6c-.1 0-.1 0-.2-.1s-.1-.3 0-.4c6.6-8.7 9.2-17 9-28.4 0-.1.1-.3.3-.3.2 0 .3.1.3.3.2 11.6-2.4 19.9-9.1 28.8-.1.1-.2.1-.3.1z" opacity=".25" clip-path="url(#SVGID_2_)" fill="url(#SVGID_3_)"/><linearGradient id="SVGID_4_" gradientUnits="userSpaceOnUse" x1="-598.073" y1="302.762" x2="-598.073" y2="281.509" gradientTransform="scale(-1 1) rotate(-8.216 -2197.77 -3799.809)"><stop offset=".116" stop-color="#c985de" stop-opacity="0"/><stop offset="1" stop-color="#c985de"/></linearGradient><path d="M26.1 31.8c-.2 0-.4-.1-.5-.3-.1-.3 0-.6.2-.7 2.5-1.2 4.9-7.6 6.9-19 .1-.3.3-.5.6-.4.3.1.5.3.4.6-1.4 7.6-3.7 17.9-7.5 19.8.1-.1 0 0-.1 0z" opacity=".25" clip-path="url(#SVGID_2_)" fill="url(#SVGID_4_)"/><g class="st0"><path class="st2" d="M14 24.3c-.5 0-1.1-.1-1.6-.2-2.2-.6-3.8-2.4-4.5-4.8-.1-.5.2-1 .7-1.2.5-.1 1 .2 1.2.7.5 1.8 1.7 3 3.2 3.5 1.4.4 3 0 4-1 .4-.4 1-.4 1.3 0 .4.4.3 1 0 1.3-1.2 1.1-2.8 1.7-4.3 1.7z"/><path class="st1" d="M14 24.5c-.6 0-1.1-.1-1.7-.2-2.3-.6-4-2.4-4.7-5-.2-.6.2-1.3.8-1.5.3-.1.6 0 .9.1.3.2.5.4.6.7.5 1.7 1.6 2.9 3 3.3 1.3.4 2.8 0 3.8-1 .2-.2.5-.3.9-.3.3 0 .6.1.8.4.2.2.3.5.3.9 0 .3-.1.6-.4.8-1.1 1.2-2.7 1.8-4.3 1.8zm-5.2-6.2h-.2c-.4.1-.6.5-.5.9.7 2.3 2.2 4 4.4 4.6 1.9.5 4.1 0 5.6-1.4.1-.1.2-.3.2-.5s-.1-.4-.2-.5c-.1-.1-.3-.2-.5-.2s-.4.1-.5.2c-1.1 1.1-2.7 1.5-4.3 1.1-1.6-.4-2.9-1.8-3.4-3.6-.1-.2-.2-.3-.3-.4-.1-.2-.2-.2-.3-.2z"/><path class="st1" d="M6.7 17c0 .3.1.6.3.8.2.7.9 1.1 1.6 1 .8-.1 1.4-.9 1.3-1.7 0-.3-.1-.6-.3-.8-.2-.7-.9-1.1-1.6-1-.8.1-1.4.8-1.3 1.7z"/><path class="st1" d="M9.1 17.4c0 .4.4.7.8.6.2 0 .4-.1.5-.3.3-.1.5-.4.4-.7 0-.4-.4-.7-.8-.6-.2 0-.4.1-.5.3-.3.1-.4.4-.4.7z"/><path class="st2" d="M22.5 20.7h-.3c-.5-.2-.8-.7-.6-1.2.2-.6.4-1.3.7-2.1.7-2.2 1.7-5.3 2.4-8.2.1-.5.6-.8 1.1-.7.5.1.8.6.7 1.1-.7 3-1.7 6.1-2.4 8.4-.3.8-.5 1.5-.6 2-.2.5-.6.7-1 .7z"/><path class="st1" d="M22.5 21c-.1 0-.2 0-.3-.1-.6-.2-1-.9-.8-1.5.2-.6.4-1.3.7-2.1.7-2.2 1.7-5.3 2.3-8.2.1-.6.8-1.1 1.4-.9.3.1.6.3.8.5.2.3.2.6.2.9-.7 3-1.7 6.1-2.4 8.4-.2.8-.5 1.5-.6 2-.3.6-.7 1-1.3 1zm3-12.3c-.3 0-.6.2-.7.5-.7 2.9-1.6 6-2.4 8.2-.3.8-.5 1.5-.7 2.1-.1.4.1.8.5.9.4.1.8-.1.9-.5.2-.6.4-1.3.6-2 .7-2.3 1.7-5.3 2.4-8.3 0-.2 0-.4-.1-.5-.1-.2-.3-.3-.4-.3 0-.1 0-.1-.1-.1z"/><path class="st1" d="M28 7.7c0 .3-.1.6-.3.8-.2.7-.9 1.1-1.6 1.1-.8-.1-1.5-.8-1.4-1.7 0-.3.1-.6.3-.8.2-.6.9-1.1 1.6-1.1.8.1 1.4.9 1.4 1.7z"/><path class="st1" d="M25.6 8.3c0 .4-.4.7-.8.6-.2 0-.4-.1-.5-.3-.3-.1-.5-.4-.5-.7 0-.4.4-.7.8-.6.2 0 .4.1.5.3.3 0 .5.3.5.7zM14.8 31c-3.5 0-7.2-.3-9.3-1l.1-.5c4 1.2 13.5 1.3 17.3.1l.2.5c-1.9.6-5.1.9-8.3.9z"/><path class="st2" d="M14.7 32.1c-3.6 0-7.4-.3-9.6-1-.7-.2-1.2-1-.9-1.8.2-.7 1-1.2 1.7-.9 3.8 1.2 13.1 1.2 16.6.1.7-.2 1.5.2 1.7.9.2.7-.2 1.5-.9 1.8-1.9.6-5.2.9-8.6.9z"/><path class="st1" d="M14.7 32.4c-3.9 0-7.6-.4-9.7-1-.4-.1-.8-.4-1-.8-.2-.4-.3-.8-.1-1.3.3-.9 1.2-1.4 2.1-1.1 3.7 1.1 13 1.2 16.5.1.4-.1.9-.1 1.3.1s.7.6.8 1c.3.9-.2 1.8-1.1 2.1-1.9.6-5.1.9-8.8.9zm-9.2-3.8c-.5 0-.9.3-1.1.8-.1.3-.1.6.1.9.1.3.4.5.7.6 2.1.6 5.7 1 9.5 1 3.6 0 6.8-.3 8.6-.9.6-.2.9-.8.8-1.4-.1-.3-.3-.5-.6-.7-.3-.1-.6-.2-.9-.1-3.6 1.1-13 1-16.8-.1 0-.1-.2-.1-.3-.1z"/><path class="st1" d="M6.3 31.4l.8-2.7c-2-1.1-2.8-4.4-1.3-4.8 0 0-2.9-1.5-2.5 5.2.1 1.5 1.5 2.8 3 2.3zm25.8-.4c-3.3 0-6.5-.3-8.3-.9l.2-.5c3.8 1.2 13.3 1.1 17.3-.1l.1.5c-2.1.7-5.8 1-9.3 1z"/><path class="st2" d="M32.1 32.1c-3.4 0-6.7-.3-8.6-.9-.7-.2-1.1-1-.9-1.8.2-.7 1-1.2 1.7-.9 3.5 1.1 12.8 1 16.6-.1.7-.2 1.5.2 1.7.9.2.7-.2 1.5-.9 1.8-2.2.7-5.9 1-9.6 1z"/><path class="st1" d="M32.1 32.4c-3.7 0-6.8-.3-8.7-.9-.9-.3-1.4-1.2-1.1-2.1.1-.4.4-.8.8-1 .4-.2.8-.2 1.3-.1 3.5 1.1 12.7 1 16.5-.1.9-.3 1.8.2 2.1 1.1.1.4.1.9-.1 1.3s-.6.7-1 .8c-2.2.6-5.9 1-9.8 1zm-8.2-3.7c-.2 0-.4 0-.5.1-.3.1-.5.4-.6.7-.2.6.2 1.3.8 1.4 1.8.6 5 .9 8.6.9 3.9 0 7.5-.4 9.5-1 .3-.1.5-.3.7-.6.1-.3.2-.6.1-.9-.2-.6-.8-1-1.4-.8-3.8 1.2-13.2 1.2-16.8.1-.2.2-.3.1-.4.1z"/><path class="st2" d="M26.1 27.2c.4 1.9-1.1 3.8-3.2 4.2-2.1.4-4.1-.9-4.4-2.8l-.9-4.8c-.4-1.9 1.1-3.8 3.2-4.2 2.1-.4 4.1.9 4.4 2.8l.9 4.8z"/><path class="st1" d="M22.2 31.7c-1.9 0-3.6-1.3-3.9-3.1l-.9-4.8c-.2-1 .1-2 .7-2.9.6-.8 1.6-1.4 2.7-1.6 2.2-.4 4.4.9 4.7 3l.9 4.8c.2 1-.1 2-.7 2.9-.6.8-1.6 1.4-2.7 1.6-.3.1-.6.1-.8.1zm-.7-11.9c-.2 0-.5 0-.7.1-1 .2-1.8.7-2.3 1.4-.6.7-.8 1.6-.6 2.5l.9 4.8c.3 1.8 2.2 2.9 4.2 2.6 1-.2 1.8-.7 2.3-1.4.6-.7.8-1.6.6-2.5l-.9-4.9c-.3-1.5-1.8-2.6-3.5-2.6z"/><path class="st2" d="M20.6 19.5l1.8 8.8"/><path transform="rotate(78.533 21.472 23.877)" class="st1" d="M17 23.6h9v.5h-9z"/><path class="st2" d="M26.1 27.6l-7.4 1.5-.4-1.9 7.4-1.5z"/><path class="st1" d="M18.5 29.4L18 27l7.9-1.6.5 2.3-7.9 1.7zm.1-2l.3 1.4 6.9-1.4-.3-1.4-6.9 1.4z"/><path class="st1" d="M23.3 28.2l-1.9.4-.4-2.1 1.9-.4zm17.3 3.2l-1-2.6c1.9-1.2 2.5-4.6 1-4.9 0 0 2.7-1.7 2.8 5 .1 1.6-1.2 2.9-2.8 2.5z"/><path class="st2" d="M13.6 15.7c-1.3-.8-.3-7.5 4.5-7.4 0 0-1 2.7.3 3.6l-4.8 3.8z"/><path class="st1" d="M13.6 16.1l-.1-.1c-.7-.5-.8-2.1-.3-3.8.3-1 1.5-4.2 5-4.1h.4l-.1.3s-.9 2.5.2 3.3l.3.2-5.4 4.2zm4.2-7.5c-2.8.2-3.9 2.9-4.1 3.7-.4 1.4-.3 2.6 0 3.1L18 12c-.8-.9-.5-2.6-.2-3.4zm-2.6 9.8l-2-.6s2 4 3.6 2.1l-1.6-1.5zm5.5-4.1v-2.1s3.2 3.1.9 4.1l-.9-2z"/><path class="st1" d="M21.2 14.6c1.2 1.7.9 4.1-.8 5.3-1.7 1.2-4 .9-5.3-.8-1.2-1.7-.9-4.1.8-5.3 1.7-1.2 4-.8 5.3.8z"/><path class="st1" d="M13.7 16.7c.2.2.4.3.6.2l5.2-3.7c.2-.1.2-.4.1-.7l-.6-.8c-.2-.2-.4-.3-.6-.2l-5.2 3.7c-.2.2-.2.5-.1.8l.6.7zm5.5-8.8c.2.3.1.7-.2.9-.3.2-.7.2-.9-.1-.2-.3-.1-.7.2-1 .3-.2.7-.1.9.2z"/></g><path d="M17.6 29.9l.5-.4.8-.2 3.2 1.8s-.3.4-2.1.4c-1.7 0-2.4-1.6-2.4-1.6zm9-.3l-.5-.4-.8-.2-3.2 1.8s.6.5 2.4.5 2.1-1.7 2.1-1.7z" clip-path="url(#SVGID_2_)" fill="#9b51a0"/><g id="XMLID_8_"><path class="st7" d="M32.4 28.9c0 .5-.2.9-.5 1.3l-7.2 7.3-7.2-7.3c-.7-.7-.7-1.9 0-2.6.7-.7 1.8-.7 2.6 0l4.7 4.7 4.7-4.7c.7-.7 1.8-.7 2.6 0 .1.3.3.8.3 1.3z"/><linearGradient id="SVGID_5_" gradientUnits="userSpaceOnUse" x1="-6673.586" y1="-8055.063" x2="-6625.804" y2="-8055.063" gradientTransform="matrix(0 -.6062 .6017 0 4871.354 -4011.583)"><stop offset=".232" stop-color="#fff"/><stop offset="1" stop-color="#fff" stop-opacity="0"/></linearGradient><path fill="url(#SVGID_5_)" d="M22.5 4.7h4.2v29h-4.2z"/></g></g></svg>