<svg id="Layer_1" xmlns="http://www.w3.org/2000/svg" xmlns:xlink="http://www.w3.org/1999/xlink" width="48" height="43" viewBox="0 0 48 43"><style>.st0{clip-path:url(#SVGID_2_)}.st1{fill:#c985de}.st2{fill:#9b51a0}.st3{fill:url(#SVGID_3_)}.st4{fill:#be79cf}.st5{opacity:.66;fill:url(#SVGID_4_)}.st6{opacity:.47;fill:url(#SVGID_5_)}.st7{fill:#fff}.st8{fill:url(#SVGID_6_)}.st9{opacity:.4}.st10{clip-path:url(#SVGID_8_)}.st11,.st12{fill:#dee3e0}.st12,.st13{clip-path:url(#SVGID_8_)}.st13{fill:url(#SVGID_9_)}.st14{opacity:.66;fill:url(#SVGID_10_)}.st15{opacity:.47;fill:url(#SVGID_11_)}.st16{fill:url(#SVGID_12_)}.st17{opacity:.3;clip-path:url(#SVGID_14_);fill:url(#SVGID_15_)}.st18{opacity:.3;fill:url(#SVGID_16_)}.st18,.st19{clip-path:url(#SVGID_14_)}.st20{fill:none}.st21{opacity:.1}.st22{fill:none;stroke:#c985de;stroke-width:6.2485;stroke-linecap:round;stroke-miterlimit:10}.st23,.st24{stroke:#d7deda;stroke-width:6.3905}.st23{fill:none;stroke-miterlimit:10;stroke-dasharray:9.6568,85.2068}.st24{stroke-linecap:round;stroke-dasharray:2.8402,85.2068}.st24,.st25,.st26,.st27{fill:none;stroke-miterlimit:10}.st25{stroke-linecap:round;stroke:#c985de;stroke-width:6.7619}.st26,.st27{stroke:#d7deda;stroke-width:6.9156;stroke-dasharray:10.4503,92.2082}.st27{stroke-linecap:round;stroke-dasharray:3.0736,92.2082}.st28{fill:url(#SVGID_17_)}.st29,.st30{clip-path:url(#SVGID_14_);fill:#c985de}.st30{fill:#9b51a0}.st31{fill:url(#SVGID_18_)}.st32{opacity:.3;clip-path:url(#SVGID_20_);fill:url(#SVGID_21_)}.st33{opacity:.3;fill:url(#SVGID_22_)}.st33,.st34,.st35{clip-path:url(#SVGID_20_)}.st34{fill:none}.st35{opacity:.1}.st36{fill:#dee3e0}.st36,.st37,.st38,.st39{clip-path:url(#SVGID_20_)}.st37{fill:none;stroke:#dee3e0;stroke-linecap:round;stroke-miterlimit:10;stroke-width:6.2485}.st38,.st39{stroke-width:6.3905}.st38{fill:none;stroke:#dee3e0;stroke-miterlimit:10;stroke-dasharray:9.6568,85.2068}.st39{stroke-linecap:round;stroke-dasharray:2.8402,85.2068}.st39,.st40,.st41{fill:none;stroke:#dee3e0;stroke-miterlimit:10}.st40{clip-path:url(#SVGID_20_);stroke-linecap:round;stroke-width:6.7619}.st41{stroke-width:6.9156;stroke-dasharray:10.4503,92.2082}.st41,.st42,.st43{clip-path:url(#SVGID_20_)}.st42{stroke:#dee3e0;stroke-width:6.9156;stroke-linecap:round;stroke-miterlimit:10;stroke-dasharray:3.0736,92.2082;fill:none}.st43{fill:url(#SVGID_23_)}.st44{fill:url(#SVGID_24_)}.st45{opacity:.3;clip-path:url(#SVGID_26_);fill:url(#SVGID_27_)}.st46{opacity:.3;fill:url(#SVGID_28_)}.st46,.st47{clip-path:url(#SVGID_26_)}.st48{fill:url(#SVGID_29_)}.st49,.st50{clip-path:url(#SVGID_26_);fill:#c985de}.st50{fill:#9b51a0}.st51{fill:url(#SVGID_30_)}.st52{opacity:.3;clip-path:url(#SVGID_32_);fill:url(#SVGID_33_)}.st53{opacity:.3;fill:url(#SVGID_34_)}.st53,.st54{clip-path:url(#SVGID_32_)}.st55{fill:none;stroke:#dee3e0;stroke-width:6.2485;stroke-linecap:round;stroke-miterlimit:10}.st56,.st57{stroke-width:6.3905}.st56{fill:none;stroke:#dee3e0;stroke-miterlimit:10;stroke-dasharray:9.6568,85.2068}.st57{stroke-linecap:round;stroke-dasharray:2.8402,85.2068}.st57,.st58,.st59,.st60{fill:none;stroke:#dee3e0;stroke-miterlimit:10}.st58{stroke-linecap:round;stroke-width:6.7619}.st59,.st60{stroke-width:6.9156;stroke-dasharray:10.4503,92.2082}.st60{stroke-linecap:round;stroke-dasharray:3.0736,92.2082}.st61,.st62{clip-path:url(#SVGID_32_);fill:#dee3e0}.st62{fill:url(#SVGID_35_)}.st63{fill:url(#SVGID_36_)}.st64{fill:url(#SVGID_37_)}.st65{clip-path:url(#SVGID_39_)}.st66{fill:url(#SVGID_40_)}.st67{opacity:.66;fill:url(#SVGID_41_)}.st68{opacity:.47;fill:url(#SVGID_42_)}.st69{fill:url(#SVGID_43_)}.st70{fill:url(#SVGID_44_)}.st71{fill:#dee3e0}.st71,.st72,.st73,.st74{clip-path:url(#SVGID_46_)}.st72{fill:url(#SVGID_47_)}.st73{opacity:.66;fill:url(#SVGID_48_)}.st74{opacity:.47;fill:url(#SVGID_49_)}.st75{fill:url(#SVGID_50_)}.st76,.st77{opacity:.1;clip-path:url(#SVGID_52_)}.st77{opacity:.25;fill:url(#SVGID_53_)}.st78{opacity:.25;fill:url(#SVGID_54_)}.st78,.st79{clip-path:url(#SVGID_52_)}.st80{fill:url(#SVGID_55_)}.st81,.st82{opacity:.1;clip-path:url(#SVGID_57_)}.st82{opacity:.25;fill:url(#SVGID_58_)}.st83{opacity:.25;fill:url(#SVGID_59_)}.st83,.st84{clip-path:url(#SVGID_57_)}.st85{fill:url(#SVGID_60_)}.st86{fill:url(#SVGID_63_)}.st86,.st87,.st88{clip-path:url(#SVGID_62_)}.st88{fill:#fff}.st89{opacity:.67;clip-path:url(#SVGID_65_);fill:url(#SVGID_66_)}.st90{opacity:.4}.st90,.st91,.st92{clip-path:url(#SVGID_65_)}.st92{fill:url(#SVGID_67_)}.st93{clip-path:url(#SVGID_69_)}.st94{fill:url(#SVGID_70_)}.st95,.st96{opacity:.1;clip-path:url(#SVGID_72_)}.st96{opacity:.25;fill:url(#SVGID_73_)}.st97{opacity:.25;fill:url(#SVGID_74_)}.st97,.st98{clip-path:url(#SVGID_72_)}.st99{fill:#9b51a0;stroke:#c985de;stroke-width:.8438;stroke-miterlimit:10}.st100{clip-path:url(#SVGID_72_);fill:#9b51a0}.st101{fill:url(#SVGID_75_)}.st102,.st103{opacity:.25;fill:url(#SVGID_76_)}.st103{fill:url(#SVGID_77_)}.st104{fill:#dee3e0;stroke:#dee3e0;stroke-width:.8438;stroke-miterlimit:10}.st105{fill:url(#SVGID_78_)}</style><g id="New_Symbol_17_2_"><g class="st9"><defs><path id="SVGID_19_" class="st9" d="M0 0h48v43H0z"/></defs><clipPath id="SVGID_2_"><use xlink:href="#SVGID_19_" overflow="visible"/></clipPath><linearGradient id="SVGID_3_" gradientUnits="userSpaceOnUse" x1="32.785" y1="24.293" x2="18.918" y2="4.74"><stop offset="0" stop-color="#dee3e0" stop-opacity="0"/><stop offset="1" stop-color="#dee3e0"/></linearGradient><path d="M27.1 23.1s-.5-.8-1.3-2c-.4-.5-.7-1.2-1.2-1.8-.2-.3-.5-.7-.8-1-.3-.3-.5-.7-.8-1-.3-.3-.6-.7-.8-1-.3-.3-.6-.6-.8-.9-.3-.3-.5-.5-.8-.7-.3-.2-.5-.4-.7-.6-.2-.2-.4-.3-.6-.4-.2-.1-.3-.2-.4-.2 0 0-.1 0-.1-.1h.2c-1.2.2-2.3-.5-2.5-1.7-.2-1.2.5-2.3 1.7-2.5h1.4c.3 0 .7 0 1.1.1.3-.3.7-.2 1.2-.1.4.1.9.3 1.4.4.5.2.9.4 1.4.6.5.2.9.4 1.4.7.5.3.9.5 1.4.8.5.3.9.6 1.4.8.4.3.9.6 1.3.8.8.5 1.6 1.1 2.2 1.6l2 1.5c2.2 1.7 2.7 4.8 1 7-1.6 2.2-4.8 2.7-7 1-.5-.4-.9-.8-1.3-1.3z" opacity=".3" clip-path="url(#SVGID_2_)" fill="url(#SVGID_3_)"/><linearGradient id="SVGID_4_" gradientUnits="userSpaceOnUse" x1="29.061" y1="26.24" x2="18.338" y2="4.771"><stop offset="0" stop-color="#dee3e0" stop-opacity="0"/><stop offset="1" stop-color="#dee3e0"/></linearGradient><path d="M23.7 24.2s-.4-.9-1-2.2c-.3-.6-.6-1.3-.9-2-.2-.4-.4-.8-.6-1.1-.2-.4-.4-.8-.6-1.1-.2-.4-.5-.7-.7-1.1-.2-.3-.5-.7-.7-1-.2-.3-.5-.6-.7-.9-.2-.3-.4-.5-.6-.7l-.5-.5c-.2-.1-.3-.2-.3-.3l-.1-.1h.2c-1.2.1-2.2-.9-2.2-2.1-.1-1.2.9-2.2 2.1-2.3h.9c.1 0 .3 0 .5.1.1 0 .5.1.9.3.4.1.8.3 1.2.5.4.2.8.4 1.3.6.4.2.9.5 1.3.8.4.3.9.6 1.3.9.4.3.9.7 1.3 1 .4.3.8.7 1.2 1 .4.3.8.7 1.1 1 .7.7 1.4 1.4 2 1.9l1.7 1.7c1.9 2 1.9 5.2-.1 7.1-2 1.9-5.1 1.9-7.1-.1-.3-.4-.7-.9-.9-1.4z" opacity=".3" clip-path="url(#SVGID_2_)" fill="url(#SVGID_4_)"/><path d="M11 11.7s-9.5 7.5-1.4 12.2" clip-path="url(#SVGID_2_)" fill="none"/><ellipse transform="matrix(-1 -.00321 .00321 -1 26.925 60.788)" cx="13.5" cy="30.4" rx="11.4" ry="1.5" opacity=".1" clip-path="url(#SVGID_2_)"/><path d="M11.6 22.4l-1.5-.8c-.1 0-.2.1-.3.1.2.2.5.3.7.5.9.5 1.2 1.7.7 2.6-.4.6-1 1-1.7.9-.3 0-.6-.1-.9-.3-.1-.1-.2-.1-.3-.2l-.1.2c.3 1.1.1 2.1-.5 2.8-.8 1-2.1.4-3.2.3 0 0 .1.8 1.2 1.5l3.5.1c.4-.2.7-.4 1.2-.7.6-.5 1.2-1.1 1.9-1.8 1.4-1.4 1.3-4.2-.7-5.2z" clip-path="url(#SVGID_2_)" fill="#dee3e0"/><path d="M10.6 22c-2.1-1.2-2.2-2.3-2.2-2.6-.1-1.7 1.6-3.9 3-5.3-.2-.1-.4-.1-.5-.2-1.4 1.3-3.1 3.6-3 5.5 0 .4.1 1.7 2.4 3.1.4.2.6.6.8 1 .1.4.1.9-.2 1.2-.3.5-.9.8-1.5.8-.3 0-.5-.1-.7-.2-3.2-1.8-4-4.1-4.1-5.7-.2-3.1 1.9-5.9 3.5-7.6-.1-.1-.2-.3-.3-.4-1.7 1.8-3.9 4.7-3.7 8 .1 1.7 1 4.1 4.3 6.1.3.2.6.3 1 .3h.1c.8 0 1.5-.4 1.8-1.1.3-.5.4-1.1.2-1.6 0-.6-.4-1-.9-1.3z" clip-path="url(#SVGID_2_)" fill="#dee3e0"/><path transform="rotate(83.119 12.438 -1.05)" clip-path="url(#SVGID_2_)" fill="#dee3e0" d="M3.9-1.2H21v.4H3.9z"/><path d="M6.2 8.7l-.5-4 14.7-1.9.5 4L6.2 8.7zm0-3.6l.4 3 13.7-1.8-.4-3L6.2 5.1z" clip-path="url(#SVGID_2_)" fill="#dee3e0"/><path clip-path="url(#SVGID_2_)" fill="#dee3e0" d="M11.8 7.9l3.6-.5-.5-4-3.7.5z"/><path d="M6.6 8L5.3-1.9c-.2-1.8.3-3.6 1.4-5.1 1.1-1.5 2.8-2.4 4.6-2.6.3 0 .6-.1.9-.1 1.5 0 3 .5 4.2 1.5 1.5 1.1 2.4 2.8 2.6 4.6l1.3 9.9c.1.4.1.8 0 1.2.2 0 .3-.1.5-.1V6.2l-1.3-9.9c-.3-2-1.3-3.7-2.8-5-1.6-1.2-3.5-1.8-5.5-1.5-2 .3-3.7 1.3-4.9 2.8-1.2 1.7-1.7 3.6-1.5 5.6l1.3 9.9c.2 1.8 1.1 3.4 2.4 4.6 0 0 .1 0 .2-.2 0-.4-.2-.5-.2-.5-1.1-1.1-1.7-2.5-1.9-4zm12.1 4.1c-.2.1-.4.1-.6.2-1 1-2.3 1.6-3.8 1.8-1.4.2-2.8-.1-4.1-.7-.1 0-.1 0-.2.1-.2.2-.2.3-.1.4 1.1.6 2.2.9 3.4.9.3 0 .6 0 1-.1 1.9-.2 3.5-1.2 4.7-2.6 0-.1-.2 0-.3 0zm12.2 5.5s-.1-1.4 2-3.4 4.1-1.9 4.1-1.9c4.2 1.5 7.7-2.8 7.2-6.8 0 0 7.6 5.5-4.1 14.2-3.2 2.3-7.5 2-9.2-2.1z" clip-path="url(#SVGID_2_)" fill="#dee3e0"/><linearGradient id="SVGID_5_" gradientUnits="userSpaceOnUse" x1="18.716" y1="15.885" x2="36.728" y2="10.515"><stop offset="0" stop-color="#dee3e0"/><stop offset=".762" stop-color="#dee3e0"/><stop offset="1" stop-color="#dee3e0"/></linearGradient><path d="M37.1 12.7l-.6-.6-1.6-1.3-.3-.3-.7-.5c-.1-.1-.3-.2-.4-.3-.4-.3-.8-.5-1.2-.8L30.5 8c-.5-.2-1.1-.4-1.7-.6l-.3-.1-.4-.1c-.6 0-1.1-.2-1.7-.3-.2 0-.4 0-.6-.1-.5-.1-1.1-.1-1.6-.1h-1.1l-1 .1c-.3 0-.7.1-1 .2l-.3.1c-.2 0-.4.1-.6.1l-.3.1c-.5.1-.9.3-1.3.4-.5.2-.8.4-1.2.5l-.1.1c-.3.1-.5.3-.7.4 0 .2.2.2.8.2 0 0 .1 0 .1-.1l.1-.1c.3-.2.7-.3 1.2-.5l1.2-.3.3-.1c.2-.1.4-.1.6-.1l.3-.1c.3-.1.6-.1.9-.2l1-.1h1.1c.5 0 1 0 1.6.1.2 0 .4 0 .5.1.6.1 1.1.2 1.6.4l.4.1h.4c.6.2 1.1.4 1.7.6l1.7.9c.4.2.8.5 1.1.7.1.1.3.2.4.3l.7.5c.1.1.2.2.3.2l1.5 1.2.2-.2-.1.2c.2.2.4.3.5.5.6.7.9 1.7.8 2.6-.1.9-.6 1.8-1.3 2.4-1.5 1.2-3.8 1-5-.6L30 15.8c-.1-.1-.2-.2-.2-.3l-.3-.3-.3-.3c-.1-.2-.3-.3-.5-.5l-.9-.7-1.3-.9c-.2-.1-.3-.2-.5-.2-.3-.1-.5-.3-.8-.4-.1 0-.3-.1-.4-.2l-.9-.3-.3-.1c-.1 0-.3-.1-.4-.1l-.7-.1h-1.8c-.3 0-.6 0-.9.1-.3 0-.6.1-.9.2h-.3l-.3.3c-.1.2-.3.3-.5.4.1 0 .1 0 .2-.1.2-.1.5-.1.7-.2h.2c.3-.1.5-.1.9-.2.3 0 .5-.1.8-.1h1.7l.7.1c.1 0 .3.1.4.1.1 0 .2 0 .3.1.3 0 .6.1.9.3.2.1.3.1.4.2.3.1.5.2.8.4.2.1.3.2.4.2l.9.6 1.2.9c.2.2.3.3.4.5l.3.3.3.3c.1.1.1.2.2.3l1.2 1.5c.7.9 1.6 1.4 2.7 1.5h.5c.9 0 1.8-.3 2.5-.9.8-.7 1.4-1.7 1.5-2.7.2-.9-.1-1.9-.8-2.8z" clip-path="url(#SVGID_2_)" fill="url(#SVGID_5_)"/></g><g id="XMLID_9_"><path class="st7" d="M31.1 28.8c.5 0 .9-.2 1.3-.5l7.2-7.3-7.2-7.3c-.7-.7-1.8-.7-2.6 0-.7.7-.7 1.9 0 2.6l4.7 4.7-4.7 4.7c-.7.7-.7 1.9 0 2.6.4.4.9.5 1.3.5z"/><linearGradient id="SVGID_6_" gradientUnits="userSpaceOnUse" x1="-6985.065" y1="-7909.73" x2="-6937.282" y2="-7909.73" gradientTransform="matrix(-.6017 0 0 .6062 -4167.05 4815.54)"><stop offset=".232" stop-color="#fff"/><stop offset="1" stop-color="#fff" stop-opacity="0"/></linearGradient><path class="st8" d="M7.1 18.9h28.8v4.2H7.1z"/></g></g></svg>