<svg xmlns="http://www.w3.org/2000/svg" xmlns:xlink="http://www.w3.org/1999/xlink" viewBox="0 0 461 307.8" enable-background="new 0 0 461 307.8" width="461" height="341"><g><path opacity=".2" fill="#010101" d="M317 298.3h135.2c4.8 0 8.8-4.7 8.8-9.6V59.8c0-4.8-4-9.6-8.8-9.6H277.4c-4.8 0-8.3 4.7-8.3 9.6v228.9c0 4.8 3.5 9.6 8.3 9.6H317z"/><defs><path id="a" d="M443.2 171.4l-115.9-12.6-37.7-4.1-18.8-2c-4.8-.5-9.5 2.5-10.1 7.3l-5.9 54.8c-.5 4.8 3.4 9.8 8.1 10.3l16.4 1.8c1.6-5.8 6.7-8.9 12.4-8.3 5.7.6 10 4.7 10.3 10.7l19.8 2.1 113.5 12.3c4.8.5 8.6-3.7 9.1-8.4l5.9-54.8c.6-4.7-2.4-8.6-7.1-9.1z"/></defs><clipPath><use xlink:href="#a" overflow="visible"/></clipPath><g fill="#9B51A0"><path d="M442.5 177.3l-115.9-12.6-37.7-4.1-18.8-2c-4.8-.5-9.5 2.5-10.1 7.3l-5.9 54.8c-.5 4.8 3.4 9.8 8.1 10.3l16.4 1.8c1.6-5.8 6.7-8.9 12.4-8.3 5.7.6 10 4.7 10.3 10.7l19.8 2.1 113.5 12.3c4.8.5 8.6-3.7 9.1-8.4l5.9-54.8c.7-4.7-2.3-8.6-7.1-9.1z"/><circle cx="297.9" cy="163.1" r="10.8"/></g><g opacity=".2" fill="#010101"><path d="M442.5 177.3l-115.9-12.6-37.7-4.1-18.8-2c-4.8-.5-9.5 2.5-10.1 7.3l-5.9 54.8c-.5 4.8 3.4 9.8 8.1 10.3l16.4 1.8c1.6-5.8 6.7-8.9 12.4-8.3 5.7.6 10 4.7 10.3 10.7l19.8 2.1 113.5 12.3c4.8.5 8.6-3.7 9.1-8.4l5.9-54.8c.7-4.7-2.3-8.6-7.1-9.1z"/><circle cx="297.9" cy="163.1" r="10.8"/></g><g fill="#9B51A0"><circle cx="298.7" cy="155.5" r="10.8"/><path d="M443.2 171.4l-115.9-12.6-37.7-4.1-18.8-2c-4.8-.5-9.5 2.5-10.1 7.3l-5.9 54.8c-.5 4.8 3.4 9.8 8.1 10.3l16.4 1.8c1.6-5.8 6.7-8.9 12.4-8.3 5.7.6 10 4.7 10.3 10.7l19.8 2.1 113.5 12.3c4.8.5 8.6-3.7 9.1-8.4l5.9-54.8c.6-4.7-2.4-8.6-7.1-9.1z"/></g><defs><path id="b" d="M443.2 171.4l-115.9-12.6-37.7-4.1-18.8-2c-4.8-.5-9.5 2.5-10.1 7.3l-5.9 54.8c-.5 4.8 3.4 9.8 8.1 10.3l16.4 1.8c1.6-5.8 6.7-8.9 12.4-8.3 5.7.6 10 4.7 10.3 10.7l19.8 2.1 113.5 12.3c4.8.5 8.6-3.7 9.1-8.4l5.9-54.8c.6-4.7-2.4-8.6-7.1-9.1z"/></defs><clipPath id="c"><use xlink:href="#b" overflow="visible"/></clipPath><g clip-path="url(#c)"><ellipse transform="matrix(.994 .108 -.108 .994 34.373 -35.234)" opacity=".2" fill="#231F20" cx="343.3" cy="300.5" rx="51.2" ry="4.8"/><path fill="#D1A361" d="M362.8 304.4c-3.4-.4-5.9-3.4-5.5-6.8l8.7-80.3c.4-3.4 3.5-5.8 6.8-5.5 3.4.4 5.9 3.4 5.5 6.8l-8.7 80.3c-.3 3.4-3.4 5.9-6.8 5.5z"/><path opacity=".2" fill="#231F20" d="M362.8 304.4c-3.4-.4-5.9-3.4-5.5-6.8l8.7-80.3c.4-3.4 3.5-5.8 6.8-5.5 3.4.4 5.9 3.4 5.5 6.8l-8.7 80.3c-.3 3.4-3.4 5.9-6.8 5.5z"/><path opacity=".2" fill="#231F20" d="M362.8 304.4c-3.4-.4-5.9-3.4-5.5-6.8l8.7-80.3c.4-3.4 3.5-5.8 6.8-5.5 3.4.4 5.9 3.4 5.5 6.8l-8.7 80.3c-.3 3.4-3.4 5.9-6.8 5.5z"/><path fill="#D1A361" d="M359.9 304.1c-3.4-.4-5.9-3.4-5.5-6.8l8.7-80.3c.4-3.4 3.5-5.8 6.8-5.5 3.4.4 5.9 3.4 5.5 6.8l-8.7 80.3c-.4 3.4-3.4 5.9-6.8 5.5z"/><path fill="#D1A361" d="M327.2 300.5c-3.4-.4-5.6-3.4-5.2-6.8l8.7-80.3c.4-3.4 3.2-5.9 6.6-5.5 3.4.4 5.6 3.4 5.2 6.8l-8.7 80.3c-.4 3.4-3.2 5.9-6.6 5.5z"/><path opacity=".2" fill="#231F20" d="M327.2 300.5c-3.4-.4-5.6-3.4-5.2-6.8l8.7-80.3c.4-3.4 3.2-5.9 6.6-5.5 3.4.4 5.6 3.4 5.2 6.8l-8.7 80.3c-.4 3.4-3.2 5.9-6.6 5.5z"/><path opacity=".2" fill="#231F20" d="M327.2 300.5c-3.4-.4-5.6-3.4-5.2-6.8l8.7-80.3c.4-3.4 3.2-5.9 6.6-5.5 3.4.4 5.6 3.4 5.2 6.8l-8.7 80.3c-.4 3.4-3.2 5.9-6.6 5.5z"/><circle fill="#D1A361" cx="353.4" cy="219.5" r="33.3"/><path fill="#231F20" d="M377.4 196.4c3 5.7 4.4 12.3 3.7 19.2-1.9 17.4-14.2 29.9-31.3 29.4-.9 0-6.4-19.7-7.3-19.7-2.5-.3-2.9 19.1-5.2 18.3-5.1-1.7-9.6-4.7-13.2-8.4 5 9.4 14.4 16.2 25.8 17.5 18.3 2 34.7-11.2 36.7-29.5 1-10.3-2.7-19.9-9.2-26.8z" opacity=".2"/><path fill="#D1A361" d="M339.5 209l6.6-60.6c.9-8.5 8.7-14.7 17.3-13.8 8.5.9 14.9 8.6 13.9 17.1l-7.3 67.1"/><path fill="#fff" d="M358.3 180.2c-4-.4-7.4-2.8-9.2-6.1-.7 1.2-1.3 2.6-1.5 4.1l-2.6 24c-.6 5.7 3.8 10.8 9.5 11.5 5.7.6 11.1-3.5 11.7-9.2l2.6-24c.1-1.4-.1-2.7-.5-4-2.4 2.6-6.2 4.1-10 3.7z"/><path fill="#231F20" d="M363.4 134.7c-.5-.1-.9-.1-1.4-.1-7.5 1.5-13.5 7.7-14.4 15.7l-.8 7.1c-3.6 33.1 14.4 43 26.7 28.9l3.7-34.4c1-8.6-5.2-16.3-13.8-17.2z" opacity=".2"/><path fill="#D1A361" d="M376.6 157.7l.6-5.9c.9-8.5-5.4-16.2-13.9-17.1-8.5-.9-16.4 5.2-17.3 13.8l-.7 6.2c-4.2 39.1 27.2 40.8 31.3 3z"/><path fill="#D1A361" d="M347.6 146.3l-7.7-13.1s-8.5 30.8 9.2 28.9l-1.5-15.8z"/><path fill="#D1A361" d="M375 149.3l10.3-11.2s1.7 32-15.2 26.2l4.9-15z"/><path fill="#5B5C5E" d="M356.5 140.3c-1.3-.1-2.2-1.3-2.1-2.5l1.6-15.1c.1-1.3-.5-2.5-1.8-2.6l-12.1-1.3c-3.8-.4-6.8-3.8-6.4-7.5l.8-7.3c.1-1.3-.5-2.6-1.8-2.7l-8.2-.9c-1.3-.1-2.2-1-2.1-2.3.1-1.3 1.2-2 2.5-1.8l8.2.9c3.8.4 6.4 3.5 6 7.3l-.8 7.3c-.1 1.3.9 2.2 2.2 2.3l12.1 1.3c3.8.4 6.4 4 6 7.8l-1.6 15.1c-.1 1.2-1.3 2.1-2.5 2z"/><path fill="#5B5C5E" d="M339.2 129.1l-6.9-.7c-3.8-.4-6.4-3.7-5.9-7.5l.6-5.8c.1-1.3 1-2.2 2.3-2.1 1.3.1 2 1.2 1.8 2.5l-.6 5.8c-.1 1.3 1.1 2.2 2.3 2.4l6.9.7c1.3.1 2.4-.6 2.6-1.8l.5-4.7c.1-1.3 1.3-2.2 2.6-2 1.3.1 2.2 1.3 2.1 2.5l-.5 4.7c-.4 3.8-4 6.5-7.8 6z"/><path fill="#5B5C5E" d="M350.5 110.1l-11.5-1.2c-1.3-.1-2.2-1.3-2-2.6.1-1.3 1.3-2.2 2.5-2.1l11.5 1.2c1.3.1 2.2-.9 2.4-2.1l.5-4.7c.1-1.3 1.3-2.2 2.6-2 1.3.1 2.2 1.3 2.1 2.5l-.5 4.7c-.5 3.8-3.9 6.7-7.6 6.3z"/><path fill="#5B5C5E" d="M388.8 114.3l-11.5-1.2c-3.8-.4-6.2-4-5.8-7.8l.5-4.7c.1-1.3 1-2.2 2.3-2.1 1.3.1 2 1.2 1.8 2.5l-.5 4.7c-.1 1.3.9 2.5 2.2 2.6l11.5 1.2c1.3.1 2.2 1.3 2 2.6-.1 1.3-1.2 2.3-2.5 2.2z"/><path fill="#5B5C5E" d="M366.5 141.4c-1.3-.1-2.2-1.3-2.1-2.5l1.6-15.1c.4-3.8 4-6.7 7.8-6.3l12.1 1.3c1.3.1 2.2-.6 2.3-1.8l.8-7.3c.4-3.8 3.9-6.2 7.7-5.8l8.2.9c1.3.1 2.2 1 2.1 2.3-.1 1.3-1.2 2-2.5 1.8l-8.2-.9c-1.3-.1-2.4 1-2.6 2.2l-.8 7.3c-.4 3.8-3.8 6.4-7.6 6l-12.1-1.3c-1.3-.1-2.4.9-2.5 2.1l-1.6 15.1c-.2 1.2-1.4 2.1-2.6 2z"/><path fill="#5B5C5E" d="M392.9 135l-6.9-.7c-3.8-.4-6.4-3.7-6-7.5l.5-4.7c.1-1.3 1.3-2.2 2.6-2 1.3.1 2.2 1.3 2.1 2.5l-.5 4.7c-.1 1.3.5 2.2 1.8 2.3l6.9.7c1.3.1 2.4-.6 2.5-1.8l.6-5.8c.1-1.3 1.3-2.2 2.6-2 1.3.1 2.2 1.3 2.1 2.5l-.6 5.8c-.4 3.7-4 6.4-7.7 6z"/><path fill="#D1A361" d="M333.6 277.4c-3.4-.4-5.9-3.4-5.5-6.8l4.5-41.2c.4-3.4 3.5-5.8 6.8-5.5 3.4.4 5.9 3.4 5.5 6.8l-4.5 41.2c-.3 3.4-3.4 5.8-6.8 5.5z"/><path opacity=".2" fill="#231F20" d="M359.8 179.5c-3.3-.4-5.7-3.4-5.4-6.7.4-3.3 3.4-5.7 6.7-5.4 3.3.4 5.7 3.4 5.4 6.7-.4 3.4-3.4 5.8-6.7 5.4z"/><path fill="#DA4737" d="M358.2 176.2c-3.3-.4-5.7-3.4-5.4-6.7.4-3.3 3.4-5.7 6.7-5.4 3.3.4 5.7 3.4 5.4 6.7-.4 3.3-3.4 5.7-6.7 5.4z"/><path fill="#fff" d="M353.1 155.6c-1.8-.2-3.2-1.9-3-3.7.2-1.8 1.9-3.2 3.7-3 1.8.2 3.2 1.9 3 3.7-.2 1.8-1.8 3.2-3.7 3z"/><path fill="#231F20" d="M354.3 152.8c.7.5.9 1.5.4 2.2-.5.7-1.5.9-2.2.4-.7-.5-.9-1.5-.4-2.2.5-.8 1.5-.9 2.2-.4z"/><path fill="#fff" d="M369.1 157.3c1.8.2 3.5-1.1 3.7-3 .2-1.8-1.1-3.5-3-3.7-1.8-.2-3.5 1.1-3.7 3-.1 1.9 1.2 3.5 3 3.7z"/><path fill="#231F20" d="M368.6 154.3c-.8.4-1.2 1.3-.8 2.1.4.8 1.3 1.2 2.1.8.8-.4 1.2-1.3.8-2.1-.4-.7-1.3-1.1-2.1-.8z"/><path fill="#D1A361" d="M359.9 304.1c-3.4-.4-5.9-3.4-5.5-6.8l8.7-80.3c.4-3.4 3.5-5.8 6.8-5.5 3.4.4 5.9 3.4 5.5 6.8l-8.7 80.3c-.4 3.4-3.4 5.9-6.8 5.5z"/></g><defs><path id="d" d="M443.2 171.4l-115.9-12.6-37.7-4.1-18.8-2c-4.8-.5-9.5 2.5-10.1 7.3l-5.9 54.8c-.5 4.8 3.4 9.8 8.1 10.3l16.4 1.8c1.6-5.8 6.7-8.9 12.4-8.3 5.7.6 10 4.7 10.3 10.7l19.8 2.1 113.5 12.3c4.8.5 8.6-3.7 9.1-8.4l5.9-54.8c.6-4.7-2.4-8.6-7.1-9.1z"/></defs><clipPath><use xlink:href="#d" overflow="visible"/></clipPath><g fill="#9B51A0"><path d="M450.1 59.3H276.8c-4.8 0-8.8 3.9-8.8 8.7v55.1c0 4.8 4 8.1 8.8 8.1h16.5c1-6 5.7-9.5 11.4-9.5s10.4 3.5 11.4 9.5h134.1c4.8 0 8.9-3.4 8.9-8.1V68c-.1-4.8-4.2-8.7-9-8.7z"/><circle cx="304.8" cy="61.4" r="10.8"/></g><g opacity=".2" fill="#010101"><path d="M450.1 59.3H276.8c-4.8 0-8.8 3.9-8.8 8.7v55.1c0 4.8 4 8.1 8.8 8.1h16.5c1-6 5.7-9.5 11.4-9.5s10.4 3.5 11.4 9.5h134.1c4.8 0 8.9-3.4 8.9-8.1V68c-.1-4.8-4.2-8.7-9-8.7z"/><circle cx="304.8" cy="61.4" r="10.8"/></g><g fill="#9B51A0"><path d="M450.1 52.3H276.8c-4.8 0-8.8 5-8.8 9.8v55.1c0 4.8 4 8.1 8.8 8.1h16.5c1-6 5.7-9.5 11.4-9.5s10.4 3.5 11.4 9.5h134.1c4.8 0 8.9-3.3 8.9-8.1V62.1c-.1-4.8-4.2-9.8-9-9.8z"/><circle cx="304.7" cy="53.7" r="10.8"/></g><defs><path id="e" d="M450.1 52.3H276.8c-4.8 0-8.8 5-8.8 9.8v55.1c0 4.8 4 8.1 8.8 8.1h16.5c1-6 5.7-9.5 11.4-9.5s10.4 3.5 11.4 9.5h134.1c4.8 0 8.9-3.3 8.9-8.1V62.1c-.1-4.8-4.2-9.8-9-9.8z"/></defs><clipPath id="f"><use xlink:href="#e" overflow="visible"/></clipPath><g clip-path="url(#f)"><ellipse opacity=".2" fill="#231F20" cx="364.8" cy="271.9" rx="51.2" ry="4.8"/><path fill="#D1A361" d="M385 273.6c-3.4 0-6-2.8-6-6.2v-80.8c0-3.4 2.6-6.2 6-6.2s6 2.8 6 6.2v80.8c0 3.5-2.6 6.2-6 6.2z"/><path opacity=".2" fill="#231F20" d="M385 273.6c-3.4 0-6-2.8-6-6.2v-80.8c0-3.4 2.6-6.2 6-6.2s6 2.8 6 6.2v80.8c0 3.5-2.6 6.2-6 6.2z"/><path opacity=".2" fill="#231F20" d="M385 273.6c-3.4 0-6-2.8-6-6.2v-80.8c0-3.4 2.6-6.2 6-6.2s6 2.8 6 6.2v80.8c0 3.5-2.6 6.2-6 6.2z"/><path fill="#D1A361" d="M382 273.6c-3.4 0-6-2.8-6-6.2v-80.8c0-3.4 2.6-6.2 6-6.2s6 2.8 6 6.2v80.8c0 3.5-2.6 6.2-6 6.2z"/><path fill="#D1A361" d="M349.5 273.6c-3.4 0-6.5-2.8-6.5-6.2v-80.8c0-3.4 3.1-6.2 6.5-6.2s6.5 2.8 6.5 6.2v80.8c0 3.5-3.1 6.2-6.5 6.2z"/><path opacity=".2" fill="#231F20" d="M349.5 273.6c-3.4 0-6.5-2.8-6.5-6.2v-80.8c0-3.4 3.1-6.2 6.5-6.2s6.5 2.8 6.5 6.2v80.8c0 3.5-3.1 6.2-6.5 6.2z"/><path opacity=".2" fill="#231F20" d="M349.5 273.6c-3.4 0-6.5-2.8-6.5-6.2v-80.8c0-3.4 3.1-6.2 6.5-6.2s6.5 2.8 6.5 6.2v80.8c0 3.5-3.1 6.2-6.5 6.2z"/><circle fill="#D1A361" cx="366" cy="190.2" r="33.3"/><path fill="#231F20" d="M387.4 164.7c3.6 5.3 5.7 11.8 5.7 18.7 0 17.5-10.9 31.2-28 32.6-.9.1-8.5-18.8-9.4-18.8-2.5 0-.9 19.3-3.2 18.7-5.2-1.2-10-3.6-14-7 6 8.8 16.1 14.6 27.5 14.6 18.4 0 33.3-14.9 33.3-33.3 0-10.2-4.6-19.4-11.9-25.5z" opacity=".2"/><path fill="#D1A361" d="M351 180.3v-59.9c0-8.6 7.4-15.5 16-15.5s16 7 16 15.5v66.9"/><path fill="#fff" d="M366.7 150.6c-4 0-7.6-2-9.7-5.1-.6 1.3-1 2.7-1 4.2v24.1c0 5.7 5.3 10.4 11 10.4s11-4.6 11-10.4v-24.1c0-1.4-.8-2.7-1.3-3.9-2.2 2.9-6.1 4.8-10 4.8z"/><path fill="#231F20" d="M367.1 104.8c-.5 0-1 0-1.5.1-7.3 2.3-12.7 9.1-12.7 17.1v7.1c0 33.3 19 41.2 30 25.8v-34.6c.1-8.5-7.2-15.5-15.8-15.5z" opacity=".2"/><path fill="#D1A361" d="M383 126.3v-5.9c0-8.6-7.4-15.5-16-15.5s-16 7-16 15.5v6.2c0 39.4 32 37.7 32-.3z"/><path fill="#D1A361" d="M352.4 118.1l-9-12.2s-5.2 31.6 12.2 27.7l-3.2-15.5z"/><path fill="#D1A361" d="M380 118.1l9-12.2s5.2 31.6-12.2 27.7l3.2-15.5z"/><path fill="#5B5C5E" d="M361.5 111.1c-1.3 0-2.5-1-2.5-2.3V93.6c0-1.3-1.5-3.4-2.8-3.4H344c-3.8 0-7-2-7-5.8v-7.3c0-1.3-.9-2.9-2.1-2.9h-8.2c-1.3 0-2.3-1.2-2.3-2.5s1-2.5 2.3-2.5h8.2c3.8 0 7.1 4.1 7.1 7.9v7.3c0 1.3.8.8 2 .8h12.1c3.8 0 7.8 4.6 7.8 8.4v15.2c.1 1.3-1.1 2.3-2.4 2.3z"/><path fill="#5B5C5E" d="M342.3 101.3h-6.9c-3.8 0-6.3-2.4-6.3-6.2v-5.8c0-1.3.7-2.3 2-2.3s2 1 2 2.3v5.8c0 1.3 1.1 1.2 2.3 1.2h6.9c1.3 0 3.7.1 3.7-1.2v-4.7c0-1.3.7-2.3 2-2.3s2 1 2 2.3v4.7c0 3.8-3.9 6.2-7.7 6.2z"/><path fill="#5B5C5E" d="M351.4 81.3h-11.5c-1.3 0-2.3-1.2-2.3-2.5s1-2.5 2.3-2.5h11.5c1.3 0 2.6-.3 2.6-1.6V70c0-1.3 1.2-2.3 2.5-2.3s2.5 1 2.5 2.3v4.7c0 3.8-3.8 6.6-7.6 6.6z"/><path fill="#5B5C5E" d="M390 81.3h-11.5c-3.8 0-6.5-2.8-6.5-6.6V70c0-1.3.7-2.3 2-2.3s2 1 2 2.3v4.7c0 1.3 1.2 1.6 2.5 1.6H390c1.3 0 2.3 1.2 2.3 2.5 0 1.2-1.1 2.5-2.3 2.5z"/><path fill="#5B5C5E" d="M371.5 111.1c-1.3 0-2.5-1-2.5-2.3V93.6c0-3.8 2.5-8.4 6.3-8.4h12.1c1.3 0 3.5.5 3.5-.8v-7.3c0-3.8 1.9-7.9 5.7-7.9h8.2c1.3 0 2.3 1.2 2.3 2.5s-1 2.5-2.3 2.5h-8.2c-1.3 0-1.7 1.6-1.7 2.9v7.3c0 3.8-3.7 5.8-7.5 5.8h-12.1c-1.3 0-1.3 2.1-1.3 3.4v15.2c0 1.3-1.2 2.3-2.5 2.3z"/><path fill="#5B5C5E" d="M396.2 101.3h-6.9c-3.8 0-6.3-2.4-6.3-6.2v-4.7c0-1.3 1.2-2.3 2.5-2.3s2.5 1 2.5 2.3v4.7c0 1.3 0 1.2 1.3 1.2h6.9c1.3 0 2.8.1 2.8-1.2v-5.8c0-1.3 1.2-2.3 2.5-2.3s2.5 1 2.5 2.3v5.8c0 3.8-4 6.2-7.8 6.2z"/><path fill="#D1A361" d="M353.5 249.9c-3.4 0-6.5-2.8-6.5-6.2v-41.5c0-3.4 3.1-6.2 6.5-6.2s6.5 2.8 6.5 6.2v41.5c0 3.4-3.1 6.2-6.5 6.2z"/><path opacity=".2" fill="#231F20" d="M368.1 149.8c-3.4 0-6.1-2.7-6.1-6.1 0-3.4 2.7-6.1 6.1-6.1 3.4 0 6.1 2.7 6.1 6.1 0 3.4-2.7 6.1-6.1 6.1z"/><path fill="#DA4737" d="M366.2 146.6c-3.4 0-6.1-2.7-6.1-6.1 0-3.4 2.7-6.1 6.1-6.1 3.4 0 6.1 2.7 6.1 6.1-.1 3.4-2.8 6.1-6.1 6.1z"/><path fill="#fff" d="M358.9 126.7c-1.9 0-3.4-1.5-3.3-3.4 0-1.9 1.5-3.4 3.4-3.4s3.4 1.5 3.4 3.4c-.1 1.9-1.6 3.4-3.5 3.4z"/><path fill="#231F20" d="M359.8 123.8c.8.4 1 1.4.6 2.2-.4.8-1.4 1-2.2.6-.8-.4-1-1.4-.6-2.2.5-.7 1.4-1 2.2-.6z"/><path fill="#fff" d="M375 126.7c1.9 0 3.4-1.5 3.3-3.4 0-1.9-1.5-3.4-3.4-3.4s-3.4 1.5-3.4 3.4c.2 1.9 1.7 3.4 3.5 3.4z"/><path fill="#231F20" d="M374.1 123.8c-.8.4-1 1.4-.6 2.2.4.8 1.4 1 2.2.6.8-.4 1-1.4.6-2.2-.4-.7-1.4-1-2.2-.6z"/><path fill="#D1A361" d="M382 273.6c-3.4 0-6-2.8-6-6.2v-80.8c0-3.4 2.6-6.2 6-6.2s6 2.8 6 6.2v80.8c0 3.5-2.6 6.2-6 6.2z"/></g><path opacity=".2" fill="#010101" d="M181.8 226.3H47.2c-.2-5-4.9-10.3-10.7-10.3s-10.5 5.3-10.7 10.3H8.5c-4.8 0-8.5 5.3-8.5 10.1v61c0 4.8 3.7 8.8 8.5 8.8H25c1-6 5.7-9.5 11.4-9.5s10.4 3.5 11.4 9.5h134.1c4.8 0 9.2-4 9.2-8.8v-61c-.1-4.8-4.5-10.1-9.3-10.1z"/><path opacity=".2" fill="#010101" d="M181.8 52.3H47.2C47 47.3 42.3 42 36.5 42S26 47.3 25.8 52.3H8.5C3.7 52.3 0 57.6 0 62.4v61c0 4.8 3.7 8.8 8.5 8.8H25c1-6 5.7-9.5 11.4-9.5s10.4 3.5 11.4 9.5h134.1c4.8 0 9.2-4 9.2-8.8v-61c-.1-4.8-4.5-10.1-9.3-10.1z"/><g fill="#9B51A0"><path d="M181.8 147.3H8.5c-4.8 0-8.5 5.2-8.5 10v55.1c0 4.8 3.7 8.8 8.5 8.8H25c1-6 5.7-9.5 11.4-9.5s10.4 3.5 11.4 9.5h134.1c4.8 0 9.2-4 9.2-8.8v-55.1c-.1-4.8-4.5-10-9.3-10z"/><circle cx="36.5" cy="150.7" r="10.8"/></g><g opacity=".2" fill="#010101"><path d="M181.8 147.3H8.5c-4.8 0-8.5 5.2-8.5 10v55.1c0 4.8 3.7 8.8 8.5 8.8H25c1-6 5.7-9.5 11.4-9.5s10.4 3.5 11.4 9.5h134.1c4.8 0 9.2-4 9.2-8.8v-55.1c-.1-4.8-4.5-10-9.3-10z"/><circle cx="36.5" cy="150.7" r="10.8"/></g><g fill="#9B51A0"><path d="M181.8 141.3H8.5c-4.8 0-8.5 5.3-8.5 10.1v55.1c0 4.8 3.7 8.8 8.5 8.8H25c1-6 5.7-9.5 11.4-9.5s10.4 3.5 11.4 9.5h134.1c4.8 0 9.2-4 9.2-8.8v-55.1c-.1-4.8-4.5-10.1-9.3-10.1z"/><circle cx="36.4" cy="143" r="10.8"/></g><defs><path id="g" d="M181.8 141.3H8.5c-4.8 0-8.5 5.3-8.5 10.1v55.1c0 4.8 3.7 8.8 8.5 8.8H25c1-6 5.7-9.5 11.4-9.5s10.4 3.5 11.4 9.5h134.1c4.8 0 9.2-4 9.2-8.8v-55.1c-.1-4.8-4.5-10.1-9.3-10.1z"/></defs><clipPath id="h"><use xlink:href="#g" overflow="visible"/></clipPath><g clip-path="url(#h)"><ellipse opacity=".2" fill="#231F20" cx="96.5" cy="204.2" rx="51.2" ry="4.8"/><path fill="#D1A361" d="M117 206c-3.4 0-6-2.8-6-6.2V119c0-3.4 2.6-6.2 6-6.2s6 2.8 6 6.2v80.8c0 3.4-2.6 6.2-6 6.2z"/><path opacity=".2" fill="#231F20" d="M117 206c-3.4 0-6-2.8-6-6.2V119c0-3.4 2.6-6.2 6-6.2s6 2.8 6 6.2v80.8c0 3.4-2.6 6.2-6 6.2z"/><path opacity=".2" fill="#231F20" d="M117 206c-3.4 0-6-2.8-6-6.2V119c0-3.4 2.6-6.2 6-6.2s6 2.8 6 6.2v80.8c0 3.4-2.6 6.2-6 6.2z"/><path fill="#D1A361" d="M113.5 206c-3.4 0-6.5-2.8-6.5-6.2V119c0-3.4 3.1-6.2 6.5-6.2s6.5 2.8 6.5 6.2v80.8c0 3.4-3.1 6.2-6.5 6.2z"/><path fill="#D1A361" d="M81 206c-3.4 0-6-2.8-6-6.2V119c0-3.4 2.6-6.2 6-6.2s6 2.8 6 6.2v80.8c0 3.4-2.6 6.2-6 6.2z"/><path opacity=".2" fill="#231F20" d="M81 206c-3.4 0-6-2.8-6-6.2V119c0-3.4 2.6-6.2 6-6.2s6 2.8 6 6.2v80.8c0 3.4-2.6 6.2-6 6.2z"/><path opacity=".2" fill="#231F20" d="M81 206c-3.4 0-6-2.8-6-6.2V119c0-3.4 2.6-6.2 6-6.2s6 2.8 6 6.2v80.8c0 3.4-2.6 6.2-6 6.2z"/><circle fill="#D1A361" cx="97.7" cy="122.6" r="33.3"/><path fill="#231F20" d="M119.1 97.1c3.6 5.3 5.7 11.8 5.7 18.7 0 17.5-10.9 31.2-28 32.6-.9.1-8.5-18.8-9.4-18.8-2.5 0-.9 19.3-3.2 18.7-5.2-1.2-10-3.6-14-7 6 8.8 16.1 14.6 27.5 14.6 18.4 0 33.3-14.9 33.3-33.3 0-10.3-4.6-19.4-11.9-25.5z" opacity=".2"/><path fill="#D1A361" d="M83 112.3V52.7c0-8.6 7.4-15.5 16-15.5s16 7 16 15.5v66.5"/><path fill="#fff" d="M98.4 83c-4 0-7.4-2-9.6-5.1-.6 1.3-.8 2.7-.8 4.2v24.1c0 5.7 4.8 10.4 10.5 10.4S109 112 109 106.2V82.1c0-1.4-.5-2.7-1-3.9-2.1 2.9-5.8 4.8-9.6 4.8z"/><path fill="#231F20" d="M99 37.2c-.5 0-.9 0-1.4.1-7.3 2.2-12.6 9-12.6 17.1v7.1c0 33.3 19 41.2 30 25.8V52.7c0-8.6-7.4-15.5-16-15.5z" opacity=".2"/><path fill="#D1A361" d="M115 58.7v-5.9c0-8.6-7.4-15.5-16-15.5s-16 7-16 15.5V59c0 39.4 32 37.7 32-.3z"/><path fill="#D1A361" d="M84.1 50.5l-9-12.2S69.9 69.9 87.3 66l-3.2-15.5z"/><path fill="#D1A361" d="M111.7 50.5l9-12.2s5.2 31.6-12.2 27.7l3.2-15.5z"/><path fill="#5B5C5E" d="M93 43.5c-1.3 0-2-1-2-2.3V26c0-1.3-1.8-3.8-3.1-3.8H75.7c-3.8 0-6.7-1.6-6.7-5.4V9.5c0-1.3-1.2-3.3-2.4-3.3h-8.2C57.1 6.3 56 5 56 3.8c0-1.3 1-2.5 2.3-2.5h8.2c3.8 0 7.4 4.5 7.4 8.3v7.3c0 1.3.5 1.4 1.7 1.4h12.1c3.8 0 7.1 4 7.1 7.8v15.2c.2 1.2-.5 2.2-1.8 2.2z"/><path fill="#5B5C5E" d="M74 33.3h-7c-3.8 0-6-2-6-5.8v-5.8c0-1.3.7-2.3 2-2.3s2 1 2 2.3v5.8c0 1.3.8.8 2 .8h7c1.3 0 3 .5 3-.8v-4.7c0-1.3 1.2-2.3 2.5-2.3s2.5 1 2.5 2.3v4.7c0 3.8-4.2 5.8-8 5.8z"/><path fill="#5B5C5E" d="M83.1 13.3H71.5c-1.3 0-2.3-1.2-2.3-2.5s1-2.5 2.3-2.5H83c1.3 0 3 0 3-1.3V2.3C86 1 87.2 0 88.5 0S91 1 91 2.3V7c0 3.8-4.1 6.3-7.9 6.3z"/><path fill="#5B5C5E" d="M121.7 13.3h-11.5c-3.8 0-6.2-2.4-6.2-6.2V2.3c0-1.3.7-2.3 2-2.3s2 1 2 2.3V7c0 1.3.9 1.2 2.2 1.2h11.5c1.3 0 2.3 1.2 2.3 2.5s-1.1 2.6-2.3 2.6z"/><path fill="#5B5C5E" d="M103.5 43.5c-1.3 0-2.5-1-2.5-2.3V26c0-3.8 2.2-7.8 6-7.8h12.1c1.3 0 2.8-.2 2.8-1.4V9.5c0-3.8 2.6-8.3 6.4-8.3h8.2c1.3 0 2.3 1.2 2.3 2.5s-1 2.5-2.3 2.5h-8.2c-1.3 0-1.4 2-1.4 3.3v7.3c0 3.8-4 5.4-7.8 5.4H107c-1.3 0-1 2.5-1 3.8v15.2c0 1.3-1.2 2.3-2.5 2.3z"/><path fill="#5B5C5E" d="M127.9 33.3H121c-3.8 0-6-2-6-5.8v-4.7c0-1.3 1.2-2.3 2.5-2.3s2.5 1 2.5 2.3v4.7c0 1.3-.3.8 1 .8h6.9c1.3 0 3.1.5 3.1-.8v-5.8c0-1.3 1.2-2.3 2.5-2.3s2.5 1 2.5 2.3v5.8c0 3.8-4.3 5.8-8.1 5.8z"/><path fill="#D1A361" d="M85 182.3c-3.4 0-6-2.8-6-6.2v-41.5c0-3.4 2.6-6.2 6-6.2s6 2.8 6 6.2v41.5c0 3.4-2.6 6.2-6 6.2z"/><path opacity=".2" fill="#231F20" d="M99.8 82.2c-3.4 0-6.1-2.7-6.1-6.1 0-3.4 2.7-6.1 6.1-6.1 3.4 0 6.1 2.7 6.1 6.1 0 3.3-2.7 6.1-6.1 6.1z"/><path fill="#DA4737" d="M97.8 79c-3.4 0-6.1-2.7-6.1-6.1 0-3.4 2.7-6.1 6.1-6.1 3.4 0 6.1 2.7 6.1 6.1 0 3.4-2.7 6.1-6.1 6.1z"/><path fill="#fff" d="M90.6 59.1c-1.9 0-3.4-1.5-3.3-3.4 0-1.9 1.5-3.4 3.4-3.4s3.4 1.5 3.4 3.4c-.1 1.9-1.6 3.4-3.5 3.4z"/><path fill="#231F20" d="M91.5 56.2c.8.4 1 1.4.6 2.2-.4.8-1.4 1-2.2.6-.8-.4-1-1.4-.6-2.2.5-.8 1.4-1.1 2.2-.6z"/><path fill="#fff" d="M106.7 59.1c1.9 0 3.4-1.5 3.3-3.4 0-1.9-1.5-3.4-3.4-3.4s-3.4 1.5-3.4 3.4c.2 1.9 1.7 3.4 3.5 3.4z"/><path fill="#231F20" d="M105.8 56.2c-.8.4-1 1.4-.6 2.2.4.8 1.4 1 2.2.6.8-.4 1-1.4.6-2.2-.4-.8-1.4-1.1-2.2-.6z"/><path fill="#D1A361" d="M113.5 206c-3.4 0-6.5-2.8-6.5-6.2V119c0-3.4 3.1-6.2 6.5-6.2s6.5 2.8 6.5 6.2v80.8c0 3.4-3.1 6.2-6.5 6.2z"/></g><circle opacity=".4" fill="#fff" cx="283.3" cy="203.2" r="26.8"/><circle opacity=".4" fill="#fff" cx="283.5" cy="203.3" r="12.1"/><path opacity=".2" stroke="#fff" stroke-width="21.258" stroke-linecap="round" stroke-miterlimit="10" d="M134.7 258.3s87 29.7 148.5-55.2" fill="none"/></g></svg>