<svg id="Layer_1" xmlns="http://www.w3.org/2000/svg" xmlns:xlink="http://www.w3.org/1999/xlink" width="397" height="371.2" viewBox="-601 265.8 397 371.2"><style>.st0{clip-path:url(#SVGID_2_)}.st1{fill:#34439c}.st2{opacity:.2;fill:#332e2e;enable-background:new}.st3{fill:#223393}.st4{fill:#0e2185}.st5,.st6{opacity:.77;enable-background:new}.st6{opacity:6e-2;fill:#332e2e}.st7{opacity:.15;clip-path:url(#SVGID_4_)}.st8{fill:#434343}.st9{clip-path:url(#SVGID_6_)}.st10{clip-path:url(#SVGID_8_)}.st11{clip-path:url(#SVGID_10_)}.st12{opacity:.15;fill:#332e2e;enable-background:new}.st13{clip-path:url(#SVGID_12_)}.st14{fill:#ffe18c}.st15{fill:#009047}.st16{fill:#00a551}.st17{fill:#fff}.st18{fill:#fd9a0c}.st19{fill:#332e2e}.st20{fill:#fdd500}.st21{fill:#8d00a3}.st22{fill:#b231cc}.st23{opacity:.4;clip-path:url(#SVGID_14_);fill:url(#SVGID_15_);enable-background:new}.st24{display:none;clip-path:url(#SVGID_2_)}</style><defs><circle id="SVGID_1_" cx="-384.4" cy="446.2" r="180.4"/></defs><clipPath id="SVGID_2_"><use xlink:href="#SVGID_1_" overflow="visible"/></clipPath><g id="Layer_1_3_" class="st0"><path class="st1" d="M-733.5 230.5h640.8v268.8h-640.8z"/><path class="st2" d="M-555.5 314.5l91.7-14 16.7 113.3-92.7 12.8z"/><path transform="rotate(171.993 -503.469 362.193)" class="st3" d="M-550.3 305.6h93.6v113.2h-93.6z"/><path class="st1" d="M-500.4 329.2l13.7.1-10.4 5.8z"/><path class="st4" d="M-490.1 400.6c2.5-3.3 1.8-7.9-1.5-10.3-3.3-2.5-7.9-1.8-10.4 1.4l11.9 8.9z"/><path class="st4" d="M-480.8 387.9c-5.9-42-18-67.4-28.3-65.9-10.3 1.4-14.9 29.2-9 71.2l37.3-5.3z"/><path class="st4" d="M-515.3 360l-24.4-8s1.2 16.4 23.7 18.3c22.5 2 .7-10.3.7-10.3zm22.7-3.1l21.2-14.4s3.4 16.1-17.7 24.1c-21.1 8-3.5-9.7-3.5-9.7z"/><path class="st1" d="M-508.3 391.7c-2.2-27.3 4.7-44.9 15.8-51.3 4.7 11.4 8.9 27.5 11.7 47.5l-27.5 3.8z"/><g class="st5"><path class="st1" d="M-510.3 334.3c-.4 0-.8-.3-.9-.7-.1-1 .1-2.1.8-2.9.6-.8 1.6-1.4 2.6-1.5s2.1.1 2.9.8c.8.6 1.4 1.6 1.5 2.6.1.5-.3.9-.7 1-.5.1-.9-.3-1-.7-.1-.6-.4-1.1-.9-1.5-.4-.6-1-.7-1.6-.6s-1.1.4-1.5.9-.5 1.1-.4 1.6-.3.9-.8 1z"/></g><path class="st4" d="M-496.3 402.2c2.5-3.3 1.8-7.9-1.5-10.3-3.3-2.5-7.9-1.8-10.4 1.4l11.9 8.9z"/><path class="st1" d="M-482.7 376.3l-36.9 5.2-4.7 14c2.3 1.7 5.4 1.2 7.1-1 1.7-2.3 4.9-2.7 7.1-1 2.2 1.7 5.4 1.2 7.1-1 1.7-2.3 4.9-2.7 7.1-1 2.3 1.7 5.4 1.2 7.1-1 1.7-2.3 4.9-2.7 7.1-1 2.2 1.7 5.4 1.2 7.1-1l-8.1-12.2z"/><path class="st6" d="M-733.5 411.1V230.5h318.1z"/><path class="st1" d="M-392.8 230.5h217.2v159.7h-217.2z"/><path class="st3" d="M-733.5 498.3h640.8v131.6h-640.8z"/><g id="New_Symbol_1_"><defs><path id="SVGID_3_" d="M-733.5 499.3h640.8v131.6h-640.8z"/></defs><clipPath id="SVGID_4_"><use xlink:href="#SVGID_3_" overflow="visible"/></clipPath><g class="st7"><path class="st8" d="M-679.2 631.3c-.1 0-.2 0-.3-.1-.1-.2-.1-.4 0-.6l144-131.6c.2-.1.4-.1.6 0 .1.2.1.4 0 .6l-144 131.6c-.1.1-.2.1-.3.1zm-33.2 0c-.1 0-.2-.1-.3-.1-.1-.2-.1-.4.1-.6L-550.7 499c.2-.1.4-.1.6.1.1.2.1.4-.1.6l-161.9 131.6h-.3zm66.5 0c-.1 0-.2 0-.3-.1-.2-.2-.2-.4 0-.6l126-131.6c.2-.2.4-.2.6 0 .2.2.2.4 0 .6l-126 131.6c-.1.1-.2.1-.3.1zm33.2 0c-.1 0-.2 0-.3-.1-.2-.1-.2-.4-.1-.6L-505 499c.1-.2.4-.2.6-.1.2.1.2.4.1.6l-108 131.6c-.1.2-.2.2-.4.2zm33.3 0c-.1 0-.2 0-.2-.1-.2-.1-.2-.4-.1-.6l90-131.6c.1-.2.4-.2.6-.1.2.1.2.4.1.6l-90 131.6c-.1.2-.3.2-.4.2zm33.3 0h-.2c-.2-.1-.3-.3-.2-.5l72-131.6c.1-.2.4-.3.5-.2.2.1.3.3.2.5l-72 131.6c-.1.2-.2.2-.3.2zm33.2 0h-.2c-.2-.1-.3-.3-.2-.5l54-131.6c.1-.2.3-.3.5-.2.2.1.3.3.2.5l-54 131.6c0 .1-.1.2-.3.2zm33.3 0h-.1c-.2-.1-.3-.3-.3-.5l36-131.6c.1-.2.3-.3.5-.3.2.1.3.3.3.5l-36 131.6c-.1.2-.3.3-.4.3zm33.2 0c-.3 0-.4-.2-.4-.5l18-131.6c0-.2.2-.4.5-.3.2 0 .4.2.3.5L-446 631c0 .2-.2.3-.4.3zm33.3 0c-.2 0-.4-.2-.4-.4V499.3c0-.2.2-.4.4-.4s.4.2.4.4v131.6c0 .2-.2.4-.4.4zm33.2 0c-.2 0-.4-.1-.4-.3l-18-131.6c0-.2.1-.4.3-.5.2 0 .4.1.5.3l18 131.6c0 .3-.1.5-.4.5zm33.3 0c-.2 0-.3-.1-.4-.3l-36-131.6c-.1-.2.1-.4.3-.5.2-.1.4.1.5.3l36 131.6c.1.2-.1.4-.3.5h-.1zm33.2 0c-.2 0-.3-.1-.4-.2l-54-131.6c-.1-.2 0-.4.2-.5.2-.1.4 0 .5.2l54.1 131.6c.1.2 0 .4-.2.5h-.2zm33.3 0c-.1 0-.3-.1-.4-.2l-72-131.6c-.1-.2 0-.4.2-.5.2-.1.4 0 .5.2l72 131.6c.1.2 0 .4-.2.5h-.1zm33.2 0c-.1 0-.3-.1-.3-.2l-90-131.6c-.1-.2-.1-.4.1-.6.2-.1.4-.1.6.1l90 131.6c.1.2.1.4-.1.6-.1.1-.2.1-.3.1zm33.3 0c-.1 0-.2 0-.3-.1l-108-131.6c-.1-.2-.1-.4.1-.6s.4-.1.6.1l108 131.6c.1.2.1.4-.1.6h-.3zm33.2 0c-.1 0-.2 0-.3-.1l-126-131.6c-.2-.2-.1-.4 0-.6s.4-.1.6 0l126 131.6c.2.2.1.4 0 .6-.1.1-.2.1-.3.1zm33.3 0c-.1 0-.2 0-.3-.1l-144-131.6c-.2-.1-.2-.4 0-.6.1-.2.4-.2.6 0l144 131.6c.2.1.2.4 0 .6-.1.1-.2.1-.3.1zm33.2 0c-.1 0-.2 0-.3-.1l-161.9-131.6c-.2-.1-.2-.4-.1-.6s.4-.2.6-.1l161.9 131.6c.2.1.2.4.1.6 0 .2-.2.2-.3.2z"/><path class="st8" d="M-266.2 507.5h-16.3c-.2 0-.4-.2-.4-.4s.2-.4.4-.4h16.3c.2 0 .4.2.4.4s-.2.4-.4.4zm-32.6 0h-16.3c-.2 0-.4-.2-.4-.4s.2-.4.4-.4h16.3c.2 0 .4.2.4.4s-.2.4-.4.4zm-32.7 0h-16.3c-.2 0-.4-.2-.4-.4s.2-.4.4-.4h16.3c.2 0 .4.2.4.4s-.2.4-.4.4zm-32.7 0h-16.3c-.2 0-.4-.2-.4-.4s.2-.4.4-.4h16.3c.2 0 .4.2.4.4s-.1.4-.4.4zm-32.6 0h-16.3c-.2 0-.4-.2-.4-.4s.2-.4.4-.4h16.3c.2 0 .4.2.4.4s-.2.4-.4.4zm-32.7 0h-16.3c-.2 0-.4-.2-.4-.4s.2-.4.4-.4h16.3c.2 0 .4.2.4.4s-.2.4-.4.4zm-32.6 0h-16.3c-.2 0-.4-.2-.4-.4s.2-.4.4-.4h16.3c.2 0 .4.2.4.4s-.2.4-.4.4zm-32.7 0h-16.3c-.2 0-.4-.2-.4-.4s.2-.4.4-.4h16.3c.2 0 .4.2.4.4s-.2.4-.4.4zm-32.7 0h-16.3c-.2 0-.4-.2-.4-.4s.2-.4.4-.4h16.3c.2 0 .4.2.4.4s-.2.4-.4.4zm-32.6 0h-17c-.2 0-.4-.2-.4-.4s.2-.4.4-.4h17c.2 0 .4.2.4.4s-.2.4-.4.4zm298.8 103.6h-29.9c-.2 0-.4-.2-.4-.4s.2-.4.4-.4h29.9c.2 0 .4.2.4.4s-.2.4-.4.4zm-60.4 0h-30.4c-.2 0-.4-.2-.4-.4s.2-.4.4-.4h30.4c.2 0 .4.2.4.4s-.2.4-.4.4zm-61 0h-30.5c-.2 0-.4-.2-.4-.4s.2-.4.4-.4h30.5c.2 0 .4.2.4.4s-.1.4-.4.4zm-60.9 0h-30.5c-.2 0-.4-.2-.4-.4s.2-.4.4-.4h30.5c.2 0 .4.2.4.4s-.2.4-.4.4zm-61 0h-30.5c-.2 0-.4-.2-.4-.4s.2-.4.4-.4h30.5c.2 0 .4.2.4.4s-.2.4-.4.4zm222.5-63.3H-304c-.2 0-.4-.2-.4-.4s.2-.4.4-.4h21.8c.2 0 .4.2.4.4s-.1.4-.3.4zm-43.7 0h-21.8c-.2 0-.4-.2-.4-.4s.2-.4.4-.4h21.8c.2 0 .4.2.4.4s-.2.4-.4.4zm-43.7 0h-21.8c-.2 0-.4-.2-.4-.4s.2-.4.4-.4h21.8c.2 0 .4.2.4.4s-.2.4-.4.4zm-43.6 0H-435c-.2 0-.4-.2-.4-.4s.2-.4.4-.4h21.8c.2 0 .4.2.4.4s-.1.4-.3.4zm-43.7 0h-21.8c-.2 0-.4-.2-.4-.4s.2-.4.4-.4h21.8c.2 0 .4.2.4.4s-.2.4-.4.4zm-43.7 0h-21.8c-.2 0-.4-.2-.4-.4s.2-.4.4-.4h21.8c.2 0 .4.2.4.4s-.2.4-.4.4zm-43.6 0h-21.8c-.2 0-.4-.2-.4-.4s.2-.4.4-.4h21.8c.2 0 .4.2.4.4s-.2.4-.4.4z"/></g><path class="st3" d="M-364.7 331.8h1.2v-3.5c0-5.2 4.2-9.4 9.4-9.4 1.6 0 3.1.4 4.2 1.2 1.4-3.4 4.8-5.9 8.7-5.9 5.2 0 9.4 4.2 9.4 9.4v3.4c4.1 1.3 7.1 5.1 7.1 9.6 0 2.2-.7 4.2-1.9 5.9h-44.3c-.6-1-.9-2.2-.9-3.5 0-4 3.2-7.2 7.1-7.2z"/><path class="st3" d="M-325.9 347.4h1v-3c0-4.4 3.6-7.9 7.9-7.9 1.4 0 2.6.4 3.6 1 1.2-2.9 4-4.9 7.4-4.9 4.4 0 7.9 3.6 7.9 7.9v2.9c3.4 1.1 6 4.3 6 8.1 0 1.9-.6 3.6-1.6 5H-331c-.5-.9-.8-1.9-.8-3 0-3.4 2.7-6.1 5.9-6.1z" id="XMLID_23_"/><path class="st3" d="M-247.7 316h1.7v-5.1c0-7.5 6.1-13.6 13.6-13.6 2.4 0 4.4.6 6.1 1.7 2-4.9 6.9-8.4 12.6-8.4 7.5 0 13.6 6.1 13.6 13.6v4.9c5.8 1.7 10.1 7.2 10.1 13.7 0 3.2-1 6.1-2.8 8.5h-63.7c-.9-1.5-1.4-3.2-1.4-5.1 0-5.7 4.6-10.2 10.2-10.2z"/><path class="st2" d="M-388 230.5h4.8v165h-4.8z"/><path class="st2" d="M-393.9 394.2h231.6v10.5h-231.6z"/><path class="st3" d="M-170.8 390.2V230.5h-4.8v71.4h-104.8v-71.4h-2.8v71.4H-388v-71.4h-4.8v159.7h-5v10.5h232.1v-10.5h-5.1zm-112.5 0H-388v-85.4h104.8l-.1 85.4zm107.6 0h-104.7v-85.4h104.8v85.4h-.1z"/><defs><path id="SVGID_5_" d="M-733.5 230.5h640.8v268.8h-640.8z"/></defs><clipPath id="SVGID_6_"><use xlink:href="#SVGID_5_" overflow="visible"/></clipPath><g class="st9"><path class="st2" d="M-258.3 440.2H42.3v9h-300.6z"/><path class="st3" d="M-258.3 435.9H42.3v6.5h-300.6z"/><path class="st2" d="M-258.3 440.3H42.3v2.1h-300.6z"/></g><g id="Dance_Studio_2_"><defs><path id="SVGID_7_" d="M-733.5 230.5h640.8v268.8h-640.8z"/></defs><clipPath id="SVGID_8_"><use xlink:href="#SVGID_7_" overflow="visible"/></clipPath><g class="st10"><path class="st2" d="M-868.6 440.2H-568v9h-300.6z"/><path class="st3" d="M-868.6 435.9H-568v6.5h-300.6z"/><path class="st2" d="M-868.6 440.3H-568v2.1h-300.6z"/></g><defs><path id="SVGID_9_" d="M-733.5 230.5h640.8v268.8h-640.8z"/></defs><clipPath id="SVGID_10_"><use xlink:href="#SVGID_9_" overflow="visible"/></clipPath><g class="st11"><circle class="st3" cx="-245.3" cy="442.4" r="2.6"/><circle class="st3" cx="-214.8" cy="442.4" r="2.6"/><circle class="st3" cx="-581" cy="442.4" r="2.6"/><circle class="st3" cx="-275.8" cy="442.4" r="2.6"/><circle class="st3" cx="-550.5" cy="442.4" r="2.6"/><circle class="st3" cx="-519.9" cy="442.4" r="2.6"/><circle class="st3" cx="-489.4" cy="442.4" r="2.6"/><circle class="st3" cx="-458.9" cy="442.4" r="2.6"/><circle class="st3" cx="-428.4" cy="442.4" r="2.6"/><circle class="st3" cx="-397.9" cy="442.4" r="2.6"/><circle class="st3" cx="-367.4" cy="442.4" r="2.6"/><circle class="st3" cx="-336.9" cy="442.4" r="2.6"/><circle class="st3" cx="-306.3" cy="442.4" r="2.6"/><path class="st2" d="M-568 440.2h309.7v9H-568z"/><path class="st3" d="M-568 435.9h309.7v6.5H-568z"/><path class="st2" d="M-568 440.3h309.7v2.1H-568z"/></g><path class="st12" d="M-92.8 572.1l-640.7-51v109.8h640.7z"/></g><defs><circle id="SVGID_11_" cx="-384.4" cy="446.2" r="180.4"/></defs><clipPath id="SVGID_12_"><use xlink:href="#SVGID_11_" overflow="visible"/></clipPath><g id="Layer_1_1_" class="st13"><g id="New_Symbol_3_"><path class="st14" d="M-436.8 387.1c-.7-.1-1.3 0-1.9.1-4.8-4.3-11.6-6.8-16.9-4.6-7.6 3.1-9.1 14.8-5.9 22.5 3.1 7.6 11.9 11.2 19.5 8.1 6.9-2.8 10.5-10.3 8.7-17.3.2-1 .4-2.1.5-3.5.4-2.7-1.4-5-4-5.3z"/><path class="st15" d="M-342.4 681.9c-5.5 0-10.1-4.3-10.3-9.9-.6-13.3-.3-25 0-37.3.3-12.2.5-24.7 0-39.7-.2-5.7 4.3-10.5 10-10.7 5.7-.2 10.5 4.3 10.7 10 .5 15.6.3 28.4 0 40.9-.3 12-.5 23.3 0 36 .2 5.7-4.2 10.5-9.9 10.7h-.5z"/><path class="st15" d="M-230.8 545.6l-.3-.2s-1.2-.6-3.3-1.8c-1-.6-2.3-1.4-3.8-2.2-1.5-.9-3.2-1.9-5-3.1-1.8-1.2-3.8-2.5-5.9-3.8-2.1-1.4-4.3-2.8-6.5-4.4s-4.6-3.2-6.9-4.9c-2.3-1.7-4.7-3.4-7-5.2-2.3-1.8-4.6-3.6-6.9-5.3-2.2-1.8-4.4-3.6-6.5-5.3-1-.9-2-1.7-3-2.6-1-.9-1.9-1.7-2.8-2.5-1.9-1.6-3.5-3.3-5-4.7-1.5-1.5-2.8-2.9-3.9-4.1-.9-1.1-1.8-2-2.5-2.8-1.5-2.1-2.4-3.4-2.4-3.4l-.1-.1c-2.3-3.2-6.6-4.2-10.1-2.2-.2.1-.3.2-.5.3-6-7.5-14.8-12.9-25.1-14.4-21.5-3.1-41.5 11.8-44.6 33.3l-7.8 53.8c-3.1 21.5 11.8 41.5 33.3 44.6s41.5-11.8 44.6-33.3l7.8-53.8c.2-1.6.3-3.2.4-4.7 1.1 1.3 2.2 2.6 3.4 3.9.9 1 1.8 2 2.8 3s2 2 3 3.1c2 2.1 4.2 4.2 6.3 6.3 2.2 2.1 4.4 4.2 6.7 6.3 2.3 2.1 4.5 4.2 6.8 6.2s4.5 4 6.7 5.8c2.2 1.9 4.4 3.6 6.4 5.3 2.1 1.7 4 3.2 5.9 4.7 1.9 1.4 3.5 2.7 5.1 3.9 1.6 1.1 2.9 2.1 4.1 2.9 2.4 1.6 3.7 2.5 3.7 2.5.3.2.7.4 1 .6 6 3.3 13.5 1.1 16.8-4.9 3.4-6 1.1-13.5-4.9-16.8z"/><path class="st14" d="M-215.9 557.6c-.5-.4-1.1-.8-1.6-1.2.7-.4 1.4-.8 2.3-1.3 2.2-1.3 3-4.2 1.7-6.4s-4.2-3-6.4-1.7c-4.1 2.4-5.3 2.7-6.4 2.9-1.7.4-3.3.8-6.2 2.5-.2.1-.3.2-.5.4-1.2.6-2.3 1.5-3.3 2.8-5.5 7-4 17.1 3.3 22.3 6.5 4.6 17.4 5.4 22.5-.6 5.6-6.9 1.5-14.2-5.4-19.7z"/><path class="st15" d="M-282.7 405.6c.1-1.1-16.7-37.5 16.3-39.4 0 0-69.6-24.9-95 23.1l78.7 16.3"/><path class="st16" d="M-312.9 405.6c.1-1.1-3.7-39.4 46.5-39.4 0 0-69.6-24.9-95 23.1l78.7 16.3"/><path class="st17" d="M-273.1 365.6c-.4 4.6 3.1 8.7 7.8 9.1 4.7.4 8.7-3.1 9.1-7.8.4-4.6-3.1-8.7-7.8-9.1-4.7-.3-8.8 3.1-9.1 7.8z"/><path class="st18" d="M-288.6 462.4c-1.6-2.4-3.4-4.5-5.5-6.2 2.3-3.9 4-8.2 5-12.8 4.9-23.2-9.8-45.9-33-50.9s-45.9 9.8-50.9 33c-1.1 5-1.2 10-.5 14.8-1.9.7-3.8 1.6-5.6 2.8-7.6 4.9-11.9 13-12.3 21.4 7.8 3.1 17 2.5 24.6-2.4 1.4-.9 2.6-1.9 3.8-3 .3-.2.7-.5 1.1-.7 9.9-5.3 22.3-9.1 33.6-5.5 6.2 1.9 11.7 4.6 16.5 8.3.2 4.7 1.6 9.3 4.3 13.5 4.9 7.6 13 11.9 21.4 12.3 3-7.8 2.4-17-2.5-24.6z"/><path class="st14" d="M-277.9 421.8s-2 41.2-22 36.7c-9 11.6-24.1 17.7-39.4 14.5-15.4-3.3-26.7-15.1-30.1-29.4-22.7-2.2-6.8-42.8-6.8-42.8l8.6 19c6-14.9 20.5-24.7 36.5-24.7 2.7 0 5.5.3 8.3.9 18.4 3.9 31 20.1 31.2 38.1l13.7-12.3z"/><path class="st17" d="M-348.3 452.9c2.8 8 10.5 13.7 19.4 13.3 8.9-.4 16.2-6.6 18.2-14.9l-37.6 1.6z"/><path class="st14" d="M-331 446.8l-5.7-1.2.5-8.4 8.2 1.7z"/><path class="st19" d="M-307.1 433.8c-.8 3.8-4.6 6.2-8.3 5.4-3.8-.8-6.2-4.6-5.4-8.3.8-3.8 4.5-6.2 8.3-5.4 3.8.8 6.2 4.5 5.4 8.3zm-31.4-6.7c-.8 3.8-4.6 6.2-8.3 5.4-3.8-.8-6.2-4.6-5.4-8.3.8-3.8 4.5-6.2 8.3-5.4 3.8.8 6.2 4.5 5.4 8.3z"/><path class="st18" d="M-317.6 404.8c-6.6-3.2-22.6-7.7-35.8-4.2l-2.5.1c-13.2 3.5-16.2 13.6-9.5 16.8 6.6 3.2 32.1 7.6 45.3 4.1l8.5-2.5c13.2-3.6.6-11.1-6-14.3z"/><path class="st17" d="M-279.2 407.1l-2 9.4c-.6 2.8-3.4 4.6-6.2 4l-76.6-16.3c-2.8-.6-4.6-3.4-4-6.2l2-9.4c.6-2.8 3.4-4.6 6.2-4l76.5 16.4c2.9.5 4.7 3.2 4.1 6.1"/><path class="st15" d="M-360.8 681.9c-.4 0-.8 0-1.1-.1-5.7-.6-9.7-5.7-9.1-11.4 2.5-22.9 1.7-40.2.6-62.2-.2-4.2-.4-8.6-.6-13.2-.3-5.7 4.2-10.5 9.9-10.8h.5c5.5 0 10.1 4.3 10.3 9.9.2 4.6.4 8.9.6 13.1 1.1 22 2 40.9-.7 65.5-.7 5.3-5.2 9.2-10.4 9.2z"/><path class="st16" d="M-338.1 472.9c-11.4-1.6-22.3 1.8-30.6 8.5-.6-.6-1.4-1.2-2.3-1.6-40.6-20.4-45.9-24.3-63.6-67.7-.2-.8-.7-3.5-2.5-4-2.5-2.3-6.2-3.1-9.5-1.8-3.7 1.5-5.8 5.1-5.6 8.9 0 0 0 .1-.1.1 0 0 0 .1.1.2.1.8.3 1.6.6 2.4 19.8 48.6 27.5 55.2 72 77.6-1.5 3.3-2.6 6.9-3.2 10.7l-7.8 53.8c-3.1 21.5 11.8 41.5 33.3 44.6s25.3-14.1 28.4-35.7l7.8-53.8c3.2-21.5 4.5-39.1-17-42.2z"/><path class="st17" d="M-359.1 580.6s-.1 0 0 0c-.8-.1-1.3-.7-1.3-1.4l.5-7.1c3.1-40.4 6.2-82.2 16.6-95.8.4-.6 1.2-.7 1.8-.2.6.4.7 1.2.2 1.8-9.9 13-13.2 56.3-16.1 94.5l-.5 7.1c0 .5-.5 1.1-1.2 1.1z"/><path class="st15" d="M-300.6 612.8l-112.2-16.2 23.3-35.8 76.7 11.1z"/><path class="st16" d="M-319.2 610.1l-93.6-13.5 23.3-35.8 65.5 9.4z"/><path transform="rotate(8.231 -350.369 557.594)" class="st19" d="M-389.7 547.8h78.7v19.7h-78.7z"/><path transform="rotate(8.231 -356.75 557.659)" class="st20" d="M-367 546.5h20.5v22.3H-367z"/><path class="st21" d="M-428.3 678.7c-.1-.4-.1-.9-.2-1.4-1.1 0-5-43.7-4.8-50.2-.8-5-11.1-7.2-16.4-5.8-5.3 1.4-8.9 6.7-7.9 11.7 5.1 25.7 7.5 39.3 8.5 44.8 0 1.2.3 2.3.8 3.5-.1.5-.2 1.1-.2 1.6 0 4.7 4.9 8.5 10.9 8.5s10.9-3.8 10.9-8.5c-.1-1.5-.7-3-1.6-4.2z"/><path class="st21" d="M-411.7 569.6c-4.5 14.8-10.2 32.3-13.9 47.8-3.7 19.2-17.6 27-36.6 23.8l-1.8-.3c-.6-.1-1.2-.3-1.9-.4-20.7-4.8-31.7-18.5-26-38.5 3.6-15.6 4.5-33.2 8.2-48.3 3.1-11.4 5-20.5 12.3-25.2 6.7-4.4 15.8-5.6 25.7-4.3 2.2.3 4.4.7 6.6 1.2.8.2 1.6.4 2.3.6l.9.3c.2 0 .3.1.5.1.1 0 .2.1.3.1 10.7 3.2 19.4 8.7 23.7 16.3.6 1.1 1.1 2.2 1.6 3.3 2.6 6.8.7 13.9-1.9 23.5z"/><path class="st22" d="M-439.8 616.3c-3.9 18.9-5.4 27.4-22.4 25l-1.8-.3c-.6-.1-1.2-.3-1.9-.4-20.7-4.8-31.7-18.5-26-38.5 3.6-15.6 4.5-33.2 8.2-48.3 3.1-11.4 5-20.5 12.3-25.2 6.7-4.4 15.8-5.6 25.7-4.3 2.2.3 4.4.7 6.6 1.2.8.2 1.6.4 2.3.6l.9.3c.2 0 .3.1.5.1.1 0 .2.1.3.1 12.5 3.8 15.4 11.2 13.3 22.5-.1.6-.2 1.3-.4 1.9-1.2 5.6-4.1 12.6-5.5 19.6-3.1 14.5-8.6 30.2-12.1 45.7z"/><path class="st21" d="M-409.9 546.1c-.9.5-1.7.9-2.6 1.3-3.2 1.5-6.5 2.7-9.7 3.5-3.1.8-6.1 1.2-9.2 1.2-14.2.1-24.8-9.3-31.6-22.5 4.8-3.2 10.7-4.9 17.3-5.4 2.2.3 4.4.7 6.6 1.2.8.2 1.6.4 2.3.6l.9.3c.2 0 .3.1.5.1.1 0 .2.1.3.1 10.7 3.2 19.4 8.7 23.7 16.3.6 1 1.1 2.1 1.5 3.3z"/><path class="st17" d="M-438.7 528.1c-7.5-1.9-30.7 95.6-22.8 97.6l-1.5-.3c-8.7-1.9 13.4-100 21.7-98.1 1.3.3 1.3.6 2.6.8z"/><path class="st19" d="M-426 619.1c-23-1.1-45.3-6.3-66.4-15.5 1.2-6.3 2.1-12.6 2.8-19.1 22.5 10.2 44.7 15.4 69.5 16.2-2.2 6.1-4.1 12.2-5.9 18.4z"/><path class="st20" d="M-456.7 617.5c-5.8-1.1-11.6-2.4-17.3-4 1.6-6.9 3.1-13.9 4.6-20.8 5.9 1.7 11.9 3.1 17.9 4.2-1.9 6.8-3.6 13.7-5.2 20.6z"/><path class="st22" d="M-498 683.3c-5.2 0-9.7-4-10.3-9.3-1.5-15-3.2-26.7-4.5-36.2-1.2-8.2-2-14.1-2.3-18.7-.2-3.7-.7-12.5 6.5-16.7 7.3-4.3 14.7.5 17.9 2.5 3.9 2.5 8.8 6.2 15.5 11.3 2.2 1.7 4.6 3.5 7.3 5.5 4.6 3.4 5.5 9.9 2.1 14.5s-9.9 5.5-14.5 2.1c-2.7-2-5.1-3.8-7.3-5.5-1.9-1.4-3.8-2.9-5.6-4.2.3 2.1.6 4.3.9 6.4 1.3 9.1 3.1 21.6 4.6 37 .6 5.7-3.6 10.8-9.2 11.4-.4-.1-.7-.1-1.1-.1zm26.5-144.6s-1.2.8-3.4 2.3c-1.4.8-3.1 1.7-5 2.8-1.8.8-3.8 1.9-6 2.8-2.2.9-4.5 2-7 2.9-1.3.5-2.5 1-3.9 1.5-1.3.5-2.7.9-4 1.4-2.7 1-5.6 1.9-8.5 2.9-2.9.9-5.8 1.8-8.8 2.7-2.9.8-5.9 1.7-8.8 2.5-2.9.8-5.8 1.5-8.6 2.2s-5.5 1.3-8.1 1.9c-2.6.6-5.1 1.1-7.3 1.6-2.3.4-4.4.9-6.3 1.2-1.9.3-3.6.6-5 .8-2.8.4-4.5.6-4.5.6-6.8.9-13-3.8-13.9-10.6-.9-6.8 3.8-13 10.6-13.9.4-.1.8-.1 1.2-.1h.4s1.4-.1 3.7-.1c1.2-.1 2.7-.2 4.4-.3s3.7-.3 5.8-.5c2.2-.3 4.5-.5 7-.8 2.5-.3 5.1-.7 7.8-1.1s5.5-.8 8.3-1.3c2.8-.5 5.7-1 8.6-1.5 2.9-.5 5.7-1.1 8.5-1.7s5.6-1.2 8.2-1.9c1.3-.3 2.6-.7 3.9-1 1.2-.3 2.5-.7 3.7-1 2.4-.6 4.5-1.4 6.6-2 2-.7 3.7-1.3 5.3-1.9 1.3-.6 2.5-1 3.5-1.4 2.3-1.2 3.6-2 3.6-2h.1c3.7-2 8.4-.6 10.4 3.1 1.9 3.3.7 7.7-2.5 9.9zm-13.6-82.8s59.9-47.5 89.8-59.1c0 0-27.7 41.2-12.6 61.7l-77.2-2.6"/><path class="st21" d="M-431.9 461.5s6.8-53.1 36.7-64.7c0 0-27.7 41.2-12.6 61.7l-24.1 3z"/><path class="st14" d="M-411 514c-6.7 11.8-19.3 19.5-33.5 19.5-1 0-1.9 0-2.9-.1-15.3-1.1-27.9-11.1-33.1-24.5-20.1-1.2-10.6-40.6-10.6-40.6l9.6 15.3c4.9-16 19.8-27.4 36.9-27.4 1 0 1.9 0 2.9.1 19 1.4 33.8 16.4 35.6 34.8l13.3-15.6c0 .1 3.7 42.7-18.2 38.5z"/><path class="st17" d="M-418.8 509.6c-2.7 9.5-11.4 16.6-21.9 16.7-10.4.1-19.3-6.8-22.2-16.2l44.1-.5z"/><path class="st19" d="M-467.1 487.7c-.3 3.8 2.6 7.1 6.4 7.4s7.1-2.6 7.4-6.4c.3-3.8-2.6-7.1-6.4-7.4-3.8-.2-7.1 2.6-7.4 6.4zm31.5 2.3c-.3 3.8 2.6 7.1 6.4 7.4 3.8.3 7.1-2.6 7.4-6.4.3-3.8-2.6-7.1-6.4-7.4-3.8-.2-7.1 2.6-7.4 6.4z"/><path class="st17" d="M-485.9 454.9l-.7 9.4c-.2 2.8 1.9 5.3 4.8 5.5l76.6 5.7c2.8.2 5.3-1.9 5.5-4.8l.7-9.4c.2-2.8-1.9-5.3-4.8-5.5l-76.6-5.7c-2.9-.2-5.3 1.9-5.5 4.8m82.9-62.1c-.9 4.5 1.9 8.9 6.4 9.8 4.5.9 8.9-1.9 9.8-6.4.9-4.5-1.9-8.9-6.4-9.8s-8.9 2-9.8 6.4z"/><path class="st21" d="M-401.5 545.6s.9 1.2 2.4 3.4c.7.8 1.5 1.7 2.5 2.8 1.2 1.2 2.4 2.6 3.9 4.1 1.6 1.5 3.1 3.1 5 4.7.9.8 1.9 1.7 2.8 2.5 1 .8 2 1.7 3 2.6 2 1.8 4.3 3.5 6.5 5.3 2.3 1.8 4.5 3.6 6.9 5.3 2.3 1.8 4.7 3.5 7 5.2 2.3 1.7 4.6 3.3 6.9 4.9 2.2 1.6 4.4 3 6.5 4.4 2.1 1.4 4.1 2.6 5.9 3.8 1.8 1.1 3.5 2.2 5 3.1s2.8 1.6 3.8 2.2c2.1 1.1 3.3 1.8 3.3 1.8l.3.2c6 3.3 8.2 10.8 4.9 16.8-3.3 6-10.8 8.2-16.8 4.9-.4-.2-.7-.4-1-.6 0 0-1.4-.9-3.7-2.5-1.2-.8-2.5-1.8-4.1-2.9-1.6-1.1-3.2-2.5-5.1-3.9-1.8-1.4-3.8-3-5.9-4.7-2-1.7-4.2-3.4-6.4-5.3s-4.4-3.8-6.7-5.8-4.5-4.1-6.8-6.2c-2.3-2.1-4.5-4.2-6.7-6.3-2.2-2.1-4.3-4.2-6.3-6.3-1-1-2-2.1-3-3.1s-1.9-2.1-2.8-3c-1.8-1.9-3.5-4-5-5.7-1.5-1.8-2.9-3.6-4.1-5.2-1.3-1.8-2.4-3.4-3.2-4.7-1.3-2.3-2-3.6-2-3.6-2.1-3.7-.8-8.4 2.9-10.5 3.5-2 7.8-.9 10.1 2.2v.1z"/><path class="st14" d="M-315 613.1c-.5-.4-1.1-.8-1.6-1.2.7-.4 1.4-.8 2.3-1.3 2.2-1.3 3-4.2 1.7-6.4s-4.2-3-6.4-1.7c-4.1 2.4-5.3 2.7-6.4 2.9-1.7.4-3.3.8-6.2 2.5-.2.1-.3.2-.5.4-1.2.6-2.3 1.5-3.3 2.8-5.5 7-4 17.1 3.3 22.3 6.5 4.6 17.4 5.4 22.5-.6 5.7-6.9 1.6-14.2-5.4-19.7zm-254.2-60.5c-.6-1.5-1.4-2.7-2.4-3.6-.1-.2-.2-.3-.4-.5-2.3-2.5-3.7-3.3-5.3-4.1-1-.5-2.1-1.1-5.4-4.5-1.8-1.9-4.8-2-6.6-.2-1.9 1.8-2 4.8-.2 6.6.7.7 1.3 1.3 1.8 1.9-.6.2-1.3.5-1.9.7-8.1 3.3-14.1 9.3-10.4 17.4 3.3 7.2 14 9.4 21.5 6.8 8.5-2.9 12.7-12.3 9.3-20.5z"/></g></g><defs><circle id="SVGID_13_" cx="-384.4" cy="446.2" r="180.4"/></defs><clipPath id="SVGID_14_"><use xlink:href="#SVGID_13_" overflow="visible"/></clipPath><linearGradient id="SVGID_15_" gradientUnits="userSpaceOnUse" x1="-390.55" y1="296.552" x2="-390.55" y2="388.354" gradientTransform="matrix(1 0 0 -1 0 905.6)"><stop offset=".233" stop-color="#223393"/><stop offset=".771" stop-color="#223393" stop-opacity="0"/></linearGradient><path class="st23" d="M-591.4 471.5h401.7v165.8h-401.7z"/></g></g><g id="Layer_1_2_"><g id="New_Symbol_5_"><path class="st15" d="M-230.8 545.6l-.3-.2s-1.2-.6-3.3-1.8c-1-.6-2.3-1.4-3.8-2.2-1.5-.9-3.2-1.9-5-3.1-1.8-1.2-3.8-2.5-5.9-3.8-2.1-1.4-4.3-2.8-6.5-4.4-1-.7-2.1-1.5-3.2-2.2-4.7 5.4-9 11.2-13.2 16.8 1 .9 2.1 1.8 3.1 2.6 2.2 1.9 4.4 3.6 6.4 5.3 2.1 1.7 4 3.2 5.9 4.7 1.9 1.4 3.5 2.7 5.1 3.9 1.6 1.1 2.9 2.1 4.1 2.9 2.4 1.6 3.7 2.5 3.7 2.5.3.2.7.4 1 .6 6 3.3 13.5 1.1 16.8-4.9 3.4-5.9 1.1-13.4-4.9-16.7z"/><path class="st14" d="M-215.9 557.6c-.5-.4-1.1-.8-1.6-1.2.7-.4 1.4-.8 2.3-1.3 2.2-1.3 3-4.2 1.7-6.4s-4.2-3-6.4-1.7c-4.1 2.4-5.3 2.7-6.4 2.9-1.7.4-3.3.8-6.2 2.5-.2.1-.3.2-.5.4-1.2.6-2.3 1.5-3.3 2.8-5.5 7-4 17.1 3.3 22.3 6.5 4.6 17.4 5.4 22.5-.6 5.6-6.9 1.5-14.2-5.4-19.7z"/><path class="st22" d="M-530.8 539.9c-.2 0-.4.1-.6.1-2.8.5-5.6.9-8.3 1.3s-5.3.7-7.8 1.1c-2.5.3-4.8.6-7 .8-2.1.2-4.1.4-5.8.5-1.7.1-3.2.2-4.4.3-2.4.1-3.7.1-3.7.1h-.4c-.4 0-.8.1-1.2.1-6.8.9-11.5 7.2-10.6 13.9.9 6.7 7.2 11.5 13.9 10.6 0 0 1.6-.2 4.5-.6 1.4-.2 3-.5 5-.8 1.9-.3 4-.8 6.3-1.2 2.3-.5 4.7-1 7.3-1.6 2.6-.6 5.3-1.2 8.1-1.9s5.7-1.4 8.6-2.2c2.9-.8 5.9-1.6 8.8-2.5 1.3-.4 2.6-.8 3.8-1.2 31.9-10.1 59-23.3-16.5-16.8z"/><path class="st14" d="M-569.2 552.6c-.6-1.5-1.4-2.7-2.4-3.6-.1-.2-.2-.3-.4-.5-2.3-2.5-3.7-3.3-5.3-4.1-1-.5-2.1-1.1-5.4-4.5-1.8-1.9-4.8-2-6.6-.2-1.9 1.8-2 4.8-.2 6.6.7.7 1.3 1.3 1.8 1.9-.6.2-1.3.5-1.9.7-8.1 3.3-14.1 9.3-10.4 17.4 3.3 7.2 14 9.4 21.5 6.8 8.5-2.9 12.7-12.3 9.3-20.5z"/></g></g></svg>