<svg xmlns="http://www.w3.org/2000/svg" xmlns:xlink="http://www.w3.org/1999/xlink" viewBox="0 0 492 390"><style>.st0{fill:#fff}.st1{fill:url(#SVGID_1_)}.st2{clip-path:url(#SVGID_3_)}.st3{fill:#223393}.st4{opacity:.1;fill:#fff}.st5{fill:#0e2185}.st6{fill:#a6a8ab}.st7{fill:#424242}.st8{fill:url(#SVGID_4_)}.st10,.st8,.st9{opacity:.5}.st9{fill:url(#SVGID_5_)}.st10{fill:url(#SVGID_6_)}.st11,.st12{opacity:.5;fill:url(#SVGID_7_)}.st12{fill:url(#SVGID_8_)}.st13,.st14{opacity:.5;fill:url(#SVGID_9_)}.st14{fill:url(#SVGID_10_)}.st15,.st16{opacity:.5;fill:url(#SVGID_11_)}.st16{fill:url(#SVGID_12_)}.st17{fill:#34439c}.st18{fill:#4b58a7}.st19{fill:#009047}.st20{fill:#edf5f0}.st21{opacity:.2}.st21,.st22{fill:#332e2e}.st23{fill:#00a551}.st24{fill:#fdd500}.st25{fill:#ffe18c}.st26{opacity:.11}.st27{fill:#e0f4ea}.st28{fill:#fd9a0c}.st29{opacity:.4;clip-path:url(#SVGID_3_);fill:url(#SVGID_13_)}.st30{clip-path:url(#SVGID_15_)}.st31{fill:#eceff0}.st32{fill:#efce98}.st33{fill:#c489bc}.st34{fill:#d6b000}.st35{fill:#373b40}.st36{opacity:.77}.st37{fill:#fffbdb}.st38{fill:#b161a5}.st39{opacity:6e-2;fill:#332e2e}.st40{fill:#81c8fa}.st41{fill:#f9a823}.st42{opacity:.15;clip-path:url(#SVGID_17_)}.st43{opacity:.8}.st44{fill:#dff1fe}.st45{opacity:.36}.st46{opacity:.38}.st47{opacity:.39;fill:#ffff5c}.st48{opacity:.58;fill:#fff}.st49{fill:#664828}.st50{clip-path:url(#SVGID_19_)}.st51{opacity:.15;fill:#332e2e}.st52{clip-path:url(#SVGID_21_)}.st53{fill:#434343}.st54{fill:#231f20}.st55{fill:gray}.st56{fill:#ababab}.st57{fill:#80dccf}.st58{fill:#e76953}.st59{fill:#878787}.st60{fill:#f4af4d}.st61{fill:#9d9d9d}.st62{fill:#dc52ff}.st63{fill:#81d4fa}.st64{fill:#44b3e6}.st65{clip-path:url(#SVGID_21_);fill:#fff}.st66{clip-path:url(#SVGID_23_)}.st67{fill:#000034}.st68{fill:#1664a7}.st69{opacity:.25}.st70{fill:#063f80}.st71{fill:#8195ff}.st72{fill:#5771ff}.st73{fill:#902bb0}.st74{fill:#6f118c}.st75{fill:#d8fbff}.st76{opacity:.5}.st77{fill:none}.st78{fill:#252525}.st79{fill:#383838}.st80{opacity:.15;enable-background:new}.st81{fill:#262626}.st82{fill:#565656}.st83{opacity:.1;enable-background:new}.st84{fill:#fee900}.st85{clip-path:url(#SVGID_23_);fill:#231f20}.st86{clip-path:url(#SVGID_25_)}.st87,.st88,.st89{enable-background:new}.st87{fill:#332e2e;opacity:.2}.st88{opacity:.77}.st89{opacity:6e-2;fill:#332e2e}.st90{opacity:.15;clip-path:url(#SVGID_27_)}.st91{clip-path:url(#SVGID_29_)}.st92{clip-path:url(#SVGID_31_)}.st93{clip-path:url(#SVGID_33_)}.st94{opacity:.15;fill:#332e2e;enable-background:new}.st95{opacity:.2}.st96{fill:#8d00a3}.st97{fill:#b231cc}.st98{opacity:.4;clip-path:url(#SVGID_25_);fill:url(#SVGID_34_)}.st100,.st99{clip-path:url(#SVGID_36_)}.st100{fill:none}.st101{display:none}.st102{display:inline;fill:#00a551}</style><symbol id="New_Symbol_2" viewBox="-26.7 -12.9 54.1 25.7"><path class="st0" d="M-12.6-12.9c-.8 0-1.5.3-2.1.9l-12 12 12 12c1.2 1.2 3.1 1.2 4.2 0 1.2-1.2 1.2-3.1 0-4.2L-18.3 0l7.7-7.7c1.2-1.2 1.2-3.1 0-4.2-.5-.7-1.3-1-2-1z"/><linearGradient id="SVGID_1_" gradientUnits="userSpaceOnUse" x1="-20.465" y1="-.001" x2="27.317" y2="-.001"><stop offset=".232" stop-color="#fff"/><stop offset="1" stop-color="#fff" stop-opacity="0"/></linearGradient><path class="st1" d="M27.3-3.5h-47.8v7h47.8z"/></symbol><g id="Layer_1"><g id="New_Symbol_1_"><defs><path id="SVGID_35_" d="M0 0h492v390H0z"/></defs><clipPath id="SVGID_3_"><use xlink:href="#SVGID_35_" overflow="visible"/></clipPath><g id="Layer_1_10_" class="st2"><g id="New_Symbol_21_"><path class="st25" d="M205.6 79.9c-.8-.1-1.6 0-2.3.2-5.9-5.3-14.4-8.5-20.9-5.8-9.4 3.9-11.2 18.4-7.3 27.8 3.9 9.4 14.7 13.9 24.1 10 8.5-3.5 13-12.7 10.8-21.4.2-1.2.5-2.6.7-4.3.4-3.1-1.9-6-5.1-6.5z"/><path class="st19" d="M322.4 444.8c-6.8 0-12.5-5.4-12.8-12.2-.7-16.5-.4-30.9 0-46.2.3-15 .7-30.6 0-49.1-.2-7.1 5.3-13 12.3-13.2 7-.3 13 5.3 13.2 12.3.7 19.2.3 35.2 0 50.6-.3 14.8-.6 28.9 0 44.5.3 7-5.2 13-12.2 13.3h-.5z"/><path class="st19" d="M460.6 276.2l-.4-.2s-1.5-.8-4-2.2c-1.3-.7-2.9-1.7-4.7-2.8-1.8-1.1-3.9-2.4-6.2-3.8-2.3-1.5-4.7-3-7.3-4.7-2.6-1.7-5.3-3.5-8-5.5-2.8-1.9-5.6-3.9-8.5-6.1-2.9-2.1-5.8-4.3-8.7-6.4-2.9-2.2-5.7-4.4-8.5-6.6-2.7-2.2-5.5-4.4-8-6.6-1.3-1.1-2.5-2.2-3.8-3.2-1.2-1.1-2.4-2.1-3.5-3.1-2.3-2-4.3-4-6.2-5.8-1.9-1.8-3.4-3.5-4.9-5-1.2-1.4-2.2-2.5-3.1-3.5-1.9-2.6-2.9-4.2-2.9-4.2l-.1-.1c-2.8-3.9-8.2-5.2-12.5-2.8-.2.1-.4.3-.6.4-7.5-9.3-18.3-15.9-31.1-17.8-26.6-3.9-51.3 14.6-55.2 41.2l-9.6 66.6c-3.9 26.6 14.6 51.3 41.2 55.2 26.6 3.9 51.3-14.6 55.2-41.2l9.6-66.6c.3-2 .4-3.9.5-5.9 1.3 1.6 2.7 3.2 4.2 4.8 1.1 1.2 2.3 2.5 3.5 3.8 1.2 1.2 2.4 2.5 3.7 3.8 2.5 2.6 5.1 5.2 7.8 7.8 2.7 2.6 5.5 5.2 8.2 7.8 2.8 2.6 5.6 5.2 8.4 7.6 2.8 2.5 5.6 4.9 8.3 7.2 2.7 2.3 5.4 4.5 7.9 6.6 2.6 2.1 5 4 7.3 5.8 2.3 1.8 4.4 3.4 6.3 4.8 1.9 1.4 3.6 2.6 5 3.6 2.9 2 4.6 3.1 4.6 3.1.4.3.8.5 1.3.8 7.4 4 16.7 1.3 20.8-6.1 4.2-7.4 1.4-16.7-6-20.7z"/><path class="st25" d="M479 291c-.7-.5-1.3-1-2-1.5.9-.5 1.8-1 2.8-1.6 2.8-1.6 3.7-5.2 2-8-1.6-2.8-5.2-3.7-8-2-5.1 3-6.5 3.3-8 3.6-2.1.4-4 .9-7.6 3.1-.2.1-.4.3-.6.4-1.5.7-2.9 1.9-4.1 3.4-6.8 8.6-5 21.2 4 27.6 8 5.7 21.5 6.6 27.8-.8 7.3-8.3 2.3-17.4-6.3-24.2z"/><path class="st19" d="M396.3 102.9c.2-1.4-20.7-46.3 20.2-48.8 0 0-86.2-30.8-117.6 28.6l97.4 20.2"/><path class="st23" d="M359 102.9c.2-1.4-4.5-48.8 57.5-48.8 0 0-86.2-30.8-117.6 28.6l97.4 20.2"/><path class="st0" d="M408.2 53.4c-.4 5.7 3.9 10.8 9.6 11.2 5.8.4 10.8-3.9 11.2-9.6.4-5.7-3.9-10.8-9.6-11.2-5.8-.5-10.8 3.8-11.2 9.6z"/><path class="st28" d="M389 173.2c-1.9-3-4.3-5.5-6.9-7.7 2.8-4.8 5-10.1 6.2-15.9 6.1-28.7-12.1-56.8-40.8-63-28.7-6.1-56.8 12.1-63 40.8-1.3 6.2-1.5 12.4-.7 18.4-2.4.9-4.7 2-7 3.4-9.4 6.1-14.7 16.1-15.2 26.5 9.7 3.8 21 3.1 30.4-3 1.7-1.1 3.3-2.3 4.7-3.7.4-.3.9-.6 1.3-.8 12.3-6.6 27.6-11.3 41.5-6.8 7.6 2.4 14.5 5.7 20.4 10.3.2 5.8 2 11.5 5.3 16.7 6.1 9.4 16.1 14.7 26.5 15.2 4.1-9.6 3.4-20.9-2.7-30.4z"/><path class="st25" d="M402.3 122.9s-2.5 51-27.2 45.4c-11.1 14.4-29.8 21.9-48.8 17.9-19-4.1-33-18.7-37.2-36.4-28.1-2.7-8.4-52.9-8.4-52.9l10.6 23.5c7.4-18.5 25.4-30.6 45.2-30.6 3.4 0 6.8.4 10.2 1.1 22.7 4.9 38.3 24.8 38.6 47.1l17-15.1z"/><path class="st0" d="M315.2 161.5c3.4 9.9 13 16.9 24.1 16.4s20-8.2 22.6-18.4l-46.7 2z"/><path class="st25" d="M336.6 153.9l-7-1.5.6-10.4 10.1 2.2z"/><path class="st22" d="M366.2 137.8c-1 4.7-5.6 7.7-10.3 6.7-4.7-1-7.7-5.6-6.7-10.3 1-4.7 5.6-7.7 10.3-6.7 4.7 1 7.7 5.6 6.7 10.3zm-38.9-8.3c-1 4.7-5.6 7.7-10.3 6.7-4.7-1-7.7-5.6-6.7-10.3 1-4.7 5.6-7.7 10.3-6.7 4.7 1 7.7 5.6 6.7 10.3z"/><path class="st28" d="M353.2 101.9c-8.2-4-27.9-9.5-44.3-5.2l-3.1.1c-16.3 4.3-20 16.9-11.8 20.9s39.8 9.4 56.1 5.1l10.5-3.1c16.3-4.5.7-13.8-7.4-17.8z"/><path class="st0" d="M400.6 104.7l-2.5 11.6c-.8 3.5-4.2 5.7-7.7 5l-94.7-20.2c-3.5-.8-5.7-4.2-5-7.7l2.5-11.6c.8-3.5 4.2-5.7 7.7-5L395.6 97c3.6.8 5.8 4.2 5 7.7"/><path class="st19" d="M299.7 444.8c-.5 0-.9 0-1.4-.1-7-.8-12.1-7.1-11.3-14.1 3.1-28.3 2.1-49.8.7-76.9-.3-5.2-.5-10.6-.8-16.3-.3-7 5.1-13 12.2-13.3h.6c6.8 0 12.4 5.4 12.7 12.2.2 5.6.5 11 .8 16.2 1.4 27.2 2.5 50.7-.8 81-.8 6.5-6.3 11.3-12.7 11.3z"/><path class="st23" d="M327.7 186.2c-14.1-2-27.6 2.2-37.8 10.5-.8-.8-1.7-1.5-2.8-2-50.3-25.3-56.8-30-78.7-83.8-.2-1-.8-4.3-3.1-5-3.1-2.9-7.6-3.9-11.8-2.2-4.5 1.8-7.2 6.3-6.9 11 0 .1-.1.1-.1.2 0 0 0 .1.1.3.1 1 .3 2 .8 3 24.5 60.1 34.1 68.3 89.1 96-1.9 4.1-3.2 8.6-3.9 13.3l-9.6 66.6c-3.9 26.6 14.6 51.3 41.2 55.2 26.6 3.9 31.3-17.5 35.2-44.1l9.6-66.6c3.8-26.8 5.3-48.6-21.3-52.4z"/><path class="st0" d="M301.8 319.4h-.1c-.9-.1-1.5-.8-1.5-1.7l.7-8.8c3.8-50 7.7-101.7 20.6-118.6.5-.7 1.5-.8 2.2-.3.7.5.8 1.5.3 2.2-12.3 16.1-16.3 69.7-19.9 116.9l-.7 8.8c-.1.9-.8 1.5-1.6 1.5z"/><path class="st19" d="M374.2 359.3l-138.8-20.1 28.8-44.3 94.9 13.8z"/><path class="st23" d="M351.2 356l-115.8-16.8 28.8-44.3 81 11.7z"/><path transform="rotate(-171.769 312.547 291.031)" class="st22" d="M263.8 278.9h97.4v24.4h-97.4z"/><path transform="rotate(-171.769 304.765 291.08)" class="st24" d="M292.1 277.3h25.3v27.6h-25.3z"/><path class="st96" d="M216.2 440.8c-.1-.6-.2-1.1-.3-1.7-1.4 0-6.2-54.1-6-62.1-1-6.2-13.8-8.9-20.3-7.1-6.5 1.8-11 8.3-9.8 14.5 6.3 31.8 9.3 48.6 10.5 55.4.1 1.4.4 2.9.9 4.3-.2.6-.2 1.3-.2 2 0 5.8 6 10.5 13.5 10.5s13.5-4.7 13.5-10.5c0-2-.7-3.8-1.8-5.3z"/><path class="st97" d="M152.8 445.3c.1-.5.3-1.1.4-1.7-1.3-.5 14.7-52.5 17.9-59.8 1.4-6.2-9.4-13.4-16.1-14.3-6.7-.8-13.3 3.5-14.6 9.7-6.1 31.8-9.7 48.5-11.2 55.3-.5 1.4-.7 2.8-.8 4.4-.4.5-.7 1.1-1 1.7-2.2 5.4 1.6 12 8.5 14.8s14.3.7 16.5-4.6c.8-1.7.9-3.6.4-5.5z"/><path class="st96" d="M236.7 305.9c-5.6 18.3-12.6 40-17.2 59.2-4.6 23.8-21.8 33.5-45.3 29.5-.7-.1-1.5-.2-2.2-.4-.7-.1-1.5-.3-2.3-.5-25.6-5.9-39.2-22.9-32.1-47.7 4.4-19.2 5.6-41.1 10.2-59.7 3.9-14.1 6.2-25.4 15.2-31.2 8.2-5.5 19.5-7 31.8-5.4 2.7.4 5.4.9 8.2 1.5 1 .2 1.9.5 2.8.7.4.1.7.2 1.1.3.2.1.4.1.6.2.1 0 .3.1.4.1 13.2 4 24 10.8 29.4 20.2.8 1.3 1.4 2.7 1.9 4.1 3 8.4.7 17.2-2.5 29.1z"/><path class="st97" d="M201.9 363.6c-4.8 23.4-6.7 33.9-27.7 30.9-.7-.1-1.5-.2-2.2-.4-.7-.1-1.5-.3-2.3-.5-25.6-5.9-39.2-22.9-32.1-47.7 4.4-19.2 5.6-41.1 10.2-59.7 3.9-14.1 6.2-25.4 15.2-31.2 8.2-5.5 19.5-7 31.8-5.4 2.7.4 5.4.9 8.2 1.5 1 .2 1.9.5 2.8.7.4.1.7.2 1.1.3.2.1.4.1.6.2.1 0 .3.1.4.1 15.5 4.7 19.1 13.9 16.5 27.8-.1.8-.3 1.6-.5 2.4-1.5 6.9-5.1 15.6-6.8 24.3-4.1 18.1-10.9 37.6-15.2 56.7z"/><path class="st96" d="M239 276.8c-1.1.6-2.2 1.1-3.3 1.6-4 1.9-8 3.3-12 4.3-3.8.9-7.6 1.4-11.4 1.4-17.5.1-30.7-11.5-39.2-27.9 5.9-3.9 13.2-6 21.4-6.6 2.7.4 5.4.9 8.2 1.5 1 .2 1.9.5 2.8.7.4.1.7.2 1.1.3.2.1.4.1.6.2.1 0 .3.1.4.1 13.2 4 24 10.8 29.4 20.2.8 1.3 1.4 2.7 2 4.2z"/><path class="st0" d="M203.3 254.6c-9.3-2.3-37.9 118.3-28.2 120.7-.6-.1-1.2-.3-1.8-.4-10.7-2.4 16.6-123.7 26.8-121.4 1.6.3 1.5.7 3.2 1.1z"/><path class="st22" d="M219 367.1c-28.4-1.3-56-7.8-82.1-19.2 1.5-7.8 2.7-15.6 3.5-23.6 27.9 12.6 55.3 19.1 86 20.1-2.8 7.5-5.2 15.1-7.4 22.7z"/><path class="st24" d="M181 365.1c-7.2-1.3-14.4-3-21.5-5 2-8.6 3.9-17.2 5.7-25.8 7.3 2.1 14.7 3.8 22.2 5.1-2.3 8.6-4.4 17.2-6.4 25.7z"/><path class="st97" d="M162.7 267.6s-1.5 1-4.2 2.9c-1.7 1-3.8 2.1-6.2 3.4-2.2 1-4.7 2.3-7.4 3.5-2.7 1.1-5.6 2.5-8.7 3.6-1.5.6-3.1 1.2-4.8 1.8-1.6.6-3.3 1.2-5 1.8-3.4 1.2-6.9 2.3-10.5 3.5-3.6 1.1-7.2 2.3-10.9 3.3-3.6 1.1-7.3 2.1-10.9 3.1-3.6 1-7.2 1.9-10.6 2.8-3.4.9-6.8 1.6-10 2.4-3.2.7-6.3 1.4-9.1 2-2.9.5-5.4 1.1-7.8 1.5-2.4.4-4.4.8-6.1 1-3.5.5-5.5.8-5.5.8-8.4 1.1-16.1-4.7-17.3-13.1-1.1-8.4 4.7-16.1 13.1-17.3.5-.1 1-.1 1.5-.1h.5s1.7-.1 4.6-.2c1.5-.1 3.3-.2 5.5-.4 2.1-.1 4.6-.4 7.2-.7 2.7-.3 5.6-.6 8.6-1 3.1-.4 6.3-.8 9.6-1.3s6.8-1 10.3-1.6c3.5-.6 7.1-1.3 10.6-1.9 3.5-.7 7.1-1.4 10.6-2.2 3.4-.8 6.9-1.5 10.1-2.4l4.8-1.2c1.5-.4 3-.9 4.5-1.3 3-.8 5.6-1.7 8.1-2.5s4.6-1.7 6.6-2.4c1.6-.7 3.1-1.3 4.3-1.8 2.8-1.5 4.5-2.4 4.5-2.4l.1-.1c4.6-2.5 10.4-.8 12.9 3.8 2.4 4.6 1 9.9-3 12.7zm-16.8-102.4S220 106.4 257.1 92c0 0-34.3 51-15.6 76.4l-95.6-3.2"/><path class="st96" d="M211.7 172.1s8.4-65.6 45.4-80c0 0-34.3 51-15.6 76.4l-29.8 3.6z"/><path class="st25" d="M237.5 237c-8.3 14.6-23.9 24.2-41.5 24.2-1.2 0-2.4 0-3.6-.1-19-1.4-34.5-13.7-41-30.3-24.8-1.5-13.1-50.3-13.1-50.3l11.9 19c6-19.8 24.5-33.9 45.7-33.9 1.2 0 2.4 0 3.6.1 23.6 1.7 41.9 20.3 44.1 43l16.5-19.2c-.1 0 4.6 52.8-22.6 47.5z"/><path class="st0" d="M227.9 231.6c-3.4 11.8-14.2 20.5-27.1 20.6s-23.9-8.4-27.5-20.1l54.6-.5z"/><path class="st22" d="M168.2 204.5c-.3 4.7 3.2 8.8 7.9 9.1 4.7.3 8.8-3.2 9.1-7.9.3-4.7-3.2-8.8-7.9-9.1-4.7-.3-8.8 3.2-9.1 7.9zm38.9 2.9c-.3 4.7 3.2 8.8 7.9 9.1 4.7.3 8.8-3.2 9.1-7.9s-3.2-8.8-7.9-9.1c-4.7-.3-8.8 3.2-9.1 7.9z"/><path class="st0" d="M144.8 163.9l-.9 11.6c-.3 3.5 2.4 6.6 5.9 6.8l94.7 7c3.5.3 6.6-2.4 6.8-5.9l.9-11.6c.3-3.5-2.4-6.6-5.9-6.8l-94.7-7c-3.5-.3-6.5 2.3-6.8 5.9m102.6-76.8c-1.2 5.5 2.4 11 7.9 12.1 5.5 1.2 11-2.4 12.1-7.9 1.2-5.5-2.4-11-7.9-12.1-5.5-1.2-11 2.4-12.1 7.9z"/><path class="st96" d="M249.4 276.2s1.1 1.5 2.9 4.2c.9 1 1.9 2.1 3.1 3.5 1.5 1.5 3 3.2 4.9 5 1.9 1.8 3.9 3.8 6.2 5.8 1.1 1 2.3 2.1 3.5 3.1 1.2 1 2.5 2.1 3.8 3.2 2.5 2.2 5.3 4.4 8 6.6 2.8 2.2 5.6 4.4 8.5 6.6 2.9 2.2 5.8 4.4 8.7 6.4 2.9 2.1 5.7 4.1 8.5 6.1s5.5 3.7 8 5.5c2.6 1.7 5 3.3 7.3 4.7 2.3 1.4 4.3 2.7 6.2 3.8 1.8 1.1 3.4 2 4.7 2.8 2.6 1.4 4 2.2 4 2.2l.4.2c7.4 4 10.2 13.3 6.1 20.8s-13.3 10.2-20.8 6.1c-.4-.2-.9-.5-1.3-.8 0 0-1.7-1.1-4.6-3.1-1.4-1-3.1-2.2-5-3.6s-4-3-6.3-4.8c-2.3-1.8-4.7-3.7-7.3-5.8-2.5-2.1-5.2-4.3-7.9-6.6s-5.5-4.7-8.3-7.2c-2.8-2.5-5.6-5-8.4-7.6-2.8-2.6-5.5-5.2-8.2-7.8-2.7-2.7-5.3-5.2-7.8-7.8-1.2-1.3-2.5-2.6-3.7-3.8-1.2-1.3-2.3-2.5-3.5-3.8-2.3-2.4-4.3-4.9-6.2-7.1-1.9-2.3-3.6-4.5-5.1-6.4-1.6-2.2-2.9-4.2-4-5.8-1.6-2.8-2.5-4.4-2.5-4.4-2.6-4.6-1-10.4 3.6-13 4.3-2.4 9.7-1.2 12.5 2.8z"/><path class="st25" d="M356.4 359.7c-.7-.5-1.3-1-2-1.5.9-.5 1.8-1 2.8-1.6 2.8-1.6 3.7-5.2 2-8-1.6-2.8-5.2-3.7-8-2-5.1 3-6.5 3.3-8 3.6-2.1.4-4 .9-7.6 3.1-.2.1-.4.3-.6.4-1.5.7-2.9 1.9-4.1 3.4-6.8 8.6-5 21.2 4 27.6 8 5.7 21.5 6.6 27.8-.8 7.3-8.3 2.3-17.4-6.3-24.2zM41.8 284.8c-.8-1.9-1.8-3.3-3-4.4-.1-.2-.3-.4-.5-.6-2.9-3.1-4.6-4.1-6.5-5.1-1.3-.7-2.6-1.4-6.7-5.6-2.2-2.3-5.9-2.4-8.2-.2-2.3 2.2-2.4 5.9-.2 8.2.8.9 1.6 1.6 2.3 2.3l-2.4.9C6.5 284.4-.8 291.8 3.8 301.8c4.1 8.9 17.3 11.6 26.6 8.4 10.4-3.7 15.6-15.3 11.4-25.4z"/></g></g><path clip-path="url(#SVGID_3_)" fill="none" d="M64 43h377v347H64z"/></g></g></svg>