<?xml version="1.0" encoding="utf-8"?>
<!-- Generator: Adobe Illustrator 19.1.0, SVG Export Plug-In . SVG Version: 6.00 Build 0)  -->
<svg version="1.1" xmlns="http://www.w3.org/2000/svg" xmlns:xlink="http://www.w3.org/1999/xlink" x="0px" y="0px" width="492px"
	 height="390px" viewBox="0 0 492 390" style="enable-background:new 0 0 492 390;" xml:space="preserve">
<style type="text/css">
	.st0{fill:#FFFFFF;}
	.st1{fill:url(#SVGID_1_);}
	.st2{clip-path:url(#SVGID_3_);}
	.st3{fill:#223393;}
	.st4{opacity:0.1;fill:#FFFFFF;}
	.st5{fill:#0E2185;}
	.st6{fill:#A6A8AB;}
	.st7{fill:#424242;}
	.st8{opacity:0.5;fill:url(#SVGID_4_);}
	.st9{opacity:0.5;fill:url(#SVGID_5_);}
	.st10{opacity:0.5;fill:url(#SVGID_6_);}
	.st11{opacity:0.5;fill:url(#SVGID_7_);}
	.st12{opacity:0.5;fill:url(#SVGID_8_);}
	.st13{opacity:0.5;fill:url(#SVGID_9_);}
	.st14{opacity:0.5;fill:url(#SVGID_10_);}
	.st15{opacity:0.5;fill:url(#SVGID_11_);}
	.st16{opacity:0.5;fill:url(#SVGID_12_);}
	.st17{fill:#34439C;}
	.st18{fill:#4B58A7;}
	.st19{fill:#009047;}
	.st20{fill:#EDF5F0;}
	.st21{opacity:0.2;fill:#332E2E;}
	.st22{fill:#332E2E;}
	.st23{fill:#00A551;}
	.st24{fill:#FDD500;}
	.st25{fill:#FFE18C;}
	.st26{opacity:0.11;}
	.st27{fill:#E0F4EA;}
	.st28{fill:#FD9A0C;}
	.st29{opacity:0.4;clip-path:url(#SVGID_3_);fill:url(#SVGID_13_);}
	.st30{clip-path:url(#SVGID_15_);}
	.st31{fill:#ECEFF0;}
	.st32{fill:#EFCE98;}
	.st33{fill:#C489BC;}
	.st34{fill:#D6B000;}
	.st35{fill:#373B40;}
	.st36{opacity:0.77;}
	.st37{fill:#FFFBDB;}
	.st38{fill:#B161A5;}
	.st39{opacity:6.000000e-02;fill:#332E2E;}
	.st40{fill:#81C8FA;}
	.st41{fill:#F9A823;}
	.st42{opacity:0.15;clip-path:url(#SVGID_17_);}
	.st43{opacity:0.8;}
	.st44{fill:#DFF1FE;}
	.st45{opacity:0.36;}
	.st46{opacity:0.38;}
	.st47{opacity:0.39;fill:#FFFF5C;}
	.st48{opacity:0.58;fill:#FFFFFF;}
	.st49{fill:#664828;}
	.st50{clip-path:url(#SVGID_19_);}
	.st51{opacity:0.15;fill:#332E2E;}
	.st52{clip-path:url(#SVGID_21_);}
	.st53{fill:#434343;}
	.st54{fill:#231F20;}
	.st55{fill:#808080;}
	.st56{fill:#ABABAB;}
	.st57{fill:#80DCCF;}
	.st58{fill:#E76953;}
	.st59{fill:#878787;}
	.st60{fill:#F4AF4D;}
	.st61{fill:#9D9D9D;}
	.st62{fill:#DC52FF;}
	.st63{fill:#81D4FA;}
	.st64{fill:#44B3E6;}
	.st65{clip-path:url(#SVGID_21_);fill:#FFFFFF;}
	.st66{clip-path:url(#SVGID_23_);}
	.st67{fill:#000034;}
	.st68{fill:#1664A7;}
	.st69{opacity:0.25;}
	.st70{fill:#063F80;}
	.st71{fill:#8195FF;}
	.st72{fill:#5771FF;}
	.st73{fill:#902BB0;}
	.st74{fill:#6F118C;}
	.st75{fill:#D8FBFF;}
	.st76{opacity:0.5;}
	.st77{fill:none;}
	.st78{fill:#252525;}
	.st79{fill:#383838;}
	.st80{opacity:0.15;enable-background:new    ;}
	.st81{fill:#262626;}
	.st82{fill:#565656;}
	.st83{opacity:0.1;enable-background:new    ;}
	.st84{fill:#FEE900;}
	.st85{clip-path:url(#SVGID_23_);fill:#231F20;}
	.st86{clip-path:url(#SVGID_25_);}
	.st87{opacity:0.2;fill:#332E2E;enable-background:new    ;}
	.st88{opacity:0.77;enable-background:new    ;}
	.st89{opacity:6.000000e-02;fill:#332E2E;enable-background:new    ;}
	.st90{opacity:0.15;clip-path:url(#SVGID_27_);}
	.st91{clip-path:url(#SVGID_29_);}
	.st92{clip-path:url(#SVGID_31_);}
	.st93{clip-path:url(#SVGID_33_);}
	.st94{opacity:0.15;fill:#332E2E;enable-background:new    ;}
	.st95{opacity:0.2;}
	.st96{fill:#8D00A3;}
	.st97{fill:#B231CC;}
	.st98{opacity:0.4;clip-path:url(#SVGID_25_);fill:url(#SVGID_34_);}
	.st99{clip-path:url(#SVGID_36_);}
	.st100{clip-path:url(#SVGID_36_);fill:none;}
	.st101{display:none;}
	.st102{display:inline;fill:#00A551;}
</style>
<symbol  id="New_Symbol_2" viewBox="-26.7 -12.9 54.1 25.7">
	<path class="st0" d="M-12.6-12.9c-0.8,0-1.5,0.3-2.1,0.9l-12,12l12,12c1.2,1.2,3.1,1.2,4.2,0c1.2-1.2,1.2-3.1,0-4.2L-18.3,0
		l7.7-7.7c1.2-1.2,1.2-3.1,0-4.2C-11.1-12.6-11.9-12.9-12.6-12.9z"/>
	<linearGradient id="SVGID_1_" gradientUnits="userSpaceOnUse" x1="-20.4651" y1="-9.982553e-04" x2="27.3171" y2="-9.982553e-04">
		<stop  offset="0.2321" style="stop-color:#FFFFFF"/>
		<stop  offset="1" style="stop-color:#FFFFFF;stop-opacity:0"/>
	</linearGradient>
	<polygon class="st1" points="27.3,-3.5 -20.5,-3.5 -20.5,3.5 27.3,3.5 	"/>
</symbol>
<g id="Layer_2">
</g>
<g id="Layer_1">
	<g id="New_Symbol">
	</g>
	<g id="New_Symbol_1_">
		<g>
			<defs>
				<rect id="SVGID_35_" y="0" width="492" height="390"/>
			</defs>
			<clipPath id="SVGID_3_">
				<use xlink:href="#SVGID_35_"  style="overflow:visible;"/>
			</clipPath>
			<g id="Layer_1_10_" class="st2">
				<g id="New_Symbol_21_">
					<g>
						<path class="st25" d="M205.6,79.9c-0.8-0.1-1.6,0-2.3,0.2c-5.9-5.3-14.4-8.5-20.9-5.8c-9.4,3.9-11.2,18.4-7.3,27.8
							c3.9,9.4,14.7,13.9,24.1,10c8.5-3.5,13-12.7,10.8-21.4c0.2-1.2,0.5-2.6,0.7-4.3C211.1,83.3,208.8,80.4,205.6,79.9z"/>
						<g>
							<g>
								<path class="st19" d="M322.4,444.8c-6.8,0-12.5-5.4-12.8-12.2c-0.7-16.5-0.4-30.9,0-46.2c0.3-15,0.7-30.6,0-49.1
									c-0.2-7.1,5.3-13,12.3-13.2c7-0.3,13,5.3,13.2,12.3c0.7,19.2,0.3,35.2,0,50.6c-0.3,14.8-0.6,28.9,0,44.5
									c0.3,7-5.2,13-12.2,13.3C322.8,444.8,322.6,444.8,322.4,444.8z"/>
							</g>
						</g>
						<path class="st19" d="M460.6,276.2l-0.4-0.2c0,0-1.5-0.8-4-2.2c-1.3-0.7-2.9-1.7-4.7-2.8c-1.8-1.1-3.9-2.4-6.2-3.8
							c-2.3-1.5-4.7-3-7.3-4.7c-2.6-1.7-5.3-3.5-8-5.5c-2.8-1.9-5.6-3.9-8.5-6.1c-2.9-2.1-5.8-4.3-8.7-6.4c-2.9-2.2-5.7-4.4-8.5-6.6
							c-2.7-2.2-5.5-4.4-8-6.6c-1.3-1.1-2.5-2.2-3.8-3.2c-1.2-1.1-2.4-2.1-3.5-3.1c-2.3-2-4.3-4-6.2-5.8c-1.9-1.8-3.4-3.5-4.9-5
							c-1.2-1.4-2.2-2.5-3.1-3.5c-1.9-2.6-2.9-4.2-2.9-4.2l-0.1-0.1c-2.8-3.9-8.2-5.2-12.5-2.8c-0.2,0.1-0.4,0.3-0.6,0.4
							c-7.5-9.3-18.3-15.9-31.1-17.8c-26.6-3.9-51.3,14.6-55.2,41.2l-9.6,66.6c-3.9,26.6,14.6,51.3,41.2,55.2
							c26.6,3.9,51.3-14.6,55.2-41.2l9.6-66.6c0.3-2,0.4-3.9,0.5-5.9c1.3,1.6,2.7,3.2,4.2,4.8c1.1,1.2,2.3,2.5,3.5,3.8
							c1.2,1.2,2.4,2.5,3.7,3.8c2.5,2.6,5.1,5.2,7.8,7.8c2.7,2.6,5.5,5.2,8.2,7.8c2.8,2.6,5.6,5.2,8.4,7.6c2.8,2.5,5.6,4.9,8.3,7.2
							c2.7,2.3,5.4,4.5,7.9,6.6c2.6,2.1,5,4,7.3,5.8c2.3,1.8,4.4,3.4,6.3,4.8c1.9,1.4,3.6,2.6,5,3.6c2.9,2,4.6,3.1,4.6,3.1
							c0.4,0.3,0.8,0.5,1.3,0.8c7.4,4,16.7,1.3,20.8-6.1C470.8,289.5,468,280.2,460.6,276.2z"/>
						<path class="st25" d="M479,291c-0.7-0.5-1.3-1-2-1.5c0.9-0.5,1.8-1,2.8-1.6c2.8-1.6,3.7-5.2,2-8c-1.6-2.8-5.2-3.7-8-2
							c-5.1,3-6.5,3.3-8,3.6c-2.1,0.4-4,0.9-7.6,3.1c-0.2,0.1-0.4,0.3-0.6,0.4c-1.5,0.7-2.9,1.9-4.1,3.4c-6.8,8.6-5,21.2,4,27.6
							c8,5.7,21.5,6.6,27.8-0.8C492.6,306.9,487.6,297.8,479,291z"/>
						<g>
							<path class="st19" d="M396.3,102.9c0.2-1.4-20.7-46.3,20.2-48.8c0,0-86.2-30.8-117.6,28.6L396.3,102.9"/>
						</g>
						<g>
							<path class="st23" d="M359,102.9c0.2-1.4-4.5-48.8,57.5-48.8c0,0-86.2-30.8-117.6,28.6l97.4,20.2"/>
						</g>
						<g>
							<path class="st0" d="M408.2,53.4c-0.4,5.7,3.9,10.8,9.6,11.2c5.8,0.4,10.8-3.9,11.2-9.6c0.4-5.7-3.9-10.8-9.6-11.2
								C413.6,43.3,408.6,47.6,408.2,53.4z"/>
						</g>
						<path class="st28" d="M389,173.2c-1.9-3-4.3-5.5-6.9-7.7c2.8-4.8,5-10.1,6.2-15.9c6.1-28.7-12.1-56.8-40.8-63
							c-28.7-6.1-56.8,12.1-63,40.8c-1.3,6.2-1.5,12.4-0.7,18.4c-2.4,0.9-4.7,2-7,3.4c-9.4,6.1-14.7,16.1-15.2,26.5
							c9.7,3.8,21,3.1,30.4-3c1.7-1.1,3.3-2.3,4.7-3.7c0.4-0.3,0.9-0.6,1.3-0.8c12.3-6.6,27.6-11.3,41.5-6.8
							c7.6,2.4,14.5,5.7,20.4,10.3c0.2,5.8,2,11.5,5.3,16.7c6.1,9.4,16.1,14.7,26.5,15.2C395.8,194,395.1,182.7,389,173.2z"/>
						<g>
							<path class="st25" d="M402.3,122.9c0,0-2.5,51-27.2,45.4c-11.1,14.4-29.8,21.9-48.8,17.9c-19-4.1-33-18.7-37.2-36.4
								c-28.1-2.7-8.4-52.9-8.4-52.9l10.6,23.5c7.4-18.5,25.4-30.6,45.2-30.6c3.4,0,6.8,0.4,10.2,1.1c22.7,4.9,38.3,24.8,38.6,47.1
								L402.3,122.9z"/>
						</g>
						<g>
							<path class="st0" d="M315.2,161.5c3.4,9.9,13,16.9,24.1,16.4s20-8.2,22.6-18.4L315.2,161.5z"/>
						</g>
						<g>
							<polygon class="st25" points="336.6,153.9 329.6,152.4 330.2,142 340.3,144.2 							"/>
						</g>
						<g>
							<path class="st22" d="M366.2,137.8c-1,4.7-5.6,7.7-10.3,6.7c-4.7-1-7.7-5.6-6.7-10.3c1-4.7,5.6-7.7,10.3-6.7
								C364.2,128.5,367.2,133.1,366.2,137.8z"/>
						</g>
						<g>
							<path class="st22" d="M327.3,129.5c-1,4.7-5.6,7.7-10.3,6.7c-4.7-1-7.7-5.6-6.7-10.3c1-4.7,5.6-7.7,10.3-6.7
								C325.3,120.2,328.3,124.8,327.3,129.5z"/>
						</g>
						<g>
							<path class="st28" d="M353.2,101.9c-8.2-4-27.9-9.5-44.3-5.2l-3.1,0.1c-16.3,4.3-20,16.9-11.8,20.9l0,0
								c8.2,4,39.8,9.4,56.1,5.1l10.5-3.1C376.9,115.2,361.3,105.9,353.2,101.9L353.2,101.9z"/>
						</g>
						<g>
							<path class="st0" d="M400.6,104.7l-2.5,11.6c-0.8,3.5-4.2,5.7-7.7,5l-94.7-20.2c-3.5-0.8-5.7-4.2-5-7.7l2.5-11.6
								c0.8-3.5,4.2-5.7,7.7-5L395.6,97C399.2,97.8,401.4,101.2,400.6,104.7"/>
						</g>
						<g>
							<g>
								<path class="st19" d="M299.7,444.8c-0.5,0-0.9,0-1.4-0.1c-7-0.8-12.1-7.1-11.3-14.1c3.1-28.3,2.1-49.8,0.7-76.9
									c-0.3-5.2-0.5-10.6-0.8-16.3c-0.3-7,5.1-13,12.2-13.3c0.2,0,0.4,0,0.6,0c6.8,0,12.4,5.4,12.7,12.2c0.2,5.6,0.5,11,0.8,16.2
									c1.4,27.2,2.5,50.7-0.8,81C311.6,440,306.1,444.8,299.7,444.8z"/>
							</g>
						</g>
						<path class="st23" d="M327.7,186.2c-14.1-2-27.6,2.2-37.8,10.5c-0.8-0.8-1.7-1.5-2.8-2c-50.3-25.3-56.8-30-78.7-83.8
							c-0.2-1-0.8-4.3-3.1-5c-3.1-2.9-7.6-3.9-11.8-2.2c-4.5,1.8-7.2,6.3-6.9,11c0,0.1-0.1,0.1-0.1,0.2c0,0,0,0.1,0.1,0.3
							c0.1,1,0.3,2,0.8,3c24.5,60.1,34.1,68.3,89.1,96c-1.9,4.1-3.2,8.6-3.9,13.3l-9.6,66.6c-3.9,26.6,14.6,51.3,41.2,55.2
							c26.6,3.9,31.3-17.5,35.2-44.1l9.6-66.6C352.8,211.8,354.3,190,327.7,186.2z"/>
						<path class="st0" d="M301.8,319.4c0,0-0.1,0-0.1,0c-0.9-0.1-1.5-0.8-1.5-1.7l0.7-8.8c3.8-50,7.7-101.7,20.6-118.6
							c0.5-0.7,1.5-0.8,2.2-0.3c0.7,0.5,0.8,1.5,0.3,2.2c-12.3,16.1-16.3,69.7-19.9,116.9l-0.7,8.8
							C303.3,318.8,302.6,319.4,301.8,319.4z"/>
						<g>
							<polygon class="st19" points="374.2,359.3 235.4,339.2 264.2,294.9 359.1,308.7 							"/>
						</g>
						<g>
							<polygon class="st23" points="351.2,356 235.4,339.2 264.2,294.9 345.2,306.6 							"/>
						</g>
						<g>
							
								<rect x="263.8" y="278.9" transform="matrix(-0.9897 -0.1432 0.1432 -0.9897 580.1982 623.8218)" class="st22" width="97.4" height="24.4"/>
						</g>
						<g>
							
								<rect x="292.1" y="277.3" transform="matrix(-0.9897 -0.1432 0.1432 -0.9897 564.7086 622.8041)" class="st24" width="25.3" height="27.6"/>
						</g>
					</g>
					<g>
						<g>
							<path class="st96" d="M216.2,440.8c-0.1-0.6-0.2-1.1-0.3-1.7c-1.4,0-6.2-54.1-6-62.1c-1-6.2-13.8-8.9-20.3-7.1
								c-6.5,1.8-11,8.3-9.8,14.5c6.3,31.8,9.3,48.6,10.5,55.4c0.1,1.4,0.4,2.9,0.9,4.3c-0.2,0.6-0.2,1.3-0.2,2
								c0,5.8,6,10.5,13.5,10.5s13.5-4.7,13.5-10.5C218,444.1,217.3,442.3,216.2,440.8z"/>
							<path class="st97" d="M152.8,445.3c0.1-0.5,0.3-1.1,0.4-1.7c-1.3-0.5,14.7-52.5,17.9-59.8c1.4-6.2-9.4-13.4-16.1-14.3
								c-6.7-0.8-13.3,3.5-14.6,9.7c-6.1,31.8-9.7,48.5-11.2,55.3c-0.5,1.4-0.7,2.8-0.8,4.4c-0.4,0.5-0.7,1.1-1,1.7
								c-2.2,5.4,1.6,12,8.5,14.8s14.3,0.7,16.5-4.6C153.2,449.1,153.3,447.2,152.8,445.3z"/>
							<g>
								<path class="st96" d="M236.7,305.9c-5.6,18.3-12.6,40-17.2,59.2c-4.6,23.8-21.8,33.5-45.3,29.5c-0.7-0.1-1.5-0.2-2.2-0.4
									c-0.7-0.1-1.5-0.3-2.3-0.5c-25.6-5.9-39.2-22.9-32.1-47.7c4.4-19.2,5.6-41.1,10.2-59.7c3.9-14.1,6.2-25.4,15.2-31.2
									c8.2-5.5,19.5-7,31.8-5.4c2.7,0.4,5.4,0.9,8.2,1.5c1,0.2,1.9,0.5,2.8,0.7c0.4,0.1,0.7,0.2,1.1,0.3c0.2,0.1,0.4,0.1,0.6,0.2
									c0.1,0,0.3,0.1,0.4,0.1c13.2,4,24,10.8,29.4,20.2c0.8,1.3,1.4,2.7,1.9,4.1C242.2,285.2,239.9,294,236.7,305.9z"/>
							</g>
							<g>
								<path class="st97" d="M201.9,363.6c-4.8,23.4-6.7,33.9-27.7,30.9c-0.7-0.1-1.5-0.2-2.2-0.4c-0.7-0.1-1.5-0.3-2.3-0.5
									c-25.6-5.9-39.2-22.9-32.1-47.7c4.4-19.2,5.6-41.1,10.2-59.7c3.9-14.1,6.2-25.4,15.2-31.2c8.2-5.5,19.5-7,31.8-5.4
									c2.7,0.4,5.4,0.9,8.2,1.5c1,0.2,1.9,0.5,2.8,0.7c0.4,0.1,0.7,0.2,1.1,0.3c0.2,0.1,0.4,0.1,0.6,0.2c0.1,0,0.3,0.1,0.4,0.1
									c15.5,4.7,19.1,13.9,16.5,27.8c-0.1,0.8-0.3,1.6-0.5,2.4c-1.5,6.9-5.1,15.6-6.8,24.3C213,325,206.2,344.5,201.9,363.6z"/>
							</g>
							<g>
								<path class="st96" d="M239,276.8c-1.1,0.6-2.2,1.1-3.3,1.6c-4,1.9-8,3.3-12,4.3c-3.8,0.9-7.6,1.4-11.4,1.4
									c-17.5,0.1-30.7-11.5-39.2-27.9c5.9-3.9,13.2-6,21.4-6.6c2.7,0.4,5.4,0.9,8.2,1.5c1,0.2,1.9,0.5,2.8,0.7
									c0.4,0.1,0.7,0.2,1.1,0.3c0.2,0.1,0.4,0.1,0.6,0.2c0.1,0,0.3,0.1,0.4,0.1c13.2,4,24,10.8,29.4,20.2
									C237.8,273.9,238.4,275.3,239,276.8z"/>
							</g>
							<g>
								<g>
									<path class="st0" d="M203.3,254.6c-9.3-2.3-37.9,118.3-28.2,120.7c-0.6-0.1-1.2-0.3-1.8-0.4
										c-10.7-2.4,16.6-123.7,26.8-121.4C201.7,253.8,201.6,254.2,203.3,254.6z"/>
								</g>
							</g>
							<g>
								<path class="st22" d="M219,367.1c-28.4-1.3-56-7.8-82.1-19.2c1.5-7.8,2.7-15.6,3.5-23.6c27.9,12.6,55.3,19.1,86,20.1
									C223.6,351.9,221.2,359.5,219,367.1z"/>
							</g>
							<g>
								<path class="st24" d="M181,365.1c-7.2-1.3-14.4-3-21.5-5c2-8.6,3.9-17.2,5.7-25.8c7.3,2.1,14.7,3.8,22.2,5.1
									C185.1,348,183,356.6,181,365.1z"/>
							</g>
						</g>
						<g>
							<g>
								<path class="st97" d="M162.7,267.6c0,0-1.5,1-4.2,2.9c-1.7,1-3.8,2.1-6.2,3.4c-2.2,1-4.7,2.3-7.4,3.5
									c-2.7,1.1-5.6,2.5-8.7,3.6c-1.5,0.6-3.1,1.2-4.8,1.8c-1.6,0.6-3.3,1.2-5,1.8c-3.4,1.2-6.9,2.3-10.5,3.5
									c-3.6,1.1-7.2,2.3-10.9,3.3c-3.6,1.1-7.3,2.1-10.9,3.1c-3.6,1-7.2,1.9-10.6,2.8c-3.4,0.9-6.8,1.6-10,2.4
									c-3.2,0.7-6.3,1.4-9.1,2c-2.9,0.5-5.4,1.1-7.8,1.5c-2.4,0.4-4.4,0.8-6.1,1c-3.5,0.5-5.5,0.8-5.5,0.8
									c-8.4,1.1-16.1-4.7-17.3-13.1c-1.1-8.4,4.7-16.1,13.1-17.3c0.5-0.1,1-0.1,1.5-0.1l0.5,0c0,0,1.7-0.1,4.6-0.2
									c1.5-0.1,3.3-0.2,5.5-0.4c2.1-0.1,4.6-0.4,7.2-0.7c2.7-0.3,5.6-0.6,8.6-1c3.1-0.4,6.3-0.8,9.6-1.3c3.3-0.5,6.8-1,10.3-1.6
									c3.5-0.6,7.1-1.3,10.6-1.9c3.5-0.7,7.1-1.4,10.6-2.2c3.4-0.8,6.9-1.5,10.1-2.4c1.6-0.4,3.2-0.8,4.8-1.2
									c1.5-0.4,3-0.9,4.5-1.3c3-0.8,5.6-1.7,8.1-2.5c2.5-0.8,4.6-1.7,6.6-2.4c1.6-0.7,3.1-1.3,4.3-1.8c2.8-1.5,4.5-2.4,4.5-2.4
									l0.1-0.1c4.6-2.5,10.4-0.8,12.9,3.8C168.1,259.5,166.7,264.8,162.7,267.6z"/>
							</g>
						</g>
						<g>
							<g>
								<path class="st97" d="M145.9,165.2c0,0,74.1-58.8,111.2-73.2c0,0-34.3,51-15.6,76.4L145.9,165.2"/>
							</g>
							<g>
								<path class="st96" d="M211.7,172.1c0,0,8.4-65.6,45.4-80c0,0-34.3,51-15.6,76.4L211.7,172.1z"/>
							</g>
							<g>
								<path class="st25" d="M237.5,237c-8.3,14.6-23.9,24.2-41.5,24.2c-1.2,0-2.4,0-3.6-0.1c-19-1.4-34.5-13.7-41-30.3
									c-24.8-1.5-13.1-50.3-13.1-50.3l11.9,19c6-19.8,24.5-33.9,45.7-33.9c1.2,0,2.4,0,3.6,0.1c23.6,1.7,41.9,20.3,44.1,43
									l16.5-19.2C260,189.5,264.7,242.3,237.5,237z"/>
							</g>
							<g>
								<path class="st0" d="M227.9,231.6c-3.4,11.8-14.2,20.5-27.1,20.6s-23.9-8.4-27.5-20.1L227.9,231.6z"/>
							</g>
							<g>
								<path class="st22" d="M168.2,204.5c-0.3,4.7,3.2,8.8,7.9,9.1c4.7,0.3,8.8-3.2,9.1-7.9c0.3-4.7-3.2-8.8-7.9-9.1
									C172.6,196.3,168.5,199.8,168.2,204.5z"/>
							</g>
							<g>
								<path class="st22" d="M207.1,207.4c-0.3,4.7,3.2,8.8,7.9,9.1c4.7,0.3,8.8-3.2,9.1-7.9s-3.2-8.8-7.9-9.1
									C211.5,199.2,207.4,202.7,207.1,207.4z"/>
							</g>
							<g>
								<path class="st0" d="M144.8,163.9l-0.9,11.6c-0.3,3.5,2.4,6.6,5.9,6.8l94.7,7c3.5,0.3,6.6-2.4,6.8-5.9l0.9-11.6
									c0.3-3.5-2.4-6.6-5.9-6.8l-94.7-7C148.1,157.7,145.1,160.3,144.8,163.9"/>
							</g>
							<g>
								<path class="st0" d="M247.4,87.1c-1.2,5.5,2.4,11,7.9,12.1c5.5,1.2,11-2.4,12.1-7.9c1.2-5.5-2.4-11-7.9-12.1
									C254,78,248.5,81.6,247.4,87.1z"/>
							</g>
						</g>
						<g>
							<g>
								<path class="st96" d="M249.4,276.2c0,0,1.1,1.5,2.9,4.2c0.9,1,1.9,2.1,3.1,3.5c1.5,1.5,3,3.2,4.9,5c1.9,1.8,3.9,3.8,6.2,5.8
									c1.1,1,2.3,2.1,3.5,3.1c1.2,1,2.5,2.1,3.8,3.2c2.5,2.2,5.3,4.4,8,6.6c2.8,2.2,5.6,4.4,8.5,6.6c2.9,2.2,5.8,4.4,8.7,6.4
									c2.9,2.1,5.7,4.1,8.5,6.1c2.8,2,5.5,3.7,8,5.5c2.6,1.7,5,3.3,7.3,4.7c2.3,1.4,4.3,2.7,6.2,3.8c1.8,1.1,3.4,2,4.7,2.8
									c2.6,1.4,4,2.2,4,2.2l0.4,0.2c7.4,4,10.2,13.3,6.1,20.8s-13.3,10.2-20.8,6.1c-0.4-0.2-0.9-0.5-1.3-0.8c0,0-1.7-1.1-4.6-3.1
									c-1.4-1-3.1-2.2-5-3.6c-1.9-1.4-4-3-6.3-4.8c-2.3-1.8-4.7-3.7-7.3-5.8c-2.5-2.1-5.2-4.3-7.9-6.6c-2.7-2.3-5.5-4.7-8.3-7.2
									c-2.8-2.5-5.6-5-8.4-7.6c-2.8-2.6-5.5-5.2-8.2-7.8c-2.7-2.7-5.3-5.2-7.8-7.8c-1.2-1.3-2.5-2.6-3.7-3.8
									c-1.2-1.3-2.3-2.5-3.5-3.8c-2.3-2.4-4.3-4.9-6.2-7.1c-1.9-2.3-3.6-4.5-5.1-6.4c-1.6-2.2-2.9-4.2-4-5.8
									c-1.6-2.8-2.5-4.4-2.5-4.4c-2.6-4.6-1-10.4,3.6-13c4.3-2.4,9.7-1.2,12.5,2.8L249.4,276.2z"/>
							</g>
						</g>
						<path class="st25" d="M356.4,359.7c-0.7-0.5-1.3-1-2-1.5c0.9-0.5,1.8-1,2.8-1.6c2.8-1.6,3.7-5.2,2-8c-1.6-2.8-5.2-3.7-8-2
							c-5.1,3-6.5,3.3-8,3.6c-2.1,0.4-4,0.9-7.6,3.1c-0.2,0.1-0.4,0.3-0.6,0.4c-1.5,0.7-2.9,1.9-4.1,3.4c-6.8,8.6-5,21.2,4,27.6
							c8,5.7,21.5,6.6,27.8-0.8C370,375.6,365,366.5,356.4,359.7z"/>
						<path class="st25" d="M41.8,284.8c-0.8-1.9-1.8-3.3-3-4.4c-0.1-0.2-0.3-0.4-0.5-0.6c-2.9-3.1-4.6-4.1-6.5-5.1
							c-1.3-0.7-2.6-1.4-6.7-5.6c-2.2-2.3-5.9-2.4-8.2-0.2c-2.3,2.2-2.4,5.9-0.2,8.2c0.8,0.9,1.6,1.6,2.3,2.3
							c-0.8,0.3-1.6,0.6-2.4,0.9c-10.1,4.1-17.4,11.5-12.8,21.5c4.1,8.9,17.3,11.6,26.6,8.4C40.8,306.5,46,294.9,41.8,284.8z"/>
					</g>
				</g>
			</g>
			<rect x="64" y="43" style="clip-path:url(#SVGID_3_);fill:none;" width="377" height="347"/>
		</g>
	</g>
	<g id="New_Symbol_15">
	</g>
	<g id="New_Symbol_12">
	</g>
</g>
<g id="leftovers" class="st101">
</g>
</svg>
