<?xml version="1.0" encoding="utf-8"?>
<!-- Generator: Adobe Illustrator 23.0.1, SVG Export Plug-In . SVG Version: 6.00 Build 0)  -->
<svg version="1.1" id="Layer_1" xmlns="http://www.w3.org/2000/svg" xmlns:xlink="http://www.w3.org/1999/xlink" x="0px" y="0px"
	 viewBox="0 0 211 527" style="enable-background:new 0 0 211 527;" xml:space="preserve">
<style type="text/css">
	.st0{opacity:0.15;}
	.st1{fill:#B757C5;}
</style>
<title>tray_lg</title>
<g>
	<g>
		<g id="Layer_1-2">
			<g class="st0">
				<path d="M211,105.6v-50l0,0V35.1c0-19.4-13.2-19.1-22-19.1c-8.5,0-26.7,2.1-38,2.1c-16.7,0-36.9-6.3-41.4-10.4
					c-0.4-0.3-0.9-0.3-1.3,0c-4.5,4.1-24.7,10.4-41.4,10.4c-11.3,0-29.5-2.1-38-2.1c-8.8,0-22-0.3-22,19.1v464.3
					c0,19.4,13.2,19.1,22,19.1c8.5,0,26.7-2.1,38-2.1c16.7,0,36.9,6.3,41.4,10.4c0.4,0.3,0.9,0.3,1.3,0c4.5-4.1,24.7-10.4,41.4-10.4
					c11.3,0,29.5,2.1,38,2.1c8.8,0,22,0.3,22-19.1V113.7l0,0V105.6z"/>
			</g>
			<path class="st1" d="M204,98.2v-50l0,0V27.6c0-19.4-13.2-19.1-22-19.1c-8.5,0-26.7,2.1-38,2.1c-16.7,0-36.9-6.3-41.4-10.4
				c-0.4-0.3-0.9-0.3-1.3,0C96.9,4.4,76.7,10.6,60,10.6c-11.3,0-29.5-2.1-38-2.1c-8.8,0-22-0.3-22,19.1v464.3
				c0,19.4,13.2,19.1,22,19.1c8.5,0,26.7-2.1,38-2.1c16.7,0,36.9,6.3,41.4,10.4c0.4,0.3,0.9,0.3,1.3,0c4.5-4.1,24.7-10.4,41.4-10.4
				c11.3,0,29.5,2.1,38,2.1c8.8,0,22,0.3,22-19.1V106.2l0,0V98.2z"/>
		</g>
	</g>
</g>
</svg>
