<svg xmlns="http://www.w3.org/2000/svg" width="30.3" height="30.3" viewBox="0 0 30.3 30.3"><path d="M24 11.5c-.9-2 .4-4.6 3-5.8-.9-1.1-1.8-2-2.9-2.8-1 2.6-3.5 4.1-5.6 3.4-2.1-.8-3-3.5-2-6.2-1.3-.1-2.6 0-4 .2 1 2.5.3 5.2-1.6 6.2-2 .8-4.4-.4-5.7-2.8-1 .8-1.8 1.8-2.5 2.8C5 7.7 6.3 9.9 5.6 11.9c-.7 1.9-3.1 2.8-5.5 2.2-.1 1.2 0 2.4.2 3.5 2.3-.7 4.7.1 5.5 1.9.8 1.8-.1 4-2.2 5.4.8.9 1.6 1.7 2.5 2.4 1.2-2.1 3.3-3.2 5.2-2.5 1.9.7 2.8 3 2.3 5.4 1.2.1 2.3.1 3.5 0-.7-2.3 0-4.7 1.9-5.5 1.9-.9 4.3.2 5.6 2.5 1-.8 1.9-1.6 2.6-2.6-2.3-1.1-3.6-3.4-2.9-5.4.8-2 3.4-2.9 6-2.1.2-1.3.2-2.6 0-3.9-2.7 1-5.4.3-6.3-1.7zm-7.2 7.7c-2.2 1-4.7 0-5.7-2.1-1-2.2 0-4.7 2.1-5.7 2.2-1 4.7 0 5.7 2.1s0 4.7-2.1 5.7z" fill="#58595B"/></svg>
