{
    "accessors" : [
        {
            "bufferView" : 0, 
            "componentType" : 5123, 
            "count" : 2964, 
            "max" : [
                2963
            ], 
            "min" : [
                0
            ], 
            "type" : "SCALAR"
        }, 
        {
            "bufferView" : 1, 
            "componentType" : 5126, 
            "count" : 2964, 
            "max" : [
                1.2943140268325806, 
                6.590763092041016, 
                3.6700940132141113
            ], 
            "min" : [
                -1.2835060358047485, 
                -0.014365429989993572, 
                -1.928670048713684
            ], 
            "type" : "VEC3"
        }, 
        {
            "bufferView" : 2, 
            "componentType" : 5126, 
            "count" : 2964, 
            "max" : [
                1.0, 
                1.0, 
                0.9997380375862122
            ], 
            "min" : [
                -1.0, 
                -1.0, 
                -1.0
            ], 
            "type" : "VEC3"
        }, 
        {
            "bufferView" : 3, 
            "componentType" : 5126, 
            "count" : 2964, 
            "max" : [
                0.9999998807907104, 
                0.9977057576179504, 
                0.9928669333457947, 
                1.0
            ], 
            "min" : [
                -0.9998220205307007, 
                -0.9935094714164734, 
                -1.0, 
                1.0
            ], 
            "type" : "VEC4"
        }, 
        {
            "bufferView" : 4, 
            "componentType" : 5126, 
            "count" : 2964, 
            "max" : [
                0.9979138374328613, 
                0.9993695840239525
            ], 
            "min" : [
                0.0013628900051116943, 
                0.014135241508483887
            ], 
            "type" : "VEC2"
        }, 
        {
            "bufferView" : 5, 
            "componentType" : 5126, 
            "count" : 2964, 
            "max" : [
                0.0, 
                1.0
            ], 
            "min" : [
                0.0, 
                1.0
            ], 
            "type" : "VEC2"
        }
    ], 
    "asset" : {
        "generator" : "Khronos Blender glTF 2.0 exporter", 
        "version" : "2.0"
    }, 
    "bufferViews" : [
        {
            "buffer" : 0, 
            "byteLength" : 5928, 
            "byteOffset" : 0, 
            "target" : 34963
        }, 
        {
            "buffer" : 0, 
            "byteLength" : 35568, 
            "byteOffset" : 5928, 
            "target" : 34962
        }, 
        {
            "buffer" : 0, 
            "byteLength" : 35568, 
            "byteOffset" : 41496, 
            "target" : 34962
        }, 
        {
            "buffer" : 0, 
            "byteLength" : 47424, 
            "byteOffset" : 77064, 
            "target" : 34962
        }, 
        {
            "buffer" : 0, 
            "byteLength" : 23712, 
            "byteOffset" : 124488, 
            "target" : 34962
        }, 
        {
            "buffer" : 0, 
            "byteLength" : 23712, 
            "byteOffset" : 148200, 
            "target" : 34962
        }
    ], 
    "buffers" : [
        {
            "byteLength" : 171912, 
            "uri" : "elf-ski.bin"
        }
    ], 
    "images" : [
        {
            "uri" : "elf-tidy.png"
        }
    ], 
    "materials" : [
        {
            "name" : "Material.002", 
            "pbrMetallicRoughness" : {
                "baseColorFactor" : [
                    0.6399999713897699, 
                    0.6399999713897699, 
                    0.6399999713897699, 
                    1.0
                ], 
                "baseColorTexture" : {
                    "index" : 0
                }, 
                "metallicFactor" : 0.0
            }
        }
    ], 
    "meshes" : [
        {
            "name" : "elf_geometry.004", 
            "primitives" : [
                {
                    "attributes" : {
                        "NORMAL" : 2, 
                        "POSITION" : 1, 
                        "TANGENT" : 3, 
                        "TEXCOORD_0" : 4, 
                        "TEXCOORD_1" : 5
                    }, 
                    "indices" : 0, 
                    "material" : 0
                }
            ]
        }
    ], 
    "nodes" : [
        {
            "mesh" : 0, 
            "name" : "elf_skiing_baked"
        }
    ], 
    "samplers" : [
        {}
    ], 
    "scene" : 0, 
    "scenes" : [
        {
            "name" : "Scene", 
            "nodes" : [
                0
            ]
        }
    ], 
    "textures" : [
        {
            "sampler" : 0, 
            "source" : 0
        }
    ]
}
