<svg xmlns="http://www.w3.org/2000/svg" xmlns:xlink="http://www.w3.org/1999/xlink" width="204.4" height="266.3" viewBox="74 -106.3 204.4 266.3" enable-background="new 74 -106.3 204.4 266.3"><path stroke="#FFE18C" stroke-width="12" stroke-linecap="round" stroke-miterlimit="10" d="M150.5 18.2c8.1.7 13.1 35.7 44.4 16.7" fill="none"/><path opacity=".2" stroke="#808285" stroke-width="12" stroke-linecap="round" stroke-miterlimit="10" enable-background="new" d="M150.5 18.2c8.1.7 13.1 35.7 44.4 16.7" fill="none"/><path stroke="#fff" stroke-width=".739" stroke-miterlimit="10" fill="none" d="M130.7 11v77.1"/><path fill="#332E2E" d="M159.3 79.3V78v1.3z"/><path fill="#332E2E" d="M101.6 79.3V78v1.3z"/><path fill="#F9CE1D" d="M123.2 63.9h15v16.4h-15z"/><path fill="#212121" d="M151.7 26.5c-7.3-2.7-15.4-2.1-22.2 1.5l-.3.2c-6.2 3.4-8.9 8.1-9 8.4-.7 1.2-1.9 2.3-3.3 3.1-1.8.9-3.7 1.3-5.3 1-.5-.1-11.4-2-20.3 2.7l-.3.1c-7.6 4.2-13.1 11-15.5 19.3S74 79.9 78.2 87.5c8.5 15.5 28 21.3 43.6 13.1l.4-.2c9-4.9 13.3-15.4 13.5-15.8.7-1.6 2.1-3.1 4-4.1 1.4-.7 2.8-1.1 4.1-1 .2 0 5.5.3 11.6-2.9l.3-.2c.1-.1.2-.1.4-.3.7-.4 1.1-1.3.9-2.1s-.9-1.4-1.7-1.5c-7.1-.7-13.3-4.9-16.7-11.1-5.7-10.4-1.9-23.5 8.5-29.2l.2-.1c1.4-.7 2.9-1.3 4.6-1.8.1 0 .3-.1.4-.2.9-.5 1.3-1.7.8-2.6-.4-.5-.9-.9-1.4-1z"/><path fill="#E09D17" d="M241.2-4.8l3.2-6.1 30.4-9.5 3.5 6.6-22.9 21.4-9-2.4-5.2-10z"/><path fill="#74431D" d="M241.2-4.8l-111 58.7 5.3 10 111-58.7-5.3-10z"/><defs><path id="a" d="M241.2-4.8l-111 58.7 5.3 10 111-58.7z"/></defs><clipPath id="b"><use xlink:href="#a" overflow="visible"/></clipPath><g clip-path="url(#b)" stroke="#fff" stroke-width="1.161" stroke-miterlimit="10" fill="none"><path d="M138.8 47.1l7.5 14.2"/><path d="M148.5 42l7.5 14.2"/><path d="M158.2 36.9l7.5 14.2"/><path d="M167.9 31.7l7.5 14.2"/><path d="M177.6 26.6l7.5 14.2"/><path d="M187.3 21.5l7.5 14.2"/><path d="M197 16.3l7.5 14.2"/><path d="M206.7 11.2l7.5 14.2"/><path d="M216.4 6.1l7.5 14.2"/><path d="M227.8.1l7.5 14.2"/></g><path fill="#424242" d="M136.2 62.6c-2.7-5-3.5-10.5-2.6-15.6l-8.4 4.5s13.5 27.9-14.4 42.6c-9.9 5.3-23.3.9-23.3.9 9 7.4 22 9.1 32.8 3.3l.4-.2c8.2-4.5 12.2-14.1 12.4-14.5.9-2.2 2.8-4.1 5.1-5.4 1.8-.9 3.7-1.4 5.5-1.3 0 0 4.2.2 9.2-2.1-7.1-1.4-13.2-5.8-16.7-12.2z"/><path fill="#BDBDBD" d="M98.863 86.1l-7.602 4.023-7.2-13.612 7.6-4.02z"/><circle fill="#333" cx="248.2" cy="-16.1" r="2.4"/><circle fill="#333" cx="254.9" cy="-18.2" r="2.4"/><circle fill="#333" cx="261.6" cy="-20.3" r="2.4"/><circle fill="#333" cx="268.3" cy="-22.4" r="2.4"/><path fill="#FFE18C" d="M205.8 34.9c0 6-4.9 10.9-10.9 10.9S184 40.9 184 34.9 188.9 24 194.9 24s10.9 4.9 10.9 10.9z"/><path fill="#FFE18C" d="M205.8 34.9c0 6-4.9 10.9-10.9 10.9S184 40.9 184 34.9 188.9 24 194.9 24s10.9 4.9 10.9 10.9z"/><path stroke="#FFE18C" stroke-width="12" stroke-linecap="round" stroke-miterlimit="10" d="M110.7 18.2c-18.2 1.3-28.8 29.6-1.3 52.7" fill="none"/><path fill="#FFE18C" d="M98.6 70.9c0 6 4.9 10.9 10.9 10.9s10.9-4.9 10.9-10.9S115.5 60 109.5 60c-6.1 0-10.9 4.9-10.9 10.9z"/></svg>