<svg xmlns="http://www.w3.org/2000/svg" width="132.1" height="270" viewBox="0 0 134.1 270"><g><g data-name="Bell"><g><g><g><g><circle cx="54.2" cy="9.9" r="9.9" fill="#fff"/><path fill="#ec407a" d="M82.7 76.7L54.2 19.8 25.7 76.7h57z"/></g><path d="M81.4 83.8a8.3 8.3 0 0 1-7.9-5.9 20.2 20.2 0 0 0-38.5 0 8.3 8.3 0 1 1-15.9-5 36.8 36.8 0 0 1 70.3 0 8.4 8.4 0 0 1-5.5 10.5 7.3 7.3 0 0 1-2.5.4z" fill="#fff"/></g><path d="M20.5 90.6a33.7 33.7 0 0 1 67.4 0z" fill="#a14343"/><g><path d="M92 70.7L77.4 85.3a7.3 7.3 0 0 0-2.2 5.3 7.6 7.6 0 0 0 7.5 7.6 7.2 7.2 0 0 0 5.3-2.3c9.1-9 4-25.2 4-25.2zM31.1 85.3L16.5 70.7s-5.2 16.2 3.9 25.2a7.5 7.5 0 0 0 12.9-5.3 7.7 7.7 0 0 0-2.2-5.3z" fill="#9b643d"/><g fill="#4caf50"><circle cx="85.9" cy="100.5" r="7.5"/><circle cx="22.5" cy="100.5" r="7.5"/></g></g><circle cx="54.2" cy="90.6" r="28.5" fill="#9b643d"/><g><g fill="#332e2e"><path d="M48.5 82.5a5.8 5.8 0 0 1-5.8 5.7 5.8 5.8 0 0 1 0-11.5 5.8 5.8 0 0 1 5.8 5.8zM71.5 82.5a5.8 5.8 0 1 1-5.8-5.8 5.8 5.8 0 0 1 5.8 5.8z"/></g><path d="M71.5 94A17.3 17.3 0 0 1 37 94z" fill="#fff"/></g></g><g fill="#a14343"><circle cx="54.2" cy="63.7" r="6.8"/><path d="M54.2 70.5h5a13.6 13.6 0 1 0 0-27.1 7.5 7.5 0 0 1 2.7 5.8 7.6 7.6 0 0 1-7.7 7.7z"/></g></g></g></g></svg>