<svg id="Layer_1" xmlns="http://www.w3.org/2000/svg" width="117.3" height="266.3" viewBox="0 0 117.3 266.3"><style>.st0{fill:#74431d}.st1{fill:#9a633c}.st2{fill:none;stroke:#e3368d;stroke-width:12;stroke-linecap:round;stroke-miterlimit:10}</style><path class="st0" d="M72.2 152.6c.3-1 1.1-1.7 2.2-1.9l24.6-3.4c.7-.1 1.3.3 1.5 1 .1.7-.3 1.3-1 1.5l-23.9 6.7c-1.6.3-3.2-.7-3.5-2.3-.1-.6-.1-1.1.1-1.6z"/><path class="st1" d="M60.3 155.5c-1.4 5.9 2.2 11.8 8.1 13.2s11.8-2.2 13.2-8.1c1.4-5.9-2.2-11.8-8.1-13.2s-11.8 2.2-13.2 8.1z"/><path class="st2" d="M23.9 125.7c-5.5 7.5-27.8 37.1 39.5 33.1"/></svg>