<svg xmlns="http://www.w3.org/2000/svg" width="117.3" height="266.3" viewBox="-420 147.7 117.3 266.3" enable-background="new -420 147.7 117.3 266.3"><path fill="#74431D" d="M-324.4 242.1c-.9.5-1.6 1.5-1.6 2.6l-.4 25.1c0 1.7 1.3 3.1 3 3.1s3.1-1.3 3.1-3l.4-25.1c0-1.7-1.3-3.1-3-3.1-.5-.1-1.1.1-1.5.4z"/><path fill="#FDBE27" d="M-342.8 294.2"/><path fill="#E09D17" d="M-342.6 294.2c4.7-3 5.7-15.2 5.7-15.2.1-8.5 6.2-15.2 13.5-15.1h.2c7.3.1 13.1 7.1 13 15.5 0 0 .6 12.2 5.2 15.4l-17 4.7-20.6-5.3z"/><path fill="#E09D17" d="M-344.942 293.963l42.296.698-.135 8.2-42.297-.698z"/></svg>