<svg xmlns="http://www.w3.org/2000/svg" width="192.8" height="266" viewBox="68 -106 192.8 266" enable-background="new 68 -106 192.8 266"><path fill="#fff" d="M124-99.8c0 3.4 2.8 6.2 6.2 6.2 3.4 0 6.2-2.8 6.2-6.2 0-3.4-2.8-6.2-6.2-6.2-3.4 0-6.2 2.8-6.2 6.2z"/><path fill="#2297CC" d="M198.3-46s-42-38.7-63.7-49c0 0 18.4 32.2 6 46.7l57.7 2.3z"/><path fill="#29B6F6" d="M180.3-46s-24-38.7-45.6-49c0 0 18.4 32.2 6 46.7l39.6 2.3z"/><path fill="#FFE18C" d="M194.9-19.2C194.9-3.3 182 9.7 166 9.7c-15.9 0-28.9-12.9-28.9-28.9 0-15.9 12.9-28.9 28.9-28.9 16 0 28.9 12.9 28.9 28.9z"/><path fill="#fff" d="M144.2-12.8C147-3.4 155.7 3.5 166 3.5s19.1-6.9 21.8-16.3h-43.6z"/><path fill="#FFE18C" d="M168.2-10.3h-4.3l-.9-6.2h6.1z"/><path fill="#332E2E" d="M183.1-23.3c0 2.8-2.3 5.2-5.2 5.2s-5.2-2.3-5.2-5.2c0-2.8 2.3-5.2 5.2-5.2 2.9 0 5.2 2.3 5.2 5.2z"/><path fill="#332E2E" d="M159.6-23.3c0 2.8-2.3 5.2-5.2 5.2s-5.2-2.3-5.2-5.2c0-2.8 2.3-5.2 5.2-5.2 2.9 0 5.2 2.3 5.2 5.2z"/><path fill="#fff" d="M199-39.7c0 2.1-1.7 3.8-3.8 3.8h-57.4c-2.1 0-3.8-1.7-3.8-3.8v-7c0-2.1 1.7-3.8 3.8-3.8h57.3c2.1 0 3.8 1.7 3.8 3.8l.1 7z"/><path fill="#BDBDBD" stroke="#424242" stroke-width="1.161" stroke-miterlimit="10" d="M161.2-18.2h-13.5c-1.5 0-2.7-1.2-2.7-2.7v-4.8c0-1.5 1.2-2.7 2.7-2.7h13.6c1.5 0 2.7 1.2 2.7 2.7v4.7c-.1 1.5-1.3 2.8-2.8 2.8z"/><path fill="#BDBDBD" stroke="#424242" stroke-width="1.161" stroke-miterlimit="10" d="M184.8-18.2h-13.6c-1.5 0-2.7-1.2-2.7-2.7v-4.8c0-1.5 1.2-2.7 2.7-2.7h13.6c1.5 0 2.7 1.2 2.7 2.7v4.7c0 1.5-1.2 2.8-2.7 2.8z"/><path stroke="#424242" stroke-width="1.161" stroke-miterlimit="10" fill="none" d="M163.9-23.3h4.6"/><path stroke="#424242" stroke-width="1.161" stroke-miterlimit="10" fill="none" d="M187.5-23.3l9.5-3.2"/><path stroke="#424242" stroke-width="1.161" stroke-miterlimit="10" fill="none" d="M144.9-23.3l-9.5-3.2"/><path fill="#FFE18C" d="M192.7-23.5l9.5-13s5.5 33.4-13 29.3l3.5-16.3z"/><path fill="#FFE18C" d="M139.4-23.5l-9.5-13s-5.5 33.4 13 29.3l-3.5-16.3z"/><path stroke="#BDBDBD" stroke-width="1.161" stroke-miterlimit="10" d="M197-12.7c1.6 0 3 2.6 3 5.9s-1.3 5.9-3 5.9c-1.6 0-3-2.6-3-5.9" fill="none"/><path stroke="#BDBDBD" stroke-width="1.161" stroke-miterlimit="10" d="M135.4-12.7c-1.6 0-3 2.6-3 5.9s1.3 5.9 3 5.9 3-2.6 3-5.9" fill="none"/><circle fill="#BDBDBD" cx="197" cy="-.8" r="1.7"/><circle fill="#BDBDBD" cx="135.4" cy="-.8" r="1.7"/></svg>