<svg id="Layer_1" xmlns="http://www.w3.org/2000/svg" width="192.8" height="266" viewBox="0 0 192.8 266"><style>.st0{fill:#fff}.st1{fill:#2297cc}.st2{fill:#29b6f6}.st3{fill:#594539}.st4{fill:#332e2e}.st5,.st6,.st7{fill:#232323;stroke:#0e0e0e;stroke-width:1.1605;stroke-miterlimit:10}.st6,.st7{fill:none;stroke:#787878}.st7{stroke:#f9ce1d}.st8{fill:#f9ce1d}</style><path class="st0" d="M56 6.2c0 3.4 2.8 6.2 6.2 6.2 3.4 0 6.2-2.8 6.2-6.2S65.6 0 62.2 0C58.8 0 56 2.8 56 6.2z"/><path class="st1" d="M130.3 60s-42-38.7-63.7-49c0 0 18.4 32.2 6 46.7l57.7 2.3z"/><path class="st2" d="M112.3 60s-24-38.7-45.6-49c0 0 18.4 32.2 6 46.7l39.6 2.3z"/><path class="st3" d="M126.9 86.8c0 15.9-12.9 28.9-28.9 28.9-15.9 0-28.9-12.9-28.9-28.9C69.1 70.9 82 57.9 98 57.9s28.9 12.9 28.9 28.9z"/><path class="st0" d="M76.2 93.2c2.8 9.4 11.5 16.3 21.8 16.3s19.1-6.9 21.8-16.3H76.2z"/><path class="st3" d="M100.2 95.7h-4.3l-.9-6.2h6.1l-.9 6.2z"/><path class="st4" d="M115.1 82.7c0 2.8-2.3 5.2-5.2 5.2-2.9 0-5.2-2.3-5.2-5.2 0-2.8 2.3-5.2 5.2-5.2 2.9 0 5.2 2.3 5.2 5.2zm-23.5 0c0 2.8-2.3 5.2-5.2 5.2-2.9 0-5.2-2.3-5.2-5.2 0-2.8 2.3-5.2 5.2-5.2 2.9 0 5.2 2.3 5.2 5.2z"/><path class="st0" d="M131 66.3c0 2.1-1.7 3.8-3.8 3.8H69.8c-2.1 0-3.8-1.7-3.8-3.8v-7c0-2.1 1.7-3.8 3.8-3.8h57.3c2.1 0 3.8 1.7 3.8 3.8l.1 7z"/><path class="st5" d="M93.2 87.8H79.7c-1.5 0-2.7-1.2-2.7-2.7v-4.8c0-1.5 1.2-2.7 2.7-2.7h13.6c1.5 0 2.7 1.2 2.7 2.7V85c-.1 1.5-1.3 2.8-2.8 2.8zm23.6 0h-13.6c-1.5 0-2.7-1.2-2.7-2.7v-4.8c0-1.5 1.2-2.7 2.7-2.7h13.6c1.5 0 2.7 1.2 2.7 2.7V85c0 1.5-1.2 2.8-2.7 2.8z"/><path class="st6" d="M95.9 82.7h4.6m19 0l9.5-3.2m-52.1 3.2l-9.5-3.2"/><path class="st3" d="M124.7 82.5l9.5-13s5.5 33.4-13 29.3l3.5-16.3zm-53.3 0l-9.5-13s-5.5 33.4 13 29.3l-3.5-16.3z"/><path class="st7" d="M129 94.5c1.1 0 2 1.7 2 4 0 2.2-.9 4-2 4s-2-1.7-2-4"/><circle class="st8" cx="129" cy="102.5" r="1.1"/></svg>