<svg id="Layer_1" xmlns="http://www.w3.org/2000/svg" width="192.8" height="266" viewBox="0 0 192.8 266"><style>.st0{stroke:#2297cc;stroke-width:12}.st0,.st1,.st2{fill:none;stroke-linecap:round;stroke-miterlimit:10}.st1{stroke:#f9ce1d;stroke-width:3.481}.st2{stroke:#fce68d;stroke-width:5.802}.st3{fill:#594539}.st4{fill:none;stroke:#29b6f6;stroke-width:12;stroke-linecap:round;stroke-miterlimit:10}.st5{fill:#2297cc}.st6{fill:#29b6f6}.st7{fill:#fff}.st8{fill:none;stroke:#fff;stroke-width:.739;stroke-miterlimit:10}.st9{fill:#332e2e}.st10{fill:#fdd500}.st11,.st12,.st13{fill:#232323;stroke:#0e0e0e;stroke-width:1.1605;stroke-miterlimit:10}.st12,.st13{fill:none;stroke:#787878}.st13{stroke:#f9ce1d}.st14{fill:#f9ce1d}.st15,.st16{fill:none;stroke:#fff;stroke-width:2.321;stroke-linecap:round;stroke-miterlimit:10}.st16{stroke:#f9ce1d;stroke-width:3.481;stroke-linejoin:round}.st17{fill:#4373e0}.st18{fill:#e91c24}.st19{stroke-linecap:round}.st19,.st20{fill:#4373e0;stroke:#f9ce1d;stroke-width:3.481;stroke-miterlimit:10}.st21{fill:#212121}</style><path class="st0" d="M117.2 124.5c8.1.7 21.4 29 42.5 35.7"/><path class="st1" d="M188.5 132.4l-28.8 28.8"/><path class="st3" d="M170.6 160.2c0 6-4.9 10.9-10.9 10.9s-10.9-4.9-10.9-10.9 4.9-10.9 10.9-10.9 10.9 4.9 10.9 10.9z"/><path class="st4" d="M77.4 124.5c-8.1.7-21.4 29-42.5 35.7"/><path class="st5" d="M126 184.3c0 15.9-12.9 28.9-28.9 28.9-15.9 0-28.9-12.9-28.9-28.9v-39.8c0-15.9 12.9-28.9 28.9-28.9 15.9 0 28.9 12.9 28.9 28.9v39.8z"/><path class="st6" d="M114 184.3c0 15.9-.9 28.9-16.9 28.9-15.9 0-28.9-12.9-28.9-28.9v-39.8c0-15.9 12.9-28.9 28.9-28.9 15.9 0 16.9 12.9 16.9 28.9v39.8z"/><path class="st7" d="M56 6.2c0 3.4 2.8 6.2 6.2 6.2 3.4 0 6.2-2.8 6.2-6.2S65.6 0 62.2 0C58.8 0 56 2.8 56 6.2z"/><path class="st8" d="M97.4 117.3v77.1"/><path class="st9" d="M68.3 171.2H126v14.4H68.3v-14.4z"/><path class="st10" d="M89.9 170.2h15v16.4h-15v-16.4z"/><path class="st1" d="M6.2 132.4L35 161.2"/><path class="st5" d="M130.3 60s-42-38.7-63.7-49c0 0 18.4 32.2 6 46.7l57.7 2.3z"/><path class="st6" d="M112.3 60s-24-38.7-45.6-49c0 0 18.4 32.2 6 46.7l39.6 2.3z"/><path class="st3" d="M126.9 86.8c0 15.9-12.9 28.9-28.9 28.9-15.9 0-28.9-12.9-28.9-28.9C69.1 70.9 82 57.9 98 57.9s28.9 12.9 28.9 28.9z"/><path class="st7" d="M76.2 93.2c2.8 9.4 11.5 16.3 21.8 16.3s19.1-6.9 21.8-16.3H76.2z"/><path class="st3" d="M100.2 95.7h-4.3l-.9-6.2h6.1l-.9 6.2z"/><path class="st9" d="M115.1 82.7c0 2.8-2.3 5.2-5.2 5.2-2.9 0-5.2-2.3-5.2-5.2 0-2.8 2.3-5.2 5.2-5.2 2.9 0 5.2 2.3 5.2 5.2zm-23.5 0c0 2.8-2.3 5.2-5.2 5.2-2.9 0-5.2-2.3-5.2-5.2 0-2.8 2.3-5.2 5.2-5.2 2.9 0 5.2 2.3 5.2 5.2z"/><path class="st7" d="M131 66.3c0 2.1-1.7 3.8-3.8 3.8H69.8c-2.1 0-3.8-1.7-3.8-3.8v-7c0-2.1 1.7-3.8 3.8-3.8h57.3c2.1 0 3.8 1.7 3.8 3.8l.1 7z"/><path class="st3" d="M24.1 160.2c0 6 4.9 10.9 10.9 10.9s10.9-4.9 10.9-10.9S41 149.3 35 149.3c-6.1 0-10.9 4.9-10.9 10.9z"/><path class="st11" d="M93.2 87.8H79.7c-1.5 0-2.7-1.2-2.7-2.7v-4.8c0-1.5 1.2-2.7 2.7-2.7h13.6c1.5 0 2.7 1.2 2.7 2.7V85c-.1 1.5-1.3 2.8-2.8 2.8zm23.6 0h-13.6c-1.5 0-2.7-1.2-2.7-2.7v-4.8c0-1.5 1.2-2.7 2.7-2.7h13.6c1.5 0 2.7 1.2 2.7 2.7V85c0 1.5-1.2 2.8-2.7 2.8z"/><path class="st12" d="M95.9 82.7h4.6m19 0l9.5-3.2m-52.1 3.2l-9.5-3.2"/><path class="st3" d="M124.7 82.5l9.5-13s5.5 33.4-13 29.3l3.5-16.3zm-53.3 0l-9.5-13s-5.5 33.4 13 29.3l-3.5-16.3z"/><path class="st13" d="M129 94.5c1.1 0 2 1.7 2 4 0 2.2-.9 4-2 4s-2-1.7-2-4"/><circle class="st14" cx="129" cy="102.5" r="1.1"/><path class="st15" d="M158.8 151.6v102.3"/><path class="st14" d="M146 161.7c1.3-1.3 6.5-2.4 12.8-2.4s11.5 1 12.8 2.4c8 .7 13.4 2.1 13.4 3.6h-52.3c-.1-1.6 5.3-2.9 13.3-3.6zm25.6 9.1c-1.3 1.3-6.5 2.4-12.8 2.4s-11.5-1-12.8-2.4c-8-.7-13.4-2.1-13.4-3.6h52.3c0 1.5-5.4 2.9-13.3 3.6z"/><path class="st15" d="M44.4 232.7v23.2"/><path class="st16" d="M50.5 262l-6.1-6.1-6.1 6.1"/><path class="st15" d="M17.9 232.7v23.2"/><path class="st17" d="M2 169.9h57.9v68.8H2v-68.8z"/><path class="st18" d="M44.4 239.5l13.3-69.6H31.2l13.2 69.6zm-26.5 0l13.3-69.6H4.7l13.2 69.6z"/><path class="st19" d="M2 238.7h57.9M2 169.9h57.9"/><path class="st16" d="M24.1 262l-6.2-6.1-6.1 6.1"/><path class="st15" d="M17.9 250.2v-97.7L49.3 121"/><path class="st14" d="M23.9 117.1c2.2-2 10.7-2.8 20.6-1.9s18.1 3.3 19.9 5.6c12.6 2.3 20.9 5.3 20.7 7.8-.3 3.7-19.2 4.9-42.1 2.8-22.9-2.1-41.2-6.8-40.9-10.5.2-2.5 9-3.8 21.8-3.8z"/><circle class="st14" cx="17.9" cy="152.5" r="4.4"/><path class="st17" d="M127.2 184.4h53.1v24.8h-53.1v-24.8z"/><path class="st18" d="M166.1 209.4l12.2-25H154l12.1 25zm-24.3 0l12.2-25h-24.3l12.1 25z"/><path class="st19" d="M127.2 209.2h53.1m-53.1-24.8h53.1"/><path class="st16" d="M168.5 262l-9.7-9.6-9.7 9.6"/><path class="st1" d="M50.5 262l46.8-46.7 46.8 46.7"/><circle class="st20" cx="97.3" cy="215.3" r="49"/><path class="st18" d="M97.3 196.5l16-11.7-2.1 19.7 18.1 8-18.1 8 2.1 19.7-16-11.7-16 11.7 2.2-19.7-18.1-8 18.1-8-2.2-19.7 16 11.7z"/><circle class="st21" cx="97.3" cy="249.2" r="7"/></svg>