<svg xmlns="http://www.w3.org/2000/svg" width="192.8" height="266" viewBox="0 0 192.8 266"><path stroke="#2297CC" stroke-width="12" stroke-linecap="round" stroke-miterlimit="10" d="M117.2 124.5c8.1.7 21.4 29 42.5 35.7" fill="none"/><g stroke-linecap="round" stroke-miterlimit="10" fill="none"><path stroke="#F9CE1D" stroke-width="3.481" d="M188.5 132.4l-28.8 28.8"/><path stroke="#FCE68D" stroke-width="5.802" d="M188.5 132.4"/></g><path fill="#FFE18C" d="M170.6 160.2c0 6-4.9 10.9-10.9 10.9s-10.9-4.9-10.9-10.9 4.9-10.9 10.9-10.9 10.9 4.9 10.9 10.9z"/><path stroke="#29B6F6" stroke-width="12" stroke-linecap="round" stroke-miterlimit="10" d="M77.4 124.5c-8.1.7-21.4 29-42.5 35.7" fill="none"/><path fill="#2297CC" d="M126 184.3c0 15.9-12.9 28.9-28.9 28.9-15.9 0-28.9-12.9-28.9-28.9v-39.8c0-15.9 12.9-28.9 28.9-28.9 15.9 0 28.9 12.9 28.9 28.9v39.8z"/><path fill="#29B6F6" d="M114 184.3c0 15.9-.9 28.9-16.9 28.9-15.9 0-28.9-12.9-28.9-28.9v-39.8c0-15.9 12.9-28.9 28.9-28.9 15.9 0 16.9 12.9 16.9 28.9v39.8z"/><path fill="#fff" d="M56 6.2c0 3.4 2.8 6.2 6.2 6.2 3.4 0 6.2-2.8 6.2-6.2 0-3.4-2.8-6.2-6.2-6.2C58.8 0 56 2.8 56 6.2z"/><path stroke="#fff" stroke-width=".739" stroke-miterlimit="10" fill="none" d="M97.4 117.3v77.1"/><path fill="#332E2E" d="M68.3 171.2H126v14.4H68.3z"/><path fill="#FDD500" d="M89.9 170.2h15v16.4h-15z"/><g stroke-linecap="round" stroke-miterlimit="10" fill="none"><path stroke="#F9CE1D" stroke-width="3.481" d="M6.2 132.4L35 161.2"/><path stroke="#FCE68D" stroke-width="5.802" d="M6.2 132.4"/></g><path fill="#2297CC" d="M130.3 60s-42-38.7-63.7-49c0 0 18.4 32.2 6 46.7l57.7 2.3z"/><path fill="#29B6F6" d="M112.3 60s-24-38.7-45.6-49c0 0 18.4 32.2 6 46.7l39.6 2.3z"/><path fill="#FFE18C" d="M126.9 86.8c0 15.9-12.9 28.9-28.9 28.9-15.9 0-28.9-12.9-28.9-28.9C69.1 70.9 82 57.9 98 57.9c16 0 28.9 12.9 28.9 28.9z"/><path fill="#fff" d="M76.2 93.2c2.8 9.4 11.5 16.3 21.8 16.3s19.1-6.9 21.8-16.3H76.2z"/><path fill="#FFE18C" d="M100.2 95.7h-4.3l-.9-6.2h6.1z"/><path fill="#332E2E" d="M115.1 82.7c0 2.8-2.3 5.2-5.2 5.2-2.9 0-5.2-2.3-5.2-5.2 0-2.8 2.3-5.2 5.2-5.2 2.9 0 5.2 2.3 5.2 5.2z"/><path fill="#332E2E" d="M91.6 82.7c0 2.8-2.3 5.2-5.2 5.2-2.9 0-5.2-2.3-5.2-5.2 0-2.8 2.3-5.2 5.2-5.2 2.9 0 5.2 2.3 5.2 5.2z"/><path fill="#fff" d="M131 66.3c0 2.1-1.7 3.8-3.8 3.8H69.8c-2.1 0-3.8-1.7-3.8-3.8v-7c0-2.1 1.7-3.8 3.8-3.8h57.3c2.1 0 3.8 1.7 3.8 3.8v7z"/><path fill="#FFE18C" d="M24.1 160.2c0 6 4.9 10.9 10.9 10.9s10.9-4.9 10.9-10.9S41 149.3 35 149.3c-6.1 0-10.9 4.9-10.9 10.9z"/><path fill="#BDBDBD" stroke="#424242" stroke-width="1.161" stroke-miterlimit="10" d="M93.2 87.8H79.7c-1.5 0-2.7-1.2-2.7-2.7v-4.8c0-1.5 1.2-2.7 2.7-2.7h13.6c1.5 0 2.7 1.2 2.7 2.7V85c-.1 1.5-1.3 2.8-2.8 2.8z"/><path fill="#BDBDBD" stroke="#424242" stroke-width="1.161" stroke-miterlimit="10" d="M116.8 87.8h-13.6c-1.5 0-2.7-1.2-2.7-2.7v-4.8c0-1.5 1.2-2.7 2.7-2.7h13.6c1.5 0 2.7 1.2 2.7 2.7V85c0 1.5-1.2 2.8-2.7 2.8z"/><path stroke="#424242" stroke-width="1.161" stroke-miterlimit="10" fill="none" d="M95.9 82.7h4.6"/><path stroke="#424242" stroke-width="1.161" stroke-miterlimit="10" fill="none" d="M119.5 82.7l9.5-3.2"/><path stroke="#424242" stroke-width="1.161" stroke-miterlimit="10" fill="none" d="M76.9 82.7l-9.5-3.2"/><path fill="#FFE18C" d="M124.7 82.5l9.5-13s5.5 33.4-13 29.3l3.5-16.3z"/><path fill="#FFE18C" d="M71.4 82.5l-9.5-13s-5.5 33.4 13 29.3l-3.5-16.3z"/><path stroke="#BDBDBD" stroke-width="1.161" stroke-miterlimit="10" d="M129 93.3c1.6 0 3 2.6 3 5.9 0 3.3-1.3 5.9-3 5.9-1.6 0-3-2.6-3-5.9" fill="none"/><path stroke="#BDBDBD" stroke-width="1.161" stroke-miterlimit="10" d="M67.4 93.3c-1.6 0-3 2.6-3 5.9 0 3.3 1.3 5.9 3 5.9s3-2.6 3-5.9" fill="none"/><circle fill="#BDBDBD" cx="129" cy="105.2" r="1.7"/><circle fill="#BDBDBD" cx="67.4" cy="105.2" r="1.7"/><path stroke="#fff" stroke-width="2.321" stroke-linecap="round" stroke-miterlimit="10" fill="none" d="M158.8 151.6v102.3"/><g fill="#F9CE1D"><path d="M146 161.7c1.3-1.3 6.5-2.4 12.8-2.4s11.5 1 12.8 2.4c8 .7 13.4 2.1 13.4 3.6h-52.3c-.1-1.6 5.3-2.9 13.3-3.6z"/><path d="M171.6 170.8c-1.3 1.3-6.5 2.4-12.8 2.4-6.3 0-11.5-1-12.8-2.4-8-.7-13.4-2.1-13.4-3.6h52.3c0 1.5-5.4 2.9-13.3 3.6z"/></g><path stroke="#fff" stroke-width="2.321" stroke-linecap="round" stroke-miterlimit="10" fill="none" d="M44.4 232.7v23.2"/><path stroke="#F9CE1D" stroke-width="3.481" stroke-linecap="round" stroke-linejoin="round" stroke-miterlimit="10" fill="none" d="M50.5 262l-6.1-6.1-6.1 6.1"/><path stroke="#fff" stroke-width="2.321" stroke-linecap="round" stroke-miterlimit="10" fill="none" d="M17.9 232.7v23.2"/><path fill="#4373E0" d="M2 169.9h57.9v68.8H2z"/><path fill="#E91C24" d="M44.4 239.5l13.3-69.6H31.2z"/><path fill="#E91C24" d="M17.9 239.5l13.3-69.6H4.7z"/><path fill="#4373E0" stroke="#F9CE1D" stroke-width="3.481" stroke-linecap="round" stroke-miterlimit="10" d="M2 238.7h57.9"/><path fill="#4373E0" stroke="#F9CE1D" stroke-width="3.481" stroke-linecap="round" stroke-miterlimit="10" d="M2 169.9h57.9"/><path stroke="#F9CE1D" stroke-width="3.481" stroke-linecap="round" stroke-linejoin="round" stroke-miterlimit="10" fill="none" d="M24.1 262l-6.2-6.1-6.1 6.1"/><path stroke="#fff" stroke-width="2.321" stroke-linecap="round" stroke-miterlimit="10" fill="none" d="M17.9 250.2v-97.7L49.3 121"/><path fill="#F9CE1D" d="M23.9 117.1c2.2-2 10.7-2.8 20.6-1.9 9.9.9 18.1 3.3 19.9 5.6 12.6 2.3 20.9 5.3 20.7 7.8-.3 3.7-19.2 4.9-42.1 2.8-22.9-2.1-41.2-6.8-40.9-10.5.2-2.5 9-3.8 21.8-3.8z"/><circle fill="#F9CE1D" cx="17.9" cy="152.5" r="4.4"/><path fill="#4373E0" d="M127.2 184.4h53.1v24.8h-53.1z"/><path fill="#E91C24" d="M166.1 209.4l12.2-25H154z"/><path fill="#E91C24" d="M141.8 209.4l12.2-25h-24.3z"/><path fill="#4373E0" stroke="#F9CE1D" stroke-width="3.481" stroke-linecap="round" stroke-miterlimit="10" d="M127.2 209.2h53.1"/><path fill="#4373E0" stroke="#F9CE1D" stroke-width="3.481" stroke-linecap="round" stroke-miterlimit="10" d="M127.2 184.4h53.1"/><path stroke="#F9CE1D" stroke-width="3.481" stroke-linecap="round" stroke-linejoin="round" stroke-miterlimit="10" fill="none" d="M168.5 262l-9.7-9.6-9.7 9.6"/><path stroke="#F9CE1D" stroke-width="3.481" stroke-linecap="round" stroke-miterlimit="10" fill="none" d="M50.5 262l46.8-46.7 46.8 46.7"/><circle fill="#4373E0" stroke="#F9CE1D" stroke-width="3.481" stroke-miterlimit="10" cx="97.3" cy="215.3" r="49"/><path fill="#E91C24" d="M97.3 196.5l16-11.7-2.1 19.7 18.1 8-18.1 8 2.1 19.7-16-11.7-16 11.7 2.2-19.7-18.1-8 18.1-8-2.2-19.7z"/><circle fill="#212121" cx="97.3" cy="249.2" r="7"/></svg>