<svg id="Layer_1" xmlns="http://www.w3.org/2000/svg" width="199.3" height="266.2" viewBox="0 0 199.3 266.2"><style>.st0{fill:#00acc1}.st1{fill:#fff}.st2{fill:#fadcbc}.st3{fill:#332e2e}.st4,.st5{fill:none;stroke:#f9ce1d;stroke-width:1.161;stroke-miterlimit:10}.st5{fill:#424242}.st6{fill:#008fa1}</style><path class="st0" d="M141.7 9.3c.9 0 1.7.1 2.6.1-.8 0-1.7-.1-2.6-.1z"/><path class="st0" d="M144.3 9.5c-.9-.1-1.7-.1-2.6-.1.9-.1 1.8 0 2.6.1zm-5.2 0c.9-.1 1.7-.1 2.6-.1-.9-.1-1.7 0-2.6.1z"/><path class="st1" d="M100.6-100c0 3.4 2.8 6.2 6.2 6.2 3.4 0 6.2-2.8 6.2-6.2 0-3.4-2.8-6.2-6.2-6.2-3.4 0-6.2 2.8-6.2 6.2z"/><path class="st0" d="M69.7 115.5c.9 0 1.7.1 2.6.1-.8 0-1.7-.1-2.6-.1z"/><path class="st0" d="M72.3 115.7c-.9-.1-1.7-.1-2.6-.1.9-.1 1.8 0 2.6.1zm-5.2 0c.9-.1 1.7-.1 2.6-.1-.9-.1-1.7 0-2.6.1z"/><path class="st2" d="M99.5 86.8c0 15.9-12.9 28.9-28.9 28.9-15.9 0-28.9-12.9-28.9-28.9 0-15.9 12.9-28.9 28.9-28.9s28.9 12.9 28.9 28.9z"/><path class="st1" d="M48.8 93.2c2.8 9.4 11.5 16.3 21.8 16.3s19.1-6.9 21.8-16.3H48.8z"/><path class="st2" d="M72.8 95.7h-4.3l-.9-6.2h6.1l-.9 6.2z"/><path class="st3" d="M87.8 82.7c0 2.8-2.3 5.2-5.2 5.2-2.9 0-5.2-2.3-5.2-5.2 0-2.8 2.3-5.2 5.2-5.2 2.8 0 5.2 2.3 5.2 5.2zm-23.6 0c0 2.8-2.3 5.2-5.2 5.2s-5.2-2.3-5.2-5.2c0-2.8 2.3-5.2 5.2-5.2s5.2 2.3 5.2 5.2z"/><path class="st2" d="M42.6 82.4l-9.6-13s-5.5 33.4 13 29.3l-3.4-16.3zm54.6 0l9.5-13s5.5 33.4-13 29.3l3.5-16.3z"/><path class="st4" d="M100.7 93.2c1.6 0 3 2.6 3 5.9s-1.3 5.9-3 5.9c-1.6 0-3-2.6-3-5.9m-59.2-5.9c-1.6 0-3 2.6-3 5.9s1.3 5.9 3 5.9c1.6 0 3-2.6 3-5.9"/><path class="st5" d="M48.2 84.3s-.3-3.7 2.8-6.1 7.1-2.3 9.2-2.3c2.1 0 6.8.4 7.7 2.2s-1.3 6.2-2.5 8c-1.2 1.7-4.4 6.4-10.7 6.4s-6.5-6.8-6.5-8.2zm44.9.1s.3-3.7-2.9-6.2c-3.2-2.4-7.3-2.3-9.5-2.3s-7.1.4-7.9 2.3c-.9 1.9 1.3 6.3 2.6 8.1 1.3 1.8 4.6 6.5 11 6.5 6.5-.1 6.7-7 6.7-8.4z"/><path class="st3" d="M87.4 72c1.3 8.1 7.4 15.1 12.2 16.8 0-22.2-6.1-35.2-29.2-35.2h-.3c-27.1.2-35 23-26.8 48 12.1-23 31-29.6 44.1-29.6z"/><path class="st6" d="M102.9 60s-42-38.7-63.7-49c0 0 18.4 32.2 6 46.7l57.7 2.3z"/><path class="st0" d="M84.9 60s-24-38.7-45.6-49c0 0 18.4 32.2 6 46.7L84.9 60z"/><path class="st1" d="M103.6 66.3c0 2.1-1.7 3.8-3.8 3.8H42.4c-2.1 0-3.8-1.7-3.8-3.8v-7c0-2.1 1.7-3.8 3.8-3.8h57.3c2.1 0 3.8 1.7 3.8 3.8l.1 7zm-75-60.1c0 3.4 2.8 6.2 6.2 6.2S41 9.6 41 6.2 38.2 0 34.8 0s-6.2 2.8-6.2 6.2z"/><path class="st5" d="M68.1 79.4h4.5"/></svg>