<svg xmlns="http://www.w3.org/2000/svg" width="110.8" height="269.6" viewBox="-424 146.4 110.8 269.6" enable-background="new -424 146.4 110.8 269.6"><path fill="#E91C24" d="M-366.5 340.2c-2.6 3.2-6.6 3.2-9.6.7-2.9-2.4-3.3-6.8-.9-9.7l41.9-50.2c1.1-1.2 4.9-5.8 4.1-11.6-.4-2.6-1.9-6.3-6.5-9.3-.7-.5-1.6-.8-2.4-.8-3.3-.2-13-1.1-19.8-3.8-1.3-.5-2.4 1.1-1.4 2 3.8 3.8 13.9 6.4 18.7 10 .8.6 1 1.8.3 2.6-7 8.4-44.3 53.2-44.3 53.2-6.8 8.2-5.7 20.3 2.4 27.1 8.1 6.8 19.9 6.1 26.9-2.3l-9.4-7.9z"/><path fill="#C91B27" d="M-350.8 301c-5.1-4.2-.7-11.4 5.4-8.7 5.2 4.1.7 11.4-5.4 8.7z"/><path fill="#C91B27" d="M-343 291.6c-5.1-4.2-.7-11.4 5.4-8.7 5.2 4.2.7 11.5-5.4 8.7z"/><path fill="#C91B27" d="M-358.6 310.3c-5.1-4.2-.7-11.4 5.4-8.7 5.2 4.1.8 11.4-5.4 8.7z"/><path fill="#C91B27" d="M-366.7 320.1c-5.1-4.2-.7-11.4 5.4-8.7 5.2 4.2.7 11.4-5.4 8.7z"/><path stroke="#E86E1C" stroke-width="12" stroke-linecap="round" stroke-miterlimit="10" d="M-383.1 271.6c-32.7.3-42.8 41.4 7.3 45.9" fill="none"/><path fill="#FFE18C" d="M-365.1 319.9c-1.3 5.9-7.2 9.6-13.1 8.2-5.9-1.3-9.6-7.2-8.2-13.1 1.3-5.9 7.2-9.6 13.1-8.2 5.8 1.3 9.5 7.2 8.2 13.1z"/></svg>