<svg xmlns="http://www.w3.org/2000/svg" width="146.7" height="270.4"><g><g><path d="M85 185.3v52.6" fill="none" stroke="#ee3c39" stroke-linecap="round" stroke-miterlimit="10" stroke-width="13.3574"/><g><path d="M61.7 185.3v52.6" fill="none" stroke="#ee3c39" stroke-linecap="round" stroke-miterlimit="10" stroke-width="13.3574"/><g><path d="M32 244.5a13 13 0 0 0 13 13 10.1 10.1 0 0 0 10-10.1v-9.5h13.3v29.2a3.3 3.3 0 0 1-3.3 3.3H32.4a13.2 13.2 0 0 1-13.3-12.5A13 13 0 0 1 32 244.5z" fill="#332e2e"/><path d="M55 250.8h5a3.4 3.4 0 0 0 0-6.7h-5a3.4 3.4 0 1 0 0 6.7z" fill="#f9ce1d"/></g></g><g fill="#ee3c39"><path d="M61.7 185.3H85l-11.7-59.1-11.6 59.1z"/><path d="M73.4 119.5A28.4 28.4 0 0 0 44.9 148v23.8a28.5 28.5 0 1 0 56.9 0V148a28.4 28.4 0 0 0-28.4-28.5z"/></g><g><path fill="#332e2e" d="M44.9 157.6h57v14.24h-57z"/><path fill="#f9ce1d" d="M66.2 157.6h14.2v14.24H66.2z"/></g></g><g data-name="Keyboard"><path d="M5.2 203.4l134.6 63.1m-134.7-.4l134.8-62.4" fill="none" stroke="#424242" stroke-miterlimit="10" stroke-width="3.4814"/><circle cx="5.1" cy="266.1" r="4.3" fill="#333"/><circle cx="139.4" cy="266.1" r="4.3" fill="#333"/></g></g></svg>