<svg xmlns="http://www.w3.org/2000/svg" width="146.7" height="270.4"><g><g><g fill="#a04343"><path d="M50.6 103.5l6.4 6.4a9 9 0 0 1 0 12.7l-6.4-6.4a9 9 0 0 1 0-12.7z"/><path d="M50.6 116.2l6.4 6.4a9 9 0 0 1 0 12.7l-6.4-6.3a9.1 9.1 0 0 1 0-12.8z"/><path d="M50.6 129l6.4 6.3a9.1 9.1 0 0 1 0 12.8l-6.4-6.4a9 9 0 0 1 0-12.7zM50.3 161.4v-6.7a6.7 6.7 0 0 1 6.7-6.6v6.6a6.7 6.7 0 0 1-6.7 6.7z"/><path d="M63.6 161.4v-6.7a6.7 6.7 0 0 0-6.6-6.6v6.6a6.6 6.6 0 0 0 6.6 6.7z"/></g><g fill="#a04343"><path d="M96.1 103.5l-6.4 6.4a9 9 0 0 0 0 12.7l6.4-6.4a9 9 0 0 0 0-12.7z"/><path d="M96.1 116.2l-6.4 6.4a9 9 0 0 0 0 12.7l6.4-6.3a9.1 9.1 0 0 0 0-12.8z"/><path d="M96.1 129l-6.4 6.3a9.1 9.1 0 0 0 0 12.8l6.4-6.4a9 9 0 0 0 0-12.7zM96.4 161.4v-6.7a6.7 6.7 0 0 0-6.7-6.6v6.6a6.7 6.7 0 0 0 6.7 6.7z"/><path d="M83.1 161.4v-6.7a6.7 6.7 0 0 1 6.6-6.6v6.6a6.6 6.6 0 0 1-6.6 6.7z"/></g><g><g><circle cx="73.4" cy="10.3" r="9.9" fill="#fff"/><path fill="#ee3c39" d="M101.8 77.1L73.3 20.2 44.9 77.1h56.9z"/></g><path d="M100.5 84.2a8.3 8.3 0 0 1-7.9-5.9 20.2 20.2 0 0 0-38.5 0 8.2 8.2 0 0 1-10.4 5.5 8.4 8.4 0 0 1-5.5-10.5 36.8 36.8 0 0 1 70.3 0 8.4 8.4 0 0 1-5.5 10.5 10.1 10.1 0 0 1-2.5.4z" fill="#fff"/></g><path d="M39.7 91a33.7 33.7 0 1 1 67.3 0z" fill="#a04343"/><g fill="#e0bb95"><path d="M111.1 71.1L96.5 85.7a7.2 7.2 0 0 0-2.2 5.3 7.6 7.6 0 0 0 12.9 5.3c9.1-9.1 3.9-25.2 3.9-25.2zM50.2 85.7L35.6 71.1s-5.2 16.1 3.9 25.2A7.6 7.6 0 0 0 52.4 91a7.2 7.2 0 0 0-2.2-5.3z"/></g><circle cx="73.4" cy="91" r="28.5" fill="#e0bb95"/><g><g fill="#332e2e"><path d="M67.6 82.8a5.8 5.8 0 1 1-5.8-5.7 5.8 5.8 0 0 1 5.8 5.7zM90.6 82.8a5.8 5.8 0 1 1-5.7-5.7 5.8 5.8 0 0 1 5.7 5.7z"/></g><path d="M90.6 94.3a17.3 17.3 0 1 1-34.5 0z" fill="#fff"/></g><g fill="#a04343"><path d="M73.4 62.5a8.3 8.3 0 0 1-8.3 8.3H47.6l7.3-7.2 8.7-3z"/><path d="M73.4 62.5a8.2 8.2 0 0 0 8.2 8.3h17.5l-7.3-7.2-8.7-3z"/></g></g></g></svg>