<svg id="Layer_1" xmlns="http://www.w3.org/2000/svg" width="146.7" height="266.3" viewBox="0 0 146.7 266.3"><style>.st0{fill:#d44b05}.st1{fill:#9a633c}.st2{fill:#332e2e}.st3{fill:#b9191e}.st4{fill:#e53935}.st5{fill:#fff}.st6{fill:#80deea;stroke:#ec407a;stroke-width:1.1605;stroke-miterlimit:10}.st7{opacity:.24;fill:#f9ce1d}.st8{fill:none;stroke:#ec407a;stroke-width:1.1605;stroke-miterlimit:10}</style><path class="st0" d="M105.4 85.8c0-16.9-13.7-30.7-30.7-30.7C57.8 55.1 44 68.8 44 85.8c0 1.3.1 2.6.3 3.9h60.8c.2-1.2.3-2.5.3-3.9z"/><path class="st1" d="M102.8 85.8c0 15.5-12.5 28-28 28s-28-12.5-28-28 12.5-28 28-28c15.4 0 28 12.6 28 28z"/><path class="st2" d="M91.9 81.7c0 2.8-2.3 5.2-5.2 5.2-2.9 0-5.2-2.3-5.2-5.2 0-2.8 2.3-5.2 5.2-5.2 2.9.1 5.2 2.4 5.2 5.2zm-23.6 0c0 2.8-2.3 5.2-5.2 5.2-2.9 0-5.2-2.3-5.2-5.2 0-2.8 2.3-5.2 5.2-5.2 2.9.1 5.2 2.4 5.2 5.2z"/><path class="st3" d="M107 59S65 20.3 43.3 10c0 0 18.4 32.2 6 46.7L107 59z"/><path class="st4" d="M89 59S65 20.3 43.4 10c0 0 18.4 32.2 6 46.7L89 59z"/><path class="st5" d="M107.7 65.3c0 2.1-1.7 3.8-3.8 3.8H46.6c-2.1 0-3.8-1.7-3.8-3.8v-7c0-2.1 1.7-3.8 3.8-3.8h57.3c2.1 0 3.8 1.7 3.8 3.8v7z"/><circle class="st5" cx="38.9" cy="5.2" r="6.2"/><path class="st6" d="M72.5 81.7H77m19 0l9.6-3.1m-52.1 3.1l-9.6-3.1"/><circle class="st7" cx="63" cy="81.7" r="9.5"/><circle class="st7" cx="86.5" cy="81.7" r="9.5"/><circle class="st8" cx="63" cy="81.7" r="9.5"/><circle class="st8" cx="86.5" cy="81.7" r="9.5"/><path class="st1" d="M46.8 81.6l-9.6-13s-5.5 33.4 13 29.3l-3.4-16.3zm54.6 0l9.5-13s5.5 33.4-13 29.3l3.5-16.3z"/><path class="st5" d="M96.6 92.3H52.9c.9 3 2.4 5.8 4.4 8.2h34.9c2-2.4 3.5-5.2 4.4-8.2z"/><path class="st2" d="M93.6 99c-1.3 1.7-2.7 3.1-4.3 4.4-4.1 3.3-9.1 5.2-14.5 5.2s-10.4-1.9-14.5-5.2c-1.6-1.3-3-2.7-4.3-4.4h37.6z"/><path class="st5" d="M88.2 104.2c-3.8 2.8-8.4 4.4-13.5 4.4-5 0-9.7-1.6-13.5-4.4h27z"/></svg>