<svg xmlns="http://www.w3.org/2000/svg" width="146.7" height="266.3" viewBox="45 -106.3 146.7 266.3" enable-background="new 45 -106.3 146.7 266.3"><path fill="#D4AF19" d="M149.9-19.5c0-16.9-13.7-30.7-30.7-30.7-16.9 0-30.7 13.7-30.7 30.7 0 1.3.1 2.6.3 3.9h60.8c.2-1.3.3-2.6.3-3.9z"/><path fill="#FFE18C" d="M147.2-19.5c0 15.5-12.5 28-28 28s-28-12.5-28-28 12.5-28 28-28 28 12.5 28 28z"/><path stroke="#EC407A" stroke-width="1.161" stroke-miterlimit="10" fill="none" d="M116.9-23.6h4.6"/><path stroke="#EC407A" stroke-width="1.161" stroke-miterlimit="10" fill="none" d="M140.5-23.6l9.5-3.2"/><path stroke="#EC407A" stroke-width="1.161" stroke-miterlimit="10" fill="none" d="M97.9-23.6l-9.5-3.2"/><circle fill="#F9CE1D" cx="107.4" cy="-23.6" r="9.5"/><circle fill="#F9CE1D" cx="131" cy="-23.6" r="9.5"/><circle stroke="#EC407A" stroke-width="1.161" stroke-miterlimit="10" cx="107.4" cy="-23.6" r="9.5" fill="none"/><circle stroke="#EC407A" stroke-width="1.161" stroke-miterlimit="10" cx="131" cy="-23.6" r="9.5" fill="none"/><path fill="#332E2E" d="M136.3-23.6c0 2.8-2.3 5.2-5.2 5.2s-5.2-2.3-5.2-5.2c0-2.8 2.3-5.2 5.2-5.2s5.2 2.3 5.2 5.2z"/><path fill="#332E2E" d="M112.8-23.6c0 2.8-2.3 5.2-5.2 5.2-2.9 0-5.2-2.3-5.2-5.2 0-2.8 2.3-5.2 5.2-5.2 2.9 0 5.2 2.3 5.2 5.2z"/><path fill="#B9191E" d="M151.5-46.3s-42-38.7-63.7-49c0 0 18.4 32.2 6 46.7l57.7 2.3z"/><path fill="#E53935" d="M133.4-46.3s-24-38.7-45.6-49c0 0 18.4 32.2 6 46.7l39.6 2.3z"/><path fill="#fff" d="M152.2-40c0 2.1-1.7 3.8-3.8 3.8H91c-2.1 0-3.8-1.7-3.8-3.8v-7c0-2.1 1.7-3.8 3.8-3.8h57.3c2.1 0 3.8 1.7 3.8 3.8l.1 7z"/><path fill="#fff" d="M77.2-100.1c0 3.4 2.8 6.2 6.2 6.2s6.2-2.8 6.2-6.2c0-3.4-2.8-6.2-6.2-6.2-3.5 0-6.2 2.8-6.2 6.2z"/><path fill="#FFE18C" d="M91.3-23.8l-9.6-13s-5.5 33.4 13 29.3l-3.4-16.3z"/><path fill="#FFE18C" d="M145.8-23.8l9.5-13s5.5 33.4-13 29.3l3.5-16.3z"/><path fill="#fff" d="M141.1-13.1H97.4c.9 3 2.4 5.8 4.4 8.2h34.9c1.9-2.4 3.5-5.1 4.4-8.2z"/><path fill="#332E2E" d="M101.8-4.9c4.2 5 10.4 8.2 17.5 8.2 7 0 13.3-3.2 17.5-8.2h-35z"/><path fill="#332E2E" d="M117.9-13.1h2.4v9h-2.4z"/></svg>