<svg id="Layer_1" xmlns="http://www.w3.org/2000/svg" width="170.3" height="265.9" viewBox="0 0 170.3 265.9"><style>.st0{fill:none;stroke:#009047;stroke-width:12;stroke-linecap:round;stroke-miterlimit:10}.st1{fill:#fadcbc}.st2{fill:#f47b20}.st3{fill:#faebbc}.st4,.st5{fill:#b5b5b5}.st5{opacity:.53;enable-background:new}.st6{fill:#4caf50}</style><path class="st0" d="M70.9 124.1c8.1-.2 38.1-3.9 41.3-32.7"/><path class="st1" d="M123.1 90.3c.6 6-3.7 11.3-9.7 11.9s-11.3-3.7-11.9-9.7 3.8-11.3 9.7-11.9c5.9-.6 11.3 3.8 11.9 9.7z"/><circle class="st2" cx="133.7" cy="72.6" r="30.2"/><circle class="st3" cx="133.7" cy="72.6" r="30.2"/><circle class="st4" cx="160.8" cy="67.2" r="9.6"/><circle class="st4" cx="152.3" cy="92.9" r="9.6"/><path class="st5" d="M157.3 84.9c1.1 1.3 1.8 3 1.9 4.8.4 5-3.2 9.4-8.2 9.8-1.8.2-4.9-.1-6.4-.9 1.8 2.3 5.5 4.2 8.6 3.9 5-.4 9.3-5.5 8.8-10.4-.3-3.2-2.1-5.8-4.7-7.2z"/><circle class="st4" cx="126.7" cy="98.2" r="9.6"/><path class="st5" d="M135.5 95c0 1.7-.5 3.4-1.5 5-2.7 4.2-8.3 5.4-12.5 2.6-1.5-1-3.8-3.1-4.5-4.7 0 2.9 1.7 6.7 4.4 8.4 4.2 2.7 10.7 1.4 13.4-2.7 1.8-2.7 1.9-5.9.7-8.6z"/><circle class="st4" cx="152.3" cy="92.9" r="9.6"/><circle class="st4" cx="126.7" cy="98.2" r="9.6"/><circle class="st4" cx="106.6" cy="76.8" r="9.6"/><circle class="st4" cx="114.9" cy="51.2" r="9.6"/><circle class="st4" cx="140.7" cy="45.9" r="9.6"/><path class="st5" d="M118.3 98.6c-3.8-4.9-6-11.1-6-17.8 0-16.1 9.3-29.8 25-33.1 6.5-1.4 16.9 6.2 21.8 10-5.3-6.9-13.6-11.4-23-11.4-16.1 0-29.1 13-29.1 29.1 0 9.5 4.4 17.8 11.3 23.2z"/><path class="st5" d="M157.5 53.1c3.2 5.3 4.8 11.7 4 18.4-1.8 16-12.6 28.6-28.5 30.1-6.7.6-16.1-8.1-20.6-12.4 4.5 7.5 12.3 12.8 21.6 13.9 16 1.8 30.4-9.7 32.2-25.7 1-9.5-2.5-18.3-8.7-24.3z"/><path class="st6" d="M133.7 47c13.2 0 24.1 9.9 25.4 23 .7 6.8-1.3 13.5-5.6 18.7-4.3 5.3-10.4 8.6-17.2 9.3-.9.1-1.8.1-2.6.1-13.2 0-24.1-9.9-25.4-23-1.4-14 8.8-26.6 22.9-28 .8-.1 1.6-.1 2.5-.1m0-4.7c-1 0-2 .1-3.1.2-16.6 1.7-28.7 16.5-27 33.1 1.6 15.6 14.7 27.2 30 27.2 1 0 2-.1 3.1-.2 16.6-1.7 28.7-16.5 27-33.1-1.5-15.6-14.7-27.2-30-27.2z"/></svg>