<svg id="Layer_1" xmlns="http://www.w3.org/2000/svg" width="170.3" height="265.9" viewBox="0 0 170.3 265.9"><style>.st0{fill:none;stroke:#b5b5b5;stroke-width:1.161;stroke-linecap:round;stroke-miterlimit:10}.st1{fill:#b5b5b5}.st2{fill:none;stroke:#212121;stroke-width:1.161;stroke-miterlimit:10}.st3{fill:#fadcbc}.st4{fill:#4e342e}.st5{fill:#332e2e}.st6{fill:#fff}.st7{fill:#009047}.st8{fill:#00a551}</style><path class="st0" d="M38.2 121.6v10.8m28-10.8v10.8m-28-1.1c0-7.1 6.3-12.8 14-12.8s14 5.7 14 12.8"/><path class="st1" d="M33.4 115.3h37.5v6.3H33.4v-6.3z"/><path class="st2" d="M36.5 118.4h31.4"/><path class="st3" d="M24.4 82.3l-9.5-12.9s-5.4 33.3 12.9 29.3l-3.4-16.4zm54.4 0l9.5-12.9s5.4 33.3-12.9 29.3l3.4-16.4z"/><path class="st4" d="M82.9 87.3c0-16.9-13.7-30.7-30.7-30.7-16.9 0-30.7 13.7-30.7 30.7 0 6.2 1.8 11.9 5 16.7h51.4c3.2-4.8 5-10.5 5-16.7z"/><path class="st3" d="M80.2 87.3c0 15.5-12.5 28-28 28s-28-12.5-28-28 12.5-28 28-28 28 12.5 28 28z"/><path class="st5" d="M69.3 82.4c0 2.8-2.3 5.1-5.1 5.1s-5.1-2.3-5.1-5.1 2.3-5.1 5.1-5.1 5.1 2.3 5.1 5.1zm-23.5 0c0 2.8-2.3 5.1-5.1 5.1s-5.1-2.3-5.1-5.1 2.3-5.1 5.1-5.1 5.1 2.3 5.1 5.1z"/><path class="st6" d="M30.2 96.4c2.8 9.4 11.5 16.3 21.8 16.3s19.1-6.9 21.8-16.3H30.2z"/><path class="st3" d="M54.2 97.7H50l-1-6.1h6.1l-.9 6.1z"/><path class="st4" d="M63.1 72.5c-5.3-1-16.7-5.3-23-13.3l-1.5-1.1c-6.3-8-3.7-15.4 1.6-14.4s22.3 9.6 28.6 17.6l3.9 5.3c6.4 7.9-4.3 6.9-9.6 5.9z"/><path class="st7" d="M84.4 59.8S42.5 21.2 20.9 11c0 0 18.3 32.1 6 46.5l57.5 2.3z"/><path class="st8" d="M66.4 59.8S42.5 21.2 20.9 11c0 0 18.3 32.1 6 46.5l39.5 2.3z"/><path class="st6" d="M85.1 66.1c0 2.1-1.7 3.8-3.8 3.8H24.1c-2.1 0-3.8-1.7-3.8-3.8v-7c0-2.1 1.7-3.8 3.8-3.8h57.2c2.1 0 3.8 1.7 3.8 3.8v7zM10.3 6.2c0 3.4 2.8 6.2 6.2 6.2s6.2-2.8 6.2-6.2S19.9 0 16.5 0s-6.2 2.8-6.2 6.2z"/></svg>