<svg xmlns="http://www.w3.org/2000/svg" width="198" height="270"><g><g><g fill="#32a558"><path d="M47.5 184.9h23.4l-11.7-59.1-11.7 59.1z"/><path d="M59.2 119.1a28.6 28.6 0 0 0-28.5 28.5v23.8a28.5 28.5 0 0 0 57 0v-23.8a28.6 28.6 0 0 0-28.5-28.5z"/></g><path d="M70.9 184.9v52.6" fill="none" stroke="#32a558" stroke-miterlimit="10" stroke-width="13.357"/><g><path d="M47.5 184.9v52.6" fill="none" stroke="#32a558" stroke-miterlimit="10" stroke-width="13.357"/><g><path d="M17.9 244.1a13 13 0 0 0 12.9 13 10 10 0 0 0 10-10.1v-9.5h13.4v29.2a3.3 3.3 0 0 1-3.3 3.3H18.2A13.1 13.1 0 0 1 5 257.5a12.9 12.9 0 0 1 12.9-13.4z" fill="#332e2e"/><path d="M40.8 250.4h5.1a3.4 3.4 0 0 0 0-6.7h-5.1a3.4 3.4 0 0 0 0 6.7z" fill="#f9ce1d"/></g></g><g><path fill="#332e2e" d="M30.7 157.2h57v14.24h-57z"/><path fill="#f9ce1d" d="M52.1 157.2h14.2v14.24H52.1z"/></g></g><g data-name="Tambourine"><circle cx="155.7" cy="63.2" r="30.2" fill="#f47b20"/><circle cx="155.7" cy="63.2" r="30.2" fill="#faebbc"/><circle cx="182.2" cy="55.7" r="9.6" transform="rotate(-10.5 182.0038 55.6844)" fill="#b5b5b5"/><circle cx="176" cy="82" r="9.6" transform="rotate(-10.5 175.7448 81.9975)" fill="#b5b5b5"/><path d="M180.2 73.6a7.5 7.5 0 0 1 2.3 4.6 9 9 0 0 1-7.3 10.4 12.9 12.9 0 0 1-6.5-.4 10.4 10.4 0 0 0 8.9 3.1c4.9-.8 8.8-6.2 7.9-11.1a9.1 9.1 0 0 0-5.3-6.6z" style="isolation:isolate" fill="#b5b5b5" opacity=".53"/><circle cx="150.8" cy="89.4" r="9.6" fill="#b5b5b5"/><path d="M159.4 85.4a8.5 8.5 0 0 1-1.1 5.1 9 9 0 0 1-12.2 3.7c-1.6-.9-4.1-2.8-4.9-4.3a11.3 11.3 0 0 0 5.1 8c4.4 2.4 10.8.6 13.1-3.8a9.2 9.2 0 0 0 0-8.7z" style="isolation:isolate" fill="#b5b5b5" opacity=".53"/><circle cx="176" cy="82" r="9.6" transform="rotate(-10.5 175.7448 81.9975)" fill="#b5b5b5"/><circle cx="150.8" cy="89.4" r="9.6" fill="#b5b5b5"/><circle cx="129.1" cy="69.7" r="9.6" fill="#b5b5b5"/><circle cx="135.3" cy="43.4" r="9.6" fill="#b5b5b5"/><circle cx="160.5" cy="36" r="9.6" fill="#b5b5b5"/><path d="M151.1 38.1a25.6 25.6 0 1 1-20.5 29.8 25.6 25.6 0 0 1 20.5-29.8m-.9-4.6a30.2 30.2 0 1 0 35.2 24.2 30.3 30.3 0 0 0-35.2-24.2z" fill="#4caf50"/></g><g data-name="Vibrating lines"><path d="M178.2 20.5a30.9 30.9 0 0 0-18.8-7.6 1.8 1.8 0 0 0-.2 3.5 27.8 27.8 0 0 1 17.1 7c1.7 1.5 3.6-1.4 1.9-2.9zm3.3-10.7a27.8 27.8 0 0 0-15.9-5.5c-2.3-.1-2.6 3.4-.3 3.5a24.4 24.4 0 0 1 14.2 4.9c1.9 1.2 3.9-1.7 2-2.9zm-5 96.6a31.9 31.9 0 0 0 18.1-10.3c1.5-1.7-1.4-3.6-3-2a26.8 26.8 0 0 1-15.7 8.8c-2.2.4-1.5 3.9.6 3.5zm6.5 9.2a28.2 28.2 0 0 0 14.6-9.3c1.4-1.6-1.4-3.7-2.9-2a24.6 24.6 0 0 1-12.4 7.9c-2.1.6-1.5 4.1.7 3.4z" fill="#f4f4f4"/></g><g data-name="Right Foot"><path d="M100.5 244.1a13 13 0 0 1-12.9 13 10.1 10.1 0 0 1-10-10.1v-9.5H64.2v29.2a3.3 3.3 0 0 0 3.3 3.3h32.7a13.1 13.1 0 0 0 13.2-12.5 12.9 12.9 0 0 0-12.9-13.4z" fill="#332e2e"/><path d="M77.6 250.4h-5.1a3.4 3.4 0 0 1 0-6.7h5.1a3.4 3.4 0 0 1 0 6.7z" fill="#f9ce1d"/></g><g data-name="Right Arm"><path d="M64.7 132.9c26 7.4 58.2-6.3 65-30" fill="none" stroke="#32a558" stroke-linecap="round" stroke-miterlimit="10" stroke-width="13.357"/><circle cx="133.6" cy="89.2" r="14.2" fill="#fadcbc"/><path d="M143.1 99.8l-23.2-6.6a6.7 6.7 0 1 0-3.7 12.8l23.2 6.7a6.7 6.7 0 1 0 3.7-12.9z" fill="#fff"/></g><g data-name="Left Arm"><path d="M43.6 128.1C20 133 0 150 15.8 172" fill="none" stroke="#32a558" stroke-linecap="round" stroke-miterlimit="10" stroke-width="13.357"/><circle cx="25.1" cy="182.8" r="14.2" fill="#fadcbc"/><path d="M29.9 159.7a6.7 6.7 0 0 0-9.4-.7L2.3 174.9a6.7 6.7 0 0 0-.7 9.4 6.8 6.8 0 0 0 9.5.7l18.2-15.9a6.6 6.6 0 0 0 .6-9.4z" fill="#fff"/></g><g><g><g><circle cx="59.2" cy="9.9" r="9.9" fill="#fff"/><path fill="#32a558" d="M87.7 76.7L59.2 19.8 30.7 76.7h57z"/></g><path d="M86.4 90.5a8.3 8.3 0 0 1-8-5.9 20.1 20.1 0 0 0-38.4 0 8.4 8.4 0 1 1-16-5 36.9 36.9 0 0 1 70.4 0 8.5 8.5 0 0 1-5.5 10.5 10.9 10.9 0 0 1-2.5.4z" fill="#fff"/></g><g fill="#fadcbc"><path d="M96.9 70.7L82.4 85.3a7.2 7.2 0 0 0-2.3 5.3 7.6 7.6 0 0 0 7.6 7.6 7.2 7.2 0 0 0 5.3-2.3c9.1-9.1 3.9-25.2 3.9-25.2zM36 85.3L21.5 70.7s-5.2 16.1 3.9 25.2a7.4 7.4 0 0 0 5.3 2.3 7.6 7.6 0 0 0 7.6-7.6 7.2 7.2 0 0 0-2.3-5.3z"/></g><path d="M89.9 90.7a30.7 30.7 0 0 0-61.4 0 29.9 29.9 0 0 0 5 16.7h51.4a29.9 29.9 0 0 0 5-16.7z" fill="#4e342e"/><circle cx="59.2" cy="90.6" r="28.5" fill="#fadcbc"/><path d="M59.2 62.1a28.6 28.6 0 0 0-23.5 12.4 29 29 0 0 0 15.8-2.3 29.8 29.8 0 0 0 7.7-5.2 29.8 29.8 0 0 0 7.7 5.2 29 29 0 0 0 15.8 2.3 28.6 28.6 0 0 0-23.5-12.4z" fill="#4e342e"/><g><g fill="#332e2e"><path d="M53.4 82.4a5.7 5.7 0 0 1-5.7 5.8 5.8 5.8 0 1 1 0-11.5 5.7 5.7 0 0 1 5.7 5.7zM76.5 82.4a5.8 5.8 0 0 1-5.8 5.8 5.8 5.8 0 0 1 0-11.5 5.8 5.8 0 0 1 5.8 5.7z"/></g><path d="M76.5 94a17.3 17.3 0 0 1-34.6 0z" fill="#fff"/></g></g><g><path d="M45.3 125.7v10.8m28-10.8v10.8m-28-1.1c0-7.1 6.3-12.8 14-12.8s14 5.7 14 12.8" fill="none" stroke="#b5b5b5" stroke-linecap="round" stroke-miterlimit="10" stroke-width="1.161"/><path d="M40.5 119.4H78v6.3H40.5z" fill="#b5b5b5"/><path d="M43.6 122.5H75" fill="none" stroke="#212121" stroke-miterlimit="10" stroke-width="1.161"/></g></g></svg>