<svg xmlns="http://www.w3.org/2000/svg" width="198" height="270"><g><g data-name="Tambourine"><circle cx="155.7" cy="63.2" r="30.2" fill="#f47b20"/><circle cx="155.7" cy="63.2" r="30.2" fill="#faebbc"/><circle cx="182.2" cy="55.7" r="9.6" transform="rotate(-10.5 182.0038 55.6844)" fill="#b5b5b5"/><circle cx="176" cy="82" r="9.6" transform="rotate(-10.5 175.7448 81.9975)" fill="#b5b5b5"/><path d="M180.2 73.6a7.5 7.5 0 0 1 2.3 4.6 9 9 0 0 1-7.3 10.4 12.9 12.9 0 0 1-6.5-.4 10.4 10.4 0 0 0 8.9 3.1c4.9-.8 8.8-6.2 7.9-11.1a9.1 9.1 0 0 0-5.3-6.6z" style="isolation:isolate" fill="#b5b5b5" opacity=".53"/><circle cx="150.8" cy="89.4" r="9.6" fill="#b5b5b5"/><path d="M159.4 85.4a8.5 8.5 0 0 1-1.1 5.1 9 9 0 0 1-12.2 3.7c-1.6-.9-4.1-2.8-4.9-4.3a11.3 11.3 0 0 0 5.1 8c4.4 2.4 10.8.6 13.1-3.8a9.2 9.2 0 0 0 0-8.7z" style="isolation:isolate" fill="#b5b5b5" opacity=".53"/><circle cx="176" cy="82" r="9.6" transform="rotate(-10.5 175.7448 81.9975)" fill="#b5b5b5"/><circle cx="150.8" cy="89.4" r="9.6" fill="#b5b5b5"/><circle cx="129.1" cy="69.7" r="9.6" fill="#b5b5b5"/><circle cx="135.3" cy="43.4" r="9.6" fill="#b5b5b5"/><circle cx="160.5" cy="36" r="9.6" fill="#b5b5b5"/><path d="M151.1 38.1a25.6 25.6 0 1 1-20.5 29.8 25.6 25.6 0 0 1 20.5-29.8m-.9-4.6a30.2 30.2 0 1 0 35.2 24.2 30.3 30.3 0 0 0-35.2-24.2z" fill="#4caf50"/></g><g data-name="Right Arm"><path d="M64.7 132.9c26 7.4 58.2-6.3 65-30" fill="none" stroke="#32a558" stroke-linecap="round" stroke-miterlimit="10" stroke-width="13.357"/><circle cx="133.6" cy="89.2" r="14.2" fill="#fadcbc"/><path d="M143.1 99.8l-23.2-6.6a6.7 6.7 0 1 0-3.7 12.8l23.2 6.7a6.7 6.7 0 1 0 3.7-12.9z" fill="#fff"/></g></g></svg>