<svg xmlns="http://www.w3.org/2000/svg" width="198" height="270"><g><g><g fill="#32a558"><path d="M47.5 184.9h23.4l-11.7-59.1-11.7 59.1z"/><path d="M59.2 119.1a28.6 28.6 0 0 0-28.5 28.5v23.8a28.5 28.5 0 0 0 57 0v-23.8a28.6 28.6 0 0 0-28.5-28.5z"/></g><path d="M70.9 184.9v52.6" fill="none" stroke="#32a558" stroke-miterlimit="10" stroke-width="13.357"/><g><path d="M47.5 184.9v52.6" fill="none" stroke="#32a558" stroke-miterlimit="10" stroke-width="13.357"/><g><path d="M17.9 244.1a13 13 0 0 0 12.9 13 10 10 0 0 0 10-10.1v-9.5h13.4v29.2a3.3 3.3 0 0 1-3.3 3.3H18.2A13.1 13.1 0 0 1 5 257.5a12.9 12.9 0 0 1 12.9-13.4z" fill="#332e2e"/><path d="M40.8 250.4h5.1a3.4 3.4 0 0 0 0-6.7h-5.1a3.4 3.4 0 0 0 0 6.7z" fill="#f9ce1d"/></g></g><g><path fill="#332e2e" d="M30.7 157.2h57v14.24h-57z"/><path fill="#f9ce1d" d="M52.1 157.2h14.2v14.24H52.1z"/></g></g><g data-name="Left Arm"><path d="M43.6 128.1C20 133 0 150 15.8 172" fill="none" stroke="#32a558" stroke-linecap="round" stroke-miterlimit="10" stroke-width="13.357"/><circle cx="25.1" cy="182.8" r="14.2" fill="#fadcbc"/><path d="M29.9 159.7a6.7 6.7 0 0 0-9.4-.7L2.3 174.9a6.7 6.7 0 0 0-.7 9.4 6.8 6.8 0 0 0 9.5.7l18.2-15.9a6.6 6.6 0 0 0 .6-9.4z" fill="#fff"/></g></g></svg>