<svg xmlns="http://www.w3.org/2000/svg" width="228.9" height="270"><g><path d="M128.5 184.9v52.6" fill="none" stroke="#9e3494" stroke-miterlimit="10" stroke-width="13.357"/><g><path d="M105.1 184.9v52.6" fill="none" stroke="#9e3494" stroke-miterlimit="10" stroke-width="13.357"/><g><path d="M75.5 244.1a13 13 0 0 0 12.9 13 10 10 0 0 0 10-10.1v-9.5h13.4v29.2a3.3 3.3 0 0 1-3.3 3.3H75.8a13.1 13.1 0 0 1-13.2-12.5 12.9 12.9 0 0 1 12.9-13.4z" fill="#332e2e"/><path d="M98.4 250.4h5.1a3.4 3.4 0 0 0 0-6.7h-5.1a3.4 3.4 0 0 0 0 6.7z" fill="#f9ce1d"/></g></g><g><path fill="#ee3c39" d="M105.1 184.9h23.4l-11.7-59.1-11.7 59.1z"/><path d="M116.8 119.1a28.6 28.6 0 0 0-28.5 28.5v23.8a28.5 28.5 0 0 0 57 0v-23.8a28.6 28.6 0 0 0-28.5-28.5z" fill="#9e3494"/></g><g><path fill="#332e2e" d="M88.3 157.2h57v14.24h-57z"/><path fill="#f9ce1d" d="M109.7 157.2h14.2v14.24h-14.2z"/></g></g></svg>