<svg xmlns="http://www.w3.org/2000/svg" width="180" height="265.9" viewBox="-389 148.1 180 265.9" enable-background="new -389 148.1 180 265.9"><path fill="#fff" d="M-281.8 351.1l-.3 49.2-15-.1.3-49.2"/><path fill="#802B83" d="M-281.8 351.1l-.2 26.1-15-.1.2-26.1"/><path fill="#fff" d="M-317.9 350.9l-.4 49.1 15 .1.4-49.1"/><path fill="#802B83" d="M-270.7 332.3c-.1 15.9-13.1 28.8-29.1 28.7-15.9-.1-28.8-13.1-28.6-29.1l.3-39.8c.1-15.9 13.1-28.8 29.1-28.7 15.9.1 28.8 13.1 28.7 29.1l-.4 39.8z"/><path fill="#AB47BC" d="M-282.7 332.2c-.1 15.9-1.2 28.9-17.1 28.7-15.9-.1-28.8-13.1-28.6-29.1l.3-39.8c.1-15.9 13.1-28.8 29.1-28.7 15.9.1 16.8 13 16.7 29l-.4 39.9z"/><path fill="#AB47BC" d="M-317.9 350.9l-.2 26.1 15 .1.2-26.1"/><path stroke="#fff" stroke-width=".739" stroke-miterlimit="10" fill="none" d="M-298 265l-.6 77.1"/><path fill="#332E2E" d="M-270.74 333.507l-57.7-.412.104-14.4 57.7.412z"/><path fill="#FDD500" d="M-291.946 334.354l-15-.108.117-16.4 15 .108z"/><path fill="#fff" d="M-342.2 409.9h40.5v4.1h-40.5z"/><path fill="#332E2E" d="M-328.1 401.7c6.5 0 8.9-4.3 8.9-4.3h16.7v12.5h-16.8v-.1h-22.1v-5.2s6.7-2.9 13.3-2.9z"/></svg>