<svg xmlns="http://www.w3.org/2000/svg" viewBox="-8 -12 86.42 87.29"><defs><style>.cls-1{fill:#fff;}.cls-2,.cls-4{fill:#bae4f9;}.cls-2,.cls-3{opacity:0.5;}</style></defs><g><g><path class="cls-1" d="M70.42,36.11a21.12,21.12,0,0,0-.84-5.92c-1.55-5.28-5.29-9.72-6.84-15-.53-1.81-.81-3.73-1.81-5.33C59,6.76,55.75,6.82,53,5c-2.55-1.66-4.64-3.1-7.67-3.92a38.92,38.92,0,0,0-18.61,0A38,38,0,0,0,22.3,2.47,39.64,39.64,0,0,0,9.94,9.78c-1,.87-1.69,1.86-2.74,2.67A18.38,18.38,0,0,0,0,27.58C.14,30.42.93,33.2.93,36S.09,41.82.38,44.71C.7,48,2.44,51,4.14,53.83a44.93,44.93,0,0,0,4.69,6.83c1.79,2,4,3.23,6.11,4.8,4.74,3.49,11.17,5.36,17,5.75a33.3,33.3,0,0,0,3.74.06A39.74,39.74,0,0,0,53.48,66a43.8,43.8,0,0,0,7.65-5.46c2.14-1.91,3.21-5,4.5-7.55a52.76,52.76,0,0,0,3.18-7.42A30,30,0,0,0,70.42,36.11Z"/><path class="cls-2" d="M31,65.17c2.7-.64,4-3.91,6.61-4.92,2-.78,4.19-.06,6.14.79s3.95,1.86,6.06,1.66c2.48-.24,4.47-2.09,6.19-3.88q3.3-3.43,6.31-7.11c2.07-2.52,4.1-5.26,4.66-8.48s-.84-7-3.89-8.14l-6.26,6.5C55.6,42.8,54.21,44.1,52.54,44a4,4,0,0,1-2.89-1.76,11.65,11.65,0,0,1-1.46-3.16L44.35,28,30.06,41.84a3.51,3.51,0,0,1-2.56,1.34c-2.06-.2-2.32-3.54-4.28-4.2a2.68,2.68,0,0,0-2.53.65,8,8,0,0,0-1.6,2.21C17.59,44.52,16,47.6,17,50.53c1.14,3.55,5.16,4.67,6.77,7.79.85,1.64,1.08,3.47,2.33,4.92C27.06,64.39,29.32,65.93,31,65.17Z"/><g class="cls-3"><path class="cls-4" d="M14.94,65.46c-2.13-1.57-4.32-2.77-6.11-4.8a44.93,44.93,0,0,1-4.69-6.83,29,29,0,0,1-3.37-7l.09.14a44.93,44.93,0,0,0,4.69,6.83c1.79,2,4,3.23,6.11,4.79,4.74,3.5,11.17,5.37,17,5.76a33.34,33.34,0,0,0,3.74,0A39.52,39.52,0,0,0,50.2,59.14a43.87,43.87,0,0,0,7.66-5.46c2.13-1.91,3.21-5,4.49-7.55a52.82,52.82,0,0,0,3.19-7.42,30.28,30.28,0,0,0,1.61-9.51,21.1,21.1,0,0,0-.84-5.91c-.09-.31-.21-.61-.32-.92a40.59,40.59,0,0,1,3.59,7.82,21.12,21.12,0,0,1,.84,5.92,30,30,0,0,1-1.61,9.5A52.76,52.76,0,0,1,65.63,53c-1.29,2.51-2.36,5.64-4.5,7.55A43.8,43.8,0,0,1,53.48,66a39.74,39.74,0,0,1-17.82,5.23,33.3,33.3,0,0,1-3.74-.06C26.11,70.82,19.68,69,14.94,65.46Z"/></g><path class="cls-2" d="M5.28,32.13a6.24,6.24,0,0,0,.54,3,2.61,2.61,0,0,0,2.47,1.46,2.87,2.87,0,0,0,2.06-1.83,22,22,0,0,0,.72-2.79,12.75,12.75,0,0,1,4.24-6.33,38.61,38.61,0,0,1,6.47-4.21l7.53-4.21A8.54,8.54,0,0,1,32.42,16c1.78-.22,3.48.67,5.19,1.21s3.87.63,5-.77a3.63,3.63,0,0,0,.72-2.11,5.94,5.94,0,0,0-5.42-6c-3.22-.16-6,2.33-9.12,3-2.07.42-4.21,0-6.33,0-3.7,0-6.93,2.48-9.63,4.82A22.21,22.21,0,0,0,6.41,25.6,21,21,0,0,0,5.28,32.13Z"/></g></g></svg>