<svg xmlns="http://www.w3.org/2000/svg" xmlns:xlink="http://www.w3.org/1999/xlink" viewBox="0 0 104.45 154.81"><defs><style>.cls-1{fill:#b3b3b3;}.cls-2{fill:#37414e;}.cls-3{opacity:0.2;}.cls-4{fill:#a67c52;}.cls-5{fill:#754c24;}.cls-6{fill:#f9f9f9;}.cls-7{fill:#e43935;}</style><symbol id="New_Symbol_72" data-name="New Symbol 72" viewBox="0 0 104.45 105.48"><g id="Layer_2-2" data-name="Layer 2"><g id="Art-2" data-name="Art"><path class="cls-1" d="M47.82,77.09H41.55V46.31A17.63,17.63,0,0,1,59.16,28.7h32a7,7,0,1,0,0-14H89.94V8.47H91.2a13.25,13.25,0,0,1,0,26.49h-32A11.36,11.36,0,0,0,47.82,46.31Z"/><rect class="cls-2" width="90" height="22.29" rx="3.89" ry="3.89"/><g class="cls-3"><path d="M86.07,19.68H3.93A3.94,3.94,0,0,1,0,15.82V18.4a3.94,3.94,0,0,0,3.93,3.89H86.07A3.94,3.94,0,0,0,90,18.4V15.82A3.94,3.94,0,0,1,86.07,19.68Z"/></g><path class="cls-4" d="M52.88,91.54A18.88,18.88,0,0,0,54,95.92V82A20,20,0,0,0,52.88,91.54Z"/><path class="cls-4" d="M50.9,52.52c.22,1.22.48,2.44.74,3.65a60.84,60.84,0,0,1,1.24,7.22c.47,5.11-.34,10.27-1.21,15.13L51.4,80a75,75,0,0,0-1.64,13.44,28,28,0,0,0,1.5,9.3,9.22,9.22,0,0,0,2.58-5.15,20.18,20.18,0,0,1-1.73-5.94A20.75,20.75,0,0,1,54,80.07V53A9.22,9.22,0,0,0,50.3,45.6,30.94,30.94,0,0,0,50.9,52.52Z"/><path class="cls-4" d="M41,80.39c.13-1.25.13-6.56-.72-7.43a.21.21,0,0,0-.08-.06A.33.33,0,0,0,40,73c-.77.9-.38,4.8-.23,6.28a7.08,7.08,0,0,0,.07.78,2.57,2.57,0,0,0,.16,1c.11.23.31.39.48.36A1.35,1.35,0,0,0,41,80.39Z"/><path class="cls-4" d="M46,88.5c.15-.85.28-1.7.43-2.56C47.52,79.25,48.7,72.33,48,65.55A70.34,70.34,0,0,0,46.33,57c-.31-1.39-.65-2.84-1-4.28a36.57,36.57,0,0,1-.84-9.1,9.09,9.09,0,0,0-3.3.64A119.37,119.37,0,0,0,43,70l.15.83A28.69,28.69,0,0,1,44,78.4a28.42,28.42,0,0,1-1.2,5.47c-.21.71-.42,1.43-.59,2.15-1.57,6.11-1.4,12.63-.88,18.81a9.07,9.07,0,0,0,3.41.65h.1C44.29,99.67,45.11,93.8,46,88.5Z"/><path class="cls-4" d="M41.41,85.83c.19-.72.4-1.45.61-2.17a27.69,27.69,0,0,0,1.16-5.33A27.57,27.57,0,0,0,42.49,71l-.15-.83a121.44,121.44,0,0,1-1.82-25.47,9.28,9.28,0,0,0-2.32,1.66c.94,6.75,1.75,13.69.59,20.55-.17,1-.4,2.09-.61,3.1a35.35,35.35,0,0,0-1,6.31,35.75,35.75,0,0,0,.8,7.14,39.47,39.47,0,0,1,.82,6.68,39,39,0,0,1-.82,7.3c-.26,1.47-.53,3-.69,4.45a9.29,9.29,0,0,0,3.16,2.62C40,98.4,39.86,91.91,41.41,85.83Zm-2.1-4.42a3.16,3.16,0,0,1-.22-1.29,3.48,3.48,0,0,0-.07-.74c-.29-3-.44-5.84.4-6.84a1,1,0,0,1,.74-.38.8.8,0,0,1,.67.28c1.23,1.26,1,7.4.92,8-.11,1-.52,1.66-1.16,1.75h-.14A1.34,1.34,0,0,1,39.31,81.41Z"/><path class="cls-4" d="M46.15,52.65c.29,1.42.63,2.86,1,4.24a74,74,0,0,1,1.64,8.62c.75,6.93-.44,13.86-1.59,20.6-.14.85-.28,1.7-.43,2.55-.86,5.23-1.67,11-1.19,16.77a9.2,9.2,0,0,0,5.13-2.15A28.47,28.47,0,0,1,49,93.38a75.42,75.42,0,0,1,1.63-13.56l.27-1.48c.86-4.81,1.66-9.9,1.2-14.93a62.68,62.68,0,0,0-1.21-7.08c-.27-1.22-.53-2.45-.76-3.67a31,31,0,0,1-.54-7.57,9,9,0,0,0-4.25-1.37A35.8,35.8,0,0,0,46.15,52.65Z"/><path class="cls-4" d="M38.11,90.11a38.86,38.86,0,0,0-.82-6.54,35.88,35.88,0,0,1-.81-7.3,37,37,0,0,1,1-6.45c.22-1,.44-2,.61-3.06,1.1-6.55.38-13.21-.52-19.72A9.26,9.26,0,0,0,35.43,53V96.21a9.37,9.37,0,0,0,1.28,4.67c.16-1.22.38-2.43.59-3.62A39.06,39.06,0,0,0,38.11,90.11Z"/><path class="cls-5" d="M42.15,86c.17-.72.38-1.44.59-2.15A28.48,28.48,0,0,0,44,78.4a28.32,28.32,0,0,0-.71-7.57L43.12,70a119.37,119.37,0,0,1-1.81-25.67c-.25.1-.51.22-.76.34a121.44,121.44,0,0,0,1.82,25.47l.15.83a27.57,27.57,0,0,1,.69,7.36A27.09,27.09,0,0,1,42,83.66c-.21.72-.42,1.45-.61,2.17-1.52,6.08-1.37,12.57-.9,18.63a6.2,6.2,0,0,0,.79.36C40.75,98.65,40.58,92.13,42.15,86Z"/><path class="cls-5" d="M45.42,52.79c.29,1.44.63,2.88,1,4.28A72.56,72.56,0,0,1,48,65.58c.74,6.79-.44,13.71-1.58,20.4-.15.86-.29,1.71-.43,2.56-.88,5.26-1.69,11.13-1.2,16.93h.75c-.48-5.72.33-11.54,1.19-16.77.15-.85.29-1.7.43-2.55,1.15-6.74,2.34-13.71,1.59-20.6a72,72,0,0,0-1.65-8.62c-.31-1.38-.65-2.82-.94-4.25a36,36,0,0,1-.82-8.91h-.75A36.91,36.91,0,0,0,45.42,52.79Z"/><path class="cls-5" d="M50.12,52.66c.23,1.22.49,2.45.76,3.67a63.61,63.61,0,0,1,1.23,7.13c.46,5-.34,10.12-1.2,14.93l-.27,1.48A75.75,75.75,0,0,0,49,93.45a28.51,28.51,0,0,0,1.65,9.9,7.82,7.82,0,0,0,.6-.55,28,28,0,0,1-1.5-9.35A75.81,75.81,0,0,1,51.38,80l.27-1.49c.87-4.89,1.68-10,1.23-15.15a60.87,60.87,0,0,0-1.25-7.22c-.26-1.21-.52-2.43-.74-3.65a31,31,0,0,1-.57-6.93,7.21,7.21,0,0,0-.72-.51A31.09,31.09,0,0,0,50.12,52.66Z"/><path class="cls-5" d="M52.11,91.64a20.18,20.18,0,0,0,1.73,5.94A10.41,10.41,0,0,0,54,96.21v-.29a19.36,19.36,0,0,1-1.08-4.38A20,20,0,0,1,54,82V80A20.76,20.76,0,0,0,52.11,91.64Z"/><path class="cls-5" d="M40.59,82.21c.64-.09,1-.72,1.16-1.75.07-.62.31-6.76-.92-8a.8.8,0,0,0-.67-.28,1,1,0,0,0-.74.38c-.84,1-.69,3.88-.4,6.84a6.15,6.15,0,0,0,.07.74,3.16,3.16,0,0,0,.22,1.29,1.36,1.36,0,0,0,1.14.81ZM40,81.1a2.6,2.6,0,0,1-.16-1,3.8,3.8,0,0,0-.07-.78c-.15-1.48-.54-5.38.23-6.28a.34.34,0,0,1,.2-.13l.09.06c.85.87.85,6.18.72,7.43,0,.46-.22,1-.53,1.07S40.11,81.33,40,81.1Z"/><path class="cls-5" d="M38.86,90.11A40.53,40.53,0,0,0,38,83.43a35,35,0,0,1-.8-7.14A34.46,34.46,0,0,1,38.17,70c.21-1,.44-2.06.61-3.1,1.16-6.86.35-13.8-.59-20.55a7.5,7.5,0,0,0-.67.71c.9,6.51,1.62,13.17.52,19.72-.17,1-.39,2.06-.61,3.06a37,37,0,0,0-1,6.45,36.37,36.37,0,0,0,.85,7.28,38.86,38.86,0,0,1,.82,6.54,39.1,39.1,0,0,1-.84,7.15c-.21,1.19-.43,2.4-.59,3.62.2.34.41.67.64,1,.16-1.5.43-3,.69-4.45A38.89,38.89,0,0,0,38.86,90.11Z"/><g class="cls-3"><path d="M49.49,45a9.29,9.29,0,0,1,1.35,4.81V93.09a9.28,9.28,0,0,1-9.28,9.27h0A9.26,9.26,0,0,1,36.75,101a9.27,9.27,0,0,0,7.92,4.45h0A9.28,9.28,0,0,0,54,96.21V53A9.29,9.29,0,0,0,49.49,45Z"/></g></g></g></symbol></defs><title>roller_stripes1</title><g id="Layer_2" data-name="Layer 2"><g id="Art"><rect class="cls-6" x="6.92" width="6.92" height="59.7"/><rect class="cls-6" x="20.77" width="6.92" height="59.7"/><rect class="cls-6" x="34.62" width="6.92" height="59.7"/><rect class="cls-6" x="76.15" width="6.92" height="59.7"/><rect class="cls-6" x="48.46" width="6.92" height="59.7"/><rect class="cls-6" x="62.31" width="6.92" height="59.7"/><rect class="cls-7" width="6.92" height="59.7"/><rect class="cls-7" x="13.85" width="6.92" height="59.7"/><rect class="cls-7" x="27.69" width="6.92" height="59.7"/><rect class="cls-7" x="41.54" width="6.92" height="59.7"/><rect class="cls-7" x="55.38" width="6.92" height="59.7"/><rect class="cls-7" x="69.23" width="6.92" height="59.7"/><rect class="cls-7" x="83.08" width="6.92" height="59.7"/><use id="New_Symbol_72-3" data-name="New Symbol 72" width="104.45" height="105.48" transform="translate(0 49.33)" xlink:href="#New_Symbol_72"/></g></g></svg>