<svg xmlns="http://www.w3.org/2000/svg" xmlns:xlink="http://www.w3.org/1999/xlink" version="1.1" id="Layer_1" x="0px" y="0px" viewBox="0 0 12.024 15.918" style="enable-background:new 0 0 12.024 15.918;" xml:space="preserve"><g id="XMLID_165_"><g><polygon style="fill:#E3FAE4;" points="0.958,7.375 12.024,7.375 6.491,0"/><g><path style="fill:#E3FAE4;" d="M9.531 6.544c0 0-0.009 0.057-0.025 0.163C9.488 6.836 9.464 7.053 9.421 7.252 C9.345 7.679 9.203 8.258 8.999 8.94c-0.215 0.681-0.493 1.46-0.899 2.264c-0.191 0.401-0.422 0.807-0.685 1.206 c-0.229 0.402-0.574 0.782-0.86 1.153c-0.351 0.35-0.667 0.708-1.057 0.991c-0.391 0.282-0.751 0.56-1.173 0.73 c-0.198 0.092-0.393 0.182-0.584 0.271c-0.2 0.064-0.401 0.11-0.59 0.16c-0.187 0.046-0.369 0.09-0.544 0.133 c-0.177 0.027-0.354 0.027-0.517 0.039c-0.329 0.01-0.618 0.048-0.876 0.022c-0.254-0.033-0.476-0.062-0.659-0.086 C0.202 15.774 0 15.746 0 15.746s0.196-0.06 0.538-0.165c0.166-0.052 0.366-0.114 0.597-0.187 c0.225-0.078 0.458-0.229 0.711-0.355c0.124-0.07 0.257-0.127 0.381-0.211c0.116-0.095 0.236-0.193 0.359-0.294 c0.119-0.101 0.244-0.194 0.36-0.3c0.101-0.124 0.203-0.25 0.308-0.377c0.221-0.227 0.366-0.542 0.524-0.822 c0.157-0.281 0.245-0.625 0.357-0.921c0.062-0.346 0.167-0.637 0.187-0.983c0.045-0.326 0.069-0.649 0.066-0.974 c0.015-0.633-0.049-1.24-0.119-1.747C4.187 7.901 4.101 7.482 4.021 7.211c-0.035-0.151-0.07-0.208-0.09-0.266 C3.911 6.889 3.895 6.814 3.896 6.821L9.531 6.544z"/></g></g></g></svg>