<svg xmlns="http://www.w3.org/2000/svg" xmlns:xlink="http://www.w3.org/1999/xlink" version="1.1" id="Layer_1" x="0px" y="0px" viewBox="0 0 165 165" style="enable-background:new 0 0 165 165;" xml:space="preserve"><circle style="fill:#FFD300;" cx="82.582" cy="82.582" r="82.582"/><g id="Layer_2"><g><g><g><path style="fill:#C3161C;" d="M78.382 127.908c18.08-10.93 23.484-18.266 30.635-27.071 c7.153-8.801 13.225-15.594 20.219-35.533c1.361-6.884-6.828-14.964-10.751-16.305c0 0-4.07-1.095-4.995-1.245 c-1.553-0.249-1.936 0.062-3.76 2.656c-3.87 5.499-6.914 15.923-7.72 19.774c-0.332 1.589 0.712 2.26 0.712 2.26 s6.197 2.903 6.77 2.303c1.022 0.828 3.123 3.888 1.761 5.915l-10.593 13.387L89.73 107.162c-1.703 1.747-5.13 0.321-6.151-0.51 c0.035-0.614-0.703-2.13-0.703-2.13l-3.011-3.788c0 0-0.298-1.195-2.071-0.414c-4.07 1.789-15.963 9.911-17.987 11.555 c-2.462 1.999-2.393 2.757-1.83 4.223c0.337 0.876 2.244 4.635 2.244 4.635C62.339 124.295 71.922 130.651 78.382 127.908z"/><path style="fill:#E84436;" d="M75.757 126.246c18.08-10.929 23.484-18.263 30.635-27.07 c7.152-8.801 13.225-15.594 20.216-35.531c1.362-6.885-4.2-13.303-8.122-14.644c0 0-4.07-1.095-4.995-1.245 c-1.553-0.249-1.936 0.062-3.76 2.656c-3.87 5.499-6.914 15.923-7.72 19.774c-0.332 1.589 0.712 2.26 0.712 2.26 s6.197 2.903 6.77 2.303c1.022 0.828 3.123 3.888 1.761 5.915L100.66 94.05l-10.93 13.112c-1.703 1.747-5.13 0.321-6.151-0.51 c0.096-1.126-0.703-2.292-0.703-2.292l-2.761-3.623c0 0-0.798-1.104-2.321-0.418c-4.053 1.829-15.963 9.911-17.987 11.555 c-2.462 1.999-2.393 2.757-1.83 4.223c0.337 0.876 2.244 4.635 2.244 4.635C62.339 124.295 69.297 128.989 75.757 126.246z"/><path style="fill:none;stroke:#CDCCCB;stroke-width:0.7049;stroke-miterlimit:10;" d="M119.624 49.508 c0 0-2.865 4.032-6.203 12.345c-3.336 8.313-3.927 12.895-3.927 12.895"/><path style="fill:none;stroke:#CDCCCB;stroke-width:0.7049;stroke-miterlimit:10;" d="M60.954 121.739 c0 0 3.359-3.629 10.811-8.601c7.452-4.969 11.816-6.488 11.816-6.488"/></g></g><path style="fill:#36B149;" d="M104.791 57.781c-7.269-6.231-14.779-7.622-20.729-7.333c-5.361-6.012-13.16-9.799-21.846-9.799 c-16.168 0-29.273 13.105-29.273 29.273c0 16.165 13.105 29.272 29.273 29.272c16.165 0 29.272-13.107 29.272-29.272 c0-3.418-0.591-6.697-1.667-9.745C96.409 56.011 104.791 57.781 104.791 57.781z"/><g><g><ellipse style="fill:#ED9D97;" cx="53.186" cy="69.281" rx="3.379" ry="3.297"/></g><g><ellipse style="fill:#ED9D97;" cx="75.849" cy="69.281" rx="3.379" ry="3.297"/></g><g><ellipse style="fill:#F9D099;" cx="64.516" cy="71.081" rx="12.477" ry="12.183"/></g><g><path style="fill:#E84436;" d="M76.987 64.572c-1.117-2.851-2.824-5.417-4.996-7.537c-4.011-3.92-12.432-6.338-18.557-6.338 v13.875H76.987z"/></g><g><path style="fill:#FFFFFF;" d="M52.001 51.181c0 2.049-1.703 3.709-3.804 3.709s-3.801-1.659-3.801-3.709 c0-2.053 1.701-3.714 3.801-3.714S52.001 49.129 52.001 51.181z"/></g><g><path style="fill:#FFFFFF;" d="M78.538 64.243c0 0.957-0.802 1.738-1.78 1.738H52.279c-0.98 0-1.781-0.781-1.781-1.738V59.45 c0-0.957 0.802-1.738 1.781-1.738h24.479c0.979 0 1.78 0.781 1.78 1.738V64.243z"/></g><g><rect x="52.039" y="71.081" style="fill:#F9D099;" width="24.954" height="6.193"/></g><g><path style="fill:#4D4D4D;" d="M59.324 67.864c0 0.43-0.357 0.777-0.795 0.777c-0.439 0-0.793-0.348-0.793-0.777 c0-0.426 0.354-0.776 0.793-0.776S59.324 67.438 59.324 67.864z"/></g><g><path style="fill:#4D4D4D;" d="M69.71 67.864c0 0.43 0.355 0.777 0.796 0.777c0.436 0 0.791-0.348 0.791-0.777 c0-0.426-0.355-0.776-0.791-0.776C70.065 67.088 69.71 67.438 69.71 67.864z"/></g><g><path style="fill:#999999;" d="M59.324 67.864c0 0.43-0.357 0.777-0.795 0.777c-0.439 0-0.793-0.348-0.793-0.777 c0-0.426 0.354-0.776 0.793-0.776S59.324 67.438 59.324 67.864z"/></g><g><path style="fill:#999999;" d="M69.71 67.864c0 0.43 0.355 0.777 0.796 0.777c0.436 0 0.791-0.348 0.791-0.777 c0-0.426-0.355-0.776-0.791-0.776C70.065 67.088 69.71 67.438 69.71 67.864z"/></g><g><path style="fill:#FFFFFF;" d="M79.628 81.651c0 6.329-5.254 11.459-11.736 11.459c-15.852 0-21.98-16.582-21.98-22.908 c2.937 0 15.498-0.008 21.98-0.008S79.628 75.324 79.628 81.651z"/></g><g><path style="fill:#4D4D4D;" d="M66.919 73.718c0 1.289-1.072 2.333-2.392 2.333c-1.317 0-2.389-1.044-2.389-2.333"/></g><g><ellipse style="fill:#ED9D97;" cx="64.517" cy="70.194" rx="3.372" ry="2.685"/></g></g></g></g></svg>