<svg xmlns="http://www.w3.org/2000/svg" xmlns:xlink="http://www.w3.org/1999/xlink" version="1.1" id="Layer_1" x="0px" y="0px" viewBox="0 0 100.1 100.1" style="enable-background:new 0 0 100.1 100.1;" xml:space="preserve"><g id="Layer_10"><g id="New_Symbol_58"></g><g id="_x27__2_2_"></g><g id="_x27__2_1_"></g><g id="_x27__2"></g><g id="New_Symbol_57"></g><g id="New_Symbol_2"><g id="New_Symbol_36"><g id="New_Symbol_76"></g><g id="New_Symbol_79"></g><g id="New_Symbol_80"></g></g></g><g id="santa"></g><g id="New_Symbol_70"><g id="New_Symbol_69"><g id="New_Symbol_2_1_"><g id="New_Symbol_36_1_"></g></g></g></g><g id="New_Symbol_27"></g><g id="New_Symbol_26"></g><g id="New_Symbol_29"></g><g id="New_Symbol_32"><g id="New_Symbol_32_1_"><g id="New_Symbol_111"></g></g></g><g id="_x27__2_3_"></g><g id="New_Symbol_109"><g id="New_Symbol_112"></g></g></g><g id="Notes"><g id="_x27__2_4_"></g><g id="New_Symbol_109_2_"></g></g><g id="Grid"></g><g id="Layer_7"></g><g id="Layer_8"></g><g id="Layer_15"></g><g id="Layer_16"><g><circle style="fill:#00BE5D;" cx="50.1" cy="50.1" r="50.1"/><rect x="11.6" y="27.1" style="fill:none;" width="76.9" height="45.9"/><path style="fill:#0580DD;" d="M11.7 50.1c0 6.4 6.6 16.3 16.6 22.9h43.9c9.8-6.7 16.3-16.6 16.3-22.9c0-6.4-6.6-16.4-16.7-23 H28.4C18.3 33.7 11.7 43.7 11.7 50.1z"/><rect x="11.9" y="26.6" style="fill:none;" width="76.9" height="45.9"/><g><path style="fill:#00B07B;" d="M37 73c-0.2-0.3-0.7-0.2-1.1-0.4c-0.2-0.1-0.5-0.3-0.6-0.5c-0.2-0.1-0.5-0.3-0.5-0.5 c0-0.1 0.2-0.2 0.3-0.3c0-0.1-0.1-0.1 0-0.2c0.1-0.2 0.4-0.2 0.4-0.5c0-0.4-1-0.2-1-0.6c0-0.3 0.5-0.2 0.6-0.5 c0-0.1 0-0.2-0.1-0.3c0.1-0.2 0.3-0.2 0.4-0.4c-0.1-0.1-0.4 0-0.5-0.1c-0.2-0.1-0.2-0.2-0.2-0.4c0.3-0.1 0.8 0.2 1-0.1 c0.1-0.1-0.1-0.5 0-0.6s0.6-0.1 0.8-0.1c0.3 0 0.6-0.1 0.7-0.2c0.2-0.1 0.4-0.3 0.4-0.5c0-0.1-0.1-0.1-0.2-0.2 c-0.1-0.1-0.1-0.2-0.2-0.3c-0.1-0.1-0.3-0.1-0.4-0.3c0.4-0.1 0.9 0.2 1.5 0.1c0.3-0.1 0.6-0.4 0.7-0.6c0-0.1 0-0.1 0.1-0.2 c0-0.1 0.1-0.1 0.2-0.2c0-0.1 0-0.2 0.1-0.2c0.1-0.2 0.3-0.3 0.5-0.4c0.1-0.1 0.2-0.2 0.3-0.3c0.1-0.1 0.2-0.2 0.3-0.3 c0.1-0.3-0.2-0.6-0.1-0.9c0.1-0.3 0.8-0.5 1.2-0.7c0.2-0.1 0.3-0.1 0.4-0.2c0.3-0.1 0.7 0 1-0.1c0.5-0.1 0.5-0.5 0.8-0.8 c0.1-0.2 0.3-0.3 0.3-0.4c0-0.1 0-0.2 0-0.3s0.2-0.2 0.2-0.3c0.1-0.2 0.1-0.4 0.1-0.6c0-0.1-0.1-0.3-0.1-0.4 c0-0.5 0.2-0.5 0.5-0.8c0.1-0.1 0.2-0.3 0.3-0.4c0.4-0.5 1.1-0.7 1.1-1.4c0-0.2-0.2-0.7-0.4-0.8c-0.1 0-0.4 0-0.6-0.1 c-0.6-0.2-1-0.7-1.6-0.8c-0.1 0-0.3 0-0.4 0c-0.2 0-0.6-0.1-0.9-0.2c-0.2 0-0.4 0-0.5 0c-0.2-0.1-0.2-0.3-0.3-0.3 c-0.1-0.1-0.3-0.1-0.5-0.1c-0.3-0.1-0.5-0.2-0.7-0.2c-0.1 0-0.2 0-0.3 0c-0.2 0-0.3-0.2-0.4-0.2c-0.2-0.1-0.4-0.1-0.4-0.2 c0.2-0.4-0.3-0.5-0.4-0.8c-0.1-0.1 0-0.2-0.1-0.3s-0.3-0.2-0.5-0.3c-0.4-0.2-0.7-0.4-1.2-0.5c-0.2 0-0.5 0.1-0.7 0 c-0.3 0-0.7-0.2-0.9-0.4s-0.3-0.3-0.5-0.4c-0.2-0.1-0.4-0.1-0.5-0.2c-0.1 0 0-0.1-0.1-0.2c-0.1-0.1-0.2-0.2-0.1-0.4 c-0.2-0.1-0.2 0.1-0.4 0.1c-0.2-0.2-0.4-0.3-0.8-0.2c-0.2 0-0.3 0.2-0.6 0.2c-0.2 0-0.4-0.2-0.6-0.2s-0.4 0-0.6 0 s-0.3-0.2-0.5-0.3c-0.1-0.1-0.4-0.2-0.5-0.2c-0.3 0-0.4 0.4-0.8 0.3c-0.2-0.2 0.3-0.2 0.1-0.4c-0.2-0.1-0.3 0.1-0.4 0.1 c-0.1 0.1-0.3 0.1-0.4 0.2c-0.4 0.1-0.6 0-0.8 0.2c-0.3 0.1-0.3 0.3-0.4 0.5s-0.4 0.4-0.6 0.4s-0.4-0.2-0.6-0.3 c-0.6-0.2-0.9 0.2-1.4 0.2s-1.1-0.5-1.1-0.8c0-0.2 0.1-0.5 0.2-0.7c0-0.2 0.2-0.3 0.2-0.5s-0.4-0.4-0.6-0.4 c-0.5-0.1-1.1 0.1-1.7 0c-0.1-0.1 0.1-0.2 0.2-0.3c0-0.1 0-0.2 0.1-0.2c0.1-0.1 0.2-0.2 0.3-0.3c0.1-0.1 0.1-0.2 0.1-0.4 c0.1-0.1 0.2-0.2 0.2-0.3s0-0.3-0.2-0.4c-0.4 0-0.7 0-1 0.1c-0.6 0.2-0.4 0.7-1 0.9c-0.2 0-0.5 0-0.7 0.1c-0.2 0-0.4 0.1-0.6 0.1 s-0.6-0.2-0.7-0.3s-0.4-0.6-0.4-0.6c-0.2-0.6 0-1.1 0.3-1.4c0.1-0.1 0.2-0.2 0.2-0.2c0.1-0.1 0-0.3 0.1-0.5 c0.1-0.3 0.6-0.4 0.9-0.5c0.4-0.1 0.7-0.4 1.1-0.4c0.2 0 0.5 0 0.7 0.1c0.2 0 0.3 0.1 0.5 0.1c0.5 0 0.6-0.2 1-0.4 c0.4 0 0.7 0 1 0c0.2 0 0.4 0.2 0.6 0.2s0.3-0.1 0.5-0.1s0.4 0.3 0.4 0.4c0 0.2-0.2 0.3-0.1 0.5c0.2 0.2 0.7 0.2 1 0.3 c0.2-0.1 0-0.4 0-0.6c0-0.1 0-0.2 0-0.2c0-0.1-0.1-0.3-0.1-0.4c0-0.5 0.6-0.8 1.1-1c0.2-0.1 0.4-0.3 0.6-0.3 c0.3-0.1 0.5-0.1 0.7-0.2c0.4-0.2 0.7-0.3 1-0.5c0.1-0.2 0-0.6 0-0.8c0.1-0.1 0.3 0 0.4 0c0.2 0 0.3-0.3 0.4-0.4 c0.1-0.1 0.3-0.1 0.4-0.2c0.2-0.1 0.3-0.3 0.5-0.4c0.1 0 0.2 0 0.4 0c0.2 0 0.4-0.2 0.6-0.2c0.2 0 0.5 0 0.6-0.1s0-0.2 0-0.3 c0.1-0.4 1-0.5 1.5-0.7c0.4-0.1 0.7-0.3 1.1-0.2c-0.1 0.2-0.4 0.1-0.4 0.4c0.1 0.3 0.7-0.1 0.9-0.2c0.3-0.1 0.8-0.2 1.3-0.3 c0.4-0.1 1-0.2 0.7-0.5c-0.3 0-0.4 0.2-0.7 0.3c-0.2 0-0.1-0.1-0.3-0.1c-0.1 0-0.2 0.1-0.4 0.1c-0.1 0-0.3-0.2-0.4-0.3 c-0.1-0.3 0.4-0.4 0.5-0.7c-0.1-0.3-0.7-0.1-1-0.2c0-0.2 0.3-0.3 0.5-0.3s0.7 0 0.8 0.1c0.1 0 0 0.2 0.1 0.2 c0.1 0.1 0.3 0.1 0.5 0.1c0.1-0.2-0.4-0.2-0.3-0.3c0.3-0.2 0.9 0 1.3-0.1c0.2 0 0.5-0.2 0.7-0.2c0.2-0.1 0.5-0.2 0.7-0.1 c0.1 0.2-0.2 0.2-0.3 0.3c-0.4 0.3-0.8 0.5-1.1 0.8c0.2 0.1 0.5 0.1 0.8 0.1c0.1 0 0.3 0 0.4 0.1c0.2 0 0.3 0 0.4 0 c0.2 0 0.3 0.2 0.5 0.2c0.4 0 0.4-0.3 0.2-0.5c0.1-0.2 0.2-0.3 0.1-0.4c-0.2-0.2-0.7 0-0.8-0.3c0-0.2 0.2-0.2 0.3-0.3 c0-0.4 0.4-0.4 0.4-0.7c0-0.1-0.2-0.1-0.3-0.3c-0.1-0.1-0.1-0.2-0.2-0.2c-0.3-0.2-0.8-0.1-0.8-0.5c0-0.2 0.1-0.3 0-0.5 c0-0.2-0.2-0.7-0.4-0.8c-0.3 0-0.6 0.3-0.9 0.4c-0.2 0.1-0.5 0.1-0.6 0.1s-0.4-0.1-0.4-0.3s0.2-0.2 0.2-0.4 c0-0.1-0.2-0.1-0.4-0.2c-0.2-0.1-0.3-0.3-0.6-0.4c-0.1 0-0.3 0.1-0.4 0.1c-0.4 0-0.7-0.2-1-0.1c-0.3 0.1-0.3 0.5-0.7 0.5 c0 0.2-0.3 0.3-0.3 0.5c0 0.1 0 0.2 0.1 0.3c0.1 0.9-0.9 1.3-2.1 1.3c-0.2 0.2-0.2 0.5-0.3 0.7c-0.1 0.2-0.5 0.4-0.7 0.4 s-0.4-0.2-0.4-0.3c0-0.2 0.3-0.2 0.1-0.4c0-0.1 0.4-0.2 0.4-0.4S30.9 35 30.5 35c-0.3 0-0.6-0.1-0.8-0.2c-0.3-0.1-0.6-0.4-1-0.4 c-0.2 0-0.4 0.1-0.5 0s0-0.3 0.1-0.3c0-0.1-0.3-0.2-0.3-0.3s0.3-0.3 0.4-0.4c0.2-0.1 0.6-0.3 0.9-0.4c0.3-0.1 0.7-0.3 1-0.3 c0.1 0 0.3 0 0.4-0.1c0.3-0.1 0.5-0.3 0.8-0.3c0.2 0 0.3 0 0.5-0.1c0.4-0.1 0.7-0.3 1.1-0.3C32.4 32 32 32 31.9 32.2 c0.3 0.4 0.8-0.1 1.2-0.1c0.3 0 0.7 0.3 0.9 0c-0.1-0.2-0.3-0.3-0.5-0.4S33 31.5 33 31.3c0.2-0.1 0.3 0.1 0.5 0.1 c0.1 0 0.3-0.1 0.4-0.1c0.3-0.1 0.7-0.1 0.9-0.2c0.1-0.1 0.1-0.2 0.2-0.3c0.1-0.1 0.3-0.1 0.4-0.2c0.1-0.1 0-0.2 0.2-0.3 c0.3-0.1 0.7 0 1 0c0.2 0 0.3-0.1 0.4-0.1c0.3 0 0.4 0.4 0.6 0.5c0.1 0.1 0.4 0.1 0.4 0.2c0.1 0.3-0.5 0.3-0.8 0.4 c-0.2 0.1-0.2 0.2-0.4 0.3c-0.5 0.2-1.4-0.2-1.5 0.3c0.3 0.3 0.7 0 1 0c0.2 0 0.5 0.2 0.6 0.3s0.2 0.3 0.3 0.3s0.3 0 0.4 0.1 c0.4 0.1 0.7 0.2 1.1 0.2c0.1-0.2-0.3-0.2-0.1-0.4c0.3 0 0.5 0.1 0.7 0.2c0.3-0.2 0.5-0.2 0.5-0.4s-0.4-0.2-0.4-0.5 c0-0.1 0.1-0.2 0.3-0.2c0.3 0 0.4 0.3 0.7 0.4c0.1 0 0.6-0.1 0.7-0.2c0.1 0 0.5-0.2 0.5-0.3c0-0.1-0.4-0.3-0.6-0.4 c-0.3-0.1-0.6-0.1-0.7-0.2c-0.1-0.1 0-0.2-0.1-0.3c0-0.1 0.2-0.2 0.1-0.3c0-0.1-0.2-0.1-0.4-0.2c-0.1 0-0.3-0.1-0.4-0.2 c-0.2 0-0.3 0-0.4 0c-0.5-0.1-0.4-0.4-0.7-0.5c-0.4 0-0.7-0.1-1 0c-0.3-0.1-0.9 0-1.3 0c-0.1 0-0.3-0.1-0.4-0.1 c-0.7 0-1.6 0.3-1.9 0.5c-0.1 0-0.2 0.3-0.2 0.4c0.1 0.2 0.6 0.1 0.7 0.2c0 0.2-0.4 0.4-0.6 0.5c-0.3 0.1-0.6 0.3-0.8 0.2 c-0.1-0.2 0.3-0.2 0.2-0.4c-0.1-0.1-0.4 0-0.5-0.2c-0.2-0.2 0-0.4 0-0.7c0.3-0.4 1.4-0.2 1.7-0.5c0-0.1-0.2-0.1-0.3-0.1 S33.8 29 33.7 29s-0.3 0.1-0.5 0.2s-0.4 0.1-0.5 0.1c-0.3 0.1-0.4 0.5-0.7 0.4c-0.1-0.2 0.3-0.3 0.3-0.5 c-0.1-0.1-0.3-0.1-0.5-0.1c-0.5 0-0.8 0.1-1 0.3c-0.2 0-0.4-0.1-0.5 0c0.1 0.1 0.3 0.4 0.6 0.4c0.2 0 0.4-0.1 0.5 0 c0 0.2-0.3 0.2-0.3 0.4c0 0.1 0.2 0.2 0.2 0.3c0 0.2-0.6 0.4-0.8 0.3c0-0.2 0.3-0.1 0.3-0.3c0-0.1-0.2-0.2-0.3-0.2 c-0.2 0-0.5 0.1-0.7 0.2c-0.1 0.1-0.1 0.2-0.3 0.3c-0.2 0.1-0.5 0.1-0.8 0.1c-0.5 0-0.8 0-1.2-0.1c-0.1 0-0.3-0.1-0.3-0.2 c0.4 0 0.8 0.1 1.3 0.1c0.2 0 0.2-0.1 0.4-0.2c0.2-0.1 0.4 0 0.4-0.1c0-0.2-0.4-0.2-0.4-0.3c0-0.1 0.2-0.3 0.3-0.4 c0.2-0.1 0.4-0.1 0.5-0.3c-0.1-0.2-0.4 0-0.6 0c-0.1 0-0.2 0-0.4 0c-0.3 0-0.4 0.2-0.6 0.3c-0.2 0-0.2-0.2-0.4-0.2 c-0.2 0.1-0.4 0-0.7 0c-0.1 0-0.3 0-0.4 0c-0.2 0-0.3-0.2-0.6-0.3c-0.1 0-0.3 0-0.5 0c-6.4 4.9-11 10.9-12.9 16.1 c0.1 0.1 0.3 0.2 0.4 0.3c0.3 0.3 0.7 0.6 0.7 1c0 0.1-0.2 0.3-0.2 0.4c0 0.1 0.2 0.3 0.4 0.4c0.2 0.1 0.4 0.2 0.5 0.3 c0.1 0 0.3 0 0.5 0.1s0.3 0.2 0.5 0.3c0.3 0.1 0.6 0.2 0.9 0.3s0.7 0.2 1 0.2c0.2 0 0.5-0.2 0.8-0.2c0.6 0 0.9 0.6 1.4 0.8 c0.1 0 0.3 0 0.5 0.1c0.1 0 0.2 0.1 0.4 0.1c0.3 0.1 0.6 0.1 0.8 0.1c0.3 0.1 0.6 0.6 0.8 0.7c0 0.1 0 0.3 0 0.4 c0.1 0.1 0.3 0.1 0.5 0.2c0.3 0.1 0.3 0.4 0.6 0.5c0.1 0 0.3 0 0.4 0.1c0.3 0.1 0.5 0.4 0.7 0.3c0.2 0 0.2-0.2 0.2-0.3 c0.1-0.1 0.3-0.3 0.5-0.3c0.3 0 0.3 0.2 0.5 0.5c0.1 0.1 0.2 0.2 0.3 0.4c0.1 0.2 0 0.9 0 1.1c-0.1 0.2-0.4 0.2-0.6 0.4 c-0.1 0.1-0.1 0.2-0.2 0.3s-0.3 0.1-0.4 0.2c-0.1 0.1-0.1 0.2-0.2 0.3c-0.2 0.2-0.4 0.4-0.2 0.7c0.1 0.1 0.3 0.2 0.3 0.3 c0 0.2-0.5 0.3-0.5 0.5c0 0.1 0.1 0.4 0.2 0.5c0 0.1 0.4 0.2 0.5 0.3c0.2 0.1 0.3 0.4 0.5 0.5c0.3 0.4 0.6 0.8 0.9 1.2 c0.2 0.2 0.4 0.4 0.5 0.5s0.1 0.2 0.1 0.3c0.2 0.3 1 0.6 1.4 0.8c0.2 0.1 0.4 0.1 0.6 0.2c0.3 0.1 0.8 0.4 1 0.6 c0.1 0.2 0.2 0.5 0.3 0.8c0.1 0.3 0 0.6 0 0.9c0 0.2 0.1 0.4 0.1 0.6c0 0.1 0 0.1-0.1 0.2c0 0.2 0.1 0.5 0.1 0.7 c0 0.1-0.1 0.2-0.1 0.3c0 0.1 0.1 0.2 0.1 0.3c0 0.1 0 0.3 0 0.3c0 0.2 0.3 0.4 0.3 0.6c0.1 0.2 0.1 0.5 0.1 0.7 c0 0.1-0.1 0.2-0.1 0.3c0 0.1 0 0.2 0 0.3c0 0.1-0.1 0.2-0.1 0.4c0 0.3 0.4 0.5 0.5 0.7c0 0.1 0 0.2 0 0.3c0 0.2 0.1 0.3 0.2 0.4 c0.1 0.2 0 0.5 0.3 0.6c0.3-0.1-0.1-0.3 0.1-0.5c0.4 0.1 0.3 0.5 0.4 0.8c-0.1 0.1-0.3-0.1-0.4 0.1c-0.1 0.1 0.1 0.2 0.1 0.3 c0 0.1-0.1 0.3-0.1 0.4c0.1 0.2 0.5 0.1 0.5 0.3c0.1 0.1-0.1 0.2-0.1 0.4c0 0.2 0.3 0.4 0.5 0.6c0.1 0.1 0.3 0.2 0.3 0.2 c0.1 0.1 0.1 0.2 0.2 0.3c0.1 0.1 0.3 0.1 0.4 0.2c0.2 0.1 0.5 0.4 0.7 0.5c0.1 0 0.2 0.1 0.4 0.1c0.2 0.1 0.3 0.1 0.5 0.2 c0.1 0 0.3 0.1 0.4 0.1L37 73L37 73z"/><path style="fill:#00B07B;" d="M76.4 30.7L76.4 30.7c-0.1 0-0.3 0-0.3 0c-0.1 0-0.2 0.1-0.4 0.2c-0.1 0-0.3 0-0.4 0.1 c-0.2 0.1-0.3 0.3-0.5 0.3c-0.1 0-0.3 0-0.4-0.2c0-0.1 0.1-0.1 0.1-0.2c-0.1-0.1-0.6-0.2-0.6 0C73.7 31 74 31.1 74 31.3 c0 0-0.1 0-0.1 0.1c-0.5-0.1-0.9 0.1-1.2 0.2c0 0.1 0 0.3-0.2 0.3c-0.4 0-0.7-0.2-0.9-0.1c0 0.2 0.3 0.1 0.3 0.3 c-0.6 0.1-1.2-0.3-1.2-0.7c0.4-0.1 1 0.1 1.4 0.1c0.2 0 0.8-0.1 0.8-0.3c0-0.2-0.6-0.3-1-0.4s-0.8-0.2-1.1-0.3 c-0.1 0-0.2 0-0.4 0c-0.3 0-0.6-0.2-0.8-0.2c-0.2 0-0.3 0-0.4 0C69 30.2 69 30.1 68.8 30c-0.3-0.1-0.7 0-1.1 0 c-0.2 0-0.5-0.1-0.7 0c-0.1 0-0.2 0.1-0.3 0.1c-0.1 0-0.2 0-0.3 0c-0.2 0-0.3 0.1-0.5 0.2c-0.3 0.1-0.6 0-0.9 0.1 c-0.3 0-0.5 0.3-0.8 0.3c-0.2 0-0.5-0.1-0.6 0.1c0 0.1 0.2 0.2 0.1 0.3c-0.2 0.2-0.6 0.3-0.8 0.5c-0.1 0.1-0.1 0.1-0.1 0.2 c-0.1 0.1-0.2 0.1-0.3 0.2s-0.1 0.2-0.2 0.3c-0.2 0.1-0.6 0-0.8 0.1c-0.1 0-0.2 0.1-0.4 0.2c-0.3 0.1-0.8 0.2-1 0.4 c-0.1 0.2 0.1 0.4 0.1 0.5s0 0.2 0 0.3c0.1 0.2 0.4 0.4 0.7 0.4c0.5 0 0.9-0.4 1.3-0.4c0.2 0 0.2 0.2 0.3 0.4 c0.1 0.1 0.5 0.3 0.4 0.5c0 0.2-0.5 0.2-0.8 0.2c0-0.2 0-0.4-0.2-0.5c-0.4 0.1-0.7 0.1-0.8 0.3c-0.1 0.3 0.2 0.5 0.2 0.8 c-0.1 0.3-0.8 0.2-1.2 0.2c-0.3 0-0.4 0.3-0.6 0.5c-0.1 0.1-0.4 0.3-0.6 0.3c-0.1 0-0.2 0-0.3 0.1s-0.2 0.2-0.4 0.3 c-0.1 0.1-0.6 0.2-0.7 0.2c-0.1 0-0.3-0.1-0.4-0.1c-0.2 0-0.1 0.3-0.3 0.3c-0.3 0.1-0.9-0.2-1 0.2c0.1 0.2 0.5 0.2 0.8 0.3 c0.2 0.1 0.5 0.4 0.5 0.5s0 0.5-0.1 0.6c-0.2 0.3-0.5 0.2-1 0.2c-0.1 0-0.3 0-0.4 0c-0.8 0-1.6-0.2-2 0.2c0 0.3 0.1 0.5 0 0.8 c-0.1 0.2-0.3 0.4-0.3 0.6c0 0.1 0.1 0.2 0.2 0.3c0 0.1 0 0.2 0 0.3c0.1 0.2 0.5 0 0.7 0.1c0.2 0 0.5 0.3 0.5 0.5 c0 0.1-0.2 0.3-0.3 0.5c-0.2 0.2-0.5 0.3-0.8 0.4c-0.3 0.1-0.4 0.3-0.5 0.5c-0.2 0.2-0.3 0.3-0.2 0.6c-0.2 0.3-0.6 0.5-1.1 0.7 c-0.1 0-0.3 0.1-0.5 0.1c-0.1 0.1-0.2 0.2-0.3 0.3c-0.2 0.1-0.4 0.2-0.5 0.3s-0.1 0.3-0.2 0.4c-0.1 0.2-0.3 0.2-0.5 0.4 c-0.1 0.1-0.1 0.2-0.2 0.3c-0.2 0.2-0.4 0.4-0.4 0.6c0 0.2 0.3 0.2 0.3 0.4c0 0.1-0.1 0.1-0.1 0.2c0 0.1 0.1 0.2 0.2 0.4 c0 0.3-0.1 0.4-0.2 0.6c0 0.1 0 0.2-0.1 0.3S49 49.2 49 49.3c0 0.1 0.2 0.2 0.2 0.4c0 0.1-0.1 0.2-0.1 0.3 c0.1 0.2 0.6 0.4 0.8 0.6c0.3 0.2 0.7 0.4 0.8 0.6c0.1 0.2 0.1 0.4 0.3 0.6c0.1 0.1 0.4 0.2 0.6 0.3c0.2 0.1 0.4 0.2 0.6 0.3 c0.3 0.2 0.8 0.5 1.3 0.5c0.3 0 0.5-0.2 0.8-0.2s0.7-0.1 1 0c0.2 0 0.5 0.1 0.7 0.1c0.3 0 0.6-0.2 0.8-0.2c0.5-0.2 1.3-0.4 2-0.3 c0.6 0.1 0.5 0.5 0.9 0.7c0.5 0 0.8-0.1 1.2-0.1c0.3 0 0.6 0.4 0.6 0.5c0 0.2-0.1 0.4-0.2 0.5c-0.1 0.2-0.1 0.5-0.1 0.6 S61 54.7 61 54.8s0.2 0.3 0.3 0.5c0.2 0.2 0.4 0.3 0.6 0.5c0.4 0.3 0.5 0.7 0.8 1.1c0.1 0.2 0.3 0.4 0.3 0.5s-0.1 0.2-0.1 0.3 c0 0.3 0.2 0.4 0.3 0.6c0.1 0.5-0.6 0.7-0.7 1.1c0 0.1 0 0.2 0 0.3s-0.2 0.2-0.2 0.4c0 0.1-0.1 0.4-0.1 0.5 c0 0.2 0.3 0.4 0.5 0.6c0.2 0.2 0.3 0.5 0.5 0.8c0.1 0.1 0.3 0.2 0.3 0.4c0.1 0.1 0 0.3 0 0.5c0 0.1 0.1 0.3 0.2 0.4 c0.1 0.3 0.1 0.7 0.3 1c0.1 0.1 0.3 0.2 0.5 0.4c0.2 0.2 0.2 0.4 0.4 0.6c0.2 0.2 0.4 0.4 0.4 0.5s-0.1 0.2-0.1 0.3 c0 0.3 0.4 0.6 0.8 0.6c0.1 0 0.3-0.1 0.5-0.1c0.1 0 0.2 0 0.3 0c0.2 0 0.3-0.1 0.4-0.1c0.3 0 0.7 0 1 0c0.5 0 1.1-0.2 1.5-0.4 c0.4-0.2 0.8-0.5 1.1-0.7c0.2-0.2 0.3-0.4 0.5-0.6c0.2-0.1 0.4-0.2 0.5-0.4c0.1-0.1 0.2-0.4 0.3-0.5c0-0.1-0.1-0.2-0.1-0.3 c0.1-0.3 1-0.3 1.2-0.6s0.1-0.7 0-1c0-0.1-0.2-0.3-0.2-0.4c0-0.2 0.4-0.4 0.7-0.5c0.2-0.1 0.3-0.3 0.5-0.4 c0.3-0.1 0.6-0.2 0.9-0.3c0.2-0.1 0.6-0.4 0.7-0.6c0.1-0.2 0-0.3 0-0.5c0-0.3 0-0.7 0-1.1c-0.3-0.2-0.4-0.5-0.5-0.7 c0-0.2 0.1-0.4 0-0.6c0-0.1-0.2-0.2-0.2-0.3c-0.1-0.3 0.2-0.4 0.4-0.7c0.1-0.2 0.2-0.4 0.3-0.5c0.1-0.1 0.4-0.2 0.6-0.3 c0.1-0.1 0.2-0.2 0.3-0.3c0.3-0.3 0.7-0.6 1.1-0.8c0.2-0.1 0.4-0.2 0.6-0.3s0.3-0.2 0.5-0.4c0.3-0.2 0.7-0.5 0.9-0.8 c0.1-0.1 0.1-0.2 0.1-0.3c0.2-0.3 0.5-0.5 0.7-0.9c0-0.1 0-0.1 0.1-0.2c0.1-0.2 0.3-0.4 0-0.7c-0.2-0.1-0.5 0.1-0.8 0.2 c-0.3 0-0.6 0-0.9 0.1c-0.2 0-0.3 0.1-0.4 0.1s-0.2 0-0.3 0c-0.2 0-0.4 0.1-0.5 0.1c-0.3 0-0.5-0.3-0.7-0.5 c0-0.1 0.1-0.2 0.1-0.3S77 50 76.8 49.9c-0.2-0.2-0.4-0.4-0.7-0.5c-0.3-0.2-0.7-0.3-0.9-0.5c-0.1-0.2-0.1-0.4-0.3-0.6 c-0.2-0.2-0.6-0.3-0.7-0.6c-0.1-0.2 0-0.4-0.1-0.6c-0.1-0.3-0.6-0.4-0.8-0.7c0-0.1 0-0.2-0.1-0.3c-0.1-0.2-0.3-0.4-0.5-0.6 c-0.2-0.2-0.3-0.4-0.4-0.7c0.1-0.1 0.3-0.1 0.5-0.1c0.4 0.2 0.8 0.6 1 0.9c0.1 0.1 0.1 0.2 0.2 0.3s0.3 0.2 0.4 0.3 s0.3 0.3 0.3 0.4c0 0.1 0 0.2 0 0.3c0.1 0.4 0.7 0.6 1 0.9c0.1 0.1 0.1 0.2 0.2 0.3c0.2 0.2 0.4 0.3 0.5 0.5 c0 0.1-0.2 0.1-0.2 0.2c0.1 0.2 0.3 0.2 0.4 0.3c0.2 0.3 0.2 0.7 0.4 1c0.4 0.2 0.8-0.1 1.2-0.2c0.1 0 0.3 0 0.4 0 c0.2 0 0.3-0.1 0.5-0.1c0.1 0 0.2 0 0.3 0c0.2 0 0.3-0.2 0.5-0.3c0.3-0.1 0.7-0.1 1-0.2c0.2-0.1 0.2-0.3 0.4-0.4 c0.3-0.1 0.6-0.1 1-0.2c0.2 0 0.3-0.2 0.4-0.3s0.3-0.1 0.4-0.2c0.1-0.1 0.4-0.2 0.4-0.3c0 0 0-0.2 0.1-0.2c0-0.1 0.2-0.1 0.3-0.2 c0.1-0.1 0.5-0.5 0.4-0.6c0-0.1-0.5-0.5-0.6-0.5c-0.2-0.1-0.4 0-0.5-0.1c-0.2-0.1-0.3-0.2-0.4-0.3s0-0.3-0.3-0.4 c-0.5 0.3-0.8 0.7-1.9 0.6c-0.2-0.1-0.1-0.4-0.2-0.6c-0.1-0.1-0.3 0-0.4 0c-0.2-0.4-0.7-0.5-1-0.8c-0.1-0.1-0.3-0.3-0.3-0.4 c0-0.2 0.4-0.3 0.6-0.3c0.6 0 0.7 0.6 1.1 0.8c0.2 0.1 0.4 0.1 0.6 0.2c0.3 0.2 0.7 0.3 1.2 0.2c0.2 0 0.4-0.2 0.6-0.1 c0.2 0 0.2 0.3 0.4 0.4c0.2 0.1 0.6 0.2 1 0.2c0.3 0 0.6 0.1 0.8 0.1c0.4 0 0.8 0 1.1 0c0.2 0 0.6 0 0.8 0c0 0 0 0 0.1 0 C85.6 40.6 81.7 35.3 76.4 30.7z M73.2 42.4c-0.1 0.3 0 0.6-0.4 0.7c-0.5 0.1-0.8-0.2-1.3-0.1c-0.3 0-0.5 0.2-0.7 0.2 c-0.4 0-0.9-0.2-1.4-0.3c-0.1 0-0.2 0-0.3 0c-0.1 0-0.2-0.1-0.3-0.2c-0.2-0.1-0.4 0-0.6-0.1c-0.3-0.3-1.5-0.3-1.6 0.1 c0 0.2 0.1 0.5-0.3 0.5c-0.3 0-0.6-0.2-0.9-0.3c-0.2 0-0.4 0-0.5 0c-0.3-0.1-0.2-0.3-0.5-0.4c-0.1-0.1-0.5-0.2-0.7-0.2 c-0.1 0-0.3 0-0.4 0c-0.2 0-0.4-0.1-0.6-0.2c-0.1-0.1-0.4-0.2-0.5-0.2c-0.1-0.1 0.3-0.3 0.4-0.4c0-0.1-0.2-0.1-0.2-0.3 c0-0.1 0-0.2 0-0.2c0-0.1-0.3-0.2-0.5-0.2s-0.4 0.1-0.5 0.1c-0.2 0-0.6-0.1-0.9-0.1c-0.2 0-0.3 0.1-0.5 0.1c-0.4 0-0.8 0-1.2 0 c-0.3 0-0.7 0.1-0.9 0.2c-0.1 0-0.2 0.1-0.4 0.2c-0.1 0-0.2 0-0.3 0.1c-0.1 0-0.3 0.2-0.4 0.2c-0.2 0-0.5 0-0.9 0 c-0.3 0-0.7 0-0.7-0.2c0-0.3 0.8-0.2 1.3-0.3c0.2 0 0.3-0.1 0.5-0.2c0.1 0 0.2 0 0.3-0.1c0.2-0.1 0.4-0.3 0.4-0.4 c0-0.1-0.1-0.2-0.1-0.3s0.1-0.2 0.3-0.3c0.2-0.2 0.5-0.4 0.7-0.5s0.4-0.1 0.5-0.2c0-0.1 0-0.2 0-0.3c0.1-0.1 0.2-0.1 0.3-0.2 c0.3 0 0.6 0.1 0.9 0.1c0.1 0 0.3-0.1 0.4-0.2c0.1-0.1 0.3-0.1 0.4-0.2c0.1-0.1 0.3-0.2 0.4-0.2c0.4 0 0.6 0.3 0.7 0.5 c0.2 0.1 0.6 0.4 0.8 0.5c0.1 0.1 0.3 0.1 0.5 0.1c0.3 0.1 1 0.5 1 0.7c0 0.1-0.2 0.2-0.1 0.3c0.3 0 0.5-0.2 0.5-0.4 c0-0.1-0.2-0.2-0.1-0.3c0.1-0.2 0.5 0 0.6-0.1c0-0.2-0.4-0.2-0.7-0.3c-0.1-0.1-0.2-0.2-0.4-0.2c-0.2-0.1-0.4 0-0.6-0.1 c-0.1-0.1-0.2-0.3-0.4-0.4c-0.2-0.2-0.7-0.2-0.5-0.6c0.1-0.1 0.2-0.2 0.3-0.1c0.2 0 0.2 0.2 0.3 0.2c0.1 0.1 0.2 0 0.4 0.1 c0.1 0.1 0.2 0.2 0.4 0.3c0.2 0.1 0.6 0.2 0.9 0.3s0.7 0.2 0.8 0.4c0 0.1 0 0.2 0 0.3s0.1 0.2 0.2 0.3c0.2 0.2 0.5 0.4 0.7 0.6 c0 0.3 0.2 0.5 0.7 0.5c0.2-0.1 0.1-0.2 0.2-0.3s0.4-0.1 0.4-0.2c0-0.2-0.8-0.3-0.7-0.6c0-0.1 0.2-0.1 0.3-0.1 c0.2-0.2 0.7-0.4 1-0.1c0.1 0.6 0.4 1.1 0.9 1.4c0.4-0.1 0.6 0.2 0.9 0.1c0.2 0 0.3-0.2 0.4-0.2c0.3 0 0.5 0.2 0.8 0.2 c0.5 0 0.8-0.4 1.3-0.2c0 0.3 0.1 0.4 0.1 0.6C73.5 42.1 73.3 42.2 73.2 42.4z"/></g><path style="fill:#0071A5;" d="M85.4 49.2c-1.8-0.1-4.5-0.2-7.5-0.2c-0.1-1.7-0.4-3.2-0.8-4.8c-0.5-1.8-1.2-3.6-2-5.3 c-1.6-3.4-3.6-6.6-6-9.5c-0.7-0.8-1.4-1.6-2.1-2.4h-1c0.9 0.9 1.8 1.8 2.6 2.8c2.4 2.8 4.4 6 5.9 9.3c0.8 1.7 1.5 3.4 2 5.2 c0.4 1.5 0.7 3.1 0.8 4.6c-0.3 0-0.6 0-0.9 0c-3.6-0.1-7.9-0.2-12.4-0.2c-0.6 0-1.3 0-1.9 0c0-2.5-0.3-5-0.7-7.5 c-0.5-2.8-1.1-5.6-1.9-8.4c-0.6-1.9-1.2-3.9-2-5.7h-0.8c0.8 1.9 1.5 3.9 2.1 5.9c0.8 2.7 1.4 5.5 1.9 8.3c0.4 2.4 0.7 4.9 0.8 7.4 c-3.8 0-7.8 0-11.7-0.1c-3.8 0-7.6 0-11.2 0.1c0.1-2.5 0.4-5 0.8-7.4c0.5-2.8 1.1-5.6 1.9-8.3c0.6-2 1.3-4 2.1-5.9h-0.8 c-0.8 1.9-1.4 3.8-2 5.7c-0.8 2.8-1.4 5.5-1.9 8.4c-0.2 1.4-0.4 2.8-0.6 4.3c-0.1 1.1-0.1 2.2-0.2 3.3c-0.8 0-1.6 0-2.4 0 c-4.5 0-8.8 0.2-12.4 0.2c-0.1 0-0.2 0-0.4 0c0.2-3.4 1.3-6.7 2.8-9.8c1.6-3.3 3.5-6.5 5.9-9.3c0.8-1 1.7-1.9 2.6-2.8h-1 c-0.7 0.8-1.4 1.5-2.1 2.3c-2.4 2.9-4.4 6.1-6 9.4c-0.8 1.7-1.5 3.4-2 5.3c-0.4 1.5-0.7 3.2-0.8 4.8c-3.2 0.1-6 0.2-7.9 0.3 c-0.1 0-0.1 0-0.2 0h8.1c0 0.2 0 0.3 0 0.5c0 1.9 0.4 3.8 0.9 5.6s1.2 3.5 2 5.2c1.6 3.4 3.6 6.5 6 9.3c1 1.1 2 2.2 3 3.1h0.5 c-1.2-1.1-2.2-2.2-3.2-3.4c-2.4-2.8-4.4-6-5.9-9.3s-2.8-6.9-2.8-10.6c0-0.2 0-0.3 0-0.5h15.2c0 0.2 0 0.3 0 0.5 c0 2.9 0.4 5.7 0.9 8.5s1.2 5.6 2 8.3c0.7 2.2 1.5 4.4 2.5 6.4h0.3c-1-2.1-1.7-4.3-2.4-6.6c-0.8-2.7-1.4-5.5-1.9-8.3 s-0.8-5.6-0.8-8.4c0-0.2 0-0.3 0-0.5h22.9c0 0.2 0 0.4 0 0.6c0 2.8-0.3 5.7-0.8 8.5s-1.1 5.6-1.9 8.3c-0.6 2.2-1.4 4.4-2.4 6.5 h0.3c1-2.1 1.8-4.2 2.4-6.4c0.8-2.7 1.5-5.5 2-8.3c0.2-1.4 0.5-2.8 0.6-4.2c0.2-1.4 0.3-2.9 0.3-4.3c0-0.2 0-0.4 0-0.6H77 c0 0.2 0 0.4 0 0.5c-0.1 3.7-1.3 7.3-2.8 10.6c-1.6 3.3-3.6 6.5-5.9 9.3c-1 1.2-2.1 2.3-3.2 3.4H66c1.1-1 2-2 3-3.1 c2.4-2.8 4.4-6 6-9.4c0.8-1.7 1.5-3.4 2-5.2s0.9-3.7 0.9-5.6c0-0.2 0-0.4 0-0.6h7.7C85.5 49.2 85.4 49.2 85.4 49.2z"/><path style="opacity:0.27;fill:#05367B;enable-background:new    ;" d="M71.6 27.1L71.6 27.1C57.3 41.3 42.3 58.5 28.1 72.9 c0.1 0 0.1 0.1 0.2 0.1h43.9c9.8-6.7 16.3-16.6 16.3-22.9C88.4 43.7 81.7 33.7 71.6 27.1z"/></g><g id="New_Symbol_114"></g><g id="New_Symbol_109_1_"></g></g><g id="Layer_27"></g><g id="Layer_28"></g></svg>