<svg xmlns="http://www.w3.org/2000/svg" xmlns:xlink="http://www.w3.org/1999/xlink" version="1.1" id="Layer_1" x="0px" y="0px" viewBox="0 0 100.1 100.1" style="enable-background:new 0 0 100.1 100.1;" xml:space="preserve"><g id="Layer_10"><g id="New_Symbol_58"></g><g id="_x27__2_2_"></g><g id="_x27__2_1_"></g><g id="_x27__2"></g><g id="New_Symbol_57"></g><g id="New_Symbol_2"><g id="New_Symbol_36"><g id="New_Symbol_76"></g><g id="New_Symbol_79"></g><g id="New_Symbol_80"></g></g></g><g id="santa"></g><g id="New_Symbol_70"><g id="New_Symbol_69"><g id="New_Symbol_2_1_"><g id="New_Symbol_36_1_"></g></g></g></g><g id="New_Symbol_27"></g><g id="New_Symbol_26"></g><g id="New_Symbol_29"></g><g id="New_Symbol_32"><g id="New_Symbol_32_1_"><g id="New_Symbol_111"></g></g></g><g id="_x27__2_3_"></g><g id="New_Symbol_109"><g id="New_Symbol_112"></g></g></g><g id="Notes"><g id="_x27__2_4_"></g><g id="New_Symbol_109_2_"></g></g><g id="Grid"></g><g id="Layer_7"></g><g id="Layer_8"></g><g id="Layer_15"></g><g id="Layer_16"><g><circle style="fill:#B756C5;" cx="50.1" cy="50.1" r="50.1"/><g><g><polygon style="fill:#F5A816;" points="23.5,70.2 41.2,65.6 50.1,65.6 58.9,65.6 76.6,70.2 50.1,17.1"/></g><g style="opacity:0.1;"><polygon style="fill:#231F20;" points="50.1,65.6 58.9,65.6 76.7,70.2 50.1,17.1"/></g><g style="opacity:0.2;"><polygon style="fill:#231F20;" points="50.1,65.6 58.9,65.6 50.1,17.1"/></g><g><path style="fill:#808080;" d="M64 52.3c-0.1 0-0.2 0-0.3 0l-13.3-4.5c-0.5-0.2-0.7-0.7-0.6-1.1c0.2-0.5 0.7-0.7 1.1-0.6 l13.3 4.5c0.5 0.2 0.7 0.7 0.6 1.1C64.7 52.1 64.4 52.3 64 52.3z"/></g><g><path style="fill:#808080;" d="M36.2 52.3c-0.4 0-0.7-0.2-0.9-0.6c-0.1-0.5 0.1-1 0.6-1.1L51 46c0.5-0.1 1 0.1 1.1 0.6 s-0.1 1-0.6 1.1l-15.1 4.5C36.3 52.3 36.3 52.3 36.2 52.3z"/></g><g><rect x="45" y="35.4" style="fill:#424242;" width="10.7" height="1.8"/></g><g><path style="fill:#F7CAAD;" d="M44.7 38.4c0 2.9 2.4 5.3 5.3 5.3c2.9 0 5.3-2.4 5.3-5.3c0-2.9-2.4-5.3-5.3-5.3 C47.1 33.1 44.7 35.4 44.7 38.4"/></g><g><path style="fill:none;" d="M52.8 40.4c0 1.1-1.1 2-2.6 2c-1.4 0-2.6-0.9-2.6-2H52.8z"/></g><g><path style="fill:none;" d="M49.2 39.8c0 0.6 0.5 1 1 1c0.6 0 1-0.5 1-1c0-0.6-0.5-1-1-1C49.6 38.8 49.2 39.3 49.2 39.8"/></g><g><path style="fill:#4CAF50;" d="M44.7 54.4c0 2.9 2.4 5.2 5.3 5.2c2.9 0 5.3-2.3 5.3-5.2v-6.1c0-2.9-2.4-5.2-5.3-5.2 c-2.9 0-5.3 2.3-5.3 5.2V54.4z"/></g><g><rect x="49.5" y="43.1" style="fill:#FFFFFF;" width="1.2" height="11.5"/></g><g><rect x="45" y="52.3" style="fill:#424242;" width="10.7" height="2.7"/></g><g><rect x="48.3" y="52.6" style="fill:#FFD200;" width="3.6" height="2.4"/></g><g><path style="fill:#F7CAAD;" d="M55.4 37.8l1.7-2.3c0 0 1 5.9-2.3 5.2L55.4 37.8z"/></g><g><path style="fill:#F7CAAD;" d="M45.3 37.8l-1.7-2.3c0 0-1 5.9 2.3 5.2L45.3 37.8z"/></g><g><polygon style="fill:#424242;" points="55.7,35.4 53.9,37.2 53.9,39 55.7,37.2"/></g><g><polygon style="fill:#424242;" points="45,35.4 46.8,37.2 46.8,39 45,37.2"/></g><g><path style="fill:#4CAF50;" d="M54.8 33.6c0 0-1.2-8.8-14.2-5.3c0 0 7.7 3.4 5.5 5.9L54.8 33.6z"/></g><g><path style="fill:#FFFFFF;" d="M44.2 34.6c0 0.4 0.3 0.8 0.7 0.8h11c0.4 0 0.7-0.3 0.7-0.8v-1.4c0-0.4-0.3-0.8-0.7-0.8h-11 c-0.4 0-0.7 0.3-0.7 0.8V34.6z"/></g><g><path style="fill:#FFFFFF;" d="M38.8 28.3c0 1 0.8 1.8 1.8 1.8s1.8-0.8 1.8-1.8s-0.8-1.8-1.8-1.8S38.8 27.3 38.8 28.3"/></g><g><path style="fill:#81D4FA;" d="M46.8 38.1c0 1 0.8 1.8 1.8 1.8s1.8-0.8 1.8-1.8s-0.8-1.8-1.8-1.8S46.8 37.1 46.8 38.1"/><path style="fill:#424242;" d="M48.6 40.1c-1.1 0-2-0.9-2-2s0.9-2 2-2s2 0.9 2 2S49.7 40.1 48.6 40.1z M48.6 36.5 c-0.9 0-1.6 0.7-1.6 1.6c0 0.9 0.7 1.6 1.6 1.6c0.9 0 1.6-0.7 1.6-1.6C50.1 37.2 49.4 36.5 48.6 36.5z"/></g><g><path style="fill:#81D4FA;" d="M50.4 38.1c0 1 0.8 1.8 1.8 1.8s1.8-0.8 1.8-1.8s-0.8-1.8-1.8-1.8S50.4 37.1 50.4 38.1"/><path style="fill:#424242;" d="M52.1 40.1c-1.1 0-2-0.9-2-2s0.9-2 2-2s2 0.9 2 2S53.2 40.1 52.1 40.1z M52.1 36.5 c-0.9 0-1.6 0.7-1.6 1.6c0 0.9 0.7 1.6 1.6 1.6c0.9 0 1.6-0.7 1.6-1.6C53.7 37.2 53 36.5 52.1 36.5z"/></g><g><path style="fill:#BDBDBD;" d="M64 53.3H36.2c-0.5 0-0.9-0.5-0.9-1s0.4-1 0.9-1H64c0.5 0 0.9 0.5 0.9 1S64.5 53.3 64 53.3z"/></g><g><path style="fill:#4CAF50;" d="M39.7 51.8c-0.1 0-0.3 0-0.4-0.1c-0.7-0.2-1.1-1-0.9-1.7c0.5-1.5 2.1-4 7.4-4.5 c0.7-0.1 1.4 0.5 1.4 1.2c0.1 0.7-0.5 1.4-1.2 1.4c-2.8 0.3-4.6 1.2-5.1 2.6C40.8 51.5 40.3 51.8 39.7 51.8z"/></g><g><path style="fill:#4CAF50;" d="M57 48.4c-0.7 0-1.5-0.1-2.3-0.2c-0.7-0.1-1.2-0.8-1.1-1.5c0.1-0.7 0.8-1.2 1.5-1.1 c5.1 0.7 6.5-0.9 7.8-4.8c0.2-0.7 1-1.1 1.7-0.8c0.7 0.2 1.1 1 0.8 1.7C64 45.8 62 48.4 57 48.4z"/></g><g><path style="fill:#F7CAAD;" d="M37.9 51c0 1.2 1 2.2 2.2 2.2s2.2-1 2.2-2.2s-1-2.2-2.2-2.2C38.9 48.7 37.9 49.7 37.9 51"/></g><g><path style="fill:#F7CAAD;" d="M62.3 41.4c0 1.2 1 2.2 2.2 2.2c1.2 0 2.2-1 2.2-2.2s-1-2.2-2.2-2.2 C63.3 39.2 62.3 40.2 62.3 41.4"/></g><g><path style="fill:#424242;" d="M49 67.8c0-0.7-0.8-1.3-1.5-1.3S46 67.1 46 67.8c0 0.3 0 4.1 0 4.4c0 0.7 0.8 3.1 1.5 3.1 s1.5-2.3 1.5-3C49 71.9 49 68.2 49 67.8z"/></g><g><path style="fill:#EEEEEE;" d="M49 64.3h-3c0 0 0 3.3 0 3.5c0 0.7 0.8 1.3 1.5 1.3s1.5-0.6 1.5-1.3C49 67.7 49 64.3 49 64.3z"/></g><g><path style="fill:#4CAF50;" d="M49 58.3h-3c0 0 0 5.8 0 6c0 0.7 0.8 1.3 1.5 1.3S49 65 49 64.3C49 64.1 49 58.3 49 58.3z"/></g><g><path style="fill:#424242;" d="M53 67.8c0-0.7-0.8-1.3-1.5-1.3S50 67.1 50 67.8c0 0.3 0 4.1 0 4.4c0 0.7 0.8 3.1 1.5 3.1 s1.5-2.3 1.5-3C53 71.9 53 68.2 53 67.8z"/></g><g><path style="fill:#EEEEEE;" d="M53 64.3h-3c0 0 0 3.3 0 3.5c0 0.7 0.8 1.3 1.5 1.3s1.5-0.6 1.5-1.3C53 67.7 53 64.3 53 64.3z"/></g><g><path style="fill:#4CAF50;" d="M53 58.3h-3c0 0 0 5.8 0 6c0 0.7 0.8 1.3 1.5 1.3S53 65 53 64.3C53 64.1 53 58.3 53 58.3z"/></g><g><rect x="22.9" y="15.9" style="fill:none;" width="54.4" height="60.4"/></g></g></g><g id="New_Symbol_114"></g><g id="New_Symbol_109_1_"></g></g><g id="Layer_27"></g><g id="Layer_28"></g></svg>