<svg xmlns="http://www.w3.org/2000/svg" xmlns:xlink="http://www.w3.org/1999/xlink" width="63px" height="1110px" viewBox="" version="1.1">
    <!-- Generator: Sketch 41 (35326) - http://www.bohemiancoding.com/sketch -->
    <title>jump1</title>
    <desc>Created with Sketch.</desc>
    <defs/>
    <g id="Page-1" stroke="none" stroke-width="1" fill="none" fill-rule="evenodd">
        <g id="jump1">
            <g id="Page-1">
                <g id="jumpanimation-fin_0" transform="translate(6.041096, 0.000000)">
                    <circle id="Oval" fill="#FBDF89" transform="translate(45.155736, 30.738436) rotate(-86.430000) translate(-45.155736, -30.738436) " cx="45.1557356" cy="30.7384363" r="5.34205479"/>
                    <path d="M45.6965753,26.209726 C44.1850312,26.1083625 42.696471,26.6207827 41.5676033,27.6310787 C40.4387357,28.6413747 39.764941,30.0641842 39.6986301,31.5776712 L39.6123288,33.6575342 C39.4986031,35.1592087 39.9915832,36.6438025 40.9809758,37.7791712 C41.9703685,38.9145398 43.373594,39.6059197 44.8767123,39.6986301 L44.8767123,39.6986301 C46.3824853,39.7879214 47.8610593,39.2688976 48.9806426,38.2580275 C50.1002259,37.2471573 50.7670597,35.8290956 50.8315068,34.3220548 L50.9178082,32.2767123 C51.0316576,30.7792486 50.5421713,29.2984087 49.5582976,28.1637933 C48.574424,27.0291779 47.177812,26.3349456 45.6793151,26.2356164 L45.6965753,26.209726 Z" id="Shape" fill="#E42129"/>
                    <ellipse id="Oval" fill="#FBDF89" transform="translate(5.991610, 30.740913) rotate(-3.570000) translate(-5.991610, -30.740913) " cx="5.99160975" cy="30.7409129" rx="5.34205479" ry="5.34205479"/>
                    <path d="M5.47150685,26.209726 C6.97727984,26.1204347 8.45585379,26.6394585 9.57543714,27.6503286 C10.6950204,28.6611989 11.3618543,30.0792606 11.4263014,31.5863014 L11.5557534,33.6575342 C11.6696028,35.154998 11.1801165,36.6358378 10.1962429,37.7704533 C9.21236918,38.9050687 7.81575723,39.599301 6.31726027,39.6986301 L6.31726027,39.6986301 C4.81148728,39.7879214 3.33291333,39.2688976 2.21333002,38.2580275 C1.09374671,37.2471573 0.426912837,35.8290956 0.362465753,34.3220548 L0.233013699,32.2421918 C0.119164356,30.744728 0.608650634,29.2638882 1.59252427,28.1292728 C2.57639791,26.9946574 3.97300989,26.3004251 5.47150685,26.2010959 L5.47150685,26.209726 Z" id="Shape" fill="#E42129"/>
                    <path d="M15.370274,14.049863 C17.9022693,14.0331168 19.9965512,16.0169729 20.1168493,18.5461644 L20.1168493,31.7934247 C19.9965512,34.3226161 17.9022693,36.3064723 15.370274,36.289726 L15.370274,36.289726 C12.8382786,36.3064723 10.7439967,34.3226161 10.6236986,31.7934247 L10.6236986,18.5461644 C10.7439967,16.0169729 12.8382786,14.0331168 15.370274,14.049863 Z" id="Shape" fill="#B47945"/>
                    <path d="M35.6424658,14.049863 C36.818997,14.0488248 37.9449368,14.5282399 38.7595867,15.3771052 C39.5742367,16.2259704 40.006949,17.3706709 39.9575342,18.5461644 L39.9575342,31.7934247 C40.006949,32.9689182 39.5742367,34.1136186 38.7595867,34.9624839 C37.9449368,35.8113492 36.818997,36.2907642 35.6424658,36.289726 L35.6424658,36.289726 C34.4659345,36.2907642 33.3399947,35.8113492 32.5253448,34.9624839 C31.7106948,34.1136186 31.2779825,32.9689182 31.3273973,31.7934247 L31.3273973,18.5461644 C31.2779825,17.3706709 31.7106948,16.2259704 32.5253448,15.3771052 C33.3399947,14.5282399 34.4659345,14.0488248 35.6424658,14.049863 L35.6424658,14.049863 Z" id="Shape" fill="#B47945"/>
                    <path d="M50.0547945,34.8743836 C50.0504658,36.3833648 49.4402268,37.8273738 48.3611105,38.8821492 C47.2819941,39.9369246 45.8244407,40.514066 44.3157534,40.4839726 L6.2309589,40.4839726 C4.72295403,40.5117043 3.26676359,39.9337911 2.18816758,38.8795243 C1.10957159,37.8252576 0.498592061,36.3826287 0.491917808,34.8743836 L0.491917808,34.8743836 C0.498592061,33.3661384 1.10957159,31.9235096 2.18816758,30.8692428 C3.26676359,29.814976 4.72295403,29.2370629 6.2309589,29.2647945 L44.350274,29.2647945 C45.8530313,29.2440423 47.3016402,29.8253237 48.3732304,30.8790811 C49.4448206,31.9328386 50.0503276,33.3714896 50.0547945,34.8743836 Z" id="Shape" fill="#E42129"/>
                    <path d="M28.8936986,17.1135616 L26.1665753,1.68287671 C26.3736986,0.198493151 24.2765753,-0.45739726 23.9745205,1.68287671 L21.6789041,18.0283562 L28.8936986,17.1135616 Z" id="Shape" fill="#FBDF89"/>
                    <circle id="Oval" fill="#FFFFFF" cx="25.2863014" cy="30.6973973" r="17.5105479"/>
                    <path d="M39.5346575,30.6456164 C39.5346575,38.5076712 25.2863014,53.5068493 25.2863014,53.5068493 C25.2863014,53.5068493 11.0465753,38.5076712 11.0465753,30.6456164 C11.3137037,22.9741015 17.6101371,16.893099 25.2863014,16.893099 C32.9624657,16.893099 39.258899,22.9741015 39.5260274,30.6456164 L39.5346575,30.6456164 Z" id="Shape" fill="#E42129"/>
                </g>






                <g id="jumpanimation-fin_7" transform="translate(7.767123,74)">
                    <g id="Layer_1">
                        <ellipse id="Oval" fill="#B82129" cx="23.2927397" cy="35.6338356" rx="15.2580822" ry="13.3508219"/>
                        <ellipse id="Oval" fill="#FBDF89" transform="translate(5.536031, 38.579459) rotate(-86.430000) translate(-5.536031, -38.579459) " cx="5.53603065" cy="38.5794587" rx="4.99684932" ry="4.99684932"/>
                        <path d="M5.04,42.8227397 C6.44961115,42.9073535 7.83411574,42.4220947 8.88246528,41.4759835 C9.93081488,40.5298724 10.5551008,39.2022444 10.6150685,37.7913699 L10.7358904,35.849589 C10.8401653,34.448341 10.3799329,33.0635563 9.45764052,32.0034873 C8.53534811,30.9434184 7.22754315,30.2960476 5.82534247,30.2054795 L5.82534247,30.2054795 C4.41573132,30.1208657 3.03122672,30.6061245 1.98287716,31.5522356 C0.934527605,32.4983468 0.310241658,33.8259748 0.250273973,35.2368493 L0.138082192,37.109589 C0.0240828253,38.5151382 0.478753665,39.9076636 1.40021186,40.9751275 C2.32167005,42.0425914 3.63287093,42.6957413 5.04,42.7882192 L5.04,42.8227397 Z" id="Shape" fill="#E42129"/>
                        <ellipse id="Oval" fill="#FBDF89" transform="translate(42.174002, 38.578331) rotate(-3.570000) translate(-42.174002, -38.578331) " cx="42.1740018" cy="38.5783312" rx="4.99684932" ry="4.99684932"/>
                        <path d="M42.6760274,42.8227397 C41.2678606,42.904952 39.8856052,42.4186115 38.83916,41.4727548 C37.7927148,40.5268981 37.1696261,39.2006562 37.109589,37.7913699 L36.9887671,35.849589 C36.8843959,34.4511418 37.3422966,33.0688485 38.2609147,32.0092784 C39.1795329,30.9497082 40.4829372,30.3004433 41.8820548,30.2054795 L41.8820548,30.2054795 C43.2859683,30.1183627 44.6663577,30.596707 45.7153449,31.5338239 C46.7643322,32.4709409 47.3946641,33.7888824 47.4657534,35.1936986 L47.5779452,37.109589 C47.6919446,38.5151382 47.2372737,39.9076636 46.3158155,40.9751275 C45.3943574,42.0425914 44.0831565,42.6957413 42.6760274,42.7882192 L42.6760274,42.8227397 Z" id="Shape" fill="#E42129"/>
                        <path d="M14.300137,16.5180822 C16.6638857,16.5013769 18.6204403,18.3513487 18.7360274,20.7123288 L18.7360274,33.1224658 C18.6249151,35.4868488 16.6670718,37.3418481 14.300137,37.3253425 L14.300137,37.3253425 C11.92987,37.3465085 9.9668501,35.4902158 9.85561644,33.1224658 L9.85561644,20.7123288 C9.9668501,18.3445787 11.92987,16.488286 14.300137,16.5094521 L14.300137,16.5180822 Z" id="Shape" fill="#B47945"/>
                        <path d="M33.2691781,16.5180822 C34.3655384,16.5245088 35.4128112,16.9735519 36.1733054,17.7632959 C36.9337997,18.55304 37.3430176,19.6165063 37.3080822,20.7123288 L37.3080822,33.1224658 C37.3453974,34.2197577 36.9372386,35.2854784 36.1764837,36.0771186 C35.4157288,36.8687589 34.367086,37.3189836 33.2691781,37.3253425 L33.2691781,37.3253425 C32.1712702,37.3189836 31.1226273,36.8687589 30.3618725,36.0771186 C29.6011176,35.2854784 29.1929587,34.2197577 29.230274,33.1224658 L29.230274,20.7123288 C29.1929587,19.6150368 29.6011176,18.5493161 30.3618725,17.7576759 C31.1226273,16.9660357 32.1712702,16.5158109 33.2691781,16.5094521 L33.2691781,16.5180822 Z" id="Shape" fill="#B47945"/>
                        <path d="M46.7839726,34.3824658 C46.7818885,35.7937747 46.2132191,37.1451469 45.2055838,38.1333111 C44.1979485,39.1214751 42.8357384,39.6636706 41.4246575,39.6382192 L5.74767123,39.6382192 C4.33728439,39.6636308 2.97551825,39.1228787 1.96677447,38.1368399 C0.958030687,37.1508009 0.38642322,35.8016958 0.379726027,34.3910959 L0.379726027,34.3910959 C0.38642322,32.980496 0.958030687,31.6313909 1.96677447,30.6453519 C2.97551825,29.659313 4.33728439,29.118561 5.74767123,29.1439726 L41.4246575,29.1439726 C42.8357266,29.1162018 44.1988541,29.6561829 45.2081174,30.6427297 C46.2173809,31.6292766 46.7882487,32.9797602 46.7926027,34.3910959 L46.7839726,34.3824658 Z" id="Shape" fill="#E42129"/>
                        <path d="M26.5980822,14.5417808 L24.319726,1.59657534 C24.4923288,0.353835616 22.740411,-0.198493151 22.490137,1.59657534 L20.5656164,15.309863 L26.5980822,14.5417808 Z" id="Shape" fill="#FBDF89"/>
                        <ellipse id="Oval" fill="#FFFFFF" cx="23.5861644" cy="25.9076712" rx="14.6453425" ry="14.6453425"/>
                        <path d="M35.4871233,25.890411 C35.4871233,32.4665753 23.5775342,45.0320548 23.5775342,45.0320548 C23.5775342,45.0320548 11.6765753,32.4320548 11.6765753,25.890411 C11.6765753,19.3129266 17.00868,13.9808219 23.5861644,13.9808219 C30.1636487,13.9808219 35.4957534,19.3129266 35.4957534,25.890411 L35.4871233,25.890411 Z" id="Shape" fill="#E42129"/>
                    </g>
                </g>
                <g id="jumpanimation-fin_8" transform="translate(6.041096, 148)">
                    <g id="Layer_1">
                        <ellipse id="Oval" fill="#FBDF89" cx="44.9457534" cy="20.1772603" rx="5.2730137" ry="5.2730137"/>
                        <path d="M45.0838356,19.2710959 C46.570694,19.2754616 47.9936056,19.8763348 49.0335597,20.9390024 C50.0735138,22.0016701 50.6435085,23.4372299 50.6157534,24.9238356 L50.6157534,31.2410959 C50.6434888,32.7285 50.0737609,34.1649359 49.0340599,35.2289669 C47.9943588,36.292998 46.5714834,36.8957942 45.0838356,36.9024658 L45.0838356,36.9024658 C43.5961879,36.8957942 42.1733124,36.292998 41.1336113,35.2289669 C40.0939103,34.1649359 39.5241824,32.7285 39.5519178,31.2410959 L39.5519178,24.9238356 C39.5241628,23.4372299 40.0941574,22.0016701 41.1341115,20.9390024 C42.1740657,19.8763348 43.5969772,19.2754616 45.0838356,19.2710959 L45.0838356,19.2710959 Z" id="Shape" fill="#E42129"/>
                        <ellipse id="Oval" fill="#FBDF89" transform="translate(6.258725, 41.738265) rotate(-86.430000) translate(-6.258725, -41.738265) " cx="6.25872517" cy="41.7382654" rx="5.2730137" ry="5.2730137"/>
                        <path d="M5.7390411,46.2143836 C7.2242126,46.3037081 8.6830449,45.7928832 9.78807103,44.7965747 C10.8930972,43.8002663 11.5517442,42.4019394 11.6161644,40.9154795 L11.7456164,38.8356164 C11.8667462,37.3507856 11.3866954,35.8794856 10.4131676,34.7518159 C9.43963987,33.6241463 8.05414609,32.9345237 6.56753425,32.8376712 L6.56753425,32.8376712 C5.08151798,32.7507509 3.62274052,33.2635682 2.51800097,34.2612405 C1.41326141,35.2589128 0.754902306,36.658047 0.690410959,38.1452055 L0.560958904,40.1991781 C0.439856923,41.6831231 0.920157486,43.1534866 1.89390937,44.2797929 C2.86766125,45.4060993 4.25317331,46.0938591 5.7390411,46.1884932 L5.7390411,46.2143836 Z" id="Shape" fill="#E42129"/>
                        <path d="M15.5342466,23.8709589 C18.0313339,23.8543752 20.096013,25.8123918 20.2117808,28.3068493 L20.2117808,41.3815068 C20.0915351,43.8725618 18.0281456,45.8255486 15.5342466,45.8087671 L15.5342466,45.8087671 C13.0338265,45.8300107 10.9639711,43.8707001 10.8480822,41.3728767 L10.8480822,28.3068493 C10.9639711,25.8090259 13.0338265,23.8497153 15.5342466,23.8709589 Z" id="Shape" fill="#B47945"/>
                        <path d="M35.5130137,8.55246575 C36.6605164,8.56834442 37.7544253,9.04067433 38.5528503,9.86501172 C39.3512753,10.6893491 39.7884381,11.7977808 39.7676712,12.9452055 L39.7676712,26.0543836 C39.8001256,27.2091925 39.3681591,28.3287897 38.568473,29.1625396 C37.7687868,29.9962894 36.6681716,30.4745562 35.5130137,30.490274 L35.5130137,30.490274 C34.3578558,30.4745562 33.2572406,29.9962894 32.4575544,29.1625396 C31.6578682,28.3287897 31.2259018,27.2091925 31.2583562,26.0543836 L31.2583562,12.9452055 C31.2259018,11.7903966 31.6578682,10.6707993 32.4575544,9.83704948 C33.2572406,9.00329962 34.3578558,8.52503283 35.5130137,8.50931507 L35.5130137,8.55246575 Z" id="Shape" fill="#B47945"/>
                        <path d="M49.5542466,31.6035616 C49.7437721,33.0813008 49.3311255,34.5731809 48.4091636,35.7434882 C47.4872016,36.9137955 46.133374,37.6642181 44.6523288,37.8258904 L7.36150685,42.6846575 C5.89041507,42.9035158 4.39297869,42.5236272 3.20412633,41.6299606 C2.01527397,40.7362939 1.23420387,39.4034171 1.03561644,37.9294521 L1.03561644,37.9294521 C0.851007575,36.4535141 1.26572232,34.9651666 2.1869843,33.7973698 C3.10824626,32.6295729 4.45916845,31.8797891 5.93753425,31.7157534 L43.2283562,26.8569863 C44.69982,26.6356987 46.1985078,27.0146465 47.3879415,27.9087501 C48.5773753,28.8028538 49.3578894,30.1371943 49.5542466,31.6121918 L49.5542466,31.6035616 Z" id="Shape" fill="#E42129"/>
                        <path d="M28.8505479,17.260274 L26.1665753,2.01945205 C26.3736986,0.552328767 24.3024658,-0.0949315068 24.0090411,2.01945205 L21.7393151,18.1232877 L28.8505479,17.260274 Z" id="Shape" fill="#FBDF89"/>
                        <ellipse id="Oval" fill="#FFFFFF" cx="25.2949315" cy="30.6542466" rx="17.2775342" ry="17.2775342"/>
                        <path d="M39.3447945,30.5938356 C39.3447945,38.3609589 25.2949315,53.1789041 25.2949315,53.1789041 C25.2949315,53.1789041 11.2191781,38.3523288 11.2191781,30.5938356 C11.2191781,22.8343106 17.509516,16.5439726 25.2690411,16.5439726 C33.0285662,16.5439726 39.3189041,22.8343106 39.3189041,30.5938356 L39.3447945,30.5938356 Z" id="Shape" fill="#E42129"/>
                        <ellipse id="Oval" fill="#FBDF89" cx="44.9457534" cy="20.1772603" rx="5.2730137" ry="5.2730137"/>
                        <path d="M45.0838356,19.2710959 C46.570694,19.2754616 47.9936056,19.8763348 49.0335597,20.9390024 C50.0735138,22.0016701 50.6435085,23.4372299 50.6157534,24.9238356 L50.6157534,31.2410959 C50.6434888,32.7285 50.0737609,34.1649359 49.0340599,35.2289669 C47.9943588,36.292998 46.5714834,36.8957942 45.0838356,36.9024658 L45.0838356,36.9024658 C43.5961879,36.8957942 42.1733124,36.292998 41.1336113,35.2289669 C40.0939103,34.1649359 39.5241824,32.7285 39.5519178,31.2410959 L39.5519178,24.9238356 C39.5241628,23.4372299 40.0941574,22.0016701 41.1341115,20.9390024 C42.1740657,19.8763348 43.5969772,19.2754616 45.0838356,19.2710959 L45.0838356,19.2710959 Z" id="Shape" fill="#E42129"/>
                        <ellipse id="Oval" fill="#FBDF89" transform="translate(6.258725, 41.738265) rotate(-86.430000) translate(-6.258725, -41.738265) " cx="6.25872517" cy="41.7382654" rx="5.2730137" ry="5.2730137"/>
                        <path d="M5.7390411,46.2143836 C7.2242126,46.3037081 8.6830449,45.7928832 9.78807103,44.7965747 C10.8930972,43.8002663 11.5517442,42.4019394 11.6161644,40.9154795 L11.7456164,38.8356164 C11.8667462,37.3507856 11.3866954,35.8794856 10.4131676,34.7518159 C9.43963987,33.6241463 8.05414609,32.9345237 6.56753425,32.8376712 L6.56753425,32.8376712 C5.08151798,32.7507509 3.62274052,33.2635682 2.51800097,34.2612405 C1.41326141,35.2589128 0.754902306,36.658047 0.690410959,38.1452055 L0.560958904,40.1991781 C0.439856923,41.6831231 0.920157486,43.1534866 1.89390937,44.2797929 C2.86766125,45.4060993 4.25317331,46.0938591 5.7390411,46.1884932 L5.7390411,46.2143836 Z" id="Shape" fill="#E42129"/>
                        <path d="M15.5342466,23.8709589 C18.0313339,23.8543752 20.096013,25.8123918 20.2117808,28.3068493 L20.2117808,41.3815068 C20.0915351,43.8725618 18.0281456,45.8255486 15.5342466,45.8087671 L15.5342466,45.8087671 C13.0338265,45.8300107 10.9639711,43.8707001 10.8480822,41.3728767 L10.8480822,28.3068493 C10.9639711,25.8090259 13.0338265,23.8497153 15.5342466,23.8709589 Z" id="Shape" fill="#B47945"/>
                        <path d="M35.5130137,8.55246575 C36.6605164,8.56834442 37.7544253,9.04067433 38.5528503,9.86501172 C39.3512753,10.6893491 39.7884381,11.7977808 39.7676712,12.9452055 L39.7676712,26.0543836 C39.8001256,27.2091925 39.3681591,28.3287897 38.568473,29.1625396 C37.7687868,29.9962894 36.6681716,30.4745562 35.5130137,30.490274 L35.5130137,30.490274 C34.3578558,30.4745562 33.2572406,29.9962894 32.4575544,29.1625396 C31.6578682,28.3287897 31.2259018,27.2091925 31.2583562,26.0543836 L31.2583562,12.9452055 C31.2259018,11.7903966 31.6578682,10.6707993 32.4575544,9.83704948 C33.2572406,9.00329962 34.3578558,8.52503283 35.5130137,8.50931507 L35.5130137,8.55246575 Z" id="Shape" fill="#B47945"/>
                        <path d="M49.5542466,31.6035616 C49.7437721,33.0813008 49.3311255,34.5731809 48.4091636,35.7434882 C47.4872016,36.9137955 46.133374,37.6642181 44.6523288,37.8258904 L7.36150685,42.6846575 C5.89041507,42.9035158 4.39297869,42.5236272 3.20412633,41.6299606 C2.01527397,40.7362939 1.23420387,39.4034171 1.03561644,37.9294521 L1.03561644,37.9294521 C0.851007575,36.4535141 1.26572232,34.9651666 2.1869843,33.7973698 C3.10824626,32.6295729 4.45916845,31.8797891 5.93753425,31.7157534 L43.2283562,26.8569863 C44.69982,26.6356987 46.1985078,27.0146465 47.3879415,27.9087501 C48.5773753,28.8028538 49.3578894,30.1371943 49.5542466,31.6121918 L49.5542466,31.6035616 Z" id="Shape" fill="#E42129"/>
                        <path d="M28.8505479,17.260274 L26.1665753,2.01945205 C26.3736986,0.552328767 24.3024658,-0.0949315068 24.0090411,2.01945205 L21.7393151,18.1232877 L28.8505479,17.260274 Z" id="Shape" fill="#FBDF89"/>
                        <ellipse id="Oval" fill="#FFFFFF" cx="25.2949315" cy="30.6542466" rx="17.2775342" ry="17.2775342"/>
                        <path d="M39.3447945,30.5938356 C39.3447945,38.3609589 25.2949315,53.1789041 25.2949315,53.1789041 C25.2949315,53.1789041 11.2191781,38.3523288 11.2191781,30.5938356 C11.2191781,22.8343106 17.509516,16.5439726 25.2690411,16.5439726 C33.0285662,16.5439726 39.3189041,22.8343106 39.3189041,30.5938356 L39.3447945,30.5938356 Z" id="Shape" fill="#E42129"/>
                    </g>
                </g>
                <g id="jumpanimation-fin_9" transform="translate(3.452055, 222)">
                    <g id="Layer_1">
                        <path d="M16.3972603,27.659589 C19.3182527,27.6373588 21.7382094,29.9203367 21.8860274,32.8376712 L21.8860274,48.1906849 C21.7382094,51.1080195 19.3182527,53.3909974 16.3972603,53.3687671 L16.3972603,53.3687671 C13.4762679,53.3909974 11.0563112,51.1080195 10.9084932,48.1906849 L10.9084932,32.8549315 C11.0563112,29.937597 13.4762679,27.654619 16.3972603,27.6768493 L16.3972603,27.659589 Z" id="Shape" fill="#B47945"/>
                        <path d="M39.8712329,9.69164384 C41.2247043,9.70029788 42.517399,10.2548317 43.4564298,11.2296042 C44.3954605,12.2043766 44.9013405,13.5168752 44.8594521,14.869726 L44.8594521,30.2054795 C44.9013405,31.5583302 44.3954605,32.8708289 43.4564298,33.8456013 C42.517399,34.8203737 41.2247043,35.3749076 39.8712329,35.3835616 L39.8712329,35.3835616 C38.5177614,35.3749076 37.2250667,34.8203737 36.286036,33.8456013 C35.3470052,32.8708289 34.8411253,31.5583302 34.8830137,30.2054795 L34.8830137,14.8956164 C34.8411253,13.5427657 35.3470052,12.230267 36.286036,11.2554946 C37.2250667,10.2807221 38.5177614,9.72618829 39.8712329,9.71753425 L39.8712329,9.69164384 Z" id="Shape" fill="#B47945"/>
                        <ellipse id="Oval" fill="#FBDF89" cx="48.8034247" cy="16.129726" rx="6.17917808" ry="6.17917808"/>
                        <path d="M48.9673973,17.0531507 C50.7128635,17.057435 52.3834293,17.7627832 53.6037929,19.0107348 C54.8241565,20.2586865 55.4919898,21.9446001 55.4572603,23.689726 L55.4572603,31.0684932 C55.4896257,32.8129359 54.8210203,34.4974848 53.601166,35.7449156 C52.3813118,36.9923463 50.7121275,37.698436 48.9673973,37.7050685 L48.9673973,37.7050685 C47.222667,37.698436 45.5534828,36.9923463 44.3336285,35.7449156 C43.1137743,34.4974848 42.4451688,32.8129359 42.4775342,31.0684932 L42.4775342,23.6810959 C42.4428048,21.9359699 43.110638,20.2500563 44.3310017,19.0021047 C45.5513653,17.7541531 47.221931,17.0488049 48.9673973,17.0445205 L48.9673973,17.0531507 Z" id="Shape" fill="#E42129"/>
                        <ellipse id="Oval" fill="#FBDF89" transform="translate(6.910798, 52.418207) rotate(-86.430000) translate(-6.910798, -52.418207) " cx="6.91079786" cy="52.4182075" rx="6.17917808" ry="6.17917808"/>
                        <path d="M6.3,57.6665753 C8.04364067,57.7747848 9.75755806,57.1773315 11.0560894,56.0086534 C12.3546206,54.8399751 13.1286871,53.198243 13.2041096,51.4528767 L13.3508219,49.0450685 C13.4910559,47.3102145 12.9313648,45.5913665 11.7965196,44.2717036 C10.6616743,42.9520408 9.0460182,42.1412707 7.30972603,42.020137 L7.30972603,42.020137 C5.56523866,41.9143384 3.85137894,42.5137876 2.55313647,43.6838286 C1.25489401,44.8538697 0.481115216,46.4964046 0.405616438,48.2424658 L0.25890411,50.650274 C0.116283248,52.385658 0.675122311,54.1058088 1.81043844,55.4260193 C2.94575456,56.7462297 4.56282634,57.5563524 6.3,57.6752055 L6.3,57.6665753 Z" id="Shape" fill="#E42129"/>
                        <path d="M55.0689041,30.809589 C55.6522022,32.4650553 55.5466982,34.2853629 54.7760487,35.8623552 C54.0053992,37.4393474 52.6340855,38.6410752 50.969589,39.1980822 L9.19109589,54.0764384 C7.54860157,54.6983612 5.72515653,54.6346384 4.13008396,53.8995744 C2.53501139,53.1645104 1.30194148,51.8196866 0.707671233,50.1669863 L0.707671233,50.1669863 C0.124373153,48.51152 0.229877128,46.6912124 1.00052663,45.1142202 C1.77117613,43.5372279 3.14248986,42.3355001 4.8069863,41.7784932 L46.6027397,26.900137 C48.2441912,26.2809349 50.0654281,26.3460639 51.6584568,27.0809335 C53.2514855,27.8158032 54.4831506,29.1589885 55.0775342,30.809589 L55.0689041,30.809589 Z" id="Shape" fill="#E42129"/>
                        <path d="M32.0868493,19.8493151 L28.919589,1.89863014 C29.1612329,0.17260274 26.7275342,-0.595479452 26.3305479,1.89863014 L23.6552055,20.8849315 L32.0868493,19.8493151 Z" id="Shape" fill="#FBDF89"/>
                        <ellipse id="Oval" fill="#FFFFFF" cx="27.8926027" cy="35.6338356" rx="20.3757534" ry="20.3757534"/>
                        <path d="M44.4624658,35.5647945 C44.4624658,44.7127397 27.8926027,62.1973973 27.8926027,62.1973973 C27.8926027,62.1973973 11.3227397,44.7127397 11.3227397,35.5647945 C11.3227397,26.4135119 18.7413201,18.9949315 27.8926027,18.9949315 C37.0438854,18.9949315 44.4624658,26.4135119 44.4624658,35.5647945 L44.4624658,35.5647945 Z" id="Shape" fill="#E42129"/>
                    </g>
                </g>
                <g id="jumpanimation-fin_10" transform="translate(0.000000, 296)">
                    <g id="Layer_1">
                        <path d="M55.8283562,23.4653425 C57.6805671,23.4650588 59.4552159,24.209016 60.7535173,25.5300378 C62.0518189,26.8510596 62.7648794,28.6383466 62.7324658,30.490274 L62.7324658,38.3264384 C62.7648794,40.1783657 62.0518189,41.9656527 60.7535173,43.2866746 C59.4552159,44.6076964 57.6805671,45.3516535 55.8283562,45.3513699 L55.8283562,45.3513699 C53.9761452,45.3516535 52.2014965,44.6076964 50.903195,43.2866746 C49.6048934,41.9656527 48.8918329,40.1783657 48.9242466,38.3264384 L48.9242466,30.490274 C48.8918329,28.6383466 49.6048934,26.8510596 50.903195,25.5300378 C52.2014965,24.209016 53.9761452,23.4650588 55.8283562,23.4653425 Z" id="Shape" fill="#E42129"/>
                        <ellipse id="Oval" fill="#FBDF89" transform="translate(7.644466, 51.350454) rotate(-86.430000) translate(-7.644466, -51.350454) " cx="7.64446634" cy="51.3504542" rx="6.54164384" ry="6.54164384"/>
                        <path d="M6.99041096,56.9071233 C8.83217643,57.0128338 10.6396456,56.377061 12.0096622,55.141614 C13.3796789,53.906167 14.1982801,52.173815 14.2828767,50.3309589 L14.4382192,47.7419178 C14.585456,45.9012132 13.9891851,44.0782381 12.7826436,42.6803363 C11.5761019,41.2824346 9.85985453,40.4261213 8.01739726,40.3027397 L8.01739726,40.3027397 C6.17420197,40.1970517 4.36546124,40.8339923 2.99519225,42.0712884 C1.62492326,43.3085846 0.807291749,45.0431494 0.724931507,46.8875342 L0.569589041,49.4765753 C0.422352243,51.3172799 1.01862307,53.1402551 2.22516469,54.5381568 C3.43170631,55.9360585 5.14795366,56.7923719 6.99041096,56.9157534 L6.99041096,56.9071233 Z" id="Shape" fill="#E42129"/>
                        <path d="M19.1157534,29.1784932 C22.216123,29.1566285 24.7802448,31.5874008 24.9238356,34.6845205 L24.9238356,50.9178082 C24.7802448,54.014928 22.216123,56.4457002 19.1157534,56.4238356 L19.1157534,56.4238356 C16.0120513,56.4503618 13.4427518,54.018295 13.2990411,50.9178082 L13.2990411,34.6758904 C13.4427518,31.5754037 16.0120513,29.1433368 19.1157534,29.169863 L19.1157534,29.1784932 Z" id="Shape" fill="#B47945"/>
                        <path d="M43.9446575,10.1576712 C45.3737792,10.1777638 46.7348257,10.7715398 47.7216585,11.8054419 C48.7084913,12.839344 49.2382515,14.2265613 49.1917808,15.6550685 L49.1917808,31.8883562 C49.2407216,33.3242537 48.707336,34.7189952 47.7127598,35.7558247 C46.7181836,36.7926541 45.3468277,37.3835745 43.910137,37.3943836 L43.910137,37.3943836 C42.4734462,37.3835745 41.1020904,36.7926541 40.1075142,35.7558247 C39.112938,34.7189952 38.5795524,33.3242537 38.6284932,31.8883562 L38.6284932,15.6550685 C38.5795524,14.2191709 39.112938,12.8244295 40.1075142,11.7876 C41.1020904,10.7507706 42.4734462,10.1598502 43.910137,10.1490411 L43.9446575,10.1576712 Z" id="Shape" fill="#B47945"/>
                        <path d="M61.3775342,38.7752055 C61.6088629,40.6020065 61.1008516,42.4455255 59.9664251,43.8959708 C58.8319987,45.346416 57.1651641,46.2835928 55.3364384,46.4991781 L9.04438356,52.540274 C7.20632755,52.8229897 5.33194392,52.3522519 3.84557238,51.2346304 C2.35920085,50.117009 1.38654675,48.4470233 1.14780822,46.6027397 L1.14780822,46.6027397 C0.918955679,44.7773126 1.4281153,42.9360407 2.56229741,41.4875281 C3.69647953,40.0390155 5.36187317,39.1030722 7.18890411,38.8873973 L53.4809589,32.8463014 C55.3070294,32.575777 57.165384,33.0477987 58.6410158,34.1569549 C60.1166478,35.2661113 61.0866433,36.9200142 61.3343836,38.7493151 L61.3775342,38.7752055 Z" id="Shape" fill="#E42129"/>
                        <path d="M35.6769863,20.9539726 L32.3371233,2.0539726 C32.5960274,0.233013699 30.0242466,-0.535068493 29.6531507,2.0539726 L26.8483562,22.0758904 L35.6769863,20.9539726 Z" id="Shape" fill="#FBDF89"/>
                        <ellipse id="Oval" fill="#FFFFFF" cx="31.2669863" cy="37.5928767" rx="21.4458904" ry="21.4458904"/>
                        <path d="M48.7084932,37.5238356 C48.7084932,47.1550685 31.2669863,65.5890411 31.2669863,65.5890411 C31.2669863,65.5890411 13.8082192,47.1550685 13.8082192,37.5238356 C13.8082192,27.8911574 21.6170478,20.0823288 31.249726,20.0823288 C40.8824043,20.0823288 48.6912329,27.8911574 48.6912329,37.5238356 L48.7084932,37.5238356 Z" id="Shape" fill="#E42129"/>
                        <circle id="Oval" fill="#FBDF89" cx="55.6643836" cy="24.5872603" r="6.54164384"/>
                    </g>
                </g>
                <g id="jumpanimation-fin_11" transform="translate(3.452055, 370)">
                    <g id="Layer_1">
                        <path d="M16.3972603,27.6164384 C19.3198406,27.5939998 21.7423772,29.8758239 21.8946575,32.7945205 L21.8946575,48.1561644 C21.7423772,51.074861 19.3198406,53.3566851 16.3972603,53.3342466 L16.3972603,53.3342466 C13.4713518,53.3613314 11.0436496,51.0782259 10.8912329,48.1561644 L10.8912329,32.8635616 C11.007693,29.9142747 13.445786,27.5908257 16.3972603,27.6164384 Z" id="Shape" fill="#B47945"/>
                        <path d="M39.8971233,9.64849315 C41.2505859,9.65957209 42.5427113,10.2145717 43.4825897,11.1885389 C44.4224681,12.1625062 44.9311003,13.4735767 44.8939726,14.8265753 L44.8939726,30.2054795 C44.9311003,31.5584781 44.4224681,32.8695486 43.4825897,33.8435159 C42.5427113,34.8174831 41.2505859,35.3724827 39.8971233,35.3835616 L39.8971233,35.3835616 C38.5436607,35.3724827 37.2515353,34.8174831 36.3116568,33.8435159 C35.3717785,32.8695486 34.8631463,31.5584781 34.900274,30.2054795 L34.900274,14.8610959 C34.8631463,13.5080973 35.3717785,12.1970267 36.3116568,11.2230595 C37.2515353,10.2490923 38.5436607,9.69409264 39.8971233,9.6830137 L39.8971233,9.64849315 Z" id="Shape" fill="#B47945"/>
                        <path d="M48.8983562,17.3724658 C50.6453751,17.3790986 52.316754,18.0860976 53.5382267,19.3351466 C54.7596994,20.5841957 55.4292143,22.2709395 55.3968493,24.0176712 L55.3968493,31.4309589 C55.4292143,33.1776906 54.7596994,34.8644345 53.5382267,36.1134835 C52.316754,37.3625326 50.6453751,38.0695315 48.8983562,38.0761644 L48.8983562,38.0761644 C47.1513373,38.0695315 45.4799583,37.3625326 44.2584856,36.1134835 C43.0370129,34.8644345 42.367498,33.1776906 42.399863,31.4309589 L42.399863,24.0263014 C42.367498,22.2795697 43.0370129,20.5928258 44.2584856,19.3437767 C45.4799583,18.0947277 47.1513373,17.3877288 48.8983562,17.3810959 L48.8983562,17.3724658 Z" id="Shape" fill="#E42129"/>
                        <ellipse id="Oval" fill="#FBDF89" transform="translate(6.873507, 52.455331) rotate(-86.430000) translate(-6.873507, -52.455331) " cx="6.87350728" cy="52.4553313" rx="6.18780822" ry="6.18780822"/>
                        <path d="M6.25684932,57.7183562 C8.00218203,57.8217485 9.71598591,57.2203057 11.0139412,56.0489011 C12.3118963,54.8774966 13.0853873,53.2341557 13.1609589,51.4873973 L13.3076712,49.079589 C13.45037,47.3424197 12.8920332,45.620377 11.7571567,44.2974352 C10.62228,42.9744933 9.00523191,42.1606587 7.26657534,42.0373973 L7.26657534,42.0373973 C5.52124263,41.9340049 3.8074387,42.5354477 2.50948353,43.7068523 C1.21152835,44.8782569 0.438037399,46.5215977 0.362465753,48.2683562 L0.215753425,50.6761644 C0.0754769884,52.4119118 0.634915933,54.1317085 1.76954256,55.4527381 C2.90416918,56.7737676 4.5198158,57.586392 6.25684932,57.709726 L6.25684932,57.7183562 Z" id="Shape" fill="#E42129"/>
                        <path d="M54.9653425,30.809589 C55.5474993,32.4537026 55.4471332,34.2624593 54.6866498,35.8320712 C53.9261664,37.4016829 52.5688858,38.6014593 50.9178082,39.1635616 L9.26876712,53.9815068 C7.62866027,54.5990987 5.8090514,54.5308986 4.21977669,53.7922674 C2.63050197,53.0536361 1.40520493,51.7066858 0.819863014,50.0547945 L0.819863014,50.0547945 C0.23925143,48.4061803 0.344410388,46.5935377 1.11177114,45.0231249 C1.8791319,43.4527122 3.24451995,42.2558633 4.90191781,41.7008219 L46.5250685,26.9173973 C48.1607182,26.2981576 49.9765032,26.361537 51.564996,27.0933147 C53.1534889,27.8250923 54.3816748,29.1639915 54.9739726,30.809589 L54.9653425,30.809589 Z" id="Shape" fill="#E42129"/>
                        <path d="M32.069589,19.8493151 L28.9109589,1.98493151 C29.1526027,0.25890411 26.7275342,-0.500547945 26.3736986,1.98493151 L23.7156164,20.9280822 L32.069589,19.8493151 Z" id="Shape" fill="#FBDF89"/>
                        <ellipse id="Oval" fill="#FFFFFF" cx="27.8926027" cy="35.6165753" rx="20.2980822" ry="20.2980822"/>
                        <path d="M44.4020548,35.5475342 C44.4020548,44.6609589 27.8926027,62.0765753 27.8926027,62.0765753 C27.8926027,62.0765753 11.3831507,44.669589 11.3831507,35.5475342 C11.5882423,26.5790257 18.9174344,19.4155212 27.8882877,19.4155212 C36.8591409,19.4155212 44.1883331,26.5790257 44.3934247,35.5475342 L44.4020548,35.5475342 Z" id="Shape" fill="#E42129"/>
                        <ellipse id="Oval" fill="#FBDF89" cx="48.7430137" cy="18.4426027" rx="6.18780822" ry="6.18780822"/>
                    </g>
                </g>
                <g id="jumpanimation-fin_12" transform="translate(4.315068, 444)">
                    <g id="Layer_1">
                        <ellipse id="Oval" fill="#FBDF89" cx="47.8454795" cy="21.4976712" rx="5.59232877" ry="5.59232877"/>
                        <path d="M47.9835616,20.539726 C49.5688558,20.5438226 51.0854678,21.1872485 52.1900818,22.3243511 C53.2946958,23.4614536 53.8939009,24.9960749 53.8520548,26.5808219 L53.8520548,33.2260274 C53.8939009,34.8107744 53.2946958,36.3453957 52.1900818,37.4824982 C51.0854678,38.6196008 49.5688558,39.2630267 47.9835616,39.2671233 L47.9835616,39.2671233 C46.3982675,39.2630267 44.8816555,38.6196008 43.7770415,37.4824982 C42.6724275,36.3453957 42.0732224,34.8107744 42.1150685,33.2260274 L42.1150685,26.5376712 C42.0732224,24.9529242 42.6724275,23.418303 43.7770415,22.2812004 C44.8816555,21.1440978 46.3982675,20.5006719 47.9835616,20.4965753 L47.9835616,20.539726 Z" id="Shape" fill="#E42129"/>
                        <ellipse id="Oval" fill="#FBDF89" transform="translate(6.823067, 44.355043) rotate(-86.430000) translate(-6.823067, -44.355043) " cx="6.82306709" cy="44.3550428" rx="5.58369863" ry="5.58369863"/>
                        <path d="M6.27410959,49.1054795 C7.84857613,49.1994931 9.39489778,48.6576363 10.5663055,47.6014225 C11.737713,46.5452086 12.4361787,45.063026 12.5050685,43.4872603 L12.6431507,41.3124658 C12.7714202,39.7405998 12.2635024,38.183011 11.2332759,36.9889218 C10.2030494,35.7948325 8.73670735,35.0641452 7.1630137,34.9606849 L7.1630137,34.9606849 C5.58996423,34.8642342 4.04394415,35.4026762 2.87113968,36.4554425 C1.69833521,37.5082089 0.996728756,38.9873459 0.923424658,40.5616438 L0.785342466,42.7364384 C0.657072908,44.3083043 1.16499071,45.8658931 2.1952172,47.0599823 C3.22544368,48.2540716 4.69178577,48.9847589 6.26547945,49.0882192 L6.27410959,49.1054795 Z" id="Shape" fill="#E42129"/>
                        <path d="M16.6216438,25.4157534 C19.2629867,25.4033528 21.4460736,27.4723411 21.5753425,30.1105479 L21.5753425,44.0136986 C21.4504071,46.6586637 19.2608743,48.73396 16.6130137,48.7171233 L16.6130137,48.7171233 C13.9684869,48.7293165 11.7841174,46.655307 11.6593151,44.0136986 L11.6593151,30.1105479 C11.7842505,27.4655829 13.9737833,25.3902866 16.6216438,25.4071233 L16.6216438,25.4157534 Z" id="Shape" fill="#B47945"/>
                        <path d="M37.8345205,9.16520548 C39.0621501,9.17380627 40.2341636,9.67833064 41.0841878,10.5641112 C41.9342121,11.4498916 42.3900437,12.6416878 42.3480822,13.8686301 L42.3480822,27.7286301 C42.3900437,28.9555725 41.9342121,30.1473687 41.0841878,31.0331491 C40.2341636,31.9189296 39.0621501,32.423454 37.8345205,32.4320548 L37.8345205,32.4320548 C36.606891,32.423454 35.4348775,31.9189296 34.5848533,31.0331491 C33.734829,30.1473687 33.2789974,28.9555725 33.3209589,27.7286301 L33.3209589,13.8686301 C33.2789974,12.6416878 33.734829,11.4498916 34.5848533,10.5641112 C35.4348775,9.67833064 36.606891,9.17380627 37.8345205,9.16520548 L37.8345205,9.16520548 Z" id="Shape" fill="#B47945"/>
                        <path d="M52.7215068,33.6143836 C52.9209151,35.1774621 52.4852329,36.7552273 51.511989,37.9944911 C50.5387452,39.2337549 49.1092226,40.0310173 47.5434247,40.2078082 L8.00013699,45.3858904 C6.43961782,45.6195807 4.85055509,45.2178312 3.58860856,44.2705602 C2.32666204,43.3232893 1.49720719,41.9095964 1.28589041,40.3458904 L1.28589041,40.3458904 C1.08889298,38.7832352 1.5254854,37.206735 2.49828248,35.9680401 C3.47107956,34.7293451 4.89915741,33.9314985 6.4639726,33.7524658 L46.0072603,28.5743836 C47.5668039,28.3407835 49.1548608,28.742771 50.4154401,29.6902333 C51.6760193,30.6376958 52.5036762,32.05138 52.7128767,33.6143836 L52.7215068,33.6143836 Z" id="Shape" fill="#E42129"/>
                        <path d="M30.7750685,18.3908219 L27.9271233,2.25246575 C28.1428767,0.699041096 25.9508219,0.00863013699 25.640137,2.25246575 L23.2323288,19.3487671 L30.7750685,18.3908219 Z" id="Shape" fill="#FBDF89"/>
                        <ellipse id="Oval" fill="#FFFFFF" cx="27.0036986" cy="32.6046575" rx="18.3217808" ry="18.3217808"/>
                        <path d="M41.8993151,32.5442466 C41.8993151,40.7687671 27.0036986,56.4842466 27.0036986,56.4842466 C27.0036986,56.4842466 12.0821918,40.7687671 12.0821918,32.5442466 C12.0821918,24.3152416 18.7531183,17.6443151 26.9821233,17.6443151 C35.2111282,17.6443151 41.8820548,24.3152416 41.8820548,32.5442466 L41.8993151,32.5442466 Z" id="Shape" fill="#E42129"/>
                    </g>
                </g>
                <g id="jumpanimation-fin_13" transform="translate(6.041096, 518)">
                    <g id="Layer_1">
                        <ellipse id="Oval" fill="#FBDF89" transform="translate(6.256694, 38.324757) rotate(-86.430000) translate(-6.256694, -38.324757) " cx="6.25669388" cy="38.3247565" rx="5.2730137" ry="5.2730137"/>
                        <path d="M5.7390411,42.8054795 C7.2242126,42.894804 8.6830449,42.3839791 9.78807103,41.3876706 C10.8930972,40.3913622 11.5517442,38.9930353 11.6161644,37.5065753 L11.7456164,35.4526027 C11.8667462,33.9677719 11.3866954,32.4964719 10.4131676,31.3688022 C9.43963987,30.2411326 8.05414609,29.55151 6.56753425,29.4546575 L6.56753425,29.4546575 C5.08151798,29.3677372 3.62274052,29.8805545 2.51800097,30.8782268 C1.41326141,31.8758991 0.754902306,33.2750333 0.690410959,34.7621918 L0.560958904,36.8161644 C0.439856923,38.3001094 0.920157486,39.7704729 1.89390937,40.8967792 C2.86766125,42.0230856 4.25317331,42.7108454 5.7390411,42.8054795 L5.7390411,42.8054795 Z" id="Shape" fill="#E42129"/>
                        <ellipse id="Oval" fill="#FBDF89" transform="translate(44.896680, 38.340512) rotate(-3.570000) translate(-44.896680, -38.340512) " cx="44.8966805" cy="38.3405118" rx="5.2730137" ry="5.2730137"/>
                        <path d="M45.4290411,42.8054795 C43.9438696,42.894804 42.4850373,42.3839791 41.3800112,41.3876706 C40.274985,40.3913622 39.616338,38.9930353 39.5519178,37.5065753 L39.4224658,35.4526027 C39.301336,33.9677719 39.7813868,32.4964719 40.7549145,31.3688022 C41.7284423,30.2411326 43.1139361,29.55151 44.6005479,29.4546575 L44.6005479,29.4546575 C46.0865642,29.3677372 47.5453417,29.8805545 48.6500812,30.8782268 C49.7548208,31.8758991 50.4131799,33.2750333 50.4776712,34.7621918 L50.6071233,36.8161644 C50.7282253,38.3001094 50.2479247,39.7704729 49.2741728,40.8967792 C48.3004209,42.0230856 46.9149089,42.7108454 45.4290411,42.8054795 L45.4290411,42.8054795 Z" id="Shape" fill="#E42129"/>
                        <path d="M15.5342466,14.2224658 C18.0346667,14.2012222 20.104522,16.1605328 20.220411,18.6583562 L20.220411,31.7330137 C20.104522,34.2308371 18.0346667,36.1901477 15.5342466,36.1689041 L15.5342466,36.1689041 C13.0338265,36.1901477 10.9639711,34.2308371 10.8480822,31.7330137 L10.8480822,18.6583562 C10.9639711,16.1605328 13.0338265,14.2012222 15.5342466,14.2224658 L15.5342466,14.2224658 Z" id="Shape" fill="#B47945"/>
                        <path d="M35.5130137,14.2224658 C36.6681716,14.2381835 37.7687868,14.7164503 38.568473,15.5502002 C39.3681591,16.38395 39.8001256,17.5035473 39.7676712,18.6583562 L39.7676712,31.7330137 C39.8001256,32.8878226 39.3681591,34.0074198 38.568473,34.8411697 C37.7687868,35.6749196 36.6681716,36.1531864 35.5130137,36.1689041 L35.5130137,36.1689041 C34.3578558,36.1531864 33.2572406,35.6749196 32.4575544,34.8411697 C31.6578682,34.0074198 31.2259018,32.8878226 31.2583562,31.7330137 L31.2583562,18.6583562 C31.2259018,17.5035473 31.6578682,16.38395 32.4575544,15.5502002 C33.2572406,14.7164503 34.3578558,14.2381835 35.5130137,14.2224658 L35.5130137,14.2224658 Z" id="Shape" fill="#B47945"/>
                        <path d="M49.7613699,34.7621918 C49.7570038,36.2513388 49.1552213,37.6764451 48.0909354,38.7180176 C47.0266495,39.7595901 45.5888948,40.3304943 44.1,40.3027397 L6.48986301,40.3027397 C5.00690235,40.3211698 3.57808489,39.7461341 2.52131965,38.7055769 C1.46455442,37.6650197 0.867505003,36.2452602 0.863013699,34.7621918 L0.863013699,34.7621918 C0.869685235,33.274544 1.47248152,31.8516686 2.53651252,30.8119675 C3.60054354,29.7722665 5.03697945,29.2025386 6.52438356,29.230274 L44.1,29.230274 C45.5874041,29.2025386 47.02384,29.7722665 48.087871,30.8119675 C49.1519021,31.8516686 49.7546983,33.274544 49.7613699,34.7621918 L49.7613699,34.7621918 Z" id="Shape" fill="#E42129"/>
                        <path d="M28.8505479,17.260274 L26.1665753,2.01945205 C26.3736986,0.552328767 24.3024658,-0.0949315068 24.0090411,2.01945205 L21.7306849,18.1232877 L28.8505479,17.260274 Z" id="Shape" fill="#FBDF89"/>
                        <ellipse id="Oval" fill="#FFFFFF" cx="25.2949315" cy="30.6542466" rx="17.2775342" ry="17.2775342"/>
                        <path d="M39.3447945,30.5938356 C39.3447945,38.3609589 25.2863014,53.1789041 25.2863014,53.1789041 C25.2863014,53.1789041 11.2191781,38.3523288 11.2191781,30.5938356 C11.2191783,22.8319275 17.5114481,16.5396578 25.2733562,16.5396578 C33.0352643,16.5396578 39.3275341,22.8319275 39.3275342,30.5938356 L39.3447945,30.5938356 Z" id="Shape" fill="#E42129"/>
                    </g>
                </g>
                <g id="jumpanimation-fin_14" transform="translate(6.904110, 592)">
                    <g id="Layer_1">
                        <path d="M15.370274,14.049863 C17.9022693,14.0331168 19.9965512,16.0169729 20.1168493,18.5461644 L20.1168493,31.7934247 C19.9965512,34.3226161 17.9022693,36.3064723 15.370274,36.289726 L15.370274,36.289726 C12.8382786,36.3064723 10.7439967,34.3226161 10.6236986,31.7934247 L10.6236986,18.5461644 C10.7439967,16.0169729 12.8382786,14.0331168 15.370274,14.049863 Z" id="Shape" fill="#B47945"/>
                        <path d="M35.6424658,14.049863 C36.818997,14.0488248 37.9449368,14.5282399 38.7595867,15.3771052 C39.5742367,16.2259704 40.006949,17.3706709 39.9575342,18.5461644 L39.9575342,31.7934247 C40.006949,32.9689182 39.5742367,34.1136186 38.7595867,34.9624839 C37.9449368,35.8113492 36.818997,36.2907642 35.6424658,36.289726 L35.6424658,36.289726 C34.4659345,36.2907642 33.3399947,35.8113492 32.5253448,34.9624839 C31.7106948,34.1136186 31.2779825,32.9689182 31.3273973,31.7934247 L31.3273973,18.5461644 C31.2779825,17.3706709 31.7106948,16.2259704 32.5253448,15.3771052 C33.3399947,14.5282399 34.4659345,14.0488248 35.6424658,14.049863 L35.6424658,14.049863 Z" id="Shape" fill="#B47945"/>
                        <path d="M50.0547945,34.8743836 C50.0504658,36.3833648 49.4402268,37.8273738 48.3611105,38.8821492 C47.2819941,39.9369246 45.8244407,40.514066 44.3157534,40.4839726 L6.2309589,40.4839726 C4.72295403,40.5117043 3.26676359,39.9337911 2.18816758,38.8795243 C1.10957159,37.8252576 0.498592061,36.3826287 0.491917808,34.8743836 L0.491917808,34.8743836 C0.498592061,33.3661384 1.10957159,31.9235096 2.18816758,30.8692428 C3.26676359,29.814976 4.72295403,29.2370629 6.2309589,29.2647945 L44.350274,29.2647945 C45.8530313,29.2440423 47.3016402,29.8253237 48.3732304,30.8790811 C49.4448206,31.9328386 50.0503276,33.3714896 50.0547945,34.8743836 Z" id="Shape" fill="#E42129"/>
                        <path d="M28.8936986,17.1135616 L26.1665753,1.68287671 C26.3736986,0.198493151 24.2765753,-0.45739726 23.9745205,1.68287671 L21.6789041,18.0283562 L28.8936986,17.1135616 Z" id="Shape" fill="#FBDF89"/>
                        <circle id="Oval" fill="#FFFFFF" cx="25.2863014" cy="30.6973973" r="17.5105479"/>
                        <path d="M39.5346575,30.6456164 C39.5346575,38.5076712 25.2863014,53.5068493 25.2863014,53.5068493 C25.2863014,53.5068493 11.0465753,38.5076712 11.0465753,30.6456164 C11.3137037,22.9741015 17.6101371,16.893099 25.2863014,16.893099 C32.9624657,16.893099 39.258899,22.9741015 39.5260274,30.6456164 L39.5346575,30.6456164 Z" id="Shape" fill="#E42129"/>
                    </g>
                </g>
                <g xmlns="http://www.w3.org/2000/svg" id="jumpanimation-fin_15" transform="translate(7.767123, 666)">
                    <g id="Layer_1">
                        <ellipse id="Oval" fill="#B82129" cx="23.2927397" cy="35.6338356" rx="15.2580822" ry="13.3508219"/>
                        <ellipse id="Oval" fill="#FBDF89" transform="translate(5.536031, 38.579459) rotate(-86.430000) translate(-5.536031, -38.579459) " cx="5.53603065" cy="38.5794587" rx="4.99684932" ry="4.99684932"/>
                        <path d="M5.04,42.8227397 C6.44961115,42.9073535 7.83411574,42.4220947 8.88246528,41.4759835 C9.93081488,40.5298724 10.5551008,39.2022444 10.6150685,37.7913699 L10.7358904,35.849589 C10.8401653,34.448341 10.3799329,33.0635563 9.45764052,32.0034873 C8.53534811,30.9434184 7.22754315,30.2960476 5.82534247,30.2054795 L5.82534247,30.2054795 C4.41573132,30.1208657 3.03122672,30.6061245 1.98287716,31.5522356 C0.934527605,32.4983468 0.310241658,33.8259748 0.250273973,35.2368493 L0.138082192,37.109589 C0.0240828253,38.5151382 0.478753665,39.9076636 1.40021186,40.9751275 C2.32167005,42.0425914 3.63287093,42.6957413 5.04,42.7882192 L5.04,42.8227397 Z" id="Shape" fill="#E42129"/>
                        <ellipse id="Oval" fill="#FBDF89" transform="translate(42.174002, 38.578331) rotate(-3.570000) translate(-42.174002, -38.578331) " cx="42.1740018" cy="38.5783312" rx="4.99684932" ry="4.99684932"/>
                        <path d="M42.6760274,42.8227397 C41.2678606,42.904952 39.8856052,42.4186115 38.83916,41.4727548 C37.7927148,40.5268981 37.1696261,39.2006562 37.109589,37.7913699 L36.9887671,35.849589 C36.8843959,34.4511418 37.3422966,33.0688485 38.2609147,32.0092784 C39.1795329,30.9497082 40.4829372,30.3004433 41.8820548,30.2054795 L41.8820548,30.2054795 C43.2859683,30.1183627 44.6663577,30.596707 45.7153449,31.5338239 C46.7643322,32.4709409 47.3946641,33.7888824 47.4657534,35.1936986 L47.5779452,37.109589 C47.6919446,38.5151382 47.2372737,39.9076636 46.3158155,40.9751275 C45.3943574,42.0425914 44.0831565,42.6957413 42.6760274,42.7882192 L42.6760274,42.8227397 Z" id="Shape" fill="#E42129"/>
                        <path d="M14.300137,16.5180822 C16.6638857,16.5013769 18.6204403,18.3513487 18.7360274,20.7123288 L18.7360274,33.1224658 C18.6249151,35.4868488 16.6670718,37.3418481 14.300137,37.3253425 L14.300137,37.3253425 C11.92987,37.3465085 9.9668501,35.4902158 9.85561644,33.1224658 L9.85561644,20.7123288 C9.9668501,18.3445787 11.92987,16.488286 14.300137,16.5094521 L14.300137,16.5180822 Z" id="Shape" fill="#B47945"/>
                        <path d="M33.2691781,16.5180822 C34.3655384,16.5245088 35.4128112,16.9735519 36.1733054,17.7632959 C36.9337997,18.55304 37.3430176,19.6165063 37.3080822,20.7123288 L37.3080822,33.1224658 C37.3453974,34.2197577 36.9372386,35.2854784 36.1764837,36.0771186 C35.4157288,36.8687589 34.367086,37.3189836 33.2691781,37.3253425 L33.2691781,37.3253425 C32.1712702,37.3189836 31.1226273,36.8687589 30.3618725,36.0771186 C29.6011176,35.2854784 29.1929587,34.2197577 29.230274,33.1224658 L29.230274,20.7123288 C29.1929587,19.6150368 29.6011176,18.5493161 30.3618725,17.7576759 C31.1226273,16.9660357 32.1712702,16.5158109 33.2691781,16.5094521 L33.2691781,16.5180822 Z" id="Shape" fill="#B47945"/>
                        <path d="M46.7839726,34.3824658 C46.7818885,35.7937747 46.2132191,37.1451469 45.2055838,38.1333111 C44.1979485,39.1214751 42.8357384,39.6636706 41.4246575,39.6382192 L5.74767123,39.6382192 C4.33728439,39.6636308 2.97551825,39.1228787 1.96677447,38.1368399 C0.958030687,37.1508009 0.38642322,35.8016958 0.379726027,34.3910959 L0.379726027,34.3910959 C0.38642322,32.980496 0.958030687,31.6313909 1.96677447,30.6453519 C2.97551825,29.659313 4.33728439,29.118561 5.74767123,29.1439726 L41.4246575,29.1439726 C42.8357266,29.1162018 44.1988541,29.6561829 45.2081174,30.6427297 C46.2173809,31.6292766 46.7882487,32.9797602 46.7926027,34.3910959 L46.7839726,34.3824658 Z" id="Shape" fill="#E42129"/>
                        <path d="M26.5980822,14.5417808 L24.319726,1.59657534 C24.4923288,0.353835616 22.740411,-0.198493151 22.490137,1.59657534 L20.5656164,15.309863 L26.5980822,14.5417808 Z" id="Shape" fill="#FBDF89"/>
                        <ellipse id="Oval" fill="#FFFFFF" cx="23.5861644" cy="25.9076712" rx="14.6453425" ry="14.6453425"/>
                        <path d="M35.4871233,25.890411 C35.4871233,32.4665753 23.5775342,45.0320548 23.5775342,45.0320548 C23.5775342,45.0320548 11.6765753,32.4320548 11.6765753,25.890411 C11.6765753,19.3129266 17.00868,13.9808219 23.5861644,13.9808219 C30.1636487,13.9808219 35.4957534,19.3129266 35.4957534,25.890411 L35.4871233,25.890411 Z" id="Shape" fill="#E42129"/>
                    </g>
                </g>
<g id="jumpanimation-fin_16" transform="translate(7.767123, 740)">
                    <g id="Layer_1">
                        <ellipse id="Oval" fill="#B82129" cx="23.2927397" cy="38.2228767" rx="15.2580822" ry="13.3508219"/>
                        <ellipse id="Oval" fill="#FBDF89" transform="translate(5.536031, 38.579459) rotate(-86.430000) translate(-5.536031, -38.579459) " cx="5.53603065" cy="38.5794587" rx="4.99684932" ry="4.99684932"/>
                        <path d="M5.04,42.8227397 C6.44961115,42.9073535 7.83411574,42.4220947 8.88246528,41.4759835 C9.93081488,40.5298724 10.5551008,39.2022444 10.6150685,37.7913699 L10.7358904,35.849589 C10.8401653,34.448341 10.3799329,33.0635563 9.45764052,32.0034873 C8.53534811,30.9434184 7.22754315,30.2960476 5.82534247,30.2054795 L5.82534247,30.2054795 C4.41573132,30.1208657 3.03122672,30.6061245 1.98287716,31.5522356 C0.934527605,32.4983468 0.310241658,33.8259748 0.250273973,35.2368493 L0.138082192,37.109589 C0.0240828253,38.5151382 0.478753665,39.9076636 1.40021186,40.9751275 C2.32167005,42.0425914 3.63287093,42.6957413 5.04,42.7882192 L5.04,42.8227397 Z" id="Shape" fill="#E42129"/>
                        <ellipse id="Oval" fill="#FBDF89" transform="translate(42.174002, 38.578331) rotate(-3.570000) translate(-42.174002, -38.578331) " cx="42.1740018" cy="38.5783312" rx="4.99684932" ry="4.99684932"/>
                        <path d="M42.6760274,42.8227397 C41.2678606,42.904952 39.8856052,42.4186115 38.83916,41.4727548 C37.7927148,40.5268981 37.1696261,39.2006562 37.109589,37.7913699 L36.9887671,35.849589 C36.8843959,34.4511418 37.3422966,33.0688485 38.2609147,32.0092784 C39.1795329,30.9497082 40.4829372,30.3004433 41.8820548,30.2054795 L41.8820548,30.2054795 C43.2859683,30.1183627 44.6663577,30.596707 45.7153449,31.5338239 C46.7643322,32.4709409 47.3946641,33.7888824 47.4657534,35.1936986 L47.5779452,37.109589 C47.6919446,38.5151382 47.2372737,39.9076636 46.3158155,40.9751275 C45.3943574,42.0425914 44.0831565,42.6957413 42.6760274,42.7882192 L42.6760274,42.8227397 Z" id="Shape" fill="#E42129"/>
                        <path d="M14.300137,16.5180822 C16.6638857,16.5013769 18.6204403,18.3513487 18.7360274,20.7123288 L18.7360274,33.1224658 C18.6249151,35.4868488 16.6670718,37.3418481 14.300137,37.3253425 L14.300137,37.3253425 C11.92987,37.3465085 9.9668501,35.4902158 9.85561644,33.1224658 L9.85561644,20.7123288 C9.9668501,18.3445787 11.92987,16.488286 14.300137,16.5094521 L14.300137,16.5180822 Z" id="Shape" fill="#B47945"/>
                        <path d="M33.2691781,16.5180822 C34.3655384,16.5245088 35.4128112,16.9735519 36.1733054,17.7632959 C36.9337997,18.55304 37.3430176,19.6165063 37.3080822,20.7123288 L37.3080822,33.1224658 C37.3453974,34.2197577 36.9372386,35.2854784 36.1764837,36.0771186 C35.4157288,36.8687589 34.367086,37.3189836 33.2691781,37.3253425 L33.2691781,37.3253425 C32.1712702,37.3189836 31.1226273,36.8687589 30.3618725,36.0771186 C29.6011176,35.2854784 29.1929587,34.2197577 29.230274,33.1224658 L29.230274,20.7123288 C29.1929587,19.6150368 29.6011176,18.5493161 30.3618725,17.7576759 C31.1226273,16.9660357 32.1712702,16.5158109 33.2691781,16.5094521 L33.2691781,16.5180822 Z" id="Shape" fill="#B47945"/>
                        <path d="M46.7839726,34.3824658 C46.7818885,35.7937747 46.2132191,37.1451469 45.2055838,38.1333111 C44.1979485,39.1214751 42.8357384,39.6636706 41.4246575,39.6382192 L5.74767123,39.6382192 C4.33728439,39.6636308 2.97551825,39.1228787 1.96677447,38.1368399 C0.958030687,37.1508009 0.38642322,35.8016958 0.379726027,34.3910959 L0.379726027,34.3910959 C0.38642322,32.980496 0.958030687,31.6313909 1.96677447,30.6453519 C2.97551825,29.659313 4.33728439,29.118561 5.74767123,29.1439726 L41.4246575,29.1439726 C42.8357266,29.1162018 44.1988541,29.6561829 45.2081174,30.6427297 C46.2173809,31.6292766 46.7882487,32.9797602 46.7926027,34.3910959 L46.7839726,34.3824658 Z" id="Shape" fill="#E42129"/>
                        <path d="M26.5980822,14.5417808 L24.319726,1.59657534 C24.4923288,0.353835616 22.740411,-0.198493151 22.490137,1.59657534 L20.5656164,15.309863 L26.5980822,14.5417808 Z" id="Shape" fill="#FBDF89"/>
                        <circle id="Oval" fill="#FFFFFF" cx="23.5861644" cy="25.9076712" r="14.6453425"/>
                        <path d="M35.4871233,25.890411 C35.4871233,32.4665753 23.5775342,45.0320548 23.5775342,45.0320548 C23.5775342,45.0320548 11.6765753,32.4320548 11.6765753,25.890411 C11.6765753,19.3129266 17.00868,13.9808219 23.5861644,13.9808219 C30.1636487,13.9808219 35.4957534,19.3129266 35.4957534,25.890411 L35.4871233,25.890411 Z" id="Shape" fill="#E42129"/>
                    </g>
                </g>
                <g id="jumpanimation-fin_17" transform="translate(8.630137, 814)">
                    <g id="Layer_1">
                        <path d="M37.0578082,38.050274 C37.0578082,45.1183562 30.5075342,50.8487671 22.3865753,50.8487671 C14.2656164,50.8487671 7.76712329,45.1183562 7.76712329,38.050274 C7.76712329,30.9821918 14.3432877,17.260274 22.4383562,17.260274 C30.5334247,17.260274 37.0578082,30.9821918 37.0578082,38.050274 Z" id="Shape" fill="#B82129"/>
                        <path d="M13.8082192,14.4468493 C16.0783374,14.4304508 17.9563766,16.2094454 18.0628767,18.4771233 L18.0628767,30.3694521 C17.9563766,32.63713 16.0783374,34.4161246 13.8082192,34.399726 L13.8082192,34.399726 C11.5347692,34.420787 9.6515515,32.6404982 9.54493151,30.3694521 L9.54493151,18.4771233 C9.6515515,16.2060771 11.5347692,14.4257883 13.8082192,14.4468493 L13.8082192,14.4468493 Z" id="Shape" fill="#B47945"/>
                        <path d="M31.9919178,14.4468493 C33.0448056,14.453257 34.0503888,14.8850241 34.7801355,15.6440256 C35.5098822,16.4030273 35.9018104,17.4247967 35.8668493,18.4771233 L35.8668493,30.3694521 C35.9018104,31.4217787 35.5098822,32.4435481 34.7801355,33.2025497 C34.0503888,33.9615513 33.0448056,34.3933183 31.9919178,34.399726 L31.9919178,34.399726 C30.93903,34.3933183 29.9334468,33.9615513 29.2037001,33.2025497 C28.4739534,32.4435481 28.0820252,31.4217787 28.1169863,30.3694521 L28.1169863,18.4771233 C28.0820252,17.4247967 28.4739534,16.4030273 29.2037001,15.6440256 C29.9334468,14.8850241 30.93903,14.453257 31.9919178,14.4468493 L31.9919178,14.4468493 Z" id="Shape" fill="#B47945"/>
                        <path d="M44.9543836,31.5776712 C44.9501853,32.9363886 44.3985029,34.2360601 43.4240343,35.1829189 C42.4495656,36.1297776 41.1345783,36.6438867 39.7763014,36.6090411 L5.60958904,36.6090411 C4.25131204,36.6438867 2.93632482,36.1297776 1.96185616,35.1829189 C0.987387496,34.2360601 0.435705165,32.9363886 0.431506849,31.5776712 L0.431506849,31.5776712 C0.435705165,30.2189539 0.987387496,28.9192823 1.96185616,27.9724236 C2.93632482,27.0255649 4.25131204,26.5114558 5.60958904,26.5463014 L39.8021918,26.5463014 C41.1604688,26.5114558 42.475456,27.0255649 43.4499247,27.9724236 C44.4243933,28.9192823 44.9760757,30.2189539 44.980274,31.5776712 L44.9543836,31.5776712 Z" id="Shape" fill="#E42129"/>
                        <path d="M25.5969863,13.4889041 L23.4135616,1.11328767 C23.5775342,-0.0776712329 21.9032877,-0.612739726 21.6875342,1.11328767 L19.8493151,14.2224658 L25.5969863,13.4889041 Z" id="Shape" fill="#FBDF89"/>
                        <ellipse id="Oval" fill="#FFFFFF" cx="22.7058904" cy="24.380137" rx="14.0412329" ry="14.0412329"/>
                        <path d="M34.1235616,24.3369863 C34.1235616,30.6456164 22.7058904,42.6846575 22.7058904,42.6846575 C22.7058904,42.6846575 11.2882192,30.6369863 11.2882192,24.3369863 C11.2882192,18.0311806 16.4000847,12.9193151 22.7058904,12.9193151 C29.0116961,12.9193151 34.1235616,18.0311806 34.1235616,24.3369863 L34.1235616,24.3369863 Z" id="Shape" fill="#E42129"/>
                    </g>
                </g>


                <g id="jumpanimation-fin_18" transform="translate(6.041096, 888)">
                    <ellipse id="Oval" fill="#FBDF89" transform="translate(5.997638, 38.719516) rotate(-86.430000) translate(-5.997638, -38.719516) " cx="5.99763786" cy="38.7195156" rx="5.34205479" ry="5.34205479"/>
                    <path d="M5.47150685,43.2542466 C6.97727984,43.3435379 8.45585379,42.8245141 9.57543714,41.813644 C10.6950204,40.8027737 11.3618543,39.384712 11.4263014,37.8776712 L11.5557534,35.7978082 C11.6696028,34.3003445 11.1801165,32.8195046 10.1962429,31.6848892 C9.21236918,30.5502738 7.81575723,29.8560415 6.31726027,29.7567123 L6.31726027,29.7567123 C4.81148728,29.667421 3.33291333,30.1864448 2.21333002,31.1973149 C1.09374671,32.2081852 0.426912837,33.6262469 0.362465753,35.1332877 L0.233013699,37.2131507 C0.119164356,38.7106144 0.608650634,40.1914543 1.59252427,41.3260697 C2.57639791,42.4606851 3.97300989,43.1549174 5.47150685,43.2542466 L5.47150685,43.2542466 Z" id="Shape" fill="#E42129"/>
                    <circle id="Oval" fill="#FBDF89" transform="translate(45.162004, 38.729253) rotate(-3.570000) translate(-45.162004, -38.729253) " cx="45.162004" cy="38.7292532" r="5.34205479"/>
                    <path d="M45.6965753,43.2542466 C44.1850312,43.3556101 42.696471,42.8431899 41.5676033,41.8328939 C40.4387357,40.8225979 39.764941,39.3997884 39.6986301,37.8863014 L39.5691781,35.8064384 C39.4553287,34.3089746 39.944815,32.8281348 40.9286887,31.6935193 C41.9125623,30.5589039 43.3091743,29.8646716 44.8076712,29.7653425 L44.8076712,29.7653425 C46.3134442,29.6760512 47.7920182,30.195075 48.9116015,31.2059451 C50.0311848,32.2168153 50.6980187,33.634877 50.7624658,35.1419178 L50.9178082,37.1872603 C51.0316576,38.684724 50.5421713,40.1655639 49.5582976,41.3001793 C48.574424,42.4347947 47.177812,43.129027 45.6793151,43.2283562 L45.6965753,43.2542466 Z" id="Shape" fill="#E42129"/>
                    <path d="M15.370274,14.049863 C17.9022693,14.0331168 19.9965512,16.0169729 20.1168493,18.5461644 L20.1168493,31.7934247 C19.9965512,34.3226161 17.9022693,36.3064723 15.370274,36.289726 L15.370274,36.289726 C12.8382786,36.3064723 10.7439967,34.3226161 10.6236986,31.7934247 L10.6236986,18.5461644 C10.7439967,16.0169729 12.8382786,14.0331168 15.370274,14.049863 Z" id="Shape" fill="#B47945"/>
                    <path d="M35.6424658,14.049863 C36.818997,14.0488248 37.9449368,14.5282399 38.7595867,15.3771052 C39.5742367,16.2259704 40.006949,17.3706709 39.9575342,18.5461644 L39.9575342,31.7934247 C40.006949,32.9689182 39.5742367,34.1136186 38.7595867,34.9624839 C37.9449368,35.8113492 36.818997,36.2907642 35.6424658,36.289726 L35.6424658,36.289726 C34.4659345,36.2907642 33.3399947,35.8113492 32.5253448,34.9624839 C31.7106948,34.1136186 31.2779825,32.9689182 31.3273973,31.7934247 L31.3273973,18.5461644 C31.2779825,17.3706709 31.7106948,16.2259704 32.5253448,15.3771052 C33.3399947,14.5282399 34.4659345,14.0488248 35.6424658,14.049863 L35.6424658,14.049863 Z" id="Shape" fill="#B47945"/>
                    <path d="M50.0547945,34.8743836 C50.0504658,36.3833648 49.4402268,37.8273738 48.3611105,38.8821492 C47.2819941,39.9369246 45.8244407,40.514066 44.3157534,40.4839726 L6.2309589,40.4839726 C4.72295403,40.5117043 3.26676359,39.9337911 2.18816758,38.8795243 C1.10957159,37.8252576 0.498592061,36.3826287 0.491917808,34.8743836 L0.491917808,34.8743836 C0.498592061,33.3661384 1.10957159,31.9235096 2.18816758,30.8692428 C3.26676359,29.814976 4.72295403,29.2370629 6.2309589,29.2647945 L44.350274,29.2647945 C45.8530313,29.2440423 47.3016402,29.8253237 48.3732304,30.8790811 C49.4448206,31.9328386 50.0503276,33.3714896 50.0547945,34.8743836 Z" id="Shape" fill="#E42129"/>
                    <path d="M28.8936986,17.1135616 L26.1665753,1.68287671 C26.3736986,0.198493151 24.2765753,-0.45739726 23.9745205,1.68287671 L21.6789041,18.0283562 L28.8936986,17.1135616 Z" id="Shape" fill="#FBDF89"/>
                    <ellipse id="Oval" fill="#FFFFFF" cx="25.2863014" cy="30.6973973" rx="17.5105479" ry="17.5105479"/>
                    <path d="M39.5346575,30.6456164 C39.5346575,38.5076712 25.2863014,53.5068493 25.2863014,53.5068493 C25.2863014,53.5068493 11.0465753,38.5076712 11.0465753,30.6456164 C11.3137037,22.9741015 17.6101371,16.893099 25.2863014,16.893099 C32.9624657,16.893099 39.258899,22.9741015 39.5260274,30.6456164 L39.5346575,30.6456164 Z" id="Shape" fill="#E42129"/>
                </g>
                <g id="jumpanimation-fin_19" transform="translate(6.904110, 962)">
                    <path d="M15.370274,14.049863 C17.9022693,14.0331168 19.9965512,16.0169729 20.1168493,18.5461644 L20.1168493,31.7934247 C19.9965512,34.3226161 17.9022693,36.3064723 15.370274,36.289726 L15.370274,36.289726 C12.8382786,36.3064723 10.7439967,34.3226161 10.6236986,31.7934247 L10.6236986,18.5461644 C10.7439967,16.0169729 12.8382786,14.0331168 15.370274,14.049863 Z" id="Shape" fill="#B47945"/>
                    <path d="M35.6424658,14.049863 C36.818997,14.0488248 37.9449368,14.5282399 38.7595867,15.3771052 C39.5742367,16.2259704 40.006949,17.3706709 39.9575342,18.5461644 L39.9575342,31.7934247 C40.006949,32.9689182 39.5742367,34.1136186 38.7595867,34.9624839 C37.9449368,35.8113492 36.818997,36.2907642 35.6424658,36.289726 L35.6424658,36.289726 C34.4659345,36.2907642 33.3399947,35.8113492 32.5253448,34.9624839 C31.7106948,34.1136186 31.2779825,32.9689182 31.3273973,31.7934247 L31.3273973,18.5461644 C31.2779825,17.3706709 31.7106948,16.2259704 32.5253448,15.3771052 C33.3399947,14.5282399 34.4659345,14.0488248 35.6424658,14.049863 L35.6424658,14.049863 Z" id="Shape" fill="#B47945"/>
                    <path d="M50.0547945,34.8743836 C50.0504658,36.3833648 49.4402268,37.8273738 48.3611105,38.8821492 C47.2819941,39.9369246 45.8244407,40.514066 44.3157534,40.4839726 L6.2309589,40.4839726 C4.72295403,40.5117043 3.26676359,39.9337911 2.18816758,38.8795243 C1.10957159,37.8252576 0.498592061,36.3826287 0.491917808,34.8743836 L0.491917808,34.8743836 C0.498592061,33.3661384 1.10957159,31.9235096 2.18816758,30.8692428 C3.26676359,29.814976 4.72295403,29.2370629 6.2309589,29.2647945 L44.350274,29.2647945 C45.8530313,29.2440423 47.3016402,29.8253237 48.3732304,30.8790811 C49.4448206,31.9328386 50.0503276,33.3714896 50.0547945,34.8743836 Z" id="Shape" fill="#E42129"/>
                    <path d="M28.8936986,17.1135616 L26.1665753,1.68287671 C26.3736986,0.198493151 24.2765753,-0.45739726 23.9745205,1.68287671 L21.6789041,18.0283562 L28.8936986,17.1135616 Z" id="Shape" fill="#FBDF89"/>
                    <circle id="Oval" fill="#FFFFFF" cx="25.2863014" cy="30.6973973" r="17.5105479"/>
                    <path d="M39.5346575,30.6456164 C39.5346575,38.5076712 25.2863014,53.5068493 25.2863014,53.5068493 C25.2863014,53.5068493 11.0465753,38.5076712 11.0465753,30.6456164 C11.3137037,22.9741015 17.6101371,16.893099 25.2863014,16.893099 C32.9624657,16.893099 39.258899,22.9741015 39.5260274,30.6456164 L39.5346575,30.6456164 Z" id="Shape" fill="#E42129"/>
                </g>
                <g id="jumpanimation-fin_0a" transform="translate(6.041096, 1036)">
                    <circle id="Oval" fill="#FBDF89" transform="translate(45.155736, 30.738436) rotate(-86.430000) translate(-45.155736, -30.738436) " cx="45.1557356" cy="30.7384363" r="5.34205479"/>
                    <path d="M45.6965753,26.209726 C44.1850312,26.1083625 42.696471,26.6207827 41.5676033,27.6310787 C40.4387357,28.6413747 39.764941,30.0641842 39.6986301,31.5776712 L39.6123288,33.6575342 C39.4986031,35.1592087 39.9915832,36.6438025 40.9809758,37.7791712 C41.9703685,38.9145398 43.373594,39.6059197 44.8767123,39.6986301 L44.8767123,39.6986301 C46.3824853,39.7879214 47.8610593,39.2688976 48.9806426,38.2580275 C50.1002259,37.2471573 50.7670597,35.8290956 50.8315068,34.3220548 L50.9178082,32.2767123 C51.0316576,30.7792486 50.5421713,29.2984087 49.5582976,28.1637933 C48.574424,27.0291779 47.177812,26.3349456 45.6793151,26.2356164 L45.6965753,26.209726 Z" id="Shape" fill="#E42129"/>
                    <ellipse id="Oval" fill="#FBDF89" transform="translate(5.991610, 30.740913) rotate(-3.570000) translate(-5.991610, -30.740913) " cx="5.99160975" cy="30.7409129" rx="5.34205479" ry="5.34205479"/>
                    <path d="M5.47150685,26.209726 C6.97727984,26.1204347 8.45585379,26.6394585 9.57543714,27.6503286 C10.6950204,28.6611989 11.3618543,30.0792606 11.4263014,31.5863014 L11.5557534,33.6575342 C11.6696028,35.154998 11.1801165,36.6358378 10.1962429,37.7704533 C9.21236918,38.9050687 7.81575723,39.599301 6.31726027,39.6986301 L6.31726027,39.6986301 C4.81148728,39.7879214 3.33291333,39.2688976 2.21333002,38.2580275 C1.09374671,37.2471573 0.426912837,35.8290956 0.362465753,34.3220548 L0.233013699,32.2421918 C0.119164356,30.744728 0.608650634,29.2638882 1.59252427,28.1292728 C2.57639791,26.9946574 3.97300989,26.3004251 5.47150685,26.2010959 L5.47150685,26.209726 Z" id="Shape" fill="#E42129"/>
                    <path d="M15.370274,14.049863 C17.9022693,14.0331168 19.9965512,16.0169729 20.1168493,18.5461644 L20.1168493,31.7934247 C19.9965512,34.3226161 17.9022693,36.3064723 15.370274,36.289726 L15.370274,36.289726 C12.8382786,36.3064723 10.7439967,34.3226161 10.6236986,31.7934247 L10.6236986,18.5461644 C10.7439967,16.0169729 12.8382786,14.0331168 15.370274,14.049863 Z" id="Shape" fill="#B47945"/>
                    <path d="M35.6424658,14.049863 C36.818997,14.0488248 37.9449368,14.5282399 38.7595867,15.3771052 C39.5742367,16.2259704 40.006949,17.3706709 39.9575342,18.5461644 L39.9575342,31.7934247 C40.006949,32.9689182 39.5742367,34.1136186 38.7595867,34.9624839 C37.9449368,35.8113492 36.818997,36.2907642 35.6424658,36.289726 L35.6424658,36.289726 C34.4659345,36.2907642 33.3399947,35.8113492 32.5253448,34.9624839 C31.7106948,34.1136186 31.2779825,32.9689182 31.3273973,31.7934247 L31.3273973,18.5461644 C31.2779825,17.3706709 31.7106948,16.2259704 32.5253448,15.3771052 C33.3399947,14.5282399 34.4659345,14.0488248 35.6424658,14.049863 L35.6424658,14.049863 Z" id="Shape" fill="#B47945"/>
                    <path d="M50.0547945,34.8743836 C50.0504658,36.3833648 49.4402268,37.8273738 48.3611105,38.8821492 C47.2819941,39.9369246 45.8244407,40.514066 44.3157534,40.4839726 L6.2309589,40.4839726 C4.72295403,40.5117043 3.26676359,39.9337911 2.18816758,38.8795243 C1.10957159,37.8252576 0.498592061,36.3826287 0.491917808,34.8743836 L0.491917808,34.8743836 C0.498592061,33.3661384 1.10957159,31.9235096 2.18816758,30.8692428 C3.26676359,29.814976 4.72295403,29.2370629 6.2309589,29.2647945 L44.350274,29.2647945 C45.8530313,29.2440423 47.3016402,29.8253237 48.3732304,30.8790811 C49.4448206,31.9328386 50.0503276,33.3714896 50.0547945,34.8743836 Z" id="Shape" fill="#E42129"/>
                    <path d="M28.8936986,17.1135616 L26.1665753,1.68287671 C26.3736986,0.198493151 24.2765753,-0.45739726 23.9745205,1.68287671 L21.6789041,18.0283562 L28.8936986,17.1135616 Z" id="Shape" fill="#FBDF89"/>
                    <circle id="Oval" fill="#FFFFFF" cx="25.2863014" cy="30.6973973" r="17.5105479"/>
                    <path d="M39.5346575,30.6456164 C39.5346575,38.5076712 25.2863014,53.5068493 25.2863014,53.5068493 C25.2863014,53.5068493 11.0465753,38.5076712 11.0465753,30.6456164 C11.3137037,22.9741015 17.6101371,16.893099 25.2863014,16.893099 C32.9624657,16.893099 39.258899,22.9741015 39.5260274,30.6456164 L39.5346575,30.6456164 Z" id="Shape" fill="#E42129"/>
                </g>


            </g>
        </g>
    </g>
</svg>
