<svg id="Layer_1" xmlns="http://www.w3.org/2000/svg" viewBox="0 0 280 466"><style>.st0{fill:#21586d}.st1{opacity:.2}.st2{opacity:.13}.st3{fill:none}.st4{fill:#007948}.st5{fill:#019049}.st6{fill:#07a860}.st7{fill:#fff}.st8,.st9{enable-background:new}.st8{fill:#fff;opacity:.1}.st9{opacity:.2}</style><path class="st0" d="M101 285h28v181h-28z"/><path d="M129 285v181h-7.8v-38.3-37.8c0-7.3-.7-7.7-7-11.8-4.4-2.9-8.8-5.8-13.2-8.8v-11.9c6.3-17.3 15.2-41 20.2-54.9V285h7.8z" class="st1"/><path d="M101 359h28v11.3l-28-5.6z" class="st2"/><path d="M164.9 41.3L51.7 399h226.5z" class="st1"/><path class="st3" d="M0 0h230v466H0z"/><path class="st4" d="M228.2 358.8l-224.6-.1L115.2 1.1 171 171.8l2.9 9.4 57.4 174.5z"/><path class="st5" d="M228.2 358.8l-24 .7-13.1.4-10 .2-12.6.4-54.8 1.5-112-3.3L115.2 1.1l53.9 170.7 3 9.4 34.3 108.6 3.2 10.1 4.7 14.9 2.7 8.6 2.6 8.1 2.7 8.6z"/><path class="st6" d="M178.4 201.3L115 264.6l-63.1-63.8 2.7-8.6 60.5 61 60.6-60.5z"/><path class="st6" d="M197.7 262.3L115 344.9l-82.5-83.2 2.8-8.6 79.7 80.5 80-79.9zM62 360.5l-11.6-.4-37.2-37.5 2.7-8.6h.1zM217 323.4l-35.9 36.7-12.6.4 45.8-45.7zM120.4 17.3l-5.2 5.2-5.1-5.2 2.7-8.6 2.4 2.5 2.5-2.5zM139.9 79.1l-24.7 24.7L90.5 79l2.7-8.6 22 22.1 22-22zM159.2 140.2l-44.1 44-43.9-44.3 2.7-8.6 41.2 41.6 41.4-41.3z"/><path class="st6" d="M183.7 218L115 286.6l-68.4-69.1 2.7-8.6 65.7 66.3 66-65.8z"/><path class="st6" d="M203 279l-80.1 83-16-.2-79.7-83.4 2.8-8.7 85 85.9 85.3-85.2zM39.6 359.8l-11.6-.3-20.1-20.2 2.7-8.7.1.1zM222.3 340.1l-18.1 19.4-13.1.4 28.5-28.4z"/><g><path class="st6" d="M125.7 34l-10.5 10.5L104.8 34l2.7-8.6 7.7 7.8 7.7-7.7zM145.2 95.9l-30.1 29.9-29.9-30.2L88 87l27.2 27.5 27.3-27.2zM164.4 156.9l-49.3 49.3-49.2-49.6 2.7-8.7 46.5 47 46.6-46.6z"/></g><g><path class="st7" d="M34.5 287.7c0 5.3-3.8 9.1-9.1 9.1-1.4 0-2.6-.3-3.8-.7l3-9.3h8.9c.5-.1 1 .3 1 .9zM91.6 103.7c0 5.3-3.8 9.1-9.1 9.1-.9 0-1.8-.1-2.6-.4l3.1-9.7h7.7c.5 0 .9.5.9 1zM172.1 181.2c-1.1.4-2.3.7-3.6.7-5.3 0-9.1-3.8-9.1-9.1 0-.5.4-1 1-1h8.7l3 9.4zM54.8 311.7c0 5.3-3.8 9.1-9.1 9.1-3.7 0-6.6-1.9-8.1-4.8-1.5 2.9-4.4 4.7-8.1 4.7s-6.6-1.9-8.1-4.8c-1.4 2.8-4.2 4.6-7.7 4.7l3.2-10.1h36.9c.6.2 1 .7 1 1.2zM209.6 299.9h-.8c-3.7 0-6.6-1.9-8.1-4.8-1.5 2.9-4.4 4.7-8.1 4.7-3.7 0-6.6-1.9-8.1-4.8-1.5 2.9-4.4 4.7-8.1 4.7-5.3 0-9.1-3.8-9.1-9.1 0-.5.4-1 1-1h38.1l3.2 10.3zM94.9 196.7c0 5.3-3.8 9.1-9.1 9.1-3.1 0-5.8-1.4-7.4-3.6-.3-.4-.5-.8-.7-1.2-1.5 2.9-4.4 4.7-8.1 4.7s-6.6-1.9-8.1-4.8c-1.5 2.9-4.4 4.7-8.1 4.7-1.1 0-2.1-.2-3-.5l3-9.6h40.4c.7.2 1.1.7 1.1 1.2zM120.8 55.8c0 5.3-3.8 9.1-9.1 9.1-3.2 0-5.9-1.4-7.5-3.7-.2-.3-.4-.7-.6-1-1.5 2.9-4.4 4.7-8.1 4.7h-.6l3.2-10.1h21.6c.7 0 1.1.4 1.1 1zM171.7 230.8c0-.6-.4-1-1-1h-32.4c-.6 0-1 .4-1 1 0 5.3 3.8 9.1 9.1 9.1 3.7 0 6.6-1.8 8.1-4.7 1.5 2.9 4.4 4.8 8.1 4.8 5.3-.1 9.1-3.9 9.1-9.2z"/></g><g><path class="st8" d="M115.2 1.1v21.3l-.1 10.7v11.2l-.2 47.9v11.4l-.1 10.6v11.3l-.2 46.9v11.3l-.1 10.6v11.3l-.2 46.9v22l-.1 11.3-.2 46.8v22l-.1 7.3-7.1-.2-44.8-1.2-11.6-.4-10.8-.3-11.6-.3-26.3-.7 6.2-19.5 2.8-8.6 2.5-8.1L16 314l11.3-35.6 2.7-8.6 2.5-8.1 2.8-8.6 11.3-35.6 2.7-8.6 2.6-8.1 2.7-8.6 11.3-35.6 2.7-8.6 2.6-8.1 2.7-8.6 11.3-35.7L88 87l2.5-8 2.8-8.6L104.8 34l2.7-8.6 2.6-8.1 2.7-8.6z"/></g><path class="st0" d="M77.5 466c0-10.2 8.3-18.5 18.5-18.5s18.5 8.3 18.5 18.5"/><path class="st0" d="M68.3 466c0-2.8 4.5-5.1 10-5.1s10 2.3 10 5.1"/><path class="st9" d="M103.7 466c0-4.8 3.9-8.7 8.7-8.7s8.7 3.9 8.7 8.7"/><path class="st0" d="M111.7 466c0-7.8 6.3-14.2 14.2-14.2 7.8 0 14.2 6.3 14.2 14.2"/><path class="st9" d="M128.5 457.1c2.3 2.3 4.1 5.6 4.9 8.9h6.7c0-7.8-6.3-14.2-14.2-14.2-1.7 0-3.4.3-4.9.9 2.8 1 5.4 2.3 7.5 4.4z"/><path class="st0" d="M133 466c0-3.9 3.2-7.1 7.1-7.1 3.9 0 7.1 3.2 7.1 7.1"/><path class="st9" d="M133 466c0-3.9 3.2-7.1 7.1-7.1 3.9 0 7.1 3.2 7.1 7.1"/></svg>