<svg id="Layer_1" xmlns="http://www.w3.org/2000/svg" viewBox="0 0 106 112"><style>.st0{opacity:.2;fill:#231f20;enable-background:new}.st1{fill:#999}.st2{fill:#607d8b}</style><path class="st0" d="M31 11v16h7.8v2h.2v18h-.2v2h.2v18h-.2v2h.2v18h-.2v2h.2v18h-.2v2h.2v3h38V27h8V11z"/><path class="st1" d="M55 1H1v16h8v95h38V17h8z"/><path class="st2" d="M8.8 37H47v2H8.8zM8.8 17H47v2H8.8zM8.8 57H47v2H8.8zM8.8 77H47v2H8.8zM8.8 97H47v2H8.8zM26.3 1h2v15.8h-2z"/><path class="st0" d="M47 35L9 25v-8h38z"/></svg>