<svg id="Layer_1" xmlns="http://www.w3.org/2000/svg" viewBox="0 0 115 112"><style>.st0{opacity:.2;fill:#231f20;enable-background:new}.st1{fill:#78909c}.st2{opacity:.1}.st3{fill:#231f20}.st4{fill:#fff}</style><path class="st0" d="M62.1 11.4L30.9 29v62h.1c0 5 4.1 9.1 9.1 9.1.7 0 1.3-.1 1.9-.2V112h3V98.6c.7-.5 1.3-1 1.9-1.6l12.6 12.4L47 112h30.3l-12.6-2.6L79 95.2V112h4V91.4l.1-.4H94V29L62.1 11.4zM55.3 100c.3 0 .6.1.9.1 1.3 0 2.6-.3 3.7-.8v5.6l-4.6-4.9zm8.7 4.9v-9.2c.9-1.4 1.4-3 1.4-4.7h12.4L64 104.9z"/><path class="st1" d="M.9 81h10.6l.6.4V112h3V85.2l14.4 14.3L17 112h5.3l7.6-8v8h4v-8l8.1 8h5.3L34.8 99.4 49 85.2V112h4V81.4l.1-.4H64V19L32.1 1.4.9 19v62zM34 81h13.8L34 94.9V81zm-4 0v13.9L16.7 81H30z"/><g class="st2"><path class="st3" d="M12 112h3V85.2l14.4 14.2L17 112h5.4l7.6-8v8h4v-8l8.1 8h5.4L34.8 99.4 49 85.2V112h4V81.4l.1-.4h-5.3L34 94.9V81h-4v13.9L16.7 81h-5.3l.6.4z"/></g><g class="st2"><path class="st3" d="M39 19L32.1 1.4 64 19v62H39z"/></g><path class="st4" d="M34.4 80H2c-.6 0-1 .4-1 1 0 5 4.1 9.1 9.1 9.1 3.5 0 6.6-2 8.1-5 1.5 2.9 4.6 5 8.1 5 5 0 9.1-4.1 9.1-9.1 0-.6-.5-1-1-1z"/></svg>