<svg id="Layer_1" xmlns="http://www.w3.org/2000/svg" xmlns:xlink="http://www.w3.org/1999/xlink" viewBox="0 0 190 268"><style>.st0{fill:#21586d}.st1{enable-background:new}.st1,.st2{opacity:.2}.st3{fill:#007948}.st4{fill:#019049}.st5{clip-path:url(#SVGID_2_)}.st6{fill:#07a860}.st7{clip-path:url(#SVGID_4_)}.st8{clip-path:url(#SVGID_6_)}.st9{clip-path:url(#SVGID_8_)}.st10{clip-path:url(#SVGID_10_)}.st11{clip-path:url(#SVGID_12_)}.st12{opacity:.1;fill:#fff;enable-background:new}.st13{fill:#fdce48}.st14{fill:#f4c236}.st15{fill:#d439c7}.st16{fill:#ffec00}.st17{fill:#f87a57}.st18{fill:#00c0ff}.st19{fill:#fff}</style><path class="st0" d="M62 198h16v70H62z"/><path class="st1" d="M62 243h16v25h-4.9v-16.4L62 246.5z"/><path class="st0" d="M49.8 268c0-2.7 2.2-5 5-5 2.7 0 5 2.2 5 5"/><path class="st1" d="M49.8 268c0-2.7 2.2-5 5-5 2.7 0 5 2.2 5 5"/><path class="st0" d="M54.4 268c0-4.5 3.6-8.1 8.1-8.1s8.1 3.6 8.1 8.1"/><path class="st1" d="M64 262.9c1.3 1.3 2.3 3.2 2.8 5.1h3.8c0-4.5-3.6-8.1-8.1-8.1-1 0-1.9.2-2.8.5 1.6.6 3.1 1.3 4.3 2.5z"/><path class="st0" d="M66.5 268c0-2.2 1.8-4 4-4s4 1.8 4 4"/><path class="st1" d="M66.5 268c0-2.2 1.8-4 4-4s4 1.8 4 4"/><path class="st0" d="M74.2 268c0-5.9 4.8-10.7 10.7-10.7s10.7 4.8 10.7 10.7"/><path class="st1" d="M86.8 261.3c1.7 1.8 3.1 4.2 3.7 6.7h5c0-5.9-4.8-10.7-10.7-10.7-1.3 0-2.5.2-3.7.7 2.2.7 4.2 1.7 5.7 3.3z"/><path d="M184.6 268H56.3l12.9-41 51.2-161.8L171.6 227z" class="st2"/><path class="st0" d="M90.2 268c0-3 2.4-5.4 5.4-5.4s5.4 2.4 5.4 5.4"/><path class="st3" d="M70.2 25.3L1.3 243h142.8z"/><path class="st4" d="M70.2 25.3L1.3 243h137.9z"/><defs><path id="SVGID_1_" d="M70.2 25.3L1.3 243h137.9z"/></defs><clipPath id="SVGID_2_"><use xlink:href="#SVGID_1_" overflow="visible"/></clipPath><g class="st5"><path class="st6" d="M70.2 148.5L-5 73.2l3.4-3.3 71.8 71.9 71.9-71.9 3.4 3.3z"/></g><defs><path id="SVGID_3_" d="M70.2 25.3L1.3 243h137.9z"/></defs><clipPath id="SVGID_4_"><use xlink:href="#SVGID_3_" overflow="visible"/></clipPath><g class="st7"><path class="st6" d="M70.2 197.4L-5 122.2l3.4-3.4 71.8 71.9 71.9-71.9 3.4 3.4z"/></g><defs><path id="SVGID_5_" d="M70.2 25.3L1.3 243h137.9z"/></defs><clipPath id="SVGID_6_"><use xlink:href="#SVGID_5_" overflow="visible"/></clipPath><g class="st8"><path class="st6" d="M70.2 246.3L-5 171.1l3.4-3.4 71.8 71.9 71.9-71.9 3.4 3.4z"/></g><defs><path id="SVGID_7_" d="M70.2 25.3L1.3 243h137.9z"/></defs><clipPath id="SVGID_8_"><use xlink:href="#SVGID_7_" overflow="visible"/></clipPath><g class="st9"><path class="st6" d="M70.2 1.7L-5-73.5l3.4-3.4L70.2-5l71.9-71.9 3.4 3.4z"/></g><defs><path id="SVGID_9_" d="M70.2 25.3L1.3 243h137.9z"/></defs><clipPath id="SVGID_10_"><use xlink:href="#SVGID_9_" overflow="visible"/></clipPath><g class="st10"><path class="st6" d="M70.2 50.6L-5-24.6l3.4-3.4 71.8 71.9L142.1-28l3.4 3.4z"/></g><defs><path id="SVGID_11_" d="M70.2 25.3L1.3 243h137.9z"/></defs><clipPath id="SVGID_12_"><use xlink:href="#SVGID_11_" overflow="visible"/></clipPath><g class="st11"><path class="st6" d="M70.2 99.5L-5 24.3l3.4-3.3 71.8 71.8L142.1 21l3.4 3.3z"/></g><path class="st12" d="M70 25.3V243H1.3z"/><path class="st13" d="M70.2 2.9l3.7 7.3 8.1 1.2-5.9 5.7 1.4 8.1-7.3-3.8-7.2 3.8 1.4-8.1-5.9-5.7 8.1-1.2z"/><path class="st13" d="M77.5 25.6h-.2l-7.1-3.7-7.1 3.7c-.1.1-.3.1-.4 0s-.2-.2-.2-.4l1.4-7.9-5.7-5.6c-.1-.1-.1-.3-.1-.4s.2-.2.3-.3l7.9-1.2 3.5-7.2c.1-.3.6-.3.7 0L74 9.8l8 1.2c.1 0 .3.1.3.3s0 .3-.1.4l-5.7 5.6 1.4 7.9c0 .1 0 .3-.2.4h-.2zM59.3 11.7l5.3 5.2c.1.1.1.2.1.3l-1.3 7.3 6.5-3.4c.1-.1.3-.1.4 0l6.5 3.4-1.3-7.3c0-.1 0-.3.1-.3l5.3-5.2-7.3-1.1c-.1 0-.2-.1-.3-.2L70 3.8l-3.3 6.6c-.1.1-.2.2-.3.2l-7.1 1.1z"/><path class="st13" d="M70.2 20.9L67.7 34h5.1z"/><path class="st13" d="M72.8 34h-5.1c-.1 0-.3-.1-.4-.2-.1-.1-.1-.3-.1-.4l2.5-13.1c0-.2.3-.4.5-.4s.4.2.5.4l2.5 13.1c0 .1 0 .3-.1.4 0 .1-.2.2-.3.2zm-4.5-1h3.9l-1.9-10-2 10z"/><path class="st14" d="M85.3 237c-.8 0-1.5-.6-1.5-1.5 0-.8.7-1.5 1.5-1.5s1.5.6 1.5 1.5-.6 1.5-1.5 1.5zm3.3-1.5c-.1-.8.5-1.6 1.3-1.6.8-.1 1.6.5 1.6 1.4.1.8-.5 1.5-1.4 1.6H90c-.7 0-1.4-.6-1.4-1.4zm-8.1 1.3c-.8-.1-1.4-.8-1.4-1.6.1-.8.8-1.4 1.6-1.4.8.1 1.4.8 1.4 1.6-.1.8-.7 1.4-1.5 1.4 0 .1-.1.1-.1 0zm-4.8-.6c-.8-.1-1.4-.9-1.2-1.7.1-.8.9-1.4 1.7-1.2.8.1 1.4.9 1.2 1.7-.1.7-.8 1.3-1.5 1.3-.1 0-.2-.1-.2-.1zm17.6-1.2c-.1-.8.4-1.6 1.2-1.7.8-.1 1.6.4 1.7 1.2.1.8-.4 1.6-1.2 1.7h-.3c-.7 0-1.3-.5-1.4-1.2zm-22.4.3c-.8-.2-1.3-1-1.1-1.8.2-.8 1-1.3 1.8-1.1.8.2 1.3 1 1.1 1.8-.2.7-.8 1.2-1.5 1.2-.1-.1-.2-.1-.3-.1zm27-1.2c-.2-.8.3-1.6 1.1-1.8.8-.2 1.6.3 1.8 1.1.2.8-.3 1.6-1.1 1.8h-.3c-.7.1-1.3-.4-1.5-1.1zm-31.7 0c-.8-.2-1.3-1.1-1-1.9.2-.8 1.1-1.2 1.9-1 .8.2 1.2 1.1 1 1.9-.2.7-.8 1.1-1.4 1.1-.2 0-.3-.1-.5-.1zm36.4-1.1c-.2-.8.2-1.6 1-1.8.8-.2 1.6.2 1.9 1 .2.8-.2 1.6-1.1 1.8h-.4c-.6.1-1.2-.3-1.4-1zm4.5-1.2c-.2-.8.2-1.6 1-1.9.8-.3 1.6.2 1.9 1 .2.8-.2 1.6-1 1.9-.2 0-.3.1-.5.1-.6-.1-1.2-.5-1.4-1.1zm-45.5.8c-.8-.3-1.2-1.1-.9-1.9.3-.8 1.1-1.2 1.9-.9.8.3 1.2 1.1.9 1.9-.2.6-.8 1-1.4 1-.1 0-.3 0-.5-.1zm50-2.4c-.3-.8.1-1.6.9-1.9.8-.3 1.6.1 1.9.9.3.8-.1 1.6-.9 1.9-.2.1-.4.1-.5.1-.6 0-1.2-.4-1.4-1zm-54.5.7c-.8-.3-1.1-1.2-.8-2 .3-.8 1.2-1.1 2-.8.8.3 1.1 1.2.8 2-.2.6-.8.9-1.4.9-.2 0-.4 0-.6-.1zm58.9-2.4c-.3-.8 0-1.7.8-2 .8-.3 1.6 0 2 .8.3.8 0 1.6-.8 2-.2.1-.4.1-.6.1-.6 0-1.1-.3-1.4-.9zm-63.3.5c-.8-.4-1.1-1.2-.7-2 .4-.8 1.2-1.1 2-.7.8.4 1.1 1.2.7 2-.3.5-.8.9-1.4.9-.2-.1-.4-.1-.6-.2zm67.7-2.4c-.4-.7-.1-1.6.7-2 .7-.4 1.6-.1 2 .7.4.7.1 1.6-.7 2-.2.1-.4.1-.7.1-.5 0-1.1-.3-1.3-.8zm-72 .2c-.7-.4-1-1.3-.6-2s1.3-1 2-.6 1 1.3.6 2c-.3.5-.8.8-1.3.8-.2 0-.5 0-.7-.2zm76.2-2.3c-.4-.7-.2-1.6.6-2 .7-.4 1.6-.2 2 .6.4.7.1 1.6-.6 2-.2.1-.5.2-.7.2-.5-.1-1-.4-1.3-.8zm-80.4-.1c-.7-.4-.9-1.3-.5-2.1.4-.7 1.4-.9 2.1-.5.7.4.9 1.3.5 2.1-.3.5-.8.7-1.3.7-.3.1-.5 0-.8-.2zm84.5-2.3c-.5-.7-.3-1.6.4-2.1s1.6-.3 2.1.4.3 1.6-.4 2.1c-.2.2-.5.2-.8.2-.5.1-1-.2-1.3-.6zm-88.5-.3c-.7-.5-.9-1.4-.4-2.1.5-.7 1.4-.9 2.1-.4.7.5.9 1.4.4 2.1-.3.4-.8.7-1.2.7-.4 0-.7-.1-.9-.3zm-3.9-2.8c-.7-.5-.8-1.5-.3-2.1.5-.7 1.5-.8 2.1-.3.6.5.8 1.5.3 2.1-.3.4-.7.6-1.2.6-.3 0-.7-.1-.9-.3zm-3.7-3.1c-.6-.5-.7-1.5-.1-2.1.6-.6 1.5-.7 2.1-.1.6.5.7 1.5.1 2.1-.3.3-.7.5-1.1.5-.4-.1-.8-.2-1-.4zm-3.6-3.4c-.6-.6-.6-1.5 0-2.1.6-.6 1.6-.6 2.1 0 .6.6.6 1.5 0 2.1-.3.3-.7.4-1 .4-.4.1-.8-.1-1.1-.4zm23.8-3.8c0-.8.6-1.5 1.4-1.5.8 0 1.5.5 1.6 1.3 0 .8-.6 1.5-1.4 1.5-.9 0-1.5-.5-1.6-1.3zm-3.3 1.3c-.8 0-1.5-.6-1.4-1.5 0-.8.8-1.4 1.6-1.4s1.5.7 1.4 1.5c0 .9-.7 1.4-1.6 1.4.1 0 0 0 0 0zm8.1-1.5c-.1-.8.5-1.6 1.3-1.7.8-.1 1.6.5 1.7 1.3.1.8-.5 1.6-1.3 1.7h-.2c-.8.1-1.4-.5-1.5-1.3zm-13 1.2c-.8-.1-1.4-.9-1.2-1.7.1-.8.9-1.4 1.7-1.2.8.1 1.4.9 1.2 1.7-.1.7-.8 1.2-1.5 1.2h-.2zm-18.8-.8c-.5-.6-.5-1.6.2-2.1.6-.5 1.6-.4 2.1.2.5.6.5 1.6-.2 2.1-.3.2-.6.3-1 .3-.4.1-.8-.1-1.1-.5zm36.5-1.1c-.2-.8.3-1.6 1.1-1.8.8-.2 1.6.3 1.8 1.1.2.8-.3 1.6-1.1 1.8h-.3c-.8.1-1.4-.4-1.5-1.1zm-22.3.8c0-.2-1.3-1.1-1.1-1.9.2-.8 1-1.3 1.8-1 .8.2 1.2 1.1 1 1.9-.2.7-.7 1.1-1.4 1.1-.1-.1-.3-.1-.3-.1zm26.9-1.9c-.2-.8.2-1.6 1-1.9.8-.2 1.6.2 1.9 1 .2.8-.2 1.6-1 1.9-.1 0-.3.1-.4.1-.7 0-1.3-.4-1.5-1.1zm-31.7.2c-.8-.3-1.1-1.2-.8-2 .3-.8 1.2-1.1 2-.8.8.3 1.1 1.2.8 2-.2.6-.8.9-1.4.9-.2 0-.4 0-.6-.1zm36.2-1.6c-.3-.8.1-1.6.9-1.9.8-.3 1.6.1 1.9.8.3.8-.1 1.6-.9 1.9-.2.1-.4.1-.5.1-.6 0-1.2-.3-1.4-.9zm-48.6-.2c-.5-.7-.3-1.6.4-2.1s1.6-.3 2.1.4.3 1.6-.4 2.1c-.3.2-.6.3-.9.3-.4-.1-.9-.3-1.2-.7zm8.2-.3c0-.4-1.1-1.3-.7-2 .4-.7 1.3-1 2-.6s1 1.3.5 2.1c-.3.5-.7.8-1.2.8-.2-.1-.6-.2-.6-.3zm44.8-1.3c-.4-.8 0-1.6.7-2 .8-.4 1.6 0 2 .7.4.8 0 1.6-.7 2-.2.1-.4.1-.6.1-.6.1-1.2-.3-1.4-.8zm-49.1-1.4c-.7-.5-.8-1.4-.3-2.1.5-.7 1.4-.8 2.1-.3.7.5.8 1.4.3 2.1-.3.4-.8.6-1.2.6-.3 0-.6-.1-.9-.3zm53.3-.7c-.4-.7-.1-1.6.6-2 .7-.4 1.6-.1 2 .6.4.7.4 1.6-.6 2 0 .1-.4.2-.7.2-.5 0-1-.3-1.3-.8zm-59.8-.4c-.4-.7-.1-1.6.6-2.1.7-.4 1.6-.1 2 .6.4.7.1 1.6-.6 2-.2.1-.5.2-.7.2-.5 0-1-.3-1.3-.7zm64.2-1.9c-.4-.7-.4-1.6.6-2.1 0-.4 1.4-.2 1.9.5.4.7.1 1.6-.5 2.1-.2.2-.5.2-.8.2-.5-.1-1-.3-1.2-.7zm-61.5-.1c-.6 0-.7-1.5-.1-2.1.6-.6 1.5-.7 2.1-.1.6.5.7 1.5.1 2.1-.3.3-.7.5-1.1.5-.4 0-.7-.4-1-.4zm-4.9-2.4c-.3-.8 0-1.6.8-2 .1 0 .1-.1.2-.1 0-.4.2-.8.5-1 .6-.6 1.5-.5 2.1.1.6.6.5 1.6-.1 2.1-.2.2-.4.3-.6.3 0 .6-.3 1.1-.9 1.3-.2.1-.4.1-.6.1-.6.1-1.1-.3-1.4-.8zm70.1-.2c-.5-.7-.4-1.6.3-2.1s1.6-.3 2.1.3c.5.7.4 1.6-.3 2.1-.3.2-.6.3-.9.3-.4 0-.9-.2-1.2-.6zm3.8-2.8c-.5-.6-.5-1.6.2-2.1.6-.5 1.6-.5 2.1.2.5.6.5 1.6-.2 2.1-.3.2-.6.4-1 .4-.4-.1-.8-.3-1.1-.6zM16.3 192c-.2-.8.2-1.6 1-1.9.8-.2 1.6.2 1.9 1 .2.8-.2 1.6-1 1.9-.1 0-.3.1-.4.1-.7-.1-1.3-.5-1.5-1.1zm79.2-1.5c-.6-.6-.6-1.5 0-2.1.6-.6 1.5-.6 2.1 0 .6.6.5 1.5 0 2.1-.3.3-.7.4-1 .4-.4.1-.8-.1-1.1-.4zm3.4-3.3c-.6-.5-.7-1.5-.1-2.1.6-.6 1.5-.7 2.1-.1.6.6.7 1.5.1 2.1-.3.3-.7.5-1.1.5-.4 0-.7-.2-1-.4zm3.1-3.6c-.7-.5-.8-1.5-.2-2.1.5-.6 1.4-.8 2.1-.2.7.5.8 1.4.3 2.1-.3.4-.7.6-1.2.6-.4 0-.7-.2-1-.4zm2.7-3.7c-.7-.5-.7-1.4-.7-2.1 1-.7 1.6-.9 2.3-.4.7.4 1 1.4.5 2.1-.3.4-.8.7-1.3.7-.2-.1-.6-.2-.8-.3zm-25.2-4.6c0-.8.6-1.5 1.4-1.6.8-.1 1.5.6 1.6 1.4.1.8-.6 1.5-1.4 1.6H81c-.8 0-1.5-.6-1.5-1.4zm-3.4 1.4c-.8-.1-1.4-.8-1.4-1.6.1-.8.8-1.4 1.6-1.3.8.1 1.4.8 1.4 1.6-.1.8-.7 1.4-1.6 1.3.1 0 0 0 0 0zm8.1-1.8c-.2-.8.3-1.6 1.1-1.8.8-.2 1.6.3 1.8 1.2.2.8-.3 1.6-1.2 1.8h-.3c-.6 0-1.3-.5-1.4-1.2zm23.3 1c-.7-.4-1-1.3-.6-2s1.3-1 2-.6 1 1.3.6 2c-.3.5-.8.8-1.3.8-.3-.1-.5-.1-.7-.2zm-36.3-.2c-.8-.2-1.3-1.1-1-1.8.2-.8 1.1-1.3 1.9-1 .8.2 1.3 1 1 1.8-.2.7-.8 1.1-1.4 1.1-.2 0-.4 0-.5-.1zm17.7-1.9c-.3-.8.1-1.6 1.1-1.9 0-.3 1.5.1 1.8.9.3.8-.2 1.6-1 1.9-.2.1-.3.1-.4.1-.7 0-1.3-.4-1.5-1zm-22.4.2c-.8-.4-1.1-1.2-.7-2 .4-.8 1.2-1.1 2-.7.8.3 1.1 1.2.7 2-.2.5-.8.9-1.4.9-.1-.1-.4-.1-.6-.2zm26.7-1.9c-.4-.8 0-1.6.7-2 .8-.3 1.7 0 2 .7.3.8 0 1.6-.7 2-.2.1-.4.1-.6.1-.6.1-1.1-.2-1.4-.8zm-31-.6c-.7-.5-.9-1.4-.4-2.1.5-.7 1.4-.9 2.1-.4.7.5.9 1.4.4 2.1-.3.4-.8.7-1.2.7-.3 0-.6-.1-.9-.3zm47.4.2c-.8-.3-1.1-1.2-.8-2 .3-.8 1.2-1 1.9-.7.8.3 1.1 1 .8 2-.2 0-.8.9-1.4.9-.1 0-.3-.2-.5-.2zm-12.1-1.6c-.4-.7-.2-1.6.6-2 .7-.4 1.6-.2 2 .6.4.7.2 1.6-.6 2-.2.1-.5.2-.7.2-.5-.1-1-.3-1.3-.8zm-39.1-1.6c-.6-.6-.7-1.5-.1-2.1.6-.6 1.5-.7 2.1-.1.6.5.7 1.5.1 2.1-.3.3-.7.5-1.1.5-.4 0-.8-.2-1-.4zm43.2-.8c-.5-.7-.3-1.6.4-2.1s1.6-.3 2.1.4.3 1.6-.4 2.1c-.3.2-.5.2-.8.2-.5.1-1-.2-1.3-.6zm9.7-.5c-.8-.2-1.3-1-1.1-1.8.2-.8 1-1.3 1.8-1.1.8.2 1.3 1 1.1 1.8-.2.7-.8 1.1-1.5 1.1 0 .1-.1.1-.3 0zm-5.8-2.2c-.5-.7-.4-1.6.3-2.1s1.6-.4 2.1.3.4 1.6-.3 2.1c-.3.2-.6.3-.9.3-.4 0-.9-.2-1.2-.6zm-50.6 0c-.6-.6-.5-1.6.1-2.1s1.6-.5 2.1.1.5 1.6-.1 2.1c-.3.3-.6.4-1 .4s-.8-.2-1.1-.5zm54.4-2.8c-.5-.6-.4-1.6.2-2.1.6-.5 1.4-.5 2 .1.3-.3.8-.5 1.2-.5.8.1 1.4.8 1.3 1.6-.1.8-.8 1.4-1.6 1.4-.3 0-.6-.2-.9-.4 0 .1-.1.1-.1.1-.3.2-.6.3-1 .3s-.8-.2-1.1-.5zm-57.5-1c-.5-.7-.5-1.6.2-2.1s2-.4 2 .3.5 1.6-.2 2.1c-.3.2-.5.3-.8.3-.5 0-.9-.2-1.2-.6zm-2.8-4c-.4-.7-.2-1.6.5-2.1.7-.4 1.6-.2 2.1.5.4.7.2 1.6-.5 2.1-.2.1-.5.2-.8.2-.5 0-1-.2-1.3-.7zm-2.4-4.2c-.4-.7-.1-1.6.6-2 .7-.4 1.6-.1 2 .6.4.7.1 1.6-.6 2-.2.1-.5.2-.7.2-.5 0-1-.3-1.3-.8zm-2.2-4.2c-.3-.8 0-1.7.7-2 .8-.4 1.6 0 2 .7.4.8 0 1.6-.7 2-.2.1-.4.1-.6.1-.6 0-1.1-.3-1.4-.8zm19.3-5c0-.8.6-1.4 1.4-1.4v.1c.8 0 1.5.4 1.5 1.2 0 .8-.6 1.3-1.5 1.3H65c-.6 0-1.3-.4-1.3-1.2zm-21.3.5c-.3-.8.1-1.6.8-2 .8-.3 1.6 0 2 .8.3.8 0 1.6-.8 2-.2.1-.4.1-.6.1-.6.1-1.1-.3-1.4-.9zm17.8.8c-.8-.1-1.3-.9-1.2-1.7.1-.8.9-1.4 1.7-1.2.8.2 1.4.9 1.2 1.7-.1.7-.8 1.2-1.5 1.2h-.2zm8.2-1.4c-.2-.8.3-1.6 1.1-1.8.8-.2 1.6.3 1.8 1.1.2.8-.3 1.6-1.1 1.8h-.3c-.7.1-1.3-.4-1.5-1.1zm-13 .1c-.8-.3-1.2-1.2-.9-1.9.3-.8 1.2-1.2 1.9-.9.8.3 1.2 1.2.9 1.9-.2.6-.8 1-1.4 1-.2-.1-.4-.1-.5-.1zm17.6-1.3c-.3-.8 0-1.6.8-2 .8-.3 1.6 0 2 .7.3.8 0 1.7-.8 2-.2.1-.4.1-.6.1-.6 0-1.2-.3-1.4-.8zm-22-.9c0-.4-1-1.3-.6-2.1.4-.7 1.3-.9 2-.5s.9 1.4.5 2.1c-.3.5-.7.7-1.2.7-.2 0-.7-.1-.7-.2zm26.2-1.2c-.5-.7-.3-1.6.4-2.1s1.6-.3 2.1.4.3 1.6-.4 2.1c-.3.2-.6.3-.9.3-.4-.1-.9-.3-1.2-.7zm-36.5-.6c-.3-.8.1-1.6.9-1.9.8-.3 1.6.1 1.9.9.3.8-.1 1.6-.9 1.9-.2.1-.4.1-.5.1-.6 0-1.2-.3-1.4-1zm6.2-1.1c-.6-.5-.7-1.5-.2-2.1.5-.6 1.5-.7 2.1-.2.6.5.7 1.5.2 2.1-.3.4-.7.5-1.2.5-.3 0-.7-.1-.9-.3zm34.1-1.1c-.6-.6-.5-1.5.1-2.1.6-.6 1.5-.5 2.1.1.6.6.6 1.5 0 2.1-.3.3-.7.4-1 .4-.5-.1-.8-.2-1.2-.5zm-41.9-2.3c-.2-.8.2-1.6 1-1.9.8-.2 1.6.2 1.9 1 .2.8-.2 1.6-1 1.9-.1 0-.3.1-.4.1-.7-.1-1.2-.5-1.5-1.1zm4.1 0c-.6-.6-.5-1.5.1-2.1.6-.6 1.5-.5 2.1.1.6.6.5 1.5-.1 2.1-.3.3-.7.4-1 .4-.4 0-.8-.2-1.1-.5zm41.2-1.1c-.6-.5-.8-1.4-.2-2.1.5-.7 1.5-.8 2.1-.2.6.5.8 1.5.2 2.1-.3.4-.7.6-1.2.6-.3-.1-.6-.2-.9-.4zm-44.3-2.6c-.2 0-.3.1-.5.1-.8.2-1.6-.3-1.8-1.1-.2-.8.3-1.6 1-1.8.6-.2 1.3.1 1.6.6.7-.4 1.5-.3 2 .4s.4 1.6-.3 2.1c-.3.2-.6.3-.9.3-.4 0-.8-.2-1.1-.6zm47.1-1.2c-.7-.4-1-1.3-.5-2.1.4-.7 1.4-.9 2.1-.5.7.4 1 1.4.5 2.1-.3.5-.8.7-1.3.7-.3 0-.5-.1-.8-.2zm-49.9-2.8c-.4-.7-.2-1.6.5-2.1.7-.4 1.1-.2 2.1.5 0 .7.2 1.6-.5 2.1-.2.2-.6.2-.8.2-.5 0-1-.3-1.3-.7zm52.3-1.3c-.8-.3-1.1-1.2-.8-2 .3-.8 1.2-1.1 2-.8.8.3 1.1 1.2.8 2-.2.6-.8.9-1.4.9-.2 0-.4 0-.6-.1zm1.8-4.4c-.8-.3-1.2-1.1-1-1.9.2-.8 1.1-1.2 1.9-1 .8.3 1.2 1.1 1 1.9-.2.6-.8 1-1.4 1-.2.1-.3.1-.5 0zm1.4-4.5c-.8-.2-1.3-1-1.1-1.8.2-.8 1-1.3 1.8-1.1.8.2 1.3 1 1.1 1.8-.2.7-.8 1.2-1.5 1.2-.1-.1-.2-.1-.3-.1zM75.9 116c-.8 0-1.5-.9-1.5-1.7.1-.8.5-1.5 1.5-1.5 0 .1 1.5.9 1.5 1.7-.1.8-.6 1.5-1.5 1.5.1 0 .1 0 0 0zm3.4-1.8c-.3-.8.2-1.6 1-1.9.8-.2 1.6.2 1.9 1 .3.8-.2 1.6-1 1.9-.1 0-.3.1-.5.1-.6-.1-1.2-.5-1.4-1.1zm-8.4.3c-.8-.3-1.1-1.2-.7-2 .4-.8 1.2-1.1 2-.7.8.3 1.1 1.2.7 2-.3.5-.8.9-1.4.9-.2-.1-.4-.1-.6-.2zm12.8-2.1c-.5-.7-.3-1.6.4-2.1s1.6-.3 2.1.4.3 1.6-.4 2.1c-.3.2-.5.3-.8.3-.5 0-1-.2-1.3-.7zm10 .3c-.8-.1-1.4-.9-1.3-1.7.1-.8.9-1.4 1.7-1.3.8.1 1.4.9 1.3 1.7-.1.8-.7 1.3-1.5 1.3 0 .1-.1 0-.2 0zm-27.1-1c-.6-.5-.7-1.5-.2-2.1.5-.6 1.5-.7 2.1-.2.6.5.7 1.5.2 2.1-.3.4-.7.5-1.2.5-.3.1-.6-.1-.9-.3zm20.9-2.1c-.6-.6-.6-1.5 0-2.1.6-.6 1.5-.6 2.1 0 .6.6.6 1.5 0 2.1-.3.3-.7.4-1 .4-.4.1-.8-.1-1.1-.4zM63 108.2c-.5-.6-.5-1.6.1-2.1s1.6-.5 2.1.2c.5.6.5 1.6-.1 2.1-.3.2-.6.4-1 .4-.4-.1-.8-.2-1.1-.6zm31.3-.2c-.8 0-1.5-.7-1.4-1.6 0-.2.1-.4.2-.6l-.1.1c-.5.7-1.5.8-2.1.2-.6-.5-.7-1.5-.2-2.1.5-.6 1.5-.7 2.1-.2.6.5.7 1.2.4 1.8.3-.4.8-.7 1.3-.7.8 0 1.5.7 1.4 1.6-.1.9-.8 1.5-1.6 1.5zM60 104.3c-.5-.7-.3-1.6.4-2.1s1.6-.3 2.1.4.3 1.6-.4 2.1c-.3.2-.5.3-.9.3s-.9-.2-1.2-.7zm32.9-2.6c0-.8.6-1.4 1.5-1.5.8 0 1.5.5 1.5 1.4 0 .8-.6 1.4-1.5 1.4-.8 0-1.5-.5-1.5-1.3zm-35.5-1.5c-.4-.7-.2-1.6.6-2 .7-.4 1.6-.2 2 .5.4.7.2 1.6-.5 2-.2.1-.5.2-.8.2-.5.1-1-.2-1.3-.7zm-2.3-4.3c-.4-.7 0-1.6.8-2 .7-.4 1.1-.1 2.1.7 0 .7 0 1.7-.8 2-.2.1-.5.2-.7.2-.5 0-1.1-.3-1.4-.9zm-2-4.3c-.3-.8.1-1.6.8-2 .8-.3 2 0 2 .8s-.1 1.6-.8 2c-.2.1-.4.1-.6.1-.6 0-1.1-.4-1.4-.9zm7.8-5c0-.8.6-1.5 1.5-1.5.8 0 1.5.6 1.5 1.4 0 .8-.6 1.5-1.5 1.5-.8 0-1.5-.6-1.5-1.4zm-9.6.5c-.3-.7 0-1.5.7-1.8-.2-.4-.3-.9-.1-1.4.4-.8 1.2-1.1 2-.7.8.4 1.1 1.2.7 2-.1.3-.4.5-.6.7 0 .1.1.1.1.2.3.8-.1 1.6-.9 1.9-.2.1-.4.1-.5.1-.6-.1-1.2-.4-1.4-1zm6.1.5c-.8-.2-1.3-1-1.1-1.8.2-.8 1-1.3 1.8-1.1.8.2 1.3 1 1.1 1.8-.2.7-.8 1.1-1.4 1.1h-.4zm8.2-1.3c-.3-.8.1-1.6.9-1.9.8-.3 1.6.1 1.9.9.3.8-.1 1.6-.9 1.9-.2.1-.4.1-.5.1-.6 0-1.1-.4-1.4-1zm4.4-1.9c-.5-.7-.4-1.6.2-2.1.6-.5 1.6-.4 2.1.2.5.7.4 1.6-.3 2.1-.3.2-.6.3-.9.3-.4.1-.8-.1-1.1-.5zm3.5-3.1c-.6-.5-.8-1.5-.3-2.1.5-.7 1.4-.8 2.1-.3.6.5.8 1.5.3 2.1-.3.4-.7.6-1.2.6-.3 0-.6-.1-.9-.3zm2.8-3.8c-.7-.4-1-1.3-.6-2s1.3-1 2-.6 1 1.3.6 2c-.3.5-.8.8-1.3.8-.2-.1-.5-.1-.7-.2zm2.1-4.3c-.8-.3-1.2-1.1-.9-1.9.3-.8 1.1-1.2 1.9-.9.8.3 1.2 1.1.9 1.9-.2.6-.8 1-1.4 1-.1 0-.3 0-.5-.1zm1.5-4.5c-.8-.2-1.3-1-1.1-1.8.2-.8 1-1.3 1.8-1.1.8.2 1.3 1 1.1 1.8-.2.7-.8 1.2-1.5 1.2 0 0-.2-.1-.3-.1zM73 63.1c0-.8.6-1.5 1.4-1.6.8 0 1.5.6 1.6 1.4.1.8-.6 1.5-1.4 1.6h-.1c-.7 0-1.4-.6-1.5-1.4zm8 1c-.6-.1-1-.5-1.2-1h-.1c-.8.3-1.6 0-2-.8-.3-.8 0-1.6.7-2 .8-.3 1.6 0 2 .8v.1c.3-.1.6-.2.9-.2.8.1 1.4.9 1.3 1.7-.1.8-.8 1.3-1.5 1.3 0 .1-.1.1-.1.1zm-11.7-.7c-.7-.4-1-1.3-.7-2 .4-.7 1.3-1 2-.7.7.4 1 1.3.7 2-.3.5-.8.8-1.4.8-.2.1-.4 0-.6-.1zM65.1 60c-.5-.6-.4-1.6.2-2.1.6-.5 1.6-.4 2.1.2.5.6.4 1.6-.2 2.1-.3.2-.6.3-.9.3-.4.1-.9-.1-1.2-.5zm-2.6-4.3c-.4-.8 0-1.9.7-2.2.8-.3 1.6.5 2 .5.4 0 0 1.9-.7 2.2-.2.1-.4.3-.6.3-.7 0-1.2-.2-1.4-.8zM60.7 51c-.2-.8.3-1.6 1.1-1.8.8-.2 1.6.3 1.8 1.1.2.8-.3 1.6-1.1 1.8h-.3c-.7 0-1.3-.5-1.5-1.1z"/><circle class="st15" cx="58.5" cy="69.9" r="4.3"/><circle class="st16" cx="76.4" cy="51" r="4.3"/><circle class="st17" cx="88.7" cy="91.4" r="4.3"/><circle class="st18" cx="54.9" cy="112" r="4.3"/><circle class="st16" cx="95.3" cy="133.1" r="4.3"/><circle class="st15" cx="52" cy="146.3" r="4.3"/><circle class="st16" cx="35" cy="163.5" r="4.3"/><circle class="st18" cx="73.9" cy="181.7" r="4.3"/><circle class="st15" cx="117.6" cy="183" r="4.3"/><circle class="st15" cx="55.5" cy="199.7" r="4.3"/><circle class="st15" cx="20.8" cy="192.2" r="4.3"/><circle class="st17" cx="87" cy="214.2" r="4.3"/><circle class="st18" cx="128.4" cy="209.1" r="4.3"/><circle class="st15" cx="110.5" cy="230.6" r="4.3"/><circle class="st15" cx="42.4" cy="240.2" r="4.3"/><circle class="st15" cx="121.9" cy="236.7" r="4.3"/><path class="st19" d="M58.6 85c0 5-3.6 8.1-8.1 8.1S42.4 90 42.4 85h16.2z"/><path class="st19" d="M50.5 94.1c-5.3 0-9.1-3.8-9.1-9.1 0-.6.4-1 1-1h16.2c.6 0 1 .4 1 1 0 5.3-3.8 9.1-9.1 9.1zm-7-8.1c.4 3.6 3.2 6.1 7 6.1s6.6-2.5 7-6.1h-14zM33.6 173c0 5-3.6 8.1-8.1 8.1s-8.1-3.1-8.1-8.1h16.2z"/><path class="st19" d="M25.5 182.1c-5.3 0-9.1-3.8-9.1-9.1 0-.6.4-1 1-1h16.2c.6 0 1 .4 1 1 0 5.3-3.8 9.1-9.1 9.1zm-7-8.1c.4 3.6 3.2 6.1 7 6.1s6.6-2.5 7-6.1h-14zM20.4 213c0 5-3.6 8.1-8.1 8.1S4.2 218 4.2 213h16.2z"/><path class="st19" d="M12.3 222.1c-5.3 0-9.1-3.8-9.1-9.1 0-.6.4-1 1-1h16.2c.6 0 1 .4 1 1 0 5.3-3.8 9.1-9.1 9.1zm-7-8.1c.4 3.6 3.2 6.1 7 6.1s6.6-2.5 7-6.1h-14z"/><path class="st19" d="M36.6 213c0 5-3.6 8.1-8.1 8.1s-8.1-3.1-8.1-8.1h16.2z"/><path class="st19" d="M28.5 222.1c-5.3 0-9.1-3.8-9.1-9.1 0-.6.4-1 1-1h16.2c.6 0 1 .4 1 1 0 5.3-3.8 9.1-9.1 9.1zm-7-8.1c.4 3.6 3.2 6.1 7 6.1s6.6-2.5 7-6.1h-14z"/><path class="st19" d="M52.8 213c0 5-3.6 8.1-8.1 8.1s-8.1-3.1-8.1-8.1h16.2z"/><path class="st19" d="M44.7 222.1c-5.3 0-9.1-3.8-9.1-9.1 0-.6.4-1 1-1h16.2c.6 0 1 .4 1 1 0 5.3-3.9 9.1-9.1 9.1zm-7.1-8.1c.4 3.6 3.2 6.1 7 6.1s6.6-2.5 7-6.1h-14zM44.6 122c0 5-3.6 8.1-8.1 8.1s-8.1-3.1-8.1-8.1h16.2z"/><path class="st19" d="M36.5 131.1c-5.3 0-9.1-3.8-9.1-9.1 0-.6.4-1 1-1h16.2c.6 0 1 .4 1 1 0 5.3-3.8 9.1-9.1 9.1zm-7-8.1c.4 3.6 3.2 6.1 7 6.1s6.6-2.5 7-6.1h-14z"/><path class="st19" d="M60.8 122c0 5-3.6 8.1-8.1 8.1s-8.1-3.1-8.1-8.1h16.2z"/><path class="st19" d="M52.7 131.1c-5.3 0-9.1-3.8-9.1-9.1 0-.6.4-1 1-1h16.2c.6 0 1 .4 1 1 0 5.3-3.9 9.1-9.1 9.1zm-7.1-8.1c.4 3.6 3.2 6.1 7 6.1s6.6-2.5 7-6.1h-14zM99.6 193c0 5-3.6 8.1-8.1 8.1s-8.1-3.1-8.1-8.1h16.2z"/><path class="st19" d="M91.5 202.1c-5.3 0-9.1-3.8-9.1-9.1 0-.6.4-1 1-1h16.2c.6 0 1 .4 1 1 0 5.3-3.8 9.1-9.1 9.1zm-7-8.1c.4 3.6 3.2 6.1 7 6.1s6.6-2.5 7-6.1h-14z"/><path class="st19" d="M115.8 193c0 5-3.6 8.1-8.1 8.1s-8.1-3.1-8.1-8.1h16.2z"/><path class="st19" d="M107.7 202.1c-5.3 0-9.1-3.8-9.1-9.1 0-.6.4-1 1-1h16.2c.6 0 1 .4 1 1 0 5.3-3.9 9.1-9.1 9.1zm-7.1-8.1c.4 3.6 3.2 6.1 7 6.1s6.6-2.5 7-6.1h-14zM92.8 71c0 5-3.6 8.1-8.1 8.1S76.6 76 76.6 71h16.2z"/><path class="st19" d="M84.7 80.1c-5.3 0-9.1-3.8-9.1-9.1 0-.6.4-1 1-1h16.2c.6 0 1 .4 1 1 0 5.3-3.9 9.1-9.1 9.1zM77.6 72c.4 3.6 3.2 6.1 7 6.1s6.6-2.5 7-6.1h-14zM82.4 147c0 5-3.6 8.1-8.1 8.1s-8.1-3.1-8.1-8.1h16.2z"/><path class="st19" d="M74.3 156.1c-5.3 0-9.1-3.8-9.1-9.1 0-.6.4-1 1-1h16.2c.6 0 1 .4 1 1 0 5.3-3.8 9.1-9.1 9.1zm-7-8.1c.4 3.6 3.2 6.1 7 6.1s6.6-2.5 7-6.1h-14z"/><path class="st19" d="M98.6 147c0 5-3.6 8.1-8.1 8.1s-8.1-3.1-8.1-8.1h16.2z"/><path class="st19" d="M90.5 156.1c-5.3 0-9.1-3.8-9.1-9.1 0-.6.4-1 1-1h16.2c.6 0 1 .4 1 1 0 5.3-3.8 9.1-9.1 9.1zm-7-8.1c.4 3.6 3.2 6.1 7 6.1s6.6-2.5 7-6.1h-14z"/><path class="st19" d="M114.8 147c0 5-3.6 8.1-8.1 8.1s-8.1-3.1-8.1-8.1h16.2z"/><path class="st19" d="M106.7 156.1c-5.3 0-9.1-3.8-9.1-9.1 0-.6.4-1 1-1h16.2c.6 0 1 .4 1 1 0 5.3-3.9 9.1-9.1 9.1zm-7.1-8.1c.4 3.6 3.2 6.1 7 6.1s6.6-2.5 7-6.1h-14z"/></svg>