<svg id="Layer_1" xmlns="http://www.w3.org/2000/svg" viewBox="0 0 450 270"><style>.st0{opacity:.2;enable-background:new}.st1{fill:#536dfe}.st2{opacity:.1;fill:#231f20;enable-background:new}.st3{fill:#c0ca33}.st4{fill:#a1887f}.st5{fill:#29b6f6}.st6{fill:#fce68d}.st7{fill:#fff;stroke:#fff;stroke-width:2;stroke-linejoin:round;stroke-miterlimit:10}.st8{fill:#bcaaa4}.st9{fill:#808082}</style><path class="st0" d="M250 43L56 148v10c0 4.4 3.6 8 8 8s8-3.6 8-8c0 4 3 7.3 6.8 7.9v17c.4-.1.8-.1 1.2-.3V270h340V165.6l1.2.3v.1c4.4 0 8-3.6 8-8 0 4.4 3.6 8 8 8s8-3.6 8-8v-10L250 43z"/><path class="st1" d="M200 14L30 106v164h340V106z"/><path class="st2" d="M363 118c0-.4 0-.9.1-1.3-1.4 1.2-3.2 2-5.3 2-4.4 0-8-3.6-8-8 0-.4 0-.9.1-1.3-1.4 1.2-3.2 2-5.3 2-4.4 0-8-3.6-8-8 0-.4 0-.9.1-1.3-1.4 1.2-3.2 2-5.3 2-4.4 0-8-3.6-8-8 0-.4 0-.9.1-1.3-1.4 1.2-3.2 2-5.3 2-4.4 0-8-3.6-8-8 0-.4 0-.9.1-1.3-1.4 1.2-3.2 2-5.3 2-4.4 0-8-3.6-8-8 0-.4 0-.9.1-1.3-1.4 1.2-3.2 2-5.3 2-4.4 0-8-3.6-8-8 0-.4 0-.9.1-1.3-1.4 1.2-3.2 2-5.3 2-4.4 0-8-3.6-8-8 0-.4 0-.9.1-1.3-1.4 1.2-3.2 2-5.3 2-4.4 0-8-3.6-8-8 0-.4 0-.9.1-1.3-1.4 1.2-3.2 2-5.3 2-4.4 0-8-3.6-8-8 0-.4 0-.9.1-1.3-1.4 1.2-3.2 2-5.3 2-4.4 0-8-3.6-8-8 0-.4 0-.9.1-1.3-1.4 1.2-3.2 2-5.3 2-4.4 0-8-3.6-8-8 0-.4 0-.9.1-1.3-1.4 1.2-3.2 2-5.3 2-4.4 0-8-3.6-8-8 0-.4 0-.9.1-1.3-1.2 1-2.7 1.7-4.3 1.9-.3 0-.7.1-1 .1-2 0-3.9-.8-5.3-2 .1.4.1.9.1 1.3 0 4.4-3.6 8-8 8-2 0-3.9-.8-5.3-2 .1.4.1.9.1 1.3 0 4.4-3.6 8-8 8-2 0-3.9-.8-5.3-2 .1.4.1.9.1 1.3 0 4.4-3.6 8-8 8-2 0-3.9-.8-5.3-2 .1.4.1.9.1 1.3 0 4.4-3.6 8-8 8-2 0-3.9-.8-5.3-2 .1.4.1.9.1 1.3 0 4.4-3.6 8-8 8-2 0-3.9-.8-5.3-2 .1.4.1.9.1 1.3 0 4.4-3.6 8-8 8-2 0-3.9-.8-5.3-2 .1.4.1.9.1 1.3 0 4.4-3.6 8-8 8-2 0-3.9-.8-5.3-2 .1.4.1.9.1 1.3 0 4.4-3.6 8-8 8-2 0-3.9-.8-5.3-2 .1.4.1.9.1 1.3 0 4.4-3.6 8-8 8-2 0-3.9-.8-5.3-2 .1.4.1.9.1 1.3 0 4.4-3.6 8-8 8-2 0-3.9-.8-5.3-2 .1.4.1.9.1 1.3 0 4.4-3.6 8-8 8-2 0-3.9-.8-5.3-2 .1.4.1.9.1 1.3 0 4.4-3.6 8-8 8-2 0-3.9-.8-5.3-2 .1.4.1.9.1 1.3 0 4.1-3.1 7.4-7 7.9v17c3.9-.5 7-3.9 7-7.9 0-.4 0-.9-.1-1.3 1.4 1.2 3.2 2 5.3 2 4.4 0 8-3.6 8-8 0-.4 0-.9-.1-1.3 1.4 1.2 3.2 2 5.3 2 4.4 0 8-3.6 8-8 0-.4 0-.9-.1-1.3 1.4 1.2 3.2 2 5.3 2 4.4 0 8-3.6 8-8 0-.4 0-.9-.1-1.3 1.4 1.2 3.2 2 5.3 2 4.4 0 8-3.6 8-8 0-.4 0-.9-.1-1.3 1.4 1.2 3.2 2 5.3 2 4.4 0 8-3.6 8-8 0-.4 0-.9-.1-1.3 1.4 1.2 3.2 2 5.3 2 4.4 0 8-3.6 8-8 0-.4 0-.9-.1-1.3 1.4 1.2 3.2 2 5.3 2 4.4 0 8-3.6 8-8 0-.4 0-.9-.1-1.3 1.4 1.2 3.2 2 5.3 2 4.4 0 8-3.6 8-8 0-.4 0-.9-.1-1.3 1.4 1.2 3.2 2 5.3 2 4.4 0 8-3.6 8-8 0-.4 0-.9-.1-1.3 1.4 1.2 3.2 2 5.3 2 4.4 0 8-3.6 8-8 0-.4 0-.9-.1-1.3 1.4 1.2 3.2 2 5.3 2 4.4 0 8-3.6 8-8 0-.4 0-.9-.1-1.3 1.4 1.2 3.2 2 5.3 2 4.4 0 8-3.6 8-8 0-.4 0-.9-.1-1.3 1.4 1.2 3.2 2 5.3 2 .3 0 .7 0 1-.1 1.6-.2 3.1-.9 4.3-1.9-.1.4-.1.9-.1 1.3 0 4.4 3.6 8 8 8 2 0 3.9-.8 5.3-2-.1.4-.1.9-.1 1.3 0 4.4 3.6 8 8 8 2 0 3.9-.8 5.3-2-.1.4-.1.9-.1 1.3 0 4.4 3.6 8 8 8 2 0 3.9-.8 5.3-2-.1.4-.1.9-.1 1.3 0 4.4 3.6 8 8 8 2 0 3.9-.8 5.3-2-.1.4-.1.9-.1 1.3 0 4.4 3.6 8 8 8 2 0 3.9-.8 5.3-2-.1.4-.1.9-.1 1.3 0 4.4 3.6 8 8 8 2 0 3.9-.8 5.3-2-.1.4-.1.9-.1 1.3 0 4.4 3.6 8 8 8 2 0 3.9-.8 5.3-2-.1.4-.1.9-.1 1.3 0 4.4 3.6 8 8 8 2 0 3.9-.8 5.3-2-.1.4-.1.9-.1 1.3 0 4.4 3.6 8 8 8 2 0 3.9-.8 5.3-2-.1.4-.1.9-.1 1.3 0 4.4 3.6 8 8 8 2 0 3.9-.8 5.3-2-.1.4-.1.9-.1 1.3 0 4.4 3.6 8 8 8 2 0 3.9-.8 5.3-2-.1.4-.1.9-.1 1.3 0 4.4 3.6 8 8 8 2 0 3.9-.8 5.3-2-.1.4-.1.9-.1 1.3 0 4.1 3.1 7.4 7 7.9v-17c-3.9-.5-7-3.8-7-7.9z"/><path class="st3" d="M200 3L6 108v10c0 4.4 3.6 8 8 8s8-3.6 8-8c0 4.4 3.6 8 8 8v-.1c3.9-.5 7-3.9 7-7.9 0-.4 0-.9-.1-1.3 1.4 1.2 3.2 2 5.3 2 4.4 0 8-3.6 8-8 0-.4 0-.9-.1-1.3 1.4 1.2 3.2 2 5.3 2 4.4 0 8-3.6 8-8 0-.4 0-.9-.1-1.3 1.4 1.2 3.2 2 5.3 2 4.4 0 8-3.6 8-8 0-.4 0-.9-.1-1.3 1.4 1.2 3.2 2 5.3 2 4.4 0 8-3.6 8-8 0-.4 0-.9-.1-1.3 1.4 1.2 3.2 2 5.3 2 4.4 0 8-3.6 8-8 0-.4 0-.9-.1-1.3 1.4 1.2 3.2 2 5.3 2 4.4 0 8-3.6 8-8 0-.4 0-.9-.1-1.3 1.4 1.2 3.2 2 5.3 2 4.4 0 8-3.6 8-8 0-.4 0-.9-.1-1.3 1.4 1.2 3.2 2 5.3 2 4.4 0 8-3.6 8-8 0-.4 0-.9-.1-1.3 1.4 1.2 3.2 2 5.3 2 4.4 0 8-3.6 8-8 0-.4 0-.9-.1-1.3 1.4 1.2 3.2 2 5.3 2 4.4 0 8-3.6 8-8 0-.4 0-.9-.1-1.3 1.4 1.2 3.2 2 5.3 2 4.4 0 8-3.6 8-8 0-.4 0-.9-.1-1.3 1.4 1.2 3.2 2 5.3 2 4.4 0 8-3.6 8-8 0-.4 0-.9-.1-1.3 1.4 1.2 3.2 2 5.3 2 .3 0 .7 0 1-.1 1.6-.2 3.1-.9 4.3-1.9-.1.4-.1.9-.1 1.3 0 4.4 3.6 8 8 8 2 0 3.9-.8 5.3-2-.1.4-.1.9-.1 1.3 0 4.4 3.6 8 8 8 2 0 3.9-.8 5.3-2-.1.4-.1.9-.1 1.3 0 4.4 3.6 8 8 8 2 0 3.9-.8 5.3-2-.1.4-.1.9-.1 1.3 0 4.4 3.6 8 8 8 2 0 3.9-.8 5.3-2-.1.4-.1.9-.1 1.3 0 4.4 3.6 8 8 8 2 0 3.9-.8 5.3-2-.1.4-.1.9-.1 1.3 0 4.4 3.6 8 8 8 2 0 3.9-.8 5.3-2-.1.4-.1.9-.1 1.3 0 4.4 3.6 8 8 8 2 0 3.9-.8 5.3-2-.1.4-.1.9-.1 1.3 0 4.4 3.6 8 8 8 2 0 3.9-.8 5.3-2-.1.4-.1.9-.1 1.3 0 4.4 3.6 8 8 8 2 0 3.9-.8 5.3-2-.1.4-.1.9-.1 1.3 0 4.4 3.6 8 8 8 2 0 3.9-.8 5.3-2-.1.4-.1.9-.1 1.3 0 4.4 3.6 8 8 8 2 0 3.9-.8 5.3-2-.1.4-.1.9-.1 1.3 0 4.4 3.6 8 8 8 2 0 3.9-.8 5.3-2-.1.4-.1.9-.1 1.3 0 4.1 3.1 7.4 7 7.9v.1c4.4 0 8-3.6 8-8 0 4.4 3.6 8 8 8s8-3.6 8-8v-10L200 3z"/><path class="st4" d="M199 132h-1.1c-29 0-52.9 23.5-52.9 52.6V270h108v-84.4c0-29.6-24.4-53.6-54-53.6z"/><path class="st5" d="M89 152h-.5C75 152 64 163 64 176.5V218h50v-41c0-13.8-11.2-25-25-25z"/><path class="st6" d="M309 152h-.5c-13.5 0-24.5 11-24.5 24.5V218h50v-41c0-13.8-11.2-25-25-25z"/><path class="st7" d="M81.2 218c0 4-3.6 8.1-8.1 8.1S65 222 65 218h16.2zM97.4 218c0 4-3.6 8.1-8.1 8.1s-8.1-4.1-8.1-8.1h16.2z"/><path class="st7" d="M113.5 218c0 4-3.6 8.1-8.1 8.1s-8.1-4.1-8.1-8.1h16.2z"/><circle class="st2" cx="188" cy="217" r="3"/><circle class="st2" cx="210" cy="217" r="3"/><circle class="st8" cx="188" cy="213" r="3"/><circle class="st8" cx="210" cy="213" r="3"/><path class="st2" d="M198 132h3v137h-3z"/><path class="st9" d="M145 264h108v6H145z"/></svg>