<svg xmlns="http://www.w3.org/2000/svg" viewBox="0 0 52 52"><path d="M42.4 10.9c-1.4-1.5-1.3-3.8 0-5.2-.7-.5-1.4-1.1-2.1-1.5-.9 1.8-3.1 2.6-5 1.7s-2.7-3-2-4.9C32.5.8 31.8.6 31 .4c-.2 2-1.9 3.5-4 3.4-2-.1-3.6-1.8-3.6-3.8-.9.1-1.8.2-2.6.4.6 2-.4 4.1-2.3 4.8-2 .7-4.1-.3-4.9-2.2-.7.4-1.4.8-2 1.2 1.4 1.6 1.2 3.9-.3 5.4-1.6 1.4-4 1.3-5.4-.2-.6.7-1.1 1.4-1.6 2.2 1.9.9 2.7 3.2 1.9 5.1-.9 1.9-3.2 2.9-5.1 2.1-.2.8-.4 1.5-.6 2.5 2.1 0 3.8 1.7 3.7 3.8s-1.9 3.7-4 3.6H.1c.1.9.2 1.8.4 2.7 2-.7 4.2.3 4.9 2.3s-.3 4.2-2.3 4.9c.4.7.8 1.4 1.3 2.1l.1-.1c1.6-1.4 4-1.3 5.4.2 1.4 1.6 1.3 4-.2 5.4l-.1.1c.7.6 1.4 1.1 2.2 1.6.9-1.9 3.2-2.8 5.1-1.9 1.9.9 2.8 3.2 1.9 5.1h.1c.8.2 1.6.4 2.6.6v-.1c0-2.1 1.8-3.8 3.9-3.7s3.7 1.9 3.6 4c.9-.1 1.7-.2 2.5-.4-.7-2 .3-4.2 2.3-4.9s4.2.3 4.9 2.2c.7-.4 1.5-.9 2.2-1.3-1.4-1.6-1.3-4 .3-5.4 1.5-1.4 3.9-1.3 5.4.2l1.5-2.1c-1.9-.9-2.7-3.2-1.8-5.1.9-1.9 3.1-2.7 5-1.9l.6-2.4c-2-.2-3.6-1.9-3.5-4 .1-2 1.7-3.6 3.8-3.7-.1-.8-.2-1.7-.4-2.5-1.9.6-4-.4-4.8-2.3-.7-1.9.2-4.1 2.1-4.9-.4-.7-.8-1.4-1.3-2.1-1.7 1.3-4 1.1-5.4-.4zM28.8 28.6c-1.6 1.5-4.1 1.4-5.6-.2s-1.4-4.1.2-5.6 4.1-1.4 5.6.2 1.4 4.2-.2 5.6z" fill="#12406e"/></svg>