<svg id="Layer_1" xmlns="http://www.w3.org/2000/svg" viewBox="0 0 442 538"><style>.st0{fill:none}.st1{fill:#21586d}.st2{opacity:.2;enable-background:new}.st3{fill:#2d6175}.st4{opacity:.1}.st5{fill:#231f20}.st6{fill:#0094a2}.st7{fill:#00acc1}.st8{opacity:.39}.st9{fill:#78d3de}.st10{opacity:.12;enable-background:new}</style><path class="st0" d="M0 0h392v538H0z"/><path class="st1" d="M26 11h340v527H26z"/><path class="st2" d="M69 78h-8L2 39V7c0-4.4 4.6-7 9-7h368c9.2 0 55.3 31.6 55.3 31.6 1.8 1.2 2.7 3.2 2.7 5.9V78H69z"/><path class="st3" d="M198 425h32v22h-32zM260 425h32v22h-32zM60 425h32v22H60zM160 425h32v22h-32zM298 425h32v22h-32zM98 425h32v22H98zM198 453h32v22h-32zM260 453h32v22h-32zM60 453h32v22H60zM160 453h32v22h-32zM298 453h32v22h-32zM98 453h32v22H98z"/><g><path class="st3" d="M198 315h32v22h-32zM260 315h32v22h-32zM60 315h32v22H60zM160 315h32v22h-32zM298 315h32v22h-32zM98 315h32v22H98zM198 343h32v22h-32zM260 343h32v22h-32zM60 343h32v22H60zM160 343h32v22h-32zM298 343h32v22h-32zM98 343h32v22H98z"/></g><g><path class="st3" d="M198 205h32v22h-32zM260 205h32v22h-32zM60 205h32v22H60zM160 205h32v22h-32zM298 205h32v22h-32zM98 205h32v22H98zM198 233h32v22h-32zM260 233h32v22h-32zM60 233h32v22H60zM160 233h32v22h-32zM298 233h32v22h-32zM98 233h32v22H98z"/></g><g><path class="st3" d="M198 95h32v22h-32zM260 95h32v22h-32zM60 95h32v22H60zM160 95h32v22h-32zM298 95h32v22h-32zM98 95h32v22H98zM198 123h32v22h-32zM260 123h32v22h-32zM60 123h32v22H60zM160 123h32v22h-32zM298 123h32v22h-32zM98 123h32v22H98z"/></g><g><g class="st4"><path class="st5" d="M26 23h340v22H26z"/></g><path class="st6" d="M393 42V10c0-4.4-3.6-8-8-8H13c-4.4 0-8 3.6-8 8L2 40l3 2h388z"/><path class="st7" d="M390 40V8c0-4.4-3.6-8-8-8H10C5.6 0 2 3.6 2 8v32h388z"/><g class="st8"><path class="st9" d="M388.6 3.4c-1.3-.9-2.9-1.4-4.6-1.4H12c-4.4 0-8 3.6-8 8v30H2V8c0-4.4 3.6-8 8-8h372c2.7 0 5.1 1.4 6.6 3.4z"/></g><g class="st4"><path class="st5" d="M362 0h4v40h-4z"/></g><g class="st4"><path class="st5" d="M334 0h4v40h-4z"/></g><g class="st4"><path class="st5" d="M306 0h4v40h-4z"/></g><g class="st4"><path class="st5" d="M278 0h4v40h-4z"/></g><g class="st4"><path class="st5" d="M250 0h4v40h-4z"/></g><g class="st4"><path class="st5" d="M222 0h4v40h-4z"/></g><g class="st4"><path class="st5" d="M194 0h4v40h-4z"/></g><g class="st4"><path class="st5" d="M166 0h4v40h-4z"/></g><g class="st4"><path class="st5" d="M138 0h4v40h-4z"/></g><g class="st4"><path class="st5" d="M110 0h4v40h-4z"/></g><g class="st4"><path class="st5" d="M82 0h4v40h-4z"/></g><g class="st4"><path class="st5" d="M54 0h4v40h-4z"/></g><g class="st4"><path class="st5" d="M26 0h4v40h-4z"/></g></g><path class="st10" d="M60 425h70v6H60zM160 425h70v6h-70zM260 425h70v6h-70zM60 315h70v6H60zM160 315h70v6h-70zM260 315h70v6h-70zM60 205h70v6H60zM160 205h70v6h-70zM260 205h70v6h-70zM60 95h70v6H60zM160 95h70v6h-70zM260 95h70v6h-70z"/></svg>