<svg id="Layer_1" xmlns="http://www.w3.org/2000/svg" viewBox="0 0 442 270"><style>.st0{fill:#21586d}.st1{opacity:.1}.st2{fill:#231f20}.st3{fill:#00897b}.st4{opacity:.2;enable-background:new}.st5{fill:#26a69a}.st6{fill:#0c485f}.st7{fill:#2d6175}.st8{fill:#fff}.st9{fill:none}</style><path class="st0" d="M10 22h368v248H10z"/><g class="st1"><path class="st2" d="M10 178v-30l368-30v30z"/></g><g class="st1"><path class="st2" d="M10 238v-30l368-30v30z"/></g><g class="st1"><path class="st2" d="M10 268l368-30v32H10z"/></g><g class="st1"><path class="st2" d="M10 118V88l368-30v30z"/></g><path class="st3" d="M34 1v40l-8 8-8-8V1z"/><path class="st4" d="M437 38.5v32l-8 8-8-8-8 8-8-8-8 8-8-8-8 8-8-8-8 8-8-8-8 8-8-8-8 8-8-8-8 8-8-8-8 8-8-8-8 8-8-8-8 8-8-8-8 8-8-8-8 8-8-8-8 8-8-8-8 8-8-8-8 8-8-8-8 8-8-8-8 8-8-8-8 8-8-8-8 8-8-8-8 8-8-8-8 8-8-8-8 8-8-8-8 8L2 40V8c0-4.4 4.6-7 9-7h368c9.2 0 55.3 31.6 55.3 31.6 1.7 1.2 2.7 3.2 2.7 5.9z"/><path class="st5" d="M18 1v40l-8 8-8-8V9c0-4.4 3.6-8 8-8h8z"/><g class="st1"><path class="st2" d="M76 110H60c-4.4 0-8 3.6-8 8v11l8 8 8-8 8 8 8-8v-11c0-4.4-3.6-8-8-8z"/></g><path class="st6" d="M84 107v11l-8 8-8-8V99h8c4.4 0 8 3.6 8 8z"/><path class="st7" d="M68 99v19l-8 8-8-8v-11c0-4.4 3.6-8 8-8h8z"/><g class="st1"><path class="st2" d="M176 128h-16c-4.4 0-8 3.6-8 8v11l8 8 8-8 8 8 8-8v-11c0-4.4-3.6-8-8-8z"/></g><path class="st6" d="M184 125v11l-8 8-8-8v-19h8c4.4 0 8 3.6 8 8z"/><path class="st7" d="M168 117v19l-8 8-8-8v-11c0-4.4 3.6-8 8-8h8z"/><g class="st1"><path class="st2" d="M326 208h-16c-4.4 0-8 3.6-8 8v11l8 8 8-8 8 8 8-8v-11c0-4.4-3.6-8-8-8z"/></g><path class="st6" d="M334 205v11l-8 8-8-8v-19h8c4.4 0 8 3.6 8 8z"/><g class="st1"><path class="st2" d="M378 86h-8v19l8 8v-8z"/></g><path class="st6" d="M386 83v11l-8 8-8-8V83c0-4.4 3.6-8 8-8s8 3.6 8 8z"/><path class="st7" d="M318 197v19l-8 8-8-8v-11c0-4.4 3.6-8 8-8h8zM10 166v27l-8-8v-11c0-4.4 3.6-8 8-8z"/><path class="st3" d="M66 1v40l-8 8-8-8V1z"/><path class="st5" d="M50 1v40l-8 8-8-8V1z"/><path class="st3" d="M98 1v40l-8 8-8-8V1z"/><path class="st5" d="M82 1v40l-8 8-8-8V1z"/><path class="st3" d="M130 1v40l-8 8-8-8V1z"/><path class="st5" d="M114 1v40l-8 8-8-8V1z"/><path class="st3" d="M162 1v40l-8 8-8-8V1z"/><path class="st5" d="M146 1v40l-8 8-8-8V1z"/><path class="st3" d="M194 1v40l-8 8-8-8V1z"/><path class="st5" d="M178 1v40l-8 8-8-8V1z"/><path class="st3" d="M226 1v40l-8 8-8-8V1z"/><path class="st5" d="M210 1v40l-8 8-8-8V1z"/><path class="st3" d="M258 1v40l-8 8-8-8V1z"/><path class="st5" d="M242 1v40l-8 8-8-8V1z"/><path class="st3" d="M290 1v40l-8 8-8-8V1z"/><path class="st5" d="M274 1v40l-8 8-8-8V1z"/><path class="st3" d="M322 1v40l-8 8-8-8V1z"/><path class="st5" d="M306 1v40l-8 8-8-8V1z"/><path class="st3" d="M354 1v40l-8 8-8-8V1z"/><path class="st5" d="M338 1v40l-8 8-8-8V1z"/><path class="st3" d="M386 9v32l-8 8-8-8V1h8c4.4 0 8 3.6 8 8z"/><path class="st5" d="M370 1v40l-8 8-8-8V1z"/><path class="st8" d="M346.2 2c0 4.5-3.6 8.1-8.1 8.1S330 6.5 330 2h16.2z"/><path class="st8" d="M338.1 11.1c-5 0-9.1-4.1-9.1-9.1 0-.6.4-1 1-1h16.2c.6 0 1 .4 1 1 0 5-4.1 9.1-9.1 9.1zm-7-8.1c.5 3.4 3.4 6.1 7 6.1s6.5-2.7 7-6.1h-14z"/><g><path class="st8" d="M362.4 2c0 4.5-3.6 8.1-8.1 8.1s-8.1-3.6-8.1-8.1h16.2z"/><path class="st8" d="M354.3 11.1c-5 0-9.1-4.1-9.1-9.1 0-.6.4-1 1-1h16.2c.6 0 1 .4 1 1 0 5-4.1 9.1-9.1 9.1zM347.2 3c.5 3.4 3.4 6.1 7 6.1s6.5-2.7 7-6.1h-14z"/></g><g><path class="st8" d="M314 2c0 4.5-3.6 8.1-8.1 8.1s-8.1-3.6-8.1-8.1H314z"/><path class="st8" d="M305.9 11.1c-5 0-9.1-4.1-9.1-9.1 0-.6.4-1 1-1H314c.6 0 1 .4 1 1 0 5-4.1 9.1-9.1 9.1zm-7-8.1c.5 3.4 3.4 6.1 7 6.1s6.5-2.7 7-6.1h-14z"/></g><g><path class="st0" d="M2 270h8v-8c-4.4 0-8 4-8 8z"/></g><path class="st9" d="M0 0h392v270H0z"/></svg>