<svg id="Layer_1" xmlns="http://www.w3.org/2000/svg" viewBox="0 0 442 538"><style>.st0{fill:none}.st1{fill:#2d6175}.st2{fill:#21586d}.st3{opacity:.1}.st4{fill:#231f20}.st5{opacity:.2;enable-background:new}.st6{fill:#0094a2}.st7{fill:#00acc1}.st8{opacity:.39}.st9{fill:#78d3de}</style><path class="st0" d="M0 2h392v536H0z"/><path class="st1" d="M26 11h340v527H26z"/><path class="st2" d="M260 154h70v50h-70zM60 154h70v50H60zM160 154h70v50h-70z"/><g class="st3"><path class="st4" d="M60 154h70v6H60z"/></g><g class="st3"><path class="st4" d="M160 154h70v6h-70z"/></g><g class="st3"><path class="st4" d="M260 154h70v6h-70z"/></g><path class="st2" d="M260 425h70v50h-70zM60 425h70v50H60zM160 425h70v50h-70z"/><g class="st3"><path class="st4" d="M60 425h70v6H60z"/></g><g class="st3"><path class="st4" d="M160 425h70v6h-70z"/></g><g class="st3"><path class="st4" d="M260 425h70v6h-70z"/></g><path class="st2" d="M260 64h70v50h-70zM60 64h70v50H60zM160 64h70v50h-70z"/><g class="st3"><path class="st4" d="M60 64h70v6H60z"/></g><g class="st3"><path class="st4" d="M160 64h70v6h-70z"/></g><g class="st3"><path class="st4" d="M260 64h70v6h-70z"/></g><path class="st2" d="M260 244h70v50h-70zM60 244h70v50H60zM160 244h70v50h-70z"/><g class="st3"><path class="st4" d="M60 244h70v6H60z"/></g><g class="st3"><path class="st4" d="M160 244h70v6h-70z"/></g><g class="st3"><path class="st4" d="M260 244h70v6h-70z"/></g><g><path class="st2" d="M260 335h70v50h-70z"/></g><g><path class="st2" d="M60 335h70v50H60z"/></g><g><path class="st2" d="M160 335h70v50h-70z"/></g><g class="st3"><path class="st4" d="M60 335h70v6H60z"/></g><g class="st3"><path class="st4" d="M160 335h70v6h-70z"/></g><g class="st3"><path class="st4" d="M260 335h70v6h-70z"/></g><g><g class="st3"><path class="st4" d="M26 23h340v22H26z"/></g><path class="st5" d="M69 78h-8L2 39V7c0-4.4 4.6-7 9-7h368c9.2 0 55.3 31.6 55.3 31.6 1.8 1.2 2.7 3.2 2.7 5.9V78H69z"/><path class="st6" d="M393 42V10c0-4.4-3.6-8-8-8H13c-4.4 0-8 3.6-8 8L2 40l3 2h388z"/><path class="st7" d="M390 40V8c0-4.4-3.6-8-8-8H10C5.6 0 2 3.6 2 8v32h388z"/><g class="st3"><path class="st4" d="M362 0h4v40h-4z"/></g><g class="st3"><path class="st4" d="M334 0h4v40h-4z"/></g><g class="st3"><path class="st4" d="M306 0h4v40h-4z"/></g><g class="st3"><path class="st4" d="M278 0h4v40h-4z"/></g><g class="st3"><path class="st4" d="M250 0h4v40h-4z"/></g><g class="st3"><path class="st4" d="M222 0h4v40h-4z"/></g><g class="st3"><path class="st4" d="M194 0h4v40h-4z"/></g><g class="st3"><path class="st4" d="M166 0h4v40h-4z"/></g><g class="st3"><path class="st4" d="M138 0h4v40h-4z"/></g><g class="st3"><path class="st4" d="M110 0h4v40h-4z"/></g><g class="st3"><path class="st4" d="M82 0h4v40h-4z"/></g><g class="st3"><path class="st4" d="M54 0h4v40h-4z"/></g><g class="st3"><path class="st4" d="M26 0h4v40h-4z"/></g></g><g class="st8"><path class="st9" d="M388.6 3.4c-1.3-.9-2.9-1.4-4.6-1.4H12c-4.4 0-8 3.6-8 8v30H2V8c0-4.4 3.6-8 8-8h372c2.7 0 5.1 1.4 6.6 3.4z"/></g></svg>