<svg xmlns="http://www.w3.org/2000/svg" viewBox="0 0 88 25"><path fill="#F9CE20" d="M0 3v22h22V3l-2-3H2z"/><path fill="#9B52A0" d="M0 12h22v4H0z"/><path fill="#9B52A0" d="M9 0h4v25H9z"/><path opacity=".2" fill="#231F20" d="M0 3l2-3h18l2 3z"/><path fill="#F9CE20" d="M22 3v22h22V3l-2-3H24z"/><path fill="#9B52A0" d="M22 12h22v4H22z"/><path fill="#9B52A0" d="M31 0h4v25h-4z"/><path opacity=".2" fill="#231F20" d="M22 3l2-3h18l2 3z"/><path fill="#fff" fill-opacity=".4" d="M22 3h14.7L22 17.1z"/><path fill="#F9CE20" d="M44 3v22h22V3l-2-3H46z"/><path fill="#9B52A0" d="M44 12h22v4H44z"/><path fill="#9B52A0" d="M53 0h4v25h-4z"/><path opacity=".2" fill="#231F20" d="M44 3l2-3h18l2 3z"/><path fill="#fff" fill-opacity=".4" d="M66 10.8V3h-7.3L44 17.1V25h7.4z"/><path fill="#F9CE20" d="M66 3v22h22V3l-2-3H68z"/><path fill="#9B52A0" d="M66 12h22v4H66z"/><path fill="#9B52A0" d="M75 0h4v25h-4z"/><path opacity=".2" fill="#231F20" d="M66 3l2-3h18l2 3z"/><path fill="#fff" fill-opacity=".4" d="M88 10.8V25H73.3z"/></svg>