<svg xmlns="http://www.w3.org/2000/svg" width="40" height="40" viewBox="0 0 40 40"><g enable-background="new"><path fill="#fff" d="M5 20.323c0 2.458 4.562 2.146 4.562 2.146h14s-4.06 4.714-5.18 6.065c-1.122 1.352-1.087 2.846.107 3.93s3.09.807 3.614.282c.525-.525 9.627-9.57 10.188-10.01.56-.44 1.68-1.522 1.727-2.387s-.4-1.513-.705-1.82-6.008-5.652-9.17-8.996c-3.162-3.345-4.728-2.86-6.018-1.497s-.16 3.515.244 4.065 4.52 4.618 5.13 5.398c.067.086-.146-.47-.1-.414h.046s.413.863.054.414h-13c-3.742 0-5.5.365-5.5 2.823z"/></g></svg>