<svg width="250" height="200" viewBox="0 0 250 200" fill="none" xmlns="http://www.w3.org/2000/svg">
<mask id="mask0" mask-type="alpha" maskUnits="userSpaceOnUse" x="10" y="50" width="40" height="93">
<rect x="10" y="50" width="40" height="93" fill="#C4C4C4"/>
</mask>
<g mask="url(#mask0)">
<path d="M38.5996 109.6V133.4C38.5996 134.4 37.7996 135.2 36.7996 135.2H24.8996C23.8996 135.2 23.0996 134.4 23.0996 133.4V109.6C23.0996 108.6 23.8996 107.8 24.8996 107.8H36.7996C37.7996 107.8 38.5996 108.6 38.5996 109.6Z" fill="#AB47BC"/>
<path d="M52.2004 109.6V133.4C52.2004 134.4 51.4004 135.2 50.4004 135.2H29.7004C28.7004 135.2 27.9004 134.4 27.9004 133.4V109.6C27.9004 108.6 28.7004 107.8 29.7004 107.8H50.4004C51.4004 107.8 52.2004 108.6 52.2004 109.6Z" fill="#8E24AA"/>
<path d="M42.6004 116.4V126.5C42.6004 127.5 41.8004 128.3 40.8004 128.3H32.2004C31.2004 128.3 30.4004 127.5 30.4004 126.5V116.4C30.4004 115.4 31.2004 114.6 32.2004 114.6H40.8004C41.9004 114.7 42.6004 115.5 42.6004 116.4Z" fill="#333333"/>
<path d="M32.2988 116.2V126.8H34.4988V116.2H32.2988Z" fill="#BBE5FA"/>
<path d="M36.2988 121.5V126.8H41.1988V121.5H36.2988Z" fill="#BBE5FA"/>
<path d="M40.5988 118.7V119C40.5988 120 39.7988 120.9 38.6988 120.9C37.6988 120.9 36.7988 120.1 36.7988 119V118.7C36.7988 117.7 37.5988 116.8 38.6988 116.8C39.7988 116.9 40.5988 117.7 40.5988 118.7Z" fill="#F8BF15"/>
<path d="M33.1996 107.7C32.6996 107.7 32.2996 107.4 32.0996 107H49.8996C50.8996 107 51.6996 106.3 51.6996 105.3" fill="#AB47BC"/>
<path d="M43.5 111.8C43.2 112.1 42.5 112.4 42.1 112.4H23.4C22.6 112.4 22 111.6 22 110.6V89.9002C22 89.2002 22.3 88.5002 22.8 88.3002C23 88.2002 31.8 84.0002 31.9 83.9002C32.4 83.6002 32.8 83.5002 33.1 83.5002H51.8C52.6 83.5002 53.2 84.3002 53.2 85.3002V106C53.2 106.7 52.9 107.3 52.4 107.6" fill="#AB47BC"/>
<path d="M40.7 90.8003C38.8 91.7003 37 91.4003 35.7 90.4003C35.4 90.5003 35 90.6003 34.6 90.6003C30.4 90.7003 26.2 91.1003 22 91.6003V110.7C22 111.7 22.6 112.5 23.4 112.5H42.1C42.5 112.5 43.2 112.2 43.5 111.9L52.5 107.6C53 107.3 53.3 106.7 53.3 106V85.6003C49.1 87.3003 44.8 88.8003 40.7 90.8003Z" fill="#8512A3"/>
<path d="M42.1 112.4H23.4C22.6 112.4 22 111.6 22 110.6V89.9003C22 88.9003 22.6 88.1003 23.4 88.1003H42.1C42.9 88.1003 43.5 88.9003 43.5 89.9003V110.6C43.5 111.6 42.9 112.4 42.1 112.4Z" fill="#8E24AA"/>
<path d="M36.7008 102.8H28.7008C27.9008 102.8 27.3008 102 27.3008 101V92.4003C27.3008 91.4003 27.9008 90.6003 28.7008 90.6003H36.7008C37.5008 90.6003 38.1008 91.4003 38.1008 92.4003V101C38.1008 102.1 37.5008 102.8 36.7008 102.8Z" fill="#333333"/>
<path d="M36.8996 92.5002H28.5996V94.7002H36.8996V92.5002Z" fill="#BBE5FA"/>
<path d="M32.6996 96.5002H28.5996V101.4H32.6996V96.5002Z" fill="#BBE5FA"/>
<path d="M34.8992 100.8H34.6992C33.8992 100.8 33.1992 100 33.1992 98.9002C33.1992 97.9002 33.7992 97.0002 34.6992 97.0002H34.8992C35.6992 97.0002 36.3992 97.8002 36.3992 98.9002C36.3992 100 35.6992 100.8 34.8992 100.8Z" fill="#F8BF15"/>
<path d="M56.3997 78.4001L32.5997 76.8001C31.5997 76.7001 30.8997 75.9001 30.9997 74.9001L31.7997 63.0001C31.8997 62.0001 32.6997 61.3001 33.6997 61.4001L57.3997 63.0001C58.3997 63.1001 59.0997 63.9001 58.9997 64.9001L58.1997 76.8001C58.1997 77.7001 57.3997 78.4001 56.3997 78.4001Z" fill="#AB47BC"/>
<path d="M55.3993 92.0002L31.6993 90.4002C30.6993 90.3002 29.9993 89.5002 30.0993 88.5002L31.4993 67.8002C31.5993 66.8002 32.3993 66.1002 33.3993 66.2002L57.1993 67.8002C58.1993 67.9002 58.8993 68.7002 58.7993 69.7002L57.3993 90.4002C57.1993 91.3002 56.3993 92.1002 55.3993 92.0002Z" fill="#8E24AA"/>
<path d="M49.2993 82.0002L39.1993 81.3002C38.1993 81.2002 37.4993 80.4002 37.5993 79.4002L38.1993 70.8002C38.2993 69.8002 39.0993 69.1002 40.0993 69.2002L50.1993 69.9002C51.1993 70.0002 51.8993 70.8002 51.7993 71.8002L51.1993 80.4002C51.0993 81.3002 50.2993 82.0002 49.2993 82.0002Z" fill="#333333"/>
<path d="M50.1984 71.7002L39.5984 71.0002L39.3984 73.2002L49.9984 73.9002L50.1984 71.7002Z" fill="#BBE5FA"/>
<path d="M44.7 75.3001L39.4 74.9001L39 79.8001L44.3 80.2001L44.7 75.3001Z" fill="#BBE5FA"/>
<path d="M47.1003 79.8H46.8003C45.8003 79.7 45.0003 78.8 45.1003 77.8C45.2003 76.8 46.1003 76 47.1003 76.1H47.4003C48.4003 76.2 49.2003 77.1 49.1003 78.1C49.1003 79.1 48.2003 79.8 47.1003 79.8Z" fill="#F8BF15"/>
</g>
<path d="M182.899 81.6C182.799 80.6 182.999 79.7001 183.099 78.9001C183.499 77.2001 183.699 76.1 181.199 75L181.499 74.3C184.499 75.6 184.199 77.2 183.799 79C183.599 79.8 183.499 80.6 183.599 81.5L182.899 81.6Z" fill="#009AE8"/>
<path d="M185.4 81.6C184.7 80.3 184.2 79.4 185.9 77.9C187.1 76.8 187.7 75.5 187.4 75C187.4 74.9 187.3 74.7 186.7 74.7V74C187.6 74 187.9 74.5 188.1 74.8C188.5 75.8 187.7 77.3 186.4 78.6C185.1 79.7 185.4 80.2 186 81.3L186.1 81.4L185.4 81.6Z" fill="#E3326C"/>
<path d="M193.1 84.1999V73.8999L192.5 73.3999L179.1 73.8999L179.2 84.1999H193.1Z" fill="#004E00"/>
<path d="M192.6 83.6999L192.5 73.3999H178.6V83.6999H192.6Z" fill="#30A658"/>
<path d="M185.199 83.4999V83.3999V76.3999H185.399V83.4999H185.199Z" fill="#6AB360"/>
<path d="M185.198 82.6001H180.898V82.4001H185.198V82.6001Z" fill="#6AB360"/>
<path d="M180.899 82.7001C180.799 82.7001 180.699 82.6 180.699 82.5C180.699 82.4 180.799 82.3 180.899 82.3C180.999 82.3 181.099 82.4 181.099 82.5C181.099 82.6 180.999 82.7001 180.899 82.7001Z" fill="#6AB360"/>
<path d="M185.2 82.7001C185.3 82.7001 185.4 82.6 185.4 82.5C185.4 82.4 185.3 82.3 185.2 82.3C185.1 82.3 185 82.4 185 82.5C185 82.6 185.2 82.7001 185.2 82.7001Z" fill="#6AB360"/>
<path d="M185.198 83.2L180.898 83.1V83H185.198V83.2Z" fill="#6AB360"/>
<path d="M180.899 83.2001C180.799 83.2001 180.699 83.1 180.699 83C180.699 82.9 180.799 82.8 180.899 82.8C180.999 82.8 181.099 82.9 181.099 83C181.099 83.1 180.999 83.2001 180.899 83.2001Z" fill="#6AB360"/>
<path d="M185.2 83.2001C185.3 83.2001 185.4 83.1 185.4 83C185.4 82.9 185.3 82.8 185.2 82.8C185.1 82.8 185 82.9 185 83C185.1 83.2 185.2 83.2001 185.2 83.2001Z" fill="#6AB360"/>
<path d="M185.298 83.7H180.898V83.5H185.298V83.7Z" fill="#6AB360"/>
<path d="M180.899 83.7001C180.799 83.7001 180.699 83.6 180.699 83.5C180.699 83.4 180.799 83.3 180.899 83.3C180.999 83.3 181.099 83.4 181.099 83.5C181.099 83.7 180.999 83.7001 180.899 83.7001Z" fill="#6AB360"/>
<path d="M185.2 83.8001C185.3 83.8001 185.4 83.7001 185.4 83.6001C185.4 83.5001 185.3 83.4001 185.2 83.4001C185.1 83.4001 185 83.5001 185 83.6001C185.1 83.7001 185.2 83.8001 185.2 83.8001Z" fill="#6AB360"/>
<path d="M188.791 76.3057C188.795 76.14 188.664 76.0025 188.498 75.9985C188.332 75.9945 188.195 76.1255 188.191 76.2912C188.187 76.4568 188.318 76.5943 188.484 76.5983C188.649 76.6023 188.787 76.4713 188.791 76.3057Z" fill="#6AB360"/>
<path d="M189.757 76.2761C189.761 76.1105 189.63 75.973 189.465 75.969C189.299 75.9649 189.162 76.096 189.158 76.2616C189.154 76.4272 189.285 76.5648 189.45 76.5688C189.616 76.5728 189.753 76.4418 189.757 76.2761Z" fill="#6AB360"/>
<path d="M190.722 76.3469C190.726 76.1813 190.595 76.0438 190.43 76.0398C190.264 76.0358 190.127 76.1668 190.122 76.3324C190.118 76.4981 190.25 76.6356 190.415 76.6396C190.581 76.6436 190.718 76.5126 190.722 76.3469Z" fill="#6AB360"/>
<path d="M181.443 76.3294C181.447 76.1637 181.316 76.0262 181.15 76.0222C180.985 76.0182 180.847 76.1492 180.843 76.3148C180.839 76.4805 180.97 76.618 181.136 76.622C181.301 76.626 181.439 76.495 181.443 76.3294Z" fill="#6AB360"/>
<path d="M182.412 76.2998C182.416 76.1342 182.285 75.9967 182.119 75.9927C181.953 75.9886 181.816 76.1197 181.812 76.2853C181.808 76.4509 181.939 76.5885 182.105 76.5925C182.27 76.5965 182.408 76.4654 182.412 76.2998Z" fill="#6AB360"/>
<path d="M187.699 74.6V71.8H182.199V74.6H187.699Z" fill="#546573"/>
<path d="M183.379 76.2705C183.383 76.1049 183.252 75.9674 183.086 75.9634C182.92 75.9593 182.783 76.0904 182.779 76.256C182.775 76.4216 182.906 76.5592 183.071 76.5632C183.237 76.5672 183.375 76.4361 183.379 76.2705Z" fill="#6AB360"/>
<path d="M187.601 83.3C187.601 83 187.601 82.7 187.501 82.3C187.401 80.8 187.201 78.9 187.801 78.5L187.901 78.6C187.401 79 187.501 81 187.601 82.3C187.601 82.7 187.701 83 187.701 83.3H187.601Z" fill="#6AB360"/>
<path d="M187.8 83.2999C187.8 83.3999 187.7 83.4999 187.7 83.4999C187.6 83.4999 187.5 83.3999 187.5 83.3999C187.5 83.2999 187.6 83.1999 187.6 83.1999C187.7 83.0999 187.8 83.1999 187.8 83.2999Z" fill="#6AB360"/>
<path d="M188.001 78.6999C188.101 78.6999 188.101 78.5999 188.101 78.4999C188.101 78.3999 188.001 78.3999 187.901 78.3999C187.801 78.3999 187.801 78.4999 187.801 78.5999C187.801 78.6999 187.901 78.6999 188.001 78.6999Z" fill="#6AB360"/>
<path d="M187.501 76.4H183.801V76.2H187.501V76.4Z" fill="#6AB360"/>
<path d="M187.501 75.9H183.801V75.7H187.501V75.9Z" fill="#6AB360"/>
<path d="M182.5 81.8H181.5V78.5H181.7V81.6H182.3V79.2H183.2V81.8H183V79.4H182.5V81.8Z" fill="#6AB360"/>
<path d="M181.4 78.5C181.4 78.4 181.5 78.3 181.6 78.3C181.7 78.3 181.8 78.4 181.8 78.5C181.8 78.6 181.7 78.7001 181.6 78.7001C181.5 78.7001 181.4 78.6 181.4 78.5Z" fill="#6AB360"/>
<path d="M183 81.8001C183 81.9001 183.1 82.0001 183.2 82.0001C183.3 82.0001 183.4 81.9001 183.4 81.8001C183.4 81.7001 183.3 81.6001 183.2 81.6001C183 81.6001 183 81.7001 183 81.8001Z" fill="#6AB360"/>
<path d="M183.599 80.4001H180.199V80.3H183.599V80.4001Z" fill="#FFFF4E"/>
<path d="M183.599 80.0999H180.199V79.8999H183.599V80.0999Z" fill="#FFFF4E"/>
<path d="M183.599 79.9H180.199V79.7L183.599 79.7999V79.9Z" fill="#FFFF4E"/>
<path d="M183.6 79.7999H180.1V79.5999H183.6V79.7999Z" fill="#FFFF4E"/>
<path d="M183.4 79.4H180.1V79.2L183.4 79.2999V79.4Z" fill="#FFFF4E"/>
<path d="M183.4 79.4H180.1V79.2L183.4 79.2999V79.4Z" fill="#FFFF4E"/>
<path d="M183.4 79.0999H180.1V78.8999H183.4V79.0999Z" fill="#FFFF4E"/>
<path d="M183.1 80.9001V78.3H183.2V80.9001H183.1Z" fill="#FFFF4E"/>
<path d="M182.699 80.9V78.2H182.799L182.899 80.9H182.699Z" fill="#FFFF4E"/>
<path d="M182.699 80.9V78.2H182.799L182.899 80.9H182.699Z" fill="#FFFF4E"/>
<path d="M182.299 80.9V78.2H182.499V80.9H182.299Z" fill="#FFFF4E"/>
<path d="M182.1 80.9V78.2H182.3V80.9H182.1Z" fill="#FFFF4E"/>
<path d="M181.9 80.9V78.2H182.1V80.9H181.9Z" fill="#FFFF4E"/>
<path d="M181.5 80.9V78.2H181.7V80.9H181.5Z" fill="#FFFF4E"/>
<path d="M181.5 80.9V78.2H181.7V80.9H181.5Z" fill="#FFFF4E"/>
<path d="M181.1 80.9V78.2H181.3V80.9H181.1Z" fill="#FFFF4E"/>
<path d="M183.7 80.6H180.4V78.8H183.7V80.6Z" fill="#546573"/>
<path d="M183.7 80.6H180.4V80.5H183.7V80.6Z" fill="#546573"/>
<path d="M186.601 77.7999C186.701 77.7999 187.001 77.7 187.001 77.5C187.001 77.4 186.701 77.2 186.601 77.2C186.501 77.2 186.401 77.3 186.401 77.5C186.301 77.7 186.401 77.7999 186.601 77.7999Z" fill="#FF3333"/>
<path d="M187.201 77.7999C187.301 77.7999 187.401 77.7 187.401 77.5C187.401 77.4 187.301 77.2 187.201 77.2C187.101 77.2 186.801 77.3 186.801 77.5C186.801 77.7 187.101 77.7999 187.201 77.7999Z" fill="#FF3333"/>
<path d="M188.001 77.7V81H185.801V77.7H188.001Z" fill="#FF7A38"/>
<path d="M187.101 77.7V81H186.701V77.7H187.101Z" fill="#FF3333"/>
<path d="M185.801 79.2H188.001V79.5H185.801V79.2Z" fill="#FF3333"/>
<path d="M186.7 72L185.7 71.8C185.7 71.5 185.7 71.5 185.7 71.3C185.6 71.1 185.5 70.8 185.6 70.3C185.6 70 185.7 69.5 186.1 69.1C186.5 68.8 186.9 68.8 187.3 68.8C187.5 68.8 187.7 68.8 187.8 68.8C187.9 68.8 188 68.7 188 68.6C188 68.5 188 68.4 188 68.3L188.9 67.8C189.1 68.1 189.1 68.6 188.9 68.9C188.8 69.1 188.7 69.3 188.6 69.4C188.8 69.4 188.9 69.4 189.1 69.4C189.4 69.4 189.7 69.4 190 69.4C190.4 69.3 190.7 69 190.8 68.7C190.9 68.3 190.8 67.9 190.5 67.7L191.2 67C191.7 67.5 191.9 68.3 191.7 69C191.5 69.7 190.9 70.3 190.2 70.4C189.8 70.5 189.4 70.5 189 70.4C188.8 70.4 188.6 70.4 188.4 70.4C187.6 70.6 186.9 71.2 186.7 72ZM187.1 69.9C186.9 69.9 186.8 69.9 186.8 70C186.8 70.1 186.7 70.2 186.7 70.3C186.8 70.2 186.9 70 187.1 69.9Z" fill="#FF3333"/>
<path d="M184.2 72.6999C183.7 71.4999 184 69.8999 185 68.9999C185.2 68.8999 185.3 68.6999 185.5 68.5999C185.8 68.3999 186.1 68.0999 186.2 67.8999L187.1 68.1999C186.9 68.7999 186.4 69.0999 186 69.3999C185.9 69.4999 185.7 69.5999 185.6 69.6999C184.9 70.2999 184.7 71.3999 185 72.1999L184.2 72.6999Z" fill="#6AC86E"/>
<path d="M137.9 63.3001L131.7 59.9001L120.1 81.2001L126.3 84.6001L137.9 63.3001Z" fill="#D92626"/>
<path opacity="0.2" d="M134.2 70.1002L128.4 66.0002L132.8 58.0002L139 61.4002L134.2 70.1002Z" fill="#333333"/>
<path d="M128.6 83.1001L120 78.4001L118 82.1001L126.5 86.8001L128.6 83.1001Z" fill="#333333"/>
<path d="M127.4 85.2001L118.9 80.5001L120.1 78.4001C120.6 77.5001 121.6 77.2001 122.5 77.7001L127.9 80.7001C128.8 81.2001 129.1 82.2001 128.6 83.1001L127.4 85.2001Z" fill="#D92626"/>
<path d="M129.501 74.8002L126.601 73.2002C125.301 72.5002 124.801 70.8002 125.501 69.5002C126.201 68.2002 127.901 67.7002 129.201 68.4002L132.101 70.0002C133.401 70.7002 133.901 72.4002 133.201 73.7002C132.501 75.0002 130.801 75.5002 129.501 74.8002Z" fill="#D92626"/>
<path d="M147.5 73.4002L142.4 68.5002L125.6 86.0002L130.7 90.9002L147.5 73.4002Z" fill="#D92626"/>
<path opacity="0.2" d="M142.1 79.0001L137.6 73.5001L143.9 66.9001L149 71.8001L142.1 79.0001Z" fill="#333333"/>
<path d="M133.3 90.1001L126.3 83.4001L123.4 86.4001L130.4 93.1001L133.3 90.1001Z" fill="#333333"/>
<path d="M131.6 91.8L124.6 85.1L126.3 83.4C127 82.7 128.1 82.7 128.8 83.3L133.3 87.6C134 88.3 134 89.4 133.4 90.1L131.6 91.8Z" fill="#D92626"/>
<path d="M136.3 82.3002L133.9 80.0002C132.8 78.9002 132.8 77.2002 133.8 76.1002C134.9 75.0002 136.6 75.0002 137.7 76.0002L140.1 78.3002C141.2 79.4002 141.2 81.1002 140.2 82.2002C139.2 83.3002 137.4 83.3002 136.3 82.3002Z" fill="#D92626"/>
<path d="M154.801 68.1001L137.601 51.6001C136.901 50.9001 136.901 49.8001 137.501 49.1001L145.701 40.5001C146.401 39.8001 147.501 39.8001 148.201 40.4001L165.401 57.0001C166.101 57.7001 166.101 58.8001 165.501 59.5001L157.301 68.1001C156.601 68.8001 155.501 68.8001 154.801 68.1001Z" fill="#AB47BC"/>
<path d="M145.301 78.0001L128.101 61.5001C127.401 60.8001 127.401 59.7001 128.001 59.0001L142.401 44.0001C143.101 43.3001 144.201 43.3001 144.901 43.9001L162.101 60.4001C162.801 61.1001 162.801 62.2001 162.201 62.9001L147.801 77.9001C147.101 78.6001 146.001 78.7001 145.301 78.0001Z" fill="#8E24AA"/>
<path d="M147 66.3002L139.7 59.3002C139 58.6002 139 57.5002 139.6 56.8002L145.6 50.6002C146.3 49.9002 147.4 49.9002 148.1 50.5002L155.4 57.5002C156.1 58.2002 156.1 59.3002 155.5 60.0002L149.5 66.2002C148.8 67.0002 147.7 67.0002 147 66.3002Z" fill="#333333"/>
<path d="M154.301 59.0002L146.701 51.7002L145.201 53.3002L152.801 60.6002L154.301 59.0002Z" fill="#BBE5FA"/>
<path d="M147.8 58.2002L144 54.5002L140.6 58.1002L144.4 61.8002L147.8 58.2002Z" fill="#BBE5FA"/>
<path d="M146.801 63.3003L146.601 63.1003C145.901 62.4003 145.801 61.2003 146.501 60.5003C147.201 59.8003 148.401 59.7003 149.101 60.4003L149.301 60.6003C150.001 61.3003 150.101 62.5003 149.401 63.2003C148.701 64.0003 147.501 64.0003 146.801 63.3003Z" fill="#F8BF15"/>
<path d="M173 76.5002H149.2C148.2 76.5002 147.4 75.7002 147.4 74.7002V62.8002C147.4 61.8002 148.2 61.0002 149.2 61.0002H173C174 61.0002 174.8 61.8002 174.8 62.8002V74.7002C174.8 75.7002 174 76.5002 173 76.5002Z" fill="#AB47BC"/>
<path d="M173 90.2002H149.2C148.2 90.2002 147.4 89.7002 147.4 89.0002V75.4002C147.4 74.8002 148.2 74.2002 149.2 74.2002H173C174 74.2002 174.8 74.7002 174.8 75.4002V89.0002C174.8 89.6002 174 90.2002 173 90.2002Z" fill="#8E24AA"/>
<path d="M155.7 84.9003C153.9 84.3003 151.8 85.2003 151.2 87.1003L145.6 103.4C145 105.2 145.9 107.3 147.8 107.9C149.6 108.5 151.7 107.6 152.3 105.7L157.9 89.4003C158.5 87.6003 157.5 85.6003 155.7 84.9003Z" fill="#FF3333"/>
<path d="M152.399 109.4L143.199 106.2L143.999 104C144.299 103.1 145.299 102.6 146.199 102.9L151.999 104.9C152.899 105.2 153.399 106.2 153.099 107.1L152.399 109.4Z" fill="#FF3333"/>
<path d="M151.2 106.5L146 104.7C144.9 104.3 143.7 104.9 143.3 106C142.9 107.1 143.5 108.3 144.6 108.7L149.8 110.5C150.9 110.9 152.1 110.3 152.5 109.2C152.8 108 152.3 106.8 151.2 106.5Z" fill="#333333"/>
<path d="M153.5 98.5004L150.2 98.4004C148.7 98.3004 147.5 97.1004 147.6 95.5004C147.7 94.0004 148.9 92.8004 150.5 92.9004L153.8 93.0004C155.3 93.1004 156.5 94.3004 156.4 95.9004C156.3 97.4004 155.1 98.5004 153.5 98.5004Z" fill="#FF3333"/>
<path d="M166.201 84.1003H156.101C155.101 84.1003 154.301 83.6003 154.301 83.0003V77.7003C154.301 77.1003 155.101 76.6003 156.101 76.6003H166.201C167.201 76.6003 168.001 77.1003 168.001 77.7003V83.0003C168.001 83.6003 167.201 84.1003 166.201 84.1003Z" fill="#333333"/>
<path d="M166.401 77.7004H155.801V79.1004H166.401V77.7004Z" fill="#BBE5FA"/>
<path d="M161.101 80.2004H155.801V83.2004H161.101V80.2004Z" fill="#BBE5FA"/>
<path d="M163.901 82.8003H163.601C162.601 82.8003 161.701 82.3003 161.701 81.7003C161.701 81.1003 162.501 80.6003 163.601 80.6003H163.901C164.901 80.6003 165.801 81.1003 165.801 81.7003C165.801 82.3003 165.001 82.8003 163.901 82.8003Z" fill="#F8BF15"/>
<path d="M164.601 89.4003L170.201 105.7C170.801 107.5 172.801 108.5 174.701 107.9C176.501 107.3 177.501 105.3 176.901 103.4L171.301 87.1003C170.701 85.3003 168.701 84.3003 166.801 84.9003C164.901 85.6003 163.901 87.6003 164.601 89.4003Z" fill="#FF3333"/>
<path d="M170.1 109.4L169.3 107.1C169 106.2 169.5 105.2 170.4 104.9L176.2 102.9C177.1 102.6 178.1 103.1 178.4 104L179.2 106.3L170.1 109.4Z" fill="#FF3333"/>
<path d="M169.999 109.1C170.399 110.2 171.599 110.8 172.699 110.4L177.899 108.6C178.999 108.2 179.599 107 179.199 105.9C178.799 104.8 177.599 104.2 176.499 104.6L171.299 106.4C170.199 106.8 169.599 108 169.999 109.1Z" fill="#333333"/>
<path d="M166.1 96.4003C165.8 94.9003 166.8 93.5003 168.3 93.2003L171.6 92.6003C173.1 92.3003 174.5 93.3003 174.8 94.8003C175.1 96.3003 174.1 97.7003 172.6 98.0003L169.3 98.6003C167.8 98.9003 166.4 97.9003 166.1 96.4003Z" fill="#FF3333"/>
<path d="M161.199 69.5002C163.685 69.5002 165.699 68.1571 165.699 66.5002C165.699 64.8434 163.685 63.5002 161.199 63.5002C158.714 63.5002 156.699 64.8434 156.699 66.5002C156.699 68.1571 158.714 69.5002 161.199 69.5002Z" fill="#8E24AA"/>
<path d="M198.299 91.1L197.999 86.2L193.899 85.3L190.299 86.6L189.799 87.6L190.099 92.4L194.399 94.6L198.399 92L198.299 91.1ZM194.899 88.3C195.599 88.7 195.999 89.4 195.899 90.2C195.399 90.7 194.699 91 193.899 91.3C191.699 92.2 191.799 90.1 192.799 88.6C193.299 88.1 194.199 87.9 194.899 88.3Z" fill="#8A9096"/>
<path d="M193.099 90.5C192.199 90 191.799 88.9 192.299 88C192.799 87.1 193.899 86.7 194.699 87.2C195.599 87.7 195.999 88.8 195.499 89.6C195.099 90.6 193.999 90.9 193.099 90.5ZM197.999 86.2L193.699 84L189.699 86.6L189.999 91.4L194.299 93.6L198.299 91L197.999 86.2Z" fill="#B9BDC3"/>
<path d="M186.6 99.3999L189.1 95.1999L186.2 92.0999L182.5 91.0999L181.5 91.6999L179 95.7999L181.3 99.9999L186.1 100.1L186.6 99.3999ZM185.4 95.0998C185.8 95.7998 185.6 96.5999 185.1 97.1999C184.4 97.2999 183.6 97.1999 182.8 96.9999C180.5 96.3999 181.7 94.7999 183.4 94.1999C184.2 93.9999 185 94.2998 185.4 95.0998Z" fill="#8A9096"/>
<path d="M182.7 95.8998C182.2 94.9998 182.6 93.8998 183.4 93.3998C184.3 92.8998 185.4 93.2998 185.9 94.0998C186.4 94.9998 186 96.0998 185.2 96.5998C184.3 97.0998 183.2 96.6998 182.7 95.8998ZM189.1 95.0998L186.8 90.8998L182 90.7998L179.5 94.8998L181.8 99.0998L186.6 99.1998L189.1 95.0998Z" fill="#B9BDC3"/>
<path d="M112.299 63.1002L109.399 59.2002L105.499 60.7002L103.199 63.7002L103.299 64.9002L106.099 68.8002L110.899 68.3002L112.899 63.9002L112.299 63.1002ZM107.899 62.6002C108.699 62.5002 109.399 63.0002 109.699 63.7002C109.499 64.4002 109.099 65.1002 108.599 65.7002C107.199 67.6002 106.199 65.9002 106.199 64.0002C106.499 63.2002 107.099 62.6002 107.899 62.6002Z" fill="#8A9096"/>
<path d="M107.6 65.3001C106.6 65.4001 105.7 64.7001 105.6 63.7001C105.5 62.7001 106.2 61.8001 107.2 61.7001C108.2 61.6001 109.1 62.3001 109.2 63.3001C109.3 64.3001 108.6 65.2001 107.6 65.3001ZM109.4 59.1001L104.6 59.6001L102.6 64.0001L105.4 67.9001L110.2 67.4001L112.2 63.0001L109.4 59.1001Z" fill="#B9BDC3"/>
<path d="M113.5 80H113.1V88.4H113.5V80Z" fill="#FFFF4E"/>
<path d="M112.8 80H112.4V88.4H112.8V80Z" fill="#FFFF4E"/>
<path d="M112 80H111.6V88.4H112V80Z" fill="#FFFF4E"/>
<path d="M111.3 80H110.9V88.4H111.3V80Z" fill="#FFFF4E"/>
<path d="M110.5 79.7H110.1V88.0999H110.5V79.7Z" fill="#FFFF4E"/>
<path d="M109.8 79.7H109.4V88.0999H109.8V79.7Z" fill="#FFFF4E"/>
<path d="M109 79.7H108.6V88.0999H109V79.7Z" fill="#FFFF4E"/>
<path d="M115.3 86.8999H106.4V87.2999H115.3V86.8999Z" fill="#FFFF4E"/>
<path d="M115.3 86.3H106.4V86.7001H115.3V86.3Z" fill="#FFFF4E"/>
<path d="M115.3 85.7H106.4V86.0999H115.3V85.7Z" fill="#FFFF4E"/>
<path d="M115.3 85.2H106.4V85.5999H115.3V85.2Z" fill="#FFFF4E"/>
<path d="M115.3 84.5999H106.4V84.9999H115.3V84.5999Z" fill="#FFFF4E"/>
<path d="M115.3 84H106.4V84.4H115.3V84Z" fill="#FFFF4E"/>
<path d="M115.3 83.3999H106.4V83.7999H115.3V83.3999Z" fill="#FFFF4E"/>
<path d="M115.3 82.8H106.4V83.2001H115.3V82.8Z" fill="#FFFF4E"/>
<path d="M115.3 82.3H106.4V82.7001H115.3V82.3Z" fill="#FFFF4E"/>
<path d="M107.729 81.0208L107.729 92.0208L114.329 92.0208L114.329 81.0208L107.729 81.0208Z" fill="#546573"/>
<path d="M107.752 80.4972L107.752 91.0972L114.352 91.0972L114.352 80.4972L107.752 80.4972Z" fill="#546573"/>
<path d="M110.101 90.0999H109.701V83.7H111.201V88.2999H112.001V83.7999H112.401V88.7H110.901V84.0999H110.101V90.0999Z" fill="#6AB360"/>
<path d="M110.301 90.1C110.301 90.3 110.201 90.4001 110.001 90.4001C109.801 90.4001 109.701 90.3 109.701 90.1C109.701 89.9 109.801 89.8 110.001 89.8C110.201 89.8 110.301 89.9 110.301 90.1Z" fill="#6AB360"/>
<path d="M112.2 84.1C112.366 84.1 112.5 83.9657 112.5 83.8C112.5 83.6343 112.366 83.5 112.2 83.5C112.035 83.5 111.9 83.6343 111.9 83.8C111.9 83.9657 112.035 84.1 112.2 84.1Z" fill="#6AB360"/>
<path d="M109.561 81.1368L109.561 82.7368L112.161 82.7368L112.161 81.1368L109.561 81.1368Z" fill="black"/>
<path d="M193.5 67L183.6 69.4C182.7 69.6 181.7 69.1 181.5 68.1L179.5 59.7C179.3 58.8 179.8 57.8 180.8 57.6L190.7 55.2C191.6 55 192.6 55.5 192.8 56.5L194.8 64.9C195 65.8 194.4 66.7 193.5 67Z" fill="#B9BDC3"/>
<path d="M193.5 66.1999L183.6 68.5999C182.7 68.7999 181.7 68.2999 181.5 67.2999L179.5 58.8999C179.3 57.9999 179.8 56.9999 180.8 56.7999L190.7 54.3999C191.6 54.1999 192.6 54.6999 192.8 55.6999L194.8 64.0999C195 64.9999 194.4 65.9999 193.5 66.1999Z" fill="#333333"/>
<path d="M191.2 56.0999L181 58.5999L181.5 60.6999L191.8 58.1999L191.2 56.0999Z" fill="#BBE5FA"/>
<path d="M187 61.2L181.9 62.5L183.1 67.2999L188.2 66L187 61.2Z" fill="#BBE5FA"/>
<path d="M190.7 64.7998L190.5 64.8998C189.5 65.0998 188.5 64.4998 188.2 63.4998C188 62.4998 188.6 61.4998 189.6 61.1998L189.8 61.0998C190.8 60.8998 191.8 61.4998 192.1 62.4998C192.4 63.4998 191.8 64.4998 190.7 64.7998Z" fill="#F8BF15"/>
<path d="M47.7992 132.3H40.6992V156.6H47.7992V132.3Z" fill="#FF3333"/>
<path opacity="0.2" d="M47.6992 140.1L40.6992 139.2V130.1H47.6992V140.1Z" fill="#333333"/>
<path d="M49.1004 154.2H39.4004V158.4H49.1004V154.2Z" fill="#333333"/>
<path d="M49.1004 156.6H39.4004V154.2C39.4004 153.2 40.2004 152.4 41.2004 152.4H47.3004C48.3004 152.4 49.1004 153.2 49.1004 154.2V156.6Z" fill="#FF3333"/>
<path d="M45.9008 146.4H42.6008C41.1008 146.4 39.8008 145.2 39.8008 143.6C39.8008 142.1 41.0008 140.8 42.6008 140.8H45.9008C47.4008 140.8 48.7008 142 48.7008 143.6C48.6008 145.2 47.4008 146.4 45.9008 146.4Z" fill="#FF3333"/>
<path d="M61.0004 132.3H53.9004V156.6H61.0004V132.3Z" fill="#FF3333"/>
<path opacity="0.2" d="M61.0004 140.1L53.9004 139.2V130.1H61.0004V140.1Z" fill="#333333"/>
<path d="M62.2996 154.2H52.5996V158.4H62.2996V154.2Z" fill="#333333"/>
<path d="M62.2996 156.6H52.5996V154.2C52.5996 153.2 53.3996 152.4 54.3996 152.4H60.5996C61.5996 152.4 62.3996 153.2 62.3996 154.2V156.6H62.2996Z" fill="#FF3333"/>
<path d="M59.1 146.4H55.8C54.3 146.4 53 145.2 53 143.6C53 142.1 54.2 140.8 55.8 140.8H59.1C60.6 140.8 61.9 142 61.9 143.6C61.9 145.2 60.6 146.4 59.1 146.4Z" fill="#FF3333"/>
<path d="M62.6 123.5H38.8C37.8 123.5 37 122.7 37 121.7V109.8C37 108.8 37.8 108 38.8 108H62.6C63.6 108 64.4 108.8 64.4 109.8V121.7C64.4 122.7 63.6 123.5 62.6 123.5Z" fill="#AB47BC"/>
<path d="M62.6 137.1H38.8C37.8 137.1 37 136.3 37 135.3V114.6C37 113.6 37.8 112.8 38.8 112.8H62.6C63.6 112.8 64.4 113.6 64.4 114.6V135.3C64.4 136.3 63.6 137.1 62.6 137.1Z" fill="#8E24AA"/>
<path d="M55.8008 127.5H45.6008C44.6008 127.5 43.8008 126.7 43.8008 125.7V117.1C43.8008 116.1 44.6008 115.3 45.6008 115.3H55.7008C56.7008 115.3 57.5008 116.1 57.5008 117.1V125.7C57.5008 126.7 56.7008 127.5 55.8008 127.5Z" fill="#333333"/>
<path d="M56.0004 117.2H45.4004V119.4H56.0004V117.2Z" fill="#BBE5FA"/>
<path d="M50.7004 121.2H45.4004V126.1H50.7004V121.2Z" fill="#BBE5FA"/>
<path d="M53.5008 125.5H53.2008C52.2008 125.5 51.3008 124.7 51.3008 123.6C51.3008 122.6 52.1008 121.7 53.2008 121.7H53.5008C54.5008 121.7 55.4008 122.5 55.4008 123.6C55.3008 124.7 54.5008 125.5 53.5008 125.5Z" fill="#F8BF15"/>
<path d="M194.4 140.7L194.1 133.6L169.9 134.6L170.2 141.7L194.4 140.7Z" fill="#FF3333"/>
<path opacity="0.2" d="M186.6 141L187.2 133.9L196.3 133.5L196.6 140.5L186.6 141Z" fill="#333333"/>
<path d="M172.6 142.9L172.2 133.2L168 133.4L168.4 143.1L172.6 142.9Z" fill="#333333"/>
<path d="M170.201 143L169.801 133.3L172.201 133.2C173.201 133.2 174.001 133.9 174.001 134.9L174.301 141.1C174.301 142.1 173.601 142.9 172.601 142.9L170.201 143Z" fill="#FF3333"/>
<path d="M180.2 139.4L180.1 136.1C180 134.6 181.2 133.3 182.7 133.2C184.2 133.1 185.5 134.3 185.6 135.8L185.7 139.1C185.8 140.6 184.6 141.9 183.1 142C181.5 142.1 180.3 140.9 180.2 139.4Z" fill="#FF3333"/>
<path d="M194.9 153.9L194.6 146.8L170.4 147.8L170.7 154.9L194.9 153.9Z" fill="#FF3333"/>
<path opacity="0.2" d="M187.199 154.2L187.799 147.1L196.899 146.7L197.199 153.8L187.199 154.2Z" fill="#333333"/>
<path d="M173.2 156.1L172.8 146.4L168.6 146.6L169 156.3L173.2 156.1Z" fill="#333333"/>
<path d="M170.701 156.2L170.301 146.5L172.701 146.4C173.701 146.4 174.501 147.1 174.501 148.1L174.801 154.3C174.801 155.3 174.101 156.1 173.101 156.1L170.701 156.2Z" fill="#FF3333"/>
<path d="M180.7 152.6L180.6 149.3C180.5 147.8 181.7 146.5 183.2 146.4C184.7 146.3 186 147.5 186.1 149L186.2 152.3C186.3 153.8 185.1 155.1 183.6 155.2C182.1 155.3 180.8 154.1 180.7 152.6Z" fill="#FF3333"/>
<path d="M203.801 155.1L202.801 131.3C202.801 130.3 203.501 129.5 204.501 129.5L216.401 129C217.401 129 218.201 129.7 218.201 130.7L219.201 154.5C219.201 155.5 218.501 156.3 217.501 156.3L205.601 156.8C204.701 156.9 203.901 156.1 203.801 155.1Z" fill="#AB47BC"/>
<path d="M190.199 155.7L189.199 131.9C189.199 130.9 189.899 130.1 190.899 130.1L211.599 129.2C212.599 129.2 213.399 129.9 213.399 130.9L214.399 154.7C214.399 155.7 213.699 156.5 212.699 156.5L191.999 157.4C190.999 157.4 190.199 156.7 190.199 155.7Z" fill="#8E24AA"/>
<path d="M199.5 148.5L199.1 138.4C199.1 137.4 199.8 136.6 200.8 136.6L209.4 136.2C210.4 136.2 211.2 136.9 211.2 137.9L211.6 148C211.6 149 210.9 149.8 209.9 149.8L201.3 150.2C200.3 150.2 199.5 149.4 199.5 148.5Z" fill="#333333"/>
<path d="M209.799 148.3L209.399 137.7L207.199 137.8L207.599 148.4L209.799 148.3Z" fill="#BBE5FA"/>
<path d="M205.6 143.1L205.4 137.8L200.5 138L200.7 143.3L205.6 143.1Z" fill="#BBE5FA"/>
<path d="M201.4 146.1V145.8C201.4 144.8 202.2 143.9 203.2 143.9C204.2 143.9 205.1 144.7 205.1 145.7V146C205.1 147 204.3 147.9 203.3 147.9C202.3 147.9 201.5 147.1 201.4 146.1Z" fill="#F8BF15"/>
<path d="M93.7387 55.8H69.9387C68.9387 55.8 68.1387 55 68.1387 54V42.1C68.1387 41.1 68.9387 40.3 69.9387 40.3H93.7387C94.7387 40.3 95.5387 41.1 95.5387 42.1V54C95.5387 55 94.7387 55.8 93.7387 55.8Z" fill="#AB47BC"/>
<path d="M93.7387 69.5H69.9387C68.9387 69.5 68.1387 69 68.1387 68.3V54.7C68.1387 54.1 68.9387 53.5 69.9387 53.5H93.7387C94.7387 53.5 95.5387 54 95.5387 54.7V68.3C95.5387 69 94.7387 69.5 93.7387 69.5Z" fill="#8E24AA"/>
<path d="M76.4385 64.2001C74.6385 63.6001 72.5385 64.5001 71.9385 66.4001L66.3385 82.7001C65.7385 84.5001 66.6385 86.6001 68.5385 87.2001C70.3385 87.8001 72.4385 86.9001 73.0385 85.0001L78.6385 68.7001C79.2385 66.9001 78.2385 64.9001 76.4385 64.2001Z" fill="#FF3333"/>
<path d="M73.1375 88.8L63.9375 85.6L64.7375 83.3C65.0375 82.4 66.0375 81.9 66.9375 82.2L72.7375 84.2C73.6375 84.5 74.1375 85.5 73.8375 86.4L73.1375 88.8Z" fill="#FF3333"/>
<path d="M71.9384 85.8001L66.7384 84.0001C65.6384 83.6001 64.4384 84.2001 64.0384 85.3001C63.6384 86.4001 64.2384 87.6001 65.3384 88.0001L70.5384 89.7001C71.6384 90.1001 72.8384 89.5001 73.2384 88.4001C73.5384 87.3001 73.0384 86.2001 71.9384 85.8001Z" fill="#333333"/>
<path d="M74.2379 77.8002L70.9379 77.7002C69.4379 77.6002 68.2379 76.4002 68.3379 74.8002C68.4379 73.3002 69.6379 72.1002 71.2379 72.2002L74.5379 72.3002C76.0379 72.4002 77.2379 73.6002 77.1379 75.2002C77.0379 76.7002 75.7379 77.9002 74.2379 77.8002Z" fill="#FF3333"/>
<path d="M86.9375 63.4001H76.7375C75.7375 63.4001 74.9375 62.9001 74.9375 62.3001V57.0001C74.9375 56.4001 75.7375 55.9001 76.7375 55.9001H86.8375C87.8375 55.9001 88.6375 56.4001 88.6375 57.0001V62.3001C88.6375 62.9001 87.9375 63.4001 86.9375 63.4001Z" fill="#333333"/>
<path d="M87.1371 57.0002H76.5371V58.4002H87.1371V57.0002Z" fill="#BBE5FA"/>
<path d="M81.8371 59.5002H76.5371V62.5002H81.8371V59.5002Z" fill="#BBE5FA"/>
<path d="M84.6375 62.1001H84.3375C83.3375 62.1001 82.4375 61.6001 82.4375 61.0001C82.4375 60.4001 83.2375 59.9001 84.3375 59.9001H84.6375C85.6375 59.9001 86.5375 60.4001 86.5375 61.0001C86.5375 61.6001 85.6375 62.1001 84.6375 62.1001Z" fill="#F8BF15"/>
<path d="M85.2389 68.7001L90.8389 85.0001C91.4389 86.8001 93.4389 87.8001 95.3389 87.2001C97.1389 86.6001 98.1389 84.6001 97.5389 82.7001L91.9389 66.4001C91.3389 64.6001 89.3389 63.6001 87.4389 64.2001C85.6389 64.9001 84.6389 66.9001 85.2389 68.7001Z" fill="#FF3333"/>
<path d="M90.8384 88.8001L90.0384 86.5001C89.7384 85.6001 90.2384 84.6001 91.1384 84.3001L96.9384 82.3001C97.8384 82.0001 98.8384 82.5001 99.1384 83.4001L99.9384 85.7001L90.8384 88.8001Z" fill="#FF3333"/>
<path d="M90.7376 88.4C91.1376 89.5 92.3376 90.1 93.4376 89.7L98.6376 87.9C99.7376 87.5 100.338 86.3 99.9376 85.2C99.5376 84.1 98.3376 83.5 97.2376 83.9L92.0376 85.7C90.9376 86.2 90.3376 87.3 90.7376 88.4Z" fill="#333333"/>
<path d="M86.8384 75.7001C86.5384 74.2001 87.5384 72.8001 89.0384 72.5001L92.3384 71.9001C93.8384 71.6001 95.2384 72.6001 95.5384 74.1001C95.8384 75.6001 94.8384 77.0001 93.3384 77.3001L90.0384 77.9001C88.5384 78.2001 87.0384 77.2001 86.8384 75.7001Z" fill="#FF3333"/>
<path d="M81.9375 48.8C84.4228 48.8 86.4375 47.4569 86.4375 45.8C86.4375 44.1432 84.4228 42.8 81.9375 42.8C79.4522 42.8 77.4375 44.1432 77.4375 45.8C77.4375 47.4569 79.4522 48.8 81.9375 48.8Z" fill="#8E24AA"/>
<path d="M75.1836 41.2393L75.1836 46.7393L90.2836 46.7393L90.2836 41.2393L75.1836 41.2393Z" fill="#454B58"/>
<path opacity="0.2" d="M84.8383 41.2C82.2383 43.2 79.2383 45 76.2383 46.7H90.2383V41.2H84.8383Z" fill="#454B58"/>
<path d="M82.3383 43.8L81.1383 43.2C81.5383 42.5 81.5383 41.8 81.1383 41.2C80.5383 40.3 79.1383 40.3 78.7383 40.3C78.3383 40.3 77.9383 40.4 77.5383 40.4C76.8383 40.5 76.1383 40.6 75.3383 40.5C74.0383 40.5 72.5383 39.7 72.2383 38.2L73.5383 38C73.6383 38.8 74.6383 39.2 75.4383 39.3C76.0383 39.4 76.6383 39.3 77.3383 39.2C77.8383 39.1 78.2383 39.1 78.7383 39.1C80.3383 39 81.6383 39.6 82.3383 40.6C82.9383 41.4 82.9383 42.7 82.3383 43.8Z" fill="#009AE8"/>
<path d="M71.0379 45.1001C70.6379 45.1001 70.1379 45.1001 69.7379 45.0001C67.5379 44.7001 65.8379 42.9001 65.8379 41.6001H66.1379C66.1379 42.8001 67.7379 44.4001 69.7379 44.6001C70.8379 44.7001 72.0379 44.6001 73.1379 44.6001C73.5379 44.6001 73.9379 44.5001 74.3379 44.4001C74.6379 44.3001 74.9379 44.1001 74.9379 43.9001V43.8001H75.0379C76.5379 43.4001 78.3379 43.4001 79.8379 43.9001L79.7379 44.2001C78.3379 43.8001 76.6379 43.7001 75.2379 44.1001C75.1379 44.4001 74.8379 44.6001 74.4379 44.7001C74.0379 44.8001 73.6379 44.9001 73.2379 44.9001C72.5379 45.0001 71.7379 45.1001 71.0379 45.1001Z" fill="#F9C051"/>
<path d="M71.6383 45.5999C71.0383 45.5999 70.4383 45.5999 69.7383 45.4999C69.1383 45.3999 67.3383 45.0999 66.7383 43.8999L67.9383 43.2999C68.1383 43.5999 68.8383 44.0999 69.9383 44.1999C71.9383 44.4999 73.4383 44.2999 74.4383 43.7999C75.2383 43.3999 75.7383 43.1999 76.8383 43.1999C77.9383 43.0999 79.1383 43.1999 80.1383 43.5999L79.5383 44.6999C78.7383 44.3999 77.7383 44.2999 76.7383 44.3999C75.8383 44.4999 75.5383 44.5999 74.9383 44.8999C74.1383 45.3999 73.0383 45.5999 71.6383 45.5999Z" fill="#E3326C"/>
<path d="M76.7383 94.5001L77.3383 101.5L101.538 99.4001L100.938 92.4001L76.7383 94.5001Z" fill="#D92626"/>
<path opacity="0.2" d="M84.4391 93.8L84.2391 100.9L75.1391 101.7L74.5391 94.7001L84.4391 93.8Z" fill="#333333"/>
<path d="M98.3379 91.2001L99.2379 100.9L103.438 100.5L102.538 90.9001L98.3379 91.2001Z" fill="#333333"/>
<path d="M100.738 91L101.638 100.7L99.2376 100.9C98.2376 101 97.4376 100.3 97.3376 99.3L96.8376 93.1C96.7376 92.1 97.4376 91.3 98.4376 91.2L100.738 91Z" fill="#D92626"/>
<path d="M90.9379 95.1001L91.2379 98.4001C91.3379 99.9001 90.2379 101.3 88.7379 101.4C87.2379 101.5 85.8379 100.4 85.7379 98.9001L85.4379 95.6001C85.3379 94.1001 86.4379 92.7001 87.9379 92.6001C89.4379 92.5001 90.7379 93.6001 90.9379 95.1001Z" fill="#D92626"/>
<path d="M79.7391 80.9001L78.5391 87.9001L102.439 92.1001L103.639 85.1001L79.7391 80.9001Z" fill="#D92626"/>
<path opacity="0.2" d="M87.4379 82.2001L85.3379 89.0001L76.3379 87.4001L77.5379 80.4001L87.4379 82.2001Z" fill="#333333"/>
<path d="M101.538 83.4001L99.8379 92.9001L103.938 93.6001L105.638 84.1001L101.538 83.4001Z" fill="#333333"/>
<path d="M103.939 83.8001L102.239 93.3001L99.8387 92.9001C98.8387 92.7001 98.2387 91.8001 98.4387 90.9001L99.5387 84.8001C99.7387 83.8001 100.639 83.2001 101.539 83.4001L103.939 83.8001Z" fill="#D92626"/>
<path d="M93.3384 85.2L92.7384 88.5C92.5384 90 91.0384 91 89.5384 90.7C88.0384 90.4 87.0384 89 87.3384 87.5L87.9384 84.2C88.2384 82.7 89.6384 81.7 91.1384 82C92.6384 82.3 93.6384 83.7 93.3384 85.2Z" fill="#D92626"/>
<path d="M71.3383 77.8L67.1383 101.3C66.9383 102.3 66.0383 102.9 65.1383 102.7L53.4383 100.6C52.4383 100.4 51.8383 99.5 52.0383 98.6L56.2383 75.2C56.4383 74.2 57.3383 73.6 58.2383 73.8L69.9383 75.7C70.8383 75.9 71.5383 76.8 71.3383 77.8Z" fill="#AB47BC"/>
<path d="M84.8391 80.1001L80.6391 103.6C80.4391 104.6 79.5391 105.2 78.6391 105L58.2391 101.4C57.2391 101.2 56.6391 100.3 56.8391 99.4001L61.0391 76.0001C61.2391 75.0001 62.1391 74.4001 63.0391 74.6001L83.4391 78.2001C84.3391 78.3001 84.9391 79.2001 84.8391 80.1001Z" fill="#8E24AA"/>
<path d="M74.1387 85.1999L72.3387 95.1999C72.1387 96.1999 71.2387 96.7999 70.3387 96.5999L61.8387 95.0999C60.8387 94.8999 60.2387 93.9999 60.4387 93.0999L62.2387 83.0999C62.4387 82.0999 63.3387 81.4999 64.2387 81.6999L72.7387 83.1999C73.7387 83.2999 74.3387 84.1999 74.1387 85.1999Z" fill="#333333"/>
<path d="M64.0383 83.2L62.2383 93.6L64.4383 94L66.2383 83.6L64.0383 83.2Z" fill="#BBE5FA"/>
<path d="M67.0387 89.0999L66.1387 94.2999L71.0387 95.1999L71.9387 89.9999L67.0387 89.0999Z" fill="#BBE5FA"/>
<path d="M71.7381 87.0999V87.3999C71.5381 88.3999 70.6381 89.0999 69.5381 88.8999C68.5381 88.6999 67.8381 87.6999 68.0381 86.6999V86.3999C68.2381 85.3999 69.1381 84.6999 70.2381 84.8999C71.2381 85.0999 71.9381 86.0999 71.7381 87.0999Z" fill="#F8BF15"/>
<path d="M126.074 99.5084C125.974 99.5084 125.974 99.6084 125.874 99.6084L117.474 103.808C116.574 104.208 115.574 103.908 115.174 103.008C114.774 102.108 115.074 101.108 115.974 100.708L124.374 96.5084C124.474 96.5084 124.474 96.4084 124.574 96.4084C124.574 94.9084 125.374 93.4084 126.774 92.7084C128.274 92.0084 129.974 92.2084 131.174 93.3084L127.874 95.0084L129.274 97.8084L132.574 96.1084C132.674 97.7084 131.874 99.2084 130.374 100.008C128.874 100.708 127.174 100.408 126.074 99.5084Z" fill="#74797E"/>
<path d="M126.574 98.2083C126.474 98.2083 126.474 98.3083 126.374 98.3083L117.974 102.508C117.074 102.908 116.074 102.608 115.674 101.708C115.274 100.808 115.574 99.8083 116.474 99.4083L124.874 95.2083C124.974 95.2083 124.974 95.1083 125.074 95.1083C125.074 93.6083 125.874 92.1083 127.274 91.4083C128.774 90.7083 130.474 90.9083 131.674 92.0083L128.374 93.7083L129.774 96.5083L133.074 94.8083C133.174 96.4083 132.374 97.9083 130.874 98.7083C129.374 99.4083 127.774 99.2083 126.574 98.2083Z" fill="#B9BDC3"/>
<path d="M206.301 169.5C210.443 169.5 213.801 168.291 213.801 166.8C213.801 165.309 210.443 164.1 206.301 164.1C202.159 164.1 198.801 165.309 198.801 166.8C198.801 168.291 202.159 169.5 206.301 169.5Z" fill="#B9BDC3"/>
<path d="M209.801 100.1H202.701V165.7H209.801V100.1Z" fill="#B9BDC3"/>
<path opacity="0.2" d="M209.8 100.1H207.9V165.7H209.8V100.1Z" fill="black"/>
<path d="M211.502 76H201.102V112H211.502V76Z" fill="#FA9664"/>
<path d="M211.402 76L201.102 81.3V76.1L201.202 76H211.402Z" fill="#FFF173"/>
<path d="M211.502 83.0999L201.102 88.4999V83.2999L211.502 77.8999V83.0999Z" fill="#FFF173"/>
<path d="M211.502 90.3001L201.102 95.7001V90.5001L211.502 85.1001V90.3001Z" fill="#FFF173"/>
<path d="M211.502 97.5L201.102 102.9V97.7001L211.502 92.3V97.5Z" fill="#FFF173"/>
<path d="M211.502 104.7L201.102 110.1V104.8L211.502 99.5V104.7Z" fill="#FFF173"/>
<path d="M211.501 106.7V111.9L211.301 112H201.201L211.501 106.7Z" fill="#FFF173"/>
<path d="M211.502 76H201.102V112H211.502V76Z" fill="#FA9664"/>
<path d="M211.402 76L201.102 81.3V76.1L201.202 76H211.402Z" fill="#FFF173"/>
<path d="M211.502 83.0999L201.102 88.4999V83.2999L211.502 77.8999V83.0999Z" fill="#FFF173"/>
<path d="M211.502 90.3001L201.102 95.7001V90.5001L211.502 85.1001V90.3001Z" fill="#FFF173"/>
<path d="M211.502 97.5L201.102 102.9V97.7001L211.502 92.3V97.5Z" fill="#FFF173"/>
<path d="M211.502 104.7L201.102 110.1V104.8L211.502 99.5V104.7Z" fill="#FFF173"/>
<path d="M211.501 106.7V111.9L211.301 112L211.101 112.2C208.401 115.2 203.701 115.1 201.201 112L211.501 106.7Z" fill="#FFF173"/>
<path opacity="0.2" d="M211.501 111.9L209.301 113.7V76H211.501V111.9Z" fill="black"/>
<path d="M206.1 79.7999C213.335 79.7999 219.2 77.6509 219.2 75C219.2 72.349 213.335 70.2 206.1 70.2C198.865 70.2 193 72.349 193 75C193 77.6509 198.865 79.7999 206.1 79.7999Z" fill="#FA9664"/>
<path d="M206.1 78.9999C213.335 78.9999 219.2 76.8509 219.2 74.1999C219.2 71.5489 213.335 69.3999 206.1 69.3999C198.865 69.3999 193 71.5489 193 74.1999C193 76.8509 198.865 78.9999 206.1 78.9999Z" fill="#FFF173"/>
<path d="M218.199 73.3001C218.199 75.6001 212.799 77.5001 206.199 77.5001C203.499 77.5001 200.999 77.2001 198.999 76.6001C198.399 76.4001 197.799 76.3001 197.299 76.1001C196.999 76.0001 196.699 75.9001 196.499 75.8001C196.199 75.7001 195.899 75.5001 195.699 75.4001C194.699 74.8001 194.199 74.1001 194.199 73.3001C194.199 72.5001 194.799 71.8001 195.699 71.2001C195.899 71.0001 196.199 70.9001 196.499 70.8001C196.699 70.7001 196.999 70.6001 197.299 70.5001C197.799 70.3001 198.299 70.1001 198.999 70.0001C200.999 69.5001 203.499 69.1001 206.199 69.1001C212.799 69.1001 218.199 71.0001 218.199 73.3001Z" fill="#6AC86E"/>
<path d="M218.1 54.1001H195.4V73.6001H218.1V54.1001Z" fill="#219750"/>
<path d="M217.5 54.1001H194V73.6001H217.5V54.1001Z" fill="#6AC86E"/>
<path d="M213.499 73.3001C213.499 74.3001 210.199 75.1001 206.099 75.1001C201.999 75.1001 198.699 74.3001 198.699 73.3001C198.699 72.3001 201.999 66.4001 206.099 66.4001C210.199 66.4001 213.499 72.3001 213.499 73.3001Z" fill="#219750"/>
<path d="M200.699 73.1C203.185 73.1 205.199 70.1003 205.199 66.4C205.199 62.6996 203.185 59.7 200.699 59.7C198.214 59.7 196.199 62.6996 196.199 66.4C196.199 70.1003 198.214 73.1 200.699 73.1Z" fill="white"/>
<path d="M201.699 73.1C204.185 73.1 206.199 70.1003 206.199 66.4C206.199 62.6996 204.185 59.7 201.699 59.7C199.214 59.7 197.199 62.6996 197.199 66.4C197.199 70.1003 199.214 73.1 201.699 73.1Z" fill="#1A844B"/>
<path d="M208.1 73.1C210.585 73.1 212.6 70.1003 212.6 66.4C212.6 62.6996 210.585 59.7 208.1 59.7C205.614 59.7 203.6 62.6996 203.6 66.4C203.6 70.1003 205.614 73.1 208.1 73.1Z" fill="#1A844B"/>
<path d="M211.5 73.1C213.985 73.1 216 70.1003 216 66.4C216 62.6996 213.985 59.7 211.5 59.7C209.015 59.7 207 62.6996 207 66.4C207 70.1003 209.015 73.1 211.5 73.1Z" fill="white"/>
<path opacity="0.5" d="M197.2 54.1001V75.3001C196.9 75.2001 196.6 75.1001 196.4 75.1001C196.1 75.0001 195.8 74.9001 195.6 74.8001V54.1001H197.2Z" fill="white"/>
<path opacity="0.5" d="M198.9 54.0999V75.5999C198.3 75.4999 197.7 75.3999 197.2 75.1999C196.9 75.0999 196.6 74.9999 196.4 74.9999V53.8999L198.9 54.0999Z" fill="white"/>
<path d="M206.1 59.4C213.335 59.4 219.2 57.251 219.2 54.6C219.2 51.9491 213.335 49.8 206.1 49.8C198.865 49.8 193 51.9491 193 54.6C193 57.251 198.865 59.4 206.1 59.4Z" fill="#FA9664"/>
<path d="M206.1 58.6C213.335 58.6 219.2 56.451 219.2 53.8C219.2 51.149 213.335 49 206.1 49C198.865 49 193 51.149 193 53.8C193 56.451 198.865 58.6 206.1 58.6Z" fill="#FFF173"/>
</svg>
