<svg width="250" height="200" viewBox="0 0 250 200" fill="none" xmlns="http://www.w3.org/2000/svg">
<path d="M43.3008 121.5C47.4429 121.5 50.8008 120.291 50.8008 118.8C50.8008 117.309 47.4429 116.1 43.3008 116.1C39.1586 116.1 35.8008 117.309 35.8008 118.8C35.8008 120.291 39.1586 121.5 43.3008 121.5Z" fill="#B9BDC3"/>
<path d="M46.8012 52.1001H39.7012V117.7H46.8012V52.1001Z" fill="#B9BDC3"/>
<path opacity="0.2" d="M46.8004 52.1001H44.9004V117.7H46.8004V52.1001Z" fill="black"/>
<path d="M48.5016 28H38.1016V64H48.5016V28Z" fill="#FA9664"/>
<path d="M48.4016 28L38.1016 33.3V28.1L38.2016 28H48.4016Z" fill="#FFF173"/>
<path d="M48.5016 35.0999L38.1016 40.4999V35.2999L48.5016 29.8999V35.0999Z" fill="#FFF173"/>
<path d="M48.5016 42.3001L38.1016 47.7001V42.5001L48.5016 37.1001V42.3001Z" fill="#FFF173"/>
<path d="M48.5016 49.5L38.1016 54.9001V49.7001L48.5016 44.3V49.5Z" fill="#FFF173"/>
<path d="M48.5016 56.7L38.1016 62.1V56.8L48.5016 51.5V56.7Z" fill="#FFF173"/>
<path d="M48.5012 58.7V63.9L48.3012 64H38.2012L48.5012 58.7Z" fill="#FFF173"/>
<path d="M48.5016 28H38.1016V64H48.5016V28Z" fill="#FA9664"/>
<path d="M48.4016 28L38.1016 33.3V28.1L38.2016 28H48.4016Z" fill="#FFF173"/>
<path d="M48.5016 35.0999L38.1016 40.4999V35.2999L48.5016 29.8999V35.0999Z" fill="#FFF173"/>
<path d="M48.5016 42.3001L38.1016 47.7001V42.5001L48.5016 37.1001V42.3001Z" fill="#FFF173"/>
<path d="M48.5016 49.5L38.1016 54.9001V49.7001L48.5016 44.3V49.5Z" fill="#FFF173"/>
<path d="M48.5016 56.7L38.1016 62.1V56.8L48.5016 51.5V56.7Z" fill="#FFF173"/>
<path d="M48.5012 58.7V63.9L48.3012 64L48.1012 64.2C45.4012 67.2 40.7012 67.1 38.2012 64L48.5012 58.7Z" fill="#FFF173"/>
<path opacity="0.2" d="M48.5008 63.9L46.3008 65.7V28H48.5008V63.9Z" fill="black"/>
<path d="M43.1 31.7999C50.3349 31.7999 56.2 29.6509 56.2 27C56.2 24.349 50.3349 22.2 43.1 22.2C35.8651 22.2 30 24.349 30 27C30 29.6509 35.8651 31.7999 43.1 31.7999Z" fill="#FA9664"/>
<path d="M43.1 30.9999C50.3349 30.9999 56.2 28.8509 56.2 26.1999C56.2 23.5489 50.3349 21.3999 43.1 21.3999C35.8651 21.3999 30 23.5489 30 26.1999C30 28.8509 35.8651 30.9999 43.1 30.9999Z" fill="#FFF173"/>
<path d="M55.1992 25.3001C55.1992 27.6001 49.7992 29.5001 43.1992 29.5001C40.4992 29.5001 37.9992 29.2001 35.9992 28.6001C35.3992 28.4001 34.7992 28.3001 34.2992 28.1001C33.9992 28.0001 33.6992 27.9001 33.4992 27.8001C33.1992 27.7001 32.8992 27.5001 32.6992 27.4001C31.6992 26.8001 31.1992 26.1001 31.1992 25.3001C31.1992 24.5001 31.7992 23.8001 32.6992 23.2001C32.8992 23.0001 33.1992 22.9001 33.4992 22.8001C33.6992 22.7001 33.9992 22.6001 34.2992 22.5001C34.7992 22.3001 35.2992 22.1001 35.9992 22.0001C37.9992 21.5001 40.4992 21.1001 43.1992 21.1001C49.7992 21.1001 55.1992 23.0001 55.1992 25.3001Z" fill="#6AC86E"/>
<path d="M55.1004 6.1001H32.4004V25.6001H55.1004V6.1001Z" fill="#219750"/>
<path d="M54.5 6.1001H31V25.6001H54.5V6.1001Z" fill="#6AC86E"/>
<path d="M50.4992 25.3001C50.4992 26.3001 47.1992 27.1001 43.0992 27.1001C38.9992 27.1001 35.6992 26.3001 35.6992 25.3001C35.6992 24.3001 38.9992 18.4001 43.0992 18.4001C47.1992 18.4001 50.4992 24.3001 50.4992 25.3001Z" fill="#219750"/>
<path d="M37.6992 25.1C40.1845 25.1 42.1992 22.1003 42.1992 18.4C42.1992 14.6996 40.1845 11.7 37.6992 11.7C35.2139 11.7 33.1992 14.6996 33.1992 18.4C33.1992 22.1003 35.2139 25.1 37.6992 25.1Z" fill="white"/>
<path d="M38.6992 25.1C41.1845 25.1 43.1992 22.1003 43.1992 18.4C43.1992 14.6996 41.1845 11.7 38.6992 11.7C36.2139 11.7 34.1992 14.6996 34.1992 18.4C34.1992 22.1003 36.2139 25.1 38.6992 25.1Z" fill="#1A844B"/>
<path d="M45.0996 25.1C47.5849 25.1 49.5996 22.1003 49.5996 18.4C49.5996 14.6996 47.5849 11.7 45.0996 11.7C42.6143 11.7 40.5996 14.6996 40.5996 18.4C40.5996 22.1003 42.6143 25.1 45.0996 25.1Z" fill="#1A844B"/>
<path d="M48.5 25.1C50.9853 25.1 53 22.1003 53 18.4C53 14.6996 50.9853 11.7 48.5 11.7C46.0147 11.7 44 14.6996 44 18.4C44 22.1003 46.0147 25.1 48.5 25.1Z" fill="white"/>
<path opacity="0.5" d="M34.1996 6.1001V27.3001C33.8996 27.2001 33.5996 27.1001 33.3996 27.1001C33.0996 27.0001 32.7996 26.9001 32.5996 26.8001V6.1001H34.1996Z" fill="white"/>
<path opacity="0.5" d="M35.9004 6.0999V27.5999C35.3004 27.4999 34.7004 27.3999 34.2004 27.1999C33.9004 27.0999 33.6004 26.9999 33.4004 26.9999V5.8999L35.9004 6.0999Z" fill="white"/>
<path d="M43.1 11.4C50.3349 11.4 56.2 9.25102 56.2 6.60005C56.2 3.94908 50.3349 1.80005 43.1 1.80005C35.8651 1.80005 30 3.94908 30 6.60005C30 9.25102 35.8651 11.4 43.1 11.4Z" fill="#FA9664"/>
<path d="M43.1 10.6C50.3349 10.6 56.2 8.45097 56.2 5.8C56.2 3.14903 50.3349 1 43.1 1C35.8651 1 30 3.14903 30 5.8C30 8.45097 35.8651 10.6 43.1 10.6Z" fill="#FFF173"/>
<mask id="mask0" mask-type="alpha" maskUnits="userSpaceOnUse" x="200" y="50" width="50" height="100">
<rect x="200" y="50" width="50" height="100" fill="#C4C4C4"/>
</mask>
<g mask="url(#mask0)">
<path d="M202.201 84.8L202.801 88.3C205.001 88.6 206.701 90.0001 207.001 91.9001C207.401 94.4001 206.401 96.5 204.001 97C201.501 97.4 199.201 95.8 198.801 93.3C198.501 91.4 198.801 89.7001 200.801 88.7001L200.201 85.1C196.101 86.5 194.601 90.1 195.201 93.8C195.901 98.1 200.001 101.1 204.301 100.3C208.601 99.6001 211.201 95.5001 210.501 91.2001C209.901 87.5001 206.601 84.8 202.201 84.8Z" fill="#00B2EE"/>
<path d="M202.001 83.1001L202.601 86.6001C204.801 86.9001 206.201 88.3001 206.501 90.2001C206.901 92.7001 205.601 94.9001 203.201 95.3001C200.801 95.7001 198.601 94.1001 198.201 91.6001C197.901 89.7001 198.601 88.0001 200.601 87.0001L200.001 83.5001C195.901 84.9001 194.101 88.5001 194.701 92.3001C195.401 96.6001 199.201 99.6001 203.501 98.9001C207.801 98.2001 210.601 94.1001 209.901 89.7001C209.201 85.9001 206.301 83.1001 202.001 83.1001Z" fill="#BBE5FA"/>
<path d="M210.3 96.3L196.4 98.7001L197.4 104.7L211.3 102.3L210.3 96.3Z" fill="#AB47BC"/>
<path d="M210.601 98.1001L196.701 100.5L197.901 107.7L211.801 105.3L210.601 98.1001Z" fill="#8E24AA"/>
<path d="M203.9 136.6C203.3 136.6 202.7 136.5 202.1 136.3C199.4 135.3 198.1 132.4 199.1 129.7C201.9 122.2 200.9 113.3 199.7 106.5C199.2 103.7 201.1 101.1 203.9 100.6C206.7 100.1 209.3 102 209.8 104.8C211.2 112.9 212.3 123.5 208.7 133.3C207.9 135.3 205.9 136.6 203.9 136.6Z" fill="#FF3333"/>
</g>
<path d="M64.5008 57.3818L47.3008 58.8818L48.1008 67.7818L65.3008 66.2818L64.5008 57.3818Z" fill="#AB47BC"/>
<path d="M64.7996 61.082L47.5996 62.582L48.2996 69.982L65.4996 68.482L64.7996 61.082Z" fill="#8E24AA"/>
<path d="M57.0002 78.6819C54.6002 78.6819 52.5002 76.9819 52.0002 74.5819L51.0002 69.6819C50.4002 66.8819 52.2002 64.1819 55.0002 63.6819C57.8002 63.1819 60.5002 64.8819 61.0002 67.6819L62.0002 72.5819C62.6002 75.3819 60.8002 78.0819 58.0002 78.5819C57.6002 78.6819 57.3002 78.6819 57.0002 78.6819Z" fill="#FF3333"/>
<path d="M57.2 79.682C58.6912 79.682 59.9 78.4732 59.9 76.982C59.9 75.4908 58.6912 74.282 57.2 74.282C55.7088 74.282 54.5 75.4908 54.5 76.982C54.5 78.4732 55.7088 79.682 57.2 79.682Z" fill="#41474C"/>
<path d="M59.405 76.6856L57.4922 77.27L60.0343 85.5907L61.9471 85.0063L59.405 76.6856Z" fill="#6AC86E"/>
<path d="M59.5 84.582H57.5C57.5 82.982 57.2 81.882 56.9 80.582C56.5 79.182 56.1 77.682 56 75.382L58 75.282C58.1 77.382 58.5 78.782 58.8 80.082C59.2 81.382 59.5 82.682 59.5 84.582Z" fill="#6AC86E"/>
<path d="M58.9998 100.182C58.8998 100.182 58.8998 100.182 58.7998 100.182C55.9998 100.082 53.7998 97.682 53.8998 94.882L54.2998 85.582C54.3998 82.782 56.7998 80.582 59.5998 80.682C62.3998 80.782 64.5998 83.182 64.4998 85.982L64.0998 95.282C63.9998 98.082 61.6998 100.182 58.9998 100.182Z" fill="#FF3333"/>
<path d="M129.4 88.5818C126.6 88.5818 124.3 86.2818 124.3 83.4818C124.3 76.4818 123.8 67.5818 119.8 60.6818C118.4 58.2818 119.2 55.0818 121.7 53.6818C124.1 52.2818 127.3 53.0818 128.7 55.5818C133.9 64.5818 134.6 75.2818 134.6 83.4818C134.5 86.2818 132.3 88.5818 129.4 88.5818Z" fill="#D92626"/>
<path d="M136.5 80.9819H122.4V88.2819H136.5V80.9819Z" fill="#AB47BC"/>
<path d="M136.5 83.9819H122.4V90.0819H136.5V83.9819Z" fill="#8E24AA"/>
<path d="M137.5 95.7817C137.5 91.3817 134.3 87.7817 129.9 87.7817C125.5 87.7817 122 91.3817 122 95.7817C122 99.5817 124.1 102.782 128.4 103.582V99.9817C126.3 99.2817 125.7 97.6817 125.7 95.7817C125.7 93.2817 127.8 91.2817 130.3 91.2817C132.8 91.2817 134.1 93.2817 134.1 95.7817C134.1 97.6817 132.7 99.3817 130.5 99.9817V103.582C134.7 102.882 137.5 99.6817 137.5 95.7817Z" fill="#00B2EE"/>
<path d="M137.101 94.2817C137.101 89.8817 133.701 86.2817 129.301 86.2817C124.901 86.2817 121.701 89.8817 121.701 94.2817C121.701 98.0817 124.101 101.282 128.401 102.082V98.4817C126.301 97.7817 125.301 96.1817 125.301 94.2817C125.301 91.7817 127.201 89.7817 129.601 89.7817C132.101 89.7817 133.701 91.7817 133.701 94.2817C133.701 96.1817 132.601 97.8817 130.401 98.4817V102.082C134.701 101.382 137.101 98.0817 137.101 94.2817Z" fill="#BBE5FA"/>
<path d="M156.6 51.3818C156.2 49.3818 154.6 47.5818 152.6 46.7818L153.3 44.8818C155.9 45.8818 158 48.1818 158.5 50.8818L156.6 51.3818Z" fill="#6AC86E"/>
<path d="M159.378 44.0001L157.582 44.8799L160.617 51.0761L162.413 50.1963L159.378 44.0001Z" fill="#6BB4FD"/>
<path d="M164.499 86.3819C161.399 85.3819 159.099 82.8819 158.899 79.8819C158.699 77.7819 159.499 75.6819 160.999 74.0819C162.499 72.5819 164.599 71.5819 166.799 71.3819C169.099 71.1819 171.299 71.6819 172.999 72.9819C174.899 74.2819 175.999 76.1819 176.199 78.2819C176.499 81.3819 174.699 84.3819 171.599 85.8819L169.899 82.2819C171.499 81.4819 172.399 80.0819 172.299 78.6819C172.199 77.7819 171.699 76.8819 170.799 76.2819C169.799 75.5819 168.599 75.2819 167.199 75.3819C165.899 75.4819 164.699 76.0819 163.899 76.8819C163.099 77.6819 162.799 78.5819 162.899 79.4819C162.999 80.8819 164.099 81.9819 165.699 82.4819L164.499 86.3819Z" fill="#00B2EE"/>
<path d="M164.599 87.2818C161.499 86.2818 159.199 83.7818 158.999 80.7818C158.799 78.6818 159.599 76.5818 161.099 74.9818C162.599 73.4818 164.699 72.4818 166.899 72.2818C171.699 71.8818 175.899 74.8818 176.299 79.1818C176.599 82.2818 174.799 85.2818 171.699 86.7818L169.999 83.1818C171.599 82.3818 172.499 80.9818 172.399 79.5818C172.199 77.5818 169.899 76.0818 167.299 76.2818C165.999 76.3818 164.799 76.9818 163.999 77.7818C163.199 78.5818 162.899 79.4818 162.999 80.3818C163.099 81.7818 164.199 82.8818 165.799 83.3818L164.599 87.2818Z" fill="#00B2EE"/>
<path d="M164.699 88.182C161.599 87.182 159.299 84.682 159.099 81.682C158.899 79.582 159.699 77.482 161.199 75.882C162.699 74.382 164.799 73.382 166.999 73.182C171.799 72.782 175.999 75.782 176.399 80.082C176.699 83.182 174.899 86.182 171.799 87.682L170.099 84.082C171.699 83.282 172.599 81.882 172.499 80.482C172.299 78.482 169.999 76.982 167.399 77.182C166.099 77.282 164.899 77.882 164.099 78.682C163.299 79.482 162.999 80.382 163.099 81.282C163.199 82.682 164.299 83.782 165.899 84.282L164.699 88.182Z" fill="#00B2EE"/>
<path d="M167.099 77.882C166.899 77.882 166.599 77.882 166.399 77.882C163.599 77.482 161.599 74.882 161.999 72.082C162.799 66.482 159.399 58.882 155.599 54.682C153.699 52.582 153.899 49.382 155.999 47.482C158.099 45.582 161.299 45.782 163.199 47.882C168.399 53.682 173.299 64.082 172.099 73.482C171.899 76.082 169.699 77.882 167.099 77.882Z" fill="#FF3333"/>
<path d="M175.1 67.0818L157.9 68.6818L158.7 77.5818L176 75.9818L175.1 67.0818Z" fill="#AB47BC"/>
<path d="M175.499 70.782L158.299 72.382L158.999 79.782L176.199 78.182L175.499 70.782Z" fill="#8E24AA"/>
<path d="M164.8 88.9819C161.7 87.9819 159.4 85.4819 159.2 82.4819C158.8 78.2819 162.4 74.3819 167.2 73.9819C172 73.4819 176.2 76.5819 176.6 80.8819C176.9 83.9819 175.1 86.9819 172 88.4819L170.3 84.8819C171.9 84.0819 172.8 82.6819 172.7 81.2819C172.5 79.2819 170.2 77.7819 167.6 77.9819C165 78.1819 163 80.0819 163.2 82.1819C163.3 83.5819 164.4 84.6819 166 85.1819L164.8 88.9819Z" fill="#00B2EE"/>
<path d="M164.9 89.882C161.8 88.882 159.5 86.382 159.3 83.382C159.1 81.282 159.9 79.182 161.4 77.582C162.9 76.082 165 75.082 167.2 74.882C172 74.382 176.2 77.482 176.6 81.782C176.9 84.882 175.1 87.882 172 89.382L170.3 85.782C171.9 84.982 172.8 83.582 172.7 82.182C172.5 80.182 170.2 78.682 167.6 78.882C166.3 78.982 165.1 79.582 164.3 80.382C163.5 81.182 163.2 82.082 163.3 82.982C163.4 84.382 164.5 85.482 166.1 85.982L164.9 89.882Z" fill="#00B2EE"/>
<path d="M164.9 90.682C161.8 89.682 159.5 87.182 159.3 84.182C158.9 79.982 162.5 76.082 167.3 75.682C172.1 75.282 176.3 78.282 176.7 82.582C177 85.682 175.2 88.682 172.1 90.182L170.4 86.582C172 85.782 172.9 84.382 172.8 82.982C172.6 80.982 170.3 79.482 167.7 79.682C165.1 79.882 163.1 81.782 163.3 83.882C163.4 85.282 164.5 86.382 166.1 86.882L164.9 90.682Z" fill="#00B2EE"/>
<path d="M165 91.582C161.9 90.582 159.6 88.082 159.4 85.082C159 80.882 162.599 76.982 167.399 76.582C172.2 76.082 176.4 79.182 176.8 83.482C177.1 86.582 175.3 89.582 172.2 91.082L170.5 87.482C172.1 86.682 172.999 85.282 172.899 83.882C172.699 81.882 170.4 80.382 167.8 80.582C165.2 80.782 163.2 82.682 163.4 84.782C163.5 86.182 164.6 87.282 166.2 87.782L165 91.582Z" fill="#00B2EE"/>
<path d="M164.499 85.5819C161.399 84.5819 159.099 82.0819 158.899 79.0819C158.699 76.9819 159.499 74.8819 160.999 73.2819C162.499 71.7819 164.599 70.7819 166.799 70.5819C169.099 70.3819 171.299 70.8819 172.999 72.1819C174.899 73.4819 175.999 75.3819 176.199 77.4819C176.499 80.5819 174.699 83.5819 171.599 85.0819L169.899 81.4819C171.499 80.6819 172.399 79.2819 172.299 77.8819C172.199 76.9819 171.699 76.0819 170.799 75.4819C169.799 74.7819 168.599 74.4819 167.199 74.5819C165.899 74.6819 164.699 75.2819 163.899 76.0819C163.099 76.8819 162.799 77.7819 162.899 78.6819C162.999 80.0819 164.099 81.1819 165.699 81.6819L164.499 85.5819Z" fill="#BBE5FA"/>
<path d="M177.301 55.9819L173.901 54.3819C173.501 55.1819 173.301 56.0819 173.201 56.9819C173.201 57.1819 173.201 57.3819 173.101 57.4819C173.101 57.6819 173.101 57.8819 173.001 57.9819C173.001 58.1819 173.001 58.3819 172.901 58.4819C172.901 58.6819 172.901 58.8819 172.801 58.9819C172.801 59.1819 172.801 59.3819 172.701 59.4819C172.701 59.6819 172.701 59.8819 172.601 59.9819C172.601 60.1819 172.601 60.3819 172.501 60.4819C172.101 62.6819 172.601 64.8819 174.001 66.5819C175.501 68.3819 177.601 69.2819 179.801 69.2819C181.601 69.2819 183.401 68.6819 184.901 67.4819C186.501 66.1819 187.601 64.2819 187.801 62.2819C187.801 62.1819 187.801 62.0819 187.801 61.9819C187.801 61.7819 187.801 61.6819 187.901 61.4819C187.901 61.2819 187.901 61.1819 188.001 60.9819C188.001 60.8819 188.001 60.7819 188.101 60.6819C188.101 60.5819 188.101 60.4819 188.101 60.3819C188.101 60.2819 188.101 60.1819 188.101 60.0819C188.101 59.9819 188.101 59.8819 188.101 59.7819C188.101 59.6819 188.101 59.5819 188.101 59.4819C188.101 59.3819 188.101 59.2819 188.101 59.1819C188.101 59.0819 188.101 58.9819 188.101 58.8819C188.101 58.7819 188.101 58.6819 188.101 58.5819C188.101 58.3819 188.101 58.2819 188.201 58.0819C188.201 57.9819 188.201 57.8819 188.301 57.7819C188.601 55.6819 188.001 53.6819 186.701 52.0819C184.801 49.6819 181.601 48.7819 178.601 49.6819L178.101 53.9819L179.201 57.5819C180.701 57.0819 182.401 57.5819 183.301 58.7819C183.501 58.9819 183.601 59.1819 183.701 59.3819C183.501 59.5819 183.301 59.8819 183.101 60.0819C181.301 61.4819 178.801 61.3819 177.501 59.6819C177.101 59.1819 176.801 58.5819 176.701 57.9819C176.701 57.8819 176.801 57.7819 176.801 57.7819L177.301 55.9819Z" fill="#00B2EE"/>
<path d="M180.6 65.1818C178.4 65.1818 176.2 64.2818 174.8 62.4818C172.9 60.1818 172.6 57.0818 173.9 54.3818L177.3 55.9818C176.6 57.3818 176.8 58.9818 177.7 60.0818C179 61.6818 181.6 61.8818 183.3 60.4818C184.2 59.7818 184.7 58.7818 184.8 57.6818C184.9 56.6818 184.6 55.6818 184 54.8818C183 53.6818 181.4 53.2818 179.9 53.6818L178.8 50.0818C181.8 49.1818 185 50.0818 186.9 52.4818C188.2 54.0818 188.8 56.0818 188.5 58.1818C188.2 60.1818 187.2 62.0818 185.6 63.3818C184.2 64.5818 182.4 65.1818 180.6 65.1818Z" fill="#BBE5FA"/>
<path d="M178.201 70.9818L191.601 67.5818L189.701 60.3818L176.301 63.7818L178.201 70.9818Z" fill="#AB47BC"/>
<path d="M178.7 72.682L192.1 69.282L190.5 63.282L177.1 66.682L178.7 72.682Z" fill="#8E24AA"/>
<path d="M184.701 70.082C186.082 70.082 187.201 68.9627 187.201 67.582C187.201 66.2013 186.082 65.082 184.701 65.082C183.32 65.082 182.201 66.2013 182.201 67.582C182.201 68.9627 183.32 70.082 184.701 70.082Z" fill="#7A027E"/>
<path d="M184.1 75.3819C183.9 75.3819 183.8 75.3819 183.6 75.2819C183.1 74.9819 182.9 74.3819 183.2 73.9819C184.2 72.0819 184.2 69.7819 183.2 67.8819C182.9 67.3819 183.1 66.7819 183.6 66.5819C184.1 66.2819 184.7 66.4819 184.9 66.9819C186.2 69.3819 186.2 72.4819 184.9 74.8819C184.8 75.1819 184.5 75.3819 184.1 75.3819Z" fill="#6BB4FD"/>
<path d="M186.6 75.582C186.5 75.582 186.4 75.582 186.4 75.582C185.9 75.482 185.5 74.882 185.7 74.382C186.2 72.182 185.8 69.782 184.6 67.882C184.3 67.382 184.4 66.782 184.9 66.482C185.4 66.182 186 66.282 186.3 66.782C187.8 69.182 188.3 72.082 187.7 74.782C187.5 75.282 187.1 75.582 186.6 75.582Z" fill="#6BB4FD"/>
<path d="M178.7 76.6819L178.1 74.7819C181.4 73.7819 184 70.4819 184.1 66.9819L186.1 67.0819C185.9 71.3819 182.8 75.3819 178.7 76.6819Z" fill="#6AC86E"/>
<path d="M155.901 100.382L158.401 96.1818L155.501 93.0818L151.801 92.0818L150.801 92.6818L148.301 96.7818L150.601 100.982L155.401 101.082L155.901 100.382ZM154.701 96.0818C155.101 96.7818 154.901 97.5818 154.401 98.1818C153.701 98.2818 152.901 98.1818 152.101 97.9818C149.801 97.3818 151.001 95.7818 152.701 95.1818C153.501 95.0818 154.301 95.3818 154.701 96.0818Z" fill="#8A9096"/>
<path d="M152.001 96.8818C151.501 95.9818 151.901 94.8818 152.701 94.3818C153.601 93.8818 154.701 94.2818 155.201 95.0818C155.701 95.9818 155.301 97.0818 154.501 97.5818C153.601 98.0818 152.501 97.7818 152.001 96.8818ZM158.401 96.1818L156.101 91.9818L151.301 91.8818L148.801 95.9818L151.101 100.182L155.901 100.282L158.401 96.1818Z" fill="#B9BDC3"/>
<path d="M145.602 55.8821L146.202 59.3821C148.402 59.6821 150.102 61.0821 150.402 62.9821C150.802 65.4821 149.802 67.5821 147.402 68.0821C144.902 68.4821 142.602 66.8821 142.202 64.3821C141.902 62.4821 142.202 60.7821 144.202 59.7821L143.602 56.1821C139.502 57.5821 138.002 61.1821 138.602 64.8821C139.302 69.1821 143.402 72.1821 147.702 71.3821C152.002 70.6821 154.602 66.5821 153.902 62.2821C153.302 58.4821 149.902 55.7821 145.602 55.8821Z" fill="#00B2EE"/>
<path d="M145.401 54.082L146.001 57.582C148.201 57.882 149.601 59.282 149.901 61.182C150.301 63.682 149.001 65.882 146.601 66.282C144.201 66.682 142.001 65.082 141.601 62.582C141.301 60.682 142.001 58.982 144.001 57.982L143.401 54.482C139.301 55.882 137.501 59.482 138.101 63.282C138.801 67.582 142.601 70.582 146.901 69.882C151.201 69.182 154.001 65.082 153.301 60.682C152.601 56.882 149.601 54.182 145.401 54.082Z" fill="#BBE5FA"/>
<path d="M153.701 67.282L139.801 69.682L140.801 75.682L154.701 73.282L153.701 67.282Z" fill="#AB47BC"/>
<path d="M154.002 69.082L140.102 71.482L141.302 78.682L155.202 76.282L154.002 69.082Z" fill="#8E24AA"/>
<path d="M147.2 107.582C146.6 107.582 146 107.482 145.4 107.282C142.7 106.282 141.4 103.382 142.4 100.682C145.2 93.1821 144.2 84.2821 143 77.4821C142.5 74.6821 144.4 72.0821 147.2 71.5821C150 71.0821 152.6 72.9821 153.1 75.7821C154.5 83.8821 155.6 94.4821 152 104.282C151.3 106.282 149.3 107.582 147.2 107.582Z" fill="#FF3333"/>
<path d="M110.4 72.382C108.8 72.382 107.1 71.582 106.1 70.082C104.5 67.782 105.1 64.582 107.5 62.982C114.3 58.382 123.5 52.982 134 52.282C136.8 52.082 139.3 54.182 139.5 57.082C139.7 59.882 137.6 62.382 134.7 62.582C126.7 63.082 119 67.682 113.3 71.582C112.4 72.182 111.4 72.382 110.4 72.382Z" fill="#D92626"/>
<path d="M101.1 65.0819L109 76.7819L115 72.6819L107.2 60.9819L101.1 65.0819Z" fill="#AB47BC"/>
<path d="M99.5996 66.0819L107.5 77.7819L112.5 74.3819L104.6 62.6819L99.5996 66.0819Z" fill="#8E24AA"/>
<path d="M92.5002 79.682L95.5002 77.682C94.8002 75.582 95.4002 73.482 97.0002 72.382C99.1002 70.982 101.5 70.982 102.9 73.082C104.3 75.182 103.8 77.982 101.7 79.382C100.1 80.482 98.4002 80.882 96.7002 79.482L93.7002 81.482C96.7002 84.582 100.5 84.582 103.7 82.382C107.4 79.882 108.3 74.982 105.9 71.382C103.4 67.682 98.7002 67.082 95.0002 69.482C91.8002 71.682 90.7002 75.782 92.5002 79.682Z" fill="#8E24AA"/>
<path d="M92.4997 77.7819L95.4997 75.7819C94.8997 73.6819 95.5997 71.7819 97.1997 70.6819C99.2997 69.2819 101.8 69.5819 103.2 71.5819C104.6 73.5819 104 76.2819 101.9 77.6819C100.3 78.7819 98.3997 78.7819 96.6997 77.4819L93.6997 79.4819C96.6997 82.5819 100.7 82.7819 103.9 80.6819C107.6 78.1819 108.7 73.5819 106.3 69.8819C103.9 66.2819 98.9997 65.3819 95.2997 67.8819C92.0997 69.9819 90.7997 73.8819 92.4997 77.7819Z" fill="#8E24AA"/>
<path d="M81.4988 58.5819L79.4988 58.1819C79.9988 56.1819 79.2988 53.8819 77.7988 52.3819L79.1988 50.9819C81.1988 52.8819 82.0988 55.8819 81.4988 58.5819Z" fill="#6AC86E"/>
<path d="M85.1324 52.564L83.1328 52.6008L83.2599 59.4994L85.2595 59.4626L85.1324 52.564Z" fill="#6BB4FD"/>
<path d="M79.9998 87.0819C79.0998 87.0819 78.0998 86.7819 77.1998 86.2819C74.7998 84.7819 74.0998 81.5819 75.6998 79.1819C78.6998 74.4819 78.8998 66.0819 77.2998 60.7819C76.4998 58.0819 77.9998 55.1819 80.6998 54.3819C83.3998 53.5819 86.2998 55.0819 87.0998 57.7819C89.2998 65.1819 89.3998 76.7819 84.2998 84.6819C83.2998 86.2819 81.6998 87.0819 79.9998 87.0819Z" fill="#FF3333"/>
<path d="M89.5988 80.1818L73.2988 74.3818L70.2988 82.7818L86.5988 88.5818L89.5988 80.1818Z" fill="#AB47BC"/>
<path d="M88.3996 83.6818L72.0996 77.8818L69.5996 84.8818L85.8996 90.6818L88.3996 83.6818Z" fill="#8E24AA"/>
<path d="M74.4992 90.2819C74.0992 89.9819 73.7992 89.5819 73.5992 89.1819C74.6992 88.7819 75.8992 88.7819 77.1992 89.2819C78.3992 89.6819 79.3992 90.4819 79.9992 91.4819C79.4992 91.6819 78.9992 91.7819 78.3992 91.7819C78.3992 91.7819 76.7992 96.5819 76.6992 96.5819L76.7992 100.582C80.2992 100.582 83.1992 98.5819 84.1992 95.6819C84.2992 95.4819 84.2992 95.3819 84.2992 95.1819C84.2992 95.0819 84.3992 94.9819 84.3992 94.8819C84.4992 94.6819 84.4992 94.5819 84.4992 94.3819C84.4992 94.2819 84.5992 94.1819 84.5992 94.0819C84.6992 93.8819 84.6992 93.7819 84.6992 93.5819C84.6992 93.4819 84.7992 93.3819 84.7992 93.2819C84.8992 93.0819 84.8992 92.9819 84.8992 92.7819C84.8992 92.6819 84.9992 92.5819 84.9992 92.4819C85.0992 92.2819 85.0992 92.1819 85.0992 91.9819C85.0992 91.8819 85.1992 91.7819 85.1992 91.6819C85.2992 91.4819 85.2992 91.3819 85.2992 91.1819C85.2992 91.0819 85.3992 90.9819 85.3992 90.8819C86.0992 88.8819 85.8992 86.6819 84.7992 84.6819C83.6992 82.7819 81.9992 81.3819 79.7992 80.5819C75.7992 78.9819 70.8992 80.9819 69.4992 84.9819C69.4992 85.0819 69.3992 85.1819 69.3992 85.2819C69.2992 85.4819 69.2992 85.5819 69.1992 85.7819C69.1992 85.8819 69.0992 85.9819 69.0992 86.0819C68.9992 86.2819 68.9992 86.3819 68.8992 86.5819C68.8992 86.6819 68.7992 86.7819 68.7992 86.8819C68.6992 87.0819 68.6992 87.1819 68.5992 87.3819C68.5992 87.4819 68.4992 87.5819 68.4992 87.6819C68.3992 87.8819 68.3992 87.9819 68.2992 88.1819C68.2992 88.2819 68.1992 88.3819 68.1992 88.4819C68.0992 88.6819 68.0992 88.7819 67.9992 88.9819C67.9992 89.0819 67.8992 89.1819 67.8992 89.2819C67.7992 89.4819 67.7992 89.5819 67.6992 89.7819C66.6992 92.5819 67.5992 95.7819 70.0992 98.0819L72.7992 95.0819L74.4992 90.2819Z" fill="#00B2EE"/>
<path d="M78.4986 95.7819L78.3986 91.7819C80.1986 91.7819 81.5986 90.8819 82.0986 89.4819C82.3986 88.5819 82.2986 87.5819 81.7986 86.6819C81.1986 85.6819 80.1986 84.7819 78.8986 84.3819C77.5986 83.9819 76.2986 83.8819 75.1986 84.3819C74.1986 84.7819 73.4986 85.4819 73.1986 86.3819C72.6986 87.6819 73.1986 89.1819 74.4986 90.3819L71.7986 93.3819C69.3986 91.1819 68.3986 87.8819 69.3986 85.0819C70.0986 83.0819 71.6986 81.5819 73.7986 80.7819C75.7986 79.9819 78.0986 79.9819 80.1986 80.7819C82.2986 81.5819 84.0986 82.9819 85.1986 84.8819C86.2986 86.8819 86.5986 88.9819 85.7986 91.0819C84.8986 93.7819 81.9986 95.6819 78.4986 95.7819Z" fill="#BBE5FA"/>
<path d="M138.1 79.482L140 74.982L136.7 72.282L132.9 71.782L132 72.482L130 76.882L132.8 80.782L137.6 80.282L138.1 79.482ZM136.3 75.382C136.8 75.982 136.8 76.882 136.3 77.482C135.6 77.682 134.8 77.682 134 77.582C131.6 77.382 132.6 75.582 134.2 74.682C135 74.482 135.8 74.782 136.3 75.382Z" fill="#8A9096"/>
<path d="M133.8 76.582C133.2 75.782 133.4 74.582 134.2 74.082C135 73.482 136.2 73.682 136.7 74.482C137.3 75.282 137.1 76.482 136.3 76.982C135.5 77.582 134.4 77.382 133.8 76.582ZM140 74.982L137.2 71.082L132.4 71.582L130.4 75.982L133.2 79.882L138 79.382L140 74.982Z" fill="#B9BDC3"/>
<path d="M35.7996 130.24L35.2996 125.34L31.1996 124.64L27.6996 126.04L27.0996 127.14L27.4996 131.94L31.8996 133.94L35.8996 131.14L35.7996 130.24ZM32.2996 127.54C32.9996 127.84 33.3996 128.64 33.2996 129.34C32.7996 129.94 32.0996 130.24 31.3996 130.54C29.1996 131.44 29.1996 129.44 30.1996 127.94C30.6996 127.34 31.4996 127.14 32.2996 127.54Z" fill="#8A9096"/>
<path d="M30.6 129.74C29.7 129.34 29.3 128.24 29.7 127.34C30.1 126.44 31.2 126.04 32.1 126.44C33 126.84 33.4 127.94 33 128.84C32.6 129.74 31.5 130.14 30.6 129.74ZM35.3 125.34L30.9 123.34L27 126.04L27.4 130.84L31.8 132.84L35.7 130.14L35.3 125.34Z" fill="#B9BDC3"/>
<path d="M44.3002 132.14C44.1002 132.74 43.8002 133.34 43.3002 133.74C42.6002 134.44 41.6002 134.84 40.5002 134.74C39.4002 134.64 38.4002 134.24 37.6002 133.44C37.4002 133.24 37.2002 132.94 37.0002 132.74C37.1002 132.54 37.3002 132.34 37.5002 132.14C38.6002 131.14 40.2002 130.84 41.7002 131.54L43.2002 128.04V123.74C40.3002 122.44 37.1002 123.04 34.9002 125.14C33.3002 126.64 32.5002 128.74 32.6002 130.84C32.6002 131.04 32.6002 131.14 32.6002 131.34C32.6002 131.44 32.6002 131.54 32.6002 131.64C32.6002 131.74 32.6002 131.84 32.6002 131.94C32.6002 132.14 32.6002 132.24 32.6002 132.44C32.6002 132.64 32.6002 132.74 32.6002 132.94C32.6002 133.04 32.6002 133.14 32.6002 133.24C32.6002 133.34 32.6002 133.44 32.6002 133.54C32.6002 133.74 32.6002 133.84 32.6002 134.04C32.6002 134.24 32.6002 134.44 32.6002 134.54C32.5002 136.64 33.3002 138.74 34.8002 140.34C36.4002 142.04 38.5002 142.84 40.6002 142.84C42.5002 142.84 44.3002 142.14 45.8002 140.84C47.4002 139.34 48.2002 137.14 48.1002 134.94C48.1002 134.74 48.1002 134.54 48.1002 134.44C48.1002 134.24 48.1002 134.04 48.1002 133.94C48.1002 133.74 48.1002 133.54 48.1002 133.44C48.1002 133.24 48.1002 133.04 48.1002 132.94C48.1002 132.74 48.1002 132.54 48.1002 132.44C48.1002 132.24 48.1002 132.04 48.1002 131.94C48.1002 131.74 48.1002 131.54 48.1002 131.44C48.1002 130.54 48.0002 129.64 47.7002 128.84L44.1002 130.04L44.3002 132.14Z" fill="#00B2EE"/>
<path d="M40.7994 138.54C40.6994 138.54 40.4994 138.54 40.3994 138.54C38.2994 138.44 36.3994 137.54 34.9994 136.04C31.9994 132.84 31.9994 127.94 35.0994 125.04C37.2994 122.94 40.5994 122.44 43.3994 123.64L41.8994 127.14C40.3994 126.54 38.7994 126.74 37.6994 127.74C36.1994 129.24 36.1994 131.74 37.7994 133.34C38.5994 134.14 39.5994 134.64 40.6994 134.64C41.7994 134.74 42.6994 134.34 43.4994 133.64C44.5994 132.64 44.8994 131.14 44.3994 129.64L47.9994 128.44C48.9994 131.34 48.1994 134.34 46.0994 136.44C44.5994 137.84 42.7994 138.54 40.7994 138.54Z" fill="#BBE5FA"/>
<path d="M44.2992 137.64L31.4992 132.64L28.6992 139.54L41.4992 144.54L44.2992 137.64Z" fill="#AB47BC"/>
<path d="M43.1 140.44L30.3 135.44L28 141.24L40.8 146.24L43.1 140.44Z" fill="#8E24AA"/>
<path d="M35.5 142.84C36.8807 142.84 38 141.721 38 140.34C38 138.959 36.8807 137.84 35.5 137.84C34.1193 137.84 33 138.959 33 140.34C33 141.721 34.1193 142.84 35.5 142.84Z" fill="#7A027E"/>
<path d="M35.1999 148.14C34.7999 148.14 34.3999 147.84 34.2999 147.44C33.3999 144.84 33.6999 141.84 35.2999 139.54C35.5999 139.04 36.1999 138.94 36.6999 139.24C37.1999 139.54 37.2999 140.14 36.9999 140.64C35.7999 142.34 35.4999 144.64 36.1999 146.64C36.3999 147.14 36.0999 147.74 35.5999 147.94C35.4999 148.14 35.3999 148.14 35.1999 148.14Z" fill="#6BB4FD"/>
<path d="M32.6994 148.04C32.1994 148.04 31.7994 147.64 31.6994 147.14C31.3994 144.34 32.2994 141.54 34.0994 139.34C34.4994 138.94 35.0994 138.84 35.4994 139.24C35.8994 139.64 35.9994 140.24 35.5994 140.64C34.1994 142.34 33.4994 144.74 33.6994 146.94C33.7994 147.44 33.3994 147.94 32.7994 148.04C32.7994 148.04 32.6994 148.04 32.6994 148.04Z" fill="#6BB4FD"/>
<path d="M40.3007 150.14C36.4007 148.34 33.8007 143.94 34.2007 139.64L36.2007 139.84C35.9007 143.34 38.0007 146.84 41.2007 148.34L40.3007 150.14Z" fill="#6AC86E"/>
<path d="M40.5016 147.34H32.1016V147.74H40.5016V147.34Z" fill="#FFFF4E"/>
<path d="M40.5016 148.14H32.1016V148.54H40.5016V148.14Z" fill="#FFFF4E"/>
<path d="M40.5016 148.84H32.1016V149.24H40.5016V148.84Z" fill="#FFFF4E"/>
<path d="M40.5016 149.64H32.1016V150.04H40.5016V149.64Z" fill="#FFFF4E"/>
<path d="M40.2008 150.34H31.8008V150.74H40.2008V150.34Z" fill="#FFFF4E"/>
<path d="M40.2008 151.14H31.8008V151.54H40.2008V151.14Z" fill="#FFFF4E"/>
<path d="M40.2008 151.84H31.8008V152.24H40.2008V151.84Z" fill="#FFFF4E"/>
<path d="M39.4 145.54H39V154.44H39.4V145.54Z" fill="#FFFF4E"/>
<path d="M38.8004 145.54H38.4004V154.44H38.8004V145.54Z" fill="#FFFF4E"/>
<path d="M38.2008 145.54H37.8008V154.44H38.2008V145.54Z" fill="#FFFF4E"/>
<path d="M37.6012 145.54H37.2012V154.44H37.6012V145.54Z" fill="#FFFF4E"/>
<path d="M37.1012 145.54H36.7012V154.44H37.1012V145.54Z" fill="#FFFF4E"/>
<path d="M36.5016 145.54H36.1016V154.44H36.5016V145.54Z" fill="#FFFF4E"/>
<path d="M35.9 145.54H35.5V154.44H35.9V145.54Z" fill="#FFFF4E"/>
<path d="M35.3004 145.54H34.9004V154.44H35.3004V145.54Z" fill="#FFFF4E"/>
<path d="M34.7008 145.54H34.3008V154.44H34.7008V145.54Z" fill="#FFFF4E"/>
<path d="M33.0684 154.444L44.0684 154.444L44.0684 146.544L33.0684 146.544L33.0684 154.444Z" fill="black"/>
<path d="M32.5211 153.094L43.1211 153.094L43.1211 146.494L32.5211 146.494L32.5211 153.094Z" fill="#546573"/>
<path d="M42.2008 151.14H35.8008V149.64H40.4008V148.84H35.9008V148.44H40.8008V149.94H36.2008V150.74H42.2008V151.14Z" fill="#6AB360"/>
<path d="M42.2023 150.54C42.4023 150.54 42.5023 150.64 42.5023 150.84C42.5023 151.04 42.4023 151.14 42.2023 151.14C42.0023 151.14 41.9023 151.04 41.9023 150.84C41.9023 150.64 42.0023 150.54 42.2023 150.54Z" fill="#6AB360"/>
<path d="M35.9016 148.34C35.7016 148.34 35.6016 148.44 35.6016 148.64C35.6016 148.84 35.7016 148.94 35.9016 148.94C36.1016 148.94 36.2016 148.84 36.2016 148.64C36.2016 148.54 36.0016 148.34 35.9016 148.34Z" fill="#6AB360"/>
<path d="M33.2516 151.246L34.8516 151.246L34.8516 148.646L33.2516 148.646L33.2516 151.246Z" fill="black"/>
<path d="M55.1996 156.14L54.6996 151.24L50.5996 150.54L47.0996 151.94L46.5996 153.04L46.9996 157.84L51.3996 159.84L55.2996 157.04L55.1996 156.14ZM51.5996 153.44C52.2996 153.74 52.6996 154.54 52.5996 155.24C52.0996 155.84 51.3996 156.14 50.6996 156.44C48.4996 157.34 48.4996 155.34 49.4996 153.84C50.0996 153.34 50.8996 153.14 51.5996 153.44Z" fill="#8A9096"/>
<path d="M50.0004 155.74C49.1004 155.34 48.7004 154.24 49.1004 153.34C49.5004 152.44 50.6004 152.04 51.5004 152.44C52.4004 152.84 52.8004 153.94 52.4004 154.84C52.0004 155.74 50.9004 156.14 50.0004 155.74ZM54.7004 151.24L50.3004 149.24L46.4004 152.04L46.8004 156.84L51.2004 158.84L55.1004 156.04L54.7004 151.24Z" fill="#B9BDC3"/>
<path d="M172.6 103.782C172.7 103.782 172.7 103.882 172.8 103.882L181.2 108.082C182.1 108.482 183.1 108.182 183.5 107.282C183.9 106.382 183.6 105.382 182.7 104.982L174.3 100.782C174.2 100.782 174.2 100.682 174.1 100.682C174.1 99.1818 173.3 97.6818 171.9 96.9818C170.4 96.2818 168.7 96.4818 167.5 97.5818L170.8 99.2818L169.4 102.082L166.1 100.382C166 101.982 166.8 103.482 168.3 104.282C169.7 104.982 171.4 104.782 172.6 103.782Z" fill="#74797E"/>
<path d="M172.001 102.582C172.101 102.582 172.101 102.682 172.201 102.682L180.601 106.882C181.501 107.282 182.501 106.982 182.901 106.082C183.301 105.182 183.001 104.182 182.101 103.782L173.701 99.5819C173.601 99.5819 173.601 99.4819 173.501 99.4819C173.501 97.9819 172.701 96.4819 171.301 95.7819C169.801 95.0819 168.101 95.2819 166.901 96.3819L170.201 98.0819L168.801 100.882L165.501 99.1819C165.401 100.782 166.201 102.282 167.701 103.082C169.201 103.682 170.901 103.482 172.001 102.582Z" fill="#B9BDC3"/>
<path d="M102.8 68.982C101.1 68.982 99.2998 68.082 98.3998 66.482C96.9998 64.082 97.7998 60.882 100.2 59.482C107.3 55.282 116.8 50.382 127.2 50.282C127.2 50.282 127.2 50.282 127.3 50.282C130.1 50.282 132.4 52.582 132.4 55.382C132.4 58.182 130.2 60.482 127.3 60.582C119.3 60.682 111.4 64.782 105.4 68.282C104.6 68.682 103.7 68.982 102.8 68.982Z" fill="#FF3333"/>
<path d="M93.5996 61.0821L100.8 73.1821L107.1 69.4821L99.8996 57.3821L93.5996 61.0821Z" fill="#AB47BC"/>
<path d="M92.0996 61.9821L99.2996 74.0821L104.5 70.9821L97.2996 58.8821L92.0996 61.9821Z" fill="#8E24AA"/>
<path d="M84.1997 75.1819L87.2997 73.3819C86.7997 71.1819 87.4997 69.1819 89.0997 68.1819C91.1997 66.8819 93.5997 67.0819 94.8997 69.1819C96.1997 71.2819 95.4997 74.0819 93.3997 75.3819C91.7997 76.3819 87.0997 76.4819 85.3997 74.9819L85.2997 76.9819C88.0997 80.2819 91.8997 80.4819 95.1997 78.4819C98.9997 76.2819 100.3 71.3819 97.9997 67.5819C95.7997 63.7819 90.9997 62.8819 87.2997 65.0819C83.9997 67.0819 82.5997 71.1819 84.1997 75.1819Z" fill="#00B2EE"/>
<path d="M84.2997 73.1819L87.3997 71.3819C86.8997 69.2819 87.6997 67.3819 89.3997 66.4819C91.4997 65.1819 94.0997 65.5819 95.3997 67.7819C96.6997 69.8819 95.8997 72.4819 93.7997 73.7819C92.1997 74.7819 90.2997 74.6819 88.5997 73.2819L85.3997 74.9819C88.1997 78.2819 92.1997 78.6819 95.4997 76.7819C99.2997 74.5819 100.7 69.9819 98.4997 66.1819C96.2997 62.3819 91.3997 61.2819 87.6997 63.4819C84.2997 65.4819 82.7997 69.1819 84.2997 73.1819Z" fill="#00B2EE"/>
<path d="M108.8 83.6515C108.8 83.7515 108.9 83.9515 108.9 84.0515C108.6 85.0515 108.1 85.9515 107.3 86.7515C104.8 89.1515 100.6 88.8515 98.0003 86.1515C97.6003 85.7515 97.3003 85.3515 97.1003 84.9515C97.3003 84.6515 97.6003 84.2515 97.9003 84.0515C99.7003 82.3515 102.4 81.9515 104.8 82.9515L107.3 77.2515V70.1515C102.6 68.0515 97.2003 68.9515 93.6003 72.4515C91.0003 74.9515 89.7003 78.3515 89.8003 81.7515C89.8003 81.9515 89.8003 82.0515 89.8003 82.2515C89.8003 82.4515 89.8003 82.5515 89.8003 82.7515C89.8003 83.0515 89.8003 83.2515 89.8003 83.5515C89.8003 83.8515 89.8003 84.1515 89.8003 84.3515C89.8003 84.5515 89.8003 84.6515 89.8003 84.8515C89.8003 85.0515 89.8003 85.1515 89.8003 85.3515C89.8003 85.4515 89.8003 85.6515 89.8003 85.7515C89.8003 85.9515 89.8003 86.0515 89.8003 86.2515C89.8003 86.5515 89.8003 86.7515 89.8003 87.0515C89.8003 87.3515 89.8003 87.6515 89.8003 87.8515C89.8003 88.0515 89.8003 88.1515 89.8003 88.3515C89.8003 91.7515 91.1003 94.9515 93.5003 97.4515C95.9003 99.9515 99.0003 101.452 102.4 101.552C102.6 101.552 102.8 101.552 103 101.552C106.2 101.552 109.2 100.352 111.5 98.1515C114.2 95.6515 115.5 92.1515 115.3 88.4515C115.3 88.1515 115.3 87.8515 115.3 87.5515C115.3 87.2515 115.3 86.9515 115.3 86.6515C115.3 86.3515 115.3 86.0515 115.3 85.7515C115.3 85.4515 115.3 85.1515 115.3 84.8515C115.3 84.5515 115.3 84.2515 115.3 83.9515C115.3 83.6515 115.3 83.3515 115.3 83.0515C115.3 82.7515 115.3 82.4515 115.3 82.1515C115.3 80.7515 115.1 79.2515 114.6 77.8515L108.7 79.8515V83.6515H108.8Z" fill="#00B2EE"/>
<path d="M103.1 94.5515C99.6005 94.5515 96.2005 93.1515 93.5005 90.4515C88.6005 85.2515 88.6005 77.1515 93.6005 72.3515C97.2005 68.9515 102.6 68.0515 107.3 70.0515L104.8 75.7515C102.4 74.6515 99.7005 75.1515 97.9005 76.8515C95.4005 79.2515 95.4005 83.4515 98.0005 86.1515C100.6 88.8515 104.7 89.1515 107.3 86.7515C109 85.0515 109.6 82.5515 108.8 80.1515L114.7 78.1515C116.3 82.8515 115.1 87.9515 111.6 91.2515C109.3 93.4515 106.2 94.5515 103.1 94.5515Z" fill="#BBE5FA"/>
<path d="M108.799 92.9515L87.6992 84.7515L83.1992 96.0515L104.299 104.251L108.799 92.9515Z" fill="#AB47BC"/>
<path d="M106.9 97.6514L85.8 89.4514L82 98.8514L103.1 107.051L106.9 97.6514Z" fill="#8E24AA"/>
<path d="M94.4008 101.552C96.6652 101.552 98.5008 99.7159 98.5008 97.4516C98.5008 95.1872 96.6652 93.3516 94.4008 93.3516C92.1364 93.3516 90.3008 95.1872 90.3008 97.4516C90.3008 99.7159 92.1364 101.552 94.4008 101.552Z" fill="#7A027E"/>
<path d="M93.9997 110.352C93.2997 110.352 92.6997 109.952 92.4997 109.252C90.8997 105.052 91.5997 100.052 94.0997 96.3516C94.5997 95.6516 95.5997 95.4516 96.3997 95.9516C97.0997 96.4516 97.2997 97.4516 96.7997 98.2516C94.7997 101.152 94.2997 104.952 95.4997 108.152C95.7997 109.052 95.3997 109.952 94.4997 110.252C94.3997 110.352 94.1997 110.352 93.9997 110.352Z" fill="#6BB4FD"/>
<path d="M89.8009 110.151C89.0009 110.151 88.3009 109.551 88.2009 108.651C87.7009 104.051 89.1009 99.3514 92.1009 95.7514C92.7009 95.0514 93.7009 94.9514 94.4009 95.5514C95.1009 96.1514 95.2009 97.1514 94.6009 97.8514C92.2009 100.651 91.1009 104.551 91.5009 108.251C91.6009 109.151 90.9009 109.951 90.0009 110.051C89.9009 110.151 89.8009 110.151 89.8009 110.151Z" fill="#6BB4FD"/>
<path d="M102.3 113.552C95.9003 110.652 91.6003 103.352 92.2003 96.3516L95.5003 96.6516C95.0003 102.352 98.5003 108.252 103.7 110.652L102.3 113.552Z" fill="#6AC86E"/>
</svg>
