<?xml version="1.0" encoding="utf-8"?>
<!-- Generator: Adobe Illustrator 17.0.0, SVG Export Plug-In . SVG Version: 6.00 Build 0)  -->
<!DOCTYPE svg PUBLIC "-//W3C//DTD SVG 1.1//EN" "http://www.w3.org/Graphics/SVG/1.1/DTD/svg11.dtd">
<svg version="1.1" id="Layer_1" xmlns="http://www.w3.org/2000/svg" xmlns:xlink="http://www.w3.org/1999/xlink" x="0px" y="0px"
	 width="825px" height="270px" viewBox="38.266 396.754 825 270" enable-background="new 38.266 396.754 825 270"
	 xml:space="preserve">
<g>
	<path fill="#FFFFFF" d="M417.348,663.932c6.605-1.037,12.689-3.356,18.038-6.661c13.342,7.794,29.36,11.215,45.822,8.632
		c28.079-4.407,49.562-25.04,56.381-50.824c0.167-0.024,0.334-0.046,0.501-0.072c27.222-4.272,46.054-28.279,42.064-53.619
		c-1.305-8.284-4.888-15.686-10.07-21.747c12.476-6.222,20.061-19.98,17.779-34.466c-2.55-16.199-16.56-27.754-32.486-27.733
		c-0.036-2.929-0.278-5.891-0.747-8.871c-5.069-32.189-34.317-54.581-66.364-51.638c-5.698-13.647-20.166-22.174-35.447-19.776
		c-9.669,1.517-17.682,7.103-22.578,14.73c-9.551-3.418-20.073-4.563-30.802-2.88c-31.014,4.868-53.107,31.686-52.9,62.108
		c-1.409,0.045-2.829,0.167-4.258,0.39c-18.659,2.929-31.407,20.405-28.474,39.034c1.945,12.355,10.302,22.107,21.151,26.425
		c-15.042,8.437-24.007,25.582-21.169,43.596c3.58,22.736,24.624,38.397,47.34,35.505c0.009,2.447,0.204,4.926,0.597,7.419
		C365.897,649.99,390.801,668.099,417.348,663.932z"/>
	<g>
		
			<path fill="none" stroke="#000000" stroke-width="2.3079" stroke-linecap="round" stroke-linejoin="round" stroke-miterlimit="10" d="
			M389.653,592.807c-2.225,0.621-8.849-16.097-14.795-37.339c-5.946-21.242-8.963-38.967-6.737-39.586l145.035-40.466
			c2.225-0.621,8.849,16.097,14.795,37.339c5.946,21.242,8.963,38.967,6.737,39.587L389.653,592.807z"/>
		
			<polygon fill="none" stroke="#000000" stroke-width="2.3079" stroke-linecap="round" stroke-linejoin="round" stroke-miterlimit="10" points="
			499.759,486.429 517.465,549.699 403.547,581.477 385.84,518.208 		"/>
		
			<polygon fill="none" stroke="#000000" stroke-width="2.3079" stroke-linecap="round" stroke-linejoin="round" stroke-miterlimit="10" points="
			499.759,486.429 517.465,549.699 403.547,581.477 385.84,518.208 		"/>
		
			<ellipse transform="matrix(0.9632 -0.2687 0.2687 0.9632 -133.9615 123.7398)" fill="none" stroke="#000000" stroke-width="2.3079" stroke-linecap="round" stroke-linejoin="round" stroke-miterlimit="10" cx="385.062" cy="551.254" rx="2.614" ry="9.92"/>
		
			<circle fill="none" stroke="#000000" stroke-width="2.3079" stroke-linecap="round" stroke-linejoin="round" stroke-miterlimit="10" cx="518.499" cy="515.843" r="2.088"/>
	</g>
	<g>
		
			<path fill="none" stroke="#000000" stroke-width="2.3079" stroke-linecap="round" stroke-linejoin="round" stroke-miterlimit="10" d="
			M367.734,550.19c-2.208-0.677,1.254-18.319,7.733-39.405s13.522-37.632,15.731-36.956l143.969,44.096
			c2.208,0.677-1.254,18.319-7.733,39.405c-6.479,21.086-13.522,37.632-15.731,36.955L367.734,550.19z"/>
		
			<polygon fill="none" stroke="#000000" stroke-width="2.3079" stroke-linecap="round" stroke-linejoin="round" stroke-miterlimit="10" points="
			517.95,519.981 498.651,582.784 385.572,548.148 404.871,485.345 		"/>
		
			<ellipse transform="matrix(0.9562 0.2929 -0.2929 0.9562 167.11 -90.6681)" fill="none" stroke="#000000" stroke-width="2.3079" stroke-linecap="round" stroke-linejoin="round" stroke-miterlimit="10" cx="386.348" cy="512.742" rx="2.614" ry="9.921"/>
		
			<circle fill="none" stroke="#000000" stroke-width="2.3079" stroke-linecap="round" stroke-linejoin="round" stroke-miterlimit="10" cx="517.809" cy="554.839" r="2.088"/>
	</g>
	
		<path fill="none" stroke="#000000" stroke-width="6.2423" stroke-linecap="round" stroke-linejoin="round" stroke-miterlimit="10" d="
		M552.07,558.661c6.397-15.19,4.774-27.211-1.396-38.64"/>
	<polygon points="542.727,525.038 558.773,515.486 545.137,510.862 	"/>
	<polygon points="544.392,553.42 560.44,562.971 546.803,567.596 	"/>
	
		<path fill="none" stroke="#000000" stroke-width="6.2423" stroke-linecap="round" stroke-linejoin="round" stroke-miterlimit="10" d="
		M350.618,558.661c-6.397-15.19-4.774-27.211,1.396-38.64"/>
	<polygon points="359.962,525.038 343.914,515.486 357.55,510.862 	"/>
	<polygon points="358.295,553.42 342.248,562.971 355.885,567.596 	"/>
	
		<rect x="392.314" y="501.185" fill="none" stroke="#000000" stroke-width="2.3079" stroke-linecap="round" stroke-linejoin="round" stroke-miterlimit="10" width="118.283" height="65.693"/>
	<g>
		
			<path fill="#DCDDDE" stroke="#000000" stroke-width="2.6109" stroke-linecap="round" stroke-linejoin="round" stroke-miterlimit="10" d="
			M375.858,574.042c-2.31,0-4.183-17.88-4.183-39.937s1.872-39.937,4.183-39.937h150.593c2.31,0,4.183,17.88,4.183,39.937
			s-1.872,39.937-4.183,39.937H375.858L375.858,574.042z"/>
		<rect x="392.314" y="501.185" fill="#FFE300" width="118.283" height="65.693"/>
		
			<rect x="392.314" y="501.185" fill="none" stroke="#000000" stroke-width="2.3079" stroke-linecap="round" stroke-linejoin="round" stroke-miterlimit="10" width="118.283" height="65.693"/>
		
			<ellipse fill="none" stroke="#000000" stroke-width="2.3079" stroke-linecap="round" stroke-linejoin="round" stroke-miterlimit="10" cx="382.655" cy="532.8" rx="2.614" ry="9.919"/>
		
			<circle fill="none" stroke="#000000" stroke-width="2.3079" stroke-linecap="round" stroke-linejoin="round" stroke-miterlimit="10" cx="520.698" cy="534.541" r="2.088"/>
	</g>
</g>
<g>
	<path fill="#FFFFFF" d="M142.348,663.932c6.605-1.037,12.689-3.356,18.038-6.661c13.342,7.794,29.36,11.215,45.822,8.632
		c28.08-4.407,49.562-25.04,56.381-50.824c0.167-0.024,0.334-0.046,0.501-0.072c27.222-4.272,46.054-28.279,42.064-53.619
		c-1.305-8.284-4.888-15.686-10.07-21.747c12.476-6.222,20.061-19.98,17.779-34.466c-2.55-16.199-16.56-27.754-32.486-27.733
		c-0.036-2.929-0.278-5.891-0.747-8.871c-5.069-32.189-34.317-54.581-66.364-51.638c-5.698-13.647-20.166-22.174-35.448-19.776
		c-9.669,1.517-17.682,7.103-22.578,14.73c-9.551-3.418-20.073-4.563-30.802-2.88c-31.014,4.868-53.107,31.686-52.9,62.108
		c-1.409,0.045-2.829,0.167-4.258,0.39c-18.659,2.929-31.408,20.405-28.473,39.034c1.945,12.355,10.302,22.107,21.151,26.425
		c-15.042,8.437-24.007,25.582-21.169,43.596c3.58,22.736,24.624,38.397,47.34,35.505c0.009,2.447,0.204,4.926,0.597,7.419
		C90.897,649.99,115.802,668.099,142.348,663.932z"/>
	<g>
		
			<path fill="none" stroke="#000000" stroke-width="2.3079" stroke-linecap="round" stroke-linejoin="round" stroke-miterlimit="10" d="
			M114.652,592.807c-2.225,0.621-8.849-16.097-14.795-37.339c-5.946-21.242-8.963-38.967-6.737-39.586l145.037-40.466
			c2.225-0.621,8.849,16.097,14.795,37.339c5.946,21.242,8.963,38.967,6.737,39.587L114.652,592.807z"/>
		
			<polygon fill="none" stroke="#000000" stroke-width="2.3079" stroke-linecap="round" stroke-linejoin="round" stroke-miterlimit="10" points="
			224.775,486.43 242.481,549.699 128.562,581.478 110.856,518.208 		"/>
		
			<polygon fill="none" stroke="#000000" stroke-width="2.3079" stroke-linecap="round" stroke-linejoin="round" stroke-miterlimit="10" points="
			224.775,486.43 242.481,549.699 128.562,581.478 110.856,518.208 		"/>
		
			<ellipse transform="matrix(0.9632 -0.2687 0.2687 0.9632 -144.0741 49.8509)" fill="none" stroke="#000000" stroke-width="2.3079" stroke-linecap="round" stroke-linejoin="round" stroke-miterlimit="10" cx="110.077" cy="551.254" rx="2.614" ry="9.92"/>
		
			<circle fill="none" stroke="#000000" stroke-width="2.3079" stroke-linecap="round" stroke-linejoin="round" stroke-miterlimit="10" cx="243.5" cy="515.843" r="2.088"/>
	</g>
	
		<path fill="none" stroke="#000000" stroke-width="6.2423" stroke-linecap="round" stroke-linejoin="round" stroke-miterlimit="10" d="
		M277.07,558.661c6.397-15.19,4.774-27.211-1.396-38.64"/>
	<polygon points="267.726,525.038 283.774,515.486 270.138,510.862 	"/>
	<polygon points="269.393,553.42 285.44,562.971 271.803,567.596 	"/>
	
		<path fill="none" stroke="#000000" stroke-width="6.2423" stroke-linecap="round" stroke-linejoin="round" stroke-miterlimit="10" d="
		M75.618,558.661c-6.397-15.19-4.774-27.211,1.396-38.64"/>
	<polygon points="84.961,525.038 68.914,515.486 82.55,510.862 	"/>
	<polygon points="83.295,553.42 67.248,562.971 80.884,567.596 	"/>
	
		<rect x="117.314" y="501.185" fill="none" stroke="#000000" stroke-width="2.3079" stroke-linecap="round" stroke-linejoin="round" stroke-miterlimit="10" width="118.284" height="65.693"/>
	<g>
		
			<path fill="#FFFFFF" stroke="#000000" stroke-width="2.3079" stroke-linecap="round" stroke-linejoin="round" stroke-miterlimit="10" d="
			M100.858,574.042c-2.31,0-4.183-17.88-4.183-39.937s1.873-39.937,4.183-39.937h150.593c2.31,0,4.183,17.88,4.183,39.937
			s-1.872,39.937-4.183,39.937H100.858L100.858,574.042z"/>
		
			<rect x="117.314" y="501.185" fill="#FFFFFF" stroke="#000000" stroke-width="2.3079" stroke-linecap="round" stroke-linejoin="round" stroke-miterlimit="10" width="118.284" height="65.693"/>
		
			<rect x="117.314" y="501.185" fill="#FFFFFF" stroke="#000000" stroke-width="2.3079" stroke-linecap="round" stroke-linejoin="round" stroke-miterlimit="10" width="118.284" height="65.693"/>
		
			<ellipse fill="#FFFFFF" stroke="#000000" stroke-width="2.3079" stroke-linecap="round" stroke-linejoin="round" stroke-miterlimit="10" cx="107.656" cy="532.8" rx="2.614" ry="9.919"/>
		
			<circle fill="#FFFFFF" stroke="#000000" stroke-width="2.3079" stroke-linecap="round" stroke-linejoin="round" stroke-miterlimit="10" cx="245.699" cy="534.541" r="2.088"/>
	</g>
	<g>
		
			<path fill="#DCDDDE" stroke="#000000" stroke-width="2.6109" stroke-linecap="round" stroke-linejoin="round" stroke-miterlimit="10" d="
			M92.735,550.19c-2.208-0.677,1.254-18.319,7.733-39.405c6.479-21.086,13.522-37.632,15.731-36.956l143.97,44.096
			c2.208,0.677-1.254,18.319-7.733,39.405c-6.479,21.086-13.522,37.632-15.731,36.955L92.735,550.19z"/>
		<polygon fill="#FFE300" points="242.952,519.988 223.653,582.791 110.574,548.155 129.873,485.352 		"/>
		
			<polygon fill="none" stroke="#000000" stroke-width="2.6109" stroke-linecap="round" stroke-linejoin="round" stroke-miterlimit="10" points="
			242.952,519.988 223.653,582.791 110.574,548.155 129.873,485.352 		"/>
		
			<ellipse transform="matrix(0.9562 0.2929 -0.2929 0.9562 155.0535 -10.1281)" fill="#DCDDDE" stroke="#000000" stroke-width="2.6109" stroke-linecap="round" stroke-linejoin="round" stroke-miterlimit="10" cx="111.35" cy="512.75" rx="2.614" ry="9.921"/>
		
			<circle fill="#DCDDDE" stroke="#000000" stroke-width="2.6109" stroke-linecap="round" stroke-linejoin="round" stroke-miterlimit="10" cx="242.81" cy="554.839" r="2.088"/>
	</g>
</g>
<g>
	<path fill="#FFFFFF" d="M692.349,663.932c6.605-1.037,12.689-3.356,18.038-6.661c13.342,7.794,29.36,11.215,45.822,8.632
		c28.079-4.407,49.562-25.04,56.381-50.824c0.167-0.024,0.334-0.046,0.501-0.072c27.222-4.272,46.053-28.279,42.064-53.619
		c-1.305-8.284-4.888-15.686-10.07-21.747c12.476-6.222,20.061-19.98,17.779-34.466c-2.55-16.199-16.56-27.754-32.486-27.733
		c-0.036-2.929-0.278-5.891-0.747-8.871c-5.069-32.189-34.317-54.581-66.364-51.638c-5.698-13.647-20.166-22.174-35.447-19.776
		c-9.669,1.517-17.682,7.103-22.578,14.73c-9.551-3.418-20.073-4.563-30.803-2.88c-31.014,4.868-53.107,31.686-52.9,62.108
		c-1.409,0.045-2.829,0.167-4.258,0.39c-18.659,2.928-31.407,20.405-28.474,39.034c1.945,12.355,10.302,22.107,21.151,26.425
		c-15.042,8.437-24.006,25.582-21.169,43.596c3.58,22.736,24.624,38.397,47.34,35.505c0.009,2.447,0.204,4.926,0.597,7.419
		C640.898,649.99,665.802,668.099,692.349,663.932z"/>
	<g>
		
			<path fill="none" stroke="#000000" stroke-width="2.3079" stroke-linecap="round" stroke-linejoin="round" stroke-miterlimit="10" d="
			M642.735,550.19c-2.208-0.677,1.254-18.319,7.733-39.405c6.479-21.086,13.522-37.632,15.731-36.956l143.97,44.096
			c2.208,0.677-1.254,18.319-7.733,39.405c-6.479,21.086-13.522,37.632-15.731,36.955L642.735,550.19z"/>
		
			<polygon fill="none" stroke="#000000" stroke-width="2.3079" stroke-linecap="round" stroke-linejoin="round" stroke-miterlimit="10" points="
			792.948,519.973 773.649,582.776 660.571,548.139 679.87,485.336 		"/>
		
			<ellipse transform="matrix(0.9562 0.2929 -0.2929 0.9562 179.1668 -171.2091)" fill="none" stroke="#000000" stroke-width="2.3079" stroke-linecap="round" stroke-linejoin="round" stroke-miterlimit="10" cx="661.347" cy="512.734" rx="2.614" ry="9.921"/>
		
			<circle fill="none" stroke="#000000" stroke-width="2.3079" stroke-linecap="round" stroke-linejoin="round" stroke-miterlimit="10" cx="792.81" cy="554.839" r="2.088"/>
	</g>
	
		<path fill="none" stroke="#000000" stroke-width="6.2423" stroke-linecap="round" stroke-linejoin="round" stroke-miterlimit="10" d="
		M827.07,558.661c6.397-15.19,4.774-27.211-1.396-38.64"/>
	<polygon points="817.727,525.038 833.774,515.486 820.138,510.862 	"/>
	<polygon points="819.393,553.42 835.44,562.971 821.804,567.596 	"/>
	
		<path fill="none" stroke="#000000" stroke-width="6.2423" stroke-linecap="round" stroke-linejoin="round" stroke-miterlimit="10" d="
		M625.619,558.661c-6.397-15.19-4.774-27.211,1.396-38.64"/>
	<polygon points="634.962,525.038 618.916,515.486 632.552,510.862 	"/>
	<polygon points="633.297,553.42 617.249,562.971 630.886,567.596 	"/>
	
		<rect x="667.316" y="501.185" fill="none" stroke="#000000" stroke-width="2.3079" stroke-linecap="round" stroke-linejoin="round" stroke-miterlimit="10" width="118.283" height="65.693"/>
	<g>
		
			<path fill="#FFFFFF" stroke="#000000" stroke-width="2.3079" stroke-linecap="round" stroke-linejoin="round" stroke-miterlimit="10" d="
			M650.859,574.042c-2.31,0-4.183-17.88-4.183-39.937s1.872-39.937,4.183-39.937h150.592c2.31,0,4.183,17.88,4.183,39.937
			s-1.872,39.937-4.183,39.937H650.859L650.859,574.042z"/>
		
			<rect x="667.316" y="501.185" fill="#FFFFFF" stroke="#000000" stroke-width="2.3079" stroke-linecap="round" stroke-linejoin="round" stroke-miterlimit="10" width="118.283" height="65.693"/>
		
			<rect x="667.316" y="501.185" fill="#FFFFFF" stroke="#000000" stroke-width="2.3079" stroke-linecap="round" stroke-linejoin="round" stroke-miterlimit="10" width="118.283" height="65.693"/>
		
			<ellipse fill="#FFFFFF" stroke="#000000" stroke-width="2.3079" stroke-linecap="round" stroke-linejoin="round" stroke-miterlimit="10" cx="657.657" cy="532.8" rx="2.614" ry="9.919"/>
		
			<circle fill="#FFFFFF" stroke="#000000" stroke-width="2.3079" stroke-linecap="round" stroke-linejoin="round" stroke-miterlimit="10" cx="795.699" cy="534.541" r="2.088"/>
	</g>
	<g>
		
			<path fill="#DCDDDE" stroke="#000000" stroke-width="2.6109" stroke-linecap="round" stroke-linejoin="round" stroke-miterlimit="10" d="
			M664.653,592.807c-2.225,0.621-8.849-16.097-14.795-37.339c-5.946-21.242-8.963-38.967-6.737-39.586l145.034-40.466
			c2.225-0.621,8.849,16.097,14.795,37.339c5.946,21.242,8.963,38.967,6.737,39.587L664.653,592.807z"/>
		<polygon fill="#FFE300" points="774.744,486.429 792.45,549.698 678.532,581.477 660.826,518.208 		"/>
		
			<ellipse transform="matrix(0.9632 -0.2687 0.2687 0.9632 -123.849 197.63)" fill="#DCDDDE" stroke="#000000" stroke-width="2.6109" stroke-linecap="round" stroke-linejoin="round" stroke-miterlimit="10" cx="660.049" cy="551.255" rx="2.614" ry="9.92"/>
		
			<circle fill="#DCDDDE" stroke="#000000" stroke-width="2.6109" stroke-linecap="round" stroke-linejoin="round" stroke-miterlimit="10" cx="793.5" cy="515.843" r="2.088"/>
		
			<polygon fill="none" stroke="#000000" stroke-width="2.6109" stroke-linecap="round" stroke-linejoin="round" stroke-miterlimit="10" points="
			774.744,486.429 792.45,549.698 678.532,581.477 660.826,518.208 		"/>
	</g>
</g>
</svg>
