<?xml version="1.0" encoding="utf-8"?>
<!-- Generator: Adobe Illustrator 17.0.0, SVG Export Plug-In . SVG Version: 6.00 Build 0)  -->
<!DOCTYPE svg PUBLIC "-//W3C//DTD SVG 1.1//EN" "http://www.w3.org/Graphics/SVG/1.1/DTD/svg11.dtd">
<svg version="1.1" id="Layer_1" xmlns="http://www.w3.org/2000/svg" xmlns:xlink="http://www.w3.org/1999/xlink" x="0px" y="0px"
	 width="550px" height="270px" viewBox="-136.124 396.753 550 270" enable-background="new -136.124 396.753 550 270"
	 xml:space="preserve">
<g>
	<path fill="#FFFFFF" d="M138.473,505.174c-2.55-16.199-16.56-27.754-32.486-27.733c-0.036-2.929-0.278-5.892-0.747-8.871
		c-5.069-32.189-34.317-54.581-66.364-51.638c-5.698-13.647-20.166-22.174-35.448-19.776c-9.669,1.517-17.682,7.103-22.578,14.73
		c-9.551-3.418-20.073-4.563-30.803-2.879c-31.014,4.868-53.107,31.686-52.9,62.108c-1.409,0.045-2.829,0.167-4.258,0.391
		c-18.658,2.928-31.406,20.404-28.473,39.033c1.945,12.355,10.302,22.107,21.151,26.425c-15.042,8.436-24.007,25.582-21.169,43.596
		c3.58,22.736,24.624,38.397,47.34,35.505c0.009,2.447,0.204,4.926,0.597,7.419c4.173,26.504,29.077,44.612,55.624,40.446
		c6.605-1.037,12.689-3.356,18.038-6.66c13.342,7.794,29.36,11.215,45.822,8.632c28.08-4.407,49.562-25.04,56.381-50.824
		c0.167-0.024,0.334-0.046,0.501-0.072c27.222-4.272,46.054-28.279,42.064-53.619c-1.305-8.284-4.888-15.685-10.07-21.747
		C133.169,533.419,140.753,519.661,138.473,505.174z"/>
	<g>
		<g>
			<path id="SVGID_1_" fill="#FFFFFF" d="M138.473,505.174c-2.55-16.199-16.56-27.754-32.486-27.733
				c-0.036-2.929-0.278-5.892-0.747-8.871c-5.069-32.189-34.317-54.581-66.364-51.638c-5.698-13.647-20.166-22.174-35.448-19.776
				c-9.669,1.517-17.682,7.103-22.578,14.73c-9.551-3.418-20.073-4.563-30.803-2.879c-31.014,4.868-53.107,31.686-52.9,62.108
				c-1.409,0.045-2.829,0.167-4.258,0.391c-18.658,2.928-31.406,20.404-28.473,39.033c1.945,12.355,10.302,22.107,21.151,26.425
				c-15.042,8.436-24.007,25.582-21.169,43.596c3.58,22.736,24.624,38.397,47.34,35.505c0.009,2.447,0.204,4.926,0.597,7.419
				c4.173,26.504,29.077,44.612,55.624,40.446c6.605-1.037,12.689-3.356,18.038-6.66c13.342,7.794,29.36,11.215,45.822,8.632
				c28.08-4.407,49.562-25.04,56.381-50.824c0.167-0.024,0.334-0.046,0.501-0.072c27.222-4.272,46.054-28.279,42.064-53.619
				c-1.305-8.284-4.888-15.685-10.07-21.747C133.169,533.419,140.753,519.661,138.473,505.174z"/>
		</g>
		<g>
			<defs>
				<path id="SVGID_2_" d="M138.473,505.174c-2.55-16.199-16.56-27.754-32.486-27.733c-0.036-2.929-0.278-5.892-0.747-8.871
					c-5.069-32.189-34.317-54.581-66.364-51.638c-5.698-13.647-20.166-22.174-35.448-19.776c-9.669,1.517-17.682,7.103-22.578,14.73
					c-9.551-3.418-20.073-4.563-30.803-2.879c-31.014,4.868-53.107,31.686-52.9,62.108c-1.409,0.045-2.829,0.167-4.258,0.391
					c-18.658,2.928-31.406,20.404-28.473,39.033c1.945,12.355,10.302,22.107,21.151,26.425
					c-15.042,8.436-24.007,25.582-21.169,43.596c3.58,22.736,24.624,38.397,47.34,35.505c0.009,2.447,0.204,4.926,0.597,7.419
					c4.173,26.504,29.077,44.612,55.624,40.446c6.605-1.037,12.689-3.356,18.038-6.66c13.342,7.794,29.36,11.215,45.822,8.632
					c28.08-4.407,49.562-25.04,56.381-50.824c0.167-0.024,0.334-0.046,0.501-0.072c27.222-4.272,46.054-28.279,42.064-53.619
					c-1.305-8.284-4.888-15.685-10.07-21.747C133.169,533.419,140.753,519.661,138.473,505.174z"/>
			</defs>
			<clipPath id="SVGID_4_">
				<use xlink:href="#SVGID_2_"  overflow="visible"/>
			</clipPath>
			
				<polygon clip-path="url(#SVGID_4_)" fill="#DCDDDE" stroke="#000000" stroke-width="2.6109" stroke-linecap="round" stroke-linejoin="round" stroke-miterlimit="10" points="
				-154.398,482.07 154.263,628.697 37.188,681.663 -136.072,664.199 -178.554,536.959 			"/>
		</g>
		<g>
			<defs>
				<path id="SVGID_5_" d="M138.473,505.174c-2.55-16.199-16.56-27.754-32.486-27.733c-0.036-2.929-0.278-5.892-0.747-8.871
					c-5.069-32.189-34.317-54.581-66.364-51.638c-5.698-13.647-20.166-22.174-35.448-19.776c-9.669,1.517-17.682,7.103-22.578,14.73
					c-9.551-3.418-20.073-4.563-30.803-2.879c-31.014,4.868-53.107,31.686-52.9,62.108c-1.409,0.045-2.829,0.167-4.258,0.391
					c-18.658,2.928-31.406,20.404-28.473,39.033c1.945,12.355,10.302,22.107,21.151,26.425
					c-15.042,8.436-24.007,25.582-21.169,43.596c3.58,22.736,24.624,38.397,47.34,35.505c0.009,2.447,0.204,4.926,0.597,7.419
					c4.173,26.504,29.077,44.612,55.624,40.446c6.605-1.037,12.689-3.356,18.038-6.66c13.342,7.794,29.36,11.215,45.822,8.632
					c28.08-4.407,49.562-25.04,56.381-50.824c0.167-0.024,0.334-0.046,0.501-0.072c27.222-4.272,46.054-28.279,42.064-53.619
					c-1.305-8.284-4.888-15.685-10.07-21.747C133.169,533.419,140.753,519.661,138.473,505.174z"/>
			</defs>
			<clipPath id="SVGID_6_">
				<use xlink:href="#SVGID_5_"  overflow="visible"/>
			</clipPath>
			<g clip-path="url(#SVGID_6_)">
				<path fill="#FFFFFF" d="M-122.035,538.889c1.445,0.682,1.465,1.808,0.045,2.501l-17.43,8.518
					c-1.42,0.694-3.762,0.704-5.207,0.021l-17.731-8.374c-1.444-0.682-1.465-1.808-0.045-2.501l17.43-8.518
					c1.42-0.694,3.763-0.704,5.207-0.022L-122.035,538.889z"/>
				
					<path fill="#DCDDDE" stroke="#000000" stroke-width="2.6109" stroke-linecap="round" stroke-linejoin="round" stroke-miterlimit="10" d="
					M-122.035,538.889c1.445,0.682,1.465,1.808,0.045,2.501l-17.43,8.518c-1.42,0.694-3.762,0.704-5.207,0.021l-17.731-8.374
					c-1.444-0.682-1.465-1.808-0.045-2.501l17.43-8.518c1.42-0.694,3.763-0.704,5.207-0.022L-122.035,538.889z"/>
			</g>
		</g>
		<g>
			<defs>
				<path id="SVGID_7_" d="M138.473,505.174c-2.55-16.199-16.56-27.754-32.486-27.733c-0.036-2.929-0.278-5.892-0.747-8.871
					c-5.069-32.189-34.317-54.581-66.364-51.638c-5.698-13.647-20.166-22.174-35.448-19.776c-9.669,1.517-17.682,7.103-22.578,14.73
					c-9.551-3.418-20.073-4.563-30.803-2.879c-31.014,4.868-53.107,31.686-52.9,62.108c-1.409,0.045-2.829,0.167-4.258,0.391
					c-18.658,2.928-31.406,20.404-28.473,39.033c1.945,12.355,10.302,22.107,21.151,26.425
					c-15.042,8.436-24.007,25.582-21.169,43.596c3.58,22.736,24.624,38.397,47.34,35.505c0.009,2.447,0.204,4.926,0.597,7.419
					c4.173,26.504,29.077,44.612,55.624,40.446c6.605-1.037,12.689-3.356,18.038-6.66c13.342,7.794,29.36,11.215,45.822,8.632
					c28.08-4.407,49.562-25.04,56.381-50.824c0.167-0.024,0.334-0.046,0.501-0.072c27.222-4.272,46.054-28.279,42.064-53.619
					c-1.305-8.284-4.888-15.685-10.07-21.747C133.169,533.419,140.753,519.661,138.473,505.174z"/>
			</defs>
			<clipPath id="SVGID_8_">
				<use xlink:href="#SVGID_7_"  overflow="visible"/>
			</clipPath>
			<g clip-path="url(#SVGID_8_)">
				
					<path fill="none" stroke="#000000" stroke-width="2.3079" stroke-linecap="round" stroke-linejoin="round" stroke-miterlimit="10" d="
					M-57.768,542.467c1.445,0.683,1.464,1.808,0.044,2.501l-17.43,8.518c-1.42,0.694-3.763,0.704-5.207,0.022l-17.731-8.374
					c-1.444-0.682-1.464-1.808-0.044-2.501l17.43-8.518c1.42-0.694,3.763-0.704,5.207-0.022L-57.768,542.467z"/>
				
					<path fill="none" stroke="#000000" stroke-width="2.3079" stroke-linecap="round" stroke-linejoin="round" stroke-miterlimit="10" d="
					M-0.886,569.33c1.445,0.682,1.465,1.808,0.045,2.501l-17.43,8.518c-1.42,0.694-3.763,0.703-5.207,0.021l-17.73-8.374
					c-1.445-0.682-1.465-1.808-0.045-2.501l17.43-8.518c1.42-0.694,3.763-0.704,5.207-0.022L-0.886,569.33z"/>
			</g>
		</g>
		<g>
			<defs>
				<path id="SVGID_9_" d="M138.473,505.174c-2.55-16.199-16.56-27.754-32.486-27.733c-0.036-2.929-0.278-5.892-0.747-8.871
					c-5.069-32.189-34.317-54.581-66.364-51.638c-5.698-13.647-20.166-22.174-35.448-19.776c-9.669,1.517-17.682,7.103-22.578,14.73
					c-9.551-3.418-20.073-4.563-30.803-2.879c-31.014,4.868-53.107,31.686-52.9,62.108c-1.409,0.045-2.829,0.167-4.258,0.391
					c-18.658,2.928-31.406,20.404-28.473,39.033c1.945,12.355,10.302,22.107,21.151,26.425
					c-15.042,8.436-24.007,25.582-21.169,43.596c3.58,22.736,24.624,38.397,47.34,35.505c0.009,2.447,0.204,4.926,0.597,7.419
					c4.173,26.504,29.077,44.612,55.624,40.446c6.605-1.037,12.689-3.356,18.038-6.66c13.342,7.794,29.36,11.215,45.822,8.632
					c28.08-4.407,49.562-25.04,56.381-50.824c0.167-0.024,0.334-0.046,0.501-0.072c27.222-4.272,46.054-28.279,42.064-53.619
					c-1.305-8.284-4.888-15.685-10.07-21.747C133.169,533.419,140.753,519.661,138.473,505.174z"/>
			</defs>
			<clipPath id="SVGID_10_">
				<use xlink:href="#SVGID_9_"  overflow="visible"/>
			</clipPath>
			<g clip-path="url(#SVGID_10_)">
				<path fill="#FFE300" d="M-29.302,555.911c1.444,0.682,1.464,1.808,0.044,2.501l-17.43,8.518
					c-1.419,0.694-3.762,0.704-5.206,0.022l-17.731-8.373c-1.445-0.682-1.465-1.808-0.045-2.501l17.431-8.518
					c1.42-0.694,3.763-0.704,5.207-0.022L-29.302,555.911z"/>
				
					<path fill="none" stroke="#000000" stroke-width="2.6109" stroke-linecap="round" stroke-linejoin="round" stroke-miterlimit="10" d="
					M-29.302,555.911c1.444,0.682,1.464,1.808,0.044,2.501l-17.43,8.518c-1.419,0.694-3.762,0.704-5.206,0.022l-17.731-8.373
					c-1.445-0.682-1.465-1.808-0.045-2.501l17.431-8.518c1.42-0.694,3.763-0.704,5.207-0.022L-29.302,555.911z"/>
			</g>
		</g>
		<g>
			<defs>
				<path id="SVGID_11_" d="M138.473,505.174c-2.55-16.199-16.56-27.754-32.486-27.733c-0.036-2.929-0.278-5.892-0.747-8.871
					c-5.069-32.189-34.317-54.581-66.364-51.638c-5.698-13.647-20.166-22.174-35.448-19.776c-9.669,1.517-17.682,7.103-22.578,14.73
					c-9.551-3.418-20.073-4.563-30.803-2.879c-31.014,4.868-53.107,31.686-52.9,62.108c-1.409,0.045-2.829,0.167-4.258,0.391
					c-18.658,2.928-31.406,20.404-28.473,39.033c1.945,12.355,10.302,22.107,21.151,26.425
					c-15.042,8.436-24.007,25.582-21.169,43.596c3.58,22.736,24.624,38.397,47.34,35.505c0.009,2.447,0.204,4.926,0.597,7.419
					c4.173,26.504,29.077,44.612,55.624,40.446c6.605-1.037,12.689-3.356,18.038-6.66c13.342,7.794,29.36,11.215,45.822,8.632
					c28.08-4.407,49.562-25.04,56.381-50.824c0.167-0.024,0.334-0.046,0.501-0.072c27.222-4.272,46.054-28.279,42.064-53.619
					c-1.305-8.284-4.888-15.685-10.07-21.747C133.169,533.419,140.753,519.661,138.473,505.174z"/>
			</defs>
			<clipPath id="SVGID_12_">
				<use xlink:href="#SVGID_11_"  overflow="visible"/>
			</clipPath>
			<g clip-path="url(#SVGID_12_)">
				<path fill="#FFE300" d="M-57.547,569.713c1.444,0.682,1.465,1.808,0.044,2.501l-17.43,8.518
					c-1.42,0.694-3.763,0.704-5.207,0.022l-17.731-8.374c-1.444-0.682-1.464-1.808-0.044-2.501l17.43-8.518
					c1.42-0.694,3.762-0.704,5.207-0.022L-57.547,569.713z"/>
				
					<path fill="none" stroke="#000000" stroke-width="2.6109" stroke-linecap="round" stroke-linejoin="round" stroke-miterlimit="10" d="
					M-57.547,569.713c1.444,0.682,1.465,1.808,0.044,2.501l-17.43,8.518c-1.42,0.694-3.763,0.704-5.207,0.022l-17.731-8.374
					c-1.444-0.682-1.464-1.808-0.044-2.501l17.43-8.518c1.42-0.694,3.762-0.704,5.207-0.022L-57.547,569.713z"/>
			</g>
		</g>
		<g>
			<defs>
				<path id="SVGID_13_" d="M138.473,505.174c-2.55-16.199-16.56-27.754-32.486-27.733c-0.036-2.929-0.278-5.892-0.747-8.871
					c-5.069-32.189-34.317-54.581-66.364-51.638c-5.698-13.647-20.166-22.174-35.448-19.776c-9.669,1.517-17.682,7.103-22.578,14.73
					c-9.551-3.418-20.073-4.563-30.803-2.879c-31.014,4.868-53.107,31.686-52.9,62.108c-1.409,0.045-2.829,0.167-4.258,0.391
					c-18.658,2.928-31.406,20.404-28.473,39.033c1.945,12.355,10.302,22.107,21.151,26.425
					c-15.042,8.436-24.007,25.582-21.169,43.596c3.58,22.736,24.624,38.397,47.34,35.505c0.009,2.447,0.204,4.926,0.597,7.419
					c4.173,26.504,29.077,44.612,55.624,40.446c6.605-1.037,12.689-3.356,18.038-6.66c13.342,7.794,29.36,11.215,45.822,8.632
					c28.08-4.407,49.562-25.04,56.381-50.824c0.167-0.024,0.334-0.046,0.501-0.072c27.222-4.272,46.054-28.279,42.064-53.619
					c-1.305-8.284-4.888-15.685-10.07-21.747C133.169,533.419,140.753,519.661,138.473,505.174z"/>
			</defs>
			<clipPath id="SVGID_14_">
				<use xlink:href="#SVGID_13_"  overflow="visible"/>
			</clipPath>
			<g clip-path="url(#SVGID_14_)">
				<path fill="#FFFFFF" d="M92.866,640.47c1.445,0.682,1.464,1.808,0.045,2.501l-17.431,8.518c-1.42,0.694-3.763,0.704-5.207,0.022
					l-17.73-8.374c-1.444-0.682-1.464-1.808-0.044-2.501l17.43-8.518c1.42-0.694,3.763-0.703,5.207-0.021L92.866,640.47z"/>
				
					<path fill="#DCDDDE" stroke="#000000" stroke-width="2.6109" stroke-linecap="round" stroke-linejoin="round" stroke-miterlimit="10" d="
					M92.866,640.47c1.445,0.682,1.464,1.808,0.045,2.501l-17.431,8.518c-1.42,0.694-3.763,0.704-5.207,0.022l-17.73-8.374
					c-1.444-0.682-1.464-1.808-0.044-2.501l17.43-8.518c1.42-0.694,3.763-0.703,5.207-0.021L92.866,640.47z"/>
				
					<path fill="#DCDDDE" stroke="#000000" stroke-width="2.6109" stroke-linecap="round" stroke-linejoin="round" stroke-miterlimit="10" d="
					M51.773,648.786c1.445,0.682,1.465,1.808,0.045,2.501l-17.431,8.518c-1.42,0.694-3.762,0.704-5.207,0.022l-17.73-8.374
					c-1.445-0.682-1.465-1.808-0.044-2.501l17.43-8.518c1.42-0.694,3.763-0.703,5.207-0.021L51.773,648.786z"/>
				
					<path fill="#DCDDDE" stroke="#000000" stroke-width="2.6109" stroke-linecap="round" stroke-linejoin="round" stroke-miterlimit="10" d="
					M4.848,652.944c1.444,0.682,1.465,1.808,0.045,2.501l-17.43,8.518c-1.42,0.694-3.763,0.704-5.207,0.022l-17.73-8.374
					c-1.445-0.682-1.464-1.808-0.044-2.501l17.43-8.518c1.42-0.694,3.762-0.703,5.207-0.021L4.848,652.944z"/>
				
					<path fill="#DCDDDE" stroke="#000000" stroke-width="2.6109" stroke-linecap="round" stroke-linejoin="round" stroke-miterlimit="10" d="
					M32.059,667.359c1.444,0.682,1.464,1.808,0.045,2.501l-17.43,8.518c-1.42,0.694-3.763,0.704-5.207,0.022l-17.731-8.374
					c-1.444-0.682-1.464-1.808-0.044-2.501l17.43-8.518c1.42-0.694,3.762-0.703,5.207-0.021L32.059,667.359z"/>
			</g>
		</g>
		<g>
			<defs>
				<path id="SVGID_15_" d="M138.473,505.174c-2.55-16.199-16.56-27.754-32.486-27.733c-0.036-2.929-0.278-5.892-0.747-8.871
					c-5.069-32.189-34.317-54.581-66.364-51.638c-5.698-13.647-20.166-22.174-35.448-19.776c-9.669,1.517-17.682,7.103-22.578,14.73
					c-9.551-3.418-20.073-4.563-30.803-2.879c-31.014,4.868-53.107,31.686-52.9,62.108c-1.409,0.045-2.829,0.167-4.258,0.391
					c-18.658,2.928-31.406,20.404-28.473,39.033c1.945,12.355,10.302,22.107,21.151,26.425
					c-15.042,8.436-24.007,25.582-21.169,43.596c3.58,22.736,24.624,38.397,47.34,35.505c0.009,2.447,0.204,4.926,0.597,7.419
					c4.173,26.504,29.077,44.612,55.624,40.446c6.605-1.037,12.689-3.356,18.038-6.66c13.342,7.794,29.36,11.215,45.822,8.632
					c28.08-4.407,49.562-25.04,56.381-50.824c0.167-0.024,0.334-0.046,0.501-0.072c27.222-4.272,46.054-28.279,42.064-53.619
					c-1.305-8.284-4.888-15.685-10.07-21.747C133.169,533.419,140.753,519.661,138.473,505.174z"/>
			</defs>
			<clipPath id="SVGID_16_">
				<use xlink:href="#SVGID_15_"  overflow="visible"/>
			</clipPath>
			<g clip-path="url(#SVGID_16_)">
				<path fill="#FFFFFF" d="M8.313,600.537c1.445,0.682,1.465,1.808,0.045,2.501l-17.43,8.518c-1.42,0.694-3.762,0.704-5.207,0.022
					l-17.73-8.374c-1.445-0.682-1.464-1.808-0.044-2.501l17.43-8.518c1.42-0.694,3.762-0.703,5.207-0.021L8.313,600.537z"/>
				
					<path fill="#DCDDDE" stroke="#000000" stroke-width="2.6109" stroke-linecap="round" stroke-linejoin="round" stroke-miterlimit="10" d="
					M8.313,600.537c1.445,0.682,1.465,1.808,0.045,2.501l-17.43,8.518c-1.42,0.694-3.762,0.704-5.207,0.022l-17.73-8.374
					c-1.445-0.682-1.464-1.808-0.044-2.501l17.43-8.518c1.42-0.694,3.762-0.703,5.207-0.021L8.313,600.537z"/>
			</g>
		</g>
		<g>
			<defs>
				<path id="SVGID_17_" d="M138.473,505.174c-2.55-16.199-16.56-27.754-32.486-27.733c-0.036-2.929-0.278-5.892-0.747-8.871
					c-5.069-32.189-34.317-54.581-66.364-51.638c-5.698-13.647-20.166-22.174-35.448-19.776c-9.669,1.517-17.682,7.103-22.578,14.73
					c-9.551-3.418-20.073-4.563-30.803-2.879c-31.014,4.868-53.107,31.686-52.9,62.108c-1.409,0.045-2.829,0.167-4.258,0.391
					c-18.658,2.928-31.406,20.404-28.473,39.033c1.945,12.355,10.302,22.107,21.151,26.425
					c-15.042,8.436-24.007,25.582-21.169,43.596c3.58,22.736,24.624,38.397,47.34,35.505c0.009,2.447,0.204,4.926,0.597,7.419
					c4.173,26.504,29.077,44.612,55.624,40.446c6.605-1.037,12.689-3.356,18.038-6.66c13.342,7.794,29.36,11.215,45.822,8.632
					c28.08-4.407,49.562-25.04,56.381-50.824c0.167-0.024,0.334-0.046,0.501-0.072c27.222-4.272,46.054-28.279,42.064-53.619
					c-1.305-8.284-4.888-15.685-10.07-21.747C133.169,533.419,140.753,519.661,138.473,505.174z"/>
			</defs>
			<clipPath id="SVGID_18_">
				<use xlink:href="#SVGID_17_"  overflow="visible"/>
			</clipPath>
			<g clip-path="url(#SVGID_18_)">
				
					<path fill="#DCDDDE" stroke="#000000" stroke-width="2.6109" stroke-linecap="round" stroke-linejoin="round" stroke-miterlimit="10" d="
					M-94.206,525.257c1.444,0.682,1.465,1.808,0.045,2.501l-17.43,8.518c-1.42,0.694-3.763,0.704-5.207,0.022l-46.113-21.778
					c-1.445-0.682-1.465-1.808-0.045-2.501l17.43-8.518c1.42-0.694,3.763-0.704,5.207-0.021L-94.206,525.257z"/>
			</g>
		</g>
		<g>
			<defs>
				<path id="SVGID_19_" d="M138.473,505.174c-2.55-16.199-16.56-27.754-32.486-27.733c-0.036-2.929-0.278-5.892-0.747-8.871
					c-5.069-32.189-34.317-54.581-66.364-51.638c-5.698-13.647-20.166-22.174-35.448-19.776c-9.669,1.517-17.682,7.103-22.578,14.73
					c-9.551-3.418-20.073-4.563-30.803-2.879c-31.014,4.868-53.107,31.686-52.9,62.108c-1.409,0.045-2.829,0.167-4.258,0.391
					c-18.658,2.928-31.406,20.404-28.473,39.033c1.945,12.355,10.302,22.107,21.151,26.425
					c-15.042,8.436-24.007,25.582-21.169,43.596c3.58,22.736,24.624,38.397,47.34,35.505c0.009,2.447,0.204,4.926,0.597,7.419
					c4.173,26.504,29.077,44.612,55.624,40.446c6.605-1.037,12.689-3.356,18.038-6.66c13.342,7.794,29.36,11.215,45.822,8.632
					c28.08-4.407,49.562-25.04,56.381-50.824c0.167-0.024,0.334-0.046,0.501-0.072c27.222-4.272,46.054-28.279,42.064-53.619
					c-1.305-8.284-4.888-15.685-10.07-21.747C133.169,533.419,140.753,519.661,138.473,505.174z"/>
			</defs>
			<clipPath id="SVGID_20_">
				<use xlink:href="#SVGID_19_"  overflow="visible"/>
			</clipPath>
			<g clip-path="url(#SVGID_20_)">
				<path fill="#FFFFFF" d="M49.83,593.462c1.445,0.682,1.465,1.808,0.045,2.501l-17.43,8.518c-1.42,0.694-3.762,0.704-5.207,0.021
					l-31.482-14.868c-1.444-0.682-1.464-1.808-0.044-2.501l17.43-8.518c1.42-0.694,3.762-0.704,5.207-0.021L49.83,593.462z"/>
				
					<path fill="#DCDDDE" stroke="#000000" stroke-width="2.6109" stroke-linecap="round" stroke-linejoin="round" stroke-miterlimit="10" d="
					M49.83,593.462c1.445,0.682,1.465,1.808,0.045,2.501l-17.43,8.518c-1.42,0.694-3.762,0.704-5.207,0.021l-31.482-14.868
					c-1.444-0.682-1.464-1.808-0.044-2.501l17.43-8.518c1.42-0.694,3.762-0.704,5.207-0.021L49.83,593.462z"/>
			</g>
		</g>
		<g>
			<defs>
				<path id="SVGID_21_" d="M138.473,505.174c-2.55-16.199-16.56-27.754-32.486-27.733c-0.036-2.929-0.278-5.892-0.747-8.871
					c-5.069-32.189-34.317-54.581-66.364-51.638c-5.698-13.647-20.166-22.174-35.448-19.776c-9.669,1.517-17.682,7.103-22.578,14.73
					c-9.551-3.418-20.073-4.563-30.803-2.879c-31.014,4.868-53.107,31.686-52.9,62.108c-1.409,0.045-2.829,0.167-4.258,0.391
					c-18.658,2.928-31.406,20.404-28.473,39.033c1.945,12.355,10.302,22.107,21.151,26.425
					c-15.042,8.436-24.007,25.582-21.169,43.596c3.58,22.736,24.624,38.397,47.34,35.505c0.009,2.447,0.204,4.926,0.597,7.419
					c4.173,26.504,29.077,44.612,55.624,40.446c6.605-1.037,12.689-3.356,18.038-6.66c13.342,7.794,29.36,11.215,45.822,8.632
					c28.08-4.407,49.562-25.04,56.381-50.824c0.167-0.024,0.334-0.046,0.501-0.072c27.222-4.272,46.054-28.279,42.064-53.619
					c-1.305-8.284-4.888-15.685-10.07-21.747C133.169,533.419,140.753,519.661,138.473,505.174z"/>
			</defs>
			<clipPath id="SVGID_22_">
				<use xlink:href="#SVGID_21_"  overflow="visible"/>
			</clipPath>
			<g clip-path="url(#SVGID_22_)">
				<path fill="#FFFFFF" d="M92.132,613.44c1.444,0.682,1.465,1.808,0.045,2.501l-17.43,8.518c-1.42,0.694-3.763,0.704-5.207,0.022
					l-31.483-14.869c-1.444-0.682-1.464-1.808-0.044-2.501l17.43-8.518c1.42-0.694,3.763-0.703,5.207-0.021L92.132,613.44z"/>
				
					<path fill="#DCDDDE" stroke="#000000" stroke-width="2.6109" stroke-linecap="round" stroke-linejoin="round" stroke-miterlimit="10" d="
					M92.132,613.44c1.444,0.682,1.465,1.808,0.045,2.501l-17.43,8.518c-1.42,0.694-3.763,0.704-5.207,0.022l-31.483-14.869
					c-1.444-0.682-1.464-1.808-0.044-2.501l17.43-8.518c1.42-0.694,3.763-0.703,5.207-0.021L92.132,613.44z"/>
			</g>
		</g>
		<g>
			<defs>
				<path id="SVGID_23_" d="M138.473,505.174c-2.55-16.199-16.56-27.754-32.486-27.733c-0.036-2.929-0.278-5.892-0.747-8.871
					c-5.069-32.189-34.317-54.581-66.364-51.638c-5.698-13.647-20.166-22.174-35.448-19.776c-9.669,1.517-17.682,7.103-22.578,14.73
					c-9.551-3.418-20.073-4.563-30.803-2.879c-31.014,4.868-53.107,31.686-52.9,62.108c-1.409,0.045-2.829,0.167-4.258,0.391
					c-18.658,2.928-31.406,20.404-28.473,39.033c1.945,12.355,10.302,22.107,21.151,26.425
					c-15.042,8.436-24.007,25.582-21.169,43.596c3.58,22.736,24.624,38.397,47.34,35.505c0.009,2.447,0.204,4.926,0.597,7.419
					c4.173,26.504,29.077,44.612,55.624,40.446c6.605-1.037,12.689-3.356,18.038-6.66c13.342,7.794,29.36,11.215,45.822,8.632
					c28.08-4.407,49.562-25.04,56.381-50.824c0.167-0.024,0.334-0.046,0.501-0.072c27.222-4.272,46.054-28.279,42.064-53.619
					c-1.305-8.284-4.888-15.685-10.07-21.747C133.169,533.419,140.753,519.661,138.473,505.174z"/>
			</defs>
			<clipPath id="SVGID_24_">
				<use xlink:href="#SVGID_23_"  overflow="visible"/>
			</clipPath>
			<g clip-path="url(#SVGID_24_)">
				<path fill="#FFFFFF" d="M64.366,627.009c1.445,0.682,1.465,1.808,0.045,2.501l-17.43,8.518c-1.42,0.694-3.763,0.704-5.207,0.022
					l-45.159-21.328c-1.444-0.682-1.464-1.808-0.044-2.501l17.43-8.518c1.419-0.694,3.762-0.704,5.207-0.021L64.366,627.009z"/>
				
					<path fill="#DCDDDE" stroke="#000000" stroke-width="2.6109" stroke-linecap="round" stroke-linejoin="round" stroke-miterlimit="10" d="
					M64.366,627.009c1.445,0.682,1.465,1.808,0.045,2.501l-17.43,8.518c-1.42,0.694-3.763,0.704-5.207,0.022l-45.159-21.328
					c-1.444-0.682-1.464-1.808-0.044-2.501l17.43-8.518c1.419-0.694,3.762-0.704,5.207-0.021L64.366,627.009z"/>
			</g>
		</g>
		<g>
			<defs>
				<path id="SVGID_25_" d="M138.473,505.174c-2.55-16.199-16.56-27.754-32.486-27.733c-0.036-2.929-0.278-5.892-0.747-8.871
					c-5.069-32.189-34.317-54.581-66.364-51.638c-5.698-13.647-20.166-22.174-35.448-19.776c-9.669,1.517-17.682,7.103-22.578,14.73
					c-9.551-3.418-20.073-4.563-30.803-2.879c-31.014,4.868-53.107,31.686-52.9,62.108c-1.409,0.045-2.829,0.167-4.258,0.391
					c-18.658,2.928-31.406,20.404-28.473,39.033c1.945,12.355,10.302,22.107,21.151,26.425
					c-15.042,8.436-24.007,25.582-21.169,43.596c3.58,22.736,24.624,38.397,47.34,35.505c0.009,2.447,0.204,4.926,0.597,7.419
					c4.173,26.504,29.077,44.612,55.624,40.446c6.605-1.037,12.689-3.356,18.038-6.66c13.342,7.794,29.36,11.215,45.822,8.632
					c28.08-4.407,49.562-25.04,56.381-50.824c0.167-0.024,0.334-0.046,0.501-0.072c27.222-4.272,46.054-28.279,42.064-53.619
					c-1.305-8.284-4.888-15.685-10.07-21.747C133.169,533.419,140.753,519.661,138.473,505.174z"/>
			</defs>
			<clipPath id="SVGID_26_">
				<use xlink:href="#SVGID_25_"  overflow="visible"/>
			</clipPath>
			<g clip-path="url(#SVGID_26_)">
				<path fill="#FFFFFF" d="M23.207,634.369c1.445,0.682,1.465,1.808,0.045,2.501l-17.398,8.503
					c-1.419,0.694-3.763,0.703-5.207,0.021l-10.374-4.9c-1.444-0.682-3.898-1.494-5.454-1.805c-1.555-0.31-6.287,1.126-7.707,1.82
					l-18.607,9.093c-1.42,0.694-3.763,0.704-5.207,0.022l-40.835-19.286c-1.445-0.682-1.465-1.808-0.045-2.501l45.071-22.025
					c1.42-0.694,3.762-0.704,5.207-0.021L23.207,634.369z"/>
				
					<path fill="#DCDDDE" stroke="#000000" stroke-width="2.6109" stroke-linecap="round" stroke-linejoin="round" stroke-miterlimit="10" d="
					M23.207,634.369c1.445,0.682,1.465,1.808,0.045,2.501l-17.398,8.503c-1.419,0.694-3.763,0.703-5.207,0.021l-10.374-4.9
					c-1.444-0.682-3.898-1.494-5.454-1.805c-1.555-0.31-6.287,1.126-7.707,1.82l-18.607,9.093c-1.42,0.694-3.763,0.704-5.207,0.022
					l-40.835-19.286c-1.445-0.682-1.465-1.808-0.045-2.501l45.071-22.025c1.42-0.694,3.762-0.704,5.207-0.021L23.207,634.369z"/>
			</g>
		</g>
		<g>
			<defs>
				<path id="SVGID_27_" d="M138.473,505.174c-2.55-16.199-16.56-27.754-32.486-27.733c-0.036-2.929-0.278-5.892-0.747-8.871
					c-5.069-32.189-34.317-54.581-66.364-51.638c-5.698-13.647-20.166-22.174-35.448-19.776c-9.669,1.517-17.682,7.103-22.578,14.73
					c-9.551-3.418-20.073-4.563-30.803-2.879c-31.014,4.868-53.107,31.686-52.9,62.108c-1.409,0.045-2.829,0.167-4.258,0.391
					c-18.658,2.928-31.406,20.404-28.473,39.033c1.945,12.355,10.302,22.107,21.151,26.425
					c-15.042,8.436-24.007,25.582-21.169,43.596c3.58,22.736,24.624,38.397,47.34,35.505c0.009,2.447,0.204,4.926,0.597,7.419
					c4.173,26.504,29.077,44.612,55.624,40.446c6.605-1.037,12.689-3.356,18.038-6.66c13.342,7.794,29.36,11.215,45.822,8.632
					c28.08-4.407,49.562-25.04,56.381-50.824c0.167-0.024,0.334-0.046,0.501-0.072c27.222-4.272,46.054-28.279,42.064-53.619
					c-1.305-8.284-4.888-15.685-10.07-21.747C133.169,533.419,140.753,519.661,138.473,505.174z"/>
			</defs>
			<clipPath id="SVGID_28_">
				<use xlink:href="#SVGID_27_"  overflow="visible"/>
			</clipPath>
			<polygon clip-path="url(#SVGID_28_)" points="-18.569,566.353 -16.026,572.698 -29.277,571.585 			"/>
		</g>
		<g>
			<defs>
				<path id="SVGID_29_" d="M138.473,505.174c-2.55-16.199-16.56-27.754-32.486-27.733c-0.036-2.929-0.278-5.892-0.747-8.871
					c-5.069-32.189-34.317-54.581-66.364-51.638c-5.698-13.647-20.166-22.174-35.448-19.776c-9.669,1.517-17.682,7.103-22.578,14.73
					c-9.551-3.418-20.073-4.563-30.803-2.879c-31.014,4.868-53.107,31.686-52.9,62.108c-1.409,0.045-2.829,0.167-4.258,0.391
					c-18.658,2.928-31.406,20.404-28.473,39.033c1.945,12.355,10.302,22.107,21.151,26.425
					c-15.042,8.436-24.007,25.582-21.169,43.596c3.58,22.736,24.624,38.397,47.34,35.505c0.009,2.447,0.204,4.926,0.597,7.419
					c4.173,26.504,29.077,44.612,55.624,40.446c6.605-1.037,12.689-3.356,18.038-6.66c13.342,7.794,29.36,11.215,45.822,8.632
					c28.08-4.407,49.562-25.04,56.381-50.824c0.167-0.024,0.334-0.046,0.501-0.072c27.222-4.272,46.054-28.279,42.064-53.619
					c-1.305-8.284-4.888-15.685-10.07-21.747C133.169,533.419,140.753,519.661,138.473,505.174z"/>
			</defs>
			<clipPath id="SVGID_30_">
				<use xlink:href="#SVGID_29_"  overflow="visible"/>
			</clipPath>
			<polygon clip-path="url(#SVGID_30_)" points="-57.492,556.141 -44.285,554.919 -46.602,561.284 			"/>
		</g>
		<g>
			<defs>
				<path id="SVGID_31_" d="M138.473,505.174c-2.55-16.199-16.56-27.754-32.486-27.733c-0.036-2.929-0.278-5.892-0.747-8.871
					c-5.069-32.189-34.317-54.581-66.364-51.638c-5.698-13.647-20.166-22.174-35.448-19.776c-9.669,1.517-17.682,7.103-22.578,14.73
					c-9.551-3.418-20.073-4.563-30.803-2.879c-31.014,4.868-53.107,31.686-52.9,62.108c-1.409,0.045-2.829,0.167-4.258,0.391
					c-18.658,2.928-31.406,20.404-28.473,39.033c1.945,12.355,10.302,22.107,21.151,26.425
					c-15.042,8.436-24.007,25.582-21.169,43.596c3.58,22.736,24.624,38.397,47.34,35.505c0.009,2.447,0.204,4.926,0.597,7.419
					c4.173,26.504,29.077,44.612,55.624,40.446c6.605-1.037,12.689-3.356,18.038-6.66c13.342,7.794,29.36,11.215,45.822,8.632
					c28.08-4.407,49.562-25.04,56.381-50.824c0.167-0.024,0.334-0.046,0.501-0.072c27.222-4.272,46.054-28.279,42.064-53.619
					c-1.305-8.284-4.888-15.685-10.07-21.747C133.169,533.419,140.753,519.661,138.473,505.174z"/>
			</defs>
			<clipPath id="SVGID_32_">
				<use xlink:href="#SVGID_31_"  overflow="visible"/>
			</clipPath>
			<polygon clip-path="url(#SVGID_32_)" points="-69.037,572.248 -82.246,573.47 -79.927,567.105 			"/>
		</g>
		<g>
			<defs>
				<path id="SVGID_33_" d="M138.473,505.174c-2.55-16.199-16.56-27.754-32.486-27.733c-0.036-2.929-0.278-5.892-0.747-8.871
					c-5.069-32.189-34.317-54.581-66.364-51.638c-5.698-13.647-20.166-22.174-35.448-19.776c-9.669,1.517-17.682,7.103-22.578,14.73
					c-9.551-3.418-20.073-4.563-30.803-2.879c-31.014,4.868-53.107,31.686-52.9,62.108c-1.409,0.045-2.829,0.167-4.258,0.391
					c-18.658,2.928-31.406,20.404-28.473,39.033c1.945,12.355,10.302,22.107,21.151,26.425
					c-15.042,8.436-24.007,25.582-21.169,43.596c3.58,22.736,24.624,38.397,47.34,35.505c0.009,2.447,0.204,4.926,0.597,7.419
					c4.173,26.504,29.077,44.612,55.624,40.446c6.605-1.037,12.689-3.356,18.038-6.66c13.342,7.794,29.36,11.215,45.822,8.632
					c28.08-4.407,49.562-25.04,56.381-50.824c0.167-0.024,0.334-0.046,0.501-0.072c27.222-4.272,46.054-28.279,42.064-53.619
					c-1.305-8.284-4.888-15.685-10.07-21.747C133.169,533.419,140.753,519.661,138.473,505.174z"/>
			</defs>
			<clipPath id="SVGID_34_">
				<use xlink:href="#SVGID_33_"  overflow="visible"/>
			</clipPath>
			<polygon clip-path="url(#SVGID_34_)" points="-69.219,542.432 -82.469,541.319 -79.925,547.664 			"/>
		</g>
		<g>
			<defs>
				<path id="SVGID_35_" d="M138.473,505.174c-2.55-16.199-16.56-27.754-32.486-27.733c-0.036-2.929-0.278-5.892-0.747-8.871
					c-5.069-32.189-34.317-54.581-66.364-51.638c-5.698-13.647-20.166-22.174-35.448-19.776c-9.669,1.517-17.682,7.103-22.578,14.73
					c-9.551-3.418-20.073-4.563-30.803-2.879c-31.014,4.868-53.107,31.686-52.9,62.108c-1.409,0.045-2.829,0.167-4.258,0.391
					c-18.658,2.928-31.406,20.404-28.473,39.033c1.945,12.355,10.302,22.107,21.151,26.425
					c-15.042,8.436-24.007,25.582-21.169,43.596c3.58,22.736,24.624,38.397,47.34,35.505c0.009,2.447,0.204,4.926,0.597,7.419
					c4.173,26.504,29.077,44.612,55.624,40.446c6.605-1.037,12.689-3.356,18.038-6.66c13.342,7.794,29.36,11.215,45.822,8.632
					c28.08-4.407,49.562-25.04,56.381-50.824c0.167-0.024,0.334-0.046,0.501-0.072c27.222-4.272,46.054-28.279,42.064-53.619
					c-1.305-8.284-4.888-15.685-10.07-21.747C133.169,533.419,140.753,519.661,138.473,505.174z"/>
			</defs>
			<clipPath id="SVGID_36_">
				<use xlink:href="#SVGID_35_"  overflow="visible"/>
			</clipPath>
			
				<path clip-path="url(#SVGID_36_)" fill="#FFFFFF" stroke="#000000" stroke-width="2.6109" stroke-linecap="round" stroke-linejoin="round" stroke-miterlimit="10" d="
				M98.417,448.131c0,0-13.721,10.144-36.605,20.962c-22.885,10.818-61.458,1.728-70.24,5.019
				c-1.307-0.028-30.703,9.78-35.094,11.426c-4.392,1.645-9.228,3.716-12.36,7.564c0,0-13.205,12.942-18.263,18.745
				c-6.699,7.685-11.945,11.422-4.756,18.599c2.808,2.804,10.372,2.321,28.698-13.064c18.75-15.742,36.234-22.87,36.234-22.87"/>
		</g>
		<g>
			<defs>
				<path id="SVGID_37_" d="M138.473,505.174c-2.55-16.199-16.56-27.754-32.486-27.733c-0.036-2.929-0.278-5.892-0.747-8.871
					c-5.069-32.189-34.317-54.581-66.364-51.638c-5.698-13.647-20.166-22.174-35.448-19.776c-9.669,1.517-17.682,7.103-22.578,14.73
					c-9.551-3.418-20.073-4.563-30.803-2.879c-31.014,4.868-53.107,31.686-52.9,62.108c-1.409,0.045-2.829,0.167-4.258,0.391
					c-18.658,2.928-31.406,20.404-28.473,39.033c1.945,12.355,10.302,22.107,21.151,26.425
					c-15.042,8.436-24.007,25.582-21.169,43.596c3.58,22.736,24.624,38.397,47.34,35.505c0.009,2.447,0.204,4.926,0.597,7.419
					c4.173,26.504,29.077,44.612,55.624,40.446c6.605-1.037,12.689-3.356,18.038-6.66c13.342,7.794,29.36,11.215,45.822,8.632
					c28.08-4.407,49.562-25.04,56.381-50.824c0.167-0.024,0.334-0.046,0.501-0.072c27.222-4.272,46.054-28.279,42.064-53.619
					c-1.305-8.284-4.888-15.685-10.07-21.747C133.169,533.419,140.753,519.661,138.473,505.174z"/>
			</defs>
			<clipPath id="SVGID_38_">
				<use xlink:href="#SVGID_37_"  overflow="visible"/>
			</clipPath>
			
				<path clip-path="url(#SVGID_38_)" fill="#FFFFFF" stroke="#000000" stroke-width="2.6109" stroke-linecap="round" stroke-linejoin="round" stroke-miterlimit="10" d="
				M-16.064,484.673c-9.32,7.106-24.832,17.924-31.104,26.252c-4.63,6.148-29.783,33.138-33.705,38.79
				c-10.889,9.563,1.302,28.697,15.676,11.742l30.929-29.284l44.135-33.948"/>
		</g>
		<g>
			<defs>
				<path id="SVGID_39_" d="M138.473,505.174c-2.55-16.199-16.56-27.754-32.486-27.733c-0.036-2.929-0.278-5.892-0.747-8.871
					c-5.069-32.189-34.317-54.581-66.364-51.638c-5.698-13.647-20.166-22.174-35.448-19.776c-9.669,1.517-17.682,7.103-22.578,14.73
					c-9.551-3.418-20.073-4.563-30.803-2.879c-31.014,4.868-53.107,31.686-52.9,62.108c-1.409,0.045-2.829,0.167-4.258,0.391
					c-18.658,2.928-31.406,20.404-28.473,39.033c1.945,12.355,10.302,22.107,21.151,26.425
					c-15.042,8.436-24.007,25.582-21.169,43.596c3.58,22.736,24.624,38.397,47.34,35.505c0.009,2.447,0.204,4.926,0.597,7.419
					c4.173,26.504,29.077,44.612,55.624,40.446c6.605-1.037,12.689-3.356,18.038-6.66c13.342,7.794,29.36,11.215,45.822,8.632
					c28.08-4.407,49.562-25.04,56.381-50.824c0.167-0.024,0.334-0.046,0.501-0.072c27.222-4.272,46.054-28.279,42.064-53.619
					c-1.305-8.284-4.888-15.685-10.07-21.747C133.169,533.419,140.753,519.661,138.473,505.174z"/>
			</defs>
			<clipPath id="SVGID_40_">
				<use xlink:href="#SVGID_39_"  overflow="visible"/>
			</clipPath>
			
				<path clip-path="url(#SVGID_40_)" fill="#FFFFFF" stroke="#000000" stroke-width="2.6109" stroke-linecap="round" stroke-linejoin="round" stroke-miterlimit="10" d="
				M13.988,493.203l-28.927,14.118c-6.897,1.319-13.625,5.034-16.533,6.797l-33.978,17.826c-13.134,6.08-3.924,24.855,13.765,17.576
				c0,0,34.906-12.404,36.19-12.902c10.238-3.974,38.771-12.962,38.771-12.962c21.359-5.077,26.97,4.809,36.135,9.554l26.956-12.036
				"/>
		</g>
		<g>
			<defs>
				<path id="SVGID_41_" d="M138.473,505.174c-2.55-16.199-16.56-27.754-32.486-27.733c-0.036-2.929-0.278-5.892-0.747-8.871
					c-5.069-32.189-34.317-54.581-66.364-51.638c-5.698-13.647-20.166-22.174-35.448-19.776c-9.669,1.517-17.682,7.103-22.578,14.73
					c-9.551-3.418-20.073-4.563-30.803-2.879c-31.014,4.868-53.107,31.686-52.9,62.108c-1.409,0.045-2.829,0.167-4.258,0.391
					c-18.658,2.928-31.406,20.404-28.473,39.033c1.945,12.355,10.302,22.107,21.151,26.425
					c-15.042,8.436-24.007,25.582-21.169,43.596c3.58,22.736,24.624,38.397,47.34,35.505c0.009,2.447,0.204,4.926,0.597,7.419
					c4.173,26.504,29.077,44.612,55.624,40.446c6.605-1.037,12.689-3.356,18.038-6.66c13.342,7.794,29.36,11.215,45.822,8.632
					c28.08-4.407,49.562-25.04,56.381-50.824c0.167-0.024,0.334-0.046,0.501-0.072c27.222-4.272,46.054-28.279,42.064-53.619
					c-1.305-8.284-4.888-15.685-10.07-21.747C133.169,533.419,140.753,519.661,138.473,505.174z"/>
			</defs>
			<clipPath id="SVGID_42_">
				<use xlink:href="#SVGID_41_"  overflow="visible"/>
			</clipPath>
			
				<path clip-path="url(#SVGID_42_)" fill="#FFFFFF" stroke="#000000" stroke-width="2.6109" stroke-linecap="round" stroke-linejoin="round" stroke-miterlimit="10" d="
				M54.233,520.731c0.435,6.523-2.777,12.907-12.634,21.622c-9.718,8.593-20.825,15.524-20.825,15.524
				C1.616,570.351,9.946,593.36,33.27,581.163l35.211-21.429c16.114-8.261,27.039-26.502,32.663-45.22
				c1.307-4.348,37.74-25.41,37.74-25.41"/>
		</g>
	</g>
</g>
<g>
	<path fill="#FFFFFF" d="M413.473,505.174c-2.55-16.199-16.56-27.754-32.486-27.733c-0.036-2.929-0.278-5.892-0.747-8.871
		c-5.069-32.189-34.317-54.581-66.364-51.638c-5.699-13.647-20.166-22.174-35.448-19.776c-9.669,1.517-17.682,7.103-22.578,14.73
		c-9.551-3.418-20.073-4.563-30.802-2.879c-31.014,4.868-53.107,31.686-52.9,62.108c-1.409,0.045-2.829,0.167-4.258,0.391
		c-18.659,2.928-31.407,20.404-28.473,39.033c1.945,12.355,10.302,22.107,21.151,26.425c-15.042,8.436-24.007,25.582-21.169,43.596
		c3.58,22.736,24.624,38.397,47.34,35.505c0.009,2.447,0.204,4.926,0.597,7.419c4.173,26.504,29.077,44.612,55.624,40.446
		c6.605-1.037,12.689-3.356,18.038-6.66c13.342,7.794,29.36,11.215,45.822,8.632c28.08-4.407,49.562-25.04,56.381-50.824
		c0.167-0.024,0.334-0.046,0.501-0.072c27.222-4.272,46.054-28.279,42.064-53.619c-1.305-8.284-4.888-15.685-10.07-21.747
		C408.169,533.419,415.754,519.661,413.473,505.174z"/>
	<g>
		<g>
			<path id="SVGID_3_" fill="#FFFFFF" d="M413.473,505.174c-2.55-16.199-16.56-27.754-32.486-27.733
				c-0.036-2.929-0.278-5.892-0.747-8.871c-5.069-32.189-34.317-54.581-66.364-51.638c-5.699-13.647-20.166-22.174-35.448-19.776
				c-9.669,1.517-17.682,7.103-22.578,14.73c-9.551-3.418-20.073-4.563-30.802-2.879c-31.014,4.868-53.107,31.686-52.9,62.108
				c-1.409,0.045-2.829,0.167-4.258,0.391c-18.659,2.928-31.407,20.404-28.473,39.033c1.945,12.355,10.302,22.107,21.151,26.425
				c-15.042,8.436-24.007,25.582-21.169,43.596c3.58,22.736,24.624,38.397,47.34,35.505c0.009,2.447,0.204,4.926,0.597,7.419
				c4.173,26.504,29.077,44.612,55.624,40.446c6.605-1.037,12.689-3.356,18.038-6.66c13.342,7.794,29.36,11.215,45.822,8.632
				c28.08-4.407,49.562-25.04,56.381-50.824c0.167-0.024,0.334-0.046,0.501-0.072c27.222-4.272,46.054-28.279,42.064-53.619
				c-1.305-8.284-4.888-15.685-10.07-21.747C408.169,533.419,415.754,519.661,413.473,505.174z"/>
		</g>
		<g>
			<defs>
				<path id="SVGID_43_" d="M413.473,505.174c-2.55-16.199-16.56-27.754-32.486-27.733c-0.036-2.929-0.278-5.892-0.747-8.871
					c-5.069-32.189-34.317-54.581-66.364-51.638c-5.699-13.647-20.166-22.174-35.448-19.776c-9.669,1.517-17.682,7.103-22.578,14.73
					c-9.551-3.418-20.073-4.563-30.802-2.879c-31.014,4.868-53.107,31.686-52.9,62.108c-1.409,0.045-2.829,0.167-4.258,0.391
					c-18.659,2.928-31.407,20.404-28.473,39.033c1.945,12.355,10.302,22.107,21.151,26.425
					c-15.042,8.436-24.007,25.582-21.169,43.596c3.58,22.736,24.624,38.397,47.34,35.505c0.009,2.447,0.204,4.926,0.597,7.419
					c4.173,26.504,29.077,44.612,55.624,40.446c6.605-1.037,12.689-3.356,18.038-6.66c13.342,7.794,29.36,11.215,45.822,8.632
					c28.08-4.407,49.562-25.04,56.381-50.824c0.167-0.024,0.334-0.046,0.501-0.072c27.222-4.272,46.054-28.279,42.064-53.619
					c-1.305-8.284-4.888-15.685-10.07-21.747C408.169,533.419,415.754,519.661,413.473,505.174z"/>
			</defs>
			<clipPath id="SVGID_44_">
				<use xlink:href="#SVGID_43_"  overflow="visible"/>
			</clipPath>
			
				<polygon clip-path="url(#SVGID_44_)" fill="#DCDDDE" stroke="#000000" stroke-width="2.6109" stroke-linecap="round" stroke-linejoin="round" stroke-miterlimit="10" points="
				120.602,482.07 429.264,628.697 312.188,681.663 138.928,664.199 96.446,536.959 			"/>
		</g>
		<g>
			<defs>
				<path id="SVGID_45_" d="M413.473,505.174c-2.55-16.199-16.56-27.754-32.486-27.733c-0.036-2.929-0.278-5.892-0.747-8.871
					c-5.069-32.189-34.317-54.581-66.364-51.638c-5.699-13.647-20.166-22.174-35.448-19.776c-9.669,1.517-17.682,7.103-22.578,14.73
					c-9.551-3.418-20.073-4.563-30.802-2.879c-31.014,4.868-53.107,31.686-52.9,62.108c-1.409,0.045-2.829,0.167-4.258,0.391
					c-18.659,2.928-31.407,20.404-28.473,39.033c1.945,12.355,10.302,22.107,21.151,26.425
					c-15.042,8.436-24.007,25.582-21.169,43.596c3.58,22.736,24.624,38.397,47.34,35.505c0.009,2.447,0.204,4.926,0.597,7.419
					c4.173,26.504,29.077,44.612,55.624,40.446c6.605-1.037,12.689-3.356,18.038-6.66c13.342,7.794,29.36,11.215,45.822,8.632
					c28.08-4.407,49.562-25.04,56.381-50.824c0.167-0.024,0.334-0.046,0.501-0.072c27.222-4.272,46.054-28.279,42.064-53.619
					c-1.305-8.284-4.888-15.685-10.07-21.747C408.169,533.419,415.754,519.661,413.473,505.174z"/>
			</defs>
			<clipPath id="SVGID_46_">
				<use xlink:href="#SVGID_45_"  overflow="visible"/>
			</clipPath>
			<g clip-path="url(#SVGID_46_)">
				<path fill="#FFFFFF" d="M152.965,538.889c1.445,0.682,1.465,1.808,0.045,2.501l-17.43,8.518
					c-1.42,0.694-3.762,0.704-5.207,0.021l-17.731-8.374c-1.444-0.682-1.465-1.808-0.045-2.501l17.43-8.518
					c1.42-0.694,3.763-0.704,5.207-0.022L152.965,538.889z"/>
				
					<path fill="#DCDDDE" stroke="#000000" stroke-width="2.6109" stroke-linecap="round" stroke-linejoin="round" stroke-miterlimit="10" d="
					M152.965,538.889c1.445,0.682,1.465,1.808,0.045,2.501l-17.43,8.518c-1.42,0.694-3.762,0.704-5.207,0.021l-17.731-8.374
					c-1.444-0.682-1.465-1.808-0.045-2.501l17.43-8.518c1.42-0.694,3.763-0.704,5.207-0.022L152.965,538.889z"/>
			</g>
		</g>
		<g>
			<defs>
				<path id="SVGID_47_" d="M413.473,505.174c-2.55-16.199-16.56-27.754-32.486-27.733c-0.036-2.929-0.278-5.892-0.747-8.871
					c-5.069-32.189-34.317-54.581-66.364-51.638c-5.699-13.647-20.166-22.174-35.448-19.776c-9.669,1.517-17.682,7.103-22.578,14.73
					c-9.551-3.418-20.073-4.563-30.802-2.879c-31.014,4.868-53.107,31.686-52.9,62.108c-1.409,0.045-2.829,0.167-4.258,0.391
					c-18.659,2.928-31.407,20.404-28.473,39.033c1.945,12.355,10.302,22.107,21.151,26.425
					c-15.042,8.436-24.007,25.582-21.169,43.596c3.58,22.736,24.624,38.397,47.34,35.505c0.009,2.447,0.204,4.926,0.597,7.419
					c4.173,26.504,29.077,44.612,55.624,40.446c6.605-1.037,12.689-3.356,18.038-6.66c13.342,7.794,29.36,11.215,45.822,8.632
					c28.08-4.407,49.562-25.04,56.381-50.824c0.167-0.024,0.334-0.046,0.501-0.072c27.222-4.272,46.054-28.279,42.064-53.619
					c-1.305-8.284-4.888-15.685-10.07-21.747C408.169,533.419,415.754,519.661,413.473,505.174z"/>
			</defs>
			<clipPath id="SVGID_48_">
				<use xlink:href="#SVGID_47_"  overflow="visible"/>
			</clipPath>
			<g clip-path="url(#SVGID_48_)">
				<path fill="none" d="M274.114,569.33c1.445,0.682,1.465,1.808,0.045,2.501l-17.43,8.518c-1.42,0.694-3.763,0.703-5.207,0.021
					l-17.73-8.374c-1.445-0.682-1.465-1.808-0.045-2.501l17.43-8.518c1.42-0.694,3.763-0.704,5.207-0.022L274.114,569.33z"/>
			</g>
		</g>
		<g>
			<defs>
				<path id="SVGID_49_" d="M413.473,505.174c-2.55-16.199-16.56-27.754-32.486-27.733c-0.036-2.929-0.278-5.892-0.747-8.871
					c-5.069-32.189-34.317-54.581-66.364-51.638c-5.699-13.647-20.166-22.174-35.448-19.776c-9.669,1.517-17.682,7.103-22.578,14.73
					c-9.551-3.418-20.073-4.563-30.802-2.879c-31.014,4.868-53.107,31.686-52.9,62.108c-1.409,0.045-2.829,0.167-4.258,0.391
					c-18.659,2.928-31.407,20.404-28.473,39.033c1.945,12.355,10.302,22.107,21.151,26.425
					c-15.042,8.436-24.007,25.582-21.169,43.596c3.58,22.736,24.624,38.397,47.34,35.505c0.009,2.447,0.204,4.926,0.597,7.419
					c4.173,26.504,29.077,44.612,55.624,40.446c6.605-1.037,12.689-3.356,18.038-6.66c13.342,7.794,29.36,11.215,45.822,8.632
					c28.08-4.407,49.562-25.04,56.381-50.824c0.167-0.024,0.334-0.046,0.501-0.072c27.222-4.272,46.054-28.279,42.064-53.619
					c-1.305-8.284-4.888-15.685-10.07-21.747C408.169,533.419,415.754,519.661,413.473,505.174z"/>
			</defs>
			<clipPath id="SVGID_50_">
				<use xlink:href="#SVGID_49_"  overflow="visible"/>
			</clipPath>
			<g clip-path="url(#SVGID_50_)">
				<path fill="none" d="M217.232,542.467c1.445,0.683,1.464,1.808,0.044,2.501l-17.43,8.518c-1.42,0.694-3.763,0.704-5.207,0.022
					l-17.731-8.374c-1.444-0.682-1.464-1.808-0.044-2.501l17.43-8.518c1.42-0.694,3.763-0.704,5.207-0.022L217.232,542.467z"/>
				
					<path fill="none" stroke="#000000" stroke-width="2.3079" stroke-linecap="round" stroke-linejoin="round" stroke-miterlimit="10" d="
					M217.232,542.467c1.445,0.683,1.464,1.808,0.044,2.501l-17.43,8.518c-1.42,0.694-3.763,0.704-5.207,0.022l-17.731-8.374
					c-1.444-0.682-1.464-1.808-0.044-2.501l17.43-8.518c1.42-0.694,3.763-0.704,5.207-0.022L217.232,542.467z"/>
				
					<path fill="none" stroke="#000000" stroke-width="2.3079" stroke-linecap="round" stroke-linejoin="round" stroke-miterlimit="10" d="
					M274.114,569.33c1.445,0.682,1.465,1.808,0.045,2.501l-17.43,8.518c-1.42,0.694-3.763,0.703-5.207,0.021l-17.73-8.374
					c-1.445-0.682-1.465-1.808-0.045-2.501l17.43-8.518c1.42-0.694,3.763-0.704,5.207-0.022L274.114,569.33z"/>
			</g>
		</g>
		<g>
			<defs>
				<path id="SVGID_51_" d="M413.473,505.174c-2.55-16.199-16.56-27.754-32.486-27.733c-0.036-2.929-0.278-5.892-0.747-8.871
					c-5.069-32.189-34.317-54.581-66.364-51.638c-5.699-13.647-20.166-22.174-35.448-19.776c-9.669,1.517-17.682,7.103-22.578,14.73
					c-9.551-3.418-20.073-4.563-30.802-2.879c-31.014,4.868-53.107,31.686-52.9,62.108c-1.409,0.045-2.829,0.167-4.258,0.391
					c-18.659,2.928-31.407,20.404-28.473,39.033c1.945,12.355,10.302,22.107,21.151,26.425
					c-15.042,8.436-24.007,25.582-21.169,43.596c3.58,22.736,24.624,38.397,47.34,35.505c0.009,2.447,0.204,4.926,0.597,7.419
					c4.173,26.504,29.077,44.612,55.624,40.446c6.605-1.037,12.689-3.356,18.038-6.66c13.342,7.794,29.36,11.215,45.822,8.632
					c28.08-4.407,49.562-25.04,56.381-50.824c0.167-0.024,0.334-0.046,0.501-0.072c27.222-4.272,46.054-28.279,42.064-53.619
					c-1.305-8.284-4.888-15.685-10.07-21.747C408.169,533.419,415.754,519.661,413.473,505.174z"/>
			</defs>
			<clipPath id="SVGID_52_">
				<use xlink:href="#SVGID_51_"  overflow="visible"/>
			</clipPath>
			<g clip-path="url(#SVGID_52_)">
				<path fill="#FFE300" d="M245.698,555.911c1.444,0.682,1.464,1.808,0.044,2.501l-17.43,8.518
					c-1.419,0.694-3.762,0.704-5.207,0.022l-17.731-8.373c-1.445-0.682-1.465-1.808-0.045-2.501l17.431-8.518
					c1.42-0.694,3.763-0.704,5.207-0.022L245.698,555.911z"/>
				
					<path fill="none" stroke="#000000" stroke-width="2.6109" stroke-linecap="round" stroke-linejoin="round" stroke-miterlimit="10" d="
					M245.698,555.911c1.444,0.682,1.464,1.808,0.044,2.501l-17.43,8.518c-1.419,0.694-3.762,0.704-5.207,0.022l-17.731-8.373
					c-1.445-0.682-1.465-1.808-0.045-2.501l17.431-8.518c1.42-0.694,3.763-0.704,5.207-0.022L245.698,555.911z"/>
			</g>
		</g>
		<g>
			<defs>
				<path id="SVGID_53_" d="M413.473,505.174c-2.55-16.199-16.56-27.754-32.486-27.733c-0.036-2.929-0.278-5.892-0.747-8.871
					c-5.069-32.189-34.317-54.581-66.364-51.638c-5.699-13.647-20.166-22.174-35.448-19.776c-9.669,1.517-17.682,7.103-22.578,14.73
					c-9.551-3.418-20.073-4.563-30.802-2.879c-31.014,4.868-53.107,31.686-52.9,62.108c-1.409,0.045-2.829,0.167-4.258,0.391
					c-18.659,2.928-31.407,20.404-28.473,39.033c1.945,12.355,10.302,22.107,21.151,26.425
					c-15.042,8.436-24.007,25.582-21.169,43.596c3.58,22.736,24.624,38.397,47.34,35.505c0.009,2.447,0.204,4.926,0.597,7.419
					c4.173,26.504,29.077,44.612,55.624,40.446c6.605-1.037,12.689-3.356,18.038-6.66c13.342,7.794,29.36,11.215,45.822,8.632
					c28.08-4.407,49.562-25.04,56.381-50.824c0.167-0.024,0.334-0.046,0.501-0.072c27.222-4.272,46.054-28.279,42.064-53.619
					c-1.305-8.284-4.888-15.685-10.07-21.747C408.169,533.419,415.754,519.661,413.473,505.174z"/>
			</defs>
			<clipPath id="SVGID_54_">
				<use xlink:href="#SVGID_53_"  overflow="visible"/>
			</clipPath>
			<g clip-path="url(#SVGID_54_)">
				<path fill="#FFE300" d="M217.453,569.713c1.444,0.682,1.465,1.808,0.044,2.501l-17.43,8.518
					c-1.42,0.694-3.763,0.704-5.207,0.022l-17.731-8.374c-1.444-0.682-1.464-1.808-0.044-2.501l17.43-8.518
					c1.42-0.694,3.762-0.704,5.206-0.022L217.453,569.713z"/>
				
					<path fill="none" stroke="#000000" stroke-width="2.6109" stroke-linecap="round" stroke-linejoin="round" stroke-miterlimit="10" d="
					M217.453,569.713c1.444,0.682,1.465,1.808,0.044,2.501l-17.43,8.518c-1.42,0.694-3.763,0.704-5.207,0.022l-17.731-8.374
					c-1.444-0.682-1.464-1.808-0.044-2.501l17.43-8.518c1.42-0.694,3.762-0.704,5.206-0.022L217.453,569.713z"/>
			</g>
		</g>
		<g>
			<defs>
				<path id="SVGID_55_" d="M413.473,505.174c-2.55-16.199-16.56-27.754-32.486-27.733c-0.036-2.929-0.278-5.892-0.747-8.871
					c-5.069-32.189-34.317-54.581-66.364-51.638c-5.699-13.647-20.166-22.174-35.448-19.776c-9.669,1.517-17.682,7.103-22.578,14.73
					c-9.551-3.418-20.073-4.563-30.802-2.879c-31.014,4.868-53.107,31.686-52.9,62.108c-1.409,0.045-2.829,0.167-4.258,0.391
					c-18.659,2.928-31.407,20.404-28.473,39.033c1.945,12.355,10.302,22.107,21.151,26.425
					c-15.042,8.436-24.007,25.582-21.169,43.596c3.58,22.736,24.624,38.397,47.34,35.505c0.009,2.447,0.204,4.926,0.597,7.419
					c4.173,26.504,29.077,44.612,55.624,40.446c6.605-1.037,12.689-3.356,18.038-6.66c13.342,7.794,29.36,11.215,45.822,8.632
					c28.08-4.407,49.562-25.04,56.381-50.824c0.167-0.024,0.334-0.046,0.501-0.072c27.222-4.272,46.054-28.279,42.064-53.619
					c-1.305-8.284-4.888-15.685-10.07-21.747C408.169,533.419,415.754,519.661,413.473,505.174z"/>
			</defs>
			<clipPath id="SVGID_56_">
				<use xlink:href="#SVGID_55_"  overflow="visible"/>
			</clipPath>
			<g clip-path="url(#SVGID_56_)">
				<path fill="#FFFFFF" d="M367.867,640.47c1.445,0.682,1.464,1.808,0.045,2.501l-17.431,8.518
					c-1.42,0.694-3.763,0.704-5.207,0.022l-17.73-8.374c-1.444-0.682-1.464-1.808-0.044-2.501l17.43-8.518
					c1.42-0.694,3.763-0.703,5.207-0.021L367.867,640.47z"/>
				
					<path fill="#DCDDDE" stroke="#000000" stroke-width="2.6109" stroke-linecap="round" stroke-linejoin="round" stroke-miterlimit="10" d="
					M367.867,640.47c1.445,0.682,1.464,1.808,0.045,2.501l-17.431,8.518c-1.42,0.694-3.763,0.704-5.207,0.022l-17.73-8.374
					c-1.444-0.682-1.464-1.808-0.044-2.501l17.43-8.518c1.42-0.694,3.763-0.703,5.207-0.021L367.867,640.47z"/>
				
					<path fill="#DCDDDE" stroke="#000000" stroke-width="2.6109" stroke-linecap="round" stroke-linejoin="round" stroke-miterlimit="10" d="
					M326.773,648.786c1.445,0.682,1.465,1.808,0.045,2.501l-17.431,8.518c-1.42,0.694-3.762,0.704-5.207,0.022l-17.73-8.374
					c-1.445-0.682-1.465-1.808-0.044-2.501l17.43-8.518c1.42-0.694,3.763-0.703,5.207-0.021L326.773,648.786z"/>
				
					<path fill="#DCDDDE" stroke="#000000" stroke-width="2.6109" stroke-linecap="round" stroke-linejoin="round" stroke-miterlimit="10" d="
					M279.848,652.944c1.444,0.682,1.465,1.808,0.045,2.501l-17.43,8.518c-1.42,0.694-3.763,0.704-5.207,0.022l-17.73-8.374
					c-1.445-0.682-1.464-1.808-0.044-2.501l17.43-8.518c1.42-0.694,3.762-0.703,5.207-0.021L279.848,652.944z"/>
				
					<path fill="#DCDDDE" stroke="#000000" stroke-width="2.6109" stroke-linecap="round" stroke-linejoin="round" stroke-miterlimit="10" d="
					M307.059,667.359c1.444,0.682,1.464,1.808,0.045,2.501l-17.43,8.518c-1.42,0.694-3.763,0.704-5.207,0.022l-17.731-8.374
					c-1.444-0.682-1.464-1.808-0.044-2.501l17.43-8.518c1.42-0.694,3.762-0.703,5.206-0.021L307.059,667.359z"/>
			</g>
		</g>
		<g>
			<defs>
				<path id="SVGID_57_" d="M413.473,505.174c-2.55-16.199-16.56-27.754-32.486-27.733c-0.036-2.929-0.278-5.892-0.747-8.871
					c-5.069-32.189-34.317-54.581-66.364-51.638c-5.699-13.647-20.166-22.174-35.448-19.776c-9.669,1.517-17.682,7.103-22.578,14.73
					c-9.551-3.418-20.073-4.563-30.802-2.879c-31.014,4.868-53.107,31.686-52.9,62.108c-1.409,0.045-2.829,0.167-4.258,0.391
					c-18.659,2.928-31.407,20.404-28.473,39.033c1.945,12.355,10.302,22.107,21.151,26.425
					c-15.042,8.436-24.007,25.582-21.169,43.596c3.58,22.736,24.624,38.397,47.34,35.505c0.009,2.447,0.204,4.926,0.597,7.419
					c4.173,26.504,29.077,44.612,55.624,40.446c6.605-1.037,12.689-3.356,18.038-6.66c13.342,7.794,29.36,11.215,45.822,8.632
					c28.08-4.407,49.562-25.04,56.381-50.824c0.167-0.024,0.334-0.046,0.501-0.072c27.222-4.272,46.054-28.279,42.064-53.619
					c-1.305-8.284-4.888-15.685-10.07-21.747C408.169,533.419,415.754,519.661,413.473,505.174z"/>
			</defs>
			<clipPath id="SVGID_58_">
				<use xlink:href="#SVGID_57_"  overflow="visible"/>
			</clipPath>
			<g clip-path="url(#SVGID_58_)">
				<path fill="#FFFFFF" d="M283.313,600.537c1.445,0.682,1.465,1.808,0.045,2.501l-17.43,8.518
					c-1.42,0.694-3.762,0.704-5.207,0.022l-17.73-8.374c-1.445-0.682-1.464-1.808-0.044-2.501l17.43-8.518
					c1.42-0.694,3.762-0.703,5.207-0.021L283.313,600.537z"/>
				
					<path fill="#DCDDDE" stroke="#000000" stroke-width="2.6109" stroke-linecap="round" stroke-linejoin="round" stroke-miterlimit="10" d="
					M283.313,600.537c1.445,0.682,1.465,1.808,0.045,2.501l-17.43,8.518c-1.42,0.694-3.762,0.704-5.207,0.022l-17.73-8.374
					c-1.445-0.682-1.464-1.808-0.044-2.501l17.43-8.518c1.42-0.694,3.762-0.703,5.207-0.021L283.313,600.537z"/>
			</g>
		</g>
		<g>
			<defs>
				<path id="SVGID_59_" d="M413.473,505.174c-2.55-16.199-16.56-27.754-32.486-27.733c-0.036-2.929-0.278-5.892-0.747-8.871
					c-5.069-32.189-34.317-54.581-66.364-51.638c-5.699-13.647-20.166-22.174-35.448-19.776c-9.669,1.517-17.682,7.103-22.578,14.73
					c-9.551-3.418-20.073-4.563-30.802-2.879c-31.014,4.868-53.107,31.686-52.9,62.108c-1.409,0.045-2.829,0.167-4.258,0.391
					c-18.659,2.928-31.407,20.404-28.473,39.033c1.945,12.355,10.302,22.107,21.151,26.425
					c-15.042,8.436-24.007,25.582-21.169,43.596c3.58,22.736,24.624,38.397,47.34,35.505c0.009,2.447,0.204,4.926,0.597,7.419
					c4.173,26.504,29.077,44.612,55.624,40.446c6.605-1.037,12.689-3.356,18.038-6.66c13.342,7.794,29.36,11.215,45.822,8.632
					c28.08-4.407,49.562-25.04,56.381-50.824c0.167-0.024,0.334-0.046,0.501-0.072c27.222-4.272,46.054-28.279,42.064-53.619
					c-1.305-8.284-4.888-15.685-10.07-21.747C408.169,533.419,415.754,519.661,413.473,505.174z"/>
			</defs>
			<clipPath id="SVGID_60_">
				<use xlink:href="#SVGID_59_"  overflow="visible"/>
			</clipPath>
			<g clip-path="url(#SVGID_60_)">
				
					<path fill="#DCDDDE" stroke="#000000" stroke-width="2.6109" stroke-linecap="round" stroke-linejoin="round" stroke-miterlimit="10" d="
					M180.793,525.257c1.444,0.682,1.465,1.808,0.045,2.501l-17.43,8.518c-1.42,0.694-3.763,0.704-5.207,0.022l-46.113-21.778
					c-1.445-0.682-1.465-1.808-0.045-2.501l17.43-8.518c1.42-0.694,3.763-0.704,5.207-0.021L180.793,525.257z"/>
			</g>
		</g>
		<g>
			<defs>
				<path id="SVGID_61_" d="M413.473,505.174c-2.55-16.199-16.56-27.754-32.486-27.733c-0.036-2.929-0.278-5.892-0.747-8.871
					c-5.069-32.189-34.317-54.581-66.364-51.638c-5.699-13.647-20.166-22.174-35.448-19.776c-9.669,1.517-17.682,7.103-22.578,14.73
					c-9.551-3.418-20.073-4.563-30.802-2.879c-31.014,4.868-53.107,31.686-52.9,62.108c-1.409,0.045-2.829,0.167-4.258,0.391
					c-18.659,2.928-31.407,20.404-28.473,39.033c1.945,12.355,10.302,22.107,21.151,26.425
					c-15.042,8.436-24.007,25.582-21.169,43.596c3.58,22.736,24.624,38.397,47.34,35.505c0.009,2.447,0.204,4.926,0.597,7.419
					c4.173,26.504,29.077,44.612,55.624,40.446c6.605-1.037,12.689-3.356,18.038-6.66c13.342,7.794,29.36,11.215,45.822,8.632
					c28.08-4.407,49.562-25.04,56.381-50.824c0.167-0.024,0.334-0.046,0.501-0.072c27.222-4.272,46.054-28.279,42.064-53.619
					c-1.305-8.284-4.888-15.685-10.07-21.747C408.169,533.419,415.754,519.661,413.473,505.174z"/>
			</defs>
			<clipPath id="SVGID_62_">
				<use xlink:href="#SVGID_61_"  overflow="visible"/>
			</clipPath>
			<g clip-path="url(#SVGID_62_)">
				<path fill="#FFFFFF" d="M324.831,593.462c1.445,0.682,1.465,1.808,0.045,2.501l-17.43,8.518
					c-1.42,0.694-3.762,0.704-5.207,0.021l-31.482-14.868c-1.444-0.682-1.464-1.808-0.044-2.501l17.43-8.518
					c1.42-0.694,3.762-0.704,5.207-0.021L324.831,593.462z"/>
				
					<path fill="#DCDDDE" stroke="#000000" stroke-width="2.6109" stroke-linecap="round" stroke-linejoin="round" stroke-miterlimit="10" d="
					M324.831,593.462c1.445,0.682,1.465,1.808,0.045,2.501l-17.43,8.518c-1.42,0.694-3.762,0.704-5.207,0.021l-31.482-14.868
					c-1.444-0.682-1.464-1.808-0.044-2.501l17.43-8.518c1.42-0.694,3.762-0.704,5.207-0.021L324.831,593.462z"/>
			</g>
		</g>
		<g>
			<defs>
				<path id="SVGID_63_" d="M413.473,505.174c-2.55-16.199-16.56-27.754-32.486-27.733c-0.036-2.929-0.278-5.892-0.747-8.871
					c-5.069-32.189-34.317-54.581-66.364-51.638c-5.699-13.647-20.166-22.174-35.448-19.776c-9.669,1.517-17.682,7.103-22.578,14.73
					c-9.551-3.418-20.073-4.563-30.802-2.879c-31.014,4.868-53.107,31.686-52.9,62.108c-1.409,0.045-2.829,0.167-4.258,0.391
					c-18.659,2.928-31.407,20.404-28.473,39.033c1.945,12.355,10.302,22.107,21.151,26.425
					c-15.042,8.436-24.007,25.582-21.169,43.596c3.58,22.736,24.624,38.397,47.34,35.505c0.009,2.447,0.204,4.926,0.597,7.419
					c4.173,26.504,29.077,44.612,55.624,40.446c6.605-1.037,12.689-3.356,18.038-6.66c13.342,7.794,29.36,11.215,45.822,8.632
					c28.08-4.407,49.562-25.04,56.381-50.824c0.167-0.024,0.334-0.046,0.501-0.072c27.222-4.272,46.054-28.279,42.064-53.619
					c-1.305-8.284-4.888-15.685-10.07-21.747C408.169,533.419,415.754,519.661,413.473,505.174z"/>
			</defs>
			<clipPath id="SVGID_64_">
				<use xlink:href="#SVGID_63_"  overflow="visible"/>
			</clipPath>
			<g clip-path="url(#SVGID_64_)">
				<path fill="#FFFFFF" d="M367.132,613.44c1.444,0.682,1.465,1.808,0.045,2.501l-17.43,8.518c-1.42,0.694-3.763,0.704-5.207,0.022
					l-31.483-14.869c-1.444-0.682-1.464-1.808-0.044-2.501l17.43-8.518c1.42-0.694,3.763-0.703,5.207-0.021L367.132,613.44z"/>
				
					<path fill="#DCDDDE" stroke="#000000" stroke-width="2.6109" stroke-linecap="round" stroke-linejoin="round" stroke-miterlimit="10" d="
					M367.132,613.44c1.444,0.682,1.465,1.808,0.045,2.501l-17.43,8.518c-1.42,0.694-3.763,0.704-5.207,0.022l-31.483-14.869
					c-1.444-0.682-1.464-1.808-0.044-2.501l17.43-8.518c1.42-0.694,3.763-0.703,5.207-0.021L367.132,613.44z"/>
			</g>
		</g>
		<g>
			<defs>
				<path id="SVGID_65_" d="M413.473,505.174c-2.55-16.199-16.56-27.754-32.486-27.733c-0.036-2.929-0.278-5.892-0.747-8.871
					c-5.069-32.189-34.317-54.581-66.364-51.638c-5.699-13.647-20.166-22.174-35.448-19.776c-9.669,1.517-17.682,7.103-22.578,14.73
					c-9.551-3.418-20.073-4.563-30.802-2.879c-31.014,4.868-53.107,31.686-52.9,62.108c-1.409,0.045-2.829,0.167-4.258,0.391
					c-18.659,2.928-31.407,20.404-28.473,39.033c1.945,12.355,10.302,22.107,21.151,26.425
					c-15.042,8.436-24.007,25.582-21.169,43.596c3.58,22.736,24.624,38.397,47.34,35.505c0.009,2.447,0.204,4.926,0.597,7.419
					c4.173,26.504,29.077,44.612,55.624,40.446c6.605-1.037,12.689-3.356,18.038-6.66c13.342,7.794,29.36,11.215,45.822,8.632
					c28.08-4.407,49.562-25.04,56.381-50.824c0.167-0.024,0.334-0.046,0.501-0.072c27.222-4.272,46.054-28.279,42.064-53.619
					c-1.305-8.284-4.888-15.685-10.07-21.747C408.169,533.419,415.754,519.661,413.473,505.174z"/>
			</defs>
			<clipPath id="SVGID_66_">
				<use xlink:href="#SVGID_65_"  overflow="visible"/>
			</clipPath>
			<g clip-path="url(#SVGID_66_)">
				<path fill="#FFFFFF" d="M339.365,627.009c1.445,0.682,1.465,1.808,0.045,2.501l-17.43,8.518
					c-1.42,0.694-3.763,0.704-5.207,0.022l-45.159-21.328c-1.444-0.682-1.464-1.808-0.044-2.501l17.43-8.518
					c1.419-0.694,3.762-0.704,5.207-0.021L339.365,627.009z"/>
				
					<path fill="#DCDDDE" stroke="#000000" stroke-width="2.6109" stroke-linecap="round" stroke-linejoin="round" stroke-miterlimit="10" d="
					M339.365,627.009c1.445,0.682,1.465,1.808,0.045,2.501l-17.43,8.518c-1.42,0.694-3.763,0.704-5.207,0.022l-45.159-21.328
					c-1.444-0.682-1.464-1.808-0.044-2.501l17.43-8.518c1.419-0.694,3.762-0.704,5.207-0.021L339.365,627.009z"/>
			</g>
		</g>
		<g>
			<defs>
				<path id="SVGID_67_" d="M413.473,505.174c-2.55-16.199-16.56-27.754-32.486-27.733c-0.036-2.929-0.278-5.892-0.747-8.871
					c-5.069-32.189-34.317-54.581-66.364-51.638c-5.699-13.647-20.166-22.174-35.448-19.776c-9.669,1.517-17.682,7.103-22.578,14.73
					c-9.551-3.418-20.073-4.563-30.802-2.879c-31.014,4.868-53.107,31.686-52.9,62.108c-1.409,0.045-2.829,0.167-4.258,0.391
					c-18.659,2.928-31.407,20.404-28.473,39.033c1.945,12.355,10.302,22.107,21.151,26.425
					c-15.042,8.436-24.007,25.582-21.169,43.596c3.58,22.736,24.624,38.397,47.34,35.505c0.009,2.447,0.204,4.926,0.597,7.419
					c4.173,26.504,29.077,44.612,55.624,40.446c6.605-1.037,12.689-3.356,18.038-6.66c13.342,7.794,29.36,11.215,45.822,8.632
					c28.08-4.407,49.562-25.04,56.381-50.824c0.167-0.024,0.334-0.046,0.501-0.072c27.222-4.272,46.054-28.279,42.064-53.619
					c-1.305-8.284-4.888-15.685-10.07-21.747C408.169,533.419,415.754,519.661,413.473,505.174z"/>
			</defs>
			<clipPath id="SVGID_68_">
				<use xlink:href="#SVGID_67_"  overflow="visible"/>
			</clipPath>
			<g clip-path="url(#SVGID_68_)">
				<path fill="#FFFFFF" d="M298.206,634.369c1.445,0.682,1.465,1.808,0.045,2.501l-17.398,8.503
					c-1.419,0.694-3.763,0.703-5.207,0.021l-10.374-4.9c-1.444-0.682-3.898-1.494-5.454-1.805c-1.555-0.31-6.287,1.126-7.707,1.82
					l-18.607,9.093c-1.42,0.694-3.763,0.704-5.207,0.022l-40.834-19.286c-1.445-0.682-1.465-1.808-0.045-2.501l45.071-22.025
					c1.42-0.694,3.762-0.704,5.207-0.021L298.206,634.369z"/>
				
					<path fill="#DCDDDE" stroke="#000000" stroke-width="2.6109" stroke-linecap="round" stroke-linejoin="round" stroke-miterlimit="10" d="
					M298.206,634.369c1.445,0.682,1.465,1.808,0.045,2.501l-17.398,8.503c-1.419,0.694-3.763,0.703-5.207,0.021l-10.374-4.9
					c-1.444-0.682-3.898-1.494-5.454-1.805c-1.555-0.31-6.287,1.126-7.707,1.82l-18.607,9.093c-1.42,0.694-3.763,0.704-5.207,0.022
					l-40.834-19.286c-1.445-0.682-1.465-1.808-0.045-2.501l45.071-22.025c1.42-0.694,3.762-0.704,5.207-0.021L298.206,634.369z"/>
			</g>
		</g>
		<g>
			<defs>
				<path id="SVGID_69_" d="M413.473,505.174c-2.55-16.199-16.56-27.754-32.486-27.733c-0.036-2.929-0.278-5.892-0.747-8.871
					c-5.069-32.189-34.317-54.581-66.364-51.638c-5.699-13.647-20.166-22.174-35.448-19.776c-9.669,1.517-17.682,7.103-22.578,14.73
					c-9.551-3.418-20.073-4.563-30.802-2.879c-31.014,4.868-53.107,31.686-52.9,62.108c-1.409,0.045-2.829,0.167-4.258,0.391
					c-18.659,2.928-31.407,20.404-28.473,39.033c1.945,12.355,10.302,22.107,21.151,26.425
					c-15.042,8.436-24.007,25.582-21.169,43.596c3.58,22.736,24.624,38.397,47.34,35.505c0.009,2.447,0.204,4.926,0.597,7.419
					c4.173,26.504,29.077,44.612,55.624,40.446c6.605-1.037,12.689-3.356,18.038-6.66c13.342,7.794,29.36,11.215,45.822,8.632
					c28.08-4.407,49.562-25.04,56.381-50.824c0.167-0.024,0.334-0.046,0.501-0.072c27.222-4.272,46.054-28.279,42.064-53.619
					c-1.305-8.284-4.888-15.685-10.07-21.747C408.169,533.419,415.754,519.661,413.473,505.174z"/>
			</defs>
			<clipPath id="SVGID_70_">
				<use xlink:href="#SVGID_69_"  overflow="visible"/>
			</clipPath>
			<polygon clip-path="url(#SVGID_70_)" points="256.43,566.353 258.974,572.698 245.723,571.585 			"/>
		</g>
		<g>
			<defs>
				<path id="SVGID_71_" d="M413.473,505.174c-2.55-16.199-16.56-27.754-32.486-27.733c-0.036-2.929-0.278-5.892-0.747-8.871
					c-5.069-32.189-34.317-54.581-66.364-51.638c-5.699-13.647-20.166-22.174-35.448-19.776c-9.669,1.517-17.682,7.103-22.578,14.73
					c-9.551-3.418-20.073-4.563-30.802-2.879c-31.014,4.868-53.107,31.686-52.9,62.108c-1.409,0.045-2.829,0.167-4.258,0.391
					c-18.659,2.928-31.407,20.404-28.473,39.033c1.945,12.355,10.302,22.107,21.151,26.425
					c-15.042,8.436-24.007,25.582-21.169,43.596c3.58,22.736,24.624,38.397,47.34,35.505c0.009,2.447,0.204,4.926,0.597,7.419
					c4.173,26.504,29.077,44.612,55.624,40.446c6.605-1.037,12.689-3.356,18.038-6.66c13.342,7.794,29.36,11.215,45.822,8.632
					c28.08-4.407,49.562-25.04,56.381-50.824c0.167-0.024,0.334-0.046,0.501-0.072c27.222-4.272,46.054-28.279,42.064-53.619
					c-1.305-8.284-4.888-15.685-10.07-21.747C408.169,533.419,415.754,519.661,413.473,505.174z"/>
			</defs>
			<clipPath id="SVGID_72_">
				<use xlink:href="#SVGID_71_"  overflow="visible"/>
			</clipPath>
			<polygon clip-path="url(#SVGID_72_)" points="217.508,556.141 230.715,554.919 228.398,561.284 			"/>
		</g>
		<g>
			<defs>
				<path id="SVGID_73_" d="M413.473,505.174c-2.55-16.199-16.56-27.754-32.486-27.733c-0.036-2.929-0.278-5.892-0.747-8.871
					c-5.069-32.189-34.317-54.581-66.364-51.638c-5.699-13.647-20.166-22.174-35.448-19.776c-9.669,1.517-17.682,7.103-22.578,14.73
					c-9.551-3.418-20.073-4.563-30.802-2.879c-31.014,4.868-53.107,31.686-52.9,62.108c-1.409,0.045-2.829,0.167-4.258,0.391
					c-18.659,2.928-31.407,20.404-28.473,39.033c1.945,12.355,10.302,22.107,21.151,26.425
					c-15.042,8.436-24.007,25.582-21.169,43.596c3.58,22.736,24.624,38.397,47.34,35.505c0.009,2.447,0.204,4.926,0.597,7.419
					c4.173,26.504,29.077,44.612,55.624,40.446c6.605-1.037,12.689-3.356,18.038-6.66c13.342,7.794,29.36,11.215,45.822,8.632
					c28.08-4.407,49.562-25.04,56.381-50.824c0.167-0.024,0.334-0.046,0.501-0.072c27.222-4.272,46.054-28.279,42.064-53.619
					c-1.305-8.284-4.888-15.685-10.07-21.747C408.169,533.419,415.754,519.661,413.473,505.174z"/>
			</defs>
			<clipPath id="SVGID_74_">
				<use xlink:href="#SVGID_73_"  overflow="visible"/>
			</clipPath>
			<polygon clip-path="url(#SVGID_74_)" points="205.963,572.248 192.755,573.47 195.073,567.105 			"/>
		</g>
		<g>
			<defs>
				<path id="SVGID_75_" d="M413.473,505.174c-2.55-16.199-16.56-27.754-32.486-27.733c-0.036-2.929-0.278-5.892-0.747-8.871
					c-5.069-32.189-34.317-54.581-66.364-51.638c-5.699-13.647-20.166-22.174-35.448-19.776c-9.669,1.517-17.682,7.103-22.578,14.73
					c-9.551-3.418-20.073-4.563-30.802-2.879c-31.014,4.868-53.107,31.686-52.9,62.108c-1.409,0.045-2.829,0.167-4.258,0.391
					c-18.659,2.928-31.407,20.404-28.473,39.033c1.945,12.355,10.302,22.107,21.151,26.425
					c-15.042,8.436-24.007,25.582-21.169,43.596c3.58,22.736,24.624,38.397,47.34,35.505c0.009,2.447,0.204,4.926,0.597,7.419
					c4.173,26.504,29.077,44.612,55.624,40.446c6.605-1.037,12.689-3.356,18.038-6.66c13.342,7.794,29.36,11.215,45.822,8.632
					c28.08-4.407,49.562-25.04,56.381-50.824c0.167-0.024,0.334-0.046,0.501-0.072c27.222-4.272,46.054-28.279,42.064-53.619
					c-1.305-8.284-4.888-15.685-10.07-21.747C408.169,533.419,415.754,519.661,413.473,505.174z"/>
			</defs>
			<clipPath id="SVGID_76_">
				<use xlink:href="#SVGID_75_"  overflow="visible"/>
			</clipPath>
			<polygon clip-path="url(#SVGID_76_)" points="205.781,542.432 192.531,541.319 195.075,547.664 			"/>
		</g>
		<g>
			<defs>
				<path id="SVGID_77_" d="M413.473,505.174c-2.55-16.199-16.56-27.754-32.486-27.733c-0.036-2.929-0.278-5.892-0.747-8.871
					c-5.069-32.189-34.317-54.581-66.364-51.638c-5.699-13.647-20.166-22.174-35.448-19.776c-9.669,1.517-17.682,7.103-22.578,14.73
					c-9.551-3.418-20.073-4.563-30.802-2.879c-31.014,4.868-53.107,31.686-52.9,62.108c-1.409,0.045-2.829,0.167-4.258,0.391
					c-18.659,2.928-31.407,20.404-28.473,39.033c1.945,12.355,10.302,22.107,21.151,26.425
					c-15.042,8.436-24.007,25.582-21.169,43.596c3.58,22.736,24.624,38.397,47.34,35.505c0.009,2.447,0.204,4.926,0.597,7.419
					c4.173,26.504,29.077,44.612,55.624,40.446c6.605-1.037,12.689-3.356,18.038-6.66c13.342,7.794,29.36,11.215,45.822,8.632
					c28.08-4.407,49.562-25.04,56.381-50.824c0.167-0.024,0.334-0.046,0.501-0.072c27.222-4.272,46.054-28.279,42.064-53.619
					c-1.305-8.284-4.888-15.685-10.07-21.747C408.169,533.419,415.754,519.661,413.473,505.174z"/>
			</defs>
			<clipPath id="SVGID_78_">
				<use xlink:href="#SVGID_77_"  overflow="visible"/>
			</clipPath>
			
				<path clip-path="url(#SVGID_78_)" fill="#FFFFFF" stroke="#000000" stroke-width="2.6109" stroke-linecap="round" stroke-linejoin="round" stroke-miterlimit="10" d="
				M373.417,448.131c0,0-13.721,10.144-36.605,20.962c-22.885,10.818-61.458,1.728-70.24,5.019
				c-1.307-0.028-30.703,9.78-35.094,11.426c-4.392,1.645-9.228,3.716-12.36,7.564c0,0-13.205,12.942-18.263,18.745
				c-6.699,7.685-11.945,11.422-4.756,18.599c2.808,2.804,10.372,2.321,28.698-13.064c18.75-15.742,36.234-22.87,36.234-22.87"/>
		</g>
		<g>
			<defs>
				<path id="SVGID_79_" d="M413.473,505.174c-2.55-16.199-16.56-27.754-32.486-27.733c-0.036-2.929-0.278-5.892-0.747-8.871
					c-5.069-32.189-34.317-54.581-66.364-51.638c-5.699-13.647-20.166-22.174-35.448-19.776c-9.669,1.517-17.682,7.103-22.578,14.73
					c-9.551-3.418-20.073-4.563-30.802-2.879c-31.014,4.868-53.107,31.686-52.9,62.108c-1.409,0.045-2.829,0.167-4.258,0.391
					c-18.659,2.928-31.407,20.404-28.473,39.033c1.945,12.355,10.302,22.107,21.151,26.425
					c-15.042,8.436-24.007,25.582-21.169,43.596c3.58,22.736,24.624,38.397,47.34,35.505c0.009,2.447,0.204,4.926,0.597,7.419
					c4.173,26.504,29.077,44.612,55.624,40.446c6.605-1.037,12.689-3.356,18.038-6.66c13.342,7.794,29.36,11.215,45.822,8.632
					c28.08-4.407,49.562-25.04,56.381-50.824c0.167-0.024,0.334-0.046,0.501-0.072c27.222-4.272,46.054-28.279,42.064-53.619
					c-1.305-8.284-4.888-15.685-10.07-21.747C408.169,533.419,415.754,519.661,413.473,505.174z"/>
			</defs>
			<clipPath id="SVGID_80_">
				<use xlink:href="#SVGID_79_"  overflow="visible"/>
			</clipPath>
			
				<path clip-path="url(#SVGID_80_)" fill="#FFFFFF" stroke="#000000" stroke-width="2.6109" stroke-linecap="round" stroke-linejoin="round" stroke-miterlimit="10" d="
				M259.074,484.434c-11.135,3.67-29.34,8.826-37.995,14.647c-6.39,4.298-30.69,18.395-36.248,22.456
				c-13.423,5.48-8.173,27.542,10.966,16.216l30.51-14.379l52.831-17.664"/>
		</g>
		<g>
			<defs>
				<path id="SVGID_81_" d="M413.473,505.174c-2.55-16.199-16.56-27.754-32.486-27.733c-0.036-2.929-0.278-5.892-0.747-8.871
					c-5.069-32.189-34.317-54.581-66.364-51.638c-5.699-13.647-20.166-22.174-35.448-19.776c-9.669,1.517-17.682,7.103-22.578,14.73
					c-9.551-3.418-20.073-4.563-30.802-2.879c-31.014,4.868-53.107,31.686-52.9,62.108c-1.409,0.045-2.829,0.167-4.258,0.391
					c-18.659,2.928-31.407,20.404-28.473,39.033c1.945,12.355,10.302,22.107,21.151,26.425
					c-15.042,8.436-24.007,25.582-21.169,43.596c3.58,22.736,24.624,38.397,47.34,35.505c0.009,2.447,0.204,4.926,0.597,7.419
					c4.173,26.504,29.077,44.612,55.624,40.446c6.605-1.037,12.689-3.356,18.038-6.66c13.342,7.794,29.36,11.215,45.822,8.632
					c28.08-4.407,49.562-25.04,56.381-50.824c0.167-0.024,0.334-0.046,0.501-0.072c27.222-4.272,46.054-28.279,42.064-53.619
					c-1.305-8.284-4.888-15.685-10.07-21.747C408.169,533.419,415.754,519.661,413.473,505.174z"/>
			</defs>
			<clipPath id="SVGID_82_">
				<use xlink:href="#SVGID_81_"  overflow="visible"/>
			</clipPath>
			
				<path clip-path="url(#SVGID_82_)" fill="#FFFFFF" stroke="#000000" stroke-width="2.6109" stroke-linecap="round" stroke-linejoin="round" stroke-miterlimit="10" d="
				M288.989,493.203l-28.927,14.118c-6.897,1.319-16.291,7.569-18.297,10.312l-24.525,29.48
				c-9.791,10.646,5.93,24.456,19.467,10.956c0,0,27.192-25.244,28.46-25.78c3.794-1.604,33.109-8.632,33.109-8.632
				c21.359-5.077,26.97,4.809,36.135,9.554l26.957-12.036"/>
		</g>
		<g>
			<defs>
				<path id="SVGID_83_" d="M413.473,505.174c-2.55-16.199-16.56-27.754-32.486-27.733c-0.036-2.929-0.278-5.892-0.747-8.871
					c-5.069-32.189-34.317-54.581-66.364-51.638c-5.699-13.647-20.166-22.174-35.448-19.776c-9.669,1.517-17.682,7.103-22.578,14.73
					c-9.551-3.418-20.073-4.563-30.802-2.879c-31.014,4.868-53.107,31.686-52.9,62.108c-1.409,0.045-2.829,0.167-4.258,0.391
					c-18.659,2.928-31.407,20.404-28.473,39.033c1.945,12.355,10.302,22.107,21.151,26.425
					c-15.042,8.436-24.007,25.582-21.169,43.596c3.58,22.736,24.624,38.397,47.34,35.505c0.009,2.447,0.204,4.926,0.597,7.419
					c4.173,26.504,29.077,44.612,55.624,40.446c6.605-1.037,12.689-3.356,18.038-6.66c13.342,7.794,29.36,11.215,45.822,8.632
					c28.08-4.407,49.562-25.04,56.381-50.824c0.167-0.024,0.334-0.046,0.501-0.072c27.222-4.272,46.054-28.279,42.064-53.619
					c-1.305-8.284-4.888-15.685-10.07-21.747C408.169,533.419,415.754,519.661,413.473,505.174z"/>
			</defs>
			<clipPath id="SVGID_84_">
				<use xlink:href="#SVGID_83_"  overflow="visible"/>
			</clipPath>
			
				<path clip-path="url(#SVGID_84_)" fill="#FFFFFF" stroke="#000000" stroke-width="2.6109" stroke-linecap="round" stroke-linejoin="round" stroke-miterlimit="10" d="
				M329.233,520.731c0.435,6.523-2.777,12.907-12.634,21.622c-9.718,8.593-20.824,15.524-20.824,15.524
				c-19.159,12.475-10.829,35.483,12.495,23.286l35.211-21.429c16.114-8.261,27.039-26.502,32.663-45.22
				c1.307-4.348,37.74-25.41,37.74-25.41"/>
		</g>
	</g>
</g>
</svg>
