<svg id="Layer_1" data-name="Layer 1" xmlns="http://www.w3.org/2000/svg" viewBox="0 0 825.15 270"><defs><style>.cls-1,.cls-2{fill:#fff}.cls-2,.cls-3,.cls-4,.cls-5{stroke:#000;stroke-width:3.26px}.cls-2,.cls-3{stroke-linejoin:round}.cls-3{fill:#dcddde}.cls-4,.cls-5{fill:none;stroke-miterlimit:10}.cls-5{fill:#ffe300}</style></defs><title>santa-tracker_spacenav_sprites</title><path id="SVGID" class="cls-1" d="M274.6 108.42a32.87 32.87 0 0 0-32.49-27.73A61.48 61.48 0 0 0 175 20.18a32.9 32.9 0 0 0-58-5 62.65 62.65 0 0 0-83.7 59.23 34.58 34.58 0 0 0-4.26.39 34.13 34.13 0 0 0-7.32 65.46 42.43 42.43 0 0 0 26.17 79.1 48.7 48.7 0 0 0 74.26 41.21 69.5 69.5 0 0 0 102.2-42.19l.5-.07C252 214 270.88 190 266.89 164.63a43.83 43.83 0 0 0-10.07-21.75 32.82 32.82 0 0 0 17.78-34.46z"/><path class="cls-2" d="M206.16 162.39c0 16.84-28.94 31-68.66 31s-68.66-14.14-68.66-31 30.74-30.49 68.66-30.49 68.66 13.65 68.66 30.49z"/><path class="cls-3" d="M186 101.35s-2.64 5.52-2.64 24.89c0 11.34 3.16 18.78 5.78 23.21s2.2 3 3 4.44a5.34 5.34 0 0 1 .6 2.69c0 10.68-20.42 23.69-55.25 23.69-37.69 0-55.25-13-55.25-23.69a7.25 7.25 0 0 1 .54-2.71c.61-1.18 2.92-4.3 2.92-4.3l.09-.12c2.64-4.41 5.75-11.75 5.75-23.21 0-19.37-2.64-24.89-2.64-24.89"/><path class="cls-3" d="M171.27 87.62c2.8 1.79 4.39 3.83 4.39 6 0 7.1-17.09 12.86-38.16 12.86s-38.16-5.76-38.16-12.86c0-2.16 1.59-4.2 4.39-6-9.17 3.23-14.87 7.76-14.87 12.78 0 9.81 21.78 17.76 48.64 17.76s48.64-8 48.64-17.76c0-5.02-5.71-9.55-14.87-12.78z"/><path class="cls-3" d="M99.33 93.61c0 7.1 17.09 12.86 38.16 12.86s38.16-5.76 38.16-12.86c0-2.16-1.59-4.2-4.39-6-8.75-3.08-20.65-5-33.77-5s-25 1.9-33.77 5c-2.8 1.8-4.39 3.84-4.39 6z"/><path class="cls-4" d="M140.9 149.09c0 11.06-2.6 20-3.4 20s-3.4-9-3.4-20 2.86-20 3.4-20 3.4 8.91 3.4 20z"/><path id="SVGID-2" data-name="SVGID" class="cls-1" d="M824.74 108.42a32.87 32.87 0 0 0-32.49-27.73 61.48 61.48 0 0 0-67.11-60.51 32.9 32.9 0 0 0-58-5 62.65 62.65 0 0 0-83.7 59.23 34.58 34.58 0 0 0-4.26.39 34.13 34.13 0 0 0-7.32 65.46A42.43 42.43 0 0 0 598 219.31a48.7 48.7 0 0 0 74.26 41.21 69.5 69.5 0 0 0 102.2-42.19l.5-.07C802.19 214 821 190 817 164.63a43.83 43.83 0 0 0-10-21.75 32.82 32.82 0 0 0 17.74-34.46z"/><path class="cls-2" d="M756.31 162.39c0 16.84-28.94 31-68.66 31s-68.65-14.16-68.65-31 30.74-30.49 68.66-30.49 68.65 13.65 68.65 30.49z"/><path class="cls-3" d="M736.15 101.35s-2.64 5.52-2.64 24.89c0 11.34 3.16 18.78 5.78 23.21s2.2 3 3 4.44a5.34 5.34 0 0 1 .6 2.69c0 10.68-20.42 23.69-55.25 23.69-37.69 0-55.25-13-55.25-23.69a7.25 7.25 0 0 1 .54-2.71c.61-1.18 2.92-4.3 2.92-4.3l.09-.12c2.64-4.41 5.75-11.75 5.75-23.21 0-19.37-2.64-24.89-2.64-24.89"/><path class="cls-3" d="M721.41 87.62c2.8 1.79 4.39 3.83 4.39 6 0 7.1-17.09 12.86-38.16 12.86s-38.16-5.76-38.16-12.86c0-2.16 1.59-4.2 4.39-6-9.16 3.23-14.87 7.76-14.87 12.78 0 9.81 21.78 17.76 48.64 17.76s48.64-8 48.64-17.76c0-5.02-5.7-9.55-14.87-12.78z"/><path class="cls-3" d="M649.48 93.61c0 7.1 17.09 12.86 38.16 12.86s38.16-5.76 38.16-12.86c0-2.16-1.59-4.2-4.39-6-8.75-3.08-20.65-5-33.77-5s-25 1.9-33.77 5c-2.8 1.8-4.39 3.84-4.39 6z"/><path class="cls-4" d="M691 149.09c0 11.06-2.6 20-3.4 20s-3.4-9-3.4-20 2.86-20 3.4-20 3.4 8.91 3.4 20z"/><path id="SVGID-3" data-name="SVGID" class="cls-1" d="M549.67 108.42a32.87 32.87 0 0 0-32.49-27.73 61.48 61.48 0 0 0-67.11-60.51 32.9 32.9 0 0 0-58-5 62.65 62.65 0 0 0-83.7 59.23 34.58 34.58 0 0 0-4.26.39 34.13 34.13 0 0 0-7.32 65.46 42.43 42.43 0 0 0 26.17 79.1 48.7 48.7 0 0 0 74.26 41.21 69.5 69.5 0 0 0 102.2-42.19l.5-.07C527.12 214 546 190 542 164.63a43.83 43.83 0 0 0-10.07-21.75 32.82 32.82 0 0 0 17.74-34.46z"/><path class="cls-2" d="M481.23 162.39c0 16.84-28.94 31-68.66 31s-68.66-14.14-68.66-31 30.74-30.49 68.66-30.49 68.66 13.65 68.66 30.49z"/><path d="M439 56.9l-25.66-10.51a1.32 1.32 0 0 0-.88 0L387.35 56.9c-.46.19-.22.52.38.52h16.89l-1.44 25.86c-.18 2.72 4.74 4.95 9.82 4.95s9.68-2.25 9.53-4.95l-1.42-25.86h17.51c.61 0 .85-.33.38-.52z"/><path class="cls-5" d="M461.07 100.94s-2.64 5.52-2.64 24.89c0 11.34 3.16 19.32 5.78 23.76s2.2 3 3 4.44a5.34 5.34 0 0 1 .6 2.69c0 10.68-24.73 22.73-55.25 22.73s-55.25-10.82-55.25-22.73a7.25 7.25 0 0 1 .54-2.71c.61-1.18 2.92-4.3 2.92-4.3l.09-.12c2.64-4.41 5.75-12.3 5.75-23.76 0-19.37-2.64-24.89-2.64-24.89m.09-1.02c0-2.9 21.67-5.25 48.41-5.25s48.41 2.35 48.41 5.25h-96.82z"/><path class="cls-4" d="M415.83 138.64c0 11.06-2.6 20-3.4 20s-3.4-9-3.4-20 2.86-20 3.4-20 3.4 8.94 3.4 20z"/></svg>