<svg id="Layer_1" data-name="Layer 1" xmlns="http://www.w3.org/2000/svg" viewBox="0 0 825.15 270">
  <defs>
    <style>
      .cls-1, .cls-2 {
        fill: #fff;
      }

      .cls-2, .cls-3, .cls-4 {
        stroke: #000;
        stroke-width: 3.26px;
      }

      .cls-2, .cls-3 {
        stroke-linejoin: round;
      }

      .cls-3 {
        fill: #dcddde;
      }

      .cls-4 {
        fill: none;
        stroke-miterlimit: 10;
      }

      .cls-5 {
        fill: #ffe300;
      }
    </style>
  </defs>
  <title>santa-tracker_spacenav_sprites</title>
  <g>
    <g>
      <path id="SVGID" class="cls-1" d="M274.6,108.42a32.87,32.87,0,0,0-32.49-27.73A61.48,61.48,0,0,0,175,20.18a32.9,32.9,0,0,0-58-5,62.65,62.65,0,0,0-83.7,59.23,34.58,34.58,0,0,0-4.26.39,34.13,34.13,0,0,0-7.32,65.46,42.43,42.43,0,0,0,26.17,79.1,48.7,48.7,0,0,0,74.26,41.21,69.5,69.5,0,0,0,102.2-42.19l0.5-.07C252,214,270.88,190,266.89,164.63a43.83,43.83,0,0,0-10.07-21.75A32.82,32.82,0,0,0,274.6,108.42Z"/>
      <g>
        <g>
          <path class="cls-2" d="M206.16,162.39c0,16.84-28.94,31-68.66,31s-68.66-14.14-68.66-31S99.58,131.9,137.5,131.9,206.16,145.55,206.16,162.39Z"/>
          <g>
            <path class="cls-3" d="M186,101.35s-2.64,5.52-2.64,24.89c0,11.34,3.16,18.78,5.78,23.21h0s2.2,3,3,4.44a5.34,5.34,0,0,1,.6,2.69c0,10.68-20.42,23.69-55.25,23.69-37.69,0-55.25-13-55.25-23.69a7.25,7.25,0,0,1,.54-2.71c0.61-1.18,2.92-4.3,2.92-4.3l0.09-.12c2.64-4.41,5.75-11.75,5.75-23.21,0-19.37-2.64-24.89-2.64-24.89"/>
            <g>
              <path class="cls-3" d="M171.27,87.62c2.8,1.79,4.39,3.83,4.39,6,0,7.1-17.09,12.86-38.16,12.86s-38.16-5.76-38.16-12.86c0-2.16,1.59-4.2,4.39-6-9.17,3.23-14.87,7.76-14.87,12.78,0,9.81,21.78,17.76,48.64,17.76s48.64-8,48.64-17.76C186.14,95.38,180.43,90.85,171.27,87.62Z"/>
              <path class="cls-3" d="M99.33,93.61c0,7.1,17.09,12.86,38.16,12.86s38.16-5.76,38.16-12.86c0-2.16-1.59-4.2-4.39-6-8.75-3.08-20.65-5-33.77-5s-25,1.9-33.77,5C100.92,89.41,99.33,91.45,99.33,93.61Z"/>
            </g>
          </g>
        </g>
        <path class="cls-4" d="M140.9,149.09c0,11.06-2.6,20-3.4,20s-3.4-9-3.4-20,2.86-20,3.4-20S140.9,138,140.9,149.09Z"/>
      </g>
    </g>
    <g>
      <path id="SVGID-2" data-name="SVGID" class="cls-1" d="M824.74,108.42a32.87,32.87,0,0,0-32.49-27.73,61.48,61.48,0,0,0-67.11-60.51,32.9,32.9,0,0,0-58-5,62.65,62.65,0,0,0-83.7,59.23,34.58,34.58,0,0,0-4.26.39,34.13,34.13,0,0,0-7.32,65.46A42.43,42.43,0,0,0,598,219.31a48.7,48.7,0,0,0,74.26,41.21,69.5,69.5,0,0,0,102.2-42.19l0.5-.07C802.19,214,821,190,817,164.63A43.83,43.83,0,0,0,807,142.88,32.82,32.82,0,0,0,824.74,108.42Z"/>
      <g>
        <g>
          <path class="cls-2" d="M756.31,162.39c0,16.84-28.94,31-68.66,31S619,179.23,619,162.39s30.74-30.49,68.66-30.49S756.31,145.55,756.31,162.39Z"/>
          <g>
            <path class="cls-3" d="M736.15,101.35s-2.64,5.52-2.64,24.89c0,11.34,3.16,18.78,5.78,23.21h0s2.2,3,3,4.44a5.34,5.34,0,0,1,.6,2.69c0,10.68-20.42,23.69-55.25,23.69-37.69,0-55.25-13-55.25-23.69a7.25,7.25,0,0,1,.54-2.71c0.61-1.18,2.92-4.3,2.92-4.3l0.09-.12c2.64-4.41,5.75-11.75,5.75-23.21,0-19.37-2.64-24.89-2.64-24.89"/>
            <g>
              <path class="cls-3" d="M721.41,87.62c2.8,1.79,4.39,3.83,4.39,6,0,7.1-17.09,12.86-38.16,12.86s-38.16-5.76-38.16-12.86c0-2.16,1.59-4.2,4.39-6C644.71,90.85,639,95.38,639,100.4c0,9.81,21.78,17.76,48.64,17.76s48.64-8,48.64-17.76C736.28,95.38,730.58,90.85,721.41,87.62Z"/>
              <path class="cls-3" d="M649.48,93.61c0,7.1,17.09,12.86,38.16,12.86s38.16-5.76,38.16-12.86c0-2.16-1.59-4.2-4.39-6-8.75-3.08-20.65-5-33.77-5s-25,1.9-33.77,5C651.07,89.41,649.48,91.45,649.48,93.61Z"/>
            </g>
          </g>
        </g>
        <path class="cls-4" d="M691,149.09c0,11.06-2.6,20-3.4,20s-3.4-9-3.4-20,2.86-20,3.4-20S691,138,691,149.09Z"/>
      </g>
    </g>
    <g>
      <path id="SVGID-3" data-name="SVGID" class="cls-1" d="M549.67,108.42a32.87,32.87,0,0,0-32.49-27.73,61.48,61.48,0,0,0-67.11-60.51,32.9,32.9,0,0,0-58-5,62.65,62.65,0,0,0-83.7,59.23,34.58,34.58,0,0,0-4.26.39,34.13,34.13,0,0,0-7.32,65.46,42.43,42.43,0,0,0,26.17,79.1,48.7,48.7,0,0,0,74.26,41.21,69.5,69.5,0,0,0,102.2-42.19l0.5-.07C527.12,214,546,190,542,164.63a43.83,43.83,0,0,0-10.07-21.75A32.82,32.82,0,0,0,549.67,108.42Z"/>
      <g>
        <path class="cls-2" d="M481,162.56c0,16.84-28.94,31-68.66,31s-68.66-14.14-68.66-31,30.74-30.49,68.66-30.49S481,145.72,481,162.56Z"/>
        <g>
          <path class="cls-5" d="M367.14,121.49a133.09,133.09,0,0,1,1,17.55c0,9.31-2,17.4-6,24l-0.09.14-0.09.12c-0.83,1.13-2.28,3.17-2.74,4a2.11,2.11,0,0,0-.09.36c8.5,9.29,30.88,13.08,51.12,13.49a29.88,29.88,0,0,1-1.41-5.09,73.45,73.45,0,0,1-1.43-14.49,69.75,69.75,0,0,1,1.54-14.51c1.54-7.15,2.54-7.15,3.49-7.15s1.95,0,3.49,7.15a69.75,69.75,0,0,1,1.54,14.51A73.45,73.45,0,0,1,416,176.11a29.62,29.62,0,0,1-1.42,5.12c15.2-.07,29.08-2.35,39.23-6.45,5.24-2.12,9.26-4.62,11.82-7.27v0c-0.62-1.13-2.29-3.47-2.88-4.27l-0.09-.14c-4-6.75-6-14.84-6-24a133.38,133.38,0,0,1,1-17.49c-8.09,6.44-25.09,10.78-45.21,10.78S375.2,128,367.14,121.49Z"/>
          <path class="cls-5" d="M412.44,146.48a65.56,65.56,0,0,0-1.77,15.14,67.66,67.66,0,0,0,1.77,15.63,67.66,67.66,0,0,0,1.77-15.63A65.56,65.56,0,0,0,412.44,146.48Z"/>
          <path class="cls-5" d="M459.28,114.15c0-.17.09-0.34,0.11-0.51,0,0.12-.11.28-0.19,0.51h0.08Z"/>
          <path class="cls-5" d="M365.56,114.06l0,0.1h0Z"/>
          <path class="cls-5" d="M365.59,114.15a5.88,5.88,0,0,0,.29.89c-0.11-.36-0.2-0.66-0.28-0.89h0Z"/>
          <path class="cls-5" d="M458.82,115.39a6.14,6.14,0,0,0,.46-1.24H459.2C459.09,114.45,459,114.86,458.82,115.39Z"/>
          <path class="cls-5" d="M449,106a2.16,2.16,0,0,0-.09-0.6c0-.08-0.06-0.11-0.08-0.18a3.3,3.3,0,0,0-.16-0.41c0-.09-0.1-0.16-0.15-0.25s-0.14-.24-0.22-0.37-0.14-.18-0.21-0.27-0.17-.22-0.26-0.33l-0.25-.26-0.3-.3-0.28-.25-0.32-.28-0.29-.22L446,102l-0.29-.2-0.26-.17c-8.92-3.11-20.64-4.82-33-4.82s-24.12,1.71-33,4.82l-0.26.17-0.29.2-0.34.25-0.29.22-0.32.28-0.28.25-0.3.3-0.25.26c-0.1.11-.18,0.22-0.26,0.33l-0.21.27c-0.08.12-.15,0.25-0.22,0.37s-0.11.17-.15,0.26a3.62,3.62,0,0,0-.16.43c0,0.08-.06.15-0.08,0.23a1.56,1.56,0,0,0-.09.5c0,2.83,4.24,5.82,11.45,7.82h50.16C444.72,111.78,449,108.78,449,106Z"/>
          <path class="cls-5" d="M437.51,113.78H387.35c6.35,2,15,3.22,25.08,3.22S431.16,115.78,437.51,113.78Z"/>
          <path class="cls-5" d="M447.8,103.55c0.1,0.11.18,0.22,0.26,0.33C448,103.77,447.89,103.66,447.8,103.55Z"/>
          <path class="cls-5" d="M448.64,104.79a3.62,3.62,0,0,1,.16.43A3.62,3.62,0,0,0,448.64,104.79Z"/>
          <path class="cls-5" d="M448.27,104.15c0.08,0.12.15,0.25,0.22,0.37C448.42,104.4,448.35,104.28,448.27,104.15Z"/>
          <path class="cls-5" d="M376.38,104.53c0.07-.12.14-0.25,0.22-0.37C376.51,104.28,376.45,104.4,376.38,104.53Z"/>
          <path class="cls-5" d="M376.8,103.89c0.09-.11.17-0.22,0.26-0.33C377,103.66,376.89,103.77,376.8,103.89Z"/>
          <path class="cls-5" d="M448.88,105.45a2.87,2.87,0,0,1,.09.69A2.87,2.87,0,0,0,448.88,105.45Z"/>
          <path class="cls-5" d="M445.48,101.62h0l0.26,0.17Z"/>
          <path class="cls-5" d="M379.38,101.62l-0.25.17,0.26-.17h0Z"/>
          <path class="cls-5" d="M446,102l0.34,0.25Z"/>
          <path class="cls-5" d="M447.25,103l0.3,0.3Z"/>
          <path class="cls-5" d="M377.9,102.75l0.32-.28Z"/>
          <path class="cls-5" d="M378.51,102.24l0.34-.25Z"/>
          <path class="cls-5" d="M375.9,106.14a2.87,2.87,0,0,1,.09-0.69A2.87,2.87,0,0,0,375.9,106.14Z"/>
          <path class="cls-5" d="M377.32,103.29l0.3-.3Z"/>
          <path class="cls-5" d="M376.07,105.22a3.62,3.62,0,0,1,.16-0.43A3.62,3.62,0,0,0,376.07,105.22Z"/>
          <path class="cls-5" d="M446.65,102.47l0.32,0.28Z"/>
          <g>
            <path d="M362.38,114.84l0,0.1a8.21,8.21,0,0,1-.17-0.91A1.62,1.62,0,0,0,362.38,114.84Z"/>
            <path d="M362.76,116c0.7,2.43,2.1,9.06,2.1,23.06,0,8.68-1.84,16.19-5.48,22.31l0,0.06c-0.18.25-1.44,2-2.33,3.33a13.48,13.48,0,0,0,1,1.55,15.7,15.7,0,0,0,1.17,1.44,2.11,2.11,0,0,1,.09-0.36c0.46-.83,1.91-2.88,2.74-4l0.09-.12,0.09-.14c4-6.65,6-14.74,6-24a133.09,133.09,0,0,0-1-17.55c8.06,6.47,25.11,10.84,45.29,10.84s37.09-4.33,45.18-10.76a134,134,0,0,0-1,17.47c0,9.21,2,17.3,6,24l0.09,0.14c0.59,0.81,2.27,3.15,2.88,4.27v0a13.82,13.82,0,0,0,1-1.3c-0.76-1.25-2.14-3.08-2.64-3.73,0.49,0.64,1.88,2.48,2.64,3.73a12.3,12.3,0,0,0,1-1.5c-0.82-1.27-1.86-2.75-2.3-3.36-3.66-6.22-5.5-13.73-5.5-22.32,0-13.26,1.27-19.91,2-22.64v0a8.8,8.8,0,0,0,.59-1.83v0a8,8,0,0,0,.17-1.56c0-5.61-5.67-10.69-16-14.32-9.28-3.27-21.47-5.07-34.31-5.07s-25,1.8-34.31,5.07c-10.29,3.63-16,8.71-16,14.32a8,8,0,0,0,.08,1.09h0a8.37,8.37,0,0,0,.17.91c0.06,0.15.18,0.49,0.34,1m82.57-14.45M376,105.36c0-.08.06-0.11,0.08-0.18a3.31,3.31,0,0,1,.16-0.41c0-.09.1-0.16,0.15-0.25s0.14-.24.22-0.37,0.14-.18.21-0.27,0.17-.22.26-0.33l0.25-.26,0.3-.3,0.28-.25,0.32-.28,0.29-.22,0.34-.25,0.29-.2,0.25-.17h0c8.92-3.11,20.64-4.82,33-4.82s24.12,1.71,33,4.82h0l0.25,0.17L446,102l0.34,0.25,0.29,0.22,0.32,0.28,0.28,0.25,0.3,0.3,0.25,0.26c0.1,0.11.18,0.22,0.26,0.33l0.21,0.27c0.08,0.12.15,0.25,0.22,0.37s0.11,0.17.15,0.26a3.62,3.62,0,0,1,.16.43c0,0.08.06,0.15,0.08,0.23a1.56,1.56,0,0,1,.09.5c0,2.83-4.24,5.82-11.45,7.82-6.35,2-15,3.22-25.08,3.22s-18.73-1.22-25.08-3.22c-7.21-2-11.45-5-11.45-7.82A2.16,2.16,0,0,1,376,105.36Zm36.45,23.71c-25.33,0-43.16-6.77-46.45-13.81,0-.13-0.07-0.29-0.11-0.4a1.47,1.47,0,0,1-.29-1.08h-0.07a4.65,4.65,0,0,1-.09-0.85c0-3,2.65-5.92,7.47-8.51v0a6.56,6.56,0,0,0-.18.85v0.06a3.58,3.58,0,0,0-.06.61c0,3,2.28,5.82,6.25,7.82,6.95,4,19.11,6.48,33.54,6.48S439,117.78,446,113.78c4-2,6.25-4.81,6.25-7.82a4.69,4.69,0,0,0-.06-0.7s0,0,0,0a6,6,0,0,0-.18-0.8v0c4.81,2.59,7.47,5.56,7.47,8.51a4.74,4.74,0,0,1,0,.5l0,0a0.51,0.51,0,0,1-.11.33,2.58,2.58,0,0,1-.46,1.43l-0.09.34C455.1,122.48,437.42,129.07,412.43,129.07Z"/>
            <path d="M362.76,116c-0.16-.56-0.28-0.89-0.34-1A8.81,8.81,0,0,0,362.76,116Z"/>
            <path d="M412.44,140c-1,0-1.95,0-3.49,7.15a69.75,69.75,0,0,0-1.54,14.51,73.45,73.45,0,0,0,1.43,14.49,29.88,29.88,0,0,0,1.41,5.09l2.23,0h2.14a29.62,29.62,0,0,0,1.42-5.12,73.45,73.45,0,0,0,1.43-14.49,69.75,69.75,0,0,0-1.54-14.51C414.39,140,413.39,140,412.44,140Zm0,37.28a67.66,67.66,0,0,1-1.77-15.63,65.56,65.56,0,0,1,1.77-15.14,65.56,65.56,0,0,1,1.77,15.14A67.66,67.66,0,0,1,412.44,177.25Z"/>
          </g>
          <path class="cls-5" d="M412.43,129.07c-25.33,0-43.16-6.77-46.45-13.81,0-.13-0.07-0.29-0.11-0.4a1.47,1.47,0,0,1-.29-1.08h-0.07a4.65,4.65,0,0,1-.09-0.85c0-3,2.65-5.92,7.47-8.51v0a6.56,6.56,0,0,0-.18.85v0.06a3.58,3.58,0,0,0-.06.61c0,3,2.28,5.82,6.25,7.82,6.95,4,19.11,6.48,33.54,6.48S439,117.78,446,113.78c4-2,6.25-4.81,6.25-7.82a4.69,4.69,0,0,0-.06-0.7s0,0,0,0a6,6,0,0,0-.18-0.8v0c4.81,2.59,7.47,5.56,7.47,8.51a4.74,4.74,0,0,1,0,.5l0,0a0.51,0.51,0,0,1-.11.33,2.58,2.58,0,0,1-.46,1.43l-0.09.34C455.1,122.48,437.42,129.07,412.43,129.07Z"/>
        </g>
      </g>
      <g>
        <rect x="405.55" y="42.59" width="13.79" height="49.72" rx="6.56" ry="6.56" transform="translate(824.9 134.91) rotate(180)"/>
        <path d="M436.15,82.69L412.74,106.1a0.62,0.62,0,0,1-.88,0L388.45,82.69a0.62,0.62,0,0,1,.44-1.06h46.81A0.62,0.62,0,0,1,436.15,82.69Z"/>
      </g>
    </g>
  </g>
</svg>
