<svg id="Layer_1" data-name="Layer 1" xmlns="http://www.w3.org/2000/svg" viewBox="0 0 825.15 270"><defs><style>.cls-1,.cls-2{fill:#fff}.cls-2,.cls-3,.cls-4{stroke:#000;stroke-width:3.26px}.cls-2,.cls-3{stroke-linejoin:round}.cls-3{fill:#dcddde}.cls-4{fill:none;stroke-miterlimit:10}.cls-5{fill:#ffe300}</style></defs><title>santa-tracker_spacenav_sprites</title><path id="SVGID" class="cls-1" d="M274.6 108.42a32.87 32.87 0 0 0-32.49-27.73A61.48 61.48 0 0 0 175 20.18a32.9 32.9 0 0 0-58-5 62.65 62.65 0 0 0-83.7 59.23 34.58 34.58 0 0 0-4.26.39 34.13 34.13 0 0 0-7.32 65.46 42.43 42.43 0 0 0 26.17 79.1 48.7 48.7 0 0 0 74.26 41.21 69.5 69.5 0 0 0 102.2-42.19l.5-.07C252 214 270.88 190 266.89 164.63a43.83 43.83 0 0 0-10.07-21.75 32.82 32.82 0 0 0 17.78-34.46z"/><path class="cls-2" d="M206.16 162.39c0 16.84-28.94 31-68.66 31s-68.66-14.14-68.66-31 30.74-30.49 68.66-30.49 68.66 13.65 68.66 30.49z"/><path class="cls-3" d="M186 101.35s-2.64 5.52-2.64 24.89c0 11.34 3.16 18.78 5.78 23.21s2.2 3 3 4.44a5.34 5.34 0 0 1 .6 2.69c0 10.68-20.42 23.69-55.25 23.69-37.69 0-55.25-13-55.25-23.69a7.25 7.25 0 0 1 .54-2.71c.61-1.18 2.92-4.3 2.92-4.3l.09-.12c2.64-4.41 5.75-11.75 5.75-23.21 0-19.37-2.64-24.89-2.64-24.89"/><path class="cls-3" d="M171.27 87.62c2.8 1.79 4.39 3.83 4.39 6 0 7.1-17.09 12.86-38.16 12.86s-38.16-5.76-38.16-12.86c0-2.16 1.59-4.2 4.39-6-9.17 3.23-14.87 7.76-14.87 12.78 0 9.81 21.78 17.76 48.64 17.76s48.64-8 48.64-17.76c0-5.02-5.71-9.55-14.87-12.78z"/><path class="cls-3" d="M99.33 93.61c0 7.1 17.09 12.86 38.16 12.86s38.16-5.76 38.16-12.86c0-2.16-1.59-4.2-4.39-6-8.75-3.08-20.65-5-33.77-5s-25 1.9-33.77 5c-2.8 1.8-4.39 3.84-4.39 6z"/><path class="cls-4" d="M140.9 149.09c0 11.06-2.6 20-3.4 20s-3.4-9-3.4-20 2.86-20 3.4-20 3.4 8.91 3.4 20z"/><path id="SVGID-2" data-name="SVGID" class="cls-1" d="M824.74 108.42a32.87 32.87 0 0 0-32.49-27.73 61.48 61.48 0 0 0-67.11-60.51 32.9 32.9 0 0 0-58-5 62.65 62.65 0 0 0-83.7 59.23 34.58 34.58 0 0 0-4.26.39 34.13 34.13 0 0 0-7.32 65.46A42.43 42.43 0 0 0 598 219.31a48.7 48.7 0 0 0 74.26 41.21 69.5 69.5 0 0 0 102.2-42.19l.5-.07C802.19 214 821 190 817 164.63a43.83 43.83 0 0 0-10-21.75 32.82 32.82 0 0 0 17.74-34.46z"/><path class="cls-2" d="M756.31 162.39c0 16.84-28.94 31-68.66 31s-68.65-14.16-68.65-31 30.74-30.49 68.66-30.49 68.65 13.65 68.65 30.49z"/><path class="cls-3" d="M736.15 101.35s-2.64 5.52-2.64 24.89c0 11.34 3.16 18.78 5.78 23.21s2.2 3 3 4.44a5.34 5.34 0 0 1 .6 2.69c0 10.68-20.42 23.69-55.25 23.69-37.69 0-55.25-13-55.25-23.69a7.25 7.25 0 0 1 .54-2.71c.61-1.18 2.92-4.3 2.92-4.3l.09-.12c2.64-4.41 5.75-11.75 5.75-23.21 0-19.37-2.64-24.89-2.64-24.89"/><path class="cls-3" d="M721.41 87.62c2.8 1.79 4.39 3.83 4.39 6 0 7.1-17.09 12.86-38.16 12.86s-38.16-5.76-38.16-12.86c0-2.16 1.59-4.2 4.39-6-9.16 3.23-14.87 7.76-14.87 12.78 0 9.81 21.78 17.76 48.64 17.76s48.64-8 48.64-17.76c0-5.02-5.7-9.55-14.87-12.78z"/><path class="cls-3" d="M649.48 93.61c0 7.1 17.09 12.86 38.16 12.86s38.16-5.76 38.16-12.86c0-2.16-1.59-4.2-4.39-6-8.75-3.08-20.65-5-33.77-5s-25 1.9-33.77 5c-2.8 1.8-4.39 3.84-4.39 6z"/><path class="cls-4" d="M691 149.09c0 11.06-2.6 20-3.4 20s-3.4-9-3.4-20 2.86-20 3.4-20 3.4 8.91 3.4 20z"/><path id="SVGID-3" data-name="SVGID" class="cls-1" d="M549.67 108.42a32.87 32.87 0 0 0-32.49-27.73 61.48 61.48 0 0 0-67.11-60.51 32.9 32.9 0 0 0-58-5 62.65 62.65 0 0 0-83.7 59.23 34.58 34.58 0 0 0-4.26.39 34.13 34.13 0 0 0-7.32 65.46 42.43 42.43 0 0 0 26.17 79.1 48.7 48.7 0 0 0 74.26 41.21 69.5 69.5 0 0 0 102.2-42.19l.5-.07C527.12 214 546 190 542 164.63a43.83 43.83 0 0 0-10.07-21.75 32.82 32.82 0 0 0 17.74-34.46z"/><path class="cls-2" d="M481 162.56c0 16.84-28.94 31-68.66 31s-68.66-14.14-68.66-31 30.74-30.49 68.66-30.49S481 145.72 481 162.56z"/><path class="cls-5" d="M367.14 121.49a133.09 133.09 0 0 1 1 17.55c0 9.31-2 17.4-6 24l-.09.14-.09.12c-.83 1.13-2.28 3.17-2.74 4a2.11 2.11 0 0 0-.09.36c8.5 9.29 30.88 13.08 51.12 13.49a29.88 29.88 0 0 1-1.41-5.09 73.45 73.45 0 0 1-1.43-14.49 69.75 69.75 0 0 1 1.54-14.51c1.54-7.15 2.54-7.15 3.49-7.15s1.95 0 3.49 7.15a69.75 69.75 0 0 1 1.54 14.51 73.45 73.45 0 0 1-1.47 14.54 29.62 29.62 0 0 1-1.42 5.12c15.2-.07 29.08-2.35 39.23-6.45 5.24-2.12 9.26-4.62 11.82-7.27-.62-1.13-2.29-3.47-2.88-4.27l-.09-.14c-4-6.75-6-14.84-6-24a133.38 133.38 0 0 1 1-17.49c-8.09 6.44-25.09 10.78-45.21 10.78s-37.25-4.39-45.31-10.9z"/><path class="cls-5" d="M412.44 146.48a65.56 65.56 0 0 0-1.77 15.14 67.66 67.66 0 0 0 1.77 15.63 67.66 67.66 0 0 0 1.77-15.63 65.56 65.56 0 0 0-1.77-15.14zm46.84-32.33c0-.17.09-.34.11-.51 0 .12-.11.28-.19.51h.08zm-93.72-.09v.1zm.03.09a5.88 5.88 0 0 0 .29.89c-.11-.36-.2-.66-.28-.89zm93.23 1.24a6.14 6.14 0 0 0 .46-1.24h-.08c-.11.3-.2.71-.38 1.24zM449 106a2.16 2.16 0 0 0-.09-.6c0-.08-.06-.11-.08-.18a3.3 3.3 0 0 0-.16-.41c0-.09-.1-.16-.15-.25s-.14-.24-.22-.37-.14-.18-.21-.27-.17-.22-.26-.33l-.25-.26-.3-.3-.28-.25-.32-.28-.29-.22-.39-.28-.29-.2-.26-.17c-8.92-3.11-20.64-4.82-33-4.82s-24.12 1.71-33 4.82l-.26.17-.29.2-.34.25-.29.22-.32.28-.28.25-.3.3-.25.26c-.1.11-.18.22-.26.33l-.21.27c-.08.12-.15.25-.22.37s-.11.17-.15.26a3.62 3.62 0 0 0-.16.43c0 .08-.06.15-.08.23a1.56 1.56 0 0 0-.09.5c0 2.83 4.24 5.82 11.45 7.82h50.16c7.16-1.99 11.44-4.99 11.44-7.77zm-11.49 7.78h-50.16c6.35 2 15 3.22 25.08 3.22s18.73-1.22 25.08-3.22z"/><path class="cls-5" d="M447.8 103.55c.1.11.18.22.26.33-.06-.11-.17-.22-.26-.33zm.84 1.24a3.62 3.62 0 0 1 .16.43 3.62 3.62 0 0 0-.16-.43zm-.37-.64c.08.12.15.25.22.37-.07-.12-.14-.24-.22-.37zm-71.89.38c.07-.12.14-.25.22-.37-.09.12-.15.24-.22.37zm.42-.64c.09-.11.17-.22.26-.33-.06.1-.17.21-.26.33zm72.08 1.56a2.87 2.87 0 0 1 .09.69 2.87 2.87 0 0 0-.09-.69zm-3.4-3.83l.26.17zm-66.1 0l-.25.17.26-.17zM446 102l.34.25zm1.25 1l.3.3zm-69.35-.25l.32-.28zm.61-.51l.34-.25zm-2.61 3.9a2.87 2.87 0 0 1 .09-.69 2.87 2.87 0 0 0-.09.69zm1.42-2.85l.3-.3zm-1.25 1.93a3.62 3.62 0 0 1 .16-.43 3.62 3.62 0 0 0-.16.43zm70.58-2.75l.32.28z"/><path d="M362.38 114.84v.1a8.21 8.21 0 0 1-.17-.91 1.62 1.62 0 0 0 .17.81z"/><path d="M362.76 116c.7 2.43 2.1 9.06 2.1 23.06 0 8.68-1.84 16.19-5.48 22.31v.06c-.18.25-1.44 2-2.33 3.33a13.48 13.48 0 0 0 1 1.55 15.7 15.7 0 0 0 1.17 1.44 2.11 2.11 0 0 1 .09-.36c.46-.83 1.91-2.88 2.74-4l.09-.12.09-.14c4-6.65 6-14.74 6-24a133.09 133.09 0 0 0-1-17.55c8.06 6.47 25.11 10.84 45.29 10.84s37.09-4.33 45.18-10.76a134 134 0 0 0-1 17.47c0 9.21 2 17.3 6 24l.09.14c.59.81 2.27 3.15 2.88 4.27a13.82 13.82 0 0 0 1-1.3c-.76-1.25-2.14-3.08-2.64-3.73.49.64 1.88 2.48 2.64 3.73a12.3 12.3 0 0 0 1-1.5c-.82-1.27-1.86-2.75-2.3-3.36-3.66-6.22-5.5-13.73-5.5-22.32 0-13.26 1.27-19.91 2-22.64a8.8 8.8 0 0 0 .59-1.83 8 8 0 0 0 .17-1.56c0-5.61-5.67-10.69-16-14.32-9.28-3.27-21.47-5.07-34.31-5.07s-25 1.8-34.31 5.07c-10.29 3.63-16 8.71-16 14.32a8 8 0 0 0 .08 1.09 8.37 8.37 0 0 0 .17.91c.06.15.18.49.34 1m13.4-10.67c0-.08.06-.11.08-.18a3.31 3.31 0 0 1 .16-.41c0-.09.1-.16.15-.25s.14-.24.22-.37.14-.18.21-.27.17-.22.26-.33l.25-.26.3-.3.28-.25.32-.28.29-.22.34-.25.29-.2.25-.17c8.92-3.11 20.64-4.82 33-4.82s24.12 1.71 33 4.82l.25.17.35.21.34.25.29.22.32.28.28.25.3.3.25.26c.1.11.18.22.26.33l.21.27c.08.12.15.25.22.37s.11.17.15.26a3.62 3.62 0 0 1 .16.43c0 .08.06.15.08.23a1.56 1.56 0 0 1 .09.5c0 2.83-4.24 5.82-11.45 7.82-6.35 2-15 3.22-25.08 3.22s-18.73-1.22-25.08-3.22c-7.21-2-11.45-5-11.45-7.82a2.16 2.16 0 0 1 .11-.59zm36.45 23.71c-25.33 0-43.16-6.77-46.45-13.81 0-.13-.07-.29-.11-.4a1.47 1.47 0 0 1-.29-1.08h-.07a4.65 4.65 0 0 1-.09-.85c0-3 2.65-5.92 7.47-8.51a6.56 6.56 0 0 0-.18.85v.06a3.58 3.58 0 0 0-.06.61c0 3 2.28 5.82 6.25 7.82 6.95 4 19.11 6.48 33.54 6.48s26.54-2.46 33.54-6.46c4-2 6.25-4.81 6.25-7.82a4.69 4.69 0 0 0-.06-.7 6 6 0 0 0-.18-.8c4.81 2.59 7.47 5.56 7.47 8.51a4.74 4.74 0 0 1 0 .5.51.51 0 0 1-.11.33 2.58 2.58 0 0 1-.46 1.43l-.09.34c-3.72 6.91-21.4 13.5-46.39 13.5z"/><path d="M362.76 116c-.16-.56-.28-.89-.34-1a8.81 8.81 0 0 0 .34 1zm49.68 24c-1 0-1.95 0-3.49 7.15a69.75 69.75 0 0 0-1.54 14.51 73.45 73.45 0 0 0 1.43 14.49 29.88 29.88 0 0 0 1.41 5.09h4.37a29.62 29.62 0 0 0 1.42-5.12 73.45 73.45 0 0 0 1.43-14.49 69.75 69.75 0 0 0-1.54-14.51c-1.54-7.12-2.54-7.12-3.49-7.12zm0 37.28a67.66 67.66 0 0 1-1.77-15.63 65.56 65.56 0 0 1 1.77-15.14 65.56 65.56 0 0 1 1.77 15.14 67.66 67.66 0 0 1-1.77 15.6z"/><path class="cls-5" d="M412.43 129.07c-25.33 0-43.16-6.77-46.45-13.81 0-.13-.07-.29-.11-.4a1.47 1.47 0 0 1-.29-1.08h-.07a4.65 4.65 0 0 1-.09-.85c0-3 2.65-5.92 7.47-8.51a6.56 6.56 0 0 0-.18.85v.06a3.58 3.58 0 0 0-.06.61c0 3 2.28 5.82 6.25 7.82 6.95 4 19.11 6.48 33.54 6.48s26.56-2.46 33.56-6.46c4-2 6.25-4.81 6.25-7.82a4.69 4.69 0 0 0-.06-.7 6 6 0 0 0-.18-.8c4.81 2.59 7.47 5.56 7.47 8.51a4.74 4.74 0 0 1 0 .5.51.51 0 0 1-.11.33 2.58 2.58 0 0 1-.46 1.43l-.09.34c-3.72 6.91-21.4 13.5-46.39 13.5z"/><rect x="405.55" y="42.59" width="13.79" height="49.72" rx="6.56" ry="6.56" transform="rotate(180 412.45 67.455)"/><path d="M436.15 82.69l-23.41 23.41a.62.62 0 0 1-.88 0l-23.41-23.41a.62.62 0 0 1 .44-1.06h46.81a.62.62 0 0 1 .45 1.06z"/></svg>