<svg xmlns="http://www.w3.org/2000/svg" xmlns:xlink="http://www.w3.org/1999/xlink" width="275.074" height="270.508" viewBox="0 0 275.074 270.508"><defs><path id="a" d="M104.11 267.68c6.607-1.038 12.692-3.36 18.043-6.672 13.346 7.81 29.368 11.236 45.834 8.648 28.087-4.415 49.575-25.087 56.396-50.92.167-.024.334-.046.5-.072 27.23-4.28 46.067-28.332 42.076-53.72-1.306-8.3-4.89-15.715-10.074-21.788 12.48-6.234 20.066-20.018 17.784-34.53-2.55-16.23-16.564-27.807-32.495-27.786-.036-2.935-.278-5.902-.747-8.888-5.07-32.25-34.326-54.684-66.382-51.735C169.346 6.544 154.876-2 139.59.404c-9.673 1.52-17.688 7.116-22.585 14.758-9.554-3.424-20.078-4.572-30.81-2.885-31.022 4.877-53.12 31.746-52.914 62.225-1.408.045-2.83.167-4.258.39C10.358 77.83-2.394 95.337.542 114c1.945 12.378 10.304 22.15 21.156 26.475-15.046 8.453-24.013 25.63-21.175 43.678 3.58 22.78 24.63 38.47 47.353 35.572.01 2.452.204 4.935.597 7.433 4.173 26.554 29.084 44.697 55.637 40.523z"/></defs><use xlink:href="#a" overflow="visible"/><clipPath><use xlink:href="#a" overflow="visible"/></clipPath></svg>