<svg xmlns="http://www.w3.org/2000/svg" xmlns:xlink="http://www.w3.org/1999/xlink" viewBox="0 0 1440 1300"><style>.st1{fill:#2c84db}.st2{fill:#39f}.st4{fill:none;stroke-width:11.25;stroke-linecap:round;stroke-linejoin:round}.st4,.st5,.st6{stroke:#000}.st5{fill:none;stroke-width:11.25;stroke-linecap:round;stroke-linejoin:round;stroke-dasharray:1.2654,15.1845}.st6{stroke-dasharray:1.2118,14.5418}.st10,.st11,.st6,.st7,.st8,.st9{fill:none;stroke-width:11.25;stroke-linecap:round;stroke-linejoin:round}.st7{stroke-dasharray:1.2118,14.5417;stroke:#000}.st10,.st11,.st8,.st9{stroke:#ffcc05}.st10,.st11,.st9{stroke-dasharray:1.2654,15.1845}.st10,.st11{stroke-dasharray:1.2118,14.5418}.st11{stroke-dasharray:1.2118,14.5417}.st12{opacity:.5}.st13{fill:none;stroke:#1b69c1;stroke-width:8.9165;stroke-miterlimit:10}.st15{opacity:.2}.st16{fill:none;stroke:#1b69c1;stroke-width:21.621;stroke-miterlimit:10}.st17{fill:#505556}.st18{fill:#1b69c1}.st21{fill:#6ac86e}.st22{fill:#30a658}.st23{fill:none;stroke:#30a658;stroke-width:2.25;stroke-miterlimit:10}.st24{opacity:.57;fill:#ffc5a5}.st25{fill:#ee6262}.st26{fill:#00b4c9}.st27{fill:#95d6e0}.st31{fill:none;stroke:#00c1f2;stroke-width:7.0724;stroke-linecap:round;stroke-linejoin:round;stroke-miterlimit:10}.st32{fill:#faf076}.st34{fill:#c7e8f9}.st35{fill:#ad00ad}.st37{fill:#332f2e}.st38{fill:#f8c329}.st40{fill:#bf8f68}.st41{fill:#fff}.st42{fill:#7c5539}.st43{fill:#b71c1c}.st46{fill:#c2e6ec}.st47{fill:#ee3c39}.st49,.st50{fill:none;stroke:#9fceff;stroke-width:8;stroke-miterlimit:10}.st50{stroke:#30a658;stroke-width:3}.st51{opacity:.3;fill:#333}.st53{fill:#f33}.st60{fill:#31a657}.st61{fill:none;stroke:#31a657;stroke-width:20.6955;stroke-linecap:round;stroke-miterlimit:10}.st62{fill:#e7cbae}.st63{fill:#ff4081}.st66{fill:#eff1f3}.st67{fill:none;stroke:#ff4081;stroke-width:19.8269;stroke-linecap:round;stroke-miterlimit:10}.st69{fill:#f9ce1e}.st72{fill:#db336c}.st73{fill:#9b653e}.st74{fill:none;stroke:#332f2e;stroke-width:2.6436;stroke-linecap:round;stroke-miterlimit:10}.st75{fill:#bdbdbd}.st83,.st85{fill:none;stroke-miterlimit:10}.st83{stroke-linecap:round;stroke:#34302f;stroke-width:2.756}.st85{stroke:#952b90;stroke-width:34}.st88{opacity:.2;fill:#fff}.st90{fill:none;stroke:#f33;stroke-width:19.4392;stroke-miterlimit:10}.st98{fill:#e0bb95}.st101{fill:none;stroke:#00c1f2;stroke-width:13;stroke-linecap:round;stroke-linejoin:round;stroke-miterlimit:10}</style><g id="card3"><defs><path id="SVGID_1_" d="M0-1.2h1441v1300H0z"/></defs><clipPath id="SVGID_2_"><use xlink:href="#SVGID_1_" overflow="visible"/></clipPath><g clip-path="url(#SVGID_2_)"><path class="st1" d="M-34.4-53h1527.1v1415.4H-34.4z"/><path class="st2" d="M-34.4-53l1527.1 1415.4V-53z"/><g opacity=".15"><path class="st4" d="M-296.8-34.2v.6"/><path class="st5" d="M-295.5-18.4c7.5 43.2 45.2 76.1 90.5 76.1 33.3 0 62.4-17.7 78.6-44.2"/><path class="st4" d="M-122.7 6.8l.3-.6.3.6"/><path class="st6" d="M-114.7 19.3C-98 42.5-70.8 57.7-40 57.7c33.4 0 62.6-17.8 78.7-44.5"/><path class="st4" d="M42.3 6.8l.3-.6.3.6"/><path class="st6" d="M50.3 19.3C67 42.5 94.2 57.7 125 57.7c33.4 0 62.6-17.8 78.7-44.5"/><path class="st4" d="M207.3 6.8l.3-.6.3.6"/><path class="st6" d="M215.3 19.3C232 42.5 259.2 57.7 290 57.7c33.4 0 62.6-17.8 78.7-44.5"/><path class="st4" d="M372.2 6.8l.3-.6.3.6"/><path class="st6" d="M380.3 19.3C397 42.5 424.2 57.7 455 57.7c33.4 0 62.6-17.8 78.7-44.5"/><path class="st4" d="M537.2 6.8l.3-.6.3.6"/><path class="st7" d="M545.3 19.3C562 42.5 589.2 57.7 620 57.7c33.4 0 62.6-17.8 78.7-44.5"/><path class="st4" d="M702.2 6.8l.3-.6.3.6"/><path class="st6" d="M710.3 19.3C727 42.6 754.2 57.7 785 57.7c33.4 0 62.6-17.8 78.7-44.5"/><path class="st4" d="M867.2 6.8l.3-.6.3.6"/><path class="st7" d="M875.3 19.3C892 42.6 919.2 57.7 950 57.7c33.4 0 62.6-17.8 78.7-44.5"/><path class="st4" d="M1032.2 6.8l.3-.6.3.6"/><path class="st6" d="M1040.3 19.3c16.7 23.3 43.9 38.4 74.7 38.4 33.4 0 62.6-17.8 78.7-44.5"/><path class="st4" d="M1197.2 6.8l.3-.6.3.6"/><path class="st7" d="M1205.3 19.3c16.7 23.3 43.9 38.4 74.7 38.4 33.4 0 62.6-17.8 78.7-44.5"/><path class="st4" d="M1362.2 6.8l.3-.6.3.6"/><path class="st6" d="M1370.2 19.3c16.7 23.3 43.9 38.4 74.7 38.4 33.4 0 62.6-17.8 78.7-44.5"/><path class="st4" d="M1527.2 6.8l.3-.6.3.6"/><path class="st7" d="M1535.2 19.3c16.7 23.3 43.9 38.4 74.7 38.4 33.4 0 62.6-17.8 78.7-44.5"/><path class="st4" d="M1692.2 6.8l.3-.6.3.6"/><path class="st5" d="M1700.6 19.8c16.7 23 43.8 37.9 74.3 37.9 48 0 87.3-36.8 91.5-83.6"/><path class="st4" d="M1866.8-33.6v-.6"/></g><path class="st8" d="M-301.8-39.2v.6"/><path class="st9" d="M-300.5-23.4c7.5 43.2 45.2 76.1 90.5 76.1 33.3 0 62.4-17.7 78.6-44.2"/><path class="st8" d="M-127.7 1.8l.3-.6.3.6"/><path class="st10" d="M-119.7 14.3C-103 37.5-75.8 52.7-45 52.7c33.4 0 62.6-17.8 78.7-44.5"/><path class="st8" d="M37.3 1.8l.3-.6.3.6"/><path class="st10" d="M45.3 14.3C62 37.5 89.2 52.7 120 52.7c33.4 0 62.6-17.8 78.7-44.5"/><path class="st8" d="M202.3 1.8l.3-.6.3.6"/><path class="st10" d="M210.3 14.3C227 37.5 254.2 52.7 285 52.7c33.4 0 62.6-17.8 78.7-44.5"/><path class="st8" d="M367.2 1.8l.3-.6.3.6"/><path class="st10" d="M375.3 14.3C392 37.5 419.2 52.7 450 52.7c33.4 0 62.6-17.8 78.7-44.5"/><path class="st8" d="M532.2 1.8l.3-.6.3.6"/><path class="st11" d="M540.3 14.3C557 37.5 584.2 52.7 615 52.7c33.4 0 62.6-17.8 78.7-44.5"/><path class="st8" d="M697.2 1.8l.3-.6.3.6"/><path class="st10" d="M705.3 14.3C722 37.6 749.2 52.7 780 52.7c33.4 0 62.6-17.8 78.7-44.5"/><path class="st8" d="M862.2 1.8l.3-.6.3.6"/><path class="st11" d="M870.3 14.3C887 37.6 914.2 52.7 945 52.7c33.4 0 62.6-17.8 78.7-44.5"/><path class="st8" d="M1027.2 1.8l.3-.6.3.6"/><path class="st10" d="M1035.3 14.3c16.7 23.3 43.9 38.4 74.7 38.4 33.4 0 62.6-17.8 78.7-44.5"/><path class="st8" d="M1192.2 1.8l.3-.6.3.6"/><path class="st11" d="M1200.3 14.3c16.7 23.3 43.9 38.4 74.7 38.4 33.4 0 62.6-17.8 78.7-44.5"/><path class="st8" d="M1357.2 1.8l.3-.6.3.6"/><path class="st10" d="M1365.2 14.3c16.7 23.3 43.9 38.4 74.7 38.4 33.4 0 62.6-17.8 78.7-44.5"/><path class="st8" d="M1522.2 1.8l.3-.6.3.6"/><path class="st11" d="M1530.2 14.3c16.7 23.3 43.9 38.4 74.7 38.4 33.4 0 62.6-17.8 78.7-44.5"/><path class="st8" d="M1687.2 1.8l.3-.6.3.6"/><path class="st9" d="M1695.6 14.8c16.7 23 43.8 37.9 74.3 37.9 48 0 87.3-36.8 91.5-83.6"/><path class="st8" d="M1861.8-38.6v-.6"/><g class="st12"><path transform="matrix(.0015 -1 1 .0015 3293.3882 3490.1243)" class="st13" d="M3387.6-1067.5h13.6v2326.8h-13.6z"/><path transform="matrix(.0015 -1 1 .0015 3265.8879 3517.5005)" class="st13" d="M3367.1-1040.1h54.4v2326.8h-54.4z"/><path transform="matrix(.0015 -1 1 .0015 3183.4082 3599.6086)" class="st13" d="M3385.8-957.7h16.9v2326.8h-16.9z"/><path transform="matrix(.0015 -1 1 .0015 3293.3882 3490.1243)" class="st13" d="M3387.6-1067.5h13.6v2326.8h-13.6z"/><path transform="matrix(.0015 -1 1 .0015 3280.7812 3502.6743)" class="st13" d="M3387.6-1054.9h13.6v2326.8h-13.6z"/><path class="st13" d="M2215.9 151.7l117.9 42.2 118-41.8 118 42.1 118-41.7 117.9 42.1 118-41.8 118 42.1 118-41.7 117.9 42.1 118-41.8 118 42.2 118-41.8 117.9 42.1 118-41.8 118 42.2 118-41.8 117.9 42.1 118.1-41.8 117.9 42.2 118-41.8"/><g><path transform="matrix(.0015 -1 1 .0015 975.33 1161.5731)" class="st13" d="M1062.5-1071h13.6v2326.8h-13.6z"/><path transform="matrix(.0015 -1 1 .0015 947.8297 1188.9496)" class="st13" d="M1042.1-1043.6h54.4v2326.8h-54.4z"/><path transform="matrix(.0015 -1 1 .0015 865.3499 1271.0576)" class="st13" d="M1060.7-961.2h16.9v2326.8h-16.9z"/><path transform="matrix(.0015 -1 1 .0015 975.33 1161.5731)" class="st13" d="M1062.5-1071h13.6v2326.8h-13.6z"/><path transform="matrix(.0015 -1 1 .0015 962.723 1174.1233)" class="st13" d="M1062.5-1058.4h13.6v2326.8h-13.6z"/><path class="st13" d="M-109.2 148.2l118 42.2 118-41.8 117.9 42.1 118-41.7 117.9 42.1 118.1-41.8 117.9 42.1 118-41.7 117.9 42.1 118.1-41.8 117.9 42.2 118-41.8 117.9 42.1 118.1-41.8 117.9 42.2 118-41.8 118 42.1 118-41.8 117.9 42.2 118.1-41.8"/></g><g><path opacity=".1" d="M-148-20v53.2h2340V-20H981.6z"/></g></g><g class="st15"><path class="st16" d="M-286 823.7c0 7.9 6.5 14.3 14.4 14.3h23.9c7.9 0 14.3 6.4 14.3 14.3v73.5c0 7.9-6.4 14.3-14.3 14.4l-198.9.8c-7.9 0-14.5 6.5-14.6 14.4L-464 1080c-.2 7.9 6.1 14.3 14 14.3l273.9.5c7.9 0 14.3 6.5 14.3 14.3v112c0 7.9 6.4 14.3 14.3 14.3h78.3c7.9 0 14.4 6.4 14.5 14.3l.6 48.6c.1 7.9 6.6 14.3 14.5 14.3h1093.9c7.9 0 14.2-6.4 14.2-14.3l-1.1-90.6c-.1-7.9-6.6-14.3-14.5-14.3h-79.2c-7.9 0-14.3-6.4-14.3-14.3v-121.2c0-7.9-6.4-13.3-14.1-12l-406.8 68c-7.8 1.3-14.1 8.8-14.1 16.7v19.4c0 7.9-6.3 13.1-14.1 11.6l-344.7-67.3c-7.7-1.5-14-9.2-14-17.1l1.3-718.9c0-7.9-6.4-14.3-14.3-14.3h-411.4c-7.9 0-14.3 6.4-14.3 14.3l1.1 465.4zM1314.7 821h-157.1c-7.9 0-14.3-6.4-14.3-14.3V605c0-7.9 6.4-14.3 14.3-14.3h5.7c7.9 0 14.3-6.4 14.3-14.3V522c0-7.9 6.4-14.3 14.3-14.2l333 2c7.9 0 12.4.1 10.1.1-2.3 0 1.7 2.5 9 5.4l145 59.7c7.3 3 13.2 11.9 13.2 19.8v128.9c0 7.9-6.4 14.3-14.3 14.3h-5.7c-7.9 0-14.3 6.4-14.3 14.3v54.4c0 7.9-6.4 14.3-14.3 14.3H1314.7z"/><path class="st16" d="M258.8 347.6c-7.9.1-14.3 6.6-14.3 14.5v421.4c0 7.9 6.4 15.4 14.1 16.7L519.2 844c7.8 1.3 14.1-4.1 14.1-11.9V358.4c0-7.9-6.4-14.2-14.3-14.1l-260.2 3.3z"/><path class="st17" d="M1264.6 723.3h69.1v6.5h-69.1zM1264.6 733.3h69.1v6.5h-69.1zM1264.6 743.3h69.1v6.5h-69.1z"/><g><path class="st17" d="M945.8 512.5h69.1v6.5h-69.1zM945.8 522.5h69.1v6.5h-69.1zM945.8 532.5h69.1v6.5h-69.1z"/></g></g><path class="st18" d="M462.7 768.6c0 2.1 1.7 3.9 3.9 3.9h9.7c2.1 0 3.9-1.7 3.9-3.9v-2.4c0-2.1-1.7-3.9-3.9-3.9h-9.7c-2.1 0-3.9 1.7-3.9 3.9v2.4zM483.1 768.6c0 2.1 1.7 3.9 3.9 3.9h6.1c2.1 0 3.9-1.7 3.9-3.9v-2.4c0-2.1-1.7-3.9-3.9-3.9H487c-2.1 0-3.9 1.7-3.9 3.9v2.4zM365.6 770.1c0 1.3 1.7 2.4 3.9 2.4h2.1c2.1 0 3.9-1.1 3.9-2.4 0-1.3-1.7-2.4-3.9-2.4h-2.1c-2.1.1-3.9 1.1-3.9 2.4zM377 770.1c0 1.3 1.7 2.4 3.9 2.4h2.1c2.1 0 3.9-1.1 3.9-2.4 0-1.3-1.7-2.4-3.9-2.4h-2.1c-2.2.1-3.9 1.1-3.9 2.4zM377 763.6c0 1.3 1.7 2.4 3.9 2.4h2.1c2.1 0 3.9-1.1 3.9-2.4 0-1.3-1.7-2.4-3.9-2.4h-2.1c-2.2 0-3.9 1.1-3.9 2.4zM388.4 770.1c0 1.3 1.7 2.4 3.9 2.4h2.1c2.1 0 3.9-1.1 3.9-2.4 0-1.3-1.7-2.4-3.9-2.4h-2.1c-2.2.1-3.9 1.1-3.9 2.4z"/><g><path class="st18" d="M401.6 768.6c0 2.1 1.7 3.9 3.9 3.9h49.7c2.1 0 3.9-1.7 3.9-3.9v-2.4c0-2.1-1.7-3.9-3.9-3.9h-49.7c-2.1 0-3.9 1.7-3.9 3.9v2.4z"/></g><g><path class="st18" d="M365.4 754.1c0 2.1 1.7 3.9 3.9 3.9h2.4c2.1 0 3.9-1.7 3.9-3.9v-2.4c0-2.1-1.7-3.9-3.9-3.9h-2.4c-2.1 0-3.9 1.7-3.9 3.9v2.4zM380.6 754.1c0 2.1 1.7 3.9 3.9 3.9h2.4c2.1 0 3.9-1.7 3.9-3.9v-2.4c0-2.1-1.7-3.9-3.9-3.9h-2.4c-2.1 0-3.9 1.7-3.9 3.9v2.4zM395.8 754.1c0 2.1 1.7 3.9 3.9 3.9h2.4c2.1 0 3.9-1.7 3.9-3.9v-2.4c0-2.1-1.7-3.9-3.9-3.9h-2.4c-2.1 0-3.9 1.7-3.9 3.9v2.4zM411 754.1c0 2.1 1.7 3.9 3.9 3.9h2.4c2.1 0 3.9-1.7 3.9-3.9v-2.4c0-2.1-1.7-3.9-3.9-3.9h-2.4c-2.1 0-3.9 1.7-3.9 3.9v2.4zM426.2 754.1c0 2.1 1.7 3.9 3.9 3.9h2.4c2.1 0 3.9-1.7 3.9-3.9v-2.4c0-2.1-1.7-3.9-3.9-3.9h-2.4c-2.1 0-3.9 1.7-3.9 3.9v2.4zM441.4 754.1c0 2.1 1.7 3.9 3.9 3.9h2.4c2.1 0 3.9-1.7 3.9-3.9v-2.4c0-2.1-1.7-3.9-3.9-3.9h-2.4c-2.1 0-3.9 1.7-3.9 3.9v2.4zM456.6 754.1c0 2.1 1.7 3.9 3.9 3.9h2.4c2.1 0 3.9-1.7 3.9-3.9v-2.4c0-2.1-1.7-3.9-3.9-3.9h-2.4c-2.1 0-3.9 1.7-3.9 3.9v2.4zM471.8 754.1c0 2.1 1.7 3.9 3.9 3.9h2.4c2.1 0 3.9-1.7 3.9-3.9v-2.4c0-2.1-1.7-3.9-3.9-3.9h-2.4c-2.1 0-3.9 1.7-3.9 3.9v2.4zM487 754.1c0 2.1 1.7 3.9 3.9 3.9h2.4c2.1 0 3.9-1.7 3.9-3.9v-2.4c0-2.1-1.7-3.9-3.9-3.9h-2.4c-2.1 0-3.9 1.7-3.9 3.9v2.4z"/></g><g><path class="st18" d="M365.4 740.2c0 2.1 1.7 3.9 3.9 3.9h2.4c2.1 0 3.9-1.7 3.9-3.9v-2.4c0-2.1-1.7-3.9-3.9-3.9h-2.4c-2.1 0-3.9 1.7-3.9 3.9v2.4zM380.6 740.2c0 2.1 1.7 3.9 3.9 3.9h2.4c2.1 0 3.9-1.7 3.9-3.9v-2.4c0-2.1-1.7-3.9-3.9-3.9h-2.4c-2.1 0-3.9 1.7-3.9 3.9v2.4zM395.8 740.2c0 2.1 1.7 3.9 3.9 3.9h2.4c2.1 0 3.9-1.7 3.9-3.9v-2.4c0-2.1-1.7-3.9-3.9-3.9h-2.4c-2.1 0-3.9 1.7-3.9 3.9v2.4zM411 740.2c0 2.1 1.7 3.9 3.9 3.9h2.4c2.1 0 3.9-1.7 3.9-3.9v-2.4c0-2.1-1.7-3.9-3.9-3.9h-2.4c-2.1 0-3.9 1.7-3.9 3.9v2.4zM426.2 740.2c0 2.1 1.7 3.9 3.9 3.9h2.4c2.1 0 3.9-1.7 3.9-3.9v-2.4c0-2.1-1.7-3.9-3.9-3.9h-2.4c-2.1 0-3.9 1.7-3.9 3.9v2.4zM441.4 740.2c0 2.1 1.7 3.9 3.9 3.9h2.4c2.1 0 3.9-1.7 3.9-3.9v-2.4c0-2.1-1.7-3.9-3.9-3.9h-2.4c-2.1 0-3.9 1.7-3.9 3.9v2.4zM456.6 740.2c0 2.1 1.7 3.9 3.9 3.9h2.4c2.1 0 3.9-1.7 3.9-3.9v-2.4c0-2.1-1.7-3.9-3.9-3.9h-2.4c-2.1 0-3.9 1.7-3.9 3.9v2.4zM471.8 740.2c0 2.1 1.7 3.9 3.9 3.9h2.4c2.1 0 3.9-1.7 3.9-3.9v-2.4c0-2.1-1.7-3.9-3.9-3.9h-2.4c-2.1 0-3.9 1.7-3.9 3.9v2.4zM487 740.2c0 2.1 1.7 3.9 3.9 3.9h2.4c2.1 0 3.9-1.7 3.9-3.9v-2.4c0-2.1-1.7-3.9-3.9-3.9h-2.4c-2.1 0-3.9 1.7-3.9 3.9v2.4z"/></g><g><path class="st18" d="M365.4 726.4c0 2.1 1.7 3.9 3.9 3.9h2.4c2.1 0 3.9-1.7 3.9-3.9V724c0-2.1-1.7-3.9-3.9-3.9h-2.4c-2.1 0-3.9 1.7-3.9 3.9v2.4zM380.6 726.4c0 2.1 1.7 3.9 3.9 3.9h2.4c2.1 0 3.9-1.7 3.9-3.9V724c0-2.1-1.7-3.9-3.9-3.9h-2.4c-2.1 0-3.9 1.7-3.9 3.9v2.4zM395.8 726.4c0 2.1 1.7 3.9 3.9 3.9h2.4c2.1 0 3.9-1.7 3.9-3.9V724c0-2.1-1.7-3.9-3.9-3.9h-2.4c-2.1 0-3.9 1.7-3.9 3.9v2.4zM411 726.4c0 2.1 1.7 3.9 3.9 3.9h2.4c2.1 0 3.9-1.7 3.9-3.9V724c0-2.1-1.7-3.9-3.9-3.9h-2.4c-2.1 0-3.9 1.7-3.9 3.9v2.4zM426.2 726.4c0 2.1 1.7 3.9 3.9 3.9h2.4c2.1 0 3.9-1.7 3.9-3.9V724c0-2.1-1.7-3.9-3.9-3.9h-2.4c-2.1 0-3.9 1.7-3.9 3.9v2.4zM441.4 726.4c0 2.1 1.7 3.9 3.9 3.9h2.4c2.1 0 3.9-1.7 3.9-3.9V724c0-2.1-1.7-3.9-3.9-3.9h-2.4c-2.1 0-3.9 1.7-3.9 3.9v2.4zM456.6 726.4c0 2.1 1.7 3.9 3.9 3.9h2.4c2.1 0 3.9-1.7 3.9-3.9V724c0-2.1-1.7-3.9-3.9-3.9h-2.4c-2.1 0-3.9 1.7-3.9 3.9v2.4zM471.8 726.4c0 2.1 1.7 3.9 3.9 3.9h2.4c2.1 0 3.9-1.7 3.9-3.9V724c0-2.1-1.7-3.9-3.9-3.9h-2.4c-2.1 0-3.9 1.7-3.9 3.9v2.4zM487 726.4c0 2.1 1.7 3.9 3.9 3.9h2.4c2.1 0 3.9-1.7 3.9-3.9V724c0-2.1-1.7-3.9-3.9-3.9h-2.4c-2.1 0-3.9 1.7-3.9 3.9v2.4z"/></g><path d="M484.9 708.6H373.6c-6.7 0-12.1-5.4-12.1-12.1V646c0-6.7 5.4-12.1 12.1-12.1h111.3c6.7 0 12.1 5.4 12.1 12.1v50.6c-.1 6.6-5.5 12-12.1 12z" fill="#9fceff"/><g><path d="M1158.2-95.9C1183.4 177.5 852 55.5 758.3 205.6" fill="none" stroke="#9fceff" stroke-width="24" stroke-miterlimit="10"/><path class="st21" d="M1089.6 77.7c-3.7 2.8-9 2-11.8-1.7-2.8-3.7-2-9 1.7-11.8 3.7-2.8 23.8-7.2 23.8-7.2s-9.9 18-13.7 20.7z"/><path class="st22" d="M1089.6 77.7c-3.7 2.8-9 2-11.8-1.7l25.5-19c.1 0-9.9 18-13.7 20.7z"/><path class="st23" d="M1077.9 76l-5.4 4"/><path class="st21" d="M1012.6 87.1c4-2.4 9.1-1.2 11.6 2.7 2.4 3.9 1.2 9.1-2.7 11.6-3.9 2.4-24.3 5.2-24.3 5.2s11.5-17.1 15.4-19.5z"/><path class="st22" d="M1012.6 87.1c4-2.4 9.1-1.2 11.6 2.7l-27.1 16.7c0 .1 11.6-17 15.5-19.4z"/><path class="st23" d="M1024.2 89.8l5.7-3.5"/><g><path class="st21" d="M922.4 128.8c-4 2.3-9.2 1-11.5-3-2.3-4-1-9.2 3-11.5 4-2.3 24.5-4.5 24.5-4.5s-12 16.7-16 19z"/><path class="st22" d="M922.4 128.8c-4 2.3-9.2 1-11.5-3l27.5-16s-12 16.7-16 19z"/><path class="st23" d="M910.9 125.8l-5.8 3.3"/></g><g><path class="st21" d="M1150.9 13.1c-1.3 4.5-6 7-10.4 5.7-4.5-1.3-7-6-5.7-10.4 1.3-4.5 14.6-20.2 14.6-20.2s2.8 20.4 1.5 24.9z"/><path class="st22" d="M1150.9 13.1c-1.3 4.5-6 7-10.4 5.7l8.8-30.6s2.9 20.4 1.6 24.9z"/><path class="st23" d="M1140.5 18.8l-1.9 6.5"/></g></g><path class="st24" d="M527 283.9h-5.2c-9 0-16.3-7.3-16.3-16.3s7.3-16.3 16.3-16.3h5.2c9 0 16.3 7.3 16.3 16.3.1 9-7.3 16.3-16.3 16.3z"/><path class="st25" d="M526.4 280h-4c-6.9 0-12.5-5.6-12.5-12.5s5.6-12.5 12.5-12.5h4c6.9 0 12.5 5.6 12.5 12.5s-5.6 12.5-12.5 12.5z"/><path transform="rotate(90 542.2494 268.23529998)" class="st17" d="M521.2 249.8h42.2v36.8h-42.2z"/><path transform="rotate(90 547.8744 268.23529998)" class="st26" d="M521.7 249.8h52.4v36.8h-52.4z"/><path transform="rotate(90 547.8744 247.98529998)" class="st27" d="M542.2 229.6h11.2v36.8h-11.2z"/><path d="M998.2-95.9C1023.4 177.5 852 55.5 758.3 205.6" fill="none" stroke="#ee6262" stroke-width="24" stroke-miterlimit="10"/><path d="M888.1 119.2c-10.1 3.5-19.1 6.7-27.5 10" opacity=".75" fill="none" stroke="#fff" stroke-width="48" stroke-miterlimit="10"/><path class="st18" d="M-243.6 268.9h549.2v474.3h-549.2z"/><path transform="rotate(90 31.00595 503.04925)" fill="#e9f9fd" d="M-188.2 246.4h438.3v513.2h-438.3z"/><g class="st12"><path class="st31" d="M29.4 395.5l68.8 36v41.6"/><path class="st31" d="M-30 507.1h87.6l40.6-75.6M76.1 533.6H199M76.1 560.1h52.2"/><circle class="st31" cx="10.2" cy="389.5" r="15.9"/><circle class="st31" cx="98.5" cy="491.4" r="15.9"/><path class="st31" d="M127.3 476.4v34.2M145 476.4v34.2M53.2 459.7v41.7M10.2 331.4V373M203.6 458c0 12.7-10.2 22.9-22.8 23-12.6 0-22.9-10.2-23-22.8 0-12.6 22.7-63.8 22.7-63.8s23.1 50.9 23.1 63.6z"/><path class="st31" d="M203.6 458c0 12.7-10.2 22.9-22.8 23l-.2-86.6c-.1-.1 23 50.9 23 63.6zM180.8 480.9V508M207.9 392.5h14.6l-13.8 13.7h13.8"/></g><g><circle class="st25" cx="910.1" cy="842.3" r="36.6"/><path class="st32" d="M946.7 847.4c0 23.7-36.6 68.3-36.6 68.3s-36.6-44.6-36.6-68.3h73.2z"/><path class="st18" d="M-222.3 901.8H1545v371H-222.3z"/><circle class="st1" cx="30" cy="922.7" r="10"/><circle class="st1" cx="95.7" cy="922.7" r="10"/><circle class="st1" cx="161.4" cy="922.7" r="10"/><circle class="st1" cx="227.1" cy="922.7" r="10"/><circle class="st1" cx="292.9" cy="922.7" r="10"/><circle class="st1" cx="358.6" cy="922.7" r="10"/><circle class="st1" cx="424.3" cy="922.7" r="10"/><circle class="st1" cx="490" cy="922.7" r="10"/><circle class="st1" cx="555.7" cy="922.7" r="10"/><circle class="st1" cx="621.4" cy="922.7" r="10"/><circle class="st1" cx="687.1" cy="922.7" r="10"/><circle class="st1" cx="752.9" cy="922.7" r="10"/><circle class="st1" cx="818.6" cy="922.7" r="10"/><circle class="st1" cx="884.3" cy="922.7" r="10"/><circle class="st1" cx="950" cy="922.7" r="10"/><circle class="st1" cx="1015.7" cy="922.7" r="10"/><circle class="st1" cx="1081.4" cy="922.7" r="10"/><circle class="st1" cx="1147.1" cy="922.7" r="10"/><circle class="st1" cx="1212.9" cy="922.7" r="10"/><circle class="st1" cx="1278.6" cy="922.7" r="10"/><circle class="st1" cx="1344.3" cy="922.7" r="10"/><circle class="st1" cx="1410" cy="922.7" r="10"/><path fill="#6bb4fd" d="M-222.3 941.8H1545v371H-222.3z"/><g class="st15"><path class="st34" d="M1 952.6v60h60v-60H29.4zM66.7 952.6v60h60v-60H95.1zM132.3 952.6v60h60v-60h-31.5zM198 952.6v60h60v-60h-31.6zM263.7 952.6v60h60v-60h-31.6zM329.3 952.6v60h60v-60h-31.5zM395 952.6v60h60v-60h-31.6zM460.7 952.6v60h60v-60h-31.6zM526.3 952.6v60h60v-60h-31.5zM592 952.6v60h60v-60h-31.6zM657.7 952.6v60h60v-60h-31.6zM723.3 952.6v60h60v-60h-31.5zM789 952.6v60h60v-60h-31.6zM854.7 952.6v60h60v-60h-31.6zM920.3 952.6v60h60v-60h-31.5zM986 952.6v60h60v-60h-31.6zM1051.7 952.6v60h60v-60h-31.6zM1117.3 952.6v60h60v-60h-31.5zM1183 952.6v60h60v-60h-31.6zM1248.7 952.6v60h60v-60h-31.6zM1314.3 952.6v60h60v-60h-31.5zM1380 952.6v60h60v-60h-31.6z"/><g><path class="st34" d="M1 1018.6v60h60v-60H29.4zM66.7 1018.6v60h60v-60H95.1zM132.3 1018.6v60h60v-60h-31.5zM198 1018.6v60h60v-60h-31.6zM263.7 1018.6v60h60v-60h-31.6zM329.3 1018.6v60h60v-60h-31.5zM395 1018.6v60h60v-60h-31.6zM460.7 1018.6v60h60v-60h-31.6zM526.3 1018.6v60h60v-60h-31.5zM592 1018.6v60h60v-60h-31.6zM657.7 1018.6v60h60v-60h-31.6zM723.3 1018.6v60h60v-60h-31.5zM789 1018.6v60h60v-60h-31.6zM854.7 1018.6v60h60v-60h-31.6zM920.3 1018.6v60h60v-60h-31.5zM986 1018.6v60h60v-60h-31.6zM1051.7 1018.6v60h60v-60h-31.6zM1117.3 1018.6v60h60v-60h-31.5zM1183 1018.6v60h60v-60h-31.6zM1248.7 1018.6v60h60v-60h-31.6zM1314.3 1018.6v60h60v-60h-31.5zM1380 1018.6v60h60v-60h-31.6z"/></g></g><g class="st15"><path class="st34" d="M1 1084.6v60h60v-60H29.4zM66.7 1084.6v60h60v-60H95.1zM132.3 1084.6v60h60v-60h-31.5zM198 1084.6v60h60v-60h-31.6zM263.7 1084.6v60h60v-60h-31.6zM329.3 1084.6v60h60v-60h-31.5zM395 1084.6v60h60v-60h-31.6zM460.7 1084.6v60h60v-60h-31.6zM526.3 1084.6v60h60v-60h-31.5zM592 1084.6v60h60v-60h-31.6zM657.7 1084.6v60h60v-60h-31.6zM723.3 1084.6v60h60v-60h-31.5zM789 1084.6v60h60v-60h-31.6zM854.7 1084.6v60h60v-60h-31.6zM920.3 1084.6v60h60v-60h-31.5zM986 1084.6v60h60v-60h-31.6zM1051.7 1084.6v60h60v-60h-31.6zM1117.3 1084.6v60h60v-60h-31.5zM1183 1084.6v60h60v-60h-31.6zM1248.7 1084.6v60h60v-60h-31.6zM1314.3 1084.6v60h60v-60h-31.5zM1380 1084.6v60h60v-60h-31.6z"/><g><path class="st34" d="M1 1150.6v60h60v-60H29.4zM66.7 1150.6v60h60v-60H95.1zM132.3 1150.6v60h60v-60h-31.5zM198 1150.6v60h60v-60h-31.6zM263.7 1150.6v60h60v-60h-31.6zM329.3 1150.6v60h60v-60h-31.5zM395 1150.6v60h60v-60h-31.6zM460.7 1150.6v60h60v-60h-31.6zM526.3 1150.6v60h60v-60h-31.5zM592 1150.6v60h60v-60h-31.6zM657.7 1150.6v60h60v-60h-31.6zM723.3 1150.6v60h60v-60h-31.5zM789 1150.6v60h60v-60h-31.6zM854.7 1150.6v60h60v-60h-31.6zM920.3 1150.6v60h60v-60h-31.5zM986 1150.6v60h60v-60h-31.6zM1051.7 1150.6v60h60v-60h-31.6zM1117.3 1150.6v60h60v-60h-31.5zM1183 1150.6v60h60v-60h-31.6zM1248.7 1150.6v60h60v-60h-31.6zM1314.3 1150.6v60h60v-60h-31.5zM1380 1150.6v60h60v-60h-31.6z"/></g></g><g class="st15"><path class="st34" d="M1 1216.6v60h60v-60H29.4zM66.7 1216.6v60h60v-60H95.1zM132.3 1216.6v60h60v-60h-31.5zM198 1216.6v60h60v-60h-31.6zM263.7 1216.6v60h60v-60h-31.6zM329.3 1216.6v60h60v-60h-31.5zM395 1216.6v60h60v-60h-31.6zM460.7 1216.6v60h60v-60h-31.6zM526.3 1216.6v60h60v-60h-31.5zM592 1216.6v60h60v-60h-31.6zM657.7 1216.6v60h60v-60h-31.6zM723.3 1216.6v60h60v-60h-31.5zM789 1216.6v60h60v-60h-31.6zM854.7 1216.6v60h60v-60h-31.6zM920.3 1216.6v60h60v-60h-31.5zM986 1216.6v60h60v-60h-31.6zM1051.7 1216.6v60h60v-60h-31.6zM1117.3 1216.6v60h60v-60h-31.5zM1183 1216.6v60h60v-60h-31.6zM1248.7 1216.6v60h60v-60h-31.6zM1314.3 1216.6v60h60v-60h-31.5zM1380 1216.6v60h60v-60h-31.6z"/><g><path class="st34" d="M1 1282.6v60h60v-60H29.4zM66.7 1282.6v60h60v-60H95.1zM132.3 1282.6v60h60v-60h-31.5zM198 1282.6v60h60v-60h-31.6zM263.7 1282.6v60h60v-60h-31.6zM329.3 1282.6v60h60v-60h-31.5zM395 1282.6v60h60v-60h-31.6zM460.7 1282.6v60h60v-60h-31.6zM526.3 1282.6v60h60v-60h-31.5zM592 1282.6v60h60v-60h-31.6zM657.7 1282.6v60h60v-60h-31.6zM723.3 1282.6v60h60v-60h-31.5zM789 1282.6v60h60v-60h-31.6zM854.7 1282.6v60h60v-60h-31.6zM920.3 1282.6v60h60v-60h-31.5zM986 1282.6v60h60v-60h-31.6zM1051.7 1282.6v60h60v-60h-31.6zM1117.3 1282.6v60h60v-60h-31.5zM1183 1282.6v60h60v-60h-31.6zM1248.7 1282.6v60h60v-60h-31.6zM1314.3 1282.6v60h60v-60h-31.5zM1380 1282.6v60h60v-60h-31.6z"/></g></g><g><path class="st2" d="M1053.7 891.5v119.3h-63.3s-1.2-22.9-1-51.3c.2-31 2-68.7 8.8-90.6 2.3-1.8 4.8-3.3 7.5-4.5 5.2-2.4 11-3.8 17.1-3.8 8.8 0 16.9 2.8 23.5 7.4 4.7 6.6 7.4 14.7 7.4 23.5z"/><path class="st22" d="M1039.6 955.1H1006l16.8-85z"/><path class="st35" d="M1063.7 901.5v34.3c0 10.3-3.8 19.6-10 26.8-7.5 8.6-18.6 14.1-30.9 14.1-6.1 0-11.9-1.3-17.1-3.8-6.5-3-12.1-7.7-16.3-13.5-4.8-6.7-7.5-14.8-7.5-23.7v-34.3c0-13.4 6.4-25.2 16.3-32.7 2.3-1.8 4.8-3.3 7.5-4.5 5.2-2.4 11-3.8 17.1-3.8 8.8 0 16.9 2.8 23.5 7.4 10.5 7.6 17.4 19.8 17.4 33.7z"/><path d="M1022.5 955.1v75.5" fill="none" stroke="#ad00ad" stroke-width="18.9939" stroke-linecap="round" stroke-miterlimit="10"/><path class="st25" d="M866.2 1063c-5.1-1.8-9.6-6.2-9.8-11.6-.2-6.4 5.6-11.4 11.4-14.2 11.7-5.7 25.1-6.8 38.1-7.5 39.5-2.3 80-2.9 117.8 8.7 3.9 1.2 7.8 2.6 10.6 5.5s3.7 7.9 1.2 11c-2.7 3.2-7.6 3-11.7 3.4-4.2.4-9.2 3.3-8.3 7.4.7 3.1 4.4 4.5 7.6 4.8 3.2.3 6.8.3 9.1 2.5 2.9 2.8 2.2 7.8-.5 10.8-2.6 3-6.6 4.4-10.4 5.6-14.8 4.6-30.1 7.8-45.6 9.4-8.1.9-16.3 1.3-24.4 1.3-5.4 0-15.5 1.5-19.7-2.4-1.9-1.8-3.2-4.2-5.2-5.9-3.4-3-8.3-3.6-12.8-3.2-4.5.4-8.9 1.6-13.4 1.8-3.1.1-6.3-.3-9-1.8-3.6-2.1-6.2-7.1-3.4-10.9 2.3-3.1 4.5-1.7 7.7-2.4 6.4-1.2 13.8-6.2 6.1-11.7-3.5-2.5-8.4-.6-12.4-.2-7.5.7-15.9 2.1-23-.4z"/><path class="st37" d="M979.9 1040.2c0 10.3 8.3 18.6 18.6 18.6 8 0 14.4-6.4 14.4-14.4v-13.8h19.2v41.9c0 2.7-2.1 4.8-4.8 4.8h-46.9c-10.1 0-18.6-7.8-19-17.9-.4-10.5 8-19.2 18.5-19.2z"/><path class="st38" d="M1012.9 1049.2h7.2c2.7 0 4.8-2.1 4.8-4.8 0-2.7-2.1-4.8-4.8-4.8h-7.2c-2.7 0-4.8 2.1-4.8 4.8 0 2.6 2.1 4.8 4.8 4.8z"/><path transform="matrix(-1 0 0 -1 2045.5693 1851.041)" class="st37" d="M981.9 915.3h81.9v20.5h-81.9z"/><path transform="matrix(-1 0 0 -1 1973.9418 1851.041)" class="st38" d="M981.9 915.3h10.2v20.5h-10.2z"/><path d="M1023.7 872.1c0 17.3-66.9 50.3-89.4 50.3" fill="none" stroke="#fff" stroke-width="18.9939" stroke-linecap="round" stroke-miterlimit="10"/><circle class="st40" cx="914.2" cy="918.6" r="20.5"/><path class="st41" d="M934.6 891.7c-5.3 0-9.6 4.3-9.6 9.6V936c0 5.3 4.3 9.6 9.6 9.6s9.6-4.3 9.6-9.6v-34.7c0-5.3-4.3-9.6-9.6-9.6z"/><circle class="st40" cx="1024.1" cy="819.5" r="40.9"/><path class="st42" d="M1035 834.6c1.2 5.8 7 9.5 12.8 8.3 5.8-1.2 9.5-7 8.3-12.8l-21.1 4.5z"/><path class="st43" d="M1039.4 842.6c-4.6 3.7-5.4 10.5-1.7 15.1s10.5 5.4 15.1 1.7l-13.4-16.8z"/><g><path class="st43" d="M1024.9 816.2c1.5-13.4 7.7-25.1 16.8-33.7 15.6 7.2 25.5 23.7 23.5 41.7-1.8 16.2-12.8 29.1-27.1 34.1-9.7-11.2-15-26.2-13.2-42.1z"/></g><g><path class="st37" d="M1000.9 800.6c-1.4 4.3.9 9 5.2 10.4 4.3 1.4 9-.9 10.4-5.2 1.4-4.3-.9-9-5.2-10.4-4.3-1.5-9 .9-10.4 5.2z"/><path class="st41" d="M983.8 812.2l24.6 8.3c-3.2 9.6-12 15.8-21.6 16.1-3.3-7.4-4.7-16-3-24.4z"/></g><g><path class="st35" d="M1065.6 833.3l29.2-60.5-76.4 6.2z"/><path class="st41" d="M1062.3 843.5c3.1 1 6.6.5 9.3-1.8 4-3.4 4.5-9.5 1-13.5l-48.2-56.3c-3.4-4-9.5-4.5-13.5-1-4 3.4-4.5 9.5-1 13.5l48.2 56.3c1.1 1.3 2.6 2.3 4.2 2.8z"/><circle class="st41" cx="1102.1" cy="766.9" r="9.6"/></g><path class="st40" d="M1017.8 817.8c1.3-2.6 3.4-4.4 5.9-5.3l26.8-9.3s-3.3 23.1-20 28.9c-2.5.9-5.4.8-7.9-.5-5.2-2.4-7.3-8.7-4.8-13.8z"/><path class="st41" d="M1063.7 901.5v119.3h-63.3s-18.6-160.3 22.3-160.2c22.7-.1 41 18.2 41 40.9z"/><path class="st41" d="M1063.7 901.5v119.3h-42.2V860.6c.4-.1.8-.1 1.2-.1 22.7 0 41 18.3 41 41z"/><path class="st41" d="M1014.9 856.2h29.2v15.7h-29.2z"/><path class="st40" d="M991.1 796.6l-33.9-1.3c-3.4-1.1-5 3.7-.1 5.3l36.9 12.2-2.9-16.2z"/></g></g><path class="st40" d="M-156.3 769.9v433h540v-433"/><g><path fill="#587e9c" d="M-156.3 739v53.2h540V739H128z"/><path class="st34" d="M-156.3 703.2v60.1h540v-60.1H128z"/><path d="M2.2 646.9c4.1 0 7.5-3.3 7.5-7.4v-64.1h-15v64.1c0 4.1 3.3 7.4 7.5 7.4z" fill="#e7f5f9"/><path class="st46" d="M2.2 663.4c14.1 0 25.6-11.5 25.6-25.6 0-11.8-8-22-19.3-24.9l-3.8-1v-31.6h-5V612l-3.8 1c-11.4 2.9-19.3 13.1-19.3 24.9 0 14 11.4 25.5 25.6 25.5z"/><path class="st47" d="M-23.4 637.8c0 14.1 11.5 25.6 25.6 25.6 14.1 0 25.6-11.5 25.6-25.6h-51.2z"/><path class="st41" d="M171 723.4h37.5c3.5 0 6.2-2.8 6.2-6.2V661h-50v56.2c.1 3.4 2.9 6.2 6.3 6.2z"/><path class="st47" d="M169.8 665.9v51.2c0 .7.6 1.2 1.2 1.2h37.5c.7 0 1.2-.6 1.2-1.2v-51.2h-39.9z"/><path class="st46" d="M169.8 665.9h40v34h-40z"/><path class="st41" d="M214.8 660.9h5l-5 10z"/><path class="st18" d="M-34.2 657.1H39c1.4 0 2.5-1.1 2.5-2.5s-1.1-2.5-2.5-2.5h-73.2c-1.4 0-2.5 1.1-2.5 2.5s1.1 2.5 2.5 2.5z"/><path transform="matrix(0 1 -1 0 716.7976 663.6938)" class="st18" d="M-6.6 687.7h66.2v5H-6.6z"/><path transform="matrix(0 1 -1 0 668.0476 712.4438)" class="st18" d="M-55.3 687.7h66.2v5h-66.2z"/><path class="st18" d="M-11.6 717.7c0 3.1 2.5 5.6 5.6 5.6h16.2c3.1 0 5.6-2.5 5.6-5.6 0-1.9-1-3.7-2.6-4.8l-8.1-5.2c-1.9-1.2-4.2-1.2-6.1 0l-8 5.3c-1.6 1-2.6 2.8-2.6 4.7z"/><path d="M2.2 703.2c7.3-9.8 0-22.9 0-22.9s-7.3 13.1 0 22.9z" fill="#fff173"/><g><path class="st46" d="M123.7 690.8v26.3c0 .7.6 1.2 1.2 1.2H146c.7 0 1.2-.6 1.2-1.2v-26.3-.5c-.2-4.3-2.8-8.3-6.7-10.2l-2.8-1.4V659h-4.5v19.7l-2.8 1.4c-1.2.6-2.3 1.4-3.2 2.3-2.1 2.1-3.3 4.9-3.4 7.9-.1.2-.1.4-.1.5z"/><path class="st46" d="M123.7 690.4h23.5c-.2-4.3-2.8-8.3-6.7-10.2l-2.8-1.4v-19.7h-4.5v19.7l-2.8 1.4c-1.2.6-2.3 1.4-3.2 2.3-2.1 2.1-3.4 4.9-3.5 7.9z"/></g><g><path class="st47" d="M77.5 678.3v38.8c0 .7.6 1.2 1.2 1.2h21.1c.7 0 1.2-.6 1.2-1.2v-38.8-.5c-.2-4.3-2.8-8.3-6.7-10.2l-2.8-1.4v-19.7H87v19.7l-2.8 1.4c-1.2.6-2.3 1.4-3.2 2.3-2.1 2.1-3.3 4.9-3.4 7.9-.1.2-.1.4-.1.5z"/><path class="st46" d="M77.5 677.9v9.1H101v-9.1c-.2-4.3-2.8-8.3-6.7-10.2l-2.8-1.4v-19.7H87v19.7l-2.8 1.4c-1.2.6-2.3 1.4-3.2 2.3-2.2 2.1-3.4 4.9-3.5 7.9z"/></g><g><path class="st49" d="M189.8 711.4v-92.6M189.8 618.8c0-10.4-8.4-18.8-18.8-18.8s-18.8 8.4-18.8 18.8-8.4 18.8-18.8 18.8-18.8-8.4-18.8-18.8S106.4 600 96 600s-18.8 8.4-18.8 18.8"/><path class="st49" d="M2.3 543.8c0-10.4 8.4-18.8 18.8-18.8s18.8 8.4 18.8 18.8v75c0 10.4 8.4 18.8 18.8 18.8s18.7-8.4 18.7-18.8"/></g><path class="st49" d="M2.3 543.8v105"/><g><path class="st21" d="M80.3 708.3c5.7 2.5 8.2 9.2 5.6 14.8-2.5 5.6-9.2 8.2-14.8 5.6-5.6-2.5-23.9-23-23.9-23s27.4.1 33.1 2.6z"/><path class="st22" d="M80.3 708.3c5.7 2.5 8.2 9.2 5.6 14.8l-38.7-17.4c0 .1 27.4.1 33.1 2.6z"/><path class="st50" d="M85.9 723.2l8.1 3.6"/><path class="st21" d="M48.9 725.5c6.2-.1 11.3 4.8 11.4 11 .1 6.2-4.8 11.3-11 11.4-6.2.1-31.4-10.7-31.4-10.7s24.8-11.6 31-11.7z"/><path class="st22" d="M48.9 725.5c6.2-.1 11.3 4.8 11.4 11l-42.4.7c-.1 0 24.8-11.6 31-11.7z"/><path class="st50" d="M60.3 736.6l8.9-.2"/></g><g><ellipse class="st51" cx="121.3" cy="745.7" rx="11.8" ry="8.3"/><defs><ellipse id="XMLID_16_" cx="121.3" cy="743.6" rx="11.8" ry="8.3"/></defs><use xlink:href="#XMLID_16_" overflow="visible" fill="#fff"/><clipPath id="XMLID_6_"><use xlink:href="#XMLID_16_" overflow="visible"/></clipPath><g clip-path="url(#XMLID_6_)"><path class="st41" d="M117.3 735.6c3 1.2 4.5 3.6 4 5.9 2.1-1.8 2.5-4.3.8-6.5-2.2-2.7-7.2-3.7-11.1-2.1-2.2.9-3.6 2.4-4 4 2.4-2.1 6.8-2.7 10.3-1.3z"/><path class="st41" d="M112 741c3-1.2 6.7-.9 9.2.5-1.2-2.2-4.1-3.7-7.6-3.7-4.5 0-8.1 2.5-8.1 5.7 0 1.8 1.2 3.4 3 4.4-1.4-2.6 0-5.5 3.5-6.9z"/><path class="st41" d="M116 746.8c0-2.4 2.2-4.5 5.3-5.3-3.2-.4-6.6.7-8.4 2.8-2.2 2.7-.9 6.2 3 7.8 2.2.9 4.7 1 6.9.4-3.9-.5-6.8-2.9-6.8-5.7z"/><path class="st41" d="M125.2 747.3c-3-1.2-4.5-3.6-4-5.9-2.1 1.8-2.5 4.3-.8 6.5 2.2 2.7 7.2 3.7 11.1 2.1 2.2-.9 3.6-2.4 4-4-2.4 2.1-6.8 2.7-10.3 1.3z"/><path class="st41" d="M130.5 742c-3 1.2-6.7.9-9.2-.5 1.2 2.2 4.1 3.7 7.6 3.7 4.5 0 8.1-2.5 8.1-5.7 0-1.8-1.2-3.4-3-4.4 1.4 2.5 0 5.5-3.5 6.9z"/><path class="st41" d="M126.5 736.2c0 2.4-2.2 4.5-5.3 5.3 3.2.4 6.6-.7 8.4-2.8 2.2-2.7.9-6.2-3-7.8-2.2-.9-4.7-1-6.9-.4 3.9.5 6.8 2.8 6.8 5.7z"/><path class="st53" d="M113.6 737.8c3.5 0 6.5 1.5 7.6 3.7.5-2.3-.9-4.6-4-5.9-3.9-1.6-8.9-.6-11.1 2.1-1.3 1.5-1.4 3.3-.6 4.9.7-2.7 4.1-4.8 8.1-4.8z"/><g><path class="st53" d="M112.9 744.3c1.7-2.1 5.1-3.1 8.4-2.8-2.5-1.5-6.2-1.7-9.2-.5-3.9 1.6-5.2 5.1-3 7.8 1.3 1.5 3.4 2.5 5.7 2.8-3-1.8-3.9-4.9-1.9-7.3z"/></g><g><path class="st53" d="M120.5 747.9c-1.7-2.1-1.3-4.7.8-6.5-3.1.8-5.3 2.9-5.3 5.3 0 3.1 3.6 5.7 8.1 5.7 2.5 0 4.8-.8 6.3-2.1-3.6 1.1-7.9.1-9.9-2.4z"/></g><g><path class="st53" d="M128.9 745.2c-3.5 0-6.5-1.5-7.6-3.7-.5 2.3.9 4.6 4 5.9 3.9 1.6 8.9.6 11.1-2.1 1.3-1.5 1.4-3.3.6-4.9-.7 2.7-4.1 4.8-8.1 4.8z"/></g><g><path class="st53" d="M129.6 738.7c-1.7 2.1-5.1 3.1-8.4 2.8 2.5 1.5 6.2 1.7 9.2.5 3.9-1.6 5.2-5.1 3-7.8-1.3-1.5-3.4-2.5-5.7-2.8 3.1 1.8 3.9 4.9 1.9 7.3z"/></g><g><path class="st53" d="M122 735c1.7 2.1 1.3 4.7-.8 6.5 3.1-.8 5.3-2.9 5.3-5.3 0-3.1-3.6-5.7-8.1-5.7-2.5 0-4.8.8-6.3 2.1 3.7-1 7.9 0 9.9 2.4z"/></g></g><path class="st51" d="M133.1 743.6c0 4.6-5.3 8.3-11.8 8.3-6.5 0-11.8-3.7-11.8-8.3 0-.8.2-1.6.5-2.4 1.5 3.4 6 5.9 11.3 5.9 5.4 0 9.9-2.5 11.3-5.9.3.8.5 1.6.5 2.4z"/><g><ellipse class="st51" cx="87.9" cy="744.6" rx="11.8" ry="8.3"/><defs><ellipse id="XMLID_15_" cx="87.9" cy="742.6" rx="11.8" ry="8.3"/></defs><use xlink:href="#XMLID_15_" overflow="visible" fill="#fff"/><clipPath id="XMLID_7_"><use xlink:href="#XMLID_15_" overflow="visible"/></clipPath><g clip-path="url(#XMLID_7_)"><path class="st41" d="M83.9 734.6c3 1.2 4.5 3.6 4 5.9 2.1-1.8 2.5-4.3.8-6.5-2.2-2.7-7.2-3.7-11.1-2.1-2.2.9-3.6 2.4-4 4 2.5-2.1 6.8-2.7 10.3-1.3z"/><path class="st41" d="M78.7 739.9c3-1.2 6.7-.9 9.2.5-1.2-2.2-4.1-3.7-7.6-3.7-4.5 0-8.1 2.5-8.1 5.7 0 1.8 1.2 3.4 3 4.4-1.4-2.5 0-5.5 3.5-6.9z"/><path class="st41" d="M82.6 745.8c0-2.4 2.2-4.5 5.3-5.3-3.2-.4-6.6.7-8.4 2.8-2.2 2.7-.9 6.2 3 7.8 2.2.9 4.7 1 6.9.4-3.8-.5-6.8-2.9-6.8-5.7z"/><path class="st41" d="M91.9 746.3c-3-1.2-4.5-3.6-4-5.9-2.1 1.8-2.5 4.3-.8 6.5 2.2 2.7 7.2 3.7 11.1 2.1 2.2-.9 3.6-2.4 4-4-2.4 2.1-6.8 2.7-10.3 1.3z"/><path class="st41" d="M97.1 741c-3 1.2-6.7.9-9.2-.5 1.2 2.2 4.1 3.7 7.6 3.7 4.5 0 8.1-2.5 8.1-5.7 0-1.8-1.2-3.4-3-4.4 1.5 2.5 0 5.5-3.5 6.9z"/><path class="st41" d="M93.2 735.1c0 2.4-2.2 4.5-5.3 5.3 3.2.4 6.6-.7 8.4-2.8 2.2-2.7.9-6.2-3-7.8-2.2-.9-4.7-1-6.9-.4 3.8.5 6.8 2.9 6.8 5.7z"/><path class="st53" d="M80.3 736.8c3.5 0 6.5 1.5 7.6 3.7.5-2.3-.9-4.6-4-5.9-3.9-1.6-8.9-.6-11.1 2.1-1.3 1.5-1.4 3.3-.6 4.9.7-2.8 4.1-4.8 8.1-4.8z"/><g><path class="st53" d="M79.5 743.2c1.7-2.1 5.1-3.1 8.4-2.8-2.5-1.5-6.2-1.7-9.2-.5-3.9 1.6-5.2 5.1-3 7.8 1.3 1.5 3.4 2.5 5.7 2.8-3-1.8-3.9-4.8-1.9-7.3z"/></g><g><path class="st53" d="M87.2 746.9c-1.7-2.1-1.3-4.7.8-6.5-3.1.8-5.3 2.9-5.3 5.3 0 3.1 3.6 5.7 8.1 5.7 2.5 0 4.8-.8 6.3-2.1-3.7 1.1-7.9.1-9.9-2.4z"/></g><g><path class="st53" d="M95.5 744.1c-3.5 0-6.5-1.5-7.6-3.7-.5 2.3.9 4.6 4 5.9 3.9 1.6 8.9.6 11.1-2.1 1.3-1.5 1.4-3.3.6-4.9-.7 2.8-4 4.8-8.1 4.8z"/></g><g><path class="st53" d="M96.3 737.7c-1.7 2.1-5.1 3.1-8.4 2.8 2.5 1.5 6.2 1.7 9.2.5 3.9-1.6 5.2-5.1 3-7.8-1.3-1.5-3.4-2.5-5.7-2.8 3 1.8 3.9 4.8 1.9 7.3z"/></g><g><path class="st53" d="M88.7 734c1.7 2.1 1.3 4.7-.8 6.5 3.1-.8 5.3-2.9 5.3-5.3 0-3.1-3.6-5.7-8.1-5.7-2.5 0-4.8.8-6.3 2.1 3.6-1.1 7.8-.1 9.9 2.4z"/></g></g><path class="st51" d="M99.7 742.6c0 4.6-5.3 8.3-11.8 8.3-6.5 0-11.8-3.7-11.8-8.3 0-.8.2-1.6.5-2.4 1.5 3.4 6 5.9 11.3 5.9 5.4 0 9.9-2.5 11.3-5.9.4.8.5 1.6.5 2.4z"/></g></g></g><path d="M767.5-28.5S731.3 7.1 734.9 76.8c3.6 69.7-62.9 96-62.9 96" fill="none" stroke="#505556" stroke-width="10" stroke-miterlimit="10"/><path fill="none" stroke="#00b4c9" stroke-width="24" stroke-miterlimit="10" d="M584.9 128.8l59 58.9"/><g><path d="M820 694.7c-42.7-55.5-97.5-33-122.7-13.6" fill="none" stroke="#f4fdff" stroke-width="20.6955" stroke-linecap="round" stroke-miterlimit="10"/><circle cx="682.7" cy="692.3" r="18.4" fill="#fadcbc"/><path class="st41" d="M713.6 688.2l-19-24.7c-2.9-3.8-8.3-4.5-12.1-1.6-3.8 2.9-4.5 8.3-1.6 12.1l19 24.7c2.9 3.8 8.3 4.5 12.1 1.6 3.8-2.9 4.5-8.3 1.6-12.1z"/><path d="M820 694.7c42.7 55.5 6.3 112.3-4.2 57.9" fill="none" stroke="#fff" stroke-width="20.6955" stroke-linecap="round" stroke-miterlimit="10"/><ellipse transform="matrix(.7929 -.6094 .6094 .7929 -284.5144 622.942)" class="st60" cx="774.1" cy="730" rx="68.2" ry="57"/><path class="st60" d="M748.6 772.2l-21.8-28.4 93.2-49.1z"/><path class="st37" d="M808.9 775.2c-3.1 2.4-6.3 4.7-9.4 6.8l-69-89.8c2.8-2.5 5.8-4.9 8.9-7.3 1.8-1.4 3.7-2.8 5.5-4.1l69.3 90.2c-1.7 1.4-3.5 2.8-5.3 4.2z"/><path transform="matrix(-.6094 -.7929 .7929 -.6094 662.887 1789.4813)" class="st38" d="M763 722.3h18.4v18.4H763z"/><path class="st61" d="M748.6 772.2c-15.4 11.9-56 43.1-75.7 58.2"/><path class="st37" d="M693.2 874.6c-9.1 7-22.2 5.3-29.3-3.8-5.4-7.1-4.1-17.2 3-22.7l12.3-9.4-12.6-16.4-37.4 28.7c-2.4 1.8-2.8 5.2-1 7.6l31.6 41.1c6.9 9 19.7 11.2 28.9 4.7 9.7-7 11.7-20.5 4.5-29.8z"/><path class="st38" d="M662.6 851.4l-4.9-6.4c-1.8-2.4-1.4-5.7 1-7.6s5.7-1.4 7.6 1l4.9 6.4c1.8 2.4 1.4 5.7-1 7.6-2.4 1.8-5.8 1.3-7.6-1z"/><path class="st61" d="M726.8 743.8c-15.4 11.9-56 43.1-75.7 58.2"/><path class="st37" d="M613.6 771c-9.1 7-10.8 20.1-3.8 29.3 5.4 7.1 15.6 8.4 22.7 3l12.3-9.4 12.6 16.4-37.4 28.6c-2.4 1.8-5.7 1.4-7.6-1l-31.6-41.1c-6.9-9-5.8-22 2.9-29.2 9.2-7.5 22.7-5.9 29.9 3.4z"/><path class="st38" d="M628.2 806.5l4.9 6.4c1.8 2.4 5.2 2.8 7.6 1 2.4-1.8 2.8-5.2 1-7.6l-4.9-6.4c-1.8-2.4-5.2-2.8-7.6-1-2.4 1.9-2.8 5.3-1 7.6z"/><path class="st42" d="M893.7 679.1c5 2.1 8.9 6.6 10.6 12s.9 11.7-1.9 16.7c-3.7 6.4-10.3 10.3-14.5 16.3-6.2 9.1-5.4 22.9 1.9 30.7-9.5 2.6-19-.7-25.7-8.2-10.4-11.8-13-30.8-6.3-45.7 6.7-14.8 21.7-27.7 35.9-21.8z"/><circle class="st41" cx="942.9" cy="600.3" r="12.8"/><path class="st60" d="M852.1 623.7l80.7-15.6L897 682z"/><path class="st41" d="M848 629c2.8 3.6 7.7 5.2 12.3 3.5 10.7-3.9 22.6-.5 29.6 8.6s7.2 21.4.7 30.8c-3.4 4.9-2.2 11.6 2.6 15 4.9 3.4 11.6 2.2 15-2.6 12-17.1 11.5-39.7-1.2-56.3-12.7-16.6-34.5-22.9-54.1-15.7-5.6 2.1-8.5 8.2-6.4 13.8.3 1.1.8 2 1.5 2.9z"/><path class="st42" d="M889.5 701.7c21-16.1 24.9-46.1 8.8-67.1-16.1-21-46.1-24.9-67.1-8.8l58.3 75.9z"/><path class="st62" d="M851 609.5l-3.5 26.4c-.3 2.5-1.6 4.8-3.7 6.5-4.3 3.3-10.4 2.5-13.6-1.8-1.6-2.1-2.3-4.7-1.9-7.2 2.1-16.5 22.7-23.9 22.7-23.9zM884 683.3l26.4 3.5s-12.4 18-28.9 15.8c-2.5-.3-4.8-1.6-6.5-3.7-3.3-4.3-2.5-10.4 1.8-13.6 2.1-1.7 4.7-2.3 7.2-2z"/><circle class="st41" cx="832.8" cy="630.8" r="2"/><circle class="st41" cx="885.1" cy="698.9" r="2"/><circle class="st62" cx="860.3" cy="663.8" r="40.5"/><path class="st37" d="M875.7 660.1c-3.2 2.5-3.9 7.2-1.4 10.4 2.5 3.3 7.2 3.9 10.4 1.4s3.9-7.2 1.4-10.4c-2.5-3.3-7.2-3.9-10.4-1.4zM857.6 636.6c-3.2 2.5-3.9 7.2-1.4 10.4 2.5 3.3 7.2 3.9 10.4 1.4s3.9-7.2 1.4-10.4c-2.5-3.3-7.2-3.9-10.4-1.4z"/><circle class="st62" cx="871.6" cy="673.9" r="10.5"/><path class="st63" d="M860 693.2l-5-19.6 9.8-2.5c5.4-1.4 10.9 1.9 12.3 7.3 1.4 5.4-1.9 10.9-7.3 12.3l-9.8 2.5z"/><path fill="none" stroke="#c945cb" stroke-width="3" stroke-miterlimit="10" d="M857.8 683.2l11.4-1.9"/><circle class="st62" cx="854.7" cy="650.9" r="10.5"/><circle class="st42" cx="892.4" cy="639.1" r="16"/><path class="st41" d="M837.7 703.8l-105.3 80.9c24.8 20.6 50.9 10.2 76.5-9.5 25.5-19.7 42.3-42.2 28.8-71.4zM739.4 684.8c-25.6 19.7-42.3 42.2-28.8 71.5l105.3-80.9c-24.8-20.6-50.9-10.3-76.5 9.4z"/><path transform="matrix(-.6094 -.7929 .7929 -.6094 577.5476 1875.101)" class="st41" d="M731.1 736.9h39.1v116.8h-39.1z"/><path transform="matrix(-.6094 -.7929 .7929 -.6094 551.1689 1743.2981)" class="st41" d="M685.5 677.5h39.1v116.8h-39.1z"/><path class="st37" d="M461 702c-1.5 8.7-1.5 17.3-.4 25.6.4 3.4 1.1 7.2 3 10.2 1.9 3 5.7 4.9 9.1 3.8 3.4-1.1 4.9-6 2.3-8.3-1.5 6.8 3 14.7 9.8 16.6 6.8 2.3 14.7-1.5 17.7-7.9 1.5 4.1 5.7 7.5 10.6 7.2 4.5 0 8.7-3.4 9.8-7.9 3.4 6.8 13.2 9.4 19.2 4.9s7.2-14.7 1.9-20c1.1 1.1 6-10.2 6-11.3.8-4.5-.4-8.7-.4-13.2 0-24.5-19.6-44.1-44.1-44.1-27.6.7-40.8 21.4-44.5 44.4z"/><path class="st37" d="M536 738.6c-3.8-3.8-6.4-8.3-7.5-12.8-2.3-7.9 5.3-15.8 13.2-13.2 4.5 1.5 9.1 4.1 12.8 7.5 3.8 3.4 6.4 8.3 7.5 12.8 2.3 7.9-5.3 15.8-13.2 13.2-4.9-1.5-9.4-4.1-12.8-7.5zM475.3 728c.8-1.9 1.1-4.1 1.9-6 4.9-20.7-1.1-59.2-24.1-7.9-.8 1.9-1.5 3.8-2.3 6-.8 1.9-1.1 3.4-1.5 5.3-5.3 21.9 15.5 29 24.1 7.9.8-1.9 1.2-3.4 1.9-5.3z"/><path class="st37" d="M488.1 735.2c.8-1.9 1.1-4.1 1.9-6 4.9-20.7-15.5-27.5-24.1-7.9-.8 1.9-1.5 3.8-2.3 6-.8 1.9-1.1 3.4-1.5 5.3-5.3 21.9 15.5 29 24.1 7.9.8-1.9 1.6-3.4 1.9-5.3z"/><path transform="rotate(180 502.58109998 740.47935001)" fill="#b9bdc3" d="M479.6 732.6h46v15.7h-46z"/><path transform="matrix(-1 0 0 -1 1042.3625 1486.119)" class="st66" d="M515.2 732.6h11.9v20.8h-11.9z"/><path class="st67" d="M517.6 841.6V913"/><path d="M561.5 922.9c0 10.6-8.6 19.2-19.2 19.2-8.2 0-14.9-6.6-14.9-14.9v-14.3h-19.8v43.4c0 2.8 2.2 5 5 5h48.5c10.4 0 19.3-8.1 19.7-18.5.2-10.9-8.5-19.9-19.3-19.9z" fill="#231f20"/><path class="st69" d="M527.5 932.2h-7.4c-2.8 0-5-2.2-5-5s2.2-5 5-5h7.4c2.8 0 5 2.2 5 5 0 2.7-2.3 5-5 5z"/><path class="st67" d="M482.8 841.6v84.6"/><path class="st37" d="M526.8 936.1c0 10.6-8.6 19.2-19.2 19.2-8.2 0-14.9-6.6-14.9-14.9v-14.3h-19.8v43.4c0 2.8 2.2 5 5 5h48.5c10.4 0 19.3-8.1 19.7-18.5.3-10.9-8.4-19.9-19.3-19.9z"/><path class="st69" d="M492.7 945.4h-7.4c-2.8 0-5-2.2-5-5s2.2-5 5-5h7.4c2.8 0 5 2.2 5 5 .1 2.7-2.2 5-5 5z"/><path d="M517.6 841.6h-34.8l17.4-87.8 17.4 87.8z" fill="#00acc1"/><path class="st63" d="M458 786.2v35.4c0 21.8 16.4 39.7 37.5 42 1.6.2 3.2.3 4.8.3 22.3 0 40.5-17.2 42.2-39 .1-1.1.1-2.1.1-3.2v-35.4c0-23.4-18.9-42.3-42.3-42.3-4.5 0-8.9.7-12.9 2-17.1 5.4-29.4 21.4-29.4 40.2z"/><path d="M487.9 755.2c-9.7 2.2-20 8.8-20.2 19.9" fill="none" stroke="#fff" stroke-width="19.8269" stroke-miterlimit="10"/><path class="st72" d="M542.4 821.7c0 23.4-18.9 42.3-42.3 42.3s-42.3-18.9-42.3-42.3h84.6z"/><path class="st72" d="M457.8 883.9h84.9l-.3-59v-3.2h-84.6z"/><path class="st41" d="M457.8 891.6h37.7V746h-8.1c-17 5.5-29.4 21.4-29.4 40.3v35.4h-.1l-.1 69.9z"/><path class="st66" d="M544.8 891.6h-29.4V746h-.2c17 5.5 29.4 21.4 29.4 40.3v35.4h.1l.1 69.9z"/><path class="st41" d="M486.1 599.3c-8.1 0-14.7-6.6-14.7-14.7s6.6-14.7 14.7-14.7 14.7 6.6 14.7 14.7c0 8.2-6.6 14.7-14.7 14.7z"/><path class="st63" d="M463.9 690l25.1-90.9 57.9 74.5-83 16.4z"/><path class="st41" d="M469.7 709.7c5.2-1.1 9.3-5.3 9.9-10.8 1.5-13.1 11-23.5 23.9-26 13-2.5 25.8 3.4 32.1 15.1 3.3 5.9 10.8 8.2 16.8 5 5.9-3.3 8.2-10.8 5-16.8-11.5-21.1-35-32.1-58.7-27.5-23.5 4.6-41.2 23.8-43.7 47.7-.8 6.7 4.2 13 11 13.6 1.4.1 2.5 0 3.7-.3z"/><path class="st73" d="M466 664.4l17.4 25.1c1.6 2.4 2.4 5.3 1.9 8.3-1.1 6.1-6.9 10.2-13 9-3-.5-5.6-2.2-7.3-4.6-10.9-15.6 1-37.8 1-37.8zM538.2 699.3l25.1-17.4s3.4 25-12.3 35.8c-2.4 1.6-5.3 2.4-8.3 1.9-6.1-1.1-10.2-6.9-9-13 .4-3.2 2.1-5.7 4.5-7.3z"/><path class="st73" d="M509.4 744.5c-23.4 0-42.3-18.9-42.3-42.3s18.9-42.3 42.3-42.3 42.3 18.9 42.3 42.3c0 23.3-18.9 42.3-42.3 42.3z"/><path transform="matrix(-1 0 0 -1 974.9562 1480.9587)" class="st41" d="M479.6 732.6h15.8v15.7h-15.8z"/><path class="st37" d="M514.3 675.2c-8.7-1.6-16.4-5.7-22.2-11.5 7.5-3.4 16.1-4.6 24.8-3 8.7 1.6 16.4 5.7 22.2 11.5-7.5 3.3-16.1 4.5-24.8 3zM526.4 692.9c-.8 4.6 2.2 9.1 6.9 9.9 4.6.8 9.1-2.2 9.9-6.9.8-4.6-2.2-9.1-6.9-9.9-4.6-.9-9.1 2.3-9.9 6.9zM492.9 686.8c-.8 4.6 2.2 9.1 6.9 9.9 4.6.8 9.1-2.2 9.9-6.9.8-4.6-2.2-9.1-6.9-9.9-4.6-.7-9.1 2.3-9.9 6.9z"/><path class="st41" d="M487.5 702.2c-2.7 15.2 7.4 29.8 22.7 32.5 15.2 2.7 29.8-7.4 32.5-22.7l-55.2-9.8z"/><path class="st75" d="M601.3 735l-7.4 13.9h-25.4l7.3-13.9h25.5z"/><path class="st75" d="M589.2 739.8c-2.7 0-4.9-2.2-4.9-4.9s2.2-4.9 4.9-4.9 4.9 2.2 4.9 4.9c0 2.8-2.2 4.9-4.9 4.9z"/><path d="M585.5 735l-7.4 13.9h-9.6l7.3-13.9h9.7z" opacity=".1" fill="#fff"/><path class="st41" d="M519.3 761.2l2.9-1.5 13 25.3-2.9 1.5-13-25.3z"/><path class="st2" d="M516.3 755.5l3.9-2 5.1 9.9-3.9 2-5.1-9.9z"/><path class="st2" d="M524.6 759.1l5.2 10.1-1.3.7-5.2-10.1 1.3-.7z"/><path d="M468.5 777.2c0 11.8 13 23.7 37.1 20.8" fill="#b9bdc3" stroke="#d8dde2" stroke-width="20.669" stroke-linecap="round" stroke-miterlimit="10"/><path d="M467.8 775c0 11.8 13 23.7 37.1 20.8" fill="none" stroke="#fff" stroke-width="19.8269" stroke-linecap="round" stroke-miterlimit="10"/><path class="st73" d="M525.9 814.1c-11.7 0-21.1-9.5-21.1-21.1 0-11.7 9.5-21.1 21.1-21.1S547 781.4 547 793c.1 11.7-9.4 21.1-21.1 21.1z"/><path class="st41" d="M501.3 768.3c5.4-.7 10.4 3 11.1 8.5l4.8 35.6c.7 5.4-3 10.4-8.5 11.1-5.4.7-10.4-3-11.1-8.5l-4.8-35.6c-.7-5.5 3.1-10.5 8.5-11.1z"/><path d="M570.5 822.7h-57.2l42.7-81.6h57.2l-42.7 81.6z" fill="#fbbd13"/><path d="M570.5 822.7h-12.2l42.7-81.6h12.2l-42.7 81.6z" opacity=".1" fill="#010101"/><path class="st73" d="M584.3 820.5c-11.7 0-21.1-9.5-21.1-21.1 0-11.7 9.5-21.1 21.1-21.1 11.7 0 21.1 9.5 21.1 21.1.1 11.6-9.4 21.1-21.1 21.1z"/><linearGradient id="SVGID_3_" gradientUnits="userSpaceOnUse" x1="492.6068" y1="597.7727" x2="519.0052" y2="597.7727" gradientTransform="rotate(180 523.8394 651)"><stop offset="0" stop-color="#aee0ef"/><stop offset="1" stop-color="#5fcae3"/></linearGradient><path d="M542.1 717.4c-7.3 0-13.2-5.9-13.2-13.2s5.9-13.2 13.2-13.2 13.2 5.9 13.2 13.2-6 13.2-13.2 13.2z" opacity=".5" fill="url(#SVGID_3_)"/><linearGradient id="SVGID_4_" gradientUnits="userSpaceOnUse" x1="527.6658" y1="604.1826" x2="554.0643" y2="604.1826" gradientTransform="rotate(180 523.8394 651)"><stop offset="0" stop-color="#aee0ef"/><stop offset="1" stop-color="#5fcae3"/></linearGradient><path d="M507 711c-7.3 0-13.2-5.9-13.2-13.2 0-7.3 5.9-13.2 13.2-13.2s13.2 5.9 13.2 13.2c0 7.3-5.9 13.2-13.2 13.2z" opacity=".5" fill="url(#SVGID_4_)"/><path class="st83" d="M532.2 702s-5.3-8.7-15.5-3M493.8 695.6l-21.1-20.4"/><path d="M717.4-39.3c-32 58.7-4.4 256.4-10 232.5" fill="none" stroke="#5c01e4" stroke-width="36" stroke-miterlimit="10"/><g><path class="st85" d="M717.4-39.3c-.8 1.4-1.5 2.9-2.2 4.5"/><path d="M711.1-23.7c-17.4 57.7-5.9 177-3.4 210.2" fill="none" stroke="#952b90" stroke-width="34" stroke-miterlimit="10" stroke-dasharray="9.865,11.838"/><path class="st85" d="M708.1 192.4c.2 3.3 0 3.9-.7.8"/></g><path class="st17" d="M669.5 115.3h75v52.2h-75z"/><path class="st26" d="M660.4 125.3h93.2v52.2h-93.2z"/><path class="st27" d="M661 125.3h20v52.2h-20z"/><path transform="rotate(41.132 794.65144397 170.38784377)" class="st17" d="M766.5 150.8h56.2v39.1h-56.2z"/><path class="st27" d="M828.9 184.3l-25.8 29.4-27-23.6-25.6-22.3 25.7-29.5 25.7 22.4z"/><path transform="rotate(-48.868 802.44369553 187.2051681)" class="st26" d="M782.9 169.3H822v35.9h-39.1z"/><path class="st27" d="M844.2 283.6H570.6c.5-75.2 61.5-135.9 136.8-135.9 18.8 0 36.6 3.8 52.9 10.6 49 20.6 83.5 68.9 83.9 125.3zM912.6 1183.8H502.1c.3-48.3 17.3-92.7 45.5-127.6 17.2-21.3 38.7-39.2 63.1-52.2 28.8-15.4 61.7-24.1 96.6-24.1 28.1 0 54.9 5.7 79.4 15.9 5.9 2.5 11.6 5.2 17.2 8.2 24.4 13 45.8 30.8 63.1 52.2 28.3 34.9 45.3 79.3 45.6 127.6z"/><path class="st26" d="M912.6 1183.8h-211V980c1.9 0 3.8-.1 5.8-.1 28.1 0 54.9 5.7 79.4 15.9 73.5 30.9 125.3 103.3 125.8 188zM707 146c37.6 0 71.7 15.2 96.5 39.8 24.7 24.6 40.1 58.6 40.4 96.1H707"/><g><path fill="none" stroke="#3f80c2" stroke-width="12" stroke-linecap="round" stroke-linejoin="round" stroke-miterlimit="10" d="M909.5 467.9V523"/><path transform="rotate(-90 879.4368 523.1305)" class="st47" d="M862 502.1h34.9v42.1H862z"/><path transform="rotate(-90 879.4368 509.4131)" class="st41" d="M875.7 488.4h7.5v42.1h-7.5z"/><path transform="rotate(-180 909.5025 554.59765)" class="st47" d="M892 533.6h34.9v42.1H892z"/><path class="st41" d="M891.2 575.6h36.7c3.3 0 6 2.7 6 6s-2.7 6-6 6h-36.7c-3.3 0-6-2.7-6-6-.1-3.3 2.6-6 6-6zM891.2 460.8h36.7c3.3 0 6 2.7 6 6s-2.7 6-6 6h-36.7c-3.3 0-6-2.7-6-6-.1-3.3 2.6-6 6-6z"/><path transform="rotate(-180 895.78505 554.59765)" class="st41" d="M892 533.6h7.5v42.1H892z"/><circle class="st47" cx="909.5" cy="523" r="21.4"/><path transform="rotate(90 849.2933 523.1305)" class="st17" d="M821.2 498.6h56.2v49.1h-56.2z"/><path transform="rotate(90 841.7933 523.1305)" class="st26" d="M806.9 498.6h69.9v49.1h-69.9z"/><path transform="rotate(90 841.7933 496.1305)" class="st27" d="M834.3 471.6h15v49.1h-15z"/><path transform="rotate(90 850.5402 392.7592)" class="st47" d="M827.3 364.7h46.6v56.1h-46.6z"/><path class="st41" d="M878.6 417.2v-48.9c0-4.4 3.6-8 8-8s8 3.6 8 8v48.9c0 4.4-3.6 8-8 8-4.4.1-8-3.5-8-8z"/><path transform="rotate(90 850.5402 374.7592)" class="st41" d="M845.5 346.7h10v56.1h-10z"/><g><circle class="st88" cx="892.4" cy="392.5" r="14.3"/><circle class="st88" cx="959.1" cy="392.5" r="26.9"/><circle class="st88" cx="922.1" cy="392.8" r="20.1"/></g></g><path class="st47" d="M581.8 300.4h245.1v684H581.8z"/><path class="st25" d="M591.8 963.9v-644c0-5.5 4.5-10 10-10h205.1c5.5 0 10 4.5 10 10v644c0 5.5-4.5 10-10 10H601.8c-5.6 0-10-4.5-10-10z"/><path class="st47" d="M591.8 963.9c0 5.5 4.5 10 10 10h205.1c5.5 0 10-4.5 10-10v-644l-225.1 644z"/><g><path class="st41" d="M652.2 903.2l53.1 12 95.3-423.3c11.5-51.2-20.7-102.2-71.9-113.7S626.5 398.9 615 450.1l-11.1 49.4 53.1 12 11-49.5c4.9-21.9 26.8-35.7 48.7-30.8 21.9 4.9 35.7 26.8 30.8 48.7l-95.3 423.3z"/><defs><path id="SVGID_5_" d="M652.2 903.2l53.1 12 95.3-423.3c11.5-51.2-20.7-102.2-71.9-113.7S626.5 398.9 615 450.1l-11.1 49.4 53.1 12 11-49.5c4.9-21.9 26.8-35.7 48.7-30.8 21.9 4.9 35.7 26.8 30.8 48.7l-95.3 423.3z"/></defs><clipPath id="SVGID_6_"><use xlink:href="#SVGID_5_" overflow="visible"/></clipPath><g clip-path="url(#SVGID_6_)"><path class="st90" d="M844.9 477.5l-223.5-162M834.7 522.9L611.2 360.8M824.5 568.3L600.9 406.2M814.3 613.6L590.7 451.5M804.1 659L580.5 496.9M793.9 704.3l-223.6-162M783.6 749.7L560.1 587.6M773.4 795.1L549.9 633M763.2 840.4L539.7 678.3M753 885.8L529.5 723.7M742.8 931.1l-223.5-162M732.6 976.5L509 814.4M722.4 1021.9L498.8 859.8"/></g></g><circle class="st32" cx="764.2" cy="343" r="11.2"/><circle class="st47" cx="828.9" cy="138.3" r="8.4"/><circle class="st47" cx="935.8" cy="94.5" r="8.4"/><circle class="st32" cx="957.2" cy="80.6" r="8.4"/><circle class="st32" cx="711.6" cy="347" r="7.3"/><circle class="st32" cx="711.6" cy="491.1" r="7.3"/><circle class="st32" cx="786.8" cy="736.5" r="11.2"/><path class="st25" d="M920.7 668.2c0 6.2-5 11.2-11.2 11.2-6.2 0-11.2-5-11.2-11.2 0-6.2 11.2-41.2 11.2-41.2s11.2 35 11.2 41.2zM920.7 828.2c0 6.2-5 11.2-11.2 11.2-6.2 0-11.2-5-11.2-11.2 0-6.2 11.2-41.2 11.2-41.2s11.2 35 11.2 41.2zM905.5 762.8c0-2.2 1.8-3.9 3.9-3.9 2.2 0 3.9 1.8 3.9 3.9s-3.9 14.4-3.9 14.4-3.9-12.2-3.9-14.4zM935.2 784.6c2.2 0 3.9 1.8 3.9 3.9s-1.8 3.9-3.9 3.9c-2.2 0-14.4-3.9-14.4-3.9s12.3-3.9 14.4-3.9zM883.7 792.5c-2.2 0-3.9-1.8-3.9-3.9s1.8-3.9 3.9-3.9c2.2 0 14.4 3.9 14.4 3.9s-12.2 3.9-14.4 3.9z"/><circle class="st47" cx="694.2" cy="558.1" r="11.2"/><g><path class="st21" d="M774.4 653.8c3.1 5.3 1.4 12.2-4 15.4-5.3 3.1-12.2 1.4-15.4-4-3.1-5.3-6.2-32.6-6.2-32.6s22.5 15.9 25.6 21.2z"/><path class="st22" d="M774.4 653.8c3.1 5.3 1.4 12.2-4 15.4l-21.5-36.6s22.4 15.9 25.5 21.2z"/><path class="st50" d="M770.5 669.1l4.5 7.7"/><path class="st21" d="M634 821.9c-5 3.7-12 2.6-15.7-2.3-3.7-5-2.6-12 2.3-15.7 5-3.7 31.8-9.6 31.8-9.6S639 818.2 634 821.9z"/><path class="st22" d="M634 821.9c-5 3.7-12 2.6-15.7-2.3l34.1-25.3S639 818.2 634 821.9z"/><path class="st50" d="M618.3 819.6l-7.1 5.3"/><path class="st21" d="M697.2 931.2c5.9 1.9 9.1 8.2 7.2 14.1-1.9 5.9-8.2 9.1-14.1 7.2-5.9-1.9-26.3-20.3-26.3-20.3s27.3-2.9 33.2-1z"/><path class="st22" d="M697.2 931.2c5.9 1.9 9.1 8.2 7.2 14.1L664 932.2c.1.1 27.3-2.9 33.2-1z"/><path class="st50" d="M704.4 945.3l8.5 2.8"/><path class="st21" d="M770 409.6c-5 3.7-12 2.7-15.7-2.3-3.7-5-2.7-12 2.3-15.7 5-3.7 31.7-9.6 31.7-9.6S775 405.9 770 409.6z"/><path class="st22" d="M770 409.6c-5 3.7-12 2.7-15.7-2.3l34-25.3c.1 0-13.3 23.9-18.3 27.6z"/><path class="st50" d="M754.3 407.3l-7.1 5.3"/><g><path class="st47" d="M675.2 339.1c5.4 3 7.4 9.8 4.3 15.3-3 5.4-9.8 7.4-15.3 4.3-5.4-3-21.8-25-21.8-25s27.4 2.4 32.8 5.4z"/><path class="st47" d="M675.2 339.1c5.4 3 7.4 9.8 4.3 15.3l-37.1-20.6c.1 0 27.4 2.3 32.8 5.3z"/><path fill="none" stroke="#ee3c39" stroke-width="3" stroke-miterlimit="10" d="M679.6 354.4l7.8 4.3"/></g><g><path class="st25" d="M797.1 790c5.4 3 7.4 9.8 4.3 15.3-3 5.4-9.8 7.4-15.3 4.3-5.4-3-21.8-25-21.8-25s27.4 2.4 32.8 5.4z"/><path class="st25" d="M797.1 790c5.4 3 7.4 9.8 4.3 15.3l-37.1-20.6c.1-.1 27.4 2.3 32.8 5.3z"/><path fill="none" stroke="#ee6262" stroke-width="3" stroke-miterlimit="10" d="M801.4 805.3l7.8 4.3"/></g></g><circle class="st47" cx="612.3" cy="368.9" r="11.2"/><circle class="st32" cx="612.3" cy="667.7" r="11.2"/><path class="st26" d="M551.3 248.3h306v52.2h-306z"/><path class="st24" d="M878.8 283.9h5.2c9 0 16.3-7.3 16.3-16.3s-7.3-16.3-16.3-16.3h-5.2c-9 0-16.3 7.3-16.3 16.3s7.3 16.3 16.3 16.3z"/><path class="st25" d="M879.4 280h4c6.9 0 12.5-5.6 12.5-12.5s-5.6-12.5-12.5-12.5h-4c-6.9 0-12.5 5.6-12.5 12.5.1 6.9 5.7 12.5 12.5 12.5z"/><path transform="rotate(90 863.58810003 268.23530005)" class="st17" d="M842.5 249.8h42.2v36.8h-42.2z"/><path transform="rotate(90 857.96310003 268.23530005)" class="st26" d="M831.8 249.8h52.4v36.8h-52.4z"/><path transform="rotate(90 857.96310003 247.98530005)" class="st27" d="M852.3 229.6h11.2v36.8h-11.2z"/><path class="st27" d="M551.3 238.3h306v52.2h-306z"/><g><path class="st26" d="M687.8 188.1H726v6.5h-38.2zM687.8 198.1H726v6.5h-38.2zM687.8 208.1H726v6.5h-38.2z"/><path class="st17" d="M707 188.1h19.1v6.5H707zM707 198.1h19.1v6.5H707zM707 208.1h19.1v6.5H707z"/></g><g><defs><circle id="SVGID_7_" cx="773.9" cy="915.2" r="32.1"/></defs><use xlink:href="#SVGID_7_" overflow="visible" fill="#b8ebf4"/><clipPath id="SVGID_8_"><use xlink:href="#SVGID_7_" overflow="visible"/></clipPath><circle cx="773.9" cy="915.1" r="27.9" clip-path="url(#SVGID_8_)" fill="#fff"/><g clip-path="url(#SVGID_8_)"><path class="st53" d="M742.2 918c8.6-8.6 22-9.7 31.7-3.1-.9-1.3-1.9-2.6-3.1-3.8-9.8-9.8-25.7-9.8-35.5 0s-9.8 25.7 0 35.5c1.2 1.2 2.4 2.2 3.8 3.1-6.6-9.7-5.5-23 3.1-31.7zM805.6 912.1c8.6-8.6 9.7-22 3.1-31.7 1.3.9 2.6 1.9 3.8 3.1 9.8 9.8 9.8 25.7 0 35.5s-25.7 9.8-35.5 0c-1.2-1.2-2.2-2.4-3.1-3.8 9.7 6.6 23.1 5.5 31.7-3.1z"/><path class="st53" d="M749.4 894.8c12.2 0 22.4 8.7 24.6 20.2.3-1.6.5-3.2.5-4.9 0-13.9-11.2-25.1-25.1-25.1s-25.1 11.2-25.1 25.1c0 1.7.2 3.3.5 4.9 2.2-11.5 12.4-20.2 24.6-20.2zM798.4 935.4c12.2 0 22.4-8.7 24.6-20.2.3 1.6.5 3.2.5 4.9 0 13.9-11.2 25.1-25.1 25.1-13.9 0-25.1-11.2-25.1-25.1 0-1.7.2-3.3.5-4.9 2.3 11.5 12.4 20.2 24.6 20.2z"/><g><path class="st53" d="M770.9 883.4c8.6 8.6 9.7 22 3.1 31.7 1.3-.9 2.6-1.9 3.8-3.1 9.8-9.8 9.8-25.7 0-35.5s-25.7-9.8-35.5 0c-1.2 1.2-2.2 2.4-3.1 3.8 9.7-6.6 23.1-5.6 31.7 3.1zM776.9 946.8c8.6 8.6 22 9.7 31.7 3.1-.9 1.3-1.9 2.6-3.1 3.8-9.8 9.8-25.7 9.8-35.5 0s-9.8-25.7 0-35.5c1.2-1.2 2.4-2.2 3.8-3.1-6.6 9.7-5.6 23.1 3.1 31.7z"/></g><g><path class="st53" d="M794.2 890.5c0 12.2-8.7 22.4-20.2 24.6 1.6.3 3.2.5 4.9.5 13.9 0 25.1-11.2 25.1-25.1 0-13.9-11.2-25.1-25.1-25.1-1.7 0-3.3.2-4.9.5 11.5 2.3 20.2 12.5 20.2 24.6zM753.6 939.6c0 12.2 8.7 22.4 20.2 24.6-1.6.3-3.2.5-4.9.5-13.9 0-25.1-11.2-25.1-25.1s11.2-25.1 25.1-25.1c1.7 0 3.3.2 4.9.5-11.5 2.2-20.2 12.4-20.2 24.6z"/></g></g></g><path class="st26" d="M744.2 238.3h93.2v52.2h-93.2z"/><g><circle class="st26" cx="577.3" cy="271.3" r="10"/><circle class="st26" cx="614.5" cy="271.3" r="10"/><circle class="st26" cx="651.6" cy="271.3" r="10"/><circle class="st26" cx="688.8" cy="271.3" r="10"/><circle class="st26" cx="725.9" cy="271.3" r="10"/><circle class="st26" cx="763" cy="271.3" r="10"/><circle class="st26" cx="800.2" cy="271.3" r="10"/><circle class="st26" cx="837.3" cy="271.3" r="10"/></g><g><defs><circle id="SVGID_9_" cx="632.9" cy="575.2" r="32.1"/></defs><use xlink:href="#SVGID_9_" overflow="visible" fill="#b8ebf4"/><clipPath id="SVGID_10_"><use xlink:href="#SVGID_9_" overflow="visible"/></clipPath><circle cx="632.9" cy="575.1" r="27.9" clip-path="url(#SVGID_10_)" fill="#fff"/><g clip-path="url(#SVGID_10_)"><path class="st53" d="M601.2 578c8.6-8.6 22-9.7 31.7-3.1-.9-1.3-1.9-2.6-3.1-3.8-9.8-9.8-25.7-9.8-35.5 0s-9.8 25.7 0 35.5c1.2 1.2 2.4 2.2 3.8 3.1-6.6-9.7-5.5-23 3.1-31.7zM664.6 572.1c8.6-8.6 9.7-22 3.1-31.7 1.3.9 2.6 1.9 3.8 3.1 9.8 9.8 9.8 25.7 0 35.5s-25.7 9.8-35.5 0c-1.2-1.2-2.2-2.4-3.1-3.8 9.7 6.6 23.1 5.5 31.7-3.1z"/><path class="st53" d="M608.4 554.8c12.2 0 22.4 8.7 24.6 20.2.3-1.6.5-3.2.5-4.9 0-13.9-11.2-25.1-25.1-25.1s-25.1 11.2-25.1 25.1c0 1.7.2 3.3.5 4.9 2.2-11.5 12.4-20.2 24.6-20.2zM657.4 595.4c12.2 0 22.4-8.7 24.6-20.2.3 1.6.5 3.2.5 4.9 0 13.9-11.2 25.1-25.1 25.1-13.9 0-25.1-11.2-25.1-25.1 0-1.7.2-3.3.5-4.9 2.3 11.5 12.4 20.2 24.6 20.2z"/><g><path class="st53" d="M629.9 543.4c8.6 8.6 9.7 22 3.1 31.7 1.3-.9 2.6-1.9 3.8-3.1 9.8-9.8 9.8-25.7 0-35.5s-25.7-9.8-35.5 0c-1.2 1.2-2.2 2.4-3.1 3.8 9.7-6.6 23.1-5.6 31.7 3.1zM635.9 606.8c8.6 8.6 22 9.7 31.7 3.1-.9 1.3-1.9 2.6-3.1 3.8-9.8 9.8-25.7 9.8-35.5 0s-9.8-25.7 0-35.5c1.2-1.2 2.4-2.2 3.8-3.1-6.6 9.7-5.6 23.1 3.1 31.7z"/></g><g><path class="st53" d="M653.2 550.5c0 12.2-8.7 22.4-20.2 24.6 1.6.3 3.2.5 4.9.5 13.9 0 25.1-11.2 25.1-25.1 0-13.9-11.2-25.1-25.1-25.1-1.7 0-3.3.2-4.9.5 11.5 2.3 20.2 12.5 20.2 24.6zM612.6 599.6c0 12.2 8.7 22.4 20.2 24.6-1.6.3-3.2.5-4.9.5-13.9 0-25.1-11.2-25.1-25.1s11.2-25.1 25.1-25.1c1.7 0 3.3.2 4.9.5-11.5 2.2-20.2 12.4-20.2 24.6z"/></g></g></g><g><circle class="st41" cx="577.3" cy="265.3" r="10"/><circle class="st41" cx="614.5" cy="265.3" r="10"/><circle class="st41" cx="651.6" cy="265.3" r="10"/><circle class="st41" cx="688.8" cy="265.3" r="10"/><circle class="st41" cx="725.9" cy="265.3" r="10"/><circle class="st41" cx="763" cy="265.3" r="10"/><circle class="st41" cx="800.2" cy="265.3" r="10"/><circle class="st41" cx="837.3" cy="265.3" r="10"/></g><g><path class="st17" d="M768.8 1111.6H807v6.5h-38.2zM768.8 1121.6H807v6.5h-38.2zM768.8 1131.6H807v6.5h-38.2z"/><path class="st17" d="M788 1111.6h19.1v6.5H788zM788 1121.6h19.1v6.5H788zM788 1131.6h19.1v6.5H788z"/></g><g><path class="st17" d="M838.6 1084.1c0 4.4-3.6 8-8 8h-5c-4.4 0-8-3.6-8-8v-5c0-4.4 3.6-8 8-8h5c4.4 0 8 3.6 8 8v5zM807.3 1084.1c0 4.4-3.6 8-8 8h-5c-4.4 0-8-3.6-8-8v-5c0-4.4 3.6-8 8-8h5c4.4 0 8 3.6 8 8v5zM775.9 1084.1c0 4.4-3.6 8-8 8h-5c-4.4 0-8-3.6-8-8v-5c0-4.4 3.6-8 8-8h5c4.4 0 8 3.6 8 8v5zM744.6 1084.1c0 4.4-3.6 8-8 8h-5c-4.4 0-8-3.6-8-8v-5c0-4.4 3.6-8 8-8h5c4.4 0 8 3.6 8 8v5zM713.3 1084.1c0 4.4-3.6 8-8 8h-5c-4.4 0-8-3.6-8-8v-5c0-4.4 3.6-8 8-8h5c4.4 0 8 3.6 8 8v5zM681.9 1084.1c0 4.4-3.6 8-8 8h-5c-4.4 0-8-3.6-8-8v-5c0-4.4 3.6-8 8-8h5c4.4 0 8 3.6 8 8v5zM650.6 1084.1c0 4.4-3.6 8-8 8h-5c-4.4 0-8-3.6-8-8v-5c0-4.4 3.6-8 8-8h5c4.4 0 8 3.6 8 8v5zM619.3 1084.1c0 4.4-3.6 8-8 8h-5c-4.4 0-8-3.6-8-8v-5c0-4.4 3.6-8 8-8h5c4.4 0 8 3.6 8 8v5zM587.9 1084.1c0 4.4-3.6 8-8 8h-5c-4.4 0-8-3.6-8-8v-5c0-4.4 3.6-8 8-8h5c4.4 0 8 3.6 8 8v5z"/></g><g><circle class="st32" cx="765.6" cy="844.6" r="7.3"/></g><path opacity=".75" fill="#fff" d="M632.3 300.4h40v684h-40z"/><g><circle class="st41" cx="652.4" cy="377.8" r="19.4"/></g><g><circle class="st41" cx="690.7" cy="627" r="19.4"/></g><g><circle class="st41" cx="614.8" cy="901.3" r="19.4"/></g><path class="st26" d="M538.6 984.2h326v52.2h-326z"/><circle class="st98" cx="823.5" cy="635.5" r="22.1"/><circle class="st98" cx="827.3" cy="738.6" r="22.1"/></g><g><circle class="st27" cx="584.9" cy="128.8" r="47.8"/><path class="st41" d="M619.6 128.8c0 5.9-1.5 11.5-4.1 16.3-5.8 10.9-17.3 18.3-30.5 18.3-19.1 0-34.7-15.5-34.7-34.6 0-6.1 1.6-11.8 4.4-16.8 5.9-10.6 17.3-17.8 30.3-17.8 19-.1 34.6 15.5 34.6 34.6z"/><path fill="none" stroke="#00b4c9" stroke-width="3" stroke-miterlimit="10" d="M584.9 98.8v30"/><path class="st26" d="M593.6 128.8c0 1.5-.4 2.9-1 4.1-1.5 2.7-4.3 4.6-7.6 4.6-4.8 0-8.7-3.9-8.7-8.7 0-1.5.4-3 1.1-4.2 1.5-2.7 4.3-4.5 7.6-4.5 4.7 0 8.6 3.9 8.6 8.7z"/></g><path class="st26" d="M557.1 984.2h306v52.2h-306z"/><g><path class="st27" d="M557.1 984.3h52.2v52h-52.2z"/><path class="st41" d="M567.1 994.3h32.2v32h-32.2z"/><path class="st27" d="M641.7 984.3h52.2v52h-52.2z"/><path class="st41" d="M651.7 994.3h32.2v32h-32.2z"/><g><path class="st27" d="M726.3 984.3h52.2v52h-52.2z"/><path class="st41" d="M736.3 994.3h32.2v32h-32.2z"/></g><g><path class="st27" d="M810.9 984.2h52.2v52h-52.2z"/><path class="st41" d="M820.9 994.2h32.2v32h-32.2z"/></g></g><circle class="st27" cx="625.4" cy="1011.5" r="7.3"/><circle class="st27" cx="710.1" cy="1011.5" r="7.3"/><circle class="st27" cx="792.6" cy="1011.5" r="7.3"/><g><path d="M1496.2 368.2h-110c-10.4 0-18.8 8.4-18.8 18.8s8.4 18.8 18.8 18.8 18.8 8.4 18.8 18.8-8.4 18.8-18.8 18.8-18.8 8.4-18.8 18.8 8.4 18.8 18.8 18.8 18.8 8.4 18.8 18.8-8.4 18.7-18.8 18.7-18.8 8.4-18.8 18.8 8.4 18.8 18.8 18.8 18.8 8.4 18.8 18.8-8.4 18.8-18.8 18.8-18.8 8.4-18.8 18.8 8.4 18.8 18.8 18.8h110" fill="none" stroke="#1b7bbf" stroke-width="20" stroke-miterlimit="10"/></g><g><path class="st49" d="M1496.2 368.2h-110c-10.4 0-18.8 8.4-18.8 18.8s8.4 18.8 18.8 18.8 18.8 8.4 18.8 18.8-8.4 18.8-18.8 18.8-18.8 8.4-18.8 18.8 8.4 18.8 18.8 18.8 18.8 8.4 18.8 18.8-8.4 18.7-18.8 18.7-18.8 8.4-18.8 18.8 8.4 18.8 18.8 18.8 18.8 8.4 18.8 18.8-8.4 18.8-18.8 18.8-18.8 8.4-18.8 18.8 8.4 18.8 18.8 18.8h110"/></g><g><circle class="st88" cx="1188" cy="645" r="14.3"/><circle class="st88" cx="1188" cy="578.3" r="26.9"/><circle class="st88" cx="1188.3" cy="615.3" r="20.1"/></g><g><circle class="st88" cx="1188" cy="918.5" r="14.3"/><circle class="st88" cx="1188" cy="851.9" r="26.9"/><circle class="st88" cx="1188.3" cy="888.9" r="20.1"/></g></g></g></svg>