<svg id="Layer_1" xmlns="http://www.w3.org/2000/svg" xmlns:xlink="http://www.w3.org/1999/xlink" width="491.1" height="324.9" viewBox="0 0 491.1 324.9"><style>.st1{fill:#333}.st2{fill:#332e2e}.st3{fill:#f9ce1d}.st4{fill:#774d2e}.st5{fill:#e0bb95}.st6{fill:#fff}.st7{fill:#383838}.st8{fill:#565656}.st10,.st11{fill:none;stroke:#ee3c39;stroke-width:1.48;stroke-linecap:round;stroke-miterlimit:10}.st11{stroke:#fff}.st17{fill:#ee3c39}.st18{fill:none;stroke:#ee3c39;stroke-width:7.44;stroke-linecap:round;stroke-miterlimit:10}.st21{fill:#2c3d79}.st22{opacity:.15;enable-background:new}.st23{fill:#364688}.st27{fill:#a04343}.st28{fill:none;stroke:#332e2e;stroke-width:7.43;stroke-linecap:round;stroke-miterlimit:10}.st30{fill:#00acc1}.st34{fill:#bdbdbd}.st38{fill:#fadcbc}.st39{fill:#424242;stroke:#f9ce1d;stroke-width:.65;stroke-miterlimit:10}.st40{opacity:.2;fill:#231f20;enable-background:new}</style><path d="M243.1 85.1c-1.1.1-2.2-.7-2.3-1.8l-3.6-13.8c-.4-1.2.2-2.6 1.4-3h.1l2.2-.4c1.3-.1 2.4.9 2.5 2.2v.1l1.3 14.2c.2 1.2-.5 2.2-1.6 2.5z" fill="#3f3f3f"/><circle class="st1" cx="239.2" cy="63.2" r="5.8"/><g id="Right_Foot"><path class="st2" d="M187.5 141.4c-1.5 3.7-5.6 5.5-9.4 4.1-2.9-1.1-4.3-4.4-3.1-7.2l2-5-6.9-2.7-6 15.1c-.4.9.1 2 1 2.4l17 6.8c3.6 1.5 7.8-.2 9.4-3.8 1.6-3.6 0-7.9-3.7-9.5-.1-.1-.2-.2-.3-.2z"/><path class="st3" d="M174.3 139.9l-2.6-1c-1-.4-1.4-1.5-1-2.4.4-1 1.5-1.4 2.4-1l2.6 1c1 .3 1.5 1.4 1.2 2.3-.3 1-1.4 1.5-2.3 1.2-.1 0-.2 0-.3-.1z"/></g><g id="Head"><circle class="st4" cx="181.9" cy="53.6" r="5.6"/><circle class="st4" cx="183.7" cy="60.3" r="5.6"/><circle class="st4" cx="189.2" cy="65.7" r="5.6"/><circle class="st4" cx="208.7" cy="64.1" r="5.6"/><circle class="st4" cx="202.8" cy="67.8" r="5.6"/><circle class="st4" cx="195.1" cy="68" r="5.6"/><path class="st5" d="M221.1 50.8l-10.5 4.6c-2.2.9-3.2 3.3-2.3 5.5.9 2.2 3.3 3.2 5.5 2.3.1 0 .1-.1.2-.1 6.5-2.9 7.1-12.3 7.1-12.3zM182 35.3s-6 7.3-3.1 13.9c.9 2.1 3.4 3.1 5.5 2.2 1-.4 1.8-1.3 2.2-2.3.4-1 .4-2.2-.1-3.2L182 35.3z"/><circle class="st5" cx="197.5" cy="53.3" r="15.9"/><path class="st2" d="M196.2 47.9c-.7 1.6-2.5 2.4-4.2 1.8-1.6-.7-2.4-2.5-1.8-4.2.7-1.6 2.5-2.4 4.1-1.8 1.7.7 2.5 2.6 1.9 4.2zm11.9 4.7c-.6 1.7-2.5 2.5-4.2 1.8-1.7-.6-2.5-2.5-1.8-4.2.6-1.7 2.5-2.5 4.2-1.8 1.6.7 2.4 2.6 1.8 4.2z"/><circle class="st6" cx="191.5" cy="58.3" r="3.7"/><circle class="st4" cx="187.1" cy="40.9" r="3.9"/><circle class="st4" cx="200.3" cy="37.4" r="3.9"/><circle class="st4" cx="193.2" cy="37.9" r="3.9"/><circle class="st4" cx="213.6" cy="51.4" r="3.9"/><circle class="st4" cx="206.3" cy="39.8" r="3.9"/><circle class="st4" cx="211.1" cy="44.9" r="3.9"/><path class="st1" d="M187.7 41.8c-1.4 3.6 0 6.9 2.9 8s6.2-.4 7.6-3.9l-10.5-4.1z"/><path class="st7" d="M189 43.1c-1.1 2.8.1 4.7 2.2 5.5s4.2.3 5.3-2.5l-7.5-3z"/><path class="st1" d="M187.1 39.9l12.1 4.8-.8 2.1-12.1-4.8.8-2.1z"/><ellipse transform="rotate(-68.482 188.852 41.6697)" class="st8" cx="188.9" cy="41.7" rx=".4" ry=".8"/><path class="st1" d="M212.5 51.5c-1.4 3.6-4.7 5-7.6 3.9s-4.4-4.5-2.9-8l10.5 4.1z"/><path class="st7" d="M210.6 51.6c-1.1 2.9-3.2 3.3-5.3 2.5s-3.3-2.7-2.2-5.5l7.5 3z"/><path class="st1" d="M213.4 52.7l-12.1-4.8.8-2.1 12.1 4.8-.8 2.1z"/><ellipse transform="rotate(-68.482 211.722 50.693)" class="st8" cx="211.7" cy="50.7" rx=".4" ry=".8"/><path d="M198.2 47.1c.3-.8 1.2-1.2 2-.9.8.3 1.2 1.2.9 2" fill="none" stroke="#333" stroke-width="1.29" stroke-miterlimit="10"/><path class="st10" d="M210 16.2l-2.4 10.3m6.3-4l-10.2-2.4"/><path class="st11" d="M206 16.9l5.6 9m2.3-5.9l-10.2 2.7"/><path class="st10" d="M207.2 16.3l3.2 10.1m3.5-3.9l-10.2-2.4m9.1-2.2l-8 6.8m7.7.4l-8.6-7.9"/><path class="st11" d="M211.3 16.8l-5.1 9.2m2.4-9.1l.4 9.8m-4.8-7.9l9.2 5.1"/><path class="st10" d="M213.9 22.5c-1.2-.3-3.8-1.1-5-1.4"/><path class="st11" d="M204.2 18.8l9.2 5.1"/><path d="M187.3 33.2c1-2.5.7-4 3.4-4.4 0-1.6 3.8-4.5 5.1-5.7 2.7-2.3 6.3-3.8 10.2-2.9 1.1.3 2.2.8 3.1 1.6 3.3 2.4 6.6 4.5 8.4 8.1.5 1 1.1 8.7 1.7 9.7 3.1 5.2.1 5.6-1.3 8.1-7.8-4.6-15.9-8.6-24.3-12" fill="#ab47bc"/><path class="st6" d="M218.9 52c-.3.9-1.2 1.4-2.1 1.1l-.6-.3c-9.2-6.9-20.1-11.2-31.6-12.5-.9 0-1.6-.8-1.6-1.7 0-.2.1-.5.2-.7l1.6-4c.5-1.3 1.8-2.1 3.2-2 11.4 1.3 22.3 5.6 31.6 12.4 1.1.9 1.5 2.3 1 3.6l-1.7 4.1z"/></g><g id="Body"><path d="M184.3 104.6l-10.8 27.3m-1.4-32l-10.7 27.2" fill="none" stroke="#9e3494" stroke-width="7.44" stroke-miterlimit="10"/><path class="st2" d="M144.7 124.5c-1.5 3.7.4 7.9 4.1 9.3 2.9 1.1 6.1-.3 7.2-3.1l2-5 6.9 2.7-6 15.1c-.4 1-1.4 1.4-2.4 1.1l-16.9-6.7c-3.7-1.4-5.6-5.4-4.3-9.2 1.3-3.7 5.5-5.7 9.2-4.4 0 .2.1.2.2.2z"/><path class="st3" d="M155.3 132.4l2.6 1c1 .3 2-.2 2.3-1.2.3-.9-.1-1.8-1-2.2l-2.6-1c-1-.4-2 .1-2.4 1-.3 1 .1 2.1 1.1 2.4z"/><path d="M191.6 68.1c-8.2-3.2-17.4.8-20.6 8.9l-4.9 12.4c-3.1 8.2 1.1 17.4 9.3 20.4 8 3 16.9-.9 20.2-8.8l4.9-12.4c3.3-8-.7-17.3-8.9-20.5.1 0 .1 0 0 0z" fill="#9e3494"/><path class="st2" d="M169.1 82.1l29.5 11.6-2.9 7.4-29.5-11.6 2.9-7.4z"/><path class="st3" d="M180.2 86.4l7.4 2.9-2.9 7.4-7.4-2.9 2.9-7.4z"/><path d="M198.9 75.1c-2.4 6.2-8.4 9.7-13.3 7.7s-6.9-8.5-4.5-14.8" fill="none" stroke="#fff200" stroke-width="1.4" stroke-linecap="round" stroke-miterlimit="10" stroke-dasharray=".71,.71"/><path d="M196.9 71.4c-1.6 4.1-5.6 6.4-8.9 5.2s-4.6-5.7-3-9.9" fill="none" stroke="#fff200" stroke-width=".94" stroke-linecap="round" stroke-miterlimit="10"/><path class="st17" d="M184.5 68.3c-6.8-.2-13 3.8-15.5 10.2l-8.1 20.7 8.1 3.2c0-.1 9.7-25.5 15.5-34.1z"/><path class="st17" d="M181.7 70.8l-1.1-.4c-.7-.3-1.1-1.2-.8-1.9 0 0 0-.1.1-.1l2.2-3.8c.4-.6 1.1-.8 1.7-.6l2.3.9c.3.1.4.4.3.7 0 .1-.1.1-.1.2l-3 4.4c-.3.6-1 .9-1.6.6zm15 2.3c5.1 4.5 6.8 11.7 4.4 18l-8.2 20.7-8.1-3.2s10.2-25.3 11.9-35.5z"/><path class="st17" d="M197 76.8l1.1.4c.7.3 1.6-.1 1.8-.8v-.2l1-4.2c.1-.7-.2-1.4-.9-1.6l-2.3-.9c-.3-.1-.6 0-.7.3v.2l-.8 5.3c-.1.6.2 1.3.8 1.5z"/><path class="st2" d="M160.3 100.7l1.2-3.1 8.2 3.2-1.2 3.1-8.2-3.2zM184 110l1.2-3.1 8.2 3.2-1.2 3.1-8.2-3.2z"/></g><g id="Left_Arm"><path class="st18" d="M174.8 75.5c-7.1-11.9-6.1-28.8 3.7-36.6"/><circle class="st5" cx="184.7" cy="33.9" r="7.9"/><path class="st6" d="M185.6 41.8l-8.4-10.5c-1.4-1.5-3.7-1.7-5.3-.3-1.4 1.3-1.7 3.4-.6 5l8.4 10.5c1.3 1.6 3.6 1.9 5.2.6 1.7-1.4 2-3.7.7-5.3z"/></g><g id="Left_Arm-2"><path class="st18" d="M199.1 81.5c9.5 10.1 26 13.8 36.2 6.5"/><circle class="st5" cx="241.8" cy="83.4" r="7.9"/><path class="st6" d="M242.2 91.3l-7.8-11c-1.2-1.7-3.5-2.1-5.2-.9-1.7 1.2-2.1 3.5-.9 5.2l7.8 11c1.2 1.7 3.5 2.1 5.2.9 1.7-1.2 2.1-3.5.9-5.2z"/></g><path d="M351.9 75.7l-2.3 17.5c-.7-.4-1.5-.7-2.3-.9-3.1-.4-5.9 1.7-6.3 4.8-.4 3.1 1.8 5.8 4.8 6.3 3.1.4 5.9-1.7 6.3-4.8l2.2-17.1 15.3 2-1.6 12.1c-.7-.4-1.5-.7-2.3-.9-3.1-.4-5.9 1.7-6.3 4.8-.4 3.1 1.7 5.9 4.8 6.3 3.1.4 5.9-1.7 6.3-4.8l2.9-22.5-3.2-.4-18.3-2.4zm44.6-5.5l-3.2-22.5-3.2.4 2.5 17.5c-.8-.2-1.7-.3-2.5-.2-3.1.5-5.2 3.3-4.7 6.4.5 3.1 3.3 5.2 6.4 4.7 3-.5 5.1-3.3 4.7-6.3zm7.8 20.6l-6.8 16.3c-.5-.6-1.2-1.1-2-1.4-2.8-1.2-6.1.2-7.3 3s.2 6.1 3 7.3c2.8 1.2 6.1-.2 7.3-3l8.8-21-3-1.2zm-8.6 21c-.6 1.3-2.1 2-3.4 1.4-1.3-.6-2-2.1-1.4-3.4.6-1.3 2.1-2 3.4-1.4 1.3.6 1.9 2.1 1.4 3.4zM23.9 130.3L21.7 147c-.7-.4-1.4-.7-2.2-.8-2.9-.4-5.6 1.7-6 4.6-.4 2.9 1.7 5.6 4.6 6 2.9.4 5.6-1.7 6-4.6l2.1-16.3 14.5 1.9-1.5 11.5c-.7-.4-1.4-.7-2.2-.8-2.9-.4-5.6 1.7-6 4.6-.4 2.9 1.7 5.6 4.6 6 2.9.4 5.6-1.7 6-4.6l2.8-21.5-3-.4-17.5-2.3zm42.4-5.2l-3-21.4-3 .4 2.4 16.7c-.7-.2-1.5-.3-2.3-.2-2.9.4-4.9 3.1-4.5 6 .4 2.9 3.1 4.9 6 4.5 2.9-.5 4.8-3.2 4.4-6zm7.4 19.6l-6.5 15.5c-.5-.6-1.2-1-1.9-1.4-2.7-1.1-5.9.2-7 2.9-1.1 2.7.2 5.9 2.9 7 2.7 1.1 5.9-.2 7-2.9l8.3-20-2.8-1.1zm-8.2 20c-.5 1.2-2 1.8-3.2 1.3s-1.8-2-1.3-3.2c.5-1.2 2-1.8 3.2-1.3 1.2.5 1.8 1.9 1.3 3.2zm23.3-51.3l-1.3-9.9c-.4.2-.8.4-1.3.5-1.7.2-3.3-1-3.6-2.7-.2-1.7 1-3.3 2.7-3.6 1.7-.2 3.3 1 3.6 2.7l1.3 9.7 8.7-1.1-.9-6.9c-.4.2-.8.4-1.3.5-1.7.2-3.3-1-3.6-2.7-.2-1.7 1-3.3 2.7-3.6 1.7-.2 3.3 1 3.6 2.7l1.7 12.8-1.8.2-10.5 1.4zm39.8 26.5l-1.8-21.6-3 .3 1.4 16.8c-.7-.3-1.5-.4-2.3-.3-3 .2-5.2 2.8-5 5.7.2 3 2.8 5.2 5.7 5 3-.2 5.2-2.8 5-5.7v-.2zm10.9-36.2l-8.3-20c-1.1-2.7-4.3-4-7-2.9s-4 4.3-2.9 7 4.3 4 7 2.9c.7-.3 1.4-.8 1.9-1.4l6.5 15.5 2.8-1.1zM127.1 88c-1.2.5-2.7-.1-3.2-1.3s.1-2.7 1.3-3.2 2.7.1 3.2 1.3c.6 1.2.1 2.5-1.1 3.1 0 0-.1.1-.2.1z" opacity=".25" fill="#fff"/><path d="M111.3 324.9c-61.5 0-111.3-4.5-111.3-10s49.8-10 111.3-10c8.4 0 16.6.1 24.4.2 7.9-.2 16-.2 24.4-.2h219.7c61.5 0 111.3 4.5 111.3 10s-49.8 10-111.3 10H111.3z" opacity=".1"/><path class="st21" d="M174 263.7v42.5l-31.7 11v-42.5l31.7-11z"/><path class="st22" d="M174 263.7v42.5l-31.7 11v-42.5l31.7-11z"/><path class="st21" d="M67.4 263.7H174l-31.7 11H35.8l31.6-11z"/><path class="st23" d="M35.8 274.7h106.6v42.5H35.8v-42.5z"/><path class="st21" d="M304.2 213.7v92.5l-31.7 11v-92.4l31.7-11.1z"/><path class="st22" d="M304.2 213.7v92.5l-31.7 11v-92.4l31.7-11.1z"/><path class="st21" d="M189.3 213.7h114.9l-31.7 11.1H157.6l31.7-11.1z"/><path class="st23" d="M157.6 224.8h114.9v92.5H157.6v-92.5z"/><path class="st21" d="M426.4 263.7v42.5l-31.6 11v-42.5l31.6-11z"/><path class="st22" d="M426.4 263.7v42.5l-31.6 11v-42.5l31.6-11z"/><path class="st21" d="M319.9 263.7h106.5l-31.6 11H288.2l31.7-11z"/><path class="st23" d="M288.2 274.7h106.6v42.5H288.2v-42.5z"/><path d="M254.8 149.7l-23.5 40.5-23.4-40.5h14.8L218 118h26.7l-4.7 31.7h14.8z" opacity=".37" fill="#fff"/><g id="Body-2"><path class="st18" d="M364.6 221.7V251m-13.1-29.3V251"/><path class="st2" d="M335 254.7c0 4 3.2 7.2 7.2 7.2 3.1 0 5.6-2.5 5.6-5.6V251h7.4v16.3c0 1-.8 1.9-1.9 1.9h-18.2c-3.9 0-7.2-3-7.4-6.9-.1-4 3-7.3 6.9-7.5.2-.1.3-.1.4-.1z"/><path class="st3" d="M347.8 258.1h2.8c1 0 1.9-.8 1.9-1.9 0-1-.8-1.9-1.9-1.9h-2.8c-1 0-1.9.8-1.9 1.9.1 1.1.9 1.9 1.9 1.9z"/><path class="st17" d="M351.5 221.7h13l-6.5-33-6.5 33z"/><path class="st17" d="M358 185c-8.8 0-15.9 7.1-15.9 15.8v13.3c.2 8.8 7.5 15.7 16.3 15.5 8.5-.2 15.3-7 15.5-15.5v-13.3c0-8.7-7.1-15.8-15.9-15.8.1 0 .1 0 0 0z"/><path class="st2" d="M342.2 206.2H374v7.9h-31.8v-7.9z"/><path class="st3" d="M354.1 206.2h7.9v7.9h-7.9v-7.9z"/></g><g id="Right_Foot-2"><path class="st2" d="M381.1 254.7c0 4-3.2 7.2-7.2 7.2-3.1 0-5.6-2.5-5.6-5.6V251h-7.5v16.3c0 1 .8 1.9 1.9 1.9h18.2c3.9 0 7.2-3 7.4-6.9.1-4-3-7.3-6.9-7.5-.1-.1-.2-.1-.3-.1z"/><path class="st3" d="M368.3 258.1h-2.8c-1 0-1.9-.8-1.9-1.9 0-1 .8-1.9 1.9-1.9h2.8c1 0 1.9.8 1.9 1.9 0 1.1-.9 1.9-1.9 1.9z"/></g><g id="Keyboard"><path d="M320.1 231.8l75 35.2m-75.1-.3l75.1-34.8" fill="none" stroke="#424242" stroke-width="1.94" stroke-miterlimit="10"/><circle class="st1" cx="320" cy="266.7" r="2.4"/><circle class="st1" cx="394.9" cy="266.7" r="2.4"/><g id="Keyboard-2"><path d="M317.2 221.3H399v13h-81.8v-13z" fill="#424242"/><path class="st6" d="M324 221.3h68v2.3h-68v-2.3z"/><path class="st1" d="M356.9 221.3h2.3v2.3h-2.3v-2.3zm11.4 0h2.3v2.3h-2.3v-2.3zm11.5 0h2.3v2.3h-2.3v-2.3zm-34.4 0h2.3v2.3h-2.3v-2.3zm-11.5 0h2.3v2.3H334l-.1-2.3z"/></g></g><g id="Left_Arm-3"><path class="st18" d="M358 188.7c-15.1 0-30.2 7.6-30.2 22.7"/><path class="st6" d="M334.5 207.6h-13.4c-2.1 0-3.7 1.7-3.7 3.7s1.7 3.7 3.7 3.7h13.5c2.1 0 3.7-1.7 3.7-3.7s-1.7-3.7-3.8-3.7z"/><circle class="st5" cx="327.8" cy="216.1" r="7.9"/></g><g id="Right_Arm"><path class="st18" d="M358 188.7c15.1 0 25.8 5.6 25.8 19.3"/><path class="st6" d="M390.5 204.3H377c-2.1.1-3.6 1.9-3.5 3.9.1 1.9 1.6 3.4 3.5 3.5h13.5c2.1.1 3.8-1.5 3.9-3.5.1-2.1-1.5-3.8-3.5-3.9h-.4z"/><circle class="st5" cx="383.8" cy="214.8" r="7.9"/></g><g id="Head-2"><path class="st27" d="M345.4 176.1l3.6 3.6c2 1.9 2 5.1 0 7.1l-3.6-3.6c-2-2-2-5.2 0-7.1-.1 0 0 0 0 0z"/><path class="st27" d="M345.4 183.1l3.6 3.6c2 1.9 2 5.1 0 7.1l-3.6-3.6c-2-1.9-2-5 0-7.1-.1.1-.1.1 0 0zM345.4 190.3l3.6 3.6c2 1.9 2 5.1 0 7.1l-3.6-3.6c-2-2-2-5.2 0-7.1-.1 0 0 0 0 0zm-.2 18v-3.7c0-2 1.6-3.7 3.7-3.7v3.7c0 2.1-1.6 3.7-3.7 3.7zm7.4 0v-3.7c0-2-1.7-3.7-3.7-3.7v3.7c0 2.1 1.7 3.7 3.7 3.7zm18.1-32.3l-3.6 3.6c-2 1.9-2 5.1 0 7.1l3.6-3.6c2-1.9 2-5.1 0-7.1.1.1 0 .1 0 0z"/><path class="st27" d="M370.7 183.1l-3.6 3.6c-2 1.9-2 5.1 0 7.1l3.6-3.6c2-1.9 2-5 0-7.1.1.1.1.1 0 0z"/><path class="st27" d="M370.7 190.3l-3.6 3.5c-2 1.9-2 5.1 0 7.1l3.6-3.6c2-1.9 2-5.1 0-7zm.2 18v-3.7c0-2-1.6-3.7-3.7-3.7v3.7c0 2.1 1.6 3.7 3.7 3.7zM363.5 208.3v-3.7c0-2 1.7-3.7 3.7-3.7v3.7c0 2.1-1.7 3.7-3.7 3.7z"/><circle class="st6" cx="358" cy="124.1" r="5.5"/><path class="st17" d="M373.9 161.4L358 129.7l-15.9 31.7h31.8z"/><path class="st6" d="M373.2 165.3c-2 0-3.8-1.3-4.4-3.3-1.9-5.9-8.2-9.2-14.1-7.4-3.5 1.1-6.3 3.8-7.4 7.4-.9 2.4-3.5 3.7-6 2.8-2.3-.8-3.6-3.2-2.9-5.6 3.4-10.8 14.9-16.8 25.7-13.5 6.4 2 11.4 7 13.5 13.5.8 2.5-.6 5.1-3.1 5.8-.4.2-.8.3-1.3.3z"/><path class="st27" d="M339.3 169.1c0-10.4 8.4-18.8 18.8-18.8s18.8 8.4 18.8 18.8h-37.6z"/><path class="st5" d="M379.1 158l-8.1 8.1c-1.6 1.6-1.6 4.3 0 5.9s4.3 1.6 5.9 0c5.1-5 2.2-14 2.2-14zm-33.9 8.1L337 158s-2.9 9 2.2 14.1c1.6 1.6 4.3 1.6 5.9 0s1.7-4.3.1-6z"/><circle class="st5" cx="358" cy="169.1" r="15.9"/><path class="st2" d="M354.8 164.6c0 1.8-1.4 3.2-3.2 3.2s-3.2-1.4-3.2-3.2c0-1.8 1.4-3.2 3.2-3.2 1.8-.1 3.2 1.4 3.2 3.2zm12.9 0c0 1.8-1.4 3.2-3.2 3.2-1.8 0-3.2-1.4-3.2-3.2 0-1.8 1.4-3.2 3.2-3.2 1.7-.1 3.2 1.4 3.2 3.2z"/><path class="st6" d="M367.7 171c0 5.3-4.3 9.6-9.6 9.6s-9.6-4.3-9.6-9.6h19.2z"/><path class="st27" d="M358 153.2c0 2.5-2 4.6-4.6 4.6h-9.8l4.1-4 4.8-1.7 5.5 1.1zM358 153.2c0 2.5 2 4.6 4.6 4.6h9.8l-4.1-4-4.8-1.7-5.5 1.1z"/></g><g id="Right_Foot-3"><path class="st2" d="M122.9 254.4c0 4-3.2 7.2-7.2 7.2-3.1 0-5.6-2.5-5.6-5.6v-5.3h-7.4v16.2c0 1 .8 1.9 1.9 1.9h18.2c3.9 0 7.2-3 7.4-6.9.1-4-3-7.3-6.9-7.4-.3-.1-.4-.1-.4-.1z"/><path class="st3" d="M110.1 257.9h-2.8c-1 .1-1.9-.7-2-1.7-.1-1 .7-1.9 1.7-2H110.1c1-.1 1.9.7 2 1.7.1 1-.7 1.9-1.7 2h-.3z"/></g><g id="Right_Arm-2"><path class="st28" d="M112.5 192.5c9.5 3 18.2 9 17.1 22.7"/><path class="st6" d="M136.6 212l-13.4-1c-2-.3-3.9 1.2-4.2 3.2-.3 2 1.2 3.9 3.2 4.2h.4l13.4 1c2 .2 3.8-1.4 4-3.4s-1.3-3.9-3.4-4z"/></g><g id="Body-3"><path class="st2" d="M89.3 213h21.1v30.2H89.3V213z"/><path d="M106.4 221.4v29.2m-13-29.2v29.2" fill="none" stroke="#00acc1" stroke-width="7.43" stroke-miterlimit="10"/><path class="st2" d="M76.9 254.4c0 4 3.2 7.2 7.2 7.2 3.1 0 5.6-2.5 5.6-5.6v-5.3h7.4v16.2c0 1-.8 1.8-1.9 1.8H77.1c-3.9 0-7.2-3-7.4-6.9-.1-4 3-7.3 6.9-7.4h.3z"/><path class="st3" d="M89.7 257.9h2.8c1 .1 1.9-.7 2-1.7.1-1-.7-1.9-1.7-2H89.7c-1-.1-1.9.7-2 1.7-.1 1 .7 1.9 1.7 2h.3z"/><path class="st17" d="M93.4 221.4h13l-6.5-32.9-6.5 32.9z"/><path class="st30" d="M99.9 184.8c-8.7 0-15.9 7.1-15.9 15.8V214c0 8.8 7.1 15.9 15.8 15.9s15.9-7.1 15.9-15.8v-13.3c0-8.9-7.1-16-15.8-16z"/><path class="st2" d="M84 206h31.7v7.9H84V206z"/><path class="st3" d="M95.9 206h7.9v7.9h-7.9V206z"/><path class="st2" d="M99.1 184.9h-1.5 2.3c-.5 0-1.6.1-1.6.1-8.9.8-15.8 8.3-15.8 17.2V226c0 .5 0 .9.1 1.4v15.8H91v-49.5c0-4.6 3.5-8.4 8.1-8.8zm18.1 41.1v-23.9c0-9-6.8-16.5-15.8-17.2-.5 0-1-.1-1.6-.1h.8c4.6.4 8.1 4.2 8.1 8.8v49.5h8.5V226z"/></g><g id="Guiatar"><path class="st30" d="M99.8 191.6c-.5-.1-.9-.2-1.4-.2.4 0 .9.1 1.4.2z"/><path d="M103 218.3s-1.9.3-2.2-.8.2-1.9.3-2.7.9-4.3-1.3-6.9-7-2.1-11 1.3-5.3 5.2-12.1 4.1-15-1.9-19 4.4-1.4 13.6 0 19.4 4.5 13 10.9 14 9.2-1.3 11.3-2.8c2.1-1.5 4.2-3.2 6.1-5 1.8-1.7 3.6-3.3 5.5-3.8s5 0 7.9 0 7.2-.9 8.4-3.5-2-3.2-2.9-3.1-5 .4-6.9-2.3 2-4.9 2.6-5.3 2.4-6.9 2.4-7z" fill="#cd131a"/><path d="M149.1 203.6l1.8-3.4 18.9 1-.5 4-8.3 4.1-10.2.2-1.7-5.9z" fill="#e09d17"/><path d="M79 220.1c0-.1.1-.1.4-.4 1.2-.7 2.4-1.3 3.8-1.7 2-.6 4.1-.9 6.2-1 1.8-.1 3.7 0 5.5.3l1.2.3c1.2.2 2.2.9 2.8 1.9.2.5.3 1.1.1 1.6-.1.8-.3 1.5-.5 2.3-.4 1.3-2.3 4-2.4 5.4-.1 1.2.4 2.4 1.2 3.3.7.8 1.5 1.4 2.4 1.8.6.3 1.3.5 2 .6.2 0 .4 0 .6.1.9.1 1.8.1 2.7 0 .3-.1.7-.1 1 0 .1 0 .3.1.4.1.1.1.1.2.1.3 0 .5-.2.9-.6 1.2-.7.6-1.5 1-2.4 1.3-.4.1-.9.2-1.4.4-1.6.3-3.2.3-4.8.1H96c-1.8-.2-3.6 0-5.4.4-1.5.5-2.8 1.3-4 2.4l-.1.1c-.1.2-.4.4-.6.6L79 220.1z" fill="#f0ede9"/><path class="st34" d="M87.4 237.2c.3.9-.2 2-1.1 2.3h-.1l-15.1 4.6c-1 .3-2-.2-2.3-1.2v-.2c-.3-1 .2-2 1.2-2.3l15-4.7c.9-.3 2 .2 2.3 1.1v.1l.1.3z"/><path id="a" d="M150.9 209.4s-54 17.8-54.8 18-.9.4-2-3.5-1-3.9-.3-4.1 55.2-16.3 55.2-16.3l1.9 5.9z" fill="#74431d"/><g><defs><path id="SVGID_1_" d="M150.9 209.4s-54 17.8-54.8 18-.9.4-2-3.5-1-3.9-.3-4.1 55.2-16.3 55.2-16.3l1.9 5.9z"/></defs><clipPath id="SVGID_2_"><use xlink:href="#SVGID_1_" overflow="visible"/></clipPath><g clip-path="url(#SVGID_2_)"><path d="M150 203.3l1.8 5.9m-5.6-4.8l1.8 6.1m-5.7-5l1.9 6.3m-5.7-5.3l2 6.6m-5.8-5.5l2 6.8m-5.8-5.7l2.1 7m-5.9-5.9l2.1 7.2m-6-6.2l2.3 7.5m-6.1-6.5l2.3 7.7m-6.1-6.6l2.4 7.9m-6.2-6.9l2.4 8.1m-6.2-7l2.5 8.4m-6.4-7.4l2.6 8.6m-6.4-7.5l2.7 8.8m-6.5-7.7l2.7 9m-6.5-8l2.8 9.3" fill="none" stroke="#fff" stroke-width=".65" stroke-miterlimit="10"/></g></g><path class="st34" d="M80.6 224.4l2.4 8.2-7.2 2.2-2.4-8.2 7.2-2.2z"/></g><g id="Left_Arm-4"><path class="st28" d="M87.5 192.1c-14.7 2.8-18.8 18.7-7.4 29.4"/><circle class="st38" cx="85.3" cy="227.5" r="7.9"/><path class="st6" d="M88 214.7c-1.3-1.5-3.7-1.7-5.2-.4l-10.2 8.8c-1.5 1.4-1.6 3.7-.2 5.3 1.3 1.5 3.6 1.6 5.1.4l10.2-8.8c1.5-1.4 1.6-3.8.3-5.3z"/></g><g id="Right_hand"><circle class="st38" cx="129.1" cy="219.2" r="7.9"/></g><g id="Head-3"><circle class="st6" cx="99.9" cy="124.1" r="5.5"/><path class="st30" d="M115.7 160.6L99.9 129 84 160.6h31.7z"/><path class="st6" d="M115 165.2c-2 0-3.8-1.3-4.4-3.3-1.8-5.9-8.1-9.2-14-7.4-3.5 1.1-6.3 3.8-7.4 7.4-.8 2.4-3.5 3.7-5.9 2.9-2.3-.8-3.6-3.3-2.9-5.6 3.4-10.8 14.9-16.8 25.7-13.4 6.4 2 11.4 7 13.4 13.4.8 2.4-.6 5-3 5.8-.5.1-1 .2-1.5.2z"/><path class="st38" d="M120.9 157.9l-8.1 8.1c-1.6 1.6-1.6 4.3 0 5.9 1.6 1.6 4.3 1.6 5.9 0 5.1-5 2.2-14 2.2-14zM87 166l-8.1-8.1s-2.9 9 2.2 14c1.5 1.8 4.2 2 5.9.4 1.8-1.5 2-4.2.4-5.9-.1-.1-.2-.3-.4-.4z"/><path class="st2" d="M99.9 169c0 10.4-8.4 18.7-18.8 18.8V169h18.8zm0 0c0 10.4 8.4 18.8 18.8 18.8V169H99.9zm-18.8 0c0-10.4 8.4-18.8 18.8-18.8s18.8 8.4 18.8 18.8H81.1z"/><circle class="st38" cx="99.9" cy="169" r="15.9"/><path class="st2" d="M96.7 164.4c0 1.8-1.4 3.2-3.2 3.2s-3.2-1.4-3.2-3.2c0-1.8 1.4-3.2 3.2-3.2s3.2 1.4 3.2 3.2zm12.8 0c0 1.8-1.4 3.2-3.2 3.2-1.8 0-3.2-1.4-3.2-3.2 0-1.8 1.4-3.2 3.2-3.2 1.7 0 3.2 1.4 3.2 3.2z"/><path class="st6" d="M109.5 170.8c.2 5.3-4 9.7-9.3 9.9s-9.7-4-9.9-9.3v-.6h19.2z"/><path class="st2" d="M105 153.9c-8.3-2.8-17.3 1.6-20.1 9.9 8.3 2.9 17.3-1.6 20.1-9.9z"/><path class="st39" d="M87.5 164.8c0-1.3.5-2.6 1.6-3.4 1.5-1 3.3-1.4 5.1-1.3 1.2 0 3.8.2 4.3 1.2s-.7 3.5-1.4 4.5c-1.3 2.1-3.5 3.5-6 3.6-3.5 0-3.6-3.8-3.6-4.6zm25 .1c0-1.3-.6-2.6-1.6-3.4-1.8-1.3-4.1-1.3-5.3-1.3s-4 .2-4.4 1.3.7 3.5 1.4 4.5c1.3 2.2 3.6 3.5 6.1 3.6 3.7-.1 3.8-3.9 3.8-4.7zm-13.9-2.8h2.5M112.5 164.9l2.2-1.5m-27.2 1.4l-2.4-1.6"/></g><path class="st40" d="M218.5 15.8L211 3.9c-1.1-1.7-3.3-2.2-4.9-1.1h-.1c-1.4.8-2 2.5-1.5 4-6-1.3-11.9 2.5-13.2 8.5-1.4 6 2.3 12.1 8.3 13.5 6 1.4 12.1-2.3 13.6-8.3 1.2 1 3 1.2 4.3.3 1.6-1.1 2.1-3.4 1-5z"/><circle cx="200.4" cy="15.6" r="11.2" fill="#ffd200"/><path class="st40" d="M206.8 6.4c1.7 2.6 2.3 5.7 1.6 8.7-1.4 6.1-7.5 9.9-13.5 8.5-1.4-.3-2.7-.9-3.9-1.7 1.6 2.4 4.1 4.1 6.9 4.7 6 1.4 12.1-2.3 13.5-8.4 1-4.5-.8-9.2-4.6-11.8z"/><path class="st6" d="M215.6 18.6c1.7-1.1 2.2-3.3 1.1-4.9v-.1l-7.5-11.9c-1.1-1.7-3.3-2.2-5-1.1-1.7 1.1-2.2 3.3-1.1 5l7.5 11.9c1.1 1.7 3.3 2.2 5 1.1z"/><path class="st6" d="M215.6 18.6c1.7-1.1 2.2-3.3 1.1-4.9v-.1l-7.5-11.9c-1.1-1.7-3.3-2.2-5-1.1-1.7 1.1-2.2 3.3-1.1 5l7.5 11.9c1.1 1.7 3.3 2.2 5 1.1z"/><path class="st40" d="M204.2.6c-1.7 1.1-2.2 3.3-1.1 4.9v.1l2.4 3.9c-.9-1.7-.4-3.8 1.2-4.8 1.7-1.1 3.9-.6 5 1v.1l5.1 8c0-.1 0-.1-.1-.1l-7.5-11.9c-1-1.7-3.1-2.3-4.8-1.3-.1 0-.1 0-.2.1z"/><path class="st6" d="M215.6 18.6c1.7-1.1 2.2-3.3 1.1-4.9v-.1l-7.5-11.9c-1.1-1.7-3.3-2.2-5-1.1-1.7 1.1-2.2 3.3-1.1 5l7.5 11.9c1.1 1.7 3.3 2.2 5 1.1z"/><path class="st6" d="M215.6 18.6c1.7-1.1 2.2-3.3 1.1-4.9v-.1l-7.5-11.9c-1.1-1.7-3.3-2.2-5-1.1-1.7 1.1-2.2 3.3-1.1 5l7.5 11.9c1.1 1.7 3.3 2.2 5 1.1z"/><path class="st40" d="M204.2.6c-1.7 1.1-2.2 3.3-1.1 4.9v.1l2.4 3.9c-.9-1.7-.4-3.8 1.2-4.8 1.7-1.1 3.9-.6 5 1v.1l5.1 8c0-.1 0-.1-.1-.1l-7.5-11.9c-1-1.7-3.1-2.3-4.8-1.3-.1 0-.1 0-.2.1z"/></svg>