<svg xmlns="http://www.w3.org/2000/svg" viewBox="0 0 100.144 100.144" enable-background="new 0 0 100.144 100.144"><g><circle cx="50.072" cy="50.072" r="50.072" fill="#B756C5"/><path fill="#fff" d="M33.864 25.822h21.25v33.5h-21.25z"/><path fill="#404040" d="M33.864 25.822h7.083v6.7h-7.083z"/><path fill="#fff" d="M40.947 25.822h7.083v6.7h-7.083z"/><path fill="#404040" d="M48.03 25.822h7.083v6.7H48.03z"/><path fill="#fff" d="M33.864 32.522h7.083v6.7h-7.083z"/><path fill="#404040" d="M40.947 32.522h7.083v6.7h-7.083z"/><path fill="#fff" d="M48.03 32.522h7.083v6.7H48.03z"/><path fill="#404040" d="M33.864 39.223h7.083v6.7h-7.083z"/><path fill="#fff" d="M40.947 39.223h7.083v6.7h-7.083z"/><path fill="#404040" d="M48.03 39.223h7.083v6.7H48.03z"/><path fill="#fff" d="M33.864 45.922h7.083v6.7h-7.083z"/><path fill="#404040" d="M40.947 45.922h7.083v6.7h-7.083z"/><path fill="#fff" d="M48.03 45.922h7.083v6.7H48.03z"/><path fill="#404040" d="M33.864 52.622h7.083v6.7h-7.083z"/><path fill="#fff" d="M40.947 52.622h7.083v6.7h-7.083z"/><path fill="#404040" d="M48.03 52.622h7.083v6.7H48.03z"/><path fill="none" stroke="#fff" stroke-width="3" stroke-miterlimit="10" d="M32.364 23.322v55.5"/><path fill="#fff" d="M55.114 21.322h21.25v33.5h-21.25zM55.114 21.322h7.083v6.7h-7.083z"/><path fill="#404040" d="M62.197 21.322h7.083v6.7h-7.083z"/><path fill="#fff" d="M69.28 21.322h7.083v6.7H69.28z"/><path fill="#404040" d="M55.114 28.022h7.083v6.7h-7.083z"/><path fill="#fff" d="M62.197 28.022h7.083v6.7h-7.083z"/><path fill="#404040" d="M69.28 28.022h7.083v6.7H69.28z"/><path fill="#fff" d="M55.114 34.723h7.083v6.7h-7.083z"/><path fill="#404040" d="M62.197 34.723h7.083v6.7h-7.083z"/><path fill="#fff" d="M69.28 34.723h7.083v6.7H69.28z"/><path fill="#404040" d="M55.114 41.422h7.083v6.7h-7.083z"/><path fill="#fff" d="M62.197 41.422h7.083v6.7h-7.083z"/><path fill="#404040" d="M69.28 41.422h7.083v6.7H69.28z"/><path fill="#fff" d="M55.114 48.122h7.083v6.7h-7.083z"/><path fill="#404040" d="M62.197 48.122h7.083v6.7h-7.083z"/><path fill="#fff" d="M69.28 48.122h7.083v6.7H69.28z"/></g></svg>