<svg xmlns="http://www.w3.org/2000/svg" viewBox="0 90 612 612" enable-background="new 0 90 612 612"><g><circle fill="#FFD300" cx="306" cy="396" r="306"/><path fill="#D81B60" d="M251.4 594.6l-22.5-18.9-18 18.9V377.9h40.5z"/><path opacity=".2" fill="#424242" enable-background="new" d="M403.8 557.2h-214V220.7h214c14.7 0 26.7 11.9 26.7 26.7v283.2c0 14.7-12 26.6-26.7 26.6z"/><path fill="#802B83" d="M395.5 546.2h-214V209.7h214c14.7 0 26.7 11.9 26.7 26.7v283.2c0 14.6-12 26.6-26.7 26.6z"/><path fill="#9B51A0" d="M181.5 209.7h29.4v336.5h-29.4z"/><path fill="#fff" d="M246.9 282.3h131v15.1h-131zM265.6 310.8h93.5v15.1h-93.5z"/></g></svg>