<svg xmlns="http://www.w3.org/2000/svg" xmlns:xlink="http://www.w3.org/1999/xlink" viewBox="0 0 280.7 473.35" width="280.7" height="473.35"><defs><style>.cls-1{fill:none;stroke:#99eaff;stroke-linecap:round;stroke-miterlimit:10;stroke-width:10px;}.cls-2{fill:url(#radial-gradient);}.cls-3{fill:#fff;}.cls-4{fill:#99eaff;}.cls-5{fill:url(#radial-gradient-2);}.cls-6{fill:url(#radial-gradient-3);}</style><radialGradient id="radial-gradient" cx="221.03" cy="118" r="59.67" gradientUnits="userSpaceOnUse"><stop offset="0" stop-color="#fff700"/><stop offset="1" stop-color="#fff700" stop-opacity="0"/></radialGradient><radialGradient id="radial-gradient-2" cx="-7420.66" cy="4059.41" r="59.67" gradientTransform="translate(4210.76 7834.34) rotate(90)" xlink:href="#radial-gradient"/><radialGradient id="radial-gradient-3" cx="59.67" cy="231" r="59.67" xlink:href="#radial-gradient"/></defs><title>icicle light 2</title><g id="Layer_2" data-name="Layer 2"><g id="Layer_1-2" data-name="Layer 1"><polyline class="cls-1" points="151.35 344 129.35 231 151.35 118 129.35 5"/><circle class="cls-2" cx="221.03" cy="118" r="59.67"/><path class="cls-3" d="M198.62,124.62h18.45c6.63,0,15.43-3.94,20.79-4.72a1.92,1.92,0,0,0,1.64-1.9h0a1.92,1.92,0,0,0-1.64-1.9c-5.36-.78-14.16-4.72-20.79-4.72H198.62Z"/><circle class="cls-3" cx="239.5" cy="118" r="2.98"/><path class="cls-4" d="M167.79,94.36h14.39a3.27,3.27,0,0,1,3.27,3.27v33.54A10.46,10.46,0,0,1,175,141.64h0a10.46,10.46,0,0,1-10.46-10.46V97.63a3.27,3.27,0,0,1,3.27-3.27Z" transform="translate(292.99 -56.99) rotate(90)"/><circle class="cls-5" cx="151.35" cy="413.68" r="59.67"/><path class="cls-3" d="M144.73,391.27v18.45c0,6.63,3.94,15.43,4.72,20.79a1.92,1.92,0,0,0,1.9,1.64h0a1.92,1.92,0,0,0,1.9-1.64c.78-5.36,4.72-14.16,4.72-20.79V391.27Z"/><circle class="cls-3" cx="151.35" cy="432.15" r="2.98"/><path class="cls-4" d="M144.16,344h14.39a3.27,3.27,0,0,1,3.27,3.27v33.54a10.46,10.46,0,0,1-10.46,10.46h0a10.46,10.46,0,0,1-10.46-10.46V347.27A3.27,3.27,0,0,1,144.16,344Z" transform="translate(302.7 735.27) rotate(-180)"/><circle class="cls-6" cx="59.67" cy="231" r="59.67"/><path class="cls-3" d="M82.08,224.38H63.63c-6.63,0-15.43,3.94-20.79,4.72A1.92,1.92,0,0,0,41.2,231h0a1.92,1.92,0,0,0,1.64,1.9c5.36.78,14.16,4.72,20.79,4.72H82.08Z"/><circle class="cls-3" cx="41.2" cy="231" r="2.98"/><path class="cls-4" d="M98.52,207.36h14.39a3.27,3.27,0,0,1,3.27,3.27v33.54a10.46,10.46,0,0,1-10.46,10.46h0a10.46,10.46,0,0,1-10.46-10.46V210.63a3.27,3.27,0,0,1,3.27-3.27Z" transform="translate(-125.28 336.72) rotate(-90)"/></g></g></svg>