<?xml version="1.0" encoding="utf-8"?>
<!-- Generator: Adobe Illustrator 19.1.0, SVG Export Plug-In . SVG Version: 6.00 Build 0)  -->
<svg version="1.1" id="World_Wide_Hearing" xmlns="http://www.w3.org/2000/svg" xmlns:xlink="http://www.w3.org/1999/xlink" x="0px"
	 y="0px" width="522px" height="522px" viewBox="0 0 522 522" style="enable-background:new 0 0 522 522;" xml:space="preserve">
<style type="text/css">
	.st0{clip-path:url(#SVGID_2_);}
	.st1{fill:none;stroke:#231F20;stroke-miterlimit:10;}
</style>
<g>
	<defs>
		<circle id="SVGID_1_" cx="260.8" cy="261" r="261.2"/>
	</defs>
	<clipPath id="SVGID_2_">
		<use xlink:href="#SVGID_1_"  style="overflow:visible;"/>
	</clipPath>
	<g class="st0">
		<g>
			<g>
				<g>
					<g>
						<polyline class="st1" points="149.3,421.2 149.5,450.6 127.7,450.7 127.5,421.3 						"/>
					</g>
					<g>
						<polyline class="st1" points="96.7,421.5 96.7,450.9 118.8,450.7 118.4,421.3 						"/>
					</g>
					<g>
						<polyline class="st1" points="149.1,388.3 149.3,421.2 127.5,421.3 127.3,397.9 						"/>
					</g>
					<g>
						<path class="st1" d="M127.7,450.7l21.8-0.1c8.5,16.3,32.2,16.1,35.1,4.3c0,0,11.7,22.4-40.4,19.5
							C131.8,473.6,123.4,462.4,127.7,450.7z"/>
					</g>
					<g>
						<polyline class="st1" points="96.7,388.9 96.7,421.5 118.4,421.3 118.4,397.9 						"/>
					</g>
					<g>
						<path class="st1" d="M118.8,450.7l-22.1,0.1c-8.3,16.4-31.7,16.5-34.7,4.6c0,0-11.5,22.5,40.6,19
							C115,473.7,123.2,462.3,118.8,450.7z"/>
					</g>
				</g>
				<g>
					
						<rect x="80.7" y="337" transform="matrix(-1 5.576691e-03 -5.576691e-03 -1 246.9115 694.2253)" class="st1" width="83.6" height="20.9"/>
				</g>
				<g>
					<path class="st1" d="M80.8,358.1c1.1,22.2,19.5,39.8,42,39.7c22.5-0.1,40.7-18,41.5-40.2L80.8,358.1z"/>
				</g>
				<g>
					<path class="st1" d="M181.9,294.8c-5.1-21.1-30.6-38.3-56.8-38.3c-0.2,0-0.5,0-0.7,0c-0.8,0-1.6-0.1-2.4-0.1
						c-0.7,0-1.5,0-2.2,0.1c-0.3,0-0.6,0-0.9,0c-26.3,0-51.7,17.2-56.8,38.3c-1.8,7.6-0.3,15.1,4.5,21.1c3.4,4.3,8.3,7.9,14,9.9
						l0.1,11.4l83.6-0.5l-0.1-11.4c5.4-2,10-5.4,13.3-9.5C182.2,309.9,183.8,302.4,181.9,294.8z"/>
				</g>
				<g>
					<g>
						<g>
							<g>
								<path class="st1" d="M180.5,103.5c0,4.9-4,8.9-9,8.9c-5,0-9-4-8.9-9c0-4.9,4-8.9,9-8.9C176.5,94.5,180.5,98.5,180.5,103.5z"
									/>
							</g>
						</g>
						<g>
							<path class="st1" d="M97.7,208.6c0,4.1,3.3,7.5,7.4,7.5c4.1,0,7.5-3.3,7.5-7.4c0-4.1-3.3-7.5-7.4-7.5
								C101.1,201.2,97.7,204.5,97.7,208.6z"/>
						</g>
						<g>
							<path class="st1" d="M131.8,208.8c0,4.1,3.3,7.5,7.4,7.5c4.1,0,7.5-3.3,7.5-7.4c0-4.1-3.3-7.5-7.4-7.5
								C135.2,201.3,131.8,204.6,131.8,208.8z"/>
						</g>
						<g>
							<path class="st1" d="M107.5,232.9c0,8.3,6.7,15,14.9,15c8.3,0,15-6.7,15-14.9c0-8.3-6.6-15-14.9-15
								C114.3,217.9,107.5,224.6,107.5,232.9z"/>
						</g>
						<g>
							<path class="st1" d="M74.8,184.8c0,3.1,2.5,5.6,5.5,5.6l83.1,0.3c3.1,0,5.6-2.5,5.6-5.5l0-10.2c0-3.1-2.5-5.6-5.5-5.6
								L80.4,169c-3.1,0-5.6,2.5-5.6,5.5L74.8,184.8z"/>
						</g>
						<path class="st1" d="M177.1,189.9l-13.6,18.3c-1-6.5-3.5-12.4-7.1-17.6l-68.3-0.3c-3.7,5.2-6.3,11.3-7.3,17.8l-13.6-18.3
							c0,0-7.4,46.3,17.2,42.8c6.7,14,21,23.7,37.6,23.8c16.7,0.1,31.1-9.7,37.9-23.8C184.4,236.2,177.1,189.9,177.1,189.9z"/>
						<path class="st1" d="M165.6,110.2c-0.9-0.7-1.6-1.7-2.1-2.7c-25.2,13.7-64.1,47.2-80.3,61.5l73.8,0.3
							C146.9,151.9,159.7,122.1,165.6,110.2z"/>
					</g>
				</g>
				<g>
					<g>
						<g>
							<path class="st1" d="M90.4,312.8c0-8.7,7.1-15.8,15.8-15.8c8.7,0,15.8,7.1,15.8,15.8c0,8.7-7.1,15.8-15.8,15.8
								C97.4,328.6,90.4,321.5,90.4,312.8z"/>
						</g>
						<g>
							<path class="st1" d="M153.7,312.8c0-8.7-7.1-15.8-15.8-15.8c-8.7,0-15.8,7.1-15.8,15.8c0,8.7,7.1,15.8,15.8,15.8
								C146.6,328.6,153.7,321.5,153.7,312.8z"/>
						</g>
					</g>
					<path class="st1" d="M90.4,312.8c0-7.1,4.7-13.1,11.2-15.1c-4.1-1.2-8.6-0.8-12.6,1.5c-7.5,4.4-10.1,14.1-5.7,21.6
						c3.8,6.4,11.4,9.2,18.2,7.1C95.1,325.9,90.4,319.9,90.4,312.8z"/>
					<path class="st1" d="M155,299.1c-4-2.3-8.5-2.7-12.6-1.5c6.5,2,11.2,8,11.2,15.1c0,7.1-4.7,13.1-11.2,15.1
						c6.8,2.1,14.5-0.7,18.2-7.1C165.1,313.2,162.6,303.5,155,299.1z"/>
				</g>
				<line class="st1" x1="122" y1="256.5" x2="122" y2="336.8"/>
				<polygon class="st1" points="110,358 135,357.8 135,336.9 110,337.1 				"/>
				<g>
					<g>
						<path class="st1" d="M97,328.6c-18.8,0-35.7-10.3-35.7-27"/>
						<path class="st1" d="M86.6,300.9c0,0-5.4-0.4-7.4-5.8"/>
					</g>
					<g>
						<path class="st1" d="M147,328.6c18.8,0,35.7-10.3,35.7-27"/>
						<path class="st1" d="M157.4,300.9c0,0,5.4-0.4,7.4-5.8"/>
					</g>
				</g>
			</g>
			<g>
				<g>
					<g>
						<polyline class="st1" points="369.5,421.2 369.3,450.6 391.1,450.7 391.3,421.3 						"/>
					</g>
					<g>
						<polyline class="st1" points="422.1,421.5 422.1,450.9 400,450.7 400.4,421.3 						"/>
					</g>
					<g>
						<polyline class="st1" points="369.7,388.3 369.5,421.2 391.3,421.3 391.5,397.9 						"/>
					</g>
					<g>
						<path class="st1" d="M391.1,450.7l-21.8-0.1c-8.5,16.3-32.2,16.1-35.1,4.3c0,0-11.7,22.4,40.4,19.5
							C387,473.6,395.4,462.4,391.1,450.7z"/>
					</g>
					<g>
						<polyline class="st1" points="422.1,388.9 422.1,421.5 400.4,421.3 400.4,397.9 						"/>
					</g>
					<g>
						<path class="st1" d="M400,450.7l22.1,0.1c8.3,16.4,31.7,16.5,34.7,4.6c0,0,11.5,22.5-40.6,19
							C403.8,473.7,395.6,462.3,400,450.7z"/>
					</g>
				</g>
				<g>
					
						<rect x="354.5" y="337" transform="matrix(1 5.576691e-03 -5.576691e-03 1 1.9438 -2.2047)" class="st1" width="83.6" height="20.9"/>
				</g>
				<g>
					<path class="st1" d="M438,358.1c-1.1,22.2-19.5,39.8-42,39.7c-22.5-0.1-40.7-18-41.5-40.2L438,358.1z"/>
				</g>
				<g>
					<path class="st1" d="M336.9,294.8c5.1-21.1,30.6-38.3,56.8-38.3c0.2,0,0.5,0,0.7,0c0.8,0,1.6-0.1,2.4-0.1c0.7,0,1.5,0,2.2,0.1
						c0.3,0,0.6,0,0.9,0c26.3,0,51.7,17.2,56.8,38.3c1.8,7.6,0.3,15.1-4.5,21.1c-3.4,4.3-8.3,7.9-14,9.9l-0.1,11.4l-83.6-0.5
						l0.1-11.4c-5.4-2-10-5.4-13.3-9.5C336.6,309.9,335,302.4,336.9,294.8z"/>
				</g>
				<g>
					<g>
						<g>
							<g>
								<path class="st1" d="M338.3,103.5c0,4.9,4,8.9,9,8.9c5,0,9-4,8.9-9c0-4.9-4-8.9-9-8.9C342.3,94.5,338.3,98.5,338.3,103.5z"
									/>
							</g>
						</g>
						<g>
							<path class="st1" d="M421.1,208.6c0,4.1-3.3,7.5-7.4,7.5c-4.1,0-7.5-3.3-7.5-7.4c0-4.1,3.3-7.5,7.4-7.5
								C417.7,201.2,421.1,204.5,421.1,208.6z"/>
						</g>
						<g>
							<path class="st1" d="M387,208.8c0,4.1-3.3,7.5-7.4,7.5c-4.1,0-7.5-3.3-7.5-7.4c0-4.1,3.3-7.5,7.4-7.5
								C383.6,201.3,387,204.6,387,208.8z"/>
						</g>
						<g>
							<path class="st1" d="M411.3,232.9c0,8.3-6.7,15-14.9,15c-8.3,0-15-6.7-15-14.9c0-8.3,6.6-15,14.9-15
								C404.5,217.9,411.3,224.6,411.3,232.9z"/>
						</g>
						<g>
							<path class="st1" d="M444,184.8c0,3.1-2.5,5.6-5.5,5.6l-83.1,0.3c-3.1,0-5.6-2.5-5.6-5.5l0-10.2c0-3.1,2.5-5.6,5.5-5.6
								l83.1-0.3c3.1,0,5.6,2.5,5.6,5.5L444,184.8z"/>
						</g>
						<path class="st1" d="M341.7,189.9l13.6,18.3c1-6.5,3.5-12.4,7.1-17.6l68.3-0.3c3.7,5.2,6.3,11.3,7.3,17.8l13.6-18.3
							c0,0,7.4,46.3-17.2,42.8c-6.7,14-21,23.7-37.6,23.8c-16.7,0.1-31.1-9.7-37.9-23.8C334.4,236.2,341.7,189.9,341.7,189.9z"/>
						<path class="st1" d="M353.2,110.2c0.9-0.7,1.6-1.7,2.1-2.7c25.2,13.7,64.1,47.2,80.3,61.5l-73.8,0.3
							C371.9,151.9,359.1,122.1,353.2,110.2z"/>
					</g>
				</g>
				<g>
					<g>
						<g>
							<path class="st1" d="M428.4,312.8c0-8.7-7.1-15.8-15.8-15.8c-8.7,0-15.8,7.1-15.8,15.8c0,8.7,7.1,15.8,15.8,15.8
								C421.4,328.6,428.4,321.5,428.4,312.8z"/>
						</g>
						<g>
							<path class="st1" d="M365.1,312.8c0-8.7,7.1-15.8,15.8-15.8c8.7,0,15.8,7.1,15.8,15.8c0,8.7-7.1,15.8-15.8,15.8
								C372.2,328.6,365.1,321.5,365.1,312.8z"/>
						</g>
					</g>
					<path class="st1" d="M428.4,312.8c0-7.1-4.7-13.1-11.2-15.1c4.1-1.2,8.6-0.8,12.6,1.5c7.5,4.4,10.1,14.1,5.7,21.6
						c-3.8,6.4-11.4,9.2-18.2,7.1C423.7,325.9,428.4,319.9,428.4,312.8z"/>
					<path class="st1" d="M363.8,299.1c4-2.3,8.5-2.7,12.6-1.5c-6.5,2-11.2,8-11.2,15.1c0,7.1,4.7,13.1,11.2,15.1
						c-6.8,2.1-14.5-0.7-18.2-7.1C353.7,313.2,356.2,303.5,363.8,299.1z"/>
				</g>
				<line class="st1" x1="396.8" y1="256.5" x2="396.8" y2="336.8"/>
				<polygon class="st1" points="408.8,358 383.8,357.8 383.8,336.9 408.8,337.1 				"/>
				<g>
					<g>
						<path class="st1" d="M421.8,328.6c18.8,0,35.7-10.3,35.7-27"/>
						<path class="st1" d="M432.2,300.9c0,0,5.4-0.4,7.4-5.8"/>
					</g>
					<g>
						<path class="st1" d="M371.8,328.6c-18.8,0-35.7-10.3-35.7-27"/>
						<path class="st1" d="M361.4,300.9c0,0-5.4-0.4-7.4-5.8"/>
					</g>
				</g>
			</g>
			<g>
				<g>
					<g>
						<g>
							<polyline class="st1" points="233.4,421.2 233.2,450.6 254.9,450.7 255.1,421.3 							"/>
						</g>
						<g>
							<polyline class="st1" points="286,421.1 286,450.5 263.9,450.4 264.3,421 							"/>
						</g>
						<g>
							<polyline class="st1" points="233.7,368.5 233.4,421.2 255.1,421.3 255.5,378 							"/>
						</g>
						<g>
							<path class="st1" d="M255,450.7l-21.8-0.1c-8.5,16.3-32.2,16.1-35.1,4.3c0,0-11.7,22.4,40.4,19.5
								C250.8,473.6,259.2,462.4,255,450.7z"/>
						</g>
						<g>
							<polyline class="st1" points="286.1,369.1 286,421.1 264.3,421 264.3,378.1 							"/>
						</g>
						<g>
							<path class="st1" d="M263.9,450.4l22.1,0.1c8.3,16.4,31.7,16.5,34.7,4.6c0,0,11.5,22.5-40.6,19
								C267.7,473.4,259.5,462,263.9,450.4z"/>
						</g>
					</g>
					<g>
						
							<rect x="218.5" y="317.2" transform="matrix(1 5.576691e-03 -5.576691e-03 1 1.831 -1.4464)" class="st1" width="83.6" height="20.9"/>
					</g>
					<g>
						<path class="st1" d="M302,338.3c-1.1,22.2-19.5,39.8-42,39.7c-22.5-0.1-40.7-18-41.5-40.2L302,338.3z"/>
					</g>
					<g>
						<path class="st1" d="M200.8,274.9c5.1-21.1,30.6-38.3,56.8-38.3c0.2,0,0.5,0,0.7,0c0.8,0,1.6-0.1,2.4-0.1c0.7,0,1.5,0,2.2,0.1
							c0.3,0,0.6,0,0.9,0c26.3,0,51.7,17.2,56.8,38.3c1.8,7.6,0.3,15.1-4.5,21.1c-3.4,4.3-8.3,7.9-14,9.9l-0.1,11.4l-83.6-0.5
							l0.1-11.4c-5.4-2-10-5.4-13.3-9.5C200.6,290,199,282.6,200.8,274.9z"/>
					</g>
					<g>
						<g>
							<g>
								<path class="st1" d="M292.4,292.9c0-8.7-7.1-15.8-15.8-15.8c-8.7,0-15.8,7.1-15.8,15.8c0,8.7,7.1,15.8,15.8,15.8
									C285.3,308.7,292.4,301.6,292.4,292.9z"/>
							</g>
							<g>
								<path class="st1" d="M229.1,292.9c0-8.7,7.1-15.8,15.8-15.8c8.7,0,15.8,7.1,15.8,15.8c0,8.7-7.1,15.8-15.8,15.8
									C236.2,308.7,229.1,301.6,229.1,292.9z"/>
							</g>
						</g>
						<path class="st1" d="M292.4,292.9c0-7.1-4.7-13.1-11.2-15.1c4.1-1.2,8.6-0.8,12.6,1.5c7.5,4.4,10.1,14.1,5.7,21.6
							c-3.8,6.4-11.4,9.2-18.2,7.1C287.7,306.1,292.4,300,292.4,292.9z"/>
						<path class="st1" d="M227.7,279.3c4-2.3,8.5-2.7,12.6-1.5c-6.5,2-11.2,8-11.2,15.1c0,7.1,4.7,13.1,11.2,15.1
							c-6.8,2.1-14.5-0.7-18.2-7.1C217.7,293.4,220.2,283.7,227.7,279.3z"/>
					</g>
					<line class="st1" x1="260.8" y1="236.7" x2="260.8" y2="316.9"/>
					<polygon class="st1" points="272.8,338.1 247.8,338 247.8,317.1 272.8,317.2 					"/>
					<g>
						<g>
							<path class="st1" d="M285.8,308.7c18.8,0,35.7-10.3,35.7-27"/>
							<path class="st1" d="M296.2,281c0,0,5.4-0.4,7.4-5.8"/>
						</g>
						<g>
							<path class="st1" d="M235.8,308.7c-18.8,0-35.7-10.3-35.7-27"/>
							<path class="st1" d="M225.4,281c0,0-5.4-0.4-7.4-5.8"/>
						</g>
					</g>
					<g>
						<g>
							<g>
								<path class="st1" d="M304.3,219L304.3,219c-3.1,0-5.5-2.5-5.5-5.5v-33.7c0-3.1,2.5-5.5,5.5-5.5h0c3.1,0,5.5,2.5,5.5,5.5
									v33.7C309.9,216.5,307.4,219,304.3,219z"/>
								<path class="st1" d="M309.9,179.9c9.2,0,16.7,7.5,16.7,16.7s-7.5,16.7-16.7,16.7V179.9z"/>
							</g>
							<g>
								<path class="st1" d="M217.2,219L217.2,219c3.1,0,5.5-2.5,5.5-5.5v-33.7c0-3.1-2.5-5.5-5.5-5.5h0c-3.1,0-5.5,2.5-5.5,5.5
									v33.7C211.7,216.5,214.2,219,217.2,219z"/>
								<path class="st1" d="M211.7,179.9c-9.2,0-16.7,7.5-16.7,16.7s7.5,16.7,16.7,16.7V179.9z"/>
							</g>
						</g>
						<g>
							<path class="st1" d="M309.9,179.8v0.2c2.5,0,4.8,0.6,7,1.5c-0.2-6.5-1-11.4-1-11.4l-6.2,8.3
								C309.8,178.8,309.9,179.3,309.9,179.8z"/>
							<path class="st1" d="M211.7,179.9v-0.2c0-0.6,0.1-1.2,0.3-1.7l-5.9-8c0,0-0.8,4.8-1,11.2
								C207.1,180.4,209.3,179.9,211.7,179.9z"/>
							<path class="st1" d="M298.8,179.8c0-0.5,0.1-1,0.2-1.5c-1.2-2.7-2.6-5.3-4.4-7.8l-68.3,0.3c-1.5,2.2-2.9,4.6-4,7.1
								c0.2,0.6,0.3,1.2,0.3,1.9v33.1c0,0,0.1,0,0.1,0c6.8,14.1,21.2,23.8,37.9,23.7c16.6-0.1,30.9-9.8,37.6-23.8
								c0.1,0,0.3,0,0.4,0.1V179.8z"/>
						</g>
						<g>
							<path class="st1" d="M269.8,188.8c0-2.1,0.8-4,2.3-5.5c1.5-1.5,3.4-2.3,5.5-2.3c0,0,0,0,0,0c2.1,0,4,0.8,5.5,2.3
								c1.5,1.5,2.3,3.4,2.3,5.5"/>
						</g>
						<g>
							<path class="st1" d="M235.7,189c0-4.3,3.5-7.8,7.8-7.8c0,0,0,0,0,0c4.3,0,7.8,3.5,7.8,7.8"/>
						</g>
						<g>
							<path class="st1" d="M275.3,213c0,8.3-6.7,15-14.9,15c-8.3,0-15-6.7-15-14.9c0-8.3,6.6-15,14.9-15
								C268.5,198.1,275.2,204.7,275.3,213z"/>
						</g>
						<g>
							<path class="st1" d="M308,164.9c0,3.1-2.5,5.6-5.5,5.6l-83.1,0.3c-3.1,0-5.6-2.5-5.6-5.5l0-10.2c0-3.1,2.5-5.6,5.5-5.6
								l83.1-0.3c3.1,0,5.6,2.5,5.6,5.5L308,164.9z"/>
						</g>
						<g>
							<g>
								<path class="st1" d="M202.3,83.6c0,4.9,4,8.9,9,8.9c5,0,9-4,8.9-9c0-4.9-4-8.9-9-8.9C206.3,74.6,202.3,78.7,202.3,83.6z"/>
							</g>
						</g>
						<path class="st1" d="M299.5,149.2c-16.2-14.3-55.1-47.8-80.3-61.5c-0.5,1-1.2,1.9-2.1,2.7c5.9,11.9,18.8,41.7,8.6,59.1
							L299.5,149.2z"/>
						<path class="st1" d="M304.3,174.3c0.8,0,1.5,0.2,2.2,0.5c-0.5-1.6-1.1-3.2-1.7-4.7c-0.7,0.3-1.5,0.5-2.4,0.5l-83.1,0.3
							c-0.9,0-1.7-0.2-2.5-0.6c-0.6,1.4-1.1,2.8-1.6,4.3c0.6-0.2,1.2-0.3,1.9-0.3c2.4,0,4.4,1.5,5.2,3.6c1.1-2.5,2.4-4.9,4-7.1
							l68.3-0.3c1.7,2.4,3.2,5,4.4,7.7C299.7,176,301.8,174.3,304.3,174.3z"/>
					</g>
				</g>
			</g>
		</g>
		<line class="st1" x1="66.8" y1="474.6" x2="454.7" y2="474.6"/>
	</g>
</g>
<g>
	<circle class="st1" cx="273" cy="81.9" r="7.6"/>
	<circle class="st1" cx="303.6" cy="74.3" r="7.6"/>
	<rect x="280.6" y="42.3" class="st1" width="30.6" height="10.2"/>
	<line class="st1" x1="280.6" y1="52.4" x2="280.6" y2="81.9"/>
	<line class="st1" x1="311.2" y1="52.4" x2="311.2" y2="74.3"/>
</g>
<g>
	<circle class="st1" cx="19.5" cy="272.5" r="7.6"/>
	<circle class="st1" cx="50.1" cy="264.9" r="7.6"/>
	<rect x="27.1" y="232.9" class="st1" width="30.6" height="10.2"/>
	<line class="st1" x1="27.1" y1="243" x2="27.1" y2="272.5"/>
	<line class="st1" x1="57.7" y1="243" x2="57.7" y2="264.9"/>
</g>
<g>
	<circle class="st1" cx="409.5" cy="122.2" r="7.6"/>
	<rect x="417.1" y="90.2" class="st1" width="15.3" height="10.2"/>
	<line class="st1" x1="417.1" y1="100.3" x2="417.1" y2="122.2"/>
</g>
<g>
	<circle class="st1" cx="476.3" cy="257.2" r="7.6"/>
	<rect x="483.9" y="225.2" class="st1" width="15.3" height="10.2"/>
	<line class="st1" x1="483.9" y1="235.4" x2="483.9" y2="257.2"/>
</g>
<g>
	<circle class="st1" cx="90" cy="124.6" r="7.6"/>
	<rect x="97.7" y="92.6" class="st1" width="15.3" height="10.2"/>
	<line class="st1" x1="97.7" y1="102.7" x2="97.7" y2="124.6"/>
</g>
</svg>
