<svg xmlns="http://www.w3.org/2000/svg" viewBox="0 0 261.9 427.84"><defs><style>.cls-1,.cls-10,.cls-11,.cls-5,.cls-6,.cls-7{fill:none;stroke-linecap:round;}.cls-1{stroke:#bc955c;}.cls-1,.cls-11,.cls-5,.cls-6,.cls-7{stroke-linejoin:round;}.cls-1,.cls-5,.cls-6{stroke-width:15px;}.cls-2{fill:#39f;}.cls-3{fill:#b3b3b3;}.cls-4{fill:#e0e0e0;}.cls-5{stroke:#e1b77d;}.cls-6,.cls-7{stroke:#e1b77e;}.cls-7{stroke-width:70px;}.cls-8{fill:#e1b77e;}.cls-9{fill:#fff;}.cls-10{stroke:#76777a;stroke-miterlimit:10;stroke-width:6px;}.cls-11{stroke:#202020;stroke-width:2.64px;}.cls-12{fill:#e53935;}</style></defs><title>ice skating</title><g id="Layer_2" data-name="Layer 2"><g id="Layer_1-2" data-name="Layer 1"><path class="cls-1" d="M134.06,306.63C124.62,356.48,87.59,364,70.5,350.3"/><path class="cls-2" d="M50,348.33l13.44,10.79,13.16-16.38L50.1,321.48a4.28,4.28,0,0,0-6,.66L23.48,347.76a4.31,4.31,0,0,0,1.61,6.63A21,21,0,0,0,50,348.33Z"/><path class="cls-3" d="M-1.39,329.19H62.81a0,0,0,0,1,0,0v0a7.31,7.31,0,0,1-7.31,7.31H5.93a7.31,7.31,0,0,1-7.31-7.31v0a0,0,0,0,1,0,0Z" transform="translate(309.43 517.36) rotate(128.77)"/><path class="cls-4" d="M106,299.39a11.94,11.94,0,0,1-11.9,12c-30.14,0-33.21-17.35-33.21-24H94.12A11.94,11.94,0,0,1,106,299.39Z"/><path class="cls-5" d="M86,296.32c22,46.84,34.77,33.72,34.77,85.91"/><path class="cls-2" d="M130.93,399.47V382.23h-21v34a4.3,4.3,0,0,0,4.3,4.3h32.86a4.31,4.31,0,0,0,4.16-5.42A21,21,0,0,0,130.93,399.47Z"/><path class="cls-3" d="M98.83,420.53H163a0,0,0,0,1,0,0v0a7.31,7.31,0,0,1-7.31,7.31H106.15a7.31,7.31,0,0,1-7.31-7.31v0A0,0,0,0,1,98.83,420.53Z"/><line class="cls-6" x1="156.1" y1="173.37" x2="254.4" y2="105.09"/><line class="cls-6" x1="105.8" y1="173.37" x2="7.5" y2="105.09"/><line class="cls-7" x1="128.84" y1="181.74" x2="112.68" y2="290.17"/><path class="cls-8" d="M159.27,82.48c-10.75,22-35.1,66.17-35.1,66.17l23.87,42,41.27-84.25C200.22,84,168.21,64.16,159.27,82.48Z"/><path class="cls-9" d="M190,105.09s-49.9-1.42-29.55,60.31Z"/><path class="cls-10" d="M171.19,68.71l-13.44-17a7.25,7.25,0,0,0-10.16-1.19L130.58,64a7.25,7.25,0,0,1-10.15-1.18l-6-7.56A7.24,7.24,0,0,0,104.31,54L93,63"/><path class="cls-10" d="M161.72,56.72,171.5,49a7.24,7.24,0,0,0,1.18-10.15l-7-8.82a7.24,7.24,0,0,0-10.15-1.19L142.33,39.32a7.25,7.25,0,0,1-10.15-1.19L116.24,18"/><path class="cls-10" d="M114.51,41.86l22.77-18a7.25,7.25,0,0,0,1.19-10.15L130,3"/><path class="cls-10" d="M130.35,65.78l4.48,5.67a7.24,7.24,0,0,1-1.19,10.15l-11.81,9.33"/><path class="cls-8" d="M165.31,101.49c-15.2-19.23,2.51-39.17,15.24-37.68,0,0,24.84-4.69,42.32-4.92s16.75,12.59,9.22,18.54l-34.23,27.14C188.88,111.66,174.27,112.83,165.31,101.49Z"/><path class="cls-11" d="M192.08,80.34h0a6.4,6.4,0,0,1,1-9h0a6.4,6.4,0,0,1,9,1.05h0"/><path class="cls-12" d="M235.94,73.4a10.3,10.3,0,0,0,10.27-10.32h0A10.3,10.3,0,0,0,235.9,52.8h0a10.28,10.28,0,0,0-10.27,10.32h0A10.3,10.3,0,0,0,235.94,73.4Z"/></g></g></svg>