<svg xmlns="http://www.w3.org/2000/svg" viewBox="0 0 294.62 360.91"><defs><style>.cls-1{fill:#fff;opacity:0.3;}.cls-2,.cls-5{fill:none;stroke-linecap:round;stroke-miterlimit:10;stroke-width:22.58px;}.cls-2{stroke:#cddc39;}.cls-3{fill:#b5cc0e;}.cls-4{fill:#cddc39;}.cls-5{stroke:#e7ef41;}</style></defs><title>mug</title><g id="Layer_2" data-name="Layer 2"><g id="Layer_1-2" data-name="Layer 1"><path class="cls-1" d="M217.06,0H119.79a15.88,15.88,0,0,0-15.88,15.89c0,14.75-13.19,15.88-13.19,15.88H71.16a15.89,15.89,0,1,0,0,31.78H95.59v.05c15.61,0,15.67,15.84,15.67,15.84a15.88,15.88,0,0,0,15.89,15.88h59.46a15.89,15.89,0,1,0,0-31.77H166.82a15.89,15.89,0,1,1,0-31.78h50.24a15.89,15.89,0,1,0,0-31.77Z"/><circle class="cls-2" cx="240.36" cy="249.31" r="42.96"/><path class="cls-3" d="M250.82,279.07A31.29,31.29,0,0,1,240.36,281a31.67,31.67,0,1,1,0-63.34,31.29,31.29,0,0,1,10.46,1.91V196.09a54.25,54.25,0,1,0,0,106.44Z"/><rect class="cls-4" x="22.1" y="137.71" width="204.96" height="223.19" rx="17.14" ry="17.14"/><rect class="cls-4" y="118.93" width="250.81" height="37.57" rx="18.78" ry="18.78"/><rect class="cls-3" x="22.1" y="156.5" width="204.96" height="23.2"/><line class="cls-5" x1="62.37" y1="208.33" x2="62.37" y2="324.45"/></g></g></svg>