<svg xmlns="http://www.w3.org/2000/svg" viewBox="0 0 360.82 373.12"><defs><style>.cls-1{fill:#1d9904;}.cls-2{fill:#af0000;}.cls-3{fill:#fff;}.cls-4{fill:#e51b23;}.cls-5{fill:#231f20;}.cls-11,.cls-5{opacity:0.1;}.cls-6{fill:#607d8b;}.cls-10,.cls-7,.cls-9{fill:none;}.cls-7{stroke:#607d8b;stroke-width:3.65px;}.cls-7,.cls-9{stroke-miterlimit:10;}.cls-8{fill:#ffde00;}.cls-9{stroke:#fff;stroke-linecap:round;stroke-width:3.75px;}</style></defs><title>ornament</title><g id="Layer_2" data-name="Layer 2"><g id="Layer_1-2" data-name="Layer 1"><path class="cls-1" d="M121.92,59l6.26-14L103.64,34l-6.3,14A78.37,78.37,0,1,0,121.92,59Z"/><circle class="cls-2" cx="53.18" cy="73.74" r="4.98"/><circle class="cls-3" cx="63.38" cy="110.56" r="4.98"/><circle class="cls-2" cx="98.32" cy="126.25" r="4.98"/><circle class="cls-4" cx="84.87" cy="93.2" r="4.98"/><circle class="cls-3" cx="126.69" cy="81.34" r="4.98"/><circle class="cls-3" cx="96.44" cy="154.78" r="4.98"/><circle class="cls-3" cx="119.99" cy="114.4" r="4.98"/><circle class="cls-3" cx="91.56" cy="61.61" r="4.98"/><circle class="cls-2" cx="86.12" cy="184.02" r="4.98"/><circle class="cls-2" cx="41.76" cy="135.72" r="4.98"/><circle class="cls-4" cx="131.17" cy="157.33" r="4.98"/><circle class="cls-3" cx="16.62" cy="143.14" r="4.98"/><circle class="cls-4" cx="25.59" cy="93.62" r="4.98"/><circle class="cls-4" cx="66.28" cy="134.67" r="4.98"/><circle class="cls-4" cx="49.31" cy="178.43" r="4.98"/><path class="cls-5" d="M152.28,96.28A77.83,77.83,0,0,0,122,58.87L128.18,45l-12.27-5.5-5.82,13A86.19,86.19,0,0,1,46.58,195.64a78.31,78.31,0,0,0,105.7-99.36Z"/><path class="cls-6" d="M106.08,25.13a.36.36,0,0,0-.47.18l-4.09,9.11-3.87,8.65a.36.36,0,0,0,.45.48l5.69-2.17a.35.35,0,0,1,.46.2l2.35,6.17a.36.36,0,0,0,.46.21l6.17-2.35a.36.36,0,0,1,.46.2L116,52a.36.36,0,0,0,.46.21l6.16-2.35a.35.35,0,0,1,.46.2l2.17,5.7a.36.36,0,0,0,.66,0l3.88-8.65L133.91,38a.36.36,0,0,0-.18-.47Z"/><path class="cls-7" d="M115.64,43.08l14.18-31.64a6.82,6.82,0,0,0-3.44-9h0a6.81,6.81,0,0,0-9,3.43l-4,9"/><path class="cls-8" d="M253.31,115.38l-8-13L222.39,116.4l8,13.11a78.38,78.38,0,1,0,22.88-14.13Z"/><path class="cls-5" d="M300.45,111.85a77.85,77.85,0,0,0-48,3.93l-7.93-13-11.47,7L240.48,122a86.2,86.2,0,0,1,82.38,133.2,78.31,78.31,0,0,0-22.41-143.33Z"/><path class="cls-6" d="M216.44,109.38a.35.35,0,0,0-.12.48l5.22,8.51,5,8.09a.36.36,0,0,0,.65-.11l1.42-5.93a.36.36,0,0,1,.43-.26l6.42,1.54a.36.36,0,0,0,.43-.26l1.54-6.42a.34.34,0,0,1,.42-.26l6.42,1.54a.36.36,0,0,0,.43-.27l1.54-6.41a.37.37,0,0,1,.43-.27l5.93,1.43a.36.36,0,0,0,.38-.54l-5-8.08-5.22-8.51a.36.36,0,0,0-.49-.12Z"/><path class="cls-7" d="M236.65,111.61,218.53,82.05a6.83,6.83,0,0,0-9.39-2.25h0a6.82,6.82,0,0,0-2.25,9.38l5.16,8.42"/><line class="cls-9" x1="235.93" y1="210.43" x2="254.23" y2="209.95"/><line class="cls-9" x1="240.71" y1="218.23" x2="249.44" y2="202.14"/><line class="cls-9" x1="249.86" y1="217.99" x2="240.3" y2="202.39"/><line class="cls-9" x1="272.76" y1="187.85" x2="291.05" y2="187.37"/><line class="cls-9" x1="277.54" y1="195.65" x2="286.27" y2="179.56"/><line class="cls-9" x1="286.69" y1="195.41" x2="277.12" y2="179.81"/><line class="cls-9" x1="309.58" y1="165.27" x2="327.88" y2="164.79"/><line class="cls-9" x1="314.37" y1="173.07" x2="323.1" y2="156.98"/><line class="cls-9" x1="323.51" y1="172.83" x2="313.95" y2="157.23"/><circle class="cls-10" cx="300.4" cy="176.13" r="5.03"/><circle class="cls-10" cx="263.21" cy="198.93" r="5.03"/><circle class="cls-10" cx="226.8" cy="221.26" r="5.03"/><circle class="cls-10" cx="337.19" cy="153.57" r="5.03"/><path class="cls-3" d="M204.41,194.76a77.18,77.18,0,0,0,1.73,10.72l126.48-77.55a78.28,78.28,0,0,0-8.87-6.34Z"/><path class="cls-3" d="M360.26,178.86a77,77,0,0,0-2-10.56L230.47,246.65a77.54,77.54,0,0,0,8.51,6.57Z"/><path class="cls-4" d="M233,316.88c.71-8.22-2.44-26.12-37.19-42.35-33.93-15.84-34.6-26.63-34.6-26.63l-9-1.38-9-1.37s-3.84,10.1-40.95,15.15c-39.24,5.34-46.85,22.39-48.25,30.15h0s-1.13,7.37-1.07,7.95c-.65,8.4,3,28.54,45.64,47.58,22.44,10,30,19.74,32.57,25.67a2.43,2.43,0,0,0,4.07.62c4.18-4.9,14.31-11.93,38.73-14.83,47.1-5.58,56.11-24.2,57.79-32.23h0A44.1,44.1,0,0,0,233,316.88Z"/><polygon class="cls-3" points="165.98 297.79 157.88 300.95 160.26 295.52 157.37 294.25 153.71 302.58 144.8 306.07 146.24 296.6 153.56 291.21 151.69 288.66 146.91 292.18 148.22 283.58 145.09 283.11 143.78 291.7 140.26 286.92 137.71 288.8 143.11 296.13 141.67 305.59 134.19 299.62 133.18 290.57 130.04 290.92 130.7 296.82 123.9 291.39 121.93 293.86 128.72 299.29 122.82 299.95 123.17 303.09 132.21 302.09 139.69 308.07 130.78 311.55 122.44 307.9 121.17 310.8 126.61 313.18 118.51 316.35 119.66 319.3 127.76 316.13 125.38 321.56 128.28 322.84 131.93 314.5 140.85 311.01 139.41 320.48 132.08 325.87 133.95 328.42 138.73 324.9 137.43 333.5 140.56 333.98 141.86 325.38 145.38 330.16 147.93 328.28 142.54 320.96 143.97 311.49 151.45 317.47 152.46 326.51 155.6 326.16 154.95 320.26 161.74 325.69 163.72 323.22 156.93 317.79 162.82 317.13 162.47 313.99 153.43 315 145.95 309.02 154.87 305.53 163.2 309.18 164.47 306.28 159.04 303.9 167.13 300.74 165.98 297.79"/><polygon class="cls-3" points="89.01 312.82 81.68 318.21 83.56 320.76 88.34 317.24 87.03 325.84 90.16 326.31 91.47 317.72 94.98 322.5 97.53 320.62 92.14 313.3 93.58 303.83 101.06 309.81 102.06 318.85 105.21 318.5 104.55 312.6 111.34 318.03 113.32 315.56 106.53 310.13 112.43 309.47 112.08 306.32 103.03 307.34 95.56 301.36 104.47 297.87 112.81 301.52 114.08 298.62 108.64 296.24 116.74 293.07 115.59 290.13 107.49 293.29 109.87 287.86 106.97 286.58 103.32 294.92 94.4 298.41 95.84 288.94 103.17 283.55 101.29 281 96.51 284.52 97.82 275.92 94.69 275.44 93.39 284.04 89.87 279.26 87.32 281.14 92.71 288.47 91.27 297.93 83.8 291.95 82.79 282.91 79.64 283.26 80.3 289.16 73.51 283.73 71.53 286.2 78.32 291.63 72.42 292.29 72.78 295.43 81.82 294.43 89.3 300.4 80.38 303.89 72.05 300.24 70.78 303.14 76.21 305.52 68.11 308.69 69.27 311.64 77.36 308.47 74.98 313.9 77.88 315.17 81.53 306.84 90.45 303.35 89.01 312.82"/><polygon class="cls-3" points="213.22 324.8 212.87 321.65 203.82 322.66 196.35 316.68 205.26 313.19 213.6 316.84 214.87 313.94 209.43 311.56 217.53 308.4 216.38 305.45 208.28 308.61 210.66 303.18 207.76 301.91 204.11 310.24 195.19 313.73 196.63 304.26 203.96 298.87 202.09 296.32 197.31 299.84 198.61 291.24 195.48 290.77 194.18 299.36 190.66 294.58 188.11 296.46 193.5 303.79 192.06 313.25 184.59 307.28 183.58 298.23 180.43 298.58 181.09 304.48 174.3 299.05 172.32 301.52 179.11 306.95 173.22 307.61 173.57 310.75 182.61 309.75 190.09 315.73 181.17 319.21 172.84 315.56 171.57 318.46 177 320.84 168.9 324.01 170.06 326.96 178.15 323.79 175.78 329.23 178.68 330.5 182.32 322.16 191.24 318.68 189.8 328.14 182.47 333.53 184.35 336.08 189.13 332.56 187.82 341.16 190.95 341.64 192.26 333.04 195.78 337.82 198.32 335.94 192.93 328.62 194.37 319.15 201.85 325.13 202.85 334.17 206 333.82 205.34 327.93 212.13 333.36 214.11 330.88 207.32 325.45 213.22 324.8"/><path class="cls-3" d="M202.17,277.7l-107-16.26c-3,.57-5.7,1.23-8.28,1.94L209.51,282C207.26,280.57,204.86,279.13,202.17,277.7Z"/><path class="cls-3" d="M86,339.77l101.7,15.46q4.37-.9,8.17-2l-117.1-17.8Q82.1,337.61,86,339.77Z"/><g class="cls-11"><path d="M233,316.89c.71-8.22-2.44-26.13-37.2-42.36-33.93-15.84-34.6-26.63-34.6-26.63l-9-1.38-7.75-1.17S246.57,326,125.79,363.78a29.78,29.78,0,0,1,5.53,8.08,2.1,2.1,0,0,0,3.57.47c3.86-4.74,13.77-11.9,39-14.89,47.09-5.58,56.11-24.19,57.79-32.22h0A45.17,45.17,0,0,0,233,316.89Z"/></g><path class="cls-6" d="M139.52,229.57a.36.36,0,0,0-.4.3l-1.5,9.87-1.43,9.37a.36.36,0,0,0,.57.34l4.91-3.61a.34.34,0,0,1,.49.07l3.91,5.32a.35.35,0,0,0,.5.07l5.32-3.91a.34.34,0,0,1,.49.08l3.92,5.31a.35.35,0,0,0,.49.08l5.32-3.92a.35.35,0,0,1,.49.08l3.62,4.91a.36.36,0,0,0,.64-.16l1.42-9.37,1.5-9.87a.35.35,0,0,0-.3-.4Z"/><path class="cls-6" d="M155.34,244.59l-3.61-.55,5.21-34.28a5,5,0,0,0-9.88-1.5L145.57,218l-3.61-.55,1.49-9.76a8.65,8.65,0,0,1,17.1,2.6Z"/></g></g></svg>