<svg xmlns="http://www.w3.org/2000/svg" viewBox="0 0 213.07 443.41"><defs><style>.cls-1{isolation:isolate;}.cls-2{fill:#fff;}.cls-3,.cls-4,.cls-9{fill:none;stroke-linecap:round;stroke-linejoin:round;}.cls-3{stroke:#e1b77e;}.cls-3,.cls-4{stroke-width:16.48px;}.cls-4{stroke:#bc955c;}.cls-5{fill:#d3af72;}.cls-6{fill:#bc955c;}.cls-7{fill:#e1b77e;}.cls-8{fill:#1c191a;opacity:0.1;}.cls-9{stroke:#20201f;stroke-width:2.23px;}.cls-10{fill:#76777a;}.cls-11{fill:#231f20;opacity:0.2;mix-blend-mode:multiply;}.cls-12{fill:#e53935;}</style></defs><title>reindeer</title><g class="cls-1"><g id="Layer_2" data-name="Layer 2"><g id="Layer_1-2" data-name="Layer 1"><path class="cls-2" d="M164.88,270.74a11.72,11.72,0,0,0,16.58-.36c20.37-21.44,10.11-35.36,5.4-39.84L164.4,254.17A11.72,11.72,0,0,0,164.88,270.74Z"/><path class="cls-3" d="M88,173.77C32.9,135.6,23.22,108.38,8.24,82.2"/><line class="cls-4" x1="125.38" y1="330.45" x2="124.47" y2="435.17"/><line class="cls-3" x1="159.91" y1="325.58" x2="170.29" y2="434.95"/><path class="cls-5" d="M157.59,339.43a43.87,43.87,0,0,1-47.21-17c-14.89-21-24.95-51-29.91-89.22A382.66,382.66,0,0,1,77.27,185s-.5-41.5,41.73-41.76c47.87-.3,46,42.66,46,42.66v-.07A299.56,299.56,0,0,0,167.59,223c4.24,31.68,11.45,44.63,14.35,48.72a43.88,43.88,0,0,1-24.35,67.71Z"/><path class="cls-6" d="M157.59,339.43a43.87,43.87,0,0,1-47.21-17c-14.89-21-24.95-51-29.91-89.22A382.66,382.66,0,0,1,77.27,185s-.5-41.5,41.73-41.76c47.87-.3,46,42.66,46,42.66v-.07A299.56,299.56,0,0,0,167.59,223c4.24,31.68,11.45,44.63,14.35,48.72a43.88,43.88,0,0,1-24.35,67.71Z"/><path class="cls-7" d="M162.54,338.1c-15.43,4.16-32.78-2.53-43-18.12-14-21.26-23.86-51.32-29.34-89.37-3.75-26-23.51-94.66,32.39-88.38,42.91,4.83,42.59,43.57,42.59,43.57v-.06a332.59,332.59,0,0,0,3.35,37c4.66,31.56,11.5,44.61,14.23,48.75,13.15,20,9.67,47.05-7.79,60.43A35.72,35.72,0,0,1,162.54,338.1Z"/><path class="cls-7" d="M145.65,190,132.14,92.22a25.24,25.24,0,1,0-50,6.91l15,108.34"/><path class="cls-2" d="M114.08,144.3A19.07,19.07,0,0,0,128.48,134a16.83,16.83,0,0,1,2.4,6.6l5.36,38.8A16.84,16.84,0,0,1,102.87,184l-5.36-38.8a16.71,16.71,0,0,1,.37-6.48A19,19,0,0,0,114.08,144.3Z"/><path class="cls-8" d="M103.68,70.67c.77-.11,1.53-.16,2.29-.2a29.12,29.12,0,0,1,24.1,24.73l1.59,11.47c7.41,53.59-21.81,70.54-41.83,48.15l-7.7-55.69A25.24,25.24,0,0,1,103.68,70.67Z"/><path class="cls-7" d="M83.45,108.69l-1.32-9.56a25.24,25.24,0,1,1,50-6.91l1.37,10C142.29,165.67,91.91,169.84,83.45,108.69Z"/><path class="cls-7" d="M129.87,88.88l11.8-21.71s15.31,49.66-13.54,47.3Z"/><path class="cls-7" d="M85.42,95,68.19,77.33s-1.28,52,25.85,41.85Z"/><path class="cls-9" d="M126,98h0a5.46,5.46,0,0,0-6.16-4.64h0a5.45,5.45,0,0,0-4.64,6.16h0"/><path class="cls-9" d="M89.23,103.06h0a5.45,5.45,0,0,1,4.66-6.14h0a5.45,5.45,0,0,1,6.14,4.67h0"/><path class="cls-10" d="M63.23,38.7l16.68-2.3A10.08,10.08,0,0,0,88.51,25L85.9,6.14a3.36,3.36,0,1,0-6.65.92L81.86,26A3.35,3.35,0,0,1,79,29.74L62.31,32.05a3.36,3.36,0,1,0,.92,6.65Z"/><path class="cls-10" d="M97,77.65a3.36,3.36,0,0,0,2.87-3.79l-3-22a10.08,10.08,0,0,0-11.36-8.6L67.89,45.71a3.36,3.36,0,0,1-3.78-2.87L62.64,32.28a10.08,10.08,0,0,0-11.35-8.6L30.06,26.61A3.36,3.36,0,0,0,31,33.27l21.24-2.94A3.36,3.36,0,0,1,56,33.2l1.47,10.56a10.08,10.08,0,0,0,11.35,8.6l17.58-2.43a3.36,3.36,0,0,1,3.79,2.86l3,22A3.36,3.36,0,0,0,97,77.65Z"/><path class="cls-10" d="M51.64,70.42l16.71-2.31A10.09,10.09,0,0,0,77,56.75l-1-6.87a3.36,3.36,0,1,0-6.65.92l1,6.87a3.37,3.37,0,0,1-2.87,3.79L50.72,63.77a3.36,3.36,0,0,1-3.78-2.87l-2.1-15.15a3.36,3.36,0,0,0-6.65.92l2.1,15.15A10.08,10.08,0,0,0,51.64,70.42Z"/><path class="cls-10" d="M133.36,29l-16.68,2.3a10.08,10.08,0,0,1-11.36-8.59l-2.61-18.9a3.36,3.36,0,1,1,6.65-.92L112,21.8a3.35,3.35,0,0,0,3.79,2.86l16.68-2.3a3.36,3.36,0,1,1,.92,6.65Z"/><path class="cls-10" d="M111.42,75.66a3.37,3.37,0,0,1-3.79-2.87l-3-22a10.08,10.08,0,0,1,8.6-11.35L130.78,37a3.36,3.36,0,0,0,2.86-3.79l-1.46-10.56a10.08,10.08,0,0,1,8.6-11.36L162,8.38a3.36,3.36,0,1,1,.92,6.65L141.7,18a3.37,3.37,0,0,0-2.87,3.79l1.46,10.56a10.08,10.08,0,0,1-8.6,11.36L114.11,46.1a3.36,3.36,0,0,0-2.87,3.78l3,22A3.35,3.35,0,0,1,111.42,75.66Z"/><path class="cls-10" d="M153.12,56.39,136.41,58.7a10.08,10.08,0,0,1-11.36-8.59l-1-6.88a3.36,3.36,0,0,1,6.65-.92l.95,6.88a3.36,3.36,0,0,0,3.79,2.86l16.71-2.31A3.36,3.36,0,0,0,155.07,46L153,30.81a3.36,3.36,0,1,1,6.65-.92L161.72,45A10.08,10.08,0,0,1,153.12,56.39Z"/><path class="cls-3" d="M153.74,171.52c34.22-63.69,57.61-4.49,49.47,35.35"/><path class="cls-11" d="M114.47,140a11.16,11.16,0,0,1-11.13-11.19h0a11.15,11.15,0,0,1,11.17-11.13h0a11.14,11.14,0,0,1,11.13,11.18h0A11.15,11.15,0,0,1,114.47,140Z"/><path class="cls-12" d="M112,137.41a11.15,11.15,0,0,1-11.13-11.18h0A11.15,11.15,0,0,1,112,115.1h0a11.14,11.14,0,0,1,11.13,11.18h0A11.14,11.14,0,0,1,112,137.41Z"/></g></g></g></svg>