<svg xmlns="http://www.w3.org/2000/svg" viewBox="0 0 243.25 394"><defs><style>.cls-1{isolation:isolate;}.cls-10,.cls-2{fill:none;stroke:#e53935;}.cls-2{stroke-miterlimit:10;stroke-width:36.03px;}.cls-3{fill:#f9ce1d;}.cls-4{fill:#f9f9f9;}.cls-5{fill:#8c6e63;}.cls-12,.cls-6,.cls-9{fill:#221f1f;}.cls-6{opacity:0.2;}.cls-11,.cls-6,.cls-9{mix-blend-mode:multiply;}.cls-7{fill:#e53935;}.cls-8{fill:#212121;}.cls-11,.cls-9{opacity:0.15;}.cls-10{stroke-linecap:round;stroke-linejoin:round;stroke-width:39.84px;}.cls-13{fill:#ef9a9a;}.cls-14{fill:#f7caad;}</style></defs><title>santa</title><g class="cls-1"><g id="Layer_2" data-name="Layer 2"><g id="Layer_1-2" data-name="Layer 1"><path class="cls-2" d="M25.6,213.48s-35.85-56.38,48.32-70"/><path class="cls-3" d="M33.46,218.72A6.62,6.62,0,0,1,34,209.4,20.29,20.29,0,0,1,62.6,211l0,0a6.61,6.61,0,0,1-9.88,8.79,7.06,7.06,0,0,0-9.94-.51,6.61,6.61,0,0,1-9.34-.52Z"/><path class="cls-3" d="M18.89,233.5a17.77,17.77,0,0,1,26.58-23.6L58.8,224.84l.05.06a17.78,17.78,0,0,1-26.58,23.61L19,233.56Z"/><rect class="cls-4" x="0.07" y="199.86" width="48.7" height="19.92" rx="6.64" ry="6.64" transform="translate(-133.71 69.76) rotate(-41.83)"/><path class="cls-5" d="M243.25,155.31A62.35,62.35,0,1,1,180.9,93,62.34,62.34,0,0,1,243.25,155.31Z"/><path class="cls-6" d="M197.9,95.33a53.63,53.63,0,0,1,34.68,50c0,29.6-24.29,53.6-54.25,53.6s-54.24-24-54.24-53.6a52.93,52.93,0,0,1,10.68-31.94,62.34,62.34,0,1,0,63.13-18Z"/><rect class="cls-7" x="70.6" y="257.87" width="46.48" height="60.87"/><path class="cls-8" d="M70.6,338.66V361.9A32.09,32.09,0,0,0,38.51,394h78.57V338.66Z"/><rect class="cls-4" x="70.6" y="318.74" width="46.48" height="19.92"/><rect class="cls-7" x="128.15" y="257.87" width="46.48" height="60.87"/><path class="cls-8" d="M174.63,338.66V361.9a32.1,32.1,0,0,1,32.1,32.1H128.15V338.66Z"/><rect class="cls-4" x="128.15" y="318.74" width="46.48" height="19.92"/><circle class="cls-7" cx="123.72" cy="198.11" r="81.9"/><rect class="cls-8" x="41.83" y="198.11" width="163.8" height="26.56"/><rect class="cls-3" x="104.91" y="198.11" width="35.42" height="26.56"/><path class="cls-9" d="M153.68,121.89A81.89,81.89,0,0,1,77.17,265.47a81.89,81.89,0,1,0,76.51-143.58Z"/><path class="cls-9" d="M123.72,106.88a81.89,81.89,0,0,0-81.89,81.9c0,1.57.05,3.12.14,4.66a81.88,81.88,0,0,1,81.75-77.23"/><line class="cls-10" x1="193.45" y1="141.66" x2="215.58" y2="190.36"/><g class="cls-11"><path class="cls-12" d="M145.86,91.86H61.75c0,45.23,37.44,81.9,83.63,81.9h.48a41,41,0,0,0,0-81.9Z"/></g><path class="cls-13" d="M94.39,78.56A12.45,12.45,0,1,1,81.94,66.4,12.29,12.29,0,0,1,94.39,78.56Z"/><path class="cls-13" d="M175.74,78.56A12.45,12.45,0,1,1,163.29,66.4,12.31,12.31,0,0,1,175.74,78.56Z"/><path class="cls-4" d="M77.24,13.29A13.28,13.28,0,1,1,64,0,13.27,13.27,0,0,1,77.24,13.29Z"/><path class="cls-14" d="M122.62,39.84A44.27,44.27,0,0,0,78.35,84.11v44.27h88.54V84.11A44.27,44.27,0,0,0,122.62,39.84Z"/><path class="cls-4" d="M134.79,81.9H50.68c0,45.23,37.44,81.9,83.63,81.9h.48a40.95,40.95,0,1,0,0-81.9Z"/><path class="cls-13" d="M134.79,81.9c0,5.5-5.45,10-12.18,10s-12.17-4.46-12.17-10,5.45-10,12.17-10S134.79,76.39,134.79,81.9Z"/><path class="cls-8" d="M131.47,95.18a8.86,8.86,0,0,1-17.71,0Z"/><circle class="cls-3" cx="192.34" cy="141.66" r="23.24"/><polygon class="cls-5" points="187.77 143.49 167.16 158.38 184.91 173.26 194.07 148.07 187.77 143.49"/><path class="cls-7" d="M83.26,13.28h-.49V66.4h84.12C166.89,37.07,129.45,13.28,83.26,13.28Z"/><rect class="cls-4" x="71.71" y="39.84" width="101.82" height="26.56" rx="6.64" ry="6.64"/><path class="cls-8" d="M104.91,73a3.32,3.32,0,1,1-3.32-3.32A3.33,3.33,0,0,1,104.91,73Z"/><path class="cls-8" d="M140.33,73a3.32,3.32,0,1,0,3.32-3.32A3.32,3.32,0,0,0,140.33,73Z"/></g></g></g></svg>