<svg xmlns="http://www.w3.org/2000/svg" viewBox="0 0 213.44 411.18"><defs><style>.cls-1{isolation:isolate;}.cls-2{fill:#725e4d;}.cls-3{fill:#019049;}.cls-4{fill:#07a860;}.cls-5{fill:#739aaf;mix-blend-mode:overlay;}.cls-6{fill:#fdcf48;stroke:#fdcf48;stroke-linejoin:round;stroke-width:2.35px;}.cls-7{fill:none;stroke:#f5c237;stroke-linecap:round;stroke-miterlimit:10;stroke-width:7.06px;stroke-dasharray:0 14.13;}.cls-8{fill:#fff;}.cls-9{fill:#d53e2e;}</style></defs><title>tree</title><g class="cls-1"><g id="Layer_2" data-name="Layer 2"><g id="Layer_1-2" data-name="Layer 1"><rect class="cls-2" x="94.27" y="303.91" width="24.9" height="107.26"/><polygon class="cls-3" points="106.72 35.76 0 372.87 106.72 372.87 213.44 372.87 106.72 35.76"/><polygon class="cls-4" points="153.75 184.34 148.95 169.17 106.72 211.4 64.49 169.17 59.68 184.34 106.72 231.37 153.75 184.34"/><polygon class="cls-4" points="106.72 287.14 46.27 226.7 41.47 241.87 106.72 307.12 171.97 241.87 167.16 226.7 106.72 287.14"/><polygon class="cls-4" points="190.18 299.4 185.37 284.22 106.72 362.88 28.06 284.22 23.26 299.4 96.73 372.87 106.72 372.87 116.71 372.87 190.18 299.4"/><polygon class="cls-4" points="106.72 59.92 100.91 54.11 96.11 69.28 106.72 79.89 117.33 69.28 112.53 54.11 106.72 59.92"/><polygon class="cls-4" points="82.7 111.64 77.89 126.81 106.72 155.63 135.54 126.81 130.74 111.64 106.72 135.66 82.7 111.64"/><polygon class="cls-5" points="106.72 35.76 45.36 372.87 0 372.87 106.72 35.76"/><polygon class="cls-6" points="106.72 1.18 112.33 12.56 124.9 14.39 115.81 23.25 117.95 35.76 106.72 29.85 95.48 35.76 97.63 23.25 88.54 14.39 101.1 12.56 106.72 1.18"/><polygon class="cls-6" points="106.72 27.88 102.79 48.17 106.72 48.17 110.65 48.17 106.72 27.88"/><path class="cls-7" d="M94.27,75.07S101,104.63,124,90.41c-2.42,25-17.3,51.35-46,35.91,0,0,26.78,84.89,66.05,27.52,2.12,62.09-54.46,91.12-86.9,38.35,0,0,26.2,128.49,115.24,51.18C171,292.71,75.73,357.55,25.36,292.76c13.3,45,77.43,73.62,115.33,68s61.46-23.55,61.46-23.55"/><path class="cls-8" d="M130.39,219.2a11.08,11.08,0,1,1-22.15,0Z"/><path class="cls-8" d="M152.54,219.2a11.08,11.08,0,1,1-22.15,0Z"/><path class="cls-8" d="M174.7,219.2a11.08,11.08,0,1,1-22.16,0Z"/><path class="cls-8" d="M47.21,267.65a11.08,11.08,0,1,1-22.15,0Z"/><path class="cls-8" d="M69.37,267.65a11.08,11.08,0,0,1-22.16,0Z"/><path class="cls-8" d="M91.53,267.65a11.08,11.08,0,0,1-22.16,0Z"/><path class="cls-8" d="M26.69,332.7a11.08,11.08,0,1,1-22.15,0Z"/><path class="cls-8" d="M48.85,332.7a11.08,11.08,0,1,1-22.16,0Z"/><path class="cls-8" d="M71,332.7a11.08,11.08,0,1,1-22.15,0Z"/><path class="cls-8" d="M93.16,332.7a11.08,11.08,0,0,1-22.16,0Z"/><path class="cls-8" d="M115.31,332.7a11.08,11.08,0,1,1-22.15,0Z"/><path class="cls-8" d="M86.08,186.67a11.08,11.08,0,0,1-22.15,0Z"/><path class="cls-8" d="M108.24,186.67a11.08,11.08,0,0,1-22.16,0Z"/><path class="cls-8" d="M130.39,186.67a11.08,11.08,0,0,1-22.15,0Z"/><path class="cls-8" d="M154.83,292.16a11.08,11.08,0,0,1-22.15,0Z"/><path class="cls-8" d="M177,292.16a11.08,11.08,0,0,1-22.15,0Z"/><path class="cls-8" d="M132.68,292.16a11.08,11.08,0,0,1-22.15,0Z"/><path class="cls-8" d="M136,154.26a11.08,11.08,0,1,1-22.15,0Z"/><path class="cls-8" d="M158.13,154.26a11.08,11.08,0,1,1-22.16,0Z"/><path class="cls-8" d="M93.16,122.32a11.08,11.08,0,0,1-22.16,0Z"/><path class="cls-8" d="M115.31,122.32a11.08,11.08,0,1,1-22.15,0Z"/><path class="cls-8" d="M132,89.15a11.08,11.08,0,0,1-22.16,0Z"/><path class="cls-8" d="M111.64,49.08a6.26,6.26,0,0,1-12.52,0Z"/><path class="cls-9" d="M95.24,104.92a6.7,6.7,0,1,1-6.7-6.7A6.7,6.7,0,0,1,95.24,104.92Z"/><path class="cls-9" d="M123,75.73a6.7,6.7,0,1,1-6.7-6.7A6.69,6.69,0,0,1,123,75.73Z"/><path class="cls-9" d="M142,138.17a6.7,6.7,0,1,1-6.7-6.71A6.71,6.71,0,0,1,142,138.17Z"/><path class="cls-9" d="M89.63,170.12a6.71,6.71,0,1,1-6.71-6.7A6.7,6.7,0,0,1,89.63,170.12Z"/><path class="cls-9" d="M152.15,202.77a6.7,6.7,0,1,1-6.7-6.7A6.7,6.7,0,0,1,152.15,202.77Z"/><path class="cls-9" d="M85.15,223.19a6.7,6.7,0,1,1-6.69-6.7A6.7,6.7,0,0,1,85.15,223.19Z"/><path class="cls-9" d="M58.87,249.82a6.71,6.71,0,1,1-6.71-6.7A6.71,6.71,0,0,1,58.87,249.82Z"/><path class="cls-9" d="M144.75,249.39a6.71,6.71,0,1,1-6.71-6.71A6.7,6.7,0,0,1,144.75,249.39Z"/><path class="cls-9" d="M119.16,278a6.7,6.7,0,1,1-6.7-6.7A6.71,6.71,0,0,1,119.16,278Z"/><path class="cls-9" d="M90.65,305.83a6.7,6.7,0,1,1-6.7-6.71A6.7,6.7,0,0,1,90.65,305.83Z"/><path class="cls-9" d="M37,294.35a6.71,6.71,0,1,1-6.7-6.7A6.7,6.7,0,0,1,37,294.35Z"/><path class="cls-9" d="M139.38,328.37a6.7,6.7,0,1,1-6.7-6.7A6.71,6.71,0,0,1,139.38,328.37Z"/><path class="cls-9" d="M175.81,353.76a6.7,6.7,0,1,1-6.7-6.7A6.71,6.71,0,0,1,175.81,353.76Z"/><path class="cls-9" d="M70.37,368.53a6.7,6.7,0,1,1-6.7-6.7A6.7,6.7,0,0,1,70.37,368.53Z"/></g></g></g></svg>