<svg xmlns="http://www.w3.org/2000/svg" viewBox="0 0 191.53 201" width="191.53" height="201"><defs><style>.cls-1{fill:#f9ce1d;}.cls-2,.cls-5{fill:none;stroke-linecap:round;stroke-miterlimit:10;}.cls-2{stroke:#bf8f68;stroke-width:11.72px;}.cls-3{fill:#bf8f68;}.cls-4{fill:#f33;}.cls-5{stroke:#000;stroke-width:4px;}.cls-6{fill:#eee;}.cls-7{fill:#332e2e;}.cls-8{fill:#fff;}.cls-9{fill:#39f;}.cls-10{fill:#297acc;}</style></defs><title>elf_mermaid</title><g id="Layer_2" data-name="Layer 2"><g id="ART"><path class="cls-1" d="M87.29,22.23l.78-6.09a4.68,4.68,0,0,0-8.77-2.8l-2.9,5.41L72.34,3.48a4.68,4.68,0,0,0-9.05,0L59.23,18.75l-2.91-5.41a4.68,4.68,0,0,0-8.76,2.8l.77,6.09-4.8-3.3a4.68,4.68,0,0,0-6.59,6.37l8.4,13.21h45l8.4-13.21a4.68,4.68,0,0,0-6.59-6.37Z"/><path class="cls-2" d="M67.81,86c23.75,0,38,21.06,59.68,21.42"/><circle class="cls-3" cx="139.99" cy="107.6" r="12.5"/><path class="cls-2" d="M67.81,86c-23.75,0-43.44,11-51.22,33.5"/><circle class="cls-3" cx="12.5" cy="131.29" r="12.5"/><polygon class="cls-4" points="57.56 137.89 78.07 137.89 67.81 85.98 57.56 137.89"/><path class="cls-3" d="M67.81,80.12a25,25,0,0,0-25,25v20.95a25,25,0,0,0,50,0V105.12A25,25,0,0,0,67.81,80.12Z"/><polyline class="cls-5" points="82.22 81.39 82.22 108.29 53.41 108.29 53.41 81.39"/><path class="cls-6" d="M93.44,110.83a20,20,0,0,1-22.44,0,3.16,3.16,0,0,1-.49-4.86l8-8-2.3-2.31a1.79,1.79,0,0,1,.28-2.76,10.48,10.48,0,0,1,11.45,0,1.79,1.79,0,0,1,.28,2.76L85.93,98l8,8A3.16,3.16,0,0,1,93.44,110.83Z"/><path class="cls-6" d="M42.18,110.83a20.06,20.06,0,0,0,22.45,0,3.16,3.16,0,0,0,.49-4.86l-8-8,2.3-2.31a1.79,1.79,0,0,0-.28-2.76,10.48,10.48,0,0,0-11.45,0,1.79,1.79,0,0,0-.28,2.76L49.7,98l-8,8A3.16,3.16,0,0,0,42.18,110.83Z"/><path class="cls-7" d="M63.24,24.84V58.27a25,25,0,0,0,25,25V49.84A25,25,0,0,0,63.24,24.84Z"/><path class="cls-7" d="M88.25,83.27V95.79a12.5,12.5,0,0,0,12.5,12.5V95.77A12.5,12.5,0,0,0,88.25,83.27Z"/><path class="cls-7" d="M88.25,83.27V95.79a12.51,12.51,0,0,1-12.51,12.5V95.77A12.5,12.5,0,0,1,88.25,83.27Z"/><circle class="cls-1" cx="88.25" cy="83.27" r="4.57"/><path class="cls-7" d="M38.24,55.11a29.58,29.58,0,0,1,59.15,0Z"/><path class="cls-3" d="M100.92,37.65,88.14,50.44a6.61,6.61,0,1,0,9.35,9.35C105.48,51.81,100.92,37.65,100.92,37.65Z"/><path class="cls-3" d="M47.49,50.44,34.71,37.65S30.15,51.8,38.13,59.79a6.61,6.61,0,1,0,9.36-9.35Z"/><circle class="cls-3" cx="67.81" cy="55.11" r="25"/><path class="cls-7" d="M62.76,47.94a5.05,5.05,0,1,1-5-5A5.06,5.06,0,0,1,62.76,47.94Z"/><path class="cls-7" d="M83,47.94a5,5,0,1,1-5-5A5.06,5.06,0,0,1,83,47.94Z"/><path class="cls-8" d="M83,58.05a15.15,15.15,0,1,1-30.3,0Z"/><circle class="cls-7" cx="73.92" cy="30.11" r="8.39"/><circle class="cls-7" cx="61.71" cy="30.11" r="8.39"/><path class="cls-9" d="M176.75,123.11h0A14.79,14.79,0,0,0,162,137.89a14.79,14.79,0,0,0-29.57,0h0a14.79,14.79,0,0,0,14.79,14.79h6.15c-4.8,7.67-13.68,11.61-24.32,11.61-16.1,0-36.19-10.63-36.19-38.22h-50c0,54.1,39.4,74.93,71,74.93,30.52,0,53.66-16.54,55.15-48.32h7.83a14.79,14.79,0,0,0,14.78-14.79h0A14.78,14.78,0,0,0,176.75,123.11Z"/><path class="cls-10" d="M78,145.25a7.32,7.32,0,0,0,0-10.35A7.33,7.33,0,0,0,78,145.25Z"/><path class="cls-10" d="M59.4,157.87a7.32,7.32,0,0,0,0-10.34A7.3,7.3,0,0,0,59.4,157.87Z"/><path class="cls-10" d="M81.2,175.55a7.32,7.32,0,0,0,0-10.35A7.32,7.32,0,0,0,81.2,175.55Z"/><path class="cls-10" d="M100.43,193.14a7.3,7.3,0,0,0,0-10.34A7.32,7.32,0,0,0,100.43,193.14Z"/><path class="cls-10" d="M114.31,180.72a7.3,7.3,0,0,0,0-10.34A7.32,7.32,0,0,0,114.31,180.72Z"/><path class="cls-10" d="M142.6,182.88a7.32,7.32,0,0,0,0-10.34A7.3,7.3,0,0,0,142.6,182.88Z"/><path class="cls-10" d="M157.44,165.2a7.32,7.32,0,0,0,0-10.34A7.3,7.3,0,0,0,157.44,165.2Z"/></g></g></svg>