<svg xmlns="http://www.w3.org/2000/svg" viewBox="0 0 508.05 287.94" width="508.05" height="287.94"><defs><style>.cls-1{opacity:0.1;}.cls-2{fill:#fddf00;}.cls-3{fill:#f58835;}.cls-4{fill:#333;}.cls-5{fill:#e53935;}.cls-6{fill:#f9ce1d;}.cls-7{fill:#00acc1;}.cls-8{fill:#332e2e;}.cls-15,.cls-9{fill:none;stroke-linecap:round;stroke-miterlimit:10;stroke-width:11.83px;}.cls-9{stroke:#e53935;}.cls-10{fill:#fadcbc;}.cls-11{fill:#fff;}.cls-12{fill:#fdd835;}.cls-13{fill:#9b643d;}.cls-14{fill:#ad00ad;}.cls-15{stroke:#ad00ad;}</style></defs><title>elf_duck_float</title><g id="Layer_2" data-name="Layer 2"><g id="ART"><path class="cls-1" d="M0,265.89c0,12.18,98.71,22.05,220.47,22.05S441,278.07,441,265.89s-98.71-22-220.48-22S0,253.72,0,265.89Z"/><circle class="cls-2" cx="368.57" cy="118.72" r="76.74"/><path class="cls-3" d="M435.5,82.13s34.35,43.9,62.95,45.24c11.27.53,12.65,10.53,4,10.53l-66.25,15.39C440.18,129.2,442.86,105.11,435.5,82.13Z"/><path class="cls-4" d="M391.33,105.78A18.74,18.74,0,1,1,372.59,87,18.74,18.74,0,0,1,391.33,105.78Z"/><rect class="cls-2" x="36.44" y="162.09" width="367.46" height="110.24" rx="55.12" ry="55.12" transform="translate(440.33 434.41) rotate(-180)"/><path class="cls-5" d="M291.42,179.63h13.31a30.85,30.85,0,0,0-30.85-30.85v13.31A17.54,17.54,0,0,1,291.42,179.63Z"/><path d="M327.6,186.29a12.88,12.88,0,0,1-12.88,12.88h0a10,10,0,0,1-10-10v-9.55H291.42v29.09a3.33,3.33,0,0,0,3.33,3.33h32.54a13.09,13.09,0,0,0,13.18-12.41A12.88,12.88,0,0,0,327.6,186.29Z"/><path class="cls-6" d="M304.73,192.51h-5a3.33,3.33,0,0,1,0-6.65h5a3.33,3.33,0,1,1,0,6.65Z"/><line class="cls-7" x1="256.34" y1="101.84" x2="256.34" y2="154.22"/><path class="cls-5" d="M281.57,162.09V121.87c0-13.59-10.44-25.28-24-25.92a25.23,25.23,0,0,0-26.45,25.2V142.3a19.79,19.79,0,0,0,19.79,19.79Z"/><rect class="cls-8" x="231.11" y="129.68" width="50.46" height="12.62"/><rect class="cls-6" x="268.96" y="129.68" width="12.62" height="12.62"/><path class="cls-9" d="M256.34,101.84c-6.93,22.79,11.21,35.89,40.32,26.21"/><circle class="cls-10" cx="308.63" cy="124.08" r="12.62"/><path class="cls-11" d="M294.41,139.14a5.92,5.92,0,0,0,10.38-5.37l-5-15.16a5.92,5.92,0,1,0-11.23,3.73l5,15.16A5.94,5.94,0,0,0,294.41,139.14Z"/><circle class="cls-10" cx="256.34" cy="70.69" r="25.23"/><ellipse class="cls-12" cx="243.84" cy="69.04" rx="21.85" ry="12.62" transform="translate(143.54 301.77) rotate(-82.5)"/><path class="cls-12" d="M232.76,76.25l12.76,3.44a13.19,13.19,0,0,1,9.31,16.17l-12.76-3.44A13.2,13.2,0,0,1,232.76,76.25Z"/><path class="cls-12" d="M242.07,92.42l12.76,3.44a13.18,13.18,0,0,1,9.3,16.17l-12.76-3.44A13.19,13.19,0,0,1,242.07,92.42Z"/><path class="cls-12" d="M254.32,123.07l1.72-6.39a6.6,6.6,0,0,1,8.09-4.65l-1.72,6.38A6.6,6.6,0,0,1,254.32,123.07Z"/><path class="cls-12" d="M267.07,126.5l1.72-6.38a6.6,6.6,0,0,0-4.66-8.09l-1.72,6.38A6.6,6.6,0,0,0,267.07,126.5Z"/><polygon class="cls-10" points="274.18 52.85 292.02 70.69 281.57 70.69 274.18 52.85"/><path class="cls-11" d="M281.4,73.65H264.87A15.29,15.29,0,0,0,274.74,88,25.21,25.21,0,0,0,281.4,73.65Z"/><circle class="cls-11" cx="220.6" cy="8.78" r="8.78"/><polygon class="cls-5" points="272.03 47.4 224.99 16.39 228.33 72.63 272.03 47.4"/><path class="cls-11" d="M228.33,80a7.39,7.39,0,0,1-3.7-13.8L268.33,41a7.4,7.4,0,0,1,7.4,12.81L232,79A7.42,7.42,0,0,1,228.33,80Z"/><path class="cls-10" d="M255.15,65.68l-12.9-12.9s-4.6,14.28,3.46,22.34a6.68,6.68,0,0,0,9.44-9.44Z"/><path class="cls-8" d="M275.06,64.24a5.1,5.1,0,1,1-5.1-5.1A5.11,5.11,0,0,1,275.06,64.24Z"/><circle class="cls-13" cx="169.32" cy="70.69" r="25.23"/><polygon class="cls-13" points="187.16 52.85 205 70.69 194.55 70.69 187.16 52.85"/><path class="cls-11" d="M194.38,73.65H177.84A15.3,15.3,0,0,0,187.72,88,25.21,25.21,0,0,0,194.38,73.65Z"/><circle class="cls-11" cx="133.58" cy="8.78" r="8.78"/><polygon class="cls-14" points="185.01 47.4 137.97 16.39 141.31 72.63 185.01 47.4"/><path class="cls-11" d="M188.28,54l-13.83-1.19-6.32,12.83L145,79a7.39,7.39,0,1,1-7.39-12.81L181.31,41Z"/><path class="cls-8" d="M177.84,39.4,170.4,28l-9.3,15.63L143,43.23,144.09,60l-12.56,7.61L141.31,80l-5.64,8.6h12.42l2.51,8,17.53-30.93S173.17,54,188.28,54l4.12-19.69Z"/><path class="cls-13" d="M168.13,65.68l-12.9-12.9s-4.6,14.28,3.46,22.34a6.68,6.68,0,0,0,9.44-9.44Z"/><path class="cls-8" d="M188,64.24a5.1,5.1,0,1,1-5.1-5.1A5.11,5.11,0,0,1,188,64.24Z"/><path class="cls-14" d="M204.4,179.63h13.31a30.85,30.85,0,0,0-30.85-30.85v13.31A17.54,17.54,0,0,1,204.4,179.63Z"/><path d="M240.58,186.29a12.88,12.88,0,0,1-12.88,12.88h0a10,10,0,0,1-10-10v-9.55H204.4v29.09a3.33,3.33,0,0,0,3.33,3.33h32.54a13.09,13.09,0,0,0,13.18-12.41A12.88,12.88,0,0,0,240.58,186.29Z"/><path class="cls-6" d="M217.71,192.51h-5a3.33,3.33,0,0,1,0-6.65h5a3.33,3.33,0,1,1,0,6.65Z"/><line class="cls-14" x1="169.32" y1="101.84" x2="169.32" y2="154.22"/><path class="cls-14" d="M194.55,162.09V121.87c0-13.59-10.44-25.28-24-25.92a25.23,25.23,0,0,0-26.45,25.2V142.3a19.79,19.79,0,0,0,19.79,19.79Z"/><rect class="cls-8" x="144.09" y="129.68" width="50.46" height="12.62"/><rect class="cls-6" x="181.94" y="129.68" width="12.62" height="12.62"/><path class="cls-15" d="M169.32,101.84c0,23.82,32.5,26.18,58.49,9.89"/><circle class="cls-13" cx="238.5" cy="105.03" r="12.62"/><path class="cls-11" d="M228.25,123a5.91,5.91,0,0,0,8.81-7.67l-8.47-13.53a5.92,5.92,0,1,0-10,6.28L227,121.64A5.82,5.82,0,0,0,228.25,123Z"/></g></g></svg>