<svg xmlns="http://www.w3.org/2000/svg" xmlns:xlink="http://www.w3.org/1999/xlink" viewBox="0 0 131.93 275.5" width="131.93" height="275.5"><defs><style>.cls-1,.cls-11,.cls-12,.cls-16,.cls-2,.cls-6{fill:none;}.cls-2{stroke:#39f;}.cls-11,.cls-12,.cls-16,.cls-2,.cls-6{stroke-linecap:round;stroke-miterlimit:10;}.cls-2,.cls-6{stroke-width:11.72px;}.cls-3{fill:#332e2e;}.cls-4{fill:#f9ce1d;}.cls-5{fill:#00acc1;}.cls-6{stroke:#fadcbc;}.cls-7{fill:#fadcbc;}.cls-8{fill:#39f;}.cls-9{fill:#ef9a9a;}.cls-10{clip-path:url(#clip-path);}.cls-11,.cls-12{stroke:#fff;stroke-width:1.17px;}.cls-12{stroke-dasharray:0 12.28;}.cls-13{fill:#f33;}.cls-14{fill:#fff;}.cls-15{fill:#764c2e;}.cls-16{stroke:#000;stroke-width:2.93px;}.cls-17{fill:#f5f5f5;}</style><clipPath id="clip-path"><path class="cls-1" d="M66,97.62C26.68,97.62,11.34,131,11.34,131L29,142.55l5.86-8.27c0,16.27,5.26,21.6,5.26,41.21H91.84c0-19.61,5.27-24.94,5.27-41.21l5.86,8.27L120.59,131S105.24,97.62,66,97.62Z"/></clipPath></defs><title>elf11_1</title><g id="Layer_2" data-name="Layer 2"><g id="ART"><path class="cls-2" d="M76.22,180.07V247"/><path class="cls-3" d="M102.22,252.81a11.35,11.35,0,0,1-11.35,11.35h0a8.8,8.8,0,0,1-8.79-8.8V247H70.36v25.62a2.93,2.93,0,0,0,2.93,2.93H102a11.52,11.52,0,0,0,11.61-10.93A11.35,11.35,0,0,0,102.22,252.81Z"/><path class="cls-4" d="M82.08,258.3h-4.4a2.94,2.94,0,0,1,0-5.87h4.4a2.94,2.94,0,0,1,0,5.87Z"/><path class="cls-2" d="M55.71,180.07V247"/><path class="cls-3" d="M29.71,252.81a11.35,11.35,0,0,0,11.34,11.35h0a8.8,8.8,0,0,0,8.8-8.8V247H61.57v25.62a2.93,2.93,0,0,1-2.93,2.93H30a11.52,11.52,0,0,1-11.61-10.93A11.35,11.35,0,0,1,29.71,252.81Z"/><path class="cls-4" d="M49.85,258.3h4.4a2.94,2.94,0,0,0,0-5.87h-4.4a2.94,2.94,0,1,0,0,5.87Z"/><polygon class="cls-5" points="55.71 180.07 76.22 180.07 65.96 110.4 55.71 180.07"/><path class="cls-6" d="M66,110.4c35.49,0,53.47,31,53.47,52.68"/><circle class="cls-7" cx="119.43" cy="175.58" r="12.5"/><path class="cls-6" d="M66,110.4c-35.48,0-53.46,31-53.46,52.68"/><circle class="cls-7" cx="12.5" cy="175.58" r="12.5"/><path class="cls-8" d="M66,193.25c8,0,19.15-3.82,19.15-20.59s12-22.11,12-38.38S86.53,104.54,66,104.54,34.82,118,34.82,134.28s12,21.6,12,38.38S57.92,193.25,66,193.25Z"/><path class="cls-9" d="M66,97.62C26.68,97.62,11.34,131,11.34,131L29,142.55l5.86-8.27c0,16.27,5.26,21.6,5.26,41.21H91.84c0-19.61,5.27-24.94,5.27-41.21l5.86,8.27L120.59,131S105.24,97.62,66,97.62Z"/><g class="cls-10"><line class="cls-11" x1="27.27" y1="104.66" x2="27.27" y2="104.66"/><path class="cls-12" d="M26.44,116.39a12.11,12.11,0,0,1-8.65,5.22c-2.2.23-4.73-.36-5.85-2.26a3.84,3.84,0,0,1,3.27-5.79c2.3,0,4.17,2,4.74,4.27s.16,4.56-.19,6.83-.64,4.65.17,6.8a7.05,7.05,0,0,0,13.22-.07c2.08-5.69-3.51-12.12-1.36-17.79,1.34-3.53,5.43-5.43,9.21-5.27,2.45.1,5,1,6.37,3.07,1.61,2.44,1,5.76-.32,8.33s-3.44,4.72-4.94,7.22c-1.21,2-2.64,5.46-1.44,7.78,1,1.93,4.16,2.87,6.17,2.74,3.28-.22,6.17-2.32,8.25-4.86s3.52-5.53,5.24-8.33c1.5-2.44,4-5,6.74-4.34,2.42.61,3.58,3.61,3,6s-2.41,4.34-4.25,6a68.19,68.19,0,0,1-17.09,11.47c-2.82,1.33-5.76,2.48-8.21,4.39s-4.4,4.78-4.3,7.89c.12,3.9,3.54,7.13,7.32,8.09s7.81.06,11.45-1.33c3.27-1.25,6.54-3,8.36-6s1.59-7.43-1.27-9.45-7.09-.67-8.67,2.32a7.53,7.53,0,0,0,2.22,9.1,9.56,9.56,0,0,0,9.63.87,11.16,11.16,0,0,0,6.09-6.78c1-3.33,3.32-6.13,5.24-9a4.86,4.86,0,0,0,1.15-3.25A3.74,3.74,0,0,0,76,137.92c-.84-.56-1.79-1-2.6-1.58-4.69-3.58-.95-12.46,3.8-14.14,2.65-1,5.66-.11,8.37-.89a8.15,8.15,0,0,0,5.48-6.4,10.18,10.18,0,0,0-2.51-8.22,9.36,9.36,0,0,0-6.72-3.34,6.84,6.84,0,0,0-6.29,3.7,5.41,5.41,0,0,0,1.92,6.77c2.29,1.34,5.23.54,7.61-.63s4.72-2.73,7.38-2.84c3-.13,7.62,1.69,10.1,3.38s4.13,4.41,3.69,7.23c-.47,3-3.16,5.08-5.31,7.24-2.56,2.58-4.59,5.71-7.52,7.86-2.24,1.65-5.4,2.68-8.15,1.81-2.48-.79-4.6-3.06-3.57-5.85s4.41-3.48,7.18-3,5.31,1.94,8.1,2.34c5.42.78,10.93-2.82,13.14-7.82s1.41-11-1.33-15.77a21.56,21.56,0,0,0-30.61-7.17c-3.47,2.31-6.19,5.57-9.46,8.16s-7.47,4.56-11.52,3.59c-5.16-1.24-8.26-7.26-7.22-12.46s5.47-9.29,10.48-11A25.06,25.06,0,0,1,70,87.66"/><line class="cls-11" x1="76.11" y1="88.46" x2="76.11" y2="88.46"/><line class="cls-11" x1="83.38" y1="112.62" x2="87.67" y2="112.62"/><line class="cls-11" x1="85.52" y1="110.47" x2="85.52" y2="114.76"/><line class="cls-11" x1="103.99" y1="132.36" x2="108.28" y2="132.36"/><line class="cls-11" x1="106.13" y1="130.22" x2="106.13" y2="134.51"/><line class="cls-11" x1="24.22" y1="127.24" x2="28.51" y2="127.24"/><line class="cls-11" x1="26.36" y1="125.1" x2="26.36" y2="129.39"/><line class="cls-11" x1="75.14" y1="152.74" x2="79.43" y2="152.74"/><line class="cls-11" x1="77.29" y1="150.6" x2="77.29" y2="154.89"/><line class="cls-11" x1="83.92" y1="170.77" x2="88.21" y2="170.77"/><line class="cls-11" x1="86.06" y1="168.63" x2="86.06" y2="172.92"/><line class="cls-11" x1="53.85" y1="121.59" x2="58.13" y2="121.59"/><line class="cls-11" x1="55.99" y1="119.45" x2="55.99" y2="123.74"/><line class="cls-11" x1="36.67" y1="116.2" x2="45.25" y2="116.2"/><line class="cls-11" x1="40.96" y1="111.92" x2="40.96" y2="120.49"/><line class="cls-11" x1="37.93" y1="113.17" x2="43.99" y2="119.23"/><line class="cls-11" x1="43.99" y1="113.17" x2="37.93" y2="119.23"/><line class="cls-11" x1="36.67" y1="116.2" x2="45.25" y2="116.2"/><line class="cls-11" x1="40.96" y1="111.92" x2="40.96" y2="120.49"/><line class="cls-11" x1="40.46" y1="145.23" x2="49.04" y2="145.23"/><line class="cls-11" x1="44.75" y1="140.95" x2="44.75" y2="149.52"/><line class="cls-11" x1="41.72" y1="142.2" x2="47.78" y2="148.27"/><line class="cls-11" x1="47.78" y1="142.2" x2="41.72" y2="148.27"/><line class="cls-11" x1="40.46" y1="145.23" x2="49.04" y2="145.23"/><line class="cls-11" x1="44.75" y1="140.95" x2="44.75" y2="149.52"/><line class="cls-11" x1="83.15" y1="145.23" x2="91.73" y2="145.23"/><line class="cls-11" x1="87.44" y1="140.95" x2="87.44" y2="149.52"/><line class="cls-11" x1="84.41" y1="142.2" x2="90.47" y2="148.27"/><line class="cls-11" x1="90.47" y1="142.2" x2="84.41" y2="148.27"/><line class="cls-11" x1="83.15" y1="145.23" x2="91.73" y2="145.23"/><line class="cls-11" x1="87.44" y1="140.95" x2="87.44" y2="149.52"/><line class="cls-11" x1="44.26" y1="168.7" x2="52.83" y2="168.7"/><line class="cls-11" x1="48.55" y1="164.42" x2="48.55" y2="172.99"/><line class="cls-11" x1="45.52" y1="165.67" x2="51.58" y2="171.73"/><line class="cls-11" x1="51.58" y1="165.67" x2="45.52" y2="171.73"/><line class="cls-11" x1="44.26" y1="168.7" x2="52.83" y2="168.7"/><line class="cls-11" x1="48.55" y1="164.42" x2="48.55" y2="172.99"/><line class="cls-11" x1="92.69" y1="121.69" x2="101.27" y2="121.69"/><line class="cls-11" x1="96.98" y1="117.4" x2="96.98" y2="125.98"/><line class="cls-11" x1="93.95" y1="118.66" x2="100.01" y2="124.72"/><line class="cls-11" x1="100.01" y1="118.66" x2="93.95" y2="124.72"/><line class="cls-11" x1="92.69" y1="121.69" x2="101.27" y2="121.69"/><line class="cls-11" x1="96.98" y1="117.4" x2="96.98" y2="125.98"/></g><polygon class="cls-13" points="65.96 104.54 56.66 114.33 50.81 99.42 65.96 97.62 65.96 104.54"/><polygon class="cls-13" points="65.96 104.54 75.26 114.33 81.11 99.42 65.96 97.62 65.96 104.54"/><circle class="cls-14" cx="65.96" cy="8.7" r="8.7"/><polygon class="cls-8" points="90.97 67.32 65.96 17.4 40.96 67.32 90.97 67.32"/><path class="cls-14" d="M89.83,79.4a7.33,7.33,0,0,1-7-5.14,17.68,17.68,0,0,0-33.75,0,7.33,7.33,0,0,1-14-4.38,32.34,32.34,0,0,1,61.72,0,7.34,7.34,0,0,1-7,9.52Z"/><path class="cls-7" d="M99.07,62.08,86.29,74.86a6.61,6.61,0,1,0,9.35,9.35C103.63,76.23,99.07,62.08,99.07,62.08Z"/><path class="cls-7" d="M45.64,74.86,32.86,62.08S28.3,76.23,36.28,84.22a6.62,6.62,0,1,0,9.36-9.36Z"/><circle class="cls-7" cx="65.96" cy="79.54" r="25"/><path class="cls-15" d="M51.87,58.89c0,.42-.06.86-.06,1.29a4.72,4.72,0,0,0,9.44,0,4.72,4.72,0,1,0,9.43,0,4.72,4.72,0,0,0,9.44,0c0-.43,0-.87-.07-1.29a25,25,0,0,0-28.18,0Z"/><path class="cls-3" d="M60.91,72.37a5,5,0,1,1-5-5.05A5,5,0,0,1,60.91,72.37Z"/><path class="cls-3" d="M81.11,72.37a5,5,0,1,1-5-5.05A5,5,0,0,1,81.11,72.37Z"/><path class="cls-14" d="M81.11,82.47a15.15,15.15,0,0,1-30.3,0Z"/><circle cx="65.96" cy="114.33" r="1.36"/><circle cx="65.96" cy="123.74" r="1.36"/><circle cx="65.96" cy="133.15" r="1.36"/><circle cx="65.96" cy="142.55" r="1.36"/><circle cx="65.96" cy="151.96" r="1.36"/><circle cx="65.96" cy="161.37" r="1.36"/><circle cx="65.96" cy="170.77" r="1.36"/><path d="M46.4,157.69H38.33c.39,1.94.75,4,1.05,6.25h7Z"/><path d="M85.52,157.69v6.25h7c.29-2.25.65-4.31,1-6.25Z"/><path class="cls-13" d="M46.4,157.69V164c6.78,0,5,11.54,13,11.54H72.57c8,0,6.17-11.54,13-11.54v-6.26Z"/><line class="cls-16" x1="55.26" y1="161.99" x2="76.67" y2="161.99"/><path d="M56,166.39H75.94v1.19A4.47,4.47,0,0,1,71.47,172h-11A4.46,4.46,0,0,1,56,167.58Z"/><circle class="cls-17" cx="55.26" cy="161.99" r="1.47"/><rect class="cls-17" x="53.25" y="161.46" width="1.47" height="3.61" transform="translate(131.26 9.65) rotate(45)"/><path class="cls-13" d="M76.67,124.49h13a0,0,0,0,1,0,0V131a6.49,6.49,0,0,1-6.49,6.49h0A6.49,6.49,0,0,1,76.67,131v-6.49A0,0,0,0,1,76.67,124.49Z"/></g></g></svg>