<svg xmlns="http://www.w3.org/2000/svg" viewBox="0 0 147.53 248.88" width="147.53" height="248.88"><defs><style>.cls-1,.cls-7{fill:none;stroke-linecap:round;}.cls-1{stroke:#f9f9f9;stroke-miterlimit:10;stroke-width:14.07px;}.cls-2{fill:#332e2e;}.cls-3{fill:#f9ce1d;}.cls-4{fill:#bf8f68;}.cls-5{fill:#fff;}.cls-6{fill:#00acc1;}.cls-7{stroke:#00c1f2;stroke-linejoin:round;stroke-width:6.22px;}.cls-8{fill:#f9f9f9;}.cls-9{fill:#fdd835;}</style></defs><title>elf14</title><g id="Layer_2" data-name="Layer 2"><g id="ART"><path class="cls-1" d="M61.58,174.2v39"/><path class="cls-2" d="M29.37,220.51a14.18,14.18,0,0,0,14.19,14.18h0a11,11,0,0,0,11-11V213.19H68.62v32A3.67,3.67,0,0,1,65,248.88H29.71A14.41,14.41,0,0,1,15.2,235.21,14.19,14.19,0,0,1,29.37,220.51Z"/><path class="cls-3" d="M54.55,227.37h5.5a3.67,3.67,0,1,0,0-7.33h-5.5a3.67,3.67,0,1,0,0,7.33Z"/><path class="cls-1" d="M86,174.2v39"/><path class="cls-2" d="M118.15,220.51A14.18,14.18,0,0,1,104,234.69h0a11,11,0,0,1-11-11V213.19H78.91v32a3.67,3.67,0,0,0,3.66,3.67h35.24a14.4,14.4,0,0,0,14.51-13.67A14.17,14.17,0,0,0,118.15,220.51Z"/><path class="cls-3" d="M93,227.37h-5.5a3.67,3.67,0,1,1,0-7.33H93a3.67,3.67,0,0,1,0,7.33Z"/><path class="cls-1" d="M73.76,112c34.41,0,56.69,23.55,57.32,45.19"/><circle class="cls-4" cx="131.44" cy="169.7" r="12.5"/><path class="cls-5" d="M141.49,151l-21.17.62a5.86,5.86,0,0,0,.34,11.72l21.18-.62a5.86,5.86,0,0,0-.35-11.72Z"/><path class="cls-1" d="M73.76,112c-34.4,0-56.68,23.55-57.31,45.19"/><circle class="cls-4" cx="16.09" cy="169.7" r="12.5"/><path class="cls-5" d="M27.21,151.66,6,151a5.86,5.86,0,0,0-.34,11.72l21.18.62a5.86,5.86,0,1,0,.34-11.72Z"/><polygon class="cls-6" points="61.58 174.2 85.95 174.2 73.76 112.02 61.58 174.2"/><path class="cls-7" d="M100.87,43.39V27.64A5.19,5.19,0,0,1,106,22.39h9.94A5.18,5.18,0,0,0,121,17.14V9.05a5.18,5.18,0,0,1,5.12-5.25h8.38"/><path class="cls-7" d="M121,11.7H107.27a5.18,5.18,0,0,1-5.11-5.25V3.11"/><path class="cls-7" d="M115.93,22.39v4.5A5.18,5.18,0,0,0,121,32.14h8.38a5.18,5.18,0,0,0,5.12-5.25v-4.5"/><path class="cls-7" d="M46.65,43.39V27.64a5.18,5.18,0,0,0-5.11-5.25H31.6a5.19,5.19,0,0,1-5.12-5.25V9.05A5.18,5.18,0,0,0,21.37,3.8H13"/><path class="cls-7" d="M26.48,11.7H40.25a5.18,5.18,0,0,0,5.12-5.25V3.11"/><path class="cls-7" d="M31.6,22.39v4.5a5.18,5.18,0,0,1-5.12,5.25H18.11A5.18,5.18,0,0,1,13,26.89v-4.5"/><path class="cls-8" d="M73.76,187.45h0c-18.9,0-35.22-13.57-39.14-32.54L18.56,77.21C14.47,57.43,29.18,38.8,48.89,38.8H98.64c19.71,0,34.42,18.63,30.33,38.41l-16.06,77.7C109,173.88,92.66,187.45,73.76,187.45Z"/><ellipse class="cls-2" cx="73.76" cy="77.49" rx="33.23" ry="34.1"/><path class="cls-8" d="M53.24,38.8c0-15.27,22.51-14.14,14.35-30.54C79.28,10.52,93.45,21.64,94.28,38.8Z"/><path class="cls-4" d="M106.87,60,94.09,72.81a6.61,6.61,0,1,0,9.35,9.35C111.43,74.18,106.87,60,106.87,60Z"/><path class="cls-4" d="M53.44,72.81,40.66,60S36.1,74.18,44.08,82.16a6.61,6.61,0,1,0,9.36-9.35Z"/><circle class="cls-4" cx="73.76" cy="77.49" r="27.5"/><path class="cls-2" d="M68.71,70.32a5,5,0,1,1-5-5A5.06,5.06,0,0,1,68.71,70.32Z"/><path class="cls-2" d="M88.91,70.32a5,5,0,1,1-5-5A5.06,5.06,0,0,1,88.91,70.32Z"/><circle class="cls-9" cx="69.38" cy="52.48" r="5.95"/><path class="cls-9" d="M69.38,58.43h4.38a11.9,11.9,0,1,0,0-23.79h0a6.75,6.75,0,0,1-4.38,11.9Z"/><path class="cls-5" d="M88.91,80.42a15.15,15.15,0,1,1-30.3,0Z"/><path d="M51.59,72.8V70.44a2.39,2.39,0,0,0-2.4-2.4h0a1.54,1.54,0,0,1-1.54-1.54h0a1.53,1.53,0,0,1,1-1.45c1.75-.64,5.87-1.77,12.82-1.77A15,15,0,0,1,70.7,66a5.15,5.15,0,0,0,6.13,0,15,15,0,0,1,9.22-2.69c7,0,11.06,1.13,12.82,1.77a1.53,1.53,0,0,1,1,1.45h0A1.54,1.54,0,0,1,98.33,68h0a2.4,2.4,0,0,0-2.4,2.4V72.8L73.76,71.31Z"/><path d="M86.05,63.28a10.06,10.06,0,0,0-9.81,7.14,3.82,3.82,0,0,0-4.95,0,10.06,10.06,0,1,0,.44,3,2.11,2.11,0,0,1,1.8-2.13,2,2,0,0,1,2.27,2A10.07,10.07,0,1,0,86.05,63.28Z"/><circle class="cls-2" cx="61.65" cy="73.35" r="8.27"/><circle class="cls-2" cx="85.87" cy="73.35" r="8.27"/></g></g></svg>