<svg xmlns="http://www.w3.org/2000/svg" viewBox="0 0 128.11 219.4"><defs><style>.cls-1,.cls-5,.cls-9{fill:none;stroke-linecap:round;stroke-miterlimit:10;}.cls-1{stroke:#fadcbc;}.cls-1,.cls-5{stroke-width:11.72px;}.cls-2{fill:#332e2e;}.cls-3{fill:#f9ce1d;}.cls-4{fill:#f33;}.cls-5{stroke:#f33;}.cls-6{fill:#fadcbc;}.cls-7{fill:#fff;}.cls-8{fill:#39f;}.cls-9{stroke:#297acc;stroke-width:2.93px;}.cls-10{fill:#297acc;}.cls-11{fill:#cc2929;}.cls-12{fill:#764c2e;}</style></defs><title>elf25</title><g id="Layer_2" data-name="Layer 2"><g id="ART"><path class="cls-1" d="M74.31,144.72v46.13"/><path class="cls-2" d="M100.31,196.71A11.34,11.34,0,0,1,89,208.05h0a8.79,8.79,0,0,1-8.8-8.79v-8.41H68.45v25.62a2.93,2.93,0,0,0,2.93,2.93H100a11.53,11.53,0,0,0,11.61-10.93A11.35,11.35,0,0,0,100.31,196.71Z"/><path class="cls-3" d="M80.17,202.19h-4.4a2.93,2.93,0,0,1,0-5.86h4.4a2.93,2.93,0,0,1,0,5.86Z"/><path class="cls-1" d="M53.8,144.72v46.13"/><path class="cls-2" d="M27.8,196.71a11.34,11.34,0,0,0,11.34,11.34h0a8.79,8.79,0,0,0,8.8-8.79v-8.41H59.66v25.62a2.93,2.93,0,0,1-2.93,2.93H28.07a11.53,11.53,0,0,1-11.61-10.93A11.35,11.35,0,0,1,27.8,196.71Z"/><path class="cls-3" d="M47.94,202.19h4.4a2.93,2.93,0,1,0,0-5.86h-4.4a2.93,2.93,0,0,0,0,5.86Z"/><polygon class="cls-4" points="53.8 144.72 74.31 144.72 64.06 92.81 53.8 144.72"/><path class="cls-4" d="M64.05,87a25,25,0,0,0-25,25v21a25,25,0,0,0,50,0V112A25,25,0,0,0,64.05,87Z"/><path class="cls-5" d="M64.05,92.81c23.75,0,47.6,19.31,47.6,40.95"/><circle class="cls-6" cx="111.65" cy="146.26" r="12.5"/><path class="cls-7" d="M122.25,127.9H101.06a5.87,5.87,0,0,0,0,11.73h21.19a5.87,5.87,0,0,0,0-11.73Z"/><path class="cls-5" d="M64.05,92.81c-23.75,0-47.6,17.16-47.6,40.95"/><circle class="cls-6" cx="16.45" cy="146.26" r="12.5"/><path class="cls-7" d="M27.05,127.9H5.86a5.87,5.87,0,0,0,0,11.73H27.05a5.87,5.87,0,0,0,0-11.73Z"/><rect class="cls-2" x="39.05" y="120.4" width="50" height="12.5"/><rect class="cls-3" x="57.8" y="120.4" width="12.5" height="12.5"/><path class="cls-8" d="M34.6,165.35v-49.6A7.26,7.26,0,0,1,36.33,111a50.48,50.48,0,0,0,5.14-8,7.13,7.13,0,0,1,11.28-1.72,15.45,15.45,0,0,0,11.3,4.41,15.45,15.45,0,0,0,11.27-4.37,7.14,7.14,0,0,1,11.29,1.72,47.53,47.53,0,0,0,5,7.7,8,8,0,0,1,1.92,5.13v49.41a5.76,5.76,0,0,1-5.77,5.76H40.37A5.76,5.76,0,0,1,34.6,165.35Z"/><path class="cls-9" d="M64.05,134.93h0a8.59,8.59,0,0,1-8.59-8.59v-9.19H72.64v9.19A8.58,8.58,0,0,1,64.05,134.93Z"/><path class="cls-10" d="M48,112.15h0a4.41,4.41,0,0,1-4.41-4.41V88.28A2.35,2.35,0,0,1,46,85.93H50.1a2.35,2.35,0,0,1,2.34,2.35v19.46A4.41,4.41,0,0,1,48,112.15Z"/><circle class="cls-3" cx="48.04" cy="107.74" r="2.12"/><path class="cls-10" d="M80.07,112.15h0a4.42,4.42,0,0,1-4.41-4.41V88.28A2.35,2.35,0,0,1,78,85.93h4.13a2.35,2.35,0,0,1,2.34,2.35v19.46A4.41,4.41,0,0,1,80.07,112.15Z"/><circle class="cls-3" cx="80.07" cy="107.74" r="2.12"/><path class="cls-9" d="M40,150.39a10.91,10.91,0,0,0,10.12-10.3"/><path class="cls-9" d="M88.08,150.39A10.93,10.93,0,0,1,78,140.09"/><path class="cls-4" d="M83.87,43c0-16.16-9.39-25.61-19.82-25.61S44.24,26.85,44.24,43Z"/><circle class="cls-7" cx="64.05" cy="8.7" r="8.7"/><ellipse class="cls-11" cx="64.05" cy="54.61" rx="41.23" ry="32.34"/><path class="cls-12" d="M34.48,62a29.58,29.58,0,0,1,59.15,0Z"/><circle class="cls-12" cx="41.28" cy="80.15" r="6.8"/><circle class="cls-12" cx="56.74" cy="80.15" r="6.8"/><circle class="cls-12" cx="33.55" cy="80.15" r="6.8"/><circle class="cls-12" cx="49.01" cy="80.15" r="6.8"/><circle class="cls-12" cx="86.83" cy="80.15" r="6.8"/><circle class="cls-12" cx="71.37" cy="80.15" r="6.8"/><circle class="cls-12" cx="94.56" cy="80.15" r="6.8"/><circle class="cls-12" cx="79.1" cy="80.15" r="6.8"/><rect class="cls-12" x="33.55" y="61.94" width="61.01" height="18.21"/><path class="cls-6" d="M97.16,44.49,84.38,57.27a6.61,6.61,0,0,0,9.35,9.36C101.72,58.64,97.16,44.49,97.16,44.49Z"/><path class="cls-6" d="M43.73,57.27,31,44.49s-4.56,14.15,3.43,22.14a6.61,6.61,0,1,0,9.35-9.36Z"/><circle class="cls-6" cx="64.05" cy="61.95" r="25"/><path class="cls-12" d="M64.06,27.56A14.08,14.08,0,0,0,50,41.64a4.7,4.7,0,1,0,9.39,0,4.7,4.7,0,1,0,9.39,0,4.7,4.7,0,1,0,9.39,0A14.08,14.08,0,0,0,64.06,27.56Z"/><path class="cls-2" d="M59,54.78a5,5,0,1,1-5-5.05A5,5,0,0,1,59,54.78Z"/><path class="cls-2" d="M79.2,54.78a5,5,0,1,1-5-5.05A5,5,0,0,1,79.2,54.78Z"/><path class="cls-7" d="M79.2,64.88a15.15,15.15,0,0,1-30.3,0Z"/></g></g></svg>