<svg xmlns="http://www.w3.org/2000/svg" viewBox="0 0 139.83 275.5"><defs><style>.cls-1{fill:none;stroke:#6f00ff;stroke-linecap:round;stroke-miterlimit:10;stroke-width:11.72px;}.cls-2{fill:#332e2e;}.cls-3{fill:#f9ce1d;}.cls-4{fill:#00acc1;}.cls-5{fill:#584539;}.cls-6{fill:#fff;}.cls-7{fill:#6f00ff;}.cls-8{fill:#a14343;}</style></defs><title>elf2</title><g id="Layer_2" data-name="Layer 2"><g id="ART"><path class="cls-1" d="M80.17,180.07V247"/><path class="cls-2" d="M106.17,252.81a11.35,11.35,0,0,1-11.34,11.35h0a8.8,8.8,0,0,1-8.8-8.8V247H74.31v25.62a2.93,2.93,0,0,0,2.93,2.93H105.9a11.52,11.52,0,0,0,11.61-10.93A11.35,11.35,0,0,0,106.17,252.81Z"/><path class="cls-3" d="M86,258.3h-4.4a2.94,2.94,0,0,1,0-5.87H86a2.94,2.94,0,1,1,0,5.87Z"/><path class="cls-1" d="M59.66,180.07V247"/><path class="cls-2" d="M33.66,252.81A11.35,11.35,0,0,0,45,264.16h0a8.8,8.8,0,0,0,8.79-8.8V247H65.52v25.62a2.93,2.93,0,0,1-2.93,2.93H33.93a11.52,11.52,0,0,1-11.61-10.93A11.35,11.35,0,0,1,33.66,252.81Z"/><path class="cls-3" d="M53.8,258.3h4.4a2.94,2.94,0,0,0,0-5.87H53.8a2.94,2.94,0,0,0,0,5.87Z"/><polygon class="cls-4" points="59.66 180.07 80.17 180.07 69.92 110.4 59.66 180.07"/><path class="cls-1" d="M69.92,110.4c35.48,0,53.46,31,53.46,52.68"/><circle class="cls-5" cx="123.38" cy="175.58" r="12.5"/><path class="cls-6" d="M134,157.22H112.79a5.86,5.86,0,1,0,0,11.72H134a5.86,5.86,0,1,0,0-11.72Z"/><path class="cls-1" d="M69.92,110.4c-35.49,0-53.47,31-53.47,52.68"/><circle class="cls-5" cx="16.45" cy="175.58" r="12.5"/><path class="cls-6" d="M27.05,157.22H5.86a5.86,5.86,0,0,0,0,11.72H27.05a5.86,5.86,0,0,0,0-11.72Z"/><path class="cls-7" d="M69.92,193.25c8,0,19.15-3.82,19.15-20.59s12-22.11,12-38.38-10.57-29.74-31.14-29.74S38.77,118,38.77,134.28s12,21.6,12,38.38S61.88,193.25,69.92,193.25Z"/><path class="cls-2" d="M91.82,159.67H48a31.44,31.44,0,0,1,2.74,12.5H89.08A31.62,31.62,0,0,1,91.82,159.67Z"/><rect class="cls-3" x="63.67" y="159.67" width="12.5" height="12.5"/><circle class="cls-6" cx="69.92" cy="8.7" r="8.7"/><polygon class="cls-7" points="94.92 67.32 69.92 17.4 44.91 67.32 94.92 67.32"/><path class="cls-6" d="M93.78,79.4a7.33,7.33,0,0,1-7-5.14,17.68,17.68,0,0,0-33.75,0,7.33,7.33,0,1,1-14-4.38,32.34,32.34,0,0,1,61.72,0A7.32,7.32,0,0,1,96,79.06,7.25,7.25,0,0,1,93.78,79.4Z"/><path class="cls-5" d="M103,62.08,90.24,74.86a6.61,6.61,0,1,0,9.36,9.35C107.58,76.23,103,62.08,103,62.08Z"/><path class="cls-5" d="M49.59,74.86,36.81,62.08s-4.56,14.15,3.43,22.14a6.61,6.61,0,1,0,9.35-9.36Z"/><circle class="cls-5" cx="69.92" cy="79.54" r="25"/><path class="cls-2" d="M64.87,72.37a5,5,0,1,1-5.05-5.05A5.06,5.06,0,0,1,64.87,72.37Z"/><path class="cls-2" d="M85.07,72.37a5,5,0,1,1-5-5.05A5.06,5.06,0,0,1,85.07,72.37Z"/><path class="cls-8" d="M78,55.86A25,25,0,0,0,46.24,71.5,25,25,0,0,0,78,55.86Z"/><path class="cls-6" d="M85.07,82.47a15.15,15.15,0,1,1-30.3,0Z"/></g></g></svg>