<svg xmlns="http://www.w3.org/2000/svg" width="323.37" height="58.86" viewBox="0 0 323.37 58.86"><defs><clipPath id="a"><path d="M295.77 29.62c0-16.26-7.44-29.62-16.34-29.62L44.11.1c-8.9 0-15.79 13.12-15.79 29.39 0 16.08 8.12 29.37 16.12 29.37h236c8 0 15.33-13.16 15.33-29.24z" fill="none"/></clipPath><clipPath id="b"><path fill="none" d="M57.77 33.26L44.25 75.95h27.03L57.77 33.26z"/></clipPath><clipPath id="c"><path fill="none" d="M178.96 33.26l-13.51 42.69h27.02l-13.51-42.69z"/></clipPath><clipPath id="d"><path fill="none" d="M269.86 33.26l-13.52 42.69h27.03l-13.51-42.69z"/></clipPath><clipPath id="e"><path fill="none" d="M88.06-28.57L74.55 14.11h27.03L88.06-28.57z"/></clipPath><clipPath id="f"><path fill="none" d="M148.66-28.57l-13.51 42.68h27.03l-13.52-42.68z"/></clipPath><clipPath id="g"><path fill="none" d="M239.56-28.57l-13.52 42.68h27.03l-13.51-42.68z"/></clipPath><clipPath id="h"><path fill="none" d="M118.36.78l-13.51 42.69h27.03L118.36.78z"/></clipPath><clipPath id="i"><path fill="none" d="M209.26.78l-13.51 42.69h27.02L209.26.78z"/></clipPath></defs><title>cutout-1</title><path fill="#63ddff" d="M3.97 7.71h18.31v43.94H3.97z"/><path fill="#0083ca" d="M0 7.71h7.8v43.94H0z"/><path fill="#63ddff" d="M319.4 51.65h-18.31V7.71h18.31z"/><path fill="#0083ca" d="M323.37 51.65h-7.8V7.71h7.8z"/><rect x="12.68" y="20.82" width="297.55" height="17.72" rx="4.44" ry="4.44" fill="#b3b3b3"/><path d="M295.77 29.62c0-16.26-7.44-29.62-16.34-29.62L44.11.1c-8.9 0-15.79 13.12-15.79 29.39 0 16.08 8.12 29.37 16.12 29.37h236c8 0 15.33-13.16 15.33-29.24z" fill="#bcffda"/><g clip-path="url(#a)"><path fill="#158e4b" d="M57.77 33.26L44.25 75.95h27.03L57.77 33.26z"/><g clip-path="url(#b)" fill="none" stroke="#19a662" stroke-miterlimit="10" stroke-width="2.238"><path d="M72.19 42.34L57.77 56.77 43.35 42.34"/><path d="M72.19 51.94L57.77 66.36 43.35 51.94M72.19 23.16L57.77 37.58 43.35 23.16"/><path d="M72.19 32.76L57.77 47.17 43.35 32.76"/></g><path opacity=".05" d="M57.77 33.26L50 75.95h-5.75l13.52-42.69z"/><path fill="#fbcd55" stroke="#fbcd55" stroke-linejoin="round" stroke-width=".373" d="M57.77 28.88l.71 1.44 1.59.23-1.15 1.13.27 1.58-1.42-.75-1.43.75.28-1.58-1.15-1.13 1.59-.23.71-1.44z"/><path fill="#fbcd55" stroke="#fbcd55" stroke-linejoin="round" stroke-width=".373" d="M57.77 32.26l-.5 2.57h1l-.5-2.57z"/><path d="M56.19 38.24S57 42 60 40.18c-.31 3.16-2.19 6.5-5.82 4.55 0 0 3.39 10.75 8.36 3.48.27 7.86-6.9 11.54-11 4.86 0 0 3.32 16.27 14.59 6.48C65.9 65.8 53.84 74 47.46 65.8c1.68 5.69 9.8 9.32 14.6 8.61a18.26 18.26 0 0 0 7.78-3" fill="none" stroke="#f2bf45" stroke-linecap="round" stroke-miterlimit="10" stroke-width="1.119" stroke-dasharray="0,2.237644672393799"/><circle cx="55.47" cy="42.02" r=".85" fill="#d23f33"/><circle cx="58.98" cy="38.32" r=".85" fill="#d23f33"/><circle cx="61.39" cy="46.23" r=".85" fill="#d23f33"/><circle cx="54.75" cy="50.27" r=".85" fill="#d23f33"/><circle cx="62.67" cy="54.41" r=".85" fill="#d23f33"/><circle cx="54.19" cy="56.99" r=".85" fill="#d23f33"/><path fill="#158e4b" d="M178.96 33.26l-13.51 42.69h27.02l-13.51-42.69z"/><g clip-path="url(#c)" fill="none" stroke="#19a662" stroke-miterlimit="10" stroke-width="2.238"><path d="M193.38 42.34l-14.42 14.43-14.42-14.43"/><path d="M193.38 51.94l-14.42 14.42-14.42-14.42M193.38 23.16l-14.42 14.42-14.42-14.42"/><path d="M193.38 32.76l-14.42 14.41-14.42-14.41"/></g><path opacity=".05" d="M178.96 33.26l-7.77 42.69h-5.74l13.51-42.69z"/><path fill="#fbcd55" stroke="#fbcd55" stroke-linejoin="round" stroke-width=".373" d="M178.96 28.88l.71 1.44 1.59.23-1.15 1.13.27 1.58-1.42-.75-1.42.75.27-1.58-1.15-1.13 1.59-.23.71-1.44z"/><path fill="#fbcd55" stroke="#fbcd55" stroke-linejoin="round" stroke-width=".373" d="M178.96 32.26l-.5 2.57h1l-.5-2.57z"/><path d="M177.38 38.24s.86 3.74 3.77 1.94c-.31 3.16-2.19 6.5-5.82 4.55 0 0 3.39 10.75 8.36 3.48.27 7.86-6.9 11.54-11 4.86 0 0 3.32 16.27 14.59 6.48C187.1 65.8 175 74 168.66 65.8c1.68 5.69 9.8 9.32 14.6 8.61a18.26 18.26 0 0 0 7.78-3" fill="none" stroke="#f2bf45" stroke-linecap="round" stroke-miterlimit="10" stroke-width="1.119" stroke-dasharray="0,2.237644672393799"/><circle cx="176.66" cy="42.02" r=".85" fill="#d23f33"/><circle cx="180.17" cy="38.32" r=".85" fill="#d23f33"/><circle cx="182.58" cy="46.23" r=".85" fill="#d23f33"/><circle cx="175.95" cy="50.27" r=".85" fill="#d23f33"/><circle cx="183.86" cy="54.41" r=".85" fill="#d23f33"/><circle cx="175.38" cy="56.99" r=".85" fill="#d23f33"/><path fill="#158e4b" d="M269.86 33.26l-13.52 42.69h27.03l-13.51-42.69z"/><g clip-path="url(#d)" fill="none" stroke="#19a662" stroke-miterlimit="10" stroke-width="2.238"><path d="M284.28 42.34l-14.42 14.43-14.42-14.43"/><path d="M284.28 51.94l-14.42 14.42-14.42-14.42M284.28 23.16l-14.42 14.42-14.42-14.42"/><path d="M284.28 32.76l-14.42 14.41-14.42-14.41"/></g><path opacity=".05" d="M269.86 33.26l-7.77 42.69h-5.75l13.52-42.69z"/><path fill="#fbcd55" stroke="#fbcd55" stroke-linejoin="round" stroke-width=".373" d="M269.86 28.88l.71 1.44 1.59.23-1.15 1.13.27 1.58-1.42-.75-1.43.75.27-1.58-1.15-1.13 1.59-.23.72-1.44z"/><path fill="#fbcd55" stroke="#fbcd55" stroke-linejoin="round" stroke-width=".373" d="M269.86 32.26l-.5 2.57h.99l-.49-2.57z"/><path d="M268.28 38.24s.86 3.74 3.77 1.94c-.31 3.16-2.19 6.5-5.82 4.55 0 0 3.39 10.75 8.36 3.48.27 7.86-6.9 11.54-11 4.86 0 0 3.32 16.27 14.59 6.48C278 65.8 265.93 74 259.55 65.8c1.68 5.69 9.8 9.32 14.6 8.61a18.26 18.26 0 0 0 7.78-3" fill="none" stroke="#f2bf45" stroke-linecap="round" stroke-miterlimit="10" stroke-width="1.119" stroke-dasharray="0,2.237644672393799"/><circle cx="267.55" cy="42.02" r=".85" fill="#d23f33"/><circle cx="271.07" cy="38.32" r=".85" fill="#d23f33"/><circle cx="273.48" cy="46.23" r=".85" fill="#d23f33"/><circle cx="266.84" cy="50.27" r=".85" fill="#d23f33"/><circle cx="274.76" cy="54.41" r=".85" fill="#d23f33"/><circle cx="266.28" cy="56.99" r=".85" fill="#d23f33"/><path fill="#725f4f" d="M86.49 5.38h3.15v14.56h-3.15z"/><path fill="#725f4f" d="M83.85 19.01h8.43v1.25h-8.43z"/><path fill="#d2d678" opacity=".1" d="M83.85 19.01h8.43v.25h-8.43z"/><path fill="#158e4b" d="M88.06-28.57L74.55 14.11h27.03L88.06-28.57z"/><g clip-path="url(#e)" fill="none" stroke="#19a662" stroke-miterlimit="10" stroke-width="2.238"><path d="M102.49-9.9L88.06 4.52 73.64-9.9"/><path d="M102.49-.31L88.06 14.11 73.64-.31"/></g><path opacity=".05" d="M88.06-28.57L80.3 14.11h-5.75l13.51-42.68z"/><path opacity=".1" d="M86.49 14.11h3.15v2.13l-3.15-1.43v-.7z"/><path d="M86.49-23.59s.86 3.74 3.77 1.94c-.31 3.16-2.19 6.5-5.82 4.55 0 0 3.39 10.75 8.36 3.48.27 7.86-6.9 11.54-11 4.86 0 0 3.32 16.27 14.59 6.48C96.2 4 84.14 12.17 77.76 4c1.68 5.69 9.8 9.32 14.6 8.61a18.26 18.26 0 0 0 7.78-3" fill="none" stroke="#f2bf45" stroke-linecap="round" stroke-miterlimit="10" stroke-width="1.119" stroke-dasharray="0,2.237644672393799"/><circle cx="88.79" cy="2.1" r=".85" fill="#d23f33"/><circle cx="97.35" cy="2.36" r=".85" fill="#d23f33"/><circle cx="85.18" cy="5.62" r=".85" fill="#d23f33"/><circle cx="78.11" cy="4.29" r=".85" fill="#d23f33"/><circle cx="91.35" cy="8.48" r=".85" fill="#d23f33"/><circle cx="99.48" cy="7.48" r=".85" fill="#d23f33"/><circle cx="95.97" cy="11.69" r=".85" fill="#d23f33"/><circle cx="77.41" cy="10.27" r=".85" fill="#d23f33"/><circle cx="98.19" cy="12.88" r=".85" fill="#d23f33"/><path fill="#725f4f" d="M147.09 5.38h3.15v14.56h-3.15z"/><path fill="#725f4f" d="M144.45 19.01h8.43v1.25h-8.43z"/><path fill="#d2d678" opacity=".1" d="M144.45 19.01h8.43v.25h-8.43z"/><path fill="#158e4b" d="M148.66-28.57l-13.51 42.68h27.03l-13.52-42.68z"/><g clip-path="url(#f)" fill="none" stroke="#19a662" stroke-miterlimit="10" stroke-width="2.238"><path d="M163.08-9.9L148.66 4.52 134.24-9.9"/><path d="M163.08-.31l-14.42 14.42L134.24-.31"/></g><path opacity=".05" d="M148.66-28.57l-7.77 42.68h-5.74l13.51-42.68z"/><path opacity=".1" d="M147.09 14.11h3.15v2.13l-3.15-1.43v-.7z"/><path d="M147.09-23.59s.86 3.74 3.77 1.94c-.31 3.16-2.19 6.5-5.82 4.55 0 0 3.39 10.75 8.36 3.48.27 7.86-6.9 11.54-11 4.86 0 0 3.32 16.27 14.59 6.48C156.8 4 144.74 12.17 138.36 4c1.68 5.69 9.8 9.32 14.6 8.61a18.26 18.26 0 0 0 7.78-3" fill="none" stroke="#f2bf45" stroke-linecap="round" stroke-miterlimit="10" stroke-width="1.119" stroke-dasharray="0,2.237644672393799"/><circle cx="149.39" cy="2.1" r=".85" fill="#d23f33"/><circle cx="157.95" cy="2.36" r=".85" fill="#d23f33"/><circle cx="145.78" cy="5.62" r=".85" fill="#d23f33"/><circle cx="138.7" cy="4.29" r=".85" fill="#d23f33"/><circle cx="151.95" cy="8.48" r=".85" fill="#d23f33"/><circle cx="160.07" cy="7.48" r=".85" fill="#d23f33"/><circle cx="156.56" cy="11.69" r=".85" fill="#d23f33"/><circle cx="138.01" cy="10.27" r=".85" fill="#d23f33"/><circle cx="158.79" cy="12.88" r=".85" fill="#d23f33"/><path fill="#725f4f" d="M237.98 5.38h3.15v14.56h-3.15z"/><path fill="#725f4f" d="M235.34 19.01h8.43v1.25h-8.43z"/><path fill="#d2d678" opacity=".1" d="M235.34 19.01h8.43v.25h-8.43z"/><path fill="#158e4b" d="M239.56-28.57l-13.52 42.68h27.03l-13.51-42.68z"/><g clip-path="url(#g)" fill="none" stroke="#19a662" stroke-miterlimit="10" stroke-width="2.238"><path d="M253.98-9.9L239.56 4.52 225.14-9.9"/><path d="M253.98-.31l-14.42 14.42L225.14-.31"/></g><path opacity=".05" d="M239.56-28.57l-7.77 42.68h-5.75l13.52-42.68z"/><path opacity=".1" d="M237.98 14.11h3.15v2.13l-3.15-1.43v-.7z"/><path d="M238-23.59s.86 3.74 3.77 1.94c-.31 3.16-2.19 6.5-5.82 4.55 0 0 3.39 10.75 8.36 3.48.27 7.86-6.9 11.54-11 4.86 0 0 3.32 16.27 14.59 6.48C247.69 4 235.63 12.17 229.26 4c1.68 5.69 9.8 9.32 14.6 8.61a18.26 18.26 0 0 0 7.78-3" fill="none" stroke="#f2bf45" stroke-linecap="round" stroke-miterlimit="10" stroke-width="1.119" stroke-dasharray="0,2.237644672393799"/><circle cx="240.28" cy="2.1" r=".85" fill="#d23f33"/><circle cx="248.85" cy="2.36" r=".85" fill="#d23f33"/><circle cx="236.67" cy="5.62" r=".85" fill="#d23f33"/><circle cx="229.6" cy="4.29" r=".85" fill="#d23f33"/><circle cx="242.84" cy="8.48" r=".85" fill="#d23f33"/><circle cx="250.97" cy="7.48" r=".85" fill="#d23f33"/><circle cx="247.46" cy="11.69" r=".85" fill="#d23f33"/><circle cx="228.91" cy="10.27" r=".85" fill="#d23f33"/><circle cx="249.68" cy="12.88" r=".85" fill="#d23f33"/><path fill="#725f4f" d="M116.79 34.74h3.15V49.3h-3.15z"/><path fill="#725f4f" d="M114.15 48.36h8.43v1.25h-8.43z"/><path fill="#d2d678" opacity=".1" d="M114.15 48.36h8.43v.25h-8.43z"/><path fill="#158e4b" d="M118.36.78l-13.51 42.69h27.03L118.36.78z"/><g clip-path="url(#h)" fill="none" stroke="#19a662" stroke-miterlimit="10" stroke-width="2.238"><path d="M132.78 9.87l-14.42 14.42-14.42-14.42"/><path d="M132.78 19.45l-14.42 14.43-14.42-14.43"/><path d="M132.78 29.05l-14.42 14.42-14.42-14.42M132.78-9.32L118.36 5.1 103.94-9.32"/><path d="M132.78.27l-14.42 14.42L103.94.27"/></g><path opacity=".05" d="M118.36.78l-7.77 42.69h-5.74L118.36.78z"/><path opacity=".1" d="M116.79 43.47h3.15v2.12l-3.15-1.43v-.69z"/><path fill="#fbcd55" stroke="#fbcd55" stroke-linejoin="round" stroke-width=".373" d="M118.36-3.6l.72 1.44 1.59.23-1.15 1.12.27 1.59-1.43-.75-1.42.75.27-1.59-1.15-1.12 1.59-.23.71-1.44z"/><path fill="#fbcd55" stroke="#fbcd55" stroke-linejoin="round" stroke-width=".373" d="M118.36-.22l-.49 2.57h.99l-.5-2.57z"/><path d="M116.79 5.76s.86 3.74 3.77 1.94c-.31 3.16-2.19 6.5-5.82 4.55 0 0 3.39 10.75 8.36 3.48.27 7.86-6.9 11.54-11 4.86 0 0 3.32 16.27 14.59 6.48-.19 6.25-12.25 14.46-18.62 6.25 1.68 5.69 9.8 9.32 14.6 8.61a18.26 18.26 0 0 0 7.78-3" fill="none" stroke="#f2bf45" stroke-linecap="round" stroke-miterlimit="10" stroke-width="1.119" stroke-dasharray="0,2.237644672393799"/><circle cx="116.06" cy="9.54" r=".85" fill="#d23f33"/><circle cx="119.57" cy="5.84" r=".85" fill="#d23f33"/><circle cx="121.98" cy="13.75" r=".85" fill="#d23f33"/><circle cx="115.35" cy="17.79" r=".85" fill="#d23f33"/><circle cx="123.27" cy="21.93" r=".85" fill="#d23f33"/><circle cx="114.78" cy="24.51" r=".85" fill="#d23f33"/><circle cx="111.46" cy="27.89" r=".85" fill="#d23f33"/><circle cx="122.33" cy="27.83" r=".85" fill="#d23f33"/><circle cx="119.09" cy="31.45" r=".85" fill="#d23f33"/><circle cx="127.65" cy="31.71" r=".85" fill="#d23f33"/><circle cx="115.48" cy="34.98" r=".85" fill="#d23f33"/><circle cx="108.41" cy="33.64" r=".85" fill="#d23f33"/><circle cx="121.65" cy="37.83" r=".85" fill="#d23f33"/><circle cx="129.78" cy="36.83" r=".85" fill="#d23f33"/><circle cx="126.26" cy="41.05" r=".85" fill="#d23f33"/><circle cx="107.71" cy="39.62" r=".85" fill="#d23f33"/><circle cx="128.49" cy="42.24" r=".85" fill="#d23f33"/><path fill="#725f4f" d="M207.68 34.74h3.15V49.3h-3.15z"/><path fill="#725f4f" d="M205.04 48.36h8.43v1.25h-8.43z"/><path fill="#d2d678" opacity=".1" d="M205.04 48.36h8.43v.25h-8.43z"/><path fill="#158e4b" d="M209.26.78l-13.51 42.69h27.02L209.26.78z"/><g clip-path="url(#i)" fill="none" stroke="#19a662" stroke-miterlimit="10" stroke-width="2.238"><path d="M223.68 9.87l-14.42 14.42-14.42-14.42"/><path d="M223.68 19.45l-14.42 14.43-14.42-14.43"/><path d="M223.68 29.05l-14.42 14.42-14.42-14.42M223.68-9.32L209.26 5.1 194.84-9.32"/><path d="M223.68.27l-14.42 14.42L194.84.27"/></g><path opacity=".05" d="M209.26.78l-7.77 42.69h-5.74L209.26.78z"/><path opacity=".1" d="M207.68 43.47h3.16v2.12l-3.16-1.43v-.69z"/><path fill="#fbcd55" stroke="#fbcd55" stroke-linejoin="round" stroke-width=".373" d="M209.26-3.6l.71 1.44 1.59.23-1.15 1.12.27 1.59-1.42-.75-1.42.75.27-1.59-1.15-1.12 1.59-.23.71-1.44z"/><path fill="#fbcd55" stroke="#fbcd55" stroke-linejoin="round" stroke-width=".373" d="M209.26-.22l-.5 2.57h1l-.5-2.57z"/><path d="M207.68 5.76s.86 3.74 3.77 1.94c-.31 3.16-2.19 6.5-5.82 4.55 0 0 3.39 10.75 8.36 3.48.27 7.86-6.9 11.54-11 4.86 0 0 3.32 16.27 14.59 6.48-.19 6.25-12.25 14.46-18.62 6.25 1.68 5.69 9.8 9.32 14.6 8.61a18.26 18.26 0 0 0 7.78-3" fill="none" stroke="#f2bf45" stroke-linecap="round" stroke-miterlimit="10" stroke-width="1.119" stroke-dasharray="0,2.237644672393799"/><circle cx="206.96" cy="9.54" r=".85" fill="#d23f33"/><circle cx="210.47" cy="5.84" r=".85" fill="#d23f33"/><circle cx="212.88" cy="13.75" r=".85" fill="#d23f33"/><circle cx="206.25" cy="17.79" r=".85" fill="#d23f33"/><circle cx="214.16" cy="21.93" r=".85" fill="#d23f33"/><circle cx="205.68" cy="24.51" r=".85" fill="#d23f33"/><circle cx="202.35" cy="27.89" r=".85" fill="#d23f33"/><circle cx="213.23" cy="27.83" r=".85" fill="#d23f33"/><circle cx="209.99" cy="31.45" r=".85" fill="#d23f33"/><circle cx="218.55" cy="31.71" r=".85" fill="#d23f33"/><circle cx="206.38" cy="34.98" r=".85" fill="#d23f33"/><circle cx="199.3" cy="33.64" r=".85" fill="#d23f33"/><circle cx="212.55" cy="37.83" r=".85" fill="#d23f33"/><circle cx="220.67" cy="36.83" r=".85" fill="#d23f33"/><circle cx="217.16" cy="41.05" r=".85" fill="#d23f33"/><circle cx="198.61" cy="39.62" r=".85" fill="#d23f33"/><circle cx="219.39" cy="42.24" r=".85" fill="#d23f33"/></g></svg>