<svg xmlns="http://www.w3.org/2000/svg" viewBox="0 0 253.93 385.88"><defs><style>.cls-1{fill:#754c24;}.cls-2,.cls-5,.cls-6{fill:none;stroke-linecap:round;stroke-miterlimit:10;stroke-width:5.75px;}.cls-2{stroke:#603813;}.cls-3{fill:#a67c52;}.cls-4{fill:#f4861f;}.cls-5{stroke:#8c6239;}.cls-6{stroke:#f4d81f;}</style></defs><title>campfire</title><g id="Layer_2" data-name="Layer 2"><g id="Layer_1-2" data-name="Layer 1"><polygon class="cls-1" points="242.13 292.43 158.33 203.75 126.97 233.39 95.6 203.75 11.8 292.43 85.07 332.4 168.87 332.4 242.13 292.43"/><line class="cls-2" x1="93.92" y1="297.49" x2="111.66" y2="244.6"/><line class="cls-2" x1="160.01" y1="297.49" x2="142.28" y2="244.6"/><circle class="cls-3" cx="210.77" cy="322.07" r="43.15"/><circle class="cls-3" cx="43.16" cy="322.07" r="43.15"/><circle class="cls-3" cx="126.97" cy="342.72" r="43.15"/><path class="cls-4" d="M206.28,79.32A112.17,112.17,0,0,1,47.65,238Z"/><path class="cls-4" d="M127,0a112.18,112.18,0,0,1,0,158.63L47.65,79.32Z"/><path class="cls-4" d="M47.65,79.32a112.18,112.18,0,0,0,0,158.63L127,158.63Z"/><path class="cls-5" d="M189.43,335.13A23.76,23.76,0,0,1,212,297.7"/><path class="cls-5" d="M217.73,342.64A21.18,21.18,0,0,0,237.86,327"/><path class="cls-5" d="M125.63,332.31c5.56-3.28,13.7-.76,16.45,5.09s-.51,13.71-6.58,15.91-13.61-1.76-15.25-8"/><path class="cls-5" d="M106.68,336.16a21.13,21.13,0,0,0,20.48,30.45"/><path class="cls-5" d="M121.49,312.79a24.06,24.06,0,0,1,21.72,6.12"/><path class="cls-5" d="M49.65,292.41a24.42,24.42,0,0,1,16,33.69"/><path class="cls-5" d="M23.88,309.87a20.3,20.3,0,0,0,6.3,29.43"/><path class="cls-5" d="M43.89,347.08a17.83,17.83,0,0,0,18.74-4.9"/><path class="cls-5" d="M213.91,313.61a5.31,5.31,0,0,0-5.29,3.88,6,6,0,0,0,2.32,6.27,7,7,0,0,0,6.77.65,8.41,8.41,0,0,0,4.55-5.17"/><path class="cls-5" d="M196.84,350.27a26,26,0,0,0,22.31,3.59"/><path class="cls-5" d="M228.61,296.78a20.57,20.57,0,0,1,9.72,13.55"/><path class="cls-5" d="M159.83,334.53a32.3,32.3,0,0,1-12.75,28.8"/><path class="cls-5" d="M107.69,317.87a23.62,23.62,0,0,0-13,11.14"/><path class="cls-5" d="M39.63,311.77a6.24,6.24,0,0,1,6.07.56A5.7,5.7,0,0,1,48,317.92a5.28,5.28,0,0,1-4.31,4.15,4.92,4.92,0,0,1-5.14-2.94"/><path class="cls-5" d="M31.52,292.41a26.66,26.66,0,0,0-15.75,9.45"/><path class="cls-5" d="M9.8,331.41a32.16,32.16,0,0,0,29.07,26"/><path class="cls-6" d="M123.57,37.77c9,11.37,10.42,27.39,6.66,41.39s-12.09,26.31-21.16,37.61-19,21.94-26.91,34.12-13.6,26.3-12.92,40.78c.74,15.86,9.33,30.81,21.59,40.9"/><path class="cls-6" d="M96.92,65.16C91.5,75.82,83.51,84.92,75.68,94S60,112.27,54.94,123.11s-7.09,23.61-2.9,34.81"/><path class="cls-6" d="M185.21,190.88A66.88,66.88,0,0,0,202,113"/><path class="cls-6" d="M178,148.73a52.13,52.13,0,0,0-25.73,37.65c-1,7.5-.42,15.11-.24,22.69s-.11,15.33-2.87,22.38-8.41,13.35-15.76,15.14"/><path class="cls-6" d="M116.84,174.29a50.09,50.09,0,0,0,8.47,49"/></g></g></svg>