<svg xmlns="http://www.w3.org/2000/svg" viewBox="0 0 406.98 412.66"><defs><style>.cls-1{fill:#f33;}.cls-2{fill:#332e2e;}.cls-3{fill:#f9ce1d;}.cls-10,.cls-11,.cls-4,.cls-9{fill:none;stroke-linecap:round;stroke-miterlimit:10;}.cls-4{stroke:#f33;stroke-width:20.35px;}.cls-5{fill:#fadcbc;}.cls-6{fill:#fff;}.cls-7{fill:#fdd835;}.cls-8{fill:#39f;}.cls-9{stroke:#fff;stroke-width:4.66px;}.cls-10{stroke:#2a8c4a;}.cls-10,.cls-11{stroke-width:16.96px;}.cls-11{stroke:#32a658;}.cls-12{fill:#9b643d;}.cls-13{fill:#00acc1;}.cls-14{fill:#32a658;}.cls-15{fill:#764c2e;}.cls-16{fill:#2a8c4a;}</style></defs><title>elf</title><g id="Layer_2" data-name="Layer 2"><g id="Layer_1-2" data-name="Layer 1"><ellipse class="cls-1" cx="299.02" cy="221.91" rx="56.05" ry="67.09"/><polygon class="cls-1" points="281.4 267.11 316.64 267.11 299.02 165 281.4 267.11"/><path class="cls-2" d="M243,221.91c0,3.88.11,7.68.36,11.37H354.7c.25-3.69.37-7.49.37-11.37q0-3.39-.13-6.71H243.09Q243,218.52,243,221.91Z"/><rect class="cls-3" x="289.98" y="215.2" width="18.08" height="18.08"/><path class="cls-4" d="M299,165c68.84,0,84.16,56.22,84.16,87.53"/><circle class="cls-5" cx="383.18" cy="270.61" r="18.08"/><path class="cls-6" d="M398.51,244.05H367.86a8.48,8.48,0,0,0,0,17h30.65a8.48,8.48,0,0,0,0-17Z"/><path class="cls-4" d="M299,165c-68.85,0-84.17,56.22-84.17,87.53"/><circle class="cls-5" cx="214.85" cy="270.61" r="18.08"/><path class="cls-6" d="M230.17,244.05H199.53a8.48,8.48,0,0,0,0,17h30.64a8.48,8.48,0,1,0,0-17Z"/><path class="cls-4" d="M281.4,267.11V361"/><path class="cls-2" d="M234.81,371.64a20.51,20.51,0,0,0,20.51,20.51h0a15.9,15.9,0,0,0,15.9-15.9V361h20.35v46.32a5.3,5.3,0,0,1-5.3,5.3h-51c-11.12,0-20.59-8.65-21-19.76A20.52,20.52,0,0,1,234.81,371.64Z"/><path class="cls-3" d="M271.22,381.55h8a5.3,5.3,0,1,0,0-10.6h-8a5.3,5.3,0,0,0,0,10.6Z"/><path class="cls-4" d="M316.64,267.11V361"/><path class="cls-2" d="M363.22,371.64a20.51,20.51,0,0,1-20.51,20.51h0a15.9,15.9,0,0,1-15.9-15.9V361H306.46v46.32a5.3,5.3,0,0,0,5.3,5.3h51c11.12,0,20.59-8.65,21-19.76A20.51,20.51,0,0,0,363.22,371.64Z"/><path class="cls-3" d="M326.81,381.55h-8a5.3,5.3,0,0,1,0-10.6h8a5.3,5.3,0,1,1,0,10.6Z"/><path class="cls-7" d="M267.08,98.23a18.73,18.73,0,0,0-15.74-1,21.38,21.38,0,0,0-11.89,11.47c-2.82,6.71-1.8,14.19-4,21.09-3.34,10.31-14.62,17.93-25.07,16.95,3.66,9,11.9,14.45,21.8,15.13,15.42,1.08,31.87-8.31,39.43-22.5S280.11,105.71,267.08,98.23Z"/><circle class="cls-6" cx="299.02" cy="12.58" r="12.58"/><polygon class="cls-1" points="335.18 97.37 299.02 25.17 262.85 97.37 335.18 97.37"/><path class="cls-6" d="M333.53,103.82a10.6,10.6,0,0,1-10.11-7.44,25.58,25.58,0,0,0-48.81,0,10.6,10.6,0,1,1-20.23-6.32,46.77,46.77,0,0,1,89.27,0,10.6,10.6,0,0,1-6.95,13.28A10.89,10.89,0,0,1,333.53,103.82Z"/><path class="cls-7" d="M252,115a47,47,0,0,1,94.1,0Z"/><path class="cls-5" d="M346.9,89.79l-18.49,18.49a9.57,9.57,0,0,0,13.53,13.53C353.49,110.26,346.9,89.79,346.9,89.79Z"/><path class="cls-5" d="M269.62,108.28,251.13,89.79s-6.59,20.47,5,32a9.57,9.57,0,0,0,13.53-13.53Z"/><circle class="cls-6" cx="341.23" cy="116.74" r="1.97"/><circle class="cls-6" cx="256.8" cy="116.74" r="1.97"/><circle class="cls-5" cx="299.02" cy="115.04" r="39.78"/><path class="cls-2" d="M291.71,104.67a7.31,7.31,0,1,1-7.3-7.3A7.31,7.31,0,0,1,291.71,104.67Z"/><path class="cls-2" d="M320.93,104.67a7.31,7.31,0,1,1-7.3-7.3A7.32,7.32,0,0,1,320.93,104.67Z"/><path class="cls-6" d="M320.93,119.28a21.92,21.92,0,1,1-43.83,0Z"/><circle class="cls-7" cx="299.02" cy="75.27" r="15.74"/><polygon class="cls-8" points="354.7 302.03 354.7 233.28 243.34 233.28 242.97 302.03 354.7 302.03"/><path class="cls-9" d="M316.52,245.87A43.29,43.29,0,0,0,344.38,268"/><path class="cls-9" d="M281.51,245.87A43.3,43.3,0,0,1,253.66,268"/><path class="cls-10" d="M107.48,304.65v66.72"/><path class="cls-2" d="M145.09,379.85a16.41,16.41,0,0,1-16.41,16.4h0A12.71,12.71,0,0,1,116,383.54V371.37H99v37.05a4.24,4.24,0,0,0,4.24,4.24h41.45a16.68,16.68,0,0,0,16.8-15.81A16.41,16.41,0,0,0,145.09,379.85Z"/><path class="cls-3" d="M116,387.78h-6.37a4.24,4.24,0,0,1,0-8.48H116a4.24,4.24,0,1,1,0,8.48Z"/><path class="cls-10" d="M77.81,304.65v66.72"/><path class="cls-2" d="M40.21,379.85a16.41,16.41,0,0,0,16.41,16.4h0a12.72,12.72,0,0,0,12.72-12.71V371.37h17v37.05a4.24,4.24,0,0,1-4.24,4.24H40.6a16.67,16.67,0,0,1-16.79-15.81A16.41,16.41,0,0,1,40.21,379.85Z"/><path class="cls-3" d="M69.34,387.78h6.37a4.24,4.24,0,1,0,0-8.48H69.34a4.24,4.24,0,0,0,0,8.48Z"/><path class="cls-11" d="M92.65,229.57c34.35,0,68.85,27.93,68.85,59.23"/><circle class="cls-12" cx="161.5" cy="306.88" r="18.08"/><path class="cls-6" d="M176.82,280.32H146.18a8.48,8.48,0,0,0,0,17h30.64a8.48,8.48,0,1,0,0-17Z"/><path class="cls-11" d="M92.65,229.57c-34.35,0-68.85,24.82-68.85,59.23"/><circle class="cls-12" cx="23.8" cy="306.88" r="18.08"/><path class="cls-6" d="M39.12,280.32H8.48a8.48,8.48,0,1,0,0,17H39.12a8.48,8.48,0,1,0,0-17Z"/><polygon class="cls-13" points="77.81 304.65 107.48 304.65 92.65 229.57 77.81 304.65"/><path class="cls-14" d="M92.65,221.09a36.16,36.16,0,0,0-36.16,36.17v30.3a36.16,36.16,0,0,0,72.32,0v-30.3A36.16,36.16,0,0,0,92.65,221.09Z"/><circle class="cls-6" cx="92.65" cy="82.47" r="12.58"/><polygon class="cls-14" points="128.81 167.26 92.65 95.06 56.49 167.26 128.81 167.26"/><path class="cls-6" d="M127.17,184.73a10.6,10.6,0,0,1-10.12-7.44,25.58,25.58,0,0,0-48.81,0A10.6,10.6,0,0,1,48,171a46.78,46.78,0,0,1,89.28,0,10.62,10.62,0,0,1-10.12,13.76Z"/><path class="cls-12" d="M140.54,159.67l-18.49,18.49a9.57,9.57,0,1,0,13.53,13.53C147.13,180.14,140.54,159.67,140.54,159.67Z"/><path class="cls-12" d="M63.25,178.16,44.76,159.67s-6.59,20.48,5,32a9.57,9.57,0,0,0,13.53-13.54Z"/><circle class="cls-12" cx="92.65" cy="184.93" r="36.16"/><path class="cls-15" d="M92.65,161.49a36,36,0,0,0,20.47-6.37,36.17,36.17,0,0,0-40.94,0A36,36,0,0,0,92.65,161.49Z"/><path class="cls-2" d="M85.34,174.56a7.31,7.31,0,1,1-7.3-7.3A7.31,7.31,0,0,1,85.34,174.56Z"/><path class="cls-2" d="M114.56,174.56a7.31,7.31,0,1,1-7.3-7.3A7.31,7.31,0,0,1,114.56,174.56Z"/><path class="cls-6" d="M114.56,189.17a21.92,21.92,0,0,1-43.83,0Z"/><path class="cls-15" d="M117.07,194.37H68.22A13.61,13.61,0,0,1,81.44,184h22.41a13.59,13.59,0,0,1,13.22,10.4Z"/><path class="cls-16" d="M56.49,287.56a36.16,36.16,0,0,0,72.32,0Z"/><path class="cls-2" d="M111.68,293.93h0a6.37,6.37,0,0,0,6.37-6.37v-62.3a3.94,3.94,0,0,0-3.14-3.86l-6.36-1.33a2.7,2.7,0,0,0-3.25,2.65v64.84A6.37,6.37,0,0,0,111.68,293.93Z"/><circle class="cls-3" cx="111.68" cy="287.56" r="3.06"/><path class="cls-2" d="M73.62,293.93h0a6.38,6.38,0,0,1-6.38-6.37v-62.3a4,4,0,0,1,3.15-3.86l6.35-1.33A2.71,2.71,0,0,1,80,222.72v64.84A6.38,6.38,0,0,1,73.62,293.93Z"/><circle class="cls-3" cx="73.62" cy="287.56" r="3.06"/></g></g></svg>