<svg xmlns="http://www.w3.org/2000/svg" viewBox="0 0 190.47 380.87"><defs><style>.cls-1{fill:#f4861f;}.cls-2{fill:#f9f9f9;}.cls-3{opacity:0.11;}.cls-4{fill:#221f1f;}.cls-5{fill:#e52430;}.cls-6{fill:#f16e21;}.cls-7{fill:#fbcf31;}.cls-8{fill:#f18531;}.cls-9{fill:#b1b3b5;}</style></defs><title>snowman</title><g id="Layer_2" data-name="Layer 2"><g id="Layer_1-2" data-name="Layer 1"><path class="cls-1" d="M186.84,111.07a46,46,0,0,1-46.73,45.1L128.06,156a18.65,18.65,0,0,1-18.41-18.88v-.09a18.64,18.64,0,0,1,18.87-18.32l12.07.15a8.9,8.9,0,0,0,6.35-2.49,8.51,8.51,0,0,0,2.6-6v0l.33-24.13s0,0,0-.07a18.65,18.65,0,0,1,37.3.56l-.32,24.12v.22"/><path class="cls-2" d="M165.94,70.64a6.22,6.22,0,0,1-6.3,6.11A19.07,19.07,0,0,1,140.8,57.53v0a6.22,6.22,0,0,1,12.43.17,6.64,6.64,0,0,0,6.57,6.66,6.23,6.23,0,0,1,6.15,6.3v0"/><path class="cls-3" d="M187.15,86.73l-.31,24.12v.22a46,46,0,0,1-43,45c-1.24.08-2.5.11-3.76.1l-5.06-.06c-.22-.82-.46-1.62-.71-2.43a47.26,47.26,0,0,0,8.25-1.29,46,46,0,0,0,34.72-43.69.81.81,0,0,1,0-.22l.32-24.12a18.65,18.65,0,0,0-9.54-16.51h.66A18.62,18.62,0,0,1,187.15,86.73Z"/><path class="cls-2" d="M185.43,69.63a16.71,16.71,0,0,1-33.41-.5l.24-18.82a.21.21,0,0,1,0-.08,16.71,16.71,0,0,1,33.42.51l-.25,18.82a.16.16,0,0,0,0,.07"/><path class="cls-1" d="M190.47,80.26a7.46,7.46,0,0,1-7.54,7.3l-28.88-.37a7.43,7.43,0,0,1-7.34-7.52v0a7.42,7.42,0,0,1,7.51-7.3l28.9.38a7.43,7.43,0,0,1,7.34,7.51v0"/><path class="cls-2" d="M90,244.26l34.84-.16.48,107.22c19.71,2.82,34.52,14.64,34.58,28.86l-64,.28v-.24l-5.26,0Z"/><path class="cls-2" d="M73.64,244.33l-34.84.15.47,107.22c-19.69,3-34.39,14.94-34.33,29.17l64-.29v-.24l5.26,0Z"/><path class="cls-2" d="M40.52,69.38a44,44,0,1,0,88-2.81C127.77,42.26,106.67-.77,82.36,0S39.74,45.07,40.52,69.38"/><path class="cls-2" d="M15.36,176.61A65.46,65.46,0,0,1,146.28,176l.49,109.18-130.93.58Z"/><path class="cls-4" d="M97.51,66A4.67,4.67,0,1,0,102,61.19,4.65,4.65,0,0,0,97.51,66"/><path class="cls-4" d="M68.49,66.74A4.67,4.67,0,1,0,73,61.92a4.66,4.66,0,0,0-4.52,4.82"/><path class="cls-5" d="M82.36,0c15.24-.49,29.22,16.24,37.72,34.77L46.94,37.12C54.25,18.08,67.13.5,82.36,0"/><path class="cls-5" d="M40,41.68a6.76,6.76,0,0,0,7,6.48l75.51-2.42a6.76,6.76,0,0,0,6.6-6.91L129,35.48a6.76,6.76,0,0,0-7-6.48L46.43,31.41a6.76,6.76,0,0,0-6.59,6.92Z"/><path class="cls-1" d="M15.36,176.61a65.46,65.46,0,0,1,46.08-62.83l.76,171.27-46.36.74Z"/><path class="cls-1" d="M146.92,175.55l.48,109.17-41.85.19-.76-170.25a65.5,65.5,0,0,1,42.13,60.89"/><path class="cls-6" d="M105.33,280.84a3.94,3.94,0,1,0,0,7.87l41-.18a3.94,3.94,0,1,0,0-7.87Z"/><path class="cls-6" d="M16.11,281.24a3.93,3.93,0,1,0,0,7.86l44-.19a3.94,3.94,0,0,0,0-7.87Z"/><rect class="cls-7" x="53.84" y="118.48" width="17.98" height="51.7" transform="translate(-0.64 0.28) rotate(-0.25)"/><rect class="cls-7" x="49.2" y="102.91" width="65.94" height="17.98" transform="translate(-0.49 0.36) rotate(-0.25)"/><path class="cls-8" d="M89.27,67.91,102,79.63,86.75,73.15C81,70.27,86,65.72,89.27,67.91"/><path class="cls-9" d="M108.87,60.39a1.5,1.5,0,0,0,.36-2.94L96.62,53.86a1.5,1.5,0,1,0-.82,2.88l12.61,3.6a1.44,1.44,0,0,0,.46,0"/><path class="cls-9" d="M63.1,63.11a1.61,1.61,0,0,0,.6-.15L76,57.07a1.5,1.5,0,1,0-1.3-2.7l-12.3,5.89a1.5,1.5,0,0,0,.69,2.85"/><path class="cls-4" d="M81.58,82.56A5.23,5.23,0,0,0,92,82.22"/><path class="cls-1" d="M39.58,224.64l-.3-99.24h0A35.45,35.45,0,0,0,4,161l.16,68.51"/><circle class="cls-2" cx="20.58" cy="236.44" r="19"/><path class="cls-1" d="M0,224.92a7.44,7.44,0,0,1,7.43-7.41l28.88-.07a7.44,7.44,0,0,1,7.45,7.42v0a7.41,7.41,0,0,1-7.4,7.41l-28.9.06A7.43,7.43,0,0,1,0,225v0"/></g></g></svg>