<svg xmlns="http://www.w3.org/2000/svg" viewBox="22.3 0 105.5 261.6" enable-background="new 22.3 0 105.5 261.6"><path fill="#00B2EE" d="M43.6 59.1S85 21 106.3 10.9c0 0-18.1 31.7-5.9 45.9l-56.8 2.3z"/><path fill="#FFDF8A" d="M46.9 85.4c0 15.7 12.7 28.4 28.4 28.4s28.4-12.7 28.4-28.4C103.8 69.8 91 57 75.3 57S46.9 69.8 46.9 85.4z"/><path fill="#333" d="M62.2 60.3c3.9-2.1 8.4-3.3 13.2-3.3 15.7 0 28.4 12.7 28.4 28.4 0 6.9-2.5 13.3-6.6 18.3-27.1-7.2-33.5-31.6-35-43.4z"/><path fill="#FFDF8A" d="M67.3 92.9l15-21.2s5.4 33.2-12.9 29.1l-2.1-7.9z"/><path fill="#fff" d="M42.9 65.3c0 2.1 1.7 3.8 3.8 3.8h56.5c2.1 0 3.8-1.7 3.8-3.8v-6.9c0-2.1-1.7-3.8-3.8-3.8H46.7c-2.1 0-3.8 1.7-3.8 3.8v6.9z"/><circle fill="#333" cx="57.8" cy="81.4" r="5.1"/><path fill="#00B2EE" d="M48.3 181.5c0 15.7 12.7 28.4 28.4 28.4s28.4-12.7 28.4-28.4v-39.2c0-15.7-12.7-28.4-28.4-28.4s-28.4 12.7-28.4 28.4v39.2z"/><path fill="#fff" d="M70.6 212.7v35.1h14.9v-35.1"/><path fill="#00B2EE" d="M82.1 193.6c-9.9 0-11.5 4.9-11.5 10.1V225h14.9v-24l-3.4-7.4z"/><path fill="#333" d="M86.5 245.1H69.2c-5.8 11.2-20.6 11.2-22.7 3.1 0 0-8 15.4 27.7 13.2 8.6-.6 15.3-8.3 12.3-16.3zm-38.2-77.8h56.8v14.2H48.3z"/><path fill="#FFD400" d="M46.6 166h4v16.2h-4z"/><circle fill="#fff" cx="110.6" cy="6.1" r="6.1"/><circle fill="#FFDF8A" cx="76.2" cy="169.7" r="10.8"/><path fill="#FFDF8A" d="M51 84l-26.7 7.7c-2.9 0-2.9 4.2 1.3 4.2h31.9L51 84z"/><path fill="#333" d="M110.3 109.6c-5-4.3-7.2-10.5-6.7-16.5 5.9-1.4 12.4-.1 17.3 4.1 5 4.3 7.2 10.5 6.7 16.5-5.8 1.5-12.3.2-17.3-4.1z"/></svg>