<svg xmlns="http://www.w3.org/2000/svg" viewBox="0 99.7 150 195.1" enable-background="new 0 99.7 150 195.1"><path fill="#808080" d="M40.9 266S18.8 281.6 0 274.6c0 0-1.7-17 21.5-35.3L30 251l117.8-85.6 2.2 3-117.8 85.5 8.7 12.1z"/><path fill="#F27B20" d="M30.7 161.4s9.6-44.9 19-61.7c0 0 2.9 29.7 17.7 33.4l-36.7 28.3z"/><path fill="#FFDF8A" d="M45.4 177.4c7.4 10.5 21.9 12.9 32.4 5.5s12.9-21.9 5.5-32.4c-7.4-10.4-21.9-12.9-32.3-5.5-10.5 7.4-13 21.9-5.6 32.4z"/><path fill="#333" d="M43.7 153.4c1.7-3.2 4.1-6.1 7.2-8.4 10.5-7.4 25-4.9 32.4 5.5 3.3 4.6 4.6 10.1 4.2 15.3-21.4 8-37.2-5.3-43.8-12.4z"/><path fill="#FFDF8A" d="M62.5 172.7v-21.2s19.3 19.6 5.2 25.5l-5.2-4.3z"/><path fill="#fff" d="M33.2 165.8c1 1.4 2.9 1.7 4.3.7l37.7-26.6c1.4-1 1.7-2.9.7-4.3l-3.3-4.6c-1-1.4-2.9-1.7-4.3-.7l-37.6 26.6c-1.4 1-1.7 2.9-.7 4.3l3.2 4.6z"/><circle fill="#333" cx="50.8" cy="169.5" r="4.1"/><path fill="#F27B20" d="M91.6 240.8c7.4 10.5 21.9 12.9 32.4 5.5s12.9-21.9 5.5-32.4L111 187.8c-7.4-10.5-21.9-12.9-32.4-5.5s-12.9 21.9-5.5 32.4l18.5 26.1z"/><path fill="#fff" d="M110.8 254.8v28.7H123v-28.7"/><path fill="#F27B20" d="M120.2 239.2c-8.1 0-9.4 4-9.4 8.2v17.4H123v-19.6l-2.8-6z"/><path fill="#333" d="M123.8 281.3h-14.1c-4.7 9.1-16.9 9.1-18.5 2.5 0 0-6.5 12.6 22.7 10.8 6.9-.5 12.3-6.8 9.9-13.3zm-38.794-49.854l37.88-26.796 6.7 9.47-37.88 26.796z"/><path fill="#FFD400" d="M83.156 231.283l2.694-1.905 7.68 10.858-2.694 1.906z"/><path fill="#FFDF8A" d="M47.5 174.5l-14.2 17.8c-1.9 1.4 0 4.2 2.8 2.2l21.3-15-9.9-5z"/><path fill="#F27B20" d="M55.2 225.6l26.5-20.7 6.1 13.5-27 19.7z"/><circle fill="#FFDF8A" cx="56.3" cy="233.1" r="8.8"/></svg>