<svg xmlns="http://www.w3.org/2000/svg" viewBox="20.4 235.9 150 114.8" enable-background="new 20.4 235.9 150 114.8"><g fill="#B07644"><path d="M31.5 284l-1-15 20.5-1-19.5 16zm15-6.8l-1-15 20.5-1-19.5 16zm15.1-6.9l-1-15 20.5-1-19.5 16zm15-6.8l-1-15 20.5-1-19.5 16zm83.3 20.5l1-15-20.5-1 19.5 16zm-15-6.8l1-15-20.5-1 19.5 16zm-15-6.9l1-15-20.5-1 19.5 16zm-15.1-6.8l1-15-20.5-1 19.5 16zm-18.9-27.6c-2.8 8.4-10.2 9.2-10.2 9.2l.7 9h19l.7-9s-7.3-.8-10.2-9.2"/><path d="M154.8 350.8h-119V278l59.5-26.9 59.5 26.9v72.8z"/></g><path opacity=".1" enable-background="new" d="M154.8 321.6l-119-1.3v-3l119-.3v4.6z"/><path fill="#EFDBC1" d="M154.8 284.5h-119V278l59.5-26.9 59.5 26.9v6.5z"/><path opacity=".1" enable-background="new" d="M154.8 284.7l-59.5-27.1-36.1 16.3 95.6 14.5v-3.7z"/><path d="M163.6 288.3l-68.3-30.8L27 288.3l-6.7-8.3 75-33.8 75 33.8-6.7 8.3zm-91.1-13.8c-1.5-1.5-3.5-2.2-5.5-2-.2 2 .5 4 2 5.5s3.5 2.2 5.5 2c.2-2-.5-4-2-5.5m44.4 0c1.5-1.5 3.5-2.2 5.5-2 .2 2-.5 4-2 5.5s-3.5 2.2-5.5 2c-.1-2 .5-4 2-5.5m10.1 1.4c2-.7 4.1-.4 5.8.6-.7 1.9-2.2 3.4-4.2 4.1-2 .7-4.1.4-5.8-.6.7-1.9 2.1-3.4 4.2-4.1m-63.9 0c-2-.7-4.1-.4-5.8.6.7 1.9 2.2 3.4 4.2 4.1s4.1.4 5.8-.6c-.7-1.9-2.2-3.4-4.2-4.1" fill="#845930"/><path fill="#FFC805" d="M95.2 262.9c-3.6 0-6.6 3-6.6 6.6v10.6h13.2v-10.6c0-3.6-3-6.6-6.6-6.6"/><path opacity=".1" enable-background="new" d="M95.2 262.9c-3.6 0-6.6 3-6.6 6.6v2.6c0-3.6 3-6.6 6.6-6.6s6.6 3 6.6 6.6v-2.6c0-3.6-3-6.6-6.6-6.6"/><path fill="#845930" d="M102.8 281.1H87.6v-11.6c0-4.2 3.4-7.6 7.6-7.6 4.2 0 7.6 3.4 7.6 7.6v11.6m-13.2-1.9h11.2v-9.6c0-3.1-2.5-5.6-5.6-5.6-3.1 0-5.6 2.5-5.6 5.6v9.6z"/><path fill="#B07644" d="M87.2 278.9h15.9v2.6H87.2v-2.6z"/><path fill="#845930" d="M94.8 273.6h.9v5.3h-.9v-5.3z"/><path d="M93.8 270.9c0 .4-.3.7-.8.7s-.8-.3-.8-.7c0-.4.3-.7.8-.7.4 0 .8.3.8.7m5 0c0 .4-.3.7-.8.7s-.8-.3-.8-.7c0-.4.3-.7.8-.7.4 0 .8.3.8.7" fill="#EB9B95"/><path fill="#F7CE97" d="M98.3 271.3c0 1.5-1.2 2.7-2.8 2.7s-2.8-1.2-2.8-2.7c0-1.5 1.2-2.7 2.8-2.7s2.8 1.2 2.8 2.7"/><path fill="#EE3837" d="M98.3 269.9c-.2-.6-.6-1.2-1.1-1.7-.9-.9-2.8-1.4-4.1-1.4v3.1h5.2"/><path d="M93.1 266.9c0 .4-.4.8-.8.8-.5 0-.8-.4-.8-.8 0-.5.4-.8.8-.8s.8.4.8.8m5.5 2.9c0 .2-.2.4-.4.4h-5.4c-.2 0-.4-.2-.4-.4v-1.1c0-.2.2-.4.4-.4h5.4c.2 0 .4.2.4.4v1.1" fill="#fff"/><path fill="#F7CE97" d="M92.8 271.3h5.5v1.4h-5.5v-1.4z"/><path d="M94.4 270.6c0 .1-.1.2-.2.2s-.2-.1-.2-.2.1-.2.2-.2.2.1.2.2m2.3 0c0 .1.1.2.2.2s.2-.1.2-.2-.1-.2-.2-.2-.2.1-.2.2" fill="#4D4D4D"/><path d="M94.4 270.6c0 .1-.1.2-.2.2s-.2-.1-.2-.2.1-.2.2-.2.2.1.2.2m2.3 0c0 .1.1.2.2.2s.2-.1.2-.2-.1-.2-.2-.2-.2.1-.2.2" fill="#999"/><path fill="#fff" d="M98.9 273.7c0 1.4-1.2 2.5-2.6 2.5-3.5 0-4.9-3.7-4.9-5.1h4.9c1.4 0 2.6 1.2 2.6 2.6"/><ellipse fill="#EB9B95" cx="95.5" cy="271.1" rx=".8" ry=".6"/><circle fill="#4D4D4D" cx="95.5" cy="272.4" r=".6"/><path fill="#EFDBC1" d="M55.3 288.6c-4.1 0-7.4 3.3-7.4 7.4v16.3h14.9V296c0-4.1-3.4-7.4-7.5-7.4"/><path fill="#00A351" d="M49.3 296.1v14.7h5.6V290c-3.2.2-5.6 2.8-5.6 6.1"/><path d="M49.6 308h5.2v.5h-5.2v-.5zm0-1.2h5.2v.5h-5.2v-.5zm0-1.1h5.2v.5h-5.2v-.5zm0-1.1h5.2v.5h-5.2v-.5zm0-1.1h5.2v.5h-5.2v-.5zm0-1.1h5.2v.5h-5.2v-.5zm0-1.1h5.2v.5h-5.2v-.5zm0-1.1h5.2v.5h-5.2v-.5zm0-1.1h5.2v.5h-5.2v-.5zm0-1.1h5.2v.5h-5.2v-.5zm0-1.1h5.2v.5h-5.2v-.5zm0-1.2h5.2v.5h-5.2v-.5zm0-1.1h5.2v.5h-5.2v-.5zm0-1.1h5.2v.5h-5.2v-.5zm1-1.1h4.3v.5h-4.3v-.5zm.5-1.1h3.8v.5h-3.8v-.5zm4.3 20h-6.6v-15.2c0-3.4 2.7-6.3 6.1-6.6h.6l-.1 21.8zm-5.6-1.1h4.6v-19.7c-2.6.5-4.6 2.8-4.6 5.5v14.2" fill="#084"/><path fill="#00A351" d="M61.4 296.1v14.7h-5.6V290c3.1.2 5.6 2.8 5.6 6.1"/><path d="M55.8 308H61v.5h-5.2v-.5zm-6.2 1h5.2v.5h-5.2v-.5zm6.2 0H61v.5h-5.2v-.5zm0-2.2H61v.5h-5.2v-.5zm0-1.1H61v.5h-5.2v-.5zm0-1.1H61v.5h-5.2v-.5zm0-1.1H61v.5h-5.2v-.5zm0-1.1H61v.5h-5.2v-.5zm0-1.1H61v.5h-5.2v-.5zm0-1.1H61v.5h-5.2v-.5zm0-1.1H61v.5h-5.2v-.5zm0-1.1H61v.5h-5.2v-.5zm0-1.1H61v.5h-5.2v-.5zm0-1.2H61v.5h-5.2v-.5zm0-1.1H61v.5h-5.2v-.5zm0-1.1H61v.5h-5.2v-.5zm0-1.1H60v.5h-4.3v-.5zm0-1.1h3.8v.5h-3.8v-.5zm6.1 20h-6.6v-21.9h.6c3.4.3 6.1 3.2 6.1 6.6l-.1 15.3zm-5.6-1.1h4.6V296c0-2.7-2-5-4.6-5.5v19.7" fill="#084"/><path fill="#845930" d="M63.7 313.3H47V296c0-4.6 3.8-8.4 8.4-8.4s8.4 3.8 8.4 8.4l-.1 17.3zm-14.8-1.9h13V296c0-3.6-2.9-6.5-6.5-6.5s-6.5 2.9-6.5 6.5v15.4z"/><path d="M46.4 311.2h17.9v2.2H46.4v-2.2zm34.7-22.6c-4.1 0-7.4 3.3-7.4 7.4v16.3h14.9V296c-.1-4.1-3.4-7.4-7.5-7.4" fill="#EFDBC1"/><path fill="#00A351" d="M75 296.1v14.7h5.6V290c-3.1.2-5.6 2.8-5.6 6.1"/><path d="M75.3 308h5.2v.5h-5.2v-.5zm0-1.2h5.2v.5h-5.2v-.5zm0-1.1h5.2v.5h-5.2v-.5zm0-1.1h5.2v.5h-5.2v-.5zm0-1.1h5.2v.5h-5.2v-.5zm0-1.1h5.2v.5h-5.2v-.5zm0-1.1h5.2v.5h-5.2v-.5zm0-1.1h5.2v.5h-5.2v-.5zm0-1.1h5.2v.5h-5.2v-.5zm0-1.1h5.2v.5h-5.2v-.5zm0-1.1h5.2v.5h-5.2v-.5zm0-1.2h5.2v.5h-5.2v-.5zm0-1.1h5.2v.5h-5.2v-.5zm0-1.1h5.2v.5h-5.2v-.5zm1-1.1h4.3v.5h-4.3v-.5zm.5-1.1h3.8v.5h-3.8v-.5zm4.3 20h-6.6v-15.2c0-3.4 2.7-6.3 6.1-6.6h.6l-.1 21.8zm-5.6-1.1h4.6v-19.7c-2.6.5-4.6 2.8-4.6 5.5v14.2" fill="#084"/><path fill="#00A351" d="M87.1 296.1v14.7h-5.6V290c3.1.2 5.6 2.8 5.6 6.1"/><path d="M81.5 308h5.2v.5h-5.2v-.5zm-6.2 1h5.2v.5h-5.2v-.5zm6.2 0h5.2v.5h-5.2v-.5zm0-2.2h5.2v.5h-5.2v-.5zm0-1.1h5.2v.5h-5.2v-.5zm0-1.1h5.2v.5h-5.2v-.5zm0-1.1h5.2v.5h-5.2v-.5zm0-1.1h5.2v.5h-5.2v-.5zm0-1.1h5.2v.5h-5.2v-.5zm0-1.1h5.2v.5h-5.2v-.5zm0-1.1h5.2v.5h-5.2v-.5zm0-1.1h5.2v.5h-5.2v-.5zm0-1.1h5.2v.5h-5.2v-.5zm0-1.2h5.2v.5h-5.2v-.5zm0-1.1h5.2v.5h-5.2v-.5zm0-1.1h5.2v.5h-5.2v-.5zm0-1.1h4.3v.5h-4.3v-.5zm0-1.1h3.8v.5h-3.8v-.5zm6.1 20H81v-21.9h.6c3.4.3 6.1 3.2 6.1 6.6l-.1 15.3zm-5.6-1.1h4.6V296c0-2.7-2-5-4.6-5.5v19.7" fill="#084"/><path fill="#845930" d="M89.4 313.3H72.7V296c0-4.6 3.8-8.4 8.4-8.4s8.4 3.8 8.4 8.4l-.1 17.3zm-14.8-1.9h13V296c0-3.6-2.9-6.5-6.5-6.5s-6.5 2.9-6.5 6.5v15.4z"/><path d="M72.1 311.2H90v2.2H72.1v-2.2zm34.7-22.6c-4.1 0-7.4 3.3-7.4 7.4v16.3h14.9V296c-.1-4.1-3.4-7.4-7.5-7.4" fill="#EFDBC1"/><path fill="#00A351" d="M100.7 296.1v14.7h5.6V290c-3.1.2-5.6 2.8-5.6 6.1"/><path d="M101.1 308h5.2v.5h-5.2v-.5zm0-1.2h5.2v.5h-5.2v-.5zm0-1.1h5.2v.5h-5.2v-.5zm0-1.1h5.2v.5h-5.2v-.5zm0-1.1h5.2v.5h-5.2v-.5zm0-1.1h5.2v.5h-5.2v-.5zm0-1.1h5.2v.5h-5.2v-.5zm0-1.1h5.2v.5h-5.2v-.5zm0-1.1h5.2v.5h-5.2v-.5zm0-1.1h5.2v.5h-5.2v-.5zm0-1.1h5.2v.5h-5.2v-.5zm0-1.2h5.2v.5h-5.2v-.5zm0-1.1h5.2v.5h-5.2v-.5zm0-1.1h5.2v.5h-5.2v-.5zm.9-1.1h4.3v.5H102v-.5zm.6-1.1h3.8v.5h-3.8v-.5zm4.2 20h-6.6v-15.2c0-3.4 2.7-6.3 6.1-6.6h.6l-.1 21.8zm-5.6-1.1h4.6v-19.7c-2.6.5-4.6 2.8-4.6 5.5v14.2" fill="#084"/><path fill="#00A351" d="M112.8 296.1v14.7h-5.6V290c3.1.2 5.6 2.8 5.6 6.1"/><path d="M107.2 308h5.2v.5h-5.2v-.5zm-6.1 1h5.2v.5h-5.2v-.5zm6.1 0h5.2v.5h-5.2v-.5zm0-2.2h5.2v.5h-5.2v-.5zm0-1.1h5.2v.5h-5.2v-.5zm0-1.1h5.2v.5h-5.2v-.5zm0-1.1h5.2v.5h-5.2v-.5zm0-1.1h5.2v.5h-5.2v-.5zm0-1.1h5.2v.5h-5.2v-.5zm0-1.1h5.2v.5h-5.2v-.5zm0-1.1h5.2v.5h-5.2v-.5zm0-1.1h5.2v.5h-5.2v-.5zm0-1.1h5.2v.5h-5.2v-.5zm0-1.2h5.2v.5h-5.2v-.5zm0-1.1h5.2v.5h-5.2v-.5zm0-1.1h5.2v.5h-5.2v-.5zm0-1.1h4.3v.5h-4.3v-.5zm0-1.1h3.8v.5h-3.8v-.5zm6.1 20h-6.6v-21.9h.6c3.4.3 6.1 3.2 6.1 6.6l-.1 15.3zm-5.6-1.1h4.6V296c0-2.7-2-5-4.6-5.5v19.7" fill="#084"/><path fill="#845930" d="M115.2 313.3H98.4V296c0-4.6 3.8-8.4 8.4-8.4s8.4 3.8 8.4 8.4v17.3m-14.9-1.9h13V296c0-3.6-2.9-6.5-6.5-6.5s-6.5 2.9-6.5 6.5v15.4z"/><path fill="#EFDBC1" d="M97.8 311.2h17.9v2.2H97.8v-2.2z"/><path fill="#EF6522" d="M132.5 288.6c-4.1 0-7.4 3.3-7.4 7.4v16.3H140V296c0-4.1-3.4-7.4-7.5-7.4"/><path fill="#845930" d="M140.9 313.3h-16.8V296c0-4.6 3.8-8.4 8.4-8.4s8.4 3.8 8.4 8.4v17.3zm-14.9-1.9h13V296c0-3.6-2.9-6.5-6.5-6.5s-6.5 2.9-6.5 6.5v15.4z"/><path fill="#EFDBC1" d="M123.6 311.2h17.9v2.2h-17.9v-2.2z"/><path fill="#EF6522" d="M55.3 320.7c-4.1 0-7.4 3.3-7.4 7.4v16.3h14.9v-16.3c0-4-3.4-7.4-7.5-7.4"/><path fill="#845930" d="M63.7 345.4H47v-17.3c0-4.6 3.8-8.4 8.4-8.4s8.4 3.8 8.4 8.4l-.1 17.3zm-14.8-1.9h13v-15.4c0-3.6-2.9-6.5-6.5-6.5s-6.5 2.9-6.5 6.5v15.4z"/><path d="M46.4 343.4h17.9v2.2H46.4v-2.2zm86.1-22.7c-4.1 0-7.4 3.3-7.4 7.4v16.3H140v-16.3c0-4-3.4-7.4-7.5-7.4" fill="#EFDBC1"/><path fill="#00A351" d="M126.5 328.2v14.7h5.6v-20.8c-3.2.3-5.6 2.9-5.6 6.1"/><path d="M126.8 340.1h5.2v.5h-5.2v-.5zm0-1.1h5.2v.5h-5.2v-.5zm0-1.1h5.2v.5h-5.2v-.5zm0-1.1h5.2v.5h-5.2v-.5zm0-1.1h5.2v.5h-5.2v-.5zm0-1.1h5.2v.5h-5.2v-.5zm0-1.1h5.2v.5h-5.2v-.5zm0-1.2h5.2v.5h-5.2v-.5zm0-1.1h5.2v.5h-5.2v-.5zm0-1.1h5.2v.5h-5.2v-.5zm0-1.1h5.2v.5h-5.2v-.5zm0-1.1h5.2v.5h-5.2v-.5zm0-1.1h5.2v.5h-5.2v-.5zm0-1.1h5.2v.5h-5.2v-.5zm1-1.1h4.3v.5h-4.3v-.5zm.5-1.1h3.8v.5h-3.8v-.5zm4.3 19.9H126v-15.2c0-3.4 2.7-6.3 6.1-6.6h.6l-.1 21.8zm-5.6-1h4.6v-19.7c-2.6.5-4.6 2.8-4.6 5.5v14.2" fill="#084"/><path fill="#00A351" d="M138.5 328.2v14.7h-5.6v-20.8c3.2.3 5.6 2.9 5.6 6.1"/><path d="M133 340.1h5.2v.5H133v-.5zm-6.2 1.1h5.2v.5h-5.2v-.5zm6.2 0h5.2v.5H133v-.5zm0-2.2h5.2v.5H133v-.5zm0-1.1h5.2v.5H133v-.5zm0-1.1h5.2v.5H133v-.5zm0-1.1h5.2v.5H133v-.5zm0-1.1h5.2v.5H133v-.5zm0-1.1h5.2v.5H133v-.5zm0-1.2h5.2v.5H133v-.5zm0-1.1h5.2v.5H133v-.5zm0-1.1h5.2v.5H133v-.5zm0-1.1h5.2v.5H133v-.5zm0-1.1h5.2v.5H133v-.5zm0-1.1h5.2v.5H133v-.5zm0-1.1h5.2v.5H133v-.5zm0-1.1h4.3v.5H133v-.5zm0-1.1h3.8v.5H133v-.5zm6 19.9h-6.6v-21.9h.6c3.4.3 6.1 3.2 6.1 6.6l-.1 15.3zm-5.6-1h4.6v-14.2c0-2.7-2-5-4.6-5.5v19.7" fill="#084"/><path fill="#845930" d="M140.9 345.4h-16.8v-17.3c0-4.6 3.8-8.4 8.4-8.4s8.4 3.8 8.4 8.4v17.3zm-14.9-1.9h13v-15.4c0-3.6-2.9-6.5-6.5-6.5s-6.5 2.9-6.5 6.5v15.4z"/><path fill="#EFDBC1" d="M123.6 343.4h17.9v2.2h-17.9v-2.2z"/><path d="M35.9 283.2H157v2H35.9v-2zm0 32.9H155v2H35.9v-2zm41.9-53h2v20.8h-2v-20.8zm32.9 0h2v20.8h-2v-20.8zm-24.5 65.6h8.4v16.9h-8.4v-16.9z" fill="#845930"/><path fill="#85837D" d="M92.5 335.6h1.2v3h-1.2v-3z"/><path fill="#845930" d="M95 328.7h8.4v16.9H95v-16.9z"/><path fill="#85837D" d="M95.9 335.6h1.2v3h-1.2v-3z"/><path d="M84.2 345.3h21.6v2.3H84.2v-2.3zm-3.4 3.1H109v2.3H80.8v-2.3z" fill="#EFDBC1"/><path d="M38.5 284.5h2v66h-2v-66zm111.6 0h2v66h-2v-66zm-77.2 32.6h2v33.4h-2v-33.4zm42.8 0h2v33.4h-2v-33.4z" fill="#845930"/><path fill="#EFDBC1" d="M77.7 323.3h35.5v4.3H77.7v-4.3z"/><path opacity=".1" enable-background="new" d="M77.7 326.9h35.5v4.3H77.7v-4.3zm0-3.6h35.5v4.3H77.7v-4.3z"/><path fill="#EFDBC1" d="M77.7 321.6h35.5v4.3H77.7v-4.3z"/><path d="M57.5 328.3v.6h-4.6v-.6h-2.3v.3c0 1.4.7 2.5 1.7 2.5h.2c.4 1.5 1.2 2.5 2.2 2.8v2.2c-.3.1-.6.4-.7.7h2.4c-.1-.3-.4-.6-.7-.7V334c1-.3 1.8-1.4 2.2-2.8h.2c.9 0 1.7-1.1 1.7-2.5v-.3l-2.3-.1zm-5.2 2.3c-.5 0-1-.8-1.1-1.7h1.1-.1c0 .6.1 1.2.1 1.7.1 0 0 0 0 0m5.8 0v.3-.3s-.1 0 0 0c0-.5.1-1.1.1-1.7h-.1 1.1c-.1.9-.6 1.7-1.1 1.7m-1-6.5c0 .2-.2.4-.4.4s-.4-.2-.4-.4.2-.4.4-.4c.3 0 .4.2.4.4m-3.4 4s1.5-3 2.8-3.7c0 0-.7 2.8.1 3.7h-2.9m3.5.4c0 .1-.1.2-.2.2h-3.5c-.1 0-.2-.1-.2-.2v-.5c0-.1.1-.2.2-.2H57c.1 0 .2.1.2.2v.5" fill="#FFC805"/><path fill="#333" d="M57.5 340.6v-2.2c0-.3-.2-.6-.5-.8v-.7h-3.6v.7c-.3.2-.4.5-.4.7v2.2h-.5v.7H58v-.7l-.5.1"/><path opacity=".1" enable-background="new" d="M55.7 336.2V334c1-.3 1.8-1.4 2.2-2.8h.2c.9 0 1.7-1.1 1.7-2.5v-.3h-2.3v.6h-.7c0 .6.1 3.4-1.5 5v2.3s.2.2.3.6h.8c-.1-.3-.4-.6-.7-.7m2.4-7.3h1.1c-.1.9-.6 1.7-1.1 1.7v.3-.3H58c.1-.6.2-1.1.1-1.7m-.2 11.7h-.4v-2.2c0-.3-.2-.6-.5-.8v-.7h-1.3v4.3H58l-.1-.6"/><path d="M134.9 296.3v.6h-4.6v-.6H128v.3c0 1.4.7 2.5 1.7 2.5h.2c.4 1.5 1.2 2.5 2.2 2.8v2.2c-.3.1-.6.4-.7.7h2.4c-.1-.3-.4-.6-.7-.7V302c1-.3 1.8-1.4 2.2-2.8h.2c.9 0 1.7-1.1 1.7-2.5v-.3h-2.3m-5.2 2.2c-.5 0-1-.8-1.1-1.7h1.1-.1c0 .6 0 1.2.1 1.7m5.7 0v.3-.3c0-.5.1-1.1.1-1.7h-.1 1.1c0 .9-.5 1.7-1.1 1.7m-.9-6.5c0 .2-.2.4-.4.4s-.4-.2-.4-.4.2-.4.4-.4.4.2.4.4m-3.5 4s1.5-3 2.8-3.7c0 0-.7 2.8.1 3.7H131m3.5.4c0 .1-.1.2-.2.2h-3.5c-.1 0-.2-.1-.2-.2v-.5c0-.1.1-.2.2-.2h3.5c.1 0 .2.1.2.2v.5" fill="#FFC805"/><path fill="#333" d="M134.8 308.6v-2.2c0-.3-.2-.6-.5-.8v-.7h-3.6v.7c-.3.2-.4.4-.4.7v2.2h-.5v.7h5.5v-.7l-.5.1"/><path opacity=".1" enable-background="new" d="M133 304.2V302c1-.3 1.8-1.4 2.2-2.8h.2c.9 0 1.7-1.1 1.7-2.5v-.3h-2.3v.6h-.7c0 .6.1 3.4-1.5 5v2.3s.2.2.3.6h.8c-.1-.3-.3-.6-.7-.7m2.4-7.3h1.1c-.1.9-.6 1.7-1.1 1.7v.3-.3h-.1c.2-.6.2-1.1.1-1.7m-.1 11.7h-.4v-2.2c0-.3-.2-.6-.5-.8v-.7H133v4.3h2.3v-.6"/></svg>