<svg xmlns="http://www.w3.org/2000/svg" viewBox="0 464.6 612 454.2" enable-background="new 0 464.6 612 454.2"><path opacity=".5" fill="#75CEF4" enable-background="new" d="M73.4 885.3l50.2-290.1 24.1-49.4 3.3-45.3 64.1-.8 29.8-19.6 71 4.5 63.2-18.4 47.3 47.7 22 24.1 27.3 91.8 11.4 255.4H73.4v.1z"/><path fill="none" stroke="#75CEF4" stroke-width="3" stroke-miterlimit="10" d="M73.4 885.3l50.2-290.1 24.1-49.4 3.3-45.3 64.1-.8 29.8-19.6 71 4.5 63.2-18.4 47.3 47.7 22 24.1 27.3 91.8 11.4 255.4H73.4v.1z"/><path opacity=".36" fill="#0A3575" enable-background="new" d="M81.2 881.7l41.6-211.8 73-20.8 42.4-132.2 39.6 146.9L321 534.1 382.6 741 423 622.3l59.2 259.5-401-.1z"/><g fill="#fff"><circle cx="154.2" cy="837.2" r="81.6"/><circle cx="229.7" cy="717.3" r="81.6"/><circle cx="431.3" cy="818.8" r="81.6"/><circle cx="387.2" cy="699.3" r="81.6"/><circle cx="314.2" cy="660.1" r="67.3"/><circle cx="285.2" cy="605.5" r="40.8"/><circle cx="20.4" cy="894.7" r="20.4"/><circle cx="49.4" cy="876.4" r="20.4"/><circle cx="73.8" cy="857.6" r="20.4"/><circle cx="145.2" cy="752.7" r="30.2"/><circle cx="203.6" cy="636.9" r="20.4"/><circle cx="239.9" cy="629.5" r="20.4"/><circle cx="337" cy="678.1" r="20.4"/><circle cx="449.2" cy="738.5" r="20.4"/><circle cx="394.5" cy="672" r="20.4"/><circle cx="361.1" cy="665.8" r="20.4"/><circle cx="382.3" cy="646.3" r="20.4"/><circle cx="572" cy="867.4" r="20.4"/><circle cx="555.3" cy="888.6" r="20.4"/><circle cx="521.8" cy="842.9" r="20.4"/><circle cx="541.4" cy="861.3" r="20.4"/><circle cx="591.6" cy="891.5" r="20.4"/><circle cx="516.9" cy="818.4" r="31.4"/><circle cx="194.2" cy="611.2" r="20.4"/></g><path fill="#fff" d="M57.5 847h492.9v62H57.5zm162-135.1h154.6v151H219.5z"/></svg>