<svg xmlns="http://www.w3.org/2000/svg" viewBox="51.1 88.6 47.8 84.4" enable-background="new 51.1 88.6 47.8 84.4"><g><path fill="#B757C5" d="M75 173c-1 0-1.9-.8-2-1.8-3-32.5-21.9-41.1-21.9-58.7 0-13.2 10.7-23.9 23.9-23.9s23.9 10.7 23.9 23.9c0 17.6-18.9 26.1-21.9 58.7-.1 1-1 1.8-2 1.8z"/><path opacity=".1" enable-background="new" d="M62.1 125.2h25.2v4.1H62.1z"/><path fill="#FFC805" d="M74.7 98.4c-5.8 0-10.5 4.7-10.5 10.5v16.9h20.9v-16.9c.1-5.8-4.6-10.5-10.4-10.5z"/><path opacity=".1" enable-background="new" d="M74.7 98.4c-5.8 0-10.5 4.7-10.5 10.5v4.1c0-5.8 4.7-10.5 10.5-10.5s10.5 4.7 10.5 10.5v-4.1c0-5.8-4.7-10.5-10.5-10.5z"/><path fill="#845930" d="M86.7 127.4h-24v-18.5c0-6.6 5.4-12 12-12s12 5.4 12 12v18.5zm-20.9-3.2h17.8v-15.3c0-4.9-4-8.9-8.9-8.9s-8.9 4-8.9 8.9v15.3z"/><path fill="#B07644" d="M62.1 123.7h25.2v4.1H62.1z"/><path fill="#F8F7F3" d="M72.4 115.9v-.7c0-.6.2-1.2.5-1.7s.9-1 1.8-1.5c.8-.5 1.4-.9 1.7-1.2.3-.3.4-.7.4-1.1 0-.4-.2-.8-.6-1-.4-.2-.9-.3-1.6-.3-1.2 0-2.6.3-4.1 1l-1.3-2.2c1.8-.8 3.7-1.3 5.6-1.3 1.6 0 2.9.3 3.9 1s1.5 1.6 1.5 2.7c0 .7-.2 1.4-.6 1.9-.4.5-1.2 1.1-2.3 1.8-.8.5-1.2.8-1.5 1.1s-.3.6-.3 1v.6l-3.1-.1zm-.4 3.5c0-.6.2-1 .5-1.3s.9-.4 1.6-.4c.7 0 1.2.1 1.5.4.4.3.5.7.5 1.3 0 .5-.2 1-.5 1.3-.4.3-.9.5-1.5.5-.7 0-1.2-.1-1.6-.5-.3-.3-.5-.7-.5-1.3z"/></g></svg>