<svg xmlns="http://www.w3.org/2000/svg" viewBox="0 108 149.9 153.6" enable-background="new 0 108 149.9 153.6"><path fill="#16A316" d="M95.8 141.5c-1.5-1.6-5.4-2-9.5-2.5-6.4-.7-14.3-1.5-20.9-7.1l4.7-5.5c4.9 4.1 11 4.8 17 5.4 5.6.6 10.8 1.1 14.1 4.8l-5.4 4.9zM94.9 139.6c-.2-1.3-.3-2.4-.4-3.5-.5-4.8-.6-5.8-4.1-7.9-6.4-3.8-17.2-14.7-17.7-15.1l5.1-5.1c2.9 3 11.6 11.3 16.2 14 6.6 3.9 7 8.1 7.6 13.3.1 1 .2 2.1.4 3.3l-7.1 1z"/><circle fill="#fff" cx="39" cy="222.6" r="39"/><circle fill="#fff" cx="72.6" cy="179.5" r="30.6"/><path fill="#16A316" d="M117.7 180.5c-6.6 0-23.4-17.1-26-25.1-2.3-7-1.2-13.3.9-16.2 1.5-2 3.2-2.3 4.2-2.3.5 0 1.1.1 1.6.3l6.5 1.9 18.6 32.4c.6.9.8 2.1.7 3.3-.3 1.8-1.5 3.5-3.6 4.9-1 .6-1.9.8-2.9.8zm-19.8-35.9c-.4 1.6-.7 4.7.5 8.6 1.8 5.3 11.6 15 16.8 18.7l-15.3-26.7-2-.6z"/><circle fill="#fff" cx="123.7" cy="146.1" r="26.2"/><g fill="#FF8A33"><path d="M126 144.6l5.8 17.6-11.2-13.9zM131.8 163.4c-.4 0-.7-.2-.9-.4l-11.2-14c-.2-.3-.3-.6-.2-.9.1-.3.2-.6.5-.8l5.4-3.7c.3-.2.7-.3 1.1-.1.4.1.6.4.8.8l5.8 17.7c.2.5-.1 1.2-.6 1.4h-.7zm-9.5-14.9l6.3 7.8-3.2-9.9-3.1 2.1z"/></g><ellipse transform="matrix(-.563 -.827 .827 -.563 84.038 311.519)" fill="#7C6959" cx="124.4" cy="133.5" rx="2.1" ry="1.4"/><ellipse transform="matrix(-.563 -.827 .827 -.563 90.362 344.616)" fill="#7C6959" cx="136.3" cy="148.4" rx="2" ry="1.6"/></svg>