<svg width="200" height="250" viewBox="0 0 200 250" fill="none" xmlns="http://www.w3.org/2000/svg">
<path d="M76.8992 137.6C76.7992 136.6 76.9992 135.7 77.0992 134.9C77.4992 133.2 77.6992 132.1 75.1992 131L75.4992 130.3C78.4992 131.6 78.1992 133.2 77.7992 135C77.5992 135.8 77.4992 136.6 77.5992 137.5L76.8992 137.6Z" fill="#009AE8"/>
<path d="M79.4 137.6C78.7 136.3 78.2 135.4 79.9 133.9C81.1 132.8 81.7 131.5 81.4 131C81.4 130.9 81.3 130.7 80.7 130.7V130C81.6 130 81.9 130.5 82.1 130.8C82.5 131.8 81.7 133.3 80.4 134.6C79.1 135.7 79.4 136.2 80 137.3L80.1 137.4L79.4 137.6Z" fill="#E3326C"/>
<path d="M81.6006 139.3C81.6006 139 81.6006 138.7 81.5006 138.3C81.4006 136.8 81.2006 134.9 81.8006 134.5L81.9006 134.6C81.4006 135 81.5006 137 81.6006 138.3C81.6006 138.7 81.7006 139 81.7006 139.3H81.6006Z" fill="#6AB360"/>
<path d="M81.8 139.3C81.8 139.4 81.7 139.5 81.7 139.5C81.6 139.5 81.5 139.4 81.5 139.4C81.5 139.3 81.6 139.2 81.6 139.2C81.7 139.1 81.8 139.2 81.8 139.3Z" fill="#6AB360"/>
<path d="M82.0008 134.7C82.1008 134.7 82.1008 134.6 82.1008 134.5C82.1008 134.4 82.0008 134.4 81.9008 134.4C81.8008 134.4 81.8008 134.5 81.8008 134.6C81.8008 134.7 81.9008 134.7 82.0008 134.7Z" fill="#6AB360"/>
<path d="M81.5008 132.4H77.8008V132.2H81.5008V132.4Z" fill="#6AB360"/>
<path d="M76.5 137.8H75.5V134.5H75.7V137.6H76.3V135.2H77.2V137.8H77V135.4H76.5V137.8Z" fill="#6AB360"/>
<path d="M75.4004 134.5C75.4004 134.4 75.5004 134.3 75.6004 134.3C75.7004 134.3 75.8004 134.4 75.8004 134.5C75.8004 134.6 75.7004 134.7 75.6004 134.7C75.5004 134.7 75.4004 134.6 75.4004 134.5Z" fill="#6AB360"/>
<path d="M77 137.8C77 137.9 77.1 138 77.2 138C77.3 138 77.4 137.9 77.4 137.8C77.4 137.7 77.3 137.6 77.2 137.6C77 137.6 77 137.7 77 137.8Z" fill="#6AB360"/>
<path d="M87.0996 140.2V129.9L86.4996 129.4L73.0996 129.9L73.1996 140.2H87.0996Z" fill="#004E00"/>
<path d="M86.5996 139.7L86.4996 129.4H72.5996V139.7H86.5996Z" fill="#30A658"/>
<path d="M79.1992 139.5V139.4V132.4H79.3992V139.5H79.1992Z" fill="#6AB360"/>
<path d="M79.1984 138.6H74.8984V138.4H79.1984V138.6Z" fill="#6AB360"/>
<path d="M74.8992 138.7C74.7992 138.7 74.6992 138.6 74.6992 138.5C74.6992 138.4 74.7992 138.3 74.8992 138.3C74.9992 138.3 75.0992 138.4 75.0992 138.5C75.0992 138.6 74.9992 138.7 74.8992 138.7Z" fill="#6AB360"/>
<path d="M79.2 138.7C79.3 138.7 79.4 138.6 79.4 138.5C79.4 138.4 79.3 138.3 79.2 138.3C79.1 138.3 79 138.4 79 138.5C79 138.6 79.2 138.7 79.2 138.7Z" fill="#6AB360"/>
<path d="M79.1984 139.2L74.8984 139.1V139H79.1984V139.2Z" fill="#6AB360"/>
<path d="M74.8992 139.2C74.7992 139.2 74.6992 139.1 74.6992 139C74.6992 138.9 74.7992 138.8 74.8992 138.8C74.9992 138.8 75.0992 138.9 75.0992 139C75.0992 139.1 74.9992 139.2 74.8992 139.2Z" fill="#6AB360"/>
<path d="M79.2 139.2C79.3 139.2 79.4 139.1 79.4 139C79.4 138.9 79.3 138.8 79.2 138.8C79.1 138.8 79 138.9 79 139C79.1 139.2 79.2 139.2 79.2 139.2Z" fill="#6AB360"/>
<path d="M79.2984 139.7H74.8984V139.5H79.2984V139.7Z" fill="#6AB360"/>
<path d="M74.8992 139.7C74.7992 139.7 74.6992 139.6 74.6992 139.5C74.6992 139.4 74.7992 139.3 74.8992 139.3C74.9992 139.3 75.0992 139.4 75.0992 139.5C75.0992 139.7 74.9992 139.7 74.8992 139.7Z" fill="#6AB360"/>
<path d="M79.2 139.8C79.3 139.8 79.4 139.7 79.4 139.6C79.4 139.5 79.3 139.4 79.2 139.4C79.1 139.4 79 139.5 79 139.6C79.1 139.7 79.2 139.8 79.2 139.8Z" fill="#6AB360"/>
<path d="M82.7907 132.306C82.7947 132.14 82.6637 132.003 82.498 131.998C82.3324 131.994 82.1949 132.126 82.1909 132.291C82.1868 132.457 82.3179 132.594 82.4835 132.598C82.6491 132.602 82.7867 132.471 82.7907 132.306Z" fill="#6AB360"/>
<path d="M83.7575 132.276C83.7615 132.11 83.6305 131.973 83.4648 131.969C83.2992 131.965 83.1617 132.096 83.1577 132.262C83.1536 132.427 83.2847 132.565 83.4503 132.569C83.6159 132.573 83.7535 132.442 83.7575 132.276Z" fill="#6AB360"/>
<path d="M84.7223 132.347C84.7263 132.181 84.5953 132.044 84.4297 132.04C84.264 132.036 84.1265 132.167 84.1225 132.332C84.1185 132.498 84.2495 132.636 84.4151 132.64C84.5808 132.644 84.7183 132.513 84.7223 132.347Z" fill="#6AB360"/>
<path d="M75.443 132.329C75.447 132.164 75.316 132.026 75.1504 132.022C74.9847 132.018 74.8472 132.149 74.8432 132.315C74.8392 132.48 74.9702 132.618 75.1358 132.622C75.3015 132.626 75.439 132.495 75.443 132.329Z" fill="#6AB360"/>
<path d="M76.4118 132.3C76.4158 132.134 76.2848 131.997 76.1191 131.993C75.9535 131.989 75.816 132.12 75.8119 132.285C75.8079 132.451 75.939 132.588 76.1046 132.592C76.2702 132.596 76.4078 132.465 76.4118 132.3Z" fill="#6AB360"/>
<path d="M81.6992 130.6V127.8H76.1992V130.6H81.6992Z" fill="#546573"/>
<path d="M77.3786 132.271C77.3826 132.105 77.2515 131.967 77.0859 131.963C76.9203 131.959 76.7828 132.09 76.7787 132.256C76.7747 132.422 76.9058 132.559 77.0714 132.563C77.237 132.567 77.3746 132.436 77.3786 132.271Z" fill="#6AB360"/>
<path d="M81.7 132.2H78V132H81.7V132.2Z" fill="#6AB360"/>
<path d="M77.5992 136.4H74.1992V136.3H77.5992V136.4Z" fill="#FFFF4E"/>
<path d="M77.5992 136.1H74.1992V135.9H77.5992V136.1Z" fill="#FFFF4E"/>
<path d="M77.5992 135.9H74.1992V135.7L77.5992 135.8V135.9Z" fill="#FFFF4E"/>
<path d="M77.5996 135.8H74.0996V135.6H77.5996V135.8Z" fill="#FFFF4E"/>
<path d="M77.3996 135.4H74.0996V135.2L77.3996 135.3V135.4Z" fill="#FFFF4E"/>
<path d="M77.3996 135.4H74.0996V135.2L77.3996 135.3V135.4Z" fill="#FFFF4E"/>
<path d="M77.3996 135.1H74.0996V134.9H77.3996V135.1Z" fill="#FFFF4E"/>
<path d="M77.0996 136.9V134.3H77.1996V136.9H77.0996Z" fill="#FFFF4E"/>
<path d="M76.6992 136.9V134.2H76.7992L76.8992 136.9H76.6992Z" fill="#FFFF4E"/>
<path d="M76.6992 136.9V134.2H76.7992L76.8992 136.9H76.6992Z" fill="#FFFF4E"/>
<path d="M76.2988 136.9V134.2H76.4988V136.9H76.2988Z" fill="#FFFF4E"/>
<path d="M76.0996 136.9V134.2H76.2996V136.9H76.0996Z" fill="#FFFF4E"/>
<path d="M75.9004 136.9V134.2H76.1004V136.9H75.9004Z" fill="#FFFF4E"/>
<path d="M75.5 136.9V134.2H75.7V136.9H75.5Z" fill="#FFFF4E"/>
<path d="M75.5 136.9V134.2H75.7V136.9H75.5Z" fill="#FFFF4E"/>
<path d="M75.0996 136.9V134.2H75.2996V136.9H75.0996Z" fill="#FFFF4E"/>
<path d="M77.7004 136.6H74.4004V134.8H77.7004V136.6Z" fill="#546573"/>
<path d="M77.7004 136.6H74.4004V136.5H77.7004V136.6Z" fill="#546573"/>
<path d="M80.6006 133.8C80.7006 133.8 81.0006 133.7 81.0006 133.5C81.0006 133.4 80.7006 133.2 80.6006 133.2C80.5006 133.2 80.4006 133.3 80.4006 133.5C80.3006 133.7 80.4006 133.8 80.6006 133.8Z" fill="#FF3333"/>
<path d="M81.2008 133.8C81.3008 133.8 81.4008 133.7 81.4008 133.5C81.4008 133.4 81.3008 133.2 81.2008 133.2C81.1008 133.2 80.8008 133.3 80.8008 133.5C80.8008 133.7 81.1008 133.8 81.2008 133.8Z" fill="#FF3333"/>
<path d="M82.0008 133.7V137H79.8008V133.7H82.0008Z" fill="#FF7A38"/>
<path d="M81.1012 133.7V137H80.7012V133.7H81.1012Z" fill="#FF3333"/>
<path d="M79.8008 135.2H82.0008V135.5H79.8008V135.2Z" fill="#FF3333"/>
<path d="M80.7 128L79.7 127.8C79.7 127.5 79.7 127.5 79.7 127.3C79.6 127.1 79.5 126.8 79.6 126.3C79.6 126 79.7 125.5 80.1 125.1C80.5 124.8 80.9 124.8 81.3 124.8C81.5 124.8 81.7 124.8 81.8 124.8C81.9 124.8 82 124.7 82 124.6C82 124.5 82 124.4 82 124.3L82.9 123.8C83.1 124.1 83.1 124.6 82.9 124.9C82.8 125.1 82.7 125.3 82.6 125.4C82.8 125.4 82.9 125.4 83.1 125.4C83.4 125.4 83.7 125.4 84 125.4C84.4 125.3 84.7 125 84.8 124.7C84.9 124.3 84.8 123.9 84.5 123.7L85.2 123C85.7 123.5 85.9 124.3 85.7 125C85.5 125.7 84.9 126.3 84.2 126.4C83.8 126.5 83.4 126.5 83 126.4C82.8 126.4 82.6 126.4 82.4 126.4C81.6 126.6 80.9 127.2 80.7 128ZM81.1 125.9C80.9 125.9 80.8 125.9 80.8 126C80.8 126.1 80.7 126.2 80.7 126.3C80.8 126.2 80.9 126 81.1 125.9Z" fill="#FF3333"/>
<path d="M78.2004 128.7C77.7004 127.5 78.0004 125.9 79.0004 125C79.2004 124.9 79.3004 124.7 79.5004 124.6C79.8004 124.4 80.1004 124.1 80.2004 123.9L81.1004 124.2C80.9004 124.8 80.4004 125.1 80.0004 125.4C79.9004 125.5 79.7004 125.6 79.6004 125.7C78.9004 126.3 78.7004 127.4 79.0004 128.2L78.2004 128.7Z" fill="#6AC86E"/>
<path d="M92.2988 147.1L91.9988 142.2L87.8988 141.3L84.2988 142.6L83.7988 143.6L84.0988 148.4L88.3988 150.6L92.3988 148L92.2988 147.1ZM88.8988 144.3C89.5988 144.7 89.9988 145.4 89.8988 146.2C89.3988 146.7 88.6988 147 87.8988 147.3C85.6988 148.2 85.7988 146.1 86.7988 144.6C87.2988 144.1 88.1988 143.9 88.8988 144.3Z" fill="#8A9096"/>
<path d="M87.0992 146.5C86.1992 146 85.7992 144.9 86.2992 144C86.7992 143.1 87.8992 142.7 88.6992 143.2C89.5992 143.7 89.9992 144.8 89.4992 145.6C89.0992 146.6 87.9992 146.9 87.0992 146.5ZM91.9992 142.2L87.6992 140L83.6992 142.6L83.9992 147.4L88.2992 149.6L92.2992 147L91.9992 142.2Z" fill="#B9BDC3"/>
<path d="M80.6 155.4L83.1 151.2L80.2 148.1L76.5 147.1L75.5 147.7L73 151.8L75.3 156L80.1 156.1L80.6 155.4ZM79.4 151.1C79.8 151.8 79.6 152.6 79.1 153.2C78.4 153.3 77.6 153.2 76.8 153C74.5 152.4 75.7 150.8 77.4 150.2C78.2 150 79 150.3 79.4 151.1Z" fill="#8A9096"/>
<path d="M76.7 151.9C76.2 151 76.6 149.9 77.4 149.4C78.3 148.9 79.4 149.3 79.9 150.1C80.4 151 80 152.1 79.2 152.6C78.3 153.1 77.2 152.7 76.7 151.9ZM83.1 151.1L80.8 146.9L76 146.8L73.5 150.9L75.8 155.1L80.6 155.2L83.1 151.1Z" fill="#B9BDC3"/>
<path d="M163.301 133.5C167.443 133.5 170.801 132.291 170.801 130.8C170.801 129.309 167.443 128.1 163.301 128.1C159.159 128.1 155.801 129.309 155.801 130.8C155.801 132.291 159.159 133.5 163.301 133.5Z" fill="#B9BDC3"/>
<path d="M166.801 64.1H159.701V129.7H166.801V64.1Z" fill="#B9BDC3"/>
<path opacity="0.2" d="M166.8 64.1H164.9V129.7H166.8V64.1Z" fill="black"/>
<path d="M168.502 40H158.102V76H168.502V40Z" fill="#FA9664"/>
<path d="M168.402 40L158.102 45.3V40.1L158.202 40H168.402Z" fill="#FFF173"/>
<path d="M168.502 47.1L158.102 52.5V47.3L168.502 41.9V47.1Z" fill="#FFF173"/>
<path d="M168.502 54.3L158.102 59.7V54.5L168.502 49.1V54.3Z" fill="#FFF173"/>
<path d="M168.502 61.5L158.102 66.9001V61.7001L168.502 56.3V61.5Z" fill="#FFF173"/>
<path d="M168.502 68.7L158.102 74.1V68.8L168.502 63.5V68.7Z" fill="#FFF173"/>
<path d="M168.501 70.7V75.9L168.301 76H158.201L168.501 70.7Z" fill="#FFF173"/>
<path d="M168.502 40H158.102V76H168.502V40Z" fill="#FA9664"/>
<path d="M168.402 40L158.102 45.3V40.1L158.202 40H168.402Z" fill="#FFF173"/>
<path d="M168.502 47.1L158.102 52.5V47.3L168.502 41.9V47.1Z" fill="#FFF173"/>
<path d="M168.502 54.3L158.102 59.7V54.5L168.502 49.1V54.3Z" fill="#FFF173"/>
<path d="M168.502 61.5L158.102 66.9001V61.7001L168.502 56.3V61.5Z" fill="#FFF173"/>
<path d="M168.502 68.7L158.102 74.1V68.8L168.502 63.5V68.7Z" fill="#FFF173"/>
<path d="M168.501 70.7V75.9L168.301 76L168.101 76.2C165.401 79.2 160.701 79.1 158.201 76L168.501 70.7Z" fill="#FFF173"/>
<path opacity="0.2" d="M168.501 75.9L166.301 77.7V40H168.501V75.9Z" fill="black"/>
<path d="M163.1 43.7999C170.335 43.7999 176.2 41.6509 176.2 39C176.2 36.349 170.335 34.2 163.1 34.2C155.865 34.2 150 36.349 150 39C150 41.6509 155.865 43.7999 163.1 43.7999Z" fill="#FA9664"/>
<path d="M163.1 43C170.335 43 176.2 40.851 176.2 38.2C176.2 35.5491 170.335 33.4 163.1 33.4C155.865 33.4 150 35.5491 150 38.2C150 40.851 155.865 43 163.1 43Z" fill="#FFF173"/>
<path d="M175.199 37.3C175.199 39.6 169.799 41.5 163.199 41.5C160.499 41.5 157.999 41.2 155.999 40.6C155.399 40.4 154.799 40.3 154.299 40.1C153.999 40 153.699 39.9 153.499 39.8C153.199 39.7 152.899 39.5 152.699 39.4C151.699 38.8 151.199 38.1 151.199 37.3C151.199 36.5 151.799 35.8 152.699 35.2C152.899 35 153.199 34.9 153.499 34.8C153.699 34.7 153.999 34.6 154.299 34.5C154.799 34.3 155.299 34.1 155.999 34C157.999 33.5 160.499 33.1 163.199 33.1C169.799 33.1 175.199 35 175.199 37.3Z" fill="#6AC86E"/>
<path d="M175.1 18.1H152.4V37.6H175.1V18.1Z" fill="#219750"/>
<path d="M174.5 18.1H151V37.6H174.5V18.1Z" fill="#6AC86E"/>
<path d="M170.499 37.3C170.499 38.3 167.199 39.1 163.099 39.1C158.999 39.1 155.699 38.3 155.699 37.3C155.699 36.3 158.999 30.4 163.099 30.4C167.199 30.4 170.499 36.3 170.499 37.3Z" fill="#219750"/>
<path d="M157.699 37.1C160.185 37.1 162.199 34.1003 162.199 30.4C162.199 26.6996 160.185 23.7 157.699 23.7C155.214 23.7 153.199 26.6996 153.199 30.4C153.199 34.1003 155.214 37.1 157.699 37.1Z" fill="white"/>
<path d="M158.699 37.1C161.185 37.1 163.199 34.1003 163.199 30.4C163.199 26.6996 161.185 23.7 158.699 23.7C156.214 23.7 154.199 26.6996 154.199 30.4C154.199 34.1003 156.214 37.1 158.699 37.1Z" fill="#1A844B"/>
<path d="M165.1 37.1C167.585 37.1 169.6 34.1003 169.6 30.4C169.6 26.6996 167.585 23.7 165.1 23.7C162.614 23.7 160.6 26.6996 160.6 30.4C160.6 34.1003 162.614 37.1 165.1 37.1Z" fill="#1A844B"/>
<path d="M168.5 37.1C170.985 37.1 173 34.1003 173 30.4C173 26.6996 170.985 23.7 168.5 23.7C166.015 23.7 164 26.6996 164 30.4C164 34.1003 166.015 37.1 168.5 37.1Z" fill="white"/>
<path opacity="0.5" d="M154.2 18.1V39.3C153.9 39.2 153.6 39.1 153.4 39.1C153.1 39 152.8 38.9 152.6 38.8V18.1H154.2Z" fill="white"/>
<path opacity="0.5" d="M155.9 18.1V39.6C155.3 39.5 154.7 39.4 154.2 39.2C153.9 39.1 153.6 39 153.4 39V17.9L155.9 18.1Z" fill="white"/>
<path d="M163.1 23.4C170.335 23.4 176.2 21.251 176.2 18.6C176.2 15.9491 170.335 13.8 163.1 13.8C155.865 13.8 150 15.9491 150 18.6C150 21.251 155.865 23.4 163.1 23.4Z" fill="#FA9664"/>
<path d="M163.1 22.6C170.335 22.6 176.2 20.451 176.2 17.8C176.2 15.149 170.335 13 163.1 13C155.865 13 150 15.149 150 17.8C150 20.451 155.865 22.6 163.1 22.6Z" fill="#FFF173"/>
<path d="M100.043 126.644L90.1435 129.044C89.2435 129.244 88.2435 128.744 88.0435 127.744L86.0435 119.344C85.8435 118.444 86.3435 117.444 87.3435 117.244L97.2435 114.844C98.1435 114.644 99.1435 115.144 99.3435 116.144L101.343 124.544C101.543 125.444 100.943 126.344 100.043 126.644Z" fill="#B9BDC3"/>
<path d="M100.043 125.843L90.1435 128.243C89.2435 128.443 88.2435 127.943 88.0435 126.943L86.0435 118.543C85.8435 117.643 86.3435 116.643 87.3435 116.443L97.2435 114.043C98.1435 113.843 99.1435 114.343 99.3435 115.343L101.343 123.743C101.543 124.643 100.943 125.643 100.043 125.843Z" fill="#333333"/>
<path d="M97.743 115.743L87.543 118.243L88.043 120.343L98.343 117.843L97.743 115.743Z" fill="#BBE5FA"/>
<path d="M93.5434 120.844L88.4434 122.144L89.6434 126.944L94.7434 125.644L93.5434 120.844Z" fill="#BBE5FA"/>
<path d="M97.2434 124.443L97.0434 124.543C96.0434 124.743 95.0434 124.143 94.7434 123.143C94.5434 122.143 95.1434 121.143 96.1434 120.843L96.3434 120.743C97.3434 120.543 98.3434 121.143 98.6434 122.143C98.9434 123.143 98.3434 124.143 97.2434 124.443Z" fill="#F8BF15"/>
<path d="M35.4004 191.7L35.1004 184.6L10.9004 185.6L11.2004 192.7L35.4004 191.7Z" fill="#FF3333"/>
<path opacity="0.2" d="M27.5996 192L28.1996 184.9L37.2996 184.5L37.5996 191.5L27.5996 192Z" fill="#333333"/>
<path d="M13.6 193.9L13.2 184.2L9 184.4L9.40001 194.1L13.6 193.9Z" fill="#333333"/>
<path d="M11.2008 194L10.8008 184.3L13.2008 184.2C14.2008 184.2 15.0008 184.9 15.0008 185.9L15.3008 192.1C15.3008 193.1 14.6008 193.9 13.6008 193.9L11.2008 194Z" fill="#FF3333"/>
<path d="M21.1996 190.4L21.0996 187.1C20.9996 185.6 22.1996 184.3 23.6996 184.2C25.1996 184.1 26.4996 185.3 26.5996 186.8L26.6996 190.1C26.7996 191.6 25.5996 192.9 24.0996 193C22.4996 193.1 21.2996 191.9 21.1996 190.4Z" fill="#FF3333"/>
<path d="M35.9004 204.9L35.6004 197.8L11.4004 198.8L11.7004 205.9L35.9004 204.9Z" fill="#FF3333"/>
<path opacity="0.2" d="M28.1992 205.2L28.7992 198.1L37.8992 197.7L38.1992 204.8L28.1992 205.2Z" fill="#333333"/>
<path d="M14.1996 207.1L13.7996 197.4L9.59961 197.6L9.9996 207.3L14.1996 207.1Z" fill="#333333"/>
<path d="M11.7008 207.2L11.3008 197.5L13.7008 197.4C14.7008 197.4 15.5008 198.1 15.5008 199.1L15.8008 205.3C15.8008 206.3 15.1008 207.1 14.1008 207.1L11.7008 207.2Z" fill="#FF3333"/>
<path d="M21.6996 203.6L21.5996 200.3C21.4996 198.8 22.6996 197.5 24.1996 197.4C25.6996 197.3 26.9996 198.5 27.0996 200L27.1996 203.3C27.2996 204.8 26.0996 206.1 24.5996 206.2C23.0996 206.3 21.7996 205.1 21.6996 203.6Z" fill="#FF3333"/>
<path d="M44.8008 206.1L43.8008 182.3C43.8008 181.3 44.5008 180.5 45.5008 180.5L57.4008 180C58.4008 180 59.2008 180.7 59.2008 181.7L60.2008 205.5C60.2008 206.5 59.5008 207.3 58.5008 207.3L46.6008 207.8C45.7008 207.9 44.9008 207.1 44.8008 206.1Z" fill="#AB47BC"/>
<path d="M59.0008 188.921L56.1328 189.035L56.4473 196.909L59.3152 196.794L59.0008 188.921Z" fill="#454B58"/>
<path opacity="0.2" d="M59.2221 193.954C58.125 192.64 57.124 191.113 56.175 189.585L56.4666 196.885L59.3345 196.77L59.2221 193.954Z" fill="#454B58"/>
<path d="M57.8149 192.705L58.1027 192.067C58.4761 192.261 58.8411 192.246 59.1456 192.025C59.6024 191.693 59.5733 190.963 59.565 190.755C59.5566 190.546 59.4961 190.34 59.4878 190.131C59.4211 189.768 59.3544 189.405 59.3899 188.986C59.3628 188.308 59.7487 187.509 60.5246 187.322L60.656 187.995C60.2409 188.064 60.0532 188.594 60.0177 189.013C59.978 189.328 60.0427 189.639 60.1094 190.002C60.1719 190.26 60.1803 190.469 60.1907 190.73C60.2762 191.562 59.9904 192.252 59.4835 192.638C59.0788 192.968 58.401 192.995 57.8149 192.705Z" fill="#009AE8"/>
<path d="M56.9024 186.84C56.8941 186.631 56.8836 186.37 56.9275 186.16C57.0381 185.006 57.9413 184.082 58.6191 184.055L58.6254 184.212C57.9997 184.237 57.1987 185.104 57.136 186.151C57.1068 186.727 57.1839 187.351 57.2068 187.924C57.2152 188.133 57.2756 188.339 57.3361 188.546C57.3945 188.7 57.505 188.852 57.6093 188.848L57.6615 188.846L57.6636 188.898C57.9034 189.672 57.9409 190.611 57.7114 191.403L57.5529 191.357C57.7323 190.619 57.749 189.731 57.5113 189.009C57.3528 188.963 57.2422 188.811 57.1818 188.604C57.1213 188.398 57.0608 188.191 57.0525 187.983C56.9858 187.62 56.917 187.205 56.9024 186.84Z" fill="#F9C051"/>
<path d="M56.654 187.163C56.6415 186.85 56.629 186.537 56.6666 186.17C56.7063 185.855 56.8252 184.91 57.4384 184.572L57.7763 185.186C57.624 185.296 57.3779 185.672 57.3487 186.247C57.2339 187.296 57.3694 188.074 57.651 188.585C57.8762 188.994 57.9909 189.251 58.0138 189.824C58.0889 190.396 58.0617 191.024 57.874 191.554L57.2879 191.264C57.4276 190.84 57.459 190.317 57.386 189.797C57.3151 189.33 57.2567 189.176 57.0878 188.869C56.8104 188.462 56.6832 187.893 56.654 187.163Z" fill="#E3326C"/>
<path d="M31.1992 206.7L30.1992 182.9C30.1992 181.9 30.8992 181.1 31.8992 181.1L52.5992 180.2C53.5992 180.2 54.3992 180.9 54.3992 181.9L55.3992 205.7C55.3992 206.7 54.6992 207.5 53.6992 207.5L32.9992 208.4C31.9992 208.4 31.1992 207.7 31.1992 206.7Z" fill="#8E24AA"/>
<path d="M40.4996 199.5L40.0996 189.4C40.0996 188.4 40.7996 187.6 41.7996 187.6L50.3996 187.2C51.3996 187.2 52.1996 187.9 52.1996 188.9L52.5996 199C52.5996 200 51.8996 200.8 50.8996 200.8L42.2996 201.2C41.2996 201.2 40.4996 200.4 40.4996 199.5Z" fill="#333333"/>
<path d="M50.7992 199.3L50.3992 188.7L48.1992 188.8L48.5992 199.4L50.7992 199.3Z" fill="#BBE5FA"/>
<path d="M46.6 194.1L46.4 188.8L41.5 189L41.7 194.3L46.6 194.1Z" fill="#BBE5FA"/>
<path d="M42.4004 197.1V196.8C42.4004 195.8 43.2004 194.9 44.2004 194.9C45.2004 194.9 46.1004 195.7 46.1004 196.7V197C46.1004 198 45.3004 198.9 44.3004 198.9C43.3004 198.9 42.5004 198.1 42.4004 197.1Z" fill="#F8BF15"/>
<path d="M143.099 109.3H142.699V117.7H143.099V109.3Z" fill="#FFFF4E"/>
<path d="M142.4 109.3H142V117.7H142.4V109.3Z" fill="#FFFF4E"/>
<path d="M141.599 109.3H141.199V117.7H141.599V109.3Z" fill="#FFFF4E"/>
<path d="M140.9 109.3H140.5V117.7H140.9V109.3Z" fill="#FFFF4E"/>
<path d="M140.099 109H139.699V117.4H140.099V109Z" fill="#FFFF4E"/>
<path d="M139.4 109H139V117.4H139.4V109Z" fill="#FFFF4E"/>
<path d="M138.599 109H138.199V117.4H138.599V109Z" fill="#FFFF4E"/>
<path d="M144.9 116.2H136V116.6H144.9V116.2Z" fill="#FFFF4E"/>
<path d="M144.9 115.6H136V116H144.9V115.6Z" fill="#FFFF4E"/>
<path d="M144.9 115H136V115.4H144.9V115Z" fill="#FFFF4E"/>
<path d="M144.9 114.5H136V114.9H144.9V114.5Z" fill="#FFFF4E"/>
<path d="M144.9 113.9H136V114.3H144.9V113.9Z" fill="#FFFF4E"/>
<path d="M144.9 113.3H136V113.7H144.9V113.3Z" fill="#FFFF4E"/>
<path d="M144.9 112.7H136V113.1H144.9V112.7Z" fill="#FFFF4E"/>
<path d="M144.9 112.1H136V112.5H144.9V112.1Z" fill="#FFFF4E"/>
<path d="M144.9 111.6H136V112H144.9V111.6Z" fill="#FFFF4E"/>
<path d="M137.328 110.321L137.328 121.321L143.928 121.321L143.928 110.321L137.328 110.321Z" fill="#546573"/>
<path d="M137.352 109.797L137.352 120.397L143.952 120.397L143.952 109.797L137.352 109.797Z" fill="#546573"/>
<path d="M139.701 119.4H139.301V113H140.801V117.6H141.601V113.1H142.001V118H140.501V113.4H139.701V119.4Z" fill="#6AB360"/>
<path d="M139.901 119.4C139.901 119.6 139.801 119.7 139.601 119.7C139.401 119.7 139.301 119.6 139.301 119.4C139.301 119.2 139.401 119.1 139.601 119.1C139.801 119.1 139.901 119.2 139.901 119.4Z" fill="#6AB360"/>
<path d="M141.8 113.4C141.966 113.4 142.1 113.266 142.1 113.1C142.1 112.934 141.966 112.8 141.8 112.8C141.634 112.8 141.5 112.934 141.5 113.1C141.5 113.266 141.634 113.4 141.8 113.4Z" fill="#6AB360"/>
<path d="M139.16 110.437L139.16 112.037L141.76 112.037L141.76 110.437L139.16 110.437Z" fill="black"/>
<path d="M131.7 110L128.8 106.1L124.9 107.6L122.6 110.6L122.7 111.8L125.5 115.7L130.3 115.2L132.3 110.8L131.7 110ZM127.3 109.5C128.1 109.4 128.8 109.9 129.1 110.6C128.9 111.3 128.5 112 128 112.6C126.6 114.5 125.6 112.8 125.6 110.9C125.9 110.1 126.5 109.5 127.3 109.5Z" fill="#8A9096"/>
<path d="M127 112.2C126 112.3 125.1 111.6 125 110.6C124.9 109.6 125.6 108.7 126.6 108.6C127.6 108.5 128.5 109.2 128.6 110.2C128.7 111.2 128 112.1 127 112.2ZM128.8 106L124 106.5L122 110.9L124.8 114.8L129.6 114.3L131.6 109.9L128.8 106Z" fill="#B9BDC3"/>
<path d="M68.6989 205.062L64.3041 199.152L58.3938 201.425L54.9082 205.971L55.0598 207.79L59.3031 213.7L66.5773 212.942L69.6082 206.274L68.6989 205.062ZM62.0309 204.304C63.2433 204.153 64.3041 204.91 64.7587 205.971C64.4556 207.032 63.8494 208.093 63.0917 209.002C60.9701 211.882 59.4546 209.305 59.4546 206.426C59.9092 205.213 60.8185 204.304 62.0309 204.304Z" fill="#8A9096"/>
<path d="M61.5773 208.396C60.0619 208.547 58.6979 207.487 58.5464 205.971C58.3948 204.456 59.4557 203.092 60.9711 202.94C62.4866 202.789 63.8505 203.849 64.0021 205.365C64.1536 206.88 63.0928 208.244 61.5773 208.396ZM64.3052 199L57.0309 199.758L54 206.426L58.2433 212.336L65.5175 211.578L68.5485 204.91L64.3052 199Z" fill="#B9BDC3"/>
<path d="M131.074 101.508C130.974 101.508 130.974 101.608 130.874 101.608L122.474 105.808C121.574 106.208 120.574 105.908 120.174 105.008C119.774 104.108 120.074 103.108 120.974 102.708L129.374 98.5084C129.474 98.5084 129.474 98.4084 129.574 98.4084C129.574 96.9084 130.374 95.4084 131.774 94.7084C133.274 94.0084 134.974 94.2084 136.174 95.3084L132.874 97.0084L134.274 99.8084L137.574 98.1084C137.674 99.7084 136.874 101.208 135.374 102.008C133.874 102.708 132.174 102.408 131.074 101.508Z" fill="#74797E"/>
<path d="M131.574 100.208C131.474 100.208 131.474 100.308 131.374 100.308L122.974 104.508C122.074 104.908 121.074 104.608 120.674 103.708C120.274 102.808 120.574 101.808 121.474 101.408L129.874 97.2083C129.974 97.2083 129.974 97.1083 130.074 97.1083C130.074 95.6083 130.874 94.1083 132.274 93.4083C133.774 92.7083 135.474 92.9083 136.674 94.0083L133.374 95.7083L134.774 98.5083L138.074 96.8083C138.174 98.4083 137.374 99.9083 135.874 100.708C134.374 101.408 132.774 101.208 131.574 100.208Z" fill="#B9BDC3"/>
<path d="M121.2 86.3095C120.7 86.3095 120.3 86.0095 120.1 85.6095H137.9C138.9 85.6095 139.7 84.9095 139.7 83.9095" fill="#AB47BC"/>
<path d="M131.5 90.4095C131.2 90.7095 130.5 91.0095 130.1 91.0095H111.4C110.6 91.0095 110 90.2095 110 89.2095V68.5095C110 67.8095 110.3 67.1095 110.8 66.9095C111 66.8095 119.8 62.6095 119.9 62.5095C120.4 62.2095 120.8 62.1095 121.1 62.1095H139.8C140.6 62.1095 141.2 62.9095 141.2 63.9095V84.6095C141.2 85.3095 140.9 85.9095 140.4 86.2095" fill="#AB47BC"/>
<path d="M128.7 69.4095C126.8 70.3095 125 70.0095 123.7 69.0095C123.4 69.1095 123 69.2095 122.6 69.2095C118.4 69.3095 114.2 69.7095 110 70.2095V89.3095C110 90.3095 110.6 91.1095 111.4 91.1095H130.1C130.5 91.1095 131.2 90.8095 131.5 90.5095L140.5 86.2095C141 85.9095 141.3 85.3095 141.3 84.6095V64.2095C137.1 65.9095 132.8 67.4095 128.7 69.4095Z" fill="#8512A3"/>
<path d="M130.1 91.0095H111.4C110.6 91.0095 110 90.2095 110 89.2095V68.5095C110 67.5095 110.6 66.7095 111.4 66.7095H130.1C130.9 66.7095 131.5 67.5095 131.5 68.5095V89.2095C131.5 90.2095 130.9 91.0095 130.1 91.0095Z" fill="#8E24AA"/>
<path d="M124.701 81.4095H116.701C115.901 81.4095 115.301 80.6095 115.301 79.6095V71.0095C115.301 70.0095 115.901 69.2095 116.701 69.2095H124.701C125.501 69.2095 126.101 70.0095 126.101 71.0095V79.6095C126.101 80.7095 125.501 81.4095 124.701 81.4095Z" fill="#333333"/>
<path d="M124.9 71.1095H116.6V73.3095H124.9V71.1095Z" fill="#BBE5FA"/>
<path d="M120.7 75.1095H116.6V80.0095H120.7V75.1095Z" fill="#BBE5FA"/>
<path d="M122.899 79.4095H122.699C121.899 79.4095 121.199 78.6095 121.199 77.5095C121.199 76.5095 121.799 75.6095 122.699 75.6095H122.899C123.699 75.6095 124.399 76.4095 124.399 77.5095C124.399 78.6095 123.699 79.4095 122.899 79.4095Z" fill="#F8BF15"/>
<path d="M144.4 57.0095L120.6 55.4095C119.6 55.3095 118.9 54.5095 119 53.5095L119.8 41.6095C119.9 40.6095 120.7 39.9095 121.7 40.0095L145.4 41.6095C146.4 41.7095 147.1 42.5095 147 43.5095L146.2 55.4095C146.2 56.3095 145.4 57.0095 144.4 57.0095Z" fill="#AB47BC"/>
<path d="M143.399 70.6096L119.699 69.0096C118.699 68.9096 117.999 68.1096 118.099 67.1096L119.499 46.4095C119.599 45.4095 120.399 44.7095 121.399 44.8095L145.199 46.4095C146.199 46.5095 146.899 47.3096 146.799 48.3096L145.399 69.0096C145.199 69.9096 144.399 70.7096 143.399 70.6096Z" fill="#8E24AA"/>
<path d="M137.299 60.6095L127.199 59.9095C126.199 59.8095 125.499 59.0095 125.599 58.0095L126.199 49.4095C126.299 48.4095 127.099 47.7095 128.099 47.8095L138.199 48.5095C139.199 48.6095 139.899 49.4095 139.799 50.4095L139.199 59.0095C139.099 59.9095 138.299 60.6095 137.299 60.6095Z" fill="#333333"/>
<path d="M138.198 50.3095L127.598 49.6095L127.398 51.8095L137.998 52.5095L138.198 50.3095Z" fill="#BBE5FA"/>
<path d="M132.7 53.9095L127.4 53.5095L127 58.4095L132.3 58.8095L132.7 53.9095Z" fill="#BBE5FA"/>
<path d="M135.1 58.4095H134.8C133.8 58.3095 133 57.4095 133.1 56.4095C133.2 55.4095 134.1 54.6095 135.1 54.7095H135.4C136.4 54.8095 137.2 55.7095 137.1 56.7095C137.1 57.7095 136.2 58.4095 135.1 58.4095Z" fill="#F8BF15"/>
<path d="M108.9 134.338L102.7 130.938L91.0996 152.238L97.2996 155.638L108.9 134.338Z" fill="#D92626"/>
<path opacity="0.2" d="M105.2 141.138L99.4004 137.038L103.8 129.038L110 132.438L105.2 141.138Z" fill="#333333"/>
<path d="M99.6 154.138L91 149.438L89 153.138L97.5 157.838L99.6 154.138Z" fill="#333333"/>
<path d="M98.4004 156.238L89.9004 151.538L91.1004 149.438C91.6004 148.538 92.6004 148.238 93.5004 148.738L98.9004 151.738C99.8004 152.238 100.1 153.238 99.6004 154.138L98.4004 156.238Z" fill="#D92626"/>
<path d="M100.501 145.838L97.6006 144.238C96.3006 143.538 95.8006 141.838 96.5006 140.538C97.2006 139.238 98.9006 138.738 100.201 139.438L103.101 141.038C104.401 141.738 104.901 143.438 104.201 144.738C103.501 146.038 101.801 146.538 100.501 145.838Z" fill="#D92626"/>
<path d="M118.5 144.438L113.4 139.538L96.5996 157.038L101.7 161.938L118.5 144.438Z" fill="#D92626"/>
<path opacity="0.2" d="M113.1 150.038L108.6 144.538L114.9 137.938L120 142.838L113.1 150.038Z" fill="#333333"/>
<path d="M104.3 161.138L97.3004 154.438L94.4004 157.438L101.4 164.138L104.3 161.138Z" fill="#333333"/>
<path d="M102.6 162.838L95.5996 156.138L97.2996 154.438C97.9996 153.738 99.0996 153.738 99.7996 154.338L104.3 158.638C105 159.338 105 160.438 104.4 161.138L102.6 162.838Z" fill="#D92626"/>
<path d="M107.3 153.338L104.9 151.038C103.8 149.938 103.8 148.238 104.8 147.138C105.9 146.038 107.6 146.038 108.7 147.038L111.1 149.338C112.2 150.438 112.2 152.138 111.2 153.238C110.2 154.338 108.4 154.338 107.3 153.338Z" fill="#D92626"/>
<path d="M125.801 139.138L108.601 122.638C107.901 121.938 107.901 120.838 108.501 120.138L116.701 111.538C117.401 110.838 118.501 110.838 119.201 111.438L136.401 128.038C137.101 128.738 137.101 129.838 136.501 130.538L128.301 139.138C127.601 139.838 126.501 139.838 125.801 139.138Z" fill="#AB47BC"/>
<path d="M116.301 149.038L99.1007 132.538C98.4007 131.838 98.4007 130.738 99.0007 130.038L113.401 115.038C114.101 114.338 115.201 114.338 115.901 114.938L133.101 131.438C133.801 132.138 133.801 133.238 133.201 133.938L118.801 148.938C118.101 149.638 117.001 149.738 116.301 149.038Z" fill="#8E24AA"/>
<path d="M118 137.338L110.7 130.338C110 129.638 110 128.538 110.6 127.838L116.6 121.638C117.3 120.938 118.4 120.938 119.1 121.538L126.4 128.538C127.1 129.238 127.1 130.338 126.5 131.038L120.5 137.238C119.8 138.038 118.7 138.038 118 137.338Z" fill="#333333"/>
<path d="M125.301 130.038L117.701 122.738L116.201 124.338L123.801 131.638L125.301 130.038Z" fill="#BBE5FA"/>
<path d="M118.8 129.238L115 125.538L111.6 129.138L115.4 132.838L118.8 129.238Z" fill="#BBE5FA"/>
<path d="M117.801 134.338L117.601 134.138C116.901 133.438 116.801 132.238 117.501 131.538C118.201 130.838 119.401 130.738 120.101 131.438L120.301 131.638C121.001 132.338 121.101 133.538 120.401 134.238C119.701 135.038 118.501 135.038 117.801 134.338Z" fill="#F8BF15"/>
<path d="M144 147.538H120.2C119.2 147.538 118.4 146.738 118.4 145.738V133.838C118.4 132.838 119.2 132.038 120.2 132.038H144C145 132.038 145.8 132.838 145.8 133.838V145.738C145.8 146.738 145 147.538 144 147.538Z" fill="#AB47BC"/>
<path d="M144 161.238H120.2C119.2 161.238 118.4 160.738 118.4 160.038V146.438C118.4 145.838 119.2 145.238 120.2 145.238H144C145 145.238 145.8 145.738 145.8 146.438V160.038C145.8 160.638 145 161.238 144 161.238Z" fill="#8E24AA"/>
<path d="M126.7 155.938C124.9 155.338 122.8 156.238 122.2 158.138L116.6 174.438C116 176.238 116.9 178.338 118.8 178.938C120.6 179.538 122.7 178.638 123.3 176.738L128.9 160.438C129.5 158.638 128.5 156.638 126.7 155.938Z" fill="#FF3333"/>
<path d="M123.399 180.438L114.199 177.238L114.999 175.038C115.299 174.138 116.299 173.638 117.199 173.938L122.999 175.938C123.899 176.238 124.399 177.238 124.099 178.138L123.399 180.438Z" fill="#FF3333"/>
<path d="M122.2 177.538L117 175.738C115.9 175.338 114.7 175.938 114.3 177.038C113.9 178.138 114.5 179.338 115.6 179.738L120.8 181.538C121.9 181.938 123.1 181.338 123.5 180.238C123.8 179.038 123.3 177.838 122.2 177.538Z" fill="#333333"/>
<path d="M124.5 169.538L121.2 169.438C119.7 169.338 118.5 168.138 118.6 166.538C118.7 165.038 119.9 163.838 121.5 163.938L124.8 164.038C126.3 164.138 127.5 165.338 127.4 166.938C127.3 168.438 126.1 169.538 124.5 169.538Z" fill="#FF3333"/>
<path d="M137.201 155.138H127.101C126.101 155.138 125.301 154.638 125.301 154.038V148.738C125.301 148.138 126.101 147.638 127.101 147.638H137.201C138.201 147.638 139.001 148.138 139.001 148.738V154.038C139.001 154.638 138.201 155.138 137.201 155.138Z" fill="#333333"/>
<path d="M137.401 148.738H126.801V150.138H137.401V148.738Z" fill="#BBE5FA"/>
<path d="M132.101 151.238H126.801V154.238H132.101V151.238Z" fill="#BBE5FA"/>
<path d="M134.901 153.838H134.601C133.601 153.838 132.701 153.338 132.701 152.738C132.701 152.138 133.501 151.638 134.601 151.638H134.901C135.901 151.638 136.801 152.138 136.801 152.738C136.801 153.338 136.001 153.838 134.901 153.838Z" fill="#F8BF15"/>
<path d="M135.601 160.438L141.201 176.738C141.801 178.538 143.801 179.538 145.701 178.938C147.501 178.338 148.501 176.338 147.901 174.438L142.301 158.138C141.701 156.338 139.701 155.338 137.801 155.938C135.901 156.638 134.901 158.638 135.601 160.438Z" fill="#FF3333"/>
<path d="M141.1 180.438L140.3 178.138C140 177.238 140.5 176.238 141.4 175.938L147.2 173.938C148.1 173.638 149.1 174.138 149.4 175.038L150.2 177.338L141.1 180.438Z" fill="#FF3333"/>
<path d="M140.999 180.138C141.399 181.238 142.599 181.838 143.699 181.438L148.899 179.638C149.999 179.238 150.599 178.038 150.199 176.938C149.799 175.838 148.599 175.238 147.499 175.638L142.299 177.438C141.199 177.838 140.599 179.038 140.999 180.138Z" fill="#333333"/>
<path d="M137.1 167.438C136.8 165.938 137.8 164.538 139.3 164.238L142.6 163.638C144.1 163.338 145.5 164.338 145.8 165.838C146.1 167.338 145.1 168.738 143.6 169.038L140.3 169.638C138.8 169.938 137.4 168.938 137.1 167.438Z" fill="#FF3333"/>
<path d="M132.199 140.538C134.685 140.538 136.699 139.195 136.699 137.538C136.699 135.881 134.685 134.538 132.199 134.538C129.714 134.538 127.699 135.881 127.699 137.538C127.699 139.195 129.714 140.538 132.199 140.538Z" fill="#8E24AA"/>
<path d="M104.739 61.8H80.9387C79.9387 61.8 79.1387 61 79.1387 60V48.1C79.1387 47.1 79.9387 46.3 80.9387 46.3H104.739C105.739 46.3 106.539 47.1 106.539 48.1V60C106.539 61 105.739 61.8 104.739 61.8Z" fill="#AB47BC"/>
<path d="M104.739 75.5H80.9387C79.9387 75.5 79.1387 75 79.1387 74.3V60.7C79.1387 60.1 79.9387 59.5 80.9387 59.5H104.739C105.739 59.5 106.539 60 106.539 60.7V74.3C106.539 75 105.739 75.5 104.739 75.5Z" fill="#8E24AA"/>
<path d="M87.4385 70.2001C85.6385 69.6001 83.5385 70.5001 82.9385 72.4001L77.3385 88.7001C76.7385 90.5001 77.6385 92.6001 79.5385 93.2001C81.3385 93.8001 83.4385 92.9001 84.0385 91.0001L89.6385 74.7001C90.2385 72.9001 89.2385 70.9001 87.4385 70.2001Z" fill="#FF3333"/>
<path d="M84.1375 94.8L74.9375 91.6L75.7375 89.3C76.0375 88.4 77.0375 87.9 77.9375 88.2L83.7375 90.2C84.6375 90.5 85.1375 91.5 84.8375 92.4L84.1375 94.8Z" fill="#FF3333"/>
<path d="M82.9384 91.8001L77.7384 90.0001C76.6384 89.6001 75.4384 90.2001 75.0384 91.3001C74.6384 92.4001 75.2384 93.6001 76.3384 94.0001L81.5384 95.7001C82.6384 96.1001 83.8384 95.5001 84.2384 94.4001C84.5384 93.3001 84.0384 92.2001 82.9384 91.8001Z" fill="#333333"/>
<path d="M85.2379 83.8L81.9379 83.7C80.4379 83.6 79.2379 82.4 79.3379 80.8C79.4379 79.3 80.6379 78.1 82.2379 78.2L85.5379 78.3C87.0379 78.4 88.2379 79.6 88.1379 81.2C88.0379 82.7 86.7379 83.9 85.2379 83.8Z" fill="#FF3333"/>
<path d="M97.9375 69.4H87.7375C86.7375 69.4 85.9375 68.9 85.9375 68.3V63C85.9375 62.4 86.7375 61.9 87.7375 61.9H97.8375C98.8375 61.9 99.6375 62.4 99.6375 63V68.3C99.6375 68.9 98.9375 69.4 97.9375 69.4Z" fill="#333333"/>
<path d="M98.1371 63H87.5371V64.4H98.1371V63Z" fill="#BBE5FA"/>
<path d="M92.8371 65.5H87.5371V68.5H92.8371V65.5Z" fill="#BBE5FA"/>
<path d="M95.6375 68.1H95.3375C94.3375 68.1 93.4375 67.6 93.4375 67C93.4375 66.4 94.2375 65.9 95.3375 65.9H95.6375C96.6375 65.9 97.5375 66.4 97.5375 67C97.5375 67.6 96.6375 68.1 95.6375 68.1Z" fill="#F8BF15"/>
<path d="M96.2389 74.7001L101.839 91.0001C102.439 92.8001 104.439 93.8001 106.339 93.2001C108.139 92.6001 109.139 90.6001 108.539 88.7001L102.939 72.4001C102.339 70.6001 100.339 69.6001 98.4389 70.2001C96.6389 70.9001 95.6389 72.9001 96.2389 74.7001Z" fill="#FF3333"/>
<path d="M101.838 94.8001L101.038 92.5001C100.738 91.6001 101.238 90.6001 102.138 90.3001L107.938 88.3001C108.838 88.0001 109.838 88.5001 110.138 89.4001L110.938 91.7001L101.838 94.8001Z" fill="#FF3333"/>
<path d="M101.738 94.4001C102.138 95.5001 103.338 96.1001 104.438 95.7001L109.638 93.9001C110.738 93.5001 111.338 92.3001 110.938 91.2001C110.538 90.1001 109.338 89.5001 108.238 89.9001L103.038 91.7001C101.938 92.2001 101.338 93.3001 101.738 94.4001Z" fill="#333333"/>
<path d="M97.8384 81.7C97.5384 80.2 98.5384 78.8 100.038 78.5L103.338 77.9C104.838 77.6 106.238 78.6 106.538 80.1C106.838 81.6 105.838 83 104.338 83.3L101.038 83.9C99.5384 84.2 98.0384 83.2 97.8384 81.7Z" fill="#FF3333"/>
<path d="M92.9375 54.8C95.4228 54.8 97.4375 53.4569 97.4375 51.8C97.4375 50.1432 95.4228 48.8 92.9375 48.8C90.4522 48.8 88.4375 50.1432 88.4375 51.8C88.4375 53.4569 90.4522 54.8 92.9375 54.8Z" fill="#8E24AA"/>
<path d="M86.1836 47.2393L86.1836 52.7393L101.284 52.7393L101.284 47.2393L86.1836 47.2393Z" fill="#454B58"/>
<path opacity="0.2" d="M95.8383 47.2C93.2383 49.2 90.2383 51 87.2383 52.7H101.238V47.2H95.8383Z" fill="#454B58"/>
<path d="M93.3383 49.8L92.1383 49.2C92.5383 48.5 92.5383 47.8 92.1383 47.2C91.5383 46.3 90.1383 46.3 89.7383 46.3C89.3383 46.3 88.9383 46.4 88.5383 46.4C87.8383 46.5 87.1383 46.6 86.3383 46.5C85.0383 46.5 83.5383 45.7 83.2383 44.2L84.5383 44C84.6383 44.8 85.6383 45.2 86.4383 45.3C87.0383 45.4 87.6383 45.3 88.3383 45.2C88.8383 45.1 89.2383 45.1 89.7383 45.1C91.3383 45 92.6383 45.6 93.3383 46.6C93.9383 47.4 93.9383 48.7 93.3383 49.8Z" fill="#009AE8"/>
<path d="M82.0379 51.1C81.6379 51.1 81.1379 51.1 80.7379 51C78.5379 50.7 76.8379 48.9 76.8379 47.6H77.1379C77.1379 48.8 78.7379 50.4 80.7379 50.6C81.8379 50.7 83.0379 50.6 84.1379 50.6C84.5379 50.6 84.9379 50.5 85.3379 50.4C85.6379 50.3 85.9379 50.1 85.9379 49.9V49.8H86.0379C87.5379 49.4 89.3379 49.4 90.8379 49.9L90.7379 50.2C89.3379 49.8 87.6379 49.7 86.2379 50.1C86.1379 50.4 85.8379 50.6 85.4379 50.7C85.0379 50.8 84.6379 50.9 84.2379 50.9C83.5379 51 82.7379 51.1 82.0379 51.1Z" fill="#F9C051"/>
<path d="M82.6383 51.6C82.0383 51.6 81.4383 51.6 80.7383 51.5C80.1383 51.4 78.3383 51.1 77.7383 49.9L78.9383 49.3C79.1383 49.6 79.8383 50.1 80.9383 50.2C82.9383 50.5 84.4383 50.3 85.4383 49.8C86.2383 49.4 86.7383 49.2 87.8383 49.2C88.9383 49.1 90.1383 49.2 91.1383 49.6L90.5383 50.7C89.7383 50.4 88.7383 50.3 87.7383 50.4C86.8383 50.5 86.5383 50.6 85.9383 50.9C85.1383 51.4 84.0383 51.6 82.6383 51.6Z" fill="#E3326C"/>
<path d="M87.7383 100.5L88.3383 107.5L112.538 105.4L111.938 98.4L87.7383 100.5Z" fill="#D92626"/>
<path opacity="0.2" d="M95.4391 99.8L95.2391 106.9L86.1391 107.7L85.5391 100.7L95.4391 99.8Z" fill="#333333"/>
<path d="M109.338 97.2L110.238 106.9L114.438 106.5L113.538 96.9L109.338 97.2Z" fill="#333333"/>
<path d="M111.738 97L112.638 106.7L110.238 106.9C109.238 107 108.438 106.3 108.338 105.3L107.838 99.1C107.738 98.1 108.438 97.3 109.438 97.2L111.738 97Z" fill="#D92626"/>
<path d="M101.938 101.1L102.238 104.4C102.338 105.9 101.238 107.3 99.7379 107.4C98.2379 107.5 96.8379 106.4 96.7379 104.9L96.4379 101.6C96.3379 100.1 97.4379 98.7001 98.9379 98.6001C100.438 98.5001 101.738 99.6001 101.938 101.1Z" fill="#D92626"/>
<path d="M90.7391 86.9L89.5391 93.9L113.439 98.1L114.639 91.1L90.7391 86.9Z" fill="#D92626"/>
<path opacity="0.2" d="M98.4379 88.2L96.3379 95L87.3379 93.4L88.5379 86.4L98.4379 88.2Z" fill="#333333"/>
<path d="M112.538 89.4L110.838 98.9L114.938 99.6L116.638 90.1L112.538 89.4Z" fill="#333333"/>
<path d="M114.939 89.8L113.239 99.3L110.839 98.9C109.839 98.7 109.239 97.8 109.439 96.9L110.539 90.8C110.739 89.8 111.639 89.2 112.539 89.4L114.939 89.8Z" fill="#D92626"/>
<path d="M104.338 91.2L103.738 94.5C103.538 96 102.038 97 100.538 96.7C99.0384 96.4 98.0384 95 98.3384 93.5L98.9384 90.2C99.2384 88.7 100.638 87.7 102.138 88C103.638 88.3 104.638 89.7 104.338 91.2Z" fill="#D92626"/>
<path d="M82.3383 83.8L78.1383 107.3C77.9383 108.3 77.0383 108.9 76.1383 108.7L64.4383 106.6C63.4383 106.4 62.8383 105.5 63.0383 104.6L67.2383 81.2C67.4383 80.2 68.3383 79.6 69.2383 79.8L80.9383 81.7C81.8383 81.9 82.5383 82.8 82.3383 83.8Z" fill="#AB47BC"/>
<path d="M95.8391 86.1001L91.6391 109.6C91.4391 110.6 90.5391 111.2 89.6391 111L69.2391 107.4C68.2391 107.2 67.6391 106.3 67.8391 105.4L72.0391 82.0001C72.2391 81.0001 73.1391 80.4001 74.0391 80.6001L94.4391 84.2001C95.3391 84.3001 95.9391 85.2001 95.8391 86.1001Z" fill="#8E24AA"/>
<path d="M85.1387 91.2001L83.3387 101.2C83.1387 102.2 82.2387 102.8 81.3387 102.6L72.8387 101.1C71.8387 100.9 71.2387 100 71.4387 99.1001L73.2387 89.1001C73.4387 88.1001 74.3387 87.5001 75.2387 87.7001L83.7387 89.2001C84.7387 89.3001 85.3387 90.2001 85.1387 91.2001Z" fill="#333333"/>
<path d="M75.0383 89.2001L73.2383 99.6001L75.4383 100L77.2383 89.6001L75.0383 89.2001Z" fill="#BBE5FA"/>
<path d="M78.0387 95.1001L77.1387 100.3L82.0387 101.2L82.9387 96.0001L78.0387 95.1001Z" fill="#BBE5FA"/>
<path d="M82.7381 93.1001V93.4001C82.5381 94.4001 81.6381 95.1001 80.5381 94.9001C79.5381 94.7001 78.8381 93.7 79.0381 92.7V92.4001C79.2381 91.4001 80.1381 90.7001 81.2381 90.9001C82.2381 91.1001 82.9381 92.1001 82.7381 93.1001Z" fill="#F8BF15"/>
</svg>
