<svg width="200" height="250" fill="none" xmlns="http://www.w3.org/2000/svg"><path d="M76.9 137.6c-.1-1 .1-1.9.2-2.7.4-1.7.6-2.8-1.9-3.9l.3-.7c3 1.3 2.7 2.9 2.3 4.7-.2.8-.3 1.6-.2 2.5l-.7.1z" fill="#009AE8"/><path d="M79.4 137.6c-.7-1.3-1.2-2.2.5-3.7 1.2-1.1 1.8-2.4 1.5-2.9 0-.1-.1-.3-.7-.3v-.7c.9 0 1.2.5 1.4.8.4 1-.4 2.5-1.7 3.8-1.3 1.1-1 1.6-.4 2.7l.1.1-.7.2z" fill="#E3326C"/><path d="M81.6 139.3c0-.3 0-.6-.1-1-.1-1.5-.3-3.4.3-3.8l.1.1c-.5.4-.4 2.4-.3 3.7 0 .4.1.7.1 1h-.1z" fill="#6AB360"/><path d="M81.8 139.3c0 .1-.1.2-.1.2-.1 0-.2-.1-.2-.1 0-.1.1-.2.1-.2.1-.1.2 0 .2.1zM82 134.7c.1 0 .1-.1.1-.2s-.1-.1-.2-.1-.1.1-.1.2.1.1.2.1zM81.5 132.4h-3.7v-.2h3.7v.2zM76.5 137.8h-1v-3.3h.2v3.1h.6v-2.4h.9v2.6H77v-2.4h-.5v2.4z" fill="#6AB360"/><path d="M75.4 134.5c0-.1.1-.2.2-.2s.2.1.2.2-.1.2-.2.2-.2-.1-.2-.2zM77 137.8c0 .1.1.2.2.2s.2-.1.2-.2-.1-.2-.2-.2c-.2 0-.2.1-.2.2z" fill="#6AB360"/><path d="M87.1 140.2v-10.3l-.6-.5-13.4.5.1 10.3h13.9z" fill="#004E00"/><path d="M86.6 139.7l-.1-10.3H72.6v10.3h14z" fill="#30A658"/><path d="M79.2 139.5v-7.1h.2v7.1h-.2zM79.198 138.6h-4.3v-.2h4.3v.2z" fill="#6AB360"/><path d="M74.9 138.7c-.1 0-.2-.1-.2-.2s.1-.2.2-.2.2.1.2.2-.1.2-.2.2zM79.2 138.7c.1 0 .2-.1.2-.2s-.1-.2-.2-.2-.2.1-.2.2.2.2.2.2zM79.198 139.2l-4.3-.1v-.1h4.3v.2z" fill="#6AB360"/><path d="M74.9 139.2c-.1 0-.2-.1-.2-.2s.1-.2.2-.2.2.1.2.2-.1.2-.2.2zM79.2 139.2c.1 0 .2-.1.2-.2s-.1-.2-.2-.2-.2.1-.2.2c.1.2.2.2.2.2zM79.298 139.7h-4.4v-.2h4.4v.2z" fill="#6AB360"/><path d="M74.9 139.7c-.1 0-.2-.1-.2-.2s.1-.2.2-.2.2.1.2.2c0 .2-.1.2-.2.2zM79.2 139.8c.1 0 .2-.1.2-.2s-.1-.2-.2-.2-.2.1-.2.2l.2.2zM82.79 132.306a.3.3 0 10-.598-.015.3.3 0 00.599.015zM83.757 132.276a.3.3 0 10-.599-.015.3.3 0 00.6.015zM84.722 132.347a.3.3 0 10-.599-.015.3.3 0 00.6.015zM75.443 132.329a.3.3 0 10-.6-.014.3.3 0 00.6.014zM76.412 132.3a.3.3 0 10-.6-.015.3.3 0 00.6.015z" fill="#6AB360"/><path d="M81.7 130.6v-2.8h-5.5v2.8h5.5z" fill="#546573"/><path d="M77.379 132.271a.3.3 0 10-.601-.015.3.3 0 00.6.015zM81.7 132.2H78v-.2h3.7v.2z" fill="#6AB360"/><path d="M77.6 136.4h-3.4v-.1h3.4v.1zM77.6 136.1h-3.4v-.2h3.4v.2zM77.6 135.9h-3.4v-.2l3.4.1v.1z" fill="#FFFF4E"/><path d="M77.6 135.8h-3.5v-.2h3.5v.2zM77.4 135.4h-3.3v-.2l3.3.1v.1z" fill="#FFFF4E"/><path d="M77.4 135.4h-3.3v-.2l3.3.1v.1zM77.4 135.1h-3.3v-.2h3.3v.2z" fill="#FFFF4E"/><path d="M77.1 136.9v-2.6h.1v2.6h-.1zM76.7 136.9v-2.7h.1l.1 2.7h-.2z" fill="#FFFF4E"/><path d="M76.7 136.9v-2.7h.1l.1 2.7h-.2zM76.299 136.9v-2.7h.2v2.7h-.2z" fill="#FFFF4E"/><path d="M76.1 136.9v-2.7h.2v2.7h-.2z" fill="#FFFF4E"/><path d="M75.9 136.9v-2.7h.2v2.7h-.2zM75.5 136.9v-2.7h.2v2.7h-.2z" fill="#FFFF4E"/><path d="M75.5 136.9v-2.7h.2v2.7h-.2zM75.1 136.9v-2.7h.2v2.7h-.2z" fill="#FFFF4E"/><path d="M77.7 136.6h-3.3v-1.8h3.3v1.8z" fill="#546573"/><path d="M77.7 136.6h-3.3v-.1h3.3v.1z" fill="#546573"/><path d="M80.6 133.8c.1 0 .4-.1.4-.3 0-.1-.3-.3-.4-.3-.1 0-.2.1-.2.3-.1.2 0 .3.2.3z" fill="#F33"/><path d="M81.2 133.8c.1 0 .2-.1.2-.3 0-.1-.1-.3-.2-.3s-.4.1-.4.3c0 .2.3.3.4.3z" fill="#F33"/><path d="M82 133.7v3.3h-2.2v-3.3H82z" fill="#FF7A38"/><path d="M81.101 133.7v3.3h-.4v-3.3h.4z" fill="#F33"/><path d="M79.8 135.2H82v.3h-2.2v-.3zM80.7 128l-1-.2v-.5c-.1-.2-.2-.5-.1-1 0-.3.1-.8.5-1.2.4-.3.8-.3 1.2-.3h.5c.1 0 .2-.1.2-.2v-.3l.9-.5c.2.3.2.8 0 1.1-.1.2-.2.4-.3.5H84c.4-.1.7-.4.8-.7.1-.4 0-.8-.3-1l.7-.7c.5.5.7 1.3.5 2-.2.7-.8 1.3-1.5 1.4-.4.1-.8.1-1.2 0h-.6c-.8.2-1.5.8-1.7 1.6zm.4-2.1c-.2 0-.3 0-.3.1s-.1.2-.1.3c.1-.1.2-.3.4-.4z" fill="#F33"/><path d="M78.2 128.7c-.5-1.2-.2-2.8.8-3.7.2-.1.3-.3.5-.4.3-.2.6-.5.7-.7l.9.3c-.2.6-.7.9-1.1 1.2-.1.1-.3.2-.4.3-.7.6-.9 1.7-.6 2.5l-.8.5z" fill="#6AC86E"/><path d="M92.299 147.1l-.3-4.9-4.1-.9-3.6 1.3-.5 1 .3 4.8 4.3 2.2 4-2.6-.1-.9zm-3.4-2.8c.7.4 1.1 1.1 1 1.9-.5.5-1.2.8-2 1.1-2.2.9-2.1-1.2-1.1-2.7.5-.5 1.4-.7 2.1-.3z" fill="#8A9096"/><path d="M87.1 146.5c-.9-.5-1.3-1.6-.8-2.5.5-.9 1.6-1.3 2.4-.8.9.5 1.3 1.6.8 2.4-.4 1-1.5 1.3-2.4.9zm4.9-4.3l-4.3-2.2-4 2.6.3 4.8 4.3 2.2 4-2.6-.3-4.8z" fill="#B9BDC3"/><path d="M80.6 155.4l2.5-4.2-2.9-3.1-3.7-1-1 .6-2.5 4.1 2.3 4.2 4.8.1.5-.7zm-1.2-4.3c.4.7.2 1.5-.3 2.1-.7.1-1.5 0-2.3-.2-2.3-.6-1.1-2.2.6-2.8.8-.2 1.6.1 2 .9z" fill="#8A9096"/><path d="M76.7 151.9c-.5-.9-.1-2 .7-2.5.9-.5 2-.1 2.5.7.5.9.1 2-.7 2.5-.9.5-2 .1-2.5-.7zm6.4-.8l-2.3-4.2-4.8-.1-2.5 4.1 2.3 4.2 4.8.1 2.5-4.1zM163.301 133.5c4.142 0 7.5-1.209 7.5-2.7s-3.358-2.7-7.5-2.7c-4.142 0-7.5 1.209-7.5 2.7s3.358 2.7 7.5 2.7z" fill="#B9BDC3"/><path d="M166.801 64.1h-7.1v65.6h7.1V64.1z" fill="#B9BDC3"/><path opacity=".2" d="M166.8 64.1h-1.9v65.6h1.9V64.1z" fill="#000"/><path d="M168.502 40h-10.4v36h10.4V40z" fill="#FA9664"/><path d="M168.402 40l-10.3 5.3v-5.2l.1-.1h10.2zM168.502 47.1l-10.4 5.4v-5.2l10.4-5.4v5.2zM168.502 54.3l-10.4 5.4v-5.2l10.4-5.4v5.2zM168.502 61.5l-10.4 5.4v-5.2l10.4-5.4v5.2zM168.502 68.7l-10.4 5.4v-5.3l10.4-5.3v5.2zM168.501 70.7v5.2l-.2.1h-10.1l10.3-5.3z" fill="#FFF173"/><path d="M168.502 40h-10.4v36h10.4V40z" fill="#FA9664"/><path d="M168.402 40l-10.3 5.3v-5.2l.1-.1h10.2zM168.502 47.1l-10.4 5.4v-5.2l10.4-5.4v5.2zM168.502 54.3l-10.4 5.4v-5.2l10.4-5.4v5.2zM168.502 61.5l-10.4 5.4v-5.2l10.4-5.4v5.2zM168.502 68.7l-10.4 5.4v-5.3l10.4-5.3v5.2zM168.501 70.7v5.2l-.2.1-.2.2c-2.7 3-7.4 2.9-9.9-.2l10.3-5.3z" fill="#FFF173"/><path opacity=".2" d="M168.501 75.9l-2.2 1.8V40h2.2v35.9z" fill="#000"/><path d="M163.1 43.8c7.235 0 13.1-2.15 13.1-4.8 0-2.651-5.865-4.8-13.1-4.8-7.235 0-13.1 2.149-13.1 4.8 0 2.65 5.865 4.8 13.1 4.8z" fill="#FA9664"/><path d="M163.1 43c7.235 0 13.1-2.149 13.1-4.8 0-2.65-5.865-4.8-13.1-4.8-7.235 0-13.1 2.15-13.1 4.8 0 2.651 5.865 4.8 13.1 4.8z" fill="#FFF173"/><path d="M175.199 37.3c0 2.3-5.4 4.2-12 4.2-2.7 0-5.2-.3-7.2-.9-.6-.2-1.2-.3-1.7-.5-.3-.1-.6-.2-.8-.3-.3-.1-.6-.3-.8-.4-1-.6-1.5-1.3-1.5-2.1s.6-1.5 1.5-2.1c.2-.2.5-.3.8-.4.2-.1.5-.2.8-.3.5-.2 1-.4 1.7-.5 2-.5 4.5-.9 7.2-.9 6.6 0 12 1.9 12 4.2z" fill="#6AC86E"/><path d="M175.1 18.1h-22.7v19.5h22.7V18.1z" fill="#219750"/><path d="M174.5 18.1H151v19.5h23.5V18.1z" fill="#6AC86E"/><path d="M170.499 37.3c0 1-3.3 1.8-7.4 1.8-4.1 0-7.4-.8-7.4-1.8s3.3-6.9 7.4-6.9c4.1 0 7.4 5.9 7.4 6.9z" fill="#219750"/><path d="M157.699 37.1c2.486 0 4.5-3 4.5-6.7s-2.014-6.7-4.5-6.7c-2.485 0-4.5 3-4.5 6.7s2.015 6.7 4.5 6.7z" fill="#fff"/><path d="M158.699 37.1c2.486 0 4.5-3 4.5-6.7s-2.014-6.7-4.5-6.7c-2.485 0-4.5 3-4.5 6.7s2.015 6.7 4.5 6.7z" fill="#1A844B"/><path d="M165.1 37.1c2.485 0 4.5-3 4.5-6.7s-2.015-6.7-4.5-6.7c-2.486 0-4.5 3-4.5 6.7s2.014 6.7 4.5 6.7z" fill="#1A844B"/><path d="M168.5 37.1c2.485 0 4.5-3 4.5-6.7s-2.015-6.7-4.5-6.7-4.5 3-4.5 6.7 2.015 6.7 4.5 6.7z" fill="#fff"/><path opacity=".5" d="M154.2 18.1v21.2c-.3-.1-.6-.2-.8-.2-.3-.1-.6-.2-.8-.3V18.1h1.6z" fill="#fff"/><path opacity=".5" d="M155.9 18.1v21.5c-.6-.1-1.2-.2-1.7-.4-.3-.1-.6-.2-.8-.2V17.9l2.5.2z" fill="#fff"/><path d="M163.1 23.4c7.235 0 13.1-2.149 13.1-4.8 0-2.65-5.865-4.8-13.1-4.8-7.235 0-13.1 2.15-13.1 4.8 0 2.651 5.865 4.8 13.1 4.8z" fill="#FA9664"/><path d="M163.1 22.6c7.235 0 13.1-2.149 13.1-4.8s-5.865-4.8-13.1-4.8c-7.235 0-13.1 2.149-13.1 4.8s5.865 4.8 13.1 4.8z" fill="#FFF173"/><path d="M100.043 126.644l-9.9 2.4c-.9.2-1.9-.3-2.1-1.3l-2-8.4c-.2-.9.3-1.9 1.3-2.1l9.9-2.4c.9-.2 1.9.3 2.1 1.3l2 8.4c.2.9-.4 1.8-1.3 2.1z" fill="#B9BDC3"/><path d="M100.043 125.843l-9.9 2.4c-.9.2-1.9-.3-2.1-1.3l-2-8.4c-.2-.9.3-1.9 1.3-2.1l9.9-2.4c.9-.2 1.9.3 2.1 1.3l2 8.4c.2.9-.4 1.9-1.3 2.1z" fill="#333"/><path d="M97.743 115.743l-10.2 2.5.5 2.1 10.3-2.5-.6-2.1zM93.543 120.844l-5.1 1.3 1.2 4.8 5.1-1.3-1.2-4.8z" fill="#BBE5FA"/><path d="M97.243 124.443l-.2.1a2 2 0 01-2.3-1.4 2 2 0 011.4-2.3l.2-.1c1-.2 2 .4 2.3 1.4.3 1-.3 2-1.4 2.3z" fill="#F8BF15"/><path d="M35.4 191.7l-.3-7.1-24.2 1 .3 7.1 24.2-1z" fill="#F33"/><path opacity=".2" d="M27.6 192l.6-7.1 9.1-.4.3 7-10 .5z" fill="#333"/><path d="M13.6 193.9l-.4-9.7-4.2.2.4 9.7 4.2-.2z" fill="#333"/><path d="M11.2 194l-.4-9.7 2.4-.1c1 0 1.8.7 1.8 1.7l.3 6.2c0 1-.7 1.8-1.7 1.8l-2.4.1zM21.2 190.4l-.1-3.3c-.1-1.5 1.1-2.8 2.6-2.9 1.5-.1 2.8 1.1 2.9 2.6l.1 3.3c.1 1.5-1.1 2.8-2.6 2.9-1.6.1-2.8-1.1-2.9-2.6zM35.9 204.9l-.3-7.1-24.2 1 .3 7.1 24.2-1z" fill="#F33"/><path opacity=".2" d="M28.2 205.2l.6-7.1 9.1-.4.3 7.1-10 .4z" fill="#333"/><path d="M14.2 207.1l-.4-9.7-4.2.2.4 9.7 4.2-.2z" fill="#333"/><path d="M11.7 207.2l-.4-9.7 2.4-.1c1 0 1.8.7 1.8 1.7l.3 6.2c0 1-.7 1.8-1.7 1.8l-2.4.1zM21.7 203.6l-.1-3.3c-.1-1.5 1.1-2.8 2.6-2.9 1.5-.1 2.8 1.1 2.9 2.6l.1 3.3c.1 1.5-1.1 2.8-2.6 2.9-1.5.1-2.8-1.1-2.9-2.6z" fill="#F33"/><path d="M44.8 206.1l-1-23.8c0-1 .7-1.8 1.7-1.8l11.9-.5c1 0 1.8.7 1.8 1.7l1 23.8c0 1-.7 1.8-1.7 1.8l-11.9.5c-.9.1-1.7-.7-1.8-1.7z" fill="#AB47BC"/><path d="M59 188.921l-2.867.114.314 7.874 2.868-.115-.314-7.873z" fill="#454B58"/><path opacity=".2" d="M59.222 193.954c-1.097-1.314-2.098-2.841-3.047-4.369l.292 7.3 2.867-.115-.112-2.816z" fill="#454B58"/><path d="M57.815 192.705l.288-.638c.373.194.738.179 1.043-.042.456-.332.427-1.062.419-1.27-.008-.209-.069-.415-.077-.624-.067-.363-.134-.726-.098-1.145-.027-.678.359-1.477 1.135-1.664l.131.673c-.415.069-.603.599-.638 1.018-.04.315.025.626.091.989.063.258.071.467.082.728.085.832-.2 1.522-.708 1.908-.404.33-1.082.357-1.668.067z" fill="#009AE8"/><path d="M56.902 186.84c-.008-.209-.018-.47.026-.68.11-1.154 1.013-2.078 1.691-2.105l.006.157c-.625.025-1.426.892-1.489 1.939-.03.576.048 1.2.07 1.773.01.209.07.415.13.622.059.154.169.306.273.302l.052-.002.003.052c.24.774.277 1.713.047 2.505l-.158-.046c.18-.738.196-1.626-.042-2.348-.158-.046-.269-.198-.33-.405-.06-.206-.12-.413-.128-.621a8.542 8.542 0 01-.15-1.143z" fill="#F9C051"/><path d="M56.654 187.163c-.013-.313-.025-.626.013-.993.04-.315.158-1.26.771-1.598l.338.614c-.152.11-.398.486-.427 1.061-.115 1.049.02 1.827.302 2.338.225.409.34.666.363 1.239.075.572.048 1.2-.14 1.73l-.586-.29c.14-.424.171-.947.098-1.467-.07-.467-.13-.621-.298-.928-.278-.407-.405-.976-.434-1.706z" fill="#E3326C"/><path d="M31.2 206.7l-1-23.8c0-1 .7-1.8 1.7-1.8l20.7-.9c1 0 1.8.7 1.8 1.7l1 23.8c0 1-.7 1.8-1.7 1.8l-20.7.9c-1 0-1.8-.7-1.8-1.7z" fill="#8E24AA"/><path d="M40.5 199.5l-.4-10.1c0-1 .7-1.8 1.7-1.8l8.6-.4c1 0 1.8.7 1.8 1.7l.4 10.1c0 1-.7 1.8-1.7 1.8l-8.6.4c-1 0-1.8-.8-1.8-1.7z" fill="#333"/><path d="M50.8 199.3l-.4-10.6-2.2.1.4 10.6 2.2-.1zM46.6 194.1l-.2-5.3-4.9.2.2 5.3 4.9-.2z" fill="#BBE5FA"/><path d="M42.4 197.1v-.3c0-1 .8-1.9 1.8-1.9s1.9.8 1.9 1.8v.3c0 1-.8 1.9-1.8 1.9s-1.8-.8-1.9-1.8z" fill="#F8BF15"/><path d="M143.099 109.3h-.4v8.4h.4v-8.4zM142.4 109.3h-.4v8.4h.4v-8.4zM141.599 109.3h-.4v8.4h.4v-8.4zM140.9 109.3h-.4v8.4h.4v-8.4zM140.099 109h-.4v8.4h.4V109zM139.4 109h-.4v8.4h.4V109zM138.599 109h-.4v8.4h.4V109z" fill="#FFFF4E"/><path d="M144.9 116.2H136v.4h8.9v-.4zM144.9 115.6H136v.4h8.9v-.4zM144.9 115H136v.4h8.9v-.4zM144.9 114.5H136v.4h8.9v-.4zM144.9 113.9H136v.4h8.9v-.4zM144.9 113.3H136v.4h8.9v-.4zM144.9 112.7H136v.4h8.9v-.4zM144.9 112.1H136v.4h8.9v-.4zM144.9 111.6H136v.4h8.9v-.4z" fill="#FFFF4E"/><path d="M137.328 110.321v11h6.6v-11h-6.6z" fill="#546573"/><path d="M137.352 109.797v10.6h6.6v-10.6h-6.6z" fill="#546573"/><path d="M139.701 119.4h-.4V113h1.5v4.6h.8v-4.5h.4v4.9h-1.5v-4.6h-.8v6z" fill="#6AB360"/><path d="M139.901 119.4c0 .2-.1.3-.3.3-.2 0-.3-.1-.3-.3 0-.2.1-.3.3-.3.2 0 .3.1.3.3zM141.8 113.4a.3.3 0 100-.6.3.3 0 000 .6z" fill="#6AB360"/><path d="M139.16 110.437v1.6h2.6v-1.6h-2.6z" fill="#000"/><path d="M131.7 110l-2.9-3.9-3.9 1.5-2.3 3 .1 1.2 2.8 3.9 4.8-.5 2-4.4-.6-.8zm-4.4-.5c.8-.1 1.5.4 1.8 1.1-.2.7-.6 1.4-1.1 2-1.4 1.9-2.4.2-2.4-1.7.3-.8.9-1.4 1.7-1.4z" fill="#8A9096"/><path d="M127 112.2c-1 .1-1.9-.6-2-1.6-.1-1 .6-1.9 1.6-2 1-.1 1.9.6 2 1.6.1 1-.6 1.9-1.6 2zm1.8-6.2l-4.8.5-2 4.4 2.8 3.9 4.8-.5 2-4.4-2.8-3.9z" fill="#B9BDC3"/><path d="M68.699 205.062l-4.395-5.91-5.91 2.273-3.486 4.546.152 1.819 4.243 5.91 7.274-.758 3.031-6.668-.91-1.212zm-6.668-.758c1.212-.151 2.273.606 2.728 1.667-.303 1.061-.91 2.122-1.667 3.031-2.122 2.88-3.637.303-3.637-2.576.454-1.213 1.364-2.122 2.576-2.122z" fill="#8A9096"/><path d="M61.577 208.396c-1.515.151-2.88-.909-3.03-2.425-.152-1.515.909-2.879 2.424-3.031 1.516-.151 2.88.909 3.031 2.425.152 1.515-.91 2.879-2.425 3.031zM64.305 199l-7.274.758L54 206.426l4.243 5.91 7.274-.758 3.032-6.668-4.244-5.91z" fill="#B9BDC3"/><path d="M131.074 101.508c-.1 0-.1.1-.2.1l-8.4 4.2c-.9.4-1.9.1-2.3-.8-.4-.9-.1-1.9.8-2.3l8.4-4.2c.1 0 .1-.1.2-.1 0-1.5.8-3 2.2-3.7 1.5-.7 3.2-.5 4.4.6l-3.3 1.7 1.4 2.8 3.3-1.7c.1 1.6-.7 3.1-2.2 3.9-1.5.7-3.2.4-4.3-.5z" fill="#74797E"/><path d="M131.574 100.208c-.1 0-.1.1-.2.1l-8.4 4.2c-.9.4-1.9.1-2.3-.8-.4-.9-.1-1.9.8-2.3l8.4-4.2c.1 0 .1-.1.2-.1 0-1.5.8-3 2.2-3.7 1.5-.7 3.2-.5 4.4.6l-3.3 1.7 1.4 2.8 3.3-1.7c.1 1.6-.7 3.1-2.2 3.9-1.5.7-3.1.5-4.3-.5z" fill="#B9BDC3"/><path d="M121.2 86.31c-.5 0-.9-.3-1.1-.7h17.8c1 0 1.8-.7 1.8-1.7" fill="#AB47BC"/><path d="M131.5 90.41c-.3.3-1 .6-1.4.6h-18.7c-.8 0-1.4-.8-1.4-1.8v-20.7c0-.7.3-1.4.8-1.6.2-.1 9-4.3 9.1-4.4.5-.3.9-.4 1.2-.4h18.7c.8 0 1.4.8 1.4 1.8v20.7c0 .7-.3 1.3-.8 1.6" fill="#AB47BC"/><path d="M128.7 69.41c-1.9.9-3.7.6-5-.4-.3.1-.7.2-1.1.2-4.2.1-8.4.5-12.6 1v19.1c0 1 .6 1.8 1.4 1.8h18.7c.4 0 1.1-.3 1.4-.6l9-4.3c.5-.3.8-.9.8-1.6v-20.4c-4.2 1.7-8.5 3.2-12.6 5.2z" fill="#8512A3"/><path d="M130.1 91.01h-18.7c-.8 0-1.4-.8-1.4-1.8v-20.7c0-1 .6-1.8 1.4-1.8h18.7c.8 0 1.4.8 1.4 1.8v20.7c0 1-.6 1.8-1.4 1.8z" fill="#8E24AA"/><path d="M124.701 81.41h-8c-.8 0-1.4-.8-1.4-1.8v-8.6c0-1 .6-1.8 1.4-1.8h8c.8 0 1.4.8 1.4 1.8v8.6c0 1.1-.6 1.8-1.4 1.8z" fill="#333"/><path d="M124.9 71.11h-8.3v2.2h8.3v-2.2zM120.7 75.11h-4.1v4.9h4.1v-4.9z" fill="#BBE5FA"/><path d="M122.899 79.41h-.2c-.8 0-1.5-.8-1.5-1.9 0-1 .6-1.9 1.5-1.9h.2c.8 0 1.5.8 1.5 1.9 0 1.1-.7 1.9-1.5 1.9z" fill="#F8BF15"/><path d="M144.4 57.01l-23.8-1.6c-1-.1-1.7-.9-1.6-1.9l.8-11.9c.1-1 .9-1.7 1.9-1.6l23.7 1.6c1 .1 1.7.9 1.6 1.9l-.8 11.9c0 .9-.8 1.6-1.8 1.6z" fill="#AB47BC"/><path d="M143.399 70.61l-23.7-1.6c-1-.1-1.7-.9-1.6-1.9l1.4-20.7c.1-1 .9-1.7 1.9-1.6l23.8 1.6c1 .1 1.7.9 1.6 1.9l-1.4 20.7c-.2.9-1 1.7-2 1.6z" fill="#8E24AA"/><path d="M137.299 60.61l-10.1-.7c-1-.1-1.7-.9-1.6-1.9l.6-8.6c.1-1 .9-1.7 1.9-1.6l10.1.7c1 .1 1.7.9 1.6 1.9l-.6 8.6c-.1.9-.9 1.6-1.9 1.6z" fill="#333"/><path d="M138.198 50.31l-10.6-.7-.2 2.2 10.6.7.2-2.2zM132.7 53.91l-5.3-.4-.4 4.9 5.3.4.4-4.9z" fill="#BBE5FA"/><path d="M135.1 58.41h-.3c-1-.1-1.8-1-1.7-2 .1-1 1-1.8 2-1.7h.3c1 .1 1.8 1 1.7 2 0 1-.9 1.7-2 1.7z" fill="#F8BF15"/><path d="M108.9 134.338l-6.2-3.4-11.6 21.3 6.2 3.4 11.6-21.3z" fill="#D92626"/><path opacity=".2" d="M105.2 141.138l-5.8-4.1 4.4-8 6.2 3.4-4.8 8.7z" fill="#333"/><path d="M99.6 154.138l-8.6-4.7-2 3.7 8.5 4.7 2.1-3.7z" fill="#333"/><path d="M98.4 156.238l-8.5-4.7 1.2-2.1c.5-.9 1.5-1.2 2.4-.7l5.4 3c.9.5 1.2 1.5.7 2.4l-1.2 2.1zM100.501 145.838l-2.9-1.6c-1.3-.7-1.8-2.4-1.1-3.7.7-1.3 2.4-1.8 3.7-1.1l2.9 1.6c1.3.7 1.8 2.4 1.1 3.7-.7 1.3-2.4 1.8-3.7 1.1z" fill="#D92626"/><path d="M118.5 144.438l-5.1-4.9-16.8 17.5 5.1 4.9 16.8-17.5z" fill="#D92626"/><path opacity=".2" d="M113.1 150.038l-4.5-5.5 6.3-6.6 5.1 4.9-6.9 7.2z" fill="#333"/><path d="M104.3 161.138l-7-6.7-2.9 3 7 6.7 2.9-3z" fill="#333"/><path d="M102.6 162.838l-7-6.7 1.7-1.7c.7-.7 1.8-.7 2.5-.1l4.5 4.3c.7.7.7 1.8.1 2.5l-1.8 1.7zM107.3 153.338l-2.4-2.3a2.81 2.81 0 01-.1-3.9c1.1-1.1 2.8-1.1 3.9-.1l2.4 2.3c1.1 1.1 1.1 2.8.1 3.9s-2.8 1.1-3.9.1z" fill="#D92626"/><path d="M125.801 139.138l-17.2-16.5c-.7-.7-.7-1.8-.1-2.5l8.2-8.6c.7-.7 1.8-.7 2.5-.1l17.2 16.6c.7.7.7 1.8.1 2.5l-8.2 8.6c-.7.7-1.8.7-2.5 0z" fill="#AB47BC"/><path d="M116.301 149.038l-17.2-16.5c-.7-.7-.7-1.8-.1-2.5l14.4-15c.7-.7 1.8-.7 2.5-.1l17.2 16.5c.7.7.7 1.8.1 2.5l-14.4 15c-.7.7-1.8.8-2.5.1z" fill="#8E24AA"/><path d="M118 137.338l-7.3-7c-.7-.7-.7-1.8-.1-2.5l6-6.2c.7-.7 1.8-.7 2.5-.1l7.3 7c.7.7.7 1.8.1 2.5l-6 6.2c-.7.8-1.8.8-2.5.1z" fill="#333"/><path d="M125.301 130.038l-7.6-7.3-1.5 1.6 7.6 7.3 1.5-1.6zM118.8 129.238l-3.8-3.7-3.4 3.6 3.8 3.7 3.4-3.6z" fill="#BBE5FA"/><path d="M117.801 134.338l-.2-.2c-.7-.7-.8-1.9-.1-2.6.7-.7 1.9-.8 2.6-.1l.2.2c.7.7.8 1.9.1 2.6-.7.8-1.9.8-2.6.1z" fill="#F8BF15"/><path d="M144 147.538h-23.8c-1 0-1.8-.8-1.8-1.8v-11.9c0-1 .8-1.8 1.8-1.8H144c1 0 1.8.8 1.8 1.8v11.9c0 1-.8 1.8-1.8 1.8z" fill="#AB47BC"/><path d="M144 161.238h-23.8c-1 0-1.8-.5-1.8-1.2v-13.6c0-.6.8-1.2 1.8-1.2H144c1 0 1.8.5 1.8 1.2v13.6c0 .6-.8 1.2-1.8 1.2z" fill="#8E24AA"/><path d="M126.7 155.938c-1.8-.6-3.9.3-4.5 2.2l-5.6 16.3c-.6 1.8.3 3.9 2.2 4.5 1.8.6 3.9-.3 4.5-2.2l5.6-16.3c.6-1.8-.4-3.8-2.2-4.5z" fill="#F33"/><path d="M123.399 180.438l-9.2-3.2.8-2.2c.3-.9 1.3-1.4 2.2-1.1l5.8 2c.9.3 1.4 1.3 1.1 2.2l-.7 2.3z" fill="#F33"/><path d="M122.2 177.538l-5.2-1.8c-1.1-.4-2.3.2-2.7 1.3-.4 1.1.2 2.3 1.3 2.7l5.2 1.8c1.1.4 2.3-.2 2.7-1.3.3-1.2-.2-2.4-1.3-2.7z" fill="#333"/><path d="M124.5 169.538l-3.3-.1c-1.5-.1-2.7-1.3-2.6-2.9.1-1.5 1.3-2.7 2.9-2.6l3.3.1c1.5.1 2.7 1.3 2.6 2.9-.1 1.5-1.3 2.6-2.9 2.6z" fill="#F33"/><path d="M137.201 155.138h-10.1c-1 0-1.8-.5-1.8-1.1v-5.3c0-.6.8-1.1 1.8-1.1h10.1c1 0 1.8.5 1.8 1.1v5.3c0 .6-.8 1.1-1.8 1.1z" fill="#333"/><path d="M137.401 148.738h-10.6v1.4h10.6v-1.4zM132.101 151.238h-5.3v3h5.3v-3z" fill="#BBE5FA"/><path d="M134.901 153.838h-.3c-1 0-1.9-.5-1.9-1.1 0-.6.8-1.1 1.9-1.1h.3c1 0 1.9.5 1.9 1.1 0 .6-.8 1.1-1.9 1.1z" fill="#F8BF15"/><path d="M135.601 160.438l5.6 16.3c.6 1.8 2.6 2.8 4.5 2.2 1.8-.6 2.8-2.6 2.2-4.5l-5.6-16.3c-.6-1.8-2.6-2.8-4.5-2.2-1.9.7-2.9 2.7-2.2 4.5z" fill="#F33"/><path d="M141.1 180.438l-.8-2.3c-.3-.9.2-1.9 1.1-2.2l5.8-2c.9-.3 1.9.2 2.2 1.1l.8 2.3-9.1 3.1z" fill="#F33"/><path d="M140.999 180.138c.4 1.1 1.6 1.7 2.7 1.3l5.2-1.8c1.1-.4 1.7-1.6 1.3-2.7-.4-1.1-1.6-1.7-2.7-1.3l-5.2 1.8c-1.1.4-1.7 1.6-1.3 2.7z" fill="#333"/><path d="M137.1 167.438c-.3-1.5.7-2.9 2.2-3.2l3.3-.6c1.5-.3 2.9.7 3.2 2.2.3 1.5-.7 2.9-2.2 3.2l-3.3.6c-1.5.3-2.9-.7-3.2-2.2z" fill="#F33"/><path d="M132.199 140.538c2.486 0 4.5-1.343 4.5-3s-2.014-3-4.5-3c-2.485 0-4.5 1.343-4.5 3s2.015 3 4.5 3z" fill="#8E24AA"/><path d="M104.739 61.8h-23.8c-1 0-1.8-.8-1.8-1.8V48.1c0-1 .8-1.8 1.8-1.8h23.8c1 0 1.8.8 1.8 1.8V60c0 1-.8 1.8-1.8 1.8z" fill="#AB47BC"/><path d="M104.739 75.5h-23.8c-1 0-1.8-.5-1.8-1.2V60.7c0-.6.8-1.2 1.8-1.2h23.8c1 0 1.8.5 1.8 1.2v13.6c0 .7-.8 1.2-1.8 1.2z" fill="#8E24AA"/><path d="M87.439 70.2c-1.8-.6-3.9.3-4.5 2.2l-5.6 16.3c-.6 1.8.3 3.9 2.2 4.5 1.8.6 3.9-.3 4.5-2.2l5.6-16.3c.6-1.8-.4-3.8-2.2-4.5z" fill="#F33"/><path d="M84.138 94.8l-9.2-3.2.8-2.3c.3-.9 1.3-1.4 2.2-1.1l5.8 2c.9.3 1.4 1.3 1.1 2.2l-.7 2.4z" fill="#F33"/><path d="M82.938 91.8l-5.2-1.8c-1.1-.4-2.3.2-2.7 1.3-.4 1.1.2 2.3 1.3 2.7l5.2 1.7c1.1.4 2.3-.2 2.7-1.3.3-1.1-.2-2.2-1.3-2.6z" fill="#333"/><path d="M85.238 83.8l-3.3-.1c-1.5-.1-2.7-1.3-2.6-2.9.1-1.5 1.3-2.7 2.9-2.6l3.3.1c1.5.1 2.7 1.3 2.6 2.9-.1 1.5-1.4 2.7-2.9 2.6z" fill="#F33"/><path d="M97.938 69.4h-10.2c-1 0-1.8-.5-1.8-1.1V63c0-.6.8-1.1 1.8-1.1h10.1c1 0 1.8.5 1.8 1.1v5.3c0 .6-.7 1.1-1.7 1.1z" fill="#333"/><path d="M98.137 63h-10.6v1.4h10.6V63zM92.837 65.5h-5.3v3h5.3v-3z" fill="#BBE5FA"/><path d="M95.638 68.1h-.3c-1 0-1.9-.5-1.9-1.1 0-.6.8-1.1 1.9-1.1h.3c1 0 1.9.5 1.9 1.1 0 .6-.9 1.1-1.9 1.1z" fill="#F8BF15"/><path d="M96.239 74.7l5.6 16.3c.6 1.8 2.6 2.8 4.5 2.2 1.8-.6 2.8-2.6 2.2-4.5l-5.6-16.3c-.6-1.8-2.6-2.8-4.5-2.2-1.8.7-2.8 2.7-2.2 4.5z" fill="#F33"/><path d="M101.838 94.8l-.8-2.3c-.3-.9.2-1.9 1.1-2.2l5.8-2c.9-.3 1.9.2 2.2 1.1l.8 2.3-9.1 3.1z" fill="#F33"/><path d="M101.738 94.4c.4 1.1 1.6 1.7 2.7 1.3l5.2-1.8c1.1-.4 1.7-1.6 1.3-2.7-.4-1.1-1.6-1.7-2.7-1.3l-5.2 1.8c-1.1.5-1.7 1.6-1.3 2.7z" fill="#333"/><path d="M97.838 81.7c-.3-1.5.7-2.9 2.2-3.2l3.3-.6c1.5-.3 2.9.7 3.2 2.2.3 1.5-.7 2.9-2.2 3.2l-3.3.6c-1.5.3-3-.7-3.2-2.2z" fill="#F33"/><path d="M92.938 54.8c2.485 0 4.5-1.343 4.5-3s-2.015-3-4.5-3c-2.486 0-4.5 1.343-4.5 3s2.014 3 4.5 3z" fill="#8E24AA"/><path d="M86.184 47.24v5.5h15.1v-5.5h-15.1z" fill="#454B58"/><path opacity=".2" d="M95.838 47.2c-2.6 2-5.6 3.8-8.6 5.5h14v-5.5h-5.4z" fill="#454B58"/><path d="M93.338 49.8l-1.2-.6c.4-.7.4-1.4 0-2-.6-.9-2-.9-2.4-.9-.4 0-.8.1-1.2.1-.7.1-1.4.2-2.2.1-1.3 0-2.8-.8-3.1-2.3l1.3-.2c.1.8 1.1 1.2 1.9 1.3.6.1 1.2 0 1.9-.1.5-.1.9-.1 1.4-.1 1.6-.1 2.9.5 3.6 1.5.6.8.6 2.1 0 3.2z" fill="#009AE8"/><path d="M82.038 51.1c-.4 0-.9 0-1.3-.1-2.2-.3-3.9-2.1-3.9-3.4h.3c0 1.2 1.6 2.8 3.6 3 1.1.1 2.3 0 3.4 0 .4 0 .8-.1 1.2-.2.3-.1.6-.3.6-.5v-.1h.1c1.5-.4 3.3-.4 4.8.1l-.1.3c-1.4-.4-3.1-.5-4.5-.1-.1.3-.4.5-.8.6-.4.1-.8.2-1.2.2-.7.1-1.5.2-2.2.2z" fill="#F9C051"/><path d="M82.638 51.6c-.6 0-1.2 0-1.9-.1-.6-.1-2.4-.4-3-1.6l1.2-.6c.2.3.9.8 2 .9 2 .3 3.5.1 4.5-.4.8-.4 1.3-.6 2.4-.6 1.1-.1 2.3 0 3.3.4l-.6 1.1c-.8-.3-1.8-.4-2.8-.3-.9.1-1.2.2-1.8.5-.8.5-1.9.7-3.3.7z" fill="#E3326C"/><path d="M87.738 100.5l.6 7 24.2-2.1-.6-7-24.2 2.1z" fill="#D92626"/><path opacity=".2" d="M95.44 99.8l-.2 7.1-9.1.8-.6-7 9.9-.9z" fill="#333"/><path d="M109.338 97.2l.9 9.7 4.2-.4-.9-9.6-4.2.3z" fill="#333"/><path d="M111.738 97l.9 9.7-2.4.2c-1 .1-1.8-.6-1.9-1.6l-.5-6.2c-.1-1 .6-1.8 1.6-1.9l2.3-.2zM101.938 101.1l.3 3.3c.1 1.5-1 2.9-2.5 3-1.5.1-2.9-1-3-2.5l-.3-3.3c-.1-1.5 1-2.9 2.5-3 1.5-.1 2.8 1 3 2.5z" fill="#D92626"/><path d="M90.74 86.9l-1.2 7 23.899 4.2 1.2-7-23.9-4.2z" fill="#D92626"/><path opacity=".2" d="M98.438 88.2l-2.1 6.8-9-1.6 1.2-7 9.9 1.8z" fill="#333"/><path d="M112.538 89.4l-1.7 9.5 4.1.7 1.7-9.5-4.1-.7z" fill="#333"/><path d="M114.939 89.8l-1.7 9.5-2.4-.4c-1-.2-1.6-1.1-1.4-2l1.1-6.1c.2-1 1.1-1.6 2-1.4l2.4.4zM104.338 91.2l-.6 3.3c-.2 1.5-1.7 2.5-3.2 2.2-1.5-.3-2.5-1.7-2.2-3.2l.6-3.3c.3-1.5 1.7-2.5 3.2-2.2 1.5.3 2.5 1.7 2.2 3.2z" fill="#D92626"/><path d="M82.338 83.8l-4.2 23.5c-.2 1-1.1 1.6-2 1.4l-11.7-2.1c-1-.2-1.6-1.1-1.4-2l4.2-23.4c.2-1 1.1-1.6 2-1.4l11.7 1.9c.9.2 1.6 1.1 1.4 2.1z" fill="#AB47BC"/><path d="M95.84 86.1l-4.2 23.5c-.2 1-1.1 1.6-2 1.4l-20.4-3.6c-1-.2-1.6-1.1-1.4-2l4.2-23.4c.2-1 1.1-1.6 2-1.4l20.4 3.6c.9.1 1.5 1 1.4 1.9z" fill="#8E24AA"/><path d="M85.139 91.2l-1.8 10c-.2 1-1.1 1.6-2 1.4l-8.5-1.5c-1-.2-1.6-1.1-1.4-2l1.8-10c.2-1 1.1-1.6 2-1.4l8.5 1.5c1 .1 1.6 1 1.4 2z" fill="#333"/><path d="M75.038 89.2l-1.8 10.4 2.2.4 1.8-10.4-2.2-.4zM78.039 95.1l-.9 5.2 4.9.9.9-5.2-4.9-.9z" fill="#BBE5FA"/><path d="M82.738 93.1v.3c-.2 1-1.1 1.7-2.2 1.5-1-.2-1.7-1.2-1.5-2.2v-.3c.2-1 1.1-1.7 2.2-1.5 1 .2 1.7 1.2 1.5 2.2z" fill="#F8BF15"/></svg>