<svg xmlns="http://www.w3.org/2000/svg" viewBox="0 0 179.22 206.94" width="179.22" height="206.94"><defs><style>.cls-1{fill:none;stroke:#99eaff;stroke-linecap:round;stroke-miterlimit:10;stroke-width:10px;}</style></defs><title>Snowflake 3</title><g id="Layer_2" data-name="Layer 2"><g id="Layer_1-2" data-name="Layer 1"><line class="cls-1" x1="89.61" y1="152.29" x2="89.61" y2="54.61"/><line class="cls-1" x1="131.9" y1="127.87" x2="47.31" y2="79.03"/><line class="cls-1" x1="131.9" y1="79.03" x2="47.31" y2="127.87"/><polygon class="cls-1" points="110.75 42.4 110.75 17.98 89.61 5.77 68.46 17.98 68.46 42.4 89.61 54.61 110.75 42.4"/><polygon class="cls-1" points="131.9 127.87 131.9 79.03 89.61 54.61 47.31 79.03 47.31 127.87 89.61 152.29 131.9 127.87"/><polygon class="cls-1" points="110.75 164.54 110.75 188.96 89.61 201.17 68.46 188.96 68.46 164.54 89.61 152.33 110.75 164.54"/><polygon class="cls-1" points="47.3 54.62 26.15 42.41 5 54.62 5 79.04 26.15 91.25 47.3 79.04 47.3 54.62"/><polygon class="cls-1" points="153.07 115.69 174.22 127.9 174.22 152.32 153.07 164.53 131.92 152.32 131.92 127.9 153.07 115.69"/><polygon class="cls-1" points="26.15 115.69 5 127.9 5 152.32 26.15 164.53 47.3 152.32 47.3 127.9 26.15 115.69"/><polygon class="cls-1" points="131.92 54.62 153.07 42.41 174.22 54.62 174.22 79.04 153.07 91.25 131.92 79.04 131.92 54.62"/></g></g></svg>