<svg xmlns="http://www.w3.org/2000/svg" xmlns:xlink="http://www.w3.org/1999/xlink" width="1695.6" height="564.6" viewBox="820 -255.6 1695.6 564.6" enable-background="new 820 -255.6 1695.6 564.6"><path fill="#725D4C" d="M1218.3 171.3h13.8V226h-13.8z"/><path fill="#06703A" d="M1225.2 24.4l65.6 186.8H1166z"/><defs><path id="a" d="M1225.2 24.4l65.6 186.8H1166z"/></defs><clipPath id="b"><use xlink:href="#a" overflow="visible"/></clipPath><g clip-path="url(#b)" stroke="#07824A" stroke-width="8.571" stroke-miterlimit="10" fill="none"><path d="M1162 64.1l63.2 63.1 69.6-63.1"/><path d="M1162 106.1l63.2 63.1 69.6-63.1"/><path d="M1162 148.1l63.2 63.1 69.6-63.1"/><path d="M1162-61.8l63.2 63.1 69.6-63.1"/><path d="M1162-19.8l63.2 63.1 69.6-63.1"/><path d="M1162 22.1l63.2 63.2 69.6-63.2"/></g><path opacity=".14" enable-background="new" d="M1232.1 216.7h-13.8v9.3l13.8-6.2z"/><g fill="#fff" stroke="#fff" stroke-width="1.428" stroke-linejoin="round" stroke-miterlimit="10"><path d="M1211.5 172c0 5.7 4.6 10.3 10.3 10.3 5.7 0 10.3-4.6 10.3-10.3h-20.6z"/><path d="M1191 172c0 5.7 4.6 10.3 10.3 10.3 5.7 0 10.3-4.6 10.3-10.3H1191z"/><path d="M1170.4 172c0 5.7 4.6 10.3 10.3 10.3 5.7 0 10.3-4.6 10.3-10.3h-20.6z"/><path d="M1253.1 139.7c0 5.7 4.6 10.3 10.3 10.3 5.7 0 10.3-4.6 10.3-10.3h-20.6z"/><path d="M1232.5 139.7c0 5.7 4.6 10.3 10.3 10.3 5.7 0 10.3-4.6 10.3-10.3h-20.6z"/><path d="M1212 139.7c0 5.7 4.6 10.3 10.3 10.3 5.7 0 10.3-4.6 10.3-10.3H1212z"/><path d="M1211.5 97.7c0 5.7 4.6 10.3 10.3 10.3 5.7 0 10.3-4.6 10.3-10.3h-20.6z"/><path d="M1191 97.7c0 5.7 4.6 10.3 10.3 10.3 5.7 0 10.3-4.6 10.3-10.3H1191z"/><path d="M1226 65.7c0 5.7 4.6 10.3 10.3 10.3 5.7 0 10.3-4.6 10.3-10.3H1226z"/></g><path fill="#725D4C" d="M2109.3 177.6h12.2V226h-12.2z"/><path fill="#06703A" d="M2115.4 44.5l58.1 165.3h-110.4z"/><defs><path id="c" d="M2115.4 44.5l58.1 165.3h-110.4z"/></defs><clipPath id="d"><use xlink:href="#c" overflow="visible"/></clipPath><g clip-path="url(#d)" stroke="#07824A" stroke-width="6.522" stroke-miterlimit="10" fill="none"><path d="M2059.6 79.7l55.8 55.8 61.6-55.8"/><path d="M2059.6 116.8l55.8 55.8 61.6-55.8"/><path d="M2059.6 153.9l55.8 55.9 61.6-55.9"/><path d="M2059.6-31.7l55.8 55.8 61.6-55.8"/><path d="M2059.6 5.4l55.8 55.9L2177 5.4"/><path d="M2059.6 42.6l55.8 55.8 61.6-55.8"/></g><path opacity=".14" enable-background="new" d="M2121.6 209.8h-12.3v8.2l12.3-5.5z"/><g fill="#fff" stroke="#fff" stroke-width="1.087" stroke-linejoin="round" stroke-miterlimit="10"><path d="M2103.4 175.1c0 5 4.1 9.1 9.1 9.1s9.1-4.1 9.1-9.1h-18.2z"/><path d="M2085.2 175.1c0 5 4.1 9.1 9.1 9.1s9.1-4.1 9.1-9.1h-18.2z"/><path d="M2067 175.1c0 5 4.1 9.1 9.1 9.1s9.1-4.1 9.1-9.1H2067z"/><path d="M2140.1 146.6c0 5 4.1 9.1 9.1 9.1s9.1-4.1 9.1-9.1h-18.2z"/><path d="M2121.9 146.6c0 5 4.1 9.1 9.1 9.1s9.1-4.1 9.1-9.1h-18.2z"/><path d="M2103.8 146.6c0 5 4.1 9.1 9.1 9.1s9.1-4.1 9.1-9.1h-18.2z"/><path d="M2103.4 109.3c0 5 4.1 9.1 9.1 9.1s9.1-4.1 9.1-9.1h-18.2z"/><path d="M2085.2 109.3c0 5 4.1 9.1 9.1 9.1s9.1-4.1 9.1-9.1h-18.2z"/></g><path fill="#725D4C" d="M2072.6 187.8h8.9V226h-8.9z"/><path fill="#019049" d="M2077 90.8l38 119.9h-76z"/><defs><path id="e" d="M2077 90.8l38 119.9h-76z"/></defs><clipPath id="f"><use xlink:href="#e" overflow="visible"/></clipPath><g clip-path="url(#f)" stroke="#07A860" stroke-width="6.094" stroke-miterlimit="10" fill="none"><path d="M2036.5 116.3l40.5 40.5 40.5-40.5"/><path d="M2036.5 143.2l40.5 40.6 40.5-40.6"/><path d="M2036.5 170.2l40.5 40.5 40.5-40.5"/><path d="M2036.5 35.4L2077 76l40.5-40.6"/><path d="M2036.5 62.4l40.5 40.5 40.5-40.5"/><path d="M2036.5 89.3l40.5 40.6 40.5-40.6"/></g><path opacity=".14" enable-background="new" d="M2077 90.8l21.9 119.9h16.1z"/><path fill="#fff" stroke="#fff" stroke-width="1.016" stroke-linejoin="round" stroke-miterlimit="10" d="M2068.3 188.8c0 3.6 3 6.6 6.6 6.6 3.6 0 6.6-3 6.6-6.6h-13.2z"/><path fill="#fff" stroke="#fff" stroke-width="1.016" stroke-linejoin="round" stroke-miterlimit="10" d="M2094.6 169.5c0 3.6 3 6.6 6.6 6.6s6.6-3 6.6-6.6h-13.2z"/><path fill="#fff" stroke="#fff" stroke-width="1.016" stroke-linejoin="round" stroke-miterlimit="10" d="M2081.5 169.5c0 3.6 3 6.6 6.6 6.6 3.6 0 6.6-3 6.6-6.6h-13.2z"/><path fill="#fff" stroke="#fff" stroke-width="1.016" stroke-linejoin="round" stroke-miterlimit="10" d="M2068.3 169.5c0 3.6 3 6.6 6.6 6.6 3.6 0 6.6-3 6.6-6.6h-13.2z"/><path fill="#fff" stroke="#fff" stroke-width="1.016" stroke-linejoin="round" stroke-miterlimit="10" d="M2067.9 148.7c0 3.6 3 6.6 6.6 6.6s6.6-3 6.6-6.6h-13.2z"/><path fill="#fff" stroke="#fff" stroke-width="1.016" stroke-linejoin="round" stroke-miterlimit="10" d="M2081.1 131.2c0 3.6 3 6.6 6.6 6.6s6.6-3 6.6-6.6h-13.2z"/><path fill="#fff" stroke="#fff" stroke-width="1.016" stroke-linejoin="round" stroke-miterlimit="10" d="M2067.9 131.2c0 3.6 3 6.6 6.6 6.6s6.6-3 6.6-6.6h-13.2z"/><path fill="#fff" stroke="#fff" stroke-width="1.016" stroke-linejoin="round" stroke-miterlimit="10" d="M2064.9 114c0 3.6 3 6.6 6.6 6.6s6.6-3 6.6-6.6h-13.2z"/><path fill="#725D4C" d="M1263.6 180.5h10.6V226h-10.6z"/><path fill="#019049" d="M1268.9 68.4l45.3 143h-90.6z"/><defs><path id="g" d="M1268.9 68.4l45.3 143h-90.6z"/></defs><clipPath id="h"><use xlink:href="#g" overflow="visible"/></clipPath><g clip-path="url(#h)" stroke="#07A860" stroke-width="4.683" stroke-miterlimit="10" fill="none"><path d="M1220.6 98.9l48.3 48.3 48.3-48.3"/><path d="M1220.6 131l48.3 48.3 48.3-48.3"/><path d="M1220.6 163.1l48.3 48.3 48.3-48.3"/><path d="M1220.6 2.5l48.3 48.3 48.3-48.3"/><path d="M1220.6 34.6l48.3 48.3 48.3-48.3"/><path d="M1220.6 66.7l48.3 48.3 48.3-48.3"/></g><path opacity=".14" enable-background="new" d="M1268.9 68.4l26 143h19.3z"/><path opacity=".14" enable-background="new" d="M1274.2 211.4h-10.6v7.1l10.6-4.7z"/><g fill="#fff" stroke="#fff" stroke-width=".78" stroke-linejoin="round" stroke-miterlimit="10"><path d="M1258.5 185.4c0 4.3 3.5 7.9 7.9 7.9 4.3 0 7.9-3.5 7.9-7.9h-15.8z"/><path d="M1242.7 185.4c0 4.3 3.5 7.9 7.9 7.9 4.3 0 7.9-3.5 7.9-7.9h-15.8z"/><path d="M1227 185.4c0 4.3 3.5 7.9 7.9 7.9 4.3 0 7.9-3.5 7.9-7.9H1227z"/><path d="M1289.9 162.3c0 4.3 3.5 7.9 7.9 7.9 4.3 0 7.9-3.5 7.9-7.9h-15.8z"/><path d="M1274.2 162.3c0 4.3 3.5 7.9 7.9 7.9s7.9-3.5 7.9-7.9h-15.8z"/><path d="M1258.5 162.3c0 4.3 3.5 7.9 7.9 7.9 4.3 0 7.9-3.5 7.9-7.9h-15.8z"/><path d="M1258 137.5c0 4.3 3.5 7.9 7.9 7.9 4.3 0 7.9-3.5 7.9-7.9H1258z"/><path d="M1242.3 137.5c0 4.3 3.5 7.9 7.9 7.9 4.3 0 7.9-3.5 7.9-7.9h-15.8z"/><path d="M1273.8 116.6c0 4.3 3.5 7.9 7.9 7.9 4.3 0 7.9-3.5 7.9-7.9h-15.8z"/><path d="M1258.1 116.6c0 4.3 3.5 7.9 7.9 7.9 4.3 0 7.9-3.5 7.9-7.9h-15.8z"/><path d="M1254.5 96.2c0 4.3 3.5 7.9 7.9 7.9 4.3 0 7.9-3.5 7.9-7.9h-15.8z"/></g><path fill="#725D4C" d="M2432.7 151.4h17.3V226h-17.3z"/><path opacity=".14" enable-background="new" d="M2450 203.5h-17.3v11.7l17.3-7.9z"/><path fill="#59493C" d="M2400.2 148.6h18V226h-18z"/><path fill="#03542C" d="M2409.2-53l77 243.3h-154.1z"/><path opacity=".14" enable-background="new" d="M2418.2 190.3h-18v8.8l18-5.9z"/><path fill="#59493C" d="M867 172.5h12.4V226H867z"/><path fill="#03542C" d="M873.3 28.3l53.2 168.2H820z"/><path opacity=".14" enable-background="new" d="M879.5 196.5H867v6.1l12.5-4.1z"/><path fill="#725D4C" d="M900.3 158.2H916V226h-15.7z"/><path fill="#019049" d="M908.2-13.5l67.5 213.3h-135z"/><defs><path id="i" d="M908.2-13.5l67.5 213.3h-135z"/></defs><clipPath id="j"><use xlink:href="#i" overflow="visible"/></clipPath><g clip-path="url(#j)" stroke="#07A860" stroke-width="4.542" stroke-miterlimit="10" fill="none"><path d="M836.2 31.9l72 72 72-72"/><path d="M836.2 79.8l72 72 72-72"/><path d="M836.2 127.7l72 72.1 72-72.1"/><path d="M836.2-111.8l72 72 72-72"/><path d="M836.2-63.9l72 72 72-72"/><path d="M836.2-16l72 72 72-72"/></g><path opacity=".14" enable-background="new" d="M908.2-13.5L947 199.8h28.7z"/><path opacity=".14" enable-background="new" d="M916.1 199.8h-15.8v10.6l15.8-7.2z"/><g fill="#fff" stroke="#fff" stroke-width=".757" stroke-linejoin="round" stroke-miterlimit="10"><path d="M892.6 160.9c0 6.5 5.2 11.7 11.7 11.7s11.7-5.2 11.7-11.7h-23.4z"/><path d="M869.2 160.9c0 6.5 5.2 11.7 11.7 11.7s11.7-5.2 11.7-11.7h-23.4z"/><path d="M845.7 160.9c0 6.5 5.2 11.7 11.7 11.7s11.7-5.2 11.7-11.7h-23.4z"/><path d="M939.5 126.4c0 6.5 5.2 11.7 11.7 11.7s11.7-5.2 11.7-11.7h-23.4z"/><path d="M916.1 126.4c0 6.5 5.2 11.7 11.7 11.7s11.7-5.2 11.7-11.7h-23.4z"/><path d="M892.6 126.4c0 6.5 5.3 11.7 11.7 11.7 6.5 0 11.7-5.2 11.7-11.7h-23.4z"/><path d="M886.7 92.1c0 6.5 5.2 11.7 11.7 11.7s11.7-5.2 11.7-11.7h-23.4z"/><path d="M863.3 92.1c0 6.5 5.2 11.7 11.7 11.7s11.7-5.2 11.7-11.7h-23.4z"/><path d="M915.5 58.3c0 6.5 5.2 11.7 11.7 11.7s11.7-5.2 11.7-11.7h-23.4z"/><path d="M892 58.3c0 6.5 5.2 11.7 11.7 11.7s11.7-5.2 11.7-11.7H892z"/><path d="M886.7 27.9c0 6.5 5.2 11.7 11.7 11.7s11.7-5.2 11.7-11.7h-23.4z"/></g><defs><path id="k" d="M2441.3-32l74.3 234.5h-148.5z"/></defs><clipPath id="l"><use xlink:href="#k" overflow="visible"/></clipPath><path clip-path="url(#l)" fill="#019049" d="M2441.3-32l74.3 234.5h-148.5z"/><defs><path id="m" d="M2441.3-32l74.3 234.5h-148.5z"/></defs><clipPath id="n"><use xlink:href="#m" overflow="visible"/></clipPath><g clip-path="url(#n)" stroke="#07A860" stroke-width="5.404" stroke-miterlimit="10" fill="none"><path d="M2362.1 17.9l79.2 79.2 79.2-79.2"/><path d="M2362.1 123.3l79.2 79.2 79.2-79.2"/><path d="M2362.1 70.6l79.2 79.2 79.2-79.2"/></g><defs><path id="o" d="M2441.3-32l74.3 234.5h-148.5z"/></defs><clipPath id="p"><use xlink:href="#o" overflow="visible"/></clipPath><path clip-path="url(#p)" stroke="#07A860" stroke-width="5.404" stroke-miterlimit="10" fill="none" d="M2362.1-87.5l79.2 79.2 79.2-79.2"/><defs><path id="q" d="M2441.3-32l74.3 234.5h-148.5z"/></defs><clipPath id="r"><use xlink:href="#q" overflow="visible"/></clipPath><path clip-path="url(#r)" stroke="#07A860" stroke-width="5.404" stroke-miterlimit="10" fill="none" d="M2362.1-34.8l79.2 79.2 79.2-79.2"/><path fill="none" d="M2441.3-31l74.3 234.5h-148.5z"/><path opacity=".14" enable-background="new" d="M2441.3-31l42.7 234.5h31.6z"/><g fill="#fff" stroke="#fff" stroke-width=".901" stroke-linejoin="round" stroke-miterlimit="10"><path d="M2424.2 160.8c0 7.1 5.8 12.9 12.9 12.9 7.1 0 12.9-5.8 12.9-12.9h-25.8z"/><path d="M2398.4 160.8c0 7.1 5.8 12.9 12.9 12.9s12.9-5.8 12.9-12.9h-25.8z"/><path d="M2372.6 160.8c0 7.1 5.8 12.9 12.9 12.9s12.9-5.8 12.9-12.9h-25.8z"/><path d="M2475.8 122.9c0 7.1 5.8 12.9 12.9 12.9 7.1 0 12.9-5.8 12.9-12.9h-25.8z"/><path d="M2450 122.9c0 7.1 5.8 12.9 12.9 12.9 7.1 0 12.9-5.8 12.9-12.9H2450z"/><path d="M2424.2 122.9c0 7.1 5.8 12.9 12.9 12.9 7.1 0 12.9-5.8 12.9-12.9h-25.8z"/><path d="M2417.7 85.2c0 7.1 5.8 12.9 12.9 12.9 7.1 0 12.9-5.8 12.9-12.9h-25.8z"/><path d="M2391.9 85.2c0 7.1 5.8 12.9 12.9 12.9s12.9-5.8 12.9-12.9h-25.8z"/><path d="M2449.3 48c0 7.1 5.8 12.9 12.9 12.9 7.1 0 12.9-5.8 12.9-12.9h-25.8z"/><path d="M2423.5 48c0 7.1 5.8 12.9 12.9 12.9 7.1 0 12.9-5.8 12.9-12.9h-25.8z"/><path d="M2417.7 14.5c0 7.1 5.8 12.9 12.9 12.9 7.1 0 12.9-5.8 12.9-12.9h-25.8z"/></g><path stroke="#E7711B" stroke-width=".757" stroke-miterlimit="10" d="M885 122.9" fill="none"/><path stroke="#E7711B" stroke-width=".901" stroke-miterlimit="10" d="M1126.3 132.3" fill="none"/><path stroke="#E7711B" stroke-width=".901" stroke-miterlimit="10" d="M1180.4 132.2" fill="none"/><path stroke="#E7711B" stroke-width=".757" stroke-miterlimit="10" d="M885 122.9" fill="none"/><path opacity=".3" fill="#fff" enable-background="new" d="M2120.3-224h2.1v-6.3c0-9.3 7.5-16.8 16.8-16.8 2.9 0 5.5.7 7.6 2.1 2.5-6.1 8.5-10.5 15.6-10.5 9.3 0 16.8 7.5 16.8 16.8v6.1c7.3 2.3 12.6 9.1 12.6 17.1 0 3.9-1.3 7.6-3.4 10.5h-79.1c-1.1-1.9-1.7-4-1.7-6.3 0-7.1 5.7-12.7 12.7-12.7z"/><path opacity=".3" fill="#fff" enable-background="new" d="M885.2-218.1h1.2v-3.7c0-5.4 4.4-9.8 9.8-9.8 1.7 0 3.2.4 4.4 1.2 1.5-3.6 5-6.1 9.1-6.1 5.4 0 9.8 4.4 9.8 9.8v3.5c4.2 1.3 7.4 5.3 7.4 10 0 2.3-.7 4.4-2 6.1h-46.1c-.6-1.1-1-2.3-1-3.7 0-4 3.3-7.3 7.4-7.3z"/><path opacity=".3" fill="#fff" enable-background="new" d="M1432.3-224.1h2.1v-6.2c0-9.1 7.4-16.5 16.5-16.5 2.9 0 5.4.7 7.4 2 2.5-6 8.4-10.3 15.3-10.3 9.1 0 16.5 7.4 16.5 16.5v6c7.1 2.2 12.4 8.9 12.4 16.8 0 3.9-1.2 7.4-3.4 10.3h-77.6c-1.1-1.8-1.7-3.9-1.7-6.2.1-6.9 5.6-12.4 12.5-12.4z"/><path opacity=".3" fill="#fff" enable-background="new" d="M1025-147.8h1v-2.4c0-3.5 3.7-6.3 8.2-6.3 1.4 0 2.7.3 3.7.8 1.2-2.3 4.2-3.9 7.6-3.9 4.6 0 8.2 2.8 8.2 6.3v2.3c3.6.9 6.2 3.4 6.2 6.4 0 1.5-.6 2.9-1.7 4h-38.7c-.5-.7-.8-1.5-.8-2.4.2-2.7 2.9-4.8 6.3-4.8z"/><path opacity=".3" fill="#fff" enable-background="new" d="M2304.1-130h1.6v-3.7c0-5.4 5.7-9.8 12.7-9.8 2.2 0 4.1.4 5.7 1.2 1.9-3.6 6.4-6.1 11.7-6.1 7 0 12.7 4.4 12.7 9.8v3.5c5.5 1.3 9.5 5.3 9.5 9.9 0 2.3-1 4.4-2.6 6.1h-59.6c-.8-1.1-1.3-2.3-1.3-3.7.1-4 4.4-7.2 9.6-7.2z"/></svg>