<svg xmlns="http://www.w3.org/2000/svg" xmlns:xlink="http://www.w3.org/1999/xlink" width="490.5" height="328.1" viewBox="0 0 490.5 328.1"><path fill="#764C2E" d="M186.1 74.3c.5-.4.9-.7 1.5-1 4.8-2.5 10.8-4.2 16.2-2.4 4.6 1.5 8.4 3.8 11.3 7.5 3.7-2.8 6.5-6.9 7.7-11.9 2.5-11.1-4.4-22.2-15.5-24.7s-22.2 4.4-24.7 15.5c-1.5 6.2 0 12.3 3.5 17z"/><path fill="#FFE18C" d="M185.3 55.1l-4.2-9.7s-8.4 20.6 4 20.7l.2-11z"/><path fill="#AB47BC" d="M163.2 127l-21.3 24.3 7.5 6.5 21.2-24.3"/><path fill="#802B83" d="M182.5 136.2l-5.3 31.8-9.7-1.6 5.3-31.8"/><path fill="#AB47BC" d="M167.4 117.3l-7.7 16.3 8.9 4.3 7.7-16.4"/><path fill="#802B83" d="M182.5 136.1l-2.8 16.9-9.7-1.6 2.8-16.9"/><path fill="#AB47BC" d="M187.7 126.3l11.2-23.6c4.2-8.9 7.2-16.5-.4-21.1-.5-.3-1-.6-1.5-.8-.5-.2-1-.5-1.6-.7-8.4-3-12.3 4.1-16.6 13l-11.2 23.6c-4.2 8.9-7.2 16.5.4 21.1.5.3 1 .6 1.5.8.5.2 1 .5 1.6.7 8.4 3 12.3-4.1 16.6-13z"/><path fill="#802B83" d="M171.1 139.3c3.3 1.2 6.7 1.4 10 .8l6.6-13.9c-4.3 9-8.2 16.1-16.6 13.1z"/><path fill="#802B83" d="M198.5 81.6c7.6 4.6 4.6 12.2.4 21.1l-11.2 23.6-6.6 13.9c5.8-1.1 11-4.8 13.7-10.5L206 106c4.2-8.9.8-19.5-7.5-24.4z"/><path fill="#fff" d="M196.334 81.71l.452.214-21.606 45.757-.453-.212z"/><path fill="#424242" d="M182.8 84c-.8 0-1.6-.3-2.3-.8-8.6-7.4-9.7-14.7-9.2-19.5.8-6.9 5.6-13.3 13.3-17.3 1.7-.9 3.8-.3 4.7 1.4.9 1.7.3 3.8-1.4 4.7-5.6 3-9.1 7.3-9.7 12-.5 4.5 1.9 9.2 6.8 13.5 1.5 1.3 1.6 3.5.4 4.9-.7.7-1.6 1.1-2.6 1.1z"/><path fill="#212121" d="M226.6 106.5c-10.3 0-18.5-5.6-23.1-13-1-1.6-.5-3.8 1.1-4.8s3.8-.5 4.8 1.1c7.1 11.4 20.1 11.4 29.9 6.3 1.7-.9 3.8-.2 4.7 1.5.9 1.7.2 3.8-1.5 4.7-5.7 3-11.1 4.2-15.9 4.2z"/><path fill="#fff" d="M196.334 81.71l.452.214-21.606 45.757-.453-.212z"/><path fill="#332E2E" d="M171.317 108.994l20.42 9.68-4.068 8.583-20.422-9.68z"/><path fill="#F9CE1D" d="M177.282 111.094l8.946 4.24-4.626 9.76-8.946-4.24z"/><path fill="#AB47BC" d="M170.6 110.6l8.3-17.4c4.2-8.9 8.2-16 16.6-13-9.1-3.4-19.4.7-23.7 9.7l-11.2 23.6c-2.7 5.7-2.3 12.1.5 17.2l6.6-13.9 2.9-6.2z"/><path fill="#E91C24" d="M171.7 89.8l-7.5 15.8-6.5 13.8 1.1.5 6 2.9 6.5-13.8 7.5-15.8c4.2-8.9 8.2-16 16.6-13-9.1-3.4-19.4.6-23.7 9.6z"/><path fill="#fff" d="M165.512 172.53l26.238 4.372-.443 2.663-26.24-4.373z"/><path fill="#eee" d="M183.5 170.1c-4.2-.7-5.3-3.7-5.3-3.7l-10.8-1.8-1.3 8.1 10.8 1.8v-.1l14.3 2.4.6-3.4s-4-2.6-8.3-3.3z"/><path fill="#fff" d="M144.01 165.256l-20.04-17.492 1.776-2.034 20.04 17.492z"/><path fill="#eee" d="M136.3 147.7c3.2 2.8 6.2 1.7 6.2 1.7l8.3 7.2-5.4 6.2-8.3-7.2v-.1l-11-9.6 2.3-2.6c.1.1 4.6 1.6 7.9 4.4z"/><path fill="#C62828" d="M206 106c4.2-8.9.9-19.5-7.5-24.4 7.6 4.6 4.6 12.2.4 21.1l-14 29.6 7.1 3.4 6.5-13.8L206 106z"/><path fill="#FFF200" d="M189.3 104.9h-.5c-.2 0-.3-.1-.4-.1-.1.1-.3.1-.4.1-.3 0-.6-.1-.8-.2-.1 0-.3-.1-.4-.2h-.4c-.1-.1-.3-.1-.4-.2-.1-.1-.3-.1-.4-.2l-.3-.3c-.1 0-.3 0-.4-.1-.2-.2-.5-.3-.7-.5-.1-.1-.2-.2-.2-.4-.1 0-.3-.1-.4-.2-.2-.2-.4-.4-.5-.6-.1-.1-.1-.3-.2-.4l-.3-.3c-.1-.2-.3-.5-.4-.7-.1-.1-.1-.3-.1-.4l-.3-.3c-.1-.3-.2-.5-.3-.8v-.4c-.1-.1-.2-.2-.2-.4-.1-.3-.1-.5-.2-.8v-.4c-.1-.1-.1-.2-.2-.4 0-.3-.1-.5-.1-.8 0-.1 0-.3.1-.4-.1-.1-.1-.3-.1-.4v-.8c0-.1.1-.3.1-.4-.1-.1-.1-.3-.1-.4 0-.3 0-.5.1-.8 0-.1.1-.3.2-.4-.1-.1-.1-.3 0-.4 0-.3.1-.5.1-.8 0-.1.1-.3.2-.4v-.4c.1-.3.1-.5.2-.8 0-.1.1-.3.2-.3v-.4c.1-.3.2-.5.3-.8.1-.1.1-.2.2-.3 0-.1 0-.3.1-.4.1-.2.2-.5.3-.7l.3-.3c0-.1 0-.3.1-.4.1-.2.2-.5.4-.7l.3-.3c0-.1 0-.3.1-.4.1-.2.3-.5.4-.7l.3-.3c0-.1.1-.3.1-.4.2-.2.3-.4.5-.6.1-.1.2-.2.3-.2 0-.1.1-.3.2-.4.2-.2.4-.4.5-.6.1-.1.2-.2.4-.2 0-.1.1-.3.2-.4.2-.2.4-.4.6-.5.1-.1.2-.2.4-.2 0-.1.1-.2.2-.3.2-.2.4-.3.6-.5.1-.1.3-.1.4-.1l.3-.3c.2-.1.5-.3.7-.4.1-.1.3-.1.4-.1l.3-.3c.2-.1.5-.2.8-.3.1-.1.3-.1.4 0 .1-.1.2-.2.4-.2.3-.1.5-.2.8-.2h.4c.1-.1.2-.2.4-.2.3 0 .6-.1.8-.1.2 0 .3 0 .4.1.1-.1.3-.1.4-.1.3 0 .6 0 .8.1.2 0 .3.1.4.2.1 0 .3-.1.4 0 .3.1.5.2.8.3.1.1.3.2.3.3.1 0 .3 0 .4.1.3.1.5.3.7.4l.3.3c.1 0 .3.1.4.2l.6.6c.1.1.2.2.2.4.1 0 .3.1.3.3.2.2.3.5.5.7.1.1.1.3.1.4l.3.3c.1.2.2.5.3.8.1.1.1.3 0 .4.1.1.2.2.2.3.1.3.2.5.2.8v.4c.1.1.2.2.2.4 0 .3.1.5.1.8 0 .1 0 .3-.1.4.1.1.1.2.1.4v.8c0 .1 0 .3-.1.4.1.1.1.3.1.4v.8c0 .1-.1.3-.1.4.1.1.1.3.1.4 0 .3-.1.5-.1.8 0 .1-.1.3-.2.4 0 .1.1.3 0 .4-.1.3-.1.5-.2.8 0 .1-.1.3-.2.4v.4c-.1.3-.2.5-.2.8 0 .1-.1.3-.2.3v.4c-.1.2-.2.5-.3.7-.1.1-.1.2-.3.3 0 .1 0 .3-.1.4v.1c-.1.2-.2.5-.3.7l-.3.3c0 .1 0 .3-.1.4-.1.2-.3.5-.4.7l-.3.3c0 .1 0 .3-.1.4-.1.2-.3.4-.5.7l-.3.3c0 .1-.1.3-.2.4-.2.2-.3.4-.5.6-.1.1-.2.2-.3.2 0 .1-.1.3-.2.4l-.6.6c-.1.1-.2.2-.4.2 0 .1-.1.3-.2.3-.2.2-.4.3-.6.5-.1.1-.2.1-.4.2-.1.1-.1.2-.3.3-.2.2-.4.3-.7.4-.1.1-.3.1-.4.1l-.3.3c-.2.1-.5.3-.7.4-.1.1-.3.1-.4.1l-.3.3c-.3.1-.5.2-.8.3h-.4c-.1.1-.2.2-.4.2-.3.1-.5.1-.8.1-.2 0-.3 0-.4-.1-.1.1-.3.1-.4.1.3-.5.2-.5.1-.5zm.3-1.5c.1 0 .2 0 .3.1.1-.1.2-.1.3-.1.2 0 .5-.1.7-.1h.4c.1-.1.2-.2.3-.2.2-.1.4-.1.7-.2.1 0 .2-.1.4 0 .1-.1.2-.2.3-.2l.6-.3c.1-.1.2-.1.4-.1.1-.1.1-.2.3-.3.2-.1.4-.3.6-.4.1-.1.2-.1.4-.1 0-.1.1-.2.2-.3.2-.1.4-.3.6-.5.1-.1.2-.1.3-.2 0-.1.1-.2.2-.3l.5-.5c.1-.1.2-.2.3-.2 0-.1.1-.2.2-.3.2-.2.3-.4.5-.6.1-.1.2-.2.3-.2 0-.1.1-.2.1-.4.1-.2.3-.4.4-.6l.3-.3c0-.1 0-.3.1-.4.1-.2.3-.4.4-.6l.3-.3c0-.1 0-.3.1-.4.1-.2.2-.4.3-.7l.3-.3c0-.1 0-.3.1-.4.1-.2.2-.5.3-.7 0-.1.1-.2.2-.3v-.4c.1-.2.2-.5.2-.7 0-.1.1-.2.2-.3v-.4c.1-.2.1-.5.2-.7 0-.1.1-.2.2-.3 0-.1-.1-.2 0-.4 0-.2.1-.5.1-.7 0-.1.1-.3.1-.4-.1-.1-.1-.2-.1-.4v-.7c0-.1 0-.3.1-.4-.1-.1-.1-.2-.1-.4v-.7c0-.1 0-.3.1-.4-.1-.1-.1-.2-.1-.4s-.1-.5-.1-.7v-.4c-.1-.1-.1-.2-.2-.3-.1-.2-.1-.5-.2-.7v-.4c-.1-.1-.2-.2-.2-.3l-.3-.6c-.1-.1-.1-.2-.1-.4-.1-.1-.2-.1-.3-.3-.1-.2-.3-.4-.4-.6-.1-.1-.1-.2-.1-.3-.1 0-.2-.1-.3-.2l-.5-.5c-.1-.1-.2-.2-.2-.3-.1 0-.2-.1-.3-.1-.2-.1-.4-.2-.6-.4-.1-.1-.2-.1-.3-.2h-.4c-.2-.1-.4-.2-.6-.2-.1 0-.2-.1-.3-.2h-.4c-.2 0-.5-.1-.7-.1-.1 0-.2 0-.3-.1-.1.1-.2.1-.3.1-.2 0-.5 0-.7.1h-.4c-.1.1-.2.1-.3.2-.2.1-.5.1-.7.2h-.4c-.1.1-.2.2-.3.2-.2.1-.4.2-.7.3-.1.1-.2.1-.4.1l-.3.3c-.2.1-.4.2-.6.4-.1.1-.2.1-.4.1-.1.1-.1.2-.2.3-.2.1-.4.3-.6.4-.1.1-.2.1-.3.2 0 .1-.1.2-.2.3-.2.2-.4.3-.5.5-.1.1-.2.2-.3.2 0 .1-.1.2-.2.3-.2.2-.3.4-.5.5-.1.1-.2.2-.3.2 0 .1-.1.2-.2.3-.2.2-.3.4-.4.6-.1.1-.2.2-.3.2 0 .1-.1.2-.1.4-.1.2-.3.4-.4.6l-.3.3c0 .1 0 .3-.1.4-.1.2-.2.4-.4.7l-.3.3c0 .1 0 .3-.1.4-.1.2-.2.4-.3.7-.1.1-.1.2-.2.3v.4c-.1.2-.2.5-.3.7 0 .1-.1.2-.2.3v.4c-.1.2-.1.5-.2.7 0 .1-.1.2-.2.3v.4c-.1.2-.1.5-.1.7 0 .1-.1.3-.2.3 0 .1.1.2 0 .4 0 .2-.1.5-.1.7 0 .1-.1.3-.1.4.1.1.1.2.1.4v.8c0 .1 0 .3-.1.4.1.1.1.2.1.4s0 .5.1.7v.4c.1.1.1.2.2.3 0 .2.1.5.2.7v.4c.1.1.2.2.2.3.1.2.2.5.2.7 0 .1.1.2.1.4.1.1.2.2.2.3l.3.6c.1.1.1.2.1.3.1.1.2.1.3.2.1.2.3.4.4.5.1.1.1.2.2.3.1 0 .2.1.3.2.2.2.4.3.5.4.1.1.2.2.2.3.1 0 .2 0 .3.1.1.1.2.1.3.1.1.1.2.1.3.1.1 0 .2.1.3.2h.4c.2.1.4.1.7.1.1 0 .2.1.3.1.1 0 .2-.1.4-.1h.7z"/><path fill="#FFF200" d="M191.6 97.4c-.8 0-1.6-.2-2.2-.5-1.7-.8-2.9-2.5-3.3-4.8-.4-2.2.1-4.8 1.2-7.1 1.8-3.9 5.2-6.5 8.3-6.5.8 0 1.6.2 2.2.5 3.5 1.7 4.4 7 2.1 12-1.8 3.8-5.2 6.4-8.3 6.4zm4-17.9c-2.8 0-5.7 2.4-7.4 5.9-1 2.2-1.4 4.5-1.1 6.5.3 2 1.3 3.4 2.7 4.1.6.3 1.2.4 1.8.4 2.8 0 5.7-2.4 7.4-5.9 2.1-4.4 1.4-9.2-1.6-10.6-.6-.3-1.2-.4-1.8-.4z"/><path fill="#802B83" d="M227.2 49.5s-21.3-30.9-33.6-40.7c0 0 7.1 23.3-3 30.8l36.6 9.9z"/><path fill="#AB47BC" d="M215.7 46.8s-9.7-28.3-22.1-38c0 0 7.1 23.3-3 30.8l25.1 7.2z"/><path fill="#FFE18C" d="M221.1 66.1c-2.3 10.2-12.5 16.6-22.7 14.3-10.2-2.3-16.6-12.5-14.3-22.7 2.3-10.2 12.5-16.6 22.7-14.3 10.2 2.4 16.6 12.5 14.3 22.7z"/><path fill="#FFE18C" d="M202.6 67.9l-2.7-.6.3-4.1 3.9.9z"/><path fill="#332E2E" d="M214.2 61.8c-.4 1.8-2.2 3-4.1 2.5-1.8-.4-3-2.2-2.5-4.1.4-1.8 2.2-3 4.1-2.5 1.8.4 2.9 2.3 2.5 4.1z"/><path fill="#332E2E" d="M199.1 58.3c-.4 1.8-2.2 3-4.1 2.5-1.8-.4-3-2.2-2.5-4.1.4-1.8 2.2-3 4.1-2.5 1.8.5 2.9 2.3 2.5 4.1z"/><path fill="#fff" d="M226.7 53.6c-.3 1.4-1.7 2.2-3 1.9L187 47.1c-1.4-.3-2.2-1.7-1.9-3l1-4.5c.3-1.4 1.7-2.2 3-1.9l36.7 8.4c1.4.3 2.2 1.7 1.9 3l-1 4.5z"/><path fill="#FFE18C" d="M220.3 63.1l8-6.9s-1.4 22.2-12.6 16.9l4.6-10z"/><path fill="#333" d="M188.8 53.5c-1 4.4 1.2 8 4.8 8.8s7.2-1.5 8.2-5.9l-13-2.9z"/><path fill="#383838" d="M190.5 54.8c-.8 3.5.9 5.4 3.5 6 2.5.6 4.9-.4 5.7-3.9l-9.2-2.1z"/><path fill="#333" d="M187.692 51.417l15.015 3.422-.6 2.63-15.014-3.42z"/><ellipse transform="matrix(.975 .222 -.222 .975 16.576 -40.904)" fill="#565656" cx="190" cy="53.2" rx=".9" ry=".5"/><path fill="#333" d="M219.3 60.5c-1 4.4-4.6 6.7-8.2 5.9s-5.8-4.5-4.8-8.8l13 2.9z"/><path fill="#383838" d="M217.2 60.9c-.8 3.5-3.2 4.5-5.7 3.9-2.5-.6-4.3-2.5-3.5-6l9.2 2.1z"/><path fill="#333" d="M220.613 61.695l-15.015-3.422.6-2.633 15.015 3.422z"/><ellipse transform="matrix(-.975 -.222 .222 -.975 417.937 166.322)" fill="#565656" cx="218.3" cy="59.6" rx=".9" ry=".5"/><path fill="#333" d="M206.2 58.9l-1.5-.3c.1-.3 0-.6-.1-.8s-.4-.4-.7-.5c-.3-.1-.6 0-.8.1-.2.2-.4.4-.5.7l-1.5-.3c.2-.7.6-1.3 1.2-1.6.6-.4 1.3-.5 2-.3s1.3.6 1.6 1.2c.4.4.5 1.1.3 1.8z"/><path fill="#333" d="M242.1 112.9c-.4 0-.7-.2-.8-.6-.4-1.5-.4-5-.4-5.3 0-.5.4-.9.8-.8.5 0 .8.4.8.8 0 1 0 3.8.4 4.9.1.4-.1.9-.6 1h-.2z"/><path fill="#3F3F3F" d="M241.7 109.2c-1.2 0-2.2-1.1-2.3-2.6l-1.2-16.8c-.1-1.7 1-3.2 2.4-3.1h2.7c1.4 0 2.5 1.5 2.3 3.2l-1.5 16.8c-.2 1.4-1.2 2.6-2.4 2.5z"/><circle fill="#333" cx="241.9" cy="83" r="6.8"/><path fill="#FFE18C" d="M247.3 102.3c-1.7 3.6-6 5.1-9.6 3.4-3.6-1.7-5.1-6-3.4-9.5 1.7-3.6 6-5.1 9.6-3.4 3.6 1.7 5.1 6 3.4 9.5z"/><path fill="#424242" d="M158.534 117.59l7.14 3.384-1.672 3.524-7.138-3.384z"/><path fill="#212121" d="M185.714 130.51l7.14 3.384-1.672 3.524-7.138-3.384z"/><path opacity=".2" fill="#231F20" d="M218.5 19L211 7.1c-1.1-1.7-3.3-2.2-5-1.1-1.4.9-2 2.5-1.5 4-6-1.2-11.9 2.5-13.2 8.5-1.4 6 2.4 12.1 8.5 13.5 6 1.4 11.9-2.3 13.4-8.3 1.2 1 2.9 1.2 4.3.3 1.6-1.1 2.1-3.3 1-5z"/><circle fill="#FFD200" cx="200.4" cy="18.8" r="11.2"/><path fill="#231F20" d="M206.8 9.6c1.6 2.5 2.3 5.6 1.6 8.7-1.4 6-7.4 9.8-13.5 8.5-1.4-.3-2.7-.9-3.9-1.7 1.5 2.3 3.9 4.1 6.9 4.7 6 1.4 12.1-2.4 13.5-8.5 1-4.6-1-9.2-4.6-11.7z" opacity=".2"/><path fill="#fff" d="M215.6 21.8c1.7-1.1 2.2-3.3 1.1-5l-7.5-11.9c-1.1-1.7-3.3-2.2-5-1.1-1.7 1.1-2.2 3.3-1.1 5l7.5 11.9c1.1 1.7 3.3 2.2 5 1.1z"/><path fill="#fff" d="M215.6 21.8c1.7-1.1 2.2-3.3 1.1-5l-7.5-11.9c-1.1-1.7-3.3-2.2-5-1.1-1.7 1.1-2.2 3.3-1.1 5l7.5 11.9c1.1 1.7 3.3 2.2 5 1.1z"/><path opacity=".2" fill="#231F20" d="M204.2 3.8c-1.7 1.1-2.2 3.3-1.1 5l2.4 3.9c-.9-1.7-.4-3.8 1.2-4.8 1.7-1.1 3.9-.6 5 1.1l5.1 8s0-.1-.1-.1L209.2 5c-1.1-1.8-3.3-2.3-5-1.2z"/><path fill="#fff" d="M215.6 21.8c1.7-1.1 2.2-3.3 1.1-5l-7.5-11.9c-1.1-1.7-3.3-2.2-5-1.1-1.7 1.1-2.2 3.3-1.1 5l7.5 11.9c1.1 1.7 3.3 2.2 5 1.1z"/><path fill="#fff" d="M215.6 21.8c1.7-1.1 2.2-3.3 1.1-5l-7.5-11.9c-1.1-1.7-3.3-2.2-5-1.1-1.7 1.1-2.2 3.3-1.1 5l7.5 11.9c1.1 1.7 3.3 2.2 5 1.1z"/><path opacity=".2" fill="#231F20" d="M204.2 3.8c-1.7 1.1-2.2 3.3-1.1 5l2.4 3.9c-.9-1.7-.4-3.8 1.2-4.8 1.7-1.1 3.9-.6 5 1.1l5.1 8s0-.1-.1-.1L209.2 5c-1.1-1.8-3.3-2.3-5-1.2z"/><path fill="#802B83" d="M199 11.5c.2-.2.3-.4.5-.6-2.2-2.5-4.3-4.7-6.1-6.1 2 1.6 3.9 4 5.6 6.7z"/><path fill="#AB47BC" d="M199 11.5c-1.7-2.7-3.6-5.1-5.7-6.7 0 0 1.2 4 1.4 8.4 1.7.1 3.3-.6 4.3-1.7z"/><circle fill="#fff" cx="192" cy="2.5" r="2.5"/><path fill="#FFE18C" d="M181.6 46.7c-1.7 3.6-.2 7.9 3.4 9.5 3.6 1.7 7.9.2 9.6-3.4 1.7-3.6.2-7.9-3.4-9.5-3.6-1.7-7.9-.2-9.6 3.4z"/><circle fill="#fff" cx="194.7" cy="71.2" r="3.8"/><g opacity=".25" fill="#fff"><path d="M351.9 78.9l-2.3 17.5c-.7-.4-1.5-.7-2.3-.9-3.1-.4-5.9 1.8-6.3 4.8s1.8 5.9 4.8 6.3c3.1.4 5.9-1.8 6.3-4.8l2.2-17.1 15.3 2-1.6 12.1c-.7-.4-1.5-.7-2.3-.9-3.1-.4-5.9 1.8-6.3 4.8-.4 3.1 1.8 5.9 4.8 6.3 3.1.4 5.9-1.8 6.3-4.8l2.9-22.5-3.2-.4-18.3-2.4z"/><path d="M396.5 73.4l-3.2-22.5-3.2.4 2.5 17.5c-.8-.2-1.6-.3-2.5-.2-3.1.4-5.2 3.3-4.8 6.3.4 3.1 3.3 5.2 6.3 4.8 3.2-.4 5.3-3.2 4.9-6.3z"/><path d="M404.3 94l-6.8 16.3c-.5-.6-1.2-1.1-2-1.4-2.9-1.2-6.1.2-7.3 3-1.2 2.9.2 6.1 3 7.3 2.9 1.2 6.1-.2 7.3-3l8.8-21-3-1.2zm-8.6 21c-.5 1.3-2 1.9-3.4 1.4-1.3-.5-1.9-2-1.4-3.4.5-1.3 2-1.9 3.4-1.4 1.3.6 1.9 2.1 1.4 3.4z"/></g><g opacity=".25" fill="#fff"><path d="M23.9 133.5l-2.2 16.7c-.6-.4-1.4-.7-2.2-.8-2.9-.4-5.6 1.7-6 4.6-.4 2.9 1.7 5.6 4.6 6 2.9.4 5.6-1.7 6-4.6l2.1-16.3 14.5 1.9-1.5 11.5c-.6-.4-1.4-.7-2.2-.8-2.9-.4-5.6 1.7-6 4.6-.4 2.9 1.7 5.6 4.6 6 2.9.4 5.6-1.7 6-4.6l2.8-21.5-3-.4-17.5-2.3z"/><path d="M66.3 128.3l-3-21.4-3 .4 2.4 16.7c-.7-.2-1.5-.3-2.3-.2-2.9.4-5 3.1-4.5 6 .4 2.9 3.1 5 6 4.5 2.8-.4 4.8-3.1 4.4-6z"/><path d="M73.7 147.9l-6.5 15.5c-.5-.6-1.2-1-1.9-1.4-2.7-1.1-5.9.1-7 2.9-1.1 2.7.1 5.9 2.9 7 2.7 1.1 5.9-.1 7-2.9l8.3-20-2.8-1.1zm-8.2 20c-.5 1.2-2 1.8-3.2 1.3-1.2-.5-1.8-2-1.3-3.2.5-1.2 2-1.8 3.2-1.3 1.2.5 1.8 2 1.3 3.2z"/></g><g opacity=".25" fill="#fff"><path d="M88.8 116.6l-1.3-9.9c-.4.2-.8.4-1.3.5-1.7.2-3.3-1-3.6-2.7-.2-1.7 1-3.3 2.7-3.6 1.7-.2 3.3 1 3.6 2.7l1.3 9.7 8.7-1.1-.9-6.9c-.4.2-.8.4-1.3.5-1.7.2-3.3-1-3.6-2.7-.2-1.7 1-3.3 2.7-3.6 1.7-.2 3.3 1 3.6 2.7l1.7 12.8-1.8.2-10.5 1.4z"/><path d="M128.6 143.1l-1.8-21.6-3 .3 1.4 16.8c-.7-.3-1.5-.4-2.3-.3-2.9.2-5.1 2.8-4.9 5.8.2 2.9 2.8 5.1 5.8 4.9 2.9-.3 5.1-2.9 4.8-5.9z"/><path d="M139.5 106.9l-8.3-20c-1.1-2.7-4.3-4-7-2.9s-4 4.3-2.9 7 4.3 4 7 2.9c.8-.3 1.4-.8 1.9-1.4l6.5 15.5 2.8-1.1zm-12.4-15.7c-1.2.5-2.7-.1-3.2-1.3s.1-2.7 1.3-3.2 2.7.1 3.2 1.3c.6 1.3 0 2.7-1.3 3.2z"/></g><path fill="#DFA227" d="M111.3 328.1c-61.5 0-111.3-4.5-111.3-10s49.8-10 111.3-10c8.4 0 16.6.1 24.4.2 7.9-.2 16-.2 24.4-.2H379.8c61.5 0 111.3 4.5 111.3 10s-49.8 10-111.3 10H111.3z"/><path fill="#D9830B" d="M174 266.9v42.5l-31.7 11v-42.5z"/><path opacity=".15" d="M174 266.9v42.5l-31.7 11v-42.5z"/><path fill="#D9830B" d="M67.4 266.9H174l-31.7 11H35.8z"/><path fill="#D87800" d="M35.8 277.9h106.6v42.5H35.8z"/><path fill="#D9830B" d="M304.2 216.9v92.5l-31.7 11V228z"/><path opacity=".15" d="M304.2 216.9v92.5l-31.7 11V228z"/><path fill="#D9830B" d="M189.3 216.9h114.9L272.5 228H157.6z"/><path fill="#D87800" d="M157.6 228h114.9v92.5H157.6z"/><path fill="#D9830B" d="M426.4 266.9v42.5l-31.6 11v-42.5z"/><path opacity=".15" d="M426.4 266.9v42.5l-31.6 11v-42.5z"/><path fill="#D9830B" d="M319.9 266.9h106.5l-31.6 11H288.2z"/><path fill="#D87800" d="M288.2 277.9h106.6v42.5H288.2z"/><path fill="#fff" d="M254.8 152.9l-23.5 40.5-23.4-40.5h14.8l-4.7-31.7h26.7l-4.7 31.7z" opacity=".37"/><path fill="#212121" d="M119 201.1c-.9 0-1.9-.4-2.6-1.1-1.8-1.9-3.2-3.9-4.4-5.6-.7-1-1.6-2.4-2.2-2.8-1.7-.4-2.9-2-2.7-3.7.2-1.9 1.9-3.4 3.8-3.2 3 .2 4.8 2.8 6.9 5.7 1.1 1.5 2.3 3.2 3.7 4.8 1.3 1.4 1.3 3.7-.1 5-.6.6-1.5.9-2.4.9z"/><path fill="#424242" d="M79.5 208.4c-1.8 0-3.3-1.4-3.5-3.2-.9-9.8 3-17.8 10.1-20.4 1.8-.7 3.9.3 4.5 2.1.7 1.8-.3 3.9-2.1 4.5-4.5 1.6-6 7.7-5.5 13.1.2 1.9-1.2 3.7-3.2 3.9h-.3z"/><path fill="#212121" d="M98.9 223.5h17v17h-17z"/><path fill="#424242" d="M81.9 223.5h17v17h-17z"/><path fill="#00ACC1" d="M100.4 240.4c-.5 0-1 .1-1.5.1.5 0 1 0 1.5-.1z"/><path fill="#00ACC1" d="M98.9 182.9c.5 0 1 0 1.5.1-.5-.1-1-.1-1.5-.1z"/><path fill="#00ACC1" d="M100.4 183c-.5 0-1-.1-1.5-.1.5 0 1 0 1.5.1z"/><path fill="#424242" d="M88.9 223.5V200c0-8.9.5-16.1 8.4-17-8.7.8-15.5 8.1-15.5 17v23.5c0 8.9 6.8 16.2 15.5 17-7.9-.9-8.4-8.2-8.4-17z"/><path fill="#00ACC1" d="M98.9 240.5c.5 0 1 0 1.5-.1-.5.1-1 .1-1.5.1z"/><path fill="#00ACC1" d="M98.9 240.5c-.5 0-1 0-1.5-.1.4.1.9.1 1.5.1z"/><path fill="#00ACC1" d="M97.4 183c.5 0 1-.1 1.5-.1-.6 0-1.1 0-1.5.1z"/><path fill="#00ACC1" d="M108.9 223.5V200c0-8.9-.5-16.1-8.4-17-.5 0-1-.1-1.5-.1s-1 0-1.5.1c-7.9.8-8.4 8.1-8.4 17v23.5c0 8.9.5 16.1 8.4 17 .5 0 1 .1 1.5.1s1 0 1.5-.1c7.9-.9 8.4-8.2 8.4-17z"/><path fill="#332E2E" d="M81.9 215.7H116v8.5H81.9z"/><path fill="#332E2E" d="M88.1 250.2v13.4H97v-13.4"/><path fill="#212121" d="M108.9 199.9v23.5c0 8.9-.5 16.1-8.4 17 8.7-.8 15.5-8.1 15.5-17v-23.5c0-8.9-6.8-16.2-15.5-17 7.9.9 8.4 8.2 8.4 17z"/><path fill="#212121" d="M131.5 206.6c-5.8 0-10.8-2.2-15-6.6-1.3-1.4-1.3-3.7.1-5 1.4-1.3 3.7-1.3 5 .1 3.1 3.2 7.8 6.4 17.7 2.8 1.8-.7 3.9.3 4.5 2.1.7 1.8-.3 3.9-2.1 4.5-3.6 1.5-7 2.1-10.2 2.1z"/><path fill="#332E2E" d="M109.5 250.2v13.4h-8.9v-13.4"/><path fill="#008FA1" d="M109.5 227.7V250h-8.9v-22.3"/><path fill="#332E2E" d="M100 262h10.3c3.4 6.6 12.3 6.6 13.5 1.8 0 0 4.7 9.2-16.5 7.9-5.1-.3-9-4.9-7.3-9.7z"/><path fill="#00ACC1" d="M88.1 234.6V250H97v-15.4"/><path fill="#332E2E" d="M97.6 262H87.3c-3.4 6.6-12.3 6.6-13.5 1.8 0 0-4.7 9.2 16.5 7.9 5.1-.3 9.1-4.9 7.3-9.7z"/><path fill="#fff" d="M98.8 183.9h.4v45.5h-.4z"/><path fill="#FDD500" d="M94.6 215.1h8.9v9.7h-8.9z"/><path fill="#CD131A" d="M106.9 210.8s-2 .5-2.4-.5c-.4-1 0-2 0-2.9 0-.9.4-4.7-2.1-7.1-2.5-2.4-7.5-1.4-11.4 2.6-3.9 4-5 6.1-12.3 5.7-7.3-.3-16.1-.3-19.5 6.8-3.4 7.1.1 14.5 2.2 20.4 2.1 5.9 6.2 13.2 13.1 13.5 6.9.3 9.5-2.3 11.6-4.2 2.1-1.9 4.2-4 5.8-6 1.6-1.9 3.5-3.9 5.3-4.6 1.9-.7 5.3-.6 8.3-.9 3-.3 7.5-1.7 8.5-4.6 1-2.9-2.5-3.1-3.4-3-.9.2-5.2.9-7.5-1.6s1.6-5.4 2.1-5.9c.5-.3 1.7-7.7 1.7-7.7z"/><path fill="#E09D17" d="M153.7 190l1.6-3.8 20.1-1-.1 4.2-8.3 5.3-10.7 1.3z"/><path fill="#F0EDE9" d="M81.7 215.3c0-.1.1-.2.3-.4.4-.4 1.7-1.3 3.8-2.2 2-.9 4.1-1.4 6.4-1.8 2.2-.3 4.2-.4 5.8-.3.4 0 .9.1 1.2.2 1.6.3 2.6.9 3.2 1.7.1.2.3.7.3 1.7 0 .7-.1 1.5-.3 2.5-.3 1.3-1.9 4.5-1.9 6 0 1.2.6 2.4 1.6 3.4.8.7 1.7 1.3 2.7 1.6.6.2 1.4.4 2.1.4h.6c1.6 0 2.9-.3 2.9-.3.1 0 .6-.2 1.1-.1.2 0 .3.1.4.1.1 0 .1.1.2.3.1.5-.2 1.1-.5 1.4-.5.6-1.3 1.1-2.3 1.6-.4.2-.9.4-1.5.5-2.4.7-3.9.7-5 .6h-1.1c-1.8.1-4.3.4-5.6 1-1.4.6-3.5 2.3-4 3l-.1.2c-.1.2-.3.5-.5.7l-9.8-21.8z"/><path fill="#BDBDBD" d="M92.6 232.4c.4 1 0 2.1-1 2.6l-15.3 6.6c-1 .4-2.1 0-2.6-1l-.1-.2c-.4-1 0-2.1 1-2.6l15.3-6.6c1-.4 2.1 0 2.6 1l.1.2z"/><defs><path id="a" d="M156.3 196s-54.9 24.9-55.6 25.2c-.7.3-.9.5-2.5-3.5-1.7-4-1.5-3.9-.8-4.2.7-.3 56.4-23.4 56.4-23.4l2.5 5.9z"/></defs><use xlink:href="#a" overflow="visible" fill="#74431D"/><clipPath id="b"><use xlink:href="#a" overflow="visible"/></clipPath><g clip-path="url(#b)" fill="#fff"><path d="M154.95 189.53l2.53 5.987-.646.272-2.528-5.99z"/><path d="M151.098 191.04l2.607 6.17-.645.273-2.607-6.172z"/><path d="M147.153 192.588l2.723 6.448-.644.272-2.723-6.448z"/><path d="M143.21 194.137l2.8 6.632-.645.272-2.8-6.633z"/><path d="M139.356 195.647l2.918 6.91-.645.27-2.92-6.908z"/><path d="M135.41 197.196l2.996 7.093-.644.27-2.996-7.092z"/><path d="M131.505 198.837l3.112 7.37-.645.272-3.112-7.37z"/><path d="M127.653 200.347l3.19 7.554-.646.273-3.19-7.554z"/><path d="M123.707 201.896l3.307 7.83-.645.272-3.307-7.83z"/><path d="M119.763 203.445l3.384 8.014-.645.272-3.384-8.015z"/><path d="M115.91 204.955l3.5 8.29-.644.273-3.5-8.29z"/><path d="M111.965 206.504l3.618 8.567-.645.273-3.618-8.567z"/><path d="M108.06 208.145l3.694 8.75-.644.274-3.696-8.753z"/><path d="M104.206 209.655l3.812 9.028-.644.272-3.813-9.028z"/><path d="M100.26 211.204l3.89 9.212-.644.272-3.89-9.212z"/><path d="M96.316 212.753l4.007 9.488-.645.274-4.007-9.49z"/></g><path fill="#BDBDBD" d="M83.954 219.8l3.487 8.298-7.374 3.1-3.488-8.297z"/><path fill="#FFE18C" d="M146.9 201.3c0 3.6-2.9 6.4-6.4 6.4-3.6 0-6.4-2.9-6.4-6.4 0-3.6 2.9-6.4 6.4-6.4 3.5 0 6.4 2.9 6.4 6.4z"/><path fill="#424242" d="M94.3 227.3c-.2 0-.5 0-.7-.1-11-2.3-16.8-12.7-17.7-22-.2-1.9 1.2-3.7 3.2-3.9 1.9-.2 3.7 1.2 3.9 3.2.6 6.7 4.6 14.2 12.1 15.7 1.9.4 3.1 2.3 2.7 4.2-.3 1.7-1.8 2.9-3.5 2.9z"/><path fill="#FFE18C" d="M87.9 223.7c0 3.6 2.9 6.4 6.4 6.4 3.6 0 6.4-2.9 6.4-6.4 0-3.6-2.9-6.4-6.4-6.4-3.5 0-6.4 2.9-6.4 6.4z"/><path fill="#FFE18C" d="M116.5 165.9c0 9.4-7.6 17-17 17s-17-7.6-17-17 7.6-17 17-17c9.3 0 17 7.6 17 17z"/><path fill="#fff" d="M86.5 169.8c1.6 5.6 6.8 9.6 12.9 9.6 6.1 0 11.2-4.1 12.9-9.6H86.5z"/><path fill="#FFE18C" d="M100.7 171.2h-2.5l-.6-3.6h3.6z"/><path fill="#332E2E" d="M109.5 163.5c0 1.7-1.4 3-3 3-1.7 0-3-1.4-3-3 0-1.7 1.4-3 3-3 1.7 0 3 1.3 3 3z"/><path fill="#332E2E" d="M95.6 163.5c0 1.7-1.4 3-3 3-1.7 0-3-1.4-3-3 0-1.7 1.4-3 3-3 1.7 0 3 1.3 3 3z"/><path fill="#FFE18C" d="M82.9 163.4l-5.6-7.7S74.1 175.4 85 173l-2.1-9.6z"/><path fill="#FFE18C" d="M115.1 163.4l5.6-7.7s3.2 19.7-7.6 17.3l2-9.6z"/><path fill="#F9CE1D" d="M117.2 177.1c-1.2 0-2.1-1.7-2.1-3.8h.7c0 1.9.7 3.1 1.4 3.1s1.4-1.3 1.4-3.1c0-1.9-.7-3.1-1.4-3.1v-.7c1.2 0 2.1 1.7 2.1 3.8s-1 3.8-2.1 3.8z"/><path fill="#F9CE1D" d="M80.5 177.1c-1.2 0-2.1-1.7-2.1-3.8s.9-3.8 2.1-3.8v.7c-.7 0-1.4 1.3-1.4 3.1 0 1.9.7 3.1 1.4 3.1s1.4-1.3 1.4-3.1h.7c0 2.1-.9 3.8-2.1 3.8z"/><path fill="#424242" d="M86.2 164.5s-.2-2.2 1.6-3.6 4.2-1.3 5.4-1.3 4 .2 4.5 1.3-.8 3.7-1.5 4.7-2.6 3.8-6.3 3.8-3.7-4.1-3.7-4.9zm26.5 0s.2-2.2-1.7-3.6-4.3-1.4-5.6-1.4-4.2.2-4.7 1.3.8 3.7 1.5 4.8c.7 1 2.7 3.8 6.5 3.8 3.9 0 4-4 4-4.9z"/><path fill="#F9CE1D" d="M108.7 169.8c-4 0-6-2.9-6.8-3.9-.5-.7-2.2-3.7-1.6-5.1.7-1.5 4.3-1.5 5-1.5h.4c1.2 0 3.6 0 5.4 1.4 2 1.5 1.8 3.8 1.8 3.9.1 1.1-.2 5.2-4.2 5.2zm-2.9-10h-.4c-1.9 0-4 .4-4.4 1.1-.4.9.6 3.2 1.5 4.4.7 1 2.6 3.7 6.2 3.7 3.3 0 3.6-3.2 3.6-4.6 0-.1.1-2.1-1.6-3.4-1.6-1.2-3.9-1.2-4.9-1.2zM90 169.7c-3.9 0-4.2-4-4.2-5.2 0-.1-.2-2.4 1.8-3.9 1.8-1.4 4.1-1.4 5.3-1.4h.4c.7 0 4.2.1 4.9 1.5.7 1.4-1.1 4.4-1.5 5-.8 1.2-2.8 4-6.7 4zm2.9-9.8c-1 0-3.2 0-4.8 1.3-1.6 1.3-1.5 3.2-1.5 3.3 0 1.4.3 4.5 3.5 4.5 3.5 0 5.3-2.6 6-3.6.9-1.2 1.8-3.5 1.5-4.4-.3-.7-2.4-1.1-4.2-1.1h-.5z"/><path fill="#332E2E" d="M109.3 157.2c.8 4.8 4.4 8.9 7.2 9.9 0-13.1-3.6-20.8-17.3-20.8H99c-16 .1-20.7 13.6-15.8 28.3 7.2-13.5 18.4-17.4 26.1-17.4z"/><path fill="#008FA1" d="M118.5 150.1s-24.8-22.8-37.6-28.9c0 0 10.8 19 3.5 27.5l34.1 1.4z"/><path fill="#00ACC1" d="M107.8 150.1s-14.2-22.8-26.9-28.9c0 0 10.8 19 3.5 27.5l23.4 1.4z"/><path fill="#fff" d="M118.9 153.8c0 1.3-1 2.3-2.3 2.3H82.8c-1.3 0-2.3-1-2.3-2.3v-4.2c0-1.3 1-2.3 2.3-2.3h33.9c1.3 0 2.3 1 2.3 2.3v4.2z"/><circle fill="#fff" cx="78.3" cy="118.4" r="3.7"/><path fill="#424242" d="M97.9 161.6h2.7"/><path fill="#F9CE1D" d="M97.9 161.2h2.6v.7h-2.6z"/><path fill="#FFE18C" d="M350.2 235.2v29h8.9v-29"/><path fill="#FFE18C" d="M371.6 235.2v29h-8.9v-29"/><path fill="#332E2E" d="M359.7 262.6h-10.3c-3.4 6.6-12.3 6.6-13.5 1.8 0 0-4.7 9.2 16.5 7.9 5.1-.3 9.1-5 7.3-9.7z"/><path fill="#332E2E" d="M362.1 262.6h10.3c3.4 6.6 12.3 6.6 13.5 1.8 0 0 4.7 9.2-16.5 7.9-5.1-.3-9-5-7.3-9.7z"/><path fill="#212121" d="M359.9 235.2v15.4h-10.5v-15.4"/><path fill="#212121" d="M372.3 235.2v15.4h-10.5v-15.4"/><path fill="#E53935" d="M337.5 218.1c-1 0-2-.4-2.7-1.2-4.3-5-5.2-12-2.4-18.7 3-7.2 9.5-12.3 16.7-12.9 1.9-.2 3.7 1.3 3.8 3.2.2 1.9-1.3 3.7-3.2 3.8-4.5.4-8.8 3.8-10.7 8.6-1.7 4.2-1.3 8.5 1.3 11.5 1.3 1.5 1.1 3.7-.4 5-.8.5-1.6.7-2.4.7z"/><path fill="#B9191E" d="M377.6 218.1c-1.8 0-3.4-1.4-3.5-3.3-.1-1.9 1.3-3.6 3.3-3.8 2.1-.1 4.8-3.8 5-8.3.2-3.3-1-9.1-10.1-10.6-1.9-.3-3.2-2.1-2.9-4 .3-1.9 2.1-3.2 4-2.9 12.3 2 16.4 10.5 16 17.9-.4 8-5.4 14.6-11.6 15h-.2z"/><path fill="#B9191E" d="M378 224c0 9.4-7.6 17-17 17s-17-7.6-17-17v-23.5c0-9.4 7.6-17 17-17s17 7.6 17 17V224z"/><path fill="#E53935" d="M370.9 224c0 9.4-.6 17-10 17s-17-7.6-17-17v-23.5c0-9.4 7.6-17 17-17s10 7.6 10 17V224z"/><path fill="#fff" d="M360.9 184.5h.4V230h-.4z"/><path fill="#332E2E" d="M343.9 216.3H378v8.5h-34.1z"/><path fill="#FDD500" d="M356.7 215.7h8.9v9.7h-8.9z"/><path fill="#D4AF19" d="M379.6 166.4c0-10-8.1-18.1-18.1-18.1-10 0-18.1 8.1-18.1 18.1 0 .8.1 1.6.2 2.3h35.9c0-.7.1-1.5.1-2.3z"/><path fill="#FFE18C" d="M378 166.4c0 9.1-7.4 16.5-16.5 16.5s-16.5-7.4-16.5-16.5 7.4-16.5 16.5-16.5 16.5 7.4 16.5 16.5z"/><path fill="#332E2E" d="M371.6 164c0 1.7-1.4 3-3 3-1.7 0-3-1.4-3-3 0-1.7 1.4-3 3-3s3 1.3 3 3z"/><path fill="#332E2E" d="M357.7 164c0 1.7-1.4 3-3 3-1.7 0-3-1.4-3-3 0-1.7 1.4-3 3-3s3 1.3 3 3z"/><path fill="#B9191E" d="M380.5 150.6s-24.8-22.8-37.6-28.9c0 0 10.8 19 3.5 27.5l34.1 1.4z"/><path fill="#E53935" d="M369.9 150.6s-14.2-22.8-26.9-28.9c0 0 10.8 19 3.5 27.5l23.4 1.4z"/><path fill="#fff" d="M381 154.3c0 1.3-1 2.3-2.3 2.3h-33.9c-1.3 0-2.3-1-2.3-2.3v-4.2c0-1.3 1-2.3 2.3-2.3h33.9c1.3 0 2.3 1 2.3 2.3v4.2z"/><circle fill="#fff" cx="340.3" cy="118.9" r="3.7"/><path fill="#FFE18C" d="M331.1 214.6c0 3.6 2.9 6.4 6.4 6.4 3.6 0 6.4-2.9 6.4-6.4 0-3.6-2.9-6.4-6.4-6.4-3.6 0-6.4 2.8-6.4 6.4z"/><path fill="#FFE18C" d="M384 214.6c0 3.6-2.9 6.4-6.4 6.4-3.6 0-6.4-2.9-6.4-6.4 0-3.6 2.9-6.4 6.4-6.4 3.6 0 6.4 2.8 6.4 6.4z"/><path fill="#424242" d="M317.7 219.8h86.6v13.8h-86.6z"/><path fill="#424242" d="M321.168 229.955l79.412 37.21-.89 1.902-79.413-37.21z"/><path fill="#424242" d="M399.913 230.132l.882 1.905-79.587 36.834-.882-1.904z"/><circle fill="#333" cx="320.7" cy="267.9" r="2.5"/><circle fill="#333" cx="400" cy="267.9" r="2.5"/><path fill="#fff" d="M325 219.8h72v2.4h-72z"/><path fill="#333" d="M359.8 219.8h2.4v2.4h-2.4z"/><path fill="#333" d="M371.9 219.8h2.4v2.4h-2.4z"/><path fill="#333" d="M384 219.8h2.4v2.4H384z"/><path fill="#333" d="M347.6 219.8h2.4v2.4h-2.4z"/><path fill="#333" d="M335.5 219.8h2.4v2.4h-2.4z"/><path fill="#80DEEA" d="M360.2 164h2.6"/><path fill="#EC407A" d="M360.2 163.7h2.7v.7h-2.7z"/><path fill="#80DEEA" d="M374 164l5.7-1.9"/><path fill="#EC407A" d="M379.603 161.784l.22.665-5.602 1.85-.22-.665z"/><path fill="#80DEEA" d="M348.9 164l-5.6-1.9"/><path fill="#EC407A" d="M343.38 161.77l5.603 1.848-.22.665-5.602-1.848z"/><circle fill="#F9CE1D" cx="354.5" cy="164" r="5.6"/><circle fill="#F9CE1D" cx="368.4" cy="164" r="5.6"/><path fill="#EC407A" d="M354.5 170c-3.3 0-5.9-2.7-5.9-5.9 0-3.3 2.7-5.9 5.9-5.9 3.3 0 5.9 2.7 5.9 5.9.1 3.2-2.6 5.9-5.9 5.9zm0-11.3c-2.9 0-5.3 2.4-5.3 5.3s2.4 5.3 5.3 5.3 5.3-2.4 5.3-5.3-2.4-5.3-5.3-5.3z"/><path fill="#EC407A" d="M368.4 170c-3.3 0-5.9-2.7-5.9-5.9 0-3.3 2.7-5.9 5.9-5.9 3.3 0 5.9 2.7 5.9 5.9.1 3.2-2.6 5.9-5.9 5.9zm0-11.3c-2.9 0-5.3 2.4-5.3 5.3s2.4 5.3 5.3 5.3 5.3-2.4 5.3-5.3-2.4-5.3-5.3-5.3z"/><path fill="#FFE18C" d="M345 163.9l-5.6-7.7s-3.2 19.7 7.7 17.3l-2.1-9.6z"/><path fill="#FFE18C" d="M377.2 163.9l5.6-7.7s3.2 19.7-7.6 17.3l2-9.6z"/><path fill="#fff" d="M374.4 170.3h-25.8c.5 1.8 1.4 3.4 2.6 4.8h20.6c1.2-1.4 2.1-3 2.6-4.8z"/><path fill="#332E2E" d="M351.2 175.1c2.5 2.9 6.2 4.8 10.3 4.8 4.1 0 7.8-1.9 10.3-4.8h-20.6z"/><path fill="#332E2E" d="M360.7 170.3h1.4v5.3h-1.4z"/></svg>