<svg xmlns="http://www.w3.org/2000/svg" width="398.7" height="341.7" viewBox="0 0 398.7 341.7"><path fill="#039BE5" d="M95.1 291.6c-26 0-84.6-12.1-93.8-43.1-2.2-7.3-2.6-18.6 7.6-30.9 6.7-8.1 17.3-15.7 32.4-23.2 7.6-3.8 17-.8 20.8 6.9 3.8 7.6.8 17-6.9 20.8-19.8 9.9-23.5 16.5-24.1 17.9 1.1 1.9 7.6 8.4 27 14.4 17.5 5.4 33.8 6.8 39.8 6.1 8.5-1 16.2 5.1 17.2 13.6s-5.1 16.2-13.6 17.2c-1.8.2-4 .3-6.4.3z"/><path fill="#0277BD" d="M255 339.8h-.9c-26.6-.5-45.1-21.7-57.3-35.8-3.2-3.6-7.4-8.5-9.5-10.1-7.5-2.2-12.3-9.7-10.9-17.5 1.4-8.4 9.4-14.1 17.9-12.7 10.1 1.7 17.1 9.8 25.9 19.9 9.6 11.1 21.7 24.9 34.5 25.1h.4c9 0 19.4-6.3 31-18.6 5.9-6.2 15.7-6.6 21.9-.7 6.2 5.9 6.6 15.7.7 21.9-17.8 19-35.8 28.5-53.7 28.5z"/><path fill="#FFF" d="M328.3 294.8c-1.2 13.1-12.7 22.8-25.8 21.6-13.1-1.2-22.8-12.7-21.6-25.8 1.2-13.1 12.7-22.8 25.8-21.6 13.1 1.1 22.7 12.7 21.6 25.8z"/><path fill="#0277BD" d="M149.7 255.8c-34.6-3.1-65.2 22.5-68.3 57.1l-2.3 25.8h108.5c2.9 0 4.9 1.2 6.2 3h11.4l1.6-17.6c3.2-34.6-22.4-65.2-57.1-68.3z"/><path fill="#353535" d="M66.6 341.7l27.1-32-7.6-9.1-34.9 41.1z"/><path fill="#039BE5" d="M179.3 338.7l1.5-16.9c3.1-34.6 3.5-62.9-31.1-66-34.6-3.1-65.2 22.5-68.3 57.1l-2.3 25.8h100.2z"/><path fill="#353535" d="M189.3 273.2c-4.2-4-8.9-7.4-14-10.1l-1.3.2 8.2 69.8 14-1.6-6.9-58.3z"/><path fill="#0277BD" d="M246.8 154.6S178.5 50.4 138.2 17.1c0 0 42.8 78.2 9 102.1l99.6 35.4z"/><path fill="#039BE5" d="M208.6 145s-30.1-94.6-70.4-127.9c0 0 21.7 78-12.1 101.9l82.5 26z"/><path fill="#FFE18C" d="M222.9 199.3L250 177s-6.3 73.7-43 55.2l15.9-32.9z"/><path opacity=".31" fill="#FFE18C" d="M222.9 199.3L250 177s-6.3 73.7-43 55.2l15.9-32.9z"/><path fill="#6C6C6C" d="M110 270.5h-.3c-.8-.1-1.4-.9-1.2-1.7 1.5-8.4 6.4-15.6 13.8-20.4 7.4-4.7 16.4-6.5 25.4-4.9 2.1.1 28.5 1.4 33.1 23.9.2.8-.4 1.6-1.2 1.8-.8.2-1.6-.4-1.8-1.2-4.3-21-30.1-21.5-30.3-21.5h-.2c-8.3-1.4-16.6.2-23.4 4.5-6.7 4.3-11.2 10.9-12.5 18.4 0 .5-.6 1.1-1.4 1.1z"/><path fill="#FFE18C" d="M225.8 209.6c-8.5 33.7-42.7 54.2-76.4 45.7s-54.2-42.7-45.7-76.4 42.7-54.2 76.4-45.7 54.2 42.7 45.7 76.4z"/><ellipse fill="#FFF" cx="132.8" cy="215.3" rx="11" ry="10.4"/><path fill="#FFE18C" d="M164.2 215.5l-10-2.5 1.4-14.8 14.4 3.6z"/><path fill="#332E2E" d="M203.6 194.8l-1.9-.5c.7-2.6.3-5.4-1.1-7.8s-3.6-4-6.3-4.7c-2.7-.7-5.4-.3-7.8 1.1-2.3 1.4-4 3.6-4.7 6.3l-1.9-.5c.8-3.2 2.8-5.8 5.6-7.5 2.8-1.7 6.1-2.2 9.3-1.4 3.2.8 5.8 2.8 7.5 5.6 1.6 2.9 2.1 6.2 1.3 9.4zM153.8 182.2l-1.9-.5c1.4-5.5-2-11.1-7.4-12.4-2.7-.7-5.4-.3-7.8 1.1-2.3 1.4-4 3.6-4.7 6.3l-1.9-.5c.8-3.2 2.8-5.8 5.6-7.5 2.8-1.7 6.1-2.2 9.3-1.4 6.5 1.7 10.5 8.4 8.8 14.9z"/><path fill="#FFF" d="M245 168.3c-1.1 4.5-5.7 7.2-10.2 6.1l-121.3-30.5c-4.5-1.1-7.2-5.7-6.1-10.2l3.8-14.9c1.1-4.5 5.7-7.2 10.2-6.1l121.3 30.5c4.5 1.1 7.2 5.7 6.1 10.2l-3.8 14.9zM121.2 10.2c-1.8 7.2 2.6 14.6 9.8 16.4 7.2 1.8 14.6-2.6 16.4-9.8 1.8-7.2-2.6-14.6-9.8-16.4-7.3-1.8-14.6 2.6-16.4 9.8zM143.6 341.7l7.3-82.1-2.1-.2-7.3 82.3z"/><path fill="#FFE18C" d="M107.4 170.2l-13.3-32.5s-29.4 67.9 11.8 69l1.5-36.5z"/><g fill="#6C6C6C"><path d="M154.5 302.3l5.3-30.4c.1-.8.9-1.4 1.7-1.2.8.1 1.4.9 1.2 1.7l-3.9 22.4 20-16.6c.6-.5 1.6-.4 2.1.2.5.6.4 1.6-.2 2.1l-26.2 21.8z"/><path d="M179.8 280.8h-.3c-.8-.1-1.4-.9-1.2-1.7 1.2-6.8-.1-13.6-3.8-19.8-.4-.7-.2-1.6.5-2.1.7-.4 1.6-.2 2.1.5 4 6.7 5.5 14.4 4.2 21.8-.2.8-.8 1.3-1.5 1.3z"/></g><g><path fill="#CD131A" d="M185.5 341.7c1-7.6 1.7-19.5 1.7-19.5s-6.2 2.3-7.9-.9c-1.7-3.2-.7-6.5-.9-9.3-.2-2.8-.2-15-9.1-21.9-8.9-6.9-24.5-2.1-35.6 12.1-11.1 14.1-14.1 21-37.3 22.2-19.2 1-41.6 3.3-53.8 17.2h68.5l1.6-.7 72.8.8z"/><path fill="#E09D17" d="M330.1 240.7l3.7-12.8 63.8-9.7 1.1 13.4-24.8 19.6-33.8 7.7z"/><path fill="#F0EDE9" d="M175.1 341.7c.2-2.7.2-5.1 0-7.1-.3-3.1-1-4.5-1.6-5.2-2-2.5-5.6-4-10.7-4.5-1.2-.1-2.6-.1-4-.1-5.1.1-11.2 1-18.3 2.7-7.2 1.8-14 4.4-20 7.7-4.4 2.5-7.6 4.9-9.5 6.5h64.1z"/><path fill="#74431D" d="M197.5 341.7c47.8-27.7 142.6-82.8 142.6-82.8l-10-18.2s-170.3 91.7-172.6 93c-1.9 1-2.4 1.2 1.1 8h38.9z"/><path fill="#FFF" d="M215.1 302.6c-.6.3-1.3.7-1.9 1l12 22c.6-.4 1.3-.7 1.9-1.1l-12-21.9zM200.3 310.6c-.6.4-1.3.7-1.9 1l12.3 22.4c.6-.4 1.3-.7 1.9-1.1l-12.3-22.3zM230 294.6c-.6.3-1.3.7-1.9 1l11.7 21.5c.6-.4 1.3-.7 1.9-1.1L230 294.6zM178.8 341.7l-8.2-15.1c-.7.4-1.3.7-1.9 1l7.7 14h2.4zM159.6 341.7l-3.6-6.5c-.1 1 .6 2.7 2.6 6.5h1zM197.5 341.7c.1-.1.2-.1.4-.2l-12.5-22.9c-.7.4-1.3.7-1.9 1l12 22h2zM244.8 286.6c-.6.3-1.3.7-1.9 1l11.5 21c.6-.4 1.3-.7 1.9-1.1l-11.5-20.9zM289.3 262.6c-.6.3-1.3.7-1.9 1l10.7 19.6c.6-.4 1.3-.7 1.9-1.1l-10.7-19.5zM319 246.6c-.6.3-1.3.7-1.9 1l10.2 18.7c.7-.4 1.3-.7 1.9-1.1L319 246.6zM304.2 254.6c-.6.3-1.3.7-1.9 1l10.4 19.1c.6-.4 1.3-.7 1.9-1.1l-10.4-19zM274.5 270.6c-.6.3-1.3.7-1.9 1l11 20.1c.6-.4 1.3-.7 1.9-1.1l-11-20zM259.7 278.6c-.6.3-1.3.7-1.9 1l11.2 20.6c.6-.4 1.3-.7 1.9-1.1l-11.2-20.5z"/></g><path fill="#6C6C6C" d="M91.6 289c-.4 0-.8-.1-1.1-.4-.6-.6-.6-1.5 0-2.1l20-20.1c.6-.6 1.5-.6 2.1 0 .6.6.6 1.5 0 2.1l-20 20.1c-.2.3-.6.4-1 .4z"/><path fill="#6C6C6C" d="M91.8 289.7h-.1c-.8-.1-1.4-.8-1.3-1.6l2.9-29.9c.1-.8.8-1.4 1.6-1.3.8.1 1.4.8 1.3 1.6l-2.9 29.9c-.1.7-.8 1.3-1.5 1.3z"/><path fill="#FFE18C" d="M336.1 283.6c-1.2 13.1-12.7 22.8-25.8 21.6-13.1-1.2-22.8-12.7-21.6-25.8 1.2-13.1 12.7-22.8 25.8-21.6 13.1 1.2 22.8 12.8 21.6 25.8z"/><g><circle fill="#FFF" cx="55.7" cy="199" r="19.3"/><path fill="#333" d="M40.8 182.5c-.3 0-.5 0-.8-.1-2.5-.9-9.9-3.3-13-3.5-1.3-.1-2.3-1.2-2.2-2.5.1-1.3 1.2-2.3 2.5-2.2 4.4.2 13.3 3.4 14.3 3.8 1.2.4 1.8 1.8 1.4 3-.3.9-1.2 1.5-2.2 1.5z"/><path fill="#3F3F3F" d="M34.7 178c1.1-3.2 5-4.7 9-3.7l44.9 12.3c4.5 1.2 7.3 5.4 6 9.1l-2.5 7c-1.3 3.6-6.1 5.1-10.4 3.1l-42.4-19.2c-3.7-1.8-5.7-5.5-4.6-8.6z"/><path fill="#FFE18C" d="M58.3 195.9c2.5-3.4 7.2-4.2 10.6-1.7l6.7 4.9c3.4 2.5 4.2 7.2 1.7 10.6-2.5 3.4-7.2 4.2-10.6 1.7l-6.7-4.9c-3.4-2.4-4.2-7.2-1.7-10.6z"/><circle fill="#FFE18C" cx="63.1" cy="185.5" r="19.3"/><circle fill="#333" cx="102.9" cy="202.6" r="18.9"/></g><g><path fill="#656565" d="M174 277.3l-92.4-16.2 3.7-14.6 91.5 15z"/><path fill="#C3C3C3" d="M84.273 245.304l91.516 15.97-2.355 13.496-91.516-15.97z"/><path fill="#212121" d="M81.028 253.144l76.542 13.357-.499 2.857L80.53 256z"/><path fill="#333" d="M83.03 250.933l76.541 13.357-.498 2.856L82.53 253.79z"/></g><g><path fill="#C3C3C3" d="M85.444 245.681l95.358 16.64-2.458 14.087-95.358-16.64z"/><path fill="#BC3F3F" d="M164.073 262.9l18.816 3.283-1.272 7.29-18.816-3.283z"/><path fill="#C75C5C" d="M82.15 248.64l82.748 14.44-1.272 7.29-82.748-14.44z"/><g fill="#212121"><path d="M82 251.75l3.25.568-.567 3.25-3.251-.567zM153.4 267.6l-6.9-1.2.6-3.2 6.9 1.2-.6 3.2zm-11.4-2l-6.9-1.2.6-3.2 6.9 1.2-.6 3.2zm-11.5-2l-6.9-1.2.6-3.2 6.9 1.2-.6 3.2zm-11.5-2l-6.9-1.2.6-3.2 6.9 1.2-.6 3.2zm-11.4-2l-6.9-1.2.6-3.2 6.9 1.2-.6 3.2zm-11.5-2l-6.9-1.2.6-3.2 6.9 1.2-.6 3.2zM158.506 265.134l3.25.567-.567 3.251-3.25-.568z"/></g><g fill="#333"><path d="M81.908 252.45l3.251.567-.567 3.251-3.251-.567zM153.3 268.2l-6.9-1.2.6-3.2 6.9 1.2-.6 3.2zm-11.5-2l-6.9-1.2.6-3.2 6.9 1.2-.6 3.2zm-11.4-2l-6.9-1.2.6-3.2 6.9 1.2-.6 3.2zm-11.5-2L112 261l.6-3.2 6.9 1.2-.6 3.2zm-11.5-2l-6.9-1.2.6-3.2 6.9 1.2-.6 3.2zm-11.4-2l-6.9-1.2.6-3.2 6.9 1.2-.6 3.2zM158.385 265.835l3.251.567-.567 3.25-3.25-.566z"/></g></g><path opacity=".31" d="M164 276.4l14.9 2.6 1-5.8 1.8.3 1.3-7.2-1.8-.3.6-3.4-.9-.2-12.5-2.2-.2.2-.7 3.1 2.3.5-2.7 6.9-1.4-.2"/></svg>