<svg xmlns="http://www.w3.org/2000/svg" xmlns:xlink="http://www.w3.org/1999/xlink" width="1608.5" height="938.9" viewBox="1711.3 -433.2 1608.5 938.9"><ellipse opacity=".15" cx="2080.5" cy="182" rx="128.4" ry="18.5"/><ellipse opacity=".15" cx="2981.3" cy="182" rx="128.4" ry="18.5"/><ellipse opacity=".15" cx="2303.5" cy="179.8" rx="127.3" ry="20.7"/><ellipse opacity=".15" cx="2753.5" cy="179.8" rx="127.3" ry="20.7"/><ellipse opacity=".15" cx="2501.5" cy="475.8" rx="267.5" ry="29.9"/><ellipse opacity=".15" cx="2527.4" cy="181.8" rx="138.2" ry="18.7"/><defs><path id="a" d="M1940.5-385.8c-3.5 0-6.4-2.7-6.4-5.9 0-3.3 2.9-5.9 6.4-5.9s6.4 2.7 6.4 5.9-2.8 5.9-6.4 5.9zm582.9 0c-3.5 0-6.4-2.7-6.4-5.9 0-3.3 2.9-5.9 6.4-5.9s6.4 2.7 6.4 5.9-2.9 5.9-6.4 5.9zm588.6 0c-3.5 0-6.4-2.7-6.4-5.9 0-3.3 2.9-5.9 6.4-5.9s6.4 2.7 6.4 5.9-2.9 5.9-6.4 5.9z"/></defs><use xlink:href="#a" overflow="visible" fill="#0088E1"/><path fill="#565656" d="M2523.4-389.1c-1.2 0-2.2-1-2.2-2.2v-24.6c0-1.2 1-2.2 2.2-2.2s2.2 1 2.2 2.2v24.6c0 1.2-1 2.2-2.2 2.2z"/><path fill="#383838" d="M1714 259.3h1600v9.5H1714z"/><path fill="#231F20" d="M1843.3 268.8v-28.4c0-1.9 1.5-3.4 3.4-3.4h4.2c1.9 0 3.4 1.5 3.4 3.4v28.4h-11zm327.5 0v-28.4c0-1.9 1.5-3.4 3.4-3.4h4.2c1.9 0 3.4 1.5 3.4 3.4v28.4h-11zm643.1 0v-28.4c0-1.9 1.5-3.4 3.4-3.4h4.2c1.9 0 3.4 1.5 3.4 3.4v28.4h-11zm364.7 0v-28.4c0-1.9 1.5-3.4 3.4-3.4h4.2c1.9 0 3.4 1.5 3.4 3.4v28.4h-11z"/><path fill="#565656" d="M3112-389.1c-1.2 0-2.2-1-2.2-2.2v-24.6c0-1.2 1-2.2 2.2-2.2s2.2 1 2.2 2.2v24.6c0 1.2-1 2.2-2.2 2.2zm-1171.5 0c-1.2 0-2.2-1-2.2-2.2v-24.6c0-1.2 1-2.2 2.2-2.2s2.2 1 2.2 2.2v24.6c0 1.2-1 2.2-2.2 2.2z"/><g fill="#424242"><path d="M3259.3-237.5h-58.1v-101.2h58.1v101.2zm-50.9-7.2h43.7v-86.8h-43.7v86.8z"/><path d="M3204.8-237.4c-.6 0-1.2-.1-1.7-.4-1.8-.9-2.4-3.1-1.5-4.9l50.7-94.1c.9-1.8 3.1-2.4 4.9-1.5 1.8.9 2.4 3.1 1.5 4.9l-50.7 94.1c-.7 1.2-1.9 1.9-3.2 1.9z"/><path d="M3255.5-237.4c-1.3 0-2.5-.7-3.2-1.9l-50.7-94.1c-.9-1.8-.3-3.9 1.5-4.9 1.8-.9 3.9-.3 4.9 1.5l50.7 94.1c.9 1.8.3 3.9-1.5 4.9-.5.3-1.1.4-1.7.4z"/><path d="M3259.3-143.4h-58.1v-101.2h58.1v101.2zm-50.9-7.2h43.7v-86.8h-43.7v86.8z"/><path d="M3204.8-143.4c-.6 0-1.2-.1-1.7-.4-1.8-.9-2.4-3.1-1.5-4.9l50.7-94c.9-1.8 3.1-2.4 4.9-1.5 1.8.9 2.4 3.1 1.5 4.9l-50.7 94c-.7 1.2-1.9 1.9-3.2 1.9z"/><path d="M3255.5-143.4c-1.3 0-2.5-.7-3.2-1.9l-50.7-94c-.9-1.8-.3-3.9 1.5-4.9 1.8-.9 3.9-.3 4.9 1.5l50.7 94c.9 1.8.3 3.9-1.5 4.9-.5.3-1.1.4-1.7.4zm3.8-188.1h-58.1v-101.2h58.1v101.2zm-50.9-7.2h43.7v-86.8h-43.7v86.8z"/><path d="M3204.8-331.5c-.6 0-1.2-.1-1.7-.4-1.8-.9-2.4-3.1-1.5-4.9l50.7-94c.9-1.8 3.1-2.4 4.9-1.5 1.8.9 2.4 3.1 1.5 4.9l-50.7 94c-.7 1.2-1.9 1.9-3.2 1.9z"/><path d="M3255.5-331.5c-1.3 0-2.5-.7-3.2-1.9l-50.7-94c-.9-1.8-.3-3.9 1.5-4.9 1.8-.9 3.9-.3 4.9 1.5l50.7 94c.9 1.8.3 3.9-1.5 4.9-.5.3-1.1.4-1.7.4zm3.8 288.8h-58.1v-107.9h58.1v107.9zm-50.9-7.2h43.7v-93.5h-43.7v93.5z"/><path d="M3204.8-42.7c-.5 0-1.1-.1-1.6-.4-1.8-.9-2.5-3.1-1.6-4.8l50.7-100.7c.9-1.8 3.1-2.5 4.8-1.6 1.8.9 2.5 3.1 1.6 4.8L3208-44.7c-.6 1.3-1.9 2-3.2 2z"/><path d="M3255.5-42.7c-1.3 0-2.6-.7-3.2-2l-50.7-100.7c-.9-1.8-.2-3.9 1.6-4.8 1.8-.9 3.9-.2 4.8 1.6l50.7 100.7c.9 1.8.2 3.9-1.6 4.8-.5.3-1.1.4-1.6.4z"/><path d="M3259.3 58h-58.1V-49.9h58.1V58zm-50.9-7.2h43.7v-93.5h-43.7v93.5z"/><path d="M3204.8 58c-.5 0-1.1-.1-1.6-.4-1.8-.9-2.5-3.1-1.6-4.8l50.7-100.7c.9-1.8 3.1-2.5 4.8-1.6 1.8.9 2.5 3.1 1.6 4.8L3208 56c-.6 1.3-1.9 2-3.2 2z"/><path d="M3255.5 58c-1.3 0-2.6-.7-3.2-2l-50.7-100.7c-.9-1.8-.2-3.9 1.6-4.8 1.8-.9 3.9-.2 4.8 1.6l50.7 100.7c.9 1.8.2 3.9-1.6 4.8-.5.3-1.1.4-1.6.4z"/></g><g fill="#424242"><path d="M1838.5-237.5h-58.1v-101.2h58.1v101.2zm-50.9-7.2h43.7v-86.8h-43.7v86.8z"/><path d="M1834.9-237.4c-1.3 0-2.5-.7-3.2-1.9l-50.9-94.1c-.9-1.8-.3-3.9 1.5-4.9 1.8-.9 3.9-.3 4.9 1.5l50.9 94.1c.9 1.8.3 3.9-1.5 4.9-.5.3-1.1.4-1.7.4z"/><path d="M1784-237.4c-.6 0-1.2-.1-1.7-.4-1.8-.9-2.4-3.1-1.5-4.9l50.9-94.1c.9-1.8 3.1-2.4 4.9-1.5 1.8.9 2.4 3.1 1.5 4.9l-50.9 94.1c-.7 1.2-1.9 1.9-3.2 1.9z"/><path d="M1838.5-143.4h-58.1v-101.2h58.1v101.2zm-50.9-7.2h43.7v-86.8h-43.7v86.8z"/><path d="M1834.9-143.4c-1.3 0-2.5-.7-3.2-1.9l-50.9-94c-.9-1.8-.3-3.9 1.5-4.9 1.7-.9 3.9-.3 4.9 1.5l50.9 94c.9 1.8.3 3.9-1.5 4.9-.5.3-1.1.4-1.7.4z"/><path d="M1784-143.4c-.6 0-1.2-.1-1.7-.4-1.8-.9-2.4-3.1-1.5-4.9l50.9-94c.9-1.8 3.1-2.4 4.9-1.5 1.8.9 2.4 3.1 1.5 4.9l-50.9 94c-.7 1.2-1.9 1.9-3.2 1.9zm54.5-188.1h-58.1v-101.2h58.1v101.2zm-50.9-7.2h43.7v-86.8h-43.7v86.8z"/><path d="M1834.9-331.5c-1.3 0-2.5-.7-3.2-1.9l-50.9-94c-.9-1.8-.3-3.9 1.5-4.9 1.7-.9 3.9-.3 4.9 1.5l50.9 94c.9 1.8.3 3.9-1.5 4.9-.5.3-1.1.4-1.7.4z"/><path d="M1784-331.5c-.6 0-1.2-.1-1.7-.4-1.8-.9-2.4-3.1-1.5-4.9l50.9-94c.9-1.8 3.1-2.4 4.9-1.5 1.8.9 2.4 3.1 1.5 4.9l-50.9 94c-.7 1.2-1.9 1.9-3.2 1.9zm54.5 288.8h-58.1v-107.9h58.1v107.9zm-50.9-7.2h43.7v-93.5h-43.7v93.5z"/><path d="M1834.9-42.7c-1.3 0-2.6-.7-3.2-2l-50.9-100.7c-.9-1.8-.2-3.9 1.6-4.8 1.8-.9 3.9-.2 4.8 1.6l50.9 100.7c.9 1.8.2 3.9-1.6 4.8-.5.3-1 .4-1.6.4z"/><path d="M1784-42.7c-.5 0-1.1-.1-1.6-.4-1.8-.9-2.5-3.1-1.6-4.8l50.9-100.7c.9-1.8 3.1-2.5 4.8-1.6 1.8.9 2.5 3.1 1.6 4.8l-50.9 100.7c-.6 1.3-1.9 2-3.2 2z"/><path d="M1838.5 58h-58.1V-49.9h58.1V58zm-50.9-7.2h43.7v-93.5h-43.7v93.5z"/><path d="M1834.9 58c-1.3 0-2.6-.7-3.2-2l-50.9-100.7c-.9-1.8-.2-3.9 1.6-4.8 1.8-.9 3.9-.2 4.8 1.6l50.9 100.7c.9 1.8.2 3.9-1.6 4.8-.5.3-1 .4-1.6.4z"/><path d="M1784 58c-.5 0-1.1-.1-1.6-.4-1.8-.9-2.5-3.1-1.6-4.8l50.9-100.7c.9-1.8 3.1-2.5 4.8-1.6 1.8.9 2.5 3.1 1.6 4.8L1787.2 56c-.6 1.3-1.9 2-3.2 2z"/></g><g fill="#424242"><path d="M2016.7-224.2h-58.1v-101.2h58.1v101.2zm-50.9-7.2h43.7v-86.8h-43.7v86.8z"/><path d="M2013.1-224.2c-1.3 0-2.5-.7-3.2-1.9l-50.9-94c-.9-1.8-.3-3.9 1.5-4.9 1.7-.9 3.9-.3 4.9 1.5l50.9 94c.9 1.8.3 3.9-1.5 4.9-.5.3-1.1.4-1.7.4z"/><path d="M1962.2-224.2c-.6 0-1.2-.1-1.7-.4-1.8-.9-2.4-3.1-1.5-4.9l50.9-94c.9-1.8 3.1-2.4 4.9-1.5s2.4 3.1 1.5 4.9l-50.9 94c-.7 1.2-1.9 1.9-3.2 1.9z"/><path d="M2016.7-130.2h-58.1v-101.2h58.1v101.2zm-50.9-7.2h43.7v-86.8h-43.7v86.8z"/><path d="M2013.1-130.2c-1.3 0-2.5-.7-3.2-1.9l-50.9-94c-.9-1.8-.3-3.9 1.5-4.9 1.7-.9 3.9-.3 4.9 1.5l50.9 94c.9 1.8.3 3.9-1.5 4.9-.5.3-1.1.4-1.7.4z"/><path d="M1962.2-130.2c-.6 0-1.2-.1-1.7-.4-1.8-.9-2.4-3.1-1.5-4.9l50.9-94c.9-1.8 3.1-2.4 4.9-1.5s2.4 3.1 1.5 4.9l-50.9 94c-.7 1.2-1.9 1.9-3.2 1.9zm54.5-188.1h-58.1v-101.2h58.1v101.2zm-50.9-7.2h43.7v-86.8h-43.7v86.8z"/><path d="M2013.1-318.2c-1.3 0-2.5-.7-3.2-1.9l-50.9-94.1c-.9-1.8-.3-3.9 1.5-4.9 1.8-.9 3.9-.3 4.9 1.5l50.9 94.1c.9 1.8.3 3.9-1.5 4.9-.5.3-1.1.4-1.7.4z"/><path d="M1962.2-318.2c-.6 0-1.2-.1-1.7-.4-1.8-.9-2.4-3.1-1.5-4.9l50.9-94.1c.9-1.8 3.1-2.4 4.9-1.5 1.8.9 2.4 3.1 1.5 4.9l-50.9 94.1c-.7 1.2-1.9 1.9-3.2 1.9zm54.5 288.7h-58.1v-107.9h58.1v107.9zm-50.9-7.2h43.7v-93.5h-43.7v93.5z"/><path d="M2013.1-29.5c-1.3 0-2.6-.7-3.2-2L1959-132.2c-.9-1.8-.2-3.9 1.6-4.8 1.8-.9 3.9-.2 4.8 1.6l50.9 100.7c.9 1.8.2 3.9-1.6 4.8-.5.3-1.1.4-1.6.4z"/><path d="M1962.2-29.5c-.5 0-1.1-.1-1.6-.4-1.8-.9-2.5-3.1-1.6-4.8l50.9-100.7c.9-1.8 3.1-2.5 4.8-1.6 1.8.9 2.5 3.1 1.6 4.8l-50.9 100.7c-.6 1.3-1.9 2-3.2 2z"/><path d="M2016.7 71.2h-58.1V-36.7h58.1V71.2zm-50.9-7.2h43.7v-93.5h-43.7V64z"/><path d="M2013.1 71.2c-1.3 0-2.6-.7-3.2-2L1959-31.5c-.9-1.8-.2-3.9 1.6-4.8 1.8-.9 3.9-.2 4.8 1.6L2016.3 66c.9 1.8.2 3.9-1.6 4.8-.5.3-1.1.4-1.6.4z"/><path d="M1962.2 71.2c-.5 0-1.1-.1-1.6-.4-1.8-.9-2.5-3.1-1.6-4.8l50.9-100.7c.9-1.8 3.1-2.5 4.8-1.6 1.8.9 2.5 3.1 1.6 4.8l-50.9 100.7c-.6 1.3-1.9 2-3.2 2z"/></g><ellipse opacity=".15" cx="1928.1" cy="134.2" rx="144.6" ry="23.9"/><path fill="#383838" d="M1918.9-276.7h109.9v417.8h-109.9z"/><path fill="#383838" d="M1918.9-67.9h109.8v209h-109.8z"/><path fill="#262626" d="M2046.9 134.8V-74.1l-18.1 6.2v209z"/><circle fill="#262626" cx="1973.9" cy="-16.5" r="39.6"/><path fill="#565656" d="M1973.9 24.8c-22.8 0-41.3-18.5-41.3-41.3s18.5-41.3 41.3-41.3 41.3 18.5 41.3 41.3-18.5 41.3-41.3 41.3zm0-79.2c-20.9 0-37.9 17-37.9 37.9s17 37.9 37.9 37.9 37.9-17 37.9-37.9-17-37.9-37.9-37.9z"/><circle fill="#231F20" cx="1973.9" cy="-16.5" r="11.4"/><circle fill="#262626" cx="1973.9" cy="89.7" r="39.6"/><path fill="#565656" d="M1973.9 131.1c-22.8 0-41.3-18.5-41.3-41.3s18.5-41.3 41.3-41.3 41.3 18.5 41.3 41.3-18.5 41.3-41.3 41.3zm0-79.3c-20.9 0-37.9 17-37.9 37.9s17 37.9 37.9 37.9 37.9-17 37.9-37.9-17-37.9-37.9-37.9z"/><circle fill="#231F20" cx="1973.9" cy="89.7" r="11.4"/><circle fill="#231F20" cx="1941.8" cy="36.7" r="7.5"/><circle fill="#231F20" cx="2005.9" cy="36.7" r="7.5"/><path opacity=".1" d="M2028.8-67.9h-109.9l109.9 209z"/><path fill="#383838" d="M1918.9-276.7l56.5-1.3 53.4 1.3v208.9h-109.9z"/><path fill="#262626" d="M2046.9-74.1v-209l-18.1 6.4v208.8z"/><circle fill="#262626" cx="1973.9" cy="-225.4" r="39.6"/><path fill="#565656" d="M1973.9-184.1c-22.8 0-41.3-18.5-41.3-41.3s18.5-41.3 41.3-41.3 41.3 18.5 41.3 41.3-18.5 41.3-41.3 41.3zm0-79.2c-20.9 0-37.9 17-37.9 37.9s17 37.9 37.9 37.9 37.9-17 37.9-37.9-17-37.9-37.9-37.9z"/><circle fill="#231F20" cx="1973.9" cy="-225.4" r="11.4"/><circle fill="#262626" cx="1973.9" cy="-119.2" r="39.6"/><path fill="#565656" d="M1973.9-77.9c-22.8 0-41.3-18.5-41.3-41.3s18.5-41.3 41.3-41.3 41.3 18.5 41.3 41.3-18.5 41.3-41.3 41.3zm0-79.2c-20.9 0-37.9 17-37.9 37.9s17 37.9 37.9 37.9 37.9-17 37.9-37.9-17-37.9-37.9-37.9z"/><circle fill="#231F20" cx="1973.9" cy="-119.2" r="11.4"/><circle fill="#231F20" cx="1941.8" cy="-172.3" r="7.5"/><circle fill="#231F20" cx="2005.9" cy="-172.3" r="7.5"/><path opacity=".1" d="M2028.8-276.7h-109.9l109.9 208.8z"/><path fill="#383838" d="M2046.9-283.1h-109.8l-18.2 6.4h109.9z"/><path fill="#4CAF50" d="M2149.8 190.7h-175.2V47.6l23.6-5.8h163.3l-11.7 5.8 11.7 4.7z"/><path fill="#4CAF50" d="M2191.9 33v143l-42.1 14.7V47.6z"/><path opacity=".15" d="M2191.9 33v143l-42.1 14.7V47.6z"/><path d="M2011.2 47.6h-19.8l-16.8 16.8v19.8zm40.7 0h-19.8l-57.5 57.5v19.8zm61.8 0l-139.1 139v4h15.9l143-143zm-20.9 0H2073l-98.4 98.4v19.8zm56.8 105.9v-19.8l-56.9 56.9h19.8zm0-81.4V52.3l-138.3 138.3h19.8zm0 102.4l-16 16.1h16zm0-61.5V93.2l-97.4 97.4h19.8z" opacity=".1"/><path fill="#4CAF50" d="M2016.7 33h175.2l-42.1 14.6h-175.2z"/><path opacity=".1" d="M2149.8 190.7V47.6h-175.2z"/><g fill="#424242"><path d="M3092.6-224.2h-58.1v-101.2h58.1v101.2zm-50.9-7.2h43.7v-86.8h-43.7v86.8z"/><path d="M3089-224.2c-1.3 0-2.5-.7-3.2-1.9l-50.9-94c-.9-1.8-.3-3.9 1.5-4.9 1.7-.9 3.9-.3 4.9 1.5l50.9 94c.9 1.8.3 3.9-1.5 4.9-.5.3-1.1.4-1.7.4z"/><path d="M3038.1-224.2c-.6 0-1.2-.1-1.7-.4-1.8-.9-2.4-3.1-1.5-4.9l50.9-94c.9-1.8 3.1-2.4 4.9-1.5 1.8.9 2.4 3.1 1.5 4.9l-50.9 94c-.7 1.2-1.9 1.9-3.2 1.9z"/><path d="M3092.6-130.2h-58.1v-101.2h58.1v101.2zm-50.9-7.2h43.7v-86.8h-43.7v86.8z"/><path d="M3089-130.2c-1.3 0-2.5-.7-3.2-1.9l-50.9-94c-.9-1.8-.3-3.9 1.5-4.9 1.7-.9 3.9-.3 4.9 1.5l50.9 94c.9 1.8.3 3.9-1.5 4.9-.5.3-1.1.4-1.7.4z"/><path d="M3038.1-130.2c-.6 0-1.2-.1-1.7-.4-1.8-.9-2.4-3.1-1.5-4.9l50.9-94c.9-1.8 3.1-2.4 4.9-1.5 1.8.9 2.4 3.1 1.5 4.9l-50.9 94c-.7 1.2-1.9 1.9-3.2 1.9zm54.5-188.1h-58.1v-101.2h58.1v101.2zm-50.9-7.2h43.7v-86.8h-43.7v86.8z"/><path d="M3089-318.2c-1.3 0-2.5-.7-3.2-1.9l-50.9-94.1c-.9-1.8-.3-3.9 1.5-4.9 1.8-.9 3.9-.3 4.9 1.5l50.9 94.1c.9 1.8.3 3.9-1.5 4.9-.5.3-1.1.4-1.7.4z"/><path d="M3038.1-318.2c-.6 0-1.2-.1-1.7-.4-1.8-.9-2.4-3.1-1.5-4.9l50.9-94.1c.9-1.8 3.1-2.4 4.9-1.5 1.8.9 2.4 3.1 1.5 4.9l-50.9 94.1c-.7 1.2-1.9 1.9-3.2 1.9zm54.5 288.7h-58.1v-107.9h58.1v107.9zm-50.9-7.2h43.7v-93.5h-43.7v93.5z"/><path d="M3089-29.5c-1.3 0-2.6-.7-3.2-2l-50.9-100.7c-.9-1.8-.2-3.9 1.6-4.8 1.8-.9 3.9-.2 4.8 1.6l50.9 100.7c.9 1.8.2 3.9-1.6 4.8-.5.3-1.1.4-1.6.4z"/><path d="M3038.1-29.5c-.5 0-1.1-.1-1.6-.4-1.8-.9-2.5-3.1-1.6-4.8l50.9-100.7c.9-1.8 3.1-2.5 4.8-1.6 1.8.9 2.5 3.1 1.6 4.8l-50.9 100.7c-.6 1.3-1.9 2-3.2 2z"/><path d="M3092.6 71.2h-58.1V-36.7h58.1V71.2zm-50.9-7.2h43.7v-93.5h-43.7V64z"/><path d="M3089 71.2c-1.3 0-2.6-.7-3.2-2l-50.9-100.7c-.9-1.8-.2-3.9 1.6-4.8 1.8-.9 3.9-.2 4.8 1.6L3092.2 66c.9 1.8.2 3.9-1.6 4.8-.5.3-1.1.4-1.6.4z"/><path d="M3038.1 71.2c-.5 0-1.1-.1-1.6-.4-1.8-.9-2.5-3.1-1.6-4.8l50.9-100.7c.9-1.8 3.1-2.5 4.8-1.6 1.8.9 2.5 3.1 1.6 4.8l-50.9 100.7c-.6 1.3-1.9 2-3.2 2z"/></g><path fill="#383838" d="M2992.6-276.7h109.8v417.8h-109.8z"/><path fill="#383838" d="M2992.6-67.9h109.8v209h-109.8z"/><path fill="#262626" d="M3120.6 134.8V-74.1l-18.2 6.2v209z"/><circle fill="#262626" cx="3047.6" cy="-16.5" r="39.6"/><path fill="#565656" d="M3047.6 24.8c-22.8 0-41.3-18.5-41.3-41.3s18.5-41.3 41.3-41.3 41.3 18.5 41.3 41.3-18.5 41.3-41.3 41.3zm0-79.2c-20.9 0-37.9 17-37.9 37.9s17 37.9 37.9 37.9 37.9-17 37.9-37.9-17-37.9-37.9-37.9z"/><circle fill="#231F20" cx="3047.6" cy="-16.5" r="11.4"/><circle fill="#262626" cx="3047.6" cy="89.7" r="39.6"/><path fill="#565656" d="M3047.6 131.1c-22.8 0-41.3-18.5-41.3-41.3s18.5-41.3 41.3-41.3 41.3 18.5 41.3 41.3-18.5 41.3-41.3 41.3zm0-79.3c-20.9 0-37.9 17-37.9 37.9s17 37.9 37.9 37.9 37.9-17 37.9-37.9-17-37.9-37.9-37.9z"/><circle fill="#231F20" cx="3047.6" cy="89.7" r="11.4"/><circle fill="#231F20" cx="3015.5" cy="36.7" r="7.5"/><circle fill="#231F20" cx="3079.6" cy="36.7" r="7.5"/><path opacity=".1" d="M3102.4-67.9h-109.8l109.8 209z"/><path fill="#383838" d="M2992.6-276.7l56.5-1.3 53.3 1.3v208.9h-109.8z"/><path fill="#262626" d="M3120.6-74.1v-209l-18.2 6.4v208.8z"/><circle fill="#262626" cx="3047.6" cy="-225.4" r="39.6"/><path fill="#565656" d="M3047.6-184.1c-22.8 0-41.3-18.5-41.3-41.3s18.5-41.3 41.3-41.3 41.3 18.5 41.3 41.3-18.5 41.3-41.3 41.3zm0-79.2c-20.9 0-37.9 17-37.9 37.9s17 37.9 37.9 37.9 37.9-17 37.9-37.9-17-37.9-37.9-37.9z"/><circle fill="#231F20" cx="3047.6" cy="-225.4" r="11.4"/><circle fill="#262626" cx="3047.6" cy="-119.2" r="39.6"/><path fill="#565656" d="M3047.6-77.9c-22.8 0-41.3-18.5-41.3-41.3s18.5-41.3 41.3-41.3 41.3 18.5 41.3 41.3-18.5 41.3-41.3 41.3zm0-79.2c-20.9 0-37.9 17-37.9 37.9s17 37.9 37.9 37.9 37.9-17 37.9-37.9-17-37.9-37.9-37.9z"/><circle fill="#231F20" cx="3047.6" cy="-119.2" r="11.4"/><circle fill="#231F20" cx="3015.5" cy="-172.3" r="7.5"/><circle fill="#231F20" cx="3079.6" cy="-172.3" r="7.5"/><path opacity=".1" d="M3102.4-276.7h-109.8l109.8 208.8z"/><path fill="#383838" d="M3120.6-283.1h-109.9l-18.1 6.4h109.8z"/><path fill="#424242" d="M1784-412.3h-69.1c-2 0-3.6-1.6-3.6-3.6s1.6-3.6 3.6-3.6h69.1c2 0 3.6 1.6 3.6 3.6s-1.6 3.6-3.6 3.6zm1532.2 0h-60.7c-2 0-3.6-1.6-3.6-3.6s1.6-3.6 3.6-3.6h60.7c2 0 3.6 1.6 3.6 3.6s-1.6 3.6-3.6 3.6zm-111.4 0H1838.7c-2 0-3.6-1.6-3.6-3.6s1.6-3.6 3.6-3.6h1366.1c2 0 3.6 1.6 3.6 3.6s-1.6 3.6-3.6 3.6z"/><path fill="#424242" d="M3153.9-412.3c-2 0-3.6-1.6-3.6-3.6v-13.7c0-2 1.6-3.6 3.6-3.6s3.6 1.6 3.6 3.6v13.7c0 2-1.6 3.6-3.6 3.6zm144.7 0c-2 0-3.6-1.6-3.6-3.6v-13.7c0-2 1.6-3.6 3.6-3.6s3.6 1.6 3.6 3.6v13.7c0 2-1.6 3.6-3.6 3.6zm-620.7 0c-2 0-3.6-1.6-3.6-3.6v-13.7c0-2 1.6-3.6 3.6-3.6s3.6 1.6 3.6 3.6v13.7c0 2-1.6 3.6-3.6 3.6zm-944 0c-2 0-3.6-1.6-3.6-3.6v-13.7c0-2 1.6-3.6 3.6-3.6s3.6 1.6 3.6 3.6v13.7c0 2-1.6 3.6-3.6 3.6zm151 0c-2 0-3.6-1.6-3.6-3.6v-13.7c0-2 1.6-3.6 3.6-3.6s3.6 1.6 3.6 3.6v13.7c0 2-1.6 3.6-3.6 3.6zm158.6 0c-2 0-3.6-1.6-3.6-3.6v-13.7c0-2 1.6-3.6 3.6-3.6s3.6 1.6 3.6 3.6v13.7c0 2-1.6 3.6-3.6 3.6zm158.6 0c-2 0-3.6-1.6-3.6-3.6v-13.7c0-2 1.6-3.6 3.6-3.6s3.6 1.6 3.6 3.6v13.7c0 2-1.6 3.6-3.6 3.6zm158.7 0c-2 0-3.6-1.6-3.6-3.6v-13.7c0-2 1.6-3.6 3.6-3.6s3.6 1.6 3.6 3.6v13.7c0 2-1.6 3.6-3.6 3.6zm152.6 0c-2 0-3.6-1.6-3.6-3.6v-13.7c0-2 1.6-3.6 3.6-3.6s3.6 1.6 3.6 3.6v13.7c0 2-1.6 3.6-3.6 3.6zm323.2 0c-2 0-3.6-1.6-3.6-3.6v-13.7c0-2 1.6-3.6 3.6-3.6s3.6 1.6 3.6 3.6v13.7c0 2-1.6 3.6-3.6 3.6zm158.6 0c-2 0-3.6-1.6-3.6-3.6v-13.7c0-2 1.6-3.6 3.6-3.6s3.6 1.6 3.6 3.6v13.7c0 2-1.6 3.6-3.6 3.6z"/><path fill="#4CAF50" d="M3050.6 190.7h-175.2V47.6l23.6-5.8h163.4l-11.8 5.8 11.8 4.7z"/><path fill="#4CAF50" d="M3092.7 33v143l-42.1 14.7V47.6z"/><path opacity=".15" d="M3092.7 33v143l-42.1 14.7V47.6z"/><path d="M2912.1 47.6h-19.8l-16.9 16.8v19.8zm40.7 0H2933l-57.6 57.5v19.8zm61.7 0l-139.1 139v4h15.9l143-143zm-20.9 0h-19.8l-98.4 98.4v19.8zm56.8 105.9v-19.8l-56.9 56.9h19.8zm0-81.4V52.3l-138.2 138.3h19.8zm0 102.4l-16 16.1h16zm0-61.5V93.2l-97.4 97.4h19.8z" opacity=".1"/><path fill="#4CAF50" d="M2917.5 33h175.2l-42.1 14.6h-175.2z"/><path opacity=".1" d="M3050.6 190.7V47.6h-175.2z"/><path fill="#383838" d="M3067.6 11.1h103.7v197.3h-103.7z"/><circle fill="#262626" cx="3119.4" cy="59.6" r="37.4"/><path fill="#565656" d="M3119.4 98.6c-21.5 0-39-17.5-39-39s17.5-39 39-39 39 17.5 39 39-17.5 39-39 39zm0-74.8c-19.7 0-35.8 16.1-35.8 35.8s16.1 35.8 35.8 35.8 35.8-16.1 35.8-35.8-16.1-35.8-35.8-35.8z"/><circle fill="#231F20" cx="3119.4" cy="59.6" r="10.8"/><circle fill="#262626" cx="3119.4" cy="159.9" r="37.4"/><path fill="#565656" d="M3119.4 198.9c-21.5 0-39-17.5-39-39s17.5-39 39-39 39 17.5 39 39-17.5 39-39 39zm0-74.8c-19.7 0-35.8 16.1-35.8 35.8s16.1 35.8 35.8 35.8 35.8-16.1 35.8-35.8-16.1-35.8-35.8-35.8z"/><circle fill="#231F20" cx="3119.4" cy="159.9" r="10.8"/><circle fill="#231F20" cx="3089.1" cy="109.8" r="7.1"/><circle fill="#231F20" cx="3149.8" cy="109.8" r="7.1"/><path opacity=".1" d="M3171.2 11.1h-103.6l103.6 197.3z"/><path fill="#383838" d="M3171.2 11.1h103.7v197.3h-103.7z"/><path fill="#262626" d="M3291.9 202.4V5.2l-17 5.9v197.3z"/><circle fill="#262626" cx="3223" cy="59.6" r="37.4"/><path fill="#565656" d="M3223 98.6c-21.5 0-39-17.5-39-39s17.5-39 39-39 39 17.5 39 39-17.5 39-39 39zm0-74.8c-19.7 0-35.8 16.1-35.8 35.8s16.1 35.8 35.8 35.8 35.8-16.1 35.8-35.8-16.1-35.8-35.8-35.8z"/><circle fill="#231F20" cx="3223" cy="59.6" r="10.8"/><circle fill="#262626" cx="3223" cy="159.9" r="37.4"/><path fill="#565656" d="M3223 198.9c-21.5 0-39-17.5-39-39s17.5-39 39-39 39 17.5 39 39-17.5 39-39 39zm0-74.8c-19.7 0-35.8 16.1-35.8 35.8s16.1 35.8 35.8 35.8 35.8-16.1 35.8-35.8-16.1-35.8-35.8-35.8z"/><circle fill="#231F20" cx="3223" cy="159.9" r="10.8"/><circle fill="#231F20" cx="3192.9" cy="109.8" r="7.1"/><circle fill="#231F20" cx="3253.4" cy="109.8" r="7.1"/><path opacity=".1" d="M3274.9 11.1h-103.7l103.7 197.3z"/><path fill="#383838" d="M3291.9 5.2h-103.5l-17.2 5.9h103.7z"/><path fill="#383838" d="M3067.6-186.1h103.7V11.2h-103.7z"/><path fill="#262626" d="M3188.4 5.2v-197.3l-17.2 6V11.1z"/><circle fill="#262626" cx="3119.4" cy="-137.6" r="37.4"/><path fill="#565656" d="M3119.4-98.6c-21.5 0-39-17.5-39-39s17.5-39 39-39 39 17.5 39 39-17.5 39-39 39zm0-74.8c-19.7 0-35.8 16.1-35.8 35.8s16.1 35.8 35.8 35.8 35.8-16.1 35.8-35.8-16.1-35.8-35.8-35.8z"/><circle fill="#231F20" cx="3119.4" cy="-137.6" r="10.8"/><circle fill="#262626" cx="3119.4" cy="-37.4" r="37.4"/><path fill="#565656" d="M3119.4 1.6c-21.5 0-39-17.5-39-39s17.5-39 39-39 39 17.5 39 39-17.5 39-39 39zm0-74.8c-19.7 0-35.8 16.1-35.8 35.8s16.1 35.8 35.8 35.8 35.8-16.1 35.8-35.8-16.1-35.8-35.8-35.8z"/><circle fill="#231F20" cx="3119.4" cy="-37.4" r="10.8"/><circle fill="#231F20" cx="3089.1" cy="-87.5" r="7.1"/><circle fill="#231F20" cx="3149.8" cy="-87.5" r="7.1"/><path opacity=".1" d="M3171.2-186.1h-103.6l103.6 197.2z"/><path fill="#383838" d="M3188.4-192.1h-103.8l-17 6h103.6z"/><ellipse opacity=".15" cx="1852.8" cy="201.9" rx="136.5" ry="22.6"/><path fill="#383838" d="M1740.6 11.1l11.6-1.5L1843 9l1.3 2.1v197.3h-103.7z"/><circle fill="#262626" cx="1792.4" cy="59.6" r="37.4"/><path fill="#565656" d="M1792.4 98.6c-21.5 0-39-17.5-39-39s17.5-39 39-39 39 17.5 39 39-17.5 39-39 39zm0-74.8c-19.7 0-35.8 16.1-35.8 35.8s16.1 35.8 35.8 35.8 35.8-16.1 35.8-35.8-16.1-35.8-35.8-35.8z"/><circle fill="#231F20" cx="1792.4" cy="59.6" r="10.8"/><circle fill="#262626" cx="1792.4" cy="159.9" r="37.4"/><path fill="#565656" d="M1792.4 198.9c-21.5 0-39-17.5-39-39s17.5-39 39-39 39 17.5 39 39-17.5 39-39 39zm0-74.8c-19.7 0-35.8 16.1-35.8 35.8s16.1 35.8 35.8 35.8 35.8-16.1 35.8-35.8-16.1-35.8-35.8-35.8z"/><circle fill="#231F20" cx="1792.4" cy="159.9" r="10.8"/><circle fill="#231F20" cx="1762.1" cy="109.8" r="7.1"/><circle fill="#231F20" cx="1822.7" cy="109.8" r="7.1"/><path opacity=".1" d="M1844.2 11.1h-103.6l103.6 197.3z"/><path fill="#383838" d="M1844.2-186.1h103.7v394.5h-103.7z"/><path fill="#383838" d="M1844.2 11.1h103.7v197.3h-103.7z"/><path fill="#262626" d="M1965 202.4V5.2l-17.1 5.9v197.3z"/><circle fill="#262626" cx="1896.1" cy="59.6" r="37.4"/><path fill="#565656" d="M1896.1 98.6c-21.5 0-39-17.5-39-39s17.5-39 39-39 39 17.5 39 39-17.5 39-39 39zm0-74.8c-19.7 0-35.8 16.1-35.8 35.8s16.1 35.8 35.8 35.8 35.8-16.1 35.8-35.8-16.1-35.8-35.8-35.8z"/><circle fill="#231F20" cx="1896.1" cy="59.6" r="10.8"/><circle fill="#262626" cx="1896.1" cy="159.9" r="37.4"/><path fill="#565656" d="M1896.1 198.9c-21.5 0-39-17.5-39-39s17.5-39 39-39 39 17.5 39 39-17.5 39-39 39zm0-74.8c-19.7 0-35.8 16.1-35.8 35.8s16.1 35.8 35.8 35.8 35.8-16.1 35.8-35.8-16.1-35.8-35.8-35.8z"/><circle fill="#231F20" cx="1896.1" cy="159.9" r="10.8"/><circle fill="#231F20" cx="1865.8" cy="109.8" r="7.1"/><circle fill="#231F20" cx="1926.3" cy="109.8" r="7.1"/><path opacity=".1" d="M1947.9 11.1h-103.7l103.7 197.3z"/><path fill="#383838" d="M1861.3 5.2h-103.6l-17.1 5.9h103.6z"/><path fill="#383838" d="M1844.2-186.1l53.3-1.2 50.4 1.2V11.2h-103.7z"/><path fill="#262626" d="M1965 5.2v-197.3l-17.1 6V11.1z"/><circle fill="#262626" cx="1896.1" cy="-137.6" r="37.4"/><path fill="#565656" d="M1896.1-98.6c-21.5 0-39-17.5-39-39s17.5-39 39-39 39 17.5 39 39-17.5 39-39 39zm0-74.8c-19.7 0-35.8 16.1-35.8 35.8s16.1 35.8 35.8 35.8 35.8-16.1 35.8-35.8-16.1-35.8-35.8-35.8z"/><circle fill="#231F20" cx="1896.1" cy="-137.6" r="10.8"/><circle fill="#262626" cx="1896.1" cy="-37.4" r="37.4"/><path fill="#565656" d="M1896.1 1.6c-21.5 0-39-17.5-39-39s17.5-39 39-39 39 17.5 39 39-17.5 39-39 39zm0-74.8c-19.7 0-35.8 16.1-35.8 35.8s16.1 35.8 35.8 35.8 35.8-16.1 35.8-35.8-16.1-35.8-35.8-35.8z"/><circle fill="#231F20" cx="1896.1" cy="-37.4" r="10.8"/><circle fill="#231F20" cx="1865.8" cy="-87.5" r="7.1"/><circle fill="#231F20" cx="1926.3" cy="-87.5" r="7.1"/><path opacity=".1" d="M1947.9-186.1h-103.7l103.7 197.2z"/><path fill="#383838" d="M1965-192.1h-103.7l-17.1 6h103.7z"/><ellipse opacity=".15" cx="3179.8" cy="201.9" rx="136.5" ry="22.6"/><path fill="#383838" d="M3067.7-186.1h103.7v394.5h-103.7z"/><path fill="#383838" d="M3067.7 11.1h103.7v197.3h-103.7z"/><path fill="#262626" d="M3188.5 202.4V5.2l-17.1 5.9v197.3z"/><circle fill="#262626" cx="3119.6" cy="59.6" r="37.4"/><path fill="#565656" d="M3119.6 98.6c-21.5 0-39-17.5-39-39s17.5-39 39-39 39 17.5 39 39-17.5 39-39 39zm0-74.8c-19.7 0-35.8 16.1-35.8 35.8s16.1 35.8 35.8 35.8 35.8-16.1 35.8-35.8-16-35.8-35.8-35.8z"/><circle fill="#231F20" cx="3119.6" cy="59.6" r="10.8"/><circle fill="#262626" cx="3119.6" cy="159.9" r="37.4"/><path fill="#565656" d="M3119.6 198.9c-21.5 0-39-17.5-39-39s17.5-39 39-39 39 17.5 39 39-17.5 39-39 39zm0-74.8c-19.7 0-35.8 16.1-35.8 35.8s16.1 35.8 35.8 35.8 35.8-16.1 35.8-35.8-16-35.8-35.8-35.8z"/><circle fill="#231F20" cx="3119.6" cy="159.9" r="10.8"/><circle fill="#231F20" cx="3089.3" cy="109.8" r="7.1"/><circle fill="#231F20" cx="3149.8" cy="109.8" r="7.1"/><path opacity=".1" d="M3171.4 11.1h-103.7l103.7 197.3z"/><path fill="#262626" d="M3291.9 202.5V5.2l-17.1 2.9v200.3z"/><path fill="#383838" d="M3067.7-186.1l53.4-1.2 50.3 1.2V11.2h-103.7z"/><path fill="#262626" d="M3188.5 5.2v-197.3l-17.1 6V11.1z"/><circle fill="#262626" cx="3119.6" cy="-137.6" r="37.4"/><path fill="#565656" d="M3119.6-98.6c-21.5 0-39-17.5-39-39s17.5-39 39-39 39 17.5 39 39-17.5 39-39 39zm0-74.8c-19.7 0-35.8 16.1-35.8 35.8s16.1 35.8 35.8 35.8 35.8-16.1 35.8-35.8-16-35.8-35.8-35.8z"/><circle fill="#231F20" cx="3119.6" cy="-137.6" r="10.8"/><circle fill="#262626" cx="3119.6" cy="-37.4" r="37.4"/><path fill="#565656" d="M3119.6 1.6c-21.5 0-39-17.5-39-39s17.5-39 39-39 39 17.5 39 39-17.5 39-39 39zm0-74.8c-19.7 0-35.8 16.1-35.8 35.8s16.1 35.8 35.8 35.8 35.8-16.1 35.8-35.8-16-35.8-35.8-35.8z"/><circle fill="#231F20" cx="3119.6" cy="-37.4" r="10.8"/><circle fill="#231F20" cx="3089.3" cy="-87.5" r="7.1"/><circle fill="#231F20" cx="3149.8" cy="-87.5" r="7.1"/><path opacity=".1" d="M3171.4-186.1h-103.7l103.7 197.2z"/><path fill="#383838" d="M3188.5-192.1h-103.7l-17.1 6h103.7zm-17.3 203.2l11.6-1.5 90.8-.6 1.3 2.1v197.3h-103.7z"/><circle fill="#262626" cx="3223" cy="59.6" r="37.4"/><path fill="#565656" d="M3223 98.6c-21.5 0-39-17.5-39-39s17.5-39 39-39 39 17.5 39 39-17.5 39-39 39zm0-74.8c-19.7 0-35.8 16.1-35.8 35.8s16.1 35.8 35.8 35.8 35.8-16.1 35.8-35.8-16.1-35.8-35.8-35.8z"/><circle fill="#231F20" cx="3223" cy="59.6" r="10.8"/><circle fill="#262626" cx="3223" cy="159.9" r="37.4"/><path fill="#565656" d="M3223 198.9c-21.5 0-39-17.5-39-39s17.5-39 39-39 39 17.5 39 39-17.5 39-39 39zm0-74.8c-19.7 0-35.8 16.1-35.8 35.8s16.1 35.8 35.8 35.8 35.8-16.1 35.8-35.8-16.1-35.8-35.8-35.8z"/><circle fill="#231F20" cx="3223" cy="159.9" r="10.8"/><circle fill="#231F20" cx="3192.7" cy="109.8" r="7.1"/><circle fill="#231F20" cx="3253.3" cy="109.8" r="7.1"/><path opacity=".1" d="M3274.8 11.1h-103.6l103.6 197.3z"/><path fill="#383838" d="M3291.9 5.2h-103.6l-17.1 5.9h103.6z"/><path fill="#1E88E5" d="M2416.8-35.9v213.1l-42.2 14.7V-21.2z"/><path fill="#1E88E5" d="M2241.8-35.9h175l-42.2 14.7h-175z"/><path opacity=".1" d="M2374.6 121.8v-143h-175z"/><path fill="#1E88E5" d="M2199.6-21.2l175-4v4l3.2 2.2-3.2 210.9h-175z"/><path d="M2199.6-10.1l11-11.1h-11zm133.2-11.1H2313L2199.6 92.3v19.8zm-40.7 0h-19.8l-72.7 72.8v19.8zm-40.8 0h-19.8l-31.9 32v19.8zm123.3 20l-175 175v18.1h1.7l173.3-173.3zm0 182.6v-19.8l-30.4 30.3h19.8zm-1.1-202.6h-19.8L2199.6 133v19.8zm1.1 161.9v-19.8l-71.1 71h19.8zm0-40.7V80.2l-111.8 111.7h19.8zm0-40.5V39.7l-152.3 152.2h19.8zm42.2-95.4v213.1l-42.2 14.7V-21.2z" opacity=".15"/><path opacity=".1" d="M2374.6 121.8v-143h-175z"/><path fill="#1E88E5" d="M2866.8-35.9v213.1l-42.2 14.7V-21.2z"/><path fill="#1E88E5" d="M2691.8-35.9h175l-42.2 14.7h-175z"/><path opacity=".1" d="M2824.6 121.8v-143h-175z"/><path fill="#1E88E5" d="M2649.6-21.2l175-4v4l3.2 2.2-3.2 210.9h-175z"/><path d="M2649.6-10.1l11-11.1h-11zm133.2-11.1H2763L2649.6 92.3v19.8zm-40.7 0h-19.8l-72.7 72.8v19.8zm-40.8 0h-19.8l-31.9 32v19.8zm123.3 20l-175 175v18.1h1.7l173.3-173.3zm0 182.6v-19.8l-30.4 30.3h19.8zm-1.1-202.6h-19.8L2649.6 133v19.8zm1.1 161.9v-19.8l-71.1 71h19.8zm0-40.7V80.2l-111.8 111.7h19.8zm0-40.5V39.7l-152.3 152.2h19.8zm42.2-95.4v213.1l-42.2 14.7V-21.2z" opacity=".15"/><path opacity=".1" d="M2824.6 121.8v-143h-175z"/><path fill="#4CAF50" d="M2641.6-117.1V176l-42.1 14.7v-293.2z"/><path fill="#4CAF50" d="M2424.5-102.5l177.9-5.3-2.9 5.3 3.5 1.1-3.5 292.1h-175z"/><path d="M2599.5-41.6v-19.8l-175 175v19.8zm-61.3-60.9h-19.8l-93.9 93.9v19.8zm61.3 20v-19.8l-175 175v19.8zm-20.6-20h-19.8L2424.5 32.1v19.8zm-122.1 0H2437L2424.5-90v19.8zm40.6 0h-19.8l-53.1 53.1v19.8zM2599.5 162v-19.8l-48.5 48.5h19.8zm0-40.8v-19.8l-89.3 89.3h19.8zm0 61.6l-8 7.9h8zm0-143.1V19.9l-170.8 170.8h19.8zm0-40.7v-19.8l-175 175V174zm0 81.5V60.7l-130 130h19.8z" opacity=".1"/><path fill="#4CAF50" d="M2466.6-117.1h175l-42.1 14.6h-175z"/><path opacity=".1" d="M2599.5 40.5v-143h-175z"/><path opacity=".15" d="M2641.6-117.1V176l-42.1 14.7v-293.2z"/><path fill="#E91C24" d="M2360.4 173.7h352.4l-60.7 21.1h-352.3z"/><path fill="#fff" d="M2299.8 194.8h352.4v292.6h-352.4z"/><path d="M2470.9 194.8h-19.8l-151.3 151.3v19.8zm-40.7 0h-19.8l-110.6 110.6v19.8zm203.7 0h-19.8l-292.6 292.6h19.8zm-81.5 0h-19.8l-232.8 232.8v19.8zm-203.6 0H2329l-29.2 29.2v19.8zm224.5 0l-273.5 273.5v19.1h.7l292.6-292.6zm-183.7 0h-19.8l-70 70v19.8zm-89.8 8.3l8.3-8.3h-8.3zm212-8.3H2492L2299.8 387v19.8zm140.4 266.9v-19.8l-45.5 45.5h19.8zm0-244.5v-19.8l-290 290h19.8zm0 203.6V401l-86.4 86.4h19.8zm0 61.7l-4.9 4.9h4.9zm0-102.3v-19.8l-127 127h19.8zm0-122.2v-19.8L2403 487.4h19.8zm0 81.3v-19.8l-167.9 167.9h19.8zm0-40.8v-19.7l-208.6 208.6h19.7z" fill="#E91C24"/><path fill="#E91C24" d="M2712.8 173.7v286.6l-60.7 27.1V194.8z"/><path opacity=".15" d="M2712.8 173.7v286.6l-60.7 27.1V194.8z"/><path opacity=".1" d="M2652.1 482.7V194.8h-352.3z"/></svg>