<svg id="Layer_1" xmlns="http://www.w3.org/2000/svg" viewBox="-201 323.5 207.1 146.5"><style>.st0{fill:none;stroke:#b99960;stroke-width:6.6954;stroke-linecap:round;stroke-linejoin:round;stroke-miterlimit:10}.st1{fill:#d5b06f}.st2{fill:#b99960}.st3{fill:#fff}.st4{fill:none;stroke:#b0b0b0;stroke-width:4.7023;stroke-linecap:round;stroke-linejoin:round;stroke-miterlimit:10}.st5{fill:#333}.st6{fill:#b46d3d}.st7{fill:none;stroke:#d5b06f;stroke-width:6.6954;stroke-linecap:round;stroke-linejoin:round;stroke-miterlimit:10}</style><g id="Layer_3"><path class="st0" d="M-44 391.6c15.1 11.6 30.7 16.2 46.7 11M-96.8 418c-10.3 2.3-23.5 13.5-27.4 32"/><path class="st1" d="M-110.7 368.9c5.4 10.9 12 22.9 12 22.9l36.4-18.1c9.4-4.7 20.8-.8 25.4 8.6l.5.9c4.7 9.4.8 20.8-8.6 25.4l-36.4 18.1c-9.4 4.7-20.8.8-25.4-8.6l-20.5-41 16.6-8.2z"/><path class="st2" d="M-37.3 381.6c4 9.2.1 20.1-9 24.6l-36.4 18.1c-1 .5-2.1.9-3.2 1.2-1 1.2-2.1 2.3-3.3 3.3 2.6-.1 5.3-.7 7.8-2l36.4-18.1a19 19 0 0 0 8.6-25.4l-.5-.9c-.1-.3-.2-.6-.4-.8z"/><path class="st3" d="M-52 371.5c1.5 2.9 5 4.1 7.9 2.7 13.3-6.6 10.9-15 9.5-17.9-1.3.7-11.8 5.8-14.7 7.3-2.9 1.4-4.1 5-2.7 7.9zm-54.8 46.7c4.7-16.6-5.6-31.8-14.7-29.2l14.7 29.2z"/><path class="st4" d="M-136.8 368l-8.5-7.2c-2.1-1.8-2.4-4.9-.6-7l4.5-5.3c1.8-2.1 1.5-5.2-.6-7l-5-4.2m3 24.7l-5.5 6.5"/><path class="st1" d="M-114.2 364.7c-8.9-7.5-18.4-4.2-23.1 1.5-7 8.3-6.8 25.1-7.3 37.1s8.3 11.8 12.5 6.7l19.3-22.9c5.1-6 6.2-16-1.4-22.4z"/><path class="st3" d="M-136.7 391.4c3 2.5 7.5 2.2 10.1-.9 2.5-3 2.2-7.5-.9-10.1-3-2.5-7.5-2.2-10.1.9-2.5 3.1-2.1 7.6.9 10.1z"/><path class="st5" d="M-135.5 387.3c-.3 1.9.9 3.6 2.7 4 1.9.3 3.6-.9 4-2.8.3-1.9-.9-3.6-2.7-4-1.8-.3-3.6.9-4 2.8z"/><path class="st6" d="M-140.9 418.8c1.9-2.2 1.6-5.6-.7-7.4-2.2-1.9-5.6-1.6-7.4.6-1.9 2.2-1.6 5.6.7 7.4 2.2 1.9 5.5 1.6 7.4-.6z"/><path class="st7" d="M-88.8 414.1c5 17.7 3.7 33.8-8.4 47.2m47.9-59.9c2.5 21.5 11.5 32.3 27.6 31.4"/></g></svg>