<svg xmlns="http://www.w3.org/2000/svg" viewBox="109.5 258.5 597.8 684"><style>.st0,.st1,.st2{stroke-miterlimit:10}.st0{fill:#fff;stroke:#fff;stroke-width:2;stroke-linejoin:round}.st1,.st2{stroke-linecap:round}.st1{stroke-linejoin:round;fill:#333;stroke:#333}.st2{fill:none;stroke:#4d4d4d;stroke-width:2}.st3{fill:url(#SVGID_1_)}.st4{fill:#fff}.st5{fill:#978475}.st6,.st7{stroke-miterlimit:10}.st6{stroke-linecap:round;fill:none;stroke:gray;stroke-width:2}.st7{fill:#4d4d4d;stroke:#4d4d4d;stroke-width:.25;stroke-linejoin:round}.st8{opacity:.1;enable-background:new}.st9{fill:#ee3837}.st10,.st11{stroke-linejoin:round;stroke-miterlimit:10}.st10{stroke-linecap:round;fill:none;stroke:#4d4d4d}.st11{fill:#ee3837;stroke:#d33e2f;stroke-width:.5}.st12{fill:#27ac4a}.st13{fill:#fddd89}.st14{fill:#333}.st15{fill:#fdd301}.st16{fill:#fedf8a}.st17{fill:#a45da5}.st18{fill:none;stroke:#fff;stroke-width:.6905;stroke-miterlimit:10}.st19{fill:#fed401}</style><g id="Layer_1"><path class="st0" d="M329.5 941.5c0-6.5 5.7-12.2 12.2-12.2s12.2 5.7 12.2 12.2h-24.4zm-37.5 0c0-13 10.6-22.8 22.8-22.8 13 0 22.8 10.6 22.8 22.8H292zm-26.8 0c0-9 7.3-16.3 16.3-16.3s16.3 7.3 16.3 16.3h-32.6z"/><path class="st1" d="M362.8 846.3c0 1.6-.8 2.4-2.4 2.4H358c-1.6 0-2.4-.8-2.4-2.4v-12.2c0-1.6.8-2.4 2.4-2.4h2.4c1.6 0 2.4.8 2.4 2.4v12.2zm6.5 0c0 1.6.8 2.4 2.4 2.4h2.4c1.6 0 2.4-.8 2.4-2.4v-12.2c0-1.6-.8-2.4-2.4-2.4h-2.4c-1.6 0-2.4.8-2.4 2.4v12.2z"/><path class="st2" d="M334.3 874.8v-31.7c0-1.6.8-2.4 2.4-2.4h58.6c1.6 0 2.4.8 2.4 2.4v31.7"/><radialGradient id="SVGID_1_" cx="-1238.95" cy="-665.025" r="102.842" gradientTransform="matrix(-2.555 0 0 2.555 -2798.893 2229.48)" gradientUnits="userSpaceOnUse"><stop offset="0" stop-color="#de4a3f"/><stop offset=".65" stop-color="#d43e30"/><stop offset=".928" stop-color="#ce392e"/><stop offset="1" stop-color="#cb372d"/></radialGradient><path class="st3" d="M112.2 513.4c0-140 113.9-253.9 253.9-253.9S620 372.6 620 513.4c0 74.9-32.6 141.6-83.8 188-21.2 21.2-125.3 91.1-125.3 100.9h-87.8c0-9.8-105-79.8-125.3-100.9-53.1-46.4-85.6-113.1-85.6-188z"/><path class="st4" d="M112.2 513.4c0-140 113.9-253.9 253.9-253.9-106.6 0-193.7 113.9-193.7 253.9 0 74.9 24.4 141.6 64.3 188 16.3 21.2 96 91.1 96 100.9h-10.6c0-9.8-105-79.8-125.3-100.9-52.1-46.4-84.6-113.1-84.6-188zm323.1 188c21.2-46.4 34.2-113.9 34.2-188 0-140-46.4-253.9-103.4-253.9 106.6 0 193.7 113.9 193.7 253.9 0 74.9-24.4 141.6-64.3 188-16.3 21.2-96 91.1-96 100.9H384c0-9.7 43.1-79.7 51.3-100.9zm-138.4 0c-21.2-46.4-34.2-113.9-34.2-188 0-140 46.4-253.9 103.4-253.9v542.8h-17.9c0-9.7-43.2-79.7-51.3-100.9z"/><path class="st5" d="M398.6 941.5h-65.1l-6.5-66.7h78.1l-6.5 66.7z"/><path class="st6" d="M112.2 933.4v-420c0-140 113.9-253.9 253.9-253.9 123.7 0 226.2 88.7 249 205.9L703 926m-166.8-.8V513.4c0-140-74.1-253.9-165.2-253.9-80.6 0-147.3 88.7-162 205.9l-57.8 468"/><path class="st7" d="M115.4 941.5h-3.2l-2.5-32.6h7.3l-1.6 32.6z"/><path class="st6" d="M110.5 919.5l5.7 2.5m-5.7 4.9l5.7 3.2"/><path class="st7" d="M152 941.5h-3.2l-1.6-32.6h7.3l-2.5 32.6z"/><path class="st6" d="M148 919.5l5.7 2.5m-5.7 4.9l5.7 3.2"/><path class="st7" d="M537.8 941.5h-3.3l-2.4-32.6h7.3l-1.6 32.6z"/><path class="st6" d="M532.9 919.5l5.7 2.5m-5.7 4.9l5.7 3.2"/><path class="st7" d="M704.6 941.5h-3.2l-1.6-32.6h7.3l-2.5 32.6z"/><path class="st6" d="M700.6 919.5l5.7 2.5m-5.7 4.9l5.7 3.2"/><path class="st8" d="M112.2 513.4c0-44.8 11.4-86.3 31.7-122.9 13 181.5 163.6 324.7 348.3 324.7 9.8 0 18.7 0 28.5-.8-35.8 28.5-111.5 79.8-111.5 88.8h-87.8c0-9.8-105-79.8-125.3-100.9-51.4-47.3-83.9-114-83.9-188.9z"/><path class="st9" d="M328.6 890.2c-1.6 3.3-3.3 5.7-4.9 9-2.4 4.1.8 9 4.9 9s7.3-4.9 4.9-9c-1.6-3.3-3.2-6.5-4.9-9zm74.9 0c-1.6 3.3-3.3 5.7-4.9 9-2.4 4.1.8 9 4.9 9s7.3-4.9 4.9-9c-1.6-3.3-3.3-6.5-4.9-9zm-37.4 0c-1.6 3.3-3.3 5.7-4.9 9-2.4 4.1.8 9 4.9 9 4.9 0 7.3-4.9 4.9-9-1.7-3.3-3.3-6.5-4.9-9z"/><path class="st10" d="M330.3 890.2c3.3 3.3 8.1 11.4 14.6 11.4 13 0 20.3-11.4 20.3-11.4s9.8 13 18.7 13 17.9-13 17.9-13m-63.4-49.6l-15.5-38.3m70.9 38.3l15.4-38.3m-59.4 38.3l-6.5-38.3m39.1 38.3l6.5-38.3"/><path class="st0" d="M414.1 941.5c0-3.3 3.3-6.5 6.5-6.5s6.5 3.3 6.5 6.5h-13zm-20.3 0c0-7.3 5.7-12.2 12.2-12.2 7.3 0 12.2 5.7 12.2 12.2h-24.4zm-15.5 0c0-4.9 4.1-9 9-9s9 4.1 9 9h-18z"/><path class="st11" d="M324.6 885.3s-.8 0 0 0c-.8 0-.8 0 0 0-.8 3.3 1.6 4.9 4.1 4.9h.8v-.8c-.9-2.4-2.5-4.1-4.9-4.1zm8.1 0c.8 0 .8 0 0 0 .8 0 .8 0 0 0 .8 3.3-1.6 4.9-4.1 4.9h-.8v-.8c.8-2.4 2.5-4.1 4.9-4.1zm29.3 0c-.8 0-.8 0 0 0-.8 0-.8 0 0 0-.8 3.3 1.6 4.9 4.1 4.9h.8v-.8c-.8-2.4-2.4-4.1-4.9-4.1zm8.2 0s.8 0 0 0c.8 0 .8 0 0 0 .8 3.3-1.6 4.9-4.1 4.9h-.8v-.8c.8-2.4 2.4-4.1 4.9-4.1zm29.2 0c-.8 0-.8 0 0 0-.8 0-.8 0 0 0-.8 3.3 1.6 4.9 4.1 4.9h.8v-.8c-.8-2.4-3.2-4.1-4.9-4.1zm8.2 0s.8 0 0 0c.8 0 .8 0 0 0 .8 3.3-1.6 4.9-4.1 4.9h-.8v-.8c.8-2.4 2.4-4.1 4.9-4.1z"/><path class="st2" d="M328.6 890.2h74.9"/></g><g id="Layer_2"><path class="st12" d="M438.8 869.7s14.7-13.5 22.2-17.1c0 0-6.4 11.3-2.1 16.3l-20.1.8z"/><path class="st13" d="M440 879c0 5.6 4.5 10.1 10.1 10.1s10.1-4.5 10.1-10.1-4.5-10.1-10.1-10.1S440 873.4 440 879z"/><path class="st14" d="M445.4 870.1c1.4-.7 3-1.2 4.7-1.2 5.6 0 10.1 4.5 10.1 10.1 0 2.5-.9 4.7-2.4 6.5-9.5-2.6-11.8-11.2-12.4-15.4z"/><path class="st13" d="M447.2 881.6l5.3-7.5s1.9 11.8-4.6 10.3l-.7-2.8z"/><path class="st4" d="M438.6 871.9c0 .7.6 1.3 1.3 1.3h20c.7 0 1.3-.6 1.3-1.3v-2.5c0-.7-.6-1.3-1.3-1.3h-20c-.7 0-1.3.6-1.3 1.3v2.5z"/><circle class="st14" cx="443.9" cy="877.6" r="1.8"/><path class="st12" d="M440.5 913.1c0 5.6 4.5 10.1 10.1 10.1s10.1-4.5 10.1-10.1v-13.9c0-5.6-4.5-10.1-10.1-10.1s-10.1 4.5-10.1 10.1v13.9z"/><path class="st4" d="M448.4 924.2v12.4h5.3v-12.4"/><path class="st12" d="M452.5 917.4c-3.5 0-4.1 1.8-4.1 3.6v7.6h5.3V920l-1.2-2.6z"/><path class="st14" d="M454.1 935.7H448c-2 4-7.3 4-8 1.1 0 0-2.8 5.5 9.8 4.7 3-.3 5.3-3 4.3-5.8zm-13.6-27.6h20.2v5h-20.2z"/><path class="st15" d="M439.9 907.6h1.4v5.8h-1.4z"/><circle class="st4" cx="462.6" cy="850.9" r="2.2"/><circle class="st13" cx="450.4" cy="908.9" r="3.8"/><path class="st13" d="M441.5 878.5l-9.5 2.7c-1 0-1 1.5.5 1.5h11.3l-2.3-4.2z"/><path class="st14" d="M462.4 886.6c1.7 1.6 3.9 2.2 6.1 1.8.3-2.1-.4-4.4-2-6s-3.9-2.2-6.1-1.8c-.3 2.2.4 4.4 2 6z"/></g><g id="Layer_3"><circle class="st16" cx="245.3" cy="906.3" r="3.7"/><circle class="st16" cx="263.3" cy="906.3" r="3.7"/><path class="st17" d="M246.7 872.6s7.9-16.6 15.2-19.9c0 0-3.9 15.5.3 20.5l-15.5-.6z"/><path class="st16" d="M264.4 881.6c0 5.3-4.2 9.6-9.6 9.6-5.3 0-9.6-4.2-9.6-9.6 0-5.3 4.2-9.6 9.6-9.6 5.1-.3 9.6 4.2 9.6 9.6z"/><path class="st4" d="M265.8 874.5c0 .8-.6 1.4-1.4 1.4h-19.1c-.8 0-1.4-.6-1.4-1.4v-2.2c0-.8.6-1.4 1.4-1.4h19.4c.8 0 1.4.6 1.4 1.4v2.2h-.3z"/><circle class="st14" cx="250.6" cy="880.2" r="1.7"/><circle class="st14" cx="258.5" cy="880.2" r="1.7"/><path class="st17" d="M263.8 914.2c0 5.3-4.2 9.6-9.6 9.6-5.3 0-9.6-4.2-9.6-9.6v-13.5c0-5.3 4.2-9.6 9.6-9.6 5.3 0 9.6 4.2 9.6 9.6v13.5z"/><path class="st4" d="M248.6 920.1v16.8h5.1v-16.8"/><path class="st17" d="M248.6 920.1v8.9h5.1v-8.9"/><path class="st14" d="M254 935.8h-5.9c-2 3.9-7 3.9-7.9 1.1 0 0-2.8 5.3 9.6 4.5 3.1-.3 5.3-2.8 4.2-5.6z"/><path class="st4" d="M261 920.1v16.8h-5.1v-16.8"/><path class="st17" d="M261 920.1v8.9h-5.1v-8.9"/><path class="st14" d="M255.4 935.8h5.9c2 3.9 7 3.9 7.9 1.1 0 0 2.8 5.3-9.6 4.5-2.8-.3-5.1-2.8-4.2-5.6z"/><path class="st18" d="M254.3 891.1v26.1"/><path class="st14" d="M244.4 909.4h19.4v4.8h-19.4z"/><path class="st19" d="M251.7 908.8h5.1v5.6h-5.1z"/><circle class="st4" cx="263.5" cy="850.7" r="2"/><path class="st16" d="M245 879.3l-3.4-4.2s-2 11.2 4.5 9.8l-1.1-5.6zm18.5 0l3.1-4.5s2 11.2-4.5 9.8l1.4-5.3z"/></g></svg>