<svg width="200" height="250" fill="none" xmlns="http://www.w3.org/2000/svg"><g clip-path="url(#clip0)"><path d="M137.6 151.2l-.3-4.9-4.1-.9-3.6 1.3-.5 1 .3 4.8 4.3 2.2 4-2.6-.1-.9zm-3.4-2.9c.7.4 1.1 1.1 1 1.9-.5.5-1.2.8-2 1.1-2.2.9-2.1-1.2-1.1-2.7.5-.5 1.4-.6 2.1-.3z" fill="#8A9096"/><path d="M132.4 150.5c-.9-.5-1.3-1.6-.8-2.5.5-.9 1.6-1.3 2.4-.8.9.5 1.3 1.6.8 2.4-.4 1-1.5 1.4-2.4.9zm4.9-4.3L133 144l-4 2.6.3 4.8 4.3 2.2 4-2.6-.3-4.8z" fill="#B9BDC3"/><path d="M126.699 125.1l-.3-4.9-4.1-.9-3.6 1.3-.5 1 .3 4.8 4.3 2.2 4-2.6-.1-.9zm-3.5-2.8c.7.4 1.1 1.1 1 1.9-.5.5-1.2.8-2 1.1-2.2.9-2.1-1.2-1.1-2.7.6-.5 1.4-.7 2.1-.3z" fill="#8A9096"/><path d="M121.5 124.4c-.9-.5-1.3-1.6-.8-2.5.5-.9 1.6-1.3 2.4-.8.9.5 1.3 1.6.8 2.4-.4 1-1.5 1.4-2.4.9zm4.8-4.2L122 118l-4 2.6.3 4.8 4.3 2.2 4-2.6-.3-4.8z" fill="#B9BDC3"/><path d="M117.4 117.2l1.8-3-2.1-2.2-2.6-.7-.7.4-1.8 2.9 1.6 3 3.4.1.4-.5zm-.8-3.1c.3.5.2 1.1-.2 1.5-.5.1-1.1 0-1.6-.1-1.6-.4-.8-1.5.5-2 .5-.2 1 .1 1.3.6z" fill="#8A9096"/><path d="M114.7 114.7c-.3-.6-.1-1.4.5-1.8.6-.3 1.4-.1 1.8.5.3.6.1 1.4-.5 1.8-.7.3-1.5.1-1.8-.5zm4.6-.6l-1.6-3-3.4-.1-1.8 2.9 1.6 3 3.4.1 1.8-2.9z" fill="#B9BDC3"/><path d="M135.074 132.408c-.1 0-.1.1-.2.1l-8.4 4.2c-.9.4-1.9.1-2.3-.8-.4-.9-.1-1.9.8-2.3l8.4-4.2c.1 0 .1-.1.2-.1 0-1.5.8-3 2.2-3.7 1.5-.7 3.2-.5 4.4.6l-3.3 1.7 1.4 2.8 3.3-1.7c.1 1.6-.7 3.1-2.2 3.9-1.5.7-3.1.4-4.3-.5z" fill="#74797E"/><path d="M135.574 131.208c-.1 0-.1.1-.2.1l-8.4 4.2c-.9.4-1.9.1-2.3-.8-.4-.9-.1-1.9.8-2.3l8.4-4.2c.1 0 .1-.1.2-.1 0-1.5.8-3 2.2-3.7 1.5-.7 3.2-.5 4.4.6l-3.3 1.7 1.4 2.8 3.3-1.7c.1 1.6-.7 3.1-2.2 3.9-1.5.6-3.1.4-4.3-.5z" fill="#B9BDC3"/><path d="M106.833 134.7c0 2.8-2.2 5-5 5-6.1 0-11.6 2.9-15 7.5-2.3 3.1-3.7 7-3.7 11.2 0 .9-.6 1.6-1.5 1.8-.9.2-1.9.3-2.9.2-1.6-.1-3.1-.6-4.6-1.4-.6-.4-1-1-1-1.8.2-5.8 2.2-11.2 5.4-15.6 5.2-7.2 13.7-11.9 23.2-11.9.6 0 1.2.1 1.8.3 2 .7 3.3 2.5 3.3 4.7z" fill="#9C0F0A"/><path d="M78.132 159.8c-.8 0-1.4-.6-1.4-1.4 0-13.9 11.3-25.1 25.1-25.1.8 0 1.4.6 1.4 1.4 0 .8-.6 1.4-1.4 1.4-12.3 0-22.3 10-22.3 22.3.1.8-.6 1.4-1.4 1.4z" fill="#9C0F0A"/><path d="M104.434 133.2c-.2 2.6-2.5 4.6-5 4.6-5.8 0-11 2.7-14.4 6.9-2.6 3.2-4.2 7.3-4.2 11.8 0 1.6-.8 3.1-2 4-1.9-.1-3.9-.8-5.6-2.1-.1-.1-.3-.2-.4-.3-1.3-1-2-2.7-1.8-4.4.4-4.3 1.8-8.3 3.9-11.8 5-8.4 14.2-14.1 24.7-14.1 1.7 0 3.3.9 4.2 2.2.4.9.7 2 .6 3.2z" fill="#F33"/><path d="M75.834 157.9c-.8 0-1.4-.6-1.4-1.4 0-13.9 11.3-25.1 25.1-25.1.8 0 1.4.6 1.4 1.4 0 .8-.6 1.4-1.4 1.4-12.3 0-22.3 10-22.3 22.3 0 .8-.6 1.4-1.4 1.4z" fill="#fff"/><path d="M91.633 134.7c0 2.8 2.2 5 5 5 6.1 0 11.6 2.9 15 7.5 2.3 3.1 3.7 7 3.7 11.2 0 .9.6 1.6 1.5 1.8.9.2 1.9.3 2.9.2 1.6-.1 3.1-.6 4.6-1.4.6-.4 1-1 1-1.8-.2-5.8-2.2-11.2-5.4-15.6-5.2-7.2-13.7-11.9-23.2-11.9-.6 0-1.2.1-1.8.3-2 .7-3.3 2.5-3.3 4.7z" fill="#9C0F0A"/><path d="M120.332 159.8c.8 0 1.4-.6 1.4-1.4 0-13.9-11.3-25.1-25.1-25.1-.8 0-1.4.6-1.4 1.4 0 .8.6 1.4 1.4 1.4 12.3 0 22.3 10 22.3 22.3-.1.8.6 1.4 1.4 1.4z" fill="#9C0F0A"/><path d="M94.033 133.2c.2 2.6 2.5 4.6 5 4.6 5.8 0 11 2.7 14.4 6.9 2.6 3.2 4.2 7.3 4.2 11.8 0 1.6.8 3.1 2 4 1.9-.1 3.9-.8 5.6-2.1.1-.1.3-.2.4-.3 1.3-1 2-2.7 1.8-4.4-.4-4.3-1.8-8.3-3.9-11.8-5-8.4-14.2-14.1-24.7-14.1-1.7 0-3.3.9-4.2 2.2-.4.9-.7 2-.6 3.2z" fill="#F33"/><path d="M122.633 157.9c.8 0 1.4-.6 1.4-1.4 0-13.9-11.3-25.1-25.1-25.1-.8 0-1.4.6-1.4 1.4 0 .8.6 1.4 1.4 1.4 12.3 0 22.3 10 22.3 22.3 0 .8.7 1.4 1.4 1.4z" fill="#fff"/><path d="M83.633 130.5h31.1l-2.9 15.8h-25.3l-2.9-15.8z" fill="#30A658"/><path d="M99.234 131.4v28.1" stroke="#F33" stroke-width="9.975" stroke-miterlimit="10" stroke-linecap="round"/><path d="M99.234 131.4v28.1" stroke="#fff" stroke-width="2.884" stroke-miterlimit="10" stroke-linecap="round"/><path d="M111.934 124.4h-25.5l4.7-2.2c.3-.1.6-.2.9-.2h14.4c.3 0 .6.1.9.2l4.6 2.2z" fill="#A8E9A2"/><path opacity=".5" d="M99.234 124c2.651 0 4.8-.358 4.8-.8 0-.442-2.149-.8-4.8-.8s-4.8.358-4.8.8c0 .442 2.149.8 4.8.8z" fill="#332F2E"/><path d="M114.733 130.5h-31.1l2.9-6.1h25.3l2.9 6.1z" fill="#fff"/><path d="M88.733 129.1a1.7 1.7 0 100-3.4 1.7 1.7 0 000 3.4zM93.932 129.1a1.7 1.7 0 100-3.4 1.7 1.7 0 000 3.4zM99.233 129.1a1.7 1.7 0 100-3.4 1.7 1.7 0 000 3.4zM104.432 129.1a1.7 1.7 0 100-3.4 1.7 1.7 0 000 3.4zM109.733 129.1a1.7 1.7 0 100-3.4 1.7 1.7 0 000 3.4z" fill="#226D45"/><path d="M105.801 84.785c13.8 0 24.9 11.2 24.9 24.9" stroke="#9C0F0A" stroke-width="10.5" stroke-miterlimit="10" stroke-linecap="round"/><path d="M105.801 84.785c13.8 0 24.9 11.2 24.9 24.9" stroke="#9C0F0A" stroke-width="3.036" stroke-miterlimit="10" stroke-linecap="round"/><path d="M108.301 82.785c13.8 0 24.9 11.2 24.9 24.9" stroke="#F33" stroke-width="10.5" stroke-miterlimit="10" stroke-linecap="round"/><path d="M108.301 82.785c13.8 0 24.9 11.2 24.9 24.9" stroke="#fff" stroke-width="3.036" stroke-miterlimit="10" stroke-linecap="round"/><path d="M90.201 114.385c6.3-12.2 21.4-17 33.6-10.7" stroke="#9C0F0A" stroke-width="10.5" stroke-miterlimit="10" stroke-linecap="round"/><path d="M90.201 114.385c6.3-12.2 21.4-17 33.6-10.7" stroke="#9C0F0A" stroke-width="3.036" stroke-miterlimit="10" stroke-linecap="round"/><path d="M88.9 111.485c6.3-12.2 21.4-17 33.6-10.7" stroke="#F33" stroke-width="10.5" stroke-miterlimit="10" stroke-linecap="round"/><path d="M88.9 111.485c6.3-12.2 21.4-17 33.6-10.7" stroke="#fff" stroke-width="3.036" stroke-miterlimit="10" stroke-linecap="round"/><path d="M109.701 79.785c-8.2-8.5-21.8-8.8-30.4-.5" stroke="#9C0F0A" stroke-width="9.036" stroke-miterlimit="10" stroke-linecap="round"/><path d="M109.701 79.785c-8.2-8.5-21.8-8.8-30.4-.5" stroke="#9C0F0A" stroke-width="2.613" stroke-miterlimit="10" stroke-linecap="round"/><path d="M109.4 77.085c-8.2-8.5-21.8-8.8-30.4-.5" stroke="#F33" stroke-width="9.036" stroke-miterlimit="10" stroke-linecap="round"/><path d="M109.4 77.085c-8.2-8.5-21.8-8.8-30.4-.5" stroke="#fff" stroke-width="2.613" stroke-miterlimit="10" stroke-linecap="round"/><path d="M74 77.285c-2-1.7-2.2-4.6-.5-6.6 3.7-4.4 4.9-10 3.7-15.2-.8-3.6-2.7-6.9-5.7-9.4-.6-.5-.8-1.4-.4-2.1.4-.8.9-1.5 1.6-2.2 1-1 2.3-1.9 3.8-2.4.6-.2 1.4-.1 1.9.4 4 3.7 6.6 8.4 7.9 13.3 2 8.1.2 16.9-5.6 23.7-.4.4-.8.8-1.3 1.1-1.8.9-3.9.7-5.4-.6z" fill="#9C0F0A"/><path d="M73.401 41.685c.5-.6 1.3-.6 1.9-.2 9.9 8.4 11.1 23.2 2.7 33.1-.5.6-1.3.6-1.9.2-.6-.4-.6-1.3-.2-1.9 7.4-8.7 6.4-21.9-2.4-29.3-.5-.4-.6-1.3-.1-1.9z" fill="#9C0F0A"/><path d="M76.5 76.485c-1.7-1.7-1.7-4.5-.2-6.3 3.5-4.2 4.7-9.5 3.8-14.4-.7-3.8-2.7-7.4-5.8-10.1-1.2-1-1.7-2.4-1.6-3.8 1.3-1.3 2.9-2.3 4.9-2.7.1 0 .3-.1.4-.1 1.5-.3 3.1.2 4.2 1.4 2.8 2.9 4.8 6.3 6 9.9 3 8.6 1.4 18.6-4.9 26.1-1 1.2-2.6 1.8-4.1 1.6-1-.3-2-.8-2.7-1.6z" fill="#F33"/><path d="M76.2 41.185c.5-.6 1.3-.6 1.9-.2 9.9 8.4 11.1 23.2 2.7 33.1-.5.6-1.3.6-1.9.2-.6-.5-.6-1.3-.2-1.9 7.4-8.7 6.4-21.9-2.4-29.3-.5-.5-.6-1.3-.1-1.9z" fill="#fff"/><path d="M91 63.385l-18.8 22.1-9.5-11.6 15.3-18 13 7.5z" fill="#30A658"/><path d="M80.9 73.885l-19.9-17" stroke="#F33" stroke-width="9.314" stroke-miterlimit="10" stroke-linecap="round"/><path d="M80.9 73.885l-19.9-17" stroke="#fff" stroke-width="2.693" stroke-miterlimit="10" stroke-linecap="round"/><path d="M78.2 87.185l15.4-18.1-1.3 4.7c-.1.3-.2.5-.4.7l-8.7 10.3c-.2.2-.4.4-.7.5l-4.3 1.9z" fill="#A8E9A2"/><path opacity=".5" d="M87.349 79.303c1.574-1.85 2.612-3.554 2.317-3.805-.294-.25-1.81 1.047-3.384 2.898-1.574 1.851-2.612 3.555-2.317 3.805.294.25 1.81-1.047 3.384-2.898z" fill="#332F2E"/><path d="M72.2 85.485l18.8-22.1 2.6 5.7-15.4 18-6-1.6z" fill="#fff"/><path d="M90.1 70.385a1.6 1.6 0 100-3.2 1.6 1.6 0 000 3.2zM86.9 74.085a1.6 1.6 0 100-3.2 1.6 1.6 0 000 3.2zM83.702 77.885a1.6 1.6 0 100-3.2 1.6 1.6 0 000 3.2zM80.6 81.585a1.6 1.6 0 100-3.2 1.6 1.6 0 000 3.2zM77.4 85.385a1.6 1.6 0 100-3.2 1.6 1.6 0 000 3.2z" fill="#226D45"/><path d="M94.702 107.385l-28.6-12 8.7-13.4 23.4 9.7-3.5 15.7z" fill="#30A658"/><path d="M66.3 102.085l23.5 9.8-5.2.2c-.3 0-.6 0-.9-.2l-13.3-5.6c-.3-.1-.5-.3-.7-.5l-3.4-3.7z" fill="#A8E9A2"/><path opacity=".5" d="M82.007 109.946c.17-.407-1.674-1.567-4.12-2.589-2.445-1.023-4.566-1.521-4.737-1.113-.17.407 1.674 1.567 4.12 2.589 2.446 1.023 4.567 1.521 4.737 1.113z" fill="#332F2E"/><path d="M66.102 95.385l28.7 12-5.1 4.5-23.3-9.8-.3-6.7z" fill="#fff"/><path d="M88.901 109.885a1.7 1.7 0 100-3.4 1.7 1.7 0 000 3.4zM84.1 107.885a1.7 1.7 0 100-3.4 1.7 1.7 0 000 3.4zM79.2 105.885a1.7 1.7 0 100-3.4 1.7 1.7 0 000 3.4zM74.401 103.885a1.7 1.7 0 100-3.4 1.7 1.7 0 000 3.4zM69.5 101.785a1.7 1.7 0 10.001-3.4 1.7 1.7 0 000 3.4z" fill="#226D45"/><path d="M144.901 145.4c-1.5-.8-3.4-.2-4.1 1.3-.5 1-.4 2.1.1 2.9l-4.3 8.3c-1.1.1-2 .7-2.5 1.7-.6 1.1-.5 2.4.3 3.4l1.3-2.7 2.4 1.2-1.3 2.7c1.3.1 2.4-.6 3-1.7.6-1.1.5-2.4-.2-3.3l4.2-8c1-.1 2-.7 2.5-1.7.8-1.5.2-3.3-1.4-4.1zm-.7 1.5l.7 1.1-.6 1.3-1.3.1-.7-1.1.6-1.3 1.3-.1z" fill="#8A9096"/><path d="M145.401 144.5c-1.5-.8-3.4-.2-4.1 1.3-.5 1-.4 2.1.1 2.9l-4.3 8.2c-1.1.1-2 .7-2.5 1.7-.6 1.1-.5 2.4.3 3.4l1.3-2.7 2.4 1.2-1.3 2.7c1.3.1 2.4-.6 3-1.7.6-1.1.5-2.4-.2-3.3l4.2-8c1-.1 2-.7 2.5-1.7.7-1.4.1-3.2-1.4-4zm-.8 1.5l.7 1.1-.6 1.3-1.3.1-.7-1.1.6-1.3 1.3-.1z" fill="#B9BDC3"/><path d="M140.2 74.785c-13 4.5-27.2-2.4-31.7-15.4" stroke="#9C0F0A" stroke-width="10.5" stroke-miterlimit="10" stroke-linecap="round"/><path d="M140.2 74.785c-13 4.5-27.2-2.4-31.7-15.4" stroke="#9C0F0A" stroke-width="3.036" stroke-miterlimit="10" stroke-linecap="round"/><path d="M139.1 77.785c-13 4.5-27.2-2.4-31.7-15.4" stroke="#F33" stroke-width="10.5" stroke-miterlimit="10" stroke-linecap="round"/><path d="M139.1 77.785c-13 4.5-27.2-2.4-31.7-15.4" stroke="#fff" stroke-width="3.036" stroke-miterlimit="10" stroke-linecap="round"/><path d="M122.12 74.854l25.396-17.952-11.488-11.228-20.66 14.604 6.752 14.576z" fill="#30A658"/><path d="M147.517 56.902l-25.396 17.952 5.889 3.307 20.66-14.604-1.153-6.655z" fill="#fff"/><path d="M128.915 75.806a1.7 1.7 0 10-1.962-2.777 1.7 1.7 0 001.962 2.777zM133.243 72.746a1.7 1.7 0 10-1.962-2.776 1.7 1.7 0 001.962 2.776zM137.489 69.745a1.7 1.7 0 10-1.962-2.777 1.7 1.7 0 001.962 2.777zM141.818 66.686a1.7 1.7 0 10-1.965-2.776 1.7 1.7 0 001.965 2.776zM146.146 63.626a1.7 1.7 0 10-1.964-2.777 1.7 1.7 0 001.964 2.777z" fill="#226D45"/><path d="M148.751 63.5l-20.823 14.719 5.108-.917c.302-.091.605-.183.85-.356l11.759-8.312c.245-.173.432-.428.619-.683l2.487-4.451z" fill="#A8E9A2"/><path opacity=".5" d="M139.453 72.521c2.164-1.53 3.712-3.063 3.457-3.424-.255-.36-2.216.587-4.381 2.117s-3.713 3.064-3.458 3.424c.255.361 2.217-.587 4.382-2.117z" fill="#332F2E"/><path d="M120.894 90.36l-14.168-.961 2.676-1.022c.206-.086.306-.08.505-.066l7.982.542c.2.014.299.02.492.134l2.513 1.373z" fill="#A8E9A2"/><path d="M122.161 93.854L105 92.689l1.827-3.284 13.968.948 1.366 3.5z" fill="#fff"/><path d="M107.848 92.08a.9.9 0 10.123-1.795.9.9 0 00-.123 1.796zM110.741 92.277a.9.9 0 10.122-1.797.9.9 0 00-.122 1.797zM113.635 92.473a.9.9 0 10.123-1.795.9.9 0 00-.123 1.795zM116.528 92.67a.9.9 0 10.122-1.797.9.9 0 00-.122 1.796zM119.423 92.866a.9.9 0 10.121-1.795.9.9 0 00-.121 1.795z" fill="#226D45"/><path d="M53.833 182.7c0 2.8-2.2 5-5 5-6.1 0-11.6 2.9-15 7.5-2.3 3.1-3.7 7-3.7 11.2 0 .9-.6 1.6-1.5 1.8-.9.2-1.9.3-2.9.2-1.6-.1-3.1-.6-4.6-1.4-.6-.4-1-1-1-1.8.2-5.8 2.2-11.2 5.4-15.6 5.2-7.2 13.7-11.9 23.2-11.9.6 0 1.2.1 1.8.3 2 .7 3.3 2.5 3.3 4.7z" fill="#9C0F0A"/><path d="M25.132 207.8c-.8 0-1.4-.6-1.4-1.4 0-13.9 11.3-25.1 25.1-25.1.8 0 1.4.6 1.4 1.4 0 .8-.6 1.4-1.4 1.4-12.3 0-22.3 10-22.3 22.3.1.8-.6 1.4-1.4 1.4z" fill="#9C0F0A"/><path d="M51.434 181.2c-.2 2.6-2.5 4.6-5 4.6-5.8 0-11 2.7-14.4 6.9-2.6 3.2-4.2 7.3-4.2 11.8 0 1.6-.8 3.1-2 4-1.9-.1-3.9-.8-5.6-2.1-.1-.1-.3-.2-.4-.3-1.3-1-2-2.7-1.8-4.4.4-4.3 1.8-8.3 3.9-11.8 5-8.4 14.2-14.1 24.7-14.1 1.7 0 3.3.9 4.2 2.2.4.9.7 2 .6 3.2z" fill="#F33"/><path d="M22.834 205.9c-.8 0-1.4-.6-1.4-1.4 0-13.9 11.3-25.1 25.1-25.1.8 0 1.4.6 1.4 1.4 0 .8-.6 1.4-1.4 1.4-12.3 0-22.3 10-22.3 22.3 0 .8-.6 1.4-1.4 1.4z" fill="#fff"/><path d="M38.633 182.7c0 2.8 2.2 5 5 5 6.1 0 11.6 2.9 15 7.5 2.3 3.1 3.7 7 3.7 11.2 0 .9.6 1.6 1.5 1.8.9.2 1.9.3 2.9.2 1.6-.1 3.1-.6 4.6-1.4.6-.4 1-1 1-1.8-.2-5.8-2.2-11.2-5.4-15.6-5.2-7.2-13.7-11.9-23.2-11.9-.6 0-1.2.1-1.8.3-2 .7-3.3 2.5-3.3 4.7z" fill="#9C0F0A"/><path d="M67.332 207.8c.8 0 1.4-.6 1.4-1.4 0-13.9-11.3-25.1-25.1-25.1-.8 0-1.4.6-1.4 1.4 0 .8.6 1.4 1.4 1.4 12.3 0 22.3 10 22.3 22.3-.1.8.6 1.4 1.4 1.4z" fill="#9C0F0A"/><path d="M41.033 181.2c.2 2.6 2.5 4.6 5 4.6 5.8 0 11 2.7 14.4 6.9 2.6 3.2 4.2 7.3 4.2 11.8 0 1.6.8 3.1 2 4 1.9-.1 3.9-.8 5.6-2.1.1-.1.3-.2.4-.3 1.3-1 2-2.7 1.8-4.4-.4-4.3-1.8-8.3-3.9-11.8-5-8.4-14.2-14.1-24.7-14.1-1.7 0-3.3.9-4.2 2.2-.4.9-.7 2-.6 3.2z" fill="#F33"/><path d="M69.633 205.9c.8 0 1.4-.6 1.4-1.4 0-13.9-11.3-25.1-25.1-25.1-.8 0-1.4.6-1.4 1.4 0 .8.6 1.4 1.4 1.4 12.3 0 22.3 10 22.3 22.3 0 .8.7 1.4 1.4 1.4z" fill="#fff"/><path d="M30.633 178.5h31.1l-2.9 15.8h-25.3l-2.9-15.8z" fill="#30A658"/><path d="M46.234 179.4v28.1" stroke="#F33" stroke-width="9.975" stroke-miterlimit="10" stroke-linecap="round"/><path d="M46.234 179.4v28.1" stroke="#fff" stroke-width="2.884" stroke-miterlimit="10" stroke-linecap="round"/><path d="M58.934 172.4h-25.5l4.7-2.2c.3-.1.6-.2.9-.2h14.4c.3 0 .6.1.9.2l4.6 2.2z" fill="#A8E9A2"/><path opacity=".5" d="M46.234 172c2.65 0 4.8-.358 4.8-.8 0-.442-2.15-.8-4.8-.8-2.651 0-4.8.358-4.8.8 0 .442 2.149.8 4.8.8z" fill="#332F2E"/><path d="M61.733 178.5h-31.1l2.9-6.1h25.3l2.9 6.1z" fill="#fff"/><path d="M35.733 177.1a1.7 1.7 0 100-3.4 1.7 1.7 0 000 3.4zM40.932 177.1a1.7 1.7 0 100-3.4 1.7 1.7 0 000 3.4zM46.233 177.1a1.7 1.7 0 100-3.4 1.7 1.7 0 000 3.4zM51.432 177.1a1.7 1.7 0 100-3.4 1.7 1.7 0 000 3.4zM56.733 177.1a1.7 1.7 0 100-3.4 1.7 1.7 0 000 3.4z" fill="#226D45"/><path d="M52.534 190.6l21.2 22.7-13.5 8.7-17.3-18.5 9.6-12.9z" fill="#30A658"/><path d="M76.234 207.1l-17.4-18.6 4.8 1.9c.3.1.5.3.7.5l9.8 10.5c.2.2.4.5.5.8l1.6 4.9z" fill="#A8E9A2"/><path opacity=".5" d="M71.712 200.497c.323-.301-.881-2.117-2.69-4.055-1.808-1.938-3.536-3.265-3.859-2.964-.323.302.881 2.117 2.69 4.055 1.808 1.939 3.536 3.265 3.86 2.964z" fill="#332F2E"/><path d="M73.733 213.3l-21.2-22.7 6.4-2 17.2 18.5-2.4 6.2z" fill="#fff"/><path d="M58.134 193.9a1.7 1.7 0 100-3.4 1.7 1.7 0 000 3.4zM61.733 197.7a1.7 1.7 0 100-3.4 1.7 1.7 0 000 3.4zM65.333 201.6a1.7 1.7 0 100-3.4 1.7 1.7 0 000 3.4zM68.934 205.4a1.7 1.7 0 100-3.4 1.7 1.7 0 000 3.4zM72.434 209.3a1.7 1.7 0 100-3.4 1.7 1.7 0 000 3.4z" fill="#226D45"/></g><path d="M163.301 126.5c4.142 0 7.5-1.209 7.5-2.7s-3.358-2.7-7.5-2.7c-4.142 0-7.5 1.209-7.5 2.7s3.358 2.7 7.5 2.7z" fill="#B9BDC3"/><path d="M166.801 57.1h-7.1v65.6h7.1V57.1z" fill="#B9BDC3"/><path opacity=".2" d="M166.8 57.1h-1.9v65.6h1.9V57.1z" fill="#000"/><path d="M168.502 33h-10.4v36h10.4V33z" fill="#FA9664"/><path d="M168.402 33l-10.3 5.3v-5.2l.1-.1h10.2zM168.502 40.1l-10.4 5.4v-5.2l10.4-5.4v5.2zM168.502 47.3l-10.4 5.4v-5.2l10.4-5.4v5.2zM168.502 54.5l-10.4 5.4v-5.2l10.4-5.4v5.2zM168.502 61.7l-10.4 5.4v-5.3l10.4-5.3v5.2zM168.501 63.7v5.2l-.2.1h-10.1l10.3-5.3z" fill="#FFF173"/><path d="M168.502 33h-10.4v36h10.4V33z" fill="#FA9664"/><path d="M168.402 33l-10.3 5.3v-5.2l.1-.1h10.2zM168.502 40.1l-10.4 5.4v-5.2l10.4-5.4v5.2zM168.502 47.3l-10.4 5.4v-5.2l10.4-5.4v5.2zM168.502 54.5l-10.4 5.4v-5.2l10.4-5.4v5.2zM168.502 61.7l-10.4 5.4v-5.3l10.4-5.3v5.2zM168.501 63.7v5.2l-.2.1-.2.2c-2.7 3-7.4 2.9-9.9-.2l10.3-5.3z" fill="#FFF173"/><path opacity=".2" d="M168.501 68.9l-2.2 1.8V33h2.2v35.9z" fill="#000"/><path d="M163.1 36.8c7.235 0 13.1-2.15 13.1-4.8 0-2.651-5.865-4.8-13.1-4.8-7.235 0-13.1 2.149-13.1 4.8 0 2.65 5.865 4.8 13.1 4.8z" fill="#FA9664"/><path d="M163.1 36c7.235 0 13.1-2.15 13.1-4.8 0-2.651-5.865-4.8-13.1-4.8-7.235 0-13.1 2.149-13.1 4.8 0 2.65 5.865 4.8 13.1 4.8z" fill="#FFF173"/><path d="M175.199 30.3c0 2.3-5.4 4.2-12 4.2-2.7 0-5.2-.3-7.2-.9-.6-.2-1.2-.3-1.7-.5-.3-.1-.6-.2-.8-.3-.3-.1-.6-.3-.8-.4-1-.6-1.5-1.3-1.5-2.1s.6-1.5 1.5-2.1c.2-.2.5-.3.8-.4.2-.1.5-.2.8-.3.5-.2 1-.4 1.7-.5 2-.5 4.5-.9 7.2-.9 6.6 0 12 1.9 12 4.2z" fill="#6AC86E"/><path d="M175.1 11.1h-22.7v19.5h22.7V11.1z" fill="#219750"/><path d="M174.5 11.1H151v19.5h23.5V11.1z" fill="#6AC86E"/><path d="M170.499 30.3c0 1-3.3 1.8-7.4 1.8-4.1 0-7.4-.8-7.4-1.8s3.3-6.9 7.4-6.9c4.1 0 7.4 5.9 7.4 6.9z" fill="#219750"/><path d="M157.699 30.1c2.486 0 4.5-3 4.5-6.7s-2.014-6.7-4.5-6.7c-2.485 0-4.5 3-4.5 6.7s2.015 6.7 4.5 6.7z" fill="#fff"/><path d="M158.699 30.1c2.486 0 4.5-3 4.5-6.7s-2.014-6.7-4.5-6.7c-2.485 0-4.5 3-4.5 6.7s2.015 6.7 4.5 6.7z" fill="#1A844B"/><path d="M165.1 30.1c2.485 0 4.5-3 4.5-6.7s-2.015-6.7-4.5-6.7c-2.486 0-4.5 3-4.5 6.7s2.014 6.7 4.5 6.7z" fill="#1A844B"/><path d="M168.5 30.1c2.485 0 4.5-3 4.5-6.7s-2.015-6.7-4.5-6.7-4.5 3-4.5 6.7 2.015 6.7 4.5 6.7z" fill="#fff"/><path opacity=".5" d="M154.2 11.1v21.2c-.3-.1-.6-.2-.8-.2-.3-.1-.6-.2-.8-.3V11.1h1.6z" fill="#fff"/><path opacity=".5" d="M155.9 11.1v21.5c-.6-.1-1.2-.2-1.7-.4-.3-.1-.6-.2-.8-.2V10.9l2.5.2z" fill="#fff"/><path d="M163.1 16.4c7.235 0 13.1-2.149 13.1-4.8 0-2.65-5.865-4.8-13.1-4.8-7.235 0-13.1 2.15-13.1 4.8 0 2.651 5.865 4.8 13.1 4.8z" fill="#FA9664"/><path d="M163.1 15.6c7.235 0 13.1-2.149 13.1-4.8S170.335 6 163.1 6c-7.235 0-13.1 2.149-13.1 4.8s5.865 4.8 13.1 4.8z" fill="#FFF173"/><defs><clipPath id="clip0"><path fill="#fff" transform="translate(11 29)" d="M0 0h165v221H0z"/></clipPath></defs></svg>