<svg width="200" height="250" viewBox="0 0 200 250" fill="none" xmlns="http://www.w3.org/2000/svg">
<g clip-path="url(#clip0)">
<path d="M88.1607 155.62L92.4507 155.32L93.2207 151.7L92.0707 148.54L91.1607 148.08L86.9207 148.31L85.0007 152.09L87.3207 155.64L88.1607 155.62ZM90.6607 152.58C90.3407 153.21 89.6607 153.53 89.0007 153.44C88.5307 152.96 88.2707 152.35 88.0107 151.7C87.2507 149.75 89.0307 149.81 90.3707 150.74C90.8407 151.22 90.9807 151.96 90.6607 152.58Z" fill="#8A9096"/>
<path d="M88.7402 151.05C89.1402 150.26 90.1102 149.95 90.9002 150.35C91.6902 150.75 92.0002 151.72 91.6102 152.5C91.2102 153.29 90.2502 153.61 89.4602 153.21C88.6602 152.81 88.3402 151.84 88.7402 151.05ZM92.4902 155.33L94.4102 151.55L92.0902 148L87.8502 148.23L85.9302 152.01L88.2502 155.56L92.4902 155.33Z" fill="#B9BDC3"/>
<path d="M115.59 116.66L120.46 116.31L121.34 112.2L120.03 108.61L118.99 108.08L114.18 108.34L112 112.64L114.64 116.67L115.59 116.66ZM118.44 113.21C118.08 113.92 117.31 114.29 116.56 114.19C116.03 113.65 115.73 112.96 115.43 112.21C114.57 110 116.58 110.07 118.11 111.12C118.64 111.66 118.8 112.5 118.44 113.21Z" fill="#8A9096"/>
<path d="M116.249 111.47C116.699 110.58 117.799 110.22 118.699 110.67C119.599 111.12 119.949 112.22 119.499 113.12C119.049 114.02 117.949 114.38 117.049 113.93C116.159 113.47 115.799 112.37 116.249 111.47ZM120.509 116.33L122.689 112.03L120.059 108L115.249 108.26L113.069 112.56L115.709 116.59L120.509 116.33Z" fill="#B9BDC3"/>
<path d="M106.909 123.675C106.851 123.648 106.802 123.616 106.757 123.571L99.2716 117.885C98.5057 117.303 98.3642 116.225 98.9455 115.459C99.5178 114.697 100.605 114.551 101.371 115.133L108.857 120.819C108.91 120.86 108.95 120.896 108.995 120.941C110.336 120.246 112.008 120.336 113.29 121.309C114.626 122.323 115.149 124.017 114.742 125.544L111.785 123.3L109.924 125.745L112.881 127.989C111.513 128.786 109.746 128.731 108.411 127.717C107.133 126.731 106.596 125.144 106.909 123.675Z" fill="#74797E"/>
<path d="M108.278 123.58C108.22 123.552 108.171 123.521 108.126 123.476L100.641 117.789C99.8748 117.208 99.7333 116.13 100.315 115.364C100.887 114.602 101.974 114.456 102.74 115.037L110.226 120.724C110.279 120.764 110.319 120.801 110.364 120.845C111.705 120.151 113.377 120.241 114.66 121.214C115.995 122.228 116.518 123.922 116.111 125.449L113.154 123.205L111.294 125.649L114.25 127.893C112.882 128.691 111.116 128.636 109.78 127.622C108.497 126.649 107.956 125.054 108.278 123.58Z" fill="#B9BDC3"/>
<path d="M125.676 120.776C126.736 119.436 128.666 119.196 129.986 120.236C130.826 120.906 131.216 121.926 131.116 122.936L138.436 128.596C139.436 128.256 140.586 128.416 141.466 129.116C142.466 129.906 142.946 131.066 142.586 132.366L140.246 130.516L138.546 132.666L140.886 134.516C139.706 135.166 138.446 134.996 137.446 134.196C136.476 133.426 136.036 132.226 136.266 131.076L129.106 125.546C128.136 125.906 127.006 125.776 126.146 125.096C124.826 124.046 124.616 122.116 125.676 120.776ZM126.986 121.766L126.846 123.086L127.946 123.956L129.196 123.516L129.336 122.196L128.236 121.326L126.986 121.766Z" fill="#74797E"/>
<path d="M126.266 120.186C127.326 118.846 129.256 118.606 130.576 119.646C131.416 120.316 131.806 121.336 131.706 122.346L139.026 128.006C140.026 127.666 141.176 127.826 142.056 128.526C143.056 129.316 143.536 130.476 143.176 131.776L140.836 129.926L139.136 132.076L141.476 133.926C140.296 134.576 139.036 134.406 138.036 133.606C137.066 132.836 136.626 131.636 136.856 130.486L129.696 124.956C128.726 125.316 127.596 125.186 126.736 124.506C125.416 123.456 125.206 121.526 126.266 120.186ZM127.576 121.176L127.436 122.496L128.536 123.366L129.786 122.926L129.926 121.606L128.826 120.736L127.576 121.176Z" fill="#B9BDC3"/>
<path d="M128.008 151.31L122.718 139.01L139.138 141.05C143.558 141.6 145.748 146.7 143.108 150.29L133.288 163.59L128.008 151.31Z" fill="white"/>
<path d="M122.717 139.01L133.287 163.59L128.247 160.6C127.817 160.35 127.457 159.92 127.247 159.41L121.577 146.23C121.357 145.72 121.297 145.16 121.407 144.68L122.717 139.01Z" fill="#D8DDE2"/>
<path d="M124.82 152.672C125.749 154.833 127.127 156.316 127.899 155.985C128.67 155.653 128.542 153.632 127.612 151.471C126.683 149.309 125.304 147.826 124.533 148.158C123.762 148.489 123.89 150.51 124.82 152.672Z" fill="#B9BDC3"/>
<path d="M106.359 136L106.359 168.86L100.739 163.04C100.269 162.55 99.9994 161.89 99.9994 161.21L99.9994 143.59C99.9994 142.9 100.269 142.25 100.749 141.75L106.359 136Z" fill="#B71C1C"/>
<path d="M100.76 152.43C100.76 156.18 101.843 159.22 103.18 159.22C104.516 159.22 105.6 156.18 105.6 152.43C105.6 148.68 104.516 145.64 103.18 145.64C101.843 145.64 100.76 148.68 100.76 152.43Z" fill="#9C0F0A"/>
<path d="M101.458 152.43C101.458 155.092 102.229 157.25 103.178 157.25C104.128 157.25 104.898 155.092 104.898 152.43C104.898 149.768 104.128 147.61 103.178 147.61C102.229 147.61 101.458 149.768 101.458 152.43Z" fill="#332F2E"/>
<path d="M106.359 168.86L106.359 136.01L123.029 139.06L123.029 165.81L106.359 168.86Z" fill="#FF3333"/>
<path d="M106.359 168.86L106.359 136.01L117.239 138L123.029 139.06L123.029 165.81L117.239 166.87L106.359 168.86Z" fill="#FF3333"/>
<path d="M117.239 166.87L117.239 138L119.939 138.49L119.949 138.49L123.029 139.06L123.029 165.81L122.869 165.84L119.459 166.47L117.239 166.87Z" fill="white"/>
<path d="M123.029 143.89L117.239 139.62L117.239 138L119.939 138.49L119.949 138.49L123.029 140.77L123.029 143.89Z" fill="#FF3333"/>
<path d="M123.029 150.19L117.239 145.92L117.239 142.8L123.029 147.07L123.029 150.19Z" fill="#FF3333"/>
<path d="M123.029 156.49L117.239 152.22L117.239 149.1L123.029 153.36L123.029 156.49Z" fill="#FF3333"/>
<path d="M123.029 162.79L117.239 158.52L117.239 155.4L123.029 159.66L123.029 162.79Z" fill="#FF3333"/>
<path d="M119.459 166.47L117.239 164.82L117.239 161.7L122.869 165.84L119.459 166.47Z" fill="#FF3333"/>
<path d="M70.2793 135.099H99.7993L94.5793 140.139C94.1393 140.569 93.5493 140.799 92.9393 140.799H77.1093C76.4893 140.799 75.8993 140.559 75.4593 140.129L70.2793 135.099Z" fill="#B71C1C"/>
<path d="M85.0395 140.139C88.4084 140.139 91.1395 139.163 91.1395 137.959C91.1395 136.755 88.4084 135.779 85.0395 135.779C81.6705 135.779 78.9395 136.755 78.9395 137.959C78.9395 139.163 81.6705 140.139 85.0395 140.139Z" fill="#9C0F0A"/>
<path d="M85.039 139.509C87.4304 139.509 89.369 138.815 89.369 137.959C89.369 137.103 87.4304 136.409 85.039 136.409C82.6476 136.409 80.709 137.103 80.709 137.959C80.709 138.815 82.6476 139.509 85.039 139.509Z" fill="#332F2E"/>
<path d="M99.7893 135.099H70.2793L73.0193 120.129H97.0493L99.7893 135.099Z" fill="#FF3333"/>
<path d="M99.7893 135.099H70.2793L72.0693 125.329L73.0193 120.129H97.0493L97.9993 125.329L99.7893 135.099Z" fill="#FF3333"/>
<path d="M85.0395 120.129H73.0195L80.5295 107.309C82.5495 103.859 87.5395 103.859 89.5595 107.309L97.0495 120.129H85.0395Z" fill="white"/>
<path d="M97.9984 125.329H72.0684L72.5084 122.909V122.899L73.0184 120.129H97.0484L97.0784 120.269L97.6384 123.329L97.9984 125.329Z" fill="white"/>
<path d="M77.3584 120.129L73.5284 125.329H72.0684L72.5084 122.909V122.899L74.5584 120.129H77.3584Z" fill="#FF3333"/>
<path d="M83.0187 120.129L79.1887 125.329H76.3887L80.2187 120.129H83.0187Z" fill="#FF3333"/>
<path d="M88.6791 120.129L84.8491 125.329H82.0391L85.8691 120.129H88.6791Z" fill="#FF3333"/>
<path d="M94.3392 120.129L90.5092 125.329H87.6992L91.5292 120.129H94.3392Z" fill="#FF3333"/>
<path d="M97.6374 123.329L96.1674 125.329H93.3574L97.0774 120.269L97.6374 123.329Z" fill="#FF3333"/>
<path d="M130.125 76.0302L146.353 100.687L147.695 93.5453C147.811 92.9432 147.685 92.3154 147.341 91.8103L138.64 78.5921C138.303 78.075 137.778 77.715 137.171 77.5793L130.125 76.0302Z" fill="#B71C1C"/>
<path d="M142.447 85.5965C144.299 88.4106 144.986 91.2285 143.98 91.8905C142.974 92.5525 140.657 90.8078 138.805 87.9938C136.953 85.1797 136.266 82.3618 137.272 81.6998C138.278 81.0378 140.595 82.7825 142.447 85.5965Z" fill="#9C0F0A"/>
<path d="M141.921 85.9429C143.236 87.9404 143.722 89.9413 143.007 90.412C142.292 90.8826 140.647 89.6449 139.332 87.6474C138.017 85.6498 137.531 83.649 138.246 83.1783C138.961 82.7076 140.606 83.9454 141.921 85.9429Z" fill="#332F2E"/>
<path d="M146.353 100.687L130.127 76.0398L119.129 86.5545L132.337 106.628L146.353 100.687Z" fill="#FF3333"/>
<path d="M146.353 100.687L130.127 76.0398L122.949 82.9008L119.129 86.5545L132.337 106.628L137.206 104.568L146.353 100.687Z" fill="#FF3333"/>
<path d="M125.736 96.606L119.122 86.5666L112.538 99.8916C110.767 103.478 113.505 107.645 117.503 107.441L132.332 106.65L125.736 96.606Z" fill="white"/>
<path d="M137.206 104.568L122.949 82.901L121.168 84.6001L121.161 84.6121L119.119 86.5569L132.337 106.628L132.476 106.565L135.338 105.363L137.206 104.568Z" fill="white"/>
<path d="M121.505 90.1793L123.747 84.1212L122.949 82.9007L121.168 84.5998L121.161 84.6118L119.973 87.8363L121.505 90.1793Z" fill="#FF3333"/>
<path d="M124.62 94.905L126.862 88.847L125.32 86.5063L123.078 92.5643L124.62 94.905Z" fill="#FF3333"/>
<path d="M127.736 99.6305L129.977 93.5725L128.423 91.2243L126.184 97.2921L127.736 99.6305Z" fill="#FF3333"/>
<path d="M130.843 104.358L133.085 98.3004L131.54 95.9499L129.301 102.018L130.843 104.358Z" fill="#FF3333"/>
<path d="M135.338 105.363L136.2 103.026L134.657 100.685L132.477 106.565L135.338 105.363Z" fill="#FF3333"/>
<path d="M105.829 63.0508L129.119 81.1908L121.899 81.9608C121.289 82.0208 120.679 81.8508 120.199 81.4708L107.709 71.7508C107.219 71.3708 106.899 70.8208 106.819 70.2108L105.829 63.0508Z" fill="#B71C1C"/>
<path d="M114.382 76.094C117.04 78.1642 119.794 79.0724 120.534 78.1224C121.274 77.1725 119.719 74.7242 117.061 72.654C114.403 70.5838 111.648 69.6756 110.908 70.6255C110.169 71.5755 111.724 74.0238 114.382 76.094Z" fill="#9C0F0A"/>
<path d="M114.767 75.5972C116.654 77.0667 118.61 77.7104 119.136 77.035C119.662 76.3596 118.559 74.6208 116.672 73.1513C114.785 71.6818 112.829 71.038 112.303 71.7134C111.777 72.3888 112.88 74.1277 114.767 75.5972Z" fill="#332F2E"/>
<path d="M94.7902 89.0903L122.49 99.2903L115.84 102.22C115.28 102.47 114.64 102.49 114.07 102.27L99.2202 96.8003C98.6402 96.5903 98.1702 96.1603 97.9002 95.6003L94.7902 89.0903Z" fill="#B71C1C"/>
<path d="M106.907 98.9164C110.068 100.081 112.968 100.109 113.385 98.9788C113.801 97.849 111.575 95.9893 108.414 94.825C105.252 93.6607 102.352 93.6327 101.936 94.7625C101.52 95.8923 103.745 97.7521 106.907 98.9164Z" fill="#9C0F0A"/>
<path d="M107.125 98.3252C109.369 99.1516 111.428 99.1704 111.724 98.3671C112.02 97.5638 110.44 96.2426 108.196 95.4161C105.952 94.5897 103.893 94.5709 103.597 95.3742C103.301 96.1775 104.881 97.4987 107.125 98.3252Z" fill="#332F2E"/>
<path d="M122.49 99.2905L94.7998 89.0905L102.54 75.9905L125.09 84.2905L122.49 99.2905Z" fill="#FF3333"/>
<path d="M122.49 99.2905L94.7998 89.0905L99.8498 80.5405L102.54 75.9905L125.09 84.2905L124.19 89.5005L122.49 99.2905Z" fill="#FF3333"/>
<path d="M113.829 80.1404L102.549 75.9804L114.029 66.5404C117.119 64.0004 121.799 65.7204 122.509 69.6604L125.109 84.2804L113.829 80.1404Z" fill="white"/>
<path d="M124.19 89.5005L99.8498 80.5405L101.1 78.4205L101.11 78.4105L102.54 75.9805L125.09 84.2905L125.06 84.4405L124.54 87.5005L124.19 89.5005Z" fill="white"/>
<path d="M106.609 77.4805L101.219 81.0405L99.8494 80.5405L101.099 78.4205L101.109 78.4105L103.979 76.5205L106.609 77.4805Z" fill="#FF3333"/>
<path d="M111.918 79.4405L106.528 83.0005L103.898 82.0305L109.288 78.4705L111.918 79.4405Z" fill="#FF3333"/>
<path d="M117.229 81.4004L111.839 84.9604L109.199 83.9804L114.599 80.4204L117.229 81.4004Z" fill="#FF3333"/>
<path d="M122.539 83.3506L117.149 86.9106L114.509 85.9406L119.909 82.3806L122.539 83.3506Z" fill="#FF3333"/>
<path d="M124.539 87.5004L122.459 88.8704L119.829 87.9004L125.059 84.4404L124.539 87.5004Z" fill="#FF3333"/>
<path d="M96.876 99.8254L98.0734 70.3254L102.908 75.7511C103.313 76.2089 103.528 76.8137 103.502 77.4161L102.861 93.23C102.832 93.8465 102.573 94.4266 102.128 94.8475L96.876 99.8254Z" fill="#B71C1C"/>
<path d="M100.07 91.2862C101.273 91.3353 102.359 88.6463 102.496 85.2802C102.634 81.9142 101.77 79.1457 100.567 79.0966C99.3639 79.0476 98.2774 81.7366 98.1402 85.1026C98.003 88.4687 98.8669 91.2372 100.07 91.2862Z" fill="#9C0F0A"/>
<path d="M100.141 89.5178C100.997 89.5527 101.769 87.644 101.866 85.2546C101.964 82.8652 101.349 80.9 100.494 80.8651C99.6387 80.8303 98.8663 82.739 98.7689 85.1283C98.6715 87.5177 99.2859 89.4829 100.141 89.5178Z" fill="#332F2E"/>
<path d="M98.0722 70.3395L96.8705 99.8176L82.0209 96.4692L82.9973 72.4652L98.0722 70.3395Z" fill="#FF3333"/>
<path d="M98.0722 70.3395L96.8705 99.8176L87.1896 97.6393L82.0209 96.4692L82.9973 72.4652L88.2384 71.7199L98.0722 70.3395Z" fill="#FF3333"/>
<path d="M82.5134 84.464L82.0273 96.477L69.5256 88.4516C66.1577 86.2915 66.3565 81.3058 69.8958 79.4248L83.0117 72.4669L82.5134 84.464Z" fill="white"/>
<path d="M88.239 71.7198L87.1841 97.6313L84.7794 97.0905L84.7715 97.0966L82.0215 96.4691L83.0058 72.459L83.1497 72.4487L86.2212 72.0051L88.239 71.7198Z" fill="white"/>
<path d="M82.2006 92.1439L87.2477 96.1782L87.1842 97.6313L84.7795 97.0905L84.7716 97.0966L82.0879 94.9379L82.2006 92.1439Z" fill="#FF3333"/>
<path d="M82.4351 86.4856L87.4742 90.5261L87.3615 93.3202L82.3144 89.2858L82.4351 86.4856Z" fill="#FF3333"/>
<path d="M82.6615 80.8333L87.7086 84.8676L87.5941 87.6758L82.547 83.6414L82.6615 80.8333Z" fill="#FF3333"/>
<path d="M82.896 75.1751L87.9352 79.2155L87.8206 82.0237L82.7815 77.9832L82.896 75.1751Z" fill="#FF3333"/>
<path d="M86.2205 72.0052L88.1608 73.5634L88.0463 76.3715L83.149 72.4488L86.2205 72.0052Z" fill="#FF3333"/>
<path d="M68.0536 62.6903L94.476 75.8527L87.552 78.0351C86.9708 78.2169 86.336 78.1724 85.7809 77.8995L71.6185 70.8426C71.0635 70.5697 70.6448 70.0909 70.4435 69.5055L68.0536 62.6903Z" fill="#B71C1C"/>
<path d="M79.0173 73.7759C82.0325 75.2782 84.9121 75.6226 85.449 74.545C85.986 73.4674 83.9768 71.3759 80.9616 69.8736C77.9463 68.3712 75.0667 68.0269 74.5298 69.1045C73.9929 70.1821 76.002 72.2735 79.0173 73.7759Z" fill="#9C0F0A"/>
<path d="M79.2977 73.2119C81.438 74.2783 83.4826 74.5217 83.8644 73.7555C84.2461 72.9893 82.8205 71.5037 80.6801 70.4373C78.5398 69.3709 76.4952 69.1275 76.1135 69.8936C75.7317 70.6598 77.1574 72.1454 79.2977 73.2119Z" fill="#332F2E"/>
<path d="M94.4661 75.8508L68.0632 62.6925L77.1901 50.5098L98.6955 61.2334L94.4661 75.8508Z" fill="#FF3333"/>
<path d="M94.4661 75.8508L68.0632 62.6925L74.0177 54.7473L77.1901 50.5098L98.6955 61.2334L97.2232 66.3174L94.4661 75.8508Z" fill="#FF3333"/>
<path d="M87.9531 55.8736L77.1906 50.5097L89.6281 42.3841C92.9726 40.1987 97.4456 42.4193 97.7112 46.4146L98.6961 61.2333L87.9531 55.8736Z" fill="white"/>
<path d="M97.2253 66.3077L74.0177 54.7473L75.4861 52.772L75.498 52.7643L77.1901 50.5098L98.6955 61.2334L98.6563 61.3682L97.7968 64.3644L97.2253 66.3077Z" fill="white"/>
<path d="M81.0696 52.449L75.3211 55.3957L74.0184 54.7472L75.4867 52.7719L75.4986 52.7642L78.5674 51.1946L81.0696 52.449Z" fill="#FF3333"/>
<path d="M86.1322 54.9705L80.3837 57.9172L77.8795 56.6726L83.628 53.7258L86.1322 54.9705Z" fill="#FF3333"/>
<path d="M91.2045 57.4939L85.456 60.4406L82.9322 59.1918L88.6807 56.2451L91.2045 57.4939Z" fill="#FF3333"/>
<path d="M96.267 60.0154L90.5164 62.9719L88.0045 61.7154L93.753 58.7687L96.267 60.0154Z" fill="#FF3333"/>
<path d="M97.7968 64.3644L95.5797 65.4933L93.0678 64.2368L98.6562 61.3682L97.7968 64.3644Z" fill="#FF3333"/>
<path d="M129.11 81.1804L105.83 63.0504L117.19 52.9204L136.15 67.6904L129.11 81.1804Z" fill="#FF3333"/>
<path d="M129.11 81.1804L105.83 63.0504L113.24 56.4404L117.19 52.9204L136.15 67.6904L133.71 72.3804L129.11 81.1804Z" fill="#FF3333"/>
<path d="M126.68 60.3104L117.19 52.9204L130.99 47.4204C134.71 45.9404 138.65 49.0004 138.12 52.9704L136.15 67.6904L126.68 60.3104Z" fill="white"/>
<path d="M133.71 72.3804L113.25 56.4404L115.08 54.8004L115.09 54.8004L117.19 52.9204L136.15 67.6904L136.08 67.8204L134.65 70.5804L133.71 72.3804Z" fill="white"/>
<path d="M120.619 55.5904L114.399 57.3404L113.249 56.4404L115.079 54.8004L115.089 54.8004L118.409 53.8704L120.619 55.5904Z" fill="#FF3333"/>
<path d="M125.08 59.0603L118.86 60.8203L116.65 59.1003L122.87 57.3403L125.08 59.0603Z" fill="#FF3333"/>
<path d="M129.551 62.5403L123.331 64.2903L121.111 62.5703L127.331 60.8203L129.551 62.5403Z" fill="#FF3333"/>
<path d="M134.01 66.0203L127.79 67.7703L125.57 66.0403L131.79 64.2903L134.01 66.0203Z" fill="#FF3333"/>
<path d="M134.65 70.5803L132.26 71.2503L130.04 69.5203L136.08 67.8203L134.65 70.5803Z" fill="#FF3333"/>
<path d="M100.7 84.5698C101.19 86.9798 103.31 86.9998 104.1 86.5898C104.53 86.3698 104.85 85.9698 105.29 85.7898C105.87 85.5398 106.61 85.7298 107.01 86.2198" stroke="#6AC86E" stroke-width="1.2039" stroke-miterlimit="10" stroke-linecap="round"/>
<path d="M101.019 84.3698C101.429 85.5698 102.539 85.6397 102.809 85.5697C103.079 85.4997 103.309 85.2897 103.469 85.0597C103.629 84.8297 103.739 84.5597 103.889 84.3197C104.309 83.6397 105.009 83.1497 105.789 82.9897" stroke="#FF4081" stroke-width="1.2039" stroke-miterlimit="10" stroke-linecap="round"/>
<path d="M107.14 86.46C107.37 86.83 107.61 87.21 107.84 87.58" stroke="#F9D232" stroke-width="0.5" stroke-miterlimit="10" stroke-linecap="round"/>
<path d="M107.23 82.5898C106.8 82.6898 106.38 82.7998 105.95 82.8998" stroke="#F9D232" stroke-width="0.5" stroke-miterlimit="10" stroke-linecap="round"/>
<path d="M103.17 152.73C102.43 150.1 100.06 150.25 99.2199 150.77C98.7699 151.05 98.4399 151.52 97.9699 151.76C97.3399 152.09 96.5099 151.94 96.0299 151.42" stroke="#6AC86E" stroke-width="1.3403" stroke-miterlimit="10" stroke-linecap="round"/>
<path d="M102.84 152.98C102.29 151.68 101.05 151.7 100.75 151.8C100.45 151.9 100.22 152.15 100.06 152.43C99.8998 152.71 99.7998 153.01 99.6498 153.29C99.2498 154.08 98.4998 154.68 97.6498 154.92" stroke="#FF4081" stroke-width="1.3403" stroke-miterlimit="10" stroke-linecap="round"/>
<path d="M95.8691 151.18C95.5791 150.79 95.2891 150.39 94.9991 150" stroke="#F9D232" stroke-width="0.5566" stroke-miterlimit="10" stroke-linecap="round"/>
<path d="M96.0902 155.47C96.5602 155.32 97.0202 155.17 97.4902 155.01" stroke="#F9D232" stroke-width="0.5566" stroke-miterlimit="10" stroke-linecap="round"/>
<path d="M80.002 71.9722C77.5455 72.0267 77.1464 74.1195 77.4145 74.9649C77.5608 75.426 77.8867 75.8132 78.0015 76.2777C78.1456 76.8917 77.8314 77.5913 77.2759 77.8912" stroke="#6AC86E" stroke-width="1.2039" stroke-miterlimit="10" stroke-linecap="round"/>
<path d="M80.1409 72.3196C78.8829 72.5092 78.6298 73.5901 78.6492 73.8807C78.6706 74.1615 78.8394 74.4228 79.0424 74.62C79.2455 74.8171 79.4863 74.9814 79.7013 75.1709C80.2938 75.6973 80.6571 76.4812 80.6711 77.2719" stroke="#FF4081" stroke-width="1.2039" stroke-miterlimit="10" stroke-linecap="round"/>
<path d="M77.0117 77.9778C76.6072 78.1465 76.195 78.3033 75.7904 78.4719" stroke="#F9D232" stroke-width="0.5" stroke-miterlimit="10" stroke-linecap="round"/>
<path d="M80.7954 78.7409C80.7664 78.305 80.7395 77.8594 80.7106 77.4235" stroke="#F9D232" stroke-width="0.5" stroke-miterlimit="10" stroke-linecap="round"/>
<path d="M86.2148 146.341L84.7793 145.18L76.2387 155.737L77.6742 156.898L86.2148 146.341Z" fill="#B9BDC3"/>
<path d="M86.2173 146.341L84.7743 145.186L85.2866 143.58L87.6622 145.506L86.2173 146.341Z" fill="#B9BDC3"/>
<path d="M88.7784 143.165L87.3496 142.007L85.2859 143.58L87.6615 145.506L88.7784 143.165Z" fill="#B9BDC3"/>
<path d="M72.4691 161.853C71.1292 160.766 70.9116 158.791 71.9962 157.437L75.9563 152.56C77.0438 151.22 79.018 151.002 80.3721 152.087C81.715 153.188 81.9183 155.166 80.8338 156.52L76.8879 161.394C75.8004 162.734 73.8262 162.952 72.4691 161.853Z" fill="#74797E"/>
<path d="M72.6586 157.476C72.4434 157.298 72.4097 156.994 72.5877 156.778L76.6042 151.815C76.7821 151.6 77.087 151.566 77.2992 151.73C77.5144 151.908 77.5481 152.213 77.3701 152.428L73.3424 157.408C73.1786 157.621 72.8738 157.654 72.6586 157.476Z" fill="#41474C"/>
<path d="M75.8362 157.69C75.621 157.512 75.5873 157.207 75.7653 156.992L79.796 152.025C79.974 151.81 80.2788 151.776 80.4941 151.954C80.6921 152.121 80.7287 152.44 80.562 152.638L76.5343 157.619C76.3563 157.834 76.0514 157.868 75.8362 157.69Z" fill="#41474C"/>
<path d="M76.8664 160.642C76.6512 160.464 76.6175 160.159 76.7955 159.944L80.809 154.966C80.987 154.751 81.2918 154.717 81.507 154.895C81.7222 155.073 81.7559 155.378 81.5779 155.593L77.5502 160.574C77.3835 160.772 77.0786 160.805 76.8664 160.642Z" fill="#41474C"/>
<path d="M71.3581 160.866C71.6229 162.139 72.87 162.957 74.1435 162.692C75.417 162.427 76.2347 161.18 75.9698 159.906C75.7049 158.633 74.4579 157.815 73.1844 158.08C71.9109 158.345 71.0932 159.592 71.3581 160.866Z" fill="#41474C"/>
<path d="M145.359 165.704L173.479 174.674L166.969 177.894C166.419 178.164 165.789 178.214 165.199 178.024L150.119 173.214C149.529 173.024 149.039 172.614 148.749 172.074L145.359 165.704Z" fill="#B71C1C"/>
<path d="M164.362 174.768C164.728 173.621 162.422 171.861 159.213 170.837C156.003 169.813 153.105 169.913 152.739 171.06C152.373 172.207 154.678 173.967 157.888 174.991C161.097 176.015 163.996 175.915 164.362 174.768Z" fill="#9C0F0A"/>
<path d="M162.675 174.23C162.935 173.414 161.299 172.164 159.02 171.437C156.742 170.711 154.684 170.783 154.424 171.598C154.164 172.414 155.8 173.664 158.078 174.391C160.357 175.118 162.414 175.046 162.675 174.23Z" fill="#332F2E"/>
<path d="M144 193.954H173.52L168.3 198.994C167.86 199.424 167.27 199.654 166.66 199.654H150.83C150.21 199.654 149.62 199.414 149.18 198.984L144 193.954Z" fill="#B71C1C"/>
<path d="M158.76 198.984C162.129 198.984 164.86 198.008 164.86 196.804C164.86 195.6 162.129 194.624 158.76 194.624C155.391 194.624 152.66 195.6 152.66 196.804C152.66 198.008 155.391 198.984 158.76 198.984Z" fill="#9C0F0A"/>
<path d="M158.76 198.354C161.151 198.354 163.09 197.66 163.09 196.804C163.09 195.948 161.151 195.254 158.76 195.254C156.368 195.254 154.43 195.948 154.43 196.804C154.43 197.66 156.368 198.354 158.76 198.354Z" fill="#332F2E"/>
<path d="M173.52 193.954H144.01L146.75 178.974H170.78L173.52 193.954Z" fill="#FF3333"/>
<path d="M173.52 193.954H144.01L145.8 184.184L146.75 178.974H170.78L171.73 184.184L173.52 193.954Z" fill="#FF3333"/>
<path d="M158.77 178.974H146.75L154.26 166.154C156.28 162.704 161.27 162.704 163.29 166.154L170.78 178.974H158.77Z" fill="white"/>
<path d="M171.729 184.184H145.799L146.239 181.754L146.749 178.974H170.779L170.799 179.124L171.369 182.184L171.729 184.184Z" fill="white"/>
<path d="M151.089 178.974L147.259 184.184H145.799L146.239 181.754L148.279 178.974H151.089Z" fill="#FF3333"/>
<path d="M156.749 178.974L152.919 184.184H150.109L153.939 178.974H156.749Z" fill="#FF3333"/>
<path d="M162.4 178.974L158.58 184.184H155.76L159.59 178.974H162.4Z" fill="#FF3333"/>
<path d="M168.058 178.974L164.228 184.184H161.418L165.248 178.974H168.058Z" fill="#FF3333"/>
<path d="M171.368 182.184L169.888 184.184H167.078L170.798 179.124L171.368 182.184Z" fill="#FF3333"/>
<path d="M173.479 174.674L145.369 165.704L152.529 152.274L175.419 159.574L173.479 174.674Z" fill="#FF3333"/>
<path d="M173.479 174.674L145.369 165.704L150.039 156.944L152.529 152.274L175.419 159.574L174.749 164.824L173.479 174.674Z" fill="#FF3333"/>
<path d="M163.98 155.924L152.52 152.274L163.57 142.344C166.54 139.674 171.3 141.184 172.18 145.094L175.42 159.584L163.98 155.924Z" fill="white"/>
<path d="M174.739 164.824L150.039 156.944L151.189 154.764L151.199 154.754L152.519 152.274L175.419 159.574L175.399 159.724L175.009 162.804L174.739 164.824Z" fill="white"/>
<path d="M156.659 153.594L151.429 157.384L150.039 156.944L151.189 154.764L151.199 154.754L153.989 152.744L156.659 153.594Z" fill="#FF3333"/>
<path d="M162.048 155.314L156.818 159.104L154.148 158.254L159.378 154.464L162.048 155.314Z" fill="#FF3333"/>
<path d="M167.439 157.034L162.209 160.824L159.529 159.974L164.759 156.174L167.439 157.034Z" fill="#FF3333"/>
<path d="M172.83 158.754L167.6 162.544L164.93 161.694L170.16 157.894L172.83 158.754Z" fill="#FF3333"/>
<path d="M175.008 162.804L172.988 164.264L170.318 163.414L175.398 159.724L175.008 162.804Z" fill="#FF3333"/>
<path d="M159.9 196.094C157.27 196.834 157.42 199.204 157.94 200.044C158.22 200.494 158.69 200.824 158.93 201.294C159.26 201.924 159.11 202.754 158.59 203.234" stroke="#6AC86E" stroke-width="1.3403" stroke-miterlimit="10" stroke-linecap="round"/>
<path d="M160.149 196.424C158.849 196.974 158.869 198.214 158.969 198.514C159.069 198.814 159.319 199.044 159.599 199.204C159.879 199.364 160.179 199.464 160.459 199.614C161.249 200.014 161.849 200.764 162.089 201.614" stroke="#FF4081" stroke-width="1.3403" stroke-miterlimit="10" stroke-linecap="round"/>
<path d="M158.35 203.394C157.96 203.684 157.56 203.974 157.17 204.264" stroke="#F9D232" stroke-width="0.5566" stroke-miterlimit="10" stroke-linecap="round"/>
<path d="M162.64 203.174C162.49 202.704 162.34 202.244 162.18 201.774" stroke="#F9D232" stroke-width="0.5566" stroke-miterlimit="10" stroke-linecap="round"/>
</g>
<path d="M44.8773 188.822L49.5391 217.972L43.7337 213.614C43.2413 213.248 42.9166 212.708 42.8234 212.099L40.3233 196.471C40.2302 195.863 40.3647 195.241 40.7248 194.741L44.8773 188.822Z" fill="#B71C1C"/>
<path d="M42.2393 204.198C42.7719 207.524 44.1674 210.067 45.3563 209.876C46.5451 209.686 47.0771 206.835 46.5445 203.508C46.0119 200.182 44.6163 197.639 43.4275 197.83C42.2386 198.02 41.7067 200.871 42.2393 204.198Z" fill="#9C0F0A"/>
<path d="M42.8599 204.098C43.2379 206.459 44.2297 208.264 45.0749 208.129C45.9202 207.993 46.299 205.969 45.9209 203.608C45.5428 201.247 44.5511 199.442 43.7058 199.578C42.8605 199.713 42.4818 201.737 42.8599 204.098Z" fill="#332F2E"/>
<path d="M49.5329 217.964L44.8702 188.829L60.0924 189.165L63.8901 212.897L49.5329 217.964Z" fill="#FF3333"/>
<path d="M49.5404 217.958L44.8777 188.822L54.7992 189.045L60.0924 189.165L63.8901 212.897L58.9008 214.662L49.5404 217.958Z" fill="#FF3333"/>
<path d="M61.9909 201.031L60.0854 189.157L73.9353 194.552C77.6641 195.997 78.4546 200.934 75.3615 203.473L63.8831 212.89L61.9909 201.031Z" fill="white"/>
<path d="M58.9083 214.655L54.7992 189.045L57.2619 189.099L57.276 189.1L60.0924 189.165L63.8901 212.897L63.7527 212.937L60.818 213.985L58.9083 214.655Z" fill="white"/>
<path d="M60.7776 193.449L55.0332 190.485L54.7983 189.045L57.261 189.099L57.2751 189.1L60.3358 190.677L60.7776 193.449Z" fill="#FF3333"/>
<path d="M61.6721 199.039L55.9277 196.075L55.4784 193.308L61.2303 196.266L61.6721 199.039Z" fill="#FF3333"/>
<path d="M62.5608 204.62L56.823 201.664L56.3812 198.891L62.119 201.847L62.5608 204.62Z" fill="#FF3333"/>
<path d="M63.4553 210.21L57.7175 207.253L57.2757 204.48L63.0135 207.437L63.4553 210.21Z" fill="#FF3333"/>
<path d="M60.8172 213.985L58.6129 212.842L58.1645 210.062L63.752 212.937L60.8172 213.985Z" fill="#FF3333"/>
<path d="M44.3594 203.912C42.3587 202.486 40.7865 203.924 40.4955 204.762C40.3368 205.219 40.3662 205.724 40.1802 206.165C39.9282 206.743 39.2578 207.115 38.6333 207.023" stroke="#6AC86E" stroke-width="1.2039" stroke-miterlimit="10" stroke-linecap="round"/>
<path d="M44.2635 204.274C43.1421 203.673 42.2925 204.388 42.1341 204.632C41.9833 204.87 41.9621 205.18 42.0069 205.46C42.0516 205.739 42.1462 206.015 42.2051 206.296C42.3648 207.072 42.1867 207.917 41.7248 208.559" stroke="#FF4081" stroke-width="1.2039" stroke-miterlimit="10" stroke-linecap="round"/>
<path d="M38.3691 206.934C37.9441 206.827 37.52 206.706 37.095 206.599" stroke="#F9D232" stroke-width="0.5" stroke-miterlimit="10" stroke-linecap="round"/>
<path d="M40.9434 209.81C41.181 209.443 41.4261 209.07 41.6637 208.704" stroke="#F9D232" stroke-width="0.5" stroke-miterlimit="10" stroke-linecap="round"/>
<path d="M163.301 126.5C167.443 126.5 170.801 125.291 170.801 123.8C170.801 122.309 167.443 121.1 163.301 121.1C159.159 121.1 155.801 122.309 155.801 123.8C155.801 125.291 159.159 126.5 163.301 126.5Z" fill="#B9BDC3"/>
<path d="M166.801 57.1001H159.701V122.7H166.801V57.1001Z" fill="#B9BDC3"/>
<path opacity="0.2" d="M166.8 57.1001H164.9V122.7H166.8V57.1001Z" fill="black"/>
<path d="M168.502 33H158.102V69H168.502V33Z" fill="#FA9664"/>
<path d="M168.402 33L158.102 38.3V33.1L158.202 33H168.402Z" fill="#FFF173"/>
<path d="M168.502 40.0999L158.102 45.4999V40.2999L168.502 34.8999V40.0999Z" fill="#FFF173"/>
<path d="M168.502 47.3001L158.102 52.7001V47.5001L168.502 42.1001V47.3001Z" fill="#FFF173"/>
<path d="M168.502 54.5L158.102 59.9001V54.7001L168.502 49.3V54.5Z" fill="#FFF173"/>
<path d="M168.502 61.7L158.102 67.1V61.8L168.502 56.5V61.7Z" fill="#FFF173"/>
<path d="M168.501 63.7V68.9L168.301 69H158.201L168.501 63.7Z" fill="#FFF173"/>
<path d="M168.502 33H158.102V69H168.502V33Z" fill="#FA9664"/>
<path d="M168.402 33L158.102 38.3V33.1L158.202 33H168.402Z" fill="#FFF173"/>
<path d="M168.502 40.0999L158.102 45.4999V40.2999L168.502 34.8999V40.0999Z" fill="#FFF173"/>
<path d="M168.502 47.3001L158.102 52.7001V47.5001L168.502 42.1001V47.3001Z" fill="#FFF173"/>
<path d="M168.502 54.5L158.102 59.9001V54.7001L168.502 49.3V54.5Z" fill="#FFF173"/>
<path d="M168.502 61.7L158.102 67.1V61.8L168.502 56.5V61.7Z" fill="#FFF173"/>
<path d="M168.501 63.7V68.9L168.301 69L168.101 69.2C165.401 72.2 160.701 72.1 158.201 69L168.501 63.7Z" fill="#FFF173"/>
<path opacity="0.2" d="M168.501 68.9L166.301 70.7V33H168.501V68.9Z" fill="black"/>
<path d="M163.1 36.7999C170.335 36.7999 176.2 34.6509 176.2 32C176.2 29.349 170.335 27.2 163.1 27.2C155.865 27.2 150 29.349 150 32C150 34.6509 155.865 36.7999 163.1 36.7999Z" fill="#FA9664"/>
<path d="M163.1 35.9999C170.335 35.9999 176.2 33.8509 176.2 31.1999C176.2 28.5489 170.335 26.3999 163.1 26.3999C155.865 26.3999 150 28.5489 150 31.1999C150 33.8509 155.865 35.9999 163.1 35.9999Z" fill="#FFF173"/>
<path d="M175.199 30.3001C175.199 32.6001 169.799 34.5001 163.199 34.5001C160.499 34.5001 157.999 34.2001 155.999 33.6001C155.399 33.4001 154.799 33.3001 154.299 33.1001C153.999 33.0001 153.699 32.9001 153.499 32.8001C153.199 32.7001 152.899 32.5001 152.699 32.4001C151.699 31.8001 151.199 31.1001 151.199 30.3001C151.199 29.5001 151.799 28.8001 152.699 28.2001C152.899 28.0001 153.199 27.9001 153.499 27.8001C153.699 27.7001 153.999 27.6001 154.299 27.5001C154.799 27.3001 155.299 27.1001 155.999 27.0001C157.999 26.5001 160.499 26.1001 163.199 26.1001C169.799 26.1001 175.199 28.0001 175.199 30.3001Z" fill="#6AC86E"/>
<path d="M175.1 11.1001H152.4V30.6001H175.1V11.1001Z" fill="#219750"/>
<path d="M174.5 11.1001H151V30.6001H174.5V11.1001Z" fill="#6AC86E"/>
<path d="M170.499 30.3001C170.499 31.3001 167.199 32.1001 163.099 32.1001C158.999 32.1001 155.699 31.3001 155.699 30.3001C155.699 29.3001 158.999 23.4001 163.099 23.4001C167.199 23.4001 170.499 29.3001 170.499 30.3001Z" fill="#219750"/>
<path d="M157.699 30.1C160.185 30.1 162.199 27.1003 162.199 23.4C162.199 19.6996 160.185 16.7 157.699 16.7C155.214 16.7 153.199 19.6996 153.199 23.4C153.199 27.1003 155.214 30.1 157.699 30.1Z" fill="white"/>
<path d="M158.699 30.1C161.185 30.1 163.199 27.1003 163.199 23.4C163.199 19.6996 161.185 16.7 158.699 16.7C156.214 16.7 154.199 19.6996 154.199 23.4C154.199 27.1003 156.214 30.1 158.699 30.1Z" fill="#1A844B"/>
<path d="M165.1 30.1C167.585 30.1 169.6 27.1003 169.6 23.4C169.6 19.6996 167.585 16.7 165.1 16.7C162.614 16.7 160.6 19.6996 160.6 23.4C160.6 27.1003 162.614 30.1 165.1 30.1Z" fill="#1A844B"/>
<path d="M168.5 30.1C170.985 30.1 173 27.1003 173 23.4C173 19.6996 170.985 16.7 168.5 16.7C166.015 16.7 164 19.6996 164 23.4C164 27.1003 166.015 30.1 168.5 30.1Z" fill="white"/>
<path opacity="0.5" d="M154.2 11.1001V32.3001C153.9 32.2001 153.6 32.1001 153.4 32.1001C153.1 32.0001 152.8 31.9001 152.6 31.8001V11.1001H154.2Z" fill="white"/>
<path opacity="0.5" d="M155.9 11.0999V32.5999C155.3 32.4999 154.7 32.3999 154.2 32.1999C153.9 32.0999 153.6 31.9999 153.4 31.9999V10.8999L155.9 11.0999Z" fill="white"/>
<path d="M163.1 16.4C170.335 16.4 176.2 14.251 176.2 11.6C176.2 8.94908 170.335 6.80005 163.1 6.80005C155.865 6.80005 150 8.94908 150 11.6C150 14.251 155.865 16.4 163.1 16.4Z" fill="#FA9664"/>
<path d="M163.1 15.6C170.335 15.6 176.2 13.451 176.2 10.8C176.2 8.14903 170.335 6 163.1 6C155.865 6 150 8.14903 150 10.8C150 13.451 155.865 15.6 163.1 15.6Z" fill="#FFF173"/>
<defs>
<clipPath id="clip0">
<rect width="217" height="180" fill="white" transform="translate(200 7) rotate(90)"/>
</clipPath>
</defs>
</svg>
