<svg width="200" height="250" viewBox="0 0 200 250" fill="none" xmlns="http://www.w3.org/2000/svg">
<mask id="mask0" mask-type="alpha" maskUnits="userSpaceOnUse" x="150" y="142" width="36" height="58">
<rect x="150" y="142" width="36" height="58" fill="#C4C4C4"/>
</mask>
<g mask="url(#mask0)">
<path d="M172.3 199.6H149.2L148 178.1H173.5L172.3 199.6Z" fill="#C6FFC0"/>
<path d="M153.001 195.4C154.216 195.4 155.201 192.49 155.201 188.9C155.201 185.31 154.216 182.4 153.001 182.4C151.786 182.4 150.801 185.31 150.801 188.9C150.801 192.49 151.786 195.4 153.001 195.4Z" fill="#FF3333"/>
<path d="M160.7 195.4C161.915 195.4 162.9 192.49 162.9 188.9C162.9 185.31 161.915 182.4 160.7 182.4C159.485 182.4 158.5 185.31 158.5 188.9C158.5 192.49 159.485 195.4 160.7 195.4Z" fill="#FF3333"/>
<path d="M168.401 195.4C169.616 195.4 170.601 192.49 170.601 188.9C170.601 185.31 169.616 182.4 168.401 182.4C167.186 182.4 166.201 185.31 166.201 188.9C166.201 192.49 167.186 195.4 168.401 195.4Z" fill="#FF3333"/>
<path d="M173.5 178.2H148L152.5 174.1C152.9 173.8 153.4 173.6 153.9 173.6H167.6C168.1 173.6 168.6 173.8 169 174.1L173.5 178.2Z" fill="#6AC86E"/>
<path d="M160.701 177.4C163.407 177.4 165.601 176.728 165.601 175.9C165.601 175.071 163.407 174.4 160.701 174.4C157.995 174.4 155.801 175.071 155.801 175.9C155.801 176.728 157.995 177.4 160.701 177.4Z" fill="#226D45"/>
<path d="M160.8 176.3C158.6 174.9 159.3 172.8 160 172.2C160.4 171.9 160.9 171.7 161.2 171.3C161.7 170.8 161.7 170 161.4 169.4" stroke="#6AC86E" stroke-width="1.2833" stroke-miterlimit="10" stroke-linecap="round"/>
<path d="M161.101 176C160.001 175.2 160.401 174 160.501 173.8C160.701 173.5 161.001 173.4 161.301 173.3C161.601 173.2 161.901 173.2 162.201 173.1C163.001 172.9 163.801 172.4 164.201 171.7" stroke="#FF4081" stroke-width="1.2833" stroke-miterlimit="10" stroke-linecap="round"/>
<path d="M161.201 169.1C160.901 168.7 160.601 168.4 160.301 168" stroke="#F9D232" stroke-width="0.533" stroke-miterlimit="10" stroke-linecap="round"/>
<path d="M165.101 170.4C164.801 170.8 164.601 171.2 164.301 171.6" stroke="#F9D232" stroke-width="0.533" stroke-miterlimit="10" stroke-linecap="round"/>
<path d="M166.3 176.6H143.1L142 155.1H167.5L166.3 176.6Z" fill="#C6FFC0"/>
<path d="M154.7 172.4C155.915 172.4 156.9 169.49 156.9 165.9C156.9 162.31 155.915 159.4 154.7 159.4C153.485 159.4 152.5 162.31 152.5 165.9C152.5 169.49 153.485 172.4 154.7 172.4Z" fill="#FF3333"/>
<path d="M162.401 172.4C163.616 172.4 164.601 169.49 164.601 165.9C164.601 162.31 163.616 159.4 162.401 159.4C161.186 159.4 160.201 162.31 160.201 165.9C160.201 169.49 161.186 172.4 162.401 172.4Z" fill="#FF3333"/>
<path d="M167.5 155.2H142L146.5 151.1C146.9 150.8 147.4 150.6 147.9 150.6H161.6C162.1 150.6 162.6 150.8 163 151.1L167.5 155.2Z" fill="#6AC86E"/>
<path d="M154.701 154.4C157.407 154.4 159.601 153.728 159.601 152.9C159.601 152.071 157.407 151.4 154.701 151.4C151.995 151.4 149.801 152.071 149.801 152.9C149.801 153.728 151.995 154.4 154.701 154.4Z" fill="#226D45"/>
<path d="M154.8 153.3C152.6 151.9 153.3 149.8 154 149.2C154.4 148.9 154.9 148.7 155.2 148.3C155.7 147.8 155.7 147 155.4 146.4" stroke="#6AC86E" stroke-width="1.2833" stroke-miterlimit="10" stroke-linecap="round"/>
<path d="M155.101 153C154.001 152.2 154.401 151 154.501 150.8C154.701 150.5 155.001 150.4 155.301 150.3C155.601 150.2 155.901 150.2 156.201 150.1C157.001 149.9 157.801 149.4 158.201 148.7" stroke="#FF4081" stroke-width="1.2833" stroke-miterlimit="10" stroke-linecap="round"/>
<path d="M155.201 146.1C154.901 145.7 154.601 145.4 154.301 145" stroke="#F9D232" stroke-width="0.533" stroke-miterlimit="10" stroke-linecap="round"/>
<path d="M159.101 147.4C158.801 147.8 158.601 148.2 158.301 148.6" stroke="#F9D232" stroke-width="0.533" stroke-miterlimit="10" stroke-linecap="round"/>
</g>
<path d="M132 203.15L132 180.05L153.5 178.85L153.5 204.35L132 203.15Z" fill="#C6FFC0"/>
<path d="M136.199 183.85C136.199 185.065 139.109 186.05 142.699 186.05C146.289 186.05 149.199 185.065 149.199 183.85C149.199 182.635 146.289 181.65 142.699 181.65C139.109 181.65 136.199 182.635 136.199 183.85Z" fill="#FF3333"/>
<path d="M136.199 191.65C136.199 192.865 139.109 193.85 142.699 193.85C146.289 193.85 149.199 192.865 149.199 191.65C149.199 190.435 146.289 189.45 142.699 189.45C139.109 189.45 136.199 190.435 136.199 191.65Z" fill="#FF3333"/>
<path d="M136.199 199.35C136.199 200.565 139.109 201.55 142.699 201.55C146.289 201.55 149.199 200.565 149.199 199.35C149.199 198.135 146.289 197.15 142.699 197.15C139.109 197.15 136.199 198.135 136.199 199.35Z" fill="#FF3333"/>
<path d="M153.5 204.35L153.5 178.85L157.5 183.35C157.8 183.75 158 184.25 158 184.75L158 198.45C158 198.95 157.8 199.45 157.5 199.85L153.5 204.35Z" fill="#6AC86E"/>
<path d="M154.299 191.65C154.299 194.356 154.97 196.55 155.799 196.55C156.627 196.55 157.299 194.356 157.299 191.65C157.299 188.944 156.627 186.75 155.799 186.75C154.97 186.75 154.299 188.944 154.299 191.65Z" fill="#226D45"/>
<path d="M155.399 191.65C156.799 189.45 158.899 190.15 159.499 190.85C159.799 191.25 159.999 191.75 160.399 192.05C160.899 192.55 161.699 192.55 162.299 192.25" stroke="#6AC86E" stroke-width="1.2833" stroke-miterlimit="10" stroke-linecap="round"/>
<path d="M155.6 191.95C156.4 190.85 157.6 191.25 157.8 191.35C158.1 191.55 158.2 191.85 158.3 192.15C158.4 192.45 158.4 192.75 158.5 193.05C158.7 193.85 159.2 194.65 159.9 195.05" stroke="#FF4081" stroke-width="1.2833" stroke-miterlimit="10" stroke-linecap="round"/>
<path d="M162.5 192.05C162.9 191.75 163.2 191.45 163.6 191.15" stroke="#F9D232" stroke-width="0.533" stroke-miterlimit="10" stroke-linecap="round"/>
<path d="M161.199 195.95C160.799 195.65 160.399 195.45 159.999 195.15" stroke="#F9D232" stroke-width="0.533" stroke-miterlimit="10" stroke-linecap="round"/>
<g clip-path="url(#clip0)">
<path d="M78.2008 63.7L82.5008 63.4L83.3008 59.7L82.1008 56.5L81.2008 56L76.9008 56.2L75.0008 60L77.4008 63.6L78.2008 63.7ZM80.7008 60.6C80.4008 61.2 79.7008 61.6 79.0008 61.5C78.5008 61 78.3008 60.4 78.0008 59.7C77.2008 57.7 79.0008 57.8 80.4008 58.7C80.9008 59.2 81.1008 59.9 80.7008 60.6Z" fill="#8A9096"/>
<path d="M78.8 59C79.2 58.2 80.2 57.9 81 58.3C81.8 58.7 82.1 59.7 81.7 60.5C81.3 61.3 80.3 61.6 79.5 61.2C78.7 60.8 78.4 59.8 78.8 59ZM82.6 63.4L84.5 59.6L82.2 56L77.9 56.2L76 60L78.4 63.6L82.6 63.4Z" fill="#B9BDC3"/>
<path d="M69.9012 163.5L72.6012 165.1L74.6012 163.2L75.2012 160.8L74.8012 160.1L72.2012 158.5L69.5012 160L69.4012 163.1L69.9012 163.5ZM72.6012 162.7C72.1012 162.9 71.6012 162.9 71.2012 162.5C71.1012 162 71.2012 161.5 71.3012 161C71.7012 159.5 72.7012 160.3 73.1012 161.4C73.3012 162 73.1012 162.5 72.6012 162.7Z" fill="#8A9096"/>
<path d="M72.1004 161C72.7004 160.7 73.4004 160.9 73.7004 161.5C74.0004 162.1 73.8004 162.8 73.2004 163.1C72.6004 163.4 71.9004 163.2 71.6004 162.6C71.3004 162 71.6004 161.3 72.1004 161ZM72.6004 165.2L75.3004 163.7L75.4004 160.6L72.8004 159L70.1004 160.5L70.0004 163.6L72.6004 165.2Z" fill="#B9BDC3"/>
<path d="M79.6008 106.1L83.0008 108.1L85.5008 105.8L86.3008 102.8L85.8008 102L82.5008 100L79.1008 101.8L79.0008 105.7L79.6008 106.1ZM83.1008 105.1C82.5008 105.4 81.9008 105.3 81.4008 104.9C81.3008 104.3 81.4008 103.7 81.6008 103.1C82.0008 101.2 83.3008 102.2 83.9008 103.6C83.9008 104.2 83.7008 104.8 83.1008 105.1Z" fill="#8A9096"/>
<path d="M82.4 103C83.1 102.6 84 102.9 84.4 103.6C84.8 104.3 84.5 105.2 83.8 105.6C83.1 106 82.2 105.7 81.8 105C81.5 104.2 81.7 103.3 82.4 103ZM83 108.1L86.4 106.3L86.5 102.4L83.2 100.4L79.8 102.2L79.7 106.1L83 108.1Z" fill="#B9BDC3"/>
<path d="M93.6996 114.7L97.5996 111.8L96.0996 107.9L93.0996 105.6L91.8996 105.7L87.9996 108.5L88.4996 113.3L92.8996 115.3L93.6996 114.7ZM94.2996 110.3C94.3996 111.1 93.8996 111.8 93.1996 112.1C92.4996 111.9 91.7996 111.5 91.1996 111C89.2996 109.6 90.9996 108.6 92.8996 108.6C93.5996 108.9 94.1996 109.5 94.2996 110.3Z" fill="#8A9096"/>
<path d="M91.4992 110C91.3992 109 92.0992 108.1 93.0992 108C94.0992 107.9 94.9992 108.6 95.0992 109.6C95.1992 110.6 94.4992 111.5 93.4992 111.6C92.4992 111.7 91.5992 111 91.4992 110ZM97.6992 111.8L97.1992 107L92.7992 105L88.8992 107.8L89.3992 112.6L93.7992 114.6L97.6992 111.8Z" fill="#B9BDC3"/>
<path d="M103.444 116.043L101.044 106.143C100.844 105.243 101.344 104.243 102.344 104.043L110.744 102.043C111.644 101.843 112.644 102.343 112.844 103.343L115.244 113.243C115.444 114.143 114.944 115.143 113.944 115.343L105.544 117.343C104.644 117.543 103.644 117.043 103.444 116.043Z" fill="#B9BDC3"/>
<path d="M104.143 116.043L101.743 106.143C101.543 105.243 102.043 104.243 103.043 104.043L111.443 102.043C112.343 101.843 113.343 102.343 113.543 103.343L115.943 113.243C116.143 114.143 115.643 115.143 114.643 115.343L106.243 117.343C105.343 117.543 104.443 117.043 104.143 116.043Z" fill="#333333"/>
<path d="M114.242 113.843L111.742 103.543L109.642 104.043L112.142 114.343L114.242 113.843Z" fill="#BBE5FA"/>
<path d="M109.143 109.643L107.843 104.543L103.043 105.743L104.343 110.843L109.143 109.643Z" fill="#BBE5FA"/>
<path d="M105.643 113.343L105.543 113.143C105.343 112.143 105.943 111.143 106.943 110.843C107.943 110.643 108.943 111.244 109.243 112.244L109.343 112.444C109.543 113.444 108.943 114.444 107.943 114.744C106.843 114.944 105.843 114.343 105.643 113.343Z" fill="#F8BF15"/>
<path d="M90.5748 143.189L88.8535 142.385L82.7986 155.34L84.5199 156.144L90.5748 143.189Z" fill="#B9BDC3"/>
<path d="M90.6061 143.196L88.8391 142.275L88.9373 140.567L91.8513 141.893L90.6061 143.196Z" fill="#B9BDC3"/>
<path d="M92.4191 139.251L90.6347 138.429L88.9378 140.567L91.8518 141.893L92.4191 139.251Z" fill="#B9BDC3"/>
<path d="M80.4951 162.534C78.8093 161.729 78.137 159.783 78.9419 158.097L81.7272 152.09C82.5321 150.404 84.4784 149.731 86.1643 150.536C87.8501 151.341 88.5224 153.288 87.7175 154.973L84.9322 160.981C84.0461 162.551 82.0825 163.322 80.4951 162.534Z" fill="#FF7733"/>
<path d="M79.5687 158.005C79.2906 157.854 79.2442 157.541 79.2789 157.344L82.1801 151.255C82.3307 150.977 82.6435 150.931 82.8404 150.966C83.1185 151.116 83.1649 151.429 83.1302 151.626L80.229 157.715C80.0785 157.993 79.7483 158.138 79.5687 158.005Z" fill="#E2632D"/>
<path d="M82.8109 157.459C82.5328 157.309 82.4864 156.996 82.5211 156.799L85.4223 150.71C85.5729 150.432 85.8857 150.386 86.0826 150.421C86.3607 150.571 86.4071 150.884 86.3724 151.081L83.4712 157.17C83.4191 157.465 83.1063 157.511 82.8109 157.459Z" fill="#E2632D"/>
<path d="M84.6605 160.222C84.3824 160.072 84.336 159.759 84.3707 159.562L87.2719 153.473C87.4225 153.195 87.7353 153.149 87.9322 153.183C88.2103 153.334 88.2567 153.647 88.222 153.844L85.3208 159.933C85.1703 160.211 84.8575 160.257 84.6605 160.222Z" fill="#E2632D"/>
<path d="M78.8567 160.316C78.617 161.676 79.525 162.972 80.8847 163.212C82.2445 163.452 83.5411 162.544 83.7808 161.184C84.0205 159.824 83.1126 158.528 81.7528 158.288C80.3931 158.048 79.0964 158.956 78.8567 160.316Z" fill="#E2632D"/>
<path d="M110.875 162.774L109.675 162.174L110.175 160.674L110.875 162.774Z" fill="#74797E"/>
<path d="M103.475 157.074C103.475 156.974 103.375 156.974 103.375 156.874L99.1753 148.474C98.7753 147.574 99.0753 146.574 99.9753 146.174C100.875 145.774 101.875 146.074 102.275 146.974L106.475 155.374C106.475 155.474 106.575 155.474 106.575 155.574C108.075 155.574 109.575 156.374 110.275 157.774C110.975 159.274 110.775 160.974 109.675 162.174L107.975 158.874L105.175 160.274L106.875 163.574C105.275 163.674 103.775 162.874 102.975 161.374C102.275 159.974 102.475 158.274 103.475 157.074Z" fill="#74797E"/>
<path d="M104.674 157.574C104.674 157.474 104.574 157.474 104.574 157.374L100.374 148.974C99.9745 148.074 100.274 147.074 101.174 146.674C102.074 146.274 103.074 146.574 103.474 147.474L107.674 155.874C107.674 155.974 107.774 155.974 107.774 156.074C109.274 156.074 110.774 156.874 111.474 158.274C112.174 159.774 111.974 161.474 110.874 162.674L109.174 159.374L106.374 160.774L108.074 164.074C106.474 164.174 104.974 163.374 104.174 161.874C103.574 160.474 103.774 158.774 104.674 157.574Z" fill="#B9BDC3"/>
<path d="M145.109 72.3585L142.712 95.4487L121.217 94.3587L123.803 69.0093L145.109 72.3585Z" fill="#C6FFC0"/>
<path d="M132.574 88.2605C129.004 87.886 126.007 88.5621 125.88 89.7705C125.754 90.9789 128.545 92.2621 132.115 92.6365C135.686 93.0109 138.683 92.3348 138.81 91.1264C138.936 89.918 136.145 88.6349 132.574 88.2605Z" fill="#FF3333"/>
<path d="M133.457 80.6184C129.887 80.2439 126.89 80.92 126.763 82.1284C126.636 83.3368 129.428 84.62 132.998 84.9944C136.569 85.3688 139.566 84.6928 139.692 83.4843C139.819 82.2759 137.028 80.9928 133.457 80.6184Z" fill="#FF3333"/>
<path d="M134.24 72.9655C130.67 72.5911 127.673 73.2672 127.546 74.4756C127.42 75.684 130.211 76.9671 133.782 77.3416C137.352 77.716 140.349 77.0399 140.476 75.8315C140.602 74.6231 137.811 73.34 134.24 72.9655Z" fill="#FF3333"/>
<path d="M123.883 68.9496L121.217 94.3586L117.577 89.4634C117.279 89.0621 117.141 88.5415 117.223 87.9819L118.661 74.3278C118.743 73.7681 119.025 73.3093 119.366 72.9307L123.883 68.9496Z" fill="#6AC86E"/>
<path d="M120.704 76.5845C119.88 76.4981 118.984 78.6099 118.701 81.3013C118.419 83.9928 118.858 86.2447 119.682 86.3311C120.506 86.4175 121.403 84.3057 121.685 81.6142C121.967 78.9228 121.528 76.6709 120.704 76.5845Z" fill="#226D45"/>
<path d="M120.611 81.4762C119.022 83.5296 116.946 82.5809 116.409 81.8587C116.111 81.4574 115.973 80.9368 115.674 80.5356C115.177 80.0335 114.417 79.8503 113.796 80.1877" stroke="#6AC86E" stroke-width="1.2833" stroke-miterlimit="10" stroke-linecap="round"/>
<path d="M120.453 81.0955C119.529 82.0316 118.451 81.5871 118.192 81.406C117.932 81.225 117.834 80.9245 117.815 80.5645C117.716 80.264 117.757 79.9842 117.739 79.6241C117.642 78.8237 117.266 77.9821 116.488 77.4389" stroke="#FF4081" stroke-width="1.2833" stroke-miterlimit="10" stroke-linecap="round"/>
<path d="M113.577 80.2267C113.175 80.525 112.795 80.6834 112.393 80.9818" stroke="#F9D232" stroke-width="0.533" stroke-miterlimit="10" stroke-linecap="round"/>
<path d="M115.272 76.4739C115.651 76.8155 115.97 77.0768 116.348 77.4184" stroke="#F9D232" stroke-width="0.533" stroke-miterlimit="10" stroke-linecap="round"/>
<path d="M67.9988 77.2C67.9988 81.8392 71.7596 85.6001 76.3988 85.6001C81.038 85.6001 84.7988 81.8392 84.7988 77.2C84.7988 72.5609 81.038 68.8 76.3988 68.8C71.7596 68.8 67.9988 72.5608 67.9988 77.2Z" fill="#B9BDC3"/>
<path d="M69.2996 76.4C69.2996 81.0392 73.0604 84.8 77.6996 84.8C82.3388 84.8 86.0996 81.0392 86.0996 76.4C86.0996 71.7608 82.3388 68 77.6996 68C73.0604 68 69.2996 71.7608 69.2996 76.4Z" fill="white"/>
<path d="M73.4 76.4001C73.4 78.7749 75.3252 80.7001 77.7 80.7001C80.0748 80.7001 82 78.7749 82 76.4001C82 74.0253 80.0748 72.1001 77.7 72.1001C75.3252 72.1001 73.4 74.0253 73.4 76.4001Z" fill="#FF3333"/>
<path d="M103.001 128.3C103.001 132.939 106.762 136.7 111.401 136.7C116.04 136.7 119.801 132.939 119.801 128.3C119.801 123.661 116.04 119.9 111.401 119.9C106.762 119.9 103.001 123.661 103.001 128.3Z" fill="#B9BDC3"/>
<path d="M104.2 127.4C104.2 132.039 107.961 135.8 112.6 135.8C117.239 135.8 121 132.039 121 127.4C121 122.761 117.239 119 112.6 119C107.961 119 104.2 122.761 104.2 127.4Z" fill="white"/>
<path d="M108.3 127.4C108.3 129.775 110.226 131.7 112.6 131.7C114.975 131.7 116.9 129.775 116.9 127.4C116.9 125.025 114.975 123.1 112.6 123.1C110.226 123.1 108.3 125.025 108.3 127.4Z" fill="#FF3333"/>
<path d="M92.5953 155.3C91.0953 157.6 92.7953 159.3 93.6953 159.6C94.1953 159.8 94.7953 159.7 95.2953 159.9C95.9953 160.2 96.3953 160.9 96.2953 161.6" stroke="#6AC86E" stroke-width="1.3403" stroke-miterlimit="10" stroke-linecap="round"/>
<path d="M96.1953 161.8C96.0953 162.3 95.9953 162.8 95.8953 163.2" stroke="#F9D232" stroke-width="0.5566" stroke-miterlimit="10" stroke-linecap="round"/>
<path d="M94.9688 148.705C92.6853 150.23 93.5799 152.461 94.2895 153.091C94.6705 153.471 95.2615 153.615 95.6426 153.996C96.1683 154.547 96.2608 155.348 95.8936 155.952" stroke="#6AC86E" stroke-width="1.3403" stroke-miterlimit="10" stroke-linecap="round"/>
<path d="M95.8145 156.136C95.5259 156.556 95.2374 156.977 94.9881 157.305" stroke="#F9D232" stroke-width="0.5566" stroke-miterlimit="10" stroke-linecap="round"/>
<path d="M75.1102 111.7C76.8102 111.6 78.1102 110.2 78.0102 108.5C77.9102 107.4 77.3102 106.5 76.5102 106L76.1102 96.7999C77.0102 96.1999 77.5102 95.2 77.4102 94C77.3102 92.7 76.7102 91.7 75.4102 91.2L75.6102 94.2L72.9102 94.2999L72.7102 91.2999C71.5102 91.8999 70.9102 92.9999 71.0102 94.2999C71.1102 95.4999 71.8102 96.6 72.9102 97.1L73.3102 106.1C72.4102 106.7 71.9102 107.7 72.0102 108.8C71.9102 110.5 73.4102 111.7 75.1102 111.7ZM75.1102 110L73.9102 109.4L73.8102 108L74.9102 107.2L76.1102 107.8L76.2102 109.2L75.1102 110Z" fill="#74797E"/>
<path d="M75.5094 91.2L76.5094 91L76.6094 92.1L75.5094 92.1L75.5094 91.2Z" fill="#74797E"/>
<path d="M73.8105 91.2L72.7105 91.2999L72.7105 92.9L73.8105 91.2Z" fill="#74797E"/>
<path d="M76.2098 111.5C77.9098 111.4 79.2098 110 79.1098 108.3C79.0098 107.2 78.4098 106.3 77.6098 105.8L77.2098 96.6C78.1098 96 78.6098 95 78.5098 93.8C78.4098 92.5 77.8098 91.5 76.5098 91L76.7098 94L74.0098 94.1L73.8098 91.1C72.6098 91.7 72.0098 92.8 72.1098 94.1C72.2098 95.3 72.9098 96.4 74.0098 96.9L74.4098 105.9C73.5098 106.5 73.0098 107.5 73.1098 108.6C73.0098 110.3 74.5098 111.6 76.2098 111.5ZM76.1098 109.9L74.9098 109.3L74.8098 107.9L75.9098 107.1L77.1098 107.7L77.2098 109.1L76.1098 109.9Z" fill="#B9BDC3"/>
<path d="M73.9992 148.5C74.5992 149.8 75.7992 149.8 76.0992 149.7C76.3992 149.6 76.5992 149.3 76.7992 149.1C76.9992 148.8 77.0992 148.5 77.1992 148.2C77.5992 147.4 78.2992 146.8 79.1992 146.6" stroke="#FF4081" stroke-width="1.3403" stroke-miterlimit="10" stroke-linecap="round"/>
<path d="M80.6992 146C80.1992 146.2 79.7992 146.3 79.2992 146.5" stroke="#F9D232" stroke-width="0.5566" stroke-miterlimit="10" stroke-linecap="round"/>
<path d="M112.357 78.423L97.8168 60.3954L113.95 46.0021L129.842 65.9306L112.357 78.423Z" fill="#C6FFC0"/>
<path d="M103.577 60.7216C104.338 61.669 107.223 60.615 110.023 58.3674C112.822 56.1198 114.474 53.5297 113.713 52.5824C112.953 51.635 110.067 52.689 107.268 54.9366C104.469 57.1842 102.816 59.7743 103.577 60.7216Z" fill="#FF3333"/>
<path d="M108.464 66.7307C109.224 67.6781 112.11 66.624 114.909 64.3764C117.708 62.1288 119.361 59.5388 118.6 58.5914C117.839 57.644 114.954 58.698 112.154 60.9456C109.355 63.1932 107.703 65.7833 108.464 66.7307Z" fill="#FF3333"/>
<path d="M113.27 72.8022C114.031 73.7496 116.917 72.6956 119.716 70.448C122.515 68.2004 124.167 65.6103 123.407 64.6629C122.646 63.7155 119.76 64.7696 116.961 67.0172C114.162 69.2648 112.509 71.8548 113.27 72.8022Z" fill="#FF3333"/>
<path d="M129.843 65.9306L113.852 46.0098L119.842 46.9484C120.349 47.0094 120.771 47.2775 121.108 47.7527L129.661 58.4221C129.991 58.7977 130.137 59.3881 130.176 59.8866L129.843 65.9306Z" fill="#6AC86E"/>
<path d="M122.438 55.4356C124.132 57.5457 126.029 58.8358 126.675 58.3171C127.321 57.7984 126.471 55.6674 124.777 53.5573C123.083 51.4472 121.185 50.157 120.539 50.6757C119.893 51.1944 120.743 53.3255 122.438 55.4356Z" fill="#226D45"/>
<path d="M123.361 54.7994C123.06 52.215 125.108 51.4541 126.12 51.576C126.626 51.637 127.048 51.9051 127.555 51.966C128.26 52.0115 128.927 51.5585 129.18 50.937" stroke="#6AC86E" stroke-width="1.2833" stroke-miterlimit="10" stroke-linecap="round"/>
<path d="M123.768 54.8681C123.767 53.5642 124.832 53.0802 125.131 53.057C125.431 53.0337 125.745 53.2099 125.96 53.3938C126.175 53.5777 126.39 53.7616 126.612 54.0452C127.257 54.5969 128.178 54.8262 128.975 54.7643" stroke="#FF4081" stroke-width="1.2833" stroke-miterlimit="10" stroke-linecap="round"/>
<path d="M129.157 50.6379C129.226 50.2313 129.386 49.7173 129.455 49.3108" stroke="#F9D232" stroke-width="0.533" stroke-miterlimit="10" stroke-linecap="round"/>
<path d="M130.662 54.533C130.164 54.5717 129.765 54.6027 129.266 54.6414" stroke="#F9D232" stroke-width="0.533" stroke-miterlimit="10" stroke-linecap="round"/>
<path d="M130.851 95.6783L149.907 108.735L138.744 127.149L117.708 112.736L130.851 95.6783Z" fill="#C6FFC0"/>
<path d="M138.909 114.17C136.88 117.132 136.048 120.089 137.05 120.776C138.052 121.463 140.51 119.619 142.539 116.657C144.568 113.696 145.4 110.739 144.398 110.052C143.396 109.365 140.938 111.209 138.909 114.17Z" fill="#FF3333"/>
<path d="M132.476 109.762C130.447 112.723 129.614 115.681 130.616 116.367C131.619 117.054 134.076 115.21 136.105 112.249C138.134 109.287 138.967 106.33 137.964 105.643C136.962 104.956 134.505 106.8 132.476 109.762Z" fill="#FF3333"/>
<path d="M126.122 105.409C124.093 108.371 123.261 111.328 124.263 112.015C125.265 112.702 127.723 110.858 129.752 107.896C131.781 104.935 132.613 101.978 131.611 101.291C130.609 100.604 128.151 102.448 126.122 105.409Z" fill="#FF3333"/>
<path d="M117.708 112.736L138.744 127.149L132.714 127.988C132.215 128.01 131.689 127.892 131.277 127.609L119.975 119.866C119.563 119.583 119.263 119.135 119.103 118.662L117.708 112.736Z" fill="#6AC86E"/>
<path d="M122.843 119.042C122.375 119.726 123.805 121.52 126.038 123.049C128.27 124.579 130.459 125.265 130.928 124.581C131.396 123.898 129.966 122.104 127.733 120.574C125.501 119.045 123.311 118.359 122.843 119.042Z" fill="#226D45"/>
<path d="M127.111 121.482C128.134 123.88 126.37 125.217 125.453 125.316C124.954 125.338 124.428 125.22 123.954 125.38C123.259 125.51 122.807 126.17 122.715 126.835" stroke="#6AC86E" stroke-width="1.2833" stroke-miterlimit="10" stroke-linecap="round"/>
<path d="M126.75 121.477C127.205 122.759 126.197 123.523 126.001 123.631C125.806 123.74 125.363 123.679 125.059 123.592C124.755 123.505 124.507 123.335 124.203 123.248C123.43 122.961 122.488 122.921 121.762 123.272" stroke="#FF4081" stroke-width="1.2833" stroke-miterlimit="10" stroke-linecap="round"/>
<path d="M122.767 127.113C122.789 127.612 122.867 128.029 122.888 128.529" stroke="#F9D232" stroke-width="0.533" stroke-miterlimit="10" stroke-linecap="round"/>
<path d="M120.285 123.836C120.758 123.675 121.149 123.459 121.623 123.298" stroke="#F9D232" stroke-width="0.533" stroke-miterlimit="10" stroke-linecap="round"/>
<path d="M85.0459 109.678L65.9899 122.735L77.1524 141.149L98.1882 126.736L85.0459 109.678Z" fill="#C6FFC0"/>
<path d="M76.9873 128.17C79.0164 131.132 79.8487 134.089 78.8464 134.776C77.8441 135.463 75.3867 133.619 73.3576 130.657C71.3285 127.696 70.4961 124.739 71.4985 124.052C72.5008 123.365 74.9582 125.209 76.9873 128.17Z" fill="#FF3333"/>
<path d="M83.4209 123.762C85.45 126.723 86.2823 129.681 85.28 130.367C84.2777 131.054 81.8203 129.21 79.7912 126.249C77.7621 123.287 76.9297 120.33 77.932 119.643C78.9344 118.956 81.3918 120.8 83.4209 123.762Z" fill="#FF3333"/>
<path d="M89.7744 119.409C91.8035 122.371 92.6358 125.328 91.6335 126.015C90.6312 126.702 88.1738 124.858 86.1447 121.896C84.1156 118.935 83.2832 115.978 84.2856 115.291C85.2879 114.604 87.7453 116.448 89.7744 119.409Z" fill="#FF3333"/>
<path d="M98.1882 126.736L77.1523 141.149L83.182 141.988C83.6815 142.01 84.207 141.892 84.6195 141.609L95.9211 133.866C96.3336 133.583 96.633 133.135 96.7934 132.662L98.1882 126.736Z" fill="#6AC86E"/>
<path d="M93.0533 133.042C93.5215 133.726 92.0914 135.52 89.859 137.049C87.6265 138.579 85.4372 139.265 84.9689 138.581C84.5007 137.898 85.9308 136.104 88.1633 134.574C90.3957 133.045 92.585 132.359 93.0533 133.042Z" fill="#226D45"/>
<path d="M93.4 84.2998L79 66.0998L95.2 51.7998L111 71.8998L93.4 84.2998Z" fill="#C6FFC0"/>
<path d="M84.7234 66.5438C85.4771 67.4967 88.3705 66.4641 91.1861 64.2373C94.0016 62.0105 95.673 59.4328 94.9193 58.4799C94.1657 57.5269 91.2723 58.5596 88.4567 60.7863C85.6412 63.0131 83.9698 65.5908 84.7234 66.5438Z" fill="#FF3333"/>
<path d="M89.4871 72.5486C90.2408 73.5016 93.1342 72.4689 95.9497 70.2422C98.7653 68.0154 100.437 65.4377 99.683 64.4847C98.9293 63.5318 96.0359 64.5644 93.2204 66.7912C90.4049 69.018 88.7334 71.5957 89.4871 72.5486Z" fill="#FF3333"/>
<path d="M94.3133 78.6319C95.067 79.5848 97.9604 78.5522 100.776 76.3254C103.591 74.0986 105.263 71.5209 104.509 70.568C103.756 69.615 100.862 70.6477 98.0466 72.8745C95.2311 75.1013 93.5596 77.6789 94.3133 78.6319Z" fill="#FF3333"/>
<path d="M110.9 71.8999L95.1004 51.8999L101.1 52.8999C101.6 52.9999 102.1 53.2999 102.4 53.6999L110.9 64.3999C111.2 64.7999 111.4 65.2999 111.4 65.8999L110.9 71.8999Z" fill="#6AC86E"/>
<path d="M103.659 61.4388C105.338 63.5613 107.225 64.8653 107.875 64.3515C108.525 63.8376 107.691 61.7004 106.012 59.5779C104.333 57.4555 102.446 56.1514 101.796 56.6653C101.146 57.1792 101.981 59.3164 103.659 61.4388Z" fill="#226D45"/>
<path d="M88.792 102.213L81.3838 80.2276L101.375 72.2251L109.55 96.4849L88.792 102.213Z" fill="#C6FFC0"/>
<path d="M86.7034 82.5504C87.0914 83.7018 90.1637 83.706 93.5656 82.5597C96.9675 81.4134 99.4108 79.5507 99.0228 78.3993C98.6348 77.2479 95.5625 77.2437 92.1606 78.39C88.7587 79.5363 86.3154 81.399 86.7034 82.5504Z" fill="#FF3333"/>
<path d="M89.1624 89.8473C89.5504 90.9987 92.6227 91.0029 96.0246 89.8566C99.4265 88.7103 101.87 86.8476 101.482 85.6962C101.094 84.5447 98.0215 84.5406 94.6196 85.6869C91.2177 86.8332 88.7744 88.6959 89.1624 89.8473Z" fill="#FF3333"/>
<path d="M91.6214 97.1442C92.0094 98.2956 95.0817 98.2997 98.4836 97.1534C101.885 96.0071 104.329 94.1444 103.941 92.993C103.553 91.8416 100.48 91.8375 97.0786 92.9838C93.6767 94.1301 91.2334 95.9928 91.6214 97.1442Z" fill="#FF3333"/>
<path d="M109.549 96.4849L101.406 72.3199L106.729 75.2751C107.141 75.5584 107.49 75.9684 107.65 76.4422L112.024 89.425C112.184 89.8988 112.154 90.4365 111.998 90.9113L109.549 96.4849Z" fill="#6AC86E"/>
<path d="M106.22 84.0995C107.084 86.664 108.421 88.5285 109.206 88.264C109.991 87.9994 109.927 85.706 109.063 83.1415C108.199 80.577 106.862 78.7125 106.077 78.977C105.292 79.2416 105.356 81.535 106.22 84.0995Z" fill="#226D45"/>
<path d="M107.261 83.7482C107.885 81.2164 110.098 81.2092 110.89 81.6809C111.302 81.9642 111.652 82.3741 112.127 82.5307C112.76 82.8449 113.518 82.5894 113.991 82.1135" stroke="#6AC86E" stroke-width="1.2833" stroke-miterlimit="10" stroke-linecap="round"/>
<path d="M107.673 84.0315C108.08 82.7336 109.345 82.7295 109.567 82.7604C109.788 82.7913 110.105 83.1065 110.296 83.3589C110.487 83.6112 110.582 83.8955 110.773 84.1479C111.218 84.8421 111.947 85.4406 112.738 85.5961" stroke="#FF4081" stroke-width="1.2833" stroke-miterlimit="10" stroke-linecap="round"/>
<path d="M114.149 81.9549C114.433 81.5429 114.621 81.1628 114.904 80.7507" stroke="#F9D232" stroke-width="0.533" stroke-miterlimit="10" stroke-linecap="round"/>
<path d="M114.162 86.066C113.687 85.9094 113.244 85.8476 112.769 85.691" stroke="#F9D232" stroke-width="0.533" stroke-miterlimit="10" stroke-linecap="round"/>
<path d="M137.4 162.6H114.2L113 141.1H138.6L137.4 162.6Z" fill="#C6FFC0"/>
<path d="M118.1 158.3C119.315 158.3 120.3 155.39 120.3 151.8C120.3 148.21 119.315 145.3 118.1 145.3C116.885 145.3 115.9 148.21 115.9 151.8C115.9 155.39 116.885 158.3 118.1 158.3Z" fill="#FF3333"/>
<path d="M125.8 158.3C127.015 158.3 128 155.39 128 151.8C128 148.21 127.015 145.3 125.8 145.3C124.585 145.3 123.6 148.21 123.6 151.8C123.6 155.39 124.585 158.3 125.8 158.3Z" fill="#FF3333"/>
<path d="M133.501 158.3C134.716 158.3 135.701 155.39 135.701 151.8C135.701 148.21 134.716 145.3 133.501 145.3C132.286 145.3 131.301 148.21 131.301 151.8C131.301 155.39 132.286 158.3 133.501 158.3Z" fill="#FF3333"/>
<path d="M138.6 141.1H113L117.5 137C117.9 136.7 118.4 136.5 118.9 136.5H132.6C133.1 136.5 133.6 136.7 134 137L138.6 141.1Z" fill="#6AC86E"/>
<path d="M125.8 140.3C128.507 140.3 130.7 139.628 130.7 138.8C130.7 137.972 128.507 137.3 125.8 137.3C123.094 137.3 120.9 137.972 120.9 138.8C120.9 139.628 123.094 140.3 125.8 140.3Z" fill="#226D45"/>
<path d="M125.8 139.2C123.6 137.8 124.3 135.7 125 135.1C125.4 134.8 125.9 134.6 126.2 134.2C126.7 133.7 126.7 132.9 126.4 132.3" stroke="#6AC86E" stroke-width="1.2833" stroke-miterlimit="10" stroke-linecap="round"/>
<path d="M126.101 139C125.001 138.2 125.401 137 125.501 136.8C125.601 136.6 126.001 136.4 126.301 136.3C126.601 136.2 126.901 136.2 127.201 136.1C128.001 135.9 128.801 135.4 129.201 134.7" stroke="#FF4081" stroke-width="1.2833" stroke-miterlimit="10" stroke-linecap="round"/>
<path d="M126.3 132.1C126 131.7 125.7 131.4 125.4 131" stroke="#F9D232" stroke-width="0.533" stroke-miterlimit="10" stroke-linecap="round"/>
<path d="M130.2 133.4C129.9 133.8 129.7 134.2 129.4 134.6" stroke="#F9D232" stroke-width="0.533" stroke-miterlimit="10" stroke-linecap="round"/>
<path d="M36.3008 128.5C40.4429 128.5 43.8008 127.291 43.8008 125.8C43.8008 124.309 40.4429 123.1 36.3008 123.1C32.1586 123.1 28.8008 124.309 28.8008 125.8C28.8008 127.291 32.1586 128.5 36.3008 128.5Z" fill="#B9BDC3"/>
<path d="M39.8012 59.1001H32.7012V124.7H39.8012V59.1001Z" fill="#B9BDC3"/>
<path opacity="0.2" d="M39.8004 59.1001H37.9004V124.7H39.8004V59.1001Z" fill="black"/>
<path d="M41.5016 35H31.1016V71H41.5016V35Z" fill="#FA9664"/>
<path d="M41.4016 35L31.1016 40.3V35.1L31.2016 35H41.4016Z" fill="#FFF173"/>
<path d="M41.5016 42.0999L31.1016 47.4999V42.2999L41.5016 36.8999V42.0999Z" fill="#FFF173"/>
<path d="M41.5016 49.3001L31.1016 54.7001V49.5001L41.5016 44.1001V49.3001Z" fill="#FFF173"/>
<path d="M41.5016 56.5L31.1016 61.9001V56.7001L41.5016 51.3V56.5Z" fill="#FFF173"/>
<path d="M41.5016 63.7L31.1016 69.1V63.8L41.5016 58.5V63.7Z" fill="#FFF173"/>
<path d="M41.5012 65.7V70.9L41.3012 71H31.2012L41.5012 65.7Z" fill="#FFF173"/>
<path d="M41.5016 35H31.1016V71H41.5016V35Z" fill="#FA9664"/>
<path d="M41.4016 35L31.1016 40.3V35.1L31.2016 35H41.4016Z" fill="#FFF173"/>
<path d="M41.5016 42.0999L31.1016 47.4999V42.2999L41.5016 36.8999V42.0999Z" fill="#FFF173"/>
<path d="M41.5016 49.3001L31.1016 54.7001V49.5001L41.5016 44.1001V49.3001Z" fill="#FFF173"/>
<path d="M41.5016 56.5L31.1016 61.9001V56.7001L41.5016 51.3V56.5Z" fill="#FFF173"/>
<path d="M41.5016 63.7L31.1016 69.1V63.8L41.5016 58.5V63.7Z" fill="#FFF173"/>
<path d="M41.5012 65.7V70.9L41.3012 71L41.1012 71.2C38.4012 74.2 33.7012 74.1 31.2012 71L41.5012 65.7Z" fill="#FFF173"/>
<path opacity="0.2" d="M41.5008 70.9L39.3008 72.7V35H41.5008V70.9Z" fill="black"/>
<path d="M36.1 38.7999C43.3349 38.7999 49.2 36.6509 49.2 34C49.2 31.349 43.3349 29.2 36.1 29.2C28.8651 29.2 23 31.349 23 34C23 36.6509 28.8651 38.7999 36.1 38.7999Z" fill="#FA9664"/>
<path d="M36.1 37.9999C43.3349 37.9999 49.2 35.8509 49.2 33.1999C49.2 30.5489 43.3349 28.3999 36.1 28.3999C28.8651 28.3999 23 30.5489 23 33.1999C23 35.8509 28.8651 37.9999 36.1 37.9999Z" fill="#FFF173"/>
<path d="M48.1992 32.3001C48.1992 34.6001 42.7992 36.5001 36.1992 36.5001C33.4992 36.5001 30.9992 36.2001 28.9992 35.6001C28.3992 35.4001 27.7992 35.3001 27.2992 35.1001C26.9992 35.0001 26.6992 34.9001 26.4992 34.8001C26.1992 34.7001 25.8992 34.5001 25.6992 34.4001C24.6992 33.8001 24.1992 33.1001 24.1992 32.3001C24.1992 31.5001 24.7992 30.8001 25.6992 30.2001C25.8992 30.0001 26.1992 29.9001 26.4992 29.8001C26.6992 29.7001 26.9992 29.6001 27.2992 29.5001C27.7992 29.3001 28.2992 29.1001 28.9992 29.0001C30.9992 28.5001 33.4992 28.1001 36.1992 28.1001C42.7992 28.1001 48.1992 30.0001 48.1992 32.3001Z" fill="#6AC86E"/>
<path d="M48.1004 13.1001H25.4004V32.6001H48.1004V13.1001Z" fill="#219750"/>
<path d="M47.5 13.1001H24V32.6001H47.5V13.1001Z" fill="#6AC86E"/>
<path d="M43.4992 32.3001C43.4992 33.3001 40.1992 34.1001 36.0992 34.1001C31.9992 34.1001 28.6992 33.3001 28.6992 32.3001C28.6992 31.3001 31.9992 25.4001 36.0992 25.4001C40.1992 25.4001 43.4992 31.3001 43.4992 32.3001Z" fill="#219750"/>
<path d="M30.6992 32.1C33.1845 32.1 35.1992 29.1003 35.1992 25.4C35.1992 21.6996 33.1845 18.7 30.6992 18.7C28.2139 18.7 26.1992 21.6996 26.1992 25.4C26.1992 29.1003 28.2139 32.1 30.6992 32.1Z" fill="white"/>
<path d="M31.6992 32.1C34.1845 32.1 36.1992 29.1003 36.1992 25.4C36.1992 21.6996 34.1845 18.7 31.6992 18.7C29.2139 18.7 27.1992 21.6996 27.1992 25.4C27.1992 29.1003 29.2139 32.1 31.6992 32.1Z" fill="#1A844B"/>
<path d="M38.0996 32.1C40.5849 32.1 42.5996 29.1003 42.5996 25.4C42.5996 21.6996 40.5849 18.7 38.0996 18.7C35.6143 18.7 33.5996 21.6996 33.5996 25.4C33.5996 29.1003 35.6143 32.1 38.0996 32.1Z" fill="#1A844B"/>
<path d="M41.5 32.1C43.9853 32.1 46 29.1003 46 25.4C46 21.6996 43.9853 18.7 41.5 18.7C39.0147 18.7 37 21.6996 37 25.4C37 29.1003 39.0147 32.1 41.5 32.1Z" fill="white"/>
<path opacity="0.5" d="M27.1996 13.1001V34.3001C26.8996 34.2001 26.5996 34.1001 26.3996 34.1001C26.0996 34.0001 25.7996 33.9001 25.5996 33.8001V13.1001H27.1996Z" fill="white"/>
<path opacity="0.5" d="M28.9004 13.0999V34.5999C28.3004 34.4999 27.7004 34.3999 27.2004 34.1999C26.9004 34.0999 26.6004 33.9999 26.4004 33.9999V12.8999L28.9004 13.0999Z" fill="white"/>
<path d="M36.1 18.4C43.3349 18.4 49.2 16.251 49.2 13.6C49.2 10.9491 43.3349 8.80005 36.1 8.80005C28.8651 8.80005 23 10.9491 23 13.6C23 16.251 28.8651 18.4 36.1 18.4Z" fill="#FA9664"/>
<path d="M36.1 17.6C43.3349 17.6 49.2 15.451 49.2 12.8C49.2 10.149 43.3349 8 36.1 8C28.8651 8 23 10.149 23 12.8C23 15.451 28.8651 17.6 36.1 17.6Z" fill="#FFF173"/>
<path d="M27.3 137.1L21 124.6L32.3 118.1L39.3 131.9L27.3 137.1Z" fill="#6AC86E"/>
<path d="M26.3 135.1L20 122.6L31.3 116L38.2 129.8L26.3 135.1Z" fill="#C6FFC0"/>
<path d="M27.4254 122.952C29.3475 121.981 30.6229 120.633 30.274 119.943C29.9252 119.253 28.0842 119.482 26.162 120.454C24.2399 121.426 22.9645 122.773 23.3133 123.463C23.6622 124.153 25.5032 123.924 27.4254 122.952Z" fill="#FF3333"/>
<path d="M29.5386 127.153C31.4608 126.181 32.7362 124.834 32.3873 124.144C32.0385 123.454 30.1974 123.683 28.2753 124.654C26.3531 125.626 25.0777 126.973 25.4266 127.663C25.7755 128.353 27.6165 128.125 29.5386 127.153Z" fill="#FF3333"/>
<path d="M31.6539 131.354C33.576 130.382 34.8514 129.035 34.5026 128.345C34.1537 127.655 32.3127 127.883 30.3905 128.855C28.4684 129.827 27.193 131.174 27.5418 131.864C27.8907 132.554 29.7317 132.326 31.6539 131.354Z" fill="#FF3333"/>
<path d="M32.0008 129.3C32.0008 133.939 35.7616 137.7 40.4008 137.7C45.04 137.7 48.8008 133.939 48.8008 129.3C48.8008 124.661 45.04 120.9 40.4008 120.9C35.7616 120.9 32.0008 124.661 32.0008 129.3Z" fill="#B9BDC3"/>
<path d="M33.2 128.4C33.2 133.039 36.9608 136.8 41.6 136.8C46.2392 136.8 50 133.039 50 128.4C50 123.761 46.2392 120 41.6 120C36.9608 120 33.2 123.761 33.2 128.4Z" fill="white"/>
<path d="M37.3004 128.4C37.3004 130.775 39.2256 132.7 41.6004 132.7C43.9752 132.7 45.9004 130.775 45.9004 128.4C45.9004 126.025 43.9752 124.1 41.6004 124.1C39.2256 124.1 37.3004 126.025 37.3004 128.4Z" fill="#FF3333"/>
</g>
<defs>
<clipPath id="clip0">
<rect width="215" height="157" fill="white" transform="translate(169 4) rotate(90)"/>
</clipPath>
</defs>
</svg>
