<svg width="200" height="250" viewBox="0 0 200 250" fill="none" xmlns="http://www.w3.org/2000/svg">
<path d="M102.77 65.8243L91.9516 81.1601L76.6074 71.5027L88.5279 54.6001L102.77 65.8243Z" fill="#30A658"/>
<path d="M89.9692 75.1999C93.7966 75.1999 96.8993 72.0972 96.8993 68.2697C96.8993 64.4423 93.7966 61.3396 89.9692 61.3396C86.1418 61.3396 83.0391 64.4423 83.0391 68.2697C83.0391 72.0972 86.1418 75.1999 89.9692 75.1999Z" fill="white"/>
<path d="M89.9703 71.8259C91.9344 71.8259 93.5266 70.2337 93.5266 68.2696C93.5266 66.3056 91.9344 64.7134 89.9703 64.7134C88.0063 64.7134 86.4141 66.3056 86.4141 68.2696C86.4141 70.2337 88.0063 71.8259 89.9703 71.8259Z" fill="#FF3333"/>
<path d="M88.5274 54.6001L76.5986 71.5027L75.811 66.4792C75.7447 66.0564 75.8442 65.617 76.0929 65.2689L82.4925 56.2C82.7412 55.8435 83.1142 55.6031 83.5453 55.5285L88.5274 54.6001Z" fill="#A8E9A2"/>
<path d="M81.8542 62.5527C83.1264 60.7496 83.6361 58.9199 82.9927 58.4659C82.3492 58.012 80.7963 59.1057 79.5242 60.9088C78.252 62.7119 77.7423 64.5416 78.3857 64.9956C79.0292 65.4495 80.5821 64.3559 81.8542 62.5527Z" fill="#226D45"/>
<path d="M80.7683 62.1024C81.5226 59.9636 79.8481 58.9357 79.0274 58.886C78.5881 58.8611 78.1404 59.0186 77.7011 58.9606C77.1208 58.886 76.6234 58.3803 76.5488 57.8" stroke="#6AC86E" stroke-width="1.11106" stroke-miterlimit="10" stroke-linecap="round"/>
<path d="M80.4213 62.1108C80.67 60.9668 79.8161 60.3865 79.5675 60.3119C79.3188 60.2373 79.0452 60.2954 78.8048 60.4114C78.5644 60.5275 78.3489 60.6767 78.1168 60.801C77.4702 61.1409 76.6744 61.1989 75.9863 60.9502" stroke="#FF4081" stroke-width="1.11106" stroke-miterlimit="10" stroke-linecap="round"/>
<path d="M76.5581 57.5596C76.5498 57.1534 76.5415 56.7473 76.5332 56.3411" stroke="#F9D232" stroke-width="0.461402" stroke-miterlimit="10" stroke-linecap="round"/>
<path d="M74.6602 60.5771C75.0498 60.6932 75.4394 60.8175 75.8207 60.9336" stroke="#F9D232" stroke-width="0.461402" stroke-miterlimit="10" stroke-linecap="round"/>
<path d="M95.7398 118.33L95.4298 113.99L91.7598 113.21L88.5598 114.38L88.0898 115.31L88.3198 119.6L92.1598 121.54L95.7598 119.19L95.7398 118.33ZM92.6598 115.79C93.2998 116.11 93.6298 116.8 93.5298 117.47C93.0498 117.94 92.4298 118.21 91.7598 118.47C89.7898 119.24 89.8498 117.44 90.7898 116.08C91.2798 115.61 92.0198 115.47 92.6598 115.79Z" fill="#8A9096"/>
<path d="M91.11 117.74C90.31 117.34 89.99 116.35 90.4 115.55C90.81 114.75 91.79 114.43 92.58 114.84C93.38 115.25 93.7 116.22 93.3 117.02C92.89 117.83 91.91 118.15 91.11 117.74ZM95.44 113.94L91.6 112L88 114.35L88.23 118.64L92.07 120.58L95.67 118.23L95.44 113.94Z" fill="#B9BDC3"/>
<path d="M139.91 132.55L141.52 129.85L139.67 127.87L137.29 127.24L136.63 127.6L135 130.24L136.47 132.97L139.57 133.06L139.91 132.55ZM139.13 129.77C139.37 130.22 139.29 130.77 138.95 131.12C138.47 131.2 137.99 131.11 137.49 130.99C136 130.63 136.78 129.59 137.9 129.17C138.38 129.09 138.88 129.31 139.13 129.77Z" fill="#8A9096"/>
<path d="M137.4 130.28C137.09 129.71 137.31 129 137.88 128.69C138.45 128.38 139.16 128.6 139.47 129.17C139.78 129.74 139.57 130.45 139 130.76C138.43 131.07 137.71 130.86 137.4 130.28ZM141.54 129.82L140.07 127.09L136.97 127L135.34 129.64L136.81 132.37L139.91 132.46L141.54 129.82Z" fill="#B9BDC3"/>
<path d="M74.6993 124.7L71.7893 120.79L67.8493 122.27L65.5293 125.3L65.6493 126.46L68.4593 130.37L73.2493 129.89L75.2293 125.5L74.6993 124.7ZM70.2593 124.16C71.0593 124.08 71.7793 124.53 72.0993 125.22C71.9293 125.96 71.5093 126.59 71.0393 127.23C69.6393 129.15 68.6093 127.41 68.6793 125.56C68.8493 124.82 69.4593 124.24 70.2593 124.16Z" fill="#8A9096"/>
<path d="M69.97 126.94C68.97 127.04 68.08 126.31 67.98 125.31C67.88 124.31 68.61 123.42 69.61 123.32C70.61 123.22 71.51 123.95 71.61 124.95C71.71 125.94 70.98 126.84 69.97 126.94ZM71.77 120.73L66.98 121.21L65 125.6L67.81 129.51L72.6 129.03L74.58 124.64L71.77 120.73Z" fill="#B9BDC3"/>
<path d="M130.08 126.58L120.22 128.98C119.27 129.21 118.32 128.63 118.09 127.69L116.05 119.32C115.82 118.37 116.4 117.42 117.34 117.19L127.2 114.79C128.15 114.56 129.1 115.14 129.33 116.08L131.36 124.43C131.61 125.4 131.03 126.35 130.08 126.58Z" fill="#B9BDC3"/>
<path d="M130.08 125.84L120.22 128.24C119.27 128.47 118.32 127.89 118.09 126.95L116.05 118.58C115.82 117.63 116.4 116.68 117.34 116.45L127.2 114.05C128.15 113.82 129.1 114.4 129.33 115.34L131.36 123.69C131.61 124.66 131.03 125.61 130.08 125.84Z" fill="#333333"/>
<path d="M127.86 115.74L117.57 118.25L118.09 120.39L128.38 117.88L127.86 115.74Z" fill="#BBE5FA"/>
<path d="M123.65 120.85L118.52 122.1L119.69 126.9L124.82 125.65L123.65 120.85Z" fill="#BBE5FA"/>
<path d="M127.369 124.4L127.119 124.46C126.129 124.7 125.109 124.1 124.859 123.09C124.619 122.1 125.219 121.08 126.229 120.83L126.479 120.77C127.469 120.53 128.489 121.13 128.739 122.14C128.989 123.16 128.379 124.16 127.369 124.4Z" fill="#F8BF15"/>
<path d="M105.822 117.623L106.51 119.067L117.181 113.985L116.493 112.54L105.822 117.623Z" fill="#B9BDC3"/>
<path d="M116.5 112.53L117.19 113.98L118.64 113.87L117.5 111.46L116.5 112.53Z" fill="#B9BDC3"/>
<path d="M119.71 111L120.4 112.45L118.64 113.87L117.5 111.46L119.71 111Z" fill="#B9BDC3"/>
<path d="M100.56 121.01C101.21 122.37 102.84 122.95 104.2 122.3L109.13 119.95C110.49 119.3 111.07 117.67 110.42 116.31C109.77 114.95 108.14 114.37 106.78 115.02L101.85 117.37C100.49 118.01 99.9096 119.64 100.56 121.01Z" fill="#FF7733"/>
<path d="M104.301 121.75C104.401 121.96 104.661 122.06 104.871 121.95L109.901 119.55C110.111 119.45 110.211 119.19 110.101 118.98C110.001 118.77 109.741 118.67 109.531 118.78L104.501 121.18C104.291 121.27 104.201 121.53 104.301 121.75Z" fill="#E2632D"/>
<path d="M104.77 119C104.87 119.21 105.13 119.31 105.34 119.2L110.37 116.8C110.58 116.7 110.68 116.44 110.57 116.23C110.47 116.02 110.21 115.92 110 116.03L104.97 118.43C104.76 118.53 104.66 118.79 104.77 119Z" fill="#E2632D"/>
<path d="M102.48 117.54C102.58 117.75 102.84 117.85 103.05 117.74L108.08 115.34C108.29 115.24 108.39 114.98 108.28 114.77C108.18 114.56 107.92 114.46 107.71 114.57L102.68 116.97C102.47 117.07 102.38 117.32 102.48 117.54Z" fill="#E2632D"/>
<path d="M102.05 122.35C103.182 122.35 104.1 121.432 104.1 120.3C104.1 119.168 103.182 118.25 102.05 118.25C100.918 118.25 100 119.168 100 120.3C100 121.432 100.918 122.35 102.05 122.35Z" fill="#E2632D"/>
<path d="M91.8209 48.9976L96.1639 58.1901L111.59 49.8222L95.9519 43.6218C93.041 42.3137 90.0861 45.3303 91.4434 48.2125L91.8209 48.9976Z" fill="#D8DDE2"/>
<path d="M92.8804 43.7417L89.1643 46.0627L94.3326 45.9269L92.8804 43.7417Z" fill="#D8DDE2"/>
<path d="M110.321 88.1863L105.978 78.9938L122.245 72.4053L117.102 88.418C116.267 91.4931 112.052 91.8629 110.695 88.9807L110.321 88.1863Z" fill="#D8DDE2"/>
<path d="M88.1255 51.2948L92.4686 60.4873L107.895 52.1193L92.2604 45.9097C89.3496 44.6016 86.3946 47.6182 87.7519 50.5004L88.1255 51.2948Z" fill="white"/>
<path d="M115.053 90.717L110.9 92.109L114.29 88.2014L115.053 90.717Z" fill="#D8DDE2"/>
<path d="M106.194 89.5674L101.851 80.3749L118.118 73.7864L112.975 89.7991C112.14 92.8742 107.925 93.244 106.568 90.3618L106.194 89.5674Z" fill="white"/>
<path d="M92.3272 60.2012L101.997 80.674L122.239 72.3921L111.586 49.8314L92.3272 60.2012Z" fill="#30A658"/>
<path d="M103.824 73.4951C108.087 75.268 112.98 73.2494 114.753 68.9862C116.526 64.7231 114.508 59.8299 110.244 58.0569C105.981 56.284 101.088 58.3026 99.3151 62.5657C97.5422 66.8289 99.5608 71.7221 103.824 73.4951Z" fill="white"/>
<path d="M105.387 69.7373C107.575 70.6471 110.086 69.6112 110.996 67.4235C111.905 65.2359 110.869 62.7249 108.682 61.8151C106.494 60.9053 103.983 61.9412 103.073 64.1288C102.164 66.3165 103.199 68.8275 105.387 69.7373Z" fill="#FF3333"/>
<path d="M111.585 49.8314L122.235 72.4013L124.206 66.593C124.378 66.1014 124.341 65.566 124.125 65.0969L118.404 52.9923C118.179 52.5193 117.786 52.1611 117.302 51.9707L111.585 49.8314Z" fill="#A8E9A2"/>
<path d="M121.492 64.2813C122.351 63.8757 122.126 61.5954 120.989 59.1882C119.853 56.781 118.235 55.1583 117.376 55.5639C116.517 55.9695 116.742 58.2498 117.878 60.657C119.015 63.0643 120.633 64.6869 121.492 64.2813Z" fill="#226D45"/>
<path d="M119.253 60.3527C118.805 57.6537 121 56.7792 121.99 56.8985C122.518 56.9559 123.018 57.2394 123.548 57.2652C124.254 57.2878 124.951 56.8089 125.159 56.1264" stroke="#6AC86E" stroke-width="1.3403" stroke-miterlimit="10" stroke-linecap="round"/>
<path d="M119.662 60.4361C119.608 59.0277 120.733 58.51 121.05 58.479C121.37 58.4388 121.683 58.5694 121.943 58.7531C122.202 58.9367 122.424 59.1589 122.676 59.361C123.372 59.8998 124.307 60.1261 125.18 59.9801" stroke="#FF4081" stroke-width="1.3403" stroke-miterlimit="10" stroke-linecap="round"/>
<path d="M125.197 55.8279C125.289 55.3463 125.381 54.8647 125.482 54.387" stroke="#F9D232" stroke-width="0.5566" stroke-miterlimit="10" stroke-linecap="round"/>
<path d="M126.822 59.8077C126.333 59.8642 125.849 59.9337 125.36 59.9902" stroke="#F9D232" stroke-width="0.5566" stroke-miterlimit="10" stroke-linecap="round"/>
<path d="M68.0732 97.281L77.1435 94.179L70.9206 78.8481L63.4626 92.8402C61.9352 95.4236 64.4432 98.5162 67.2906 97.545L68.0732 97.281Z" fill="#D8DDE2"/>
<path d="M63.2559 95.7347L65.0379 99.459L65.4527 94.6033L63.2559 95.7347Z" fill="#D8DDE2"/>
<path d="M106.741 84.0716L97.6707 87.1736L93.2109 71.2393L107.674 77.745C110.465 78.8481 110.371 82.8364 107.524 83.8076L106.741 84.0716Z" fill="#D8DDE2"/>
<path d="M69.8349 100.977L78.9052 97.8751L72.6824 82.5442L65.2243 96.5362C63.6969 99.1196 66.2049 102.212 69.0524 101.241L69.8349 100.977Z" fill="white"/>
<path d="M109.606 79.9041L110.474 83.9395L107.174 80.3472L109.606 79.9041Z" fill="#D8DDE2"/>
<path d="M107.598 88.0786L98.5281 91.1806L94.0684 75.2463L108.532 81.7521C111.323 82.8552 111.228 86.8435 108.381 87.8146L107.598 88.0786Z" fill="white"/>
<path d="M78.6234 97.9787L98.8195 91.077L93.2 71.2393L70.9297 78.8481L78.6234 97.9787Z" fill="#30A658"/>
<path d="M85.394 92.6704C89.7473 92.6704 93.2763 89.1413 93.2763 84.7881C93.2763 80.4348 89.7473 76.9058 85.394 76.9058C81.0407 76.9058 77.5117 80.4348 77.5117 84.7881C77.5117 89.1413 81.0407 92.6704 85.394 92.6704Z" fill="white"/>
<path d="M85.3945 88.8331C87.6284 88.8331 89.4393 87.0222 89.4393 84.7883C89.4393 82.5544 87.6284 80.7434 85.3945 80.7434C83.1606 80.7434 81.3496 82.5544 81.3496 84.7883C81.3496 87.0222 83.1606 88.8331 85.3945 88.8331Z" fill="#FF3333"/>
<path d="M70.9297 78.8482L93.2 71.2393L87.9672 68.7784C87.524 68.571 87.0149 68.5427 86.5529 68.703L74.6068 72.7856C74.1448 72.9459 73.7583 73.2759 73.532 73.719L70.9297 78.8482Z" fill="#A8E9A2"/>
<path d="M81.7398 74.0946C84.1149 73.2832 85.8056 71.9383 85.516 71.0907C85.2264 70.2432 83.0663 70.2139 80.6912 71.0254C78.316 71.8368 76.6254 73.1817 76.9149 74.0293C77.2045 74.8768 79.3646 74.9061 81.7398 74.0946Z" fill="#226D45"/>
<path d="M92.3075 157.14H102.478L101.498 139.62L89.2075 151.11C86.7875 153.18 88.2475 157.15 91.4375 157.15H92.3075V157.14Z" fill="#D8DDE2"/>
<path d="M88.0078 153.94L88.5178 158.28L90.5978 153.55L88.0078 153.94Z" fill="#D8DDE2"/>
<path d="M92.8271 161.45H102.997L102.017 143.93L89.7271 155.42C87.3071 157.49 88.7671 161.46 91.9571 161.46H92.8271V161.45Z" fill="white"/>
<path d="M125.298 161.45H102.658L101.498 139.61H126.458L125.298 161.45Z" fill="#30A658"/>
<path d="M113.977 158.89C118.594 158.89 122.337 155.147 122.337 150.53C122.337 145.913 118.594 142.17 113.977 142.17C109.36 142.17 105.617 145.913 105.617 150.53C105.617 155.147 109.36 158.89 113.977 158.89Z" fill="white"/>
<path d="M113.977 154.82C116.347 154.82 118.268 152.899 118.268 150.53C118.268 148.161 116.347 146.24 113.977 146.24C111.608 146.24 109.688 148.161 109.688 150.53C109.688 152.899 111.608 154.82 113.977 154.82Z" fill="#FF3333"/>
<path d="M126.458 139.61H101.498L105.908 135.34C106.278 134.98 106.778 134.78 107.298 134.78H120.688C121.208 134.78 121.708 134.98 122.078 135.35L126.458 139.61Z" fill="#A8E9A2"/>
<path d="M113.978 138.55C116.64 138.55 118.798 137.78 118.798 136.83C118.798 135.88 116.64 135.11 113.978 135.11C111.316 135.11 109.158 135.88 109.158 136.83C109.158 137.78 111.316 138.55 113.978 138.55Z" fill="#226D45"/>
<path d="M113.658 137.17C116.288 136.43 116.138 134.06 115.618 133.22C115.338 132.77 114.868 132.44 114.628 131.97C114.298 131.34 114.448 130.51 114.968 130.03" stroke="#6AC86E" stroke-width="1.3403" stroke-miterlimit="10" stroke-linecap="round"/>
<path d="M113.419 136.83C114.719 136.28 114.699 135.04 114.599 134.74C114.499 134.44 114.249 134.21 113.969 134.05C113.699 133.89 113.389 133.79 113.109 133.64C112.319 133.24 111.719 132.49 111.479 131.64" stroke="#FF4081" stroke-width="1.3403" stroke-miterlimit="10" stroke-linecap="round"/>
<path d="M115.219 129.87C115.609 129.58 116.009 129.29 116.399 129" stroke="#F9D232" stroke-width="0.5566" stroke-miterlimit="10" stroke-linecap="round"/>
<path d="M110.918 130.09C111.068 130.56 111.218 131.02 111.378 131.49" stroke="#F9D232" stroke-width="0.5566" stroke-miterlimit="10" stroke-linecap="round"/>
<path d="M78.0739 146.454C78.0239 146.494 77.9739 146.524 77.9139 146.544L69.5039 150.744C68.6439 151.174 67.6139 150.824 67.1839 149.964C66.7539 149.114 67.1039 148.074 67.9639 147.644L76.3739 143.444C76.4339 143.414 76.4839 143.394 76.5439 143.374C76.5139 141.864 77.3339 140.404 78.7739 139.684C80.2739 138.934 82.0239 139.214 83.2139 140.254L79.8939 141.914L81.2639 144.664L84.5839 143.004C84.6939 144.584 83.8639 146.144 82.3639 146.894C80.9239 147.604 79.2639 147.384 78.0739 146.454Z" fill="#74797E"/>
<path d="M78.6032 145.194C78.5532 145.234 78.5032 145.264 78.4432 145.284L70.0332 149.484C69.1732 149.914 68.1432 149.564 67.7132 148.704C67.2832 147.854 67.6332 146.814 68.4932 146.384L76.9032 142.184C76.9632 142.154 77.0132 142.134 77.0732 142.114C77.0432 140.604 77.8632 139.144 79.3032 138.424C80.8032 137.674 82.5532 137.954 83.7432 138.994L80.4232 140.654L81.7932 143.404L85.1132 141.744C85.2232 143.324 84.3932 144.884 82.8932 145.634C81.4432 146.344 79.7832 146.124 78.6032 145.194Z" fill="#B9BDC3"/>
<path d="M139.357 159.01L129.277 157.62L132.647 140.39L143.247 153.45C145.367 155.83 143.377 159.56 140.217 159.13L139.357 159.01Z" fill="#D8DDE2"/>
<path d="M144.057 156.43L142.957 160.67L141.537 155.69L144.057 156.43Z" fill="#D8DDE2"/>
<path d="M138.268 163.22L128.188 161.83L131.768 144.87L142.158 157.66C144.278 160.04 142.288 163.77 139.128 163.34L138.268 163.22Z" fill="white"/>
<path d="M146.038 63.3293L141.622 71.4945L127.992 63.0921L142.544 58.2203C145.253 57.1712 147.808 60.0723 146.421 62.6268L146.038 63.3293Z" fill="#D8DDE2"/>
<path d="M145.335 58.4849L148.601 60.7839L143.902 60.4007L145.335 58.4849Z" fill="#D8DDE2"/>
<path d="M149.274 65.6193L144.859 73.7846L131.229 65.3821L145.78 60.5104C148.49 59.4612 151.044 62.3624 149.657 64.9169L149.274 65.6193Z" fill="white"/>
<path d="M135.18 91.6749L145.005 73.5107L127.982 63.092L117.152 83.1174L135.18 91.6749Z" fill="#30A658"/>
<path d="M131.33 85.4805C135.542 85.4805 138.957 82.0658 138.957 77.8535C138.957 73.6413 135.542 70.2266 131.33 70.2266C127.118 70.2266 123.703 73.6413 123.703 77.8535C123.703 82.0658 127.118 85.4805 131.33 85.4805Z" fill="white"/>
<path d="M131.33 81.7671C133.491 81.7671 135.244 80.0148 135.244 77.8533C135.244 75.6917 133.491 73.9395 131.33 73.9395C129.168 73.9395 127.416 75.6917 127.416 77.8533C127.416 80.0148 129.168 81.7671 131.33 81.7671Z" fill="#FF3333"/>
<path d="M117.152 83.1174L127.991 63.092L122.653 64.7798C122.206 64.9258 121.823 65.236 121.604 65.6465L115.793 76.3845C115.565 76.8042 115.51 77.2968 115.638 77.753L117.152 83.1174Z" fill="#A8E9A2"/>
<path d="M121.72 72.6507C122.876 70.5148 123.195 68.4489 122.433 68.0365C121.67 67.624 120.116 69.0212 118.96 71.1572C117.804 73.2931 117.485 75.359 118.247 75.7714C119.009 76.1839 120.564 74.7867 121.72 72.6507Z" fill="#226D45"/>
<path d="M120.746 71.7957C119.013 73.5839 117.179 72.4435 116.732 71.6497C116.495 71.2301 116.431 70.7101 116.157 70.3086C115.792 69.7795 115.062 69.5332 114.451 69.7339" stroke="#6AC86E" stroke-width="1.22278" stroke-miterlimit="10" stroke-linecap="round"/>
<path d="M120.581 71.449C119.577 72.2518 118.592 71.6953 118.391 71.4855C118.19 71.2756 118.117 70.9746 118.108 70.6826C118.099 70.3907 118.145 70.1079 118.154 69.8159C118.172 69.0131 117.835 68.2011 117.26 67.6355" stroke="#FF4081" stroke-width="1.22278" stroke-miterlimit="10" stroke-linecap="round"/>
<path d="M114.213 69.8706C113.812 70.0622 113.401 70.2538 113 70.4454" stroke="#F9D232" stroke-width="0.507796" stroke-miterlimit="10" stroke-linecap="round"/>
<path d="M116.258 66.5225C116.568 66.8509 116.869 67.1702 117.179 67.4986" stroke="#F9D232" stroke-width="0.507796" stroke-miterlimit="10" stroke-linecap="round"/>
<path d="M90.7967 139.223C94.7014 139.223 97.8667 136.057 97.8667 132.153C97.8667 128.248 94.7014 125.083 90.7967 125.083C86.892 125.083 83.7266 128.248 83.7266 132.153C83.7266 136.057 86.892 139.223 90.7967 139.223Z" fill="#B9BDC3"/>
<path d="M90.0701 138.14C93.9748 138.14 97.1402 134.975 97.1402 131.07C97.1402 127.165 93.9748 124 90.0701 124C86.1654 124 83 127.165 83 131.07C83 134.975 86.1654 138.14 90.0701 138.14Z" fill="white"/>
<path d="M90.0714 134.698C92.0752 134.698 93.6995 133.074 93.6995 131.07C93.6995 129.066 92.0752 127.442 90.0714 127.442C88.0677 127.442 86.4434 129.066 86.4434 131.07C86.4434 133.074 88.0677 134.698 90.0714 134.698Z" fill="#FF3333"/>
<g clip-path="url(#clip0)">
<path d="M79.05 186.39H44V197.69H79.05V186.39Z" fill="#333333"/>
<path d="M71.6507 185.12C69.9407 185.14 68.5707 186.52 68.5807 188.2C68.5907 189.27 69.1707 190.21 70.0207 190.75L70.0107 200.01C69.1207 200.59 68.5507 201.59 68.5607 202.72C68.5707 203.99 69.1907 205.09 70.4407 205.6L70.4107 202.62L73.1607 202.59L73.1907 205.57C74.4307 205.03 75.0607 203.93 75.0507 202.66C75.0407 201.42 74.3607 200.35 73.3007 199.82L73.3107 190.77C74.1907 190.22 74.7807 189.25 74.7607 188.15C74.7607 186.46 73.3607 185.11 71.6507 185.12ZM71.6307 186.77L72.7607 187.46L72.7707 188.87L71.6507 189.58L70.5207 188.89L70.5107 187.48L71.6307 186.77Z" fill="white" stroke="white" stroke-width="0.2477" stroke-miterlimit="10" stroke-linejoin="round"/>
<path d="M64.8 202.58C64.81 201.48 64.23 200.51 63.35 199.96L63.34 190.91C64.39 190.38 65.07 189.31 65.09 188.07C65.1 186.8 64.47 185.69 63.23 185.16L63.2 188.14L60.45 188.11L60.48 185.13C59.22 185.63 58.6 186.73 58.59 188C58.58 189.13 59.15 190.13 60.04 190.71L60.05 199.97C59.19 200.51 58.62 201.44 58.61 202.52C58.59 204.2 59.97 205.58 61.68 205.6C63.38 205.61 64.78 204.26 64.8 202.58ZM60.54 203.24L60.55 201.83L61.68 201.14L62.8 201.85L62.79 203.26L61.66 203.95L60.54 203.24Z" fill="white" stroke="white" stroke-width="0.2477" stroke-miterlimit="10" stroke-linejoin="round"/>
<path d="M56.0902 186.61V188.95C56.0902 189.25 55.8602 189.59 55.5502 189.59H54.1702C53.8602 189.6 53.6102 189.3 53.6102 189V188.98C53.6102 188.67 53.3202 188.42 53.0102 188.42L52.5402 188.4V203.13H50.5402V188.43C50.5402 188.43 50.2402 188.44 50.1902 188.45L47.6102 189.19C47.0802 189.34 46.6802 188.73 47.0302 188.31C47.8702 187.3 49.6202 186.04 53.0502 186.04H55.5502C55.8602 186.05 56.0902 186.31 56.0902 186.61Z" fill="white" stroke="white" stroke-width="0.2218" stroke-miterlimit="10" stroke-linejoin="round"/>
<path d="M79.05 193.92H44V211.22H79.05V193.92Z" fill="#DA4537"/>
</g>
<path d="M140.639 202.41L141.039 179.77L162.899 179L162.459 203.95L140.639 202.41Z" fill="#30A658"/>
<path d="M151.758 199.64C156.376 199.64 160.118 195.897 160.118 191.28C160.118 186.663 156.376 182.92 151.758 182.92C147.141 182.92 143.398 186.663 143.398 191.28C143.398 195.897 147.141 199.64 151.758 199.64Z" fill="white"/>
<path d="M151.759 195.57C154.128 195.57 156.049 193.649 156.049 191.28C156.049 188.911 154.128 186.99 151.759 186.99C149.389 186.99 147.469 188.911 147.469 191.28C147.469 193.649 149.389 195.57 151.759 195.57Z" fill="#FF3333"/>
<path d="M162.459 203.95L162.899 179L167.089 183.48C167.439 183.86 167.639 184.36 167.629 184.88L167.389 198.27C167.379 198.79 167.169 199.29 166.799 199.65L162.459 203.95Z" fill="#A8E9A2"/>
<path d="M167.172 191.562C167.219 188.901 166.487 186.73 165.538 186.713C164.588 186.696 163.78 188.84 163.732 191.501C163.685 194.163 164.416 196.334 165.366 196.351C166.316 196.368 167.124 194.224 167.172 191.562Z" fill="#226D45"/>
<path d="M165.129 191.2C165.829 193.84 168.189 193.74 169.039 193.23C169.499 192.96 169.829 192.5 170.309 192.26C170.939 191.95 171.779 192.11 172.249 192.63" stroke="#6AC86E" stroke-width="1.3403" stroke-miterlimit="10" stroke-linecap="round"/>
<path d="M165.469 190.96C165.999 192.27 167.239 192.27 167.539 192.18C167.839 192.09 168.069 191.84 168.239 191.57C168.399 191.3 168.509 191 168.659 190.72C169.079 189.94 169.829 189.35 170.689 189.12" stroke="#FF4081" stroke-width="1.3403" stroke-miterlimit="10" stroke-linecap="round"/>
<path d="M172.398 192.89C172.678 193.29 172.968 193.69 173.248 194.09" stroke="#F9D232" stroke-width="0.5566" stroke-miterlimit="10" stroke-linecap="round"/>
<path d="M172.25 188.59C171.78 188.73 171.31 188.88 170.85 189.02" stroke="#F9D232" stroke-width="0.5566" stroke-miterlimit="10" stroke-linecap="round"/>
<path d="M139.221 206.12L130.891 200.29L141.751 186.5L145.231 202.96C146.031 206.05 142.551 208.46 139.941 206.63L139.221 206.12Z" fill="#D8DDE2"/>
<path d="M144.58 205.96L141.67 209.23L142.67 204.16L144.58 205.96Z" fill="#D8DDE2"/>
<path d="M136.33 209.37L128 203.54L138.93 190.08L142.34 206.2C143.14 209.29 139.66 211.7 137.05 209.87L136.33 209.37Z" fill="white"/>
<path d="M125.693 98.3955L115.775 100.647L112.852 83.3448L127.381 91.8288C130.199 93.3117 129.654 97.5064 126.544 98.2126L125.695 98.4052L125.693 98.3955Z" fill="#D8DDE2"/>
<path d="M129.178 94.3228L129.642 98.668L126.566 94.5159L129.178 94.3228Z" fill="#D8DDE2"/>
<path d="M83.4293 107.99L93.3469 105.739L88.5103 88.8609L79.069 102.787C77.1673 105.341 79.47 108.889 82.5809 108.183L83.4293 107.99Z" fill="#D8DDE2"/>
<path d="M126.164 102.719L116.246 104.97L113.323 87.6683L127.852 96.1523C130.67 97.6351 130.125 101.83 127.014 102.536L126.166 102.729L126.164 102.719Z" fill="white"/>
<path d="M78.5277 105.822L79.9881 109.951L80.9769 104.866L78.5277 105.822Z" fill="#D8DDE2"/>
<path d="M84.8919 112.088L94.8096 109.837L89.9751 92.9683L80.5316 106.884C78.63 109.439 80.9327 112.987 84.0435 112.281L84.8919 112.088Z" fill="white"/>
<path d="M116.557 104.9L94.4784 109.912L88.5195 88.8586L112.85 83.3349L116.557 104.9Z" fill="#30A658"/>
<path d="M104.95 104.9C109.452 103.877 112.274 99.3987 111.252 94.8962C110.229 90.3937 105.751 87.5723 101.248 88.5945C96.7457 89.6167 93.9243 94.0953 94.9465 98.5979C95.9687 103.1 100.447 105.922 104.95 104.9Z" fill="white"/>
<path d="M104.048 100.931C106.358 100.406 107.806 98.1077 107.282 95.7972C106.757 93.4867 104.459 92.0389 102.148 92.5634C99.8379 93.088 98.3901 95.3862 98.9146 97.6967C99.4392 100.007 101.737 101.455 104.048 100.931Z" fill="#FF3333"/>
<path d="M112.851 83.3349L88.5205 88.8586L91.8757 83.7182C92.1568 83.2852 92.6001 82.9795 93.1072 82.8644L106.165 79.8999C106.672 79.7848 107.204 79.8692 107.647 80.1481L112.851 83.3349Z" fill="#A8E9A2"/>
<path d="M100.448 85.0739C103.044 84.4846 104.978 83.2558 104.768 82.3295C104.558 81.4031 102.283 81.1299 99.6867 81.7193C97.0908 82.3086 95.1568 83.5373 95.3671 84.4637C95.5774 85.3901 97.8524 85.6633 100.448 85.0739Z" fill="#226D45"/>
<path d="M99.8405 83.7873C102.241 82.4834 101.57 80.2054 100.877 79.5014C100.505 79.1245 99.9733 78.9068 99.6352 78.5016C99.1739 77.9603 99.1364 77.1177 99.5373 76.5344" stroke="#6AC86E" stroke-width="1.3403" stroke-miterlimit="10" stroke-linecap="round"/>
<path d="M99.5233 83.5206C100.669 82.6965 100.375 81.4917 100.211 81.2212C100.047 80.9508 99.7527 80.7819 99.4442 80.6878C99.1357 80.5938 98.821 80.5627 98.5148 80.4784C97.6558 80.2632 96.9046 79.6647 96.4824 78.8889" stroke="#FF4081" stroke-width="1.3403" stroke-miterlimit="10" stroke-linecap="round"/>
<path d="M99.7356 76.3252C100.052 75.9561 100.378 75.5847 100.694 75.2156" stroke="#F9D232" stroke-width="0.5566" stroke-miterlimit="10" stroke-linecap="round"/>
<path d="M95.6035 77.4993C95.8538 77.9244 96.102 78.3398 96.362 78.7627" stroke="#F9D232" stroke-width="0.5566" stroke-miterlimit="10" stroke-linecap="round"/>
<path d="M139.229 117C143.846 117 147.589 113.257 147.589 108.64C147.589 104.023 143.846 100.28 139.229 100.28C134.612 100.28 130.869 104.023 130.869 108.64C130.869 113.257 134.612 117 139.229 117Z" fill="#B9BDC3"/>
<path d="M138.36 115.72C142.977 115.72 146.72 111.977 146.72 107.36C146.72 102.743 142.977 99 138.36 99C133.743 99 130 102.743 130 107.36C130 111.977 133.743 115.72 138.36 115.72Z" fill="white"/>
<path d="M138.36 111.65C140.73 111.65 142.65 109.729 142.65 107.36C142.65 104.991 140.73 103.07 138.36 103.07C135.991 103.07 134.07 104.991 134.07 107.36C134.07 109.729 135.991 111.65 138.36 111.65Z" fill="#FF3333"/>
<path d="M151.308 214.06H161.478L160.498 196.54L148.208 208.03C145.788 210.1 147.248 214.07 150.438 214.07H151.308V214.06Z" fill="#D8DDE2"/>
<path d="M147.008 210.86L147.518 215.21L149.608 210.48L147.008 210.86Z" fill="#D8DDE2"/>
<path d="M151.827 218.38H161.997L161.017 200.86L148.727 212.34C146.307 214.41 147.767 218.38 150.957 218.38H151.827Z" fill="white"/>
<path d="M184.308 218.38H161.668L160.508 196.54H185.458L184.308 218.38Z" fill="#30A658"/>
<path d="M172.987 215.82C177.604 215.82 181.347 212.077 181.347 207.46C181.347 202.843 177.604 199.1 172.987 199.1C168.37 199.1 164.627 202.843 164.627 207.46C164.627 212.077 168.37 215.82 172.987 215.82Z" fill="white"/>
<path d="M172.987 211.75C175.357 211.75 177.277 209.829 177.277 207.46C177.277 205.091 175.357 203.17 172.987 203.17C170.618 203.17 168.697 205.091 168.697 207.46C168.697 209.829 170.618 211.75 172.987 211.75Z" fill="#FF3333"/>
<path d="M185.458 196.54H160.508L164.918 192.27C165.288 191.91 165.788 191.71 166.308 191.71H179.698C180.218 191.71 180.718 191.91 181.088 192.28L185.458 196.54Z" fill="#A8E9A2"/>
<path d="M172.978 195.48C175.64 195.48 177.798 194.71 177.798 193.76C177.798 192.81 175.64 192.04 172.978 192.04C170.316 192.04 168.158 192.81 168.158 193.76C168.158 194.71 170.316 195.48 172.978 195.48Z" fill="#226D45"/>
<path d="M172.668 194.1C175.298 193.36 175.148 190.99 174.628 190.15C174.348 189.7 173.878 189.37 173.638 188.9C173.308 188.27 173.458 187.44 173.978 186.96" stroke="#6AC86E" stroke-width="1.3403" stroke-miterlimit="10" stroke-linecap="round"/>
<path d="M172.419 193.76C173.719 193.21 173.699 191.97 173.599 191.67C173.499 191.37 173.249 191.14 172.969 190.98C172.699 190.82 172.389 190.72 172.109 190.57C171.319 190.17 170.719 189.42 170.479 188.57" stroke="#FF4081" stroke-width="1.3403" stroke-miterlimit="10" stroke-linecap="round"/>
<path d="M174.217 186.79C174.607 186.5 175.007 186.21 175.397 185.92" stroke="#F9D232" stroke-width="0.5566" stroke-miterlimit="10" stroke-linecap="round"/>
<path d="M169.928 187.02C170.078 187.49 170.228 187.95 170.388 188.42" stroke="#F9D232" stroke-width="0.5566" stroke-miterlimit="10" stroke-linecap="round"/>
<path d="M178.886 195.45H156.246L155.086 173.61H180.046L178.886 195.45Z" fill="#30A658"/>
<path d="M167.565 192.89C172.182 192.89 175.925 189.147 175.925 184.53C175.925 179.913 172.182 176.17 167.565 176.17C162.948 176.17 159.205 179.913 159.205 184.53C159.205 189.147 162.948 192.89 167.565 192.89Z" fill="white"/>
<path d="M167.565 188.82C169.935 188.82 171.855 186.899 171.855 184.53C171.855 182.161 169.935 180.24 167.565 180.24C165.196 180.24 163.275 182.161 163.275 184.53C163.275 186.899 165.196 188.82 167.565 188.82Z" fill="#FF3333"/>
<path d="M180.046 173.61H155.086L159.496 169.34C159.866 168.98 160.366 168.78 160.886 168.78H174.276C174.796 168.78 175.296 168.98 175.666 169.35L180.046 173.61Z" fill="#A8E9A2"/>
<path d="M167.556 172.55C170.218 172.55 172.376 171.78 172.376 170.83C172.376 169.88 170.218 169.11 167.556 169.11C164.894 169.11 162.736 169.88 162.736 170.83C162.736 171.78 164.894 172.55 167.556 172.55Z" fill="#226D45"/>
<path d="M167.246 171.17C169.876 170.43 169.726 168.06 169.206 167.22C168.926 166.77 168.456 166.44 168.216 165.97C167.886 165.34 168.036 164.51 168.556 164.03" stroke="#6AC86E" stroke-width="1.3403" stroke-miterlimit="10" stroke-linecap="round"/>
<path d="M166.997 170.83C168.297 170.28 168.277 169.04 168.177 168.74C168.077 168.44 167.827 168.21 167.547 168.05C167.267 167.89 166.967 167.79 166.687 167.64C165.897 167.24 165.297 166.49 165.057 165.64" stroke="#FF4081" stroke-width="1.3403" stroke-miterlimit="10" stroke-linecap="round"/>
<path d="M168.795 163.87C169.185 163.58 169.585 163.29 169.975 163" stroke="#F9D232" stroke-width="0.5566" stroke-miterlimit="10" stroke-linecap="round"/>
<path d="M164.506 164.09C164.656 164.56 164.806 165.02 164.966 165.49" stroke="#F9D232" stroke-width="0.5566" stroke-miterlimit="10" stroke-linecap="round"/>
<path d="M163.301 126.5C167.443 126.5 170.801 125.291 170.801 123.8C170.801 122.309 167.443 121.1 163.301 121.1C159.159 121.1 155.801 122.309 155.801 123.8C155.801 125.291 159.159 126.5 163.301 126.5Z" fill="#B9BDC3"/>
<path d="M166.801 57.1001H159.701V122.7H166.801V57.1001Z" fill="#B9BDC3"/>
<path opacity="0.2" d="M166.8 57.1001H164.9V122.7H166.8V57.1001Z" fill="black"/>
<path d="M168.502 33H158.102V69H168.502V33Z" fill="#FA9664"/>
<path d="M168.402 33L158.102 38.3V33.1L158.202 33H168.402Z" fill="#FFF173"/>
<path d="M168.502 40.0999L158.102 45.4999V40.2999L168.502 34.8999V40.0999Z" fill="#FFF173"/>
<path d="M168.502 47.3001L158.102 52.7001V47.5001L168.502 42.1001V47.3001Z" fill="#FFF173"/>
<path d="M168.502 54.5L158.102 59.9001V54.7001L168.502 49.3V54.5Z" fill="#FFF173"/>
<path d="M168.502 61.7L158.102 67.1V61.8L168.502 56.5V61.7Z" fill="#FFF173"/>
<path d="M168.501 63.7V68.9L168.301 69H158.201L168.501 63.7Z" fill="#FFF173"/>
<path d="M168.502 33H158.102V69H168.502V33Z" fill="#FA9664"/>
<path d="M168.402 33L158.102 38.3V33.1L158.202 33H168.402Z" fill="#FFF173"/>
<path d="M168.502 40.0999L158.102 45.4999V40.2999L168.502 34.8999V40.0999Z" fill="#FFF173"/>
<path d="M168.502 47.3001L158.102 52.7001V47.5001L168.502 42.1001V47.3001Z" fill="#FFF173"/>
<path d="M168.502 54.5L158.102 59.9001V54.7001L168.502 49.3V54.5Z" fill="#FFF173"/>
<path d="M168.502 61.7L158.102 67.1V61.8L168.502 56.5V61.7Z" fill="#FFF173"/>
<path d="M168.501 63.7V68.9L168.301 69L168.101 69.2C165.401 72.2 160.701 72.1 158.201 69L168.501 63.7Z" fill="#FFF173"/>
<path opacity="0.2" d="M168.501 68.9L166.301 70.7V33H168.501V68.9Z" fill="black"/>
<path d="M163.1 36.7999C170.335 36.7999 176.2 34.6509 176.2 32C176.2 29.349 170.335 27.2 163.1 27.2C155.865 27.2 150 29.349 150 32C150 34.6509 155.865 36.7999 163.1 36.7999Z" fill="#FA9664"/>
<path d="M163.1 35.9999C170.335 35.9999 176.2 33.8509 176.2 31.1999C176.2 28.5489 170.335 26.3999 163.1 26.3999C155.865 26.3999 150 28.5489 150 31.1999C150 33.8509 155.865 35.9999 163.1 35.9999Z" fill="#FFF173"/>
<path d="M175.199 30.3001C175.199 32.6001 169.799 34.5001 163.199 34.5001C160.499 34.5001 157.999 34.2001 155.999 33.6001C155.399 33.4001 154.799 33.3001 154.299 33.1001C153.999 33.0001 153.699 32.9001 153.499 32.8001C153.199 32.7001 152.899 32.5001 152.699 32.4001C151.699 31.8001 151.199 31.1001 151.199 30.3001C151.199 29.5001 151.799 28.8001 152.699 28.2001C152.899 28.0001 153.199 27.9001 153.499 27.8001C153.699 27.7001 153.999 27.6001 154.299 27.5001C154.799 27.3001 155.299 27.1001 155.999 27.0001C157.999 26.5001 160.499 26.1001 163.199 26.1001C169.799 26.1001 175.199 28.0001 175.199 30.3001Z" fill="#6AC86E"/>
<path d="M175.1 11.1001H152.4V30.6001H175.1V11.1001Z" fill="#219750"/>
<path d="M174.5 11.1001H151V30.6001H174.5V11.1001Z" fill="#6AC86E"/>
<path d="M170.499 30.3001C170.499 31.3001 167.199 32.1001 163.099 32.1001C158.999 32.1001 155.699 31.3001 155.699 30.3001C155.699 29.3001 158.999 23.4001 163.099 23.4001C167.199 23.4001 170.499 29.3001 170.499 30.3001Z" fill="#219750"/>
<path d="M157.699 30.1C160.185 30.1 162.199 27.1003 162.199 23.4C162.199 19.6996 160.185 16.7 157.699 16.7C155.214 16.7 153.199 19.6996 153.199 23.4C153.199 27.1003 155.214 30.1 157.699 30.1Z" fill="white"/>
<path d="M158.699 30.1C161.185 30.1 163.199 27.1003 163.199 23.4C163.199 19.6996 161.185 16.7 158.699 16.7C156.214 16.7 154.199 19.6996 154.199 23.4C154.199 27.1003 156.214 30.1 158.699 30.1Z" fill="#1A844B"/>
<path d="M165.1 30.1C167.585 30.1 169.6 27.1003 169.6 23.4C169.6 19.6996 167.585 16.7 165.1 16.7C162.614 16.7 160.6 19.6996 160.6 23.4C160.6 27.1003 162.614 30.1 165.1 30.1Z" fill="#1A844B"/>
<path d="M168.5 30.1C170.985 30.1 173 27.1003 173 23.4C173 19.6996 170.985 16.7 168.5 16.7C166.015 16.7 164 19.6996 164 23.4C164 27.1003 166.015 30.1 168.5 30.1Z" fill="white"/>
<path opacity="0.5" d="M154.2 11.1001V32.3001C153.9 32.2001 153.6 32.1001 153.4 32.1001C153.1 32.0001 152.8 31.9001 152.6 31.8001V11.1001H154.2Z" fill="white"/>
<path opacity="0.5" d="M155.9 11.0999V32.5999C155.3 32.4999 154.7 32.3999 154.2 32.1999C153.9 32.0999 153.6 31.9999 153.4 31.9999V10.8999L155.9 11.0999Z" fill="white"/>
<path d="M163.1 16.4C170.335 16.4 176.2 14.251 176.2 11.6C176.2 8.94908 170.335 6.80005 163.1 6.80005C155.865 6.80005 150 8.94908 150 11.6C150 14.251 155.865 16.4 163.1 16.4Z" fill="#FA9664"/>
<path d="M163.1 15.6C170.335 15.6 176.2 13.451 176.2 10.8C176.2 8.14903 170.335 6 163.1 6C155.865 6 150 8.14903 150 10.8C150 13.451 155.865 15.6 163.1 15.6Z" fill="#FFF173"/>
<defs>
<clipPath id="clip0">
<rect width="35.05" height="26.22" fill="white" transform="translate(44 185)"/>
</clipPath>
</defs>
</svg>
