<svg width="1440" height="1024" viewBox="0 0 1440 1024" fill="none" xmlns="http://www.w3.org/2000/svg">
<g clip-path="url(#clip0)">
<rect width="1440" height="1024" fill="#060606"/>
<g clip-path="url(#clip1)">
<path d="M2241.34 -640.03H-637.471V1623.47H2241.34V-640.03Z" fill="#3A058D"/>
<path d="M2406.14 2.33002L2207.52 47.11L2109.56 408.66L2060.11 261.58L2048.45 345.07L2001.74 359.45L1951.8 500.54L1944.01 446.84L1916.84 422.99L1884.23 484.58L1730.63 253.16L1583.6 424.78L1562.26 408.57L1413.16 502.77L1360.43 484.62L1326.25 610.86L1138.82 529.42L1122.23 556.03L1103.37 556.44L1072.88 586.73L872.34 547.56L833.84 582.24L812.21 575.72L782.86 618.36L613.1 563.32L584.37 591.01L548.57 544.11L528.14 558.02L479.46 523.78L449.99 542.67L336.81 450.36L229.86 493.71L179.33 466.5L115.7 497.44L91.9199 481.98L48.0099 503.18L18.3599 485.45L-79.5402 534.5L-118.81 489.38L-146.24 496.02L-180.54 464.7L-183.93 498.91L-248.77 353.21L-291.04 438.92L-360.07 196.35L-394.89 332.15L-431.24 219.94L-476.29 267.65L-536.36 102.67L-606.48 168.91L-642.14 147.63L-687.42 169.13L-772.91 103.64V1417.62H2406.14V2.33002Z" fill="#4900B8"/>
<path d="M1531.63 429.72C1527.84 431.94 1524.44 434.7 1521.16 437.69C1517.86 440.67 1514.59 443.83 1511.05 446.86L1510.66 447.11C1502.63 452.3 1494.74 457.71 1486.91 463.24L1463.37 479.88C1455.5 485.47 1447.5 490.94 1439.35 496.31C1431.19 501.66 1422.85 506.87 1414.23 511.69L1410.8 513.61L1406.05 512.12C1398.57 509.78 1390.13 508.25 1381.17 506.01C1376.69 504.88 1372.07 503.57 1367.43 501.85C1362.79 500.13 1358.14 498.01 1353.65 495.43L1372.51 488.81C1371.67 491.67 1370.88 494.53 1370.28 497.17C1369.99 498.46 1369.74 499.76 1369.66 500.61C1369.64 500.81 1369.63 500.98 1369.64 501.04C1369.65 501.09 1369.68 501.09 1369.71 500.68C1369.72 500.47 1369.73 500.14 1369.66 499.47C1369.64 499.3 1369.62 499.13 1369.57 498.86L1369.5 498.5L1369.39 498.01C1369.22 497.4 1368.95 496.39 1368.16 494.99C1367.93 494.59 1367.7 494.23 1367.42 493.84C1367.07 493.36 1366.69 492.89 1366.28 492.46C1365.82 491.97 1365.22 491.43 1364.63 491C1364.01 490.54 1363.22 490.05 1362.46 489.69C1361.68 489.32 1360.82 489 1359.96 488.79C1359.14 488.58 1358.34 488.46 1357.51 488.41C1356.78 488.37 1356.11 488.38 1355.41 488.45C1354.79 488.51 1354.31 488.6 1353.76 488.73C1351.86 489.19 1350.86 489.78 1350.13 490.19C1349.47 490.59 1349.01 490.94 1348.71 491.18C1348.09 491.69 1347.84 491.96 1347.65 492.16L1347.31 492.53C1347.19 492.66 1347.19 492.64 1347.21 492.57L1347.53 491.74C1347.8 491.02 1348.06 490.15 1348.17 489.49C1348.23 489.16 1348.25 488.88 1348.24 488.74C1348.23 488.61 1348.17 488.6 1348.14 488.98C1348.14 489.36 1348.07 490.15 1348.69 491.84C1349.01 492.66 1349.56 493.72 1350.43 494.76C1351.29 495.8 1352.47 496.76 1353.62 497.39L1373.8 490.15C1370.24 499.97 1367.13 509.98 1364.41 520.15C1361.67 530.32 1359.31 540.65 1357.14 551.1C1352.71 571.98 1349.15 593.35 1345.09 615.07L1340.99 636.97L1318.95 628.74C1314.41 627.05 1309.88 625.31 1305.28 623.5C1302.97 622.59 1300.66 621.66 1298.25 620.65C1297.04 620.14 1295.81 619.61 1294.43 618.98C1293.73 618.65 1293.01 618.32 1292.05 617.82C1291.54 617.55 1291.03 617.29 1290.05 616.68C1289.79 616.52 1289.51 616.34 1289.11 616.06C1288.7 615.77 1288.25 615.46 1287.38 614.72C1286.87 614.27 1286.41 613.89 1285.42 612.81C1285.18 612.54 1285.01 612.35 1284.62 611.87L1284.13 611.23C1283.96 610.99 1283.86 610.87 1283.59 610.45C1283.35 610.09 1283.13 609.73 1282.91 609.35C1282.67 608.93 1282.56 608.74 1282.2 607.99C1281.89 607.35 1281.62 606.69 1281.38 606.02C1281.2 605.52 1280.83 604.34 1280.6 603.18C1280.37 601.91 1280.25 601.16 1280.22 599.44C1280.21 597.76 1280.41 596.03 1280.81 594.42C1281.23 592.7 1281.97 590.84 1282.91 589.22C1283.94 587.46 1284.71 586.53 1285.83 585.32C1286.99 584.12 1288.1 583.25 1288.78 582.78C1289.61 582.19 1290.49 581.67 1291.39 581.22C1291.98 580.93 1292.52 580.69 1293.11 580.46C1293.61 580.26 1294.44 579.99 1294.69 579.92C1295.06 579.81 1295.42 579.71 1295.8 579.63C1296.13 579.55 1296.63 579.45 1296.83 579.41C1297.31 579.32 1297.79 579.25 1298.28 579.2C1298.67 579.16 1298.95 579.14 1299.29 579.11L1300.09 579.08H1300.76L1301.26 579.09L1302.09 579.13C1302.56 579.16 1302.91 579.2 1303.2 579.24C1303.78 579.31 1304.19 579.38 1304.53 579.43C1305.19 579.54 1305.62 579.64 1306 579.72C1306.75 579.89 1307.26 580.02 1307.75 580.15C1308.7 580.4 1309.46 580.62 1310.21 580.84C1311.67 581.28 1312.99 581.7 1314.3 582.13C1316.9 583 1319.39 583.89 1321.93 584.86C1324.47 585.84 1327.01 586.87 1329.83 588.19C1331.26 588.87 1332.73 589.58 1334.62 590.69C1335.59 591.28 1336.64 591.9 1338.24 593.13C1339.07 593.8 1340.01 594.53 1341.53 596.19C1342.3 597.07 1343.22 598.12 1344.41 600.19C1345 601.24 1345.65 602.54 1346.24 604.4C1346.82 606.24 1347.35 608.75 1347.22 611.82L1345.99 640.74L1318.37 630.32C1310.26 627.26 1302.18 624.16 1294.2 620.9C1286.22 617.65 1278.31 614.33 1270.44 611L1223.71 591.01L1212.15 586.09L1206.38 583.67L1200.83 581.37L1198.18 580.29C1197.28 579.93 1196.48 579.55 1195.46 579.22L1192.55 578.19L1189.32 576.97C1184.96 575.3 1180.76 573.56 1176.71 571.83C1168.58 568.37 1161.03 564.97 1153.85 562.13C1150.26 560.69 1146.79 559.47 1143.39 558.33C1140.01 557.22 1136.74 556.33 1133.53 555.57L1147.64 554.92L1145.17 555.8L1157.27 547.02C1157.64 546.56 1157.46 546.77 1157.05 547.83C1156.62 548.88 1156.01 550.68 1155.06 553.3C1154.06 555.92 1152.83 559.41 1150.01 564.07C1148.58 566.38 1146.69 568.98 1144.12 571.52C1141.57 574.06 1138.32 576.46 1134.86 578.2L1133.31 578.98L1131.49 579.6C1127.74 580.88 1124.1 581.47 1121.2 581.74C1118.28 582 1116.06 581.99 1114.58 582.02L1113.61 582.04L1112.92 582.06L1112.5 582.09C1112.45 582.1 1112.39 582.11 1112.35 582.11C1112.32 582.14 1113.05 582.09 1114.03 581.78L1118.71 579.69C1117.93 580.2 1116.87 581.03 1115.33 582.61C1113.79 584.17 1111.86 586.45 1109.4 589.37C1106.92 592.28 1103.9 595.88 1099.7 599.78C1097.59 601.72 1095.17 603.71 1092.4 605.61C1089.63 607.5 1086.51 609.28 1083.16 610.72L1076.04 613.8L1068.09 612.46L1017.65 603.97C1000.81 601.08 983.92 598.25 967.05 595.09C950.18 591.96 933.289 588.7 916.399 585.25C899.519 581.78 882.62 578.17 865.76 574.2L892.659 565.69C888.609 570.22 884.18 575.16 879.07 580.16C873.94 585.16 868.13 590.3 860.8 595.03C857.13 597.38 853.07 599.62 848.51 601.51C843.97 603.4 838.91 604.92 833.53 605.73C828.17 606.55 822.53 606.65 817.11 605.98C811.69 605.32 806.529 603.94 801.849 602.14L823.909 601.08C825.199 600.44 826.32 599.63 827.1 598.93C827.89 598.22 828.36 597.64 828.61 597.31C829.1 596.62 828.819 596.9 828.399 597.85C827.959 598.8 827.34 600.37 826.57 602.42C825.77 604.49 824.84 607.04 823.33 610.33C822.97 611.11 822.49 612.11 822.09 612.86C821.67 613.66 821.26 614.46 820.8 615.25C819.9 616.84 818.939 618.41 817.879 619.95C815.769 623.03 813.359 625.99 810.689 628.72C805.359 634.2 799.03 638.62 792.63 641.77L782.39 646.8L771.93 643.25C767.32 641.68 763 640.1 758.729 638.51L746.12 633.73L721.459 624.23C705.149 617.98 688.94 611.92 672.79 606.46C664.71 603.74 656.67 601.15 648.68 598.79C640.7 596.43 632.759 594.33 625.079 592.71C623.149 592.28 621.27 591.94 619.38 591.58C618.43 591.39 617.529 591.27 616.599 591.11C615.819 590.97 614.149 590.74 615.24 590.85C615.76 590.88 616.55 590.88 617.53 590.73C618.5 590.59 619.64 590.27 620.68 589.82C621.72 589.38 622.62 588.82 623.24 588.34C623.859 587.87 624.199 587.5 624.349 587.33C624.609 587 624.14 587.49 623.37 588.71C622.979 589.31 622.5 590.11 621.91 591.08C621.32 592.05 620.619 593.22 619.709 594.62C618.799 596.01 617.669 597.7 616.01 599.72C614.32 601.74 612.089 604.22 608.349 606.82C606.509 608.09 604.26 609.36 601.68 610.37C599.11 611.38 596.259 612.08 593.449 612.37C590.629 612.67 587.979 612.56 585.599 612.23C583.189 611.9 581.22 611.36 579.37 610.76L582.439 611.58C581.349 611.35 580.259 611.06 579.199 610.73C578.339 610.44 577.48 610.12 576.65 609.77C575.91 609.45 575.279 609.15 574.599 608.81C574.249 608.63 573.969 608.49 573.709 608.34L572.91 607.88C570.86 606.67 569.389 605.57 568.229 604.63C565.839 602.68 564.32 601.12 562.93 599.65C560.22 596.74 558.27 594.25 556.42 591.84C552.77 587.08 549.81 582.67 546.92 578.49C544.06 574.35 541.289 570.38 538.849 567.24C537.669 565.72 536.489 564.36 536.069 563.9C535.899 563.66 535.919 563.77 537.069 564.41C537.739 564.77 538.71 565.29 540.65 565.86C541.2 566.02 541.749 566.15 542.329 566.25C543.049 566.39 543.78 566.49 544.5 566.54C545.359 566.61 546.28 566.63 547.16 566.57C548.16 566.53 549.209 566.4 550.199 566.18L552.089 565.72C553.089 565.41 554 564.73 554.03 564.62C554.08 564.51 553.52 564.94 552.25 566.56L551.04 568.11C550.54 568.75 549.94 569.53 549 570.63C548.53 571.18 547.96 571.82 547.18 572.62C546.39 573.41 545.409 574.37 543.839 575.56C542.249 576.72 540.119 578.25 536.319 579.58C535.839 579.74 535.37 579.89 534.87 580.03C534.329 580.18 533.789 580.31 533.24 580.42C532.71 580.53 532.12 580.63 531.51 580.72C530.91 580.8 530.309 580.86 529.689 580.9C527.179 581.06 524.53 580.82 522.16 580.24C520.95 579.94 519.94 579.62 518.79 579.17C518.18 578.93 517.579 578.66 516.99 578.37L516.16 577.95L516.05 577.88L515.14 577.35C514.55 577 513.91 576.61 513.37 576.26C512.51 575.68 511.57 575.07 510.79 574.49C509.97 573.9 509.169 573.3 508.439 572.72C507.669 572.12 506.99 571.54 506.28 570.95C500.81 566.25 496.79 561.81 493.04 557.69C489.34 553.58 486.03 549.77 482.99 546.59C481.479 545.01 480.03 543.59 478.76 542.46C478.14 541.92 477.53 541.39 477.03 541.01C476.76 540.79 476.539 540.64 476.319 540.47C476.149 540.34 476.27 540.43 476.28 540.41C476.29 540.41 476.309 540.41 476.329 540.41H476.349C476.329 540.39 476.47 540.48 476.52 540.5C476.67 540.58 476.819 540.65 476.969 540.71L477.189 540.8L477.51 540.9C477.75 540.97 478.05 541.04 478.39 541.1C479.06 541.21 479.91 541.26 480.64 541.17C481.37 541.09 481.96 540.92 482.27 540.78C482.58 540.65 482.65 540.55 482.52 540.6C482.25 540.67 481.28 541.27 480.12 542.26C478.94 543.26 477.54 544.62 476.04 546.21C474.53 547.81 472.899 549.64 471.079 551.69C469.229 553.75 467.26 555.98 464.52 558.64L450.479 572.3L436.04 560.22C430.73 555.78 426.06 550.95 422.18 546.82C418.3 542.68 415.01 539.25 411.75 536.42L385.849 514.79C377.139 507.43 368.47 499.92 359.88 492.21C351.29 484.52 342.83 476.58 334.55 468.44L335.469 469.23C335.309 469.04 335.369 469.01 335.449 468.96C335.529 468.91 335.53 468.81 335.18 468.71C334.5 468.51 332.39 468.68 329.66 469.49C328.28 469.88 326.75 470.4 325.06 471.01L322.39 471.98L321.209 472.4L319.99 472.88L309.41 477.06C302.18 479.88 294.83 482.68 287.31 485.23C279.79 487.77 272.109 490.09 264.319 492.09L266.459 491.24C263.279 492.64 260.1 494.23 256.68 495.98L251.39 498.68L248.62 500.05L245.689 501.44L244.8 501.85C244.48 501.99 244.26 502.11 243.81 502.28C243.01 502.59 242.12 502.91 241.52 503.09C240.19 503.52 238.79 503.86 237.38 504.15C234.53 504.69 231.55 504.91 228.63 504.72C222.74 504.38 217.39 502.48 213.02 500.21C208.61 497.92 204.989 495.26 201.689 492.66C198.399 490.05 195.429 487.45 192.569 485.04C186.879 480.22 181.529 476.04 176.329 474.21L182.939 473.44C172.559 478.34 162.219 484.48 151.109 489.89C145.559 492.6 139.819 495.14 133.819 497.2C127.829 499.27 121.55 500.74 115.18 501.41L113.05 501.63L111.81 500.68C108.56 498.19 105.48 495.66 102.4 493.14C99.3295 490.63 96.2795 488.12 93.1995 485.74L93.9395 486.1C92.8195 485.6 91.3995 485.4 89.8395 485.51C88.2895 485.62 86.6295 485.95 84.9795 486.45C81.6595 487.45 78.3595 488.99 75.1095 490.64L73.5195 488.02C76.6995 486.08 79.9795 484.21 83.5695 482.8C85.3595 482.1 87.2395 481.52 89.2295 481.22C91.2095 480.92 93.3596 480.95 95.4296 481.63L95.6295 481.69L95.8096 481.81C102.46 486.25 108.799 491.03 115.329 495.38L114.12 495.12C119.88 494.14 125.509 492.4 130.959 490.16C136.409 487.93 141.679 485.21 146.849 482.29C157.199 476.44 167.17 469.76 177.76 463.93L178.43 463.56L179.18 463.76C183.15 464.84 186.819 466.62 190.229 468.67C193.639 470.73 196.82 473.05 199.92 475.39C206.11 480.05 212.049 485 218.709 488.14C222.019 489.69 225.52 490.7 229.03 490.78C230.78 490.83 232.54 490.63 234.26 490.25C235.12 490.04 235.97 489.81 236.81 489.5C237.24 489.36 237.61 489.2 238.01 489.05C238.4 488.89 238.809 488.65 239.209 488.45C245.929 485 252.47 480.78 259.51 477.25L259.68 477.17L259.87 477.11C267.11 474.9 274.259 472.38 281.329 469.62C288.399 466.87 295.41 463.91 302.39 460.85L312.88 456.21L314.209 455.62L315.56 455.07L318.209 453.98C319.989 453.25 321.81 452.54 323.68 451.89C327.41 450.62 331.419 449.57 335.699 449.65C337.829 449.71 340 450.06 342.05 450.81C344.11 451.54 346.009 452.67 347.689 453.99L347.75 454.03L347.819 454.09C356.109 461.7 364.579 469.11 373.219 476.33C381.849 483.56 390.639 490.62 399.479 497.62L426.14 518.55C430.67 522.19 434.77 526.24 438.76 530.23C442.75 534.22 446.71 538.08 451.01 541.51L447.65 541.7C451.16 538.13 454.419 533.94 457.99 529.96C461.579 526 465.409 521.99 470.459 519.09C472.969 517.67 475.88 516.57 478.99 516.37C480.539 516.27 482.109 516.37 483.62 516.7C485.16 517.02 486.529 517.52 487.969 518.22C489.319 518.96 490.49 519.72 491.609 520.53C492.75 521.33 493.83 522.19 494.89 523.06C496.99 524.81 498.96 526.66 500.87 528.55C504.68 532.32 508.229 536.24 511.819 540.05C515.409 543.85 519.01 547.59 522.9 550.8C523.88 551.6 524.86 552.37 525.88 553.08C526.38 553.45 526.9 553.76 527.41 554.11L528.15 554.56L528.52 554.78L528.569 554.81L528.54 554.79C528.52 554.78 528.489 554.77 528.459 554.76C528.419 554.74 528.389 554.74 528.349 554.72C528.169 554.67 527.909 554.7 527.849 554.73C527.77 554.76 527.849 554.73 527.959 554.64C528.199 554.46 528.569 554.08 528.939 553.64C529.679 552.76 530.45 551.69 531.26 550.62C532.88 548.47 534.699 546.25 536.939 544.36C539.169 542.46 541.87 540.9 544.79 540.07L544.9 540.04L545 540.02C546.18 539.79 547.29 539.94 548.18 540.21C549.08 540.48 549.83 540.85 550.53 541.24C551.89 542.04 553.02 542.95 554.06 543.88C556.13 545.75 557.91 547.74 559.63 549.76C563.03 553.81 566.11 557.99 569.18 562.14C572.24 566.29 575.26 570.46 578.4 574.43C579.97 576.41 581.58 578.34 583.26 580.09C584.1 580.96 584.959 581.79 585.819 582.47C586.249 582.82 586.679 583.11 587.069 583.34C587.459 583.57 587.84 583.72 588.02 583.75L588.14 583.77L588.349 583.84C589.12 584.09 589.829 584.19 590.439 584.12C591.049 584.04 591.609 583.84 592.219 583.41C593.439 582.57 594.65 580.96 595.76 579.22C598.02 575.7 600.03 571.53 603.38 567.85C605.06 566.03 607.16 564.35 609.65 563.31C612.13 562.26 614.87 561.94 617.41 562.14C618.74 562.24 619.77 562.44 620.89 562.6C621.99 562.77 623.109 562.91 624.209 563.12C626.409 563.51 628.61 563.88 630.79 564.34C639.54 566.09 648.15 568.28 656.68 570.7C665.21 573.12 673.66 575.76 682.06 578.54C698.86 584.09 715.449 590.18 731.969 596.39L756.709 605.74C764.949 608.84 773.189 611.94 781.459 614.71L779.229 614.87C782.909 613.03 786.249 610.63 789.069 607.7C791.889 604.79 794.18 601.34 795.9 597.64C797.61 593.89 798.91 589.64 800.8 585.4C801.75 583.28 802.859 581.13 804.379 579.1C805.879 577.08 807.88 575.16 810.37 573.92L811.55 573.33L812.77 573.8C817.96 575.79 823.509 576.52 828.919 575.66C834.339 574.84 839.53 572.49 844.31 569.4C849.1 566.3 853.509 562.46 857.689 558.35C861.879 554.23 865.83 549.81 869.81 545.33L871.02 543.97L872.8 544.39C905.9 552.19 939.239 559.01 972.679 565.35C1006.12 571.69 1039.67 577.57 1073.21 583.53L1071.6 583.72C1074.66 582.42 1077.45 580.46 1080.04 578.11C1082.63 575.76 1085.02 573.06 1087.44 570.27C1089.87 567.49 1092.33 564.61 1095.11 561.9C1097.87 559.2 1100.97 556.67 1104.45 554.69L1104.69 554.55L1104.95 554.46C1106.61 553.91 1108.31 553.62 1109.93 553.48C1111.56 553.34 1113.12 553.35 1114.59 553.35C1117.54 553.37 1120.18 553.3 1122.48 552.53L1122.12 552.68C1123.65 551.92 1124.89 550.66 1125.94 548.99C1126.98 547.33 1127.81 545.33 1128.61 543.24C1129.41 541.14 1130.18 538.93 1131.14 536.7C1132.1 534.48 1133.25 532.22 1134.82 530.13L1135.33 529.45L1136.13 529.18L1138.61 528.34L1139.38 528.08L1140.14 528.27C1144.35 529.33 1148.5 530.55 1152.57 531.97C1156.63 533.41 1160.64 534.95 1164.58 536.63C1172.46 539.95 1180.14 543.6 1187.83 547.05C1191.68 548.78 1195.53 550.46 1199.41 552.03C1201.34 552.82 1203.32 553.58 1205.31 554.33C1207.29 555.1 1209.25 556.01 1211.21 556.84C1219.04 560.25 1226.76 563.69 1234.49 567.2L1280.71 588.36C1296.12 595.36 1311.6 602.19 1327.24 608.58L1323.79 610.79C1323.78 611.37 1323.94 611.61 1323.99 611.71C1324.05 611.81 1324.06 611.81 1324.04 611.79C1324 611.74 1323.86 611.61 1323.7 611.48C1323.37 611.21 1322.93 610.92 1322.48 610.65C1321.56 610.09 1320.55 609.56 1319.53 609.04C1317.47 608.02 1315.32 607.07 1313.16 606.17C1310.99 605.27 1308.8 604.41 1306.59 603.61C1305.49 603.21 1304.38 602.82 1303.29 602.47C1302.74 602.29 1302.2 602.12 1301.67 601.97L1300.91 601.77L1300.6 601.7C1300.54 601.68 1300.41 601.68 1300.65 601.69C1300.74 601.68 1300.81 601.7 1301.19 601.6C1301.28 601.57 1301.45 601.51 1301.57 601.45C1301.68 601.4 1301.78 601.34 1301.88 601.27C1301.96 601.21 1302.09 601.11 1302.23 600.97C1302.46 600.74 1302.73 600.31 1302.83 599.88C1302.88 599.69 1302.9 599.48 1302.9 599.28C1302.9 599.07 1302.88 598.99 1302.86 598.84C1302.74 598.3 1302.61 598.16 1302.52 598C1302.44 597.88 1302.37 597.8 1302.33 597.76C1302.24 597.66 1302.21 597.64 1302.18 597.61C1302.11 597.55 1302.19 597.62 1302.26 597.66C1302.42 597.76 1302.65 597.9 1302.88 598.02C1303.35 598.28 1303.86 598.53 1304.38 598.79C1305.42 599.3 1306.48 599.79 1307.56 600.28C1309.71 601.26 1311.88 602.2 1314.07 603.14C1318.44 605.01 1322.84 606.84 1327.25 608.65L1323.94 610.38C1328.7 589.11 1333.05 567.69 1338.37 546.45C1343.68 525.21 1349.98 504.12 1358.39 483.8L1359.34 481.5L1361.58 482.66C1362.78 483.28 1363.71 484.45 1364.13 485.55C1364.58 486.66 1364.69 487.71 1364.72 488.68C1364.74 490.62 1364.37 492.34 1363.91 494C1363.43 495.65 1362.82 497.23 1362.07 498.76C1361.7 499.53 1361.29 500.28 1360.82 501.04C1360.58 501.42 1360.33 501.8 1360.03 502.18C1359.73 502.57 1359.42 502.96 1358.88 503.42C1358.59 503.64 1358.29 503.93 1357.46 504.16C1357.06 504.27 1356.35 504.3 1355.7 503.98C1355.06 503.67 1354.7 503.18 1354.53 502.87C1354.18 502.2 1354.16 501.83 1354.1 501.48C1354.06 501.14 1354.05 500.86 1354.06 500.59C1354.08 499.55 1354.22 498.72 1354.37 497.87C1354.68 496.2 1355.09 494.64 1355.53 493.08C1356.41 489.98 1357.42 486.96 1358.47 483.96L1359.37 481.38L1361.67 482.84C1368.85 487.39 1376.89 490.51 1385.18 493.02C1393.47 495.56 1402.05 497.57 1410.42 500.72L1408.83 500.8C1425.96 492.32 1442.41 482.46 1458.75 472.37C1475.08 462.28 1491.39 452.04 1508.28 442.73L1508.09 442.85C1511.67 440.19 1515.11 437.28 1518.72 434.48C1522.32 431.68 1526.17 429.03 1530.38 427.01L1531.63 429.72Z" fill="#7000FF"/>
<path d="M2173.16 617.45C2058.24 578.49 1783.61 578.49 1666.74 605.76C1581.22 625.71 1357.8 637.27 1269.33 634.79C1139.89 631.17 1074.72 653.08 951.899 679.77C879.629 695.48 775.25 689.09 700.64 699.25C632.53 708.52 474.12 670.17 406.53 673.93C126.05 689.51 69.7295 642.39 -68.9205 646.18C-240.311 650.86 -312.2 695.35 -637.48 629.13" fill="#5C01E4"/>
<path d="M2546.87 720.13C2475.36 718.88 2429.35 707.22 2429.35 707.22C2429.35 707.22 2371.48 695.35 2311.83 694.3C2252.18 693.26 2147.53 713.13 2076.02 711.88C2004.51 710.63 1958.53 698.96 1958.53 698.96C1958.53 698.96 1900.69 687.09 1841.06 686.04C1781.41 685 1676.85 704.86 1605.34 703.61C1533.83 702.36 1488.02 690.7 1488.02 690.7C1488.02 690.7 1430.53 678.83 1370.88 677.79C1311.23 676.75 1207.35 696.63 1135.87 695.38C1064.36 694.13 1019.91 682.48 1019.91 682.48C1019.91 682.48 960.45 670.58 900.83 669.53C841.18 668.49 734.98 688.32 663.46 687.07C591.95 685.82 545.93 674.16 545.93 674.16C545.93 674.16 488.06 662.29 428.4 661.24C368.75 660.2 264.1 680.07 192.59 678.82C121.08 677.57 75.09 665.89 75.09 665.89C75.09 665.89 17.25 654.02 -42.37 652.97C-102.02 651.93 -206.59 671.79 -278.1 670.54C-349.61 669.29 -395.4 657.63 -395.4 657.63C-395.4 657.63 -452.89 645.76 -512.55 644.72C-572.2 643.68 -676.63 663.55 -748.13 662.3C-819.64 661.05 -1244.42 651.92 -1244.42 651.92L-1245 563.65C-1245 563.65 -818.08 572.75 -746.57 574.01C-675.06 575.26 -570.92 555.39 -511.27 556.43C-451.62 557.47 -394.01 569.34 -394.01 569.34C-394.01 569.34 -348.12 581.01 -276.61 582.26C-205.1 583.51 -100.51 563.64 -40.86 564.69C18.79 565.73 76.64 577.61 76.64 577.61C76.64 577.61 122.66 589.28 194.14 590.53C265.63 591.78 370.3 571.92 429.95 572.96C489.6 574 547.48 585.88 547.48 585.88C547.48 585.88 593.49 597.55 665.01 598.8C736.52 600.05 842.75 580.21 902.38 581.26C962.03 582.3 1021.46 594.21 1021.46 594.21C1021.46 594.21 1065.91 605.85 1137.42 607.1C1208.93 608.35 1312.81 588.47 1372.43 589.51C1432.08 590.55 1489.57 602.42 1489.57 602.42C1489.57 602.42 1535.41 614.08 1606.89 615.33C1678.37 616.58 1782.96 596.72 1842.61 597.76C1902.26 598.8 1960.08 610.68 1960.08 610.68C1960.08 610.68 2006.09 622.35 2077.57 623.6C2149.05 624.85 2253.73 604.99 2313.38 606.03C2373.03 607.07 2430.9 618.95 2430.9 618.95C2430.9 618.95 2476.91 630.62 2548.42 631.87C2619.93 633.12 2725.61 613.27 2785.23 614.32C2844.88 615.36 2903.76 627.26 2903.76 627.26L2902.22 715.54C2902.22 715.54 2843.32 703.65 2783.69 702.6C2724.06 701.5 2618.35 721.38 2546.87 720.13Z" fill="#3A058D"/>
<path d="M3195.6 710.01C3167.12 634.79 3074.54 585.71 2999.71 599.44C2924.88 613.17 2852.88 649.78 2777.03 646.28C2666.06 641.15 2558.47 550.82 2453.18 588.63C2391.21 610.88 2346.15 674.24 2282.19 688.63C2223.79 701.77 2165.8 671 2108.97 651.55C1955.04 598.86 1788.11 628.26 1629.67 662.42C1471.23 696.58 1587.36 710.02 1149.64 710.02" fill="#3A058D"/>
<path d="M-1244.45 689.77C-1244.45 689.77 -768.589 700.63 -697.069 700.63C-625.549 700.63 -521.769 678.94 -462.109 678.94C-402.449 678.94 -344.639 689.8 -344.639 689.8C-344.639 689.8 -298.559 700.67 -227.029 700.67C-155.509 700.67 -51.2793 678.97 8.38074 678.97C68.0408 678.97 126.081 689.83 126.081 689.83C126.081 689.83 172.301 700.69 243.781 700.69C315.281 700.69 419.591 679 479.251 679C538.911 679 596.991 689.86 596.991 689.86C596.991 689.86 643.201 700.72 714.721 700.72C786.241 700.72 892.111 679.02 951.741 679.02C1011.4 679.02 1071.03 689.88 1071.03 689.88C1071.03 689.88 1115.68 700.73 1187.2 700.73C1258.72 700.73 1362.24 679.04 1421.87 679.04C1481.53 679.04 1539.22 689.9 1539.22 689.9C1539.22 689.9 1585.25 700.76 1656.74 700.76C1728.23 700.76 1832.45 679.06 1892.12 679.06C1951.78 679.06 2009.79 689.92 2009.79 689.92C2009.79 689.92 2056 700.77 2127.49 700.77C2198.98 700.77 2303.29 679.08 2362.95 679.08C2422.61 679.08 2480.68 689.94 2480.68 689.94C2480.68 689.94 2526.89 700.8 2598.41 700.8C2669.93 700.8 2775.24 679.1 2834.88 679.1C2894.54 679.1 2953.61 689.96 2953.61 689.96V774.28H-1244.45V689.77Z" fill="url(#paint0_linear)"/>
<path d="M-1085.02 783.26C-1085.02 783.26 -609.16 775.68 -537.64 775.68C-466.12 775.68 -362.339 790.82 -302.68 790.82C-243.02 790.82 -185.209 783.24 -185.209 783.24C-185.209 783.24 -139.13 775.66 -67.5995 775.66C3.92053 775.66 108.151 790.8 167.811 790.8C227.471 790.8 285.51 783.22 285.51 783.22C285.51 783.22 331.73 775.64 403.21 775.64C474.71 775.64 579.021 790.78 638.681 790.78C698.341 790.78 756.421 783.2 756.421 783.2C756.421 783.2 802.63 775.62 874.15 775.62C945.67 775.62 1051.54 790.76 1111.17 790.76C1170.83 790.76 1230.46 783.18 1230.46 783.18C1230.46 783.18 1275.11 775.6 1346.63 775.6C1418.15 775.6 1521.67 790.74 1581.3 790.74C1640.96 790.74 1698.65 783.16 1698.65 783.16C1698.65 783.16 1744.68 775.58 1816.17 775.58C1887.66 775.58 1991.88 790.72 2051.55 790.72C2111.21 790.72 2169.22 783.14 2169.22 783.14C2169.22 783.14 2215.43 775.56 2286.92 775.56C2358.41 775.56 2462.72 790.7 2522.38 790.7C2582.04 790.7 2640.11 783.12 2640.11 783.12C2640.11 783.12 2686.32 775.54 2757.84 775.54C2829.36 775.54 2934.67 790.68 2994.31 790.68C3053.97 790.68 3113.04 783.1 3113.04 783.1V724.25H-1085.02V783.26Z" fill="#5C01E4"/>
<path d="M615.11 813.36C615.11 813.36 784.08 932.9 901.36 951.78C993.43 966.6 658.15 1166.62 499.29 984.84C445.49 923.28 615.11 813.36 615.11 813.36Z" fill="#2297CC"/>
<path d="M-77.0596 712.59C-31.2496 714.46 81.2805 736.61 411.23 496.26C692.791 285.32 848.33 417.07 916.88 489.58C985.42 562.08 1031.86 839.68 659.1 987.8C286.34 1135.92 81.2404 1137.27 -199.68 1049.13C-491.46 957.58 -715.89 683.88 -668.53 603.25C-615.43 512.86 -330.04 702.26 -77.0596 712.59Z" fill="#28B6F6"/>
<path d="M504.57 903.76C504.57 903.76 610.19 1081.76 709.6 1146.78C787.65 1197.82 399.97 1243.91 328.93 1013.19C304.88 935.05 504.57 903.76 504.57 903.76Z" fill="#28B6F6"/>
<path d="M684.059 473.52C709.337 473.52 729.829 453.028 729.829 427.75C729.829 402.472 709.337 381.98 684.059 381.98C658.781 381.98 638.289 402.472 638.289 427.75C638.289 453.028 658.781 473.52 684.059 473.52Z" fill="#2297CC"/>
<path d="M530.25 713.06C540.467 713.06 548.75 704.777 548.75 694.56C548.75 684.343 540.467 676.06 530.25 676.06C520.033 676.06 511.75 684.343 511.75 694.56C511.75 704.777 520.033 713.06 530.25 713.06Z" fill="#2297CC"/>
<path d="M596.52 498.45C606.737 498.45 615.02 490.167 615.02 479.95C615.02 469.733 606.737 461.45 596.52 461.45C586.302 461.45 578.02 469.733 578.02 479.95C578.02 490.167 586.302 498.45 596.52 498.45Z" fill="#2297CC"/>
<path d="M887.61 533.78C904.284 533.78 917.8 520.263 917.8 503.59C917.8 486.916 904.284 473.4 887.61 473.4C870.937 473.4 857.42 486.916 857.42 503.59C857.42 520.263 870.937 533.78 887.61 533.78Z" fill="#2297CC"/>
<path d="M217.361 686.16C233.498 686.16 246.581 673.078 246.581 656.94C246.581 640.802 233.498 627.72 217.361 627.72C201.223 627.72 188.141 640.802 188.141 656.94C188.141 673.078 201.223 686.16 217.361 686.16Z" fill="#2297CC"/>
<path d="M740.539 585.37C719.879 576.44 695.879 586.01 687.019 606.56C678.159 627.1 687.729 651.11 708.399 660.03C729.059 668.96 753.059 659.39 761.919 638.84C770.769 618.31 761.199 594.3 740.539 585.37Z" fill="#231F20"/>
<path d="M754.74 635.49C745.88 656.05 725.15 666.88 708.43 659.67C691.72 652.47 685.35 629.96 694.21 609.4C703.07 588.84 723.8 578.01 740.52 585.22C757.23 592.43 763.6 614.93 754.74 635.49Z" fill="#231F20"/>
<path opacity="0.3" d="M730.399 613.06C741.269 618.97 764.629 621.44 750.589 640.01C736.549 658.57 723.689 651.09 712.819 645.19C701.949 639.28 697.189 627.33 702.019 618.41C706.849 609.49 719.529 607.15 730.399 613.06Z" fill="#29B6F6"/>
<path d="M783.769 665.08C783.429 677.49 760.149 686.92 731.759 686.16C703.369 685.4 680.619 674.72 680.949 662.31C681.279 649.9 704.569 640.46 732.969 641.23C761.359 642 784.109 652.68 783.769 665.08Z" fill="#28B6F6"/>
<path d="M711.55 613.68C709.41 618.64 703.59 620.91 698.56 618.74C693.52 616.57 691.18 610.79 693.32 605.82C695.46 600.86 701.27 598.59 706.31 600.76C711.34 602.93 713.69 608.71 711.55 613.68Z" fill="white"/>
<path d="M927.931 571.7C910.331 563.94 889.771 571.98 882.071 589.47C874.371 606.97 882.411 627.53 900.001 635.29C917.601 643.05 938.161 635.01 945.861 617.52C953.561 600.02 945.531 579.45 927.931 571.7Z" fill="#231F20"/>
<path d="M939.752 614.6C932.052 632.11 914.272 641.23 900.042 634.98C885.812 628.72 880.511 609.46 888.201 591.94C895.901 574.43 913.681 565.31 927.911 571.56C942.151 577.83 947.452 597.09 939.752 614.6Z" fill="#231F20"/>
<path opacity="0.3" d="M908.482 597.79C918.652 594.9 934.391 582.45 936.911 602.17C939.431 621.9 927.111 625.01 916.941 627.9C906.771 630.79 896.722 626.34 894.342 618.01C891.962 609.69 898.312 600.68 908.482 597.79Z" fill="#29B6F6"/>
<path d="M960.16 609.29C966.62 617.7 958.26 636.5 939.01 651.29C919.77 666.07 898.93 671.24 892.47 662.83C886.01 654.42 896.37 635.62 915.62 620.83C934.86 606.04 953.7 600.87 960.16 609.29Z" fill="#28B6F6"/>
<path d="M902.121 598.26C900.261 602.49 895.281 604.39 890.991 602.51C886.701 600.63 884.731 595.67 886.591 591.44C888.451 587.21 893.431 585.31 897.721 587.2C902.001 589.08 903.971 594.03 902.121 598.26Z" fill="white"/>
<path d="M801.891 704.35C808.801 702.9 881.351 694.85 881.351 694.85C881.351 694.85 873.651 720.14 846.951 724.21C812.301 729.48 801.891 704.35 801.891 704.35Z" fill="#231F20"/>
<path d="M794.289 488.92L855.839 423.73C889.049 388.67 928.559 360.11 972.309 339.61C1023.63 315.61 1069.03 280.57 1105.17 237.08L1118.77 220.64C1129.57 207.58 1163.46 180.87 1198.23 154.89C1205.44 149.49 1214.17 159.6 1207.65 165.88C1173.37 198.99 1139 233.64 1129.08 248.82L1107.52 281.24C1076.28 328.43 1035.31 368.56 987.469 398.95C946.609 424.92 910.809 458.06 881.789 496.76L851.139 537.85C847.269 543.01 841.969 547.12 835.899 549.56C821.629 555.3 805.249 551.17 795.389 539.36L793.049 536.55C782.529 523.97 782.009 505.88 791.849 492.7L794.289 488.92Z" fill="white"/>
<path d="M1020.98 332.72C1016.75 328.29 1012.96 323.9 1009.56 319.63C998.148 326.58 986.358 332.94 974.238 338.7C978.068 343.9 982.528 349.4 987.778 355.14C997.748 366.07 1006.86 374.09 1014.73 380C1025.3 372 1035.46 363.5 1045.17 354.52C1037.87 348.96 1029.69 341.84 1020.98 332.72Z" fill="white"/>
<path d="M884.119 441.77C875.389 432.95 868.599 424.11 863.349 416.02C860.809 418.55 858.299 421.12 855.829 423.73L830.129 450.94C835.399 458.09 842.179 465.9 850.889 473.98C862.339 484.6 872.739 491.91 881.609 496.94L881.759 496.73C890.499 485.08 899.859 473.95 909.769 463.35C902.009 458.06 893.299 451.04 884.119 441.77Z" fill="white"/>
<path d="M1068.61 275.37C1060.47 282.79 1052.02 289.85 1043.28 296.54C1045.54 299.13 1047.94 301.78 1050.53 304.5C1058.91 313.28 1066.62 320.16 1073.49 325.57C1080.72 317.39 1087.62 308.92 1094.17 300.17C1089.13 295.9 1083.73 290.99 1078.05 285.32C1074.65 281.95 1071.52 278.62 1068.61 275.37Z" fill="white"/>
<path d="M815.609 512.05C807.009 504.07 800.199 495.93 794.839 488.34L794.289 488.92L791.829 492.68C781.989 505.85 782.519 523.94 793.039 536.53L795.379 539.34C805.239 551.15 821.619 555.28 835.889 549.54C841.959 547.11 847.259 542.99 851.129 537.83L851.459 537.39C841.339 532.34 828.969 524.44 815.609 512.05Z" fill="white"/>
<path d="M935.65 359.28C922.96 366.99 910.73 375.43 899.01 384.55C903.99 391.68 910.37 399.51 918.5 407.73C928.18 417.51 937.09 424.74 944.91 430.1C955.23 421.45 965.99 413.32 977.15 405.73C970.37 400.3 962.92 393.48 955.12 384.93C947.01 376.04 940.63 367.26 935.65 359.28Z" fill="white"/>
<path d="M1198.23 154.89C1192.15 159.44 1186.1 164 1180.19 168.51C1182.35 170.44 1184.61 172.4 1186.99 174.41C1189.19 176.27 1191.32 178.04 1193.41 179.72C1198.12 175.11 1202.89 170.47 1207.66 165.87C1214.17 159.6 1205.44 149.49 1198.23 154.89Z" fill="white"/>
<path d="M1116.78 223.05L1105.18 237.08C1100.95 242.17 1096.58 247.15 1092.1 252C1094.98 255.16 1098.09 258.43 1101.48 261.81C1105.55 265.87 1109.43 269.51 1113.11 272.82L1129.08 248.81C1130.7 246.33 1132.98 243.32 1135.8 239.9C1134.24 238.63 1132.67 237.33 1131.06 235.96C1125.84 231.55 1121.09 227.21 1116.78 223.05Z" fill="white"/>
<path d="M1158.68 185.24C1150.12 192.04 1142.33 198.45 1135.77 204.15C1139.6 207.74 1143.81 211.5 1148.44 215.42C1150.25 216.95 1152.01 218.41 1153.74 219.82C1159.91 213.28 1166.83 206.17 1174.19 198.77C1172.68 197.54 1171.15 196.27 1169.59 194.95C1165.7 191.66 1162.07 188.41 1158.68 185.24Z" fill="white"/>
<path d="M846.95 477.27C838.23 469.19 833.02 460.75 830.15 450.95L794.84 488.34C799.3 498.51 806.25 509.46 814.85 517.44C828.21 529.83 839.97 534.47 851.46 537.39L881.63 496.95C875.54 495.81 858.4 487.89 846.95 477.27Z" fill="#B71C1C"/>
<path d="M916.29 411.31C904.82 400.38 901.69 389.64 899.01 384.55C886.51 394.29 874.6 404.8 863.35 416.03C865.11 420.58 868.629 432.56 879.879 443.54C889.209 452.65 904.44 461.3 909.79 463.37C920.82 451.58 932.549 440.48 944.919 430.11C937.949 426.83 928.99 423.41 916.29 411.31Z" fill="#B71C1C"/>
<path d="M990.388 361.76C981.168 352.62 977.749 345.07 974.239 338.7C973.599 339 972.959 339.31 972.319 339.62C959.729 345.52 947.488 352.09 935.648 359.28C939.608 369.01 940.998 374.72 951.688 386.43C962.498 398.27 968.588 400.6 977.158 405.74C980.558 403.43 983.978 401.15 987.458 398.94C996.818 393 1005.91 386.67 1014.73 380C1007.28 375.93 1000.9 372.18 990.388 361.76Z" fill="#B71C1C"/>
<path d="M1043.28 296.54C1032.47 304.82 1021.22 312.53 1009.57 319.63C1011.97 326.23 1015.38 331.02 1024.28 340.34C1032.62 349.08 1040.28 352.67 1045.18 354.52C1055.1 345.35 1064.55 335.69 1073.49 325.57C1067.84 322.9 1066.34 323.44 1055.48 313.38C1048.03 306.49 1044.28 297.81 1043.28 296.54Z" fill="#B71C1C"/>
<path d="M1092.1 252C1084.6 260.13 1076.77 267.93 1068.61 275.36C1071.52 278.62 1074.65 281.95 1078.04 285.32C1083.73 290.99 1089.12 295.9 1094.16 300.17C1098.78 293.99 1103.24 287.68 1107.51 281.23L1113.1 272.82C1109.41 269.51 1105.54 265.87 1101.47 261.81C1098.08 258.44 1094.98 255.17 1092.1 252Z" fill="#B71C1C"/>
<path d="M1135.77 204.15C1128.19 210.75 1122.27 216.41 1118.77 220.64L1116.78 223.05C1121.09 227.21 1125.84 231.55 1131.06 235.96C1132.67 237.32 1134.24 238.62 1135.8 239.9C1140.46 234.24 1146.6 227.41 1153.75 219.83C1152.02 218.42 1150.26 216.96 1148.45 215.43C1143.81 211.5 1139.6 207.74 1135.77 204.15Z" fill="#B71C1C"/>
<path d="M1180.19 168.51C1172.7 174.23 1165.46 179.85 1158.68 185.24C1162.07 188.41 1165.7 191.66 1169.6 194.96C1171.16 196.28 1172.69 197.54 1174.2 198.78C1180.36 192.59 1186.82 186.19 1193.41 179.73C1191.33 178.04 1189.19 176.28 1186.99 174.42C1184.61 172.4 1182.35 170.44 1180.19 168.51Z" fill="#B71C1C"/>
<path d="M863.359 416.02C865.119 420.57 870.899 434.97 879.889 443.53C892.589 455.63 904.449 461.29 909.799 463.36" fill="#B71C1C"/>
<path d="M81.9994 606.64C0.349388 734.29 -30.7506 737.19 -131.641 661.57" stroke="#5E3930" stroke-width="75.7028" stroke-miterlimit="10" stroke-linecap="round"/>
<path d="M48.5702 660.17C13.8802 807.67 -14.5098 820.72 -134.76 782.84" stroke="#5E3930" stroke-width="75.7028" stroke-miterlimit="10" stroke-linecap="round"/>
<path d="M212.29 579.15C172.46 617.07 141.38 584.69 65.5195 587.96" stroke="#F9D232" stroke-width="317.195" stroke-miterlimit="10" stroke-linecap="round" stroke-dasharray="270.78 270.78"/>
<path d="M212.29 579.15C172.46 617.07 141.38 584.69 65.5195 587.96" stroke="#F9D232" stroke-width="317.195" stroke-miterlimit="10" stroke-linecap="round" stroke-dasharray="5.82 5.82"/>
<path d="M72.3493 746.4C83.9293 745.91 93.5493 747.57 108.119 750.07C129.509 753.75 158.809 758.8 193.429 754.96C235.339 750.31 273.449 734.21 306.889 706.99C307.659 706.36 308.449 705.72 309.239 705.08C309.459 704.89 309.699 704.69 309.929 704.5C310.079 704.38 310.229 704.25 310.379 704.13C310.939 703.65 311.509 703.17 312.069 702.68C312.579 702.25 313.079 701.8 313.599 701.35C314.349 700.69 315.089 700.04 315.829 699.37C316.829 698.5 317.789 697.61 318.759 696.71C319.719 695.82 320.689 694.93 321.649 694.01C385.089 633.61 387.549 533.21 327.149 469.77C325.589 468.13 324.019 466.54 322.389 465C321.739 464.35 321.079 463.74 320.429 463.11C320.279 462.98 320.159 462.86 320.009 462.73C319.309 462.08 318.599 461.44 317.879 460.8C316.239 459.33 314.579 457.89 312.869 456.5C312.109 455.88 311.339 455.24 310.559 454.64C309.749 453.99 308.939 453.36 308.099 452.73C306.269 451.32 304.409 449.98 302.539 448.69C301.619 448.03 300.669 447.4 299.719 446.77C298.699 446.1 297.689 445.43 296.639 444.78C296.529 444.69 296.409 444.62 296.289 444.55C295.519 444.08 294.739 443.6 293.979 443.14C293.489 442.85 293.019 442.55 292.529 442.26C289.749 440.63 286.929 439.09 284.059 437.66C283.339 437.27 282.599 436.92 281.879 436.56C281.059 436.15 280.249 435.78 279.429 435.4C278.499 434.96 277.579 434.53 276.639 434.13C275.469 433.61 274.299 433.11 273.119 432.61C272.479 432.36 271.849 432.1 271.209 431.85C269.849 431.29 268.479 430.76 267.099 430.27C266.289 429.96 265.479 429.67 264.639 429.38C262.729 428.7 260.799 428.09 258.859 427.49C257.979 427.22 257.119 426.97 256.249 426.72C250.669 425.1 245.009 423.81 239.289 422.83C238.259 422.65 237.199 422.48 236.179 422.33C231.089 421.56 225.979 421.02 220.859 420.76C219.639 420.69 218.419 420.63 217.209 420.6C217.149 420.6 217.129 420.6 217.069 420.6C215.819 420.56 214.559 420.54 213.299 420.53C212.049 420.51 210.779 420.54 209.519 420.55C208.429 420.56 207.359 420.59 206.289 420.64C194.779 421.06 183.289 422.75 172.069 425.68C170.839 425.99 169.629 426.34 168.419 426.68C167.629 426.89 166.849 427.12 166.069 427.38C165.359 427.57 164.679 427.79 163.989 428.02C161.709 428.74 159.449 429.52 157.209 430.36C156.079 430.76 154.999 431.17 153.909 431.62C152.829 432.03 151.739 432.48 150.679 432.95C149.219 433.56 147.759 434.2 146.309 434.85C124.259 431.37 94.8893 427.93 58.6693 429.49C-28.8207 433.27 -96.7107 507.26 -92.9507 594.77C-89.1507 682.3 -15.1607 750.19 72.3493 746.4Z" fill="#F8C329"/>
<path d="M360.369 523.47C366.699 453.95 494.129 446.36 420.159 568.82" stroke="#FFE14D" stroke-width="77.1586" stroke-miterlimit="10" stroke-dasharray="334.84 334.84"/>
<path d="M360.369 523.47C366.699 453.95 494.129 446.36 420.159 568.82" stroke="#FFE14D" stroke-width="77.159" stroke-miterlimit="10" stroke-linecap="round"/>
<path d="M381.019 633.41L373.429 609.37L348.619 613.84L387.759 549.04L452.559 588.18L413.419 652.98L405.829 628.94L381.019 633.41Z" fill="#4E342E"/>
<path d="M392.479 540.58C392.479 540.58 422.369 593.4 459.969 581.01L392.479 540.58Z" fill="#6BB4FD"/>
<path d="M383.389 543.58C383.289 543.28 383.209 542.98 383.139 542.67C383.079 542.37 383.019 542.06 382.979 541.75C382.949 541.44 382.919 541.12 382.909 540.82C382.899 540.51 382.919 540.19 382.939 539.88C382.959 539.57 382.999 539.25 383.049 538.95C383.099 538.64 383.169 538.33 383.259 538.04C383.339 537.74 383.439 537.44 383.549 537.15C383.659 536.86 383.789 536.57 383.929 536.29C384.069 536.01 384.229 535.74 384.389 535.47C384.559 535.21 384.739 534.95 384.929 534.71C385.119 534.46 385.329 534.23 385.549 534C385.769 533.78 385.989 533.56 386.229 533.36C386.469 533.16 386.719 532.97 386.969 532.79C387.229 532.61 387.489 532.44 387.769 532.28C388.039 532.13 388.319 531.99 388.609 531.86C388.899 531.73 389.189 531.62 389.489 531.52C389.789 531.42 390.089 531.34 390.399 531.27C390.699 531.2 391.009 531.15 391.319 531.11C391.629 531.08 391.949 531.05 392.259 531.05C392.569 531.04 392.889 531.05 393.199 531.07C393.509 531.09 393.829 531.13 394.129 531.18C394.439 531.24 394.749 531.3 395.039 531.39C395.339 531.47 395.639 531.57 395.929 531.68C396.219 531.8 396.509 531.92 396.789 532.06C397.069 532.2 397.339 532.36 397.609 532.52C397.869 532.69 398.129 532.87 398.379 533.07C398.629 533.26 398.859 533.47 399.089 533.68C399.309 533.9 399.529 534.13 399.729 534.36C399.929 534.6 400.129 534.84 400.299 535.1C400.479 535.35 400.649 535.62 400.809 535.89C400.959 536.16 401.099 536.45 401.229 536.73C401.489 537.3 401.689 537.91 401.819 538.52C401.889 538.83 401.939 539.14 401.979 539.45C402.009 539.76 402.029 540.07 402.039 540.39C402.049 540.7 402.039 541.02 402.019 541.33C401.999 541.64 401.959 541.95 401.909 542.26C401.859 542.57 401.789 542.88 401.709 543.18C401.629 543.48 401.529 543.78 401.419 544.07C401.309 544.37 401.179 544.66 401.039 544.93C400.899 545.21 400.739 545.49 400.569 545.75C400.399 546.01 400.219 546.27 400.029 546.52C399.839 546.76 399.629 547 399.419 547.22C399.209 547.45 398.969 547.66 398.739 547.86C398.509 548.07 398.259 548.26 397.999 548.44C397.749 548.62 397.479 548.79 397.209 548.94C396.939 549.09 396.659 549.24 396.369 549.36C396.079 549.49 395.789 549.61 395.489 549.7C395.189 549.8 394.889 549.88 394.579 549.94C394.269 550.01 393.959 550.06 393.659 550.1C393.349 550.14 393.029 550.16 392.719 550.17C392.409 550.17 392.099 550.17 391.779 550.14C391.469 550.12 391.159 550.08 390.849 550.03C390.539 549.98 390.229 549.91 389.929 549.83C389.629 549.74 389.329 549.64 389.039 549.53C388.749 549.42 388.449 549.29 388.179 549.15C387.899 549.01 387.619 548.86 387.359 548.68C387.099 548.51 386.839 548.34 386.599 548.14C386.349 547.95 386.109 547.74 385.889 547.52C385.669 547.3 385.449 547.08 385.249 546.84C385.049 546.6 384.849 546.35 384.669 546.1C384.499 545.84 384.319 545.57 384.169 545.31C384.019 545.04 383.879 544.75 383.749 544.47C383.599 544.17 383.489 543.88 383.389 543.58Z" fill="#6BB4FD"/>
<path d="M398.619 550.5C402.629 547.05 408.669 547.51 412.119 551.52C415.559 555.53 415.109 561.57 411.089 565.02C407.079 568.47 401.029 568 397.589 563.99H397.579C396.739 563.01 396.129 561.91 395.749 560.76C394.589 557.18 395.589 553.1 398.619 550.5ZM412.529 566.61C415.689 562.37 421.679 561.48 425.919 564.64C430.159 567.79 431.049 573.79 427.899 578.03C424.749 582.28 418.749 583.16 414.509 580C412.859 578.78 411.729 577.13 411.129 575.32C410.179 572.46 410.599 569.21 412.529 566.61ZM429.779 579.37C431.069 574.24 436.269 571.13 441.399 572.43C446.529 573.72 449.639 578.92 448.349 584.05C447.049 589.17 441.849 592.28 436.719 590.99C433.419 590.16 430.959 587.7 429.969 584.69C429.419 583.03 429.319 581.19 429.779 579.37Z" fill="#6BB4FD"/>
<path d="M450.869 584.01C450.769 583.71 450.689 583.41 450.629 583.1C450.559 582.8 450.509 582.49 450.469 582.18C450.439 581.87 450.409 581.55 450.399 581.25C450.389 580.94 450.409 580.62 450.429 580.31C450.449 580 450.489 579.68 450.539 579.38C450.599 579.07 450.659 578.76 450.749 578.47C450.829 578.17 450.929 577.87 451.039 577.58C451.149 577.29 451.279 577 451.419 576.72C451.559 576.44 451.719 576.17 451.879 575.9C452.049 575.64 452.229 575.38 452.419 575.14C452.609 574.89 452.819 574.66 453.039 574.43C453.259 574.21 453.479 573.99 453.719 573.79C453.959 573.59 454.209 573.39 454.459 573.22C454.719 573.04 454.979 572.87 455.259 572.71C455.529 572.56 455.809 572.42 456.099 572.29C456.389 572.16 456.679 572.05 456.979 571.95C457.279 571.85 457.579 571.77 457.889 571.7C458.189 571.64 458.499 571.58 458.809 571.54C459.119 571.51 459.439 571.48 459.749 571.48C460.059 571.47 460.379 571.48 460.689 571.5C460.999 571.52 461.319 571.56 461.619 571.61C461.929 571.67 462.239 571.73 462.529 571.82C462.829 571.9 463.129 572 463.419 572.11C463.709 572.23 463.999 572.35 464.279 572.49C464.559 572.63 464.829 572.79 465.099 572.96C465.359 573.13 465.619 573.31 465.859 573.51C466.109 573.7 466.339 573.91 466.569 574.12C466.789 574.34 467.009 574.57 467.209 574.8C467.409 575.04 467.609 575.28 467.779 575.54C467.959 575.79 468.129 576.06 468.289 576.33C468.439 576.6 468.579 576.89 468.709 577.17C468.969 577.75 469.169 578.35 469.299 578.96C469.369 579.27 469.419 579.58 469.459 579.89C469.489 580.2 469.509 580.51 469.519 580.83C469.529 581.14 469.519 581.46 469.499 581.77C469.479 582.08 469.439 582.39 469.389 582.7C469.339 583.01 469.269 583.32 469.179 583.62C469.099 583.92 468.999 584.22 468.889 584.51C468.779 584.81 468.649 585.1 468.509 585.37C468.369 585.65 468.209 585.93 468.039 586.19C467.869 586.45 467.689 586.71 467.499 586.96C467.309 587.2 467.099 587.44 466.889 587.66C466.669 587.88 466.439 588.1 466.209 588.3C465.979 588.51 465.729 588.7 465.469 588.88C465.219 589.06 464.949 589.23 464.679 589.38C464.409 589.53 464.129 589.68 463.839 589.8C463.549 589.93 463.259 590.05 462.959 590.14C462.659 590.24 462.359 590.32 462.049 590.38C461.739 590.45 461.439 590.5 461.129 590.54C460.819 590.58 460.499 590.6 460.189 590.61C459.879 590.61 459.559 590.61 459.249 590.58C458.939 590.56 458.629 590.52 458.319 590.47C458.009 590.42 457.699 590.35 457.399 590.27C457.099 590.18 456.799 590.08 456.509 589.97C456.219 589.86 455.929 589.73 455.649 589.59C455.369 589.45 455.089 589.3 454.829 589.12C454.569 588.95 454.309 588.78 454.069 588.58C453.819 588.39 453.589 588.18 453.359 587.96C453.139 587.74 452.919 587.52 452.719 587.28C452.519 587.04 452.319 586.79 452.139 586.54C451.959 586.28 451.789 586.01 451.639 585.75C451.489 585.48 451.349 585.19 451.219 584.91C451.089 584.6 450.969 584.31 450.869 584.01Z" fill="#6BB4FD"/>
<path d="M274.47 415.6L316.68 467.98C327.73 481.69 347.79 483.85 361.5 472.8L414.3 430.25C442.47 407.55 446.91 366.31 424.2 338.13C401.5 309.96 360.26 305.52 332.08 328.22L279.28 370.77C265.58 381.83 263.42 401.89 274.47 415.6Z" fill="#5E3930"/>
<path d="M388.849 403.2C401.099 393.33 403.029 375.4 393.159 363.15C383.289 350.9 365.359 348.97 353.109 358.84" fill="#9B643D"/>
<path d="M221.739 409.93L169.359 452.14C155.649 463.19 135.579 461.03 124.539 447.32L81.989 394.52C59.289 366.35 63.7191 325.11 91.8991 302.4C120.069 279.7 161.309 284.13 184.019 312.31L226.569 365.11C237.609 378.82 235.449 398.89 221.739 409.93Z" fill="#5E3930"/>
<path d="M112.609 373.5C102.739 361.25 104.669 343.32 116.919 333.45C129.169 323.58 147.099 325.51 156.969 337.76" fill="#9B643D"/>
<path d="M326.029 654.13C377.196 605.415 382.712 528.149 338.349 481.553C293.986 434.958 216.543 436.676 165.375 485.392C114.208 534.108 108.692 611.373 153.055 657.969C197.418 704.565 274.861 702.846 326.029 654.13Z" fill="#3399FF"/>
<path d="M231.371 699.57C227.071 699.47 223.661 695.9 223.761 691.6C223.861 687.3 227.421 683.89 231.731 683.99C236.031 684.09 239.441 687.66 239.341 691.96C239.241 696.2 235.771 699.57 231.551 699.57C231.491 699.57 231.431 699.57 231.371 699.57ZM241.301 691.86C240.801 687.59 243.851 683.71 248.121 683.21C252.401 682.7 256.271 685.76 256.771 690.03C257.281 694.3 254.231 698.18 249.951 698.68C249.641 698.72 249.341 698.74 249.031 698.74C245.141 698.74 241.771 695.82 241.301 691.86ZM212.801 697.78C208.561 697.05 205.711 693.03 206.441 688.79C207.171 684.55 211.191 681.7 215.431 682.43C219.671 683.15 222.521 687.18 221.801 691.42C221.141 695.22 217.851 697.9 214.121 697.9C213.691 697.9 213.241 697.86 212.801 697.78ZM258.711 689.66C257.631 685.5 260.131 681.24 264.301 680.16C268.461 679.08 272.711 681.58 273.791 685.75C274.871 689.91 272.371 694.17 268.211 695.25C267.551 695.42 266.891 695.5 266.251 695.5C262.781 695.5 259.621 693.17 258.711 689.66ZM194.661 693.23C190.581 691.86 188.381 687.45 189.741 683.37C191.111 679.29 195.531 677.08 199.611 678.45C203.691 679.82 205.891 684.24 204.521 688.31C203.431 691.57 200.391 693.63 197.131 693.63C196.311 693.63 195.481 693.5 194.661 693.23ZM275.661 685.13C274.031 681.14 275.951 676.6 279.941 674.98C283.931 673.35 288.471 675.27 290.091 679.26C291.711 683.25 289.791 687.79 285.811 689.41C284.851 689.8 283.861 689.99 282.881 689.99C279.801 689.99 276.891 688.15 275.661 685.13ZM177.411 685.88H177.401C173.591 683.88 172.121 679.17 174.121 675.36C176.121 671.55 180.831 670.08 184.641 672.08C188.451 674.08 189.921 678.79 187.921 682.6C186.531 685.25 183.821 686.77 181.021 686.77C179.801 686.77 178.561 686.49 177.411 685.88ZM291.861 678.4C289.731 674.66 291.051 669.9 294.801 667.78C298.541 665.66 303.291 666.98 305.421 670.72C307.541 674.47 306.221 679.22 302.471 681.34C301.261 682.03 299.941 682.36 298.641 682.36C295.931 682.36 293.291 680.93 291.861 678.4ZM161.541 675.83C158.101 673.24 157.421 668.35 160.011 664.92C162.601 661.48 167.491 660.8 170.921 663.39C174.351 665.99 175.041 670.87 172.451 674.31C170.911 676.34 168.581 677.41 166.221 677.41C164.591 677.41 162.941 676.89 161.541 675.83ZM307.061 669.65C304.481 666.2 305.191 661.32 308.631 658.74C308.631 658.74 308.631 658.74 308.641 658.74C312.081 656.17 316.961 656.87 319.541 660.32C322.111 663.77 321.411 668.65 317.961 671.22C316.571 672.27 314.931 672.77 313.311 672.77C310.931 672.77 308.591 671.69 307.061 669.65ZM147.521 663.33C145.051 660.74 144.721 656.9 146.471 653.97C143.271 655.15 139.551 654.11 137.461 651.21V651.2C134.951 647.71 135.741 642.84 139.231 640.33C142.721 637.82 147.591 638.61 150.111 642.1C151.981 644.7 152.021 648.06 150.481 650.64C153.311 649.61 156.601 650.27 158.811 652.59C161.781 655.7 161.651 660.64 158.541 663.6C157.031 665.04 155.091 665.75 153.161 665.75C151.111 665.75 149.051 664.94 147.521 663.33ZM321.041 659.04C318.051 655.94 318.151 651.01 321.251 648.03C321.251 648.03 321.251 648.03 321.251 648.02C324.351 645.04 329.291 645.14 332.271 648.24C335.251 651.34 335.151 656.28 332.051 659.26C330.541 660.71 328.601 661.43 326.651 661.43C324.611 661.43 322.571 660.63 321.041 659.04ZM333.601 646.8C330.261 644.09 329.751 639.18 332.451 635.84C335.161 632.5 340.071 631.98 343.421 634.7C346.761 637.4 347.271 642.31 344.561 645.65C343.021 647.55 340.771 648.54 338.501 648.54C336.781 648.54 335.051 647.97 333.601 646.8ZM127.781 635.12H127.771C125.861 631.26 127.441 626.59 131.301 624.68C135.151 622.76 139.831 624.34 141.741 628.2C143.651 632.05 142.071 636.73 138.211 638.64C137.101 639.19 135.921 639.45 134.761 639.45C131.891 639.45 129.141 637.86 127.781 635.12ZM344.561 633.09C340.901 630.82 339.771 626.02 342.041 622.36C344.301 618.7 349.101 617.57 352.761 619.84C356.421 622.1 357.551 626.9 355.281 630.56C353.811 632.94 351.261 634.26 348.651 634.26C347.251 634.26 345.841 633.88 344.561 633.09ZM120.831 617.69C119.561 613.58 121.861 609.22 125.971 607.95C130.081 606.68 134.451 608.98 135.721 613.09C135.721 613.09 135.721 613.09 135.721 613.1C136.981 617.21 134.681 621.57 130.571 622.84C129.811 623.08 129.031 623.19 128.271 623.19C124.941 623.19 121.861 621.04 120.831 617.69ZM353.691 618.1C349.771 616.32 348.031 611.71 349.801 607.79C351.571 603.87 356.191 602.13 360.111 603.9C364.031 605.67 365.771 610.28 364.001 614.21C362.701 617.09 359.861 618.79 356.901 618.79C355.821 618.79 354.731 618.57 353.691 618.1ZM116.711 599.44C116.091 595.18 119.041 591.22 123.291 590.6C127.551 589.98 131.511 592.93 132.131 597.18C132.751 601.44 129.801 605.4 125.551 606.02C125.161 606.08 124.791 606.11 124.411 606.11C120.611 606.1 117.281 603.32 116.711 599.44ZM360.811 602.05C356.681 600.81 354.351 596.47 355.591 592.35C356.821 588.23 361.171 585.89 365.291 587.13C369.411 588.37 371.751 592.71 370.511 596.83C369.501 600.21 366.401 602.38 363.051 602.38C362.311 602.38 361.551 602.28 360.811 602.05ZM123.161 588.63C118.861 588.62 115.381 585.12 115.391 580.82C115.401 576.51 118.901 573.04 123.201 573.05C127.511 573.06 130.991 576.56 130.971 580.86C130.961 585.16 127.481 588.63 123.191 588.63C123.181 588.63 123.171 588.63 123.161 588.63ZM365.731 585.21C361.481 584.54 358.581 580.55 359.251 576.3C359.911 572.05 363.901 569.14 368.151 569.81C372.401 570.48 375.311 574.47 374.641 578.72C374.041 582.56 370.721 585.3 366.951 585.3C366.551 585.3 366.141 585.27 365.731 585.21ZM123.361 571.08C119.101 570.47 116.151 566.51 116.771 562.25C117.391 557.99 121.341 555.04 125.601 555.66C129.861 556.28 132.811 560.24 132.191 564.49C132.191 564.49 132.191 564.49 132.191 564.5C131.621 568.37 128.301 571.17 124.491 571.17C124.121 571.17 123.741 571.14 123.361 571.08ZM368.331 567.85C364.021 567.78 360.581 564.25 360.651 559.94C360.711 555.64 364.251 552.2 368.551 552.27C372.851 552.33 376.291 555.86 376.231 560.17C376.171 564.43 372.691 567.85 368.441 567.85C368.401 567.85 368.361 567.85 368.331 567.85ZM126.021 553.74C121.891 552.54 119.511 548.22 120.701 544.09C121.891 539.96 126.211 537.57 130.351 538.77C134.481 539.96 136.861 544.28 135.671 548.41C134.691 551.82 131.571 554.04 128.191 554.04C127.471 554.04 126.751 553.94 126.021 553.74ZM359.691 543.6C359.111 539.34 362.111 535.42 366.381 534.85C370.641 534.28 374.561 537.27 375.131 541.54C375.701 545.81 372.711 549.73 368.441 550.3C368.091 550.34 367.751 550.36 367.401 550.36C363.561 550.36 360.211 547.52 359.691 543.6ZM131.031 536.91C127.081 535.18 125.291 530.58 127.031 526.65C128.761 522.7 133.351 520.92 137.291 522.65C141.231 524.38 143.021 528.97 141.291 532.91C140.011 535.83 137.151 537.57 134.151 537.57C133.111 537.57 132.041 537.36 131.031 536.91ZM356.301 527.65C355.081 523.52 357.441 519.18 361.571 517.97C365.691 516.75 370.031 519.11 371.241 523.24C372.461 527.37 370.101 531.7 365.981 532.92C365.241 533.13 364.501 533.24 363.771 533.24C360.401 533.24 357.301 531.04 356.301 527.65ZM138.211 520.89C134.521 518.67 133.341 513.88 135.571 510.2C137.801 506.52 142.591 505.34 146.271 507.56C149.951 509.79 151.131 514.58 148.901 518.26C147.441 520.68 144.871 522.02 142.231 522.02C140.861 522.02 139.471 521.66 138.211 520.89ZM350.471 512.46C348.611 508.58 350.251 503.93 354.131 502.07C358.011 500.21 362.661 501.85 364.521 505.73C366.381 509.61 364.741 514.26 360.861 516.12C359.781 516.64 358.631 516.89 357.501 516.89C354.601 516.89 351.811 515.26 350.471 512.46ZM147.401 505.94C144.031 503.27 143.471 498.37 146.141 495C148.821 491.63 153.721 491.06 157.091 493.74C160.461 496.41 161.021 501.32 158.341 504.68C156.811 506.62 154.531 507.63 152.241 507.63C150.541 507.63 148.831 507.08 147.401 505.94ZM342.281 498.45C339.821 494.92 340.671 490.06 344.201 487.6C347.731 485.13 352.581 485.99 355.051 489.51C357.521 493.04 356.661 497.9 353.141 500.36C351.781 501.32 350.221 501.77 348.681 501.77C346.221 501.77 343.801 500.61 342.281 498.45ZM158.411 492.29C155.391 489.21 155.441 484.28 158.521 481.27C161.591 478.26 166.521 478.3 169.531 481.38C172.541 484.45 172.491 489.38 169.421 492.39C167.911 493.88 165.941 494.62 163.971 494.62C161.951 494.62 159.931 493.84 158.411 492.29ZM331.921 485.95C328.911 482.88 328.971 477.94 332.041 474.93C335.121 471.93 340.051 471.98 343.061 475.06C346.071 478.14 346.011 483.07 342.941 486.08C341.421 487.56 339.451 488.3 337.491 488.3C335.471 488.3 333.441 487.51 331.921 485.95ZM171.011 480.09C168.401 476.66 169.061 471.77 172.481 469.16C175.901 466.55 180.791 467.2 183.401 470.63C186.011 474.05 185.361 478.94 181.941 481.55C180.521 482.63 178.861 483.15 177.211 483.15C174.871 483.15 172.551 482.09 171.011 480.09ZM319.661 475.31C316.191 472.76 315.441 467.88 317.991 464.42C320.541 460.95 325.411 460.2 328.881 462.74C332.351 465.29 333.101 470.17 330.551 473.64C329.021 475.71 326.661 476.82 324.261 476.82C322.661 476.82 321.051 476.32 319.661 475.31ZM185.031 469.53C182.871 465.81 184.141 461.04 187.861 458.88C191.591 456.72 196.351 457.99 198.511 461.71C200.671 465.43 199.401 470.2 195.681 472.36C194.451 473.07 193.111 473.41 191.781 473.41C189.091 473.41 186.481 472.02 185.031 469.53ZM305.831 466.8C301.991 464.85 300.461 460.16 302.411 456.33C304.361 452.49 309.051 450.96 312.881 452.91C316.721 454.86 318.251 459.55 316.301 463.38C314.931 466.09 312.191 467.65 309.351 467.65C308.161 467.65 306.961 467.37 305.831 466.8ZM200.271 460.84C198.611 456.86 200.471 452.3 204.441 450.64C208.411 448.98 212.981 450.85 214.641 454.82C216.301 458.79 214.431 463.35 210.461 465.01C209.481 465.42 208.461 465.62 207.461 465.62C204.411 465.62 201.521 463.82 200.271 460.84ZM290.781 460.62C286.681 459.3 284.431 454.92 285.741 450.82C287.051 446.72 291.441 444.47 295.541 445.78C299.641 447.1 301.891 451.48 300.581 455.58C299.521 458.89 296.451 461 293.161 461C292.371 461 291.571 460.87 290.781 460.62ZM216.501 454.18C215.371 450.02 217.821 445.74 221.981 444.62C226.131 443.49 230.411 445.95 231.531 450.1C232.661 454.26 230.211 458.53 226.051 459.66C225.371 459.84 224.681 459.93 224.011 459.93C220.581 459.93 217.431 457.65 216.501 454.18ZM274.901 456.84C270.651 456.17 267.751 452.17 268.431 447.93C269.111 443.67 273.101 440.78 277.351 441.46C281.601 442.13 284.491 446.12 283.821 450.37C283.211 454.21 279.901 456.94 276.131 456.94C275.731 456.94 275.311 456.91 274.901 456.84ZM233.461 449.71C232.911 445.44 235.921 441.54 240.191 440.99C244.451 440.43 248.361 443.44 248.921 447.71C249.471 451.98 246.461 455.89 242.191 456.44C241.851 456.48 241.511 456.5 241.181 456.5C237.321 456.5 233.971 453.64 233.461 449.71ZM258.581 455.47C254.281 455.42 250.831 451.89 250.881 447.59C250.931 443.29 254.461 439.84 258.761 439.89C263.061 439.94 266.511 443.46 266.461 447.77C266.411 452.04 262.931 455.47 258.671 455.47C258.641 455.47 258.611 455.47 258.581 455.47Z" fill="#3399FF"/>
<path d="M240.1 664.45C336.905 664.45 415.38 585.975 415.38 489.17C415.38 392.366 336.905 313.89 240.1 313.89C143.296 313.89 64.8203 392.366 64.8203 489.17C64.8203 585.975 143.296 664.45 240.1 664.45Z" fill="#5E3930"/>
<path d="M349.903 495.664C368.391 494.134 383.016 488.512 382.568 483.107C382.121 477.702 366.771 474.561 348.282 476.091C329.794 477.622 315.169 483.244 315.617 488.649C316.064 494.054 331.415 497.195 349.903 495.664Z" fill="black"/>
<path d="M349.689 483.93C373.709 481.11 395.299 486.89 405.749 497.55C399.069 510 394.949 523.99 393.799 538.59C384.229 544.49 371.619 548.84 357.509 550.5C325.109 554.31 297.099 542.49 294.939 524.11C292.779 505.73 317.289 487.74 349.689 483.93Z" fill="#5E3930"/>
<path d="M214.645 511.552C233.133 510.021 247.744 504.225 247.278 498.605C246.813 492.986 231.448 489.671 212.96 491.201C194.472 492.732 179.861 498.528 180.327 504.148C180.792 509.767 196.157 513.082 214.645 511.552Z" fill="black"/>
<path d="M222.304 566.424C254.7 562.618 279.211 544.631 277.052 526.25C274.892 507.869 246.879 496.054 214.483 499.86C182.086 503.667 157.575 521.653 159.735 540.034C161.895 558.416 189.908 570.231 222.304 566.424Z" fill="#5E3930"/>
<path opacity="0.8" d="M288.27 635.85C314.65 634.66 335.07 612.3 333.87 585.92L331.78 539.69C330.59 513.31 308.229 492.89 281.849 494.09C255.469 495.28 235.05 517.64 236.25 544.02L238.339 590.25C239.529 616.63 261.89 637.05 288.27 635.85Z" fill="#9B643D"/>
<path d="M299.83 638.75C326.21 637.56 346.63 615.2 345.43 588.82L343.34 542.59C342.15 516.21 319.79 495.79 293.41 496.99C267.03 498.18 246.61 520.54 247.81 546.92L249.9 593.15C251.1 619.53 273.45 639.95 299.83 638.75Z" fill="#9B643D"/>
<path d="M280.51 505.77C275.11 509.13 272.55 515.64 274.43 521.72C279.75 538.99 296.12 551.28 315.05 550.66C333.98 550.04 349.509 536.71 353.699 519.13C355.169 512.94 352.199 506.61 346.589 503.61C336.689 498.31 325.3 495.48 313.27 495.87C301.22 496.26 290.04 499.83 280.51 505.77Z" fill="#212121"/>
<path d="M276.16 578.77C287.86 604.94 321.35 602.72 330.16 578.77" stroke="black" stroke-width="5.8433" stroke-miterlimit="10"/>
<path d="M190.71 329.89L232.29 318.72C237.94 317.2 240.45 310.61 237.25 305.72L219.17 278.11C216 273.26 209.03 272.88 205.35 277.35L178.12 310.43C175.73 313.33 175.51 317.45 177.56 320.6L181.29 326.3C183.32 329.41 187.12 330.86 190.71 329.89Z" fill="#6BB4FD"/>
<path d="M182.849 335.04L155.979 368.68C152.329 373.25 145.279 372.92 142.079 368.02L123.999 340.4C120.829 335.55 123.259 329.02 128.839 327.43L170.049 315.7C173.669 314.67 177.529 316.11 179.589 319.26L183.319 324.96C185.359 328.07 185.169 332.13 182.849 335.04Z" fill="#6BB4FD"/>
<path d="M181.319 342.1C192.023 342.1 200.699 333.423 200.699 322.72C200.699 312.017 192.023 303.34 181.319 303.34C170.616 303.34 161.939 312.017 161.939 322.72C161.939 333.423 170.616 342.1 181.319 342.1Z" fill="#F9D232"/>
<path d="M182.52 735.76C244.08 755.38 318.949 786.32 421.229 699.67" stroke="#F8C329" stroke-width="77.1586" stroke-miterlimit="10" stroke-dasharray="334.84 334.84"/>
<path d="M182.52 735.76C244.08 755.38 318.949 786.32 421.229 699.67" stroke="#F8C329" stroke-width="77.159" stroke-miterlimit="10" stroke-linecap="round"/>
<path d="M478.929 650.94L478.459 676.14L503.399 679.82L445.639 728.75L396.699 670.99L454.459 622.06L453.989 647.26L478.929 650.94Z" fill="#4E342E"/>
<path d="M249.439 344.6L200.599 279.4L185.109 342.75L249.439 344.6Z" fill="#5E3930"/>
<path d="M274.289 322.67L253.439 284.34L209.959 320.83L274.289 322.67Z" fill="#5E3930"/>
<path d="M445.45 733.79C445.45 733.79 436.55 673.75 397.01 671.8L445.45 733.79Z" fill="#6BB4FD"/>
<path d="M454.999 734.27C454.979 734.58 454.959 734.9 454.909 735.21C454.859 735.52 454.799 735.83 454.729 736.13C454.649 736.43 454.559 736.74 454.459 737.03C454.349 737.33 454.229 737.61 454.099 737.89C453.969 738.17 453.819 738.45 453.659 738.72C453.499 738.99 453.329 739.25 453.139 739.5C452.959 739.75 452.759 740 452.549 740.23C452.339 740.46 452.109 740.69 451.879 740.9C451.649 741.11 451.399 741.31 451.149 741.5C450.899 741.68 450.629 741.86 450.369 742.02C450.099 742.18 449.819 742.33 449.539 742.46C449.259 742.59 448.969 742.71 448.679 742.82C448.379 742.92 448.079 743.01 447.779 743.09C447.479 743.17 447.169 743.23 446.849 743.28C446.549 743.32 446.229 743.35 445.919 743.37C445.609 743.39 445.289 743.38 444.979 743.37C444.669 743.35 444.349 743.33 444.039 743.28C443.739 743.23 443.419 743.17 443.119 743.1C442.819 743.02 442.509 742.93 442.219 742.82C441.919 742.71 441.639 742.6 441.349 742.46C441.069 742.33 440.789 742.18 440.519 742.02C440.249 741.86 439.989 741.69 439.739 741.5C439.489 741.32 439.239 741.12 439.009 740.91C438.779 740.7 438.549 740.48 438.339 740.24C438.129 740.01 437.929 739.76 437.739 739.51C437.559 739.26 437.379 739 437.219 738.73C437.059 738.47 436.909 738.18 436.779 737.9C436.649 737.62 436.529 737.33 436.419 737.03C436.319 736.74 436.219 736.44 436.149 736.13C436.069 735.83 436.009 735.52 435.959 735.21C435.919 734.9 435.889 734.59 435.869 734.28C435.839 733.65 435.869 733.02 435.959 732.4C436.009 732.09 436.069 731.78 436.139 731.47C436.219 731.17 436.309 730.87 436.419 730.57C436.519 730.28 436.649 729.99 436.779 729.7C436.909 729.42 437.059 729.14 437.219 728.88C437.379 728.61 437.549 728.35 437.739 728.09C437.919 727.84 438.119 727.6 438.329 727.37C438.539 727.13 438.759 726.91 438.999 726.7C439.229 726.49 439.479 726.29 439.729 726.1C439.979 725.92 440.239 725.74 440.509 725.58C440.769 725.42 441.059 725.27 441.339 725.14C441.619 725 441.919 724.89 442.209 724.78C442.499 724.67 442.799 724.58 443.109 724.5C443.409 724.42 443.719 724.36 444.029 724.32C444.339 724.28 444.659 724.24 444.959 724.23C445.279 724.21 445.589 724.21 445.899 724.22C446.209 724.24 446.529 724.27 446.839 724.32C447.149 724.36 447.459 724.43 447.759 724.5C448.059 724.57 448.369 724.67 448.659 724.77C448.949 724.88 449.239 725 449.519 725.13C449.799 725.26 450.079 725.41 450.339 725.57C450.609 725.73 450.869 725.9 451.129 726.09C451.379 726.28 451.619 726.48 451.849 726.69C452.079 726.9 452.309 727.12 452.519 727.36C452.729 727.59 452.929 727.83 453.119 728.09C453.299 728.34 453.479 728.6 453.639 728.87C453.799 729.14 453.949 729.42 454.079 729.7C454.209 729.98 454.329 730.27 454.439 730.56C454.539 730.85 454.639 731.16 454.719 731.46C454.789 731.76 454.849 732.07 454.899 732.38C454.939 732.69 454.969 733.01 454.989 733.32C455.019 733.64 455.019 733.95 454.999 734.27Z" fill="#6BB4FD"/>
<path d="M443.28 722.33C438.3 724.11 432.82 721.51 431.05 716.52C429.28 711.54 431.88 706.06 436.86 704.3C441.84 702.52 447.319 705.13 449.079 710.11H449.09C449.52 711.32 449.69 712.57 449.63 713.79C449.45 717.54 447.04 721 443.28 722.33ZM436.09 702.3C431.62 705.12 425.71 703.8 422.89 699.33C420.06 694.86 421.39 688.95 425.86 686.12C430.33 683.29 436.239 684.62 439.069 689.09C440.169 690.82 440.64 692.76 440.54 694.67C440.39 697.68 438.83 700.57 436.09 702.3ZM424.579 684.19C421.529 688.51 415.56 689.54 411.24 686.49C406.92 683.44 405.89 677.47 408.93 673.15C411.98 668.83 417.95 667.8 422.27 670.85C425.05 672.81 426.46 675.99 426.31 679.15C426.24 680.9 425.669 682.65 424.579 684.19Z" fill="#6BB4FD"/>
<path d="M406.569 672.28C406.549 672.59 406.519 672.91 406.469 673.22C406.419 673.53 406.359 673.84 406.289 674.14C406.209 674.44 406.119 674.75 406.019 675.04C405.909 675.34 405.789 675.62 405.659 675.9C405.529 676.18 405.379 676.46 405.219 676.73C405.059 677 404.889 677.26 404.699 677.51C404.519 677.76 404.319 678.01 404.109 678.24C403.899 678.47 403.679 678.7 403.439 678.91C403.209 679.12 402.959 679.32 402.709 679.51C402.459 679.69 402.199 679.87 401.929 680.03C401.659 680.19 401.379 680.34 401.099 680.47C400.819 680.6 400.529 680.72 400.239 680.83C399.949 680.93 399.639 681.03 399.339 681.1C399.039 681.18 398.729 681.24 398.409 681.29C398.099 681.33 397.789 681.36 397.479 681.38C397.169 681.4 396.849 681.39 396.539 681.38C396.229 681.36 395.909 681.34 395.599 681.29C395.299 681.24 394.979 681.18 394.679 681.11C394.379 681.03 394.069 680.94 393.779 680.83C393.479 680.73 393.199 680.61 392.909 680.47C392.629 680.34 392.349 680.19 392.079 680.03C391.809 679.87 391.549 679.7 391.299 679.51C391.049 679.33 390.799 679.13 390.569 678.92C390.339 678.71 390.109 678.48 389.899 678.25C389.689 678.02 389.489 677.77 389.299 677.52C389.119 677.27 388.939 677 388.779 676.74C388.619 676.48 388.469 676.19 388.339 675.91C388.209 675.63 388.089 675.34 387.979 675.04C387.879 674.75 387.779 674.45 387.709 674.14C387.629 673.84 387.569 673.53 387.519 673.22C387.479 672.91 387.449 672.6 387.429 672.29C387.399 671.66 387.429 671.03 387.519 670.41C387.569 670.1 387.629 669.79 387.699 669.48C387.779 669.18 387.869 668.88 387.979 668.58C388.079 668.29 388.199 668 388.339 667.71C388.469 667.43 388.619 667.15 388.779 666.89C388.939 666.62 389.109 666.36 389.299 666.1C389.479 665.85 389.679 665.61 389.889 665.38C390.099 665.14 390.319 664.92 390.559 664.71C390.789 664.5 391.039 664.3 391.289 664.11C391.539 663.93 391.799 663.75 392.069 663.59C392.329 663.43 392.609 663.28 392.899 663.15C393.179 663.02 393.479 662.9 393.769 662.79C394.059 662.68 394.359 662.59 394.669 662.51C394.969 662.43 395.279 662.37 395.589 662.33C395.899 662.29 396.219 662.25 396.519 662.24C396.839 662.22 397.149 662.22 397.459 662.23C397.769 662.25 398.089 662.28 398.399 662.33C398.709 662.37 399.019 662.44 399.319 662.51C399.619 662.58 399.929 662.68 400.219 662.78C400.509 662.89 400.799 663 401.079 663.14C401.359 663.27 401.639 663.42 401.899 663.58C402.169 663.74 402.429 663.91 402.689 664.1C402.939 664.29 403.179 664.49 403.409 664.7C403.639 664.91 403.869 665.13 404.079 665.37C404.289 665.6 404.499 665.84 404.679 666.1C404.859 666.35 405.039 666.61 405.199 666.88C405.359 667.15 405.509 667.43 405.639 667.71C405.769 667.99 405.889 668.28 405.999 668.57C406.099 668.86 406.199 669.17 406.279 669.47C406.359 669.77 406.409 670.09 406.459 670.39C406.499 670.7 406.529 671.02 406.549 671.33C406.579 671.65 406.579 671.97 406.569 672.28Z" fill="#6BB4FD"/>
<path d="M1356.07 109.59C1359.84 109.59 1362.89 106.537 1362.89 102.77C1362.89 99.0034 1359.84 95.95 1356.07 95.95C1352.3 95.95 1349.25 99.0034 1349.25 102.77C1349.25 106.537 1352.3 109.59 1356.07 109.59Z" fill="white"/>
<path d="M719.15 129.07C722.917 129.07 725.97 126.017 725.97 122.25C725.97 118.483 722.917 115.43 719.15 115.43C715.384 115.43 712.33 118.483 712.33 122.25C712.33 126.017 715.384 129.07 719.15 129.07Z" fill="#7000FF"/>
</g>
</g>
<defs>
<linearGradient id="paint0_linear" x1="2953.63" y1="726.627" x2="-1244.45" y2="726.627" gradientUnits="userSpaceOnUse">
<stop offset="0.3606" stop-color="#5C01E4"/>
<stop offset="1" stop-color="#5C01E4" stop-opacity="0.3"/>
</linearGradient>
<clipPath id="clip0">
<rect width="1440" height="1024" fill="white"/>
</clipPath>
<clipPath id="clip1">
<rect x="-1245" y="-689" width="4440.6" height="2312.47" fill="white"/>
</clipPath>
</defs>
</svg>
