<svg xmlns="http://www.w3.org/2000/svg" xmlns:xlink="http://www.w3.org/1999/xlink" viewBox="0 0 875 875"><defs><style>.cls-1{fill:#a46d3f;}.cls-14,.cls-2{fill:none;}.cls-3{isolation:isolate;}.cls-4{opacity:0.2;}.cls-5{fill:#4e352e;}.cls-6{fill:#212121;}.cls-7{clip-path:url(#clip-path);}.cls-8{fill:#d74635;}.cls-9{opacity:0.1;mix-blend-mode:multiply;}.cls-10{fill:#221f1f;}.cls-11{fill:#fff;}.cls-12{clip-path:url(#clip-path-2);}.cls-13{clip-path:url(#clip-path-3);}.cls-14{stroke:#ca372b;stroke-miterlimit:10;stroke-width:14.92px;}.cls-15{clip-path:url(#clip-path-4);}.cls-16{clip-path:url(#clip-path-5);}</style><clipPath id="clip-path"><rect id="_Rectangle_" data-name="&lt;Rectangle&gt;" class="cls-1" x="705.49" y="505.99" width="37.98" height="56.97" rx="14.17" ry="14.17" transform="translate(1448.97 1068.95) rotate(-180)"/></clipPath><clipPath id="clip-path-2"><rect id="_Rectangle_2" data-name="&lt;Rectangle&gt;" class="cls-2" x="684.78" y="601.49" width="141.44" height="83.69" transform="translate(1398.82 -112.17) rotate(90)"/></clipPath><clipPath id="clip-path-3"><path class="cls-2" d="M766.07,430.18H724.3v333a73,73,0,1,0,146.09,0V724.34H828.61V763.2a31.27,31.27,0,1,1-62.54,0Z"/></clipPath><clipPath id="clip-path-4"><rect id="_Rectangle_3" data-name="&lt;Rectangle&gt;" class="cls-2" x="615.88" y="558.21" width="175.62" height="83.69" transform="translate(1407.38 1200.11) rotate(-180)"/></clipPath><clipPath id="clip-path-5"><path class="cls-2" d="M872.55,610.63V568.86h-333a73,73,0,1,0,0,146.09H578.4V673.17H539.54a31.27,31.27,0,1,1,0-62.54Z"/></clipPath></defs><title>GemMatch</title><g class="cls-3"><g id="Layer_1" data-name="Layer 1"><ellipse class="cls-4" cx="717.84" cy="830.26" rx="132.5" ry="24.74"/><path class="cls-5" d="M792.13,578.7l8.3-15.75,26-49.37,5.27,7.07,8.85.37,5.45,7.16,9,.44L829,578l-8.09,15.35-10.85,20.58h0a9.47,9.47,0,0,1-12.79,4l-19.78-10.42L729.2,582a16.14,16.14,0,0,1-6.76-21.8h0a16.14,16.14,0,0,1,21.8-6.76Z"/><circle class="cls-5" cx="747.27" cy="467.85" r="15.19"/><circle class="cls-5" cx="667.51" cy="464.05" r="15.19"/><path class="cls-5" d="M742.71,736.45v75s26.63-1.21,26.63,18.76H714.88V734"/><path class="cls-5" d="M686,781.28h0a71.94,71.94,0,0,0,39.53,0h0a71.94,71.94,0,0,0,51.78-61.64l12.83-121.85a71.94,71.94,0,0,0-.77-20.4l-11.15-61.33a71.94,71.94,0,0,0-35.09-49.6l-1.68-1a71.94,71.94,0,0,0-71.39,0l-1.68,1a71.94,71.94,0,0,0-35.09,49.6l-11.15,61.33a71.94,71.94,0,0,0-.77,20.4l12.83,121.85A71.94,71.94,0,0,0,686,781.28Z"/><g class="cls-4"><path class="cls-6" d="M622.18,577.44l11.15-61.33a71.94,71.94,0,0,1,35.09-49.6l1.68-1A71.92,71.92,0,0,1,683,459.78a71.93,71.93,0,0,0-30.68,46.84l-11.15,61.33a71.94,71.94,0,0,0-.77,20.4l12.83,121.85A71.94,71.94,0,0,0,705,771.83h0a71.94,71.94,0,0,0,39.53,0h0c.87-.25,1.71-.56,2.56-.84a71.76,71.76,0,0,1-21.55,10.33h0a71.94,71.94,0,0,1-39.53,0h0a71.94,71.94,0,0,1-51.78-61.64L621.42,597.84A71.94,71.94,0,0,1,622.18,577.44Z"/></g><circle class="cls-6" cx="741.88" cy="498.23" r="5.7"/><circle class="cls-6" cx="705.79" cy="498.23" r="5.7"/><rect id="_Rectangle_4" data-name="&lt;Rectangle&gt;" class="cls-1" x="705.49" y="505.99" width="37.98" height="56.97" rx="14.17" ry="14.17" transform="translate(1448.97 1068.95) rotate(-180)"/><g class="cls-7"><rect class="cls-6" x="705.49" y="462.32" width="37.98" height="56.97" rx="14.17" ry="14.17" transform="translate(1448.97 981.6) rotate(-180)"/></g><path class="cls-6" d="M709.29,544.35a13.87,13.87,0,0,0,13.87,13.87h2.65a13.87,13.87,0,0,0,13.87-13.87Z"/><path class="cls-5" d="M704.73,736.45v75s26.63-1.21,26.63,18.76H676.9V734"/><path class="cls-8" d="M733,455.92S698.4,424,680.56,415.55c0,0,15.15,26.56,5,38.46Z"/><g class="cls-9"><path class="cls-10" d="M680.56,415.55S706,442.1,695.8,454L733,455.92,685.51,454C695.7,442.1,680.56,415.55,680.56,415.55Z"/></g><rect class="cls-11" x="680" y="452.12" width="53.6" height="12.14" rx="3.17" ry="3.17"/><circle class="cls-11" cx="676.88" cy="411.58" r="5.1"/><polygon class="cls-5" points="616.41 666.3 645.08 625.23 655.56 609.42 629.46 591.2 613.19 614.52 599.87 633.6 589.94 647.82 557.99 693.57 566.86 695.13 571.37 702.91 580.11 704.38 584.46 712.05 616.41 666.3"/><g class="cls-4"><polygon class="cls-6" points="629.74 608.74 621.32 602.86 557.99 693.57 566.86 695.13 568.02 697.14 629.74 608.74"/></g><g class="cls-12"><path class="cls-11" d="M766.07,430.18H724.3v333a73,73,0,1,0,146.09,0V724.34H828.61V763.2a31.27,31.27,0,1,1-62.54,0Z"/><g class="cls-13"><line class="cls-14" x1="693.49" y1="781.38" x2="888.19" y2="865.06"/><line class="cls-14" x1="693.49" y1="745.7" x2="888.19" y2="829.37"/><line class="cls-14" x1="693.49" y1="710.01" x2="888.19" y2="793.68"/><line class="cls-14" x1="693.49" y1="674.32" x2="888.19" y2="758"/><line class="cls-14" x1="693.49" y1="638.64" x2="888.19" y2="722.31"/><line class="cls-14" x1="693.49" y1="602.95" x2="888.19" y2="686.63"/><line class="cls-14" x1="693.49" y1="567.27" x2="888.19" y2="650.94"/><line class="cls-14" x1="693.49" y1="531.58" x2="888.19" y2="615.26"/><line class="cls-14" x1="693.49" y1="495.9" x2="888.19" y2="579.57"/><line class="cls-14" x1="693.49" y1="460.21" x2="888.19" y2="543.88"/><line class="cls-14" x1="693.49" y1="424.52" x2="888.19" y2="508.2"/><line class="cls-14" x1="693.49" y1="388.84" x2="888.19" y2="472.51"/><line class="cls-14" x1="693.49" y1="353.15" x2="888.19" y2="436.83"/></g></g><g class="cls-15"><path class="cls-11" d="M877,610.63V568.86h-333a73,73,0,1,0,0,146.09H582.8V673.17H543.94a31.27,31.27,0,1,1,0-62.54Z"/><g class="cls-16"><line class="cls-14" x1="521.36" y1="538.05" x2="437.68" y2="732.75"/><line class="cls-14" x1="557.04" y1="538.05" x2="473.37" y2="732.75"/><line class="cls-14" x1="592.73" y1="538.05" x2="509.06" y2="732.75"/><line class="cls-14" x1="628.41" y1="538.05" x2="544.74" y2="732.75"/><line class="cls-14" x1="664.1" y1="538.05" x2="580.43" y2="732.75"/><line class="cls-14" x1="699.79" y1="538.05" x2="616.11" y2="732.75"/><line class="cls-14" x1="735.47" y1="538.05" x2="651.8" y2="732.75"/><line class="cls-14" x1="771.16" y1="538.05" x2="687.48" y2="732.75"/><line class="cls-14" x1="806.84" y1="538.05" x2="723.17" y2="732.75"/><line class="cls-14" x1="842.53" y1="538.05" x2="758.85" y2="732.75"/><line class="cls-14" x1="878.21" y1="538.05" x2="794.54" y2="732.75"/><line class="cls-14" x1="913.9" y1="538.05" x2="830.23" y2="732.75"/><line class="cls-14" x1="949.59" y1="538.05" x2="865.91" y2="732.75"/></g></g><polygon class="cls-5" points="814.55 536.15 827.24 512.07 836.59 538.14 814.55 536.15"/></g></g></svg>