<svg id="Layer_1" data-name="Layer 1" xmlns="http://www.w3.org/2000/svg" xmlns:xlink="http://www.w3.org/1999/xlink" viewBox="0 0 350 350"><defs><style>.cls-1,.cls-8{fill:none;}.cls-2{fill:#fff;}.cls-3{fill:#00c3ea;}.cls-4{clip-path:url(#clip-path);}.cls-5{fill:#03542c;}.cls-6{fill:#06703a;}.cls-7{clip-path:url(#clip-path-2);}.cls-8{stroke:#07814a;stroke-miterlimit:10;stroke-width:2.33px;}.cls-9{fill:#bae4f9;}.cls-10{fill:#022288;}.cls-11{clip-path:url(#clip-path-3);}.cls-12{clip-path:url(#clip-path-4);}.cls-13{fill:#fb8c00;}.cls-14{fill:#c62828;}.cls-15{fill:#d94637;}.cls-16{clip-path:url(#clip-path-5);}.cls-17{clip-path:url(#clip-path-6);}.cls-18{opacity:0.2;}.cls-19{fill:#231f20;}</style><clipPath id="clip-path"><circle id="_Clipping_Path_" data-name="&lt;Clipping Path&gt;" class="cls-1" cx="175" cy="175" r="175"/></clipPath><clipPath id="clip-path-2"><polygon class="cls-1" points="178.49 233.31 114.5 435.42 178.49 435.42 242.46 435.42 178.49 233.31"/></clipPath><clipPath id="clip-path-3"><path id="_Clipping_Path_2" data-name="&lt;Clipping Path&gt;" class="cls-2" d="M199.52,371l79.85-23.56a6.17,6.17,0,0,0,3.54-2.73l5.56-9.21a6.17,6.17,0,0,1,7.06-2.72l3.41,1a6.17,6.17,0,0,1,4.31,7l-.62,3.6a6.17,6.17,0,0,0,2.18,5.83l1.42,1.16a6.17,6.17,0,0,1,.34,9.27l-4.19,4a6.17,6.17,0,0,1-6.54,1.24L288,362.67a6.18,6.18,0,0,0-3.95-.22l-68.77,19a6.48,6.48,0,0,0-4.86,6v1.15a5.89,5.89,0,0,1-4.44,6l-5.27,1.27a6.1,6.1,0,0,1-7.45-5.2l-.23-1.47c-.33-2.46-2-4.56-4.43-4.56h0c-4,0-5.79-6.27-3.62-9.78l1.13-2.12a6.22,6.22,0,0,1,8.31-2.27l.32.11A6.15,6.15,0,0,0,199.52,371Z"/></clipPath><clipPath id="clip-path-4"><path id="_Clipping_Path_3" data-name="&lt;Clipping Path&gt;" class="cls-2" d="M255.42,407.46l68.81-46.86a6.17,6.17,0,0,0,2.53-3.68l2.48-10.47a6.17,6.17,0,0,1,5.88-4.75l3.56-.07a6.17,6.17,0,0,1,6.24,5.31l.51,3.62a6.18,6.18,0,0,0,3.86,4.88l1.71.67a6.17,6.17,0,0,1,3.16,8.73l-2.78,5.05a6.17,6.17,0,0,1-5.85,3.18l-8.46-.6a6.17,6.17,0,0,0-3.83,1l-59.35,39a6.17,6.17,0,0,0-2.49,7.05l.35,1.09a6.17,6.17,0,0,1-2.7,7.18l-4.78,2.87a6.17,6.17,0,0,1-8.76-2.64l-.88-1.86a6.17,6.17,0,0,0-5.85-3.52h0a6.17,6.17,0,0,1-6.26-7.65l.52-2.09a6.17,6.17,0,0,1,7.26-4.56l.36.08A6.17,6.17,0,0,0,255.42,407.46Z"/></clipPath><clipPath id="clip-path-5"><path id="_Clipping_Path_4" data-name="&lt;Clipping Path&gt;" class="cls-2" d="M238.85,155.52,171,181.37A197.2,197.2,0,0,1,111.94,194L53,197.32a5.24,5.24,0,0,1-5.42-6.37l7.71-34.71a30.36,30.36,0,0,1,21-22.53l17.33-2.34c22.91-2.31,37.57-21.59,63.2-26.14s57.27,8.7,57.27,8.7Z"/></clipPath><clipPath id="clip-path-6"><path id="_Clipping_Path_5" data-name="&lt;Clipping Path&gt;" class="cls-2" d="M244.15,145.15,222,213.94a25.85,25.85,0,0,1-23.14,17.87l-136.31,7.7a16.76,16.76,0,0,1-17-12L41.1,212.56a5.24,5.24,0,0,1,5.39-6.7s137.29,20.6,151.83-50.34"/></clipPath></defs><title>dinosaur</title><circle id="_Path_" data-name="&lt;Path&gt;" class="cls-3" cx="175" cy="175" r="175"/><g class="cls-4"><path id="_Clipping_Path_6" data-name="&lt;Clipping Path&gt;" class="cls-2" d="M342.11,356.44s19.2,24.53,33.66,26.1c11.06,1.2,29.89-18.78,19.65-32.22-6.44-8.45-30.26-16.83-30.26-16.83Z"/><polygon class="cls-5" points="114.5 254.31 60.01 426.44 114.5 426.44 168.99 426.44 114.5 254.31"/><polygon class="cls-6" points="178.49 233.31 114.5 435.42 178.49 435.42 242.46 435.42 178.49 233.31"/><g class="cls-7"><polyline class="cls-8" points="246.76 277.54 178.49 345.82 110.21 277.54"/><polyline class="cls-8" points="246.76 322.95 178.49 391.23 110.21 322.95"/><polyline class="cls-8" points="246.76 141.32 178.49 209.59 110.21 141.32"/><polyline class="cls-8" points="246.76 186.73 178.49 255 110.21 186.73"/><polyline class="cls-8" points="246.76 232.13 178.49 300.41 110.21 232.13"/></g><ellipse class="cls-9" cx="321.67" cy="349.66" rx="58.2" ry="42.2" transform="translate(-99.17 129.16) rotate(-19.73)"/><ellipse class="cls-10" cx="336.79" cy="357.81" rx="31.15" ry="22.59" transform="translate(-101.04 134.74) rotate(-19.73)"/><path id="_Clipping_Path_7" data-name="&lt;Clipping Path&gt;" class="cls-2" d="M199.52,371l79.85-23.56a6.17,6.17,0,0,0,3.54-2.73l5.56-9.21a6.17,6.17,0,0,1,7.06-2.72l3.41,1a6.17,6.17,0,0,1,4.31,7l-.62,3.6a6.17,6.17,0,0,0,2.18,5.83l1.42,1.16a6.17,6.17,0,0,1,.34,9.27l-4.19,4a6.17,6.17,0,0,1-6.54,1.24L288,362.67a6.18,6.18,0,0,0-3.95-.22l-68.77,19a6.48,6.48,0,0,0-4.86,6v1.15a5.89,5.89,0,0,1-4.44,6l-5.27,1.27a6.1,6.1,0,0,1-7.45-5.2l-.23-1.47c-.33-2.46-2-4.56-4.43-4.56h0c-4,0-5.79-6.27-3.62-9.78l1.13-2.12a6.22,6.22,0,0,1,8.31-2.27l.32.11A6.15,6.15,0,0,0,199.52,371Z"/><g class="cls-11"><path class="cls-9" d="M199.52,378l79.85-23.56a6.17,6.17,0,0,0,3.54-2.73l5.56-9.21a6.17,6.17,0,0,1,7.06-2.72l3.41,1a6.17,6.17,0,0,1,4.31,7l-.62,3.6a6.17,6.17,0,0,0,2.18,5.83l1.42,1.16a6.17,6.17,0,0,1,.34,9.27l-4.19,4a6.17,6.17,0,0,1-6.54,1.24L288,369.66a6.18,6.18,0,0,0-3.95-.22l-68.77,19a6.48,6.48,0,0,0-4.86,6v1.15a5.89,5.89,0,0,1-4.44,6l-5.27,1.27a6.1,6.1,0,0,1-7.45-5.2l-.23-2c-.33-2.46-2-5.07-4.43-5.07h0c-4,0-5.79-5.77-3.62-9.27l1.13-1.87a6.18,6.18,0,0,1,8.31-2.14l.32.17A6.17,6.17,0,0,0,199.52,378Z"/></g><path id="_Clipping_Path_8" data-name="&lt;Clipping Path&gt;" class="cls-2" d="M255.42,407.46l68.81-46.86a6.17,6.17,0,0,0,2.53-3.68l2.48-10.47a6.17,6.17,0,0,1,5.88-4.75l3.56-.07a6.17,6.17,0,0,1,6.24,5.31l.51,3.62a6.18,6.18,0,0,0,3.86,4.88l1.71.67a6.17,6.17,0,0,1,3.16,8.73l-2.78,5.05a6.17,6.17,0,0,1-5.85,3.18l-8.46-.6a6.17,6.17,0,0,0-3.83,1l-59.35,39a6.17,6.17,0,0,0-2.49,7.05l.35,1.09a6.17,6.17,0,0,1-2.7,7.18l-4.78,2.87a6.17,6.17,0,0,1-8.76-2.64l-.88-1.86a6.17,6.17,0,0,0-5.85-3.52h0a6.17,6.17,0,0,1-6.26-7.65l.52-2.09a6.17,6.17,0,0,1,7.26-4.56l.36.08A6.17,6.17,0,0,0,255.42,407.46Z"/><g class="cls-12"><path id="_Path_2" data-name="&lt;Path&gt;" class="cls-9" d="M351.39,378.62a6.17,6.17,0,0,1-5.85,3.18l-8.46-.6a6.17,6.17,0,0,0-3.83,1l-59.35,39a6.17,6.17,0,0,0-2.49,7.05l.35,1.09a6.17,6.17,0,0,1-2.7,7.18l-4.78,2.87a6.17,6.17,0,0,1-8.76-2.64l-.88-1.86a6.17,6.17,0,0,0-5.85-3.52h0a6.17,6.17,0,0,1-6.26-7.65l.52-2.09a6.17,6.17,0,0,1,7.26-4.56l.36.08a6.17,6.17,0,0,0,4.74-.94l46.81-33.6-23.37-3.31,63.24-48S372,371.2,371.3,371,351.39,378.62,351.39,378.62Z"/></g><path class="cls-13" d="M178.14,272.15a4.4,4.4,0,0,0,6.09-.27,12.7,12.7,0,0,0-.43-18.24h0a4.4,4.4,0,0,0-6.09.26,4.16,4.16,0,0,0,.15,6,4.42,4.42,0,0,1,.13,6.34,4.12,4.12,0,0,0,.16,5.95Z"/><path class="cls-14" d="M189.56,299.32a31.49,31.49,0,0,0,22.75,8,32.85,32.85,0,0,0,22.32-10.17l5.76-6a12.41,12.41,0,0,0-.47-17.86l0,0a13.19,13.19,0,0,0-18.26.83l-5.76,6a6.38,6.38,0,0,1-4.31,2,5.89,5.89,0,0,1-4.24-1.48h0l-12.16-11,0,0a13.2,13.2,0,0,0-18.26.84,12.41,12.41,0,0,0,.48,17.86l12.15,11Z"/><path class="cls-13" d="M166.69,278A11.81,11.81,0,0,0,183,277.3a11.12,11.12,0,0,0-.42-16l-9.49-8.61,0,0a11.82,11.82,0,0,0-16.37.75,11.13,11.13,0,0,0,.42,16l9.49,8.6Z"/><path class="cls-2" d="M172.48,286.83a5.26,5.26,0,0,0,7.28-.34L193.57,272a4.93,4.93,0,0,0-.19-7.11h0a5.25,5.25,0,0,0-7.27.33l-13.81,14.46a5,5,0,0,0,.18,7.11Z"/><path class="cls-15" d="M253.26,223.12c15.46,8.3,27.12,26,3.46,37-20.78,9.67-33.41-12.87-33.41-12.87C221.7,264.15,214.52,358.74,269.6,371c60.64,13.47,107.86-32,104-59C358.76,207.25,253.26,223.12,253.26,223.12Z"/><ellipse class="cls-13" cx="253.98" cy="255.5" rx="40" ry="29.01" transform="translate(-105.3 282.09) rotate(-49.4)"/><path class="cls-9" d="M211,241.05s19.2,24.53,33.66,26.1c11.06,1.2,29.89-18.78,19.65-32.22C257.86,226.48,234,218.1,234,218.1Z"/><path class="cls-10" d="M207.53,232.71s14.4,18.4,25.25,19.58c8.29.9,22.42-14.08,14.74-24.17-4.83-6.34-22.7-12.62-22.7-12.62Z"/><path class="cls-9" d="M190,223.57s19.2,24.53,33.66,26.1c11.06,1.2,29.89-18.78,19.65-32.22-6.44-8.45-30.26-16.83-30.26-16.83Z"/><path class="cls-10" d="M218,188.09s9,30.82.12,39.58-49.29-.55-49.29-.55Z"/><path class="cls-10" d="M151.86,169C112.51,174.63,37,197.33,41.1,212.56,44,223.42,187.28,220,187.28,220l28.26-64.4S191.21,163.31,151.86,169Z"/><path id="_Clipping_Path_9" data-name="&lt;Clipping Path&gt;" class="cls-2" d="M238.85,155.52,171,181.37A197.2,197.2,0,0,1,111.94,194L53,197.32a5.24,5.24,0,0,1-5.42-6.37l7.71-34.71a30.36,30.36,0,0,1,21-22.53l17.33-2.34c22.91-2.31,37.57-21.59,63.2-26.14s57.27,8.7,57.27,8.7Z"/><g class="cls-16"><path class="cls-9" d="M275.29,168.62l-67.82,25.85a197.2,197.2,0,0,1-59.09,12.61l-58.95,3.34A5.24,5.24,0,0,1,84,204l7.71-34.71a30.36,30.36,0,0,1,21-22.53l17.33-2.34c22.91-2.31,37.57-21.59,63.2-26.14s57.27,8.7,57.27,8.7Z"/></g><path class="cls-2" d="M170.62,224.15a5.53,5.53,0,0,0,9-4.5A83.5,83.5,0,0,0,177,201.3a106.1,106.1,0,0,0-4.32-13,4.43,4.43,0,0,0-8.26.16,57.82,57.82,0,0,0-3.16,13.39c-.66,6.16-.9,13.08-1,18.49a5.54,5.54,0,0,0,8.23,4.93l2.07-1.15Z"/><path class="cls-2" d="M157.5,224.15a5.53,5.53,0,0,0,9-4.5,83.5,83.5,0,0,0-2.54-18.35,106.09,106.09,0,0,0-4.33-13,4.43,4.43,0,0,0-8.26.16,57.81,57.81,0,0,0-3.16,13.39c-.66,6.16-.9,13.08-1,18.49a5.54,5.54,0,0,0,8.23,4.93l2.07-1.15Z"/><path class="cls-2" d="M143.81,220.07a5.53,5.53,0,0,0,9-4.5,83.5,83.5,0,0,0-2.54-18.35,106.1,106.1,0,0,0-4.32-13,4.43,4.43,0,0,0-8.26.16,57.82,57.82,0,0,0-3.16,13.39c-.66,6.16-.9,13.08-1,18.49a5.54,5.54,0,0,0,8.23,4.93l2.07-1.15Z"/><path class="cls-2" d="M60.2,214a106.13,106.13,0,0,0-4.33-13,4.43,4.43,0,0,0-8.26.16,57.81,57.81,0,0,0-3.16,13.39C43.8,220.75,61.93,220.49,60.2,214Z"/><path class="cls-2" d="M72.44,214a106.13,106.13,0,0,0-4.33-13,4.43,4.43,0,0,0-8.26.16,57.81,57.81,0,0,0-3.16,13.39C56,220.75,74.17,220.49,72.44,214Z"/><path class="cls-2" d="M86.43,214a106.13,106.13,0,0,0-4.33-13,4.43,4.43,0,0,0-8.26.16,57.81,57.81,0,0,0-3.16,13.39C70,220.75,88.16,220.49,86.43,214Z"/><path id="_Clipping_Path_10" data-name="&lt;Clipping Path&gt;" class="cls-2" d="M244.15,145.15,222,213.94a25.85,25.85,0,0,1-23.14,17.87l-136.31,7.7a16.76,16.76,0,0,1-17-12L41.1,212.56a5.24,5.24,0,0,1,5.39-6.7s137.29,20.6,151.83-50.34"/><g class="cls-17"><path class="cls-9" d="M261.63,138.16l-22.2,86.27a25.85,25.85,0,0,1-23.14,17.87L80,250a16.76,16.76,0,0,1-17-12L58.59,223a5.24,5.24,0,0,1,5.39-6.7S182,226.46,196.57,155.52"/></g><path class="cls-10" d="M65.6,185.26a5.53,5.53,0,0,1-8.49-5.34,83.5,83.5,0,0,1,4.28-18,106.1,106.1,0,0,1,5.54-12.5,4.43,4.43,0,0,1,8.21.95A57.84,57.84,0,0,1,77,164c.06,6.2-.35,13.1-.79,18.5a5.54,5.54,0,0,1-8.66,4.12l-1.95-1.34Z"/><path class="cls-9" d="M96.6,168.68c-3.69-2.91-8.16,16.36-6.42,22.85a106.09,106.09,0,0,0,4.32,13,4.43,4.43,0,0,0,8.26-.16A57.82,57.82,0,0,0,105.93,191c.66-6.16.9-13.08,1-18.49a5.54,5.54,0,0,0-8.23-4.93l-2.07,1.15Z"/><path class="cls-9" d="M109.72,168.68a5.53,5.53,0,0,0-9,4.5,83.49,83.49,0,0,0,2.54,18.35,106.09,106.09,0,0,0,4.33,13,4.43,4.43,0,0,0,8.26-.16A57.81,57.81,0,0,0,119,191c.66-6.16.9-13.08,1-18.49a5.54,5.54,0,0,0-8.23-4.93l-2.07,1.15Z"/><path class="cls-9" d="M123.41,165.77a5.53,5.53,0,0,0-9,4.5A83.5,83.5,0,0,0,117,188.62a106.09,106.09,0,0,0,4.32,13,4.43,4.43,0,0,0,8.26-.16A57.82,57.82,0,0,0,132.73,188c.66-6.16.9-13.08,1-18.49a5.54,5.54,0,0,0-8.23-4.93l-2.07,1.15Z"/><circle class="cls-10" cx="163.38" cy="135.54" r="9.61"/><path class="cls-15" d="M151.94,88.25s138.92-66.06,151.8,68.83c0,0-65.41-57.47-57.82-24Z"/><rect class="cls-2" x="187.11" y="60.76" width="26.59" height="117.37" rx="6.94" ry="6.94" transform="translate(1.29 241.02) rotate(-62.2)"/><path class="cls-2" d="M312.31,162.69a11.16,11.16,0,1,1-4.66-15.08A11.16,11.16,0,0,1,312.31,162.69Z"/><g class="cls-18"><path class="cls-19" d="M230,330.72h0a6.6,6.6,0,0,0,6.53-5.9l1-8.83a14.12,14.12,0,0,1,14.08-12.19h.06c7,3,12,7.37,11.13,14.45l-1,8.52a33.13,33.13,0,0,1-11.69,21.68,76.8,76.8,0,0,1-8,5.19C232.74,341.73,230,330.72,230,330.72Z"/></g><path class="cls-13" d="M198.14,337.59c2.32.2,4.42-.37,4.69-2.72.85-7.23-4.24-13.13-11.33-13.13h0c-2.32,0-4.42.36-4.7,2.71s1.39,3.86,3.71,4.08a4.16,4.16,0,0,1,3.93,4.69,4,4,0,0,0,3.71,4.51A.86.86,0,0,0,198.14,337.59Z"/><path class="cls-15" d="M223.62,352.39a31.49,31.49,0,0,0,23-7.32,32.85,32.85,0,0,0,11.69-21.56l1-8.28a12.41,12.41,0,0,0-11.13-14h-.06A13.19,13.19,0,0,0,234,312.91l-1,8.28a7.94,7.94,0,0,1-2.25,4.67,6.71,6.71,0,0,1-4.28,1.86h0l-16.36-2s0-.25-.05-.25A13.1,13.1,0,0,0,196,337,12.36,12.36,0,0,0,207.13,351l16.35,1.46S223.58,352.39,223.62,352.39Z"/><path class="cls-15" d="M209.13,332.19l.05,0,16.36,1.5h0a6.81,6.81,0,0,0,4.28-1.39,6.4,6.4,0,0,0,2.25-4.18l.66-5.68a8.74,8.74,0,0,1-2,3.41,6.71,6.71,0,0,1-4.28,1.86h0l-16.36-2s0-.25-.05-.25A13.1,13.1,0,0,0,196,337a12.48,12.48,0,0,0,0,3.18A13.18,13.18,0,0,1,209.13,332.19Z"/><path class="cls-13" d="M192.55,349.19a11.81,11.81,0,0,0,12.61-10.45,11.12,11.12,0,0,0-10-12.52l-12.76-1.16h0a11.82,11.82,0,0,0-12.61,10.46,11.13,11.13,0,0,0,10,12.52l12.75,1.15Z"/><path class="cls-2" d="M202.46,352.71a5.26,5.26,0,0,0,5.61-4.65l2.32-20.31c.33-2.81-1.65-6-4.44-6h0a5.83,5.83,0,0,0-5.61,5.09L198,346.91a5.05,5.05,0,0,0,4.43,5.68S202.45,352.71,202.46,352.71Z"/></g></svg>