<svg id="Layer_1" data-name="Layer 1" xmlns="http://www.w3.org/2000/svg" viewBox="0 0 875 875"><defs><style>.cls-1{opacity:0.2;}.cls-2{fill:#e53935;}.cls-3,.cls-9{fill:#231f20;}.cls-3{opacity:0.15;}.cls-4{fill:none;}.cls-5{fill:#f9ce1d;}.cls-6{fill:#fff;}.cls-7{fill:#b3b3b3;}.cls-8{fill:#f7caad;}.cls-10{fill:#ef9a9a;}.cls-11{fill:#212121;}</style></defs><title>GemMatch</title><ellipse class="cls-1" cx="666.59" cy="830.26" rx="132.5" ry="24.74"/><path class="cls-2" d="M659.1,506.22l70.25,58.9a49.92,49.92,0,0,0,70.24-6.17l32.74-39.06-30.44-25.53-32.74,39.06a10.14,10.14,0,0,1-14.27,1.25l-70.25-58.9Z"/><path class="cls-3" d="M807.57,549.43l-8,9.51a49.92,49.92,0,0,1-70.24,6.17l-70.25-58.9,8-9.51,70.25,58.9A49.92,49.92,0,0,0,807.57,549.43Z"/><path class="cls-4" d="M662.33,502.37l70.25,58.9a30,30,0,0,0,42.26-3.71L813,512"/><path class="cls-5" d="M821.32,500.34a6.59,6.59,0,0,1-9.26.78,20.19,20.19,0,0,1-2.53-28.39l0,0a6.58,6.58,0,0,1,10.07,8.48,7,7,0,0,0,.91,9.87,6.58,6.58,0,0,1,.8,9.28Z"/><path class="cls-5" d="M838,512.6a17.7,17.7,0,0,1-27-22.84l12.83-15.26,0-.06a17.7,17.7,0,0,1,27,22.85L838,512.53A.23.23,0,0,0,838,512.6Z"/><rect class="cls-6" x="804.96" y="483.58" width="18" height="54.63" rx="6.68" ry="6.68" transform="translate(-100.5 806.39) rotate(-50.02)"/><path class="cls-2" d="M582.51,433.35c0,41.23,32.8,74.67,73.28,74.67S729,474.58,729,433.35s-32.8-74.66-73.27-74.66S582.51,392.11,582.51,433.35Z"/><path class="cls-6" d="M594,442.86c0,38.68,32.15,70,71.81,70s71.8-31.36,71.8-70-32.14-70-71.8-70S594,404.17,594,442.86Z"/><ellipse class="cls-7" cx="665.81" cy="442.86" rx="53.59" ry="52.27"/><ellipse class="cls-8" cx="665.81" cy="442.86" rx="48.27" ry="47.08"/><path class="cls-7" d="M680.09,395.78s-18,40.18-64.7,40.18c0,0,1-25,32.7-39.27A41.69,41.69,0,0,1,680.09,395.78Z"/><path class="cls-7" d="M679.17,397.61s13.38,30.68,36.07,30.68C715.24,428.29,703.1,397,679.17,397.61Z"/><path class="cls-9" d="M668.78,462.91a10.27,10.27,0,0,0,20.54,0"/><path class="cls-9" d="M693.76,431.62a3.41,3.41,0,1,0,3.41-3.33A3.38,3.38,0,0,0,693.76,431.62Z"/><path class="cls-9" d="M665.92,431.62a3.41,3.41,0,1,1-3.41-3.33A3.37,3.37,0,0,1,665.92,431.62Z"/><ellipse class="cls-10" cx="680.09" cy="445.92" rx="9.82" ry="9.28"/><path class="cls-2" d="M632.09,499c36.13-5.52,59.69,2.3,74.68,14,0,0,29.35,14.5,29.35,37.4a44.2,44.2,0,0,1-5.32,21.36c.39,19.29,1.28,37.93,1.28,37.93L596,617.54l-3.47-80.36S614.63,501.64,632.09,499Z"/><path class="cls-6" d="M686.91,638.83a9.84,9.84,0,0,0,9.84-9.84V495.14a9.84,9.84,0,1,0-19.69,0V629A9.84,9.84,0,0,0,686.91,638.83Z"/><path class="cls-3" d="M583.77,551.64c5.79-25.56,19.68-45.91,37.43-58.18h12.49a104.13,104.13,0,0,0-14.78,34.9c-11.55,51,13.52,103.32,56,116.87a66.64,66.64,0,0,0,40.35.15c-19.51,22.08-47.78,31.95-75.49,23.12C597.28,655,572.22,602.64,583.77,551.64Z"/><path class="cls-11" d="M707.79,781.53c0,.73,0,1.44,0,2.15h.11c0,24.63,45.32,37.9,45.32,37.9v8H707.9l0,0a19,19,0,0,1-10.45-3.66v0l-.53-.42-.51-.4-9.5-7.49v11H675.57V783.36Z"/><path class="cls-11" d="M655.72,784.31h-.11c0-.71,0-1.42,0-2.15L623.39,784v45.26h11.34v-11l9.5,7.49.51.4.53.41v0a19,19,0,0,0,10.45,3.66l0,0H701v-8S655.72,808.94,655.72,784.31Z"/><polygon class="cls-2" points="572.64 785.02 760.54 785.02 733.3 617.54 596.01 617.54 572.64 785.02"/><path class="cls-3" d="M592.72,785h160a6.41,6.41,0,0,0,2.8-12.17l-31.62-15.34L685.89,657,647.84,757.51Z"/><path class="cls-6" d="M688.81,609.89a9.84,9.84,0,0,1,10.67,8.94c4,45.82,11.86,82.47,23.23,108.94,9.49,22.08,21,36.31,34.71,43a9.9,9.9,0,0,1,5.39,11.09h0a9.9,9.9,0,0,1-14,6.66c-18-8.75-32.76-26.45-44.14-52.95-12.2-28.39-20.53-67.07-24.75-115A9.84,9.84,0,0,1,688.81,609.89Z"/><path class="cls-6" d="M596.39,794.87c31.48,0,56-20.27,72.88-60.26,12.13-28.74,20.34-67.85,24.38-116.24A9.84,9.84,0,1,0,674,616.73c-3.87,46.32-11.58,83.4-22.9,110.22-13.7,32.45-31.61,48.23-54.75,48.23a9.84,9.84,0,0,0,0,19.69Z"/><path class="cls-6" d="M569.43,775.18h17.11a9.84,9.84,0,0,1,9.84,9.84v0a9.84,9.84,0,0,1-9.84,9.84H569.43a0,0,0,0,1,0,0V775.18A0,0,0,0,1,569.43,775.18Z" transform="translate(1165.82 1570.05) rotate(-180)"/><polygon class="cls-11" points="733.23 609.42 735.54 624.2 597.88 624.2 597.88 609.42 733.23 609.42"/><rect class="cls-5" x="671.63" y="609.42" width="30.07" height="14.78"/><rect class="cls-8" x="645.18" y="485.34" width="41.49" height="13.63" transform="translate(1331.85 984.31) rotate(-180)"/><path class="cls-2" d="M610.2,657.89a18.33,18.33,0,0,0,14.58-29.42c-9.46-12.54-23.55-38.46-21-54.52,3.88-24.56,22.78-48.26,23-48.5a18.33,18.33,0,0,0-28.48-23.08c-1,1.27-25.25,31.41-30.7,65.85-5.79,36.63,24.55,77.84,28,82.42A18.3,18.3,0,0,0,610.2,657.89Z"/><path class="cls-6" d="M619.32,505h91.63a9.84,9.84,0,0,0,0-19.69H619.32a9.84,9.84,0,1,0,0,19.69Z"/><path class="cls-5" d="M616.86,649.09a6.59,6.59,0,0,1,2.44-9,20.19,20.19,0,0,1,27.54,7.35l0,0A6.58,6.58,0,0,1,635.44,654a7,7,0,0,0-9.59-2.52,6.58,6.58,0,0,1-9-2.42Z"/><path class="cls-5" d="M599.64,660.52a17.7,17.7,0,0,1,30.72-17.58l9.94,17.28,0,.07a17.7,17.7,0,0,1-30.73,17.58l-9.93-17.29A.23.23,0,0,0,599.64,660.52Z"/><rect class="cls-6" x="582.15" y="629.55" width="54.63" height="18" rx="6.68" ry="6.68" transform="translate(-237.6 390.21) rotate(-30)"/></svg>