<svg xmlns="http://www.w3.org/2000/svg" xmlns:xlink="http://www.w3.org/1999/xlink" viewBox="0 0 350 350"><defs><style>.cls-1,.cls-15{fill:none;}.cls-2{isolation:isolate;}.cls-3{clip-path:url(#clip-path);}.cls-4{fill:#231f20;opacity:0.2;mix-blend-mode:multiply;}.cls-5{fill:#ccc;}.cls-6{fill:#fff;}.cls-7{fill:#00c3ea;}.cls-8{clip-path:url(#clip-path-2);}.cls-9{fill:#00a451;}.cls-10{fill:#ffe08b;}.cls-11{fill:#e53935;}.cls-12,.cls-17{fill:#fccd48;}.cls-13{fill:#022288;}.cls-14{opacity:0.1;}.cls-15,.cls-17{stroke:#fccd48;stroke-linecap:round;stroke-linejoin:round;stroke-width:9.24px;}.cls-16{fill:#ec407a;opacity:0.5;}</style><clipPath id="clip-path"><circle id="_Clipping_Path_" data-name="&lt;Clipping Path&gt;" class="cls-1" cx="175" cy="-524" r="175"/></clipPath><clipPath id="clip-path-2"><circle id="_Clipping_Path_2" data-name="&lt;Clipping Path&gt;" class="cls-1" cx="175" cy="175" r="175"/></clipPath></defs><title>nutcracker</title><g class="cls-2"><g id="Layer_1" data-name="Layer 1"><g class="cls-3"><ellipse class="cls-4" cx="157.05" cy="77.95" rx="199.01" ry="22.09"/><path class="cls-5" d="M156-187.61H87.68V22.5c-38.61,5.7-67.53,29-67.53,56.86h125.5v-.48H156Z"/><path class="cls-6" d="M129.4-69.18,87.68-91.69V22.5c-38.61,5.7-67.53,29-67.53,56.86h125.5v-.48h-17Z"/><path class="cls-5" d="M285.17-187.61H216.89V22.5c-38.61,5.7-67.53,29-67.53,56.86h125.5v-.48h10.3Z"/><path class="cls-6" d="M263.75-59.39,216.89-90.71V22.5c-38.61,5.7-67.53,29-67.53,56.86h125.5v-.48H263.75Z"/></g><circle id="_Path_" data-name="&lt;Path&gt;" class="cls-7" cx="175" cy="175" r="175"/><g class="cls-8"><rect class="cls-9" x="115.17" y="172.96" width="118.66" height="316.11"/><path class="cls-10" d="M99.45,508.38h0A17.75,17.75,0,0,1,81.7,490.63v-142a17.75,17.75,0,0,1,17.75-17.75h0a17.75,17.75,0,0,1,17.75,17.75v142A17.75,17.75,0,0,1,99.45,508.38Z"/><path class="cls-11" d="M117.2,480.66H81.7V320.91a17.75,17.75,0,0,1,17.75-17.75h0a17.75,17.75,0,0,1,17.75,17.75Z"/><path class="cls-9" d="M117.2,480.66H81.7V320.91a17.75,17.75,0,0,1,17.75-17.75h0a17.75,17.75,0,0,1,17.75,17.75Z"/><path class="cls-12" d="M81.7,342.06V320.91a17.75,17.75,0,0,1,17.75-17.75h0a17.75,17.75,0,0,1,17.75,17.75v21.15Z"/><path class="cls-10" d="M251.91,508.38h0a17.75,17.75,0,0,1-17.75-17.75v-142a17.75,17.75,0,0,1,17.75-17.75h0a17.75,17.75,0,0,1,17.75,17.75v142A17.75,17.75,0,0,1,251.91,508.38Z"/><path class="cls-11" d="M269.66,480.66h-35.5V320.91a17.75,17.75,0,0,1,17.75-17.75h0a17.75,17.75,0,0,1,17.75,17.75Z"/><path class="cls-9" d="M269.66,480.66h-35.5V320.91a17.75,17.75,0,0,1,17.75-17.75h0a17.75,17.75,0,0,1,17.75,17.75Z"/><path class="cls-12" d="M234.16,342.06V320.91a17.75,17.75,0,0,1,17.75-17.75h0a17.75,17.75,0,0,1,17.75,17.75v21.15Z"/><rect class="cls-10" x="115.17" y="126.76" width="118.66" height="177.5"/><path class="cls-13" d="M233.83,188.76H115.17V98.31A59.33,59.33,0,0,1,174.5,39h0a59.33,59.33,0,0,1,59.33,59.33Z"/><rect class="cls-14" x="206.16" y="172.96" width="27.68" height="316.11"/><line class="cls-15" x1="233.83" y1="188.76" x2="115.17" y2="188.76"/><circle class="cls-16" cx="140.35" cy="240.51" r="9.81"/><circle class="cls-16" cx="209.65" cy="240.51" r="9.81"/><line class="cls-15" x1="233.83" y1="170.28" x2="115.17" y2="170.28"/><polyline class="cls-17" points="234.68 151.8 245.79 97.09 219.31 117.04 175.55 85.54 130.53 117.04 104.06 97.09 115.17 151.8 233.83 151.8"/><circle class="cls-17" cx="175.37" cy="36.95" r="12.32"/><path class="cls-13" d="M176.19,351.06h0a26.63,26.63,0,0,1-26.63-26.63V287.15h53.27v37.28A26.63,26.63,0,0,1,176.19,351.06Z"/><circle class="cls-13" cx="140.35" cy="217.41" r="9.81"/><path class="cls-13" d="M195,235.9c10.62,0,25,13.06,25,13.06a16.18,16.18,0,0,0,19.28-.37l6.55-5-2.73,18a17.83,17.83,0,0,1-8.37,12.7l-1.82,1.08a16.12,16.12,0,0,1-14.32,1.14l-10.84-4.35a16.07,16.07,0,0,0-10.59-.5l-4.87,1.45c-10.78,3.2-21.47-5.34-21.47-17.15h0C170.79,249.5,178.19,235.9,195,235.9Z"/><path class="cls-13" d="M151.5,235.9c-10.62,0-25,13.06-25,13.06a16.18,16.18,0,0,1-19.28-.37l-6.55-5,2.73,18a17.83,17.83,0,0,0,8.37,12.7l1.82,1.08a16.12,16.12,0,0,0,14.32,1.14l10.84-4.35a16.07,16.07,0,0,1,10.59-.5l4.87,1.45c10.78,3.2,21.47-5.34,21.47-17.15h0C175.7,249.5,168.3,235.9,151.5,235.9Z"/><circle class="cls-13" cx="209.65" cy="217.41" r="9.81"/><path class="cls-11" d="M177,244.66H173.7A10.65,10.65,0,0,1,163.05,234h0a10.65,10.65,0,0,1,10.65-10.65H177A10.65,10.65,0,0,1,187.7,234h0A10.65,10.65,0,0,1,177,244.66Z"/></g></g></g></svg>