<svg id="Layer_1" data-name="Layer 1" xmlns="http://www.w3.org/2000/svg" xmlns:xlink="http://www.w3.org/1999/xlink" viewBox="0 0 350 350"><defs><style>.cls-1{fill:none;}.cls-2{fill:#00c3ea;}.cls-3{clip-path:url(#clip-path);}.cls-4{fill:#fbbd2d;}.cls-5{fill:#fbcf3f;}.cls-6{fill:#f5b02d;}.cls-7{fill:#fff;}.cls-8{opacity:0.07;}.cls-9{fill:#dd4a3f;}.cls-10{opacity:0.1;}.cls-11{fill:#ef802c;}.cls-12{fill:#efa32c;}</style><clipPath id="clip-path"><circle id="_Clipping_Path_" data-name="&lt;Clipping Path&gt;" class="cls-1" cx="175" cy="175" r="175"/></clipPath></defs><title>peg-man</title><circle id="_Path_" data-name="&lt;Path&gt;" class="cls-2" cx="175" cy="175" r="175"/><g class="cls-3"><circle class="cls-4" cx="161.1" cy="198.67" r="75.7" transform="translate(-16.5 14.6) rotate(-4.94)"/><circle class="cls-5" cx="161.1" cy="198.67" r="75.7" transform="translate(-13.6 11.85) rotate(-4.04)"/><path class="cls-6" d="M192.45,263.57c-40.61,11.11-83.77-13.51-94.88-54.12-6.64-24.29-.5-49.48,14.19-68.19a75.7,75.7,0,1,0,98.9,114.62A75.25,75.25,0,0,1,192.45,263.57Z"/><path class="cls-7" d="M257.72,79.9c-10.29,7.94-12,22.91-3.89,33.44s23.06,12.65,33.35,4.71,12-22.92,3.9-33.47S268,72,257.72,79.9Z"/><path class="cls-8" d="M286.92,118.24c-10.28,7.72-25,5.57-33.09-4.89a24.12,24.12,0,0,1-2.56-25.61A95.19,95.19,0,0,0,286.92,118.24Z"/><path class="cls-9" d="M85.88,157.49c12.4-30.47,28-57.41,45.87-78,30.62-35.6,73-28.26,117.86,2.11,3.2,2.17,6.11,7.44,2.38,10.19-5.51,4.08-11.48,12.89-6.92,30.19,7.65,29-12.54,59.58-12.57,59.77C184,161.59,133.67,153.49,85.88,157.49Z"/><path class="cls-10" d="M131.75,79.53c13-15.08,28.06-22.43,44.54-23.61-25.7,11.46-46.11,27.82-44.83,67.06.44,13.58,19.91,25.53,25.33,37.27a296.92,296.92,0,0,0-70.92-2.75C98.28,127,113.92,100.08,131.75,79.53Z"/><path class="cls-6" d="M235.71,200.53a324.52,324.52,0,0,0-143-34.26,75.69,75.69,0,0,1,143.82,25.89,76.41,76.41,0,0,1,.23,8.83C236.4,200.85,236.05,200.7,235.71,200.53Z"/><path class="cls-7" d="M76.65,153.45c-1.18,6.29,2.73,11,8.72,10.64,50-2.71,102.26,6.72,152.53,28.31,6,2.58,11.9.29,13.08-5.33l5.92-28.13c1.18-5.59-2.72-12.65-8.71-15.44-50-23.25-102.26-34.35-152.53-33.3-6,.11-11.9,5.53-13.09,11.8Q79.61,137.7,76.65,153.45Z"/><path class="cls-8" d="M76.65,153.45q3-15.75,5.92-31.44c1.18-6.27,7-11.69,13.09-11.8,3-.06,6.1-.07,9.16,0a90.33,90.33,0,0,0-3.45,53.48c-5.35,0-10.69.15-16,.44C79.38,164.42,75.47,159.74,76.65,153.45Z"/><path class="cls-11" d="M117.65,298.79s-35.17,49.34-98.73,56.6l-1.08,19.68s53.1,20.79,108.45-30.37Z"/><path class="cls-12" d="M114.9,284.15l23.72,126.11s-27.29,49.61-18.91,139.07h35.79s4.94-46.93,13.48-71.85c0,0,3.58,60.5,5.15,71.85h32.21L229.25,279Z"/><path class="cls-5" d="M167,330.86s1.91,87.78,2.49,98.1,9.07,109.25,11.06,120.37h33.8s6.49-106.87,8.83-121.39l3.89-96s17.37,15.32,28.28,74.36l24.84-1.87s8.09-103.35-51-125.43l-47.11,1.88Z"/><polygon class="cls-11" points="145.35 282.78 167.04 330.87 182.14 280.9 145.35 282.78"/><path class="cls-12" d="M255.39,406.32l-6.48.47s-12-65.66-29.29-81.53C219.62,325.27,243.26,333.35,255.39,406.32Z"/></g></svg>