<svg id="Layer_1" data-name="Layer 1" xmlns="http://www.w3.org/2000/svg" xmlns:xlink="http://www.w3.org/1999/xlink" viewBox="0 0 875 875"><defs><style>.cls-1{fill:#fff;}.cls-2{opacity:0.2;}.cls-3{clip-path:url(#clip-path);}.cls-4{fill:#bae4f9;}.cls-5{fill:#022288;}.cls-6{clip-path:url(#clip-path-2);}.cls-7{clip-path:url(#clip-path-3);}.cls-8{clip-path:url(#clip-path-4);}.cls-9{clip-path:url(#clip-path-5);}.cls-10{clip-path:url(#clip-path-6);}.cls-11{clip-path:url(#clip-path-7);}.cls-12{clip-path:url(#clip-path-8);}.cls-13{clip-path:url(#clip-path-9);}.cls-14{fill:#fb8c00;}.cls-15{fill:#c62828;}.cls-16{fill:#d94637;}.cls-17{clip-path:url(#clip-path-10);}.cls-18{clip-path:url(#clip-path-11);}.cls-19{fill:#231f20;}</style><clipPath id="clip-path"><path id="_Clipping_Path_" data-name="&lt;Clipping Path&gt;" class="cls-1" d="M133.05,630.78c9.09,9.13,4.65,40.63-14.92,41.1-12.31.3-78.87-38.14-74.38-46.23S121.17,618.83,133.05,630.78Z"/></clipPath><clipPath id="clip-path-2"><path id="_Clipping_Path_2" data-name="&lt;Clipping Path&gt;" class="cls-1" d="M159.61,679.17s-36.09.39-48-11.55c-9.09-9.13-4.65-40.63,14.92-41.1,12.31-.3,37.13,15.2,37.13,15.2Z"/></clipPath><clipPath id="clip-path-3"><path id="_Clipping_Path_3" data-name="&lt;Clipping Path&gt;" class="cls-1" d="M202.9,679.55s-39,9.2-54.83-.86C136,671,133.15,635.77,154.26,630.5c13.27-3.31,43.95,7.45,43.95,7.45Z"/></clipPath><clipPath id="clip-path-4"><path id="_Clipping_Path_4" data-name="&lt;Clipping Path&gt;" class="cls-1" d="M249.34,674.53s-41.11,17.19-60.25,9c-14.64-6.23-24.17-44.33-2-54,13.94-6,49.53.16,49.53.16Z"/></clipPath><clipPath id="clip-path-5"><path id="_Clipping_Path_5" data-name="&lt;Clipping Path&gt;" class="cls-1" d="M299,660s-42.64,25.17-64.95,19.1C216.95,674.48,200.67,634,223.62,620c14.43-8.77,54.54-7.34,54.54-7.34Z"/></clipPath><clipPath id="clip-path-6"><path id="_Clipping_Path_6" data-name="&lt;Clipping Path&gt;" class="cls-1" d="M342.95,625.55s-30.51,39-53.5,41.49c-17.57,1.91-47.51-29.84-31.23-51.21,10.23-13.43,48.1-26.74,48.1-26.74Z"/></clipPath><clipPath id="clip-path-7"><path id="_Clipping_Path_7" data-name="&lt;Clipping Path&gt;" class="cls-1" d="M376.29,597.77s-30.51,39-53.5,41.49c-17.57,1.91-47.51-29.84-31.23-51.21,10.23-13.43,48.1-26.74,48.1-26.74Z"/></clipPath><clipPath id="clip-path-8"><path id="_Clipping_Path_8" data-name="&lt;Clipping Path&gt;" class="cls-1" d="M602.9,620.9,476,583.47a9.81,9.81,0,0,1-5.62-4.34l-8.84-14.64a9.81,9.81,0,0,0-11.21-4.33l-5.42,1.62A9.81,9.81,0,0,0,438,572.85l1,5.72a9.81,9.81,0,0,1-3.47,9.27l-2.26,1.84a9.81,9.81,0,0,0-.54,14.74l6.66,6.29a9.81,9.81,0,0,0,10.4,2l12.51-5a9.81,9.81,0,0,1,6.28-.35l109.29,30.13c4.25,1.18,7.72,5,7.72,9.46v1.83c0,4.56,2.61,8.52,7.05,9.56l8.37,2A9.69,9.69,0,0,0,612.87,652l.37-2.33c.52-3.91,3.24-7.25,7-7.25h0c6.32,0,9.2-10,5.76-15.54l-1.8-3.38A9.88,9.88,0,0,0,611,620l-.51.18A9.78,9.78,0,0,1,602.9,620.9Z"/></clipPath><clipPath id="clip-path-9"><path id="_Clipping_Path_9" data-name="&lt;Clipping Path&gt;" class="cls-1" d="M514.05,678.85,404.69,604.37a9.81,9.81,0,0,1-4-5.85l-3.94-16.64a9.81,9.81,0,0,0-9.35-7.55l-5.65-.11a9.81,9.81,0,0,0-9.91,8.43L371,588.4a9.81,9.81,0,0,1-6.14,7.76l-2.72,1.06a9.81,9.81,0,0,0-5,13.87l4.42,8a9.81,9.81,0,0,0,9.29,5.06l13.45-1a9.81,9.81,0,0,1,6.08,1.59l94.32,62a9.81,9.81,0,0,1,4,11.2l-.56,1.74a9.81,9.81,0,0,0,4.29,11.42l7.6,4.57a9.81,9.81,0,0,0,13.92-4.2l1.41-3a9.81,9.81,0,0,1,9.29-5.59h0a9.81,9.81,0,0,0,10-12.16l-.82-3.33a9.81,9.81,0,0,0-11.54-7.25l-.58.12A9.81,9.81,0,0,1,514.05,678.85Z"/></clipPath><clipPath id="clip-path-10"><path id="_Clipping_Path_10" data-name="&lt;Clipping Path&gt;" class="cls-1" d="M540.4,278.46l107.79,41.08a313.4,313.4,0,0,0,93.91,20l93.68,5.3a8.34,8.34,0,0,0,8.61-10.13l-12.26-55.16a48.25,48.25,0,0,0-33.41-35.8l-27.54-3.71c-36.41-3.67-59.7-34.32-100.45-41.55s-91,13.82-91,13.82Z"/></clipPath><clipPath id="clip-path-11"><path id="_Clipping_Path_11" data-name="&lt;Clipping Path&gt;" class="cls-1" d="M532,262l35.28,109.33A41.09,41.09,0,0,0,604,399.71L820.67,412a26.64,26.64,0,0,0,27.08-19.14l6.92-23.71a8.34,8.34,0,0,0-8.56-10.65s-218.19,32.74-241.29-80"/></clipPath></defs><title>GemMatch</title><ellipse class="cls-2" cx="498.74" cy="808.07" rx="251.35" ry="46.93"/><path id="_Clipping_Path_12" data-name="&lt;Clipping Path&gt;" class="cls-1" d="M133.05,630.78c9.09,9.13,4.65,40.63-14.92,41.1-12.31.3-78.87-38.14-74.38-46.23S121.17,618.83,133.05,630.78Z"/><g class="cls-3"><path class="cls-4" d="M133.05,641.89c9.09,9.13,4.65,40.63-14.92,41.1-12.31.3-78.87-38.14-74.38-46.23S121.17,629.95,133.05,641.89Z"/></g><path class="cls-5" d="M139.1,667.93s-27.07.29-36-8.67c-6.82-6.85-3.49-30.47,11.19-30.83,9.23-.22,27.85,11.4,27.85,11.4Z"/><path id="_Clipping_Path_13" data-name="&lt;Clipping Path&gt;" class="cls-1" d="M159.61,679.17s-36.09.39-48-11.55c-9.09-9.13-4.65-40.63,14.92-41.1,12.31-.3,37.13,15.2,37.13,15.2Z"/><g class="cls-6"><path class="cls-4" d="M156.83,695.84s-36.09.39-48-11.55c-9.09-9.13-4.65-40.63,14.92-41.1,12.31-.3,37.13,15.2,37.13,15.2Z"/></g><path class="cls-5" d="M169.66,676.26s-27.07.29-36-8.67c-6.82-6.85-3.49-30.47,11.19-30.83,9.23-.22,27.85,11.4,27.85,11.4Z"/><path id="_Clipping_Path_14" data-name="&lt;Clipping Path&gt;" class="cls-1" d="M202.9,679.55s-39,9.2-54.83-.86C136,671,133.15,635.77,154.26,630.5c13.27-3.31,43.95,7.45,43.95,7.45Z"/><g class="cls-7"><path class="cls-4" d="M200.13,696.22s-39,9.2-54.83-.86c-12.08-7.69-14.92-42.92,6.19-48.19,13.27-3.31,43.95,7.45,43.95,7.45Z"/></g><path class="cls-5" d="M213.09,674s-29.28,6.9-41.12-.64c-9.06-5.77-11.19-32.19,4.64-36.14,10-2.49,33,5.59,33,5.59Z"/><path id="_Clipping_Path_15" data-name="&lt;Clipping Path&gt;" class="cls-1" d="M249.34,674.53s-41.11,17.19-60.25,9c-14.64-6.23-24.17-44.33-2-54,13.94-6,49.53.16,49.53.16Z"/><g class="cls-8"><path class="cls-4" d="M249.34,696.76s-41.11,17.19-60.25,9c-14.64-6.23-24.17-44.33-2-54,13.94-6,49.53.16,49.53.16Z"/></g><path class="cls-5" d="M259.49,666.54s-30.83,12.89-45.19,6.78c-11-4.67-18.13-33.25-1.49-40.46,10.46-4.54,37.15.12,37.15.12Z"/><path id="_Clipping_Path_16" data-name="&lt;Clipping Path&gt;" class="cls-1" d="M299,660s-42.64,25.17-64.95,19.1C216.95,674.48,200.67,634,223.62,620c14.43-8.77,54.54-7.34,54.54-7.34Z"/><g class="cls-9"><path class="cls-4" d="M304.51,685s-42.64,25.17-64.95,19.1C222.51,699.48,206.23,659,229.17,645c14.43-8.77,54.54-7.34,54.54-7.34Z"/></g><path class="cls-5" d="M308.91,649.68s-32,18.88-48.71,14.33c-12.79-3.48-25-33.84-7.79-44.31,10.82-6.58,40.9-5.51,40.9-5.51Z"/><path id="_Clipping_Path_17" data-name="&lt;Clipping Path&gt;" class="cls-1" d="M342.95,625.55s-30.51,39-53.5,41.49c-17.57,1.91-47.51-29.84-31.23-51.21,10.23-13.43,48.1-26.74,48.1-26.74Z"/><g class="cls-10"><path class="cls-4" d="M348.51,653.34s-30.51,39-53.5,41.49c-17.57,1.91-47.51-29.84-31.23-51.21,10.23-13.43,48.1-26.74,48.1-26.74Z"/></g><path class="cls-5" d="M348.44,612.3s-22.89,29.24-40.12,31.11C295.14,644.84,272.69,621,284.89,605c7.67-10.07,36.07-20.06,36.07-20.06Z"/><path id="_Clipping_Path_18" data-name="&lt;Clipping Path&gt;" class="cls-1" d="M376.29,597.77s-30.51,39-53.5,41.49c-17.57,1.91-47.51-29.84-31.23-51.21,10.23-13.43,48.1-26.74,48.1-26.74Z"/><g class="cls-11"><path class="cls-4" d="M381.85,625.55s-30.51,39-53.5,41.49c-17.57,1.91-47.51-29.84-31.23-51.21,10.23-13.43,48.1-26.74,48.1-26.74Z"/></g><ellipse class="cls-4" cx="408.76" cy="586.99" rx="67.07" ry="92.49" transform="translate(-281.78 773.54) rotate(-70.27)"/><ellipse class="cls-5" cx="384.74" cy="599.95" rx="35.89" ry="49.5" transform="translate(-309.89 759.5) rotate(-70.27)"/><path id="_Clipping_Path_19" data-name="&lt;Clipping Path&gt;" class="cls-1" d="M602.9,620.9,476,583.47a9.81,9.81,0,0,1-5.62-4.34l-8.84-14.64a9.81,9.81,0,0,0-11.21-4.33l-5.42,1.62A9.81,9.81,0,0,0,438,572.85l1,5.72a9.81,9.81,0,0,1-3.47,9.27l-2.26,1.84a9.81,9.81,0,0,0-.54,14.74l6.66,6.29a9.81,9.81,0,0,0,10.4,2l12.51-5a9.81,9.81,0,0,1,6.28-.35l109.29,30.13c4.25,1.18,7.72,5,7.72,9.46v1.83c0,4.56,2.61,8.52,7.05,9.56l8.37,2A9.69,9.69,0,0,0,612.87,652l.37-2.33c.52-3.91,3.24-7.25,7-7.25h0c6.32,0,9.2-10,5.76-15.54l-1.8-3.38A9.88,9.88,0,0,0,611,620l-.51.18A9.78,9.78,0,0,1,602.9,620.9Z"/><g class="cls-12"><path class="cls-4" d="M602.9,632,476,594.58a9.81,9.81,0,0,1-5.62-4.34l-8.84-14.64a9.81,9.81,0,0,0-11.21-4.33l-5.42,1.62A9.81,9.81,0,0,0,438,584l1,5.72a9.81,9.81,0,0,1-3.47,9.27l-2.26,1.84a9.81,9.81,0,0,0-.54,14.74l6.66,6.29a9.81,9.81,0,0,0,10.4,2l12.51-5a9.81,9.81,0,0,1,6.28-.35l109.29,30.13c4.25,1.18,7.72,5,7.72,9.46v1.83c0,4.56,2.61,8.52,7.05,9.56l8.37,2a9.69,9.69,0,0,0,11.83-8.26l.37-3.13c.52-3.91,3.24-8.05,7-8.05h0c6.32,0,9.2-9.16,5.76-14.73l-1.8-3a9.82,9.82,0,0,0-13.21-3.4l-.51.28A9.81,9.81,0,0,1,602.9,632Z"/></g><path id="_Clipping_Path_20" data-name="&lt;Clipping Path&gt;" class="cls-1" d="M514.05,678.85,404.69,604.37a9.81,9.81,0,0,1-4-5.85l-3.94-16.64a9.81,9.81,0,0,0-9.35-7.55l-5.65-.11a9.81,9.81,0,0,0-9.91,8.43L371,588.4a9.81,9.81,0,0,1-6.14,7.76l-2.72,1.06a9.81,9.81,0,0,0-5,13.87l4.42,8a9.81,9.81,0,0,0,9.29,5.06l13.45-1a9.81,9.81,0,0,1,6.08,1.59l94.32,62a9.81,9.81,0,0,1,4,11.2l-.56,1.74a9.81,9.81,0,0,0,4.29,11.42l7.6,4.57a9.81,9.81,0,0,0,13.92-4.2l1.41-3a9.81,9.81,0,0,1,9.29-5.59h0a9.81,9.81,0,0,0,10-12.16l-.82-3.33a9.81,9.81,0,0,0-11.54-7.25l-.58.12A9.81,9.81,0,0,1,514.05,678.85Z"/><g class="cls-13"><path id="_Path_" data-name="&lt;Path&gt;" class="cls-4" d="M361.53,633a9.81,9.81,0,0,0,9.29,5.06l13.45-1a9.81,9.81,0,0,1,6.08,1.59l94.32,62a9.81,9.81,0,0,1,4,11.2l-.56,1.74A9.81,9.81,0,0,0,492.36,725l7.6,4.57a9.81,9.81,0,0,0,13.92-4.2l1.41-3a9.81,9.81,0,0,1,9.29-5.59h0a9.81,9.81,0,0,0,10-12.16l-.82-3.33a9.81,9.81,0,0,0-11.54-7.25l-.58.12a9.81,9.81,0,0,1-7.54-1.49l-74.39-53.41,37.14-5.26L376.29,557.84s-47.44,63.39-46.4,63S361.53,633,361.53,633Z"/></g><path class="cls-14" d="M636.88,463.81a7,7,0,0,1-9.67-.44,20.19,20.19,0,0,1,.68-29l0,0a7,7,0,0,1,9.67.42,6.61,6.61,0,0,1-.24,9.47,7,7,0,0,0-.21,10.08,6.55,6.55,0,0,1-.25,9.45Z"/><path class="cls-15" d="M618.72,507a50.05,50.05,0,0,1-36.16,12.71,52.21,52.21,0,0,1-35.48-16.17L537.93,494a19.72,19.72,0,0,1,.75-28.38l.07-.06a21,21,0,0,1,29,1.32l9.16,9.59a10.14,10.14,0,0,0,6.85,3.15,9.36,9.36,0,0,0,6.74-2.36l0,0,19.33-17.54.06-.05a21,21,0,0,1,29,1.33,19.73,19.73,0,0,1-.77,28.38l-19.31,17.53Z"/><path class="cls-14" d="M655.07,473.19a18.77,18.77,0,0,1-26-1.19,17.68,17.68,0,0,1,.67-25.43l15.08-13.68.06-.05a18.78,18.78,0,0,1,26,1.2,17.68,17.68,0,0,1-.67,25.44l-15.07,13.67Z"/><path class="cls-1" d="M645.87,487.13a8.37,8.37,0,0,1-11.57-.53l-22-23a7.84,7.84,0,0,1,.31-11.3l0,0a8.35,8.35,0,0,1,11.56.52l22,23a7.86,7.86,0,0,1-.29,11.31Z"/><path class="cls-16" d="M517.49,385.9c-24.57,13.2-43.1,41.32-5.49,58.83,33,15.37,53.09-20.45,53.09-20.45,2.57,26.82,14,177.16-73.56,196.61-96.38,21.42-171.42-50.82-165.32-93.77C349.82,360.67,517.49,385.9,517.49,385.9Z"/><ellipse class="cls-14" cx="516.35" cy="437.35" rx="46.1" ry="63.57" transform="translate(-160.32 441.27) rotate(-40.6)"/><path class="cls-4" d="M584.68,414.39s-30.51,39-53.5,41.49c-17.57,1.91-47.51-29.84-31.23-51.21,10.23-13.43,48.1-26.74,48.1-26.74Z"/><path class="cls-5" d="M590.17,401.13S567.29,430.38,550,432.25c-13.18,1.43-35.63-22.38-23.42-38.41,7.67-10.07,36.07-20.06,36.07-20.06Z"/><path class="cls-4" d="M618,386.6s-30.51,39-53.5,41.49C546.95,430,517,398.25,533.29,376.88c10.23-13.43,48.1-26.74,48.1-26.74Z"/><path class="cls-5" d="M573.49,330.23s-14.29,49-.18,62.9,78.34-.87,78.34-.87Z"/><path class="cls-5" d="M678.64,299.83c62.53,9,182.56,45.07,176,69.27C850,386.36,622.35,381,622.35,381L577.43,278.66S616.1,290.83,678.64,299.83Z"/><path id="_Clipping_Path_21" data-name="&lt;Clipping Path&gt;" class="cls-1" d="M540.4,278.46l107.79,41.08a313.4,313.4,0,0,0,93.91,20l93.68,5.3a8.34,8.34,0,0,0,8.61-10.13l-12.26-55.16a48.25,48.25,0,0,0-33.41-35.8l-27.54-3.71c-36.41-3.67-59.7-34.32-100.45-41.55s-91,13.82-91,13.82Z"/><g class="cls-17"><path class="cls-4" d="M482.48,299.28l107.79,41.08a313.4,313.4,0,0,0,93.91,20l93.68,5.3a8.34,8.34,0,0,0,8.61-10.13l-12.26-55.16a48.25,48.25,0,0,0-33.41-35.8l-27.54-3.71c-36.41-3.67-59.7-34.32-100.45-41.55s-91,13.82-91,13.82Z"/></g><path class="cls-1" d="M648.83,387.52a8.79,8.79,0,0,1-14.25-7.15,132.7,132.7,0,0,1,4-29.16,168.62,168.62,0,0,1,6.87-20.61,7,7,0,0,1,13.13.26,91.9,91.9,0,0,1,5,21.28c1,9.8,1.43,20.79,1.55,29.39a8.8,8.8,0,0,1-13.08,7.83l-3.29-1.83Z"/><path class="cls-1" d="M669.67,387.52a8.79,8.79,0,0,1-14.25-7.15,132.7,132.7,0,0,1,4-29.16,168.61,168.61,0,0,1,6.87-20.61,7,7,0,0,1,13.13.26,91.88,91.88,0,0,1,5,21.28c1,9.8,1.43,20.79,1.55,29.39A8.8,8.8,0,0,1,673,389.36l-3.29-1.83Z"/><path class="cls-1" d="M691.44,381a8.79,8.79,0,0,1-14.25-7.15,132.7,132.7,0,0,1,4-29.16,168.62,168.62,0,0,1,6.87-20.61,7,7,0,0,1,13.13.26,91.9,91.9,0,0,1,5,21.28c1,9.8,1.43,20.79,1.55,29.39a8.8,8.8,0,0,1-13.08,7.83L691.44,381Z"/><path class="cls-1" d="M824.31,371.41a168.66,168.66,0,0,1,6.87-20.61,7,7,0,0,1,13.13.26,91.88,91.88,0,0,1,5,21.28C850.37,382.13,821.56,381.71,824.31,371.41Z"/><path class="cls-1" d="M804.86,371.41a168.66,168.66,0,0,1,6.87-20.61,7,7,0,0,1,13.13.26,91.88,91.88,0,0,1,5,21.28C830.92,382.13,802.11,381.71,804.86,371.41Z"/><path class="cls-1" d="M782.63,371.41a168.66,168.66,0,0,1,6.87-20.61,7,7,0,0,1,13.13.26,91.88,91.88,0,0,1,5,21.28C808.7,382.13,779.88,381.71,782.63,371.41Z"/><path id="_Clipping_Path_22" data-name="&lt;Clipping Path&gt;" class="cls-1" d="M532,262l35.28,109.33A41.09,41.09,0,0,0,604,399.71L820.67,412a26.64,26.64,0,0,0,27.08-19.14l6.92-23.71a8.34,8.34,0,0,0-8.56-10.65s-218.19,32.74-241.29-80"/><g class="cls-18"><path class="cls-4" d="M504.18,250.87,539.46,388a41.09,41.09,0,0,0,36.78,28.4l216.64,12.24A26.64,26.64,0,0,0,820,409.49l6.92-23.71a8.34,8.34,0,0,0-8.56-10.65s-187.63,16.06-210.73-96.67"/></g><path class="cls-5" d="M815.73,325.72a8.79,8.79,0,0,0,13.5-8.48,132.71,132.71,0,0,0-6.8-28.64,168.61,168.61,0,0,0-8.81-19.86,7,7,0,0,0-13,1.51,91.92,91.92,0,0,0-3,21.66c-.1,9.85.56,20.83,1.26,29.4a8.8,8.8,0,0,0,13.77,6.54l3.1-2.14Z"/><path class="cls-4" d="M766.46,299.38c5.86-4.63,13,26,10.21,36.31a168.6,168.6,0,0,1-6.87,20.61,7,7,0,0,1-13.13-.26,91.89,91.89,0,0,1-5-21.28c-1-9.8-1.43-20.78-1.55-29.39a8.8,8.8,0,0,1,13.08-7.83l3.29,1.83Z"/><path class="cls-4" d="M745.62,299.38a8.79,8.79,0,0,1,14.25,7.15,132.69,132.69,0,0,1-4,29.16A168.61,168.61,0,0,1,749,356.3a7,7,0,0,1-13.13-.26,91.88,91.88,0,0,1-5-21.28c-1-9.8-1.43-20.78-1.55-29.39a8.8,8.8,0,0,1,13.08-7.83l3.29,1.83Z"/><path class="cls-4" d="M723.85,294.75a8.79,8.79,0,0,1,14.25,7.15,132.7,132.7,0,0,1-4,29.16,168.6,168.6,0,0,1-6.87,20.61,7,7,0,0,1-13.13-.26,91.89,91.89,0,0,1-5-21.28c-1-9.8-1.43-20.78-1.55-29.39a8.8,8.8,0,0,1,13.08-7.83l3.29,1.83Z"/><circle class="cls-5" cx="660.33" cy="246.71" r="15.28"/><path class="cls-16" d="M678.52,171.55s-220.77-105-241.26,109.38c0,0,104-91.33,91.89-38.17Z"/><path class="cls-1" d="M688.7,186.56a11,11,0,0,1-4.61,14.89l-145.5,76.7a11,11,0,0,1-14.89-4.61l-9.42-17.87a11,11,0,0,1,4.61-14.89l145.5-76.7a11,11,0,0,1,14.89,4.61Z"/><path class="cls-1" d="M423.64,289.84a17.74,17.74,0,1,0,7.41-24A17.73,17.73,0,0,0,423.64,289.84Z"/><g class="cls-2"><path class="cls-19" d="M554.5,556.89h0a10.49,10.49,0,0,1-10.38-9.38l-1.54-14c-1.32-11.23-11.32-19.38-22.38-19.38h-.09c-11.08,4.75-19,11.71-17.69,23l1.55,13.54a52.64,52.64,0,0,0,18.58,34.46c3.9,3.24,12.66,8.26,12.66,8.26C550.09,574.39,554.5,556.89,554.5,556.89Z"/></g><path class="cls-14" d="M605.09,567.81c-3.69.32-7-.59-7.46-4.31-1.34-11.49,6.74-20.87,18-20.87h0c3.68,0,7,.57,7.47,4.3s-2.21,6.14-5.9,6.49a6.61,6.61,0,0,0-6.24,7.45,6.34,6.34,0,0,1-5.89,7.17A1.37,1.37,0,0,1,605.09,567.81Z"/><path class="cls-16" d="M564.59,591.34a50.05,50.05,0,0,1-36.52-11.63,52.21,52.21,0,0,1-18.58-34.27l-1.55-13.16a19.72,19.72,0,0,1,17.69-22.21h.09a21,21,0,0,1,22.38,18.54l1.54,13.17a12.61,12.61,0,0,0,3.57,7.42c1.14.94,3.5,3,6.8,3h0L586,549s0-.39.08-.4A20.82,20.82,0,0,1,608.5,567a19.64,19.64,0,0,1-17.7,22.1l-26,2.32C564.74,591.38,564.66,591.33,564.59,591.34Z"/><path class="cls-16" d="M587.63,559.23s-.05,0-.08,0l-26,2.38h0a10.83,10.83,0,0,1-6.8-2.2,10.17,10.17,0,0,1-3.57-6.65l-1.05-9a13.9,13.9,0,0,0,3.12,5.41c1.13.94,3.5,3,6.8,3h0L586,549s0-.4.08-.4A20.82,20.82,0,0,1,608.5,567a19.84,19.84,0,0,1-.06,5.06A20.94,20.94,0,0,0,587.63,559.23Z"/><path class="cls-14" d="M614,586.25a18.77,18.77,0,0,1-20-16.61,17.68,17.68,0,0,1,15.85-19.9l20.28-1.84h.07a18.78,18.78,0,0,1,20,16.62,17.68,17.68,0,0,1-15.86,19.9l-20.27,1.83Z"/><path class="cls-1" d="M598.23,591.84a8.37,8.37,0,0,1-8.92-7.4l-3.69-32.27c-.53-4.47,2.63-9.54,7.05-9.54h0a9.27,9.27,0,0,1,8.92,8.09l3.69,31.91a8,8,0,0,1-7,9S598.24,591.84,598.23,591.84Z"/><path class="cls-4" d="M511.67,711.18,456.1,819s49.43-.67,46.84,18.35H414.42L488.35,700Z"/><path class="cls-4" d="M457.41,825.7s40.74,5.38,35.49,24.28l-78.48-12.6"/><path class="cls-4" d="M611.7,655.61,556.13,762.73s49.43,3.34,46.84,17.61H514.45l73.93-136.65Z"/><path class="cls-4" d="M554.66,770.13s40.74,5.38,35.49,24.28l-75.7-14.08"/></svg>