<svg xmlns="http://www.w3.org/2000/svg" xmlns:xlink="http://www.w3.org/1999/xlink" viewBox="0 0 150.61 300"><defs><style>.cls-1,.cls-10,.cls-11,.cls-5,.cls-6,.cls-7,.cls-8,.cls-9{fill:none;}.cls-2{fill:#f2faff;}.cls-3{fill:#ebf5fc;}.cls-4{clip-path:url(#clip-path);}.cls-5{stroke:#ffd9e5;}.cls-10,.cls-11,.cls-5,.cls-6,.cls-7,.cls-8,.cls-9{stroke-linecap:round;stroke-miterlimit:10;stroke-width:5.96px;}.cls-6{stroke:#99eaff;}.cls-7{stroke:#a4f5ce;}.cls-8{stroke:#e8aef2;}.cls-9{stroke:#ff7c73;}.cls-10{stroke:#f5b282;}.cls-11{stroke:#f9ed7f;}.cls-12{fill:#74e2ab;}.cls-13{fill:#a4f5ce;}</style><clipPath id="clip-path"><rect class="cls-1" x="8.48" y="77.46" width="132.02" height="214.8" transform="translate(148.99 369.72) rotate(-180)"/></clipPath></defs><title>spray_sprinkles</title><g id="Layer_2" data-name="Layer 2"><g id="ART"><rect class="cls-2" x="8.48" y="77.46" width="132.02" height="214.8" transform="translate(148.99 369.72) rotate(-180)"/><rect class="cls-3" x="8.48" y="77.46" width="55.58" height="214.8" transform="translate(72.55 369.72) rotate(-180)"/><g class="cls-4"><line class="cls-5" x1="109.73" y1="117.27" x2="112.17" y2="128.95"/><line class="cls-6" x1="118.72" y1="158.6" x2="129.33" y2="153.13"/><line class="cls-7" x1="147.63" y1="74.54" x2="136.08" y2="71.56"/><line class="cls-8" x1="144.69" y1="104.99" x2="136.31" y2="113.48"/><line class="cls-5" x1="22.13" y1="74.96" x2="20.32" y2="86.76"/><line class="cls-6" x1="14.4" y1="115.34" x2="26.25" y2="113.94"/><line class="cls-9" x1="86.8" y1="153.93" x2="96.86" y2="147.5"/><line class="cls-6" x1="97.55" y1="106.45" x2="88.31" y2="98.9"/><line class="cls-8" x1="78.33" y1="132.67" x2="79.32" y2="120.78"/><line class="cls-10" x1="121.68" y1="84.22" x2="109.94" y2="82.08"/><line class="cls-7" x1="44.3" y1="98.05" x2="56.22" y2="98.6"/><line class="cls-11" x1="40.32" y1="132.28" x2="50.22" y2="125.62"/><line class="cls-7" x1="54.7" y1="39.34" x2="44.92" y2="32.5"/><line class="cls-5" x1="19.49" y1="269.95" x2="21.94" y2="281.62"/><line class="cls-10" x1="106.82" y1="283.06" x2="95.08" y2="285.18"/><line class="cls-7" x1="14.54" y1="244.38" x2="2.98" y2="241.41"/><line class="cls-9" x1="51.67" y1="285.28" x2="48.77" y2="296.86"/><line class="cls-8" x1="62.24" y1="253.95" x2="53.87" y2="262.44"/><line class="cls-5" x1="84.47" y1="204.29" x2="86.92" y2="215.97"/><line class="cls-6" x1="86.53" y1="253.95" x2="97.14" y2="248.48"/><line class="cls-10" x1="146.37" y1="216.08" x2="134.63" y2="218.2"/><line class="cls-7" x1="116.63" y1="251.77" x2="120.16" y2="240.38"/><line class="cls-11" x1="127.15" y1="275.79" x2="134.08" y2="266.07"/><line class="cls-7" x1="103.63" y1="183.58" x2="92.08" y2="180.61"/><line class="cls-9" x1="132.29" y1="180.23" x2="129.38" y2="191.81"/><line class="cls-8" x1="115.15" y1="210.33" x2="106.77" y2="218.83"/><line class="cls-5" x1="66.29" y1="150.62" x2="54.84" y2="147.23"/><line class="cls-6" x1="20.72" y1="142.32" x2="20.5" y2="154.25"/><line class="cls-6" x1="27.29" y1="221.2" x2="36.02" y2="213.07"/><line class="cls-8" x1="4.55" y1="201.81" x2="16.2" y2="204.4"/><line class="cls-10" x1="37.06" y1="252.82" x2="40.77" y2="241.48"/><line class="cls-7" x1="33.81" y1="174.28" x2="31.66" y2="186.02"/><line class="cls-9" x1="68.89" y1="227.55" x2="60.08" y2="219.51"/><line class="cls-8" x1="61.56" y1="189.98" x2="58.06" y2="178.57"/></g><rect class="cls-12" x="4.55" y="292.26" width="139.29" height="7.74"/><path class="cls-12" d="M13.05,70.23a65.31,65.31,0,0,1,6.27-12.09A39.51,39.51,0,0,1,47.37,40.78V32.21H101v8.56A38.82,38.82,0,0,1,128.31,57a65.52,65.52,0,0,1,7,13.21h8.5V78H4.55V70.23Z"/><polygon class="cls-13" points="77.57 29.33 88.27 29.33 88.27 0 60.91 0 60.91 29.33 70.82 29.33 70.82 32.21 77.57 32.21 77.57 29.33"/></g></g></svg>