<svg xmlns="http://www.w3.org/2000/svg" viewBox="0 55.8 150 150" enable-background="new 0 55.8 150 150"><circle opacity=".52" fill="#004365" enable-background="new" cx="75" cy="130.8" r="71.3"/><path fill="#fff" d="M75 205.8c-41.4 0-75-33.6-75-75s33.6-75 75-75 75 33.6 75 75-33.7 75-75 75zm0-142.7c-37.3 0-67.7 30.4-67.7 67.7s30.4 67.7 67.7 67.7 67.7-30.4 67.7-67.7S112.3 63.1 75 63.1zM92.6 135.7H55.4c-2.5 0-4.6-2-4.6-4.6 0-2.5 2-4.6 4.6-4.6h37.2c2.5 0 4.6 2 4.6 4.6 0 2.5-2 4.6-4.6 4.6zm-16.2 21c-1.2 0-2.3-.4-3.2-1.3-1.8-1.8-1.8-4.7 0-6.5l18.1-18.1-18.1-18.1c-1.8-1.8-1.8-4.7 0-6.5 1.8-1.8 4.7-1.8 6.5 0l24.6 24.6-24.5 24.6c-1.1.8-2.2 1.3-3.4 1.3z"/></svg>