<?xml version="1.0" encoding="utf-8"?>
<!-- Generator: Adobe Illustrator 18.0.0, SVG Export Plug-In . SVG Version: 6.00 Build 0)  -->
<!DOCTYPE svg PUBLIC "-//W3C//DTD SVG 1.1//EN" "http://www.w3.org/Graphics/SVG/1.1/DTD/svg11.dtd">
<svg version="1.1" id="Layer_1" xmlns="http://www.w3.org/2000/svg" xmlns:xlink="http://www.w3.org/1999/xlink" x="0px" y="0px"
	 viewBox="0 30 150 201.6" enable-background="new 0 30 150 201.6" xml:space="preserve">
<g id="HOUSE12-FLIGHT">
	
		<radialGradient id="SVGID_1_" cx="-1431.0374" cy="155.306" r="102.5717" gradientTransform="matrix(-0.7557 0 0 -0.7557 -1006.0362 227.654)" gradientUnits="userSpaceOnUse">
		<stop  offset="0" style="stop-color:#DE4A3F"/>
		<stop  offset="0.65" style="stop-color:#D43E30"/>
		<stop  offset="0.9283" style="stop-color:#CE392E"/>
		<stop  offset="1" style="stop-color:#CB372D"/>
	</radialGradient>
	<path fill="url(#SVGID_1_)" d="M0.8,105c0-41.4,32.8-75,74.2-75c41.4,0,75,33.6,75,75c0,22.1-9.6,42-24.8,55.7h0
		C119,166.9,88,187.6,88,190.6c-4.8,0-13,0-13,0s-8.3,0-13,0c0-3-30.2-23.7-36.4-29.9h0C10.3,147,0.8,127.1,0.8,105z"/>
	
		<linearGradient id="SVGID_2_" gradientUnits="userSpaceOnUse" x1="49.6205" y1="52.962" x2="49.6205" y2="255.7008" gradientTransform="matrix(0.7557 0 0 -0.7557 0 227.654)">
		<stop  offset="0" style="stop-color:#FFD918"/>
		<stop  offset="0.65" style="stop-color:#FFFFFF"/>
	</linearGradient>
	<path fill="url(#SVGID_2_)" d="M0,105c0-41.4,33.6-75,75-75c-31.6,0-57.3,33.6-57.3,75c0,22.1,7.3,42,18.9,55.7h0
		c4.8,6.2,28.4,26.9,28.4,29.9c-1.1,0-2.2,0-3.1,0c0-3-31-23.7-37.2-29.9h0C9.6,147,0,127.1,0,105z"/>
	
		<linearGradient id="SVGID_3_" gradientUnits="userSpaceOnUse" x1="137.141" y1="52.962" x2="137.141" y2="255.7008" gradientTransform="matrix(0.7557 0 0 -0.7557 0 227.654)">
		<stop  offset="0" style="stop-color:#FFD918"/>
		<stop  offset="0.65" style="stop-color:#FFFFFF"/>
	</linearGradient>
	<path fill="url(#SVGID_3_)" d="M95.5,160.7c6.2-13.7,10.1-33.6,10.1-55.7c0-41.4-13.7-75-30.7-75c31.6,0,57.3,33.6,57.3,75
		c0,22.1-7.3,42-18.9,55.7h0c-4.8,6.2-28.4,26.9-28.4,29.9c-1.5,0-3.1,0-4.6,0C80.3,187.6,93,166.9,95.5,160.7L95.5,160.7z"/>
	
		<linearGradient id="SVGID_4_" gradientUnits="userSpaceOnUse" x1="78.9575" y1="52.962" x2="78.9575" y2="255.7008" gradientTransform="matrix(0.7557 0 0 -0.7557 0 227.654)">
		<stop  offset="0" style="stop-color:#FFD918"/>
		<stop  offset="0.65" style="stop-color:#FFFFFF"/>
	</linearGradient>
	<path fill="url(#SVGID_4_)" d="M54.5,160.7C48.3,147,44.3,127.1,44.3,105c0-41.4,13.7-75,30.7-75v160.6c0,0-2.4,0-5.3,0
		C69.7,187.6,57,166.9,54.5,160.7L54.5,160.7z"/>
	<path opacity="0.1" enable-background="new    " d="M0,105c0-13.2,3.4-25.5,9.4-36.3c3.8,53.7,48.5,96,103.1,96
		c2.8,0,5.6-0.1,8.4-0.3c-10.5,8.4-32.9,23.7-32.9,26.2c-4.8,0-13,0-13,0s-8.3,0-13,0c0-3-31-23.7-37.2-29.9h0
		C9.6,147,0,127.1,0,105z"/>
	<g>
		<path fill="#333333" d="M74.1,203.6c0,0.4-0.3,0.8-0.8,0.8h-0.6c-0.4,0-0.8-0.3-0.8-0.8V200c0-0.4,0.3-0.8,0.8-0.8h0.6
			c0.4,0,0.8,0.3,0.8,0.8V203.6z"/>
		<path fill="#333333" d="M73.3,204.8h-0.6c-0.6,0-1.1-0.5-1.1-1.1V200c0-0.6,0.5-1.1,1.1-1.1h0.6c0.6,0,1.1,0.5,1.1,1.1v3.7
			C74.5,204.2,74,204.8,73.3,204.8z M72.7,199.6c-0.2,0-0.4,0.2-0.4,0.4v3.7c0,0.2,0.2,0.4,0.4,0.4h0.6c0.2,0,0.4-0.2,0.4-0.4V200
			c0-0.2-0.2-0.4-0.4-0.4H72.7z"/>
	</g>
	<path fill="#F17C00" d="M78.5,195.7c0,1.1-0.6,2.1-1.5,2.6c-0.9-0.5-1.5-1.5-1.5-2.6c0-1.1,1-3.5,1.5-4
		C77.5,192.2,78.5,194.6,78.5,195.7z"/>
	<path fill="#F17C00" d="M74.5,195.7c0,1.1-0.6,2.1-1.5,2.6c-0.9-0.5-1.5-1.5-1.5-2.6c0-1.1,1-3.5,1.5-4
		C73.5,192.2,74.5,194.6,74.5,195.7z"/>
	<g>
		<path fill="#333333" d="M75.9,203.6c0,0.4,0.3,0.8,0.8,0.8h0.6c0.4,0,0.8-0.3,0.8-0.8V200c0-0.4-0.3-0.8-0.8-0.8h-0.6
			c-0.4,0-0.8,0.3-0.8,0.8V203.6z"/>
		<path fill="#333333" d="M77.3,204.8h-0.6c-0.6,0-1.1-0.5-1.1-1.1V200c0-0.6,0.5-1.1,1.1-1.1h0.6c0.6,0,1.1,0.5,1.1,1.1v3.7
			C78.4,204.2,77.9,204.8,77.3,204.8z M76.7,199.6c-0.2,0-0.4,0.2-0.4,0.4v3.7c0,0.2,0.2,0.4,0.4,0.4h0.6c0.2,0,0.4-0.2,0.4-0.4V200
			c0-0.2-0.2-0.4-0.4-0.4H76.7z"/>
	</g>
	<path fill="#4D4D4D" d="M84.4,212.7c-0.4,0-0.8-0.3-0.8-0.8v-9.4H66.3v9.4c0,0.4-0.3,0.8-0.8,0.8s-0.8-0.3-0.8-0.8v-9.4
		c0-0.8,0.7-1.5,1.5-1.5h17.3c0.8,0,1.5,0.7,1.5,1.5v9.4C85.2,212.4,84.8,212.7,84.4,212.7z"/>
	<path fill="#4D4D4D" d="M66.8,202.2c-0.1,0-0.3-0.1-0.3-0.2l-4.6-11.2c-0.1-0.2,0-0.4,0.2-0.5c0.2-0.1,0.4,0,0.5,0.2l4.6,11.2
		c0.1,0.2,0,0.4-0.2,0.5C66.9,202.2,66.8,202.2,66.8,202.2z"/>
	<path fill="#4D4D4D" d="M83.2,202.2c0,0-0.1,0-0.1,0c-0.2-0.1-0.3-0.3-0.2-0.5l4.6-11.2c0.1-0.2,0.3-0.3,0.5-0.2s0.3,0.3,0.2,0.5
		l-4.6,11.2C83.5,202.1,83.4,202.2,83.2,202.2z"/>
	<path fill="#4D4D4D" d="M70.1,202.2c-0.2,0-0.3-0.1-0.4-0.3l-1.8-11.2c0-0.2,0.1-0.4,0.3-0.4c0.2,0,0.4,0.1,0.4,0.3l1.8,11.2
		C70.5,201.9,70.3,202.1,70.1,202.2C70.1,202.2,70.1,202.2,70.1,202.2z"/>
	<path fill="#4D4D4D" d="M79.9,202.2C79.9,202.2,79.9,202.2,79.9,202.2c-0.3,0-0.4-0.2-0.4-0.4l1.8-11.2c0-0.2,0.2-0.3,0.4-0.3
		c0.2,0,0.3,0.2,0.3,0.4l-1.8,11.2C80.3,202,80.1,202.2,79.9,202.2z"/>
	<path fill="#28AE4B" d="M78.8,203.4c0,0,4.5-4.1,6.8-5.2c0,0-2,3.4-0.6,5L78.8,203.4z"/>
	<path fill="#FFDF8A" d="M79.1,206.2c0,1.7,1.4,3.1,3.1,3.1l0,0c1.7,0,3.1-1.4,3.1-3.1l0,0c0-1.7-1.4-3.1-3.1-3.1l0,0
		C80.5,203.2,79.1,204.5,79.1,206.2L79.1,206.2z"/>
	<path fill="#333333" d="M80.8,203.5c0.4-0.2,0.9-0.4,1.4-0.4c1.7,0,3.1,1.4,3.1,3.1c0,0.7-0.3,1.4-0.7,2
		C81.6,207.4,80.9,204.8,80.8,203.5z"/>
	<path fill="#FFDF8A" d="M81.3,207l1.6-2.3c0,0,0.6,3.6-1.4,3.1L81.3,207z"/>
	<path fill="#FFFFFF" d="M78.7,204.1c0,0.2,0.2,0.4,0.4,0.4h6.1c0.2,0,0.4-0.2,0.4-0.4v-0.7c0-0.2-0.2-0.4-0.4-0.4h-6.1
		c-0.2,0-0.4,0.2-0.4,0.4V204.1z"/>
	<circle fill="#333333" cx="80.3" cy="205.8" r="0.5"/>
	<path fill="#28AE4B" d="M79.3,216.6c0,1.7,1.4,3.1,3.1,3.1c1.7,0,3.1-1.4,3.1-3.1v-4.2c0-1.7-1.4-3.1-3.1-3.1s-3.1,1.4-3.1,3.1
		V216.6z"/>
	<polyline fill="#FFFFFF" points="81.7,219.9 81.7,223.7 83.3,223.7 83.3,219.9 	"/>
	<path fill="#28AE4B" d="M82.9,217.9c-1.1,0-1.2,0.5-1.2,1.1v2.3h1.6v-2.6L82.9,217.9z"/>
	<path fill="#333333" d="M83.4,223.4h-1.9c-0.6,1.2-2.2,1.2-2.4,0.3c0,0-0.9,1.7,3,1.4C83,225.1,83.7,224.3,83.4,223.4z"/>
	<rect x="79.3" y="215.1" fill="#333333" width="6.1" height="1.5"/>
	<rect x="79.1" y="214.9" fill="#FFD400" width="0.4" height="1.8"/>
	<circle fill="#FFFFFF" cx="86" cy="197.7" r="0.7"/>
	<circle fill="#FFDF8A" cx="82.3" cy="215.3" r="1.2"/>
	<path fill="#FFDF8A" d="M79.6,206.1l-2.9,0.8c-0.3,0-0.3,0.5,0.1,0.5h3.4L79.6,206.1z"/>
	<path fill="#333333" d="M85.9,208.5c0.5,0.5,1.2,0.7,1.8,0.5c0.1-0.6-0.1-1.3-0.6-1.8c-0.5-0.5-1.2-0.7-1.8-0.5
		C85.1,207.4,85.3,208.1,85.9,208.5z"/>
	<circle fill="#FFDF8A" cx="67.7" cy="214.1" r="1.2"/>
	<circle fill="#FFDF8A" cx="73.4" cy="214.1" r="1.2"/>
	<path fill="#B757C5" d="M68.2,203.4c0,0,2.5-5.3,4.8-6.3c0,0-1.2,4.9,0.1,6.5L68.2,203.4z"/>
	<path fill="#FFDF8A" d="M73.8,206.2c0,1.7-1.4,3.1-3.1,3.1l0,0c-1.7,0-3.1-1.4-3.1-3.1l0,0c0-1.7,1.4-3.1,3.1-3.1l0,0
		C72.4,203.2,73.8,204.5,73.8,206.2L73.8,206.2z"/>
	<path fill="#FFFFFF" d="M74.2,204.1c0,0.2-0.2,0.4-0.4,0.4h-6.1c-0.2,0-0.4-0.2-0.4-0.4v-0.7c0-0.2,0.2-0.4,0.4-0.4h6.1
		c0.2,0,0.4,0.2,0.4,0.4V204.1z"/>
	<circle fill="#333333" cx="69.4" cy="205.8" r="0.5"/>
	<circle fill="#333333" cx="71.9" cy="205.8" r="0.5"/>
	<path fill="#B757C5" d="M73.6,216.6c0,1.7-1.4,3.1-3.1,3.1c-1.7,0-3.1-1.4-3.1-3.1v-4.2c0-1.7,1.4-3.1,3.1-3.1
		c1.7,0,3.1,1.4,3.1,3.1V216.6z"/>
	<polyline fill="#FFFFFF" points="68.8,218.5 68.8,223.7 70.4,223.7 70.4,218.5 	"/>
	<polyline fill="#B757C5" points="68.8,218.5 68.8,221.3 70.4,221.3 70.4,218.5 	"/>
	<path fill="#333333" d="M70.5,223.4h-1.9c-0.6,1.2-2.2,1.2-2.4,0.3c0,0-0.9,1.7,3,1.4C70.1,225.1,70.8,224.3,70.5,223.4z"/>
	<polyline fill="#FFFFFF" points="72.7,218.5 72.7,223.7 71.1,223.7 71.1,218.5 	"/>
	<polyline fill="#B757C5" points="72.7,218.5 72.7,221.3 71.1,221.3 71.1,218.5 	"/>
	<path fill="#333333" d="M71,223.4h1.9c0.6,1.2,2.2,1.2,2.4,0.3c0,0,0.9,1.7-3,1.4C71.4,225.1,70.6,224.3,71,223.4z"/>
	<rect x="70.3" y="209.3" fill="#FFFFFF" width="0.6" height="8.2"/>
	<rect x="67.5" y="215.1" fill="#333333" width="6.1" height="1.5"/>
	<rect x="69.8" y="214.9" fill="#FFD400" width="1.6" height="1.8"/>
	<circle fill="#FFFFFF" cx="73.5" cy="196.5" r="0.7"/>
	<path fill="#FFDF8A" d="M67.6,205.6l-1-1.4c0,0-0.6,3.6,1.4,3.1L67.6,205.6z"/>
	<path fill="#FFDF8A" d="M73.5,205.6l1-1.4c0,0,0.6,3.6-1.4,3.1L73.5,205.6z"/>
	<polygon fill="#978475" points="84.6,231.6 65.4,231.6 63.5,212 86.5,212 	"/>
	<path fill="#EE3837" d="M64,216.5c-0.5,0.9-1,1.7-1.6,2.7c-0.7,1.3,0.1,2.8,1.6,2.8c1.4,0,2.3-1.5,1.6-2.8
		C64.9,218.2,64.4,217.3,64,216.5z"/>
	<path fill="#EE3837" d="M86,216.5c-0.5,0.9-1,1.7-1.6,2.7c-0.7,1.3,0.1,2.8,1.6,2.8c1.4,0,2.3-1.5,1.6-2.8
		C87,218.2,86.5,217.3,86,216.5z"/>
	<path fill="#EE3837" d="M75,216.5c-0.5,0.9-1,1.7-1.6,2.7c-0.7,1.3,0.1,2.8,1.6,2.8c1.4,0,2.3-1.5,1.6-2.8
		C76,218.2,75.5,217.3,75,216.5z"/>
	<path fill="#4D4D4D" d="M80.5,220.7c-2.3,0-4.7-2.6-5.5-3.6c-0.8,0.9-2.9,3.2-6.1,3.2c-1.9,0-3.3-1.8-4.2-2.9
		c-0.2-0.2-0.3-0.4-0.5-0.6c-0.1-0.2-0.1-0.4,0-0.5c0.2-0.1,0.4-0.1,0.5,0c0.1,0.2,0.3,0.4,0.5,0.6c0.8,1.1,2.1,2.7,3.7,2.7
		c3.6,0,5.7-3.2,5.8-3.2c0.1-0.1,0.2-0.2,0.3-0.2c0.1,0,0.2,0.1,0.3,0.2c0,0,2.7,3.6,5.2,3.6c2.5,0,5-3.6,5-3.6
		c0.1-0.2,0.4-0.2,0.5-0.1s0.2,0.4,0.1,0.5C86,216.9,83.3,220.7,80.5,220.7z"/>
	<g>
		<path fill="#EE3837" d="M62.7,215c-0.1,0-0.1,0-0.2,0c0,0.1,0,0.1,0,0.2c0,0.7,0.6,1.3,1.3,1.3c0.1,0,0.1,0,0.2,0
			c0-0.1,0-0.1,0-0.2C64,215.6,63.4,215,62.7,215z"/>
		<path fill="#D33E2F" d="M63.8,216.7c-0.8,0-1.5-0.7-1.5-1.5c0-0.1,0-0.1,0-0.2c0-0.1,0.1-0.2,0.2-0.2c0.1,0,0.1,0,0.2,0
			c0.8,0,1.5,0.7,1.5,1.5c0,0.1,0,0.1,0,0.2c0,0.1-0.1,0.2-0.2,0.2C63.9,216.7,63.8,216.7,63.8,216.7z M62.7,215.2
			C62.7,215.2,62.7,215.2,62.7,215.2c0,0.6,0.5,1.1,1.1,1.1c0,0,0,0,0,0c0,0,0,0,0,0C63.8,215.7,63.3,215.2,62.7,215.2
			C62.7,215.2,62.7,215.2,62.7,215.2z"/>
	</g>
	<g>
		<path fill="#EE3837" d="M65.2,215c0.1,0,0.1,0,0.2,0c0,0.1,0,0.1,0,0.2c0,0.7-0.6,1.3-1.3,1.3c-0.1,0-0.1,0-0.2,0
			c0-0.1,0-0.1,0-0.2C63.9,215.6,64.5,215,65.2,215z"/>
		<path fill="#D33E2F" d="M64.1,216.7c-0.1,0-0.1,0-0.2,0c-0.1,0-0.2-0.1-0.2-0.2c0-0.1,0-0.1,0-0.2c0-0.8,0.7-1.5,1.5-1.5
			c0.1,0,0.1,0,0.2,0c0.1,0,0.2,0.1,0.2,0.2c0,0.1,0,0.1,0,0.2C65.6,216,64.9,216.7,64.1,216.7z M64.1,216.3
			C64.1,216.3,64.1,216.3,64.1,216.3c0.6,0,1.1-0.5,1.1-1.1c0,0,0,0,0,0c0,0,0,0,0,0C64.6,215.2,64.1,215.7,64.1,216.3
			C64.1,216.3,64.1,216.3,64.1,216.3z"/>
	</g>
	<g>
		<path fill="#EE3837" d="M73.7,215c-0.1,0-0.1,0-0.2,0c0,0.1,0,0.1,0,0.2c0,0.7,0.6,1.3,1.3,1.3c0.1,0,0.1,0,0.2,0
			c0-0.1,0-0.1,0-0.2C75,215.6,74.4,215,73.7,215z"/>
		<path fill="#D33E2F" d="M74.8,216.7c-0.8,0-1.5-0.7-1.5-1.5c0-0.1,0-0.1,0-0.2c0-0.1,0.1-0.2,0.2-0.2c0.1,0,0.1,0,0.2,0
			c0.8,0,1.5,0.7,1.5,1.5c0,0.1,0,0.1,0,0.2c0,0.1-0.1,0.2-0.2,0.2C74.9,216.7,74.9,216.7,74.8,216.7z M73.7,215.2
			C73.7,215.2,73.7,215.2,73.7,215.2c0,0.6,0.5,1.1,1.1,1.1c0,0,0,0,0,0c0,0,0,0,0,0C74.8,215.7,74.3,215.2,73.7,215.2
			C73.7,215.2,73.7,215.2,73.7,215.2z"/>
	</g>
	<g>
		<path fill="#EE3837" d="M76.3,215c0.1,0,0.1,0,0.2,0c0,0.1,0,0.1,0,0.2c0,0.7-0.6,1.3-1.3,1.3c-0.1,0-0.1,0-0.2,0
			c0-0.1,0-0.1,0-0.2C75,215.6,75.6,215,76.3,215z"/>
		<path fill="#D33E2F" d="M75.2,216.7c-0.1,0-0.1,0-0.2,0c-0.1,0-0.2-0.1-0.2-0.2c0-0.1,0-0.1,0-0.2c0-0.8,0.7-1.5,1.5-1.5
			c0.1,0,0.1,0,0.2,0c0.1,0,0.2,0.1,0.2,0.2c0,0.1,0,0.1,0,0.2C76.6,216,76,216.7,75.2,216.7z M75.2,216.3
			C75.2,216.3,75.2,216.3,75.2,216.3c0.6,0,1.1-0.5,1.1-1.1c0,0,0,0,0,0c0,0,0,0,0,0C75.7,215.2,75.2,215.7,75.2,216.3
			C75.2,216.3,75.2,216.3,75.2,216.3z"/>
	</g>
	<g>
		<path fill="#EE3837" d="M84.8,215c-0.1,0-0.1,0-0.2,0c0,0.1,0,0.1,0,0.2c0,0.7,0.6,1.3,1.3,1.3c0.1,0,0.1,0,0.2,0
			c0-0.1,0-0.1,0-0.2C86.1,215.6,85.5,215,84.8,215z"/>
		<path fill="#D33E2F" d="M85.9,216.7c-0.8,0-1.5-0.7-1.5-1.5c0-0.1,0-0.1,0-0.2c0-0.1,0.1-0.2,0.2-0.2c0.1,0,0.1,0,0.2,0
			c0.8,0,1.5,0.7,1.5,1.5c0,0.1,0,0.1,0,0.2c0,0.1-0.1,0.2-0.2,0.2C86,216.7,85.9,216.7,85.9,216.7z M84.8,215.2
			C84.8,215.2,84.8,215.2,84.8,215.2c0,0.6,0.5,1.1,1.1,1.1c0,0,0,0,0,0c0,0,0,0,0,0C85.9,215.7,85.4,215.2,84.8,215.2
			C84.8,215.2,84.8,215.2,84.8,215.2z"/>
	</g>
	<g>
		<path fill="#EE3837" d="M87.3,215c0.1,0,0.1,0,0.2,0c0,0.1,0,0.1,0,0.2c0,0.7-0.6,1.3-1.3,1.3c-0.1,0-0.1,0-0.2,0
			c0-0.1,0-0.1,0-0.2C86,215.6,86.6,215,87.3,215z"/>
		<path fill="#D33E2F" d="M86.2,216.7c-0.1,0-0.1,0-0.2,0c-0.1,0-0.2-0.1-0.2-0.2c0-0.1,0-0.1,0-0.2c0-0.8,0.7-1.5,1.5-1.5
			c0.1,0,0.1,0,0.2,0c0.1,0,0.2,0.1,0.2,0.2c0,0.1,0,0.1,0,0.2C87.7,216,87,216.7,86.2,216.7z M86.2,216.3
			C86.2,216.3,86.2,216.3,86.2,216.3c0.6,0,1.1-0.5,1.1-1.1c0,0,0,0,0,0c0,0,0,0,0,0C86.7,215.2,86.2,215.7,86.2,216.3
			C86.2,216.3,86.2,216.3,86.2,216.3z"/>
	</g>
	<path fill="#4D4D4D" d="M86,217.2H64c-0.4,0-0.8-0.3-0.8-0.8c0-0.4,0.3-0.8,0.8-0.8H86c0.4,0,0.8,0.3,0.8,0.8
		C86.8,216.9,86.5,217.2,86,217.2z"/>
</g>
<g id="Layer_1_1_">
</g>
</svg>
