<?xml version="1.0" encoding="utf-8"?>
<!-- Generator: Adobe Illustrator 18.0.0, SVG Export Plug-In . SVG Version: 6.00 Build 0)  -->
<!DOCTYPE svg PUBLIC "-//W3C//DTD SVG 1.1//EN" "http://www.w3.org/Graphics/SVG/1.1/DTD/svg11.dtd">
<svg version="1.1" id="Layer_1" xmlns="http://www.w3.org/2000/svg" xmlns:xlink="http://www.w3.org/1999/xlink" x="0px" y="0px"
	 viewBox="44.5 142.3 597.7 684" enable-background="new 44.5 142.3 597.7 684" xml:space="preserve">
<g id="HOUSE12">
	<path fill="#FFFFFF" stroke="#FFFFFF" stroke-width="2" stroke-linejoin="round" stroke-miterlimit="10" d="M264.5,825.3
		c0-6.5,5.7-12.2,12.2-12.2c6.5,0,12.2,5.7,12.2,12.2H264.5z"/>
	<path fill="#FFFFFF" stroke="#FFFFFF" stroke-width="2" stroke-linejoin="round" stroke-miterlimit="10" d="M227,825.3
		c0-13,10.6-22.8,22.8-22.8c13,0,22.8,10.6,22.8,22.8H227z"/>
	<path fill="#FFFFFF" stroke="#FFFFFF" stroke-width="2" stroke-linejoin="round" stroke-miterlimit="10" d="M200.2,825.3
		c0-9,7.3-16.3,16.3-16.3c9,0,16.3,7.3,16.3,16.3H200.2z"/>
	<path fill="#333333" stroke="#333333" stroke-linecap="round" stroke-linejoin="round" stroke-miterlimit="10" d="M297.8,730.1
		c0,1.6-0.8,2.4-2.4,2.4h-2.4c-1.6,0-2.4-0.8-2.4-2.4v-12.2c0-1.6,0.8-2.4,2.4-2.4h2.4c1.6,0,2.4,0.8,2.4,2.4V730.1z"/>
	<path fill="#333333" stroke="#333333" stroke-linecap="round" stroke-linejoin="round" stroke-miterlimit="10" d="M304.3,730.1
		c0,1.6,0.8,2.4,2.4,2.4h2.4c1.6,0,2.4-0.8,2.4-2.4v-12.2c0-1.6-0.8-2.4-2.4-2.4h-2.4c-1.6,0-2.4,0.8-2.4,2.4V730.1z"/>
	<path fill="none" stroke="#4D4D4D" stroke-width="2" stroke-linecap="round" stroke-miterlimit="10" d="M269.3,758.6v-31.7
		c0-1.6,0.8-2.4,2.4-2.4h58.6c1.6,0,2.4,0.8,2.4,2.4v31.7"/>
	
		<radialGradient id="SVGID_1_" cx="-1394.3896" cy="1503.2692" r="102.8764" gradientTransform="matrix(-2.5546 0 0 -2.5546 -3261.0432 4254.9937)" gradientUnits="userSpaceOnUse">
		<stop  offset="0" style="stop-color:#DE4A3F"/>
		<stop  offset="0.65" style="stop-color:#D43E30"/>
		<stop  offset="0.9283" style="stop-color:#CE392E"/>
		<stop  offset="1" style="stop-color:#CB372D"/>
	</radialGradient>
	<path fill="url(#SVGID_1_)" d="M47.2,397.2c0-140,113.9-253.9,253.9-253.9S555,256.4,555,397.2c0,74.9-32.6,141.6-83.8,188l0,0
		c-21.2,21.2-125.3,91.1-125.3,100.9c-16.3,0-43.9,0-43.9,0s-27.7,0-43.9,0c0-9.8-105-79.8-125.3-100.9l0,0
		C79.7,538.8,47.2,472.1,47.2,397.2z"/>
	<path fill="#FFFFFF" d="M47.2,397.2c0-140,113.9-253.9,253.9-253.9c-106.6,0-193.7,113.9-193.7,253.9c0,74.9,24.4,141.6,64.3,188
		l0,0c16.3,21.2,96,91.1,96,100.9c-4.1,0-7.3,0-10.6,0c0-9.8-105-79.8-125.3-100.9l0,0C79.7,538.8,47.2,472.1,47.2,397.2z"/>
	<path fill="#FFFFFF" d="M370.3,585.2c21.2-46.4,34.2-113.9,34.2-188c0-140-46.4-253.9-103.4-253.9c106.6,0,193.7,113.9,193.7,253.9
		c0,74.9-24.4,141.6-64.3,188l0,0c-16.3,21.2-96,91.1-96,100.9c-4.9,0-10.6,0-15.5,0C319,676.4,362.1,606.4,370.3,585.2L370.3,585.2
		z"/>
	<path fill="#FFFFFF" d="M231.9,585.2c-21.2-46.4-34.2-113.9-34.2-188c0-140,46.4-253.9,103.4-253.9v542.8c0,0-8.1,0-17.9,0
		C283.2,676.4,240,606.4,231.9,585.2L231.9,585.2z"/>
	<polygon fill="#978475" points="333.6,825.3 268.5,825.3 262,758.6 340.1,758.6 	"/>
	<path fill="none" stroke="#808080" stroke-width="2" stroke-linecap="round" stroke-miterlimit="10" d="M47.2,817.2V397.2
		c0-140,113.9-253.9,253.9-253.9c123.7,0,226.2,88.7,249,205.9L638,809.8"/>
	<path fill="none" stroke="#808080" stroke-width="2" stroke-linecap="round" stroke-miterlimit="10" d="M471.2,809V397.2
		c0-140-74.1-253.9-165.2-253.9c-80.6,0-147.3,88.7-162,205.9l-57.8,468"/>
	<polygon fill="#4D4D4D" stroke="#4D4D4D" stroke-width="0.25" stroke-linejoin="round" stroke-miterlimit="10" points="50.4,825.3 
		47.2,825.3 44.7,792.7 52,792.7 	"/>
	
		<line fill="none" stroke="#808080" stroke-width="2" stroke-linecap="round" stroke-miterlimit="10" x1="45.5" y1="803.3" x2="51.2" y2="805.8"/>
	
		<line fill="none" stroke="#808080" stroke-width="2" stroke-linecap="round" stroke-miterlimit="10" x1="45.5" y1="810.7" x2="51.2" y2="813.9"/>
	<polygon fill="#4D4D4D" stroke="#4D4D4D" stroke-width="0.25" stroke-linejoin="round" stroke-miterlimit="10" points="87,825.3 
		83.8,825.3 82.2,792.7 89.5,792.7 	"/>
	
		<line fill="none" stroke="#808080" stroke-width="2" stroke-linecap="round" stroke-miterlimit="10" x1="83" y1="803.3" x2="88.7" y2="805.8"/>
	
		<line fill="none" stroke="#808080" stroke-width="2" stroke-linecap="round" stroke-miterlimit="10" x1="83" y1="810.7" x2="88.7" y2="813.9"/>
	<polygon fill="#4D4D4D" stroke="#4D4D4D" stroke-width="0.25" stroke-linejoin="round" stroke-miterlimit="10" points="
		472.8,825.3 469.5,825.3 467.1,792.7 474.4,792.7 	"/>
	
		<line fill="none" stroke="#808080" stroke-width="2" stroke-linecap="round" stroke-miterlimit="10" x1="467.9" y1="803.3" x2="473.6" y2="805.8"/>
	
		<line fill="none" stroke="#808080" stroke-width="2" stroke-linecap="round" stroke-miterlimit="10" x1="467.9" y1="810.7" x2="473.6" y2="813.9"/>
	<polygon fill="#4D4D4D" stroke="#4D4D4D" stroke-width="0.25" stroke-linejoin="round" stroke-miterlimit="10" points="
		639.6,825.3 636.4,825.3 634.8,792.7 642.1,792.7 	"/>
	
		<line fill="none" stroke="#808080" stroke-width="2" stroke-linecap="round" stroke-miterlimit="10" x1="635.6" y1="803.3" x2="641.3" y2="805.8"/>
	
		<line fill="none" stroke="#808080" stroke-width="2" stroke-linecap="round" stroke-miterlimit="10" x1="635.6" y1="810.7" x2="641.3" y2="813.9"/>
	<path opacity="0.1" enable-background="new    " d="M47.2,397.2c0-44.8,11.4-86.3,31.7-122.9c13,181.5,163.6,324.7,348.3,324.7
		c9.8,0,18.7,0,28.5-0.8C419.9,626.7,344.2,678,344.2,687c-16.3,0-43.9,0-43.9,0s-27.7,0-43.9,0c0-9.8-105-79.8-125.3-100.9l0,0
		C79.7,538.8,47.2,472.1,47.2,397.2z"/>
	<path fill="#EE3837" d="M263.6,774c-1.6,3.3-3.3,5.7-4.9,9c-2.4,4.1,0.8,9,4.9,9c4.1,0,7.3-4.9,4.9-9
		C266.9,779.7,265.3,776.5,263.6,774z"/>
	<path fill="#EE3837" d="M338.5,774c-1.6,3.3-3.3,5.7-4.9,9c-2.4,4.1,0.8,9,4.9,9c4.1,0,7.3-4.9,4.9-9
		C341.8,779.7,340.1,776.5,338.5,774z"/>
	<path fill="#EE3837" d="M301.1,774c-1.6,3.3-3.3,5.7-4.9,9c-2.4,4.1,0.8,9,4.9,9c4.9,0,7.3-4.9,4.9-9
		C304.3,779.7,302.7,776.5,301.1,774z"/>
	<path fill="none" stroke="#4D4D4D" stroke-linecap="round" stroke-linejoin="round" stroke-miterlimit="10" d="M265.3,774
		c3.3,3.3,8.1,11.4,14.6,11.4c13,0,20.3-11.4,20.3-11.4s9.8,13,18.7,13s17.9-13,17.9-13"/>
	
		<line fill="none" stroke="#4D4D4D" stroke-linecap="round" stroke-linejoin="round" stroke-miterlimit="10" x1="273.4" y1="724.4" x2="257.9" y2="686.1"/>
	
		<line fill="none" stroke="#4D4D4D" stroke-linecap="round" stroke-linejoin="round" stroke-miterlimit="10" x1="328.8" y1="724.4" x2="344.2" y2="686.1"/>
	
		<line fill="none" stroke="#4D4D4D" stroke-linecap="round" stroke-linejoin="round" stroke-miterlimit="10" x1="284.8" y1="724.4" x2="278.3" y2="686.1"/>
	
		<line fill="none" stroke="#4D4D4D" stroke-linecap="round" stroke-linejoin="round" stroke-miterlimit="10" x1="317.4" y1="724.4" x2="323.9" y2="686.1"/>
	<path fill="#FFFFFF" stroke="#FFFFFF" stroke-width="2" stroke-linejoin="round" stroke-miterlimit="10" d="M349.1,825.3
		c0-3.3,3.3-6.5,6.5-6.5s6.5,3.3,6.5,6.5H349.1z"/>
	<path fill="#FFFFFF" stroke="#FFFFFF" stroke-width="2" stroke-linejoin="round" stroke-miterlimit="10" d="M328.8,825.3
		c0-7.3,5.7-12.2,12.2-12.2c7.3,0,12.2,5.7,12.2,12.2H328.8z"/>
	<path fill="#FFFFFF" stroke="#FFFFFF" stroke-width="2" stroke-linejoin="round" stroke-miterlimit="10" d="M313.3,825.3
		c0-4.9,4.1-9,9-9s9,4.1,9,9H313.3z"/>
	<path fill="#EE3837" stroke="#D33E2F" stroke-width="0.5" stroke-linejoin="round" stroke-miterlimit="10" d="M259.6,769.1
		C259.6,769.1,258.8,769.1,259.6,769.1C258.8,769.1,258.8,769.1,259.6,769.1c-0.8,3.3,1.6,4.9,4.1,4.9c0,0,0,0,0.8,0c0,0,0,0,0-0.8
		C263.6,770.8,262,769.1,259.6,769.1z"/>
	<path fill="#EE3837" stroke="#D33E2F" stroke-width="0.5" stroke-linejoin="round" stroke-miterlimit="10" d="M267.7,769.1
		C268.5,769.1,268.5,769.1,267.7,769.1C268.5,769.1,268.5,769.1,267.7,769.1c0.8,3.3-1.6,4.9-4.1,4.9c0,0,0,0-0.8,0c0,0,0,0,0-0.8
		C263.6,770.8,265.3,769.1,267.7,769.1z"/>
	<path fill="#EE3837" stroke="#D33E2F" stroke-width="0.5" stroke-linejoin="round" stroke-miterlimit="10" d="M297,769.1
		C296.2,769.1,296.2,769.1,297,769.1C296.2,769.1,296.2,769.1,297,769.1c-0.8,3.3,1.6,4.9,4.1,4.9c0,0,0,0,0.8,0c0,0,0,0,0-0.8
		C301.1,770.8,299.5,769.1,297,769.1z"/>
	<path fill="#EE3837" stroke="#D33E2F" stroke-width="0.5" stroke-linejoin="round" stroke-miterlimit="10" d="M305.2,769.1
		C305.2,769.1,306,769.1,305.2,769.1C306,769.1,306,769.1,305.2,769.1c0.8,3.3-1.6,4.9-4.1,4.9c0,0,0,0-0.8,0c0,0,0,0,0-0.8
		C301.1,770.8,302.7,769.1,305.2,769.1z"/>
	<path fill="#EE3837" stroke="#D33E2F" stroke-width="0.5" stroke-linejoin="round" stroke-miterlimit="10" d="M334.4,769.1
		C333.6,769.1,333.6,769.1,334.4,769.1C333.6,769.1,333.6,769.1,334.4,769.1c-0.8,3.3,1.6,4.9,4.1,4.9c0,0,0,0,0.8,0c0,0,0,0,0-0.8
		C338.5,770.8,336.1,769.1,334.4,769.1z"/>
	<path fill="#EE3837" stroke="#D33E2F" stroke-width="0.5" stroke-linejoin="round" stroke-miterlimit="10" d="M342.6,769.1
		C342.6,769.1,343.4,769.1,342.6,769.1C343.4,769.1,343.4,769.1,342.6,769.1c0.8,3.3-1.6,4.9-4.1,4.9c0,0,0,0-0.8,0c0,0,0,0,0-0.8
		C338.5,770.8,340.1,769.1,342.6,769.1z"/>
	
		<line fill="none" stroke="#4D4D4D" stroke-width="2" stroke-linecap="round" stroke-miterlimit="10" x1="263.6" y1="774" x2="338.5" y2="774"/>
</g>
<g id="Layer_1_1_">
</g>
</svg>
