<?xml version="1.0" encoding="utf-8"?>
<!-- Generator: Adobe Illustrator 18.0.0, SVG Export Plug-In . SVG Version: 6.00 Build 0)  -->
<!DOCTYPE svg PUBLIC "-//W3C//DTD SVG 1.1//EN" "http://www.w3.org/Graphics/SVG/1.1/DTD/svg11.dtd">
<svg version="1.1" id="Layer_1" xmlns="http://www.w3.org/2000/svg" xmlns:xlink="http://www.w3.org/1999/xlink" x="0px" y="0px"
	 viewBox="23.8 129.3 9.8 13.5" enable-background="new 23.8 129.3 9.8 13.5" xml:space="preserve">
<g id="BENCH-BUS">
	<path fill="#61AAC9" d="M26.6,133.9c-0.2,0-0.4,0.2-0.4,0.4v0.8c0,0.2,0.2,0.4,0.4,0.4h0.6c-0.4,0.5-0.6,1.2-0.6,1.9l-2.6,0.8
		c-0.3,0-0.3,0.5,0.1,0.5h2.7c0.5,1.2,1.7,2.1,3,2.1c1,0,1.9-0.5,2.5-1.2l0,0l0,0c0.1-0.1,0.2-0.3,0.3-0.4c0,0,0,0,0-0.1
		c0.1-0.1,0.2-0.3,0.2-0.5c0,0,0,0,0-0.1c0.1-0.2,0.1-0.3,0.1-0.5c0,0,0,0,0-0.1c0-0.2,0-0.4,0-0.5c0-0.7-0.2-1.4-0.6-1.9h0.5
		c0.2,0,0.4-0.2,0.4-0.4v-0.8c0-0.2-0.2-0.4-0.4-0.4h-0.5c-0.8-1.3,0.1-3.6,0.6-4.6c-0.1,0-0.2,0-0.3,0h-0.3c-2,1.2-4.7,3.5-5.8,4.6
		L26.6,133.9L26.6,133.9z"/>
	<path fill="#61AAC9" d="M30.1,140.7c-1.4,0-2.6,0.9-3,2.1h6c0,0,0.1,0,0.1,0C32.6,141.6,31.5,140.7,30.1,140.7z"/>
</g>
<g id="Layer_1_1_">
</g>
</svg>
