<?xml version="1.0" encoding="utf-8"?>
<!-- Generator: Adobe Illustrator 18.0.0, SVG Export Plug-In . SVG Version: 6.00 Build 0)  -->
<!DOCTYPE svg PUBLIC "-//W3C//DTD SVG 1.1//EN" "http://www.w3.org/Graphics/SVG/1.1/DTD/svg11.dtd">
<svg version="1.1" id="Layer_1" xmlns="http://www.w3.org/2000/svg" xmlns:xlink="http://www.w3.org/1999/xlink" x="0px" y="0px"
	 viewBox="8.9 0 132.3 261.6" enable-background="new 8.9 0 132.3 261.6" xml:space="preserve">
<g id="DIGGER-ELF-18">
	<circle fill="#FFDF8A" cx="26.2" cy="162.5" r="10.4"/>
	<path fill="#F27B20" d="M72.6,67c0,0-22.4-46.8-42.9-56.6c0,0,10.7,43.9-1,57.5L72.6,67z"/>
	<path fill="#FFDF8A" d="M22.9,92.3c0,15.1,12.2,27.3,27.3,27.3l0,0c15.1,0,27.3-12.2,27.3-27.3l0,0C77.5,77.2,65.3,65,50.2,65l0,0
		C35.1,65,22.9,77.2,22.9,92.3L22.9,92.3z"/>
	<path fill="#FFFFFF" d="M19,72.9c0,2,1.6,3.6,3.6,3.6h54.3c2,0,3.6-1.6,3.6-3.6v-6.7c0-2-1.6-3.6-3.6-3.6H22.6
		c-2,0-3.6,1.6-3.6,3.6V72.9z"/>
	<circle fill="#333333" cx="61.9" cy="88.4" r="4.9"/>
	<circle fill="#333333" cx="39.5" cy="88.4" r="4.9"/>
	<rect x="67.2" y="130.1" fill="#F27B20" width="54.5" height="15.5"/>
	<path fill="#F27B20" d="M24.2,184.6c0,15.1,12.2,27.3,27.3,27.3s27.3-12.2,27.3-27.3v-37.7c0-15.1-12.2-27.3-27.3-27.3
		s-27.3,12.2-27.3,27.3V184.6z"/>
	<polyline fill="#FFFFFF" points="67.1,201.5 67.1,248.4 52.8,248.4 52.8,201.5 	"/>
	<polyline fill="#F27B20" points="67.1,201.5 67.1,226.4 52.8,226.4 52.8,201.5 	"/>
	<path fill="#333333" d="M51.8,245.8h16.6c5.5,10.7,19.8,10.7,21.8,2.9c0,0,7.6,14.8-26.7,12.7C55.4,260.9,49,253.4,51.8,245.8z"/>
	<polyline fill="#FFFFFF" points="32.7,201.5 32.7,248.4 47,248.4 47,201.5 	"/>
	<polyline fill="#F27B20" points="32.7,201.5 32.7,226.4 47,226.4 47,201.5 	"/>
	<path fill="#333333" d="M47.9,245.8H31.4c-5.5,10.7-19.8,10.7-21.8,2.9c0,0-7.6,14.8,26.7,12.7C44.3,260.9,50.8,253.4,47.9,245.8z"
		/>
	<line fill="none" stroke="#FFFFFF" stroke-miterlimit="10" x1="51.5" y1="119.6" x2="51.5" y2="193.1"/>
	<rect x="24.2" y="171" fill="#333333" width="54.6" height="13.7"/>
	<rect x="44.4" y="169.7" fill="#FFD400" width="14.3" height="15.6"/>
	<circle fill="#FFFFFF" cx="25.5" cy="5.9" r="5.8"/>
	<path fill="#FFDF8A" d="M77.5,86.5l9.1-12.4c0,0,5.2,31.9-12.4,28L77.5,86.5z"/>
	<path fill="#FFDF8A" d="M25.5,86.5l-9.1-12.4c0,0-5.2,31.9,12.3,28L25.5,86.5z"/>
	<circle fill="#FFDF8A" cx="121" cy="138" r="10.4"/>
	<path fill="#808080" d="M102.2,105.4c0,0,0.4-31.9,20.1-44.9c0,0,17.4,10.1,18.8,44.9h-17v146.9h-4.4V105.4H102.2z"/>
</g>
<g id="Layer_1_1_">
</g>
</svg>
