<svg xmlns="http://www.w3.org/2000/svg" viewBox="68.4 0 104.4 261.6" enable-background="new 68.4 0 104.4 261.6"><path fill="#00B2EE" d="M141.6 59.1S100.2 21 78.9 10.9c0 0 18.1 31.7 5.9 45.9l56.8 2.3z"/><path fill="#FFDF8A" d="M138.2 85.4c0 15.7-12.7 28.4-28.4 28.4s-28.4-12.7-28.4-28.4c0-15.6 12.7-28.4 28.4-28.4s28.4 12.8 28.4 28.4z"/><path fill="#333" d="M123 60.3c-3.9-2.1-8.4-3.3-13.2-3.3-15.7 0-28.4 12.7-28.4 28.4 0 6.9 2.5 13.3 6.6 18.3 27-7.2 33.4-31.6 35-43.4z"/><path fill="#FFDF8A" d="M117.9 92.9l-15-21.2s-5.4 33.2 12.9 29.1l2.1-7.9z"/><path fill="#fff" d="M142.3 65.3c0 2.1-1.7 3.8-3.8 3.8H82c-2.1 0-3.8-1.7-3.8-3.8v-6.9c0-2.1 1.7-3.8 3.8-3.8h56.5c2.1 0 3.8 1.7 3.8 3.8v6.9z"/><circle fill="#333" cx="127.3" cy="81.4" r="5.1"/><path fill="#00B2EE" d="M136.8 181.5c0 15.7-12.7 28.4-28.4 28.4S80 197.2 80 181.5v-39.2c0-15.7 12.7-28.4 28.4-28.4s28.4 12.7 28.4 28.4v39.2z"/><path fill="#fff" d="M148 212.7v35.1h-14.9v-35.1"/><path fill="#00B2EE" d="M104.6 210.1h28.6V225h14.9v-21.3c0-5.2-1.6-10.1-11.5-10.1l-13.1 1.1"/><path fill="#333" d="M132.1 245.1h17.3c5.8 11.2 20.6 11.2 22.7 3.1 0 0 7.9 15.4-27.7 13.2-8.5-.6-15.2-8.3-12.3-16.3zM80 167.3h56.8v14.2H80z"/><path fill="#FFD400" d="M134.5 166h4v16.2h-4z"/><circle fill="#fff" cx="74.5" cy="6.1" r="6.1"/><circle fill="#FFDF8A" cx="108.9" cy="169.7" r="10.8"/><path fill="#FFDF8A" d="M134.1 84l26.7 7.7c2.9 0 2.9 4.2-1.3 4.2h-31.9l6.5-11.9z"/></svg>