<?xml version="1.0" encoding="utf-8"?>
<!-- Generator: Adobe Illustrator 18.0.0, SVG Export Plug-In . SVG Version: 6.00 Build 0)  -->
<!DOCTYPE svg PUBLIC "-//W3C//DTD SVG 1.1//EN" "http://www.w3.org/Graphics/SVG/1.1/DTD/svg11.dtd">
<svg version="1.1" id="Layer_1" xmlns="http://www.w3.org/2000/svg" xmlns:xlink="http://www.w3.org/1999/xlink" x="0px" y="0px"
	 viewBox="26.5 0 96.9 259.7" enable-background="new 26.5 0 96.9 259.7" xml:space="preserve">
<g id="ELF-9">
	<circle fill="#8C8C8C" cx="69.4" cy="231.7" r="10.2"/>
	
		<circle fill="none" stroke="#979797" stroke-width="2" stroke-linecap="round" stroke-miterlimit="10" cx="70" cy="231.5" r="27.2"/>
	
		<line fill="none" stroke="#FFD100" stroke-width="1.6201" stroke-linecap="round" stroke-linejoin="round" stroke-miterlimit="10" x1="70" y1="231.5" x2="70" y2="120"/>
	
		<circle fill="none" stroke="#979797" stroke-width="2" stroke-linecap="round" stroke-miterlimit="10" cx="70.7" cy="157.9" r="10.3"/>
	<path fill="#C3161D" d="M93.8,35.3c0,0-22.1-22.7-33.7-29.1c0,0,9.2,18.4,1.9,26L93.8,35.3z"/>
	<path fill="#E64436" d="M83,34.7c0,0-11.3-22.1-22.9-28.5c0,0,9.2,18.4,1.9,26L83,34.7z"/>
	<path fill="#FBDE89" d="M91.1,50.1c-0.5,8.8-8.1,15.6-16.9,15.1l0,0c-8.8-0.5-15.6-8.1-15.1-16.9l0,0c0.5-8.8,8.1-15.6,16.9-15.1
		l0,0C84.8,33.7,91.6,41.2,91.1,50.1L91.1,50.1z"/>
	<path fill="#333333" d="M83.3,35.4c-2.2-1.3-4.6-2.1-7.3-2.2c-8.8-0.5-16.4,6.3-16.9,15.1c-0.2,3.9,1,7.6,3.2,10.5
		C77.7,55.5,82.1,42,83.3,35.4z"/>
	<path fill="#FBDE89" d="M79.4,53.6l-7.8-12.4c0,0-4.1,18.5,6.3,16.8L79.4,53.6z"/>
	<path fill="#FFFFFF" d="M94,38.8c-0.1,1.2-1.1,2.1-2.2,2L60,39.1c-1.2-0.1-2.1-1.1-2-2.2l0.2-3.9c0.1-1.2,1.1-2.1,2.2-2l31.7,1.8
		c1.2,0.1,2.1,1.1,2,2.2L94,38.8z"/>
	<circle fill="#333333" cx="85.1" cy="47.4" r="2.9"/>
	<path fill="#E64436" d="M87.3,104c-0.5,8.8-8.1,15.6-16.9,15.1c-8.8-0.5-15.6-8.1-15.1-16.9l1.2-22.1c0.5-8.8,8.1-15.6,16.9-15.1
		C82.3,65.6,89,73.2,88.5,82L87.3,104z"/>
	<path fill="#E64436" d="M79.5,103.6c-0.5,8.8-0.3,16-9.1,15.5c-8.8-0.5-15.6-8.1-15.1-16.9l1.2-22.1c0.5-8.8,8.1-15.6,16.9-15.1
		c8.8,0.5,7.8,7.6,7.3,16.4L79.5,103.6z"/>
	<polyline fill="#FFFFFF" points="87.3,128.3 77.5,145.5 70.2,141.4 80,124.2 	"/>
	<path fill="#E71C24" d="M68.8,114.9l12.4,7l-4.5,7.8l7.3,4.1l5.7-9.8c1.4-2.4,1.6-5.3-2.9-7.8c-0.6-0.4-0.6-0.4-0.6-0.4l-6.3-3.5"
		/>
	<path fill="#333333" d="M70.5,139.8l8.4,4.8c-0.3,7.1,7,11.2,10.2,7.8c0,0-0.4,9.7-17.2-1.3C67.9,148.5,66.8,142.8,70.5,139.8z"/>
	
		<rect x="55.5" y="95.1" transform="matrix(-0.9984 -5.640054e-02 5.640054e-02 -0.9984 137.3572 202.1705)" fill="#333333" width="32" height="8"/>
	
		<rect x="86.2" y="95.3" transform="matrix(-0.9984 -5.640054e-02 5.640054e-02 -0.9984 168.8612 204.4588)" fill="#FBD300" width="2.2" height="9.1"/>
	<circle fill="#FFFFFF" cx="57.8" cy="3.4" r="3.4"/>
	<path fill="#FBDE89" d="M88.8,49.2l14.8,5.2c1.6,0.1,1.5,2.4-0.9,2.3l-17.9-1L88.8,49.2z"/>
	<polygon fill="#E64436" points="113.2,92 72.4,76.6 78.5,68.3 117,84 	"/>
	<circle fill="#FFDF8A" cx="117.1" cy="89" r="6.4"/>
	<polygon fill="#E64436" points="34.7,77.2 77.4,68.7 76.6,79 35.7,86 	"/>
	<circle fill="#FFDF8A" cx="32.9" cy="81.7" r="6.4"/>
	<path fill="#333333" d="M80.3,120c0,1.5-1.2,2.6-2.6,2.6H61.8c-1.5,0-2.6-1.2-2.6-2.6l0,0c0-1.5,1.2-2.6,2.6-2.6h15.8
		C79.1,117.3,80.3,118.5,80.3,120L80.3,120z"/>
</g>
<g id="Layer_1_1_">
</g>
</svg>
