<?xml version="1.0" encoding="utf-8"?>
<!-- Generator: Adobe Illustrator 18.0.0, SVG Export Plug-In . SVG Version: 6.00 Build 0)  -->
<!DOCTYPE svg PUBLIC "-//W3C//DTD SVG 1.1//EN" "http://www.w3.org/Graphics/SVG/1.1/DTD/svg11.dtd">
<svg version="1.1" id="Layer_1" xmlns="http://www.w3.org/2000/svg" xmlns:xlink="http://www.w3.org/1999/xlink" x="0px" y="0px"
	 viewBox="0 25.4 150 210.8" enable-background="new 0 25.4 150 210.8" xml:space="preserve">
<g id="DIGGER-ELF-23">
	<circle fill="#FFDF8A" cx="13.2" cy="222.3" r="13.2"/>
	<circle fill="#FFDF8A" cx="136.8" cy="223" r="13.2"/>
	<path fill="#E64436" d="M49,110c0,0,28.4-59.2,54.3-71.5c0,0-13.6,55.5,1.2,72.7L49,110z"/>
	<path fill="#FFDF8A" d="M111.9,142.1c0,19.1-15.4,34.5-34.5,34.5l0,0c-19.1,0-34.5-15.5-34.5-34.5l0,0c0-19.1,15.5-34.5,34.5-34.5
		l0,0C96.5,107.6,111.9,123,111.9,142.1L111.9,142.1z"/>
	<path fill="#FFFFFF" d="M116.8,117.6c0,2.5-2.1,4.6-4.6,4.6H43.6c-2.5,0-4.6-2.1-4.6-4.6v-8.4c0-2.5,2.1-4.6,4.6-4.6h68.6
		c2.5,0,4.6,2.1,4.6,4.6L116.8,117.6L116.8,117.6z"/>
	<circle fill="#333333" cx="62.6" cy="137.2" r="6.2"/>
	<circle fill="#333333" cx="90.9" cy="137.2" r="6.2"/>
	<path fill="#E64436" d="M41.2,222.8v-11.6c0-19.1,15.4-34.5,34.5-34.5c19.1,0,34.5,15.5,34.5,34.5v11.6"/>
	<line fill="none" stroke="#FFFFFF" stroke-miterlimit="10" x1="75.7" y1="178.9" x2="75.7" y2="233.5"/>
	<circle fill="#FFFFFF" cx="108.6" cy="32.8" r="7.4"/>
	<path fill="#FFDF8A" d="M42.9,134.7l-11.5-15.6c0,0-6.6,40.3,15.6,35.4L42.9,134.7z"/>
	<path fill="#FFDF8A" d="M108.6,134.7l11.5-15.6c0,0,6.6,40.3-15.6,35.4L108.6,134.7z"/>
</g>
<g id="Layer_1_1_">
</g>
</svg>
