<svg xmlns="http://www.w3.org/2000/svg" viewBox="26.5 0 96.9 259.7" enable-background="new 26.5 0 96.9 259.7"><circle fill="#8C8C8C" cx="69.4" cy="231.7" r="10.2"/><circle fill="none" stroke="#979797" stroke-width="2" stroke-linecap="round" stroke-miterlimit="10" cx="70" cy="231.5" r="27.2"/><path fill="none" stroke="#FFD100" stroke-width="1.62" stroke-linecap="round" stroke-linejoin="round" stroke-miterlimit="10" d="M70 231.5V120"/><circle fill="none" stroke="#979797" stroke-width="2" stroke-linecap="round" stroke-miterlimit="10" cx="70.7" cy="157.9" r="10.3"/><path fill="#C3161D" d="M93.8 35.3S71.7 12.6 60.1 6.2c0 0 9.2 18.4 1.9 26l31.8 3.1z"/><path fill="#E64436" d="M83 34.7S71.7 12.6 60.1 6.2c0 0 9.2 18.4 1.9 26l21 2.5z"/><path fill="#FBDE89" d="M91.1 50.1c-.5 8.8-8.1 15.6-16.9 15.1-8.8-.5-15.6-8.1-15.1-16.9.5-8.8 8.1-15.6 16.9-15.1 8.8.5 15.6 8 15.1 16.9z"/><path fill="#333" d="M83.3 35.4c-2.2-1.3-4.6-2.1-7.3-2.2-8.8-.5-16.4 6.3-16.9 15.1-.2 3.9 1 7.6 3.2 10.5 15.4-3.3 19.8-16.8 21-23.4z"/><path fill="#FBDE89" d="M79.4 53.6l-7.8-12.4S67.5 59.7 77.9 58l1.5-4.4z"/><path fill="#fff" d="M94 38.8c-.1 1.2-1.1 2.1-2.2 2L60 39.1c-1.2-.1-2.1-1.1-2-2.2l.2-3.9c.1-1.2 1.1-2.1 2.2-2l31.7 1.8c1.2.1 2.1 1.1 2 2.2l-.1 3.8z"/><circle fill="#333" cx="85.1" cy="47.4" r="2.9"/><path fill="#E64436" d="M87.3 104c-.5 8.8-8.1 15.6-16.9 15.1-8.8-.5-15.6-8.1-15.1-16.9l1.2-22.1c.5-8.8 8.1-15.6 16.9-15.1 8.9.6 15.6 8.2 15.1 17l-1.2 22zm-7.8-.4c-.5 8.8-.3 16-9.1 15.5-8.8-.5-15.6-8.1-15.1-16.9l1.2-22.1c.5-8.8 8.1-15.6 16.9-15.1 8.8.5 7.8 7.6 7.3 16.4l-1.2 22.2z"/><path fill="#fff" d="M87.3 128.3l-9.8 17.2-7.3-4.1 9.8-17.2"/><path fill="#E71C24" d="M68.8 114.9l12.4 7-4.5 7.8 7.3 4.1 5.7-9.8c1.4-2.4 1.6-5.3-2.9-7.8l-.6-.4-6.3-3.5"/><path fill="#333" d="M70.5 139.8l8.4 4.8c-.3 7.1 7 11.2 10.2 7.8 0 0-.4 9.7-17.2-1.3-4-2.6-5.1-8.3-1.4-11.3zm16.81-35.708l-31.95-1.804.452-7.988 31.95 1.805z"/><path fill="#FBD300" d="M88.174 104.45l-2.196-.125.513-9.085 2.198.124z"/><circle fill="#fff" cx="57.8" cy="3.4" r="3.4"/><path fill="#FBDE89" d="M88.8 49.2l14.8 5.2c1.6.1 1.5 2.4-.9 2.3l-17.9-1 4-6.5z"/><path fill="#E64436" d="M113.2 92L72.4 76.6l6.1-8.3L117 84z"/><circle fill="#FFDF8A" cx="117.1" cy="89" r="6.4"/><path fill="#E64436" d="M34.7 77.2l42.7-8.5-.8 10.3-40.9 7z"/><circle fill="#FFDF8A" cx="32.9" cy="81.7" r="6.4"/><path fill="#333" d="M80.3 120c0 1.5-1.2 2.6-2.6 2.6H61.8c-1.5 0-2.6-1.2-2.6-2.6 0-1.5 1.2-2.6 2.6-2.6h15.8c1.5-.1 2.7 1.1 2.7 2.6z"/></svg>