<svg xmlns="http://www.w3.org/2000/svg" viewBox="0 50.8 150 210.8" enable-background="new 0 50.8 150 210.8"><circle fill="#FFDF8A" cx="136.8" cy="247.7" r="13.2"/><circle fill="#FFDF8A" cx="13.2" cy="248.4" r="13.2"/><path fill="#00B2EE" d="M101 135.4S72.6 76.2 46.7 63.9c0 0 13.6 55.5-1.2 72.7l55.5-1.2z"/><path fill="#FFDF8A" d="M38.1 167.5c0 19.1 15.4 34.5 34.5 34.5s34.5-15.5 34.5-34.5c0-19.1-15.5-34.5-34.5-34.5-19.1 0-34.5 15.4-34.5 34.5z"/><path fill="#fff" d="M33.2 143c0 2.5 2.1 4.6 4.6 4.6h68.6c2.5 0 4.6-2.1 4.6-4.6v-8.4c0-2.5-2.1-4.6-4.6-4.6H37.7c-2.5 0-4.6 2.1-4.6 4.6.1-.1.1 8.4.1 8.4z"/><circle fill="#333" cx="87.4" cy="162.6" r="6.2"/><circle fill="#333" cx="59" cy="162.6" r="6.2"/><path fill="#00B2EE" d="M108.8 248.2v-11.6c0-19.1-15.4-34.5-34.5-34.5s-34.5 15.5-34.5 34.5v11.6"/><path fill="none" stroke="#fff" stroke-miterlimit="10" d="M74.2 204.3v54.6"/><circle fill="#fff" cx="41.4" cy="58.2" r="7.4"/><path fill="#FFDF8A" d="M107.1 160.1l11.5-15.6s6.6 40.3-15.6 35.4l4.1-19.8zm-65.7 0l-11.5-15.6s-6.6 40.3 15.6 35.4l-4.1-19.8z"/></svg>