<svg xmlns="http://www.w3.org/2000/svg" viewBox="55.6 0 94.4 261.6" enable-background="new 55.6 0 94.4 261.6"><path fill="#00B2EE" d="M128.6 59.1S87.2 21 65.9 10.9c0 0 18.1 31.7 5.9 45.9l56.8 2.3z"/><path fill="#FFDF8A" d="M125.3 85.4c0 15.7-12.7 28.4-28.4 28.4s-28.4-12.7-28.4-28.4C68.4 69.8 81.2 57 96.9 57c15.6 0 28.4 12.8 28.4 28.4z"/><path fill="#333" d="M110 60.3c-3.9-2.1-8.4-3.3-13.2-3.3-15.7 0-28.4 12.7-28.4 28.4 0 6.9 2.5 13.3 6.6 18.3 27.1-7.2 33.5-31.6 35-43.4z"/><path fill="#FFDF8A" d="M104.9 92.9l-15-21.2s-5.4 33.2 12.9 29.1l2.1-7.9z"/><path fill="#fff" d="M129.3 65.3c0 2.1-1.7 3.8-3.8 3.8H69.1c-2.1 0-3.8-1.7-3.8-3.8v-6.9c0-2.1 1.7-3.8 3.8-3.8h56.5c2.1 0 3.8 1.7 3.8 3.8-.1-.1-.1 6.9-.1 6.9z"/><circle fill="#333" cx="114.4" cy="81.4" r="5.1"/><path fill="#00B2EE" d="M123.9 181.5c0 15.7-12.7 28.4-28.4 28.4s-28.4-12.7-28.4-28.4v-39.2c0-15.7 12.7-28.4 28.4-28.4s28.4 12.7 28.4 28.4v39.2z"/><path fill="#fff" d="M101.6 212.7v35.1H86.7v-35.1"/><path fill="#00B2EE" d="M90.1 193.6c9.9 0 11.5 4.9 11.5 10.1V225H86.7v-24l3.4-7.4z"/><path fill="#333" d="M85.7 245.1H103c5.7 11.2 20.6 11.2 22.7 3.1 0 0 8 15.4-27.7 13.2-8.6-.6-15.3-8.3-12.3-16.3zm-18.6-77.8h56.8v14.2H67.1z"/><path fill="#FFD400" d="M121.6 166h4v16.2h-4z"/><circle fill="#fff" cx="61.6" cy="6.1" r="6.1"/><circle fill="#FFDF8A" cx="96" cy="169.7" r="10.8"/><path fill="#FFDF8A" d="M121.2 84l26.7 7.7c2.9 0 2.9 4.2-1.3 4.2h-31.9l6.5-11.9z"/></svg>