<?xml version="1.0" encoding="utf-8"?>
<!-- Generator: Adobe Illustrator 18.0.0, SVG Export Plug-In . SVG Version: 6.00 Build 0)  -->
<!DOCTYPE svg PUBLIC "-//W3C//DTD SVG 1.1//EN" "http://www.w3.org/Graphics/SVG/1.1/DTD/svg11.dtd">
<svg version="1.1" id="Layer_1" xmlns="http://www.w3.org/2000/svg" xmlns:xlink="http://www.w3.org/1999/xlink" x="0px" y="0px"
	 viewBox="23.8 0 102.5 261.6" enable-background="new 23.8 0 102.5 261.6" xml:space="preserve">
<g id="ELF-8">
	<path fill="#28AE4B" d="M104.9,59.1c0,0-41.4-38.1-62.7-48.2c0,0,18.1,31.7,5.9,45.9L104.9,59.1z"/>
	<path fill="#FFDF8A" d="M101.6,85.4c0,15.7-12.7,28.4-28.4,28.4l0,0c-15.7,0-28.4-12.7-28.4-28.4l0,0C44.7,69.8,57.5,57,73.2,57
		l0,0C88.8,57,101.6,69.8,101.6,85.4L101.6,85.4z"/>
	<path fill="#333333" d="M86.3,60.3c-3.9-2.1-8.4-3.3-13.2-3.3c-15.7,0-28.4,12.7-28.4,28.4c0,6.9,2.5,13.3,6.6,18.3
		C78.4,96.5,84.8,72.1,86.3,60.3z"/>
	<path fill="#FFDF8A" d="M81.2,92.9l-15-21.2c0,0-5.4,33.2,12.9,29.1L81.2,92.9z"/>
	<path fill="#FFFFFF" d="M105.6,65.3c0,2.1-1.7,3.8-3.8,3.8H45.4c-2.1,0-3.8-1.7-3.8-3.8v-6.9c0-2.1,1.7-3.8,3.8-3.8h56.5
		c2.1,0,3.8,1.7,3.8,3.8L105.6,65.3L105.6,65.3z"/>
	<circle fill="#333333" cx="90.7" cy="81.4" r="5.1"/>
	<path fill="#28AE4B" d="M100.2,181.5c0,15.7-12.7,28.4-28.4,28.4c-15.7,0-28.4-12.7-28.4-28.4v-39.2c0-15.7,12.7-28.4,28.4-28.4
		c15.7,0,28.4,12.7,28.4,28.4V181.5z"/>
	<polyline fill="#FFFFFF" points="77.9,212.7 77.9,247.8 63,247.8 63,212.7 	"/>
	<path fill="#28AE4B" d="M66.4,193.6c9.9,0,11.5,4.9,11.5,10.1V225H63v-24L66.4,193.6z"/>
	<path fill="#333333" d="M62,245.1h17.3c5.7,11.2,20.6,11.2,22.7,3.1c0,0,8,15.4-27.7,13.2C65.7,260.8,59,253.1,62,245.1z"/>
	<rect x="43.4" y="167.3" fill="#333333" width="56.8" height="14.2"/>
	<rect x="97.9" y="166" fill="#FFD400" width="4" height="16.2"/>
	<circle fill="#FFFFFF" cx="37.9" cy="6.1" r="6.1"/>
	<circle fill="#FFDF8A" cx="72.3" cy="169.7" r="10.8"/>
	<path fill="#FFDF8A" d="M97.5,84l26.7,7.7c2.9,0,2.9,4.2-1.3,4.2H91L97.5,84z"/>
	<path fill="#333333" d="M40.9,104c4.4-4.9,5.8-11.3,4.5-17.2c-6-0.7-12.3,1.5-16.7,6.3s-5.8,11.3-4.5,17.2
		C30.3,111,36.5,108.9,40.9,104z"/>
</g>
<g id="Layer_1_1_">
</g>
</svg>
