<svg xmlns="http://www.w3.org/2000/svg" viewBox="22.5 0 105.1 261.6" enable-background="new 22.5 0 105.1 261.6"><path fill="#28AE4B" d="M43.8 59.1S85.2 21 106.5 10.9c0 0-18.1 31.7-5.9 45.9l-56.8 2.3z"/><path fill="#FFDF8A" d="M47.1 85.4c0 15.7 12.7 28.4 28.4 28.4s28.4-12.7 28.4-28.4C104 69.8 91.2 57 75.5 57S47.1 69.8 47.1 85.4z"/><path fill="#333" d="M62.4 60.3c3.9-2.1 8.4-3.3 13.2-3.3C91.2 57 104 69.8 104 85.4c0 6.9-2.5 13.3-6.6 18.3-27.1-7.2-33.5-31.6-35-43.4z"/><path fill="#FFDF8A" d="M67.5 92.9l15-21.2s5.4 33.2-12.9 29.1l-2.1-7.9z"/><path fill="#fff" d="M43.1 65.3c0 2.1 1.7 3.8 3.8 3.8h56.5c2.1 0 3.8-1.7 3.8-3.8v-6.9c0-2.1-1.7-3.8-3.8-3.8H46.9c-2.1 0-3.8 1.7-3.8 3.8v6.9z"/><circle fill="#333" cx="58" cy="81.4" r="5.1"/><path fill="#28AE4B" d="M48.5 181.5c0 15.7 12.7 28.4 28.4 28.4s28.4-12.7 28.4-28.4v-39.2c0-15.7-12.7-28.4-28.4-28.4s-28.4 12.7-28.4 28.4v39.2z"/><path fill="#fff" d="M70.8 212.7v35.1h14.9v-35.1"/><path fill="#28AE4B" d="M82.3 193.6c-9.9 0-11.5 4.9-11.5 10.1V225h14.9v-24l-3.4-7.4z"/><path fill="#333" d="M86.7 245.1H69.4c-5.8 11.2-20.6 11.2-22.7 3.1 0 0-8 15.4 27.7 13.2 8.6-.6 15.3-8.3 12.3-16.3zm-38.2-77.8h56.8v14.2H48.5z"/><path fill="#FFD400" d="M46.8 166h4v16.2h-4z"/><circle fill="#fff" cx="110.8" cy="6.1" r="6.1"/><circle fill="#FFDF8A" cx="76.4" cy="169.7" r="10.8"/><path fill="#FFDF8A" d="M51.2 84l-26.7 7.7c-2.9 0-2.9 4.2 1.3 4.2h31.9L51.2 84z"/><path fill="#333" d="M110.3 106.9c4.7 4.5 11.1 6.2 17.1 5.1.9-6-1.1-12.3-5.8-16.8-4.7-4.5-11.1-6.2-17.1-5.1-.9 6 1 12.3 5.8 16.8z"/></svg>