<?xml version="1.0" encoding="utf-8"?>
<!-- Generator: Adobe Illustrator 18.0.0, SVG Export Plug-In . SVG Version: 6.00 Build 0)  -->
<!DOCTYPE svg PUBLIC "-//W3C//DTD SVG 1.1//EN" "http://www.w3.org/Graphics/SVG/1.1/DTD/svg11.dtd">
<svg version="1.1" id="Layer_1" xmlns="http://www.w3.org/2000/svg" xmlns:xlink="http://www.w3.org/1999/xlink" x="0px" y="0px"
	 viewBox="34.4 0 115.6 261.6" enable-background="new 34.4 0 115.6 261.6" xml:space="preserve">
<g id="ELF-5">
	<path fill="#28AE4B" d="M65.6,59.1c0,0,41.4-38.1,62.7-48.2c0,0-18.1,31.7-5.9,45.9L65.6,59.1z"/>
	<path fill="#FFDF8A" d="M69,85.4c0,15.7,12.7,28.4,28.4,28.4l0,0c15.7,0,28.4-12.7,28.4-28.4l0,0c0-15.7-12.7-28.4-28.4-28.4l0,0
		C81.7,57,69,69.8,69,85.4L69,85.4z"/>
	<path fill="#333333" d="M84.2,60.3c4-2.1,8.5-3.3,13.2-3.3c15.7,0,28.4,12.7,28.4,28.4c0,6.9-2.5,13.3-6.6,18.3
		C92.2,96.5,85.8,72.1,84.2,60.3z"/>
	<path fill="#FFDF8A" d="M89.3,92.9l15-21.2c0,0,5.4,33.2-12.9,29.1L89.3,92.9z"/>
	<path fill="#FFFFFF" d="M64.9,65.3c0,2.1,1.7,3.8,3.8,3.8h56.5c2.1,0,3.8-1.7,3.8-3.8v-6.9c0-2.1-1.7-3.8-3.8-3.8H68.7
		c-2.1,0-3.8,1.7-3.8,3.8V65.3L64.9,65.3z"/>
	<circle fill="#333333" cx="79.9" cy="81.4" r="5.1"/>
	<path fill="#28AE4B" d="M70.3,181.5c0,15.7,12.7,28.4,28.4,28.4s28.4-12.7,28.4-28.4v-39.2c0-15.7-12.7-28.4-28.4-28.4
		s-28.4,12.7-28.4,28.4V181.5z"/>
	<polyline fill="#FFFFFF" points="59.2,212.7 59.2,247.8 74.1,247.8 74.1,212.7 	"/>
	<path fill="#28AE4B" d="M102.6,210.1H74.1V225H59.2v-21.3c0-5.2,1.6-10.1,11.5-10.1l13.1,1.1"/>
	<path fill="#333333" d="M75.1,245.1H57.8c-5.8,11.2-20.6,11.2-22.7,3.1c0,0-7.9,15.4,27.7,13.2C71.3,260.8,78,253.1,75.1,245.1z"/>
	<rect x="70.3" y="167.3" fill="#333333" width="56.8" height="14.2"/>
	<rect x="68.7" y="166" fill="#FFD400" width="4" height="16.2"/>
	<circle fill="#FFFFFF" cx="132.7" cy="6.1" r="6.1"/>
	<circle fill="#FFDF8A" cx="98.3" cy="169.7" r="10.8"/>
	<path fill="#FFDF8A" d="M73.1,84l-26.7,7.7c-2.9,0-2.9,4.2,1.3,4.2h31.9L73.1,84z"/>
	<path fill="#333333" d="M132.7,103.5c4.7,4.5,11.1,6.2,17.1,5.1c0.9-6-1.1-12.3-5.8-16.8c-4.7-4.5-11.1-6.2-17.1-5.1
		C126.1,92.7,128,99,132.7,103.5z"/>
</g>
<g id="Layer_1_1_">
</g>
</svg>
