<?xml version="1.0" encoding="utf-8"?>
<!-- Generator: Adobe Illustrator 18.0.0, SVG Export Plug-In . SVG Version: 6.00 Build 0)  -->
<!DOCTYPE svg PUBLIC "-//W3C//DTD SVG 1.1//EN" "http://www.w3.org/Graphics/SVG/1.1/DTD/svg11.dtd">
<svg version="1.1" id="Layer_1" xmlns="http://www.w3.org/2000/svg" xmlns:xlink="http://www.w3.org/1999/xlink" x="0px" y="0px"
	 viewBox="0 66.5 149.9 195.1" enable-background="new 0 66.5 149.9 195.1" xml:space="preserve">
<g id="DIGGER-ELF-45">
	<path fill="#808080" d="M109,232.8c0,0,22.1,15.6,40.9,8.6c0,0,1.7-17-21.5-35.3l-8.5,11.7L2.2,132.2l-2.2,3l117.8,85.5L109,232.8z
		"/>
	<path fill="#E64436" d="M119.3,128.2c0,0-9.6-44.9-19-61.7c0,0-2.9,29.7-17.7,33.4L119.3,128.2z"/>
	<path fill="#FFDF8A" d="M104.6,144.2c-7.4,10.5-21.9,12.9-32.4,5.5l0,0c-10.5-7.4-12.9-21.9-5.5-32.4l0,0
		c7.4-10.5,21.9-12.9,32.4-5.5l0,0C109.5,119.2,112,133.7,104.6,144.2L104.6,144.2z"/>
	<path fill="#333333" d="M106.3,120.2c-1.7-3.2-4.1-6.1-7.2-8.4c-10.5-7.4-25-4.9-32.4,5.5c-3.3,4.6-4.6,10.1-4.2,15.3
		C83.9,140.6,99.7,127.3,106.3,120.2z"/>
	<path fill="#FFDF8A" d="M87.5,139.5v-21.2c0,0-19.3,19.6-5.2,25.5L87.5,139.5z"/>
	<path fill="#FFFFFF" d="M116.8,132.6c-1,1.4-2.9,1.7-4.3,0.7l-37.7-26.6c-1.4-1-1.7-2.9-0.7-4.3l3.3-4.6c1-1.4,2.9-1.7,4.3-0.7
		l37.7,26.6c1.4,1,1.7,2.9,0.7,4.3L116.8,132.6z"/>
	<circle fill="#333333" cx="99.2" cy="136.3" r="4.1"/>
	<path fill="#E64436" d="M58.4,207.6c-7.4,10.5-21.9,12.9-32.4,5.5s-12.9-21.9-5.5-32.4L39,154.6c7.4-10.5,21.9-12.9,32.4-5.5
		s12.9,21.9,5.5,32.4L58.4,207.6z"/>
	<polyline fill="#FFFFFF" points="39.2,221.6 39.2,250.3 27,250.3 27,221.6 	"/>
	<path fill="#E64436" d="M29.8,206c8.1,0,9.4,4,9.4,8.2v17.4H27V212L29.8,206z"/>
	<path fill="#333333" d="M26.2,248.1h14.1c4.7,9.1,16.9,9.1,18.5,2.5c0,0,6.5,12.6-22.7,10.8C29.2,260.9,23.8,254.6,26.2,248.1z"/>
	
		<rect x="19.6" y="183.7" transform="matrix(0.8164 0.5775 -0.5775 0.8164 117.2816 10.0623)" fill="#333333" width="46.4" height="11.6"/>
	
		<rect x="59.9" y="195.8" transform="matrix(0.8164 0.5775 -0.5775 0.8164 128.2398 1.6075)" fill="#FFD400" width="3.3" height="13.3"/>
	<path fill="#FFDF8A" d="M102.5,141.3l14.2,17.8c1.9,1.4,0,4.2-2.8,2.2l-21.3-15L102.5,141.3z"/>
	<polygon fill="#E64436" points="94.7,192.4 68.3,171.7 62.2,185.2 89.2,204.9 	"/>
	<circle fill="#FFDF8A" cx="93.7" cy="199.9" r="8.8"/>
</g>
<g id="Layer_1_1_">
</g>
</svg>
