<?xml version="1.0" encoding="utf-8"?>
<!-- Generator: Adobe Illustrator 18.0.0, SVG Export Plug-In . SVG Version: 6.00 Build 0)  -->
<!DOCTYPE svg PUBLIC "-//W3C//DTD SVG 1.1//EN" "http://www.w3.org/Graphics/SVG/1.1/DTD/svg11.dtd">
<svg version="1.1" id="Layer_1" xmlns="http://www.w3.org/2000/svg" xmlns:xlink="http://www.w3.org/1999/xlink" x="0px" y="0px"
	 viewBox="21.7 0 106.5 261.6" enable-background="new 21.7 0 106.5 261.6" xml:space="preserve">
<g id="ELF-2">
	<path fill="#B757C5" d="M107,59.1c0,0-41.4-38.1-62.7-48.2c0,0,18.1,31.7,5.9,45.9L107,59.1z"/>
	<path fill="#FFDF8A" d="M103.6,85.4c0,15.7-12.7,28.4-28.4,28.4l0,0c-15.7,0-28.4-12.7-28.4-28.4l0,0C46.8,69.8,59.5,57,75.2,57
		l0,0C90.9,57,103.6,69.8,103.6,85.4L103.6,85.4z"/>
	<path fill="#333333" d="M88.3,60.3c-3.9-2.1-8.4-3.3-13.2-3.3c-15.7,0-28.4,12.7-28.4,28.4c0,6.9,2.5,13.3,6.6,18.3
		C80.4,96.5,86.8,72.1,88.3,60.3z"/>
	<path fill="#FFDF8A" d="M83.3,92.9l-15-21.2c0,0-5.4,33.2,12.9,29.1L83.3,92.9z"/>
	<path fill="#FFFFFF" d="M107.6,65.3c0,2.1-1.7,3.8-3.8,3.8H47.4c-2.1,0-3.8-1.7-3.8-3.8v-6.9c0-2.1,1.7-3.8,3.8-3.8h56.5
		c2.1,0,3.8,1.7,3.8,3.8L107.6,65.3L107.6,65.3z"/>
	<circle fill="#333333" cx="92.7" cy="81.4" r="5.1"/>
	<path fill="#B757C5" d="M102.2,181.5c0,15.7-12.7,28.4-28.4,28.4c-15.7,0-28.4-12.7-28.4-28.4v-39.2c0-15.7,12.7-28.4,28.4-28.4
		c15.7,0,28.4,12.7,28.4,28.4V181.5z"/>
	<polyline fill="#FFFFFF" points="79.9,212.7 79.9,247.8 65,247.8 65,212.7 	"/>
	<path fill="#B757C5" d="M68.4,193.6c9.9,0,11.5,4.9,11.5,10.1V225H65v-24L68.4,193.6z"/>
	<path fill="#333333" d="M64,245.1h17.3c5.7,11.2,20.6,11.2,22.7,3.1c0,0,8,15.4-27.7,13.2C67.7,260.8,61.1,253.1,64,245.1z"/>
	<rect x="45.4" y="167.3" fill="#333333" width="56.8" height="14.2"/>
	<rect x="99.9" y="166" fill="#FFD400" width="4" height="16.2"/>
	<circle fill="#FFFFFF" cx="39.9" cy="6.1" r="6.1"/>
	<circle fill="#FFDF8A" cx="74.3" cy="169.7" r="10.8"/>
	<path fill="#FFDF8A" d="M99.5,84l26.7,7.7c2.9,0,2.9,4.2-1.3,4.2H93L99.5,84z"/>
	<path fill="#333333" d="M39.4,105.8c5.4-3.7,8.2-9.7,8.3-15.8C42,88,35.4,88.7,30,92.5s-8.2,9.7-8.3,15.8
		C27.5,110.2,34,109.6,39.4,105.8z"/>
</g>
<g id="Layer_1_1_">
</g>
</svg>
