<svg xmlns="http://www.w3.org/2000/svg" viewBox="8.9 0 132.3 261.6" enable-background="new 8.9 0 132.3 261.6"><circle fill="#FFDF8A" cx="26.2" cy="162.5" r="10.4"/><path fill="#F27B20" d="M72.6 67S50.2 20.2 29.7 10.4c0 0 10.7 43.9-1 57.5l43.9-.9z"/><path fill="#FFDF8A" d="M22.9 92.3c0 15.1 12.2 27.3 27.3 27.3 15.1 0 27.3-12.2 27.3-27.3C77.5 77.2 65.3 65 50.2 65c-15.1 0-27.3 12.2-27.3 27.3z"/><path fill="#fff" d="M19 72.9c0 2 1.6 3.6 3.6 3.6h54.3c2 0 3.6-1.6 3.6-3.6v-6.7c0-2-1.6-3.6-3.6-3.6H22.6c-2 0-3.6 1.6-3.6 3.6v6.7z"/><circle fill="#333" cx="61.9" cy="88.4" r="4.9"/><circle fill="#333" cx="39.5" cy="88.4" r="4.9"/><path fill="#F27B20" d="M67.2 130.1h54.5v15.5H67.2zm-43 54.5c0 15.1 12.2 27.3 27.3 27.3s27.3-12.2 27.3-27.3v-37.7c0-15.1-12.2-27.3-27.3-27.3s-27.3 12.2-27.3 27.3v37.7z"/><path fill="#fff" d="M67.1 201.5v46.9H52.8v-46.9"/><path fill="#F27B20" d="M67.1 201.5v24.9H52.8v-24.9"/><path fill="#333" d="M51.8 245.8h16.6c5.5 10.7 19.8 10.7 21.8 2.9 0 0 7.6 14.8-26.7 12.7-8.1-.5-14.5-8-11.7-15.6z"/><path fill="#fff" d="M32.7 201.5v46.9H47v-46.9"/><path fill="#F27B20" d="M32.7 201.5v24.9H47v-24.9"/><path fill="#333" d="M47.9 245.8H31.4c-5.5 10.7-19.8 10.7-21.8 2.9 0 0-7.6 14.8 26.7 12.7 8-.5 14.5-8 11.6-15.6z"/><path fill="none" stroke="#fff" stroke-miterlimit="10" d="M51.5 119.6v73.5"/><path fill="#333" d="M24.2 171h54.6v13.7H24.2z"/><path fill="#FFD400" d="M44.4 169.7h14.3v15.6H44.4z"/><circle fill="#fff" cx="25.5" cy="5.9" r="5.8"/><path fill="#FFDF8A" d="M77.5 86.5l9.1-12.4s5.2 31.9-12.4 28l3.3-15.6zm-52 0l-9.1-12.4s-5.2 31.9 12.3 28l-3.2-15.6z"/><circle fill="#FFDF8A" cx="121" cy="138" r="10.4"/><path fill="#808080" d="M102.2 105.4s.4-31.9 20.1-44.9c0 0 17.4 10.1 18.8 44.9h-17v146.9h-4.4V105.4h-17.5z"/></svg>