<?xml version="1.0" encoding="utf-8"?>
<!-- Generator: Adobe Illustrator 18.0.0, SVG Export Plug-In . SVG Version: 6.00 Build 0)  -->
<!DOCTYPE svg PUBLIC "-//W3C//DTD SVG 1.1//EN" "http://www.w3.org/Graphics/SVG/1.1/DTD/svg11.dtd">
<svg version="1.1" id="Layer_1" xmlns="http://www.w3.org/2000/svg" xmlns:xlink="http://www.w3.org/1999/xlink" x="0px" y="0px"
	 viewBox="0 287.6 611.9 563.9" enable-background="new 0 287.6 611.9 563.9" xml:space="preserve">
<path opacity="0.5" fill="#75CEF4" enable-background="new    " d="M60.4,819.7l13.1-215.4l9.4-58.8l56.3-106.9l-29-85.7l38.4-41.6
	l34.7-22l77.5,26.9l146.5,64.5l51.8,33.5l57.9,304l11,105.3L60.4,819.7z"/>
<path fill="none" stroke="#75CEF4" stroke-width="3" stroke-miterlimit="10" d="M60.4,819.7l13.1-215.4l9.4-58.8l56.3-106.9
	l-29-85.7l38.4-41.6l34.7-22l77.5,26.9l146.5,64.5l51.8,33.5l57.9,304l11,105.3L60.4,819.7z"/>
<path opacity="0.36" fill="#0A3575" enable-background="new    " d="M82,817.2l41.2-248.9l55.9,50.6l-9-164l106.1,105.3l77.1-117.1
	l47.3,162.8l40.8-77.1l77.9,294.6L82,817.2z"/>
<g>
	<circle fill="#FFFFFF" cx="355.8" cy="643.4" r="81.6"/>
	<circle fill="#FFFFFF" cx="215.4" cy="572" r="81.6"/>
	<circle fill="#FFFFFF" cx="453.7" cy="764.2" r="81.6"/>
	<circle fill="#FFFFFF" cx="110.6" cy="769.9" r="81.6"/>
	<path fill="#FFFFFF" d="M144,705c25.3-11.4,34.7-42.8,19.2-66.5c-12.2-18.4-36.3-25.3-56.3-16.3c-25.3,11.4-34.7,42.8-19.2,66.5
		C100,707,124,714,144,705"/>
	<path fill="#FFFFFF" d="M83.6,712.3c12.2-5.7,16.7-20.8,9.4-32.2c-6.1-9-17.5-12.2-27.3-7.8c-12.2,5.7-16.7,20.8-9.4,32.2
		C62,713.6,73.8,716.8,83.6,712.3"/>
	<path fill="#FFFFFF" d="M465.9,705c19.6-8.6,26.5-32.6,14.3-50.2c-9-13.1-26.1-18-40.8-11.8c-19.6,8.6-26.5,32.6-14.3,50.2
		C434.1,706.2,451.2,711.5,465.9,705"/>
	<path fill="#FFFFFF" d="M333.7,609.5c19.6-8.6,26.5-32.6,14.3-50.2c-9-13.1-26.1-18-40.8-11.8c-19.6,8.6-26.5,32.6-14.3,50.2
		C301.9,610.8,319.1,615.7,333.7,609.5"/>
	<path fill="#FFFFFF" d="M150.6,654.4c19.6-8.6,26.5-32.6,14.3-50.2c-9-13.1-26.1-18-40.8-11.8c-19.6,8.6-26.5,32.6-14.3,50.2
		C118.7,655.6,136.3,660.5,150.6,654.4"/>
	<path fill="#FFFFFF" d="M46.9,838.8c19.6-8.6,26.5-32.6,14.3-50.2c-9-13.1-26.1-18-40.8-11.8C0.8,785.4-6.1,809.5,6.1,827
		C15.1,840.1,32.2,845.4,46.9,838.8"/>
	<path fill="#FFFFFF" d="M536.9,841.3c19.6-8.6,26.5-32.6,14.3-50.2c-9-13.1-26.1-18-40.8-11.8c-19.6,8.6-26.5,32.6-14.3,50.2
		C505.5,842.5,522.6,847.4,536.9,841.3"/>
	<path fill="#FFFFFF" d="M596.5,841.7c14.7-6.5,20-24.5,11-37.9c-6.9-9.8-20-13.5-31-9c-14.7,6.5-20,24.5-11,37.9
		C572.4,842.9,585.5,846.6,596.5,841.7"/>
	<path fill="#FFFFFF" d="M254.2,525.1c14.7-6.5,20-24.5,11-37.9c-6.9-9.8-20-13.5-31-9c-14.7,6.5-20,24.5-11,37.9
		C230.1,525.9,243.2,529.6,254.2,525.1"/>
	<path fill="#FFFFFF" d="M221.1,496.5c12.2-5.3,16.7-20.4,9-31.4c-5.7-8.2-16.3-11.4-25.7-7.3c-12.2,5.3-16.7,20.4-9,31.4
		C201.1,497.3,212.2,500.6,221.1,496.5"/>
</g>
<rect x="152.6" y="623.4" fill="#FFFFFF" width="263.6" height="213"/>
</svg>
