<?xml version="1.0" encoding="utf-8"?>
<!-- Generator: Adobe Illustrator 18.0.0, SVG Export Plug-In . SVG Version: 6.00 Build 0)  -->
<!DOCTYPE svg PUBLIC "-//W3C//DTD SVG 1.1//EN" "http://www.w3.org/Graphics/SVG/1.1/DTD/svg11.dtd">
<svg version="1.1" id="Layer_1" xmlns="http://www.w3.org/2000/svg" xmlns:xlink="http://www.w3.org/1999/xlink" x="0px" y="0px"
	 viewBox="31.1 147.2 149 139.5" enable-background="new 31.1 147.2 149 139.5" xml:space="preserve">
<path opacity="0.5" fill="#75CEF4" enable-background="new    " d="M34,274.2l6.7-66.9l14.8-18.1l4.9-18.4l21.3,4.8l10.9-12.1
	l17.6-6.6l11.8-8.1l30,7.2l9.2,1.4l6.7,59.1l3.9,10.9l5.9,47.6L34,274.2z"/>
<path fill="none" stroke="#75CEF4" stroke-width="3" stroke-miterlimit="10" d="M34,274.2l6.7-66.9l14.8-18.1l4.9-18.4l21.3,4.8
	l10.9-12.1l17.6-6.6l11.8-8.1l30,7.2l9.2,1.4l6.7,59.1l3.9,10.9l5.9,47.6L34,274.2z"/>
<path opacity="0.36" fill="#0A3575" enable-background="new    " d="M36.8,273.6l15.7-47.1l10.4,12.3l9-27l6.7,1.4l10.9-32.4
	l7.6,40.1l3.1-51.4l25.8,27.3l17.6,1.1l7.3,27.4l7.3-5.9l17.6,54.9L36.8,273.6z"/>
<g>
	<circle fill="#FFFFFF" cx="43.6" cy="273.7" r="12.5"/>
	<circle fill="#FFFFFF" cx="84.6" cy="214.4" r="12.5"/>
	<circle fill="#FFFFFF" cx="95.1" cy="197.4" r="12.5"/>
	<circle fill="#FFFFFF" cx="131.2" cy="250.5" r="12.5"/>
	<circle fill="#FFFFFF" cx="167.6" cy="274.2" r="12.5"/>
	<circle fill="#FFFFFF" cx="63.1" cy="262.8" r="19.5"/>
	<circle fill="#FFFFFF" cx="71.4" cy="232.5" r="19.5"/>
	<circle fill="#FFFFFF" cx="115.5" cy="240.8" r="19.5"/>
	<circle fill="#FFFFFF" cx="106.9" cy="222.7" r="19.5"/>
	<circle fill="#FFFFFF" cx="55.5" cy="244.8" r="4.9"/>
	<circle fill="#FFFFFF" cx="69.6" cy="211.5" r="4.9"/>
	<circle fill="#FFFFFF" cx="75.6" cy="207.2" r="4.9"/>
	<circle fill="#FFFFFF" cx="69.8" cy="204.3" r="4.9"/>
	<circle fill="#FFFFFF" cx="110" cy="203.3" r="7.4"/>
	<circle fill="#FFFFFF" cx="93.8" cy="184" r="4.9"/>
	<circle fill="#FFFFFF" cx="106.8" cy="195.2" r="4.9"/>
	<circle fill="#FFFFFF" cx="126.1" cy="223.5" r="6"/>
	<circle fill="#FFFFFF" cx="134.3" cy="238.6" r="4.9"/>
	<circle fill="#FFFFFF" cx="143.3" cy="255.6" r="4.9"/>
	<circle fill="#FFFFFF" cx="156" cy="262.5" r="4.9"/>
	<circle fill="#FFFFFF" cx="151.3" cy="255.2" r="4.9"/>
</g>
<rect x="69.8" y="233.7" fill="#FFFFFF" width="62.3" height="45.4"/>
<rect x="131.2" y="258.3" fill="#FFFFFF" width="26.6" height="24"/>
</svg>
