<?xml version="1.0" encoding="iso-8859-1"?>
<!-- Generator: Adobe Illustrator 18.0.0, SVG Export Plug-In . SVG Version: 6.00 Build 0)  -->
<!DOCTYPE svg PUBLIC "-//W3C//DTD SVG 1.1//EN" "http://www.w3.org/Graphics/SVG/1.1/DTD/svg11.dtd">
<svg version="1.1" id="Layer_1" xmlns="http://www.w3.org/2000/svg" xmlns:xlink="http://www.w3.org/1999/xlink" x="0px" y="0px"
	 viewBox="38.399 134.163 147.998 169.069" style="enable-background:new 38.399 134.163 147.998 169.069;" xml:space="preserve">
<g>
	<g>
		<g>
			<path style="fill:#FFFFFF;stroke:#FFFFFF;stroke-width:2;stroke-linejoin:round;stroke-miterlimit:10;" d="M93.043,302.233
				c0-1.606,1.309-2.915,2.915-2.915c1.606,0,2.915,1.309,2.915,2.915H93.043z"/>
			<path style="fill:#FFFFFF;stroke:#FFFFFF;stroke-width:2;stroke-linejoin:round;stroke-miterlimit:10;" d="M83.971,302.233
				c0-3.102,2.51-5.61,5.61-5.61c3.102,0,5.61,2.51,5.61,5.61H83.971z"/>
			<path style="fill:#FFFFFF;stroke:#FFFFFF;stroke-width:2;stroke-linejoin:round;stroke-miterlimit:10;" d="M77.364,302.233
				c0-2.167,1.762-3.928,3.928-3.928c2.167,0,3.928,1.762,3.928,3.928H77.364z"/>
		</g>
		<g>
			<path style="fill:#333333;stroke:#333333;stroke-linecap:round;stroke-linejoin:round;stroke-miterlimit:10;" d="M101.27,279.059
				c0,0.343-0.281,0.622-0.622,0.622h-0.531c-0.343,0-0.622-0.281-0.622-0.622v-3.038c0-0.343,0.281-0.622,0.622-0.622h0.531
				c0.343,0,0.622,0.281,0.622,0.622V279.059z"/>
			<path style="fill:#333333;stroke:#333333;stroke-linecap:round;stroke-linejoin:round;stroke-miterlimit:10;" d="
				M102.766,279.059c0,0.343,0.281,0.622,0.622,0.622h0.531c0.343,0,0.622-0.281,0.622-0.622v-3.038
				c0-0.343-0.281-0.622-0.622-0.622h-0.529c-0.343,0-0.622,0.281-0.622,0.622v3.038H102.766z"/>
		</g>
	</g>
	<path style="fill:none;stroke:#4D4D4D;stroke-width:2;stroke-linecap:round;stroke-miterlimit:10;" d="M94.226,285.993v-7.824
		c0-0.343,0.281-0.622,0.622-0.622h14.354c0.343,0,0.622,0.281,0.622,0.622v7.824"/>
</g>
<radialGradient id="SVGID_1_" cx="-1394.3" cy="972.74" r="102.81" gradientTransform="matrix(0.1558 0 0 0.1558 -37.2169 134.5499)" gradientUnits="userSpaceOnUse">
	<stop  offset="0" style="stop-color:#DE4A3F"/>
	<stop  offset="0.65" style="stop-color:#D43E30"/>
	<stop  offset="0.928" style="stop-color:#CE392E"/>
	<stop  offset="1" style="stop-color:#CB372D"/>
</radialGradient>
<path style="fill:url(#SVGID_1_);" d="M39.866,197.316c0-34.318,27.834-62.152,62.152-62.152s62.152,27.818,62.152,62.152
	c0,18.328-7.932,34.785-20.54,46.162c-5.159,5.159-30.811,22.318-30.811,24.78c-3.942,0-10.817,0-10.817,0s-6.857,0-10.817,0
	c0-2.462-25.654-19.621-30.811-24.78C47.798,232.1,39.866,215.644,39.866,197.316"/>
<g>
	<path style="fill:#FFFFFF;" d="M39.866,197.316c0-34.318,27.834-62.152,62.152-62.152c-26.214,0-47.471,27.834-47.471,62.152
		c0,18.328,6.063,34.785,15.695,46.162c3.942,5.159,23.533,22.318,23.533,24.78c-0.92,0-1.792,0-2.556,0
		c0-2.462-25.654-19.621-30.811-24.78C47.798,232.1,39.866,215.644,39.866,197.316"/>
	<path style="fill:#FFFFFF;" d="M119.037,243.478c5.159-11.377,8.401-27.834,8.401-46.162c0-34.318-11.377-62.152-25.404-62.152
		c26.198,0,47.455,27.834,47.455,62.152c0,18.328-6.063,34.785-15.695,46.162c-3.942,5.159-23.533,22.318-23.533,24.78
		c-1.279,0-2.603,0-3.834,0C106.445,265.796,116.933,248.637,119.037,243.478"/>
	<path style="fill:#FFFFFF;" d="M85.015,243.478c-5.159-11.377-8.401-27.834-8.401-46.162c0-34.318,11.377-62.152,25.404-62.152
		v133.094c0,0-1.979,0-4.411,0C97.607,265.796,87.119,248.637,85.015,243.478"/>
</g>
<path style="fill:#978475;" d="M109.982,302.233H94.07l-1.558-16.239h19.014L109.982,302.233z"/>
<g>
	<g>
		<path style="fill:none;stroke:#808080;stroke-width:2;stroke-linecap:round;stroke-miterlimit:10;" d="M39.866,300.347V197.316
			c0-34.318,27.834-62.152,62.152-62.152c30.296,0,55.545,21.694,61.047,50.386l21.476,113.007"/>
		<path style="fill:none;stroke:#808080;stroke-width:2;stroke-linecap:round;stroke-miterlimit:10;" d="M143.662,298.29V197.332
			c0-34.318-18.141-62.152-40.504-62.152c-19.746,0-36.203,21.694-39.788,50.386L49.17,300.24"/>
	</g>
	<path style="fill:#4D4D4D;stroke:#4D4D4D;stroke-width:0.25;stroke-linejoin:round;stroke-miterlimit:10;" d="M40.49,302.249
		h-0.794l-0.467-7.902h1.73L40.49,302.249z"/>
	<g>
		<path style="fill:none;stroke:#808080;stroke-width:2;stroke-linecap:round;stroke-miterlimit:10;" d="M39.399,296.904
			l1.387,0.686"/>
		<path style="fill:none;stroke:#808080;stroke-width:2;stroke-linecap:round;stroke-miterlimit:10;" d="M39.399,298.789
			l1.387,0.686"/>
	</g>
	<path style="fill:#4D4D4D;stroke:#4D4D4D;stroke-width:0.25;stroke-linejoin:round;stroke-miterlimit:10;" d="M49.653,302.249
		h-0.794l-0.467-7.902h1.73L49.653,302.249z"/>
	<g>
		<path style="fill:none;stroke:#808080;stroke-width:2;stroke-linecap:round;stroke-miterlimit:10;" d="M48.562,296.904
			l1.387,0.686"/>
		<path style="fill:none;stroke:#808080;stroke-width:2;stroke-linecap:round;stroke-miterlimit:10;" d="M48.562,298.789
			l1.387,0.686"/>
	</g>
	<path style="fill:#4D4D4D;stroke:#4D4D4D;stroke-width:0.25;stroke-linejoin:round;stroke-miterlimit:10;" d="M144.051,302.249
		h-0.78l-0.483-7.902h1.746L144.051,302.249z"/>
	<g>
		<path style="fill:none;stroke:#808080;stroke-width:2;stroke-linecap:round;stroke-miterlimit:10;" d="M142.959,296.904
			l1.387,0.686"/>
		<path style="fill:none;stroke:#808080;stroke-width:2;stroke-linecap:round;stroke-miterlimit:10;" d="M142.959,298.789
			l1.387,0.686"/>
	</g>
	<path style="fill:#4D4D4D;stroke:#4D4D4D;stroke-width:0.25;stroke-linejoin:round;stroke-miterlimit:10;" d="M185.102,302.249
		h-0.78l-0.483-7.902h1.746L185.102,302.249z"/>
	<g>
		<path style="fill:none;stroke:#808080;stroke-width:2;stroke-linecap:round;stroke-miterlimit:10;" d="M184.01,296.904
			l1.387,0.686"/>
		<path style="fill:none;stroke:#808080;stroke-width:2;stroke-linecap:round;stroke-miterlimit:10;" d="M184.01,298.789
			l1.387,0.686"/>
	</g>
</g>
<path style="opacity:0.1;enable-background:new    ;" d="M39.866,197.316c0-10.909,2.821-21.165,7.761-30.079
	c3.132,44.479,40.193,79.577,85.468,79.577c2.354,0,4.676-0.094,6.982-0.281c-8.728,6.935-27.242,19.637-27.242,21.726
	c-3.942,0-10.817,0-10.817,0s-6.857,0-10.817,0c0-2.462-25.654-19.621-30.811-24.78C47.798,232.1,39.866,215.644,39.866,197.316"/>
<g>
	<path style="fill:#EE3837;" d="M92.871,289.718c-0.405,0.702-0.81,1.387-1.293,2.228c-0.608,1.043,0.124,2.276,1.293,2.276
		s1.885-1.231,1.293-2.276C93.681,291.104,93.26,290.372,92.871,289.718"/>
	<path style="fill:#EE3837;" d="M111.167,289.718c-0.405,0.702-0.81,1.387-1.293,2.228c-0.608,1.043,0.124,2.276,1.293,2.276
		s1.885-1.231,1.293-2.276C111.977,291.104,111.556,290.372,111.167,289.718"/>
	<path style="fill:#EE3837;" d="M102.018,289.718c-0.405,0.702-0.81,1.387-1.293,2.228c-0.608,1.043,0.124,2.276,1.293,2.276
		c1.169,0,1.885-1.231,1.293-2.276C102.828,291.104,102.409,290.372,102.018,289.718"/>
</g>
<g>
	<g>
		<g>
			<path style="fill:none;stroke:#4D4D4D;stroke-linecap:round;stroke-linejoin:round;stroke-miterlimit:10;" d="M93.306,289.718
				c0.732,0.826,1.979,2.805,3.679,2.805c3.164,0,5.033-2.805,5.033-2.805s2.338,3.148,4.567,3.148s4.411-3.148,4.411-3.148"/>
			<path style="fill:none;stroke:#4D4D4D;stroke-linecap:round;stroke-linejoin:round;stroke-miterlimit:10;" d="M95.207,277.546
				l-3.834-9.289"/>
			<path style="fill:none;stroke:#4D4D4D;stroke-linecap:round;stroke-linejoin:round;stroke-miterlimit:10;" d="M108.845,277.546
				l3.834-9.289"/>
			<path style="fill:none;stroke:#4D4D4D;stroke-linecap:round;stroke-linejoin:round;stroke-miterlimit:10;" d="M97.95,277.546
				l-1.542-9.289"/>
			<path style="fill:none;stroke:#4D4D4D;stroke-linecap:round;stroke-linejoin:round;stroke-miterlimit:10;" d="M106.102,277.546
				l1.528-9.289"/>
		</g>
		<g>
			<path style="fill:#FFFFFF;stroke:#FFFFFF;stroke-width:2;stroke-linejoin:round;stroke-miterlimit:10;" d="M113.755,302.233
				c0-0.888,0.716-1.606,1.606-1.606c0.888,0,1.606,0.716,1.606,1.606H113.755z"/>
			<path style="fill:#FFFFFF;stroke:#FFFFFF;stroke-width:2;stroke-linejoin:round;stroke-miterlimit:10;" d="M108.751,302.233
				c0-1.7,1.387-3.086,3.086-3.086c1.7,0,3.086,1.371,3.086,3.086H108.751z"/>
			<path style="fill:#FFFFFF;stroke:#FFFFFF;stroke-width:2;stroke-linejoin:round;stroke-miterlimit:10;" d="M105.12,302.233
				c0-1.185,0.966-2.151,2.151-2.151c1.185,0,2.151,0.966,2.151,2.151H105.12z"/>
		</g>
		<g>
			<path style="fill:#EE3837;stroke:#D33E2F;stroke-width:0.5;stroke-linejoin:round;stroke-miterlimit:10;" d="M91.826,288.503
				c-0.046,0-0.094,0.016-0.14,0.016c0,0.046-0.016,0.094-0.016,0.14c0,0.592,0.483,1.075,1.075,1.075
				c0.046,0,0.094-0.016,0.14-0.016c0-0.046,0.016-0.094,0.016-0.14C92.885,288.97,92.402,288.503,91.826,288.503z"/>
			<path style="fill:#EE3837;stroke:#D33E2F;stroke-width:0.5;stroke-linejoin:round;stroke-miterlimit:10;" d="M93.93,288.503
				c0.046,0,0.094,0.016,0.14,0.016c0,0.046,0.016,0.094,0.016,0.14c0,0.592-0.483,1.075-1.075,1.075
				c-0.046,0-0.094-0.016-0.14-0.016c0-0.046-0.016-0.094-0.016-0.14C92.855,288.97,93.338,288.503,93.93,288.503z"/>
			<path style="fill:#EE3837;stroke:#D33E2F;stroke-width:0.5;stroke-linejoin:round;stroke-miterlimit:10;" d="M100.975,288.503
				c-0.046,0-0.094,0.016-0.14,0.016c0,0.046-0.016,0.094-0.016,0.14c0,0.592,0.483,1.075,1.075,1.075
				c0.046,0,0.094-0.016,0.14-0.016c0-0.046,0.016-0.094,0.016-0.14C102.034,288.97,101.551,288.503,100.975,288.503z"/>
			<path style="fill:#EE3837;stroke:#D33E2F;stroke-width:0.5;stroke-linejoin:round;stroke-miterlimit:10;" d="M103.077,288.503
				c0.046,0,0.094,0.016,0.14,0.016c0,0.046,0.016,0.094,0.016,0.14c0,0.592-0.483,1.075-1.075,1.075
				c-0.046,0-0.094-0.016-0.14-0.016c0-0.046-0.016-0.094-0.016-0.14C102.002,288.97,102.487,288.503,103.077,288.503z"/>
			<path style="fill:#EE3837;stroke:#D33E2F;stroke-width:0.5;stroke-linejoin:round;stroke-miterlimit:10;" d="M110.122,288.503
				c-0.046,0-0.094,0.016-0.14,0.016c0,0.046-0.016,0.094-0.016,0.14c0,0.592,0.483,1.075,1.075,1.075
				c0.046,0,0.094-0.016,0.14-0.016c0-0.046,0.016-0.094,0.016-0.14C111.183,288.97,110.7,288.503,110.122,288.503z"/>
			<path style="fill:#EE3837;stroke:#D33E2F;stroke-width:0.5;stroke-linejoin:round;stroke-miterlimit:10;" d="M112.226,288.503
				c0.046,0,0.094,0.016,0.14,0.016c0,0.046,0.016,0.094,0.016,0.14c0,0.592-0.483,1.075-1.075,1.075
				c-0.046,0-0.094-0.016-0.14-0.016c0-0.046-0.016-0.094-0.016-0.14C111.151,288.97,111.634,288.503,112.226,288.503z"/>
		</g>
	</g>
	<path style="fill:none;stroke:#4D4D4D;stroke-width:2;stroke-linecap:round;stroke-miterlimit:10;" d="M92.871,289.718h18.296"/>
</g>
</svg>
