<?xml version="1.0" encoding="iso-8859-1"?>
<!-- Generator: Adobe Illustrator 18.0.0, SVG Export Plug-In . SVG Version: 6.00 Build 0)  -->
<!DOCTYPE svg PUBLIC "-//W3C//DTD SVG 1.1//EN" "http://www.w3.org/Graphics/SVG/1.1/DTD/svg11.dtd">
<svg version="1.1" id="Layer_1" xmlns="http://www.w3.org/2000/svg" xmlns:xlink="http://www.w3.org/1999/xlink" x="0px" y="0px"
	 viewBox="0 54.299 149.988 152.97" style="enable-background:new 0 54.299 149.988 152.97;" xml:space="preserve">
<path style="fill:#D84637;" d="M14.054,82.113h25.291v25.291H14.054V82.113z"/>
<path style="fill:#00A9E9;" d="M28.174,93.329V82.113h-3.387v11.216H14.054v3.39h10.733v10.678h3.387V96.719h11.169v-3.39
	L28.174,93.329z"/>
<path style="fill:#FFDE00;" d="M19.577,64.936h16.785v16.785H19.577V64.936z"/>
<path style="fill:#48B780;" d="M28.949,72.381v-7.446h-2.252v7.446h-7.118v2.25h7.118v7.089h2.252v-7.089h7.416v-2.25H28.949z"/>
<path style="fill:#D3AE6E;" d="M1.985,153.997h146.019v53.272H1.985L1.985,153.997z"/>
<path style="fill:#FFDD00;" d="M1.985,153.997h146.019v53.272H1.985L1.985,153.997z"/>
<path style="fill:#F27B20;" d="M7.124,153.997h135.733v53.272H7.124L7.124,153.997z"/>
<path style="opacity:0.1;enable-background:new    ;" d="M21.335,175.68h106.932v7.29H21.335L21.335,175.68z"/>
<path style="fill:#EE3837;" d="M21.335,167.975h106.932v8.066H21.335L21.335,167.975z"/>
<g>
	<path style="fill:#FFFFFF;" d="M43.143,176.041h-7.665l5.585-8.067h7.667L43.143,176.041z"/>
	<path style="fill:#FFFFFF;" d="M59.596,176.041h-7.66l5.582-8.067h7.667L59.596,176.041z"/>
	<path style="fill:#FFFFFF;" d="M76.052,176.041h-7.66l5.582-8.067h7.667L76.052,176.041z"/>
	<path style="fill:#FFFFFF;" d="M92.508,176.041h-7.66l5.582-8.067h7.667L92.508,176.041z"/>
	<path style="fill:#FFFFFF;" d="M108.964,176.041h-7.66l5.582-8.067h7.667L108.964,176.041z"/>
	<path style="fill:#FFFFFF;" d="M24.607,167.975l-3.272,4.724v3.343h5.35l5.589-8.067H24.607z"/>
	<path style="fill:#FFFFFF;" d="M128.266,167.975h-4.924l-5.582,8.067h7.66l2.846-4.104V167.975z"/>
</g>
<path style="fill:#7C6959;" d="M2.721,116.303h144.548v37.694H2.721L2.721,116.303z"/>
<g>
	<path style="fill:#FFFFFF;stroke:#FFFFFF;stroke-width:1.874;stroke-linejoin:round;stroke-miterlimit:10;" d="M13.856,116.303
		c0,3.233-2.619,5.853-5.853,5.853s-5.853-2.62-5.853-5.853H13.856z"/>
	<path style="fill:#FFFFFF;stroke:#FFFFFF;stroke-width:1.874;stroke-linejoin:round;stroke-miterlimit:10;" d="M25.562,116.303
		c0,3.233-2.621,5.853-5.853,5.853c-3.233,0-5.853-2.62-5.853-5.853H25.562z"/>
	<path style="fill:#FFFFFF;stroke:#FFFFFF;stroke-width:1.874;stroke-linejoin:round;stroke-miterlimit:10;" d="M37.269,116.303
		c0,3.233-2.621,5.853-5.853,5.853c-3.233,0-5.853-2.62-5.853-5.853H37.269z"/>
	<path style="fill:#FFFFFF;stroke:#FFFFFF;stroke-width:1.874;stroke-linejoin:round;stroke-miterlimit:10;" d="M124.426,116.303
		c0,3.233-2.621,5.853-5.853,5.853c-3.233,0-5.853-2.62-5.853-5.853C112.72,116.303,124.426,116.303,124.426,116.303z"/>
	<path style="fill:#FFFFFF;stroke:#FFFFFF;stroke-width:1.874;stroke-linejoin:round;stroke-miterlimit:10;" d="M136.133,116.303
		c0,3.233-2.62,5.853-5.853,5.853s-5.853-2.62-5.853-5.853H136.133z"/>
	<path style="fill:#FFFFFF;stroke:#FFFFFF;stroke-width:1.874;stroke-linejoin:round;stroke-miterlimit:10;" d="M147.839,116.303
		c0,3.233-2.621,5.853-5.853,5.853c-3.233,0-5.853-2.62-5.853-5.853C136.133,116.303,147.839,116.303,147.839,116.303z"/>
</g>
<g>
	<path style="fill:#7C6959;" d="M24.317,204.049h45.857v3.22H24.317V204.049z"/>
	<path style="fill:#7C6959;" d="M29.012,200.835H65.48v3.22H29.012L29.012,200.835z"/>
</g>
<path style="opacity:0.1;enable-background:new    ;" d="M47.662,178.848h10.52v21.98h-10.52V178.848z"/>
<path style="opacity:0.1;enable-background:new    ;" d="M36.313,178.848h10.52v21.98h-10.52L36.313,178.848z"/>
<g>
	<path style="fill:#7C6959;" d="M78.524,204.049h45.857v3.22H78.524L78.524,204.049z"/>
	<path style="fill:#7C6959;" d="M83.222,200.835h36.468v3.22H83.222V200.835z"/>
</g>
<path style="opacity:0.1;enable-background:new    ;" d="M101.872,178.848h10.52v21.98h-10.52V178.848z"/>
<path style="opacity:0.1;enable-background:new    ;" d="M90.514,178.848h10.52v21.98h-10.52V178.848z"/>
<path style="opacity:0.1;enable-background:new    ;" d="M1.985,157.378l146.019,3.672v-7.053H1.985L1.985,157.378z"/>
<path style="fill:#4C8BFB;" d="M0,153.997l74.994-74.994l74.994,74.994H0z"/>
<path style="fill:#B757C5;" d="M21.268,153.997l53.724-53.724l53.73,53.724H21.268z"/>
<path style="opacity:0.1;enable-background:new    ;" d="M128.724,153.997l-53.73-53.724l-6.834,6.834l18.715,17.405l31.699,29.485
	H128.724z"/>
<path style="fill:#FFDE00;" d="M56.247,146.44v-1.217c0-9.998,8.107-18.108,18.108-18.108c10,0,18.108,8.112,18.108,18.108v1.217
	H56.247"/>
<g>
	<path style="fill:#B757C5;" d="M73.064,123.047h2.581v23.511h-2.581V123.047z"/>
	<path style="fill:#B757C5;" d="M53.795,145.175h20.56v2.581h-20.56V145.175z"/>
	<path style="fill:#B757C5;" d="M74.355,145.175h23.51v2.581h-23.51V145.175z"/>
	<path style="fill:#B757C5;" d="M56.996,137.979h20.338v2.581H56.996V137.979z"/>
	<path style="fill:#B757C5;" d="M80.253,129.106h2.581v20.337h-2.581V129.106z"/>
</g>
<g>
	<path style="fill:none;stroke:#736357;stroke-width:4;stroke-miterlimit:10;" d="M19.193,107.042v8.712"/>
	<path style="fill:none;stroke:#736357;stroke-width:4;stroke-miterlimit:10;" d="M32.745,107.042v8.712"/>
	<path style="fill:none;stroke:#736357;stroke-width:4;stroke-miterlimit:10;" d="M116.637,103.874v11.884"/>
	<path style="fill:none;stroke:#736357;stroke-width:4;stroke-miterlimit:10;" d="M130.189,103.654v12.1"/>
</g>
<path style="fill:#F27B20;" d="M113.12,84.746c0,0,10.199-21.286,19.515-25.72c0,0-4.878,19.953,0.443,26.164l-19.956-0.445"/>
<path style="fill:#FFDF8A;" d="M135.733,96.278c0,6.858-5.557,12.418-12.415,12.418c-6.858,0-12.418-5.56-12.418-12.418
	s5.56-12.417,12.418-12.417C130.176,83.86,135.733,89.42,135.733,96.278"/>
<path style="fill:#FFFFFF;" d="M137.507,87.456c0,0.915-0.739,1.654-1.654,1.654h-24.677c-0.913,0-1.651-0.739-1.651-1.654v-3.03
	c0-0.915,0.739-1.654,1.651-1.654h24.677c0.915,0,1.654,0.739,1.654,1.654V87.456"/>
<g>
	<circle style="fill:#333333;" cx="117.999" cy="94.503" r="2.217"/>
	<path style="fill:#333333;" d="M130.415,94.503c0,1.223-0.995,2.217-2.218,2.217c-1.226,0-2.219-0.994-2.219-2.217
		s0.993-2.217,2.219-2.217C129.419,92.286,130.415,93.281,130.415,94.503"/>
</g>
<path style="fill:#FFFFFF;" d="M137.217,56.961c0,1.469-1.192,2.661-2.663,2.661c-1.469,0-2.659-1.192-2.659-2.661
	c0-1.474,1.19-2.661,2.659-2.661C136.025,54.299,137.217,55.487,137.217,56.961"/>
<g>
	<path style="fill:#FFDF8A;" d="M110.907,93.621l-4.139-5.621c0,0-2.364,14.49,5.616,12.717L110.907,93.621"/>
	<path style="fill:#FFDF8A;" d="M134.552,93.621l4.139-5.621c0,0,2.365,14.49-5.616,12.717L134.552,93.621"/>
</g>
</svg>
