<svg xmlns="http://www.w3.org/2000/svg" viewBox="-1.073 71.524 152.13 118.521" enable-background="new -1.073 71.524 152.13 118.521"><path d="M1.36 159.606h148.16v30.44H1.36v-30.44z" fill="#979797"/><path d="M6.95 161.158h4.66v28.575H6.95v-28.575zm43.174 0h4.66v28.575h-4.66v-28.575zm45.04 0h4.66v28.575h-4.66v-28.575zm43.486 0h4.658v28.575h-4.66v-28.575z" fill="#CACACA"/><path d="M149.523 172.652L1.36 163.646v-4.04h148.163v13.046z" opacity=".1" enable-background="new"/><path d="M43.76 78.98l-7.805-5.94v14.908l8.736-6.057-.93-2.91z" fill="#F5961D"/><path d="M43.76 81.186l-7.805 1.864v4.898l8.736-6.057-.93-.7z" opacity=".1" enable-background="new"/><path d="M60.765 78.98l7.804-5.94v14.908l-8.74-6.058.93-2.91z" fill="#F5961D"/><path d="M60.765 81.186l7.804 2.485v4.28l-8.74-6.06.93-.702z" opacity=".1" enable-background="new"/><g fill="none" stroke-width="6" stroke-miterlimit="10"><path d="M8.503 144.697v-30.284c0-2.563 2.044-4.66 4.543-4.66s4.543 2.045 4.543 4.544c0 2.5 2.092 4.543 4.654 4.543h29.82c2.562 0 4.658 2.097 4.658 4.66v17.006c0 2.563 2.097 4.66 4.66 4.66H80.02c2.563 0 4.66-2.098 4.66-4.66V107.66c0-2.564 2.043-4.66 4.542-4.66 2.5 0 4.543 2.097 4.543 4.66v20.113c0 2.563 1.468 4.66 3.26 4.66 1.795 0 3.262-2.098 3.262-4.66v-2.796c0-2.563 2.096-4.66 4.658-4.66h30.75c2.564 0 4.66 2.098 4.66 4.66v25.626" stroke="#286EE4"/><path d="M131.972 138.952v-26.87c0-2.562-2.097-4.658-4.66-4.658H106.58c-2.563 0-4.66 2.027-4.66 4.504 0 2.477-2.096 4.504-4.658 4.504h-3.106c-2.563 0-4.66 2.097-4.66 4.66v17.858" stroke="#36AF49"/><path d="M64.88 134.213l.202-31.217c.017-2.563-2.066-4.66-4.63-4.66s-4.658 1.888-4.658 4.194-2.097 4.193-4.66 4.193h-.93c-2.564 0-4.66 2.097-4.66 4.66v9.55c0 2.563-2.097 4.66-4.66 4.66h-21.43c-2.564 0-4.66 2.096-4.66 4.658v7.926" stroke="#FFDE00"/></g><path d="M23.026 93.315h12.82v44.72h-12.82v-44.72z" fill="#fff"/><path d="M35.847 94.95l-12.793 5.498v4.97l12.793-5.497v-4.97zm0 10.926l-12.793 5.498v4.97l12.793-5.497v-4.97zm-12.793 21.4l12.793-5.498v-4.97L23.054 122.3v4.976zm0 10.764h.382l12.41-5.336v-4.97l-12.792 5.497v4.81z" fill="#CB372D"/><path d="M67.833 93.315h12.82v44.72h-12.82v-44.72z" fill="#fff"/><path d="M80.65 94.95l-12.79 5.498v4.97l12.79-5.497v-4.97zm0 10.926l-12.79 5.498v4.97l12.79-5.497v-4.97zm-12.79 21.4l12.79-5.498v-4.97L67.86 122.3v4.976zm0 10.764h.383l12.407-5.336v-4.97l-12.79 5.497v4.81z" fill="#CB372D"/><path d="M112.715 93.315h12.82v44.72h-12.82v-44.72z" fill="#fff"/><path d="M125.538 94.95l-12.794 5.498v4.97l12.794-5.497v-4.97zm0 10.926l-12.794 5.498v4.97l12.794-5.497v-4.97zm-12.795 21.4l12.794-5.498v-4.97l-12.794 5.492v4.976zm0 10.764h.387l12.407-5.336v-4.97l-12.794 5.497v4.81z" fill="#CB372D"/><path d="M51.647 90.048h1.34v54.182h-1.34V90.048z" fill="#fff"/><circle cx="52.262" cy="80.842" r="9.318" fill="#F5961D"/><path d="M54.694 89.83c-2.334.077-4.692-.764-6.468-2.54-2.687-2.688-2.687-7.063 0-9.75 2.114-2.115 5.555-2.115 7.67 0 .8.8 1.243 1.867 1.243 3s-.447 2.2-1.25 3c-.622.625-1.452.97-2.333.97-.883 0-1.71-.344-2.335-.967-.994-.994-.995-2.61 0-3.604.367-.37.855-.576 1.375-.576h.003c.52 0 1.008.202 1.375.57.277.276.43.644.43 1.035 0 .39-.152.757-.43 1.034-.204.204-.474.316-.76.317h-.002c-.287 0-.558-.11-.76-.313-.3-.3-.3-.79 0-1.09.097-.1.23-.152.368-.152.14 0 .27.053.37.15.18.183.478.183.66 0 .184-.18.184-.476 0-.658-.272-.274-.64-.425-1.025-.425h-.003c-.386 0-.75.152-1.026.427-.662.662-.66 1.74 0 2.404.38.378.884.587 1.42.587h.002c.538 0 1.042-.21 1.42-.59.453-.45.702-1.052.702-1.69 0-.64-.25-1.244-.704-1.696-.543-.543-1.265-.842-2.033-.842-.77 0-1.49.3-2.033.844-1.358 1.355-1.357 3.563 0 4.92.8.8 1.863 1.24 2.993 1.24s2.194-.44 2.994-1.24c.978-.978 1.517-2.277 1.517-3.66s-.536-2.683-1.514-3.66c-2.478-2.477-6.51-2.477-8.988 0-3.05 3.052-3.05 8.017 0 11.068.908.907 1.955 1.59 3.07 2.06.53.095 1.07.152 1.627.152.84 0 1.652-.123 2.43-.332" fill="#fff"/><path d="M57.192 72.944c1.837 1.574 3.004 3.906 3.004 6.514 0 4.74-3.842 8.58-8.58 8.58-4.697 0-8.508-3.774-8.576-8.455-.056.412-.095.83-.095 1.258 0 5.15 4.172 9.32 9.318 9.32 5.148 0 9.318-4.17 9.318-9.32.006-3.33-1.75-6.25-4.384-7.892"/><path d="M.932 160.855v-1.95c0-16.025 12.994-29.027 29.022-29.027 16.03 0 29.027 13.002 29.027 29.027v1.95H.937" fill="#979797"/><path d="M13.934 159.154v-1.04c0-8.556 6.937-15.498 15.492-15.498 8.557 0 15.497 6.94 15.497 15.497v1.04h-30.99" fill="#FFDE00"/><path d="M29.428 139.134v20.118m0-.08L17.123 146.87m12.305 12.305l12.304-12.305" fill="none" stroke="#979797" stroke-width="4" stroke-miterlimit="10"/><path d="M45.972 160.855v-1.95c0-16.025 12.994-29.027 29.022-29.027 16.03 0 29.027 13.002 29.027 29.027v1.95H45.977" fill="#979797"/><path d="M58.972 159.154v-1.04c0-8.556 6.937-15.498 15.492-15.498 8.557 0 15.497 6.94 15.497 15.497v1.04H58.977" fill="#FFDE00"/><path d="M74.463 139.134v20.118m.005-.08L62.163 146.87m12.305 12.305l12.304-12.305" fill="none" stroke="#979797" stroke-width="4" stroke-miterlimit="10"/><path d="M91.008 160.855v-1.95c0-16.025 12.994-29.027 29.022-29.027 16.03 0 29.027 13.002 29.027 29.027v1.95h-58.05" fill="#979797"/><path d="M149.057 160.855v-1.95c0-16.025-13-29.027-29.027-29.027-9.087 0-17.196 4.183-22.518 10.725-5.323-6.542-13.433-10.725-22.523-10.725s-17.2 4.183-22.52 10.725c-5.326-6.542-13.436-10.725-22.526-10.725-16.028 0-29.022 13.002-29.022 29.027v1.95" fill="none" stroke="#CB372D" stroke-width="4" stroke-linecap="round" stroke-linejoin="round" stroke-miterlimit="10"/><path d="M104.012 159.154v-1.04c0-8.556 6.937-15.498 15.492-15.498 8.557 0 15.497 6.94 15.497 15.497v1.04h-30.984" fill="#FFDE00"/><path d="M119.504 139.134v20.118m0-.08L107.2 146.87m12.304 12.305l12.304-12.305" fill="none" stroke="#979797" stroke-width="4" stroke-miterlimit="10"/><path d="M21.375 169.144h7.895v15.87h-7.895v-15.87z" opacity=".1" enable-background="new"/><path d="M27.332 175.67h1.147v2.815h-1.15v-2.814z" fill="#85837D"/><path d="M29.736 169.144h7.895v15.87h-7.89v-15.87z" opacity=".1" enable-background="new"/><path d="M30.527 175.67h1.147v2.815h-1.147v-2.814z" fill="#85837D"/><path d="M19.53 184.766h20.345v2.174H19.53v-2.174zm-3.153 2.794H42.98v2.175H16.378v-2.174z" fill="#CACACA"/><path d="M66.57 169.144h7.896v15.87H66.57v-15.87z" opacity=".1" enable-background="new"/><path d="M72.525 175.67h1.147v2.815h-1.147v-2.814z" fill="#85837D"/><path d="M74.93 169.144h7.894v15.87H74.93v-15.87z" opacity=".1" enable-background="new"/><path d="M75.72 175.67h1.148v2.815H75.72v-2.814z" fill="#85837D"/><path d="M64.72 184.766h20.346v2.174H64.72v-2.174zm-3.15 2.794h26.605v2.175H61.57v-2.174z" fill="#CACACA"/><path d="M111.453 169.144h7.895v15.87h-7.895v-15.87z" opacity=".1" enable-background="new"/><path d="M117.412 175.67h1.147v2.815h-1.15v-2.814z" fill="#85837D"/><path d="M119.81 169.144h7.896v15.87h-7.895v-15.87z" opacity=".1" enable-background="new"/><path d="M120.603 175.67h1.147v2.815h-1.147v-2.814z" fill="#85837D"/><path d="M109.608 184.766h20.345v2.174h-20.345v-2.174zm-3.155 2.794h26.604v2.175h-26.604v-2.174z" fill="#CACACA"/></svg>