<?xml version="1.0" encoding="iso-8859-1"?>
<!-- Generator: Adobe Illustrator 18.0.0, SVG Export Plug-In . SVG Version: 6.00 Build 0)  -->
<!DOCTYPE svg PUBLIC "-//W3C//DTD SVG 1.1//EN" "http://www.w3.org/Graphics/SVG/1.1/DTD/svg11.dtd">
<svg version="1.1" id="Layer_1" xmlns="http://www.w3.org/2000/svg" xmlns:xlink="http://www.w3.org/1999/xlink" x="0px" y="0px"
	 viewBox="34.99 87.025 82.01 85.945" style="enable-background:new 34.99 87.025 82.01 85.945;" xml:space="preserve">
<path style="opacity:0.5;fill:#75CEF4;enable-background:new    ;" d="M37.716,159.728l9.874-53.082l11.523-10.882l7.523,4.172
	l14.812-10.882l9.171,10.585l10.343,5.515l6.585,15.507l7.054,39.365L37.716,159.728z"/>
<path style="fill:none;stroke:#75CEF4;stroke-width:3;stroke-miterlimit:10;" d="M37.716,159.728l9.874-53.082l11.523-10.882
	l7.523,4.172l14.812-10.882l9.171,10.585l10.343,5.515l6.585,15.507l7.054,39.365L37.716,159.728z"/>
<path style="opacity:0.36;fill:#0A3575;enable-background:new    ;" d="M40.779,159.283l10.109-31.162
	c0,0,12.226,15.358,11.523,15.358c-0.703,0,16.46-32.951,16.46-32.951l9.171,23.108l12.226-7.601l12.46,33.545H39.841"/>
<g>
	<circle style="fill:#FFFFFF;" cx="49.2" cy="158.088" r="7.726"/>
	<circle style="fill:#FFFFFF;" cx="42.716" cy="165.244" r="7.726"/>
	<circle style="fill:#FFFFFF;" cx="75.37" cy="157.861" r="7.726"/>
	<circle style="fill:#FFFFFF;" cx="55.762" cy="146.237" r="7.726"/>
	<circle style="fill:#FFFFFF;" cx="61.051" cy="134.379" r="7.726"/>
	<circle style="fill:#FFFFFF;" cx="85.658" cy="162.338" r="7.726"/>
	<circle style="fill:#FFFFFF;" cx="62.269" cy="153.541" r="12.054"/>
	<circle style="fill:#FFFFFF;" cx="70.097" cy="147.503" r="12.054"/>
	<circle style="fill:#FFFFFF;" cx="47.184" cy="149.667" r="3.015"/>
	<circle style="fill:#FFFFFF;" cx="41.818" cy="158.01" r="3.015"/>
	<circle style="fill:#FFFFFF;" cx="48.005" cy="145.862" r="3.015"/>
	<circle style="fill:#FFFFFF;" cx="64.41" cy="125.879" r="3.015"/>
	<circle style="fill:#FFFFFF;" cx="60.98" cy="123.348" r="3.015"/>
	<circle style="fill:#FFFFFF;" cx="53.075" cy="137.363" r="3.015"/>
	<circle style="fill:#FFFFFF;" cx="59.34" cy="127.301" r="3.015"/>
	<circle style="fill:#FFFFFF;" cx="70.073" cy="133.34" r="3.015"/>
	<circle style="fill:#FFFFFF;" cx="66.941" cy="130.73" r="3.015"/>
	<circle style="fill:#FFFFFF;" cx="75.886" cy="136.917" r="3.015"/>
	<circle style="fill:#FFFFFF;" cx="72.534" cy="134.23" r="3.015"/>
	<circle style="fill:#FFFFFF;" cx="82.596" cy="152.573" r="3.015"/>
	<circle style="fill:#FFFFFF;" cx="86.846" cy="155.033" r="3.015"/>
	<circle style="fill:#FFFFFF;" cx="80.807" cy="147.878" r="3.015"/>
	<circle style="fill:#FFFFFF;" cx="84.268" cy="127.801" r="7.726"/>
	<circle style="fill:#FFFFFF;" cx="82.346" cy="118.341" r="7.726"/>
	<circle style="fill:#FFFFFF;" cx="68.956" cy="149.018" r="7.726"/>
	<circle style="fill:#FFFFFF;" cx="96.369" cy="140.113" r="7.726"/>
	<circle style="fill:#FFFFFF;" cx="102.782" cy="157.221" r="7.726"/>
	<circle style="fill:#FFFFFF;" cx="102.782" cy="151.393" r="7.726"/>
	<circle style="fill:#FFFFFF;" cx="91.814" cy="152.268" r="7.726"/>
	<circle style="fill:#FFFFFF;" cx="59.254" cy="154.658" r="7.726"/>
	<circle style="fill:#FFFFFF;" cx="80.198" cy="141.027" r="12.054"/>
	<circle style="fill:#FFFFFF;" cx="80.424" cy="150.909" r="12.054"/>
	<circle style="fill:#FFFFFF;" cx="85.526" cy="142.105" r="12.054"/>
	<circle style="fill:#FFFFFF;" cx="92.252" cy="131.168" r="3.015"/>
	<circle style="fill:#FFFFFF;" cx="88.705" cy="121.903" r="3.015"/>
	<circle style="fill:#FFFFFF;" cx="94.83" cy="134.082" r="3.015"/>
	<circle style="fill:#FFFFFF;" cx="101.212" cy="159.127" r="3.015"/>
	<circle style="fill:#FFFFFF;" cx="113.985" cy="159.127" r="3.015"/>
	<circle style="fill:#FFFFFF;" cx="105.11" cy="143.198" r="3.015"/>
	<circle style="fill:#FFFFFF;" cx="110.055" cy="159.58" r="3.015"/>
	<circle style="fill:#FFFFFF;" cx="110.508" cy="155.283" r="3.015"/>
	<circle style="fill:#FFFFFF;" cx="91.853" cy="159.283" r="3.015"/>
	<circle style="fill:#FFFFFF;" cx="95.806" cy="158.307" r="3.015"/>
	<circle style="fill:#FFFFFF;" cx="85.526" cy="161.845" r="3.015"/>
	<circle style="fill:#FFFFFF;" cx="89.674" cy="160.736" r="3.015"/>
	<circle style="fill:#FFFFFF;" cx="68.933" cy="157.979" r="3.015"/>
	<circle style="fill:#FFFFFF;" cx="64.433" cy="159.947" r="3.015"/>
	<circle style="fill:#FFFFFF;" cx="73.776" cy="159.322" r="3.015"/>
</g>
</svg>
