<svg xmlns="http://www.w3.org/2000/svg" viewBox="0 365.1 611.6 477.6" enable-background="new 0 365.1 611.6 477.6"><path fill="none" stroke="#75CEF4" stroke-width="3" stroke-miterlimit="10" d="M31.4 807.2h561.4l-18-209.7-27.7-26.1-22-80.4-40.4-18.8-46.1 64.9-52.6 44.5-23.7-31.4-29.4 18-36.3-45.3 18.8-35.5-34.7-30.2-.8-64.1-45.3-26.1-48.6 51.8-37.1 34.7-82.8 12.2-34.7 341.5z"/><path opacity=".5" fill="#75CEF4" enable-background="new" d="M31.4 807.2h561.4l-18-209.7-27.7-26.1-22-80.4-40.4-18.8-46.1 64.9-52.6 44.5-23.7-31.4-29.4 18-36.3-45.3 18.8-35.5-34.7-30.2-.8-64.1-45.3-26.1-48.6 51.8-37.1 34.7-82.8 12.2-34.7 341.5z"/><path opacity=".36" fill="#0A3575" enable-background="new" d="M66.1 807.2h501l-19.6-135-47.3-11-32.6-76.7-82.8 144.8-41.2-117.9-59.6-11-37.5-63.2-68.1 159.1-43.7-66.9-68.6 177.8z"/><g fill="#fff"><circle cx="20" cy="814.6" r="20"/><circle cx="58.8" cy="807.2" r="27.3"/><circle cx="100.4" cy="802.8" r="19.6"/><circle cx="156.3" cy="801.1" r="41.6"/><circle cx="204" cy="763.2" r="51.8"/><circle cx="246.8" cy="703.6" r="44.1"/><circle cx="537.7" cy="802.3" r="33.5"/><circle cx="587.5" cy="809.7" r="24.1"/><circle cx="344.4" cy="620.8" r="15.5"/><circle cx="117.5" cy="778.3" r="15.5"/><circle cx="463.1" cy="757.1" r="45.7"/><circle cx="429.2" cy="716.3" r="28.6"/><circle cx="379.8" cy="668.5" r="53"/><circle cx="322.7" cy="644.4" r="20.8"/><circle cx="519.8" cy="761.1" r="20.8"/><circle cx="459.8" cy="709.3" r="20.8"/><circle cx="281.5" cy="660.4" r="30.6"/></g><path fill="#fff" d="M182.8 768.9h337v73.8h-337zm67.3-108.5h172.2v142H250.1z"/></svg>