<?xml version="1.0" encoding="iso-8859-1"?>
<!-- Generator: Adobe Illustrator 18.0.0, SVG Export Plug-In . SVG Version: 6.00 Build 0)  -->
<!DOCTYPE svg PUBLIC "-//W3C//DTD SVG 1.1//EN" "http://www.w3.org/Graphics/SVG/1.1/DTD/svg11.dtd">
<svg version="1.1" id="Layer_1" xmlns="http://www.w3.org/2000/svg" xmlns:xlink="http://www.w3.org/1999/xlink" x="0px" y="0px"
	 viewBox="-1.666 136.315 150.517 124.232" style="enable-background:new -1.666 136.315 150.517 124.232;" xml:space="preserve">
<path style="opacity:0.5;fill:#75CEF4;enable-background:new    ;" d="M0.584,235.081l6.544-44.564l3.775-9.096l2.014-15.23
	l9.566-0.682l5.789-18.188l8.56-5.686l10.821,3.639l13.846-7.278l22.256,10.871l7.976,13.162l7.772-7.435l13.846,5.91l6.793,18.416
	l7.554,5.685l7.803,50.928L0.584,235.081z"/>
<path style="fill:none;stroke:#75CEF4;stroke-width:3;stroke-miterlimit:10;" d="M0.584,235.081l6.544-44.564l3.775-9.096
	l2.014-15.23l9.566-0.682l5.789-18.188l8.56-5.686l10.821,3.639l13.846-7.278l22.256,10.871l7.976,13.162l7.772-7.435l13.846,5.91
	l6.793,18.416l7.554,5.685l7.803,50.928L0.584,235.081z"/>
<path style="opacity:0.36;fill:#0A3575;enable-background:new    ;" d="M6.121,234.17l14.095-39.561l15.101,26.373l16.111-54.795
	l12.838,39.107l22.655-24.101l10.32,23.419l15.859-18.188l5.286,17.734l7.048,3.865l8.81,27.055c0,0-128.371-1.136-128.119-0.909"/>
<g>
	<circle style="fill:#FFFFFF;" cx="40.104" cy="218.436" r="11.782"/>
	<circle style="fill:#FFFFFF;" cx="63.767" cy="187.335" r="11.782"/>
	<circle style="fill:#FFFFFF;" cx="102.645" cy="206.092" r="11.782"/>
	<circle style="fill:#FFFFFF;" cx="35.794" cy="231.588" r="18.386"/>
	<circle style="fill:#FFFFFF;" cx="55.915" cy="208.397" r="18.386"/>
	<circle style="fill:#FFFFFF;" cx="62.395" cy="230.565" r="18.386"/>
	<circle style="fill:#FFFFFF;" cx="83.54" cy="199.871" r="18.386"/>
	<circle style="fill:#FFFFFF;" cx="85.586" cy="224.085" r="18.386"/>
	<circle style="fill:#FFFFFF;" cx="108.094" cy="221.357" r="18.386"/>
	<circle style="fill:#FFFFFF;" cx="124.124" cy="242.16" r="18.386"/>
	<circle style="fill:#FFFFFF;" cx="53.082" cy="185.401" r="4.599"/>
	<circle style="fill:#FFFFFF;" cx="48.989" cy="189.947" r="4.599"/>
	<circle style="fill:#FFFFFF;" cx="76.043" cy="180.514" r="4.599"/>
	<circle style="fill:#FFFFFF;" cx="68.977" cy="174.952" r="6.183"/>
	<circle style="fill:#FFFFFF;" cx="102.14" cy="193.815" r="4.599"/>
	<circle style="fill:#FFFFFF;" cx="116.122" cy="205.069" r="4.599"/>
	<circle style="fill:#FFFFFF;" cx="128.905" cy="223.145" r="4.599"/>
	<circle style="fill:#FFFFFF;" cx="144.252" cy="234.74" r="4.599"/>
	<circle style="fill:#FFFFFF;" cx="135.726" cy="229.43" r="6.572"/>
	<circle style="fill:#FFFFFF;" cx="113.217" cy="199.272" r="4.599"/>
	<circle style="fill:#FFFFFF;" cx="6.13" cy="235.081" r="4.599"/>
	<circle style="fill:#FFFFFF;" cx="15.796" cy="234.965" r="4.599"/>
</g>
<circle style="fill:#FFFFFF;" cx="20.395" cy="232.386" r="11.782"/>
<circle style="fill:#FFFFFF;" cx="10.116" cy="238.17" r="11.782"/>
<circle style="fill:#FFFFFF;" cx="47.287" cy="193.815" r="4.599"/>
</svg>
