<?xml version="1.0" encoding="utf-8"?>
<!-- Generator: Adobe Illustrator 18.0.0, SVG Export Plug-In . SVG Version: 6.00 Build 0)  -->
<!DOCTYPE svg PUBLIC "-//W3C//DTD SVG 1.1//EN" "http://www.w3.org/Graphics/SVG/1.1/DTD/svg11.dtd">
<svg version="1.1" id="Layer_1" xmlns="http://www.w3.org/2000/svg" xmlns:xlink="http://www.w3.org/1999/xlink" x="0px" y="0px"
	 viewBox="8.6 453.8 612 390.4" enable-background="new 8.6 453.8 612 390.4" xml:space="preserve">
<path opacity="0.5" fill="#75CEF4" enable-background="new    " d="M24.1,804.2l22-175.8l41.2-26.5l38.8,25.7l45.7-58.8l-9.4-100
	l49.4-3.7l44.9-9.8l40,6.9l20,28.6l42.8,9.8l33.9,2.4l32.6,93l84,13.1l12.2,194.2L24.1,804.2z"/>
<path fill="none" stroke="#75CEF4" stroke-width="3" stroke-miterlimit="10" d="M24.1,804.2l22-175.8l41.2-26.5l38.8,25.7l45.7-58.8
	l-9.4-100l49.4-3.7l44.9-9.8l40,6.9l20,28.6l42.8,9.8l33.9,2.4l32.6,93l84,13.1l12.2,194.2L24.1,804.2z"/>
<path opacity="0.36" fill="#0A3575" enable-background="new    " d="M59.2,802.6l36.3-177.5l38.8,111c0,0,97.1-160.8,95.5-160.8
	S251,701.8,251,701.8l39.6-94.2l42.4,53.9L370.5,528l32.6,160.3l22.4-57.1l20,84l19.6,20.4l13.5,69L59.2,802.6"/>
<g>
	<circle fill="#FFFFFF" cx="319.9" cy="654.5" r="39.2"/>
	<circle fill="#FFFFFF" cx="353.4" cy="618.1" r="39.2"/>
	<circle fill="#FFFFFF" cx="533.7" cy="805" r="39.2"/>
	<circle fill="#FFFFFF" cx="234.6" cy="667.5" r="61.2"/>
	<circle fill="#FFFFFF" cx="481.5" cy="776.9" r="61.2"/>
	<circle fill="#FFFFFF" cx="449.6" cy="691.6" r="61.2"/>
	<circle fill="#FFFFFF" cx="396.2" cy="670.8" r="61.2"/>
	<circle fill="#FFFFFF" cx="111.8" cy="727.1" r="33"/>
	<circle fill="#FFFFFF" cx="101.6" cy="782.2" r="61.2"/>
	<circle fill="#FFFFFF" cx="154.7" cy="650.4" r="15.5"/>
	<circle fill="#FFFFFF" cx="139.2" cy="684.6" r="28.6"/>
	<circle fill="#FFFFFF" cx="291.8" cy="629.6" r="15.5"/>
	<circle fill="#FFFFFF" cx="275" cy="615.3" r="15.5"/>
	<circle fill="#FFFFFF" cx="247.3" cy="604.3" r="22"/>
	<circle fill="#FFFFFF" cx="510" cy="717.3" r="15.5"/>
	<circle fill="#FFFFFF" cx="585.9" cy="795.6" r="15.5"/>
	<circle fill="#FFFFFF" cx="605.1" cy="814" r="15.5"/>
	<circle fill="#FFFFFF" cx="563.9" cy="778.5" r="20.4"/>
	<circle fill="#FFFFFF" cx="24.1" cy="799.7" r="15.5"/>
	<circle fill="#FFFFFF" cx="44.1" cy="797.7" r="20.4"/>
	<circle fill="#FFFFFF" cx="539.8" cy="764.6" r="15.5"/>
	<circle fill="#FFFFFF" cx="439" cy="630.4" r="15.5"/>
	<circle fill="#FFFFFF" cx="391.3" cy="609.2" r="15.5"/>
	<circle fill="#FFFFFF" cx="381.9" cy="584.7" r="15.5"/>
</g>
<circle fill="#FFFFFF" cx="174.2" cy="670.4" r="22"/>
<rect x="132.6" y="684.6" fill="#FFFFFF" width="317" height="144.4"/>
</svg>
