<?xml version="1.0" encoding="utf-8"?>
<!-- Generator: Adobe Illustrator 18.0.0, SVG Export Plug-In . SVG Version: 6.00 Build 0)  -->
<!DOCTYPE svg PUBLIC "-//W3C//DTD SVG 1.1//EN" "http://www.w3.org/Graphics/SVG/1.1/DTD/svg11.dtd">
<svg version="1.1" id="Layer_1" xmlns="http://www.w3.org/2000/svg" xmlns:xlink="http://www.w3.org/1999/xlink" x="0px" y="0px"
	 viewBox="0 183.2 150 139.1" enable-background="new 0 183.2 150 139.1" xml:space="preserve">
<path opacity="0.5" fill="#75CEF4" enable-background="new    " d="M17.8,305.3l3.7-31.7l4.1-8.1l2.6-58.5l23.5,2.7l15.2,9.5
	l10.2-27.9l25.1-6.6l10.1,13.8l7.3-0.5l13.6,107.4L17.8,305.3z"/>
<path fill="none" stroke="#75CEF4" stroke-width="2.883" stroke-miterlimit="10" d="M17.8,305.3l3.7-31.7l4.1-8.1l2.6-58.5l23.5,2.7
	l15.2,9.5l10.2-27.9l25.1-6.6l10.1,13.8l7.3-0.5l13.6,107.4L17.8,305.3z"/>
<path opacity="0.36" fill="#0A3575" enable-background="new    " d="M26.4,304.9l15.3-55.1L53.8,288l21-53.9l15.1,60.3l9.1-45.5
	l8.2,34.6c0,0,12.3-10.6,11.4-10.6c-0.9,0,13.2,32.4,13.2,32.4L26.4,304.9"/>
<g>
	<circle fill="#FFFFFF" cx="71.4" cy="261.2" r="12.8"/>
	<circle fill="#FFFFFF" cx="41.7" cy="300.8" r="20"/>
	<circle fill="#FFFFFF" cx="62.1" cy="278.2" r="20"/>
	<circle fill="#FFFFFF" cx="101.3" cy="267.5" r="20"/>
	<circle fill="#FFFFFF" cx="110.5" cy="253.7" r="15.5"/>
	<circle fill="#FFFFFF" cx="136.6" cy="309" r="13.3"/>
	<circle fill="#FFFFFF" cx="5" cy="306.8" r="5"/>
	<circle fill="#FFFFFF" cx="33.6" cy="282.3" r="5"/>
	<circle fill="#FFFFFF" cx="38.4" cy="278.6" r="5"/>
	<circle fill="#FFFFFF" cx="36.6" cy="275.1" r="5"/>
	<circle fill="#FFFFFF" cx="43.2" cy="272.7" r="5"/>
	<circle fill="#FFFFFF" cx="58.4" cy="257.9" r="5"/>
	<circle fill="#FFFFFF" cx="62.5" cy="250.1" r="5"/>
	<circle fill="#FFFFFF" cx="82.8" cy="254.9" r="5"/>
	<circle fill="#FFFFFF" cx="91.1" cy="251.2" r="5"/>
	<circle fill="#FFFFFF" cx="87" cy="246.7" r="5"/>
	<circle fill="#FFFFFF" cx="126.8" cy="273.4" r="5"/>
	<circle fill="#FFFFFF" cx="123.7" cy="265.9" r="5"/>
	<circle fill="#FFFFFF" cx="117.9" cy="242.4" r="5"/>
	<circle fill="#FFFFFF" cx="112" cy="241" r="5"/>
	<circle fill="#FFFFFF" cx="139.2" cy="298.3" r="7.3"/>
	<circle fill="#FFFFFF" cx="136.1" cy="290.5" r="5"/>
	<circle fill="#FFFFFF" cx="14.3" cy="307.2" r="5"/>
	<circle fill="#FFFFFF" cx="19.4" cy="304.4" r="5"/>
</g>
<circle fill="#FFFFFF" cx="116.7" cy="289.7" r="20"/>
<rect x="48.2" y="265.9" fill="#FFFFFF" width="64.7" height="43.8"/>
</svg>
