<?xml version="1.0" encoding="iso-8859-1"?>
<!-- Generator: Adobe Illustrator 18.0.0, SVG Export Plug-In . SVG Version: 6.00 Build 0)  -->
<!DOCTYPE svg PUBLIC "-//W3C//DTD SVG 1.1//EN" "http://www.w3.org/Graphics/SVG/1.1/DTD/svg11.dtd">
<svg version="1.1" id="Layer_1" xmlns="http://www.w3.org/2000/svg" xmlns:xlink="http://www.w3.org/1999/xlink" x="0px" y="0px"
	 viewBox="0 67.947 149.99 124.349" style="enable-background:new 0 67.947 149.99 124.349;" xml:space="preserve">
<path style="fill:none;stroke:#75CEF4;stroke-width:3;stroke-miterlimit:10;" d="M7.696,177.686h137.642l-4.368-51.443l-6.754-6.355
	l-5.363-19.663l-9.93-4.567l-11.321,15.888l-12.912,10.925l-5.759-7.746l-7.15,4.368l-8.938-11.122l4.567-8.738l-8.539-7.35
	l-0.2-15.692l-11.122-6.355L45.634,82.548l-9.137,8.539l-20.259,2.979L7.696,177.686z"/>
<path style="opacity:0.5;fill:#75CEF4;enable-background:new    ;" d="M7.696,177.686h137.642l-4.368-51.443l-6.754-6.355
	l-5.363-19.663l-9.93-4.567l-11.321,15.888l-12.912,10.925l-5.759-7.746l-7.15,4.368l-8.938-11.122l4.567-8.738l-8.539-7.35
	l-0.2-15.692l-11.122-6.355L45.634,82.548l-9.137,8.539l-20.259,2.979L7.696,177.686z"/>
<path style="opacity:0.36;fill:#0A3575;enable-background:new    ;" d="M16.237,177.686h122.745l-4.767-33.07l-11.619-2.681
	l-8.044-18.769l-20.259,35.453L84.164,129.72l-14.598-2.681l-9.236-15.492l-16.684,39.028l-10.725-16.386L16.237,177.686z"/>
<g>
	<circle style="fill:#FFFFFF;" cx="4.916" cy="179.473" r="4.916"/>
	<circle style="fill:#FFFFFF;" cx="14.449" cy="177.686" r="6.705"/>
	<circle style="fill:#FFFFFF;" cx="24.579" cy="175.6" r="4.828"/>
	<circle style="fill:#FFFFFF;" cx="38.304" cy="176.155" r="10.183"/>
	<circle style="fill:#FFFFFF;" cx="50.004" cy="165.867" r="12.738"/>
	<circle style="fill:#FFFFFF;" cx="64.006" cy="175.103" r="12.738"/>
	<circle style="fill:#FFFFFF;" cx="60.509" cy="152.306" r="10.752"/>
	<circle style="fill:#FFFFFF;" cx="70.936" cy="163.031" r="10.752"/>
	<circle style="fill:#FFFFFF;" cx="93.62" cy="172.693" r="19.603"/>
	<circle style="fill:#FFFFFF;" cx="118.136" cy="177.051" r="12.463"/>
	<circle style="fill:#FFFFFF;" cx="131.832" cy="176.494" r="8.205"/>
	<circle style="fill:#FFFFFF;" cx="144.047" cy="178.282" r="5.943"/>
	<circle style="fill:#FFFFFF;" cx="84.423" cy="131.948" r="3.835"/>
	<circle style="fill:#FFFFFF;" cx="28.75" cy="170.536" r="3.835"/>
	<circle style="fill:#FFFFFF;" cx="113.492" cy="165.37" r="11.219"/>
	<circle style="fill:#FFFFFF;" cx="105.242" cy="155.386" r="6.993"/>
	<circle style="fill:#FFFFFF;" cx="93.051" cy="143.636" r="12.987"/>
	<circle style="fill:#FFFFFF;" cx="79.081" cy="137.815" r="5.056"/>
	<circle style="fill:#FFFFFF;" cx="69.616" cy="148.147" r="5.056"/>
	<circle style="fill:#FFFFFF;" cx="79.081" cy="147.89" r="5.056"/>
	<circle style="fill:#FFFFFF;" cx="127.363" cy="166.365" r="5.056"/>
	<circle style="fill:#FFFFFF;" cx="112.72" cy="153.727" r="5.056"/>
	<circle style="fill:#FFFFFF;" cx="81.879" cy="152.327" r="12.437"/>
	<circle style="fill:#FFFFFF;" cx="68.955" cy="141.649" r="7.472"/>
</g>
</svg>
