<svg xmlns="http://www.w3.org/2000/svg" viewBox="-1.554 57.377 151.545 146.82" enable-background="new -1.554 57.377 151.545 146.82"><g fill="#85827D"><path d="M113.776 84.96c-.694 0-1.256-.564-1.256-1.257v-8.306c0-.693-.564-1.256-1.257-1.256h-6.643c-2.08 0-3.77-1.69-3.77-3.768V66.38c0-.693-.563-1.256-1.256-1.256h-4.49c-.693 0-1.255-.563-1.255-1.257s.56-1.257 1.255-1.257h4.49c2.078 0 3.768 1.69 3.768 3.77v3.99c0 .694.564 1.257 1.256 1.257h6.642c2.078 0 3.77 1.69 3.77 3.77V83.7c0 .694-.563 1.256-1.256 1.257M103.646 79.952h-3.79c-2.08 0-3.77-1.69-3.77-3.77v-3.198c0-.694.562-1.256 1.256-1.256s1.256.563 1.256 1.256v3.2c0 .692.564 1.255 1.256 1.255h3.79c.694 0 1.258-.565 1.258-1.257v-2.597c0-.694.562-1.257 1.256-1.257s1.256.562 1.256 1.256v2.597c0 2.078-1.69 3.77-3.768 3.77M130.064 85.052c-.694 0-1.256-.563-1.256-1.257V75.49c0-2.08 1.69-3.77 3.77-3.77h6.642c.693 0 1.257-.564 1.257-1.256v-3.992c0-2.08 1.69-3.77 3.77-3.77h4.488c.694 0 1.256.564 1.256 1.258s-.56 1.257-1.255 1.257h-4.49c-.69 0-1.255.563-1.255 1.256v3.992c0 2.078-1.69 3.77-3.77 3.77h-6.642c-.692 0-1.256.563-1.256 1.255v8.306c0 .693-.563 1.256-1.258 1.256M143.987 80.045h-3.79c-2.08 0-3.77-1.69-3.77-3.77V73.68c0-.694.562-1.257 1.256-1.257s1.256.563 1.256 1.257v2.597c0 .693.563 1.256 1.255 1.256h3.79c.694 0 1.258-.564 1.258-1.256V73.08c0-.695.562-1.257 1.256-1.257s1.255.563 1.255 1.256v3.197c.002 2.077-1.69 3.768-3.768 3.768"/></g><g fill="none" stroke-miterlimit="10"><g stroke="#85827D" stroke-width="2"><path d="M116.175 198.454h12.737M116.175 191.806h12.737M116.175 142.956h12.737M115.906 133.507v70.69M128.944 133.507v70.69M116.175 136.016h12.737M64.837 198.454h12.737M64.837 191.515h12.737M64.837 184.58h12.737M64.837 177.642h12.737M64.568 175.04v29.15M77.602 175.04v29.15"/></g><g stroke="#A46D40" stroke-width="5.848"><path d="M57.772 164.28v39.917M84.146 148.67v55.522"/></g><path d="M110.97 123.642l-80.462 55.433" stroke="#B7C7D0" stroke-width="12.384" stroke-linecap="round" stroke-linejoin="round"/><path d="M112.052 128.49L31.59 183.92" stroke="#A46D40" stroke-width="5.848"/></g><g fill="#fff"><path d="M122.236 57.377l1.576 4.85h5.1l-4.13 2.997 1.577 4.852-4.124-3-4.13 3 1.577-4.852-4.123-2.998h5.1l1.576-4.85zM18.356 111.79l1.578 4.852h5.097l-4.124 2.998 1.576 4.848-4.125-2.998-4.125 2.998 1.576-4.848-4.125-2.998h5.1l1.573-4.853z"/></g><g fill="none" stroke="#A46D40" stroke-width="5.848" stroke-miterlimit="10"><path d="M108.994 133.507v70.69M136.444 133.507v70.69"/></g><path d="M137.882 131.355H107.38V92.162h30.503v39.193" fill="#FFD400"/><path d="M105.59 132.788h32.9" fill="none" stroke="#A46D40" stroke-width="5.848" stroke-miterlimit="10"/><path d="M137.882 184.905H107.38v-39.193h30.503v39.193" fill="#50B548"/><path d="M137.882 149.286H107.38v-4.148h30.503v4.148" opacity=".1" enable-background="new"/><path d="M139.496 186.338H56.79" fill="none" stroke="#A46D40" stroke-width="5.848" stroke-miterlimit="10"/><path d="M137.525 90.96h-30.612l15.306-23.037 15.305 23.036z" fill="#EE3837"/><circle cx="112.683" cy="98.448" r="3.074" fill="#fff"/><circle cx="113.062" cy="99.656" r="1.762" fill="#333"/><circle cx="132.343" cy="98.448" r="3.074" fill="#fff"/><circle cx="131.959" cy="99.656" r="1.762" fill="#333"/><path d="M107.38 92.156h30.503v2.834H107.38v-2.834z" opacity=".1" enable-background="new"/><g fill="none" stroke-miterlimit="10"><path d="M139.496 90.625h-33.91" stroke="#fff" stroke-width="6.88" stroke-linecap="round" stroke-linejoin="round"/><path d="M32.748 187.326v16.865" stroke="#A46D40" stroke-width="5.848"/></g><path d="M34.18 185.174H3.685V145.98H34.18v39.194" fill="#00ABEC"/><path d="M34.18 148.748H3.685v-3.123H34.18v3.123" opacity=".1" enable-background="new"/><path d="M35.795 186.612H1.885" fill="none" stroke="#A46D40" stroke-width="5.848" stroke-miterlimit="10"/><path d="M33.824 144.784H3.214l15.304-23.036 15.306 23.036z" fill="#EE3837"/><g fill="none" stroke="#fff" stroke-width="6.88" stroke-linecap="round" stroke-linejoin="round" stroke-miterlimit="10"><path d="M35.795 144.45H1.885M139.496 145.35h-33.91"/></g><circle cx="18.677" cy="165.207" r="6.573" fill="#B757C5"/><path d="M113.276 118.74c0 5.052 4.096 9.15 9.15 9.15 5.053 0 9.15-4.098 9.15-9.15" fill="none" stroke="#fff" stroke-width="2" stroke-miterlimit="10"/><circle cx="112.683" cy="152.805" r="3.074" fill="#fff"/><circle cx="111.986" cy="151.981" r="1.762" fill="#333"/><circle cx="132.343" cy="152.805" r="3.074" fill="#fff"/><circle cx="131.124" cy="152.223" r="1.762" fill="#333"/><path d="M113.276 173.096c0 5.053 4.096 9.15 9.15 9.15 5.053 0 9.15-4.096 9.15-9.15" fill="none" stroke="#fff" stroke-width="2" stroke-miterlimit="10"/><circle cx="9.162" cy="152.805" r="3.074" fill="#fff"/><circle cx="10.619" cy="152.338" r="1.762" fill="#333"/><circle cx="28.823" cy="152.805" r="3.074" fill="#fff"/><circle cx="29.756" cy="152.58" r="1.762" fill="#333"/><path d="M9.755 173.096c0 5.053 4.097 9.15 9.15 9.15s9.15-4.096 9.15-9.15" fill="none" stroke="#fff" stroke-width="2" stroke-miterlimit="10"/><circle cx="122.549" cy="165.207" r="6.573" fill="#FFD400"/><circle cx="122.549" cy="111.487" r="6.573" fill="#EE3837"/><path d="M8.03 187.326v16.865" fill="none" stroke="#A46D40" stroke-width="5.848" stroke-miterlimit="10"/></svg>