<svg xmlns="http://www.w3.org/2000/svg" xmlns:xlink="http://www.w3.org/1999/xlink" version="1.1" id="Layer_1" x="0px" y="0px" viewBox="0 0 800 800" enable-background="new 0 0 800 800" xml:space="preserve"><path fill="#979797" d="M11.7 623.1h779.1v160.1H11.7V623.1z"/><path fill="#CACACA" d="M41.1 631.2h24.5v150.3H41.1V631.2z M268.2 631.2h24.5v150.3h-24.5V631.2z M505 631.2h24.5v150.3H505V631.2z M733.7 631.2h24.5v150.3h-24.5L733.7 631.2L733.7 631.2z"/><path opacity="0.1" enable-background="new    " d="M790.9 691.7L11.7 644.3v-21.2h779.1V691.7L790.9 691.7z"/><path fill="#F5961D" d="M234.7 199.1l-41-31.2v78.4l45.9-31.9L234.7 199.1L234.7 199.1z"/><path fill="#DA8629" enable-background="new    " d="M234.7 210.7l-41 9.8v25.8l45.9-31.9L234.7 210.7L234.7 210.7z"/><path fill="#F5961D" d="M324.1 199.1l41-31.2v78.4l-46-31.9L324.1 199.1L324.1 199.1z"/><path fill="#DA8629" enable-background="new    " d="M324.1 210.7l41 13.1v22.5l-46-31.9L324.1 210.7L324.1 210.7z"/><g><path fill="none" stroke="#286EE4" stroke-width="6" stroke-miterlimit="10" d="M49.3 544.7V385.4c0-13.5 10.7-24.5 23.9-24.5 s23.9 10.8 23.9 23.9c0 13.1 11 23.9 24.5 23.9h156.8c13.5 0 24.5 11 24.5 24.5v89.4c0 13.5 11 24.5 24.5 24.5h98 c13.5 0 24.5-11 24.5-24.5V349.9c0-13.5 10.7-24.5 23.9-24.5c13.1 0 23.9 11 23.9 24.5v105.8c0 13.5 7.7 24.5 17.1 24.5 c9.4 0 17.2-11 17.2-24.5V441c0-13.5 11-24.5 24.5-24.5h161.7c13.5 0 24.5 11 24.5 24.5v134.8"/><path fill="none" stroke="#36AF49" stroke-width="6" stroke-miterlimit="10" d="M698.6 514.5V373.2c0-13.5-11-24.5-24.5-24.5H565 c-13.5 0-24.5 10.7-24.5 23.7c0 13-11 23.7-24.5 23.7h-16.3c-13.5 0-24.5 11-24.5 24.5v93.9"/><path fill="none" stroke="#FFDE00" stroke-width="6" stroke-miterlimit="10" d="M345.8 489.6l1.1-164.2 c0.1-13.5-10.9-24.5-24.3-24.5c-13.5 0-24.5 9.9-24.5 22.1s-11 22-24.5 22h-4.9c-13.5 0-24.5 11-24.5 24.5v50.2 c0 13.5-11 24.5-24.5 24.5H106.9c-13.5 0-24.5 11-24.5 24.5v41.7"/></g><path fill="#FFFFFF" d="M125.7 274.5h67.4v235.2h-67.4L125.7 274.5L125.7 274.5z"/><path fill="#CB372D" d="M193.1 283.1L125.8 312v26.1l67.3-28.9V283.1L193.1 283.1z M193.1 340.5l-67.3 28.9v26.1l67.3-28.9V340.5 L193.1 340.5z M125.8 453.1l67.3-28.9V398l-67.3 28.9V453.1z M125.8 509.7h2l65.3-28.1v-26.1l-67.3 28.9V509.7L125.8 509.7z"/><path fill="#FFFFFF" d="M361.3 274.5h67.4v235.2h-67.4V274.5z"/><path fill="#CB372D" d="M428.7 283.1L361.4 312v26.1l67.3-28.9V283.1L428.7 283.1z M428.7 340.5l-67.3 28.9v26.1l67.3-28.9V340.5 L428.7 340.5z M361.4 453.1l67.3-28.9V398l-67.3 28.9V453.1z M361.4 509.7h2l65.2-28.1v-26.1l-67.3 28.9V509.7L361.4 509.7z"/><path fill="#FFFFFF" d="M597.3 274.5h67.4v235.2h-67.4V274.5z"/><path fill="#CB372D" d="M664.7 283.1L597.5 312v26.1l67.3-28.9V283.1L664.7 283.1z M664.7 340.5l-67.3 28.9v26.1l67.3-28.9V340.5 L664.7 340.5z M597.4 453.1l67.3-28.9V398l-67.3 28.9V453.1L597.4 453.1z M597.4 509.7h2l65.2-28.1v-26.1l-67.3 28.9V509.7 L597.4 509.7z"/><path fill="#FFFFFF" d="M276.2 257.3h7v284.9h-7V257.3z"/><circle fill="#F5961D" cx="279.4" cy="208.9" r="49"/><path fill="#FFFFFF" d="M292.2 256.2c-12.3 0.4-24.7-4-34-13.4c-14.1-14.1-14.1-37.1 0-51.3c11.1-11.1 29.2-11.1 40.3 0 c4.2 4.2 6.5 9.8 6.5 15.8c0 6-2.4 11.6-6.6 15.8c-3.3 3.3-7.6 5.1-12.3 5.1c-4.6 0-9-1.8-12.3-5.1c-5.2-5.2-5.2-13.7 0-19 c1.9-1.9 4.5-3 7.2-3h0c2.7 0 5.3 1.1 7.2 3c1.5 1.5 2.3 3.4 2.3 5.4c0 2.1-0.8 4-2.3 5.4c-1.1 1.1-2.5 1.7-4 1.7h0 c-1.5 0-2.9-0.6-4-1.7c-1.6-1.6-1.6-4.2 0-5.7c0.5-0.5 1.2-0.8 1.9-0.8c0.7 0 1.4 0.3 1.9 0.8c0.9 1 2.5 1 3.5 0c1-0.9 1-2.5 0-3.5 c-1.4-1.4-3.4-2.2-5.4-2.2h0c-2 0-3.9 0.8-5.4 2.3c-3.5 3.5-3.5 9.2 0 12.6c2 2 4.6 3.1 7.5 3.1h0c2.8 0 5.5-1.1 7.5-3.1 c2.4-2.4 3.7-5.5 3.7-8.9c0-3.4-1.3-6.5-3.7-8.9c-2.9-2.9-6.7-4.4-10.7-4.4c-4 0-7.8 1.6-10.7 4.4c-7.1 7.1-7.1 18.7 0 25.9 c4.2 4.2 9.8 6.5 15.7 6.5s11.5-2.3 15.7-6.5c5.1-5.1 8-12 8-19.2c0-7.3-2.8-14.1-8-19.2c-13-13-34.2-13-47.3 0 c-16 16-16 42.2 0 58.2c4.8 4.8 10.3 8.4 16.1 10.8c2.8 0.5 5.6 0.8 8.6 0.8C283.8 257.9 288.1 257.2 292.2 256.2"/><path fill="#DA8629" enable-background="new    " d="M305.3 167.4c9.7 8.3 15.8 20.5 15.8 34.3c0 24.9-20.2 45.1-45.1 45.1 c-24.7 0-44.7-19.8-45.1-44.5c-0.3 2.2-0.5 4.4-0.5 6.6c0 27.1 21.9 49 49 49c27.1 0 49-21.9 49-49 C328.4 191.4 319.2 176 305.3 167.4"/><path fill="#979797" d="M9.5 629.7v-10.3c0-84.3 68.3-152.6 152.6-152.6c84.3 0 152.6 68.4 152.6 152.6v10.3H9.5"/><path fill="#FFDE00" d="M77.8 620.7v-5.5c0-45 36.5-81.5 81.5-81.5c45 0 81.5 36.5 81.5 81.5v5.5L77.8 620.7"/><path fill="none" stroke="#979797" stroke-width="4" stroke-miterlimit="10" d="M159.3 515.4v105.8 M159.3 620.8l-64.7-64.7 M159.3 620.8l64.7-64.7"/><path fill="#979797" d="M246.3 629.7v-10.3c0-84.3 68.3-152.6 152.6-152.6c84.3 0 152.6 68.4 152.6 152.6v10.3H246.3"/><path fill="#FFDE00" d="M314.7 620.7v-5.5c0-45 36.5-81.5 81.5-81.5c45 0 81.5 36.5 81.5 81.5v5.5L314.7 620.7"/><path fill="none" stroke="#979797" stroke-width="4" stroke-miterlimit="10" d="M396.1 515.4v105.8 M396.2 620.8l-64.7-64.7 M396.2 620.8l64.7-64.7"/><path fill="#979797" d="M483.1 629.7v-10.3c0-84.3 68.3-152.6 152.6-152.6c84.3 0 152.6 68.4 152.6 152.6v10.3H483.1"/><path fill="none" stroke="#CB372D" stroke-width="4" stroke-linecap="round" stroke-linejoin="round" stroke-miterlimit="10" d=" M788.4 629.7v-10.3c0-84.3-68.4-152.6-152.6-152.6c-47.8 0-90.4 22-118.4 56.4c-28-34.4-70.6-56.4-118.4-56.4s-90.4 22-118.4 56.4 c-28-34.4-70.7-56.4-118.5-56.4c-84.3 0-152.6 68.4-152.6 152.6v10.3"/><path fill="#FFDE00" d="M551.5 620.7v-5.5c0-45 36.5-81.5 81.5-81.5c45 0 81.5 36.5 81.5 81.5v5.5L551.5 620.7"/><path fill="none" stroke="#979797" stroke-width="4" stroke-miterlimit="10" d="M633 515.4v105.8 M633 620.8l-64.7-64.7 M633 620.8 l64.7-64.7"/><path opacity="0.1" enable-background="new    " d="M117 673.2h41.5v83.5H117V673.2z"/><path fill="#85837D" d="M148.3 707.6h6v14.8h-6L148.3 707.6L148.3 707.6z"/><path opacity="0.1" enable-background="new    " d="M160.9 673.2h41.5v83.5H161L160.9 673.2L160.9 673.2z"/><path fill="#85837D" d="M165.1 707.6h6v14.8h-6V707.6L165.1 707.6z"/><path fill="#CACACA" d="M107.3 755.4h107v11.4h-107V755.4z M90.7 770.1h139.9v11.4H90.7L90.7 770.1L90.7 770.1z"/><path opacity="0.1" enable-background="new    " d="M354.6 673.2h41.5v83.5h-41.5V673.2z"/><path fill="#85837D" d="M386 707.6h6v14.8h-6V707.6L386 707.6z"/><path opacity="0.1" enable-background="new    " d="M398.6 673.2h41.5v83.5h-41.5V673.2z"/><path fill="#85837D" d="M402.8 707.6h6v14.8h-6V707.6L402.8 707.6z"/><path fill="#CACACA" d="M344.9 755.4h107v11.4h-107V755.4z M328.3 770.1h139.9v11.4H328.3V770.1L328.3 770.1z"/><path opacity="0.1" enable-background="new    " d="M590.7 673.2h41.5v83.5h-41.5V673.2z"/><path fill="#85837D" d="M622 707.6h6v14.8h-6L622 707.6L622 707.6z"/><path opacity="0.1" enable-background="new    " d="M634.6 673.2h41.5v83.5h-41.5L634.6 673.2L634.6 673.2z"/><path fill="#85837D" d="M638.8 707.6h6v14.8h-6V707.6L638.8 707.6z"/><path fill="#CACACA" d="M581 755.4h107v11.4H581V755.4z M564.4 770.1h139.9v11.4H564.4V770.1L564.4 770.1z"/><g><defs><path id="SVGID_1_" d="M305.3 167.4c9.7 8.3 15.8 20.5 15.8 34.3c0 24.9-20.2 45.1-45.1 45.1c-24.7 0-44.7-19.8-45.1-44.5 c-0.3 2.2-0.5 4.4-0.5 6.6c0 27.1 21.9 49 49 49c27.1 0 49-21.9 49-49C328.4 191.4 319.2 176 305.3 167.4"/></defs><clipPath id="SVGID_2_"><use xlink:href="#SVGID_1_" overflow="visible"/></clipPath><path clip-path="url(#SVGID_2_)" fill="#C1C1C1" d="M292.2 256.1c-12.3 0.4-24.7-4-34-13.4c-14.1-14.1-14.1-37.1 0-51.3 c11.1-11.1 29.2-11.1 40.3 0c4.2 4.2 6.5 9.8 6.5 15.8s-2.4 11.6-6.6 15.8c-3.3 3.3-7.6 5.1-12.3 5.1c-4.6 0-9-1.8-12.3-5.1 c-5.2-5.2-5.2-13.7 0-19c1.9-1.9 4.5-3 7.2-3h0c2.7 0 5.3 1.1 7.2 3c1.5 1.5 2.3 3.4 2.3 5.4c0 2.1-0.8 4-2.3 5.4 c-1.1 1.1-2.5 1.7-4 1.7h0c-1.5 0-2.9-0.6-4-1.7c-1.6-1.6-1.6-4.2 0-5.7c0.5-0.5 1.2-0.8 1.9-0.8c0.7 0 1.4 0.3 1.9 0.8 c0.9 1 2.5 1 3.5 0c1-0.9 1-2.5 0-3.5c-1.4-1.4-3.4-2.2-5.4-2.2h0c-2 0-3.9 0.8-5.4 2.3c-3.5 3.5-3.5 9.2 0 12.6 c2 2 4.6 3.1 7.5 3.1h0c2.8 0 5.5-1.1 7.5-3.1c2.4-2.4 3.7-5.5 3.7-8.9c0-3.4-1.3-6.5-3.7-8.9c-2.9-2.9-6.7-4.4-10.7-4.4 c-4 0-7.8 1.6-10.7 4.4c-7.1 7.1-7.1 18.7 0 25.9c4.2 4.2 9.8 6.5 15.7 6.5s11.5-2.3 15.7-6.5c5.1-5.1 8-12 8-19.2 c0-7.3-2.8-14.1-8-19.2c-13-13-34.2-13-47.3 0c-16 16-16 42.2 0 58.2c4.8 4.8 10.3 8.4 16.1 10.8c2.8 0.5 5.6 0.8 8.6 0.8 C283.9 257.8 288.2 257.1 292.2 256.1"/></g></svg>