<?xml version="1.0" encoding="iso-8859-1"?>
<!-- Generator: Adobe Illustrator 18.0.0, SVG Export Plug-In . SVG Version: 6.00 Build 0)  -->
<!DOCTYPE svg PUBLIC "-//W3C//DTD SVG 1.1//EN" "http://www.w3.org/Graphics/SVG/1.1/DTD/svg11.dtd">
<svg version="1.1" id="Layer_1" xmlns="http://www.w3.org/2000/svg" xmlns:xlink="http://www.w3.org/1999/xlink" x="0px" y="0px"
	 viewBox="0 36.98 149.99 186.737" style="enable-background:new 0 36.98 149.99 186.737;" xml:space="preserve">
<path style="opacity:0.5;fill:#75CEF4;enable-background:new    ;" d="M17.716,198.156l3.369-55.135l2.453-15.006l4.098-35.144
	L46.599,71.74l12.644-26.957l33.711-6.186l12.723,12.683l9.869,31.202l13.237,8.592l5.812,81.049l2.812,26.952L17.716,198.156z"/>
<path style="fill:none;stroke:#75CEF4;stroke-width:3;stroke-miterlimit:10;" d="M17.716,198.156l3.369-55.135l2.453-15.006
	l4.098-35.144L46.599,71.74l12.644-26.957l33.711-6.186l12.723,12.683l9.869,31.202l13.237,8.592l5.812,81.049l2.812,26.952
	L17.716,198.156z"/>
<path style="opacity:0.36;fill:#0A3575;enable-background:new    ;" d="M23.249,197.545l10.558-63.714l5.082,2.835L59.326,92.48
	l14.593,37.805l18.81-28.505l12.139,41.664l10.462-19.752l19.918,75.384L23.249,197.545z"/>
<g>
	<circle style="fill:#FFFFFF;" cx="36.587" cy="197.545" r="24.771"/>
	<circle style="fill:#FFFFFF;" cx="49.452" cy="156.653" r="24.771"/>
	<circle style="fill:#FFFFFF;" cx="69.209" cy="191.112" r="24.771"/>
	<circle style="fill:#FFFFFF;" cx="13.777" cy="203.518" r="13.777"/>
	<circle style="fill:#FFFFFF;" cx="48.239" cy="131.382" r="13.777"/>
	<circle style="fill:#FFFFFF;" cx="95.407" cy="197.393" r="13.777"/>
	<circle style="fill:#FFFFFF;" cx="108.038" cy="195.592" r="7.272"/>
	<circle style="fill:#FFFFFF;" cx="117.687" cy="201.106" r="7.272"/>
	<circle style="fill:#FFFFFF;" cx="76.978" cy="165.842" r="7.272"/>
	<circle style="fill:#FFFFFF;" cx="65.032" cy="135.517" r="7.272"/>
	<circle style="fill:#FFFFFF;" cx="60.897" cy="123.112" r="7.272"/>
	<circle style="fill:#FFFFFF;" cx="54.005" cy="114.382" r="7.272"/>
	<circle style="fill:#FFFFFF;" cx="29.194" cy="172.734" r="7.272"/>
	<circle style="fill:#FFFFFF;" cx="86.168" cy="163.085" r="8.718"/>
	<circle style="fill:#FFFFFF;" cx="76.56" cy="155.274" r="6.097"/>
	<circle style="fill:#FFFFFF;" cx="90.303" cy="176.869" r="8.718"/>
	<circle style="fill:#FFFFFF;" cx="123.421" cy="186.789" r="20.85"/>
	<circle style="fill:#FFFFFF;" cx="90.413" cy="152.775" r="20.85"/>
	<circle style="fill:#FFFFFF;" cx="95.132" cy="185.875" r="20.85"/>
	<circle style="fill:#FFFFFF;" cx="121.224" cy="199.571" r="11.597"/>
	<circle style="fill:#FFFFFF;" cx="78.141" cy="135.37" r="11.597"/>
	<path style="fill:#FFFFFF;" d="M99.414,135.687c3.949,5.982,12.255,7.01,17.542,2.173c4.158-3.805,4.952-10.195,1.847-14.903
		c-3.949-5.982-12.255-7.01-17.542-2.173C97.098,124.591,96.309,130.98,99.414,135.687"/>
	<path style="fill:#FFFFFF;" d="M91.281,135.191c2.835,4.294,8.799,5.032,12.594,1.56c2.987-2.732,3.555-7.32,1.325-10.698
		c-2.835-4.294-8.799-5.033-12.594-1.56C89.619,127.225,89.051,131.813,91.281,135.191"/>
	<path style="fill:#FFFFFF;" d="M97.456,122.446c1.923,2.913,5.968,3.414,8.544,1.058c2.026-1.852,2.412-4.966,0.899-7.257
		c-1.923-2.913-5.968-3.414-8.544-1.058C96.329,117.04,95.943,120.154,97.456,122.446"/>
	<path style="fill:#FFFFFF;" d="M105.244,147.496c3.302,5.002,10.248,5.862,14.671,1.817c3.479-3.182,4.14-8.527,1.543-12.461
		c-3.302-5.002-10.248-5.862-14.671-1.817C103.309,138.217,102.647,143.562,105.244,147.496"/>
	<circle style="fill:#FFFFFF;" cx="118.537" cy="159.86" r="11.597"/>
	<circle style="fill:#FFFFFF;" cx="80.989" cy="203.601" r="11.597"/>
	<circle style="fill:#FFFFFF;" cx="71.676" cy="208.939" r="6.121"/>
	<circle style="fill:#FFFFFF;" cx="68.124" cy="217.596" r="6.121"/>
	<circle style="fill:#FFFFFF;" cx="76.896" cy="173.12" r="6.121"/>
	<circle style="fill:#FFFFFF;" cx="69.131" cy="146.806" r="6.121"/>
	<circle style="fill:#FFFFFF;" cx="65.455" cy="136.432" r="6.121"/>
	<circle style="fill:#FFFFFF;" cx="65.515" cy="127.073" r="6.121"/>
	<circle style="fill:#FFFFFF;" cx="110.831" cy="167.9" r="8.59"/>
	<circle style="fill:#FFFFFF;" cx="141.399" cy="201.106" r="8.59"/>
	<circle style="fill:#FFFFFF;" cx="69.37" cy="176.047" r="7.338"/>
	<circle style="fill:#FFFFFF;" cx="71.704" cy="165.888" r="5.131"/>
	<circle style="fill:#FFFFFF;" cx="73.757" cy="187.34" r="7.338"/>
</g>
</svg>
