<?xml version="1.0" encoding="utf-8"?>
<!-- Generator: Adobe Illustrator 18.0.0, SVG Export Plug-In . SVG Version: 6.00 Build 0)  -->
<!DOCTYPE svg PUBLIC "-//W3C//DTD SVG 1.1//EN" "http://www.w3.org/Graphics/SVG/1.1/DTD/svg11.dtd">
<svg version="1.1" id="Layer_1" xmlns="http://www.w3.org/2000/svg" xmlns:xlink="http://www.w3.org/1999/xlink" x="0px" y="0px"
	 viewBox="0 123.1 150 132.8" enable-background="new 0 123.1 150 132.8" xml:space="preserve">
<path opacity="0.5" fill="#75CEF4" enable-background="new    " d="M29.8,242.8l1.3-41.9l9.9-11.6l-12-20.9l42.2-31.1l33.1-12.3
	l13.8,32.3l-16.8,13.3c0,0,8.6,19.7,7.3,19.9c-1.4,0.2,9.1,4.5,9.1,4.5l27.4,47.7"/>
<path fill="none" stroke="#75CEF4" stroke-width="3" stroke-miterlimit="10" d="M29.8,242.8l1.3-41.9l9.9-11.6l-12-20.9l42.2-31.1
	l33.1-12.3l13.8,32.3l-16.8,13.3c0,0,8.6,19.7,7.3,19.9c-1.4,0.2,9.1,4.5,9.1,4.5l27.4,47.7"/>
<path opacity="0.36" fill="#0A3575" enable-background="new    " d="M30.4,242.5l0.5-28.2l12-13.7l1.9-29l26,38.5L81,175.8l7.3,42.5
	l7.4-29.8l8.5,54.4L30.4,242.5z"/>
<g>
	<circle fill="#FFFFFF" cx="4.7" cy="243.4" r="4.7"/>
	<circle fill="#FFFFFF" cx="43.9" cy="209.4" r="13.6"/>
	<circle fill="#FFFFFF" cx="56.1" cy="190.5" r="13.6"/>
	<circle fill="#FFFFFF" cx="98.3" cy="192.9" r="13.6"/>
	<circle fill="#FFFFFF" cx="49.3" cy="231.5" r="24.5"/>
	<circle fill="#FFFFFF" cx="100.3" cy="215.3" r="21.2"/>
	<circle fill="#FFFFFF" cx="26.4" cy="233.8" r="5.3"/>
	<circle fill="#FFFFFF" cx="19.8" cy="241.6" r="5.3"/>
	<circle fill="#FFFFFF" cx="42.7" cy="196" r="5.3"/>
	<circle fill="#FFFFFF" cx="54.6" cy="176.3" r="5.3"/>
	<circle fill="#FFFFFF" cx="60.5" cy="180.7" r="5.3"/>
	<circle fill="#FFFFFF" cx="73.1" cy="195.2" r="5.3"/>
	<circle fill="#FFFFFF" cx="84.9" cy="194.4" r="7.4"/>
	<circle fill="#FFFFFF" cx="94.7" cy="180.3" r="5.3"/>
	<circle fill="#FFFFFF" cx="142.4" cy="236.8" r="7.6"/>
	<circle fill="#FFFFFF" cx="136.8" cy="227.9" r="5.3"/>
	<circle fill="#FFFFFF" cx="128.2" cy="219.3" r="5.3"/>
	<circle fill="#FFFFFF" cx="135.3" cy="222.4" r="5.3"/>
	<circle fill="#FFFFFF" cx="132.9" cy="215.7" r="5.3"/>
	<circle fill="#FFFFFF" cx="119.1" cy="212.8" r="7.7"/>
	<circle fill="#FFFFFF" cx="110.5" cy="190.1" r="5.3"/>
	<circle fill="#FFFFFF" cx="114.8" cy="196.8" r="5.3"/>
</g>
<rect x="51.8" y="196.8" fill="#FFFFFF" width="58.6" height="52.5"/>
<rect x="102.7" y="219.3" fill="#FFFFFF" width="34.1" height="32.3"/>
</svg>
