<?xml version="1.0" encoding="utf-8"?>
<!-- Generator: Adobe Illustrator 18.0.0, SVG Export Plug-In . SVG Version: 6.00 Build 0)  -->
<!DOCTYPE svg PUBLIC "-//W3C//DTD SVG 1.1//EN" "http://www.w3.org/Graphics/SVG/1.1/DTD/svg11.dtd">
<svg version="1.1" id="Layer_1" xmlns="http://www.w3.org/2000/svg" xmlns:xlink="http://www.w3.org/1999/xlink" x="0px" y="0px"
	 viewBox="20.6 308.2 150 109.2" enable-background="new 20.6 308.2 150 109.2" xml:space="preserve">
<path opacity="0.5" fill="#75CEF4" enable-background="new    " d="M23.2,409.4l6.7-53.4l10.8-19.7l16-10.8l2.6-15.7l31.7,3.9
	l7.2,13.9l38.3-6.2l17.9,5.4l9.6,82.5H23.2L23.2,409.4z"/>
<path fill="none" stroke="#75CEF4" stroke-width="3" stroke-miterlimit="10" d="M23.2,409.4l6.7-53.4l10.8-19.7l16-10.8l2.6-15.7
	l31.7,3.9l7.2,13.9l38.3-6.2l17.9,5.4l9.6,82.5H23.2L23.2,409.4z"/>
<path opacity="0.36" fill="#0A3575" enable-background="new    " d="M27.5,409.2L41,371.7l15.7,7.3l25.1-39L94.9,372l19.1-37
	l18,42.4l17.2,5.1l13.5,27.1L27.5,409.2z"/>
<g>
	<circle fill="#FFFFFF" cx="64.3" cy="389" r="15.9"/>
	<circle fill="#FFFFFF" cx="47.1" cy="399.5" r="12.6"/>
	<circle fill="#FFFFFF" cx="81.6" cy="364.7" r="19.7"/>
	<circle fill="#FFFFFF" cx="60.9" cy="373.1" r="4.9"/>
	<circle fill="#FFFFFF" cx="73" cy="347.3" r="4.9"/>
	<circle fill="#FFFFFF" cx="81.6" cy="347.5" r="4.9"/>
	<circle fill="#FFFFFF" cx="78.7" cy="342.7" r="4.9"/>
	<circle fill="#FFFFFF" cx="49.3" cy="384.5" r="4.9"/>
	<circle fill="#FFFFFF" cx="116.9" cy="335.1" r="9.5"/>
	<circle fill="#FFFFFF" cx="123.7" cy="369.7" r="19.7"/>
	<circle fill="#FFFFFF" cx="117.3" cy="353.3" r="19.7"/>
	<circle fill="#FFFFFF" cx="142.7" cy="374" r="11"/>
	<circle fill="#FFFFFF" cx="154.4" cy="388.5" r="11"/>
	<circle fill="#FFFFFF" cx="105" cy="338.3" r="4.9"/>
	<circle fill="#FFFFFF" cx="103.3" cy="347.7" r="9.3"/>
</g>
<circle fill="#FFFFFF" cx="31.6" cy="406.4" r="11"/>
<circle fill="#FFFFFF" cx="159.6" cy="403.4" r="11"/>
<rect x="64.5" y="363.5" fill="#FFFFFF" width="75.1" height="52.4"/>
<rect x="134.2" y="382.7" fill="#FFFFFF" width="20.2" height="31.6"/>
<rect x="45.9" y="403.4" fill="#FFFFFF" width="39" height="11"/>
</svg>
