<svg xmlns="http://www.w3.org/2000/svg" xmlns:xlink="http://www.w3.org/1999/xlink" viewBox="0 194.1 612 403.7" enable-background="new 0 194.1 612 403.7"><g><g fill="#424242"><path d="M152.1 493.9h-19.8v-33.3h19.8v33.3zm-16.8-2.9h13.9v-27.4h-13.9V491zM150.7 493.9c-.5 0-1-.3-1.3-.7l-16.9-30.3c-.4-.7-.1-1.6.6-2 .7-.4 1.6-.1 2 .6l16.9 30.3c.4.7.1 1.6-.6 2-.3 0-.5.1-.7.1zM133.8 493.9c-.2 0-.5-.1-.7-.2-.7-.4-1-1.3-.6-2l16.9-30.3c.4-.7 1.3-1 2-.6s1 1.3.6 2l-16.9 30.3c-.3.5-.8.8-1.3.8zM152.1 524.3h-19.8V491h19.8v33.3zm-16.8-3h13.9v-27.4h-13.9v27.4zM150.7 524.3c-.5 0-1-.3-1.3-.7l-16.9-30.4c-.4-.7-.1-1.6.6-2 .7-.4 1.6-.1 2 .6l16.9 30.4c.4.7.1 1.6-.6 2-.3 0-.5.1-.7.1zM133.8 524.3c-.2 0-.5-.1-.7-.2-.7-.4-1-1.3-.6-2l16.9-30.4c.4-.7 1.3-1 2-.6s1 1.3.6 2l-16.9 30.4c-.3.5-.8.8-1.3.8zM152.1 463.6h-19.8v-33.3h19.8v33.3zm-16.8-3h13.9v-27.4h-13.9v27.4zM150.7 463.6c-.5 0-1-.3-1.3-.7l-16.9-30.3c-.4-.7-.1-1.6.6-2 .7-.4 1.6-.1 2 .6l16.9 30.3c.4.7.1 1.6-.6 2-.3 0-.5.1-.7.1zM133.8 463.6c-.2 0-.5-.1-.7-.2-.7-.4-1-1.3-.6-2l16.9-30.3c.4-.7 1.3-1 2-.6s1 1.3.6 2l-16.9 30.3c-.3.5-.8.8-1.3.8zM152.1 556.7h-19.8v-35.4h19.8v35.4zm-16.8-2.9h13.9v-29.6h-13.9v29.6zM150.7 556.7c-.5 0-1-.3-1.3-.8l-16.9-32.5c-.4-.7-.1-1.6.6-2 .7-.4 1.6-.1 2 .6l16.9 32.5c.4.7.1 1.6-.6 2-.3.2-.5.2-.7.2zM133.8 556.7c-.2 0-.5-.1-.7-.2-.7-.4-1-1.2-.6-2l16.9-32.5c.4-.7 1.2-1 2-.6.7.4 1 1.2.6 2L135.1 556c-.3.5-.8.7-1.3.7zM152.1 589.2h-19.8v-35.4h19.8v35.4zm-16.8-2.9h13.9v-29.6h-13.9v29.6zM150.7 589.2c-.5 0-1-.3-1.3-.8L132.5 556c-.4-.7-.1-1.6.6-2 .7-.4 1.6-.1 2 .6l16.9 32.5c.4.7.1 1.6-.6 2-.3.1-.5.1-.7.1zM133.8 589.2c-.2 0-.5-.1-.7-.2-.7-.4-1-1.2-.6-2l16.9-32.5c.4-.7 1.2-1 2-.6.7.4 1 1.2.6 2l-16.9 32.5c-.3.6-.8.8-1.3.8zM261 433.2h-33.3v-19.8H261v19.8zm-30.4-2.9H258v-13.9h-27.4v13.9zM229.2 433.2c-.5 0-1-.3-1.3-.7-.4-.7-.1-1.6.6-2l30.3-16.9c.7-.4 1.6-.1 2 .6.4.7.1 1.6-.6 2L229.9 433c-.3.1-.5.2-.7.2zM259.5 433.2c-.2 0-.5-.1-.7-.2l-30.3-16.9c-.7-.4-1-1.3-.6-2s1.3-1 2-.6l30.3 16.9c.7.4 1 1.3.6 2-.3.5-.8.8-1.3.8zM230.6 433.2h-33.3v-19.8h33.3v19.8zm-30.3-2.9h27.4v-13.9h-27.4v13.9zM198.8 433.2c-.5 0-1-.3-1.3-.7-.4-.7-.1-1.6.6-2l30.3-16.9c.7-.4 1.6-.1 2 .6.4.7.1 1.6-.6 2L199.5 433c-.2.1-.5.2-.7.2zM229.2 433.2c-.2 0-.5-.1-.7-.2l-30.3-16.9c-.7-.4-1-1.3-.6-2s1.3-1 2-.6l30.3 16.9c.7.4 1 1.3.6 2-.3.5-.8.8-1.3.8zM291.3 433.2H258v-19.8h33.3v19.8zm-30.3-2.9h27.4v-13.9H261v13.9zM259.5 433.2c-.5 0-1-.3-1.3-.7-.4-.7-.1-1.6.6-2l30.3-16.9c.7-.4 1.6-.1 2 .6.4.7.1 1.6-.6 2L260.2 433c-.2.1-.5.2-.7.2zM289.9 433.2c-.2 0-.5-.1-.7-.2l-30.3-16.9c-.7-.4-1-1.3-.6-2s1.3-1 2-.6l30.3 16.9c.7.4 1 1.3.6 2-.3.5-.8.8-1.3.8zM200.3 433.2h-35.4v-19.8h35.4v19.8zm-32.5-2.9h29.6v-13.9h-29.6v13.9zM166.3 433.2c-.5 0-1-.3-1.3-.8-.4-.7-.1-1.6.6-2l32.5-16.9c.7-.4 1.6-.1 2 .6.4.7.1 1.6-.6 2L167 433c-.2.1-.5.2-.7.2zM198.8 433.2c-.2 0-.5-.1-.7-.2l-32.5-16.9c-.7-.4-1-1.2-.6-2 .4-.7 1.2-1 2-.6l32.5 16.9c.7.4 1 1.2.6 2-.3.5-.8.8-1.3.8zM167.8 433.2h-35.4v-19.8h35.4v19.8zm-32.5-2.9h29.6v-13.9h-29.6v13.9zM133.8 433.2c-.5 0-1-.3-1.3-.8-.4-.7-.1-1.6.6-2l32.5-16.9c.7-.4 1.6-.1 2 .6.4.7.1 1.6-.6 2L134.5 433c-.2.1-.5.2-.7.2zM166.3 433.2c-.2 0-.5-.1-.7-.2l-32.5-16.9c-.7-.4-1-1.2-.6-2s1.2-1 2-.6l32.5 16.9c.7.4 1 1.2.6 2-.3.5-.8.8-1.3.8zM417 433.2h-33.3v-19.8H417v19.8zm-30.4-2.9H414v-13.9h-27.4v13.9zM385.2 433.2c-.5 0-1-.3-1.3-.7-.4-.7-.1-1.6.6-2l30.3-16.9c.7-.4 1.6-.1 2 .6.4.7.1 1.6-.6 2L385.9 433c-.2.1-.5.2-.7.2zM415.5 433.2c-.2 0-.5-.1-.7-.2l-30.3-16.9c-.7-.4-1-1.3-.6-2s1.3-1 2-.6l30.3 16.9c.7.4 1 1.3.6 2-.2.5-.7.8-1.3.8zM386.6 433.2h-33.3v-19.8h33.3v19.8zm-30.3-2.9h27.4v-13.9h-27.4v13.9zM354.8 433.2c-.5 0-1-.3-1.3-.7-.4-.7-.1-1.6.6-2l30.3-16.9c.7-.4 1.6-.1 2 .6.4.7.1 1.6-.6 2L355.6 433c-.3.1-.5.2-.8.2zM385.2 433.2c-.2 0-.5-.1-.7-.2l-30.3-16.9c-.7-.4-1-1.3-.6-2s1.3-1 2-.6l30.3 16.9c.7.4 1 1.3.6 2-.3.5-.8.8-1.3.8zM447.3 433.2H414v-19.8h33.3v19.8zm-30.3-2.9h27.4v-13.9H417v13.9zM415.5 433.2c-.5 0-1-.3-1.3-.7-.4-.7-.1-1.6.6-2l30.3-16.9c.7-.4 1.6-.1 2 .6.4.7.1 1.6-.6 2L416.3 433c-.3.1-.5.2-.8.2zM445.9 433.2c-.2 0-.5-.1-.7-.2l-30.3-16.9c-.7-.4-1-1.3-.6-2s1.3-1 2-.6l30.3 16.9c.7.4 1 1.3.6 2-.3.5-.8.8-1.3.8zM477.7 433.2h-33.3v-19.8h33.3v19.8zm-30.4-2.9h27.4v-13.9h-27.4v13.9zM445.9 433.2c-.5 0-1-.3-1.3-.7-.4-.7-.1-1.6.6-2l30.3-16.9c.7-.4 1.6-.1 2 .6.4.7.1 1.6-.6 2L446.6 433c-.2.1-.5.2-.7.2zM476.2 433.2c-.2 0-.5-.1-.7-.2l-30.3-16.9c-.7-.4-1-1.3-.6-2s1.3-1 2-.6l30.3 16.9c.7.4 1 1.3.6 2-.2.5-.7.8-1.3.8zM356.3 433.2h-35.4v-19.8h35.4v19.8zm-32.5-2.9h29.6v-13.9h-29.6v13.9zM322.4 433.2c-.5 0-1-.3-1.3-.8-.4-.7-.1-1.6.6-2l32.5-16.9c.7-.4 1.6-.1 2 .6.4.7.1 1.6-.6 2L323 433c-.2.1-.4.2-.6.2zM354.8 433.2c-.2 0-.5-.1-.7-.2l-32.5-16.9c-.7-.4-1-1.2-.6-2s1.2-1 2-.6l32.5 16.9c.7.4 1 1.2.6 2-.2.5-.7.8-1.3.8zM323.8 433.2h-35.4v-19.8h35.4v19.8zm-32.5-2.9h29.6v-13.9h-29.6v13.9zM289.9 433.2c-.5 0-1-.3-1.3-.8-.4-.7-.1-1.6.6-2l32.5-16.9c.7-.4 1.6-.1 2 .6.4.7.1 1.6-.6 2L290.5 433c-.2.1-.4.2-.6.2zM322.3 433.2c-.2 0-.5-.1-.7-.2l-32.5-16.9c-.7-.4-1-1.2-.6-2s1.2-1 2-.6l32.5 16.9c.7.4 1 1.2.6 2-.2.5-.7.8-1.3.8zM477.7 493.9h-19.8v-33.3h19.8v33.3zm-16.9-2.9h13.9v-27.4h-13.9V491zM476.2 493.9c-.5 0-1-.3-1.3-.7L458 462.9c-.4-.7-.1-1.6.6-2 .7-.4 1.6-.1 2 .6l16.9 30.3c.4.7.1 1.6-.6 2-.2 0-.4.1-.7.1zM459.4 493.9c-.2 0-.5-.1-.7-.2-.7-.4-1-1.3-.6-2l16.9-30.3c.4-.7 1.3-1 2-.6s1 1.3.6 2l-16.9 30.3c-.3.5-.8.8-1.3.8zM477.7 524.3h-19.8V491h19.8v33.3zm-16.9-3h13.9v-27.4h-13.9v27.4zM476.2 524.3c-.5 0-1-.3-1.3-.7L458 493.2c-.4-.7-.1-1.6.6-2 .7-.4 1.6-.1 2 .6l16.9 30.4c.4.7.1 1.6-.6 2-.2 0-.4.1-.7.1zM459.4 524.3c-.2 0-.5-.1-.7-.2-.7-.4-1-1.3-.6-2l16.9-30.4c.4-.7 1.3-1 2-.6s1 1.3.6 2l-16.9 30.4c-.3.5-.8.8-1.3.8zM477.7 463.6h-19.8v-33.3h19.8v33.3zm-16.9-3h13.9v-27.4h-13.9v27.4zM476.2 463.6c-.5 0-1-.3-1.3-.7L458 432.6c-.4-.7-.1-1.6.6-2 .7-.4 1.6-.1 2 .6l16.9 30.3c.4.7.1 1.6-.6 2-.2 0-.4.1-.7.1zM459.4 463.6c-.2 0-.5-.1-.7-.2-.7-.4-1-1.3-.6-2L475 431c.4-.7 1.3-1 2-.6s1 1.3.6 2l-16.9 30.3c-.3.6-.8.9-1.3.9zM477.7 556.7h-19.8v-35.4h19.8v35.4zm-16.9-2.9h13.9v-29.6h-13.9v29.6zM476.2 556.7c-.5 0-1-.3-1.3-.8L458 523.4c-.4-.7-.1-1.6.6-2 .7-.4 1.6-.1 2 .6l16.9 32.5c.4.7.1 1.6-.6 2-.2.2-.4.2-.7.2zM459.4 556.7c-.2 0-.5-.1-.7-.2-.7-.4-1-1.2-.6-2L475 522c.4-.7 1.2-1 2-.6.7.4 1 1.2.6 2L460.7 556c-.3.5-.8.7-1.3.7zM477.7 589.2h-19.8v-35.4h19.8v35.4zm-16.9-2.9h13.9v-29.6h-13.9v29.6zM476.2 589.2c-.5 0-1-.3-1.3-.8L458.1 556c-.4-.7-.1-1.6.6-2 .7-.4 1.6-.1 2 .6l16.9 32.5c.4.7.1 1.6-.6 2-.3.1-.5.1-.8.1zM459.4 589.2c-.2 0-.5-.1-.7-.2-.7-.4-1-1.2-.6-2l16.9-32.5c.4-.7 1.2-1 2-.6.7.4 1 1.2.6 2l-16.9 32.5c-.3.6-.8.8-1.3.8z"/></g><linearGradient id="a" gradientUnits="userSpaceOnUse" x1="-1236.949" y1="2996.713" x2="-1236.949" y2="3277.76" gradientTransform="matrix(.748 .748 .748 -.748 -981.762 3711.335)"><stop offset="0" stop-color="#fff"/><stop offset="1" stop-color="#fff" stop-opacity="0"/></linearGradient><path opacity=".7" fill="url(#a)" enable-background="new" d="M329 551.2l190.5-283 92.5 92.6z"/><linearGradient id="b" gradientUnits="userSpaceOnUse" x1="-464.679" y1="-2508.923" x2="-464.679" y2="-2227.875" gradientTransform="matrix(.748 -.748 -.748 -.748 -1249.902 -1676.38)"><stop offset="0" stop-color="#fff"/><stop offset="1" stop-color="#fff" stop-opacity="0"/></linearGradient><path opacity=".7" fill="url(#b)" enable-background="new" d="M283 551.2L0 360.8l92.5-92.6z"/><linearGradient id="c" gradientUnits="userSpaceOnUse" x1="284.909" y1="481.654" x2="284.909" y2="762.702" gradientTransform="matrix(1.057 0 0 -1.057 0 1031.428)"><stop offset="0" stop-color="#fff"/><stop offset="1" stop-color="#fff" stop-opacity="0"/></linearGradient><path opacity=".7" fill="url(#c)" enable-background="new" d="M301.2 528.9l-94.4-334.8h188.8z"/><path fill="#85837D" d="M266 356.5h-4.7v26.7c1.6-.6 3.2-1.3 4.7-1.9v-24.8zM266 391.6v-10.3c-1.5.7-3.1 1.3-4.7 1.9v8.4h4.7zM339.1 356.5h-4.8v8.5h4.8z"/><path opacity=".1" enable-background="new" d="M266 356.5h-4.7v26.7c1.6-.6 3.2-1.3 4.7-1.9v-24.8zM339.1 356.5h-4.8v8.5h4.8z"/><path fill="#85837D" d="M339.1 391.6V365h-4.7v26.6h4.7z"/><path fill="#CD131A" d="M297 352.6s-2.4-.4-2.3-1.7.9-2.2 1.4-3.1c.4-.9 2.6-4.8 1.1-8.5-1.6-3.8-7.3-5-13.4-2.6s-8.2 4.1-15.7.3-16.9-7.9-23.9-2-6.7 15.5-7.3 22.7c-.5 7.3.4 17 7.6 20.5 7.1 3.6 11.2 2 14.3 1 3.1-1 6.3-2.3 9-3.6 2.7-1.3 5.5-2.5 7.9-2.4 2.4.1 5.9 1.8 9.2 2.9 3.3 1.1 8.8 1.7 11.2-.9s-1.2-4.5-2.2-4.7c-1-.2-6-1.5-7.3-5.3-1.3-3.8 4.2-5 5-5.2.7-.1 5.4-7.4 5.4-7.4z"/><path fill="#E09D17" d="M356.6 352.5l3.5-3.3 21.8 8.3-2.1 4.5-11.3 1.7-12-3.6z"/><path fill="#F0EDE9" d="M268.2 345.6c0-.1.2-.2.5-.3.6-.2 2.4-.6 5-.5 2.5 0 5.1.4 7.7 1.1 2.5.7 4.6 1.5 6.3 2.4.5.2.9.5 1.2.8 1.5 1 2.4 2.2 2.6 3.3 0 .3 0 .9-.4 1.9-.3.7-.8 1.6-1.5 2.5-.9 1.3-4.2 3.9-4.8 5.5-.6 1.3-.5 2.8.1 4.4.5 1.1 1.2 2.1 2.1 3 .6.5 1.3 1 2 1.4l.6.3c1.7.8 3.2 1 3.2 1 .2 0 .7.1 1.2.4.2.1.3.2.4.3.1.1.1.2 0 .4-.2.6-.7 1-1.2 1.2-.8.4-1.9.6-3.2.6-.6 0-1.2 0-1.8-.1-2.9-.4-4.4-1.1-5.6-1.7-.4-.2-.8-.4-1.2-.5-1.9-.8-4.8-1.5-6.4-1.6-1.7 0-4.8.8-5.6 1.3l-.2.1c-.2.1-.6.4-.9.5l-.1-27.7z"/><path fill="#BDBDBD" d="M271.7 368.8c0 1.3-1 2.3-2.3 2.2l-19.4-.2c-1.3 0-2.3-1-2.2-2.3v-.2c0-1.3 1-2.3 2.3-2.2l19.4.2c1.3 0 2.3 1 2.2 2.3v.2z"/><path fill="#74431D" d="M356.5 360.1s-70 .6-70.9.6c-.9 0-1.2.1-1.1-4.9.1-5 .2-4.9 1.1-4.9.9 0 71 1.6 71 1.6l-.1 7.6z"/><defs><path id="d" d="M356.5 360.1s-70 .6-70.9.6c-.9 0-1.2.1-1.1-4.9.1-5 .2-4.9 1.1-4.9.9 0 71 1.6 71 1.6l-.1 7.6z"/></defs><clipPath id="e"><use xlink:href="#d" overflow="visible"/></clipPath><g clip-path="url(#e)"><path fill="#fff" d="M357.015 360.105l.13-7.5 1.2.022-.13 7.5zM352.744 360.157l.136-7.798 1.2.02-.136 7.798zM348.37 360.196l.138-7.998 1.2.02-.14 8zM344.1 360.36l.144-8.3 1.2.02-.144 8.3zM339.834 360.43l.15-8.598 1.2.02-.15 8.6zM335.452 360.55l.153-8.797 1.2.02-.153 8.8zM331.178 360.593l.158-9.098 1.2.02-.16 9.1zM326.812 360.66l.16-9.3 1.2.022-.16 9.298zM322.534 360.802l.167-9.598 1.2.02-.166 9.6zM318.157 360.827l.172-9.898 1.2.02-.174 9.898zM313.887 360.995l.175-10.098 1.2.02-.176 10.1zM309.614 361.04l.18-10.4 1.2.022-.18 10.398zM305.238 361.18l.184-10.597 1.2.02-.184 10.598zM300.97 361.246l.19-10.897 1.198.02-.19 10.897zM296.593 361.275l.195-11.198 1.2.02-.195 11.2zM292.318 361.42l.198-11.4 1.2.022-.2 11.397zM288.043 361.463l.204-11.698 1.2.02-.204 11.7zM283.673 361.625l.207-11.898 1.2.02-.208 11.9z"/></g><path fill="#BDBDBD" d="M258.848 361.645l.2-10.498 9.398.18-.2 10.496z"/><path fill="#4C8BFB" d="M111.2 493.3h388.9v104.5H111.2z"/><path opacity=".1" enable-background="new" d="M111.2 493.3h388.9v36.3l-388.9-24.2z"/><path fill="#EE3837" d="M191.1 393.1h230.3v197.5H191.1z"/><path fill="#fff" d="M277 393.1h58.5v183H277z"/><path fill="#48B780" d="M156.3 528.5l-29.2-4.5-5.8 37.4 37.4 5.8 4.5-29.2-8.2-1.3z"/><path fill="#fff" d="M155 536.7l8.2 1.3-6.9-9.5z"/><path fill="#D84637" d="M145.4 543.8l2.5-16.6-5-.7-2.5 16.5-15.9-2.4-.8 5 15.9 2.5-2.5 15.7 5.1.8 2.4-15.8 16.5 2.6.8-5z"/><path opacity=".05" enable-background="new" d="M191 486.8h230.3v103.1H191z"/><path fill="#CECCBF" d="M195.8 576.1h219.7v7.3H195.8z"/><path fill="#404040" d="M237.8 526.6h23.7v49.5h-23.7zM212.2 526.6h23.7v49.5h-23.7z"/><path fill="#85837D" d="M230.1 548.3h3.6v8.8h-3.6zM240.1 548.3h3.6v8.8h-3.6z"/><path fill="#404040" d="M380.8 526.6h23.7v49.5h-23.7zM355.2 526.6h23.7v49.5h-23.7z"/><path fill="#85837D" d="M373.1 548.3h3.6v8.8h-3.6zM383.1 548.3h3.6v8.8h-3.6z"/><path opacity=".1" enable-background="new" d="M191.1 489.1h230.3v14.1l-230.3-9.4z"/><path fill="#F0F0F0" d="M281.2 556.8h48.9v3.6l-48.9-2.4zM195.8 576.1h219.7v4.4l-219.7-2.9z"/><path opacity=".1" enable-background="new" d="M191.1 393.1v7.3c0 7.1 5.7 12.8 12.8 12.8 7.1 0 12.8-5.7 12.8-12.8 0 7.1 5.7 12.8 12.8 12.8 7.1 0 12.8-5.7 12.8-12.8 0 7.1 5.7 12.8 12.8 12.8 7.1 0 12.8-5.7 12.8-12.8 0 7.1 5.7 12.8 12.8 12.8 7.1 0 12.8-5.7 12.8-12.8 0 7.1 5.7 12.8 12.8 12.8 7.1 0 12.8-5.7 12.8-12.8 0 7.1 5.7 12.8 12.8 12.8 7.1 0 12.8-5.7 12.8-12.8 0 7.1 5.7 12.8 12.8 12.8 7.1 0 12.8-5.7 12.8-12.8 0 7.1 5.7 12.8 12.8 12.8 7.1 0 12.8-5.7 12.8-12.8 0 7.1 5.7 12.8 12.8 12.8 7.1 0 12.8-5.7 12.8-12.8v-7.3H191.1z"/><g fill="#fff"><path d="M216.7 393.1c0 7.1-5.7 12.8-12.8 12.8s-12.8-5.7-12.8-12.8h25.6zM203.9 407.2c-7.8 0-14.2-6.3-14.2-14.1 0-.8.6-1.4 1.4-1.4h25.6c.8 0 1.4.6 1.4 1.4-.1 7.8-6.4 14.1-14.2 14.1zm-11.4-12.8c.7 5.7 5.5 10 11.3 10 5.8 0 10.7-4.4 11.3-10h-22.6zM421.3 393.1c0 7.1-5.7 12.8-12.8 12.8-7.1 0-12.8-5.7-12.8-12.8h25.6zM408.5 407.2c-7.8 0-14.2-6.3-14.2-14.1 0-.8.6-1.4 1.4-1.4h25.6c.8 0 1.4.6 1.4 1.4 0 7.8-6.4 14.1-14.2 14.1zm-11.3-12.8c.7 5.7 5.5 10 11.3 10s10.7-4.4 11.3-10h-22.6zM293.4 393.1c0 7.1-5.7 12.8-12.8 12.8-7.1 0-12.8-5.7-12.8-12.8h25.6zM280.6 407.2c-7.8 0-14.2-6.3-14.2-14.1 0-.8.6-1.4 1.4-1.4h25.6c.8 0 1.4.6 1.4 1.4 0 7.8-6.4 14.1-14.2 14.1zm-11.3-12.8c.7 5.7 5.5 10 11.3 10 5.8 0 10.7-4.4 11.3-10h-22.6zM242.3 393.1c0 7.1-5.7 12.8-12.8 12.8-7.1 0-12.8-5.7-12.8-12.8h25.6zM229.5 407.2c-7.8 0-14.2-6.3-14.2-14.1 0-.8.6-1.4 1.4-1.4h25.6c.8 0 1.4.6 1.4 1.4-.1 7.8-6.4 14.1-14.2 14.1zm-11.4-12.8c.7 5.7 5.5 10 11.3 10s10.7-4.4 11.3-10h-22.6zM267.8 393.1c0 7.1-5.7 12.8-12.8 12.8-7.1 0-12.8-5.7-12.8-12.8h25.6zM255 407.2c-7.8 0-14.2-6.3-14.2-14.1 0-.8.6-1.4 1.4-1.4h25.6c.8 0 1.4.6 1.4 1.4 0 7.8-6.4 14.1-14.2 14.1zm-11.3-12.8c.7 5.7 5.5 10 11.3 10s10.7-4.4 11.3-10h-22.6zM319 393.1c0 7.1-5.7 12.8-12.8 12.8-7.1 0-12.8-5.7-12.8-12.8H319zM306.2 407.2c-7.8 0-14.2-6.3-14.2-14.1 0-.8.6-1.4 1.4-1.4H319c.8 0 1.4.6 1.4 1.4-.1 7.8-6.4 14.1-14.2 14.1zm-11.3-12.8c.7 5.7 5.5 10 11.3 10 5.8 0 10.7-4.4 11.3-10h-22.6zM344.6 393.1c0 7.1-5.7 12.8-12.8 12.8-7.1 0-12.8-5.7-12.8-12.8h25.6zM331.8 407.2c-7.8 0-14.2-6.3-14.2-14.1 0-.8.6-1.4 1.4-1.4h25.6c.8 0 1.4.6 1.4 1.4-.1 7.8-6.4 14.1-14.2 14.1zm-11.4-12.8c.7 5.7 5.5 10 11.3 10s10.7-4.4 11.3-10h-22.6zM370.1 393.1c0 7.1-5.7 12.8-12.8 12.8-7.1 0-12.8-5.7-12.8-12.8h25.6zM357.4 407.2c-7.8 0-14.2-6.3-14.2-14.1 0-.8.6-1.4 1.4-1.4h25.6c.8 0 1.4.6 1.4 1.4-.1 7.8-6.4 14.1-14.2 14.1zM346 394.4c.7 5.7 5.5 10 11.3 10s10.7-4.4 11.3-10H346zM395.7 393.1c0 7.1-5.7 12.8-12.8 12.8-7.1 0-12.8-5.7-12.8-12.8h25.6zM382.9 407.2c-7.8 0-14.2-6.3-14.2-14.1 0-.8.6-1.4 1.4-1.4h25.6c.8 0 1.4.6 1.4 1.4 0 7.8-6.4 14.1-14.2 14.1zm-11.3-12.8c.7 5.7 5.5 10 11.3 10s10.7-4.4 11.3-10h-22.6z"/></g><g fill="#fff"><path d="M229.4 480c-.6 0-1.1-.2-1.5-.6-.4-.4-.6-1-.6-1.5 0-.6.2-1.1.6-1.5.8-.8 2.3-.8 3.1 0 .4.4.6 1 .6 1.5 0 .6-.2 1.1-.6 1.5-.4.4-1 .6-1.6.6zM210.3 502.5c-1.2 0-2.2-1-2.2-2.2 0-1.2 1-2.2 2.2-2.2 1.2 0 2.2 1 2.2 2.2 0 1.2-1 2.2-2.2 2.2zm-8.9-2.2c-1.1-.5-1.5-1.9-.9-2.9.6-1.1 1.9-1.5 2.9-.9 1.1.6 1.5 1.9.9 2.9-.4.8-1.2 1.2-1.9 1.2-.3 0-.6-.1-1-.3zm14.8-.9c-.6-1.1-.2-2.4.9-2.9 1.1-.6 2.4-.1 2.9.9.6 1.1.2 2.4-.9 2.9-.3.2-.7.3-1 .3-.7-.1-1.5-.5-1.9-1.2zm-21.7-4.9c-.8-.9-.6-2.3.3-3.1.9-.7 2.3-.6 3.1.3.8.9.6 2.3-.3 3.1-.4.3-.9.5-1.4.5-.6.1-1.3-.2-1.7-.8zm28.5.3c-.9-.8-1.1-2.1-.4-3.1.8-.9 2.1-1.1 3.1-.4.9.8 1.1 2.1.4 3.1-.4.5-1.1.8-1.7.8-.5.1-1-.1-1.4-.4zm-32.7-8.1c-.4-1.1.2-2.4 1.4-2.8 1.1-.4 2.4.2 2.8 1.4.4 1.1-.2 2.4-1.4 2.7-.2.1-.5.1-.7.1-1 .1-1.8-.5-2.1-1.4zm37.2 1.3c-1.1-.4-1.8-1.6-1.4-2.7.4-1.1 1.6-1.8 2.7-1.4 1.2.4 1.8 1.6 1.4 2.7-.3.9-1.2 1.5-2.1 1.5-.1 0-.4 0-.6-.1zM191 480.1c-.6 0-1.1-.2-1.5-.6-.4-.4-.6-1-.6-1.5 0-.6.2-1.1.6-1.5.8-.8 2.3-.8 3.1 0 .4.4.6 1 .6 1.5 0 .6-.2 1.1-.6 1.5-.4.4-1 .6-1.6.6zM267.9 480c-.6 0-1.1-.2-1.5-.6-.4-.4-.6-1-.6-1.5 0-.6.2-1.1.6-1.5.8-.8 2.3-.8 3.1 0 .4.4.6 1 .6 1.5 0 .6-.2 1.1-.6 1.5-.5.3-1.1.6-1.6.6zM248.7 502.4c-1.2 0-2.2-1-2.2-2.2 0-1.2 1-2.2 2.2-2.2 1.2 0 2.2 1 2.2 2.2 0 1.2-1 2.2-2.2 2.2zm-8.9-2.2c-1.1-.6-1.5-1.9-.9-2.9.6-1.1 1.9-1.5 2.9-.9 1.1.5 1.5 1.9.9 2.9-.4.8-1.2 1.2-1.9 1.2-.3 0-.6-.1-1-.3zm14.8-.9c-.6-1.1-.2-2.4.9-2.9 1.1-.6 2.4-.2 2.9.9.6 1.1.2 2.4-.9 2.9-.3.2-.7.3-1 .3-.7-.1-1.5-.5-1.9-1.2zm-21.7-4.8c-.8-.9-.6-2.3.3-3.1.9-.8 2.3-.6 3.1.3.8.9.6 2.3-.3 3.1-.4.3-.9.5-1.4.5-.6 0-1.3-.3-1.7-.8zm28.5.2c-1-.7-1.1-2.1-.4-3.1.8-1 2.1-1.1 3.1-.4.9.7 1.1 2.1.4 3.1-.4.5-1.1.8-1.7.8-.5.1-1-.1-1.4-.4zm-32.7-8.1c-.4-1.1.2-2.4 1.4-2.8 1.1-.4 2.4.2 2.8 1.4.4 1.1-.2 2.4-1.4 2.8-.2.1-.5.1-.7.1-1 0-1.8-.6-2.1-1.5zm37.2 1.3c-1.1-.4-1.8-1.6-1.4-2.8.4-1.1 1.6-1.8 2.7-1.4 1.1.4 1.8 1.6 1.4 2.7-.3.9-1.2 1.5-2.1 1.5-.1.1-.4.1-.6 0zM229.4 480c-.6 0-1.1-.2-1.5-.6-.4-.4-.6-1-.6-1.5 0-.6.2-1.1.6-1.5.8-.8 2.3-.8 3.1 0 .4.4.6 1 .6 1.5 0 .6-.2 1.1-.6 1.5-.4.4-1 .6-1.6.6zM306.3 479.9c-.6 0-1.1-.2-1.5-.6-.4-.4-.6-1-.6-1.5 0-.6.2-1.1.6-1.5.8-.8 2.3-.8 3.1 0 .4.4.6 1 .6 1.5 0 .6-.2 1.1-.6 1.5-.5.3-1.1.6-1.6.6zM287.1 502.3c-1.2 0-2.2-1-2.2-2.2 0-1.2 1-2.2 2.2-2.2 1.2 0 2.2 1 2.2 2.2 0 1.2-1 2.2-2.2 2.2zm-8.8-2.2c-1.1-.6-1.5-1.9-.9-2.9.5-1.1 1.9-1.5 2.9-.9 1.1.6 1.5 1.9.9 2.9-.4.8-1.1 1.2-1.9 1.2-.4 0-.7-.1-1-.3zm14.8-.9c-.6-1.1-.2-2.4.9-2.9 1.1-.6 2.4-.2 2.9.9.6 1.1.1 2.4-.9 2.9-.3.2-.7.3-1 .3-.8-.1-1.6-.5-1.9-1.2zm-21.8-4.8c-.8-.9-.6-2.3.3-3.1.9-.8 2.3-.6 3.1.3.8.9.6 2.3-.3 3.1-.4.3-.9.5-1.4.5-.6 0-1.2-.3-1.7-.8zm28.5.2c-1-.8-1.1-2.1-.4-3.1.7-1 2.1-1.1 3.1-.4 1 .7 1.1 2.1.4 3.1-.4.5-1.1.8-1.7.8-.5.1-1-.1-1.4-.4zm-32.7-8.1c-.4-1.1.2-2.4 1.4-2.8 1.1-.4 2.4.2 2.7 1.4.4 1.1-.2 2.4-1.4 2.8-.2.1-.5.1-.7.1-.8 0-1.7-.6-2-1.5zm37.2 1.3c-1.2-.4-1.8-1.6-1.4-2.7.4-1.1 1.6-1.8 2.7-1.4 1.1.4 1.8 1.6 1.4 2.7-.3.9-1.2 1.5-2.1 1.5-.1 0-.3 0-.6-.1zM267.9 480c-.6 0-1.1-.2-1.5-.6-.4-.4-.6-1-.6-1.5 0-.6.2-1.1.6-1.5.8-.8 2.3-.8 3.1 0 .4.4.6 1 .6 1.5 0 .6-.2 1.1-.6 1.5-.5.3-1.1.6-1.6.6zM344.7 479.8c-.6 0-1.1-.2-1.5-.6s-.6-1-.6-1.5c0-.6.2-1.1.6-1.5.8-.8 2.3-.8 3.1 0 .4.4.6 1 .6 1.5 0 .6-.2 1.1-.6 1.5-.5.3-1 .6-1.6.6zM325.5 502.2c-1.2 0-2.2-1-2.2-2.2 0-1.2 1-2.2 2.2-2.2 1.2 0 2.2 1 2.2 2.2 0 1.2-1 2.2-2.2 2.2zm-8.8-2.2c-1.1-.5-1.5-1.9-.9-2.9.5-1.1 1.9-1.5 2.9-.9 1.1.6 1.5 1.9.9 2.9-.4.8-1.2 1.2-1.9 1.2-.4 0-.7-.1-1-.3zm14.8-.9c-.6-1.1-.2-2.4.9-2.9 1.1-.6 2.4-.2 2.9.9.6 1.1.2 2.4-.9 2.9-.3.2-.7.3-1 .3-.8-.1-1.5-.5-1.9-1.2zm-21.8-4.8c-.8-1-.6-2.3.3-3.1.9-.8 2.3-.6 3.1.3.8.9.6 2.3-.3 3.1-.4.3-.9.5-1.4.5-.6 0-1.2-.3-1.7-.8zm28.5.2c-.9-.8-1.1-2.1-.4-3.1.7-.9 2.1-1.1 3.1-.4.9.8 1.1 2.1.4 3.1-.4.5-1.1.8-1.7.8-.5.1-.9 0-1.4-.4zm-32.7-8.1c-.4-1.1.2-2.4 1.4-2.8 1.1-.4 2.4.2 2.8 1.4.4 1.1-.2 2.4-1.4 2.7-.2.1-.5.1-.7.1-.9.1-1.8-.4-2.1-1.4zm37.2 1.3c-1.1-.4-1.8-1.6-1.4-2.7.4-1.1 1.6-1.8 2.7-1.4 1.1.4 1.8 1.6 1.4 2.7-.3.9-1.2 1.5-2.1 1.5-.1 0-.3 0-.6-.1zM306.3 479.9c-.6 0-1.1-.2-1.5-.6-.4-.4-.6-1-.6-1.5 0-.6.2-1.1.6-1.5.8-.8 2.3-.8 3.1 0 .4.4.6 1 .6 1.5 0 .6-.2 1.1-.6 1.5-.5.3-1.1.6-1.6.6zM383.1 479.7c-.6 0-1.1-.2-1.5-.6-.4-.4-.6-1-.6-1.5 0-.6.2-1.1.6-1.5.8-.8 2.3-.8 3.1 0 .4.4.6 1 .6 1.5 0 .6-.2 1.1-.6 1.5-.5.3-1 .6-1.6.6zM363.9 502.1c-1.2 0-2.2-1-2.2-2.2 0-1.2 1-2.2 2.2-2.2 1.2 0 2.2 1 2.2 2.2 0 1.3-.9 2.2-2.2 2.2zm-8.8-2.1c-1.1-.6-1.5-1.9-.9-2.9.5-1.1 1.9-1.5 2.9-.9 1.1.6 1.5 1.9.9 2.9-.4.7-1.2 1.2-1.9 1.2-.4-.1-.7-.2-1-.3zm14.8-1c-.6-1.1-.1-2.4.9-2.9 1.1-.6 2.4-.1 2.9.9.6 1.1.2 2.4-.9 2.9-.3.2-.7.3-1 .3-.8 0-1.5-.5-1.9-1.2zm-21.8-4.8c-.8-.9-.6-2.3.3-3.1.9-.8 2.3-.6 3.1.3.8.9.6 2.3-.3 3.1-.4.3-.9.5-1.4.5-.6 0-1.2-.3-1.7-.8zm28.6.2c-.9-.7-1.1-2.1-.4-3.1.8-1 2.1-1.1 3.1-.4.9.7 1.1 2.1.4 3.1-.4.5-1.1.8-1.7.8-.6.1-1 0-1.4-.4zm-32.8-8c-.4-1.2.2-2.4 1.4-2.8 1.1-.4 2.4.2 2.8 1.4.4 1.1-.2 2.4-1.4 2.8-.2.1-.5.1-.7.1-.9-.1-1.8-.6-2.1-1.5zm37.2 1.2c-1.1-.4-1.8-1.6-1.4-2.7.4-1.1 1.6-1.8 2.7-1.4 1.2.4 1.8 1.6 1.4 2.8-.3.9-1.2 1.5-2.1 1.5-.1-.1-.3-.1-.6-.2zM344.7 479.8c-.6 0-1.1-.2-1.5-.6s-.6-1-.6-1.5c0-.6.2-1.1.6-1.5.8-.8 2.3-.8 3.1 0 .4.4.6 1 .6 1.5 0 .6-.2 1.1-.6 1.5-.5.3-1 .6-1.6.6zM421.5 479.6c-.6 0-1.1-.2-1.5-.6-.4-.4-.6-1-.6-1.5 0-.6.2-1.1.6-1.5.8-.8 2.3-.8 3.1 0 .4.4.6 1 .6 1.5 0 .6-.2 1.1-.6 1.5-.5.4-1 .6-1.6.6zM402.4 502c-1.2 0-2.2-1-2.2-2.2 0-1.2 1-2.2 2.2-2.2 1.2 0 2.2 1 2.2 2.2-.1 1.3-1 2.2-2.2 2.2zm-8.9-2.1c-1.1-.6-1.5-1.9-.9-2.9.6-1.1 1.9-1.5 2.9-.9 1.1.6 1.5 1.9.9 2.9-.4.8-1.2 1.2-1.9 1.2-.3-.1-.7-.2-1-.3zm14.8-1c-.6-1.1-.2-2.4.9-2.9 1.1-.6 2.4-.2 2.9.9.6 1.1.2 2.4-.9 2.9-.3.2-.7.2-1 .2-.8.1-1.5-.4-1.9-1.1zm-21.7-4.8c-.8-.9-.6-2.3.3-3.1.9-.8 2.3-.6 3.1.3.8.9.6 2.3-.3 3.1-.4.3-.9.5-1.4.5-.7 0-1.3-.3-1.7-.8zm28.5.2c-.9-.7-1.1-2.1-.4-3.1.8-1 2.1-1.1 3.1-.4.9.7 1.1 2.1.4 3.1-.4.5-1.1.8-1.7.8-.6.1-1 0-1.4-.4zm-32.8-8c-.4-1.1.2-2.4 1.4-2.8 1.1-.4 2.4.2 2.8 1.4.4 1.1-.2 2.4-1.4 2.8-.2.1-.5.1-.7.1-.9 0-1.8-.6-2.1-1.5zm37.3 1.2c-1.1-.4-1.8-1.6-1.4-2.7.4-1.2 1.6-1.8 2.8-1.4 1.1.4 1.8 1.6 1.4 2.7-.3.9-1.2 1.5-2.1 1.5-.3 0-.5 0-.7-.1zM383.1 479.7c-.6 0-1.1-.2-1.5-.6-.4-.4-.6-1-.6-1.5 0-.6.2-1.1.6-1.5.8-.8 2.3-.8 3.1 0 .4.4.6 1 .6 1.5 0 .6-.2 1.1-.6 1.5-.5.3-1 .6-1.6.6z"/></g><path fill="#EE3837" d="M185.6 468.3H426v10.2H185.6z"/><path fill="#fff" d="M234.6 478.5h-17.2l12.6-10.2h17.2zM271.6 478.5h-17.2l12.6-10.2h17.2zM308.7 478.5h-17.3l12.6-10.2h17.2zM345.7 478.5h-17.3l12.6-10.2h17.2zM382.7 478.5h-17.3l12.6-10.2h17.2z"/><g fill="#fff"><path d="M193 468.3l-7.4 6v4.2h12l12.6-10.2zM426 468.3h-11l-12.6 10.2h17.3l6.3-5.2z"/></g><path fill="#fff" d="M185.6 474.1H426v14.8H185.6z"/><g fill="#fff"><path d="M404.7 583.4c0-1.9 1.5-3.4 3.4-3.4s3.4 1.5 3.4 3.4h-6.8zM411.5 584.8h-6.8c-.8 0-1.5-.7-1.5-1.5 0-2.7 2.2-4.9 4.8-4.9s4.8 2.2 4.8 4.9c.2.9-.5 1.5-1.3 1.5zm-4.7-2.9h2.6c-.7-.6-1.9-.6-2.6 0zM385.8 583.4c0-3.6 2.9-6.5 6.5-6.5s6.5 2.9 6.5 6.5h-13zM398.8 584.8h-13c-.8 0-1.5-.7-1.5-1.5 0-4.4 3.6-8 8-8s8 3.6 8 8c0 .9-.7 1.5-1.5 1.5zm-11.4-2.9h9.7c-.6-2.1-2.6-3.6-4.9-3.6s-4.2 1.5-4.8 3.6zM395.6 583.4c0-2.5 2-4.6 4.6-4.6 2.5 0 4.6 2 4.6 4.6h-9.2zM404.7 584.8h-9.1c-.8 0-1.5-.7-1.5-1.5 0-3.3 2.7-6 6-6s6 2.7 6 6c.1.9-.6 1.5-1.4 1.5zm-7.3-2.9h5.5c-.5-1-1.6-1.7-2.7-1.7s-2.3.7-2.8 1.7z"/></g><path fill="#81D4FA" d="M283.2 526.6h44.9v27.5h-44.9z"/><path fill="#fff" d="M281.2 554.1h48.9v2.7h-48.9z"/><circle opacity=".1" enable-background="new" cx="305.7" cy="540.3" r="3.6"/><path opacity=".1" enable-background="new" d="M283.2 550.4h44.9v3.7h-44.9z"/><path fill="#CECCBF" d="M185.2 583.4H426v7.3H185.2z"/><path fill="#F0F0F0" d="M185.3 583.4H426v4.3l-240.7-2.9z"/><g fill="#fff"><path d="M192.1 590.7c0-1.6 1.3-3 3-3s28.3 1.3 28.3 3h-31.3zM223.4 591.5h-31.3c-.4 0-.8-.4-.8-.8 0-2.1 1.7-3.8 3.8-3.8.8 0 7.7.3 14.8.9 14.3 1.1 14.3 2 14.3 2.9 0 .5-.3.8-.8.8zm-30.3-1.6h22.4c-7.6-.8-18.6-1.4-20.4-1.4-.9 0-1.7.6-2 1.4zM188.6 590.7c0-1.1.9-2.1 2.1-2.1 1.1 0 2.1.9 2.1 2.1h-4.2zM192.8 591.5h-4.2c-.4 0-.8-.4-.8-.8 0-1.6 1.3-2.9 2.9-2.9 1.6 0 2.9 1.3 2.9 2.9 0 .5-.4.8-.8.8zm-3.1-1.6h2c-.5-.6-1.5-.6-2 0z"/></g><path fill="#CECCBF" d="M174.7 590.6h262v7.3h-262z"/><path fill="#F0F0F0" d="M174.7 590.6h261.9v4.4l-261.9-2.9z"/><path fill="#FFDE00" d="M479.8 536.1l17.9-2.1-2.7-22.9-22.9 2.7 2.1 17.9 5-.6z"/><path fill="#fff" d="M479.2 531.1l-5 .6 5.6 4.4z"/><path fill="#48B780" d="M483.7 525.3l1.2 10.2 3.1-.4-1.2-10.1 9.7-1.2-.3-3-9.8 1.1-1.1-9.7-3.1.4 1.2 9.7-10.1 1.2.3 3z"/><path fill="#B757C5" d="M463.7 532.8l-25.6-2.3-2.9 32.8 32.8 2.9 2.3-25.6-7.2-.7z"/><path fill="#fff" d="M463.1 539.9l7.2.7-6.6-7.8z"/><path fill="#FFDE00" d="M455.1 546.7l1.3-14.6-4.4-.4-1.3 14.6-13.9-1.3-.3 4.4 13.9 1.3-1.3 13.8 4.4.4 1.2-13.8 14.5 1.2.4-4.3z"/></g></svg>