<?xml version="1.0" encoding="utf-8"?>
<!-- Generator: Adobe Illustrator 18.0.0, SVG Export Plug-In . SVG Version: 6.00 Build 0)  -->
<!DOCTYPE svg PUBLIC "-//W3C//DTD SVG 1.1//EN" "http://www.w3.org/Graphics/SVG/1.1/DTD/svg11.dtd">
<svg version="1.1" id="Layer_1" xmlns="http://www.w3.org/2000/svg" xmlns:xlink="http://www.w3.org/1999/xlink" x="0px" y="0px"
	 viewBox="0 144.3 150 116.6" enable-background="new 0 144.3 150 116.6" xml:space="preserve">
<path opacity="0.5" fill="#75CEF4" enable-background="new    " d="M11.2,241.4l7.6-59.2l4.7-2.2l5.4-25.2l16.5-8.4l8.6,23.2
	l8.9-12.8l8.4,8.4l7.2-6.4l6.2,1.5l14.1-12.8l9.9,20l8.1,74.3L11.2,241.4z"/>
<path fill="none" stroke="#75CEF4" stroke-width="3" stroke-miterlimit="10" d="M11.2,241.4l7.6-59.2l4.7-2.2l5.4-25.2l16.5-8.4
	l8.6,23.2l8.9-12.8l8.4,8.4l7.2-6.4l6.2,1.5l14.1-12.8l9.9,20l8.1,74.3L11.2,241.4z"/>
<path opacity="0.36" fill="#0A3575" enable-background="new    " d="M17.4,240.9h93.5l-7.2-22.7l-9.9-3L82,190.1l-10.9,31.3
	l-12.3-36.5l-16-5.4l-4.2-10.1L30,220.9L17.4,240.9z"/>
<g>
	<circle fill="#FFFFFF" cx="6.6" cy="244.6" r="6.6"/>
	<circle fill="#FFFFFF" cx="22.4" cy="240.5" r="12.8"/>
	<circle fill="#FFFFFF" cx="90.1" cy="194.6" r="12.8"/>
	<circle fill="#FFFFFF" cx="30.5" cy="222.7" r="12.8"/>
	<circle fill="#FFFFFF" cx="49.8" cy="238.8" r="22.1"/>
	<circle fill="#FFFFFF" cx="47.9" cy="213.7" r="12"/>
	<circle fill="#FFFFFF" cx="31.7" cy="206.5" r="7.9"/>
	<circle fill="#FFFFFF" cx="77.5" cy="239.3" r="14.8"/>
	<circle fill="#FFFFFF" cx="96.3" cy="239.2" r="9.1"/>
	<circle fill="#FFFFFF" cx="112.5" cy="240.9" r="6.9"/>
	<circle fill="#FFFFFF" cx="126.1" cy="228.8" r="5"/>
	<circle fill="#FFFFFF" cx="73.2" cy="214.3" r="19.4"/>
	<circle fill="#FFFFFF" cx="93.6" cy="214.3" r="19.4"/>
	<circle fill="#FFFFFF" cx="57.9" cy="198.9" r="10.2"/>
	<circle fill="#FFFFFF" cx="42" cy="198.9" r="10.2"/>
	<circle fill="#FFFFFF" cx="92.3" cy="225.6" r="10.2"/>
	<circle fill="#FFFFFF" cx="115.3" cy="224.1" r="10.2"/>
	<circle fill="#FFFFFF" cx="127.8" cy="238.6" r="10.2"/>
	<circle fill="#FFFFFF" cx="109.8" cy="234.6" r="10.2"/>
	<circle fill="#FFFFFF" cx="139.8" cy="243.3" r="10.2"/>
	<circle fill="#FFFFFF" cx="50.1" cy="190.1" r="4.8"/>
	<circle fill="#FFFFFF" cx="77.6" cy="193.3" r="4.8"/>
	<circle fill="#FFFFFF" cx="68.7" cy="194.8" r="4.8"/>
</g>
</svg>
