<?xml version="1.0" encoding="utf-8"?>
<!-- Generator: Adobe Illustrator 18.0.0, SVG Export Plug-In . SVG Version: 6.00 Build 0)  -->
<!DOCTYPE svg PUBLIC "-//W3C//DTD SVG 1.1//EN" "http://www.w3.org/Graphics/SVG/1.1/DTD/svg11.dtd">
<svg version="1.1" id="Layer_1" xmlns="http://www.w3.org/2000/svg" xmlns:xlink="http://www.w3.org/1999/xlink" x="0px" y="0px"
	 viewBox="0 205.2 150 118.4" enable-background="new 0 205.2 150 118.4" xml:space="preserve">
<path fill="none" stroke="#75CEF4" stroke-width="3" stroke-miterlimit="10" d="M7.7,314.9h137.6l-4.4-51.4l-6.8-6.4l-5.4-19.7
	l-9.9-4.6l-11.3,15.9l-12.9,10.9l-5.8-7.7l-7.2,4.4l-8.9-11.1l4.6-8.7l-8.5-7.4l-0.2-15.7l-11.1-6.4l-11.9,12.7l-9.1,8.5l-20.3,3
	L7.7,314.9z"/>
<path opacity="0.5" fill="#75CEF4" enable-background="new    " d="M7.7,314.9h137.6l-4.4-51.4l-6.8-6.4l-5.4-19.7l-9.9-4.6
	l-11.3,15.9l-12.9,10.9l-5.8-7.7l-7.2,4.4l-8.9-11.1l4.6-8.7l-8.5-7.4l-0.2-15.7l-11.1-6.4l-11.9,12.7l-9.1,8.5l-20.3,3L7.7,314.9z"
	/>
<path opacity="0.36" fill="#0A3575" enable-background="new    " d="M16.2,314.9H139l-4.8-33.1l-11.6-2.7l-8-18.8l-20.3,35.5
	l-10.1-28.9l-14.6-2.7l-9.2-15.5l-16.7,39l-10.7-16.4L16.2,314.9z"/>
<g>
	<circle fill="#FFFFFF" cx="4.9" cy="316.7" r="4.9"/>
	<circle fill="#FFFFFF" cx="14.4" cy="314.9" r="6.7"/>
	<circle fill="#FFFFFF" cx="24.6" cy="313.8" r="4.8"/>
	<circle fill="#FFFFFF" cx="38.3" cy="313.4" r="10.2"/>
	<circle fill="#FFFFFF" cx="50" cy="304.1" r="12.7"/>
	<circle fill="#FFFFFF" cx="60.5" cy="289.5" r="10.8"/>
	<circle fill="#FFFFFF" cx="131.8" cy="313.7" r="8.2"/>
	<circle fill="#FFFFFF" cx="144" cy="315.5" r="5.9"/>
	<circle fill="#FFFFFF" cx="84.4" cy="269.2" r="3.8"/>
	<circle fill="#FFFFFF" cx="28.8" cy="307.8" r="3.8"/>
	<circle fill="#FFFFFF" cx="113.5" cy="302.6" r="11.2"/>
	<circle fill="#FFFFFF" cx="105.2" cy="292.6" r="7"/>
	<circle fill="#FFFFFF" cx="93.1" cy="280.9" r="13"/>
	<circle fill="#FFFFFF" cx="79.1" cy="275" r="5.1"/>
	<circle fill="#FFFFFF" cx="127.4" cy="303.6" r="5.1"/>
	<circle fill="#FFFFFF" cx="112.7" cy="290.9" r="5.1"/>
	<circle fill="#FFFFFF" cx="69" cy="278.9" r="7.5"/>
</g>
<rect x="44.8" y="305.5" fill="#FFFFFF" width="82.6" height="18.1"/>
<rect x="61.3" y="278.9" fill="#FFFFFF" width="42.2" height="34.8"/>
</svg>
