<svg xmlns="http://www.w3.org/2000/svg" viewBox="0 445.7 612 390" enable-background="new 0 445.7 612 390"><path opacity=".5" fill="#75CEF4" enable-background="new" d="M118.3 768.3l21.2-110.6 26.5-22 32.6-165.6s43.7-19.6 43.7-20c0-.4 60.8 12.2 57.9 11.8-3.3-.4 64.1-14.7 64.1-14.7l35.1 15.9 51-8.6 25.7 21.6-2 133 23.3 48.6 2 109.8H118.3"/><path fill="none" stroke="#75CEF4" stroke-width="3" stroke-miterlimit="10" d="M118.3 768.3l21.2-110.6 26.5-22 32.6-165.6s43.7-19.6 43.7-20c0-.4 60.8 12.2 57.9 11.8-3.3-.4 64.1-14.7 64.1-14.7l35.1 15.9 51-8.6 25.7 21.6-2 133 23.3 48.6 2 109.8H118.3v.8z"/><path opacity=".36" fill="#0A3575" enable-background="new" d="M135.5 766.3l31.8-94.2 44.9-71.4 41.6-98.7 44.9 124.8 52.2-72.2 50.2 82.8 39.6-.8 55.5 132.2c-.9-.5-364-2.1-360.7-2.5"/><g fill="#fff"><circle cx="83.2" cy="763.9" r="44.9"/><circle cx="54.7" cy="790.8" r="44.9"/><circle cx="17.5" cy="776.9" r="17.5"/><circle cx="64.9" cy="725.9" r="17.5"/><circle cx="275.8" cy="537" r="44.9"/><circle cx="181.2" cy="647.6" r="44.9"/><circle cx="405.6" cy="639.4" r="44.9"/><circle cx="282.7" cy="599.4" r="69.8"/><circle cx="140.4" cy="740.6" r="69.8"/><circle cx="105.3" cy="675.3" r="17.5"/><circle cx="133" cy="662.7" r="17.5"/><circle cx="428" cy="602.3" r="17.5"/><circle cx="452.9" cy="665.5" r="17.5"/><circle cx="496.1" cy="738.2" r="17.5"/><circle cx="594.5" cy="764.7" r="17.5"/><circle cx="496.9" cy="715.7" r="17.5"/><circle cx="491.6" cy="692" r="17.5"/><circle cx="466.8" cy="683.5" r="17.5"/><circle cx="445.9" cy="642.3" r="17.5"/><circle cx="348.8" cy="626.8" r="26.9"/><circle cx="217.5" cy="609.2" r="24.9"/></g><circle fill="#fff" cx="509.2" cy="776.9" r="44.9"/><path fill="#fff" d="M105.3 692h386.4v98.7H105.3zM171.4 639.4h287.2v69H171.4z"/></svg>