<?xml version="1.0" encoding="utf-8"?>
<!-- Generator: Adobe Illustrator 18.0.0, SVG Export Plug-In . SVG Version: 6.00 Build 0)  -->
<!DOCTYPE svg PUBLIC "-//W3C//DTD SVG 1.1//EN" "http://www.w3.org/Graphics/SVG/1.1/DTD/svg11.dtd">
<svg version="1.1" id="Layer_1" xmlns="http://www.w3.org/2000/svg" xmlns:xlink="http://www.w3.org/1999/xlink" x="0px" y="0px"
	 viewBox="0 308.4 612 483.3" enable-background="new 0 308.4 612 483.3" xml:space="preserve">
<g id="HOUSE13-ICE">
	<g>
		<polygon opacity="0.5" fill="#75CEF4" enable-background="new    " points="5.1,725.2 69.4,427 84.1,406.7 134.6,399.2 171,363.6 
			224.5,357.8 303.4,311.5 377,359.8 488.9,363.6 591.1,437.9 599.1,727.2 		"/>
		<path fill="#75CEF4" d="M601.7,729.7L1.9,727.8L67,425.9l15.7-21.6l50.6-7.5l36.5-35.8l53.8-5.8l79.8-46.8l74.3,48.7l111.9,3.8
			l103.8,75.5L601.7,729.7z M8.3,722.7l588.2,1.9l-7.9-285.4L488,366.1l-111.8-3.8l-72.9-47.7l-78,45.8l-53.1,5.7l-36.4,35.7
			l-50.2,7.4L71.8,428L8.3,722.7z"/>
		<polygon opacity="0.36" fill="#0A3575" enable-background="new    " points="21.1,726.2 105.4,500.5 179,621 287.4,371.2 
			342.2,552.5 418.5,441.7 476,563.2 528.2,517.9 591.1,725.2 		"/>
	</g>
	<g>
		<circle fill="#FFFFFF" cx="205.4" cy="551" r="50"/>
		<circle fill="#FFFFFF" cx="155.4" cy="577.7" r="50"/>
		<circle fill="#FFFFFF" cx="106" cy="682.8" r="78"/>
		<circle fill="#FFFFFF" cx="286.1" cy="493" r="52.8"/>
		<circle fill="#FFFFFF" cx="29.8" cy="723.7" r="29.8"/>
		<circle fill="#FFFFFF" cx="83" cy="607.9" r="24.8"/>
		<circle fill="#FFFFFF" cx="54" cy="628.8" r="19.5"/>
		<circle fill="#FFFFFF" cx="116.7" cy="593.7" r="19.5"/>
		<circle fill="#FFFFFF" cx="249.3" cy="485.2" r="19.5"/>
		<circle fill="#FFFFFF" cx="332.7" cy="458.5" r="26.7"/>
		<circle fill="#FFFFFF" cx="223.2" cy="505.4" r="19.5"/>
	</g>
</g>
<g id="Layer_1_1_">
</g>
<path fill="#FFFFFF" d="M612,733.8c0-10.8-8.7-19.5-19.5-19.5c-0.6,0-1.2,0-1.8,0.1c-3.5-5.2-7.9-9.8-13.1-13.4
	c0.5-3.4,0.7-6.9,0.7-10.4c0-28.6-15.4-53.6-38.4-67.2c2.8-3.4,4.5-7.7,4.5-12.5c0-10.8-8.7-19.5-19.5-19.5c-3.7,0-7.1,1-10,2.8
	c-3.3-6-9.7-10-17-10c-0.2,0-0.3,0-0.5,0c-2.6-2.5-5.5-4.6-8.6-6.5c3.8-7,6-15.1,6-23.7c0-20.5-12.4-38.2-30.1-45.9
	c0.4-1.5,0.6-3.1,0.6-4.8c0-10.8-8.7-19.5-19.5-19.5c-1.3,0-2.7,0.1-3.9,0.4c-8-22.3-29.2-38.2-54.2-38.2l0,0
	c-5.3-6.1-13.1-9.9-21.9-9.9c-16.1,0-29.1,13-29.1,29.1c0,3.1,0.5,6.2,1.4,9c-0.2,0.4-0.5,0.8-0.7,1.3c-3.3-2.6-7.5-4.2-12.1-4.2
	c-10.8,0-19.5,8.7-19.5,19.5c0,0.6,0,1.3,0.1,1.9c-2.1-0.7-4.3-1.2-6.6-1.2c-10.8,0-19.5,8.7-19.5,19.5c0,3.1,0.7,6,2,8.6
	c-3-1.9-6.6-3.1-10.5-3.1c-10.8,0-19.5,8.7-19.5,19.5c0,5.1,2,9.7,5.2,13.2c-6.6,8.5-10.6,19.1-10.6,30.7c0,1,0,2.1,0.1,3.1
	c-12.4,1.3-22.2,11.8-22.2,24.6c0,0.6,0,1.3,0.1,1.9c-1.4-0.3-2.8-0.5-4.3-0.5c-10.8,0-19.5,8.7-19.5,19.5c0,5.1,2,9.7,5.2,13.2
	c-7.4,11.9-11.6,25.9-11.6,40.9c0,3.8,0.3,7.5,0.8,11.1c-16,0.5-28.9,13.6-28.9,29.7c0,16.4,13.3,29.8,29.8,29.8
	c10,0,18.8-4.9,24.2-12.5c13.8,12.4,32,19.9,52,19.9c17.3,0,33.3-5.7,46.2-15.2c13.4,10.7,30.3,17.1,48.7,17.1
	c27,0,50.8-13.7,64.8-34.6c13.3,24,38.9,40.3,68.3,40.3c2.1,0,4.2-0.1,6.2-0.3c8.8,14.2,24.5,23.7,42.5,23.7c24,0,44-16.9,48.8-39.4
	C606.1,750.2,612,742.8,612,733.8z"/>
<rect x="150" y="539.2" fill="#FFFFFF" width="112" height="166.1"/>
</svg>
