<?xml version="1.0" encoding="utf-8"?>
<!-- Generator: Adobe Illustrator 18.0.0, SVG Export Plug-In . SVG Version: 6.00 Build 0)  -->
<!DOCTYPE svg PUBLIC "-//W3C//DTD SVG 1.1//EN" "http://www.w3.org/Graphics/SVG/1.1/DTD/svg11.dtd">
<svg version="1.1" id="Layer_1" xmlns="http://www.w3.org/2000/svg" xmlns:xlink="http://www.w3.org/1999/xlink" x="0px" y="0px"
	 viewBox="0 294 612 570.1" enable-background="new 0 294 612 570.1" xml:space="preserve">
<path fill="none" stroke="#75CEF4" stroke-width="3" stroke-miterlimit="10" d="M44.1,771.4l29-375.4c0,0,53.4-12.2,52.2-15.5
	l34.7-59.2l71.4,5.3l79.2-31l56.7,47.7l18.8,35.1l57.9,9.4l51.4,379.8L44.1,771.4L44.1,771.4z"/>
<path opacity="0.5" fill="#75CEF4" enable-background="new    " d="M44.1,771.4l29-375.4c0,0,53.4-12.2,52.2-15.5l34.7-59.2
	l71.4,5.3l79.2-31l56.7,47.7l18.8,35.1l57.9,9.4l51.4,379.8L44.1,771.4"/>
<path opacity="0.36" fill="#0A3575" enable-background="new    " d="M51.8,760.8L111,506.6l62.4,73.4l75.5-208.9l52.2,164l47.7-113
	l40.8,124.4l41.2-22L490,769.8L51.8,760.8z"/>
<g>
	<circle fill="#FFFFFF" cx="105.3" cy="762.9" r="57.9"/>
	<circle fill="#FFFFFF" cx="57.9" cy="806.1" r="57.9"/>
	<circle fill="#FFFFFF" cx="149.7" cy="712.7" r="90.2"/>
	<circle fill="#FFFFFF" cx="243.6" cy="609" r="90.2"/>
	<circle fill="#FFFFFF" cx="93" cy="642.5" r="22.4"/>
	<circle fill="#FFFFFF" cx="146.5" cy="601.7" r="31"/>
	<circle fill="#FFFFFF" cx="211.3" cy="526.2" r="22.4"/>
	<circle fill="#FFFFFF" cx="243.2" cy="525.4" r="22.4"/>
	<circle fill="#FFFFFF" cx="360.3" cy="630.7" r="35.9"/>
	<circle fill="#FFFFFF" cx="331.7" cy="593.9" r="22.4"/>
	<circle fill="#FFFFFF" cx="59.6" cy="744.1" r="22.4"/>
	<circle fill="#FFFFFF" cx="113" cy="607.4" r="22.4"/>
	<circle fill="#FFFFFF" cx="554.1" cy="789.4" r="57.9"/>
	<circle fill="#FFFFFF" cx="283.6" cy="582.1" r="63.2"/>
	<circle fill="#FFFFFF" cx="272.1" cy="501.7" r="22.4"/>
	<circle fill="#FFFFFF" cx="406" cy="622.1" r="22.4"/>
	<circle fill="#FFFFFF" cx="490.8" cy="659.2" r="22.4"/>
	<circle fill="#FFFFFF" cx="468.8" cy="630.7" r="35.9"/>
	<circle fill="#FFFFFF" cx="436.6" cy="614.3" r="22.4"/>
	<circle fill="#FFFFFF" cx="550.8" cy="727.8" r="22.4"/>
</g>
<circle fill="#FFFFFF" cx="460.6" cy="740.8" r="90.2"/>
<rect x="93" y="630.7" fill="#FFFFFF" width="375.4" height="200.3"/>
</svg>
