<?xml version="1.0" encoding="utf-8"?>
<!-- Generator: Adobe Illustrator 18.0.0, SVG Export Plug-In . SVG Version: 6.00 Build 0)  -->
<!DOCTYPE svg PUBLIC "-//W3C//DTD SVG 1.1//EN" "http://www.w3.org/Graphics/SVG/1.1/DTD/svg11.dtd">
<svg version="1.1" id="Layer_1" xmlns="http://www.w3.org/2000/svg" xmlns:xlink="http://www.w3.org/1999/xlink" x="0px" y="0px"
	 viewBox="0 216.4 150 152" enable-background="new 0 216.4 150 152" xml:space="preserve">
<path fill="#2B43AD" d="M7.8,275.3h136.1v92.1H7.8V275.3z"/>
<g>
	<path fill="none" stroke="#3D5BBF" stroke-width="12" stroke-miterlimit="10" d="M8.1,331.4h45.2v-28.6h23.3v-15.5"/>
	<path fill="none" stroke="#3D5BBF" stroke-width="12" stroke-miterlimit="10" d="M23.5,302.3H39v14.9H11.6v-28.6h26.2h80.3"/>
	<path fill="none" stroke="#3D5BBF" stroke-width="12" stroke-miterlimit="10" d="M78.8,316.6H66.9v14.9h72h1.8v-46.4"/>
	<path fill="none" stroke="#3D5BBF" stroke-width="12" stroke-miterlimit="10" d="M113.3,316.6H127v-31.5"/>
	<path fill="none" stroke="#3D5BBF" stroke-width="12" stroke-miterlimit="10" d="M115.8,302.3H89.6v14.3h15.5"/>
	<path fill="none" stroke="#3D5BBF" stroke-width="12" stroke-miterlimit="10" d="M43.1,345.7h9.6v15.5H8.1"/>
	<path fill="none" stroke="#3D5BBF" stroke-width="12" stroke-miterlimit="10" d="M8.1,345.7h26.2"/>
	<path fill="none" stroke="#3D5BBF" stroke-width="12" stroke-miterlimit="10" d="M53.3,345.7h48.8v-14.9"/>
</g>
<path opacity="0.1" enable-background="new    " d="M143.8,294.6L7.1,285.4l0.6-12.6h136.1V294.6L143.8,294.6z"/>
<path opacity="0.1" enable-background="new    " d="M105.3,335.2h38.6v29.7h-38.6C105.3,364.9,105.3,335.2,105.3,335.2z"/>
<path opacity="0.1" enable-background="new    " d="M115.1,344.2h10.4V365h-10.4V344.2z"/>
<path fill="#87847D" d="M122.3,352.9h1.5v3.4h-1.5V352.9z"/>
<path opacity="0.1" enable-background="new    " d="M126.3,344.2h10.4V365h-10.4V344.2z"/>
<path fill="#87847D" d="M128,352.9h1.5v3.4H128V352.9z"/>
<g>
	<path fill="#FFFFFF" stroke="#FFFFFF" stroke-width="1.4" stroke-linejoin="round" stroke-miterlimit="10" d="M18.8,367.4
		c0-2.9-2.4-5.3-5.3-5.3s-5.3,2.4-5.3,5.3H18.8z"/>
	<path fill="#FFFFFF" stroke="#FFFFFF" stroke-width="4" stroke-linejoin="round" stroke-miterlimit="10" d="M44.4,365.5
		c0-7.9-6.3-14.3-14.3-14.3c-7.9,0-14.3,6.3-14.3,14.3H44.4z"/>
	<path fill="#FFFFFF" stroke="#FFFFFF" stroke-width="2.081" stroke-linejoin="round" stroke-miterlimit="10" d="M49.4,367.4
		c0-4.3-3.5-7.9-7.9-7.9s-7.9,3.5-7.9,7.9C33.6,367.4,49.4,367.4,49.4,367.4z"/>
</g>
<path fill="#2B43AD" d="M105.1,245.8h29.8v31.9h-29.7C105.1,277.6,105.1,245.8,105.1,245.8z"/>
<path opacity="0.1" enable-background="new    " d="M134.9,259.6l-29.7-4.6v-9.3h29.7V259.6z"/>
<g>
	<circle fill="#FDE08B" cx="113.9" cy="236" r="1.2"/>
	<circle fill="#FDE08B" cx="119.9" cy="236" r="1.2"/>
</g>
<path fill="#DC3126" d="M114.4,224.4c0,0,2.7-5.6,5.1-6.8c0,0-1.3,5.2,0.1,6.9L114.4,224.4"/>
<path fill="#FDE08B" d="M120.3,227.5c0,1.8-1.5,3.3-3.3,3.3c-1.8,0-3.3-1.5-3.3-3.3s1.5-3.3,3.3-3.3
	C118.8,224.2,120.3,225.7,120.3,227.5"/>
<path fill="#FFFFFF" d="M120.8,225.2c0,0.2-0.2,0.4-0.4,0.4h-6.6c-0.2,0-0.4-0.2-0.4-0.4v-0.8c0-0.2,0.2-0.4,0.4-0.4h6.5
	c0.2,0,0.4,0.2,0.4,0.4L120.8,225.2"/>
<g>
	<circle fill="#333333" cx="115.6" cy="227" r="0.6"/>
	<circle fill="#333333" cx="118.3" cy="227" r="0.6"/>
</g>
<path fill="#DC3126" d="M120.1,238.6c0,1.8-1.5,3.3-3.3,3.3c-1.8,0-3.3-1.5-3.3-3.3v-4.5c0-1.8,1.5-3.3,3.3-3.3
	c1.8,0,3.3,1.5,3.3,3.3V238.6"/>
<path fill="#FFFFFF" d="M115,240.6v5.6h1.7v-5.6"/>
<path fill="#DC3126" d="M115,240.6v3h1.7v-3"/>
<path fill="#333333" d="M116.8,245.9h-2c-0.7,1.3-2.4,1.3-2.6,0.3c0,0-0.9,1.8,3.2,1.5C116.4,247.7,117.2,246.8,116.8,245.9"/>
<path fill="#FFFFFF" d="M119.1,240.6v5.6h-1.7v-5.6"/>
<path fill="#DC3126" d="M119.1,240.6v3h-1.7v-3"/>
<path fill="#333333" d="M117.3,245.9h2c0.7,1.3,2.4,1.3,2.6,0.3c0,0,0.9,1.8-3.2,1.5C117.7,247.7,117,246.8,117.3,245.9"/>
<path fill="none" stroke="#FFFFFF" stroke-miterlimit="10" d="M116.9,230.7v8.9"/>
<path fill="#333333" d="M113.5,237h6.5v1.6h-6.5V237z"/>
<path fill="#FDD500" d="M116,236.8h1.7v1.9H116V236.8z"/>
<circle fill="#FFFFFF" cx="120" cy="217.1" r="0.7"/>
<g>
	<path fill="#FDE08B" d="M113.8,226.8l-1.1-1.5c0,0-0.6,3.8,1.5,3.3L113.8,226.8"/>
	<path fill="#FDE08B" d="M120,226.8l1.1-1.5c0,0,0.6,3.8-1.5,3.3L120,226.8"/>
</g>
<path fill="#7D8586" d="M0,261.9h150v17.9H0V261.9z"/>
<g>
	<path fill="#FFFFFF" stroke="#FFFFFF" stroke-width="2.081" stroke-linejoin="round" stroke-miterlimit="10" d="M38.7,262.4
		c0,4.3,3.5,7.9,7.9,7.9s7.9-3.5,7.9-7.9H38.7z"/>
	<path fill="#FFFFFF" stroke="#FFFFFF" stroke-width="2.081" stroke-linejoin="round" stroke-miterlimit="10" d="M22.9,262.4
		c0,4.3,3.5,7.9,7.9,7.9s7.9-3.5,7.9-7.9C38.7,262.4,22.9,262.4,22.9,262.4z"/>
	<path fill="#FFFFFF" stroke="#FFFFFF" stroke-width="2.081" stroke-linejoin="round" stroke-miterlimit="10" d="M7.1,262.4
		c0,4.3,3.5,7.9,7.9,7.9s7.9-3.5,7.9-7.9H7.1z"/>
</g>
<g>
	<path fill="#3D5BBF" d="M98.7,238.9h43.2v12.8H98.7V238.9z"/>
	<path fill="#3D5BBF" d="M98.7,232.1h9.6v10.3h-9.6V232.1z"/>
	<path fill="#3D5BBF" d="M116.3,232.1h9.6v10.3h-9.6V232.1z"/>
	<path fill="#3D5BBF" d="M132.3,232.1h9.6v10.3h-9.6V232.1z"/>
</g>
<path opacity="0.1" enable-background="new    " d="M24.8,310.3V280h15.5v37.4"/>
<path fill="#F36E21" d="M23.1,304.9v-25h15.5v32.1"/>
<path opacity="0.1" enable-background="new    " d="M23.1,282.3v-2.4h15.5v5.3"/>
<g>
	<circle fill="#AFD136" cx="112.1" cy="270.7" r="2"/>
	<circle fill="#AFD136" cx="119.9" cy="270.7" r="2"/>
	<circle fill="#AFD136" cx="127.6" cy="270.7" r="2"/>
</g>
<g>
	<text transform="matrix(1 0 0 1 23.8604 295.2077)" fill="#FFFFFF" font-family="'MyriadPro-Regular'" font-size="6.5516">&gt;</text>
	
		<text transform="matrix(1 0 0 1 23.8604 295.2077)" fill="none" stroke="#FFFFFF" stroke-width="1.452" stroke-linejoin="round" stroke-miterlimit="10" font-family="'MyriadPro-Regular'" font-size="6.5516">&gt;</text>
</g>
</svg>
