<?xml version="1.0" encoding="utf-8"?>
<!-- Generator: Adobe Illustrator 18.0.0, SVG Export Plug-In . SVG Version: 6.00 Build 0)  -->
<!DOCTYPE svg PUBLIC "-//W3C//DTD SVG 1.1//EN" "http://www.w3.org/Graphics/SVG/1.1/DTD/svg11.dtd">
<svg version="1.1" id="Layer_1" xmlns="http://www.w3.org/2000/svg" xmlns:xlink="http://www.w3.org/1999/xlink" x="0px" y="0px"
	 viewBox="45.4 124.5 150 182.7" enable-background="new 45.4 124.5 150 182.7" xml:space="preserve">
<path opacity="0.5" fill="#75CEF4" enable-background="new    " d="M63.2,288.8l5.2-72.1l4.3-7.4l5.6-36.4l27.4-3.4l19.1-27.8
	l20.6,2.2l23.7-17l17,52.1l3.7,109.1L63.2,288.8z"/>
<path fill="none" stroke="#75CEF4" stroke-width="3" stroke-miterlimit="10" d="M63.2,288.8l5.2-72.1l4.3-7.4l5.6-36.4l27.4-3.4
	l19.1-27.8l20.6,2.2l23.7-17l17,52.1l3.7,109.1L63.2,288.8z"/>
<path opacity="0.36" fill="#0A3575" enable-background="new    " d="M65.1,287.5l14.2-77.4l17.9,23.7l24.7-57.6l17.6,42.5l14.8-44.1
	l11.1,41l9.2-3.7l14.2,74.9C188.7,286.9,66.6,287.5,65.1,287.5"/>
<g>
	<circle fill="#FFFFFF" cx="179.4" cy="291.2" r="16"/>
	<circle fill="#FFFFFF" cx="87.3" cy="255.6" r="16"/>
	<circle fill="#FFFFFF" cx="128.1" cy="227.4" r="24.9"/>
	<circle fill="#FFFFFF" cx="137.8" cy="262.1" r="24.9"/>
	<circle fill="#FFFFFF" cx="60.8" cy="286.8" r="6.2"/>
	<circle fill="#FFFFFF" cx="51.6" cy="290.9" r="6.2"/>
	<circle fill="#FFFFFF" cx="64.5" cy="279.4" r="6.2"/>
	<circle fill="#FFFFFF" cx="67.1" cy="271.6" r="6.2"/>
	<circle fill="#FFFFFF" cx="84.1" cy="237.1" r="6.2"/>
	<circle fill="#FFFFFF" cx="73.9" cy="267.7" r="6.2"/>
	<circle fill="#FFFFFF" cx="92.9" cy="231.1" r="6.2"/>
	<circle fill="#FFFFFF" cx="180.1" cy="274.6" r="6.2"/>
	<circle fill="#FFFFFF" cx="163.6" cy="259.8" r="6.2"/>
	<circle fill="#FFFFFF" cx="164.1" cy="250.5" r="6.2"/>
	<circle fill="#FFFFFF" cx="174.7" cy="265.3" r="6.2"/>
	<circle fill="#FFFFFF" cx="120.2" cy="203.4" r="6.2"/>
	<circle fill="#FFFFFF" cx="102.1" cy="234.8" r="6.2"/>
	<circle fill="#FFFFFF" cx="133.9" cy="205" r="8.8"/>
	<circle fill="#FFFFFF" cx="125.3" cy="196.4" r="6.2"/>
	<circle fill="#FFFFFF" cx="149.8" cy="241.8" r="6.2"/>
	<circle fill="#FFFFFF" cx="171" cy="257.9" r="6.2"/>
</g>
<rect x="64.8" y="273.2" fill="#FFFFFF" width="109.1" height="26.8"/>
<rect x="79.6" y="235.8" fill="#FFFFFF" width="47.2" height="43.5"/>
<rect x="75.9" y="262.1" fill="#FFFFFF" width="99.9" height="18.4"/>
</svg>
