<?xml version="1.0" encoding="utf-8"?>
<!-- Generator: Adobe Illustrator 18.0.0, SVG Export Plug-In . SVG Version: 6.00 Build 0)  -->
<!DOCTYPE svg PUBLIC "-//W3C//DTD SVG 1.1//EN" "http://www.w3.org/Graphics/SVG/1.1/DTD/svg11.dtd">
<svg version="1.1" id="Layer_1" xmlns="http://www.w3.org/2000/svg" xmlns:xlink="http://www.w3.org/1999/xlink" x="0px" y="0px"
	 viewBox="0 180.4 150 141" enable-background="new 0 180.4 150 141" xml:space="preserve">
<path fill="none" stroke="#75CEF4" stroke-width="3" stroke-miterlimit="10" d="M10.8,298.7l7.1-92c0,0,13.1-3,12.8-3.8l8.5-14.5
	l17.5,1.3l19.4-7.6L90,193.8l4.6,8.6l14.2,2.3l12.6,93.1L10.8,298.7L10.8,298.7z"/>
<path opacity="0.5" fill="#75CEF4" enable-background="new    " d="M10.8,298.7l7.1-92c0,0,13.1-3,12.8-3.8l8.5-14.5l17.5,1.3
	l19.4-7.6L90,193.8l4.6,8.6l14.2,2.3l12.6,93.1L10.8,298.7"/>
<path opacity="0.36" fill="#0A3575" enable-background="new    " d="M12.7,296.1l14.5-62.3l15.3,18L61,200.6l12.8,40.2l11.7-27.7
	l10,30.5l10.1-5.4l14.5,60.1L12.7,296.1z"/>
<g>
	<circle fill="#FFFFFF" cx="25.8" cy="296.6" r="14.2"/>
	<circle fill="#FFFFFF" cx="14.2" cy="307.2" r="14.2"/>
	<circle fill="#FFFFFF" cx="36.7" cy="284.3" r="22.1"/>
	<circle fill="#FFFFFF" cx="59.7" cy="258.9" r="22.1"/>
	<circle fill="#FFFFFF" cx="22.8" cy="267.1" r="5.5"/>
	<circle fill="#FFFFFF" cx="35.9" cy="257.1" r="7.6"/>
	<circle fill="#FFFFFF" cx="51.8" cy="238.6" r="5.5"/>
	<circle fill="#FFFFFF" cx="59.6" cy="238.4" r="5.5"/>
	<circle fill="#FFFFFF" cx="88.3" cy="264.2" r="8.8"/>
	<circle fill="#FFFFFF" cx="81.3" cy="255.2" r="5.5"/>
	<circle fill="#FFFFFF" cx="14.6" cy="292" r="5.5"/>
	<circle fill="#FFFFFF" cx="27.7" cy="258.5" r="5.5"/>
	<circle fill="#FFFFFF" cx="135.8" cy="303.1" r="14.2"/>
	<circle fill="#FFFFFF" cx="69.5" cy="252.3" r="15.5"/>
	<circle fill="#FFFFFF" cx="66.7" cy="232.6" r="5.5"/>
	<circle fill="#FFFFFF" cx="99.5" cy="262.1" r="5.5"/>
	<circle fill="#FFFFFF" cx="120.3" cy="271.2" r="5.5"/>
	<circle fill="#FFFFFF" cx="114.9" cy="264.2" r="8.8"/>
	<circle fill="#FFFFFF" cx="107" cy="260.2" r="5.5"/>
	<circle fill="#FFFFFF" cx="135" cy="288" r="5.5"/>
</g>
<circle fill="#FFFFFF" cx="112.9" cy="291.2" r="22.1"/>
<rect x="22.8" y="264.2" fill="#FFFFFF" width="92" height="49.1"/>
</svg>
