<?xml version="1.0" encoding="iso-8859-1"?>
<!-- Generator: Adobe Illustrator 18.0.0, SVG Export Plug-In . SVG Version: 6.00 Build 0)  -->
<!DOCTYPE svg PUBLIC "-//W3C//DTD SVG 1.1//EN" "http://www.w3.org/Graphics/SVG/1.1/DTD/svg11.dtd">
<svg version="1.1" id="Layer_1" xmlns="http://www.w3.org/2000/svg" xmlns:xlink="http://www.w3.org/1999/xlink" x="0px" y="0px"
	 viewBox="31.146 87.384 88.002 84.601" style="enable-background:new 31.146 87.384 88.002 84.601;" xml:space="preserve">
<path style="opacity:0.5;fill:#75CEF4;enable-background:new    ;" d="M32.834,162.564l3.906-39.247l8.695-10.64l2.859-10.773
	l12.484,2.82l6.414-7.07l10.312-3.89l6.898-4.765l17.624,4.211l5.422,0.82l3.945,34.677l2.305,6.414l3.453,27.936L32.834,162.564z"
	/>
<path style="fill:none;stroke:#75CEF4;stroke-width:3;stroke-miterlimit:10;" d="M32.834,162.564l3.906-39.247l8.695-10.64
	l2.859-10.773l12.484,2.82l6.414-7.07l10.312-3.89l6.898-4.765l17.624,4.211l5.422,0.82l3.945,34.677l2.305,6.414l3.453,27.936
	L32.834,162.564z"/>
<path style="opacity:0.36;fill:#0A3575;enable-background:new    ;" d="M34.474,162.236l9.21-27.615l6.078,7.234l5.297-15.819
	l3.953,0.82l6.367-19.022l4.437,23.506l1.812-30.146L86.744,117.2l10.351,0.664l4.273,16.1l4.273-3.445l10.351,32.209
	L34.474,162.236z"/>
<g>
	<circle style="fill:#FFFFFF;" cx="38.474" cy="162.252" r="7.328"/>
	<circle style="fill:#FFFFFF;" cx="62.496" cy="127.473" r="7.328"/>
	<circle style="fill:#FFFFFF;" cx="68.644" cy="117.505" r="7.328"/>
	<circle style="fill:#FFFFFF;" cx="89.853" cy="148.682" r="7.328"/>
	<circle style="fill:#FFFFFF;" cx="111.821" cy="162.58" r="7.328"/>
	<circle style="fill:#FFFFFF;" cx="100.876" cy="162.252" r="7.328"/>
	<circle style="fill:#FFFFFF;" cx="49.911" cy="155.893" r="11.429"/>
	<circle style="fill:#FFFFFF;" cx="54.785" cy="138.074" r="11.429"/>
	<circle style="fill:#FFFFFF;" cx="65.386" cy="150.588" r="11.429"/>
	<circle style="fill:#FFFFFF;" cx="61.996" cy="160.556" r="11.429"/>
	<circle style="fill:#FFFFFF;" cx="79.174" cy="159.916" r="11.429"/>
	<circle style="fill:#FFFFFF;" cx="89.353" cy="159.494" r="11.429"/>
	<circle style="fill:#FFFFFF;" cx="80.659" cy="142.956" r="11.429"/>
	<circle style="fill:#FFFFFF;" cx="75.565" cy="132.347" r="11.429"/>
	<circle style="fill:#FFFFFF;" cx="45.434" cy="145.284" r="2.859"/>
	<circle style="fill:#FFFFFF;" cx="53.707" cy="125.778" r="2.859"/>
	<circle style="fill:#FFFFFF;" cx="57.207" cy="123.231" r="2.859"/>
	<circle style="fill:#FFFFFF;" cx="53.817" cy="121.536" r="2.859"/>
	<circle style="fill:#FFFFFF;" cx="77.409" cy="120.989" r="4.343"/>
	<circle style="fill:#FFFFFF;" cx="67.917" cy="109.661" r="2.859"/>
	<circle style="fill:#FFFFFF;" cx="75.55" cy="116.231" r="2.859"/>
	<circle style="fill:#FFFFFF;" cx="86.846" cy="132.832" r="3.539"/>
	<circle style="fill:#FFFFFF;" cx="91.666" cy="141.683" r="2.859"/>
	<circle style="fill:#FFFFFF;" cx="96.97" cy="151.651" r="2.859"/>
	<circle style="fill:#FFFFFF;" cx="99.939" cy="155.252" r="2.859"/>
	<circle style="fill:#FFFFFF;" cx="104.391" cy="155.674" r="2.859"/>
	<circle style="fill:#FFFFFF;" cx="101.634" cy="151.44" r="2.859"/>
</g>
</svg>
