<?xml version="1.0" encoding="iso-8859-1"?>
<!-- Generator: Adobe Illustrator 18.0.0, SVG Export Plug-In . SVG Version: 6.00 Build 0)  -->
<!DOCTYPE svg PUBLIC "-//W3C//DTD SVG 1.1//EN" "http://www.w3.org/Graphics/SVG/1.1/DTD/svg11.dtd">
<svg version="1.1" id="Layer_1" xmlns="http://www.w3.org/2000/svg" xmlns:xlink="http://www.w3.org/1999/xlink" x="0px" y="0px"
	 viewBox="-1.336 78.958 151.326 102.559" style="enable-background:new -1.336 78.958 151.326 102.559;" xml:space="preserve">
<path style="opacity:0.5;fill:#75CEF4;enable-background:new    ;" d="M0.596,159.452l8.338-32.468l-1.146-25.276l28.975-7.703
	L61.51,80.541l15.48,3.288l22.792,9.534l10.998,6.47l22.163,1.258l0.361,25.483l6.165,7.601l3.264,25.893L0.596,159.452z"/>
<path style="fill:none;stroke:#75CEF4;stroke-width:3;stroke-miterlimit:10;" d="M0.596,159.452l8.338-32.468l-1.146-25.276
	l28.975-7.703L61.51,80.541l15.48,3.288l22.792,9.534l10.998,6.47l22.163,1.258l0.361,25.483l6.165,7.601l3.264,25.893
	L0.596,159.452z"/>
<path style="opacity:0.36;fill:#0A3575;enable-background:new    ;" d="M2.771,158.632l13.054-29.385l21.032-17.878
	c0,0,19.58,21.784,18.492,21.784c-1.088,0,21.756-30.208,21.756-30.208l22.481,52.812l14.141-21.167l27.194,24.866L2.774,158.633"/>
<g>
	<circle style="fill:#FFFFFF;" cx="11.59" cy="161.2" r="10.648"/>
	<circle style="fill:#FFFFFF;" cx="48.99" cy="119.278" r="10.648"/>
	<circle style="fill:#FFFFFF;" cx="27.955" cy="151.027" r="16.619"/>
	<circle style="fill:#FFFFFF;" cx="38.436" cy="129.142" r="16.619"/>
	<circle style="fill:#FFFFFF;" cx="55.389" cy="139.93" r="16.619"/>
	<circle style="fill:#FFFFFF;" cx="52.307" cy="151.644" r="16.619"/>
	<circle style="fill:#FFFFFF;" cx="71.418" cy="164.899" r="16.619"/>
	<circle style="fill:#FFFFFF;" cx="7.789" cy="150.821" r="4.157"/>
	<circle style="fill:#FFFFFF;" cx="12.515" cy="148.151" r="4.157"/>
	<circle style="fill:#FFFFFF;" cx="36.765" cy="110.955" r="4.157"/>
	<circle style="fill:#FFFFFF;" cx="41.9" cy="112.395" r="4.157"/>
	<circle style="fill:#FFFFFF;" cx="45.599" cy="110.955" r="4.157"/>
	<circle style="fill:#FFFFFF;" cx="47.803" cy="106.384" r="5.655"/>
	<circle style="fill:#FFFFFF;" cx="59.162" cy="124.311" r="4.157"/>
	<circle style="fill:#FFFFFF;" cx="71.699" cy="146.095" r="4.157"/>
	<circle style="fill:#FFFFFF;" cx="77.266" cy="150.614" r="6.421"/>
	<circle style="fill:#FFFFFF;" cx="86.905" cy="158.835" r="4.157"/>
	<circle style="fill:#FFFFFF;" cx="70.518" cy="161.2" r="10.648"/>
	<circle style="fill:#FFFFFF;" cx="107.918" cy="119.278" r="10.648"/>
	<circle style="fill:#FFFFFF;" cx="86.88" cy="151.027" r="16.619"/>
	<circle style="fill:#FFFFFF;" cx="94.281" cy="129.743" r="16.619"/>
	<circle style="fill:#FFFFFF;" cx="114.314" cy="139.93" r="16.619"/>
	<circle style="fill:#FFFFFF;" cx="111.232" cy="151.644" r="16.619"/>
	<circle style="fill:#FFFFFF;" cx="130.343" cy="164.899" r="16.619"/>
	<circle style="fill:#FFFFFF;" cx="66.714" cy="150.821" r="4.157"/>
	<circle style="fill:#FFFFFF;" cx="71.443" cy="148.151" r="4.157"/>
	<circle style="fill:#FFFFFF;" cx="60.343" cy="138.432" r="9.039"/>
	<circle style="fill:#FFFFFF;" cx="100.828" cy="112.395" r="4.157"/>
	<circle style="fill:#FFFFFF;" cx="79.559" cy="138.432" r="9.039"/>
	<circle style="fill:#FFFFFF;" cx="68.018" cy="147.763" r="9.039"/>
	<circle style="fill:#FFFFFF;" cx="83.687" cy="120.304" r="7.671"/>
	<circle style="fill:#FFFFFF;" cx="69.217" cy="122.48" r="12.296"/>
	<circle style="fill:#FFFFFF;" cx="118.09" cy="124.311" r="4.157"/>
	<circle style="fill:#FFFFFF;" cx="130.627" cy="146.095" r="4.157"/>
	<circle style="fill:#FFFFFF;" cx="136.194" cy="150.614" r="6.421"/>
	<circle style="fill:#FFFFFF;" cx="145.833" cy="158.835" r="4.157"/>
</g>
</svg>
