<?xml version="1.0" encoding="iso-8859-1"?>
<!-- Generator: Adobe Illustrator 18.0.0, SVG Export Plug-In . SVG Version: 6.00 Build 0)  -->
<!DOCTYPE svg PUBLIC "-//W3C//DTD SVG 1.1//EN" "http://www.w3.org/Graphics/SVG/1.1/DTD/svg11.dtd">
<svg version="1.1" id="Layer_1" xmlns="http://www.w3.org/2000/svg" xmlns:xlink="http://www.w3.org/1999/xlink" x="0px" y="0px"
	 viewBox="8.752 87.393 130.981 85.577" style="enable-background:new 8.752 87.393 130.981 85.577;" xml:space="preserve">
<path style="opacity:0.5;fill:#75CEF4;enable-background:new    ;" d="M16.132,158.252l2.922-12.179l-2.922-36.74l-5.429-18.225
	L30.1,88.952l14.671,11.601l34.67,5.961l14.757-14.866l23.514,5.843l13.726,4.062l-3.297,30.568l5.14,8.273l2.492,17.928
	l-6.921-0.219L16.132,158.252z"/>
<path style="fill:none;stroke:#75CEF4;stroke-width:3;stroke-miterlimit:10;" d="M16.132,158.252l2.922-12.179l-2.922-36.74
	l-5.429-18.225L30.1,88.952l14.671,11.601l34.67,5.961l14.757-14.866l23.514,5.843l13.726,4.062l-3.297,30.568l5.14,8.273
	l2.492,17.928l-6.921-0.219L16.132,158.252z"/>
<path style="opacity:0.36;fill:#0A3575;enable-background:new    ;" d="M20.67,160.236l5.562-13.726l5.867,10.343l14.397-35.06
	l5.695,27.037l11.054-39.185l8.546,32.053l10.093-14.241l5.945,14.257l9.328,0.789l8.992-12.39l13.39,13.312l13.538,16.21
	L20.67,160.236z"/>
<g>
	<circle style="fill:#FFFFFF;" cx="63.847" cy="143.026" r="12.163"/>
	<circle style="fill:#FFFFFF;" cx="79.877" cy="127.418" r="12.163"/>
	<circle style="fill:#FFFFFF;" cx="82.159" cy="142.581" r="12.163"/>
	<circle style="fill:#FFFFFF;" cx="101.501" cy="145.94" r="12.163"/>
	<circle style="fill:#FFFFFF;" cx="95.798" cy="130.715" r="12.163"/>
	<circle style="fill:#FFFFFF;" cx="118.476" cy="154.416" r="12.163"/>
	<circle style="fill:#FFFFFF;" cx="117.766" cy="141.956" r="12.163"/>
	<circle style="fill:#FFFFFF;" cx="68.761" cy="130.902" r="5.726"/>
	<circle style="fill:#FFFFFF;" cx="89.377" cy="116.661" r="5.726"/>
	<circle style="fill:#FFFFFF;" cx="106.415" cy="129.254" r="5.726"/>
	<circle style="fill:#FFFFFF;" cx="82.744" cy="115.755" r="3.039"/>
	<circle style="fill:#FFFFFF;" cx="96.064" cy="118.216" r="3.039"/>
	<circle style="fill:#FFFFFF;" cx="121.57" cy="142.792" r="3.039"/>
	<circle style="fill:#FFFFFF;" cx="112.688" cy="125.949" r="3.039"/>
	<circle style="fill:#FFFFFF;" cx="106.251" cy="124.356" r="5.195"/>
	<circle style="fill:#FFFFFF;" cx="111.586" cy="119.629" r="3.039"/>
	<circle style="fill:#FFFFFF;" cx="116.523" cy="129.262" r="3.039"/>
	<circle style="fill:#FFFFFF;" cx="113.985" cy="124.535" r="3.789"/>
	<path style="fill:#FFFFFF;" d="M115.977,131.168c-0.062,2.492-2.43,4.242-4.828,3.57c-1.641-0.461-2.781-2.008-2.742-3.711
		c0.062-2.492,2.43-4.242,4.828-3.57C114.867,127.918,116.016,129.465,115.977,131.168"/>
	<path style="fill:#FFFFFF;" d="M109.891,136.097c-0.062,2.492-2.43,4.242-4.828,3.57c-1.641-0.461-2.781-2.008-2.742-3.711
		c0.062-2.492,2.43-4.242,4.828-3.57C108.79,132.847,109.93,134.394,109.891,136.097"/>
	<circle style="fill:#FFFFFF;" cx="132.968" cy="155.682" r="6.765"/>
	<circle style="fill:#FFFFFF;" cx="19.132" cy="155.744" r="6.765"/>
	<circle style="fill:#FFFFFF;" cx="128.624" cy="148.354" r="3.57"/>
	<circle style="fill:#FFFFFF;" cx="31.287" cy="152.588" r="12.163"/>
	<circle style="fill:#FFFFFF;" cx="44.817" cy="134.769" r="12.163"/>
	<circle style="fill:#FFFFFF;" cx="49.333" cy="149.432" r="12.163"/>
	<circle style="fill:#FFFFFF;" cx="68.956" cy="149.885" r="12.163"/>
	<circle style="fill:#FFFFFF;" cx="61.058" cy="135.675" r="12.163"/>
	<circle style="fill:#FFFFFF;" cx="87.002" cy="155.744" r="12.163"/>
	<circle style="fill:#FFFFFF;" cx="76.401" cy="142.44" r="12.163"/>
	<circle style="fill:#FFFFFF;" cx="34.349" cy="139.87" r="5.726"/>
	<circle style="fill:#FFFFFF;" cx="52.621" cy="122.731" r="5.726"/>
	<circle style="fill:#FFFFFF;" cx="71.339" cy="132.652" r="5.726"/>
	<circle style="fill:#FFFFFF;" cx="45.927" cy="122.817" r="3.039"/>
	<circle style="fill:#FFFFFF;" cx="59.465" cy="123.27" r="3.039"/>
	<circle style="fill:#FFFFFF;" cx="88.33" cy="143.792" r="3.039"/>
	<circle style="fill:#FFFFFF;" cx="77.057" cy="128.457" r="3.039"/>
	<circle style="fill:#FFFFFF;" cx="70.448" cy="127.832" r="5.195"/>
	<circle style="fill:#FFFFFF;" cx="75.026" cy="122.364" r="3.039"/>
	<circle style="fill:#FFFFFF;" cx="81.338" cy="131.16" r="3.039"/>
	<circle style="fill:#FFFFFF;" cx="78.12" cy="126.863" r="3.789"/>
	<circle style="fill:#FFFFFF;" cx="101.517" cy="154.846" r="6.765"/>
	<circle style="fill:#FFFFFF;" cx="96.134" cy="148.245" r="3.57"/>
	<circle style="fill:#FFFFFF;" cx="52.106" cy="157.65" r="12.163"/>
	<circle style="fill:#FFFFFF;" cx="65.636" cy="139.831" r="12.163"/>
	<circle style="fill:#FFFFFF;" cx="70.152" cy="154.494" r="12.163"/>
	<circle style="fill:#FFFFFF;" cx="89.767" cy="154.947" r="12.163"/>
	<circle style="fill:#FFFFFF;" cx="81.877" cy="140.737" r="12.163"/>
	<circle style="fill:#FFFFFF;" cx="107.813" cy="160.806" r="12.163"/>
	<circle style="fill:#FFFFFF;" cx="97.212" cy="147.503" r="12.163"/>
	<circle style="fill:#FFFFFF;" cx="55.168" cy="144.932" r="5.726"/>
	<circle style="fill:#FFFFFF;" cx="73.433" cy="127.793" r="5.726"/>
	<circle style="fill:#FFFFFF;" cx="92.158" cy="137.714" r="5.726"/>
	<circle style="fill:#FFFFFF;" cx="66.746" cy="127.879" r="3.039"/>
	<circle style="fill:#FFFFFF;" cx="80.276" cy="128.332" r="3.039"/>
	<circle style="fill:#FFFFFF;" cx="109.149" cy="148.854" r="3.039"/>
	<circle style="fill:#FFFFFF;" cx="97.868" cy="133.519" r="3.039"/>
	<circle style="fill:#FFFFFF;" cx="91.267" cy="132.894" r="5.195"/>
	<circle style="fill:#FFFFFF;" cx="95.845" cy="127.426" r="3.039"/>
	<circle style="fill:#FFFFFF;" cx="102.157" cy="136.222" r="3.039"/>
	<circle style="fill:#FFFFFF;" cx="98.939" cy="131.926" r="3.789"/>
	<circle style="fill:#FFFFFF;" cx="122.336" cy="159.908" r="6.765"/>
	<circle style="fill:#FFFFFF;" cx="116.953" cy="153.307" r="3.57"/>
</g>
</svg>
