<?xml version="1.0" encoding="utf-8"?>
<!-- Generator: Adobe Illustrator 18.0.0, SVG Export Plug-In . SVG Version: 6.00 Build 0)  -->
<!DOCTYPE svg PUBLIC "-//W3C//DTD SVG 1.1//EN" "http://www.w3.org/Graphics/SVG/1.1/DTD/svg11.dtd">
<svg version="1.1" id="Layer_1" xmlns="http://www.w3.org/2000/svg" xmlns:xlink="http://www.w3.org/1999/xlink" x="0px" y="0px"
	 viewBox="0 254 612 536.4" enable-background="new 0 254 612 536.4" xml:space="preserve">
<path opacity="0.5" fill="#75CEF4" enable-background="new    " d="M121.6,736.6l5.3-171l40.4-47.3l-49-85.3l172.2-126.9l135-50.2
	l56.3,131.8L413.3,442c0,0,35.1,80.4,29.8,81.2c-5.7,0.8,37.1,18.4,37.1,18.4L592,736.2"/>
<path fill="none" stroke="#75CEF4" stroke-width="3" stroke-miterlimit="10" d="M121.6,736.6l5.3-171l40.4-47.3l-49-85.3
	l172.2-126.9l135-50.2l56.3,131.8L413.3,442c0,0,35.1,80.4,29.8,81.2c-5.7,0.8,37.1,18.4,37.1,18.4L592,736.2"/>
<path opacity="0.36" fill="#0A3575" enable-background="new    " d="M124,735.3l2-115.1l49-55.9l7.8-118.3l106.1,157.1l41.6-139.9
	l29.8,173.4L390.5,515l34.7,222L124,735.3z"/>
<g>
	<circle fill="#FFFFFF" cx="19.2" cy="739" r="19.2"/>
	<circle fill="#FFFFFF" cx="179.1" cy="600.3" r="55.5"/>
	<circle fill="#FFFFFF" cx="228.9" cy="523.2" r="55.5"/>
	<circle fill="#FFFFFF" cx="401.1" cy="533" r="55.5"/>
	<circle fill="#FFFFFF" cx="201.1" cy="690.5" r="100"/>
	<circle fill="#FFFFFF" cx="409.2" cy="624.4" r="86.5"/>
	<circle fill="#FFFFFF" cx="107.7" cy="699.8" r="21.6"/>
	<circle fill="#FFFFFF" cx="80.8" cy="731.7" r="21.6"/>
	<circle fill="#FFFFFF" cx="174.2" cy="545.6" r="21.6"/>
	<circle fill="#FFFFFF" cx="222.8" cy="465.2" r="21.6"/>
	<circle fill="#FFFFFF" cx="246.8" cy="483.2" r="21.6"/>
	<circle fill="#FFFFFF" cx="298.2" cy="542.4" r="21.6"/>
	<circle fill="#FFFFFF" cx="346.4" cy="539.1" r="30.2"/>
	<circle fill="#FFFFFF" cx="386.4" cy="481.6" r="21.6"/>
	<circle fill="#FFFFFF" cx="581" cy="712.1" r="31"/>
	<circle fill="#FFFFFF" cx="558.1" cy="675.8" r="21.6"/>
	<circle fill="#FFFFFF" cx="523.1" cy="640.7" r="21.6"/>
	<circle fill="#FFFFFF" cx="552" cy="653.3" r="21.6"/>
	<circle fill="#FFFFFF" cx="542.2" cy="626" r="21.6"/>
	<circle fill="#FFFFFF" cx="485.9" cy="614.2" r="31.4"/>
	<circle fill="#FFFFFF" cx="450.8" cy="521.5" r="21.6"/>
	<circle fill="#FFFFFF" cx="468.4" cy="548.9" r="21.6"/>
</g>
<rect x="211.3" y="548.9" fill="#FFFFFF" width="239.1" height="214.2"/>
<rect x="419" y="640.7" fill="#FFFFFF" width="139.1" height="131.8"/>
</svg>
