<?xml version="1.0" encoding="utf-8"?>
<!-- Generator: Adobe Illustrator 18.0.0, SVG Export Plug-In . SVG Version: 6.00 Build 0)  -->
<!DOCTYPE svg PUBLIC "-//W3C//DTD SVG 1.1//EN" "http://www.w3.org/Graphics/SVG/1.1/DTD/svg11.dtd">
<svg version="1.1" id="Layer_1" xmlns="http://www.w3.org/2000/svg" xmlns:xlink="http://www.w3.org/1999/xlink" x="0px" y="0px"
	 viewBox="0 91.5 612 700.5" enable-background="new 0 91.5 612 700.5" xml:space="preserve">
<g id="HOUSE16">
	<g>
		<rect x="65.7" y="326.7" fill="#EC4180" width="331.7" height="465.3"/>
		<g>
			<g>
				<rect x="33.3" y="281.2" fill="#FBC02D" width="63.4" height="364.6"/>
				<rect x="96.8" y="312.7" fill="#3549BD" width="63.4" height="333.1"/>
				<rect x="287.1" y="315.4" fill="#3549BD" width="63.4" height="330.4"/>
				<rect x="153.9" y="312.7" opacity="0.1" enable-background="new    " width="6.3" height="333.1"/>
				<rect x="344.2" y="315.4" opacity="0.1" enable-background="new    " width="6.3" height="330.4"/>
				<rect x="160.2" y="225.4" fill="#EA5009" width="63.4" height="420.4"/>
				<rect x="223.7" y="250.9" fill="#FBC02D" width="63.4" height="394.9"/>
				<rect x="90.4" y="281.2" opacity="0.1" enable-background="new    " width="6.3" height="364.6"/>
				<rect x="280.8" y="250.9" opacity="0.1" enable-background="new    " width="6.3" height="394.9"/>
			</g>
			<rect x="217.3" y="225.4" opacity="0.1" enable-background="new    " width="6.3" height="420.4"/>
			<rect x="350.6" y="296.6" fill="#EA5009" width="63.4" height="349.2"/>
			<rect x="407.7" y="296.6" opacity="0.1" enable-background="new    " width="6.3" height="349.2"/>
		</g>
		<g>
			<ellipse opacity="0.14" enable-background="new    " cx="306.3" cy="457.2" rx="80.3" ry="122.5"/>
			<ellipse opacity="0.14" enable-background="new    " cx="253.3" cy="457.2" rx="80.3" ry="122.5"/>
			<path fill="#404144" d="M307.3,499.1l-132-1.5l0.2-18.7c0-4.4,3.6-7.9,8-7.8l116.2,1.3c4.4,0,7.8,3.6,7.8,8L307.3,499.1z"/>
			<path fill="#606163" d="M306.3,476.8l-131.1,15.7l-2.2-18.6c-0.5-4.3,2.6-8.3,6.9-8.8l115.4-13.9c4.3-0.5,8.2,2.6,8.8,6.9
				L306.3,476.8z"/>
			<path fill="#404144" d="M304.9,457.1L175.2,482l-3.5-18.4c-0.8-4.3,2-8.5,6.3-9.3l114.2-22c4.3-0.8,8.4,2,9.2,6.3L304.9,457.1z"
				/>
			<path fill="#606163" d="M299.6,435.5l-125.4,41.6l-5.8-17.8c-1.4-4.2,0.9-8.6,5-10l110.4-36.6c4.1-1.4,8.6,0.9,10,5L299.6,435.5z
				"/>
			<path opacity="0.3" enable-background="new    " d="M297.2,428.1l-125.4,41.6l-3.8-11.5c-1.2-3.5,0.7-7.3,4.3-8.5L285,412.3
				c3.5-1.2,7.3,0.8,8.5,4.3L297.2,428.1z"/>
			<polygon fill="#606163" points="192,411.3 105.2,306.5 115.2,298.2 197.4,397.5 237.4,392.2 272.1,374.9 280.8,244.4 
				293.7,245.2 284.5,383.2 241.3,404.8 			"/>
			<g>
				<line fill="none" x1="209.1" y1="198.4" x2="229.5" y2="367.6"/>
				
					<rect x="134.2" y="280.6" transform="matrix(0.1194 0.9928 -0.9928 0.1194 474.1499 31.4684)" fill="#D7B256" width="170.3" height="4.9"/>
			</g>
			<circle fill="#D7B256" cx="267.4" cy="183.1" r="64.7"/>
			<circle opacity="0.38" fill="#D7B256" enable-background="new    " cx="267.4" cy="183.1" r="57.6"/>
			<circle fill="#D7B256" cx="267.4" cy="183.1" r="49.3"/>
			<circle fill="#D7B256" cx="267.4" cy="183.1" r="42"/>
			<g>
				<path fill="#606163" d="M267.4,274.7c-39.8,0-74.8-25.5-87.1-63.3c-7.6-23.3-5.6-48.1,5.5-69.9s30-38,53.3-45.5
					c9.2-3,18.7-4.5,28.3-4.5c39.8,0,74.8,25.5,87.1,63.3c15.6,48-10.8,99.8-58.8,115.5C286.5,273.2,277,274.7,267.4,274.7z
					 M267.4,104.4c-8.2,0-16.4,1.3-24.3,3.9c-20,6.5-36.2,20.4-45.8,39.1c-9.6,18.7-11.2,40-4.7,60c10.6,32.5,40.6,54.4,74.8,54.4
					c8.2,0,16.4-1.3,24.3-3.9c41.2-13.4,63.9-57.9,50.5-99.1C331.6,126.3,301.6,104.4,267.4,104.4z"/>
				<path fill="#606163" d="M267.4,274.7c-39.8,0-74.8-25.5-87.1-63.3c-7.6-23.3-5.6-48.1,5.5-69.9s30-38,53.3-45.5
					c9.2-3,18.7-4.5,28.3-4.5c39.8,0,74.8,25.5,87.1,63.3c15.6,48-10.8,99.8-58.8,115.5C286.5,273.2,277,274.7,267.4,274.7z
					 M267.4,104.4c-8.2,0-16.4,1.3-24.3,3.9c-20,6.5-36.2,20.4-45.8,39.1c-9.6,18.7-11.2,40-4.7,60c10.6,32.5,40.6,54.4,74.8,54.4
					c8.2,0,16.4-1.3,24.3-3.9c41.2-13.4,63.9-57.9,50.5-99.1C331.6,126.3,301.6,104.4,267.4,104.4z"/>
				<circle fill="#606163" cx="267.4" cy="183.1" r="29.8"/>
				
					<rect x="182.3" y="176.5" transform="matrix(0.3091 0.951 -0.951 0.3091 358.8608 -127.8907)" fill="#606163" width="170.3" height="13"/>
				
					<rect x="260.9" y="97.9" transform="matrix(0.891 0.4539 -0.4539 0.891 112.2465 -101.4347)" fill="#606163" width="13" height="170.3"/>
				
					<rect x="182.3" y="176.5" transform="matrix(0.891 0.4539 -0.4539 0.891 112.2114 -101.4395)" fill="#606163" width="170.3" height="13"/>
				
					<rect x="260.9" y="97.9" transform="matrix(0.309 0.9511 -0.9511 0.309 358.8896 -127.8348)" fill="#606163" width="13" height="170.3"/>
				<circle fill="#3D3D39" cx="267.4" cy="183.1" r="10.4"/>
			</g>
			<path fill="#393B36" d="M356.2,400.2l-209.7,68.1l-31.1-95.7c-3.2-9.9,2.2-20.5,12.1-23.7l174-56.5c9.9-3.2,20.5,2.2,23.7,12.1
				L356.2,400.2z"/>
			<path fill="#606163" d="M330.2,408.7l-46.1,15L280,411c-1.2-3.7,0.8-7.6,4.5-8.8l32.9-10.7c3.6-1.2,7.6,0.8,8.8,4.5L330.2,408.7z
				"/>
			
				<rect x="217.8" y="369.4" transform="matrix(-0.951 0.3091 -0.3091 -0.951 557.6434 672.8408)" fill="#606163" width="15.5" height="22.4"/>
			<circle opacity="0.6" fill="#3BFF65" enable-background="new    " cx="297" cy="318" r="10.7"/>
			<circle opacity="0.6" fill="#3BFF65" enable-background="new    " cx="297.7" cy="320.3" r="8.4"/>
			<circle opacity="0.6" fill="#3BFF65" enable-background="new    " cx="298.2" cy="321.5" r="7"/>
			<circle opacity="0.6" fill="#EA5009" enable-background="new    " cx="280" cy="328.1" r="5.4"/>
			<circle opacity="0.6" fill="#EA5009" enable-background="new    " cx="280.4" cy="329.2" r="4.2"/>
			<circle opacity="0.6" fill="#EA5009" enable-background="new    " cx="280.6" cy="329.9" r="3.5"/>
			
				<rect x="315.3" y="325.4" transform="matrix(0.951 -0.3091 0.3091 0.951 -90.3731 121.41)" fill="#393B36" width="45.3" height="41"/>
			<polygon fill="#393B36" points="386,372.5 321.6,351.2 361.2,296.2 			"/>
			
				<rect x="365.7" y="290" transform="matrix(-0.951 0.3091 -0.3091 -0.951 830.2474 537.0464)" fill="#606163" width="13.8" height="88.6"/>
			<g>
				<line fill="none" x1="152.1" y1="282.3" x2="222" y2="386.1"/>
				
					<rect x="124.5" y="331.8" transform="matrix(0.5588 0.8293 -0.8293 0.5588 359.6844 -7.6769)" fill="#D7B256" width="125.2" height="4.9"/>
			</g>
			<circle fill="#D7B256" cx="109.5" cy="299.7" r="47.3"/>
			<g>
				<g>
					<g>
						<defs>
							<path id="SVGID_1_" d="M356.2,400.2l-209.7,68.1l-31.1-95.7c-3.2-9.9,2.2-20.5,12.1-23.7l191.8-62.3L356.2,400.2z"/>
						</defs>
						<clipPath id="SVGID_2_">
							<use xlink:href="#SVGID_1_"  overflow="visible"/>
						</clipPath>
						<g clip-path="url(#SVGID_2_)">
							<path fill="#606163" d="M113.8,393.5c-47.9,0-88-37.5-91.3-85.4c-1.7-24.4,6.3-48,22.3-66.5s38.4-29.5,62.8-31.2
								c2.1-0.1,4.3-0.2,6.4-0.2c47.9,0,88,37.5,91.3,85.4c1.7,24.4-6.3,48-22.3,66.5c-16.1,18.4-38.4,29.5-62.8,31.2
								C118,393.5,115.9,393.5,113.8,393.5z M114,223.3c-1.8,0-3.7,0.1-5.5,0.2c-21,1.4-40.1,11-53.9,26.8
								c-13.8,15.8-20.6,36.1-19.2,57.1c2.8,41.1,37.2,73.3,78.4,73.3c1.8,0,3.7-0.1,5.5-0.2c21-1.4,40.1-11,53.9-26.8
								s20.6-36.1,19.2-57.1C189.5,255.4,155.1,223.3,114,223.3z"/>
							<path fill="#606163" d="M113.8,393.5c-47.9,0-88-37.5-91.3-85.4c-1.7-24.4,6.3-48,22.3-66.5s38.4-29.5,62.8-31.2
								c2.1-0.1,4.3-0.2,6.4-0.2c47.9,0,88,37.5,91.3,85.4c1.7,24.4-6.3,48-22.3,66.5c-16.1,18.4-38.4,29.5-62.8,31.2
								C118,393.5,115.9,393.5,113.8,393.5z M114,223.3c-1.8,0-3.7,0.1-5.5,0.2c-21,1.4-40.1,11-53.9,26.8
								c-13.8,15.8-20.6,36.1-19.2,57.1c2.8,41.1,37.2,73.3,78.4,73.3c1.8,0,3.7-0.1,5.5-0.2c21-1.4,40.1-11,53.9-26.8
								s20.6-36.1,19.2-57.1C189.5,255.4,155.1,223.3,114,223.3z"/>
							<circle fill="#606163" cx="113.9" cy="301.9" r="29.8"/>
							
								<rect x="28.7" y="295.4" transform="matrix(6.839435e-02 0.9977 -0.9977 6.839435e-02 407.2706 167.6784)" fill="#606163" width="170.3" height="13"/>
							
								<rect x="107.4" y="216.7" transform="matrix(0.7539 0.657 -0.657 0.7539 226.3572 -0.5207)" fill="#606163" width="13" height="170.3"/>
							
								<rect x="28.7" y="295.5" transform="matrix(0.7539 0.657 -0.657 0.7539 226.4143 -0.5135)" fill="#606163" width="170.3" height="13"/>
							
								<rect x="107.4" y="216.7" transform="matrix(6.839435e-02 0.9977 -0.9977 6.839435e-02 407.2597 167.5828)" fill="#606163" width="13" height="170.3"/>
							<circle fill="#3D3D39" cx="113.9" cy="301.9" r="10.4"/>
						</g>
					</g>
				</g>
			</g>
			<g>
				<path fill="#606163" d="M109.5,391.3c-47.9,0-88-37.5-91.3-85.4c-1.7-24.4,6.3-48,22.3-66.5s38.4-29.5,62.8-31.2
					c2.1-0.1,4.3-0.2,6.4-0.2c47.9,0,88,37.5,91.3,85.4c3.5,50.4-34.7,94.2-85.1,97.7C113.7,391.3,111.6,391.3,109.5,391.3z
					 M109.6,221.1c-1.8,0-3.7,0.1-5.5,0.2c-21,1.4-40.1,11-53.9,26.8c-13.8,15.8-20.6,36.1-19.2,57.1c2.8,41.1,37.2,73.3,78.4,73.3
					c1.8,0,3.7-0.1,5.5-0.2c43.3-3,76-40.6,73.1-83.8C185.2,253.2,150.8,221.1,109.6,221.1z"/>
				<path fill="#606163" d="M109.5,391.3c-47.9,0-88-37.5-91.3-85.4c-1.7-24.4,6.3-48,22.3-66.5s38.4-29.5,62.8-31.2
					c2.1-0.1,4.3-0.2,6.4-0.2c47.9,0,88,37.5,91.3,85.4c3.5,50.4-34.7,94.2-85.1,97.7C113.7,391.3,111.6,391.3,109.5,391.3z
					 M109.6,221.1c-1.8,0-3.7,0.1-5.5,0.2c-21,1.4-40.1,11-53.9,26.8c-13.8,15.8-20.6,36.1-19.2,57.1c2.8,41.1,37.2,73.3,78.4,73.3
					c1.8,0,3.7-0.1,5.5-0.2c43.3-3,76-40.6,73.1-83.8C185.2,253.2,150.8,221.1,109.6,221.1z"/>
				<circle fill="#606163" cx="109.5" cy="299.7" r="29.8"/>
				
					<rect x="24.4" y="293.2" transform="matrix(6.839435e-02 0.9977 -0.9977 6.839435e-02 401.0231 169.9165)" fill="#606163" width="170.3" height="13"/>
				
					<rect x="103" y="214.5" transform="matrix(0.7539 0.657 -0.657 0.7539 223.8301 1.7838)" fill="#606163" width="13" height="170.3"/>
				
					<rect x="24.4" y="293.2" transform="matrix(0.7539 0.657 -0.657 0.7539 223.8511 1.7934)" fill="#606163" width="170.3" height="13"/>
				
					<rect x="103.1" y="214.6" transform="matrix(6.839435e-02 0.9977 -0.9977 6.839435e-02 401.1189 169.9063)" fill="#606163" width="13" height="170.3"/>
				<circle fill="#3D3D39" cx="109.5" cy="299.7" r="10.4"/>
			</g>
			<path opacity="0.29" enable-background="new    " d="M356.2,400.2l-209.7,68.1l-0.8-2.6c-1.8-5.5,1.2-11.4,6.7-13.2l189.8-61.7
				c5.5-1.8,11.4,1.2,13.2,6.7L356.2,400.2z"/>
		</g>
		<g>
			<path fill="#854691" d="M429.8,429.7c-140,47.8-282.3,66.6-422.4,77c0,56.2,0,112.4,0,168.7c140.8,0,281.6,0,422.4,0
				C429.8,593.5,429.8,511.6,429.8,429.7z"/>
		</g>
		<rect x="7.4" y="533.9" fill="#EA5009" width="422.4" height="131.7"/>
		<rect x="5.6" y="546.3" fill="#FEF4D9" width="426" height="106.8"/>
		<rect x="23.4" y="675.4" fill="#854691" width="390.4" height="116.6"/>
		<polygon fill="#353535" points="437.2,665.6 0,665.6 0,675.4 437.2,675.4 		"/>
		<polygon fill="#353535" points="437.2,524.1 0,524.1 0,533.9 437.2,533.9 		"/>
		<g>
			<g>
				<rect x="320" y="754.4" fill="#85837D" width="4.6" height="11.2"/>
			</g>
			<g>
				<circle fill="#FFDF8A" cx="307.5" cy="750.6" r="3.9"/>
				<circle fill="#FFDF8A" cx="331.8" cy="751.6" r="3.9"/>
				<path fill="#EA5009" d="M311.9,716.2c0,0,8.4-17.6,16.1-21.2c0,0-4,16.5,0.4,21.6L311.9,716.2z"/>
				<path fill="#FFDF8A" d="M330.5,725.7c0,5.7-4.6,10.3-10.3,10.3l0,0c-5.7,0-10.3-4.6-10.3-10.3l0,0c0-5.7,4.6-10.3,10.3-10.3l0,0
					C326,715.4,330.5,720,330.5,725.7L330.5,725.7z"/>
				<path fill="#FFFFFF" d="M313.6,728.2c0.5,3.2,3.3,5.7,6.7,5.7c3.4,0,6.2-2.5,6.7-5.7H313.6z"/>
				<path fill="#FFFFFF" d="M332,718.4c0,0.8-0.6,1.4-1.4,1.4h-20.4c-0.8,0-1.4-0.6-1.4-1.4v-2.5c0-0.8,0.6-1.4,1.4-1.4h20.4
					c0.8,0,1.4,0.6,1.4,1.4V718.4z"/>
				<circle fill="#333333" cx="315.9" cy="724.2" r="1.8"/>
				<circle fill="#333333" cx="324.3" cy="724.2" r="1.8"/>
				<path fill="#EA5009" d="M330.1,760.4c0,5.7-4.6,10.3-10.3,10.3c-5.7,0-10.3-4.6-10.3-10.3v-14.2c0-5.7,4.6-10.3,10.3-10.3
					s10.3,4.6,10.3,10.3V760.4z"/>
				<polyline fill="#FFFFFF" points="313.9,766.7 313.9,784.3 319.3,784.3 319.3,766.7 				"/>
				<polyline fill="#00B2EE" points="313.9,766.7 313.9,776.1 319.3,776.1 319.3,766.7 				"/>
				<polyline fill="#FFFFFF" points="326.9,766.7 326.9,784.3 321.5,784.3 321.5,766.7 				"/>
				<polyline fill="#00B2EE" points="326.9,766.7 326.9,776.1 321.5,776.1 321.5,766.7 				"/>
				<rect x="309.5" y="755.2" fill="#333333" width="20.5" height="5.1"/>
				<rect x="317.1" y="754.8" fill="#FFD400" width="5.4" height="5.9"/>
				<circle fill="#FFFFFF" cx="329.6" cy="693.2" r="2.2"/>
				<path fill="#FFDF8A" d="M310,723.5l-3.4-4.6c0,0-2,12,4.6,10.5L310,723.5z"/>
				<path fill="#FFDF8A" d="M329.6,723.5l3.4-4.6c0,0,2,12-4.6,10.5L329.6,723.5z"/>
				<g>
					<g>
						<g>
							<defs>
								<path id="SVGID_3_" d="M330.1,760.4c0,5.7-4.6,10.3-10.3,10.3c-5.7,0-10.3-4.6-10.3-10.3v-14.2c0-5.7,4.6-10.3,10.3-10.3
									s10.3,4.6,10.3,10.3V760.4z"/>
							</defs>
							<clipPath id="SVGID_4_">
								<use xlink:href="#SVGID_3_"  overflow="visible"/>
							</clipPath>
							<rect x="326.5" y="736" clip-path="url(#SVGID_4_)" fill="#FFFFFF" width="1.8" height="27.6"/>
						</g>
					</g>
					<g>
						<g>
							<defs>
								<path id="SVGID_5_" d="M330.1,760.4c0,5.7-4.6,10.3-10.3,10.3c-5.7,0-10.3-4.6-10.3-10.3v-14.2c0-5.7,4.6-10.3,10.3-10.3
									s10.3,4.6,10.3,10.3V760.4z"/>
							</defs>
							<clipPath id="SVGID_6_">
								<use xlink:href="#SVGID_5_"  overflow="visible"/>
							</clipPath>
							<rect x="319.5" y="736" clip-path="url(#SVGID_6_)" fill="#FFFFFF" width="1.8" height="27.6"/>
						</g>
					</g>
					<g>
						<g>
							<defs>
								<path id="SVGID_7_" d="M330.1,760.4c0,5.7-4.6,10.3-10.3,10.3c-5.7,0-10.3-4.6-10.3-10.3v-14.2c0-5.7,4.6-10.3,10.3-10.3
									s10.3,4.6,10.3,10.3V760.4z"/>
							</defs>
							<clipPath id="SVGID_8_">
								<use xlink:href="#SVGID_7_"  overflow="visible"/>
							</clipPath>
							<rect x="315.4" y="736" clip-path="url(#SVGID_8_)" fill="#FFFFFF" width="1.8" height="27.6"/>
						</g>
					</g>
					<g>
						<g>
							<defs>
								<path id="SVGID_9_" d="M330.1,760.4c0,5.7-4.6,10.3-10.3,10.3c-5.7,0-10.3-4.6-10.3-10.3v-14.2c0-5.7,4.6-10.3,10.3-10.3
									s10.3,4.6,10.3,10.3V760.4z"/>
							</defs>
							<clipPath id="SVGID_10_">
								<use xlink:href="#SVGID_9_"  overflow="visible"/>
							</clipPath>
							<rect x="311.2" y="736" clip-path="url(#SVGID_10_)" fill="#FFFFFF" width="1.8" height="27.6"/>
						</g>
					</g>
					<g>
						<g>
							<defs>
								<path id="SVGID_11_" d="M330.1,760.4c0,5.7-4.6,10.3-10.3,10.3c-5.7,0-10.3-4.6-10.3-10.3v-14.2c0-5.7,4.6-10.3,10.3-10.3
									s10.3,4.6,10.3,10.3V760.4z"/>
							</defs>
							<clipPath id="SVGID_12_">
								<use xlink:href="#SVGID_11_"  overflow="visible"/>
							</clipPath>
							<rect x="323" y="736" clip-path="url(#SVGID_12_)" fill="#FFFFFF" width="1.8" height="27.6"/>
						</g>
					</g>
				</g>
			</g>
			<rect x="271.4" y="675.5" fill="#EA5009" width="98" height="19.3"/>
			<rect x="271.4" y="751.5" fill="#EA5009" width="98" height="40.5"/>
			<g>
				<path opacity="0.23" fill="#FFFFFF" enable-background="new    " d="M276.4,692.5v60.8h26.1v-17.6c0-9.9,8-17.9,17.9-17.9
					c4.9,0,9.4,2,12.7,5.2c3.2,3.2,5.2,7.7,5.2,12.7v17.7h26.1v-60.8h-88V692.5z"/>
				<polygon opacity="0.13" fill="#FFFFFF" enable-background="new    " points="297.3,692.5 276.4,692.5 276.4,713.4 				"/>
				<path opacity="0.13" fill="#FFFFFF" enable-background="new    " d="M332.2,692.5h-30.1l-25.7,25.7v29.9
					C295,729.6,313.6,711.1,332.2,692.5z"/>
				<path opacity="5.000000e-02" enable-background="new    " d="M338.1,735.4v10.7c8.8-8.8,17.5-17.6,26.3-26.4V709
					C355.6,717.8,346.9,726.6,338.1,735.4z"/>
				<path opacity="5.000000e-02" enable-background="new    " d="M338,751v2.3h26.4v-28.8C355.6,733.3,346.8,742.2,338,751z"/>
			</g>
			<path opacity="0.23" fill="#FFFFFF" enable-background="new    " d="M277.1,692.5v60.8h26.1v-17.6c0-9.9,8-17.9,17.9-17.9
				c4.9,0,9.4,2,12.7,5.2c3.2,3.2,5.2,7.7,5.2,12.7v17.7h26.1v-60.8h-88V692.5z"/>
			<path opacity="0.23" fill="#FFFFFF" enable-background="new    " d="M276.4,692.5v60.8h26.1v-17.6c0-9.9,8-17.9,17.9-17.9
				c4.9,0,9.4,2,12.7,5.2c3.2,3.2,5.2,7.7,5.2,12.7v17.7h26.1v-60.8h-88V692.5z"/>
		</g>
		<polygon opacity="0.2" enable-background="new    " points="23.4,675.4 413.8,712.5 413.8,675.4 		"/>
		<g>
			<g>
				<rect x="95.1" y="728.3" opacity="0.45" enable-background="new    " width="31.5" height="63.7"/>
				<rect x="118.9" y="754.4" fill="#85837D" width="4.6" height="11.2"/>
			</g>
			<g>
				<rect x="128.3" y="728.3" opacity="0.45" enable-background="new    " width="31.5" height="63.7"/>
				<rect x="131.4" y="754.4" fill="#85837D" width="4.6" height="11.2"/>
			</g>
			<g>
				<rect x="178.3" y="728.3" opacity="0.45" enable-background="new    " width="31.5" height="63.7"/>
				<rect x="202.1" y="754.4" fill="#85837D" width="4.6" height="11.2"/>
			</g>
			<g>
				<rect x="211.5" y="728.3" opacity="0.45" enable-background="new    " width="31.5" height="63.7"/>
				<rect x="214.6" y="754.4" fill="#85837D" width="4.6" height="11.2"/>
			</g>
		</g>
		<g>
			<g>
				<path fill="#FFFFFF" d="M139.2,523.7c0-7,5.6-12.6,12.6-12.6s12.6,5.6,12.6,12.6H139.2z"/>
				<path fill="#FFFFFF" d="M164.5,525.6h-25.2c-1,0-1.9-0.8-1.9-1.9c0-8,6.5-14.5,14.5-14.5s14.5,6.5,14.5,14.5
					C166.3,524.7,165.5,525.6,164.5,525.6z M141.3,521.8h21.2c-0.9-5-5.3-8.9-10.6-8.9C146.6,513,142.2,516.8,141.3,521.8z"/>
			</g>
			<g>
				<path fill="#FFFFFF" d="M44.9,523.7c0-7,5.6-12.6,12.6-12.6s12.6,5.6,12.6,12.6H44.9z"/>
				<path fill="#FFFFFF" d="M70.1,525.6H44.9c-1,0-1.9-0.8-1.9-1.9c0-8,6.5-14.5,14.5-14.5S72,515.7,72,523.7
					C72,524.7,71.2,525.6,70.1,525.6z M47,521.8h21.2c-0.9-5-5.3-8.9-10.6-8.9S47.8,516.8,47,521.8z"/>
			</g>
			<g>
				<path fill="#FFFFFF" d="M100.1,523.7c0-13.4,10.8-24.2,24.2-24.2s24.2,10.8,24.2,24.2H100.1z"/>
				<path fill="#FFFFFF" d="M148.5,525.6h-48.4c-1,0-1.9-0.8-1.9-1.9c0-14.4,11.7-26.1,26.1-26.1s26.1,11.7,26.1,26.1
					C150.3,524.7,149.5,525.6,148.5,525.6z M102,521.8h44.5c-0.9-11.4-10.6-20.5-22.3-20.5C112.6,501.4,102.9,510.4,102,521.8z"/>
			</g>
			<g>
				<path fill="#FFFFFF" d="M71.5,523.7c0-9.3,7.6-16.9,16.9-16.9c9.4,0,16.9,7.6,16.9,16.9H71.5z"/>
				<path fill="#FFFFFF" d="M105.4,525.6H71.5c-1,0-1.9-0.8-1.9-1.9c0-10.4,8.4-18.8,18.8-18.8s18.8,8.4,18.8,18.8
					C107.3,524.7,106.4,525.6,105.4,525.6z M73.5,521.8h29.9c-0.9-7.4-7.3-13.2-15-13.2C80.8,508.6,74.4,514.4,73.5,521.8z"/>
			</g>
		</g>
		<g>
			<g>
				<g>
					<circle opacity="0.1" fill="#FFFFFF" enable-background="new    " cx="10.1" cy="537.5" r="6.2"/>
					<circle opacity="0.21" fill="#FFFFFF" enable-background="new    " cx="10.4" cy="537.8" r="5.4"/>
					<circle fill="#FFFFFF" cx="9.7" cy="537.2" r="4.4"/>
				</g>
				<g>
					<circle opacity="0.2" fill="#FFF170" enable-background="new    " cx="28.6" cy="537.8" r="5.4"/>
					<circle opacity="0.2" fill="#FFF170" enable-background="new    " cx="27.5" cy="535.8" r="6.2"/>
					<circle fill="#FFF170" cx="27.9" cy="537.2" r="4.4"/>
				</g>
				<g>
					<circle opacity="0.21" fill="#FFFFFF" enable-background="new    " cx="46.8" cy="537.8" r="5.4"/>
					<circle opacity="0.1" fill="#FFFFFF" enable-background="new    " cx="46.5" cy="537.5" r="6.2"/>
					<circle fill="#FFFFFF" cx="46.1" cy="537.2" r="4.4"/>
				</g>
				<g>
					<circle opacity="0.2" fill="#FFF170" enable-background="new    " cx="65" cy="537.8" r="5.4"/>
					<circle opacity="0.2" fill="#FFF170" enable-background="new    " cx="63.9" cy="535.8" r="6.2"/>
					<circle fill="#FFF170" cx="64.3" cy="537.2" r="4.4"/>
				</g>
			</g>
			<g>
				<g>
					<circle opacity="0.1" fill="#FFFFFF" enable-background="new    " cx="82.9" cy="537.5" r="6.2"/>
					<circle opacity="0.21" fill="#FFFFFF" enable-background="new    " cx="83.2" cy="537.8" r="5.4"/>
					<circle fill="#FFFFFF" cx="82.5" cy="537.2" r="4.4"/>
				</g>
				<g>
					<circle opacity="0.2" fill="#FFF170" enable-background="new    " cx="101.4" cy="537.8" r="5.4"/>
					<circle opacity="0.2" fill="#FFF170" enable-background="new    " cx="100.3" cy="535.8" r="6.2"/>
					<circle fill="#FFF170" cx="100.7" cy="537.2" r="4.4"/>
				</g>
				<g>
					<circle opacity="0.21" fill="#FFFFFF" enable-background="new    " cx="119.6" cy="537.8" r="5.4"/>
					<circle opacity="0.1" fill="#FFFFFF" enable-background="new    " cx="119.3" cy="537.5" r="6.2"/>
					<circle fill="#FFFFFF" cx="118.9" cy="537.2" r="4.4"/>
				</g>
				<g>
					<circle opacity="0.2" fill="#FFF170" enable-background="new    " cx="137.8" cy="537.8" r="5.4"/>
					<circle opacity="0.2" fill="#FFF170" enable-background="new    " cx="136.7" cy="535.8" r="6.2"/>
					<circle fill="#FFF170" cx="137.1" cy="537.2" r="4.4"/>
				</g>
			</g>
			<g>
				<g>
					<circle opacity="0.1" fill="#FFFFFF" enable-background="new    " cx="155.7" cy="537.5" r="6.2"/>
					<circle opacity="0.21" fill="#FFFFFF" enable-background="new    " cx="156" cy="537.8" r="5.4"/>
					<circle fill="#FFFFFF" cx="155.3" cy="537.2" r="4.4"/>
				</g>
				<g>
					<circle opacity="0.2" fill="#FFF170" enable-background="new    " cx="174.2" cy="537.8" r="5.4"/>
					<circle opacity="0.2" fill="#FFF170" enable-background="new    " cx="173.1" cy="535.8" r="6.2"/>
					<circle fill="#FFF170" cx="173.5" cy="537.2" r="4.4"/>
				</g>
				<g>
					<circle opacity="0.21" fill="#FFFFFF" enable-background="new    " cx="192.4" cy="537.8" r="5.4"/>
					<circle opacity="0.1" fill="#FFFFFF" enable-background="new    " cx="192.1" cy="537.5" r="6.2"/>
					<circle fill="#FFFFFF" cx="191.7" cy="537.2" r="4.4"/>
				</g>
				<g>
					<circle opacity="0.2" fill="#FFF170" enable-background="new    " cx="210.6" cy="537.8" r="5.4"/>
					<circle opacity="0.2" fill="#FFF170" enable-background="new    " cx="209.5" cy="535.8" r="6.2"/>
					<circle fill="#FFF170" cx="209.9" cy="537.2" r="4.4"/>
				</g>
			</g>
			<g>
				<g>
					<circle opacity="0.1" fill="#FFFFFF" enable-background="new    " cx="228.5" cy="537.5" r="6.2"/>
					<circle opacity="0.21" fill="#FFFFFF" enable-background="new    " cx="228.8" cy="537.8" r="5.4"/>
					<circle fill="#FFFFFF" cx="228.1" cy="537.2" r="4.4"/>
				</g>
				<g>
					<circle opacity="0.2" fill="#FFF170" enable-background="new    " cx="247" cy="537.8" r="5.4"/>
					<circle opacity="0.2" fill="#FFF170" enable-background="new    " cx="245.9" cy="535.8" r="6.2"/>
					<circle fill="#FFF170" cx="246.3" cy="537.2" r="4.4"/>
				</g>
				<g>
					<circle opacity="0.21" fill="#FFFFFF" enable-background="new    " cx="265.2" cy="537.8" r="5.4"/>
					<circle opacity="0.1" fill="#FFFFFF" enable-background="new    " cx="264.9" cy="537.5" r="6.2"/>
					<circle fill="#FFFFFF" cx="264.5" cy="537.2" r="4.4"/>
				</g>
				<g>
					<circle opacity="0.2" fill="#FFF170" enable-background="new    " cx="283.4" cy="537.8" r="5.4"/>
					<circle opacity="0.2" fill="#FFF170" enable-background="new    " cx="282.3" cy="535.8" r="6.2"/>
					<circle fill="#FFF170" cx="282.7" cy="537.2" r="4.4"/>
				</g>
			</g>
			<g>
				<g>
					<circle opacity="0.1" fill="#FFFFFF" enable-background="new    " cx="301.3" cy="537.5" r="6.2"/>
					<circle opacity="0.21" fill="#FFFFFF" enable-background="new    " cx="301.6" cy="537.8" r="5.4"/>
					<circle fill="#FFFFFF" cx="300.9" cy="537.2" r="4.4"/>
				</g>
				<g>
					<circle opacity="0.2" fill="#FFF170" enable-background="new    " cx="319.8" cy="537.8" r="5.4"/>
					<circle opacity="0.2" fill="#FFF170" enable-background="new    " cx="318.7" cy="535.8" r="6.2"/>
					<circle fill="#FFF170" cx="319.1" cy="537.2" r="4.4"/>
				</g>
				<g>
					<circle opacity="0.21" fill="#FFFFFF" enable-background="new    " cx="338" cy="537.8" r="5.4"/>
					<circle opacity="0.1" fill="#FFFFFF" enable-background="new    " cx="337.7" cy="537.5" r="6.2"/>
					<circle fill="#FFFFFF" cx="337.3" cy="537.2" r="4.4"/>
				</g>
				<g>
					<circle opacity="0.2" fill="#FFF170" enable-background="new    " cx="356.2" cy="537.8" r="5.4"/>
					<circle opacity="0.2" fill="#FFF170" enable-background="new    " cx="355.1" cy="535.8" r="6.2"/>
					<circle fill="#FFF170" cx="355.5" cy="537.2" r="4.4"/>
				</g>
			</g>
			<g>
				<g>
					<circle opacity="0.1" fill="#FFFFFF" enable-background="new    " cx="374.2" cy="537.5" r="6.2"/>
					<circle opacity="0.21" fill="#FFFFFF" enable-background="new    " cx="374.4" cy="537.8" r="5.4"/>
					<circle fill="#FFFFFF" cx="373.7" cy="537.2" r="4.4"/>
				</g>
				<g>
					<circle opacity="0.2" fill="#FFF170" enable-background="new    " cx="392.6" cy="537.8" r="5.4"/>
					<circle opacity="0.2" fill="#FFF170" enable-background="new    " cx="391.5" cy="535.8" r="6.2"/>
					<circle fill="#FFF170" cx="391.9" cy="537.2" r="4.4"/>
				</g>
				<g>
					<circle opacity="0.21" fill="#FFFFFF" enable-background="new    " cx="410.8" cy="537.8" r="5.4"/>
					<circle opacity="0.1" fill="#FFFFFF" enable-background="new    " cx="410.6" cy="537.5" r="6.2"/>
					<circle fill="#FFFFFF" cx="410.2" cy="537.2" r="4.4"/>
				</g>
				<g>
					<circle opacity="0.2" fill="#FFF170" enable-background="new    " cx="429" cy="537.8" r="5.4"/>
					<circle opacity="0.2" fill="#FFF170" enable-background="new    " cx="427.9" cy="535.8" r="6.2"/>
					<circle fill="#FFF170" cx="428.4" cy="537.2" r="4.4"/>
				</g>
			</g>
		</g>
		<g>
			<g>
				<g>
					<circle opacity="0.1" fill="#FFFFFF" enable-background="new    " cx="10.1" cy="663.9" r="6.2"/>
					<circle opacity="0.21" fill="#FFFFFF" enable-background="new    " cx="10.4" cy="664.2" r="5.4"/>
					<circle fill="#FFFFFF" cx="9.7" cy="663.6" r="4.4"/>
				</g>
				<g>
					<circle opacity="0.2" fill="#FFF170" enable-background="new    " cx="28.6" cy="664.2" r="5.4"/>
					<circle opacity="0.2" fill="#FFF170" enable-background="new    " cx="27.5" cy="662.2" r="6.2"/>
					<circle fill="#FFF170" cx="27.9" cy="663.6" r="4.4"/>
				</g>
				<g>
					<circle opacity="0.21" fill="#FFFFFF" enable-background="new    " cx="46.8" cy="664.2" r="5.4"/>
					<circle opacity="0.1" fill="#FFFFFF" enable-background="new    " cx="46.5" cy="663.9" r="6.2"/>
					<circle fill="#FFFFFF" cx="46.1" cy="663.6" r="4.4"/>
				</g>
				<g>
					<circle opacity="0.2" fill="#FFF170" enable-background="new    " cx="65" cy="664.2" r="5.4"/>
					<circle opacity="0.2" fill="#FFF170" enable-background="new    " cx="63.9" cy="662.2" r="6.2"/>
					<circle fill="#FFF170" cx="64.3" cy="663.6" r="4.4"/>
				</g>
			</g>
			<g>
				<g>
					<circle opacity="0.1" fill="#FFFFFF" enable-background="new    " cx="82.9" cy="663.9" r="6.2"/>
					<circle opacity="0.21" fill="#FFFFFF" enable-background="new    " cx="83.2" cy="664.2" r="5.4"/>
					<circle fill="#FFFFFF" cx="82.5" cy="663.6" r="4.4"/>
				</g>
				<g>
					<circle opacity="0.2" fill="#FFF170" enable-background="new    " cx="101.4" cy="664.2" r="5.4"/>
					<circle opacity="0.2" fill="#FFF170" enable-background="new    " cx="100.3" cy="662.2" r="6.2"/>
					<circle fill="#FFF170" cx="100.7" cy="663.6" r="4.4"/>
				</g>
				<g>
					<circle opacity="0.21" fill="#FFFFFF" enable-background="new    " cx="119.6" cy="664.2" r="5.4"/>
					<circle opacity="0.1" fill="#FFFFFF" enable-background="new    " cx="119.3" cy="663.9" r="6.2"/>
					<circle fill="#FFFFFF" cx="118.9" cy="663.6" r="4.4"/>
				</g>
				<g>
					<circle opacity="0.2" fill="#FFF170" enable-background="new    " cx="137.8" cy="664.2" r="5.4"/>
					<circle opacity="0.2" fill="#FFF170" enable-background="new    " cx="136.7" cy="662.2" r="6.2"/>
					<circle fill="#FFF170" cx="137.1" cy="663.6" r="4.4"/>
				</g>
			</g>
			<g>
				<g>
					<circle opacity="0.1" fill="#FFFFFF" enable-background="new    " cx="155.7" cy="663.9" r="6.2"/>
					<circle opacity="0.21" fill="#FFFFFF" enable-background="new    " cx="156" cy="664.2" r="5.4"/>
					<circle fill="#FFFFFF" cx="155.3" cy="663.6" r="4.4"/>
				</g>
				<g>
					<circle opacity="0.2" fill="#FFF170" enable-background="new    " cx="174.2" cy="664.2" r="5.4"/>
					<circle opacity="0.2" fill="#FFF170" enable-background="new    " cx="173.1" cy="662.2" r="6.2"/>
					<circle fill="#FFF170" cx="173.5" cy="663.6" r="4.4"/>
				</g>
				<g>
					<circle opacity="0.21" fill="#FFFFFF" enable-background="new    " cx="192.4" cy="664.2" r="5.4"/>
					<circle opacity="0.1" fill="#FFFFFF" enable-background="new    " cx="192.1" cy="663.9" r="6.2"/>
					<circle fill="#FFFFFF" cx="191.7" cy="663.6" r="4.4"/>
				</g>
				<g>
					<circle opacity="0.2" fill="#FFF170" enable-background="new    " cx="210.6" cy="664.2" r="5.4"/>
					<circle opacity="0.2" fill="#FFF170" enable-background="new    " cx="209.5" cy="662.2" r="6.2"/>
					<circle fill="#FFF170" cx="209.9" cy="663.6" r="4.4"/>
				</g>
			</g>
			<g>
				<g>
					<circle opacity="0.1" fill="#FFFFFF" enable-background="new    " cx="228.5" cy="663.9" r="6.2"/>
					<circle opacity="0.21" fill="#FFFFFF" enable-background="new    " cx="228.8" cy="664.2" r="5.4"/>
					<circle fill="#FFFFFF" cx="228.1" cy="663.6" r="4.4"/>
				</g>
				<g>
					<circle opacity="0.2" fill="#FFF170" enable-background="new    " cx="247" cy="664.2" r="5.4"/>
					<circle opacity="0.2" fill="#FFF170" enable-background="new    " cx="245.9" cy="662.2" r="6.2"/>
					<circle fill="#FFF170" cx="246.3" cy="663.6" r="4.4"/>
				</g>
				<g>
					<circle opacity="0.21" fill="#FFFFFF" enable-background="new    " cx="265.2" cy="664.2" r="5.4"/>
					<circle opacity="0.1" fill="#FFFFFF" enable-background="new    " cx="264.9" cy="663.9" r="6.2"/>
					<circle fill="#FFFFFF" cx="264.5" cy="663.6" r="4.4"/>
				</g>
				<g>
					<circle opacity="0.2" fill="#FFF170" enable-background="new    " cx="283.4" cy="664.2" r="5.4"/>
					<circle opacity="0.2" fill="#FFF170" enable-background="new    " cx="282.3" cy="662.2" r="6.2"/>
					<circle fill="#FFF170" cx="282.7" cy="663.6" r="4.4"/>
				</g>
			</g>
			<g>
				<g>
					<circle opacity="0.1" fill="#FFFFFF" enable-background="new    " cx="301.3" cy="663.9" r="6.2"/>
					<circle opacity="0.21" fill="#FFFFFF" enable-background="new    " cx="301.6" cy="664.2" r="5.4"/>
					<circle fill="#FFFFFF" cx="300.9" cy="663.6" r="4.4"/>
				</g>
				<g>
					<circle opacity="0.2" fill="#FFF170" enable-background="new    " cx="319.8" cy="664.2" r="5.4"/>
					<circle opacity="0.2" fill="#FFF170" enable-background="new    " cx="318.7" cy="662.2" r="6.2"/>
					<circle fill="#FFF170" cx="319.1" cy="663.6" r="4.4"/>
				</g>
				<g>
					<circle opacity="0.21" fill="#FFFFFF" enable-background="new    " cx="338" cy="664.2" r="5.4"/>
					<circle opacity="0.1" fill="#FFFFFF" enable-background="new    " cx="337.7" cy="663.9" r="6.2"/>
					<circle fill="#FFFFFF" cx="337.3" cy="663.6" r="4.4"/>
				</g>
				<g>
					<circle opacity="0.2" fill="#FFF170" enable-background="new    " cx="356.2" cy="664.2" r="5.4"/>
					<circle opacity="0.2" fill="#FFF170" enable-background="new    " cx="355.1" cy="662.2" r="6.2"/>
					<circle fill="#FFF170" cx="355.5" cy="663.6" r="4.4"/>
				</g>
			</g>
			<g>
				<g>
					<circle opacity="0.1" fill="#FFFFFF" enable-background="new    " cx="374.2" cy="663.9" r="6.2"/>
					<circle opacity="0.21" fill="#FFFFFF" enable-background="new    " cx="374.4" cy="664.2" r="5.4"/>
					<circle fill="#FFFFFF" cx="373.7" cy="663.6" r="4.4"/>
				</g>
				<g>
					<circle opacity="0.2" fill="#FFF170" enable-background="new    " cx="392.6" cy="664.2" r="5.4"/>
					<circle opacity="0.2" fill="#FFF170" enable-background="new    " cx="391.5" cy="662.2" r="6.2"/>
					<circle fill="#FFF170" cx="391.9" cy="663.6" r="4.4"/>
				</g>
				<g>
					<circle opacity="0.21" fill="#FFFFFF" enable-background="new    " cx="410.8" cy="664.2" r="5.4"/>
					<circle opacity="0.1" fill="#FFFFFF" enable-background="new    " cx="410.6" cy="663.9" r="6.2"/>
					<circle fill="#FFFFFF" cx="410.2" cy="663.6" r="4.4"/>
				</g>
				<g>
					<circle opacity="0.2" fill="#FFF170" enable-background="new    " cx="429" cy="664.2" r="5.4"/>
					<circle opacity="0.2" fill="#FFF170" enable-background="new    " cx="427.9" cy="662.2" r="6.2"/>
					<circle fill="#FFF170" cx="428.4" cy="663.6" r="4.4"/>
				</g>
			</g>
		</g>
		<g>
			<rect x="24.5" y="569.7" opacity="0.11" enable-background="new    " width="131.6" height="13.3"/>
			<rect x="24.5" y="608.8" opacity="0.11" enable-background="new    " width="131.6" height="13.3"/>
			<rect x="24.5" y="589.2" opacity="0.11" enable-background="new    " width="115.4" height="13.3"/>
			<rect x="171.3" y="569.7" opacity="0.11" enable-background="new    " width="26.2" height="13.3"/>
			<rect x="171.3" y="608.8" opacity="0.11" enable-background="new    " width="26.2" height="13.3"/>
			<rect x="171.3" y="589.2" opacity="0.11" enable-background="new    " width="22.4" height="13.3"/>
			<rect x="242.2" y="569.7" opacity="0.11" enable-background="new    " width="131.6" height="13.3"/>
			<rect x="242.2" y="608.8" opacity="0.11" enable-background="new    " width="131.6" height="13.3"/>
			<rect x="242.2" y="589.2" opacity="0.11" enable-background="new    " width="115.4" height="13.3"/>
			<rect x="388.9" y="569.7" opacity="0.11" enable-background="new    " width="26.2" height="13.3"/>
			<rect x="388.9" y="608.8" opacity="0.11" enable-background="new    " width="26.2" height="13.3"/>
			<rect x="388.9" y="589.2" opacity="0.11" enable-background="new    " width="22.4" height="13.3"/>
		</g>
		<g>
			<g>
				<circle opacity="0.1" fill="#FFFFFF" enable-background="new    " cx="282.3" cy="684.6" r="6.2"/>
				<circle opacity="0.21" fill="#FFFFFF" enable-background="new    " cx="282.5" cy="684.8" r="5.4"/>
				<circle fill="#FFFFFF" cx="281.9" cy="684.3" r="4.4"/>
			</g>
			<g>
				<circle opacity="0.2" fill="#FFF170" enable-background="new    " cx="300.7" cy="684.8" r="5.4"/>
				<circle opacity="0.2" fill="#FFF170" enable-background="new    " cx="299.7" cy="682.8" r="6.2"/>
				<circle fill="#FFF170" cx="300.1" cy="684.3" r="4.4"/>
			</g>
			<g>
				<circle opacity="0.21" fill="#FFFFFF" enable-background="new    " cx="318.9" cy="684.8" r="5.4"/>
				<circle opacity="0.1" fill="#FFFFFF" enable-background="new    " cx="318.7" cy="684.6" r="6.2"/>
				<circle fill="#FFFFFF" cx="318.3" cy="684.3" r="4.4"/>
			</g>
			<g>
				<circle opacity="0.2" fill="#FFF170" enable-background="new    " cx="337.1" cy="684.8" r="5.4"/>
				<circle opacity="0.2" fill="#FFF170" enable-background="new    " cx="336.1" cy="682.8" r="6.2"/>
				<circle fill="#FFF170" cx="336.5" cy="684.3" r="4.4"/>
			</g>
			<g>
				<circle opacity="0.21" fill="#FFFFFF" enable-background="new    " cx="355.3" cy="684.8" r="5.4"/>
				<circle opacity="0.1" fill="#FFFFFF" enable-background="new    " cx="355.1" cy="684.6" r="6.2"/>
				<circle fill="#FFFFFF" cx="354.7" cy="684.3" r="4.4"/>
			</g>
		</g>
		
			<linearGradient id="SVGID_13_" gradientUnits="userSpaceOnUse" x1="197.2263" y1="97.3465" x2="328.9792" y2="97.3465" gradientTransform="matrix(1.8603 0 0 1.8603 0 91.4562)">
			<stop  offset="0" style="stop-color:#FFFFFF"/>
			<stop  offset="0.7198" style="stop-color:#FFFFFF;stop-opacity:0.1327"/>
			<stop  offset="0.9041" style="stop-color:#FFFFFF;stop-opacity:0"/>
		</linearGradient>
		<polygon opacity="0.27" fill="url(#SVGID_13_)" enable-background="new    " points="612,354.5 391.3,369.4 366.9,294.1 
			556.4,175.7 		"/>
		
			<linearGradient id="SVGID_14_" gradientUnits="userSpaceOnUse" x1="197.2263" y1="107.3449" x2="295.705" y2="107.3449" gradientTransform="matrix(1.8603 0 0 1.8603 0 91.4562)">
			<stop  offset="0" style="stop-color:#FFFFFF"/>
			<stop  offset="0.7198" style="stop-color:#FFFFFF;stop-opacity:0.1327"/>
			<stop  offset="0.9041" style="stop-color:#FFFFFF;stop-opacity:0"/>
		</linearGradient>
		<polygon opacity="0.27" fill="url(#SVGID_14_)" enable-background="new    " points="550.1,380.3 391.3,369.4 366.9,294.1 
			494.6,202 		"/>
	</g>
</g>
<g id="Layer_1_1_">
</g>
</svg>
