<?xml version="1.0" encoding="utf-8"?>
<!-- Generator: Adobe Illustrator 18.0.0, SVG Export Plug-In . SVG Version: 6.00 Build 0)  -->
<!DOCTYPE svg PUBLIC "-//W3C//DTD SVG 1.1//EN" "http://www.w3.org/Graphics/SVG/1.1/DTD/svg11.dtd">
<svg version="1.1" id="Layer_1" xmlns="http://www.w3.org/2000/svg" xmlns:xlink="http://www.w3.org/1999/xlink" x="0px" y="0px"
	 viewBox="31.1 261.7 612 568" enable-background="new 31.1 261.7 612 568" xml:space="preserve">
<path opacity="0.5" fill="#75CEF4" enable-background="new    " d="M43,778.3l27.5-274.8l60.8-74.3l20.1-75.6l87.5,19.7l44.8-49.7
	l72.3-27.1l48.5-33.3l123.2,29.6l37.8,5.8L593,541.4l16,44.8l24.2,195.5L43,778.3z"/>
<path fill="none" stroke="#75CEF4" stroke-width="3" stroke-miterlimit="10" d="M43,778.3l27.5-274.8l60.8-74.3l20.1-75.6l87.5,19.7
	l44.8-49.7l72.3-27.1l48.5-33.3l123.2,29.6l37.8,5.8L593,541.4l16,44.8l24.2,195.5L43,778.3z"/>
<path opacity="0.36" fill="#0A3575" enable-background="new    " d="M54.5,775.9L119,582.4l42.7,50.5l37-110.9l27.5,5.8L271,394.7
	l31.2,164.7l12.7-211.1l106,112.1l72.3,4.5l30,112.5l30-24.2l72.3,225.5L54.5,775.9z"/>
<g>
	<circle fill="#FFFFFF" cx="82.4" cy="776.3" r="51.3"/>
	<circle fill="#FFFFFF" cx="250.8" cy="532.7" r="51.3"/>
	<circle fill="#FFFFFF" cx="294" cy="462.9" r="51.3"/>
	<circle fill="#FFFFFF" cx="442.2" cy="681" r="51.3"/>
	<circle fill="#FFFFFF" cx="591.8" cy="778.3" r="51.3"/>
	<circle fill="#FFFFFF" cx="162.5" cy="731.5" r="80.1"/>
	<circle fill="#FFFFFF" cx="196.6" cy="607.1" r="80.1"/>
	<circle fill="#FFFFFF" cx="377.8" cy="641.2" r="80.1"/>
	<circle fill="#FFFFFF" cx="342.4" cy="566.8" r="80.1"/>
	<circle fill="#FFFFFF" cx="131.3" cy="657.6" r="20.1"/>
	<circle fill="#FFFFFF" cx="189.2" cy="520.8" r="20.1"/>
	<circle fill="#FFFFFF" cx="213.9" cy="503.2" r="20.1"/>
	<circle fill="#FFFFFF" cx="190.1" cy="491.2" r="20.1"/>
	<circle fill="#FFFFFF" cx="355.2" cy="487.1" r="30.4"/>
	<circle fill="#FFFFFF" cx="288.6" cy="407.9" r="20.1"/>
	<circle fill="#FFFFFF" cx="342" cy="453.9" r="20.1"/>
	<circle fill="#FFFFFF" cx="421.3" cy="570.1" r="24.6"/>
	<circle fill="#FFFFFF" cx="455" cy="632.1" r="20.1"/>
	<circle fill="#FFFFFF" cx="491.9" cy="702" r="20.1"/>
	<circle fill="#FFFFFF" cx="544.1" cy="730.3" r="20.1"/>
	<circle fill="#FFFFFF" cx="524.8" cy="700.3" r="20.1"/>
</g>
<rect x="190.1" y="612" fill="#FFFFFF" width="255.9" height="186.5"/>
<rect x="442.2" y="713" fill="#FFFFFF" width="109.3" height="98.6"/>
</svg>
