<?xml version="1.0" encoding="iso-8859-1"?>
<!-- Generator: Adobe Illustrator 18.0.0, SVG Export Plug-In . SVG Version: 6.00 Build 0)  -->
<!DOCTYPE svg PUBLIC "-//W3C//DTD SVG 1.1//EN" "http://www.w3.org/Graphics/SVG/1.1/DTD/svg11.dtd">
<svg version="1.1" id="Layer_1" xmlns="http://www.w3.org/2000/svg" xmlns:xlink="http://www.w3.org/1999/xlink" x="0px" y="0px"
	 viewBox="0 121.967 149.99 139.086" style="enable-background:new 0 121.967 149.99 139.086;" xml:space="preserve">
<path style="opacity:0.5;fill:#75CEF4;enable-background:new    ;" d="M17.758,244.105l3.713-31.673l4.052-8.138l2.6-58.475
	l23.527,2.722l15.215,9.511l10.208-27.886l25.111-6.555l10.052,13.846l7.311-0.494l13.557,107.392L17.758,244.105z"/>
<path style="fill:none;stroke:#75CEF4;stroke-width:2.883;stroke-miterlimit:10;" d="M17.758,244.105l3.713-31.673l4.052-8.138
	l2.6-58.475l23.527,2.722l15.215,9.511l10.208-27.886l25.111-6.555l10.052,13.846l7.311-0.494l13.557,107.392L17.758,244.105z"/>
<path style="opacity:0.36;fill:#0A3575;enable-background:new    ;" d="M26.439,243.611l15.304-55.144l12.106,38.327l21.014-53.906
	l15.075,60.337l9.136-45.501l8.223,34.618c0,0,12.333-10.633,11.421-10.633c-0.914,0,13.248,32.392,13.248,32.392L26.44,243.607"/>
<g>
	<circle style="fill:#FFFFFF;" cx="45.063" cy="223.704" r="12.813"/>
	<circle style="fill:#FFFFFF;" cx="71.398" cy="199.965" r="12.813"/>
	<circle style="fill:#FFFFFF;" cx="104.781" cy="220.736" r="12.813"/>
	<circle style="fill:#FFFFFF;" cx="119.988" cy="232.236" r="12.813"/>
	<circle style="fill:#FFFFFF;" cx="41.713" cy="239.564" r="19.997"/>
	<circle style="fill:#FFFFFF;" cx="62.114" cy="216.939" r="19.997"/>
	<circle style="fill:#FFFFFF;" cx="69.903" cy="240.307" r="19.997"/>
	<circle style="fill:#FFFFFF;" cx="88.078" cy="210.633" r="19.997"/>
	<circle style="fill:#FFFFFF;" cx="101.283" cy="206.259" r="19.997"/>
	<circle style="fill:#FFFFFF;" cx="110.471" cy="192.439" r="15.484"/>
	<circle style="fill:#FFFFFF;" cx="116.654" cy="228.445" r="19.997"/>
	<circle style="fill:#FFFFFF;" cx="99.948" cy="234.372" r="19.997"/>
	<circle style="fill:#FFFFFF;" cx="136.65" cy="247.714" r="13.34"/>
	<circle style="fill:#FFFFFF;" cx="5.002" cy="245.589" r="5.002"/>
	<circle style="fill:#FFFFFF;" cx="33.564" cy="221.107" r="5.002"/>
	<circle style="fill:#FFFFFF;" cx="35.419" cy="213.318" r="5.002"/>
	<circle style="fill:#FFFFFF;" cx="37.644" cy="205.9" r="5.002"/>
	<circle style="fill:#FFFFFF;" cx="43.208" cy="211.464" r="5.002"/>
	<circle style="fill:#FFFFFF;" cx="58.416" cy="196.626" r="5.002"/>
	<circle style="fill:#FFFFFF;" cx="62.496" cy="188.837" r="5.002"/>
	<circle style="fill:#FFFFFF;" cx="81.784" cy="190.693" r="5.002"/>
	<circle style="fill:#FFFFFF;" cx="91.057" cy="189.951" r="5.002"/>
	<circle style="fill:#FFFFFF;" cx="86.977" cy="185.499" r="5.002"/>
	<circle style="fill:#FFFFFF;" cx="125.778" cy="209.113" r="5.002"/>
	<circle style="fill:#FFFFFF;" cx="121.698" cy="204.661" r="5.002"/>
	<circle style="fill:#FFFFFF;" cx="117.907" cy="181.174" r="5.002"/>
	<circle style="fill:#FFFFFF;" cx="112.04" cy="179.742" r="5.002"/>
	<circle style="fill:#FFFFFF;" cx="117.763" cy="218.883" r="5.002"/>
	<circle style="fill:#FFFFFF;" cx="139.18" cy="237.057" r="7.338"/>
	<circle style="fill:#FFFFFF;" cx="136.112" cy="229.275" r="5.002"/>
	<circle style="fill:#FFFFFF;" cx="14.275" cy="245.96" r="5.002"/>
	<circle style="fill:#FFFFFF;" cx="19.357" cy="243.137" r="5.002"/>
</g>
</svg>
