<svg xmlns="http://www.w3.org/2000/svg" viewBox="-0.622 77.158 150.613 107.875" enable-background="new -0.622 77.158 150.613 107.875"><path d="M76.728 96.41V81.47" fill="none" stroke="#7C6959" stroke-width="5" stroke-miterlimit="10"/><circle cx="77.107" cy="130.378" r="36.743" fill="#FFDE00"/><g fill="none" stroke="#C5B097" stroke-linecap="round" stroke-linejoin="round" stroke-miterlimit="10"><path d="M40.458 126.52h73.286M61.26 97.028h31.476M53.185 102.09h47.624M46.822 108.866h60.146M42.305 116.973h69.18"/><ellipse cx="77.326" cy="130.378" rx="29.979" ry="36.743"/><ellipse cx="77.228" cy="130.378" rx="18.887" ry="36.743"/><ellipse cx="76.728" cy="130.378" rx="6.806" ry="36.743"/></g><path d="M7.15 150.71h139.057v33.322H7.15V150.71z" fill="#D43E30"/><path d="M76.68 150.71H38.433v33.322h76.489V150.71H76.68z" fill="#D43E2F"/><path d="M146.208 135.197H7.15l-3.783 15.51H149.99l-3.782-15.51z" fill="#8A7665"/><path d="M19.136 139.083l-4.744 4.69v6.936h9.488v-6.936l-4.744-4.69z" fill="#4A3F35"/><path d="M31.47 127.128h90.42v23.58H31.47v-23.58z" fill="#7C6959"/><g fill="#FFDE00"><path d="M70.267 165.116v-.43c0-3.54 2.87-6.412 6.41-6.412s6.41 2.872 6.41 6.41v.432h-12.82M17.266 150.71v-2.7c0-1.033.837-1.87 1.87-1.87 1.032 0 1.87.838 1.87 1.87v2.7"/></g><path d="M134.22 139.083l-4.745 4.69v6.936h9.488v-6.936l-4.744-4.69z" fill="#4A3F35"/><path d="M136.092 150.71v-2.7c0-1.033-.837-1.87-1.87-1.87-1.033 0-1.87.838-1.87 1.87v2.7"/><g stroke-width="2" stroke-miterlimit="10"><g fill="#fff" stroke="#fff" stroke-linejoin="round"><path d="M38.434 127.128c0 2.023-1.64 3.66-3.66 3.66-2.024 0-3.662-1.638-3.662-3.66h7.322zM45.755 127.128c0 2.023-1.64 3.66-3.66 3.66-2.023 0-3.662-1.638-3.662-3.66h7.322zM53.08 127.128c0 2.023-1.64 3.66-3.662 3.66-2.022 0-3.662-1.638-3.662-3.66h7.323zM107.6 127.128c0 2.023-1.64 3.66-3.66 3.66-2.024 0-3.662-1.638-3.662-3.66h7.322zM114.92 127.128c0 2.023-1.638 3.66-3.66 3.66-2.022 0-3.66-1.638-3.66-3.66h7.32zM122.245 127.128c0 2.023-1.64 3.66-3.66 3.66-2.023 0-3.663-1.638-3.663-3.66h7.323zM14.47 135.197c0 2.023-1.638 3.66-3.66 3.66s-3.662-1.638-3.662-3.66h7.323zM21.795 135.197c0 2.023-1.64 3.66-3.66 3.66-2.024 0-3.663-1.638-3.663-3.66h7.323zM29.118 135.197c0 2.023-1.64 3.66-3.66 3.66s-3.662-1.638-3.662-3.66h7.322zM128.692 135.197c0 1.41-1.143 2.55-2.55 2.55-1.41 0-2.552-1.142-2.552-2.55h5.102zM133.792 135.197c0 1.41-1.143 2.55-2.55 2.55-1.41 0-2.552-1.142-2.552-2.55h5.102zM138.895 135.197c0 1.41-1.143 2.55-2.55 2.55-1.41 0-2.552-1.142-2.552-2.55h5.102z"/></g><g fill="none" stroke="#D43E2F" stroke-linecap="round"><path d="M76.68 156.834v8.323M69.4 165.123h7.28M76.68 165.123H85M76.68 165.123l-5.092-5.09M76.68 165.123l5.09-5.09"/></g></g><g fill="#7C6959"><path d="M63.237 182.144H90.12v1.887H63.238v-1.886zM65.988 180.26h21.38v1.887h-21.38v-1.887z"/></g><path d="M76.92 167.37h6.168v12.886H76.92V167.37zM70.267 167.37h6.167v12.886h-6.167V167.37z" opacity=".1" enable-background="new"/><path d="M14.392 160.927H31.11v12.886H14.392v-12.886z" fill="#AD3326"/><path d="M7.15 152.824l139.057 2.296v-4.41H7.15v2.114z" opacity=".1" enable-background="new"/><g fill="#AD3326"><path d="M37.367 150.735h1.065v33.297h-1.065v-33.297zM114.92 150.735h1.066v33.297h-1.065v-33.297zM44.718 160.927h16.718v12.886H44.718v-12.886z"/></g><g fill="#FFDE00"><path d="M122.245 160.927h16.718v12.886h-16.718v-12.886zM91.918 160.927h16.718v12.886H91.918v-12.886z"/></g><g stroke-miterlimit="10"><g stroke-width="2"><g fill="none" stroke="#D43E2F" stroke-linecap="round"><path d="M22.75 160.927v12.89M31.006 167.37H14.494M53.08 160.927v12.89M61.334 167.37h-16.51M100.276 160.927v12.89M108.53 167.37H92.02M130.606 160.927v12.89M138.86 167.37h-16.51"/></g><g fill="#fff" stroke="#fff" stroke-linejoin="round"><path d="M19.93 160.36c0 1.528-1.24 2.77-2.77 2.77s-2.77-1.24-2.77-2.77h5.54zM25.47 160.36c0 1.528-1.24 2.77-2.77 2.77-1.528 0-2.77-1.24-2.77-2.77h5.54zM31.006 160.36c0 1.528-1.24 2.77-2.77 2.77-1.527 0-2.768-1.24-2.768-2.77h5.538zM15.103 184.032c0-1.513 1.227-2.74 2.74-2.74s2.74 1.227 2.74 2.74h-5.48zM6.58 184.032c0-2.906 2.357-5.26 5.262-5.26 2.906 0 5.262 2.354 5.262 5.26H6.58zM.378 184.033c0-2.033 1.648-3.68 3.68-3.68 2.035 0 3.682 1.647 3.682 3.68H.378zM144.063 184.032c0-1.12.91-2.03 2.03-2.03 1.12 0 2.03.91 2.03 2.03h-4.06zM137.753 184.032c0-2.153 1.745-3.898 3.898-3.898 2.154 0 3.9 1.745 3.9 3.898h-7.797zM133.156 184.032c0-1.506 1.22-2.727 2.727-2.727 1.506 0 2.727 1.22 2.727 2.727h-5.454zM50.257 160.36c0 1.528-1.24 2.77-2.77 2.77-1.527 0-2.768-1.24-2.768-2.77h5.537zM55.796 160.36c0 1.528-1.24 2.77-2.77 2.77-1.527 0-2.768-1.24-2.768-2.77h5.538zM61.334 160.36c0 1.528-1.24 2.77-2.77 2.77s-2.768-1.24-2.768-2.77h5.538zM97.56 160.36c0 1.528 1.24 2.77 2.768 2.77 1.528 0 2.77-1.24 2.77-2.77h-5.54zM92.02 160.36c0 1.528 1.24 2.77 2.77 2.77s2.768-1.24 2.768-2.77H92.02zM132.35 173.817c0 1.23.998 2.23 2.23 2.23s2.228-1 2.228-2.23h-4.458zM127.893 173.817c0 1.23.998 2.23 2.23 2.23 1.23 0 2.228-1 2.228-2.23h-4.457z"/></g></g><g fill="none" stroke="#4A3F35" stroke-width="4"><path d="M13.38 144.773l5.755-5.69 5.753 5.69M128.465 144.773l5.754-5.69 5.753 5.69"/></g></g><path d="M29.767 150.71l46.913-46.914 46.913 46.913H29.767z" fill="#C5B097"/><path d="M43.07 150.71L76.68 117.1l33.607 33.607H43.07z" fill="#8A7665"/><g fill="#FFDE00"><path d="M73.793 144.45v-10.034c0-1.594 1.292-2.886 2.885-2.886 1.594 0 2.886 1.293 2.886 2.886v10.035h-5.77M87.772 144.45v-10.034c0-1.594-1.292-2.886-2.886-2.886S82 132.823 82 134.416v10.035h5.772M65.583 144.45v-10.034c0-1.594 1.292-2.886 2.886-2.886 1.593 0 2.885 1.293 2.885 2.886v10.035h-5.772"/></g><g fill="none" stroke="#7C6959" stroke-width="2" stroke-linecap="round" stroke-miterlimit="10"><path d="M76.68 103.796v13.347M63.332 117.102H76.68M76.68 117.102h13.346M76.68 117.102l-6.653-6.653M76.68 117.102l6.65-6.653"/></g><path d="M62.727 144.45h27.898v2.29H62.727v-2.29z" fill="#7C6959"/><path d="M7.15 153.327c3.066 1.722 6.92 4.482 11.986 2.67 5.065-1.81 9.982-4.948 9.982-4.948s4.184 6.19 13.952 4.948c7.54-.958 11.61-4.95 11.61-4.95s8.003 4.938 13.395 4.63c5.395-.31 10.452-4.63 10.452-4.63s13.42 6.24 22.252 5.147c8.833-1.093 13.248-5.146 13.248-5.146s5.558 5.112 12.55 4.627c6.99-.485 9.51-4.628 9.51-4.628s6.454 5.768 10.99 5.768" fill="none" stroke="#F4C138" stroke-width="3" stroke-linecap="round" stroke-miterlimit="10" stroke-dasharray="0,6"/><path d="M110.286 150.71L76.68 117.1l-4.28 4.275 11.705 10.888 19.832 18.443h6.35z" opacity=".1" enable-background="new"/><path d="M104.71 87.994H49.432" fill="none" stroke="#4A3F35" stroke-width="3" stroke-miterlimit="10"/><g fill="#4A3F35"><path d="M74.93 86.246h3.658v3.517H74.93v-3.517zM100.877 83.894l1.127 3.996-1.252 3.996 8.883-3.996-8.758-3.996z"/></g><circle cx="76.653" cy="79.622" r="2.463" fill="#FFDE00"/><g fill="#4A3F35"><ellipse cx="53.193" cy="78.25" rx=".563" ry=".563"/><path d="M63.752 89.34c-.227 0-.44.09-.6.25-.16.16-.246.373-.247.6 0 .132.107.24.238.24.132 0 .238-.108.238-.24 0-.1.04-.194.11-.264s.162-.11.26-.11c.288 0 .52.238.52.528 0 .192-.073.373-.208.508-.134.135-.313.21-.502.21l-5.04-.003v-1.034h.812c1.986 0 3.597-1.62 3.598-3.62v-.736c.197 0 .358-.16.358-.358v-.277c0-.127.005-.335.01-.462.002-.055.012-.552-.353-.934-.254-.266-.612-.4-1.063-.4h-.002c-.45 0-.807.133-1.062.397-.366.382-.357.878-.354.933.005.127.01.335.01.462l-.002.95h-1.17c.042-.114.08-.23.108-.35.102-.42.112-.84.046-1.237l-.056-.515-.074.01c-.07-.204-.163-.4-.274-.582.43-.01.832-.186 1.13-.496.3-.31.46-.716.45-1.146v-.007l-.018-.848v-.015c.066-.048.11-.128.108-.217-.003-.122-.088-.22-.2-.248.007-.04.01-.078.01-.12v-.002l-.014-.66c-.007-.325-.276-.582-.6-.575-.323.007-.58.274-.574.597v.003l.003.136c-.04-.056-.108-.093-.183-.09-.12.002-.215.102-.213.22v.002c.006.24.14.448.335.56-.06.05-.1.125-.1.21.003.09.05.168.12.213V80.838l.018.848c.002.11-.052.18-.084.215-.034.035-.107.094-.22.096l-.174.004c.003-.05.005-.098.003-.148-.02-.62-.414-1.135-.958-1.337l-.01-.3c-.007-.27-.076-.524-.19-.75l.1-.042c.168-.072.248-.27.176-.44l-.136-.32c-.07-.17-.268-.25-.437-.178l-.236.1c-1.378-.6-2.313-.425-3.7-.385.682.433.912.97.995 1.497l-.017.05-.28.12c-.168.07-.248.27-.177.438l.092.216c-.398.013-.7.022-.802.024.014.488.18 1.45 1.113 2.113-.437.4-.764.93-.915 1.552-.062.254-.09.51-.087.76l-2.807-1.807c-.357-.39-.697-.407-.93-.407h-6.33c-.403 0-.5.637-.07.7L43.2 86.4c-.002 2.002.6 3.624 2.588 3.626l.168-.002v1.03l-3.902-.003c-.697 0-1.264-.572-1.263-1.275 0-.26.102-.504.284-.688.182-.183.424-.284.68-.284h.002c.398 0 .723.328.722.73 0 .145-.056.28-.156.38-.1.1-.233.156-.375.156-.132 0-.238.105-.238.237s.106.24.238.24c.27 0 .522-.107.713-.298.19-.192.296-.447.296-.717 0-.666-.537-1.208-1.2-1.208-.385 0-.746.15-1.018.424s-.422.636-.422 1.023c0 .966.78 1.753 1.74 1.754l21.505.01c.318 0 .617-.124.84-.35.226-.225.35-.526.35-.844 0-.555-.446-1.006-.997-1.006m-17.297.682l11.568.004v1.033l-11.568-.006v-1.03"/></g><path d="M75.253 81.674h2.874v1.232h-2.874v-1.232z" fill="#7C6959"/></svg>