<svg xmlns="http://www.w3.org/2000/svg" viewBox="81.6 0 448.8 792" enable-background="new 81.6 0 448.8 792"><g><g><path fill="#EC4180" d="M306 792c-9.8 0-17.9-7.5-18.8-17C259.1 469.6 81.6 389.4 81.6 224.4 81.6 100.5 182.1 0 306 0s224.4 100.5 224.4 224.4c0 165-177.5 245.2-205.6 550.6-.9 9.5-9 17-18.8 17z"/><path fill="#E798CD" d="M321.43 285.633l-85.348-85.346 52.82-52.82 85.348 85.346z"/><path fill="#5E535A" d="M321.4 290.5l-90.2-90.2 57.7-57.7 90.2 90.2-57.7 57.7zM241 200.4l80.5 80.5 47.9-47.9-80.5-80.5-47.9 47.9zM233.634 202.873l-13.647-13.647 113.35-113.348 13.646 13.647z"/><path fill="#EC4180" d="M320.688 108.675l-6.434-6.434L318 98.494l6.436 6.435zM301.717 127.568l-6.435-6.435 3.748-3.747 6.434 6.434zM282.752 146.59l-6.435-6.435 3.748-3.747 6.435 6.434zM263.782 165.482l-6.435-6.435 3.748-3.747 6.434 6.434zM244.82 184.512l-6.435-6.435 3.748-3.747 6.434 6.434zM339.653 89.653l-6.435-6.434 3.748-3.75 6.435 6.436z"/><path fill="#E798CD" d="M375.933 231.17l-85.347-85.346 52.82-52.82 85.347 85.346z"/><path fill="#5E535A" d="M376 236l-90.2-90.2 58.7-58.7 90.2 90.2L376 236zm-80.5-90.2l80.5 80.5 47.9-47.9-80.5-80.5-47.9 47.9z"/><path opacity=".17" fill="#5E535A" enable-background="new" d="M376 231.1l-85.3-85.3 138.1 32.5zM321.4 285.7l-85.3-85.3 138.1 32.5z"/><path fill="#5E535A" d="M332.026 301.335l-13.647-13.647L431.727 174.34l13.647 13.647z"/><path fill="#EC4180" d="M419.146 207.078l-6.434-6.434 3.747-3.748 6.434 6.435zM400.113 226.038l-6.434-6.435 3.746-3.748 6.435 6.435zM381.21 244.992l-6.434-6.434 3.748-3.748 6.434 6.435zM362.248 264.023l-6.435-6.435 3.748-3.747 6.436 6.435zM343.274 282.907l-6.434-6.435 3.747-3.747 6.435 6.434zM438.037 188.12l-6.435-6.436 3.748-3.747 6.435 6.434z"/><path fill="#E798CD" d="M322 287.9l-85.3-85.3 51.5-22.3 85.4 85.3z"/><path fill="#5E535A" d="M321.4 291.3l-89.7-89.7 57.2-24.7 89.7 89.7-57.2 24.7zm-79.7-87.8l80.9 80.9 45.8-19.8-80.9-80.9-45.8 19.8zM234.2 203.6L220.6 190l110.3-47.7 13.7 13.6z"/><path fill="#EC4180" d="M319.1 161.8l-6.4-6.4 3.6-1.6 6.4 6.4zM300.6 169.8l-6.4-6.4 3.6-1.6 6.5 6.4zM282.1 177.8l-6.4-6.4 3.6-1.6 6.4 6.4zM263.6 185.8l-6.4-6.4 3.6-1.6 6.5 6.4zM245.1 193.8l-6.4-6.5 3.6-1.5 6.4 6.4zM337.6 153.8l-6.4-6.4 3.6-1.6 6.4 6.4z"/><path fill="#E798CD" d="M375.2 264.9l-85.3-85.3 51.6-22.3 85.3 85.3z"/><path fill="#5E535A" d="M374.6 268.3l-89.7-89.7 57.2-24.7 89.7 89.7-57.2 24.7zM295 180.5l80.9 80.9 45.8-19.8-80.9-80.9-45.8 19.8z"/><path opacity=".17" fill="#5E535A" enable-background="new" d="M375.2 264.9l-85.3-85.3 136.9 63zM322 287.9l-85.3-85.3 136.9 63z"/><path fill="#5E535A" d="M332.7 302.1l-13.6-13.6 110.3-47.7 13.6 13.6z"/><path fill="#EC4180" d="M417.6 260.3l-6.5-6.5 3.7-1.6 6.4 6.5zM399.1 268.3l-6.5-6.5 3.7-1.6 6.4 6.5zM380.6 276.3l-6.5-6.5 3.7-1.6 6.4 6.5zM362.1 284.3l-6.5-6.5 3.7-1.6 6.4 6.5zM343.6 292.3l-6.5-6.5 3.7-1.6 6.4 6.5zM436.1 252.3l-6.5-6.5 3.7-1.6 6.4 6.5z"/><path fill="#332C31" d="M322 287.9l-85.3-85.3 51.5-22.3 85.4 85.3zM321.4 291.3l-89.7-89.7 57.2-24.7 89.7 89.7-57.2 24.7zm-79.7-87.8l80.9 80.9 45.8-19.8-80.9-80.9-45.8 19.8zM234.2 203.6L220.6 190l110.3-47.7 13.7 13.6z"/><path fill="#4A3F3C" d="M319.1 161.8l-6.4-6.4 3.6-1.6 6.4 6.4zM300.6 169.8l-6.4-6.4 3.6-1.6 6.5 6.4zM282.1 177.8l-6.4-6.4 3.6-1.6 6.4 6.4zM263.6 185.8l-6.4-6.4 3.6-1.6 6.5 6.4zM245.1 193.8l-6.4-6.5 3.6-1.5 6.4 6.4zM337.6 153.8l-6.4-6.4 3.6-1.6 6.4 6.4z"/><path fill="#332C31" d="M375.2 264.9l-85.3-85.3 51.6-22.3 85.3 85.3zM374.6 268.3l-89.7-89.7 57.2-24.7 89.7 89.7-57.2 24.7zM295 180.5l80.9 80.9 45.8-19.8-80.9-80.9-45.8 19.8z"/><path opacity=".17" fill="#332C31" enable-background="new" d="M375.2 264.9l-85.3-85.3 136.9 63zM322 287.9l-85.3-85.3 136.9 63z"/><path fill="#332C31" d="M332.7 302.1l-13.6-13.6 110.3-47.7 13.6 13.6z"/><path fill="#EC4180" d="M417.6 260.3l-6.5-6.5 3.7-1.6 6.4 6.5zM399.1 268.3l-6.5-6.5 3.7-1.6 6.4 6.5zM380.6 276.3l-6.5-6.5 3.7-1.6 6.4 6.5zM362.1 284.3l-6.5-6.5 3.7-1.6 6.4 6.5zM343.6 292.3l-6.5-6.5 3.7-1.6 6.4 6.5zM436.1 252.3l-6.5-6.5 3.7-1.6 6.4 6.5z"/><path fill="#E798CD" d="M320.44 351.84l-85.348-85.346 52.82-52.82 85.348 85.347z"/><path fill="#5E535A" d="M320.4 356.7l-90.2-90.2 57.7-57.7 90.2 90.2-57.7 57.7zM240 266.6l80.5 80.5 47.9-47.9-80.5-80.5-47.9 47.9z"/><path fill="#E798CD" d="M265.513 406.794l-85.347-85.347 55.225-55.225 85.348 85.347z"/><path fill="#5E535A" d="M268 409.2L177.8 319l57.7-57.7 90.2 90.2-57.7 57.7zM187.5 319l80.5 80.5 47.9-47.9-80.5-80.5-47.9 47.9z"/><path fill="#E798CD" d="M375.008 297.31l-85.347-85.347 52.82-52.82 85.348 85.347z"/><path fill="#5E535A" d="M375 302.2L284.8 212l57.7-57.7 90.2 90.2-57.7 57.7zM294.5 212l80.5 80.5 47.9-47.9-80.5-80.5-47.9 47.9z"/><path opacity=".17" fill="#5E535A" enable-background="new" d="M375 297.4L289.7 212l138.1 32.5zM320.4 351.9l-85.3-85.3 138.2 32.5zM268.8 403.6l-85.4-85.3 138.2 32.5z"/><path fill="#5E535A" d="M278.66 419.896L265.01 406.25l165.39-165.392 13.648 13.647z"/><path fill="#EC4180" d="M418.15 273.288l-6.434-6.435 3.747-3.748 6.435 6.435zM399.117 292.247l-6.434-6.435 3.747-3.747 6.435 6.434zM380.226 311.206l-6.435-6.435 3.75-3.746 6.433 6.434zM361.323 330.16l-6.435-6.433 3.748-3.748 6.434 6.434zM342.284 349.115l-6.434-6.435 3.747-3.748 6.435 6.435zM437.053 254.333l-6.434-6.435 3.746-3.747 6.435 6.435zM324.066 367.325l-6.435-6.434 3.75-3.747 6.433 6.435zM305.174 386.285l-6.435-6.434 3.747-3.747 6.434 6.435zM286.13 405.24l-6.435-6.435 3.747-3.747 6.435 6.434z"/><path fill="#5E535A" d="M180.27 321.423l-13.646-13.647 165.39-165.39 13.648 13.646z"/><path fill="#EC4180" d="M319.625 174.822l-6.435-6.435 3.748-3.747 6.434 6.434zM300.73 193.774l-6.435-6.435 3.748-3.748 6.434 6.434zM281.76 212.807l-6.435-6.434 3.747-3.748 6.435 6.434zM262.792 231.69l-6.435-6.434 3.748-3.748 6.434 6.435zM243.892 250.653l-6.435-6.434 3.748-3.75 6.435 6.436z"/><path fill="#E798CD" d="M338.666 155.86l-6.435-6.435 3.75-3.748 6.433 6.435z"/><path fill="#EC4180" d="M225.678 268.852l-6.435-6.434 3.748-3.748 6.436 6.435zM206.645 287.812l-6.434-6.435 3.748-3.748 6.435 6.434zM187.745 306.774l-6.434-6.434 3.748-3.748 6.435 6.435z"/></g></g></svg>