<?xml version="1.0" encoding="utf-8"?>
<!-- Generator: Adobe Illustrator 18.0.0, SVG Export Plug-In . SVG Version: 6.00 Build 0)  -->
<!DOCTYPE svg PUBLIC "-//W3C//DTD SVG 1.1//EN" "http://www.w3.org/Graphics/SVG/1.1/DTD/svg11.dtd">
<svg version="1.1" id="Layer_1" xmlns="http://www.w3.org/2000/svg" xmlns:xlink="http://www.w3.org/1999/xlink" x="0px" y="0px"
	 viewBox="51.1 88.6 47.8 84.4" enable-background="new 51.1 88.6 47.8 84.4" xml:space="preserve">
<g id="PIN-ON-JETPACK">
	<g id="_x31_9-Jetpack">
		<path fill="#B757C5" d="M75,173c-1,0-1.9-0.8-2-1.8c-3-32.5-21.9-41.1-21.9-58.7c0-13.2,10.7-23.9,23.9-23.9s23.9,10.7,23.9,23.9
			c0,17.6-18.9,26.1-21.9,58.7C76.9,172.2,76,173,75,173z"/>
	</g>
	<circle fill="#FFFFFF" cx="84.6" cy="100.8" r="1.4"/>
	<polyline fill="#FFFFFF" points="70.9,126.7 70.9,133 73.5,133 73.5,126.7 	"/>
	<path fill="#B47945" d="M73,123.2c-1.8,0-2.1,0.9-2.1,1.8v3.9h2.7v-5.6L73,123.2z"/>
	<path fill="#FFDF8A" d="M66.6,102c-0.7,2.7,0.9,5.6,3.6,6.3l0,0c2.7,0.7,5.5-0.9,6.3-3.6l0,0c0.7-2.7-0.9-5.5-3.6-6.3l0,0
		C70.1,97.7,67.3,99.3,66.6,102L66.6,102z"/>
	<path fill="#FFDF8A" d="M66.2,101.6c-0.8,2.9,1,6,3.9,6.7l0,0c2.9,0.8,5.9-1,6.7-3.9l0,0c0.8-2.9-1-5.9-3.9-6.7l0,0
		C70,96.9,67,98.6,66.2,101.6L66.2,101.6z"/>
	<path fill="#FFDF8A" d="M69.8,104.3l3.6-3c0,0-0.6,6-3.6,4.5L69.8,104.3z"/>
	<path fill="#37B14A" d="M77,114c0-2.8-2.3-5.1-5.1-5.1"/>
	<path fill="#2A943E" d="M66.7,121c0,2.8,2.3,5.1,5.1,5.1s5.1-2.3,5.1-5.1V114c0-2.8-2.3-5.1-5.1-5.1s-5.1,2.3-5.1,5.1V121L66.7,121
		z"/>
	<path fill="#36AF49" d="M66.7,121c0,2.8,2.3,5.1,5.1,5.1s3-2.3,3-5.1V114c0-2.8-0.1-5.1-3-5.1c-2.8,0-5.1,2.3-5.1,5.1V121L66.7,121
		z"/>
	<path fill="#333333" d="M73.8,132.5h-3.1c-1,2-3.7,2-4.1,0.5c0,0-1.4,2.8,5,2.4C73.1,135.4,74.3,134,73.8,132.5z"/>
	<path fill="#FFDF8A" d="M68.1,102.9l-5,0.1c-0.5-0.1-0.7,0.6,0,0.8l5.6,1.5L68.1,102.9z"/>
	<path fill="#F5961D" d="M80.2,139.3c0.4-5.3,2.7-5.9,2.7-10.1c0-2.2-1.2-4-2.7-4c-1.5,0-2.7,1.8-2.7,4
		C77.4,133.5,79.6,133.9,80.2,139.3z"/>
	<path fill="#FFEF00" d="M80.2,130.7c0.1-2,1-2.2,1-3.8c0-0.8-0.5-1.5-1-1.5c-0.6,0-1,0.7-1,1.5C79.2,128.6,80,128.7,80.2,130.7z"/>
	<path fill="#9EA0A2" d="M83.1,124.7v-12.6c0-1.7-1.4-3.1-3.1-3.1c-1.7,0-3.1,1.4-3.1,3.1v12.6"/>
	<path fill="#BEBFC1" d="M81.4,124.7v-12.6c0-1.7-0.2-3.1-1.3-3.1c-1.7,0-3.1,1.4-3.1,3.1v12.6"/>
	<rect x="66.7" y="118.5" fill="#333333" width="16.5" height="2.6"/>
	<rect x="66.4" y="118.2" fill="#FFD400" width="0.7" height="2.9"/>
	<path fill="#2A943E" d="M77.1,104.8c-0.4,1.4-1.2,2.5-2.3,3.2c-1.9-0.6-4.3-2-3.5-4.9c0.8-2.9-1-4.2-3.1-4.6
		c1.4-0.9,3.1-1.3,4.8-0.8l10.3,2.7C83.3,100.5,78.4,100.2,77.1,104.8z"/>
	<path fill="#36AF49" d="M75.3,104.4c-0.4,1.4-1.8,1.9-2.9,2.7c-1.9-0.6-1.9-0.9-1.2-3.9c0.8-2.9-1-4.2-3.1-4.6
		c1.4-0.9,3.1-1.3,4.8-0.8l10.3,2.7C83.3,100.5,76.6,99.7,75.3,104.4z"/>
	<path fill="#FFFFFF" d="M74.9,108.8c-0.1,0-0.1,0-0.2,0c-3.3-1-4.7-3.2-4-5.8c0.3-1,0.2-1.7-0.1-2.3c-0.4-0.7-1.2-1.1-2.4-1.4
		c-0.4-0.1-0.7-0.5-0.6-0.9c0.1-0.4,0.5-0.7,0.9-0.6c1.6,0.4,2.7,1,3.3,2.1c0.6,0.9,0.7,2.1,0.3,3.5c-0.5,1.9,0.5,3.2,3,4
		c0.4,0.1,0.6,0.5,0.5,0.9C75.5,108.6,75.2,108.8,74.9,108.8z"/>
	
		<rect x="69.1" y="102.7" transform="matrix(0.9662 0.2578 -0.2578 0.9662 29.1526 -15.3895)" fill="#333333" width="8.4" height="1.6"/>
	
		<ellipse transform="matrix(-0.9662 -0.2578 0.2578 -0.9662 107.9438 218.1485)" fill="#60B8DC" cx="68.3" cy="102" rx="1.4" ry="2.3"/>
	<path fill="#333333" d="M67.9,104.6c-0.1,0-0.2,0-0.3,0c-0.5-0.1-0.9-0.6-1.1-1.2c-0.2-0.6-0.2-1.2,0-1.9c0.3-1.3,1.2-2.2,2.1-2.2
		c0.1,0,0.2,0,0.3,0c1,0.3,1.4,1.6,1,3.1C69.7,103.7,68.8,104.6,67.9,104.6z M68.6,100.2c-0.4,0-1,0.6-1.3,1.6c-0.1,0.5-0.1,1,0,1.4
		c0.1,0.3,0.3,0.6,0.5,0.6c0,0,0.1,0,0.1,0c0.4,0,1-0.6,1.3-1.6c0.3-1.1,0-1.9-0.5-2.1C68.7,100.2,68.7,100.2,68.6,100.2z"/>
	<circle fill="#FFDF8A" cx="72" cy="118.3" r="1.6"/>
</g>
<g id="Layer_1_1_">
</g>
</svg>
