<?xml version="1.0" encoding="utf-8"?>
<!-- Generator: Adobe Illustrator 18.0.0, SVG Export Plug-In . SVG Version: 6.00 Build 0)  -->
<!DOCTYPE svg PUBLIC "-//W3C//DTD SVG 1.1//EN" "http://www.w3.org/Graphics/SVG/1.1/DTD/svg11.dtd">
<svg version="1.1" id="Layer_2" xmlns="http://www.w3.org/2000/svg" xmlns:xlink="http://www.w3.org/1999/xlink" x="0px" y="0px"
	 viewBox="51.1 88.9 47.7 84.2" enable-background="new 51.1 88.9 47.7 84.2" xml:space="preserve">
<g>
	<path fill="#B757C5" d="M74.9,173.1c-1,0-1.9-0.8-2-1.8c-3-32.4-21.8-41-21.8-58.5c0-13.2,10.7-23.8,23.8-23.8s23.8,10.7,23.8,23.8
		c0,17.5-18.9,26.1-21.8,58.5C76.8,172.3,76,173.1,74.9,173.1z"/>
</g>
<g>
	<rect x="66.7" y="115.3" fill="#FFFFFF" width="15.7" height="20.5"/>
	<rect x="64.1" y="112.2" fill="#FFFFFF" width="20.8" height="9.5"/>
	<line fill="none" stroke="#A4A6A9" stroke-width="2" stroke-miterlimit="10" x1="66.7" y1="131.1" x2="82.5" y2="131.1"/>
	<line fill="none" stroke="#A4A6A9" stroke-width="2" stroke-miterlimit="10" x1="66.7" y1="126.4" x2="82.5" y2="126.4"/>
	<line fill="none" stroke="#A4A6A9" stroke-width="2" stroke-miterlimit="10" x1="64.1" y1="121.7" x2="84.9" y2="121.7"/>
	<line fill="none" stroke="#A4A6A9" stroke-width="2" stroke-miterlimit="10" x1="64" y1="117" x2="84.9" y2="117"/>
	<line fill="#B757C5" x1="64.2" y1="112.3" x2="85.1" y2="112.3"/>
	<line fill="none" stroke="#A4A6A9" stroke-width="2" stroke-miterlimit="10" x1="69.5" y1="117.1" x2="69.5" y2="121.8"/>
	<line fill="none" stroke="#A4A6A9" stroke-width="2" stroke-miterlimit="10" x1="69.5" y1="126.5" x2="69.5" y2="131.2"/>
	<line fill="none" stroke="#A4A6A9" stroke-width="2" stroke-miterlimit="10" x1="79.3" y1="117.1" x2="79.3" y2="121.8"/>
	<line fill="none" stroke="#A4A6A9" stroke-width="2" stroke-miterlimit="10" x1="79.3" y1="126.5" x2="79.3" y2="131.2"/>
	<line fill="none" stroke="#A4A6A9" stroke-width="2" stroke-miterlimit="10" x1="74.5" y1="112.3" x2="74.5" y2="117.1"/>
	<line fill="none" stroke="#A4A6A9" stroke-width="2" stroke-miterlimit="10" x1="74.5" y1="121.7" x2="74.5" y2="126.4"/>
	<line fill="none" stroke="#A4A6A9" stroke-width="2" stroke-miterlimit="10" x1="74.5" y1="131" x2="74.5" y2="135.7"/>
	<rect x="69.4" y="98" fill="#D84637" width="10.7" height="10.7"/>
	<polygon fill="#FFDE00" points="75.3,102.7 75.3,98 73.9,98 73.9,102.7 69.4,102.7 69.4,104.1 73.9,104.1 73.9,108.6 75.3,108.6 
		75.3,104.1 80,104.1 80,102.7 	"/>
</g>
</svg>
