<?xml version="1.0" encoding="utf-8"?>
<!-- Generator: Adobe Illustrator 18.0.0, SVG Export Plug-In . SVG Version: 6.00 Build 0)  -->
<!DOCTYPE svg PUBLIC "-//W3C//DTD SVG 1.1//EN" "http://www.w3.org/Graphics/SVG/1.1/DTD/svg11.dtd">
<svg version="1.1" id="Layer_1" xmlns="http://www.w3.org/2000/svg" xmlns:xlink="http://www.w3.org/1999/xlink" x="0px" y="0px"
	 viewBox="63.2 111.3 23.6 39" enable-background="new 63.2 111.3 23.6 39" xml:space="preserve">
<g id="Layer_1_1_">
</g>
<g>
	<g>
		<path fill="#37B14A" d="M74.2,150.3c-0.5,0-0.9-0.4-0.9-0.8c-1.4-14.9-10.1-18.9-10.1-26.9c0-6.1,4.9-11,11-11c6.1,0,11,4.9,11,11
			c0,8.1-8.7,12-10.1,26.9C75,149.9,74.7,150.3,74.2,150.3z"/>
	</g>
	<circle fill="#37B14A" cx="82.8" cy="115.2" r="4"/>
	<circle opacity="0.1" enable-background="new    " cx="82.8" cy="115.2" r="4"/>
	<g>
		<g>
			<path fill="#FFFFFF" d="M71.9,127.6h-2v-6.4l-2,0.6v-1.5l3.8-1.3h0.2C71.9,118.9,71.9,127.6,71.9,127.6z"/>
			<path fill="#FFFFFF" d="M74.5,123.3l0.5-4.4h5.1v1.6h-3.4l-0.2,1.7c0,0,0.1-0.1,0.2-0.1c0.1,0,0.2-0.1,0.3-0.1
				c0.1,0,0.2-0.1,0.4-0.1c0.1,0,0.3,0,0.4,0c0.4,0,0.8,0.1,1.1,0.2c0.3,0.1,0.6,0.3,0.8,0.6c0.2,0.2,0.4,0.6,0.5,0.9
				c0.1,0.4,0.2,0.8,0.2,1.2c0,0.4-0.1,0.7-0.2,1.1c-0.1,0.4-0.3,0.7-0.6,0.9c-0.2,0.3-0.6,0.5-0.9,0.7c-0.4,0.2-0.8,0.2-1.3,0.2
				c-0.4,0-0.8-0.1-1.1-0.2c-0.4-0.1-0.7-0.3-1-0.5c-0.3-0.2-0.5-0.5-0.7-0.8c-0.2-0.3-0.3-0.7-0.3-1.1h2c0,0.3,0.1,0.6,0.3,0.8
				c0.2,0.2,0.4,0.3,0.7,0.3c0.2,0,0.4,0,0.5-0.1c0.1-0.1,0.2-0.2,0.3-0.3c0.1-0.1,0.1-0.3,0.2-0.5c0-0.2,0-0.4,0-0.6
				c0-0.2,0-0.4-0.1-0.6c0-0.2-0.1-0.3-0.2-0.4c-0.1-0.1-0.2-0.2-0.4-0.3s-0.3-0.1-0.6-0.1c-0.1,0-0.3,0-0.4,0
				c-0.1,0-0.2,0.1-0.3,0.1c-0.1,0-0.2,0.1-0.2,0.1c-0.1,0.1-0.1,0.1-0.1,0.2L74.5,123.3z"/>
		</g>
	</g>
	<path fill="#FFFFFF" d="M84.5,114.4V114c0-0.9-0.8-1.7-1.7-1.7c-0.9,0-1.7,0.8-1.7,1.7v0.3h-0.3v3.1h4v-3.1H84.5z M81.7,114
		c0-0.6,0.5-1.1,1.1-1.1s1.1,0.5,1.1,1.1v0.3h-2.2V114z M83.2,116.7h-0.7l0.2-0.9c-0.2-0.1-0.3-0.2-0.3-0.4c0-0.2,0.2-0.4,0.4-0.4
		s0.4,0.2,0.4,0.4c0,0.2-0.1,0.3-0.3,0.4L83.2,116.7z"/>
</g>
</svg>
