<?xml version="1.0" encoding="iso-8859-1"?>
<!-- Generator: Adobe Illustrator 18.1.0, SVG Export Plug-In . SVG Version: 6.00 Build 0)  -->
<svg version="1.1" xmlns="http://www.w3.org/2000/svg" xmlns:xlink="http://www.w3.org/1999/xlink" x="0px" y="0px"
	 viewBox="0 0 93.311 164.666" style="enable-background:new 0 0 93.311 164.666;" xml:space="preserve">
<g id="PIN-ON-VIDEO">
	<path style="fill:#EB9B95;" d="M36.853,49.575c0,2.769-2.301,5.015-5.139,5.015c-2.838,0-5.139-2.246-5.139-5.015
		c0-2.773,2.301-5.017,5.139-5.017C34.552,44.558,36.853,46.801,36.853,49.575z"/>
	<path style="fill:#EB9B95;" d="M71.322,49.575c0,2.769-2.305,5.015-5.141,5.015c-2.842,0-5.139-2.246-5.139-5.015
		c0-2.773,2.297-5.017,5.139-5.017C69.018,44.558,71.322,46.801,71.322,49.575z"/>
	<path style="fill:#F7CE97;" d="M67.923,52.314c0,10.232-8.495,18.529-18.975,18.529c-10.483,0-18.977-8.297-18.977-18.529
		S38.464,33.79,48.948,33.79C59.428,33.79,67.923,42.082,67.923,52.314z"/>
	<path style="fill:#E64436;" d="M67.911,42.413c-1.699-4.335-4.295-8.238-7.598-11.463c-6.101-5.962-18.908-9.64-28.222-9.64v21.102
		H67.911z"/>
	<path style="fill:#FFFFFF;" d="M29.912,22.048c0,3.116-2.591,5.64-5.785,5.64s-5.781-2.524-5.781-5.64
		c0-3.122,2.587-5.649,5.781-5.649S29.912,18.926,29.912,22.048z"/>
	<path style="fill:#FFFFFF;" d="M70.271,41.914c0,1.455-1.219,2.644-2.707,2.644H30.335c-1.49,0-2.708-1.189-2.708-2.644v-7.291
		c0-1.455,1.219-2.644,2.708-2.644h37.229c1.488,0,2.707,1.189,2.707,2.644V41.914z"/>
	<rect x="29.971" y="52.314" style="fill:#F7CE97;" width="37.951" height="9.419"/>
	<path style="fill:#2B2B2B;" d="M41.049,47.421c0,0.653-0.543,1.183-1.209,1.183c-0.667,0-1.206-0.529-1.206-1.183
		c0-0.648,0.539-1.181,1.206-1.181C40.506,46.24,41.049,46.773,41.049,47.421z"/>
	<path style="fill:#2B2B2B;" d="M56.845,47.421c0,0.653,0.541,1.183,1.211,1.183c0.663,0,1.204-0.529,1.204-1.183
		c0-0.648-0.541-1.181-1.204-1.181C57.386,46.24,56.845,46.773,56.845,47.421z"/>
	<path style="fill:#FFFFFF;" d="M71.93,68.39c0,9.624-7.99,17.426-17.849,17.426c-24.11,0-33.428-25.218-33.428-34.841
		c4.467,0,23.571-0.012,33.428-0.012C63.94,50.963,71.93,58.765,71.93,68.39z"/>
	<path style="fill:#2B2B2B;" d="M52.601,56.323c0,1.96-1.631,3.549-3.638,3.549c-2.004,0-3.634-1.589-3.634-3.549"/>
	<path style="fill:#EB9B95;" d="M54.075,50.963c0,2.251-2.295,4.084-5.127,4.084c-2.832,0-5.127-1.832-5.127-4.084
		c0-2.259,2.295-4.084,5.127-4.084C51.78,46.88,54.075,48.704,54.075,50.963z"/>
	<g id="_x32_5-video">
		<path style="fill:#EC4180;" d="M46.655,164.666c-2.042,0-3.715-1.55-3.902-3.543C36.91,97.642,0,80.961,0,46.655
			C0,20.889,20.889,0,46.655,0s46.655,20.889,46.655,46.655c0,34.306-36.91,50.986-42.753,114.468
			C50.37,163.116,48.697,164.666,46.655,164.666z"/>
	</g>
</g>
<g id="Layer_1">
</g>
</svg>
