<svg xmlns="http://www.w3.org/2000/svg" viewBox="51.7 89.2 149.2 263.3" enable-background="new 51.7 89.2 149.2 263.3"><path fill="#EC4180" d="M126.3 352.5c-3.3 0-5.9-2.5-6.2-5.7-9.3-101.5-68.4-128.2-68.4-183 0-41.2 33.4-74.6 74.6-74.6s74.6 33.4 74.6 74.6c0 54.9-59 81.5-68.4 183-.3 3.2-2.9 5.7-6.2 5.7z"/><path fill="#EB9B95" d="M110.6 168.5c0 4.4-3.7 8-8.2 8-4.5 0-8.2-3.6-8.2-8s3.7-8 8.2-8c4.5 0 8.2 3.5 8.2 8zM165.7 168.5c0 4.4-3.7 8-8.2 8-4.5 0-8.2-3.6-8.2-8s3.7-8 8.2-8c4.6 0 8.2 3.5 8.2 8z"/><path fill="#F7CE97" d="M160.3 172.9c0 16.4-13.6 29.6-30.3 29.6-16.8 0-30.3-13.3-30.3-29.6s13.6-29.6 30.3-29.6c16.7-.1 30.3 13.2 30.3 29.6z"/><path fill="#E64436" d="M160.3 157c-2.7-6.9-6.9-13.2-12.1-18.3-9.8-9.5-30.2-15.4-45.1-15.4V157h57.2z"/><path fill="#fff" d="M99.5 124.5c0 5-4.1 9-9.3 9s-9.2-4-9.2-9 4.1-9 9.2-9 9.3 4 9.3 9zM164.1 156.2c0 2.3-1.9 4.2-4.3 4.2h-59.5c-2.4 0-4.3-1.9-4.3-4.2v-11.7c0-2.3 1.9-4.2 4.3-4.2h59.5c2.4 0 4.3 1.9 4.3 4.2v11.7z"/><path fill="#F7CE97" d="M99.6 172.9h60.7V188H99.6z"/><path fill="#2B2B2B" d="M117.3 165c0 1-.9 1.9-1.9 1.9-1.1 0-1.9-.8-1.9-1.9 0-1 .9-1.9 1.9-1.9 1.1.1 1.9.9 1.9 1.9zM142.6 165c0 1 .9 1.9 1.9 1.9 1.1 0 1.9-.8 1.9-1.9 0-1-.9-1.9-1.9-1.9-1 .1-1.9.9-1.9 1.9z"/><path fill="#fff" d="M166.7 198.6c0 15.4-12.8 27.9-28.5 27.9-38.6 0-53.5-40.3-53.5-55.7h53.5c15.7-.1 28.5 12.4 28.5 27.8z"/><path fill="#2B2B2B" d="M135.8 179.3c0 3.1-2.6 5.7-5.8 5.7-3.2 0-5.8-2.5-5.8-5.7"/><path fill="#EB9B95" d="M138.2 170.7c0 3.6-3.7 6.5-8.2 6.5-4.5 0-8.2-2.9-8.2-6.5s3.7-6.5 8.2-6.5c4.5 0 8.2 2.9 8.2 6.5z"/></svg>