<?xml version="1.0" encoding="utf-8"?>
<!-- Generator: Adobe Illustrator 18.0.0, SVG Export Plug-In . SVG Version: 6.00 Build 0)  -->
<!DOCTYPE svg PUBLIC "-//W3C//DTD SVG 1.1//EN" "http://www.w3.org/Graphics/SVG/1.1/DTD/svg11.dtd">
<svg version="1.1" id="Layer_1" xmlns="http://www.w3.org/2000/svg" xmlns:xlink="http://www.w3.org/1999/xlink" x="0px" y="0px"
	 viewBox="51.1 88.6 47.8 84.4" enable-background="new 51.1 88.6 47.8 84.4" xml:space="preserve">
<g id="PIN-ON-CANDY">
	<g id="XMLID_40_">
		<g>
			<path fill="#83CE00" d="M75,173c-1,0-1.9-0.8-2-1.8c-3-32.5-21.9-41.1-21.9-58.7c0-13.2,10.7-23.9,23.9-23.9s23.9,10.7,23.9,23.9
				c0,17.6-18.9,26.1-21.9,58.7C76.9,172.2,76,173,75,173z"/>
		</g>
		<g>
			<path fill="#88391D" d="M64.9,101.2h8.3c-0.2-0.5-0.3-1-0.3-1.5c0-0.4,0.1-0.8,0.2-1.1H62.3v27.3l2.6-2.6V101.2z"/>
			<path fill="#88391D" d="M87,113.9v9.4H64.9v0l-2.6,2.6h27.3v-11.6c-0.3,0.1-0.5,0.1-0.8,0.1C88.1,114.3,87.5,114.2,87,113.9z"/>
			<path opacity="0.1" enable-background="new    " d="M87,113.9v9.4H64.9v0l-2.6,2.6h27.3v-11.6c-0.3,0.1-0.5,0.1-0.8,0.1
				C88.1,114.3,87.5,114.2,87,113.9z"/>
			<path fill="#A95728" d="M64.9,123.3L64.9,123.3l3.4-3.3h-0.1v-15.4h6.1c0.2-0.4,0.5-0.8,0.8-1.2c-0.9-0.5-1.6-1.2-1.9-2.1h-8.3
				V123.3z"/>
			<path fill="#A95728" d="M68.2,120l-3.4,3.4H87v-9.4c-0.5-0.2-1-0.6-1.3-1c-0.6,0.6-1.3,1-2.1,1.2v5.9H68.2z"/>
			<path opacity="0.1" enable-background="new    " d="M68.2,120l-3.4,3.4H87v-9.4c-0.5-0.2-1-0.6-1.3-1c-0.6,0.6-1.3,1-2.1,1.2v5.9
				H68.2z"/>
			<path fill="#CB712E" d="M68.2,120L68.2,120h15.4v-5.9c-0.3,0.1-0.6,0.1-0.9,0.1c-2.2,0-4-1.7-4.1-3.9c-0.1,0-0.3,0-0.4,0
				c-2.3,0-4.2-1.9-4.2-4.2c0-0.6,0.1-1.1,0.3-1.6h-6.1C68.2,104.5,68.2,120,68.2,120z"/>
		</g>
	</g>
</g>
<g id="Layer_1_1_">
</g>
</svg>
