<svg xmlns="http://www.w3.org/2000/svg" viewBox="0 0 93.311 164.666" enable-background="new 0 0 93.311 164.666"><g><g><path d="M46.655 164.666c-2.042 0-3.715-1.55-3.902-3.543C36.91 97.643 0 80.96 0 46.655 0 20.89 20.89 0 46.655 0S93.31 20.89 93.31 46.655c0 34.306-36.91 50.986-42.753 114.468-.187 1.993-1.86 3.543-3.902 3.543z" fill="#83CE00"/><ellipse cx="47.492" cy="47.745" rx="6.518" ry="6.689" fill="#fff"/><path d="M69.314 70.488c12.195-12.518 12.195-32.886 0-45.405M25.076 25.083c-12.197 12.52-12.197 32.888 0 45.405M63.435 64.455c8.955-9.19 8.955-24.146 0-33.338M30.955 31.117c-8.954 9.19-8.954 24.146 0 33.338M57.555 58.42c5.72-5.873 5.72-15.395 0-21.268M36.835 37.152c-5.724 5.873-5.722 15.397-.002 21.268" fill="none" stroke="#00A9E7" stroke-width="3" stroke-linecap="round" stroke-linejoin="round" stroke-miterlimit="10"/><path fill="#C1161C" d="M47.493 54.434L34.833 75.9l25.773-.183z"/><path fill="#E64436" d="M47.493 54.434L34.833 75.9l19.47-.183z"/><path d="M62.013 77.58c0 .97-.82 1.764-1.82 1.764H35.157c-1.002 0-1.822-.793-1.822-1.765v-4.867c0-.97.82-1.765 1.822-1.765h25.036c1 0 1.82.793 1.82 1.765v4.866z" fill="#fff"/></g></g></svg>