<?xml version="1.0" encoding="utf-8"?>
<!-- Generator: Adobe Illustrator 18.0.0, SVG Export Plug-In . SVG Version: 6.00 Build 0)  -->
<!DOCTYPE svg PUBLIC "-//W3C//DTD SVG 1.1//EN" "http://www.w3.org/Graphics/SVG/1.1/DTD/svg11.dtd">
<svg version="1.1" id="Layer_1" xmlns="http://www.w3.org/2000/svg" xmlns:xlink="http://www.w3.org/1999/xlink" x="0px" y="0px"
	 viewBox="51.1 88.6 47.8 84.4" enable-background="new 51.1 88.6 47.8 84.4" xml:space="preserve">
<g id="PIN-ON-GUMBALL">
	<g id="_x32_3-Gumball">
		<path fill="#B757C5" d="M75,173c-1,0-1.9-0.8-2-1.8c-3-32.5-21.9-41.1-21.9-58.7c0-13.2,10.7-23.9,23.9-23.9s23.9,10.7,23.9,23.9
			c0,17.6-18.9,26.1-21.9,58.7C76.9,172.2,76,173,75,173z"/>
	</g>
	<circle fill="#00A9E7" cx="74.7" cy="113.3" r="15.8"/>
	<path fill="#FFFFFF" d="M79.9,128.5c-4,0.1-8-1.3-11-4.3c-4.6-4.6-4.6-12,0-16.5c3.6-3.6,9.4-3.6,13,0c1.4,1.4,2.1,3.2,2.1,5.1
		c0,1.9-0.7,3.7-2.1,5.1c-1.1,1.1-2.5,1.6-4,1.6l0,0c-1.5,0-2.9-0.6-4-1.6c-1.7-1.7-1.7-4.4,0-6.1c0.6-0.6,1.5-1,2.3-1l0,0
		c0.9,0,1.7,0.3,2.3,1c0.5,0.5,0.7,1.1,0.7,1.8s-0.3,1.3-0.7,1.8c-0.3,0.3-0.8,0.5-1.3,0.5l0,0c-0.5,0-0.9-0.2-1.3-0.5
		c-0.5-0.5-0.5-1.3,0-1.8c0.2-0.2,0.4-0.3,0.6-0.3l0,0c0.2,0,0.5,0.1,0.6,0.3c0.3,0.3,0.8,0.3,1.1,0c0.3-0.3,0.3-0.8,0-1.1
		c-0.5-0.5-1.1-0.7-1.7-0.7l0,0c-0.7,0-1.3,0.3-1.7,0.7c-1.1,1.1-1.1,3,0,4.1c0.6,0.6,1.5,1,2.4,1h0c0.9,0,1.8-0.4,2.4-1
		c0.8-0.8,1.2-1.8,1.2-2.9c0-1.1-0.4-2.1-1.2-2.9c-0.9-0.9-2.1-1.4-3.5-1.4l0,0c-1.3,0-2.5,0.5-3.5,1.4c-2.3,2.3-2.3,6,0,8.4
		c1.4,1.4,3.2,2.1,5.1,2.1l0,0c1.9,0,3.7-0.7,5.1-2.1c1.7-1.7,2.6-3.9,2.6-6.2c0-2.3-0.9-4.6-2.6-6.2c-4.2-4.2-11-4.2-15.2,0
		c-5.2,5.2-5.2,13.6,0,18.8c1.5,1.5,3.3,2.7,5.2,3.5c0.9,0.2,1.8,0.3,2.8,0.3C77.2,129.1,78.5,128.9,79.9,128.5z"/>
	<path opacity="0.1" enable-background="new    " d="M83.1,99.8c3.1,2.7,5.1,6.6,5.1,11.1c0,8-6.5,14.6-14.6,14.6
		c-8,0-14.4-6.4-14.6-14.4c-0.1,0.7-0.2,1.4-0.2,2.1c0,8.7,7.1,15.8,15.8,15.8s15.8-7.1,15.8-15.8C90.5,107.6,87.6,102.6,83.1,99.8z
		"/>
</g>
<g id="Layer_1_1_">
</g>
</svg>
