<?xml version="1.0" encoding="utf-8"?>
<!-- Generator: Adobe Illustrator 18.0.0, SVG Export Plug-In . SVG Version: 6.00 Build 0)  -->
<!DOCTYPE svg PUBLIC "-//W3C//DTD SVG 1.1//EN" "http://www.w3.org/Graphics/SVG/1.1/DTD/svg11.dtd">
<svg version="1.1" id="Layer_1" xmlns="http://www.w3.org/2000/svg" xmlns:xlink="http://www.w3.org/1999/xlink" x="0px" y="0px"
	 viewBox="51.1 88.6 47.8 84.4" enable-background="new 51.1 88.6 47.8 84.4" xml:space="preserve">
<g id="PIN-ON-CHARITY">
	<g id="_x31_8-Charity">
		<path fill="#83CE00" d="M75,173c-1,0-1.9-0.8-2-1.8c-3-32.5-21.9-41.1-21.9-58.7c0-13.2,10.7-23.9,23.9-23.9s23.9,10.7,23.9,23.9
			c0,17.6-18.9,26.1-21.9,58.7C76.9,172.2,76,173,75,173z"/>
	</g>
	<ellipse fill="#FFFFFF" cx="71.6" cy="116.6" rx="9.9" ry="10"/>
	<ellipse fill="#FFFFFF" cx="71.6" cy="116.6" rx="9.9" ry="10"/>
	<rect x="68" y="102.8" fill="#FFFFFF" width="7" height="5.1"/>
	<rect x="72.2" y="102.8" opacity="9.000000e-02" enable-background="new    " width="2.8" height="5.1"/>
	<ellipse fill="#FFFFFF" cx="71.6" cy="116.6" rx="9.9" ry="10"/>
	<path fill="#333333" d="M71.6,102.4c-1,0-1.8-0.8-1.8-1.8s0.8-1.8,1.8-1.8c1,0,1.8,0.8,1.8,1.8S72.6,102.4,71.6,102.4z M71.6,99.3
		c-0.7,0-1.3,0.6-1.3,1.3c0,0.7,0.6,1.3,1.3,1.3s1.3-0.6,1.3-1.3C72.9,99.9,72.3,99.3,71.6,99.3z"/>
	<path fill="#FFDF00" d="M71.8,99.8l-0.1,0c0-1.6-0.4-3-0.7-4.2c-0.2-0.9-0.4-1.6-0.4-2.3c0-0.5,0.5-0.9,1.1-0.9
		c0.6,0,1.1,0.4,1.1,0.9c0,1.2-0.2,2.2-0.4,3.3C72.1,97.5,71.9,98.6,71.8,99.8z M71.7,92.5c-0.5,0-1,0.4-1,0.8
		c0,0.6,0.2,1.4,0.4,2.3c0.3,1,0.5,2.1,0.6,3.3c0.1-0.9,0.3-1.6,0.4-2.3c0.2-1.1,0.4-2.1,0.4-3.3C72.6,92.9,72.2,92.5,71.7,92.5z"/>
	<path fill="#B757C5" d="M70.5,106.5c-5,0.5-8.9,4.8-8.9,10c0,0.1,0,0.2,0,0.3l11,9.8c1-0.1,1.9-0.3,2.8-0.7
		c-0.1-0.2-0.3-0.5-0.5-0.6l-4.4-3.9c0.3,0,0.7-0.2,0.9-0.4c0.5-0.5,0.4-1.3-0.1-1.8l-0.4-0.3c0.1,0,0.1,0,0.2,0
		c0.4,0,0.7-0.1,1-0.4c0.5-0.5,0.4-1.3-0.1-1.8l-0.9-0.8c0.4,0,0.7-0.2,0.9-0.5c0.2-0.2,0.2-0.4,0.3-0.6l1.8,1.6
		c0.2,0.2,0.5,0.3,0.8,0.3c0.4,0,0.7-0.1,1-0.4c0.5-0.5,0.4-1.3-0.1-1.8l-0.6-0.5c0.1,0,0.1,0,0.2,0c0.4,0,0.7-0.1,1-0.4
		c0.5-0.5,0.4-1.3-0.1-1.8L70.5,106.5z"/>
	<path opacity="0.1" enable-background="new    " d="M71.6,106.5c-0.5,0-1.1,0-1.6,0.1c0,0,0.1,0,0.1,0c4.6,0,8.3,3.8,8.3,8.4
		s-3.7,8.4-8.3,8.4c-4.6,0-8.3-3.8-8.3-8.4c0-0.1,0-0.2,0-0.3c-0.1,0.6-0.2,1.2-0.2,1.8c0,5.5,4.5,10,9.9,10c5.5,0,9.9-4.5,9.9-10
		C81.5,111,77.1,106.5,71.6,106.5z"/>
	<ellipse fill="none" cx="71.6" cy="116.6" rx="9.9" ry="10"/>
	<path fill="#B757C5" d="M74.5,126.2l-0.3-0.3c-0.4-0.4-0.5-1-0.1-1.5l2.6-4.5l3.8,3.8l-4.5,2.6C75.5,126.7,74.9,126.6,74.5,126.2z"
		/>
	
		<rect x="83.1" y="102.8" transform="matrix(0.7067 0.7075 -0.7075 0.7067 106.0636 -27.5849)" fill="#B757C5" width="6.3" height="22.7"/>
	
		<rect x="83.1" y="104.6" transform="matrix(0.7067 0.7075 -0.7075 0.7067 106.0624 -27.588)" fill="#D571E3" width="6.3" height="19"/>
	
		<rect x="87.8" y="109.1" transform="matrix(0.7067 0.7075 -0.7075 0.7067 104.136 -32.2591)" fill="#B757C5" width="6.3" height="0.8"/>
	
		<rect x="88.7" y="108.2" transform="matrix(0.7067 0.7075 -0.7075 0.7067 103.7593 -33.1598)" fill="#B757C5" width="6.3" height="0.8"/>
	
		<rect x="77.6" y="119.3" transform="matrix(0.7067 0.7075 -0.7075 0.7067 108.3648 -22.0246)" fill="#B757C5" width="6.3" height="0.8"/>
	
		<rect x="78.5" y="118.4" transform="matrix(0.7067 0.7075 -0.7075 0.7067 107.993 -22.9273)" fill="#B757C5" width="6.3" height="0.8"/>
	<path fill="#B757C5" d="M84.5,117l-1.1-1.1c-0.6-0.6-0.6-1.5,0-2l3.5-3.5c0.6-0.6,1.5-0.6,2,0l1.1,1.1c0.6,0.6,0.6,1.5,0,2
		l-3.5,3.5C86,117.6,85.1,117.6,84.5,117z"/>
	
		<rect x="82.6" y="104.3" transform="matrix(-0.7071 -0.7071 0.7071 -0.7071 62.8875 254.3101)" opacity="0.15" enable-background="new    " width="3.1" height="19.6"/>
	<path opacity="0.15" enable-background="new    " d="M77.2,121l-0.7-0.7l-2.4,4.1c-0.3,0.5-0.3,1.1,0.1,1.5l0.3,0.3
		c0.1,0.1,0.1,0.1,0.2,0.2c-0.2-0.4-0.2-0.9,0-1.2L77.2,121z"/>
</g>
<g id="Layer_1_1_">
</g>
</svg>
