<svg xmlns="http://www.w3.org/2000/svg" viewBox="49.5 88.6 51 84.4" enable-background="new 49.5 88.6 51 84.4"><g><path fill="#EE3837" d="M73.2 173c-1 0-1.9-.8-2-1.8-3-32.3-21.7-40.8-21.7-58.2 0-13.1 10.6-23.7 23.7-23.7S96.9 99.9 96.9 113c0 17.4-18.8 25.9-21.7 58.2-.1 1-.9 1.8-2 1.8z"/><circle fill="#EE3837" cx="91.9" cy="97.2" r="8.6"/><circle opacity=".1" enable-background="new" cx="91.9" cy="97.2" r="8.6"/><path fill="#fff" d="M79.2 107.3l-7 16.5h-4.6l7-15.4h-9V105h13.5v2.3z" enable-background="new"/><path fill="#fff" d="M95.6 95.3v-.7c0-2-1.6-3.6-3.6-3.6s-3.6 1.6-3.6 3.6v.7h-.7v6.7h8.7v-6.7h-.8zm-6.1-.7c0-1.3 1.1-2.4 2.4-2.4s2.4 1.1 2.4 2.4v.7h-4.8v-.7zm3.3 5.8h-1.5l.5-1.9c-.4-.1-.6-.5-.6-.9 0-.5.4-1 1-1s1 .4 1 1c0 .4-.2.7-.6.9l.2 1.9z"/></g></svg>