<?xml version="1.0" encoding="iso-8859-1"?>
<!-- Generator: Adobe Illustrator 18.1.0, SVG Export Plug-In . SVG Version: 6.00 Build 0)  -->
<svg version="1.1" xmlns="http://www.w3.org/2000/svg" xmlns:xlink="http://www.w3.org/1999/xlink" x="0px" y="0px"
	 viewBox="0 0 93.311 164.666" style="enable-background:new 0 0 93.311 164.666;" xml:space="preserve">
<g id="PIN-ON-APP">
	<path style="fill:#49CBC4;" d="M46.655,164.666c-2.042,0-3.715-1.55-3.902-3.543C36.91,97.642,0,80.961,0,46.655
		C0,20.889,20.889,0,46.655,0s46.655,20.889,46.655,46.655c0,34.306-36.91,50.986-42.753,114.468
		C50.37,163.116,48.697,164.666,46.655,164.666z"/>
	<path style="fill:#3998AD;" d="M68.128,20.005c0-1.481-1.2-2.681-2.681-2.681H27.228c-1.481,0-2.681,1.2-2.681,2.681v61.463
		c0,1.481,1.2,2.681,2.681,2.681h38.219c1.481,0,2.681-1.2,2.681-2.681V20.005z"/>
	<path style="opacity:0.1;fill:#231F20;" d="M27.06,84.131c0.057,0.004,0.11,0.017,0.168,0.017h38.219
		c1.481,0,2.681-1.2,2.681-2.681V43.063C54.439,56.753,40.749,70.442,27.06,84.131z"/>
	<path style="opacity:0.1;fill:#FFFFFF;" d="M47.407,17.324h-20.18c-1.481,0-2.681,1.2-2.681,2.681v20.18L47.407,17.324z"/>
	<rect x="28.47" y="21.381" style="fill:#49CBC4;" width="35.735" height="51.146"/>
	<path style="opacity:0.1;fill:#FFFFFF;" d="M41.964,21.381H28.47v13.494C32.968,30.377,37.466,25.879,41.964,21.381z"/>
	<polygon style="opacity:0.1;fill:#FFFFFF;" points="37.278,72.526 64.205,72.526 64.205,45.6 	"/>
	<circle style="opacity:0.1;fill:#231F20;" cx="46.337" cy="78.337" r="1.67"/>
	<ellipse style="fill:#F1831F;" cx="38.771" cy="47.897" rx="2.34" ry="2.284"/>
	<ellipse style="fill:#F1831F;" cx="54.471" cy="47.897" rx="2.341" ry="2.284"/>
	<ellipse style="opacity:0.1;fill:#231F20;" cx="54.471" cy="47.897" rx="2.341" ry="2.284"/>
	<path style="fill:#F3C6A9;" d="M55.264,49.146c0-4.661-3.869-8.438-8.644-8.438c-4.773,0-8.643,3.776-8.643,8.438v4.29h1.2
		c1.504,2.483,4.273,4.149,7.442,4.149c3.17,0,5.939-1.666,7.443-4.149h1.201V49.146z"/>
	<path style="opacity:0.1;fill:#231F20;" d="M49.928,41.35c1.618,1.533,2.625,3.678,2.625,6.054v4.29h-1.201
		c-1.505,2.483-4.274,4.149-7.443,4.149c-1.17,0-2.284-0.228-3.302-0.64c1.555,1.473,3.674,2.382,6.012,2.382
		c3.17,0,5.939-1.666,7.443-4.149h1.201v-4.29C55.264,45.629,53.06,42.617,49.928,41.35z"/>
	<path style="fill:#231F20;" d="M42.855,47.464c0,0.298-0.248,0.54-0.55,0.54c-0.304,0-0.55-0.242-0.55-0.54
		c0-0.295,0.246-0.537,0.55-0.537C42.607,46.927,42.855,47.169,42.855,47.464z"/>
	<path style="fill:#231F20;" d="M49.534,47.464c0,0.298,0.245,0.54,0.551,0.54c0.302,0,0.549-0.242,0.549-0.54
		c0-0.295-0.246-0.537-0.549-0.537C49.779,46.927,49.534,47.169,49.534,47.464z"/>
	<path style="fill:#FFFFFF;" d="M57.088,56.468c0,4.385-3.639,7.937-8.129,7.937c-10.982,0-15.226-11.486-15.226-15.87
		c2.034,0,10.736-0.006,15.226-0.006S57.088,52.084,57.088,56.468z"/>
	<path style="fill:#231F20;" d="M48.033,51.78c0,0.893-0.742,1.616-1.656,1.616c-0.914,0-1.656-0.723-1.656-1.616"/>
	<ellipse style="fill:#F1831F;" cx="46.377" cy="48.53" rx="2.335" ry="1.86"/>
	<path style="fill:#E81C1C;" d="M55.259,44.636c-0.774-1.975-1.957-3.752-3.461-5.221c-2.777-2.715-8.612-4.39-12.855-4.39v9.612
		H55.259z"/>
	<ellipse style="fill:#FFFFFF;" cx="35.316" cy="35.359" rx="2.634" ry="2.57"/>
	<path style="fill:#FFFFFF;" d="M56.333,44.409c0,0.662-0.555,1.204-1.233,1.204H38.142c-0.678,0-1.232-0.541-1.232-1.204v-3.321
		c0-0.663,0.555-1.205,1.232-1.205H55.1c0.678,0,1.233,0.542,1.233,1.205V44.409z"/>
</g>
<g id="Layer_1">
</g>
</svg>
