<?xml version="1.0" encoding="utf-8"?>
<!-- Generator: Adobe Illustrator 18.0.0, SVG Export Plug-In . SVG Version: 6.00 Build 0)  -->
<!DOCTYPE svg PUBLIC "-//W3C//DTD SVG 1.1//EN" "http://www.w3.org/Graphics/SVG/1.1/DTD/svg11.dtd">
<svg version="1.1" id="Layer_1" xmlns="http://www.w3.org/2000/svg" xmlns:xlink="http://www.w3.org/1999/xlink" x="0px" y="0px"
	 viewBox="81.6 0 448.8 792" enable-background="new 81.6 0 448.8 792" xml:space="preserve">
<g id="PIN-ON-VIDEO">
	<g id="_x31_4-Video">
		<path fill="#EC4180" d="M306,792c-9.8,0-17.9-7.5-18.8-17C259.1,469.6,81.6,389.4,81.6,224.4C81.6,100.5,182.1,0,306,0
			s224.4,100.5,224.4,224.4c0,165-177.5,245.2-205.6,550.6C323.9,784.5,315.8,792,306,792z"/>
		
			<rect x="244.9" y="179.3" transform="matrix(-0.7071 -0.7071 0.7071 -0.7071 367.8149 585.5853)" fill="#E798CD" width="120.7" height="74.7"/>
		<path fill="#5E535A" d="M321.4,290.5l-90.2-90.2l57.7-57.7l90.2,90.2L321.4,290.5z M241,200.4l80.5,80.5l47.9-47.9l-80.5-80.5
			L241,200.4z"/>
		
			<rect x="273.8" y="59.3" transform="matrix(-0.7071 -0.7071 0.7071 -0.7071 385.3074 438.4079)" fill="#5E535A" width="19.3" height="160.3"/>
		
			<rect x="314.7" y="100.9" transform="matrix(-0.7071 -0.7071 0.7071 -0.7071 471.8663 402.5462)" fill="#EC4180" width="9.1" height="5.3"/>
		
			<rect x="295.8" y="119.9" transform="matrix(-0.7071 -0.7071 0.7071 -0.7071 426.0957 421.5093)" fill="#EC4180" width="9.1" height="5.3"/>
		
			<rect x="276.8" y="138.8" transform="matrix(-0.7071 -0.7071 0.7071 -0.7071 380.3319 440.4607)" fill="#EC4180" width="9.1" height="5.3"/>
		
			<rect x="257.9" y="157.8" transform="matrix(-0.7071 -0.7071 0.7071 -0.7071 334.5624 459.4233)" fill="#EC4180" width="9.1" height="5.3"/>
		
			<rect x="238.9" y="176.7" transform="matrix(-0.7071 -0.7071 0.7071 -0.7071 288.8012 478.3826)" fill="#EC4180" width="9.1" height="5.3"/>
		
			<rect x="333.7" y="82" transform="matrix(-0.7071 -0.7071 0.7071 -0.7071 517.6301 383.5947)" fill="#EC4180" width="9.1" height="5.3"/>
		
			<rect x="299.4" y="124.7" transform="matrix(-0.7071 -0.7071 0.7071 -0.7071 499.463 531.0519)" fill="#E798CD" width="120.7" height="74.7"/>
		<path fill="#5E535A" d="M376,236l-90.2-90.2l58.7-58.7l90.2,90.2L376,236z M295.5,145.8l80.5,80.5l47.9-47.9l-80.5-80.5
			L295.5,145.8z"/>
		<polygon opacity="0.17" fill="#5E535A" enable-background="new    " points="376,231.1 290.7,145.8 428.8,178.3 		"/>
		<polygon opacity="0.17" fill="#5E535A" enable-background="new    " points="321.4,285.7 236.1,200.4 374.2,232.9 		"/>
		
			<rect x="372.3" y="157.7" transform="matrix(-0.7071 -0.7071 0.7071 -0.7071 483.7701 676.0981)" fill="#5E535A" width="19.3" height="160.3"/>
		
			<rect x="413.2" y="199.4" transform="matrix(-0.7071 -0.7071 0.7071 -0.7071 570.3243 640.2479)" fill="#EC4180" width="9.1" height="5.3"/>
		
			<rect x="394.3" y="218.3" transform="matrix(-0.7071 -0.7071 0.7071 -0.7071 524.563 659.2072)" fill="#EC4180" width="9.1" height="5.3"/>
		
			<rect x="375.3" y="237.3" transform="matrix(-0.7071 -0.7071 0.7071 -0.7071 478.7903 678.1616)" fill="#EC4180" width="9.1" height="5.3"/>
		
			<rect x="356.3" y="256.2" transform="matrix(-0.7071 -0.7071 0.7071 -0.7071 433.0287 697.1217)" fill="#EC4180" width="9.1" height="5.3"/>
		
			<rect x="337.4" y="275.2" transform="matrix(-0.7071 -0.7071 0.7071 -0.7071 387.2558 716.0762)" fill="#EC4180" width="9.1" height="5.3"/>
		
			<rect x="432.2" y="180.4" transform="matrix(-0.7071 -0.7071 0.7071 -0.7071 616.0847 621.2883)" fill="#EC4180" width="9.1" height="5.3"/>
		<polygon fill="#E798CD" points="322,287.9 236.7,202.6 288.2,180.3 373.6,265.6 		"/>
		<path fill="#5E535A" d="M321.4,291.3l-89.7-89.7l57.2-24.7l89.7,89.7L321.4,291.3z M241.7,203.5l80.9,80.9l45.8-19.8l-80.9-80.9
			L241.7,203.5z"/>
		<polygon fill="#5E535A" points="234.2,203.6 220.6,190 330.9,142.3 344.6,155.9 		"/>
		<polygon fill="#EC4180" points="319.1,161.8 312.7,155.4 316.3,153.8 322.7,160.2 		"/>
		<polygon fill="#EC4180" points="300.6,169.8 294.2,163.4 297.8,161.8 304.3,168.2 		"/>
		<polygon fill="#EC4180" points="282.1,177.8 275.7,171.4 279.3,169.8 285.7,176.2 		"/>
		<polygon fill="#EC4180" points="263.6,185.8 257.2,179.4 260.8,177.8 267.3,184.2 		"/>
		<polygon fill="#EC4180" points="245.1,193.8 238.7,187.3 242.3,185.8 248.7,192.2 		"/>
		<polygon fill="#EC4180" points="337.6,153.8 331.2,147.4 334.8,145.8 341.2,152.2 		"/>
		<polygon fill="#E798CD" points="375.2,264.9 289.9,179.6 341.5,157.3 426.8,242.6 		"/>
		<path fill="#5E535A" d="M374.6,268.3l-89.7-89.7l57.2-24.7l89.7,89.7L374.6,268.3z M295,180.5l80.9,80.9l45.8-19.8l-80.9-80.9
			L295,180.5z"/>
		<polygon opacity="0.17" fill="#5E535A" enable-background="new    " points="375.2,264.9 289.9,179.6 426.8,242.6 		"/>
		<polygon opacity="0.17" fill="#5E535A" enable-background="new    " points="322,287.9 236.7,202.6 373.6,265.6 		"/>
		<polygon fill="#5E535A" points="332.7,302.1 319.1,288.5 429.4,240.8 443,254.4 		"/>
		<polygon fill="#EC4180" points="417.6,260.3 411.1,253.8 414.8,252.2 421.2,258.7 		"/>
		<polygon fill="#EC4180" points="399.1,268.3 392.6,261.8 396.3,260.2 402.7,266.7 		"/>
		<polygon fill="#EC4180" points="380.6,276.3 374.1,269.8 377.8,268.2 384.2,274.7 		"/>
		<polygon fill="#EC4180" points="362.1,284.3 355.6,277.8 359.3,276.2 365.7,282.7 		"/>
		<polygon fill="#EC4180" points="343.6,292.3 337.1,285.8 340.8,284.2 347.2,290.7 		"/>
		<polygon fill="#EC4180" points="436.1,252.3 429.6,245.8 433.3,244.2 439.7,250.7 		"/>
		<polygon fill="#332C31" points="322,287.9 236.7,202.6 288.2,180.3 373.6,265.6 		"/>
		<path fill="#332C31" d="M321.4,291.3l-89.7-89.7l57.2-24.7l89.7,89.7L321.4,291.3z M241.7,203.5l80.9,80.9l45.8-19.8l-80.9-80.9
			L241.7,203.5z"/>
		<polygon fill="#332C31" points="234.2,203.6 220.6,190 330.9,142.3 344.6,155.9 		"/>
		<polygon fill="#4A3F3C" points="319.1,161.8 312.7,155.4 316.3,153.8 322.7,160.2 		"/>
		<polygon fill="#4A3F3C" points="300.6,169.8 294.2,163.4 297.8,161.8 304.3,168.2 		"/>
		<polygon fill="#4A3F3C" points="282.1,177.8 275.7,171.4 279.3,169.8 285.7,176.2 		"/>
		<polygon fill="#4A3F3C" points="263.6,185.8 257.2,179.4 260.8,177.8 267.3,184.2 		"/>
		<polygon fill="#4A3F3C" points="245.1,193.8 238.7,187.3 242.3,185.8 248.7,192.2 		"/>
		<polygon fill="#4A3F3C" points="337.6,153.8 331.2,147.4 334.8,145.8 341.2,152.2 		"/>
		<polygon fill="#332C31" points="375.2,264.9 289.9,179.6 341.5,157.3 426.8,242.6 		"/>
		<path fill="#332C31" d="M374.6,268.3l-89.7-89.7l57.2-24.7l89.7,89.7L374.6,268.3z M295,180.5l80.9,80.9l45.8-19.8l-80.9-80.9
			L295,180.5z"/>
		<polygon opacity="0.17" fill="#332C31" enable-background="new    " points="375.2,264.9 289.9,179.6 426.8,242.6 		"/>
		<polygon opacity="0.17" fill="#332C31" enable-background="new    " points="322,287.9 236.7,202.6 373.6,265.6 		"/>
		<polygon fill="#332C31" points="332.7,302.1 319.1,288.5 429.4,240.8 443,254.4 		"/>
		<polygon fill="#EC4180" points="417.6,260.3 411.1,253.8 414.8,252.2 421.2,258.7 		"/>
		<polygon fill="#EC4180" points="399.1,268.3 392.6,261.8 396.3,260.2 402.7,266.7 		"/>
		<polygon fill="#EC4180" points="380.6,276.3 374.1,269.8 377.8,268.2 384.2,274.7 		"/>
		<polygon fill="#EC4180" points="362.1,284.3 355.6,277.8 359.3,276.2 365.7,282.7 		"/>
		<polygon fill="#EC4180" points="343.6,292.3 337.1,285.8 340.8,284.2 347.2,290.7 		"/>
		<polygon fill="#EC4180" points="436.1,252.3 429.6,245.8 433.3,244.2 439.7,250.7 		"/>
		
			<rect x="243.9" y="245.5" transform="matrix(-0.7071 -0.7071 0.7071 -0.7071 319.308 697.8959)" fill="#E798CD" width="120.7" height="74.7"/>
		<path fill="#5E535A" d="M320.4,356.7l-90.2-90.2l57.7-57.7l90.2,90.2L320.4,356.7z M240,266.6l80.5,80.5l47.9-47.9l-80.5-80.5
			L240,266.6z"/>
		
			<rect x="190.2" y="297.4" transform="matrix(-0.7071 -0.7071 0.7071 -0.7071 189.7122 751.5757)" fill="#E798CD" width="120.7" height="78.1"/>
		<path fill="#5E535A" d="M268,409.2L177.8,319l57.7-57.7l90.2,90.2L268,409.2z M187.5,319l80.5,80.5l47.9-47.9l-80.5-80.5
			L187.5,319z"/>
		
			<rect x="298.4" y="191" transform="matrix(-0.7071 -0.7071 0.7071 -0.7071 450.9502 643.3651)" fill="#E798CD" width="120.7" height="74.7"/>
		<path fill="#5E535A" d="M375,302.2L284.8,212l57.7-57.7l90.2,90.2L375,302.2z M294.5,212l80.5,80.5l47.9-47.9l-80.5-80.5
			L294.5,212z"/>
		<polygon opacity="0.17" fill="#5E535A" enable-background="new    " points="375,297.4 289.7,212 427.8,244.5 		"/>
		<polygon opacity="0.17" fill="#5E535A" enable-background="new    " points="320.4,351.9 235.1,266.6 373.3,299.1 		"/>
		<polygon opacity="0.17" fill="#5E535A" enable-background="new    " points="268.8,403.6 183.4,318.3 321.6,350.8 		"/>
		
			<rect x="345" y="213.4" transform="matrix(-0.7071 -0.7071 0.7071 -0.7071 371.7133 814.7402)" fill="#5E535A" width="19.3" height="233.9"/>
		
			<rect x="412.2" y="265.6" transform="matrix(-0.7071 -0.7071 0.7071 -0.7071 521.811 752.5599)" fill="#EC4180" width="9.1" height="5.3"/>
		
			<rect x="393.3" y="284.5" transform="matrix(-0.7071 -0.7071 0.7071 -0.7071 476.0497 771.5192)" fill="#EC4180" width="9.1" height="5.3"/>
		
			<rect x="374.3" y="303.5" transform="matrix(-0.7071 -0.7071 0.7071 -0.7071 430.2885 790.4784)" fill="#EC4180" width="9.1" height="5.3"/>
		
			<rect x="355.3" y="322.5" transform="matrix(-0.7071 -0.7071 0.7071 -0.7071 384.5154 809.4337)" fill="#EC4180" width="9.1" height="5.3"/>
		
			<rect x="336.4" y="341.4" transform="matrix(-0.7071 -0.7071 0.7071 -0.7071 338.7488 828.3869)" fill="#EC4180" width="9.1" height="5.3"/>
		
			<rect x="431.2" y="246.6" transform="matrix(-0.7071 -0.7071 0.7071 -0.7071 567.5838 733.6054)" fill="#EC4180" width="9.1" height="5.3"/>
		
			<rect x="318.2" y="359.6" transform="matrix(-0.7071 -0.7071 0.7071 -0.7071 294.7916 846.5977)" fill="#EC4180" width="9.1" height="5.3"/>
		
			<rect x="299.2" y="378.6" transform="matrix(-0.7071 -0.7071 0.7071 -0.7071 249.0301 865.5577)" fill="#EC4180" width="9.1" height="5.3"/>
		
			<rect x="280.3" y="397.5" transform="matrix(-0.7071 -0.7071 0.7071 -0.7071 203.2572 884.5122)" fill="#EC4180" width="9.1" height="5.3"/>
		
			<rect x="246.5" y="115" transform="matrix(-0.7071 -0.7071 0.7071 -0.7071 273.2549 577.0392)" fill="#5E535A" width="19.3" height="233.9"/>
		
			<rect x="313.8" y="167.1" transform="matrix(-0.7071 -0.7071 0.7071 -0.7071 423.3563 514.8664)" fill="#EC4180" width="9.1" height="5.3"/>
		
			<rect x="294.8" y="186.1" transform="matrix(-0.7071 -0.7071 0.7071 -0.7071 377.5914 533.8182)" fill="#EC4180" width="9.1" height="5.3"/>
		
			<rect x="275.8" y="205" transform="matrix(-0.7071 -0.7071 0.7071 -0.7071 331.8219 552.7808)" fill="#EC4180" width="9.1" height="5.3"/>
		
			<rect x="256.9" y="224" transform="matrix(-0.7071 -0.7071 0.7071 -0.7071 286.0551 571.7349)" fill="#EC4180" width="9.1" height="5.3"/>
		
			<rect x="237.9" y="243" transform="matrix(-0.7071 -0.7071 0.7071 -0.7071 240.2857 590.6976)" fill="#EC4180" width="9.1" height="5.3"/>
		
			<rect x="332.7" y="148.2" transform="matrix(-0.7071 -0.7071 0.7071 -0.7071 469.1258 495.9037)" fill="#E798CD" width="9.1" height="5.3"/>
		
			<rect x="219.7" y="261.2" transform="matrix(-0.7071 -0.7071 0.7071 -0.7071 196.3333 608.8967)" fill="#EC4180" width="9.1" height="5.3"/>
		
			<rect x="200.8" y="280.1" transform="matrix(-0.7071 -0.7071 0.7071 -0.7071 150.5721 627.8559)" fill="#EC4180" width="9.1" height="5.3"/>
		
			<rect x="181.8" y="299.1" transform="matrix(-0.7071 -0.7071 0.7071 -0.7071 104.8026 646.8186)" fill="#EC4180" width="9.1" height="5.3"/>
	</g>
</g>
<g id="Layer_1_1_">
</g>
</svg>
