<?xml version="1.0" encoding="utf-8"?>
<!-- Generator: Adobe Illustrator 18.0.0, SVG Export Plug-In . SVG Version: 6.00 Build 0)  -->
<!DOCTYPE svg PUBLIC "-//W3C//DTD SVG 1.1//EN" "http://www.w3.org/Graphics/SVG/1.1/DTD/svg11.dtd">
<svg version="1.1" id="Layer_1" xmlns="http://www.w3.org/2000/svg" xmlns:xlink="http://www.w3.org/1999/xlink" x="0px" y="0px"
	 viewBox="-795.4 -138.9 7642.9 302.2" enable-background="new -795.4 -138.9 7642.9 302.2" xml:space="preserve">
<g id="NIGHTMOUNTAINS">
	<polygon fill="#30647E" points="6798,-43.4 6780.6,-34.7 6777.2,-18 6730.9,-12 6725.2,12.2 6688.4,13.1 6676.8,38 6654.6,51.9 
		6646,35.4 6623.2,26.5 6599.8,42.8 6590.4,39.8 6560.2,19.8 6560.2,11.9 6537.6,-15.2 6528,1.2 6510.8,-8.5 6479.3,-21.8 
		6467.6,-34.7 6422.6,-22.1 6370.3,2.8 6358.6,9.9 6341,4.3 6335.6,5.2 6334.9,4 6329.6,6.1 6317.6,8.1 6292.2,-25.4 6277.3,-19.9 
		6248.4,-51.8 6228.6,-14.9 6214.5,-19.9 6179.2,20.5 6173.7,20.5 6156.7,38.5 6139.8,9.1 6120.7,39.6 6109.2,30.1 6097.7,46.3 
		6088.1,40.7 6068,12.2 6049.8,-10 6013.4,-34.7 6001.6,-12 5986.8,-12 5964.2,15.4 5920.1,17.7 5897,1.3 5873.7,15.4 5805.7,-16.9 
		5798.6,-11.3 5793.4,-16.9 5788.3,-8.5 5762.9,-1.5 5748.1,-16.9 5701.8,-56.5 5689.1,-34.7 5667.6,-29 5656.2,-8.5 5632.8,10.5 
		5616.2,-9.7 5586.8,15.4 5575.3,1 5569,7.6 5565.5,14.5 5560.8,7.6 5552.3,1 5538.3,14.1 5537.1,12.2 5533.7,13.4 5497.3,-9.7 
		5475,10.5 5443.6,-8.5 5428.3,-29 5399.3,-34.7 5382.3,-56.5 5320,-16.9 5300.1,-1.5 5265.9,-8.5 5259.1,-16.9 5252.4,-11.5 
		5252.2,-12 5241.2,-12 5232.4,-34.7 5205.3,-10 5191.7,12.2 5191.2,13.3 5190.8,13.1 5157.1,40.7 5132.9,31.2 5122.9,47.7 
		5120.4,47.5 5104.5,20.8 5073.1,27.5 5065.2,20.8 4988.7,4.3 4975.6,9.9 4966.9,2.8 4928,-22.1 4894.6,-34.7 4885.9,-21.8 
		4862.5,-8.5 4829.3,16.7 4812.3,31.7 4793.3,9.1 4779.4,27 4778.8,26.5 4764.7,33.9 4747.7,20.5 4740.3,20.5 4692.9,-19.9 
		4677.2,-15.7 4672.8,-16.5 4662.4,-30.9 4661.8,-34.7 4657.6,-37.5 4647.3,-51.8 4643.6,-48.8 4612,-81.2 4585.8,-61 4557.9,4.5 
		4552,10.3 4531,4 4510,10.3 4473.5,-25.4 4453.5,-19.9 4441.8,-29.5 4402.8,-93.4 4375.9,-62.1 4371.1,-28.2 4356.6,-45 
		4342.9,-34.1 4337.5,-16.8 4313.5,-20 4307.1,24 4302.1,30.2 4291.4,38.5 4268.7,9.1 4248.8,32.8 4184.8,-61 4158.7,-81.2 
		4121.8,-43.4 4108.8,-34.7 4106.3,-18 4071.9,-12 4067.7,12.2 4040.2,13.1 4031.6,38 4015.1,51.9 4008.7,35.4 3991.8,26.5 
		3974.4,42.8 3967.4,39.8 3941.3,16.7 3908.1,-8.5 3884.7,-21.8 3876,-34.7 3842.6,-22.1 3816.9,-5.7 3802.9,-16.9 3796.1,-8.5 
		3761.9,-1.5 3742,-16.9 3679.7,-56.5 3662.7,-34.7 3633.7,-29 3618.4,-8.5 3587,10.5 3566.6,-8 3565.3,-10 3538.2,-34.7 
		3529.4,-12 3518.4,-12 3510.2,1.5 3509.7,1 3501.2,7.6 3495.6,15.8 3468.8,17.7 3451.7,1.3 3434.4,15.4 3383.8,-16.9 3369.6,-1.9 
		3362.5,15.4 3349.7,10.5 3334.8,47.8 3329.4,48.8 3321.7,47 3302.1,10.5 3284.9,15.4 3275.3,-1.9 3256.3,-16.9 3202.2,8.8 
		3201.6,7.6 3195.3,1 3185.3,13.6 3173.1,6.2 3154.4,-9.7 3137.8,10.5 3114.5,-8.5 3103,-29 3081.5,-34.7 3068.8,-56.5 
		3023.4,-17.6 3012.2,-10 3005.6,-2.1 2982.3,-8.5 2977.2,-16.9 2940.9,22.2 2926.5,13.1 2901.4,40.7 2886.2,32.7 2876.7,20.8 
		2834.4,27.5 2823.8,20.8 2721,4.3 2703.4,9.9 2691.7,2.8 2639.3,-22.1 2594.4,-34.7 2582.7,-21.8 2562.1,-13.1 2556.1,-19.9 
		2542,-14.9 2522.2,-51.8 2493.3,-19.9 2478.4,-25.4 2451.3,10.3 2435.7,4 2416.7,35.1 2416,35.4 2413.1,40.9 2406.7,51.5 
		2385.2,38 2373.6,13.1 2336.8,12.2 2331.1,-12 2284.8,-18 2281.4,-34.7 2264,-43.4 2214.4,-81.2 2186.3,-138.9 2151.2,-108.1 
		2128.7,-42.3 2097.7,-12 2092,12.2 2055.2,13.1 2043.6,38 2021.4,51.9 2012.8,35.4 2001.7,31.1 1985.2,4 1969.6,10.3 1942.5,-25.4 
		1927.6,-19.9 1898.7,-51.8 1878.9,-14.9 1864.8,-19.9 1861,-15.5 1846.1,-21.8 1834.4,-34.7 1789.5,-22.1 1737.1,2.8 1725.4,9.9 
		1707.8,4.3 1605,20.8 1594.4,27.5 1552.2,20.8 1539.8,36.2 1537.5,31.2 1519.5,40.7 1494.4,13.1 1480,22.2 1443.6,-16.9 
		1438.6,-8.5 1421.7,-3.9 1416.7,-10 1380.2,-34.7 1379.4,-33.1 1352.1,-56.5 1339.4,-34.7 1317.9,-29 1306.4,-8.5 1283.1,10.5 
		1266.5,-9.7 1238.3,14.3 1234.9,12.7 1225.6,1 1220.8,6 1172.5,-16.9 1153.5,-1.9 1143.9,15.4 1126.7,10.5 1108.2,44.9 1094.9,48 
		1085.5,46.4 1071.2,10.5 1058.4,15.4 1051.2,-1.9 1037.1,-16.9 986.5,15.4 969.2,1.3 952.1,17.7 933.6,16.4 927.6,7.6 919.1,1 
		913.6,6.2 902.4,-12 891.5,-12 882.7,-34.7 855.6,-10 844.6,8 841.8,10.5 810.4,-8.5 795.1,-29 766.1,-34.7 749.1,-56.5 
		686.8,-16.9 666.9,-1.5 632.7,-8.5 625.9,-16.9 608.4,-2.9 578.3,-22.1 544.9,-34.7 536.2,-21.8 512.7,-8.5 479.6,16.7 453.5,39.8 
		446.5,42.8 429.1,26.5 412.2,35.4 405.8,51.9 389.3,38 380.6,13.1 353.2,12.2 349,-12 314.6,-18 312.1,-34.7 299.1,-43.4 
		262.2,-81.2 236,-61 181.7,34.8 160.1,9.1 137.4,38.5 128.6,31.6 124.5,26.7 104.7,6.9 95.1,10.3 84.9,1.6 82.1,-15.2 80.5,-45 
		66,-28.2 61.1,-62.1 34.2,-93.4 3.5,-43.1 -24.7,-19.9 -44.7,-25.4 -81.2,10.3 -102.2,4 -114.7,19.2 -148.7,-61 -174.9,-81.2 
		-211.8,-43.4 -224.8,-34.7 -227.3,-18 -261.7,-12 -265.9,12.2 -293.3,13.1 -302,38 -318.5,51.9 -324.9,35.4 -341.8,26.5 
		-359.2,42.8 -366.2,39.8 -392.3,16.7 -425.4,-8.5 -448.9,-21.8 -457.6,-34.7 -491,-22.1 -529.9,2.8 -538.6,9.9 -551.7,4.3 
		-628.2,20.8 -636.1,27.5 -667.5,20.8 -683.4,47.5 -726.5,51.1 -739.8,40.7 -754.7,12.2 -768.3,-10 -795.4,-34.7 -795.4,163.3 
		-233.1,163.3 2210.4,163.3 2214.4,163.3 6560.2,163.3 6847.6,163.3 6847.6,-81.2 	"/>
</g>
<g id="Layer_1_1_">
</g>
</svg>
