<?xml version="1.0" encoding="utf-8"?>
<!-- Generator: Adobe Illustrator 18.0.0, SVG Export Plug-In . SVG Version: 6.00 Build 0)  -->
<!DOCTYPE svg PUBLIC "-//W3C//DTD SVG 1.1//EN" "http://www.w3.org/Graphics/SVG/1.1/DTD/svg11.dtd">
<svg version="1.1" id="Layer_1" xmlns="http://www.w3.org/2000/svg" xmlns:xlink="http://www.w3.org/1999/xlink" x="0px" y="0px"
	 viewBox="0 29.8 150 201.1" enable-background="new 0 29.8 150 201.1" xml:space="preserve">
<g id="PEGMAN-CHUTE">
	<g>
		<path fill="#FCD03F" d="M62.2,193l-3.4,5.3c-0.3,0.5-0.1,1.3,0.5,1.6l1.6,1c0.6,0.4,1.4,0.2,1.7-0.3l7.1-7.6L62.2,193L62.2,193z"
			/>
		<path fill="#FCD03F" d="M90.7,193h-7.4l7.1,7.6c0.3,0.5,1.1,0.7,1.7,0.3l1.6-1c0.6-0.4,0.8-1.1,0.5-1.6L90.7,193z"/>
		<path fill="none" stroke="#CBEBE9" stroke-miterlimit="10" d="M74.9,190.1C73.8,190.3,1.8,86.7,1.8,86.7"/>
		<path fill="none" stroke="#CBEBE9" stroke-miterlimit="10" d="M75.1,190.1c1.2,0.2,73.2-103.4,73.2-103.4"/>
		<path fill="none" stroke="#CBEBE9" stroke-miterlimit="10" d="M75,190.1c-0.5,0.2-28.7-103.4-28.7-103.4"/>
		<path fill="none" stroke="#CBEBE9" stroke-miterlimit="10" d="M75,190.1c0.5,0.2,28.7-103.4,28.7-103.4"/>
		<path fill="#DE4A3F" d="M150,85.9H0c0-31.3,33.6-56.1,75-56.1S150,54.7,150,85.9z"/>
		<path fill="#FFFFFF" d="M135.2,85.9H14.8c0-31.3,27-56.1,60.2-56.1S135.2,54.7,135.2,85.9z"/>
		<path fill="#DE4A3F" d="M102.4,85.9H47.6c0-31.3,12.3-56.1,27.4-56.1S102.4,54.7,102.4,85.9z"/>
		<path fill="#ECDEC9" d="M0.9,86.7"/>
		<g>
			<polygon fill="#FCD03F" points="75.4,230.9 67.5,230.9 67,206.1 76.7,206.1 			"/>
			<polygon fill="#FCD03F" points="78.1,231 86,230.9 86.2,206.1 76.4,206.1 			"/>
			<rect x="67" y="183.8" fill="#59634A" width="18.9" height="15.2"/>
			<polygon fill="#F0A42C" points="88.7,185.4 86.6,184 66.6,184 64.2,185.4 			"/>
			<g>
				<path fill="none" stroke="#CBEBE9" stroke-miterlimit="10" d="M74.9,190.1"/>
				<path fill="none" stroke="#CBEBE9" stroke-miterlimit="10" d="M75.1,190.1"/>
				<path fill="none" stroke="#CBEBE9" stroke-miterlimit="10" d="M75,190.1"/>
				<path fill="none" stroke="#CBEBE9" stroke-miterlimit="10" d="M75,190.1"/>
			</g>
			<polygon fill="#FCD03F" points="88.8,185.4 64.2,185.4 66.3,208.9 66.3,209.3 67.6,213.2 86.6,212.4 88.8,187.6 			"/>
			<polygon fill="#59634A" points="91.3,185.8 87.2,184.5 86.6,186.2 87.3,189.3 87.3,195.4 88.7,195.4 			"/>
			<polygon fill="#59634A" points="61.6,185.8 65.7,184.5 66.6,186.2 66,189.3 66,195.4 64.2,195.4 			"/>
			<polygon fill="#3C472A" points="61.6,186.2 66.4,183.9 68.6,184.1 66.4,186.3 			"/>
			<path fill="#FCD03F" d="M89.4,190.2c0.1,0.6-1.3,7.2-1.6,7.1c2.1,0.3,4.2,0.6,6.4,0.8c-0.1-1.5-0.2-3-0.3-4.5
				c-0.1-1.4,0.3-5.5-1.1-6.1c-0.5-0.2-1.1-0.2-1.7-0.1c-0.5,0-1,0.1-1.5,0.3c-0.5,0.2-0.9,0.5-1.1,1c-0.2,0.5-0.1,1.2,0.4,1.5
				C89,190.2,89.2,190.2,89.4,190.2z"/>
			<path fill="#FCD03F" d="M63.5,190.2c-0.1,0.6,1.3,7.2,1.6,7.1c-2.1,0.3-4.2,0.6-6.4,0.8c0.1-1.5,0.2-3,0.3-4.5
				c0.1-1.4-0.3-5.5,1.1-6.1c0.5-0.2,1.1-0.2,1.7-0.1c0.5,0,1,0.1,1.5,0.3c0.5,0.2,0.9,0.5,1.1,1c0.2,0.5,0.1,1.2-0.4,1.5
				C63.9,190.2,63.7,190.2,63.5,190.2z"/>
			<polygon fill="#3C472A" points="91.3,186.2 86.5,183.9 84.3,184.1 86.5,186.3 			"/>
		</g>
		<circle fill="#FCD03F" cx="77" cy="170.7" r="13"/>
		<path fill="#F6B12D" d="M72.5,182.3c7.1,1.4,14.2-3.4,15.5-10.6c0.8-4.3-0.6-8.5-3.4-11.5c3.2,2.3,5.3,6.1,5.3,10.4
			c0.1,7.2-5.7,13.1-12.9,13.1c-2.9,0-5.6-0.9-7.8-2.5C70.3,181.7,71.4,182.1,72.5,182.3z"/>
		<g>
			
				<ellipse transform="matrix(7.099833e-02 0.9975 -0.9975 7.099833e-02 199.2457 46.1192)" fill="#F1F1F1" cx="74.9" cy="130" rx="3.8" ry="3.9"/>
		</g>
		<g>
			<path fill="#FFFFFF" d="M76.2,128.3c0,0.2,0,0.3,0,0.5c-0.2,0.2-0.4,0.4-0.6,0.6c-0.5,0.3-1,0.5-1.6,0.8c-1,0.3-1.9,0.5-2.9,0.7
				c0-0.2-0.1-0.3-0.1-0.5c-0.2-2.1,1.5-4,3.6-4.1c0.4,0,0.9,0,1.3,0.1C76,127,76.1,127.6,76.2,128.3z"/>
		</g>
		<g>
			<path fill="#DE4A3F" d="M64.6,160.7c3.5-1.2,7.2-2,11.1-2.6c3.9,0.3,7.7,1,11.3,2c-0.7-4.6-1.4-9.1-2.9-12.6
				c-2.6-6.1-7.3-16.5-9.2-16.7l0,0c0,0-0.1,0-0.1,0c0,0-0.1,0-0.1,0l0,0c-1.9,0.3-5.9,11-8,17.2C65.3,151.5,65,156,64.6,160.7z"/>
		</g>
		<g>
			<path fill="#DE4A3F" d="M75.7,158.1c3.9,0.3,7.7,1,11.3,2c-0.7-4.6-1.4-9.1-2.9-12.6c-2.6-6.1-7.3-16.5-9.2-16.7l0,0
				c0,0-0.1,0-0.1,0c0,0-0.1,0-0.1,0l0,0C84.5,149.9,71.8,158.6,75.7,158.1z"/>
		</g>
		<path fill="#F6B12D" d="M88.7,165c-8.1-1.6-16.3-1.2-24,0.9c0.7-4.2,3.6-7.9,7.9-9.5c6.4-2.4,13.5,0.9,15.9,7.3
			c0.2,0.5,0.3,0.9,0.4,1.4C88.8,165,88.8,165,88.7,165z"/>
		<g>
			<path fill="#FFFFFF" d="M61.6,164.5c0.1,1.1,0.9,1.6,1.8,1.3c7.6-2.5,16.2-3.4,25.1-2.3c1.1,0.1,1.9-0.5,1.9-1.4
				c-0.1-1.5-0.2-3.1-0.2-4.6c0-0.9-1-1.8-2.1-2c-9-1.4-17.7-0.9-25.5,1.3c-0.9,0.3-1.6,1.4-1.5,2.4C61.3,161,61.5,162.7,61.6,164.5
				z"/>
		</g>
		<g>
			<path fill="#F1F1F1" d="M84.1,155.7c-0.1-0.1-0.2-0.2-0.3-0.3c0,0,0,0,0,0c0,0,0,0,0,0c-0.1-0.2,0-0.5,0.3-0.5
				c1.4,0.1,2.7,0.3,4.1,0.6c1,0.2,2,1.1,2,2.1c0.1,1.6,0.2,3.2,0.3,4.8c0.1,1-0.7,1.6-1.8,1.4c-0.4-0.1-0.8-0.1-1.2-0.2
				c-0.1,0-0.3-0.1-0.3-0.3C87.1,160.4,85.9,157.9,84.1,155.7z"/>
		</g>
		<polygon fill="#E58A2F" points="70.4,186.2 82.5,186.2 76.7,196.4 		"/>
		<path opacity="0.15" enable-background="new    " d="M125.2,86.7H150c0-28.1-27.1-50.9-62.5-55.3
			C107.3,43.1,121.6,63.3,125.2,86.7z"/>
	</g>
</g>
<g id="Layer_1_1_">
</g>
</svg>
