<?xml version="1.0" encoding="utf-8"?>
<!-- Generator: Adobe Illustrator 18.0.0, SVG Export Plug-In . SVG Version: 6.00 Build 0)  -->
<!DOCTYPE svg PUBLIC "-//W3C//DTD SVG 1.1//EN" "http://www.w3.org/Graphics/SVG/1.1/DTD/svg11.dtd">
<svg version="1.1" id="Layer_1" xmlns="http://www.w3.org/2000/svg" xmlns:xlink="http://www.w3.org/1999/xlink" x="0px" y="0px"
	 viewBox="4.5 0 142.2 261.6" enable-background="new 4.5 0 142.2 261.6" xml:space="preserve">
<g id="PEGMAN-DIVE">
	<g>
		<polygon fill="#3C472A" points="115.7,238.1 104.6,220.1 99.5,220.1 104.4,244.2 107,244.2 		"/>
		<polygon fill="#3C472A" points="41.6,238.1 52.7,220.1 57.8,220.1 52.8,244.2 50.2,244.2 		"/>
		<path fill="#FCD03F" d="M10.6,207l2.4-3.8c0.9-1.4,2.7-1.8,4-1l15.3,15.4l20.2,1.2c4,0.2,7,3.5,6.9,7.5l-0.4,8.9
			c-0.1,1.6-1.4,2.8-2.9,2.7L22,230l-10.7-18.8C10,210.2,9.7,208.4,10.6,207z"/>
		<path fill="#F0A42C" d="M52.9,235.3l1.4-3.5c0.6-1.5-20.4-0.6-20.4-0.6l-1.9,1.3l18.6,3.6C51.7,236.3,52.7,235.9,52.9,235.3z"/>
		<path fill="#FCD03F" d="M146.2,207l-2.4-3.8c-0.9-1.4-2.7-1.8-4-1l-15.3,15.4l-20.2,1.2c-4,0.2-7,3.5-6.9,7.5l0.4,8.9
			c0.1,1.6,1.4,2.8,2.9,2.7l34.1-7.9l10.7-18.8C146.8,210.2,147.1,208.4,146.2,207z"/>
		<path fill="#F0A42C" d="M105,235.4l-1.5-3.5c-0.6-1.5,20.4-0.8,20.4-0.8l1.9,1.3l-18.6,3.8C106.3,236.4,105.2,236,105,235.4z"/>
		<polygon fill="#E39F00" points="78.3,258.2 63.6,258.1 55.3,236.4 78.9,236.6 		"/>
		<polygon fill="#E39F00" points="97.6,261.6 82.9,261.5 78.8,230.1 102.4,230.3 		"/>
		<polygon fill="#E39F00" points="107.8,237.3 48.4,237.3 59.3,251.4 99.8,249.6 		"/>
		<polygon fill="#F0A42C" points="107.8,237.3 102.7,220.1 54.4,220.1 48.4,237.3 		"/>
		<polygon fill="#59634A" points="115.7,237.3 104.6,216.7 99.5,216.7 106.8,237.3 		"/>
		<polygon fill="#59634A" points="41.6,237.3 52.7,216.7 57.8,216.7 50.5,237.3 		"/>
		<circle fill="#FCD03F" cx="79.5" cy="198.7" r="31.5"/>
		<circle fill="#FCD03F" cx="79.5" cy="198.7" r="31.5"/>
		<path fill="#F6B12D" d="M68.6,226.7c17.2,3.3,34.3-8.3,37.6-25.6c2-10.3-1.4-20.6-8.1-27.8c7.8,5.7,12.8,14.8,12.9,25.2
			c0.1,17.4-13.9,31.6-31.3,31.8c-7.1,0.1-13.7-2.2-19-6.2C63.2,225.3,65.9,226.2,68.6,226.7z"/>
		<g>
			
				<ellipse transform="matrix(7.099833e-02 0.9975 -0.9975 7.099833e-02 169.0216 18.9639)" fill="#F1F1F1" cx="74.3" cy="100.2" rx="9.3" ry="9.5"/>
		</g>
		<g>
			<path fill="#FFFFFF" d="M77.5,96c0,0.4,0,0.8,0,1.3c-0.5,0.5-1,0.9-1.5,1.4c-1.2,0.7-2.5,1.3-3.8,1.8c-2.3,0.6-4.7,1.2-7.1,1.6
				c-0.1-0.4-0.1-0.8-0.2-1.2c-0.4-5.1,3.6-9.6,8.8-9.9c1.1-0.1,2.1,0,3,0.3C77,92.8,77.3,94.4,77.5,96z"/>
		</g>
		<g>
			<path fill="#DE4A3F" d="M49.5,174.3c8.4-2.9,17.4-5,26.9-6.2c9.5,0.7,18.7,2.3,27.3,4.7c-1.7-11.2-3.3-21.9-7-30.5
				c-6.2-14.7-17.7-40-22.4-40.4l0,0c-0.1,0-0.2-0.1-0.3-0.1c-0.1,0-0.2,0-0.3,0.1l0,0c-4.6,0.6-14.2,26.5-19.4,41.5
				C51.2,152.3,50.4,163.1,49.5,174.3z"/>
		</g>
		<g>
			<path fill="#DE4A3F" d="M49.5,174.3c8.4-2.9,17.4-5,26.9-6.2c9.5,0.7,18.7,2.3,27.3,4.7c-1.7-11.2-3.3-21.9-7-30.5
				c-6.2-14.7-17.7-40-22.4-40.4l0,0c-0.1,0-0.2-0.1-0.3-0.1c-0.1,0-0.2,0-0.3,0.1l0,0c-4.6,0.6-14.2,26.5-19.4,41.5
				C51.2,152.3,50.4,163.1,49.5,174.3z"/>
		</g>
		<g>
			<path fill="#DE4A3F" d="M76.4,168.2c9.5,0.7,18.7,2.3,27.3,4.7c-1.7-11.2-3.3-21.9-7-30.5c-6.2-14.7-17.7-40-22.4-40.4l0,0
				c-0.1,0-0.2-0.1-0.3-0.1c-0.1,0-0.2,0-0.3,0.1l0,0C97.6,148.3,66.9,169.4,76.4,168.2z"/>
		</g>
		<path fill="#F6B12D" d="M107.8,184.8c-19.6-3.8-39.4-3-58,2.1c1.8-10.1,8.7-19.1,19-22.9c15.5-5.8,32.7,2.1,38.5,17.6
			c0.4,1.1,0.7,2.2,1,3.3C108.1,184.8,108,184.8,107.8,184.8z"/>
		<g>
			<path fill="#FFFFFF" d="M42.3,183.7c0.2,2.6,2.2,4,4.4,3.3c18.4-6.1,39.2-8.2,60.8-5.7c2.6,0.3,4.6-1.2,4.5-3.4
				c-0.2-3.7-0.4-7.4-0.6-11.1c-0.1-2.2-2.4-4.4-5-4.8c-21.8-3.4-42.9-2.2-61.7,3.2c-2.3,0.6-3.9,3.3-3.6,5.8
				C41.5,175.1,41.9,179.4,42.3,183.7z"/>
		</g>
		<g>
			<path fill="#F1F1F1" d="M96.7,162.4c-0.2-0.3-0.4-0.5-0.6-0.8c0,0,0-0.1-0.1-0.1c0,0,0,0,0,0c-0.3-0.5,0.1-1.2,0.7-1.1
				c3.3,0.3,6.6,0.8,9.9,1.3c2.5,0.4,4.7,2.8,4.9,5.1c0.3,3.8,0.5,7.7,0.8,11.5c0.2,2.3-1.8,3.8-4.3,3.4c-1-0.1-2-0.3-2.9-0.4
				c-0.4,0-0.6-0.3-0.6-0.7C103.9,173.8,101.2,167.6,96.7,162.4z"/>
		</g>
		<polygon fill="#DB6E00" points="63.6,236.1 92.9,236.2 78.9,247 		"/>
		<line fill="none" stroke="#F1F1F1" stroke-miterlimit="10" x1="19.9" y1="49.3" x2="21.1" y2="181.7"/>
		<line fill="none" stroke="#F1F1F1" stroke-miterlimit="10" x1="125.8" y1="0" x2="125.8" y2="109.5"/>
		<line fill="none" stroke="#F1F1F1" stroke-miterlimit="10" x1="138" y1="115.5" x2="135.7" y2="188.4"/>
		<line fill="none" stroke="#F1F1F1" stroke-miterlimit="10" x1="135.7" y1="14.9" x2="135.7" y2="79.7"/>
		<line fill="none" stroke="#F1F1F1" stroke-miterlimit="10" x1="5" y1="131.7" x2="5" y2="196.6"/>
	</g>
</g>
<g id="Layer_1_1_">
</g>
</svg>
