<svg xmlns="http://www.w3.org/2000/svg" xmlns:xlink="http://www.w3.org/1999/xlink" version="1.1" id="Layer_1" x="0px" y="0px" viewBox="0 0 154.407 58.618" style="enable-background:new 0 0 154.407 58.618;" xml:space="preserve"><symbol id="New_Symbol_52" viewBox="-7.171 -7.171 14.342 14.342"><path style="fill:#2C3138;stroke:#737373;stroke-width:1.2839;stroke-miterlimit:10;" d="M5.871 0.329c0-3.4-2.8-6.2-6.2-6.2 s-6.2 2.8-6.2 6.2s2.8 6.2 6.2 6.2S5.871 3.729 5.871 0.329z"/><path style="opacity:0.28;fill:#231F20;stroke:#231F20;stroke-miterlimit:10;enable-background:new    ;" d="M6.671-0.471 c0-3.4-2.8-6.2-6.2-6.2s-6.2 2.8-6.2 6.2s2.8 6.2 6.2 6.2S6.671 2.929 6.671-0.471z"/><path style="fill:#5C6066;" d="M4.071 0.329c0-2.4-2-4.4-4.4-4.4s-4.4 2-4.4 4.4s2 4.4 4.4 4.4S4.071 2.729 4.071 0.329z"/><path style="opacity:0.12;fill:none;stroke:#5C6066;stroke-width:0.25;stroke-miterlimit:10;enable-background:new    ;" d=" M3.471 0.329c0-2.1-1.7-3.8-3.8-3.8s-3.8 1.7-3.8 3.8s1.7 3.8 3.8 3.8S3.471 2.429 3.471 0.329z"/><path style="opacity:0.12;fill:none;stroke:#5C6066;stroke-width:0.2131;stroke-miterlimit:10;enable-background:new    ;" d=" M2.871 0.329c0-1.8-1.4-3.2-3.2-3.2s-3.2 1.4-3.2 3.2s1.4 3.2 3.2 3.2S2.871 2.129 2.871 0.329z"/><path style="opacity:0.12;fill:none;stroke:#5C6066;stroke-width:0.1776;stroke-miterlimit:10;enable-background:new    ;" d=" M2.371 0.329c0-1.5-1.2-2.7-2.7-2.7s-2.7 1.2-2.7 2.7s1.2 2.7 2.7 2.7S2.371 1.829 2.371 0.329z"/><linearGradient id="SVGID_2_" gradientUnits="userSpaceOnUse" x1="-3332.932" y1="-4435.358" x2="-3329.389" y2="-4435.358" gradientTransform="matrix(0.9706 -0.2408 0.2408 0.9706 4300.96 3503.137)"><stop offset="0" style="stop-color:#FFFFFF"/><stop offset="1" style="stop-color:#231F20"/></linearGradient><path style="opacity:0.25;fill:url(#SVGID_2_);enable-background:new    ;" d="M1.371-0.071c-0.2-1-1.2-1.6-2.1-1.3 s-1.6 1.2-1.3 2.1s1.2 1.6 2.1 1.3S1.671 0.829 1.371-0.071z"/></symbol><g><g><g><rect x="2.021" y="0" style="fill:#413D3E;" width="10.294" height="50.383"/><polygon style="opacity:0.19;fill:#666767;enable-background:new    ;" points="2.021,50.383 2.021,0.487 10.743,0.487"/><use xlink:href="#New_Symbol_52" width="14.342" height="14.342" x="-7.171" y="-7.171" transform="matrix(0.6099 0 0 -0.6099 7.3742 14.9028)" style="overflow:visible;"/><use xlink:href="#New_Symbol_52" width="14.342" height="14.342" x="-7.171" y="-7.171" transform="matrix(0.6099 0 0 -0.6099 7.3742 25.5265)" style="overflow:visible;"/><use xlink:href="#New_Symbol_52" width="14.342" height="14.342" x="-7.171" y="-7.171" transform="matrix(0.6099 0 0 -0.6099 7.3742 36.2576)" style="overflow:visible;"/><rect x="3.556" y="0" style="fill:#737373;" width="7.187" height="7.299"/><use xlink:href="#New_Symbol_52" width="14.342" height="14.342" x="-7.171" y="-7.171" transform="matrix(0.3573 0 0 -0.2756 7.2855 4.3071)" style="overflow:visible;"/><rect x="3.556" y="42.972" style="fill:#737373;" width="7.187" height="7.299"/><use xlink:href="#New_Symbol_52" width="14.342" height="14.342" x="-7.171" y="-7.171" transform="matrix(0.3573 0 0 -0.2756 7.2855 47.2914)" style="overflow:visible;"/></g><g><g><defs><rect id="SVGID_3_" y="50.72" width="154.407" height="7.898"/></defs><clipPath id="SVGID_4_"><use xlink:href="#SVGID_3_" style="overflow:visible;"/></clipPath><g style="clip-path:url(#SVGID_4_);"><rect x="77.072" y="51.132" style="fill:none;stroke:#919191;stroke-width:1.6629;stroke-miterlimit:10;" width="127.905" height="0.749"/><rect x="77.072" y="51.506" style="fill:none;stroke:#919191;stroke-width:1.6629;stroke-miterlimit:10;" width="127.905" height="2.995"/><rect x="77.072" y="57.046" style="fill:none;stroke:#919191;stroke-width:1.6629;stroke-miterlimit:10;" width="127.905" height="0.936"/><rect x="77.072" y="51.132" style="fill:none;stroke:#919191;stroke-width:1.6629;stroke-miterlimit:10;" width="127.905" height="0.749"/><rect x="77.072" y="51.806" style="fill:none;stroke:#919191;stroke-width:1.6629;stroke-miterlimit:10;" width="127.905" height="0.749"/><polyline style="fill:none;stroke:#919191;stroke-width:1.6629;stroke-miterlimit:10;" points="76.249,54.651 82.725,56.934 89.163,54.651 95.601,56.934 102.039,54.651 108.478,56.934 114.916,54.651 121.354,56.934 127.793,54.651 134.231,56.934 140.707,54.651 147.145,56.934 153.583,54.651 160.022,56.934 166.46,54.651 172.898,56.934 179.336,54.651 185.775,56.934 192.25,54.651 198.689,56.934 205.127,54.651"/><rect x="-50.72" y="51.132" style="fill:none;stroke:#919191;stroke-width:1.6629;stroke-miterlimit:10;" width="127.905" height="0.749"/><rect x="-50.72" y="51.506" style="fill:none;stroke:#919191;stroke-width:1.6629;stroke-miterlimit:10;" width="127.905" height="2.995"/><rect x="-50.72" y="57.046" style="fill:none;stroke:#919191;stroke-width:1.6629;stroke-miterlimit:10;" width="127.905" height="0.936"/><rect x="-50.72" y="51.132" style="fill:none;stroke:#919191;stroke-width:1.6629;stroke-miterlimit:10;" width="127.905" height="0.749"/><rect x="-50.72" y="51.806" style="fill:none;stroke:#919191;stroke-width:1.6629;stroke-miterlimit:10;" width="127.905" height="0.749"/><polyline style="fill:none;stroke:#919191;stroke-width:1.6629;stroke-miterlimit:10;" points="-50.72,54.651 -44.282,56.934 -37.806,54.651 -31.368,56.934 -24.93,54.651 -18.491,56.934 -12.053,54.651 -5.615,56.934 0.824,54.651 7.262,56.934 13.7,54.651 20.176,56.934 26.614,54.651 33.052,56.934 39.491,54.651 45.929,56.934 52.367,54.651 58.806,56.934 65.244,54.651 71.72,56.934 78.158,54.651"/></g></g><g><defs><rect id="SVGID_5_" y="50.72" width="154.407" height="7.898"/></defs><clipPath id="SVGID_6_"><use xlink:href="#SVGID_5_" style="overflow:visible;"/></clipPath><defs><filter id="Adobe_OpacityMaskFilter" filterUnits="userSpaceOnUse" x="-51.552" y="50.301" width="257.361" height="8.513"><feColorMatrix type="matrix" values="1 0 0 0 0  0 1 0 0 0  0 0 1 0 0  0 0 0 1 0"/></filter></defs><mask maskUnits="userSpaceOnUse" x="-51.552" y="50.301" width="257.361" height="8.513" id="SVGID_1_"><g style="filter:url(#Adobe_OpacityMaskFilter);"><g><defs><rect id="SVGID_7_" y="50.72" width="154.407" height="7.898"/></defs><clipPath id="SVGID_8_" style="clip-path:url(#SVGID_6_);"><use xlink:href="#SVGID_7_" style="overflow:visible;"/></clipPath><polygon style="clip-path:url(#SVGID_8_);fill:#919191;" points="-52.143,52.143 196.443,56.298 208.683,55.886 208.683,50.309"/></g></g></mask><g style="clip-path:url(#SVGID_6_);mask:url(#SVGID_1_);"><rect x="77.072" y="51.132" style="fill:none;stroke:#919191;stroke-width:1.6629;stroke-miterlimit:10;" width="127.905" height="0.749"/><rect x="77.072" y="51.506" style="fill:none;stroke:#919191;stroke-width:1.6629;stroke-miterlimit:10;" width="127.905" height="2.995"/><rect x="77.072" y="57.046" style="fill:none;stroke:#919191;stroke-width:1.6629;stroke-miterlimit:10;" width="127.905" height="0.936"/><rect x="77.072" y="51.132" style="fill:none;stroke:#919191;stroke-width:1.6629;stroke-miterlimit:10;" width="127.905" height="0.749"/><rect x="77.072" y="51.806" style="fill:none;stroke:#919191;stroke-width:1.6629;stroke-miterlimit:10;" width="127.905" height="0.749"/><polyline style="fill:none;stroke:#919191;stroke-width:1.6629;stroke-miterlimit:10;" points="76.249,54.651 82.725,56.934 89.163,54.651 95.601,56.934 102.039,54.651 108.478,56.934 114.916,54.651 121.354,56.934 127.793,54.651 134.231,56.934 140.707,54.651 147.145,56.934 153.583,54.651 160.022,56.934 166.46,54.651 172.898,56.934 179.336,54.651 185.775,56.934 192.25,54.651 198.689,56.934 205.127,54.651"/><rect x="-50.72" y="51.132" style="fill:none;stroke:#919191;stroke-width:1.6629;stroke-miterlimit:10;" width="127.905" height="0.749"/><rect x="-50.72" y="51.506" style="fill:none;stroke:#919191;stroke-width:1.6629;stroke-miterlimit:10;" width="127.905" height="2.995"/><rect x="-50.72" y="57.046" style="fill:none;stroke:#919191;stroke-width:1.6629;stroke-miterlimit:10;" width="127.905" height="0.936"/><rect x="-50.72" y="51.132" style="fill:none;stroke:#919191;stroke-width:1.6629;stroke-miterlimit:10;" width="127.905" height="0.749"/><rect x="-50.72" y="51.806" style="fill:none;stroke:#919191;stroke-width:1.6629;stroke-miterlimit:10;" width="127.905" height="0.749"/><polyline style="fill:none;stroke:#919191;stroke-width:1.6629;stroke-miterlimit:10;" points="-50.72,54.651 -44.282,56.934 -37.806,54.651 -31.368,56.934 -24.93,54.651 -18.491,56.934 -12.053,54.651 -5.615,56.934 0.824,54.651 7.262,56.934 13.7,54.651 20.176,56.934 26.614,54.651 33.052,56.934 39.491,54.651 45.929,56.934 52.367,54.651 58.806,56.934 65.244,54.651 71.72,56.934 78.158,54.651"/></g></g><g><defs><rect id="SVGID_9_" y="50.72" width="154.407" height="7.898"/></defs><clipPath id="SVGID_10_"><use xlink:href="#SVGID_9_" style="overflow:visible;"/></clipPath><polygon style="opacity:0.2;clip-path:url(#SVGID_10_);fill:#231F20;enable-background:new    ;" points="154.407,54.201 0,52.03 0,50.72 154.407,50.72"/></g></g><rect y="50.234" style="fill:#737373;" width="154.407" height="1.31"/><g><circle style="fill:#FDE08C;" cx="111.061" cy="47.651" r="0.786"/><circle style="fill:#FDE08C;" cx="114.879" cy="47.651" r="0.786"/><path style="fill:#2FB04B;" d="M111.36 40.426c0 0 1.684-3.556 3.257-4.267c0 0-0.824 3.331 0.075 4.342L111.36 40.426z"/><path style="fill:#FDE08C;" d="M115.141 42.336c0 1.123-0.936 2.059-2.059 2.059l0 0c-1.123 0-2.059-0.936-2.059-2.059l0 0 c0-1.123 0.936-2.059 2.059-2.059l0 0C114.205 40.277 115.141 41.213 115.141 42.336L115.141 42.336z"/><path style="fill:#FFFFFF;" d="M115.403 40.876c0 0.15-0.112 0.262-0.262 0.262h-4.118c-0.15 0-0.262-0.112-0.262-0.262v-0.487 c0-0.15 0.112-0.262 0.262-0.262h4.118c0.15 0 0.262 0.112 0.262 0.262V40.876z"/><circle style="fill:#333333;" cx="112.184" cy="42.036" r="0.374"/><circle style="fill:#333333;" cx="113.868" cy="42.036" r="0.374"/><path style="fill:#2FB04B;" d="M115.028 49.335c0 1.123-0.936 2.059-2.059 2.059c-1.123 0-2.059-0.936-2.059-2.059V46.49 c0-1.123 0.936-2.059 2.059-2.059c1.123 0 2.059 0.936 2.059 2.059V49.335z"/><polyline style="fill:#FFFFFF;" points="111.772,50.608 111.772,54.127 112.857,54.127 112.857,50.608"/><polyline style="fill:#2FB04B;" points="111.772,50.608 111.772,52.48 112.857,52.48 112.857,50.608"/><path style="fill:#333333;" d="M112.932 53.939h-1.235c-0.412 0.824-1.497 0.824-1.647 0.225c0 0-0.561 1.123 2.021 0.973 C112.67 55.1 113.157 54.538 112.932 53.939z"/><polyline style="fill:#FFFFFF;" points="114.392,50.608 114.392,54.127 113.306,54.127 113.306,50.608"/><polyline style="fill:#2FB04B;" points="114.392,50.608 114.392,52.48 113.306,52.48 113.306,50.608"/><path style="fill:#333333;" d="M113.232 53.939h1.235c0.412 0.824 1.497 0.824 1.647 0.225c0 0 0.561 1.123-2.021 0.973 C113.494 55.1 113.007 54.538 113.232 53.939z"/><line style="fill:none;stroke:#FFFFFF;stroke-miterlimit:10;" x1="112.97" y1="44.394" x2="112.97" y2="49.972"/><rect x="110.911" y="48.287" style="fill:#333333;" width="4.118" height="1.048"/><rect x="112.408" y="48.212" style="fill:#FDD600;" width="1.086" height="1.198"/><circle style="fill:#FFFFFF;" cx="114.916" cy="35.822" r="0.449"/><path style="fill:#FDE08C;" d="M110.986 41.924l-0.674-0.936c0 0-0.374 2.396 0.936 2.096L110.986 41.924z"/><path style="fill:#FDE08C;" d="M114.916 41.924l0.674-0.936c0 0 0.374 2.396-0.936 2.096L114.916 41.924z"/></g><g><circle style="fill:#FDE08C;" cx="13.925" cy="42.485" r="0.786"/><circle style="fill:#FDE08C;" cx="17.743" cy="42.485" r="0.786"/><path style="fill:#2BB1E6;" d="M14.224 35.261c0 0 1.684-3.556 3.257-4.267c0 0-0.824 3.331 0.075 4.342L14.224 35.261z"/><path style="fill:#FDE08C;" d="M18.005 37.17c0 1.123-0.936 2.059-2.059 2.059l0 0c-1.123 0-2.059-0.936-2.059-2.059l0 0 c0-1.123 0.936-2.059 2.059-2.059l0 0C17.069 35.111 18.005 36.01 18.005 37.17L18.005 37.17z"/><path style="fill:#FFFFFF;" d="M18.304 35.71c0 0.15-0.112 0.262-0.262 0.262h-4.118c-0.15 0-0.262-0.112-0.262-0.262v-0.487 c0-0.15 0.112-0.262 0.262-0.262h4.118c0.15 0 0.262 0.112 0.262 0.262V35.71z"/><circle style="fill:#333333;" cx="15.048" cy="36.87" r="0.374"/><circle style="fill:#333333;" cx="16.732" cy="36.87" r="0.374"/><path style="fill:#2BB1E6;" d="M17.892 44.132c0 1.123-0.936 2.059-2.059 2.059s-2.059-0.936-2.059-2.059v-2.845 c0-1.123 0.936-2.059 2.059-2.059s2.059 0.936 2.059 2.059V44.132z"/><polyline style="fill:#FFFFFF;" points="14.673,45.405 14.673,48.961 15.721,48.961 15.721,45.405"/><polyline style="fill:#2BB1E6;" points="14.673,45.405 14.673,47.314 15.721,47.314 15.721,45.405"/><path style="fill:#333333;" d="M15.796 48.774h-1.235c-0.412 0.824-1.497 0.824-1.647 0.225c0 0-0.561 1.123 2.021 0.973 C15.534 49.897 16.021 49.335 15.796 48.774z"/><polyline style="fill:#FFFFFF;" points="17.256,45.405 17.256,48.961 16.171,48.961 16.171,45.405"/><polyline style="fill:#2BB1E6;" points="17.256,45.405 17.256,47.314 16.171,47.314 16.171,45.405"/><path style="fill:#333333;" d="M16.096 48.774h1.235c0.412 0.824 1.497 0.824 1.647 0.225c0 0 0.561 1.123-2.021 0.973 C16.395 49.897 15.909 49.335 16.096 48.774z"/><line style="fill:none;stroke:#FFFFFF;stroke-miterlimit:10;" x1="15.834" y1="39.229" x2="15.834" y2="44.769"/><rect x="13.775" y="43.122" style="fill:#333333;" width="4.118" height="1.048"/><rect x="15.31" y="43.009" style="fill:#FDD600;" width="1.086" height="1.198"/><circle style="fill:#FFFFFF;" cx="17.818" cy="30.619" r="0.449"/><path style="fill:#FDE08C;" d="M13.887 36.721l-0.674-0.936c0 0-0.412 2.396 0.936 2.096L13.887 36.721z"/><path style="fill:#FDE08C;" d="M17.818 36.721l0.674-0.936c0 0 0.412 2.396-0.936 2.096L17.818 36.721z"/></g><g><g><path style="fill:#E94736;" d="M24.218 35.411c0 0-2.995-2.77-4.567-3.519c0 0 1.31 2.321 0.412 3.331L24.218 35.411z"/><path style="fill:#FDE08C;" d="M23.956 37.357c0 1.123-0.936 2.059-2.059 2.059l0 0c-1.123 0-2.059-0.936-2.059-2.059l0 0 c0-1.123 0.936-2.059 2.059-2.059l0 0C23.058 35.261 23.956 36.197 23.956 37.357L23.956 37.357z"/><g><path style="fill:#333333;" d="M22.871 35.523c-0.299-0.15-0.599-0.225-0.973-0.225c-1.123 0-2.059 0.936-2.059 2.059 c0 0.487 0.187 0.973 0.487 1.31C22.272 38.143 22.759 36.384 22.871 35.523z"/></g><path style="fill:#FDE08C;" d="M22.497 37.881l-1.086-1.535c0 0-0.412 2.396 0.936 2.096L22.497 37.881z"/><path style="fill:#FFFFFF;" d="M24.256 35.86c0 0.15-0.112 0.262-0.262 0.262h-4.118c-0.15 0-0.262-0.112-0.262-0.262v-0.487 c0-0.15 0.112-0.262 0.262-0.262h4.118c0.15 0 0.262 0.112 0.262 0.262V35.86z"/><circle style="fill:#333333;" cx="23.17" cy="37.058" r="0.374"/><path style="fill:#E94736;" d="M23.882 44.319c0 1.123-0.936 2.059-2.059 2.059c-1.123 0-2.059-0.936-2.059-2.059v-2.845 c0-1.123 0.936-2.059 2.059-2.059c1.123 0 2.059 0.936 2.059 2.059V44.319z"/><polyline style="fill:#FFFFFF;" points="22.235,46.565 22.235,49.148 21.186,49.148 21.186,46.565"/><path style="fill:#E94736;" d="M21.411 45.18c0.711 0 0.824 0.374 0.824 0.749v1.535h-1.086v-1.759L21.411 45.18z"/><path style="fill:#333333;" d="M21.112 48.924h1.235c0.412 0.824 1.497 0.824 1.647 0.225c0 0 0.561 1.123-2.021 0.973 C21.374 50.084 20.887 49.522 21.112 48.924z"/><rect x="19.764" y="43.271" style="fill:#333333;" width="4.118" height="1.048"/><rect x="23.694" y="43.196" style="fill:#FDD600;" width="0.299" height="1.198"/><circle style="fill:#FFFFFF;" cx="19.352" cy="31.593" r="0.449"/><circle style="fill:#FDE08C;" cx="21.86" cy="43.458" r="0.786"/></g><path style="fill:#FDE08C;" d="M23.657 37.245l1.946 0.561c0.225 0 0.225 0.299-0.075 0.299h-2.321L23.657 37.245z"/></g><path style="fill:#B4B9BF;" d="M111.472 50.009v-1.235c0-0.524 0.412-0.936 0.936-0.936h1.235c0.524 0 0.936 0.412 0.936 0.936 v1.235H111.472z"/><g><circle style="fill:#FDE08C;" cx="117.536" cy="47.651" r="0.786"/><circle style="fill:#FDE08C;" cx="121.354" cy="47.651" r="0.786"/><path style="fill:#F27C21;" d="M121.504 49.335c0 1.123-0.936 2.059-2.059 2.059c-1.123 0-2.059-0.936-2.059-2.059V46.49 c0-1.123 0.936-2.059 2.059-2.059c1.123 0 2.059 0.936 2.059 2.059V49.335z"/><polyline style="fill:#FFFFFF;" points="118.285,50.608 118.285,54.127 119.37,54.127 119.37,50.608"/><polyline style="fill:#F27C21;" points="118.285,50.608 118.285,52.48 119.37,52.48 119.37,50.608"/><path style="fill:#333333;" d="M119.445 53.939h-1.235c-0.412 0.824-1.497 0.824-1.647 0.225c0 0-0.561 1.123 2.021 0.973 C119.146 55.1 119.632 54.538 119.445 53.939z"/><polyline style="fill:#FFFFFF;" points="120.868,50.608 120.868,54.127 119.782,54.127 119.782,50.608"/><polyline style="fill:#F27C21;" points="120.868,50.608 120.868,52.48 119.782,52.48 119.782,50.608"/><path style="fill:#333333;" d="M119.707 53.939h1.235c0.412 0.824 1.497 0.824 1.647 0.225c0 0 0.561 1.123-2.021 0.973 C120.007 55.1 119.52 54.538 119.707 53.939z"/><line style="fill:none;stroke:#FFFFFF;stroke-miterlimit:10;" x1="119.445" y1="44.394" x2="119.445" y2="49.972"/><rect x="117.387" y="48.287" style="fill:#333333;" width="4.118" height="1.048"/><rect x="118.921" y="48.212" style="fill:#FDD600;" width="1.086" height="1.198"/></g><path style="fill:#F27C21;" d="M117.162 40.539c0 0 2.995-2.77 4.567-3.519c0 0-1.31 2.321-0.412 3.331L117.162 40.539z"/><path style="fill:#FDE08C;" d="M117.424 42.448c0 1.123 0.936 2.059 2.059 2.059l0 0c1.123 0 2.059-0.936 2.059-2.059l0 0 c0-1.123-0.936-2.059-2.059-2.059l0 0C118.322 40.389 117.424 41.325 117.424 42.448L117.424 42.448z"/><g><path style="fill:#333333;" d="M118.51 40.614c0.299-0.15 0.599-0.225 0.973-0.225c1.123 0 2.059 0.936 2.059 2.059 c0 0.487-0.187 0.973-0.487 1.31C119.108 43.271 118.622 41.475 118.51 40.614z"/></g><path style="fill:#FDE08C;" d="M118.884 43.009l1.086-1.535c0 0 0.412 2.396-0.936 2.096L118.884 43.009z"/><path style="fill:#FFFFFF;" d="M117.125 40.988c0 0.15 0.112 0.262 0.262 0.262h4.118c0.15 0 0.262-0.112 0.262-0.262v-0.487 c0-0.15-0.112-0.262-0.262-0.262h-4.118c-0.15 0-0.262 0.112-0.262 0.262V40.988z"/><circle style="fill:#333333;" cx="118.21" cy="42.148" r="0.374"/><circle style="fill:#FFFFFF;" cx="122.028" cy="36.683" r="0.449"/><path style="fill:#FDE08C;" d="M117.723 42.336l-1.946 0.561c-0.225 0-0.225 0.299 0.075 0.299h2.321L117.723 42.336z"/><g><g><g><path style="fill:#E94736;" d="M135.766 45.555c0 0 2.77 2.995 3.519 4.567c0 0-2.321-1.31-3.331-0.412L135.766 45.555z"/><path style="fill:#FDE08C;" d="M133.819 45.779c-1.123 0-2.059 0.936-2.059 2.059l0 0c0 1.123 0.936 2.059 2.059 2.059l0 0 c1.123 0 2.059-0.936 2.059-2.059l0 0C135.878 46.715 134.98 45.779 133.819 45.779L133.819 45.779z"/><g><path style="fill:#333333;" d="M135.653 46.902c0.15 0.299 0.225 0.599 0.225 0.973c0 1.123-0.936 2.059-2.059 2.059 c-0.487 0-0.973-0.187-1.31-0.487C133.033 47.464 134.792 47.015 135.653 46.902z"/></g><path style="fill:#FDE08C;" d="M133.295 47.277l1.535 1.086c0 0-2.396 0.412-2.096-0.936L133.295 47.277z"/><path style="fill:#FFFFFF;" d="M135.316 45.48c-0.15 0-0.262 0.112-0.262 0.262v4.118c0 0.15 0.112 0.262 0.262 0.262h0.487 c0.15 0 0.262-0.112 0.262-0.262v-4.118c0-0.15-0.112-0.262-0.262-0.262H135.316z"/><circle style="fill:#333333;" cx="134.119" cy="46.565" r="0.374"/><path style="fill:#E94736;" d="M126.857 45.892c-1.123 0-2.059 0.936-2.059 2.059s0.936 2.059 2.059 2.059h2.845 c1.123 0 2.059-0.936 2.059-2.059s-0.936-2.059-2.059-2.059H126.857z"/><polyline style="fill:#FFFFFF;" points="124.536,48.025 122.178,48.998 122.552,49.972 124.948,49.036"/><path style="fill:#E94736;" d="M126.146 48.287c-0.262-0.674-0.636-0.636-0.973-0.487l-1.422 0.561l0.412 1.011l1.61-0.636 L126.146 48.287z"/><path style="fill:#333333;" d="M122.777 49.972l-0.449-1.16c-0.898-0.075-1.31-1.086-0.824-1.46c0 0-1.235-0.112-0.15 2.208 C121.616 50.159 122.328 50.383 122.777 49.972z"/><rect x="126.857" y="45.892" style="fill:#333333;" width="1.048" height="4.118"/><rect x="126.819" y="45.779" style="fill:#FDD600;" width="1.198" height="0.299"/><circle style="fill:#FFFFFF;" cx="139.584" cy="50.421" r="0.449"/></g><path style="fill:#FDE08C;" d="M133.931 46.079l-0.561-1.946c0-0.225-0.299-0.225-0.299 0.075v2.321L133.931 46.079z"/></g><rect x="129.926" y="47.988" style="fill:#E94736;" width="1.086" height="4.604"/><circle style="fill:#FDE08C;" cx="130.525" cy="52.517" r="0.786"/></g><g><rect x="141.605" y="0" style="fill:#413D3E;" width="10.294" height="50.383"/><polygon style="opacity:0.19;fill:#666767;enable-background:new    ;" points="141.642,50.383 141.642,0.487 150.327,0.487"/><use xlink:href="#New_Symbol_52" width="14.342" height="14.342" x="-7.171" y="-7.171" transform="matrix(0.6099 0 0 -0.6099 146.9603 14.9028)" style="overflow:visible;"/><use xlink:href="#New_Symbol_52" width="14.342" height="14.342" x="-7.171" y="-7.171" transform="matrix(0.6099 0 0 -0.6099 146.9603 25.5265)" style="overflow:visible;"/><use xlink:href="#New_Symbol_52" width="14.342" height="14.342" x="-7.171" y="-7.171" transform="matrix(0.6099 0 0 -0.6099 146.9603 36.2576)" style="overflow:visible;"/><rect x="143.14" y="0" style="fill:#737373;" width="7.187" height="7.299"/><use xlink:href="#New_Symbol_52" width="14.342" height="14.342" x="-7.171" y="-7.171" transform="matrix(0.3573 0 0 -0.2756 146.8716 4.3071)" style="overflow:visible;"/><rect x="143.14" y="42.972" style="fill:#737373;" width="7.187" height="7.299"/><use xlink:href="#New_Symbol_52" width="14.342" height="14.342" x="-7.171" y="-7.171" transform="matrix(0.3573 0 0 -0.2756 146.8716 47.2914)" style="overflow:visible;"/></g></g></g></svg>