<svg xmlns="http://www.w3.org/2000/svg" viewBox="2.3 114.3 149.8 148.3" enable-background="new 2.3 114.3 149.8 148.3"><g><path fill="none" stroke="#979797" stroke-width="3.307" stroke-linecap="round" stroke-miterlimit="10" d="M119.4 238.8v21.1M33.6 238.8v21.1"/><path fill="#FFDE00" d="M16.8 210.2H95c13.1 0 34.5 10.3 39.1 29.3H16.8v-29.3z"/><path fill="#333" d="M133.9 239.6c.5 2.3.8 4.7.8 7.3H16.8v-7.3h117.1z"/><path fill="#FFDF8A" d="M74.8 154.5l12.7 3.7c1.3 0 1.3 2-.6 2H71.7l3.1-5.7z"/><path fill="none" stroke="#979797" stroke-width="3.307" stroke-linecap="round" stroke-miterlimit="10" d="M89.4 246.6c0 7.9 6.4 14.3 14.3 14.3h32.4c7.9 0 14.3-6.4 14.3-14.3M3.9 246.6c0 7.9 6.4 14.3 14.3 14.3h32.4c7.9 0 14.3-6.4 14.3-14.3"/><path fill="#8F4293" d="M77.4 142.2s-19.6-18-29.7-22.9c0 0 8.6 15.1 2.8 21.8l26.9 1.1z"/><path fill="#FFDF8A" d="M75.9 154.7c0 7.4-6 13.5-13.5 13.5-7.4 0-13.5-6-13.5-13.5 0-7.4 6-13.5 13.5-13.5 7.4.1 13.5 6.1 13.5 13.5z"/><path fill="#333" d="M68.7 142.8c-1.9-.9-4-1.5-6.3-1.5-7.4 0-13.5 6-13.5 13.5 0 3.3 1.1 6.3 3.2 8.7 12.8-3.6 15.9-15.1 16.6-20.7z"/><path fill="#FFDF8A" d="M66.2 158.2l-7.1-10s-2.6 15.7 6.1 13.8l1-3.8z"/><path fill="#fff" d="M77.8 145.2c0 1-.8 1.8-1.8 1.8H49.2c-1 0-1.8-.8-1.8-1.8v-3.3c0-1 .8-1.8 1.8-1.8H76c1 0 1.8.8 1.8 1.8v3.3z"/><circle fill="#333" cx="70.7" cy="152.8" r="2.4"/><path fill="#8F4293" d="M75.2 200.2c0 7.4-6 13.5-13.5 13.5s-13.5-6-13.5-13.5v-18.6c0-7.4 6-13.5 13.5-13.5s13.5 6.1 13.5 13.5v18.6z"/><path fill="#fff" d="M73.4 215h7v16.7h-7z"/><path fill="#8F4293" d="M59.9 213.7h13.5v7h7v-10.1c0-2.5-.7-4.7-5.5-4.7l-6.2.5-8.8 7.3z"/><path fill="#333" d="M73 230.3h8.1c2.7 5.3 9.8 5.3 10.7 1.4 0 0 3.8 7.3-13.2 6.3-3.8-.1-7-3.8-5.6-7.7zM48.3 193.5h26.9v6.7H48.3z"/><path fill="#FFD400" d="M74.2 192.9h1.9v7.7h-1.9z"/><circle fill="#fff" cx="45.7" cy="117.1" r="2.9"/><path fill="#FFDE00" d="M108.8 225.1v-19.8c0-10.8-7.7-18.6-16.6-18.6v34.8l16.6 3.6z"/><path fill="#8F4293" d="M93.09 183.564l-2.31 6.924-30.262-10.093 2.31-6.925z"/><circle fill="#FFDF8A" cx="91.9" cy="187" r="5.2"/></g></svg>