<svg xmlns="http://www.w3.org/2000/svg" viewBox="0 195.1 150 66.5" enable-background="new 0 195.1 150 66.5"><path fill="#16A316" d="M110.1 219.8c-1.1-1.2-4-1.5-7-1.8-4.7-.5-10.5-1.1-15.4-5.2l3.4-4c3.6 3 8.1 3.5 12.5 4 4.1.4 8 .8 10.4 3.5l-3.9 3.5zM109.5 218.4c-.1-.9-.2-1.8-.3-2.6-.4-3.5-.4-4.3-3-5.8-4.7-2.8-12.7-10.8-13-11.2l3.8-3.7c2.2 2.2 8.5 8.3 11.9 10.3 4.9 2.9 5.2 5.9 5.6 9.8.1.7.2 1.5.3 2.4l-5.3.8z"/><circle fill="#fff" cx="28.7" cy="232.9" r="28.7"/><circle fill="#fff" cx="77" cy="230.6" r="22.5"/><path fill="#16A316" d="M126.2 248.6c-4.8 0-17.2-12.6-19.2-18.5-1.7-5.2-.9-9.8.7-11.9 1.1-1.5 2.4-1.7 3.1-1.7.4 0 .8.1 1.2.2l4.8 1.4 13.7 23.9c.4.7.6 1.6.5 2.4-.2 1.3-1.1 2.6-2.6 3.6-.8.3-1.5.6-2.2.6zm-14.5-26.5c-.3 1.2-.5 3.5.4 6.3 1.3 3.9 8.5 11 12.3 13.8l-11.3-19.7-1.4-.4z"/><circle fill="#fff" cx="130.7" cy="223.2" r="19.3"/><g fill="#FF8A33"><path d="M132.4 222.1l4.2 13-8.2-10.3zM136.6 235.9c-.3 0-.5-.1-.7-.3l-8.3-10.3c-.2-.2-.2-.4-.2-.7 0-.2.2-.5.4-.6l4-2.7c.2-.2.5-.2.8-.1.3.1.5.3.6.6l4.3 13c.1.4 0 .8-.4 1.1h-.5zm-7-10.9l4.6 5.7-2.4-7.3-2.2 1.6z"/></g><ellipse transform="matrix(-.563 -.827 .827 -.563 28.237 442.662)" fill="#7C6959" cx="131.2" cy="213.9" rx="1.6" ry="1"/><ellipse transform="matrix(-.563 -.827 .827 -.563 32.807 467.102)" fill="#7C6959" cx="139.9" cy="224.9" rx="1.4" ry="1.2"/></svg>