<svg xmlns="http://www.w3.org/2000/svg" viewBox="0 0.3 150 260.9" enable-background="new 0 0.3 150 260.9"><path fill="#16A316" d="M20 103.9l-3-10.8c9.6-2.6 15.8-10 21.8-17.1 5.6-6.7 10.9-12.9 18.6-14L59 73.1c-3.4.5-7.3 5.2-11.5 10.1-6.6 7.7-14.6 17.2-27.5 20.7zM2 77.9l-2-11c6.4-1.2 24.7-5 32.3-8.6 10.8-5.1 16.5-2 23.8 1.9 1.4.7 2.8 1.5 4.5 2.4l-5 10c-1.8-.9-3.4-1.8-4.9-2.5-6.6-3.5-8-4.3-13.7-1.6-10.4 4.9-34 9.2-35 9.4z"/><circle fill="#fff" cx="89.3" cy="200.6" r="60.7"/><circle fill="#fff" cx="89.3" cy="111" r="47.6"/><path fill="#16A316" d="M82.9 91.8c-3.9 0-7.1-.4-9.7-1.1-12-3.4-19.9-11.6-20.6-17.6-.4-2.8.8-5.5 2.9-7l8.1-6.7 58.2 4.5c3.4.3 7.8 2.9 7.9 11 0 1.4-.4 3.5-2.4 5.5-6.6 6.7-31.1 11.4-44.4 11.4zM64.7 73.1c1.7 2 5.5 5.1 11.6 6.8 1.1.3 3.1.7 6.6.7 11.3 0 25.2-3.2 32.2-5.9L67.2 71l-2.5 2.1z"/><circle fill="#fff" cx="89.3" cy="41.2" r="40.9"/><g fill="#FF8A33"><path d="M89.3 36.9l27.8 8-27.8 2.2zM89.3 49c-.5 0-.9-.2-1.3-.5-.4-.4-.6-.9-.6-1.4V36.9c0-.6.3-1.1.7-1.5.5-.4 1.1-.5 1.6-.3l27.8 8c.9.3 1.4 1.1 1.3 2-.1.9-.8 1.6-1.7 1.7L89.5 49h-.2zm1.9-9.6v5.7l15.6-1.2-15.6-4.5z"/></g><ellipse fill="#7C6959" cx="73.6" cy="29.3" rx="3.3" ry="2.2"/><ellipse fill="#7C6959" cx="103.2" cy="27.1" rx="3" ry="2.5"/></svg>