<svg xmlns="http://www.w3.org/2000/svg" xmlns:xlink="http://www.w3.org/1999/xlink" version="1.1" id="Layer_1" x="0px" y="0px" viewBox="0 500.6 612 42" enable-background="new 0 500.6 612 42" xml:space="preserve"><path fill="#FFFFFF" d="M0 500.6h612v42H0V500.6z"/><g><path opacity="0.24" fill="#EBE8DC" enable-background="new    " d="M0 512.4c0 0 35.9-6.9 57.5-6.9s92.6 15.9 155.9 15.9 c62.8 0 133.8-16.7 182.8-15.9c49 0.8 113.4 14.3 151 13.5c37.5-0.8 64.9-6.5 64.9-6.5v30.2H0V512.4L0 512.4z"/><path opacity="0.5" fill="#EBE8DC" enable-background="new    " d="M0 528.7c0 0 75.9-4.9 127.3-14.7c34.7-6.5 69.8-9.4 104.9-9.4 c68.5-0.4 136.7 6.9 204.8 14.7c33.9 4.1 101.2 11.4 175 9.4v13.9H0V528.7z"/></g></svg>