<?xml version="1.0" encoding="utf-8"?>
<!-- Generator: Adobe Illustrator 18.0.0, SVG Export Plug-In . SVG Version: 6.00 Build 0)  -->
<!DOCTYPE svg PUBLIC "-//W3C//DTD SVG 1.1//EN" "http://www.w3.org/Graphics/SVG/1.1/DTD/svg11.dtd">
<svg version="1.1" id="Layer_1" xmlns="http://www.w3.org/2000/svg" xmlns:xlink="http://www.w3.org/1999/xlink" x="0px" y="0px"
	 viewBox="0 121 150 19.6" enable-background="new 0 121 150 19.6" xml:space="preserve">
<g id="MONORAIL">
	<rect x="125" y="125.4" fill="#FFDD00" width="3.7" height="3.7"/>
	<polygon fill="#00B2EE" points="127.1,127.1 127.1,125.4 126.6,125.4 126.6,127.1 125,127.1 125,127.6 126.6,127.6 126.6,129.1 
		127.1,129.1 127.1,127.6 128.7,127.6 128.7,127.1 	"/>
	<rect x="134.7" y="121" fill="#FFDD00" width="3.7" height="3.7"/>
	<polygon fill="#D84637" points="136.8,122.6 136.8,121 136.3,121 136.3,122.6 134.7,122.6 134.7,123.1 136.3,123.1 136.3,124.7 
		136.8,124.7 136.8,123.1 138.4,123.1 138.4,122.6 	"/>
	<rect x="128.9" y="126.4" fill="#F38937" width="2.9" height="2.9"/>
	<polygon fill="#00B2EE" points="130.6,127.6 130.6,126.4 130.1,126.4 130.1,127.6 128.9,127.6 128.9,128.1 130.1,128.1 
		130.1,129.3 130.6,129.3 130.6,128.1 131.8,128.1 131.8,127.6 	"/>
	<rect x="138.5" y="121.5" fill="#53C7F2" width="2.9" height="2.9"/>
	<polygon fill="#8F4293" points="140.1,122.8 140.1,121.5 139.6,121.5 139.6,122.8 138.5,122.8 138.5,123.3 139.6,123.3 
		139.6,124.4 140.1,124.4 140.1,123.3 141.4,123.3 141.4,122.8 	"/>
	<rect x="132.1" y="126.4" fill="#48B780" width="2.2" height="2.2"/>
	<polygon fill="#D2392C" points="133.4,127.2 133.4,126.4 132.9,126.4 132.9,127.2 132.1,127.2 132.1,127.7 132.9,127.7 
		132.9,128.6 133.4,128.6 133.4,127.7 134.3,127.7 134.3,127.2 	"/>
	<rect x="122.7" y="126.5" fill="#48B780" width="2.2" height="2.2"/>
	<polygon fill="#8F4293" points="124.1,127.3 124.1,126.5 123.6,126.5 123.6,127.3 122.7,127.3 122.7,127.8 123.6,127.8 
		123.6,128.7 124.1,128.7 124.1,127.8 124.9,127.8 124.9,127.3 	"/>
	<rect x="134.7" y="124.9" fill="#00B2EE" width="3.9" height="3.9"/>
	<polygon fill="#F38937" points="136.9,126.6 136.9,124.9 136.4,124.9 136.4,126.6 134.7,126.6 134.7,127.1 136.4,127.1 
		136.4,128.8 136.9,128.8 136.9,127.1 138.6,127.1 138.6,126.6 	"/>
	<rect x="130.7" y="122.3" fill="#8F4293" width="3.9" height="3.9"/>
	<polygon fill="#48B780" points="132.9,124.1 132.9,122.3 132.4,122.3 132.4,124.1 130.7,124.1 130.7,124.6 132.4,124.6 
		132.4,126.2 132.9,126.2 132.9,124.6 134.6,124.6 134.6,124.1 	"/>
	<rect x="138.6" y="124.5" fill="#48B780" width="3.9" height="3.9"/>
	<polygon fill="#FFDD00" points="140.8,126.3 140.8,124.5 140.3,124.5 140.3,126.3 138.6,126.3 138.6,126.8 140.3,126.8 
		140.3,128.4 140.8,128.4 140.8,126.8 142.5,126.8 142.5,126.3 	"/>
	<path fill="#E64436" d="M37.4,129c0-0.2,0.2-0.4,0.4-0.4H62c0.2,0,0.4,0.2,0.4,0.4v11.2c0,0.2-0.2,0.4-0.4,0.4H37.8
		c-0.2,0-0.4-0.2-0.4-0.4C37.4,140.2,37.4,129,37.4,129z"/>
	<path fill="#E64436" d="M35,128.6H15.4h-4.6c-0.4,0-0.8,0-1.2,0c-2.5,0-4.7,1.5-5.9,2.3c-1.2,0.9-3.7,3.3-3.7,4.8
		c0,1,0.9,1.1,2.5,1.1c1.6,0,2,0.2,2.6,1.7c0.7,1.5,1.4,2,2.7,2c0.5,0,1.6,0,2.9,0h4.6H35c0.2,0,0.4-0.2,0.4-0.4V129
		C35.4,128.8,35.2,128.6,35,128.6z"/>
	<rect x="36" y="129" fill="#757575" width="0.7" height="11.3"/>
	<path fill="#E64436" d="M64.4,129c0-0.2,0.2-0.4,0.4-0.4h24.3c0.2,0,0.4,0.2,0.4,0.4v11.2c0,0.2-0.2,0.4-0.4,0.4H64.8
		c-0.2,0-0.4-0.2-0.4-0.4V129z"/>
	<rect x="63.1" y="129" fill="#757575" width="0.7" height="11.3"/>
	<rect x="35.4" y="129.2" fill="#333333" width="0.7" height="11"/>
	<rect x="36.7" y="129.2" fill="#333333" width="0.7" height="11"/>
	<rect x="62.4" y="129.2" fill="#333333" width="0.7" height="11"/>
	<rect x="63.7" y="129.2" fill="#333333" width="0.7" height="11"/>
	<path fill="#B6E2F8" d="M7,130.6H4.3c-0.2,0.1-0.4,0.3-0.6,0.4c-0.9,0.6-2.3,2-3.1,3.3H7V130.6z"/>
	<path fill="#B6E2F8" d="M9.8,133.9c0,0.2-0.2,0.4-0.4,0.4H8.1c-0.2,0-0.4-0.2-0.4-0.4v-3c0-0.2,0.2-0.4,0.4-0.4h1.3
		c0.2,0,0.4,0.2,0.4,0.4V133.9z"/>
	<path fill="#A52E22" d="M25.5,136.5c0,0.2-0.2,0.4-0.4,0.4h-4.7c-0.2,0-0.4-0.2-0.4-0.4v-6.2c0-0.2,0.2-0.4,0.4-0.4h4.7
		c0.2,0,0.4,0.2,0.4,0.4V136.5z"/>
	<path fill="#B6E2F8" d="M7.3,133.9c0,0.2-0.2,0.4-0.4,0.4H5.7c-0.2,0-0.4-0.2-0.4-0.4v-3c0-0.2,0.2-0.4,0.4-0.4H7
		c0.2,0,0.4,0.2,0.4,0.4V133.9z"/>
	<path fill="#B6E2F8" d="M22.4,133.9c0,0.2-0.2,0.4-0.4,0.4H21c-0.2,0-0.4-0.2-0.4-0.4v-3c0-0.2,0.2-0.4,0.4-0.4H22
		c0.2,0,0.4,0.2,0.4,0.4V133.9z"/>
	<path fill="#B6E2F8" d="M25.1,133.9c0,0.2-0.2,0.4-0.4,0.4h-1.1c-0.2,0-0.4-0.2-0.4-0.4v-3c0-0.2,0.2-0.4,0.4-0.4h1.1
		c0.2,0,0.4,0.2,0.4,0.4V133.9z"/>
	<path fill="#B6E2F8" d="M29.9,133.9c0,0.2-0.2,0.4-0.4,0.4h-3c-0.2,0-0.4-0.2-0.4-0.4v-3c0-0.2,0.2-0.4,0.4-0.4h3
		c0.2,0,0.4,0.2,0.4,0.4V133.9z"/>
	<path fill="#B6E2F8" d="M34,133.9c0,0.2-0.2,0.4-0.4,0.4h-3c-0.2,0-0.4-0.2-0.4-0.4v-3c0-0.2,0.2-0.4,0.4-0.4h3
		c0.2,0,0.4,0.2,0.4,0.4V133.9z"/>
	<path fill="#B6E2F8" d="M15.7,133.9c0,0.2,0.2,0.4,0.4,0.4h3c0.2,0,0.4-0.2,0.4-0.4v-3c0-0.2-0.2-0.4-0.4-0.4h-3
		c-0.2,0-0.4,0.2-0.4,0.4V133.9z"/>
	<path fill="#B6E2F8" d="M11.7,133.9c0,0.2,0.2,0.4,0.4,0.4h3c0.2,0,0.4-0.2,0.4-0.4v-3c0-0.2-0.2-0.4-0.4-0.4h-3
		c-0.2,0-0.4,0.2-0.4,0.4V133.9z"/>
	<line fill="none" stroke="#FFFFFF" stroke-width="0.5" stroke-miterlimit="10" x1="22.8" y1="129.9" x2="22.8" y2="136.8"/>
	<line fill="none" stroke="#FFFFFF" stroke-width="0.5" stroke-miterlimit="10" x1="10.7" y1="128.6" x2="10.7" y2="137.6"/>
	<path fill="#A52E22" d="M52.6,136.5c0,0.2-0.2,0.4-0.4,0.4h-4.7c-0.2,0-0.4-0.2-0.4-0.4v-6.2c0-0.2,0.2-0.4,0.4-0.4h4.7
		c0.2,0,0.4,0.2,0.4,0.4V136.5z"/>
	<path fill="#B6E2F8" d="M49.5,133.9c0,0.2-0.2,0.4-0.4,0.4H48c-0.2,0-0.4-0.2-0.4-0.4v-3c0-0.2,0.2-0.4,0.4-0.4h1.1
		c0.2,0,0.4,0.2,0.4,0.4V133.9z"/>
	<path fill="#B6E2F8" d="M52.1,133.9c0,0.2-0.2,0.4-0.4,0.4h-1.1c-0.2,0-0.4-0.2-0.4-0.4v-3c0-0.2,0.2-0.4,0.4-0.4h1.1
		c0.2,0,0.4,0.2,0.4,0.4V133.9z"/>
	<path fill="#B6E2F8" d="M57,133.9c0,0.2-0.2,0.4-0.4,0.4h-3c-0.2,0-0.4-0.2-0.4-0.4v-3c0-0.2,0.2-0.4,0.4-0.4h3
		c0.2,0,0.4,0.2,0.4,0.4V133.9z"/>
	<path fill="#B6E2F8" d="M61.1,133.9c0,0.2-0.2,0.4-0.4,0.4h-3c-0.2,0-0.4-0.2-0.4-0.4v-3c0-0.2,0.2-0.4,0.4-0.4h3
		c0.2,0,0.4,0.2,0.4,0.4V133.9z"/>
	<path fill="#B6E2F8" d="M42.8,133.9c0,0.2,0.2,0.4,0.4,0.4h3c0.2,0,0.4-0.2,0.4-0.4v-3c0-0.2-0.2-0.4-0.4-0.4h-3
		c-0.2,0-0.4,0.2-0.4,0.4V133.9z"/>
	<path fill="#B6E2F8" d="M38.7,133.9c0,0.2,0.2,0.4,0.4,0.4h3c0.2,0,0.4-0.2,0.4-0.4v-3c0-0.2-0.2-0.4-0.4-0.4h-3
		c-0.2,0-0.4,0.2-0.4,0.4V133.9z"/>
	<line fill="none" stroke="#FFFFFF" stroke-width="0.5" stroke-miterlimit="10" x1="49.9" y1="129.9" x2="49.9" y2="136.8"/>
	<path fill="#A52E22" d="M79.6,136.5c0,0.2-0.2,0.4-0.4,0.4h-4.7c-0.2,0-0.4-0.2-0.4-0.4v-6.2c0-0.2,0.2-0.4,0.4-0.4h4.7
		c0.2,0,0.4,0.2,0.4,0.4V136.5z"/>
	<path fill="#B6E2F8" d="M76.5,133.9c0,0.2-0.2,0.4-0.4,0.4h-1.1c-0.2,0-0.4-0.2-0.4-0.4v-3c0-0.2,0.2-0.4,0.4-0.4h1.1
		c0.2,0,0.4,0.2,0.4,0.4V133.9z"/>
	<path fill="#B6E2F8" d="M79.1,133.9c0,0.2-0.2,0.4-0.4,0.4h-1.1c-0.2,0-0.4-0.2-0.4-0.4v-3c0-0.2,0.2-0.4,0.4-0.4h1.1
		c0.2,0,0.4,0.2,0.4,0.4V133.9z"/>
	<path fill="#B6E2F8" d="M84,133.9c0,0.2-0.2,0.4-0.4,0.4h-3c-0.2,0-0.4-0.2-0.4-0.4v-3c0-0.2,0.2-0.4,0.4-0.4h3
		c0.2,0,0.4,0.2,0.4,0.4V133.9z"/>
	<path fill="#B6E2F8" d="M88.1,133.9c0,0.2-0.2,0.4-0.4,0.4h-3c-0.2,0-0.4-0.2-0.4-0.4v-3c0-0.2,0.2-0.4,0.4-0.4h3
		c0.2,0,0.4,0.2,0.4,0.4V133.9z"/>
	<path fill="#B6E2F8" d="M69.8,133.9c0,0.2,0.2,0.4,0.4,0.4h3c0.2,0,0.4-0.2,0.4-0.4v-3c0-0.2-0.2-0.4-0.4-0.4h-3
		c-0.2,0-0.4,0.2-0.4,0.4V133.9z"/>
	<path fill="#B6E2F8" d="M65.7,133.9c0,0.2,0.2,0.4,0.4,0.4h3c0.2,0,0.4-0.2,0.4-0.4v-3c0-0.2-0.2-0.4-0.4-0.4h-3
		c-0.2,0-0.4,0.2-0.4,0.4V133.9z"/>
	<line fill="none" stroke="#FFFFFF" stroke-width="0.5" stroke-miterlimit="10" x1="76.9" y1="129.9" x2="76.9" y2="136.8"/>
	<rect x="35.4" y="129.2" fill="#333333" width="0.7" height="11"/>
	<rect x="36.7" y="129.2" fill="#333333" width="0.7" height="11"/>
	<rect x="62.4" y="129.2" fill="#333333" width="0.7" height="11"/>
	<rect x="63.7" y="129.2" fill="#333333" width="0.7" height="11"/>
	<path fill="#E64436" d="M91.4,129c0-0.2,0.2-0.4,0.4-0.4h24.3c0.2,0,0.4,0.2,0.4,0.4v11.2c0,0.2-0.2,0.4-0.4,0.4H91.8
		c-0.2,0-0.4-0.2-0.4-0.4V129z"/>
	<rect x="90.1" y="129" fill="#757575" width="0.7" height="11.3"/>
	<path fill="#E64436" d="M145.6,128.8c3.2,0.9,4.5-1.5,4.4-2.9c-0.1-1.6-1-3-3.2-3c-4.2,0-4.7,5.8-8,5.8h-20c-0.2,0-0.4,0.2-0.4,0.4
		v11.2c0,0.2,0.2,0.4,0.4,0.4h24.3c0.2,0,0.4-0.2,0.4-0.4v-4.8C143.5,133.1,144,128.8,145.6,128.8z"/>
	<rect x="117.1" y="129" fill="#757575" width="0.7" height="11.3"/>
	<rect x="89.4" y="129.2" fill="#333333" width="0.7" height="11"/>
	<rect x="90.8" y="129.2" fill="#333333" width="0.7" height="11"/>
	<rect x="116.4" y="129.2" fill="#333333" width="0.7" height="11"/>
	<rect x="117.8" y="129.2" fill="#C7D7E3" width="0.7" height="11"/>
	<path fill="#A52E22" d="M106.6,136.5c0,0.2-0.2,0.4-0.4,0.4h-4.7c-0.2,0-0.4-0.2-0.4-0.4v-6.2c0-0.2,0.2-0.4,0.4-0.4h4.7
		c0.2,0,0.4,0.2,0.4,0.4V136.5z"/>
	<path fill="#B6E2F8" d="M103.5,133.9c0,0.2-0.2,0.4-0.4,0.4h-1.1c-0.2,0-0.4-0.2-0.4-0.4v-3c0-0.2,0.2-0.4,0.4-0.4h1.1
		c0.2,0,0.4,0.2,0.4,0.4V133.9z"/>
	<path fill="#B6E2F8" d="M106.2,133.9c0,0.2-0.2,0.4-0.4,0.4h-1.1c-0.2,0-0.4-0.2-0.4-0.4v-3c0-0.2,0.2-0.4,0.4-0.4h1.1
		c0.2,0,0.4,0.2,0.4,0.4V133.9z"/>
	<path fill="#B6E2F8" d="M111,133.9c0,0.2-0.2,0.4-0.4,0.4h-3c-0.2,0-0.4-0.2-0.4-0.4v-3c0-0.2,0.2-0.4,0.4-0.4h3
		c0.2,0,0.4,0.2,0.4,0.4V133.9z"/>
	<path fill="#B6E2F8" d="M115.1,133.9c0,0.2-0.2,0.4-0.4,0.4h-3c-0.2,0-0.4-0.2-0.4-0.4v-3c0-0.2,0.2-0.4,0.4-0.4h3
		c0.2,0,0.4,0.2,0.4,0.4V133.9z"/>
	<path fill="#B6E2F8" d="M96.8,133.9c0,0.2,0.2,0.4,0.4,0.4h3c0.2,0,0.4-0.2,0.4-0.4v-3c0-0.2-0.2-0.4-0.4-0.4h-3
		c-0.2,0-0.4,0.2-0.4,0.4V133.9z"/>
	<path fill="#B6E2F8" d="M92.8,133.9c0,0.2,0.2,0.4,0.4,0.4h3c0.2,0,0.4-0.2,0.4-0.4v-3c0-0.2-0.2-0.4-0.4-0.4h-3
		c-0.2,0-0.4,0.2-0.4,0.4V133.9z"/>
	<line fill="none" stroke="#FFFFFF" stroke-width="0.5" stroke-miterlimit="10" x1="103.9" y1="129.9" x2="103.9" y2="136.8"/>
	<path fill="#B6E2F8" d="M123.9,133.9c0,0.2,0.2,0.4,0.4,0.4h3c0.2,0,0.4-0.2,0.4-0.4v-3c0-0.2-0.2-0.4-0.4-0.4h-3
		c-0.2,0-0.4,0.2-0.4,0.4V133.9z"/>
	<path fill="#B6E2F8" d="M119.8,133.9c0,0.2,0.2,0.4,0.4,0.4h3c0.2,0,0.4-0.2,0.4-0.4v-3c0-0.2-0.2-0.4-0.4-0.4h-3
		c-0.2,0-0.4,0.2-0.4,0.4V133.9z"/>
	<rect x="89.4" y="129.2" fill="#333333" width="0.7" height="11"/>
	<rect x="90.8" y="129.2" fill="#333333" width="0.7" height="11"/>
	<rect x="116.4" y="129.2" fill="#333333" width="0.7" height="11"/>
	<rect x="117.8" y="129.2" fill="#333333" width="0.7" height="11"/>
	<path fill="#333333" d="M37.8,140.6H62c0.2,0,0.4-0.2,0.4-0.4v-2.6h-25v2.6C37.4,140.4,37.6,140.6,37.8,140.6z"/>
	<path fill="#333333" d="M7.9,140.6c0.5,0,1.6,0,2.9,0h4.6H35c0.2,0,0.4-0.2,0.4-0.4v-2.6H4.6c0.2,0.2,0.3,0.6,0.5,1
		C5.8,140.1,6.6,140.6,7.9,140.6z"/>
	<path fill="#333333" d="M64.8,140.6h24.3c0.2,0,0.4-0.2,0.4-0.4v-2.6h-25v2.6C64.4,140.4,64.6,140.6,64.8,140.6z"/>
	<path fill="#333333" d="M91.8,140.6h24.3c0.2,0,0.4-0.2,0.4-0.4v-2.6h-25v2.6C91.4,140.4,91.6,140.6,91.8,140.6z"/>
	<rect x="37.4" y="137.1" fill="#A52E22" width="25" height="1"/>
	<path fill="#A52E22" d="M4.2,137.1c0.2,0.2,0.5,0.6,0.7,1h30.5v-1H4.2z"/>
	<rect x="64.4" y="137.1" fill="#A52E22" width="25" height="1"/>
	<rect x="91.4" y="137.1" fill="#A52E22" width="25" height="1"/>
	<rect x="118.5" y="137.1" fill="#A52E22" width="25" height="1"/>
	<path fill="#333333" d="M118.8,140.6h24.3c0.2,0,0.4-0.2,0.4-0.4v-2.6h-25v2.6C118.5,140.4,118.6,140.6,118.8,140.6z"/>
	<rect x="37.4" y="137.6" fill="#171717" width="25" height="1"/>
	<path fill="#171717" d="M4.6,137.6c0.2,0.2,0.3,0.6,0.5,1h30.2v-1H4.6z"/>
	<rect x="64.4" y="137.6" fill="#171717" width="25" height="1"/>
	<rect x="91.4" y="137.6" fill="#171717" width="25" height="1"/>
	<rect x="118.5" y="137.6" fill="#171717" width="25" height="1"/>
	<path fill="none" stroke="#B6E2F8" stroke-linecap="round" stroke-linejoin="round" stroke-miterlimit="10" d="M34.4,138.2
		c0,0.8-0.8,1.5-1.7,1.5H8.2c-0.9,0-1.7-0.7-1.7-1.5l0,0"/>
	
		<line fill="none" stroke="#B6E2F8" stroke-linecap="round" stroke-linejoin="round" stroke-miterlimit="10" x1="10.3" y1="138" x2="10.3" y2="139.6"/>
	
		<line fill="none" stroke="#B6E2F8" stroke-linecap="round" stroke-linejoin="round" stroke-miterlimit="10" x1="30.6" y1="138" x2="30.6" y2="139.6"/>
	
		<line fill="none" stroke="#B6E2F8" stroke-linecap="round" stroke-linejoin="round" stroke-miterlimit="10" x1="20.6" y1="138" x2="20.6" y2="139.6"/>
	<path fill="none" stroke="#B6E2F8" stroke-linecap="round" stroke-linejoin="round" stroke-miterlimit="10" d="M61.5,138.2
		c0,0.8-0.8,1.5-1.7,1.5H40c-0.9,0-1.7-0.7-1.7-1.5l0,0"/>
	
		<line fill="none" stroke="#B6E2F8" stroke-linecap="round" stroke-linejoin="round" stroke-miterlimit="10" x1="42" y1="138" x2="42" y2="139.6"/>
	
		<line fill="none" stroke="#B6E2F8" stroke-linecap="round" stroke-linejoin="round" stroke-miterlimit="10" x1="57.6" y1="138" x2="57.6" y2="139.6"/>
	<path fill="none" stroke="#B6E2F8" stroke-linecap="round" stroke-linejoin="round" stroke-miterlimit="10" d="M88.6,138.2
		c0,0.8-0.8,1.5-1.7,1.5H67.1c-0.9,0-1.7-0.7-1.7-1.5l0,0"/>
	
		<line fill="none" stroke="#B6E2F8" stroke-linecap="round" stroke-linejoin="round" stroke-miterlimit="10" x1="69.2" y1="138" x2="69.2" y2="139.6"/>
	
		<line fill="none" stroke="#B6E2F8" stroke-linecap="round" stroke-linejoin="round" stroke-miterlimit="10" x1="84.8" y1="138" x2="84.8" y2="139.6"/>
	<path fill="none" stroke="#B6E2F8" stroke-linecap="round" stroke-linejoin="round" stroke-miterlimit="10" d="M115.4,138.2
		c0,0.8-0.8,1.5-1.7,1.5H93.9c-0.9,0-1.7-0.7-1.7-1.5l0,0"/>
	
		<line fill="none" stroke="#B6E2F8" stroke-linecap="round" stroke-linejoin="round" stroke-miterlimit="10" x1="96" y1="138" x2="96" y2="139.6"/>
	
		<line fill="none" stroke="#B6E2F8" stroke-linecap="round" stroke-linejoin="round" stroke-miterlimit="10" x1="111.6" y1="138" x2="111.6" y2="139.6"/>
	<path fill="none" stroke="#B6E2F8" stroke-linecap="round" stroke-linejoin="round" stroke-miterlimit="10" d="M142.4,138.2
		c0,0.8-0.8,1.5-1.7,1.5h-19.8c-0.9,0-1.7-0.7-1.7-1.5l0,0"/>
	
		<line fill="none" stroke="#B6E2F8" stroke-linecap="round" stroke-linejoin="round" stroke-miterlimit="10" x1="122.9" y1="138" x2="122.9" y2="139.6"/>
	
		<line fill="none" stroke="#B6E2F8" stroke-linecap="round" stroke-linejoin="round" stroke-miterlimit="10" x1="138.5" y1="138" x2="138.5" y2="139.6"/>
	<line fill="none" stroke="#FFD400" stroke-width="2" stroke-miterlimit="10" x1="11.6" y1="135.6" x2="34.5" y2="135.6"/>
	<line fill="none" stroke="#FFD400" stroke-width="2" stroke-miterlimit="10" x1="1" y1="135.6" x2="10" y2="135.6"/>
	<line fill="none" stroke="#FFD400" stroke-width="2" stroke-miterlimit="10" x1="38.6" y1="135.6" x2="61.5" y2="135.6"/>
	<line fill="none" stroke="#FFD400" stroke-width="2" stroke-miterlimit="10" x1="65.6" y1="135.6" x2="88.5" y2="135.6"/>
	<line fill="none" stroke="#FFD400" stroke-width="2" stroke-miterlimit="10" x1="92.6" y1="135.6" x2="115.5" y2="135.6"/>
	<path fill="none" stroke="#FFD400" stroke-width="2" stroke-miterlimit="10" d="M119.7,135.6h10.2c11.8,0,12.7-11.4,16.9-11.4
		c2.4,0,2.7,3.4,0,3.4c-1.7,0-1.2-1.9,0.1-1.9"/>
</g>
<g id="Layer_1_1_">
</g>
</svg>
