<?xml version="1.0" encoding="utf-8"?>
<!-- Generator: Adobe Illustrator 18.0.0, SVG Export Plug-In . SVG Version: 6.00 Build 0)  -->
<!DOCTYPE svg PUBLIC "-//W3C//DTD SVG 1.1//EN" "http://www.w3.org/Graphics/SVG/1.1/DTD/svg11.dtd">
<svg version="1.1" id="Layer_1" xmlns="http://www.w3.org/2000/svg" xmlns:xlink="http://www.w3.org/1999/xlink" x="0px" y="0px"
	 viewBox="5.8 132.8 149.8 167.2" enable-background="new 5.8 132.8 149.8 167.2" xml:space="preserve">
<g id="BG-TREES-GROUP6">
	<rect x="48.6" y="254.3" fill="#888480" width="11.3" height="44.8"/>
	<polygon fill="#477DAA" points="54.2,132.8 107.8,285.6 54.2,285.6 5.8,285.6 	"/>
	<g>
		<g>
			<g>
				<defs>
					<polygon id="SVGID_1_" points="54.2,132.8 107.8,285.6 54.2,285.6 5.8,285.6 					"/>
				</defs>
				<clipPath id="SVGID_2_">
					<use xlink:href="#SVGID_1_"  overflow="visible"/>
				</clipPath>
				<polyline clip-path="url(#SVGID_2_)" fill="none" stroke="#338995" stroke-width="9.5161" stroke-miterlimit="10" points="
					2.6,165.3 54.2,217 111.1,165.3 				"/>
			</g>
		</g>
		<g>
			<g>
				<defs>
					<polygon id="SVGID_3_" points="54.2,132.8 107.8,285.6 54.2,285.6 5.8,285.6 					"/>
				</defs>
				<clipPath id="SVGID_4_">
					<use xlink:href="#SVGID_3_"  overflow="visible"/>
				</clipPath>
				<polyline clip-path="url(#SVGID_4_)" fill="none" stroke="#338995" stroke-width="9.5161" stroke-miterlimit="10" points="
					2.6,199.6 54.2,251.2 111.1,199.6 				"/>
			</g>
		</g>
		<g>
			<g>
				<defs>
					<polygon id="SVGID_5_" points="54.2,132.8 107.8,285.6 54.2,285.6 5.8,285.6 					"/>
				</defs>
				<clipPath id="SVGID_6_">
					<use xlink:href="#SVGID_5_"  overflow="visible"/>
				</clipPath>
				<polyline clip-path="url(#SVGID_6_)" fill="none" stroke="#338995" stroke-width="9.5161" stroke-miterlimit="10" points="
					2.6,234 54.2,285.6 111.1,234 				"/>
			</g>
		</g>
		<g>
			<g>
				<defs>
					<polygon id="SVGID_7_" points="54.2,132.8 107.8,285.6 54.2,285.6 5.8,285.6 					"/>
				</defs>
				<clipPath id="SVGID_8_">
					<use xlink:href="#SVGID_7_"  overflow="visible"/>
				</clipPath>
				<polyline clip-path="url(#SVGID_8_)" fill="none" stroke="#338995" stroke-width="9.5161" stroke-miterlimit="10" points="
					2.6,62.4 54.2,113.9 111.1,62.4 				"/>
			</g>
		</g>
		<g>
			<g>
				<defs>
					<polygon id="SVGID_9_" points="54.2,132.8 107.8,285.6 54.2,285.6 5.8,285.6 					"/>
				</defs>
				<clipPath id="SVGID_10_">
					<use xlink:href="#SVGID_9_"  overflow="visible"/>
				</clipPath>
				<polyline clip-path="url(#SVGID_10_)" fill="none" stroke="#338995" stroke-width="9.5161" stroke-miterlimit="10" points="
					2.6,96.7 54.2,148.3 111.1,96.7 				"/>
			</g>
		</g>
		<g>
			<g>
				<defs>
					<polygon id="SVGID_11_" points="54.2,132.8 107.8,285.6 54.2,285.6 5.8,285.6 					"/>
				</defs>
				<clipPath id="SVGID_12_">
					<use xlink:href="#SVGID_11_"  overflow="visible"/>
				</clipPath>
				<polyline clip-path="url(#SVGID_12_)" fill="none" stroke="#338995" stroke-width="9.5161" stroke-miterlimit="10" points="
					2.6,130.9 54.2,182.6 111.1,130.9 				"/>
			</g>
		</g>
	</g>
	<polygon opacity="0.1" enable-background="new    " points="59.8,285.6 48.6,285.6 48.6,293.2 59.8,288.1 	"/>
	<path fill="#FFFFFF" stroke="#FFFFFF" stroke-width="1.586" stroke-linejoin="round" stroke-miterlimit="10" d="M43,253.5
		c0,4.7,3.7,8.4,8.4,8.4s8.4-3.7,8.4-8.4H43z"/>
	<path fill="#FFFFFF" stroke="#FFFFFF" stroke-width="1.586" stroke-linejoin="round" stroke-miterlimit="10" d="M26.3,253.5
		c0,4.7,3.7,8.4,8.4,8.4s8.4-3.7,8.4-8.4H26.3z"/>
	<path fill="#FFFFFF" stroke="#FFFFFF" stroke-width="1.586" stroke-linejoin="round" stroke-miterlimit="10" d="M9.4,253.5
		c0,4.7,3.7,8.4,8.4,8.4s8.4-3.7,8.4-8.4H9.4z"/>
	<path fill="#FFFFFF" stroke="#FFFFFF" stroke-width="1.586" stroke-linejoin="round" stroke-miterlimit="10" d="M77,227.1
		c0,4.7,3.7,8.4,8.4,8.4s8.4-3.7,8.4-8.4H77z"/>
	<path fill="#FFFFFF" stroke="#FFFFFF" stroke-width="1.586" stroke-linejoin="round" stroke-miterlimit="10" d="M60.2,227.1
		c0,4.7,3.7,8.4,8.4,8.4c4.7,0,8.4-3.7,8.4-8.4H60.2z"/>
	<path fill="#FFFFFF" stroke="#FFFFFF" stroke-width="1.586" stroke-linejoin="round" stroke-miterlimit="10" d="M43.4,227.1
		c0,4.7,3.7,8.4,8.4,8.4s8.4-3.7,8.4-8.4H43.4z"/>
	<path fill="#FFFFFF" stroke="#FFFFFF" stroke-width="1.586" stroke-linejoin="round" stroke-miterlimit="10" d="M43,192.8
		c0,4.7,3.7,8.4,8.4,8.4s8.4-3.7,8.4-8.4H43z"/>
	<path fill="#FFFFFF" stroke="#FFFFFF" stroke-width="1.586" stroke-linejoin="round" stroke-miterlimit="10" d="M26.3,192.8
		c0,4.7,3.7,8.4,8.4,8.4s8.4-3.7,8.4-8.4H26.3z"/>
	<path fill="#FFFFFF" stroke="#FFFFFF" stroke-width="1.586" stroke-linejoin="round" stroke-miterlimit="10" d="M54.8,166.6
		c0,4.7,3.7,8.4,8.4,8.4s8.4-3.7,8.4-8.4H54.8z"/>
	<path fill="#FFFFFF" stroke="#FFFFFF" stroke-width="2" stroke-linejoin="round" stroke-miterlimit="10" d="M143.4,299
		c0-3.1,2.5-5.6,5.6-5.6s5.6,2.5,5.6,5.6H143.4z"/>
	<path fill="#FFFFFF" stroke="#FFFFFF" stroke-width="2" stroke-linejoin="round" stroke-miterlimit="10" d="M125.9,299
		c0-6,4.9-10.8,10.8-10.8c6,0,10.8,4.9,10.8,10.8H125.9z"/>
	<path fill="#FFFFFF" stroke="#FFFFFF" stroke-width="2" stroke-linejoin="round" stroke-miterlimit="10" d="M113.1,299
		c0-4.2,3.4-7.6,7.6-7.6c4.2,0,7.6,3.4,7.6,7.6H113.1z"/>
	<rect x="101.5" y="261.8" fill="#888480" width="8.6" height="37.2"/>
	<polygon fill="#57B8D5" points="105.7,168.9 142.8,285.7 105.7,285.7 68.7,285.7 	"/>
	<g>
		<g>
			<g>
				<defs>
					<polygon id="SVGID_13_" points="105.7,168.9 142.8,285.7 105.7,285.7 68.7,285.7 					"/>
				</defs>
				<clipPath id="SVGID_14_">
					<use xlink:href="#SVGID_13_"  overflow="visible"/>
				</clipPath>
				<polyline clip-path="url(#SVGID_14_)" fill="none" stroke="#3EA7B5" stroke-width="5.1992" stroke-miterlimit="10" points="
					66.3,193.7 105.7,233.3 145.3,193.7 				"/>
			</g>
		</g>
		<g>
			<g>
				<defs>
					<polygon id="SVGID_15_" points="105.7,168.9 142.8,285.7 105.7,285.7 68.7,285.7 					"/>
				</defs>
				<clipPath id="SVGID_16_">
					<use xlink:href="#SVGID_15_"  overflow="visible"/>
				</clipPath>
				<polyline clip-path="url(#SVGID_16_)" fill="none" stroke="#3EA7B5" stroke-width="5.1992" stroke-miterlimit="10" points="
					66.3,220 105.7,259.5 145.3,220 				"/>
			</g>
		</g>
		<g>
			<g>
				<defs>
					<polygon id="SVGID_17_" points="105.7,168.9 142.8,285.7 105.7,285.7 68.7,285.7 					"/>
				</defs>
				<clipPath id="SVGID_18_">
					<use xlink:href="#SVGID_17_"  overflow="visible"/>
				</clipPath>
				<polyline clip-path="url(#SVGID_18_)" fill="none" stroke="#3EA7B5" stroke-width="5.1992" stroke-miterlimit="10" points="
					66.3,246.2 105.7,285.7 145.3,246.2 				"/>
			</g>
		</g>
		<g>
			<g>
				<defs>
					<polygon id="SVGID_19_" points="105.7,168.9 142.8,285.7 105.7,285.7 68.7,285.7 					"/>
				</defs>
				<clipPath id="SVGID_20_">
					<use xlink:href="#SVGID_19_"  overflow="visible"/>
				</clipPath>
				<polyline clip-path="url(#SVGID_20_)" fill="none" stroke="#3EA7B5" stroke-width="5.1992" stroke-miterlimit="10" points="
					66.3,115 105.7,154.4 145.3,115 				"/>
			</g>
		</g>
		<g>
			<g>
				<defs>
					<polygon id="SVGID_21_" points="105.7,168.9 142.8,285.7 105.7,285.7 68.7,285.7 					"/>
				</defs>
				<clipPath id="SVGID_22_">
					<use xlink:href="#SVGID_21_"  overflow="visible"/>
				</clipPath>
				<polyline clip-path="url(#SVGID_22_)" fill="none" stroke="#3EA7B5" stroke-width="5.1992" stroke-miterlimit="10" points="
					66.3,141.2 105.7,180.7 145.3,141.2 				"/>
			</g>
		</g>
		<g>
			<g>
				<defs>
					<polygon id="SVGID_23_" points="105.7,168.9 142.8,285.7 105.7,285.7 68.7,285.7 					"/>
				</defs>
				<clipPath id="SVGID_24_">
					<use xlink:href="#SVGID_23_"  overflow="visible"/>
				</clipPath>
				<polyline clip-path="url(#SVGID_24_)" fill="none" stroke="#3EA7B5" stroke-width="5.1992" stroke-miterlimit="10" points="
					66.3,167.5 105.7,207 145.3,167.5 				"/>
			</g>
		</g>
	</g>
	<polygon opacity="0.22" fill="#FFFFFF" enable-background="new    " points="105.7,168.9 127,285.7 142.8,285.7 	"/>
	<polygon opacity="0.1" enable-background="new    " points="110.1,285.7 101.5,285.7 101.5,291.5 110.1,287.7 	"/>
	<path fill="#FFFFFF" stroke="#FFFFFF" stroke-width="0.8665" stroke-linejoin="round" stroke-miterlimit="10" d="M97.2,264.4
		c0,3.5,2.9,6.4,6.4,6.4c3.5,0,6.4-2.9,6.4-6.4H97.2z"/>
	<path fill="#FFFFFF" stroke="#FFFFFF" stroke-width="0.8665" stroke-linejoin="round" stroke-miterlimit="10" d="M84.3,264.4
		c0,3.5,2.9,6.4,6.4,6.4c3.5,0,6.4-2.9,6.4-6.4H84.3z"/>
	<path fill="#FFFFFF" stroke="#FFFFFF" stroke-width="0.8665" stroke-linejoin="round" stroke-miterlimit="10" d="M71.4,264.4
		c0,3.5,2.9,6.4,6.4,6.4c3.5,0,6.4-2.9,6.4-6.4H71.4z"/>
	<path fill="#FFFFFF" stroke="#FFFFFF" stroke-width="0.8665" stroke-linejoin="round" stroke-miterlimit="10" d="M123,245.5
		c0,3.5,2.9,6.4,6.4,6.4c3.5,0,6.4-2.9,6.4-6.4H123z"/>
	<path fill="#FFFFFF" stroke="#FFFFFF" stroke-width="0.8665" stroke-linejoin="round" stroke-miterlimit="10" d="M110.1,245.5
		c0,3.5,2.9,6.4,6.4,6.4s6.4-2.9,6.4-6.4H110.1z"/>
	<path fill="#FFFFFF" stroke="#FFFFFF" stroke-width="0.8665" stroke-linejoin="round" stroke-miterlimit="10" d="M97.2,245.5
		c0,3.5,2.9,6.4,6.4,6.4c3.5,0,6.4-2.9,6.4-6.4H97.2z"/>
	<path fill="#FFFFFF" stroke="#FFFFFF" stroke-width="0.8665" stroke-linejoin="round" stroke-miterlimit="10" d="M96.9,225.3
		c0,3.5,2.9,6.4,6.4,6.4c3.5,0,6.4-2.9,6.4-6.4H96.9z"/>
	<path fill="#FFFFFF" stroke="#FFFFFF" stroke-width="0.8665" stroke-linejoin="round" stroke-miterlimit="10" d="M84,225.3
		c0,3.5,2.9,6.4,6.4,6.4c3.5,0,6.4-2.9,6.4-6.4H84z"/>
	<path fill="#FFFFFF" stroke="#FFFFFF" stroke-width="0.8665" stroke-linejoin="round" stroke-miterlimit="10" d="M109.8,208.2
		c0,3.5,2.9,6.4,6.4,6.4c3.5,0,6.4-2.9,6.4-6.4H109.8z"/>
	<path fill="#FFFFFF" stroke="#FFFFFF" stroke-width="0.8665" stroke-linejoin="round" stroke-miterlimit="10" d="M96.9,208.2
		c0,3.5,2.9,6.4,6.4,6.4c3.5,0,6.4-2.9,6.4-6.4H96.9z"/>
	<path fill="#FFFFFF" stroke="#FFFFFF" stroke-width="0.8665" stroke-linejoin="round" stroke-miterlimit="10" d="M94,191.5
		c0,3.5,2.9,6.4,6.4,6.4c3.5,0,6.4-2.9,6.4-6.4H94z"/>
</g>
<g id="Layer_1_1_">
</g>
</svg>
