<?xml version="1.0" encoding="utf-8"?>
<!-- Generator: Adobe Illustrator 18.0.0, SVG Export Plug-In . SVG Version: 6.00 Build 0)  -->
<!DOCTYPE svg PUBLIC "-//W3C//DTD SVG 1.1//EN" "http://www.w3.org/Graphics/SVG/1.1/DTD/svg11.dtd">
<svg version="1.1" id="Layer_1" xmlns="http://www.w3.org/2000/svg" xmlns:xlink="http://www.w3.org/1999/xlink" x="0px" y="0px"
	 viewBox="4.7 137.8 150.1 159" enable-background="new 4.7 137.8 150.1 159" xml:space="preserve">
<g id="BG-TREES-GROUP8">
	<rect x="130.3" y="274.8" fill="#716E69" width="5.2" height="22"/>
	<polygon fill="#4F9DBE" points="132.9,216.5 154.8,285.7 132.9,285.7 111,285.7 	"/>
	<polygon opacity="0.1" enable-background="new    " points="135.4,285.7 130.3,285.7 130.3,288.2 135.4,286.5 	"/>
	<rect x="90.7" y="269.2" fill="#888480" width="6.9" height="27.4"/>
	<polygon fill="#477DAA" points="94.2,194.9 127,288.2 94.2,288.2 64.6,288.2 	"/>
	<g>
		<g>
			<g>
				<defs>
					<polygon id="SVGID_1_" points="94.2,194.9 127,288.2 94.2,288.2 64.6,288.2 					"/>
				</defs>
				<clipPath id="SVGID_2_">
					<use xlink:href="#SVGID_1_"  overflow="visible"/>
				</clipPath>
				<polyline clip-path="url(#SVGID_2_)" fill="none" stroke="#338995" stroke-width="6.7972" stroke-miterlimit="10" points="
					62.7,214.8 94.2,246.3 129,214.8 				"/>
			</g>
		</g>
		<g>
			<g>
				<defs>
					<polygon id="SVGID_3_" points="94.2,194.9 127,288.2 94.2,288.2 64.6,288.2 					"/>
				</defs>
				<clipPath id="SVGID_4_">
					<use xlink:href="#SVGID_3_"  overflow="visible"/>
				</clipPath>
				<polyline clip-path="url(#SVGID_4_)" fill="none" stroke="#338995" stroke-width="6.7972" stroke-miterlimit="10" points="
					62.7,235.7 94.2,267.2 129,235.7 				"/>
			</g>
		</g>
		<g>
			<g>
				<defs>
					<polygon id="SVGID_5_" points="94.2,194.9 127,288.2 94.2,288.2 64.6,288.2 					"/>
				</defs>
				<clipPath id="SVGID_6_">
					<use xlink:href="#SVGID_5_"  overflow="visible"/>
				</clipPath>
				<polyline clip-path="url(#SVGID_6_)" fill="none" stroke="#338995" stroke-width="6.7972" stroke-miterlimit="10" points="
					62.7,256.7 94.2,288.2 129,256.7 				"/>
			</g>
		</g>
		<g>
			<g>
				<defs>
					<polygon id="SVGID_7_" points="94.2,194.9 127,288.2 94.2,288.2 64.6,288.2 					"/>
				</defs>
				<clipPath id="SVGID_8_">
					<use xlink:href="#SVGID_7_"  overflow="visible"/>
				</clipPath>
				<polyline clip-path="url(#SVGID_8_)" fill="none" stroke="#338995" stroke-width="6.7972" stroke-miterlimit="10" points="
					62.7,151.8 94.2,183.4 129,151.8 				"/>
			</g>
		</g>
		<g>
			<g>
				<defs>
					<polygon id="SVGID_9_" points="94.2,194.9 127,288.2 94.2,288.2 64.6,288.2 					"/>
				</defs>
				<clipPath id="SVGID_10_">
					<use xlink:href="#SVGID_9_"  overflow="visible"/>
				</clipPath>
				<polyline clip-path="url(#SVGID_10_)" fill="none" stroke="#338995" stroke-width="6.7972" stroke-miterlimit="10" points="
					62.7,172.8 94.2,204.3 129,172.8 				"/>
			</g>
		</g>
		<g>
			<g>
				<defs>
					<polygon id="SVGID_11_" points="94.2,194.9 127,288.2 94.2,288.2 64.6,288.2 					"/>
				</defs>
				<clipPath id="SVGID_12_">
					<use xlink:href="#SVGID_11_"  overflow="visible"/>
				</clipPath>
				<polyline clip-path="url(#SVGID_12_)" fill="none" stroke="#338995" stroke-width="6.7972" stroke-miterlimit="10" points="
					62.7,193.8 94.2,225.3 129,193.8 				"/>
			</g>
		</g>
	</g>
	<polygon opacity="0.1" enable-background="new    " points="97.7,288.2 90.7,288.2 90.7,292.8 97.7,289.7 	"/>
	<path fill="#FFFFFF" stroke="#FFFFFF" stroke-width="1.1329" stroke-linejoin="round" stroke-miterlimit="10" d="M87.3,268.7
		c0,2.8,2.3,5.2,5.2,5.2c2.8,0,5.2-2.3,5.2-5.2H87.3z"/>
	<path fill="#FFFFFF" stroke="#FFFFFF" stroke-width="1.1329" stroke-linejoin="round" stroke-miterlimit="10" d="M77.1,268.7
		c0,2.8,2.3,5.2,5.2,5.2c2.8,0,5.2-2.3,5.2-5.2H77.1z"/>
	<path fill="#FFFFFF" stroke="#FFFFFF" stroke-width="1.1329" stroke-linejoin="round" stroke-miterlimit="10" d="M66.8,268.7
		c0,2.8,2.3,5.2,5.2,5.2c2.8,0,5.2-2.3,5.2-5.2H66.8z"/>
	<path fill="#FFFFFF" stroke="#FFFFFF" stroke-width="1.1329" stroke-linejoin="round" stroke-miterlimit="10" d="M108.1,252.6
		c0,2.8,2.3,5.2,5.2,5.2c2.8,0,5.2-2.3,5.2-5.2H108.1L108.1,252.6z"/>
	<path fill="#FFFFFF" stroke="#FFFFFF" stroke-width="1.1329" stroke-linejoin="round" stroke-miterlimit="10" d="M97.9,252.6
		c0,2.8,2.3,5.2,5.2,5.2c2.8,0,5.2-2.3,5.2-5.2H97.9L97.9,252.6z"/>
	<path fill="#FFFFFF" stroke="#FFFFFF" stroke-width="1.1329" stroke-linejoin="round" stroke-miterlimit="10" d="M87.5,252.6
		c0,2.8,2.3,5.2,5.2,5.2c2.9,0,5.2-2.3,5.2-5.2H87.5L87.5,252.6z"/>
	<path fill="#FFFFFF" stroke="#FFFFFF" stroke-width="1.1329" stroke-linejoin="round" stroke-miterlimit="10" d="M87.3,231.5
		c0,2.8,2.3,5.2,5.2,5.2c2.8,0,5.2-2.3,5.2-5.2H87.3z"/>
	<path fill="#FFFFFF" stroke="#FFFFFF" stroke-width="1.1329" stroke-linejoin="round" stroke-miterlimit="10" d="M77.1,231.5
		c0,2.8,2.3,5.2,5.2,5.2c2.8,0,5.2-2.3,5.2-5.2H77.1z"/>
	<path fill="#FFFFFF" stroke="#FFFFFF" stroke-width="1.1329" stroke-linejoin="round" stroke-miterlimit="10" d="M94.6,215.5
		c0,2.8,2.3,5.2,5.2,5.2c2.8,0,5.2-2.3,5.2-5.2H94.6z"/>
	<rect x="44.6" y="251.1" fill="#888480" width="10.5" height="45.3"/>
	<polygon fill="#57B8D5" points="49.8,137.8 94.9,280.2 49.8,280.2 4.7,280.2 	"/>
	<g>
		<g>
			<g>
				<defs>
					<polygon id="SVGID_13_" points="49.8,137.8 94.9,280.2 49.8,280.2 4.7,280.2 					"/>
				</defs>
				<clipPath id="SVGID_14_">
					<use xlink:href="#SVGID_13_"  overflow="visible"/>
				</clipPath>
				<polyline clip-path="url(#SVGID_14_)" fill="none" stroke="#3EA7B5" stroke-width="7.4044" stroke-miterlimit="10" points="
					1.7,168.2 49.8,216.3 98,168.2 				"/>
			</g>
		</g>
		<g>
			<g>
				<defs>
					<polygon id="SVGID_15_" points="49.8,137.8 94.9,280.2 49.8,280.2 4.7,280.2 					"/>
				</defs>
				<clipPath id="SVGID_16_">
					<use xlink:href="#SVGID_15_"  overflow="visible"/>
				</clipPath>
				<polyline clip-path="url(#SVGID_16_)" fill="none" stroke="#3EA7B5" stroke-width="7.4044" stroke-miterlimit="10" points="
					1.7,200.2 49.8,248.3 98,200.2 				"/>
			</g>
		</g>
		<g>
			<g>
				<defs>
					<polygon id="SVGID_17_" points="49.8,137.8 94.9,280.2 49.8,280.2 4.7,280.2 					"/>
				</defs>
				<clipPath id="SVGID_18_">
					<use xlink:href="#SVGID_17_"  overflow="visible"/>
				</clipPath>
				<polyline clip-path="url(#SVGID_18_)" fill="none" stroke="#3EA7B5" stroke-width="7.4044" stroke-miterlimit="10" points="
					1.7,232.2 49.8,280.2 98,232.2 				"/>
			</g>
		</g>
		<g>
			<g>
				<defs>
					<polygon id="SVGID_19_" points="49.8,137.8 94.9,280.2 49.8,280.2 4.7,280.2 					"/>
				</defs>
				<clipPath id="SVGID_20_">
					<use xlink:href="#SVGID_19_"  overflow="visible"/>
				</clipPath>
				<polyline clip-path="url(#SVGID_20_)" fill="none" stroke="#3EA7B5" stroke-width="7.4044" stroke-miterlimit="10" points="
					16.7,72.1 64.8,120.2 113,72.1 				"/>
			</g>
		</g>
		<g>
			<g>
				<defs>
					<polygon id="SVGID_21_" points="49.8,137.8 94.9,280.2 49.8,280.2 4.7,280.2 					"/>
				</defs>
				<clipPath id="SVGID_22_">
					<use xlink:href="#SVGID_21_"  overflow="visible"/>
				</clipPath>
				<polyline clip-path="url(#SVGID_22_)" fill="none" stroke="#3EA7B5" stroke-width="7.4044" stroke-miterlimit="10" points="
					1.7,104.1 49.8,152.3 98,104.1 				"/>
			</g>
		</g>
		<g>
			<g>
				<defs>
					<polygon id="SVGID_23_" points="49.8,137.8 94.9,280.2 49.8,280.2 4.7,280.2 					"/>
				</defs>
				<clipPath id="SVGID_24_">
					<use xlink:href="#SVGID_23_"  overflow="visible"/>
				</clipPath>
				<polyline clip-path="url(#SVGID_24_)" fill="none" stroke="#3EA7B5" stroke-width="7.4044" stroke-miterlimit="10" points="
					1.7,136.1 49.8,184.3 98,136.1 				"/>
			</g>
		</g>
	</g>
	<polygon opacity="0.22" fill="#FFFFFF" enable-background="new    " points="49.8,137.8 75.8,280.2 94.9,280.2 	"/>
	<polygon opacity="0.1" enable-background="new    " points="55.1,280.2 44.6,280.2 44.6,287.4 55.1,282.6 	"/>
	<path fill="#FFFFFF" stroke="#FFFFFF" stroke-width="1.2341" stroke-linejoin="round" stroke-miterlimit="10" d="M39.4,254.3
		c0,4.3,3.5,7.9,7.9,7.9c4.3,0,7.9-3.5,7.9-7.9H39.4z"/>
	<path fill="#FFFFFF" stroke="#FFFFFF" stroke-width="1.2341" stroke-linejoin="round" stroke-miterlimit="10" d="M23.8,254.3
		c0,4.3,3.5,7.9,7.9,7.9s7.9-3.5,7.9-7.9H23.8z"/>
	<path fill="#FFFFFF" stroke="#FFFFFF" stroke-width="1.2341" stroke-linejoin="round" stroke-miterlimit="10" d="M8.1,254.3
		c0,4.3,3.5,7.9,7.9,7.9s7.9-3.5,7.9-7.9H8.1z"/>
	<path fill="#FFFFFF" stroke="#FFFFFF" stroke-width="1.2341" stroke-linejoin="round" stroke-miterlimit="10" d="M70.8,231.3
		c0,4.3,3.5,7.9,7.9,7.9c4.3,0,7.9-3.5,7.9-7.9H70.8z"/>
	<path fill="#FFFFFF" stroke="#FFFFFF" stroke-width="1.2341" stroke-linejoin="round" stroke-miterlimit="10" d="M55.1,231.3
		c0,4.3,3.5,7.9,7.9,7.9s7.9-3.5,7.9-7.9H55.1z"/>
	<path fill="#FFFFFF" stroke="#FFFFFF" stroke-width="1.2341" stroke-linejoin="round" stroke-miterlimit="10" d="M39.4,231.3
		c0,4.3,3.5,7.9,7.9,7.9c4.3,0,7.9-3.5,7.9-7.9H39.4z"/>
	<path fill="#FFFFFF" stroke="#FFFFFF" stroke-width="1.2341" stroke-linejoin="round" stroke-miterlimit="10" d="M39,206.6
		c0,4.3,3.5,7.9,7.9,7.9s7.9-3.5,7.9-7.9H39z"/>
	<path fill="#FFFFFF" stroke="#FFFFFF" stroke-width="1.2341" stroke-linejoin="round" stroke-miterlimit="10" d="M23.3,206.6
		c0,4.3,3.5,7.9,7.9,7.9s7.9-3.5,7.9-7.9H23.3z"/>
	<path fill="none" d="M54.7,185.8c0,4.3,3.5,7.9,7.9,7.9s7.9-3.5,7.9-7.9H54.7z"/>
	<path fill="#FFFFFF" stroke="#FFFFFF" stroke-width="1.2341" stroke-linejoin="round" stroke-miterlimit="10" d="M39,185.8
		c0,4.3,3.5,7.9,7.9,7.9s7.9-3.5,7.9-7.9H39z"/>
	<path fill="#FFFFFF" stroke="#FFFFFF" stroke-width="1.2341" stroke-linejoin="round" stroke-miterlimit="10" d="M35.5,165.5
		c0,4.3,3.5,7.9,7.9,7.9s7.9-3.5,7.9-7.9H35.5L35.5,165.5z"/>
</g>
<g id="Layer_1_1_">
</g>
</svg>
