<svg xmlns="http://www.w3.org/2000/svg" xmlns:xlink="http://www.w3.org/1999/xlink" viewBox="5.1 95 150.1 194.8" enable-background="new 5.1 95 150.1 194.8"><g><path fill="#716E69" d="M95.8 236.3h12.4v53.6H95.8z"/><path fill="#4F9DBE" d="M102.1 95l53.1 167.8H48.9z"/><path opacity=".1" enable-background="new" d="M108.3 262.8H95.8v6.1l12.5-4.1z"/><path fill="#888480" d="M48.5 240.3H60v49.5H48.5z"/><path fill="#57B8D5" d="M54.2 117l49.1 155H5.1z"/><defs><path id="a" d="M54.2 117l49.1 155H5.1z"/></defs><clipPath id="b"><use xlink:href="#a" overflow="visible"/></clipPath><path clip-path="url(#b)" fill="none" stroke="#3EA7B5" stroke-width="6.766" stroke-miterlimit="10" d="M1.9 150l52.3 52.4 52.4-52.4"/><defs><path id="c" d="M54.2 117l49.1 155H5.1z"/></defs><clipPath id="d"><use xlink:href="#c" overflow="visible"/></clipPath><path clip-path="url(#d)" fill="none" stroke="#3EA7B5" stroke-width="6.766" stroke-miterlimit="10" d="M1.9 184.9l52.3 52.3 52.4-52.3"/><defs><path id="e" d="M54.2 117l49.1 155H5.1z"/></defs><clipPath id="f"><use xlink:href="#e" overflow="visible"/></clipPath><path clip-path="url(#f)" fill="none" stroke="#3EA7B5" stroke-width="6.766" stroke-miterlimit="10" d="M1.9 219.7L54.2 272l52.4-52.3"/><defs><path id="g" d="M54.2 117l49.1 155H5.1z"/></defs><clipPath id="h"><use xlink:href="#g" overflow="visible"/></clipPath><path clip-path="url(#h)" fill="none" stroke="#3EA7B5" stroke-width="6.766" stroke-miterlimit="10" d="M1.9 45.5l52.3 52.4 52.4-52.4"/><defs><path id="i" d="M54.2 117l49.1 155H5.1z"/></defs><clipPath id="j"><use xlink:href="#i" overflow="visible"/></clipPath><path clip-path="url(#j)" fill="none" stroke="#3EA7B5" stroke-width="6.766" stroke-miterlimit="10" d="M1.9 80.4l52.3 52.3 52.4-52.3"/><defs><path id="k" d="M54.2 117l49.1 155H5.1z"/></defs><clipPath id="l"><use xlink:href="#k" overflow="visible"/></clipPath><path clip-path="url(#l)" fill="none" stroke="#3EA7B5" stroke-width="6.766" stroke-miterlimit="10" d="M1.9 115.2l52.3 52.4 52.4-52.4"/><path opacity=".22" fill="#fff" enable-background="new" d="M54.2 117l28.3 155h20.8z"/><path opacity=".1" enable-background="new" d="M60 272H48.5v7.8l11.5-5.2z"/><path fill="#fff" stroke="#fff" stroke-width="1.128" stroke-linejoin="round" stroke-miterlimit="10" d="M42.9 243.8c0 4.7 3.8 8.5 8.5 8.5s8.5-3.8 8.5-8.5h-17zM25.8 243.8c0 4.7 3.8 8.5 8.5 8.5s8.5-3.8 8.5-8.5h-17zM8.8 243.8c0 4.7 3.8 8.5 8.5 8.5s8.5-3.8 8.5-8.5h-17zM77 218.7c0 4.7 3.8 8.5 8.5 8.5s8.5-3.8 8.5-8.5H77zM60 218.7c0 4.7 3.8 8.5 8.5 8.5s8.5-3.8 8.5-8.5H60zM42.9 218.7c0 4.7 3.8 8.5 8.5 8.5s8.5-3.8 8.5-8.5h-17zM42.4 191.9c0 4.7 3.8 8.5 8.5 8.5s8.5-3.8 8.5-8.5h-17zM25.4 191.9c0 4.7 3.8 8.5 8.5 8.5s8.5-3.8 8.5-8.5h-17zM59.5 169.2c0 4.7 3.8 8.5 8.5 8.5s8.5-3.8 8.5-8.5h-17zM42.5 169.2c0 4.7 3.8 8.5 8.5 8.5s8.5-3.8 8.5-8.5h-17zM38.6 147.1c0 4.7 3.8 8.5 8.5 8.5s8.5-3.8 8.5-8.5h-17z"/></g></svg>