<?xml version="1.0" encoding="utf-8"?>
<!-- Generator: Adobe Illustrator 18.0.0, SVG Export Plug-In . SVG Version: 6.00 Build 0)  -->
<!DOCTYPE svg PUBLIC "-//W3C//DTD SVG 1.1//EN" "http://www.w3.org/Graphics/SVG/1.1/DTD/svg11.dtd">
<svg version="1.1" id="Layer_1" xmlns="http://www.w3.org/2000/svg" xmlns:xlink="http://www.w3.org/1999/xlink" x="0px" y="0px"
	 viewBox="4.8 109.3 150 181.8" enable-background="new 4.8 109.3 150 181.8" xml:space="preserve">
<g id="BG-TREES-GROUP11">
	<rect x="82.5" y="240.7" fill="#716E69" width="11.6" height="49.7"/>
	<polygon fill="#4F9DBE" points="88.3,109.3 137.8,265.4 88.3,265.4 38.9,265.4 	"/>
	<polygon opacity="0.1" enable-background="new    " points="94.1,265.4 82.5,265.4 82.5,271 94.1,267.3 	"/>
	<rect x="117.6" y="260.4" fill="#888480" width="7.7" height="30.7"/>
	<polygon fill="#477DAA" points="121.6,177 154.8,281.9 121.6,281.9 88.3,281.9 	"/>
	<g>
		<g>
			<g>
				<defs>
					<polygon id="SVGID_1_" points="121.6,177 154.8,281.9 121.6,281.9 88.3,281.9 					"/>
				</defs>
				<clipPath id="SVGID_2_">
					<use xlink:href="#SVGID_1_"  overflow="visible"/>
				</clipPath>
				<polyline clip-path="url(#SVGID_2_)" fill="none" stroke="#338995" stroke-width="6" stroke-miterlimit="10" points="
					86.1,199.3 121.6,234.7 157,199.3 				"/>
			</g>
		</g>
		<g>
			<g>
				<defs>
					<polygon id="SVGID_3_" points="121.6,177 154.8,281.9 121.6,281.9 88.3,281.9 					"/>
				</defs>
				<clipPath id="SVGID_4_">
					<use xlink:href="#SVGID_3_"  overflow="visible"/>
				</clipPath>
				<polyline clip-path="url(#SVGID_4_)" fill="none" stroke="#338995" stroke-width="6" stroke-miterlimit="10" points="
					86.1,222.8 121.6,258.3 157,222.8 				"/>
			</g>
		</g>
		<g>
			<g>
				<defs>
					<polygon id="SVGID_5_" points="121.6,177 154.8,281.9 121.6,281.9 88.3,281.9 					"/>
				</defs>
				<clipPath id="SVGID_6_">
					<use xlink:href="#SVGID_5_"  overflow="visible"/>
				</clipPath>
				<polyline clip-path="url(#SVGID_6_)" fill="none" stroke="#338995" stroke-width="6" stroke-miterlimit="10" points="
					86.1,246.4 121.6,281.9 157,246.4 				"/>
			</g>
		</g>
		<g>
			<g>
				<defs>
					<polygon id="SVGID_7_" points="121.6,177 154.8,281.9 121.6,281.9 88.3,281.9 					"/>
				</defs>
				<clipPath id="SVGID_8_">
					<use xlink:href="#SVGID_7_"  overflow="visible"/>
				</clipPath>
				<polyline clip-path="url(#SVGID_8_)" fill="none" stroke="#338995" stroke-width="6" stroke-miterlimit="10" points="
					86.1,128.6 121.6,164 157,128.6 				"/>
			</g>
		</g>
		<g>
			<g>
				<defs>
					<polygon id="SVGID_9_" points="121.6,177 154.8,281.9 121.6,281.9 88.3,281.9 					"/>
				</defs>
				<clipPath id="SVGID_10_">
					<use xlink:href="#SVGID_9_"  overflow="visible"/>
				</clipPath>
				<polyline clip-path="url(#SVGID_10_)" fill="none" stroke="#338995" stroke-width="6" stroke-miterlimit="10" points="
					86.1,152.2 121.6,187.6 157,152.2 				"/>
			</g>
		</g>
		<g>
			<g>
				<defs>
					<polygon id="SVGID_11_" points="121.6,177 154.8,281.9 121.6,281.9 88.3,281.9 					"/>
				</defs>
				<clipPath id="SVGID_12_">
					<use xlink:href="#SVGID_11_"  overflow="visible"/>
				</clipPath>
				<polyline clip-path="url(#SVGID_12_)" fill="none" stroke="#338995" stroke-width="6" stroke-miterlimit="10" points="
					86.1,175.7 121.6,211.2 157,175.7 				"/>
			</g>
		</g>
	</g>
	<polygon opacity="0.1" enable-background="new    " points="125.4,281.9 117.6,281.9 117.6,287.1 125.4,283.6 	"/>
	<path fill="#FFFFFF" stroke="#FFFFFF" stroke-linejoin="round" stroke-miterlimit="10" d="M113.9,259.8c0,3.2,2.5,5.7,5.7,5.7
		s5.7-2.5,5.7-5.7H113.9z"/>
	<path fill="#FFFFFF" stroke="#FFFFFF" stroke-linejoin="round" stroke-miterlimit="10" d="M102.4,259.8c0,3.2,2.5,5.7,5.7,5.7
		s5.7-2.5,5.7-5.7H102.4z"/>
	<path fill="#FFFFFF" stroke="#FFFFFF" stroke-linejoin="round" stroke-miterlimit="10" d="M90.8,259.8c0,3.2,2.5,5.7,5.7,5.7
		s5.7-2.5,5.7-5.7H90.8z"/>
	<path fill="#FFFFFF" stroke="#FFFFFF" stroke-linejoin="round" stroke-miterlimit="10" d="M137.2,241.7c0,3.2,2.5,5.7,5.7,5.7
		c3.2,0,5.7-2.5,5.7-5.7H137.2z"/>
	<path fill="#FFFFFF" stroke="#FFFFFF" stroke-linejoin="round" stroke-miterlimit="10" d="M125.7,241.7c0,3.2,2.5,5.7,5.7,5.7
		c3.2,0,5.7-2.5,5.7-5.7H125.7z"/>
	<path fill="#FFFFFF" stroke="#FFFFFF" stroke-linejoin="round" stroke-miterlimit="10" d="M114.1,241.7c0,3.2,2.5,5.7,5.7,5.7
		s5.7-2.5,5.7-5.7H114.1z"/>
	<path fill="#FFFFFF" stroke="#FFFFFF" stroke-linejoin="round" stroke-miterlimit="10" d="M113.9,218.1c0,3.2,2.5,5.7,5.7,5.7
		s5.7-2.5,5.7-5.7H113.9z"/>
	<path fill="#FFFFFF" stroke="#FFFFFF" stroke-linejoin="round" stroke-miterlimit="10" d="M102.4,218.1c0,3.2,2.5,5.7,5.7,5.7
		s5.7-2.5,5.7-5.7H102.4z"/>
	<path fill="#FFFFFF" stroke="#FFFFFF" stroke-linejoin="round" stroke-miterlimit="10" d="M122,200.1c0,3.2,2.5,5.7,5.7,5.7
		c3.2,0,5.7-2.5,5.7-5.7H122z"/>
	<rect x="45.9" y="244.3" fill="#888480" width="10.8" height="46.7"/>
	<polygon fill="#57B8D5" points="51.3,127.4 97.8,274.4 51.3,274.4 4.8,274.4 	"/>
	<g>
		<g>
			<g>
				<defs>
					<polygon id="SVGID_13_" points="51.3,127.4 97.8,274.4 51.3,274.4 4.8,274.4 					"/>
				</defs>
				<clipPath id="SVGID_14_">
					<use xlink:href="#SVGID_13_"  overflow="visible"/>
				</clipPath>
				<polyline clip-path="url(#SVGID_14_)" fill="none" stroke="#3EA7B5" stroke-width="6" stroke-miterlimit="10" points="
					1.6,158.7 51.3,208.4 100.9,158.7 				"/>
			</g>
		</g>
		<g>
			<g>
				<defs>
					<polygon id="SVGID_15_" points="51.3,127.4 97.8,274.4 51.3,274.4 4.8,274.4 					"/>
				</defs>
				<clipPath id="SVGID_16_">
					<use xlink:href="#SVGID_15_"  overflow="visible"/>
				</clipPath>
				<polyline clip-path="url(#SVGID_16_)" fill="none" stroke="#3EA7B5" stroke-width="6" stroke-miterlimit="10" points="
					1.6,191.7 51.3,241.4 100.9,191.7 				"/>
			</g>
		</g>
		<g>
			<g>
				<defs>
					<polygon id="SVGID_17_" points="51.3,127.4 97.8,274.4 51.3,274.4 4.8,274.4 					"/>
				</defs>
				<clipPath id="SVGID_18_">
					<use xlink:href="#SVGID_17_"  overflow="visible"/>
				</clipPath>
				<polyline clip-path="url(#SVGID_18_)" fill="none" stroke="#3EA7B5" stroke-width="6" stroke-miterlimit="10" points="
					1.6,224.8 51.3,274.4 100.9,224.8 				"/>
			</g>
		</g>
		<g>
			<g>
				<defs>
					<polygon id="SVGID_19_" points="51.3,127.4 97.8,274.4 51.3,274.4 4.8,274.4 					"/>
				</defs>
				<clipPath id="SVGID_20_">
					<use xlink:href="#SVGID_19_"  overflow="visible"/>
				</clipPath>
				<polyline clip-path="url(#SVGID_20_)" fill="none" stroke="#3EA7B5" stroke-width="6" stroke-miterlimit="10" points="1.6,59.7 
					51.3,109.4 100.9,59.7 				"/>
			</g>
		</g>
		<g>
			<g>
				<defs>
					<polygon id="SVGID_21_" points="51.3,127.4 97.8,274.4 51.3,274.4 4.8,274.4 					"/>
				</defs>
				<clipPath id="SVGID_22_">
					<use xlink:href="#SVGID_21_"  overflow="visible"/>
				</clipPath>
				<polyline clip-path="url(#SVGID_22_)" fill="none" stroke="#3EA7B5" stroke-width="6" stroke-miterlimit="10" points="1.6,92.7 
					51.3,142.4 100.9,92.7 				"/>
			</g>
		</g>
		<g>
			<g>
				<defs>
					<polygon id="SVGID_23_" points="51.3,127.4 97.8,274.4 51.3,274.4 4.8,274.4 					"/>
				</defs>
				<clipPath id="SVGID_24_">
					<use xlink:href="#SVGID_23_"  overflow="visible"/>
				</clipPath>
				<polyline clip-path="url(#SVGID_24_)" fill="none" stroke="#3EA7B5" stroke-width="6" stroke-miterlimit="10" points="
					1.6,125.7 51.3,175.4 100.9,125.7 				"/>
			</g>
		</g>
	</g>
	<polygon opacity="0.22" fill="#FFFFFF" enable-background="new    " points="51.3,127.4 78,274.4 97.8,274.4 	"/>
	<polygon opacity="0.1" enable-background="new    " points="56.7,274.4 45.9,274.4 45.9,281.7 56.7,276.8 	"/>
	<path fill="#FFFFFF" stroke="#FFFFFF" stroke-linejoin="round" stroke-miterlimit="10" d="M40.6,247.6c0,4.5,3.6,8.1,8.1,8.1
		s8.1-3.6,8.1-8.1H40.6z"/>
	<path fill="#FFFFFF" stroke="#FFFFFF" stroke-linejoin="round" stroke-miterlimit="10" d="M24.3,247.6c0,4.5,3.6,8.1,8.1,8.1
		s8.1-3.6,8.1-8.1H24.3z"/>
	<path fill="#FFFFFF" stroke="#FFFFFF" stroke-linejoin="round" stroke-miterlimit="10" d="M72.8,223.9c0,4.5,3.6,8.1,8.1,8.1
		c4.5,0,8.1-3.6,8.1-8.1H72.8z"/>
	<path fill="#FFFFFF" stroke="#FFFFFF" stroke-linejoin="round" stroke-miterlimit="10" d="M56.7,223.9c0,4.5,3.6,8.1,8.1,8.1
		c4.5,0,8.1-3.6,8.1-8.1H56.7z"/>
	<path fill="#FFFFFF" stroke="#FFFFFF" stroke-linejoin="round" stroke-miterlimit="10" d="M40.6,223.9c0,4.5,3.6,8.1,8.1,8.1
		s8.1-3.6,8.1-8.1H40.6z"/>
	<path fill="#FFFFFF" stroke="#FFFFFF" stroke-linejoin="round" stroke-miterlimit="10" d="M36.4,200.2c0,4.5,3.6,8.1,8.1,8.1
		s8.1-3.6,8.1-8.1H36.4z"/>
	<path fill="#FFFFFF" stroke="#FFFFFF" stroke-linejoin="round" stroke-miterlimit="10" d="M20.3,200.2c0,4.5,3.6,8.1,8.1,8.1
		s8.1-3.6,8.1-8.1H20.3z"/>
	<path fill="#FFFFFF" stroke="#FFFFFF" stroke-linejoin="round" stroke-miterlimit="10" d="M56.3,177c0,4.5,3.6,8.1,8.1,8.1
		c4.5,0,8.1-3.6,8.1-8.1H56.3z"/>
	<path fill="#FFFFFF" stroke="#FFFFFF" stroke-linejoin="round" stroke-miterlimit="10" d="M40.1,177c0,4.5,3.6,8.1,8.1,8.1
		s8.1-3.6,8.1-8.1H40.1z"/>
	<path fill="#FFFFFF" stroke="#FFFFFF" stroke-linejoin="round" stroke-miterlimit="10" d="M36.4,156c0,4.5,3.6,8.1,8.1,8.1
		s8.1-3.6,8.1-8.1H36.4z"/>
</g>
<g id="Layer_1_1_">
</g>
</svg>
