<svg xmlns="http://www.w3.org/2000/svg" width="120.3" height="108.1" viewBox="0 0 120.3 108.1"><g><circle fill="#fff" cx="21.6" cy="104.6" r="2.8"/><path fill="#B87726" d="M21.7 12.7h6.2v92.6h-6.2z"/><path opacity=".1" fill="#231F20" d="M27.9 92.2l-6.2-2.1v-.7h6.2zM26.6 11.5h1.3v93.8h-1.3z"/><path fill="#B87726" d="M82.5 12.7h6.2v92.6h-6.2z"/><path opacity=".1" fill="#231F20" d="M88.7 92.2l-6.2-2.1v-.7h6.2zM87.4 11.5h1.3v93.8h-1.3z"/><path fill="#F73B69" d="M1.1 10.4h108.2v77.2H1.1z"/><path opacity=".1" fill="#231F20" d="M107.3 10.4h2v77.2h-2z"/><circle fill="#fff" cx="89.8" cy="101.3" r="3.1"/><circle fill="#fff" cx="85.8" cy="103.4" r="1.9"/><circle fill="#fff" cx="82.3" cy="102.7" r="2.8"/><ellipse fill="#fff" cx="84.9" cy="105.4" rx="5.5" ry="2.8"/><path fill="#574070" d="M11.9 19.1c-.3-.1-.5-.2-.8-.3-.1.3-.2.7-.3 1 .3.1.6.2.8.3.1-.3.2-.6.3-1z"/><path fill="#FF6400" d="M11.9 21c.1-.5-.2-1.1-.7-1.2-.5-.2-1.1.1-1.3.6-.2.5-.3 2.4.2 2.5.7.2 1.6-1.4 1.8-1.9z" opacity=".83"/><path fill="#574070" d="M6.6 16.9c-.3-.1-.5-.3-.8-.4-.2.3-.4.6-.5.9.3.2.5.3.8.4.2-.3.4-.6.5-.9z"/><path fill="#FFFF32" d="M6.3 18.7c.2-.5.1-1.1-.4-1.3-.5-.3-1.1-.1-1.4.3-.3.5-.8 2.2-.3 2.5.6.4 1.8-1 2.1-1.5z" opacity=".83"/><path fill="#574070" d="M17.4 20.2c-.3 0-.6-.1-.8-.1 0 .3-.1.7-.1 1 .3 0 .6.1.9.1-.1-.3-.1-.7 0-1z"/><path fill="#A3FF59" d="M17.7 22c0-.5-.4-1-.9-1.1-.5-.1-1 .3-1.1.9-.1.5.1 2.4.7 2.4.7.1 1.3-1.7 1.3-2.2z" opacity=".83"/><path fill="#574070" d="M22.9 20.1c-.3 0-.6.1-.8.1 0 .3.1.7.1 1 .3 0 .6-.1.9-.1-.1-.3-.1-.6-.2-1z"/><path fill="#E91C24" d="M23.7 21.8c-.1-.5-.6-.9-1.1-.9-.5.1-.9.5-.9 1.1 0 .5.6 2.3 1.2 2.2.6-.1.9-1.9.8-2.4z" opacity=".83"/><path fill="#574070" d="M28.4 18.9c-.3.1-.5.2-.8.3.1.3.2.7.3 1 .3-.1.6-.2.8-.3-.1-.3-.2-.7-.3-1z"/><path fill="#1E88E5" d="M29.5 20.4c-.2-.5-.7-.8-1.2-.6-.5.2-.8.7-.7 1.2.1.5 1.1 2.1 1.7 1.9.5-.2.4-2 .2-2.5z" opacity=".83"/><path fill="#574070" d="M33.6 16.6c-.3.1-.5.3-.8.4.2.3.3.6.5.9.3-.1.5-.3.8-.4-.2-.3-.4-.6-.5-.9z"/><path fill="#E91CC2" d="M34.9 17.8c-.3-.5-.9-.6-1.4-.3-.5.3-.7.9-.4 1.3.2.5 1.5 1.8 2 1.5.6-.3.1-2.1-.2-2.5z" opacity=".83"/><path fill="none" stroke="#574070" stroke-width=".224" stroke-miterlimit="10" d="M37.5 13.8c-10.2 8.7-25.2 8.7-35.5 0"/><path fill="#574070" d="M83.3 19.1c-.3-.1-.5-.2-.8-.3-.1.3-.2.7-.3 1 .3.1.6.2.8.3.1-.3.2-.6.3-1z"/><path fill="#FF6400" d="M83.4 21c.1-.5-.2-1.1-.7-1.2-.5-.2-1.1.1-1.3.6-.2.5-.3 2.4.2 2.5.7.2 1.6-1.4 1.8-1.9z" opacity=".83"/><path fill="#574070" d="M78.1 16.9c-.3-.1-.5-.3-.8-.4-.2.3-.4.6-.5.9.3.2.5.3.8.4.2-.3.3-.6.5-.9z"/><path fill="#FFFF32" d="M77.8 18.7c.3-.5.1-1.1-.4-1.3-.5-.3-1.1-.1-1.4.3-.3.5-.8 2.2-.3 2.5.6.4 1.8-1 2.1-1.5z" opacity=".83"/><path fill="#574070" d="M88.8 20.2c-.3 0-.6-.1-.8-.1 0 .3-.1.7-.1 1 .3 0 .6.1.9.1v-1z"/><path fill="#A3FF59" d="M89.2 22c0-.5-.4-1-.9-1.1-.5-.1-1 .3-1.1.9-.1.5.1 2.4.7 2.4.7.1 1.3-1.7 1.3-2.2z" opacity=".83"/><path fill="#574070" d="M94.4 20.1c-.3 0-.6.1-.8.1 0 .3.1.7.1 1 .3 0 .6-.1.9-.1-.1-.3-.2-.6-.2-1z"/><path fill="#E91C24" d="M95.1 21.8c-.1-.5-.6-.9-1.1-.9-.5.1-.9.5-.9 1.1 0 .5.6 2.3 1.2 2.2.7-.1.9-1.9.8-2.4z" opacity=".83"/><path fill="#574070" d="M99.9 18.9c-.3.1-.5.2-.8.3.1.3.2.7.3 1 .3-.1.6-.2.8-.3-.1-.3-.2-.7-.3-1z"/><path fill="#1E88E5" d="M100.9 20.4c-.2-.5-.7-.8-1.2-.6-.5.2-.8.7-.7 1.2.1.5 1.1 2.1 1.7 1.9.6-.2.4-2 .2-2.5z" opacity=".83"/><path fill="#574070" d="M105 16.6c-.2.1-.5.3-.8.4.2.3.3.6.5.9.3-.1.5-.3.8-.4-.1-.3-.3-.6-.5-.9z"/><path fill="#E91CC2" d="M106.4 17.8c-.3-.5-.9-.6-1.4-.3-.5.3-.7.9-.4 1.3.2.5 1.5 1.8 2 1.5.6-.3.1-2.1-.2-2.5z" opacity=".83"/><path fill="none" stroke="#574070" stroke-width=".224" stroke-miterlimit="10" d="M109 13.8c-10.2 8.7-25.2 8.7-35.5 0"/><path fill="#574070" d="M47.5 19.1c-.3-.1-.5-.2-.8-.3-.1.3-.2.7-.3 1 .3.1.6.2.8.3.1-.3.2-.6.3-1z"/><path fill="#FF6400" d="M47.5 21c.1-.5-.2-1.1-.7-1.2-.5-.2-1.1.1-1.3.6-.2.5-.3 2.4.2 2.5.7.2 1.7-1.4 1.8-1.9z" opacity=".83"/><path fill="#574070" d="M42.2 16.9c-.3-.1-.5-.3-.8-.4-.2.3-.4.6-.5.9.3.2.5.3.8.4.2-.3.4-.6.5-.9z"/><path fill="#FFFF32" d="M41.9 18.7c.2-.5.1-1.1-.4-1.3-.5-.3-1.1-.1-1.4.3-.3.5-.8 2.2-.3 2.5.6.4 1.8-1 2.1-1.5z" opacity=".83"/><path fill="#574070" d="M53 20.2c-.3 0-.6-.1-.8-.1 0 .3-.1.7-.1 1 .3 0 .6.1.9.1-.1-.3-.1-.7 0-1z"/><path fill="#A3FF59" d="M53.3 22c0-.5-.4-1-.9-1.1-.5 0-1 .3-1.1.9-.1.5.1 2.4.7 2.4.7.1 1.3-1.7 1.3-2.2z" opacity=".83"/><path fill="#574070" d="M58.5 20.1c-.3 0-.6.1-.8.1 0 .3.1.7.1 1 .3 0 .6-.1.9-.1-.1-.3-.1-.6-.2-1z"/><path fill="#E91C24" d="M59.3 21.8c-.1-.5-.6-.9-1.1-.9-.5.1-.9.5-.9 1.1 0 .5.6 2.3 1.2 2.2.6 0 .9-1.9.8-2.4z" opacity=".83"/><path fill="#574070" d="M64 18.9c-.3.1-.5.2-.8.3.1.3.2.7.3 1 .3-.1.6-.2.8-.3-.1-.3-.2-.7-.3-1z"/><path fill="#1E88E5" d="M65.1 20.4c-.2-.5-.7-.8-1.2-.6-.5.2-.8.7-.7 1.2.1.5 1.1 2.1 1.7 1.9.5-.2.4-2 .2-2.5z" opacity=".83"/><path fill="#574070" d="M69.2 16.6c-.2.1-.5.3-.8.4.2.3.3.6.5.9.3-.1.5-.3.8-.4-.2-.3-.4-.6-.5-.9z"/><path fill="#E91CC2" d="M70.5 17.8c-.3-.5-.9-.6-1.4-.3-.5.3-.7.9-.4 1.3.2.5 1.5 1.9 2 1.5.6-.3.1-2.1-.2-2.5z" opacity=".83"/><path fill="none" stroke="#574070" stroke-width=".224" stroke-miterlimit="10" d="M73.1 13.8c-10.2 8.7-25.2 8.7-35.5 0"/><path opacity=".1" fill="#231F20" d="M109.3 17.1L1.1 13.6V9h108.2z"/><path fill="#9D477A" d="M.4 9h109.4v4.6H.4zM.4 85h109.4v4.6H.4z"/><path opacity=".1" fill="#231F20" d="M.4 88.2h109.4v1.4H.4z"/><path fill="#A1ACAD" d="M40.2 13.6L53.8 0l13.6 13.6z"/><path fill="#92389C" d="M44.1 13.6l9.7-9.7 9.8 9.7z"/><path opacity=".1" d="M63.6 13.6l-9.8-9.7-1.2 1.2L56 8.2l5.7 5.4z"/><path fill="#fff" d="M30.1 9.2c0 2.3-1.9 4.1-4.1 4.1-.8 0-1.5-.2-2.2-.6-1 1-2.4 1.7-4 1.7-1.8 0-3.3-.8-4.3-2.1-.6.6-1.3.9-2.2.9-1.7 0-3.1-1.4-3.1-3.1 0-.6.1-1.1.4-1.5h19.5v.6z"/><path fill="none" stroke="#00B2EE" stroke-width="3.1" stroke-miterlimit="10" d="M112.9 98.3s7.6-3.5 3.2-6.3"/><path fill="#00B2EE" d="M105.5 65.6s4.3-9.6 8.4-11.6c0 0-1.9 8.9.5 11.6h-8.9z"/><path fill="#FFDF8A" d="M115.6 70.4c.1 3-2.3 5.6-5.4 5.7-3 .1-5.6-2.3-5.7-5.4-.1-3 2.3-5.6 5.4-5.7 3.1 0 5.6 2.4 5.7 5.4z"/><path fill="#fff" d="M116.3 66.5c0 .4-.3.7-.7.8l-11 .3c-.4 0-.7-.3-.8-.7v-1.3c0-.4.3-.7.7-.8l11-.3c.4 0 .7.3.8.7v1.3z"/><circle fill="#333" cx="107.7" cy="69.9" r="1"/><circle fill="#333" cx="112.3" cy="69.7" r="1"/><path fill="#00B2EE" d="M117.3 88.3c.4 3-1.7 5.8-4.7 6.2-3 .4-5.8-1.7-6.2-4.7l-1.1-7.5c-.4-3 1.7-5.8 4.7-6.2 3-.4 5.8 1.7 6.2 4.7l1.1 7.5z"/><path fill="#fff" d="M108.8 94l4.5 8.8 2.5-1.1-4.5-8.8"/><path fill="#00B2EE" d="M108.7 93.8l2.4 4.8 2.6-1.2-2.4-4.8"/><path fill="#333" d="M112.5 101.3l3.3.2c1 2.2 3.8 2.4 4.3.9 0 0 1.3 3.1-5.5 2.2-1.6-.2-2.8-1.8-2.1-3.3z"/><path fill="none" stroke="#fff" stroke-miterlimit="10" d="M110 76.1l2.1 14.7"/><path fill="#333" d="M106.062 87.19l10.887-1.574.4 2.77-10.887 1.574z"/><path fill="#FFD400" d="M109.987 86.318l2.87-.415.458 3.167-2.87.415z"/><circle fill="#fff" cx="114.6" cy="53" r="1.2"/><path fill="#FFDF8A" d="M104.6 69.5l-1.9-2.4s-.9 6.5 2.6 5.6l-.7-3.2zM115.1 69.3l1.8-2.5s1.2 6.4-2.3 5.7l.5-3.2z"/><circle fill="#FFDF8A" cx="108.6" cy="82.6" r="2.1"/><path fill="none" stroke="#00B2EE" stroke-width="3.1" stroke-miterlimit="10" d="M109.2 102"/><path fill="none" stroke="#fff" stroke-width="3.1" stroke-miterlimit="10" d="M115.6 96.7c-.7.7-3.7 2.5-4.4 2.3"/><path fill="#333" d="M112.1 96.9l1.9 2.7c-1.1 2.2.5 4.5 2 3.9 0 0-1.6 3-5.2-2.9-.8-1.4-.3-3.3 1.3-3.7z"/><circle fill="#FFDF8A" cx="113.8" cy="82.5" r="2.1"/><path fill="none" stroke="#00B2EE" stroke-width="2.613" stroke-miterlimit="10" d="M113.2 78.7c2.3.2 10.4 3.3-.1 4.4"/><path fill="none" stroke="#00B2EE" stroke-width="2.8" stroke-miterlimit="10" d="M108 79c-2.2.7-6.3 4.8 4.3 4.2"/><circle fill="#fff" cx="29.9" cy="103.5" r="3.1"/><circle fill="#fff" cx="26.6" cy="105.4" r="1.9"/><g opacity=".21"><path fill="#FF6400" d="M12.7 21.7c.3-.9-.3-1.9-1.2-2.2-.9-.3-1.9.2-2.2 1.1-.3.9-.6 4.2.4 4.5 1.1.3 2.7-2.5 3-3.4z"/><path fill="#FFFF32" d="M7.1 19.7c.4-.8.1-1.9-.7-2.4-.8-.5-1.9-.2-2.4.6s-1.4 4-.5 4.5c1 .6 3.2-1.9 3.6-2.7z"/><path fill="#A3FF59" d="M18.5 22.5c.1-1-.6-1.8-1.6-1.9-.9-.1-1.8.6-1.9 1.5-.2 1 .3 4.2 1.3 4.3 1.1.2 2.2-2.9 2.2-3.9z"/><path fill="#F51D26" d="M24.4 22.2c-.1-.9-1-1.6-1.9-1.5-.9.1-1.6.9-1.6 1.9.1 1 1.1 4.1 2.2 4 1.1-.2 1.5-3.5 1.3-4.4z"/><path fill="#99CFFF" d="M30.2 20.6c-.3-.9-1.3-1.4-2.2-1.1-.9.3-1.4 1.2-1.2 2.2.2.9 1.9 3.8 2.9 3.4 1-.3.8-3.6.5-4.5z"/><path fill="#F509CC" d="M35.5 17.9c-.5-.8-1.6-1.1-2.4-.6-.8.5-1.2 1.5-.7 2.4.4.9 2.7 3.3 3.6 2.7.9-.5 0-3.6-.5-4.5z"/><path fill="#FF6400" d="M84.1 21.7c.3-.9-.3-1.9-1.2-2.2-.9-.3-1.9.2-2.2 1.1-.3.9-.6 4.2.4 4.5 1.1.3 2.8-2.5 3-3.4z"/><path fill="#FFFF32" d="M78.6 19.7c.4-.8.1-1.9-.7-2.4-.8-.5-1.9-.2-2.4.6s-1.4 4-.5 4.5c.9.6 3.2-1.9 3.6-2.7z"/><path fill="#A3FF59" d="M90 22.5c.1-1-.6-1.8-1.6-1.9-.9-.1-1.8.6-1.9 1.5-.2 1 .2 4.2 1.3 4.3 1.1.2 2.1-2.9 2.2-3.9z"/><path fill="#F51D26" d="M95.9 22.2c-.1-.9-1-1.6-1.9-1.5-.9.1-1.6.9-1.6 1.9.1 1 1.1 4.1 2.2 4 1-.2 1.5-3.5 1.3-4.4z"/><path fill="#99CFFF" d="M101.6 20.6c-.3-.9-1.3-1.4-2.2-1.1-.9.3-1.4 1.2-1.2 2.2.2.9 1.9 3.8 2.9 3.4 1.1-.3.9-3.6.5-4.5z"/><path fill="#F509CC" d="M106.9 17.9c-.5-.8-1.6-1.1-2.4-.6-.8.5-1.2 1.5-.7 2.4.4.9 2.7 3.3 3.6 2.7 1-.5.1-3.6-.5-4.5z"/><path fill="#FF6400" d="M48.3 21.7c.3-.9-.3-1.9-1.2-2.2-.9-.3-1.9.2-2.2 1.1-.3.9-.6 4.2.4 4.5 1.1.3 2.7-2.5 3-3.4z"/><path fill="#FFFF32" d="M42.7 19.7c.4-.9.1-1.9-.7-2.4-.8-.5-1.9-.2-2.4.6s-1.4 4-.5 4.5c1 .6 3.2-1.9 3.6-2.7z"/><path fill="#A3FF59" d="M54.1 22.5c.1-1-.6-1.8-1.6-1.9-.9-.1-1.8.6-1.9 1.5-.1.9.2 4.2 1.3 4.3 1.1.2 2.2-2.9 2.2-3.9z"/><path fill="#F51D26" d="M60 22.2c-.1-1-1-1.6-1.9-1.5-.9.1-1.6.9-1.6 1.9.1 1 1.1 4.1 2.2 4 1.1-.2 1.5-3.5 1.3-4.4z"/><path fill="#99CFFF" d="M65.8 20.6c-.3-.9-1.3-1.4-2.2-1.1-.9.3-1.4 1.2-1.2 2.2.2.9 1.9 3.8 2.9 3.4 1-.3.8-3.6.5-4.5z"/><path fill="#F509CC" d="M71.1 17.9c-.5-.8-1.6-1.1-2.4-.6-.8.5-1.2 1.5-.7 2.4.4.9 2.7 3.3 3.6 2.7.9-.5 0-3.6-.5-4.5z"/></g><path fill="#FF6400" d="M12.4 21.8c.2-.8-.2-1.6-1-1.8-.7-.2-1.6.1-1.8.9-.3.7-.5 3.5.4 3.7.8.3 2.2-2 2.4-2.8z" opacity=".24"/><path fill="#FFFF32" d="M6.8 19.7c.4-.7.1-1.6-.6-2-.7-.4-1.6-.2-2 .5-.4.7-1.2 3.3-.4 3.8.8.4 2.6-1.6 3-2.3z" opacity=".24"/><path fill="#A3FF59" d="M18.2 22.7c0-.8-.5-1.5-1.3-1.6-.8-.1-1.5.5-1.6 1.3-.1.8.2 3.5 1.1 3.6.9.1 1.8-2.5 1.8-3.3z" opacity=".24"/><path fill="#F51D26" d="M24.1 22.4c-.1-.8-.8-1.3-1.6-1.3-.8.1-1.4.8-1.3 1.5 0 .8.9 3.4 1.8 3.3.9 0 1.3-2.7 1.1-3.5z" opacity=".24"/><path fill="#99CFFF" d="M29.9 20.9c-.3-.8-1.1-1.1-1.8-.9-.7.2-1.2 1-1 1.8.2.8 1.6 3.1 2.4 2.8.9-.2.7-2.9.4-3.7z" opacity=".24"/><path fill="#F509CC" d="M35.3 18.3c-.4-.7-1.3-.9-2-.5s-1 1.3-.6 2 2.2 2.7 3 2.3c.7-.6 0-3.2-.4-3.8z" opacity=".24"/><path fill="#FF6400" d="M83.8 21.8c.2-.8-.2-1.6-1-1.8-.7-.2-1.6.1-1.8.9-.3.7-.5 3.5.4 3.7.8.3 2.2-2 2.4-2.8z" opacity=".24"/><path fill="#FFFF32" d="M78.3 19.7c.4-.7.1-1.6-.6-2-.7-.4-1.6-.2-2 .5-.4.7-1.2 3.3-.4 3.7.8.5 2.6-1.5 3-2.2z" opacity=".24"/><path fill="#A3FF59" d="M89.7 22.7c0-.8-.5-1.5-1.3-1.6-.8-.1-1.5.5-1.6 1.3-.1.8.2 3.5 1.1 3.6.9.1 1.7-2.5 1.8-3.3z" opacity=".24"/><path fill="#F51D26" d="M95.6 22.4c-.1-.8-.8-1.3-1.6-1.3-.8.1-1.3.8-1.3 1.5 0 .8.9 3.4 1.8 3.3.9 0 1.2-2.7 1.1-3.5z" opacity=".24"/><path fill="#99CFFF" d="M101.4 20.9c-.3-.8-1.1-1.1-1.8-.9-.7.2-1.2 1-1 1.8.2.8 1.6 3.1 2.4 2.8.8-.2.6-2.9.4-3.7z" opacity=".24"/><path fill="#F509CC" d="M106.7 18.3c-.4-.7-1.3-.9-2-.5s-1 1.3-.6 2 2.2 2.7 3 2.3c.8-.6.1-3.2-.4-3.8z" opacity=".24"/><path fill="#FF6400" d="M48 21.8c.2-.8-.2-1.5-1-1.8-.7-.2-1.6.1-1.8.9-.3.7-.5 3.4.4 3.7.8.3 2.2-2 2.4-2.8z" opacity=".24"/><path fill="#FFFF32" d="M42.4 19.7c.4-.7.1-1.6-.6-2-.7-.4-1.6-.2-2 .5-.4.7-1.2 3.3-.4 3.7.8.5 2.6-1.5 3-2.2z" opacity=".24"/><path fill="#A3FF59" d="M53.8 22.7c0-.8-.5-1.5-1.3-1.6-.8-.1-1.5.5-1.6 1.3-.1.8.2 3.5 1.1 3.6.9.1 1.8-2.5 1.8-3.3z" opacity=".24"/><path fill="#F51D26" d="M59.7 22.4c-.1-.8-.8-1.3-1.6-1.3-.8.1-1.4.8-1.3 1.5 0 .8.9 3.4 1.8 3.3.9 0 1.2-2.7 1.1-3.5z" opacity=".24"/><path fill="#99CFFF" d="M65.5 20.9c-.3-.7-1.1-1.1-1.8-.9-.7.2-1.2 1-1 1.8.2.8 1.6 3.1 2.4 2.8.9-.2.7-2.9.4-3.7z" opacity=".24"/><path fill="#F509CC" d="M70.9 18.3c-.4-.7-1.3-.9-2-.5s-1 1.3-.6 2 2.2 2.7 3 2.3c.7-.6 0-3.2-.4-3.8z" opacity=".24"/></g></svg>