<svg xmlns="http://www.w3.org/2000/svg" viewBox="0 0 1440 1300"><defs><clipPath id="clip-path"><path class="cls-1" transform="rotate(-180 812.275 989.285)" d="M808.72 983.69h7.1v11.19h-7.1z"/></clipPath><style>.cls-1,.cls-11,.cls-21,.cls-24,.cls-26,.cls-9{fill:none}.cls-1{stroke:#6f00ff;stroke-width:.52px}.cls-1,.cls-11,.cls-21,.cls-24{stroke-miterlimit:10}.cls-4{fill:#9b643d}.cls-9{stroke:#b9bdc3}.cls-11,.cls-21,.cls-24,.cls-26,.cls-9{stroke-linecap:round}.cls-26,.cls-9{stroke-linejoin:round}.cls-6{fill:#bf8f68}.cls-7{fill:#f73}.cls-8{fill:#fa9664}.cls-9{stroke-width:6px}.cls-10{fill:#fff}.cls-11{stroke:#fff}.cls-11,.cls-21{stroke-width:9.4px}.cls-13{fill:#fff8bd}.cls-14{fill:#e7ad05}.cls-15{fill:#f9d232}.cls-16{fill:#764c2e}.cls-18{fill:#e0bb95}.cls-19{fill:#332e2e}.cls-21{stroke:#00acc1}.cls-22{fill:#f9ce1d}.cls-23{fill:#1976d2}.cls-24{stroke:#3949ab;stroke-width:1.9px}.cls-25{fill:#3949ab}.cls-26{stroke:#f29312;stroke-width:8.37px}.cls-30{fill:#332f2e}.cls-32{fill:#f33}.cls-34{fill:#f8c329}.cls-37{fill:#ffc5a5}</style></defs><g style="isolation:isolate"><g id="treeElements_dirt"><path d="M1150 776.5c-.39 2.32-.59 5 1.08 6.7s4.44 1.46 6.39.23 3.24-3.24 4.47-5.2l19-30.3a100.24 100.24 0 00-2.22 45.1c.53 2.91 1.55 6.25 4.32 7.31a6.16 6.16 0 006.06-1.49 18.09 18.09 0 003.72-5.35l15.82-29.88a73.27 73.27 0 004.34 38.91c1.09 2.72 2.82 5.73 5.73 6.09 3.68.45 6.2-3.54 7.55-7a110.45 110.45 0 007.49-37.76 86.27 86.27 0 0011.8 32.4c2.17 3.52 5.31 7.27 9.45 7.08a8.27 8.27 0 006.31-4.14 20.4 20.4 0 002.43-7.42 84.84 84.84 0 00-2.33-38.75 55.44 55.44 0 0013.17 22.55c3.19 3.32 7.58 6.43 12 5.29 3.38-.86 5.77-4.06 6.56-7.45s.22-6.95-.61-10.33c-4.49-18.18-16.6-33.78-31.12-45.6-9.69-7.88-20.48-14.27-31.55-20-4.41-2.29-10.31-6.65-15.35-7.07-4.53-.38-9.33 3.75-12.88 6.15a122.74 122.74 0 00-41 46.95A117.3 117.3 0 001150 776.5z" fill="#d74d19"/><path class="cls-4" d="M1167.62 1036.27a199.47 199.47 0 0163.43-10.53c.26 0-10.16 22.2-11.55 24.22-3.85 5.59-9.73 14.74-17 16-14.68 2.41-30.41-18.1-34.88-29.69z"/><path d="M1225.36 725.7a2097.9 2097.9 0 00-23.57 377.48" stroke-width="12" stroke-linejoin="round" stroke-linecap="round" stroke="#b9bdc3" fill="none"/><path class="cls-6" d="M1167.62 1036.27s28 16.62 63.43-10.53c0 0-11.13 36.83-28.59 40.18-19.65 3.78-34.84-29.65-34.84-29.65z"/><path class="cls-6" d="M1249.59 1156.68c-5.59 7-17.66 9-28.43 9.53A207.25 207.25 0 011187 1165q-5.82-.66-11.54-1.67c-8.87-1.56-18.56-4.32-22.32-10.61-2.57-4.3-1.75-9.26-.88-13.93q4.49-24.06 9-48.14c1.65-8.87 3.65-18.32 11.6-24.93 8.75-7.27 22.15-9.24 34.56-9.52a37.82 37.82 0 019.27.62 14.86 14.86 0 018.77 5.86c6.16 7.84 10.61 16.88 14.53 25.49a144 144 0 0113.07 53.69c.18 5.14 0 10.48-3.47 14.82z"/><path class="cls-7" d="M1220.06 686.77c-65.68-.19-89 87.67-81.13 91.64 8 4.08 26.17-27.85 33.76-38.74-7.21 14.57-17.5 56.51-7.45 58.22s25.57-34.15 30.89-46c-4.52 14.47-4.09 57.84 4.91 57.84 8.55 0 15.68-31.22 19-44.06 3.35 12.84 10.48 44.06 19 44.06 9 0 9.43-43.37 4.91-57.84 5.32 11.88 20.84 47.74 30.89 46s-.24-43.65-7.45-58.22c7.59 10.89 25.72 42.82 33.76 38.74 7.9-3.97-15.4-91.41-81.09-91.64z"/><path class="cls-8" d="M1220.06 659.21c-47.06-.13-63.75 62.82-58.13 65.67s18.75-20 24.19-27.76c-5.17 10.44-12.54 40.49-5.34 41.72s18.32-24.47 22.13-33c-3.23 10.38-2.92 41.45 3.53 41.45 6.12 0 11.23-22.37 13.62-31.57 2.4 9.2 7.51 31.57 13.63 31.57 6.45 0 6.76-31.07 3.52-41.45 3.81 8.52 14.94 34.21 22.14 33s-.18-31.28-5.34-41.72c5.44 7.8 18.43 30.68 24.19 27.76s-11.07-65.53-58.14-65.67z"/><path class="cls-9" d="M1204.89 923.85c3.72-53.32 53.1-97.6 106.21-76.69"/><path class="cls-7" d="M1325.6 850c-4-9.35-13.59-15.17-23.39-17.81-19.36-5.2-43.09 4.1-58.16 18.53a11.78 11.78 0 013.2-1.15 11.94 11.94 0 0110.66 3.44c2 2.11 3.14 4.86 4.75 7.28s4 4.64 6.95 4.65c3.36 0 6.09-3 6.86-6.31s0-6.68-.67-10c4.48 6.33 9 12.77 15.26 17.41 3.67 2.75 8.84 4.79 12.69 2.3 3.15-2 4-6.46 3-10.08s-3.46-6.62-5.85-9.51l9.57 9a23.43 23.43 0 005.7 4.38 8 8 0 007 .28 7.36 7.36 0 003.65-5.68 13.47 13.47 0 00-1.22-6.73z"/><path class="cls-9" d="M1204.89 923.85c4.94-49-9.41-96.58-56.77-105.44"/><path class="cls-7" d="M1176.25 824.15c-6-5-13.12-9.14-20.91-9.55s-15.66 3.13-21.35 8.6-9.45 12.7-11.83 20.23a11.27 11.27 0 00-.72 5.18 4.32 4.32 0 003.26 3.71c2.36.37 4.25-1.83 5.62-3.79l9.61-13.8a27.08 27.08 0 00-3.06 16c.25 2.15.89 4.46 2.65 5.71 2.35 1.68 5.71.75 8-1 3.46-2.55 5.59-6.47 8.49-9.63 4.47-4.87 11.73-12.52 34.73-5.45-.15-1.27-2.22-3.23-3-4.23-1.15-1.51-2.37-3-3.63-4.38a75 75 0 00-7.86-7.6z"/><path class="cls-10" d="M1200.26 668.31a4 4 0 00-4.51 2.55c-.51 1.83 1.09 4 3 3.81a10.73 10.73 0 00-4.47 1.88c-1.24 1.06-1.93 3-1.1 4.37a3.62 3.62 0 003.8 1.43 10.75 10.75 0 003.85-1.9 4.09 4.09 0 106.83.09 9.06 9.06 0 005.65.67 4.87 4.87 0 003.7-4 3.8 3.8 0 00-6.85-2.58 10.65 10.65 0 001.95-2.73 3.53 3.53 0 00-.09-3.24c-1-1.57-3.46-1.56-5-.48a38.45 38.45 0 00-3 2.62s-2.17-2.18-3.76-2.49zm86.46 158.03a4 4 0 00-4.51 2.55c-.51 1.83 1.09 4 3 3.81a10.73 10.73 0 00-4.47 1.88c-1.24 1.06-1.93 3-1.1 4.37a3.61 3.61 0 003.79 1.43 10.72 10.72 0 003.86-1.9 4.08 4.08 0 106.82.09 9 9 0 005.66.67 4.87 4.87 0 003.7-4 3.8 3.8 0 00-6.85-2.58 10.65 10.65 0 002-2.73 3.53 3.53 0 00-.09-3.24c-1-1.57-3.46-1.56-5-.48a38.45 38.45 0 00-3 2.62s-2.22-2.18-3.81-2.49zm-107.85-83.82a4 4 0 00-4.51 2.56c-.5 1.82 1.09 4 3 3.81a10.6 10.6 0 00-4.47 1.88 3.64 3.64 0 00-1.1 4.37 3.6 3.6 0 003.8 1.42 10.59 10.59 0 003.85-1.9 4.09 4.09 0 106.83.09 9 9 0 005.65.67 4.83 4.83 0 003.7-4 3.81 3.81 0 00-6.85-2.59 10.36 10.36 0 002-2.72 3.52 3.52 0 00-.09-3.24c-1-1.57-3.46-1.57-5-.48-1 .69-2.95 2.62-2.95 2.62s-2.27-2.18-3.86-2.49z"/><path class="cls-8" d="M1250.37 742.52a4 4 0 00-4.51 2.56c-.5 1.82 1.09 4 3 3.81a10.55 10.55 0 00-4.47 1.88c-1.24 1.06-1.93 3-1.11 4.37a3.6 3.6 0 003.8 1.42 10.51 10.51 0 003.85-1.9 4.09 4.09 0 106.83.09 9 9 0 005.65.67 4.83 4.83 0 003.7-4 3.81 3.81 0 00-6.85-2.59 10.36 10.36 0 002-2.72 3.49 3.49 0 00-.09-3.24c-1-1.57-3.46-1.57-5-.48-1 .69-2.95 2.62-2.95 2.62s-2.22-2.18-3.85-2.49z"/><path class="cls-7" d="M1245.89 679.2a5.1 5.1 0 11-.44.22"/><path class="cls-10" d="M1146.05 812.69a5.11 5.11 0 11-.44.22"/><path class="cls-8" d="M1148.93 835.07a5.1 5.1 0 11-.44.22m57.51-73.85a5.1 5.1 0 11-.44.22"/><path class="cls-10" d="M1223.29 693.52a5.11 5.11 0 11-.44.22"/><path class="cls-11" d="M945.23 698.22s-32.4 44-17.58 115.86"/><ellipse cx="955.36" cy="889.51" rx="62.15" ry="15.9" style="mix-blend-mode:multiply" fill="#333" opacity=".3"/><path class="cls-13" d="M880.09 882.74c2.44 15 18.41 11.82 23.27 6.09-1.43-7.38-13.79-17.98-23.27-6.09z"/><path class="cls-14" d="M850.9 903.36c7.19 13.39 21.25 5.18 24-1.82-3.78-6.54-18.9-12.54-24 1.82z"/><path class="cls-15" d="M874.88 904.24c7.07 13.46 21.2 5.38 24-1.6-3.7-6.54-18.78-12.64-24 1.6z"/><circle class="cls-16" cx="936.33" cy="680.24" r="4.24"/><circle class="cls-16" cx="934.15" cy="674.31" r="4.24"/><circle class="cls-16" cx="940.57" cy="685.81" r="4.24"/><circle class="cls-16" cx="946.83" cy="689.43" r="4.24"/><circle class="cls-16" cx="951.07" cy="690.4" r="4.24"/><circle class="cls-16" cx="974.29" cy="680.24" r="4.24"/><circle class="cls-16" cx="976.47" cy="674.31" r="4.24"/><circle class="cls-16" cx="970.05" cy="685.81" r="4.24"/><circle class="cls-16" cx="963.79" cy="689.43" r="4.24"/><circle class="cls-16" cx="959.55" cy="690.4" r="4.24"/><circle class="cls-10" cx="955.31" cy="613.57" r="6.97"/><path fill="#f44336" d="M975.35 660.56l-20.04-40.01-20.04 40.01h40.08z"/><path class="cls-10" d="M974.44 670.25a5.87 5.87 0 01-5.6-4.12 14.18 14.18 0 00-27.06 0 5.87 5.87 0 01-11.21-3.51 25.92 25.92 0 0149.48 0 5.88 5.88 0 01-3.85 7.38 6 6 0 01-1.76.25z"/><path class="cls-18" d="M981.85 656.36l-10.25 10.25a5.3 5.3 0 007.5 7.5c6.4-6.4 2.75-17.75 2.75-17.75zM939 666.61l-10.25-10.25s-3.66 11.35 2.75 17.75a5.3 5.3 0 007.5-7.5z"/><circle class="cls-18" cx="955.31" cy="670.36" r="20.04"/><circle class="cls-16" cx="946.83" cy="652.64" r="4.24"/><circle class="cls-16" cx="955.31" cy="652.64" r="5.8"/><circle class="cls-16" cx="963.79" cy="652.64" r="4.24"/><circle class="cls-16" cx="937.87" cy="662.33" r="3.63"/><circle class="cls-16" cx="972.74" cy="662.33" r="3.63"/><circle class="cls-16" cx="941.5" cy="656.88" r="4.02"/><circle class="cls-16" cx="969.12" cy="656.88" r="4.02"/><path class="cls-19" d="M951.26 664.61a4 4 0 11-4-4.05 4 4 0 014 4.05zm16.19 0a4 4 0 11-4-4.05 4 4 0 014 4.05z"/><path class="cls-10" d="M967.45 672.71a12.15 12.15 0 01-24.29 0z"/><path fill="#00acc1" d="M947.09 777.18h16.44l-8.22-82.08-8.22 82.08z"/><path class="cls-11" d="M955.31 695.1s38.59 7.25 49.51 27c5 9.07-14.66 30.46-14.66 30.46"/><path class="cls-21" d="M963.53 777.18v91.12"/><path class="cls-19" d="M984.37 873a9.09 9.09 0 01-9.09 9.09 7 7 0 01-7-7.05v-6.74h-9.4v20.54a2.35 2.35 0 002.35 2.35h23a9.23 9.23 0 009.3-8.77 9.08 9.08 0 00-9.16-9.42z"/><path class="cls-22" d="M968.23 877.39h-3.53a2.35 2.35 0 010-4.7h3.53a2.35 2.35 0 110 4.7z"/><path class="cls-21" d="M947.09 777.18v91.12"/><path class="cls-19" d="M926.24 873a9.1 9.1 0 009.1 9.09 7 7 0 007-7.05v-6.74h9.4v20.54a2.35 2.35 0 01-2.35 2.35h-23a9.23 9.23 0 01-9.3-8.77 9.08 9.08 0 019.15-9.42z"/><path class="cls-22" d="M942.39 877.39h3.53a2.35 2.35 0 100-4.7h-3.53a2.35 2.35 0 000 4.7z"/><path class="cls-10" d="M955.31 690.4A18.35 18.35 0 00937 708.75v60.64a18.35 18.35 0 0036.7 0v-60.64a18.36 18.36 0 00-18.39-18.35z"/><path class="cls-19" d="M936.96 751.48h36.7v10.02h-36.7z"/><path class="cls-22" d="M950.3 751.48h10.02v10.02H950.3z"/><path class="cls-23" d="M973.2 725.6a5.16 5.16 0 011.19 3.32V868.3h-15.56l-3.52-80.56-3.52 80.56h-15.56V728.74a4.84 4.84 0 011.14-3.08 32.42 32.42 0 003.29-5.1 4.63 4.63 0 017.32-1.15 10.82 10.82 0 0014.66 0 4.61 4.61 0 017.29 1.15 29.31 29.31 0 003.27 5.04z"/><path class="cls-24" d="M955.31 755.52a10.08 10.08 0 01-10.08-10.08v-10.79h20.16v10.79a10.08 10.08 0 01-10.08 10.08z"/><path class="cls-25" d="M944.93 726.41a2.85 2.85 0 01-2.85-2.86v-31a1.52 1.52 0 011.51-1.52h2.68a1.52 1.52 0 011.52 1.52v31a2.86 2.86 0 01-2.86 2.86z"/><circle class="cls-22" cx="944.93" cy="723.55" r="1.37"/><path class="cls-25" d="M965.69 726.41a2.86 2.86 0 01-2.86-2.86v-31a1.52 1.52 0 011.52-1.52H967a1.52 1.52 0 011.52 1.52v31a2.86 2.86 0 01-2.83 2.86z"/><circle class="cls-22" cx="965.69" cy="723.55" r="1.37"/><path class="cls-24" d="M939.75 768.64a7 7 0 006.55-6.64m24.57 6.64a7.06 7.06 0 01-6.56-6.67"/><path class="cls-26" d="M999.05 732.86L879.43 873"/><path stroke="#434343" stroke-width="8.37" stroke-linejoin="round" stroke-linecap="round" fill="none" d="M1013.01 716.51l-54.7 64.07"/><circle class="cls-18" cx="981.41" cy="758.9" r="10.02"/><path class="cls-10" d="M998.18 756.14L987.42 743a4.7 4.7 0 00-7.27 6l10.76 13.14a4.7 4.7 0 107.27-6z"/><path d="M886.2 904.9l-42.46-39.5a1.77 1.77 0 01.66-3l56.6-18.29a1.77 1.77 0 012.27 2.11L889.13 904a1.77 1.77 0 01-2.93.9z" fill="#93dae4"/><path d="M838.89 877.05l6.63-11.71m1.49 19.24l6.63-11.7m1.5 19.23l6.62-11.7m1.5 19.24l6.62-11.71m1.5 19.24l6.62-11.7m1.5 19.23l6.62-11.7" stroke="#93dae4" stroke-width="6" stroke-linejoin="round" stroke-linecap="round" fill="none"/><path class="cls-15" d="M890.89 938.39c7.07 13.46 21.2 5.38 24-1.6-3.7-6.54-18.78-12.67-24 1.6zm48.9-44.07c7.06 13.45 21.2 5.38 24-1.6-3.7-6.55-18.79-12.72-24 1.6zm0 21.44c7.06 13.46 21.2 5.38 24-1.6-3.7-6.54-18.79-12.67-24 1.6z"/><path class="cls-14" d="M929.24 919c-.25-15.19-16.51-14.35-22.15-9.38.36 7.52 11.06 19.79 22.15 9.38z"/><path class="cls-13" d="M922.92 951.71c9.65 11.74 21.85.95 23.16-6.45-4.95-5.66-20.97-8.58-23.16 6.45zm-1.23-42.84c2.43 15 18.4 11.83 23.26 6.1-1.43-7.38-13.79-17.97-23.26-6.1z"/><circle class="cls-18" cx="929.59" cy="813.87" r="10.02"/><path class="cls-10" d="M937.68 799.41a4.7 4.7 0 00-6.18-2.41l-15.57 6.79a4.7 4.7 0 003.75 8.61l15.57-6.78a4.7 4.7 0 002.43-6.21z"/></g><g id="elfElemnets"><circle class="cls-30" cx="640.25" cy="1132.1" r="19.04"/><path class="cls-18" d="M699.11 1041.81a35.84 35.84 0 00-44.46-25.16c2.23-5.82 4.76-11.67 9.27-15.92 8.32-7.84 21.92-8.19 32-2.75s16.84 15.62 20.67 26.39c12.23-1.54 27 6.23 31.17 18.29 2.53 7.33-8.37 12-18.63 14.81a23.84 23.84 0 00-6.16-10.54 23.49 23.49 0 00-23.86-5.12z"/><path class="cls-6" d="M653.51 1068.44c3.92 1.39 8.24.73 12.34 0l11.18-1.86 22.28-3.71 15.16-2.52c2.74-.46 8.56-1.43 14.6-3.07a23.8 23.8 0 00-6.16-10.54 23.53 23.53 0 00-23.83-5.12 35.85 35.85 0 00-44.46-25.16l-.7 1.86q-3 7.78-5.88 15.57c-2.3 6.1-4.64 12.41-4.4 18.94s3.72 13.42 9.87 15.61zm33.65-59.28a4.63 4.63 0 01-4.28 3.29 4.85 4.85 0 01-4.49-3.08 5.1 5.1 0 011.23-5.33c3.72-3.59 8.76.61 7.54 5.12z"/><path class="cls-4" d="M681.83 1034.25a4.63 4.63 0 01-4.28 3.3 4.86 4.86 0 01-4.48-3.08 5.09 5.09 0 011.23-5.34c3.7-3.58 8.76.61 7.53 5.12z"/><path class="cls-18" d="M666.07 1046.26a2.72 2.72 0 01-2.51 1.94 2.87 2.87 0 01-2.64-1.81 3 3 0 01.73-3.13c2.18-2.11 5.14.35 4.42 3z"/><path class="cls-6" d="M707.63 1023.5a2.72 2.72 0 01-2.51 1.93 2.83 2.83 0 01-2.63-1.81 3 3 0 01.72-3.13c2.18-2.1 5.14.36 4.42 3.01z"/><path class="cls-4" d="M677.05 1066.76l22.28-3.7a11.16 11.16 0 00-.54-1.16c-1.74-3.26-5.76-8.34-9.72-9s-8.35 4.27-10.14 7.14a11.43 11.43 0 00-1.88 6.72z"/><path class="cls-6" d="M725.2 1039.3a4.19 4.19 0 01.8-3.3 5 5 0 013.47-1 17 17 0 016.36.6 5.8 5.8 0 014 4.56c.2 2.19-1.31 4.21-3.12 5.46s-5.85 3.05-8 1.69-3.31-5.58-3.51-8.01z"/><path d="M700.75 997.88c1.49 1 3.06 2.49 2.89 4.29-.19 2-2.51 3.14-4.46 2.85s-3.58-1.6-5.1-2.87a5 5 0 01-.58 6.54 6.7 6.7 0 01-6.75 1.24 10.43 10.43 0 01-5.31-4.67 6.59 6.59 0 01-13.15-.76c-1.64 1.4-3.39 2.84-5.5 3.28s-4.69-.53-5.28-2.61c-.69-2.48 1.61-4.73 3.76-6.15 5.66-3.75 13.9-8.37 20.89-8.51 6.22-.12 13.66 3.92 18.59 7.37z" fill="#30a658"/><path class="cls-32" d="M780.48 1023l-1.22 41.34a10 10 0 01-6.26 9l-87.79 35.38a10 10 0 01-11.17-2.6l-46.51-51.77a2 2 0 011.1-3.29L778.09 1021a2 2 0 012.39 2z"/><path d="M824 1025.26v97.13" stroke="#1976d2" stroke-width="10" stroke-miterlimit="10" fill="none"/><path class="cls-30" d="M800.76 1127.64a10.16 10.16 0 0010.16 10.15 7.87 7.87 0 007.87-7.87v-7.53h10.49v22.93a2.62 2.62 0 01-2.62 2.62H801a10.3 10.3 0 01-10.39-9.78 10.14 10.14 0 0110.15-10.52z"/><path class="cls-34" d="M818.79 1132.54h3.94a2.62 2.62 0 000-5.24h-3.94a2.62 2.62 0 100 5.24z"/><path class="cls-32" d="M836.47 1025.26h-23.6l11.8-71.95 11.8 71.95z"/><path class="cls-32" d="M852.94 1020.62c0 14.69-10.69 22.73-28.27 22.73s-28.27-8-28.27-22.73c0-16.43 15.59-24.31 15.59-34.28 0-6.36-5.28-9.07-7.12-15.43a16.11 16.11 0 01-.64-4.62c0-9.62 8-18.23 20.44-18.23s20.44 8.61 20.44 18.23a16.11 16.11 0 01-.64 4.62c-1.84 6.36-7.12 9.07-7.12 15.43 0 9.97 15.59 17.85 15.59 34.28z"/><path class="cls-23" d="M852.94 1020.62c0 14.69-10.69 22.73-28.27 22.73s-28.27-8-28.27-22.73c0-16.43 15.59-24.31 15.59-34.28 0-6.36-5.28-9.07-7.12-15.43h39.6c-1.84 6.36-7.12 9.07-7.12 15.43 0 9.97 15.59 17.85 15.59 34.28z"/><path class="cls-30" d="M837.68 983.69a10.56 10.56 0 00-.33 2.65c0 2.93 1.36 5.69 3.27 8.54h-31.9c1.91-2.85 3.27-5.61 3.27-8.54a10.56 10.56 0 00-.33-2.65z"/><g clip-path="url(#clip-path)"><path class="cls-34" d="M837.68 983.69a10.56 10.56 0 00-.33 2.65c0 2.93 1.36 5.69 3.27 8.54h-31.9c1.91-2.85 3.27-5.61 3.27-8.54a10.56 10.56 0 00-.33-2.65z"/></g><path class="cls-1" transform="rotate(-180 812.275 989.285)" d="M808.72 983.69h7.1v11.19h-7.1z"/><path class="cls-4" d="M802.29 925.69a22.38 22.38 0 106.56-15.83 22.38 22.38 0 00-6.56 15.83z"/><path class="cls-30" d="M811.11 919.27a4.52 4.52 0 104.52-4.52 4.53 4.53 0 00-4.52 4.52z"/><path stroke="#f33" stroke-width="10.49" stroke-linecap="round" stroke-miterlimit="10" fill="none" d="M822.61 960.67l-19.2 61.42"/><path class="cls-34" d="M824.8 923.45a29.87 29.87 0 012.9-20.38 22.39 22.39 0 0111.17 40 29.93 29.93 0 01-14.07-19.62z"/><path class="cls-26" d="M850.82 999.59l-211.35 131.32"/><path class="cls-34" d="M826 913.77a28.67 28.67 0 01-13.27-6.28c3-4 9.7-5.93 16.84-4.51 6.42 1.27 11.46 4.93 13.33 9.16a27.52 27.52 0 01-16.9 1.63z"/><circle class="cls-4" cx="800.09" cy="1032.22" r="11.19"/><path class="cls-10" d="M814 1019.37l-18-5.66a5.25 5.25 0 10-3.14 10l18.1 5.66a5.24 5.24 0 003.13-10zm-11.5-90.61h14.24a13 13 0 01-8.48 12.09 21.52 21.52 0 01-5.76-12.09z"/><path class="cls-34" d="M827.8 924.89c-3.56 0-6.46-3.34-6.46-7.46s-2.89-7.46-6.46-7.46-6.46-3.34-6.46-7.45c10.71 0 19.38 10.01 19.38 22.37z"/><path class="cls-4" d="M808.85 909.86l-13.4 15.03h9l4.4-15.03z"/><path class="cls-34" d="M831.14 973.22c4.55 5.83 11.93 5.83 16.49 0a9 9 0 000-10.55 9 9 0 010-10.54 9 9 0 000-10.55 9 9 0 010-10.55 9 9 0 000-10.55h-16.49a9 9 0 000 10.55 9 9 0 010 10.55 9 9 0 000 10.55 9 9 0 010 10.54 9 9 0 000 10.55z"/><path class="cls-32" d="M850.48 919.35l5.07-36.39L816.78 899l33.7 20.35z"/><path class="cls-10" d="M850.42 925.23a5.25 5.25 0 002.8-9.72l-34.53-21.25a5.24 5.24 0 10-5.5 8.93l34.53 21.26a5.26 5.26 0 002.7.78z"/><circle class="cls-10" cx="858.34" cy="878.7" r="5.25"/><path class="cls-4" d="M835.4 909.16s4.08 12.67-3.07 19.82a5.92 5.92 0 11-8.33-8.38z"/><path class="cls-30" d="M1289.81 735.21c.3 1.07-.75 1.64-1.47.8a66.79 66.79 0 01-9.24-15.6c-.41-1-1.51-3.11-.12-3.84s2.54 1.37 3.11 2.25a67.5 67.5 0 017.72 16.39z"/><path class="cls-30" d="M1281.07 739.84c0 .14-.08.29-.13.43a9 9 0 01-1.49 3.12 2.45 2.45 0 01-2.81.94c-1.35-.51-2.56-2.3-3.44-4.21s-1.5-4-2.33-6a12 12 0 00-.91-1.79 11.75 11.75 0 00-3.65-3.21 7.49 7.49 0 01-3.07-4.37 5.43 5.43 0 01.64-4.07 4 4 0 011.78-1.42c.22-.1.45-.19.68-.27a12.34 12.34 0 015.65-.47 16.46 16.46 0 015.26 1.72 21.29 21.29 0 012.61 1.6c.43.3.86.63 1.28 1s.54.61.67 1.48a37.78 37.78 0 01-.74 15.52z"/><path class="cls-7" d="M1281.07 739.84c0 .14-.08.29-.13.43a2.13 2.13 0 01-1.75.09c-1.35-.51-2.57-2.3-3.44-4.21s-1.5-4-2.33-6a12 12 0 00-.91-1.79 11.86 11.86 0 00-3.65-3.21 7.42 7.42 0 01-3.07-4.36 5.4 5.4 0 01-.13-1.53c.22-.1.45-.19.68-.27a12.34 12.34 0 015.65-.47 16.46 16.46 0 015.26 1.72 21.29 21.29 0 012.61 1.6c.43.3.86.63 1.28 1s.54.61.67 1.48a37.78 37.78 0 01-.74 15.52z"/><ellipse class="cls-37" cx="1276.46" cy="726.93" rx="2.35" ry="3.24" transform="rotate(-24.22 1276.545 726.95)"/><path class="cls-30" d="M1296.29 732.17l.43.16a9.27 9.27 0 003.38.69 2.45 2.45 0 002.44-1.68c.41-1.39-.28-3.43-1.28-5.28s-2.3-3.61-3.36-5.45a11.94 11.94 0 01-.88-1.8 12.08 12.08 0 01-.37-4.86 7.4 7.4 0 00-1.63-5.07 5.44 5.44 0 00-3.63-2 4.08 4.08 0 00-2.21.56 6.49 6.49 0 00-.62.39 12.34 12.34 0 00-3.79 4.22 16.52 16.52 0 00-1.79 5.25 19.71 19.71 0 00-.29 3v1.61c0 .55.16.8.78 1.42a37.86 37.86 0 0012.82 8.84z"/><path class="cls-7" d="M1296.29 732.17l.43.16a2.15 2.15 0 001.12-1.35c.41-1.39-.29-3.43-1.28-5.28s-2.3-3.61-3.36-5.45a9.15 9.15 0 01-1.25-6.65 7.41 7.41 0 00-1.63-5.08 1 1 0 00-1.76-.64 12.34 12.34 0 00-3.79 4.22 16.52 16.52 0 00-1.79 5.25 19.71 19.71 0 00-.29 3v1.61c0 .55.16.8.78 1.42a37.86 37.86 0 0012.82 8.79z"/><ellipse class="cls-37" cx="1288.77" cy="720.72" rx="2.35" ry="3.24" transform="rotate(-28.75 1288.653 720.695)"/><path class="cls-30" d="M1183.8 673.25c-1.06.35-1.67-.68-.85-1.43a67 67 0 0115.25-9.82c1-.45 3-1.62 3.83-.26s-1.27 2.59-2.13 3.19a67.46 67.46 0 01-16.1 8.32z"/><path class="cls-30" d="M1178.84 664.7l-.44-.11a9 9 0 01-3.17-1.37 2.45 2.45 0 01-1-2.77c.46-1.37 2.2-2.66 4.07-3.6s4-1.66 5.87-2.56a11.92 11.92 0 001.76-1 11.8 11.8 0 003.07-3.77 7.42 7.42 0 014.24-3.23 5.44 5.44 0 014.09.47 4.11 4.11 0 011.5 1.73c.1.22.2.44.28.67a12.25 12.25 0 01.7 5.63 16.49 16.49 0 01-1.53 5.32 19.72 19.72 0 01-1.49 2.67c-.29.44-.6.88-.92 1.32s-.59.56-1.45.72a37.92 37.92 0 01-15.58-.12z"/><path d="M1178.84 664.7l-.44-.11a2.17 2.17 0 01-.15-1.75c.46-1.37 2.19-2.65 4.07-3.6s4-1.65 5.87-2.56a11.32 11.32 0 001.75-1 11.8 11.8 0 003.07-3.77 7.44 7.44 0 014.24-3.23 5.44 5.44 0 011.53-.19c.1.22.2.44.28.67a12.25 12.25 0 01.7 5.63 16.49 16.49 0 01-1.53 5.32 19.72 19.72 0 01-1.49 2.67c-.29.44-.6.88-.92 1.32s-.59.56-1.45.72a37.92 37.92 0 01-15.53-.12z" fill="#00c1f2"/><ellipse cx="1191.56" cy="659.6" rx="3.24" ry="2.35" transform="rotate(-26.42 1191.68 659.635)" fill="#c1e8ed"/></g></g></svg>