<svg xmlns="http://www.w3.org/2000/svg" width="150" height="150" viewBox="0 0 150 150"><g><path fill="#fff" d="M65.555 68.754c0 5.937 4.692 10.746 10.474 10.746 5.78 0 10.47-4.81 10.47-10.746 0-5.935-4.69-10.747-10.47-10.747-5.782 0-10.475 4.812-10.475 10.747z"/><g stroke="#00ABE9" stroke-width="3" stroke-linecap="round" stroke-linejoin="round" stroke-miterlimit="10" fill="none"><path d="M111.52 106.255c19.99-20.52 19.99-53.913 0-74.437"/><path d="M38.996 31.818C19 52.342 19 85.734 38.996 106.255"/><path d="M101.88 96.363c14.68-15.066 14.68-39.585 0-54.653"/><path d="M48.634 41.71c-14.68 15.07-14.68 39.586 0 54.654"/><path d="M92.24 86.468c9.38-9.626 9.38-25.237 0-34.865"/><path d="M58.273 51.604c-9.383 9.628-9.38 25.24-.003 34.866"/></g><path fill="#C3161C" d="M75.746 79.936L54.99 115.128l42.253-.3z"/><path fill="#E84436" d="M75.746 79.936L54.99 115.128l31.918-.3z"/><path fill="#fff" d="M99.5 117.5c0 1.592-1.36 4-3 4h-41c-1.642 0-4-1.408-4-3v-9c0-1.592 2.358-3 4-3h40c1.64 0 4 1.408 4 3v8z"/></g></svg>