<?xml version="1.0" encoding="utf-8"?>
<!-- Generator: Adobe Illustrator 23.0.4, SVG Export Plug-In . SVG Version: 6.00 Build 0)  -->
<svg version="1.1" id="Layer_1" xmlns="http://www.w3.org/2000/svg" xmlns:xlink="http://www.w3.org/1999/xlink" x="0px" y="0px"
	 viewBox="0 0 200 250" style="enable-background:new 0 0 200 250;" xml:space="preserve">
<style type="text/css">
	.st0{fill:#EC8D62;}
	.st1{fill:#DB794C;}
	.st2{fill-rule:evenodd;clip-rule:evenodd;fill:#702716;}
	.st3{fill:#A94326;stroke:#8A2F17;stroke-width:2;}
</style>
<path class="st0" d="M180,0l20,20v110l-20,20H20L0,130V20L20,0H180z"/>
<path class="st0" d="M180,0l20,20v110l-20,20H20L0,130V20L20,0H180z"/>
<rect x="20" y="10" class="st1" width="160" height="130"/>
<polygon class="st2" points="200,20 200,230 180,250 20,250 0,230 0,20 10,10 10,140 20,150 180,150 190,140 190,10 "/>
<rect x="21" y="151" class="st3" width="13" height="23"/>
<rect x="21" y="176" class="st3" width="28" height="23"/>
<rect x="151" y="176" class="st3" width="28" height="23"/>
<rect x="151" y="201" class="st3" width="28" height="23"/>
<rect x="36" y="151" class="st3" width="13" height="23"/>
<rect x="21" y="226" class="st3" width="13" height="23"/>
<rect x="21" y="201" class="st3" width="28" height="23"/>
<rect x="36" y="226" class="st3" width="13" height="23"/>
<rect x="151" y="151" class="st3" width="13" height="23"/>
<rect x="166" y="151" class="st3" width="13" height="23"/>
<rect x="151" y="226" class="st3" width="13" height="23"/>
<rect x="166" y="226" class="st3" width="13" height="23"/>
<rect x="81" y="151" class="st3" width="18" height="23"/>
<rect x="101" y="151" class="st3" width="48" height="23"/>
<rect x="51" y="176" class="st3" width="48" height="23"/>
<rect x="51" y="151" class="st3" width="28" height="23"/>
<rect x="101" y="176" class="st3" width="18" height="23"/>
<rect x="121" y="176" class="st3" width="28" height="23"/>
<rect x="101" y="201" class="st3" width="48" height="23"/>
<rect x="101" y="226" class="st3" width="18" height="23"/>
<rect x="121" y="226" class="st3" width="28" height="23"/>
<rect x="81" y="201" class="st3" width="18" height="23"/>
<rect x="51" y="201" class="st3" width="28" height="23"/>
<rect x="51" y="226" class="st3" width="48" height="23"/>
</svg>
