<?xml version="1.0" encoding="utf-8"?>
<!-- Generator: Adobe Illustrator 23.0.0, SVG Export Plug-In . SVG Version: 6.00 Build 0)  -->
<svg version="1.1" id="Layer_1" xmlns="http://www.w3.org/2000/svg" xmlns:xlink="http://www.w3.org/1999/xlink" x="0px" y="0px"
	 viewBox="0 0 797 809" style="enable-background:new 0 0 797 809;" xml:space="preserve">
<style type="text/css">
	.st0{fill:#FF3333;}
	.st1{fill:#B71C1C;}
	.st2{fill:#F2BEA0;}
	.st3{fill:#E53935;}
	.st4{fill:#FFE14D;}
</style>
<ellipse class="st0" cx="398.5" cy="410.7" rx="398.5" ry="398.3"/>
<path class="st1" d="M266.4,27.2c-6.1,2.4-7.8,12.7-2.8,18c35.7,38.3,83,60.5,137.8,60.5c53.8,0,102.7-20.2,138.7-57
	c5.1-5.2,3.6-15.6-2.6-18.1C493.4,12.4,446.6,0,398,0C351.3,0,308.5,10.5,266.4,27.2z"/>
<path class="st2" d="M300.2,24.6c-3.3,0.8-4,5.2-1.1,7c28.4,18,63.8,28.7,102.2,28.7c37.6,0,72.4-10.3,100.5-27.6
	c2.9-1.8,2.2-6.1-1-7c-32.6-8.6-66.9-13.2-102.2-13.2C364.6,12.4,331.7,16.7,300.2,24.6L300.2,24.6z"/>
<path class="st3" d="M523.7,89.2c82.8,90.9,113.2,144,136.6,311.1c0.8,5.6,34.4,0.2,33.7-5.5C670.6,189.7,546.1,93.7,530.2,82.2
	c-1.1-0.8-2.4-1.1-3.7-0.8C522.9,82.1,521.2,86.5,523.7,89.2z"/>
<path class="st3" d="M280.9,84.2C100.1,222,102.4,378.8,66.8,462.1c-2.8,6.6-31.2,12.2-30.3,5.2C67.1,212.3,251.4,95.5,275,81.5
	c1.6-0.9,3.5-1.3,5.4-1C285.9,81.5,284.8,81.2,280.9,84.2z"/>
<path class="st3" d="M408.6,124.8c-17.6,118-19.6,319.5-5.8,389.8c1.1,5.6-8.1,8.5-9.1,2.9c-38.7-209.5-2.5-366.6,5.8-395.4
	c0.4-1.2,1.5-2.1,2.7-2.6C405.6,118.2,409.2,121.1,408.6,124.8z"/>
<path class="st3" d="M315.5,111.2c-23.8,92-42.2,251.4-37.2,308.2c0.4,4.5-7.1,6.1-7.4,1.6c-13.1-169.1,28.7-290.5,37.6-312.6
	c0.4-1,1.3-1.6,2.3-1.8C313.7,105.8,316.3,108.4,315.5,111.2L315.5,111.2z"/>
<path class="st3" d="M480.1,121.6c23.8,92,42.2,251.4,37.2,308.2c-0.4,4.5,7.1,6.1,7.4,1.6c13.1-169.1-28.7-290.5-37.6-312.6
	c-0.4-1-1.3-1.6-2.3-1.8C481.9,116.2,479.3,118.8,480.1,121.6L480.1,121.6z"/>
<ellipse class="st4" cx="555.1" cy="69.3" rx="11.3" ry="11.3"/>
<ellipse class="st4" cx="604.1" cy="96.3" rx="11.3" ry="11.3"/>
</svg>
