<svg xmlns="http://www.w3.org/2000/svg" xmlns:xlink="http://www.w3.org/1999/xlink" width="69.7" height="49.6" viewBox="0 0 69.7 49.6"><symbol id="a" viewBox="-23.2 -20.7 45.2 44.5"><g opacity=".1"><path stroke="#000" stroke-width="4" stroke-linejoin="round" d="M-20.2-.9c12.9 0 10.4.1 16.6 6.3 6 6 5.2 8.6 13.6 8.6" fill="none"/><path d="M8.4 7.2l10.9 6.4-11.1 6.2z"/></g><path stroke="#fff" stroke-width="4" stroke-linejoin="round" d="M-23.2 3.1c12.9 0 10.4.1 16.6 6.3 6 6 5.2 8.6 13.6 8.6" fill="none"/><path fill="#fff" d="M5.4 11.2l10.9 6.4-11.1 6.2z"/><g opacity=".1"><path stroke="#000" stroke-width="4" stroke-linejoin="round" d="M-20.2 13.6c12.9 0 10.4 0 16.6-6.2C2.4 1.5 1.6-1 10-1" fill="none"/><path d="M8.2-7.3l11.1 6.2L8.4 5.3z"/></g><path stroke="#fff" stroke-width="4" stroke-linejoin="round" d="M-23.2 17.6c12.9 0 10.4 0 16.6-6.2C-.6 5.5-1.4 3 7 3" fill="none"/><path fill="#fff" d="M5.2-3.3l11.1 6.2L5.4 9.3z"/></symbol><use xlink:href="#a" width="45.2" height="44.5" x="-23.2" y="-20.7" transform="matrix(1.541 0 0 -1.541 35.782 36.714)" overflow="visible"/></svg>