<svg xmlns="http://www.w3.org/2000/svg" width="150" height="150" viewBox="0 0 150 150"><path opacity=".1" d="M118.5 116.5v14h-86v-10"/><path fill="#FFCA05" d="M75.7 26.152c-19.488 0-35.285 15.798-35.285 35.285v56.88h70.57v-56.88c0-19.487-15.798-35.285-35.285-35.285z"/><path fill="#231F20" d="M75.7 26.152c-19.488 0-35.285 15.798-35.285 35.285V75.23c0-19.487 15.798-35.285 35.285-35.285s35.285 15.798 35.285 35.285V61.437c0-19.487-15.798-35.285-35.285-35.285z" opacity=".2"/><path fill="#865930" d="M114.5 123.5h-80V61.304C34.5 38.917 52.716 20.7 75.103 20.7S115.5 39.114 115.5 61.5v61l-1 1zm-70.098-10.634l61.098-.562v-51c0-16.524-13.873-29.967-30.397-29.967s-30.7 14.005-30.7 30.53v51z"/><path fill="#B27644" d="M32.5 110.5h86v15h-86z"/><path fill="#FAF9F5" d="M67.846 85.134V82.6c0-2.19.55-4.094 1.65-5.715 1.1-1.62 3.114-3.343 6.04-5.17 2.818-1.71 4.677-3.102 5.577-4.175.9-1.073 1.348-2.27 1.348-3.594 0-1.484-.643-2.612-1.932-3.39-1.29-.774-3.086-1.164-5.395-1.164-4.026 0-8.616 1.12-13.77 3.355l-4.388-7.495c5.985-2.854 12.333-4.28 19.046-4.28 5.53 0 9.924 1.13 13.186 3.39 3.262 2.258 4.893 5.27 4.893 9.036 0 2.51-.672 4.678-2.015 6.503-1.343 1.828-3.892 3.882-7.65 6.164-2.577 1.62-4.208 2.852-4.893 3.697-.683.844-1.025 1.952-1.025 3.32v2.054h-10.67zm-1.29 11.708c0-1.918.605-3.366 1.814-4.348 1.208-.982 2.965-1.472 5.274-1.472 2.228 0 3.952.503 5.174 1.506 1.22 1.005 1.832 2.442 1.832 4.314 0 1.803-.617 3.223-1.852 4.262-1.234 1.037-2.953 1.557-5.154 1.557-2.255 0-4-.507-5.235-1.522-1.235-1.016-1.853-2.448-1.853-4.296z"/></svg>