<svg xmlns="http://www.w3.org/2000/svg" width="2654.218" height="462.179" viewBox="0 0 2654.218 462.179"><path fill="#7FB2D2" d="M2654.218 452.768V166.47l-10.89 13.223-82.19 4.303-42.884-30.518-43.287 26.215-126.56-60.08-13.25 10.45-9.71-10.45-9.34 15.546-47.323 13.086-27.528-28.634-86.195-73.654-23.585 40.557-40.027 10.588-21.244 38.056-43.475 35.345-30.837-37.59-54.78 46.778-21.32-26.803-11.706 12.24-6.53 12.91-8.78-12.91-15.737-12.24-26.12 24.422-2.125-3.638-6.406 2.218-67.67-42.977-41.464 37.59-58.45-35.346L1646.24 97.1l-53.818-10.588-31.714-40.557-115.895 73.654-37.012 28.634-63.628-13.087-12.556-15.548-12.444 9.96-.52-.848h-20.416l-16.383-42.21-50.418 45.833-25.163 41.327-1.088 2.076-.582-.27-62.815 51.188-45.042-17.563-18.5 30.645-4.62-.392-29.663-49.637-58.437 12.47-14.626-12.47-142.348-30.646-24.295 10.475-16.196-13.37-72.435-46.31-62.13-23.355-16.197 23.985-43.598 24.66-61.672 46.855-31.625 28.016-35.452-41.993-25.71 33.283-1.08-1.02-26.332 13.832-31.615-24.91h-13.736l-88.284-75.235-29.088 7.767-8.3-1.447L221.44 93.54l-1.08-7.025-7.808-5.256-19.196-26.532-6.815 5.596L127.69 0 78.96 37.496 0 223.354v229.414z"/><path fill="#A8E0F9" d="M2643.33 179.693l-82.193 4.303-42.883-30.518-43.287 26.215-126.56-60.08-13.25 10.45-9.71-10.45-9.34 15.546-47.323 13.086-27.528-28.634-86.195-73.654-23.585 40.557-40.027 10.588-21.244 38.056-43.475 35.345-30.837-37.59-54.78 46.778-21.32-26.803-11.706 12.24-6.53 12.91-8.78-12.91-15.737-12.24-26.12 24.422-2.125-3.638-6.406 2.218-67.67-42.977-41.464 37.59-58.45-35.346L1646.24 97.1l-53.818-10.588-31.714-40.557-115.895 73.654-37.012 28.634-63.628-13.087-12.556-15.548-12.444 9.96-.52-.848h-20.416l-16.383-42.21-50.418 45.833-25.163 41.327-1.088 2.076-.582-.27-62.815 51.188-45.042-17.563-18.5 30.645-4.62-.392-29.663-49.637-58.437 12.47-14.626-12.47-142.348-30.646-24.295 10.475-16.196-13.37-72.435-46.31-62.13-23.355-16.197 23.985-43.598 24.66-61.672 46.855-31.625 28.016-35.452-41.993-25.71 33.283-1.08-1.02-26.332 13.832-31.615-24.91h-13.736l-88.284-75.235-29.088 7.767-8.3-1.447L221.44 93.54l-1.08-7.025-7.808-5.256-19.196-26.532-6.815 5.596L127.69 0 78.96 37.496l-35.338 83.18 68.678-36.98 29.998 95.995 49.498-59.996 37.498 46.498 68.997-12 59.998 80.996 55.497 52.498 47.997-64.497 31.5 26.998 16.498-33 115.494-55.496 13.5 34.498 50.997-50.997 124.495 68.997 52.497-22.5 110.995 44.998 37.498-7.5 28.498 42 12-24 41.998 25.5 15-27 73.496 1.5 67.497-65.997 6 31.5 35.998-43.498 50.998 25.5 6-31.5h83.996l104.995-50.997 41.997 64.496 62.996-14.998 80.996 62.997 55.497-24 64.496 31.5 41.998-33 42 27 59.996-39 12 28.5 10.5-19.5h44.997l22.5-41.997 64.495-25.5-12 43.5 53.998-36 47.998 39 88.495-18-19.5 37.498 73.497-29.998 44.998 34.498 9-12 91.494 42 38.997-25.5h91.04v-37.22z"/><path fill="#F3F3F3" d="M2094.957 246.314h-15.37l-11.824 215.865h39.018zm-699.137 0h-15.37l-11.823 215.865h39.018zm-699.135 0h-15.37L669.49 462.18h39.02z"/><path fill="#F3F3F3" d="M0 230.97h2654.218v18.32H0z"/></svg>