<svg xmlns="http://www.w3.org/2000/svg" viewBox="0 0 57.98 47"><defs><style>.cls-1{isolation:isolate;}.cls-2{opacity:0.2;mix-blend-mode:multiply;}.cls-3{fill:#333;}.cls-4{fill:#666;}.cls-5{fill:#ccc;}.cls-6{fill:#fff;}.cls-7{fill:#b3b3b3;}.cls-8{fill:#e6e6e6;}.cls-9{fill:#4d4d4d;}</style></defs><title>icon_wrap_battle</title><g class="cls-1"><g id="Layer_2" data-name="Layer 2"><g id="icon"><g class="cls-2"><path d="M56.29,47H3.69A1.72,1.72,0,0,1,2,45.31v-41A2.23,2.23,0,0,1,4.23,2.06H55.69a2.23,2.23,0,0,1,2.23,2.23V45.37A1.59,1.59,0,0,1,56.29,47Z"/><path d="M56.41,43.62H3.57A1.59,1.59,0,0,1,2,42.05V3.15A1.18,1.18,0,0,1,3.15,2H56.83A1.18,1.18,0,0,1,58,3.15V42A1.61,1.61,0,0,1,56.41,43.62Z"/><circle cx="23.05" cy="23.29" r="17.01"/><circle cx="23.05" cy="23.29" r="14.78"/><circle cx="23.05" cy="23.29" r="1.45"/><circle cx="49.55" cy="9.71" r="4.28"/><circle cx="49.59" cy="9.69" r="2.77"/><rect x="36.49" y="22.14" width="21.84" height="1.39" transform="translate(17.3 65.98) rotate(-80.82)"/><path d="M49.29,6l1.69.3a.73.73,0,0,1,.6.79l-1,6.09a.72.72,0,0,1-.78.6l-1.69-.3a.72.72,0,0,1-.61-.78l1-6.1A.68.68,0,0,1,49.29,6Z"/><path d="M45,32.22l1.93.3a.6.6,0,0,1,.48.67l-.6,3.8a.59.59,0,0,1-.66.48l-1.94-.3a.6.6,0,0,1-.48-.67l.61-3.8A.55.55,0,0,1,45,32.22Z"/><circle cx="51.71" cy="33.13" r="1.57"/><rect x="51.46" y="31.56" width="0.48" height="1.51"/><circle cx="51.69" cy="37.17" r="1.57"/><rect x="51.67" y="36.49" width="1.51" height="0.48" transform="translate(-11.53 34.02) rotate(-32.59)"/></g><path class="cls-3" d="M54.29,45H1.69A1.72,1.72,0,0,1,0,43.31v-41A2.23,2.23,0,0,1,2.23.06H53.69a2.23,2.23,0,0,1,2.23,2.23V43.37A1.59,1.59,0,0,1,54.29,45Z"/><path class="cls-4" d="M54.41,41.62H1.57A1.59,1.59,0,0,1,0,40.05V1.15A1.18,1.18,0,0,1,1.15,0H54.83A1.18,1.18,0,0,1,56,1.15V40A1.61,1.61,0,0,1,54.41,41.62Z"/><circle class="cls-3" cx="21.05" cy="21.29" r="17.01"/><circle class="cls-5" cx="21.05" cy="21.29" r="14.78"/><circle class="cls-6" cx="21.05" cy="21.29" r="1.45"/><circle class="cls-7" cx="47.55" cy="7.71" r="4.28"/><circle class="cls-8" cx="47.59" cy="7.69" r="2.77"/><rect class="cls-8" x="34.49" y="20.14" width="21.84" height="1.39" transform="translate(17.6 62.33) rotate(-80.82)"/><path class="cls-6" d="M47.29,4l1.69.3a.73.73,0,0,1,.6.79l-1,6.09a.72.72,0,0,1-.78.6l-1.69-.3a.72.72,0,0,1-.61-.78l1-6.1A.68.68,0,0,1,47.29,4Z"/><path class="cls-6" d="M43,30.22l1.93.3a.6.6,0,0,1,.48.67l-.6,3.8a.59.59,0,0,1-.66.48l-1.94-.3a.6.6,0,0,1-.48-.67l.61-3.8A.55.55,0,0,1,43,30.22Z"/><circle class="cls-6" cx="49.71" cy="31.13" r="1.57"/><rect class="cls-9" x="49.46" y="29.56" width="0.48" height="1.51"/><circle class="cls-6" cx="49.69" cy="35.17" r="1.57"/><rect class="cls-9" x="49.67" y="34.49" width="1.51" height="0.48" transform="translate(-10.77 32.63) rotate(-32.59)"/></g></g></g></svg>