<svg xmlns="http://www.w3.org/2000/svg" width="132.1" height="270" viewBox="0 0 134.1 270"><g><g data-name="Bell"><g><path fill="#ec407a" d="M42.5 184.9h23.4l-11.7-59.1-11.7 59.1z"/><path d="M54.2 119.1a28.6 28.6 0 0 0-28.5 28.5v23.9a28.5 28.5 0 0 0 57 0v-23.9a28.5 28.5 0 0 0-28.5-28.5z" fill="#ec407a"/><g><path fill="#332e2e" d="M25.7 157.2h57v14.24h-57z"/><path fill="#f9ce1d" d="M47.1 157.2h14.2v14.24H47.1z"/></g><g><path d="M54.2 125.8c36.3-4.9 61.6 27.6 61.6-14" fill="none" stroke="#ec407a" stroke-linecap="round" stroke-miterlimit="10" stroke-width="13.3574"/><circle cx="113.2" cy="95.6" r="14.2" fill="#9b643d"/><path d="M134 106.6a6.7 6.7 0 0 0-7.7-5.5l-23.8 3.9a6.7 6.7 0 0 0 2.1 13.2l23.9-3.9a6.8 6.8 0 0 0 5.5-7.7z" fill="#fff"/></g><path d="M65.9 184.9v52.6" fill="none" stroke="#ec407a" stroke-linecap="round" stroke-miterlimit="10" stroke-width="13.3574"/><g><path d="M42.5 184.9v52.6" fill="none" stroke="#ec407a" stroke-linecap="round" stroke-miterlimit="10" stroke-width="13.3574"/><g><path d="M12.9 244.1a13 13 0 0 0 12.9 13 10.1 10.1 0 0 0 10.1-10v-9.6h13.3v29.2a3.3 3.3 0 0 1-3.3 3.3H13.2A13.1 13.1 0 0 1 0 257.5a12.9 12.9 0 0 1 12.9-13.4z" fill="#332e2e"/><path d="M35.9 250.4h5a3.4 3.4 0 0 0 0-6.7h-5a3.4 3.4 0 1 0 0 6.7z" fill="#f9ce1d"/></g></g></g></g></g></svg>