<svg xmlns="http://www.w3.org/2000/svg" width="146.7" height="270"><g><g><g><path fill="#32a558" d="M61.5 184.9h23.4l-11.7-59.1-11.7 59.1z"/><path d="M73.2 119.1a28.6 28.6 0 0 0-28.5 28.5v23.9a28.5 28.5 0 0 0 57 0v-23.9a28.6 28.6 0 0 0-28.5-28.5z" fill="#ee3c39"/></g><path d="M84.9 184.9v52.6" fill="none" stroke="#ee3c39" stroke-miterlimit="10" stroke-width="13.3574"/><g><path d="M61.5 184.9v52.6" fill="none" stroke="#ee3c39" stroke-miterlimit="10" stroke-width="13.3574"/><g><path d="M31.9 244.1a13 13 0 0 0 12.9 13 10 10 0 0 0 10-10v-9.6h13.4v29.2a3.3 3.3 0 0 1-3.3 3.3H32.2a13 13 0 1 1-.3-25.9z" fill="#332e2e"/><path d="M54.8 250.4h5.1a3.4 3.4 0 0 0 0-6.7h-5.1a3.4 3.4 0 0 0 0 6.7z" fill="#f9ce1d"/></g></g><g><path fill="#332e2e" d="M44.7 157.2h57v14.24h-57z"/><path fill="#f9ce1d" d="M66.1 157.2h14.2v14.24H66.1z"/></g><g><path d="M85.7 121c0 .3.1.6.1.9 0 9.9-5.6 18-12.5 18s-12.4-8.1-12.4-18c0-.4.1-.7.1-1" fill="none" stroke="#f9ce1d" stroke-linecap="round" stroke-linejoin="round" stroke-width="1.952"/><path d="M77.6 147.1v5.7l-4.3-1.5a24.4 24.4 0 0 0-4.4 1.5v-5.7a4.4 4.4 0 0 1 8.7 0z" fill="#f9ce1d"/><path d="M76.6 145h-6.4a3.7 3.7 0 0 0-.6 2.1 3.8 3.8 0 0 0 1.9 3.3 4.1 4.1 0 0 0 1.9.5 3.8 3.8 0 0 0 3.8-3.8 4.7 4.7 0 0 0-.6-2.1z" fill="#fff" opacity=".3"/><path d="M72.6 140.7h1.7v3.4h-1.7z" fill="#f9ce1d"/><circle cx="74.8" cy="146.5" r=".7" fill="#f9ce1d"/><circle cx="71.8" cy="146.5" r=".7" fill="#f9ce1d"/></g></g><g data-name="Turn Table"><path d="M28.9 199.7l-17.5 17.5m124.4 0l-17.5-17.5m-106.6 65v-65.8" fill="none" stroke="#424242" stroke-miterlimit="10" stroke-width="3.481"/><circle cx="11.8" cy="265.3" r="4.3" fill="#333"/><path d="M135 264.7v-65.8" fill="none" stroke="#424242" stroke-miterlimit="10" stroke-width="3.481"/><circle cx="135.2" cy="265.3" r="4.3" fill="#333"/><path d="M0 189.3h146.7V203H0z" fill="#565656"/><path d="M4.1 181.1h41.1v8.2H4.1z" fill="#424242"/><path d="M42.5 177H6.8l-2.7 4.1h41.2z" fill="#565656"/><path d="M101.4 181.1h41.1v8.2h-41.1z" fill="#424242"/><path d="M139.5 177h-35.7l-2.7 4.1h41.1l-2.7-4.1z" fill="#565656"/><path d="M52.1 181.1h42.5v8.2H52.1z" fill="#424242"/><path d="M66 177h2.7v4.1H66zm12.6 0h2.7v4.1h-2.7zm-6.3 0H75v4.1h-2.7zm-12.7 0h2.7v4.1h-2.7z" fill="#b5b5b5"/><path d="M85 177h2.7v4.1H85z" fill="#f9ce1d"/><path d="M42.5 177H6.8M139.5 177h-35.7" fill="#565656" stroke="#fff" stroke-miterlimit="10" stroke-width="1.161"/></g></g></svg>