<svg xmlns="http://www.w3.org/2000/svg" width="201.2" height="271.8"><g><g><g><g><circle cx="103.1" cy="9.9" r="9.9" fill="#fff"/><path fill="#39f" d="M131.6 76.6l-28.5-56.8-28.4 56.8h56.9z"/></g><path d="M130.3 90.3a8.4 8.4 0 0 1-8-5.8 20.1 20.1 0 0 0-38.4 0 8.3 8.3 0 0 1-15.9-5 36.8 36.8 0 0 1 70.2 0 8.3 8.3 0 0 1-5.4 10.4 7.7 7.7 0 0 1-2.5.4z" fill="#fff"/></g><g fill="#584539"><path d="M140.8 70.6l-14.6 14.6a7.5 7.5 0 0 0 10.7 10.6c9.1-9.1 3.9-25.2 3.9-25.2zM80 85.2L65.5 70.6s-5.2 16.1 3.9 25.2a7.2 7.2 0 0 0 5.3 2.2 7.6 7.6 0 0 0 7.5-7.5 7.2 7.2 0 0 0-2.2-5.3z"/></g><circle cx="103.1" cy="90.5" r="28.4" fill="#584539"/><path d="M103.1 62a28.3 28.3 0 0 0-23.4 12.4 28.7 28.7 0 0 0 15.7-2.3 28.2 28.2 0 0 0 7.7-5.2 29.8 29.8 0 0 0 7.7 5.2 28.8 28.8 0 0 0 15.7 2.3A28.3 28.3 0 0 0 103.1 62z" fill="#a04343"/><path d="M120.4 93.8a17.3 17.3 0 1 1-34.5 0z" fill="#fff"/><g><path d="M98.1 89.2H84.6a2.7 2.7 0 0 1-2.7-2.7v-6.8a2.7 2.7 0 0 1 2.7-2.7h13.6a2.7 2.7 0 0 1 2.7 2.7v6.7a2.9 2.9 0 0 1-2.8 2.8zm23.6 0h-13.6a2.7 2.7 0 0 1-2.7-2.7v-6.8a2.7 2.7 0 0 1 2.7-2.7h13.6a2.7 2.7 0 0 1 2.7 2.7v6.7a2.8 2.8 0 0 1-2.7 2.8z" fill="#332e2e"/><path d="M100.8 83.1h4.6m19 0l5.5-3.2m-48.1 3.2l-5.5-3.2" fill="none" stroke="#787878" stroke-linecap="round" stroke-miterlimit="10" stroke-width="1.1605"/></g><path d="M134.5 95.4c1 0 1.8 1.2 1.8 2.8s-.8 2.9-1.8 2.9-1.7-1.3-1.7-2.9" fill="none" stroke="#f9ce1d" stroke-linecap="round" stroke-miterlimit="10"/><circle cx="134.5" cy="101.1" r=".9" fill="#f9ce1d"/></g></g></svg>