<svg xmlns="http://www.w3.org/2000/svg" width="148.4" height="269.6"><g><g><path d="M98.4 184.9v52.6" fill="none" stroke="#9e3494" stroke-miterlimit="10" stroke-width="13.3571"/><g><path d="M75 184.9v52.6" fill="none" stroke="#9e3494" stroke-miterlimit="10" stroke-width="13.3571"/><g><path d="M45.4 244.1a13 13 0 0 0 12.9 13 10 10 0 0 0 10-10v-9.6h13.4v29.2a3.4 3.4 0 0 1-3.4 3.3H45.7a13.1 13.1 0 0 1-13.2-12.5 12.9 12.9 0 0 1 12.9-13.4z" fill="#332e2e"/><path d="M68.3 250.4h5a3.4 3.4 0 1 0 0-6.7h-5a3.4 3.4 0 0 0 0 6.7z" fill="#f9ce1d"/></g></g><path d="M86.7 119.1a28.6 28.6 0 0 0-28.5 28.5v23.9a28.5 28.5 0 0 0 57 0v-23.9a28.6 28.6 0 0 0-28.5-28.5z" fill="#9e3494"/><g><path fill="#332e2e" d="M58.2 157.2h57v14.24h-57z"/><path fill="#f9ce1d" d="M79.6 157.2h14.2v14.24H79.6z"/></g><path d="M103.3 125.9c0 12-7.7 21.7-17.2 21.7S69 137.9 69 125.9" fill="none" stroke="#fff200" stroke-linecap="round" stroke-miterlimit="10" stroke-width="2.5144" stroke-dasharray="1.2682180404663086,1.2682180404663086"/><path d="M97.6 121.1c0 8-5.1 14.4-11.5 14.4s-11.5-6.4-11.5-14.4" fill="none" stroke="#fff200" stroke-linecap="round" stroke-miterlimit="10" stroke-width="1.681"/><g><path d="M74.8 124.1a28.8 28.8 0 0 0-19.1 27.1v39.9h15.7s-.5-48.9 3.4-67z" fill="#ee3c39"/><path d="M71.8 130.1h-2.2a2.6 2.6 0 0 1-2.5-2.9l1.2-7.7a2.5 2.5 0 0 1 2.5-2.1h4.5a1 1 0 0 1 1 1.3l-2.1 9.4a2.4 2.4 0 0 1-2.4 2zM98.4 124.1a28.8 28.8 0 0 1 19.1 27.1v39.9h-15.7s.5-48.9-3.4-67z" fill="#ee3c39"/><path d="M101.4 130.1h2.2a2.6 2.6 0 0 0 2.5-2.9l-1.2-7.7a2.5 2.5 0 0 0-2.5-2.1h-4.5a1 1 0 0 0-1 1.3l2.1 9.4a2.4 2.4 0 0 0 2.4 2z" fill="#ee3c39"/><path fill="#332e2e" d="M55.7 188.1h15.8v6H55.7zM101.5 188.1h15.8v6h-15.8z"/></g></g></g></svg>