<svg id="Layer_1" xmlns="http://www.w3.org/2000/svg" width="146.7" height="270.4"><style>.st0{fill:none;stroke:#ee3c39;stroke-width:13.3574;stroke-linecap:round;stroke-miterlimit:10}.st1{fill:#332e2e}.st2{fill:#f9ce1d}.st3{fill:#ee3c39}.st5{fill:#333}.st7{fill:#fff}.st8{fill:#e0bb95}.st9{fill:#a04343}</style><g><g><path class="st0" d="M85 185.3v52.6"/><g><path class="st0" d="M61.7 185.3v52.6"/><g><path class="st1" d="M32 244.5c0 7.2 5.8 13 13 13 5.5-.1 10-4.6 10-10.1v-9.5h13.3v29.2c0 1.8-1.5 3.3-3.3 3.3H32.4c-7.1.1-12.9-5.4-13.3-12.5-.2-7.2 5.4-13.2 12.6-13.4h.3z"/><path class="st2" d="M55 250.8h5c1.9-.3 3.1-2.1 2.8-3.9-.2-1.4-1.4-2.5-2.8-2.8h-5c-1.9-.3-3.6.9-3.9 2.8s.9 3.6 2.8 3.9c.3.1.7.1 1.1 0z"/></g></g><g><path class="st3" d="M61.7 185.3H85l-11.7-59.1-11.6 59.1z"/><path class="st3" d="M73.4 119.5c-15.7-.1-28.4 12.6-28.5 28.3v24C44 187.5 56 201 71.7 201.9c15.7.9 29.2-11.1 30.1-26.8.1-1.1.1-2.3 0-3.4V148c.1-15.7-12.6-28.4-28.3-28.5h-.1z"/></g><g><path class="st1" d="M44.9 157.6h57v14.2h-57v-14.2z"/><path class="st2" d="M66.2 157.6h14.2v14.2H66.2v-14.2z"/></g></g><g><path class="st1" d="M114.7 244.5c0 7.2-5.8 13-13 13-5.5-.1-10-4.6-10-10.1v-9.5H78.4v29.2c0 1.8 1.5 3.3 3.3 3.3h32.6c7.1.1 12.9-5.4 13.3-12.5.2-7.2-5.4-13.2-12.6-13.4h-.3z"/><path class="st2" d="M91.7 250.8h-5c-1.9-.3-3.1-2.1-2.8-3.9.2-1.4 1.4-2.5 2.8-2.8h5c1.9-.3 3.6.9 3.9 2.8s-.9 3.6-2.8 3.9c-.3.1-.7.1-1.1 0z"/></g><g><path d="M5.2 203.4l134.6 63.1m-134.7-.4l134.8-62.4" fill="none" stroke="#424242" stroke-width="3.4814" stroke-miterlimit="10"/><ellipse transform="matrix(1 -.00495 .00495 1 -1.3172 .0285)" class="st5" cx="5.1" cy="266.1" rx="4.3" ry="4.3"/><circle class="st5" cx="139.4" cy="266.1" r="4.3"/><g><path d="M0 184.7h146.7V208H0v-23.3z" fill="#424242"/><path class="st7" d="M12.3 184.7h122v4.1h-122v-4.1z"/><path class="st5" d="M71.2 184.7h4.1v4.1h-4.1v-4.1zm20.6 0h4.1v4.1h-4.1v-4.1zm20.6 0h4.1v4.1h-4.1v-4.1zm-61.7 0h4.1v4.1h-4.1v-4.1zm-20.6 0h4.1v4.1h-4.1v-4.1z"/></g></g><g><path class="st0" d="M73.4 126.2c-27.1 0-54.3 13.5-54.3 40.6"/><circle class="st8" cx="19.1" cy="175.4" r="14.2"/><path class="st7" d="M31.2 160.1H7.1c-3.7 0-6.7 3-6.7 6.7s3 6.7 6.7 6.7h24.1c3.7 0 6.7-3 6.7-6.7s-3-6.7-6.7-6.7z"/></g><g><g><path class="st0" d="M73.4 126.2c27 0 46.2 10 46.2 34.6"/></g><circle class="st8" cx="119.6" cy="173.1" r="14.2"/><path class="st7" d="M131.6 154.1h-24.1c-3.7 0-6.7 3-6.7 6.7s3 6.7 6.7 6.7h24.1c3.7 0 6.7-3 6.7-6.7s-3-6.7-6.7-6.7z"/></g><g><g><path class="st9" d="M50.6 103.5l6.4 6.4c3.5 3.5 3.5 9.2 0 12.7l-6.4-6.4c-3.5-3.5-3.5-9.2 0-12.7z"/><path class="st9" d="M50.6 116.2l6.4 6.4c3.5 3.5 3.5 9.2 0 12.7l-6.4-6.3c-3.5-3.5-3.5-9.3 0-12.8z"/><path class="st9" d="M50.6 129l6.4 6.3c3.5 3.5 3.5 9.3 0 12.8l-6.4-6.4c-3.5-3.5-3.5-9.2 0-12.7zm-.3 32.4v-6.7c.1-3.7 3-6.6 6.7-6.6v6.6c0 3.7-3 6.7-6.7 6.7z"/><path class="st9" d="M63.6 161.4v-6.7c-.1-3.6-3-6.5-6.6-6.6v6.6c-.1 3.6 2.9 6.6 6.5 6.7h.1z"/></g><g><path class="st9" d="M96.1 103.5l-6.4 6.4c-3.5 3.5-3.5 9.2 0 12.7l6.4-6.4c3.5-3.5 3.5-9.2 0-12.7z"/><path class="st9" d="M96.1 116.2l-6.4 6.4c-3.5 3.5-3.5 9.2 0 12.7l6.4-6.3c3.5-3.5 3.5-9.3 0-12.8z"/><path class="st9" d="M96.1 129l-6.4 6.3c-3.5 3.5-3.5 9.3 0 12.8l6.4-6.4c3.5-3.5 3.5-9.2 0-12.7zm.3 32.4v-6.7c-.1-3.7-3-6.6-6.7-6.6v6.6c0 3.7 3 6.7 6.7 6.7z"/><path class="st9" d="M83.1 161.4v-6.7c.1-3.6 3-6.5 6.6-6.6v6.6c.1 3.6-2.9 6.6-6.5 6.7h-.1z"/></g><g><g><circle class="st7" cx="73.4" cy="10.3" r="9.9"/><path class="st3" d="M101.8 77.1L73.3 20.2 44.9 77.1h56.9z"/></g><path class="st7" d="M100.5 84.2c-3.6 0-6.8-2.4-7.9-5.9-3.4-10.6-14.7-16.5-25.4-13.1-6.2 2-11.1 6.9-13.1 13.1-1.3 4.3-5.8 6.8-10.2 5.6-.1 0-.2 0-.2-.1-4.4-1.4-6.9-6.1-5.5-10.5 6-19.4 26.6-30.3 46-24.3 11.6 3.6 20.7 12.7 24.3 24.3 1.4 4.4-1.1 9.1-5.5 10.5-.8.2-1.7.4-2.5.4z"/></g><path class="st9" d="M39.7 91c-1-18.6 13.2-34.5 31.8-35.5S106 68.7 107 87.3c.1 1.2.1 2.4 0 3.7H39.7z"/><g><path class="st8" d="M111.1 71.1L96.5 85.7c-1.4 1.4-2.2 3.3-2.2 5.3.1 4.2 3.5 7.5 7.7 7.5 1.9 0 3.8-.8 5.2-2.2 9.1-9.1 3.9-25.2 3.9-25.2zM50.2 85.7L35.6 71.1s-5.2 16.1 3.9 25.2c3 2.9 7.8 2.9 10.7-.1 1.3-1.4 2.1-3.2 2.2-5.2 0-2-.8-3.9-2.2-5.3z"/></g><circle class="st8" cx="73.4" cy="91" r="28.5"/><g><g><path class="st1" d="M67.6 82.8c.1 3.2-2.5 5.8-5.7 5.9S56.1 86.2 56 83c-.1-3.2 2.5-5.8 5.7-5.9h.1c3.2 0 5.7 2.5 5.8 5.7zm23 0c.1 3.2-2.5 5.8-5.7 5.9S79.1 86.2 79 83s2.5-5.8 5.7-5.9h.2c3.1.1 5.6 2.6 5.7 5.7z"/></g><path class="st7" d="M90.6 94.3c.7 9.5-6.4 17.8-15.9 18.6-9.5.7-17.8-6.4-18.6-15.9-.1-.9-.1-1.8 0-2.6h34.5z"/></g><g><path class="st9" d="M73.4 62.5c0 4.6-3.7 8.3-8.3 8.3H47.6l7.3-7.2 8.7-3 9.8 1.9z"/><path class="st9" d="M73.4 62.5c-.1 4.5 3.6 8.2 8.1 8.3h17.6l-7.3-7.2-8.7-3-9.7 1.9z"/></g></g></g></svg>