<svg xmlns="http://www.w3.org/2000/svg" xmlns:xlink="http://www.w3.org/1999/xlink" viewBox="0 0 40 40"><defs><style>.cls-1{fill:#fff;}.cls-2{fill:#00acc1;}.cls-3{fill:#e0bb95;}.cls-4{fill:#332e2e;}.cls-5{fill:none;}</style><symbol id="New_Symbol_54" data-name="New Symbol 54" viewBox="0 0 40 40"><circle class="cls-1" cx="19.92" cy="3.54" r="3.54"/><polygon class="cls-2" points="30.15 24.84 19.93 7.07 9.84 24.91 30.15 24.84"/><path class="cls-1" d="M29.71,29.75a3,3,0,0,1-2.85-2.08,7.18,7.18,0,0,0-13.71,0A3,3,0,0,1,7.46,26a13.14,13.14,0,0,1,25.08-.08,3,3,0,0,1-1.94,3.73A2.8,2.8,0,0,1,29.71,29.75Z"/><path class="cls-3" d="M33.44,22.7l-5.18,5.21a2.69,2.69,0,0,0,1.92,4.58,2.68,2.68,0,0,0,1.9-.79C35.31,28.44,33.44,22.7,33.44,22.7Z"/><path class="cls-3" d="M11.75,28,6.53,22.79S4.7,28.55,8,31.78a2.63,2.63,0,0,0,1.9.78A2.69,2.69,0,0,0,11.75,28Z"/><circle class="cls-3" cx="20.01" cy="29.84" r="10.16"/><path class="cls-1" d="M26.17,31a6.16,6.16,0,1,1-12.31,0Z"/><path class="cls-4" d="M18,26.67a2.06,2.06,0,1,1-2.06-2A2,2,0,0,1,18,26.67Z"/><path class="cls-4" d="M26.16,26.65a2.06,2.06,0,1,1-2.06-2A2.07,2.07,0,0,1,26.16,26.65Z"/><rect class="cls-5" width="40" height="40"/></symbol></defs><title>sticker_cat_people</title><g id="Layer_2" data-name="Layer 2"><g id="Art"><use id="New_Symbol_54-3" data-name="New Symbol 54" width="40" height="40" xlink:href="#New_Symbol_54"/></g></g></svg>