<svg xmlns="http://www.w3.org/2000/svg" width="77" height="168" viewBox="0 0 77 168"><ellipse opacity=".14" cx="38.7" cy="147.6" rx="38.5" ry="5.1"/><path fill="#FFF" d="M28.6 111.1v27h8.2v-27m11.6 0v27h-8.2v-27"/><path fill="none" stroke="#29B6F6" stroke-width="7.425" stroke-linecap="round" stroke-miterlimit="10" d="M27.7 68c-4.4.4-15.2 1.8-14.1 10.5.7 5.4 6.6 8.2 10.6 9.9"/><path fill="#FFE08B" d="M18 88.7c0 3.3 2.7 6 6 6s6-2.7 6-6-2.7-6-6-6-6 2.7-6 6z"/><path fill="none" stroke="#2296CB" stroke-width="7.425" stroke-linecap="round" stroke-miterlimit="10" d="M49.6 68c4.4.4 15.2 1.8 14.1 10.5-.7 5.4-6.6 8.2-10.6 9.9"/><path fill="#FFE08B" d="M59.3 88.7c0 3.3-2.7 6-6 6s-6-2.7-6-6 2.7-6 6-6 6 2.7 6 6z"/><path fill="#2296CB" d="M54.4 100.8c0 8.7-7.1 15.8-15.8 15.8-8.7 0-15.8-7.1-15.8-15.8V78.9c0-8.7 7.1-15.8 15.8-15.8 8.8 0 15.8 7.1 15.8 15.8v21.9z"/><path fill="#29B6F6" d="M47.8 100.8c0 8.7-.5 15.8-9.3 15.8-8.7 0-15.8-7.1-15.8-15.8V78.9c0-8.7 7.1-15.8 15.8-15.8 8.8 0 9.3 7.1 9.3 15.8v21.9z"/><path fill="#2296CB" d="M56.8 32.6s-23.1-21.2-35-26.9c0 0 10.1 17.7 3.3 25.6l31.7 1.3z"/><path fill="#29B6F6" d="M46.9 32.6s-13.2-21.2-25-26.9c0 0 10.1 17.7 3.3 25.6l21.7 1.3z"/><path fill="#764C2E" d="M27.3 61.1c2.6-2.6 3.6-6.1 3-9.5-3.3-.6-6.9.4-9.5 3-2.6 2.6-3.6 6.1-3 9.5 3.4.6 6.9-.4 9.5-3zm24.4 0c-2.6-2.6-3.6-6.1-3-9.5 3.3-.6 6.9.4 9.5 3 2.6 2.6 3.6 6.1 3 9.5-3.4.6-7-.4-9.5-3z"/><path fill="#764C2E" d="M27.9 60.4c.3-.4.6-.8 1-1.1 3.5-2.9 8-5.4 12.7-5 4 .4 7.6 1.6 10.6 4 2.5-3 4-6.9 4-11.1C56.3 37.8 48.6 30 39 30c-9.5 0-17.3 7.7-17.3 17.2.1 5.3 2.5 10 6.2 13.2z"/><path fill="#FFE08B" d="M54.9 47.3c0 8.7-7.1 15.8-15.8 15.8-8.8 0-15.8-7.1-15.8-15.8 0-8.7 7.1-15.8 15.8-15.8 8.7-.1 15.8 7 15.8 15.8z"/><path fill="#FFF" d="M33 53.2c1 3.3 4 5.7 7.6 5.7 3.6 0 6.6-2.4 7.6-5.7H33z"/><path fill="#FFE08B" d="M40.1 52.1h-2.3l-.5-3.3h3.3z"/><path fill="#332E2E" d="M48.4 45c0 1.6-1.3 2.8-2.8 2.8-1.6 0-2.8-1.3-2.8-2.8 0-1.6 1.3-2.8 2.8-2.8 1.6 0 2.8 1.3 2.8 2.8zm-12.9 0c0 1.6-1.3 2.8-2.8 2.8-1.6 0-2.8-1.3-2.8-2.8 0-1.6 1.3-2.8 2.8-2.8 1.5 0 2.8 1.3 2.8 2.8z"/><path fill="#764C2E" d="M41.9 34.5c-2.9-.7-9.5-1.1-14.4 1.4l-1 .2c-4.9 2.5-5.2 6.7-2.3 7.4 2.9.7 13.3.3 18.2-2.2l3.1-1.7c4.8-2.5-.8-4.4-3.6-5.1z"/><path fill="#FFF" d="M57.1 36c0 1.2-.9 2.1-2.1 2.1H23.6c-1.2 0-2.1-.9-2.1-2.1v-3.9c0-1.2.9-2.1 2.1-2.1H55c1.2 0 2.1.9 2.1 2.1V36z"/><ellipse fill="#FFF" cx="19.4" cy="3.1" rx="3.4" ry="3.4"/><path fill="#2296CB" d="M28.6 111.1v14.3h8.2v-14.3"/><path fill="#332E2E" d="M37.4 136.6h-9.6c-3.2 6.2-11.4 6.2-12.6 1.7 0 0-4.4 8.5 15.4 7.3 4.7-.3 8.4-4.6 6.8-9z"/><path fill="#2296CB" d="M48.4 111.1v14.3h-8.2v-14.3"/><path fill="#332E2E" d="M39.6 136.6h9.6c3.2 6.2 11.4 6.2 12.6 1.7 0 0 4.4 8.5-15.4 7.3-4.7-.3-8.4-4.6-6.8-9z"/><path fill="none" stroke="#FFF" stroke-width=".517" stroke-miterlimit="10" d="M38.7 64v42.3"/><path fill="#2296CB" d="M61.6 116.6H16l7.2-15.6h31.2z"/><path fill="#29B6F6" d="M54 116.6H16l7.2-15.6h26.6z"/><path fill="#332E2E" d="M22.7 93.6h31.7v7.9H22.7z"/><path fill="#FFE08B" d="M23.7 44.9l-5.2-7.1s-3 18.3 7.1 16.1l-1.9-9zm30 0l5.2-7.1s3 18.3-7.1 16.1l1.9-9z"/><path fill="#FCD400" d="M34.6 93h8.2v9h-8.2z"/></svg>