<?xml version="1.0" encoding="utf-8"?>
<!-- Generator: Adobe Illustrator 18.1.0, SVG Export Plug-In . SVG Version: 6.00 Build 0)  -->
<svg version="1.1" id="Layer_1" xmlns="http://www.w3.org/2000/svg" xmlns:xlink="http://www.w3.org/1999/xlink" x="0px" y="0px"
	 width="157px" height="222px" viewBox="0 0 157 222" enable-background="new 0 0 157 222" xml:space="preserve">
<g>
	<ellipse opacity="0.14" cx="78.6" cy="200.7" rx="77.3" ry="5.9"/>
	
		<line fill="none" stroke="#B89860" stroke-width="8.7003" stroke-linecap="round" stroke-linejoin="round" stroke-miterlimit="10" x1="36.1" y1="121.6" x2="36.1" y2="196.7"/>
	
		<polyline fill="none" stroke="#B89860" stroke-width="8.7003" stroke-linecap="round" stroke-linejoin="round" stroke-miterlimit="10" points="
		122.9,131.9 105,167.5 122.8,196.1 	"/>
	<path fill="#D3AE6E" d="M115,90.1H49v-7.2c-2.2,2.9-4.7,5.5-7.5,7.9c-4.7,5.5-10.6,9.9-17.2,13l-0.1,12.3
		c0,13.6,11.1,24.6,24.7,24.6h66c13.6,0,24.7-11,24.7-24.6v-1.4C139.7,101.1,128.6,90.1,115,90.1z"/>
	<path fill="#D3AE6E" d="M48.7,59.3"/>
	<path fill="#D3AE6E" d="M49,140.7h66c13.6,0,24.7-11,24.7-24.6v-1.4c0-13.6-11.1-24.6-24.7-24.6"/>
	<g>
		<path fill="#E0E0E0" d="M128.3,93.4c0,4.2,3.4,7.7,7.7,7.7c19.4,0,21.4-11.1,21.4-15.4c-1.9,0-17.1,0-21.4,0
			C131.8,85.7,128.3,89.1,128.3,93.4z"/>
	</g>
	
		<line fill="none" stroke="#D3AE6E" stroke-width="8.7003" stroke-linecap="round" stroke-linejoin="round" stroke-miterlimit="10" x1="114.1" y1="135" x2="114.1" y2="196.7"/>
	
		<line fill="none" stroke="#D3AE6E" stroke-width="8.7003" stroke-linecap="round" stroke-linejoin="round" stroke-miterlimit="10" x1="47.5" y1="135" x2="47.5" y2="196.7"/>
	<rect x="57.7" y="89.6" fill="#DF5B18" width="39.5" height="51"/>
	
		<line fill="none" stroke="#EFB11C" stroke-width="6.2145" stroke-linecap="round" stroke-linejoin="round" stroke-miterlimit="10" x1="99.1" y1="128.8" x2="56.2" y2="128.8"/>
	<g>
		<path fill="#D3AE6E" d="M52.3,100.7V46.5c0-7.7-6.2-13.9-13.9-13.9c-7.7,0-13.9,6.2-13.9,13.9v60.1"/>
		<path fill="#E0E0E0" d="M28.8,94.3V72.8c0-1.3,0.3-2.6,0.8-3.8c1.9,2.7,5.1,4.5,8.6,4.5c3.5,0,6.5-1.7,8.4-4.2
			c0.4,1.1,0.7,2.3,0.7,3.5v21.5C47.4,94.3,37.4,114.9,28.8,94.3z"/>
		<path opacity="5.000000e-02" d="M38.4,32.7c-0.4,0-0.8,0-1.3,0.1c-6.5,2-11.3,8.1-11.3,15.3v6.4c0,29.7,17.2,36.7,26.5,23V46.5
			C52.3,38.9,46.1,32.7,38.4,32.7z"/>
		<path fill="#D3AE6E" d="M52.3,51.8v-5.3c0-7.7-6.2-13.9-13.9-13.9c-7.7,0-13.9,6.2-13.9,13.9v5.5C24.5,87.3,52.3,85.8,52.3,51.8z"
			/>
		<path fill="#D3AE6E" d="M25.5,44.6l-8.1-10.9c0,0-4.6,28.2,11,24.7L25.5,44.6z"/>
		<path fill="#D3AE6E" d="M50.2,44.6l8.1-10.9c0,0,4.6,28.2-11,24.7L50.2,44.6z"/>
		<path fill="#B0B0B0" d="M33,38.3c-1.1,0-2.1-0.9-2.1-2V22.7c0-1.1-0.9-2-2.1-2H18c-3.4,0-6.2-2.8-6.2-6.1V8c0-1.1-0.9-2-2.1-2H2.4
			c-1.1,0-2.1-0.9-2.1-2c0-1.1,0.9-2,2.1-2h7.4c3.4,0,6.2,2.8,6.2,6.1v6.5c0,1.1,0.9,2,2.1,2h10.9c3.4,0,6.2,2.8,6.2,6.1v13.5
			C35.1,37.4,34.1,38.3,33,38.3z"/>
		<path fill="#B0B0B0" d="M16.4,30.2h-6.2C6.8,30.2,4,27.4,4,24v-5.2c0-1.1,0.9-2,2.1-2c1.1,0,2.1,0.9,2.1,2V24c0,1.1,0.9,2,2.1,2
			h6.2c1.1,0,2.1-0.9,2.1-2v-4.2c0-1.1,0.9-2,2.1-2c1.1,0,2.1,0.9,2.1,2V24C22.6,27.4,19.8,30.2,16.4,30.2z"/>
		<path fill="#B0B0B0" d="M24.6,12H14.2c-1.1,0-2.1-0.9-2.1-2c0-1.1,0.9-2,2.1-2h10.3c1.1,0,2.1-0.9,2.1-2V1.6c0-1.1,0.9-2,2.1-2
			c1.1,0,2.1,0.9,2.1,2v4.2C30.7,9.2,28,12,24.6,12z"/>
		<path fill="#B0B0B0" d="M61.2,12H50.8c-3.4,0-6.2-2.8-6.2-6.1V1.6c0-1.1,0.9-2,2.1-2c1.1,0,2.1,0.9,2.1,2v4.2c0,1.1,0.9,2,2.1,2
			h10.3c1.1,0,2.1,0.9,2.1,2C63.2,11.1,62.3,12,61.2,12z"/>
		<path fill="#B0B0B0" d="M43.9,38.3c-1.1,0-2.1-0.9-2.1-2V22.7c0-3.4,2.8-6.1,6.2-6.1h10.9c1.1,0,2.1-0.9,2.1-2V8
			c0-3.4,2.8-6.1,6.2-6.1h7.3c1.1,0,2.1,0.9,2.1,2c0,1.1-0.9,2-2.1,2h-7.3c-1.1,0-2.1,0.9-2.1,2v6.5c0,3.4-2.8,6.1-6.2,6.1H48
			c-1.1,0-2.1,0.9-2.1,2v13.5C46,37.4,45.1,38.3,43.9,38.3z"/>
		<path fill="#B0B0B0" d="M66.7,30.2h-6.2c-3.4,0-6.2-2.8-6.2-6.1v-4.2c0-1.1,0.9-2,2.1-2c1.1,0,2.1,0.9,2.1,2V24c0,1.1,0.9,2,2.1,2
			h6.2c1.1,0,2.1-0.9,2.1-2v-5.2c0-1.1,0.9-2,2.1-2c1.1,0,2.1,0.9,2.1,2V24C72.9,27.4,70.1,30.2,66.7,30.2z"/>
		<path opacity="5.000000e-02" d="M38.4,70.7c-3,0-5.4-2.4-5.4-5.4l0,0c0-3,2.4-5.4,5.5-5.4l0,0c3,0,5.4,2.4,5.4,5.4l0,0
			C43.9,68.2,41.4,70.7,38.4,70.7L38.4,70.7z"/>
		<path fill="#864537" d="M37.8,70c-3,0-5.4-2.4-5.4-5.4l0,0c0-3,2.4-5.4,5.5-5.4l0,0c3,0,5.4,2.4,5.4,5.4l0,0
			C43.3,67.6,40.8,70,37.8,70L37.8,70z"/>
		<path fill="#FFFFFF" d="M31.3,52.2c-1.7,0-3-1.3-3-3l0,0c0-1.7,1.4-3,3-3l0,0c1.7,0,3,1.3,3,3l0,0C34.3,50.9,33,52.2,31.3,52.2
			L31.3,52.2z"/>
		<path fill="#231F20" d="M32.1,48c0.7,0.4,0.9,1.3,0.5,2l0,0c-0.4,0.7-1.3,0.9-2,0.5l0,0c-0.7-0.4-0.9-1.3-0.5-2l0,0
			C30.6,47.8,31.4,47.6,32.1,48L32.1,48z"/>
		<path fill="#FFFFFF" d="M45.8,52.2c1.7,0,3-1.3,3-3l0,0c0-1.7-1.4-3-3-3l0,0c-1.7,0-3,1.3-3,3l0,0C42.7,50.9,44.1,52.2,45.8,52.2
			L45.8,52.2z"/>
		<path fill="#231F20" d="M44.9,48c-0.7,0.4-0.9,1.3-0.5,2l0,0c0.4,0.7,1.3,0.9,2,0.5l0,0c0.7-0.4,0.9-1.3,0.5-2l0,0
			C46.5,47.8,45.6,47.6,44.9,48L44.9,48z"/>
	</g>
</g>
</svg>
