<svg xmlns="http://www.w3.org/2000/svg" width="157" height="222" viewBox="0 0 157 222"><ellipse opacity=".14" cx="78.6" cy="200.7" rx="77.3" ry="5.9"/><path fill="none" stroke="#B89860" stroke-width="8.7" stroke-linecap="round" stroke-linejoin="round" stroke-miterlimit="10" d="M36.1 121.6v75.1m86.8-64.8L105 167.5l17.8 28.6"/><path fill="#D3AE6E" d="M115 90.1H49v-7.2c-2.2 2.9-4.7 5.5-7.5 7.9-4.7 5.5-10.6 9.9-17.2 13l-.1 12.3c0 13.6 11.1 24.6 24.7 24.6h66c13.6 0 24.7-11 24.7-24.6v-1.4c.1-13.6-11-24.6-24.6-24.6z"/><path fill="#D3AE6E" d="M49 140.7h66c13.6 0 24.7-11 24.7-24.6v-1.4c0-13.6-11.1-24.6-24.7-24.6"/><path fill="#E0E0E0" d="M128.3 93.4c0 4.2 3.4 7.7 7.7 7.7 19.4 0 21.4-11.1 21.4-15.4H136c-4.2 0-7.7 3.4-7.7 7.7z"/><path fill="none" stroke="#D3AE6E" stroke-width="8.7" stroke-linecap="round" stroke-linejoin="round" stroke-miterlimit="10" d="M114.1 135v61.7M47.5 135v61.7"/><path fill="#DF5B18" d="M57.7 89.6h39.5v51H57.7z"/><path fill="none" stroke="#EFB11C" stroke-width="6.215" stroke-linecap="round" stroke-linejoin="round" stroke-miterlimit="10" d="M99.1 128.8H56.2"/><path fill="#D3AE6E" d="M52.3 100.7V46.5c0-7.7-6.2-13.9-13.9-13.9s-13.9 6.2-13.9 13.9v60.1"/><path fill="#E0E0E0" d="M28.8 94.3V72.8c0-1.3.3-2.6.8-3.8 1.9 2.7 5.1 4.5 8.6 4.5s6.5-1.7 8.4-4.2c.4 1.1.7 2.3.7 3.5v21.5c.1 0-9.9 20.6-18.5 0z"/><path opacity=".05" d="M38.4 32.7c-.4 0-.8 0-1.3.1-6.5 2-11.3 8.1-11.3 15.3v6.4c0 29.7 17.2 36.7 26.5 23v-31c0-7.6-6.2-13.8-13.9-13.8z"/><path fill="#D3AE6E" d="M52.3 51.8v-5.3c0-7.7-6.2-13.9-13.9-13.9s-13.9 6.2-13.9 13.9V52c0 35.3 27.8 33.8 27.8-.2z"/><path fill="#D3AE6E" d="M25.5 44.6l-8.1-10.9s-4.6 28.2 11 24.7l-2.9-13.8zm24.7 0l8.1-10.9s4.6 28.2-11 24.7l2.9-13.8z"/><path fill="#B0B0B0" d="M33 38.3c-1.1 0-2.1-.9-2.1-2V22.7c0-1.1-.9-2-2.1-2H18c-3.4 0-6.2-2.8-6.2-6.1V8c0-1.1-.9-2-2.1-2H2.4C1.3 6 .3 5.1.3 4s.9-2 2.1-2h7.4C13.2 2 16 4.8 16 8.1v6.5c0 1.1.9 2 2.1 2H29c3.4 0 6.2 2.8 6.2 6.1v13.5c-.1 1.2-1.1 2.1-2.2 2.1z"/><path fill="#B0B0B0" d="M16.4 30.2h-6.2C6.8 30.2 4 27.4 4 24v-5.2c0-1.1.9-2 2.1-2 1.1 0 2.1.9 2.1 2V24c0 1.1.9 2 2.1 2h6.2c1.1 0 2.1-.9 2.1-2v-4.2c0-1.1.9-2 2.1-2 1.1 0 2.1.9 2.1 2V24c-.2 3.4-3 6.2-6.4 6.2zM24.6 12H14.2c-1.1 0-2.1-.9-2.1-2s.9-2 2.1-2h10.3c1.1 0 2.1-.9 2.1-2V1.6c0-1.1.9-2 2.1-2 1.1 0 2.1.9 2.1 2v4.2C30.7 9.2 28 12 24.6 12zm36.6 0H50.8c-3.4 0-6.2-2.8-6.2-6.1V1.6c0-1.1.9-2 2.1-2 1.1 0 2.1.9 2.1 2v4.2c0 1.1.9 2 2.1 2h10.3c1.1 0 2.1.9 2.1 2-.1 1.3-1 2.2-2.1 2.2z"/><path fill="#B0B0B0" d="M43.9 38.3c-1.1 0-2.1-.9-2.1-2V22.7c0-3.4 2.8-6.1 6.2-6.1h10.9c1.1 0 2.1-.9 2.1-2V8c0-3.4 2.8-6.1 6.2-6.1h7.3c1.1 0 2.1.9 2.1 2s-.9 2-2.1 2h-7.3c-1.1 0-2.1.9-2.1 2v6.5c0 3.4-2.8 6.1-6.2 6.1H48c-1.1 0-2.1.9-2.1 2V36c.1 1.4-.8 2.3-2 2.3z"/><path fill="#B0B0B0" d="M66.7 30.2h-6.2c-3.4 0-6.2-2.8-6.2-6.1v-4.2c0-1.1.9-2 2.1-2 1.1 0 2.1.9 2.1 2V24c0 1.1.9 2 2.1 2h6.2c1.1 0 2.1-.9 2.1-2v-5.2c0-1.1.9-2 2.1-2 1.1 0 2.1.9 2.1 2V24c-.2 3.4-3 6.2-6.4 6.2z"/><path opacity=".05" d="M38.4 70.7c-3 0-5.4-2.4-5.4-5.4 0-3 2.4-5.4 5.5-5.4 3 0 5.4 2.4 5.4 5.4 0 2.9-2.5 5.4-5.5 5.4z"/><path fill="#864537" d="M37.8 70c-3 0-5.4-2.4-5.4-5.4 0-3 2.4-5.4 5.5-5.4 3 0 5.4 2.4 5.4 5.4 0 3-2.5 5.4-5.5 5.4z"/><path fill="#FFF" d="M31.3 52.2c-1.7 0-3-1.3-3-3s1.4-3 3-3c1.7 0 3 1.3 3 3s-1.3 3-3 3z"/><path fill="#231F20" d="M32.1 48c.7.4.9 1.3.5 2s-1.3.9-2 .5-.9-1.3-.5-2c.5-.7 1.3-.9 2-.5z"/><path fill="#FFF" d="M45.8 52.2c1.7 0 3-1.3 3-3s-1.4-3-3-3c-1.7 0-3 1.3-3 3-.1 1.7 1.3 3 3 3z"/><path fill="#231F20" d="M44.9 48c-.7.4-.9 1.3-.5 2s1.3.9 2 .5.9-1.3.5-2-1.3-.9-2-.5z"/></svg>