<svg id="Layer_1" xmlns="http://www.w3.org/2000/svg" width="443.4" height="668.9"><style>.st0{fill:#e53935}.st1{fill:#be3935}.st2{fill:#f9ce1d}.st3{opacity:.1}.st4{fill:#f1f1f1}.st5{fill:#212121}.st6{fill:#ef9a9a}.st7{fill:#fff}.st12{fill:#da4637}.st13{fill:#ffdf00}</style><path class="st0" d="M-.2 605v-44.3L69 587.9l15.4 6-1.9 4.8L55 668.9H-.2v-63.7"/><path class="st1" d="M236 450.7c-38.4 0-81.8-11.4-129.9-34.1-19.7-9.3-28.2-32.9-18.8-52.6 9.3-19.7 32.9-28.2 52.6-18.8 56.5 26.7 101.9 33.4 131.3 19.3 14.9-7.1 34.7-24.2 44.5-65.4.1-.5.2-1 .4-1.5l7.1-25.2c5.9-21 27.7-33.3 48.7-27.4 21 5.9 33.3 27.7 27.4 48.7l-6.9 24.5c-5.8 23.7-14.6 44.9-26.4 63.1-15.7 24.3-36.1 42.6-60.6 54.3-20.9 10.2-44 15.1-69.4 15.1z"/><path class="st2" d="M352.8 248.8c-2-.5-3.8-1.5-5.2-2.7-1-.8-1.9-1.8-2.6-2.9-.8-1.3-1.5-2.7-1.9-4.1-.5-1.8-.6-3.8-.2-5.8.1-.3.1-.6.2-.8.6-2.3.6-4.6 0-6.8-.4-1.7-1.2-3.2-2.2-4.6-1.8-2.5-4.4-4.4-7.6-5.3-7.2-1.9-14.7 2.5-16.6 9.7l-.1.2c-1.2 4.5-1.5 9-1.2 13.4.6 8 3.7 15.5 8.5 21.7.8 1.1 1.8 2.2 2.7 3.2 2.4 2.5 5.1 4.7 8.1 6.5 3.4 2.1 7.1 3.7 11.1 4.7 1.2.3 2.3.4 3.5.4 4.3 0 8.4-2.1 10.9-5.4 1-1.4 1.8-2.9 2.3-4.7v-.1c1.9-7.2-2.4-14.7-9.7-16.6z"/><path class="st2" d="M403.5 273.4c-5 18.8-24.2 29.9-43 25-18.8-5-30.1-24.2-25.1-43.1l10.1-38.4v-.2c5-18.7 24.2-29.9 43-25 18.9 4.9 30.1 24.2 25.2 43l-10.1 38.4c-.1.2-.1.2-.1.3z"/><path class="st2" d="M428.4 228.6l-51.5 6c-7.4.9-12.7 7.6-11.9 15 .9 7.4 7.6 12.7 15 11.9l51.5-6c7.4-.9 12.7-7.6 11.9-15-.9-7.4-7.6-12.7-15-11.9z"/><ellipse class="st3" cx="376" cy="238.2" rx="54.1" ry="6.1"/><path class="st4" d="M329.3 262.2c-7-1.8-14.2 2.4-16.1 9.4l-3.3 12.7c-1.8 7 2.4 14.2 9.4 16.1l68 17.7c7 1.8 14.2-2.4 16.1-9.4l3.3-12.7c1.8-7-2.4-14.2-9.4-16.1l-68-17.7z"/><path class="st0" d="M13.9 313.5c-.8 1.7-1.7 3.3-2.7 4.8-3 4.6-6.9 8.5-11.4 11.3v-66.1c5.7 3.7 10.2 8.8 13.3 14.5 5.6 10.7 6.3 23.8.8 35.5z"/><path class="st0" d="M-.2 605V279.9c4.4-.8 8.8-1.4 13.3-1.8 4.3-.4 8.6-.7 13-.7h1.3c5.3-.1 10.7.2 16.1.6 4.9.4 9.7 1.1 14.6 2 .7.1 1.5.3 2.2.4 1.1.2 2.2.4 3.3.7l2.7.6c1.7.4 3.4.8 5.1 1.3 2 .5 4 1.1 6 1.7 4 1.2 7.9 2.6 11.8 4.1 2 .8 4 1.6 6 2.5 4 1.7 7.8 3.6 11.6 5.6 2.8 1.5 5.6 3.1 8.3 4.7 3.6 2.2 7.1 4.5 10.5 7 3.4 2.4 6.7 5 9.8 7.7 1.6 1.3 3.1 2.7 4.7 4.1.8.7 1.5 1.4 2.3 2.1.8.7 1.5 1.4 2.2 2.1l2.2 2.2c4.4 4.5 8.5 9.1 12.2 14 4.3 5.5 8.3 11.3 11.8 17.3 0 0 0 .1.1.1.3.5.6 1 .9 1.6 3.4 5.9 6.4 12 9.1 18.2 9.1 21.4 13.7 44.8 13.1 68.5-.2 8.1-1 16.3-2.4 24.4-.2 1.3-.5 2.5-.7 3.8l-.4 1.9c-.3 1.3-.5 2.5-.8 3.8-.3 1.3-.6 2.5-.9 3.8-.7 2.5-1.4 5-2.2 7.5-1.2 3.8-2.5 7.5-4 11.2l-.2.4c-6.8 17.3-16.3 32.8-27.7 46.2-2.6 3-5.2 5.9-8 8.8-2.9 2.9-5.9 5.8-8.9 8.4-1.5 1.3-3.1 2.7-4.7 3.9-15.1 12.3-32.2 21.7-50.5 28-26.1 9-54.5 11.5-82.7 6.5"/><path class="st1" d="M-.2 605c24.2-.6 47.9-6.5 69.3-17.1 22.9-11.3 43.2-27.8 58.9-48.8 8.8-11.7 16.1-24.7 21.7-38.9 1.2-2.9 2.2-5.9 3.2-8.9 5.8-17.5 8.4-35.4 8.2-53-.1-9.3-1-18.5-2.6-27.5-1.4-7.7-3.3-15.3-5.8-22.7-4.3-13-10.2-25.5-17.6-37.1-2-3.1-4.1-6.2-6.3-9.2-17.1-23.2-40.5-42.3-68.9-54.2-1.2-.5-2.5-1-3.8-1.5-3.1-1.2-6.2-2.3-9.3-3.3-7-2.3-14-4.1-21-5.4h1.4c5.3-.1 10.7.2 16.1.6 4.9.4 9.7 1.1 14.6 2 .7.1 1.5.3 2.2.4 1.1.2 2.2.4 3.3.7l2.7.6c1.7.4 3.4.8 5.1 1.3 2 .5 4 1.1 6 1.7 4 1.2 7.9 2.6 11.8 4.1 2 .8 4 1.6 6 2.5 4 1.7 7.8 3.6 11.6 5.6 2.8 1.5 5.6 3.1 8.3 4.7 3.6 2.2 7.1 4.5 10.5 7 3.4 2.4 6.7 5 9.8 7.7 1.6 1.3 3.1 2.7 4.7 4.1.8.7 1.5 1.4 2.3 2.1.8.7 1.5 1.4 2.2 2.1.7.7 1.5 1.4 2.2 2.2 4.4 4.5 8.5 9.1 12.2 14 4.3 5.5 8.3 11.3 11.8 17.3 0 0 0 .1.1.1.3.5.6 1 .9 1.6 3.4 5.9 6.4 12 9.1 18.2 9.1 21.4 13.7 44.8 13.1 68.5-.2 8.1-1 16.3-2.4 24.4-.2 1.3-.5 2.5-.7 3.8l-.4 1.9c-.3 1.3-.5 2.5-.8 3.8-.3 1.3-.6 2.5-.9 3.8-.7 2.5-1.4 5-2.2 7.5-1.2 3.8-2.5 7.5-4 11.2l-.2.4c-6.8 17.3-16.3 32.8-27.7 46.2-2.6 3-5.2 5.9-8 8.8-2.9 2.9-5.9 5.7-8.9 8.4-1.5 1.3-3.1 2.7-4.7 3.9-15.1 12.3-32.2 21.7-50.5 28-26.1 9-54.5 11.5-82.7 6.5v-.1z"/><path class="st5" d="M182.5 502.9l-.2.4-19.4 49.5-8.3-3.2-26.6-10.5-83.6-32.8-44.6-17.5v-57.6L64 456.4l88.8 34.9z"/><path class="st2" d="M64 456.4l-19.6 49.9-44.6-17.5v-57.6z"/><path class="st6" d="M39 221.7c-.6 2.3-1.5 4.4-2.6 6.3-5.5 9.2-16.8 13.9-27.9 11-2.4-.6-4.7-1.6-6.7-2.8-.7-.4-1.3-.8-2-1.3v-39.4c5.9-4.2 13.5-5.8 21.1-3.8l.2.1c13.4 3.5 21.3 16.9 17.9 29.9zm151.7 39.7c-3.4 13.1-17.1 20.8-30.5 17.3-13.4-3.5-21.5-17-18.1-30.1 3.4-13.1 17.1-20.9 30.5-17.3 13.4 3.5 21.5 17 18.1 30.1z"/><path class="st4" d="M71.1 87.1c-3.8 14.3-18.4 22.9-32.7 19.1-14.9-3.9-23.5-19.5-18.6-34.3 4.2-12.8 17.4-20.5 30.5-18C65.7 57 75 72.2 71.1 87.1z"/><path class="st7" d="M67.4 65.3c-3.6-3.4-8.1-5.9-13.4-6.9-13.1-2.6-26.4 5.2-30.6 17.9-2.7 8.3-1.2 16.8 3.2 23.4-7.2-6.9-10.3-17.5-6.9-27.8 4.3-12.8 17.5-20.5 30.6-18 7.4 1.5 13.3 5.7 17.1 11.4z"/><path d="M177.6 269.8l-2.2 8.2-4.7 17.7-2.4 9-9.5 36.1-3 11.5-1 3.9-19.7-5.2-26.4-6.9-97.6-25.7-11.4-3v-70.7l-.2-.1.2-.9.2-.6 1.8-6.8 3.1-11.9c.4-1.4.8-2.9 1.2-4.3 3.4-10.6 8.5-20.1 15-28.4.7-.8 1.4-1.7 2-2.5 21.6-25.3 56.5-37.5 90.8-28.5s58.7 36.8 65 69.5c.2 1.1.4 2.1.6 3.2 0 .3.1.6.1 1 1.8 11.4 1.2 23.4-1.9 35.4z" fill="#f7caad"/><path d="M184.5 362.8c-.4 3.1-1 6.2-1.9 9.3-.5 2-1.1 4-1.8 5.9-4.6 13-12.4 24.2-22.3 32.7-8.6 7.4-18.8 12.8-29.7 15.9-12.6 3.5-26.3 3.8-39.9.2-.2 0-.3-.1-.4-.1-.1 0-.3-.1-.5-.1-34.6-9.1-63.5-28.8-84-54.6-1.5-1.9-2.9-3.7-4.3-5.6V244.7l128.1 33.7c16.6 4.4 30.5 13.9 40.5 26.4 3.4 4.2 6.3 8.8 8.7 13.6 6.8 13.4 9.6 28.8 7.5 44.4z" fill="#231f20" opacity=".15"/><path class="st4" d="M175 349.9c-.8 3-1.7 5.9-2.8 8.8-.1.4-.3.8-.5 1.2-4.4 10.9-10.9 20.4-18.9 28.2-14.6 14.1-34.1 22.7-54.8 23.4-7.9.3-15.9-.6-23.9-2.7-.1-.1-.3-.1-.5-.1s-.3-.1-.5-.1c-17.1-4.5-33-11.4-47.2-20.3-1.9-1.1-3.7-2.3-5.5-3.5-5.7-4-11.2-8.3-16.4-12.8-1.4-1.3-2.9-2.5-4.3-3.9V244.7l-.2-.1.2-.9v-25.3l6.3 1.7 30.3 8L89.2 242l26.8 7.1c3.5.9 7 2.1 10.2 3.4.5.2 1 .4 1.4.6.4.2.8.3 1.2.5.2.1.5.2.8.3l1.2.6c1.4.7 2.8 1.4 4.1 2.1.2.1.4.2.5.3.3.2.6.3.9.5 1.2.7 2.4 1.4 3.5 2.1.7.5 1.5.9 2.2 1.4 2.2 1.5 4.3 3.2 6.4 4.9.4.4.8.7 1.3 1.1.5.4.9.8 1.3 1.2.9.9 1.9 1.8 2.8 2.7.4.4.7.7 1 1.1.4.4.8.9 1.2 1.3.4.4.7.8 1 1.2l.3.3c.4.4.7.8 1 1.2.4.5.8.9 1.1 1.4.4.4.7.9 1 1.3.1.1.2.2.3.4.1.2.3.4.4.6.5.7 1 1.3 1.4 2 3.1 4.5 5.8 9.3 8 14.3 3.1 7.2 5.3 14.8 6.3 22.6 1.6 10.1 1 20.8-1.8 31.4z"/><path class="st7" d="M162.7 281.4c-1-1-2-1.9-3.1-2.9-4.3-3.8-9-7.2-14.1-10.2-3.9-2.2-8-4.1-12.2-5.7-2.5-.9-5-1.7-7.6-2.4L88.2 255 0 242.9h-.2v-24.7l6.3 1.7 30.3 8 52.9 13.9 26.8 7.1c3.5.9 7 2.1 10.2 3.4.5.2 1 .4 1.4.6.4.2.8.3 1.2.5.2.1.5.2.8.3l1.2.6c1.4.7 2.8 1.4 4.1 2.1.2.1.4.2.5.3.3.2.6.3.9.5 1.2.7 2.4 1.4 3.5 2.1.7.5 1.4 1 2.2 1.4 2.2 1.5 4.3 3.2 6.4 4.9.4.4.8.7 1.3 1.1.5.4.9.8 1.3 1.2.9.9 1.9 1.8 2.8 2.7.4.4.7.7 1 1.1.4.4.8.9 1.2 1.3.4.4.7.8 1 1.2l.3.3c.4.4.7.8 1 1.2.4.5.8.9 1.1 1.4.4.4.7.9 1 1.3.1.1.2.2.3.4.1.2.3.4.4.6.6.7 1 1.4 1.5 2z"/><path class="st6" d="M135.3 258.1c-2.8 10.7-15.7 16.6-28.9 13.2-13.1-3.5-21.5-14.9-18.6-25.7 2.8-10.7 15.7-16.6 28.9-13.2 13.1 3.4 21.4 14.9 18.6 25.7z"/><path class="st5" d="M73.8 280.1c-5.7 8-16.9 9.9-24.9 4.2s-9.9-16.9-4.2-24.9l29.1 20.7z"/><path class="st0" d="M50.8 88.7c-.3-.1-.6-.2-.9-.2L21.3 188.7l164.1 43.2C201.7 178 140.9 112.4 50.8 88.7z"/><path class="st7" d="M200.3 183.4c7.1 1.9 11.4 9.2 9.5 16.4l-6.8 25.9c-1.9 7.1-9.2 11.4-16.4 9.5L13.9 189.8c-7.1-1.9-11.4-9.2-9.5-16.4l6.8-25.9c1.9-7.1 9.2-11.4 16.4-9.5l172.7 45.4z"/><path class="st5" d="M81.6 225.4c-.9 3.6-4.6 5.7-8.2 4.8-3.6-.9-5.7-4.6-4.8-8.2.9-3.5 4.6-5.7 8.2-4.8 3.5 1 5.7 4.7 4.8 8.2zm69.1 18.2c-.9 3.6 1.2 7.3 4.8 8.2 3.6.9 7.2-1.2 8.2-4.8.9-3.5-1.2-7.2-4.8-8.2-3.7-.9-7.3 1.3-8.2 4.8z"/><path class="st2" d="M36.7 352.4c0 11.1-4.5 21.1-11.8 28.4l-.4.4c-1.3 1.2-2.6 2.4-4.1 3.5-5.9 4.4-13 7.2-20.7 7.8v-80.1c9.8.8 18.6 5.1 25.2 11.6 7.3 7.2 11.8 17.3 11.8 28.4z"/><path class="st2" d="M13.2 405.6c-1.1.2-2.2.3-3.3.3-3.8 0-7.4-1.4-10.2-3.7V353c.8-.3 1.6-.5 2.5-.7 8.6-1.8 17.1 3.8 18.9 12.4l3.4 16.4 1.1 5.5c.1.5.2 1 .2 1.5 1 8.2-4.4 15.8-12.6 17.5z"/><path d="M-.2 605V244.7l-.2-.1.2-.9v-48.2c5.9-4.2 13.5-5.8 21.1-3.8l-6.9-1.8c-7.1-1.9-11.4-9.2-9.6-16.4l6.8-25.9c1.6-6 7-10 12.9-10C19.4 255.9 8.8 513.4 1.5 668.9H-.2V605z" class="st3"/><path class="st12" d="M367.3 1.8c-1.9-2.1-4.1-.4-6 2.7-.3-2.2-1.3-3.9-3.5-4.4-3.8-.9-5.1 1.6-5.5 5-1-1.3-2.3-1.9-3.7-1-2 1.2-2.2 4.8-2 6.8.3 3.4 2.1 6.4 4 9.1.7 1 2.1.7 2.7-.1l1 .5c-.6 1.4 1.2 3.1 2.4 1.7 3.1-3.7 7.1-6.7 9.5-10.9 1.1-2.3 3.2-7 1.1-9.4z"/><path class="st13" d="M381.4 16.4l-.1 48.2v2.9l-51.2-.1v-3.2l.2-47.9z"/><path class="st3" d="M381.3 64.6v2.9l-51.2-.1v-3.2z"/><path class="st12" d="M353.6 39.2V16.3h-6.5v22.9l-16.9-.1v6.5l16.9.1-.1 21.8h6.5l.1-21.8h27.7v-6.5z"/><path class="st3" d="M372.258 16.39l9.1.02-.115 51.1-9.1-.02z"/><path class="st12" d="M301.5 146.8H421v92.3H301.5z"/><path class="st13" d="M352.7 188v-41.2H341V188h-39.5v11.8H341v39.3h11.7v-39.3h68.2V188z"/><path class="st3" d="M396.2 146.8h24.7v92.3h-24.7z"/><path class="st3" d="M397.4 147.2l-70.7 4.7-11.5-5.1 8.3 11.3z"/><path d="M308.51 69.384l83.317-5.578 5.578 83.317-83.316 5.578z" fill="#914295"/><path d="M365.5 102.7l-2.4-37.2-10.6.7 2.5 37.2-44 3.3.7 10.5 44-3.2 2.3 35.6 10.6-.7-2.3-35.6 28.7-1.6-.7-10.6z" fill="#48b980"/><path class="st3" d="M397.4 147.2l-70.7 4.7-5.8-83.9 70.9-4.2z"/><path class="st2" d="M428.8 255.3c-7.5.6-10.3 2.3-16.6 6.3-5.2 3.3-14.8 8.6-20.9 8.7-.1-6.4 2.4-13.4 8.1-16.2 2.7-1.3 5.7-1.6 8.6-1.8 3.4-.3 6.9-.5 10.3-.8l10.5 3.8z"/></svg>