<svg id="Layer_1" xmlns="http://www.w3.org/2000/svg" xmlns:xlink="http://www.w3.org/1999/xlink" viewBox="0 0 539.6 371.4"><style>.st1{fill:#eceff1}.st2{fill:#ef5350}.st3{opacity:.2;enable-background:new}.st4,.st5{fill:none;stroke:#9e3494;stroke-width:31.6424;stroke-linecap:round;stroke-miterlimit:10}.st5{stroke-width:28.3806}.st6{fill:#9e3494}.st7{fill:#e0bb95}.st8{fill:#332e2e}.st10{fill:#fff}.st11{fill:#ffa000}.st13{fill:#c93}.st14{fill:#5d4037}.st15{fill:#f9ce1d}.st18{fill:#f27455}</style><defs><path id="SVGID_1_" d="M0 0h539.6v371.4H0z"/></defs><clipPath id="SVGID_2_"><use xlink:href="#SVGID_1_" overflow="visible"/></clipPath><g clip-path="url(#SVGID_2_)"><path class="st1" d="M0 194.8h142.4v31.1H0v-31.1z"/><path class="st2" d="M0 225.9h5.9l24.6-31.1H0v31.1zm30.5 0h33.9L89 194.8H55.1l-24.6 31.1zm58.5 0h33.8l24.6-31.1h-33.8L89 225.9z"/><path class="st3" d="M0 216.3h142.4v9.7H0v-9.7z"/><path class="st4" d="M354.7 330.6c-18.7-23.6-62-59.9-141-45.8"/><path class="st5" d="M216.8 194.8c3.1 4.2 6.2 8.5 9.3 12.7 6.2 8.5 12.5 17.1 20.5 24.1 24 20.9 62.7 22.4 88.3 3.5"/><path class="st6" d="M169 327.8c-29 0-52.8-13.2-64.9-36.3-7.2-13.8-12.9-36.9.4-68.8 7.3-17.5 19.4-36 37.1-56.7 17.8-20.8 49.2-23.3 70-5.4 20.8 17.8 23.3 49.2 5.4 70-3.6 4.2-6.5 7.9-9 11.2 8.4 8 14.1 18.9 15.3 31.3 2.6 27.3-17.4 51.6-44.7 54.2-3.2.4-6.5.5-9.6.5z"/><path class="st7" d="M334.9 248.5c9.3 6.2 21.8 3.8 28.1-5.5 6.2-9.3 3.8-21.9-5.5-28.1-9.3-6.2-21.9-3.8-28.1 5.5-6.2 9.2-3.7 21.8 5.5 28.1z"/><path class="st8" d="M96.5 260l110.8-23 4.8 26.3-110.4 23c-2.5-5.2-6.7-18.6-5.2-26.3z"/><path d="M216.4 265l-6.7 1.9-6.2-29.8 6.7-1.8 6.2 29.7z" fill="#fdd500"/><path class="st4" d="M277.8 330.6c29.5-77.4-32.3-89.8-97.7-26.1"/><path class="st6" d="M275.8 8.1s70.4-15 114.6 34.3c0 0-46.4 9-53.8 43.6L275.8 8.1z"/><path class="st10" d="M261 25.1l53.6 70.5c4.6 6 13.7 6.4 19.1 2.6 6-4.6 6.5-13.9 1.9-19.9L282.8 8.6c-4.6-6-13.2-7.2-19.2-2.6-6 4.5-7.1 13.1-2.6 19.1zM408.8 52.8c-5.1 3.8-12.3 2.9-16.1-2.2-3.8-5.1-2.9-12.3 2.2-16.1s12.3-2.9 16.1 2.2c3.8 5.1 2.8 12.3-2.2 16.1z"/><path class="st5" d="M194 186.2c-3.9 14.6 118.7 14.2 152.2-4.7"/><path class="st7" d="M342.6 200.6c10.5 3.7 22.1-1.8 25.8-12.3 3.7-10.5-1.8-22.1-12.3-25.9-10.5-3.7-22.1 1.8-25.8 12.3-3.7 10.6 1.8 22.2 12.3 25.9z"/><path class="st1" d="M143.5 221.6c-16.6-1.4-25.3 4.3-26.7 14.3-1.9 13.1 8.2 19.2 25.2 20.9 17.1 1.6 99.8 9 106.2-21.4 5.4-25.7-20.5-25.4-20.5-25.4s5.8 19.3-84.2 11.6z"/><path class="st2" d="M178.3 223.4c-8.5-.1-18.4-.5-30-1.4.1 9.3-1.2 26.2-11.2 34.1 1.6.3 3.2.5 4.9.6 4.7.5 14.4 1.3 26 1.7 7.7-6.8 15.4-18.4 10.3-35zm40.9 31.9c6.4-9.9 11.2-24.3-3-35.6-4.3 1.3-10.1 2.4-18.1 3.1 2.8 7.8 6.4 23.3-3.1 35.5 8.5-.5 16.7-1.4 24.2-3zm8.6-45.4s.5 1.8-1.3 4.1c6.9 4.7 18.9 16.1 11.6 34.4 5.3-3.3 9-7.6 10.2-13.1 5.4-25.7-20.5-25.4-20.5-25.4z"/><path class="st3" d="M151.5 244.4c-16-1.6-25.3-7.8-23.6-20.9 0-.2.1-.5.1-.7-6.7 2.2-10.4 6.8-11.3 13-1.9 13.1 8.2 19.2 25.2 20.9 17.1 1.6 99.8 9 106.2-21.4.5-2.6.8-4.9.7-7-13.4 24.2-82.3 17.7-97.3 16.1z"/><ellipse transform="rotate(-13.086 489.637 207.52)" class="st11" cx="489.6" cy="207.5" rx="43" ry="18.6"/><ellipse transform="rotate(-13.086 488.52 202.405)" cx="488.5" cy="202.4" rx="52.3" ry="18.6" fill="#ffb300"/><ellipse transform="rotate(-13.086 488.52 202.405)" class="st11" cx="488.5" cy="202.4" rx="37.8" ry="13.4"/><path class="st3" d="M485.4 189.4c-20.3 4.7-35.4 14.4-33.8 21.6.4 1.9 1.9 3.4 4.3 4.5.2-7 13.4-15.5 31-19.6s33.2-2.3 36.5 3.9c1.6-2.1 2.3-4.1 1.9-5.9-1.7-7.2-19.5-9.3-39.9-4.5z"/><ellipse transform="rotate(-28.495 396.1 138.49)" class="st13" cx="396.1" cy="138.5" rx="18.6" ry="9.2"/><path class="st3" d="M407.8 126.7c.3.3.6.7.8 1.1 2.4 4.5-2 11.5-9.8 15.8s-16.1 4.1-18.6-.4c-.2-.4-.4-.9-.5-1.3-.8 2-.9 4-.1 5.5 2.4 4.5 11.7 4.1 20.8-.8 9.1-4.9 14.4-12.5 12-17-.7-1.6-2.4-2.5-4.6-2.9z"/><ellipse transform="rotate(-28.482 388.287 139.857)" class="st14" cx="388.3" cy="139.9" rx="3.4" ry="1.8"/><ellipse transform="rotate(-28.495 393.577 133.782)" class="st14" cx="393.6" cy="133.8" rx="3.4" ry="1.8"/><ellipse transform="rotate(-28.495 404.397 133.983)" class="st14" cx="404.4" cy="134" rx="3.4" ry="1.8"/><ellipse transform="rotate(-86.66 402.6 213.2)" class="st13" cx="402.6" cy="213.2" rx="9.2" ry="18.6"/><path class="st3" d="M418.8 209.4c.1.5.2.9.1 1.4-.3 5.1-7.7 8.8-16.6 8.3s-15.9-5.1-15.6-10.1c0-.5.1-.9.3-1.4-1.8 1.3-2.9 2.9-3 4.6-.3 5.1 7.8 9.7 18.1 10.3 10.3.6 18.9-3 19.2-8.1 0-1.9-.9-3.6-2.5-5z"/><ellipse transform="rotate(-86.66 395.302 210.202)" class="st14" cx="395.3" cy="210.2" rx="1.8" ry="3.4"/><ellipse transform="rotate(-86.66 402.9 207.899)" class="st14" cx="402.9" cy="207.9" rx="1.8" ry="3.4"/><ellipse transform="rotate(-86.66 412.002 213.699)" class="st14" cx="412" cy="213.7" rx="1.8" ry="3.4"/><ellipse transform="rotate(-68.26 446.971 186.095)" class="st13" cx="447" cy="186.1" rx="7.5" ry="20.5"/><path class="st3" d="M464.7 188.9c0 .4-.1.8-.2 1.1-1.5 3.8-10.2 4-19.3.4-9.1-3.6-15.3-9.7-13.7-13.5.1-.4.4-.7.6-1-2.2.4-3.7 1.2-4.2 2.5-1.5 3.8 5.8 10.4 16.3 14.6 10.5 4.2 20.3 4.5 21.9.6.5-1.3 0-2.9-1.4-4.7z"/><ellipse transform="rotate(-68.26 438.267 181.91)" class="st14" cx="438.3" cy="181.9" rx="1.8" ry="3.4"/><ellipse transform="rotate(-68.26 450.483 183.284)" class="st14" cx="450.5" cy="183.3" rx="1.8" ry="3.4"/><ellipse transform="rotate(-68.26 447.189 187.312)" class="st14" cx="447.2" cy="187.3" rx="1.8" ry="3.4"/><ellipse transform="rotate(-68.26 458.49 189.908)" class="st14" cx="458.5" cy="189.9" rx="1.8" ry="3.4"/><ellipse transform="rotate(-30.526 496.318 164.651)" class="st13" cx="496.3" cy="164.6" rx="20.5" ry="7.5"/><path class="st3" d="M509.5 152.4c.3.3.6.5.8.9 2.1 3.6-3 10.5-11.5 15.5s-17 6.1-19.1 2.6c-.2-.3-.3-.7-.4-1.1-1 1.9-1.3 3.6-.6 4.9 2.1 3.6 11.7 1.8 21.5-4s16-13.3 13.9-16.9c-.8-1.3-2.4-1.9-4.6-1.9z"/><ellipse transform="rotate(-30.526 485.292 168.417)" class="st14" cx="485.3" cy="168.4" rx="3.4" ry="1.8"/><ellipse transform="rotate(-30.526 497.74 165.206)" class="st14" cx="497.7" cy="165.2" rx="3.4" ry="1.8"/><ellipse transform="rotate(-30.526 502.307 157.314)" class="st14" cx="502.3" cy="157.3" rx="3.4" ry="1.8"/><path class="st8" d="M416.1 295.4c10.1 13.2 7.5 32.2-5.9 42.6-10.4 8-25.2 6.2-33.1-4l-13.6-17.7-25.1 19.3 41.5 53.9c2.6 3.4 7.6 4 11 1.3l61.4-47.3c13.2-10.1 16.7-28.8 7.2-42.1-10-13.9-29.7-16.5-43.4-6z"/><path class="st15" d="M381.8 340.2l-9.4 7.3c-3.5 2.7-8.4 2.1-11-1.3-2.6-3.4-1.9-8.3 1.5-11l9.4-7.3c3.5-2.7 8.4-2.1 11 1.3s2 8.3-1.5 11z"/><path d="M173.6 95.7l-21.7-25.5s-3.6 31.1 9.9 47c2 2.4 4.6 3.7 7.3 3.5 5.4-.6 9.1-7.4 8.3-15.2-.3-4-1.8-7.5-3.8-9.8z" fill="#fadcbc"/><circle class="st7" cx="185.3" cy="104.6" r="54"/><path d="M171.3 125.9c-.8 7.8-7.8 13.4-15.6 12.6s-13.4-7.8-12.6-15.6l28.2 3z" fill="#774d2e"/><path class="st7" d="M220.4 63.6l39.7 34.7-21.2 2.3z"/><path class="st8" d="M220.6 86.9c.6 6-3.7 11.3-9.7 12-6 .6-11.3-3.7-12-9.7-.6-6 3.7-11.3 9.7-12 6-.7 11.4 3.7 12 9.7z"/><path class="st18" d="M179.8 50.9c-9.8 1-18.7 4.6-26.2 10 2.9 4 7.9 6.5 13.2 5.9l-5.4 6.6c6.2 5.1 15.4 4.1 20.4-2.1l.9 8.5c8-.8 13.8-7.9 13-15.9l6.6 5.4c3.6-4.4 4.1-10.3 1.9-15.2-7.5-2.9-15.8-4-24.4-3.2z"/><path class="st18" d="M185.2 100.1c1.9-17.7-2.7-34.5-12-48.2-22.1 4.8-39.6 23.2-42.2 46.9-2.3 21.3 8.1 41 25.2 51.6 15.8-11.5 26.8-29.4 29-50.3z"/><circle class="st18" cx="148.1" cy="139.6" r="13.4"/><circle class="st18" cx="134.7" cy="123.3" r="13.4"/><circle class="st18" cx="202.6" cy="56.5" r="13.4"/><path class="st7" d="M193.9 104.2c-.9-3.7-3.2-6.7-6.1-8.5L155.9 76s-2.4 30.7 17.5 42.9c3 1.8 6.7 2.5 10.3 1.7 7.4-1.7 12-9.1 10.2-16.4z"/><ellipse transform="matrix(.05858 -.9983 .9983 .05858 78.571 339.575)" cx="219.3" cy="128.1" rx="6.7" ry="6.7" fill="#fafafa"/><g><path class="st8" d="M340.5 365c-5.1 15.8-22.4 24.4-38.5 19.2-12.5-4.1-19.4-17.3-15.4-29.5l6.9-21.2-30.1-9.8-21 64.7c-1.3 4.1 1 8.5 5.1 9.8l73.7 24c15.8 5.1 33.2-2.6 38.8-17.9 5.8-16.3-3.1-34-19.5-39.3z"/><path class="st15" d="M284.2 362l-11.3-3.7c-4.2-1.4-6.5-5.8-5.1-9.8s5.8-6.3 9.9-4.9l11.3 3.7c4.2 1.4 6.5 5.8 5.1 9.8s-5.8 6.2-9.9 4.9z"/></g></g></svg>