<svg id="Layer_1" xmlns="http://www.w3.org/2000/svg" width="122.1" height="361.3" viewBox="0 0 122.1 361.3"><style>.st0{fill:#e53935}.st1{fill:#be3935}.st2{fill:#f9ce1d}.st3{opacity:.1}.st4{fill:#f1f1f1}.st5{fill:#212121}.st6{fill:#ef9a9a}.st7{fill:#fff}.st8{fill:#f7caad}.st9{opacity:.15}.st10{fill:#231f20}.st11{fill:none;stroke:#e53935;stroke-width:79.2674;stroke-linecap:round;stroke-miterlimit:10}.st12{fill:#da4637}.st13{fill:#ffdf00}.st14{fill:#914295}.st15{fill:#48b980}.st16{opacity:.11}.st17{fill:#666}.st18{fill:#ffda85}.st19{fill:#ffb15b}.st20{fill:#333}.st21{fill:none;stroke:#29b6f6;stroke-width:25.4008;stroke-linecap:round;stroke-miterlimit:10}.st22{fill:#2297cc}.st23{fill:#29b6f6}.st24{fill:#764c2e}.st25{fill:#4d4d4d}.st26{fill:none;stroke:#666;stroke-width:9.2179;stroke-miterlimit:10}.st27{fill:#ffe18c}.st28{fill:#332e2e}.st29{stroke:#fff;stroke-width:1.769;stroke-miterlimit:10}.st29,.st30{fill:none}.st31{fill:#fdd500}.st32{fill:none;stroke:#332e2e;stroke-width:1.9753;stroke-miterlimit:10}.st33{fill:#fdbe0c}.st34{fill:#bdbdbd}.st35{opacity:.1;fill:#fff}.st36{fill:#008fa1}.st37{fill:#fb8c00}.st38{fill:#ef5350}.st39{opacity:.33;fill:#333}.st40{fill:#4caf50}.st41{fill:#00838f}.st42{fill:#00acc1}.st43{fill:#8e24aa}.st44{fill:#ffd200}.st45{opacity:.14;fill:#333}.st46{fill:#f79117}.st47{fill:#dbdbdb}.st48{fill:#dc9e00}.st49{fill:#fddf00}.st50{clip-path:url(#SVGID_2_)}.st51{fill:#ff8300}.st52{fill:#00c763}.st53{fill:#fff200}.st54{fill:#e86e1c}.st55{fill:#c8541f}.st56{fill:#009047}.st57{fill:#00a551}.st58{fill:#dec461}.st59{fill:#444}.st60{opacity:.2;enable-background:new}.st61{fill:#2b2b2b}.st62{opacity:.12;enable-background:new}.st63{fill:#848484}.st64{opacity:.21}.st64,.st65,.st66,.st67{enable-background:new}.st65{fill:#5f81c0;opacity:.21}.st66,.st67{opacity:.66;stroke:#1f1f1f;stroke-width:2.1157;stroke-miterlimit:10}.st67{fill:#5f81c0}.st68{fill:#3a3a3a}.st69,.st70{stroke:#393939;fill:none;stroke-width:.6212;stroke-miterlimit:10;stroke-dasharray:1.81,.6033}.st70{stroke:#444}.st71{fill:#00ad00}.st72{fill:#e91100}.st73{fill:#39527c}.st74{opacity:.15;fill:#fff}.st75{fill:#262626}.st76{opacity:.6;fill:url(#SVGID_3_)}.st77{fill:#0096a3}.st78{fill:#00b2c2}.st79{fill:#d97823}.st80{fill:#d13d7f}.st81{fill:#b81463}.st82{fill:#7b7878}.st83{fill:#929292}.st84{fill:#2f2f2f}.st85{fill:#616161}.st86{fill:#8d8d8d}.st87{fill:#575757}.st88{fill:#828282}.st89{opacity:.43}.st90{fill:#b3b3b3}.st91{fill:#7f7f7f}.st92{fill:none;stroke:#a5a3a3;stroke-width:3;stroke-linecap:round;stroke-miterlimit:10}.st93{fill:#6a6a6a}.st94,.st95{stroke:#7f7f7f;stroke-width:7;fill:none;stroke-linecap:round;stroke-miterlimit:10}.st95{stroke:#929292;stroke-width:5}.st96{clip-path:url(#SVGID_5_);fill:url(#SVGID_6_)}.st97{fill:#f78011}.st98{fill:#db6300}.st99{fill:#f0a42c}.st100{fill:#de7221}.st101{fill:#ff8787}.st102{clip-path:url(#SVGID_8_)}.st103{fill:#ffa1e4}.st104{fill:#1da802}.st105{fill:#fcbe2d}.st106{fill:#fcd03f}.st107{fill:#f6b12d}.st108{fill:#de4a3f}.st109{fill:#000002}.st110{fill:#ffdf82}.st111{fill:#764299}.st112{fill:#68378c}.st113{fill:#fd930c}.st114{fill:#287a5e}.st115{fill:#1aa17d}.st116{fill:#764d2f}.st117{fill:#ededed}.st118{fill:#c92828}.st119{fill:#ffd500}.st120{fill:#ec407a}.st121{fill:#1565c0}.st122{fill:#c165c7}.st123{fill:#ff931e}.st124{fill:#fdce48}.st125{fill:#2aaf4b}.st126{fill:#b99960}.st127{fill:#a17b54}.st128{fill:#d4af6e}.st129{opacity:.12}.st130{fill:#f0b21c}.st131{fill:#b0b0b0}.st132{fill:#b46d3d}.st133{opacity:.7;fill:url(#SVGID_9_)}.st134{fill:#29b65e}.st135{fill:none;stroke:#f0b21c;stroke-width:14.7487;stroke-linecap:round;stroke-linejoin:round;stroke-miterlimit:10}.st136{fill:#ffe51c}.st137{fill:#c70fd1}.st138{fill:#b9b9b9}.st139{fill:#4830a6}.st140{fill:#6e40ed}.st141{fill:#a2a5a3}.st142{fill:#b6e5cd}.st143{fill:#e9d386}.st144{fill:#413d3d}.st145{fill:#666262}.st146{fill:#85d4ac}.st147,.st148,.st149{fill:none;stroke-miterlimit:10}.st147{stroke-linecap:round;stroke:#6e40ed;stroke-width:18.7963}.st148,.st149{stroke-dasharray:29.0489,256.3136;stroke:#f7fffa;stroke-width:19.2235}.st149{stroke-linecap:round;stroke-dasharray:8.5438,256.3136}.st150{fill:#211c1c}.st151{opacity:.2}.st152{fill:#f5951f}.st153{fill:#f7fffa}.st154{fill:#ff8b17}.st155{fill:none;stroke:#f0b21c;stroke-width:17.108;stroke-linecap:round;stroke-linejoin:round;stroke-miterlimit:10}.st156{fill:#d6aa1a}.st157{fill:none;stroke:#d6aa1a;stroke-width:25.8006;stroke-linecap:round;stroke-miterlimit:10}.st158{fill:#f5c60c}.st159{fill:#231f20;stroke:#b6e5cd;stroke-width:1.2082;stroke-miterlimit:10}.st160{fill:#ab5844}.st161{fill:#249d43}.st162{fill:#fde08b}.st163{fill:#c5161d}.st164{fill:#d89614}.st165{fill:#faac18}.st166{fill:none;stroke:#faac18;stroke-width:24.2;stroke-linecap:round;stroke-linejoin:round;stroke-miterlimit:10}.st167{fill:#e91c24}.st168{fill:#eceff1}.st169{stroke:#5f14a6;stroke-width:28.0254;stroke-linecap:round}.st169,.st170,.st171,.st172{fill:none;stroke-miterlimit:10}.st170{stroke-dasharray:43.312,382.1646;stroke:#a2a5a3;stroke-width:28.6623}.st171,.st172{stroke-linecap:round}.st171{stroke-dasharray:12.7388,382.1646;stroke:#a2a5a3;stroke-width:28.6623}.st172{stroke:#5f14a6;stroke-width:28.3806}.st173{fill:#8c28de}.st174{fill:#5f14a6}.st175{stroke:#8c28de;stroke-width:31.6424;stroke-linecap:round}.st175,.st176,.st177,.st178{fill:none;stroke-miterlimit:10}.st176{stroke-dasharray:48.9019,431.4876;stroke:#e6e6e6;stroke-width:32.3616}.st177,.st178{stroke-linecap:round}.st177{stroke-dasharray:14.3829,431.4876;stroke:#e6e6e6;stroke-width:32.3616}.st178{stroke:#8c28de;stroke-width:28.3806}.st179{fill:#fafafa}.st180{fill:#ffa000}.st181{fill:#ffb300}.st182{fill:#c93}.st183{fill:#5d4037}.st184{fill:#ff9800}.st185{fill:#cfd8dc}.st186{fill:#f57c00}.st187,.st188{fill:none;stroke-miterlimit:10}.st187{stroke-linecap:round;stroke:#f57c00;stroke-width:23.7843}.st188{opacity:.5;stroke:#cfd8dc;stroke-width:3.63}.st189{fill:#f06292}.st190{fill:none;stroke:#ff9800;stroke-width:23.7843;stroke-linecap:round;stroke-miterlimit:10}.st191{fill:#9b51a0}.st192{fill:#7b1fa2}.st193{fill:none;stroke:#8e24aa;stroke-width:23.7843;stroke-linecap:round;stroke-miterlimit:10}.st194{fill:#ffc107}.st195{fill:#26c6da}.st196{fill:#039be5}.st197,.st198,.st199{fill:none;stroke-miterlimit:10}.st197{stroke-linecap:round;stroke:#039be5;stroke-width:23.7843}.st198{stroke:#cfd8dc;stroke-width:3.63}.st199{stroke:#29b6f6;stroke-width:23.7843;stroke-linecap:round}.st200{fill:#9575cd}.st201{fill:none;stroke:#9b51a0;stroke-width:23.7843;stroke-linecap:round;stroke-miterlimit:10}.st202{opacity:.6}</style><path class="st0" d="M50.2 193.4c-9.1 27.8-18.6 45.8-25.1 56.1-3.8 6-13.6 21.7-25.1 24V229c2.2-.3 4.4 0 6.5.9.9-1.6 1.8-3.2 2.7-5 5.1-9.7 10.7-22.7 16.2-39.6 1.1-3.3 3.4-5.9 6.2-7.4 3-1.6 6.7-2.1 10.2-.9 6.9 2.2 10.6 9.6 8.4 16.4z"/><path class="st0" d="M14.5 227.8l-1.4 1.3L0 240.8V137.9c5.9 2.6 11.5 6.3 16.3 11 .7.7 1.5 1.5 2.2 2.3l.3.3c.4.4.8.9 1.1 1.3 6.2 7.4 10.1 16.1 11.7 25.1 3.2 17.8-2.6 36.9-17.1 49.9z"/><path class="st16" d="M11.9 145.1c-4-3-7.9-4.6-11.9-5.2v-2c4.2 1.9 8.2 4.2 11.9 7.2z"/><path class="st7" d="M19.9 152.8L0 170.7v-7.1l14-12.5 2.3-2.2h.1l2.1 2.3.3.3z"/><path class="st17" d="M79.9 163l-25.5-1 .4-9.2 15.1.6c-3.8-44.5-3.3-45.9-3-46.9l8.8 2.7c.1-.5.2-.8.2-.8-.1 2.9 2.2 31.9 3.7 49.5l.3 5.1z"/><path class="st18" d="M0 57.9c4-3 8.3-5.4 12.9-7.1.4-.1.7-.3 1.1-.4 1.8-.6 3.6-1.2 5.4-1.6 4.1-1 8.4-1.5 12.7-1.5 5.3 0 10.6.8 16 2.5 3.1 1 6 2.2 8.7 3.6 2 1 3.9 2.2 5.7 3.4 6.8 4.7 12.4 10.9 16.3 18 4.4 7.9 6.8 16.8 6.8 26 0 5.3-.8 10.7-2.4 16-.3.9-.6 1.7-.9 2.6-1.3 3.7-3.1 7.1-5.1 10.3a62.8 62.8 0 0 1-4.8 6.4c-1.1 1.3-2.4 2.6-3.6 3.7-5.9 5.5-12.9 9.6-20.6 12-2.9.9-5.9 1.6-8.9 2h-.1c-2.3.3-4.6.5-7 .5-4 0-8.1-.4-12.1-1.4-1.3-.3-2.5-.6-3.8-1-.7-.2-1.4-.5-2.1-.7-5.1-1.8-9.8-4.4-14-7.5V57.9z"/><path class="st19" d="M0 57.9v-2.6c2.6-2 5.4-3.7 8.4-5.2.2-.1.5-.2.7-.3 3.1-1.5 6.3-2.6 9.6-3.5 9.3-2.5 19.4-2.4 29.3.7 3.1 1 6 2.2 8.8 3.6v2.6c0 .9 0 1.8-.1 2.7 0 2.2-.1 4.4-.3 6.6-1.5 3.1-3.2 6-5.2 8.8-6.6 9.5-15.6 17.3-25.5 23.6L22.4 97c-5.6 3.4-11.2 5.8-16.8 7.6-1.9.6-3.7 1.1-5.6 1.5V57.9z"/><path class="st20" d="M56.6 98.4c-1.6 5.3 1.3 10.9 6.6 12.6 5.3 1.7 10.9-1.3 12.6-6.6 1.6-5.3-1.3-10.9-6.6-12.6-5.3-1.6-10.9 1.3-12.6 6.6z"/><path class="st0" d="M90.5 60.3l-28.1-3.7-5.8-.8L19.8 51l-5.8-.6-4.9-.6L0 48.5v-47c47.4-9.3 73.7 26 84.5 46 4.1 7.5 6 12.8 6 12.8z"/><path class="st16" d="M20 51.8l-7.1-1.1-4.5-.7L0 48.8V12c8.3 6.6 13.6 18.3 16.6 27.3.9 2.6 1.6 5 2.1 6.9.2.9.5 1.8.6 2.5.2 1.1.4 1.9.5 2.4.2.5.2.7.2.7z"/><path class="st7" d="M0 57.9V37.3l16.6 2 67.9 8.2 8.3 1c2.8.3 4.8 2.9 4.4 5.6l-2.1 17.4c-.3 2.8-2.9 4.8-5.6 4.4l-10.8-1.3-27.5-3.3L0 65.1v-7.2z"/><path class="st18" d="M78.7 117.3l43.4 22.7-5.9 9.2-53.4-16.1z"/><path class="st7" d="M52.3 139.3c-3.9 5.7-11.7 7.1-17.4 3.2s-7.1-11.7-3.2-17.4l20.6 14.2z"/><path class="st17" d="M40.9 164.4l17.4.8c1.3.1 2.4-.9 2.4-2.2l.4-8.2c.1-1.3-.9-2.4-2.2-2.4l-17.4-.8c-1.3-.1-2.4.9-2.4 2.2l-.4 8.2c-.1 1.2.9 2.3 2.2 2.4z"/><path class="st20" d="M39 154.4v.2c.1-1.8 1.6-3.2 3.4-3.1l15.6.7c1.8.1 3.2 1.6 3.1 3.4v-.2l-22.1-1z"/><path class="st18" d="M26.2 96.1l-9.8-28.4s-28.3 56.5 6.8 59.5l3-31.1z"/><path d="M0 240.8v32.6C1.5 273.2 12.3.9 12.3.9c-1.4.2-10.8.3-12.3.6v239.3z" class="st3"/><path class="st18" d="M16.3 239.3c0 5.4-2.3 10.7-6.8 14.3-2.8 2.3-6.1 3.6-9.5 3.9v-36.4c3.3.4 6.5 1.6 9.2 3.8 1.1.9 2.1 1.8 3 2.9l.9 1.2c2.1 3.2 3.2 6.8 3.2 10.3z"/></svg>