<svg id="Layer_1" xmlns="http://www.w3.org/2000/svg" xmlns:xlink="http://www.w3.org/1999/xlink" viewBox="0 0 280 365.7"><style>.st1{fill:#32a558}.st2{fill:none;stroke:#32a558;stroke-width:24.8007;stroke-linecap:round;stroke-miterlimit:10}.st3{fill:#332e2e}.st4{fill:#f9ce1d}.st5{fill:#9b643d}.st6{fill:#fff}.st8{fill:#774d2e}.st9{fill:#85d4ac}.st12{fill:#666262}</style><defs><path id="SVGID_1_" d="M0-.5h280v366.2H0z"/></defs><clipPath id="SVGID_2_"><use xlink:href="#SVGID_1_" overflow="visible"/></clipPath><g clip-path="url(#SVGID_2_)"><path class="st1" d="M29.9 278h43.4L51.6 168.2z"/><path class="st1" d="M51.6 155.8c-29.2 0-52.9 23.7-52.9 52.9V253c0 29.2 23.7 52.9 52.9 52.9s52.9-23.7 52.9-52.9v-44.3c0-29.3-23.7-52.9-52.9-52.9z"/><path class="st2" d="M52 278c0 22.4 24.6 69 24.6 97.6"/><path class="st3" d="M131.6 387.9c0 13.3-10.7 24-24 24-10.3 0-18.6-8.3-18.6-18.6v-17.8H64.2v54.2c0 3.4 2.8 6.2 6.2 6.2H131c13 0 24.1-10.1 24.6-23.1.4-13.6-10.5-24.9-24-24.9z"/><path class="st4" d="M89 399.5h-9.3c-3.4 0-6.2-2.8-6.2-6.2 0-3.4 2.8-6.2 6.2-6.2H89c3.4 0 6.2 2.8 6.2 6.2 0 3.5-2.8 6.2-6.2 6.2z"/><path class="st3" d="M-1.3 226.5h105.8v26.4H-1.3z"/><path class="st4" d="M91.3 226.5h13.2v26.4H91.3z"/><path class="st2" d="M64.2 175.2c93.6 41.4 92.5-15 105.1-40.7"/><circle class="st5" cx="171.9" cy="129.2" r="26.4"/><path class="st6" d="M185.8 151.6l-40.3-19.7c-6.2-3-13.6-.5-16.6 5.7s-.5 13.6 5.7 16.6l40.3 19.7c6.2 3 13.6.5 16.6-5.7s.5-13.6-5.7-16.6z"/><circle class="st5" cx="151.5" cy="114.2" r="10.5"/><path class="st2" d="M-72 182.9c58-20.7 85-18.7 115.9-9.5"/><path d="M41.1 93L22.5 66s-6.6 29.9 5 46.8c1.7 2.5 4.1 4.1 6.8 4.1 5.3 0 9.6-6.3 9.6-14 0-3.9-1-7.4-2.8-9.9z" fill="#fadcbc"/><circle class="st5" cx="51.6" cy="102.9" r="52.9"/><path class="st8" d="M35.8 122.2c-1.6 7.5-9 12.3-16.5 10.7s-12.3-9-10.7-16.5l27.2 5.8zM23.5 125c4.2 6.4 2.4 15.1-4.1 19.2"/><path class="st8" d="M52 98.4c3.6-17 .8-33.9-6.8-48.2-22 2.5-41 18.7-45.8 41.6-4.4 20.5 3.8 40.8 19.4 52.9C35.2 135 47.7 118.6 52 98.4z"/><path class="st8" d="M65.4 76.6c6.8-4.8 11.4-11.6 13.4-19.1-8.5-6.3-20.5-6.8-29.6-.4-8.2 5.8-12 15.5-10.5 24.9 8.9 1.9 18.6.3 26.7-5.4z"/><path class="st5" d="M86.5 63.1l35.6 38-20.9.1z"/><g><path class="st3" d="M87.8 89.1c0 5.9-4.8 10.7-10.7 10.7-5.9 0-10.7-4.8-10.7-10.7 0-5.9 4.8-10.7 10.7-10.7 5.9 0 10.7 4.8 10.7 10.7z"/><path class="st6" d="M103.3 114.2l-32.6.2c.1 13.1 8 20.2 19.6 24.5 7.2-7.7 10.1-11.5 13-24.7z"/></g><g><path class="st1" d="M-2.6 104.9L-25 21.1l95.5 26.3z"/><path d="M-4.9 104.4l82-49.5"/><path class="st6" d="M-1.1 118.8c-4.2.6-8.5-1-11.3-4.5-4.3-5.3-3.4-13.1 1.9-17.4L64.3 37c5.3-4.3 13.1-3.4 17.4 1.9 4.3 5.3 3.4 13.1-1.9 17.4L5 116.2c-1.8 1.4-4 2.3-6.1 2.6z"/><circle class="st6" cx="-33.2" cy="11.9" r="12.4"/></g><path class="st5" d="M60.1 103.3c-.5-3.7-2.4-6.8-5.1-8.9L25.8 72.1s-5.4 29.7 12.8 43.6c2.7 2.1 6.3 3.1 9.9 2.7 7.4-1 12.6-7.7 11.6-15.1z"/><path class="st8" d="M104.5 102.9h-30s-8.7 0-8.7 11.4h37.5c0-.1 1.2-7 1.2-11.4z"/><path class="st2" d="M25.7 288.9C9.9 304.7-6.6 340.6-31.8 354"/><g><path class="st3" d="M-17 408.4c-11.7 6.2-26.2 1.7-32.4-10-4.8-9.1-1.4-20.3 7.7-25.1L-26 365l-11.6-21.9-47.9 25.4c-3 1.6-4.2 5.4-2.6 8.4l28.4 53.6c6.1 11.5 20.2 16.5 31.9 10.9 12.3-6.1 17.1-21 10.8-33z"/><path class="st4" d="M-47.2 376.2l-4.4-8.2c-1.6-3-.5-6.8 2.6-8.4s6.8-.5 8.4 2.6l4.4 8.2c1.6 3 .5 6.8-2.6 8.4-3.1 1.6-6.8.4-8.4-2.6z"/></g><g><circle class="st9" cx="175.8" cy="66.7" r="4.3"/><path d="M193.5 73.2l43.4 1.4m-52.2-14.3l25.9-34.8M200.7 65l34.6-7.9" fill="#231f20" stroke="#b6e5cd" stroke-width="1.498" stroke-miterlimit="10"/><path d="M158.9 129l7.2 1c.7.1 1.4-.4 1.5-1.1l9.4-72.5c.1-.7-.4-1.4-1.1-1.5l-7.2-1c-.7-.1-1.4.4-1.5 1.1l-9.4 72.5c0 .7.5 1.4 1.1 1.5z" fill="#413d3d"/><path class="st12" d="M156.8 128.7l1.7.2c.7.1 1.4-.4 1.5-1.1l9.4-72.5c.1-.7-.4-1.4-1.1-1.5l-1.7-.2c-.7-.1-1.4.4-1.5 1.1l-9.4 72.5c-.1.7.4 1.5 1.1 1.5z"/><path class="st9" d="M156.8 123.5l1.1.1c.4 0 .7-.2.9-.6l8.2-63.2c0-.4-.2-.7-.6-.9l-1.1-.1c-.4 0-.7.2-.9.6l-8.2 63.2c-.1.4.1.7.6.9z"/><circle class="st12" cx="167" cy="58.2" r="2.4"/></g></g></svg>