<svg id="Layer_1" xmlns="http://www.w3.org/2000/svg" xmlns:xlink="http://www.w3.org/1999/xlink" viewBox="0 0 632.4 396.4"><style>.st1{fill:none;stroke:#39f;stroke-width:20;stroke-linecap:round;stroke-miterlimit:10}.st2{fill:#332e2e}.st3{fill:#f9ce1d}.st4{fill:#39f}.st5{fill:#584539}.st6{fill:#fff}.st7{fill:#a14343}.st8{fill:#f33}.st12{fill:none;stroke:#39f;stroke-width:20.9019;stroke-linecap:round;stroke-miterlimit:10}.st13{fill:#9b643d}.st14{fill:none;stroke:#f33;stroke-width:20.9019;stroke-linecap:round;stroke-miterlimit:10}.st15{fill:#bf8f68}.st16{fill:#32a658}.st17{fill:none;stroke:#32a658;stroke-width:20.9019;stroke-linecap:round;stroke-miterlimit:10}.st18{fill:#fadcbc}.st20{fill:#764c2e}.st21{fill:none;stroke:#f9ce1d;stroke-width:3.1353;stroke-miterlimit:10}.st22{fill:#929292}.st24{fill:#616161}.st30{fill:#7f7f7f}</style><path d="M-224.3 536.6c-5.6-9.1-17.6-11.9-26.7-6.3l-4.9 3.1c.2-1.3.2-2.7.1-4.2-.3-3-3-5.2-6-4.9s-5.2 3-4.9 6c.2 2.2-1 4.8-2.4 7.7-.8 1.7-1.7 3.5-2.3 5.5-1.5 2.8-1.5 7-.1 11.6-.2.2-.5.3-.7.5-34.3 25-59.6 42.7-81.9 57.7 5.8-7.9 9.4-15 9.4-15l-18.2 5.5c2.3-6.2 3.4-12.6 3.5-19l4.1 2.7c3.3 2.2 7.7 1.2 9.9-2.1l7.2-11c2.2-3.3 1.2-7.7-2.1-9.9l-7-4.5c1.6-32.9 57-61.5 57-61.5-34.1-4.6-104.3 4.9-134.6 9.4h-.2c-.5.1-1.1.2-1.6.2l-3.1-2c-1.7-1.1-3.6-1.4-5.4-1s-3.4 1.4-4.5 3.1l-4.6 7.1-2.6 3.9c-.1.2-.3.4-.4.6 0 .1-.1.1-.1.2-.1.1-.1.3-.2.4 0 .1-.1.2-.1.3 0 .1-.1.3-.1.4s-.1.2-.1.3c0 .1-.1.2-.1.3 0 .1 0 .2-.1.3v1.7c0 .1 0 .3.1.4v.2c0 .1.1.3.1.4 0 .1 0 .1.1.2 0 .2.1.3.1.4 0 .1 0 .1.1.2.1.2.1.3.2.5 0 0 0 .1.1.1.1.2.2.3.2.5 0 0 0 .1.1.1.1.2.2.3.3.5 0 0 0 .1.1.1.1.2.2.3.4.5.1.2.3.3.4.4.2.1.3.3.5.4 0 0-.1 0-.1.1-.5.2-.9.4-1.3.6h-.1c-.5.2-.9.5-1.3.8l-.1.1c-.8.6-1.5 1.2-2.1 1.8-1.3 1.3-2 2.8-2.3 4.4-.7.5-1.4 1.1-2.1 1.7l.1-22.1-.2.2-.1.1-.2.2-.1.1-1.1 1.1-.1.1-.3.3-.1.1-.3.3-.1.1-.4.4-.1.1c-.6.6-1.2 1.3-1.9 2.1l-.1.1c-.2.2-.3.4-.5.6l-.1.1c-.2.2-.3.4-.5.6l-.1.1c-.2.2-.4.4-.5.6-.8.9-1.6 1.9-2.5 3-.2.2-.4.5-.6.8l-.1.1c-.2.3-.4.5-.6.8 0 0 0 .1-.1.1-1.3 1.7-2.6 3.5-3.9 5.3 0 0 0 .1-.1.1l-.6.9s0 .1-.1.1c-1.3 1.9-2.5 3.9-3.7 5.9 0 0 0 .1-.1.1-.2.3-.4.6-.5 1v.1c-.6 1.2-1.2 2.4-1.8 3.5-13.7-31.5-37.7-84.1-56.6-107.6 0 0 4.3 62.2-23.1 80.6l-4.1-2c.1-.6.3-1.3.4-1.9.8-4.2-1.5-7.1-5.3-6.8l-4.8.3c-17.8-24.6-60.4-81.9-87.7-103.3 0 0 11.1 57.8-14 80.8-3.1-.7-5.8.6-6.5 3.6-.9 4-1.9 7.9-2.8 11.9-.7 2.9.7 6.5 3.3 8.8-3.1 3.2-5.9 6.7-8.3 10.6l-8.5-19.2s-17.4 43.6.3 55.6c.1 1.3.3 2.6.5 3.9-1.1.5-2.1 1.1-3.1 1.8-4.9 3.1-8.7 7.1-11.6 11.7l-22.4-42.1c-.7-1.2-1.8-2.1-3-2.4l-40.8-76.7c-.4-.8-1.2-1.4-2-1.7l-35-65.6c.1-.4.2-.8.2-1.2l29.6 4.6c1.5.2 3.1-.8 3.5-2.3l9.2-33.3c.4-1.5-2.5-5.2-4-5.6-.3-.2-.7-.4-1.1-.5l-67.2-10.6c-1.5-.2-3.1.8-3.5 2.3l-9.2 33.3c-.1.3-.1.6-.1.9 0 .3.1.7.3 1.1 1 1.7 3.7 3.9 4.9 4.1l29.6 4.6c-.1.4-.2.8-.2 1.3 0 2.2 1.7 4 3.9 4.1l34.7 65.2c-.2.8-.2 1.7.3 2.5l40.8 76.7c-.4 1.2-.3 2.6.4 3.9l15.9 29.9c-.6 1.4-.6 3 .1 4.4l4.4 8.3c-14.2-1.7-29.6-.7-37.9 10.7-11.2 15.6-.4 38 8.7 53.5 1.2 2 2.8 3.5 4.7 4.6-.6 1.3-1.1 2.7-1.4 4.1-2 9.1 2.4 18.2 10.4 22.4-.7 3.7-1.4 7.4-2 11.1-.6-.1-1.1-.1-1.7-.2-1.6 8.9-2.9 17.9-4.1 26.8.6.1 1.2.1 1.8.2-.1.5-.1 1-.1 1.4-4 6.4-7.8 12.8-11.5 19.1H-630c-1-2.9-2-5.9-3-8.8.4 0 .8.1 1.2.1 1-9 2.2-17.9 3.6-26.9-.6-.1-1.1-.1-1.7-.2.1-.8.2-1.5.4-2.3.9.2 1.8.3 2.8.3.8 0 1.5-.1 2.3-.2 2.1-.4 4.6-.8 7.4-1.5l-.3 39.3h208.2l10.6-32.1c3.2-9.7 3.5-19.7 1.4-28.9.1 0 .2-.1.3-.2 1.5 1.1 3.1 2.1 4.8 3 3.3-3.2 6-7 8-11.2 35.5-23.1 68.3-44.7 126.9-87.4.6-.5 1.2-1 1.7-1.6 2.8 1.1 5.4 1.2 7.4-.1.5-.3.8-.7 1.2-1.1v.1l16.5-10.2c8.8-5.2 11.6-17.2 6-26.3z" fill="none"/><path class="st1" d="M1201.6-160.9v78.7"/><path class="st2" d="M1246-72.2c0 10.7-8.7 19.4-19.4 19.4-8.3 0-15-6.7-15-15v-14.4h-20v43.7c0 2.8 2.2 5 5 5h48.9c10.5 0 19.4-8.2 19.8-18.6.4-11.1-8.4-20.1-19.3-20.1z"/><path class="st3" d="M1211.6-62.9h-7.5c-2.8 0-5-2.2-5-5s2.2-5 5-5h7.5c2.8 0 5 2.2 5 5s-2.2 5-5 5z"/><path class="st1" d="M1166.6-160.9v78.7"/><path class="st2" d="M1122.3-72.2c0 10.7 8.7 19.4 19.4 19.4 8.3 0 15-6.7 15-15v-14.4h20v43.7c0 2.8-2.2 5-5 5h-48.9c-10.5 0-19.4-8.2-19.8-18.6-.5-11.1 8.3-20.1 19.3-20.1z"/><path class="st3" d="M1156.6-62.9h7.5c2.8 0 5-2.2 5-5s-2.2-5-5-5h-7.5c-2.8 0-5 2.2-5 5s2.3 5 5 5z"/><path class="st4" d="M1166.6-160.9h35l-17.5-88.6z"/><path class="st4" d="M1184.1-259.5c-23.6 0-42.6 19.1-42.6 42.6v35.7c0 23.6 19.1 42.6 42.6 42.6 23.6 0 42.6-19.1 42.6-42.6v-35.7c.1-23.5-19-42.6-42.6-42.6z"/><g><path class="st1" d="M1184.1-249.5c40.5 0 81.2 32.9 81.2 69.9"/><circle class="st5" cx="1265.3" cy="-158.3" r="21.3"/><path class="st6" d="M1283.4-189.6h-36.1c-5.5 0-10 4.5-10 10s4.5 10 10 10h36.1c5.5 0 10-4.5 10-10s-4.5-10-10-10z"/></g><g><path class="st1" d="M1184.1-249.5c-40.5 0-81.2 29.3-81.2 69.9"/><circle class="st5" cx="1102.9" cy="-158.3" r="21.3"/><path class="st6" d="M1121-189.6h-36.1c-5.5 0-10 4.5-10 10s4.5 10 10 10h36.1c5.5 0 10-4.5 10-10s-4.5-10-10-10z"/></g><g><path class="st2" d="M1141.5-202.4h85.3v21.3h-85.3z"/><path class="st3" d="M1173.4-202.4h21.3v21.3h-21.3z"/></g><g><circle class="st6" cx="1184.1" cy="-422.9" r="14.8"/><path class="st4" d="M1226.8-322.9l-42.7-85.2-42.6 85.2z"/><path class="st6" d="M1224.8-312.3c-5.3 0-10.3-3.4-11.9-8.8-4-12.6-15.5-21.1-28.8-21.1s-24.8 8.5-28.8 21.1c-2.1 6.6-9.1 10.3-15.7 8.2-6.6-2.1-10.3-9.1-8.2-15.7 7.2-23.1 28.4-38.7 52.6-38.7s45.4 15.5 52.6 38.7c2.1 6.6-1.6 13.6-8.2 15.7-1.1.4-2.3.6-3.6.6z"/><path class="st7" d="M1133.7-302.1c0-27.9 22.6-50.4 50.4-50.4 27.9 0 50.4 22.6 50.4 50.4h-100.8z"/><path class="st5" d="M1240.6-331.9l-21.8 21.8c-2 2-3.3 4.9-3.3 8 0 6.2 5.1 11.3 11.3 11.3 3.1 0 5.9-1.3 8-3.3 13.6-13.6 5.8-37.8 5.8-37.8zM1149.4-310.1l-21.8-21.8s-7.8 24.1 5.8 37.8c2 2 4.9 3.3 8 3.3 6.2 0 11.3-5.1 11.3-11.3 0-3.1-1.2-5.9-3.3-8z"/><circle class="st8" cx="1231.5" cy="-287.4" r="11.2"/><circle class="st8" cx="1136.7" cy="-287.4" r="11.2"/><circle class="st5" cx="1184.1" cy="-302.1" r="42.6"/><g><path class="st2" d="M1175.5-314.3c0 4.8-3.9 8.6-8.6 8.6-4.8 0-8.6-3.9-8.6-8.6 0-4.8 3.8-8.6 8.6-8.6 4.7 0 8.6 3.8 8.6 8.6zM1210-314.3c0 4.8-3.9 8.6-8.6 8.6-4.8 0-8.6-3.9-8.6-8.6 0-4.8 3.8-8.6 8.6-8.6 4.7 0 8.6 3.8 8.6 8.6z"/><path class="st6" d="M1210-297.1c0 14.3-11.6 25.8-25.8 25.8s-25.8-11.6-25.8-25.8h51.6z"/></g><g><circle class="st7" cx="1184.1" cy="-342.4" r="10.1"/><path class="st7" d="M1184.1-332.2h7.5c11.2 0 20.3-9.1 20.3-20.3 0-11.2-9.1-20.3-20.3-20.3 2.5 2.1 4.1 5.3 4.1 8.8 0 6.4-5.2 11.5-11.5 11.5v20.3z"/></g></g><g><defs><path id="SVGID_1_" d="M0 0h632.4v396.4H0z"/></defs><clipPath id="SVGID_2_"><use xlink:href="#SVGID_1_" overflow="visible"/></clipPath><g clip-path="url(#SVGID_2_)"><radialGradient id="SVGID_3_" cx="32.999" cy="286.524" r="148.934" gradientTransform="matrix(1 0 0 -1 0 398)" gradientUnits="userSpaceOnUse"><stop offset="0" stop-color="#c2fff7" stop-opacity=".5"/><stop offset=".846" stop-color="#c2fff7" stop-opacity="0"/></radialGradient><path d="M13 67.8l232.4 7.4-186 276L7.9 108.9 13 67.8z" opacity=".6" fill="url(#SVGID_3_)"/><radialGradient id="SVGID_4_" cx="302.233" cy="226.675" r="204.094" gradientTransform="matrix(1 0 0 -1 0 398)" gradientUnits="userSpaceOnUse"><stop offset="0" stop-color="#fbffe8" stop-opacity=".5"/><stop offset=".846" stop-color="#fbffe8" stop-opacity="0"/></radialGradient><circle cx="321.8" cy="201.1" r="284.9" fill="url(#SVGID_4_)"/><ellipse transform="rotate(-74.971 419.432 391.752)" class="st4" cx="419.4" cy="391.8" rx="82.7" ry="69.1"/><path class="st4" d="M384 439.9l42 11.3L437.6 324z"/><path class="st2" d="M352.7 373.8c-1.2 4.6-2.3 9.2-3.2 13.7l132.6 35.6c1.5-4.3 2.8-8.8 4.1-13.4.7-2.7 1.4-5.4 2-8L355 365.9c-.8 2.6-1.6 5.2-2.3 7.9z"/><path transform="rotate(15.028 418.723 394.573)" class="st3" d="M407.6 383.4h22.3v22.3h-22.3z"/><path class="st12" d="M437.6 324c82 22 112.4-60.2 148.3-74.6"/><circle class="st13" cx="606.6" cy="241.2" r="22.3"/><path class="st6" d="M602.6 263.1l-14-35.1c-2.1-5.4-8.2-8-13.6-5.8-5.4 2.1-8 8.2-5.8 13.6l14 35.1c2.1 5.4 8.2 8 13.6 5.8s8-8.2 5.8-13.6z"/><path class="st14" d="M208.4 303.3c-41.8-6.6-110.6-28.4-74 47.2"/><circle class="st15" cx="144" cy="370.6" r="22.3"/><path class="st6" d="M160.9 337.8c-2.5-5.2-8.7-7.4-13.9-4.9l-34.1 16.2c-5.2 2.5-7.4 8.7-4.9 13.9 2.5 5.2 8.7 7.4 13.9 4.9l34.1-16.2c5.1-2.4 7.4-8.7 4.9-13.9z"/><path class="st8" d="M172.3 391.8l36.1 5.7-3.6-94.2z"/><path class="st8" d="M206.4 292.9c-24.3-3.8-47.1 12.8-51 37.1l-5.8 36.9c-3.8 24.3 12.8 47.1 37.1 51 24.3 3.8 47.1-12.8 51-37.1l5.8-36.9c3.8-24.3-12.8-47.1-37.1-51z"/><path transform="rotate(8.981 195.328 362.745)" class="st2" d="M150.8 351.7h89.1V374h-89.1z"/><path transform="rotate(8.981 195.328 362.745)" class="st3" d="M184.2 351.7h22.3V374h-22.3z"/><path class="st16" d="M279.6 407.7h36.6l-18.3-92.5z"/><path class="st16" d="M297.9 304.7c-24.6 0-44.6 20-44.6 44.6v37.3c0 24.6 20 44.6 44.6 44.6s44.6-20 44.6-44.6v-37.3c0-24.6-20-44.6-44.6-44.6z"/><path class="st17" d="M297.9 314.3c78.9-34.8 193.6-27.2 193.6 11.4"/><circle class="st18" cx="500.7" cy="344.4" r="22.3"/><path class="st6" d="M519.5 312.7c-2.2-5.4-8.2-7.9-13.6-5.8l-35 14.1c-5.4 2.2-7.9 8.2-5.8 13.6s8.2 7.9 13.6 5.8l35-14.1c5.4-2.1 8-8.2 5.8-13.6z"/><path class="st12" d="M437.6 318c-83.6-22.2-95.9-51-152.3-22.2"/><circle class="st13" cx="263.8" cy="301.5" r="22.3"/><path class="st6" d="M300.3 311.3l-9.7-36.5c-1.5-5.6-7.2-8.9-12.8-7.4-5.6 1.5-8.9 7.2-7.4 12.8l9.7 36.5c1.5 5.6 7.2 8.9 12.8 7.4s8.8-7.2 7.4-12.8z"/><path d="M176.5 368.4c-1.9 0-3.7-1-4.6-2.8l-28.4-53.4c-1.4-2.5-.4-5.7 2.2-7.1 2.5-1.4 5.7-.4 7.1 2.2l28.4 53.4c1.4 2.5.4 5.7-2.2 7.1-.9.4-1.8.6-2.5.6z" fill="#7b7878"/><g><path class="st14" d="M202.1 303.9c40.1 3.3 138.3-22.8 158.7 9.9"/><circle class="st15" cx="372.6" cy="332.7" r="22.3"/><path class="st6" d="M385.7 298.3c-3-4.9-9.5-6.4-14.4-3.4l-32.1 19.9c-4.9 3-6.4 9.5-3.4 14.4 3 4.9 9.5 6.4 14.4 3.4l32.1-19.9c5-3 6.5-9.5 3.4-14.4z"/></g><path class="st17" d="M297.9 315.2c-42.3 0-77.2 27.5-117.3 13.9"/><g><circle class="st6" cx="191" cy="128.6" r="15.5"/><path class="st8" d="M244 229.1l-51.7-85-37.2 92.3z"/><path class="st6" d="M242.9 240.4c-5.5.5-11-2.7-13.2-8.1-5.2-12.8-18-20.7-31.8-19.6s-25.1 11-28.2 24.5c-1.6 7-8.6 11.5-15.6 9.9-7-1.6-11.5-8.6-9.9-15.6 5.6-24.7 26.3-42.7 51.5-44.8s48.6 12.3 58.1 35.8c2.7 6.7-.5 14.3-7.2 17-1.2.4-2.4.7-3.7.9z"/><path class="st15" d="M257.6 218.6l-20.9 24.6c-2 2.3-3 5.3-2.8 8.6.5 6.5 6.2 11.3 12.7 10.8 3.2-.3 6.1-1.8 8-4.1 13.2-15.4 3-39.9 3-39.9zM164.5 249.1L140 228.3s-6 25.8 9.3 38.8c2.3 2 5.3 3 8.6 2.8 6.5-.5 11.3-6.2 10.8-12.7-.3-3.3-1.9-6.1-4.2-8.1z"/><path class="st2" d="M201.3 254.5c2.4 29-19.2 54.5-48.2 56.9l-4.3-52.5 52.5-4.4z"/><path class="st2" d="M201.3 254.5c2.4 29 27.8 50.6 56.9 48.2l-4.3-52.5-52.6 4.3zM148.8 258.8c-2.4-29 19.2-54.5 48.2-56.9 29-2.4 54.5 19.2 56.9 48.2l-105.1 8.7z"/><circle class="st15" cx="201.3" cy="254.5" r="44.6"/><g><path class="st2" d="M191.3 246.3c.4 4.9-3.3 9.3-8.2 9.7-5 .4-9.3-3.3-9.7-8.2-.4-4.9 3.3-9.3 8.2-9.7 4.9-.4 9.3 3.3 9.7 8.2zM227.2 243.4c.4 4.9-3.3 9.3-8.2 9.7-5 .4-9.3-3.3-9.7-8.2-.4-4.9 3.3-9.3 8.2-9.7 4.9-.5 9.3 3.2 9.7 8.2z"/><ellipse transform="rotate(-8.054 219.522 257.128)" class="st15" cx="219.5" cy="257.1" rx="19.9" ry="8"/><path class="st6" d="M223 278.5c1 2.2 0 5-2.3 6s-5 0-6-2.3l8.3-3.7z"/><ellipse transform="rotate(-8.054 180.517 259.843)" class="st15" cx="180.5" cy="259.8" rx="19.9" ry="8"/></g><path class="st2" d="M218.5 209.1c-28.4-7.1-57.2 10.2-64.3 38.6 28.4 7 57.2-10.2 64.3-38.6z"/></g><g><circle class="st18" cx="161.2" cy="332.9" r="22.3"/></g><g><path class="st6" d="M196.5 347.9l-4.7-37.5c-.7-5.7-5.9-9.8-11.7-9.1s-9.8 5.9-9.1 11.7l4.7 37.5c.7 5.7 5.9 9.8 11.7 9.1s9.8-6 9.1-11.7z"/></g><g><path class="st2" d="M253.4 367.5h89.1v22.3h-89.1z"/><path class="st3" d="M286.8 367.5h22.3v22.3h-22.3z"/></g><g><circle class="st6" cx="338.3" cy="145" r="15.5"/><path class="st16" d="M351.1 257.9l-17.2-98.1-68.2 72.6z"/><path class="st6" d="M346 267.9c-5.3-1.6-9.2-6.5-9.3-12.4-.2-13.8-9.2-25.8-22.5-29.8s-27.4 1.1-35.1 12.6c-4 6-12.2 7.6-18.1 3.5-6-4-7.6-12.2-3.5-18.1 14.2-21 40-30.2 64.3-23 24.3 7.3 40.8 29.1 41.2 54.5.1 7.2-5.7 13.1-12.9 13.2-1.5.1-2.9-.1-4.1-.5z"/><path class="st20" d="M251.7 250.9c8.3-27.9 37.7-43.8 65.6-35.4 27.9 8.3 43.8 37.7 35.4 65.6l-101-30.2z"/><circle class="st20" cx="254" cy="285.5" r="12.1"/><circle class="st20" cx="280.4" cy="293.4" r="12.1"/><circle class="st20" cx="240.8" cy="281.5" r="12.1"/><circle class="st20" cx="267.2" cy="289.4" r="12.1"/><g><circle class="st20" cx="331.8" cy="308.7" r="12.1"/><circle class="st20" cx="305.4" cy="300.8" r="12.1"/><circle class="st20" cx="345" cy="312.6" r="12.1"/><circle class="st20" cx="318.6" cy="304.8" r="12.1"/></g><path transform="rotate(16.625 297.511 281.503)" class="st20" d="M243.1 265.3h108.8v32.5H243.1z"/><g><path class="st18" d="M367.6 253l-28.4 15.3c-2.7 1.4-4.8 3.9-5.7 7-1.9 6.2 1.7 12.8 7.9 14.7 3.1.9 6.3.5 9-.9 17.8-9.6 17.2-36.1 17.2-36.1zM269.8 247.6l-15.3-28.4s-15 21.9-5.4 39.6c1.4 2.7 3.9 4.8 7 5.7 6.2 1.9 12.8-1.7 14.7-7.9.9-3.1.5-6.3-1-9z"/></g><circle class="st18" cx="302.2" cy="266" r="44.6"/><g><path class="st6" d="M326.6 278.7c-4.3 14.3-19.3 22.4-33.6 18.2-14.3-4.3-22.4-19.3-18.2-33.6l51.8 15.4z"/><path class="st2" d="M329 265.5c-.2 0-.3.1-.5 0-.6-.2-1-.8-.8-1.4.8-3.3-1.2-6.8-4.5-7.6-3.3-.8-6.8 1.2-7.6 4.5-.2.6-.8 1-1.4.8-.6-.2-1-.8-.8-1.4 1.2-4.6 5.9-7.3 10.4-6.2 2.2.6 4.1 1.9 5.3 3.9 1.2 2 1.5 4.3.9 6.5-.2.5-.6.8-1 .9zm-32.8-8.4c-.2 0-.3.1-.5 0-.6-.2-1-.8-.8-1.4.8-3.3-1.2-6.8-4.5-7.6-3.3-.8-6.8 1.2-7.6 4.5-.2.6-.8 1-1.4.8-.6-.2-1-.8-.8-1.4 1.2-4.6 5.9-7.3 10.4-6.2 4.6 1.2 7.3 5.9 6.2 10.4-.2.5-.6.8-1 .9z"/></g><g><path class="st20" d="M319.7 207.2c-13.3-4-27.3 3.6-31.2 16.9-1.3 4.4 1.2 9.1 5.6 10.4s9.1-1.2 10.4-5.6c-1.3 4.4 1.2 9.1 5.6 10.4 4.4 1.3 9.1-1.2 10.4-5.6-1.3 4.4 1.2 9.1 5.6 10.4 4.4 1.3 9.1-1.2 10.4-5.6 4.1-13.3-3.5-27.3-16.8-31.3z"/></g></g><g><circle class="st20" cx="477.8" cy="288.2" r="40.9"/><circle class="st20" cx="425.8" cy="274.2" r="40.9"/></g><g><circle class="st6" cx="485.1" cy="139.4" r="15.5"/><path class="st4" d="M501.1 251.9l-20-97.5-66.1 74.4z"/><path class="st6" d="M493.5 272.2c-5.4-1.4-9.4-6.2-9.7-12.1-.6-13.8-9.9-25.5-23.3-29.1s-27.4 1.8-34.8 13.5c-3.9 6.1-11.9 7.9-18 4-6.1-3.9-7.9-11.9-4-18 13.6-21.4 39.1-31.3 63.6-24.8s41.6 28 42.7 53.3c.3 7.2-5.3 13.3-12.5 13.6-1.4.1-2.7-.1-4-.4z"/><path class="st20" d="M398.9 252.3c7.9-29.5 38.3-47.1 67.9-39.1 29.5 7.9 47.1 38.3 39.1 67.9l-107-28.8z"/><circle class="st13" cx="495.4" cy="278.2" r="11.8"/><path class="st13" d="M501.3 288.4c17.4-10.1 16.1-36.5 16.1-36.5L489.5 268l11.8 20.4z"/><circle class="st13" cx="409.3" cy="255.1" r="11.8"/><path class="st13" d="M399.1 261c-10.1-17.4 4.3-39.7 4.3-39.7l16.1 27.9-20.4 11.8z"/><path class="st21" d="M493.7 284.6c5.7 1.5 9.1 7.4 7.5 13.1-1.5 5.7-7.4 9.1-13.1 7.5-5.7-1.5-9.1-7.4-7.5-13.1M407.6 261.5c-5.7-1.5-11.6 1.8-13.1 7.5s1.8 11.6 7.5 13.1 11.6-1.8 13.1-7.5"/><circle class="st13" cx="452.4" cy="266.6" r="49"/><g><path class="st6" d="M477.1 278.7c-3.9 14.4-18.7 23-33.1 19.1s-23-18.7-19.1-33.1l52.2 14z"/><path class="st2" d="M482 266.1c-.2.1-.5.1-.8 0-.7-.2-1.1-.9-.8-1.6 1.2-3.7-.9-7.7-4.6-8.8-1.8-.6-3.7-.3-5.3.5-1.6.8-2.9 2.3-3.4 4.1-.2.7-.9 1.1-1.6.8s-1.1-.9-.8-1.6c.8-2.5 2.5-4.5 4.7-5.6s4.9-1.5 7.3-.6c5.1 1.6 7.9 7 6.3 12-.3.4-.6.7-1 .8zm-36.2-11.3c-.2.1-.5.1-.8 0-.7-.2-1.1-.9-.8-1.6 1.2-3.7-.9-7.7-4.6-8.8-3.7-1.2-7.7.9-8.8 4.6-.2.7-.9 1.1-1.6.8s-1.1-.9-.8-1.6c1.6-5.1 7-7.9 12-6.3 5.1 1.6 7.9 7 6.3 12-.2.4-.6.8-.9.9z"/></g><g><circle class="st20" cx="465.3" cy="218.4" r="22.3"/><circle class="st20" cx="437.7" cy="219.7" r="13.8"/><circle class="st20" cx="488.6" cy="233.3" r="13.8"/></g></g><g><path class="st22" d="M156.5 328.4c-.9 0-1.9-.5-2.3-1.4L42.5 117.4c-.6-1.3-.2-2.8 1-3.6 1.3-.7 2.8-.2 3.6 1l111.7 209.6c.6 1.3.2 2.8-1 3.6-.5.3-.9.4-1.3.4z"/><path d="M79.3 120.3L9 109.3c-1.6-.2-5.9-4.1-5.4-5.6l12.9-32.4c.4-1.6 2.1-2.6 3.7-2.4L88 77.2c1.6.2 4.8 4.4 4.4 6l-9.5 34.7c-.4 1.6-2.1 2.7-3.6 2.4z" fill="#2f2f2f"/><path class="st24" d="M75.9 117.3l-70.2-11c-1.6-.2-2.5-1.8-2.1-3.3l9.6-34.8c.4-1.6 2.1-2.6 3.7-2.4l70.2 11c1.6.2 2.5 1.8 2.1 3.3l-9.6 34.8c-.4 1.5-2.1 2.6-3.7 2.4z"/><path d="M20.2 86.4c-.2 1.6-1.7 2.7-3.2 2.4s-2.6-1.8-2.4-3.3 1.7-2.7 3.2-2.4 2.6 1.8 2.4 3.3z" fill="#8d8d8d"/><path d="M17.3 105.7l55.9 8.7-.7 4.3-55.9-8.7.7-4.3z" fill="#575757"/><path class="st22" d="M56.1 115.5l-28.6-4.4L32 95.6l28.6 4.5-4.5 15.4z"/><path d="M16.7 105.6l55.9 8.7-.7 4.3L16 110l.7-4.4z" fill="#828282"/><path d="M154.8 326.5c-.5 0-1.1-.3-1.4-.8L41.7 116c-.4-.7-.1-1.7.6-2.1.7-.4 1.7-.1 2.1.6l111.7 209.6c.4.7.1 1.7-.6 2.1-.3.3-.5.3-.7.3z" fill="#b3b3b3" opacity=".43"/><path class="st30" d="M156.5 329.4c-1.4 0-2.6-.7-3.2-2l-73-136.9c-.9-1.8-.3-4 1.5-4.9 1.8-.9 4-.3 4.9 1.5L159.6 324c.9 1.8.3 4-1.5 4.9-.5.4-1.1.5-1.6.5z"/><path d="M156.5 331c-1.9 0-3.7-1-4.6-2.8l-28.5-53.4c-1.4-2.5-.4-5.7 2.2-7.1 2.5-1.4 5.7-.4 7.1 2.2l28.4 53.4c1.4 2.5.4 5.7-2.2 7.1-.7.4-1.6.6-2.4.6z" fill="#6a6a6a"/><path class="st30" d="M127.3 274.7c-1.4 0-2.6-.7-3.2-2l-43.7-82c-.9-1.8-.3-4 1.5-4.9 1.8-.9 4-.3 4.9 1.5l43.7 82c.9 1.8.3 4-1.5 4.9-.5.2-1.1.5-1.7.5z"/><path class="st22" d="M82.4 189.3c-.9 0-1.9-.5-2.3-1.4l-37.6-70.5c-.6-1.3-.2-2.8 1-3.6 1.3-.7 2.8-.2 3.6 1l37.6 70.5c.6 1.3.2 2.8-1 3.6-.5.3-.9.4-1.3.4z"/><circle class="st24" cx="44" cy="115.5" r="4.3"/></g></g></g></svg>