<svg id="Layer_1" xmlns="http://www.w3.org/2000/svg" viewBox="0 0 360 554.7"><style>.st0{fill:#fff}.st1{fill:#b99960}.st2{fill:#d4af6e}.st5{fill:none;stroke:#5590cc;stroke-width:20;stroke-linecap:round;stroke-miterlimit:10}.st6{fill:#e0bb95}.st8{fill:#5590cc}.st9{fill:#332e2e}.st10{fill:#f9ce1d}.st12{fill:#f27455}.st14{fill:none}.st15{fill:#b6e5cd}.st17{fill:#666262}.st19{opacity:.1}.st20{fill:#b0b0b0}</style><path class="st0" d="M315.5 141.3c-2.6 3.3-2 8.2 1.3 10.8 3.4 2.6 8.2 2 10.8-1.3 2.6-3.4 2-8.2-1.3-10.8-3.4-2.7-8.2-2.1-10.8 1.3z"/><path class="st1" d="M254.7 451.6c-.5 1.3-1.2 2.5-2.2 3.5-5.2 5.8-10 11.7-14.4 17.7-.8 1.1-1.6 2.2-2.4 3.2-4.3 5.9-8.2 11.9-11.8 18-.2.3-.3.5-.5.8l-1.2 2.1c-.6 1.1-1.3 2.2-1.9 3.4-.7 1.3-1.4 2.5-2 3.8-.1.2-.2.5-.4.7-8.5 16.4-14.3 33.2-17.4 50H177c.4-2.8.9-5.5 1.5-8.3 3.4-16.2 8.8-32 16.3-47.4.1-.2.1-.3.2-.4 1.2-2.5 2.5-5 3.8-7.4.3-.6.7-1.3 1-1.9 2-3.8 4.2-7.5 6.5-11.2.8-1.3 1.6-2.6 2.4-3.8.2-.4.4-.7.7-1 3.2-5 6.7-10 10.4-14.9 2.2-2.9 4.5-5.8 6.8-8.7 2.7-3.4 5.6-6.7 8.5-10 3.2-3.7 8.3-4.8 12.6-3.2 1.4.5 2.7 1.3 3.9 2.3 3.8 3.1 4.9 8.3 3.1 12.7zM25.7 436.8v117.9H0V432.9c1.1-3.7 3.9-6.6 7.3-8.1 1.6-.7 3.4-1.1 5.2-1.1 7.3-.1 13.2 5.8 13.2 13.1z"/><path class="st2" d="M295.8 426.7v8.3c0 .6-.1 1.1-.1 1.7v.4c0 .3 0 .6-.1.9-.1 1-.2 2.1-.4 3.1 0 .1 0 .3-.1.4v.3c0 .2-.1.4-.1.6v.2c0 .2-.1.3-.1.5-.1.4-.1.9-.2 1.3v.2c0 .1 0 .2-.1.3l-.1.8v.1c0 .2-.1.5-.1.7v.5c-.1.4-.2.8-.3 1.1 0 .2-.1.4-.1.6s-.1.4-.2.6c0 .1-.1.3-.1.4v.1c-.1.2-.1.5-.2.8-.2.7-.4 1.3-.6 2 0 .2-.1.4-.2.6-.2.8-.5 1.6-.8 2.4-.1.2-.1.4-.2.6-.2.4-.3.9-.5 1.3-.1.2-.2.5-.3.7-.1.3-.2.5-.3.8-.2.4-.3.8-.5 1.2-.2.4-.4.8-.5 1.2 0 .1-.1.2-.1.3 0 .1-.1.2-.1.2l-.3.6s0 .1-.1.2c-.1.2-.2.3-.2.5-.1.2-.1.3-.2.5-.1.3-.3.6-.4.8-.2.3-.4.7-.5 1l-.3.6c-.1.3-.3.6-.5.8-.1.2-.2.3-.3.5-.4.7-.8 1.3-1.1 1.9-.2.4-.5.8-.7 1.1-.1.1-.2.3-.2.4-.1.2-.2.3-.3.5-.1.1-.2.3-.3.4-.1.2-.3.4-.4.6-.2.4-.5.7-.7 1.1-.1.1-.2.2-.3.4-.1.1-.1.2-.2.3 0 0 0 .1-.1.1-.1.2-.2.3-.4.5-.1.1-.1.2-.2.2-.3.4-.6.9-1 1.3-.4.5-.7.9-1.1 1.4-.1.2-.3.4-.4.5s-.2.2-.3.4c-.1.1-.1.2-.2.2l-.2.2c-.2.2-.4.5-.6.7l-.6.6-.1.1c-.1.1-.2.3-.4.4-.6.7-1.3 1.4-2 2.1l-.1.1c-1 1.1-2.1 2.1-3.2 3.1-.3.3-.7.6-1 .9-.9.8-1.8 1.5-2.8 2.3-.9.7-1.9 1.4-2.9 2.1s-2 1.4-3 2c-.5.3-.9.6-1.4.9 0 0-.1.1-.2.1-.5.3-1 .6-1.6.9s-1 .6-1.6.9c-2.6 1.4-5.4 2.7-8.2 3.8-.5.2-1.1.4-1.6.6-1.1.4-2.1.8-3.2 1.1-.4.1-.9.3-1.3.4-.1 0-.2.1-.3.1l-.9.3c-.2.1-.5.1-.7.2-.1 0-.2.1-.3.1-.3.1-.6.2-.9.2-.2 0-.3.1-.5.1s-.4.1-.6.1c-.2 0-.5.1-.7.2-.4.1-.8.2-1.1.2-.3.1-.6.1-.9.2-.2 0-.4.1-.6.1-.2 0-.4.1-.7.1s-.6.1-.9.2c-.4.1-.8.1-1.2.2-.2 0-.4.1-.6.1h-.4c-.3 0-.6.1-.9.1-.2 0-.3 0-.5.1h-.1c-.3 0-.6.1-.8.1h-.1c-.5.1-1.1.1-1.6.1h-.5c-.4 0-.8 0-1.2.1h-4.1l-3.1-.8-1.4-.3-10.4-2.5-11.5-2.8-40.4-9.9c-.1 0-.2 0-.3-.1l-37.5-9.2-36.1-8.8-26.3-6.4-3.9-1c-.3 0-.6 0-1-.1-.5 0-1.1-.1-1.6-.2-1-.1-2.1-.3-3.1-.4-.5-.1-1-.2-1.5-.2l-1.5-.3c-1-.2-2-.4-3-.7-.5-.1-1-.2-1.4-.4h-.1c-.5-.1-1-.3-1.4-.4-.2 0-.3-.1-.5-.1-.1 0-.2 0-.3-.1h-.1c-.2-.1-.4-.1-.6-.2-.2-.1-.5-.2-.7-.2-.1 0-.3-.1-.4-.1l-.9-.3-.9-.3c-.9-.3-1.9-.7-2.8-1.1-.5-.2-.9-.4-1.4-.6s-.9-.4-1.4-.6H26c-.2-.1-.4-.2-.7-.3h-.2c-.2-.1-.4-.2-.7-.3-3.1-1.5-6.1-3.1-8.9-5-.1-.1-.2-.2-.4-.2-.4-.3-.8-.5-1.2-.8l-2.1-1.5c-.1-.1-.2-.1-.2-.2-4.1-3.1-7.9-6.7-11.3-10.6V336.6c.5-.6 1-1.1 1.5-1.6s.9-1 1.4-1.5c0-.1.1-.1.2-.2l.4-.4.9-.9c1.1-1.1 2.3-2.2 3.5-3.2.3-.3.7-.6 1-.9.2-.2.4-.3.5-.5l.3-.3 1.5-1.2c.6-.5 1.2-.9 1.8-1.3 9.8-7.1 21.3-11.8 33.7-13.5 5.2-.7 10.5-.9 15.9-.4l1.3.3.8.2 61.9 16.1.9.2 55.6 14.5 20.3 5.3 2.9.8 11.7 3.1 3.2.8h2.1c.5 0 1.1 0 1.6.1.6 0 1.1.1 1.7.1.3 0 .5 0 .8.1.8.1 1.6.1 2.3.2.4 0 .8.1 1.2.2h.7c.2 0 .2 0 .4.1 1.8.3 3.6.6 5.4 1 1.7.4 3.4.8 5 1.3l.9.3c1.9.6 3.8 1.3 5.7 2 .1 0 .1 0 .2.1.5.2.9.4 1.4.6s.9.4 1.4.6c.1.1.3.1.4.2l1.2.6c.2.1.4.2.7.3.1 0 .2.1.3.2.2.1.3.2.5.2.4.2.7.4 1.1.6.3.2.6.3.9.5.4.2.8.4 1.2.7.5.3 1 .5 1.4.8.1 0 .1.1.2.1.5.3 1 .6 1.4.9.6.4 1.2.8 1.7 1.1 1.1.7 2.1 1.5 3.1 2.2s1.9 1.5 2.8 2.2c.6.5 1.1.9 1.6 1.4.4.3.8.7 1.1 1 .5.4.9.9 1.4 1.3 1 1 2 2 3 3.1.3.3.6.6.9 1 .4.5.8.9 1.2 1.4.4.4.7.8 1.1 1.3.3.4.7.9 1 1.3.8 1 1.5 1.9 2.2 2.9.1.1.1.2.2.3.1.2.3.4.5.6l.1.1c.2.4.5.7.7 1 .2.2.3.5.5.7l.9 1.5c.2.3.3.5.5.8 1.2 2 2.3 4.1 3.2 6.2.2.5.4 1 .6 1.4.1.1.1.2.2.4 0 .1.1.2.1.2 0 .1.1.1.1.2l.9 2.1c.1.2.2.5.3.7.1.2.2.5.3.7.1.2.2.5.3.8.2.6.4 1.1.6 1.7.2.5.3 1 .5 1.6s.4 1.2.5 1.9c.2.6.3 1.2.5 1.7.1.6.3 1.2.4 1.8.3 1.2.5 2.4.7 3.7.1.6.2 1.3.3 1.9.1.5.1 1 .2 1.6s.1 1.2.2 1.8c.1 1.2.2 2.4.3 3.7-.5 1.2-.5 2.4-.5 3.6z"/><path class="st1" d="M13 324.7c-5.3 6.2-9.7 13.2-13 20.9v-9c3.8-4.5 8.2-8.5 13-11.9zm230.5 177.4c-.4.1-.7.2-1.1.3-.1 0-.2.1-.3.1h-.1l-1.2.3c-.4.1-.7.2-1 .3-.4.1-.7.2-1.1.3-.2 0-.4.1-.6.1-.2 0-.5.1-.7.2-.4.1-.8.2-1.1.2-.3.1-.6.1-1 .2-.2 0-.4.1-.6.1-.2 0-.4.1-.7.1s-.6.1-.9.2c-.4.1-.8.1-1.2.2-.2 0-.4.1-.6.1h-.4c-.2 0-.5.1-.8.1h-.1c-.2 0-.3 0-.5.1h-.1c-.3 0-.6.1-.8.1h-.2c-.5.1-1.1.1-1.6.1h-.4c-.4 0-.8 0-1.2.1h-4.1l-3.1-.8-1.4-.3-10.4-2.5-11.5-2.8-40.4-9.9c-.1 0-.2 0-.3-.1l-37.5-9.2-36.1-8.8-26.3-6.4-3.9-1c-.3 0-.6 0-1-.1-.5 0-1.1-.1-1.6-.2-1-.1-2.1-.3-3.1-.4-.5-.1-1-.2-1.5-.2l-1.5-.3c-1-.2-2-.4-3-.7-.5-.1-1-.2-1.4-.4H37c-.5-.1-1-.3-1.4-.4-.2 0-.3-.1-.5-.1-.1 0-.2 0-.3-.1h-.1c-.2-.1-.4-.1-.6-.2-.4-.1-.8-.2-1.1-.4l-.9-.3-.9-.3c-.9-.3-1.9-.7-2.8-1.1-.5-.2-.9-.4-1.4-.6s-.9-.4-1.4-.6h-.1c-.2-.1-.4-.2-.7-.3h-.1c-.3-.1-.5-.2-.8-.4-3.1-1.5-6.1-3.1-8.9-5-.1-.1-.2-.2-.4-.2-.4-.3-.8-.5-1.2-.8l-2.1-1.5c-.1-.1-.2-.1-.2-.2C7 445.6 3.2 442-.2 438.1v-26.8c2 4.7 4.5 9.1 7.3 13.2 4.8 7 10.7 13.2 17.5 18.3.1.1.2.1.3.2.2.2.5.3.7.5 6.4 4.7 13.6 8.5 21.3 11.1 2.6.9 5.3 1.6 8.1 2.2 2.5.5 4.9 1 7.5 1.3.7.1 1.5.2 2.2.2.3 0 .7.1 1 .1l14.7 3.6 6.2 1.5.3.1 30.9 7.6 80.8 19.8 7.5 1.8 12.2 3 3.8.9 1 .2 7.9 1.9 12.5 3.3z"/><path class="st2" d="M158.3 190.2c-2 5.3-5.4 10-9.6 13.7-4.4 3.7-9.8 6.4-15.8 7.5l-3.4.6s-.6.1-1.9.3c-.6.1-1.3.2-2.2.4-.4.1-.9.1-1.4.2-.5.1-1 .2-1.5.4-1.1.3-2.3.5-3.6.9-1.3.4-2.6.9-4.1 1.3-1.4.6-2.9 1.2-4.5 1.8-.8.4-1.5.8-2.3 1.2l-1.2.6-1.2.6-2.4 1.5c-.4.2-.9.5-1.2.8l-1.2.9c-.6.5-1.3.9-1.9 1.4-.2.1-.4.2-.6.4s-.4.3-.6.5c-.6.5-1.3 1-1.9 1.6-.4.3-.9.6-1.3 1s-.8.8-1.2 1.1c-.8.8-1.7 1.5-2.5 2.4s-1.6 1.7-2.4 2.6c-.4.4-.8.9-1.2 1.4-.4.5-.8.9-1.2 1.4-.4.5-.8.9-1.2 1.4-.4.5-.7 1-1.1 1.5-.7 1-1.5 2-2.2 3.1l-2.1 3.3c-.4.5-.7 1.1-1 1.7l-1 1.8c-2.6 4.8-5 9.8-6.8 15.3-1.9 5.4-3.5 11-4.5 16.7l-.4 2.1-.3 2.1c-.2 1.4-.5 2.8-.6 4.2-.2 2.8-.6 5.6-.7 8.4-.3 4.4-.2 8.8 0 12.9 0 1 .1 2 .1 3 .1 1 .2 2.1.3 3.1.4 3.9.9 7.6 1.5 11 .4 2.2.8 4.2 1.3 6.2.5 1.9.8 3.8 1.4 5.5.3.9.5 1.7.7 2.5l.3 1.2c.1.4.2.8.3 1.1.5 1.2.8 2.3 1.2 3.3.2.5.3 1 .5 1.5.3.7.5 1.3.8 1.9.5 1.2.9 2.2 1.2 3.1.7 1.7 1 2.6 1 2.6C83 378.1 72.8 401.7 52 410c-20.2 8-43-1.2-52-20.8V240.9c.5-1.2.9-2.3 1.4-3.4 3.7-8.9 8.2-17.5 13.4-25.7.7-1 1.3-2 2-3s1.3-2 2-3c1.4-2 2.9-3.9 4.3-5.8 1.5-1.9 3-3.7 4.5-5.6.8-.9 1.5-1.8 2.3-2.7s1.6-1.8 2.4-2.6c.8-.8 1.6-1.7 2.4-2.6.8-.9 1.6-1.7 2.5-2.5l5.1-4.8c1.7-1.6 3.5-3 5.2-4.4.9-.7 1.8-1.4 2.6-2.1.9-.7 1.8-1.3 2.7-2 1.8-1.3 3.6-2.5 5.4-3.8 1.8-1.2 3.6-2.3 5.4-3.4.9-.5 1.8-1.1 2.7-1.6s1.8-1 2.7-1.4c1.8-.9 3.6-1.8 5.3-2.7.9-.5 1.8-.8 2.6-1.2.9-.4 1.8-.7 2.6-1.1 1.7-.7 3.4-1.4 5-2.1 3.4-1.1 6.5-2.2 9.5-3.2 3-.8 5.9-1.5 8.5-2.2 2.6-.6 5.1-1 7.3-1.4 1.1-.2 2.1-.4 3.1-.5.6-.1 1.2-.2 1.8-.2.3 0 .6-.1.9-.1 1.7-.2 3.2-.3 4.4-.4l3.6-.3c.7-.1 1.3-.1 2-.1 3.3-.1 6.5.2 9.6 1.1.7.2 1.3.4 2 .6h.1c3.7 1.2 7.1 3.1 10.1 5.4 7 5.5 11.9 13.7 12.7 23.3.7 5.1-.1 10.2-1.8 14.8z"/><path class="st0" d="M65.8 345.7C7.9 260.5 55.1 225.3 99.4 223.2c-25.8 35.3-40.3 79.4-33.6 122.5z"/><path class="st1" d="M295.8 426.7v4.1c0 22.5-10 42.8-25.8 56.4-.9.8-1.8 1.5-2.8 2.3-.9.7-1.9 1.5-2.9 2.1-1 .7-2 1.4-3 2s-2 1.3-3.1 1.9c-.5.3-1.1.6-1.6.9-2.6 1.4-5.4 2.7-8.2 3.8-8.5 3.3-17.7 5.2-27.4 5.2h-.1L50.3 463.7c-.3 0-.6 0-1-.1-14.2-1.3-27.1-6.5-37.8-14.6-.1-.1-.2-.1-.2-.2 4.1.2 8.5.7 13.3 1.2.9.1 1.9.2 2.9.3L221.2 494c40 0 72.6-31.4 74.6-71v3.7z"/><path class="st1" d="M295.7 423.1c-1.9-39.5-34.5-71-74.5-71l-14.9-3.9v153.7l14.8 3.6h.1c9.7 0 18.9-1.8 27.4-5.2 2.8-1.1 5.6-2.4 8.2-3.8.5-.3 1.1-.6 1.6-.9 1-.6 2.1-1.2 3.1-1.9 1-.6 2-1.3 3-2s1.9-1.4 2.9-2.1c.9-.7 1.9-1.5 2.8-2.3 15.8-13.7 25.8-33.9 25.8-56.4v-4.1c-.2-1.3-.2-2.5-.3-3.7z"/><path class="st1" d="M288.6 455.7c-7.5 8.4-14.3 17-20.3 25.8-2.9 4.3-5.7 8.7-8.3 13.1-11.6 19.7-19.4 39.9-23.2 60.1h-23.6c.4-2.5.9-5.1 1.4-7.7 3-14.2 7.6-28.2 13.7-41.9.9-2 1.9-4.1 2.8-6.1 1-2.1 2-4.1 3.1-6.2 6.4-12.2 14-24.1 23-35.8 4.4-5.7 9-11.4 14-16.9 4.3-4.8 11.7-5.2 16.5-.9 1.8 1.6 3 3.7 3.6 5.9.8 3.7 0 7.6-2.7 10.6z"/><path class="st2" d="M80.6 461.9v92.8H54.2v-92.8c0-1.7.3-3.3.9-4.8.1-.1.1-.2.2-.4 2-4.7 6.7-7.9 12.1-7.9 7.3-.1 13.2 5.8 13.2 13.1z"/><path d="M116.6 480.4c35.4 8.2 70.7 16.4 105.8 24.6 5.7-51.4 6.4-103.1 2.3-154.6-32.6-8-65.3-16.1-98.1-24.1 1.5 51.1-1.8 102.7-10 154.1z" fill="#d3483e"/><path d="M230.3 478c-.7 0-1.3-.1-2-.2-38-9.1-75.8-18.1-112.2-26.8-4.5-1.1-7.4-5.6-6.3-10.2 1.1-4.5 5.6-7.4 10.2-6.3 36.4 8.7 74.2 17.7 112.2 26.8 4.5 1.1 7.3 5.7 6.3 10.2-.9 3.9-4.4 6.5-8.2 6.5z" fill="#f0b21c"/><path class="st5" d="M224 272c28.3 54.9 77.4 28.3 99.5 21.9"/><circle class="st6" cx="328.1" cy="292.6" r="21.3"/><path class="st0" d="M322.3 313.1l-10-34.7c-1.5-5.3-7.1-8.4-12.4-6.8s-8.4 7.1-6.8 12.4l10 34.7c1.5 5.3 7.1 8.4 12.4 6.8 5.2-1.6 8.3-7.1 6.8-12.4z"/><path fill="#32a558" d="M173.3 323l29.8 18.3 31.4-84.6z"/><path class="st8" d="M239.7 248.1c-20.1-12.3-46.3-6-58.6 14.1l-18.7 30.5c-12.3 20.1-6 46.3 14.1 58.6 20.1 12.3 46.3 6 58.6-14.1l18.7-30.5c12.3-20 6-46.3-14.1-58.6z"/><path class="st5" d="M204.2 344.6c67.3-9.9 66.2 35.8 58.1 57.4"/><path class="st9" d="M300.2 427.1c-3.8 10-15 15-25 11.2-7.7-2.9-11.6-11.6-8.7-19.3l5.1-13.4-18.7-7.1-15.5 40.9c-1 2.6.3 5.5 2.9 6.4l45.7 17.3c9.8 3.7 21.1-.7 25.1-10.4 4.3-10.2-.7-21.7-10.9-25.6z"/><path class="st10" d="M264.8 423.7l-7-2.7c-2.6-1-3.9-3.9-2.9-6.4 1-2.6 3.9-3.9 6.4-2.9l7 2.7c2.6 1 3.9 3.9 2.9 6.4-1 2.5-3.9 3.8-6.4 2.9z"/><path transform="rotate(31.493 204.325 305.904)" class="st9" d="M161.7 295.2H247v21.3h-85.3z"/><path transform="rotate(31.493 236.148 325.403)" class="st10" d="M230.8 314.7h10.7V336h-10.7z"/><path d="M258.9 200.5l-1.4-26.4s-17.2 17.8-16.3 34.3c.1 2.5 1.1 4.6 2.9 5.7 3.7 2.2 9.3-.3 12.5-5.6 1.7-2.6 2.5-5.5 2.3-8z" fill="#fadcbc"/><circle class="st6" cx="262" cy="211.8" r="42.6"/><path class="st12" d="M284.3 175.4c-6.7-4.1-14-6.1-21.2-6.3-.1 4 1.9 7.8 5.5 10.1l-6.5 1.6c1.5 6.2 7.7 10 13.8 8.5l-3.5 5.7c5.4 3.3 12.5 1.6 15.8-3.8l1.6 6.5c4.4-1.1 7.6-4.5 8.5-8.6-3.6-5.4-8.2-10.1-14-13.7z"/><path d="M243 218.4c-4.3 4.5-11.4 4.7-15.9.4s-4.7-11.4-.4-15.9l16.3 15.5z" fill="#774d2e"/><path class="st12" d="M264.1 208.9c9.7-10.2 14.8-23 15.6-36-16.2-7.6-36-4.4-49 9.3-11.7 12.3-14.6 29.7-8.9 44.5 15.4.2 30.8-5.8 42.3-17.8z"/><path class="st6" d="M303.7 202.8l8.3 40.9-14.4-8.7z"/><path class="st9" d="M292.7 217.6c-2.5 4.1-7.8 5.3-11.8 2.8-4.1-2.5-5.3-7.8-2.8-11.8 2.5-4.1 7.8-5.3 11.8-2.8 4 2.4 5.3 7.7 2.8 11.8z"/><circle class="st12" cx="221.9" cy="215.9" r="10.6"/><circle class="st12" cx="221.2" cy="199.2" r="10.6"/><circle class="st12" cx="295.9" cy="189.8" r="10.6"/><path class="st8" d="M220.1 186.1l22.7-66.2 52.1 60.7z"/><path d="M219.4 190.8l77.1-6.4"/><path class="st0" d="M214.6 195.9c-3-1.5-5.2-4.5-5.5-8.1-.5-5.5 3.6-10.3 9.1-10.8l77-6.4c5.5-.5 10.3 3.6 10.8 9.1s-3.6 10.3-9.1 10.8l-77 6.4c-1.9.2-3.7-.2-5.3-1z"/><circle class="st0" cx="241.7" cy="110.2" r="10"/><path class="st6" d="M267.6 215.6c1.2-2.7 1.2-5.7.2-8.3l-10.6-27.6s-16.2 18.1-9.6 35.4c1 2.6 3 4.8 5.7 6 5.5 2.5 11.9 0 14.3-5.5z"/><g><path class="st5" d="M224 272c68.6 71.3 56.2-7.3 52.6-30"/><circle class="st6" cx="275.8" cy="237.2" r="21.3"/><path class="st0" d="M306.9 253.8c-.9-5.5-6-9.2-11.5-8.3l-35.7 5.7c-5.5.9-9.2 6-8.3 11.5s6 9.2 11.5 8.3l35.7-5.7c5.5-.9 9.2-6 8.3-11.5z"/></g><path class="st5" d="M195.9 340.7c67.3-9.9 36.7 40.8 28.5 62.4"/><g><path class="st9" d="M262.4 428.1c-3.8 10-15 15-25 11.2-7.7-2.9-11.6-11.6-8.7-19.3l5.1-13.4-18.7-7.1-15.5 40.9c-1 2.6.3 5.5 2.9 6.4l45.7 17.3c9.8 3.7 21.1-.7 25.1-10.4 4.3-10.1-.7-21.7-10.9-25.6z"/><path class="st10" d="M226.9 424.7l-7-2.7c-2.6-1-3.9-3.9-2.9-6.4 1-2.6 3.9-3.9 6.4-2.9l7 2.7c2.6 1 3.9 3.9 2.9 6.4s-3.8 3.8-6.4 2.9z"/></g><g><path class="st14" d="M343.1 255.4l-.7-29"/><path class="st15" d="M341.9 226.4h1l.8 29h-1l-.8-29z"/><path class="st14" d="M334.8 261.8l-18.1-12.2"/><path class="st15" d="M317.1 249.2l18.1 12.2-.6.8-18-12.2.5-.8z"/><path class="st14" d="M337.4 250.9l-6.6-22.8"/><path class="st15" d="M331.2 228l6.6 22.7-1 .3-6.6-22.7 1-.3z"/><path d="M319.3 286.9l2.7 2.9c.5.6 1.4.6 1.9 0l35.1-32.7c.6-.5.6-1.4 0-1.9l-2.7-2.9c-.5-.6-1.4-.6-1.9 0l-35 32.7c-.5.6-.5 1.3-.1 1.9z" fill="#413d3d"/><circle class="st6" cx="325.1" cy="271.1" r="7.1"/><path class="st17" d="M318.3 285.9l.2.2c.5.6 1.4.6 1.9 0l35.1-32.7c.6-.5.6-1.4 0-1.9l-.2-.2c-.5-.6-1.4-.6-1.9 0L318.3 284c-.4.4-.4 1.3 0 1.9z"/><path d="M320.4 283l.2.2c.3.3.8.3 1 0l30.8-28.7c.3-.3.3-.8 0-1l-.2-.2c-.3-.3-.8-.3-1 0L320.4 282c-.2.2-.2.7 0 1z" fill="#85d4ac"/><g class="st19"><path class="st15" d="M319.7 282.2c.4.5.9.4 1.2.1l30.7-28.7c.3-.3.3-.8 0-1.1l-.1-.1c-.3-.3-.8-.3-2.8-12.7l-38.8 36.2c9.4 5.5 9.5 6 9.8 6.3z"/></g><g class="st19"><path class="st15" d="M320.5 283.1c.4.5.9.4 1.2.1l30.7-28.7c.3-.3.3-.8 0-1.1l-.1-.1c-.3-.3-.8-.3-.2-7.5L313.3 282c6.9.2 6.9.7 7.2 1.1z"/></g><circle class="st17" cx="353.3" cy="253.6" r="1.5"/></g><g><path class="st20" d="M140.9 157.9c-.6 0-1.2-.1-1.8-.2-3.5-1-5.6-4.6-4.7-8.2l11.2-40.7c1.1-3.9-1.2-8-5.2-9.1L99.8 88.5c-5.3-1.5-9.8-4.9-12.5-9.7-2.7-4.8-3.4-10.4-2-15.7l5-18.1c.5-1.9.3-3.9-.7-5.6-1-1.7-2.6-3-4.5-3.5L58 28.5c-3.5-1-5.6-4.6-4.7-8.2 1-3.5 4.6-5.6 8.2-4.7L88.6 23c5.3 1.5 9.8 4.9 12.5 9.7s3.4 10.4 2 15.7l-5 18.1c-.5 1.9-.3 3.9.7 5.6s2.6 3 4.5 3.5L144 86.8c11 3 17.5 14.4 14.5 25.5L147.3 153c-.8 2.9-3.5 4.9-6.4 4.9z"/><path class="st20" d="M175.8 136.2c-1.8 0-3.6-.2-5.5-.7l-23.3-6.4c-3.5-1-5.6-4.6-4.7-8.2 1-3.5 4.6-5.6 8.2-4.7l23.3 6.4c3.9 1.1 8-1.2 9.1-5.2l5.8-21.1c.5-1.9.3-3.9-.7-5.6s-2.6-3-4.5-3.5l-31.6-8.7c-5.3-1.5-9.8-4.9-12.5-9.7-2.7-4.8-3.4-10.4-2-15.7l13.2-48.2c1-3.5 4.6-5.6 8.2-4.7 3.5 1 5.6 4.6 4.7 8.2l-13.2 48.2c-.5 1.9-.3 3.9.7 5.6 1 1.7 2.6 3 4.5 3.5l31.6 8.7c5.3 1.5 9.8 4.9 12.5 9.7 2.7 4.8 3.4 10.4 2 15.7l-5.8 21.1c-2.6 9.2-10.9 15.3-20 15.3z"/><path class="st20" d="M175.8 53.6c-1.8 0-3.6-.2-5.5-.7L115.9 38c-3.5-1-5.6-4.6-4.7-8.2 1-3.5 4.6-5.6 8.2-4.7L173.8 40c3.9 1.1 8-1.2 9.1-5.2l7-25.6c1-3.5 4.6-5.6 8.2-4.7 3.5 1 5.6 4.6 4.7 8.2l-7 25.6c-2.6 9.2-10.9 15.3-20 15.3zm-94.7 60.8c-1.8 0-3.6-.2-5.5-.7L47.4 106c-3.5-1-5.6-4.6-4.7-8.2 1-3.5 4.6-5.6 8.2-4.7l28.2 7.7c3.9 1.1 8-1.2 9.1-5.2L92 82.1c1-3.5 4.6-5.6 8.2-4.7 3.5 1 5.6 4.6 4.7 8.2l-3.7 13.6c-2.6 9.1-11 15.2-20.1 15.2z"/><path class="st2" d="M82.7 179.7c12.6-46 59.1-39.5 77.9-20.3 0 0 32.6 34.4 55.1 61.4 21.8 26.1-.4 40.7-18.4 35.8l-81.9-22.4c-21.4-5.8-40.1-27.4-32.7-54.5z"/><path class="st0" d="M171.6 207.6c-3 6-10.4 8.5-16.4 5.4-6-3-8.5-10.4-5.4-16.4 3-6 10.4-8.5 16.4-5.4s8.5 10.4 5.4 16.4z"/><path d="M170.7 203.6c1.8 2.7 1.1 6.3-1.6 8.1-2.7 1.8-6.3 1.1-8.1-1.6-1.8-2.7-1.1-6.3 1.6-8.1 2.6-1.8 6.3-1 8.1 1.6z" fill="#333"/><path d="M231.9 263c-7.9-2.2-12.6-10.4-10.4-18.4 2.2-8 10.4-12.6 18.4-10.4 8 2.2 12.6 10.4 10.4 18.4-2.2 7.9-10.4 12.6-18.4 10.4z" fill="#b46d3d"/></g></svg>