<svg id="Layer_1" xmlns="http://www.w3.org/2000/svg" width="360" height="554.7" viewBox="0 0 360 554.7"><style>.st0{fill:#e53935}.st1{fill:#be3935}.st2{fill:#f9ce1d}.st3{opacity:.1}.st4{fill:#f1f1f1}.st5{fill:#212121}.st6{fill:#ef9a9a}.st7{fill:#fff}.st8{fill:#f7caad}.st9{opacity:.15}.st10{fill:#231f20}.st11{fill:none;stroke:#e53935;stroke-width:79.2674;stroke-linecap:round;stroke-miterlimit:10}.st12{fill:#da4637}.st13{fill:#ffdf00}.st14{fill:#914295}.st15{fill:#48b980}.st16{opacity:.11}.st17{fill:#666}.st18{fill:#ffda85}.st19{fill:#ffb15b}.st20{fill:#333}.st21{fill:none;stroke:#29b6f6;stroke-width:25.4008;stroke-linecap:round;stroke-miterlimit:10}.st22{fill:#2297cc}.st23{fill:#29b6f6}.st24{fill:#764c2e}.st25{fill:#4d4d4d}.st26{fill:none;stroke:#666;stroke-width:9.2179;stroke-miterlimit:10}.st27{fill:#ffe18c}.st28{fill:#332e2e}.st29{stroke:#fff;stroke-width:1.769;stroke-miterlimit:10}.st29,.st30{fill:none}.st31{fill:#fdd500}.st32{fill:none;stroke:#332e2e;stroke-width:1.9753;stroke-miterlimit:10}.st33{fill:#fdbe0c}.st34{fill:#bdbdbd}.st35{opacity:.1;fill:#fff}.st36{fill:#008fa1}.st37{fill:#fb8c00}.st38{fill:#ef5350}.st39{opacity:.33;fill:#333}.st40{fill:#4caf50}.st41{fill:#00838f}.st42{fill:#00acc1}.st43{fill:#8e24aa}.st44{fill:#ffd200}.st45{opacity:.14;fill:#333}.st46{fill:#f79117}.st47{fill:#dbdbdb}.st48{fill:#dc9e00}.st49{fill:#fddf00}.st50{clip-path:url(#SVGID_2_)}.st51{fill:#ff8300}.st52{fill:#00c763}.st53{fill:#fff200}.st54{fill:#e86e1c}.st55{fill:#c8541f}.st56{fill:#009047}.st57{fill:#00a551}.st58{fill:#dec461}.st59{fill:#444}.st60{opacity:.2;enable-background:new}.st61{fill:#2b2b2b}.st62{opacity:.12;enable-background:new}.st63{fill:#848484}.st64{opacity:.21}.st64,.st65,.st66,.st67{enable-background:new}.st65{fill:#5f81c0;opacity:.21}.st66,.st67{opacity:.66;stroke:#1f1f1f;stroke-width:2.1157;stroke-miterlimit:10}.st67{fill:#5f81c0}.st68{fill:#3a3a3a}.st69,.st70{stroke:#393939;fill:none;stroke-width:.6212;stroke-miterlimit:10;stroke-dasharray:1.81,.6033}.st70{stroke:#444}.st71{fill:#00ad00}.st72{fill:#e91100}.st73{fill:#39527c}.st74{opacity:.15;fill:#fff}.st75{fill:#262626}.st76{opacity:.6;fill:url(#SVGID_3_)}.st77{fill:#0096a3}.st78{fill:#00b2c2}.st79{fill:#d97823}.st80{fill:#d13d7f}.st81{fill:#b81463}.st82{fill:#7b7878}.st83{fill:#929292}.st84{fill:#2f2f2f}.st85{fill:#616161}.st86{fill:#8d8d8d}.st87{fill:#575757}.st88{fill:#828282}.st89{opacity:.43}.st90{fill:#b3b3b3}.st91{fill:#7f7f7f}.st92{fill:none;stroke:#a5a3a3;stroke-width:3;stroke-linecap:round;stroke-miterlimit:10}.st93{fill:#6a6a6a}.st94,.st95{stroke:#7f7f7f;stroke-width:7;fill:none;stroke-linecap:round;stroke-miterlimit:10}.st95{stroke:#929292;stroke-width:5}.st96{clip-path:url(#SVGID_5_);fill:url(#SVGID_6_)}.st97{fill:#f78011}.st98{fill:#db6300}.st99{fill:#f0a42c}.st100{fill:#de7221}.st101{fill:#ff8787}.st102{clip-path:url(#SVGID_8_)}.st103{fill:#ffa1e4}.st104{fill:#1da802}.st105{fill:#fcbe2d}.st106{fill:#fcd03f}.st107{fill:#f6b12d}.st108{fill:#de4a3f}.st109{fill:#000002}.st110{fill:#ffdf82}.st111{fill:#764299}.st112{fill:#68378c}.st113{fill:#fd930c}.st114{fill:#287a5e}.st115{fill:#1aa17d}.st116{fill:#764d2f}.st117{fill:#ededed}.st118{fill:#c92828}.st119{fill:#ffd500}.st120{fill:#ec407a}.st121{fill:#1565c0}.st122{fill:#c165c7}.st123{fill:#ff931e}.st124{fill:#fdce48}.st125{fill:#2aaf4b}.st126{fill:#b99960}.st127{fill:#a17b54}.st128{fill:#d4af6e}.st129{opacity:.12}.st130{fill:#f0b21c}.st131{fill:#b0b0b0}.st132{fill:#b46d3d}.st133{opacity:.7;fill:url(#SVGID_9_)}.st134{fill:#29b65e}.st135{fill:none;stroke:#f0b21c;stroke-width:14.7487;stroke-linecap:round;stroke-linejoin:round;stroke-miterlimit:10}.st136{fill:#ffe51c}.st137{fill:#c70fd1}.st138{fill:#b9b9b9}.st139{fill:#4830a6}.st140{fill:#6e40ed}.st141{fill:#a2a5a3}.st142{fill:#b6e5cd}.st143{fill:#e9d386}.st144{fill:#413d3d}.st145{fill:#666262}.st146{fill:#85d4ac}.st147,.st148,.st149{fill:none;stroke-miterlimit:10}.st147{stroke-linecap:round;stroke:#6e40ed;stroke-width:18.7963}.st148,.st149{stroke-dasharray:29.0489,256.3136;stroke:#f7fffa;stroke-width:19.2235}.st149{stroke-linecap:round;stroke-dasharray:8.5438,256.3136}.st150{fill:#211c1c}.st151{opacity:.2}.st152{fill:#f5951f}.st153{fill:#f7fffa}.st154{fill:#ff8b17}.st155{fill:none;stroke:#f0b21c;stroke-width:17.108;stroke-linecap:round;stroke-linejoin:round;stroke-miterlimit:10}.st156{fill:#d6aa1a}.st157{fill:none;stroke:#d6aa1a;stroke-width:25.8006;stroke-linecap:round;stroke-miterlimit:10}.st158{fill:#f5c60c}.st159{fill:#231f20;stroke:#b6e5cd;stroke-width:1.2082;stroke-miterlimit:10}.st160{fill:#ab5844}.st161{fill:#249d43}.st162{fill:#fde08b}.st163{fill:#c5161d}.st164{fill:#d89614}.st165{fill:#faac18}.st166{fill:none;stroke:#faac18;stroke-width:24.2;stroke-linecap:round;stroke-linejoin:round;stroke-miterlimit:10}.st167{fill:#e91c24}.st168{fill:#eceff1}.st169{stroke:#5f14a6;stroke-width:28.0254;stroke-linecap:round}.st169,.st170,.st171,.st172{fill:none;stroke-miterlimit:10}.st170{stroke-dasharray:43.312,382.1646;stroke:#a2a5a3;stroke-width:28.6623}.st171,.st172{stroke-linecap:round}.st171{stroke-dasharray:12.7388,382.1646;stroke:#a2a5a3;stroke-width:28.6623}.st172{stroke:#5f14a6;stroke-width:28.3806}.st173{fill:#8c28de}.st174{fill:#5f14a6}.st175{stroke:#8c28de;stroke-width:31.6424;stroke-linecap:round}.st175,.st176,.st177,.st178{fill:none;stroke-miterlimit:10}.st176{stroke-dasharray:48.9019,431.4876;stroke:#e6e6e6;stroke-width:32.3616}.st177,.st178{stroke-linecap:round}.st177{stroke-dasharray:14.3829,431.4876;stroke:#e6e6e6;stroke-width:32.3616}.st178{stroke:#8c28de;stroke-width:28.3806}.st179{fill:#fafafa}.st180{fill:#ffa000}.st181{fill:#ffb300}.st182{fill:#c93}.st183{fill:#5d4037}.st184{fill:#ff9800}.st185{fill:#cfd8dc}.st186{fill:#f57c00}.st187,.st188{fill:none;stroke-miterlimit:10}.st187{stroke-linecap:round;stroke:#f57c00;stroke-width:23.7843}.st188{opacity:.5;stroke:#cfd8dc;stroke-width:3.63}.st189{fill:#f06292}.st190{fill:none;stroke:#ff9800;stroke-width:23.7843;stroke-linecap:round;stroke-miterlimit:10}.st191{fill:#9b51a0}.st192{fill:#7b1fa2}.st193{fill:none;stroke:#8e24aa;stroke-width:23.7843;stroke-linecap:round;stroke-miterlimit:10}.st194{fill:#ffc107}.st195{fill:#26c6da}.st196{fill:#039be5}.st197,.st198,.st199{fill:none;stroke-miterlimit:10}.st197{stroke-linecap:round;stroke:#039be5;stroke-width:23.7843}.st198{stroke:#cfd8dc;stroke-width:3.63}.st199{stroke:#29b6f6;stroke-width:23.7843;stroke-linecap:round}.st200{fill:#9575cd}.st201{fill:none;stroke:#9b51a0;stroke-width:23.7843;stroke-linecap:round;stroke-miterlimit:10}.st202{opacity:.6}</style><path class="st126" d="M254.7 451.6c-.5 1.3-1.2 2.5-2.2 3.5-5.2 5.8-10 11.7-14.4 17.7-.8 1.1-1.6 2.2-2.4 3.2-4.3 5.9-8.2 11.9-11.8 18-.2.3-.3.5-.5.8l-1.2 2.1c-.6 1.1-1.3 2.2-1.9 3.4-.7 1.3-1.4 2.5-2 3.8-.1.2-.2.5-.4.7-8.5 16.4-14.3 33.2-17.4 50H177c.4-2.8.9-5.5 1.5-8.3 3.4-16.2 8.8-32 16.3-47.4.1-.2.1-.3.2-.4 1.2-2.5 2.5-5 3.8-7.4.3-.6.7-1.3 1-1.9 2-3.8 4.2-7.5 6.5-11.2.8-1.3 1.6-2.6 2.4-3.8.2-.4.4-.7.7-1 3.2-5 6.7-10 10.4-14.9 2.2-2.9 4.5-5.8 6.8-8.7 2.7-3.4 5.6-6.7 8.5-10 3.2-3.7 8.3-4.8 12.6-3.2 1.4.5 2.7 1.3 3.9 2.3 3.8 3.1 4.9 8.3 3.1 12.7z"/><path class="st138" d="M248.4 361.9c0 12.9 10.4 23.3 23.1 23.3 33.5 0 43.5-33.7 43.5-46.6h-43.5c-12.8 0-23.1 10.4-23.1 23.3z"/><path class="st126" d="M25.7 436.8v117.9H0V432.9c1.1-3.7 3.9-6.6 7.3-8.1 1.6-.7 3.4-1.1 5.2-1.1 7.3-.1 13.2 5.8 13.2 13.1z"/><path class="st128" d="M295.8 426.7v8.3c0 .6-.1 1.1-.1 1.7v.4c0 .3 0 .6-.1.9-.1 1-.2 2.1-.4 3.1 0 .1 0 .3-.1.4v.3c0 .2-.1.4-.1.6v.2c0 .2-.1.3-.1.5-.1.4-.1.9-.2 1.3v.2c0 .1 0 .2-.1.3l-.1.8v.1c0 .2-.1.5-.1.7v.5c-.1.4-.2.8-.3 1.1 0 .2-.1.4-.1.6 0 .2-.1.4-.2.6 0 .1-.1.3-.1.4v.1c-.1.2-.1.5-.2.8-.2.7-.4 1.3-.6 2 0 .2-.1.4-.2.6-.2.8-.5 1.6-.8 2.4-.1.2-.1.4-.2.6-.2.4-.3.9-.5 1.3-.1.2-.2.5-.3.7-.1.3-.2.5-.3.8-.2.4-.3.8-.5 1.2-.2.4-.4.8-.5 1.2 0 .1-.1.2-.1.3 0 .1-.1.2-.1.2l-.3.6s0 .1-.1.2c-.1.2-.2.3-.2.5-.1.2-.1.3-.2.5-.1.3-.3.6-.4.8-.2.3-.4.7-.5 1l-.3.6c-.1.3-.3.6-.5.8-.1.2-.2.3-.3.5-.4.7-.8 1.3-1.1 1.9-.2.4-.5.8-.7 1.1-.1.1-.2.3-.2.4-.1.2-.2.3-.3.5-.1.1-.2.3-.3.4-.1.2-.3.4-.4.6-.2.4-.5.7-.7 1.1-.1.1-.2.2-.3.4-.1.1-.1.2-.2.3 0 0 0 .1-.1.1-.1.2-.2.3-.4.5-.1.1-.1.2-.2.2-.3.4-.6.9-1 1.3-.4.5-.7.9-1.1 1.4-.1.2-.3.4-.4.5-.1.1-.2.2-.3.4-.1.1-.1.2-.2.2l-.2.2c-.2.2-.4.5-.6.7l-.6.6-.1.1c-.1.1-.2.3-.4.4-.6.7-1.3 1.4-2 2.1l-.1.1c-1 1.1-2.1 2.1-3.2 3.1-.3.3-.7.6-1 .9-.9.8-1.8 1.5-2.8 2.3-.9.7-1.9 1.4-2.9 2.1-1 .7-2 1.4-3 2-.5.3-.9.6-1.4.9 0 0-.1.1-.2.1-.5.3-1 .6-1.6.9s-1 .6-1.6.9c-2.6 1.4-5.4 2.7-8.2 3.8-.5.2-1.1.4-1.6.6-1.1.4-2.1.8-3.2 1.1-.4.1-.9.3-1.3.4-.1 0-.2.1-.3.1l-.9.3c-.2.1-.5.1-.7.2-.1 0-.2.1-.3.1-.3.1-.6.2-.9.2-.2 0-.3.1-.5.1s-.4.1-.6.1c-.2 0-.5.1-.7.2-.4.1-.8.2-1.1.2-.3.1-.6.1-.9.2-.2 0-.4.1-.6.1-.2 0-.4.1-.7.1-.3 0-.6.1-.9.2-.4.1-.8.1-1.2.2-.2 0-.4.1-.6.1h-.4c-.3 0-.6.1-.9.1-.2 0-.3 0-.5.1h-.1c-.3 0-.6.1-.8.1h-.1c-.5.1-1.1.1-1.6.1h-.5c-.4 0-.8 0-1.2.1h-4.1l-3.1-.8-1.4-.3-10.4-2.5-11.5-2.8-40.4-9.9c-.1 0-.2 0-.3-.1l-37.5-9.2-36.1-8.8-26.3-6.4-3.9-1c-.3 0-.6 0-1-.1-.5 0-1.1-.1-1.6-.2-1-.1-2.1-.3-3.1-.4-.5-.1-1-.2-1.5-.2l-1.5-.3c-1-.2-2-.4-3-.7-.5-.1-1-.2-1.4-.4h-.1c-.5-.1-1-.3-1.4-.4-.2 0-.3-.1-.5-.1-.1 0-.2 0-.3-.1h-.1c-.2-.1-.4-.1-.6-.2-.2-.1-.5-.2-.7-.2-.1 0-.3-.1-.4-.1l-.9-.3-.9-.3c-.9-.3-1.9-.7-2.8-1.1-.5-.2-.9-.4-1.4-.6-.5-.2-.9-.4-1.4-.6H26c-.2-.1-.4-.2-.7-.3h-.2c-.2-.1-.4-.2-.7-.3-3.1-1.5-6.1-3.1-8.9-5-.1-.1-.2-.2-.4-.2-.4-.3-.8-.5-1.2-.8l-2.1-1.5c-.1-.1-.2-.1-.2-.2-4.1-3.1-7.9-6.7-11.3-10.6V336.6c.5-.6 1-1.1 1.5-1.6s.9-1 1.4-1.5c0-.1.1-.1.2-.2l.4-.4.9-.9c1.1-1.1 2.3-2.2 3.5-3.2.3-.3.7-.6 1-.9.2-.2.4-.3.5-.5l.3-.3 1.5-1.2c.6-.5 1.2-.9 1.8-1.3 9.8-7.1 21.3-11.8 33.7-13.5 5.2-.7 10.5-.9 15.9-.4l1.3.3.8.2 61.9 16.1.9.2 55.6 14.5 20.3 5.3 2.9.8 11.7 3.1 3.2.8h2.1c.5 0 1.1 0 1.6.1.6 0 1.1.1 1.7.1.3 0 .5 0 .8.1.8.1 1.6.1 2.3.2.4 0 .8.1 1.2.2h.7c.2 0 .2 0 .4.1 1.8.3 3.6.6 5.4 1 1.7.4 3.4.8 5 1.3l.9.3c1.9.6 3.8 1.3 5.7 2 .1 0 .1 0 .2.1.5.2.9.4 1.4.6.5.2.9.4 1.4.6.1.1.3.1.4.2l1.2.6c.2.1.4.2.7.3.1 0 .2.1.3.2.2.1.3.2.5.2.4.2.7.4 1.1.6.3.2.6.3.9.5.4.2.8.4 1.2.7.5.3 1 .5 1.4.8.1 0 .1.1.2.1.5.3 1 .6 1.4.9.6.4 1.2.8 1.7 1.1 1.1.7 2.1 1.5 3.1 2.2 1 .7 1.9 1.5 2.8 2.2.6.5 1.1.9 1.6 1.4.4.3.8.7 1.1 1 .5.4.9.9 1.4 1.3 1 1 2 2 3 3.1.3.3.6.6.9 1 .4.5.8.9 1.2 1.4.4.4.7.8 1.1 1.3.3.4.7.9 1 1.3.8 1 1.5 1.9 2.2 2.9.1.1.1.2.2.3.1.2.3.4.5.6l.1.1c.2.4.5.7.7 1 .2.2.3.5.5.7l.9 1.5c.2.3.3.5.5.8 1.2 2 2.3 4.1 3.2 6.2.2.5.4 1 .6 1.4.1.1.1.2.2.4 0 .1.1.2.1.2 0 .1.1.1.1.2l.9 2.1c.1.2.2.5.3.7.1.2.2.5.3.7.1.2.2.5.3.8.2.6.4 1.1.6 1.7.2.5.3 1 .5 1.6.2.6.4 1.2.5 1.9.2.6.3 1.2.5 1.7.1.6.3 1.2.4 1.8.3 1.2.5 2.4.7 3.7.1.6.2 1.3.3 1.9.1.5.1 1 .2 1.6.1.6.1 1.2.2 1.8.1 1.2.2 2.4.3 3.7-.5 1.2-.5 2.4-.5 3.6z"/><path class="st126" d="M13 324.7c-5.3 6.2-9.7 13.2-13 20.9v-9c3.8-4.5 8.2-8.5 13-11.9zm230.5 177.4c-.4.1-.7.2-1.1.3-.1 0-.2.1-.3.1h-.1l-1.2.3c-.4.1-.7.2-1 .3-.4.1-.7.2-1.1.3-.2 0-.4.1-.6.1-.2 0-.5.1-.7.2-.4.1-.8.2-1.1.2-.3.1-.6.1-1 .2-.2 0-.4.1-.6.1-.2 0-.4.1-.7.1-.3 0-.6.1-.9.2-.4.1-.8.1-1.2.2-.2 0-.4.1-.6.1h-.4c-.2 0-.5.1-.8.1h-.1c-.2 0-.3 0-.5.1h-.1c-.3 0-.6.1-.8.1h-.2c-.5.1-1.1.1-1.6.1h-.4c-.4 0-.8 0-1.2.1h-4.1l-3.1-.8-1.4-.3-10.4-2.5-11.5-2.8-40.4-9.9c-.1 0-.2 0-.3-.1l-37.5-9.2-36.1-8.8-26.3-6.4-3.9-1c-.3 0-.6 0-1-.1-.5 0-1.1-.1-1.6-.2-1-.1-2.1-.3-3.1-.4-.5-.1-1-.2-1.5-.2l-1.5-.3c-1-.2-2-.4-3-.7-.5-.1-1-.2-1.4-.4H37c-.5-.1-1-.3-1.4-.4-.2 0-.3-.1-.5-.1-.1 0-.2 0-.3-.1h-.1c-.2-.1-.4-.1-.6-.2-.4-.1-.8-.2-1.1-.4l-.9-.3-.9-.3c-.9-.3-1.9-.7-2.8-1.1-.5-.2-.9-.4-1.4-.6-.5-.2-.9-.4-1.4-.6h-.1c-.2-.1-.4-.2-.7-.3h-.1c-.3-.1-.5-.2-.8-.4-3.1-1.5-6.1-3.1-8.9-5-.1-.1-.2-.2-.4-.2-.4-.3-.8-.5-1.2-.8l-2.1-1.5c-.1-.1-.2-.1-.2-.2C7 445.6 3.2 442-.2 438.1v-26.8c2 4.7 4.5 9.1 7.3 13.2 4.8 7 10.7 13.2 17.5 18.3.1.1.2.1.3.2.2.2.5.3.7.5 6.4 4.7 13.6 8.5 21.3 11.1 2.6.9 5.3 1.6 8.1 2.2 2.5.5 4.9 1 7.5 1.3.7.1 1.5.2 2.2.2.3 0 .7.1 1 .1l14.7 3.6 6.2 1.5.3.1 30.9 7.6 80.8 19.8 7.5 1.8 12.2 3 3.8.9 1 .2 7.9 1.9 12.5 3.3z"/><path class="st128" d="M158.3 190.2c-2 5.3-5.4 10-9.6 13.7-4.4 3.7-9.8 6.4-15.8 7.5l-3.4.6s-.6.1-1.9.3c-.6.1-1.3.2-2.2.4-.4.1-.9.1-1.4.2-.5.1-1 .2-1.5.4-1.1.3-2.3.5-3.6.9-1.3.4-2.6.9-4.1 1.3-1.4.6-2.9 1.2-4.5 1.8-.8.4-1.5.8-2.3 1.2l-1.2.6-1.2.6-2.4 1.5c-.4.2-.9.5-1.2.8l-1.2.9c-.6.5-1.3.9-1.9 1.4-.2.1-.4.2-.6.4-.2.2-.4.3-.6.5-.6.5-1.3 1-1.9 1.6-.4.3-.9.6-1.3 1s-.8.8-1.2 1.1c-.8.8-1.7 1.5-2.5 2.4-.8.9-1.6 1.7-2.4 2.6-.4.4-.8.9-1.2 1.4-.4.5-.8.9-1.2 1.4-.4.5-.8.9-1.2 1.4-.4.5-.7 1-1.1 1.5-.7 1-1.5 2-2.2 3.1l-2.1 3.3c-.4.5-.7 1.1-1 1.7l-1 1.8c-2.6 4.8-5 9.8-6.8 15.3-1.9 5.4-3.5 11-4.5 16.7l-.4 2.1-.3 2.1c-.2 1.4-.5 2.8-.6 4.2-.2 2.8-.6 5.6-.7 8.4-.3 4.4-.2 8.8 0 12.9 0 1 .1 2 .1 3 .1 1 .2 2.1.3 3.1.4 3.9.9 7.6 1.5 11 .4 2.2.8 4.2 1.3 6.2.5 1.9.8 3.8 1.4 5.5.3.9.5 1.7.7 2.5l.3 1.2c.1.4.2.8.3 1.1.5 1.2.8 2.3 1.2 3.3.2.5.3 1 .5 1.5.3.7.5 1.3.8 1.9.5 1.2.9 2.2 1.2 3.1.7 1.7 1 2.6 1 2.6C83 378.1 72.8 401.7 52 410c-20.2 8-43-1.2-52-20.8V240.9c.5-1.2.9-2.3 1.4-3.4 3.7-8.9 8.2-17.5 13.4-25.7.7-1 1.3-2 2-3s1.3-2 2-3c1.4-2 2.9-3.9 4.3-5.8 1.5-1.9 3-3.7 4.5-5.6.8-.9 1.5-1.8 2.3-2.7.8-.9 1.6-1.8 2.4-2.6s1.6-1.7 2.4-2.6c.8-.9 1.6-1.7 2.5-2.5l5.1-4.8c1.7-1.6 3.5-3 5.2-4.4.9-.7 1.8-1.4 2.6-2.1.9-.7 1.8-1.3 2.7-2 1.8-1.3 3.6-2.5 5.4-3.8 1.8-1.2 3.6-2.3 5.4-3.4.9-.5 1.8-1.1 2.7-1.6.9-.5 1.8-1 2.7-1.4 1.8-.9 3.6-1.8 5.3-2.7.9-.5 1.8-.8 2.6-1.2.9-.4 1.8-.7 2.6-1.1 1.7-.7 3.4-1.4 5-2.1 3.4-1.1 6.5-2.2 9.5-3.2 3-.8 5.9-1.5 8.5-2.2 2.6-.6 5.1-1 7.3-1.4 1.1-.2 2.1-.4 3.1-.5.6-.1 1.2-.2 1.8-.2.3 0 .6-.1.9-.1 1.7-.2 3.2-.3 4.4-.4l3.6-.3c.7-.1 1.3-.1 2-.1 3.3-.1 6.5.2 9.6 1.1.7.2 1.3.4 2 .6h.1c3.7 1.2 7.1 3.1 10.1 5.4 7 5.5 11.9 13.7 12.7 23.3.7 5.1-.1 10.2-1.8 14.8z"/><path class="st7" d="M65.8 345.7C7.9 260.5 55.1 225.3 99.4 223.2c-25.8 35.3-40.3 79.4-33.6 122.5z"/><path class="st126" d="M295.8 426.7v4.1c0 22.5-10 42.8-25.8 56.4-.9.8-1.8 1.5-2.8 2.3-.9.7-1.9 1.5-2.9 2.1-1 .7-2 1.4-3 2-1 .6-2 1.3-3.1 1.9-.5.3-1.1.6-1.6.9-2.6 1.4-5.4 2.7-8.2 3.8-8.5 3.3-17.7 5.2-27.4 5.2h-.1L50.3 463.7c-.3 0-.6 0-1-.1-14.2-1.3-27.1-6.5-37.8-14.6-.1-.1-.2-.1-.2-.2 4.1.2 8.5.7 13.3 1.2.9.1 1.9.2 2.9.3L221.2 494c40 0 72.6-31.4 74.6-71v3.7z"/><path class="st126" d="M295.7 423.1c-1.9-39.5-34.5-71-74.5-71l-14.9-3.9v153.7l14.8 3.6h.1c9.7 0 18.9-1.8 27.4-5.2 2.8-1.1 5.6-2.4 8.2-3.8.5-.3 1.1-.6 1.6-.9 1-.6 2.1-1.2 3.1-1.9 1-.6 2-1.3 3-2s1.9-1.4 2.9-2.1c.9-.7 1.9-1.5 2.8-2.3 15.8-13.7 25.8-33.9 25.8-56.4v-4.1c-.2-1.3-.2-2.5-.3-3.7z"/><path class="st126" d="M288.6 455.7c-7.5 8.4-14.3 17-20.3 25.8-2.9 4.3-5.7 8.7-8.3 13.1-11.6 19.7-19.4 39.9-23.2 60.1h-23.6c.4-2.5.9-5.1 1.4-7.7 3-14.2 7.6-28.2 13.7-41.9.9-2 1.9-4.1 2.8-6.1 1-2.1 2-4.1 3.1-6.2 6.4-12.2 14-24.1 23-35.8 4.4-5.7 9-11.4 14-16.9 4.3-4.8 11.7-5.2 16.5-.9 1.8 1.6 3 3.7 3.6 5.9.8 3.7 0 7.6-2.7 10.6z"/><path d="M295.7 423.1c-1.9-39.5-34.5-71-74.5-71l-7.1-1.8c3.6 9 6.8 18.1 9.6 27.4 2.8 9.1 5.5 18.1 8.9 27 2.1 4.8 4.3 9.5 6.6 14.3 2.1 4.1 4.1 8.1 6 12.2 8.2 17.3 15.8 35 23.9 52.3.6 1 1.2 2 1.8 2.9 15.2-13.7 24.8-33.5 24.8-55.5v-4.1c.1-1.3.1-2.5 0-3.7z" class="st3"/><path class="st128" d="M80.6 461.9v92.8H54.2v-92.8c0-1.7.3-3.3.9-4.8.1-.1.1-.2.2-.4 2-4.7 6.7-7.9 12.1-7.9 7.3-.1 13.2 5.8 13.2 13.1z"/><path class="st139" d="M315.2 350.9c-20.5 0-41.1-11.7-50.6-30-3.7-7.2-5.6-14.6-7.5-21.8l-2.6-10.2c-1.2-4.5 1.6-9.1 6.1-10.3 4.5-1.2 9.1 1.6 10.3 6.1l2.6 10.2c1.6 6.3 3.3 12.8 6.1 18.3 8 15.5 27.5 24.2 44.4 19.7 4.5-1.2 9.1 1.5 10.3 6s-1.5 9.1-6 10.3c-4.3 1.2-8.7 1.7-13.1 1.7z"/><path class="st140" d="M215.4 357.4c-2.7 0-5.5-.4-8.2-1.2-20-5.8-33-19.8-34.8-37.5-1-9.6 1.1-24.2 16.2-39.7 8.5-8.7 20.6-17.2 36.2-25.4 14.4-7.6 32.3-2 39.9 12.4 7.6 14.4 2 32.3-12.4 39.9-4.8 2.5-8.6 4.8-11.6 6.7 4.1 6.8 5.5 15.3 3.1 23.5-3.8 12.9-15.6 21.3-28.4 21.3z"/><path class="st139" d="M276.1 414.2c-1.5 0-3-.4-4.4-1.2-3.9-2.4-5.1-7.5-2.7-11.5 9.6-15.7 12.4-31.5 7-40.4-6.4-10.5-23.6-11.6-36.9-10.7-4.6.3-8.6-3.1-8.9-7.7-.3-4.6 3.1-8.6 7.7-8.9 26.1-1.8 43.7 4.5 52.3 18.7 8.8 14.6 6.2 36.2-7.1 57.8-1.5 2.5-4.2 3.9-7 3.9z"/><path class="st141" d="M283.3 410.3l-14.5-8.9c4.3-7 7.4-14.3 8.8-21l16.6 3.6c-1.8 8.6-5.6 17.7-10.9 26.3z"/><path class="st141" d="M276.1 414.4c-1.5 0-3.1-.4-4.5-1.3-4-2.5-5.3-7.7-2.8-11.7 1.2-2 2.3-4 3.3-6 2.1-4.2 7.2-5.9 11.4-3.8 4.2 2.1 5.9 7.2 3.8 11.4-1.2 2.4-2.6 4.9-4 7.2a8.22 8.22 0 0 1-7.2 4.2z"/><path class="st30" d="M347.3 317.7l2.3-22.8"/><path class="st142" d="M349.243 294.823l.796.08-2.268 22.787-.796-.08z"/><path class="st30" d="M340.2 321.9L322.8 307"/><path class="st142" d="M323.15 306.666l17.38 14.912-.52.607-17.38-14.912z"/><path class="st30" d="M343.3 313.6l-2.9-18.5"/><path class="st142" d="M340.73 295.068l2.93 18.47-.79.124-2.93-18.468z"/><path class="st27" d="M322.8 349.4c4.2 6.2 12.7 7.8 18.8 3.5 6.2-4.2 7.8-12.7 3.5-18.8-4.2-6.2-12.7-7.8-18.8-3.5-6.1 4.2-7.7 12.6-3.5 18.8z"/><path class="st143" d="M345.2 334.1c-1.7-2.4-4-4.1-6.6-5.1-4.4 7.8-8.2 15.9-13 23.4 4.5 3.5 11 3.9 16 .5 6.3-4.2 7.8-12.6 3.6-18.8z"/><path class="st144" d="M325.6 340l1.8 2.5c.3.5 1 .6 1.5.2l30.7-22.1c.5-.3.6-1 .2-1.5l-1.8-2.5c-.3-.5-1-.6-1.5-.2l-30.7 22.1c-.4.4-.5 1-.2 1.5z"/><circle class="st27" cx="333" cy="328" r="5.6"/><path class="st145" d="M324.9 339.1l.1.2c.3.5 1 .6 1.5.2l30.7-22.1c.5-.3.6-1 .2-1.5l-.1-.2c-.3-.5-1-.6-1.5-.2l-30.7 22.1c-.4.3-.5 1-.2 1.5z"/><path class="st146" d="M326.8 337l.1.2c.2.3.6.3.8.1l27-19.4c.3-.2.3-.6.1-.8l-.1-.2c-.2-.3-.6-.3-.8-.1l-27 19.4c-.2.2-.2.6-.1.8z"/><g class="st3"><path class="st142" d="M326.9 337.1c.3.4.7.4.9.2l26.9-19.4c.3-.2.3-.6.1-.9l-.1-.1c-.2-.3-.6-.3-.9-10.2l-34 24.5c6.9 5.2 6.9 5.6 7.1 5.9z"/></g><g class="st3"><path class="st142" d="M326.9 337.1c.3.4.7.4.9.2l26.9-19.4c.3-.2.3-.6.1-.9l-.1-.1c-.2-.3-.6-.3.6-5.9l-34 24.5c5.4.9 5.4 1.3 5.6 1.6z"/></g><circle class="st145" cx="355.5" cy="317.3" r="1.2"/><path class="st139" d="M267.1 272.6c-2.9 9.5-10.7 17.8-20.3 20.2-4.8 1.2-9.5 2.4-14.2 3.8-1.9 2-3.6 4-5.4 6-.8 1.2-1.6 2.3-2.4 3.4-2 2.9-3.9 5.9-5.7 8.9 1.4 4.9-9.1 18.3-7.2 23.1 2.2 4.8 6.9 14.9 9.6 19.5 1.3 2.2 6.5-.3 12.8-7 4.4-3.6 7.8-8.6 9.5-14.5 2.4-8.3 1-16.7-3.1-23.5 3-2 6.8-4.2 11.6-6.7 12.2-6.4 18-20.3 14.8-33.2z"/><path class="st28" d="M242.7 328.2l-72.3-12.5 3.5-17.6 72.4 12.6z"/><path class="st31" d="M245 330.4l-4.6-.6 3.5-20 4.6.5z"/><path class="st150" d="M271.7 396.8l13.7 13.9c-4.4 13.5 7.4 25.5 15.6 20.7 0 0-6.1 18.7-32.7-11.9-6.3-7.2-5.4-18.8 3.4-22.7z"/><path class="st139" d="M347.2 251s-11.6-70.1-24.9-96.8c0 0-6.7 45.7-29.8 50.4l54.7 46.4z"/><path class="st140" d="M329.5 237.1s6.1-56.3-7.2-83c0 0-6.7 45.7-29.8 50.4l37 32.6zm-70.4 96.8c-2 0-4-.7-5.6-2.1-8.1-6.9-14.9-18.1-18.6-30.7-1.9-6.2-5.6-21.7 1-30.6 2.8-3.7 8.1-4.5 11.8-1.7 3.7 2.8 4.5 8 1.8 11.7-.7 1.4-1.1 7.4 1.8 16.6 1.8 5.6 4.4 10.9 7.4 15.3 1.2-1.7 2.5-3.6 3.7-5.3 4.6-6.7 10.4-15 16-22.5 2.8-3.7 8.1-4.4 11.8-1.6 3.7 2.8 4.4 8.1 1.6 11.8-5.4 7.1-11 15.2-15.5 21.8-9.9 14.3-11.4 16.5-16 17.1-.5.2-.9.2-1.2.2z"/><path d="M268.6 276.9l-.3 1.2c-.1.4-.2.8-.3 1.1-2.6 7.3-10.5 11.4-18 9.3-5.9-1.6-9.9-6.6-10.8-12.2-5.2 6-15 8.2-23.8 5.8l-23.5-6.4c8.2-7.6 19.2-15 32.9-22.2 3.9-2 7.9-3.1 12-3.4 3.7 5.2 5.5 9.9 5.9 14 3.7-4.2 9.5-6.1 15.2-4.6 7.5 2.3 12.1 9.8 10.7 17.4z" class="st151"/><path class="st27" d="M323.3 274.6c-12.2 15.6-34.8 18.4-50.4 6.2-15.6-12.2-18.4-34.8-6.2-50.4 12.2-15.6 34.8-18.4 50.4-6.2 15.6 12.2 18.4 34.8 6.2 50.4z"/><path class="st143" d="M305.5 286.9c-.3-3.4-1.8-6.7-4.6-9.1-5.6-4.9-14.2-4.4-19.1 1.3-1.4 1.7-2.4 3.6-2.9 5.6 8.3 4.2 17.9 4.8 26.6 2.2z"/><path class="st152" d="M327.7 237.7c-2.3-5.1-5.9-9.8-10.6-13.5-15.6-12.2-38.2-9.4-50.4 6.2-5.4 6.9-7.9 15.2-7.6 23.4 32.5 13.7 57.9-5.5 68.6-16.1z"/><path class="st27" d="M297.3 266.2l1.5-32.8s-31.2 28.8-9.8 39l8.3-6.2z"/><path class="st7" d="M343 257.7a4.68 4.68 0 0 1-6.7.8L280 214.6a4.68 4.68 0 0 1-.8-6.7l5.4-6.9c1.6-2.1 4.6-2.5 6.7-.8l56.3 43.9c2.1 1.6 2.5 4.6.8 6.7l-5.4 6.9z"/><path class="st28" d="M320.7 266.1c-2.2 2.8-6.2 3.3-9 1.1-2.8-2.2-3.3-6.2-1.1-9 2.2-2.8 6.2-3.3 9-1.1 2.7 2.1 3.2 6.2 1.1 9z"/><path class="st7" d="M315.5 141.3c-2.6 3.3-2 8.2 1.3 10.8 3.4 2.6 8.2 2 10.8-1.3 2.6-3.4 2-8.2-1.3-10.8-3.4-2.7-8.2-2.1-10.8 1.3z"/><path class="st27" d="M320.3 270l20.6 28.5c2.9 2.3-.4 6.4-4.5 3.2l-31.8-24.8 15.7-6.9zm-41.2 25.7c5.6 4.9 14.2 4.4 19.1-1.3 4.9-5.6 4.4-14.2-1.3-19.1-5.6-4.9-14.2-4.4-19.1 1.3-4.9 5.7-4.3 14.2 1.3 19.1z"/><path class="st140" d="M241.9 396.8c-4.6 0-8.6-3.3-9.3-8-2.5-16.6 3.5-32.3 7.9-43.7l.6-1.5c-4.9 1.8-12.5 5.1-24.3 10.8-4.7 2.3-10.3.3-12.6-4.4-2.3-4.7-.3-10.3 4.4-12.6 13.5-6.5 22.9-10.6 29.6-12.8 7-2.3 14.8-3.9 20.4 1.2 7 6.5 3.5 15.5-.5 25.9-3.8 10-8.6 22.4-6.9 34.1.8 5.1-2.7 9.9-7.9 10.7-.5.2-.9.3-1.4.3z"/><path class="st153" d="M232.4 388.8c-.4-2.6-.6-5.3-.6-8 0-7.6 1.5-15.6 4.6-25l18.3 6c-2.5 7.4-3.6 13.4-3.6 18.9 0 1.8.1 3.5.4 5.2l-19.1 2.9z"/><path class="st153" d="M241.9 397c-4.7 0-8.8-3.4-9.5-8.2-.4-2.6-.6-5.3-.6-8v-2.3c.2-5.3 4.7-9.5 10-9.2 5.3.2 9.4 4.7 9.2 10v1.5c0 1.8.1 3.5.4 5.2.8 5.2-2.8 10.1-8.1 10.9-.5 0-.9.1-1.4.1z"/><path class="st28" d="M231.8 378l20.9 6.9c1.1 15.7 18.7 25.1 25.1 16.8 0 0 1.5 21.6-38.4 1.4-9.4-4.8-11.7-14.2-7.6-25.1z"/><path class="st154" d="M116.6 480.4c35.4 8.2 70.7 16.4 105.8 24.6 5.7-51.4 6.4-103.1 2.3-154.6-32.6-8-65.3-16.1-98.1-24.1 1.5 51.1-1.8 102.7-10 154.1z"/><path d="M222.4 505c5.7-51.4 6.4-103.1 2.3-154.6-32.6-8-65.3-16.1-98.1-24.1 38.5 59.3 70.5 119.3 95.8 178.7z" class="st3"/><path class="st130" d="M230.3 478c-.7 0-1.3-.1-2-.2-38-9.1-75.8-18.1-112.2-26.8-4.5-1.1-7.4-5.6-6.3-10.2 1.1-4.5 5.6-7.4 10.2-6.3 36.4 8.7 74.2 17.7 112.2 26.8 4.5 1.1 7.3 5.7 6.3 10.2-.9 3.9-4.4 6.5-8.2 6.5z"/><path class="st131" d="M140.9 157.9c-.6 0-1.2-.1-1.8-.2-3.5-1-5.6-4.6-4.7-8.2l11.2-40.7c1.1-3.9-1.2-8-5.2-9.1L99.8 88.5c-5.3-1.5-9.8-4.9-12.5-9.7-2.7-4.8-3.4-10.4-2-15.7l5-18.1c.5-1.9.3-3.9-.7-5.6-1-1.7-2.6-3-4.5-3.5L58 28.5c-3.5-1-5.6-4.6-4.7-8.2 1-3.5 4.6-5.6 8.2-4.7L88.6 23c5.3 1.5 9.8 4.9 12.5 9.7 2.7 4.8 3.4 10.4 2 15.7l-5 18.1c-.5 1.9-.3 3.9.7 5.6 1 1.7 2.6 3 4.5 3.5L144 86.8c11 3 17.5 14.4 14.5 25.5L147.3 153c-.8 2.9-3.5 4.9-6.4 4.9z"/><path class="st131" d="M175.8 136.2c-1.8 0-3.6-.2-5.5-.7l-23.3-6.4c-3.5-1-5.6-4.6-4.7-8.2 1-3.5 4.6-5.6 8.2-4.7l23.3 6.4c3.9 1.1 8-1.2 9.1-5.2l5.8-21.1c.5-1.9.3-3.9-.7-5.6-1-1.7-2.6-3-4.5-3.5l-31.6-8.7c-5.3-1.5-9.8-4.9-12.5-9.7-2.7-4.8-3.4-10.4-2-15.7l13.2-48.2c1-3.5 4.6-5.6 8.2-4.7 3.5 1 5.6 4.6 4.7 8.2l-13.2 48.2c-.5 1.9-.3 3.9.7 5.6 1 1.7 2.6 3 4.5 3.5l31.6 8.7c5.3 1.5 9.8 4.9 12.5 9.7 2.7 4.8 3.4 10.4 2 15.7l-5.8 21.1c-2.6 9.2-10.9 15.3-20 15.3z"/><path class="st131" d="M175.8 53.6c-1.8 0-3.6-.2-5.5-.7L115.9 38c-3.5-1-5.6-4.6-4.7-8.2 1-3.5 4.6-5.6 8.2-4.7L173.8 40c3.9 1.1 8-1.2 9.1-5.2l7-25.6c1-3.5 4.6-5.6 8.2-4.7 3.5 1 5.6 4.6 4.7 8.2l-7 25.6c-2.6 9.2-10.9 15.3-20 15.3zm-94.7 60.8c-1.8 0-3.6-.2-5.5-.7L47.4 106c-3.5-1-5.6-4.6-4.7-8.2 1-3.5 4.6-5.6 8.2-4.7l28.2 7.7c3.9 1.1 8-1.2 9.1-5.2L92 82.1c1-3.5 4.6-5.6 8.2-4.7 3.5 1 5.6 4.6 4.7 8.2l-3.7 13.6c-2.6 9.1-11 15.2-20.1 15.2z"/><path class="st128" d="M82.7 179.7c12.6-46 59.1-39.5 77.9-20.3 0 0 32.6 34.4 55.1 61.4 21.8 26.1-.4 40.7-18.4 35.8l-81.9-22.4c-21.4-5.8-40.1-27.4-32.7-54.5z"/><path class="st7" d="M171.6 207.6c-3 6-10.4 8.5-16.4 5.4-6-3-8.5-10.4-5.4-16.4 3-6 10.4-8.5 16.4-5.4 6 3.1 8.5 10.4 5.4 16.4z"/><path class="st20" d="M170.7 203.6c1.8 2.7 1.1 6.3-1.6 8.1-2.7 1.8-6.3 1.1-8.1-1.6-1.8-2.7-1.1-6.3 1.6-8.1 2.6-1.8 6.3-1 8.1 1.6z"/><path class="st132" d="M231.9 263c-7.9-2.2-12.6-10.4-10.4-18.4 2.2-8 10.4-12.6 18.4-10.4 8 2.2 12.6 10.4 10.4 18.4-2.2 7.9-10.4 12.6-18.4 10.4z"/></svg>