<svg id="Layer_1" xmlns="http://www.w3.org/2000/svg" width="192.7" height="392.6" viewBox="0 0 192.7 392.6"><style>.st0{fill:#e53935}.st1{fill:#be3935}.st2{fill:#f9ce1d}.st3{opacity:.1}.st4{fill:#f1f1f1}.st5{fill:#212121}.st6{fill:#ef9a9a}.st7{fill:#fff}.st8{fill:#f7caad}.st9{opacity:.15}.st10{fill:#231f20}.st11{fill:none;stroke:#e53935;stroke-width:79.2674;stroke-linecap:round;stroke-miterlimit:10}.st12{fill:#da4637}.st13{fill:#ffdf00}.st14{fill:#914295}.st15{fill:#48b980}.st16{opacity:.11}.st17{fill:#666}.st18{fill:#ffda85}.st19{fill:#ffb15b}.st20{fill:#333}.st21{fill:none;stroke:#29b6f6;stroke-width:25.4008;stroke-linecap:round;stroke-miterlimit:10}.st22{fill:#2297cc}.st23{fill:#29b6f6}.st24{fill:#764c2e}.st25{fill:#4d4d4d}.st26{fill:none;stroke:#666;stroke-width:9.2179;stroke-miterlimit:10}.st27{fill:#ffe18c}.st28{fill:#332e2e}.st29{stroke:#fff;stroke-width:1.769;stroke-miterlimit:10}.st29,.st30{fill:none}.st31{fill:#fdd500}.st32{fill:none;stroke:#332e2e;stroke-width:1.9753;stroke-miterlimit:10}.st33{fill:#fdbe0c}.st34{fill:#bdbdbd}.st35{opacity:.1;fill:#fff}.st36{fill:#008fa1}.st37{fill:#fb8c00}.st38{fill:#ef5350}.st39{opacity:.33;fill:#333}.st40{fill:#4caf50}.st41{fill:#00838f}.st42{fill:#00acc1}.st43{fill:#8e24aa}.st44{fill:#ffd200}.st45{opacity:.14;fill:#333}.st46{fill:#f79117}.st47{fill:#dbdbdb}.st48{fill:#dc9e00}.st49{fill:#fddf00}.st50{clip-path:url(#SVGID_2_)}.st51{fill:#ff8300}.st52{fill:#00c763}.st53{fill:#fff200}.st54{fill:#e86e1c}.st55{fill:#c8541f}.st56{fill:#009047}.st57{fill:#00a551}.st58{fill:#dec461}.st59{fill:#444}.st60{opacity:.2;enable-background:new}.st61{fill:#2b2b2b}.st62{opacity:.12;enable-background:new}.st63{fill:#848484}.st64{opacity:.21}.st64,.st65,.st66,.st67{enable-background:new}.st65{fill:#5f81c0;opacity:.21}.st66,.st67{opacity:.66;stroke:#1f1f1f;stroke-width:2.1157;stroke-miterlimit:10}.st67{fill:#5f81c0}.st68{fill:#3a3a3a}.st69,.st70{stroke:#393939;fill:none;stroke-width:.6212;stroke-miterlimit:10;stroke-dasharray:1.81,.6033}.st70{stroke:#444}.st71{fill:#00ad00}.st72{fill:#e91100}.st73{fill:#39527c}.st74{opacity:.15;fill:#fff}.st75{fill:#262626}.st76{opacity:.6;fill:url(#SVGID_3_)}.st77{fill:#0096a3}.st78{fill:#00b2c2}.st79{fill:#d97823}.st80{fill:#d13d7f}.st81{fill:#b81463}.st82{fill:#7b7878}.st83{fill:#929292}.st84{fill:#2f2f2f}.st85{fill:#616161}.st86{fill:#8d8d8d}.st87{fill:#575757}.st88{fill:#828282}.st89{opacity:.43}.st90{fill:#b3b3b3}.st91{fill:#7f7f7f}.st92{fill:none;stroke:#a5a3a3;stroke-width:3;stroke-linecap:round;stroke-miterlimit:10}.st93{fill:#6a6a6a}.st94,.st95{stroke:#7f7f7f;stroke-width:7;fill:none;stroke-linecap:round;stroke-miterlimit:10}.st95{stroke:#929292;stroke-width:5}.st96{clip-path:url(#SVGID_5_);fill:url(#SVGID_6_)}.st97{fill:#f78011}.st98{fill:#db6300}.st99{fill:#f0a42c}.st100{fill:#de7221}.st101{fill:#ff8787}.st102{clip-path:url(#SVGID_8_)}.st103{fill:#ffa1e4}.st104{fill:#1da802}.st105{fill:#fcbe2d}.st106{fill:#fcd03f}.st107{fill:#f6b12d}.st108{fill:#de4a3f}.st109{fill:#000002}.st110{fill:#ffdf82}.st111{fill:#764299}.st112{fill:#68378c}.st113{fill:#fd930c}.st114{fill:#287a5e}.st115{fill:#1aa17d}.st116{fill:#764d2f}.st117{fill:#ededed}.st118{fill:#c92828}.st119{fill:#ffd500}.st120{fill:#ec407a}.st121{fill:#1565c0}.st122{fill:#c165c7}.st123{fill:#ff931e}.st124{fill:#fdce48}.st125{fill:#2aaf4b}.st126{fill:#b99960}.st127{fill:#a17b54}.st128{fill:#d4af6e}.st129{opacity:.12}.st130{fill:#f0b21c}.st131{fill:#b0b0b0}.st132{fill:#b46d3d}.st133{opacity:.7;fill:url(#SVGID_9_)}.st134{fill:#29b65e}.st135{fill:none;stroke:#f0b21c;stroke-width:14.7487;stroke-linecap:round;stroke-linejoin:round;stroke-miterlimit:10}.st136{fill:#ffe51c}.st137{fill:#c70fd1}.st138{fill:#b9b9b9}.st139{fill:#4830a6}.st140{fill:#6e40ed}.st141{fill:#a2a5a3}.st142{fill:#b6e5cd}.st143{fill:#e9d386}.st144{fill:#413d3d}.st145{fill:#666262}.st146{fill:#85d4ac}.st147,.st148,.st149{fill:none;stroke-miterlimit:10}.st147{stroke-linecap:round;stroke:#6e40ed;stroke-width:18.7963}.st148,.st149{stroke-dasharray:29.0489,256.3136;stroke:#f7fffa;stroke-width:19.2235}.st149{stroke-linecap:round;stroke-dasharray:8.5438,256.3136}.st150{fill:#211c1c}.st151{opacity:.2}.st152{fill:#f5951f}.st153{fill:#f7fffa}.st154{fill:#ff8b17}.st155{fill:none;stroke:#f0b21c;stroke-width:17.108;stroke-linecap:round;stroke-linejoin:round;stroke-miterlimit:10}.st156{fill:#d6aa1a}.st157{fill:none;stroke:#d6aa1a;stroke-width:25.8006;stroke-linecap:round;stroke-miterlimit:10}.st158{fill:#f5c60c}.st159{fill:#231f20;stroke:#b6e5cd;stroke-width:1.2082;stroke-miterlimit:10}.st160{fill:#ab5844}.st161{fill:#249d43}.st162{fill:#fde08b}.st163{fill:#c5161d}.st164{fill:#d89614}.st165{fill:#faac18}.st166{fill:none;stroke:#faac18;stroke-width:24.2;stroke-linecap:round;stroke-linejoin:round;stroke-miterlimit:10}.st167{fill:#e91c24}.st168{fill:#eceff1}.st169{stroke:#5f14a6;stroke-width:28.0254;stroke-linecap:round}.st169,.st170,.st171,.st172{fill:none;stroke-miterlimit:10}.st170{stroke-dasharray:43.312,382.1646;stroke:#a2a5a3;stroke-width:28.6623}.st171,.st172{stroke-linecap:round}.st171{stroke-dasharray:12.7388,382.1646;stroke:#a2a5a3;stroke-width:28.6623}.st172{stroke:#5f14a6;stroke-width:28.3806}.st173{fill:#8c28de}.st174{fill:#5f14a6}.st175{stroke:#8c28de;stroke-width:31.6424;stroke-linecap:round}.st175,.st176,.st177,.st178{fill:none;stroke-miterlimit:10}.st176{stroke-dasharray:48.9019,431.4876;stroke:#e6e6e6;stroke-width:32.3616}.st177,.st178{stroke-linecap:round}.st177{stroke-dasharray:14.3829,431.4876;stroke:#e6e6e6;stroke-width:32.3616}.st178{stroke:#8c28de;stroke-width:28.3806}.st179{fill:#fafafa}.st180{fill:#ffa000}.st181{fill:#ffb300}.st182{fill:#c93}.st183{fill:#5d4037}.st184{fill:#ff9800}.st185{fill:#cfd8dc}.st186{fill:#f57c00}.st187,.st188{fill:none;stroke-miterlimit:10}.st187{stroke-linecap:round;stroke:#f57c00;stroke-width:23.7843}.st188{opacity:.5;stroke:#cfd8dc;stroke-width:3.63}.st189{fill:#f06292}.st190{fill:none;stroke:#ff9800;stroke-width:23.7843;stroke-linecap:round;stroke-miterlimit:10}.st191{fill:#9b51a0}.st192{fill:#7b1fa2}.st193{fill:none;stroke:#8e24aa;stroke-width:23.7843;stroke-linecap:round;stroke-miterlimit:10}.st194{fill:#ffc107}.st195{fill:#26c6da}.st196{fill:#039be5}.st197,.st198,.st199{fill:none;stroke-miterlimit:10}.st197{stroke-linecap:round;stroke:#039be5;stroke-width:23.7843}.st198{stroke:#cfd8dc;stroke-width:3.63}.st199{stroke:#29b6f6;stroke-width:23.7843;stroke-linecap:round}.st200{fill:#9575cd}.st201{fill:none;stroke:#9b51a0;stroke-width:23.7843;stroke-linecap:round;stroke-miterlimit:10}.st202{opacity:.6}</style><path class="st7" d="M15.9 344.2l-2.3 6-4.5 11.2L0 384.6v-46.7z"/><path class="st21" d="M72.9 207.7c2.4 9.4.4 69.1-14.6 69.5"/><path class="st22" d="M75.1 248.9l-18.4 46.6-.8 2-8.3 20.9c-.3.8-.6 1.5-.9 2.2-.2.5-.4.9-.6 1.4-6.7 13.9-18.6 23.8-32.5 28.2-4.4 1.4-8.9 2.2-13.6 2.5V180.8c12.6-6.4 27.6-8 41.8-3.2.9.3 1.8.6 2.8 1 16.2 6.4 27.6 19.8 32.1 35.3 3.2 11.1 2.9 23.3-1.6 35z"/><path class="st23" d="M75.1 248.9l-18.4 46.6-.8 2-8.3 20.9c-.3.8-.6 1.5-.9 2.2-.2.5-.4.9-.6 1.4-6.7 13.9-18.6 23.8-32.5 28.2-4.4 1.4-8.9 2.2-13.6 2.5V205.8c9.2-21 19.9-35.4 41.8-28.2.9.3 1.8.6 2.8 1 16.2 6.4 27.6 19.8 32.1 35.3 3.2 11.1 2.9 23.3-1.6 35z"/><path class="st22" d="M25.1 58.6S125.1 20 170 17c0 0-54.3 43.6-42.7 77.3L25.1 58.6z"/><path class="st23" d="M56.6 71S125.1 20 170 16.9c0 0-54.3 43.6-42.7 77.3L56.6 71z"/><path class="st24" d="M82.9 186.5c-5-11.4-3.7-24 2.3-33.9 11.3 2.4 21.3 10.1 26.3 21.5s3.7 24-2.3 33.9c-11.3-2.4-21.3-10-26.3-21.5zm-56-56.9c-1.1 5.1-3.2 9.9-6.3 14.1-1.9 2.6-4.1 5-6.6 7-2.6 2.1-5.4 3.8-8.6 5.2-1.8.8-3.6 1.4-5.4 1.9v-32.7c.2-.1.5-.1.8-.1 1.1-.2 2.2-.4 3.3-.5 1.6-.2 3.2-.2 4.8-.2 2.2.1 4.4.3 6.5.8 4 .9 7.9 2.4 11.5 4.5z"/><path class="st24" d="M82 183.4c-.5-1.6-1.1-3.2-1.9-4.7-7.3-13.7-18.6-27.4-34.3-31.9-13.2-3.8-26.1-4.5-38.8-.5-4.2-12.7-4.2-26.9 1.1-40.3 12-30.3 46.2-45.2 76.5-33.2 30.3 12 45.2 46.2 33.2 76.5-6.6 16.7-20 28.7-35.8 34.1z"/><ellipse transform="rotate(22.904 115.378 155.145)" class="st25" cx="115.4" cy="155.2" rx="6.6" ry="9.6"/><ellipse transform="rotate(22.904 109.486 154.02)" class="st17" cx="109.5" cy="154" rx="6.9" ry="18.4"/><path class="st26" d="M107.3 142.5c-1 1.4-10.9 49.3-10.9 49.3l-19.2-6.6"/><path class="st27" d="M12.6 107.7c-11 27.8 2.7 59.3 30.5 70.3s59.3-2.7 70.3-30.5-2.7-59.3-30.5-70.3c-27.9-11-59.3 2.7-70.3 30.5z"/><path class="st7" d="M61.3 163.2c-7.6 5.7-18.4 6-26.4 0s-10.8-16.4-7.5-25.3l33.9 25.3z"/><path class="st27" d="M53.4 141.8l7.4 2.9 5.9-10.1-10.7-4.2z"/><path class="st28" d="M40.6 116.2c-2 5 .5 10.6 5.4 12.5 5 2 10.6-.5 12.5-5.4 2-5-.5-10.6-5.4-12.5-4.9-2-10.5.5-12.5 5.4zm41.1 16.2c-2 5 .5 10.6 5.4 12.5 5 2 10.6-.5 12.5-5.4 2-5-.5-10.6-5.4-12.5-4.9-2-10.5.5-12.5 5.4z"/><path class="st24" d="M117.1 107.8c12.5 14.1 8.1 27.9-1.9 26.6-8 3-29.1 8.3-84.1-52.9 0 0 28.9.6 39 2l47 24.3z"/><path class="st7" d="M19.5 69.1c-1.5 3.7.3 7.9 4.1 9.4L123.7 118c3.7 1.5 7.9-.3 9.4-4.1l4.9-12.3c1.5-3.7-.3-7.9-4.1-9.4L33.7 52.7c-3.7-1.5-7.9.3-9.4 4.1l-4.8 12.3zm172.4-53.2c-2.4 6-9.1 8.9-15.1 6.5-6-2.4-8.9-9.1-6.5-15.1 2.4-6 9.1-8.9 15.1-6.5 5.9 2.4 8.8 9.1 6.5 15.1z"/><path class="st22" d="M15.9 344.2l-2.3 6-4.5 11.2L0 384.6v-46.7z"/><path class="st29" d="M1.2 304.7l.7-1.7.6-1.5 8.6-21.7.7-2 .7-1.7 4.1-10.3 9.5-24.1 4.8-12.3 7.6-19.1 7.2-18.3 1.1-2.7 2.2-5.6"/><path class="st22" d="M49.2 377.3L9.1 361.4 0 357.8v-57.3l2.5 1 13.1 5.2 30.2 11.9.1 1.7.1 1.7z"/><path class="st23" d="M49.2 377.3L9.1 361.4 0 357.8v-57.3l2.5 1 13.1 5.2 30.2 11.9.1 1.7.1 1.7z"/><path class="st28" d="M56.7 295.5l-.8 2-9.2 23.2v-.1l-.8-.3L15 308.1 1.9 303l-1.9-.8v-29.1l5.6 2.2 6.2 2.5L25 283l31.7 12.5z"/><path class="st30" d="M114.7 139.4l25.6-16.1s-13.5 62.1-42.9 42.3l17.3-26.2z"/><path class="st27" d="M19.4 101.8l-4 23.3-1.3 7.6c-1.9-.3-3.6-.8-5.2-1.3-1.9-.7-3.6-1.7-4.9-2.8-1.3-1.1-2.4-2.3-3.2-3.6-.3-.4-.5-.9-.8-1.3v-24c3.9-14 11.7-27.1 11.7-27.1l4.9 18.5 1.6 6 1.2 4.7z"/><path class="st31" d="M25.6 281.2L25 283l-.8 1.9-8.6 21.8-.6 1.4-.7 1.7-13.1-5.1-1.2-.5v-33.1l7.1 2.9 5.4 2.1z"/><path class="st22" d="M33.1 242l-1.3.1c-3 .2-6 .4-8.7.5-4.7.2-9.2.3-13.5.3-3.3 0-6.6-.1-9.6-.2v-25.4h.6c6.4.3 13.6.2 21.5-.1 2.6-.1 5.3-.2 8.1-.4l1.3-.1c7-.5 13.1 4.8 13.5 11.8.4 7-4.9 13-11.9 13.5z"/><path class="st7" d="M60.763 234.363l-4.37 1.07-9.105-37.202 4.37-1.068z"/><path class="st27" d="M24 222.7c-4.2 10.5 1 22.4 11.5 26.6 10.5 4.2 22.4-1 26.6-11.5 4.1-10.5-1-22.4-11.5-26.6-10.5-4.2-22.4 1-26.6 11.5z"/><path class="st28" d="M54.35 202.95l-5.635 1.38-3.565-14.57 5.633-1.378z"/><path class="st32" d="M53.9 197.4l3.6 14.9"/><path class="st33" d="M75.7 305.3l-72-28.4 94.1-81.3 72 28.4z"/><path class="st34" d="M152.8 208.3l-16.1 13.9-32-12.6 16.2-13.9z"/><circle class="st34" cx="134.1" cy="202.2" r="6.7"/><path class="st35" d="M133.1 200.5L117 214.4l-12.3-4.8 16.2-13.9z"/><path class="st3" d="M75.7 305.3l-15.2-6 94.1-81.3 15.2 6z"/><path class="st27" d="M121.6 301c-4.2 10.5-16 15.7-26.6 11.5-10.5-4.2-15.7-16-11.5-26.6 4.1-10.5 16.1-15.7 26.6-11.5 10.5 4.2 15.7 16.1 11.5 26.6z"/><path class="st17" d="M60.1 185.2l16.6 5.3c1.2.4 2.6-.3 2.9-1.5l2.5-7.8c.4-1.2-.3-2.6-1.5-2.9L64 173c-1.2-.4-2.6.3-2.9 1.5l-2.5 7.8c-.4 1.2.3 2.5 1.5 2.9z"/><path class="st20" d="M60.9 175.1v.2c.5-1.7 2.4-2.6 4.1-2.1l14.9 4.8c1.7.5 2.6 2.4 2.1 4.1v-.2l-21.1-6.8z"/><path d="M0 180.8c2.6-1.3 5.3-2.4 8-3.3C5.3 258.9 2.2 352.8.7 382.8c-.3 6.2-.6 9.7-.7 9.8V180.8zM11.4 73.1c-.6 20.2-1.6 49-2.6 81.1-1.1.6-2.2 1.2-3.4 1.7-1.8.8-3.6 1.4-5.4 1.9V99.7c3.4-12.4 9.9-24 11.4-26.6z" class="st3"/></svg>