<svg xmlns="http://www.w3.org/2000/svg" xmlns:xlink="http://www.w3.org/1999/xlink" viewBox="0 0 172 172"><defs><style>.cls-1{fill:url(#radial-gradient);}.cls-2{fill:#ccc;}.cls-3{fill:#fff;}.cls-4{opacity:0.1;}.cls-5{fill:#ffeb3b;}.cls-6{fill:#fffb73;stroke:#fffb73;stroke-linejoin:round;stroke-width:2.49px;}</style><radialGradient id="radial-gradient" cx="1920.27" cy="3785.75" r="62.77" gradientTransform="translate(-2544.95 -5100.84) scale(1.37 1.37)" gradientUnits="userSpaceOnUse"><stop offset="0" stop-color="#ffeb3b"/><stop offset="1" stop-color="#ffeb3b" stop-opacity="0"/></radialGradient><symbol id="New_Symbol_16" data-name="New Symbol 16" viewBox="0 0 172 172"><circle class="cls-1" cx="86" cy="86" r="86"/><path class="cls-2" d="M76.32,146.19H97a2.46,2.46,0,0,1,2.47,2.47v1A2.46,2.46,0,0,1,97,152.12H76.32a2.46,2.46,0,0,1-2.47-2.47v-1A2.46,2.46,0,0,1,76.32,146.19Z"/><path class="cls-2" d="M76.32,134.33H97a2.46,2.46,0,0,1,2.47,2.47v1A2.47,2.47,0,0,1,97,140.26H76.32a2.47,2.47,0,0,1-2.47-2.47v-1A2.46,2.46,0,0,1,76.32,134.33Z"/><path class="cls-3" d="M76.32,140.26H97a2.46,2.46,0,0,1,2.47,2.47v1A2.47,2.47,0,0,1,97,146.19H76.32a2.47,2.47,0,0,1-2.47-2.47v-1A2.46,2.46,0,0,1,76.32,140.26Z"/><path class="cls-3" d="M76.32,128.4H97a2.46,2.46,0,0,1,2.47,2.46v1A2.47,2.47,0,0,1,97,134.33H76.32a2.47,2.47,0,0,1-2.47-2.47v-1A2.46,2.46,0,0,1,76.32,128.4Z"/><path class="cls-4" d="M85,149.65v-1a2.46,2.46,0,0,1,2.47-2.47A2.47,2.47,0,0,1,85,143.72v-1a2.46,2.46,0,0,1,2.47-2.47A2.47,2.47,0,0,1,85,137.79v-1a2.46,2.46,0,0,1,2.47-2.47A2.47,2.47,0,0,1,85,131.86v-1a2.46,2.46,0,0,1,2.47-2.46H76.32a2.46,2.46,0,0,0-2.47,2.46v1a2.47,2.47,0,0,0,2.47,2.47,2.46,2.46,0,0,0-2.47,2.47v1a2.47,2.47,0,0,0,2.47,2.47,2.46,2.46,0,0,0-2.47,2.47v1a2.47,2.47,0,0,0,2.47,2.47,2.46,2.46,0,0,0-2.47,2.47v1a2.46,2.46,0,0,0,2.47,2.47H87.46A2.46,2.46,0,0,1,85,149.65Z"/><path class="cls-5" d="M52.65,100.28c0-18.78,15.23-57.92,34-57.92s34,39.14,34,57.92a34,34,0,0,1-68,0Z"/><path class="cls-6" d="M89.41,122.72c-15,0-27.06-13.07-27.06-29.18,0-6,1.66-14.33,4.51-22.49C62,80.68,59,92.72,59,100.37c0,14.45,10.86,26.16,24.26,26.16a23,23,0,0,0,14.58-5.25A25.19,25.19,0,0,1,89.41,122.72Z"/></symbol></defs><title>light_yellow</title><g id="Layer_2" data-name="Layer 2"><g id="ART"><use width="172" height="172" xlink:href="#New_Symbol_16"/></g></g></svg>