<svg xmlns="http://www.w3.org/2000/svg" xmlns:xlink="http://www.w3.org/1999/xlink" viewBox="0 0 46.64 46.64"><defs><style>.cls-1{fill:none;}.cls-2{fill:#9b643d;}.cls-3{fill:#332e2e;}.cls-4{fill:#fff;}.cls-5{fill:#584539;}</style><symbol id="hair" data-name="hair" viewBox="0 0 40.56 40.56"><rect class="cls-1" width="40.56" height="40.56"/><path class="cls-2" d="M32.48,18.63,29,22.11a9.21,9.21,0,0,0-17.44,0L8.08,18.63S6.4,23.85,9.34,26.79a2.46,2.46,0,0,0,1.73.72,1.86,1.86,0,0,0,.33,0,9.19,9.19,0,0,0,17.76,0,1.86,1.86,0,0,0,.33,0,2.44,2.44,0,0,0,1.73-.72C34.16,23.85,32.48,18.63,32.48,18.63Z"/><path class="cls-3" d="M18.42,22.43a1.86,1.86,0,1,1-1.86-1.86A1.87,1.87,0,0,1,18.42,22.43Z"/><path class="cls-4" d="M25.86,26.15a5.58,5.58,0,0,1-11.16,0Z"/><path class="cls-3" d="M25.86,22.43A1.86,1.86,0,1,1,24,20.57,1.86,1.86,0,0,1,25.86,22.43Z"/><path class="cls-5" d="M20.28,6.28a14,14,0,0,0-.44,28,9.21,9.21,0,0,1-8.45-6.79,1.73,1.73,0,0,1-.32,0,2.44,2.44,0,0,1-1.73-.72c-2.94-2.94-1.26-8.16-1.26-8.16l3.48,3.48A9.29,9.29,0,0,1,14,18.3a13.59,13.59,0,0,0,12.5,0A9.29,9.29,0,0,1,29,22.11l3.48-3.48s1.68,5.22-1.26,8.16a2.46,2.46,0,0,1-1.73.72,1.73,1.73,0,0,1-.32,0,9.21,9.21,0,0,1-8.45,6.79,14,14,0,0,0-.44-28Z"/></symbol></defs><title>btn_hair</title><g id="Layer_2" data-name="Layer 2"><g id="Layer_1-2" data-name="Layer 1"><use width="40.56" height="40.56" transform="scale(1.15)" xlink:href="#hair"/></g></g></svg>