<svg xmlns="http://www.w3.org/2000/svg" viewBox="0 0 55 55"><g fill="none" fill-rule="evenodd"><path fill="#FADCBC" d="M20.7223995 6.23779462C10.2822039 9.31381615 6.9137322 17.7916316 9.32745914 26.1193972c2.41372696 8.3277656 9.29532856 9.261409 11.78345116 17.8475937l19.4255422-5.7310699c-2.4798565-8.5861847 2.8063709-13.112688.4133094-21.4404536-2.3930615-8.32776558-9.7871668-13.63369431-20.2273624-10.55767278z"/><path fill="#F33" d="M31.2973172 5.35473633l-4.0760908.20977126s3.8586993 11.45104271-2.5710726 13.30196561c-6.4297718 1.8509228-9.4439887-9.84690962-9.4439887-9.84690962l-3.553515 1.98665722s4.5986665 14.1492769-1.93143991 16.0413314l6.71823361 22.5977115 31.9774545-9.2011432-6.7140531-22.6059378C35.1811 19.7178977 31.2973172 5.35473633 31.2973172 5.35473633z"/><path fill="#CFA160" d="M33.0136579 32.3081991l-.4274635-1.4340042c-.4131021-1.3379668-1.5480522-2.3654489-2.9773255-2.6954037-1.4292733-.3299549-2.9357293.0877456-3.9519004 1.0957575-1.016171 1.008012-1.3876767 2.4531945-.9745744 3.7911612l.4573859 1.4907163c2.9195758 9.5316726 10.6994117 6.9148173 7.8738779-2.2482271z"/><path fill="#CFA160" fill-rule="nonzero" d="M24.0227637 33.1246413l-2.9204688-1.7316137s.8344197 7.5789471 4.8563223 5.3495989l-1.9358535-3.6179852zm6.8589294-2.0076681l1.5436763-3.0491459s3.3793995 6.8302542-1.2224248 7.1314044l-.3212515-4.0822585z"/><path fill="#332E2E" d="M31.8922734 22.7572544l-1.9239442.6925682c-.8255559.2900356-1.6895903-.2823048-1.9312457-1.2792661l-.3030121-1.2483872c-.0521715-.215123-.0053993-.447536.1226979-.6096915.1280972-.1621554.3180584-.229418.4983271-.1764505s.3234577.218118.3756292.433241l.3030121 1.2483872c.0366763.1615413.125021.2988226.2455543.3815741.1205334.0827514.2633565.1041769.3969773.0595522l1.9239442-.6793344c.1780351-.0630397.3703795-.0065241.5045789.148258.1341994.1547821.1898657.3843155.14603.6021373-.0438358.2178218-.1805139.3908396-.358549.4538793v-.0264676z"/><path fill="#332E2E" d="M29.4610857 29.7191574c-.1531466.0461211-.317823.0264002-.4567065-.0546931-.1388834-.0810933-.2402137-.2166922-.281025-.3760643l-.7210597-2.5500835c-.2742546-.9751709.2661756-1.9959345 1.2087127-2.2830141l2.3507378-.7107496c.153571-.0432196.2840363-.1481246.3623278-.291342.0782915-.1432173.0979047-.3128483.0544697-.4710985l-.5585086-1.8565643c-.2742547-.9751708.2661756-1.9959344 1.2087127-2.283014l1.3712637-.4307574c.2032586-.0615579.4228538-.0063707.5760661.1447732.1532124.1511438.2167653.375282.166719.5879838-.0500462.2127018-.2060885.3816527-.4093471.4432106l-1.3712637.4307574c-.153571.0432196-.2840363.1481246-.3623278.291342-.0782915.1432173-.0979047.3128483-.0544697.4710985l.5293328 1.869487c.2742547.9751708-.2661756 1.9959344-1.2087127 2.283014l-2.3507378.7107497c-.153571.0432195-.2840362.1481246-.3623278.2913419-.0782915.1432174-.0979047.3128483-.0544697.4710986l.7252276 2.5500836c.0951708.313417-.0643708.648873-.3626138.7624405z"/><path fill="#332E2E" fill-rule="nonzero" d="M34.1015197 27.44522l-1.6396575.5449932c-.8977753.2986058-1.8373953-.2906465-2.1001907-1.3170668l-.3295195-1.2852756c-.0560262-.2214796-.0045071-.4603274.1351506-.6265717.1396578-.1662444.3462368-.2346288.5419207-.1793936.195684.0552352.3507438.2256985.40677.4471781l.3295196 1.280734c.0398848.1663145.1359578.3076524.2670354.392849.1310775.0851967.2863948.1072553.4317048.061312l1.6396574-.5495348c.1453863-.0456262.2689389-.1555289.3434147-.305475.0744759-.1499461.0937588-.3276211.0535968-.4938484l-.3136391-1.221693c-.0567355-.2214796-.0058716-.4607602.1334315-.6277072.1393031-.1669469.3458821-.236197.5419207-.1816644.1960385.0545327.3517537.2245632.4084891.4460428l.3136391 1.221693c.2527154 1.0278793-.2666585 2.0965156-1.1632436 2.3934284zm-12.8353812-1.3397749l2.0922505-.6994079c.8993944-.3007093 1.4162403-1.3775481 1.1553034-2.4070532l-.3295195-1.280734c-.0567354-.2214796-.2124506-.3915101-.4084891-.4460427-.1960386-.0545326-.4026176.0147174-.5419207.1816644-.1393031.1669469-.1901669.4062275-.1334315.6277071l.3255494 1.280734c.0425079.1668753.0243319.346314-.0504084.4976476-.0747404.1513336-.1997164.2617475-.3466031.3062173l-2.0882804.6994079c-.1936096.0640912-.3426227.2414718-.3909074.4653243-.0482846.2238525.0114946.4601685.1568196.6199298.145325.1597614.3541173.2186966.5477269.1546054h.0119103z"/><path fill="#332E2E" d="M27.4581224 30.3194528c.1652444-.0392427.3056266-.134495.3898693-.2645343.0842427-.1300393.1053467-.2840618.0586101-.4277508l-.7758693-2.3154394c-.1425247-.4254202-.4731037-.7839876-.9189306-.9967317-.445827-.2127442-.970336-.2622163-1.4580101-.1375207l-2.5294236.6414393c-.1641806.0406675-.3402082.0221601-.4886021-.0513713-.148394-.0735314-.2567343-.1959324-.3007216-.3397503l-.5695688-1.7013786c-.2988905-.884474-1.3616499-1.3916122-2.3769407-1.1342524l-1.4799819.3911215c-.3380946.0864042-.5318579.3954752-.4327826.6903295.0990753.2948542.4534715.4638364.7915661.3774323l1.4799819-.3911216c.1641806-.0406675.3402081-.0221601.4886021.0513713.148394.0735314.2567343.1959324.3007216.3397503l.5695688 1.7013786c.2988905.884474 1.3616498 1.3916122 2.3769407 1.1342524l2.5294236-.6453505c.1647878-.0418773.3419816-.023971.491422.0496606.1494404.0736315.258473.1967534.3023865.3414609l.7758693 2.3154395c.1015289.2859756.4446867.4503146.7758693.3715654z"/><path fill="#332E2E" d="M20.3124359 31.3983504l1.7566982-.5259728c.9636411-.2877349 1.516853-1.3165257 1.2365108-2.2995007l-.3496341-1.2301677c-.1093809-.3086814-.4353117-.4774804-.744344-.3854945-.3090323.091986-.4946682.4130567-.4239456.7332451l.353898 1.2301677c.0431332.1591.0224238.329157-.0575619.4726739-.0799857.1435169-.2126789.2487074-.3688212.2923774l-1.7566982.5259727c-.1566432.0452994-.3245516.0248443-.4663146-.0568078-.141763-.0816521-.2456027-.2177175-.2883834-.3778804l-.3325788-1.1693114c-.1093809-.3086813-.4353117-.4774803-.744344-.3854944-.3090324.0919859-.4946682.4130567-.4239456.733245l.3368427 1.1693114c.1336235.4775166.4489487.8807597.8757872 1.1199711.4268385.2392114.9297655.2945383 1.3968345.1536654z"/><path fill="#FFF" d="M27.8352613 35.9505745c-.9051348.2596856-1.8502713-.2603169-2.1122353-1.1621261-.1267888-.4333064-.075699-.8990704.1420303-1.2948292.2177293-.3957588.5842628-.689094 1.0189674-.815475.4353584-.1261963.9031956-.0746031 1.3003499.1434029.3971544.218006.6910078.5845201.8167635 1.0187232.1266035.4339582.0748438.9002907-.1438656 1.2961677-.2187095.395877-.5864061.6887853-1.0220102.8141365z"/><path fill="#231F20" d="M27.5531036 33.7680162c.302063-.0856016.6169781.0870556.7062137.3871929.0876719.3004833-.0847048.6151074-.3857013.7039872-.302242.0871914-.6182292-.0860536-.7062137-.387193-.0428659-.1443445-.0262713-.2997658.0461128-.4318823.0723842-.1321165.1945918-.2300388.3395885-.2721048z"/><path fill="#CFA160" d="M25.4368877 32.8523428c.3095221-.5345637.8305339-.9305177 1.4482272-1.1006111.6176934-.1700934 1.281376-.1003672 1.8448014.1938141 1.1738043.611214 1.603821 2.0081446.961036 3.1219726l-4.2540646-2.2151756z"/><path fill="#FFF" d="M31.2572575 34.8116381c.434601-.1264448.8008552-.4204032 1.0178208-.8169109.2169656-.3965077.2667792-.862919.138432-1.2961575-.1277793-.4340837-.4232833-.7996397-.8213779-1.0160933-.3980947-.2164536-.8660995-.2660356-1.3008583-.1378173-.9038789.2676807-1.4193066 1.215803-1.1513741 2.1179372.1277332.4328232.4227158.7971753.8199098 1.0127235.3971941.2155482.8639826.264592 1.2974477.1363183z"/><path fill="#231F20" d="M31.1847599 32.6344024c-.3009966.0889162-.4733732.4036693-.3857013.7042758.0891608.3001705.40478.4720742.7062137.3846429.1449967-.0420833.2672043-.1400457.3395884-.2722164.0723842-.1321707.0889788-.2876557.0461129-.4320594-.0415586-.1450174-.1396849-.2673638-.2724174-.3396572-.1327325-.0722935-.2889883-.0884976-.4337963-.0449857z"/><path fill="#CFA160" d="M31.6964843 30.2522606c-1.1194945-.6389765-2.5214271-.2062536-3.1314635.9665627-.2940569.5630005-.3620425 1.2255043-.1889352 1.8411284.1731074.6156242.5730585 1.1336938 1.1114825 1.4397394l2.2089162-4.2474305z"/><path stroke="#FFF" stroke-linecap="round" stroke-width="2.25" d="M38.4552347 34.0092744l1.4057841 4.2794438m-3.1372987-2.6660706l4.8645273 1.0565115m-4.1616352 1.0832104l3.4587432-3.2229323m-22.9082806 1.1709352L17.3341857 33.7461m-.7843247 1.2701023l2.2115384-.5759323"/></g></svg>