<svg xmlns="http://www.w3.org/2000/svg" width="64" height="64"><path fill="#E8E8E8" d="M50.587 24.388c-1.97-4.283.863-9.77 6.306-12.3a31.799 31.799 0 0 0-6.145-5.887c-2.156 5.526-7.364 8.69-11.74 7.07-4.385-1.63-6.252-7.44-4.263-13.037a31.696 31.696 0 0 0-8.355.4c2.18 5.335.726 11.048-3.425 12.952-4.086 1.875-9.25-.65-11.912-5.623-2.03 1.764-3.773 3.76-5.272 5.93 4.89 2.36 7.59 7.175 6.067 11.264-1.5 4.018-6.52 5.91-11.667 4.65-.177 2.47-.02 4.97.402 7.463 4.907-1.426 9.85.13 11.584 3.924 1.73 3.797-.29 8.526-4.552 11.314 1.583 1.882 3.327 3.577 5.262 5.016 2.49-4.354 7.002-6.642 10.854-5.21 3.94 1.474 5.85 6.315 4.743 11.352 2.435.28 4.92.297 7.4-.005-1.46-4.938.082-9.914 3.9-11.66 3.983-1.82 8.98.523 11.696 5.24a31.307 31.307 0 0 0 5.565-5.5c-4.934-2.358-7.67-7.2-6.145-11.305 1.607-4.302 7.217-6.17 12.72-4.356a31.82 31.82 0 0 0 .015-8.302c-5.365 2.234-11.132.784-13.038-3.39z"/><path fill="#fff" d="M35.387 40.474c-4.572 2.095-9.986.086-12.078-4.493-2.098-4.576-.084-9.985 4.487-12.077 4.577-2.1 9.986-.088 12.083 4.488s.084 9.987-4.493 12.084z"/></svg>