<svg xmlns="http://www.w3.org/2000/svg" width="114" height="114" viewBox="-0.098 -0.114 114 114" enable-background="new -0.098 -0.114 114 114"><path fill="#E8E8E8" d="M90.124 43.276c-3.52-7.657 1.542-17.47 11.27-21.99-3.213-4.03-6.917-7.568-10.982-10.525C86.558 20.64 77.25 26.3 69.428 23.4c-7.838-2.913-11.175-13.3-7.62-23.307-4.938-.426-9.948-.184-14.93.714 3.897 9.54 1.296 19.755-6.122 23.158-7.303 3.352-16.534-1.16-21.29-10.053-3.626 3.153-6.745 6.722-9.424 10.6 8.74 4.222 13.566 12.83 10.843 20.14C18.205 51.835 9.23 55.216.03 52.964c-.316 4.416-.035 8.89.718 13.343 8.77-2.55 17.604.236 20.704 7.018 3.09 6.79-.517 15.244-8.136 20.228 2.83 3.364 5.946 6.396 9.406 8.967 4.45-7.784 12.515-11.876 19.4-9.317 7.04 2.636 10.456 11.293 8.476 20.3 4.352.498 8.792.53 13.225-.01-2.61-8.83.15-17.728 6.97-20.85 7.122-3.25 16.055.938 20.907 9.37 3.783-2.896 7.085-6.2 9.95-9.835-8.82-4.215-13.707-12.87-10.983-20.212 2.873-7.69 12.9-11.03 22.735-7.79.64-4.883.683-9.855.026-14.84-9.59 3.996-19.896 1.403-23.304-6.06z"/><path fill="#fff" d="M63.997 70.73c-8.17 3.745-17.85.152-21.588-8.034-3.75-8.182-.15-17.854 8.02-21.594 8.18-3.755 17.85-.158 21.598 8.024 3.75 8.182.15 17.853-8.03 21.603z"/><circle fill="#D9D9D9" cx="57.169" cy="55.305" r="2.082"/></svg>