<svg xmlns="http://www.w3.org/2000/svg" width="38" height="38" viewBox="0.069 0.063 38 38" enable-background="new 0.069 0.063 38 38"><path fill="#924396" d="M30.297 14.933c-1.08-2.593.726-5.8 4.024-7.187-1.02-1.38-2.21-2.606-3.53-3.64-1.403 3.242-4.574 5.013-7.143 3.952C21.07 6.992 20.087 3.492 21.393.2 19.753 0 18.08.02 16.41.258c1.182 3.225.19 6.596-2.322 7.64-2.474 1.027-5.493-.59-6.97-3.61-1.247 1.008-2.33 2.158-3.27 3.417 2.86 1.513 4.363 4.44 3.367 6.84-.98 2.36-4.01 3.378-7.048 2.516-.16 1.467-.12 2.96.077 4.453 2.952-.742 5.86.294 6.812 2.59.947 2.3-.36 5.07-2.957 6.638.9 1.156 1.9 2.204 3.023 3.103 1.577-2.538 4.314-3.803 6.575-2.866 2.314.964 3.345 3.89 2.576 6.865 1.444.22 2.923.284 4.405.158-.762-2.973.265-5.903 2.576-6.86 2.41-.996 5.337.508 6.85 3.377 1.294-.918 2.435-1.978 3.434-3.154-2.887-1.51-4.41-4.454-3.412-6.866 1.05-2.527 4.432-3.516 7.67-2.316.272-1.618.347-3.273.19-4.942-3.245 1.212-6.648.223-7.69-2.305z"/><path fill="#fff" d="M20.895 24.18c-2.768 1.15-5.948-.166-7.094-2.94-1.148-2.77.17-5.948 2.937-7.094 2.77-1.15 5.948.165 7.097 2.937 1.15 2.77-.167 5.95-2.94 7.098z"/></svg>