<svg xmlns="http://www.w3.org/2000/svg" width="54.596" height="54.658"><path fill="#e38887" d="M37.612 13.432c-3.365-2.264-3.742-7.563-.875-11.858a27.36 27.36 0 0 0-7.15-1.573c.89 5.025-1.518 9.682-5.46 10.45-3.95.767-7.922-2.664-8.968-7.667A27.223 27.223 0 0 0 9.2 6.817c3.992 2.943 5.482 7.79 3.285 11.048C10.323 21.072 5.4 21.53 1.217 19.07.517 21.27.13 23.52 0 25.784c4.65-.455 8.788 1.872 9.5 5.56.698 3.622-2.143 7.26-6.488 8.64.976 1.892 2.212 3.66 3.637 5.3 2.965-3.243 7.293-4.312 10.266-2.302 2.97 2.015 3.605 6.392 1.722 10.35 2.005.673 4.045 1.137 6.11 1.327-.12-4.313 2.17-8.014 5.64-8.688 3.554-.68 7.126 2.02 8.568 6.216a27.117 27.117 0 0 0 5.433-3.317c-3.285-2.973-4.38-7.32-2.358-10.312 2.112-3.12 6.833-3.637 10.938-1.388.83-2.137 1.36-4.32 1.626-6.533-4.68.478-8.856-1.853-9.575-5.552-.745-3.88 2.54-7.763 7.394-8.896a27.332 27.332 0 0 0-3.706-6.105c-2.94 4.042-7.826 5.56-11.096 3.347z"/></svg>