<svg xmlns="http://www.w3.org/2000/svg" width="41.024" height="12.461" viewBox="-0.211 3.093 41.024 12.461" enable-background="new -0.211 3.093 41.024 12.461"><path fill="#E6C18F" d="M40.622 10.81c-.003 2.625-2.134 4.748-4.757 4.744l-31.333-.047C1.908 15.504-.215 13.373-.21 10.75c.002-2.624 2.133-4.747 4.756-4.743l31.334.047c2.622.004 4.746 2.133 4.742 4.757z"/><path fill="#fff" d="M40.813 7.897c-.003 2.624-2.134 4.747-4.757 4.743l-31.332-.047C2.1 12.59-.023 10.46-.02 7.836-.015 5.212 2.116 3.09 4.74 3.093l31.334.047c2.623.004 4.746 2.133 4.74 4.757z"/><circle fill="#D9D9D9" cx="20.027" cy="7.663" r="2.333"/></svg>