<svg xmlns="http://www.w3.org/2000/svg" width="150" height="150" viewBox="0 0 150 150"><path fill="#C3161C" d="M74.053 123.644C93.49 111.894 99.3 104.007 106.99 94.54c7.69-9.463 14.216-16.766 21.736-38.202 1.462-7.402-7.34-16.087-11.558-17.53 0 0-4.376-1.178-5.37-1.338-1.67-.268-2.082.066-4.042 2.856-4.16 5.912-7.432 17.12-8.3 21.26-.356 1.708.766 2.428.766 2.428s6.662 3.12 7.28 2.476c1.098.89 3.356 4.18 1.892 6.36l-11.39 14.394-11.75 14.096c-1.832 1.878-5.516.345-6.613-.55.04-.66-.754-2.29-.754-2.29L75.65 94.43s-.32-1.284-2.228-.446c-4.376 1.923-17.162 10.655-19.34 12.422-2.646 2.15-2.572 2.965-1.966 4.54.362.94 2.413 4.983 2.413 4.983 2.274 3.834 12.578 10.667 19.523 7.717z"/><path fill="#E84436" d="M71.23 121.857c19.437-11.75 25.25-19.635 32.936-29.104 7.69-9.463 14.217-16.766 21.734-38.2 1.464-7.403-4.515-14.302-8.732-15.744 0 0-4.376-1.18-5.37-1.34-1.67-.267-2.082.067-4.042 2.857-4.16 5.912-7.432 17.12-8.3 21.26-.356 1.708.766 2.428.766 2.428s6.662 3.12 7.28 2.476c1.098.892 3.356 4.182 1.892 6.36l-11.39 14.394-11.75 14.096c-1.832 1.878-5.516.345-6.613-.55.105-1.21-.754-2.463-.754-2.463l-2.97-3.895s-.857-1.188-2.494-.45c-4.357 1.966-17.162 10.655-19.34 12.422-2.646 2.15-2.572 2.965-1.966 4.54.362.94 2.413 4.983 2.413 4.983 2.274 3.834 9.755 8.88 16.7 5.93z"/><path stroke="#CDCCCB" stroke-width=".705" stroke-miterlimit="10" d="M118.392 39.356s-3.08 4.334-6.67 13.272c-3.586 8.938-4.22 13.863-4.22 13.863" fill="none"/><path stroke="#CDCCCB" stroke-width=".705" stroke-miterlimit="10" d="M55.314 117.013s3.61-3.902 11.623-9.248c8.01-5.343 12.704-6.975 12.704-6.975" fill="none"/><path fill="#36B149" d="M102.446 48.25c-7.815-6.7-15.89-8.194-22.286-7.883-5.763-6.463-14.15-10.535-23.488-10.535-17.383 0-31.472 14.09-31.472 31.472 0 17.38 14.09 31.47 31.472 31.47 17.38 0 31.47-14.09 31.47-31.47 0-3.675-.634-7.2-1.79-10.477 7.082-4.48 16.094-2.576 16.094-2.576z"/><ellipse fill="#ED9D97" cx="46.964" cy="60.614" rx="3.633" ry="3.545"/><ellipse fill="#ED9D97" cx="71.33" cy="60.614" rx="3.633" ry="3.545"/><ellipse fill="#F9D099" cx="59.146" cy="62.55" rx="13.414" ry="13.098"/><path fill="#E84436" d="M72.552 55.55c-1.2-3.064-3.036-5.822-5.37-8.102-4.314-4.214-13.367-6.814-19.952-6.814V55.55h25.322z"/><path fill="#fff" d="M45.69 41.155c0 2.203-1.83 3.987-4.09 3.987-2.257 0-4.085-1.784-4.085-3.987 0-2.207 1.828-3.994 4.086-3.994 2.26.002 4.09 1.788 4.09 3.995z"/><path fill="#fff" d="M74 55c0 1.03-.948 2-2 2H46c-1.053 0-2-.97-2-2v-5c0-1.03.947-2 2-2h26c1.052 0 2 .97 2 2v5z"/><path fill="#F9D099" d="M45.732 62.55H72.56v6.658H45.732z"/><path fill="#4D4D4D" d="M53.563 59.09c0 .463-.384.837-.855.837-.47 0-.852-.374-.852-.836 0-.457.38-.834.852-.834.47 0 .855.378.855.835z"/><path fill="#4D4D4D" d="M64.73 59.09c0 .463.38.837.855.837.47 0 .85-.374.85-.836 0-.457-.38-.834-.85-.834-.474 0-.856.378-.856.835z"/><path fill="#999" d="M53.563 59.09c0 .463-.384.837-.855.837-.47 0-.852-.374-.852-.836 0-.457.38-.834.852-.834.47 0 .855.378.855.835z"/><path fill="#999" d="M64.73 59.09c0 .463.38.837.855.837.47 0 .85-.374.85-.836 0-.457-.38-.834-.85-.834-.474 0-.856.378-.856.835z"/><path fill="#fff" d="M75.393 73.914C75.393 80.718 69.97 86 63 86c-17.044 0-24-17.198-24-24h24c6.97 0 12.393 5.11 12.393 11.914z"/><path fill="#4D4D4D" d="M61.73 65.385c0 1.386-1.154 2.51-2.573 2.51-1.416 0-2.57-1.124-2.57-2.51"/><path fill="#ED9D97" d="M62.77 61.596c0 1.592-1.62 2.887-3.624 2.887-2.002 0-3.625-1.295-3.625-2.887 0-1.597 1.624-2.887 3.626-2.887 2.003 0 3.625 1.29 3.625 2.886z"/></svg>