<svg id="Layer_1" xmlns="http://www.w3.org/2000/svg" viewBox="0 0 910 510"><style>.st2{fill:#f1e5da}.st4{fill:none;stroke:#797575;stroke-miterlimit:10}.st5{fill:#bbbdbf}.st6{fill:none}.st7{fill:#b3b3b3}.st8{fill:#8c8c8c}</style><path opacity=".1" fill="#230000" d="M906.7 52.7V36h-7.3V19h-11v6.9H31.1V19h-11v17h-7.3v16.7h7.3v411h-7.3v16.6h7.3V503h11v-6.4h857.3v6.4h11v-22.7h7.3v-16.6h-7.3v-411z"/><path fill="#e6bc80" d="M21.2 13.9h864.3v470.7H21.2z"/><circle class="st2" cx="453.6" cy="251.2" r="19.1"/><circle cx="452.6" cy="248.9" r="19.1" fill="#737373"/><path class="st4" d="M886.3 491V7"/><g><path class="st5" d="M450.6 241.6c-3.6 1.1-5.8 4.7-5.2 8.3l14.2-4.4c-1.6-3.2-5.4-5-9-3.9zM455 256c3.7-1.1 5.9-4.8 5.2-8.5l-14.3 4.4c1.6 3.4 5.4 5.3 9.1 4.1z"/></g><path class="st6" d="M879.2 363.4l.1-.4c-61.4-10.4-128.7-1.7-199.9 7.5 70.6-9.1 138.8-17.1 199.8-7.1zM351.5 156.3c-.1 0-.1 0 0 0-51.8 0-108.7-6.6-148.6-17.3-21-5.6-30.7-12.4-34.7-18.6 2.1 8.5 14.4 16.1 35.2 21.7 39.7 10.6 96.4 17.2 148 17.2 54.8 0 89.9-7.4 91.7-19.4v-.3c-11.8 15.4-72.1 16.7-91.6 16.7z"/><path class="st6" d="M278 78c-3.6-.2-7.4-.4-11.2-.4-46.5 0-94.5 18.4-98.7 37.5 2 8.6 14.2 16.3 35.3 21.9 39.7 10.6 96.4 17.2 148 17.2 52.4 0 86.8-6.8 91.2-17.8-.4-.9-.9-1.9-1.6-2.9-18.8-25-148-53.5-163-55.5zM584.2 464c-28.3 1.4-58.4.9-90.2.5-73.5-1-149.1-2.1-204.1 20.1h553.7c-43.9-17.9-165.7-25.2-259.4-20.6z"/><path class="st6" d="M266.8 75.6c3.8 0 7.7.1 11.4.4 15.2 2 145.3 30.9 164.5 56.3.2.2.3.4.5.7-.2-1.4-.9-2.9-2.1-4.5C422.2 103.5 293 75 278 73c-3.6-.2-7.4-.4-11.2-.4-46 0-93.4 18-98.5 36.8 10.7-18.1 54.5-33.8 98.5-33.8z"/><path class="st6" d="M512.5 56.6h-6.7c-77.9 0-143.7-15.1-187.3-42.8H21.2V41c50.1-.1 93.8-2.4 144.2-5 24.7-1.3 50.3-2.7 79.8-3.9 27-1.2 55.7 6.9 89 16.2C380 61 437.2 77 516.1 77c70.9 0 134.5-14.2 196-28 57.6-12.9 112-25 169-25v2c-56.7 0-111 12.1-168.5 25C651 64.8 587.3 79 516.1 79c-79.3 0-136.5-16-182.6-28.9-33.1-9.3-61.7-17.3-88.4-16.1-29.4 1.3-55 2.6-79.7 3.9-50.4 2.7-94.1 5-144.3 5v3c50.1-.1 93.8-2.4 144.2-5 24.7-1.3 50.3-2.7 79.8-3.9 27-1.2 55.7 6.9 89 16.2C380 66 437.2 82 516.1 82c70.9 0 134.5-14.2 196-28 57.6-12.9 112-25 169-25v2c-56.7 0-111 12.1-168.5 25C651 69.8 587.3 84 516.1 84c-79.3 0-136.5-16-182.6-28.9-33.1-9.3-61.7-17.3-88.4-16.1-29.4 1.3-55 2.6-79.7 3.9-50.4 2.7-94.1 5-144.3 5v87.3c50.4-.4 115.3 15.4 184.1 32.2 73.6 18 149.8 36.6 207.5 33.8 54.3-2.6 81.8-20.3 108.3-37.5 27.8-17.9 54-34.9 107.8-32.5 49.8 2.2 94.3 12.5 133.5 21.5 44.9 10.4 83.7 19.3 122.4 15.8l.2 2c-39 3.5-77.9-5.5-123-15.9-39.1-9-83.5-19.2-133.1-21.5-53.1-2.4-79.1 14.4-106.6 32.2-26.8 17.3-54.5 35.2-109.3 37.8-3.9.2-7.9.3-12 .3-56.3 0-127.3-17.3-196.1-34.1-68.6-16.8-133.5-32.6-183.6-32.2v3c50.4-.4 115.3 15.4 184.1 32.2 73.6 18 149.8 36.6 207.5 33.8 54.3-2.6 81.8-20.3 108.3-37.5 27.8-17.9 54-34.9 107.8-32.5 49.8 2.2 94.3 12.5 133.5 21.5 44.9 10.4 83.7 19.3 122.4 15.8l.2 2c-39 3.5-77.9-5.5-123-15.9-39.1-9-83.5-19.2-133.1-21.5-53.1-2.4-79.1 14.4-106.6 32.2-26.8 17.3-54.5 35.2-109.3 37.8-3.9.2-7.9.3-12 .3-56.3 0-127.3-17.3-196.1-34.1-68.6-16.8-133.5-32.6-183.6-32.2v21.3c58.2 4.8 123.9 30.3 187.5 54.9C283.2 247 360.1 276.8 427 275c65.3-1.7 103-37.2 136.3-68.4 31.4-29.5 58.5-54.9 101.2-48.2 20.6 3.2 45.2 8.6 71.1 14.2 52.9 11.5 112.9 24.5 148 20.5l.2 2c-35.4 4.1-95.6-9-148.6-20.5-25.9-5.6-50.4-11-71-14.2-41.8-6.5-68.6 18.6-99.5 47.7-33.5 31.5-71.5 67.2-137.6 69-1.9.1-3.9.1-5.8.1-65.9 0-140.7-29-213.1-57-63.7-24.4-129.2-49.7-187-54.6v3c58.2 4.8 123.9 30.3 187.5 54.9 74.4 28.8 151.3 58.6 218.2 56.8 65.3-1.7 103-37.2 136.3-68.4 31.4-29.5 58.5-54.9 101.2-48.2 20.6 3.2 45.2 8.6 71.1 14.2 52.9 11.5 112.9 24.5 148 20.5l.2 2c-35.4 4.1-95.6-9-148.6-20.5-25.9-5.6-50.4-11-71-14.2-41.8-6.5-68.6 18.6-99.5 47.7-33.5 31.5-71.5 67.2-137.6 69-1.9.1-3.9.1-5.8.1-65.9 0-140.7-29-213.1-57-63.6-24.7-129.1-50-186.9-54.9v100.2c63.3-7.6 143.5 1.8 221 10.9 72.5 8.5 141 16.5 190.8 10.3 73.4-9.2 119.8-47.7 157.1-78.7 26.8-22.3 48-39.9 69.2-36.3 29.3 5 58.1 16.4 85.9 27.4 44.2 17.5 90 35.6 137.8 27.6l.3 2c-48.3 8-94.3-10.1-138.8-27.7-27.7-11-56.4-22.3-85.5-27.3-20.3-3.5-41.2 13.9-67.6 35.8-35.5 29.5-84.1 69.9-158.1 79.2-12.5 1.6-26.1 2.2-40.6 2.2-43.8 0-96.1-6.1-150.7-12.5-77.6-9.1-157.7-18.4-220.8-10.8v3c63.3-7.6 143.5 1.8 221 10.9 72.5 8.5 141 16.5 190.8 10.3 73.4-9.2 119.8-47.7 157.1-78.7 26.8-22.3 48-39.9 69.2-36.3 29.3 5 58.1 16.4 85.9 27.4 44.2 17.5 90 35.6 137.8 27.6l.3 2C835 247 789 228.9 744.5 211.3c-27.7-11-56.4-22.3-85.5-27.3-20.3-3.5-41.2 13.9-67.6 35.8-35.5 29.5-84.1 69.9-158.1 79.2-12.5 1.6-26.1 2.2-40.6 2.2-43.8 0-96.1-6.1-150.7-12.5-77.6-9.1-157.7-18.4-220.8-10.8v48.6c38.8-13.2 104.7-21.2 182.2-22.1 78.8-.9 159.4 5.5 221 17.6 69.2 13.6 118-19.5 165.3-51.5 38.8-26.3 75.4-51.1 119.6-46.5 47.2 4.9 75.5 13.9 98.2 21.2 24.3 7.8 43.5 13.9 74.6 11.8l.1 2c-31.5 2.1-50.9-4.1-75.4-11.9-22.6-7.2-50.8-16.2-97.8-21.1-43.5-4.5-79.8 20.1-118.3 46.2-40 27.1-81.2 55-134.9 55-10.2 0-20.8-1-31.9-3.2-61.5-12.1-141.8-18.5-220.5-17.6-77.7.9-143.7 9-182.2 22.2v2.9c38.8-13.2 104.7-21.2 182.2-22.1 78.8-.9 159.4 5.5 221 17.6 69.2 13.6 118-19.5 165.3-51.5 38.8-26.3 75.4-51.1 119.6-46.5 47.2 4.9 75.5 13.9 98.2 21.2 24.3 7.8 43.5 13.9 74.6 11.8l.1 2c-31.5 2.1-50.9-4.1-75.4-11.9-22.6-7.2-50.8-16.2-97.8-21.1-43.5-4.5-79.8 20.1-118.3 46.2-40 27.1-81.2 55-134.9 55-10.2 0-20.8-1-31.9-3.2-61.5-12.1-141.8-18.5-220.5-17.6-77.7.9-143.7 9-182.2 22.2v82.8c188-47.2 267.3-58.2 426.1-40.5 81.3 9.1 158-.8 232.2-10.5 71.2-9.2 139.9-17.3 201.4-6.9l-.3 2c-61.1-10.4-129.7-2.3-200.8 6.9-74.3 9.6-151.1 19.6-232.7 10.5-158.6-17.7-237.7-6.7-425.9 40.5v2.9c188-47.2 267.3-58.2 426.1-40.5 81.3 9.1 158-.8 232.2-10.5 71.2-9.2 138.4-17.9 199.9-7.5l-.1.4c.5.1 1 .2 1.6.2l-.3 2c-61.1-10.4-129.7-2.3-200.8 6.9-74.3 9.6-151.1 19.6-232.7 10.5-158.6-17.7-237.7-6.7-425.9 40.5v42.3c40.2-20.7 92.5-37.9 147.7-48.6 58.8-11.4 115.7-14.6 164.4-9.3 70.6 7.7 126.6-.8 176-8.3 21.2-3.2 41.3-6.2 60.9-7.8 58-4.5 189.1-4 312.3 26l-.5 1.9c-123-30-253.8-30.4-311.7-26-19.5 1.5-39.5 4.5-60.7 7.7-49.5 7.5-105.7 16-176.5 8.3-95.9-10.4-226.7 14-311.9 58.1v2.7c40.2-20.7 92.5-37.9 147.7-48.6 58.8-11.4 115.7-14.6 164.4-9.3 70.6 7.7 126.6-.8 176-8.3 21.2-3.2 41.3-6.2 60.9-7.8 58-4.5 189.1-4 312.3 26l-.5 1.9c-123-30-253.8-30.4-311.7-26-19.5 1.5-39.5 4.5-60.7 7.7-49.5 7.5-105.7 16-176.5 8.3-95.9-10.4-226.7 14-311.9 58.1v11.5h120.1c30.3-24.6 83.1-42.2 149-49.6 63-7.1 132.6-4.6 196 7 61.1 11.2 133.5 7.5 203.5 3.9 74.1-3.8 144.1-7.3 193.6 7.1l-.6 1.9c-49.2-14.3-119-10.8-192.9-7-70.1 3.6-142.6 7.3-204-3.9-63.2-11.5-132.6-14-195.5-7-64.1 7.2-115.7 24-146 47.6h140.3c55.7-24.3 133.7-23.2 209.3-22.1 31.8.5 61.8.9 90-.5 97-4.7 224.1 3.3 264.5 22.6h36.9V13.9H739.1C673 40.2 590.6 55.8 512.5 56.6zm331.2 423c-44-17.9-165.8-25.1-259.5-20.6-28.3 1.4-58.4.9-90.2.5-73.5-1-149.1-2.1-204.1 20.1h-5.2c55.7-24.3 133.7-23.2 209.3-22.1 31.8.5 61.8.9 90-.5 97-4.7 224.1 3.3 264.5 22.6h-4.8zm39.2-29.6c-49.2-14.3-119-10.8-192.9-7-70.1 3.6-142.6 7.3-204-3.9-63.2-11.5-132.6-14-195.5-7-64.1 7.2-115.7 24-146 47.6h-3.2c30.3-24.6 83.1-42.2 149-49.6 63-7.1 132.6-4.6 196 7 61.1 11.2 133.5 7.5 203.5 3.9 74.1-3.8 144.1-7.3 193.6 7.1l-.5 1.9zm-148-127.5c-57.1-13.9-111.1-27.1-147.4-13.5-12.1 4.5-23.6 9.4-34.8 14.2-51.3 21.8-99.7 42.4-191.8 21.9-112.5-25.1-303.1.2-338.4 14l-.7-1.9c35.5-13.8 226.8-39.2 339.6-14 91.4 20.2 139.6-.2 190.6-21.9 11.2-4.8 22.7-9.7 34.8-14.2 36.9-13.8 91.2-.5 148.6 13.5 49.1 12 99.9 24.4 148.7 23.5v2c-49 .8-99.9-11.6-149.2-23.6zm0-5c-57.1-13.9-111.1-27.1-147.4-13.5-12.1 4.5-23.6 9.4-34.8 14.2-51.3 21.8-99.7 42.4-191.8 21.9-112.5-25.1-303.1.2-338.4 14l-.7-1.9c35.5-13.8 226.8-39.2 339.6-14 91.4 20.2 139.6-.2 190.6-21.9 11.2-4.8 22.7-9.7 34.8-14.2 36.9-13.8 91.2-.5 148.6 13.5 49.1 12 99.9 24.4 148.7 23.5v2c-49 .8-99.9-11.6-149.2-23.6zM21.5 88.7c50.5.7 99.2-13.4 142.1-25.9 34.9-10.2 67.9-19.7 95.9-19.4 26.8.3 58.2 12.2 94.6 26C403 87.9 458.4 108.9 522.2 110c50.8.9 101.6-15.8 155.4-33.5 64.3-21.2 130.8-43 203.3-36.5l-.2 2c-72.1-6.5-138.4 15.3-202.5 36.4C625.7 95.7 575.9 112 526.1 112h-4c-64.1-1.1-119.7-22.2-168.7-40.8-36.2-13.7-67.5-25.6-93.9-25.9h-1.3c-27.4 0-59.8 9.4-94.1 19.4-43.1 12.5-91.8 26.7-142.7 26l.1-2zm423.6 51.4c-2.9 19.6-72.4 21.1-93.7 21.1-51.8 0-108.7-6.6-148.6-17.3-32.4-8.7-38-20-36.9-28.1 0-.2.1-.5.1-.7-.3-1.5-.3-2.9-.1-4.3 2.7-20.7 51.7-40.3 100.8-40.3 3.8 0 7.7.1 11.4.4 15.2 2 145.3 30.9 164.5 56.3 2 2.7 2.8 5.3 2.5 7.8-.1.4-.2.9-.3 1.3.4 1.4.5 2.6.3 3.8zm81-23.1h-4c-64.1-1.1-119.7-22.2-168.7-40.8-36.2-13.7-67.5-25.6-93.9-25.9h-1.3c-27.4 0-59.8 9.4-94.1 19.4-43.1 12.5-91.8 26.7-142.7 26v-2c50.5.7 99.2-13.4 142.1-25.9 34.9-10.2 67.9-19.7 95.9-19.4 26.8.3 58.2 12.2 94.6 26 49 18.5 104.4 39.5 168.2 40.6 50.8.9 101.6-15.8 155.4-33.5 64.3-21.2 130.8-43 203.3-36.5l-.2 2c-72.1-6.5-138.4 15.3-202.5 36.4-52.5 17.3-102.3 33.6-152.1 33.6zm173.9-8.2c8.4-11.2 44.4-41.6 184.2-34.8l-.1 2c-141.5-6.8-175.5 24.1-182.8 34.5 12 11.8 91.7 30 181.8 26.5l.1 2c-7.9.3-15.7.5-23.4.5-80.7 0-146.8-16-159.6-27.3-.1.1-.1.2-.2.3-.2.3-.3.9.2 1.8 7.2 11.7 89.4 31.4 182.9 27.8l.1 2c-7.9.3-15.7.5-23.4.5-85.3 0-154.3-17.9-161.3-29.2-1-1.6-.7-3-.3-3.8.1-.3.3-.6.5-.9-.1-.1-.2-.2-.2-.4-1-1.6-.7-3-.3-3.8 4.1-7.6 32.5-44.9 185.9-37.5l-.1 2c-152.3-7.4-180 29.1-184.1 36.5 0 .3-.2.7.1 1.3z"/><path class="st6" d="M512.5 49.6c70.8-.8 145.2-13.7 207.6-35.7H627c-29 16.8-64.7 25.8-102.5 25.8-3.7 0-7.5-.1-11.2-.3-35.7-1.7-68.8-11.5-87-25.5H331c44.4 23.9 107.7 36.5 181.5 35.7z"/><path class="st6" d="M512.5 54.6c76-.8 156.1-15.6 221.2-40.7H726c-63.7 23.3-140.5 36.9-213.5 37.7h-6.7c-73.1 0-135.5-13.3-179-37.8h-4.6c44.7 27.3 111.5 41.7 190.3 40.8z"/><path class="st6" d="M623 13.9h-5.3c-27.2 13.5-59.3 20.8-93.1 20.8-3.7 0-7.5-.1-11.2-.3-31.3-1.5-60.6-9.2-79.6-20.5h-4.1c18.3 12.9 49.8 21.9 83.8 23.5 40.1 1.8 78.4-6.4 109.5-23.5z"/><path class="st6" d="M613.1 13.9H437.8c18.7 10.2 46.3 17.1 75.7 18.5 36 1.7 70.5-4.8 99.6-18.5z"/><path class="st2" d="M421 282.4c1.9 0 3.9 0 5.8-.1 66.1-1.7 104.1-37.5 137.6-69 31-29.1 57.7-54.3 99.5-47.7 20.6 3.2 45.1 8.5 71 14.2 53.1 11.5 113.2 24.6 148.6 20.5l-.2-2c-35.1 4-95.1-9-148-20.5-26-5.6-50.5-11-71.1-14.2-42.8-6.7-69.9 18.8-101.2 48.2-33.3 31.3-71 66.7-136.3 68.4-66.9 1.8-143.8-28-218.2-56.8-63.5-24.5-129.2-49.9-187.3-54.8v2c57.8 4.9 123.3 30.2 186.7 54.8 72.4 28 147.2 57 213.1 57z"/><path class="st2" d="M421 282.4c1.9 0 3.9 0 5.8-.1 66.1-1.7 104.1-37.5 137.6-69 31-29.1 57.7-54.3 99.5-47.7 20.6 3.2 45.1 8.5 71 14.2 53.1 11.5 113.2 24.6 148.6 20.5l-.2-2c-35.1 4-95.1-9-148-20.5-26-5.6-50.5-11-71.1-14.2-42.8-6.7-69.9 18.8-101.2 48.2-33.3 31.3-71 66.7-136.3 68.4-66.9 1.8-143.8-28-218.2-56.8-63.5-24.5-129.2-49.9-187.3-54.8v2c57.8 4.9 123.3 30.2 186.7 54.8 72.4 28 147.2 57 213.1 57zM19.1 46v2h2v-2h-2z"/><path class="st2" d="M19.1 46v2h2v-2h-2zM245.2 39c26.6-1.2 55.3 6.8 88.4 16.1C379.6 68 436.9 84 516.1 84c71.2 0 134.9-14.2 196.5-28 57.5-12.9 111.8-25 168.5-25v-2c-56.9 0-111.3 12.2-169 25-61.5 13.7-125.1 28-196 28-79 0-136.1-16-182-28.8-33.3-9.3-62-17.3-89-16.2-29.4 1.3-55 2.6-79.8 3.9-50.4 2.7-94 5-144.2 5v2c50.2-.1 93.8-2.4 144.3-5 24.8-1.3 50.4-2.6 79.8-3.9z"/><path class="st2" d="M245.2 39c26.6-1.2 55.3 6.8 88.4 16.1C379.6 68 436.9 84 516.1 84c71.2 0 134.9-14.2 196.5-28 57.5-12.9 111.8-25 168.5-25v-2c-56.9 0-111.3 12.2-169 25-61.5 13.7-125.1 28-196 28-79 0-136.1-16-182-28.8-33.3-9.3-62-17.3-89-16.2-29.4 1.3-55 2.6-79.8 3.9-50.4 2.7-94 5-144.2 5v2c50.2-.1 93.8-2.4 144.3-5 24.8-1.3 50.4-2.6 79.8-3.9z"/><path class="st2" d="M880.7 47l.2-2c-72.5-6.6-139 15.3-203.3 36.5C623.8 99.2 573 115.9 522.2 115c-63.8-1.1-119.2-22.1-168.1-40.7-36.4-13.8-67.8-25.7-94.6-26-28-.3-61 9.3-95.9 19.4-42.9 12.6-91.6 26.7-142.1 26v2c50.8.7 99.6-13.5 142.7-26 34.2-10 66.6-19.4 94.1-19.4h1.3c26.4.3 57.7 12.1 93.9 25.9 49 18.6 104.6 39.7 168.7 40.8h4c49.8 0 99.5-16.4 152.1-33.6 64-21.1 130.4-42.9 202.4-36.4z"/><path class="st2" d="M880.7 47l.2-2c-72.5-6.6-139 15.3-203.3 36.5C623.8 99.2 573 115.9 522.2 115c-63.8-1.1-119.2-22.1-168.1-40.7-36.4-13.8-67.8-25.7-94.6-26-28-.3-61 9.3-95.9 19.4-42.9 12.6-91.6 26.7-142.1 26v2c50.8.7 99.6-13.5 142.7-26 34.2-10 66.6-19.4 94.1-19.4h1.3c26.4.3 57.7 12.1 93.9 25.9 49 18.6 104.6 39.7 168.7 40.8h4c49.8 0 99.5-16.4 152.1-33.6 64-21.1 130.4-42.9 202.4-36.4zM18.8 140.3v2h2.3v-2h-2.3z"/><path class="st2" d="M18.8 140.3v2h2.3v-2h-2.3z"/><path class="st2" d="M400.9 208.6c4.1 0 8-.1 12-.3 54.8-2.6 82.5-20.5 109.3-37.8 27.5-17.8 53.5-34.5 106.6-32.2 49.7 2.2 94 12.4 133.1 21.5 45.1 10.4 84 19.4 123 15.9l-.2-2c-38.7 3.5-77.5-5.5-122.4-15.8-39.2-9-83.6-19.3-133.5-21.5-53.7-2.4-80 14.5-107.8 32.5-26.6 17.2-54.1 34.9-108.3 37.5-57.7 2.8-133.9-15.8-207.5-33.8-68.7-16.8-133.7-32.6-184.1-32.2v2c50.1-.4 115 15.4 183.6 32.2 68.9 16.7 139.9 34 196.2 34z"/><path class="st2" d="M400.9 208.6c4.1 0 8-.1 12-.3 54.8-2.6 82.5-20.5 109.3-37.8 27.5-17.8 53.5-34.5 106.6-32.2 49.7 2.2 94 12.4 133.1 21.5 45.1 10.4 84 19.4 123 15.9l-.2-2c-38.7 3.5-77.5-5.5-122.4-15.8-39.2-9-83.6-19.3-133.5-21.5-53.7-2.4-80 14.5-107.8 32.5-26.6 17.2-54.1 34.9-108.3 37.5-57.7 2.8-133.9-15.8-207.5-33.8-68.7-16.8-133.7-32.6-184.1-32.2v2c50.1-.4 115 15.4 183.6 32.2 68.9 16.7 139.9 34 196.2 34zM20 276l.2 2c.3 0 .6-.1.9-.1v-2c-.3 0-.7.1-1.1.1z"/><path class="st2" d="M20 276l.2 2c.3 0 .6-.1.9-.1v-2c-.3 0-.7.1-1.1.1zM242 288.7c54.6 6.4 106.8 12.5 150.7 12.5 14.5 0 28.1-.7 40.6-2.2 74-9.2 122.6-49.7 158.1-79.2 26.4-22 47.3-39.3 67.6-35.8 29.1 5 57.8 16.3 85.5 27.3C789 228.9 835 247 883.3 239l-.3-2c-47.8 8-93.5-10.1-137.8-27.6-27.8-11-56.6-22.4-85.9-27.4-21.3-3.6-42.4 14-69.2 36.3-37.3 31-83.7 69.6-157.1 78.7-49.8 6.2-118.3-1.8-190.8-10.3-77.6-9.1-157.8-18.4-221-10.9v2c63.1-7.5 143.2 1.9 220.8 10.9z"/><path class="st2" d="M242 288.7c54.6 6.4 106.8 12.5 150.7 12.5 14.5 0 28.1-.7 40.6-2.2 74-9.2 122.6-49.7 158.1-79.2 26.4-22 47.3-39.3 67.6-35.8 29.1 5 57.8 16.3 85.5 27.3C789 228.9 835 247 883.3 239l-.3-2c-47.8 8-93.5-10.1-137.8-27.6-27.8-11-56.6-22.4-85.9-27.4-21.3-3.6-42.4 14-69.2 36.3-37.3 31-83.7 69.6-157.1 78.7-49.8 6.2-118.3-1.8-190.8-10.3-77.6-9.1-157.8-18.4-221-10.9v2c63.1-7.5 143.2 1.9 220.8 10.9z"/><path class="st2" d="M424 329c11.1 2.2 21.7 3.2 31.9 3.2 53.7 0 94.9-27.9 134.9-55 38.5-26.1 74.8-50.7 118.3-46.2 47 4.8 75.2 13.8 97.8 21.1 24.5 7.8 43.8 14 75.4 11.9l-.1-2c-31.2 2-50.3-4.1-74.6-11.8-22.7-7.3-51-16.3-98.2-21.2-44.2-4.6-80.9 20.2-119.6 46.5-47.3 32-96.1 65.1-165.3 51.5-61.6-12.1-142.1-18.6-221-17.6-77.5.9-143.4 8.9-182.2 22.1v2.1c38.5-13.3 104.5-21.3 182.2-22.2 78.6-.9 159 5.5 220.5 17.6z"/><path class="st2" d="M424 329c11.1 2.2 21.7 3.2 31.9 3.2 53.7 0 94.9-27.9 134.9-55 38.5-26.1 74.8-50.7 118.3-46.2 47 4.8 75.2 13.8 97.8 21.1 24.5 7.8 43.8 14 75.4 11.9l-.1-2c-31.2 2-50.3-4.1-74.6-11.8-22.7-7.3-51-16.3-98.2-21.2-44.2-4.6-80.9 20.2-119.6 46.5-47.3 32-96.1 65.1-165.3 51.5-61.6-12.1-142.1-18.6-221-17.6-77.5.9-143.4 8.9-182.2 22.1v2.1c38.5-13.3 104.5-21.3 182.2-22.2 78.6-.9 159 5.5 220.5 17.6z"/><path class="st2" d="M735.4 320.5c-57.4-14-111.7-27.2-148.6-13.5-12.1 4.5-23.7 9.4-34.8 14.2-51 21.7-99.1 42.2-190.6 21.8-112.8-25.2-304.1.2-339.6 14l.7 1.9c35.3-13.7 226-39.1 338.4-14 92.1 20.6 140.5-.1 191.8-21.9 11.2-4.8 22.7-9.7 34.8-14.2 36.4-13.6 90.3-.4 147.4 13.5 49.2 12 100.2 24.4 149.2 23.5v-2c-48.8 1.1-99.6-11.3-148.7-23.3z"/><path class="st2" d="M735.4 320.5c-57.4-14-111.7-27.2-148.6-13.5-12.1 4.5-23.7 9.4-34.8 14.2-51 21.7-99.1 42.2-190.6 21.8-112.8-25.2-304.1.2-339.6 14l.7 1.9c35.3-13.7 226-39.1 338.4-14 92.1 20.6 140.5-.1 191.8-21.9 11.2-4.8 22.7-9.7 34.8-14.2 36.4-13.6 90.3-.4 147.4 13.5 49.2 12 100.2 24.4 149.2 23.5v-2c-48.8 1.1-99.6-11.3-148.7-23.3zM18.9 422l.5 1.9c.6-.2 1.2-.3 1.8-.4v-2.1c-.8.3-1.5.4-2.3.6z"/><path class="st2" d="M18.9 422l.5 1.9c.6-.2 1.2-.3 1.8-.4v-2.1c-.8.3-1.5.4-2.3.6z"/><path class="st2" d="M447 383c81.6 9.1 158.4-.8 232.7-10.5 71-9.2 138.1-17.9 199.3-7.5l.3-1.6c-61-10-129.2-2-199.8 7.1-74.2 9.6-150.9 19.5-232.2 10.5-158.8-17.8-238-6.7-426.1 40.5v2.1C209.3 376.3 288.4 365.3 447 383z"/><path class="st2" d="M447 383c81.6 9.1 158.4-.8 232.7-10.5 71-9.2 138.1-17.9 199.3-7.5l.3-1.6c-61-10-129.2-2-199.8 7.1-74.2 9.6-150.9 19.5-232.2 10.5-158.8-17.8-238-6.7-426.1 40.5v2.1C209.3 376.3 288.4 365.3 447 383z"/><path class="st2" d="M679.7 372.5c71-9.2 139.6-17.2 200.8-6.9l.3-2c-.5-.1-1-.2-1.6-.2l-.2 1.6c-61.1-10.4-128.2-1.7-199.3 7.5z"/><path class="st2" d="M679.7 372.5c71-9.2 139.6-17.2 200.8-6.9l.3-2c-.5-.1-1-.2-1.6-.2l-.2 1.6c-61.1-10.4-128.2-1.7-199.3 7.5zM18.7 472.1l.9 1.8c.5-.3 1-.5 1.6-.8v-2.3c-.9.5-1.7.9-2.5 1.3z"/><path class="st2" d="M18.7 472.1l.9 1.8c.5-.3 1-.5 1.6-.8v-2.3c-.9.5-1.7.9-2.5 1.3z"/><path class="st2" d="M333 415c70.8 7.7 127-.8 176.5-8.3 21.2-3.2 41.2-6.2 60.7-7.7 57.9-4.5 188.7-4 311.7 26l.5-1.9c-123.2-30-254.3-30.5-312.3-26-19.5 1.5-39.6 4.5-60.9 7.8-49.4 7.5-105.4 15.9-176 8.3-48.7-5.3-105.6-2.1-164.4 9.3-55.1 10.7-107.4 27.9-147.7 48.6v2.3c85.2-44.4 216-68.9 311.9-58.4z"/><path class="st2" d="M333 415c70.8 7.7 127-.8 176.5-8.3 21.2-3.2 41.2-6.2 60.7-7.7 57.9-4.5 188.7-4 311.7 26l.5-1.9c-123.2-30-254.3-30.5-312.3-26-19.5 1.5-39.6 4.5-60.9 7.8-49.4 7.5-105.4 15.9-176 8.3-48.7-5.3-105.6-2.1-164.4 9.3-55.1 10.7-107.4 27.9-147.7 48.6v2.3c85.2-44.4 216-68.9 311.9-58.4z"/><path class="st2" d="M486 444c61.4 11.2 133.9 7.5 204 3.9 73.9-3.8 143.7-7.3 192.9 7l.6-1.9c-49.5-14.4-119.5-10.9-193.6-7.1-70 3.6-142.4 7.2-203.5-3.9-63.4-11.6-133-14.1-196-7-65.9 7.4-118.7 25-149 49.6h3.2c30.3-23.6 81.9-40.4 146-47.6 62.7-7 132.1-4.6 195.4 7z"/><path class="st2" d="M486 444c61.4 11.2 133.9 7.5 204 3.9 73.9-3.8 143.7-7.3 192.9 7l.6-1.9c-49.5-14.4-119.5-10.9-193.6-7.1-70 3.6-142.4 7.2-203.5-3.9-63.4-11.6-133-14.1-196-7-65.9 7.4-118.7 25-149 49.6h3.2c30.3-23.6 81.9-40.4 146-47.6 62.7-7 132.1-4.6 195.4 7z"/><path class="st2" d="M584.1 462c-28.3 1.4-58.3.9-90 .5-75.6-1.1-153.6-2.2-209.3 22.1h5.2c55-22.2 130.6-21.1 204.1-20.1 31.8.5 61.8.9 90.2-.5 93.7-4.6 215.5 2.7 259.5 20.6h5c-40.6-19.3-167.7-27.3-264.7-22.6z"/><path class="st2" d="M584.1 462c-28.3 1.4-58.3.9-90 .5-75.6-1.1-153.6-2.2-209.3 22.1h5.2c55-22.2 130.6-21.1 204.1-20.1 31.8.5 61.8.9 90.2-.5 93.7-4.6 215.5 2.7 259.5 20.6h5c-40.6-19.3-167.7-27.3-264.7-22.6zM512.5 56.6c78.1-.9 160.5-16.4 226.6-42.7h-5.5c-65 25.1-145.1 39.9-221.2 40.7-78.8.9-145.6-13.5-190.2-40.7h-3.8C362 41.6 427.8 56.7 505.7 56.7c2.3 0 4.6-.1 6.8-.1z"/><path class="st2" d="M512.5 56.6c78.1-.9 160.5-16.4 226.6-42.7h-5.5c-65 25.1-145.1 39.9-221.2 40.7-78.8.9-145.6-13.5-190.2-40.7h-3.8C362 41.6 427.8 56.7 505.7 56.7c2.3 0 4.6-.1 6.8-.1z"/><path class="st2" d="M524.6 39.6c37.8 0 73.4-9 102.5-25.8H623c-31 17.1-69.3 25.4-109.5 23.5-33.9-1.6-65.5-10.6-83.8-23.5h-3.4c18.2 14 51.4 23.8 87 25.5 3.8.2 7.5.3 11.3.3z"/><path class="st2" d="M524.6 39.6c37.8 0 73.4-9 102.5-25.8H623c-31 17.1-69.3 25.4-109.5 23.5-33.9-1.6-65.5-10.6-83.8-23.5h-3.4c18.2 14 51.4 23.8 87 25.5 3.8.2 7.5.3 11.3.3zM168.2 115.1c4.1-19.1 52.2-37.5 98.7-37.5 3.8 0 7.6.1 11.2.4 15 2 144.2 30.5 163.1 55.5.7 1 1.3 1.9 1.6 2.9.2-.5.4-1 .5-1.6.1-.6.1-1.2 0-1.8-.2-.2-.3-.4-.5-.7C423.5 106.9 293.4 78 278.2 76c-3.7-.2-7.6-.4-11.4-.4-44 0-87.8 15.7-98.5 33.8-.2.6-.3 1.1-.3 1.7-.2 1.4-.1 2.7.2 4z"/><path class="st2" d="M168.2 115.1c4.1-19.1 52.2-37.5 98.7-37.5 3.8 0 7.6.1 11.2.4 15 2 144.2 30.5 163.1 55.5.7 1 1.3 1.9 1.6 2.9.2-.5.4-1 .5-1.6.1-.6.1-1.2 0-1.8-.2-.2-.3-.4-.5-.7C423.5 106.9 293.4 78 278.2 76c-3.7-.2-7.6-.4-11.4-.4-44 0-87.8 15.7-98.5 33.8-.2.6-.3 1.1-.3 1.7-.2 1.4-.1 2.7.2 4z"/><path class="st2" d="M443.2 139.9c-1.8 12-36.9 19.4-91.7 19.4-51.6 0-108.3-6.6-148-17.2-20.8-5.6-33.1-13.2-35.2-21.7-1.1-1.8-1.8-3.5-2.1-5.2 0 .2-.1.5-.1.7-1.1 8 4.5 19.4 36.9 28.1 39.9 10.7 96.8 17.3 148.6 17.3 21.3 0 90.8-1.5 93.7-21.1.2-1.2.1-2.5-.3-3.7-.3 1.1-.9 2.1-1.6 3.1-.2 0-.2.2-.2.3z"/><path class="st2" d="M443.2 139.9c-1.8 12-36.9 19.4-91.7 19.4-51.6 0-108.3-6.6-148-17.2-20.8-5.6-33.1-13.2-35.2-21.7-1.1-1.8-1.8-3.5-2.1-5.2 0 .2-.1.5-.1.7-1.1 8 4.5 19.4 36.9 28.1 39.9 10.7 96.8 17.3 148.6 17.3 21.3 0 90.8-1.5 93.7-21.1.2-1.2.1-2.5-.3-3.7-.3 1.1-.9 2.1-1.6 3.1-.2 0-.2.2-.2.3zM701.3 110.5c7.3-10.3 41.4-41.3 182.8-34.5l.1-2C744.4 67.3 708.5 97.6 700 108.8c.1.1.1.3.2.4.3.4.6.9 1.1 1.3z"/><path class="st2" d="M701.3 110.5c7.3-10.3 41.4-41.3 182.8-34.5l.1-2C744.4 67.3 708.5 97.6 700 108.8c.1.1.1.3.2.4.3.4.6.9 1.1 1.3zM698.8 110.6c-.2.3-.4.6-.5.9-.4.8-.8 2.1.3 3.8 7 11.3 76 29.2 161.3 29.2 7.7 0 15.5-.1 23.4-.5l-.1-2c-93.4 3.6-175.6-16.1-182.9-27.8-.6-.9-.4-1.4-.2-1.8.1-.1.1-.2.2-.3-.7-.5-1.2-1-1.5-1.5z"/><path class="st2" d="M698.8 110.6c-.2.3-.4.6-.5.9-.4.8-.8 2.1.3 3.8 7 11.3 76 29.2 161.3 29.2 7.7 0 15.5-.1 23.4-.5l-.1-2c-93.4 3.6-175.6-16.1-182.9-27.8-.6-.9-.4-1.4-.2-1.8.1-.1.1-.2.2-.3-.7-.5-1.2-1-1.5-1.5zM421 277.4c1.9 0 3.9 0 5.8-.1 66.1-1.7 104.1-37.5 137.6-69 31-29.1 57.7-54.3 99.5-47.7 20.6 3.2 45.1 8.5 71 14.2 53.1 11.5 113.2 24.6 148.6 20.5l-.2-2c-35.1 4-95.1-9-148-20.5-26-5.6-50.5-11-71.1-14.2-42.8-6.7-69.9 18.8-101.2 48.2-33.3 31.3-71 66.7-136.3 68.4-66.9 1.8-143.8-28-218.2-56.8-63.5-24.5-129.2-49.9-187.3-54.8v2c57.8 4.9 123.3 30.2 186.7 54.8 72.4 28 147.2 57 213.1 57zM19.1 41v2h2v-2h-2zM245.2 34c26.6-1.2 55.3 6.8 88.4 16.1C379.6 63 436.9 79 516.1 79c71.2 0 134.9-14.2 196.5-28 57.5-12.9 111.8-25 168.5-25v-2c-56.9 0-111.3 12.2-169 25-61.5 13.7-125.1 28-196 28-79 0-136.1-16-182-28.8-33.3-9.3-62-17.3-89-16.2-29.4 1.3-55 2.6-79.8 3.9-50.4 2.7-94 5-144.2 5v2c50.2-.1 93.8-2.4 144.3-5 24.8-1.3 50.4-2.6 79.8-3.9z"/><path class="st2" d="M164.1 64.7c34.2-10 66.6-19.4 94.1-19.4h1.3c26.4.3 57.7 12.1 93.9 25.9 49 18.6 104.6 39.7 168.7 40.8h4c49.8 0 99.5-16.4 152.1-33.6C742.3 57.3 808.7 35.5 880.7 42l.2-2c-72.5-6.6-139 15.3-203.3 36.5C623.8 94.2 573 110.9 522.2 110c-63.8-1.1-119.2-22.1-168.1-40.7-36.4-13.8-67.8-25.7-94.6-26-28-.3-61 9.3-95.9 19.4-42.9 12.6-91.6 26.7-142.1 26v2c50.8.7 99.6-13.5 142.6-26zM18.8 135.3v2h2.3v-2h-2.3z"/><path class="st2" d="M400.9 203.6c4.1 0 8-.1 12-.3 54.8-2.6 82.5-20.5 109.3-37.8 27.5-17.8 53.5-34.5 106.6-32.2 49.7 2.2 94 12.4 133.1 21.5 45.1 10.4 84 19.4 123 15.9l-.2-2c-38.7 3.5-77.5-5.5-122.4-15.8-39.2-9-83.6-19.3-133.5-21.5-53.7-2.4-80 14.5-107.8 32.5-26.6 17.2-54.1 34.9-108.3 37.5-57.7 2.8-133.9-15.8-207.5-33.8-68.7-16.8-133.7-32.6-184.1-32.2v2c50.1-.4 115 15.4 183.6 32.2 68.9 16.7 139.9 34 196.2 34zM20 271l.2 2c.3 0 .6-.1.9-.1v-2c-.3 0-.7.1-1.1.1z"/><path class="st2" d="M242 283.7c54.6 6.4 106.8 12.5 150.7 12.5 14.5 0 28.1-.7 40.6-2.2 74-9.2 122.6-49.7 158.1-79.2 26.4-22 47.3-39.3 67.6-35.8 29.1 5 57.8 16.3 85.5 27.3C789 223.9 835 242 883.3 234l-.3-2c-47.8 8-93.5-10.1-137.8-27.6-27.8-11-56.6-22.4-85.9-27.4-21.3-3.6-42.4 14-69.2 36.3-37.3 31-83.7 69.6-157.1 78.7-49.8 6.2-118.3-1.8-190.8-10.3-77.6-9.1-157.8-18.4-221-10.9v2c63.1-7.5 143.2 1.9 220.8 10.9z"/><path class="st2" d="M424 324c11.1 2.2 21.7 3.2 31.9 3.2 53.7 0 94.9-27.9 134.9-55 38.5-26.1 74.8-50.7 118.3-46.2 47 4.8 75.2 13.8 97.8 21.1 24.5 7.8 43.8 14 75.4 11.9l-.1-2c-31.2 2-50.3-4.1-74.6-11.8-22.7-7.3-51-16.3-98.2-21.2-44.2-4.6-80.9 20.2-119.6 46.5-47.3 32-96.1 65.1-165.3 51.5-61.6-12.1-142.1-18.6-221-17.6-77.5.9-143.4 8.9-182.2 22.1v2.1c38.5-13.3 104.5-21.3 182.2-22.2 78.6-.9 159 5.5 220.5 17.6z"/><path class="st2" d="M735.4 315.5c-57.4-14-111.7-27.2-148.6-13.5-12.1 4.5-23.7 9.4-34.8 14.2-51 21.7-99.1 42.2-190.6 21.8-112.8-25.2-304.1.2-339.6 14l.7 1.9c35.3-13.7 226-39.1 338.4-14 92.1 20.6 140.5-.1 191.8-21.9 11.2-4.8 22.7-9.7 34.8-14.2 36.4-13.6 90.3-.4 147.4 13.5 49.2 12 100.2 24.4 149.2 23.5v-2c-48.8 1.1-99.6-11.3-148.7-23.3zM18.9 417l.5 1.9c.6-.2 1.2-.3 1.8-.4v-2.1c-.8.3-1.5.4-2.3.6z"/><path class="st2" d="M447 378c81.6 9.1 158.4-.8 232.7-10.5 71-9.2 139.6-17.2 200.8-6.9l.3-2c-61.4-10.4-130.2-2.3-201.4 6.9-74.2 9.6-150.9 19.5-232.2 10.5-158.8-17.8-238-6.7-426.1 40.5v2.1C209.3 371.3 288.4 360.3 447 378zM18.7 467.1l.9 1.8c.5-.3 1-.5 1.6-.8v-2.3c-.9.5-1.7.9-2.5 1.3z"/><path class="st2" d="M333 410c70.8 7.7 127-.8 176.5-8.3 21.2-3.2 41.2-6.2 60.7-7.7 57.9-4.5 188.7-4 311.7 26l.5-1.9c-123.2-30-254.3-30.5-312.3-26-19.5 1.5-39.6 4.5-60.9 7.8-49.4 7.5-105.4 15.9-176 8.3-48.7-5.3-105.6-2.1-164.4 9.3-55.1 10.7-107.4 27.9-147.7 48.6v2.3c85.2-44.4 216-68.9 311.9-58.4z"/><path class="st2" d="M689.9 440.9c-70 3.6-142.4 7.2-203.5-3.9-63.4-11.6-133-14.1-196-7-65.9 7.4-118.7 25-149 49.6h3.2c30.3-23.6 81.9-40.4 146-47.6 62.8-7 132.2-4.6 195.5 7 61.4 11.2 133.9 7.5 204 3.9 73.9-3.8 143.7-7.3 192.9 7l.6-1.9c-49.7-14.4-119.7-10.8-193.7-7.1z"/><path class="st2" d="M584.1 457c-28.3 1.4-58.3.9-90 .5-75.6-1.1-153.6-2.2-209.3 22.1h5.2c55-22.2 130.6-21.1 204.1-20.1 31.8.5 61.8.9 90.2-.5 93.7-4.6 215.5 2.7 259.5 20.6h5c-40.6-19.3-167.7-27.3-264.7-22.6zM512.5 51.6c73-.8 149.8-14.5 213.5-37.7h-5.9c-62.4 22.1-136.8 35-207.6 35.7-73.8.8-137.1-11.8-181.5-35.7h-4.2c43.5 24.5 105.9 37.8 179 37.8 2.2 0 4.5-.1 6.7-.1z"/><path class="st2" d="M524.6 34.6c33.8 0 65.9-7.2 93.1-20.8h-4.5c-29.1 13.7-63.6 20.2-99.7 18.5-29.4-1.4-56.9-8.3-75.7-18.5h-4c19 11.3 48.4 19 79.6 20.5 3.7.2 7.4.3 11.2.3zM351.5 154.3s-.1 0 0 0c-51.6 0-108.3-6.6-148.1-17.2-21-5.6-33.3-13.3-35.3-21.9-.1.4-.1.7-.2 1.1-.2 1.4-.1 2.8.3 4.2 4 6.2 13.7 13 34.7 18.6 39.9 10.7 96.8 17.3 148.6 17.3 19.5 0 79.9-1.3 91.7-16.7.1-1-.1-2.1-.5-3.1-4.5 10.9-38.9 17.7-91.2 17.7z"/><path class="st2" d="M442.7 127.3C423.5 101.9 293.4 73 278.2 71c-3.7-.2-7.6-.4-11.4-.4-49.1 0-98.1 19.6-100.8 40.3-.2 1.3-.2 2.8.1 4.3.4-1.9 1.1-3.8 2.2-5.7 5.1-18.8 52.6-36.8 98.5-36.8 3.8 0 7.6.1 11.2.4 15 2 144.2 30.5 163.1 55.5 1.2 1.5 1.8 3 2.1 4.5.8 1.2 1.4 2.3 1.7 3.4.1-.4.2-.8.3-1.3.3-2.6-.5-5.2-2.5-7.9z"/><path class="st2" d="M168 116.2c0-.4.1-.7.2-1.1-.3-1.3-.4-2.6-.2-3.9.1-.6.2-1.1.3-1.7-1.1 1.9-1.9 3.8-2.2 5.7.3 1.7 1 3.4 2.1 5.2-.3-1.4-.4-2.8-.2-4.2z"/><path class="st2" d="M168 116.2c0-.4.1-.7.2-1.1-.3-1.3-.4-2.6-.2-3.9.1-.6.2-1.1.3-1.7-1.1 1.9-1.9 3.8-2.2 5.7.3 1.7 1 3.4 2.1 5.2-.3-1.4-.4-2.8-.2-4.2z"/><path class="st2" d="M168 116.2c0-.4.1-.7.2-1.1-.3-1.3-.4-2.6-.2-3.9.1-.6.2-1.1.3-1.7-1.1 1.9-1.9 3.8-2.2 5.7.3 1.7 1 3.4 2.1 5.2-.3-1.4-.4-2.8-.2-4.2zM443.2 134.9c-.1.5-.2 1-.5 1.6.4 1.1.6 2.1.5 3.1.8-1 1.3-2 1.6-3.1-.3-1.1-.9-2.3-1.7-3.4.1.5.1 1.2.1 1.8z"/><path class="st2" d="M443.2 134.9c-.1.5-.2 1-.5 1.6.4 1.1.6 2.1.5 3.1.8-1 1.3-2 1.6-3.1-.3-1.1-.9-2.3-1.7-3.4.1.5.1 1.2.1 1.8z"/><path class="st2" d="M443.2 134.9c-.1.5-.2 1-.5 1.6.4 1.1.6 2.1.5 3.1.8-1 1.3-2 1.6-3.1-.3-1.1-.9-2.3-1.7-3.4.1.5.1 1.2.1 1.8zM884.1 71l.1-2c-153.4-7.4-181.8 30-185.9 37.5-.4.8-.8 2.1.3 3.8.1.1.2.2.2.4.3-.5.7-1.1 1.2-1.8-.3-.7-.2-1.1 0-1.4 4.1-7.4 31.8-43.9 184.1-36.5zM859.8 139.4c7.7 0 15.5-.1 23.4-.5l-.1-2c-90.2 3.5-169.9-14.8-181.8-26.5-.5.6-.8 1.2-1.1 1.7 12.8 11.3 78.9 27.4 159.6 27.3z"/><path class="st2" d="M700.2 112.2c.3-.5.6-1 1.1-1.7-.4-.4-.8-.8-1-1.3-.1-.1-.2-.3-.2-.4-.5.7-.9 1.3-1.2 1.8.2.5.7 1 1.3 1.6z"/><path class="st2" d="M700.2 112.2c.3-.5.6-1 1.1-1.7-.4-.4-.8-.8-1-1.3-.1-.1-.2-.3-.2-.4-.5.7-.9 1.3-1.2 1.8.2.5.7 1 1.3 1.6z"/><path class="st2" d="M700.2 112.2c.3-.5.6-1 1.1-1.7-.4-.4-.8-.8-1-1.3-.1-.1-.2-.3-.2-.4-.5.7-.9 1.3-1.2 1.8.2.5.7 1 1.3 1.6z"/><path class="st7" d="M4.8 24h10v16.7h-10zM4.8 451.7h10v16.7h-10z"/><path class="st8" d="M12.1 7h11v484h-11z"/><path class="st4" d="M17.6 491V7M886.3 491V7"/><g><path class="st7" d="M888.7 24h10v16.7h-10zM888.7 451.7h10v16.7h-10z"/><path class="st8" d="M880.4 7h11v484h-11z"/></g><path class="st2" d="M848.6 479.6c2.2.8 6.1 3 8 5h-4c-3.1-2.5-6.4-4-9-5h5zM284.8 479.6c-1.3.5-7.4 3.5-9.9 5h5.2c2-1.3 7-3.9 9.8-5h-5.1zM141.3 479.6c-1.4 1.2-4.2 3.8-5.3 5h3.1s2.9-3.1 5.4-5h-3.2z"/></svg>