<svg xmlns="http://www.w3.org/2000/svg" xmlns:xlink="http://www.w3.org/1999/xlink" viewBox="0 0 150 150"><g><circle cx="75" cy="75" r="54.6" fill="#f2f9fd"/><g><defs><circle id="a" cx="75" cy="75" r="54.6"/></defs><clipPath id="b"><use xlink:href="#a" overflow="visible"/></clipPath><g clip-path="url(#b)"><path d="M25.6 91.6c.1.4.5.6.9.5.4-.1.8-.5.7-.9C25.2 77 29.5 62.7 39 52c9.4-10.4 23.6-16.6 37.5-15.7 14.2 1.2 26.5 10.2 31.9 23.3 2.6 6.4 3.7 13.5 2 20.2-1.6 6.7-5.4 12.6-10.9 16.8-5.4 4.3-12.1 6.5-18.9 6.3-6.8-.5-13.1-3.8-17.3-9.2-4-5.4-6-12.6-4-19.1 2-6.6 7.4-11.6 14.1-13 3.3-.8 6.7-.4 9.7 1 3 1.5 5.5 3.9 7 6.9 1.5 3 1.9 6.4.9 9.6-1 3.2-3.3 5.8-6.3 7.2-3 1.5-6.5 1.4-9.4-.3-2.8-1.7-4.5-4.8-4.5-8.1.2-3.3 2.6-6 5.8-6.7.1 0 .2 0 .3-.1 3.1-.5 6.1 1.6 6.6 4.8 0 .5.4.8.9.8s.8-.4.8-.9v-.2c0-2.2-.9-4.4-2.5-5.9-1.8-1.7-4.3-2.6-6.8-2.4-5 .2-9.8 4.4-10.8 10.1-.8 5.7 1.6 11.4 6.3 14.7 2.4 1.8 5.2 2.9 8.2 3.2 2.9.3 5.8 0 8.6-1 5.6-2.1 10.1-6.5 12.2-12.2 1.1-2.9 1.6-6 1.5-9.1-.1-2.9-.8-5.8-1.9-8.5-2.3-5.6-6.4-10.2-11.7-13-5.4-2.9-11.6-3.9-17.6-2.9-11.7 2-21.6 10.3-25.3 21.7-1.9 5.6-2.3 11.7-1.1 17.5C47.5 105 62 117.9 79.6 119c2.8.2 5.7.1 8.5-.2 2.6-.4 5.2-1 7.7-1.8 5-1.6 9.8-4.1 14-7.3 8.4-6.6 14.2-15.9 16.4-26.3 1.2-5.1 1.4-10.4.7-15.7-.6-4.9-1.9-9.7-4-14.2-8.1-17.9-26.3-30.4-45.3-30.4-4.6-.1-9.2.4-13.7 1.6-2.1.5-4.2 1.2-6.3 2-2.1.7-4 1.6-5.9 2.7-7.6 4-14.1 9.7-19.2 16.6-9.6 13.7-12.3 31.2-6.9 45.3v.3z" fill="#00abe9"/></g></g><path d="M120 44.5c17 24.7 10.7 58.5-14 75.6s-58.5 10.7-75.6-14c18.7 16.9 46.5 18.7 67.2 4.5 24.7-17 31-50.8 14-75.6 3.2 2.8 6 6 8.4 9.5z" opacity=".2"/></g></svg>