<svg xmlns="http://www.w3.org/2000/svg" xmlns:xlink="http://www.w3.org/1999/xlink" width="127" height="197" viewBox="0 0 127 197"><path fill="#914295" d="M30.84 117.368s-12.748-11.737-19.314-14.864c0 0 5.574 9.78 1.822 14.16l17.493.704z"/><path fill="#FDE08C" d="M29.805 125.498a8.758 8.758 0 1 1-8.757-8.756 8.756 8.756 0 0 1 8.755 8.756"/><path fill="#58595B" d="M25.107 117.742a8.756 8.756 0 0 0-10.768 13.38c8.31-2.226 10.296-9.743 10.767-13.38"/><path fill="#FDE08C" d="M23.54 127.78l-4.634-6.53s-1.67 10.22 3.962 8.967l.672-2.436z"/><path fill="#fff" d="M31.054 119.276c0 .644-.52 1.165-1.167 1.165H12.485c-.643 0-1.167-.52-1.167-1.164v-2.14c0-.643.524-1.166 1.167-1.166h17.402c.646 0 1.167.523 1.167 1.166v2.14z"/><path fill="#58595B" d="M28.017 124.248a1.565 1.565 0 0 1-3.129.001 1.565 1.565 0 0 1 3.129 0"/><path fill="#914295" d="M29.388 150.855c0 3.852-3.922 6.975-8.758 6.975-4.835 0-8.755-3.123-8.755-6.975v-9.626c0-3.853 3.92-6.975 8.755-6.975 4.836 0 8.758 3.122 8.758 6.974v9.625z"/><path fill="#58595B" d="M11.875 150.73h17.513v4.376H11.875z"/><path fill="#FFD600" d="M28.663 150.31h1.23v5.005h-1.23z"/><path fill="#FDE08C" d="M28.536 125.066l8.24 2.383c.894 0 .894 1.29-.396 1.29h-9.83l1.986-3.674z"/><path fill="#949090" d="M3.75 148.5h3.5v6h-3.5zm117 0h3.5v6h-3.5z"/><path fill="#949090" d="M0 154.25h127v5.084H0z"/><g opacity=".1"><defs><path id="a" d="M50.006 7.338h61.145v189.61H50.007z"/></defs><clipPath id="b"><use xlink:href="#a" overflow="visible"/></clipPath><path clip-path="url(#b)" fill="#230000" d="M110.935 196.948L103 189.012V7.334H58V188.74l-8.21 8.208z"/></g><path fill="#BBBDBF" d="M110.935 189.615L103 181.68V0H58v181.406l-8.21 8.21z"/><path fill="#58595B" d="M57.917 160.693c0 4.758-3.857 8.614-8.615 8.614s-8.615-3.856-8.615-8.614c0-4.76 3.857-8.615 8.615-8.615s8.615 3.857 8.615 8.615"/><path fill="#949090" d="M52.075 160.693a2.863 2.863 0 1 1-5.724-.002 2.863 2.863 0 0 1 5.723.002"/><path fill="#58595B" d="M120.417 160.693c0 4.758-3.857 8.614-8.615 8.614s-8.615-3.856-8.615-8.614c0-4.76 3.857-8.615 8.615-8.615s8.615 3.857 8.615 8.615"/><path fill="#949090" d="M114.575 160.693a2.863 2.863 0 1 1-5.724-.002 2.863 2.863 0 0 1 5.723.002M55.932 137.45h49.293v7.593H55.932z"/></svg>