<svg xmlns="http://www.w3.org/2000/svg" xmlns:xlink="http://www.w3.org/1999/xlink" width="127" height="197" viewBox="0 0 127 197"><style>.st0{fill:#949090}.st4{fill:#58595b}.st5{fill:#9e3494}.st6{fill:#e0bb95}.st7{fill:#332e2e}.st9{fill:#f27455}.st10{fill:#fff}</style><path class="st0" d="M3.8 148.5h3.5v6H3.8v-6zm117 0h3.5v6h-3.5v-6z"/><path class="st0" d="M0 154.2h127v5.1H0v-5.1z"/><g opacity=".1"><g><g><g><g><defs><path id="SVGID_1_" d="M50 7.3h61.1v189.6H50z"/></defs><clipPath id="SVGID_2_"><use xlink:href="#SVGID_1_" overflow="visible"/></clipPath><path d="M110.9 196.9L103 189V7.3H58v181.4l-8.2 8.2h61.1z" clip-path="url(#SVGID_2_)" fill="#230000"/></g></g></g></g></g><path d="M110.9 189.6l-7.9-7.9V0H58v181.4l-8.2 8.2h61.1z" fill="#b3b3b3"/><path class="st4" d="M57.9 160.7c0 4.8-3.9 8.6-8.6 8.6s-8.6-3.9-8.6-8.6c0-4.8 3.9-8.6 8.6-8.6s8.6 3.8 8.6 8.6"/><path class="st0" d="M52.1 160.7c0 1.6-1.2 2.9-2.8 2.9s-2.9-1.2-2.9-2.8v-.2c.1-1.6 1.4-2.8 3-2.8 1.4.2 2.6 1.4 2.7 2.9"/><path class="st4" d="M120.4 160.7c0 4.8-3.9 8.6-8.6 8.6s-8.6-3.9-8.6-8.6c0-4.8 3.9-8.6 8.6-8.6s8.6 3.8 8.6 8.6"/><path class="st5" d="M25.4 145.9c0-2.9 2.9-3.8 2.9-7.6 0-3.6-3-6.9-7.7-6.9s-7.7 3.3-7.7 6.9c0 3.8 2.9 4.7 2.9 7.6 0 2.7-3.1 5-4.8 8.4h19.1c-1.6-3.4-4.7-5.7-4.7-8.4z"/><path class="st6" d="M28.5 119.7l6.8 2c.7 0 .7 1.1-.3 1.1h-8.1l1.6-3.1z"/><path class="st7" d="M15.7 144.9c.1.3.1.6.1 1 0 1.1-.5 2.2-1.2 3.2h12c-.7-1.1-1.2-2.1-1.2-3.2 0-.4 0-.7.1-1h-9.8z"/><g><g><g><defs><path id="SVGID_3_" d="M24 144.9h2.7v4.2H24z"/></defs><clipPath id="SVGID_4_"><use xlink:href="#SVGID_3_" overflow="visible"/></clipPath><path d="M15.7 144.9c.1.3.1.6.1 1 0 1.1-.5 2.2-1.2 3.2h12c-.7-1.1-1.2-2.1-1.2-3.2 0-.4 0-.7.1-1h-9.8z" clip-path="url(#SVGID_4_)" fill="#f9ce1d"/></g></g></g><circle class="st6" cx="20.7" cy="123" r="8.5"/><path class="st7" d="M25.8 120.5c0 .9-.8 1.7-1.7 1.7-.9 0-1.7-.8-1.7-1.7 0-.9.8-1.7 1.7-1.7s1.7.8 1.7 1.7z"/><circle class="st9" cx="21.3" cy="116.3" r="2.1"/><path class="st9" d="M20.6 122.1c.6-2.7.1-5.4-1.1-7.7-3.5.4-6.5 3-7.3 6.6-.7 3.3.6 6.5 3.1 8.5 2.6-1.5 4.6-4.1 5.3-7.4z"/><path class="st5" d="M11.8 121.3l-3.6-13.4 15.3 4.2-11.7 9.2z"/><g><path class="st10" d="M12.1 123.5c-.7.1-1.4-.2-1.8-.7-.7-.9-.5-2.1.3-2.8l12-9.5c.9-.7 2.1-.5 2.8.3.7.9.5 2.1-.3 2.8l-12 9.5c-.3.2-.7.3-1 .4z"/></g><circle class="st10" cx="7" cy="106.4" r="2"/><circle class="st9" cx="26.1" cy="114.7" r="3.6"/><path class="st6" d="M16.6 116.7s-1.5 4.8 1.2 7.5c.4.4 1 .7 1.6.7 1.2 0 2.2-1 2.2-2.2 0-.6-.3-1.2-.7-1.6l-4.3-4.4z"/><path class="st10" d="M29 124.1h-5.4c0 2.1 1.4 3.9 3.2 4.6 1.2-1.2 2-2.8 2.2-4.6z"/><g><path opacity=".05" fill="#230000" d="M103 181.3V.1H93v181.2l8 8.2h10z"/><path opacity=".1" fill="#230000" d="M103 181.3H58l-8.2 8.2H111z"/><path fill="none" stroke="#fff" stroke-width="2.1751" stroke-linejoin="round" stroke-miterlimit="10" d="M64 .1v171.2"/></g><path d="M114.6 160.7c0 1.6-1.2 2.9-2.8 2.9-1.6 0-2.9-1.2-2.9-2.8v-.2c.1-1.6 1.4-2.8 3-2.8 1.4.2 2.6 1.4 2.7 2.9m-58.7-23.3h49.3v7.6H55.9v-7.6z" fill="#959191"/></svg>