<svg xmlns="http://www.w3.org/2000/svg" width="242.6" height="239.1" viewBox="0 0 242.6 239.1"><style>.st0{opacity:.1;fill:#230000}.st1{fill:#885a30}.st3{opacity:.1}.st4{fill:#230000}</style><g><circle class="st0" cx="117.8" cy="117.8" r="93.1"/><circle class="st0" cx="117.8" cy="117.8" r="41.9"/><circle class="st0" cx="119.8" cy="119.8" r="8.9"/><circle class="st1" cx="117.8" cy="117.8" r="8.9"/><circle cx="117.8" cy="117.8" r="8.9" opacity=".2" fill="#230000"/><g class="st3"><path class="st4" d="M121.1 183.1c-34 0-61.6-27.6-61.6-61.6s27.6-61.6 61.6-61.6 61.6 27.6 61.6 61.6c0 33.9-27.6 61.6-61.6 61.6zm0-98.2c-20.2 0-36.6 16.4-36.6 36.6 0 20.2 16.4 36.6 36.6 36.6s36.6-16.4 36.6-36.6c0-20.2-16.4-36.6-36.6-36.6z"/></g><g><path class="st1" d="M118.1 180.1c-34 0-61.6-27.6-61.6-61.6s27.6-61.6 61.6-61.6 61.6 27.6 61.6 61.6c0 33.9-27.6 61.6-61.6 61.6zm0-98.2c-20.2 0-36.6 16.4-36.6 36.6 0 20.2 16.4 36.6 36.6 36.6s36.6-16.4 36.6-36.6c0-20.2-16.4-36.6-36.6-36.6z"/></g><g class="st3"><path d="M122.1 60.9c16 0 30.5 6.1 41.5 16.1-11.3-12.3-27.5-20.1-45.5-20.1-34 0-61.6 27.6-61.6 61.6 0 18 7.8 34.2 20.1 45.5-10-11-16.1-25.5-16.1-41.5.1-34 27.7-61.6 61.6-61.6z" fill="#fff"/></g><g class="st3"><g><path class="st4" d="M123.8 226.4c-58.2 0-105.6-47.4-105.6-105.6 0-58.2 47.4-105.6 105.6-105.6s105.6 47.4 105.6 105.6c0 58.2-47.4 105.6-105.6 105.6zm0-186.1c-44.4 0-80.6 36.1-80.6 80.6 0 44.4 36.1 80.6 80.6 80.6s80.6-36.1 80.6-80.6c0-44.5-36.1-80.6-80.6-80.6z"/></g><g><path class="st4" d="M124.3 239.1c-3.6 0-7.3-.2-10.9-.5l2.3-24.9c2.8.3 5.7.4 8.6.4 2.9 0 5.8-.1 8.6-.4l2.3 24.9c-3.6.4-7.2.5-10.9.5zM92 234.7c-7-2-13.9-4.6-20.4-7.9l11.1-22.4c5.1 2.6 10.5 4.6 16 6.2L92 234.7zm64.7-.1l-6.8-24c5.5-1.6 10.9-3.7 16-6.2l11.2 22.4c-6.5 3.2-13.4 5.8-20.4 7.8zM53.1 215.3c-5.8-4.4-11.2-9.3-16.1-14.7l18.5-16.9c3.9 4.2 8.2 8.1 12.7 11.6l-15.1 20zm142.5-.1l-15.1-19.9c4.6-3.5 8.9-7.4 12.7-11.6l18.5 16.8c-4.9 5.4-10.3 10.3-16.1 14.7zm-171.8-32c-3.8-6.2-7.1-12.8-9.8-19.5l23.3-9.1C39.4 160 42 165.1 45 170l-21.2 13.2zm201.1-.1l-21.2-13.2c3-4.9 5.6-10.1 7.7-15.4l23.3 9c-2.7 6.8-6 13.4-9.8 19.6zM8 142.7c-1.3-7.1-2-14.4-2-21.7h25c0 5.8.5 11.5 1.6 17.2L8 142.7zm232.6-.2L216 138c1-5.6 1.6-11.4 1.6-17.2v-.2h25v.2c0 7.3-.7 14.6-2 21.7zm-208-38.7L8 99.2c1.3-7.2 3.3-14.2 5.9-21l23.3 9c-2 5.4-3.6 10.9-4.6 16.6zm183.4-.3c-1.1-5.6-2.7-11.2-4.7-16.5l23.3-9.1c2.6 6.8 4.7 13.8 6 21l-24.6 4.6zM44.9 71.8L23.6 58.7c3.8-6.2 8.2-12 13.1-17.4l18.5 16.8c-3.8 4.2-7.3 8.8-10.3 13.7zm158.6-.3c-3-4.9-6.5-9.5-10.4-13.7l18.4-16.9c4.9 5.4 9.4 11.2 13.2 17.4l-21.2 13.2zM68 46.4L52.9 26.5c5.8-4.4 12-8.3 18.5-11.5l11.2 22.4c-5.1 2.5-10.1 5.6-14.6 9zm112.4-.2c-4.6-3.5-9.5-6.5-14.6-9l11.1-22.4c6.5 3.2 12.8 7.1 18.6 11.5l-15.1 19.9zM98.6 31.1l-6.9-24c7-2 14.2-3.3 21.5-4l2.3 24.9c-5.7.5-11.4 1.5-16.9 3.1zm51.1-.1c-5.5-1.6-11.2-2.6-16.9-3.1L135 3c7.3.7 14.5 2 21.5 4l-6.8 24z"/></g></g><g><path class="st1" d="M118.3 236.1c-3.6 0-7.3-.2-10.9-.5l2.3-24.9c2.8.3 5.7.4 8.6.4 2.9 0 5.8-.1 8.6-.4l2.3 24.9c-3.6.4-7.2.5-10.9.5zM86 231.7c-7-2-13.9-4.6-20.4-7.9l11.1-22.4c5.1 2.6 10.5 4.6 16 6.2L86 231.7zm64.7-.1l-6.8-24c5.5-1.6 10.9-3.7 16-6.2l11.2 22.4c-6.5 3.2-13.4 5.8-20.4 7.8zM47.1 212.3c-5.8-4.4-11.2-9.3-16.1-14.7l18.5-16.9c3.9 4.2 8.2 8.1 12.7 11.6l-15.1 20zm142.5-.1l-15.1-19.9c4.6-3.5 8.9-7.4 12.7-11.6l18.5 16.8c-4.9 5.4-10.3 10.3-16.1 14.7zm-171.8-32C14 174 10.7 167.4 8 160.7l23.3-9.1C33.4 157 36 162.1 39 167l-21.2 13.2zm201.1-.1l-21.2-13.2c3-4.9 5.6-10.1 7.7-15.4l23.3 9c-2.7 6.8-6 13.4-9.8 19.6zM2 139.7c-1.3-7.1-2-14.4-2-21.7h25c0 5.8.5 11.5 1.6 17.2L2 139.7zm232.6-.2L210 135c1-5.6 1.6-11.4 1.6-17.2v-.2h25v.2c0 7.3-.7 14.6-2 21.7zm-208-38.7L2 96.2C3.3 89 5.3 82 7.9 75.2l23.3 9c-2 5.4-3.6 10.9-4.6 16.6zm183.4-.3c-1.1-5.6-2.7-11.2-4.7-16.5l23.3-9.1c2.6 6.8 4.7 13.8 6 21l-24.6 4.6zM38.9 68.8L17.6 55.7c3.8-6.2 8.2-12 13.1-17.4l18.5 16.8c-3.8 4.2-7.3 8.8-10.3 13.7zm158.6-.3c-3-4.9-6.5-9.5-10.4-13.7l18.4-16.9c4.9 5.4 9.4 11.2 13.2 17.4l-21.2 13.2zM62 43.4L46.9 23.5c5.8-4.4 12-8.3 18.5-11.5l11.2 22.4c-5.1 2.5-10.1 5.6-14.6 9zm112.4-.2c-4.6-3.5-9.5-6.5-14.6-9l11.1-22.4c6.5 3.2 12.8 7.1 18.6 11.5l-15.1 19.9zM92.6 28.1l-6.9-24c7-2 14.2-3.3 21.5-4l2.3 24.9c-5.7.5-11.4 1.5-16.9 3.1zm51.1-.1c-5.5-1.6-11.2-2.6-16.9-3.1L129 0c7.3.7 14.5 2 21.5 4l-6.8 24z"/></g><g class="st3"><path class="st4" d="M118.3 236.1c-3.6 0-7.3-.2-10.9-.5l2.3-24.9c2.8.3 5.7.4 8.6.4 2.9 0 5.8-.1 8.6-.4l2.3 24.9c-3.6.4-7.2.5-10.9.5zM86 231.7c-7-2-13.9-4.6-20.4-7.9l11.1-22.4c5.1 2.6 10.5 4.6 16 6.2L86 231.7zm64.7-.1l-6.8-24c5.5-1.6 10.9-3.7 16-6.2l11.2 22.4c-6.5 3.2-13.4 5.8-20.4 7.8zM47.1 212.3c-5.8-4.4-11.2-9.3-16.1-14.7l18.5-16.9c3.9 4.2 8.2 8.1 12.7 11.6l-15.1 20zm142.5-.1l-15.1-19.9c4.6-3.5 8.9-7.4 12.7-11.6l18.5 16.8c-4.9 5.4-10.3 10.3-16.1 14.7zm-171.8-32C14 174 10.7 167.4 8 160.7l23.3-9.1C33.4 157 36 162.1 39 167l-21.2 13.2zm201.1-.1l-21.2-13.2c3-4.9 5.6-10.1 7.7-15.4l23.3 9c-2.7 6.8-6 13.4-9.8 19.6zM2 139.7c-1.3-7.1-2-14.4-2-21.7h25c0 5.8.5 11.5 1.6 17.2L2 139.7zm232.6-.2L210 135c1-5.6 1.6-11.4 1.6-17.2v-.2h25v.2c0 7.3-.7 14.6-2 21.7zm-208-38.7L2 96.2C3.3 89 5.3 82 7.9 75.2l23.3 9c-2 5.4-3.6 10.9-4.6 16.6zm183.4-.3c-1.1-5.6-2.7-11.2-4.7-16.5l23.3-9.1c2.6 6.8 4.7 13.8 6 21l-24.6 4.6zM38.9 68.8L17.6 55.7c3.8-6.2 8.2-12 13.1-17.4l18.5 16.8c-3.8 4.2-7.3 8.8-10.3 13.7zm158.6-.3c-3-4.9-6.5-9.5-10.4-13.7l18.4-16.9c4.9 5.4 9.4 11.2 13.2 17.4l-21.2 13.2zM62 43.4L46.9 23.5c5.8-4.4 12-8.3 18.5-11.5l11.2 22.4c-5.1 2.5-10.1 5.6-14.6 9zm112.4-.2c-4.6-3.5-9.5-6.5-14.6-9l11.1-22.4c6.5 3.2 12.8 7.1 18.6 11.5l-15.1 19.9zM92.6 28.1l-6.9-24c7-2 14.2-3.3 21.5-4l2.3 24.9c-5.7.5-11.4 1.5-16.9 3.1zm51.1-.1c-5.5-1.6-11.2-2.6-16.9-3.1L129 0c7.3.7 14.5 2 21.5 4l-6.8 24z"/></g><g><path class="st1" d="M117.8 223.4c-58.2 0-105.6-47.4-105.6-105.6 0-58.2 47.4-105.6 105.6-105.6s105.6 47.4 105.6 105.6c0 58.2-47.4 105.6-105.6 105.6zm0-186.1c-44.4 0-80.6 36.1-80.6 80.6 0 44.4 36.1 80.6 80.6 80.6s80.6-36.1 80.6-80.6c0-44.5-36.1-80.6-80.6-80.6z"/></g><path d="M18.3 119.8c0-58.2 47.4-105.6 105.6-105.6 10.6 0 20.8 1.6 30.4 4.5-11.3-4.2-23.6-6.5-36.4-6.5-58.2 0-105.6 47.4-105.6 105.6 0 47.6 31.7 88 75.2 101.1-40.4-14.8-69.2-53.7-69.2-99.1z" opacity=".1" fill="#fff"/></g></svg>