<svg xmlns="http://www.w3.org/2000/svg" xmlns:xlink="http://www.w3.org/1999/xlink" viewBox="0 0 118 143.48"><defs><style>.cls-1{fill:none;}.cls-2{fill:#fbd530;}.cls-3{fill:#212121;}.cls-4{isolation:isolate;}.cls-5{fill:url(#New_Pattern_Swatch_5);}.cls-6{fill:#3f51b5;}.cls-7{fill:url(#New_Pattern_Swatch_5-3);}.cls-8{fill:#221f1f;opacity:0.15;mix-blend-mode:multiply;}.cls-9{fill:#3d2ea8;}.cls-10{fill:#3047aa;}.cls-11{fill:#455fce;}</style><pattern id="New_Pattern_Swatch_5" data-name="New Pattern Swatch 5" width="100" height="100" patternTransform="translate(29.59 -63.68) rotate(34) scale(0.6)" patternUnits="userSpaceOnUse" viewBox="0 0 100 100"><rect class="cls-1" width="100" height="100"/><polygon class="cls-2" points="34.97 105.35 33.42 96.52 28.95 105.3 31.16 115.08 34.97 105.35"/><polygon class="cls-2" points="69.52 105.35 67.97 96.52 63.49 105.3 65.71 115.08 69.52 105.35"/><polygon class="cls-2" points="102.06 105.35 100.51 96.52 96.04 105.3 98.25 115.08 102.06 105.35"/><polygon class="cls-2" points="2.06 105.35 0.51 96.52 -3.96 105.3 -1.75 115.08 2.06 105.35"/><rect class="cls-3" width="100" height="100"/><polygon class="cls-2" points="34.97 38.2 33.42 29.38 28.95 38.16 31.16 47.94 34.97 38.2"/><polygon class="cls-2" points="31.5 35.52 22.67 37.07 31.45 41.55 41.24 39.34 31.5 35.52"/><polygon class="cls-2" points="18.04 23.95 17.26 19.5 15 23.93 16.12 28.87 18.04 23.95"/><polygon class="cls-2" points="16.29 22.6 11.83 23.38 16.27 25.64 21.21 24.53 16.29 22.6"/><polygon class="cls-2" points="69.52 38.2 67.97 29.38 63.49 38.16 65.71 47.94 69.52 38.2"/><polygon class="cls-2" points="66.05 35.52 57.22 37.07 66 41.55 75.78 39.34 66.05 35.52"/><polygon class="cls-2" points="52.59 23.95 51.81 19.5 49.55 23.93 50.66 28.87 52.59 23.95"/><polygon class="cls-2" points="50.84 22.6 46.38 23.38 50.81 25.64 55.76 24.53 50.84 22.6"/><polygon class="cls-2" points="102.06 38.2 100.51 29.38 96.04 38.16 98.25 47.94 102.06 38.2"/><polygon class="cls-2" points="98.59 35.52 89.77 37.07 98.55 41.55 108.33 39.34 98.59 35.52"/><polygon class="cls-2" points="34.97 5.35 33.42 -3.48 28.95 5.3 31.16 15.08 34.97 5.35"/><polygon class="cls-2" points="31.5 2.67 22.67 4.21 31.45 8.69 41.24 6.48 31.5 2.67"/><polygon class="cls-2" points="69.52 5.35 67.97 -3.48 63.49 5.3 65.71 15.08 69.52 5.35"/><polygon class="cls-2" points="66.05 2.67 57.22 4.21 66 8.69 75.78 6.48 66.05 2.67"/><polygon class="cls-2" points="102.06 5.35 100.51 -3.48 96.04 5.3 98.25 15.08 102.06 5.35"/><polygon class="cls-2" points="98.59 2.67 89.77 4.21 98.55 8.69 108.33 6.48 98.59 2.67"/><polygon class="cls-2" points="87.14 23.95 86.35 19.5 84.09 23.93 85.21 28.87 87.14 23.95"/><polygon class="cls-2" points="85.38 22.6 80.92 23.38 85.36 25.64 90.3 24.53 85.38 22.6"/><polygon class="cls-2" points="34.97 74.04 33.42 65.22 28.95 74 31.16 83.78 34.97 74.04"/><polygon class="cls-2" points="31.5 71.36 22.67 72.91 31.45 77.39 41.24 75.17 31.5 71.36"/><polygon class="cls-2" points="18.04 54.55 17.26 50.09 15 54.53 16.12 59.47 18.04 54.55"/><polygon class="cls-2" points="16.29 53.2 11.83 53.98 16.27 56.24 21.21 55.12 16.29 53.2"/><polygon class="cls-2" points="69.52 74.04 67.97 65.22 63.49 74 65.71 83.78 69.52 74.04"/><polygon class="cls-2" points="66.05 71.36 57.22 72.91 66 77.39 75.78 75.17 66.05 71.36"/><polygon class="cls-2" points="52.59 54.55 51.81 50.09 49.55 54.53 50.66 59.47 52.59 54.55"/><polygon class="cls-2" points="50.84 53.2 46.38 53.98 50.81 56.24 55.76 55.12 50.84 53.2"/><polygon class="cls-2" points="102.06 74.04 100.51 65.22 96.04 74 98.25 83.78 102.06 74.04"/><polygon class="cls-2" points="98.59 71.36 89.77 72.91 98.55 77.39 108.33 75.17 98.59 71.36"/><polygon class="cls-2" points="87.14 54.55 86.35 50.09 84.09 54.53 85.21 59.47 87.14 54.55"/><polygon class="cls-2" points="85.38 53.2 80.92 53.98 85.36 56.24 90.3 55.12 85.38 53.2"/><polygon class="cls-2" points="18.04 90.92 17.26 86.46 15 90.89 16.12 95.83 18.04 90.92"/><polygon class="cls-2" points="16.29 89.56 11.83 90.34 16.27 92.61 21.21 91.49 16.29 89.56"/><polygon class="cls-2" points="52.59 90.92 51.81 86.46 49.55 90.89 50.66 95.83 52.59 90.92"/><polygon class="cls-2" points="50.84 89.56 46.38 90.34 50.81 92.61 55.76 91.49 50.84 89.56"/><polygon class="cls-2" points="87.14 90.92 86.35 86.46 84.09 90.89 85.21 95.83 87.14 90.92"/><polygon class="cls-2" points="85.38 89.56 80.92 90.34 85.36 92.61 90.3 91.49 85.38 89.56"/><polygon class="cls-2" points="2.06 38.2 0.51 29.38 -3.96 38.16 -1.75 47.94 2.06 38.2"/><polygon class="cls-2" points="-1.41 35.52 -10.23 37.07 -1.45 41.55 8.33 39.34 -1.41 35.52"/><polygon class="cls-2" points="2.06 5.35 0.51 -3.48 -3.96 5.3 -1.75 15.08 2.06 5.35"/><polygon class="cls-2" points="-1.41 2.67 -10.23 4.21 -1.45 8.69 8.33 6.48 -1.41 2.67"/><polygon class="cls-2" points="2.06 74.04 0.51 65.22 -3.96 74 -1.75 83.78 2.06 74.04"/><polygon class="cls-2" points="-1.41 71.36 -10.23 72.91 -1.45 77.39 8.33 75.17 -1.41 71.36"/></pattern><pattern id="New_Pattern_Swatch_5-3" data-name="New Pattern Swatch 5" width="100" height="100" patternTransform="matrix(0.59, 0.11, -0.11, 0.59, -18.84, -72.92)" patternUnits="userSpaceOnUse" viewBox="0 0 100 100"><rect class="cls-1" width="100" height="100"/><polygon class="cls-2" points="34.97 105.35 33.42 96.52 28.95 105.3 31.16 115.08 34.97 105.35"/><polygon class="cls-2" points="69.52 105.35 67.97 96.52 63.49 105.3 65.71 115.08 69.52 105.35"/><polygon class="cls-2" points="102.06 105.35 100.51 96.52 96.04 105.3 98.25 115.08 102.06 105.35"/><polygon class="cls-2" points="2.06 105.35 0.51 96.52 -3.96 105.3 -1.75 115.08 2.06 105.35"/><rect class="cls-3" width="100" height="100"/><polygon class="cls-2" points="34.97 38.2 33.42 29.38 28.95 38.16 31.16 47.94 34.97 38.2"/><polygon class="cls-2" points="31.5 35.52 22.67 37.07 31.45 41.55 41.24 39.34 31.5 35.52"/><polygon class="cls-2" points="18.04 23.95 17.26 19.5 15 23.93 16.12 28.87 18.04 23.95"/><polygon class="cls-2" points="16.29 22.6 11.83 23.38 16.27 25.64 21.21 24.53 16.29 22.6"/><polygon class="cls-2" points="69.52 38.2 67.97 29.38 63.49 38.16 65.71 47.94 69.52 38.2"/><polygon class="cls-2" points="66.05 35.52 57.22 37.07 66 41.55 75.78 39.34 66.05 35.52"/><polygon class="cls-2" points="52.59 23.95 51.81 19.5 49.55 23.93 50.66 28.87 52.59 23.95"/><polygon class="cls-2" points="50.84 22.6 46.38 23.38 50.81 25.64 55.76 24.53 50.84 22.6"/><polygon class="cls-2" points="102.06 38.2 100.51 29.38 96.04 38.16 98.25 47.94 102.06 38.2"/><polygon class="cls-2" points="98.59 35.52 89.77 37.07 98.55 41.55 108.33 39.34 98.59 35.52"/><polygon class="cls-2" points="34.97 5.35 33.42 -3.48 28.95 5.3 31.16 15.08 34.97 5.35"/><polygon class="cls-2" points="31.5 2.67 22.67 4.21 31.45 8.69 41.24 6.48 31.5 2.67"/><polygon class="cls-2" points="69.52 5.35 67.97 -3.48 63.49 5.3 65.71 15.08 69.52 5.35"/><polygon class="cls-2" points="66.05 2.67 57.22 4.21 66 8.69 75.78 6.48 66.05 2.67"/><polygon class="cls-2" points="102.06 5.35 100.51 -3.48 96.04 5.3 98.25 15.08 102.06 5.35"/><polygon class="cls-2" points="98.59 2.67 89.77 4.21 98.55 8.69 108.33 6.48 98.59 2.67"/><polygon class="cls-2" points="87.14 23.95 86.35 19.5 84.09 23.93 85.21 28.87 87.14 23.95"/><polygon class="cls-2" points="85.38 22.6 80.92 23.38 85.36 25.64 90.3 24.53 85.38 22.6"/><polygon class="cls-2" points="34.97 74.04 33.42 65.22 28.95 74 31.16 83.78 34.97 74.04"/><polygon class="cls-2" points="31.5 71.36 22.67 72.91 31.45 77.39 41.24 75.17 31.5 71.36"/><polygon class="cls-2" points="18.04 54.55 17.26 50.09 15 54.53 16.12 59.47 18.04 54.55"/><polygon class="cls-2" points="16.29 53.2 11.83 53.98 16.27 56.24 21.21 55.12 16.29 53.2"/><polygon class="cls-2" points="69.52 74.04 67.97 65.22 63.49 74 65.71 83.78 69.52 74.04"/><polygon class="cls-2" points="66.05 71.36 57.22 72.91 66 77.39 75.78 75.17 66.05 71.36"/><polygon class="cls-2" points="52.59 54.55 51.81 50.09 49.55 54.53 50.66 59.47 52.59 54.55"/><polygon class="cls-2" points="50.84 53.2 46.38 53.98 50.81 56.24 55.76 55.12 50.84 53.2"/><polygon class="cls-2" points="102.06 74.04 100.51 65.22 96.04 74 98.25 83.78 102.06 74.04"/><polygon class="cls-2" points="98.59 71.36 89.77 72.91 98.55 77.39 108.33 75.17 98.59 71.36"/><polygon class="cls-2" points="87.14 54.55 86.35 50.09 84.09 54.53 85.21 59.47 87.14 54.55"/><polygon class="cls-2" points="85.38 53.2 80.92 53.98 85.36 56.24 90.3 55.12 85.38 53.2"/><polygon class="cls-2" points="18.04 90.92 17.26 86.46 15 90.89 16.12 95.83 18.04 90.92"/><polygon class="cls-2" points="16.29 89.56 11.83 90.34 16.27 92.61 21.21 91.49 16.29 89.56"/><polygon class="cls-2" points="52.59 90.92 51.81 86.46 49.55 90.89 50.66 95.83 52.59 90.92"/><polygon class="cls-2" points="50.84 89.56 46.38 90.34 50.81 92.61 55.76 91.49 50.84 89.56"/><polygon class="cls-2" points="87.14 90.92 86.35 86.46 84.09 90.89 85.21 95.83 87.14 90.92"/><polygon class="cls-2" points="85.38 89.56 80.92 90.34 85.36 92.61 90.3 91.49 85.38 89.56"/><polygon class="cls-2" points="2.06 38.2 0.51 29.38 -3.96 38.16 -1.75 47.94 2.06 38.2"/><polygon class="cls-2" points="-1.41 35.52 -10.23 37.07 -1.45 41.55 8.33 39.34 -1.41 35.52"/><polygon class="cls-2" points="2.06 5.35 0.51 -3.48 -3.96 5.3 -1.75 15.08 2.06 5.35"/><polygon class="cls-2" points="-1.41 2.67 -10.23 4.21 -1.45 8.69 8.33 6.48 -1.41 2.67"/><polygon class="cls-2" points="2.06 74.04 0.51 65.22 -3.96 74 -1.75 83.78 2.06 74.04"/><polygon class="cls-2" points="-1.41 71.36 -10.23 72.91 -1.45 77.39 8.33 75.17 -1.41 71.36"/></pattern></defs><title>present_212121_2</title><g class="cls-4"><g id="Layer_2" data-name="Layer 2"><g id="ART"><rect class="cls-5" x="2.19" y="45.55" width="113.84" height="97.93"/><rect class="cls-6" x="2" y="82.28" width="114" height="24.48"/><rect class="cls-7" y="40.33" width="118" height="22"/><polygon class="cls-8" points="2 110.43 2 106.76 115.84 106.76 116 108.59 2 110.43"/><rect class="cls-6" x="47.5" y="37.83" width="22" height="27" transform="translate(7.17 109.83) rotate(-90)"/><path class="cls-6" d="M18.93,29.2s-2.46,7-1.59,11.13H42.58S18.93,38.94,18.93,29.2Z"/><path class="cls-9" d="M42.58,40.33S18.93,38.94,18.93,29.2C18.93,29.2,26.41,23.64,42.58,40.33Z"/><path class="cls-6" d="M98.72,27.88s1.75,8.28.88,12.45H73.21S98.72,37.62,98.72,27.88Z"/><path class="cls-9" d="M73.21,40.33s25.51-2.71,25.51-12.45C98.72,27.88,89.38,23.64,73.21,40.33Z"/><path class="cls-6" d="M59.87,40.33s-2-34.65,6.35-38.25L89,7.16s3.33,3.71,1.2,11.58c-2.83,10.46-17,21.59-17,21.59Z"/><path class="cls-10" d="M66.22,2.08s5.08,5.15,1,14.19c-1.5,3.3-2.92,6.71-4,10,18.33-3.44,27.58-14.47,27.6-14.49A9.16,9.16,0,0,0,89,7.16Z"/><path class="cls-9" d="M66.22,2.08c-8.4,3.6-6.35,38.25-6.35,38.25h1.76c-2.05-5.17,1.48-15,5.58-24.06s-1-14.19-1-14.19Z"/><path class="cls-9" d="M56.45,9.56C56.45-.18,50.92,0,50.92,0,44,12.52,62,40.33,62,40.33,55.09,25,56.45,19.29,56.45,9.56Z"/><path class="cls-6" d="M49.58,10.53h0l-25,2.84A19.26,19.26,0,0,0,26,19.31,106.51,106.51,0,0,0,61.35,39.63l.28.7H62S51.33,23.83,49.58,10.53Z"/><path class="cls-11" d="M49.58,10.53c-.52-4-.26-7.65,1.34-10.53,0,0-15.3,5.56-20.86,7s-5.56,5.57-5.56,5.57c0,.28,0,.57.05.86l25-2.84Z"/><path class="cls-10" d="M26,19.31c4.33,10.65,16.58,21,16.58,21H62l-.46-.73A108.11,108.11,0,0,1,26,19.31Z"/><rect class="cls-6" x="17.92" y="90.66" width="81.15" height="24.48" transform="translate(-44.41 161.4) rotate(-90)"/><polygon class="cls-8" points="2 66 2 62.33 115.84 62.33 116 64.17 2 66"/></g></g></g></svg>