<svg xmlns="http://www.w3.org/2000/svg" width="49.458" height="47.402"><g fill="#7289A7"><circle cx="23.497" cy="1.182" r="1.181"/><path d="M43.534 22.327a6.24 6.24 0 0 0-4.621-6.06 5.526 5.526 0 0 0 3.448-1.932l.003-.003.12-.151.041-.053.097-.134.056-.08.082-.124.063-.101.069-.116.067-.121.057-.106.074-.15.042-.086.106-.246a5.48 5.48 0 0 0 .182-3.561l.111.038a3.025 3.025 0 0 1-.125-.473l.019.001a.733.733 0 0 0 .779-.687l.085-1.343a.73.73 0 0 0-.382-.69c1.191-2.502 3.897-4.713 3.897-4.713-3.747.288-11.251 3.041-13.82 4.018l-1.314-.082a.733.733 0 0 0-.779.687l-.085 1.343a.733.733 0 0 0 .687.779l.759.048a5.594 5.594 0 0 0-.249.537l-.127.355-.01-.091-5.372-.536c-.522-.209-.824.545-.07.847l5.218 2.09.058.384v.001c.064.344.16.68.286 1.004l.01.026.123.286.015.033c.094.2.2.393.317.581l.041.063.143.211.047.066a5.477 5.477 0 0 0 2.881 2.017 6.236 6.236 0 0 0-5.501 6.157l-.008 1.458-12.308-.02.008-1.408a6.24 6.24 0 0 0-4.621-6.06 5.526 5.526 0 0 0 3.448-1.932l.003-.003.12-.151.041-.053.097-.134.056-.08.082-.124.063-.101.069-.116.067-.121.057-.106.074-.15.042-.086.106-.246a5.48 5.48 0 0 0 .182-3.561l.111.038a3.025 3.025 0 0 1-.125-.473l.019.001a.733.733 0 0 0 .779-.687l.085-1.343a.73.73 0 0 0-.382-.69c1.191-2.502 3.897-4.713 3.897-4.713-3.747.288-11.251 3.041-13.82 4.018L7.89 5.331a.734.734 0 0 0-.779.687l-.084 1.343a.732.732 0 0 0 .686.778l.759.048a5.709 5.709 0 0 0-.249.537l-.127.355-.01-.091-5.372-.536c-.522-.209-.824.545-.07.847l5.218 2.09.058.384v.001c.064.344.16.68.286 1.004l.01.026.124.286.015.033c.094.2.2.393.317.581l.041.063.143.211.047.065a5.477 5.477 0 0 0 2.881 2.017 6.236 6.236 0 0 0-5.501 6.157l-.008 1.458-6.242-.01-.008 4.989-.003 1.665L0 43.182l2.533.004a4.256 4.256 0 0 0 4.249 4.156 4.26 4.26 0 0 0 4.212-3.584 4.256 4.256 0 0 0 8.462-.544l11.36.018a4.256 4.256 0 0 0 4.249 4.156 4.26 4.26 0 0 0 4.212-3.584 4.256 4.256 0 0 0 8.462-.544l1.538.003.021-12.863.003-1.665.008-4.989-5.782-.009.007-1.41z"/><circle cx="48.277" cy="1.222" r="1.181"/></g></svg>