<svg xmlns="http://www.w3.org/2000/svg" width="150" height="150" viewBox="0 0 150 150"><path fill="#E9E9EA" d="M54.725 81.559c-7.179 0-13.063-5.84-13.116-13.02L41.5 53.712c-.053-7.231 5.787-13.157 13.018-13.212 7.277 0 13.16 5.841 13.212 13.02l.109 14.825c.053 7.231-5.786 13.159-13.018 13.213l-.096.001zm-.109-36.308c-4.675.034-8.4 3.815-8.366 8.427l.109 14.827c.034 4.578 3.786 8.303 8.365 8.303v2.375l.061-2.375c4.612-.034 8.337-3.815 8.302-8.428l-.109-14.825c-.032-4.579-3.784-8.304-8.362-8.304zM87.721 82.5c-7.177 0-13.059-5.84-13.112-13.019L74.5 54.654c-.025-3.503 1.315-6.806 3.774-9.302s5.742-3.884 9.245-3.909c7.276 0 13.159 5.84 13.212 13.019l.109 14.827c.026 3.503-1.314 6.806-3.773 9.302s-5.743 3.884-9.246 3.909h-.1zm-.105-36.305c-2.298.015-4.39.901-5.959 2.492a8.314 8.314 0 0 0-2.407 5.934l.109 14.827c.034 4.576 3.785 8.301 8.362 8.301v2.375l.064-2.375a8.306 8.306 0 0 0 5.897-2.492 8.315 8.315 0 0 0 2.406-5.935l-.109-14.827c-.034-4.577-3.785-8.3-8.363-8.3z"/><path fill="#E84436" d="M117.5 101.5h-87v-46h76l10.948 17.869z"/><path fill="#CCC" d="M30.5 84.5h87v17h-87z"/><path fill="#FFD600" d="M30.5 63.5h81l2 3h-83z"/><circle fill="#E9E9EA" cx="43.043" cy="103.043" r="7.334"/><circle fill="#4D4D4D" cx="42.983" cy="103.007" r="2.751"/><circle fill="#E9E9EA" cx="57.834" cy="102.834" r="7.334"/><circle fill="#4D4D4D" cx="57.774" cy="102.798" r="2.751"/><circle fill="#E9E9EA" cx="89.166" cy="103.166" r="7.334"/><circle fill="#4D4D4D" cx="89.106" cy="103.13" r="2.751"/><circle fill="#E9E9EA" cx="103.166" cy="102.9" r="7.334"/><circle fill="#4D4D4D" cx="103.106" cy="102.865" r="2.751"/></svg>