<svg xmlns="http://www.w3.org/2000/svg" width="617.247" height="144.632"><path fill="#4D4D4D" d="M143.244 14.093h9.584v5.324h-9.584zm151.384 0h9.584v5.324h-9.584z"/><path fill="#FEE18C" d="M31.445 113.581l9.185 12.756c.55 1.542 2.778.748 1.983-1.48l-6.05-16.964-5.118 5.688z"/><path fill="#FEE18C" d="M30.603 113.791c8.349-2.977 12.703-12.159 9.726-20.508-2.977-8.348-12.159-12.703-20.508-9.726-8.348 2.977-12.703 12.159-9.726 20.508 2.978 8.348 12.16 12.703 20.508 9.726z"/><path fill="#AF5F2D" d="M14.324 110.455a15.979 15.979 0 0 1-4.228-6.39c-2.977-8.348 1.378-17.531 9.726-20.508a16.008 16.008 0 0 1 10.969.072c1.271 15.717-10.481 23.773-16.467 26.826z"/><path fill="#333" d="M29.473 110.405a2.864 2.864 0 1 0-1.924-5.397 2.864 2.864 0 1 0 1.924 5.397zm6.477-4.036a4.082 4.082 0 0 1 5.127-5.245 16.125 16.125 0 0 1-3.236 7.45 4.057 4.057 0 0 1-1.891-2.205z"/><path fill="#C6161D" d="M56.164 48.63c.035-8.863-7.122-16.078-15.986-16.113-8.86-.035-16.075 7.122-16.11 15.986l-.088 22.155c-.035 8.863 7.122 16.078 15.983 16.113 8.863.035 16.078-7.122 16.113-15.986l.088-22.155z"/><path stroke="#BACAD3" stroke-width="8.031" stroke-linecap="round" stroke-linejoin="round" stroke-miterlimit="10" d="M58.221 48.087c.04-10.027-8.058-18.19-18.085-18.23-10.024-.04-18.187 8.058-18.226 18.085l-.1 25.065c-.04 10.027 8.058 18.19 18.082 18.23 10.028.04 18.19-8.058 18.23-18.085l.099-25.065z" fill="none"/><path fill="#EA1C24" d="M48.58 48.63c.035-8.863.462-16.078-8.401-16.113-8.86-.035-16.075 7.122-16.11 15.986l-.088 22.155c-.035 8.863 7.122 16.078 15.983 16.113 8.863.035 8.493-7.122 8.529-15.986l.087-22.155zM5.221 92.924s-2.645 31.647.215 44.667c0 0 7.879-19.065 18.437-18.561L5.221 92.924z"/><path fill="#fff" d="M7.743 90.471a2.136 2.136 0 0 1 2.999.376L30.31 116.03a2.135 2.135 0 0 1-.376 3l-3.093 2.404a2.136 2.136 0 0 1-3-.376L4.273 95.874a2.136 2.136 0 0 1 .377-3l3.093-2.403z"/><circle fill="#fff" cx="4.842" cy="141.191" r="3.44"/><path fill="#EA1C24" d="M32.725 80.628l8.866-3.632 19.64 47.935-8.865 3.632z"/><path fill="#FEE18C" d="M62.738 125.273a6.112 6.112 0 0 0-7.975-3.338 6.112 6.112 0 0 0 4.633 11.311 6.114 6.114 0 0 0 3.342-7.973zm38.986-11.692l9.185 12.756c.55 1.542 2.778.748 1.983-1.48l-6.05-16.964-5.118 5.688z"/><path fill="#FEE18C" d="M100.883 113.791c8.349-2.977 12.703-12.159 9.726-20.508-2.977-8.348-12.159-12.703-20.508-9.726-8.348 2.977-12.703 12.159-9.726 20.508 2.977 8.348 12.159 12.703 20.508 9.726z"/><path fill="#333" d="M84.603 110.455a15.979 15.979 0 0 1-4.228-6.39c-2.977-8.348 1.378-17.531 9.726-20.508a16.008 16.008 0 0 1 10.969.072c1.271 15.717-10.481 23.773-16.467 26.826zm15.149-.05a2.864 2.864 0 1 0-1.924-5.397 2.864 2.864 0 1 0 1.924 5.397zm6.477-4.036a4.082 4.082 0 0 1 5.127-5.245 16.125 16.125 0 0 1-3.236 7.45 4.057 4.057 0 0 1-1.891-2.205z"/><path fill="#269E44" d="M126.444 48.63c.035-8.863-7.122-16.078-15.986-16.113-8.86-.035-16.075 7.122-16.11 15.986l-.088 22.155c-.035 8.863 7.122 16.078 15.983 16.113 8.863.035 16.078-7.122 16.113-15.986l.088-22.155z"/><path stroke="#BACAD3" stroke-width="8.031" stroke-linecap="round" stroke-linejoin="round" stroke-miterlimit="10" d="M128.5 48.087c.04-10.027-8.058-18.19-18.085-18.23-10.024-.04-18.187 8.058-18.226 18.085l-.1 25.065c-.04 10.027 8.058 18.19 18.082 18.23 10.028.04 18.19-8.058 18.23-18.085l.099-25.065z" fill="none"/><path fill="#2CB04B" d="M118.859 48.63c.035-8.863.462-16.078-8.401-16.113-8.86-.035-16.075 7.122-16.11 15.986l-.088 22.155c-.035 8.863 7.122 16.078 15.983 16.113 8.863.035 8.493-7.122 8.529-15.986l.087-22.155zM75.5 92.924s-2.645 31.647.215 44.667c0 0 7.879-19.065 18.437-18.561L75.5 92.924z"/><path fill="#fff" d="M78.022 90.471a2.136 2.136 0 0 1 2.999.376l19.568 25.182a2.135 2.135 0 0 1-.376 3l-3.093 2.404a2.136 2.136 0 0 1-3-.376L74.552 95.874a2.135 2.135 0 0 1 .376-2.999l3.094-2.404z"/><circle fill="#fff" cx="75.121" cy="141.191" r="3.44"/><path fill="#2CB04B" d="M102.978 80.631L111.844 77l19.64 47.935-8.865 3.633z"/><path fill="#FEE18C" d="M133.017 125.273a6.112 6.112 0 0 0-7.975-3.338 6.112 6.112 0 0 0 4.633 11.311 6.114 6.114 0 0 0 3.342-7.973z"/><path fill="#EA1C24" d="M0 12.082h143.473v56.826H0z"/><path fill="#FFD700" d="M0 49.535h143.473v4.847H0z"/><circle fill="#BACBD2" cx="16.868" cy="12.398" r="12.398"/><circle fill="#4D4D4D" cx="16.766" cy="12.459" r="4.651"/><circle fill="#BACBD2" cx="41.359" cy="12.398" r="12.398"/><circle fill="#4D4D4D" cx="41.258" cy="12.459" r="4.651"/><circle fill="#BACBD2" cx="99.215" cy="12.398" r="12.398"/><circle fill="#4D4D4D" cx="99.114" cy="12.459" r="4.651"/><circle fill="#BACBD2" cx="123.706" cy="12.398" r="12.398"/><circle fill="#4D4D4D" cx="123.605" cy="12.459" r="4.651"/><path fill="#FEE18C" d="M183.361 113.581l9.185 12.756c.55 1.542 2.778.748 1.983-1.48l-6.05-16.964-5.118 5.688z"/><path fill="#FEE18C" d="M182.52 113.791c8.349-2.977 12.703-12.159 9.726-20.508-2.977-8.348-12.159-12.703-20.508-9.726-8.348 2.977-12.703 12.159-9.726 20.508 2.978 8.348 12.16 12.703 20.508 9.726z"/><path fill="#333" d="M166.241 110.455a15.979 15.979 0 0 1-4.228-6.39c-2.977-8.348 1.378-17.531 9.726-20.508a16.008 16.008 0 0 1 10.969.072c1.27 15.717-10.482 23.773-16.467 26.826zm15.149-.05a2.864 2.864 0 1 0-1.924-5.397 2.864 2.864 0 1 0 1.924 5.397zm6.476-4.036a4.082 4.082 0 0 1 5.127-5.245 16.125 16.125 0 0 1-3.236 7.45 4.061 4.061 0 0 1-1.891-2.205z"/><path fill="#D99714" d="M208.081 48.63c.035-8.863-7.122-16.078-15.986-16.113-8.86-.035-16.075 7.122-16.11 15.986l-.088 22.155c-.035 8.863 7.122 16.078 15.983 16.113 8.863.035 16.078-7.122 16.113-15.986l.088-22.155z"/><path stroke="#BACAD3" stroke-width="8.031" stroke-linecap="round" stroke-linejoin="round" stroke-miterlimit="10" d="M210.138 48.087c.04-10.027-8.058-18.19-18.085-18.23-10.024-.04-18.187 8.058-18.226 18.085l-.1 25.065c-.04 10.027 8.058 18.19 18.082 18.23 10.028.04 18.19-8.058 18.23-18.085l.099-25.065z" fill="none"/><path fill="#FBAD18" d="M200.497 48.63c.035-8.863.462-16.078-8.401-16.113-8.86-.035-16.075 7.122-16.11 15.986l-.088 22.155c-.035 8.863 7.122 16.078 15.983 16.113 8.863.035 8.493-7.122 8.529-15.986l.087-22.155zm-43.36 44.294s-2.645 31.647.215 44.667c0 0 7.879-19.065 18.437-18.561l-18.652-26.106z"/><path fill="#fff" d="M159.659 90.471a2.136 2.136 0 0 1 2.999.376l19.568 25.182a2.135 2.135 0 0 1-.376 3l-3.093 2.404a2.136 2.136 0 0 1-3-.376L156.19 95.874a2.135 2.135 0 0 1 .376-2.999l3.093-2.404z"/><circle fill="#fff" cx="156.758" cy="141.191" r="3.44"/><path fill="#FBAD18" d="M184.585 80.636l8.865-3.633 19.64 47.936-8.865 3.632z"/><path fill="#FEE18C" d="M214.655 125.273a6.112 6.112 0 0 0-7.975-3.338 6.112 6.112 0 0 0 4.633 11.311 6.115 6.115 0 0 0 3.342-7.973zm38.985-11.692l9.185 12.756c.55 1.542 2.778.748 1.983-1.48l-6.05-16.964-5.118 5.688z"/><path fill="#FEE18C" d="M252.799 113.791c8.349-2.977 12.703-12.159 9.726-20.508-2.977-8.348-12.159-12.703-20.508-9.726-8.348 2.977-12.703 12.159-9.726 20.508 2.978 8.348 12.16 12.703 20.508 9.726z"/><path fill="#FEC00F" d="M236.52 110.455a15.979 15.979 0 0 1-4.228-6.39c-2.977-8.348 1.378-17.531 9.726-20.508a16.008 16.008 0 0 1 10.969.072c1.27 15.717-10.481 23.773-16.467 26.826z"/><path fill="#333" d="M251.669 110.405a2.864 2.864 0 1 0-1.924-5.397 2.864 2.864 0 1 0 1.924 5.397zm6.476-4.036a4.082 4.082 0 0 1 5.127-5.245 16.125 16.125 0 0 1-3.236 7.45 4.061 4.061 0 0 1-1.891-2.205z"/><path fill="#269E44" d="M278.36 48.63c.035-8.863-7.122-16.078-15.986-16.113-8.86-.035-16.075 7.122-16.11 15.986l-.088 22.155c-.035 8.863 7.122 16.078 15.983 16.113 8.863.035 16.078-7.122 16.113-15.986l.088-22.155z"/><path stroke="#BACAD3" stroke-width="8.031" stroke-linecap="round" stroke-linejoin="round" stroke-miterlimit="10" d="M280.417 48.087c.04-10.027-8.058-18.19-18.085-18.23-10.024-.04-18.187 8.058-18.226 18.085l-.1 25.065c-.04 10.027 8.058 18.19 18.082 18.23 10.028.04 18.19-8.058 18.23-18.085l.099-25.065z" fill="none"/><path fill="#2CB04B" d="M270.776 48.63c.035-8.863.462-16.078-8.401-16.113-8.86-.035-16.075 7.122-16.11 15.986l-.088 22.155c-.035 8.863 7.122 16.078 15.983 16.113 8.863.035 8.493-7.122 8.529-15.986l.087-22.155zm-43.359 44.294s-2.645 31.647.215 44.667c0 0 7.879-19.065 18.437-18.561l-18.652-26.106z"/><path fill="#fff" d="M229.939 90.471a2.136 2.136 0 0 1 2.999.376l19.568 25.182a2.136 2.136 0 0 1-.376 3l-3.093 2.404a2.136 2.136 0 0 1-3-.376l-19.568-25.182a2.136 2.136 0 0 1 .376-2.999l3.094-2.405z"/><circle fill="#fff" cx="227.038" cy="141.191" r="3.44"/><path fill="#2CB04B" d="M254.838 80.639l8.865-3.633 19.64 47.936-8.865 3.632z"/><path fill="#FEE18C" d="M284.934 125.273a6.112 6.112 0 0 0-7.975-3.338 6.112 6.112 0 0 0 4.633 11.311 6.115 6.115 0 0 0 3.342-7.973z"/><path fill="#EA1C24" d="M151.917 12.082H295.39v56.826H151.917z"/><path fill="#FFD700" d="M151.917 49.535H295.39v4.847H151.917z"/><circle fill="#BACBD2" cx="168.784" cy="12.398" r="12.398"/><circle fill="#4D4D4D" cx="168.683" cy="12.459" r="4.651"/><circle fill="#BACBD2" cx="193.276" cy="12.398" r="12.398"/><circle fill="#4D4D4D" cx="193.174" cy="12.459" r="4.651"/><circle fill="#BACBD2" cx="251.132" cy="12.398" r="12.398"/><circle fill="#4D4D4D" cx="251.03" cy="12.459" r="4.651"/><circle fill="#BACBD2" cx="275.623" cy="12.398" r="12.398"/><circle fill="#4D4D4D" cx="275.522" cy="12.459" r="4.651"/><path fill="#4D4D4D" d="M446.367 14.093h9.584v5.324h-9.584z"/><path fill="#FEE18C" d="M334.568 113.581l9.185 12.756c.55 1.542 2.778.748 1.983-1.48l-6.05-16.964-5.118 5.688z"/><path fill="#FEE18C" d="M333.727 113.791c8.349-2.977 12.703-12.159 9.726-20.508-2.977-8.348-12.159-12.703-20.508-9.726-8.348 2.977-12.703 12.159-9.726 20.508 2.977 8.348 12.16 12.703 20.508 9.726z"/><path fill="#AF5F2D" d="M317.447 110.455a15.979 15.979 0 0 1-4.228-6.39c-2.977-8.348 1.378-17.531 9.726-20.508a16.008 16.008 0 0 1 10.969.072c1.271 15.717-10.481 23.773-16.467 26.826z"/><path fill="#333" d="M332.597 110.405a2.864 2.864 0 1 0-1.924-5.397 2.864 2.864 0 1 0 1.924 5.397zm6.476-4.036a4.082 4.082 0 0 1 5.127-5.245 16.125 16.125 0 0 1-3.236 7.45 4.057 4.057 0 0 1-1.891-2.205z"/><path fill="#7A357E" d="M359.288 48.63c.035-8.863-7.122-16.078-15.986-16.113-8.86-.035-16.075 7.122-16.11 15.986l-.088 22.155c-.035 8.863 7.122 16.078 15.983 16.113 8.863.035 16.078-7.122 16.113-15.986l.088-22.155z"/><path stroke="#BACAD3" stroke-width="8.031" stroke-linecap="round" stroke-linejoin="round" stroke-miterlimit="10" d="M361.344 48.087c.04-10.027-8.058-18.19-18.085-18.23-10.024-.04-18.187 8.058-18.226 18.085l-.1 25.065c-.04 10.027 8.058 18.19 18.082 18.23 10.028.04 18.19-8.058 18.23-18.085l.099-25.065z" fill="none"/><path fill="#924396" d="M351.703 48.63c.035-8.863.462-16.078-8.401-16.113-8.86-.035-16.075 7.122-16.11 15.986l-.088 22.155c-.035 8.863 7.122 16.078 15.983 16.113 8.863.035 8.493-7.122 8.529-15.986l.087-22.155zm-43.359 44.294s-2.646 31.647.215 44.667c0 0 7.879-19.065 18.437-18.561l-18.652-26.106z"/><path fill="#fff" d="M310.866 90.471a2.136 2.136 0 0 1 2.999.376l19.568 25.182a2.136 2.136 0 0 1-.376 3l-3.093 2.404a2.136 2.136 0 0 1-3-.376l-19.568-25.182a2.136 2.136 0 0 1 .376-2.999l3.094-2.405z"/><circle fill="#fff" cx="307.965" cy="141.191" r="3.44"/><path fill="#924396" d="M335.734 80.642l8.865-3.632 19.64 47.935-8.864 3.633z"/><path fill="#FEE18C" d="M365.861 125.273a6.112 6.112 0 0 0-7.975-3.338 6.112 6.112 0 0 0 4.633 11.311 6.114 6.114 0 0 0 3.342-7.973zm38.986-11.692l9.185 12.756c.55 1.542 2.778.748 1.983-1.48l-6.05-16.964-5.118 5.688z"/><path fill="#FEE18C" d="M404.006 113.791c8.349-2.977 12.703-12.159 9.726-20.508-2.977-8.348-12.159-12.703-20.508-9.726-8.348 2.977-12.703 12.159-9.726 20.508 2.977 8.348 12.16 12.703 20.508 9.726z"/><path fill="#333" d="M387.727 110.455a15.979 15.979 0 0 1-4.228-6.39c-2.977-8.348 1.378-17.531 9.726-20.508a16.008 16.008 0 0 1 10.969.072c1.27 15.717-10.482 23.773-16.467 26.826zm15.149-.05a2.864 2.864 0 1 0-1.924-5.397 2.864 2.864 0 1 0 1.924 5.397zm6.476-4.036a4.082 4.082 0 0 1 5.127-5.245 16.125 16.125 0 0 1-3.236 7.45 4.061 4.061 0 0 1-1.891-2.205z"/><path fill="#0093CA" d="M429.567 48.63c.035-8.863-7.122-16.078-15.986-16.113-8.86-.035-16.075 7.122-16.11 15.986l-.088 22.155c-.035 8.863 7.122 16.078 15.983 16.113 8.863.035 16.078-7.122 16.113-15.986l.088-22.155z"/><path stroke="#BACAD3" stroke-width="8.031" stroke-linecap="round" stroke-linejoin="round" stroke-miterlimit="10" d="M431.624 48.087c.04-10.027-8.058-18.19-18.085-18.23-10.024-.04-18.187 8.058-18.226 18.085l-.1 25.065c-.04 10.027 8.058 18.19 18.082 18.23 10.028.04 18.19-8.058 18.23-18.085l.099-25.065z" fill="none"/><path fill="#00AEEF" d="M421.982 48.63c.035-8.863.462-16.078-8.401-16.113-8.86-.035-16.075 7.122-16.11 15.986l-.088 22.155c-.035 8.863 7.122 16.078 15.983 16.113 8.863.035 8.493-7.122 8.529-15.986l.087-22.155zm-43.359 44.294s-2.645 31.647.215 44.667c0 0 7.879-19.065 18.437-18.561l-18.652-26.106z"/><path fill="#fff" d="M381.145 90.471a2.136 2.136 0 0 1 2.999.376l19.568 25.182a2.136 2.136 0 0 1-.376 3l-3.093 2.404a2.136 2.136 0 0 1-3-.376l-19.568-25.182a2.136 2.136 0 0 1 .376-2.999l3.094-2.405z"/><circle fill="#fff" cx="378.244" cy="141.191" r="3.44"/><path fill="#00AEEF" d="M405.987 80.646l8.865-3.633 19.64 47.936-8.864 3.632z"/><path fill="#FEE18C" d="M436.141 125.273a6.112 6.112 0 0 0-7.975-3.338 6.112 6.112 0 0 0 4.633 11.311 6.115 6.115 0 0 0 3.342-7.973z"/><path fill="#EA1C24" d="M303.123 12.082h143.473v56.826H303.123z"/><path fill="#FFD700" d="M303.123 49.535h143.473v4.847H303.123z"/><circle fill="#BACBD2" cx="319.991" cy="12.398" r="12.398"/><circle fill="#4D4D4D" cx="319.89" cy="12.459" r="4.651"/><circle fill="#BACBD2" cx="344.482" cy="12.398" r="12.398"/><circle fill="#4D4D4D" cx="344.381" cy="12.459" r="4.651"/><circle fill="#BACBD2" cx="402.338" cy="12.398" r="12.398"/><circle fill="#4D4D4D" cx="402.237" cy="12.459" r="4.651"/><circle fill="#BACBD2" cx="426.83" cy="12.398" r="12.398"/><circle fill="#4D4D4D" cx="426.728" cy="12.459" r="4.651"/><path fill="#FEE18C" d="M486.485 113.581l9.185 12.756c.55 1.542 2.778.748 1.983-1.48l-6.05-16.964-5.118 5.688z"/><path fill="#FEE18C" d="M485.643 113.791c8.349-2.977 12.703-12.159 9.726-20.508-2.977-8.348-12.159-12.703-20.508-9.726-8.348 2.977-12.703 12.159-9.726 20.508 2.978 8.348 12.16 12.703 20.508 9.726z"/><path fill="#FBAD18" d="M469.364 110.455a15.979 15.979 0 0 1-4.228-6.39c-2.977-8.348 1.378-17.531 9.726-20.508a16.008 16.008 0 0 1 10.969.072c1.271 15.717-10.481 23.773-16.467 26.826z"/><path fill="#333" d="M484.513 110.405a2.864 2.864 0 1 0-1.924-5.397 2.864 2.864 0 1 0 1.924 5.397zm6.477-4.036a4.082 4.082 0 0 1 5.127-5.245 16.125 16.125 0 0 1-3.236 7.45 4.057 4.057 0 0 1-1.891-2.205z"/><path fill="#C6161D" d="M511.204 48.63c.035-8.863-7.122-16.078-15.986-16.113-8.86-.035-16.075 7.122-16.11 15.986l-.088 22.155c-.035 8.863 7.122 16.078 15.983 16.113 8.863.035 16.078-7.122 16.113-15.986l.088-22.155z"/><path stroke="#BACAD3" stroke-width="8.031" stroke-linecap="round" stroke-linejoin="round" stroke-miterlimit="10" d="M513.261 48.087c.04-10.027-8.058-18.19-18.085-18.23-10.024-.04-18.187 8.058-18.226 18.085l-.1 25.065c-.04 10.027 8.058 18.19 18.082 18.23 10.028.04 18.19-8.058 18.23-18.085l.099-25.065z" fill="none"/><path fill="#EA1C24" d="M503.62 48.63c.035-8.863.462-16.078-8.401-16.113-8.86-.035-16.075 7.122-16.11 15.986l-.088 22.155c-.035 8.863 7.122 16.078 15.983 16.113 8.863.035 8.493-7.122 8.529-15.986l.087-22.155zm-43.359 44.294s-2.645 31.647.215 44.667c0 0 7.879-19.065 18.437-18.561l-18.652-26.106z"/><path fill="#fff" d="M462.783 90.471a2.136 2.136 0 0 1 2.999.376l19.568 25.182a2.135 2.135 0 0 1-.376 3l-3.093 2.404a2.136 2.136 0 0 1-3-.376l-19.568-25.182a2.136 2.136 0 0 1 .376-2.999l3.094-2.405z"/><circle fill="#fff" cx="459.882" cy="141.191" r="3.44"/><path fill="#EA1C24" d="M487.594 80.65l8.866-3.633 19.64 47.936-8.865 3.632z"/><path fill="#FEE18C" d="M517.778 125.273a6.112 6.112 0 0 0-7.975-3.338 6.112 6.112 0 0 0 4.633 11.311 6.114 6.114 0 0 0 3.342-7.973zm38.986-11.692l9.185 12.756c.55 1.542 2.778.748 1.983-1.48l-6.05-16.964-5.118 5.688z"/><path fill="#FEE18C" d="M555.923 113.791c8.349-2.977 12.703-12.159 9.726-20.508-2.977-8.348-12.159-12.703-20.508-9.726-8.348 2.977-12.703 12.159-9.726 20.508 2.977 8.348 12.159 12.703 20.508 9.726z"/><path fill="#333" d="M539.643 110.455a15.979 15.979 0 0 1-4.228-6.39c-2.977-8.348 1.378-17.531 9.726-20.508a16.008 16.008 0 0 1 10.969.072c1.271 15.717-10.481 23.773-16.467 26.826zm15.149-.05a2.864 2.864 0 1 0-1.924-5.397 2.864 2.864 0 1 0 1.924 5.397zm6.477-4.036a4.082 4.082 0 0 1 5.127-5.245 16.125 16.125 0 0 1-3.236 7.45 4.057 4.057 0 0 1-1.891-2.205z"/><path fill="#269E44" d="M581.484 48.63c.035-8.863-7.122-16.078-15.986-16.113-8.86-.035-16.075 7.122-16.11 15.986l-.088 22.155c-.035 8.863 7.122 16.078 15.983 16.113 8.863.035 16.078-7.122 16.113-15.986l.088-22.155z"/><path stroke="#BACAD3" stroke-width="8.031" stroke-linecap="round" stroke-linejoin="round" stroke-miterlimit="10" d="M583.54 48.087c.04-10.027-8.058-18.19-18.085-18.23-10.024-.04-18.187 8.058-18.226 18.085l-.1 25.065c-.04 10.027 8.058 18.19 18.082 18.23 10.028.04 18.19-8.058 18.23-18.085l.099-25.065z" fill="none"/><path fill="#2CB04B" d="M573.899 48.63c.035-8.863.462-16.078-8.401-16.113-8.86-.035-16.075 7.122-16.11 15.986l-.088 22.155c-.035 8.863 7.122 16.078 15.983 16.113 8.863.035 8.493-7.122 8.529-15.986l.087-22.155zM530.54 92.924s-2.646 31.647.214 44.667c0 0 7.879-19.065 18.437-18.561L530.54 92.924z"/><path fill="#fff" d="M533.062 90.471a2.136 2.136 0 0 1 2.999.376l19.568 25.182a2.136 2.136 0 0 1-.376 3l-3.093 2.404a2.136 2.136 0 0 1-3-.376l-19.568-25.182a2.135 2.135 0 0 1 .377-2.999l3.093-2.405z"/><circle fill="#fff" cx="530.161" cy="141.191" r="3.44"/><path fill="#2CB04B" d="M557.846 80.653l8.866-3.632 19.64 47.935-8.865 3.632z"/><path fill="#FEE18C" d="M588.057 125.273a6.112 6.112 0 0 0-7.975-3.338 6.112 6.112 0 0 0 4.633 11.311 6.114 6.114 0 0 0 3.342-7.973z"/><path fill="#EA1C24" d="M617.247 12.082H455.04v56.826h143.473l18.734-30.858z"/><path fill="#FFD700" d="M455.04 54.382h152.292l2.943-4.847H455.04z"/><circle fill="#BACBD2" cx="471.908" cy="12.398" r="12.398"/><circle fill="#4D4D4D" cx="471.806" cy="12.459" r="4.651"/><circle fill="#BACBD2" cx="496.399" cy="12.398" r="12.398"/><circle fill="#4D4D4D" cx="496.298" cy="12.459" r="4.651"/><circle fill="#BACBD2" cx="554.255" cy="12.398" r="12.398"/><circle fill="#4D4D4D" cx="554.154" cy="12.459" r="4.651"/><circle fill="#BACBD2" cx="578.746" cy="12.398" r="12.398"/><circle fill="#4D4D4D" cx="578.645" cy="12.459" r="4.651"/></svg>