<svg xmlns="http://www.w3.org/2000/svg" width="1184.82" height="36.272"><line stroke="#A9ABAE" stroke-width="11.7" stroke-linecap="round" stroke-linejoin="round" stroke-miterlimit="10" x1="5.85" y1="5.85" x2="1178.97" y2="5.85" fill="none"/><line stroke="#A9ABAE" stroke-width="11.7" stroke-linecap="round" stroke-linejoin="round" stroke-miterlimit="10" x1="5.85" y1="30.423" x2="1178.97" y2="30.423" fill="none"/><polyline stroke="#A9ABAE" stroke-width="5.46" stroke-linecap="round" stroke-linejoin="round" stroke-miterlimit="10" points="5.85,7.021 35.176,30.421 64.503,7.021 93.829,30.421 123.155,7.021 152.483,30.421 181.809,7.021 211.135,30.421 240.462,7.021 269.789,30.421 299.116,7.021 328.444,30.421 357.773,7.021 387.1,30.421 416.421,7.021 445.746,30.421 475.071,7.021 504.394,30.421 533.72,7.021 563.049,30.421 592.375,7.021 621.7,30.421 651.025,7.021 680.352,30.421 709.679,7.021 739.01,30.421 768.337,7.021 797.666,30.421 826.995,7.021 856.323,30.421 885.653,7.021 914.984,30.421 944.308,7.021 973.636,30.421 1002.965,7.021 1032.297,30.421 1061.629,7.021 1090.963,30.421 1120.296,7.021 1149.633,30.421 1178.97,7.021" fill="none"/></svg>