<svg xmlns="http://www.w3.org/2000/svg" viewBox="0 0 50.3 40.46"><defs><style>.cls-1{fill:#ffa33e;}.cls-2{fill:#ffcc3e;}.cls-3{fill:#022289;}</style></defs><title>fish_yellow</title><g id="Layer_2" data-name="Layer 2"><g id="ART"><path class="cls-1" d="M13.49,31.35s.41,9.11,4.6,9.11V29.07"/><path class="cls-2" d="M50.3,9S50,20.79,45.09,20.79c0,0,4.94,2.86,4.94,11.9C41.29,33.75,40.42,9.29,50.3,9Z"/><path class="cls-1" d="M2.14,27.3c3,4.31,8.93,7.24,15.72,7.24,9.87,0,25.6-6.18,25.6-13.8S27.73,6.93,17.86,6.93,0,13.11,0,20.74H5.5Z"/><path class="cls-2" d="M4.63,22.9c3,4.32,10,7.31,16.81,7.31,9.86,0,22-1.85,22-9.47S27.73,6.93,17.86,6.93,0,13.11,0,20.74H5.5Z"/><path class="cls-2" d="M14,9.48S15.68,0,21,0V13"/><path class="cls-3" d="M12.93,18.26a3.1,3.1,0,1,1-3.09-3.1A3.09,3.09,0,0,1,12.93,18.26Z"/></g></g></svg>