<svg xmlns="http://www.w3.org/2000/svg" xmlns:xlink="http://www.w3.org/1999/xlink" viewBox="0 0 132.19 78.67"><defs><style>.cls-1{fill:url(#radial-gradient);}.cls-2,.cls-9{fill:#fff;}.cls-10,.cls-3{fill:none;stroke-linecap:round;stroke-miterlimit:10;stroke-width:2px;}.cls-3,.cls-9{stroke:#fff;}.cls-4{fill:#022289;}.cls-5{fill:#764acc;}.cls-6{fill:#673ab7;}.cls-7{fill:#48219e;}.cls-8{opacity:0.08;}.cls-9{stroke-linejoin:round;}.cls-10{stroke:#48219e;}</style><radialGradient id="radial-gradient" cx="14.93" cy="26.04" r="14.93" gradientUnits="userSpaceOnUse"><stop offset="0" stop-color="#ffeb3b"/><stop offset="1" stop-color="#ffeb3b" stop-opacity="0"/></radialGradient></defs><title>light_fish</title><g id="Layer_2" data-name="Layer 2"><g id="ART"><circle class="cls-1" cx="14.93" cy="26.04" r="14.93"/><path class="cls-2" d="M18.8,26.92a3.87,3.87,0,0,1-7.73,0c0-2.14,3.86-7,3.86-7S18.8,24.78,18.8,26.92Z"/><path class="cls-3" d="M15,21.21a20.21,20.21,0,1,1,40.41,0"/><path class="cls-4" d="M114,52l18.2,13.56V28.12l-22.86,12.7s8.16,3.66,8.87,5.48S114,52,114,52Z"/><polygon class="cls-4" points="105.04 59.62 116.36 65.56 97.64 78.67 78.91 69.54 105.04 59.62"/><polygon class="cls-4" points="83.61 13.54 76.54 22.45 99.68 33.37 107.79 25.37 83.61 13.54"/><path class="cls-5" d="M60.29,19.3s-25.51-4-28.15,32.75L17.71,49.47S38.46,88.39,82.84,72.24C100.68,65.74,122,45.73,122,45.73S79.05,18.24,60.29,19.3Z"/><path class="cls-6" d="M82.84,63.58C53.73,74.18,34.78,61.07,25.2,50.8l-7.49-1.33S38.46,88.39,82.84,72.24C100.68,65.74,122,45.73,122,45.73s-2.19-1.4-5.79-3.56C108.63,48.55,94.94,59.17,82.84,63.58Z"/><path class="cls-2" d="M61.63,31.9a6.27,6.27,0,1,1-7-5.46A6.28,6.28,0,0,1,61.63,31.9Z"/><path class="cls-4" d="M59,32.23a3.58,3.58,0,1,1-4-3.12A3.59,3.59,0,0,1,59,32.23Z"/><path class="cls-7" d="M76.54,45.46l0,.36a1.61,1.61,0,0,1,.72,2.88L93.7,54,92.59,39.64Z"/><polygon class="cls-8" points="77.29 48.7 90.74 57.87 91.41 53.28 77.29 48.7"/><polygon class="cls-9" points="19.19 49.6 22.83 43.39 25.14 50.78 19.19 49.6"/><polygon class="cls-9" points="29.6 51.3 32.33 46.83 34.57 52.05 29.6 51.3"/><polygon class="cls-9" points="39.03 52.21 41.15 48.1 42.85 52.22 39.03 52.21"/><polygon class="cls-9" points="48.74 51.82 50.47 48.5 52.94 51.72 48.74 51.82"/><path class="cls-10" d="M17.71,49.47S67.47,63.1,74.19,33.37"/></g></g></svg>