<svg xmlns="http://www.w3.org/2000/svg" viewBox="0 0 298.21 242.32" width="298.21" height="242.32"><defs><style>.cls-1{fill:#bc955c;}.cls-2{fill:#e1b77e;}.cls-3{fill:#fff;}.cls-4{fill:#76777a;}.cls-5{fill:#101820;}.cls-6{fill:#ca8342;}.cls-7{fill:#575195;}.cls-8{fill:#00b2e3;}.cls-9{fill:#e1251b;}</style></defs><title>reindeer_babies</title><g id="Layer_2" data-name="Layer 2"><g id="Layer_1-2" data-name="Layer 1"><g id="Layer_2-2" data-name="Layer 2"><g id="ART"><path class="cls-1" d="M277.48,156.09A33,33,0,0,1,265,153.56c-11.34-4.62-18.58-14.21-18.91-25a4,4,0,0,1,8-.25c.18,6,3.93,13.78,13.91,17.85,6.71,2.74,16.38,3.25,23.41-3.51a4,4,0,1,1,5.57,5.79A27.83,27.83,0,0,1,277.48,156.09Z"/><path class="cls-1" d="M204.16,242.32a3.93,3.93,0,0,1-1.56-.32,4,4,0,0,1-2.13-5.26c10.19-24.05,10.44-41.44,8.2-46.76a4,4,0,1,1,7.4-3.12c3.53,8.4,2.37,28-8.21,53A4,4,0,0,1,204.16,242.32Z"/><path class="cls-2" d="M167.56,146.73c12.29,7.78,26.61,16,26.61,16l26.1-41.24a22.78,22.78,0,0,1,31.42-7.06l1.06.68a22.76,22.76,0,0,1,7.07,31.4h0L233.66,187.8a22.76,22.76,0,0,1-31.39,7.08l0,0-46.61-29.38Z"/><path class="cls-1" d="M250.68,113.9a22.8,22.8,0,0,1,6.14,30.8l-26.11,41.24a23.21,23.21,0,0,1-2.49,3.24,31.3,31.3,0,0,1-1.34,5.5,22.59,22.59,0,0,0,6.78-6.88l26.1-41.24a22.77,22.77,0,0,0-7-31.41l-1.07-.68Z"/><path class="cls-3" d="M229.33,112.76a7.09,7.09,0,0,0,9.79-2.16c9.56-15.1,1.84-22.15-1.48-24.25L227.1,103a7.08,7.08,0,0,0,2.22,9.77Z"/><path class="cls-3" d="M202.25,194.86c-5.48-19.92-25.61-29.06-33.27-20.8Z"/><path class="cls-4" d="M148.63,151.69a2.81,2.81,0,0,1-2.51-1.53L140,138.35a8.79,8.79,0,0,1,3.75-11.85l7.45-3.8a3.16,3.16,0,0,0,1.35-4.21l-3.65-7a2.82,2.82,0,1,1,4.85-2.87l.15.28,3.65,7a8.78,8.78,0,0,1-3.75,11.82l-7.45,3.81a3.12,3.12,0,0,0-1.34,4.21l6.12,11.84a2.82,2.82,0,0,1-1.22,3.77A2.67,2.67,0,0,1,148.63,151.69Z"/><path class="cls-4" d="M134.33,146.35A2.82,2.82,0,0,1,133,141l9.09-4.68a2.82,2.82,0,0,1,2.79,4.9l-.19.1-9.09,4.72A2.83,2.83,0,0,1,134.33,146.35Z"/><path class="cls-2" d="M175.22,155.55c-6.44-12.42-18.48-13.1-26.33-9-11.53,6-19,24.72-25.12,37.76s3.79,16.85,10.79,13.21l32-16.5C174.88,176.68,180.7,166.11,175.22,155.55Z"/><path class="cls-3" d="M138,174.85a8.56,8.56,0,0,0,11.55,3.67h0A8.57,8.57,0,0,0,153.23,167h0a8.59,8.59,0,0,0-11.57-3.61h0A8.56,8.56,0,0,0,138,174.85Z"/><path class="cls-5" d="M143.39,171.42a4.1,4.1,0,0,0,1.21,5.67h0a4.11,4.11,0,0,0,5.68-1.22h0a4.1,4.1,0,0,0-1.23-5.66h0a4.1,4.1,0,0,0-5.66,1.2Z"/><path class="cls-6" d="M120.82,203.22a6.34,6.34,0,0,0,2.68-8.54h0A6.34,6.34,0,0,0,115,192h0a6.33,6.33,0,0,0-2.7,8.54h0a6.32,6.32,0,0,0,8.53,2.69Z"/><path class="cls-2" d="M248.55,233.37a4,4,0,0,1-4-3.89c-.6-18.41-10.48-32.91-30.19-44.34a4,4,0,0,1,4-6.95c22.3,12.93,33.49,29.63,34.19,51a4,4,0,0,1-3.88,4.15Z"/><path class="cls-2" d="M281.51,184.1c-20.4,0-32.11-14.11-34.83-42a4,4,0,0,1,8-.78c1.49,15.28,6.05,35.51,28.2,34.68a4,4,0,1,1,.29,8Z"/><path class="cls-7" d="M152.13,138l-5.87,6.26-8.06,3a3.39,3.39,0,0,0-2,4.39,2.87,2.87,0,0,0,.32.63l2.17,3.28a3.38,3.38,0,0,0,4.69,1A3.42,3.42,0,0,0,144,156l5.87-6.26,8.06-3a3.39,3.39,0,0,0,2-4.36,3.9,3.9,0,0,0-.35-.71l-2.2-3.27a3.4,3.4,0,0,0-4.71-.92A3.73,3.73,0,0,0,152.13,138Z"/><circle class="cls-8" cx="148.07" cy="146.95" r="4.72"/></g></g><g id="Layer_2-3" data-name="Layer 2"><g id="ART-2" data-name="ART"><path class="cls-1" d="M36.44,181.85a4,4,0,0,1-2.57-7.1c14.31-11.93,15.2-27.16,3.07-52.57a4,4,0,1,1,7.24-3.46C53.39,138,61.12,162.49,39,180.92A4,4,0,0,1,36.44,181.85Z"/><path class="cls-1" d="M111.34,150.32a3.86,3.86,0,0,1-1.41-.26,4,4,0,0,1-2.35-5.17c8.07-21.41,6-38.28-6.46-53.09a4,4,0,0,1,6.14-5.17c14.34,17,16.91,37,7.84,61.09A4,4,0,0,1,111.34,150.32Z"/><path class="cls-2" d="M67.42,40.24c6.45,13,13.17,28.14,13.17,28.14L36.85,90a22.77,22.77,0,0,0-10.32,30.51v0l.57,1.13A22.77,22.77,0,0,0,57.61,132h0l43.74-21.66a22.77,22.77,0,0,0,10.31-30.5L87.3,30.4Z"/><path class="cls-1" d="M26,119.53a22.78,22.78,0,0,0,30,9.32L99.8,107.2a24,24,0,0,0,3.49-2.14,31.15,31.15,0,0,0,5.61-.76,22.61,22.61,0,0,1-7.55,6L57.61,132a22.77,22.77,0,0,1-30.5-10.3h0l-.57-1.13C26.38,120.21,26.22,119.87,26,119.53Z"/><path class="cls-3" d="M27.18,98.18A7.07,7.07,0,0,1,24,107.67h0c-16,7.93-22.22-.48-24-4l17.65-8.74a7.09,7.09,0,0,1,9.51,3.19Z"/><path class="cls-3" d="M111.66,79.82c-19.25-7.53-26.36-28.12-16-32.89Z"/><path class="cls-2" d="M67.42,40.24c-6.27-12.5.25-22.66,8.19-26.59,11.68-5.77,31.19-.88,45.32,1.85s11.4,12.94,4.34,16.48L93.15,48.15C84.73,52.37,72.75,50.87,67.42,40.24Z"/><rect class="cls-9" x="48.02" y="33.13" width="25.97" height="5.41" transform="translate(-9.53 41.4) rotate(-34.94)"/><path class="cls-8" d="M102.54,10.12a23.66,23.66,0,1,0-38.8,27.1Z"/><path class="cls-5" d="M95.53,10.61a8.22,8.22,0,1,0-13.69,9.1L82,20Z"/><path class="cls-3" d="M104.9,21.45A8.57,8.57,0,0,1,101.11,33L101,33h0a8.57,8.57,0,0,1-11.5-3.82h0a8.57,8.57,0,0,1,3.82-11.5h0a8.57,8.57,0,0,1,11.5,3.82Z"/><path class="cls-5" d="M98.87,18.65A4.11,4.11,0,0,1,102.75,23h0a4.13,4.13,0,0,1-4.33,3.88h0a4.11,4.11,0,0,1-3.87-4.32h0a4.11,4.11,0,0,1,4.31-3.89h0Z"/><path class="cls-6" d="M138,24.2a6.33,6.33,0,0,1-8.48-2.84h0a6.33,6.33,0,0,1,2.83-8.49h0a6.33,6.33,0,0,1,8.49,2.84h0A6.33,6.33,0,0,1,138,24.2Z"/><path class="cls-2" d="M118.55,102.15c-8.22,0-16.71-1.87-25.09-4.3a4,4,0,1,1,2.24-7.71c22.2,6.43,38.58,6.76,51.67-11.48a4,4,0,1,1,6.52,4.68C143.69,97.56,131.44,102.15,118.55,102.15Z"/><path class="cls-2" d="M70.24,173.8h-.19a4,4,0,0,1-3.82-4.2c1.17-24.94-.66-40-13.45-43.27a4,4,0,0,1,2-7.79C76.4,124.05,75.11,151.69,74.25,170A4,4,0,0,1,70.24,173.8Z"/></g></g></g></g></svg>