<svg xmlns="http://www.w3.org/2000/svg" viewBox="0 0 252.66 355"><defs><style>.cls-1{fill:#da4637;}.cls-2,.cls-3{fill:#333;}.cls-2{opacity:0.2;}.cls-10,.cls-4,.cls-9{fill:none;}.cls-4{stroke:#da4637;stroke-width:33.25px;}.cls-10,.cls-4{stroke-linecap:round;stroke-linejoin:round;}.cls-5{fill:#00b2ee;}.cls-6{fill:#bbe5fa;}.cls-7{fill:#8e24aa;}.cls-8{fill:#ab47bc;}.cls-10,.cls-9{stroke:#fff;}.cls-9{stroke-miterlimit:10;stroke-width:4.16px;}.cls-10{stroke-width:6.23px;}.cls-11{fill:#fff;}.cls-12{fill:#f8bf15;}</style></defs><title>robot_purple</title><g id="Layer_2" data-name="Layer 2"><g id="ART"><rect class="cls-1" x="77.28" y="232.38" width="33.25" height="114.31"/><polygon class="cls-2" points="110.53 269.03 77.28 264.87 77.28 221.99 110.53 221.99 110.53 269.03"/><rect class="cls-3" x="71.04" y="335.26" width="45.72" height="19.74"/><path class="cls-1" d="M79.35,326.94h29.1a8.31,8.31,0,0,1,8.31,8.31v11.43a0,0,0,0,1,0,0H71a0,0,0,0,1,0,0V335.26A8.31,8.31,0,0,1,79.35,326.94Z"/><path class="cls-1" d="M101.7,298.89H86.11a13,13,0,0,1-13-13h0a13,13,0,0,1,13-13H101.7a13,13,0,0,1,13,13h0A13,13,0,0,1,101.7,298.89Z"/><path class="cls-4" d="M199.94,135.42S229.8,156,229.8,233.93"/><path class="cls-5" d="M251,259c0-11.48-8.43-20.79-19.91-20.79A20.72,20.72,0,0,0,210.41,259c0,10,5.52,18.37,16.6,20.34v-9.47c-5.54-1.7-7.07-5.92-7.07-10.87a11.84,11.84,0,0,1,11.87-11.69c6.45,0,10,5.23,10,11.69,0,5-3.75,9.3-9.29,10.95v9.43C243.64,277.48,251,269.08,251,259Z"/><path class="cls-6" d="M250,263.14a20.49,20.49,0,0,0-20.44-20.78c-11.47,0-19.92,9.3-19.92,20.78,0,10,6.3,18.38,17.38,20.34V274a10.8,10.8,0,0,1-8.11-10.88,11.41,11.41,0,0,1,11.35-11.69c6.45,0,10.81,5.24,10.81,11.69,0,5-3,9.31-8.51,11v9.42C243.64,281.64,250,273.23,250,263.14Z"/><rect class="cls-7" x="206.94" y="226.55" width="45.72" height="19.74"/><path class="cls-4" d="M53.15,135.42S23.28,156,23.28,233.93"/><path class="cls-5" d="M0,259A20.92,20.92,0,0,1,20.94,238.2c11.48,0,21.93,9.31,21.93,20.79,0,10-4.29,18.37-15.38,20.34v-9.47c5.55-1.7,6.37-5.92,6.37-10.87,0-6.46-5.77-11.69-12.22-11.69S9.36,252.53,9.36,259c0,5,1.51,9.3,7.05,10.95v9.43C10.87,277.48,0,269.08,0,259Z"/><path class="cls-6" d="M1,263.14c0-11.48,10-20.78,21.46-20.78s21.15,9.3,21.15,20.78c0,10-5.07,18.38-16.16,20.34V274c5.55-1.7,7.41-5.93,7.41-10.88a11.71,11.71,0,0,0-11.71-11.69c-6.45,0-13,5.24-13,11.69,0,5,.73,9.31,6.27,11v9.42C10.87,281.64,1,273.23,1,263.14Z"/><rect class="cls-7" x="0.42" y="226.55" width="45.72" height="19.74" transform="translate(46.57 472.85) rotate(180)"/><rect class="cls-1" x="139.63" y="232.38" width="33.25" height="114.31"/><polygon class="cls-2" points="172.88 269.03 139.63 264.87 139.63 221.99 172.88 221.99 172.88 269.03"/><rect class="cls-3" x="133.39" y="335.26" width="45.72" height="19.74"/><path class="cls-1" d="M141.7,326.94h29.1a8.31,8.31,0,0,1,8.31,8.31v11.43a0,0,0,0,1,0,0H133.39a0,0,0,0,1,0,0V335.26A8.31,8.31,0,0,1,141.7,326.94Z"/><path class="cls-1" d="M164.05,298.89H148.46a13,13,0,0,1-13-13h0a13,13,0,0,1,13-13h15.59a13,13,0,0,1,13,13h0A13,13,0,0,1,164.05,298.89Z"/><rect class="cls-8" x="60.53" y="114.91" width="128.85" height="72.74" rx="8.31" ry="8.31"/><rect class="cls-7" x="60.53" y="137.77" width="128.85" height="114.31" rx="8.31" ry="8.31"/><rect class="cls-3" x="92.75" y="149.72" width="64.43" height="57.15" rx="8.31" ry="8.31"/><line class="cls-9" x1="53.03" y1="37.46" x2="67.92" y2="79.75"/><path class="cls-1" d="M106.72,105H73A18.18,18.18,0,0,1,54.76,86.86h0A18.18,18.18,0,0,1,73,68.67h33.77Z"/><circle class="cls-1" cx="52.34" cy="38.19" r="6.23"/><line class="cls-9" x1="197.82" y1="37.46" x2="182.92" y2="79.75"/><path class="cls-1" d="M143.44,105h33.77a18.18,18.18,0,0,0,18.18-18.18h0a18.18,18.18,0,0,0-18.18-18.19H143.44Z"/><circle class="cls-1" cx="198.51" cy="38.19" r="6.23"/><rect class="cls-8" x="72.95" y="27.62" width="103.91" height="72.74"/><polygon class="cls-1" points="147.94 40.09 102.22 40.09 123 6.84 127.16 6.84 147.94 40.09"/><line class="cls-10" x1="147.94" y1="40.09" x2="102.22" y2="40.09"/><rect class="cls-7" x="72.95" y="50.49" width="103.91" height="72.74"/><circle class="cls-1" cx="95.98" cy="79.75" r="12.47"/><path class="cls-6" d="M103,79.75a7,7,0,1,1-7-7A7,7,0,0,1,103,79.75Z"/><path class="cls-11" d="M132.09,7a7,7,0,1,1-7-7A7,7,0,0,1,132.09,7Z"/><circle class="cls-1" cx="154.17" cy="79.75" r="12.47"/><path class="cls-6" d="M161.19,79.75a7,7,0,1,1-7-7A7,7,0,0,1,161.19,79.75Z"/><rect class="cls-3" x="95.98" y="101.4" width="58.19" height="12.47"/><rect class="cls-6" x="100.14" y="158.17" width="49.88" height="10.39"/><rect class="cls-6" x="100.14" y="176.87" width="24.94" height="23.34"/><path class="cls-12" d="M138.15,197.3H137a8.76,8.76,0,0,1-8.76-8.76h0a8.76,8.76,0,0,1,8.76-8.75h1.2a8.75,8.75,0,0,1,8.75,8.75h0A8.76,8.76,0,0,1,138.15,197.3Z"/></g></g></svg>