<svg xmlns="http://www.w3.org/2000/svg" viewBox="0 0 115.47 340.71" width="115.47" height="340.71"><defs><style>.cls-1{isolation:isolate;}.cls-11,.cls-2{fill:none;stroke-linecap:round;stroke-linejoin:round;stroke-width:15px;}.cls-2{stroke:#bc955c;}.cls-3{fill:#e1b77e;}.cls-4{fill:#bc955c;}.cls-5{fill:#fff;}.cls-6,.cls-9{opacity:0.2;mix-blend-mode:multiply;}.cls-7,.cls-9{fill:#231f20;}.cls-8{fill:#76777a;}.cls-10{fill:#e53935;}.cls-11{stroke:#e1b77e;}</style></defs><title>rudolph_front</title><g class="cls-1"><g id="Layer_2" data-name="Layer 2"><g id="ART"><line class="cls-2" x1="26.52" y1="222.34" x2="26.52" y2="332.84"/><line class="cls-2" x1="89.76" y1="212.33" x2="89.76" y2="322.83"/><path class="cls-3" d="M107.79,197.87a51.56,51.56,0,1,1-51.56-51.56A51.55,51.55,0,0,1,107.79,197.87Z"/><path class="cls-4" d="M89.83,159A51.29,51.29,0,0,1,98.72,188c0,27.07-16.84,48.35-43.37,50.47-1.37.11-13.2-29.2-14.6-29.2-3.92,0-1.33,29.85-5,29a51.57,51.57,0,0,1-21.71-10.77A51.56,51.56,0,1,0,89.83,159Z"/><path class="cls-3" d="M30.82,182.19V77.61a26.76,26.76,0,0,1,53.51,0V193.54"/><path class="cls-5" d="M57.34,129.68A20.18,20.18,0,0,1,40.74,121a17.66,17.66,0,0,0-1.57,7.27v41.52a17.86,17.86,0,0,0,35.71,0V128.26a17.81,17.81,0,0,0-1.33-6.75A20.18,20.18,0,0,1,57.34,129.68Z"/><g class="cls-6"><path class="cls-7" d="M57.58,50.86c-.82,0-1.63,0-2.43.12A30.87,30.87,0,0,0,33.42,80.44V92.72c0,57.34,33.14,70.9,50.91,44.48V77.61A26.75,26.75,0,0,0,57.58,50.86Z"/></g><path class="cls-3" d="M84.33,87.84V77.61a26.76,26.76,0,0,0-53.51,0V88.26C30.82,156.21,84.33,153.28,84.33,87.84Z"/><path class="cls-3" d="M32.72,73.77,17.18,52.69S8.31,107.06,38.26,100.4Z"/><path class="cls-3" d="M80.28,73.77,95.81,52.69s8.88,54.37-21.07,47.71Z"/><path class="cls-8" d="M50.79,60.65a3.21,3.21,0,0,1-3.2-3.21V36.27a3.21,3.21,0,0,0-3.2-3.21H27.45a9.62,9.62,0,0,1-9.6-9.6V13.28a3.21,3.21,0,0,0-3.21-3.2H3.2a3.21,3.21,0,0,1,0-6.41H14.64a9.62,9.62,0,0,1,9.61,9.61V23.46a3.21,3.21,0,0,0,3.2,3.2H44.39A9.62,9.62,0,0,1,54,36.27V57.44A3.21,3.21,0,0,1,50.79,60.65Z"/><path class="cls-8" d="M25,47.89H15.3a9.62,9.62,0,0,1-9.6-9.61V30.13a3.2,3.2,0,1,1,6.4,0v8.15a3.21,3.21,0,0,0,3.2,3.2H25a3.21,3.21,0,0,0,3.2-3.2V31.66a3.2,3.2,0,0,1,6.4,0v6.62A9.62,9.62,0,0,1,25,47.89Z"/><path class="cls-8" d="M37.67,19.43H21.6a3.21,3.21,0,1,1,0-6.41H37.67a3.2,3.2,0,0,0,3.2-3.2V3.2a3.2,3.2,0,0,1,6.4,0V9.82A9.62,9.62,0,0,1,37.67,19.43Z"/><path class="cls-8" d="M91.51,19.43H75.44a9.62,9.62,0,0,1-9.61-9.61V3.2a3.2,3.2,0,1,1,6.4,0V9.82A3.21,3.21,0,0,0,75.44,13H91.51a3.21,3.21,0,0,1,0,6.41Z"/><path class="cls-8" d="M64.68,60.65a3.21,3.21,0,0,1-3.21-3.21V36.27a9.62,9.62,0,0,1,9.61-9.61H88a3.21,3.21,0,0,0,3.2-3.2V13.28a9.62,9.62,0,0,1,9.61-9.61h11.44a3.21,3.21,0,0,1,0,6.41H100.83a3.21,3.21,0,0,0-3.21,3.2V23.46a9.62,9.62,0,0,1-9.6,9.6H71.08a3.21,3.21,0,0,0-3.2,3.21V57.44A3.21,3.21,0,0,1,64.68,60.65Z"/><path class="cls-8" d="M100.16,47.89H90.5a9.62,9.62,0,0,1-9.6-9.61V31.66a3.2,3.2,0,0,1,6.4,0v6.62a3.21,3.21,0,0,0,3.2,3.2h9.66a3.21,3.21,0,0,0,3.21-3.2V30.13a3.2,3.2,0,1,1,6.4,0v8.15A9.62,9.62,0,0,1,100.16,47.89Z"/><path class="cls-9" d="M59.77,128.3a10.47,10.47,0,0,1-10.45-10.49h0a10.47,10.47,0,0,1,10.49-10.45h0a10.46,10.46,0,0,1,10.44,10.49h0A10.46,10.46,0,0,1,59.77,128.3Z"/><path class="cls-10" d="M56.41,122.85A10.47,10.47,0,0,1,46,112.35h0a10.46,10.46,0,0,1,10.48-10.44h0A10.46,10.46,0,0,1,66.9,112.4h0a10.47,10.47,0,0,1-10.49,10.45Z"/><path class="cls-5" d="M43.93,88.56a5.78,5.78,0,0,1-5.77-5.79h0A5.78,5.78,0,0,1,44,77h0a5.77,5.77,0,0,1,5.77,5.79h0a5.79,5.79,0,0,1-5.79,5.77Z"/><path class="cls-7" d="M45.49,83.6a2.77,2.77,0,0,1,1,3.78h0a2.78,2.78,0,0,1-3.78,1h0a2.77,2.77,0,0,1-1-3.78h0a2.77,2.77,0,0,1,3.78-1Z"/><path class="cls-5" d="M71.69,88.56a5.77,5.77,0,0,0,5.76-5.79h0A5.76,5.76,0,0,0,71.66,77h0a5.78,5.78,0,0,0-5.77,5.79h0a5.8,5.8,0,0,0,5.8,5.77Z"/><path class="cls-7" d="M70.12,83.6a2.77,2.77,0,0,0-1,3.78h0a2.77,2.77,0,0,0,3.77,1h0a2.76,2.76,0,0,0,1-3.78h0a2.77,2.77,0,0,0-3.78-1Z"/><line class="cls-11" x1="82.73" y1="210.97" x2="82.73" y2="333.21"/><line class="cls-11" x1="33.22" y1="207.99" x2="33.22" y2="288.47"/></g></g></g></svg>