<svg xmlns="http://www.w3.org/2000/svg" viewBox="0 0 105.65 66.65" width="105.65" height="66.65"><defs><style>.cls-1{fill:#dbdbdb;}.cls-2{fill:#ffe200;}.cls-3{fill:#f9f9f9;}.cls-4{fill:#333;}</style></defs><title>seagull_fly2</title><g id="Layer_2" data-name="Layer 2"><g id="ART"><path class="cls-1" d="M45.34,58.14S-1.61,7.09,52.77,0L60.6,58.85Z"/><path class="cls-2" d="M0,66.65l2.48-.71H22v-10C13.16,58.89,5.46,62.56,0,66.65Z"/><path class="cls-3" d="M22,55.92v10H89.34C82.09,43.65,54.39,45,22,55.92Z"/><path class="cls-3" d="M53.18,58.14S33.32,7.09,91.47,0L68.07,58.85Z"/><path class="cls-3" d="M76.4,64.34l3,1.6h26.24V55.39C96.51,57.63,86.54,60.93,76.4,64.34Z"/><path class="cls-4" d="M29.07,59.56a2.13,2.13,0,1,1-2.13-2.13A2.13,2.13,0,0,1,29.07,59.56Z"/></g></g></svg>