<svg xmlns="http://www.w3.org/2000/svg" viewBox="0 0 825.07 740" width="825.07" height="740"><defs><style>.cls-1{fill:#e1251b;}.cls-2{fill:#fd0;}.cls-3{fill:#43b2e5;}.cls-4{fill:#95d4e9;}.cls-5{fill:#fff;}.cls-6{fill:#f9f9f9;}.cls-7{fill:#212120;}.cls-8{fill:#221f1f;}.cls-9{fill:#00b451;}</style></defs><title>snowman_big_tub</title><g id="Layer_2" data-name="Layer 2"><g id="ART"><path class="cls-1" d="M825.07,578c0,89.46-184.7,162-412.53,162S0,667.48,0,578V403.44H825.07Z"/><path class="cls-2" d="M825.07,426.2c0,89.46-184.7,162-412.53,162S0,515.66,0,426.2V403.44H825.07Z"/><ellipse class="cls-1" cx="412.54" cy="403.44" rx="412.54" ry="161.98"/><path class="cls-2" d="M718.38,403.41a43,43,0,0,1-4.47,18.83c-24.69,52.06-150.23,91.65-301.37,91.65S135.8,474.3,111.16,422.24a43,43,0,0,1-4.46-18.83c0-61,136.89-110.43,305.84-110.43S718.38,342.41,718.38,403.41Z"/><path class="cls-3" d="M713.91,422.24c-24.69,52.06-150.23,91.65-301.37,91.65S135.8,474.3,111.16,422.24c24.74-52,150.23-91.61,301.38-91.61S689.17,370.22,713.91,422.24Z"/><ellipse class="cls-4" cx="408.35" cy="418.88" rx="41.54" ry="20.22"/><ellipse class="cls-4" cx="412.54" cy="359.65" rx="119.21" ry="29.01"/><ellipse class="cls-4" cx="217.81" cy="461.35" rx="22.86" ry="11.13"/><ellipse class="cls-5" cx="427.82" cy="353.46" rx="34.29" ry="16.69"/><ellipse class="cls-4" cx="473.54" cy="450.23" rx="22.86" ry="11.13"/><ellipse class="cls-4" cx="617.36" cy="445.22" rx="21.58" ry="12.27"/><ellipse class="cls-4" cx="333.89" cy="484.75" rx="21.58" ry="12.27"/><ellipse class="cls-4" cx="561.91" cy="472.48" rx="17.77" ry="9.73"/><path class="cls-6" d="M475.8,130.41a65.77,65.77,0,0,1-131.53,0c0-36.32,29.44-101.55,65.77-101.55S475.8,94.09,475.8,130.41Z"/><path class="cls-6" d="M561.89,210.74a68.55,68.55,0,0,0-49-19.17l-18,.31a27.84,27.84,0,0,0-25.08,16.82,96.68,96.68,0,0,0-114.57,0,27.82,27.82,0,0,0-25.07-16.82l-18-.31a68.74,68.74,0,0,0-69.92,63.69l15.84-2.06q24-3.81,49.44-6.45l18.08-2.35a98.7,98.7,0,0,0-9.9,43.26v66.75s13.74,21.51,96.82,21.51,96.82-21.51,96.82-21.51V287.66a98.7,98.7,0,0,0-9.91-43.26l18.08,2.35q25.4,2.63,49.45,6.45l15.83,2.06A67.85,67.85,0,0,0,561.89,210.74Z"/><path class="cls-7" d="M436.12,128.09a7,7,0,1,0,7-7A7,7,0,0,0,436.12,128.09Z"/><path class="cls-7" d="M392.77,127.8a7,7,0,1,0,7-7A7,7,0,0,0,392.77,127.8Z"/><path class="cls-8" d="M417,155.39c0,5.38,3.12,7,7,7s7-1.6,7-7Z"/><path class="cls-1" d="M410,26.39c-22.77,0-42.84,21.43-54.64,53.7H464.67C452.86,47.82,432.8,26.39,410,26.39Z"/><circle class="cls-6" cx="410.04" cy="16.53" r="16.53"/><path class="cls-9" d="M477.08,89c0,5.53-6.3,12.57-11.92,12.57H352.34c-5.62,0-9.73-7-9.73-12.57V84c0-5.53,4.11-9.32,9.73-9.32H465.16c5.62,0,11.92,3.79,11.92,9.32Z"/><rect class="cls-1" x="423.29" y="203.8" width="26.89" height="75.3"/><rect class="cls-1" x="358.75" y="176.91" width="102.2" height="26.89"/><path class="cls-1" d="M424,148.44a12.27,12.27,0,0,0,12.23-12.29h0a12.26,12.26,0,0,0-12.28-12.24h0a12.26,12.26,0,0,0-12.24,12.29h0A12.26,12.26,0,0,0,424,148.44Z"/></g></g></svg>