<svg xmlns="http://www.w3.org/2000/svg" viewBox="0 0 195.55 320"><defs><style>.cls-1{isolation:isolate;}.cls-2{fill:#c8a276;}.cls-3{fill:#af825a;}.cls-4{fill:#c19467;}.cls-5{opacity:0.2;mix-blend-mode:multiply;}.cls-6{fill:#231f20;}.cls-7{fill:#da4637;}.cls-8{fill:#e53935;}.cls-9{fill:#fff;}.cls-10{fill:#d3d4d6;}.cls-11{fill:#212121;}.cls-12{fill:#f9c0dd;}</style></defs><title>walrus</title><g class="cls-1"><g id="Layer_2" data-name="Layer 2"><g id="ART"><path class="cls-2" d="M175.58,168.34c10.13-39.33-24.88-87.73-43-87.75C94,74.34,141.68,165.9,175.58,168.34Z"/><path class="cls-3" d="M175.58,168.34c10.13-39.33-24.88-87.73-43-87.75C94,74.34,141.68,165.9,175.58,168.34Z"/><path class="cls-2" d="M131.73,176.76c29.61-11.19,63.82,28.94,63.82,28.94s-18.42,17.11-51.32,3.29c0,0,4,29.61-13.81,36.85S110,220.18,110,220.18l13.82-40.13Z"/><path class="cls-3" d="M131.73,176.76c29.61-11.19,63.82,28.94,63.82,28.94s-18.42,17.11-51.32,3.29c0,0,4,29.61-13.81,36.85S110,220.18,110,220.18l13.82-40.13Z"/><ellipse class="cls-4" cx="90.48" cy="128.57" rx="65.37" ry="72.76"/><g class="cls-5"><path class="cls-6" d="M95.84,93.78a40.42,40.42,0,0,0,35.83-21.7A61.14,61.14,0,0,0,90.48,55.81a60.13,60.13,0,0,0-33.1,10A40.44,40.44,0,0,0,95.84,93.78Z"/></g><g class="cls-5"><path class="cls-6" d="M138.93,79.73a79.55,79.55,0,0,1,4.64,26.91c0,40.19-29.27,72.76-65.37,72.76-19.21,0-36.49-9.23-48.45-23.92,9.62,26.86,33.17,45.85,60.73,45.85,36.11,0,65.37-32.57,65.37-72.76A77.19,77.19,0,0,0,138.93,79.73Z"/></g><polygon class="cls-7" points="50.82 183.99 29.54 316.98 129.82 316.98 113.99 183.99 50.82 183.99"/><polygon class="cls-7" points="130.37 183.99 113.99 183.99 129.82 316.98 153.22 316.98 130.37 183.99"/><polygon class="cls-8" points="129.82 316.98 29.54 316.98 50.82 183.99 113.99 183.99 129.82 316.98"/><g class="cls-5"><polygon class="cls-6" points="130.37 183.99 113.99 183.99 129.82 316.98 153.22 316.98 130.37 183.99"/></g><path class="cls-9" d="M156.54,315.33a4.75,4.75,0,0,1-4.79,4.67H29.65a4.74,4.74,0,0,1-4.78-4.67v-8.17a4.74,4.74,0,0,1,4.78-4.67h122.1a4.75,4.75,0,0,1,4.79,4.67Z"/><path class="cls-10" d="M156.54,315.33a4.75,4.75,0,0,1-4.79,4.67H130.7a4.74,4.74,0,0,1-4.78-4.67v-8.17a4.74,4.74,0,0,1,4.78-4.67h21.05a4.75,4.75,0,0,1,4.79,4.67Z"/><path class="cls-4" d="M5.63,0C-11.47,36.84,14.19,90.79,32,94.08,68.79,107.24,38.53,8.55,5.63,0Z"/><circle class="cls-4" cx="91.45" cy="41.94" r="40.44"/><g class="cls-5"><path class="cls-6" d="M111.75,7A40.43,40.43,0,0,1,65,72.52,40.43,40.43,0,1,0,111.75,7Z"/></g><path class="cls-9" d="M70.28,56s-3.53,33.7,9,46.21v-43"/><path class="cls-9" d="M111.36,56s3.53,33.7-9,46.21v-43"/><path class="cls-11" d="M101.22,40.75a9.5,9.5,0,1,1-9.49-9.49A9.5,9.5,0,0,1,101.22,40.75Z"/><path class="cls-12" d="M104.94,34.25A15.83,15.83,0,0,0,91.33,42a15.89,15.89,0,1,0,0,16.29,15.87,15.87,0,1,0,13.61-24Z"/><g class="cls-5"><path class="cls-6" d="M117.89,41A15.87,15.87,0,0,1,89.14,53.89a15.86,15.86,0,0,1-26.57,1,15.87,15.87,0,0,0,28.76,3.36A15.86,15.86,0,1,0,117.89,41Z"/></g><path class="cls-11" d="M79,23.86a4.69,4.69,0,1,1-4.68-4.69A4.68,4.68,0,0,1,79,23.86Z"/><path class="cls-11" d="M110.72,23.86A4.69,4.69,0,1,1,106,19.17,4.69,4.69,0,0,1,110.72,23.86Z"/></g></g></g></svg>