<svg xmlns="http://www.w3.org/2000/svg" viewBox="0 0 100.1 100.1"><path fill="#F6F3EF" d="M32.8 20.7h27.8v48.4H32.8z"/><path fill="#F6F3EF" d="M32.8 20.7h27.8v48.4H32.8z"/><path fill="#81D4FA" d="M36.4 23.3h21.7v43.3H36.4z"/><path fill="#2D9720" d="M46.4 25.3v.1zm2.3-1h-.1.1zM50.4 36v.2l.8.3.5-.3.1-.2.1.1h.1l.2-.6-.1-.2H52V35l-.1-.1-.1.1-.1-.1h-.1l-.1.1v.1h-.3V35l-.2.1v.1l-.1-.1-.1.2-.1-.1h.1l-.4-.3h-.1v.2h-.1v.1h-.1l-.1.3h.5l-.3.3v.1l.2-.1.1.2zm-3.5-11.6h.1-.3v.1h.1zM58.1 39v-.1H58zm-.7-11.8h-.1l-.1.1.1.3h.1l.1.1h-.2l.1.4.2.1v.1l.2.3h.1l.2-.5V27h-.5zm-13-2.6h-.3l-.9.1.9-.1zm5-.5l-.1-.1v.1zm-3.1 1.3h.1zm.2 0v-.2l-.2-.6v.1l.1.7zm.2-.9h-.4v.1zm2.5-.5v-.2l-.1.2h.2zM40 47.4l-.1.1v.2h.1v.1l.1.1.1-.2h-.1v-.1zm-.1 1.6l.5.1.1-.1-.1-.1-.4-.1zm.8-1v.1l.1.1.1-.2z"/><path fill="#2D9720" d="M47.6 35.3h.4l.1-.2h.2V35l.2-.6.6-.2v-.1l1-.5.4-.2h.5v-.2h-.5l.1-.3h.2v-.7h-.1v-.1h.4V32h-.2l-.1-.4h-.1v-.2l-.2-.1.5-.2v-.4h-.1l.3-.1.1-.2-.2-.4h-.2v-.2l.1-.1.1.1.6.1-.1-.2h-.1v-.1h-.3v-.3l-.2-.1.2-.1-.1-.1-.4-.4.2-.1v-.1l.6.1v-.7l-.6-.1.2-.1.2.1.1-.1v-.1l-.4-.1-.2-.1v.4h-.5v-.8l.3-.1h-.2l-.5-.1h.2l.1-.1h.9v-.2l-.1.1.3-.3-.3-.4-.4-.1h-.2v-.3.1-.3h-.2.2-.1v-.1l.1-.1h.1l-.4-.3h-.3v.1l-.3-.1h.1v-.1l.1.1.1-.1-.1-.2-1.1.1v.1l-.1-.1-.5-.1h-.1.1v-.1.1h-.1v-.1l.3-.1h.7l.3-.1V24l-.2-.1h-.1l-.2-.3-.2.2-.3-.1.1-.1-.4.1h-.1l-.1.1h-.1v.2l-.1-.1H47l-.1.1h-.1v.1l.1.1v.1h.3-.3v.1l-.1.1v.6l.1.1-.1.1h-.2l-.1-.3-.2-.5h-.2v.7l-.1-.1v.1h-.1l-.1-.3-.8.4.2-.3v-.1l.1-.5h-.2v.2l-.1-.1-.1.1h-.8v.1l-.1.1v.3l-.2.2-.2.2-.1-.2h-.1l-.1.5v-.5l-.3.2h-.1l-.2.1-.1.1v.1l-.1.1h-.9.8l-.4.2h-.4.8l.3.1v.1h.2l-.3.4h-1l-.4.1h-.3l.1.1-.1.1h.1v.1l.4.4v.1h.1v.1l.7-.1v.1h-.1l-.1-.1-.8.4v.2l.2.2v.1h.2l-.1.3.7.5V29h.1l.1.1.4-.3.8.6.3.6h.1v.3l.3.9-.1.1.1.1-.1.5h.1v.1h.1l-.1.1.1.3.4-.1v-.2.1h.1l-.1.1h.2l.1.3-.6-.1h.1l.1.1-.1.2-.1.1v.1l.1.1.2.1.3-.3-.1-.2h.2v.2l-.2.9h-.2l-.1.2h-.1.1v.1l-.1.5.1.1-.1.2.1.4.1.1.1.4h.1v.3h.1l.1.2v.1l.1.3.1.3v.1l.1.1v.1l.2.2h.1v.1h.1l.3-.1v.2l.1.2h.2v-.1.1h.1v-.1h.1l.2-1 .2-.1.1-.6h.1l-.1-.2h.1l.1-.2-.1-.1h.3v-.3zm1.3-8.6zm.1-.1l.1-.1-.1.1zm.5 6.1zm1 .2zm-.3-2l.2.1-.2-.1zm-.1.7zm.1 1.3l-.3-.1.2-.1v-.1l.1.3zm-.2-1.5zm-.1-4.5h.2-.2zm0 5.9h-.1.1zm.3-7.4l-.1.5v.2-.3l-.2.3h-.1l-.1.1h-.2l-.2.1-.1.1.2-.2.2-.7.2.1.1-.1v-.1h-.3l-.1.3h-.1l-.1-.1-.4.1v-.1l.2-.1v-.1l.2-.2h.9zm-1.1 0h-.2l-.1-.2.3.2zm-1.1.2l.5-.3h-.1.1l.2-.1-.2.3-.4.1v.1l-.1-.1zm-6.4 1.3zm5.5-2l-.1-.3.1.1h.1l.1.1v.1h-.2zm-6.9 22.5h.1v-.2l-.1-.1v.1h-.1v-.1h-.2l-.1.1.1.1h.2l.1.1zm0-10.8v-.2l-.2-.1-.1.1.1.2zM42 49l.1.1.3-.1v-.1h-.3zm-1.2-.5l-.3-.1-.3-.2v-.1l-.3-.1-.2-.1-.9.1-.1.2v.1l.3-.1v.2l.2-.1-.1-.1.1-.1.9.5H40v.1l.8-.1zM39 36.7l-.1.3h.2l.3-.3-.1-.1h-.1zm17.3 7l-.1.1v.4l.1.2h.1l.1-.1.1-.6h-.1v-.5h-.1v.1l-.1.1.1.3h-.1zm-.7.3h-.3l-.2.2.2.1h.1l.1-.2h.1V44zm-.2.1zm-.5.2v.1h.1l.1-.1v-.1H55zm-14.1 4.2l.2-.1v-.1l-.2.1zm0 .6h.3l.1.1h.1l.1-.1.5-.1v-.2l-1-.2-.1.1.1.1-.2.1v.1zM58 59.5l.1.1v-.3l-.1.1z"/><path fill="#2D9720" d="M57.6 45.9l-.7-.2-.1-.1h-.1l.2-.3v-.1l-.1-.2.1-.2-.1-.1h-.1l-.1-.1-2.7.5-.1-.1.6-.1.1-.2h.1l.2-.3v-.1h-.1l.7-.7v-.2l.1-.1.4.1.5-.3.2.1.2.4h.1l.3.3h.1l.1.2h.1l.2.4v.1l-.7-.1v.2l.5.2.1-.1v-.2h.1l.2-.5-.1-.1v-.1l.1.1v-.2l-.3-.2v-.1l-.1-.1h-.2l-.5-.7v-.2l.1-.1.1.2h.1l.1.2.4.2.2.2v-3.7l-.4.5-.1-.2h-.1l-.1.1H57v-.1l.1-.1h.3v.1h.1v-.1l-.1-.1v-.2l.4-.1.1-.3v-.1l.1-.6h.1v-.8H58v-.3h.1v-3.9H58l-.1.2h-.1l-.2.2h-.1l-.2.3.1.1-.1.1v.1l.2-.1-.1.2v.1l-.3.5v.1l-.1.1v.4l-.1.1v.1l-.3.4-.1-.1-.1.1v.1l-.4.3-.1.1h-.1l-.1.1h-.2l.1 1-.1.1v.1h.1v.2l.3.3h.2l.4-.4h.1V38l.1.4.2.5-.1.1h-.1l-.1.1.1-.1v-.1h-.1v-.4l-.1-.1-.5.3v.6l.1.1v.4l-.1.2v.1l-.4.1-.2.5v.1l-.4.1v-.1h-.1l.1-.2v-.3h-.1l-.6-1 .2-.5-.1-.1h-.3v-.1l.1-.1v-.2l-.4.1v.2l-.1.1.1-.1v-.2h-.1l-.2.1v.2h.1v.1l.2.1-.1.1.1.1-.1.1h.1-.2l-.6.5v.1h-.2v.4l.1.1h.1l-.2.3.1.3.7-.3.2-.8h.1l-.1.2h.2v-.2l.1.3h-.2v.1l-.1.1h.2l-.2.2.1.1h.3-.1l-.3.4h.1l.1-.1h.2l.2-.1.1.1.2-.1h.5l-.2.2v.2l-.2.2v.1h-.1v-.1h-.1l-.1.1.1.3H54v.2l.7.5v.7h-1.3v.1h-.1l-.3-.1v.1l.1.1-.1 1 .1.1v.3h.4l.2.2-2.1 3.4v1.1l-.2.1.2.3v.3l.2.2.2.2.3.5.1.1h.1l1 .6 1.6-.3.1-.1h.6l.3.4.5-.1v.2h.1v-.1l.1.1-.1.4v.1l-.1.2h-.1l1.7 6.5v-13l-.3-.1-.3-.1zm.2-12.3v.1h.1-.1v-.1l-.1-.1.1.1zm-.2.8zm-.7 5.4h-.1.1zm-.1 0zm-.1-.1zm-3 0zm0-.1zm-13.2 8.2h.1v-.1l-.1-.2h-.1v-.1l-.1.1v.1l.1.1zm-4.1-17.2v.5l.1-.1-.1-.1.1-.2zm.2 1.5l.1-.5-.1-.2h-.1l.1-.1-.1-.2-.1.1v1zm3.1-3.2l-.1.3.1.1.2-.1V29l-.1-.1zm-.1 7.9l-.1.3.2.2.1-.4-.1-.1zm11.9-9.4l-.1-.1h-.1v.4l.2-.1z"/><path fill="#2D9720" d="M40.6 27h-2.4v.2h.4l-.1.1.1.1v.1l.1.2h.2-.1l-.2-.1-.2-.4H38v.3l.1.4h.1l-.5.6.1.1-.4-.3-.3.2v-.3l-.6-.2-.1.1v.1l-.1.1.4.5.3-.1.2.9v.2l.2.2.1-.1.1.1h.1l.2.1.1-.1v.1l.1.1 1-.1.1.1.5-.1v-.2h.1l.1-.1v-.2h-.2l.1-.1-.1-.3-.5-.3-.8.3-.2-.1H38v.2l-.2-.2V29h.2l.1-.2.2.1h.1l.5.1.1-.1v-.2l.1.1v-.1l.1.1.1-.1h.1v.3h.1l.6-.4v-.4H40l-.1.1v-.1l-.1-.2h.2l.1-.3v-.1H40v-.1h.4l.1-.3.1-.2zm-1.9.2zm.7.9l.1-.1-.1.1z"/><path fill="#2D9720" d="M37.1 30.1v-.5l-.3-.4-.1.1-.1-.1-.1.1v-.2.4l.1.1h.1l-.1.1.4.5.1-.1zm-.5-.6zm14.5-1v.5l.1.1.1-.1-.1-.5zm-9.3 9.1v.2h.1l.1-.1v-.2h-.1zm.5-.4v.1h.3v-.1l-.1-.1zM40 33.6v-.2h-.1l-.2.4h.2z"/><path fill="#2D9720" d="M36.9 49.5l1.2.6h.1l.5.7h.1l.1.1v.1l.2.1h.1v.1h.2l.1.1h.1l.1-.1V51l.2-.1.1.1.2.9-.7 1.2.1.1-.2.2.1.3 2 2.5-.4 4-.1.1v.1l-.1 1.1-.1.5.2.1.1-.1v.1l-.1.1v.1l-.1.1.1.1v.1h-.3v.1l-.3.3v.1l.1.1v-.1h.1l-.1.2v.2l-.1-.2h-.1v.6h.1l.1.1.1.3-.1.1v.1h.1v.1l.1.1v.1l-.1.1h-.1v.1l.3.4.4.1v.1l.1.1.1.1h.1l.1.1h.1l.2.1v-.2l.5-.2v.1l.2-.1v-.1l-.1-.1h-.2l-.4-.4v-.1l-.1-.2v-.1l-.2-.5.7-1.1-.3-.3.4-.3.1-.4.1-.1h.1l.1-.1-.1-.2-.2.1v-.3l.3.1.2-.2.1-.4.9-.2.2-.5-.1-.1v-.2l-.1-.1.5.1 1.3-1.8-.1-.2 2.6-3.9-.1-.4-1.8-.8-.5-.1-.3-.2.1-.2-2-1.5v-.1h-.1v-.2h-.5l-.1-.1-.1.1v.1h-.2l-.1-.1h-.3l-.1-.1H42l-.1-.2-.2.3.1-.1v-.1l-.1-.1-.8.4v.2l-.2.2-.5-.2v.1l-.3.1-.9-.6.1-.7-1-.2.1-.3.1-.3.1-.4-.1-.1-.7.1-.2.5-.4-.1-.5-1.4.1-.1V47l.1-.2.2-.1v-.1l.9.1.1.1.1-.1-.1-.1v-.1h.5l.2.2.2-.1.2.2v.4l.4.5.2-.1V46l.8-.6.5-1.3.3-.1.1-.1h.4l.1-.1v-.1l-.1-.1h-.1l-.1-.1.1-.3.2-.1V43l.3-.2v-.1h.2l-.1.1v.3l.2.1.3-.3h.1l.4-.2v-.1l.2-.1v-.1l-.1-.1v-.1l-.1-.1-.2.3v-.1h-.3l-.1-.1h-.1v.1l-.1-.1V42l.2-.1v-.2l-.6-.1.1-.2h.3v.1l.6.2-.1-.1-.3-.1 1.2-.4-.1.2v.4l-.2.2.1.1-.1.1v.1l.7.1v.1l.1.1.2-.2v.2h.1v.1h.1l.1-.1v-.6h-.1v-.2h-.3l-.2-.1.1-.4h-.1l.1-.1v-.6L44 40v-.2l-.2-.2-.1.1-.1-.1h-.1l-.1-.2h-.1v-.1l-.1-.1.1-.2-.1-.1v-.1l-.2-.4v-.1l-.1-.1v-.1h-.1V38h-.1l-.1-.3h-.1l-.2.3v.2h-.1l-.2.2v-.1h-.1l-.1-.1h-.1v-.4l-.1-.2.1-.2-.1-.1h-.2v-.1h-.1l-.2-.2v-.1l-.2-.1-.3.1-.5-.2-.2.2.1.3v.3h.1l.1.3v.1l-.2.1.4 1-.5.5.2.8-.2.2-.2-.3v-.1h.1V40l-.1-.2h-.2v-.6l-1.7-.8-.2.1-.2-.6-.3-.1.1-.8v-.1l.2-.2v-.1h.1v-.2h.1l.1-.1.2-.1V36l.1-.1v-.1h.1l.3-.1.2-.5-.2.7.1.1.2-.1v.1l.1.1h.1l.3-.3v-.1h.1v.1l.3.1.2-.2-.3.3h-.1l-.1-.2-.3-.2v-.1l-.1-.1-.1-.2h-.1v-.3l.4.5v-.1l-.1-.1v-.1l.4-.5v-.2l-.2-.2V34l.1-.1v-.2l.1-.1-.2-.1-.1-.2h.1l.1.1h.1l.1.2h.1l.3-.3v-.1h.1v.1l.1.1v.1l.3.2h-.1l.1.3.3-.1.2.2v.1h-.1l-.1.1v-.1l-.4-.2-.2.5.1.2h.3l.1-.3.3-.1.1.3-.4.6.1.2-.7.1v.4l.3.3.2-.2.2.1.1-.1h.1l.1.3.2.1v.1l.3.5.1-.1h.1l.4.3h.1l.1.1h.1l.1-.1V37l-.2-.2h.2l.1.2.1-.1v-.1l.1-.1v-.6h-.1v-.2l-.2-.2h-.1v-.2l-.1-.1.1-.1-.1-.1.2.2.2.4.1.1h.1l.1-.3h.1l.1-.3.1-.1v-.1l-.3-.4h-.1v-.2h-.1l-.1-.3h-.1v-.1l-.2.1-.1-.2h-.1v-.1H42v-.2l.3-.1v-.1l-.3-.1h.1l.1-.1-.3-.3v-.2l-.3-.1h-.1v-.1l-.1-.1-.3-.5v.1H41V32h-.1v-.1l-.1-.1h-.1v-.1l-.4-.3.1-.1-.3-.5-.7-.1-.1.1-.1-.1-.4.1-.1.1h-.2l.1-.3h-.5l-.5 1.6.2.2h-.1v.2l.3.4h.3l.1.2h.1v.3l.1.1-.1.1h-.1l-.1.3h.1-.1v.3l.1.1v.1h-.1l-.1-.4h.1l-.3-.6h-.2l-.1.2-.1-.2v-.1l-.1-.1-.2-.1.1-.1h.1l-.4-1.1H37v-.1h.1l.1-.4-.1-.1h.2l.4-.9-1-.1-.1.2h-.1v.8l.1.1v.3l-.1.3-.1.1v.3l.1.1-.1.4.4.4-.1.2h-.1l-.4-.5v16.2l.2.1.5.1zm3.9 14.9zm.1-2.4v-.2.2zm.1-.2zm.3-11.1zm-1-7.6h-.2.2zm-.9-.6l.2.1v.1l-.2-.2zm.1.9l-.2.2.2-.2zm-.5-.9l.3.2v.5l-.1-.2h-.1v-.3l-.1-.2zm-.6.6v.2l-.1.3.1-.9.3-.1-.3.5zm-.4-1.2l.1-.1.1-.1.1.2.1-.1v-.1l.1.2h.1l.1.2-.3.1-.2-.1v-.2h-.1l-.5.3v-.1l.4-.2zm4-5.5l.1.2-.1-.2zm-1.1-2.2l-.1-.1.1.1zm-1.2-2.7l.1.1h.1v.2h-.2v-.3zm-.1-.2zm0 1.9zm-.5 0h-.3.3zm-.6-2zm0 .3v-.2.3-.1zm0 .3v-.2h.1l-.1.2zm.1-.6v-.1.1zm-.1 4.2v.2-.2zm-1.7-1.6h.2l-.2.2h-.1v-.1l.1-.1zm1-6.6l.1.1.1-.1v.1l.1-.1V27h-.8v.1l.1.1.4.1zm-.6.4l-.4-.1-.2.1v.1l.5.2h.1zm-.8 0l.6-.3-.1-.3h-.5z"/><path opacity=".39" d="M33.1 69.1h27.2l.2-48.4H32.9z"/><path fill="#F6F3EF" d="M52.6 72.5l8-3.5V20.7l-8.2 3.6z"/><path opacity=".12" d="M52.6 72.5l8-3.5V20.7l-8.2 3.6z"/><path fill="#F6F3EF" d="M44.2 71.6L32.8 69V20.7l11.4 3.6z"/><path fill="#fff" d="M44.2 71.6l-21.1 3.1V27.5l21.1-3.2z"/><path fill="#F6F3EF" d="M52.4 24.3h24.7v51.1H52.4z"/><path fill="#81D4FA" d="M52.4 27.2h21.8v45.3H52.4zm-8.2-.6l-18.4 3.1v42.2L44.2 69z"/><path fill="#4DA742" d="M43.6 36.3v.1l.2.1.1-.1v-.1l-.1-.1zm-2.7-.5l-.1.4.1.2h.1l.1-.5-.2-.1zm1.2 13.8l-.3-.2-.4-.3-.3-.2v.1l-.2-.2-.8.2-.1.2v.1l.3-.1v.2l.2-.1-.1-.2h.1l.8.5v.1h.8zm-.8-1.3h-.1v.2l.1.1v.1l.1.1.1-.2-.1-.1zm-.1 1.7v.1l.5.1V50l-.4-.1zm-.9-14.3l-.2.4h.3l.2-.4v-.1h-.2zm1.2-.1l-.1-.2-.2-.1v.1l.1.2zm1.8 14.5l.1.1.3-.1v-.2h-.3zm-1.2.1h.3l.1.1h.1l.1-.1.5-.1v-.2l-1-.3-.1.1.1.1v.1H42l-.1.1v.1zm0-.7l.2-.1v-.2l-.2.2zm-.1-.6v.2l.1.1v-.1l.1-.2h-.1zm-.5-.6v-.4h-.1v.1l-.1-.1h-.2v.2h.3l.1.2zm.3.4h.1v-.1l-.2-.2v-.1h-.1v.3h.1zm-7.1-20.5v.1l.1-.1zm9.5-1.5v-.1zm-5.6.9l-.1.1v.2l.2.2h.2l.2.1.1-.1.1.1h1v-.1l.1.1.5-.1.1-.1-.1-.1h.1l.1-.1v-.2h-.2l.2-.1-.1-.3-2.5.4zm2.7 4.5v-.2h-.2l-.1.4v.1l.2-.1zm-14.5 6.5v-.1h-.1v.2h.1zm4.3.8l-.1.1-.2-.1v.1l.4.9v-.1l.1-.1-.1-.1v-.2l-.1-.1.1-.2zm12.5-12.5l-.1-.1h.1l.1.1.4-.3-.8.2.3.2zm-5.7 3.4v-.5l-.1-.3.1-.1-.1-.2h-.1l-.1.1.1-.2V29l.1-.3-.2-.1v-.2h-.1l-.3.2H37v.1l-.2.1.1.1-.1.1.2.5v.1l-.2-.3-.2.1v.2l.2.5h.2l.3.6h.2l.1-.1v-.1h.1zm5.2 6.5v.2h.1l.1-.1v-.2h-.1zM38.4 28v-.4l-.5.1.2.4z"/><path fill="#4DA742" d="M44.1 51.8l-.1-.1-.1.1v.1h-.2l-.1-.1h-.3l-.1-.2H43l-.1-.2-.2.3.1-.1v-.1l-.1-.1-.8.5v.2l-.2.2-.7-.3v.1l-.3.1-.3-.5.1-.9-1-.2.1-.4.1-.4.1-.4-.1-.1-.7.1-.2.6h-.6l-.5-1.6.1-.1v-.5l.1-.2.2-.1v-.1l.9.1.1.1.1-.1-.1-.1v-.1h.5l.2.2.2-.1.2.2v.5l.4.6.2-.1v-1.9l.8-.7v-.1l.5-1.5.3-.1.1-.1h.4l.1-.1V44l-.1-.1h-.1l-.1-.1.1-.4.2-.1v-.1l.3-.2v-.1h.2l-.1.1v.4l.2.1.4-.5h.2v-.7H44V42h-.1v.1-.3l.2-.2v-.2l-.6-.1.1-.2h.3v.1l.4.2v-.2l-.1-.1.1-.1v-3.6l-.1-.1v-.1h-.1l-.1-.3h-.1l-.2.3v.2h-.1l-.1.2-.1-.2h-.1l-.1-.1h-.1v-.5H43l.1-.2-.1-.1h-.2v-.1l-.1-.1-.1-.2V36l-.2-.2-.3.2-.5-.2-.2.2.1.3-.1.4h.1l.1.4v.1l-.2.2.4 1.2-.8.7.2.9-.2.3-.2-.3v-.1h.1V40l-.1-.2h-.2v-.7l-1.7-1-.2.1-.2-.7-.3-.1.1-1v-.1l.2-.2V36h.1v-.2h.1l.1-.1.2-.1v-.3l.1-.1v-.1h.1l.3-.1.2-.6-.2.8.1.1.2-.1v.2l.1.1h.1l.3-.4V35h.1v.1l.3.1.2-.2-.2-.2h-.1l-.1-.3-.4-.3v-.1L40 34h-.2v-.3l.4.5v-.1l.1-.1v-.1l.4-.5v-.2l-.2-.2v-.2l.1-.1v-.2l.1-.1-.1-.4-.1-.2h.1v-.1l.1.1h.1l.1.2h.1l.3-.4v-.1h.1v.2l.1.1v.1l.3.3h-.1l.1.4.3-.2.2.3v.1h-.1l-.1.1v-.1l-.3-.1-.2.5.1.2h.3l.1-.3.3-.1.1.3-.6.7.1.2-.7.1v.2l-.1.1v.3l.3.3.2-.2.2.1.1-.1h.1l.1.3.2.1v.1l.3.5.1-.1h.1l.4.4h.1l.1.1h.1l.1-.1V36l-.2-.2h.2l.2.2.1-.1v-.1l.1-.1V35H44v-.2l-.2-.2h-.1v-.3l-.1-.1.1-.1V34l-.1-.1.2.2.2.4.1.2h.1l.1-.4h.1v-1.1h-.1l-.1-.3h-.1v-.1l-.2.1-.1-.1h-.1v-.1l-.2-.1v-.1l-.1-.1v-.1l.3-.1v-.1l-.3-.1.1-.1.1-.1-.3-.4v-.2L43 31h-.1v-.1l-.1-.1v-.1l-.4-.4v.1h-.1v-.2h-.1v-.1L42 30h-.1v-.1l-.4-.3.1-.1-.3-.5-.7-.1-.1.1-.1-.2-.4.1.1.1h-.2l.1-.3h-.5l-.5 1.8.2.2h-.1v.2l.3.5h.3l.1.2h.1v.4l.1.1-.1.1h-.1l-.1.3-.1-.1h-.1v.3l.1.1v.1h-.1l-.1-.4h.1l-.3-.5H39v.2l-.1-.2v-.2l-.1-.1-.2-.1.1-.2h.1l-.5-1.3h-.1V30h.1l.1-.4-.1-.1h.3l.4-1.1-1-.1-.1.2v.1h-.1v.9l.1.1v.4l-.1.3-.1.1v.4l.1.1-.1.4.4.5-.1.3h-.1l-.5-.7-.3.6v.2l.3.1-.2.1.1.1v.1h-.6l-.2-.3h-.2l-.1-.1V32l.5.1.3-.3v-.1h-.1v-.2h.1l.1-.1v-.3l-.1.2h-.1l-.3-.3h-.1l-.3-2.3h-.4l-.1.4-.1-.1v.1l.1.9-.3-.8-.3-.1v.1l.1.1v.1l-.2.3v-.2l-.4-.3-.1.1V29h-.2l-.2.2.2-.2-.4-.6-1.4.2v.1l-.2.6v.1l-.2.8v.1l.3.2.2.5h.1l.2-.3h.1l.2-.1.1-.5.2-.1.1-.3-.1.2.1.1-.2.3v.2l.1.1h.1v.2l.1.1h.2l-.3.2.2.3.9.1-.9.2-.1.1.2.4.5.2.1.4 1-.3-.2.2v.1l.2.2-.1.1-.2-.1-.1-.2-.9.1v-.1l.2-.1-.3-.5h-.3l-1.2-.6-.1.3v-.2h-.1v-.2l-.1-.1h-.1l-.1.4-.4-.8v.2l.1.1-.1.1h-.1l-.1-.2-.8.6v-.1h-.1v-.1h-.1v.2h-.1v.2h-.1v.2l-1-.6-1.9-.5-.1-.1v-.1h-.1l-.2-.1-.2.1-.2-.2-.3-.2-.2.3h-.2l-.1.2v6.6l.1.2.1-.1h.2v.1l-.4.6v.6l.2-.2h.1l.1-.1v-.1l.2-.2.2-.1v-.1l.1-.1.3-.2-.2.3.2.2h.1l.1-.2h.1v-.3h.1v-.1l-.1-.1h-.2l-.1.2v.1h-.1v-.1l.2-.3-.1-.1.4-.7-.1.7.1.1.5-.3v-.1h.2v.1l.2-.1.1-.2h.2l.1.1.2.2h.5l.3.1v.1l.6.6v.2l.1.2.2.5h.1l.1.1v.1l.2.5h.2l.1-.1v-.1h.1v.2h.1v.3l.2.3h.1l.1.3.1.1v.4l-.1.2v.1h.1v.1l.1.1h.1l.3.4.2.9.6 3.5.1.1.1.1.1-.1.9 1.5v.1h-.1l-.1-.1-.1.1.6.6.1.4h.1l.4.5.2-.1v-.2l-.2-.2-.4-1 .6.6v.1l.8 1.1v.4l1.8 1 .3-.1 1.2.7h.1l.5.9h.1l.1.1v.1l.2.1h.1v.1h.1l.1-.1.1.1h.1l.1-.1-.1-.1.2-.1.1.1.2 1-.7 1.4.1.1-.2.3.1.3 2 3-.4 4.7-.1.1v.1l-.5.8v.6l.2.1.1-.1v.1l-.1.2v.1l-.2.1.1.1v.1h-.3v.1l-.1.2v.1l.1.1v-.1h.1l-.1.2v.2l-.1-.2h-.1v.6l.1.1-.1.1.1.3-.1.1v.1h.1v.1l.1.1v.1l.2.2v.1h-.1v.1l.3.5.4.1v.1l1.1-.2-.4-.4v-.1l-.1-.2v-.1l-.2-.5.7-1.3-.3-.3.4-.4.1-.5.1-.1h.1l.1-.1-.2-.4-.2.1v-.3l.3.1.1-.1V51.8h-.1zm-2.5-8.6h-.2.2zm-.9-.7l.2.2v.1l-.2-.3zm0 1.1l-.2.2.2-.2zm-.5-1.1l.3.2v.6l-.1-.3h-.1v-.3l-.1-.2zm-.6.7v.2l-.1.3.1-1.1.3-.1-.3.7zm-.4-1.4l.1-.1.1-.2.1.2.1-.1v-.1l.1.3h.1l.1.3-.3.1-.2-.1v-.2h-.1l-.5.3v-.1l.4-.3zm4.1-6.4l.1.2v-.1l-.1-.1zm-1.1-2.6v.1l-.2-.2.2.1zm-1.3-3.2l.1.1h.1v.2h-.2v-.3zm-.1-.2zm0 2.2zm-.5 0H40h.3zm-.5-2.3v.1-.1zm-.1.4v-.2.4-.2zm.1.3v-.2l.1.1-.1.1zm.1-.8v-.1.1zm-.2 5v.2-.2zm-1.6-1.8h.2l-.2.3h-.2v-.1l.2-.2zm-9.9 4.4l-.2.2.1-.3.2-.1-.1.2zm2.8 1.9zm1.4 2.3zm.1.2zm.3.4l-.1-.2.1.2zm.8-7.5h-.2l-.1.1h-.1l-.2.1v.1h-.1v-.1l.1-.1v-.1h.1v-.2l-.3-.1.5-.3-.1.1v.2l.4.1v.2zm.5 2.5l.1-.1.1-.1v-.1h.1v-.2l.2.2.1.1-.2.1v.1h-.4zm.6 10.8l-.3-.6h.1l.2.6zm.5-10l.1-.2v.1l-.1.1zm.6-5.2zm.3 0zm1.5 8l-.2-.2v-.1l-.1-.1v-.1h.1l.2.5zm5 11.9zm-.6 16zm.2-2.8v-.2.2zm.1-.3v-.1.1zm-7.6-36.8v.1z"/><path opacity=".26" d="M44.2 71.6l-21.1 3.1V27.5l21.1-3.2z"/><path fill="#32B325" d="M52.4 38.6l.2.2.1-.1h.1v.4h.1l.1.2v.1l-.3.6h-.1l-.2.2v-1.6zM68.7 33h-.1.1l-.2.3h-.1l.1.2-.2-.1-.1.1v.1l-.2.4v.2h-.1l.1.2-.2-.1v.1l-.1.2-.1.2-.1.6.5.9-.1.1-.3-.2-.1.1-.2-.2h-.2V36v.1l-.4-.5h.3-.4v-.5h.2l.1-.3-.1-.3.1-.1.1-.1v-.1l.3-.3h-.1l-.2.1.3-.3-.1-.1h.1l-.1-.1h.2l-.1-.2h.1v-.1h-.1v-.4l.1.1.9-.9h.1v-.2l.4.2 1-.7h.3l.1.3v.1h.1l-.1.3-1 .5v-.1l-.5.6zM67 35.9zM60.5 31l.5-.5-.3-.3V30l-.1-.1-.4.1v.1l.1.2-.1.5.3-.1v.3zM60 42l.1-.2-.1-.2h-.1l-.1.1.2.3zm-.1-8.4v-.2h-.1l-.1.1.2.1zm5.3 30.6l.4-.1.7-2.1.1-.1-.2-.9h-.1l-.1.1v.2h-.1v.1l-.8.8.1.5-.3.5.3 1zm.7-26.7l.2.1.4-.3-.3-.4-.2.1-.1.5zM59 31.3l.2.4h.2l.3-1.4h.1l.1-.1V30l-.1-.1H59l-.2.3h-.1l-.1.1.1.4h.1v.1h.1-.2l.1.4.3.1H59zm.6 11.9l.2-.5h-.1l-.1.4v.1zm1.6 5.6H61v.1h.1l.1-.1zm-3.4-.9h-.2l-.2.1.1.3-.1.1h-.1l-.1.1.1.5.1.2h.1l.1-.1h.1v-.7l.1-.5zm3.1 2.1h-.2v.2h.2l.1.1h.4v-.2l-.5-.1zm11.6-15.6l-.3.3.4.2-.1-.5zm-10 15.8l.2.2.3-.1.1-.3-.6.2zM73 33l.1-.4-.2-.2-.1.2.2.4zm1.2 20.6l-.1.2-1.4 1.2-.1 1.2.4.6v.2l-.3.2h-.2v-.9l-.1.2h-.1l-.1.2h-.1l-1-3-.4.1-.4-.4-.5-.6h-.3l-1.5-.1.6.7-.3.5h-.1v.3l-1.1.7v.1l-2.1.7v.2l.2.2 1.4-.3.1.4-2.1 2.7-.4.6.1.1v.1l-.1.1.2 2.1v.1h-.2l-.6.4-.4.4.1 1-.5.4-.1.7-1.5 1.5h-1.4l-.3-.4v-.1h.1l-2-7.4h.1l.1-.2v-.1l.1-.4-.1-.1v.1h-.2v-.2l-.5.1-.3-.4h-.6l-.1.1-1.7.3-1.1-.7h-.1l-.1-.1-.4-.6-.2-.2-.1-.1v-2.3l2.2-3.5-.2-.2h-.5v-.3l-.1-.1.1-1.1-.1-.5v-.1l.1-.1h.1l.1-.1h1.4V47l-.8-.6v-.3h.7l-.1-.3.1-.1h.2l.1.1h.1v-.1l.3-.2v-.2l-.1.1-.5.1-.3.1-.1-.1-.2.2h-.2l-.1.1h-.2l.3-.5h.1-.3l-.1-.1.3-.2h-.2l.1-.2v-.2h.3l.1-.5v.2l-.2.1.1-.2h-.1l-.2.8-.8.3-.2-.3.2-.3h-.1l-.1-.1v-.1l-.1-.1.1-.2h.3-.1v-.1l.4-.3.1.1h.1-.1l.1-.2-.1-.1.1-.2v-.5h-.1v-.3l.2-.1h.1l.1.2-.1.1.1-.1v-.2l.5-.1.1.2-.2.1v.1h.3l.1.1-.2.5v.1l.6 1.1h.2l.1.1v.3l-.2.2h.1v.1l.5-.2V45l.2-.5.4-.1v-.1l.3-.1V44l-.1-.3-.1-.1V43l.5-.4.1.1v.4h.1v.5l.1-.1h.1l.1-.2-.2-.5-.1-.4v.1h-.1l-.4.4h-.3l-.3-.3v-.2h-.1v-.1l.1-.1-.1-1.1.1-.1h.1l.1-.1h.1l.1-.1.3-.3v-.1l.1-.1.1.1.3-.5v-.1l.2-.1v-.3l.1-.1v-.1l.1-.1V39l.5-1v-.1l.1-.2-.2.1v-.1l.2-.1-.2-.1.2-.3h.1l.2-.2h.1l.2-.2h.1v-.1h.2l-.1-.1h.1v-.1l.2.1v-.1h.1l.1.2.1-.2h.1l-.1-.1v-.1l.1-.1h.2v-.1h.1V36l.4-.2.1.1h.1l.1.2.1-.3h.1l.2.1v.1h.1v.1h.1l.3.2-.2.3v.1h.2v-.1h.1l.3.1v.2l1.7 1.1v.5l-.6.5-1-.2-.1-.1h-.1l.3.4v.3H63l.1.4.5.3h.1V40h-.1l-.3-.4.1-.2.7.3-.1-.5.5-.5.3.2.1-.3-.1-.2.1-.6-.2-.2v-.1l.6.1.2.5-.3.1v.1l.2.3h.1l.1.1 1.6-1.3.1.1v.3h.1l.1-.2h.4l.3-.3.2.2.2-.1-.1-.4-.1-.1h-.1l-.3-.4.1-.2.4.5.1-.1 1.5.9.1-.2-.2-.4h-.2l-.1-.1.1-.6-.1-.1V36l.6-1.4h.1l.1-.4h.2v.2l.2.1-.4.2.5.2v.8l.4-.5-.2-.6h.4v.1l.2.3-.1.5.3-.5.4.1-.2.1.2-.1.8.5-.2-.3v-.1l-.3-.2-.1-.6.1-.1L74 34v-.2l-.2-.1.1-.1h-.1v-.1l.1-.2h.1l.1.1-.1-.4-.1-.1.2-.1v20.8zm-19.5-9.5zm0-.3zm8.5 3.2v.1h.4l.1-.2v-.1l-.5.2zm-1.5 1.1l.1.1v.1l1.4-.2.1.1h.1l.1.1.8.1.2-.2-.4-.4-.4-.3h-.1l-.1-.1-.7.2-.1-.2-.2-.1v-.1l.2-.1h-.3l-.1-.1h-.1l-.5 1.1zm0 .5zm-2.5-11.3l.1.1v.1h.1-.1l-.1-.2.1-.1-.1.1zm-.2.7zm-.6 6.1l.1-.1h.1l.1.2 1-.4.1.2.1-.2.2-.1-.1-.3.2-.6.2-.1h-.1v-.1h-.1v-.2h.1l-.1-.1.2-.1.1.1v-.1l.9-.1V42h.1l.1-.1h-.1v-.1l-1 .3h-.2V42l-.2-.1v-1.2h.1l.1-.1h.1l.6-.8-.2-.3h-.3v.1l-.2.1v.5l-.8.9-.1.2v.4h-.1v.3l.3.2v.1l.1.1-.1.2-.2.3h-.1l-.1.7v.1l-.1.3-.4.1v.2l.1.1v.1h-.2v-.1h-.3l-.1.1.2-.4zm2.4-1.4h-.2v.1l.3.3-.1-.4zm-2.6 1.4v.1l.1-.1h-.1zm-.1 0zm-.2-.1l.1.1-.1-.1zm5 7.1l.4-1.2-.6.1-.4-.2v.1h-.4v-.1h-.1v.2h-.3v-.1h-.1l-.1-.4h-.2l-.1-.2h.1v-.1l.1-.4H61v.1h-.1v.2h-.2l.5.5-.1.1H61v-.2.1h-.1l-.1.1v.2h-.1l-.1-.1v.1l-.1-.1-.2-.4H60l.1-.1v-.1H60l-.1-.2-.1-.1v-.4l-.5-.4-.4-.3-.1-.2h-.1v.1h-.1l-.1-.3-.1.1v.2l.5.7h.2l.1.1v.1l.5.4v.1h-.1l-.2-.2v.1l.1.1-.2.5h-.1v.3l-.2-.1-.6-.3v-.2l.7-.1v-.1l-.2-.4h-.1l-.1-.2h-.1l-.3-.3h-.1l-.2-.5-.2-.1-.7.4-.5-.1v.3l-.8.8h.1v.1l-.2.4h-.1l-.1.2-.7.3.2.1 3-.6.1.1h.1l.1.1-.1.2.1.1v.2l-.3.3h.1l.1.1.8.2.1.2.6.2.1-.1v-.3l.2-.2h.5l.1.1.4.3.1.1h1.4l.1.1.3-.1zm1.9 4.4L63.7 53h-.1l-.5-.9H63l.5.9-.1.1.5 1.2.3.6v-.1h.1l.1.1-.1.1.5.5zm1-7.9l.5 1h.1l.1.1h-.1l-.1.4h-.1v.3l.9.2v-.5L67 49v-.1h-.1l-.6-1.5.2-.1.1-.1h.1v-.1l.5.1-.4-.5-.7.1-.2.2h-.1v.1l-.1.2.1.3zm1.2.7v.2h.1l.1-.1-.2-.1zm.5 4.1h-.2l-1-.9h-.1l-.1-.1-.1.2.4.7h.2l.2.1v.4h.4l.3-.4zm.2.1l-.1-.2.1.2zm3.2-13.8l-.1.1.1-.1zm.5-1.3l.2-.1-.3-.1-.2-1.4-.1 2.6-.1.1v.1l.5-.7v-.5zm.4-.1h-.1.1zm.1-1.5l-.2-.2-.1-.2v.2l.3.2zm0-.4v-.2l-.1.1.1.1zm.1 2.1l-.1-.1.1.1zm1.3-1.1l-.1-.5-.1.1v.3l.2.1zM56.7 48.7v.2h-.1l-.1.2h-.1l-.1-.1.3-.2.1.1v-.2zm-.1.1zm-.5.2l-.1.1h.1l.1-.1h-.1z"/></svg>