<svg xmlns="http://www.w3.org/2000/svg" id="Layer_1" viewBox="0 0 561 362"><style>.st0{opacity:.2}.st1{fill:#231f20}.st2{fill:#f0a42b}.st3{fill:#ef802b}.st4{fill:#fabd2d}.st5{fill:#fcd140}.st6{fill:#f5b12a}.st7{fill:#fff}.st8{opacity:7e-2}.st9{fill:#010101}.st10{fill:#de4a3f}.st11{opacity:.1}.st12{fill:#e48a2d}.st13{fill:#81441e}.st14{fill:#a56e3f}.st15{fill:#e53a35}.st16{fill:#333}.st17{fill:#ec407a}.st18{fill:#f28621}.st19{fill:#28afe5}.st20{fill:#0b9048}.st21{fill:#11713c}.st22{fill:#a36d3f}.st23{fill:#1d191a}.st24{fill:#d5b06f}.st25{fill:#f9ce1e}.st26{fill:#b4b4b4}.st27{fill:#f7cbae}.st28{fill:#ef9a9b}.st29{opacity:.15}.st30{fill:#212121}.st31{fill:#ba9a60}.st32{fill:#d5b06e}.st33{fill:#221f1f}.st34{fill:#e52329}.st35{fill:#202020}.st36{fill:#5b5b5b}.st37{fill:#fed208}.st38{opacity:5e-2}.st39{opacity:.55}.st40{fill:#f9c087}</style><g class="st0"><ellipse class="st1" cx="484.5" cy="342.2" rx="45" ry="7.5"/></g><path class="st2" d="M498.9 279l-.2.2c-.1.1 0 0 0 0v-.1c.1-.2-.1 0-.2.2l-.2.2c-.1.1-.2.2-.3.4-.2.3-.4.5-.7.9l-.9 1.2c-.6 1-1.3 2-2 3.3-.7 1.2-1.5 2.7-2.2 4.3-.4.8-.7 1.7-1.1 2.5-.4.9-.8 1.7-1.1 2.7-.7 1.9-1.5 3.8-2.1 5.9-.3 1-.7 2.1-1 3.1-.3 1.1-.6 2.1-.9 3.2-.3 1.1-.6 2.2-.9 3.2-.3 1.1-.5 2.2-.8 3.3-.3 1.1-.5 2.2-.7 3.2-.2 1.1-.4 2.1-.6 3.2-.4 2.1-.8 4.1-1.1 6.1-.3 2-.6 3.8-.8 5.5-.3 1.7-.4 3.3-.6 4.7-.1 1.4-.3 2.6-.4 3.7-.2 2-.3 3.2-.3 3.2h-20.6s-.1-1.3-.2-3.5c-.1-1.1-.1-2.4-.2-4-.1-1.5-.2-3.3-.2-5.2 0-1.9-.1-4-.1-6.2-.1-2.2.1-4.5.1-6.9 0-1.2 0-2.4.1-3.7.1-1.3.2-2.5.2-3.8.1-1.3.2-2.6.2-3.9.1-1.3.3-2.6.4-3.9.1-1.3.3-2.6.4-3.9l.6-3.9c.4-2.6.9-5.2 1.4-7.7.2-1.2.6-2.5.9-3.7l.9-3.6c.7-2.3 1.3-4.5 2.1-6.6.7-2 1.5-4 2.2-5.7.8-1.7 1.5-3.2 2.2-4.5.2-.3.3-.6.5-.9.2-.3.4-.6.5-.9.3-.6.5-.9 1-1.5.6-.9.9-1.3.9-1.3l25.8 21.2z"/><path class="st2" d="M518 275.3v.2c0 .1 0 .2-.1.4-.1.4-.2 1.1-.4 1.9-.3 1.7-.7 4.3-1.2 7.4-.9 6.3-2 14.8-3 23.4-1 8.6-1.8 17.2-2.4 23.7-.6 6.5-1 10.8-1 10.8h-19.5s-.4-4.4-.9-11-1.2-15.4-1.7-24.2c-.5-8.8-1-17.7-1.1-24.5-.1-3.4-.1-6.3-.1-8.3v-3.5l31.4 3.7z"/><path class="st3" d="M401 231.3s1.3-.3 3.4-.6c.5-.1 1.2-.2 1.8-.3.6-.1 1.2-.3 1.8-.4.6-.1 1.3-.3 2-.4.7-.2 1.5-.4 2.3-.6 1.6-.3 3.3-.9 5.1-1.4l2.7-.9c.5-.2.9-.3 1.4-.5.5-.2.9-.4 1.4-.6.9-.4 1.9-.7 2.8-1.1.9-.4 1.9-.9 2.8-1.3 1.8-1 3.7-1.9 5.5-3 .9-.5 1.8-1.1 2.7-1.7.9-.6 1.7-1.2 2.6-1.8 1.6-1.3 3.3-2.5 4.8-3.9 1.6-1.3 3-2.6 4.3-3.9.7-.6 1.3-1.3 2-1.9.6-.6 1.2-1.3 1.8-1.8 1.2-1.2 2.2-2.4 3.1-3.3.9-1 1.7-1.9 2.4-2.7 1.3-1.5 2.1-2.3 2.1-2.3l16.4 11.9s-.7 1.1-2 3.1c-.7 1-1.4 2.2-2.5 3.5-1 1.3-2.1 2.8-3.5 4.3-.7.8-1.4 1.6-2.2 2.4-.7.8-1.5 1.7-2.4 2.5-.9.8-1.8 1.7-2.7 2.5-.9.9-2 1.7-3 2.5-2 1.7-4.3 3.3-6.6 4.8-2.4 1.5-4.8 3-7.4 4.2-2.5 1.3-5.2 2.3-7.9 3.3-1.4.4-2.7.8-4 1.2-1.3.4-2.7.6-4 .9-.7.1-1.3.3-1.9.4-.7.1-1.3.2-1.9.3-1.3.1-2.5.3-3.7.4-2.4.1-4.7.2-6.8 0-1-.1-2-.1-3-.2s-1.9-.2-2.8-.4c-.9-.1-1.7-.3-2.4-.4-.4 0-.7-.1-1-.2-.3-.1-.6-.2-.8-.2-2.1-.6-3.4-1-3.4-1l.7-11.4z"/><circle class="st4" cx="483" cy="141" r="43.6"/><circle class="st5" cx="483" cy="141" r="43.6"/><path class="st6" d="M501 178.4c-23.4 6.4-48.3-7.8-54.7-31.2-3.8-14-.3-28.5 8.2-39.3-10.1 8.7-16.1 21.9-15.1 36.2 1.7 24 22.6 42.2 46.6 40.5 9.8-.7 18.6-4.6 25.5-10.5-3.2 1.8-6.7 3.3-10.5 4.3z"/><path class="st7" d="M538.7 72.5c-5.9 4.6-6.9 13.2-2.2 19.3 4.7 6.1 13.3 7.3 19.2 2.7 5.9-4.6 6.9-13.2 2.2-19.3-4.7-6.1-13.3-7.3-19.2-2.7z"/><g class="st8"><path class="st9" d="M555.5 94.6c-5.9 4.4-14.4 3.2-19.1-2.8-3.4-4.4-3.8-10.2-1.5-14.8 5.3 7.5 12.4 13.6 20.6 17.6z"/></g><path class="st10" d="M439.6 117.2c7.2-17.6 16.2-33.1 26.4-44.9 17.6-20.5 42.1-16.3 67.9 1.2 1.8 1.2 3.5 4.3 1.4 5.9-3.2 2.4-6.6 7.4-4 17.4 4.4 16.7-7.2 34.3-7.2 34.5-27.9-11.7-57-16.4-84.5-14.1z"/><g class="st11"><path class="st9" d="M466 72.3c7.5-8.7 16.2-12.9 25.7-13.6-14.8 6.6-26.6 16-25.8 38.7.3 7.8 11.5 14.7 14.6 21.5-13.8-2.2-27.5-2.7-40.9-1.6 7.1-17.6 16.2-33.2 26.4-45z"/></g><path class="st6" d="M526 142c-26.1-12.9-54.3-19.6-82.4-19.7 6.4-13.5 19.7-23.4 35.7-24.8 24-2.1 45.2 15.7 47.2 39.7.1 1.7.2 3.4.1 5.1l-.6-.3z"/><path class="st7" d="M434.3 114.9c-.7 3.6 1.6 6.3 5 6.1 28.8-1.6 59 3.9 87.9 16.3 3.5 1.5 6.9.2 7.5-3.1 1.1-5.4 2.3-10.8 3.4-16.2.7-3.2-1.6-7.3-5-8.9-28.8-13.4-59-19.8-87.9-19.2-3.5.1-6.9 3.2-7.5 6.8-1.2 6.1-2.3 12.2-3.4 18.2z"/><path class="st12" d="M461 191.2l25.7-.9-15.8 24.1z"/><g class="st8"><path class="st9" d="M434.3 114.9c1.1-6.1 2.3-12.1 3.4-18.1.7-3.6 4.1-6.7 7.5-6.8h5.3c-2.2 5.8-3.4 12.1-3.4 18.7 0 4.2.5 8.3 1.5 12.2-3.1 0-6.2.1-9.2.3-3.6 0-5.8-2.7-5.1-6.3z"/></g><path class="st2" d="M487.9 275.5l-15.2 2-16.4-87.2 29.3-1.5z"/><path class="st5" d="M487.9 275.5l30.9-2.3 3.4-85.9-36.6 1.5z"/><path class="st5" d="M519 271s0 .2-.1.7c-.1.5-.1 1.2-.3 2.1-.2 1.9-.5 4.6-.8 8-.6 6.7-1.4 15.7-2 24.7-.6 9-1.2 18.1-1.6 24.9-.4 6.8-.6 11.3-.6 11.3l-19.5.6s-.5-4.6-1.3-11.4c-.7-6.8-1.7-16-2.6-25.1-.9-9.2-1.6-18.4-2.1-25.3-.2-3.5-.4-6.4-.5-8.5 0-1.1-.1-1.9-.1-2.5v-.9L519 271z"/><path class="st2" d="M522.8 187.6s.1 0 .2.1c.6.2 1.6.5 2.7 1 .6.3 1.3.7 2.1 1.2.7.4 1.4 1 2.2 1.6.7.6 1.3 1.2 2.1 1.9.4.4.7.7 1 1.1.3.4.6.8 1 1.2.7.8 1.2 1.6 1.8 2.5.3.4.6.9.9 1.3.3.5.5.9.7 1.4.5.9 1 1.9 1.4 2.9l1.2 3c.4 1 .7 2 1 3.1.3 1 .7 2.1 1 3.2.2 1.1.5 2.1.8 3.2.2 1.1.5 2.2.7 3.3.2 1.1.4 2.2.5 3.3.2 1.1.4 2.2.5 3.3.2 2.2.5 4.3.7 6.4.1 2.1.2 4.2.4 6.2s.1 3.9.2 5.7c0 1.8 0 3.5.1 5.1-.2 6.2-.3 10.4-.3 10.4l-11.9.9s-.8-3.9-2.1-9.7c-.4-1.4-.8-3-1.2-4.6-.4-1.6-.8-3.4-1.4-5.1-.5-1.7-1.1-3.5-1.6-5.3-.6-1.8-1.3-3.5-1.9-5.3-.3-.9-.7-1.7-1-2.6-.4-.8-.7-1.7-1.1-2.5-.3-.8-.8-1.6-1.1-2.3-.4-.8-.8-1.5-1.1-2.2-.4-.7-.8-1.3-1.2-2-.4-.6-.7-1.3-1.2-1.8-.4-.5-.8-1-1.1-1.5-.4-.5-.7-.8-1-1.2-.2-.2-.3-.4-.5-.5-.1-.1-.3-.2-.4-.3-.3-.2-.5-.5-.7-.5-.1 0-.2-.1-.3-.1-.1 0-.2-.1-.2-.1-.1 0-.2 0-.2.1.1.1.1.2.2.3.2.2.4.3.6.4.7.3 1.3.5 1.7.6h-.2l6-27.1z"/><path class="st5" d="M521.1 187.4s.1 0 .2.1c.2 0 .4.1.7.2.3.1.7.2 1.1.3.2.1.4.1.7.2.1.1.3.1.4.2.3.1.6.3 1 .4.8.3 1.4.7 2.2 1.1.4.2.8.4 1.2.7.4.2.7.5 1.1.8.8.5 1.7 1.1 2.4 1.8.8.7 1.6 1.4 2.4 2.2.7.8 1.5 1.6 2.3 2.5.8.9 1.4 1.8 2.1 2.7.3.5.7 1 1 1.5l.9 1.5c.6 1 1.2 2.1 1.8 3.1l1.5 3.3c.2.6.5 1.1.8 1.7.2.6.4 1.1.6 1.7.4 1.1.8 2.3 1.2 3.4.7 2.3 1.3 4.6 1.9 7 .5 2.3.9 4.6 1.3 6.9.4 2.3.6 4.4.8 6.6.1 1.1.3 2.1.3 3.1.1 1 .1 2 .2 3 .1 1.9.2 3.7.3 5.4.1 1.7 0 3.2.1 4.5v6.5l-14.3 1.1s-.2-1-.6-2.8c-.2-.9-.4-1.9-.6-3.2-.3-1.2-.5-2.6-.9-4.1-.4-1.5-.8-3.1-1.2-4.7-.2-.8-.4-1.7-.7-2.6-.2-.9-.5-1.7-.8-2.6-.6-1.8-1.1-3.6-1.8-5.4-.7-1.8-1.4-3.6-2.1-5.3-.8-1.7-1.6-3.4-2.5-4.9-.4-.7-.9-1.5-1.3-2.2-.2-.4-.4-.7-.6-1.1-.2-.3-.5-.6-.7-.9-.5-.6-.9-1.2-1.3-1.8-.5-.5-.9-1-1.3-1.5-.2-.2-.4-.5-.6-.7-.2-.2-.4-.4-.6-.5-.4-.3-.8-.8-1.2-1-.4-.2-.7-.5-1-.7-.3-.2-.6-.3-.8-.4-.3-.2-.4-.1-.6-.2-.1 0-.2 0-.2-.1h-.1c-.1 0-.1 0-.1.1l.1.1c.1 0 .2.1.3.1.2.1.3.1.5.1h.3-.3l4.5-27.2z"/><path class="st3" d="M486.4 217.2l-12.5-27.8 21.2-1z"/><g class="st0"><ellipse class="st1" cx="431.5" cy="343.1" rx="19" ry="7.5"/></g><g class="st0"><ellipse class="st1" cx="366.9" cy="343.1" rx="19" ry="7.5"/></g><circle class="st13" cx="400.4" cy="219.8" r="31.2"/><path class="st13" d="M394.3 307.7h13.1c7.9 0 14.3-6.4 14.3-14.3v-44.3c0-7.9-6.4-14.3-14.3-14.3h-13.1c-7.9 0-14.3 6.4-14.3 14.3v44.3c0 7.9 6.4 14.3 14.3 14.3z"/><path class="st13" d="M392.1 261.3c-42.7 0-51.5-30.1-51.9-31.4l16.7-4.6v-.1c.2.8 6.1 18.8 35.2 18.8 4.8 0 8.7 3.9 8.7 8.7s-3.9 8.6-8.7 8.6z"/><path class="st13" d="M439.2 275.9c-.2-.8-6.1-18.8-35.2-18.8-4.8 0-8.7-3.9-8.7-8.7s3.9-8.7 8.7-8.7c42.7 0 51.5 30.1 51.9 31.4l-16.7 4.6v.2zm-7.5 70.8c-1.7 0-3.3-.5-4.8-1.5-3.6-2.4-4.8-7-3-10.8h-.1c-6.9-4.8-19.7-13.5-20-42.9 0-4.8 3.8-8.4 8.6-8.4h.1c4.7 0 8.6 3.5 8.7 8.2.2 20.5 7.1 25.1 12.7 29 2.8 1.9 5.9 4.1 7.6 7.9 3 6.8-1.1 12.8-2.4 14.7-1.8 2.5-4.6 3.8-7.4 3.8zm-62.3 0c-2.8 0-5.5-1.3-7.2-3.8-1.3-2-5.4-8-2.4-14.8 1.7-3.8 4.8-6 7.6-8 5.5-3.9 12.4-8.4 12.7-28.9 0-4.8 3.9-8.2 8.7-8.2h.1c4.8 0 8.6 3.6 8.6 8.4-.3 29.4-13.1 38.2-20 43 0 0 0-.1-.1 0 1.8 3.8.6 8.4-3 10.8-1.7 1-3.3 1.5-5 1.5z"/><circle class="st13" cx="399.7" cy="220.5" r="4.3"/><circle class="st13" cx="399.7" cy="237.8" r="2.8"/><circle class="st13" cx="399.7" cy="255.2" r="2.8"/><circle class="st13" cx="399.7" cy="272.5" r="2.8"/><circle class="st13" cx="399.7" cy="289.8" r="2.8"/><circle class="st13" cx="391.1" cy="211.8" r="2.8"/><circle class="st13" cx="408.4" cy="211.8" r="2.8"/><circle class="st14" cx="395.2" cy="219.8" r="31.2"/><path class="st14" d="M389.1 307.7h13.1c7.9 0 14.3-6.4 14.3-14.3v-44.3c0-7.9-6.4-14.3-14.3-14.3h-13.1c-7.9 0-14.3 6.4-14.3 14.3v44.3c0 7.9 6.4 14.3 14.3 14.3z"/><path class="st14" d="M434 275.9c-.2-.8-6.1-18.8-35.2-18.8-4.8 0-8.7-3.9-8.7-8.7s3.9-8.7 8.7-8.7c42.7 0 51.5 30.1 51.9 31.4l-16.7 4.6v.2z"/><path class="st14" d="M388.6 261.3c-42.7 0-51.5-30.1-51.9-31.4l16.7-4.6v-.1c.2.8 6.1 18.8 35.2 18.8 4.8 0 8.7 3.9 8.7 8.7s-3.9 8.6-8.7 8.6zm37.9 85.4c-1.7 0-3.3-.5-4.8-1.5-3.6-2.4-4.8-7-3-10.8h-.1c-6.9-4.8-19.7-13.5-20-42.9 0-4.8 3.8-8.4 8.6-8.4h.1c4.7 0 8.6 3.5 8.7 8.2.2 20.5 7.1 25.1 12.7 29 2.8 1.9 5.9 4.1 7.6 7.9 3 6.8-1.1 12.8-2.4 14.7-1.8 2.5-4.6 3.8-7.4 3.8zm-62.3 0c-2.8 0-5.5-1.3-7.2-3.8-1.3-2-5.4-8-2.4-14.8 1.7-3.8 4.8-6 7.6-8 5.5-3.9 12.4-8.4 12.7-28.9 0-4.8 3.9-8.2 8.7-8.2h.1c4.8 0 8.6 3.6 8.6 8.4-.3 29.4-13.1 38.2-20 43 0 0 0-.1-.1 0 1.8 3.8.6 8.4-3 10.8-1.7 1-3.3 1.5-5 1.5z"/><circle class="st15" cx="394.5" cy="220.5" r="4.3"/><path class="st16" d="M389.3 232c0 1 3.3 7.3 7.3 7.3s7.3-6.3 7.3-7.3h-14.6z"/><circle class="st17" cx="394.5" cy="255.2" r="2.8"/><circle class="st18" cx="394.5" cy="272.5" r="2.8"/><circle class="st19" cx="394.5" cy="289.8" r="2.8"/><circle class="st7" cx="385.9" cy="211.8" r="2.8"/><circle class="st7" cx="403.2" cy="211.8" r="2.8"/><path class="st7" d="M339.3 239.6c-.2 0-.4 0-.6-.2-.6-.3-.9-1.1-.5-1.8l1.2-2.3c1-1.8 2.9-3.1 5-3.2 1.2-.1 2.3-.8 2.8-1.8 1-1.8 2.9-3.1 5-3.2l2.7-.1c.7-.1 1.3.5 1.4 1.2 0 .7-.5 1.3-1.2 1.4l-2.7.1c-1.2.1-2.3.8-2.8 1.8-1 1.8-2.9 3.1-5 3.2-1.2.1-2.3.8-2.8 1.8l-1.2 2.3c-.4.6-.8.8-1.3.8zm3.6 5.7c-.2 0-.4 0-.6-.2-.6-.3-.9-1.1-.5-1.8l1.2-2.3c1-1.8 2.9-3.1 5-3.2 1.2-.1 2.3-.8 2.8-1.8 1-1.8 2.9-3.1 5-3.2l2.7-.1c.7-.1 1.3.5 1.4 1.2 0 .7-.5 1.3-1.2 1.4l-2.7.1c-1.2.1-2.3.8-2.8 1.8-1 1.8-2.9 3.1-5 3.2-1.2.1-2.3.8-2.8 1.8l-1.2 2.3c-.4.5-.8.8-1.3.8zm88.6 28.8c-.7 0-1.3-.5-1.3-1.2s.5-1.3 1.2-1.4l2.7-.1c1.2-.1 2.3-.8 2.8-1.8 1-1.8 2.9-3.1 5-3.2 1.2-.1 2.3-.8 2.8-1.8l1.2-2.3c.3-.6 1.1-.9 1.8-.5.6.3.9 1.1.5 1.8l-1.2 2.3c-1 1.8-2.9 3.1-5 3.2-1.2.1-2.3.8-2.8 1.8-1 1.8-2.9 3.1-5 3.2h-2.7zm-3.6-5.6c-.7 0-1.3-.5-1.3-1.2s.5-1.3 1.2-1.4l2.7-.1c1.2-.1 2.3-.8 2.8-1.8 1-1.8 2.9-3.1 5-3.2 1.2-.1 2.3-.8 2.8-1.8l1.2-2.3c.3-.6 1.1-.9 1.8-.5.6.3.9 1.1.5 1.8l-1.2 2.3c-1 1.8-2.9 3.1-5 3.2-1.2.1-2.3.8-2.8 1.8-1 1.8-2.9 3.1-5 3.2h-2.7c.1 0 0 0 0 0zm-11.1 66.8c-.5 0-1-.3-1.2-.9-.2-.7.1-1.4.8-1.7l2.5-.9c1.1-.4 2-1.4 2.2-2.5.4-2 1.9-3.8 3.9-4.4 1.1-.4 2-1.4 2.2-2.5l.5-2.6c.1-.7.8-1.2 1.5-1 .7.1 1.2.8 1 1.5l-.5 2.6c-.4 2-1.9 3.8-3.9 4.4-1.1.4-2 1.4-2.2 2.5-.4 2-1.9 3.8-3.9 4.4l-2.5.9c-.1.2-.3.2-.4.2zm-5-4.5c-.5 0-1-.3-1.2-.9-.2-.7.1-1.4.8-1.7l2.5-.9c1.1-.4 2-1.4 2.2-2.5.4-2 1.9-3.8 3.9-4.4 1.1-.4 2-1.4 2.2-2.5l.5-2.6c.1-.7.8-1.2 1.5-1 .7.1 1.2.8 1 1.5l-.5 2.6c-.4 2-1.9 3.8-3.9 4.4-1.1.4-2 1.4-2.2 2.5-.4 2-1.9 3.8-3.9 4.4l-2.5.9c-.1.2-.3.2-.4.2zm-36.8 2.5c-.1 0-.3 0-.4-.1l-2.5-.9c-2-.7-3.5-2.4-3.9-4.4-.2-1.2-1.1-2.1-2.2-2.5-2-.7-3.5-2.4-3.9-4.4l-.5-2.6c-.1-.7.3-1.4 1-1.5.7-.1 1.4.3 1.5 1l.5 2.6c.2 1.2 1.1 2.1 2.2 2.5 2 .7 3.5 2.4 3.9 4.4.2 1.2 1.1 2.1 2.2 2.5l2.5.9c.7.2 1 1 .8 1.7-.2.4-.7.8-1.2.8zm5-4.5c-.1 0-.3 0-.4-.1l-2.5-.9c-2-.7-3.5-2.4-3.9-4.4-.2-1.2-1.1-2.1-2.2-2.5-2-.7-3.5-2.4-3.9-4.4l-.5-2.6c-.1-.7.3-1.4 1-1.5.7-.1 1.4.3 1.5 1l.5 2.6c.2 1.2 1.1 2.1 2.2 2.5 2 .7 3.5 2.4 3.9 4.4.2 1.2 1.1 2.1 2.2 2.5l2.5.9c.7.2 1 1 .8 1.7-.1.5-.6.8-1.2.8z"/><path class="st20" d="M425.8 201c-25.4 3.4-47.8-1.5-45.8-8.4 1.9-6.4 31.2-24.3 31.2-24.3s3.9 12.7 14.6 32.7z"/><path class="st21" d="M411.2 168.4s4 12.6 14.6 32.6c-1.5.2-3.1.4-4.6.5-7.9-15.2-12.2-26.2-13.8-30.7 2.3-1.5 3.8-2.4 3.8-2.4z"/><path class="st7" d="M411.9 204.6c-18.1 0-32.8-4.8-35.3-12.4-.4-1.4.3-2.8 1.7-3.3 1.4-.4 2.8.3 3.3 1.7.7 2 4.4 5 12.8 7 8.7 2.1 19.7 2.4 31.1.9 1.4-.2 2.7.8 2.9 2.2.2 1.4-.8 2.7-2.2 2.9-4.9.7-9.7 1-14.3 1z"/><circle class="st7" cx="411.9" cy="168.5" r="4.9"/><g class="st0"><ellipse class="st1" cx="169" cy="343.1" rx="45" ry="7.5"/></g><path class="st7" d="M181.5 251.5c.7 5 5.3 8.4 10.3 7.6 22.6-3.4 22.9-16.7 22.2-21.7-2.2.3-19.9 3-24.9 3.7-5 .9-8.4 5.5-7.6 10.4z"/><path class="st22" d="M102.2 109.6l-12.8 6.6 2.2 1.2-.3 2.3 2.1 1.1-.3 2.3 2 1.1-.3 2.3 2.1 1.1-.3 2.4 12.8-6.7-5.2-6z"/><g class="st11"><path class="st23" d="M124.5 227.9s15.7 21.3 40.1 17.3c24.4-4 25.9-27 25.9-27l-8.4-63.4c-3-20.2-15.4 17-35.7 19.9-20.2 3-34.4-31.5-31.4-11.3l9.5 64.5z"/></g><path class="st24" d="M87.9 193.8h-.7c-11.6-.1-20.5-3.3-26.5-9.5-8.4-8.7-8.2-20.4-8.1-25.3.3-14.3 7.1-28.4 19.7-40.8l10.9 11.1c-9.7 9.6-14.8 19.6-15 30-.1 5.2.3 10.6 3.7 14.2 3 3.1 8.2 4.7 15.5 4.7 14.2.2 29.6-6.2 42.2-17.6l10.4 11.6c-15.3 13.8-34.2 21.6-52.1 21.6z"/><g class="st11"><path class="st23" d="M51.5 156.3c.2-7.7 2.2-15.3 6-22.7 3.3-6.3 7.9-12.4 13.7-18.1 0 0-11.8 16.4-13 40.9-.5 9.7 3.6 25.3 27.8 24.6 7.2-.2 17.2-4.8 24.7-8.1 2.4-1 4.9-2.3 7.2-3.6l-3-7c-3-20.2 12.3 14.1 32.6 11.1 20.2-3 29.7-40.2 32.6-19.9l8.4 63.4-63.9 9.9-6.6-43.3c-10.4 5-21.4 7.7-32 7.5h-.1c-11.5-.2-20.4-3.3-26.3-9.5-8.5-8.6-8.2-20.2-8.1-25.2z"/></g><path class="st15" d="M91.7 174.5c-4.2 0-8.1-2.5-9.8-6.6-2.2-5.4.4-11.5 5.8-13.7.8-.3 20.1-8.1 42.4-11.4 22.8-3.4 40.2-.1 40.9.1 5.7 1.1 9.4 6.7 8.3 12.4-1.1 5.7-6.7 9.4-12.4 8.3-.1 0-14.7-2.7-33.7.1-19.8 2.9-37.4 10-37.5 10.1-1.3.5-2.7.7-4 .7z"/><path class="st25" d="M181 157.8c-2-.5-4.1.8-4.5 2.8-1.5 6.2 2.4 12.5 8.6 14 2 .5 4.1-.8 4.5-2.8.5-2-.8-4.1-2.8-4.6-2.1-.5-3.5-2.7-3-4.9.5-1.9-.8-4-2.8-4.5z"/><path class="st25" d="M184.5 146.5c-5.5-1.3-10.9 2.1-12.2 7.6-1.3 5.5 2.1 11 7.6 12.3l11.2 2.6c5.5 1.3 10.9-2.1 12.2-7.6 1.3-5.5-2.1-11-7.6-12.3l-11.2-2.6z"/><path class="st7" d="M176.3 168.2c-.5 2.1-2.6 3.3-4.6 2.9l-2.6-.6c-2.1-.5-3.3-2.6-2.9-4.6l5.5-23.1c.5-2.1 2.6-3.3 4.6-2.9l2.6.6c2.1.5 3.3 2.6 2.9 4.6l-5.5 23.1z"/><path class="st15" d="M25.9 113.9c0 23.7 18.9 43 42.2 43 23.3 0 42.2-19.2 42.2-43 0-23.7-18.9-43-42.2-43-23.3 0-42.2 19.3-42.2 43z"/><path class="st7" d="M26.8 120.9c0 22.3 18.5 40.3 41.3 40.3 22.8 0 41.3-18 41.3-40.3 0-22.3-18.5-40.3-41.3-40.3-22.8 0-41.3 18.1-41.3 40.3z"/><path class="st26" d="M37.2 120.9C37.2 137.5 51 151 68 151s30.8-13.5 30.8-30.1S85 90.8 68 90.8c-17 .1-30.8 13.5-30.8 30.1z"/><path class="st27" d="M40.3 120.9c0 15 12.4 27.1 27.8 27.1 15.3 0 27.8-12.1 27.8-27.1 0-15-12.4-27.1-27.8-27.1-15.4.1-27.8 12.2-27.8 27.1z"/><path class="st26" d="M63.2 101.7l7.3-7.4-8.9-2.7c-9.3 1.8-17.5 7.8-21.7 16.9-.5 1.1-.9 2.3-1.3 3.4 15.7-1.2 24.6-10.2 24.6-10.2z"/><path class="st26" d="M80.1 93.2s-10.3-4.2-21-1l2.7 4.4 12.2-2 6.1-1.4z"/><path class="st26" d="M74.5 102.1l-6.6-8 9.1-1.9c9.1 2.6 16.8 9.3 20.1 18.7.4 1.2.7 2.3 1 3.5-15.5-2.5-23.6-12.3-23.6-12.3z"/><path class="st1" d="M61.8 132.5c0 3.2 2.6 5.8 5.9 5.8 3.3 0 5.9-2.6 5.9-5.8m2.6-18c0 1.1.9 1.9 2 1.9s2-.9 2-1.9c0-1.1-.9-1.9-2-1.9-1.2 0-2 .8-2 1.9zm-16.1 0c0 1.1-.9 1.9-2 1.9s-2-.9-2-1.9c0-1.1.9-1.9 2-1.9 1.2 0 2 .8 2 1.9z"/><ellipse class="st28" cx="68.3" cy="122.7" rx="5.7" ry="5.3"/><path class="st15" d="M48.7 153.2c20.8-3.2 45.4-2.2 43 8 9.3.1 16.9 9.7 16.9 21.5 0 4.6-1.1 8.8-3.1 12.3.2 11.1.7 21.8.7 21.8l-78.3 4.5-2-46.2c0 .1 12.7-20.3 22.8-21.9z"/><g class="st0"><ellipse class="st1" cx="69.6" cy="343.9" rx="69.4" ry="7.5"/></g><path class="st7" d="M68.6 233.7c-3.1 0-5.7-2.5-5.7-5.7v-77c0-3.1 2.5-5.7 5.7-5.7s5.7 2.5 5.7 5.7v77c0 3.2-2.6 5.7-5.7 5.7z"/><g class="st29"><path class="st1" d="M20.9 183.5c3.3-14.7 11.3-26.4 21.5-33.5h7.2c-3.8 5.8-6.8 12.5-8.5 20.1-6.6 29.3 7.8 59.5 32.2 67.2 7.9 2.5 15.8 2.4 23.2.1-11.2 12.7-27.5 18.4-43.4 13.3-24.5-7.7-38.9-37.8-32.2-67.2z"/></g><path class="st30" d="M92.2 315.8v1.2h.1c0 14.2 26.1 21.8 26.1 21.8v4.6h-26c-2.2-.1-4.3-.9-6-2.1l-.3-.2c-.1-.1-.2-.2-.3-.2l-5.5-4.3v6.3h-6.5v-26.1l18.4-1zm-45.6 1.6c.1-.4.1-.8.1-1.2l18.5 1.1v26.1h-6.5V337l-5.5 4.3c-.1.1-.2.2-.3.2l-.3.2c-1.7 1.2-3.8 2-6 2.1h-26v-4.6c-.1 0 26-7.6 26-21.8z"/><path class="st15" d="M14.5 317.8h108.1l-15.7-96.3h-79z"/><g class="st29"><path class="st1" d="M14.5 317.8h108.1L90 302l-21.9-57.8L46.2 302z"/></g><path class="st7" d="M120.5 323.5c-18 0-32-11.5-41.8-34.1-7-16.3-11.8-38.6-14.2-66.2-.3-3.1 2-5.9 5.1-6.1 3.1-.3 5.9 2 6.1 5.1 2.3 26.4 6.8 47.5 13.4 62.7 7.9 18.4 18.1 27.3 31.3 27.3 3.1 0 5.7 2.5 5.7 5.7s-2.4 5.6-5.6 5.6z"/><path class="st7" d="M16.5 323.5c-3.1 0-5.7-2.5-5.7-5.7s2.5-5.7 5.7-5.7c13.3 0 23.6-9.1 31.5-27.8 6.5-15.3 11-36.7 13.2-63.3.3-3.1 3-5.4 6.1-5.2 3.1.3 5.4 3 5.2 6.1-2.3 27.8-7 50.3-14 66.9-9.8 23-23.9 34.7-42 34.7z"/><path class="st30" d="M106.9 216.8l1.3 8.5H29v-8.5z"/><path class="st25" d="M59.8 216.8h17.3v8.5H59.8z"/><path class="st27" d="M56.2 145.4h23.9v7.8H56.2z"/><path class="st15" d="M36.1 244.7c-3.2 0-6.3-1.4-8.4-4.2-2-2.6-19.5-26.3-16.1-47.4 3.1-19.8 17.1-37.2 17.7-37.9 3.7-4.5 10.3-5.2 14.8-1.5s5.2 10.3 1.6 14.8c-.1.1-11 13.8-13.2 27.9-1.5 9.7 7.5 25.3 12.1 31.4 3.5 4.6 2.6 11.3-2 14.8-2.1 1.4-4.3 2.1-6.5 2.1z"/><path class="st7" d="M94 156.7H41.3c-3.1 0-5.7-2.5-5.7-5.7s2.5-5.7 5.7-5.7H94c3.1 0 5.7 2.5 5.7 5.7s-2.5 5.7-5.7 5.7z"/><path class="st25" d="M39.9 239.6c-1-1.8-.4-4.1 1.4-5.2 5.6-3.2 12.7-1.3 15.8 4.2 1 1.8.4 4.1-1.4 5.2-1.8 1-4.1.4-5.2-1.4-1.1-1.9-3.6-2.6-5.5-1.5-1.7 1.2-4 .5-5.1-1.3z"/><path class="st25" d="M30 246.2c-2.8-4.9-1.1-11.1 3.8-13.9 4.9-2.8 11.1-1.1 13.9 3.8l5.7 9.9c2.8 4.9 1.1 11.1-3.8 13.9-4.9 2.8-11.1 1.1-13.9-3.7l-5.7-10z"/><path class="st7" d="M48.5 232.1c1.8-1.1 2.5-3.4 1.4-5.3l-1.3-2.3c-1.1-1.8-3.4-2.5-5.3-1.4L22.8 235c-1.8 1.1-2.5 3.4-1.4 5.3l1.3 2.3c1.1 1.8 3.4 2.5 5.3 1.4l20.5-11.9z"/><path class="st31" d="M150.5 346.5c-4.3 0-7.7-3.5-7.7-7.7V258c0-4.3 3.5-7.7 7.7-7.7s7.7 3.5 7.7 7.7v80.8c0 4.3-3.4 7.7-7.7 7.7z"/><path class="st32" d="M185.8 346.1c-3.9 0-7.3-3-7.7-6.9l-8.7-84.3c-.4-4.2 2.6-8 6.9-8.5 4.2-.4 8 2.6 8.5 6.9l8.7 84.3c.4 4.2-2.6 8-6.9 8.5h-.8z"/><path class="st32" d="M159.5 267.9c-16.4 0-30.9-12-33.4-28.8l-13.3-87.8c-2.8-18.5 9.9-35.7 28.4-38.5 18.5-2.8 35.7 9.9 38.5 28.4L193 229c2.8 18.5-9.9 35.7-28.4 38.5-1.7.3-3.4.4-5.1.4z"/><path class="st24" d="M165.2 149.6l-11.1-75.3c-1.6-10.6-11.5-18-22.1-16.4-10.6 1.6-18 11.5-16.4 22.1l12.3 83.4"/><path class="st7" d="M140.6 114.6c5-.7 9-3.8 11-8 1 1.5 1.6 3.2 1.9 5.1l4.4 29.9c1 7.1-3.9 13.7-11 14.7s-13.7-3.9-14.7-11l-4.4-29.9c-.3-1.7-.2-3.4.2-5 3.2 3.2 7.8 4.9 12.6 4.2z"/><g class="st11"><path class="st23" d="M132 57.9c.6-.1 1.2-.1 1.8-.2 9.5 1.5 17.3 8.9 18.8 18.9l1.3 8.8c6.1 41.3-16.3 54.5-31.9 37.4L115.6 80c-1.5-10.6 5.8-20.5 16.4-22.1z"/></g><path class="st24" d="M116.7 87.4l-1.1-7.4c-1.6-10.6 5.8-20.5 16.4-22.1 10.6-1.6 20.5 5.8 22.1 16.4l1.1 7.7c7.3 48.9-31.6 52.5-38.5 5.4z"/><path class="st24" d="M152.4 71.8l8.9-16.8s12.1 38.2-10.1 36.6l1.2-19.8zm-34.3 5l-13.4-13.5s-.6 40.1 20.2 32.1l-6.8-18.6z"/><g class="st0"><path class="st33" d="M138.4 110.9c3.6-.5 6-3.9 5.5-7.4-.5-3.6-3.9-6-7.4-5.5-3.6.5-6 3.9-5.5 7.4.5 3.6 3.8 6.1 7.4 5.5z"/></g><path class="st34" d="M140 107.3c3.6-.5 6-3.9 5.5-7.4-.5-3.6-3.9-6-7.4-5.5-3.6.5-6 3.9-5.5 7.4.5 3.5 3.8 6 7.4 5.5z"/><path class="st35" d="M141.1 81.3c-.6 0-1.1-.4-1.2-1-.4-2.9 1.6-5.7 4.5-6.1 1.4-.2 2.9.1 4 1 1.2.9 1.9 2.1 2.1 3.5.1.7-.4 1.3-1 1.4-.7.1-1.3-.4-1.4-1-.1-.8-.5-1.5-1.2-2-.6-.5-1.4-.7-2.2-.6-1.6.2-2.8 1.8-2.5 3.4.1.7-.4 1.3-1 1.4h-.1zm-20 2.9c-.6 0-1.1-.4-1.2-1-.2-1.4.2-2.9 1-4 .9-1.2 2.1-1.9 3.6-2.1 3-.4 5.7 1.6 6.1 4.6.1.7-.4 1.3-1 1.4-.7.1-1.3-.4-1.4-1-.2-1.6-1.8-2.8-3.4-2.5-.8.1-1.5.5-2 1.2-.5.6-.7 1.4-.6 2.2.1.7-.4 1.3-1 1.4 0-.2 0-.2-.1-.2z"/><path class="st36" d="M97.8 33.5l14.3-2.1c4.7-.7 8-5.1 7.3-9.8L117 5.5c-.2-1.6-1.7-2.7-3.3-2.4-1.6.2-2.7 1.7-2.4 3.3l2.4 16.2c.2 1.6-.9 3-2.4 3.3l-14.3 2c-1.6.2-2.7 1.7-2.4 3.3.2 1.5 1.6 2.6 3.2 2.3z"/><path class="st36" d="M127 66.7c1.6-.2 2.7-1.7 2.4-3.3l-2.8-18.8c-.7-4.7-5.1-8-9.8-7.3l-15 2.2c-1.6.2-3-.9-3.3-2.4l-1.3-9c-.7-4.7-5.1-8-9.8-7.3l-18.2 2.7c-1.6.2-2.7 1.7-2.4 3.3.2 1.6 1.7 2.7 3.3 2.4l18.2-2.7c1.6-.2 3 .9 3.3 2.4l1.3 9c.7 4.7 5.1 8 9.8 7.3l15-2.2c1.6-.2 3 .9 3.3 2.4l2.8 18.8c.2 1.6 1.6 2.7 3.2 2.5z"/><path class="st36" d="M88.1 60.8l14.3-2.1c4.7-.7 8-5.1 7.3-9.8l-.9-5.9c-.2-1.6-1.7-2.7-3.3-2.4-1.6.2-2.7 1.7-2.4 3.3l.9 5.9c.2 1.6-.9 3-2.4 3.3l-14.3 2.1c-1.6.2-3-.9-3.3-2.4l-1.9-13c-.2-1.6-1.7-2.7-3.3-2.4-1.6.2-2.7 1.7-2.4 3.3l1.9 13c.7 4.5 5.1 7.8 9.8 7.1zm69.7-36.1l-14.3 2.1c-4.7.7-9.1-2.6-9.8-7.3l-2.4-16.2c-.2-1.6.9-3 2.4-3.3 1.6-.2 3 .9 3.3 2.4l2.4 16.2c.2 1.6 1.7 2.7 3.3 2.4l14.3-2c1.6-.2 3 .9 3.3 2.4.2 1.6-.9 3.1-2.5 3.3z"/><path class="st36" d="M139.4 64.9c-1.6.2-3-.9-3.3-2.4l-2.8-18.8c-.7-4.7 2.6-9.1 7.3-9.8l15-2.2c1.6-.2 2.7-1.7 2.4-3.3l-1.3-9c-.7-4.7 2.6-9.1 7.3-9.8l18.2-2.7c1.6-.2 3 .9 3.3 2.4.2 1.6-.9 3-2.4 3.3l-18.2 2.7c-1.6.2-2.7 1.7-2.4 3.3l1.3 9c.7 4.7-2.6 9.1-7.3 9.8l-15 2.2c-1.6.2-2.7 1.7-2.4 3.3l2.8 18.8c.1 1.5-1 2.9-2.5 3.2z"/><path class="st36" d="M174.9 48l-14.3 2.1c-4.7.7-9.1-2.6-9.8-7.3L150 37c-.2-1.6.9-3 2.4-3.3 1.6-.2 3 .9 3.3 2.4l.9 5.9c.2 1.6 1.7 2.7 3.3 2.4l14.3-2.1c1.6-.2 2.7-1.7 2.4-3.3l-1.9-13c-.2-1.6.9-3 2.4-3.3 1.6-.2 3 .9 3.3 2.4l1.9 13c.6 4.9-2.7 9.2-7.4 9.9z"/><path class="st37" d="M175.1 116.2l-16.2 5 14.4 3.3z"/><path class="st1" d="M172.5 192.7c-8.1-54.4-2.4-87.1 10.4-89 12.8-1.9 27.9 27.7 36 82l-46.4 7z"/><path class="st7" d="M206.4 187.7c-6.5-29.9-21.6-52.1-37-55.9-1.6 15.3-.6 38.3 2.8 61l34.2-5.1z"/><circle class="st7" cx="185.5" cy="118.4" r="2.7"/><path class="st37" d="M171.9 192.8c-1.1-7.6 2.7-9.7 7.8-10.5 5-.8 9.4.2 10.5 7.7l-18.3 2.8z"/><path class="st15" d="M168.4 104.9s22.9-21.2 34.7-26.9c0 0-10 17.7-3.2 25.5l-31.5 1.4z"/><path class="st7" d="M168 108.4c0 1.2.9 2.1 2.1 2.1l31.4-.1c1.2 0 2.1-.9 2.1-2.1v-3.9c0-1.2-1-2.1-2.1-2.1l-31.4.1c-1.2 0-2.1.9-2.1 2.1v3.9z"/><circle class="st7" cx="205.6" cy="75.4" r="3.4"/><path class="st24" d="M221 178.6c-2.1 3.7-6.8 5-10.5 3l-29.6-16.8 7.5-13.5 29.6 16.8c3.7 2 5.1 6.7 3 10.5z"/><path class="st22" d="M178.5 163.4l12.6 7.1-.2-2.4 2.1-1-.3-2.3 2.2-1.1-.3-2.3 2.1-1-.2-2.4 2.1-1-12.5-7-2.2 7.6z"/><g class="st11"><path class="st23" d="M178.5 163.4l2.4 1.3 29.6 16.8c3.7 2.1 8.4.8 10.5-3 1.1-2 1.3-4.4.5-6.4-.1.8-.4 1.7-.9 2.5-2.1 3.7-6.8 5-10.5 3L180.8 161l-2.3 2.4z"/></g><g class="st0"><ellipse class="st1" cx="285.1" cy="354.4" rx="94.4" ry="7.5"/></g><path class="st15" d="M352.6 178.7c-5.6 0-11.5-.6-17.8-1.3-10.5-1.1-22.3-2.3-37-1.7-8.6.4-15.8-6.3-16.2-14.9-.3-8.6 6.3-15.8 14.9-16.2 16.9-.7 30.5.7 41.5 1.9 7.2.7 16.9 1.7 19.4.6.3-.3 1.9-2.6 3.3-10.8 1.4-8.6 2-21.3 2-39.8 0-8.6 7-15.6 15.6-15.6s15.6 7 15.6 15.6c0 39.6-2.4 61.8-15.6 73.8-7.5 6.6-16.1 8.4-25.7 8.4z"/><path class="st25" d="M377.6 94.4c0 2.9-2.3 5.1-5.2 5.1-8.7 0-15.9-7.1-15.9-15.8 0-2.8 2.3-5.1 5.2-5.2 2.9 0 5.2 2.3 5.2 5.2 0 3 2.5 5.5 5.5 5.5 2.9 0 5.2 2.3 5.2 5.2z"/><g class="st38"><path class="st1" d="M377.6 94.4c0 2.9-2.3 5.1-5.2 5.1-8.7 0-15.9-7.1-15.9-15.8 0-2.8 2.3-5.1 5.2-5.2 2.9 0 5.2 2.3 5.2 5.2 0 3 2.5 5.5 5.5 5.5 2.9 0 5.2 2.3 5.2 5.2z"/></g><path class="st25" d="M366 93.2V77.4c0-7.6 6.2-13.8 13.8-13.8 7.6 0 13.8 6.2 13.8 13.9v15.7c0 7.7-6.3 13.8-13.9 13.8-7.5.1-13.7-6.2-13.7-13.8z"/><path class="st7" d="M364.4 95.7c-2.9 0-5.2 2.3-5.2 5.2v5.2c0 2.9 2.3 5.2 5.2 5.2h27.7c2.9 0 5.2-2.3 5.2-5.2v-5.2c0-2.9-2.3-5.2-5.2-5.2h-27.7z"/><path class="st15" d="M244.4 248h36.3v47.6h-36.3z"/><path class="st30" d="M244.4 311.1v18.2c-13.9 0-25.1 11.2-25.1 25.1h61.4v-43.3h-36.3z"/><path class="st7" d="M244.4 295.6h36.3v15.6h-36.3z"/><path class="st15" d="M289.4 248h36.3v47.6h-36.3z"/><path class="st30" d="M325.8 311.1v18.2c13.9 0 25.1 11.2 25.1 25.1h-61.4v-43.3h36.3z"/><path class="st7" d="M289.4 295.6h36.3v15.6h-36.3z"/><circle class="st15" cx="284.2" cy="201.2" r="64"/><g class="st29"><path class="st1" d="M284.2 137.2c14.8 0 28.4 5 39.3 13.5-11.4 18.9-32.3 31.5-56.3 31.5h-.4c-14.6 0-26.9-9.8-30.7-23.1 11.7-13.4 28.9-21.9 48.1-21.9z"/></g><path class="st30" d="M220.2 201.2h128.1V222H220.2z"/><path class="st25" d="M271.3 201.2H299V222h-27.7z"/><g class="st29"><path class="st1" d="M260.8 141.6c-16.7 11.6-27.6 30.8-27.6 52.7 0 35.4 28.7 64 64 64 8.3 0 16.2-1.6 23.4-4.4-10.3 7.2-22.9 11.4-36.4 11.4-35.4 0-64-28.7-64-64 0-27.2 16.8-50.3 40.6-59.7z"/></g><path class="st15" d="M219.4 231.2c-2.2 0-4.4-.5-6.4-1.4-18.4-8.4-28-24.2-25.8-42.2 2.8-22.2 22.7-40.9 48.4-45.5 8.5-1.5 16.6 4.1 18.1 12.6s-4.1 16.6-12.6 18.1c-13.2 2.4-22.1 11.4-23 18.7-.2 1.7-.8 6.1 7.8 10 7.8 3.6 11.3 12.8 7.7 20.6-2.6 5.8-8.3 9.1-14.2 9.1z"/><g class="st29"><path class="st1" d="M219.4 231.2c-2.2 0-4.4-.5-6.4-1.4-18.4-8.4-28-24.2-25.8-42.2 2.8-22.2 22.7-40.9 48.4-45.5 8.5-1.5 16.6 4.1 18.1 12.6s-4.1 16.6-12.6 18.1c-13.2 2.4-22.1 11.4-23 18.7-.2 1.7-.8 6.1 7.8 10 7.8 3.6 11.3 12.8 7.7 20.6-2.6 5.8-8.3 9.1-14.2 9.1z"/></g><path class="st25" d="M221.6 215.9c-2.6-1.2-3.7-4.2-2.6-6.8 3.6-8 13-11.6 20.9-8 2.6 1.2 3.7 4.2 2.6 6.8-1.2 2.6-4.2 3.8-6.8 2.6-2.8-1.2-6 0-7.3 2.8-1.1 2.7-4.2 3.8-6.8 2.6z"/><g class="st38"><path class="st1" d="M221.6 215.9c-2.6-1.2-3.7-4.2-2.6-6.8 3.6-8 13-11.6 20.9-8 2.6 1.2 3.7 4.2 2.6 6.8-1.2 2.6-4.2 3.8-6.8 2.6-2.8-1.2-6 0-7.3 2.8-1.1 2.7-4.2 3.8-6.8 2.6z"/></g><path class="st25" d="M227.5 205.9l14.3 6.4h.1c7 3.2 10.1 11.3 6.9 18.3-3.1 7-11.3 10.1-18.3 6.9l-14.3-6.4c-7-3.2-10.1-11.4-6.9-18.3 3-6.9 11.2-10 18.2-6.9z"/><path class="st7" d="M225.9 203.4c1.2-2.6 0-5.7-2.6-6.9l-4.7-2.1c-2.6-1.2-5.7 0-6.9 2.6l-11.3 25.3c-1.2 2.6 0 5.7 2.6 6.9l4.7 2.1c2.6 1.2 5.7 0 6.9-2.6l11.3-25.3z"/><path class="st28" d="M307.2 107.8c0 5.3 4.4 9.5 9.7 9.5 5.4 0 9.7-4.2 9.7-9.5 0-5.2-4.4-9.5-9.7-9.5-5.4 0-9.7 4.2-9.7 9.5zm-63.6 0c0 5.3 4.4 9.5 9.7 9.5 5.4 0 9.7-4.2 9.7-9.5 0-5.2-4.4-9.5-9.7-9.5-5.4 0-9.7 4.2-9.7 9.5z"/><path class="st7" d="M320.6 56.7c0 5.7 4.6 10.4 10.4 10.4 5.7 0 10.4-4.6 10.4-10.4 0-5.7-4.6-10.4-10.4-10.4-5.8 0-10.4 4.7-10.4 10.4z"/><path class="st27" d="M285.1 77.5c-19.1 0-34.6 15.5-34.6 34.6v34.6h69.2v-34.6c0-19.1-15.5-34.6-34.6-34.6z"/><path class="st7" d="M275.6 110.4c-17.7 0-32 14.3-32 32s14.3 32 32 32h.4c36.1 0 65.4-28.7 65.4-64h-65.8z"/><path class="st28" d="M275.6 110.4c0 4.3 4.3 7.8 9.5 7.8 5.3 0 9.5-3.5 9.5-7.8s-4.3-7.8-9.5-7.8-9.5 3.5-9.5 7.8z"/><path class="st30" d="M278.2 120.8c0 3.8 3.1 6.9 6.9 6.9 3.8 0 6.9-3.1 6.9-6.9h-13.8z"/><path class="st15" d="M315.9 56.7h.4v41.5h-65.8c0-22.9 29.3-41.5 65.4-41.5z"/><path class="st7" d="M250.5 77.5c-2.9 0-5.2 2.3-5.2 5.2v10.4c0 2.9 2.3 5.2 5.2 5.2h69.2c2.9 0 5.2-2.3 5.2-5.2V82.7c0-2.9-2.3-5.2-5.2-5.2h-69.2z"/><path class="st30" d="M299 103.4c0 1.4 1.2 2.6 2.6 2.6 1.4 0 2.6-1.2 2.6-2.6 0-1.4-1.2-2.6-2.6-2.6-1.5.1-2.6 1.2-2.6 2.6zm-27.7 0c0 1.4-1.2 2.6-2.6 2.6-1.4 0-2.6-1.2-2.6-2.6 0-1.4 1.2-2.6 2.6-2.6 1.4.1 2.6 1.2 2.6 2.6z"/><g class="st39"><path class="st40" d="M141.4 102.5c.2-2.7-2.2-5-4.8-5.1.6-.8 1.5-1.3 2.6-1.5 2.3-.3 4.4 1.2 4.7 3.5.3 2-.9 3.9-2.8 4.5.2-.4.3-.9.3-1.4z"/></g></svg>