<svg xmlns="http://www.w3.org/2000/svg" xmlns:xlink="http://www.w3.org/1999/xlink" version="1.1" id="Layer_1" x="0" y="0" viewBox="0 0 561 362" xml:space="preserve" enable-background="new 0 0 561 362"><style type="text/css">
	.st0{opacity:0.2;}
	.st1{fill:#231F20;}
	.st2{fill:#F0A42B;}
	.st3{fill:#EF802B;}
	.st4{fill:#FABD2D;}
	.st5{fill:#FCD140;}
	.st6{fill:#F5B12A;}
	.st7{fill:#FFFFFF;}
	.st8{opacity:7.000000e-02;}
	.st9{fill:#010101;}
	.st10{fill:#DE4A3F;}
	.st11{opacity:0.1;}
	.st12{fill:#E48A2D;}
	.st13{fill:#81441E;}
	.st14{fill:#A56E3F;}
	.st15{fill:#E53A35;}
	.st16{fill:#333333;}
	.st17{fill:#EC407A;}
	.st18{fill:#F28621;}
	.st19{fill:#28AFE5;}
	.st20{fill:#0B9048;}
	.st21{fill:#11713C;}
	.st22{fill:#A36D3F;}
	.st23{fill:#1D191A;}
	.st24{fill:#D5B06F;}
	.st25{fill:#F9CE1E;}
	.st26{fill:#B4B4B4;}
	.st27{fill:#F7CBAE;}
	.st28{fill:#EF9A9B;}
	.st29{opacity:0.15;}
	.st30{fill:#212121;}
	.st31{fill:#BA9A60;}
	.st32{fill:#D5B06E;}
	.st33{fill:#221F1F;}
	.st34{fill:#E52329;}
	.st35{fill:#202020;}
	.st36{fill:#5B5B5B;}
	.st37{fill:#FED208;}
	.st38{opacity:5.000000e-02;}
	.st39{opacity:0.55;}
	.st40{fill:#F9C087;}
</style><g class="st0"><ellipse class="st1" cx="484.5" cy="342.2" rx="45" ry="7.5"/></g><path class="st2" d="M498.9 279c0 0-0.1 0.1-0.2 0.2 -0.1 0.1 0 0 0 0 0 0 0-0.1 0-0.1 0.1-0.2-0.1 0-0.2 0.2 -0.1 0.1-0.1 0.1-0.2 0.2 -0.1 0.1-0.2 0.2-0.3 0.4 -0.2 0.3-0.4 0.5-0.7 0.9 -0.3 0.4-0.6 0.8-0.9 1.2 -0.6 1-1.3 2-2 3.3 -0.7 1.2-1.5 2.7-2.2 4.3 -0.4 0.8-0.7 1.7-1.1 2.5 -0.4 0.9-0.8 1.7-1.1 2.7 -0.7 1.9-1.5 3.8-2.1 5.9 -0.3 1-0.7 2.1-1 3.1 -0.3 1.1-0.6 2.1-0.9 3.2 -0.3 1.1-0.6 2.2-0.9 3.2 -0.3 1.1-0.5 2.2-0.8 3.3 -0.3 1.1-0.5 2.2-0.7 3.2 -0.2 1.1-0.4 2.1-0.6 3.2 -0.4 2.1-0.8 4.1-1.1 6.1 -0.3 2-0.6 3.8-0.8 5.5 -0.3 1.7-0.4 3.3-0.6 4.7 -0.1 1.4-0.3 2.6-0.4 3.7 -0.2 2-0.3 3.2-0.3 3.2h-20.6c0 0-0.1-1.3-0.2-3.5 -0.1-1.1-0.1-2.4-0.2-4 -0.1-1.5-0.2-3.3-0.2-5.2 0-1.9-0.1-4-0.1-6.2 -0.1-2.2 0.1-4.5 0.1-6.9 0-1.2 0-2.4 0.1-3.7 0.1-1.3 0.2-2.5 0.2-3.8 0.1-1.3 0.2-2.6 0.2-3.9 0.1-1.3 0.3-2.6 0.4-3.9 0.1-1.3 0.3-2.6 0.4-3.9 0.2-1.3 0.4-2.6 0.6-3.9 0.4-2.6 0.9-5.2 1.4-7.7 0.2-1.2 0.6-2.5 0.9-3.7 0.3-1.2 0.6-2.4 0.9-3.6 0.7-2.3 1.3-4.5 2.1-6.6 0.7-2 1.5-4 2.2-5.7 0.8-1.7 1.5-3.2 2.2-4.5 0.2-0.3 0.3-0.6 0.5-0.9 0.2-0.3 0.4-0.6 0.5-0.9 0.3-0.6 0.5-0.9 1-1.5 0.6-0.9 0.9-1.3 0.9-1.3L498.9 279z"/><path class="st2" d="M518 275.3c0 0 0 0.1 0 0.2 0 0.1 0 0.2-0.1 0.4 -0.1 0.4-0.2 1.1-0.4 1.9 -0.3 1.7-0.7 4.3-1.2 7.4 -0.9 6.3-2 14.8-3 23.4 -1 8.6-1.8 17.2-2.4 23.7 -0.6 6.5-1 10.8-1 10.8h-19.5c0 0-0.4-4.4-0.9-11 -0.5-6.6-1.2-15.4-1.7-24.2 -0.5-8.8-1-17.7-1.1-24.5 -0.1-3.4-0.1-6.3-0.1-8.3 0-1.1 0-1.9 0-2.5 0-0.7 0-1 0-1L518 275.3z"/><path class="st3" d="M401 231.3c0 0 1.3-0.3 3.4-0.6 0.5-0.1 1.2-0.2 1.8-0.3 0.6-0.1 1.2-0.3 1.8-0.4 0.6-0.1 1.3-0.3 2-0.4 0.7-0.2 1.5-0.4 2.3-0.6 1.6-0.3 3.3-0.9 5.1-1.4 0.9-0.3 1.8-0.6 2.7-0.9 0.5-0.2 0.9-0.3 1.4-0.5 0.5-0.2 0.9-0.4 1.4-0.6 0.9-0.4 1.9-0.7 2.8-1.1 0.9-0.4 1.9-0.9 2.8-1.3 1.8-1 3.7-1.9 5.5-3 0.9-0.5 1.8-1.1 2.7-1.7 0.9-0.6 1.7-1.2 2.6-1.8 1.6-1.3 3.3-2.5 4.8-3.9 1.6-1.3 3-2.6 4.3-3.9 0.7-0.6 1.3-1.3 2-1.9 0.6-0.6 1.2-1.3 1.8-1.8 1.2-1.2 2.2-2.4 3.1-3.3 0.9-1 1.7-1.9 2.4-2.7 1.3-1.5 2.1-2.3 2.1-2.3l16.4 11.9c0 0-0.7 1.1-2 3.1 -0.7 1-1.4 2.2-2.5 3.5 -1 1.3-2.1 2.8-3.5 4.3 -0.7 0.8-1.4 1.6-2.2 2.4 -0.7 0.8-1.5 1.7-2.4 2.5 -0.9 0.8-1.8 1.7-2.7 2.5 -0.9 0.9-2 1.7-3 2.5 -2 1.7-4.3 3.3-6.6 4.8 -2.4 1.5-4.8 3-7.4 4.2 -2.5 1.3-5.2 2.3-7.9 3.3 -1.4 0.4-2.7 0.8-4 1.2 -1.3 0.4-2.7 0.6-4 0.9 -0.7 0.1-1.3 0.3-1.9 0.4 -0.7 0.1-1.3 0.2-1.9 0.3 -1.3 0.1-2.5 0.3-3.7 0.4 -2.4 0.1-4.7 0.2-6.8 0 -1-0.1-2-0.1-3-0.2 -1-0.1-1.9-0.2-2.8-0.4 -0.9-0.1-1.7-0.3-2.4-0.4 -0.4 0-0.7-0.1-1-0.2 -0.3-0.1-0.6-0.2-0.8-0.2 -2.1-0.6-3.4-1-3.4-1L401 231.3z"/><circle class="st4" cx="483" cy="141" r="43.6"/><circle class="st5" cx="483" cy="141" r="43.6"/><path class="st6" d="M501 178.4c-23.4 6.4-48.3-7.8-54.7-31.2 -3.8-14-0.3-28.5 8.2-39.3 -10.1 8.7-16.1 21.9-15.1 36.2 1.7 24 22.6 42.2 46.6 40.5 9.8-0.7 18.6-4.6 25.5-10.5C508.3 175.9 504.8 177.4 501 178.4z"/><path class="st7" d="M538.7 72.5c-5.9 4.6-6.9 13.2-2.2 19.3 4.7 6.1 13.3 7.3 19.2 2.7 5.9-4.6 6.9-13.2 2.2-19.3C553.2 69.1 544.6 67.9 538.7 72.5z"/><g class="st8"><path class="st9" d="M555.5 94.6c-5.9 4.4-14.4 3.2-19.1-2.8 -3.4-4.4-3.8-10.2-1.5-14.8C540.2 84.5 547.3 90.6 555.5 94.6z"/></g><path class="st10" d="M439.6 117.2c7.2-17.6 16.2-33.1 26.4-44.9 17.6-20.5 42.1-16.3 67.9 1.2 1.8 1.2 3.5 4.3 1.4 5.9 -3.2 2.4-6.6 7.4-4 17.4 4.4 16.7-7.2 34.3-7.2 34.5C496.2 119.6 467.1 114.9 439.6 117.2z"/><g class="st11"><path class="st9" d="M466 72.3c7.5-8.7 16.2-12.9 25.7-13.6 -14.8 6.6-26.6 16-25.8 38.7 0.3 7.8 11.5 14.7 14.6 21.5 -13.8-2.2-27.5-2.7-40.9-1.6C446.7 99.7 455.8 84.1 466 72.3z"/></g><path class="st6" d="M526 142c-26.1-12.9-54.3-19.6-82.4-19.7 6.4-13.5 19.7-23.4 35.7-24.8 24-2.1 45.2 15.7 47.2 39.7 0.1 1.7 0.2 3.4 0.1 5.1C526.4 142.2 526.2 142.1 526 142z"/><path class="st7" d="M434.3 114.9c-0.7 3.6 1.6 6.3 5 6.1 28.8-1.6 59 3.9 87.9 16.3 3.5 1.5 6.9 0.2 7.5-3.1 1.1-5.4 2.3-10.8 3.4-16.2 0.7-3.2-1.6-7.3-5-8.9 -28.8-13.4-59-19.8-87.9-19.2 -3.5 0.1-6.9 3.2-7.5 6.8C436.5 102.8 435.4 108.9 434.3 114.9z"/><polygon class="st12" points="461 191.2 486.7 190.3 470.9 214.4 "/><g class="st8"><path class="st9" d="M434.3 114.9c1.1-6.1 2.3-12.1 3.4-18.1 0.7-3.6 4.1-6.7 7.5-6.8 1.8 0 3.5 0 5.3 0 -2.2 5.8-3.4 12.1-3.4 18.7 0 4.2 0.5 8.3 1.5 12.2 -3.1 0-6.2 0.1-9.2 0.3C435.8 121.2 433.6 118.5 434.3 114.9z"/></g><polygon class="st2" points="487.9 275.5 472.7 277.5 456.3 190.3 485.6 188.8 "/><polygon class="st5" points="487.9 275.5 518.8 273.2 522.2 187.3 485.6 188.8 "/><path class="st5" d="M519 271c0 0 0 0.2-0.1 0.7 -0.1 0.5-0.1 1.2-0.3 2.1 -0.2 1.9-0.5 4.6-0.8 8 -0.6 6.7-1.4 15.7-2 24.7 -0.6 9-1.2 18.1-1.6 24.9 -0.4 6.8-0.6 11.3-0.6 11.3l-19.5 0.6c0 0-0.5-4.6-1.3-11.4 -0.7-6.8-1.7-16-2.6-25.1 -0.9-9.2-1.6-18.4-2.1-25.3 -0.2-3.5-0.4-6.4-0.5-8.5 0-1.1-0.1-1.9-0.1-2.5 0-0.6 0-0.9 0-0.9L519 271z"/><path class="st2" d="M522.8 187.6c0 0 0.1 0 0.2 0.1 0.6 0.2 1.6 0.5 2.7 1 0.6 0.3 1.3 0.7 2.1 1.2 0.7 0.4 1.4 1 2.2 1.6 0.7 0.6 1.3 1.2 2.1 1.9 0.4 0.4 0.7 0.7 1 1.1 0.3 0.4 0.6 0.8 1 1.2 0.7 0.8 1.2 1.6 1.8 2.5 0.3 0.4 0.6 0.9 0.9 1.3 0.3 0.5 0.5 0.9 0.7 1.4 0.5 0.9 1 1.9 1.4 2.9 0.4 1 0.8 2 1.2 3 0.4 1 0.7 2 1 3.1 0.3 1 0.7 2.1 1 3.2 0.2 1.1 0.5 2.1 0.8 3.2 0.2 1.1 0.5 2.2 0.7 3.3 0.2 1.1 0.4 2.2 0.5 3.3 0.2 1.1 0.4 2.2 0.5 3.3 0.2 2.2 0.5 4.3 0.7 6.4 0.1 2.1 0.2 4.2 0.4 6.2 0.2 2 0.1 3.9 0.2 5.7 0 1.8 0 3.5 0.1 5.1 -0.2 6.2-0.3 10.4-0.3 10.4l-11.9 0.9c0 0-0.8-3.9-2.1-9.7 -0.4-1.4-0.8-3-1.2-4.6 -0.4-1.6-0.8-3.4-1.4-5.1 -0.5-1.7-1.1-3.5-1.6-5.3 -0.6-1.8-1.3-3.5-1.9-5.3 -0.3-0.9-0.7-1.7-1-2.6 -0.4-0.8-0.7-1.7-1.1-2.5 -0.3-0.8-0.8-1.6-1.1-2.3 -0.4-0.8-0.8-1.5-1.1-2.2 -0.4-0.7-0.8-1.3-1.2-2 -0.4-0.6-0.7-1.3-1.2-1.8 -0.4-0.5-0.8-1-1.1-1.5 -0.4-0.5-0.7-0.8-1-1.2 -0.2-0.2-0.3-0.4-0.5-0.5 -0.1-0.1-0.3-0.2-0.4-0.3 -0.3-0.2-0.5-0.5-0.7-0.5 -0.1 0-0.2-0.1-0.3-0.1 -0.1 0-0.2-0.1-0.2-0.1 -0.1 0-0.2 0-0.2 0.1 0.1 0.1 0.1 0.2 0.2 0.3 0.2 0.2 0.4 0.3 0.6 0.4 0.7 0.3 1.3 0.5 1.7 0.6 -0.1 0-0.2 0-0.2 0L522.8 187.6z"/><path class="st5" d="M521.1 187.4c0 0 0.1 0 0.2 0.1 0.2 0 0.4 0.1 0.7 0.2 0.3 0.1 0.7 0.2 1.1 0.3 0.2 0.1 0.4 0.1 0.7 0.2 0.1 0.1 0.3 0.1 0.4 0.2 0.3 0.1 0.6 0.3 1 0.4 0.8 0.3 1.4 0.7 2.2 1.1 0.4 0.2 0.8 0.4 1.2 0.7 0.4 0.2 0.7 0.5 1.1 0.8 0.8 0.5 1.7 1.1 2.4 1.8 0.8 0.7 1.6 1.4 2.4 2.2 0.7 0.8 1.5 1.6 2.3 2.5 0.8 0.9 1.4 1.8 2.1 2.7 0.3 0.5 0.7 1 1 1.5 0.3 0.5 0.6 1 0.9 1.5 0.6 1 1.2 2.1 1.8 3.1 0.5 1.1 1 2.2 1.5 3.3 0.2 0.6 0.5 1.1 0.8 1.7 0.2 0.6 0.4 1.1 0.6 1.7 0.4 1.1 0.8 2.3 1.2 3.4 0.7 2.3 1.3 4.6 1.9 7 0.5 2.3 0.9 4.6 1.3 6.9 0.4 2.3 0.6 4.4 0.8 6.6 0.1 1.1 0.3 2.1 0.3 3.1 0.1 1 0.1 2 0.2 3 0.1 1.9 0.2 3.7 0.3 5.4 0.1 1.7 0 3.2 0.1 4.5 0 1.3 0 2.5 0 3.5 0 1.9 0 3 0 3l-14.3 1.1c0 0-0.2-1-0.6-2.8 -0.2-0.9-0.4-1.9-0.6-3.2 -0.3-1.2-0.5-2.6-0.9-4.1 -0.4-1.5-0.8-3.1-1.2-4.7 -0.2-0.8-0.4-1.7-0.7-2.6 -0.2-0.9-0.5-1.7-0.8-2.6 -0.6-1.8-1.1-3.6-1.8-5.4 -0.7-1.8-1.4-3.6-2.1-5.3 -0.8-1.7-1.6-3.4-2.5-4.9 -0.4-0.7-0.9-1.5-1.3-2.2 -0.2-0.4-0.4-0.7-0.6-1.1 -0.2-0.3-0.5-0.6-0.7-0.9 -0.5-0.6-0.9-1.2-1.3-1.8 -0.5-0.5-0.9-1-1.3-1.5 -0.2-0.2-0.4-0.5-0.6-0.7 -0.2-0.2-0.4-0.4-0.6-0.5 -0.4-0.3-0.8-0.8-1.2-1 -0.4-0.2-0.7-0.5-1-0.7 -0.3-0.2-0.6-0.3-0.8-0.4 -0.3-0.2-0.4-0.1-0.6-0.2 -0.1 0-0.2 0-0.2-0.1 0 0-0.1 0-0.1 0 -0.1 0-0.1 0-0.1 0.1 0 0 0 0 0.1 0.1 0 0 0 0 0 0 0.1 0 0.2 0.1 0.3 0.1 0.2 0.1 0.3 0.1 0.5 0.1 0.1 0 0.1 0 0.2 0l0.1 0 -0.1 0c-0.1 0-0.2 0-0.2 0L521.1 187.4z"/><polygon class="st3" points="486.4 217.2 473.9 189.4 495.1 188.4 "/><g class="st0"><ellipse class="st1" cx="431.5" cy="343.1" rx="19" ry="7.5"/></g><g class="st0"><ellipse class="st1" cx="366.9" cy="343.1" rx="19" ry="7.5"/></g><circle class="st13" cx="400.4" cy="219.8" r="31.2"/><path class="st13" d="M394.3 307.7h13.1c7.9 0 14.3-6.4 14.3-14.3v-44.3c0-7.9-6.4-14.3-14.3-14.3h-13.1c-7.9 0-14.3 6.4-14.3 14.3v44.3C380 301.3 386.4 307.7 394.3 307.7z"/><path class="st13" d="M392.1 261.3c-42.7 0-51.5-30.1-51.9-31.4l16.7-4.6 0-0.1c0.2 0.8 6.1 18.8 35.2 18.8 4.8 0 8.7 3.9 8.7 8.7S396.9 261.3 392.1 261.3z"/><path class="st13" d="M439.2 275.9c-0.2-0.8-6.1-18.8-35.2-18.8 -4.8 0-8.7-3.9-8.7-8.7s3.9-8.7 8.7-8.7c42.7 0 51.5 30.1 51.9 31.4l-16.7 4.6L439.2 275.9z"/><path class="st13" d="M431.7 346.7c-1.7 0-3.3-0.5-4.8-1.5 -3.6-2.4-4.8-7-3-10.8 0 0 0 0-0.1 0 -6.9-4.8-19.7-13.5-20-42.9 0-4.8 3.8-8.4 8.6-8.4 0 0 0.1 0 0.1 0 4.7 0 8.6 3.5 8.7 8.2 0.2 20.5 7.1 25.1 12.7 29 2.8 1.9 5.9 4.1 7.6 7.9 3 6.8-1.1 12.8-2.4 14.7C437.3 345.4 434.5 346.7 431.7 346.7z"/><path class="st13" d="M369.4 346.7c-2.8 0-5.5-1.3-7.2-3.8 -1.3-2-5.4-8-2.4-14.8 1.7-3.8 4.8-6 7.6-8 5.5-3.9 12.4-8.4 12.7-28.9 0-4.8 3.9-8.2 8.7-8.2 0 0 0.1 0 0.1 0 4.8 0 8.6 3.6 8.6 8.4 -0.3 29.4-13.1 38.2-20 43 0 0 0-0.1-0.1 0 1.8 3.8 0.6 8.4-3 10.8C372.7 346.2 371.1 346.7 369.4 346.7z"/><circle class="st13" cx="399.7" cy="220.5" r="4.3"/><circle class="st13" cx="399.7" cy="237.8" r="2.8"/><circle class="st13" cx="399.7" cy="255.2" r="2.8"/><circle class="st13" cx="399.7" cy="272.5" r="2.8"/><circle class="st13" cx="399.7" cy="289.8" r="2.8"/><circle class="st13" cx="391.1" cy="211.8" r="2.8"/><circle class="st13" cx="408.4" cy="211.8" r="2.8"/><circle class="st14" cx="395.2" cy="219.8" r="31.2"/><path class="st14" d="M389.1 307.7h13.1c7.9 0 14.3-6.4 14.3-14.3v-44.3c0-7.9-6.4-14.3-14.3-14.3h-13.1c-7.9 0-14.3 6.4-14.3 14.3v44.3C374.8 301.3 381.2 307.7 389.1 307.7z"/><path class="st14" d="M434 275.9c-0.2-0.8-6.1-18.8-35.2-18.8 -4.8 0-8.7-3.9-8.7-8.7s3.9-8.7 8.7-8.7c42.7 0 51.5 30.1 51.9 31.4l-16.7 4.6L434 275.9z"/><path class="st14" d="M388.6 261.3c-42.7 0-51.5-30.1-51.9-31.4l16.7-4.6 0-0.1c0.2 0.8 6.1 18.8 35.2 18.8 4.8 0 8.7 3.9 8.7 8.7S393.4 261.3 388.6 261.3z"/><path class="st14" d="M426.5 346.7c-1.7 0-3.3-0.5-4.8-1.5 -3.6-2.4-4.8-7-3-10.8 0 0 0 0-0.1 0 -6.9-4.8-19.7-13.5-20-42.9 0-4.8 3.8-8.4 8.6-8.4 0 0 0.1 0 0.1 0 4.7 0 8.6 3.5 8.7 8.2 0.2 20.5 7.1 25.1 12.7 29 2.8 1.9 5.9 4.1 7.6 7.9 3 6.8-1.1 12.8-2.4 14.7C432.1 345.4 429.3 346.7 426.5 346.7z"/><path class="st14" d="M364.2 346.7c-2.8 0-5.5-1.3-7.2-3.8 -1.3-2-5.4-8-2.4-14.8 1.7-3.8 4.8-6 7.6-8 5.5-3.9 12.4-8.4 12.7-28.9 0-4.8 3.9-8.2 8.7-8.2 0 0 0.1 0 0.1 0 4.8 0 8.6 3.6 8.6 8.4 -0.3 29.4-13.1 38.2-20 43 0 0 0-0.1-0.1 0 1.8 3.8 0.6 8.4-3 10.8C367.5 346.2 365.9 346.7 364.2 346.7z"/><circle class="st15" cx="394.5" cy="220.5" r="4.3"/><path class="st16" d="M389.3 232c0 1 3.3 7.3 7.3 7.3s7.3-6.3 7.3-7.3H389.3z"/><circle class="st17" cx="394.5" cy="255.2" r="2.8"/><circle class="st18" cx="394.5" cy="272.5" r="2.8"/><circle class="st19" cx="394.5" cy="289.8" r="2.8"/><circle class="st7" cx="385.9" cy="211.8" r="2.8"/><circle class="st7" cx="403.2" cy="211.8" r="2.8"/><path class="st7" d="M339.3 239.6c-0.2 0-0.4 0-0.6-0.2 -0.6-0.3-0.9-1.1-0.5-1.8l1.2-2.3c1-1.8 2.9-3.1 5-3.2 1.2-0.1 2.3-0.8 2.8-1.8 1-1.8 2.9-3.1 5-3.2l2.7-0.1c0.7-0.1 1.3 0.5 1.4 1.2 0 0.7-0.5 1.3-1.2 1.4l-2.7 0.1c-1.2 0.1-2.3 0.8-2.8 1.8 -1 1.8-2.9 3.1-5 3.2 -1.2 0.1-2.3 0.8-2.8 1.8l-1.2 2.3C340.2 239.4 339.8 239.6 339.3 239.6z"/><path class="st7" d="M342.9 245.3c-0.2 0-0.4 0-0.6-0.2 -0.6-0.3-0.9-1.1-0.5-1.8l1.2-2.3c1-1.8 2.9-3.1 5-3.2 1.2-0.1 2.3-0.8 2.8-1.8 1-1.8 2.9-3.1 5-3.2l2.7-0.1c0.7-0.1 1.3 0.5 1.4 1.2 0 0.7-0.5 1.3-1.2 1.4l-2.7 0.1c-1.2 0.1-2.3 0.8-2.8 1.8 -1 1.8-2.9 3.1-5 3.2 -1.2 0.1-2.3 0.8-2.8 1.8l-1.2 2.3C343.8 245 343.4 245.3 342.9 245.3z"/><path class="st7" d="M431.5 274.1c-0.7 0-1.3-0.5-1.3-1.2 0-0.7 0.5-1.3 1.2-1.4l2.7-0.1c1.2-0.1 2.3-0.8 2.8-1.8 1-1.8 2.9-3.1 5-3.2 1.2-0.1 2.3-0.8 2.8-1.8l1.2-2.3c0.3-0.6 1.1-0.9 1.8-0.5 0.6 0.3 0.9 1.1 0.5 1.8l-1.2 2.3c-1 1.8-2.9 3.1-5 3.2 -1.2 0.1-2.3 0.8-2.8 1.8 -1 1.8-2.9 3.1-5 3.2L431.5 274.1C431.5 274.1 431.5 274.1 431.5 274.1z"/><path class="st7" d="M427.9 268.5c-0.7 0-1.3-0.5-1.3-1.2 0-0.7 0.5-1.3 1.2-1.4l2.7-0.1c1.2-0.1 2.3-0.8 2.8-1.8 1-1.8 2.9-3.1 5-3.2 1.2-0.1 2.3-0.8 2.8-1.8l1.2-2.3c0.3-0.6 1.1-0.9 1.8-0.5 0.6 0.3 0.9 1.1 0.5 1.8l-1.2 2.3c-1 1.8-2.9 3.1-5 3.2 -1.2 0.1-2.3 0.8-2.8 1.8 -1 1.8-2.9 3.1-5 3.2L427.9 268.5C428 268.5 427.9 268.5 427.9 268.5z"/><path class="st7" d="M416.8 335.3c-0.5 0-1-0.3-1.2-0.9 -0.2-0.7 0.1-1.4 0.8-1.7l2.5-0.9c1.1-0.4 2-1.4 2.2-2.5 0.4-2 1.9-3.8 3.9-4.4 1.1-0.4 2-1.4 2.2-2.5l0.5-2.6c0.1-0.7 0.8-1.2 1.5-1 0.7 0.1 1.2 0.8 1 1.5l-0.5 2.6c-0.4 2-1.9 3.8-3.9 4.4 -1.1 0.4-2 1.4-2.2 2.5 -0.4 2-1.9 3.8-3.9 4.4l-2.5 0.9C417.1 335.3 416.9 335.3 416.8 335.3z"/><path class="st7" d="M411.8 330.8c-0.5 0-1-0.3-1.2-0.9 -0.2-0.7 0.1-1.4 0.8-1.7l2.5-0.9c1.1-0.4 2-1.4 2.2-2.5 0.4-2 1.9-3.8 3.9-4.4 1.1-0.4 2-1.4 2.2-2.5l0.5-2.6c0.1-0.7 0.8-1.2 1.5-1 0.7 0.1 1.2 0.8 1 1.5l-0.5 2.6c-0.4 2-1.9 3.8-3.9 4.4 -1.1 0.4-2 1.4-2.2 2.5 -0.4 2-1.9 3.8-3.9 4.4l-2.5 0.9C412.1 330.8 411.9 330.8 411.8 330.8z"/><path class="st7" d="M375 333.3c-0.1 0-0.3 0-0.4-0.1l-2.5-0.9c-2-0.7-3.5-2.4-3.9-4.4 -0.2-1.2-1.1-2.1-2.2-2.5 -2-0.7-3.5-2.4-3.9-4.4l-0.5-2.6c-0.1-0.7 0.3-1.4 1-1.5 0.7-0.1 1.4 0.3 1.5 1l0.5 2.6c0.2 1.2 1.1 2.1 2.2 2.5 2 0.7 3.5 2.4 3.9 4.4 0.2 1.2 1.1 2.1 2.2 2.5l2.5 0.9c0.7 0.2 1 1 0.8 1.7C376 332.9 375.5 333.3 375 333.3z"/><path class="st7" d="M380 328.8c-0.1 0-0.3 0-0.4-0.1l-2.5-0.9c-2-0.7-3.5-2.4-3.9-4.4 -0.2-1.2-1.1-2.1-2.2-2.5 -2-0.7-3.5-2.4-3.9-4.4l-0.5-2.6c-0.1-0.7 0.3-1.4 1-1.5 0.7-0.1 1.4 0.3 1.5 1l0.5 2.6c0.2 1.2 1.1 2.1 2.2 2.5 2 0.7 3.5 2.4 3.9 4.4 0.2 1.2 1.1 2.1 2.2 2.5l2.5 0.9c0.7 0.2 1 1 0.8 1.7C381.1 328.5 380.6 328.8 380 328.8z"/><path class="st20" d="M425.8 201c-25.4 3.4-47.8-1.5-45.8-8.4 1.9-6.4 31.2-24.3 31.2-24.3S415.1 181 425.8 201z"/><path class="st21" d="M411.2 168.4c0 0 4 12.6 14.6 32.6 -1.5 0.2-3.1 0.4-4.6 0.5 -7.9-15.2-12.2-26.2-13.8-30.7C409.7 169.3 411.2 168.4 411.2 168.4z"/><path class="st7" d="M411.9 204.6c-18.1 0-32.8-4.8-35.3-12.4 -0.4-1.4 0.3-2.8 1.7-3.3 1.4-0.4 2.8 0.3 3.3 1.7 0.7 2 4.4 5 12.8 7 8.7 2.1 19.7 2.4 31.1 0.9 1.4-0.2 2.7 0.8 2.9 2.2 0.2 1.4-0.8 2.7-2.2 2.9C421.3 204.3 416.5 204.6 411.9 204.6z"/><circle class="st7" cx="411.9" cy="168.5" r="4.9"/><g class="st0"><ellipse class="st1" cx="169" cy="343.1" rx="45" ry="7.5"/></g><path class="st7" d="M181.5 251.5c0.7 5 5.3 8.4 10.3 7.6 22.6-3.4 22.9-16.7 22.2-21.7 -2.2 0.3-19.9 3-24.9 3.7C184.1 242 180.7 246.6 181.5 251.5z"/><polygon class="st22" points="102.2 109.6 89.4 116.2 91.6 117.4 91.3 119.7 93.4 120.8 93.1 123.1 95.1 124.2 94.8 126.5 96.9 127.6 96.6 130 96.6 130 109.4 123.3 104.2 117.3 "/><g class="st11"><path class="st23" d="M124.5 227.9c0 0 15.7 21.3 40.1 17.3 24.4-4 25.9-27 25.9-27l-8.4-63.4c-3-20.2-15.4 17-35.7 19.9 -20.2 3-34.4-31.5-31.4-11.3L124.5 227.9z"/></g><path class="st24" d="M87.9 193.8c-0.2 0-0.5 0-0.7 0 -11.6-0.1-20.5-3.3-26.5-9.5 -8.4-8.7-8.2-20.4-8.1-25.3 0.3-14.3 7.1-28.4 19.7-40.8l10.9 11.1c-9.7 9.6-14.8 19.6-15 30 -0.1 5.2 0.3 10.6 3.7 14.2 3 3.1 8.2 4.7 15.5 4.7 14.2 0.2 29.6-6.2 42.2-17.6l10.4 11.6C124.7 186 105.8 193.8 87.9 193.8z"/><g class="st11"><path class="st23" d="M51.5 156.3c0.2-7.7 2.2-15.3 6-22.7 3.3-6.3 7.9-12.4 13.7-18.1 0 0-11.8 16.4-13 40.9 -0.5 9.7 3.6 25.3 27.8 24.6 7.2-0.2 17.2-4.8 24.7-8.1 2.4-1 4.9-2.3 7.2-3.6l-3-7c-3-20.2 12.3 14.1 32.6 11.1 20.2-3 29.7-40.2 32.6-19.9l8.4 63.4 -63.9 9.9 -6.6-43.3c-10.4 5-21.4 7.7-32 7.5 0 0-0.1 0-0.1 0 -11.5-0.2-20.4-3.3-26.3-9.5C51.1 172.9 51.4 161.3 51.5 156.3z"/></g><path class="st15" d="M91.7 174.5c-4.2 0-8.1-2.5-9.8-6.6 -2.2-5.4 0.4-11.5 5.8-13.7 0.8-0.3 20.1-8.1 42.4-11.4 22.8-3.4 40.2-0.1 40.9 0.1 5.7 1.1 9.4 6.7 8.3 12.4 -1.1 5.7-6.7 9.4-12.4 8.3 -0.1 0-14.7-2.7-33.7 0.1 -19.8 2.9-37.4 10-37.5 10.1C94.4 174.3 93 174.5 91.7 174.5z"/><path class="st25" d="M181 157.8c-2-0.5-4.1 0.8-4.5 2.8 -1.5 6.2 2.4 12.5 8.6 14 0 0 0 0 0 0 2 0.5 4.1-0.8 4.5-2.8 0.5-2-0.8-4.1-2.8-4.6 -2.1-0.5-3.5-2.7-3-4.9C184.3 160.4 183 158.3 181 157.8L181 157.8z"/><path class="st25" d="M184.5 146.5c-5.5-1.3-10.9 2.1-12.2 7.6 -1.3 5.5 2.1 11 7.6 12.3l11.2 2.6c0 0 0 0 0 0 5.5 1.3 10.9-2.1 12.2-7.6 1.3-5.5-2.1-11-7.6-12.3L184.5 146.5C184.5 146.5 184.5 146.5 184.5 146.5z"/><path class="st7" d="M176.3 168.2c-0.5 2.1-2.6 3.3-4.6 2.9l-2.6-0.6c-2.1-0.5-3.3-2.6-2.9-4.6l5.5-23.1c0.5-2.1 2.6-3.3 4.6-2.9l2.6 0.6c2.1 0.5 3.3 2.6 2.9 4.6L176.3 168.2z"/><path class="st15" d="M25.9 113.9c0 23.7 18.9 43 42.2 43 23.3 0 42.2-19.2 42.2-43 0-23.7-18.9-43-42.2-43C44.8 70.9 25.9 90.2 25.9 113.9z"/><path class="st7" d="M26.8 120.9c0 22.3 18.5 40.3 41.3 40.3 22.8 0 41.3-18 41.3-40.3 0-22.3-18.5-40.3-41.3-40.3C45.3 80.6 26.8 98.7 26.8 120.9z"/><path class="st26" d="M37.2 120.9c0 16.6 13.8 30.1 30.8 30.1 17 0 30.8-13.5 30.8-30.1 0-16.6-13.8-30.1-30.8-30.1C51 90.9 37.2 104.3 37.2 120.9z"/><path class="st27" d="M40.3 120.9c0 15 12.4 27.1 27.8 27.1 15.3 0 27.8-12.1 27.8-27.1 0-15-12.4-27.1-27.8-27.1C52.7 93.9 40.3 106 40.3 120.9z"/><path class="st26" d="M63.2 101.7l7.3-7.4 -8.9-2.7c-9.3 1.8-17.5 7.8-21.7 16.9 -0.5 1.1-0.9 2.3-1.3 3.4C54.3 110.7 63.2 101.7 63.2 101.7z"/><path class="st26" d="M80.1 93.2c0 0-10.3-4.2-21-1l2.7 4.4 12.2-2L80.1 93.2z"/><path class="st26" d="M74.5 102.1l-6.6-8 9.1-1.9c9.1 2.6 16.8 9.3 20.1 18.7 0.4 1.2 0.7 2.3 1 3.5C82.6 111.9 74.5 102.1 74.5 102.1z"/><path class="st1" d="M61.8 132.5c0 3.2 2.6 5.8 5.9 5.8 3.3 0 5.9-2.6 5.9-5.8"/><path class="st1" d="M76.2 114.5c0 1.1 0.9 1.9 2 1.9 1.1 0 2-0.9 2-1.9 0-1.1-0.9-1.9-2-1.9C77 112.6 76.2 113.4 76.2 114.5z"/><path class="st1" d="M60.1 114.5c0 1.1-0.9 1.9-2 1.9 -1.1 0-2-0.9-2-1.9 0-1.1 0.9-1.9 2-1.9C59.3 112.6 60.1 113.4 60.1 114.5z"/><ellipse class="st28" cx="68.3" cy="122.7" rx="5.7" ry="5.3"/><path class="st15" d="M48.7 153.2c20.8-3.2 45.4-2.2 43 8 9.3 0.1 16.9 9.7 16.9 21.5 0 4.6-1.1 8.8-3.1 12.3 0.2 11.1 0.7 21.8 0.7 21.8l-78.3 4.5 -2-46.2C25.9 175.2 38.6 154.8 48.7 153.2z"/><g class="st0"><ellipse class="st1" cx="69.6" cy="343.9" rx="69.4" ry="7.5"/></g><path class="st7" d="M68.6 233.7c-3.1 0-5.7-2.5-5.7-5.7v-77c0-3.1 2.5-5.7 5.7-5.7s5.7 2.5 5.7 5.7v77C74.3 231.2 71.7 233.7 68.6 233.7z"/><g class="st29"><path class="st1" d="M20.9 183.5c3.3-14.7 11.3-26.4 21.5-33.5h7.2c-3.8 5.8-6.8 12.5-8.5 20.1 -6.6 29.3 7.8 59.5 32.2 67.2 7.9 2.5 15.8 2.4 23.2 0.1 -11.2 12.7-27.5 18.4-43.4 13.3C28.6 243 14.2 212.9 20.9 183.5z"/></g><path class="st30" d="M92.2 315.8c0 0.4 0 0.8 0 1.2h0.1c0 14.2 26.1 21.8 26.1 21.8v4.6h-0.8 -8.2 -17c0 0 0 0 0 0 -2.2-0.1-4.3-0.9-6-2.1l0 0 -0.3-0.2c-0.1-0.1-0.2-0.2-0.3-0.2l-5.5-4.3v6.3h-1.6 -4.9v-11.9 -14.2L92.2 315.8z"/><path class="st30" d="M46.6 317.4L46.6 317.4c0.1-0.4 0.1-0.8 0.1-1.2l18.5 1.1v14.2 11.9h-4.9 -1.6V337l-5.5 4.3c-0.1 0.1-0.2 0.2-0.3 0.2l-0.3 0.2 0 0c-1.7 1.2-3.8 2-6 2.1 0 0 0 0 0 0h-17 -8.2 -0.8v-4.6C20.5 339.2 46.6 331.6 46.6 317.4z"/><polygon class="st15" points="14.5 317.8 122.6 317.8 106.9 221.5 27.9 221.5 "/><g class="st29"><polygon class="st1" points="14.5 317.8 122.6 317.8 90 302 68.1 244.2 46.2 302 "/></g><path class="st7" d="M120.5 323.5c-18 0-32-11.5-41.8-34.1 -7-16.3-11.8-38.6-14.2-66.2 -0.3-3.1 2-5.9 5.1-6.1 3.1-0.3 5.9 2 6.1 5.1 2.3 26.4 6.8 47.5 13.4 62.7 7.9 18.4 18.1 27.3 31.3 27.3 3.1 0 5.7 2.5 5.7 5.7S123.7 323.5 120.5 323.5z"/><path class="st7" d="M16.5 323.5c-3.1 0-5.7-2.5-5.7-5.7s2.5-5.7 5.7-5.7c13.3 0 23.6-9.1 31.5-27.8C54.5 269 59 247.6 61.2 221c0.3-3.1 3-5.4 6.1-5.2 3.1 0.3 5.4 3 5.2 6.1 -2.3 27.8-7 50.3-14 66.9C48.7 311.8 34.6 323.5 16.5 323.5z"/><polygon class="st30" points="106.9 216.8 108.2 225.3 29 225.3 29 216.8 "/><rect x="59.8" y="216.8" class="st25" width="17.3" height="8.5"/><rect x="56.2" y="145.4" class="st27" width="23.9" height="7.8"/><path class="st15" d="M36.1 244.7c-3.2 0-6.3-1.4-8.4-4.2 -2-2.6-19.5-26.3-16.1-47.4 3.1-19.8 17.1-37.2 17.7-37.9 3.7-4.5 10.3-5.2 14.8-1.5 4.5 3.7 5.2 10.3 1.6 14.8h0c-0.1 0.1-11 13.8-13.2 27.9 -1.5 9.7 7.5 25.3 12.1 31.4 3.5 4.6 2.6 11.3-2 14.8C40.5 244 38.3 244.7 36.1 244.7z"/><path class="st7" d="M94 156.7H41.3c-3.1 0-5.7-2.5-5.7-5.7s2.5-5.7 5.7-5.7H94c3.1 0 5.7 2.5 5.7 5.7S97.2 156.7 94 156.7z"/><path class="st25" d="M39.9 239.6c-1-1.8-0.4-4.1 1.4-5.2 5.6-3.2 12.7-1.3 15.8 4.2 0 0 0 0 0 0 1 1.8 0.4 4.1-1.4 5.2 -1.8 1-4.1 0.4-5.2-1.4 -1.1-1.9-3.6-2.6-5.5-1.5C43.3 242.1 41 241.4 39.9 239.6 39.9 239.6 39.9 239.6 39.9 239.6z"/><path class="st25" d="M30 246.2c-2.8-4.9-1.1-11.1 3.8-13.9 4.9-2.8 11.1-1.1 13.9 3.8l5.7 9.9c0 0 0 0 0 0 2.8 4.9 1.1 11.1-3.8 13.9 -4.9 2.8-11.1 1.1-13.9-3.7L30 246.2C30 246.2 30 246.2 30 246.2z"/><path class="st7" d="M48.5 232.1c1.8-1.1 2.5-3.4 1.4-5.3l-1.3-2.3c-1.1-1.8-3.4-2.5-5.3-1.4L22.8 235c-1.8 1.1-2.5 3.4-1.4 5.3l1.3 2.3c1.1 1.8 3.4 2.5 5.3 1.4L48.5 232.1z"/><path class="st31" d="M150.5 346.5c-4.3 0-7.7-3.5-7.7-7.7v-80.8c0-4.3 3.5-7.7 7.7-7.7s7.7 3.5 7.7 7.7v80.8C158.2 343.1 154.8 346.5 150.5 346.5z"/><path class="st32" d="M185.8 346.1c-3.9 0-7.3-3-7.7-6.9l-8.7-84.3c-0.4-4.2 2.6-8 6.9-8.5 4.2-0.4 8 2.6 8.5 6.9l8.7 84.3c0.4 4.2-2.6 8-6.9 8.5C186.3 346.1 186.1 346.1 185.8 346.1z"/><path class="st32" d="M159.5 267.9c-16.4 0-30.9-12-33.4-28.8l-13.3-87.8c-2.8-18.5 9.9-35.7 28.4-38.5 18.5-2.8 35.7 9.9 38.5 28.4l13.3 87.8c2.8 18.5-9.9 35.7-28.4 38.5C162.9 267.8 161.2 267.9 159.5 267.9z"/><path class="st24" d="M165.2 149.6l-11.1-75.3c-1.6-10.6-11.5-18-22.1-16.4 -10.6 1.6-18 11.5-16.4 22.1l12.3 83.4"/><path class="st7" d="M140.6 114.6c5-0.7 9-3.8 11-8 1 1.5 1.6 3.2 1.9 5.1l4.4 29.9c1 7.1-3.9 13.7-11 14.7 -7.1 1-13.7-3.9-14.7-11l-4.4-29.9c-0.3-1.7-0.2-3.4 0.2-5C131.2 113.6 135.8 115.3 140.6 114.6z"/><g class="st11"><path class="st23" d="M132 57.9c0.6-0.1 1.2-0.1 1.8-0.2 9.5 1.5 17.3 8.9 18.8 18.9l1.3 8.8c6.1 41.3-16.3 54.5-31.9 37.4L115.6 80C114.1 69.4 121.4 59.5 132 57.9z"/></g><path class="st24" d="M116.7 87.4l-1.1-7.4c-1.6-10.6 5.8-20.5 16.4-22.1 10.6-1.6 20.5 5.8 22.1 16.4l1.1 7.7C162.5 130.9 123.6 134.5 116.7 87.4z"/><path class="st24" d="M152.4 71.8l8.9-16.8c0 0 12.1 38.2-10.1 36.6L152.4 71.8z"/><path class="st24" d="M118.1 76.8l-13.4-13.5c0 0-0.6 40.1 20.2 32.1L118.1 76.8z"/><g class="st0"><path class="st33" d="M138.4 110.9c3.6-0.5 6-3.9 5.5-7.4l0 0c-0.5-3.6-3.9-6-7.4-5.5l0 0c-3.6 0.5-6 3.9-5.5 7.4l0 0C131.5 109 134.8 111.5 138.4 110.9L138.4 110.9z"/></g><path class="st34" d="M140 107.3c3.6-0.5 6-3.9 5.5-7.4l0 0c-0.5-3.6-3.9-6-7.4-5.5l0 0c-3.6 0.5-6 3.9-5.5 7.4l0 0C133.1 105.3 136.4 107.8 140 107.3L140 107.3z"/><path class="st35" d="M141.1 81.3c-0.6 0-1.1-0.4-1.2-1 -0.4-2.9 1.6-5.7 4.5-6.1 1.4-0.2 2.9 0.1 4 1 1.2 0.9 1.9 2.1 2.1 3.5 0.1 0.7-0.4 1.3-1 1.4 -0.7 0.1-1.3-0.4-1.4-1 -0.1-0.8-0.5-1.5-1.2-2 -0.6-0.5-1.4-0.7-2.2-0.6 -1.6 0.2-2.8 1.8-2.5 3.4 0.1 0.7-0.4 1.3-1 1.4C141.2 81.3 141.1 81.3 141.1 81.3z"/><path class="st35" d="M121.1 84.2c-0.6 0-1.1-0.4-1.2-1 -0.2-1.4 0.2-2.9 1-4 0.9-1.2 2.1-1.9 3.6-2.1 3-0.4 5.7 1.6 6.1 4.6 0.1 0.7-0.4 1.3-1 1.4 -0.7 0.1-1.3-0.4-1.4-1 -0.2-1.6-1.8-2.8-3.4-2.5 -0.8 0.1-1.5 0.5-2 1.2 -0.5 0.6-0.7 1.4-0.6 2.2 0.1 0.7-0.4 1.3-1 1.4C121.2 84.2 121.2 84.2 121.1 84.2z"/><path class="st36" d="M97.8 33.5l14.3-2.1c4.7-0.7 8-5.1 7.3-9.8L117 5.5c-0.2-1.6-1.7-2.7-3.3-2.4 -1.6 0.2-2.7 1.7-2.4 3.3l2.4 16.2c0.2 1.6-0.9 3-2.4 3.3L97 27.9c-1.6 0.2-2.7 1.7-2.4 3.3C94.8 32.7 96.2 33.8 97.8 33.5z"/><path class="st36" d="M127 66.7c1.6-0.2 2.7-1.7 2.4-3.3l-2.8-18.8c-0.7-4.7-5.1-8-9.8-7.3l-15 2.2c-1.6 0.2-3-0.9-3.3-2.4l-1.3-9c-0.7-4.7-5.1-8-9.8-7.3l-18.2 2.7c-1.6 0.2-2.7 1.7-2.4 3.3 0.2 1.6 1.7 2.7 3.3 2.4l18.2-2.7c1.6-0.2 3 0.9 3.3 2.4l1.3 9c0.7 4.7 5.1 8 9.8 7.3l15-2.2c1.6-0.2 3 0.9 3.3 2.4l2.8 18.8C124 65.8 125.4 66.9 127 66.7z"/><path class="st36" d="M88.1 60.8l14.3-2.1c4.7-0.7 8-5.1 7.3-9.8l-0.9-5.9c-0.2-1.6-1.7-2.7-3.3-2.4 -1.6 0.2-2.7 1.7-2.4 3.3l0.9 5.9c0.2 1.6-0.9 3-2.4 3.3l-14.3 2.1c-1.6 0.2-3-0.9-3.3-2.4l-1.9-13c-0.2-1.6-1.7-2.7-3.3-2.4 -1.6 0.2-2.7 1.7-2.4 3.3l1.9 13C79 58.2 83.4 61.5 88.1 60.8z"/><path class="st36" d="M157.8 24.7l-14.3 2.1c-4.7 0.7-9.1-2.6-9.8-7.3l-2.4-16.2c-0.2-1.6 0.9-3 2.4-3.3 1.6-0.2 3 0.9 3.3 2.4l2.4 16.2c0.2 1.6 1.7 2.7 3.3 2.4L157 19c1.6-0.2 3 0.9 3.3 2.4C160.5 23 159.4 24.5 157.8 24.7z"/><path class="st36" d="M139.4 64.9c-1.6 0.2-3-0.9-3.3-2.4l-2.8-18.8c-0.7-4.7 2.6-9.1 7.3-9.8l15-2.2c1.6-0.2 2.7-1.7 2.4-3.3l-1.3-9c-0.7-4.7 2.6-9.1 7.3-9.8l18.2-2.7c1.6-0.2 3 0.9 3.3 2.4 0.2 1.6-0.9 3-2.4 3.3l-18.2 2.7c-1.6 0.2-2.7 1.7-2.4 3.3l1.3 9c0.7 4.7-2.6 9.1-7.3 9.8l-15 2.2c-1.6 0.2-2.7 1.7-2.4 3.3l2.8 18.8C142 63.2 140.9 64.6 139.4 64.9z"/><path class="st36" d="M174.9 48l-14.3 2.1c-4.7 0.7-9.1-2.6-9.8-7.3L150 37c-0.2-1.6 0.9-3 2.4-3.3 1.6-0.2 3 0.9 3.3 2.4l0.9 5.9c0.2 1.6 1.7 2.7 3.3 2.4l14.3-2.1c1.6-0.2 2.7-1.7 2.4-3.3l-1.9-13c-0.2-1.6 0.9-3 2.4-3.3 1.6-0.2 3 0.9 3.3 2.4l1.9 13C182.9 43 179.6 47.3 174.9 48z"/><polygon class="st37" points="175.1 116.2 158.9 121.2 173.3 124.5 "/><path class="st1" d="M172.5 192.7c-8.1-54.4-2.4-87.1 10.4-89 12.8-1.9 27.9 27.7 36 82L172.5 192.7z"/><path class="st7" d="M206.4 187.7c-6.5-29.9-21.6-52.1-37-55.9 -1.6 15.3-0.6 38.3 2.8 61L206.4 187.7z"/><circle class="st7" cx="185.5" cy="118.4" r="2.7"/><path class="st37" d="M171.9 192.8c-1.1-7.6 2.7-9.7 7.8-10.5 5-0.8 9.4 0.2 10.5 7.7L171.9 192.8z"/><path class="st15" d="M168.4 104.9c0 0 22.9-21.2 34.7-26.9 0 0-10 17.7-3.2 25.5L168.4 104.9z"/><path class="st7" d="M168 108.4c0 1.2 0.9 2.1 2.1 2.1l31.4-0.1c1.2 0 2.1-0.9 2.1-2.1l0-3.9c0-1.2-1-2.1-2.1-2.1l-31.4 0.1c-1.2 0-2.1 0.9-2.1 2.1L168 108.4z"/><circle class="st7" cx="205.6" cy="75.4" r="3.4"/><path class="st24" d="M221 178.6c-2.1 3.7-6.8 5-10.5 3l-29.6-16.8 7.5-13.5 29.6 16.8C221.7 170.1 223.1 174.8 221 178.6z"/><polygon class="st22" points="178.5 163.4 191.1 170.5 190.9 168.1 193 167.1 192.7 164.8 194.9 163.7 194.6 161.4 196.7 160.4 196.5 158 198.6 157 198.6 157 186.1 150 183.9 157.6 "/><g class="st11"><path class="st23" d="M178.5 163.4l2.4 1.3 29.6 16.8c3.7 2.1 8.4 0.8 10.5-3 1.1-2 1.3-4.4 0.5-6.4 -0.1 0.8-0.4 1.7-0.9 2.5 -2.1 3.7-6.8 5-10.5 3L180.8 161 178.5 163.4z"/></g><g class="st0"><ellipse class="st1" cx="285.1" cy="354.4" rx="94.4" ry="7.5"/></g><path class="st15" d="M352.6 178.7c-5.6 0-11.5-0.6-17.8-1.3 -10.5-1.1-22.3-2.3-37-1.7 -8.6 0.4-15.8-6.3-16.2-14.9 -0.3-8.6 6.3-15.8 14.9-16.2 16.9-0.7 30.5 0.7 41.5 1.9 7.2 0.7 16.9 1.7 19.4 0.6 0.3-0.3 1.9-2.6 3.3-10.8 1.4-8.6 2-21.3 2-39.8 0-8.6 7-15.6 15.6-15.6s15.6 7 15.6 15.6c0 39.6-2.4 61.8-15.6 73.8C370.8 176.9 362.2 178.7 352.6 178.7z"/><path class="st25" d="M377.6 94.4c0 2.9-2.3 5.1-5.2 5.1 -8.7 0-15.9-7.1-15.9-15.8 0 0 0 0 0 0 0-2.8 2.3-5.1 5.2-5.2 2.9 0 5.2 2.3 5.2 5.2 0 3 2.5 5.5 5.5 5.5C375.3 89.2 377.6 91.5 377.6 94.4L377.6 94.4z"/><g class="st38"><path class="st1" d="M377.6 94.4c0 2.9-2.3 5.1-5.2 5.1 -8.7 0-15.9-7.1-15.9-15.8 0 0 0 0 0 0 0-2.8 2.3-5.1 5.2-5.2 2.9 0 5.2 2.3 5.2 5.2 0 3 2.5 5.5 5.5 5.5C375.3 89.2 377.6 91.5 377.6 94.4L377.6 94.4z"/></g><path class="st25" d="M366 93.2l0-15.7c0 0 0 0 0-0.1 0-7.6 6.2-13.8 13.8-13.8 7.6 0 13.8 6.2 13.8 13.9 0 0 0 15.7 0 15.7 0 7.7-6.3 13.8-13.9 13.8C372.2 107.1 366 100.8 366 93.2z"/><path class="st7" d="M364.4 95.7c-2.9 0-5.2 2.3-5.2 5.2l0 5.2c0 2.9 2.3 5.2 5.2 5.2l27.7 0c2.9 0 5.2-2.3 5.2-5.2l0-5.2c0-2.9-2.3-5.2-5.2-5.2L364.4 95.7z"/><rect x="244.4" y="248" class="st15" width="36.3" height="47.6"/><path class="st30" d="M244.4 311.1v18.2c-13.9 0-25.1 11.2-25.1 25.1h25.1 36.3v-43.3H244.4z"/><rect x="244.4" y="295.6" class="st7" width="36.3" height="15.6"/><rect x="289.4" y="248" class="st15" width="36.3" height="47.6"/><path class="st30" d="M325.8 311.1v18.2c13.9 0 25.1 11.2 25.1 25.1h-25.1 -36.3v-43.3H325.8z"/><rect x="289.4" y="295.6" class="st7" width="36.3" height="15.6"/><circle class="st15" cx="284.2" cy="201.2" r="64"/><g class="st29"><path class="st1" d="M284.2 137.2c14.8 0 28.4 5 39.3 13.5 -11.4 18.9-32.3 31.5-56.3 31.5 -0.1 0-0.1 0-0.2 0 -0.1 0-0.1 0-0.2 0 -14.6 0-26.9-9.8-30.7-23.1C247.8 145.7 265 137.2 284.2 137.2z"/></g><rect x="220.2" y="201.2" class="st30" width="128.1" height="20.8"/><rect x="271.3" y="201.2" class="st25" width="27.7" height="20.8"/><g class="st29"><path class="st1" d="M260.8 141.6c-16.7 11.6-27.6 30.8-27.6 52.7 0 35.4 28.7 64 64 64 8.3 0 16.2-1.6 23.4-4.4 -10.3 7.2-22.9 11.4-36.4 11.4 -35.4 0-64-28.7-64-64C220.2 174.1 237 151 260.8 141.6z"/></g><path class="st15" d="M219.4 231.2c-2.2 0-4.4-0.5-6.4-1.4 -18.4-8.4-28-24.2-25.8-42.2 2.8-22.2 22.7-40.9 48.4-45.5 8.5-1.5 16.6 4.1 18.1 12.6 1.5 8.5-4.1 16.6-12.6 18.1 -13.2 2.4-22.1 11.4-23 18.7 -0.2 1.7-0.8 6.1 7.8 10 7.8 3.6 11.3 12.8 7.7 20.6C231 227.9 225.3 231.2 219.4 231.2z"/><g class="st29"><path class="st1" d="M219.4 231.2c-2.2 0-4.4-0.5-6.4-1.4 -18.4-8.4-28-24.2-25.8-42.2 2.8-22.2 22.7-40.9 48.4-45.5 8.5-1.5 16.6 4.1 18.1 12.6 1.5 8.5-4.1 16.6-12.6 18.1 -13.2 2.4-22.1 11.4-23 18.7 -0.2 1.7-0.8 6.1 7.8 10 7.8 3.6 11.3 12.8 7.7 20.6C231 227.9 225.3 231.2 219.4 231.2z"/></g><path class="st25" d="M221.6 215.9c-2.6-1.2-3.7-4.2-2.6-6.8 3.6-8 13-11.6 20.9-8l0 0c2.6 1.2 3.7 4.2 2.6 6.8 -1.2 2.6-4.2 3.8-6.8 2.6 -2.8-1.2-6 0-7.3 2.8C227.3 216 224.2 217.1 221.6 215.9L221.6 215.9z"/><g class="st38"><path class="st1" d="M221.6 215.9c-2.6-1.2-3.7-4.2-2.6-6.8 3.6-8 13-11.6 20.9-8l0 0c2.6 1.2 3.7 4.2 2.6 6.8 -1.2 2.6-4.2 3.8-6.8 2.6 -2.8-1.2-6 0-7.3 2.8C227.3 216 224.2 217.1 221.6 215.9L221.6 215.9z"/></g><path class="st25" d="M227.5 205.9l14.3 6.4c0 0 0 0 0.1 0 7 3.2 10.1 11.3 6.9 18.3 -3.1 7-11.3 10.1-18.3 6.9 0 0-14.3-6.4-14.3-6.4 -7-3.2-10.1-11.4-6.9-18.3C212.3 205.9 220.5 202.8 227.5 205.9z"/><path class="st7" d="M225.9 203.4c1.2-2.6 0-5.7-2.6-6.9l-4.7-2.1c-2.6-1.2-5.7 0-6.9 2.6l-11.3 25.3c-1.2 2.6 0 5.7 2.6 6.9l4.7 2.1c2.6 1.2 5.7 0 6.9-2.6L225.9 203.4z"/><path class="st28" d="M307.2 107.8c0 5.3 4.4 9.5 9.7 9.5 5.4 0 9.7-4.2 9.7-9.5 0-5.2-4.4-9.5-9.7-9.5C311.5 98.3 307.2 102.5 307.2 107.8z"/><path class="st28" d="M243.6 107.8c0 5.3 4.4 9.5 9.7 9.5 5.4 0 9.7-4.2 9.7-9.5 0-5.2-4.4-9.5-9.7-9.5C247.9 98.3 243.6 102.5 243.6 107.8z"/><path class="st7" d="M320.6 56.7c0 5.7 4.6 10.4 10.4 10.4 5.7 0 10.4-4.6 10.4-10.4 0-5.7-4.6-10.4-10.4-10.4C325.2 46.3 320.6 51 320.6 56.7z"/><path class="st27" d="M285.1 77.5c-19.1 0-34.6 15.5-34.6 34.6v34.6h69.2v-34.6C319.7 93 304.2 77.5 285.1 77.5z"/><path class="st7" d="M275.6 110.4C275.6 110.4 275.6 110.4 275.6 110.4c-17.7 0-32 14.3-32 32s14.3 32 32 32c0.1 0 0.1 0 0.2 0 0.1 0 0.1 0 0.2 0 36.1 0 65.4-28.7 65.4-64L275.6 110.4z"/><path class="st28" d="M275.6 110.4c0 4.3 4.3 7.8 9.5 7.8 5.3 0 9.5-3.5 9.5-7.8 0-4.3-4.3-7.8-9.5-7.8C279.9 102.6 275.6 106.1 275.6 110.4z"/><path class="st30" d="M278.2 120.8c0 3.8 3.1 6.9 6.9 6.9 3.8 0 6.9-3.1 6.9-6.9H278.2z"/><path class="st15" d="M315.9 56.7c0.1 0 0.3 0 0.4 0v41.5h-65.8C250.5 75.3 279.8 56.7 315.9 56.7z"/><path class="st7" d="M250.5 77.5c-2.9 0-5.2 2.3-5.2 5.2v10.4c0 2.9 2.3 5.2 5.2 5.2h69.2c2.9 0 5.2-2.3 5.2-5.2V82.7c0-2.9-2.3-5.2-5.2-5.2H250.5z"/><path class="st30" d="M299 103.4c0 1.4 1.2 2.6 2.6 2.6 1.4 0 2.6-1.2 2.6-2.6 0-1.4-1.2-2.6-2.6-2.6C300.1 100.9 299 102 299 103.4z"/><path class="st30" d="M271.3 103.4c0 1.4-1.2 2.6-2.6 2.6 -1.4 0-2.6-1.2-2.6-2.6 0-1.4 1.2-2.6 2.6-2.6C270.1 100.9 271.3 102 271.3 103.4z"/><g class="st39"><path class="st40" d="M141.4 102.5c0.2-2.7-2.2-5-4.8-5.1 0.6-0.8 1.5-1.3 2.6-1.5 2.3-0.3 4.4 1.2 4.7 3.5 0.3 2-0.9 3.9-2.8 4.5C141.3 103.5 141.4 103 141.4 102.5z"/></g></svg>