<svg xmlns="http://www.w3.org/2000/svg" width="74.3" height="142.6" viewBox="0 0 74.3 142.6"><path fill="#2AAF4B" d="M72 126.1l-5-35.6c.4-.2.8-.4 1.1-.9l.7-1.2c.6-1 .2-2.2-.7-2.7l-.4-.2c2.9-4.6 7.6-13.5 6.3-21.7-1.7-10.4-9-19.4-9.3-19.8-.9-1.1-2.1-1.7-3.4-1.9v-.2c0-.7-.3-1.4-.7-1.9 3.1-3.5 5-7.9 5.3-12.8.3-1.5.5-3.1.5-4.7C66.4 10 56.6 0 44.4 0s-22 10-22 22.4c0 1.6.2 3.2.5 4.7.3 5 2.3 9.5 5.5 13-.3.5-.5 1-.5 1.6 0 .2 0 .4.1.6H17.2c-1.7 0-3-1.4-3-3V28.2h.2c1.1 0 2-.9 2-2v-1.4c0-1.1-.9-2-2-2h-.8c1.8-1 3-3 3-5.2 0-1.1-.9-2-2-2-.7 0-1.3.3-1.6.9v-1.2c0-2.9-2.4-5.3-5.3-5.3s-5.3 2.4-5.3 5.3v6c0 .5.1 1 .3 1.5H2c-1.1 0-2 .9-2 2v1.4c0 1.1.9 2 2 2h.2v11.1c0 8.3 6.7 15 15 15h6.7c-.4 1.3-.6 2.6-.6 4.1 0 2.4.6 4.6 1.6 6.4-.1 5.4-.3 10.7-.4 11.3h-.4l-.7 4.4h.3l-7.4 45.4c-1.3.3-2.4 1.5-2.4 2.9 0 1.6 1.3 3 3 3 3.8 0 7.3-1 10.4-3h4.4c-.5 7.1-13.6 11-13.6 11v2.4h13.6c1.2-.1 2.3-.5 3.1-1.1l.2-.1c.1 0 .1-.1.2-.1l2.9-2.3v3.3h3.5V129H46v13.3h3.5V139l2.9 2.3s.1.1.2.1l.2.1c.9.6 2 1 3.1 1.1h13.6v-2.4s-13.3-3.9-13.6-11.2H61c3.1 2 6.6 3 10.4 3 1.6 0 3-1.3 3-3-.1-1.4-1.1-2.6-2.4-2.9z"/></svg>