<svg xmlns="http://www.w3.org/2000/svg" xmlns:xlink="http://www.w3.org/1999/xlink" width="360.9" height="360.9" viewBox="0 0 360.9 360.9"><defs><circle id="a" cx="179.4" cy="-268.4" r="180.5"/></defs><clipPath id="b"><use xlink:href="#a" overflow="visible"/></clipPath><g clip-path="url(#b)"><ellipse fill="#209AC8" cx="126.8" cy="-1.2" rx="34.8" ry="5.6"/><g opacity=".7"><defs><path id="c" d="M83.3-158.2h60v147h-60z"/></defs><clipPath id="d"><use xlink:href="#c" overflow="visible"/></clipPath><g clip-path="url(#d)"><path fill="#48D5D5" d="M108.3-163.2h28V28.3c0 23-23.6 41.7-52 41.7s-52-18.7-52-41.7V4.8h31v23.5c0 9.8 10.3 17.8 22.5 17.8s22.5-8 22.5-17.8v-191.5z"/><defs><path id="e" d="M108.3-163.2h28V28.3c0 23-23.6 41.7-52 41.7s-52-18.7-52-41.7V4.8h31v23.5c0 9.8 10.3 17.8 22.5 17.8s22.5-8 22.5-17.8v-191.5z"/></defs><clipPath id="f"><use xlink:href="#e" overflow="visible"/></clipPath><g clip-path="url(#f)"><path fill="#00BAD2" d="M157.848 34.175l3.116 8.975-137.55 47.756-3.115-8.974zm-.061-20.343l3.116 8.974L23.355 70.563l-3.116-8.975zm.033-20.377l3.116 8.975L23.388 50.187l-3.116-8.975zm.034-20.375l3.116 8.974L23.42 29.81l-3.115-8.974zm-.061-20.345l3.116 8.975L23.36 9.467 20.244.492z"/></g></g></g><ellipse fill="#209AC8" cx="235.7" cy="-1.2" rx="34.8" ry="5.6"/><g opacity=".7"><defs><path id="g" d="M192.3-164.2h60v147h-60z"/></defs><clipPath id="h"><use xlink:href="#g" overflow="visible"/></clipPath><g clip-path="url(#h)"><path fill="#48D5D5" d="M217.3-169.2h28V22.3c0 23-23.6 41.7-52 41.7s-52-18.7-52-41.7V-1.2h31v23.5c0 9.8 10.3 17.8 22.5 17.8s22.5-8 22.5-17.8v-191.5z"/><defs><path id="i" d="M217.3-169.2h28V22.3c0 23-23.6 41.7-52 41.7s-52-18.7-52-41.7V-1.2h31v23.5c0 9.8 10.3 17.8 22.5 17.8s22.5-8 22.5-17.8v-191.5z"/></defs><clipPath id="j"><use xlink:href="#i" overflow="visible"/></clipPath><g clip-path="url(#j)"><path fill="#00BAD2" d="M266.758 28.16l3.116 8.976-137.548 47.757-3.116-8.975zm-.061-20.342l3.116 8.974L132.265 64.55l-3.116-8.975zm.033-20.378l3.117 8.976-137.55 47.757-3.115-8.975zm.034-20.375l3.116 8.975-137.548 47.757-3.116-8.975zm-.061-20.343l3.116 8.974L132.27 3.453l-3.115-8.975z"/></g></g></g></g><circle fill="#0EA7DD" cx="179.4" cy="180.6" r="180.5"/><defs><circle id="k" cx="179.4" cy="180.6" r="180.5"/></defs><clipPath id="l"><use xlink:href="#k" overflow="visible"/></clipPath><g clip-path="url(#l)"><path fill="#0EA7DD" d="M689.2-15.9a61.78 61.78 0 0 0-39.4 0 61.78 61.78 0 0 1-39.4 0 61.78 61.78 0 0 0-39.4 0 61.78 61.78 0 0 1-39.4 0 61.78 61.78 0 0 0-39.4 0 61.78 61.78 0 0 1-39.4 0 61.78 61.78 0 0 0-39.4 0 61.78 61.78 0 0 1-39.4 0 61.78 61.78 0 0 0-39.4 0 61.78 61.78 0 0 1-39.4 0 61.78 61.78 0 0 0-39.4 0 61.78 61.78 0 0 1-39.4 0 61.78 61.78 0 0 0-39.4 0 61.78 61.78 0 0 1-39.4 0c-6.7-2.2-13.6-3.3-20.5-3.2-6.9-.1-13.8 1-20.5 3.2a61.78 61.78 0 0 1-39.4 0 61.78 61.78 0 0 0-39.4 0 61.78 61.78 0 0 1-39.4 0 61.78 61.78 0 0 0-39.4 0 61.78 61.78 0 0 1-39.4 0 61.78 61.78 0 0 0-39.4 0 61.78 61.78 0 0 1-39.4 0 61.78 61.78 0 0 0-39.4 0 61.78 61.78 0 0 1-39.4 0 61.78 61.78 0 0 0-39.4 0 61.78 61.78 0 0 1-39.4 0 61.78 61.78 0 0 0-39.4 0 61.78 61.78 0 0 1-39.4 0 61.78 61.78 0 0 0-39.4 0l-19.7 6.6v35.1L117.7 27l592.4-1.2V-9.4l-20.9-6.5z"/><path fill="#231F20" d="M689.2 10.3a61.78 61.78 0 0 0-39.4 0 61.78 61.78 0 0 1-39.4 0 61.78 61.78 0 0 0-39.4 0 61.78 61.78 0 0 1-39.4 0C518.7 6 504.8 6 492 10.3a61.78 61.78 0 0 1-39.4 0 61.78 61.78 0 0 0-39.4 0 61.78 61.78 0 0 1-39.4 0 61.78 61.78 0 0 0-39.4 0 61.78 61.78 0 0 1-39.4 0c-13-4.3-26.8-4.3-39.6 0a61.78 61.78 0 0 1-39.4 0 61.78 61.78 0 0 0-39.4 0 61.78 61.78 0 0 1-39.4 0c-6.7-2.2-13.6-3.3-20.5-3.2-6.9-.1-13.8 1-20.5 3.2a61.78 61.78 0 0 1-39.4 0C43.8 6 30 6 17.2 10.3a61.78 61.78 0 0 1-39.4 0C-35 6-48.9 6-61.7 10.3a61.78 61.78 0 0 1-39.4 0 61.78 61.78 0 0 0-39.4 0 61.78 61.78 0 0 1-39.4 0 61.78 61.78 0 0 0-39.4 0 61.78 61.78 0 0 1-39.4 0 61.78 61.78 0 0 0-39.4 0 61.78 61.78 0 0 1-39.4 0 61.78 61.78 0 0 0-39.4 0 61.78 61.78 0 0 1-39.4 0 61.78 61.78 0 0 0-39.4 0l-19.7 6.6V52L117 53.2 709.4 52V16.9l-20.2-6.6z" opacity=".05"/><path fill="#0EA7DD" d="M689.2 39.2a61.78 61.78 0 0 0-39.4 0 61.78 61.78 0 0 1-39.4 0 61.78 61.78 0 0 0-39.4 0 61.78 61.78 0 0 1-39.4 0 61.78 61.78 0 0 0-39.4 0 61.78 61.78 0 0 1-39.4 0 61.78 61.78 0 0 0-39.4 0 61.78 61.78 0 0 1-39.4 0 61.78 61.78 0 0 0-39.4 0 61.78 61.78 0 0 1-39.4 0 61.78 61.78 0 0 0-39.4 0 61.78 61.78 0 0 1-39.4 0 61.78 61.78 0 0 0-39.4 0 61.78 61.78 0 0 1-39.4 0c-6.7-2.2-13.6-3.3-20.5-3.2-6.9-.1-13.8 1-20.5 3.2a61.78 61.78 0 0 1-39.4 0 61.78 61.78 0 0 0-39.4 0 61.78 61.78 0 0 1-39.4 0 61.78 61.78 0 0 0-39.4 0 61.78 61.78 0 0 1-39.4 0 61.78 61.78 0 0 0-39.4 0 61.78 61.78 0 0 1-39.4 0 61.78 61.78 0 0 0-39.4 0 61.78 61.78 0 0 1-39.4 0 61.78 61.78 0 0 0-39.4 0 61.78 61.78 0 0 1-39.4 0 61.78 61.78 0 0 0-39.4 0 61.78 61.78 0 0 1-39.4 0 61.78 61.78 0 0 0-39.4 0l-19.7 6.6v35.1L116.6 82 709 80.8V45.7l-19.8-6.5z"/><path fill="#231F20" d="M689.2 65.4a61.78 61.78 0 0 0-39.4 0 61.78 61.78 0 0 1-39.4 0 61.78 61.78 0 0 0-39.4 0 61.78 61.78 0 0 1-39.4 0 61.78 61.78 0 0 0-39.4 0 61.78 61.78 0 0 1-39.4 0 61.78 61.78 0 0 0-39.4 0 61.78 61.78 0 0 1-39.4 0 61.78 61.78 0 0 0-39.4 0 61.78 61.78 0 0 1-39.4 0 61.78 61.78 0 0 0-39.4 0 61.78 61.78 0 0 1-39.4 0 61.78 61.78 0 0 0-39.4 0 61.78 61.78 0 0 1-39.4 0c-6.7-2.2-13.6-3.3-20.5-3.2-6.9-.1-13.8 1-20.5 3.2a61.78 61.78 0 0 1-39.4 0 61.78 61.78 0 0 0-39.4 0 61.78 61.78 0 0 1-39.4 0 61.78 61.78 0 0 0-39.4 0 61.78 61.78 0 0 1-39.4 0 61.78 61.78 0 0 0-39.4 0 61.78 61.78 0 0 1-39.4 0 61.78 61.78 0 0 0-39.4 0 61.78 61.78 0 0 1-39.4 0 61.78 61.78 0 0 0-39.4 0 61.78 61.78 0 0 1-39.4 0 61.78 61.78 0 0 0-39.4 0 61.78 61.78 0 0 1-39.4 0 61.78 61.78 0 0 0-39.4 0l-19.7 6.6v35l592.4 1.2 592.4-1.2V72l-20.9-6.6z" opacity=".05"/><path fill="#0EA7DD" d="M689.2 100.4a61.78 61.78 0 0 0-39.4 0 61.78 61.78 0 0 1-39.4 0 61.78 61.78 0 0 0-39.4 0 61.78 61.78 0 0 1-39.4 0 61.78 61.78 0 0 0-39.4 0 61.78 61.78 0 0 1-39.4 0 61.78 61.78 0 0 0-39.4 0 61.78 61.78 0 0 1-39.4 0 61.78 61.78 0 0 0-39.4 0 61.78 61.78 0 0 1-39.4 0 61.78 61.78 0 0 0-39.4 0 61.78 61.78 0 0 1-39.4 0 61.78 61.78 0 0 0-39.4 0 61.78 61.78 0 0 1-39.4 0c-6.7-2.2-13.6-3.3-20.5-3.2-6.9-.1-13.8 1-20.5 3.2a61.78 61.78 0 0 1-39.4 0 61.78 61.78 0 0 0-39.4 0 61.78 61.78 0 0 1-39.4 0 61.78 61.78 0 0 0-39.4 0 61.78 61.78 0 0 1-39.4 0 61.78 61.78 0 0 0-39.4 0 61.78 61.78 0 0 1-39.4 0 61.78 61.78 0 0 0-39.4 0 61.78 61.78 0 0 1-39.4 0 61.78 61.78 0 0 0-39.4 0 61.78 61.78 0 0 1-39.4 0 61.78 61.78 0 0 0-39.4 0 61.78 61.78 0 0 1-39.4 0 61.78 61.78 0 0 0-39.4 0l-19.7 6.6v35l592.4 1.2 592.4-1.2v-35.1l-20.9-6.5z"/><path fill="#231F20" d="M689.2 128.9a61.78 61.78 0 0 0-39.4 0 61.78 61.78 0 0 1-39.4 0 61.78 61.78 0 0 0-39.4 0 61.78 61.78 0 0 1-39.4 0 61.78 61.78 0 0 0-39.4 0 61.78 61.78 0 0 1-39.4 0 61.78 61.78 0 0 0-39.4 0 61.78 61.78 0 0 1-39.4 0 61.78 61.78 0 0 0-39.4 0 61.78 61.78 0 0 1-39.4 0 61.78 61.78 0 0 0-39.4 0 61.78 61.78 0 0 1-39.4 0 61.78 61.78 0 0 0-39.4 0 61.78 61.78 0 0 1-39.4 0c-6.7-2.2-13.6-3.3-20.5-3.2-6.9-.1-13.8 1-20.5 3.2a61.78 61.78 0 0 1-39.4 0 61.78 61.78 0 0 0-39.4 0 61.78 61.78 0 0 1-39.4 0 61.78 61.78 0 0 0-39.4 0 61.78 61.78 0 0 1-39.4 0 61.78 61.78 0 0 0-39.4 0 61.78 61.78 0 0 1-39.4 0 61.78 61.78 0 0 0-39.4 0 61.78 61.78 0 0 1-39.4 0 61.78 61.78 0 0 0-39.4 0 61.78 61.78 0 0 1-39.4 0 61.78 61.78 0 0 0-39.4 0 61.78 61.78 0 0 1-39.4 0 61.78 61.78 0 0 0-39.4 0l-19.7 6.6v35.1l592.4 1.2 592.4-1.2v-35.1l-20.9-6.6z" opacity=".05"/><path fill="#0EA7DD" d="M689.2 158.6a61.78 61.78 0 0 0-39.4 0 61.78 61.78 0 0 1-39.4 0 61.78 61.78 0 0 0-39.4 0 61.78 61.78 0 0 1-39.4 0 61.78 61.78 0 0 0-39.4 0 61.78 61.78 0 0 1-39.4 0 61.78 61.78 0 0 0-39.4 0 61.78 61.78 0 0 1-39.4 0 61.78 61.78 0 0 0-39.4 0 61.78 61.78 0 0 1-39.4 0 61.78 61.78 0 0 0-39.4 0 61.78 61.78 0 0 1-39.4 0 61.78 61.78 0 0 0-39.4 0 61.78 61.78 0 0 1-39.4 0c-6.7-2.2-13.6-3.3-20.5-3.2-6.9-.1-13.8 1-20.5 3.2a61.78 61.78 0 0 1-39.4 0 61.78 61.78 0 0 0-39.4 0 61.78 61.78 0 0 1-39.4 0 61.78 61.78 0 0 0-39.4 0 61.78 61.78 0 0 1-39.4 0 61.78 61.78 0 0 0-39.4 0 61.78 61.78 0 0 1-39.4 0 61.78 61.78 0 0 0-39.4 0 61.78 61.78 0 0 1-39.4 0 61.78 61.78 0 0 0-39.4 0 61.78 61.78 0 0 1-39.4 0 61.78 61.78 0 0 0-39.4 0 61.78 61.78 0 0 1-39.4 0 61.78 61.78 0 0 0-39.4 0l-19.7 6.6v35.1l592.4 1.2 592.4-1.2v-35.1l-20.9-6.6z"/><path fill="#231F20" d="M689.2 184.8a61.78 61.78 0 0 0-39.4 0 61.78 61.78 0 0 1-39.4 0 61.78 61.78 0 0 0-39.4 0 61.78 61.78 0 0 1-39.4 0 61.78 61.78 0 0 0-39.4 0 61.78 61.78 0 0 1-39.4 0 61.78 61.78 0 0 0-39.4 0 61.78 61.78 0 0 1-39.4 0 61.78 61.78 0 0 0-39.4 0 61.78 61.78 0 0 1-39.4 0 61.78 61.78 0 0 0-39.4 0 61.78 61.78 0 0 1-39.4 0 61.78 61.78 0 0 0-39.4 0 61.78 61.78 0 0 1-39.4 0c-6.7-2.2-13.6-3.3-20.5-3.2-6.9-.1-13.8 1-20.5 3.2a61.78 61.78 0 0 1-39.4 0 61.78 61.78 0 0 0-39.4 0 61.78 61.78 0 0 1-39.4 0 61.78 61.78 0 0 0-39.4 0 61.78 61.78 0 0 1-39.4 0 61.78 61.78 0 0 0-39.4 0 61.78 61.78 0 0 1-39.4 0 61.78 61.78 0 0 0-39.4 0 61.78 61.78 0 0 1-39.4 0 61.78 61.78 0 0 0-39.4 0 61.78 61.78 0 0 1-39.4 0 61.78 61.78 0 0 0-39.4 0 61.78 61.78 0 0 1-39.4 0 61.78 61.78 0 0 0-39.4 0l-19.7 6.6v35.1l592.4 1.2 592.4-1.2v-35.1l-20.9-6.6z" opacity=".05"/><path fill="#0EA7DD" d="M689.2 220.7a61.78 61.78 0 0 0-39.4 0 61.78 61.78 0 0 1-39.4 0 61.78 61.78 0 0 0-39.4 0 61.78 61.78 0 0 1-39.4 0 61.78 61.78 0 0 0-39.4 0 61.78 61.78 0 0 1-39.4 0 61.78 61.78 0 0 0-39.4 0 61.78 61.78 0 0 1-39.4 0 61.78 61.78 0 0 0-39.4 0 61.78 61.78 0 0 1-39.4 0 61.78 61.78 0 0 0-39.4 0 61.78 61.78 0 0 1-39.4 0 61.78 61.78 0 0 0-39.4 0 61.78 61.78 0 0 1-39.4 0c-6.7-2.2-13.6-3.3-20.5-3.2-6.9-.1-13.8 1-20.5 3.2a61.78 61.78 0 0 1-39.4 0 61.78 61.78 0 0 0-39.4 0 61.78 61.78 0 0 1-39.4 0 61.78 61.78 0 0 0-39.4 0 61.78 61.78 0 0 1-39.4 0 61.78 61.78 0 0 0-39.4 0 61.78 61.78 0 0 1-39.4 0 61.78 61.78 0 0 0-39.4 0 61.78 61.78 0 0 1-39.4 0 61.78 61.78 0 0 0-39.4 0 61.78 61.78 0 0 1-39.4 0 61.78 61.78 0 0 0-39.4 0 61.78 61.78 0 0 1-39.4 0 61.78 61.78 0 0 0-39.4 0l-19.7 6.6v35.1l592.4 1.2 592.4-1.2v-35.1l-20.9-6.6z"/><path fill="#231F20" d="M689.2 246.9a61.78 61.78 0 0 0-39.4 0 61.78 61.78 0 0 1-39.4 0 61.78 61.78 0 0 0-39.4 0 61.78 61.78 0 0 1-39.4 0 61.78 61.78 0 0 0-39.4 0 61.78 61.78 0 0 1-39.4 0 61.78 61.78 0 0 0-39.4 0 61.78 61.78 0 0 1-39.4 0 61.78 61.78 0 0 0-39.4 0 61.78 61.78 0 0 1-39.4 0 61.78 61.78 0 0 0-39.4 0 61.78 61.78 0 0 1-39.4 0 61.78 61.78 0 0 0-39.4 0 61.78 61.78 0 0 1-39.4 0c-6.7-2.2-13.6-3.3-20.5-3.2-6.9-.1-13.8 1-20.5 3.2a61.78 61.78 0 0 1-39.4 0 61.78 61.78 0 0 0-39.4 0 61.78 61.78 0 0 1-39.4 0 61.78 61.78 0 0 0-39.4 0 61.78 61.78 0 0 1-39.4 0 61.78 61.78 0 0 0-39.4 0 61.78 61.78 0 0 1-39.4 0 61.78 61.78 0 0 0-39.4 0 61.78 61.78 0 0 1-39.4 0 61.78 61.78 0 0 0-39.4 0 61.78 61.78 0 0 1-39.4 0 61.78 61.78 0 0 0-39.4 0 61.78 61.78 0 0 1-39.4 0 61.78 61.78 0 0 0-39.4 0l-19.7 6.6v35.1l592.4 1.2 592.4-1.2v-35.1l-20.9-6.6z" opacity=".05"/><path fill="#0EA7DD" d="M689.2 275.7a61.78 61.78 0 0 0-39.4 0 61.78 61.78 0 0 1-39.4 0 61.78 61.78 0 0 0-39.4 0 61.78 61.78 0 0 1-39.4 0 61.78 61.78 0 0 0-39.4 0 61.78 61.78 0 0 1-39.4 0 61.78 61.78 0 0 0-39.4 0 61.78 61.78 0 0 1-39.4 0 61.78 61.78 0 0 0-39.4 0 61.78 61.78 0 0 1-39.4 0 61.78 61.78 0 0 0-39.4 0 61.78 61.78 0 0 1-39.4 0 61.78 61.78 0 0 0-39.4 0 61.78 61.78 0 0 1-39.4 0c-6.7-2.2-13.6-3.3-20.5-3.2-6.9-.1-13.8 1-20.5 3.2a61.78 61.78 0 0 1-39.4 0 61.78 61.78 0 0 0-39.4 0 61.78 61.78 0 0 1-39.4 0 61.78 61.78 0 0 0-39.4 0 61.78 61.78 0 0 1-39.4 0 61.78 61.78 0 0 0-39.4 0 61.78 61.78 0 0 1-39.4 0 61.78 61.78 0 0 0-39.4 0 61.78 61.78 0 0 1-39.4 0 61.78 61.78 0 0 0-39.4 0 61.78 61.78 0 0 1-39.4 0 61.78 61.78 0 0 0-39.4 0 61.78 61.78 0 0 1-39.4 0 61.78 61.78 0 0 0-39.4 0l-19.7 6.6v35.1l592.4 1.2 592.4-1.2v-35.1l-20.9-6.6z"/><path fill="#231F20" d="M689.2 302a61.78 61.78 0 0 0-39.4 0 61.78 61.78 0 0 1-39.4 0 61.78 61.78 0 0 0-39.4 0 61.78 61.78 0 0 1-39.4 0 61.78 61.78 0 0 0-39.4 0 61.78 61.78 0 0 1-39.4 0 61.78 61.78 0 0 0-39.4 0 61.78 61.78 0 0 1-39.4 0 61.78 61.78 0 0 0-39.4 0 61.78 61.78 0 0 1-39.4 0 61.78 61.78 0 0 0-39.4 0 61.78 61.78 0 0 1-39.4 0 61.78 61.78 0 0 0-39.4 0 61.78 61.78 0 0 1-39.4 0c-6.7-2.2-13.6-3.3-20.5-3.2-6.9-.1-13.8 1-20.5 3.2a61.78 61.78 0 0 1-39.4 0 61.78 61.78 0 0 0-39.4 0 61.78 61.78 0 0 1-39.4 0 61.78 61.78 0 0 0-39.4 0 61.78 61.78 0 0 1-39.4 0 61.78 61.78 0 0 0-39.4 0 61.78 61.78 0 0 1-39.4 0 61.78 61.78 0 0 0-39.4 0 61.78 61.78 0 0 1-39.4 0 61.78 61.78 0 0 0-39.4 0 61.78 61.78 0 0 1-39.4 0 61.78 61.78 0 0 0-39.4 0 61.78 61.78 0 0 1-39.4 0 61.78 61.78 0 0 0-39.4 0l-19.7 6.6v35.1l592.4 1.2 592.4-1.2v-35.1l-20.9-6.6z" opacity=".05"/><path fill="#0EA7DD" d="M689.2 337a61.78 61.78 0 0 0-39.4 0 61.78 61.78 0 0 1-39.4 0 61.78 61.78 0 0 0-39.4 0 61.78 61.78 0 0 1-39.4 0 61.78 61.78 0 0 0-39.4 0 61.78 61.78 0 0 1-39.4 0 61.78 61.78 0 0 0-39.4 0 61.78 61.78 0 0 1-39.4 0 61.78 61.78 0 0 0-39.4 0 61.78 61.78 0 0 1-39.4 0 61.78 61.78 0 0 0-39.4 0 61.78 61.78 0 0 1-39.4 0 61.78 61.78 0 0 0-39.4 0 61.78 61.78 0 0 1-39.4 0c-6.7-2.2-13.6-3.3-20.5-3.2-6.9-.1-13.8 1-20.5 3.2a61.78 61.78 0 0 1-39.4 0 61.78 61.78 0 0 0-39.4 0 61.78 61.78 0 0 1-39.4 0 61.78 61.78 0 0 0-39.4 0 61.78 61.78 0 0 1-39.4 0 61.78 61.78 0 0 0-39.4 0 61.78 61.78 0 0 1-39.4 0 61.78 61.78 0 0 0-39.4 0 61.78 61.78 0 0 1-39.4 0 61.78 61.78 0 0 0-39.4 0 61.78 61.78 0 0 1-39.4 0 61.78 61.78 0 0 0-39.4 0 61.78 61.78 0 0 1-39.4 0 61.78 61.78 0 0 0-39.4 0l-19.7 6.6v35.1l592.4 1.2 592.4-1.2v-35.1l-20.9-6.6zM122.7 133.5c-10.7-3.6-20.7-19.9-20.7-19.9H79.4s-9 14-19.9 19.9h63.2z"/><path fill="#231F20" d="M122.7 133.5c-10.7-3.6-20.7-19.9-20.7-19.9H79.4s-9 14-19.9 19.9h63.2z" opacity=".05"/><ellipse fill="#0497BF" cx="90.8" cy="113.8" rx="11.3" ry="1.6"/><ellipse fill="#2093B7" cx="90.8" cy="113.8" rx="8.5" ry=".7"/><path fill="#0EA7DD" d="M75.6 133.5c-5.2-2.3-10.1-12.4-10.1-12.4H54.4s-4.4 8.7-9.8 12.4h31z"/><path fill="#231F20" d="M75.6 133.5c-5.2-2.3-10.1-12.4-10.1-12.4H54.4s-4.4 8.7-9.8 12.4h31z" opacity=".05"/><ellipse fill="#0497BF" cx="59.9" cy="121.2" rx="5.5" ry="1"/><ellipse fill="#2093B7" cx="59.9" cy="121.2" rx="4.1" ry=".4"/><path fill="#0EA7DD" d="M108.3 285.9h28v156.3h-28z"/><g opacity=".7"><defs><path id="m" d="M83.3 290.8h60v147h-60z"/></defs><clipPath id="n"><use xlink:href="#m" overflow="visible"/></clipPath><g clip-path="url(#n)"><path fill="#48D5D5" d="M108.3 285.8h28v191.5c0 23-23.6 41.7-52 41.7s-52-18.7-52-41.7v-23.5h31v23.5c0 9.8 10.3 17.8 22.5 17.8s22.5-8 22.5-17.8V285.8z"/><defs><path id="o" d="M108.3 285.8h28v191.5c0 23-23.6 41.7-52 41.7s-52-18.7-52-41.7v-23.5h31v23.5c0 9.8 10.3 17.8 22.5 17.8s22.5-8 22.5-17.8V285.8z"/></defs><clipPath id="p"><use xlink:href="#o" overflow="visible"/></clipPath><g clip-path="url(#p)"><path fill="#00BAD2" d="M157.786 340.632l3.116 8.974-137.55 47.757-3.115-8.974zm.034-20.376l3.115 8.974-137.548 47.757-3.116-8.975zm.033-20.376l3.116 8.974L23.42 356.61l-3.116-8.974zm-.061-20.344l3.116 8.974-137.55 47.757-3.115-8.974zm.033-20.376l3.116 8.974L23.394 315.89l-3.116-8.974zm.033-20.377l3.116 8.975-137.548 47.757-3.116-8.975z"/></g></g><path fill="#48D5D5" d="M111.3 285.8h3v142h-3z"/></g><path fill="#2093B7" d="M105.3 282.1v8.7h36.2l.3-9.7z"/><path fill="#0EA7DD" d="M217.9 279.9h28v156.3h-28z"/><g opacity=".7"><defs><path id="q" d="M192.3 284.8h60v147h-60z"/></defs><clipPath id="r"><use xlink:href="#q" overflow="visible"/></clipPath><g clip-path="url(#r)"><path fill="#48D5D5" d="M217.3 279.8h28v191.5c0 23-23.6 41.7-52 41.7s-52-18.7-52-41.7v-23.5h31v23.5c0 9.8 10.3 17.8 22.5 17.8s22.5-8 22.5-17.8V279.8z"/><defs><path id="s" d="M217.3 279.8h28v191.5c0 23-23.6 41.7-52 41.7s-52-18.7-52-41.7v-23.5h31v23.5c0 9.8 10.3 17.8 22.5 17.8s22.5-8 22.5-17.8V279.8z"/></defs><clipPath id="t"><use xlink:href="#s" overflow="visible"/></clipPath><g clip-path="url(#t)"><path fill="#00BAD2" d="M266.757 354.962l3.116 8.974-137.548 47.757-3.116-8.975zm-.061-20.344l3.116 8.975-137.548 47.757-3.116-8.975zm.034-20.376l3.116 8.974-137.55 47.757-3.115-8.974zm.033-20.377l3.116 8.975-137.55 47.757-3.115-8.975zm-.061-20.343l3.116 8.975-137.548 47.756-3.116-8.974zm.033-20.376l3.116 8.974-137.547 47.757-3.116-8.975zm.035-20.376l3.115 8.974-137.55 47.757-3.115-8.974z"/></g></g><path fill="#48D5D5" d="M220.3 279.8h3v142h-3z"/></g><path fill="#2093B7" d="M213.3 282.1v8.7h37.2l-.3-9.7z"/><ellipse fill="#2093B7" cx="123.5" cy="292.1" rx="18.3" ry="9.3"/><ellipse fill="#2093B7" cx="231.9" cy="292.1" rx="18.3" ry="9.3"/></g><g clip-path="url(#l)"><path fill="#0EA7DD" d="M309 209.7l.3.5c1 1.7 1.3 3.7.8 5.7l-3 12.8c-.9 4 1.4 8.1 5.4 9.3 2.3.7 5.2 1.2 8.8 1.2 3.3 0 6-.4 8.1-1 4-1.1 6.4-5.1 5.6-9.1l-2.5-12.3c-.4-2.2.1-4.4 1.4-6.2 4.1-5.5-.4-13.2-7.2-12.4-1.5.2-3.1.3-4.7.3-1.8 0-3.5-.1-5.1-.3-6.4-1-11.1 5.8-7.9 11.5z"/><path fill="#028FB5" d="M314.6 203.5c-.5 0-.9-.3-1.1-.8 0-.1-4.3-11.9-11.7-14.6-.6-.2-.9-.9-.7-1.4.2-.6.9-.9 1.4-.7 8.4 3 12.9 15.4 13 16 .2.6-.1 1.2-.7 1.4 0 .1-.1.1-.2.1z"/><path fill="#028FB5" d="M318.9 202.6c-.6 0-1.1-.4-1.1-1-1.8-16.6-14-20.5-14.6-20.7-.6-.2-.9-.8-.8-1.4s.8-.9 1.4-.8c.1 0 14.2 4.4 16.2 22.6.1.6-.4 1.2-1 1.2 0 .1 0 .1-.1.1zm3.6.3c-.7 0-1.2-.6-1.1-1.2.4-6.3-3.7-23.7-3.7-23.9-.1-.6.2-1.2.8-1.4.6-.1 1.2.2 1.4.8.2.7 4.2 17.9 3.8 24.5-.1.7-.6 1.2-1.2 1.2zm3.1-.3c-.6 0-1.1-.5-1.1-1.1-.1-1.7-.4-16.4 3.9-20.5.4-.4 1.2-.4 1.6 0 .4.4.4 1.2 0 1.6-3.1 3-3.4 14.6-3.2 18.8 0 .7-.5 1.2-1.2 1.2zm2.4 1h-.2c-.6-.1-1-.7-.9-1.3 1.7-10.4 6.3-15.3 6.5-15.5.4-.4 1.1-.5 1.6 0 .4.4.5 1.1 0 1.6-.1.1-4.3 4.7-5.9 14.3-.1.5-.6.9-1.1.9z"/><ellipse fill="#15BDEA" cx="321.2" cy="202.6" rx="8.2" ry="3.2"/><path fill="#069CC4" d="M317.8 207.7c-.5 0-1-.4-1.1-.9-4.5-25.4-21.9-25.3-22.7-25.2-.6.1-1.1-.5-1.2-1.1 0-.6.5-1.1 1.1-1.2.2 0 20.2-.3 25 27.1.1.6-.3 1.2-.9 1.3h-.2z"/><path fill="#069CC4" d="M321.2 208.5c-.6 0-1.1-.5-1.1-1.1-.9-30.4-14.9-31.6-15.1-31.6-.6 0-1.1-.6-1-1.2 0-.6.6-1.1 1.2-1 .7 0 16.2 1.4 17.2 33.8-.1.5-.6 1-1.2 1.1zm-8-2.8c-.5 0-.9-.3-1.1-.7-6.7-18-20.5-14.7-20.7-14.6-.6.2-1.2-.2-1.4-.8-.2-.6.2-1.2.8-1.4.2 0 15.9-3.8 23.3 16 .2.6-.1 1.2-.7 1.4.1.1-.1.1-.2.1zm11.4 2.8c-.6 0-1.1-.5-1.1-1.1l-1.7-33.8c0-.6.4-1.1 1.1-1.2.6 0 1.1.4 1.2 1.1l1.7 33.8c0 .6-.5 1.1-1.2 1.2.1 0 0 0 0 0zm3.3-2.8c-.6 0-1.1-.4-1.1-1-2.1-21.1 9.6-25.4 10.1-25.6.6-.2 1.2.1 1.4.7.2.6-.1 1.2-.7 1.4-.4.2-10.6 4.1-8.6 23.2.1.6-.4 1.2-1 1.2 0 .1-.1.1-.1.1z"/><path fill="#069CC4" d="M331.4 204c-.7 0-1.1-.5-1.1-1.2 0-.6.6-14.9 10.1-15.5.6 0 1.2.4 1.2 1s-.4 1.2-1 1.2c-7.4.5-8 13.2-8 13.4-.1.6-.6 1.1-1.2 1.1z"/><path fill="#069CC4" d="M334.1 204h-.3c-.6-.1-1-.8-.8-1.4.8-3.2 4.1-8.9 10.9-7.4.6.1 1 .7.9 1.3-.1.6-.7 1-1.3.9-6.4-1.4-8.2 5.5-8.2 5.8-.3.4-.7.8-1.2.8zm-24.8.8c-.4 0-.9-.3-1-.7-.1-.3-2.6-6.3-9.1-6.8-.6 0-1.1-.6-1-1.2 0-.6.6-1.1 1.2-1 7.9.6 10.9 7.9 11 8.2.2.6 0 1.2-.6 1.5h-.5z"/><circle fill="#15BDEA" cx="330.2" cy="228.4" r="2.6"/><circle fill="#15BDEA" cx="327.6" cy="234.4" r="1.5"/><circle fill="#15BDEA" cx="311.2" cy="232.6" r="1.5"/><circle fill="#028FB5" cx="312.8" cy="208.9" r="1.5"/><circle fill="#028FB5" cx="321.2" cy="213.2" r="1.5"/><circle fill="#028FB5" cx="315.1" cy="219.5" r="4.1"/><circle fill="#0EA7DD" cx="314.7" cy="219.5" r="1.5"/></g><g clip-path="url(#l)"><path fill="#E57D00" d="M68 248.9v14.5c0 21.7 49.6 39.3 110.8 39.3s110.8-17.6 110.8-39.3v-14.5H68z"/><ellipse fill="#F5A816" cx="178.8" cy="250.5" rx="110.8" ry="38.6"/><path fill="#F9CE1D" d="M178.8 280.4c-22.3 0-43.2-3.1-59-8.7-16-5.7-24.8-13.3-24.8-21.5s8.8-15.8 24.8-21.5c15.8-5.6 36.7-8.7 59-8.7s43.2 3.1 59 8.7c16 5.7 24.8 13.3 24.8 21.5s-8.8 15.8-24.8 21.5c-15.8 5.7-36.7 8.7-59 8.7zm0-58.8c-45.4 0-82.4 12.9-82.4 28.7 0 15.8 37 28.7 82.4 28.7s82.4-12.9 82.4-28.7c0-15.9-37-28.7-82.4-28.7z"/><path fill="#AD1457" d="M235.1 206.3h2.8v9.6h-2.8z"/><path fill="#333" d="M234.6 215h3.9v1.7h-3.9z"/><path fill="#AD1457" d="M238.5 216h-3.9v-.2c0-.8.6-1.4 1.4-1.4h1c.8 0 1.4.6 1.4 1.4v.2zm-1.1-4h-1.6c-.5 0-.9-.4-.9-.9v-.3c0-.5.4-.9.9-.9h1.6c.5 0 .9.4.9.9v.3c0 .4-.4.9-.9.9zm2.4-4.7h2.8v9.6h-2.8z"/><path fill="#333" d="M239.3 216h3.9v1.7h-3.9z"/><path fill="#AD1457" d="M243.2 216.9h-3.9v-.2c0-.8.6-1.4 1.4-1.4h1c.8 0 1.4.6 1.4 1.4v.2zm-1.2-4h-1.6c-.5 0-.9-.4-.9-.9v-.3c0-.5.4-.9.9-.9h1.6c.5 0 .9.4.9.9v.3c.1.5-.3.9-.9.9zm1.9-4.2h2.8v9.6h-2.8z"/><path fill="#333" d="M243.4 217.4h3.9v1.7h-3.9z"/><path fill="#AD1457" d="M247.3 218.3h-3.9v-.2c0-.8.6-1.4 1.4-1.4h1c.8 0 1.4.6 1.4 1.4v.2zm-1.2-4h-1.6c-.5 0-.9-.4-.9-.9v-.4c0-.5.4-.9.9-.9h1.6c.5 0 .9.4.9.9v.3c.1.6-.3 1-.9 1z"/><path fill="#DA4637" d="M229.3 213.7h2.8v9.6h-2.8z"/><path fill="#333" d="M228.8 222.4h3.9v1.7h-3.9z"/><path fill="#DA4637" d="M232.7 223.3h-3.9v-.2c0-.8.6-1.4 1.4-1.4h1c.8 0 1.4.6 1.4 1.4v.2zm-1.2-4h-1.6c-.5 0-.9-.4-.9-.9v-.4c0-.5.4-.9.9-.9h1.6c.5 0 .9.4.9.9v.3c.1.6-.3 1-.9 1z"/><path fill="#AD1457" d="M178.5 199.3h2.8v9.6h-2.8z"/><path fill="#333" d="M177.9 208h3.9v1.7h-3.9z"/><path fill="#AD1457" d="M181.8 209h-3.9v-.2c0-.8.6-1.4 1.4-1.4h1c.8 0 1.4.6 1.4 1.4v.2zm-1.1-4.1h-1.6c-.5 0-.9-.4-.9-.9v-.3c0-.5.4-.9.9-.9h1.6c.5 0 .9.4.9.9v.3c0 .5-.4.9-.9.9zm-6.9-5.6h2.8v9.6h-2.8z"/><path fill="#333" d="M173.3 208h3.9v1.7h-3.9z"/><path fill="#AD1457" d="M177.1 209h-3.9v-.2c0-.8.6-1.4 1.4-1.4h1c.8 0 1.4.6 1.4 1.4v.2zm-1.1-4.1h-1.6c-.5 0-.9-.4-.9-.9v-.3c0-.5.4-.9.9-.9h1.6c.5 0 .9.4.9.9v.3c0 .5-.4.9-.9.9z"/><path fill="#9CCC65" d="M201.3 207.9h-7.9c-.8 0-1.5-.7-1.5-1.5v-3.1c0-.8.7-1.5 1.5-1.5h7.9c.8 0 1.5.7 1.5 1.5v3.1c0 .8-.6 1.5-1.5 1.5z"/><path fill="#37B34A" d="M201.3 213.3h-7.9c-.8 0-1.5-.7-1.5-1.5v-6.6c0-.8.7-1.5 1.5-1.5h7.9c.8 0 1.5.7 1.5 1.5v6.6c0 .8-.6 1.5-1.5 1.5z"/><path fill="#333" d="M198.6 209.5h-2.4c-.8 0-1.5-.7-1.5-1.5v-1.8c0-.8.7-1.5 1.5-1.5h2.4c.8 0 1.5.7 1.5 1.5v1.8c0 .8-.7 1.5-1.5 1.5z"/><path fill="#BBE5FA" d="M195.3 205.4h4.2v.9h-4.2zm0 1.6h2.1v2h-2.1z"/><path fill="#D43E2E" d="M198.6 208.7h-.3c-.4 0-.6-.3-.6-.6v-.2c0-.4.3-.6.6-.6h.3c.4 0 .6.3.6.6v.2c0 .3-.2.6-.6.6z"/><path fill="#EF5350" d="M189.6 207.9h-7.9c-.8 0-1.5-.7-1.5-1.5v-3.1c0-.8.7-1.5 1.5-1.5h7.9c.8 0 1.5.7 1.5 1.5v3.1c0 .8-.6 1.5-1.5 1.5z"/><path fill="#DA4637" d="M189.6 213.3h-7.9c-.8 0-1.5-.7-1.5-1.5v-6.6c0-.8.7-1.5 1.5-1.5h7.9c.8 0 1.5.7 1.5 1.5v6.6c0 .8-.6 1.5-1.5 1.5z"/><path fill="#333" d="M186.9 209.5h-2.4c-.8 0-1.5-.7-1.5-1.5v-1.8c0-.8.7-1.5 1.5-1.5h2.4c.8 0 1.5.7 1.5 1.5v1.8c0 .8-.7 1.5-1.5 1.5z"/><path fill="#BBE5FA" d="M183.6 205.4h4.2v.9h-4.2zm0 1.6h2.1v2h-2.1z"/><path fill="#D43E2E" d="M186.9 208.7h-.3c-.4 0-.6-.3-.6-.6v-.2c0-.4.3-.6.6-.6h.3c.4 0 .6.3.6.6v.2c.1.3-.2.6-.6.6z"/><path fill="#81D4FA" d="M213 207.9h-7.9c-.8 0-1.5-.7-1.5-1.5v-3.1c0-.8.7-1.5 1.5-1.5h7.9c.8 0 1.5.7 1.5 1.5v3.1c0 .8-.7 1.5-1.5 1.5z"/><path fill="#29B6F6" d="M213 213.3h-7.9c-.8 0-1.5-.7-1.5-1.5v-6.6c0-.8.7-1.5 1.5-1.5h7.9c.8 0 1.5.7 1.5 1.5v6.6c0 .8-.7 1.5-1.5 1.5z"/><path fill="#333" d="M210.3 209.5h-2.4c-.8 0-1.5-.7-1.5-1.5v-1.8c0-.8.7-1.5 1.5-1.5h2.4c.8 0 1.5.7 1.5 1.5v1.8c0 .8-.7 1.5-1.5 1.5z"/><path fill="#BBE5FA" d="M207 205.4h4.2v.9H207zm0 1.6h2.1v2H207z"/><path fill="#D43E2E" d="M210.3 208.7h-.3c-.4 0-.6-.3-.6-.6v-.2c0-.4.3-.6.6-.6h.3c.4 0 .6.3.6.6v.2c0 .3-.3.6-.6.6z"/><path fill="#F9CE1D" d="M202.7 197.1h-7.9c-.8 0-1.5-.7-1.5-1.5v-3.1c0-.8.7-1.5 1.5-1.5h7.9c.8 0 1.5.7 1.5 1.5v3.1c0 .8-.6 1.5-1.5 1.5z"/><path fill="#F29312" d="M202.7 202.5h-7.9c-.8 0-1.5-.7-1.5-1.5v-6.6c0-.8.7-1.5 1.5-1.5h7.9c.8 0 1.5.7 1.5 1.5v6.6c0 .9-.6 1.5-1.5 1.5z"/><path fill="#333" d="M200 198.7h-2.4c-.8 0-1.5-.7-1.5-1.5v-1.8c0-.8.7-1.5 1.5-1.5h2.4c.8 0 1.5.7 1.5 1.5v1.8c0 .9-.7 1.5-1.5 1.5z"/><path fill="#BBE5FA" d="M196.7 194.6h4.2v.9h-4.2zm0 1.6h2.1v2h-2.1z"/><path fill="#D43E2E" d="M200 197.9h-.3c-.4 0-.6-.3-.6-.6v-.2c0-.4.3-.6.6-.6h.3c.4 0 .6.3.6.6v.2c0 .3-.2.6-.6.6z"/><path fill="#CE93D8" d="M191 197.1h-7.9c-.8 0-1.5-.7-1.5-1.5v-3.1c0-.8.7-1.5 1.5-1.5h7.9c.8 0 1.5.7 1.5 1.5v3.1c0 .8-.6 1.5-1.5 1.5z"/><path fill="#AB47BC" d="M191 202.5h-7.9c-.8 0-1.5-.7-1.5-1.5v-6.6c0-.8.7-1.5 1.5-1.5h7.9c.8 0 1.5.7 1.5 1.5v6.6c0 .9-.6 1.5-1.5 1.5z"/><path fill="#333" d="M188.3 198.7h-2.4c-.8 0-1.5-.7-1.5-1.5v-1.8c0-.8.7-1.5 1.5-1.5h2.4c.8 0 1.5.7 1.5 1.5v1.8c0 .9-.6 1.5-1.5 1.5z"/><path fill="#BBE5FA" d="M185 194.6h4.2v.9H185zm0 1.6h2.1v2H185z"/><path fill="#D43E2E" d="M188.3 197.9h-.3c-.4 0-.6-.3-.6-.6v-.2c0-.4.3-.6.6-.6h.3c.4 0 .6.3.6.6v.2c.1.3-.2.6-.6.6z"/><path fill="#FFF" d="M219.475 207.832l1.262 3.585-.378.132-1.263-3.585z"/><path fill="#DA4637" d="M223.9 213.6h-3.1c-.7 0-1.3-.6-1.3-1.3v-.4c0-.7.6-1.3 1.3-1.3h3.1v3z"/><circle fill="#DA4637" cx="219.3" cy="207.9" r=".5"/><path fill="#FFF" d="M231.33 207.847l.377.134-1.272 3.582-.377-.134z"/><path fill="#DA4637" d="M227 213.6h3.1c.7 0 1.3-.6 1.3-1.3v-.4c0-.7-.6-1.3-1.3-1.3H227v3z"/><circle fill="#DA4637" cx="231.6" cy="207.9" r=".5"/><path fill="#9CCC65" d="M221 207h8.8v6.1H221z"/><path fill="#37B34A" d="M221 209h8.8v6.1H221z"/><circle fill="#DA4637" cx="223" cy="211.4" r="1.1"/><circle fill="#BBE5FA" cx="223" cy="211.4" r=".6"/><circle fill="#DA4637" cx="227.9" cy="211.4" r="1.1"/><circle fill="#BBE5FA" cx="227.9" cy="211.4" r=".6"/><path fill="#03542C" d="M223 213.3h4.9v1.1H223z"/><path d="M222.9 213.3h.7v1.1h-.7zm1.5 0h.7v1.1h-.7zm1.4 0h.7v1.1h-.7zm1.5 0h.7v1.1h-.7z" fill="#BBE5FA"/><path fill="#FFF" d="M218.09 200.348l1.26 3.584-.376.133-1.262-3.585z"/><path fill="#DA4637" d="M222.5 206.1h-3.1c-.7 0-1.3-.6-1.3-1.3v-.4c0-.7.6-1.3 1.3-1.3h3.1v3z"/><circle fill="#DA4637" cx="217.9" cy="200.4" r=".5"/><path fill="#FFF" d="M229.936 200.35l.377.133-1.272 3.58-.376-.133z"/><path fill="#DA4637" d="M225.6 206.1h3.1c.7 0 1.3-.6 1.3-1.3v-.4c0-.7-.6-1.3-1.3-1.3h-3.1v3z"/><circle fill="#DA4637" cx="230.2" cy="200.4" r=".5"/><path fill="#F9CE1D" d="M219.6 199.5h8.8v6.1h-8.8z"/><path fill="#F29312" d="M219.6 201.5h8.8v6.1h-8.8z"/><circle fill="#DA4637" cx="221.5" cy="203.9" r="1.1"/><circle fill="#BBE5FA" cx="221.5" cy="203.9" r=".6"/><circle fill="#DA4637" cx="226.5" cy="203.9" r="1.1"/><circle fill="#BBE5FA" cx="226.5" cy="203.9" r=".6"/><path fill="#03542C" d="M221.5 205.8h4.9v1.1h-4.9z"/><path d="M221.5 205.8h.7v1.1h-.7zm1.5 0h.7v1.1h-.7zm1.4 0h.7v1.1h-.7zm1.5 0h.7v1.1h-.7z" fill="#BBE5FA"/><path fill="#FFF" d="M219.506 192.867l1.263 3.584-.38.134-1.26-3.585z"/><path fill="#DA4637" d="M223.9 198.6h-3.1c-.7 0-1.3-.6-1.3-1.3v-.4c0-.7.6-1.3 1.3-1.3h3.1v3z"/><circle fill="#DA4637" cx="219.3" cy="193" r=".5"/><path fill="#FFF" d="M231.342 192.85l.377.133-1.273 3.58-.376-.133z"/><path fill="#DA4637" d="M227 198.6h3.1c.7 0 1.3-.6 1.3-1.3v-.4c0-.7-.6-1.3-1.3-1.3H227v3z"/><circle fill="#DA4637" cx="231.6" cy="193" r=".5"/><path fill="#81D4FA" d="M221 192.1h8.8v6.1H221z"/><path fill="#29B6F6" d="M221 194h8.8v6.1H221z"/><circle fill="#DA4637" cx="223" cy="196.5" r="1.1"/><circle fill="#BBE5FA" cx="223" cy="196.5" r=".6"/><circle fill="#DA4637" cx="227.9" cy="196.5" r="1.1"/><circle fill="#BBE5FA" cx="227.9" cy="196.5" r=".6"/><path fill="#03542C" d="M223 198.3h4.9v1.1H223z"/><path d="M222.9 198.3h.7v1.1h-.7zm1.5 0h.7v1.1h-.7zm1.4 0h.7v1.1h-.7zm1.5 0h.7v1.1h-.7z" fill="#BBE5FA"/><path fill="#DA4637" d="M208 220.6c-.4 0-.8-.2-1.1-.5-.1-.1-1.8-1.9-7.3-1.7-.8 0-1.4-.6-1.5-1.3 0-.8.6-1.4 1.3-1.5 7.1-.3 9.4 2.4 9.6 2.7.5.6.3 1.5-.3 2-.1.2-.4.3-.7.3z"/><path fill="#00B2EE" d="M197.4 215.2c1 0 1.8.7 1.8 1.7s-.7 1.9-1.7 1.9c-.8 0-1.6-.3-1.8-1.2h.8c.2.5.5.5.9.5.5 0 1-.5.9-1.1 0-.5-.5-1-1-1-.4 0-.8.2-.9.6h-.8c.3-.5.9-1.4 1.8-1.4z"/><path fill="#BBE5FA" d="M197 215.3c1 0 1.8.8 1.8 1.7s-.7 1.8-1.7 1.9c-.8 0-1.6-.4-1.8-1.3h.8c.2.5.5.6.9.6.5 0 1-.5.9-1s-.5-1.1-1-1.1c-.4 0-.8.1-.9.6h-.8c.3-.5 1-1.4 1.8-1.4z"/><path fill="#37B34A" d="M198.624 219.05l-.16-3.898 1.698-.07.16 3.897z"/><path fill="#DA4637" d="M212.7 216.9c-.4 0-.8-.2-1.1-.5-.1-.1-1.8-1.9-7.3-1.7-.8 0-1.4-.6-1.5-1.3 0-.8.6-1.4 1.3-1.5 7.1-.3 9.4 2.4 9.6 2.7.5.6.3 1.5-.3 2-.1.2-.4.3-.7.3z"/><path fill="#00B2EE" d="M202.1 211.4c1 0 1.8.7 1.8 1.7s-.7 1.9-1.7 1.9c-.8 0-1.6-.3-1.8-1.2h.8c.2.5.5.5.9.5.5 0 1-.5.9-1.1 0-.5-.5-1-1-1-.4 0-.8.2-.9.6h-.8c.2-.4.9-1.3 1.8-1.4z"/><path fill="#BBE5FA" d="M201.7 211.5c1 0 1.8.8 1.8 1.7 0 1-.7 1.8-1.7 1.9-.8 0-1.6-.4-1.8-1.3h.8c.2.5.5.6.9.6.5 0 1-.5.9-1 0-.5-.5-1.1-1-1.1-.4 0-.8.1-.9.6h-.8c.3-.5 1-1.3 1.8-1.4z"/><path fill="#37B34A" d="M203.34 215.282l-.16-3.897 1.698-.07.16 3.897z"/><path fill="#DA4637" d="M217.8 221c-6.3 0-8.3-2.5-8.5-2.8-.5-.6-.3-1.5.3-2s1.5-.3 1.9.2c.1.1 1.8 1.9 7.3 1.7.8-.1 1.4.6 1.5 1.3 0 .8-.6 1.4-1.3 1.5-.5.1-.9.1-1.2.1z"/><path fill="#00B2EE" d="M221 221.5c-1 0-1.8-.7-1.8-1.7s.7-1.9 1.7-1.9c.8 0 1.6.3 1.8 1.2h-.8c-.2-.5-.5-.5-.9-.5-.5 0-1 .5-.9 1.1 0 .5.5 1 1 1 .4 0 .8-.2.9-.6h.8c-.3.4-1 1.3-1.8 1.4z"/><path fill="#BBE5FA" d="M221.3 221.4c-1 0-1.8-.8-1.8-1.7s.7-1.8 1.7-1.9c.8 0 1.6.4 1.8 1.3h-.8c-.2-.5-.5-.6-.9-.6-.5 0-1 .5-.9 1 0 .5.5 1.1 1 1.1.4 0 .8-.1.9-.6h.8c-.3.5-1 1.3-1.8 1.4z"/><path fill="#37B34A" d="M219.666 217.602l.16 3.897-1.7.07-.16-3.898z"/><path fill="#DA4637" d="M205.7 192h2.8v9.6h-2.8z"/><path fill="#333" d="M205.1 200.7h3.9v1.7h-3.9z"/><path fill="#DA4637" d="M209 201.7h-3.9v-.2c0-.8.6-1.4 1.4-1.4h1c.8 0 1.4.6 1.4 1.4v.2zm-1.1-4.1h-1.6c-.5 0-.9-.4-.9-.9v-.3c0-.5.4-.9.9-.9h1.6c.5 0 .9.4.9.9v.3c0 .5-.4.9-.9.9zm2.4-5.6h2.8v9.6h-2.8z"/><path fill="#333" d="M209.8 200.7h3.9v1.7h-3.9z"/><path fill="#DA4637" d="M213.7 201.7h-3.9v-.2c0-.8.6-1.4 1.4-1.4h1c.8 0 1.4.6 1.4 1.4v.2zm-1.1-4.1H211c-.5 0-.9-.4-.9-.9v-.3c0-.5.4-.9.9-.9h1.6c.5 0 .9.4.9.9v.3c0 .5-.4.9-.9.9z"/><path fill="#022289" d="M256.5 234.8h3.6v21h-3.6z"/><path fill="#022289" d="M256.5 255.8h6.7v-.4c0-1.4-1.1-2.5-2.5-2.5h-4.2v2.9z"/><path fill="#F5871F" d="M253.4 206.8h12v32h-12z"/><path fill="#FFE18C" d="M253.4 202.1h12v18h-12z"/><path fill="#022289" d="M253.4 208.4h12v-10c0-2.9-2.3-5.2-5.2-5.2h-1.7c-2.9 0-5.2 2.3-5.2 5.2v10z"/><path fill="#739AAF" d="M253.4 206.8h2.8v32h-2.8z" opacity=".2"/><path fill="#FDCE48" d="M265.4 208.9h-12c-.3 0-.5-.2-.5-.5s.2-.5.5-.5h12c.3 0 .5.2.5.5s-.3.5-.5.5z"/><circle fill="#EC407A" cx="261.9" cy="213.7" r="1" opacity=".5"/><path fill="#FDCE48" d="M265.4 207h-12c-.3 0-.5-.2-.5-.5s.2-.5.5-.5h12c.3 0 .5.2.5.5s-.3.5-.5.5z"/><g fill="#FDCE48"><path d="M253.3 204.7l-1.1-5.6 2.6 2.1 4.5-3.2 4.5 3.2 2.7-2.1-1.1 5.6h-12"/><path d="M253.3 205.1c-.2 0-.4-.2-.5-.4l-1.1-5.5c0-.2 0-.4.2-.5.2-.1.4-.1.5 0l2.4 1.8 4.1-3c.2-.1.4-.1.5 0l4.3 3 2.4-1.8c.2-.1.4-.1.5 0 .2.1.2.3.2.5l-1.1 5.5c0 .2-.2.4-.5.4h-11.9zm.4-.9H265l.8-4-1.7 1.3c-.2.1-.4.1-.5 0l-4.3-3-4.2 3c-.2.1-.4.1-.6 0l-1.7-1.3.9 4z"/></g><g fill="#FDCE48"><circle cx="259.3" cy="193" r="1.2"/><path d="M259.3 194.8c-.9 0-1.7-.8-1.7-1.7s.8-1.7 1.7-1.7 1.7.8 1.7 1.7-.8 1.7-1.7 1.7zm0-2.5c-.4 0-.8.3-.8.8s.3.8.8.8.8-.3.8-.8-.4-.8-.8-.8z"/></g><path fill="#022289" d="M267.1 224.1c-.5.5-1.2.8-1.9.8a2.732 2.732 0 0 1-2.7-2.7v-3.8h2.9s-.3 5.5 1.7 5.7zm-3.7-10.9c-1.1 0-2.5 1.3-2.5 1.3-.6.4-1.4.4-2 0l-.7-.5.3 1.8c.1.5.4 1 .8 1.3l.2.1c.4.3 1 .3 1.4.1l1.1-.4c.3-.1.7-.2 1.1-.1l.5.1c1.1.3 2.2-.5 2.2-1.7 0-.6-.7-2-2.4-2z"/><circle fill="#022289" cx="261.9" cy="211.3" r="1"/><path fill="#E53935" d="M265.1 214.1h.6c.5 0 .9-.4.9-.9v-.3c0-.5-.4-.9-.9-.9h-.6c-.5 0-.9.4-.9.9v.3c-.1.5.3.9.9.9z"/><circle fill="#FDCE48" cx="261.9" cy="226.8" r=".7"/><circle fill="#FDCE48" cx="261.9" cy="231.5" r=".7"/><circle fill="#FDCE48" cx="261.9" cy="236.1" r=".7"/><path fill="#FFE18C" d="M273.4 230.6l.2-.4c.4-.8.1-1.7-.7-2.1l-13.3-6.7c-.8-.4-1.7-.1-2.1.7l-.2.4c-.4.8-.1 1.7.7 2.1l13.3 6.7c.8.4 1.7.1 2.1-.7z"/><path fill="#E53935" d="M270.2 230.8l1.6-3.2-14.7-7.4c-.8-.4-1.7-.1-2.1.7l-.2.4c-.4.8-.1 1.7.7 2.1l14.7 7.4z"/><path fill="#F5871F" d="M270.2 230.8l1.6-3.2-14.7-7.4c-.8-.4-1.7-.1-2.1.7l-.2.4c-.4.8-.1 1.7.7 2.1l14.7 7.4z"/><path fill="#FDCE48" d="M259.3 221.2l-1.9-1c-.9-.4-2-.1-2.4.8-.4.9-.1 2 .8 2.4l1.9 1 1.6-3.2zm8.69 4.437l-1.62 3.215-1.25-.63 1.62-3.215zm2.564 1.287l-1.62 3.214-1.25-.63 1.62-3.214z"/><ellipse fill="#F29312" cx="177.7" cy="249.5" rx="62.8" ry="22"/><path fill="#1565C0" d="M175.3 233.3v27.2l42-13.6v-3.6z"/><path fill="#039BE5" d="M139.3 243.3v3.6l36 13.6v-27.2z"/><path fill="#BBE5FA" d="M177.5 229.7l38.9 13.6-38.9 13.6-38.9-13.6z"/><path fill="#9CCC65" d="M177 197.2l15.6 5.5 15.7 5.5v35.2l-61 .2v-35.2l14.3-5.7z"/><path fill="#37B34A" d="M147.3 243.7v-35.3l14.3-5.7 15.5-5.5v38.4zm98.2 17.1l-31 11-37.3-17.5 30.9-11zm-136.6 0l31 11 37.3-17.5-30.3-10.7z"/><path fill="#2E7D32" d="M176.9 232.8l31.2 10.6-30.9 10.9-30.3-10.7z"/><path fill="#DA4637" d="M170.8 230h4.2v14.5h-4.2z"/><path fill="#333" d="M175 234.6l-4.2-.5v-5.4h4.2z" opacity=".2"/><path fill="#333" d="M170 243h5.8v2.5H170z"/><path fill="#DA4637" d="M175.8 244.5H170v-1.1c0-.8.6-1.4 1.4-1.4h2.9c.8 0 1.4.6 1.4 1.4v1.1zm-1.2-6.1h-3.4c-.5 0-.9-.4-.9-.9v-1.4c0-.5.4-.9.9-.9h3.4c.5 0 .9.4.9.9v1.4c.1.5-.4.9-.9.9zm15.6-6.1c-1.2 0-2.1-.9-2.1-2.1 0-8.4-2.9-10.8-2.9-10.8-1-.7-1.2-2-.5-2.9.7-1 2-1.2 3-.5.5.3 4.7 3.6 4.7 14.2-.1 1.1-1 2.1-2.2 2.1z"/><path fill="#00B2EE" d="M192.2 233.4c0-1.5-.8-2.6-2.2-2.6-1.5 0-2.8 1.2-2.8 2.6 0 1.3 1 2.3 2 2.6v-1.2c-1-.2-.6-.8-.6-1.4 0-.8.8-1.5 1.7-1.5.8 0 .7.7.7 1.5 0 .6.3 1.2-1.7 1.4v1.2c2-.3 2.9-1.4 2.9-2.6z"/><path fill="#BBE5FA" d="M192.1 233.9c0-1.5-.8-2.6-2.3-2.6-1.5 0-2.7 1.2-2.7 2.6 0 1.3 1.1 2.3 2.1 2.6v-1.2c-1-.2-.7-.8-.7-1.4 0-.8.8-1.5 1.6-1.5s.8.7.8 1.5c0 .6.4 1.2-1.6 1.4v1.2c2-.3 2.8-1.3 2.8-2.6z"/><path fill="#F29312" d="M187.3 229.2h5.8v2.5h-5.8z"/><path fill="#DA4637" d="M164 232.3c-1.2 0-2.1-.9-2.1-2.1 0-10.7 4.2-13.9 4.7-14.2 1-.7 2.3-.4 2.9.5.7.9.4 2.2-.5 2.9-.1.1-2.9 2.6-2.9 10.8 0 1.1-1 2.1-2.1 2.1z"/><path fill="#00B2EE" d="M161.6 233.4c0-1.5.9-2.6 2.4-2.6s2.5 1.2 2.5 2.6c0 1.3-.2 2.3-2.2 2.6v-1.2c0-.2.9-.8.9-1.4 0-.8-.7-1.5-1.5-1.5s-.9.7-.9 1.5c0 .6 1.5 1.2 1.5 1.4v1.2c0-.3-2.7-1.4-2.7-2.6z"/><path fill="#BBE5FA" d="M161.7 233.9c0-1.5 1-2.6 2.4-2.6 1.5 0 2.4 1.2 2.4 2.6 0 1.3-.3 2.3-2.3 2.6v-1.2c0-.2 1.1-.8 1.1-1.4 0-.8-.6-1.5-1.4-1.5-.8 0-1 .7-1 1.5 0 .6 1.4 1.2 1.4 1.4v1.2c0-.3-2.6-1.3-2.6-2.6z"/><path fill="#F29312" d="M161.1 229.2h5.8v2.5h-5.8z"/><path fill="#DA4637" d="M178.7 230h4.2v14.5h-4.2z"/><path fill="#333" d="M183 234.6l-4.3-.5v-5.4h4.3z" opacity=".2"/><path fill="#333" d="M177.9 243h5.8v2.5h-5.8z"/><path fill="#DA4637" d="M183.8 244.5H178v-1.1c0-.8.6-1.4 1.4-1.4h2.9c.8 0 1.4.6 1.4 1.4v1.1zm-1.3-6.1h-3.4c-.5 0-.9-.4-.9-.9v-1.4c0-.5.4-.9.9-.9h3.4c.5 0 .9.4.9.9v1.4c.1.5-.3.9-.9.9z"/><path fill="#F9CE1D" d="M183.6 224.3h-13.4c-.8 0-1.5-.7-1.5-1.5v-6.2c0-.8.7-1.5 1.5-1.5h13.4c.8 0 1.5.7 1.5 1.5v6.2c0 .8-.7 1.5-1.5 1.5z"/><path fill="#F29312" d="M183.6 232.5h-13.4c-.8 0-1.5-.7-1.5-1.5v-11.5c0-.8.7-1.5 1.5-1.5h13.4c.8 0 1.5.7 1.5 1.5V231c0 .8-.7 1.5-1.5 1.5z"/><path fill="#333" d="M179.5 226.7h-5.2c-.8 0-1.5-.7-1.5-1.5V221c0-.8.7-1.5 1.5-1.5h5.2c.8 0 1.5.7 1.5 1.5v4.3c0 .8-.7 1.4-1.5 1.4z"/><path fill="#FFF" d="M167.922 205.12l1.892 5.376-.47.166-1.894-5.377z"/><path fill="#DA4637" d="M174.6 213.8h-5.3c-.7 0-1.3-.6-1.3-1.3v-2c0-.7.6-1.3 1.3-1.3h5.3v4.6z"/><circle fill="#DA4637" cx="167.7" cy="205.3" r=".8"/><path fill="#FFF" d="M185.86 205.165l.47.167-1.896 5.375-.472-.167z"/><path fill="#DA4637" d="M179.2 213.8h5.3c.7 0 1.3-.6 1.3-1.3v-2c0-.7-.6-1.3-1.3-1.3h-5.3v4.6z"/><circle fill="#DA4637" cx="186.2" cy="205.3" r=".8"/><path fill="#F9CE1D" d="M170.3 204h13.2v9.2h-13.2z"/><path fill="#DA4637" d="M179.8 205.6H174l2.6-4.3h.6z"/><path fill="#FFF" d="M179.8 206H174c-.2 0-.4-.2-.4-.4s.2-.4.4-.4h5.8c.2 0 .4.2.4.4s-.2.4-.4.4z"/><path fill="#F5A816" d="M170.3 206.9h13.2v9.2h-13.2z"/><circle fill="#DA4637" cx="173.2" cy="210.6" r="1.6"/><circle fill="#BBE5FA" cx="173.2" cy="210.6" r=".9"/><circle fill="#FFF" cx="176.9" cy="201.4" r=".9"/><circle fill="#DA4637" cx="180.6" cy="210.6" r="1.6"/><circle fill="#BBE5FA" cx="180.6" cy="210.6" r=".9"/><path fill="#03542C" d="M173.2 213.4h7.4v1.6h-7.4z"/><path d="M173.1 213.4h1.1v1.6h-1.1zm2.2 0h1.1v1.6h-1.1zm2.2 0h1.1v1.6h-1.1zm2.2 0h1.1v1.6h-1.1zm-6 7.2h6.3v1.3h-6.3zm0 2.3h3.2v3h-3.2z" fill="#BBE5FA"/><path fill="#D43E2E" d="M179 225.5h-1.1c-.4 0-.6-.3-.6-.6v-1c0-.4.3-.6.6-.6h1.1c.4 0 .6.3.6.6v1c.1.3-.2.6-.6.6z"/><path fill="#80DEEA" d="M177 140.9l15.6 5.5 15.7 5.5v35.2L177 169.5l-29.6-17.6 13.9-5.5z"/><path fill="#1565C0" d="M175.3 177v27.2l42-13.6V187z"/><path fill="#039BE5" d="M139.3 187v3.6l36 13.6V177z"/><path fill="#BBE5FA" d="M175.5 177l42 10-42 12.6-36-12.6z"/><path fill="#00838F" d="M147.3 151.9l14 5.5 14 5.4V198l-14-5.5-14-5.5v-17.6z"/><path fill="#F29312" d="M157.3 191v-35.2l32.1-10.4 4.6 1.6-31.9 10.6-.2 35.2z"/><path fill="#26C6DA" d="M208.3 151.9l-33 10.9V198l33-11z"/><path fill="#F29312" d="M196.3 191v-34.9l-32-10.7-4.8 1.7 30.8 10.5v35.5z"/><path fill="#F29312" d="M183.7 146.1c1.2-2.1 1.6-3.8.8-4.6-.8-.8-2.5-.4-4.6.8-.6-2.3-1.6-3.8-2.7-3.8s-2.1 1.5-2.7 3.8c-2.1-1.2-3.8-1.6-4.6-.8-.8.8-.4 2.5.8 4.6-2.3.6-3.8 1.6-3.8 2.7s1.5 2.1 3.8 2.7c1 .3 2.1.5 3.2.6.6.1 1.2.1 1.9.2h2.8c.7 0 1.3-.1 1.9-.2 1.2-.1 2.3-.3 3.2-.6 2.3-.6 3.8-1.6 3.8-2.7s-1.5-2-3.8-2.7z"/><path fill="#9CCC65" d="M177 84.7l15.6 5.4 15.7 5.5v35.2L177 113.2l-29.6-17.6 13.9-5.5z"/><path fill="#1565C0" d="M175.3 121v27.2l42-13.6V131z"/><path fill="#039BE5" d="M139.3 131v3.6l36 13.6V121z"/><path fill="#BBE5FA" d="M175.5 121l42 10-42 12.6-36-12.6z"/><path fill="#2E7D32" d="M147.3 95.6l14 5.5 14 5.4v35.2l-14-5.5-14-5.5v-17.5z"/><path fill="#D4392C" d="M157.5 134.7l-.2-35.3 32.2-10.3 4.5 1.6-31.9 10.6-.1 35.2z"/><path fill="#37B34A" d="M208.3 95.6l-33 10.9v35.2l33-11z"/><path fill="#D4392C" d="M196.3 134.8v-35l-32-10.7-4.8 1.7 30.8 10.5v35.5z"/><path fill="#D4392C" d="M183.7 89.8c1.2-2.1 1.6-3.8.8-4.6-.8-.8-2.5-.4-4.6.8-.6-2.3-1.6-3.8-2.7-3.8s-2.1 1.5-2.7 3.8c-2.1-1.2-3.8-1.6-4.6-.8-.8.8-.4 2.5.8 4.6-2.3.6-3.8 1.6-3.8 2.7s1.5 2.1 3.8 2.7c1 .3 2.1.5 3.2.6.6.1 1.2.1 1.9.2h2.8c.7 0 1.3-.1 1.9-.2 1.2-.1 2.3-.3 3.2-.6 2.3-.6 3.8-1.6 3.8-2.7 0-1-1.5-2-3.8-2.7z"/><path fill="#914295" d="M224.1 95.2l-1-1.9s3.4-2 9.4-10.4l1.7 1.2c-6.3 9-10 11.1-10.1 11.1z"/><circle fill="#FFE18C" cx="233.5" cy="83.6" r="1.5"/><path fill="#FFF" d="M217.9 106.3l-2.1 4.4 1.8 1 2.2-4.5"/><path fill="#914295" d="M220.6 104.6c-1.2-.6-1.8-.1-2.1.6l-1.3 2.7 1.9.9 1.5-3v-1.2z"/><path fill="#333" d="M217.9 111.4l-2.2-1.1c-1.4 1.1-3.3.1-3.1-1 0 0-2 1.4 2.7 3.4 1.2.4 2.5-.1 2.6-1.3z"/><path fill="#803783" d="M228.4 84.6s-7-3.7-10.3-4.3c0 0 3.6 3.7 2.5 6l7.8-1.7z"/><path fill="#914295" d="M225.1 85.5s-3.7-4.6-7-5.2c0 0 3.6 3.7 2.5 6l4.5-.8z"/><path fill="#FFE18C" d="M228.9 88.3c.6 2.1-.7 4.3-2.8 4.9-2.1.6-4.3-.7-4.9-2.8-.6-2.1.7-4.3 2.8-4.9 2.2-.6 4.4.7 4.9 2.8z"/><path fill="#333" d="M225.9 85.4c-.6-.1-1.3-.1-1.9 0-2.1.6-3.4 2.8-2.8 4.9.3.9.8 1.7 1.6 2.2 3.4-1.9 3.4-5.4 3.1-7.1z"/><path fill="#FFE18C" d="M226.4 90l-2.8-2.3s.5 4.7 2.8 3.5V90z"/><path fill="#FFF" d="M228.7 85.4c.1.3-.1.6-.4.7l-7.7 2.1c-.3.1-.6-.1-.7-.4l-.3-.9c-.1-.3.1-.6.4-.7l7.7-2.1c.3-.1.6.1.7.4l.3.9z"/><circle fill="#333" cx="227.3" cy="88.1" r=".7"/><path fill="#7B357F" d="M216.8 100.7c-.6 2.1.7 4.3 2.8 4.9 2.1.6 4.3-.7 4.9-2.8l1.4-5.3c.6-2.1-.7-4.3-2.8-4.9-2.1-.6-4.3.7-4.9 2.8l-1.4 5.3z"/><path fill="#914295" d="M218.7 101.2c-.6 2.1-1.1 3.8 1 4.4 2.1.6 4.3-.7 4.9-2.8l1.4-5.3c.6-2.1-.7-4.3-2.8-4.9-2.1-.6-2.5 1.2-3.1 3.3l-1.4 5.3z"/><path fill="#333" d="M224.54 102.743l-7.726-2.076.52-1.932 7.725 2.077z"/><circle fill="#FFF" cx="217.4" cy="79.8" r=".9"/><path fill="#FFE18C" d="M228.3 88.3l3.9.1c.4-.1.5.5 0 .6l-4.3 1.2.4-1.9z"/><path fill="#FDD500" d="M217.233 101.033l-.583-.14.54-2.236.585.14z"/><path fill="#914295" d="M216.9 98.7c-2.3 0-4.2-1.1-5.2-2.1l1.4-1.5-.7.8.7-.8c.4.4 4.2 3.6 8.4-.8l1.5 1.5c-2 2.1-4.2 2.9-6.1 2.9z"/><circle fill="#FFE18C" cx="212.4" cy="95.8" r="1.5"/><path fill="#019049" d="M247 173.9l-4.2-3.3c.7-3.6 3.1-6.7 6.5-8.3l4.2 3.3c-3.4 1.6-5.8 4.7-6.5 8.3z"/><path fill="#E53935" d="M267 189l4.6-2.5c3.1 2.1 4.9 5.5 5.1 9.3l-4.6 2.5c-.1-3.8-2-7.2-5.1-9.3z"/><path fill="#1565C0" d="M182.2 131.3l-3.3-4.1c1.6-3.4 4.7-5.8 8.3-6.5l3.3 4.1c-3.6.7-6.7 3.1-8.3 6.5z"/><path fill="#FFF" d="M232 143.3l1.2 5.1c-2.8 2.4-6.6 3.3-10.3 2.5l-1.2-5.1c3.6.8 7.4-.1 10.3-2.5z"/><path fill="#F5871F" d="M257.8 112.4l-4.4 2.9c-3.2-1.9-5.4-5.1-5.8-8.8l4.4-2.9c.4 3.7 2.5 7 5.8 8.8z"/><path fill="#FFF" d="M271.5 122.7l4.3-3c3.3 1.8 5.5 5 6.1 8.6l-4.3 3c-.6-3.7-2.8-6.9-6.1-8.6zm-21.7.7l-1.9 4.9c-3.7.4-7.3-1-9.9-3.8l1.9-4.9c2.5 2.8 6.2 4.2 9.9 3.8z"/><path fill="#FF931E" d="M277.7 175c-2.9-2.3-4.7-5.8-4.6-9.5l4.7-2.3c0 3.7 1.7 7.2 4.6 9.5l-4.7 2.3"/><path fill="#FDCE48" d="M205.6 169.8l-4.4-2.9c.4-3.7 2.6-7 5.8-8.8l4.4 2.9c-3.3 1.9-5.4 5.1-5.8 8.8z"/><path fill="#D43E2E" d="M260 86.7l4.7 2.4c0 3.7-1.8 7.2-4.8 9.4l-4.7-2.4c3-2.2 4.8-5.6 4.8-9.4z"/><path fill="#2AAF4B" d="M244.7 63.5l4.7-2.4c3 2.2 4.8 5.6 4.9 9.4l-4.7 2.4c-.1-3.8-1.9-7.2-4.9-9.4z"/><path fill="#F5871F" d="M177 28.4l15.6 5.4 15.7 5.5v35.2L177 56.9l-29.6-17.6 13.9-5.5z"/><path fill="#1565C0" d="M175.3 64v27.2l42-13.6V74z"/><path fill="#039BE5" d="M139.3 74v3.6l36 13.6V64z"/><path fill="#BBE5FA" d="M175.5 64l42 10-42 12.6-36-12.6z"/><path fill="#C62828" d="M147.3 39.3l14 5.5 14 5.5v35.1l-14-5.5-14-5.5V56.9z"/><path fill="#FDCE48" d="M157.5 78.4l-.1-35.2 32.1-10.4 4.5 1.6L162.1 45l-.1 35.2z"/><path fill="#DA4637" d="M208.3 39.3l-33 11v35.1l33-11z"/><path fill="#FDCE48" d="M196.3 78.5V43.3l-32-10.5-4.8 1.7L190.3 45v35.4z"/><path fill="#FDCE48" d="M183.7 33.5c1.2-2.1 1.6-3.8.8-4.6-.8-.8-2.5-.4-4.6.8-.6-2.3-1.6-3.8-2.7-3.8s-2.1 1.5-2.7 3.8c-2.1-1.2-3.8-1.6-4.6-.8-.8.8-.4 2.5.8 4.6-2.3.6-3.8 1.6-3.8 2.7s1.5 2.1 3.8 2.7c1 .3 2.1.5 3.2.6.6.1 1.2.1 1.9.2h2.8c.7 0 1.3-.1 1.9-.2 1.2-.1 2.3-.3 3.2-.6 2.3-.6 3.8-1.6 3.8-2.7 0-1-1.5-2-3.8-2.7z"/><path fill="#119CD3" d="M141.5-14.2h1.4v257.6h-1.4zm70.3 0h1.4v257.6h-1.4z"/><path fill="#E53935" d="M138.1 214.1h-7.6c-4.7 0-8.5-3.8-8.5-8.5v-3.8c0-2 1.6-3.5 3.5-3.5s3.5 1.6 3.5 3.5v3.8c0 .8.6 1.4 1.4 1.4h7.6c2 0 3.5 1.6 3.5 3.5s-1.5 3.6-3.4 3.6z"/><path fill="#F9CE1D" d="M139 210.7c-.6 0-1.1-.5-1.1-1.1 0-1.9 1.5-3.5 3.4-3.4.6 0 1.1.5 1.1 1.1 0 .6-.5 1.1-1.1 1.1-.7 0-1.2.5-1.2 1.2 0 .6-.5 1.1-1.1 1.1"/><path fill="#F9CE1D" d="M139.2 214.2c-1.7 0-3-1.4-3-3 0-1.7 1.4-3 3-3h3.4c1.7 0 3 1.4 3 3 0 1.7-1.4 3-3 3h-3.4"/><path fill="#FFF" d="M138.7 207v7c0 .7-.5 1.2-1.2 1.2h-.5c-.7 0-1.2-.5-1.2-1.2v-7c0-.7.5-1.2 1.2-1.2h.5c.7 0 1.2.5 1.2 1.2z"/><path fill="#E53935" d="M97.8 218.9c-2 0-3.5-1.6-3.5-3.5v-7.6c0-4.7 3.8-8.5 8.5-8.5h3.8c2 0 3.5 1.6 3.5 3.5s-1.6 3.5-3.5 3.5h-3.8c-.8 0-1.4.6-1.4 1.4v7.6c-.1 2-1.7 3.6-3.6 3.6z"/><path fill="#231F20" d="M97.8 218.9c-2 0-3.5-1.6-3.5-3.5v-7.6c0-4.7 3.8-8.5 8.5-8.5h3.8c2 0 3.5 1.6 3.5 3.5s-1.6 3.5-3.5 3.5h-3.8c-.8 0-1.4.6-1.4 1.4v7.6c-.1 2-1.7 3.6-3.6 3.6z" opacity=".2"/><circle fill="#FFF" cx="116.2" cy="170.4" r="2.7"/><path fill="#212121" d="M106.9 236.5v3c-2.2 0-5.4 3.4-5.4 6.4h13.3v-9.4h-7.9z"/><path fill="#E53935" d="M106.9 222.8h7.9v15h-7.9z"/><path fill="#212121" d="M124.7 236.5v3c2.2 0 5.4 3.4 5.4 6.4h-13.3v-9.4h7.9z"/><path fill="#E53935" d="M116.8 222.8h7.9v15h-7.9z"/><path fill="#FFF" d="M107.7 184.7c0 4.8 3.9 8.6 8.6 8.6 4.8 0 8.6-3.9 8.6-8.6 0-4.8-3.9-13.3-8.6-13.3-4.7 0-8.6 8.5-8.6 13.3z"/><circle fill="#231F20" cx="120.5" cy="184.4" r=".9"/><circle fill="#231F20" cx="114.1" cy="184.3" r=".9"/><path fill="#231F20" d="M116.4 188.1c0 .6.4.9.9.9s.9-.3.9-.9h-1.8z"/><path fill="#D43E2E" d="M116.3 170.8c3 0 5.6 4 7.2 7h-14.3c1.5-3 4.2-7 7.1-7z"/><path fill="#E53935" d="M126.3 205.3v21.5h-10l.1-33.3h3.1c4.9 1.8 6.8 6.3 6.8 11.8z"/><path fill="#E53935" d="M103.3 205.3v21.5h14l-.1-33.3h-5.8c-5 1.8-8.1 6.3-8.1 11.8z"/><path fill="#231F20" d="M116.8 193.5l-5.6-.1c-4.9 1.9-8.3 6.4-8.3 11.8v21.6h5.8v-21.6c0-5.3 3.3-9.8 8.1-11.7z" opacity=".2"/><path fill="#E53935" d="M129.3 227.3c0-.3-.2-.5-.5-.5h-27c-.3 0-.5.2-.5.5s.2.5.5.5h27c.2 0 .5-.2.5-.5z"/><path fill="#FFD200" d="M109.3 190.8h15v5h-15z"/><path fill="#FFD200" d="M112.3 190.8h5v10h-5z"/><path fill="#231F20" d="M127.8 216.6H103v-4h24.8v4z"/><path fill="#FFCE00" d="M120 216.6h-5.6v-4h5.6v4z"/><path fill="#DA4637" d="M117.3 187c.9 0 1.6-.7 1.6-1.6 0-.9-.7-1.6-1.6-1.6-.9 0-1.6.7-1.6 1.6 0 .9.7 1.6 1.6 1.6z"/><path fill="#D43E2E" d="M125.2 180.8h-17.6c-.7 0-1.2-.5-1.2-1.2v-.5c0-.7.5-1.2 1.2-1.2h17.6c.7 0 1.2.5 1.2 1.2v.5c0 .7-.6 1.2-1.2 1.2z"/><path fill="#F9CE1D" d="M97.9 215.9c0-.6.5-1.1 1.1-1.1 1.9 0 3.5 1.5 3.4 3.4 0 .6-.5 1.1-1.1 1.1-.6 0-1.1-.5-1.1-1.1 0-.7-.5-1.2-1.2-1.2-.6.1-1.1-.5-1.1-1.1"/><path fill="#F9CE1D" d="M94.4 216.1c0-1.7 1.4-3 3-3 1.7 0 3 1.4 3 3v3.4c0 1.7-1.4 3-3 3-1.7 0-3-1.4-3-3v-3.4"/><path fill="#FFF" d="M101.3 215.7h-7c-.7 0-1.2-.5-1.2-1.2v-.5c0-.7.5-1.2 1.2-1.2h7c.7 0 1.2.5 1.2 1.2v.5c0 .6-.5 1.2-1.2 1.2z"/></g><defs><circle id="u" cx="-277" cy="190.5" r="180.5"/></defs><clipPath id="v"><use xlink:href="#u" overflow="visible"/></clipPath><g clip-path="url(#v)"><path fill="#0EA7DD" d="M-756.7-134.2h1027v578h-1027z"/><path fill="#231F20" d="M269.3 26l-424.1 54.8-221.1.4L-741 38.9l-13.4-171.1H269.3z" opacity=".05"/><path fill="#231F20" d="M-1 108.8h.1c6.1 0 11.1 5.3 11.1 11.3v48.7h-22v-48.7c.1-6.1 4.8-11.3 10.8-11.3z" opacity=".1"/><path fill="#0EA7DD" d="M-145.7 148.2L9.8 168.7v17.6l-155.5-25.9z"/></g></svg>