<svg width="40" height="36" fill="none" xmlns="http://www.w3.org/2000/svg"><path d="M28.127 4s6.345 4.372 6.345 20.903" stroke="#DA4637" stroke-width="7.057" stroke-miterlimit="10" stroke-linecap="round" stroke-linejoin="round"/><path d="M38.971 30.23c0-2.441-1.782-4.415-4.223-4.415a4.393 4.393 0 00-4.392 4.415c0 2.122 1.167 3.904 3.522 4.307v-2.016c-1.167-.36-1.507-1.252-1.507-2.313 0-1.38 1.146-2.483 2.526-2.483s2.122 1.104 2.122 2.483c0 1.061-.785 1.974-1.974 2.335v1.994c2.356-.381 3.926-2.164 3.926-4.307z" fill="#00B2EE"/><path d="M38.76 31.1c0-2.44-1.91-4.415-4.33-4.415-2.44 0-4.223 1.974-4.223 4.415 0 2.122 1.337 3.904 3.693 4.308v-1.995c-1.168-.361-1.72-1.252-1.72-2.313 0-1.38 1.04-2.483 2.399-2.483 1.379 0 2.292 1.103 2.292 2.483 0 1.06-.637 1.973-1.804 2.334v1.995c2.334-.403 3.692-2.186 3.692-4.33z" fill="#BBE5FA"/><path d="M39.312 23.354h-9.699v4.18h9.699v-4.18z" fill="#8E24AA"/><path d="M11.184 4S4.838 8.372 4.838 24.903" stroke="#DA4637" stroke-width="7.057" stroke-miterlimit="10" stroke-linecap="round" stroke-linejoin="round"/><path d="M.34 30.23c0-2.441 1.782-4.415 4.222-4.415a4.393 4.393 0 014.393 4.415c0 2.122-1.167 3.904-3.523 4.307v-2.016c1.167-.36 1.507-1.252 1.507-2.313 0-1.38-1.146-2.483-2.525-2.483-1.38 0-2.122 1.104-2.122 2.483 0 1.061.785 1.974 1.973 2.335v1.994C1.91 34.156.34 32.373.34 30.23z" fill="#00B2EE"/><path d="M.551 31.1c0-2.44 1.91-4.415 4.33-4.415 2.44 0 4.223 1.974 4.223 4.415 0 2.122-1.337 3.904-3.693 4.308v-1.995C6.578 33.052 7.13 32.16 7.13 31.1c0-1.38-1.04-2.483-2.398-2.483-1.38 0-2.292 1.103-2.292 2.483 0 1.06.637 1.973 1.804 2.334v1.995C1.909 35.026.55 33.243.55 31.099z" fill="#BBE5FA"/><path d="M0 23.354h9.697v4.18H0v-4.18z" fill="#8E24AA"/></svg>