<svg width="34" height="27" fill="none" xmlns="http://www.w3.org/2000/svg"><path d="M1.465 7.958l3.162 8.977" stroke="#fff" stroke-width=".882" stroke-miterlimit="10"/><path d="M12.86 22.283H5.686a3.863 3.863 0 010-7.725h7.172v7.725zM1.316 9.422a1.316 1.316 0 100-2.631 1.316 1.316 0 000 2.631z" fill="#DA4637"/><path d="M32.193 7.958l-3.162 8.977" stroke="#fff" stroke-width=".882" stroke-miterlimit="10"/><path d="M20.648 22.283h7.173a3.863 3.863 0 000-7.725h-7.173v7.725zM32.341 9.422a1.316 1.316 0 100-2.63 1.316 1.316 0 000 2.63z" fill="#DA4637"/><path d="M27.737 5.857H5.687v15.428h22.05V5.857z" fill="#AB47BC"/><path d="M21.602 8.51h-9.698l4.414-7.067h.892l4.392 7.067z" fill="#DA4637"/><path d="M21.602 8.51h-9.698" stroke="#fff" stroke-width="1.323" stroke-miterlimit="10" stroke-linecap="round" stroke-linejoin="round"/><path d="M27.737 10.717H5.687v15.428h22.05V10.717z" fill="#8E24AA"/><path d="M10.523 19.26a2.5 2.5 0 100-5 2.5 2.5 0 000 5z" fill="#DA4637"/><path d="M12.075 16.745c0 .828-.658 1.486-1.486 1.486a1.476 1.476 0 01-1.485-1.486c0-.827.657-1.485 1.485-1.485.828 0 1.486.658 1.486 1.485z" fill="#BBE5FA"/><path d="M18.25 1.486c0 .827-.658 1.485-1.485 1.485a1.476 1.476 0 01-1.486-1.486C15.28.659 15.937 0 16.765 0c.827 0 1.485.658 1.485 1.486z" fill="#fff"/><path d="M22.523 19.26a2.5 2.5 0 100-5 2.5 2.5 0 000 5z" fill="#DA4637"/><path d="M22.94 21.519H10.59v2.652h12.35V21.52z" fill="#333"/><path d="M23.994 16.745c0 .828-.657 1.486-1.485 1.486a1.476 1.476 0 01-1.486-1.486c0-.827.658-1.485 1.486-1.485s1.485.658 1.485 1.485z" fill="#BBE5FA"/></svg>