<svg xmlns="http://www.w3.org/2000/svg" width="45.4" height="92.4" viewBox="0 0 45.4 92.4"><path fill="#FFD200" d="M13.5 31.7L0 33.7l11.1 4.4"/><path fill="#231F20" d="M2.3 92.4c0-44.4 8.5-69.8 18.9-69.8S40.1 48 40.1 92.4H2.3z"/><path fill="#FFF" d="M29.9 92.4c-1.6-24.6-11-44.2-22.9-49-3.1 12-5 30.5-5 49h27.9z"/><circle fill="#FFF" cx="21.5" cy="34.7" r="2.2"/><path fill="#FFD200" d="M1.8 92.4c0-6.2 3.3-7.4 7.4-7.4 4.1 0 7.4 1.3 7.4 7.4H1.8z"/><path fill="#E53935" d="M9.5 21.9S30.3 7.7 40.4 4.6c0 0-10.1 12.9-5.6 20L9.5 21.9z"/><path fill="#FFF" d="M8.8 24.6c-.1.9.5 1.8 1.4 1.9l25 3.7c.9.1 1.8-.5 1.9-1.4l.4-3.1c.1-.9-.5-1.8-1.4-1.9l-25-3.7c-.9-.1-1.8.5-1.9 1.4l-.4 3.1z"/><circle fill="#FFF" cx="42.7" cy="2.7" r="2.7"/></svg>