<?xml version="1.0" encoding="utf-8"?>
<!-- Generator: Adobe Illustrator 21.0.0, SVG Export Plug-In . SVG Version: 6.00 Build 0)  -->
<svg version="1.1" id="Layer_1" xmlns="http://www.w3.org/2000/svg" xmlns:xlink="http://www.w3.org/1999/xlink" x="0px" y="0px"
	 viewBox="0 0 825 270" style="enable-background:new 0 0 825 270;" xml:space="preserve">
<style type="text/css">
	.st0{fill:#FFFFFF;}
	.st1{fill:none;stroke:#000000;stroke-width:2.308;stroke-linecap:round;stroke-linejoin:round;stroke-miterlimit:10;}
	.st2{fill:none;stroke:#000000;stroke-width:6.242;stroke-linecap:round;stroke-linejoin:round;stroke-miterlimit:10;}
	.st3{fill:#DCDDDE;stroke:#000000;stroke-width:2.611;stroke-linecap:round;stroke-linejoin:round;stroke-miterlimit:10;}
	.st4{fill:#FFE300;}
	.st5{fill:#FFFFFF;stroke:#000000;stroke-width:2.308;stroke-linecap:round;stroke-linejoin:round;stroke-miterlimit:10;}
	.st6{fill:none;stroke:#000000;stroke-width:2.611;stroke-linecap:round;stroke-linejoin:round;stroke-miterlimit:10;}
</style>
<path class="st0" d="M379.1,267.2c6.4-1,12.5-3.3,18-6.7c13.3,7.8,29.4,11.2,45.8,8.6c28.1-4.4,49.6-25,56.4-50.8
	c0.2,0,0.3,0,0.5-0.1c27.2-4.3,46.1-28.3,42.1-53.6c-1.3-8.3-4.9-15.7-10.1-21.7c12.5-6.2,20.1-20,17.8-34.5
	C547,92.2,533,80.7,517.1,80.7c0-3-0.3-5.9-0.7-8.9C511.3,39.6,482,17.2,450,20.2C444.3,6.5,429.8-2,414.6,0.4
	c-9.7,1.5-17.7,7.1-22.6,14.7c-9.5-3.4-20.1-4.6-30.8-2.9c-31,4.9-53.1,31.7-52.9,62.1c-1.4,0-2.8,0.2-4.3,0.4
	c-18.7,2.9-31.4,20.4-28.5,39c1.9,12.4,10.3,22.1,21.1,26.4c-15,8.4-24,25.6-21.2,43.6c3.6,22.7,24.6,38.4,47.3,35.5
	c0,2.4,0.2,4.9,0.6,7.4C327.6,253.2,352.5,271.3,379.1,267.2L379.1,267.2z"/>
<g>
	<path class="st1" d="M354.4,75.5c-0.6-2.2,16.1-8.9,37.3-14.8c21.2-5.9,39-9,39.6-6.7l40.5,145c0.6,2.2-16.1,8.8-37.3,14.8
		c-21.2,5.9-39,9-39.6,6.7L354.4,75.5L354.4,75.5z"/>
	<path class="st1" d="M460.8,185.6l-63.3,17.7L365.8,89.4L429,71.7L460.8,185.6z"/>
	<path class="st1" d="M460.8,185.6l-63.3,17.7L365.8,89.4L429,71.7L460.8,185.6z"/>
	<ellipse transform="matrix(0.963 -0.2694 0.2694 0.963 -4.4753 109.3778)" class="st1" cx="396.2" cy="71" rx="9.9" ry="2.6"/>
	<circle class="st1" cx="431.4" cy="204.4" r="2.1"/>
</g>
<g>
	<path class="st1" d="M397.1,53.6c0.7-2.2,18.3,1.3,39.4,7.7s37.6,13.5,37,15.7l-44.1,144c-0.7,2.2-18.3-1.3-39.4-7.7
		c-21.1-6.5-37.6-13.5-37-15.7L397.1,53.6L397.1,53.6z"/>
	<path class="st1" d="M427.3,203.8l-62.8-19.3l34.6-113.1l62.8,19.3L427.3,203.8z"/>
	<ellipse transform="matrix(0.2934 -0.956 0.956 0.2934 238.1434 466.3392)" class="st1" cx="434.5" cy="72.1" rx="2.6" ry="9.9"/>
	<circle class="st1" cx="392.4" cy="203.7" r="2.1"/>
</g>
<path class="st2" d="M513.8,161.9c6.4-15.2,4.8-27.2-1.4-38.6"/>
<path d="M504.5,128.3l16-9.6l-13.6-4.6L504.5,128.3z M506.1,156.7l16,9.5l-13.6,4.6L506.1,156.7z"/>
<path class="st2" d="M312.4,161.9c-6.4-15.2-4.8-27.2,1.4-38.6"/>
<path d="M321.7,128.3l-16-9.6l13.6-4.6L321.7,128.3z M320,156.7l-16,9.5l13.6,4.6L320,156.7z"/>
<path class="st1" d="M446.1,78.2v118.3h-65.7V78.2H446.1z"/>
<path class="st3" d="M373.2,61.7c0-2.3,17.9-4.2,39.9-4.2s39.9,1.9,39.9,4.2v150.6c0,2.3-17.9,4.2-39.9,4.2s-39.9-1.9-39.9-4.2V61.7
	L373.2,61.7z"/>
<path class="st4" d="M446.1,78.2v118.3h-65.7V78.2H446.1z"/>
<path class="st1" d="M446.1,78.2v118.3h-65.7V78.2H446.1z"/>
<ellipse class="st1" cx="414.4" cy="68.5" rx="9.9" ry="2.6"/>
<circle class="st1" cx="412.7" cy="206.6" r="2.1"/>
<path class="st0" d="M104.1,267.2c6.4-1,12.5-3.3,18-6.7c13.3,7.8,29.4,11.2,45.8,8.6c28.1-4.4,49.6-25,56.4-50.8
	c0.2,0,0.3,0,0.5-0.1c27.2-4.3,46.1-28.3,42.1-53.6c-1.3-8.3-4.9-15.7-10.1-21.7c12.5-6.2,20.1-20,17.8-34.5
	C272,92.2,258,80.7,242.1,80.7c0-3-0.3-5.9-0.7-8.9C236.3,39.6,207,17.2,175,20.2C169.3,6.5,154.8-2,139.6,0.4
	c-9.7,1.5-17.7,7.1-22.6,14.7c-9.6-3.4-20.1-4.6-30.8-2.9c-31,4.9-53.1,31.7-52.9,62.1c-1.4,0-2.8,0.2-4.3,0.4
	c-18.7,2.9-31.4,20.4-28.5,39c1.9,12.4,10.3,22.1,21.2,26.4c-15,8.4-24,25.6-21.2,43.6c3.6,22.7,24.6,38.4,47.3,35.5
	c0,2.4,0.2,4.9,0.6,7.4C52.6,253.2,77.5,271.3,104.1,267.2L104.1,267.2z"/>
<g>
	<path class="st1" d="M79.4,75.5c-0.6-2.2,16.1-8.8,37.3-14.8c21.2-5.9,39-9,39.6-6.7l40.5,145c0.6,2.2-16.1,8.9-37.3,14.8
		c-21.2,5.9-39,9-39.6,6.7L79.4,75.5L79.4,75.5z"/>
	<path class="st1" d="M185.8,185.6l-63.3,17.7L90.8,89.4L154,71.7L185.8,185.6z"/>
	<path class="st1" d="M185.8,185.6l-63.3,17.7L90.8,89.4L154,71.7L185.8,185.6z"/>
	<ellipse transform="matrix(0.963 -0.2694 0.2694 0.963 -14.6678 35.2673)" class="st1" cx="121.1" cy="71.1" rx="9.9" ry="2.6"/>
	<circle class="st1" cx="156.4" cy="204.4" r="2.1"/>
</g>
<path class="st2" d="M238.8,161.9c6.4-15.2,4.8-27.2-1.4-38.6"/>
<path d="M229.5,128.3l16-9.6l-13.6-4.6L229.5,128.3z M231.1,156.7l16,9.5l-13.6,4.6L231.1,156.7z"/>
<path class="st2" d="M37.4,161.9c-6.4-15.2-4.8-27.2,1.4-38.6"/>
<path d="M46.7,128.3l-16-9.6l13.6-4.6L46.7,128.3z M45,156.7l-16,9.5l13.6,4.6L45,156.7z"/>
<path class="st1" d="M171.1,78.2v118.3h-65.7V78.2H171.1z"/>
<g>
	<path class="st5" d="M98.2,61.7c0-2.3,17.9-4.2,39.9-4.2s39.9,1.9,39.9,4.2v150.6c0,2.3-17.9,4.2-39.9,4.2s-39.9-1.9-39.9-4.2V61.7
		L98.2,61.7z"/>
	<path class="st5" d="M171.1,78.2v118.3h-65.7V78.2H171.1z"/>
	<path class="st5" d="M171.1,78.2v118.3h-65.7V78.2H171.1z"/>
	<ellipse class="st5" cx="139.4" cy="68.5" rx="9.9" ry="2.6"/>
	<circle class="st5" cx="137.7" cy="206.5" r="2.1"/>
</g>
<path class="st3" d="M122.1,53.6c0.7-2.2,18.3,1.3,39.4,7.7c21.1,6.5,37.6,13.5,37,15.7l-44.1,144c-0.7,2.2-18.3-1.3-39.4-7.7
	c-21.1-6.5-37.6-13.5-37-15.7L122.1,53.6z"/>
<path class="st4" d="M152.3,203.8l-62.8-19.3l34.6-113.1l62.8,19.3L152.3,203.8z"/>
<path class="st6" d="M152.3,203.8l-62.8-19.3l34.6-113.1l62.8,19.3L152.3,203.8z"/>
<ellipse transform="matrix(0.2934 -0.956 0.956 0.2934 43.8007 203.4966)" class="st3" cx="159.6" cy="72.1" rx="2.6" ry="9.9"/>
<circle class="st3" cx="117.4" cy="203.7" r="2.1"/>
<path class="st0" d="M654.1,267.2c6.4-1,12.5-3.3,18-6.7c13.3,7.8,29.4,11.2,45.8,8.6c28.1-4.4,49.6-25,56.4-50.8
	c0.2,0,0.3,0,0.5-0.1c27.2-4.3,46.1-28.3,42.1-53.6c-1.3-8.3-4.9-15.7-10.1-21.7c12.5-6.2,20.1-20,17.8-34.5
	C822,92.2,808,80.7,792.1,80.7c0-3-0.3-5.9-0.7-8.9C786.3,39.6,757,17.2,725,20.2C719.3,6.5,704.8-2,689.6,0.4
	c-9.7,1.5-17.7,7.1-22.6,14.7c-9.5-3.4-20.1-4.6-30.8-2.9c-31,4.9-53.1,31.7-52.9,62.1c-1.4,0-2.8,0.2-4.3,0.4
	c-18.7,2.9-31.4,20.4-28.5,39c1.9,12.4,10.3,22.1,21.2,26.4c-15,8.4-24,25.6-21.2,43.6c3.6,22.7,24.6,38.4,47.3,35.5
	c0,2.4,0.2,4.9,0.6,7.4C602.6,253.2,627.5,271.3,654.1,267.2L654.1,267.2z"/>
<g>
	<path class="st1" d="M672.1,53.6c0.7-2.2,18.3,1.3,39.4,7.7c21.1,6.5,37.6,13.5,37,15.7l-44.1,144c-0.7,2.2-18.3-1.3-39.4-7.7
		c-21.1-6.5-37.6-13.5-37-15.7L672.1,53.6L672.1,53.6z"/>
	<path class="st1" d="M702.3,203.8l-62.8-19.3l34.6-113.1l62.8,19.3L702.3,203.8z"/>
	<ellipse transform="matrix(0.2934 -0.956 0.956 0.2934 432.4894 729.1848)" class="st1" cx="709.5" cy="72" rx="2.6" ry="9.9"/>
	<circle class="st1" cx="667.4" cy="203.7" r="2.1"/>
</g>
<path class="st2" d="M788.8,161.9c6.4-15.2,4.8-27.2-1.4-38.6"/>
<path d="M779.5,128.3l16-9.6l-13.6-4.6L779.5,128.3z M781.1,156.7l16,9.5l-13.6,4.6L781.1,156.7z"/>
<path class="st2" d="M587.4,161.9c-6.4-15.2-4.8-27.2,1.4-38.6"/>
<path d="M596.7,128.3l-16-9.6l13.6-4.6L596.7,128.3z M595,156.7l-16,9.5l13.6,4.6L595,156.7z"/>
<path class="st1" d="M721.1,78.2v118.3h-65.7V78.2L721.1,78.2z"/>
<g>
	<path class="st5" d="M648.2,61.7c0-2.3,17.9-4.2,39.9-4.2s39.9,1.9,39.9,4.2v150.6c0,2.3-17.9,4.2-39.9,4.2s-39.9-1.9-39.9-4.2
		V61.7z"/>
	<path class="st5" d="M721.1,78.2v118.3h-65.7V78.2L721.1,78.2z"/>
	<path class="st5" d="M721.1,78.2v118.3h-65.7V78.2L721.1,78.2z"/>
	<ellipse class="st5" cx="689.4" cy="68.5" rx="9.9" ry="2.6"/>
	<circle class="st5" cx="687.7" cy="206.5" r="2.1"/>
</g>
<path class="st3" d="M629.4,75.5c-0.6-2.2,16.1-8.8,37.3-14.8c21.2-5.9,39-9,39.6-6.7l40.5,145c0.6,2.2-16.1,8.8-37.3,14.8
	c-21.2,5.9-39,9-39.6,6.7L629.4,75.5L629.4,75.5z"/>
<path class="st4" d="M735.8,185.6l-63.3,17.7L640.8,89.4L704,71.7L735.8,185.6z"/>
<ellipse transform="matrix(0.963 -0.2694 0.2694 0.963 5.7172 183.4888)" class="st3" cx="671.3" cy="70.9" rx="9.9" ry="2.6"/>
<circle class="st3" cx="706.4" cy="204.4" r="2.1"/>
<path class="st6" d="M735.8,185.6l-63.3,17.7L640.8,89.4L704,71.7L735.8,185.6z"/>
</svg>
