<?xml version="1.0" encoding="utf-8"?>
<!-- Generator: Adobe Illustrator 21.0.0, SVG Export Plug-In . SVG Version: 6.00 Build 0)  -->
<svg version="1.1" id="Layer_1" xmlns="http://www.w3.org/2000/svg" xmlns:xlink="http://www.w3.org/1999/xlink" x="0px" y="0px"
	 viewBox="0 0 485 526" style="enable-background:new 0 0 485 526;" xml:space="preserve">
<style type="text/css">
	.st0{fill:#231F20;}
	.st1{opacity:0.51;}
	.st2{fill:#FFF2F3;}
	.st3{opacity:0.47;}
	.st4{opacity:0.58;}
	.st5{opacity:0.2;fill:#64FFF8;enable-background:new    ;}
	.st6{opacity:0.48;}
	.st7{opacity:0.5;fill:#64FFF8;enable-background:new    ;}
	.st8{opacity:0.9;fill:#64FFF8;enable-background:new    ;}
	.st9{opacity:0.6;fill:#64FFF8;enable-background:new    ;}
	.st10{opacity:0.8;fill:#64FFF8;enable-background:new    ;}
	.st11{opacity:0.2;enable-background:new    ;}
	.st12{opacity:0.31;}
	.st13{fill:#64FFF8;}
	.st14{opacity:0.5;fill:#FFFFFF;enable-background:new    ;}
	.st15{opacity:0.58;fill:#64FFF8;enable-background:new    ;}
	.st16{opacity:0.5;fill:#64FFFA;enable-background:new    ;}
	.st17{opacity:0.75;}
	.st18{fill:#36F2E4;}
	.st19{fill:#AB47BC;}
	.st20{fill:#D84637;}
	.st21{fill:#4172E8;}
	.st22{fill:#231F31;}
	.st23{fill:#FFD200;stroke:#FFD200;stroke-width:1.81;stroke-linejoin:round;}
	.st24{fill:#FFD100;}
	.st25{fill:#FFFFFF;}
	.st26{fill:#D32F2F;}
	.st27{fill:#E73A31;}
</style>
<symbol  id="body-2" viewBox="-74 -105.3 148 210.7">
	<path class="st0" d="M74,105.3H-74c0,0,0-210.7,74-210.7S74,105.3,74,105.3z"/>
</symbol>
<title>penguin-start</title>
<g>
	<g id="Layer_1_1_">
		<g id="_Group_">
			<g class="st1">
				<path class="st2" d="M302.9,74.6v133.8c0,6.4-5.2,11.6-11.7,11.6H189.9c-6.4,0-11.6-5.2-11.7-11.6V74.6
					c0-6.4,5.2-11.6,11.7-11.6h101.4C297.7,62.9,302.9,68.1,302.9,74.6z M188,208.4c0,1,0.8,1.8,1.8,1.8h101.4c1,0,1.8-0.8,1.8-1.8
					V74.6c0-1-0.8-1.8-1.8-1.8H189.9c-1,0-1.8,0.8-1.8,1.8L188,208.4z"/>
			</g>
			<polygon class="st2" points="222.3,161.7 240.6,108.5 258.8,161.7 			"/>
		</g>
		<g class="st3">
			<g class="st1">
				<path class="st2" d="M160.6,353H26.7c-6.4,0-11.6-5.2-11.6-11.6l0,0V240.2c0-6.4,5.2-11.6,11.6-11.6h133.8
					c6.4,0,11.6,5.2,11.6,11.6v101.1C172.2,347.8,167,353,160.6,353L160.6,353z M26.7,238.4c-1,0-1.8,0.8-1.8,1.8v101.1
					c0,1,0.8,1.8,1.8,1.8h133.8c1,0,1.8-0.8,1.8-1.8V240.2c0-1-0.8-1.8-1.8-1.8H26.7z"/>
			</g>
			<polygon class="st2" points="113.9,272.6 60.6,290.8 113.9,309 			"/>
		</g>
		<g id="_Group_2" class="st3">
			<g class="st1">
				<path class="st2" d="M454.9,353H321c-6.4,0-11.6-5.2-11.6-11.6V240.2c0-6.4,5.2-11.6,11.6-11.6h133.9c6.4,0,11.6,5.2,11.6,11.6
					v101.1C466.5,347.8,461.3,353,454.9,353L454.9,353z M321,238.4c-1,0-1.8,0.8-1.8,1.8v101.1c0,1,0.8,1.8,1.8,1.8h133.9
					c1,0,1.8-0.8,1.8-1.8V240.2c0-1-0.8-1.8-1.8-1.8H321z"/>
			</g>
			<polygon class="st2" points="367.7,272.6 421,290.8 367.7,309 			"/>
		</g>
		<g id="_Group_3" class="st1">
			<g class="st1">
				<path class="st2" d="M296.2,353.2H185c-3.8,0-6.9-3.1-6.9-6.9V236.2c0-3.8,3.1-6.9,6.9-6.9h111.2c3.8,0,6.9,3.1,6.9,6.9v110.1
					C303.1,350.1,300,353.2,296.2,353.2z M187.9,343.4h105.4V239.1H187.9V343.4z"/>
			</g>
		</g>
		<g class="st4">
			<polygon id="_Path_" class="st5" points="432.7,192.1 386.3,223.8 347.6,227.1 321.1,229.9 319.6,193.5 314.8,150.1 306,139.8 
				328,119.7 356.7,99.5 368,140.8 427.2,138.9 			"/>
			<g id="_Group_4" class="st6">
				<polygon id="_Path_2" class="st7" points="420.4,192.5 336,243.2 334,243.1 322.2,242.4 316.9,244.2 308.1,244.7 318.4,201.3 
					316.2,186.1 302.5,150.6 293.7,140.2 315.7,120.1 344.4,99.9 				"/>
				<polygon id="_Path_3" class="st7" points="416.7,188.3 376.4,211.4 360.7,208.2 341.1,200.6 337.7,185.7 301.8,172.4 
					327.6,148.8 315.9,144.4 345.8,101.6 406.3,150.2 				"/>
			</g>
			<polygon id="_Path_4" class="st8" points="420.4,192.5 374,224.2 342.9,217.8 308.8,230.3 307.4,193.9 302.5,150.6 293.7,140.2 
				315.7,120.1 344.4,99.9 372.8,98.5 414.9,139.4 			"/>
			<polygon id="_Path_5" class="st9" points="420.4,192.5 341.1,200.6 316.2,186.1 291.3,154.2 293.7,140.2 315.7,120.1 344.4,99.9 
				378.5,109.8 400.2,142.4 427.6,163.6 			"/>
			<polygon id="_Path_6" class="st10" points="413.7,179.9 347.7,188.9 311.3,182.4 322.2,133.6 323.1,123 329.8,115.7 348.2,104.3 
				375.1,112.6 394.5,140.1 417.2,158 			"/>
		</g>
		<path class="st11" d="M427.2,138.9l-59.2,1.9l5.6-41.5l-0.8-0.8l-28.4,1.4l-28.7,20.2l-22,20.1l-2.4,14l12.7,16.2l-2.1,2l3.1,0.3
			l0.6,5.4c-20.2,37.9-31.4,62.1-72,117.6L215.1,277l-13.3,1.4l-0.9-0.9l-32.6,3.5l-52,4.6l-62.9,49.7l-2.8,16.1l15.6,20l12.8,56
			l12.3,4.9l0.6,3.7l25.5,23.7l10.2-0.5l6.2-2.1l13.6,0.9h2.3l37.6-24.7l12.8,0.9c4.9-3.1,9.8-6.4,14.6-9.8l1.9-0.2l53.6-36.6
			l-1-9.6c39.6-39.5,51.2-47.5,78.7-93.4c45.6-53,64.5-74,64.5-74l-0.8-4.1l21-14.4L427.2,138.9z"/>
		<g class="st4">
			<polygon id="_Path_7" class="st5" points="268.2,379.3 214.6,415.9 169.9,419.8 130.4,434.2 91.2,418.5 75.5,338.4 65.4,326.4 
				138.4,306.7 180.3,272.1 213,268.7 261.9,317.8 			"/>
			<g id="_Group_5" class="st6">
				<polygon id="_Path_8" class="st7" points="254,379.8 147.7,449.6 145.4,449.6 131.7,448.7 125.5,450.8 115.3,451.3 89.8,427.6 
					87.2,409.9 61.3,338.9 51.2,326.9 124.2,307.2 166.1,272.6 				"/>
				<polygon id="_Path_9" class="st7" points="249.8,375 203.1,401.6 185,398 153.6,400.4 158.4,371.9 98.1,337.7 138,340.5 
					114.4,305.3 167.7,274.6 237.7,330.9 				"/>
			</g>
			<polygon id="_Path_10" class="st8" points="254,379.8 200.4,416.4 155.6,420.3 116.2,434.7 77,419 61.3,338.9 51.2,326.9 
				124.2,307.2 155.7,262.7 222.1,221.4 290.2,188.9 			"/>
			<polygon id="_Path_11" class="st9" points="254,379.8 143.6,370.4 77.2,379.9 48.5,343.1 51.2,326.9 124.2,307.2 155.7,262.7 
				205.3,282.2 230.6,321.8 262.3,346.3 			"/>
			<polygon id="_Path_12" class="st10" points="246.3,365.2 169.9,375.5 109.1,349.2 84.2,319.2 85.2,307 140.5,302.1 170.5,277.8 
				201.6,287.3 224.1,319.2 250.4,339.9 			"/>
		</g>
		<g class="st12">
			<path class="st13" d="M78.3,377.9L60,346.6c0.2,0,105.3-53.1,144-102.8c34.6-44.3,32.9-42.1,55.8-73.1
				c43.7-59.3,27.2-36.9,65-63.8l46,30.9l38.8,11.7l-21.8,38.7c-20.4,14.5-34.5,34.3-70.5,83.1c-21,28.5,15.7-10-18.3,33.7
				c-74.6,95.6-39.5,81.8-114.1,116L78.3,377.9z"/>
		</g>
		<g class="st4">
			<path class="st13" d="M107.5,442.2L60,346.6l123-64.5l39.2-60.8l36.1,4.9c0,0,28.8-92.5,66.5-119.4l46,31l13.9,66.3
				c-20.4,14.5-2.1,11.5-38,60.3c-21,28.5-16.7,12.8-50.8,56.5C221.2,416.5,114.1,443.1,107.5,442.2z"/>
		</g>
		<path class="st14" d="M337.1,139.3c0,0-8.4,1.9-37.5,36.9s-53,111.5-125.4,166.6s-96.5,3.9-96.5,3.9l32.1,85.9l58.6-21.6
			c0,0,62.6-46.9,159.1-159.9c48-56.2,60.3-40.3,60.3-40.3l9.8-58.9L337.1,139.3z"/>
		<path class="st15" d="M75.8,306.7c0,0,144.2,125.4,234.2-76.3l60.7-92.6l49.6,54.7c0,0-154.3,173.1-235.3,228.5L60,346.6
			L75.8,306.7z"/>
		<path class="st5" d="M75.8,306.7l125.1-29.2l26.5-56.2l143.4-83.6l35.8,55.9c0,0-140.5,171.9-221.5,227.3L60,346.6L75.8,306.7z"/>
		<path class="st15" d="M304.5,132.4c0,0-74.9,157.2-139.4,201.1S86,375.8,86,375.8l100.7,36.6c77.1-48.9,106.3-53.2,149.6-129.9
			s-34.5-111.1,73.2-133C409.6,149.5,350.1,73.1,304.5,132.4z"/>
		<path class="st16" d="M120.9,407.6l10.6-76.4l78.9,8.4l30.5-96.8l49.5,26.1l11.4-54.6l44.6-11.4l-21.5-96l63,104l-70.3,60.5
			L254,379.8c0,0-2.6-49.6-2.6-45s-40.6,69-40.6,69l-40.6,21.5L120.9,407.6z"/>
		<path class="st7" d="M185,421l36.4-88.3l15.6-65.9l101.4-12.3l-35.3-26.9l39.3-8.4l45.4-31l-30.1-27.6l-33-53.8l-16.5,61.9
			l-55.6,39c0,0-25.7,13.3-30.5,13.6c-2.9,0.2-51.4,70.3-51.4,70.3l-58-0.4l-37,15.5L60,346.6l26,29.2l23.7,56.8L185,421z"/>
		<g class="st17">
			<circle class="st18" cx="319.2" cy="211.1" r="17.5"/>
			<path class="st18" d="M330.2,206.3c0-3.4-2.8-6.2-6.2-6.2c-1.2,0-2.4,0.3-3.4,1v-7.5c-0.5,0-0.9-0.1-1.4-0.1s-0.9,0-1.4,0.1v7.5
				c-2.9-1.9-6.7-1-8.5,1.8c-1.3,2-1.3,4.7,0,6.7h-7.5c0,0.5-0.1,0.9-0.1,1.4s0,0.9,0.1,1.4h12.7l-0.4,0.5c-1.5,1.7-3,3.3-5.1,3.3
				v2.8c3.3,0,5.5-2.3,7.2-4.2c0.5-0.6,1.1-1.2,1.7-1.7v15.3c0.5,0,0.9,0.1,1.4,0.1s0.9,0,1.4-0.1v-15.3c0.6,0.5,1.2,1.1,1.7,1.7
				c1.7,1.9,3.9,4.2,7.2,4.2v-2.8c-2.1,0-3.5-1.6-5.1-3.3l-0.4-0.5h12.7c0-0.5,0.1-0.9,0.1-1.4s0-0.9-0.1-1.4h-7.5
				C329.8,208.7,330.2,207.5,330.2,206.3z M314.5,209.7c-1.9,0-3.4-1.5-3.4-3.4s1.5-3.4,3.4-3.4s3.4,1.5,3.4,3.4l0,0v3.4H314.5z
				 M324,209.7h-3.4v-3.4c0-1.9,1.5-3.4,3.4-3.4s3.4,1.5,3.4,3.4S325.9,209.7,324,209.7L324,209.7z"/>
		</g>
		<circle class="st19" cx="310.2" cy="212.1" r="17.5"/>
		<path class="st20" d="M321.2,207.3c0-3.4-2.8-6.2-6.2-6.2c-1.2,0-2.4,0.3-3.4,1v-7.5c-0.5,0-0.9-0.1-1.4-0.1s-0.9,0-1.4,0.1v7.5
			c-2.9-1.9-6.7-1-8.5,1.8c-1.3,2-1.3,4.7,0,6.7h-7.5c0,0.5-0.1,0.9-0.1,1.4s0,0.9,0.1,1.4h12.7l-0.4,0.5c-1.5,1.7-3,3.3-5.1,3.3
			v2.8c3.3,0,5.5-2.3,7.2-4.2c0.5-0.6,1.1-1.2,1.7-1.7v15.3c0.5,0,0.9,0.1,1.4,0.1s0.9,0,1.4-0.1v-15.3c0.6,0.5,1.2,1.1,1.7,1.7
			c1.7,1.9,3.9,4.2,7.2,4.2v-2.8c-2.1,0-3.5-1.6-5.1-3.3l-0.4-0.5h12.7c0-0.5,0.1-0.9,0.1-1.4s0-0.9-0.1-1.4h-7.5
			C320.8,209.7,321.2,208.5,321.2,207.3z M305.5,210.7c-1.9,0-3.4-1.5-3.4-3.4s1.5-3.4,3.4-3.4s3.4,1.5,3.4,3.4l0,0v3.4H305.5z
			 M315,210.7h-3.4v-3.4c0-1.9,1.5-3.4,3.4-3.4s3.4,1.5,3.4,3.4S316.9,210.7,315,210.7L315,210.7z"/>
		<polygon class="st18" points="185.8,328.5 187.7,326 184.9,327.5 182.3,325.6 183.9,328.4 182,331 184.8,329.4 187.3,331.3 		"/>
		<polygon class="st18" points="182,335.8 182.9,334.6 181.6,335.3 180.4,334.5 181.2,335.8 180.3,336.9 181.6,336.2 182.7,337.1 		
			"/>
		<polygon class="st18" points="174.4,342 176.3,339.4 173.5,341 171,339.1 172.5,341.9 170.6,344.4 173.4,342.9 175.9,344.8 		"/>
		<polygon class="st18" points="196,345.5 194,344 195.2,346.2 193.7,348.3 195.9,347 198,348.5 196.7,346.3 198.3,344.2 		"/>
		<polygon class="st18" points="163.9,351.3 162.9,350.5 163.5,351.7 162.7,352.8 163.9,352.1 164.9,352.9 164.3,351.7 165.1,350.6 
					"/>
		<polygon class="st18" points="155.5,358.8 157,361.6 155.1,364.1 157.9,362.5 160.4,364.4 158.8,361.7 160.7,359.2 158,360.7 		
			"/>
		<polygon class="st18" points="165.9,341.6 166.8,342.3 166.2,341.3 166.9,340.4 165.9,341 165,340.3 165.6,341.3 164.9,342.2 		
			"/>
		<polygon class="st18" points="183.4,358.9 182.6,358.3 183.1,359.2 182.4,360.1 183.4,359.6 184.3,360.2 183.8,359.3 184.4,358.4 
					"/>
		<polygon class="st18" points="158.4,371.6 156.6,370.3 157.7,372.2 156.4,374 158.4,372.9 160.2,374.3 159.1,372.3 160.4,370.5 		
			"/>
		<polygon class="st18" points="145.1,375.2 143.9,374.3 144.6,375.6 143.7,376.8 145.1,376.1 146.3,377 145.5,375.6 146.4,374.4 		
			"/>
		<polygon class="st18" points="171.2,366 170.1,365.2 170.8,366.3 170,367.4 171.1,366.7 172.2,367.5 171.6,366.4 172.3,365.3 		
			"/>
		<polygon class="st18" points="170.6,350.8 171.8,351.7 171.1,350.3 172,349.1 170.6,349.9 169.4,348.9 170.2,350.3 169.2,351.5 		
			"/>
		<polygon class="st18" points="188.8,351.6 185.9,349.6 187.6,352.6 185.6,355.4 188.6,353.7 191.4,355.8 189.7,352.7 191.8,349.9 
					"/>
		<polygon class="st18" points="176.7,358.6 176,358 176.4,358.8 175.9,359.6 176.7,359.1 177.4,359.7 177,358.9 177.5,358.1 		"/>
		<polygon class="st18" points="167.5,359.4 165.5,357.9 166.7,360.1 165.2,362.1 167.4,360.9 169.4,362.4 168.2,360.2 169.7,358.2 
					"/>
		<path class="st18" d="M282.1,263.3c-0.2-0.3-0.6-0.4-1-0.3l-11.7,4c-2.3-1.8-5.1-2.9-8-3.1c-9.4-6.4-22.2-4-28.6,5.4
			c-1.3,1.9-2.3,4-2.9,6.2l-25,5.9c0,0,1.9,4.1,9.7,6.3c-9.5,7.8-16.2,14.5-16.2,14.5l7.8,7.9l-7.1,3.2l1.1,9.1l9.1,0.5l2.3-6.1
			l-0.4,5.3l6.3-0.7l1.2,1.2l-9.6,4.4l1.4,11.7l11.8,0.7l3.6-9.5l2,2l0,0l7.8,7.9l0,0l0.2-0.2l0,0l0.1-0.1l0.1-0.1l0.2-0.2l0.1-0.1
			l0.2-0.2l0.2-0.2l0.2-0.2l0.2-0.2l0.3-0.3l0.2-0.2l0.3-0.3l0.3-0.3l0.3-0.3l0.3-0.3l0.3-0.3l0.3-0.4l0.3-0.3l0.4-0.4l0.3-0.4
			l0.4-0.4l0.4-0.4l0.4-0.4l0.4-0.4l0.4-0.5l0.4-0.5l0.4-0.5l0.4-0.5l0.4-0.5l0.5-0.5l0.4-0.5l0.5-0.5l0.5-0.5l0.5-0.6l0.2-0.3
			c1.7,10.9,7,13.4,7,13.4L262,308c7.7-11.4,13.7-23.7,12.1-32.8l8-10.8C282.4,264,282.4,263.6,282.1,263.3z"/>
		<g class="st4">
			<polygon class="st21" points="180.7,323 178.8,325.5 180.3,328.3 177.8,326.4 175,328 176.9,325.4 175.3,322.6 177.9,324.5 			
				"/>
		</g>
		<g class="st4">
			<polygon class="st21" points="175.9,331.6 175,332.8 175.7,334.1 174.6,333.2 173.3,333.9 174.2,332.8 173.4,331.5 174.6,332.3 
							"/>
		</g>
		<g class="st4">
			<polygon class="st21" points="169.3,336.4 167.4,339 168.9,341.8 166.4,339.9 163.6,341.4 165.5,338.9 164,336.1 166.5,338 			
				"/>
		</g>
		<g class="st4">
			<polygon class="st21" points="191.3,341.2 189.7,343.3 191,345.5 188.9,344 186.7,345.3 188.2,343.2 187,341 189,342.5 			"/>
		</g>
		<g class="st4">
			<polygon class="st21" points="158.1,347.6 157.3,348.7 157.9,349.9 156.9,349.1 155.7,349.8 156.5,348.7 155.9,347.5 
				156.9,348.3 			"/>
		</g>
		<g class="st4">
			<polygon class="st21" points="153.7,356.2 151.8,358.7 153.4,361.4 150.9,359.5 148.1,361.1 150,358.6 148.5,355.8 151,357.7 			
				"/>
		</g>
		<g class="st4">
			<polygon class="st21" points="159.9,337.4 159.2,338.3 159.8,339.3 158.9,338.6 157.9,339.2 158.6,338.3 158,337.3 158.9,338 			
				"/>
		</g>
		<g class="st4">
			<polygon class="st21" points="177.4,355.4 176.8,356.3 177.3,357.2 176.4,356.6 175.4,357.1 176.1,356.2 175.6,355.3 
				176.4,355.9 			"/>
		</g>
		<g class="st4">
			<polygon class="st21" points="153.4,367.5 152.1,369.3 153.2,371.3 151.4,369.9 149.4,371 150.7,369.2 149.6,367.3 151.4,368.6 
							"/>
		</g>
		<g class="st4">
			<polygon class="st21" points="139.4,371.4 138.5,372.6 139.3,374 138.1,373.1 136.7,373.8 137.6,372.6 136.9,371.3 138.1,372.2 
							"/>
		</g>
		<g class="st4">
			<polygon class="st21" points="165.3,362.3 164.6,363.4 165.2,364.5 164.1,363.7 163,364.4 163.8,363.3 163.1,362.2 164.2,363 			
				"/>
		</g>
		<g class="st4">
			<polygon class="st21" points="165,346.1 164.1,347.3 164.8,348.7 163.6,347.8 162.2,348.5 163.2,347.3 162.4,345.9 163.6,346.9 
							"/>
		</g>
		<g class="st4">
			<polygon class="st21" points="184.8,346.9 182.7,349.7 184.4,352.8 181.6,350.7 178.6,352.4 180.6,349.6 178.9,346.6 
				181.8,348.6 			"/>
		</g>
		<g class="st4">
			<polygon class="st21" points="170.5,355.1 170,355.9 170.4,356.7 169.7,356.1 168.9,356.6 169.4,355.8 169,355 169.7,355.6 			
				"/>
		</g>
		<g class="st4">
			<polygon class="st21" points="162.7,355.2 161.2,357.2 162.4,359.4 160.4,357.9 158.2,359.1 159.7,357.1 158.5,354.9 
				160.5,356.4 			"/>
		</g>
		<g id="_Group_6">
			<polygon class="st22" points="204.3,319.1 205.3,306 216.9,317.7 			"/>
			<path class="st23" d="M263.7,275.3l10.7-14.5l-17,5.9C257.4,266.7,255.6,273.3,263.7,275.3z"/>
			<polygon class="st24" points="200.6,306.5 192.2,310.3 193.2,319.4 202.4,319.9 205.6,311.3 			"/>
			<polygon class="st24" points="200.6,306.5 192.2,310.3 193.2,319.4 202.4,319.9 205.6,311.3 			"/>
			<polygon class="st24" points="212.9,319.1 202.1,323.9 203.5,335.6 215.3,336.3 219.5,325.3 			"/>
			<polygon class="st24" points="212.9,319.1 202.1,323.9 203.5,335.6 215.3,336.3 219.5,325.3 			"/>
			<path class="st22" d="M238.8,268.7l-40.8,9.6c0,0,6.1,13.4,42,4.9L238.8,268.7z"/>
			
				<use xlink:href="#body-2"  width="148" height="210.7" id="body-4" x="-74" y="-105.3" transform="matrix(0.2538 0.2554 -0.2554 0.2538 236.6763 291.8329)" style="overflow:visible;"/>
			<path class="st25" d="M220.9,329.7l7.8,7.9c8.4-8.5,16.2-17.7,23.3-27.4l1-1.5c2.1-2.9,0.3-5.6-2.4-3.7
				C240.1,312.4,230.2,320.7,220.9,329.7z"/>
			
				<ellipse transform="matrix(0.7093 -0.7049 0.7049 0.7093 -125.3226 251.9124)" class="st25" cx="242.8" cy="277.9" rx="20.6" ry="20.6"/>
			<path class="st26" d="M234.9,264.6c-7,3.8-18.8,26.5-18.8,26.5s25.4,2.7,32.4-1.1c7-3.8,9.6-12.5,5.9-19.5
				C250.6,263.5,241.9,260.9,234.9,264.6L234.9,264.6z"/>
			<path class="st27" d="M248.5,289.9c-5.4,2.9-21.9,2-29.1,1.4c4.6-6.6,16.8-23.7,23.9-27.6c0.4-0.2,0.8-0.4,1.2-0.6
				c7.8,1.6,12.8,9.3,11.2,17C254.9,284.3,252.2,287.9,248.5,289.9L248.5,289.9z"/>
			
				<ellipse transform="matrix(0.8808 -0.4735 0.4735 0.8808 -112.6054 136.4558)" class="st25" cx="214.7" cy="291.9" rx="5.2" ry="5.2"/>
			<path class="st0" d="M239.6,312.9c-1.4,20.8,7.4,24.9,7.4,24.9l9.9-40.8C256.9,297,243.8,302.1,239.6,312.9"/>
		</g>
	</g>
</g>
</svg>
