<svg xmlns="http://www.w3.org/2000/svg" width="522" height="522" viewBox="0 0 522 522"><circle cx="261" cy="261" r="261" fill="none"/><path stroke="#424242" stroke-width="1.001" stroke-miterlimit="10" fill="none" d="M60.14 164.072L37.156 149.79l-15.653 7.523m252.6-21.473l-20.05 10.427-13.557-4.008-4.268 2.21m254.969-6.837l-9.474 5.632-27.6-11.143-15.537 8.953-21.902-8.416-10.705-9.063-20.165-2.52-11.883-9.66-43.43 17.54-13.865 6.82-23.843-3.117-4.704-3.703-6.034 3.07"/><g stroke="#424242" stroke-miterlimit="10" fill="none"><path d="M379.5 340v115.5h-18V340"/><path stroke-width="1.001" d="M418.642 236.24l-48.034-107.833-45.245 101.74"/><path d="M352 340.5h48m-12.683-93c0 6 4.424 9.892 9.89 9.892 5.465 0 9.893-3.892 9.893-9.892h-19.783z"/><path d="M367.534 247.5c0 6 4.426 9.892 9.892 9.892 5.46 0 9.892-3.892 9.892-9.892h-19.784zm11.408 58c0 6 4.424 9.892 9.89 9.892 5.465 0 9.893-3.892 9.893-9.892h-19.783zm-19.784 0c0 6 4.426 9.892 9.892 9.892 5.46 0 9.892-3.892 9.892-9.892h-19.784zm4.392-109c0 6 4.424 9.892 9.89 9.892 5.465 0 9.893-3.892 9.893-9.892H363.55zm-19.783 0c0 6 4.426 9.892 9.892 9.892 5.46 0 9.89-3.892 9.89-9.892h-19.783z"/></g><g stroke="#424242" stroke-miterlimit="10" fill="none"><path d="M271.5 456v-54m23 0v54m-80.905-87.516L204.36 402.5h148.662l-15.754-58h15.754l-15.238-52h15.238l-47.09-105.775"/><path stroke-width="1.001" d="M300.853 175.296L278.69 125.54l-27.567 61.505"/></g><g stroke="#424242" stroke-miterlimit="10" fill="none"><path d="M78.5 447.5V383m23 0v73"/><path stroke-width="1.001" d="M117.657 178.082l-31.88-71.567L52.7 180.827"/><path d="M30.483 383.5H160.11l-4.076-14.974M48.05 191.268L11.448 273.5h15.238l-15.238 52H27.2l-8.704 32.048"/></g><path d="M290.88 175.5c0 6 5.297 11.84 11.84 11.84s11.844-5.84 11.844-11.84H290.88zm-23.682 0c0 6 5.298 11.84 11.84 11.84 6.537 0 11.842-5.84 11.842-11.84h-23.682zm27.582 77c0 6 5.296 11.84 11.84 11.84 6.542 0 11.843-5.84 11.843-11.84H294.78zm-23.682 0c0 6 5.298 11.84 11.84 11.84 6.537 0 11.842-5.84 11.842-11.84h-23.682zm35.524 121c0 6 5.296 11.84 11.84 11.84 6.542 0 11.843-5.84 11.843-11.84h-23.683zm-23.682 0c0 6 5.297 11.84 11.84 11.84 6.536 0 11.84-5.84 11.84-11.84h-23.68z" stroke="#424242" stroke-miterlimit="10" fill="none"/><path stroke="#424242" stroke-width="1.001" stroke-miterlimit="10" d="M276.232 86.61c-9.56-5.843-16.537-16.73-16.537-28.757 0-18.373 14.894-33.266 33.266-33.266 15.69 0 28.483 9.494 31.99 24.107" fill="none"/><path stroke="#424242" stroke-miterlimit="10" d="M287.96 79.5h1.64c.027 0-.1-.088-.1-.114v-5.75c0-9.296 7.678-17.28 16.973-17.177 2.798.03 5.275.754 7.314 2.008.024.015.073.005.084-.02 2.58-6.25 9.067-10.596 16.305-10.333 9.067.33 16.326 8.122 16.326 17.195v5.495c0 .02-.214.038-.195.044a17.722 17.722 0 0 1 12.386 16.94c0 3.896-1.313 7.627-3.443 10.556-.01.013-.08.154-.097.154H276.71c-1.18-2-1.803-4.536-1.66-7.095.38-6.7 6.202-11.905 12.912-11.905zm-201.002 376h347.998M173.5 456v-88m19 0v88M174.956 14.408L103.584 218.5h16.244l-16.244 69h16.795l-16.796 81H262.06l-16.793-81h16.794l-16.243-69h16.244L217.41 91.968m-2.697-8.951L189.176 10.06" fill="none"/><path d="M155.13 290.5c0 8 6.144 13.735 13.734 13.735 7.588 0 13.737-5.735 13.737-13.735h-27.47zm-27.47 0c0 8 6.145 13.735 13.735 13.735 7.58 0 13.735-5.735 13.735-13.735h-27.47zm-79.144 63c0 8 6.143 13.735 13.733 13.735 7.587 0 13.736-5.735 13.736-13.735h-27.47z" stroke="#424242" stroke-miterlimit="10" fill="none"/><path stroke="#424242" stroke-miterlimit="10" d="M21.046 353.5c0 8 6.145 13.735 13.735 13.735 7.582 0 13.736-5.735 13.736-13.735h-27.47zm57.391-102c0 7 6.143 13.735 13.733 13.735 7.588 0 13.737-6.735 13.737-13.735h-27.47zm-27.471 0c0 7 6.145 13.735 13.735 13.735 7.582 0 13.736-6.735 13.736-13.735h-27.47zm19.514-71c0 8 6.143 13.735 13.733 13.735 7.588 0 13.737-5.735 13.737-13.735H70.48zm-27.47 0c0 8 6.145 13.735 13.735 13.735 7.58 0 13.735-5.735 13.735-13.735H43.01zm130.77 29.856c.245 6.442 7 11.946 13.718 11.946 7.588 0 13.804-5.802 13.804-13.802H192m-37 0h-8.64c0 8 6.146 13.868 13.736 13.868 7.17 0 13-5.063 13.616-12.08M193.176 83.5c0 7 6.143 13.735 13.733 13.735 7.587 0 13.736-6.735 13.736-13.735h-27.47z" fill="none"/><path stroke="#424242" stroke-miterlimit="10" d="M165.706 83.5c0 7 6.145 13.735 13.735 13.735 7.582 0 13.736-6.735 13.736-13.735h-27.47zm18.679 127H154.5v-48.934c0-10.37 8.704-19.066 19.074-19.066h10.81c10.37 0 19.116 8.696 19.116 19.066v30.156c0 10.37-8.745 18.778-19.115 18.778z" fill="none"/><circle stroke="#424242" stroke-width="1.001" stroke-miterlimit="10" cx="168.995" cy="159.967" r="4.836" fill="none"/><path stroke="#424242" stroke-miterlimit="10" d="M164.803 177.5c0 3-2.165 4.836-4.836 4.836s-4.836-1.836-4.836-4.836h9.673zm10.317 0c0 3-2.164 4.836-4.835 4.836-2.67 0-4.836-1.836-4.836-4.836h9.67zm10.318 0c0 3-2.165 4.836-4.836 4.836s-4.836-1.836-4.836-4.836h9.672zm-15.476 6c0 4-2.165 4.836-4.836 4.836-2.67 0-4.836-.836-4.836-4.836h9.672zm-10.318 0c0 4-2.165 4.836-4.836 4.836l-.014-4.836h4.85zm0 14c0 2-2.165 4.836-4.836 4.836l-.014-4.836h4.85zm15.476-7c0 2-2.164 4.836-4.835 4.836-2.67 0-4.836-2.836-4.836-4.836h9.67zm-10.317 0c0 2-2.165 4.836-4.836 4.836s-4.836-2.836-4.836-4.836h9.673zm15.477-7c0 4-2.166 4.836-4.837 4.836s-4.836-.836-4.836-4.836h9.672z" fill="none"/><circle stroke="#424242" stroke-width="1.001" stroke-miterlimit="10" cx="188.34" cy="159.967" r="4.836" fill="none"/><path fill="#424242" d="M174.92 161h7.876l-3.937 9.74z"/><path d="M433.5 456v-55m32 0v22.02m30.17-47.59l-5.39-24.93h11.026l-10.663-49h10.663l-23.236-70.935m-2.624-7.985l-26.158-79.76-52.02 158.68h10.665l-10.664 49h11.024l-11.025 51h83.628" stroke="#424242" stroke-miterlimit="10" fill="none"/><g stroke="#424242" stroke-miterlimit="10" fill="none"><path d="M462.306 222.5c0 6 4.424 9.892 9.89 9.892 5.465 0 9.893-3.892 9.893-9.892h-19.784z"/><path d="M442.523 222.5c0 6 4.426 9.892 9.892 9.892 5.46 0 9.892-3.892 9.892-9.892h-19.784z"/></g><path d="M427.605 364.5c0 5 4.424 9.892 9.89 9.892 5.465 0 9.893-4.892 9.893-9.892h-19.783zm-19.785 0c0 5 4.427 9.892 9.893 9.892 5.46 0 9.892-4.892 9.892-9.892H407.82z" stroke="#424242" stroke-miterlimit="10" fill="none"/><g stroke="#424242" stroke-miterlimit="10" fill="none"><path d="M469.07 306.5c0 6 4.425 9.892 9.89 9.892 5.466 0 9.894-3.892 9.894-9.892H469.07z"/><path d="M449.288 306.5c0 6 4.426 9.892 9.892 9.892 5.46 0 9.892-3.892 9.892-9.892h-19.784z"/></g></svg>