<svg xmlns="http://www.w3.org/2000/svg" width="522" height="522" viewBox="0 0 522 522"><g fill="none"><circle cx="261" cy="261" r="261"/><g stroke="#000" stroke-width="1.001" stroke-miterlimit="10"><path d="M435.633 300.07l-11.69-9.735c-1.398-1.164-1.003-3.407.71-4.023l15.843-5.7c1.853-.668 2.117-3.18.443-4.216l-14.398-8.924c-1.546-.96-1.467-3.234.143-4.083l14.896-7.852c1.743-.918 1.655-3.44-.147-4.236l-15.5-6.833c-1.664-.735-1.902-3-.426-4.064l13.66-9.848c1.596-1.15 1.158-3.638-.737-4.174l-16.3-4.61c-1.75-.494-2.3-2.704-.987-3.963l12.155-11.652c1.42-1.363.64-3.764-1.31-4.03l-16.782-2.297c-1.803-.246-2.656-2.357-1.53-3.787l10.415-13.23c1.22-1.548.112-3.818-1.857-3.81l-16.938.062c-1.82.007-2.958-1.965-2.043-3.538l8.473-14.552c.99-1.702-.42-3.795-2.37-3.514l-16.765 2.42c-1.8.26-3.203-1.535-2.515-3.22l6.365-15.588c.744-1.823-.945-3.7-2.836-3.15l-16.265 4.728c-1.748.508-3.386-1.074-2.94-2.838l4.133-16.324c.483-1.91-1.45-3.532-3.247-2.724l-15.45 6.946c-1.658.746-3.5-.592-3.304-2.4l1.82-16.74c.214-1.958-1.927-3.296-3.593-2.247l-14.333 9.028c-1.54.97-3.55-.098-3.607-1.917l-.526-16.83c-.062-1.97-2.368-2.996-3.872-1.725l-12.936 10.935c-1.39 1.175-3.53.396-3.84-1.397l-2.862-16.593c-.335-1.94-2.762-2.636-4.074-1.168l-11.288 12.63c-1.212 1.356-3.44.882-3.996-.85l-5.145-16.033c-.6-1.875-3.1-2.226-4.196-.59l-9.42 14.077c-1.013 1.51-3.285 1.352-4.076-.286l-7.326-15.16c-.857-1.774-3.382-1.774-4.238 0l-7.37 15.25c-.792 1.638-3.063 1.797-4.075.285l-9.366-13.995c-1.095-1.636-3.595-1.285-4.197.59l-5.175 16.128c-.556 1.732-2.783 2.206-3.996.85l-11.222-12.556c-1.312-1.468-3.74-.772-4.074 1.168l-2.88 16.692c-.31 1.793-2.45 2.572-3.84 1.397l-12.86-10.87c-1.503-1.272-3.81-.245-3.87 1.723l-.53 16.93c-.057 1.82-2.067 2.888-3.607 1.918l-14.247-8.975c-1.666-1.05-3.807.29-3.594 2.246l1.832 16.84c.197 1.808-1.645 3.146-3.305 2.4l-15.36-6.905c-1.795-.806-3.73.817-3.246 2.725l4.158 16.42c.447 1.764-1.19 3.346-2.94 2.838l-16.168-4.7c-1.89-.55-3.58 1.327-2.836 3.15l6.403 15.682c.69 1.684-.713 3.48-2.514 3.22l-16.666-2.405c-1.95-.28-3.36 1.812-2.37 3.514l8.523 14.638c.915 1.572-.223 3.544-2.043 3.538l-16.84-.062c-1.968-.007-3.075 2.262-1.857 3.81l10.477 13.31c1.125 1.43.272 3.54-1.53 3.787l-16.683 2.283c-1.95.267-2.73 2.668-1.31 4.03l12.227 11.723c1.313 1.26.763 3.47-.988 3.965l-16.203 4.582c-1.895.536-2.333 3.022-.736 4.174l13.74 9.907c1.476 1.064 1.238 3.33-.427 4.063l-15.408 6.793c-1.802.794-1.89 3.318-.148 4.236l14.985 7.896c1.61.848 1.688 3.124.142 4.083l-14.313 8.87c-1.675 1.037-1.41 3.548.442 4.215L99.1 287.58c1.712.616 2.107 2.86.71 4.023L86.87 302.38c-1.513 1.26-.902 3.71 1.025 4.112l16.58 3.46c1.782.373 2.486 2.54 1.263 3.886L94.425 326.31c-1.323 1.458-.377 3.8 1.588 3.93l16.9 1.12c1.816.12 2.815 2.167 1.792 3.672l-9.467 13.925c-1.107 1.628.156 3.815 2.12 3.67l16.892-1.243c1.815-.134 3.088 1.754 2.284 3.387l-7.437 15.108c-.87 1.766.685 3.756 2.61 3.34l16.554-3.582c1.78-.385 3.303 1.307 2.734 3.036l-5.262 15.995c-.615 1.87 1.2 3.624 3.05 2.944l15.895-5.85c1.707-.63 3.452.835 3.13 2.626l-2.985 16.572c-.35 1.938 1.694 3.422 3.43 2.49l14.926-8.006c1.603-.86 3.535.347 3.464 2.165l-.65 16.826c-.075 1.967 2.155 3.153 3.743 1.99l13.667-10.006c1.468-1.075 3.548-.15 3.732 1.662l1.7 16.752c.198 1.96 2.57 2.822 3.982 1.45l12.142-11.81c1.304-1.27 3.493-.642 3.927 1.125l4.014 16.353c.468 1.912 2.938 2.437 4.145.88l10.38-13.385c1.115-1.438 3.37-1.12 4.045.57l6.25 15.634c.732 1.827 3.25 2.003 4.23.295l8.415-14.7c.904-1.58 3.18-1.58 4.085 0l6.832 11.933"/><path d="M285.74 409.066c-14.515 2.335-29.62 2.567-44.94.414-82.378-11.578-139.775-87.745-128.197-170.124S200.348 99.58 282.727 111.158s139.776 87.745 128.198 170.124a152.417 152.417 0 0 1-3.294 16.66"/><circle cx="217.853" cy="214.027" r="11.015"/><circle cx="302.779" cy="214.027" r="11.015"/></g><path stroke="#000" stroke-width="1.001" stroke-miterlimit="10" d="M414.948 472.022H277.644a51.996 51.996 0 0 1-7.006-26.14c0-28.87 23.403-52.28 52.28-52.28h8.715v-26.14c0-38.495 31.21-69.706 69.708-69.706 12.09 0 22.6 3.08 31.33 8.5 10.397-25.424 35.347-43.353 64.515-43.353 8.74 0 17.106 1.61 24.815 4.547M457.15 88.682h-92.723a18.78 18.78 0 0 1-2.53-9.44c0-10.428 8.453-18.883 18.882-18.883h3.147v-9.442c0-6.3 2.315-12.06 6.14-16.477M260.763 351.36c-24.242 0-47.007-9.393-64.102-26.45-17.127-17.09-26.56-39.895-26.56-64.21a8.012 8.012 0 0 1 16.022-.002c0 20.03 7.763 38.807 21.856 52.87 14.07 14.04 32.816 21.77 52.785 21.77s38.715-7.73 52.785-21.77c14.094-14.063 21.855-32.84 21.855-52.87a8.012 8.012 0 0 1 16.022 0c0 24.318-9.433 47.12-26.56 64.212-17.095 17.058-39.86 26.45-64.102 26.45zM13.553 177.466a28.19 28.19 0 0 1 7.59-1.035c15.567 0 28.19 12.623 28.19 28.19v10.166c12.178 3.8 21.14 15.166 21.14 28.596 0 6.59-2.13 12.67-5.738 17.618H0"/></g></svg>