<svg xmlns="http://www.w3.org/2000/svg" width="522" height="522" viewBox="0 0 522 522"><defs><clipPath id="a"><circle cx="261" cy="261" r="261" fill="none"/></clipPath></defs><title>color-guide--donors-choose-final</title><g clip-path="url(#a)" fill="none"><path d="M115.77 299.2zM120.17 385a5.38 5.38 0 0 0-8.77 0 9.8 9.8 0 0 1-8.61 4.61h26a9.8 9.8 0 0 1-8.62-4.61zM291.42 353.77l-10.61 11.58h20.55l6.85-15.7a22.59 22.59 0 0 1-10.43 4.21 22.11 22.11 0 0 1-6.36-.09zM569.35 389.59h-98.9a68 68 0 0 1-9.66 15.56 77.36 77.36 0 0 1-4.72 5.17h113.28z" stroke="#231f20" stroke-miterlimit="10"/><path d="M213.07 389.59h-245.2v20.73h245.4c-.38-4-.59-8.15-.59-12.55q0-4.17.39-8.18zM346.47 328.91h.23zM338.61 327.91l1.92.2zM335.68 327.64l1.82.16zM300 491.32h-53.58V498.8H300zM342.19 328.32l1.19.15zM337.27 498.8h52.37l.16.34v-7.82h-52.53zM352.25 330l.92.19zM349.59 329.44l.28.05zM332.84 327.42l.82.06zM470.45 389.59c4.22-9.3 7-20.44 8.3-33.72a26.7 26.7 0 0 1-33.36-1.34c-1.78 20.37-8.1 32.35-19.77 32.35-9.12 0-16.49-9-24.78-24-9.75-17.62-25.28-27.89-47.26-32.67a69.29 69.29 0 0 1 8.12 2.29c-.07.75-.18 2.61-.34 3.36a22.63 22.63 0 0 1-43.23 3.85 1.22 1.22 0 0 0-2.27 0 22.72 22.72 0 0 1-7.65 9.92l-6.85 15.7h58v26.37h8.16V418h6.72v26.34h-54.17a27.08 27.08 0 0 1 6.08 11.1h63.68v-42.81c8.09 7.64 19 13.24 34.24 13.24 11.86 0 22.91-6.42 32-15.56 1.64-1.65 3.22-3.37 4.72-5.17a68 68 0 0 0 9.66-15.55zM369.36 307.51a49.07 49.07 0 0 0 50.91 24.31 49 49 0 0 0-22.12-49.59 21.2 21.2 0 0 1-13.17 4 71.93 71.93 0 0 1-15.62 21.28zM385.28 224.95c2.85.81 4.58 1.39 4.58 1.39s.7.07.84 1.6v.49a7.19 7.19 0 0 1-2.07 5.16q.92 2.91 1.6 5.92l8-10.87a93.26 93.26 0 0 0-5.92-14.81H378.8a71.66 71.66 0 0 1 6.48 11.12zM255.5 286a24.05 24.05 0 0 1-12.4-1.5 48.78 48.78 0 0 0-18.87 47.32 49.11 49.11 0 0 0 48.61-20.61c.4-.39.82-.77 1.24-1.14A72 72 0 0 1 255.5 286z" stroke="#231f20" stroke-miterlimit="10"/><path d="M369.36 307.51a71.93 71.93 0 0 0 15.64-21.3 21.2 21.2 0 0 0 13.17-4c20.9-15.34 12-69.8 12-69.8l-11.92 16.21-8 10.87q-.67-3-1.6-5.92a8.06 8.06 0 0 1-1.6 1.29 5 5 0 0 0-2.14 2.55l-.14.36a6.51 6.51 0 0 0-.38 2.32c0 5.93-2.37 12-4.88 16.69a27.85 27.85 0 0 1-25.29 15.15h-.64a27.73 27.73 0 0 1-19-7.94 25.37 25.37 0 0 1-7.84-18.4v-8c0-2.14-2-3.87-4.75-3.87h-2.2c-2.75.73-5.61 1.38-8.54 2a3.39 3.39 0 0 0-.62 1.91v8a25.36 25.36 0 0 1-7.84 18.4 27.73 27.73 0 0 1-19 7.94h-.63a27.86 27.86 0 0 1-25.29-15.15c-2.51-4.72-4.89-10.76-4.88-16.69a6.82 6.82 0 0 0-.26-1.92h-.1a12.93 12.93 0 0 1-1.89-.63c-.46 1.81-.86 3.65-1.18 5.52l-22.55-30.62s-10 61 16 72.07a24.05 24.05 0 0 0 12.4 1.5 71.82 71.82 0 0 0 61.86 40.88h4a71.44 71.44 0 0 0 48.09-19.42zm-83.42-25.6h68.7a35.82 35.82 0 0 1-68.7 0z" stroke="#231f20" stroke-miterlimit="10"/><path d="M354 226.45c-11.34 0-20.44 7-20.54 19.2-.09 10.61 9.1 19.71 20.44 19.93a21.37 21.37 0 0 0 19.94-11.63c5.16-9.83 10.16-27.47-19.84-27.5zm1 31.35a12.8 12.8 0 1 1 12.8-12.8 12.8 12.8 0 0 1-12.8 12.8zM263.65 253.95a21.36 21.36 0 0 0 19.93 11.63c11.34-.22 20.52-9.32 20.44-19.93a20.36 20.36 0 0 0-1.81-8.45c-2.75.4-5.51.75-8.26 1a12.8 12.8 0 1 1-22.43 1.3c-4.4 0-8.38-.1-11.71-.38-.54 5.09 1.62 10.66 3.84 14.83zM385.28 224.95a71.66 71.66 0 0 0-6.48-11.12h-21.49c-1.06 2.07-3.61 4.28-8.18 6.61l-.12.06a35.54 35.54 0 0 1 4.73-.4c11.84-.2 24.83 2.9 31.54 4.85z" stroke="#231f20" stroke-miterlimit="10"/><path d="M355 232.19a12.8 12.8 0 1 0 12.8 12.8 12.8 12.8 0 0 0-12.8-12.8zM283.09 257.8a12.78 12.78 0 0 0 10.86-19.55c-7.91.85-15.66 1.26-22.43 1.3a12.78 12.78 0 0 0 11.57 18.26zM337.27 498.8v4.48h-37.3v-4.48H246.42l-30.57 70.58h206.42l-32.47-70.24-.16-.34h-52.37zM327.1 462.59h10.17v28.73h52.56v-35.85h-63.68a27.08 27.08 0 0 1 .95 7.12zM300 489.71a27.29 27.29 0 0 1-5.64-.59 27.16 27.16 0 0 1-29-12.71 74.47 74.47 0 0 1-18.92-7.92v22.84H300z" stroke="#231f20" stroke-miterlimit="10"/><path d="M300 489.71v13.57h37.3v-40.69h-10.2a27.12 27.12 0 0 1-27.1 27.12zM478.75 355.87a26.72 26.72 0 0 0 9.92-28.65 26 26 0 0 1-27.46 19l-1-.09a26 26 0 0 1-22.87-19.52 26.72 26.72 0 0 0 41.44 29.22z" stroke="#231f20" stroke-miterlimit="10"/><path d="M460.19 346.17l1 .09a26.07 26.07 0 0 0 28.29-23.58l.09-1A26 26 0 0 0 466 293.37a43.37 43.37 0 0 0-6.07-.13l1.22-28.52a10.11 10.11 0 0 0-9.67-10.53 10.11 10.11 0 0 0-10.48 9.68l-1.63 38.32a9.27 9.27 0 0 0-12.35.47 9.27 9.27 0 0 0-.23 13.11l8.64 9a9.26 9.26 0 0 0 1.8 1.44c0 .16.09.32.13.49a26 26 0 0 0 22.83 19.47zM282.44 329.23c4.86-.68 9.91-1.22 15-1.6q-8.01.56-15 1.6zM265.33 476.4a27.11 27.11 0 0 1 3.25-32h-31.74V418h7.71v-26.3h8.16v-26.35h28.1l10.61-11.58a22.84 22.84 0 0 1-17.13-12.84 25.53 25.53 0 0 1-2.1-9.87C246 336.73 232 347.63 224 359.22a62.54 62.54 0 0 0-10.89 30.37q-.39 4-.39 8.17c0 4.4.21 8.58.59 12.55 2.89 29.93 16.22 48 33.15 58.17a74.47 74.47 0 0 0 18.87 7.92z" stroke="#231f20" stroke-miterlimit="10"/><path d="M272.84 462.59a27 27 0 0 1 7-18.21h-11.26a27.13 27.13 0 0 0 25.74 44.74 27.11 27.11 0 0 1-21.48-26.53zM359.4 444.38h14.88v-26.34H359.4v26.34zM274.85 418h-38v26.34h43a27.13 27.13 0 0 1 40.2 0H344V418z" stroke="#231f20" stroke-miterlimit="10"/><path stroke="#231f20" stroke-miterlimit="10" d="M343.98 418.04h15.42v26.34h-15.42zM259.44 418.04V391.7h-14.89v26.34h14.89zM274.85 391.7v26.34h92.71V391.7h-92.71z"/><path stroke="#231f20" stroke-miterlimit="10" d="M259.44 391.7h15.42v26.34h-15.42zM290.27 391.7h-15.42v-26.34h-22.14v26.34H359.4v-26.34h-69.13v26.34z"/><path stroke="#231f20" stroke-miterlimit="10" d="M274.85 391.7h15.42v-26.34H274.85v26.34zM354.63 281.91h-68.7a35.82 35.82 0 0 0 68.7 0zM390.7 227.94c-.14-1.53-.84-1.6-.84-1.6s-1.72-.58-4.58-1.39c-6.71-1.9-19.7-5-31.53-4.85a35.54 35.54 0 0 0-4.73.4l-14 7.69a78.06 78.06 0 0 1-15.21 5.51H322c2.76 0 4.75 1.74 4.75 3.87v8a25.37 25.37 0 0 0 7.84 18.4 27.73 27.73 0 0 0 19 7.94h.64a27.85 27.85 0 0 0 25.29-15.15c2.51-4.72 4.89-10.76 4.88-16.69a6.51 6.51 0 0 1 .38-2.32l.14-.36a5 5 0 0 1 2.14-2.55 8.06 8.06 0 0 0 1.6-1.29 7.19 7.19 0 0 0 2.07-5.16l-.03-.45zm-16.9 26a21.37 21.37 0 0 1-19.94 11.63c-11.34-.22-20.52-9.32-20.44-19.93.1-12.2 9.2-19.21 20.54-19.2 30.04.04 25.04 17.68 19.84 27.5zM304 245.65c.09 10.61-9.1 19.71-20.44 19.93a21.36 21.36 0 0 1-19.93-11.63c-2.22-4.17-4.38-9.74-3.85-14.78a48.13 48.13 0 0 1-7-1 6.82 6.82 0 0 1 .26 1.92c0 5.93 2.37 12 4.88 16.69a27.86 27.86 0 0 0 25.29 15.15h.63a27.73 27.73 0 0 0 19-7.94 25.36 25.36 0 0 0 7.84-18.4v-8a3.39 3.39 0 0 1 .62-1.91c-3 .59-6 1.11-9.07 1.55a20.36 20.36 0 0 1 1.77 8.42zM387.81 177.22c-27-24.07-91.27-79.8-134.4-104.42a15.45 15.45 0 0 1-5.51 5c10.44 21.63 30.32 70.47 13.35 99.4z"/><path d="M252.8 238.18a48.13 48.13 0 0 0 7 1c3.34.27 7.32.4 11.71.38 6.78 0 14.53-.45 22.43-1.3 2.75-.29 5.51-.64 8.26-1 3.06-.45 6.1-1 9.07-1.55s5.8-1.23 8.54-2a78.06 78.06 0 0 0 15.19-5.53l14-7.69.12-.06c4.56-2.32 7.11-4.53 8.18-6.61H250.69c-8.76 9.66-8 20.34.12 23.71a12.93 12.93 0 0 0 1.89.63z" stroke="#231f20" stroke-miterlimit="10"/><path d="M357.31 213.82h35.36a9.54 9.54 0 0 0 9.55-9.55v-17.5a9.54 9.54 0 0 0-9.55-9.55h-142.5a9.54 9.54 0 0 0-9.55 9.55v17.5a9.54 9.54 0 0 0 9.55 9.55h107.14zM300 435.47a27.12 27.12 0 1 0 0 54.24 27.12 27.12 0 1 0 0-54.24zM253.41 72.8a15.37 15.37 0 1 0-5.51 5 15.45 15.45 0 0 0 5.51-5zM291.42 353.77a22.11 22.11 0 0 0 6.36.09 22.68 22.68 0 0 0 18.08-14.12 1.22 1.22 0 0 1 2.27 0 22.63 22.63 0 0 0 43.23-3.85c.15-.75.26-2.61.34-3.36a69.29 69.29 0 0 0-8.12-2.29l-.41-.09-.92-.19-2.39-.47-.28-.05q-1.42-.26-2.88-.49h-.23c-1-.16-2-.31-3.09-.45l-1.19-.15-1.67-.2-1.92-.2-1.1-.11-1.82-.16-2-.16-.82-.06c-3.71-.26-7.55-.42-11.46-.49h-4c-6.57 0-13.29.24-19.9.74-5.12.39-10.16.92-15 1.6-3.53.49-7 1.06-10.24 1.71v.13a25.53 25.53 0 0 0 2.1 9.87 22.84 22.84 0 0 0 17.06 12.75zM148.16 217.19a64.39 64.39 0 1 0-64.39-64.39 64.39 64.39 0 0 0 64.39 64.39zm0-119.29a54.9 54.9 0 1 1-54.9 54.9 54.9 54.9 0 0 1 54.9-54.9z" stroke="#231f20" stroke-miterlimit="10"/><path d="M148.16 207.71a54.9 54.9 0 1 0-54.9-54.9 54.9 54.9 0 0 0 54.9 54.9zm-5.07-54.9a5.07 5.07 0 0 1 5.07-5.07 5 5 0 0 1 4.44 2.67l21.92-11.86-21.92 11.86a5 5 0 0 1 .63 2.4 5.07 5.07 0 0 1-8.62 3.62l-31.13 31.76 31.13-31.76a5.05 5.05 0 0 1-1.52-3.62z" stroke="#231f20" stroke-miterlimit="10"/><path d="M152.61 150.41l21.92-11.86M144.62 156.43l-31.13 31.76"/><path d="M153.24 152.81a5.14 5.14 0 0 0-5.07-5.07 5.07 5.07 0 1 0 5.07 5.07zM111.39 385a5.38 5.38 0 0 1 8.77 0 9.8 9.8 0 0 0 8.61 4.61c16.29 0 47.78-40.92 38.87-72.6-4.28-15.22-15.25-25.47-32.69-25.06-5.16 0-9.64 2.63-13.28 5.32a9.9 9.9 0 0 1-5.89 1.95h-.19a44.31 44.31 0 0 1-23.9-7.08c-14.6 1.46-23.91 11.14-27.77 24.88-8.91 31.67 22.58 72.6 38.87 72.6a9.8 9.8 0 0 0 8.6-4.62zm27.92-81.46a9.57 9.57 0 1 1-9.57 9.57 9.57 9.57 0 0 1 9.58-9.6z" stroke="#231f20" stroke-miterlimit="10"/><circle cx="139.32" cy="313.08" r="9.57" stroke="#231f20" stroke-miterlimit="10"/><path d="M115.77 299.2a44.54 44.54 0 0 0-44.54-44.54 44.55 44.55 0 0 0 44.35 44.54z" stroke="#231f20" stroke-miterlimit="10"/></g><path fill="none" stroke="#231f20" stroke-linecap="round" stroke-linejoin="round" d="M115.78 299.2v-32.04"/></svg>