<svg xmlns="http://www.w3.org/2000/svg" width="522" height="522" viewBox="0 0 522 522"><g><circle cx="260.774" cy="261" r="261" fill="none"/><path stroke="#424242" stroke-width="1.002" stroke-miterlimit="10" d="M107.424 438.376c-13.116-10.993-27.608-17.13-39.818-17.362-.343 5.34.408 11.21 2.19 17.296" fill="none"/><path stroke="#424242" stroke-width="1.002" stroke-miterlimit="10" d="M141.473 430.392c-5.872-15.91-15.29-28.335-25.673-34.594-8.42 12.635-11.346 33.37-6.44 55.283 2.642 11.8 7.193 22.32 12.86 30.74" fill="none"/><path stroke="#424242" stroke-width="1.002" stroke-miterlimit="10" d="M175.05 441.04c2.916-16.786.978-32.33-4.905-42.983-13.61 6.733-26.51 23.227-33.218 44.657-5.375 17.17-5.67 34.003-1.803 46.853" fill="none"/><path stroke="#424242" stroke-width="1.002" stroke-miterlimit="10" d="M198.884 466.805c10.89-13.064 16.966-27.47 17.196-39.62-15.152-.972-34.573 6.86-51.096 22.066-14.1 12.976-23.022 28.5-25.517 42.206" fill="none"/><path stroke="#424242" stroke-width="1.002" stroke-miterlimit="10" d="M206.566 501.103c15.976-5.868 28.453-15.312 34.73-25.724-12.634-8.42-33.37-11.347-55.282-6.44-19.08 4.27-34.814 13.536-43.74 24.44" fill="none"/><path stroke="#424242" stroke-width="1.002" stroke-miterlimit="10" d="M232.672 520.244c-8.46-9.894-21.94-18.62-38.29-23.737-17.657-5.527-34.955-5.684-47.934-1.465" fill="none"/><path stroke="#424242" stroke-width="1.002" stroke-miterlimit="10" fill="none" d="M57.795 424.606l3.16-94.79"/><path stroke="#424242" stroke-width="1.002" stroke-miterlimit="10" fill="none" d="M74.33 333.84l1.9 87.94"/><path stroke="#424242" stroke-width="1.002" stroke-miterlimit="10" d="M19.04 358.27c21.78-8.563 38.752-21.738 47.478-36.2" fill="none"/><path stroke="#424242" stroke-width="1.002" stroke-miterlimit="10" d="M9.478 329.99c22.297 2.977 42.716-.015 57.04-7.92" fill="none"/><g stroke="#424242" stroke-width="1.002" stroke-miterlimit="10" fill="none"><path d="M1.982 290.803c20.69 19.75 44.69 30.884 64.535 31.267"/><path d="M21.096 235.14c-5.844-4.898-11.876-9.132-17.942-12.657"/></g><path stroke="#424242" stroke-width="1.002" stroke-miterlimit="10" d="M70.574 223.88c-8.505-23.223-22.22-41.363-37.342-50.48-12.207 18.32-16.45 48.382-9.336 80.153 7.113 31.77 23.774 57.145 42.622 68.517" fill="none"/><path stroke="#424242" stroke-width="1.002" stroke-miterlimit="10" d="M119.09 239.267c4.297-24.442 1.5-47.09-7.063-62.592-19.73 9.762-38.438 33.676-48.162 64.747-9.725 31.07-7.983 61.376 2.653 80.648" fill="none"/><path stroke="#424242" stroke-width="1.002" stroke-miterlimit="10" d="M153.537 276.54c15.887-18.99 24.755-39.96 25.09-57.63-21.97-1.412-50.126 9.945-74.083 31.99-23.958 22.046-37.602 49.163-38.026 71.17" fill="none"/><g stroke="#424242" stroke-width="1.002" stroke-miterlimit="10" fill="none"><path d="M166.058 275.995c-9.896-.042-20.364 1.066-31.024 3.453-31.77 7.113-57.145 23.774-68.517 42.622"/><path d="M193.554 311.163c9.37-6.678 16.78-14.33 21.634-22.38-5.192-3.458-11.327-6.278-18.177-8.38"/></g><path stroke="#424242" stroke-width="1.002" stroke-miterlimit="10" d="M166.788 327.165c-6.134-2.97-12.7-5.582-19.623-7.75-31.07-9.724-61.376-7.983-80.648 2.654 9.764 19.73 33.674 38.438 64.748 48.163 31.07 9.725 61.38 7.987 80.647-2.655-3.88-7.842-9.995-15.522-17.906-22.54" fill="none"/><path stroke="#424242" stroke-width="1.002" stroke-miterlimit="10" d="M59.835 131.925h2.45v-7.345c0-10.817 8.77-19.587 19.587-19.587 3.397 0 6.35.866 8.803 2.39 2.922-7.145 9.933-12.184 18.13-12.184 10.816 0 19.587 8.77 19.587 19.587v7.063c8.462 2.64 14.69 10.538 14.69 19.87 0 4.58-1.48 8.804-3.987 12.242H47.113c-1.25-2.162-1.97-4.667-1.97-7.345.002-8.114 6.578-14.692 14.692-14.692z" fill="none"/><path stroke="#424242" stroke-width="1.002" stroke-miterlimit="10" d="M456.292 377.697h-70.167c-1.25-2.162-1.97-4.667-1.97-7.345 0-8.113 6.577-14.69 14.692-14.69h2.45v-7.346c0-10.817 8.77-19.587 19.587-19.587 3.397 0 6.35.865 8.803 2.388 2.922-7.144 9.933-12.183 18.13-12.183 3.428 0 6.652.88 9.456 2.43" fill="none"/><path stroke="#424242" stroke-width="1.002" stroke-miterlimit="10" d="M467.83 345.723c8.243 2.768 14.264 10.557 14.264 19.732 0 4.58-1.48 8.804-3.988 12.242H468.2" fill="none"/><path stroke="#424242" stroke-width="1.002" stroke-miterlimit="10" fill="none" d="M455.207 435.122l2.81-154.873"/><path stroke="#424242" stroke-width="1.002" stroke-miterlimit="10" fill="none" d="M467.09 283.197l1.594 135.607"/><path stroke="#424242" stroke-width="1.002" stroke-miterlimit="10" d="M394.002 272.214c-15.99 5.867-28.48 15.316-34.76 25.735 12.634 8.418 33.37 11.345 55.282 6.438 21.912-4.906 39.414-16.397 47.257-29.397" fill="none"/><g stroke="#424242" stroke-width="1.002" stroke-miterlimit="10" fill="none"><path d="M393.965 272.113c3.842 1.787 7.92 3.37 12.192 4.708 21.43 6.71 42.332 5.507 55.624-1.83"/><path d="M404.867 238.766c-16.933-3.014-32.634-1.09-43.367 4.837 5.39 10.895 17.037 21.337 32.464 28.51"/></g><path stroke="#424242" stroke-width="1.002" stroke-miterlimit="10" d="M430.662 215.21c-13.173-11.106-27.756-17.31-40.033-17.542-.974 15.152 6.86 34.573 22.064 51.096C427.9 265.288 446.6 274.7 461.78 274.99" fill="none"/><path stroke="#424242" stroke-width="1.002" stroke-miterlimit="10" d="M464.556 207.206c-5.867-15.988-15.315-28.474-25.733-34.755-8.42 12.636-11.346 33.372-6.44 55.284 4.907 21.912 16.398 39.414 29.398 47.257" fill="none"/><path stroke="#424242" stroke-width="1.002" stroke-miterlimit="10" d="M498.042 217.87c2.962-16.853 1.03-32.47-4.873-43.16-13.61 6.733-26.512 23.227-33.22 44.657-6.707 21.43-5.505 42.332 1.83 55.624" fill="none"/><path stroke="#424242" stroke-width="1.002" stroke-miterlimit="10" d="M516.338 207.886c-9.533 3.68-19.358 9.762-28.33 18.018-16.524 15.205-25.935 33.907-26.227 49.087" fill="none"/><path stroke="#424242" stroke-width="1.002" stroke-miterlimit="10" d="M521.172 243.647c-3.973.385-8.033 1.03-12.134 1.947-21.912 4.906-39.414 16.397-47.257 29.397" fill="none"/><path stroke="#424242" stroke-width="1.002" stroke-miterlimit="10" d="M521.44 274.517c-1.324-.476-2.67-.93-4.035-1.357-21.43-6.708-42.332-5.506-55.624 1.83 6.736 13.608 23.226 26.512 44.658 33.22 3.546 1.11 7.077 2.002 10.562 2.687" fill="none"/><path stroke="#424242" stroke-width="1.002" stroke-miterlimit="10" d="M213.177 223.852c-12.15 6.85-36.057 23.202-46.208 50.248-7.665 20.417-6.082 42.34 4.703 65.155 2.56 5.417 7.947 8.59 13.567 8.59 2.147 0 4.328-.464 6.398-1.44 7.487-3.54 10.688-12.48 7.148-19.967-7.258-15.355-8.5-28.975-3.798-41.643 3.417-9.203 9.59-16.75 15.955-22.588.972 3.655 2.353 7.26 4.195 10.748l25.653 48.172c1.34 2.535 2.87 4.902 4.55 7.11-17.89 20.116-26.368 40.983-25.223 62.195 1.927 35.672 31.014 57.506 32.252 58.418 2.685 1.98 5.816 2.934 8.92 2.934 4.605 0 9.147-2.102 12.082-6.082 4.914-6.667 3.528-16.03-3.14-20.94-.19-.146-19.15-14.715-20.18-36.18-.658-13.712 6.038-28.092 19.91-42.84 12.692 4.17 26.99 3.394 39.73-3.335 5.393-2.848 10.062-6.53 13.938-10.798 6.31 21.408 8.653 43.737 6.96 66.758-2.074 28.252-9.773 47.024-9.833 47.17-3.227 7.625.34 16.424 7.966 19.652 1.907.807 3.887 1.19 5.836 1.19 5.842 0 11.395-3.436 13.816-9.156 1.496-3.535 36.05-87.63-14.97-179.127-.288-.514-.607-.998-.943-1.465-.467-1.05-.96-2.095-1.503-3.126l-25.653-48.172c-1.568-2.968-3.393-5.71-5.423-8.23 23.39-14.848 39.173-38.88 46.143-70.686 3.28-14.967 3.995-29.016 3.884-39.356" fill="none"/><path stroke="#424242" stroke-width="1.002" stroke-miterlimit="10" d="M319.863 104.698c.247 8.79-.138 22.07-3.3 36.068-6.644 29.406-22.302 48.832-46.545 57.786" fill="none"/><path stroke="#424242" stroke-width="1.002" stroke-miterlimit="10" d="M276.35 436.78c0 8.28-6.71 14.994-14.994 14.994-8.28 0-14.99-6.714-14.99-14.995 0-8.282 6.71-14.996 14.99-14.996 8.285 0 14.995 6.713 14.995 14.995" fill="none"/><path stroke="#424242" stroke-width="1.002" stroke-miterlimit="10" d="M425.466 58.53C402.93 70.36 377.3 77.068 350.13 77.068l-.662-.016" fill="none"/><path stroke="#424242" stroke-width="1.002" stroke-miterlimit="10" d="M349.227 451.774c0 8.28-6.71 14.995-14.995 14.995-8.28 0-14.99-6.715-14.99-14.996 0-8.28 6.71-14.995 14.99-14.995 8.285 0 14.995 6.712 14.995 14.994" fill="none"/><path stroke="#424242" stroke-width="1.002" stroke-miterlimit="10" d="M309.475 273.403l-16.135-30.3c-8.272-15.662-27.673-21.657-43.334-13.385-15.66 8.27-21.653 27.676-13.38 43.34l16.134 30.298c8.27 15.662 27.678 21.655 43.338 13.385 15.662-8.272 21.65-27.675 13.377-43.337z" fill="none"/><path stroke="#424242" stroke-width="1.002" stroke-miterlimit="10" d="M200.223 332.846c0 8.28-6.71 14.995-14.995 14.995-8.28 0-14.99-6.713-14.99-14.994 0-8.28 6.71-14.995 14.99-14.995 8.285 0 14.995 6.715 14.995 14.996" fill="none"/><g stroke="#424242" stroke-miterlimit="10" fill="none"><path stroke-width="1.002" d="M179.606 177c-12.38 0-22.41-10.036-22.41-22.415 0-12.38 10.03-22.415 22.41-22.415 2.024 0 3.986.268 5.85.77"/><path stroke-width="1.002" d="M271.422 133.103c2.03-.605 4.18-.93 6.41-.93 12.382 0 22.41 10.035 22.41 22.412"/><path stroke-width="1.002" d="M300.243 154.585c0 12.378-10.03 22.412-22.412 22.412"/><path stroke-width="1.002" d="M278.137 177.06c1.07-5.365 1.566-10.88 1.566-16.545 0-26.935-20.9-48.99-47.383-50.837-.01-.207-.028-.412-.028-.622 0-6.158 4.407-11.274 10.236-12.398-.78-.15-1.58-.242-2.404-.242-6.508 0-11.863 4.92-12.56 11.242-.89-3.558-3.82-6.3-7.48-6.93 1.813 1.706 2.96 4.112 2.96 6.797 0 .822-.118 1.615-.317 2.375-25.34 2.968-44.988 24.497-44.988 50.616 0 19.3 5.748 36.87 20.425 52.63.663.743 1.354 1.46 2.068 2.153.065.064.126.13.19.195l-.008-.022c7.35 7.044 17.316 11.38 28.305 11.38 10.99 0 20.956-4.336 28.307-11.38l-.01.022c.07-.07.134-.138.202-.207.706-.686 1.39-1.395 2.045-2.13 10.377-11.14 16.293-23.182 18.872-36.1"/><path d="M260.397 154.945c0-7.883-5.897-14.147-13.897-14.445H211.883c-8.073 0-14.615 6.278-14.615 14.352 0 5.777 3.358 10.545 8.222 12.822-3.97 5.034-6.342 11.36-6.342 18.267 0 16.338 13.233 29.57 29.573 29.57s29.574-13.248 29.574-29.585c0-6.748-2.186-12.968-5.992-17.945 4.754-2.414 8.095-7.34 8.095-13.035z"/><path stroke-width="1.002" d="M216.757 154.585c0 2.69-2.18 4.873-4.873 4.873-2.69 0-4.872-2.182-4.872-4.873 0-2.69 2.18-4.873 4.872-4.873 2.693 0 4.873 2.182 4.873 4.873"/><path stroke-width="1.002" d="M250.495 154.585c0 2.69-2.18 4.873-4.873 4.873-2.69 0-4.872-2.182-4.872-4.873 0-2.69 2.18-4.873 4.872-4.873 2.692 0 4.873 2.182 4.873 4.873"/><path stroke-width="1.002" d="M209.65 185.256c0 11.693 8.534 19.073 19.07 19.073 10.538 0 19.072-7.38 19.074-19.074H209.65z"/></g><path stroke="#424242" stroke-width="1.002" stroke-miterlimit="10" d="M430.967 104.448c-9.184-8.493-20.078-12.784-28.65-12.124.01 8.598 5.14 19.124 14.326 27.618 9.184 8.493 20.08 12.786 28.65 12.124-.01-8.6-5.142-19.125-14.326-27.618z" fill="none"/><path stroke="#424242" stroke-width="1.002" stroke-miterlimit="10" d="M397.73 112.103c4.307-6.884 5.727-14.352 4.27-19.74-5.483 1.046-11.577 5.59-15.884 12.476-4.307 6.884-5.728 14.352-4.27 19.74 5.484-1.046 11.578-5.592 15.884-12.477z" fill="none"/><path stroke="#424242" stroke-width="1.002" stroke-miterlimit="10" d="M349.468 76.593c0 8.543-6.922 15.47-15.47 15.47-8.543 0-15.466-6.926-15.466-15.47 0-8.543 6.922-15.47 15.466-15.47 8.548 0 15.47 6.927 15.47 15.47" fill="none"/><path stroke="#424242" stroke-width="1.002" stroke-miterlimit="10" d="M416.984 95.087c11.08-4.115 21.68-9.222 31.695-15.21" fill="none"/><path stroke="#424242" stroke-width="1.002" stroke-miterlimit="10" d="M183.837 11.533C217.3 68.63 279.307 107.06 350.13 107.06c12.523 0 24.77-1.204 36.633-3.5" fill="none"/><path stroke="#424242" stroke-width="1.002" stroke-miterlimit="10" d="M319.108 74.098c-43.527-8.443-80.91-34.307-104.59-70.01" fill="none"/></g></svg>