<svg xmlns="http://www.w3.org/2000/svg" width="594.9" height="854.7" viewBox="-182 -147.7 594.9 854.7" enable-background="new -182 -147.7 594.9 854.7"><path opacity=".1" fill="#4374E0" enable-background="new" d="M368.8 310.8c2.6 15.3 4 31.1 4 47.2 0 151.9-123.1 275-275 275-81.3 0-154.3-35.3-204.7-91.3 14.2 23.2 31.5 45.3 51.9 65.7 119.3 119.3 298.4 133.5 400.1 31.9 82.8-82.9 88.7-217.1 23.7-328.5z"/><path fill="#F1CA3A" d="M97.8 35.6c-4.5 0-8.1-3.6-8.1-8.1v-54.9h8.1c29.6 0 53.7-23.3 53.7-52 0-29.2-22.1-52-50.4-52-29.3 0-53.1 23.3-53.1 52 0 4.5-3.6 8.1-8.1 8.1s-8.1-3.6-8.1-8.1c0-37.6 31.1-68.3 69.3-68.3 37.4 0 66.7 30 66.7 68.3 0 35-27.1 63.9-61.9 67.8v39.1c0 4.5-3.6 8.1-8.1 8.1z"/><path fill="#29B6F6" d="M97.8 78.2C-56.7 78.2-182 203.5-182 358S-56.7 637.8 97.8 637.8 377.6 512.5 377.6 358 252.3 78.2 97.8 78.2zm0 540.4c-143.9 0-260.6-116.7-260.6-260.6S-46.1 97.3 97.8 97.3 358.4 214 358.4 358 241.8 618.6 97.8 618.6z"/><g fill="#F1CA3A"><circle cx="33.4" cy="83.8" r="6.5"/><circle cx="46.2" cy="83.8" r="6.5"/><circle cx="59" cy="83.8" r="6.5"/><circle cx="71.8" cy="83.8" r="6.5"/><circle cx="84.6" cy="83.8" r="6.5"/><circle cx="97.4" cy="83.8" r="6.5"/><circle cx="110.2" cy="83.8" r="6.5"/><circle cx="123" cy="83.8" r="6.5"/><circle cx="135.8" cy="83.8" r="6.5"/><circle cx="148.6" cy="83.8" r="6.5"/><circle cx="161.4" cy="83.8" r="6.5"/></g><path fill="#F1CA3A" d="M167.8 83.4H26.9V29.3c0-2.9 2.3-5.2 5.2-5.2h130.5c2.9 0 5.2 2.3 5.2 5.2v54.1z"/><path opacity=".6" fill="#F5A816" enable-background="new" d="M167 83V30c0-3.2-1.8-5.6-5.1-5.6H97v65.9h.4c3.2 0 5.9-2.3 6.4-5.4.5 3.1 3.2 5.4 6.4 5.4s5.9-2.3 6.4-5.4c.5 3.1 3.2 5.4 6.4 5.4s5.9-2.3 6.4-5.4c.5 3.1 3.2 5.4 6.4 5.4s5.9-2.3 6.4-5.4c.5 3.1 3.2 5.4 6.4 5.4s5.9-2.3 6.4-5.4c.5 3.1 3.2 5.4 6.4 5.4 3.6 0 6.1-2.9 6.1-6.5 0-.2-.5-.5-.5-.8z"/></svg>