<?xml version="1.0" encoding="utf-8"?>
<!-- Generator: Adobe Illustrator 18.1.0, SVG Export Plug-In . SVG Version: 6.00 Build 0)  -->
<!DOCTYPE svg PUBLIC "-//W3C//DTD SVG 1.1//EN" "http://www.w3.org/Graphics/SVG/1.1/DTD/svg11.dtd">
<svg version="1.1" id="Layer_1" xmlns="http://www.w3.org/2000/svg" xmlns:xlink="http://www.w3.org/1999/xlink" x="0px" y="0px"
	 width="340px" height="340px" viewBox="0 0 340 340" enable-background="new 0 0 340 340" xml:space="preserve">
<g>
	<circle fill="#FFFFFF" stroke="#000000" stroke-miterlimit="10" cx="169.998" cy="182" r="100.489"/>
	<path fill="#F1CA3A" d="M170,66.932c-1.611,0-2.917-1.306-2.917-2.917V44.316L170,44.31c10.643,0,19.302-8.379,19.302-18.678
		c0-10.474-7.953-18.679-18.106-18.679c-10.51,0-19.06,8.379-19.06,18.679c0,1.611-1.306,2.917-2.917,2.917
		c-1.611,0-2.917-1.306-2.917-2.917c0-13.516,11.167-24.512,24.894-24.512c13.424,0,23.94,10.767,23.94,24.512
		c0,12.554-9.727,22.934-22.218,24.348v14.035C172.916,65.626,171.61,66.932,170,66.932z"/>
	<path fill="none" stroke="#F1CA3A" stroke-miterlimit="10" d="M168.334,86.621"/>
	<g>
		<circle fill="#F1CA3A" cx="146.881" cy="84.255" r="2.332"/>
		<circle fill="#F1CA3A" cx="151.475" cy="84.255" r="2.332"/>
		<circle fill="#F1CA3A" cx="156.07" cy="84.255" r="2.332"/>
		<circle fill="#F1CA3A" cx="160.665" cy="84.255" r="2.332"/>
		<circle fill="#F1CA3A" cx="165.259" cy="84.255" r="2.332"/>
		<circle fill="#F1CA3A" cx="169.854" cy="84.255" r="2.332"/>
		<circle fill="#F1CA3A" cx="174.448" cy="84.255" r="2.332"/>
		<circle fill="#F1CA3A" cx="179.043" cy="84.255" r="2.332"/>
		<circle fill="#F1CA3A" cx="183.638" cy="84.255" r="2.332"/>
		<circle fill="#F1CA3A" cx="188.232" cy="84.255" r="2.332"/>
		<circle fill="#F1CA3A" cx="192.827" cy="84.255" r="2.332"/>
	</g>
	<path fill="#F1CA3A" d="M195.143,84.113h-50.592V67.981c0-2.858,2.317-5.175,5.175-5.175h40.241c2.858,0,5.175,2.317,5.175,5.175
		V84.113z"/>
	<path opacity="0.6" fill="#F5A816" d="M195.458,83.974V64.912c0-1.163-1.26-1.704-2.424-1.704h-22.576v23.363
		c0,0.004-0.274,0.016-0.214,0.016c1.156,0,1.917-0.841,2.102-1.944c0.185,1.103,1.044,1.944,2.2,1.944s2.064-0.841,2.249-1.944
		c0.185,1.103,1.117,1.945,2.273,1.945c1.156,0,2.1-0.841,2.285-1.945c0.185,1.103,1.136,1.945,2.291,1.945s2.109-0.841,2.294-1.944
		c0.185,1.103,1.14,1.944,2.296,1.944s2.112-0.841,2.297-1.945c0.185,1.103,1.141,1.945,2.297,1.945
		c1.288,0,2.491-1.044,2.491-2.332C195.318,84.16,195.458,84.066,195.458,83.974z"/>
	<g>
		<defs>
			<circle id="SVGID_1_" cx="170.015" cy="182.571" r="100.309"/>
		</defs>
		<clipPath id="SVGID_2_">
			<use xlink:href="#SVGID_1_"  overflow="visible"/>
		</clipPath>
		<rect x="69.708" y="220.702" clip-path="url(#SVGID_2_)" fill="none" width="200.619" height="69.653"/>
	</g>
	<g>
		<polygon fill="#FFFFFF" stroke="#000000" stroke-miterlimit="10" points="209.61,130.583 183.672,191.708 188.989,191.708 
			183.672,214.708 189.169,214.708 183.672,240.708 235.549,240.708 230.051,214.708 235.549,214.708 230.231,191.708 
			235.549,191.708 		"/>
	</g>
	<g>
		<polygon fill="#FFFFFF" stroke="#000000" stroke-miterlimit="10" points="156.011,191.708 150.694,191.708 156.011,214.708 
			150.514,214.708 156.011,240.708 104.134,240.708 109.632,214.708 104.134,214.708 109.452,191.708 104.134,191.708 
			130.073,130.583 		"/>
	</g>
	<g>
		<polyline fill="#FFFFFF" stroke="#000000" stroke-miterlimit="10" points="180.441,130.179 166.468,93.679 134.899,177.708 
			141.37,177.708 134.899,202.708 141.59,202.708 134.899,232.708 198.037,232.708 191.346,202.708 198.037,202.708 
			191.565,177.708 198.037,177.708 180.247,130.614 		"/>
	</g>
	<g>
		<defs>
			<polyline id="SVGID_3_" points="180.441,130.179 166.468,93.429 134.899,177.208 141.37,177.208 134.899,203.208 141.59,203.208 
				134.899,233.208 198.037,233.208 191.346,203.208 198.037,203.208 191.565,177.208 198.037,177.208 180.247,130.364 			"/>
		</defs>
		<clipPath id="SVGID_4_">
			<use xlink:href="#SVGID_3_"  overflow="visible"/>
		</clipPath>
		<g clip-path="url(#SVGID_4_)">
			<path fill="#388E3C" d="M177.408,195.052c-1.321,0-2.647-0.46-3.719-1.398l-56.724-49.624c-2.349-2.055-2.587-5.626-0.533-7.975
				c2.058-2.349,5.628-2.585,7.975-0.533l56.724,49.624c2.349,2.055,2.587,5.626,0.533,7.975
				C180.547,194.399,178.981,195.052,177.408,195.052z"/>
			<path fill="#388E3C" d="M177.86,181.546c-1.325,0-2.655-0.463-3.728-1.406l-58.486-51.385c-2.346-2.06-2.576-5.631-0.516-7.975
				c2.061-2.344,5.633-2.576,7.975-0.516l58.486,51.385c2.346,2.06,2.576,5.631,0.516,7.975
				C180.99,180.896,179.43,181.546,177.86,181.546z"/>
			<path fill="#388E3C" d="M178.547,169.787c-1.325,0-2.655-0.463-3.728-1.406l-58.486-51.385c-2.346-2.06-2.576-5.631-0.516-7.975
				c2.061-2.344,5.633-2.576,7.975-0.516l58.486,51.385c2.346,2.06,2.576,5.631,0.516,7.975
				C181.677,169.137,180.116,169.787,178.547,169.787z"/>
			<path fill="#388E3C" d="M190.747,169.525c-1.325,0-2.655-0.463-3.728-1.406l-58.486-51.385c-2.346-2.06-2.576-5.631-0.516-7.975
				c2.061-2.344,5.633-2.576,7.975-0.516l58.486,51.385c2.346,2.06,2.576,5.631,0.516,7.975
				C193.877,168.875,192.316,169.525,190.747,169.525z"/>
			<path fill="#388E3C" d="M192.563,157.465c-1.325,0-2.655-0.463-3.728-1.406l-58.486-51.385c-2.346-2.06-2.576-5.631-0.516-7.975
				c2.061-2.344,5.633-2.576,7.975-0.516l58.486,51.385c2.346,2.06,2.576,5.631,0.516,7.975
				C195.693,156.815,194.132,157.465,192.563,157.465z"/>
			<path fill="#388E3C" d="M194.826,146.943c-1.325,0-2.655-0.463-3.728-1.406l-58.486-51.385c-2.346-2.06-2.576-5.631-0.516-7.975
				c2.061-2.344,5.633-2.576,7.975-0.516l58.486,51.385c2.346,2.06,2.576,5.631,0.516,7.975
				C197.956,146.293,196.396,146.943,194.826,146.943z"/>
			<path fill="#388E3C" d="M197.574,137.516c-1.325,0-2.655-0.463-3.728-1.406l-58.486-51.385c-2.346-2.06-2.576-5.631-0.516-7.975
				c2.061-2.344,5.633-2.576,7.975-0.516l58.486,51.385c2.346,2.06,2.576,5.631,0.516,7.975
				C200.705,136.866,199.144,137.516,197.574,137.516z"/>
			<path fill="#388E3C" d="M196.834,134.29c-1.325,0-2.655-0.463-3.728-1.406L134.62,81.498c-2.346-2.06-2.576-5.631-0.516-7.975
				c2.061-2.344,5.633-2.576,7.975-0.516l58.486,51.385c2.346,2.06,2.576,5.631,0.516,7.975
				C199.965,133.639,198.404,134.29,196.834,134.29z"/>
			<path fill="#388E3C" d="M169.802,201.274c-1.253,0-2.515-0.414-3.562-1.266l-49.613-40.339c-0.336-0.273-0.569-0.663-0.617-1.094
				c-0.763-6.947,8.603-15.337,12.312-12.321l46.636,46.273c0.334,0.272,0.565,0.658,0.612,1.086
				C176.119,198.6,172.986,201.274,169.802,201.274z"/>
			<path fill="#388E3C" d="M184.181,228.489c-1.306,0-2.617-0.449-3.685-1.368l-52.497-45.176c-2.366-2.037-2.633-5.604-0.597-7.971
				c2.038-2.364,5.604-2.634,7.971-0.597l52.497,45.176c2.366,2.037,2.633,5.604,0.597,7.971
				C187.349,227.823,185.769,228.489,184.181,228.489z"/>
			<path fill="#388E3C" d="M163.304,221.77c-1.328,0-2.66-0.465-3.735-1.412l-55.772-49.165c-2.341-2.064-2.566-5.636-0.502-7.978
				c2.063-2.341,5.633-2.566,7.978-0.502l55.772,49.165c2.341,2.064,2.566,5.636,0.502,7.978
				C166.429,221.123,164.87,221.77,163.304,221.77z"/>
			<path fill="#388E3C" d="M160.788,215.749c-1.328,0-2.66-0.465-3.735-1.412l-55.772-49.165c-2.341-2.064-2.566-5.636-0.502-7.978
				c2.063-2.341,5.633-2.566,7.978-0.502l55.772,49.165c2.341,2.064,2.566,5.636,0.502,7.978
				C163.913,215.102,162.354,215.749,160.788,215.749z"/>
			<path fill="#388E3C" d="M155.878,225.416c-1.331,0-2.668-0.468-3.743-1.42l-78.031-69.053c-2.338-2.069-2.555-5.641-0.487-7.978
				c2.07-2.335,5.641-2.554,7.978-0.487l78.031,69.053c2.338,2.069,2.555,5.641,0.487,7.978
				C158.996,224.771,157.441,225.416,155.878,225.416z"/>
		</g>
	</g>
	<g>
		<path fill="#FFFFFF" stroke="#000000" stroke-miterlimit="10" d="M155.437,212.362c0,3.022,2.448,5.472,5.471,5.472
			c3.023,0,5.473-2.45,5.473-5.472H155.437z"/>
		<path fill="#FFFFFF" stroke="#000000" stroke-miterlimit="10" d="M144.493,212.362c0,3.022,2.448,5.472,5.472,5.472
			c3.02,0,5.472-2.45,5.472-5.472H144.493z"/>
	</g>
	<path fill="#FFFFFF" stroke="#000000" stroke-miterlimit="10" d="M172.095,128.817c0,3.022,2.448,5.472,5.471,5.472
		c3.023,0,5.473-2.45,5.473-5.472H172.095z"/>
	<path fill="#FFFFFF" stroke="#000000" stroke-miterlimit="10" d="M161.151,128.817c0,3.022,2.448,5.472,5.472,5.472
		c3.02,0,5.472-2.45,5.472-5.472H161.151z"/>
	<g>
		<path fill="#FFFFFF" stroke="#000000" stroke-miterlimit="10" d="M164.939,180.357h-9.634v-17.341
			c0-5.321,4.313-9.634,9.634-9.634h0c5.321,0,9.634,4.313,9.634,9.634v7.707C174.573,176.044,170.26,180.357,164.939,180.357z"/>
		<circle fill="#F57C00" cx="160.959" cy="160.225" r="1.927"/>
		<path opacity="0.2" fill="#404040" d="M159.289,168.208c0,1-0.863,1.927-1.927,1.927c-1.064,0-1.927-0.927-1.927-1.927H159.289z"
			/>
		<path opacity="0.2" fill="#404040" d="M163.399,168.208c0,1-0.863,1.927-1.927,1.927c-1.064,0-1.927-0.927-1.927-1.927H163.399z"
			/>
		<path opacity="0.2" fill="#404040" d="M167.51,168.208c0,1-0.863,1.927-1.927,1.927c-1.064,0-1.927-0.927-1.927-1.927H167.51z"/>
		<path opacity="0.2" fill="#404040" d="M161.344,169.208c0,2-0.863,1.927-1.927,1.927c-1.064,0-1.927,0.073-1.927-1.927H161.344z"
			/>
		<path opacity="0.2" fill="#404040" d="M157.233,169.52c0,1.657-0.863,1.927-1.927,1.927l-0.006-1.927H157.233z"/>
		<path opacity="0.2" fill="#404040" d="M157.233,175.321c0,0.829-0.863,1.927-1.927,1.927l-0.006-1.927H157.233z"/>
		<path opacity="0.2" fill="#404040" d="M163.399,172.208c0,1-0.863,1.927-1.927,1.927c-1.064,0-1.927-0.927-1.927-1.927H163.399z"
			/>
		<path opacity="0.2" fill="#404040" d="M159.289,172.208c0,1-0.863,1.927-1.927,1.927c-1.064,0-1.927-0.927-1.927-1.927H159.289z"
			/>
		<path opacity="0.2" fill="#404040" d="M165.454,169.208c0,2-0.863,1.927-1.927,1.927c-1.064,0-1.927,0.073-1.927-1.927H165.454z"
			/>
		<circle fill="#F57C00" cx="168.666" cy="160.225" r="1.927"/>
		<polygon fill="#332E2E" points="163.322,160.611 166.459,160.611 164.891,164.492 		"/>
	</g>
	<g>
		<rect x="162.533" y="232.869" fill="#FFFFFF" width="8.416" height="35.597"/>
		<path d="M170.449,233.369v34.597h-7.416v-34.597H170.449 M171.449,232.369h-9.416v36.597h9.416V232.369L171.449,232.369z"/>
	</g>
	<g>
		<rect x="204.214" y="240.432" fill="#FFFFFF" width="6.736" height="20.694"/>
		<path d="M210.45,240.932v19.694h-5.736v-19.694H210.45 M211.45,239.932h-7.736v21.694h7.736V239.932L211.45,239.932z"/>
	</g>
	<g>
		<rect x="124.676" y="240.432" fill="#FFFFFF" width="6.737" height="20.694"/>
		<path d="M130.913,240.932v19.694h-5.736v-19.694H130.913 M131.913,239.932h-7.736v21.694h7.736V239.932L131.913,239.932z"/>
	</g>
	<rect x="155.437" y="178.545" opacity="0.1" fill="#404040" width="15.157" height="3.017"/>
	<path fill="#FFFFFF" stroke="#000000" stroke-miterlimit="10" d="M162.92,180.353c0.098,2.567,2.762,4.786,5.439,4.786
		c3.023,0,5.473-2.45,5.473-5.472h-3.599"/>
	<path fill="#FFFFFF" stroke="#000000" stroke-miterlimit="10" d="M155.438,179.667h-3.494c0,3.022,2.448,5.472,5.472,5.472
		c2.857,0,5.205-1.991,5.451-4.786"/>
	<path fill="none" stroke="#000000" stroke-miterlimit="10" d="M164.939,180.357h-9.634v-17.341c0-5.321,4.313-9.634,9.634-9.634h0
		c5.321,0,9.634,4.313,9.634,9.634v7.707C174.573,176.044,170.26,180.357,164.939,180.357z"/>
	<line fill="none" stroke="#000000" stroke-miterlimit="10" x1="95.458" y1="248.708" x2="125.458" y2="248.708"/>
	<line fill="none" stroke="#000000" stroke-miterlimit="10" x1="131.458" y1="248.708" x2="163.458" y2="248.708"/>
	<line fill="none" stroke="#000000" stroke-miterlimit="10" x1="171.458" y1="248.708" x2="204.458" y2="248.708"/>
	<line fill="none" stroke="#000000" stroke-miterlimit="10" x1="211.458" y1="248.708" x2="246.458" y2="248.708"/>
	<path opacity="0.1" fill="#4374E0" d="M226.492,99.278c10.964,16.099,17.375,35.546,17.375,56.492
		c0,55.498-44.99,100.489-100.489,100.489c-20.946,0-40.393-6.412-56.492-17.375C104.972,265.44,135.448,282.88,170,282.88
		c55.498,0,100.489-44.99,100.489-100.489C270.489,147.84,253.048,117.363,226.492,99.278z"/>
</g>
<g>
	<g opacity="0.25">
		<path d="M181.831,226.778l1.665,1.665c2.34,2.341,6.022,2.667,8.738,0.774l26.346-15.351l-22.169-22.171l-15.353,26.344
			C179.164,220.756,179.49,224.437,181.831,226.778z"/>
		
			<rect x="234.144" y="91.248" transform="matrix(-0.7071 -0.7071 0.7071 -0.7071 319.8077 447.7527)" width="36.997" height="132.78"/>
		
			<rect x="234.144" y="101.896" transform="matrix(-0.7071 -0.7071 0.7071 -0.7071 319.8077 447.7527)" width="36.997" height="111.483"/>
		
			<rect x="261.47" y="128.058" transform="matrix(-0.7071 -0.7071 0.7071 -0.7071 385.7751 420.4335)" width="36.997" height="4.513"/>
		
			<rect x="266.742" y="122.786" transform="matrix(-0.7071 -0.7071 0.7071 -0.7071 398.5041 415.1621)" width="36.997" height="4.513"/>
		
			<rect x="201.608" y="187.915" transform="matrix(-0.7071 -0.7071 0.7071 -0.7071 241.2599 480.2818)" width="36.997" height="4.513"/>
		
			<rect x="206.88" y="182.642" transform="matrix(-0.7071 -0.7071 0.7071 -0.7071 253.9888 475.0104)" width="36.997" height="4.513"/>
		<path d="M233.012,165.345l11.921,11.922c1.721,1.721,4.537,1.721,6.258,0l26.17-26.168c1.721-1.721,1.721-4.537,0-6.258
			L265.44,132.92c-1.721-1.721-4.537-1.721-6.258,0l-26.17,26.168C231.291,160.808,231.291,163.624,233.012,165.345z"/>
		
			<rect x="250.149" y="97.896" transform="matrix(0.7071 0.7071 -0.7071 0.7071 192.1 -135.2154)" opacity="0.3" width="18.241" height="132.763"/>
		<path opacity="0.3" d="M212.177,211.062l4.1,4.1l-24.119,14.019c-2.718,1.89-6.399,1.559-8.737-0.784l-1.663-1.667
			c-0.418-0.419-0.748-0.891-1.036-1.382c2.251,1.315,5.111,1.28,7.336-0.267L212.177,211.062z"/>
	</g>
	<g>
		<g>
			<g>
				<path fill="#2F7F2F" d="M179.831,224.778l1.665,1.665c2.34,2.341,6.022,2.667,8.738,0.774l26.346-15.351l-22.169-22.171
					l-15.353,26.344C177.164,218.756,177.49,222.437,179.831,224.778z"/>
				
					<rect x="232.144" y="89.248" transform="matrix(-0.7071 -0.7071 0.7071 -0.7071 317.8078 442.9243)" fill="#2F7F2F" width="36.997" height="132.78"/>
				
					<rect x="232.144" y="99.896" transform="matrix(-0.7071 -0.7071 0.7071 -0.7071 317.8078 442.9243)" fill="#4CAF50" width="36.997" height="111.483"/>
				
					<rect x="259.47" y="126.058" transform="matrix(-0.7071 -0.7071 0.7071 -0.7071 383.7753 415.6051)" fill="#388E3C" width="36.997" height="4.513"/>
				
					<rect x="264.742" y="120.786" transform="matrix(-0.7071 -0.7071 0.7071 -0.7071 396.5042 410.3337)" fill="#388E3C" width="36.997" height="4.513"/>
				
					<rect x="199.608" y="185.915" transform="matrix(-0.7071 -0.7071 0.7071 -0.7071 239.2601 475.4533)" fill="#388E3C" width="36.997" height="4.513"/>
				
					<rect x="204.88" y="180.642" transform="matrix(-0.7071 -0.7071 0.7071 -0.7071 251.989 470.1819)" fill="#388E3C" width="36.997" height="4.513"/>
				<path fill="#388E3C" d="M231.012,163.345l11.921,11.922c1.721,1.721,4.537,1.721,6.258,0l26.17-26.168
					c1.721-1.721,1.721-4.537,0-6.258L263.44,130.92c-1.721-1.721-4.537-1.721-6.258,0l-26.17,26.168
					C229.291,158.808,229.291,161.624,231.012,163.345z"/>
			</g>
			
				<rect x="248.149" y="95.896" transform="matrix(0.7071 0.7071 -0.7071 0.7071 190.1 -134.387)" opacity="0.3" fill="#2E7D32" width="18.241" height="132.763"/>
			<path opacity="0.3" fill="#2E7D32" d="M210.177,209.062l4.1,4.1l-24.119,14.019c-2.718,1.89-6.399,1.559-8.737-0.784
				l-1.663-1.667c-0.418-0.419-0.748-0.891-1.036-1.382c2.251,1.315,5.111,1.28,7.336-0.267L210.177,209.062z"/>
		</g>
	</g>
</g>
</svg>
