<svg xmlns="http://www.w3.org/2000/svg" xmlns:xlink="http://www.w3.org/1999/xlink" width="340" height="340" viewBox="0 0 340 340"><circle fill="#FFF" stroke="#000" stroke-miterlimit="10" cx="169.998" cy="182" r="100.489"/><path fill="#F1CA3A" d="M170 66.932a2.917 2.917 0 0 1-2.917-2.917V44.316L170 44.31c10.643 0 19.302-8.379 19.302-18.678 0-10.474-7.953-18.679-18.106-18.679-10.51 0-19.06 8.379-19.06 18.679a2.917 2.917 0 0 1-5.834 0c0-13.516 11.167-24.512 24.894-24.512 13.424 0 23.94 10.767 23.94 24.512 0 12.554-9.727 22.934-22.218 24.348v14.035A2.92 2.92 0 0 1 170 66.932z"/><g fill="#F1CA3A"><circle cx="146.881" cy="84.255" r="2.332"/><circle cx="151.475" cy="84.255" r="2.332"/><circle cx="156.07" cy="84.255" r="2.332"/><circle cx="160.665" cy="84.255" r="2.332"/><circle cx="165.259" cy="84.255" r="2.332"/><circle cx="169.854" cy="84.255" r="2.332"/><circle cx="174.448" cy="84.255" r="2.332"/><circle cx="179.043" cy="84.255" r="2.332"/><circle cx="183.638" cy="84.255" r="2.332"/><circle cx="188.232" cy="84.255" r="2.332"/><circle cx="192.827" cy="84.255" r="2.332"/></g><path fill="#F1CA3A" d="M195.143 84.113h-50.592V67.981a5.175 5.175 0 0 1 5.175-5.175h40.241a5.175 5.175 0 0 1 5.175 5.175v16.132z"/><path opacity=".6" fill="#F5A816" d="M195.458 83.974V64.912c0-1.163-1.26-1.704-2.424-1.704h-22.576v23.363c0 .004-.274.016-.214.016 1.156 0 1.917-.841 2.102-1.944.185 1.103 1.044 1.944 2.2 1.944s2.064-.841 2.249-1.944c.185 1.103 1.117 1.945 2.273 1.945 1.156 0 2.1-.841 2.285-1.945.185 1.103 1.136 1.945 2.291 1.945s2.109-.841 2.294-1.944a2.329 2.329 0 0 0 4.593-.001 2.33 2.33 0 0 0 2.297 1.945c1.288 0 2.491-1.044 2.491-2.332-.001-.096.139-.19.139-.282z"/><defs><circle id="a" cx="170.015" cy="182.571" r="100.309"/></defs><clipPath id="b"><use xlink:href="#a" overflow="visible"/></clipPath><path clip-path="url(#b)" fill="none" d="M69.708 220.702h200.619v69.653H69.708z"/><path fill="#FFF" stroke="#000" stroke-miterlimit="10" d="M209.61 130.583l-25.938 61.125h5.317l-5.317 23h5.497l-5.497 26h51.877l-5.498-26h5.498l-5.318-23h5.318zm-53.599 61.125h-5.317l5.317 23h-5.497l5.497 26h-51.877l5.498-26h-5.498l5.318-23h-5.318l25.939-61.125z"/><path fill="#FFF" stroke="#000" stroke-miterlimit="10" d="M180.441 130.179l-13.973-36.5-31.569 84.029h6.471l-6.471 25h6.691l-6.691 30h63.138l-6.691-30h6.691l-6.472-25h6.472l-17.79-47.094"/><defs><path id="c" d="M180.441 130.179l-13.973-36.75-31.569 83.779h6.471l-6.471 26h6.691l-6.691 30h63.138l-6.691-30h6.691l-6.472-26h6.472l-17.79-46.844"/></defs><clipPath id="d"><use xlink:href="#c" overflow="visible"/></clipPath><g clip-path="url(#d)" fill="#388E3C"><path d="M177.408 195.052a5.628 5.628 0 0 1-3.719-1.398l-56.724-49.624a5.653 5.653 0 0 1-.533-7.975 5.655 5.655 0 0 1 7.975-.533l56.724 49.624a5.653 5.653 0 0 1-3.723 9.906z"/><path d="M177.86 181.546a5.629 5.629 0 0 1-3.728-1.406l-58.486-51.385a5.652 5.652 0 0 1 7.459-8.491l58.486 51.385a5.65 5.65 0 0 1 .516 7.975 5.634 5.634 0 0 1-4.247 1.922z"/><path d="M178.547 169.787a5.629 5.629 0 0 1-3.728-1.406l-58.486-51.385a5.652 5.652 0 0 1 7.459-8.491l58.486 51.385a5.65 5.65 0 0 1-3.731 9.897z"/><path d="M190.747 169.525a5.629 5.629 0 0 1-3.728-1.406l-58.486-51.385a5.652 5.652 0 0 1 7.459-8.491l58.486 51.385a5.65 5.65 0 0 1-3.731 9.897z"/><path d="M192.563 157.465a5.629 5.629 0 0 1-3.728-1.406l-58.486-51.385a5.652 5.652 0 0 1 7.459-8.491l58.486 51.385a5.65 5.65 0 0 1-3.731 9.897z"/><path d="M194.826 146.943a5.629 5.629 0 0 1-3.728-1.406l-58.486-51.385a5.652 5.652 0 0 1 7.459-8.491l58.486 51.385a5.65 5.65 0 0 1 .516 7.975 5.634 5.634 0 0 1-4.247 1.922z"/><path d="M197.574 137.516a5.629 5.629 0 0 1-3.728-1.406L135.36 84.725a5.652 5.652 0 0 1 7.459-8.491l58.486 51.385a5.65 5.65 0 0 1 .516 7.975 5.632 5.632 0 0 1-4.247 1.922z"/><path d="M196.834 134.29a5.629 5.629 0 0 1-3.728-1.406L134.62 81.498a5.652 5.652 0 0 1 7.459-8.491l58.486 51.385a5.65 5.65 0 0 1 .516 7.975 5.633 5.633 0 0 1-4.247 1.923zm-27.032 66.984a5.626 5.626 0 0 1-3.562-1.266l-49.613-40.339a1.662 1.662 0 0 1-.617-1.094c-.763-6.947 8.603-15.337 12.312-12.321l46.636 46.273c.334.272.565.658.612 1.086.549 4.987-2.584 7.661-5.768 7.661z"/><path d="M184.181 228.489a5.629 5.629 0 0 1-3.685-1.368l-52.497-45.176a5.652 5.652 0 0 1 7.374-8.568l52.497 45.176a5.652 5.652 0 0 1-3.689 9.936z"/><path d="M163.304 221.77a5.63 5.63 0 0 1-3.735-1.412l-55.772-49.165a5.653 5.653 0 0 1 7.476-8.48l55.772 49.165a5.653 5.653 0 0 1-3.741 9.892z"/><path d="M160.788 215.749a5.63 5.63 0 0 1-3.735-1.412l-55.772-49.165a5.653 5.653 0 0 1 7.476-8.48l55.772 49.165a5.653 5.653 0 0 1-3.741 9.892z"/><path d="M155.878 225.416a5.628 5.628 0 0 1-3.743-1.42l-78.031-69.053a5.652 5.652 0 0 1 7.491-8.465l78.031 69.053a5.652 5.652 0 0 1-3.748 9.885z"/></g><path d="M155.437 212.362a5.472 5.472 0 0 0 10.944 0h-10.944zm-10.944 0a5.47 5.47 0 0 0 5.472 5.472c3.02 0 5.472-2.45 5.472-5.472h-10.944zm27.602-83.545a5.472 5.472 0 0 0 10.944 0h-10.944zm-10.944 0a5.47 5.47 0 0 0 5.472 5.472c3.02 0 5.472-2.45 5.472-5.472h-10.944zm3.788 51.54h-9.634v-17.341a9.634 9.634 0 0 1 9.634-9.634 9.634 9.634 0 0 1 9.634 9.634v7.707a9.634 9.634 0 0 1-9.634 9.634z" fill="#FFF" stroke="#000" stroke-miterlimit="10"/><circle fill="#F57C00" cx="160.959" cy="160.225" r="1.927"/><path opacity=".2" fill="#404040" d="M159.289 168.208c0 1-.863 1.927-1.927 1.927s-1.927-.927-1.927-1.927h3.854zm4.11 0c0 1-.863 1.927-1.927 1.927s-1.927-.927-1.927-1.927h3.854zm4.111 0c0 1-.863 1.927-1.927 1.927s-1.927-.927-1.927-1.927h3.854z"/><path opacity=".2" fill="#404040" d="M161.344 169.208c0 2-.863 1.927-1.927 1.927s-1.927.073-1.927-1.927h3.854zm-4.111.312c0 1.657-.863 1.927-1.927 1.927l-.006-1.927h1.933zm0 5.801c0 .829-.863 1.927-1.927 1.927l-.006-1.927h1.933zm6.166-3.113c0 1-.863 1.927-1.927 1.927s-1.927-.927-1.927-1.927h3.854zm-4.11 0c0 1-.863 1.927-1.927 1.927s-1.927-.927-1.927-1.927h3.854zm6.165-3c0 2-.863 1.927-1.927 1.927s-1.927.073-1.927-1.927h3.854z"/><circle fill="#F57C00" cx="168.666" cy="160.225" r="1.927"/><path fill="#332E2E" d="M163.322 160.611h3.137l-1.568 3.881z"/><path fill="#FFF" d="M162.533 232.869h8.416v35.597h-8.416z"/><path d="M170.449 233.369v34.597h-7.416v-34.597h7.416m1-1h-9.416v36.597h9.416v-36.597z"/><path fill="#FFF" d="M204.214 240.432h6.736v20.694h-6.736z"/><path d="M210.45 240.932v19.694h-5.736v-19.694h5.736m1-1h-7.736v21.694h7.736v-21.694z"/><path fill="#FFF" d="M124.676 240.432h6.737v20.694h-6.737z"/><path d="M130.913 240.932v19.694h-5.736v-19.694h5.736m1-1h-7.736v21.694h7.736v-21.694z"/><path opacity=".1" fill="#404040" d="M155.437 178.545h15.157v3.017h-15.157z"/><path fill="#FFF" stroke="#000" stroke-miterlimit="10" d="M162.92 180.353c.098 2.567 2.762 4.786 5.439 4.786a5.472 5.472 0 0 0 5.473-5.472h-3.599m-14.795 0h-3.494a5.47 5.47 0 0 0 5.472 5.472c2.857 0 5.205-1.991 5.451-4.786"/><path fill="none" stroke="#000" stroke-miterlimit="10" d="M164.939 180.357h-9.634v-17.341a9.634 9.634 0 0 1 9.634-9.634 9.634 9.634 0 0 1 9.634 9.634v7.707a9.634 9.634 0 0 1-9.634 9.634zm-69.481 68.351h30m6 0h32m8 0h33m7 0h35"/><path opacity=".1" fill="#4374E0" d="M226.492 99.278c10.964 16.099 17.375 35.546 17.375 56.492 0 55.498-44.99 100.489-100.489 100.489-20.946 0-40.393-6.412-56.492-17.375C104.972 265.44 135.448 282.88 170 282.88c55.498 0 100.489-44.99 100.489-100.489 0-34.551-17.441-65.028-43.997-83.113z"/><g opacity=".25"><path d="M181.831 226.778l1.665 1.665a6.831 6.831 0 0 0 8.738.774l26.346-15.351-22.169-22.171-15.353 26.344a6.832 6.832 0 0 0 .773 8.739z"/><path d="M218.766 217.668l-26.16-26.16 93.888-93.89 26.16 26.161z"/><path d="M226.295 210.139l-26.16-26.16 78.83-78.83 26.16 26.16z"/><path d="M291.44 144.998l-26.161-26.16 3.191-3.191 26.16 26.16zm5.273-5.271l-26.16-26.16 3.19-3.192 26.161 26.16zm-65.135 65.123l-26.161-26.16 3.191-3.192 26.16 26.16zm5.272-5.27l-26.16-26.161 3.19-3.191 26.161 26.16zm-3.838-34.235l11.921 11.922a4.438 4.438 0 0 0 6.258 0l26.17-26.168a4.438 4.438 0 0 0 0-6.258L265.44 132.92a4.438 4.438 0 0 0-6.258 0l-26.17 26.168a4.437 4.437 0 0 0 0 6.257z"/><path opacity=".3" d="M299.758 110.887l12.898 12.898-93.876 93.877-12.899-12.898zm-87.581 100.175l4.1 4.1-24.119 14.019a6.832 6.832 0 0 1-8.737-.784l-1.663-1.667a6.782 6.782 0 0 1-1.036-1.382c2.251 1.315 5.111 1.28 7.336-.267l24.119-14.019z"/></g><path fill="#2F7F2F" d="M179.831 224.778l1.665 1.665a6.831 6.831 0 0 0 8.738.774l26.346-15.351-22.169-22.171-15.353 26.344a6.832 6.832 0 0 0 .773 8.739z"/><path fill="#2F7F2F" d="M216.766 215.668l-26.16-26.16 93.888-93.89 26.16 26.161z"/><path fill="#4CAF50" d="M224.295 208.139l-26.16-26.16 78.83-78.83 26.16 26.16z"/><path fill="#388E3C" d="M289.44 142.998l-26.16-26.16 3.19-3.191 26.16 26.16zm5.273-5.271l-26.16-26.16 3.19-3.192 26.161 26.16zm-65.135 65.123l-26.16-26.16 3.19-3.192 26.16 26.16zm5.272-5.27l-26.16-26.161 3.19-3.191 26.161 26.16zm-3.838-34.235l11.921 11.922a4.438 4.438 0 0 0 6.258 0l26.17-26.168a4.438 4.438 0 0 0 0-6.258L263.44 130.92a4.438 4.438 0 0 0-6.258 0l-26.17 26.168a4.437 4.437 0 0 0 0 6.257z"/><path opacity=".3" fill="#2E7D32" d="M297.758 108.887l12.898 12.898-93.876 93.877-12.899-12.898zm-87.581 100.175l4.1 4.1-24.119 14.019a6.832 6.832 0 0 1-8.737-.784l-1.663-1.667a6.782 6.782 0 0 1-1.036-1.382c2.251 1.315 5.111 1.28 7.336-.267l24.119-14.019z"/></svg>