<svg xmlns="http://www.w3.org/2000/svg" xmlns:xlink="http://www.w3.org/1999/xlink" width="323.928" height="375.504" viewBox="0 0 323.928 375.504"><circle fill="#fff" stroke="#000" stroke-miterlimit="10" cx="134.422" cy="241.06" r="133.922"/><path fill="#F1CA3A" d="M134.42 87.71c-2.146 0-3.886-1.742-3.886-3.888V57.568l3.887-.008c14.185 0 25.724-11.167 25.724-24.893 0-13.96-10.6-24.893-24.13-24.893-14.006 0-25.4 11.167-25.4 24.893 0 2.147-1.742 3.887-3.888 3.887-2.147 0-3.887-1.74-3.887-3.887C102.837 14.655 117.72 0 136.013 0c17.89 0 31.905 14.35 31.905 32.668 0 16.73-12.965 30.564-29.61 32.45V83.82c-.002 2.146-1.742 3.887-3.89 3.887z"/><path stroke="#F1CA3A" stroke-miterlimit="10" d="M132.2 113.948" fill="none"/><g fill="#F1CA3A"><circle cx="103.614" cy="110.795" r="3.108"/><circle cx="109.737" cy="110.795" r="3.108"/><circle cx="115.86" cy="110.795" r="3.108"/><circle cx="121.983" cy="110.795" r="3.108"/><circle cx="128.107" cy="110.795" r="3.108"/><circle cx="134.23" cy="110.795" r="3.108"/><circle cx="140.353" cy="110.795" r="3.108"/><circle cx="146.476" cy="110.795" r="3.108"/><circle cx="152.6" cy="110.795" r="3.108"/><circle cx="158.723" cy="110.795" r="3.108"/><circle cx="164.846" cy="110.795" r="3.108"/></g><path fill="#F1CA3A" d="M167.93 110.606h-67.425v-23.22c0-2.86 2.317-5.176 5.175-5.176h57.073c2.858 0 5.175 2.317 5.175 5.175v23.22z"/><path opacity=".6" fill="#F5A816" d="M167.422 110.42V85.016c0-1.55-.75-2.056-2.3-2.056h-30.7v30.92c0 .007-.06.022.022.022 1.54 0 2.708-1.12 2.955-2.59.246 1.47 1.467 2.59 3.007 2.59s2.788-1.12 3.035-2.59c.246 1.47 1.508 2.59 3.048 2.59s2.81-1.12 3.055-2.59c.246 1.47 1.518 2.59 3.058 2.59 1.54 0 2.813-1.12 3.06-2.59.247 1.47 1.52 2.59 3.06 2.59s2.816-1.12 3.062-2.59c.246 1.47 1.52 2.59 3.06 2.59 1.718 0 2.855-1.39 2.855-3.108 0-.126-.278-.25-.278-.374z"/><defs><circle id="a" cx="134.445" cy="241.821" r="133.683"/></defs><clipPath id="b"><use xlink:href="#a" overflow="visible"/></clipPath><path clip-path="url(#b)" fill="none" d="M.762 292.638h267.365v92.826H.762z"/><path fill="#fff" stroke="#000" stroke-miterlimit="10" d="M187.213 171.998l-34.568 81.462h7.087l-7.087 31h7.327l-7.327 34h69.137l-7.327-34h7.327l-7.087-31h7.087z"/><path fill="#fff" stroke="#000" stroke-miterlimit="10" d="M115.782 253.46h-7.087l7.087 31h-7.327l7.327 34H46.645l7.327-34h-7.327l7.087-31h-7.087l34.568-81.462z"/><path fill="#fff" stroke="#000" stroke-miterlimit="10" d="M148.34 171.998l-18.623-48.584L87.645 235.46h8.625l-8.625 34h8.917l-8.917 39h84.144l-8.918-39h8.917l-8.625-34h8.624l-23.71-62.822"/><defs><path id="c" d="M148.34 171.998l-18.623-48.334L87.645 235.96h8.625l-8.625 34h8.917l-8.917 39h84.144l-8.918-39h8.917l-8.625-34h8.624l-23.71-63.072"/></defs><clipPath id="d"><use xlink:href="#c" overflow="visible"/></clipPath><g clip-path="url(#d)" fill="#388E3C"><path d="M144.295 258.455c-1.76 0-3.528-.613-4.956-1.862L63.74 190.458c-3.13-2.74-3.448-7.498-.71-10.63 2.74-3.13 7.5-3.444 10.628-.71l75.597 66.135c3.13 2.74 3.448 7.498.71 10.63-1.49 1.7-3.576 2.572-5.672 2.572z"/><path d="M144.897 240.456c-1.765 0-3.538-.616-4.968-1.874L61.983 170.1c-3.126-2.745-3.434-7.504-.687-10.63 2.747-3.122 7.507-3.433 10.63-.686l77.944 68.48c3.127 2.746 3.435 7.505.688 10.63-1.49 1.695-3.57 2.562-5.66 2.562z"/><path d="M145.812 224.784c-1.765 0-3.538-.616-4.968-1.874L62.9 154.43c-3.127-2.746-3.435-7.505-.688-10.63 2.747-3.123 7.507-3.434 10.63-.687l77.944 68.48c3.126 2.746 3.434 7.505.687 10.63-1.49 1.695-3.57 2.56-5.66 2.56z"/><path d="M162.07 224.435c-1.764 0-3.537-.616-4.967-1.874l-77.945-68.48c-3.126-2.745-3.434-7.504-.687-10.63 2.748-3.122 7.508-3.433 10.63-.686l77.945 68.48c3.126 2.746 3.434 7.505.687 10.63-1.49 1.695-3.57 2.56-5.66 2.56z"/><path d="M164.49 208.362c-1.764 0-3.537-.616-4.967-1.874l-77.945-68.48c-3.126-2.746-3.434-7.505-.687-10.63 2.748-3.123 7.508-3.434 10.63-.687l77.945 68.482c3.126 2.745 3.434 7.504.687 10.63-1.49 1.693-3.57 2.56-5.66 2.56z"/><path d="M167.507 194.34c-1.765 0-3.538-.616-4.968-1.874l-77.946-68.48c-3.126-2.746-3.434-7.505-.687-10.63 2.747-3.123 7.507-3.434 10.63-.687l77.944 68.48c3.127 2.745 3.435 7.504.688 10.63-1.488 1.693-3.57 2.56-5.66 2.56z"/><path d="M171.17 181.776c-1.765 0-3.538-.616-4.968-1.874l-77.945-68.48c-3.126-2.746-3.434-7.505-.687-10.63 2.747-3.123 7.507-3.434 10.63-.687l77.944 68.48c3.126 2.746 3.434 7.505.687 10.63-1.488 1.695-3.568 2.56-5.66 2.56z"/><path d="M170.184 177.476c-1.765 0-3.538-.616-4.968-1.874l-77.945-68.48c-3.125-2.746-3.433-7.505-.686-10.63 2.747-3.123 7.507-3.434 10.63-.687l77.944 68.48c3.126 2.746 3.434 7.505.687 10.63-1.49 1.695-3.57 2.56-5.66 2.56z"/><path d="M134.158 266.747c-1.67 0-3.35-.552-4.747-1.687L63.293 211.3c-.448-.364-.76-.884-.822-1.458-1.017-9.258 11.465-20.44 16.41-16.42l62.15 61.67c.445.36.754.876.816 1.446.73 6.645-3.445 10.21-7.688 10.21z"/><path d="M153.32 303.017c-1.74 0-3.488-.6-4.91-1.823l-69.963-60.206c-3.153-2.714-3.51-7.47-.796-10.623 2.717-3.15 7.47-3.51 10.624-.796l69.962 60.205c3.153 2.714 3.51 7.47.796 10.623-1.49 1.73-3.595 2.62-5.712 2.62z"/><path d="M125.498 294.062c-1.77 0-3.545-.62-4.978-1.882l-74.327-65.523c-3.12-2.75-3.42-7.512-.67-10.632s7.508-3.42 10.633-.67l74.327 65.524c3.12 2.75 3.42 7.51.67 10.63-1.49 1.69-3.568 2.552-5.655 2.552z"/><path d="M122.144 286.038c-1.77 0-3.545-.62-4.978-1.882L42.84 218.633c-3.12-2.75-3.42-7.512-.67-10.632s7.507-3.42 10.632-.668l74.327 65.523c3.12 2.75 3.42 7.512.668 10.632-1.49 1.69-3.566 2.55-5.654 2.55z"/><path d="M115.602 298.92c-1.774 0-3.556-.623-4.99-1.89L6.62 205c-3.116-2.756-3.406-7.516-.65-10.63 2.76-3.112 7.518-3.405 10.633-.65l103.993 92.028c3.116 2.757 3.406 7.517.65 10.632-1.49 1.682-3.56 2.54-5.644 2.54z"/></g><g fill="#fff" stroke="#000" stroke-miterlimit="10"><path d="M115.014 281.523c0 4.028 3.262 7.293 7.292 7.293 4.03 0 7.294-3.265 7.294-7.293h-14.586z"/><path d="M100.428 281.523c0 4.028 3.263 7.293 7.293 7.293 4.026 0 7.294-3.265 7.294-7.293h-14.586z"/></g><path fill="#fff" stroke="#000" stroke-miterlimit="10" d="M137.214 170.184c0 4.028 3.262 7.293 7.292 7.293 4.03 0 7.294-3.265 7.294-7.293h-14.586z"/><path fill="#fff" stroke="#000" stroke-miterlimit="10" d="M122.63 170.184c0 4.028 3.262 7.293 7.292 7.293 4.025 0 7.293-3.265 7.293-7.293H122.63z"/><path fill="#fff" stroke="#000" stroke-miterlimit="10" d="M130.45 238.87h-15.613v-25.883c0-5.56 4.507-10.066 10.066-10.066h5.547c5.56 0 10.066 4.508 10.066 10.067v15.82c0 5.557-4.507 10.064-10.066 10.064z"/><circle fill="#F57C00" cx="122.375" cy="212.041" r="2.568"/><path opacity=".2" fill="#404040" d="M120.15 221.96c0 2-1.15 2.568-2.568 2.568-1.418 0-2.568-.568-2.568-2.568h5.136z"/><path opacity=".2" fill="#404040" d="M125.628 221.96c0 2-1.15 2.568-2.568 2.568-1.418 0-2.568-.568-2.568-2.568h5.136z"/><path opacity=".2" fill="#404040" d="M131.106 221.96c0 2-1.15 2.568-2.568 2.568-1.418 0-2.568-.568-2.568-2.568h5.136z"/><path opacity=".2" fill="#404040" d="M122.89 224.96c0 2-1.15 2.568-2.57 2.568-1.417 0-2.567-.568-2.567-2.568h5.136z"/><path opacity=".2" fill="#404040" d="M117.41 224.96c0 2-1.15 2.568-2.567 2.568l-.008-2.568h2.576z"/><path opacity=".2" fill="#404040" d="M117.41 231.96c0 1-1.15 2.568-2.567 2.568l-.008-2.568h2.576z"/><path opacity=".2" fill="#404040" d="M125.628 227.96c0 2-1.15 2.568-2.568 2.568-1.418 0-2.568-.568-2.568-2.568h5.136z"/><path opacity=".2" fill="#404040" d="M120.15 227.96c0 2-1.15 2.568-2.568 2.568-1.418 0-2.568-.568-2.568-2.568h5.136z"/><path opacity=".2" fill="#404040" d="M128.367 224.96c0 2-1.15 2.568-2.568 2.568-1.42 0-2.57-.568-2.57-2.568h5.137z"/><circle fill="#F57C00" cx="132.647" cy="212.041" r="2.568"/><path fill="#332E2E" d="M125.522 212.555h4.18l-2.09 5.172z"/><path fill="#fff" d="M124.305 308.687h11.548v47.773h-11.548z"/><path d="M135.353 309.187v46.773h-10.548v-46.773h10.548m1-1h-12.548v48.773h12.548v-48.773z"/><path fill="#fff" d="M179.852 318.766h9.31v27.912h-9.31z"/><path d="M188.663 319.266v26.912h-8.31v-26.912h8.31m1-1h-10.31v28.912h10.31v-28.912z"/><path fill="#fff" d="M73.852 318.766h9.31v27.912h-9.31z"/><path d="M82.663 319.266v26.912h-8.31v-26.912h8.31m1-1h-10.31v28.912h10.31v-28.912z"/><path opacity=".1" fill="#404040" d="M115.014 236.456h20.2v4.02h-20.2z"/><path fill="#fff" stroke="#000" stroke-miterlimit="10" d="M124.986 238.865c.13 3.42 3.682 6.378 7.25 6.378 4.028 0 7.293-3.265 7.293-7.293h-4.798"/><path fill="#fff" stroke="#000" stroke-miterlimit="10" d="M115.014 237.95h-4.657c0 4.03 3.263 7.294 7.293 7.294 3.808 0 6.937-2.653 7.264-6.378"/><path stroke="#000" stroke-miterlimit="10" d="M130.45 238.87h-15.613v-25.883c0-5.56 4.507-10.066 10.066-10.066h5.547c5.56 0 10.066 4.508 10.066 10.067v15.82c0 5.557-4.507 10.064-10.066 10.064z" fill="none"/><path stroke="#000" stroke-miterlimit="10" fill="none" d="M34.422 329.46h40"/><path stroke="#000" stroke-miterlimit="10" fill="none" d="M83.422 329.46h41"/><path stroke="#000" stroke-miterlimit="10" fill="none" d="M136.422 329.46h44"/><path stroke="#000" stroke-miterlimit="10" fill="none" d="M189.422 329.46h46"/><path opacity=".1" fill="#4374E0" d="M209.71 130.817c14.61 21.455 23.155 47.372 23.155 75.287 0 73.963-59.96 133.922-133.922 133.922-27.915 0-53.832-8.545-75.287-23.156 24.102 35.39 64.718 58.635 110.766 58.635 73.963 0 133.922-59.96 133.922-133.922 0-46.048-23.244-86.664-58.635-110.766z"/><g opacity=".25"><path d="M151.56 301.563l2.218 2.22c3.12 3.118 8.026 3.553 11.645 1.03l35.11-20.457-29.544-29.547-20.462 35.108c-2.523 3.62-2.088 8.525 1.03 11.645z"/><path d="M200.785 289.418l-34.864-34.864 125.126-125.126 34.864 34.865z"/><path d="M210.82 279.384l-34.865-34.864L281.01 139.464l34.865 34.864z"/><path d="M297.638 192.57l-34.864-34.864 4.252-4.252 34.865 34.864z"/><path d="M304.665 185.545L269.8 150.68l4.253-4.252 34.864 34.865z"/><path d="M217.86 272.336l-34.866-34.864 4.253-4.253 34.864 34.864z"/><path d="M224.886 265.31l-34.865-34.864 4.254-4.253 34.864 34.865z"/><path d="M218.727 218.65l17.97 17.97c1.72 1.722 4.536 1.722 6.257 0l36.96-36.955c1.72-1.72 1.72-4.537 0-6.258l-17.97-17.97c-1.72-1.722-4.536-1.722-6.257 0l-36.96 36.955c-1.72 1.72-1.72 4.537 0 6.258z"/><path opacity=".3" d="M308.722 147.115l17.19 17.19-125.11 125.11-17.19-17.19z"/><path opacity=".3" d="M192 280.618l5.465 5.464-32.143 18.683c-3.622 2.518-8.528 2.078-11.644-1.044l-2.216-2.22c-.557-.558-.997-1.188-1.38-1.842 3 1.753 6.81 1.706 9.776-.356L192 280.618z"/></g><path fill="#2F7F2F" d="M149.56 299.563l2.218 2.22c3.12 3.118 8.026 3.553 11.645 1.03l35.11-20.457-29.544-29.547-20.462 35.108c-2.523 3.62-2.088 8.525 1.03 11.645z"/><path fill="#2F7F2F" d="M198.785 287.418l-34.864-34.864 125.126-125.126 34.865 34.865z"/><path fill="#4CAF50" d="M208.82 277.384l-34.865-34.864L279.01 137.464l34.865 34.864z"/><path fill="#388E3C" d="M295.638 190.57l-34.864-34.864 4.253-4.252 34.864 34.864z"/><path fill="#388E3C" d="M302.665 183.545L267.8 148.68l4.253-4.252 34.864 34.865z"/><path fill="#388E3C" d="M215.86 270.336l-34.865-34.864 4.252-4.253 34.864 34.864z"/><path fill="#388E3C" d="M222.886 263.31l-34.864-34.864 4.252-4.253 34.864 34.865z"/><path fill="#388E3C" d="M216.727 216.65l17.97 17.97c1.72 1.722 4.536 1.722 6.257 0l36.96-36.955c1.72-1.72 1.72-4.537 0-6.258l-17.97-17.97c-1.72-1.722-4.536-1.722-6.257 0l-36.96 36.955c-1.72 1.72-1.72 4.537 0 6.258z"/><path opacity=".3" fill="#2E7D32" d="M306.722 145.115l17.19 17.19-125.11 125.11-17.19-17.19z"/><path opacity=".3" fill="#2E7D32" d="M190 278.618l5.465 5.464-32.143 18.683c-3.622 2.518-8.528 2.078-11.644-1.044l-2.216-2.22c-.557-.558-.997-1.188-1.38-1.842 3 1.753 6.81 1.706 9.776-.356L190 278.618z"/></svg>