<svg xmlns="http://www.w3.org/2000/svg" xmlns:xlink="http://www.w3.org/1999/xlink" width="1599" height="902" viewBox="0 0 1599 902"><path fill="#388E3C" d="M0 0h1600v902H0z"/><defs><path id="a" d="M0 0h1599v902H0z"/></defs><clipPath id="b"><use xlink:href="#a" overflow="visible"/></clipPath><path opacity=".3" clip-path="url(#b)" fill="#2E7D32" d="M1939.6 897.1l-133.3 39.5-283.2 52.2-204 37.6-43.4-118.4 109.5 9.1-181.6-271.5 103.5-8.1-170.5-340.3 66.6-.4-105.5-263.7 39.2 8.5-74.5-296.8-25.3-128.4-8.9-49.8 695.1 378.1L1910 852.9zM-96.7-230.8l53.3 10.9 282.3 57.8L442-120.6 437.9 5.5 339.8-44l66.6 319.8-99-31.2 30.5 379.3-61.9-24.6-.9 284-33.2-22.5-42.2 303-24.6 128.6-10.5 49.5-478-608.1 216.7-964.6z"/><path fill="#4CAF50" d="M1435 304.1l-9.4 5.6-1.8-1c.8-1.9 1.2-3.9 1.2-6.1 0-2.2-.4-4.3-1.3-6.2l1.8-1.1 9.4 5.6 2-3.4-7.5-4.4 5.6-3.3-2-3.5-5.6 3.3-.1-8.7-4 .1.2 10.9-1.8 1.1c-2.5-3.3-6.3-5.6-10.6-6.2v-3.1l9.5-5.4-2-3.5-7.6 4.3V273h-4v6.1l-7.6-4.2-2 3.5 9.5 5.3v3c-4.4.5-8.2 2.8-10.8 6.1l-2.5-1.5.1-11h-4l-.1 8.7-4.8-2.7-2 3.5 4.8 2.8-7.5 4.5 2.1 3.4 9.4-5.6 2.5 1.4c-.8 2-1.3 4.1-1.3 6.4 0 2.2.4 4.3 1.3 6.2l-2.4 1.4-9.4-5.6-2 3.4 7.5 4.4-4.8 2.7 2 3.5 4.8-2.8.1 8.7 4-.1-.2-10.9 2.4-1.4c2.6 3.4 6.5 5.7 10.9 6.2v1.9l-9.5 5.4 2 3.5 7.6-4.3v6.5h4V325l7.6 4.2 2-3.5-9.5-5.3v-1.9c4.4-.6 8.2-2.9 10.7-6.3l1.8 1-.1 11h4l.1-8.7 5.6 3.3 2-3.5-5.6-3.3 7.5-4.5-2.2-3.4zm-14-1.5c0 1.4-.2 2.8-.7 4.1l-7.2-4.1 7.1-4.1c.5 1.2.8 2.6.8 4.1zm-2.8-7.7l-7.1 4.1v-8.3c2.9.6 5.4 2.1 7.1 4.2zm-11.1-4.2v8.3l-7.3-4.2c1.8-2.1 4.4-3.6 7.3-4.1zm-10.2 11.9c0-1.5.3-3 .8-4.3l7.4 4.3-7.4 4.3c-.5-1.4-.8-2.8-.8-4.3zm2.8 7.7l7.4-4.3v8.5c-3-.5-5.6-2-7.4-4.2zm11.4 4.2V306l7.2 4.2c-1.7 2.2-4.3 3.7-7.2 4.3zm97.6 286.4l-9.4 5.6-1.8-1c.8-1.9 1.2-3.9 1.2-6.1 0-2.2-.4-4.3-1.3-6.2l1.8-1.1 9.4 5.6 2-3.4-7.5-4.4 5.6-3.3-2-3.5-5.6 3.3-.1-8.7-4 .1.2 10.9-1.8 1.1c-2.5-3.3-6.3-5.6-10.6-6.2v-3.1l9.5-5.4-2-3.5-7.6 4.3v-6.1h-4v6.1l-7.6-4.2-2 3.5 9.5 5.3v3c-4.4.5-8.2 2.8-10.8 6.1l-2.5-1.5.1-11h-4l-.1 8.7-4.8-2.7-2 3.5 4.8 2.8-7.5 4.5 2.1 3.4 9.4-5.6 2.5 1.4c-.8 2-1.3 4.1-1.3 6.4 0 2.2.4 4.3 1.3 6.2l-2.4 1.4-9.4-5.6-2 3.4 7.5 4.4-4.8 2.7 2 3.5 4.8-2.8.1 8.7 4-.1-.2-10.9 2.4-1.4c2.6 3.4 6.5 5.7 10.9 6.2v1.9l-9.5 5.4 2 3.5 7.6-4.3v6.5h4v-6.5l7.6 4.2 2-3.5-9.5-5.3v-1.9c4.4-.6 8.2-2.9 10.7-6.3l1.8 1-.1 11h4l.1-8.7 5.6 3.3 2-3.5-5.6-3.3 7.5-4.5-2.2-3.3zm-14-1.5c0 1.4-.2 2.8-.7 4.1l-7.2-4.1 7.1-4.1c.6 1.2.8 2.6.8 4.1zm-2.7-7.7l-7.1 4.1v-8.3c2.8.5 5.3 2.1 7.1 4.2zm-11.2-4.2v8.3l-7.3-4.2c1.8-2.2 4.4-3.7 7.3-4.1zm-10.1 11.9c0-1.5.3-3 .8-4.3l7.4 4.3-7.4 4.3c-.6-1.4-.8-2.8-.8-4.3zm2.7 7.6l7.4-4.3v8.5c-2.9-.4-5.5-1.9-7.4-4.2zm11.4 4.2v-8.5l7.2 4.2c-1.7 2.2-4.3 3.8-7.2 4.3zM989 797.2l-9.4 5.6-1.8-1c.8-1.9 1.2-3.9 1.2-6.1 0-2.2-.4-4.3-1.3-6.2l1.8-1.1 9.4 5.6 2-3.4-7.5-4.4 5.6-3.3-2-3.5-5.6 3.3-.1-8.7-4 .1.2 10.9-1.8 1.1c-2.5-3.3-6.3-5.6-10.6-6.2v-3.1l9.5-5.4-2-3.5-7.6 4.3V766h-4v6.1l-7.6-4.2-2 3.5 9.5 5.3v3c-4.4.5-8.3 2.8-10.8 6.1l-2.5-1.5.1-11h-4l-.1 8.7-4.8-2.7-2 3.5 4.8 2.8-7.5 4.5 2.1 3.4 9.4-5.6 2.5 1.4c-.8 2-1.3 4.1-1.3 6.4 0 2.2.4 4.3 1.3 6.2l-2.4 1.4-9.4-5.6-2 3.4 7.5 4.4-4.8 2.7 2 3.5 4.8-2.8.1 8.7 4-.1-.2-10.9 2.4-1.4c2.6 3.4 6.5 5.7 10.9 6.2v1.9l-9.5 5.4 2 3.5 7.6-4.3v6.5h4v-6.3l7.6 4.2 2-3.5-9.5-5.3v-1.9c4.4-.6 8.2-2.9 10.7-6.3l1.8 1-.1 11h4l.1-8.7 5.6 3.3 2-3.5-5.6-3.3 7.5-4.5-2.2-3.4zm-14-1.5c0 1.4-.2 2.8-.7 4.1l-7.2-4.1 7.1-4.1c.5 1.2.8 2.6.8 4.1zm-2.8-7.7l-7.1 4.1v-8.3c2.9.5 5.4 2 7.1 4.2zm-11.1-4.2v8.3l-7.3-4.2c1.8-2.2 4.4-3.7 7.3-4.1zm-10.2 11.9c0-1.5.3-3 .8-4.3l7.4 4.3-7.4 4.3c-.5-1.4-.8-2.9-.8-4.3zm2.8 7.6l7.4-4.3v8.5c-3-.4-5.6-2-7.4-4.2zm11.4 4.2V799l7.2 4.2c-1.7 2.2-4.3 3.8-7.2 4.3zm-763.6-71l-4.6 2.8-.9-.5c.4-.9.6-1.9.6-3s-.2-2.1-.6-3.1l.9-.5 4.7 2.8 1-1.7-3.7-2.2 2.8-1.6-1-1.7-2.8 1.6-.1-4.3h-2l.1 5.4-.9.5c-1.2-1.6-3.1-2.8-5.3-3.1v-1.5l4.7-2.7-1-1.7-3.8 2.1V721h-2v3l-3.6-2-1 1.7 4.7 2.6v1.5c-2.2.3-4.1 1.4-5.4 3l-1.2-.7.1-5.4h-2l-.1 4.3-2.4-1.4-1 1.7 2.4 1.4-3.7 2.2 1 1.7 4.6-2.8 1.2.7c-.4 1-.7 2-.7 3.1s.2 2.1.6 3.1l-1.2.7-4.7-2.8-1 1.7 3.7 2.2-2.4 1.4 1 1.7 2.4-1.4.1 4.3h2l-.1-5.4 1.2-.7c1.3 1.7 3.2 2.8 5.4 3.1v.9l-4.7 2.7 1 1.7 3.8-2.1v3.2h2v-3.2l3.8 2.1 1-1.7-4.7-2.6v-.9c2.2-.3 4.1-1.5 5.3-3.1l.9.5-.1 5.4h2l.1-4.3 2.8 1.6 1-1.7-2.8-1.6 3.7-2.2-1.1-1.7zm-6.9-.8c0 .7-.1 1.4-.4 2l-3.6-2.1 3.5-2c.4.7.5 1.4.5 2.1zm-1.4-3.8l-3.5 2v-4.1c1.4.3 2.7 1.1 3.5 2.1zm-5.5-2.1v4.1l-3.6-2.1c.9-1 2.2-1.7 3.6-2zm-5 5.9c0-.8.1-1.5.4-2.1l3.6 2.1-3.7 2.1c-.2-.6-.3-1.3-.3-2.1zm1.4 3.8l3.7-2.1v4.2c-1.5-.2-2.8-1-3.7-2.1zm5.6 2.1v-4.2l3.6 2.1c-.9 1.1-2.2 1.8-3.6 2.1zm474.1-229.7l-4.6 2.8-.9-.5c.4-.9.6-1.9.6-3s-.2-2.1-.6-3.1l.9-.5 4.7 2.8 1-1.7-3.7-2.2 2.8-1.6-1-1.7-2.8 1.6-.1-4.3h-2l.1 5.4-.9.5c-1.2-1.6-3.1-2.8-5.3-3.1v-1.5l4.7-2.7-1-1.7-3.8 2.1v-3h-2v3l-3.8-2.1-1 1.7 4.7 2.6v1.5c-2.2.3-4.1 1.4-5.4 3l-1.2-.7.1-5.4h-2l-.1 4.3-2.4-1.4-1 1.7 2.4 1.4-3.7 2.2 1 1.7 4.6-2.8 1.2.7c-.4 1-.7 2-.7 3.1s.2 2.1.6 3.1l-1.2.7-4.7-2.8-1 1.7 3.7 2.2-2.4 1.4 1 1.7 2.4-1.4.1 4.3h2l-.1-5.4 1.2-.7c1.3 1.7 3.2 2.8 5.4 3.1v.9l-4.7 2.7 1 1.7 3.8-2.1v3.2h2v-3.2l3.8 2.1 1-1.7-4.7-2.6v-.9c2.2-.3 4.1-1.5 5.3-3.1l.9.5-.1 5.4h2l.1-4.3 2.8 1.6 1-1.7-2.8-1.6 3.7-2.2-.9-1.7zm-7-.7c0 .7-.1 1.4-.4 2l-3.6-2.1 3.5-2c.4.6.5 1.3.5 2.1zm-1.3-3.8l-3.5 2v-4.1c1.4.3 2.6 1 3.5 2.1zm-5.5-2.1v4.1l-3.6-2.1c.8-1.1 2.1-1.8 3.6-2zm-5.1 5.9c0-.8.1-1.5.4-2.1l3.6 2.1-3.7 2.1c-.1-.7-.3-1.4-.3-2.1zm1.4 3.8l3.7-2.1v4.2c-1.5-.3-2.8-1.1-3.7-2.1zm5.6 2v-4.2l3.6 2.1c-.9 1.1-2.1 1.9-3.6 2.1zm-52-402.1l-5.5 3.3-1-.6c.5-1.1.7-2.3.7-3.6 0-1.3-.3-2.5-.7-3.6l1.1-.6 5.5 3.3 1.2-2-4.4-2.6 3.3-1.9-1.2-2-3.3 1.9-.1-5.1h-2.3l.1 6.4-1.1.6c-1.5-1.9-3.7-3.3-6.2-3.6V103l5.6-3.1-1.1-2-4.4 2.5v-3.8h-2.3v3.6l-4.4-2.5-1.1 2.1 5.6 3.1v1.8c-2.6.3-4.8 1.6-6.3 3.6l-1.5-.9.1-6.4h-2.3l-.1 5.1-2.8-1.6-1.2 2 2.8 1.6-4.4 2.6 1.2 2 5.5-3.3 1.5.8c-.5 1.1-.8 2.4-.8 3.7 0 1.3.3 2.5.7 3.6l-1.4.8-5.5-3.3-1.2 2 4.4 2.6-2.8 1.6 1.2 2 2.8-1.6.1 5.1h2.3l-.1-6.4 1.4-.8c1.5 2 3.8 3.4 6.4 3.7v1.1l-5.6 3.1 1.1 2 4.4-2.5v3.8h2.3v-3.9l4.4 2.5 1.1-2.1-5.6-3.1V123c2.6-.3 4.8-1.7 6.3-3.7l1 .6-.1 6.4h2.3l.1-5.1 3.3 1.9 1.2-2-3.3-1.9 4.4-2.6-1.3-1.7zm-8.2-.9c0 .8-.1 1.6-.4 2.4l-4.2-2.4 4.2-2.4c.2.8.4 1.6.4 2.4zm-1.6-4.4l-4.2 2.4v-4.9c1.6.3 3.1 1.2 4.2 2.5zm-6.6-2.5v4.9l-4.3-2.5c1.1-1.3 2.6-2.1 4.3-2.4zm-5.9 6.9c0-.9.2-1.7.5-2.5l4.3 2.5-4.3 2.5c-.4-.8-.5-1.6-.5-2.5zm1.6 4.5l4.3-2.5v5c-1.7-.3-3.2-1.2-4.3-2.5zm6.7 2.5v-5l4.2 2.4c-1 1.4-2.5 2.3-4.2 2.6zM261.8 56.6l-5.5 3.3-1-.6c.5-1.1.7-2.3.7-3.6 0-1.3-.3-2.5-.7-3.6l1.1-.6 5.5 3.3 1.2-2-4.4-2.6 3.3-1.9-1.2-2-3.3 1.9-.1-5.1h-2.3l.1 6.4-1.1.6c-1.5-1.9-3.7-3.3-6.2-3.6v-1.8l5.6-3.1-1.1-2-4.4 2.5v-3.6h-2.3v3.6l-4.4-2.5-1.1 2.1 5.6 3.1v1.8c-2.6.3-4.8 1.6-6.3 3.6l-1.5-.9.1-6.4h-2.3l-.1 5.1-2.8-1.6-1.2 2 2.8 1.6-4.4 2.6 1.2 2 5.5-3.3 1.5.8c-.5 1.1-.8 2.4-.8 3.7 0 1.3.3 2.5.7 3.6l-1.4.8-5.5-3.3-1.2 2 4.4 2.6-2.8 1.6 1.2 2 2.8-1.6.1 5.1h2.3l-.1-6.4 1.4-.8c1.5 2 3.8 3.4 6.4 3.7v1.1l-5.6 3.1 1.1 2 4.4-2.5v3.8h2.3v-3.9l4.4 2.5 1.1-2.1-5.6-3.1v-1c2.6-.3 4.8-1.7 6.3-3.7l1 .6-.1 6.4h2.3l.1-5.1 3.3 1.9 1.2-2-3.3-1.9 4.4-2.6-1.3-2zm-8.1-.9c0 .8-.1 1.6-.4 2.4l-4.2-2.4 4.2-2.4c.2.7.4 1.5.4 2.4zm-1.7-4.5l-4.2 2.4v-4.9c1.7.3 3.2 1.2 4.2 2.5zm-6.5-2.5v4.9l-4.3-2.5c1.1-1.3 2.6-2.1 4.3-2.4zm-5.9 7c0-.9.2-1.7.5-2.5l4.3 2.5-4.3 2.5c-.4-.8-.5-1.7-.5-2.5zm1.6 4.5l4.3-2.5v5c-1.7-.3-3.3-1.2-4.3-2.5zm6.7 2.4v-4.9l4.2 2.4c-1.1 1.3-2.5 2.2-4.2 2.5zm746.8 65.8l-5.5 3.3-1-.6c.5-1.1.7-2.3.7-3.6 0-1.3-.3-2.5-.7-3.6l1.1-.6 5.5 3.3 1.2-2-4.4-2.6 3.3-1.9-1.2-2-3.3 1.9-.1-5.1H988l.1 6.4-1.1.6c-1.5-1.9-3.7-3.3-6.2-3.6v-1.8l5.6-3.1-1.1-2-4.4 2.5v-3.6h-2.3v3.6l-4.4-2.5-1.1 2.1 5.6 3.1v1.8c-2.6.3-4.8 1.6-6.3 3.6l-1.5-.9.1-6.4h-2.3l-.1 5.1-2.8-1.6-1.2 2 2.8 1.6-4.4 2.6 1.2 2 5.5-3.3 1.5.8c-.5 1.1-.8 2.4-.8 3.7 0 1.3.3 2.5.7 3.6l-1.4.8-5.5-3.3-1.2 2 4.4 2.6-2.8 1.6 1.2 2 2.8-1.6.1 5.1h2.3l-.1-6.4 1.4-.8c1.5 2 3.8 3.4 6.4 3.7v1.1l-5.6 3.1 1.1 2 4.4-2.5v3.8h2.3v-3.9l4.4 2.5 1.1-2.1-5.6-3.1v-1.1c2.6-.3 4.8-1.7 6.3-3.7l1 .6-.1 6.4h2.3l.1-5.1 3.3 1.9 1.2-2-3.3-1.9 4.4-2.6-1.3-1.9zm-8.2-.9c0 .8-.1 1.6-.4 2.4l-4.2-2.4 4.2-2.4c.3.7.4 1.5.4 2.4zm-1.6-4.5l-4.2 2.4v-4.9c1.7.4 3.2 1.3 4.2 2.5zm-6.5-2.5v4.9l-4.3-2.5c1.1-1.2 2.6-2.1 4.3-2.4zm-6 7c0-.9.2-1.7.5-2.5l4.3 2.5-4.3 2.5c-.3-.8-.5-1.6-.5-2.5zm1.6 4.5l4.3-2.5v5c-1.7-.3-3.2-1.2-4.3-2.5zm6.7 2.4v-4.9l4.2 2.4c-1 1.3-2.5 2.2-4.2 2.5z"/></svg>