<svg xmlns="http://www.w3.org/2000/svg" viewBox="0 0 139.29 300"><defs><style>.cls-1{fill:#f2faff;}.cls-2{fill:#ffd9e5;}.cls-3{fill:#99eaff;}.cls-4{fill:#e8aef2;}.cls-5{fill:#ff7c73;}.cls-6{fill:#f5b282;}.cls-7{fill:#a4f5ce;}.cls-8{fill:#f9ed7f;}.cls-9{fill:#74e2ab;}.cls-10{fill:#6cd39d;}.cls-11{opacity:0.03;}</style></defs><title>spray_can_sprinkles</title><g id="Layer_2" data-name="Layer 2"><g id="Layer_3" data-name="Layer 3"><rect class="cls-1" x="3.94" y="77.46" width="132.02" height="214.8" transform="translate(139.89 369.72) rotate(-180)"/><path class="cls-2" d="M102.26,117.88l2.45,11.68a3,3,0,0,0,2.91,2.37,3.34,3.34,0,0,0,.62-.06,3,3,0,0,0,2.3-3.53l-2.44-11.68a3,3,0,1,0-5.84,1.22Z"/><path class="cls-3" d="M127.43,151.77a3,3,0,0,0-4-1.29L112.81,156a3,3,0,0,0,1.37,5.63,3,3,0,0,0,1.36-.33l10.61-5.47A3,3,0,0,0,127.43,151.77Z"/><path class="cls-4" d="M133.89,115.57l2.06-2.09V105l-6.31,6.4a3,3,0,0,0,0,4.21,3,3,0,0,0,4.22,0Z"/><path class="cls-2" d="M15.32,89.71l.46,0a3,3,0,0,0,2.94-2.53l1.5-9.75h-6l-1.35,8.85A3,3,0,0,0,15.32,89.71Z"/><path class="cls-3" d="M9.85,118.32l.35,0,11.85-1.4a3,3,0,1,0-.7-5.92L9.5,112.38a3,3,0,0,0,.35,5.94Z"/><path class="cls-5" d="M79.74,155.53a3,3,0,0,0,2.52,1.38,3,3,0,0,0,1.6-.47L93.92,150a3,3,0,0,0-3.21-5l-10.06,6.43A3,3,0,0,0,79.74,155.53Z"/><path class="cls-3" d="M94.89,104.14l-9.24-7.55a3,3,0,1,0-3.77,4.61l9.24,7.55a2.92,2.92,0,0,0,1.88.68,3,3,0,0,0,1.89-5.29Z"/><path class="cls-4" d="M75,117.81a3,3,0,0,0-3.21,2.73l-1,11.89a3,3,0,0,0,2.72,3.21l.25,0a3,3,0,0,0,3-2.74l1-11.89A3,3,0,0,0,75,117.81Z"/><path class="cls-6" d="M104.86,85l11.73,2.14a3.29,3.29,0,0,0,.54,0,3,3,0,0,0,.53-5.92l-11.74-2.13A3,3,0,1,0,104.86,85Z"/><path class="cls-7" d="M51.81,95.62l-11.92-.54a3,3,0,1,0-.28,6l11.92.55h.14a3,3,0,0,0,.14-6Z"/><path class="cls-8" d="M48.15,124a3,3,0,0,0-4.14-.8l-9.9,6.66a3,3,0,0,0,3.33,4.95l9.9-6.67A3,3,0,0,0,48.15,124Z"/><path class="cls-2" d="M12,270.56l2.44,11.68a3,3,0,0,0,2.92,2.37,2.54,2.54,0,0,0,.61-.07A3,3,0,0,0,20.31,281l-2.45-11.68A3,3,0,1,0,12,270.56Z"/><path class="cls-6" d="M90.53,288.16a3.15,3.15,0,0,0,.53,0L102.81,286a3,3,0,0,0-1.06-5.87L90,282.25a3,3,0,0,0,.52,5.91Z"/><path class="cls-7" d="M10,247.37a3,3,0,0,0,.74-5.87l-6.79-1.75v6.15l5.3,1.37A2.76,2.76,0,0,0,10,247.37Z"/><path class="cls-5" d="M50,286a3,3,0,1,0-5.78-1.45l-1.94,7.7h6.15Z"/><path class="cls-4" d="M49.32,265.42a2.93,2.93,0,0,0,2.12-.89L59.82,256a3,3,0,1,0-4.24-4.19l-8.38,8.5a3,3,0,0,0,0,4.21A2.93,2.93,0,0,0,49.32,265.42Z"/><path class="cls-2" d="M79.45,216.58A3,3,0,0,0,82.37,219a3.15,3.15,0,0,0,.61-.06,3,3,0,0,0,2.31-3.53l-2.45-11.68A3,3,0,1,0,77,204.9Z"/><path class="cls-3" d="M82,256.93a3,3,0,0,0,1.36-.33L94,251.13a3,3,0,1,0-2.73-5.3l-10.6,5.47A3,3,0,0,0,82,256.93Z"/><path class="cls-6" d="M136,214.11l-6.4,1.15a3,3,0,0,0,.53,5.92,3.27,3.27,0,0,0,.53-.05l5.34-1Z"/><path class="cls-7" d="M111.2,254.62a3,3,0,0,0,3.73-2l3.53-11.4a3,3,0,1,0-5.69-1.77l-3.53,11.4A3,3,0,0,0,111.2,254.62Z"/><path class="cls-8" d="M131.26,263.65a3,3,0,0,0-4.15.69l-6.94,9.71a3,3,0,0,0,.7,4.16,2.93,2.93,0,0,0,1.73.56,3,3,0,0,0,2.43-1.25L132,267.8A3,3,0,0,0,131.26,263.65Z"/><path class="cls-7" d="M84.64,179.87a3,3,0,0,0,2.15,3.63l11.55,3a3.22,3.22,0,0,0,.75.1,3,3,0,0,0,.74-5.87l-11.56-3A3,3,0,0,0,84.64,179.87Z"/><path class="cls-5" d="M124.11,194.7a3,3,0,0,0,3.61-2.17L130.63,181a3,3,0,1,0-5.78-1.45l-2.91,11.57A3,3,0,0,0,124.11,194.7Z"/><path class="cls-4" d="M112.69,208.21a3,3,0,0,0-4.21,0l-8.38,8.5a3,3,0,1,0,4.24,4.18l8.38-8.49A3,3,0,0,0,112.69,208.21Z"/><path class="cls-2" d="M61.74,153.6a3,3,0,0,0,.84-5.84l-11.44-3.38a3,3,0,0,0-1.69,5.71l11.44,3.38A2.83,2.83,0,0,0,61.74,153.6Z"/><path class="cls-3" d="M18.93,154.31l.22-11.93a3,3,0,1,0-6-.11L13,154.2a3,3,0,0,0,2.93,3h0A3,3,0,0,0,18.93,154.31Z"/><path class="cls-3" d="M22.74,224.19a3,3,0,0,0,2-.81l8.72-8.13a3,3,0,0,0-4.06-4.36L20.71,219a3,3,0,0,0,2,5.17Z"/><path class="cls-4" d="M3.94,205.74,11,207.31a2.94,2.94,0,0,0,.65.07,3,3,0,0,0,.64-5.89l-8.35-1.85Z"/><path class="cls-6" d="M31.59,255.65a3,3,0,0,0,.93.15,3,3,0,0,0,2.83-2.06l3.7-11.34a3,3,0,1,0-5.67-1.85l-3.7,11.35A3,3,0,0,0,31.59,255.65Z"/><path class="cls-7" d="M27.11,189A3,3,0,0,0,30,186.56l2.15-11.74a3,3,0,1,0-5.86-1.07l-2.15,11.73A3,3,0,0,0,26.57,189,2.47,2.47,0,0,0,27.11,189Z"/><path class="cls-5" d="M64.34,230.53a2.93,2.93,0,0,0,2.2-1,3,3,0,0,0-.19-4.21l-8.81-8a3,3,0,0,0-4,4.4l8.81,8A3,3,0,0,0,64.34,230.53Z"/><path class="cls-4" d="M52.63,175.72a3,3,0,0,0-2,3.73l3.51,11.4A3,3,0,0,0,57,193a2.91,2.91,0,0,0,.87-.13,3,3,0,0,0,2-3.73l-3.51-11.4A3,3,0,0,0,52.63,175.72Z"/><rect class="cls-9" y="292.26" width="139.29" height="7.74"/><path class="cls-9" d="M8.5,70.23a64.75,64.75,0,0,1,6.28-12.09A39.47,39.47,0,0,1,42.83,40.78V32.21H96.47v8.56A38.8,38.8,0,0,1,123.76,57a65.52,65.52,0,0,1,7,13.21h8.5V78H0V70.23Z"/><polygon class="cls-10" points="73.02 29.33 83.72 29.33 83.72 0 56.36 0 56.36 29.33 66.27 29.33 66.27 32.21 73.02 32.21 73.02 29.33"/><rect class="cls-11" x="3.94" y="77.46" width="55.58" height="214.8" transform="translate(63.45 369.72) rotate(-180)"/></g></g></svg>