<?xml version="1.0" encoding="utf-8"?>
<!-- Generator: Adobe Illustrator 17.0.2, SVG Export Plug-In . SVG Version: 6.00 Build 0)  -->
<!DOCTYPE svg PUBLIC "-//W3C//DTD SVG 1.1//EN" "http://www.w3.org/Graphics/SVG/1.1/DTD/svg11.dtd">
<svg version="1.1" id="Layer_1" xmlns="http://www.w3.org/2000/svg" xmlns:xlink="http://www.w3.org/1999/xlink" x="0px" y="0px"
	 width="1029.762px" height="431.628px" viewBox="10.32 4.159 1029.762 431.628"
	 enable-background="new 10.32 4.159 1029.762 431.628" xml:space="preserve">
<path fill="#49B880" d="M380.042,244.214c-33.106,0-59.943,26.837-59.943,59.943v131.63h119.886v-131.63
	C439.985,271.051,413.147,244.214,380.042,244.214z"/>
<g>
	<path fill="#FFE600" d="M72.825,244.214c-33.106,0-59.943,26.837-59.943,59.943v131.63h119.886v-131.63
		C132.768,271.051,105.93,244.214,72.825,244.214z"/>
	<path opacity="0.2" enable-background="new    " d="M72.825,244.214c-33.106,0-59.943,26.837-59.943,59.943v20
		c0-33.105,26.837-59.943,59.943-59.943c33.105,0,59.943,26.837,59.943,59.943v-20C132.768,271.051,105.93,244.214,72.825,244.214z"
		/>
</g>
<g>
	<path fill="#333333" d="M226.535,244.214c-33.106,0-59.943,26.837-59.943,59.943v131.63h119.886v-131.63
		C286.478,271.051,259.641,244.214,226.535,244.214z"/>
	<path opacity="0.2" enable-background="new    " d="M226.535,244.214c-33.106,0-59.943,26.837-59.943,59.943v20
		c0-33.105,26.837-59.943,59.943-59.943c33.105,0,59.943,26.837,59.943,59.943v-20C286.478,271.051,259.641,244.214,226.535,244.214
		z"/>
</g>
<g>
	<circle fill="#FFFFFF" cx="226.2" cy="374.348" r="27.367"/>
	<g>
		<path fill="#E6E7E8" d="M245.287,354.744c1.38,3.27,2.144,6.863,2.144,10.635c0,15.114-12.253,27.367-27.367,27.367
			c-7.426,0-14.156-2.962-19.087-7.764c4.15,9.832,13.881,16.732,25.223,16.732c15.114,0,27.367-12.253,27.367-27.367
			C253.567,366.659,250.392,359.715,245.287,354.744z"/>
	</g>
	<circle fill="#FFFFFF" cx="226.2" cy="333.935" r="21.478"/>
	<g>
		<path fill="#E6E7E8" d="M241.512,318.879c0.729,2.159,1.13,4.469,1.13,6.874c0,11.863-9.616,21.48-21.478,21.48
			c-5.996,0-11.416-2.46-15.312-6.422c2.867,8.489,10.89,14.604,20.347,14.604c11.863,0,21.478-9.617,21.478-21.48
			C247.678,328.07,245.324,322.756,241.512,318.879z"/>
	</g>
	<circle fill="#FFFFFF" cx="226.2" cy="302.456" r="18.434"/>
	<g>
		<path fill="#E6E7E8" d="M239.792,290.036c0.677,1.919,1.065,3.975,1.065,6.126c0,10.181-8.253,18.435-18.434,18.435
			c-5.388,0-10.221-2.327-13.592-6.014c2.528,7.164,9.339,12.307,17.368,12.307c10.181,0,18.434-8.255,18.434-18.435
			C244.633,297.665,242.789,293.314,239.792,290.036z"/>
	</g>
	<polygon fill="#F68C38" stroke="#F68C38" stroke-width="1.9677" stroke-linejoin="round" stroke-miterlimit="10" points="
		226.309,301.187 240.934,305.412 226.309,306.584 	"/>
	<ellipse fill="#7D6A5A" cx="219.421" cy="296.883" rx="1.759" ry="1.161"/>
	<ellipse fill="#7D6A5A" cx="233.411" cy="297.223" rx="1.604" ry="1.324"/>
</g>
<path fill="#06552C" d="M533.516,244.214c-33.106,0-59.943,26.837-59.943,59.943v131.63h119.886v-131.63
	C593.459,271.051,566.622,244.214,533.516,244.214z"/>
<path opacity="0.2" enable-background="new    " d="M533.516,244.214c-33.106,0-59.943,26.837-59.943,59.943v20
	c0-33.105,26.837-59.943,59.943-59.943c33.105,0,59.943,26.837,59.943,59.943v-20C593.459,271.051,566.622,244.214,533.516,244.214z
	"/>
<path fill="#CCCCCC" d="M687.739,244.214c-33.106,0-59.943,26.837-59.943,59.943v131.63h119.886v-131.63
	C747.682,271.051,720.845,244.214,687.739,244.214z"/>
<path opacity="0.2" enable-background="new    " d="M687.227,244.214c-33.106,0-59.943,26.837-59.943,59.943v20
	c0-33.105,26.837-59.943,59.943-59.943c33.105,0,59.943,26.837,59.943,59.943v-20C747.169,271.051,720.332,244.214,687.227,244.214z
	"/>
<path fill="#701811" d="M840.937,244.214c-33.106,0-59.943,26.837-59.943,59.943v131.63H900.88v-131.63
	C900.88,271.051,874.042,244.214,840.937,244.214z"/>
<g opacity="0.2">
	<path d="M840.937,244.214c-33.106,0-59.943,26.837-59.943,59.943v20c0-33.105,26.837-59.943,59.943-59.943
		c33.105,0,59.943,26.837,59.943,59.943v-20C900.88,271.051,874.042,244.214,840.937,244.214z"/>
</g>
<g>
	<path fill="#FFFFFF" d="M839.758,340.784c1.785,3.568,0.341,7.908-3.228,9.691l-18.18,9.097c-3.568,1.786-7.909,0.342-9.693-3.231
		l0,0c-1.786-3.57-0.34-7.909,3.229-9.694l18.176-9.095C833.633,335.767,837.969,337.214,839.758,340.784L839.758,340.784z"/>
	<path fill="#FFFFFF" d="M838.59,340.713c-1.787,3.571-0.341,7.911,3.228,9.696l18.178,9.095c3.567,1.783,7.909,0.339,9.695-3.229
		l0,0c1.785-3.57,0.34-7.909-3.231-9.696l-18.174-9.093C844.714,335.699,840.376,337.146,838.59,340.713L838.59,340.713z"/>
	<path fill="#A3C0CF" d="M811.938,355.127c0.904,1.864,3.154,2.641,5.02,1.734c1.863-0.908,2.641-3.158,1.733-5.024
		c-0.909-1.864-3.156-2.638-5.022-1.731C811.806,351.015,811.029,353.263,811.938,355.127z"/>
	<path fill="#A3C0CF" d="M859.359,355.127c0.905,1.864,3.155,2.641,5.02,1.734c1.864-0.908,2.641-3.158,1.734-5.024
		c-0.909-1.864-3.156-2.638-5.023-1.731C859.228,351.015,858.45,353.263,859.359,355.127z"/>
	<ellipse fill="#FFFFFF" cx="839.56" cy="367.962" rx="20.618" ry="25.74"/>
	<g>
		<path fill="#E6E7E8" d="M853.182,348.648c1.692,3.736,2.662,8.049,2.662,12.648c0,14.215-9.23,25.74-20.619,25.74
			c-5.222,0-9.988-2.429-13.621-6.426c3.539,7.814,10.251,13.093,17.954,13.093c11.389,0,20.619-11.525,20.619-25.74
			C860.177,360.267,857.469,353.365,853.182,348.648z"/>
	</g>
	<ellipse fill="#FAD5CD" cx="839.235" cy="362.893" rx="14.771" ry="18.441"/>
	<circle fill="#FFFFFF" cx="824.287" cy="384.859" r="9.163"/>
	<circle fill="#A3C0CF" cx="824.162" cy="384.859" r="6.129"/>
	<circle fill="#FFFFFF" cx="856.359" cy="384.859" r="9.163"/>
	<circle fill="#A3C0CF" cx="856.234" cy="384.859" r="6.129"/>
	<path fill="#FFFFFF" d="M864.705,329.603c0,10.513-11.14,19.034-24.879,19.034c-13.742,0-24.88-8.521-24.88-19.034
		c0-10.516,11.138-19.037,24.88-19.037C853.566,310.566,864.705,319.087,864.705,329.603z"/>
	<g>
		<path fill="#E6E7E8" d="M858.465,316.999c0.801,1.869,1.24,3.863,1.24,5.937c0,10.513-11.14,19.034-24.879,19.034
			c-7.423,0-14.082-2.489-18.64-6.433c3.26,7.605,12.608,13.099,23.64,13.099c13.74,0,24.879-8.521,24.879-19.034
			C864.705,324.768,862.345,320.357,858.465,316.999z"/>
	</g>
	<path fill="#FFFFFF" d="M857.68,306.749c-2.085,7.909-6.445,13.579-9.74,12.667c-3.296-0.918-4.274-8.07-2.19-15.98
		c2.084-7.908,6.445-13.581,9.739-12.665C858.785,291.685,859.764,298.841,857.68,306.749z"/>
	<path fill="#FFFFFF" d="M820.204,306.749c2.085,7.909,6.445,13.579,9.742,12.667c3.293-0.918,4.272-8.07,2.189-15.98
		c-2.084-7.908-6.445-13.581-9.739-12.665C819.099,291.685,818.12,298.841,820.204,306.749z"/>
	<circle fill="#FAD5CD" cx="839.824" cy="335.198" r="10.926"/>
	<circle fill="#333333" cx="828.307" cy="323.11" r="3.362"/>
	<circle fill="#333333" cx="851.715" cy="323.11" r="3.362"/>
	<polygon fill="#F2808A" points="839.826,335.25 834.097,328.277 845.303,328.277 	"/>
	<rect x="836.463" y="337.243" fill="#FFFFFF" width="3.238" height="4.483"/>
	<rect x="840.449" y="337.243" fill="#FFFFFF" width="3.238" height="4.483"/>
</g>
<g>
	<g>
		<path fill="#ED1C24" d="M70.263,4.214c-33.106,0-59.943,26.837-59.943,59.943v131.63h119.886V64.157
			C130.206,31.052,103.369,4.214,70.263,4.214z"/>
		<g>
			<path opacity="0.2" enable-background="new    " d="M70.263,4.214c-33.106,0-59.943,26.837-59.943,59.943v20
				c0-33.105,26.837-59.943,59.943-59.943c33.105,0,59.943,26.837,59.943,59.943v-20C130.206,31.052,103.369,4.214,70.263,4.214z"/>
			<g display="none">
				<rect x="58.07" y="82.43" display="inline" fill="#FFE600" width="23.4" height="16.9"/>
				<rect x="72.044" y="82.43" display="inline" fill="#D3D5D6" width="9.425" height="16.9"/>
				<circle display="inline" fill="#FFE600" cx="70.094" cy="127.93" r="33.151"/>
				<g display="inline">
					<path fill="#E6E7E8" d="M70.094,94.78c-1.79,0-3.546,0.147-5.26,0.42c0.131-0.001,0.259-0.01,0.39-0.01
						c15.334,0,27.764,12.431,27.764,27.764c0,15.334-12.431,27.764-27.764,27.764s-27.763-12.43-27.763-27.764
						c0-0.326,0.013-0.648,0.025-0.97c-0.35,1.931-0.543,3.915-0.543,5.947c0,18.308,14.843,33.15,33.151,33.15
						s33.15-14.842,33.15-33.15C103.245,109.622,88.402,94.78,70.094,94.78z"/>
				</g>
				<circle display="inline" fill="#FFFFFF" cx="57.947" cy="110.503" r="5.881"/>
				<circle display="inline" opacity="0.7" fill="#FFFFFF" enable-background="new    " cx="49.62" cy="122.776" r="2.664"/>
			</g>
		</g>
	</g>
</g>
<path opacity="0.2" enable-background="new    " d="M380.042,244.214c-33.106,0-59.943,26.837-59.943,59.943v20
	c0-33.105,26.837-59.943,59.943-59.943c33.105,0,59.943,26.837,59.943,59.943v-20C439.985,271.051,413.147,244.214,380.042,244.214z
	"/>
<g>
	<path fill="#0089CF" d="M226.214,4.214c-33.106,0-59.943,26.837-59.943,59.943v131.63h119.886V64.157
		C286.157,31.052,259.319,4.214,226.214,4.214z"/>
	<path opacity="0.2" enable-background="new    " d="M226.214,4.214c-33.106,0-59.943,26.837-59.943,59.943v20
		c0-33.105,26.837-59.943,59.943-59.943c33.105,0,59.943,26.837,59.943,59.943v-20C286.157,31.052,259.319,4.214,226.214,4.214z"/>
</g>
<g>
	<path fill="#6DCFF6" d="M380.829,4.239c-32.968,0-59.5,26.726-59.5,59.694v131.908h119V63.933
		C440.329,30.965,413.797,4.239,380.829,4.239z"/>
	<path opacity="0.2" enable-background="new    " d="M380.403,4.159c-32.968,0-59.5,26.726-59.5,59.694V83.77
		c0-32.968,26.532-59.694,59.5-59.694s59.5,26.726,59.5,59.694V63.853C439.903,30.885,413.371,4.159,380.403,4.159z"/>
</g>
<g>
	<path fill="#9B1014" d="M534.528,4.214c-33.106,0-59.943,26.837-59.943,59.943v131.63h119.886V64.157
		C594.471,31.052,567.634,4.214,534.528,4.214z"/>
	<path opacity="0.2" enable-background="new    " d="M534.528,4.214c-33.106,0-59.943,26.837-59.943,59.943v20
		c0-33.105,26.837-59.943,59.943-59.943c33.105,0,59.943,26.837,59.943,59.943v-20C594.471,31.052,567.634,4.214,534.528,4.214z"/>
</g>
<g>
	<path fill="#F26522" d="M688.739,4.214c-33.106,0-59.943,26.837-59.943,59.943v131.63h119.886V64.157
		C748.681,31.052,721.844,4.214,688.739,4.214z"/>
	<path opacity="0.2" enable-background="new    " d="M688.739,4.409c-33.106,0-59.943,26.837-59.943,59.943v20
		c0-33.105,26.837-59.943,59.943-59.943c33.105,0,59.943,26.837,59.943,59.943v-20C748.681,31.246,721.844,4.409,688.739,4.409z"/>
</g>
<path fill="#FFFFFF" d="M834.931,92.001c0,0,1.179,9-2.487,15c-3.667,6,3.333,7.333,3.667,4"/>
<g>
	<path fill="#924396" d="M841.739,4.214c-33.106,0-59.943,26.837-59.943,59.943v131.63h119.886V64.157
		C901.682,31.052,874.845,4.214,841.739,4.214z"/>
	<g opacity="0.2">
		<path d="M842.523,4.214c-33.106,0-59.943,26.837-59.943,59.943v20c0-33.105,26.837-59.943,59.943-59.943
			c33.105,0,59.943,26.837,59.943,59.943v-20C902.466,31.052,875.629,4.214,842.523,4.214z"/>
	</g>
</g>
<g>
	<g>
		<path fill="#ED1C24" d="M928.797,65.298v118.529h45.174V16.173C948.674,18.276,928.797,39.459,928.797,65.298z"/>
	</g>
	
		<line fill="none" stroke="#C2151C" stroke-width="4.1367" stroke-miterlimit="10" x1="931.584" y1="163.326" x2="973.833" y2="163.326"/>
	
		<line fill="none" stroke="#C2151C" stroke-width="4.1367" stroke-miterlimit="10" x1="931.584" y1="154.371" x2="973.833" y2="154.371"/>
	
		<line fill="none" stroke="#C2151C" stroke-width="4.1367" stroke-miterlimit="10" x1="931.584" y1="145.416" x2="973.833" y2="145.416"/>
	
		<line fill="none" stroke="#C2151C" stroke-width="4.1367" stroke-miterlimit="10" x1="931.584" y1="136.461" x2="973.833" y2="136.461"/>
	
		<line fill="none" stroke="#C2151C" stroke-width="4.1367" stroke-miterlimit="10" x1="931.584" y1="127.506" x2="973.833" y2="127.506"/>
	
		<line fill="none" stroke="#C2151C" stroke-width="4.1367" stroke-miterlimit="10" x1="931.584" y1="118.551" x2="973.833" y2="118.551"/>
	
		<line fill="none" stroke="#C2151C" stroke-width="4.1367" stroke-miterlimit="10" x1="931.584" y1="109.596" x2="973.833" y2="109.596"/>
	
		<line fill="none" stroke="#C2151C" stroke-width="4.1367" stroke-miterlimit="10" x1="931.584" y1="100.642" x2="973.833" y2="100.642"/>
	
		<line fill="none" stroke="#C2151C" stroke-width="4.1367" stroke-miterlimit="10" x1="931.584" y1="91.687" x2="973.833" y2="91.687"/>
	
		<line fill="none" stroke="#C2151C" stroke-width="4.1367" stroke-miterlimit="10" x1="931.584" y1="82.732" x2="973.833" y2="82.732"/>
	
		<line fill="none" stroke="#C2151C" stroke-width="4.1367" stroke-miterlimit="10" x1="931.584" y1="73.777" x2="973.833" y2="73.777"/>
	
		<line fill="none" stroke="#C2151C" stroke-width="4.1367" stroke-miterlimit="10" x1="931.584" y1="64.822" x2="973.833" y2="64.822"/>
	
		<line fill="none" stroke="#C2151C" stroke-width="4.1367" stroke-miterlimit="10" x1="931.584" y1="55.867" x2="973.833" y2="55.867"/>
	
		<line fill="none" stroke="#C2151C" stroke-width="4.1367" stroke-miterlimit="10" x1="931.584" y1="46.912" x2="973.833" y2="46.912"/>
	
		<line fill="none" stroke="#C2151C" stroke-width="4.1367" stroke-miterlimit="10" x1="939.42" y1="37.957" x2="973.833" y2="37.957"/>
	
		<line fill="none" stroke="#C2151C" stroke-width="4.1367" stroke-miterlimit="10" x1="943.501" y1="29.002" x2="973.833" y2="29.002"/>
	<g>
		<path fill="none" stroke="#C2151C" stroke-width="8.2262" stroke-miterlimit="10" d="M928.797,65.298v118.529h45.174V16.173
			C948.674,18.276,928.797,39.459,928.797,65.298z"/>
	</g>
	
		<line fill="none" stroke="#C2151C" stroke-width="4.1367" stroke-miterlimit="10" x1="931.584" y1="172.136" x2="973.833" y2="172.136"/>
</g>
<g>
	<g>
		<path fill="#ED1C24" d="M1035.516,65.298v118.529h-45.174V16.173C1015.638,18.276,1035.516,39.459,1035.516,65.298z"/>
	</g>
	
		<line fill="none" stroke="#C2151C" stroke-width="4.1367" stroke-miterlimit="10" x1="1032.727" y1="163.326" x2="990.479" y2="163.326"/>
	
		<line fill="none" stroke="#C2151C" stroke-width="4.1367" stroke-miterlimit="10" x1="1032.727" y1="172.136" x2="990.479" y2="172.136"/>
	
		<line fill="none" stroke="#C2151C" stroke-width="4.1367" stroke-miterlimit="10" x1="1032.727" y1="154.371" x2="990.479" y2="154.371"/>
	
		<line fill="none" stroke="#C2151C" stroke-width="4.1367" stroke-miterlimit="10" x1="1032.727" y1="145.416" x2="990.479" y2="145.416"/>
	
		<line fill="none" stroke="#C2151C" stroke-width="4.1367" stroke-miterlimit="10" x1="1032.727" y1="136.461" x2="990.479" y2="136.461"/>
	
		<line fill="none" stroke="#C2151C" stroke-width="4.1367" stroke-miterlimit="10" x1="1032.727" y1="127.506" x2="990.479" y2="127.506"/>
	
		<line fill="none" stroke="#C2151C" stroke-width="4.1367" stroke-miterlimit="10" x1="1032.727" y1="118.551" x2="990.479" y2="118.551"/>
	
		<line fill="none" stroke="#C2151C" stroke-width="4.1367" stroke-miterlimit="10" x1="1032.727" y1="109.596" x2="990.479" y2="109.596"/>
	
		<line fill="none" stroke="#C2151C" stroke-width="4.1367" stroke-miterlimit="10" x1="1032.727" y1="100.642" x2="990.479" y2="100.642"/>
	
		<line fill="none" stroke="#C2151C" stroke-width="4.1367" stroke-miterlimit="10" x1="1032.727" y1="91.687" x2="990.479" y2="91.687"/>
	
		<line fill="none" stroke="#C2151C" stroke-width="4.1367" stroke-miterlimit="10" x1="1032.727" y1="82.732" x2="990.479" y2="82.732"/>
	
		<line fill="none" stroke="#C2151C" stroke-width="4.1367" stroke-miterlimit="10" x1="1032.727" y1="73.777" x2="990.479" y2="73.777"/>
	
		<line fill="none" stroke="#C2151C" stroke-width="4.1367" stroke-miterlimit="10" x1="1032.727" y1="64.822" x2="990.479" y2="64.822"/>
	
		<line fill="none" stroke="#C2151C" stroke-width="4.1367" stroke-miterlimit="10" x1="1032.727" y1="55.867" x2="990.479" y2="55.867"/>
	
		<line fill="none" stroke="#C2151C" stroke-width="4.1367" stroke-miterlimit="10" x1="1032.727" y1="46.912" x2="990.479" y2="46.912"/>
	
		<line fill="none" stroke="#C2151C" stroke-width="4.1367" stroke-miterlimit="10" x1="1024.891" y1="37.957" x2="990.479" y2="37.957"/>
	
		<line fill="none" stroke="#C2151C" stroke-width="4.1367" stroke-miterlimit="10" x1="1020.81" y1="29.002" x2="990.479" y2="29.002"/>
	<g>
		<path fill="none" stroke="#C2151C" stroke-width="8.2262" stroke-miterlimit="10" d="M1035.516,65.298v118.529h-45.174V16.173
			C1015.638,18.276,1035.516,39.459,1035.516,65.298z"/>
	</g>
</g>
<g>
	<g>
		<path fill="#00A651" d="M929.247,305.298v118.529h45.174V256.173C949.125,258.276,929.247,279.459,929.247,305.298z"/>
	</g>
	
		<line fill="none" stroke="#008B44" stroke-width="4.1367" stroke-miterlimit="10" x1="932.034" y1="403.326" x2="974.283" y2="403.326"/>
	
		<line fill="none" stroke="#008B44" stroke-width="4.1367" stroke-miterlimit="10" x1="932.034" y1="394.371" x2="974.283" y2="394.371"/>
	
		<line fill="none" stroke="#008B44" stroke-width="4.1367" stroke-miterlimit="10" x1="932.034" y1="385.416" x2="974.283" y2="385.416"/>
	
		<line fill="none" stroke="#008B44" stroke-width="4.1367" stroke-miterlimit="10" x1="932.034" y1="376.461" x2="974.283" y2="376.461"/>
	
		<line fill="none" stroke="#008B44" stroke-width="4.1367" stroke-miterlimit="10" x1="932.034" y1="367.506" x2="974.283" y2="367.506"/>
	
		<line fill="none" stroke="#008B44" stroke-width="4.1367" stroke-miterlimit="10" x1="932.034" y1="358.551" x2="974.283" y2="358.551"/>
	
		<line fill="none" stroke="#008B44" stroke-width="4.1367" stroke-miterlimit="10" x1="932.034" y1="349.596" x2="974.283" y2="349.596"/>
	
		<line fill="none" stroke="#008B44" stroke-width="4.1367" stroke-miterlimit="10" x1="932.034" y1="340.641" x2="974.283" y2="340.641"/>
	
		<line fill="none" stroke="#008B44" stroke-width="4.1367" stroke-miterlimit="10" x1="932.034" y1="331.687" x2="974.283" y2="331.687"/>
	
		<line fill="none" stroke="#008B44" stroke-width="4.1367" stroke-miterlimit="10" x1="932.034" y1="322.732" x2="974.283" y2="322.732"/>
	
		<line fill="none" stroke="#008B44" stroke-width="4.1367" stroke-miterlimit="10" x1="932.034" y1="313.777" x2="974.283" y2="313.777"/>
	
		<line fill="none" stroke="#008B44" stroke-width="4.1367" stroke-miterlimit="10" x1="932.034" y1="304.822" x2="974.283" y2="304.822"/>
	
		<line fill="none" stroke="#008B44" stroke-width="4.1367" stroke-miterlimit="10" x1="932.034" y1="295.867" x2="974.283" y2="295.867"/>
	
		<line fill="none" stroke="#008B44" stroke-width="4.1367" stroke-miterlimit="10" x1="932.034" y1="286.912" x2="974.283" y2="286.912"/>
	
		<line fill="none" stroke="#008B44" stroke-width="4.1367" stroke-miterlimit="10" x1="939.87" y1="277.957" x2="974.283" y2="277.957"/>
	
		<line fill="none" stroke="#008B44" stroke-width="4.1367" stroke-miterlimit="10" x1="943.952" y1="269.002" x2="974.283" y2="269.002"/>
	<g>
		<path fill="none" stroke="#008B44" stroke-width="8.2262" stroke-miterlimit="10" d="M929.247,305.298v118.529h45.174V256.173
			C949.125,258.276,929.247,279.459,929.247,305.298z"/>
	</g>
	
		<line fill="none" stroke="#008B44" stroke-width="4.1367" stroke-miterlimit="10" x1="932.034" y1="412.136" x2="974.283" y2="412.136"/>
</g>
<g>
	<g>
		<path fill="#00A651" d="M1035.969,305.298v118.529h-45.174V256.173C1016.091,258.276,1035.969,279.459,1035.969,305.298z"/>
	</g>
	
		<line fill="none" stroke="#008B44" stroke-width="4.1367" stroke-miterlimit="10" x1="1033.182" y1="403.326" x2="990.934" y2="403.326"/>
	
		<line fill="none" stroke="#008B44" stroke-width="4.1367" stroke-miterlimit="10" x1="1033.182" y1="412.136" x2="990.934" y2="412.136"/>
	
		<line fill="none" stroke="#008B44" stroke-width="4.1367" stroke-miterlimit="10" x1="1033.182" y1="394.371" x2="990.934" y2="394.371"/>
	
		<line fill="none" stroke="#008B44" stroke-width="4.1367" stroke-miterlimit="10" x1="1033.182" y1="385.416" x2="990.934" y2="385.416"/>
	
		<line fill="none" stroke="#008B44" stroke-width="4.1367" stroke-miterlimit="10" x1="1033.182" y1="376.461" x2="990.934" y2="376.461"/>
	
		<line fill="none" stroke="#008B44" stroke-width="4.1367" stroke-miterlimit="10" x1="1033.182" y1="367.506" x2="990.934" y2="367.506"/>
	
		<line fill="none" stroke="#008B44" stroke-width="4.1367" stroke-miterlimit="10" x1="1033.182" y1="358.551" x2="990.934" y2="358.551"/>
	
		<line fill="none" stroke="#008B44" stroke-width="4.1367" stroke-miterlimit="10" x1="1033.182" y1="349.596" x2="990.934" y2="349.596"/>
	
		<line fill="none" stroke="#008B44" stroke-width="4.1367" stroke-miterlimit="10" x1="1033.182" y1="340.641" x2="990.934" y2="340.641"/>
	
		<line fill="none" stroke="#008B44" stroke-width="4.1367" stroke-miterlimit="10" x1="1033.182" y1="331.687" x2="990.934" y2="331.687"/>
	
		<line fill="none" stroke="#008B44" stroke-width="4.1367" stroke-miterlimit="10" x1="1033.182" y1="322.732" x2="990.934" y2="322.732"/>
	
		<line fill="none" stroke="#008B44" stroke-width="4.1367" stroke-miterlimit="10" x1="1033.182" y1="313.777" x2="990.934" y2="313.777"/>
	
		<line fill="none" stroke="#008B44" stroke-width="4.1367" stroke-miterlimit="10" x1="1033.182" y1="304.822" x2="990.934" y2="304.822"/>
	
		<line fill="none" stroke="#008B44" stroke-width="4.1367" stroke-miterlimit="10" x1="1033.182" y1="295.867" x2="990.934" y2="295.867"/>
	
		<line fill="none" stroke="#008B44" stroke-width="4.1367" stroke-miterlimit="10" x1="1033.182" y1="286.912" x2="990.934" y2="286.912"/>
	
		<line fill="none" stroke="#008B44" stroke-width="4.1367" stroke-miterlimit="10" x1="1025.345" y1="277.957" x2="990.934" y2="277.957"/>
	
		<line fill="none" stroke="#008B44" stroke-width="4.1367" stroke-miterlimit="10" x1="1021.265" y1="269.002" x2="990.934" y2="269.002"/>
	<g>
		<path fill="none" stroke="#008B44" stroke-width="8.2262" stroke-miterlimit="10" d="M1035.969,305.298v118.529h-45.174V256.173
			C1016.091,258.276,1035.969,279.459,1035.969,305.298z"/>
	</g>
</g>
<g>
	<rect x="56.575" y="78.209" fill="#FFE600" width="23.4" height="16.9"/>
	<rect x="70.55" y="78.209" fill="#E6D000" width="9.425" height="16.9"/>
	<circle fill="#FFE600" cx="68.6" cy="123.709" r="33.151"/>
	<g>
		<path fill="#E6D000" d="M68.6,90.559c-1.79,0-3.546,0.147-5.26,0.42c0.131-0.001,0.259-0.01,0.39-0.01
			c15.334,0,27.764,12.431,27.764,27.764c0,15.334-12.431,27.764-27.764,27.764s-27.763-12.43-27.763-27.764
			c0-0.326,0.013-0.648,0.025-0.97c-0.35,1.931-0.543,3.915-0.543,5.947c0,18.308,14.843,33.15,33.151,33.15
			s33.15-14.842,33.15-33.15C101.75,105.401,86.908,90.559,68.6,90.559z"/>
	</g>
	<circle fill="none" stroke="#333333" stroke-width="3.9" stroke-miterlimit="10" cx="68.738" cy="70.986" r="5.099"/>
	<path fill="none" stroke="#FFDF00" stroke-width="1.2074" stroke-miterlimit="10" d="M69.055,68.259
		c0-9.308-3.719-16.426-3.719-21.501c0-1.581,1.559-2.863,3.481-2.863c1.922,0,3.48,1.282,3.48,2.863
		C72.298,53.75,70.054,58.951,69.055,68.259z"/>
	<circle fill="#FFFFFF" cx="56.452" cy="106.282" r="5.881"/>
	<circle opacity="0.7" fill="#FFFFFF" enable-background="new    " cx="48.125" cy="118.555" r="2.664"/>
</g>
<g>
	<g>
		
			<path fill="#343433" stroke="#343433" stroke-width="0.6304" stroke-linecap="round" stroke-linejoin="round" stroke-miterlimit="10" d="
			M223.935,145.111c0,0.227-0.185,0.411-0.412,0.411h-0.347c-0.227,0-0.411-0.184-0.411-0.411v-1.993
			c0-0.228,0.184-0.412,0.411-0.412h0.347c0.227,0,0.412,0.184,0.412,0.412V145.111z"/>
		
			<path fill="#343433" stroke="#343433" stroke-width="0.6304" stroke-linecap="round" stroke-linejoin="round" stroke-miterlimit="10" d="
			M224.923,145.111c0,0.227,0.184,0.411,0.411,0.411h0.347c0.227,0,0.412-0.184,0.412-0.411v-1.993c0-0.228-0.185-0.412-0.412-0.412
			h-0.347c-0.228,0-0.411,0.184-0.411,0.412V145.111z"/>
		<path fill="none" stroke="#4E4E4E" stroke-width="1.2607" stroke-linecap="round" stroke-miterlimit="10" d="M219.303,149.67
			v-5.144c0-0.227,0.185-0.411,0.412-0.411h9.427c0.228,0,0.411,0.184,0.411,0.411v5.144"/>
		<g>
			<path fill="#EC1C24" d="M224.428,50.57v87.45c0,0-1.3,0-2.902,0c0-1.623-6.89-12.891-8.274-16.284h0.002
				c-3.388-7.474-5.518-18.293-5.518-30.33C207.736,68.852,215.209,50.57,224.428,50.57c-17.225,0-31.189,18.282-31.189,40.835
				c0,12.038,3.98,22.856,10.309,30.33h-0.003c2.587,3.393,15.459,14.662,15.459,16.284c-0.599,0-1.174,0-1.677,0
				c0-1.623-16.854-12.891-20.241-16.284l0,0c3.386,3.393,20.241,14.662,20.241,16.284c2.591,0,7.101,0,7.101,0s4.511,0,7.102,0
				c0-1.623,16.854-12.891,20.241-16.284h-0.005c8.287-7.474,13.498-18.293,13.498-30.33
				C265.264,68.852,246.981,50.57,224.428,50.57c17.226,0,31.19,18.282,31.19,40.835c0,12.038-3.98,22.856-10.309,30.33h0.004l0,0
				c-2.587,3.393-15.46,14.662-15.46,16.284c-0.835,0-1.715,0-2.521,0c0-1.623,6.889-12.891,8.274-16.284h-0.001
				c3.388-7.474,5.517-18.293,5.517-30.33C241.121,68.852,233.648,50.57,224.428,50.57L224.428,50.57"/>
			<path fill="#FFFFFF" d="M224.428,50.57c-22.552,0-40.834,18.282-40.834,40.835c0,12.038,5.211,22.856,13.497,30.33l0,0l0,0
				h-0.005c3.386,3.393,20.241,14.662,20.241,16.284c0.503,0,1.078,0,1.677,0c0-1.623-12.872-12.891-15.459-16.284h0.003
				c-6.329-7.474-10.309-18.293-10.309-30.33C193.239,68.852,207.203,50.57,224.428,50.57L224.428,50.57"/>
			<path fill="#FFFFFF" d="M224.428,50.57c9.22,0,16.693,18.282,16.693,40.835c0,12.038-2.13,22.856-5.517,30.33h0.001
				c-1.385,3.393-8.274,14.662-8.274,16.284c0.807,0,1.686,0,2.521,0c0-1.623,12.873-12.891,15.46-16.284h-0.004
				c6.329-7.474,10.309-18.293,10.309-30.33C255.618,68.852,241.654,50.57,224.428,50.57L224.428,50.57"/>
			<path fill="#FFFFFF" d="M224.428,50.57L224.428,50.57L224.428,50.57c-9.219,0-16.692,18.282-16.692,40.835
				c0,12.038,2.13,22.856,5.518,30.33h-0.002c1.385,3.393,8.274,14.662,8.274,16.284c1.603,0,2.902,0,2.902,0V50.57L224.428,50.57"
				/>
		</g>
		<polygon fill="#988676" points="229.656,160.337 219.202,160.337 218.185,149.67 230.672,149.67 		"/>
		
			<line fill="none" stroke="#4E4E4E" stroke-width="0.6304" stroke-linecap="round" stroke-linejoin="round" stroke-miterlimit="10" x1="219.95" y1="144.114" x2="217.431" y2="138.02"/>
		
			<line fill="none" stroke="#4E4E4E" stroke-width="0.6304" stroke-linecap="round" stroke-linejoin="round" stroke-miterlimit="10" x1="228.908" y1="144.114" x2="231.426" y2="138.02"/>
		
			<line fill="none" stroke="#4E4E4E" stroke-width="0.6304" stroke-linecap="round" stroke-linejoin="round" stroke-miterlimit="10" x1="221.75" y1="144.114" x2="220.744" y2="138.02"/>
		
			<line fill="none" stroke="#4E4E4E" stroke-width="0.6304" stroke-linecap="round" stroke-linejoin="round" stroke-miterlimit="10" x1="227.108" y1="144.114" x2="228.114" y2="138.02"/>
	</g>
	<g opacity="0.2">
		<path d="M265.264,91.405c0-9.125-2.995-17.55-8.053-24.349c2.085,5.081,3.242,10.641,3.242,16.473
			c0,23.991-19.449,43.44-43.44,43.44c-6.79,0-13.215-1.56-18.94-4.338c4.845,4.141,19.254,13.888,19.254,15.389
			c0.503,0,1.078,0,1.677,0c0.835,0,1.715,0,2.522,0c1.603,0,2.902,0,2.902,0s1.301,0,2.904,0c0.806,0,1.686,0,2.521,0
			c0.6,0,1.175,0,1.677,0c0-1.623,16.854-12.891,20.241-16.284h-0.005C260.053,114.261,265.264,103.443,265.264,91.405z"/>
	</g>
</g>
<g>
	<polygon fill="#FFDF00" points="389.828,68.935 409.157,71.851 393.317,78.125 	"/>
	<path fill="#231F20" d="M405.894,156.614c0-61.135-12.114-99.728-27.058-99.728s-27.059,38.593-27.059,99.728H405.894z"/>
	<g>
		<path fill="#FFFFFF" d="M366.034,156.614c2.334-39.368,15.671-63.11,32.679-70.041c4.457,17.14,7.182,41.053,7.182,70.041H366.034
			z"/>
	</g>
	
		<circle fill="none" stroke="#FFFFFF" stroke-width="2" stroke-linecap="round" stroke-linejoin="round" stroke-miterlimit="10" cx="378.412" cy="73.266" r="3.149"/>
	<polygon fill="#FFDF00" points="388.253,71.297 373.687,61.849 371.325,64.999 	"/>
	<path fill="#FFDF00" d="M406.625,156.331c0-5.871-4.759-10.629-10.629-10.629s-10.629,4.759-10.629,10.629H406.625z"/>
	<g opacity="0.05">
		<path d="M398.713,86.574c-3.351,1.365-6.556,3.393-9.566,6.055c3.598,16.545,5.747,38.261,5.747,63.986h11
			C405.894,127.627,403.17,103.714,398.713,86.574z"/>
	</g>
</g>
<g>
	
		<rect x="537.905" y="50.126" transform="matrix(0.7073 -0.7069 0.7069 0.7073 91.7908 407.7494)" fill="#FFDF00" width="0.769" height="85.805"/>
	<circle fill="#24B8EB" cx="538.435" cy="92.485" r="35.175"/>
	<g>
		<path fill="#24B8EB" d="M508.369,110.694l-0.031,0.006c-0.426-0.702-0.819-1.425-1.196-2.157l1.205,0.341L508.369,110.694z"/>
		<path fill="#24B8EB" d="M507.518,103.618l0.352,1.96l-1.96,0.312c-0.403-0.977-0.768-1.975-1.084-2.994l1.585-0.364
			L507.518,103.618z"/>
		<path fill="#24B8EB" d="M518.073,117.777l-2.274-4.061c-0.009-0.016-0.024-0.03-0.042-0.037l-6.614-2.89l1.238-4.266
			c0.001-0.008,0.002-0.017,0.001-0.025l0.02-6.77l0.494,0.069l0.011,2.442c0,0.034,0.019,0.063,0.048,0.077
			c0.029,0.016,0.066,0.015,0.093-0.005l0.449-0.321c0.016-0.011,0.029-0.027,0.033-0.045l0.561-1.8
			c0.004-0.009,0.005-0.021,0.002-0.029l-0.088-2.407l0.27-2.115c0.006-0.041-0.018-0.079-0.058-0.094l-3.565-1.289l-0.852-1.524
			c-0.011-0.02-0.028-0.034-0.048-0.042l-2.28-0.804l-0.418-1.87c-0.002-0.011-0.007-0.02-0.013-0.03l6.564-4.416l0.064,0.022
			c0.045,0.017,0.095-0.008,0.111-0.054c0.016-0.047-0.007-0.096-0.055-0.111L507.14,83.8c-0.035-0.012-0.075-0.001-0.097,0.026
			l-1.844,2.208l-1.383,0.251c0.739-4.151,2.202-8.049,4.26-11.56l4.883,1.308l2.791,5.815l6.746,6.789l2.52,5.116
			c0.002,0.009,0.005,0.021,0.01,0.03c0.025,0.044,0.078,0.054,0.126,0.032c0,0,0.002-0.001,0.006-0.003l3.618-2.495
			c0.024-0.014,0.036-0.036,0.039-0.059l0.351-2.613l5.996-5.337c0.028-0.023,0.037-0.063,0.025-0.095l-0.693-1.952l1.936-2.385
			l0.304,0.542l-1.283,2.217c-0.016,0.027-0.018,0.058-0.001,0.087l0.775,1.384l-0.765,2.719c-0.008,0.026-0.002,0.051,0.012,0.072
			c0.014,0.022,0.036,0.037,0.064,0.04l1.621,0.162c0.025,0.001,0.054-0.009,0.072-0.028l3.074-3.249
			c0.017-0.015,0.024-0.039,0.023-0.062l-0.092-4.923l0.938-0.264l0.529,3.861l-0.885,5.388l-1.657,0.878
			c-0.021,0.011-0.036,0.03-0.045,0.052c-0.006,0.023-0.003,0.048,0.008,0.068l1.131,2.019c0.009,0.016,0.024,0.029,0.038,0.037
			l2.724,1.304l4.105,6.236c0.009,0.014,0.019,0.024,0.035,0.032l11.326,5.612c0.014,0.008,0.034,0.01,0.05,0.008l4.439-0.62
			c0.012-0.002,0.021-0.006,0.03-0.011c0.013-0.007,0.025-0.016,0.031-0.031c0.015-0.021,0.02-0.051,0.009-0.076l-2.08-5.718
			c-0.007-0.017-0.018-0.031-0.03-0.041l-4.417-3.206l-1.154-3.928l1.749-3.504l3.717-2.111c0.023-0.013,0.037-0.032,0.043-0.055
			l2.251-9.063c0.009-0.032-0.002-0.063-0.028-0.086l-6.565-5.903c-0.018-0.017-0.044-0.025-0.068-0.021l-4.409,0.443l-2.335-1.465
			c-0.026-0.016-0.06-0.018-0.089-0.002l-2.715,1.521c-0.014,0.007-0.026,0.019-0.036,0.034l-1.269,2.392l-3.805,2.372l-1.891-0.014
			l2.147-2.344c0.009-0.011,0.015-0.022,0.018-0.035l1.15-4.073l0.765,1.366c0.02,0.036,0.066,0.054,0.106,0.04l0.981-0.345
			c0.024-0.01,0.042-0.024,0.052-0.048c0.01-0.022,0.009-0.048,0-0.07l-0.66-1.591l3.846,0.613c0.045,0.008,0.087-0.02,0.098-0.063
			l0.386-1.36c0.006-0.024,0.002-0.048-0.01-0.068l-0.695-1.242c-0.021-0.038-0.067-0.055-0.109-0.04l-1.344,0.52l0.004-1.047
			c0-0.045-0.035-0.084-0.082-0.086l-3.198-0.249c-0.031-0.003-0.062,0.013-0.08,0.037l-1.254,1.813l-0.934,0.523l-1.432-1.426
			l0.031-1.649l1.573,1.135c0.02,0.015,0.046,0.019,0.069,0.015c0.023-0.005,0.045-0.019,0.057-0.039l1.298-2.051
			c0.013-0.021,0.018-0.046,0.011-0.07c-0.006-0.024-0.022-0.046-0.044-0.057l-3.433-1.849c-0.03-0.016-0.066-0.013-0.094,0.008
			l-2.653,1.994c-0.035,0.027-0.044,0.075-0.023,0.112l0.651,1.164l-3.072,1.72l-2.134-0.703c-0.022-0.008-0.046-0.008-0.066,0.002
			l-2.234,1.098l-4.253-0.022c-0.009,0-0.017,0.002-0.025,0.005l-4.768,1.402c-0.033,0.011-0.056,0.039-0.062,0.073l-0.585,4.059
			h-9.433c6.427-8.409,16.556-13.839,27.959-13.839c19.428,0,35.175,15.749,35.175,35.175c0,19.427-15.747,35.176-35.175,35.176
			c-7.969,0-15.316-2.653-21.214-7.12l0.86-2.694C518.088,117.824,518.086,117.799,518.073,117.777z"/>
		<path fill="#36B04A" d="M503.815,86.285l1.383-0.251l1.844-2.208c0.023-0.026,0.062-0.037,0.097-0.026l4.587,1.582
			c0.048,0.015,0.071,0.065,0.055,0.111c-0.015,0.046-0.065,0.072-0.111,0.054l-0.064-0.022l-6.564,4.416
			c0.006,0.01,0.011,0.019,0.013,0.03l0.418,1.87l2.28,0.804c0.02,0.007,0.037,0.022,0.048,0.042l0.852,1.524l3.565,1.289
			c0.039,0.015,0.064,0.053,0.058,0.094l-0.27,2.115l0.088,2.407c0.003,0.008,0.001,0.02-0.002,0.029l-0.561,1.8
			c-0.005,0.018-0.017,0.034-0.033,0.045l-0.449,0.321c-0.026,0.02-0.064,0.021-0.093,0.005c-0.03-0.014-0.048-0.044-0.048-0.077
			l-0.011-2.442l-0.494-0.069l-0.02,6.77c0.001,0.007,0,0.017-0.001,0.025l-1.238,4.266l6.614,2.89
			c0.018,0.007,0.033,0.021,0.042,0.037l2.274,4.061c0.013,0.022,0.015,0.048,0.007,0.071l-0.86,2.694
			c-3.545-2.685-6.568-6.023-8.883-9.84l0.031-0.006l-0.022-1.81l-1.205-0.341c-0.445-0.865-0.858-1.748-1.231-2.653l1.96-0.312
			l-0.352-1.96l-1.106-1.086l-1.585,0.364c-1.018-3.29-1.567-6.787-1.567-10.412C503.26,90.368,503.457,88.299,503.815,86.285z"/>
		<path fill="#36B04A" d="M520.494,67.089c0.006-0.034,0.029-0.062,0.062-0.073l4.768-1.402c0.008-0.003,0.017-0.005,0.025-0.005
			l4.253,0.022l2.234-1.098c0.02-0.009,0.044-0.01,0.066-0.002l2.134,0.703l3.072-1.72l-0.651-1.164
			c-0.021-0.037-0.013-0.086,0.023-0.112l2.653-1.994c0.029-0.021,0.065-0.024,0.094-0.008l3.433,1.849
			c0.022,0.011,0.038,0.033,0.044,0.057c0.006,0.023,0.001,0.048-0.011,0.07l-1.298,2.051c-0.012,0.02-0.034,0.034-0.057,0.039
			c-0.023,0.005-0.049,0.001-0.069-0.015l-1.573-1.135l-0.031,1.649l1.432,1.426l0.934-0.523l1.254-1.813
			c0.018-0.024,0.048-0.04,0.08-0.037l3.198,0.249c0.047,0.002,0.082,0.04,0.082,0.086l-0.004,1.047l1.344-0.52
			c0.043-0.014,0.089,0.003,0.109,0.04l0.695,1.242c0.011,0.02,0.016,0.044,0.01,0.068l-0.386,1.36
			c-0.011,0.043-0.054,0.071-0.098,0.063l-3.846-0.613l0.66,1.591c0.009,0.022,0.009,0.048,0,0.07
			c-0.01,0.023-0.028,0.038-0.052,0.048l-0.981,0.345c-0.04,0.013-0.085-0.004-0.106-0.04l-0.765-1.366l-1.15,4.073
			c-0.003,0.014-0.01,0.025-0.018,0.035l-2.147,2.344l1.891,0.014l3.805-2.372l1.269-2.392c0.01-0.014,0.022-0.026,0.036-0.034
			l2.715-1.521c0.029-0.016,0.063-0.014,0.089,0.002l2.335,1.465l4.409-0.443c0.025-0.004,0.05,0.003,0.068,0.021l6.565,5.903
			c0.025,0.024,0.037,0.054,0.028,0.086l-2.251,9.063c-0.006,0.023-0.02,0.042-0.043,0.055l-3.717,2.111l-1.749,3.504l1.154,3.928
			l4.417,3.206c0.013,0.01,0.023,0.024,0.03,0.041l2.08,5.718c0.011,0.025,0.006,0.055-0.009,0.076
			c-0.007,0.015-0.019,0.025-0.031,0.031c-0.009,0.005-0.018,0.009-0.03,0.011l-4.439,0.62c-0.016,0.003-0.036,0-0.05-0.008
			l-11.326-5.612c-0.016-0.008-0.026-0.017-0.035-0.032l-4.105-6.236l-2.724-1.304c-0.015-0.009-0.029-0.022-0.038-0.037
			l-1.131-2.019c-0.011-0.02-0.015-0.045-0.008-0.068c0.009-0.022,0.024-0.041,0.045-0.052l1.657-0.878l0.885-5.388l-0.529-3.861
			l-0.938,0.264l0.092,4.923c0.001,0.023-0.006,0.047-0.023,0.062l-3.074,3.249c-0.018,0.02-0.046,0.029-0.072,0.028l-1.621-0.162
			c-0.027-0.004-0.049-0.019-0.064-0.04c-0.014-0.021-0.02-0.046-0.012-0.072l0.765-2.719l-0.775-1.384
			c-0.017-0.029-0.015-0.061,0.001-0.087l1.283-2.217l-0.304-0.542l-1.936,2.385l0.693,1.952c0.012,0.032,0.003,0.071-0.025,0.095
			l-5.996,5.337l-0.351,2.613c-0.003,0.023-0.015,0.045-0.039,0.059l-3.618,2.495c-0.004,0.002-0.006,0.003-0.006,0.003
			c-0.049,0.022-0.101,0.012-0.126-0.032c-0.005-0.009-0.008-0.02-0.01-0.03l-2.52-5.116l-6.746-6.789l-2.791-5.815l-4.883-1.308
			c0.729-1.243,1.529-2.437,2.4-3.577h9.433L520.494,67.089z"/>
	</g>
	<circle fill="none" cx="538.435" cy="92.485" r="35.175"/>
	<g opacity="0.1">
		<path fill="#020202" d="M571.062,79.34c1.639,4.063,2.547,8.497,2.547,13.145c0,19.427-15.747,35.176-35.175,35.176
			c-12.42,0-23.329-6.442-29.588-16.163c6.063,3.398,13.047,5.347,20.491,5.347C551.005,116.844,568.834,100.418,571.062,79.34z"/>
	</g>
	<path fill="#FFDF00" d="M551.849,149.099c0-7.409-6.006-13.415-13.414-13.415s-13.414,6.006-13.414,13.415"/>
	<path fill="#FFDF00" d="M538.434,137.798c12.104,0.001,23.483-4.713,32.042-13.272l-2.99-2.99
		c-7.76,7.76-18.078,12.033-29.052,12.033s-21.291-4.275-29.05-12.034c-7.76-7.76-12.034-18.076-12.034-29.05
		s4.273-21.291,12.034-29.051l-2.99-2.99c-8.56,8.559-13.273,19.938-13.272,32.041c0,12.103,4.713,23.482,13.272,32.04
		C514.952,133.083,526.331,137.797,538.434,137.798z"/>
</g>
<g>
	<g>
		<path fill="none" d="M667.586,76.354v-0.075h-8.012c0.588,6.791,4.009,12.191,7.991,12.191h0.01c0.135,0,0.268-0.03,0.402-0.043
			c-0.753-3.787-1.168-7.846-1.168-12.073C666.809,76.354,667.586,76.354,667.586,76.354z"/>
		<path fill="none" d="M709.28,76.354h0.733c0,4.226-0.414,8.282-1.167,12.069c0.149,0.016,0.297,0.047,0.446,0.047v2.069
			l0.006-2.069c3.985,0,7.405-5.4,7.994-12.191h-8.012L709.28,76.354L709.28,76.354z"/>
		<path fill="#FFCA05" d="M705.142,72.141v4.213h-33.418v-4.213h-16.377v2.069c0,10.317,5.367,18.398,12.216,18.398h0.013
			c0.457,0,0.912-0.041,1.364-0.116c2.979,10.657,8.817,18.485,15.797,20.55v15.949c-2.333,0.989-4.156,2.915-5.049,5.296h17.346
			c-0.921-2.458-2.853-4.421-5.293-5.38V113.15c7.136-1.902,13.118-9.825,16.145-20.663c0.466,0.079,0.936,0.121,1.407,0.121h0.009
			c6.851,0,12.217-8.081,12.217-18.398v-2.069H705.142z M667.575,88.47h-0.01c-3.983,0-7.403-5.4-7.991-12.191h8.012v0.075h-0.776
			c0,4.227,0.415,8.286,1.168,12.073C667.843,88.44,667.71,88.47,667.575,88.47z M709.298,88.47l-0.006,2.069V88.47
			c-0.149,0-0.297-0.032-0.446-0.047c0.752-3.786,1.167-7.843,1.167-12.069h-0.733v-0.075h8.012
			C716.703,83.07,713.283,88.47,709.298,88.47z"/>
	</g>
	<path fill="#FFCA05" d="M702.387,41.42c0,1.523-1.235,2.758-2.756,2.758c-1.523,0-2.759-1.235-2.759-2.758
		c0-1.528,1.236-2.759,2.759-2.759C701.153,38.661,702.387,39.892,702.387,41.42z"/>
	<path fill="#FFCA05" d="M677.418,70.219c0,0,10.57-22.061,20.222-26.656c0,0-5.056,20.679,0.459,27.117L677.418,70.219z"/>
	<path fill="#FFCA05" d="M702.693,73.022c0,0.948-0.767,1.715-1.714,1.715h-25.575c-0.946,0-1.713-0.766-1.713-1.715v-3.141
		c0-0.947,0.767-1.714,1.713-1.714h25.575c0.947,0,1.714,0.767,1.714,1.714V73.022z"/>
	<path fill="#333333" d="M704.947,160.778v-15.794c0-2.139-1.38-4.1-3.674-5.644v-4.797h-26.33v5.18
		c-1.972,1.481-3.148,3.295-3.148,5.262v15.794h-3.637v4.74h39.889v-4.74L704.947,160.778L704.947,160.778z"/>
	<g>
		<path fill="#EAB407" d="M691.74,128.907V113.15c7.136-1.902,13.118-9.825,16.145-20.663c0.466,0.079,0.936,0.121,1.407,0.121
			h0.009c6.851,0,12.217-8.081,12.217-18.398v-2.069h-16.377v4.213h-4.781c0.171,4.318,0.361,24.93-10.791,36.305v17
			c0,0,1.648,1.68,1.94,4.629h5.524C696.112,131.83,694.18,129.867,691.74,128.907z M709.28,76.354v-0.075h8.012
			c-0.588,6.791-4.008,12.191-7.994,12.191l-0.006,2.069V88.47c-0.149,0-0.297-0.032-0.446-0.047
			c0.752-3.786,1.167-7.843,1.167-12.069C710.013,76.354,709.28,76.354,709.28,76.354z"/>
		<path fill="#111111" d="M708.046,160.778h-3.1v-15.794c0-2.139-1.38-4.1-3.674-5.644v-4.797h-9.702c0,6.168,0,23.764,0,30.975
			h16.476V160.778z"/>
	</g>
</g>
<g>
	<path fill="#BBBDBF" d="M808.32,157.159h73.5c0,0-1,5.5-8,5.5h-57C811.32,162.659,808.32,159.659,808.32,157.159z"/>
	<polygon fill="#FFFFFF" points="853.071,142.159 835.307,142.159 835.307,85.659 853.071,80.159 	"/>
	<g>
		<polygon fill="#E6E7E8" points="853.071,80.159 847.82,81.785 847.82,142.159 853.071,142.159 		"/>
	</g>
	<path fill="#BBBDBF" d="M812.32,160.159c-7.444,0-13.5-6.056-13.5-13.5s6.056-13.5,13.5-13.5s13.5,6.056,13.5,13.5
		S819.764,160.159,812.32,160.159z M812.32,137.159c-5.238,0-9.5,4.262-9.5,9.5s4.262,9.5,9.5,9.5s9.5-4.262,9.5-9.5
		S817.558,137.159,812.32,137.159z"/>
	<rect x="833.357" y="139.159" fill="#BBBDBF" width="21.835" height="18.5"/>
	<rect x="845.32" y="139.159" fill="#ADADAD" width="9.872" height="18.5"/>
	<path fill="#FFFFFF" d="M835.307,85.659c0,0,1.179,9-2.487,15s3.333,7.333,3.667,4"/>
	<path fill="#F9A51A" d="M842.996,80.807c-21.176-12.963,4.235-31.759,0-40.833C858.526,54.881,852.173,77.566,842.996,80.807z"/>
</g>
<g>
	<rect x="683.299" y="371.431" fill="#725D4C" width="8.848" height="38.123"/>
	<polygon fill="#019049" points="687.723,276.124 725.651,395.938 687.723,395.938 649.795,395.938 	"/>
	<g>
		<g>
			<g>
				<g>
					<defs>
						<polygon id="SVGID_1_" points="687.723,276.124 725.651,395.938 687.723,395.938 649.795,395.938 						"/>
					</defs>
					<clipPath id="SVGID_2_">
						<use xlink:href="#SVGID_1_"  overflow="visible"/>
					</clipPath>
					<g clip-path="url(#SVGID_2_)">
						<g>
							<polyline fill="none" stroke="#07A860" stroke-width="5.6728" stroke-miterlimit="10" points="647.246,301.623 
								687.723,342.1 728.199,301.623 							"/>
							<polyline fill="none" stroke="#07A860" stroke-width="5.6728" stroke-miterlimit="10" points="647.246,328.543 
								687.723,369.019 728.199,328.543 							"/>
							<polyline fill="none" stroke="#07A860" stroke-width="5.6728" stroke-miterlimit="10" points="647.246,355.462 
								687.723,395.938 728.199,355.462 							"/>
						</g>
						<g>
							<polyline fill="none" stroke="#07A860" stroke-width="5.6728" stroke-miterlimit="10" points="647.246,220.865 
								687.723,261.341 728.199,220.865 							"/>
							<polyline fill="none" stroke="#07A860" stroke-width="5.6728" stroke-miterlimit="10" points="647.246,247.784 
								687.723,288.261 728.199,247.784 							"/>
							<polyline fill="none" stroke="#07A860" stroke-width="5.6728" stroke-miterlimit="10" points="647.246,274.704 
								687.723,315.18 728.199,274.704 							"/>
						</g>
					</g>
				</g>
			</g>
		</g>
	</g>
	<polygon opacity="0.2" fill="#165433" enable-background="new    " points="687.723,276.124 709.53,395.938 725.651,395.938 	"/>
	<polygon fill="#5E4F44" points="692.147,395.938 683.299,395.938 683.299,401.895 692.147,397.89 	"/>
	<g>
		<path fill="#FFFFFF" stroke="#FFFFFF" stroke-width="0.9455" stroke-linejoin="round" stroke-miterlimit="10" d="M678.97,374.094
			c0,3.639,2.95,6.588,6.588,6.588s6.589-2.949,6.589-6.588H678.97z"/>
		<path fill="#FFFFFF" stroke="#FFFFFF" stroke-width="0.9455" stroke-linejoin="round" stroke-miterlimit="10" d="M665.793,374.094
			c0,3.639,2.95,6.588,6.588,6.588s6.589-2.949,6.589-6.588H665.793z"/>
		<path fill="#FFFFFF" stroke="#FFFFFF" stroke-width="0.9455" stroke-linejoin="round" stroke-miterlimit="10" d="M705.323,354.743
			c0,3.64,2.95,6.589,6.589,6.589c3.64,0,6.589-2.949,6.589-6.589H705.323z"/>
		<path fill="#FFFFFF" stroke="#FFFFFF" stroke-width="0.9455" stroke-linejoin="round" stroke-miterlimit="10" d="M692.147,354.743
			c0,3.64,2.95,6.589,6.589,6.589s6.587-2.949,6.587-6.589H692.147z"/>
		<path fill="#FFFFFF" stroke="#FFFFFF" stroke-width="0.9455" stroke-linejoin="round" stroke-miterlimit="10" d="M678.97,354.743
			c0,3.64,2.95,6.589,6.588,6.589s6.589-2.949,6.589-6.589H678.97z"/>
		<path fill="#FFFFFF" stroke="#FFFFFF" stroke-width="0.9455" stroke-linejoin="round" stroke-miterlimit="10" d="M678.609,333.989
			c0,3.64,2.948,6.589,6.587,6.589s6.589-2.949,6.589-6.589H678.609z"/>
		<path fill="#FFFFFF" stroke="#FFFFFF" stroke-width="0.9455" stroke-linejoin="round" stroke-miterlimit="10" d="M665.433,333.989
			c0,3.64,2.948,6.589,6.588,6.589c3.638,0,6.589-2.949,6.589-6.589H665.433z"/>
		<path fill="#FFFFFF" stroke="#FFFFFF" stroke-width="0.9455" stroke-linejoin="round" stroke-miterlimit="10" d="M691.809,316.476
			c0,3.639,2.949,6.588,6.588,6.588c3.639,0,6.589-2.949,6.589-6.588H691.809z"/>
		<path fill="#FFFFFF" stroke="#FFFFFF" stroke-width="0.9455" stroke-linejoin="round" stroke-miterlimit="10" d="M678.632,316.476
			c0,3.639,2.949,6.588,6.589,6.588c3.638,0,6.588-2.949,6.588-6.588H678.632z"/>
		<path fill="#FFFFFF" stroke="#FFFFFF" stroke-width="0.9455" stroke-linejoin="round" stroke-miterlimit="10" d="M675.648,299.359
			c0,3.639,2.949,6.589,6.589,6.589c3.639,0,6.588-2.949,6.588-6.589H675.648z"/>
	</g>
</g>
<path fill="#D0A260" d="M549.347,365.063v-5.967c0-8.619-6.986-15.606-15.606-15.606c-8.618,0-15.606,6.987-15.606,15.606v6.211
	C518.136,404.945,549.347,403.232,549.347,365.063z"/>
<path fill="#D0A260" d="M519.24,356.858l-9.06-12.297c0,0-5.179,31.71,12.293,27.826L519.24,356.858z"/>
<path fill="#A6A6A6" d="M527.667,349.846c-1.274,0-2.306-1.033-2.306-2.306v-15.25c0-1.271-1.035-2.306-2.307-2.306H510.86
	c-3.815,0-6.918-3.104-6.918-6.918v-7.328c0-1.271-1.035-2.306-2.307-2.306h-8.24c-1.274,0-2.306-1.033-2.306-2.306
	s1.032-2.306,2.306-2.306h8.24c3.815,0,6.918,3.104,6.918,6.918v7.328c0,1.271,1.035,2.306,2.307,2.306h12.194
	c3.815,0,6.918,3.104,6.918,6.918v15.25C529.973,348.813,528.941,349.846,527.667,349.846z"/>
<path fill="#A6A6A6" d="M509.069,340.658h-6.958c-3.815,0-6.918-3.104-6.918-6.918v-5.871c0-1.273,1.032-2.306,2.306-2.306
	s2.306,1.033,2.306,2.306v5.871c0,1.271,1.035,2.306,2.307,2.306h6.958c1.272,0,2.307-1.034,2.307-2.306v-4.767
	c0-1.274,1.032-2.306,2.306-2.306c1.274,0,2.306,1.033,2.306,2.306v4.767C515.987,337.554,512.883,340.658,509.069,340.658z"/>
<path fill="#A6A6A6" d="M518.213,320.164h-11.572c-1.274,0-2.306-1.033-2.306-2.306s1.032-2.306,2.306-2.306h11.572
	c1.272,0,2.307-1.034,2.307-2.306v-4.766c0-1.273,1.032-2.306,2.306-2.306c1.274,0,2.306,1.033,2.306,2.306v4.766
	C525.132,317.061,522.028,320.164,518.213,320.164z"/>
<path fill="#A6A6A6" d="M556.985,320.164h-11.572c-3.815,0-6.918-3.104-6.918-6.918v-4.766c0-1.273,1.032-2.306,2.306-2.306
	c1.274,0,2.306,1.033,2.306,2.306v4.766c0,1.271,1.035,2.306,2.307,2.306h11.572c1.274,0,2.306,1.033,2.306,2.306
	C559.291,319.132,558.259,320.164,556.985,320.164z"/>
<path fill="#A6A6A6" d="M537.665,349.846c-1.274,0-2.306-1.033-2.306-2.306v-15.25c0-3.815,3.104-6.918,6.919-6.918h12.194
	c1.272,0,2.307-1.034,2.307-2.306v-7.328c0-3.815,3.104-6.918,6.918-6.918h8.239c1.274,0,2.306,1.033,2.306,2.306
	c0,1.274-1.032,2.306-2.306,2.306h-8.239c-1.272,0-2.307,1.034-2.307,2.306v7.328c0,3.815-3.104,6.918-6.919,6.918h-12.194
	c-1.272,0-2.307,1.034-2.307,2.306v15.25C539.971,348.813,538.938,349.846,537.665,349.846z"/>
<path fill="#A6A6A6" d="M563.22,340.658h-6.957c-3.815,0-6.918-3.104-6.918-6.918v-4.767c0-1.274,1.032-2.306,2.306-2.306
	c1.274,0,2.306,1.033,2.306,2.306v4.767c0,1.271,1.035,2.306,2.307,2.306h6.957c1.272,0,2.307-1.034,2.307-2.306v-5.871
	c0-1.273,1.032-2.306,2.306-2.306c1.274,0,2.306,1.033,2.306,2.306v5.871C570.138,337.554,567.035,340.658,563.22,340.658z"/>
<path opacity="0.1" fill="#231F20" enable-background="new    " d="M535.018,388.663c-3.37-0.009-6.103-2.747-6.091-6.12l0,0
	c0.005-3.372,2.745-6.1,6.116-6.094l0,0c3.374,0.007,6.103,2.746,6.092,6.118l0,0C541.132,385.94,538.393,388.668,535.018,388.663
	L535.018,388.663z"/>
<path fill="#DA4637" d="M533.061,385.482c-3.37-0.009-6.103-2.747-6.091-6.12l0,0c0.005-3.372,2.745-6.1,6.116-6.094l0,0
	c3.374,0.007,6.103,2.746,6.092,6.118l0,0C539.174,382.759,536.436,385.488,533.061,385.482L533.061,385.482z"/>
<path fill="#FFFFFF" d="M525.779,365.481c-1.863-0.004-3.366-1.516-3.363-3.377l0,0c0.003-1.864,1.515-3.369,3.378-3.366l0,0
	c1.863,0.004,3.368,1.516,3.366,3.379l0,0C529.154,363.978,527.642,365.485,525.779,365.481L525.779,365.481z"/>
<path fill="#231F20" d="M526.692,362.59c0.774,0.442,1.041,1.43,0.599,2.203l0,0c-0.443,0.774-1.43,1.043-2.204,0.6l0,0
	c-0.774-0.443-1.045-1.43-0.6-2.203l0,0C524.929,362.416,525.916,362.147,526.692,362.59L526.692,362.59z"/>
<path fill="#FFFFFF" d="M541.973,365.481c1.863-0.004,3.366-1.516,3.363-3.377l0,0c-0.003-1.864-1.515-3.369-3.378-3.366l0,0
	c-1.863,0.004-3.368,1.516-3.366,3.379l0,0C538.598,363.978,540.11,365.485,541.973,365.481L541.973,365.481z"/>
<path fill="#231F20" d="M541.06,362.59c-0.774,0.442-1.041,1.43-0.599,2.203l0,0c0.443,0.774,1.43,1.043,2.204,0.6l0,0
	c0.774-0.443,1.045-1.43,0.6-2.203l0,0C542.823,362.416,541.836,362.147,541.06,362.59L541.06,362.59z"/>
<g opacity="0.2">
	<path fill="#231F20" d="M544.697,347.989c0.418,1.408,0.65,2.896,0.65,4.44v5.967c0,26.469-15.007,35.399-24.209,25.173
		c7.817,19.374,28.209,12.347,28.209-18.507v-5.967C549.347,354.748,547.566,350.819,544.697,347.989z"/>
</g>
<path opacity="0.1" fill="#231F20" enable-background="new    " d="M533.479,244.214c-33.106,0-59.943,26.837-59.943,59.943v20
	c0-33.105,26.837-59.943,59.943-59.943c33.105,0,59.943,26.837,59.943,59.943v-20C593.422,271.052,566.585,244.214,533.479,244.214z
	"/>
<path fill="#D0A260" d="M546.984,355.094l9.06-12.297c0,0,5.179,31.71-12.293,27.826L546.984,355.094z"/>
<path fill="#CCCBCB" d="M546.984,355.094l9.06-12.297c0,0,5.179,31.71-12.293,27.826L546.984,355.094z"/>
<path fill="#D0A260" d="M549.347,363.299v-5.967c0-8.619-6.986-15.606-15.606-15.606c-8.618,0-15.606,6.987-15.606,15.606v6.211
	C518.136,403.18,549.347,401.468,549.347,363.299z"/>
<g opacity="0.2">
	<path fill="#231F20" d="M544.697,346.225c0.418,1.408,0.65,2.896,0.65,4.44v5.967c0,26.469-15.007,35.399-24.209,25.173
		c7.817,19.374,28.209,12.347,28.209-18.507v-5.967C549.347,352.984,547.566,349.055,544.697,346.225z"/>
</g>
<path fill="#D0A260" d="M519.24,355.094l-9.06-12.297c0,0-5.179,31.71,12.293,27.826L519.24,355.094z"/>
<path fill="#A6A6A6" d="M527.667,348.082c-1.274,0-2.306-1.033-2.306-2.306v-15.25c0-1.271-1.035-2.306-2.307-2.306H510.86
	c-3.815,0-6.918-3.104-6.918-6.918v-7.328c0-1.271-1.035-2.306-2.307-2.306h-8.24c-1.274,0-2.306-1.033-2.306-2.306
	s1.032-2.306,2.306-2.306h8.24c3.815,0,6.918,3.104,6.918,6.918v7.328c0,1.271,1.035,2.306,2.307,2.306h12.194
	c3.815,0,6.918,3.104,6.918,6.918v15.25C529.973,347.049,528.941,348.082,527.667,348.082z"/>
<path fill="#A6A6A6" d="M509.069,338.894h-6.958c-3.815,0-6.918-3.104-6.918-6.918v-5.871c0-1.273,1.032-2.306,2.306-2.306
	s2.306,1.033,2.306,2.306v5.871c0,1.271,1.035,2.306,2.307,2.306h6.958c1.272,0,2.307-1.034,2.307-2.306v-4.767
	c0-1.274,1.032-2.306,2.306-2.306c1.274,0,2.306,1.033,2.306,2.306v4.767C515.987,335.79,512.883,338.894,509.069,338.894z"/>
<path fill="#A6A6A6" d="M518.213,318.4h-11.572c-1.274,0-2.306-1.033-2.306-2.306s1.032-2.306,2.306-2.306h11.572
	c1.272,0,2.307-1.034,2.307-2.306v-4.766c0-1.273,1.032-2.306,2.306-2.306c1.274,0,2.306,1.033,2.306,2.306v4.766
	C525.132,315.296,522.028,318.4,518.213,318.4z"/>
<path fill="#A6A6A6" d="M556.985,318.4h-11.572c-3.815,0-6.918-3.104-6.918-6.918v-4.766c0-1.273,1.032-2.306,2.306-2.306
	c1.274,0,2.306,1.033,2.306,2.306v4.766c0,1.271,1.035,2.306,2.307,2.306h11.572c1.274,0,2.306,1.033,2.306,2.306
	C559.291,317.367,558.259,318.4,556.985,318.4z"/>
<path fill="#A6A6A6" d="M537.665,348.082c-1.274,0-2.306-1.033-2.306-2.306v-15.25c0-3.815,3.104-6.918,6.919-6.918h12.194
	c1.272,0,2.307-1.034,2.307-2.306v-7.328c0-3.815,3.104-6.918,6.918-6.918h8.239c1.274,0,2.306,1.033,2.306,2.306
	c0,1.274-1.032,2.306-2.306,2.306h-8.239c-1.272,0-2.307,1.034-2.307,2.306v7.328c0,3.815-3.104,6.918-6.919,6.918h-12.194
	c-1.272,0-2.307,1.034-2.307,2.306v15.25C539.971,347.049,538.938,348.082,537.665,348.082z"/>
<path fill="#A6A6A6" d="M563.22,338.894h-6.957c-3.815,0-6.918-3.104-6.918-6.918v-4.767c0-1.274,1.032-2.306,2.306-2.306
	c1.274,0,2.306,1.033,2.306,2.306v4.767c0,1.271,1.035,2.306,2.307,2.306h6.957c1.272,0,2.307-1.034,2.307-2.306v-5.871
	c0-1.273,1.032-2.306,2.306-2.306c1.274,0,2.306,1.033,2.306,2.306v5.871C570.138,335.79,567.035,338.894,563.22,338.894z"/>
<path opacity="0.1" fill="#231F20" enable-background="new    " d="M535.018,386.898c-3.37-0.009-6.103-2.747-6.091-6.12l0,0
	c0.005-3.372,2.745-6.1,6.116-6.094l0,0c3.374,0.007,6.103,2.746,6.092,6.118l0,0C541.132,384.175,538.393,386.904,535.018,386.898
	L535.018,386.898z"/>
<path fill="#DA4637" d="M533.061,383.718c-3.37-0.009-6.103-2.747-6.091-6.12l0,0c0.005-3.372,2.745-6.1,6.116-6.094l0,0
	c3.374,0.007,6.103,2.746,6.092,6.118l0,0C539.174,380.994,536.436,383.723,533.061,383.718L533.061,383.718z"/>
<path fill="#FFFFFF" d="M525.779,363.717c-1.863-0.004-3.366-1.516-3.363-3.377l0,0c0.003-1.864,1.515-3.369,3.378-3.366l0,0
	c1.863,0.004,3.368,1.516,3.366,3.379l0,0C529.154,362.214,527.642,363.721,525.779,363.717L525.779,363.717z"/>
<path fill="#231F20" d="M526.692,360.825c0.774,0.442,1.041,1.43,0.599,2.203l0,0c-0.443,0.774-1.43,1.043-2.204,0.6l0,0
	c-0.774-0.443-1.045-1.43-0.6-2.203l0,0C524.929,360.651,525.916,360.383,526.692,360.825L526.692,360.825z"/>
<path fill="#FFFFFF" d="M541.973,363.717c1.863-0.004,3.366-1.516,3.363-3.377l0,0c-0.003-1.864-1.515-3.369-3.378-3.366l0,0
	c-1.863,0.004-3.368,1.516-3.366,3.379l0,0C538.598,362.214,540.11,363.721,541.973,363.717L541.973,363.717z"/>
<path fill="#231F20" d="M541.06,360.825c-0.774,0.442-1.041,1.43-0.599,2.203l0,0c0.443,0.774,1.43,1.043,2.204,0.6l0,0
	c0.774-0.443,1.045-1.43,0.6-2.203l0,0C542.823,360.651,541.836,360.383,541.06,360.825L541.06,360.825z"/>
<g>
	<path fill="#FDD500" d="M349.341,319.514c-0.039,0.038-0.079,0.074-0.118,0.112c0.036-0.035,0.074-0.067,0.11-0.102
		C349.336,319.521,349.338,319.518,349.341,319.514z"/>
	<path fill="#FDD500" d="M357.415,370.036c-16.178-16.178-19.876-38.714-8.261-50.343c-0.004,0.004-0.009,0.008-0.014,0.013
		c-16.184,16.184-16.183,42.424-0.001,58.606c16.186,16.186,42.423,16.184,58.607,0c0.005-0.005,0.009-0.009,0.013-0.014
		C396.13,389.912,373.596,386.217,357.415,370.036z"/>
	<path fill="#1EA8E0" d="M407.746,319.705c-16.065-16.065-42.037-16.174-58.247-0.34c0.017-0.016,0.036-0.029,0.053-0.044
		c11.732-11.173,33.958-7.393,49.965,8.614c16.011,16.011,19.788,38.234,8.615,49.966c-0.015,0.017-0.029,0.036-0.044,0.053
		C423.921,361.743,423.814,335.774,407.746,319.705z"/>
	<path fill="#FDD500" d="M378.3,390.829c0.054,0,0.108-0.004,0.162-0.004c-0.004,0-0.008-0.001-0.013-0.001
		C378.399,390.824,378.35,390.829,378.3,390.829z"/>
	<path fill="#E74536" d="M378.217,390.832c0.028,0,0.055-0.003,0.083-0.003c-0.032,0-0.064,0.002-0.096,0.002
		C378.208,390.832,378.212,390.832,378.217,390.832z"/>
	<path fill="#E74536" d="M349.163,319.683c-0.003,0.003-0.006,0.007-0.009,0.01c0.023-0.023,0.047-0.044,0.07-0.066
		C349.204,319.646,349.183,319.663,349.163,319.683z"/>
	<path fill="#1EA8E0" d="M370.473,356.978c-16.105-16.105-25.527-32.819-21.14-37.453c-0.036,0.035-0.074,0.067-0.11,0.102
		c-0.023,0.023-0.047,0.044-0.07,0.066c-11.614,11.629-7.916,34.165,8.261,50.343c16.181,16.181,38.715,19.877,50.344,8.262
		c0.023-0.023,0.044-0.047,0.066-0.07c0.035-0.036,0.067-0.074,0.102-0.11C403.293,382.506,386.582,373.087,370.473,356.978z"/>
	<path fill="#FDD500" d="M386.915,340.536c16.011,16.011,25.409,32.613,21.216,37.365c11.173-11.732,7.396-33.955-8.615-49.966
		c-16.007-16.007-38.233-19.787-49.965-8.614C354.303,315.128,370.908,324.529,386.915,340.536z"/>
	<path fill="#1EA8E0" d="M349.391,319.454c-0.018,0.018-0.032,0.041-0.05,0.06c0.052-0.051,0.105-0.099,0.157-0.149
		C349.464,319.396,349.424,319.421,349.391,319.454z"/>
	<path fill="#1EA8E0" d="M378.54,390.832c0.047,0,0.092-0.011,0.139-0.013c-0.072,0.001-0.144,0.005-0.217,0.005
		C378.488,390.826,378.514,390.832,378.54,390.832z"/>
	<path fill="#1EA8E0" d="M378.449,390.824c0.004,0,0.008,0.001,0.013,0.001c0.073,0,0.144-0.005,0.217-0.005
		c0.023-0.001,0.046-0.005,0.069-0.006C378.648,390.816,378.549,390.823,378.449,390.824z"/>
	<path fill="#1EA8E0" d="M349.551,319.321c-0.017,0.015-0.036,0.029-0.053,0.044c-0.052,0.051-0.105,0.098-0.157,0.149
		c-0.003,0.003-0.005,0.007-0.008,0.01C349.404,319.454,349.479,319.39,349.551,319.321z"/>
	<path fill="#E74536" d="M370.473,356.978c16.109,16.109,32.82,25.528,37.454,21.141c0.07-0.071,0.135-0.146,0.203-0.218
		c4.193-4.752-5.205-21.354-21.216-37.365c-16.007-16.007-32.612-25.408-37.364-21.215c-0.072,0.069-0.147,0.133-0.218,0.203
		C344.946,324.158,354.368,340.872,370.473,356.978z"/>
	<g opacity="0.2">
		<path d="M400.336,313.931c8.168,7,13.361,17.37,13.361,28.968c0,21.079-17.086,38.163-38.162,38.163
			c-20.889,0-37.833-16.786-38.135-37.605c-0.248,1.833-0.422,3.693-0.422,5.597c0,22.89,18.554,41.441,41.441,41.441
			c22.888,0,41.441-18.551,41.441-41.441C419.86,334.228,412.046,321.252,400.336,313.931z"/>
	</g>
</g>
<g>
	<path fill="#1EA8E0" d="M114.06,342.991c0,22.618-18.332,40.948-40.948,40.948s-40.948-18.33-40.948-40.948
		c0-22.613,18.333-40.947,40.948-40.947S114.06,320.378,114.06,342.991z"/>
	<g>
		<path fill="#FFFFFF" d="M83.789,382.484c-10.251,0.34-20.614-3.356-28.421-11.161c-11.81-11.812-11.81-31.035,0-42.846
			c9.292-9.29,24.409-9.29,33.7,0c3.524,3.523,5.465,8.204,5.465,13.188c0,4.982-1.94,9.665-5.467,13.188
			c-2.74,2.743-6.385,4.255-10.259,4.255c-0.003,0-0.005,0-0.007,0c-3.873,0-7.515-1.508-10.253-4.247
			c-4.369-4.368-4.372-11.475-0.007-15.839c1.615-1.617,3.764-2.51,6.048-2.51c0.002,0,0.004,0,0.006,0
			c2.281,0,4.427,0.888,6.04,2.502c1.218,1.217,1.888,2.832,1.888,4.552c-0.001,1.716-0.67,3.327-1.888,4.543
			c-0.893,0.897-2.081,1.39-3.345,1.392c-0.003,0-0.005,0-0.007,0c-1.262,0-2.448-0.491-3.339-1.381
			c-1.318-1.319-1.32-3.467-0.005-4.782c0.433-0.434,1.009-0.674,1.622-0.674h0.002c0.612,0,1.187,0.237,1.619,0.67
			c0.8,0.799,2.096,0.799,2.895,0c0.8-0.8,0.8-2.095,0-2.896c-1.206-1.205-2.808-1.868-4.514-1.868c-0.002,0-0.004,0-0.006,0
			c-1.706,0.001-3.309,0.667-4.516,1.875c-2.908,2.912-2.906,7.654,0.006,10.569c1.666,1.665,3.881,2.584,6.236,2.584
			c0.004,0,0.008,0,0.012,0c2.358-0.005,4.574-0.926,6.238-2.591c1.989-1.986,3.085-4.627,3.086-7.436
			c0-2.816-1.095-5.46-3.087-7.45c-2.387-2.387-5.561-3.701-8.935-3.701c-0.002,0-0.006,0-0.007,0
			c-3.378,0.003-6.554,1.319-8.942,3.708c-5.961,5.96-5.958,15.664,0.008,21.631c3.511,3.513,8.181,5.446,13.148,5.446
			c0.002,0,0.005,0,0.007,0c4.97-0.001,9.642-1.94,13.155-5.454c4.297-4.295,6.665-10.008,6.665-16.084
			c-0.001-6.077-2.368-11.788-6.665-16.084c-10.887-10.884-28.603-10.884-39.491,0c-13.408,13.411-13.408,35.228,0,48.638
			c3.989,3.987,8.589,6.989,13.492,9.057c2.325,0.412,4.705,0.663,7.148,0.663C76.814,383.939,80.38,383.404,83.789,382.484z"/>
	</g>
</g>
<g opacity="0.2">
	<path fill="#237284" d="M94.768,308.285c8.07,6.917,13.202,17.163,13.202,28.624c0,20.829-16.882,37.709-37.708,37.709
		c-20.64,0-37.383-16.586-37.681-37.157c-0.245,1.811-0.417,3.649-0.417,5.53c0,22.618,18.333,40.948,40.948,40.948
		s40.948-18.33,40.948-40.948C114.06,328.34,106.338,315.519,94.768,308.285z"/>
</g>
</svg>
