<?xml version="1.0" encoding="utf-8"?>
<!-- Generator: Adobe Illustrator 17.0.0, SVG Export Plug-In . SVG Version: 6.00 Build 0)  -->
<!DOCTYPE svg PUBLIC "-//W3C//DTD SVG 1.1//EN" "http://www.w3.org/Graphics/SVG/1.1/DTD/svg11.dtd">
<svg version="1.1" id="Layer_1" xmlns="http://www.w3.org/2000/svg" xmlns:xlink="http://www.w3.org/1999/xlink" x="0px" y="0px"
	 width="404.713px" height="267.634px" viewBox="0 0 404.713 267.634" enable-background="new 0 0 404.713 267.634"
	 xml:space="preserve">
<g>
	<rect x="253.049" y="195.646" fill="#725D4D" width="18.159" height="71.988"/>
	<polygon fill="#09713A" points="262.127,0 348.501,245.956 262.127,245.956 184.268,245.956 	"/>
	<g>
		<defs>
			<polygon id="SVGID_1_" points="262.127,0 348.501,245.956 262.127,245.956 184.268,245.956 			"/>
		</defs>
		<clipPath id="SVGID_2_">
			<use xlink:href="#SVGID_1_"  overflow="visible"/>
		</clipPath>
		<g clip-path="url(#SVGID_2_)">
			<g>
				<polyline fill="none" stroke="#0B834B" stroke-width="9.5161" stroke-miterlimit="10" points="179.04,52.348 262.127,135.436 
					353.728,52.348 				"/>
				<polyline fill="none" stroke="#0B834B" stroke-width="9.5161" stroke-miterlimit="10" points="179.04,107.607 262.127,190.694 
					353.728,107.607 				"/>
				<polyline fill="none" stroke="#0B834B" stroke-width="9.5161" stroke-miterlimit="10" points="179.04,162.867 262.127,245.956 
					353.728,162.867 				"/>
			</g>
			<g>
				<polyline fill="none" stroke="#0B834B" stroke-width="9.5161" stroke-miterlimit="10" points="179.04,-113.432 262.127,-30.342 
					353.728,-113.432 				"/>
				<polyline fill="none" stroke="#0B834B" stroke-width="9.5161" stroke-miterlimit="10" points="179.04,-58.171 262.127,24.915 
					353.728,-58.171 				"/>
				<polyline fill="none" stroke="#0B834B" stroke-width="9.5161" stroke-miterlimit="10" points="179.04,-2.912 262.127,80.177 
					353.728,-2.912 				"/>
			</g>
		</g>
	</g>
	<polygon fill="#749CB0" points="271.208,245.956 253.049,245.956 253.049,258.184 271.208,249.962 	"/>
	<g>
		<path fill="#FFFFFF" stroke="#FFFFFF" stroke-width="1.586" stroke-linejoin="round" stroke-miterlimit="10" d="M244.159,194.352
			c0,7.471,6.057,13.526,13.525,13.526c7.472,0,13.525-6.055,13.525-13.526H244.159z"/>
		<path fill="#FFFFFF" stroke="#FFFFFF" stroke-width="1.586" stroke-linejoin="round" stroke-miterlimit="10" d="M217.111,194.352
			c0,7.471,6.055,13.526,13.525,13.526c7.468,0,13.523-6.055,13.523-13.526H217.111z"/>
		<path fill="#FFFFFF" stroke="#FFFFFF" stroke-width="1.586" stroke-linejoin="round" stroke-miterlimit="10" d="M190.063,194.352
			c0,7.471,6.051,13.526,13.521,13.526c7.472,0,13.527-6.055,13.527-13.526H190.063z"/>
		<path fill="#FFFFFF" stroke="#FFFFFF" stroke-width="1.586" stroke-linejoin="round" stroke-miterlimit="10" d="M298.839,151.878
			c0,7.468,6.054,13.523,13.526,13.523c7.472,0,13.525-6.055,13.525-13.523H298.839z"/>
		<path fill="#FFFFFF" stroke="#FFFFFF" stroke-width="1.586" stroke-linejoin="round" stroke-miterlimit="10" d="M271.794,151.878
			c0,7.468,6.053,13.523,13.522,13.523c7.472,0,13.523-6.055,13.523-13.523H271.794z"/>
		<path fill="#FFFFFF" stroke="#FFFFFF" stroke-width="1.586" stroke-linejoin="round" stroke-miterlimit="10" d="M244.743,151.878
			c0,7.468,6.057,13.523,13.526,13.523c7.467,0,13.525-6.055,13.525-13.523H244.743z"/>
		<path fill="#FFFFFF" stroke="#FFFFFF" stroke-width="1.586" stroke-linejoin="round" stroke-miterlimit="10" d="M244.159,96.481
			c0,7.472,6.057,13.525,13.525,13.525c7.472,0,13.525-6.053,13.525-13.525H244.159z"/>
		<path fill="#FFFFFF" stroke="#FFFFFF" stroke-width="1.586" stroke-linejoin="round" stroke-miterlimit="10" d="M217.111,96.481
			c0,7.472,6.055,13.525,13.525,13.525c7.468,0,13.523-6.053,13.523-13.525H217.111z"/>
		<path fill="#FFFFFF" stroke="#FFFFFF" stroke-width="1.586" stroke-linejoin="round" stroke-miterlimit="10" d="M263.165,54.38
			c0,7.469,6.049,13.523,13.523,13.523c7.469,0,13.521-6.054,13.521-13.523H263.165z"/>
	</g>
</g>
<g>
	<rect x="338.177" y="207.744" fill="#725D4D" width="13.901" height="59.89"/>
	<polygon fill="#06924A" points="345.128,58.018 404.713,246.243 345.128,246.243 285.543,246.243 	"/>
	<g>
		<defs>
			<polygon id="SVGID_3_" points="345.128,58.018 404.713,246.243 345.128,246.243 285.543,246.243 			"/>
		</defs>
		<clipPath id="SVGID_4_">
			<use xlink:href="#SVGID_3_"  overflow="visible"/>
		</clipPath>
		<g clip-path="url(#SVGID_4_)">
			<g>
				<polyline fill="none" stroke="#0DA960" stroke-width="5.1992" stroke-miterlimit="10" points="281.539,98.075 345.128,161.665 
					408.716,98.075 				"/>
				<polyline fill="none" stroke="#0DA960" stroke-width="5.1992" stroke-miterlimit="10" points="281.539,140.366 345.128,203.954 
					408.716,140.366 				"/>
				<polyline fill="none" stroke="#0DA960" stroke-width="5.1992" stroke-miterlimit="10" points="281.539,182.656 345.128,246.243 
					408.716,182.656 				"/>
			</g>
			<g>
				<polyline fill="none" stroke="#0DA960" stroke-width="5.1992" stroke-miterlimit="10" points="281.539,-28.795 345.128,34.792 
					408.716,-28.795 				"/>
				<polyline fill="none" stroke="#0DA960" stroke-width="5.1992" stroke-miterlimit="10" points="281.539,13.496 345.128,77.083 
					408.716,13.496 				"/>
				<polyline fill="none" stroke="#0DA960" stroke-width="5.1992" stroke-miterlimit="10" points="281.539,55.786 345.128,119.373 
					408.716,55.786 				"/>
			</g>
		</g>
	</g>
	<polygon fill="#749CB0" points="345.128,58.018 379.387,246.243 404.713,246.243 	"/>
	<polygon fill="#749CB0" points="352.078,246.243 338.177,246.243 338.177,255.604 352.078,249.31 	"/>
	<g>
		<path fill="#FFFFFF" stroke="#FFFFFF" stroke-width="0.8665" stroke-linejoin="round" stroke-miterlimit="10" d="M331.376,211.928
			c0,5.716,4.635,10.35,10.351,10.35c5.715,0,10.351-4.634,10.351-10.35H331.376z"/>
		<path fill="#FFFFFF" stroke="#FFFFFF" stroke-width="0.8665" stroke-linejoin="round" stroke-miterlimit="10" d="M310.675,211.928
			c0,5.716,4.634,10.35,10.349,10.35c5.717,0,10.352-4.634,10.352-10.35H310.675z"/>
		<path fill="#FFFFFF" stroke="#FFFFFF" stroke-width="0.8665" stroke-linejoin="round" stroke-miterlimit="10" d="M289.976,211.928
			c0,5.716,4.634,10.35,10.35,10.35c5.719,0,10.35-4.634,10.35-10.35H289.976z"/>
		<path fill="#FFFFFF" stroke="#FFFFFF" stroke-width="0.8665" stroke-linejoin="round" stroke-miterlimit="10" d="M372.777,181.525
			c0,5.72,4.634,10.352,10.35,10.352c5.719,0,10.352-4.632,10.352-10.352H372.777z"/>
		<path fill="#FFFFFF" stroke="#FFFFFF" stroke-width="0.8665" stroke-linejoin="round" stroke-miterlimit="10" d="M352.078,181.525
			c0,5.72,4.634,10.352,10.35,10.352s10.35-4.632,10.35-10.352H352.078z"/>
		<path fill="#FFFFFF" stroke="#FFFFFF" stroke-width="0.8665" stroke-linejoin="round" stroke-miterlimit="10" d="M331.376,181.525
			c0,5.72,4.635,10.352,10.351,10.352c5.715,0,10.351-4.632,10.351-10.352H331.376z"/>
		<path fill="#FFFFFF" stroke="#FFFFFF" stroke-width="0.8665" stroke-linejoin="round" stroke-miterlimit="10" d="M330.81,148.923
			c0,5.719,4.631,10.351,10.347,10.351c5.719,0,10.352-4.632,10.352-10.351H330.81z"/>
		<path fill="#FFFFFF" stroke="#FFFFFF" stroke-width="0.8665" stroke-linejoin="round" stroke-miterlimit="10" d="M310.109,148.923
			c0,5.719,4.634,10.351,10.35,10.351c5.716,0,10.352-4.632,10.352-10.351H310.109z"/>
		<path fill="#FFFFFF" stroke="#FFFFFF" stroke-width="0.8665" stroke-linejoin="round" stroke-miterlimit="10" d="M351.546,121.408
			c0,5.719,4.634,10.351,10.35,10.351c5.719,0,10.352-4.632,10.352-10.351H351.546z"/>
		<path fill="#FFFFFF" stroke="#FFFFFF" stroke-width="0.8665" stroke-linejoin="round" stroke-miterlimit="10" d="M330.846,121.408
			c0,5.719,4.634,10.351,10.351,10.351c5.717,0,10.35-4.632,10.35-10.351H330.846z"/>
		<path fill="#FFFFFF" stroke="#FFFFFF" stroke-width="0.8665" stroke-linejoin="round" stroke-miterlimit="10" d="M326.158,94.519
			c0,5.716,4.632,10.351,10.35,10.351c5.719,0,10.351-4.635,10.351-10.351H326.158z"/>
	</g>
</g>
<g>
	<rect x="47.253" y="207.911" fill="#5A4A3D" width="12.477" height="53.763"/>
	<polygon fill="#06552C" points="53.492,65.681 106.983,234.656 53.492,234.656 0,234.656 	"/>
	<polygon fill="#749CB0" points="59.731,234.656 47.253,234.656 47.253,240.763 59.731,236.656 	"/>
</g>
<g>
	<rect x="101.213" y="210.603" fill="#725D4D" width="12.025" height="51.82"/>
	<polygon fill="#06924A" points="107.225,81.054 158.782,243.915 107.225,243.915 55.669,243.915 	"/>
	<g>
		<defs>
			<polygon id="SVGID_5_" points="107.225,81.054 158.782,243.915 107.225,243.915 55.669,243.915 			"/>
		</defs>
		<clipPath id="SVGID_6_">
			<use xlink:href="#SVGID_5_"  overflow="visible"/>
		</clipPath>
		<g clip-path="url(#SVGID_6_)">
			<g>
				<polyline fill="none" stroke="#0DA960" stroke-width="6" stroke-miterlimit="10" points="52.207,115.715 107.225,170.734 
					162.244,115.715 				"/>
				<polyline fill="none" stroke="#0DA960" stroke-width="6" stroke-miterlimit="10" points="52.207,152.305 107.225,207.324 
					162.244,152.305 				"/>
				<polyline fill="none" stroke="#0DA960" stroke-width="6" stroke-miterlimit="10" points="52.207,188.897 107.225,243.915 
					162.244,188.897 				"/>
			</g>
			<g>
				<polyline fill="none" stroke="#0DA960" stroke-width="6" stroke-miterlimit="10" points="52.207,5.941 107.225,60.96 
					162.244,5.941 				"/>
				<polyline fill="none" stroke="#0DA960" stroke-width="6" stroke-miterlimit="10" points="52.207,42.532 107.225,97.551 
					162.244,42.532 				"/>
				<polyline fill="none" stroke="#0DA960" stroke-width="6" stroke-miterlimit="10" points="52.207,79.124 107.225,134.142 
					162.244,79.124 				"/>
			</g>
		</g>
	</g>
	<polygon fill="#749CB0" points="107.225,81.054 136.869,243.915 158.782,243.915 	"/>
	<polygon fill="#749CB0" points="113.238,243.915 101.213,243.915 101.213,252.013 113.238,246.568 	"/>
	<g>
		<path fill="#FFFFFF" stroke="#FFFFFF" stroke-linejoin="round" stroke-miterlimit="10" d="M95.328,214.223
			c0,4.947,4.008,8.955,8.956,8.955c4.946,0,8.954-4.009,8.954-8.955H95.328z"/>
		<path fill="#FFFFFF" stroke="#FFFFFF" stroke-linejoin="round" stroke-miterlimit="10" d="M77.417,214.223
			c0,4.947,4.009,8.955,8.954,8.955c4.946,0,8.956-4.009,8.956-8.955H77.417z"/>
		<path fill="#FFFFFF" stroke="#FFFFFF" stroke-linejoin="round" stroke-miterlimit="10" d="M59.506,214.223
			c0,4.947,4.01,8.955,8.955,8.955s8.956-4.009,8.956-8.955H59.506z"/>
		<path fill="#FFFFFF" stroke="#FFFFFF" stroke-linejoin="round" stroke-miterlimit="10" d="M131.15,187.919
			c0,4.947,4.01,8.955,8.955,8.955c4.947,0,8.954-4.009,8.954-8.955H131.15z"/>
		<path fill="#FFFFFF" stroke="#FFFFFF" stroke-linejoin="round" stroke-miterlimit="10" d="M113.239,187.919
			c0,4.947,4.009,8.955,8.955,8.955c4.946,0,8.955-4.009,8.955-8.955H113.239z"/>
		<path fill="#FFFFFF" stroke="#FFFFFF" stroke-linejoin="round" stroke-miterlimit="10" d="M95.328,187.919
			c0,4.947,4.01,8.955,8.956,8.955c4.945,0,8.955-4.009,8.955-8.955H95.328z"/>
		<path fill="#FFFFFF" stroke="#FFFFFF" stroke-linejoin="round" stroke-miterlimit="10" d="M90.812,161.722
			c0,4.947,4.009,8.955,8.954,8.955c4.948,0,8.956-4.008,8.956-8.955H90.812z"/>
		<path fill="#FFFFFF" stroke="#FFFFFF" stroke-linejoin="round" stroke-miterlimit="10" d="M72.902,161.722
			c0,4.947,4.009,8.955,8.956,8.955c4.946,0,8.954-4.008,8.954-8.955H72.902z"/>
		<path fill="#FFFFFF" stroke="#FFFFFF" stroke-linejoin="round" stroke-miterlimit="10" d="M112.778,135.904
			c0,4.947,4.008,8.955,8.956,8.955c4.946,0,8.955-4.008,8.955-8.955H112.778z"/>
		<path fill="#FFFFFF" stroke="#FFFFFF" stroke-linejoin="round" stroke-miterlimit="10" d="M94.869,135.904
			c0,4.947,4.01,8.955,8.955,8.955s8.954-4.008,8.954-8.955H94.869z"/>
		<path fill="#FFFFFF" stroke="#FFFFFF" stroke-linejoin="round" stroke-miterlimit="10" d="M90.812,112.637
			c0,4.947,4.009,8.955,8.954,8.955c4.948,0,8.956-4.009,8.956-8.955H90.812z"/>
	</g>
</g>
</svg>
