<svg xmlns="http://www.w3.org/2000/svg" xmlns:xlink="http://www.w3.org/1999/xlink" width="417.332" height="266.348" viewBox="0 0 417.332 266.348"><path fill="#5A4A3D" d="M83.06 204.145h12.53v54H83.06z"/><path fill="#06552C" d="M89.324 61.31l53.722 169.7H35.604z"/><path fill="#749CB0" d="M95.59 231.01H83.06v6.133l12.53-4.123z"/><path fill="#725D4D" d="M121.497 226.184h8.064v31.96h-8.063z"/><path fill="#09713A" d="M125.53 139.326l38.345 109.193H90.962z"/><defs><path id="a" d="M125.53 139.326l38.345 109.193H90.962z"/></defs><clipPath id="b"><use xlink:href="#a" overflow="visible"/></clipPath><g clip-path="url(#b)" stroke="#0B834B" stroke-width="7.242" stroke-miterlimit="10" fill="none"><path d="M88.642 162.566l36.887 36.887 40.666-36.887"/><path d="M88.642 187.098l36.887 36.888 40.666-36.888"/><path d="M88.642 211.63l36.887 36.89 40.666-36.89"/><path d="M88.642 88.965l36.887 36.89 40.666-36.89"/><path d="M88.642 113.5l36.887 36.887 40.666-36.888"/><path d="M88.642 138.032l36.887 36.89 40.666-36.89"/></g><path fill="#749CB0" d="M129.56 248.52h-8.063v5.428l8.064-3.65z"/><g fill="#fff" stroke="#fff" stroke-width="1.207" stroke-linejoin="round" stroke-miterlimit="10"><path d="M117.553 225.61c0 3.316 2.686 6.003 6.003 6.003s6.005-2.687 6.005-6.003h-12.007z"/><path d="M105.543 225.61c0 3.316 2.69 6.003 6.004 6.003 3.317 0 6.005-2.687 6.005-6.003h-12.01z"/><path d="M93.534 225.61c0 3.316 2.69 6.003 6.005 6.003s6.003-2.687 6.003-6.003h-12.01z"/><path d="M141.83 206.752c0 3.316 2.685 6.004 6 6.004 3.32 0 6.006-2.688 6.006-6.004H141.83z"/><path d="M129.82 206.752c0 3.316 2.69 6.004 6.004 6.004 3.317 0 6.006-2.688 6.006-6.004h-12.01z"/><path d="M117.812 206.752c0 3.316 2.688 6.004 6.004 6.004 3.316 0 6.005-2.688 6.005-6.004h-12.008z"/><path d="M117.553 182.16c0 3.315 2.686 6.003 6.003 6.003s6.005-2.688 6.005-6.004h-12.007z"/><path d="M105.543 182.16c0 3.315 2.687 6.003 6.004 6.003 3.315 0 6.005-2.688 6.005-6.004h-12.01z"/></g><path fill="#725D4D" d="M39.963 212.672h10.554v45.472H39.963z"/><path fill="#06924A" d="M45.24 98.992l45.24 142.91H0z"/><defs><path id="c" d="M45.24 98.992l45.24 142.91H0z"/></defs><clipPath id="d"><use xlink:href="#c" overflow="visible"/></clipPath><g clip-path="url(#d)" stroke="#0DA960" stroke-width="6.766" stroke-miterlimit="10" fill="none"><path d="M-3.04 129.407l48.28 48.28 48.28-48.28"/><path d="M-3.04 161.515l48.28 48.28 48.28-48.28"/><path d="M-3.04 193.624l48.28 48.28 48.28-48.28"/><path d="M-3.04 33.08l48.28 48.28 48.28-48.28"/><path d="M-3.04 65.188l48.28 48.28 48.28-48.28"/><path d="M-3.04 97.298l48.28 48.28 48.28-48.28"/></g><path fill="#749CB0" d="M45.24 98.992l26.01 142.91h19.23z"/><path fill="#749CB0" d="M50.517 241.903H39.963v7.106l10.554-4.778z"/><path fill="#fff" stroke="#fff" stroke-width="1.128" stroke-linejoin="round" stroke-miterlimit="10" d="M34.8 215.848c0 4.34 3.518 7.858 7.858 7.858s7.86-3.517 7.86-7.858H34.8z"/><path fill="#fff" stroke="#fff" stroke-width="1.128" stroke-linejoin="round" stroke-miterlimit="10" d="M66.233 192.766c0 4.34 3.518 7.86 7.86 7.86 4.34 0 7.858-3.518 7.858-7.86H66.234z"/><path fill="#fff" stroke="#fff" stroke-width="1.128" stroke-linejoin="round" stroke-miterlimit="10" d="M50.517 192.766c0 4.34 3.518 7.86 7.86 7.86 4.34 0 7.856-3.518 7.856-7.86H50.517z"/><path fill="#fff" stroke="#fff" stroke-width="1.128" stroke-linejoin="round" stroke-miterlimit="10" d="M34.8 192.766c0 4.34 3.518 7.86 7.858 7.86s7.86-3.518 7.86-7.86H34.8z"/><path fill="#fff" stroke="#fff" stroke-width="1.128" stroke-linejoin="round" stroke-miterlimit="10" d="M34.37 168.012c0 4.34 3.516 7.86 7.856 7.86s7.86-3.518 7.86-7.86H34.368z"/><path fill="#fff" stroke="#fff" stroke-width="1.128" stroke-linejoin="round" stroke-miterlimit="10" d="M50.114 147.123c0 4.34 3.517 7.858 7.858 7.858s7.86-3.516 7.86-7.857H50.113z"/><path fill="#fff" stroke="#fff" stroke-width="1.128" stroke-linejoin="round" stroke-miterlimit="10" d="M34.397 147.123c0 4.34 3.518 7.858 7.86 7.858 4.34 0 7.857-3.516 7.857-7.857H34.397z"/><path fill="#fff" stroke="#fff" stroke-width="1.128" stroke-linejoin="round" stroke-miterlimit="10" d="M30.837 126.706c0 4.34 3.517 7.86 7.86 7.86 4.34 0 7.857-3.52 7.857-7.86H30.837z"/><path fill="#5A4A3D" d="M266.345 192.55h16.892v72.784h-16.892z"/><path fill="#725D4D" d="M339.395 196.195h16.28v70.153h-16.28z"/><path fill="#749CB0" d="M355.675 241.294h-16.28v10.962l16.28-7.37z"/><path fill="#06552C" d="M274.79 0l72.416 228.758H202.375z"/><path fill="#749CB0" d="M283.237 228.758h-16.892v8.267l16.892-5.56z"/><defs><path id="e" d="M347.535 20.813l69.797 220.48H277.738z"/></defs><clipPath id="f"><use xlink:href="#e" overflow="visible"/></clipPath><path clip-path="url(#f)" fill="#06924A" d="M347.535 20.813l69.797 220.48H277.738z"/><g clip-path="url(#f)" stroke="#0DA960" stroke-width="6" stroke-miterlimit="10" fill="none"><path d="M273.05 67.737l74.485 74.484 74.484-74.483"/><path d="M273.05 166.81l74.485 74.484 74.484-74.484"/><path d="M273.05 117.272l74.485 74.484 74.484-74.484"/></g><path clip-path="url(#f)" stroke="#0DA960" stroke-width="6" stroke-miterlimit="10" fill="none" d="M273.05-31.338l74.485 74.484 74.484-74.484"/><path clip-path="url(#f)" stroke="#0DA960" stroke-width="6" stroke-miterlimit="10" fill="none" d="M273.05 18.2l74.485 74.483L422.02 18.2"/><path fill="none" d="M347.535 20.813l69.797 220.48H277.738z"/><path fill="#749CB0" d="M347.535 20.813l40.13 220.48h29.667z"/><g fill="#fff" stroke="#fff" stroke-linejoin="round" stroke-miterlimit="10"><path d="M331.428 201.096c0 6.697 5.427 12.124 12.125 12.124 6.696 0 12.122-5.427 12.122-12.124h-24.247z"/><path d="M307.18 201.096c0 6.697 5.428 12.124 12.123 12.124s12.125-5.427 12.125-12.124H307.18z"/><path d="M282.932 201.096c0 6.697 5.428 12.124 12.124 12.124s12.125-5.427 12.125-12.124h-24.248z"/><path d="M379.923 165.486c0 6.697 5.428 12.124 12.124 12.124 6.697 0 12.122-5.427 12.122-12.124h-24.247z"/><path d="M355.676 165.486c0 6.697 5.428 12.124 12.124 12.124 6.696 0 12.124-5.427 12.124-12.124h-24.248z"/><path d="M331.428 165.486c0 6.697 5.43 12.124 12.125 12.124 6.694 0 12.124-5.427 12.124-12.124h-24.25z"/><path d="M325.315 130.02c0 6.697 5.427 12.124 12.122 12.124 6.698 0 12.125-5.427 12.125-12.124h-24.247z"/><path d="M301.067 130.02c0 6.697 5.427 12.124 12.125 12.124 6.696 0 12.122-5.427 12.122-12.124h-24.247z"/><path d="M355.053 95.068c0 6.697 5.427 12.124 12.125 12.124 6.696 0 12.124-5.427 12.124-12.124h-24.25z"/><path d="M330.807 95.068c0 6.697 5.428 12.124 12.124 12.124s12.123-5.427 12.123-12.124h-24.246z"/><path d="M325.315 63.57c0 6.696 5.427 12.123 12.122 12.123 6.698 0 12.125-5.427 12.125-12.124h-24.247z"/></g><g fill="#fff" stroke="#fff" stroke-width="1.128" stroke-linejoin="round" stroke-miterlimit="10"><path d="M19.083 215.848c0 4.34 3.518 7.858 7.858 7.858s7.86-3.517 7.86-7.858H19.083z"/><path d="M18.652 168.012c0 4.34 3.517 7.86 7.858 7.86 4.34 0 7.86-3.518 7.86-7.86H18.65z"/></g></svg>