<svg xmlns="http://www.w3.org/2000/svg" viewBox="0 0 119.02 119"><defs><style>.cls-1{opacity:0.1;}.cls-2{fill:#f9f9f9;}.cls-3{fill:#1565c0;}.cls-4{fill:#ffd200;}.cls-5{fill:#d43e2e;}.cls-6{fill:#dd4a2b;}</style></defs><title>beach_ball</title><g id="Layer_2" data-name="Layer 2"><g id="ART"><g class="cls-1"><path d="M61.3,61l5-56.75A57.58,57.58,0,0,0,19.93,21.78L61.27,61.16Z"/><path d="M105.73,98.23a57.45,57.45,0,0,0,9.57-57,59.87,59.87,0,0,0-2.56-5.76L61.3,61Z"/><path d="M5.92,76.2C6.42,78.09,7,80,7.72,81.82A57.49,57.49,0,0,0,52.61,118.3l8.62-56.92Z"/><path d="M61.27,61.16l.17.16-.21.06L52.61,118.3a57.41,57.41,0,0,0,53.12-20.07L61.3,61Z"/><path d="M112.74,35.43A57.51,57.51,0,0,0,66.26,4.2L61.3,61Z"/><path d="M5.92,76.2,61.23,61.38l0-.22L19.93,21.78A57.52,57.52,0,0,0,5.92,76.2Z"/><polygon points="61.27 61.16 61.23 61.38 61.44 61.32 61.27 61.16"/></g><path class="cls-2" d="M57.3,57,62.26.2A57.58,57.58,0,0,0,15.93,17.78L57.27,57.16Z"/><path class="cls-2" d="M101.73,94.23a57.45,57.45,0,0,0,9.57-57,59.87,59.87,0,0,0-2.56-5.76L57.3,57Z"/><path class="cls-2" d="M1.92,72.2C2.42,74.09,3,76,3.72,77.82A57.49,57.49,0,0,0,48.61,114.3l8.62-56.92Z"/><path class="cls-3" d="M57.27,57.16l.17.16-.21.06L48.61,114.3a57.41,57.41,0,0,0,53.12-20.07L57.3,57Z"/><path class="cls-4" d="M108.74,31.43A57.51,57.51,0,0,0,62.26.2L57.3,57Z"/><path class="cls-5" d="M1.92,72.2,57.23,57.38l0-.22L15.93,17.78A57.52,57.52,0,0,0,1.92,72.2Z"/><polygon class="cls-6" points="57.27 57.16 57.23 57.38 57.44 57.32 57.27 57.16"/></g></g></svg>