<svg xmlns="http://www.w3.org/2000/svg" viewBox="0 0 170.11 350.89"><defs><style>.cls-1{fill:#444;}.cls-2{fill:#83d1f3;}.cls-3{fill:#46b1e2;}.cls-4{fill:#fff;}.cls-5{fill:#fbd530;}</style></defs><title>disco_ball</title><g id="Layer_2" data-name="Layer 2"><g id="ART"><g id="Disco_Backgrounds" data-name="Disco Backgrounds"><rect class="cls-1" x="75.51" width="19.09" height="194.27"/><path class="cls-2" d="M164.27,237.84A83.85,83.85,0,0,0,89.54,182c-1.49-.08-3-.12-4.48-.12s-3,0-4.49.12a84.76,84.76,0,0,0-10,1.13,84,84,0,0,0,0,165.49,84.76,84.76,0,0,0,10,1.13c1.49.08,3,.12,4.49.12s3,0,4.48-.12a84.76,84.76,0,0,0,10-1.13,83.22,83.22,0,0,0,15.13-4.14,84.09,84.09,0,0,0,49.57-106.6Z"/><path class="cls-2" d="M37.36,322.54H21.66A85.33,85.33,0,0,0,55,345.44,77.37,77.37,0,0,1,37.36,322.54Z"/><path class="cls-3" d="M132.75,322.54h15.7a85.17,85.17,0,0,0,16.82-28.35H142.84A112.37,112.37,0,0,1,132.75,322.54Z"/><path class="cls-2" d="M142.84,237.48h22.43a85.17,85.17,0,0,0-16.82-28.35h-15.7A112.37,112.37,0,0,1,142.84,237.48Z"/><path class="cls-4" d="M142.84,294.19h22.43a85,85,0,0,0,4.84-28.35h-24.3A135.1,135.1,0,0,1,142.84,294.19Z"/><path class="cls-3" d="M145.81,265.84h24.3a85,85,0,0,0-4.84-28.36H142.84A135.13,135.13,0,0,1,145.81,265.84Z"/><path class="cls-2" d="M115.07,345.44a85.26,85.26,0,0,0,33.38-22.9h-15.7A77.21,77.21,0,0,1,115.07,345.44Z"/><path class="cls-3" d="M132.75,209.13h15.7a85.26,85.26,0,0,0-33.38-22.9A77.21,77.21,0,0,1,132.75,209.13Z"/><path class="cls-3" d="M27.28,237.48H4.85A84.78,84.78,0,0,0,0,265.83H24.3A134.43,134.43,0,0,1,27.28,237.48Z"/><path class="cls-2" d="M37.36,209.13H21.66A85,85,0,0,0,4.85,237.48H27.28A112,112,0,0,1,37.36,209.13Z"/><path class="cls-3" d="M37.36,322.54a112,112,0,0,1-10.08-28.35H4.85a84.84,84.84,0,0,0,16.82,28.35Z"/><path class="cls-2" d="M24.3,265.84H0a84.78,84.78,0,0,0,4.85,28.35H27.28A134.43,134.43,0,0,1,24.3,265.84Z"/><path class="cls-3" d="M55,186.23a85.19,85.19,0,0,0-33.37,22.9H37.36A77.37,77.37,0,0,1,55,186.23Z"/><path class="cls-4" d="M50.39,237.48H27.28a134.43,134.43,0,0,0-3,28.35H48.6A220.91,220.91,0,0,1,50.39,237.48Z"/><path class="cls-2" d="M50.39,294.19H27.28a112,112,0,0,0,10.08,28.35H56.44A166.83,166.83,0,0,1,50.39,294.19Z"/><path class="cls-3" d="M48.6,265.84H24.3a134.43,134.43,0,0,0,3,28.35H50.39A220.91,220.91,0,0,1,48.6,265.84Z"/><path class="cls-3" d="M56.44,209.13H37.36a112,112,0,0,0-10.08,28.35H50.39A166.83,166.83,0,0,1,56.44,209.13Z"/><path class="cls-3" d="M119.72,294.19h23.12a135.1,135.1,0,0,0,3-28.35h-24.3A220.91,220.91,0,0,1,119.72,294.19Z"/><path class="cls-2" d="M113.67,322.54h19.08a112.37,112.37,0,0,0,10.09-28.35H119.72A165.87,165.87,0,0,1,113.67,322.54Z"/><path class="cls-3" d="M142.84,237.48a112.37,112.37,0,0,0-10.09-28.35H113.67a165.87,165.87,0,0,1,6,28.35Z"/><path class="cls-4" d="M121.51,265.84h24.3a135.13,135.13,0,0,0-3-28.36H119.72A221,221,0,0,1,121.51,265.84Z"/><path class="cls-2" d="M37.36,209.13H56.44c3.67-11.65,8.44-21,13.92-27.08A84.48,84.48,0,0,0,55,186.23,77.37,77.37,0,0,0,37.36,209.13Z"/><path class="cls-2" d="M113.67,209.13h19.08a77.21,77.21,0,0,0-17.68-22.9,84.48,84.48,0,0,0-15.32-4.18C105.23,188.12,110,197.48,113.67,209.13Z"/><path class="cls-4" d="M56.44,322.54H37.36A77.37,77.37,0,0,0,55,345.44a84.48,84.48,0,0,0,15.32,4.18C64.88,343.55,60.11,334.19,56.44,322.54Z"/><path class="cls-3" d="M132.75,322.54H113.67c-3.66,11.65-8.44,21-13.91,27.08a84.37,84.37,0,0,0,15.31-4.18A77.21,77.21,0,0,0,132.75,322.54Z"/><path class="cls-3" d="M73.5,294.19H50.39a165.87,165.87,0,0,0,6,28.35H75.52C74.64,314.15,74,304.58,73.5,294.19Z"/><path class="cls-2" d="M56.44,322.54c3.67,11.65,8.44,21,13.92,27.08a84.64,84.64,0,0,0,10.16,1.15c-2-6-3.7-15.81-5-28.23Z"/><path class="cls-3" d="M121.51,265.84a221,221,0,0,0-1.79-28.36H96.61c.39,8.93.6,18.46.6,28.36Z"/><path class="cls-2" d="M89.59,350.77a84.64,84.64,0,0,0,10.16-1.15c5.48-6.07,10.26-15.43,13.92-27.08H94.6C93.29,335,91.57,344.77,89.59,350.77Z"/><path class="cls-2" d="M96.61,294.19h23.11a220.91,220.91,0,0,0,1.79-28.35H97.21C97.21,275.73,97,285.26,96.61,294.19Z"/><path class="cls-3" d="M73.5,237.48H50.39a220.91,220.91,0,0,0-1.79,28.35H72.91C72.91,255.94,73.11,246.41,73.5,237.48Z"/><path class="cls-4" d="M72.91,265.84H48.6a220.91,220.91,0,0,0,1.79,28.35H73.5C73.11,285.26,72.91,275.73,72.91,265.84Z"/><path class="cls-3" d="M80.52,180.9a84.64,84.64,0,0,0-10.16,1.15c-5.48,6.07-10.25,15.42-13.92,27.08H75.52C76.82,196.71,78.54,186.9,80.52,180.9Z"/><path class="cls-4" d="M113.67,209.13c-3.66-11.65-8.44-21-13.92-27.08a84.64,84.64,0,0,0-10.16-1.15c2,6,3.7,15.81,5,28.23Z"/><path class="cls-2" d="M73.5,237.48c.45-10.39,1.14-20,2-28.35H56.44a166.83,166.83,0,0,0-6,28.35Z"/><path class="cls-4" d="M96.61,294.19c-.45,10.39-1.13,20-2,28.35h19.07a165.87,165.87,0,0,0,6-28.35Z"/><path class="cls-2" d="M96.61,237.48h23.11a165.87,165.87,0,0,0-6-28.35H94.6C95.48,217.52,96.16,227.09,96.61,237.48Z"/><path class="cls-3" d="M72.91,265.84c0,9.89.2,19.42.59,28.35H96.61c.39-8.93.6-18.46.6-28.35Z"/><path class="cls-2" d="M75.52,322.54H94.6c.87-8.39,1.56-18,2-28.35H73.5C74,304.58,74.64,314.15,75.52,322.54Z"/><path class="cls-4" d="M94.6,209.13H75.52c-.88,8.39-1.57,18-2,28.35H96.61C96.16,227.09,95.48,217.52,94.6,209.13Z"/><path class="cls-4" d="M75.52,322.54c1.3,12.42,3,22.23,5,28.23,1.5.08,3,.12,4.54.12s3,0,4.53-.12c2-6,3.7-15.82,5-28.23Z"/><path class="cls-2" d="M97.21,265.84c0-9.9-.21-19.43-.6-28.36H73.5c-.39,8.93-.59,18.46-.59,28.36Z"/><path class="cls-2" d="M94.6,209.13c-1.31-12.42-3-22.23-5-28.23q-2.25-.12-4.53-.12c-1.53,0-3,0-4.54.12-2,6-3.7,15.81-5,28.23Z"/><polygon class="cls-5" points="27.91 321.87 24.8 304.13 15.81 321.77 20.25 341.42 27.91 321.87"/><polygon class="cls-5" points="20.94 316.48 3.21 319.59 20.85 328.58 40.5 324.14 20.94 316.48"/><polygon class="cls-5" points="47.91 222.39 44.81 204.66 35.81 222.3 40.26 241.95 47.91 222.39"/><polygon class="cls-5" points="40.95 217.01 23.21 220.12 40.85 229.11 60.5 224.67 40.95 217.01"/><polygon class="cls-5" points="150.4 264.35 145.42 251.38 141.22 266.06 147.49 280.29 150.4 264.35"/><polygon class="cls-5" points="144.32 261.3 131.35 266.28 146.04 270.48 160.27 264.21 144.32 261.3"/></g></g></g></svg>