<svg xmlns="http://www.w3.org/2000/svg" viewBox="0 0 84.16 94.88"><defs><style>.cls-1{isolation:isolate;}.cls-2{fill:#1d9904;}.cls-3{fill:#008e00;opacity:0.5;}.cls-4{opacity:0.15;mix-blend-mode:multiply;}.cls-5{fill:#af0000;}.cls-6{fill:#c61724;}.cls-7{fill:#ff0619;}</style></defs><title>holly</title><g class="cls-1"><g id="Layer_2" data-name="Layer 2"><g id="ART"><path class="cls-2" d="M12.77,30C12.25,29.76,0,24.91,0,0H3.66C3.66,20.38,14,26.56,14.45,26.79Z"/><path class="cls-2" d="M5.67,53.76a9.44,9.44,0,0,1,8.57,5c2.81,4.64,3.16,11.65.78,16a.29.29,0,0,0,0,.34.29.29,0,0,0,.33.07c2.67-1.2,5-1.14,7,.18,3.06,2,5,7.1,5,13.21a.29.29,0,0,0,.14.25.24.24,0,0,0,.27,0c2.14-1,8.66-3.89,15,5.76l0,0s0,0,0,0a.51.51,0,0,0,.65.28.49.49,0,0,0,.23-.67l0,0s0,0,0,0C40.68,82.94,47.29,80,49.46,79a.3.3,0,0,0,.16-.22.31.31,0,0,0-.1-.27c-4.57-4-7.1-8.83-6.6-12.47.33-2.36,1.84-4.16,4.51-5.36a.28.28,0,0,0,.16-.3.28.28,0,0,0-.22-.25c-4.8-1.08-9.83-6-11.43-11.17a9.42,9.42,0,0,1,2-9.7A.28.28,0,0,0,38,39a.27.27,0,0,0-.23-.19c-6.25-1-13.54-3-20.11-10.3a.29.29,0,0,0-.33-.07l-6.08,2.74a.28.28,0,0,0-.17.29C12.15,41.19,8.82,48,5.41,53.31a.29.29,0,0,0,0,.3A.28.28,0,0,0,5.67,53.76Z"/><path class="cls-3" d="M5.67,53.76a9.44,9.44,0,0,1,8.57,5c2.81,4.64,3.16,11.65.78,16a.29.29,0,0,0,0,.34.29.29,0,0,0,.33.07c2.67-1.2,5-1.14,7,.18,3.06,2,5,7.1,5,13.21a.29.29,0,0,0,.14.25.24.24,0,0,0,.27,0c2.14-1,8.66-3.89,15,5.76l0,0s0,0,0,0a.51.51,0,0,0,.65.28l.06,0-29.28-65-3,1.38a.28.28,0,0,0-.17.29C12.15,41.19,8.82,48,5.41,53.31a.29.29,0,0,0,0,.3A.28.28,0,0,0,5.67,53.76Z"/><path class="cls-2" d="M29.11,48.26a9.41,9.41,0,0,1,8.83-4.47c5.43.17,11.49,3.7,13.8,8a.29.29,0,0,0,.31.16.3.3,0,0,0,.24-.24c.45-2.89,1.78-4.83,4-5.77,3.37-1.45,8.65-.28,13.78,3a.3.3,0,0,0,.45-.19c.36-2.32,1.45-9.39,13-9.46h.07a.48.48,0,1,0,.15-1h-.07c-11-3.58-9.88-10.73-9.52-13.08a.26.26,0,0,0-.1-.26.26.26,0,0,0-.27-.06c-5.89,1.62-11.28,1.13-14.05-1.27-1.8-1.56-2.49-3.81-2-6.7a.28.28,0,0,0-.16-.3.29.29,0,0,0-.34.05c-3.51,3.44-10.36,5-15.59,3.49a9.43,9.43,0,0,1-7.06-6.94.32.32,0,0,0-.21-.21.31.31,0,0,0-.3.09c-4.24,4.7-9.89,9.72-19.59,11.24a.29.29,0,0,0-.24.24l-1,6.59a.27.27,0,0,0,.15.3C22.1,36,26,42.46,28.59,48.23a.27.27,0,0,0,.25.17A.28.28,0,0,0,29.11,48.26Z"/><path class="cls-3" d="M29.11,48.26a9.41,9.41,0,0,1,8.83-4.47c5.43.17,11.49,3.7,13.8,8a.29.29,0,0,0,.31.16.3.3,0,0,0,.24-.24c.45-2.89,1.78-4.83,4-5.77,3.37-1.45,8.65-.28,13.78,3a.3.3,0,0,0,.45-.19c.36-2.32,1.45-9.39,13-9.46h.07a.5.5,0,0,0,.59-.39s0-.06,0-.08L13.67,28l-.51,3.31a.27.27,0,0,0,.15.3C22.1,36,26,42.46,28.59,48.23a.27.27,0,0,0,.25.17A.28.28,0,0,0,29.11,48.26Z"/><g class="cls-4"><path d="M13.45,26.7a6.48,6.48,0,1,0,6.48-6.48A6.48,6.48,0,0,0,13.45,26.7Z"/></g><path class="cls-5" d="M11,24.25a6.48,6.48,0,1,0,6.48-6.48A6.48,6.48,0,0,0,11,24.25Z"/><g class="cls-4"><path d="M4.67,31.63a6.76,6.76,0,1,0,6.75-6.75A6.76,6.76,0,0,0,4.67,31.63Z"/></g><path class="cls-6" d="M2.22,29.19A6.76,6.76,0,1,0,9,22.44,6.76,6.76,0,0,0,2.22,29.19Z"/><g class="cls-4"><path d="M10.78,36.82A7.78,7.78,0,1,0,18.56,29,7.78,7.78,0,0,0,10.78,36.82Z"/></g><path class="cls-7" d="M8.33,34.37a7.78,7.78,0,1,0,7.78-7.77A7.78,7.78,0,0,0,8.33,34.37Z"/></g></g></g></svg>