<svg xmlns="http://www.w3.org/2000/svg" viewBox="0 0 194.21 113.32"><defs><style>.cls-1{fill:#838587;}.cls-2{fill:#804100;}.cls-3{fill:#96999b;}.cls-4{fill:#a85a0e;}.cls-5{fill:#004445;}</style></defs><title>treasure_closed</title><g id="Layer_2" data-name="Layer 2"><g id="ART"><path class="cls-1" d="M27.42,0h135c16.94,0,30.67,17.4,30.67,38.87H40.43S20,2.36,22.77,3.53"/><path class="cls-2" d="M156.14,0H37.64C54.58,0,68.31,17.4,68.31,38.87h118.5C186.81,17.4,173.08,0,156.14,0Z"/><rect class="cls-1" x="54.37" y="38.04" width="139.84" height="75.28"/><rect class="cls-2" x="67.65" y="38.04" width="120.88" height="75.28"/><rect class="cls-3" y="38.04" width="61.34" height="75.28"/><rect class="cls-4" x="7" y="38.04" width="47.95" height="75.28"/><rect class="cls-1" x="54.37" y="37.03" width="139.84" height="13.03"/><rect class="cls-3" y="37.03" width="61.34" height="13.03"/><path class="cls-3" d="M0,38.87C0,17.4,13.73,0,30.67,0S61.34,17.4,61.34,38.87"/><path class="cls-4" d="M4.79,39c0-17.68,11.54-32,25.77-32S56.32,21.27,56.32,39"/><path class="cls-1" d="M117.8,47.8V71.5a12.55,12.55,0,0,0,25.1,0V44.31Z"/><circle class="cls-5" cx="131.74" cy="70.8" r="4.88"/><path class="cls-1" d="M118.85,38.74c0-8.72,22.65-9.76,22.65,0S118.85,38.74,118.85,38.74Z"/></g></g></svg>