<svg xmlns="http://www.w3.org/2000/svg" viewBox="0 0 226.22 142.58"><defs><style>.cls-1{fill:#838587;}.cls-2{fill:#804100;}.cls-3{fill:#96999b;}.cls-4{fill:#a85a0e;}.cls-5{fill:#f8bf15;}.cls-6{fill:#ffdf71;}.cls-7{fill:#f5ab1c;}.cls-8{fill:#004445;}</style></defs><title>treasure_open</title><g id="Layer_2" data-name="Layer 2"><g id="ART"><path class="cls-1" d="M17.51,65.35l-3.78-6.06L25.84,0H183.36c11.28-.4,23.83,4.57,33.72,14.46L170,61.6Z"/><path class="cls-2" d="M178.06,0H36.83C47.46.34,59,5.28,68.16,14.48L21,61.6l2.15,1.48,2.18,3.48,139.29-5,47.12-47.12C201.89,4.59,189.33-.38,178.06,0Z"/><path class="cls-3" d="M14.48,61.6C-2,45.11-4.84,21.19,8.18,8.18S45.11-2,61.6,14.48Z"/><path class="cls-4" d="M18.22,58C4.64,44.39,2.49,24.52,13.42,13.59S44.22,4.81,57.8,18.4"/><polygon class="cls-1" points="217.08 14.48 66.01 14.48 59.16 10.58 211.87 10.58 217.08 14.48"/><path class="cls-1" d="M131.86,12c-6.06-8,16.65-4.92,21.2-.37Z"/><path class="cls-5" d="M62.7,59A8.08,8.08,0,1,1,54.62,51,8.08,8.08,0,0,1,62.7,59Z"/><path class="cls-6" d="M83.39,49.45a8.08,8.08,0,1,1-8.07-8.08A8.07,8.07,0,0,1,83.39,49.45Z"/><path class="cls-5" d="M74.81,57a8.08,8.08,0,1,1-8.07-8.08A8.07,8.07,0,0,1,74.81,57Z"/><path class="cls-5" d="M101.06,57.52A8.08,8.08,0,1,1,93,49.45,8.07,8.07,0,0,1,101.06,57.52Z"/><path class="cls-5" d="M125.8,48.44a8.08,8.08,0,1,1-8.08-8.08A8.07,8.07,0,0,1,125.8,48.44Z"/><path class="cls-7" d="M123,57.9A8.08,8.08,0,1,1,115,49.83,8.07,8.07,0,0,1,123,57.9Z"/><path class="cls-5" d="M118.23,37.33a8.08,8.08,0,1,1-8.08-8.07A8.08,8.08,0,0,1,118.23,37.33Z"/><path class="cls-7" d="M89.45,41.37a8.08,8.08,0,1,1-8.07-8.08A8.07,8.07,0,0,1,89.45,41.37Z"/><path class="cls-5" d="M156.59,38.85a8.08,8.08,0,1,1-8.07-8.08A8.07,8.07,0,0,1,156.59,38.85Z"/><path class="cls-7" d="M167.19,46.42a8.08,8.08,0,1,1-8.07-8.08A8.07,8.07,0,0,1,167.19,46.42Z"/><path class="cls-5" d="M142,63.08A8.08,8.08,0,1,1,133.88,55,8.07,8.07,0,0,1,142,63.08Z"/><path class="cls-6" d="M152.05,46.92A8.08,8.08,0,1,1,144,38.85,8.08,8.08,0,0,1,152.05,46.92Z"/><path class="cls-7" d="M111.66,44.4a8.08,8.08,0,1,1-8.07-8.08A8.07,8.07,0,0,1,111.66,44.4Z"/><path class="cls-5" d="M96.52,44.91a8.08,8.08,0,1,1-8.08-8.08A8.07,8.07,0,0,1,96.52,44.91Z"/><path class="cls-6" d="M115.2,56.52a8.08,8.08,0,1,1-8.08-8.08A8.07,8.07,0,0,1,115.2,56.52Z"/><path class="cls-5" d="M132.36,56.52a8.08,8.08,0,1,1-8.08-8.08A8.07,8.07,0,0,1,132.36,56.52Z"/><path class="cls-5" d="M165.68,53a8.08,8.08,0,1,1-8.08-8.07A8.08,8.08,0,0,1,165.68,53Z"/><path class="cls-5" d="M184.86,50.84a8.08,8.08,0,1,1-8.08-8.08A8.08,8.08,0,0,1,184.86,50.84Z"/><path class="cls-6" d="M172.75,42.89a8.08,8.08,0,1,1-8.08-8.08A8.07,8.07,0,0,1,172.75,42.89Z"/><path class="cls-5" d="M208.59,59.54a8.08,8.08,0,1,1-8.08-8.07A8.08,8.08,0,0,1,208.59,59.54Z"/><path class="cls-7" d="M200,47.93a8.08,8.08,0,1,1-8.08-8.07A8.08,8.08,0,0,1,200,47.93Z"/><path class="cls-6" d="M197.48,59.54a8.08,8.08,0,1,1-8.07-8.07A8.08,8.08,0,0,1,197.48,59.54Z"/><path class="cls-7" d="M178.8,57a8.08,8.08,0,1,1-8.07-8.08A8.07,8.07,0,0,1,178.8,57Z"/><path class="cls-7" d="M155.08,58.53A8.08,8.08,0,1,1,147,50.46,8.08,8.08,0,0,1,155.08,58.53Z"/><path class="cls-7" d="M143,51a8.08,8.08,0,1,1-8.08-8.07A8.08,8.08,0,0,1,143,51Z"/><path class="cls-5" d="M138.42,42.38a8.08,8.08,0,1,1-8.08-8.08A8.08,8.08,0,0,1,138.42,42.38Z"/><path class="cls-5" d="M104.09,53A8.08,8.08,0,1,1,96,44.9,8.08,8.08,0,0,1,104.09,53Z"/><path class="cls-7" d="M88.94,56.52a8.08,8.08,0,1,1-8.07-8.08A8.07,8.07,0,0,1,88.94,56.52Z"/><path class="cls-7" d="M69.26,46.42a8.08,8.08,0,1,1-8.08-8.08A8.08,8.08,0,0,1,69.26,46.42Z"/><rect class="cls-1" x="74.31" y="60.79" width="151.91" height="81.78"/><rect class="cls-2" x="88.73" y="60.79" width="131.31" height="81.78"/><rect class="cls-3" x="15.24" y="60.79" width="66.64" height="81.78"/><rect class="cls-4" x="22.84" y="60.79" width="52.09" height="81.78"/><rect class="cls-1" x="74.31" y="59.7" width="151.91" height="14.16"/><rect class="cls-3" x="15.24" y="59.7" width="66.64" height="14.16"/><path class="cls-1" d="M143.21,71.4V97.14a13.63,13.63,0,1,0,27.26,0V67.61Z"/><circle class="cls-8" cx="158.36" cy="96.38" r="5.3"/></g></g></svg>