<svg xmlns="http://www.w3.org/2000/svg" xmlns:xlink="http://www.w3.org/1999/xlink" viewBox="0 0 271.51 369.76" width="271.51" height="369.76"><defs><style>.cls-1{fill:#384c9c;}.cls-2{fill:#9a5d3b;}.cls-3{clip-path:url(#clip-path);}.cls-4{fill:#fff;}.cls-5{fill:#762d7d;}.cls-6{opacity:0.1;}.cls-7{fill:#eee;}</style><clipPath id="clip-path"><path class="cls-1" d="M234.86,296.12H15.45V88.94H234.86Z"/></clipPath></defs><title>window</title><g id="Layer_2" data-name="Layer 2"><g id="ART"><rect class="cls-2" x="16.1" y="77.36" width="218.11" height="230.34" transform="translate(317.68 67.37) rotate(90)"/><path class="cls-1" d="M234.86,296.12H15.45V88.94H234.86Z"/><g class="cls-3"><circle class="cls-4" cx="63.11" cy="191.64" r="1.98"/><circle class="cls-4" cx="149.61" cy="167.54" r="1.98"/><circle class="cls-4" cx="172.6" cy="180.99" r="1.98"/><circle class="cls-4" cx="266" cy="266.44" r="1.98"/><circle class="cls-4" cx="93.13" cy="235.89" r="1.98"/><circle class="cls-4" cx="81.08" cy="315" r="1.98"/><circle class="cls-4" cx="88.13" cy="151.53" r="3.53"/><circle class="cls-4" cx="207.36" cy="84.53" r="3.53"/><circle class="cls-4" cx="232.65" cy="135.04" r="3.53"/><circle class="cls-4" cx="203.84" cy="174.48" r="3.53"/><circle class="cls-4" cx="188.99" cy="232.37" r="3.53"/><circle class="cls-4" cx="267.98" cy="169.98" r="3.53"/><circle class="cls-4" cx="146.09" cy="235.89" r="3.53"/><circle class="cls-4" cx="16.52" cy="236.15" r="3.53"/><circle class="cls-4" cx="104.71" cy="199.44" r="3.53"/><circle class="cls-4" cx="53.85" cy="143" r="3.53"/><circle class="cls-4" cx="45.51" cy="291.05" r="3.53"/><circle class="cls-4" cx="86.14" cy="269.04" r="3.53"/><circle class="cls-4" cx="167.09" cy="84.53" r="3.53"/><circle class="cls-4" cx="157.44" cy="110.69" r="2.43"/><circle class="cls-4" cx="239.25" cy="81.01" r="2.43"/><circle class="cls-4" cx="129.56" cy="277.96" r="2.43"/><circle class="cls-4" cx="167.09" cy="346.99" r="2.43"/><circle class="cls-4" cx="105.03" cy="367.33" r="2.43"/><circle class="cls-4" cx="263.57" cy="2.43" r="2.43"/><circle class="cls-4" cx="218.52" cy="201.87" r="2.43"/><circle class="cls-4" cx="194.95" cy="141.91" r="2.43"/><circle class="cls-4" cx="121.36" cy="78.47" r="2.43"/><circle class="cls-4" cx="63.11" cy="110.69" r="1.98"/><circle class="cls-4" cx="267.98" cy="111.99" r="1.98"/><circle class="cls-4" cx="7.65" cy="137.54" r="1.98"/><circle class="cls-4" cx="261.14" cy="58.08" r="1.98"/><circle class="cls-4" cx="218.52" cy="299.85" r="1.98"/><circle class="cls-4" cx="121.36" cy="323.25" r="1.98"/><circle class="cls-4" cx="131.55" cy="141.91" r="1.98"/><circle class="cls-4" cx="50.32" cy="215.84" r="1.98"/><circle class="cls-4" cx="21.64" cy="291.81" r="1.98"/><circle class="cls-4" cx="202.5" cy="326.78" r="3.53"/><circle class="cls-4" cx="35.49" cy="101.15" r="1.98"/><circle class="cls-4" cx="155.01" cy="269.04" r="1.98"/><circle class="cls-4" cx="110.34" cy="108.71" r="1.98"/></g><rect class="cls-5" y="301.58" width="250.31" height="16.3"/><rect class="cls-2" y="301.58" width="250.31" height="16.3"/><polygon class="cls-6" points="250.31 333.43 0 317.88 250.31 317.88 250.31 333.43"/><path class="cls-7" d="M32,296.11c0-8.32,6.29-15.06,14-15.06s12.78,6.74,12.78,15.06Z"/><path class="cls-7" d="M15.45,296.11c0-5.82,4.4-10.53,9.83-10.53s9.82,4.71,9.82,10.53Z"/><path class="cls-7" d="M97.17,296.11c0-8.32,6.28-15.06,14-15.06S124,287.79,124,296.11Z"/><path class="cls-7" d="M80.61,296.11c0-5.82,4.4-10.53,9.83-10.53s9.82,4.71,9.82,10.53Z"/><g class="cls-6"><rect x="121.44" y="82.99" width="7.28" height="219.26" transform="translate(317.7 67.54) rotate(90)"/><rect x="121.51" y="88.94" width="7.28" height="207.18"/></g><g class="cls-6"><rect x="121.44" y="82.99" width="7.28" height="219.26" transform="translate(317.7 67.54) rotate(90)"/><rect x="121.51" y="88.94" width="7.28" height="207.18"/></g><rect class="cls-6" x="240.32" y="83.47" width="6.14" height="218.11"/></g></g></svg>