<svg width="375" height="667" fill="none" xmlns="http://www.w3.org/2000/svg"><g clip-path="url(#clip0)"><path fill="#3A058D" d="M0 0h375v667H0z"/><g opacity=".42"><path opacity=".42" d="M446.304 16c-25.061 42.7716-52.357 107.986-97.532 125.36-19.817 7.62-41.001 12.204-59.216 23.115-41.648 24.94-58.173 76.012-71.407 122.714-13.234 46.71-29.612 97.781-71.138 122.923-20.665 12.507-45.255 16.896-66.7826 27.848-39.904 20.302-66.5336 64.333-65.9748 109.097l-61.9764-31.079c-.5587-44.771 26.0642-88.802 65.9749-109.097 21.5271-10.952 46.117-15.341 66.7825-27.848 41.5334-25.135 57.9044-76.213 71.1384-122.923 13.234-46.709 29.759-97.774 71.407-122.714 18.215-10.905 39.399-15.495 59.216-23.115C331.964 92.9134 352.643 58.7716 377.704 16" fill="#9D0E9D"/><path opacity=".42" d="M520.451 16c-28.871 40.7656-65.625 124.828-112.072 138.425-20.376 5.964-41.869 8.798-60.913 18.168-43.559 21.433-64.224 70.97-81.255 116.434-17.03 45.457-37.548 95.021-80.999 116.663-21.621 10.77-46.487 13.119-68.842 22.267-41.4392 16.95-71.5961 58.645-74.7127 103.308l-59.2164-36.067c3.1233-44.663 33.2734-86.358 74.7122-103.308 22.3551-9.148 47.2209-11.497 68.8419-22.267 43.459-21.642 63.969-71.199 81-116.663 17.03-45.457 37.696-95.001 81.255-116.434 19.05-9.37 40.543-12.204 60.913-18.168C395.61 104.761 426.043 56.7656 454.907 16" fill="#FF4081"/><path opacity=".42" d="M584.258 16c-30.507 39.7828-74.362 141.286-121.28 153.174-20.578 5.21-42.159 7.25-61.539 15.92-44.313 19.817-66.782 68.566-85.476 113.371-18.686 44.804-41.008 93.573-85.233 113.606-22.005 9.969-46.938 11.403-69.617 19.723-42.037 15.415-73.6954 55.979-78.4612 100.494l-57.85-38.215c4.7591-44.521 36.4238-85.078 78.4612-100.493 22.679-8.32 47.612-9.754 69.617-19.723 44.219-20.033 66.54-68.802 85.233-113.607 18.687-44.804 41.156-93.553 85.476-113.371 19.38-8.67 40.961-10.709 61.539-15.92C452.039 119.079 489.722 55.7828 520.229 16" fill="#F8C329"/><path opacity=".42" d="M681.4 16c-33.462 37.7903-140.445 180.322-188.063 188.951-20.888 3.784-42.563 4.335-62.488 11.653-45.572 16.727-71.34 63.814-93.069 107.225-21.729 43.411-47.349 90.538-92.84 107.474-22.638 8.428-47.611 8.152-70.808 14.89-42.994 12.493-77.3711 50.775-85.1796 94.866L33.869 498.96c7.8085-44.084 42.186-82.372 85.18-94.866 23.196-6.738 48.17-6.462 70.808-14.89 45.491-16.943 71.117-64.063 92.84-107.474 21.722-43.411 47.49-90.497 93.068-107.225 19.932-7.317 41.601-7.862 62.488-11.652 47.619-8.63 97.902-109.056 131.364-146.8463" fill="#F33"/><path opacity=".42" d="M697.03 16c-33.462 37.7903-141.953 198.618-189.571 207.248-20.887 3.783-42.563 4.335-62.488 11.652-45.571 16.727-71.339 63.814-93.068 107.225-21.73 43.411-47.349 90.538-92.84 107.474-22.638 8.428-47.612 8.152-70.808 14.89-42.994 12.493-77.372 50.775-85.18 94.866l-55.0834-42.098c7.8085-44.085 42.1859-82.373 85.1794-94.867 23.197-6.738 48.17-6.462 70.808-14.89 45.491-16.943 71.118-64.063 92.84-107.474 21.723-43.411 47.49-90.497 93.069-107.225 19.932-7.317 41.6-7.862 62.488-11.652 47.618-8.63 99.41-127.352 132.872-165.1423" fill="#F33"/></g><path d="M474.914 354.929l-47.938 10.813-23.642 87.263-11.936-35.499-2.816 20.15-11.273 3.469-12.054 34.055-1.88-12.961-6.559-5.759-7.869 14.87-37.073-55.859-35.49 41.422-5.147-3.912-35.988 22.735-12.726-4.377-8.25 30.468-45.239-19.655-4.006 6.422-4.55.098-7.358 7.311-48.403-9.454-9.294 8.368-5.2182-1.57-7.0847 10.29-40.9753-13.285-6.9342 6.685-8.6407-11.32-4.9315 3.356-11.74817-8.264-7.11283 4.56-27.3184-22.284-25.814 10.465-12.1948-6.567-15.3587 7.47-5.7354-3.733-10.6011 5.12-7.155-4.283-23.628 11.842-9.478-10.893-6.624 1.603-8.278-7.559-.818 8.255-15.65-35.164-10.202 20.685-16.661-58.544-8.401 32.777-8.777-27.084-10.874 11.513-14.498-39.818-16.924 15.988-8.608-5.138-10.925 5.19-20.638-15.805v317.144h767.298v-341.6z" fill="#4900B8"/><path d="M263.842 458.087c-.917.536-1.735 1.203-2.529 1.923-.795.719-1.589 1.48-2.44 2.214l-.094.061c-1.937 1.255-3.841 2.557-5.731 3.892l-5.688 4.001c-1.904 1.34-3.827 2.675-5.797 3.968-1.97 1.293-3.977 2.562-6.06 3.714l-.836.46-1.134-.357c-1.805-.569-3.84-.945-6.003-1.49-2.153-.541-4.466-1.298-6.638-2.548l4.518-1.584c-.202.691-.39 1.382-.531 2.021-.071.31-.127.63-.146.832-.009.085 0 .198.014.014v-.108l-.005-.075-.009-.108c-.005-.052-.014-.099-.024-.151l-.014-.075-.033-.136c-.023-.094-.056-.188-.089-.282-.009-.028-.052-.132-.089-.212-.038-.084-.085-.169-.132-.249-.047-.085-.094-.155-.155-.24-.089-.131-.197-.254-.31-.371-.113-.118-.24-.226-.367-.32-.132-.098-.334-.23-.522-.315-.193-.094-.395-.164-.597-.216-.183-.047-.357-.075-.545-.089-.183-.014-.372-.01-.55.009-.146.014-.235.028-.358.057-.211.042-.493.15-.568.183-.118.052-.235.108-.348.179-.08.047-.127.079-.193.122l-.146.113c-.277.23-.301.291-.338.324-.028.028-.033.028-.024.009l.075-.197c.066-.174.127-.386.151-.545.033-.151.009-.297-.009-.123 0 .099-.019.273.131.691.075.188.212.461.419.701.211.254.484.484.771.635l4.87-1.745c-1.73 4.734-3.009 9.661-4.062 14.701-1.058 5.044-1.904 10.201-2.872 15.448l-.978 5.293-5.331-1.993c-1.096-.409-2.186-.832-3.296-1.274-.554-.221-1.114-.447-1.692-.691-.292-.122-.588-.254-.921-.404-.17-.08-.344-.16-.574-.282-.122-.066-.249-.132-.479-.273l-.231-.155-.164-.118c-.085-.065-.165-.127-.25-.197-.075-.061-.145-.127-.216-.198-.075-.075-.108-.098-.282-.291-.07-.08-.136-.16-.202-.24l-.094-.127-.122-.178c-.146-.221-.278-.461-.386-.71-.056-.122-.103-.249-.15-.376-.024-.057-.118-.339-.188-.71-.127-.672-.099-1.415.061-2.05.164-.714.601-1.565 1.18-2.162.324-.339.587-.536.686-.602.155-.113.32-.216.494-.315.169-.094.348-.179.526-.254.151-.066.433-.155.452-.16.282-.084.578-.146.869-.174.156-.019.268-.023.409-.028.47-.005.607.019.771.038.132.014.245.033.32.047.169.028.259.051.357.07l.423.104.593.169c.352.108.672.207.982.315.626.211 1.227.428 1.838.663.612.239 1.223.489 1.904.808.344.165.696.339 1.152.607.235.141.484.291.87.592.197.16.428.338.79.738.08.085.202.235.301.372.051.07.126.173.188.263l.089.141.113.188c.08.141.131.24.216.428.085.188.15.366.216.568.08.254.141.518.179.781.047.32.066.667.052 1.001l-.297 6.925-6.619-2.496c-7.841-2.953-15.396-6.314-22.861-9.454l-2.788-1.194-2.732-1.147c-.432-.174-.832-.358-1.292-.527l-.701-.254-.78-.296c-1.053-.404-2.064-.827-3.037-1.246-3.902-1.692-7.325-3.277-10.423-3.939l3.376-.156-.597.212 2.896-2.101c.089-.104.042-.052-.057.206-.103.254-.249.691-.479 1.321-.24.63-.536 1.477-1.213 2.595-.343.555-.799 1.18-1.415 1.792-.611.611-1.392 1.189-2.224 1.607l-.367.184-.442.15c-.902.306-1.777.452-2.477.517-.701.066-1.241.061-1.594.071l-.399.009-.104.01c-.014.004-.028.004-.037.004-.01.01.164-.004.399-.075l1.124-.503c-.188.127-.447.329-.818.715-.372.38-.832.931-1.429 1.636-.597.705-1.321 1.575-2.337 2.52-1.006.93-2.369 1.936-3.996 2.632l-1.735.743-1.894-.324c-8.095-1.383-16.228-2.755-24.376-4.246-4.075-.747-8.151-1.523-12.227-2.345-4.076-.828-8.161-1.683-12.228-2.642l6.488-2.055c-.983 1.091-2.05 2.28-3.286 3.484-1.242 1.203-2.647 2.44-4.415 3.577-1.753 1.124-3.9629 2.177-6.572 2.567-1.2929.198-2.6515.216-3.9537.052-1.307-.16-2.5434-.494-3.6717-.931l5.2841-.254c.3056-.155.5736-.348.757-.512.188-.17.2961-.306.3573-.386.1128-.164.0423-.094-.0612.141-.1081.231-.2586.611-.4466 1.105-.1927.498-.4184 1.114-.7851 1.904-.1927.418-.3949.804-.6111 1.18-.2163.381-.4513.757-.7052 1.128-.503.743-1.086 1.453-1.7254 2.111-1.2787 1.316-2.7971 2.383-4.3391 3.145l-2.4446 1.208-2.5057-.855c-2.2096-.753-4.217-1.524-6.2338-2.29l-5.9563-2.28c-3.9395-1.5-7.8556-2.957-11.7576-4.264-3.8925-1.283-7.7898-2.543-11.5131-3.328-.4654-.104-.9214-.188-1.3775-.273-.2303-.047-.4465-.075-.6722-.113-.188-.033-.5924-.089-.3291-.066.2351.019.7945-.023 1.3022-.249.2492-.103.4655-.239.6112-.357.1457-.113.2303-.202.2632-.24.0612-.075-.0564.043-.2397.339-.1975.296-.4513.752-.8839 1.424-.2209.334-.4935.743-.8931 1.227-.409.484-.945 1.081-1.8429 1.707-.865.616-2.2236 1.203-3.5823 1.33-.6769.071-1.3116.047-1.8851-.033-.5783-.08-1.0531-.207-1.495-.352l.7381.197c-1.1612-.254-1.7865-.606-2.2895-.888-.4936-.292-.8462-.555-1.1236-.786-.5735-.47-.9402-.846-1.274-1.203-.6487-.705-1.1189-1.307-1.5608-1.885-.8697-1.152-1.5937-2.21-2.2941-3.216-.6958-.996-1.368-1.951-1.9604-2.708-.2867-.366-.5735-.691-.6817-.804-.0423-.056-.0423-.032.2351.123.1598.084.3902.211.8603.348.4513.127 1.2599.286 2.2988.08l.4561-.109c.2398-.07.456-.23.4654-.258.0094-.024-.1222.08-.4278.475-.1646.202-.3479.465-.7804.982l-.1881.216-.2491.264c-.0846.089-.221.216-.3338.319-.0517.047-.1316.118-.221.188l-.2538.203c-.0706.056-.2069.15-.3291.23-.1222.08-.2492.16-.3761.235-.1457.085-.3432.183-.5171.263-.1928.085-.3291.151-.5971.24-.2444.08-.4936.15-.7427.202-.2351.052-.5736.094-.8603.113-.5971.042-1.2083-.019-1.8006-.16-.2915-.07-.5735-.164-.8556-.277-.141-.057-.2774-.118-.409-.184l-.1833-.094-.0236-.014-.188-.113-.3761-.235-.3761-.239-.1833-.123-.1411-.103c-.3761-.277-.7757-.574-1.0812-.856-1.3211-1.137-2.2942-2.214-3.1968-3.206-.8932-.996-1.6877-1.918-2.4211-2.679-.1786-.184-.3667-.386-.5312-.536l-.25391-.25-.23506-.211c-.15984-.155-.29148-.249-.41841-.357-.07992-.071-.09402-.076-.11753-.094-.0094-.01-.01878-.019-.02818-.033l-.01411-.019c-.00471-.005-.01409-.019.01882.005.07992.051.21151.084.25382.103.02821.009.06115.014.09406.019.03761.014.07522.019.11753.023.15984.029.36199.029.53127.014.3619-.047.5171-.164.4371-.136-.0705.019-.3008.16-.5876.404-.28678.235-.62525.569-.99195.955-.36669.385-.75685.827-1.19876 1.321-.4419.493-.92611 1.039-1.57957 1.673l-3.34258 3.268-3.46945-2.892c-1.27871-1.067-2.41169-2.228-3.34721-3.22-.94023-.996-1.73474-1.824-2.52923-2.506l-6.24775-5.213c-4.1982-3.559-8.3728-7.268-12.3594-11.212l.221.188c-.0941-.085.0846-.071-.094-.132-.1693-.047-.6817 0-1.3446.197-.3338.095-.7004.221-1.1094.372l-.6441.235-.2868.103-.2914.118-2.5528 1.015c-1.7441.687-3.5164 1.368-5.3311 1.984-1.8193.611-3.6716 1.166-5.5521 1.641l.5172-.202c-1.5279.658-3.1075 1.57-5.0208 2.454-1.274.592-2.6938.865-4.1088.785-1.4151-.085-2.7079-.531-3.7563-1.081-2.1108-1.119-3.5446-2.497-4.9409-3.649-1.3774-1.156-2.6609-2.167-3.9208-2.618l1.589-.188c-2.5104 1.18-5.0114 2.647-7.6864 3.963-1.3398.658-2.7219 1.274-4.1699 1.772-1.4432.503-2.9617.856-4.499 1.02l-.5171.057-.2961-.23c-1.5608-1.199-2.9994-2.454-4.4897-3.606l.1787.089c-.5454-.244-1.3727-.155-2.1625.085-.7992.239-1.5985.611-2.3836 1.01l-.3854-.63c.771-.465 1.5608-.916 2.4258-1.259.4325-.17.8838-.311 1.368-.381.4795-.071.9966-.066 1.495.094l.047.014.047.028c1.6078 1.072 3.1356 2.224 4.7105 3.277l-.2914-.061c2.7925-.47 5.411-1.688 7.8979-3.098 2.4963-1.411 4.9033-3.023 7.4608-4.429l.1645-.089.1786.052c1.9228.535 3.5118 1.687 5.0068 2.806 1.4949 1.124 2.9287 2.318 4.5365 3.075.7992.376 1.6408.616 2.4917.639.8462.019 1.6971-.174 2.454-.559 1.6218-.832 3.2015-1.853 4.8986-2.704l.0423-.018.047-.014c3.4976-1.063 6.8966-2.45 10.2626-3.921l2.5292-1.119c.8651-.367 1.6971-.719 2.6091-1.039.9027-.306 1.8664-.559 2.9007-.541 1.0295.01 2.092.395 2.8959 1.049l.0188.014.0141.014c3.996 3.681 8.1988 7.132 12.47216 10.507l6.43585 5.054c2.20014 1.763 3.92077 3.906 6.00338 5.542l-.80858.047c.84621-.86 1.63127-1.875 2.49628-2.834.86501-.955 1.79115-1.923 3.00875-2.624.60645-.343 1.30692-.611 2.0591-.653.75686-.061 1.49496.122 2.17196.446 1.2317.701 2.1766 1.585 3.1121 2.492 1.8382 1.815 3.4366 3.803 5.3218 5.369.2303.202.4748.371.7193.55.1222.094.2444.16.3619.24l.1834.117.0893.057c.0235.009-.0282-.019-.0423-.015-.0424-.014-.1035-.004-.1176 0-.0141.005.0001 0 .0283-.018.0564-.043.1457-.137.235-.24.1787-.212.362-.47.5594-.729.3902-.517.8275-1.053 1.3728-1.514.5359-.46 1.1894-.832 1.8946-1.034l.0328-.009.0189-.005c.5923-.099 1.006.118 1.3351.296.3291.193.6018.414.8509.64.4983.451.9308.93 1.3445 1.419.8227.978 1.5655 1.984 2.3036 2.99.7381 1.002 1.4668 2.008 2.2284 2.967.3808.479.7662.945 1.1752 1.368.2022.211.409.409.6206.573.1974.165.4325.296.5312.311l.0235.004.0564.019c.3855.122.6441.099.9309-.103.2961-.203.5876-.593.8556-1.011.5453-.851 1.0295-1.857 1.8381-2.746.4043-.441.912-.846 1.5138-1.095.597-.254 1.2599-.334 1.8711-.282.3197.023.5688.075.8414.113.268.042.536.075.7993.127.5312.094 1.0624.183 1.589.296 4.2216.851 8.3163 2.097 12.3734 3.427 4.0571 1.34 8.0578 2.811 12.0443 4.306 3.9866 1.486 7.9544 3.065 11.9457 4.424l-.536.038c.8885-.442 1.6924-1.025 2.3741-1.73.6817-.701 1.2364-1.538 1.6501-2.431.4137-.902.724-1.932 1.1847-2.952.2304-.513.4984-1.03.865-1.523.362-.489.8462-.95 1.4433-1.251l.282-.141.2962.113c1.2552.479 2.5904.658 3.8973.447 1.3069-.198 2.5621-.767 3.7139-1.509 1.1565-.748 2.2193-1.674 3.2293-2.666 1.011-.992 1.965-2.059 2.924-3.145l.292-.329.428.103c15.979 3.771 32.179 6.572 48.37 9.445l-.39.047c1.49-.625 2.661-1.904 3.822-3.244.587-.672 1.18-1.368 1.852-2.017.668-.653 1.415-1.26 2.257-1.739l.056-.033.061-.019c.809-.268 1.622-.268 2.327-.268.715.005 1.349-.009 1.904-.197l-.089.037c.371-.183.667-.489.921-.893.254-.4.452-.884.644-1.387.39-1.006.743-2.148 1.5-3.164l.122-.164.193-.066.597-.202.183-.061.184.047c4.085.996 7.804 2.872 11.508 4.532.926.418 1.857.822 2.797 1.203.466.193.945.372 1.425.555.479.183.949.404 1.424.606 1.89.823 3.752 1.655 5.618 2.501 7.456 3.381 14.832 6.906 22.387 9.986l-.832.531c0 .141.037.197.047.221.014.023.019.023.009.019-.009-.014-.042-.043-.084-.076-.08-.065-.184-.136-.297-.202-.22-.136-.465-.263-.709-.385-.499-.249-1.016-.475-1.538-.691-.522-.217-1.053-.423-1.584-.616-.268-.094-.531-.188-.799-.278l-.39-.122-.184-.047-.075-.014c-.014-.005-.052-.005.014-.005l.033-.004c.033-.005.061-.01.094-.019.019-.005.08-.028.113-.047.019-.009.037-.024.056-.038.01-.009.043-.033.08-.07.071-.071.122-.174.141-.259.019-.075.024-.164.01-.244-.024-.099-.024-.085-.038-.127-.014-.028-.028-.057-.042-.08-.019-.028-.028-.038-.043-.056-.028-.033-.023-.029-.037-.038-.019-.014.005.005.019.014l.15.089.362.184.766.357 1.571.691c1.053.451 2.115.893 3.178 1.33l-.8.419c1.147-5.134 2.2-10.305 3.484-15.429 1.283-5.125 2.802-10.216 4.833-15.119l.23-.56.541.282c.286.151.512.433.615.701.113.268.137.522.142.757.004.47-.085.884-.198 1.283-.117.4-.263.781-.442 1.152-.089.183-.188.367-.301.55-.122.183-.221.357-.47.574-.075.051-.136.122-.348.178-.042.01-.108.019-.188.014-.07-.004-.15-.023-.225-.061-.085-.037-.132-.08-.179-.127-.024-.023-.047-.051-.066-.075l-.037-.056c-.094-.17-.09-.25-.109-.339-.009-.08-.014-.15-.009-.211.005-.25.038-.452.075-.659.076-.404.174-.78.278-1.156.211-.748.456-1.476.709-2.2l.217-.625.555.352c1.734 1.1 3.671 1.852 5.674 2.454 1.998.616 4.071 1.1 6.092 1.857l-.385.019c8.279-4.09 15.843-9.534 23.999-14.014l-.047.028c.865-.644 1.693-1.345 2.567-2.022.87-.677 1.801-1.316 2.816-1.805l.32.621zM377.948 461.21c.193.47.329.921.47 1.372.146.452.292.908.395 1.345.122.447.221.884.315 1.316.099.437.188.87.259 1.293.324 1.721.479 3.38.587 5.021.165 3.267-.018 6.412-.493 9.449-.499 3.032-1.246 5.971-2.233 8.829-.235.719-.541 1.41-.809 2.12-.273.705-.541 1.411-.879 2.092l-.964 2.064-1.09 2.017-12.661 23.44-4.184-24.71c-.286-1.692-.587-3.38-.855-5.077l-.823-5.082-1.645-10.164 8.17 6.582-9.172.024 7.63-6.403-1.922 8.01-.96 4.006c-.315 1.335-.653 2.67-.982 4l-4.325 17.498-8.89-14.888-4.302-7.203c-1.438-2.397-2.867-4.8-4.273-7.221-2.825-4.828-5.669-9.646-8.443-14.512-1.392-2.431-2.797-4.847-4.175-7.287l-4.127-7.32c-2.727-4.893-5.454-9.792-8.115-14.728l4.645.287c-1.377 1.344-2.75 2.689-4.142 4.019-1.391 1.33-2.764 2.675-4.169 3.996l-4.213 3.958c-1.396 1.326-2.816 2.633-4.245 3.931l-.804-.687 14.865-17.54.555-.653.48.719c6.219 9.285 12.476 18.541 18.663 27.845l18.588 27.897-1.57.31 3.178-16.158.137-.705.719-.019 9.167-.212.762-.018.145.752 3.973 20.201-1.815-.137 2.948-8.57 3.159-8.495 3.159-8.495c.268-.705.522-1.42.795-2.12l.841-2.106 1.683-4.212.992.329z" fill="#7000FF"/><path d="M660.154 503.759H-353.095v25.898H660.154v-25.898z" fill="#fff"/><path opacity=".31" d="M56.4834 830.879C82.7487 846.27 239.692 955.041 249 961.599c.184-16.111.282-32.334.282-48.68C249.282 452.361 176.316 79 86.3075 79 16.5659 79-42.9366 303.184-66.1979 618.373c9.6186 11.466 98.4609 198.313 122.6813 212.506z" fill="url(#paint0_radial)"/><path d="M263.563 1441.28c-27.972-57.35-116.928 9.04-156.314 29.33-51.7125 26.66-117.04908 0-147.3809-96.01-14.3244-45.35-7.7569-837.474-16.219-845.621l319.9139-8.097v920.398z" fill="#93DAE4"/><path opacity=".52" d="M-19.2588 526.19v952.94c5.7448 3.23 11.56485.22 16.92416-8.5 12.50504-20.31 40.74484-86.68 49.62534-29.33V520.882l-66.5495 5.308z" fill="#fff"/><path d="M-149.65 2084.45c-27.972-93.17 296.285 14.67 256.899 47.68-51.7125 43.35-117.04913 0-147.381-156.03-14.3244-73.67-7.7569-1360.885-16.2189-1374.118-21.7993-29.527-56.0281-40.316-93.2991-46.513V2084.45z" fill="#C7E8F9"/><path d="M-255.463 1430.61c-27.972-57.35 402.098 19.68 362.712 40-51.7124 26.66-117.04906 0-147.3809-96.01-14.3244-45.36-7.7569-837.474-16.219-845.621-21.7992-18.17-161.8421-35.477-199.1121-39.279v940.91z" fill="#93DAE4"/><path d="M499.767 1441.28c-27.972-57.35-116.927 9.04-156.313 29.33-51.713 26.66-117.049 0-147.381-96.01-14.325-45.35-7.757-837.474-16.219-845.621l319.913-8.097v920.398z" fill="#6BB4FD"/><path d="M390.193 2084.45c-27.972-93.17 296.285 14.67 256.899 47.68-51.713 43.35-117.049 0-147.381-156.03-14.325-73.67-7.757-1360.885-16.219-1374.118-21.799-29.527-56.028-40.316-93.299-46.513V2084.45z" fill="#C7E8F9"/><path d="M284.384 1430.61c-27.972-57.35 402.099 19.68 362.713 40-51.713 26.66-117.05 0-147.382-96.01-14.324-45.36-7.757-837.474-16.219-845.621-21.799-18.17-161.841-35.477-199.112-39.279v940.91z" fill="#93DAE4"/><path opacity=".52" d="M396.436 526.19v952.94c-8.852 3.23-17.822.22-26.082-8.5-19.27-20.31-62.789-86.68-76.474-29.33V520.882l102.556 5.308z" fill="#39F"/><path d="M-52.8626 527.838c-11.9879-2.21-72.1954-3.907-84.2074-4.527-3.62-.188-5.448-.405-5.9-.616-184.666 0-91.465-7.362-82.886-7.799 97.079-4.955 489.419 4.964 489.419 4.964v21.329c-24.681-4.649-54.017-8.885-136.193-6.342-120.58439 3.733-170.8209-5.274-180.2326-7.009z" fill="#fff"/><path d="M69.1934 501.431H22.7742l23.2096-62.511 23.2096 62.511z" fill="#3A058D"/><path d="M-94.4067 513.828c8.0155-12.815 34.0786-19.378 55.1445-17.041 21.0659 2.336 41.33257 8.575 62.6852 7.978 31.2392-.875 61.5287-16.262 91.169-9.821 17.446 3.789 30.13 14.583 48.135 17.037 16.44 2.238 32.768-3.004 48.766-6.319 43.335-8.979 90.328-3.967 134.927 1.853 44.605 5.82 67.974 6.313 135.135 6.313" fill="#5C01E4"/><path d="M-284.921 525.36c17.258-.301 28.367-3.117 28.367-3.117s13.967-2.867 28.367-3.116c14.399-.254 39.654 4.545 56.916 4.24 17.258-.301 28.358-3.117 28.358-3.117s13.962-2.868 28.352-3.117c14.4-.254 39.6312 4.542 56.8938 4.241 17.2626-.301 28.3151-3.117 28.3151-3.117s13.8777-2.863 28.27266-3.117c14.39964-.254 39.47084 4.546 56.72414 4.245 17.2579-.301 27.9906-3.112 27.9906-3.112s14.3527-2.873 28.7427-3.126c14.4-.254 40.031 4.536 57.293 4.235 17.258-.301 28.367-3.117 28.367-3.117s13.967-2.867 28.367-3.116c14.399-.254 39.654 4.546 56.916 4.24 17.263-.305 28.358-3.121 28.358-3.121s13.962-2.868 28.348-3.117c14.399-.254 39.635 4.541 56.898 4.24 17.263-.301 28.31-3.117 28.31-3.117s13.878-2.863 28.273-3.117c14.4-.254 39.602 4.546 56.86 4.246 17.258-.301 119.786-2.506 119.786-2.506l.141-21.306s-103.04 2.196-120.303 2.501c-17.262.306-42.395-4.494-56.794-4.245-14.4.249-28.301 3.117-28.301 3.117s-11.076 2.816-28.334 3.117c-17.258.301-42.503-4.495-56.903-4.241-14.4.254-28.357 3.117-28.357 3.117s-11.109 2.816-28.358 3.117c-17.253.301-42.517-4.494-56.916-4.24-14.4.253-28.367 3.116-28.367 3.116s-11.104 2.816-28.367 3.117c-17.263.301-42.898-4.485-57.293-4.235-14.3995.253-28.7428 3.126-28.7428 3.126s-10.728 2.811-27.9906 3.112c-17.2579.301-42.3339-4.494-56.72411-4.245-14.39959.254-28.27269 3.117-28.27269 3.117s-11.0618 2.816-28.3151 3.117c-17.2532.301-42.4937-4.495-56.8937-4.241-14.399.254-28.352 3.117-28.352 3.117s-11.104 2.816-28.358 3.117c-17.253.301-42.517-4.494-56.916-4.241-14.4.254-28.367 3.117-28.367 3.117s-11.104 2.816-28.367 3.117c-17.258.301-42.766-4.489-57.157-4.236-14.399.254-28.606 3.122-28.606 3.122l.371 21.31s14.217-2.872 28.607-3.121c14.395-.254 39.908 4.541 57.161 4.24z" fill="#3A058D"/><path d="M-297.365 534.241c17.263 0 28.414-2.619 28.414-2.619s14.014-2.623 28.414-2.623c14.399 0 39.569 5.237 56.832 5.237 17.263 0 28.409-2.623 28.409-2.623s14.009-2.623 28.404-2.623c14.4 0 39.5464 5.232 56.8091 5.232 17.2626 0 28.3667-2.619 28.3667-2.619s13.9248-2.623 28.3244-2.623c14.39967 0 39.3863 5.237 56.6395 5.237 17.2626 0 28.0377-2.623 28.0377-2.623s14.3996-2.623 28.7946-2.623c14.4 0 39.946 5.237 57.208 5.237 17.263 0 28.419-2.619 28.419-2.619s14.014-2.623 28.413-2.623c14.4 0 39.57 5.237 56.833 5.237 17.262 0 28.409-2.623 28.409-2.623s14.009-2.623 28.399-2.623c14.4 0 39.551 5.237 56.814 5.237 17.262 0 28.362-2.619 28.362-2.619s13.925-2.623 28.324-2.623c14.4 0 39.518 5.237 56.776 5.237 17.263 0 132.117-2.623 132.117-2.623v-21.311s-114.854 2.624-132.117 2.624c-17.263 0-42.31-5.237-56.71-5.237-14.399 0-28.353 2.623-28.353 2.623s-11.122 2.623-28.385 2.623-42.419-5.237-56.818-5.237c-14.4 0-28.409 2.623-28.409 2.623s-11.156 2.623-28.409 2.623c-17.258 0-42.433-5.237-56.833-5.237-14.399 0-28.413 2.624-28.413 2.624s-11.156 2.623-28.419 2.623c-17.262 0-42.813-5.237-57.208-5.237-14.3997 0-28.7946 2.623-28.7946 2.623s-10.7751 2.623-28.0377 2.623-42.24926-5.237-56.6395-5.237c-14.3996 0-28.3244 2.623-28.3244 2.623s-11.1088 2.624-28.3667 2.624c-17.258 0-42.4091-5.237-56.8091-5.237-14.399 0-28.404 2.623-28.404 2.623s-11.151 2.623-28.409 2.623-42.433-5.237-56.832-5.237c-14.4 0-28.414 2.623-28.414 2.623s-11.151 2.623-28.414 2.623-42.682-5.237-57.072-5.237c-14.399 0-28.658 2.624-28.658 2.624v21.31s14.263-2.623 28.658-2.623c14.39-.019 39.819 5.223 57.072 5.223z" fill="#8053FA"/><path opacity=".6" d="M57.8777 489.726l-8.8475 14.357-12.6556-24.108 9.6092-41.055 11.8939 50.806z" fill="url(#paint1_linear)"/><path opacity=".62" d="M53.5433 467.752c3.0507 0 5.5238-2.473 5.5238-5.524 0-3.05-2.4731-5.523-5.5238-5.523-3.0508 0-5.5239 2.473-5.5239 5.523 0 3.051 2.4731 5.524 5.5239 5.524z" fill="#F8C329"/><path opacity=".62" d="M37.0375 475.406c1.1684 0 2.1155-.947 2.1155-2.116 0-1.168-.9471-2.115-2.1155-2.115-1.1684 0-2.1155.947-2.1155 2.115 0 1.169.9471 2.116 2.1155 2.116z" fill="#F33"/><path opacity=".62" d="M41.8797 455.308c1.3085 0 2.3694-1.06 2.3694-2.369 0-1.309-1.0609-2.369-2.3694-2.369-1.3086 0-2.3694 1.06-2.3694 2.369 0 1.309 1.0608 2.369 2.3694 2.369z" fill="#00C1F2"/><path opacity=".62" d="M48.2122 484.747c1.3085 0 2.3693-1.061 2.3693-2.369 0-1.309-1.0608-2.37-2.3693-2.37-1.3086 0-2.3694 1.061-2.3694 2.37 0 1.308 1.0608 2.369 2.3694 2.369z" fill="#8053FA"/><path opacity=".62" d="M51.6064 477.164c.6802 0 1.2317-.551 1.2317-1.232 0-.68-.5515-1.231-1.2317-1.231-.6803 0-1.2317.551-1.2317 1.231 0 .681.5514 1.232 1.2317 1.232z" fill="#FF4081"/><path opacity=".62" d="M38.067 486.36c.6803 0 1.2317-.552 1.2317-1.232 0-.68-.5514-1.232-1.2317-1.232-.6802 0-1.2317.552-1.2317 1.232 0 .68.5515 1.232 1.2317 1.232z" fill="#6AC86E"/><path opacity=".62" d="M46.2283 446.315c3.8556 0 6.9812-3.126 6.9812-6.981 0-3.856-3.1256-6.981-6.9812-6.981-3.8556 0-6.9812 3.125-6.9812 6.981 0 3.855 3.1256 6.981 6.9812 6.981z" fill="#F8C329"/><path opacity=".62" d="M36.6803 476.877c1.6357 0 2.9617-1.326 2.9617-2.961 0-1.636-1.326-2.962-2.9617-2.962-1.6358 0-2.9618 1.326-2.9618 2.962 0 1.635 1.326 2.961 2.9618 2.961z" fill="#F33"/><path opacity=".62" d="M75.5729 438.234c1.3293 0 2.407-1.078 2.407-2.407s-1.0777-2.407-2.407-2.407c-1.3294 0-2.407 1.078-2.407 2.407s1.0776 2.407 2.407 2.407z" fill="#00C1F2"/><path opacity=".62" d="M36.9481 497.36c1.8279 0 3.3097-1.482 3.3097-3.309 0-1.828-1.4818-3.31-3.3097-3.31-1.8278 0-3.3096 1.482-3.3096 3.31 0 1.827 1.4818 3.309 3.3096 3.309z" fill="#8053FA"/><path opacity=".62" d="M46.9005 493.642c.9529 0 1.7254-.773 1.7254-1.726s-.7725-1.725-1.7254-1.725c-.9529 0-1.7253.772-1.7253 1.725 0 .953.7724 1.726 1.7253 1.726z" fill="#FF4081"/><path opacity=".62" d="M24.9038 487.352c.9529 0 1.7254-.773 1.7254-1.726s-.7725-1.725-1.7254-1.725c-.9529 0-1.7253.772-1.7253 1.725 0 .953.7724 1.726 1.7253 1.726z" fill="#6AC86E"/><path opacity=".62" d="M185.373 310.381c3.051 0 5.524-2.473 5.524-5.524 0-3.05-2.473-5.523-5.524-5.523s-5.524 2.473-5.524 5.523c0 3.051 2.473 5.524 5.524 5.524z" fill="#FFF8BD"/><path opacity=".62" d="M156.202 328.166c1.309 0 2.37-1.061 2.37-2.37 0-1.308-1.061-2.369-2.37-2.369-1.308 0-2.369 1.061-2.369 2.369 0 1.309 1.061 2.37 2.369 2.37z" fill="#00C1F2"/><path opacity=".62" d="M146.029 307.001c1.309 0 2.369-1.061 2.369-2.369 0-1.309-1.06-2.37-2.369-2.37-1.309 0-2.369 1.061-2.369 2.37 0 1.308 1.06 2.369 2.369 2.369z" fill="#8053FA"/><path opacity=".62" d="M151.003 349.739c1.636 0 2.962-1.326 2.962-2.961 0-1.636-1.326-2.962-2.962-2.962-1.636 0-2.962 1.326-2.962 2.962 0 1.635 1.326 2.961 2.962 2.961z" fill="#F33"/><path opacity=".62" d="M209.344 323.488c1.828 0 3.31-1.482 3.31-3.309 0-1.828-1.482-3.31-3.31-3.31s-3.309 1.482-3.309 3.31c0 1.827 1.481 3.309 3.309 3.309z" fill="#00C1F2"/><path opacity=".62" d="M151.271 370.218c1.828 0 3.31-1.482 3.31-3.31s-1.482-3.31-3.31-3.31-3.31 1.482-3.31 3.31 1.482 3.31 3.31 3.31z" fill="#8053FA"/><path opacity=".62" d="M117.347 412.636c2.449 0 4.433-1.985 4.433-4.433 0-2.448-1.984-4.433-4.433-4.433-2.448 0-4.433 1.985-4.433 4.433 0 2.448 1.985 4.433 4.433 4.433z" fill="#F8C329"/><path opacity=".62" d="M91.4862 380.79c1.3086 0 2.3694-1.06 2.3694-2.369 0-1.309-1.0608-2.369-2.3694-2.369-1.3085 0-2.3693 1.06-2.3693 2.369 0 1.309 1.0608 2.369 2.3693 2.369z" fill="#00C1F2"/><path opacity=".62" d="M109.802 398.815c1.309 0 2.369-1.061 2.369-2.37 0-1.308-1.06-2.369-2.369-2.369-1.309 0-2.369 1.061-2.369 2.369 0 1.309 1.06 2.37 2.369 2.37z" fill="#8053FA"/><path opacity=".62" d="M86.2868 402.364c1.6357 0 2.9617-1.326 2.9617-2.962 0-1.635-1.326-2.961-2.9617-2.961s-2.9617 1.326-2.9617 2.961c0 1.636 1.326 2.962 2.9617 2.962zM55.8421 427.247c1.6357 0 2.9617-1.326 2.9617-2.961 0-1.636-1.326-2.962-2.9617-2.962s-2.9617 1.326-2.9617 2.962c0 1.635 1.326 2.961 2.9617 2.961z" fill="#F33"/><path opacity=".62" d="M125.762 365.625c1.828 0 3.31-1.482 3.31-3.31s-1.482-3.31-3.31-3.31c-1.827 0-3.309 1.482-3.309 3.31s1.482 3.31 3.309 3.31z" fill="#00C1F2"/><path opacity=".62" d="M86.5548 421.042c.8308 0 1.5044-.674 1.5044-1.505 0-.831-.6736-1.504-1.5044-1.504-.8309 0-1.5044.673-1.5044 1.504s.6735 1.505 1.5044 1.505z" fill="#8053FA"/><path d="M-441.497 522.916c6.873-18.156 29.217-30.003 47.279-26.689 18.062 3.315 35.437 12.148 53.744 11.306 26.787-1.236 52.751-23.04 78.166-13.915 14.954 5.369 25.832 20.662 41.271 24.136 14.094 3.173 28.094-4.255 41.807-8.951 37.154-12.717 77.442-5.623 115.6863 2.623 38.2439 8.246 10.2109 11.49 115.86 11.49" fill="#9FCEFF"/><path d="M630.154 518.031S515.3 520.65 498.037 520.65c-17.262 0-42.31-5.237-56.71-5.237-14.399 0-28.352 2.623-28.352 2.623s-11.123 2.623-28.386 2.623c-17.263 0-42.419-5.237-56.818-5.237-14.4 0-28.409 2.623-28.409 2.623s-11.156 2.619-28.409 2.619c-17.258 0-42.433-5.233-56.833-5.233-14.399 0-28.418 2.624-28.418 2.624s-11.151 2.623-28.414 2.623c-17.262 0-42.818-5.237-57.208-5.237-14.3997 0-28.7899 2.623-28.7899 2.623s-10.7751 2.619-28.0377 2.619-42.24453-5.233-56.6395-5.233c-14.3996 0-28.3244 2.623-28.3244 2.623s-11.1088 2.624-28.3667 2.624c-17.258 0-42.4088-5.237-56.8088-5.237-14.4 0-28.4 2.623-28.4 2.623s-11.151 2.618-28.409 2.618-42.432-5.232-56.832-5.232c-14.4 0-28.414 2.623-28.414 2.623s-11.151 2.624-28.413 2.624c-17.263 0-42.682-5.238-57.072-5.238-14.4 0-28.659 2.624-28.659 2.624v20.351H630.163v-20.422h-.009z" fill="#fff"/><path d="M591.675 540.597s-114.854-1.829-132.117-1.829c-17.262 0-42.31 3.653-56.71 3.653-14.399 0-28.352-1.829-28.352-1.829s-11.123-1.829-28.386-1.829c-17.263 0-42.418 3.653-56.818 3.653-14.4 0-28.409-1.829-28.409-1.829s-11.156-1.828-28.409-1.828c-17.258 0-42.433 3.652-56.832 3.652-14.4 0-28.419-1.828-28.419-1.828s-11.151-1.829-28.414-1.829c-17.262 0-42.8131 3.653-57.208 3.653-14.3996 0-28.7898-1.829-28.7898-1.829s-10.7751-1.829-28.03773-1.829c-17.26257 0-42.24457 3.653-56.63947 3.653-14.3996 0-28.3244-1.829-28.3244-1.829s-11.1089-1.829-28.3666-1.829c-17.253 0-42.409 3.653-56.809 3.653-14.4 0-28.4-1.828-28.4-1.828s-11.151-1.829-28.409-1.829c-17.253 0-42.432 3.653-56.832 3.653-14.399 0-28.414-1.829-28.414-1.829s-11.151-1.829-28.413-1.829c-17.263 0-42.682 3.653-57.072 3.653-14.4 0-28.659-1.829-28.659-1.829v-14.202H591.684v14.24h-.009z" fill="#fff"/><g clip-path="url(#clip1)"><g opacity=".8" fill="#00B4C9"><path opacity=".8" d="M72.3452 742.328c-28.7194 1.941-57.4811 3.037-86.2474 3.295 4.05707-61.561 7.55004-123.137 10.47416-184.727 25.07124 22.378 52.56364 21.071 75.41124-3.591.6863 61.65.8086 123.33.362 185.023z"/><path opacity=".8" d="M188.652 729.809c-38.625 5.716-77.424 9.891-116.3069 12.519.4466-61.693.3244-123.373-.3667-185.023 26.2982 21.206 80.8876 14.813 101.6346-11.913 5.58 61.406 10.591 122.879 15.039 184.417z"/><path opacity=".8" d="M287.564 711.69c-32.805 7.174-65.793 13.215-98.912 18.119-4.448-61.534-9.459-123.011-15.035-184.413 27.963 18.838 67.358 11.241 86.389-16.67 9.745 60.88 18.931 121.873 27.558 182.964z"/><path opacity=".8" d="M385.353 686.756c-32.373 9.444-64.989 17.756-97.794 24.934-8.626-61.091-17.813-122.079-27.558-182.964 29.269 16.727 56.104 9.755 73.611-19.138 17.234 59.06 34.483 118.116 51.741 177.168z"/></g><g opacity=".8" fill="#00B4C9"><path opacity=".8" d="M191.364 751.457c-35.79-.625-71.796-2.454-107.9571-5.523-5.5286-62.686-8.824-125.211-9.9053-187.45 26.1102 25.918 69.8634 28.866 96.6324 6.737 4.851 61.976 11.922 124.092 21.23 186.236z"/><path opacity=".8" d="M298.033 749.751c-35.301 1.749-70.874 2.332-106.664 1.706-9.308-62.144-16.379-124.26-21.226-186.236 27.239 24.051 70.461 24.037 95.424.17 8.589 61.486 19.411 122.982 32.466 184.36z"/><path opacity=".8" d="M403.048 741.03c-34.695 4.053-69.718 6.972-105.015 8.721-13.055-61.378-23.877-122.874-32.471-184.36 28.273 22.156 70.814 19.274 93.887-6.183 12.308 60.782 26.844 121.427 43.599 181.822z"/><path opacity=".8" d="M517.356 723.382c-37.642 7.245-75.768 13.145-114.308 17.644-16.755-60.391-31.291-121.041-43.599-181.822 29.293 20.802 107.149 9.247 127.185-18.697 9.069 61.064 19.308 122.028 30.722 182.875z"/></g><path d="M201.432 639.217l-64.27-61.911c-1.019 1.172-29.167 21.852-61.6176 52.569-34.5033 31.277-.5355 80.949 125.8876 9.342z" fill="#2297CC"/><path d="M115.334 542.439c2.529 7.296 5.482 14.434 8.655 21.47.782 1.752 1.56 3.51 2.396 5.283l2.542 5.213c1.686 3.493 3.397 6.933 5.23 10.356 7.195 13.762 15.184 27.199 23.932 40.233 17.401 26.154 37.652 50.881 60.485 73.9 2.815 2.917 5.729 5.744 8.564 8.609 2.832 2.864 5.818 5.654 8.78 8.501 1.467 1.387 2.982 2.795 4.449 4.182l4.523 4.144c3.002 2.741 6.136 5.465 9.196 8.217 12.414 10.858 25.427 21.255 39.124 31.282 1.687 1.28 3.468 2.479 5.175 3.705l5.243 3.673 5.321 3.635 2.66 1.815 2.739 1.783c1.833 1.214 3.629 2.351 5.488 3.512l5.577 3.422c.958.593 1.858 1.161 2.827 1.692l2.843 1.644c1.932 1.124 3.801 2.228 5.748 3.294 7.754 4.39 15.763 8.563 24.033 12.522 8.327 3.979 16.983 7.713 26.076 11.109l3.423 1.238c1.14.408 2.285.82 3.479 1.253 2.359.783 4.709 1.576 7.068 2.364l7.308 2.198c2.448.702 5.027 1.383 7.5 2.027 10.183 2.564 20.913 4.649 32.574 5.84 1.421.146 2.92.255 4.41.364l4.489.327c.711.071 1.515.056 2.299.089l2.319.037 4.639.077c1.608-.034 3.217-.073 4.83-.103l2.413-.054 1.188-.061 1.245-.046c1.629-.087 3.331-.212 4.981-.352l2.469-.218 2.562-.303c1.723-.177 3.408-.428 5.151-.664 1.685-.25 3.521-.571 5.247-.928l2.64-.52 1.322-.262 1.342-.311c1.799-.398 3.619-.846 5.385-1.313 1.746-.415 3.622-1.03 5.424-1.603l2.709-.868c.905-.289 1.802-.582 2.728-.92 3.686-1.373 7.299-2.713 10.958-4.527 1.852-.868 3.624-1.704 5.433-2.645 1.819-.946 3.595-1.965 5.371-2.98 1.761-.961 3.467-2.127 5.231-3.273l2.578-1.712c.819-.562 1.711-1.161 2.492-1.801 1.679-1.239 3.295-2.498 4.883-3.827l1.209-.976 1.156-.996 2.279-2.066 2.279-2.067c.374-.356.748-.713 1.123-1.069l1.065-1.09c1.387-1.467 2.774-2.93 4.182-4.45 5.299-6.008 10-12.415 13.679-18.887l1.429-2.431.685-1.222c.211-.413.426-.836.612-1.195.823-1.603 1.593-3.231 2.363-4.855.828-1.603 1.467-3.214 2.111-4.825.639-1.611 1.282-3.222 1.921-4.833.566-1.574 1.063-3.115 1.576-4.714l.787-2.354.215-.597c.076-.216.142-.38.145-.564l.261-1.071c.709-2.816 1.398-5.574 2.048-8.41.558-2.746.989-5.475 1.494-8.241.252-1.381.415-2.676.537-4.039l.459-4.007c1.06-10.608 1.118-20.652.483-30.146-.704-9.462-2.074-18.427-3.792-26.962l-1.345-6.316c-.482-2.076-1.036-4.115-1.533-6.139-.253-1.012-.497-2.019-.803-3.051l-.823-2.998c-.57-1.987-1.145-3.973-1.74-5.906l-1.834-5.816-1.948-5.672c-.664-1.896-1.295-3.719-1.984-5.566-.684-1.843-1.368-3.687-2.077-5.476l-2.118-5.366-2.216-5.279c-.725-1.733-1.507-3.49-2.232-5.222-.777-1.753-1.527-3.432-2.325-5.137-3.071-6.816-6.328-13.451-9.584-19.902-1.657-3.236-3.314-6.472-4.939-9.634-1.682-3.183-3.374-6.308-5.092-9.385-6.7-12.416-13.68-24.387-19.902-35.589l-.502-.983c-7.725-13.829-25.165-18.76-39.028-11.112-10.203 5.655-15.582 16.669-14.599 27.579.68 7.49 1.478 14.648 2.331 21.648l2.467 20.594c.376 3.387.772 6.721 1.115 10.035.338 3.314.734 6.649 1.04 9.889.14 1.65.31 3.241.45 4.89.14 1.65.31 3.241.398 4.87l.413 4.812.307 4.776c.772 12.679 1.029 24.922.298 36.32-.445 5.668-.924 11.085-1.775 16.179-.888 5.021-3.327 13.841-3.327 13.841s-1.94-.167-2.317-1.756l-.033-.073-.09-.094-.161-.24c-.065-.147-.213-.26-.278-.407-.123-.167-.304-.354-.447-.468l-.234-.207-.233-.208c-.176-.187-.377-.321-.553-.509l-.611-.524c-1.724-1.357-4.057-3.055-6.694-5.112l-2.064-1.601c-.716-.565-1.412-1.183-2.149-1.695l-2.219-1.841c-.377-.322-.754-.638-1.131-.96l-1.184-.98c-3.076-2.704-6.332-5.595-9.598-8.796-3.265-3.202-6.58-6.608-9.892-10.193-.836-.915-1.673-1.831-2.456-2.726l-1.23-1.364c-.389-.448-.816-.968-1.21-1.416l-2.467-2.853-2.432-2.964-1.243-1.49-1.242-1.49-2.411-3.016-2.449-3.09c-.801-1.026-1.596-2.048-2.371-3.128-6.36-8.428-12.52-17.397-18.474-26.603-1.474-2.375-2.972-4.693-4.393-7.048l-2.16-3.54c-.74-1.185-1.426-2.355-2.145-3.598-2.863-4.836-5.664-9.652-8.361-14.611-10.756-19.894-21.155-40.276-31.902-60.717-5.397-10.233-10.774-20.514-16.413-30.771l-4.29-7.685-4.417-7.668c-.703-1.296-1.475-2.555-2.247-3.818-.777-1.263-1.548-2.522-2.3-3.838-1.549-2.522-3.077-5.097-4.825-7.569l-3.673-5.31c-36.186-51.891-107.561-64.708-159.447-28.522-43.096 30.275-59.1425 84.709-42.649 131.963z" fill="#28B6F6"/><path d="M513.748 824.358c-.573-.007-1.145-.018-1.717-.035-4.12-.136-8.224-.505-12.342-1.004l-3.092-.443-1.512-.24-1.545-.313-3.056-.548-3.068-.675-1.528-.361-1.529-.366-3.032-.786-3.066-.858-1.503-.42-4.566-1.461c-.982-.356-2.012-.729-3.009-1.022-1.202-.397-2.382-.852-3.563-1.306-.814-.314-1.628-.627-2.451-.923-7.981-3.062-15.764-6.843-23.431-10.956-7.608-4.092-15.023-8.728-22.268-13.671-7.245-4.943-14.221-10.279-21.027-15.922-6.827-5.589-13.384-11.571-19.702-17.714-6.355-6.215-12.523-12.612-18.41-19.274l-4.396-5.023c-.949-1.043-1.851-2.144-2.746-3.238-.517-.63-1.031-1.258-1.551-1.871l-2.149-2.557-2.133-2.609-.088-.11c-1.369-1.694-2.742-3.392-4.095-5.142-5.513-7.019-10.744-14.305-15.883-21.681-.315-.458-.627-.912-.939-1.364-.962-1.396-1.906-2.767-2.837-4.171l-3.683-5.625c-1.154-1.735-2.272-3.562-3.358-5.335l-.23-.377-1.8-2.855-1.774-2.909c-3.51-5.747-6.896-11.551-10.282-17.356-1.158-1.985-2.316-3.97-3.479-5.953-.373-.637-.745-1.281-1.116-1.925-.761-1.319-1.523-2.639-2.301-3.909l-3.349-5.871c-1.14-1.946-2.258-3.914-3.375-5.882-1.118-1.968-2.236-3.936-3.376-5.882-4.47-7.872-9.01-15.707-13.611-23.562-.636-1.064-1.269-2.131-1.903-3.199-1.699-2.861-3.402-5.73-5.158-8.551-.523-.842-1.045-1.688-1.568-2.537-1.884-3.058-3.784-6.141-5.843-9.093l-1.445-2.118c-22.506-32.105-66.781-39.891-98.886-17.389-9.483 6.596-16.843 15.13-21.921 24.709.363.696.729 1.391 1.101 2.086 7.194 13.762 15.184 27.199 23.932 40.233 17.401 26.154 37.651 50.881 60.485 73.9 1.748 1.811 3.534 3.588 5.315 5.36 1.088 1.082 2.174 2.163 3.249 3.249 2.074 2.098 4.232 4.156 6.402 6.226.792.756 1.586 1.514 2.378 2.275.734.694 1.479 1.392 2.225 2.091.745.698 1.491 1.397 2.224 2.091l4.523 4.144c1.766 1.612 3.577 3.219 5.393 4.829 1.27 1.127 2.543 2.255 3.803 3.388 12.414 10.857 25.427 21.255 39.124 31.282 1.094.83 2.227 1.626 3.355 2.417.611.429 1.22.857 1.82 1.288l5.243 3.673 7.981 5.45 2.739 1.783c1.833 1.214 3.629 2.351 5.488 3.512l5.577 3.422c.117.073.234.145.35.217.83.515 1.627 1.009 2.477 1.475l2.843 1.644c.321.187.641.373.959.559 1.596.931 3.166 1.846 4.789 2.735 7.754 4.39 15.763 8.563 24.032 12.522 8.328 3.979 16.984 7.713 26.077 11.109l3.422 1.238c1.141.408 2.286.82 3.48 1.253 1.437.477 2.871.958 4.306 1.439.92.309 1.84.617 2.762.925l7.308 2.198c2.448.702 5.027 1.383 7.5 2.027 10.183 2.564 20.913 4.649 32.574 5.84 1.38.142 2.834.248 4.282.355l4.617.336c.457.045.952.055 1.456.066.28.005.563.011.843.023l2.319.037 4.639.077c.54-.011 1.081-.023 1.622-.035 1.068-.024 2.137-.048 3.208-.068l2.413-.054 1.188-.061 1.245-.046c1.629-.087 3.331-.212 4.981-.352l2.469-.218 2.562-.303c1.328-.137 2.633-.317 3.96-.5.395-.055.791-.11 1.191-.164 1.685-.25 3.521-.571 5.247-.928l2.64-.52 1.322-.262 1.342-.311c1.799-.398 3.619-.846 5.385-1.313 1.562-.371 3.228-.903 4.852-1.421.192-.061.382-.122.572-.182l1.101-.353z" fill="#90CAF9"/><path d="M261.641 404.105c.064-2.557-1.952-4.631-4.508-4.696-2.557-.06-4.632 1.952-4.692 4.508-.06 2.556 1.957 4.63 4.508 4.696 2.572.007 4.647-2.005 4.692-4.508zM240.404 413.509c-2.487 3.157-7.103 3.705-10.26 1.217-3.157-2.487-3.7-7.103-1.217-10.26 2.487-3.157 7.103-3.704 10.255-1.217 3.22 2.507 3.767 7.123 1.222 10.26zM381.711 595.101c-6.283 7.984-17.956 9.375-25.926 3.086-7.97-6.29-9.346-17.967-3.058-25.951 6.283-7.989 17.951-9.374 25.926-3.09 7.97 6.289 9.486 18.02 3.058 25.955zM124.948 446.192l11.556 4.163c10.756 3.873 22.622-1.707 26.494-12.462 3.394-9.425-.471-19.703-8.716-24.708-12.158 9.271-21.982 20.536-29.334 33.007z" fill="#2297CC"/><path fill-rule="evenodd" clip-rule="evenodd" d="M202.694 538.002l-50.808 4.879c-1.346-14.029 8.938-26.494 22.967-27.841 10.461-1.003 20.054 4.455 24.812 13.12.819 1.492 1.497 3.081 2.015 4.75.497 1.624.843 3.327 1.014 5.092z" fill="#231F20"/><path fill-rule="evenodd" clip-rule="evenodd" d="M202.694 538.002l-25.891 2.485c3.142-4.029 9.367-7.131 16.766-7.839 2.847-.273 5.59-.162 8.106.258.502 1.628.848 3.331 1.019 5.096z" fill="#9C0F0A"/><path d="M349.932 623.08l-66.864-39.307c.123 2.559-31.825 100.62-1.496 166.723 26.078 56.782 56.934 10.317 56.315-54.782l12.045-72.634z" fill="#28B6F6"/><path d="M229.769 471.111c-6.209-7.091-17.012-7.786-24.057-1.608-7.046 6.178-7.737 16.98-1.528 24.071 6.21 7.091 17.012 7.787 24.058 1.608 7.045-6.178 7.741-16.98 1.527-24.071z" fill="#231F20"/><path d="M226.13 492.619c-7.05 6.183-16.838 6.553-21.864.823-5.026-5.729-3.391-15.387 3.659-21.57s16.837-6.553 21.864-.823c5.026 5.729 3.391 15.386-3.659 21.57z" fill="#231F20"/><path opacity=".3" d="M220.958 479.758c3.046 4.19 11.442 9.323 2.794 13.821-8.647 4.498-12.169-.642-15.216-4.832-3.046-4.189-2.701-9.564.729-12.071 3.426-2.502 8.642-1.102 11.693 3.082z" fill="#29B6F6"/><path d="M245.084 473.243c-2.358 4.633-12.863 4.019-23.469-1.37-10.606-5.388-17.291-13.515-14.938-18.152 2.357-4.633 12.862-4.023 23.468 1.37 10.61 5.388 17.296 13.515 14.939 18.152zM238.217 499.563c1.126 5.076-7.373 11.279-18.984 13.862-11.611 2.579-21.941.56-23.067-4.516-1.125-5.076 7.374-11.279 18.985-13.862 11.611-2.579 21.941-.56 23.066 4.516z" fill="#28B6F6"/><path d="M229.264 486.155c-1.701 1.495-4.311 1.306-5.822-.422-1.516-1.728-1.365-4.336.341-5.832 1.701-1.495 4.307-1.306 5.822.422 1.511 1.728 1.36 4.341-.341 5.832z" fill="#fff"/><path d="M115.614 482.481c4.422-8.325 14.78-11.47 23.047-7.068 8.273 4.402 11.417 14.759 6.995 23.085-4.422 8.325-14.78 11.469-23.052 7.068-8.267-4.402-11.417-14.76-6.99-23.085z" fill="#231F20"/><path d="M124.075 502.587c8.278 4.406 17.891 2.525 21.471-4.201 3.584-6.726-.22-15.754-8.498-20.16-8.277-4.406-17.89-2.525-21.47 4.201-3.58 6.725.22 15.754 8.497 20.16z" fill="#231F20"/><path d="M157.154 507.021c1.126 5.076-7.373 11.28-18.984 13.863-11.611 2.578-21.941.559-23.067-4.517-1.125-5.075 7.374-11.279 18.985-13.862 11.61-2.583 21.936-.559 23.066 4.516z" fill="#28B6F6"/><path opacity=".3" d="M128.867 487.802c-1.928 4.805-8.809 11.845.677 14.088 9.486 2.243 11.64-3.607 13.572-8.412 1.928-4.806.276-9.935-3.661-11.524-3.942-1.593-8.66 1.038-10.588 5.848z" fill="#29B6F6"/><path d="M139.941 494.49c1.999 1.064 4.495.284 5.571-1.743 1.081-2.029.334-4.532-1.665-5.6-1.999-1.063-4.496-.284-5.572 1.744-1.075 2.028-.333 4.536 1.666 5.599z" fill="#fff"/><path fill-rule="evenodd" clip-rule="evenodd" d="M110.108 488.808c4.015.049 10.085-3.538 15.306-9.42 6.741-7.591 9.515-16.139 6.199-19.083-2.794-2.481-9.016-.204-14.941 5.112-3.138 7.5-5.346 15.36-6.564 23.391z" fill="#28B6F6"/><path fill-rule="evenodd" clip-rule="evenodd" d="M219.067 493.104c2.361-.766 15.275-2.73 17.071-.953 1.801 1.777 3.122 4.19 3.022 6.715-.099 2.526-1.309 4.91-3.812 5.271-2.204.319-4.502-.401-5.778-2.219-1.276-1.817-1.453-3.516-1.967-5.68-.878-3.669 1.259.829-4.12 3.824-6.291 3.505-8.285-5.324-4.416-6.958zM210.64 495.611c-1.579-.895-3.852-1.094-5.4-.041-.756.515-1.339 1.638-.715 2.307.448.482 1.22.399 1.863.28 1.84-.34 8.201-.28 7.397-3.345-.694-2.648-4.203-.588-3.145.799zM128.858 503.583c-3.797-2.157-9.265-2.637-12.99-.104-1.824 1.239-3.223 3.936-1.719 5.551 1.077 1.156 2.93.956 4.486.666 4.42-.823 19.72-.677 17.785-8.045-1.669-6.363-10.105-1.406-7.562 1.932z" fill="#C1E8ED"/><g opacity=".45" fill="#C1E8ED"><path opacity=".45" d="M119.295 527.868c-1.446-.168-2.48-1.477-2.307-2.919l2.431-20.758c.168-1.446 1.477-2.48 2.919-2.306 1.447.168 2.481 1.477 2.307 2.919l-2.43 20.758c-.164 1.441-1.473 2.475-2.92 2.306z"/><path opacity=".45" d="M125.572 512.882c-1.019-.118-1.941.61-2.064 1.63l1.228-10.481c.118-1.02 1.045-1.748 2.065-1.63 1.019.119 1.748 1.045 1.629 2.065l-1.228 10.481c.123-1.025-.61-1.947-1.63-2.065zM129.023 522.053c-1.446-.168-2.48-1.477-2.307-2.919l1.628-13.9c.168-1.446 1.477-2.48 2.919-2.307 1.442.174 2.481 1.478 2.307 2.92l-1.627 13.9c-.169 1.441-1.478 2.475-2.92 2.306zM134.094 514.019c-.802-.093-1.377-.817-1.283-1.619l.902-7.716c.094-.801.818-1.376 1.619-1.283.802.094 1.377.818 1.283 1.619l-.902 7.716c-.089.801-.818 1.377-1.619 1.283z"/></g><g opacity=".45" fill="#C1E8ED"><path opacity=".45" d="M218.11 519.492c-1.43.264-2.804-.677-3.068-2.107l-3.825-20.546c-.264-1.43.676-2.804 2.106-3.068 1.43-.264 2.805.676 3.069 2.106l3.825 20.546c.264 1.43-.677 2.805-2.107 3.069zM219.669 503.321c-1.011.187-1.674 1.159-1.486 2.17l-1.931-10.373c-.187-1.011.481-1.979 1.487-2.17 1.011-.187 1.978.48 2.17 1.486l1.93 10.373c-.192-1.005-1.159-1.673-2.17-1.486z"/><path opacity=".45" d="M225.677 511.064c-1.43.264-2.805-.676-3.069-2.106l-2.56-13.76c-.264-1.43.677-2.804 2.107-3.068 1.43-.264 2.804.676 3.068 2.106l2.56 13.76c.269 1.425-.676 2.8-2.106 3.068zM228.145 501.885c-.792.146-1.557-.374-1.703-1.17l-1.42-7.64c-.146-.791.374-1.557 1.171-1.703.792-.146 1.557.373 1.703 1.17l1.42 7.639c.146.792-.379 1.558-1.171 1.704z"/></g><path d="M184.996 415.078l-23.225-39.597c-12.54-21.31-28.977-40.103-48.452-55.358-22.8482-17.872-41.4759-40.571-54.5127-66.428l-4.894-9.764c-3.8896-7.761-17.7315-24.976-32.0907-41.938-2.9738-3.525-8.4933.518-5.9598 4.399 13.3001 20.459 26.4675 41.698 29.6744 50.413l7.033 18.655c10.1646 27.135 25.9931 51.866 46.3786 72.525 17.4052 17.658 31.4602 38.302 41.4942 60.947l10.574 24.026c1.338 3.019 3.511 5.678 6.262 7.592 6.461 4.504 15.106 4.325 21.383-.437l1.492-1.135c6.692-5.069 9.037-14.038 5.64-21.739l-.797-2.161z" fill="#fff"/><path d="M89.8331 311.091c2.6196-1.724 5.0114-3.476 7.2015-5.217 4.8944 4.781 10.0474 9.307 15.4344 13.574-2.51 2.155-5.367 4.388-8.643 6.65-6.2333 4.307-11.6995 7.265-16.3017 9.309-4.3546-5.204-8.4438-10.617-12.2614-16.216 4.2742-1.935 9.172-4.553 14.5702-8.1zM145.588 381.232c5.369-3.399 9.773-7.033 13.318-10.46.973 1.557 1.933 3.125 2.866 4.709l9.694 16.533c-3.45 2.96-7.729 6.078-13.007 9.113-6.936 3.987-12.964 6.436-17.967 7.93l-.054-.12c-3.019-6.819-6.412-13.446-10.143-19.874 4.497-1.76 9.651-4.265 15.293-7.831zM72.6571 276.998c3.2094 4.637 6.6178 9.134 10.2053 13.475-1.4219 1.036-2.928 2.081-4.5324 3.138-5.1893 3.416-9.832 5.967-13.8768 7.879a204.4718 204.4718 0 01-7.4026-15.05c3.0068-1.549 6.2604-3.381 9.7529-5.552 2.0799-1.297 4.0229-2.599 5.8536-3.89zM171.7 424.17c5.21-2.994 9.546-6.27 13.087-9.443l.205.351.797 2.161c3.396 7.706 1.056 16.67-5.641 21.74l-1.491 1.134c-6.277 4.762-14.923 4.941-21.383.437-2.751-1.914-4.925-4.572-6.263-7.592l-.114-.257c5.632-1.361 12.716-3.882 20.803-8.531zM129.359 334.146c5.448 5.308 10.581 10.923 15.377 16.817-3.308 2.985-7.386 6.161-12.392 9.326-5.955 3.769-11.232 6.352-15.751 8.128-4.155-5.499-8.59-10.793-13.29-15.863 4.006-1.929 8.507-4.476 13.384-7.846 5.076-3.504 9.267-7.148 12.672-10.562zM21.8219 201.993c2.5122 2.968 5.0057 5.938 7.4356 8.868-1.2998.713-2.6509 1.434-4.0675 2.164-1.3115.676-2.5782 1.311-3.8141 1.912-1.817-2.84-3.6636-5.702-5.5188-8.549-2.5288-3.881 2.9909-7.92 5.9648-4.395zM54.6334 245.362l4.1779 8.332c1.5267 3.027 3.1357 6.012 4.8126 8.95-1.8003 1.246-3.7262 2.519-5.8061 3.816-2.4977 1.556-4.8509 2.93-7.0716 4.154l-5.21-13.814c-.5226-1.424-1.3195-3.185-2.3305-5.221.9242-.455 1.857-.925 2.8166-1.42 3.1122-1.597 5.9831-3.214 8.6111-4.797zM38.0712 221.678c3.4906 4.375 6.6396 8.469 9.2554 12.072-2.3217 1.348-4.8573 2.742-7.6171 4.168-1.0782.558-2.1256 1.082-3.1506 1.586-2.327-3.973-4.9632-8.314-7.7856-12.856.8967-.444 1.8022-.898 2.7297-1.377 2.3262-1.193 4.5106-2.397 6.5682-3.593z" fill="#fff"/><path d="M160.061 403.213c5.279-3.031 8.85-6.644 11.41-11.204l13.321 22.713c-3.393 4.563-8.122 9.228-13.327 12.222-8.093 4.649-14.492 5.613-20.559 5.747l-10.405-23.644c3.159.137 12.625-1.853 19.56-5.834zM133.04 362.334c6.983-4.135 9.775-9.138 11.696-11.371 5.121 6.294 9.856 12.907 14.175 19.804-1.403 2.066-4.534 7.64-11.406 11.825-5.704 3.475-14.297 6.039-17.201 6.461-4.15-7.147-8.727-14.038-13.706-20.632 3.85-.832 8.713-1.507 16.442-6.087zM101.763 329.098c5.65-3.501 8.224-6.875 10.705-9.655.287.223.569.451.855.679 5.607 4.391 10.957 9.074 16.036 14.024-3.092 4.398-4.444 7.088-11.121 11.704-6.754 4.668-10.06 5.133-14.93 6.708-1.43-1.545-2.877-3.074-4.3553-4.573-3.9887-4.039-7.7986-8.24-11.4286-12.583 4.178-1.176 7.7932-2.314 14.2389-6.304zM82.8627 290.478c4.4447 5.373 9.1723 10.513 14.1672 15.396-1.9541 3.017-4.2089 5.016-9.72 8.645-5.162 3.401-9.4028 4.312-12.0564 4.672-3.895-5.712-7.5003-11.62-10.8-17.697 3.1243-.68 3.8144-.24 10.3907-4.012 4.5088-2.585 7.3712-6.485 8.0185-7.004zM63.6192 262.644c2.8071 4.919 5.8232 9.709 9.0379 14.354-1.826 1.291-3.7736 2.593-5.8491 3.885-3.4923 2.176-6.7463 4.003-9.7531 5.552-1.5994-3.616-3.0977-7.275-4.486-10.984l-1.823-4.841c2.2208-1.225 4.5736-2.603 7.0716-4.155 2.0755-1.291 4.0061-2.565 5.8017-3.811zM47.3266 233.75c3.0259 4.162 5.3301 7.67 6.5906 10.181l.7162 1.431c-2.628 1.583-5.4943 3.199-8.6109 4.802-.9595.495-1.8923.965-2.8166 1.42-1.6738-3.362-3.9527-7.474-6.6517-12.08 1.0247-.508 2.0721-1.032 3.1506-1.586 2.7645-1.426 5.2954-2.82 7.6218-4.168zM29.2576 210.861c3.0791 3.712 6.0506 7.355 8.8089 10.817-2.0532 1.191-4.2422 2.395-6.5635 3.593-.9322.479-1.8377.933-2.7297 1.377-2.3589-3.797-4.8486-7.732-7.3974-11.711 1.2312-.6 2.5027-1.236 3.8141-1.912 1.4166-.73 2.7677-1.451 4.0676-2.164z" fill="#B71C1C"/><path d="M158.911 370.767c-1.403 2.066-5.937 8.585-11.406 11.825-7.729 4.58-14.297 6.039-17.201 6.461" fill="#B71C1C"/><path d="M46.0491 439.539c.6569 0 1.1894-3.031 1.1894-6.769 0-3.739-.5325-6.77-1.1894-6.77s-1.1894 3.031-1.1894 6.77c0 3.738.5325 6.769 1.1894 6.769z" fill="#fff"/><path d="M46.0491 450.093c.6569 0 1.1894-3.03 1.1894-6.769 0-3.739-.5325-6.77-1.1894-6.77s-1.1894 3.031-1.1894 6.77c0 3.739.5325 6.769 1.1894 6.769z" fill="#fff"/><path d="M40.7697 439.238c3.7388 0 6.7696-.532 6.7696-1.189s-3.0308-1.189-6.7696-1.189c-3.7388 0-6.7697.532-6.7697 1.189s3.0309 1.189 6.7697 1.189z" fill="#fff"/><path d="M51.3237 439.238c3.7388 0 6.7697-.532 6.7697-1.189s-3.0309-1.189-6.7697-1.189c-3.7387 0-6.7696.532-6.7696 1.189s3.0309 1.189 6.7696 1.189z" fill="#fff"/><path d="M46.6547 438.666c.2699-.27-.7585-1.736-2.297-3.275-1.5385-1.538-3.0045-2.567-3.2743-2.297-.2699.27.7585 1.736 2.297 3.275 1.5385 1.538 3.0044 2.566 3.2743 2.297z" fill="#fff"/><path d="M50.9933 443.006c.2699-.27-.7585-1.736-2.297-3.274-1.5385-1.539-3.0044-2.567-3.2743-2.297-.2699.27.7585 1.735 2.297 3.274 1.5385 1.538 3.0044 2.567 3.2743 2.297z" fill="#fff"/><path d="M44.3569 440.708c1.5384-1.538 2.5669-3.004 2.297-3.274-.2699-.27-1.7359.758-3.2744 2.297-1.5384 1.538-2.5668 3.004-2.297 3.274.2699.27 1.7359-.758 3.2744-2.297z" fill="#fff"/><path d="M48.6972 436.369c1.5385-1.538 2.5669-3.004 2.297-3.274-.2699-.27-1.7358.759-3.2743 2.297-1.5385 1.539-2.5669 3.005-2.2971 3.275.2699.269 1.7359-.759 3.2744-2.298z" fill="#fff"/><path d="M192.615 656.541c3.248 0 5.881-2.633 5.881-5.881s-2.633-5.881-5.881-5.881-5.881 2.633-5.881 5.881 2.633 5.881 5.881 5.881z" fill="#7000FF"/><path d="M147.347 665.76c1.844 0 3.338-1.494 3.338-3.338 0-1.843-1.494-3.338-3.338-3.338-1.843 0-3.338 1.495-3.338 3.338 0 1.844 1.495 3.338 3.338 3.338z" fill="#9FCEFF"/><path d="M133.681 600.983c4.437 0 8.034-3.597 8.034-8.034 0-4.437-3.597-8.034-8.034-8.034-4.437 0-8.034 3.597-8.034 8.034 0 4.437 3.597 8.034 8.034 8.034z" stroke="#7000FF" stroke-width="5.26769" stroke-miterlimit="10"/><path d="M100.289 600.565c3.248 0 5.881-2.633 5.881-5.881 0-3.249-2.633-5.882-5.881-5.882-3.2483 0-5.8814 2.633-5.8814 5.882 0 3.248 2.6331 5.881 5.8814 5.881z" fill="#7000FF"/><path d="M119.672 643.129c3.248 0 5.881-2.633 5.881-5.881s-2.633-5.881-5.881-5.881-5.882 2.633-5.882 5.881 2.634 5.881 5.882 5.881z" fill="#9FCEFF"/><path d="M115.694 988.664c-81.6021.615-163.2188-1.853-244.68-7.41-.95-135.741-.621-271.439.982-407.082 24.935 27.168 78.4812 43.293 132.45511 44.816C58.4203 620.737 112.813 607.88 139.332 582.272c-6.601 135.488-14.48 270.961-23.638 406.392z" fill="url(#paint2_linear)"/><path d="M305.419 981.663c-63.174 4.189-126.447 6.521-189.725 7 9.158-135.435 17.037-270.903 23.638-406.395 55.079 49.305 115.549 46.503 165.871-7.687 1.349 135.643 1.424 271.346.216 407.082z" fill="url(#paint3_linear)"/><path d="M561.302 954.444c-84.987 12.477-170.35 21.55-255.883 27.219 1.203-135.736 1.133-271.439-.216-407.086 57.781 46.738 177.882 32.818 223.596-25.927 12.11 135.116 22.941 270.387 32.503 405.794z" fill="url(#paint4_linear)"/></g></g><defs><linearGradient id="paint1_linear" x1="47.1262" y1="450.788" x2="47.1262" y2="525.797" gradientUnits="userSpaceOnUse"><stop stop-color="#026C76"/><stop offset="1" stop-color="#026C76" stop-opacity="0"/></linearGradient><linearGradient id="paint2_linear" x1="4.91023" y1="745.408" x2="4.91023" y2="604.668" gradientUnits="userSpaceOnUse"><stop offset=".3609" stop-color="#5C01E4"/><stop offset="1" stop-color="#5C01E4" stop-opacity=".3"/></linearGradient><linearGradient id="paint3_linear" x1="210.985" y1="745.61" x2="210.985" y2="605.041" gradientUnits="userSpaceOnUse"><stop offset=".3609" stop-color="#5C01E4"/><stop offset="1" stop-color="#5C01E4" stop-opacity=".3"/></linearGradient><linearGradient id="paint4_linear" x1="433.254" y1="727.501" x2="433.254" y2="580.507" gradientUnits="userSpaceOnUse"><stop offset=".3609" stop-color="#5C01E4"/><stop offset="1" stop-color="#5C01E4" stop-opacity=".3"/></linearGradient><clipPath id="clip0"><path fill="#fff" d="M0 0h375v667H0z"/></clipPath><clipPath id="clip1"><path fill="#fff" d="M-782-5H994v994H-782z"/></clipPath><radialGradient id="paint0_radial" cx="0" cy="0" r="1" gradientUnits="userSpaceOnUse" gradientTransform="matrix(0 775.454 -151.546 0 86.3261 649.672)"><stop stop-color="#F9D232"/><stop offset=".83" stop-color="#F9D232" stop-opacity="0"/></radialGradient></defs></svg>
