<svg width="375" height="667" fill="none" xmlns="http://www.w3.org/2000/svg"><g clip-path="url(#clip0)"><path fill="#3A058D" d="M0 0h375v667H0z"/><g clip-path="url(#clip1)"><path d="M574.468 155H-73.7402v509.663H574.468V155z" fill="#3A058D"/><path d="M611.573 299.636l-44.721 10.087-22.055 81.408-11.136-33.121-2.627 18.802-10.517 3.236-11.245 31.77-1.754-12.091-6.118-5.372-7.342 13.867-34.585-52.106-33.108 38.642-4.803-3.649-33.572 21.209-11.872-4.083-7.697 28.424-42.204-18.337-3.736 5.991-4.246.092-6.863 6.82-45.156-8.819-8.67 7.806-4.868-1.465-6.61 9.601-38.226-12.394-6.468 6.236-8.061-10.561-4.601 3.132-10.96-7.71-6.635 4.254-25.486-20.789-24.082 9.763-11.376-6.127-14.3284 6.969-5.3549-3.482-9.8855 4.771-6.675-3.99-22.0426 11.043-8.8415-10.158-6.1795 1.496-7.7233-7.052-.7631 7.701-14.6-32.805-9.51697 19.297-15.54303-54.615-7.8372 30.573-8.1881-25.262-10.1441 10.74-13.5256-37.146-15.7885 14.915-8.0303-4.793-10.1924 4.842-19.253-14.745v295.86h715.813V299.636z" fill="#4900B8"/><path d="M414.664 395.872c-.855.5-1.618 1.123-2.359 1.794-.741.671-1.483 1.381-2.276 2.065l-.088.057c-1.807 1.171-3.583 2.386-5.346 3.632l-5.307 3.732c-1.776 1.25-3.57 2.495-5.408 3.701-1.837 1.207-3.71 2.391-5.653 3.465l-.78.43-1.057-.333c-1.685-.535-3.584-.882-5.601-1.391-2.009-.504-4.166-1.21-6.193-2.377l4.215-1.478c-.189.645-.364 1.29-.495 1.886-.066.29-.119.588-.136.776-.009.079 0 .185.013.014v-.101l-.005-.07-.008-.101c-.005-.048-.014-.092-.022-.141l-.014-.07-.03-.127c-.022-.088-.053-.175-.084-.263-.008-.026-.048-.123-.083-.197-.035-.079-.079-.158-.123-.233-.044-.079-.087-.145-.144-.224-.088-.122-.185-.236-.29-.346-.105-.11-.224-.211-.342-.298-.123-.092-.311-.215-.487-.294-.18-.088-.368-.154-.557-.202-.171-.044-.333-.07-.508-.083-.172-.013-.347-.009-.514.009-.136.013-.219.026-.333.052-.197.04-.46.141-.531.171-.109.049-.219.101-.324.167-.075.044-.119.074-.18.114l-.136.105c-.259.215-.281.272-.316.303-.026.026-.03.026-.022.009l.07-.185c.062-.162.119-.359.141-.508.031-.141.013-.277-.009-.114 0 .092-.017.254.123.644.07.176.197.43.39.654.198.237.452.452.719.592l4.544-1.627c-1.614 4.416-2.807 9.012-3.789 13.714-.987 4.706-1.776 9.517-2.68 14.411l-.912 4.939-4.973-1.86c-1.022-.381-2.04-.776-3.075-1.188-.517-.207-1.039-.417-1.579-.645-.272-.114-.548-.237-.859-.377-.158-.075-.32-.149-.535-.263-.114-.062-.233-.123-.448-.255l-.215-.145-.153-.109c-.079-.062-.154-.119-.233-.184-.07-.057-.135-.119-.201-.185-.07-.07-.101-.092-.263-.272-.066-.074-.128-.149-.189-.223l-.088-.119-.114-.166c-.136-.206-.259-.43-.359-.663-.053-.114-.097-.232-.141-.35-.022-.053-.109-.316-.175-.663-.119-.627-.097-1.32.057-1.912.153-.666.561-1.46 1.101-2.017.302-.316.548-.5.64-.562.145-.105.298-.201.46-.293.158-.088.325-.167.492-.237.14-.062.403-.145.421-.149.263-.079.539-.136.811-.163.145-.017.25-.022.382-.026.438-.004.565.018.719.035.123.013.228.031.298.044.158.026.241.048.333.066l.395.096.553.158c.329.101.627.193.916.294.584.197 1.145.399 1.715.618.57.224 1.14.457 1.776.755.321.153.649.316 1.075.565.219.132.452.272.811.553.184.149.399.316.737.689.075.079.189.219.281.346.048.066.118.162.175.246l.083.131.106.176c.074.131.122.223.201.399.079.175.141.342.202.53.075.237.132.483.167.729.044.298.061.622.048.934l-.276 6.46-6.175-2.329c-7.316-2.754-14.363-5.89-21.328-8.82l-2.601-1.114-2.548-1.07c-.403-.162-.776-.333-1.206-.491l-.653-.237-.728-.276c-.983-.377-1.926-.772-2.834-1.162-3.64-1.579-6.832-3.057-9.723-3.676l3.149-.144-.557.197 2.702-1.96c.083-.097.039-.049-.053.193-.096.237-.232.644-.447 1.232-.224.588-.5 1.377-1.132 2.421-.32.517-.745 1.101-1.32 1.671-.57.57-1.298 1.11-2.074 1.5l-.342.171-.412.14c-.843.285-1.658.421-2.312.483-.653.061-1.158.057-1.486.065l-.373.009-.097.009c-.013.004-.026.004-.035.004-.009.009.154-.004.373-.07l1.048-.469c-.175.118-.417.307-.763.667-.346.355-.776.868-1.333 1.526-.557.658-1.233 1.469-2.18 2.351-.938.868-2.21 1.806-3.728 2.456l-1.618.692-1.768-.302c-7.552-1.29-15.139-2.57-22.739-3.96-3.803-.698-7.605-1.421-11.408-2.189-3.802-.772-7.613-1.57-11.407-2.465l6.052-1.916c-.916 1.017-1.912 2.127-3.065 3.25-1.158 1.122-2.469 2.276-4.118 3.337-1.636 1.048-3.698 2.031-6.132 2.395-1.206.184-2.473.201-3.688.048-1.219-.149-2.373-.461-3.425-.868l4.929-.237c.285-.145.535-.325.706-.478.176-.158.277-.285.334-.36.105-.153.039-.088-.057.132-.101.215-.242.57-.417 1.03-.18.465-.39 1.04-.732 1.777-.18.39-.369.749-.571 1.1-.201.356-.421.706-.657 1.053-.47.693-1.013 1.355-1.61 1.969-1.193 1.228-2.609 2.224-4.048 2.934l-2.281 1.127-2.337-.798c-2.061-.702-3.934-1.421-5.811-2.136l-5.557-2.127c-3.675-1.399-7.328-2.758-10.969-3.978-3.631-1.197-7.267-2.372-10.74-3.105-.434-.096-.86-.175-1.285-.254-.215-.044-.417-.07-.627-.105-.176-.031-.553-.084-.307-.062.219.018.741-.022 1.215-.232.232-.097.434-.224.57-.334.136-.105.215-.188.245-.223.057-.07-.052.039-.223.316-.185.276-.421.701-.825 1.328-.206.312-.46.693-.833 1.145-.382.452-.882 1.009-1.719 1.592-.807.575-2.075 1.123-3.342 1.241-.632.066-1.224.04-1.759-.03-.539-.075-.982-.193-1.395-.329l.689.184c-1.083-.237-1.667-.566-2.136-.829-.46-.272-.789-.518-1.048-.733-.535-.438-.877-.789-1.189-1.122-.605-.658-1.043-1.219-1.456-1.759-.811-1.074-1.486-2.061-2.14-3-.649-.93-1.276-1.82-1.829-2.526-.267-.342-.535-.645-.636-.75-.039-.053-.039-.031.22.114.149.079.364.198.802.325.421.118 1.176.267 2.145.074l.425-.101c.224-.065.426-.215.434-.241.009-.022-.114.075-.399.443-.153.189-.324.434-.728.917l-.175.201-.233.246c-.079.083-.206.202-.311.298-.048.044-.123.11-.206.176l-.237.188c-.066.053-.193.141-.307.215-.114.075-.232.149-.351.22-.136.078-.32.171-.482.245-.18.079-.307.14-.557.224-.228.074-.461.14-.693.188-.219.049-.535.088-.803.106-.557.039-1.127-.018-1.679-.15-.272-.065-.535-.153-.799-.258-.131-.053-.258-.11-.381-.171l-.171-.088-.022-.013-.176-.105-.35-.22-.351-.223-.171-.114-.132-.097c-.351-.259-.724-.535-1.009-.798-1.232-1.061-2.14-2.066-2.982-2.991-.833-.93-1.574-1.79-2.259-2.5-.166-.171-.342-.36-.495-.5l-.237-.232-.219-.198c-.149-.144-.272-.232-.391-.333-.074-.066-.087-.07-.109-.088-.009-.009-.018-.017-.027-.031l-.013-.017c-.004-.004-.013-.018.018.004.074.049.197.079.237.097.026.009.057.013.087.017.035.014.071.018.11.022.149.027.338.027.496.013.337-.043.482-.153.407-.127-.065.018-.28.149-.548.377-.267.22-.583.531-.925.891-.342.359-.706.772-1.118 1.232-.413.461-.864.969-1.474 1.561l-3.118 3.049-3.237-2.698c-1.193-.995-2.25-2.079-3.123-3.004-.877-.93-1.618-1.702-2.359-2.337l-5.842-4.855c-3.916-3.32-7.811-6.781-11.53-10.46l.206.175c-.087-.079.079-.066-.087-.123-.158-.044-.636 0-1.255.184-.311.088-.653.207-1.035.347l-.601.219-.267.097-.272.109-2.382.948c-1.627.64-3.28 1.276-4.973 1.85-1.697.571-3.425 1.088-5.179 1.531l.482-.189c-1.425.614-2.899 1.465-4.684 2.29-1.188.552-2.513.807-3.833.732-1.32-.079-2.526-.495-3.504-1.009-1.969-1.043-3.307-2.328-4.61-3.403-1.285-1.079-2.482-2.022-3.657-2.443l1.482-.175c-2.342 1.101-4.675 2.469-7.171 3.697-1.25.614-2.539 1.189-3.8897 1.653-1.3464.47-2.763.799-4.1971.952l-.4825.053-.2763-.215c-1.456-1.118-2.7981-2.289-4.1883-3.364l.1666.083c-.5087-.228-1.2806-.144-2.0174.079-.7456.224-1.4912.57-2.2236.943l-.3596-.587c.7193-.435 1.4561-.856 2.2631-1.176.4035-.158.8244-.289 1.2762-.355.4473-.066.9298-.061 1.3946.088l.0439.013.0438.026c1.5 1 2.9253 2.075 4.3945 3.057l-.2719-.057c2.6051-.439 5.0477-1.575 7.3677-2.89 2.329-1.316 4.575-2.82 6.96-4.132l.154-.083.167.048c1.793.5 3.276 1.575 4.67 2.619 1.395 1.048 2.733 2.162 4.233 2.868.745.351 1.53.574 2.324.596.789.018 1.583-.162 2.289-.522 1.513-.776 2.987-1.728 4.57-2.521l.04-.018.044-.013c3.263-.991 6.433-2.285 9.574-3.658l2.359-1.044c.807-.342 1.583-.671 2.434-.969.842-.285 1.741-.522 2.706-.504.961.009 1.952.368 2.702.978l.017.013.013.013c3.728 3.434 7.649 6.653 11.636 9.802l6.004 4.715c2.052 1.645 3.657 3.644 5.6 5.171l-.754.044c.789-.803 1.522-1.75 2.329-2.645.807-.89 1.671-1.794 2.807-2.447.565-.32 1.219-.57 1.921-.61.706-.057 1.394.114 2.026.417 1.149.653 2.03 1.478 2.903 2.324 1.715 1.693 3.206 3.548 4.965 5.009.215.188.443.346.671.513.114.087.228.149.337.223l.171.11.084.053c.022.008-.026-.018-.04-.013-.039-.014-.096-.005-.109 0-.013.004 0 0 .026-.018.053-.039.136-.127.219-.224.167-.197.338-.438.522-.679.364-.483.772-.983 1.281-1.413.5-.429 1.109-.776 1.767-.965l.031-.008.018-.005c.552-.092.938.11 1.245.277.307.179.561.386.794.596.465.421.868.868 1.254 1.325.768.912 1.461 1.85 2.149 2.789.689.934 1.369 1.873 2.079 2.767.355.448.715.882 1.096 1.276.189.198.382.382.579.536.185.153.404.276.496.289l.022.004.053.018c.359.114.6.092.868-.097.276-.188.548-.552.798-.942.509-.794.961-1.733 1.715-2.562.377-.412.851-.789 1.412-1.022.557-.236 1.175-.311 1.746-.263.298.022.53.07.785.106.25.039.5.07.745.118.496.088.991.171 1.483.276 3.938.794 7.758 1.956 11.543 3.197 3.785 1.25 7.517 2.623 11.236 4.018 3.719 1.386 7.421 2.859 11.144 4.127l-.5.035c.829-.412 1.579-.956 2.215-1.614.636-.654 1.153-1.434 1.539-2.268.386-.842.68-1.802 1.105-2.758.215-.478.465-.961.807-1.421.338-.456.79-.886 1.347-1.167l.263-.131.276.105c1.171.447 2.417.614 3.636.417 1.219-.185 2.39-.715 3.465-1.408 1.079-.698 2.07-1.562 3.013-2.487.943-.925 1.833-1.921 2.728-2.934l.272-.307.399.097c14.907 3.517 30.02 6.131 45.124 8.81l-.364.044c1.39-.583 2.482-1.776 3.566-3.026.548-.627 1.101-1.276 1.728-1.881.623-.61 1.32-1.176 2.105-1.623l.052-.031.058-.017c.754-.25 1.513-.25 2.17-.25.667.004 1.259-.009 1.777-.184l-.084.035c.347-.171.623-.457.86-.834.237-.372.421-.824.601-1.293.364-.939.693-2.005 1.399-2.952l.114-.154.18-.061.557-.189.171-.057.171.044c3.811.93 7.28 2.68 10.736 4.228.864.39 1.732.768 2.609 1.123.435.18.882.346 1.329.517.448.171.886.378 1.329.566 1.763.768 3.5 1.544 5.241 2.333 6.956 3.154 13.837 6.443 20.885 9.316l-.776.495c0 .132.035.184.043.206.014.022.018.022.009.018-.009-.013-.039-.04-.079-.07-.074-.062-.171-.128-.276-.189-.206-.127-.434-.246-.662-.36-.465-.232-.948-.443-1.434-.644-.487-.202-.983-.395-1.478-.575-.25-.087-.496-.175-.746-.259l-.364-.114-.171-.043-.07-.014c-.013-.004-.048-.004.013-.004l.031-.004c.03-.005.057-.009.087-.018.018-.004.075-.026.106-.044.017-.009.035-.022.052-.035.009-.009.04-.031.075-.066.066-.065.114-.162.131-.241.018-.07.022-.153.009-.228-.022-.092-.022-.079-.035-.118-.013-.027-.026-.053-.039-.075-.018-.026-.027-.035-.04-.052-.026-.031-.022-.027-.035-.036-.017-.013.004.005.018.014l.14.083.338.171.715.333 1.464.645c.983.421 1.974.833 2.965 1.241l-.745.39c1.07-4.789 2.052-9.613 3.249-14.393 1.198-4.781 2.614-9.531 4.509-14.105l.215-.522.504.263c.268.141.478.404.575.654.105.25.127.487.131.706.005.438-.079.824-.184 1.197-.11.373-.246.728-.412 1.075-.084.171-.176.342-.281.513-.114.175-.206.333-.439.535-.07.048-.127.114-.324.167-.04.008-.101.017-.175.013-.066-.005-.141-.022-.211-.057-.079-.035-.123-.075-.167-.119-.022-.022-.044-.048-.061-.07l-.035-.053c-.088-.157-.083-.232-.101-.315-.009-.075-.013-.141-.009-.198.005-.232.035-.421.07-.614.071-.377.163-.728.259-1.079.197-.697.426-1.377.662-2.052l.202-.583.518.329c1.618 1.026 3.425 1.728 5.293 2.289 1.864.574 3.798 1.026 5.684 1.732l-.36.018c7.728-3.816 14.78-8.894 22.39-13.074l-.04.026c.807-.601 1.579-1.254 2.395-1.886.811-.631 1.679-1.228 2.627-1.684l.302.575z" fill="#7000FF"/><path d="M559.116 438.141c-25.876-8.771-87.715-8.771-114.029-2.631-19.253 4.491-69.562 7.096-89.481 6.539-29.143-.816-43.822 4.118-71.474 10.127-16.276 3.534-39.779 2.096-56.576 4.385-15.337 2.088-51.006-6.548-66.224-5.701-63.1544 3.508-75.8335-7.101-107.0553-6.245-38.5899 1.057-54.77755 11.069-128.0189-3.842" fill="#5C01E4"/><path d="M643.262 461.259c-16.1-.281-26.463-2.908-26.463-2.908s-13.03-2.675-26.463-2.908c-13.434-.232-36.994 4.241-53.098 3.956-16.104-.285-26.455-2.908-26.455-2.908s-13.025-2.675-26.45-2.907c-13.433-.237-36.971 4.236-53.076 3.956-16.1-.281-26.415-2.908-26.415-2.908s-12.946-2.671-26.375-2.908c-13.434-.237-36.823 4.241-52.918 3.96-16.1-.28-26.113-2.903-26.113-2.903s-13.39-2.68-26.814-2.916c-13.434-.237-37.344 4.232-53.449 3.951-16.1-.281-26.463-2.908-26.463-2.908s-13.03-2.675-26.464-2.907c-13.433-.237-36.993 4.241-53.097 3.955-16.1003-.28-26.4549-2.912-26.4549-2.912s-13.0256-2.675-26.4458-2.907c-13.4335-.237-36.976 4.236-53.08029 3.956-16.10432-.281-26.41071-2.908-26.41071-2.908s-12.9466-2.671-26.3757-2.908c-13.4334-.237-36.9452 4.241-53.0452 3.96-16.1004-.28-111.7474-2.337-111.7474-2.337l-.132-19.876s96.126 2.048 112.2303 2.333c16.0999.281 39.5504-4.193 52.9838-3.96 13.4334.232 26.4019 2.907 26.4019 2.907s10.33278 2.627 26.43272 2.908c16.09998.281 39.65118-4.193 53.08468-3.956 13.4334.237 26.4545 2.908 26.4545 2.908s10.3634 2.627 26.4551 2.908c16.095.28 39.664-4.193 53.097-3.956 13.434.237 26.464 2.907 26.464 2.907s10.359 2.628 26.463 2.908c16.1.281 40.02-4.184 53.449-3.951 13.433.237 26.814 2.916 26.814 2.916s10.008 2.623 26.112 2.904c16.105.28 39.494-4.193 52.918-3.961 13.434.237 26.376 2.908 26.376 2.908s10.32 2.627 26.415 2.908c16.096.28 39.643-4.193 53.076-3.956 13.433.237 26.45 2.907 26.45 2.907s10.359 2.628 26.455 2.908c16.095.281 39.664-4.192 53.098-3.956 13.433.237 26.463 2.908 26.463 2.908s10.359 2.627 26.463 2.908c16.1.28 39.897-4.189 53.322-3.952 13.433.237 26.687 2.912 26.687 2.912l-.347 19.881s-13.262-2.68-26.687-2.912c-13.429-.237-37.23 4.241-53.326 3.956z" fill="#3A058D"/><path d="M789.334 458.982c-6.412-16.937-27.258-27.989-44.107-24.897-16.85 3.092-33.06 11.332-50.138 10.547-24.99-1.153-49.212-21.494-72.921-12.981-13.951 5.008-24.1 19.275-38.502 22.516-13.149 2.96-26.209-3.969-39.002-8.351-34.661-11.863-72.246-5.245-107.924 2.448-35.678 7.692-9.526 10.718-108.086 10.718" fill="#3A058D"/><path d="M-210.414 454.426s107.147 2.442 123.2515 2.442c16.1044 0 39.4714-4.885 52.9048-4.885 13.4335 0 26.45024 2.447 26.45024 2.447s10.37658 2.447 26.48086 2.447c16.1044 0 39.5723-4.885 53.0057-4.885 13.4334 0 26.5029 2.447 26.5029 2.447s10.407 2.443 26.503 2.443c16.1 0 39.585-4.882 53.019-4.882 13.433 0 26.511 2.448 26.511 2.448s10.403 2.447 26.507 2.447c16.105 0 39.946-4.886 53.37-4.886 13.434 0 26.858 2.447 26.858 2.447s10.052 2.443 26.157 2.443c16.104 0 39.41-4.881 52.839-4.881 13.433 0 26.424 2.447 26.424 2.447s10.363 2.447 26.463 2.447 39.563-4.885 52.997-4.885c13.433 0 26.494 2.447 26.494 2.447s10.403 2.443 26.503 2.443 39.585-4.882 53.019-4.882c13.433 0 26.507 2.448 26.507 2.448s10.403 2.447 26.507 2.447 39.818-4.886 53.242-4.886c13.434 0 26.736 2.447 26.736 2.447v18.986h-945.252v-19.051z" fill="url(#paint0_linear)"/><path d="M-174.51 475.477s107.1475-1.706 123.2519-1.706c16.1043 0 39.4713 3.408 52.90477 3.408 13.43343 0 26.45023-1.706 26.45023-1.706s10.3765-1.706 26.4809-1.706c16.1043 0 39.5722 3.407 53.0052 3.407 13.434 0 26.503-1.706 26.503-1.706s10.408-1.706 26.503-1.706c16.1 0 39.586 3.408 53.019 3.408s26.512-1.706 26.512-1.706 10.403-1.706 26.507-1.706 39.941 3.407 53.37 3.407c13.433 0 26.862-1.706 26.862-1.706s10.052-1.706 26.156-1.706c16.105 0 39.41 3.408 52.839 3.408 13.434 0 26.424-1.706 26.424-1.706s10.364-1.706 26.464-1.706c16.1 0 39.563 3.408 52.997 3.408 13.433 0 26.494-1.706 26.494-1.706s10.403-1.706 26.503-1.706c16.099 0 39.585 3.407 53.018 3.407 13.434 0 26.508-1.706 26.508-1.706s10.402-1.706 26.507-1.706c16.104 0 39.818 3.408 53.242 3.408 13.434 0 26.736-1.706 26.736-1.706v-13.249H-174.51v13.284z" fill="#5C01E4"/><path d="M208.303 511.523s38.046 26.915 64.452 31.169c20.732 3.338-54.76 48.375-90.534 7.443-12.113-13.859 26.082-38.612 26.082-38.612z" fill="#2297CC"/><path d="M52.4493 488.836c10.3152.421 35.6514 5.407 109.9457-48.708 63.399-47.497 98.419-17.828 113.853-1.504 15.433 16.323 25.889 78.829-58.045 112.182-83.934 33.353-130.1154 33.656-193.3705 13.81-65.698-20.612-116.2345-82.24-105.5684-100.397 11.9598-20.354 76.22357 22.292 133.1852 24.617z" fill="#28B6F6"/><path d="M183.407 531.877s23.784 40.081 46.168 54.721c17.574 11.495-69.719 21.871-85.714-30.082-5.416-17.591 39.546-24.639 39.546-24.639z" fill="#28B6F6"/><path d="M223.822 435.006c5.692 0 10.306-4.615 10.306-10.307s-4.614-10.306-10.306-10.306c-5.692 0-10.306 4.614-10.306 10.306 0 5.692 4.614 10.307 10.306 10.307zM189.192 488.941c2.301 0 4.166-1.865 4.166-4.166s-1.865-4.167-4.166-4.167-4.167 1.866-4.167 4.167c0 2.301 1.866 4.166 4.167 4.166zM204.116 440.619c2.301 0 4.166-1.865 4.166-4.166s-1.865-4.166-4.166-4.166-4.167 1.865-4.167 4.166 1.866 4.166 4.167 4.166zM270.106 448.347c3.755 0 6.798-3.043 6.798-6.798 0-3.754-3.043-6.798-6.798-6.798-3.754 0-6.797 3.044-6.797 6.798 0 3.755 3.043 6.798 6.797 6.798zM118.741 482.884c3.633 0 6.578-2.945 6.578-6.578 0-3.633-2.945-6.579-6.578-6.579-3.634 0-6.579 2.946-6.579 6.579 0 3.633 2.945 6.578 6.579 6.578z" fill="#2297CC"/><path d="M261.083 456.136c-4.653-2.009-10.056.145-12.052 4.772-1.995 4.627.162 10.03 4.811 12.038 4.653 2.009 10.057-.144 12.052-4.771 1.996-4.623-.158-10.026-4.811-12.039z" fill="#231F20"/><path d="M264.282 467.42c-1.995 4.632-6.662 7.066-10.425 5.447-3.763-1.622-5.197-6.688-3.201-11.319 1.995-4.631 6.662-7.066 10.425-5.447 3.763 1.623 5.197 6.692 3.201 11.319z" fill="#231F20"/><path opacity=".3" d="M258.804 462.372c2.447 1.329 7.706 1.886 4.548 6.066-3.162 4.179-6.057 2.495-8.504 1.166-2.447-1.328-3.517-4.021-2.434-6.03 1.088-2.009 3.943-2.53 6.39-1.202z" fill="#29B6F6"/><path d="M256.583 461.162c-.483 1.118-1.79 1.627-2.925 1.14-1.136-.486-1.663-1.789-1.18-2.907.482-1.119 1.789-1.627 2.925-1.141 1.132.487 1.662 1.79 1.18 2.908z" fill="#fff"/><path fill-rule="evenodd" clip-rule="evenodd" d="M268.27 482.792c.356-.497 1.048-.612 1.545-.255 4.463 3.197 8.2 3.672 10.765 3.409 1.295-.132 2.316-.455 3.005-.74.344-.142.604-.273.772-.366.084-.046.145-.082.181-.105.019-.011.031-.019.037-.023.002-.001.003-.002.004-.002.506-.339 1.192-.206 1.534.299.343.507.21 1.195-.297 1.538l-.62-.917c.62.917.62.917.619.918l-.001.001-.004.002-.008.006-.025.016c-.02.013-.046.029-.079.05-.065.04-.157.094-.273.158-.234.128-.568.297-.995.473-.854.352-2.084.738-3.625.896-3.108.318-7.383-.304-12.28-3.813-.497-.356-.611-1.048-.255-1.545z" fill="#231F20"/><path d="M257.375 425.094l17.232-17.911c9.297-9.636 20.323-17.451 32.506-23.021 14.289-6.521 26.964-16.117 37.095-28.082l3.811-4.521c3.03-3.592 12.49-10.908 22.196-18.026 2.013-1.478 4.408 1.347 2.583 3.07-9.587 9.092-19.205 18.609-21.994 22.789l-6.061 8.933c-8.78 13.004-20.24 24.021-33.586 32.323-11.394 7.096-21.402 16.188-29.551 26.845l-8.605 11.311c-1.087 1.421-2.565 2.548-4.254 3.206-3.969 1.556-8.499.368-11.205-2.934l-.641-.786c-2.885-3.517-2.982-8.53-.219-12.157l.693-1.039z" fill="#fff"/><path d="M320.619 382.377c-1.162-1.237-2.201-2.465-3.131-3.658-3.18 1.899-6.465 3.632-9.842 5.193 1.049 1.452 2.272 2.987 3.711 4.592 2.736 3.052 5.241 5.302 7.407 6.96 2.952-2.189 5.789-4.522 8.504-6.986-2.009-1.557-4.258-3.553-6.649-6.101zM282.401 412.257c-2.399-2.469-4.259-4.938-5.693-7.193-.711.698-1.412 1.404-2.105 2.119l-7.193 7.477c1.443 1.996 3.303 4.18 5.697 6.443 3.149 2.973 6.013 5.026 8.456 6.442l.044-.057c2.451-3.205 5.074-6.271 7.85-9.183-2.14-1.487-4.535-3.456-7.056-6.048zM333.971 366.597c-2.276 2.035-4.636 3.974-7.078 5.807.618.724 1.276 1.465 1.986 2.223 2.303 2.456 4.421 4.386 6.311 5.904 2.027-2.25 3.961-4.579 5.798-6.987-1.386-1.197-2.868-2.57-4.434-4.157-.925-.948-1.785-1.878-2.583-2.79zM263.224 431.563c-2.364-2.232-4.232-4.509-5.697-6.627l-.153.158-.693 1.035c-2.763 3.627-2.663 8.644.219 12.157l.64.785c2.702 3.303 7.232 4.487 11.206 2.934 1.688-.658 3.171-1.785 4.254-3.206l.092-.123c-2.785-1.42-6.197-3.644-9.868-7.113zM296.893 389.517c-3.539 2.105-6.951 4.412-10.223 6.912 1.364 1.991 3.109 4.18 5.346 6.478 2.658 2.736 5.109 4.762 7.263 6.271 2.881-2.372 5.885-4.596 8.999-6.671-1.864-1.521-3.912-3.433-6.052-5.824-2.228-2.486-3.973-4.938-5.333-7.166zM370.213 333.533c-1.698 1.246-3.386 2.496-5.035 3.733.592.539 1.215 1.092 1.868 1.653.605.522 1.193 1.018 1.763 1.491 1.316-1.267 2.649-2.539 3.987-3.802 1.824-1.728-.57-4.553-2.583-3.075zM347.46 352.221l-3.254 3.859c-1.189 1.404-2.408 2.768-3.667 4.105.789.882 1.645 1.799 2.575 2.741 1.118 1.136 2.184 2.158 3.197 3.084l4.491-6.614c.456-.684 1.096-1.509 1.886-2.452-.43-.355-.86-.719-1.303-1.105-1.438-1.241-2.746-2.456-3.925-3.618zM359.168 341.844c-2.39 1.864-4.565 3.618-6.398 5.184 1.052 1.004 2.21 2.057 3.482 3.158.5.43.982.838 1.46 1.232 1.728-1.798 3.662-3.75 5.724-5.785-.417-.346-.834-.701-1.264-1.07-1.074-.921-2.074-1.833-3.004-2.719z" fill="#fff"/><path d="M271.999 422.002c-2.395-2.263-3.82-4.618-4.592-7.337l-9.886 10.275c1.211 2.829 3.11 5.886 5.474 8.118 3.671 3.469 6.921 4.785 10.1 5.627l8.469-11.135c-1.684-.333-6.416-2.575-9.565-5.548zM291.394 403.893c-3.153-3.061-3.991-6.048-4.719-7.464-3.491 2.666-6.82 5.552-9.964 8.635.478 1.263 1.421 4.597 4.508 7.667 2.562 2.548 6.763 4.986 8.241 5.574 3.088-3.237 6.368-6.289 9.824-9.131-1.925-.921-4.399-1.891-7.89-5.281zM312.062 390.35c-2.535-2.557-3.46-4.657-4.416-6.433-.18.083-.355.166-.535.249-3.504 1.601-6.916 3.395-10.215 5.36 1.071 2.706 1.443 4.293 4.377 7.565 2.965 3.311 4.649 3.974 7.013 5.421.947-.632 1.904-1.254 2.873-1.86 2.609-1.622 5.149-3.355 7.609-5.179-2.061-1.154-3.82-2.211-6.706-5.123zM326.89 372.404c-3.018 2.267-6.158 4.377-9.408 6.315.65 1.834 1.584 3.171 4.022 5.781 2.289 2.442 4.403 3.46 5.759 3.982 2.771-2.518 5.416-5.171 7.925-7.951-1.557-.755-1.978-.61-4.961-3.426-2.043-1.929-3.061-4.346-3.337-4.701zM340.538 360.181c-2.1 2.232-4.293 4.377-6.569 6.416.798.912 1.658 1.842 2.587 2.785 1.562 1.588 3.044 2.96 4.434 4.158 1.298-1.702 2.548-3.439 3.75-5.215l1.575-2.316c-1.014-.925-2.079-1.947-3.198-3.083-.934-.947-1.789-1.859-2.579-2.745zM352.772 347.028c-2.118 1.811-3.776 3.364-4.754 4.526l-.557.662c1.184 1.167 2.491 2.378 3.925 3.619.443.381.877.745 1.303 1.105 1.307-1.557 3.026-3.434 5.026-5.517-.478-.395-.961-.803-1.461-1.233-1.272-1.101-2.429-2.157-3.482-3.162zM365.18 337.261c-2.092 1.566-4.114 3.105-6.004 4.583.93.886 1.929 1.798 3 2.724.429.368.85.723 1.263 1.07 1.723-1.702 3.53-3.46 5.372-5.232-.574-.474-1.162-.969-1.763-1.491-.653-.562-1.276-1.114-1.868-1.654z" fill="#B71C1C"/><path d="M276.705 405.064c.478 1.263 2.044 5.272 4.509 7.667 3.491 3.385 6.762 4.986 8.24 5.574" fill="#B71C1C"/><path fill-rule="evenodd" clip-rule="evenodd" d="M92.8528 457.798c3.9653 2.536 5.1238 7.806 2.5876 11.772-4.6569 7.281-8.8847 13.257-13.04 17.689-4.1608 4.439-8.8655 8.004-14.6085 9.36-5.8978 1.393-11.4742.133-16.6528-2.225-5.0332-2.292-10.351-5.925-16.0928-10.229-3.7664-2.823-4.5311-8.165-1.7079-11.932 2.8232-3.766 8.1651-4.531 11.9315-1.707 5.6149 4.208 9.6903 6.878 12.933 8.355 3.0975 1.41 4.6799 1.383 5.6704 1.149 1.1453-.27 3.0583-1.193 6.0913-4.428 3.0385-3.242 6.5806-8.126 11.1162-15.217 2.5362-3.965 7.8067-5.124 11.772-2.587z" fill="#5E3930"/><path d="M33.3209 472.302c-9.381 17.648-1.478 37.515 11.4467 5.956l-11.4467-5.956z" fill="#5E3930"/><path fill-rule="evenodd" clip-rule="evenodd" d="M82.6862 468.737c4.582 1.078 7.4229 5.666 6.3453 10.248-1.9785 8.413-3.9847 15.453-6.4344 21.012-2.4529 5.568-5.7087 10.491-10.6765 13.676-5.1018 3.271-10.7808 3.931-16.4487 3.424-5.5087-.492-11.731-2.157-18.576-4.313-4.4896-1.414-6.9825-6.2-5.5681-10.69 1.4143-4.489 6.2003-6.982 10.6898-5.568 6.6936 2.109 11.4241 3.276 14.9731 3.594 3.3899.303 4.8736-.248 5.7303-.797.9907-.635 2.4893-2.14 4.2775-6.198 1.7914-4.066 3.5131-9.848 5.4401-18.042 1.0775-4.582 5.6656-7.423 10.2476-6.346z" fill="#5E3930"/><path fill-rule="evenodd" clip-rule="evenodd" d="M143.461 434.166c13.599 14.283 13.044 36.887-1.24 50.487-7.036 6.699-15.773 11.623-26.228 13.358-6.222 1.032-12.336.389-17.8791-1.6-2.8151.395-5.723.457-8.6776.15-1.1141-.115-2.1776-.162-3.3459-.112-19.7042.85-36.3666-14.434-37.2167-34.138-.8501-19.704 14.4341-36.367 34.1382-37.217 5.196-.224 9.797.012 13.8035.428 1.874.195 3.6986.531 5.4656.998 13.557-6.438 30.267-3.816 41.18 7.646z" fill="#F9D232"/><path fill-rule="evenodd" clip-rule="evenodd" d="M143.461 434.166c13.599 14.283 13.044 36.887-1.24 50.487-.422.402-.855.802-1.298 1.199-.465.416-.937.817-1.417 1.204-.485.42-.983.829-1.495 1.228-1.096.851-2.248 1.678-3.458 2.468-.652.426-1.313.828-1.982 1.206-.676.414-1.37.809-2.082 1.183-1.487.781-3.016 1.486-4.586 2.112-.815.324-1.635.617-2.458.878-.814.29-1.645.552-2.492.786-1.686.467-3.343.825-4.96 1.094-.79.131-1.578.235-2.364.313-.753.101-1.514.179-2.283.233-1.452.103-2.826.137-4.107.127-.602-.005-1.201-.024-1.796-.058-.56-.013-1.123-.038-1.688-.077-1.036-.071-2.006-.164-2.89-.264-.411-.047-.819-.1-1.2248-.16-.3811-.042-.7629-.091-1.1452-.146-.6968-.1-1.3538-.203-1.9478-.299-.2758-.045-.5504-.092-.8237-.143-.2578-.039-.5157-.08-.7738-.124-.2633-.045-.5736-.098-.8568-.147-.1712-.03-.3324-.057-.4674-.08-.1906-.033-.3806-.067-.57-.103-.1796-.027-.3594-.055-.5393-.085a81.0282 81.0282 0 00-.9397-.152c-.138-.021-.2756-.043-.4129-.066-.1314-.017-.2629-.035-.3945-.054-.2461-.034-.4803-.065-.7052-.093-.1065-.013-.2128-.027-.319-.041-.1028-.01-.2057-.02-.3086-.031-.1955-.02-.3858-.038-.5721-.053-.0898-.007-.1795-.015-.2691-.023l-.2644-.015c-.1698-.011-.339-.019-.5082-.025-.0826-.004-.1652-.007-.2477-.011-.0822 0-.1644-.001-.2467-.003-.161-.002-.3243-.002-.4905-.001-.0822.001-.1644.001-.2465.001l-.2475.009c-.0833.002-.1677.006-.2532.009-19.7042.85-36.3666-14.434-37.2167-34.138-.8501-19.704 14.4341-36.367 34.1382-37.217.3627-.015.7231-.029 1.0812-.04.3582-.011.7154-.017 1.0714-.018.3562-.014.7136-.022 1.0724-.025.7272-.006 1.4428-.003 2.147.007.3586.005.7159.016 1.0718.032.3558.003.7126.011 1.0705.024.7247.028 1.4342.063 2.1284.105.3528.022.7041.048 1.0538.08.3489.018.6985.042 1.049.071.7062.059 1.3924.123 2.058.192.336.035.6704.075 1.0031.119.3303.031.6612.068.9926.108.6654.083 1.3049.168 1.9159.254.307.043.611.09.914.14.298.039.597.082.895.128.07.011.14.022.209.033 13.472-6.161 29.927-3.47 40.716 7.862z" fill="#F9D232"/><path d="M86.0908 496.449c2.6095-.109 4.7761.264 8.0566.829 4.8155.829 11.4156 1.965 19.2096 1.101 9.438-1.048 18.016-4.675 25.547-10.802.175-.14.35-.285.53-.43.053-.043.106-.087.154-.131.035-.027.066-.057.101-.084.127-.109.254-.219.381-.324.114-.097.228-.197.347-.298.166-.149.337-.294.5-.448.223-.197.443-.394.657-.596.215-.197.435-.404.65-.61 14.284-13.6 14.836-36.208 1.241-50.488-.351-.368-.706-.728-1.07-1.074-.145-.145-.294-.286-.443-.426-.035-.031-.062-.057-.092-.088-.158-.144-.321-.289-.479-.434-.368-.333-.745-.653-1.127-.969-.171-.14-.342-.285-.522-.421-.184-.149-.364-.29-.552-.43-.412-.316-.833-.618-1.254-.908-.207-.149-.422-.289-.636-.43-.228-.153-.457-.302-.693-.447-.027-.017-.053-.035-.079-.052-.176-.106-.347-.215-.518-.316-.109-.066-.215-.132-.329-.198-.627-.364-1.258-.715-1.907-1.035-.163-.087-.329-.166-.492-.245-.184-.092-.368-.176-.552-.263-.211-.097-.417-.198-.627-.285-.264-.119-.527-.229-.794-.343-.145-.057-.285-.114-.43-.171-.307-.127-.614-.245-.925-.355-.18-.07-.364-.136-.553-.202-.43-.153-.864-.289-1.303-.425-.197-.061-.39-.118-.587-.171-1.259-.364-2.531-.654-3.82-.877-.233-.04-.469-.079-.702-.114-1.145-.176-2.298-.294-3.452-.355-.276-.018-.548-.031-.82-.036h-.03c-.281-.008-.566-.013-.851-.013-.281-.004-.566 0-.851.005-.246.004-.487.008-.728.017-2.592.097-5.18.474-7.706 1.136-.276.07-.548.149-.82.224-.18.048-.351.101-.526.158-.158.044-.312.092-.469.144-.514.163-1.022.338-1.527.527-.254.092-.495.184-.741.28-.245.092-.487.193-.728.299-.329.136-.658.28-.982.429-4.9648-.78-11.5785-1.561-19.7359-1.206-19.7006.851-34.9892 17.512-34.1384 37.217.8508 19.701 17.5121 34.985 37.2171 34.134z" fill="#F8C329"/><path fill-rule="evenodd" clip-rule="evenodd" d="M160.645 444.556c-.681.629-1.121 1.45-1.214 2.468-.033.358-.087.709-.162 1.052.577-1.22.988-2.275 1.27-3.172.038-.12.073-.236.106-.348zm-3.648 7.694c-2.276 4.002-.96 9.112 3.004 11.506 4.03 2.434 9.269 1.14 11.702-2.889 4.522-7.487 6.965-14.518 6.301-20.739-.35-3.288-1.592-6.413-3.89-8.912-2.279-2.477-5.153-3.856-7.975-4.425-5.426-1.094-11.022.642-15.192 3.704-4.36 3.2-7.888 8.357-8.491 14.983-.427 4.687 3.027 8.834 7.714 9.26 2.635.24 5.099-.746 6.827-2.488z" fill="#4E342E"/><path fill-rule="evenodd" clip-rule="evenodd" d="M160.26 445.233c-.175.515-.39 1.08-.654 1.698.077-.648.304-1.216.654-1.698zm.953-.924c.024-.017.048-.033.072-.049l-9.653-14.445c-4.745 3.171-8.694 8.569-9.339 15.648l17.268 1.572c-.598 1.384-1.435 3.025-2.589 4.935l14.872 8.981c2.678-4.435 4.537-8.558 5.544-12.376l-16.175-4.266z" fill="#FFE14D"/><path fill-rule="evenodd" clip-rule="evenodd" d="M156.453 452.966c-1.736 3.938-.318 8.647 3.463 10.93 4.107 2.481 9.447 1.162 11.927-2.945 4.529-7.498 6.993-14.566 6.324-20.84-.354-3.318-1.607-6.478-3.932-9.006-2.306-2.506-5.213-3.899-8.064-4.474-5.479-1.105-11.122.649-15.321 3.732-4.393 3.224-7.95 8.422-8.558 15.1-.435 4.778 3.086 9.004 7.863 9.439 2.366.215 4.597-.539 6.298-1.936zm3.152-6.035c.077-.652.305-1.218.654-1.698-.175.516-.391 1.082-.654 1.698z" fill="#F8C329"/><path d="M155.59 471.008l-1.71-5.412-5.583 1.004 8.811-14.591 14.591 8.815-8.815 14.592-1.706-5.417-5.588 1.009z" fill="#4E342E"/><path d="M156.913 451.485s6.865 12.684 15.853 9.908l-15.853-9.908z" fill="#6BB4FD"/><path d="M154.741 452.156c-.021-.071-.043-.144-.057-.217-.014-.073-.025-.148-.034-.22-.007-.074-.012-.15-.013-.223 0-.076.004-.148.011-.221.006-.074.017-.148.03-.222.014-.073.031-.145.053-.216.02-.07.044-.142.073-.211.028-.068.061-.138.095-.204.034-.066.074-.13.114-.193.041-.061.087-.123.132-.18.047-.057.098-.114.15-.165.052-.052.107-.103.162-.151.059-.046.119-.091.179-.133.061-.042.125-.081.193-.118.063-.033.132-.066.2-.096.068-.029.14-.053.21-.076.071-.021.144-.042.217-.056.071-.014.148-.026.22-.035.074-.006.15-.011.224-.01.076 0 .147.002.223.009.074.007.148.017.222.031.073.014.145.031.216.053.07.02.143.044.211.072.068.028.138.059.204.095.066.035.131.074.193.115.061.041.122.084.18.132.057.045.114.097.165.149.052.052.103.107.151.165.046.057.093.116.134.179.042.061.081.125.117.19.034.066.066.133.096.201.058.138.102.281.132.427.014.073.026.147.036.222.006.074.01.148.01.224.002.073-.004.148-.009.223-.007.073-.017.148-.032.219-.014.073-.031.145-.052.219-.02.07-.045.14-.073.209-.028.07-.059.137-.095.204-.035.065-.074.13-.115.193-.041.06-.084.122-.132.179-.045.057-.097.114-.149.166-.051.054-.109.103-.165.151-.056.048-.116.093-.178.136-.061.042-.125.081-.191.115s-.134.069-.201.095c-.069.031-.139.056-.209.079-.071.021-.144.04-.218.054-.072.016-.147.026-.22.035-.073.008-.15.011-.223.012-.073-.001-.148-.004-.221-.01-.073-.006-.148-.017-.219-.032-.073-.014-.145-.03-.219-.052-.071-.022-.141-.047-.209-.075-.068-.028-.138-.059-.204-.095-.066-.035-.13-.072-.193-.115-.061-.041-.122-.084-.18-.132-.058-.047-.114-.097-.166-.149-.051-.052-.102-.107-.15-.163-.046-.057-.093-.118-.135-.178-.04-.062-.079-.126-.115-.191-.035-.066-.067-.135-.097-.203-.033-.071-.059-.14-.079-.211zM158.331 453.867c.968-.802 2.403-.666 3.203.304.8.968.665 2.403-.304 3.201-.968.802-2.404.664-3.201-.305l-.002.001c-.195-.235-.334-.501-.422-.777-.262-.853-.007-1.818.726-2.424zm3.231 3.89c.769-.993 2.196-1.178 3.189-.409.995.768 1.178 2.196.41 3.191-.769.995-2.196 1.178-3.192.41-.386-.297-.648-.692-.781-1.127-.209-.685-.097-1.454.374-2.065zm4.042 3.111c.33-1.213 1.58-1.928 2.792-1.597 1.212.328 1.928 1.579 1.6 2.791-.33 1.212-1.58 1.927-2.792 1.597-.78-.212-1.354-.807-1.577-1.525-.125-.4-.14-.837-.023-1.266zM170.591 462.062c-.021-.071-.04-.145-.054-.218-.014-.073-.026-.147-.035-.22-.006-.074-.011-.15-.013-.223.001-.076.005-.148.011-.221.006-.073.017-.148.031-.221.014-.074.03-.145.052-.217.02-.07.045-.142.073-.211.028-.068.059-.137.095-.204.034-.065.074-.13.114-.193.042-.06.085-.122.132-.179.048-.058.098-.114.15-.166.052-.052.107-.102.163-.15.056-.046.117-.094.179-.134.06-.042.125-.081.192-.118.066-.034.133-.066.2-.095.068-.03.14-.054.21-.077.071-.021.144-.042.217-.056.072-.013.148-.026.221-.035.073-.006.15-.011.223-.01.075-.002.148.002.224.009.073.007.148.018.221.031.073.014.145.031.216.053.071.02.143.044.211.073.069.035.138.066.204.1.065.034.13.074.193.114.06.041.123.087.179.132.057.045.114.098.166.15.052.052.102.107.151.165.046.056.093.115.134.179.042.06.08.125.117.19.034.066.066.133.095.2.058.138.103.282.133.427.014.074.026.148.035.223.007.073.011.147.011.223.001.073-.002.148-.01.224-.01.069-.021.144-.033.214-.015.077-.032.148-.054.22-.02.07-.045.14-.073.208-.028.071-.059.138-.096.204-.034.066-.073.131-.114.194-.04.062-.084.122-.132.179-.045.057-.095.113-.149.166-.052.052-.11.103-.165.151-.056.048-.116.093-.179.136-.06.042-.124.08-.19.115-.064.033-.131.065-.199.092-.07.031-.139.058-.209.079-.071.02-.145.04-.219.054-.072.016-.147.026-.22.034-.072.009-.15.012-.222.013-.074-.001-.148-.002-.222-.01-.073-.007-.148-.017-.219-.032-.073-.014-.145-.031-.218-.052-.072-.022-.141-.047-.21-.075-.068-.029-.137-.059-.204-.096-.065-.034-.132-.07-.193-.114-.061-.041-.122-.085-.18-.132-.057-.047-.114-.097-.165-.149-.052-.052-.102-.107-.151-.163-.045-.057-.093-.118-.135-.178-.042-.061-.08-.128-.115-.191-.034-.066-.067-.135-.097-.203-.029-.067-.054-.137-.078-.209z" fill="#6BB4FD"/><path d="M127.098 416.375l18.512 22.972 17.477-14.086c6.342-5.114 7.341-14.399 2.232-20.741-5.114-6.341-14.398-7.341-20.74-2.232l-17.481 14.087z" fill="#5E3930"/><path d="M157.354 419.173c2.759-2.223 3.193-6.258.97-9.017-2.224-2.759-6.259-3.193-9.017-.969" fill="#9B643D"/><path d="M125.315 416.182l-22.972 18.512-14.0824-17.477c-5.1137-6.342-4.1138-15.63 2.2323-20.74 6.3418-5.114 15.6311-4.114 20.7401 2.233l14.082 17.472z" fill="#5E3930"/><path d="M95.155 412.485c-2.2235-2.759-1.7894-6.793.9692-9.017 2.7587-2.224 6.7938-1.789 9.0168.969" fill="#9B643D"/><path d="M143.191 475.685c11.522-10.969 12.764-28.366 2.775-38.858-9.989-10.491-27.426-10.104-38.947.865-11.5211 10.969-12.7633 28.366-2.775 38.858 9.989 10.491 27.426 10.104 38.947-.865z" fill="#39F"/><path fill-rule="evenodd" clip-rule="evenodd" d="M108.228 438.962c-10.9338 10.41-11.9302 26.698-2.714 36.378 9.217 9.681 25.533 9.484 36.467-.926 10.934-10.41 11.931-26.697 2.714-36.377-9.216-9.681-25.533-9.485-36.467.925zm-5.254 38.797c-10.7613-11.302-9.2732-29.81 2.835-41.338 12.108-11.528 30.666-12.106 41.427-.804 10.761 11.303 9.273 29.81-2.835 41.338-12.109 11.528-30.667 12.107-41.427.804z" fill="#39F"/><path d="M123.862 477.994c21.797 0 39.467-17.669 39.467-39.467 0-21.797-17.67-39.467-39.467-39.467-21.797 0-39.4675 17.67-39.4675 39.467 0 21.798 17.6705 39.467 39.4675 39.467z" fill="#5E3930"/><path d="M110.908 401.819l10.322-2.773c1.403-.377 2.026-2.013 1.231-3.227l-4.488-6.854c-.787-1.204-2.517-1.298-3.431-.188l-6.759 8.211c-.593.72-.648 1.743-.139 2.525l.926 1.415c.504.772 1.447 1.132 2.338.891z" fill="#6BB4FD"/><path d="M108.958 403.097l-6.67 8.351c-.906 1.135-2.6561 1.053-3.4505-.164l-4.4882-6.856c-.7869-1.204-.1837-2.825 1.2015-3.22l10.2302-2.912c.898-.255 1.857.102 2.368.884l.926 1.415c.506.772.459 1.78-.117 2.502z" fill="#6BB4FD"/><path d="M108.578 404.85c2.657 0 4.811-2.154 4.811-4.811s-2.154-4.811-4.811-4.811-4.81 2.154-4.81 4.811 2.153 4.811 4.81 4.811z" fill="#F9D232"/><path d="M148.588 439.995c4.164-.345 7.458-1.611 7.357-2.827-.101-1.217-3.558-1.924-7.722-1.579-4.164.344-7.458 1.61-7.357 2.827.101 1.216 3.558 1.923 7.722 1.579z" fill="#000"/><path d="M148.536 437.348c5.407-.636 10.271.666 12.622 3.065-1.504 2.803-2.43 5.952-2.688 9.241-2.154 1.329-4.996 2.307-8.171 2.68-7.293.855-13.605-1.803-14.087-5.943-.491-4.136 5.026-8.184 12.324-9.043z" fill="#5E3930"/><path d="M118.132 443.573c4.164-.345 7.454-1.65 7.35-2.915-.105-1.265-3.565-2.011-7.729-1.666-4.165.345-7.455 1.65-7.351 2.915.105 1.264 3.566 2.01 7.73 1.666z" fill="#000"/><path d="M119.862 455.92c7.294-.857 12.813-4.906 12.327-9.044-.486-4.138-6.793-6.798-14.087-5.941-7.294.858-12.813 4.907-12.327 9.044.486 4.138 6.793 6.798 14.087 5.941z" fill="#5E3930"/><path opacity=".8" d="M134.708 471.556c5.938-.267 10.538-5.302 10.267-11.24l-.47-10.408c-.267-5.938-5.302-10.538-11.24-10.267-5.939.268-10.539 5.303-10.267 11.241l.469 10.407c.268 5.939 5.302 10.535 11.241 10.267z" fill="#9B643D"/><path d="M137.313 472.21c5.938-.268 10.539-5.303 10.267-11.241l-.469-10.407c-.268-5.938-5.303-10.539-11.241-10.267-5.938.267-10.539 5.302-10.267 11.24l.47 10.408c.267 5.938 5.302 10.534 11.24 10.267z" fill="#9B643D"/><path d="M132.964 442.264c-1.214.759-1.789 2.224-1.368 3.592 1.197 3.89 4.886 6.658 9.144 6.517 4.263-.14 7.759-3.14 8.702-7.1.333-1.395-.338-2.82-1.601-3.496-2.228-1.193-4.794-1.829-7.504-1.741-2.711.088-5.228.895-7.373 2.228z" fill="#212121"/><path fill-rule="evenodd" clip-rule="evenodd" d="M138.812 462.565c-1.483.053-2.968.046-3.708-.024l.123-1.31c.65.061 2.064.072 3.538.019 1.482-.054 2.933-.168 3.677-.335l.288 1.284c-.878.197-2.442.313-3.918.366z" fill="#000"/><path fill-rule="evenodd" clip-rule="evenodd" d="M171.143 480.418c3.043 3.591 2.599 8.969-.992 12.012-12.806 10.852-24.627 14.875-35.681 15.056-9.418.155-17.773-2.575-24.019-4.616-.746-.243-1.461-.477-2.145-.695-4.484-1.429-6.961-6.223-5.532-10.708 1.429-4.485 6.223-6.962 10.708-5.533.744.237 1.474.473 2.194.705 6.491 2.095 12.114 3.909 18.515 3.804 6.598-.108 14.721-2.357 24.94-11.017 3.591-3.043 8.969-2.599 12.012.992z" fill="#4E342E"/><path fill-rule="evenodd" clip-rule="evenodd" d="M170.256 492.555c-4.586 3.887-9.074 6.925-13.49 9.227l-8.03-15.406c3.133-1.633 6.559-3.914 10.288-7.075l11.232 13.254zm-59.97 10.432c-.707-.23-1.385-.45-2.03-.656l5.275-16.553c.816.26 1.611.518 2.391.771 3.64 1.179 6.948 2.251 10.541 2.969l-3.406 17.037c-4.681-.936-9.117-2.379-12.771-3.568z" fill="#F8C329"/><path fill-rule="evenodd" clip-rule="evenodd" d="M171.268 480.312c3.102 3.66 2.649 9.142-1.011 12.243-12.831 10.873-24.687 14.913-35.784 15.095-9.447.155-17.829-2.583-24.074-4.624-.745-.243-1.46-.477-2.142-.695-4.571-1.456-7.096-6.343-5.639-10.914 1.456-4.571 6.343-7.095 10.914-5.639.743.237 1.473.473 2.193.705 6.494 2.095 12.091 3.901 18.463 3.796 6.555-.107 14.643-2.339 24.837-10.978 3.66-3.102 9.142-2.649 12.243 1.011z" fill="#F8C329"/><path d="M177.638 474.955l-.106 5.675 5.614.825-13.008 11.021-11.017-13.008 13.008-11.017-.11 5.675 5.619.829z" fill="#4E342E"/><path d="M170.301 493.638s-2.194-14.798-11.94-15.279l11.94 15.279z" fill="#6BB4FD"/><path d="M172.657 493.754c-.005.077-.009.155-.022.232-.012.076-.027.153-.044.227-.02.074-.042.15-.067.221-.027.074-.056.143-.088.212-.032.069-.069.138-.109.205-.039.067-.081.131-.128.192-.044.062-.094.123-.145.18-.052.057-.109.114-.166.165-.056.052-.118.101-.18.148-.061.045-.128.089-.192.128-.066.04-.135.077-.204.109-.069.032-.141.061-.212.089-.074.024-.148.046-.222.066-.074.02-.151.035-.229.047-.074.01-.153.017-.23.022-.076.005-.155.003-.231 0-.077-.005-.156-.01-.232-.022-.074-.012-.153-.027-.227-.044-.074-.02-.15-.042-.222-.069-.074-.028-.143-.055-.214-.089-.069-.032-.138-.069-.205-.109-.066-.039-.13-.081-.192-.128-.062-.044-.123-.093-.18-.145-.057-.052-.113-.106-.165-.165-.052-.057-.101-.119-.148-.18-.044-.062-.089-.126-.128-.193-.039-.064-.076-.135-.108-.204-.033-.069-.062-.141-.089-.215-.025-.071-.05-.145-.067-.221-.019-.074-.034-.151-.047-.227-.009-.077-.017-.153-.022-.229-.007-.156 0-.311.022-.464.013-.076.028-.153.045-.229.019-.074.042-.148.069-.222.024-.071.056-.143.089-.214.032-.069.069-.138.108-.202.039-.067.081-.131.128-.195.045-.062.094-.121.146-.178.051-.059.106-.113.165-.165.056-.051.118-.101.18-.148.061-.044.125-.088.192-.128.064-.039.135-.076.204-.108.069-.035.143-.062.215-.089.071-.027.145-.049.222-.069.074-.02.15-.034.226-.044.077-.01.156-.02.23-.023.079-.004.155-.004.231-.002.077.005.156.012.232.025.077.01.153.027.227.044.074.017.15.042.222.067.071.027.143.056.212.088.069.032.138.069.202.109.066.039.13.081.195.128.061.047.12.096.177.148.057.052.113.106.165.165.052.057.101.116.148.18.044.062.089.126.128.192.04.067.077.136.109.205.032.069.061.14.088.212.025.071.05.148.069.222.018.073.032.15.045.226.01.077.017.156.022.232.007.081.007.158.002.234zM169.764 490.814c-1.228.439-2.579-.202-3.015-1.432-.436-1.228.205-2.578 1.432-3.012 1.228-.439 2.578.204 3.012 1.432h.003c.106.298.148.606.135.907-.047.924-.638 1.774-1.567 2.105zm-1.77-4.937c-1.102.695-2.559.37-3.254-.732-.697-1.102-.369-2.559.732-3.256 1.102-.698 2.559-.37 3.256.732.272.426.387.904.363 1.375-.04.742-.422 1.452-1.097 1.881zm-2.837-4.466c-.752 1.064-2.223 1.318-3.288.566-1.065-.749-1.319-2.223-.57-3.288.752-1.064 2.224-1.318 3.289-.566.685.483 1.032 1.266.995 2.045-.019.434-.16.865-.426 1.243zM160.718 478.477c-.005.077-.012.156-.025.232-.012.076-.027.153-.044.227-.02.074-.042.15-.067.222-.027.074-.056.143-.088.212-.032.069-.069.138-.109.204-.039.067-.081.131-.128.192-.044.062-.094.124-.145.18-.052.057-.106.114-.166.165-.056.052-.118.102-.179.148-.062.045-.126.089-.193.129-.066.039-.135.076-.204.108-.069.032-.141.062-.212.089-.072.024-.148.049-.222.066-.074.02-.15.035-.229.047-.077.01-.153.017-.23.022-.076.005-.155.003-.231 0-.077-.005-.156-.01-.232-.022-.074-.012-.153-.027-.227-.044-.074-.02-.15-.042-.222-.069-.073-.025-.143-.054-.214-.089-.069-.032-.138-.069-.205-.108-.066-.04-.13-.082-.192-.129-.061-.044-.123-.093-.18-.145-.054-.059-.111-.113-.162-.17-.052-.057-.101-.118-.148-.18-.045-.062-.089-.128-.128-.192-.04-.064-.077-.136-.109-.205-.032-.069-.062-.14-.089-.214-.024-.072-.049-.146-.066-.222-.02-.074-.035-.15-.047-.227-.01-.076-.017-.153-.022-.229-.008-.155 0-.311.022-.464.012-.076.027-.152.044-.229.02-.074.042-.148.069-.222.025-.071.055-.143.089-.214.035-.064.072-.133.109-.197.041-.069.083-.133.13-.195.045-.062.094-.121.146-.177.051-.06.106-.114.165-.166.056-.051.118-.101.18-.147.061-.047.125-.089.192-.129.064-.039.133-.076.204-.108.069-.032.143-.062.215-.089.071-.027.145-.049.222-.069.074-.019.15-.034.227-.044.073-.01.15-.017.226-.02.079-.005.156-.007.232-.002.076.005.155.012.232.024.076.01.152.027.226.045.074.017.151.042.222.066.072.027.143.054.212.089.069.032.138.069.202.108.067.04.131.082.195.129.062.046.121.096.178.147.056.052.113.106.165.166.051.056.103.115.148.18.044.061.088.125.128.192.039.066.076.135.108.204.032.069.062.141.089.212.025.072.049.148.069.222.02.074.032.153.044.227.01.076.018.155.022.232.005.076.005.152.003.231z" fill="#6BB4FD"/><path d="M125.965 405.977l-11-14.684-3.486 14.267 14.486.417z" fill="#5E3930"/><path d="M131.558 401.038l-4.693-8.631-9.789 8.215 14.482.416zM56.5356 443.58c4.9655 0 8.9907-4.026 8.9907-8.991s-4.0252-8.991-8.9907-8.991c-4.9654 0-8.9907 4.026-8.9907 8.991s4.0253 8.991 8.9907 8.991zM31.2176 502.932c-2.9999 19.757 11.0432 35.883 12.7711 1.82l-12.7711-1.82z" fill="#5E3930"/><g opacity=".8" fill="#8053FA"><path opacity=".8" d="M88.8507 667.624c-35.0944-2.347-70.1275-5.89-105.0421-10.631 2.8639-57.532 6.27593-115.016 10.24062-172.438 23.06008 25.021 65.38658 29.709 93.30158 10.337-.057 57.558.443 115.138 1.4999 172.732z"/><path opacity=".8" d="M205.935 671.018c-39.046.347-78.101-.785-117.0858-3.394-1.0525-57.594-1.5525-115.173-1.5042-172.732 24.538 23.968 104.174 26.275 130.023 3.772-3.28 57.466-7.092 114.919-11.433 172.354z"/><path opacity=".8" d="M296.707 667.553c-30.222 2.044-60.497 3.198-90.771 3.465 4.341-57.435 8.153-114.888 11.433-172.354 26.762 20.815 55.979 19.424 80.658-3.842.087 57.558-.351 115.138-1.32 172.731z"/><path opacity=".8" d="M419.112 654.374c-40.651 6.018-81.486 10.412-122.405 13.179.969-57.593 1.408-115.168 1.316-172.726 27.897 19.573 86.017 12.762 108.708-12.741 4.654 57.365 8.781 114.801 12.381 172.288z"/></g><path d="M48.1966 883.936c-68.4127-4.667-136.7026-11.666-204.7516-20.999 7.728-126.401 16.644-252.683 26.744-378.829 43.2785 53.993 124.87467 63.132 178.9242 20.06-1.4956 126.541-1.8025 253.135-.9166 379.768z" fill="url(#paint1_linear)"/><path d="M276.462 890.848c-76.127.574-152.268-1.728-228.2633-6.912-.8859-126.633-.5789-253.227.9166-379.768 23.2618 25.345 73.2147 40.388 123.5677 41.809 50.348 1.632 101.09-10.363 125.83-34.252-6.157 126.396-13.508 252.779-22.051 379.123z" fill="url(#paint2_linear)"/><path d="M453.455 884.317c-58.935 3.908-117.962 6.088-176.994 6.531 8.543-126.348 15.894-252.727 22.051-379.127 51.383 45.997 107.797 43.383 154.741-7.171 1.259 126.541 1.329 253.139.202 379.767z" fill="url(#paint3_linear)"/><path d="M340.884 323.826c-14.653 0-26.534-11.88-26.534-26.533 0-6.144 2.092-11.793 5.596-16.293C307.973 283.566 299 294.201 299 306.941c0 14.653 11.881 26.534 26.534 26.534 8.512 0 16.082-4.013 20.937-10.241-1.803.386-3.671.592-5.587.592z" fill="#fff"/><path d="M174.272 269.73c1.816 0 3.289-1.472 3.289-3.289 0-1.817-1.473-3.289-3.289-3.289-1.817 0-3.29 1.472-3.29 3.289 0 1.817 1.473 3.289 3.29 3.289z" fill="#7000FF"/><path d="M280.408 247.363c.848 0 1.535-.687 1.535-1.535 0-.848-.687-1.535-1.535-1.535-.848 0-1.535.687-1.535 1.535 0 .848.687 1.535 1.535 1.535zM-.715 181.139c.84776 0 1.535-.687 1.535-1.535 0-.848-.68724-1.535-1.535-1.535s-1.535.687-1.535 1.535c0 .848.68724 1.535 1.535 1.535zM168.133 260.52c.847 0 1.535-.687 1.535-1.535 0-.848-.688-1.535-1.535-1.535-.848 0-1.535.687-1.535 1.535 0 .848.687 1.535 1.535 1.535zM375.139 353.059c.847 0 1.535-.687 1.535-1.535 0-.848-.688-1.535-1.535-1.535-.848 0-1.535.687-1.535 1.535 0 .848.687 1.535 1.535 1.535z" fill="#fff"/><path d="M231.724 357.444c.848 0 1.535-.687 1.535-1.535 0-.847-.687-1.535-1.535-1.535-.847 0-1.535.688-1.535 1.535 0 .848.688 1.535 1.535 1.535zM83.4881 310.956c.8478 0 1.535-.687 1.535-1.535 0-.848-.6872-1.535-1.535-1.535-.8477 0-1.535.687-1.535 1.535 0 .848.6873 1.535 1.535 1.535z" fill="#7000FF"/><path d="M48.4045 202.629c1.8166 0 3.2893-1.473 3.2893-3.289 0-1.817-1.4727-3.29-3.2893-3.29s-3.2893 1.473-3.2893 3.29c0 1.816 1.4727 3.289 3.2893 3.289z" fill="#fff"/></g></g><defs><linearGradient id="paint0_linear" x1="734.849" y1="462.724" x2="-210.412" y2="462.724" gradientUnits="userSpaceOnUse"><stop offset=".3606" stop-color="#5C01E4"/><stop offset="1" stop-color="#5C01E4" stop-opacity=".3"/></linearGradient><linearGradient id="paint1_linear" x1="-53.7191" y1="649.248" x2="-53.7191" y2="513.519" gradientUnits="userSpaceOnUse"><stop offset=".3606" stop-color="#5C01E4"/><stop offset="1" stop-color="#5C01E4" stop-opacity=".3"/></linearGradient><linearGradient id="paint2_linear" x1="173.111" y1="663.913" x2="173.111" y2="532.618" gradientUnits="userSpaceOnUse"><stop offset=".3606" stop-color="#5C01E4"/><stop offset="1" stop-color="#5C01E4" stop-opacity=".3"/></linearGradient><linearGradient id="paint3_linear" x1="365.357" y1="664.102" x2="365.357" y2="532.965" gradientUnits="userSpaceOnUse"><stop offset=".3606" stop-color="#5C01E4"/><stop offset="1" stop-color="#5C01E4" stop-opacity=".3"/></linearGradient><clipPath id="clip0"><path fill="#fff" d="M0 0h375v667H0z"/></clipPath><clipPath id="clip1"><path fill="#fff" d="M-561 155h1657v735.935H-561z"/></clipPath></defs></svg>
