<svg width="413" height="735" fill="none" xmlns="http://www.w3.org/2000/svg"><g clip-path="url(#clip0)"><path fill="#5D01E4" d="M0 0h413v734.589H0z"/><g clip-path="url(#clip1)"><path d="M547.36-56.1113H-544.545V1234.87H547.36V-56.1113z" fill="url(#paint0_radial)"/><path d="M404.105 515.197l21.148-5.033 29.237-14.588" stroke="#EF9A9A" stroke-width="7.09727" stroke-miterlimit="10" stroke-linecap="round" stroke-linejoin="round"/><path d="M486.339 533.671l-22.23-36.439-43.187-7.262-20.256-30.834M464.109 497.232l-4.268-18.666s-32.549.255-51.403-38.286M408.182 473.151l-16.243.51M394.742 494.557l30.511 15.607" stroke="#EF9A9A" stroke-width="7.09727" stroke-miterlimit="10" stroke-linecap="round" stroke-linejoin="round"/><path d="M378.755 546.731l-21.339 4.141-32.613-1.211" stroke="#4527A0" stroke-width="7.09727" stroke-miterlimit="10" stroke-linecap="round" stroke-linejoin="round"/><path d="M311.426 597.568l5.223-42.428 36.372-24.399 5.732-36.439M316.648 555.14l-3.822-18.729s29.747-13.187 31.021-56.124M312.826 536.411l5.478-64.852M303.781 492.072c-1.911 16.563 10.574 25.864 10.574 25.864M289.449 550.872c4.65-12.677-3.439-48.607-3.439-48.607 0-1.147 5.223-29.814 5.223-29.814M301.871 523.351c1.783 14.907-10.574 11.021-10.574 11.021" stroke="#4527A0" stroke-width="7.09727" stroke-miterlimit="10" stroke-linecap="round" stroke-linejoin="round"/><path d="M314.993 568.646l-49.238-34.274-13.122-52.684M245.561 508.763s2.229 10.575 16.816 12.359M357.67 510.164l15.033-6.243M378.755 524.052l-21.339 26.82M257.92 503.985l14.141-25.864M332.509 476.209l-16.37 20.514M265.754 534.372l-23.377.51" stroke="#4527A0" stroke-width="7.09727" stroke-miterlimit="10" stroke-linecap="round" stroke-linejoin="round"/><path d="M627.86 379.51c-2.166.701-4.141 1.465-5.988 2.357-1.847.892-3.567 1.784-5.159 2.867-3.058 2.102-5.606 4.523-7.517 7.39-.509.701-.892 1.465-1.337 2.23-.446.764-.828 1.528-1.147 2.357-.701 1.656-1.21 3.376-1.592 5.223-.383 1.848-.701 3.759-.765 5.861-.127 2.039-.063 4.269.064 6.562.573 9.173-1.72 16.946-6.688 22.488-1.21 1.401-2.612 2.675-4.077 3.822-1.529 1.083-3.248 2.102-5.032 2.931-3.567 1.656-7.835 2.675-12.421 3.057-1.147.064-2.293.255-3.376.383-1.083.127-2.166.318-3.185.573-2.102.446-4.013 1.019-5.796 1.72-1.784.701-3.568 1.465-5.096 2.421-1.593.955-2.994 2.038-4.332 3.249-1.337 1.21-2.548 2.548-3.694 4.013-1.083 1.466-2.039 3.122-2.93 4.842-.892 1.72-1.656 3.631-2.293 5.67-.319 1.019-.574 2.102-.828 3.185-.255 1.083-.51 2.166-.701 3.376-3.313 18.539-16.753 28.54-35.607 26.438-18.791-2.039-31.339 5.606-38.219 23.38-6.879 17.774-21.912 25.291-40.384 20.194-2.293-.637-4.523-1.083-6.688-1.401-2.166-.319-4.268-.446-6.306-.382-2.039.063-3.95.254-5.861.637-1.91.382-3.694.891-5.478 1.592-3.439 1.465-6.752 3.504-9.745 6.243-2.994 2.74-5.669 6.243-8.154 10.448-.637 1.019-1.21 2.039-1.911 2.994-.636.956-1.337 1.848-2.038 2.676-1.401 1.72-2.93 3.185-4.522 4.587-3.185 2.675-6.625 4.714-10.383 5.988-.956.318-1.911.573-2.867.764-.955.191-1.974.319-2.93.446-1.974.191-4.013.255-6.115.064-4.14-.319-8.471-1.338-12.93-3.185-4.459-1.911-8.727-3.122-12.867-3.568-2.038-.255-4.077-.255-5.988-.127-1.974.127-3.822.509-5.733.955-3.758.892-7.325 2.549-10.701 4.969-1.656 1.211-3.312 2.612-4.905 4.141-.764.765-1.592 1.593-2.356 2.485-.765.828-1.529 1.72-2.293 2.675-2.994 3.759-6.307 6.817-9.81 9.174-3.503 2.293-7.261 3.95-11.147 4.65-3.886.765-7.962.701-12.103-.063-2.102-.383-4.14-.956-6.242-1.72-2.102-.829-4.268-1.848-6.37-2.995-4.267-2.42-8.408-4.013-12.484-4.905-2.039-.446-4.013-.701-6.052-.764-1.974-.128-3.949 0-5.924.255-7.771 1.083-15.096 5.287-21.975 12.104-3.44 3.44-7.071 6.179-10.829 8.154-.955.509-1.911.955-2.866 1.338-.956.382-1.911.7-2.93 1.019-1.975.573-3.95.955-5.924 1.147-4.013.382-8.09 0-12.166-1.147-4.077-1.147-8.217-3.185-12.294-5.988-4.077-2.74-8.09-4.778-12.103-5.989-4.013-1.274-8.026-1.847-12.038-1.656-3.95.191-7.899 1.21-11.785 2.93-3.885 1.657-7.707 4.078-11.465 7.263-3.758 3.185-7.644 5.606-11.593 7.262-3.9494 1.593-8.0261 2.421-12.0391 2.485-2.0383.063-4.0766-.128-6.0513-.446-2.0383-.319-4.0129-.892-6.0512-1.657-4.013-1.529-8.0258-3.822-11.8477-6.88-4.0129-3.185-8.0896-5.478-12.1663-7.071-2.0383-.764-4.0766-1.338-6.1787-1.72-2.0383-.382-4.1403-.573-6.1786-.573-4.1403-.192-8.2807.382-12.421 1.783-4.1404 1.402-8.2808 3.568-12.3575 6.562-15.797 11.531-32.8679 10.384-46.754-3.249-13.8861-13.569-29.2373-15.544-45.7987-5.797-4.1404 2.484-8.2806 4.013-12.3573 4.905-4.0767.828-8.026.828-11.8476.127-7.644-1.528-14.651-6.115-20.256-13.823-1.401-1.912-2.866-3.632-4.395-5.161-1.465-1.592-3.058-2.93-4.65-4.14-.765-.574-1.592-1.147-2.421-1.657-.828-.509-1.656-1.019-2.484-1.401-1.656-.892-3.376-1.529-5.159-2.039-1.784-.509-3.567-.892-5.415-1.019-1.847-.191-3.821-.128-5.732.064-3.886.318-8.09 1.465-12.421 3.121-2.166.892-4.332 1.529-6.434 2.039-2.102.446-4.14.7-6.179.764-4.013.191-7.771-.51-11.274-1.911-1.784-.637-3.376-1.593-4.968-2.676-1.529-1.083-3.058-2.293-4.396-3.758-1.337-1.465-2.611-3.058-3.758-4.842-.573-.892-1.146-1.784-1.656-2.803s-1.019-2.038-1.465-3.058c-.892-2.102-1.911-4.077-2.93-5.861-1.083-1.783-2.166-3.44-3.376-4.905-2.421-2.93-5.032-5.287-8.09-6.944-1.528-.828-3.057-1.529-4.777-2.038-1.656-.574-3.44-.892-5.351-1.147-3.694-.51-7.771-.382-12.293.382-8.982 1.338-16.88-.318-22.677-4.778-.764-.573-1.465-1.146-2.102-1.72-.7-.637-1.337-1.274-1.911-1.975-1.21-1.465-2.229-3.057-3.185-4.777-.955-1.721-1.719-3.568-2.356-5.543-.637-1.975-1.083-4.204-1.338-6.498-2.42-18.219-12.039-27.584-30.447-29.814-4.587-.573-8.663-1.847-12.23-3.567-.892-.446-1.784-.892-2.548-1.465-.828-.51-1.593-1.084-2.293-1.721-1.465-1.21-2.803-2.548-4.013-4.013-2.421-2.867-4.013-6.371-5.096-10.257-.51-1.911-.892-3.949-1.019-6.115-.128-2.166-.128-4.396.127-6.753 1.656-18.666-5.988-30.642-23.759-37.076-4.395-1.657-8.281-3.759-11.402-6.307-3.121-2.612-5.605-5.67-7.389-9.11-1.72-3.44-2.803-7.262-3.121-11.34-.319-4.14.127-8.536 1.337-13.187 1.211-4.65 1.784-9.046 1.593-13.059-.064-2.039-.319-4.014-.701-5.925-.382-1.911-1.019-3.758-1.72-5.542-.382-.892-.828-1.72-1.274-2.612-.445-.828-.955-1.72-1.528-2.484-1.083-1.657-2.357-3.186-3.758-4.715-2.867-2.93-6.37-5.733-10.638-8.09-16.88-9.683-22.74-25.801-16.179-44.466 3.248-9.301 3.631-17.965 1.083-25.737-2.548-7.772-7.962-14.653-16.179-20.386l-12.676-8.919-12.676-8.982-95.674 30.069c9.236 29.75 18.663 60.265 29.492 91.162 10.892 30.897 23.25 62.112 38.219 92.946l5.732 11.53c1.975 3.823 4.013 7.645 5.988 11.467.509.956 1.019 1.911 1.529 2.867l1.592 2.867 3.185 5.733c2.102 3.823 4.331 7.581 6.561 11.34 8.917 15.034 18.536 29.814 29.046 44.084 10.51 14.27 21.785 28.157 33.823 41.472l4.587 4.969c1.528 1.656 3.057 3.313 4.65 4.905l9.491 9.62 9.873 9.364c.828.765 1.656 1.593 2.484 2.294l2.548 2.229 5.096 4.523c1.719 1.466 3.376 2.995 5.159 4.46l5.287 4.332c3.567 2.867 7.07 5.797 10.765 8.473l5.478 4.14 2.739 2.039 1.401 1.019 1.402.956 11.338 7.836c.955.637 1.911 1.274 2.866 1.911l2.93 1.847 5.797 3.695c3.885 2.485 7.835 4.778 11.784 7.071 1.975 1.147 3.949 2.294 5.987 3.377l5.988 3.312c2.038 1.083 4.013 2.103 6.051 3.122 2.039 1.019 4.013 2.102 6.052 3.122 32.485 16.117 66.054 28.157 99.623 37.012 16.816 4.46 33.632 8.218 50.448 11.34 16.8165 3.121 33.5691 5.606 50.2578 7.644 33.3776 4.014 66.50034 6.18 99.3047 7.008 4.0766.064 8.2169.127 12.2936.191l6.1149.064h6.115l12.2299-.064h6.1151l6.1149-.127c16.3071-.255 32.6771-.829 48.9841-1.657 32.74-1.72 65.544-4.65 98.285-9.046 32.804-4.395 65.545-10.32 98.158-18.092 32.55-7.772 64.972-17.328 96.757-29.05l11.911-4.586 5.924-2.294 2.994-1.147 2.994-1.21c7.898-3.249 15.797-6.625 23.632-10.129 15.606-7.071 31.02-14.652 46.117-22.934 30.256-16.5 59.366-35.356 86.883-57.016 13.759-10.83 27.072-22.297 39.875-34.528 12.803-12.232 25.097-25.164 36.626-38.988 23.122-27.521 43.506-58.163 59.43-91.735l-90.514-43.193c-2.23.956-4.459 1.912-6.689 2.803-2.229.892-4.395 1.784-6.624 2.676-4.841 1.465-9.173 3.122-13.631 4.523z" fill="#094C26"/><path d="M774.061 620.884c-34.333-11.276-71.533-11.276-105.866 0s-71.532 11.276-105.865 0-71.533-11.276-105.866 0-71.532 11.276-105.865 0-71.533-11.276-105.866 0-71.532 11.276-105.865 0-71.5326-11.276-105.8657 0c-34.33299 11.276-71.5326 11.276-105.8656 0-34.3327-11.276-71.5327-11.276-105.8657 0s-71.532 11.276-105.865 0-71.533-11.276-105.866 0-71.532 11.276-105.865 0c-7.644-2.485-15.479-4.459-23.314-5.861v118.619l1346.696-2.675v-92.691l-52.996-17.392z" fill="#27632A"/><path d="M-26.0468 652.418l19.10936-12.423c7.32527-4.777 17.19854-1.146 19.68274 7.199 1.1466 3.822.5095 7.963-1.8473 11.276l-12.16623 17.391c-4.14037 5.925-12.42117 7.39-18.34507 3.122l-6.943-4.969c-7.4527-5.351-7.198-16.563.5095-21.596z" fill="#219750"/><path d="M13.3181 715.359l21.4661-7.772c8.217-2.994 11.2745-12.996 6.0513-20.067-2.3568-3.249-6.1149-5.161-10.0641-5.352l-21.21138-.764c-7.26154-.255-13.31285 5.478-13.56764 12.741l-.25473 8.536c-.25479 9.238 8.85388 15.799 17.58045 12.678z" fill="#7CB342"/><path d="M-30.058 580.431l-50.3211 15.162c-5.6054 1.72-9.9369 6.179-11.3382 11.913l-6.5609 25.864c-1.1466 4.523-4.1408 8.345-8.2168 10.575l-35.034 19.112c-4.331 2.357-7.453 6.561-8.408 11.403-2.675 13.442-7.516 44.657-5.351 44.657H30.9007c1.7835 0-4.1404-52.811-5.9239-56.06-1.0829-2.039-22.61271-13.824-38.5371-22.361-8.9814-4.841-11.5931-16.499-5.4781-24.654l7.1343-9.619c4.5862-6.18 4.39508-14.652-.5096-20.577-4.2678-5.288-11.2108-7.39-17.6443-5.415z" fill="#219750"/><path d="M3.50995 625.407c0-1.21-1.71983-2.293-4.45883-2.994 1.84723-2.803 2.54781-5.16 1.65604-6.052-.89177-.892-3.18476-.191-5.92376 1.592-.70067-3.185-1.84732-5.287-3.12128-5.287-1.27395 0-2.42042 2.102-3.12112 5.287-2.739-1.783-5.0321-2.484-5.9239-1.592-.8918.892-.191 3.249 1.6562 6.052-2.739.701-4.4588 1.784-4.4588 2.994 0 1.21 1.7198 2.293 4.4588 2.994-1.8472 2.803-2.548 5.16-1.6562 6.052.8918.892 3.1849.191 5.9239-1.592.7007 3.185 1.84717 5.287 3.12112 5.287 1.27396 0 2.42061-2.102 3.12128-5.287 2.739 1.783 5.032 2.484 5.92376 1.592.89177-.892.19119-3.249-1.65604-6.052 2.739-.701 4.45883-1.784 4.45883-2.994z" fill="#FCE68D"/><path d="M22.6193 644.391c0-1.21-1.7198-2.293-4.4588-2.994 1.8472-2.803 2.5478-5.16 1.656-6.052-.8917-.892-3.1847-.191-5.9237 1.593-.7007-3.186-1.8473-5.288-3.1213-5.288-1.27395 0-2.42045 2.102-3.12112 5.288-2.739-1.784-5.03215-2.485-5.92392-1.593-.89176.892-.19103 3.249 1.6562 6.052-2.739.701-4.45883 1.784-4.45883 2.994 0 1.211 1.71984 2.294 4.45883 2.994-1.84723 2.803-2.54796 5.16-1.6562 6.052.89177.892 3.18492.191 5.92392-1.592.70067 3.185 1.84717 5.287 3.12112 5.287 1.274 0 2.4206-2.102 3.1213-5.287 2.739 1.783 5.032 2.484 5.9237 1.592.8918-.892.1912-3.249-1.656-6.052 2.6753-.7 4.4588-1.783 4.4588-2.994z" fill="#EF9A9A"/><path d="M37.6525 674.779c0-1.211-1.7198-2.294-4.4588-2.995 1.8472-2.803 2.548-5.16 1.6562-6.052-.8918-.891-3.1849-.191-5.9239 1.593-.7007-3.185-1.8472-5.288-3.1211-5.288-1.274 0-2.4206 2.103-3.1213 5.288-2.739-1.784-5.032-2.484-5.9238-1.593-.8917.892-.1912 3.249 1.6561 6.052-2.739.701-4.4589 1.784-4.4589 2.995 0 1.21 1.7199 2.293 4.4589 2.994-1.8473 2.803-2.5478 5.16-1.6561 6.052.8918.892 3.1848.191 5.9238-1.593.7007 3.185 1.8473 5.288 3.1213 5.288 1.2739 0 2.4204-2.103 3.1211-5.288 2.739 1.784 5.0321 2.485 5.9239 1.593.8918-.892.191-3.249-1.6562-6.052 2.739-.701 4.4588-1.784 4.4588-2.994z" fill="#C5E1A5"/><path d="M774.061 656.623c-34.333-11.276-71.533-11.276-105.866 0-34.333 11.275-71.532 11.275-105.865 0-34.333-11.276-71.533-11.276-105.866 0-34.333 11.275-71.532 11.275-105.865 0-34.333-11.276-71.533-11.276-105.866 0-34.333 11.275-71.532 11.275-105.865 0-34.333-11.276-71.5326-11.276-105.8657 0-34.33299 11.275-71.5326 11.275-105.8656 0-34.3327-11.276-71.5327-11.276-105.8657 0-34.333 11.275-71.532 11.275-105.865 0-34.333-11.276-71.533-11.276-105.866 0-34.333 11.275-71.532 11.275-105.865 0-7.644-2.485-15.479-4.46-23.314-5.861v118.555l1346.696-2.675v-92.691l-52.996-17.328z" fill="#2E7D32"/><path d="M274.417 670.064c0 3.759-16.306 6.817-36.498 6.817-20.129 0-36.499-3.058-36.499-6.817 0-3.758 16.307-6.816 36.499-6.816 20.192-.064 36.498 2.994 36.498 6.816zM258.746 689.24c0 .382-1.783.637-4.012.637-2.23 0-4.013-.319-4.013-.637 0-.382 1.783-2.294 4.013-2.294 2.229 0 4.012 1.912 4.012 2.294zM300.852 694.018c0 .382-1.783.637-4.013.637-2.229 0-4.013-.319-4.013-.637 0-.383 1.784-2.294 4.013-2.294 2.23 0 4.013 1.911 4.013 2.294zM314.993 674.779c0 .828-4.204 1.529-9.364 1.529-5.159 0-9.363-.701-9.363-1.529s4.204-5.415 9.363-5.415c5.16 0 9.364 4.587 9.364 5.415zM199.508 707.268c0 .701-3.439 1.274-7.707 1.274s-7.707-.573-7.707-1.274c0-.701 3.439-4.395 7.707-4.395s7.707 3.694 7.707 4.395z" fill="#388E3C"/><path d="M53.8937 707.459c-.4459 2.867-12.1026 7.645-26.2435 10.002-14.1409 2.357-25.41533 1.465-24.96945-1.338.44589-2.803 12.35745-6.498 26.49835-8.919 14.1409-2.42 25.1605-2.611 24.7146.255z" fill="#2AAF4B"/><path d="M47.5878 708.797c-.1911 1.21-8.854 3.95-19.4915 5.734-10.6376 1.783-19.17292 1.911-18.98182.764.19109-1.21 8.98122-3.313 19.61872-5.16 10.6376-1.784 19.0457-2.612 18.8546-1.338z" fill="#4527A0"/><path d="M410.543 708.13c22.74-20.704 35.925-91.735 35.925-91.735 17.645-5.606 35.289-11.849 52.869-18.857 0 .064 29.683 45.422 58.475 55.169-48.474 24.08-97.903 42.555-147.269 55.423z" fill="#388E3C"/><path d="M276.455 819.835c46.754-27.902 78.284-142.253 78.284-142.062 35.99-7.517 72.106-17.965 108.032-31.471-.064.064 57.073 70.968 113.636 77.211-97.903 55.424-200.584 87.531-299.952 96.322z" fill="#2E7D32"/><path d="M462.643 647.576c.892 5.543-22.421 19.494-52.232 28.222-29.811 8.791-54.653 8.919-55.545 3.121-.891-5.797 22.486-15.161 52.296-23.762 29.747-8.536 54.589-13.25 55.481-7.581z" fill="#2AAF4B"/><path d="M449.204 652.482c.382 2.42-17.39 10.957-39.684 17.455-22.358 6.562-40.767 8.536-41.149 6.116-.382-2.485 17.39-8.41 39.748-14.907 22.294-6.498 40.702-11.085 41.085-8.664z" fill="#4527A0"/><path d="M162.269 599.436l-3.95 6.371-24.332 3.567-7.708-15.225 4.204-6.371 26.435-7.453 5.351 19.111z" fill="#E2632D"/><path d="M158.255 605.743l-26.498 7.454-5.351-19.112 26.498-7.454 5.351 19.112z" fill="#FC7E54"/><path d="M154.01 584.838c1.918-2.202 3.257-4.175 2.991-4.406-.265-.231-2.034 1.367-3.951 3.57-1.918 2.202-3.257 4.175-2.991 4.406.265.231 2.034-1.367 3.951-3.57z" fill="#C73A07"/><path d="M143.796 583.765c-.191 1.529-.7 2.93-1.337 4.268-.319.701-.701 1.338-1.083 1.975s-.828 1.274-1.274 1.847l.637-2.23c.764 1.721 1.465 3.377 2.102 5.097l1.911 5.16c.573 1.72 1.147 3.504 1.656 5.351.127.446.255.892.382 1.402.128.446.255.955.319 1.401 0 .255.064.574.318.765.128.127.255.191.446.191s.446-.064.637-.191c0 .255-.127.509-.382.764-.191.255-.573.382-.956.446-.764.064-1.465-.255-1.974-.828-.764-.764-1.465-1.401-2.102-2.23-1.274-1.529-2.357-3.185-3.312-4.905-.956-1.72-1.72-3.567-2.294-5.415-.637-1.847-1.019-3.822-1.273-5.733l-.192-1.657.828-.573 3.313-2.293c1.21-.956 2.356-1.784 3.63-2.612z" fill="#E2632D"/><path d="M145.199 583.573c-.191.701-.446 1.402-.701 2.039-.255.637-.637 1.338-.956 1.911-.7 1.274-1.592 2.421-2.548 3.568l.446-1.529 3.95 10.384c.637 1.72 1.337 3.504 1.974 5.224.319.891.637 1.783.956 2.675.063.319.255.637.573.765.127.063.319.127.51.063.191 0 .382-.127.573-.318-.064.255-.191.509-.382.701-.191.191-.51.318-.828.318-.637 0-1.274-.318-1.656-.828-.701-.765-1.274-1.465-1.848-2.293-1.146-1.593-2.166-3.249-3.057-4.969-1.72-3.441-2.994-7.199-3.631-11.021l-.191-1.02.573-.446c1.083-.828 2.102-1.656 3.121-2.548l3.122-2.676zM146.727 585.931c2.165-.574 4.395-.892 6.624-1.147.573-.064 1.274-.191 2.102.191.382.191.828.446 1.019.828.255.319.446.637.573.956.128.318.191.573.319.828l.255.764.509 1.593c.637 2.102 1.21 4.268 1.593 6.498.382 2.166.7 4.396.764 6.689-.955-2.039-1.72-4.141-2.42-6.243-.701-2.102-1.402-4.205-2.039-6.307l-.955-3.121c-.064-.192-.128-.383-.191-.51-.064-.127-.128-.191-.255-.255-.191-.127-.637-.191-1.21-.191-2.23-.127-4.459-.255-6.688-.573z" fill="#1A844B"/><path d="M140.802 581.089c.828.446 1.529.892 2.166 1.21.637.319 1.21.51 1.528.446.191 0 .255-.063.255-.191 0 0 .064-.063.064-.127l.063-.064h-.254c-.255.064-.51.191-.637.319-.128.127-.191.191-.255.255-.064.063-.064.127-.064.191v.191s0-.128-.063-.382c-.064-.255-.192-.638-.255-1.147-.191-1.083-.128-2.166.191-3.122.573-1.911 2.165-3.503 4.076-3.631-.191 1.848 0 3.058.319 4.077.191.51.382.892.573 1.211.128.191.255.509.446.892.191.445.319 1.019.382 1.72v.637c0 .191-.063.445-.063.637-.064.446-.255.828-.446 1.21s-.51.828-.892 1.147c-.382.382-.956.7-1.529.892-.127.063-.318.063-.446.127h-.892c-.318 0-.7-.064-1.019-.191-.7-.191-1.274-.573-1.719-.956-.892-.828-1.274-1.783-1.466-2.675-.382-.892-.382-1.72-.063-2.676zM140.866 586.568c-.955.828-2.038 1.465-3.057 1.975-1.083.573-2.166 1.019-3.313 1.401-1.146.382-2.293.701-3.439.956-1.211.254-2.357.382-3.631.382.955-.828 2.038-1.465 3.057-1.975 1.083-.573 2.166-1.019 3.313-1.402 1.146-.382 2.293-.7 3.439-.955 1.147-.255 2.357-.446 3.631-.382z" fill="#1A844B"/><path d="M439.516 553.064l-68.733-8.938 8.014-5.583 4.931-3.435 7-4.877 68.857 8.792-6.199 4.337-5.239 3.666-8.631 6.038z" fill="#F73"/><path d="M400.988 548.054l8.63 1.122 15.538-14.549-6.907-.672-17.261 14.099z" fill="#5CB45F"/><path d="M378.797 538.543l4.931-3.435 69.658 8.252-5.24 3.666-69.349-8.483z" fill="#5CB45F"/><path fill="#7A037E" d="M259.855 581.715l112.5214-34.6647 31.87922 103.47975-112.5214 34.6647z"/><path fill="#1A844B" d="M308.078 566.859l12.05586-3.71407 31.87922 103.47974-12.05587 3.71408z"/><path d="M266.009 552.32l84.738-26.106 21.629 20.837-112.521 34.665 6.154-29.396z" fill="#8F0093"/><path d="M358.859 534.027l2.703 2.605 2.704 2.605-102.103 31.455.769-3.675.769-3.674 95.158-29.316z" fill="#5CB45F"/><path d="M301.83 541.284l9.079-2.797 9.226 24.658-12.056 3.714-6.249-25.575z" fill="#5CB45F"/><path d="M243.448 500.504c1.955-.656 4.094-.753 6.205-.55 2.111.204 4.241.814 6.29 1.748 4.114 1.829 7.671 5.082 10.199 8.909.651.965 1.21 1.938 1.753 2.949.292.513.505.996.743 1.532l.166.376.095.215c.024.053.071.16.071.16.086.123.134.23.22.353.268.459.565.842.839 1.171.289.29.593.542.873.74.561.396 1.267.761 2.291 1.117 1.023.355 2.324.686 3.88.938 1.54.291 3.227.551 5.083.833.929.14 1.881.335 2.848.491.991.209 1.982.419 3.051.659 2.083.503 4.276 1.182 6.504 2.23 2.228 1.048 4.476 2.503 6.373 4.398 3.6 3.714 5.427 8.421 5.812 12.699.224 2.173.138 4.225-.119 6.255-.256 2.03-.73 3.93-1.366 5.901-1.115-1.723-2.084-3.477-3.02-5.085-.975-1.624-1.888-3.178-2.891-4.502-.987-1.362-2.011-2.517-3.072-3.463-.53-.474-1.091-.87-1.612-1.252-.28-.198-.576-.357-.817-.54l-.435-.259-.373-.19c-.978-.471-2.071-.765-3.294-1.065-1.278-.277-2.678-.469-4.278-.606-.774-.081-1.625-.191-2.506-.225l-2.675-.246c-1.848-.189-3.851-.439-5.98-.827-2.113-.426-4.444-.982-6.881-2.067-2.398-1.07-4.98-2.7-6.989-4.993-1.001-1.101-1.887-2.379-2.55-3.659-.662-1.279-1.178-2.59-1.539-3.841-.104-.306-.153-.636-.257-.943-.009-.092-.048-.108-.017-.185l-.033-.145-.026-.277c-.074-.384-.108-.752-.197-1.097-.123-.714-.325-1.458-.502-2.149-.771-2.831-1.928-5.59-3.818-8.192-.949-1.347-2.074-2.586-3.385-3.808-1.427-1.267-2.899-2.419-4.664-3.508z" fill="#6AC86E"/><path d="M243.564 500.211c1.909-.194 3.859.077 5.758.595 1.898.518 3.745 1.284 5.485 2.321 3.481 2.075 6.328 5.199 8.391 8.731.509.87.95 1.801 1.39 2.733.228.447.387.956.561 1.426l.269.686.236.539c.614 1.403 1.397 2.602 2.379 3.522.982.92 2.171 1.653 3.606 2.213 1.435.561 3.023.958 4.734 1.269 1.711.311 3.492.559 5.35.838 1.858.279 3.754.573 5.698.975 1.929.44 3.921.95 5.868 1.8 1.948.85 3.882 1.964 5.518 3.497.203.168.39.375.577.583l.538.567c.336.4.672.799.992 1.237.657.837 1.205 1.722 1.7 2.63.494.909.919 1.88 1.267 2.82.333.979.627 1.943.828 2.916.441 1.96.635 3.868.681 5.808.062 1.902-.007 3.796-.131 5.715-.633-1.812-1.174-3.632-1.76-5.336-.609-1.758-1.249-3.438-2.012-5.033-.37-.77-.778-1.555-1.256-2.278-.439-.708-.916-1.431-1.424-2.076-.508-.645-1.07-1.267-1.662-1.811-.288-.292-.592-.544-.895-.797l-.483-.367-.443-.352c-1.237-.841-2.665-1.533-4.184-1.992-1.558-.475-3.2-.848-4.903-1.066-1.727-.272-3.522-.482-5.372-.668-1.834-.225-3.761-.442-5.72-.805-1.944-.401-3.989-.887-6.014-1.768-2.026-.881-4.031-2.156-5.669-3.913-1.599-1.742-2.745-3.843-3.389-5.972l-.39-1.404c-.111-.401-.223-.802-.373-1.218-.262-.818-.539-1.596-.855-2.39-1.278-3.137-3.095-6.037-5.597-8.444-2.572-2.569-5.689-4.547-9.294-5.731z" fill="#1A844B"/><path d="M307.657 471.763c-.185 1.355-.202 2.687-.127 3.971.075 1.283.296 2.567.609 3.803.626 2.472 1.734 4.678 3.149 6.595 1.465 1.917 3.188 3.544 5.155 4.953.239.17.478.341.744.535l.369.243c.027.024.082.073.136.121l.163.146.321.243c.858.68 1.717 1.578 2.48 2.694.762 1.116 1.309 2.474 1.536 3.806.127.679.178 1.333.153 1.962-.025.63-.077 1.235-.162 1.768-.453 2.202-1.314 3.823-2.204 5.201-.91 1.402-1.925 2.538-2.973 3.601-2.073 2.101-4.289 3.815-6.619 5.383-.589.386-1.179.772-1.746 1.134l-.914.531-.227.144-.043.049.021-.024h.049c.07-.024.113-.073.184-.097.227-.144.47-.362.642-.773.075-.194.145-.436.16-.726.016-.073.01-.121.005-.17-.006-.048-.011-.096.01-.121-.005-.048-.011-.097.011-.121-.006-.048-.006-.048-.012-.097-.055-.266-.06-.315 0-.218.027.025.032.073.06.097.027.025.06.097.087.122.087.121.168.194.31.364.087.121.25.267.392.437.163.145.304.315.494.485.191.17.354.316.544.486l.299.267.32.243.859.68.538.438.543.485c.707.632 1.425 1.36 2.121 2.112.675.777 1.355 1.602 1.981 2.597.621.946 1.183 2.012 1.632 3.152.448 1.139.761 2.375.906 3.635.146 1.259.117 2.494-.068 3.632-.393 2.3-1.319 4.21-2.386 5.733-.545.774-1.149 1.451-1.781 2.103-.33.314-.638.604-.994.893-.335.266-.735.604-1.097.845-.725.483-1.314.869-1.887 1.182-.546.338-1.028.603-1.509.868-.865.531-1.541 1.013-1.935 1.4-.416.411-.653.676-.82 1.136-2.283 6.308-6.328 16.466-9.994 1.065-.187-.994-.31-2.059-.265-3.149.045-1.09.236-2.179.607-3.195.348-.992.822-1.96 1.361-2.782 1.078-1.644 2.352-2.851 3.557-3.817.579-.483 1.162-.917 1.654-1.304.492-.386.962-.748 1.248-1.014.157-.12.195-.217.346-.386.129-.145.259-.29.388-.435.232-.314.443-.604.583-.871.323-.58.435-1.088.428-1.355-.012-.314-.072-.411-.175-.678-.104-.267-.453-.752-.959-1.334-.277-.292-.555-.583-.908-.899l-.272-.243-.293-.218-.804-.632-.511-.413-.516-.461c-.326-.292-.68-.607-1.033-.923-.353-.316-.712-.68-1.044-1.02-.337-.388-.696-.752-1.012-1.165-.337-.388-.686-.873-1.007-1.334l-.501-.752c-.174-.243-.333-.558-.485-.825-.616-1.115-1.212-2.473-1.494-4.072-.022-.194-.072-.412-.094-.606-.022-.193-.023-.411-.045-.605-.023-.194-.023-.412-.024-.63-.001-.218-.023-.412.025-.629.04-.921.253-1.816.576-2.614.617-1.621 1.643-2.878 2.875-3.819.313-.242.632-.435.951-.628l.254-.12.114-.073.07-.024.184-.096.785-.385c.53-.266 1.06-.531 1.563-.82 2.066-1.109 4.023-2.315 5.731-3.57.854-.627 1.632-1.279 2.242-1.907.61-.628 1.074-1.257 1.285-1.547.064-.072.08-.145.129-.145.022-.024.071-.024.092-.048.049 0 .076.024.098 0 .048 0 .07-.024.064-.072.038-.097-.033-.291-.213-.582l-.087-.121-.054-.049c-.028-.024-.028-.024-.082-.073l-.44-.437c-.278-.291-.582-.607-.86-.898-2.208-2.451-4.098-5.314-5.252-8.344-1.181-3.054-1.599-6.252-1.224-9.132.174-1.453.527-2.833 1.015-4.091.467-1.451 1.086-2.637 1.944-3.651z" fill="#6AC86E"/><path d="M307.421 470.769c-.382 1.277-.607 2.604-.675 3.981-.097 1.352-.042 2.705.137 4.033.357 2.656 1.285 5.239 2.688 7.572 1.404 2.333 3.278 4.366 5.346 6.125.253.226.529.427.782.653l.416.327.522.377c.675.603 1.361 1.306 1.891 2.184.552.853.92 1.856 1.086 2.858.166 1.003.102 1.979-.08 2.806-.381 1.727-1.155 3.103-2.025 4.303-.87 1.2-1.859 2.25-2.881 3.224-2.045 1.949-4.281 3.546-6.579 5.043-.588.375-1.153.724-1.768 1.073l-.901.499-.212.125-.073.024-.022.025-.023.025c-.044.05-.117.075-.162.125-.184.15-.312.35-.368.525-.016.075-.033.151-.021.251.011.1.001.225.04.351.114.551.594 1.429 1.325 2.307.732.879 1.716 1.758 2.716 2.562l.888.704c.332.251.641.527.95.804.619.552 1.243 1.155 1.851 1.833.579.653 1.165 1.355 1.661 2.158.518.778.941 1.606 1.298 2.508.684 1.781.965 3.785.669 5.588-.274 1.778-.975 3.354-1.884 4.654-.451.675-.965 1.25-1.507 1.8-.246.275-.542.55-.844.774-.273.25-.62.525-.922.75-1.235.873-2.349 1.497-3.349 2.221-1.007.673-1.856 1.398-2.476 2.148-.642.775-.292-.926-1.19 2.577-.898 3.502-4.656-1.014-4.656-1.014s.23-1.728.541-2.529c.311-.8.678-1.551 1.13-2.226.931-1.325 2.071-2.374 3.206-3.248 1.134-.874 2.258-1.623 3.136-2.322.391-.325.777-.7 1.156-1.124.358-.4.687-.825.937-1.276.53-.875.902-1.801 1.028-2.677.126-.877-.023-1.729-.379-2.631-.175-.427-.429-.878-.733-1.33-.305-.451-.659-.903-1.036-1.33-.405-.452-.833-.879-1.305-1.256-.225-.201-.478-.427-.725-.603l-.86-.678c-1.253-1.03-2.49-2.135-3.633-3.516-.557-.678-1.148-1.431-1.628-2.309-.479-.877-.92-1.855-1.097-2.958-.114-.551-.156-1.128-.096-1.704.032-.601.164-1.202.381-1.727.405-1.076 1.086-1.951 1.919-2.6.207-.175.419-.3.654-.45l.19-.099.14-.1.213-.125.856-.449c.57-.299 1.113-.623 1.683-.922 1.114-.624 2.171-1.297 3.222-2.021 1.029-.699 2.029-1.423 2.974-2.197.945-.774 1.805-1.624 2.514-2.474.731-.874 1.305-1.8 1.582-2.676.277-.876.241-1.627-.126-2.405-.198-.401-.496-.803-.895-1.204l-.315-.327-.45-.402c-.281-.251-.568-.552-.827-.828-2.199-2.235-4.114-4.845-5.396-7.654-1.282-2.808-1.909-5.841-1.835-8.696.181-2.805.878-5.509 2.226-7.81z" fill="#1A844B"/><path d="M305.519 555.024s26.11 2.728 29.083-3.874l-3.097-18.334s-2.674-2.779-8.706-1.306c-7.992 1.918-16.867 12.863-16.867 12.863l-.413 10.651z" fill="#6AC86E"/><path d="M334.602 551.15s-3.718-4.204-10.696-1.228c-2.533 1.069-5.164 2.097-7.639 2.882 3.198-14.491 11.864-21.533 11.872-21.573 2.304.453 3.39 1.568 3.39 1.568l3.073 18.351z" fill="#6AC86E"/><path d="M334.604 551.149c-2.989 6.577-29.083 3.874-29.083 3.874l.058-1.41c3.828 1.808 11.391-.708 18.354-3.708 6.954-2.959 10.671 1.244 10.671 1.244zM285.856 547.068c-6.791.213-6.57 4.184-6.57 4.184 8.907 4.764 27.963-8.836 27.963-8.836-10.539 5.318-14.601 4.439-21.393 4.652z" fill="#1A844B"/><path d="M286.682 552.013l2.537 17.964c1.362-.123 2.742-.538 4.123-1.166 3.753-4.723 9.952-13.8 13.478-25.868l.49-.217-.022-.302c-.016-.025-11.353 8.036-20.606 9.589z" fill="#6AC86E"/><path d="M286.681 552.013c-2.766.448-5.333.344-7.397-.761 0 0 4.224 10.907 5.318 14.867 1.069 3.976 4.02 3.863 4.02 3.863.196-.024.408-.022.604-.046l-2.545-17.923zM293.343 568.811c7.331-3.349 14.345-12.364 14.345-12.364l-.424-14.007-.475.348c-3.542 12.043-9.693 21.3-13.446 26.023z" fill="#6AC86E"/><path d="M332.729 539.857c-.593-.313-1.285-.562-1.952-.72-1.352-.343-2.753-.44-4.139-.408-1.728.047-3.417.315-5.107.688-.979.223-1.951.51-2.923.798-.637.208-1.258.441-1.919.666-.621.232-1.25.506-1.855.763-1.234.531-2.436 1.111-3.629 1.756-1.211.621-2.331 1.323-3.477 2.042-1.129.744-2.226 1.536-3.298 2.312-1.065.842-2.113 1.708-3.105 2.607-.5.47-1 .94-1.443 1.443l-1.263 1.288c-1.639 1.572-3.562 2.873-5.663 3.905-1.652.805-3.44 1.455-5.31 1.982-.515.128-1.029.255-1.543.382-1.159.271-2.367.468-3.55.648l.008.066.313.849.217.596.056.139c1.067.178 2.11.265 3.202.321.586.036 1.181.031 1.76.002 2.136-.069 4.307-.407 6.413-1.055 1.34-.425 2.68-.955 3.923-1.632 1.259-.653 2.486-1.461 3.592-2.4.279-.219.541-.462.803-.705l.729-.656c.427-.421.91-.81 1.352-1.207.926-.785 1.852-1.57 2.85-2.298 3.472-2.637 7.154-5.061 11.038-7.126.499-.258.982-.54 1.472-.757 2.183-1.121 4.463-2.094 6.815-2.797 1.175-.352 2.375-.614 3.582-.705.734-.061 1.476-.057 2.217.054l-.166-.841z" fill="#1A844B"/><path d="M303.189 545.016c1.269.431 2.389 9.616 2.381 13.88 2.474-.679 3.177-1.001 5.936-3.169 2.776-2.144 1.885-11.41-3.62-13.838-1.414-.652-5.942 2.68-4.697 3.127z" fill="#1A844B"/><path d="M303.997 544.696c1.269.431 1.597 9.962 1.588 14.225 2.474-.679 3.97-1.346 6.746-3.49 2.775-2.144 1.884-11.41-3.621-13.838-1.43-.677-5.958 2.655-4.713 3.103z" fill="#6AC86E"/><path d="M432.118 616.866l-25.784-3.444-17.199-2.213-25.797-3.321 7.516-63.705 25.822 3.297 17.214 2.197 25.822 3.297-7.594 63.892z" fill="#CD591F"/><path d="M402.035 612.869l-8.599-1.107 7.544-63.733 8.607 1.099-7.552 63.741z" fill="#1A844B"/><path d="M390.903 482.723c.446.9.77 1.806 1.018 2.691.249.884.395 1.788.466 2.67.143 1.765-.113 3.411-.651 4.899-.572 1.493-1.392 2.823-2.433 4.035-.127.147-.254.293-.394.46l-.2.213c-.013.02-.04.06-.066.1l-.08.12-.167.206c-.439.574-.827 1.296-1.098 2.154-.27.858-.333 1.854-.179 2.791.07.479.188.931.352 1.357.165.426.343.832.527 1.184.832 1.444 1.812 2.438 2.754 3.264.964.839 1.937 1.483 2.916 2.074 1.938 1.167 3.884 2.052 5.875 2.823.501.188 1.003.376 1.483.55l.762.245.192.069.041.028-.021-.014-.034.006c-.054-.007-.096-.035-.15-.042-.193-.07-.413-.187-.629-.445-.098-.122-.203-.278-.282-.475-.028-.047-.035-.081-.043-.114-.007-.034-.015-.068-.035-.082-.008-.033-.015-.067-.036-.081-.007-.034-.007-.034-.015-.067-.024-.189-.031-.223-.05-.149-.014.02-.006.054-.019.074-.014.02-.02.074-.033.094-.032.093-.072.154-.131.287-.032.094-.112.214-.17.348-.08.121-.139.254-.232.395-.092.14-.172.26-.265.4l-.146.221-.166.206-.439.574-.273.366-.265.401c-.345.521-.675 1.109-.984 1.711-.288.616-.569 1.265-.773 2.023-.212.724-.354 1.524-.399 2.358-.046.833.025 1.716.219 2.593.193.877.502 1.716.898 2.467.813 1.518 1.905 2.702 3.006 3.603.561.458 1.141.842 1.734 1.206.303.172.586.33.902.482.296.138.654.317.963.435.618.237 1.119.424 1.592.565.46.16.857.279 1.255.398.727.252 1.311.494 1.677.707.386.227.614.378.837.67 3.069 4.007 8.268 10.415 7.216-.553-.101-.701-.265-1.443-.552-2.18-.286-.737-.675-1.455-1.171-2.1-.475-.632-1.032-1.231-1.6-1.722-1.137-.983-2.308-1.643-3.374-2.147-.516-.256-1.025-.477-1.458-.678-.433-.2-.846-.387-1.108-.531-.137-.062-.186-.123-.331-.219-.124-.083-.249-.165-.373-.247-.235-.185-.45-.356-.61-.519-.361-.354-.558-.686-.616-.869-.065-.216-.046-.29-.036-.485.01-.195.139-.57.355-1.032.126-.234.251-.468.423-.728l.133-.201.153-.186.413-.534.259-.347.252-.38c.159-.241.331-.501.504-.761.172-.261.337-.555.489-.829.144-.308.309-.602.432-.923.145-.308.274-.684.39-1.039l.173-.576c.065-.188.101-.423.145-.625.169-.839.266-1.84.088-2.966-.03-.135-.046-.29-.076-.425s-.081-.284-.11-.419c-.03-.135-.081-.284-.131-.432-.051-.149-.081-.284-.165-.426-.243-.622-.602-1.205-1.014-1.708-.81-1.026-1.819-1.752-2.898-2.236-.275-.124-.543-.215-.81-.306l-.206-.049-.096-.035-.055-.008-.15-.042-.638-.162c-.431-.113-.863-.226-1.281-.359-1.7-.492-3.347-1.063-4.832-1.7-.742-.319-1.437-.664-2.009-1.014-.573-.35-1.043-.719-1.258-.89-.062-.041-.09-.088-.124-.082-.021-.014-.055-.008-.075-.021-.034.006-.048.026-.068.012-.034.007-.055-.007-.062-.041-.049-.061-.045-.202.012-.424l.032-.093.027-.04c.013-.02.013-.02.04-.061l.204-.354c.126-.234.264-.488.389-.722.966-1.953 1.613-4.146 1.708-6.359.108-2.233-.35-4.466-1.286-6.382-.461-.968-1.03-1.863-1.665-2.658-.665-.93-1.374-1.659-2.21-2.241z" fill="#6AC86E"/><path d="M388.664 485.256c3.446.247 3.799 4.315 3.698 5.24.248-.925.282-5.979-1.541-7.706-1.822-1.726-6.472.925-8.323 3.391 2.159-.617 2.719-1.171 6.166-.925z" fill="#1A844B"/><path d="M391.429 483.098c.573.832.585.695.961 1.638.389.922.671 1.864.86 2.805.378 1.882.336 3.786-.103 5.581-.438 1.794-1.279 3.442-2.324 4.926-.125.189-.272.363-.397.552l-.216.28-.28.328c-.334.505-.652 1.079-.818 1.755-.188.661-.209 1.402-.089 2.116.121.714.398 1.381.723 1.928.679 1.145 1.553 1.995 2.453 2.711.9.717 1.847 1.314 2.801 1.855 1.908 1.081 3.867 1.896 5.847 2.632.504.183.986.351 1.504.512l.755.228.18.059.057.008.022.014.021.014c.044.029.101.037.145.066.166.079.304.201.384.315.03.049.06.099.075.17.016.071.053.156.055.248.05.395-.08 1.064-.389 1.766-.308.702-.795 1.437-1.311 2.123l-.461.601c-.174.217-.327.448-.48.679-.306.462-.604.959-.873 1.507-.254.526-.501 1.087-.661 1.706-.182.605-.285 1.232-.322 1.902-.061 1.319.216 2.741.853 3.948.616 1.193 1.485 2.192 2.437 2.972.479.408.979.739 1.492 1.049.239.158.513.309.78.425.253.137.563.282.83.398 1.08.444 2.015.731 2.894 1.101.871.335 1.644.726 2.26 1.163.637.453-.014-.677 1.453 1.627 1.466 2.304 3.049-1.304 3.049-1.304s-.572-1.164-.982-1.677c-.41-.513-.848-.984-1.327-1.393-.973-.795-2.028-1.372-3.037-1.829-1.009-.456-1.982-.828-2.768-1.197-.353-.174-.715-.383-1.084-.627-.347-.23-.681-.481-.965-.76-.582-.536-1.065-1.128-1.362-1.717-.297-.59-.394-1.198-.357-1.868.023-.317.095-.662.203-1.013.108-.352.251-.71.416-1.054.179-.365.38-.715.624-1.037.112-.168.237-.357.37-.511l.446-.58c.642-.874 1.253-1.799 1.733-2.901.233-.54.472-1.137.603-1.806.13-.669.209-1.402.073-2.187-.05-.396-.158-.799-.337-1.19-.165-.411-.401-.809-.679-1.144-.542-.691-1.231-1.207-1.974-1.548-.187-.094-.367-.153-.569-.226l-.158-.044-.122-.051-.18-.058-.712-.2c-.474-.132-.934-.286-1.409-.419-.934-.286-1.841-.615-2.756-.979-.893-.349-1.772-.72-2.623-1.132-.852-.413-1.661-.888-2.364-1.384-.725-.509-1.35-1.075-1.754-1.644-.404-.569-.556-1.093-.482-1.678.045-.303.16-.619.347-.949l.145-.266.223-.336c.139-.21.27-.456.387-.68 1.024-1.83 1.758-3.882 1.997-5.989.239-2.107-.037-4.284-.768-6.247-.793-1.915-1.466-2.668-2.965-4.083z" fill="#1A844B"/><path d="M425.96 523.439c-1.637 16.092-17.235 14.824-18.345 14.764 14.766-16.669 5.812-26.542 3.149-33.046-2.724-6.653 1.761-15.229 12.601-20.981-13.412 15.373 4.231 23.171 2.595 39.263z" fill="#6AC86E"/><path fill-rule="evenodd" clip-rule="evenodd" d="M433.282 468.298c-.271.459-.549.963-.83 1.512-1.147 2.249-2.234 5.057-2.944 8.141-1.43 6.211-1.263 13.177 2.49 19.058 4.21 6.597 7.542 15.215 8.009 23.953.471 8.804-1.978 17.875-9.523 24.861l-4.076-4.402c5.954-5.514 8.006-12.693 7.608-20.139-.402-7.512-3.309-15.144-7.076-21.046-4.226-6.623-4.825-14.044-3.865-20.535 2.216-3.965 5.635-7.859 10.207-11.403z" fill="#1A844B"/><path d="M415.669 539.863s-17.054 6.437-20.215 2.527l-1.154-12.859s1.306-2.338 5.617-2.412c5.705-.122 13.596 5.663 13.596 5.663l2.156 7.081z" fill="#6AC86E"/><path d="M395.453 542.39s1.755-3.478 6.967-2.711c1.89.272 3.838.498 5.638.589-4.703-9.169-11.765-12.369-11.778-12.395-1.467.711-2 1.651-2 1.651l1.173 12.866z" fill="#6AC86E"/><path d="M395.452 542.39c3.168 3.89 20.215-2.527 20.215-2.527l-.287-.937c-2.253 1.889-7.776 1.533-12.981.747-5.192-.761-6.947 2.717-6.947 2.717zM427.471 531.052c4.599-1.054 5.151 1.652 5.151 1.652-5.142 4.769-20.338-1.004-20.338-1.004 8.016 1.714 10.589.407 15.187-.648z" fill="#1A844B"/><path d="M427.787 534.519l1.465 12.512c-.936.158-1.937.122-2.975-.056-3.353-2.51-9.117-7.513-13.614-14.996l-.367-.059-.038-.207c.006-.019 9.042 3.395 15.529 2.806z" fill="#6AC86E"/><path d="M426.277 546.975c-5.514-.956-11.815-5.774-11.815-5.774l-2.185-9.481.38.149c4.503 7.464 10.267 12.596 13.62 15.106z" fill="#6AC86E"/><path d="M394.722 534.476c.343-.315.763-.604 1.184-.829.847-.468 1.771-.78 2.707-1.003 1.169-.273 2.351-.391 3.551-.439.697-.023 1.4-.001 2.104.021.464.027.922.074 1.406.108.458.047.929.12 1.381.186.922.139 1.831.316 2.747.539.922.204 1.799.478 2.695.758.889.301 1.765.639 2.623.972.863.377 1.72.774 2.544 1.203.419.227.838.455 1.224.714l1.075.643c1.378.766 2.899 1.301 4.492 1.623 1.251.25 2.567.371 3.916.395l1.104-.015c.826-.023 1.671-.104 2.498-.191l.006.045-.06.626-.041.438-.013.104c-.685.307-1.37.55-2.094.779-.387.128-.788.23-1.182.312-1.446.331-2.964.486-4.493.423-.974-.049-1.967-.169-2.922-.405-.96-.216-1.927-.542-2.836-.978-.225-.098-.444-.214-.663-.331l-.606-.312c-.36-.208-.753-.384-1.12-.572-.761-.365-1.521-.729-2.32-1.041-2.796-1.159-5.697-2.138-8.669-2.839-.381-.085-.755-.19-1.122-.249-1.664-.368-3.367-.619-5.07-.677-.852-.029-1.704.007-2.531.158-.503.089-1.001.223-1.479.427l-.036-.593z" fill="#1A844B"/><path d="M415.467 532.731c-.776.514.092 6.88.849 9.741-1.781-.019-2.31-.111-4.546-1.081-2.242-.95-3.277-7.33-.009-9.932.835-.687 4.463.752 3.706 1.272z" fill="#1A844B"/><path d="M414.869 532.658c-.776.514.685 6.973 1.442 9.834-1.781-.019-2.903-.204-5.145-1.154-2.242-.951-3.278-7.33-.009-9.932.841-.707 4.469.732 3.712 1.252z" fill="#6AC86E"/><g opacity=".5"><path opacity=".5" d="M263.46 340.199H37.7153L-108.98-113h225.808L263.46 340.199z" fill="url(#paint1_linear)"/><path opacity=".5" d="M622.014 340.199h-79.112L396.27-113h79.048l146.696 453.199z" fill="url(#paint2_linear)"/></g><path d="M321.993 246.142l-8.28 4.013 5.924 6.817 2.356-10.83z" fill="#764ACC"/><path d="M315.18 250.474c-4.968-7.772-11.402-9.047-16.434-8.409l-1.975 9.109c4.332 2.74 10.638 4.332 18.409-.7z" fill="#764ACC"/><path d="M290.338 245.058s2.293 3.631 6.433 6.18l1.975-9.11c-4.777.573-8.408 2.93-8.408 2.93z" fill="#C30FE8"/><path d="M346.199 225.947l-8.281 4.014 5.924 6.816 2.357-10.83z" fill="#764ACC"/><path d="M339.448 230.279c-4.969-7.772-11.402-9.046-16.434-8.409l-1.975 9.11c4.268 2.739 10.574 4.332 18.409-.701z" fill="#764ACC"/><path d="M314.605 224.864s2.294 3.631 6.434 6.179l1.975-9.11c-4.842.637-8.409 2.931-8.409 2.931z" fill="#C30FE8"/><path d="M366.584 251.748l-8.281 4.013 5.924 6.817 2.357-10.83z" fill="#764ACC"/><path d="M359.831 256.08c-4.969-7.772-11.402-9.046-16.435-8.409l-1.974 9.109c4.268 2.74 10.637 4.269 18.409-.7z" fill="#764ACC"/><path d="M334.99 250.601s2.293 3.631 6.434 6.179l1.974-9.11c-4.841.637-8.408 2.931-8.408 2.931z" fill="#C30FE8"/><path d="M341.742 270.477l-8.281 4.014 5.924 6.816 2.357-10.83z" fill="#764ACC"/><path d="M334.991 274.809c-4.969-7.772-11.402-9.046-16.434-8.409l-1.975 9.11c4.268 2.739 10.637 4.268 18.409-.701z" fill="#764ACC"/><path d="M310.146 269.394s2.294 3.631 6.434 6.179l1.975-9.11c-4.841.573-8.409 2.931-8.409 2.931z" fill="#C30FE8"/><path d="M80.4814 591.983c5.0321-3.44 2.6753-10.894-3.5033-10.958-11.4018-.191-23.7591-.318-23.9502-.191-.4459.191 3.9493 27.266 3.9493 27.266l23.5042-16.117z" fill="#fff"/><path d="M62.0088 562.296s-9.8095-5.16-26.1797 1.911C17.9301 571.915 18.376 591.6 18.376 591.6l43.6328-29.304zM68.8887 596.888l21.8483 8.027c1.0829.382 1.9747-.829 1.4014-1.72l-3.1213-4.651c-4.65-6.944-14.4593-7.708-20.1284-1.656z" fill="#AD1457"/><path d="M68.8262 596.888l8.7266 15.098c.4458.701 1.5287.51 1.5924-.318l.446-4.205c.7007-6.179-4.5863-11.34-10.765-10.575z" fill="#AD1457"/><path d="M82.7743 589.498c-1.8472 1.083-3.7582 2.102-5.7966 2.803-2.3568.828-4.7772 1.338-7.2614 1.784-.8281.191-1.6562.382-2.5479.51-.2548.063-.5733.127-.8281.191.0637 0 .1274-.064.1911-.064-3.6308.446-7.5164.064-10.4465-1.656-1.4651-.892-.9555-3.568.9554-3.441 8.7903.765 17.071.128 23.6955-6.37.5733-.573 1.2103-.637 1.7836-.446.1274-.191.3185-.382.4459-.51.7643-1.019 1.465-2.038 2.102-3.057.3185-.51.7007-1.083 1.0192-1.593.1274-.191.9554-1.338.8917-1.465 0 0-1.9108-3.95-5.7964-8.537-4.3314-5.16-11.0198-7.644-17.6443-6.689-7.9622 1.147-15.4148 4.714-21.275 10.193l-25.1606 21.405c-1.7835 1.593-4.204 2.166-6.4971 1.593l-15.5423-3.823 6.94314 9.62-4.20411 9.11s14.52307-5.606 17.83537-5.033c3.3122.573 12.0389 13.76 32.1037 11.276 20.0647-2.485 32.7405-16.882 41.0212-29.878l-5.9875 4.077z" fill="#EC407A"/><path d="M15.6368 604.087c-3.3122-.574-17.83527 5.032-17.83527 5.032l4.2041-9.109-6.94313-9.62 15.5423 3.822c2.2931.574 4.7136-.063 6.4971-1.592 0 0-6.6245 5.415-6.8156 7.326-.1911 1.911 5.3505 4.141 5.3505 4.141z" fill="#AD1457"/><path d="M67.9342 594.531c-.5096.127-1.0193.191-1.5289.318.1274-.063.1911-.127.3185-.127-4.4588.51-9.045.127-13.3127-1.274-2.2931-.765-1.3377-3.95.9555-3.568 9.2998 1.593 24.7147-1.975 27.7722-6.434.3185-.382.5732-.701.8917-1.083.7644-1.019 1.4651-2.038 2.102-3.058.3185-.509.7006-1.083 1.0191-1.592.1274-.192.9556-1.338.8919-1.466 0 0-1.911-3.949-5.7966-8.536-4.3314-5.16-11.0196-7.645-17.6442-6.689-7.9622 1.147-15.4147 4.714-21.2749 10.193l-10.5739 8.982c4.0767 9.11 14.7142 15.608 27.0715 15.608 3.2486 0 6.3698-.446 9.2362-1.274 0-.064-.0637-.064-.1274 0z" fill="#EC407A"/><path d="M64.4933 581.025c3.1309 0 5.6692-2.538 5.6692-5.67 0-3.131-2.5383-5.669-5.6692-5.669-3.131 0-5.6691 2.538-5.6691 5.669 0 3.132 2.5381 5.67 5.6691 5.67z" fill="#000"/><path d="M66.4693 577.967c1.6182 0 2.9302-1.312 2.9302-2.93s-1.312-2.93-2.9302-2.93c-1.6183 0-2.9302 1.312-2.9302 2.93s1.3119 2.93 2.9302 2.93z" fill="#fff"/><path d="M83.0303 575.356c2.3218 0 4.2041-1.883 4.2041-4.205s-1.8823-4.205-4.2041-4.205c-2.3219 0-4.2041 1.883-4.2041 4.205s1.8822 4.205 4.2041 4.205z" fill="#000"/><path d="M84.4321 572.998c1.1609 0 2.102-.941 2.102-2.102s-.9411-2.102-2.102-2.102c-1.1609 0-2.102.941-2.102 2.102s.9411 2.102 2.102 2.102z" fill="#fff"/><path d="M40.3516 597.589l21.8482 8.027c1.0829.382 1.9746-.829 1.4013-1.721l-3.1211-4.65c-4.5862-6.944-14.4594-7.708-20.1284-1.656z" fill="#AD1457"/><path d="M40.3516 597.589l8.7265 15.098c.4458.7 1.5287.509 1.5924-.319l.4458-4.204c.637-6.18-4.5861-11.34-10.7647-10.575z" fill="#AD1457"/><path d="M231.124 590.008s-19.364 18.156-50.767 11.658c-5.223-1.083-9.746-2.357-13.695-3.822-.701-.255-1.338-.51-1.975-.765-4.65-1.784-8.408-3.759-11.465-5.733-.574-.383-1.147-.701-1.656-1.083-6.88-4.715-9.555-8.983-10.065-9.875-.063-.127-.127-.191-.127-.191-.382-.382-.319-1.529.064-1.847 0 0 16.497-21.979 55.225-9.492 30.958 10.001 34.588 14.97 34.588 14.97.191.128.383.255.51.51.955 1.465.701 5.16-.637 5.67z" fill="#F2CD13"/><path d="M231.762 584.338c-.191.51-.51.956-.956 1.083 0 0-19.237 14.652-50.703 8.409-3.695-.764-7.134-1.529-10.447-2.421-.955-.255-1.911-.509-2.866-.828-11.211-3.249-19.683-7.135-25.416-10.193-.063-.127-.127-.191-.127-.191-.382-.382-.318-1.529.064-1.847 0 0 8.535-11.404 27.772-13.124 6.561-.573 14.332-.063 23.441 2.421.573.128 1.146.319 1.72.51.764.191 1.528.446 2.293.701 3.63 1.146 6.879 2.293 9.809 3.312.128.064.191.064.319.128 1.465.509 2.866 1.019 4.14 1.529 17.899 6.689 20.32 10.001 20.32 10.001.318.128.446.255.637.51z" fill="#FFDB70"/><path d="M178.256 568.412c5.478-8.409 15.032-10.129 22.485-11.085 6.943-.892 5.287.701 3.376 2.421-2.229 1.975-5.86 7.198-5.096 9.81.637 2.612-20.192 2.23-20.765-1.146zM207.365 576.63c3.185-4.906 8.727-5.861 13.058-6.435 4.013-.509 3.058.446 1.975 1.402-1.274 1.147-3.504 3.631-3.122 5.16.446 1.465-11.592 1.784-11.911-.127z" fill="#FFDB70"/><path d="M230.742 585.676c.637-8.409 8.79-13.442 13.44-15.672 1.083-.509 2.229.574 1.784 1.72-1.72 3.95-4.65 10.894-5.287 15.544-.574 3.95 1.783 8.282 3.885 11.212.765 1.083-.382 2.485-1.592 1.975-5.223-2.229-12.804-6.88-12.23-14.779z" fill="#F2CD13"/><path d="M173.415 591.728c-5.669 1.019-16.816 9.046-21.594 11.913-1.337.828-2.802-1.211-2.165-3.122 2.484-7.899 8.408-21.851 18.79-22.679l4.969 13.888z" fill="#FFDB70"/><path d="M192.588 567.711c-8.663 1.847-15.606 7.899-15.606 7.899-.701-6.752 4.395-10.129 4.395-10.129-6.497-.127-15.988 9.683-15.988 9.683.063-3.949 1.783-7.326 3.758-9.938 6.561-.573 14.332-.063 23.441 2.485zM188.065 578.541c-.637-5.415 3.695-8.792 6.242-10.384.765.191 1.529.446 2.294.701 3.63 1.146 6.879 2.293 9.809 3.312-11.02-.828-18.345 6.371-18.345 6.371zM210.869 573.827c-4.778 2.102-9.045 6.37-9.045 6.37-.701-4.969 3.949-7.453 4.841-7.899 1.528.509 2.93 1.019 4.204 1.529z" fill="#F2CD13"/><path d="M157.593 579.694c1.822-1.381 2.352-3.751 1.183-5.293-1.169-1.542-3.594-1.673-5.416-.291-1.822 1.382-2.352 3.752-1.183 5.294 1.169 1.542 3.594 1.672 5.416.29z" fill="#332F2E"/><path d="M154.432 580.07c.809 0 1.465-.656 1.465-1.466 0-.809-.656-1.465-1.465-1.465s-1.465.656-1.465 1.465c0 .81.656 1.466 1.465 1.466z" fill="#fff"/><circle opacity=".2" cx="264.447" cy="664.332" r="8.63017" fill="#fff"/><circle opacity=".2" cx="243.18" cy="630.736" r="4.62331" fill="#fff"/><circle opacity=".2" cx="199.104" cy="684.058" r="7.39729" fill="#fff"/><circle opacity=".2" cx="315.61" cy="690.839" r="2.46576" fill="#fff"/><circle opacity=".2" cx="383.42" cy="508.989" r="4.93153" fill="#fff"/><circle opacity=".2" cx="344.891" cy="520.393" r="2.77398" fill="#fff"/><circle opacity=".2" cx="364.31" cy="457.208" r="2.46576" fill="#fff"/><circle opacity=".2" cx="410.236" cy="623.955" r="2.15754" fill="#fff"/><circle opacity=".2" cx="407.769" cy="476.009" r="4.00687" fill="#fff"/><circle opacity=".3" cx="76.9731" cy="117.781" r="8.6999" stroke="#fff" stroke-width="2.54631"/><circle opacity=".3" cx="112.197" cy="47.3332" r="4.88043" stroke="#fff" stroke-width="2.54631"/><circle opacity=".3" cx="114.532" cy="99.7448" r="14.0047" fill="#fff"/></g><path d="M344.993 340.199H119.185L-27.4473-113H198.297l146.696 453.199z" fill="url(#paint3_linear)"/></g><defs><linearGradient id="paint1_linear" x1="-9.59816" y1="-116.069" x2="108.403" y2="195.895" gradientUnits="userSpaceOnUse"><stop stop-color="#fff" stop-opacity=".2"/><stop offset="1" stop-color="#fff" stop-opacity="0"/></linearGradient><linearGradient id="paint2_linear" x1="430.386" y1="-94.6207" x2="537.368" y2="188.211" gradientUnits="userSpaceOnUse"><stop stop-color="#fff" stop-opacity=".2"/><stop offset="1" stop-color="#fff" stop-opacity="0"/></linearGradient><linearGradient id="paint3_linear" x1="71.8877" y1="-116.069" x2="189.888" y2="195.895" gradientUnits="userSpaceOnUse"><stop stop-color="#fff" stop-opacity=".3"/><stop offset="1" stop-color="#fff" stop-opacity="0"/></linearGradient><clipPath id="clip0"><path fill="#fff" d="M0 0h413v734.589H0z"/></clipPath><clipPath id="clip1"><path fill="#fff" d="M-1792-113h3457v1552.81h-3457z"/></clipPath><radialGradient id="paint0_radial" cx="0" cy="0" r="1" gradientUnits="userSpaceOnUse" gradientTransform="matrix(822.578 0 0 1086.01 -487.548 51.4814)"><stop stop-color="#9D87F5"/><stop offset=".08201" stop-color="#8D67F1"/><stop offset=".1811" stop-color="#7E48ED"/><stop offset=".2895" stop-color="#722EEA"/><stop offset=".4089" stop-color="#681AE7"/><stop offset=".5449" stop-color="#610CE5"/><stop offset=".7118" stop-color="#5D03E4"/><stop offset="1" stop-color="#5C01E4"/></radialGradient></defs></svg>