<svg width="413" height="735" fill="none" xmlns="http://www.w3.org/2000/svg"><g clip-path="url(#clip0)"><path fill="url(#paint0_linear)" d="M0 0h413v734.589H0z"/><path d="M370.763 609.392c-30.564 31.321-80.731 31.934-112.052 1.37-31.321-30.563-31.934-80.731-1.37-112.051 30.564-31.321 80.731-31.934 112.052-1.37 31.32 30.563 31.934 80.731 1.37 112.051z" fill="#440093"/><path d="M219.45 347.05c-31.232 32.005-82.495 32.631-114.5 1.4-32.0052-31.232-32.6321-82.495-1.4-114.5 31.231-32.005 82.495-32.632 114.5-1.4 32.005 31.231 32.631 82.495 1.4 114.5z" fill="#5F13A1"/><path d="M352.399 591.472c-20.376 20.881-53.82 21.29-74.701.914-20.88-20.376-21.289-53.821-.913-74.701 20.376-20.881 53.821-21.29 74.701-.914 20.88 20.376 21.289 53.821.913 74.701z" fill="#4600DE"/><path d="M200.684 328.738c-20.821 21.337-54.997 21.755-76.333.934-21.337-20.821-21.755-54.997-.934-76.334 20.821-21.336 54.997-21.754 76.334-.933 21.336 20.821 21.754 54.997.933 76.333z" fill="#9E5D79"/><path d="M141.305 258.524c-1.986 2.034-5.244 2.074-7.278.089-2.034-1.985-2.074-5.244-.089-7.278 1.985-2.034 5.243-2.074 7.278-.089 2.034 1.985 2.074 5.244.089 7.278z" fill="#FAD247"/><path d="M321.478 496.947c-1.985 2.034-5.243 2.074-7.277.089-2.035-1.985-2.074-5.243-.089-7.278 1.985-2.034 5.243-2.074 7.277-.089 2.035 1.985 2.074 5.244.089 7.278z" fill="#F3BD3E"/><path d="M221.975 448.069c-1.985 2.034-5.243 2.074-7.277.089-2.034-1.985-2.074-5.243-.089-7.278 1.985-2.034 5.243-2.074 7.277-.089 2.035 1.985 2.075 5.244.089 7.278z" fill="#D7F962"/><path d="M242.214 475.01c-1.168 1.196-3.084 1.22-4.281.052-1.196-1.168-1.22-3.084-.052-4.281 1.168-1.197 3.084-1.22 4.281-.052 1.196 1.167 1.22 3.084.052 4.281zM96.4788 321.798c-1.1677 1.196-3.0844 1.22-4.281.052-1.1966-1.168-1.22-3.084-.0523-4.281 1.1677-1.197 3.0843-1.22 4.2809-.052 1.1966 1.167 1.2201 3.084.0524 4.281zM402.256 677.713c-1.168 1.197-3.084 1.22-4.281.053-1.196-1.168-1.22-3.085-.052-4.281 1.168-1.197 3.084-1.22 4.281-.053 1.196 1.168 1.22 3.085.052 4.281zM325.936 703.908c-1.168 1.197-3.085 1.22-4.281.053-1.197-1.168-1.22-3.085-.053-4.281 1.168-1.197 3.085-1.22 4.281-.053 1.197 1.168 1.22 3.085.053 4.281z" fill="#7101FB"/><path d="M347.706 733.613c-1.167 1.197-3.084 1.22-4.281.052-1.196-1.167-1.22-3.084-.052-4.281 1.168-1.196 3.084-1.22 4.281-.052 1.197 1.168 1.22 3.084.052 4.281z" fill="#D6F562"/><path d="M266.445 618.361c-1.985 2.034-5.243 2.074-7.277.089-2.035-1.985-2.075-5.243-.089-7.277 1.985-2.035 5.243-2.075 7.277-.089 2.034 1.985 2.074 5.243.089 7.277z" fill="#BE4191"/><path fill-rule="evenodd" clip-rule="evenodd" d="M-360.325-351.526c10.658 2.123 17.577 12.484 15.454 23.143l-.055.277c-2.137 10.655-12.508 17.561-23.163 15.423-10.655-2.137-17.561-12.507-15.424-23.163l.045-.226c2.123-10.658 12.485-17.577 23.143-15.454zm-9.142 42.935c10.625 2.284 17.387 12.748 15.104 23.373l-.12.556c-2.28 10.626-12.742 17.392-23.368 15.111-10.626-2.28-17.391-12.742-15.111-23.368l.122-.568c2.284-10.625 12.748-17.387 23.373-15.104zm-9.269 43.357c10.686 1.978 17.746 12.244 15.768 22.93l-.106.573c-1.973 10.687-12.237 17.751-22.924 15.778-10.687-1.974-17.75-12.237-15.777-22.924l.109-.589c1.978-10.686 12.244-17.745 22.93-15.768zm-7.996 43.592c10.745 1.628 18.137 11.658 16.509 22.403l-.086.567c-1.623 10.746-11.649 18.142-22.395 16.519-10.746-1.623-18.142-11.65-16.519-22.395l.089-.585c1.627-10.745 11.657-18.137 22.402-16.509zm-6.569 43.901c10.796 1.248 18.536 11.011 17.288 21.807l-.066.578c-1.243 10.797-11.002 18.542-21.799 17.299-10.796-1.242-18.541-11.002-17.299-21.798l.069-.598c1.248-10.796 11.011-18.536 21.807-17.288zm-5.003 44.009c10.835.839 18.939 10.302 18.101 21.137l-.044.568c-.833 10.836-10.292 18.9444-21.128 18.1116-10.835-.8329-18.944-10.2926-18.111-21.1276l.045-.588c.838-10.835 10.302-18.939 21.137-18.101zm577.982 464.067c-6.214 8.916-18.48 11.105-27.395 4.891-.159-.111-.318-.222-.477-.332-8.931-6.193-11.15-18.453-4.957-27.383 6.192-8.931 18.452-11.15 27.383-4.957.185.128.371.257.556.386 8.915 6.214 11.105 18.48 4.89 27.395zm6.094 5.143c7.737-7.632 20.196-7.549 27.828.188.16.161.319.323.479.486 7.614 7.754 7.499 20.213-.255 27.827-7.755 7.614-20.214 7.5-27.827-.255l-.197-.2-.215-.218c-7.632-7.736-7.549-20.195.187-27.828zm-45.93-31.889c-4.546 9.871-16.233 14.188-26.104 9.642-.18-.083-.361-.166-.541-.248-9.882-4.524-14.2247-16.202-9.701-26.083 4.524-9.882 16.202-14.225 26.083-9.701l.621.285c9.871 4.546 14.188 16.234 9.642 26.105zM-401.634-89.5451c10.861.3945 19.345 9.5184 18.951 20.3789l-.021.5704c-.388 10.8607-9.507 19.3502-20.368 18.9618-10.861-.3883-19.35-9.5075-18.962-20.3682l.021-.5925c.395-10.8605 9.519-19.3449 20.379-18.9504zM218.855 370.2c8.946-6.171 21.2-3.923 27.372 5.023.127.183.253.367.38.551 6.152 8.959 3.877 21.208-5.081 27.361-8.959 6.152-21.208 3.878-27.361-5.081-.11-.161-.221-.322-.332-.482-6.171-8.946-3.923-21.2 5.022-27.372zM95.9215 284.216c-2.9782 10.452-13.8652 16.51-24.3168 13.532l-.2377-.068c-.1066-.03-.2132-.06-.3199-.09-10.457-2.96-16.5349-13.836-13.5755-24.293 2.9595-10.457 13.8356-16.535 24.2926-13.575l.3697.105.2559.072c10.4515 2.979 16.51 13.866 13.5317 24.317zm-46.2787-12.511c-1.6371 10.744-11.6736 18.126-22.4172 16.489l-.5624-.085c-10.7477-1.61-18.15499-11.628-16.5447-22.376 1.6104-10.748 11.6285-18.155 22.3762-16.545l.6592.1c10.7436 1.637 18.126 11.674 16.4889 22.417zM245.454 410.096c9.757-4.787 21.546-.758 26.333 8.998.098.199.195.397.292.596 4.77 9.765.721 21.548-9.044 26.318-9.765 4.77-21.548.721-26.318-9.044-.087-.178-.174-.356-.261-.535-4.787-9.756-.759-21.546 8.998-26.333zm-648.6-455.3413c10.867-.0893 19.749 8.648 19.838 19.5153l.005.5706c.096 10.8672-8.636 19.75457-19.503 19.85049-10.867.09594-19.755-8.63599-19.85-19.50319l-.006-.5946c-.089-10.8673 8.648-19.7494 19.516-19.8386zM4.87752 265.605c-.08885 10.867-8.97055 19.605-19.83782 19.516-.1881-.001-.3764-.003-.5648-.004-10.8673-.074-19.6174-8.943-19.5438-19.811.0737-10.867 8.9432-19.617 19.8105-19.543.2067.001.4133.003.6198.004 10.86729.089 19.60493 8.971 19.51612 19.838zM266.003 453.403c10.239-3.64 21.491 1.71 25.131 11.95.074.206.147.412.219.617 3.627 10.245-1.737 21.49-11.982 25.117-10.244 3.627-21.489-1.738-25.116-11.982-.068-.19-.135-.38-.203-.57-3.64-10.24 1.711-21.492 11.951-25.132zM-402.678-.91974c10.851-.61794 20.147 7.67685 20.765 18.52694l.033.5686c.625 10.8497-7.664 20.1519-18.513 20.7771-10.85.6252-20.152-7.6634-20.777-18.513l-.034-.595c-.618-10.85006 7.676-20.14671 18.526-20.76464zM-40.2873 265.652c.7906 10.839-7.3552 20.267-18.194 21.057l-.5772.043c-10.8383.799-20.2721-7.34-21.071-18.178-.7989-10.838 7.3396-20.272 18.1779-21.071l.6073-.045c10.8389-.79 20.2664 7.355 21.057 18.194zM281.6 498.722c10.499-2.806 21.285 3.43 24.091 13.929.056.208.111.416.167.624 2.798 10.501-3.447 21.282-13.949 24.08-10.501 2.798-21.282-3.447-24.08-13.948l-.158-.593c-2.806-10.499 3.43-21.285 13.929-24.092zM-400.043 43.3306c10.802-1.1965 20.528 6.59 21.724 17.3916l.063.5647c1.205 10.8007-6.575 20.5328-17.375 21.7372-10.801 1.2045-20.533-6.5748-21.738-17.3755l-.066-.5935c-1.196-10.8016 6.59-20.528 17.392-21.7245zm314.73 225.8534c1.2319 10.797-6.5226 20.549-17.32 21.781l-.584.067c-10.797 1.235-20.552-6.516-21.787-17.313-1.235-10.798 6.516-20.552 17.313-21.787l.597-.068c10.7972-1.232 20.549 6.522 21.781 17.32zm378.944 275.915c10.609-2.357 21.12 4.332 23.477 14.941l.137.615c2.354 10.61-4.338 21.119-14.948 23.473-10.609 2.355-21.118-4.337-23.473-14.947l-.134-.605c-2.357-10.609 4.332-21.12 14.941-23.477zm361.298 274.252c2.284 10.625-4.477 21.09-15.102 23.375l-.337.072c-10.629 2.264-21.081-4.516-23.346-15.145-2.265-10.629 4.516-21.082 15.145-23.346l.265-.057c10.625-2.285 21.09 4.476 23.375 15.101zm-785.098-544.907c1.33 10.786-6.335 20.608-17.121 21.938l-.592.073c-10.786 1.329-20.607-6.338-21.936-17.124-1.329-10.786 6.338-20.607 17.124-21.936l.587-.073c10.786-1.329 20.608 6.336 21.938 17.122zM-395.038 87.3767c10.713-1.8291 20.88 5.3726 22.709 16.0853l.095.558c1.838 10.711-5.355 20.884-16.066 22.722-10.712 1.838-20.884-5.356-22.722-16.067l-.101-.59c-1.829-10.7123 5.373-20.8793 16.085-22.7083zM303.767 591.953c10.568-2.535 21.19 3.976 23.726 14.544l.144.6c2.545 10.566-3.957 21.194-14.522 23.739-10.566 2.545-21.194-3.957-23.739-14.522l-.153-.636c-2.535-10.567 3.977-21.189 14.544-23.725zm305.181 236.052c-.4 10.86-9.528 19.34-20.388 18.94-.224-.008-.448-.016-.672-.025-10.859-.431-19.313-9.582-18.883-20.442.43-10.859 9.582-19.313 20.441-18.883.187.008.374.015.561.022 10.86.399 19.34 9.527 18.941 20.388zm-783.931-547.964c1.069 10.815-6.832 20.449-17.647 21.518l-.6.059c-10.816 1.063-20.445-6.844-21.508-17.659-1.062-10.816 6.844-20.445 17.659-21.508l.578-.056c10.815-1.069 20.449 6.831 21.518 17.646zm-212.458-148.99c10.572-2.517 21.184 4.012 23.701 14.584l.131.55c2.527 10.569-3.993 21.186-14.563 23.713-10.569 2.527-21.186-3.993-23.713-14.562-.047-.195-.093-.389-.14-.584-2.517-10.572 4.012-21.183 14.584-23.701zm701.757 507.82c9.775-4.749 21.549-.674 26.297 9.101.035.071.07.142.104.213l.122.248c4.795 9.752.777 21.546-8.975 26.341-9.753 4.796-21.546.778-26.342-8.975l-.148-.302c-.053-.109-.107-.219-.16-.328-4.749-9.776-.674-21.55 9.102-26.298zM561.958 825.35c-2.43 10.592-12.986 17.209-23.579 14.779l-.278-.064-.366-.084c-10.587-2.453-17.181-13.024-14.728-23.611 2.453-10.588 13.024-17.182 23.611-14.729.187.044.374.087.561.129 10.592 2.43 17.209 12.987 14.779 23.58zM335.832 680.709c8.618-6.62 20.972-5 27.592 3.619l.348.453c6.64 8.604 5.047 20.961-3.556 27.6-8.604 6.639-20.961 5.047-27.601-3.557-.134-.174-.268-.349-.403-.523-6.619-8.619-4.999-20.972 3.62-27.592zm180.426 133.45c-3.986 10.11-15.413 15.075-25.524 11.09-.202-.08-.405-.16-.607-.241-10.103-4.003-15.048-15.44-11.044-25.543s15.44-15.047 25.543-11.043c.181.071.361.143.542.214 10.11 3.985 15.075 15.413 11.09 25.523zm-736.156-529.651c.284 10.864-8.293 19.901-19.157 20.184-.211.006-.421.011-.632.016-10.864.268-19.889-8.322-20.157-19.186-.268-10.864 8.322-19.889 19.187-20.157.191-.005.383-.009.574-.014 10.864-.284 19.901 8.293 20.185 19.157zm-157.124-110.366c10.367-3.26 21.414 2.5 24.675 12.867l.169.537c3.271 10.364-2.478 21.417-12.842 24.688-10.364 3.271-21.417-2.479-24.688-12.843-.06-.191-.121-.382-.181-.573-3.261-10.367 2.5-21.415 12.867-24.676zm742.083 543.436c7.502-7.863 19.958-8.154 27.821-.652.14.134.28.268.42.401 7.876 7.488 8.191 19.943.703 27.82-7.488 7.876-19.944 8.19-27.82.702l-.252-.24-.221-.21c-7.862-7.503-8.154-19.959-.651-27.821zm107.636 78.818c-5.262 9.509-17.237 12.951-26.745 7.689l-.372-.206-.197-.11c-9.5-5.278-12.923-17.257-7.645-26.757 5.278-9.5 17.258-12.923 26.758-7.645l.512.284c9.509 5.262 12.951 17.237 7.689 26.745zm-73.218-46.748c6.412-8.774 18.723-10.69 27.498-4.278l.473.345c8.785 6.397 10.721 18.705 4.323 27.49-6.397 8.785-18.705 10.721-27.49 4.324-.175-.128-.35-.255-.525-.383-8.775-6.412-10.69-18.723-4.279-27.498zM-265.18 285.723c-1.548 10.757-11.523 18.222-22.28 16.673l-.249-.036c-.132-.019-.264-.038-.396-.058-10.751-1.583-18.183-11.583-16.599-22.335 1.583-10.752 11.583-18.184 22.335-16.6.11.017.22.033.331.049l.185.026c10.757 1.549 18.222 11.524 16.673 22.281zm-98.377-69.338c10.083-4.053 21.543.836 25.596 10.92l.099.247c.002.004.003.007.004.01.016.04.032.079.048.119l.035.086c4.104 10.063-.727 21.548-10.79 25.651-10.063 4.104-21.547-.727-25.651-10.79-.048-.117-.096-.235-.143-.352l-.119-.295c-4.052-10.084.837-21.544 10.921-25.596zm53.115 62.807c-5.631 9.295-17.731 12.265-27.026 6.634l-.414-.252c-.075-.046-.15-.092-.225-.139-9.251-5.702-12.128-17.825-6.425-27.076 5.702-9.251 17.825-12.128 27.076-6.426.126.078.253.156.38.233 9.295 5.631 12.265 17.731 6.634 27.026z" fill="#fff" fill-opacity=".11"/><path fill-rule="evenodd" clip-rule="evenodd" d="M-363.814-334.009c.984.196 1.623 1.153 1.427 2.136-.85 4.266-2.183 10.2-3.852 17.632-17.956 79.933-74.846 333.181 11.814 548.477 10.05 24.911 30.139 38.235 57.113 44.489 27.062 6.274 60.859 5.374 97.897 1.895 18.498-1.738 37.754-4.113 57.335-6.54l1.26-.157c19.165-2.375 38.628-4.788 57.9372-6.681 39.4474-3.867 78.37818-5.579 113.0241-.346h.0009c68.0743 10.32 118.1418 34.814 155.5338 67.083 37.38 32.257 62.002 72.203 79.317 113.299 17.31 41.083 27.34 83.374 35.499 120.335.852 3.859 1.683 7.658 2.499 11.391 3.099 14.167 5.989 27.379 9.013 39.281 3.823 15.044 7.829 27.867 12.674 37.757 24.797 50.626 74.868 98.016 132.655 129.773 57.798 31.764 123.002 47.718 177.977 35.897.98-.211 1.946.413 2.157 1.394.211.981-.413 1.947-1.394 2.158-56.128 12.069-122.244-4.255-180.49-36.265-58.258-32.017-108.959-79.895-134.168-131.359-5.015-10.238-9.094-23.358-12.932-38.461-3.04-11.965-5.947-25.255-9.047-39.429-.816-3.726-1.644-7.514-2.492-11.354-8.155-36.944-18.128-78.954-35.299-119.707-17.166-40.741-41.501-80.167-78.342-111.96-36.829-31.782-86.2458-56.015-153.7052-66.241-34.18795-5.164-72.7546-3.49-112.1261.37-19.2647 1.888-38.6907 4.296-57.8727 6.674l-1.232.153c-19.572 2.426-38.881 4.808-57.442 6.552-37.083 3.483-71.384 4.442-99.058-1.974-27.761-6.436-49.044-20.35-59.661-46.669l-.001-.002c-87.132-216.4683-29.914-470.926-11.983-550.667 1.662-7.395 2.987-13.287 3.828-17.507.196-.984 1.152-1.623 2.136-1.427z" fill="url(#paint1_linear)"/><path fill-rule="evenodd" clip-rule="evenodd" d="M133.159 283.9c-4.784-2.173-6.65-7.998-4.019-12.546 2.63-4.548 8.61-5.835 12.878-2.772l17.209 12.348-13.865-19.072c-3.089-4.25-1.839-10.237 2.692-12.896 4.532-2.659 10.368-.829 12.571 3.942l10.028 21.721-1.212-25.118c-.254-5.248 4.075-9.569 9.322-9.308 5.248.262 9.125 4.993 8.351 10.189l-3.979 26.714 10.823-23.831c2.173-4.783 7.998-6.65 12.546-4.019 4.548 2.63 5.835 8.61 2.772 12.879l-29.144 40.616-19.304 42.505c-2.173 4.784-7.998 6.65-12.546 4.02-4.548-2.63-5.835-8.61-2.772-12.879l15.258-21.264-21.169 16.77c-4.119 3.262-10.153 2.261-12.997-2.157-2.843-4.418-1.256-10.325 3.419-12.723l22.379-11.476-23.833 2.14c-5.233.47-9.73-3.676-9.685-8.93.045-5.253 4.611-9.323 9.835-8.764l23.346 2.496-18.904-8.585z" fill="#FFDC4C"/><path fill-rule="evenodd" clip-rule="evenodd" d="M215.242 336.514c-1.429-4.518 1.349-9.282 5.985-10.262 4.635-.981 9.105 2.251 9.627 6.96l2.103 18.982 4.42-20.798c.985-4.634 5.753-7.408 10.269-5.974 4.515 1.434 6.809 6.45 4.94 10.804l-8.512 19.826 16.106-15.965c3.365-3.335 8.873-3.04 11.863.635s2.158 9.128-1.793 11.743l-20.304 13.446 22.5-7.119c4.517-1.43 9.282 1.349 10.262 5.984.98 4.636-2.252 9.105-6.961 9.627l-36.889 4.088-8.459 39.342c-.996 4.632-5.77 7.395-10.282 5.95-4.512-1.444-6.794-6.466-4.915-10.815l11.965-27.691-17.759 25.251c-2.726 3.876-8.2 4.555-11.79 1.463-3.59-3.092-3.73-8.606-.301-11.876l15.856-15.124-22.367 7.077c-4.517 1.429-9.281-1.349-10.262-5.985-.98-4.635 2.252-9.105 6.961-9.627l23.458-2.599-24.011-4.074c-4.671-.793-7.64-5.442-6.394-10.013 1.247-4.571 6.164-7.07 10.591-5.383l21.19 8.078-15.809-14.683c-3.472-3.224-3.405-8.739.143-11.879 3.549-3.139 9.031-2.532 11.808 1.306l12.409 17.154-5.648-17.849z" fill="#FFA43F"/><path fill-rule="evenodd" clip-rule="evenodd" d="M215.242 336.514c-1.429-4.518 1.349-9.282 5.985-10.262 4.635-.981 9.105 2.251 9.627 6.96l2.103 18.982 4.42-20.798c.985-4.634 5.753-7.408 10.269-5.974 4.515 1.434 6.809 6.45 4.94 10.804l-8.512 19.826 16.106-15.965c3.365-3.335 8.873-3.04 11.863.635s2.158 9.128-1.793 11.743l-20.304 13.446 22.5-7.119c4.517-1.43 9.282 1.349 10.262 5.984.98 4.636-2.252 9.105-6.961 9.627l-36.889 4.088-8.459 39.342c-.996 4.632-5.77 7.395-10.282 5.95-4.512-1.444-6.794-6.466-4.915-10.815l11.965-27.691-17.759 25.251c-2.726 3.876-8.2 4.555-11.79 1.463-3.59-3.092-3.73-8.606-.301-11.876l15.856-15.124-22.367 7.077c-4.517 1.429-9.281-1.349-10.262-5.985-.98-4.635 2.252-9.105 6.961-9.627l23.458-2.599-24.011-4.074c-4.671-.793-7.64-5.442-6.394-10.013 1.247-4.571 6.164-7.07 10.591-5.383l21.19 8.078-15.809-14.683c-3.472-3.224-3.405-8.739.143-11.879 3.549-3.139 9.031-2.532 11.808 1.306l12.409 17.154-5.648-17.849z" fill="url(#paint2_radial)"/><path fill-rule="evenodd" clip-rule="evenodd" d="M273.632 430.51c-1.441-4.555 1.361-9.36 6.035-10.348 4.675-.989 9.182 2.27 9.708 7.019l2.122 19.142 4.457-20.973c.994-4.673 5.801-7.471 10.355-6.025 4.554 1.446 6.867 6.505 4.982 10.895l-8.583 19.993 16.241-16.099c3.394-3.363 8.948-3.066 11.963.64 3.015 3.706 2.176 9.205-1.808 11.843l-20.475 13.558 22.689-7.179c4.555-1.441 9.36 1.361 10.349 6.035.988 4.675-2.271 9.182-7.019 9.708l-45.18 5.006-40.477 12.808c-4.555 1.441-9.36-1.361-10.348-6.035-.989-4.675 2.27-9.182 7.019-9.708l23.655-2.622-24.213-4.108c-4.71-.8-7.704-5.488-6.447-10.097 1.256-4.61 6.215-7.13 10.679-5.428l21.369 8.145-15.942-14.806c-3.501-3.251-3.434-8.813.144-11.979 3.579-3.166 9.107-2.554 11.908 1.317l12.513 17.299-5.696-18.001z" fill="#D9586A"/><path fill-rule="evenodd" clip-rule="evenodd" d="M273.632 430.51c-1.441-4.555 1.361-9.36 6.035-10.348 4.675-.989 9.182 2.27 9.708 7.019l2.122 19.142 4.457-20.973c.994-4.673 5.801-7.471 10.355-6.025 4.554 1.446 6.867 6.505 4.982 10.895l-8.583 19.993 16.241-16.099c3.394-3.363 8.948-3.066 11.963.64 3.015 3.706 2.176 9.205-1.808 11.843l-20.475 13.558 22.689-7.179c4.555-1.441 9.36 1.361 10.349 6.035.988 4.675-2.271 9.182-7.019 9.708l-45.18 5.006-40.477 12.808c-4.555 1.441-9.36-1.361-10.348-6.035-.989-4.675 2.27-9.182 7.019-9.708l23.655-2.622-24.213-4.108c-4.71-.8-7.704-5.488-6.447-10.097 1.256-4.61 6.215-7.13 10.679-5.428l21.369 8.145-15.942-14.806c-3.501-3.251-3.434-8.813.144-11.979 3.579-3.166 9.107-2.554 11.908 1.317l12.513 17.299-5.696-18.001z" fill="url(#paint3_radial)"/><path fill-rule="evenodd" clip-rule="evenodd" d="M300.973 536.816c-1.596-3.712.359-7.99 4.21-9.215 3.85-1.224 7.917 1.14 8.758 5.092l3.392 15.931 1.991-18.024c.443-4.016 4.254-6.773 8.208-5.939 3.953.835 6.324 4.897 5.106 8.75l-5.544 17.544 12.316-14.91c2.573-3.115 7.272-3.331 10.12-.466 2.848 2.866 2.604 7.563-.527 10.117l-16.093 13.13 18.492-7.947c3.712-1.595 7.991.36 9.215 4.21 1.224 3.851-1.14 7.917-5.092 8.759l-37.601 8.005-32.984 14.175c-3.713 1.595-7.991-.36-9.215-4.21-1.224-3.851 1.14-7.917 5.092-8.759l19.686-4.191-20.721-1.425c-4.031-.278-6.943-3.971-6.273-7.956.671-3.984 4.632-6.521 8.531-5.464l18.666 5.061-14.659-11.121c-3.218-2.443-3.629-7.129-.883-10.093 2.745-2.964 7.449-2.914 10.13.109l11.983 13.507-6.304-14.67z" fill="#C392FF"/><path fill-rule="evenodd" clip-rule="evenodd" d="M319.138 617.899c-2.576-3.113-1.906-7.768 1.443-10.028 3.35-2.259 7.918-1.137 9.839 2.418l6.215 11.504-.308-14.52c-.086-4.039 3.332-7.272 7.36-6.962 4.029.31 6.911 4.028 6.208 8.007l-3.646 20.636 11.947-14.937c2.524-3.156 7.218-3.446 10.112-.626 2.893 2.821 2.722 7.521-.368 10.125l-15.924 13.415 16.913-8.745c3.589-1.856 7.996-.212 9.491 3.542 1.496 3.753-.572 7.978-4.454 9.099l-28.819 8.323-.13.262-.336-.128-.344.1-28.745 23.795c-3.113 2.577-7.769 1.907-10.028-1.443-2.26-3.35-1.137-7.917 2.418-9.838l21.166-11.437-22.299 4.915c-3.946.87-7.781-1.854-8.26-5.866-.479-4.012 2.606-7.562 6.646-7.646l18.901-.394-15.28-5.812c-3.777-1.436-5.491-5.817-3.692-9.434 1.8-3.618 6.327-4.895 9.751-2.75l18.354 11.495-14.131-17.07z" fill="#8312B6"/><path fill-rule="evenodd" clip-rule="evenodd" d="M319.138 617.899c-2.576-3.113-1.906-7.768 1.443-10.028 3.35-2.259 7.918-1.137 9.839 2.418l6.215 11.504-.308-14.52c-.086-4.039 3.332-7.272 7.36-6.962 4.029.31 6.911 4.028 6.208 8.007l-3.646 20.636 11.947-14.937c2.524-3.156 7.218-3.446 10.112-.626 2.893 2.821 2.722 7.521-.368 10.125l-15.924 13.415 16.913-8.745c3.589-1.856 7.996-.212 9.491 3.542 1.496 3.753-.572 7.978-4.454 9.099l-28.819 8.323-.13.262-.336-.128-.344.1-28.745 23.795c-3.113 2.577-7.769 1.907-10.028-1.443-2.26-3.35-1.137-7.917 2.418-9.838l21.166-11.437-22.299 4.915c-3.946.87-7.781-1.854-8.26-5.866-.479-4.012 2.606-7.562 6.646-7.646l18.901-.394-15.28-5.812c-3.777-1.436-5.491-5.817-3.692-9.434 1.8-3.618 6.327-4.895 9.751-2.75l18.354 11.495-14.131-17.07z" fill="url(#paint4_radial)"/><path fill-rule="evenodd" clip-rule="evenodd" d="M370.476 696.502c-2.563 3.123-1.873 7.776 1.486 10.022l13.275 8.872-17.405-4.806c-3.895-1.075-7.867 1.444-8.556 5.425-.689 3.981 2.206 7.688 6.236 7.984l18.35 1.347-18.411 5.918c-3.847 1.237-5.788 5.522-4.181 9.229 1.607 3.707 6.061 5.219 9.593 3.257l19.053-10.585-15.037 14.733c-2.887 2.827-2.704 7.528.392 10.123 3.097 2.596 7.757 1.954 10.037-1.382l16.17-23.659.174.427 37.076-11.053c3.872-1.154 5.904-5.397 4.376-9.137-1.528-3.741-5.949-5.347-9.522-3.461l-23.938 12.64 22.002-17.971c3.129-2.556 3.371-7.254.521-10.118-2.85-2.864-7.549-2.645-10.12.472l-18.565 22.504 15.595-25.634c2.1-3.452.765-7.962-2.876-9.715-3.641-1.752-7.999.019-9.386 3.814l-6.692 18.305-.267-18.624c-.058-4.04-3.588-7.149-7.602-6.696-4.015.453-6.764 4.271-5.92 8.222l4.016 18.801-9.755-9.752c-2.858-2.856-7.556-2.625-10.119.498z" fill="#9C2855"/><path fill-rule="evenodd" clip-rule="evenodd" d="M370.476 696.502c-2.563 3.123-1.873 7.776 1.486 10.022l13.275 8.872-17.405-4.806c-3.895-1.075-7.867 1.444-8.556 5.425-.689 3.981 2.206 7.688 6.236 7.984l18.35 1.347-18.411 5.918c-3.847 1.237-5.788 5.522-4.181 9.229 1.607 3.707 6.061 5.219 9.593 3.257l19.053-10.585-15.037 14.733c-2.887 2.827-2.704 7.528.392 10.123 3.097 2.596 7.757 1.954 10.037-1.382l16.17-23.659.174.427 37.076-11.053c3.872-1.154 5.904-5.397 4.376-9.137-1.528-3.741-5.949-5.347-9.522-3.461l-23.938 12.64 22.002-17.971c3.129-2.556 3.371-7.254.521-10.118-2.85-2.864-7.549-2.645-10.12.472l-18.565 22.504 15.595-25.634c2.1-3.452.765-7.962-2.876-9.715-3.641-1.752-7.999.019-9.386 3.814l-6.692 18.305-.267-18.624c-.058-4.04-3.588-7.149-7.602-6.696-4.015.453-6.764 4.271-5.92 8.222l4.016 18.801-9.755-9.752c-2.858-2.856-7.556-2.625-10.119.498z" fill="url(#paint5_radial)"/><path fill-rule="evenodd" clip-rule="evenodd" d="M48.5395 259.177c-3.9776-.71-6.4756-4.696-5.38-8.585 1.0955-3.889 5.3067-5.985 9.0698-4.514l16.0532 6.275-10.5658-14.032c-2.4304-3.227-1.5465-7.847 1.9036-9.95 3.4501-2.103 7.9615-.771 9.7164 2.868l6.9307 14.373-1.7836-19.305c-.3717-4.023 2.808-7.49 6.8484-7.466 4.0404.024 7.1788 3.528 6.7595 7.547l-2.2869 21.918 8.3778-20.961c1.4996-3.752 5.9084-5.392 9.4954-3.532 3.587 1.86 4.788 6.408 2.586 9.795l-18.5694 28.571-.0875.311.9253 3.759-1.3333.471 3.5582 33.446c.4274 4.017-2.704 7.527-6.7443 7.559-4.0403.033-7.227-3.427-6.8634-7.451l2.5885-28.651-11.3503 24.269c-1.7117 3.66-6.207 5.045-9.6818 2.984-3.4748-2.062-4.4133-6.671-2.0214-9.928l11.3621-15.467-15.9963 5.646c-3.81 1.345-7.9491-.89-8.9146-4.813-.9655-3.924 1.6638-7.824 5.6628-8.401l20.7366-2.991-20.9957-3.745z" fill="#EAA132"/><path fill-rule="evenodd" clip-rule="evenodd" d="M48.5395 259.177c-3.9776-.71-6.4756-4.696-5.38-8.585 1.0955-3.889 5.3067-5.985 9.0698-4.514l16.0532 6.275-10.5658-14.032c-2.4304-3.227-1.5465-7.847 1.9036-9.95 3.4501-2.103 7.9615-.771 9.7164 2.868l6.9307 14.373-1.7836-19.305c-.3717-4.023 2.808-7.49 6.8484-7.466 4.0404.024 7.1788 3.528 6.7595 7.547l-2.2869 21.918 8.3778-20.961c1.4996-3.752 5.9084-5.392 9.4954-3.532 3.587 1.86 4.788 6.408 2.586 9.795l-18.5694 28.571-.0875.311.9253 3.759-1.3333.471 3.5582 33.446c.4274 4.017-2.704 7.527-6.7443 7.559-4.0403.033-7.227-3.427-6.8634-7.451l2.5885-28.651-11.3503 24.269c-1.7117 3.66-6.207 5.045-9.6818 2.984-3.4748-2.062-4.4133-6.671-2.0214-9.928l11.3621-15.467-15.9963 5.646c-3.81 1.345-7.9491-.89-8.9146-4.813-.9655-3.924 1.6638-7.824 5.6628-8.401l20.7366-2.991-20.9957-3.745z" fill="url(#paint6_radial)"/><path fill-rule="evenodd" clip-rule="evenodd" d="M-38.9514 248.359c-.3105 4.029 2.9216 7.446 6.9611 7.361l8.4646-.179-6.4673 1.327c-3.958.812-6.3522 4.861-5.1565 8.721 1.1956 3.859 5.4595 5.845 9.1834 4.278l16.95812-7.139-13.71092 13.638c-2.8645 2.85-2.6465 7.548.4697 10.12 3.1162 2.572 7.7711 1.895 10.0256-1.458l11.58896-17.235-6.20709 19.146c-1.24603 3.843 1.09497 7.923 5.04199 8.787 3.94701.864 7.7782-1.865 8.2515-5.878l4.31434-36.577 19.8642-32.402c2.1117-3.444.7917-7.959-2.8431-9.724-3.6349-1.764-7.9988-.008-9.3989 3.782l-9.57724 25.924 4.72184-28.519c.66-3.986-2.2623-7.672-6.29395-7.939-4.03163-.266-7.41385 3.003-7.28452 7.041l.64375 20.102-6.89731-16.527c-1.55615-3.729-5.98917-5.302-9.54767-3.388-3.5585 1.913-4.6901 6.479-2.4373 9.833l9.16067 13.639-12.92137-10.353c-3.1532-2.526-7.7978-1.782-10.0033 1.604-2.2056 3.385-1.01 7.934 2.575 9.798l18.2769 9.501-19.7484-3.491c-3.9787-.703-7.6963 2.179-8.0068 6.207z" fill="#D66619"/><path fill-rule="evenodd" clip-rule="evenodd" d="M-38.9514 248.359c-.3105 4.029 2.9216 7.446 6.9611 7.361l8.4646-.179-6.4673 1.327c-3.958.812-6.3522 4.861-5.1565 8.721 1.1956 3.859 5.4595 5.845 9.1834 4.278l16.95812-7.139-13.71092 13.638c-2.8645 2.85-2.6465 7.548.4697 10.12 3.1162 2.572 7.7711 1.895 10.0256-1.458l11.58896-17.235-6.20709 19.146c-1.24603 3.843 1.09497 7.923 5.04199 8.787 3.94701.864 7.7782-1.865 8.2515-5.878l4.31434-36.577 19.8642-32.402c2.1117-3.444.7917-7.959-2.8431-9.724-3.6349-1.764-7.9988-.008-9.3989 3.782l-9.57724 25.924 4.72184-28.519c.66-3.986-2.2623-7.672-6.29395-7.939-4.03163-.266-7.41385 3.003-7.28452 7.041l.64375 20.102-6.89731-16.527c-1.55615-3.729-5.98917-5.302-9.54767-3.388-3.5585 1.913-4.6901 6.479-2.4373 9.833l9.16067 13.639-12.92137-10.353c-3.1532-2.526-7.7978-1.782-10.0033 1.604-2.2056 3.385-1.01 7.934 2.575 9.798l18.2769 9.501-19.7484-3.491c-3.9787-.703-7.6963 2.179-8.0068 6.207z" fill="url(#paint7_radial)"/><path opacity=".3" d="M465.172 570.76c-15.18 15.556-40.096 15.861-55.652.681-15.556-15.18-15.861-40.097-.681-55.653 15.18-15.556 40.097-15.86 55.653-.68 15.556 15.18 15.86 40.096.68 55.652z" fill="#9C2855"/><path d="M176.829 620.709c-2.685 2.752-7.094 2.806-9.846.12-2.752-2.685-2.806-7.094-.12-9.846 2.685-2.752 7.094-2.806 9.846-.12 2.752 2.685 2.806 7.094.12 9.846z" fill="#3A058D"/><path d="M53.9494-4.03476c-2.6857 2.7522-7.094 2.8061-9.8462.12039-2.7522-2.68571-2.8061-7.09403-.1204-9.84623 2.6857-2.7522 7.094-2.8061 9.8462-.1204 2.7522 2.6857 2.8061 7.09403.1204 9.84624zM69.633 607.465c-3.7366 3.829-9.8699 3.904-13.6991.167-3.8291-3.737-3.9041-9.87-.1675-13.699 3.7367-3.829 9.87-3.904 13.6991-.167 3.8292 3.736 3.9042 9.869.1675 13.699z" fill="#7A037E"/><path d="M191.433 488.904c-2.102 2.153-5.552 2.196-7.706.094-2.154-2.102-2.196-5.552-.094-7.706 2.102-2.154 5.552-2.196 7.705-.094 2.154 2.102 2.197 5.552.095 7.706zM362.381 218.197c-2.102 2.153-5.552 2.196-7.706.094-2.154-2.102-2.196-5.552-.094-7.706 2.102-2.154 5.552-2.196 7.706-.094 2.154 2.102 2.196 5.552.094 7.706zM68.6055 208.511c-2.1018 2.154-5.5518 2.197-7.7057.095s-2.1961-5.552-.0942-7.706c2.1018-2.154 5.5518-2.196 7.7057-.094 2.1539 2.102 2.1961 5.552.0942 7.705z" fill="#3A058D"/><path d="M84.6357 409.978c-11.3332 20.195-36.8924 27.38-57.0883 16.047C7.35161 414.692.16696 389.133 11.5001 368.937c11.3331-20.196 36.8924-27.381 57.0882-16.048 20.1958 11.333 27.3805 36.893 16.0474 57.089z" fill="#5005B3" fill-opacity=".3"/><path opacity=".6" d="M141.632 472.465c-3.737 3.829-9.87 3.904-13.699.167-3.829-3.736-3.904-9.87-.168-13.699 3.737-3.829 9.87-3.904 13.7-.167 3.829 3.736 3.904 9.87.167 13.699z" fill="#7A037E"/><g clip-path="url(#clip1)"><path fill-rule="evenodd" clip-rule="evenodd" d="M320.105 286.866c.861-.232 1.747.278 1.979 1.138l-1.558.421 1.558-.421.001.006.004.014.014.052c.012.044.028.109.05.192.043.165.103.404.175.701.145.593.337 1.422.53 2.369.38 1.863.784 4.294.786 6.281.004 3.988-1.403 6.951-2.466 8.278-.558.696-1.573.808-2.269.251-.695-.558-.807-1.573-.25-2.269.588-.734 1.761-2.979 1.758-6.257-.002-1.646-.35-3.813-.722-5.64-.182-.898-.365-1.686-.503-2.25-.068-.281-.125-.506-.164-.658-.02-.077-.035-.135-.046-.174l-.011-.043-.003-.01v-.002m1.137-1.979c-.86.233-1.369 1.119-1.137 1.979l1.137-1.979zM312.072 281.21c.797.398 1.121 1.367.723 2.164l-5.137 10.298c-.151.303-.308.602-.466.902-.562 1.067-1.125 2.136-1.404 3.386-.325 1.453-.229 3.084 1.132 4.935.527.718.373 1.729-.345 2.256-.718.528-1.728.374-2.256-.345-1.974-2.686-2.185-5.293-1.681-7.55.385-1.719 1.215-3.285 1.79-4.368.13-.245.247-.465.342-.656l5.137-10.298c.398-.798 1.367-1.122 2.165-.724zM315.826 287.945c.891-.001 1.614.721 1.615 1.612l.011 11.207c.001.892-.721 1.615-1.612 1.616-.892.001-1.615-.721-1.616-1.613l-.011-11.207c0-.891.721-1.614 1.613-1.615z" fill="#FFCBDC"/><path fill-rule="evenodd" clip-rule="evenodd" d="M311.12 285.724c-.891.001-1.613.725-1.612 1.616l.012 12.412c0 .299.009.628.02.981.03 1.046.067 2.307-.115 3.65-.241 1.782-.824 3.23-1.957 4.056-.721.525-.879 1.534-.354 2.254.525.721 1.534.879 2.255.354 2.194-1.599 2.97-4.13 3.255-6.23.222-1.644.171-3.319.139-4.37-.009-.282-.016-.519-.016-.698l-.012-12.412c-.001-.892-.724-1.613-1.615-1.613z" fill="#FFCBDC"/><path d="M327.755 288.372c.004 3.977-7.185 1.001-14.37 1.008-7.185.007-14.367 2.997-14.371-.98-.008-7.953 6.403-14.377 14.356-14.384 7.954-.008 14.377 6.403 14.385 14.356z" fill="#fff"/><path d="M301.454 288.398c-.007-7.547 5.771-13.699 13.137-14.338-.407-.045-.814-.045-1.221-.044-7.953.007-14.364 6.431-14.356 14.384.002 1.943 1.764 2.213 4.385 1.984-1.22-.179-1.944-.721-1.945-1.986zM314.724 283.043c1.323-.001 2.394-1.075 2.393-2.397-.002-1.323-1.075-2.394-2.398-2.393-1.322.001-2.394 1.074-2.392 2.397.001 1.323 1.074 2.394 2.397 2.393zM319.311 285.588c.923-.001 1.671-.75 1.67-1.674 0-.923-.75-1.671-1.673-1.67-.924.001-1.672.75-1.671 1.673.001.924.751 1.672 1.674 1.671z" fill="#FFCBDC"/></g><g clip-path="url(#clip2)"><path fill-rule="evenodd" clip-rule="evenodd" d="M77.9641 468.789c.9462.05 1.6729.857 1.6233 1.803l-.7001 13.337c-.0635 1.209.5571 2.272 1.5156 2.808.4211.219.8849.362 1.3612.387.9462.05 1.6729.857 1.6232 1.803-.0496.947-.8569 1.673-1.803 1.624-1.0532-.056-2.0032-.369-2.7953-.786l-.0145-.008-.0143-.008c-2.1193-1.168-3.4319-3.474-3.2992-6l.7-13.337c.0497-.946.857-1.673 1.8031-1.623zM63.6453 462.024c.9461.05 1.6729.857 1.6232 1.803l-.6976 13.289c-.1881 3.585-3.2675 6.357-6.8522 6.169-.9462-.05-1.6729-.857-1.6233-1.803.0497-.947.857-1.673 1.8031-1.624 1.6924.089 3.1573-1.23 3.2461-2.922l.6976-13.289c.0497-.946.8569-1.673 1.8031-1.623zM72.9124 469.726c.9461.05 1.6729.857 1.6232 1.803l-.6245 11.898c-.0497.946-.857 1.673-1.8031 1.623-.9462-.05-1.6729-.857-1.6233-1.803l.6246-11.898c.0497-.946.8569-1.673 1.8031-1.623z" fill="#7F54FA"/><path fill-rule="evenodd" clip-rule="evenodd" d="M68.1693 464.763c.9462.05 1.6729.857 1.6233 1.803l-.9091 17.318c-.163 3.105-2.788 5.469-5.893 5.306-.9461-.05-1.6729-.857-1.6232-1.804.0497-.946.8569-1.672 1.8031-1.623 1.2126.064 2.2231-.846 2.2867-2.058l.9091-17.319c.0497-.946.857-1.673 1.8031-1.623z" fill="#7F54FA"/><path d="M85.5512 470.857c-.2216 4.222-7.6832.655-15.311.255-7.6278-.401-15.4218 2.365-15.2002-1.857.4432-8.443 7.6131-14.898 16.0564-14.454 8.4434.443 14.898 7.613 14.4548 16.056z" fill="#6F00FF"/><path d="M57.6306 469.391c.4205-8.011 6.9036-14.213 14.7586-14.474-.4293-.071-.861-.094-1.2928-.116-8.4433-.444-15.6132 6.011-16.0564 14.454-.1083 2.063 1.7476 2.449 4.5426 2.355-1.2852-.259-2.0225-.875-1.952-2.219zM78.8167 469.012c1.4042.074 2.6023-1.005 2.676-2.409.0738-1.404-1.0048-2.602-2.4091-2.676-1.4042-.074-2.6023 1.005-2.6761 2.409-.0737 1.404 1.0049 2.602 2.4092 2.676z" fill="#7F54FA"/><path d="M68.2395 463.406c1.4043.073 2.6024-1.005 2.6761-2.409.0737-1.405-1.0049-2.603-2.4091-2.677-1.4043-.073-2.6024 1.005-2.6761 2.41-.0737 1.404 1.0049 2.602 2.4091 2.676zM71.5359 468.438c.9804.051 1.8168-.702 1.8682-1.682.0515-.981-.7015-1.817-1.6818-1.868-.9803-.052-1.8168.701-1.8682 1.681-.0515.981.7015 1.817 1.6818 1.869z" fill="#7F54FA"/></g><g clip-path="url(#clip3)" fill="#fff"><path d="M42.258 157.855l-11.705 6.766-6.478 11.867 11.705-6.766 6.478-11.867z"/><path d="M42.7255 176.499l-6.7663-11.705-11.867-6.478 6.7663 11.705 11.867 6.478z"/></g><g clip-path="url(#clip4)" fill="#fff"><path d="M370.526 535.927l-11.705 6.767-6.478 11.867 11.705-6.767 6.478-11.867z"/><path d="M370.993 554.571l-6.766-11.705-11.867-6.478 6.766 11.705 11.867 6.478z"/></g><path d="M235.658 323.949c-.934.958-2.467.976-3.425.042-.957-.934-.976-2.467-.042-3.425.935-.957 2.468-.976 3.425-.042.957.935.976 2.468.042 3.425zM167.497 352.185c-.934.957-2.468.976-3.425.042-.957-.934-.976-2.468-.042-3.425.934-.957 2.468-.976 3.425-.042.957.934.976 2.468.042 3.425z" fill="#8BFB8E"/><path opacity=".3" d="M441.246 143.393c-41.337 42.36-109.186 43.189-151.546 1.853-42.36-41.337-43.19-109.1866-1.853-151.54664C329.183-48.6607 397.033-49.4903 439.393-8.15366c42.36 41.33666 43.19 109.18566 1.853 151.54666z" fill="#7707E4"/></g><defs><radialGradient id="paint2_radial" cx="0" cy="0" r="1" gradientUnits="userSpaceOnUse" gradientTransform="matrix(-24.00001 -35 41.19561 -28.24843 231 377.5)"><stop offset=".77604" stop-color="#89FC90" stop-opacity="0"/><stop offset="1" stop-color="#89FC8F"/></radialGradient><radialGradient id="paint3_radial" cx="0" cy="0" r="1" gradientUnits="userSpaceOnUse" gradientTransform="matrix(-27.70767 -47.306 42.85576 -25.10111 288.5 466)"><stop offset=".48958" stop-color="#8AFD90" stop-opacity="0"/><stop offset="1" stop-color="#8BFB8E"/></radialGradient><radialGradient id="paint4_radial" cx="0" cy="0" r="1" gradientUnits="userSpaceOnUse" gradientTransform="matrix(-35.4947 -35.13843 30.6352 -30.94581 343 650)"><stop offset=".69271" stop-color="#D7F962" stop-opacity="0"/><stop offset="1" stop-color="#D7F962"/></radialGradient><radialGradient id="paint5_radial" cx="0" cy="0" r="1" gradientUnits="userSpaceOnUse" gradientTransform="matrix(13.49996 27.49997 -32.56578 15.9868 394.5 709.5)"><stop offset=".73958" stop-color="#D7F963" stop-opacity="0"/><stop offset="1" stop-color="#D7F962"/></radialGradient><radialGradient id="paint6_radial" cx="0" cy="0" r="1" gradientUnits="userSpaceOnUse" gradientTransform="matrix(-41.33 4.76962 -6.90657 -59.8473 80.001 264)"><stop offset=".4375" stop-color="#D7F962" stop-opacity="0"/><stop offset=".78646" stop-color="#D7F962"/></radialGradient><radialGradient id="paint7_radial" cx="0" cy="0" r="1" gradientUnits="userSpaceOnUse" gradientTransform="rotate(-169.778 2.173 131.41311) scale(24.8535 36.2532)"><stop offset=".41146" stop-color="#E2FF8B" stop-opacity="0"/><stop offset=".875" stop-color="#D7FF63"/></radialGradient><clipPath id="clip0"><path fill="#fff" d="M0 0h413v734.589H0z"/></clipPath><clipPath id="clip1"><path transform="rotate(-.055 299 274.03)" fill="#fff" d="M299 274.03h30.8787v38.1443H299z"/></clipPath><clipPath id="clip2"><path transform="rotate(3.005 55.8408 454)" fill="#fff" d="M55.8408 454H86.394v35.117H55.8408z"/></clipPath><clipPath id="clip3"><path transform="rotate(44.3 33.1836 149)" fill="#fff" d="M33.1836 149h26.035v26.035h-26.035z"/></clipPath><clipPath id="clip4"><path transform="rotate(44.3 361.451 527.072)" fill="#fff" d="M361.451 527.072h26.035v26.035h-26.035z"/></clipPath><linearGradient id="paint0_linear" x1="184.5" y1="735" x2="184.5" y2="0" gradientUnits="userSpaceOnUse"><stop stop-color="#1C0344"/><stop offset="1" stop-color="#5404D1"/></linearGradient><linearGradient id="paint1_linear" x1="-206.79" y1="258.499" x2="326.827" y2="759.344" gradientUnits="userSpaceOnUse"><stop offset=".1228" stop-color="#C73A06"/><stop offset=".36979" stop-color="#FFE14D"/><stop offset=".59481" stop-color="#FF7734"/><stop offset=".76816" stop-color="#6F00FF"/><stop offset="1" stop-color="#9C2855"/></linearGradient></defs></svg>