<?xml version="1.0" encoding="utf-8"?>
<!-- Generator: Adobe Illustrator 18.0.0, SVG Export Plug-In . SVG Version: 6.00 Build 0)  -->
<!DOCTYPE svg PUBLIC "-//W3C//DTD SVG 1.1//EN" "http://www.w3.org/Graphics/SVG/1.1/DTD/svg11.dtd">
<svg version="1.1" id="Layer_1" xmlns="http://www.w3.org/2000/svg" xmlns:xlink="http://www.w3.org/1999/xlink" x="0px" y="0px"
	 width="69.9px" height="70px" viewBox="0 0 69.9 70" enable-background="new 0 0 69.9 70" xml:space="preserve">
<g>
	<g opacity="9.000000e-02">
		<path d="M3.2,72.4L3.2,72.4c-0.5-0.5-0.5-1.4,0-1.9l4-4l1.9,1.9l-4,4C4.6,72.9,3.8,72.9,3.2,72.4z"/>
		<path d="M6.9,58.5c-3,3-3.1,7.5-0.2,10.4s7.6,2.7,10.5-0.3l4.4-4.4L11.4,53.9L6.9,58.5z"/>
		<path opacity="0.1" d="M19,61.5c-2,4.3-6.6,7.5-11.4,6.9l-0.8,0.5c3,3,7.7,2.7,10.6-0.2l4.4-4.4L19,61.5z"/>
		<path fill="none" stroke="#000000" stroke-width="2.814" stroke-miterlimit="10" d="M56,7.7c0,0-3.5-4.1-8-1S42.1,21.2,38,24.8
			s-7.9,1.8-7.9,1.8"/>
		<ellipse transform="matrix(0.9964 8.451612e-02 -8.451612e-02 0.9964 2.2886 -2.4851)" cx="30.5" cy="25.8" rx="2.7" ry="2.2"/>
		<rect x="56.3" y="1.1" transform="matrix(-0.707 -0.7072 0.7072 -0.707 91.1861 68.9998)" width="7.1" height="29.1"/>
		<path d="M8.9,55.9l10.7,10.7c0.5,0.5,1.3,0.5,1.8,0l49.7-49.7c0.5-0.5,0.5-1.3,0-1.8L60.4,4.4c-0.5-0.5-1.3-0.5-1.8,0L8.9,54.1
			C8.4,54.6,8.4,55.4,8.9,55.9z"/>
		<path d="M60.6,4.2l10.7,10.7c0.5,0.5,0.5,1.3,0,1.8l-5.4,5.4c-0.5,0.5-1.3,0.5-1.8,0L53.3,11.4c-0.5-0.5-0.5-1.3,0-1.8l5.4-5.4
			C59.2,3.7,60.1,3.7,60.6,4.2z"/>
		<rect x="49.8" y="15.5" transform="matrix(-0.7071 -0.7071 0.7071 -0.7071 88.2857 70.1993)" width="17.7" height="2.6"/>
		<rect x="52.9" y="12.4" transform="matrix(-0.7071 -0.7071 0.7071 -0.7071 95.7385 67.1128)" width="17.7" height="2.6"/>
		<path opacity="0.1" d="M68.4,12.2l4.4-4.3l-2.5-2.5L14.3,61.4l5.3,5.3c0.5,0.5,1.3,0.5,1.8,0l50.8-50.8L68.4,12.2z"/>
	</g>
	<g>
		<g>
			<path fill="#7474D1" d="M0.4,69.6L0.4,69.6c-0.5-0.5-0.5-1.4,0-1.9l4-4l1.9,1.9l-4,4C1.8,70.1,0.9,70.1,0.4,69.6z"/>
			<path fill="#DBDBDB" d="M4.1,55.7c-3,3-3.1,7.5-0.2,10.4s7.6,2.7,10.5-0.3l4.4-4.4L8.6,51.1L4.1,55.7z"/>
			<path opacity="0.1" d="M16.1,58.6c-2,4.3-6.6,7.5-11.4,6.9L3.9,66c3,3,7.7,2.7,10.6-0.2l4.4-4.4L16.1,58.6z"/>
			<path fill="none" stroke="#A2A2A2" stroke-width="2.814" stroke-miterlimit="10" d="M53.2,4.9c0,0-3.5-4.1-8-1S39.3,18.4,35.2,22
				s-7.9,1.8-7.9,1.8"/>
			
				<ellipse transform="matrix(0.9964 8.451612e-02 -8.451612e-02 0.9964 2.0407 -2.2574)" fill="#A2A2A2" cx="27.7" cy="23" rx="2.7" ry="2.2"/>
			<g>
				
					<rect x="53.5" y="-1.7" transform="matrix(-0.707 -0.7072 0.7072 -0.707 88.3728 62.2062)" fill="#7474D1" width="7.1" height="29.1"/>
				<path fill="#7474D1" d="M6.1,53.1l10.7,10.7c0.5,0.5,1.3,0.5,1.8,0l49.7-49.7c0.5-0.5,0.5-1.3,0-1.8L57.6,1.6
					c-0.5-0.5-1.3-0.5-1.8,0L6.1,51.2C5.6,51.7,5.6,52.6,6.1,53.1z"/>
				<path fill="#DBDBDB" d="M57.7,1.4l10.7,10.7c0.5,0.5,0.5,1.3,0,1.8l-5.4,5.4c-0.5,0.5-1.3,0.5-1.8,0L50.5,8.6
					c-0.5-0.5-0.5-1.3,0-1.8l5.4-5.4C56.4,0.9,57.2,0.9,57.7,1.4z"/>
				
					<rect x="47" y="12.7" transform="matrix(-0.7071 -0.7071 0.7071 -0.7071 85.4719 63.4057)" fill="#A2A2A2" width="17.7" height="2.6"/>
				
					<rect x="50.1" y="9.6" transform="matrix(-0.7071 -0.7071 0.7071 -0.7071 92.9248 60.3192)" fill="#A2A2A2" width="17.7" height="2.6"/>
			</g>
			<path opacity="0.1" d="M65.5,9.4l4.4-4.3l-2.5-2.5L11.5,58.6l5.3,5.3c0.5,0.5,1.3,0.5,1.8,0L69.4,13L65.5,9.4z"/>
		</g>
	</g>
</g>
</svg>
