<svg xmlns="http://www.w3.org/2000/svg" width="77.8" height="77.8" viewBox="0 0 77.8 77.8"><g opacity=".09"><path d="M4 78.4l1 1c1.4 1.4 3.5 1.6 5.1.5l15.4-9-13-13-9 15.4c-1.1 1.6-.9 3.8.5 5.1z"/><path d="M25.637 73.106L10.293 57.76 65.235 2.82l15.344 15.344z"/><path d="M30.021 68.722L14.677 53.377 60.85 7.204l15.344 15.344z"/><path d="M68.15 30.594L52.808 15.25l1.838-1.839L69.99 28.755zm3.14-3.158L55.946 12.092l1.839-1.838 15.344 15.344zM33.103 65.565L17.76 50.22l1.839-1.839 15.344 15.344zm3.069-3.087L20.828 47.134l1.838-1.838L38.011 60.64zM36.5 45l1.8 1.8c2.4 2.4 6.4 2.4 8.8 0l10.2-10.2c2.4-2.4 2.4-6.4 0-8.8L55.5 26c-2.4-2.4-6.4-2.4-8.8 0L36.5 36.2c-2.4 2.5-2.4 6.4 0 8.8z"/><path opacity=".25" d="M73.028 10.61l7.566 7.567-54.941 54.941-7.566-7.566z"/><path opacity=".25" d="M21.8 69.2l2.4 2.4L10 79.8c-1.6 1.1-3.7.9-5.1-.5l-1-1c-.2-.2-.4-.5-.6-.8 1.3.8 3 .7 4.3-.2l14.2-8.1z"/></g><path fill="#FD7600" d="M1.2 75.6l1 1c1.4 1.4 3.5 1.6 5.1.5l15.4-9-13-13-9 15.4c-1.1 1.6-.9 3.8.5 5.1z"/><path fill="#FD7600" d="M22.823 70.272L7.48 54.928 62.421-.014 77.765 15.33z"/><path fill="#FDCD9D" d="M27.207 65.888L11.863 50.544 58.037 4.37 73.38 19.714z"/><path fill="#FD7600" d="M65.337 27.76L49.993 12.416l1.838-1.839 15.344 15.344zm3.069-3.087L53.062 9.33 54.9 7.491l15.344 15.344zM30.29 62.73L14.944 47.388l1.839-1.839 15.344 15.344zm3.139-3.015L18.085 44.371l1.838-1.838 15.344 15.344zM33.7 42.2l1.8 1.8c2.4 2.4 6.4 2.4 8.8 0l10.2-10.2c2.4-2.4 2.4-6.4 0-8.8l-1.8-1.8c-2.4-2.4-6.4-2.4-8.8 0L33.7 33.4c-2.4 2.4-2.4 6.4 0 8.8z"/><path opacity=".25" fill="#823B00" d="M70.214 7.817l7.566 7.566-54.94 54.941-7.566-7.566zM18.9 66.4l2.4 2.4L7.2 77c-1.6 1.1-3.7.9-5.1-.5l-1-1c-.2-.2-.4-.5-.6-.8 1.3.8 3 .7 4.3-.2l14.1-8.1z"/></svg>