<?xml version="1.0" encoding="utf-8"?>
<!-- Generator: Adobe Illustrator 18.0.0, SVG Export Plug-In . SVG Version: 6.00 Build 0)  -->
<!DOCTYPE svg PUBLIC "-//W3C//DTD SVG 1.1//EN" "http://www.w3.org/Graphics/SVG/1.1/DTD/svg11.dtd">
<svg version="1.1" id="Layer_1" xmlns="http://www.w3.org/2000/svg" xmlns:xlink="http://www.w3.org/1999/xlink" x="0px" y="0px"
	 width="74.8px" height="74.8px" viewBox="0 0 74.8 74.8" enable-background="new 0 0 74.8 74.8" xml:space="preserve">
<g>
	<g opacity="9.000000e-02">
		<path fill="none" stroke="#000000" stroke-width="2.814" stroke-miterlimit="10" d="M59,9.7c0,0-3.5-4.1-8-1S45.1,23.2,41,26.8
			s-7.9,1.8-7.9,1.8"/>
		<ellipse transform="matrix(0.9964 8.451612e-02 -8.451612e-02 0.9964 2.4643 -2.7313)" cx="33.5" cy="27.7" rx="2.7" ry="2.2"/>
		<rect x="4.3" y="73" transform="matrix(0.7071 0.7071 -0.7071 0.7071 54.7684 18.537)" width="1.4" height="4.8"/>
		<path d="M4.5,75.5L4.9,76c0.7,0.7,1.3-0.7,2.7-2l16.8-5.5L12,55.9L6.4,72.8C5.1,74.2,3.8,74.8,4.5,75.5z"/>
		<rect x="56.6" y="3" transform="matrix(-0.7071 -0.7072 0.7072 -0.7071 94.9224 74.4479)" width="12.6" height="29.1"/>
		<rect x="34.6" y="1.2" transform="matrix(-0.7071 -0.7071 0.7071 -0.7071 48.1314 93.8245)" width="17.7" height="71.4"/>
		<rect x="56.4" y="10" transform="matrix(-0.7071 -0.7071 0.7071 -0.7071 100.7686 72.0258)" width="17.7" height="10.2"/>
		<rect x="52.8" y="17.4" transform="matrix(-0.7071 -0.7071 0.7071 -0.7071 92.0186 75.6493)" width="17.7" height="2.6"/>
		<rect x="55.9" y="14.4" transform="matrix(-0.7071 -0.7071 0.7071 -0.7071 99.4715 72.5629)" width="17.7" height="2.6"/>
		<polygon opacity="0.1" points="73.2,16 77.6,11.7 73.3,7.4 18.3,62.4 24.5,68.5 75.2,17.8 		"/>
		<path opacity="0.1" d="M22,66l2.4,2.4L7.6,74c-1.4,1.3-2,2.6-2.7,1.9l-0.5-0.5c-0.1-0.1-0.2-0.3-0.3-0.5c0.8,0.2,1.9-0.4,3-1.5
			L22,66z"/>
	</g>
	<g>
		<g>
			<path fill="none" stroke="#A2A2A2" stroke-width="2.814" stroke-miterlimit="10" d="M56.2,6.9c0,0-3.5-4.1-8-1S42.3,20.4,38.2,24
				s-7.9,1.8-7.9,1.8"/>
			
				<ellipse transform="matrix(0.9964 8.451612e-02 -8.451612e-02 0.9964 2.2164 -2.5035)" fill="#A2A2A2" cx="30.7" cy="24.9" rx="2.7" ry="2.2"/>
			<g>
				
					<rect x="1.5" y="70.2" transform="matrix(0.7071 0.7071 -0.7071 0.7071 51.9544 19.7026)" fill="#747474" width="1.4" height="4.8"/>
				<path fill="#DBDBDB" d="M1.6,72.7l0.5,0.5c0.7,0.7,1.3-0.7,2.7-2l16.8-5.5L9.2,53.1L3.6,70C2.3,71.4,1,72,1.6,72.7z"/>
				
					<rect x="53.8" y="0.2" transform="matrix(-0.7071 -0.7072 0.7072 -0.7071 92.1086 67.6543)" fill="#E39979" width="12.6" height="29.1"/>
				
					<rect x="31.8" y="-1.6" transform="matrix(-0.7071 -0.7071 0.7071 -0.7071 45.3176 87.0309)" fill="#747474" width="17.7" height="71.4"/>
				
					<rect x="53.6" y="7.2" transform="matrix(-0.7071 -0.7071 0.7071 -0.7071 97.9549 65.2322)" fill="#DBDBDB" width="17.7" height="10.2"/>
				
					<rect x="50" y="14.6" transform="matrix(-0.7071 -0.7071 0.7071 -0.7071 89.2049 68.8558)" fill="#A2A2A2" width="17.7" height="2.6"/>
				
					<rect x="53.1" y="11.5" transform="matrix(-0.7071 -0.7071 0.7071 -0.7071 96.6578 65.7693)" fill="#A2A2A2" width="17.7" height="2.6"/>
			</g>
			<polygon opacity="0.1" points="70.4,13.2 74.8,8.9 70.5,4.6 15.5,59.5 21.7,65.7 72.4,15 			"/>
			<path opacity="0.1" d="M19.2,63.2l2.4,2.4L4.8,71.2c-1.4,1.3-2,2.6-2.7,1.9l-0.5-0.5c-0.1-0.1-0.2-0.3-0.3-0.5
				c0.8,0.2,1.9-0.4,3-1.5L19.2,63.2z"/>
		</g>
	</g>
</g>
</svg>
