<?xml version="1.0" encoding="utf-8"?>
<!-- Generator: Adobe Illustrator 17.0.0, SVG Export Plug-In . SVG Version: 6.00 Build 0)  -->
<!DOCTYPE svg PUBLIC "-//W3C//DTD SVG 1.1//EN" "http://www.w3.org/Graphics/SVG/1.1/DTD/svg11.dtd">
<svg version="1.1" id="Layer_1" xmlns="http://www.w3.org/2000/svg" xmlns:xlink="http://www.w3.org/1999/xlink" x="0px" y="0px"
	 width="40px" height="40px" viewBox="0 0 40 40" enable-background="new 0 0 40 40" xml:space="preserve">
<g id="Shape_790_copy_3_1_" enable-background="new    ">
	<g id="Shape_790_copy_3">
		<g>
			<path fill="#FFFFFF" d="M28.5,17.5c-3.599,0-11,0-13,0c-0.359,0.449,0.054-0.414,0.054-0.414s0.019,0,0.047,0
				c0.045-0.056-0.168,0.5-0.101,0.414c0.609-0.78,4.725-4.848,5.128-5.398s1.534-2.702,0.244-4.065s-2.856-1.848-6.018,1.497
				c-3.162,3.344-8.864,8.691-9.17,8.997S4.932,19.485,4.98,20.35s1.166,1.948,1.727,2.387s9.663,9.485,10.188,10.01
				c0.525,0.525,2.421,0.802,3.615-0.282s1.229-2.578,0.108-3.93C19.497,27.184,15.5,22.5,15.5,22.5h14c0,0,4.5,0.281,4.5-2.177
				S32.242,17.5,28.5,17.5z"/>
		</g>
	</g>
</g>
</svg>
