<svg xmlns="http://www.w3.org/2000/svg" width="40" height="40" viewBox="0 0 40 40"><path fill="#fff" d="M15.108 9.74l.053-.027c.028-.01.056-.02.083-.028l.005-.013c-.052.004-.11.02-.15.018l-.1.057c-.012.007-.034.013-.036.024l.006.004c.022 0 .048-.012.07-.018l.07-.015zm6.6-1.68v.002c-.034.073-.05.117-.14.133v.057l.412.02.09-.06c.038-.017.08-.01.126-.023l.118-.06.156-.12.003-.005-.035-.057-.092-.026c-.06-.01-.125.014-.188.013l-.038-.076-.044-.017c-.066.008-.11.07-.143.114h-.054a.346.346 0 0 1 .012-.172c-.068.03-.072.116-.133.146l-.017.017c-.084-.128-.164-.01-.248-.067l-.09-.105-.12.16c-.044.03-.076.033-.1.085 0 .002-.003.004-.005.006.117.075.338.034.527.033zm-6.71 1.288a.12.12 0 0 0 .112.018c.017-.007.025-.017.038-.025l.028-.03c-.037-.01-.052-.04-.11-.028-.033.018-.074.037-.07.066zm5.187-1.086l.092-.048.054.083-.113.054c.028.068.217.23.31.195.082-.03.106-.113.176-.156a.433.433 0 0 0 .22.098v.003c-.09.095-.257.094-.386.15h-.006c.013.024.024.05.036.073.124-.01.22-.034.33-.044a.473.473 0 0 1 .04.037c-.05.065-.16.076-.28.073a.55.55 0 0 1-.034.05l-.006.007c.05.03.28.222.36.2l.047-.03c0-.088.033-.16.08-.202.013-.015.06-.02.085-.022l.057-.12c.03-.073.027-.173.09-.21.046-.012.092-.022.14-.033l.078-.038a.321.321 0 0 0-.14-.105c-.04-.016-.08-.01-.114-.032l-.087-.11c-.04 0-.06.04-.086.063l-.027-.012c-.017-.036.002-.087.003-.14-.01-.007-.02-.015-.032-.022h-.085c-.033-.01-.056-.04-.105-.044l-.054.064c-.02.054.054.147.063.2l-.03.025c-.054-.013-.153-.145-.175-.192-.037-.03-.05-.02-.095 0l-.022.115V8.2l-.11-.023c-.02-.028-.022-.073-.02-.12-.038-.01-.088.01-.118.015l-.07-.006c-.073.006-.11.037-.153.07.012.048.046.106.088.126zm-5.076.675c-.013.02-.058.04-.064.054l.047.064c.005.005.014.01.022.012a.492.492 0 0 0 .12-.065c.008-.005.016-.017.006-.025-.015-.012-.038.013-.047.02-.04.003-.06-.04-.084-.058zm-.147.715l-.07.012c-.008.013-.017.038-.035.048a.536.536 0 0 0 .177-.04c0-.018-.05-.022-.072-.02zm.03-.532s.002 0 0 0c.003-.002 0-.004 0-.006v.006zm.002 0c-.015.025.03.064.06.06.03-.028.023-.038-.018-.05a.235.235 0 0 1-.042-.01zm11.196 1.373c.103.016.163.075.25.102l-.007.032c-.042.02-.09.025-.086.086.047.01.082.004.14.003l.038.05c.047.02.07-.03.105-.04l.232.003c-.003-.065-.09-.082-.127-.112-.068-.053-.107-.167-.127-.267-.042-.214.127-.14.146-.298l-.098-.035c-.086-.01-.18.03-.238.044l-.108.007c-.044.022-.068.08-.118.102l-.006.01c.025.012.046.03.083.03-.02.056-.068.14-.122.157-.036.01-.057-.01-.086-.01-.024.03-.052.057-.035.114l.03.04c.068.047.08-.025.134-.017zm-17.52 8.29h-.002l.002.003v-.004zm11.124-4.83c.06-.008.126.004.207-.003.01-.025.01-.036.033-.048-.005-.057-.012-.065.013-.105l-.016-.006-.01.017-.083.022c-.03.02-.04.07-.076.085l-.113.013c-.025.012-.04.04-.05.067l.04.04c.025-.03.046-.036.057-.082zM8.68 18.813l-.002-.01v.01h.003zm.82-.96v.004l.02.03h.014c-.003-.008-.003-.018-.007-.026-.01 0-.017-.003-.026-.006zm.034.033c0 .002 0 .006.002.008v-.008h-.002zm10.69-3.558l.02.045c.03-.007.053-.037.068-.057.006-.004.002 0 .006-.006l-.035-.02-.003-.005c.034-.027.047-.06.038-.117l-.045-.003c-.013.015-.02.063-.026.083-.03-.013-.044-.024-.054-.057-.002 0-.004 0-.006-.002-.04.05-.09.048-.038.133.012.015.05.01.073.008zM8.677 18.805l-.003-.01v.01h.003zm-.003-.01c0-.006-.004-.004-.005-.01l.002.01h.003zm.702 2.653c-.023.002-.03.01-.045.016l-.06-.006c-.02.005-.03.024-.064.02-.055-.01-.097-.03-.162-.03l-.04.006-.01.013v.013c.03.017.096.015.113.048.022.04-.04.073.047.105l.006.01c-.064.04-.205.017-.286-.007l-.02.022c0 .002 0 .004-.002.006.017.032.05.04.076.06.026-.006.027-.024.052-.03l.114.017c.04-.002.078-.005.118-.01.024.025.055.077.09.087.02-.057.045-.098.1-.124l.033.035c.037.017.056-.03.09-.038.02-.005.036.006.047.01.064-.03.09.022.124.04.02-.014.03-.036.045-.056-.053-.075-.205-.075-.235-.165-.046-.01-.106.002-.13-.042zm8.275-7.375c.018-.012.025-.024.038-.04 0-.003.002-.005.003-.007l.038.025c-.015.046-.067.106-.043.154v.006c.04-.023.083-.047.118-.076h.013l.01.04a.067.067 0 0 1-.038.03c-.005.028.004.052.026.064.017.03-.053.09-.06.14l.076.02c.012-.01.017-.014.02-.033l.056.016c.07-.003.043-.038.133-.015-.02.03-.05.046-.06.09.014.025.028.033.045.053l.054-.01h.002c-.002.078-.038.115-.006.178v.003c-.108 0-.208.01-.245.085v.003h.068v.006c.01.018.004.052.003.08-.038.055-.133.058-.15.088l-.015.016.038.032.127.003c.03.015.06.03.092.044H18c.045-.002.07-.025.102-.038-.014.03-.043.05-.044.085-.065.017-.116-.023-.172.003-.018.02-.01.04-.048.035-.006.068-.116.14-.175.16 0 0 0 .003-.002.005l.048.013.022.023a.236.236 0 0 1 .108-.076c.023.01.035.002.048-.006.054.03.102.056.105-.043.1-.012.126-.002.218.006l-.006-.022.127-.018c.023-.003.03.013.047.016l.064-.016c.032.004.063.01.093.013.037-.007.05-.037.102-.032.002-.03.043-.04.067-.044v-.045h-.006a1.169 1.169 0 0 0-.15-.016v-.004c.054-.015.185-.102.2-.15l-.008-.082c-.043-.034-.135-.085-.184-.016l-.05-.01c.067-.1.027-.088-.04-.16 0 0 .006-.076-.012-.1l-.073-.096c-.03-.015-.06-.003-.077-.025-.034-.042-.028-.098-.048-.15-.016-.026-.118-.112-.16-.11-.065.003-.07.037-.152.003l-.003-.006c.062 0 .13-.005.156-.038l.006-.003-.05-.03c-.002 0-.003-.003-.004-.005.1-.002.138-.143.165-.213.007-.013 0-.01-.006-.025-.05-.036-.23-.012-.31-.013l-.01-.013c.008-.098.126-.087.162-.156.017-.016.006-.016-.004-.035-.065-.026-.144.04-.203.022l-.057-.035-.03.038.03.044-.06.02.038.075a.175.175 0 0 1-.064-.01c-.02.005-.027.02-.035.035a.847.847 0 0 1 .04.048c-.008.015-.03.014-.037.025.004.02.01.04.013.06l-.056.102c.007.006.018.01.028.016zm2.136 3.257l.03-.038c.026-.013.048 0 .072.006.01-.03.034-.056.03-.1l-.01-.07c.003-.017.018-.034.022-.047.016-.046-.05-.12-.076-.13-.043.04-.082.045-.156.058l-.006.006c.01.04.04.053.048.1.016.094-.064.193.046.216zm2.32.677l.212-.013c.01-.014.012-.03.016-.05-.022.013-.048.017-.073.03-.004 0-.008-.003-.013-.005l.007-.026-.003-.003a.15.15 0 0 1-.105-.015l-.106.01c-.01-.01-.007-.013-.026-.016l.01-.014-.006-.01-.022.014c-.017-.006-.028-.007-.038-.02v-.005c-.005.007-.005.006-.007.02h-.016a.325.325 0 0 0-.01.047c.042.02.13.016.177.035v.02zm-5.07-3.06c-.01.004-.022.01-.034.013-.003.016.003.027.006.044l.054-.006a.172.172 0 0 1 .006.073c.06-.002.096-.022.137-.034.017 0 .034-.002.05-.003.04-.027.077-.055.115-.083l.11-.01.014-.02c.024 0 .05 0 .073-.002.007-.053.038-.077.05-.114.018-.06-.033-.182-.06-.22.063-.017.084-.027.114-.078-.01-.062-.034-.11-.05-.162-.048-.034-.142-.02-.2.006-.033 0-.045-.013-.052-.038-.074.006-.097.037-.114.102l-.038.01-.01.013h.092c-.013.032-.033.044-.067.054 0 .012.004.02.01.033-.065-.005-.138-.006-.188-.025a.102.102 0 0 0-.04.067v.02c.027-.01.043-.012.063.005h.006c-.018.02-.025.017-.02.05l-.043.01.013.014-.02.025c.027.01.147.033.173.018a.13.13 0 0 0 .01.025c-.042.018-.066.007-.084.048-.004.012-.002.007.006.02l-.02.03-.005.005.07-.01c-.01.034-.046.032-.08.038-.01.013-.01.04-.02.05-.017.013-.066.008-.093.007l-.003.022c.024 0 .048.002.07.003v.002zm3.646 2.765c.017-.014.028-.037.048-.048.007-.018-.013-.028-.022-.048-.018-.048.036-.112.05-.146v-.003c-.028-.007-.06.006-.085.013-.107.027-.15.03-.23-.022-.045.04-.104.003-.126.076.02.042.05.03.094.05.088.043.172.1.27.128zm-.92-.91l-.015.014c.006.016.006.01.028.01v.003l-.016.015-.003.006.03.014-.015.022.016.013c.01 0 .02 0 .03.002v.016l.02.003c.054-.055.04-.185.037-.28-.004-.002-.01-.005-.013-.01l-.006.004-.006.044c0 .002-.086.037-.105.057 0 .013 0 .012.01.022-.004.003-.01.006-.013.01.003.023.01.023.02.036zm-2.096-2.57a.151.151 0 0 0 0 .06l.016.003.016-.02-.006-.05-.026.007zm8.31 7.362l-.076-.032c-.06.042-.107.086-.194.105-.038.008-.072-.008-.095-.013-.043-.01-.07.027-.098.035l-.09-.01h-.005c-.036.022-.072.046-.108.07-.05.017-.065-.03-.12-.02l-.138.06h-.09c-.044-.05-.107-.105-.136-.168-.027-.007-.064-.002-.095-.006l-.007-.003v-.006c.035-.016.104-.045.13-.073-.003-.085-.116-.105-.165-.152-.007-.008-.015-.07-.043-.095-.013-.012-.038-.003-.054-.013-.045-.05-.09-.097-.133-.146-.018-.008-.038-.004-.064-.003-.02-.027-.037-.07-.067-.086-.01.01-.008.04-.01.053-.003 0-.005.002-.007.003-.09-.076-.112-.31-.165-.432-.025-.056-.148-.082-.18-.127-.054-.072-.02-.258-.045-.362a.468.468 0 0 0-.127-.213c-.025-.02-.06-.026-.08-.05-.02-.032-.025-.082-.037-.122l.034-.032-.076-.076c-.07-.105-.12-.23-.184-.334l-.083-.216c-.047-.085-.128-.144-.148-.26.017-.022.02-.033.048-.045.04.123.11.245.2.32.01.01.024.01.038.007.04-.08.03-.2.092-.254l-.11-.286c-.062.008-.083.057-.17.01-.056.04-.08.006-.14.016-.02-.02-.038-.025-.048-.06a.423.423 0 0 0-.302.054l-.06.048c-.04.01-.077-.024-.105-.032l-.092-.01-.02-.025-.22-.048h-.16c-.03-.013-.022-.062-.054-.073h-.074a1.018 1.018 0 0 1-.162-.035c-.035-.02-.017-.065-.067-.087-.13-.056-.34.02-.39.105-.07.116.083.18-.074.264-.02.01-.044.035-.073.032-.076-.01-.133-.092-.2-.117-.066-.025-.216-.027-.27-.057-.06-.034-.07-.156-.12-.175-.03-.01-.053 0-.077-.013-.014-.013-.028-.025-.04-.038l-.1-.02-.143.01-.194-.083c-.004-.016-.01-.033-.013-.05-.03-.002-.035.006-.06.013-.04-.02-.09-.055-.102-.105.03-.033.164-.143.163-.184l-.016-.064c-.168-.096.004-.136.003-.242l-.095.057-.016-.003c-.01-.02-.02-.036-.02-.064-.023-.01-.047-.02-.07-.032l-.044.006c-.048.018-.133.106-.216.083-.012-.004-.03-.035-.07-.048-.03.004-.042.025-.067.038-.038-.006-.057-.03-.09-.04-.038.027-.077.056-.132.07-.086.018-.15-.058-.25-.033a.638.638 0 0 0-.057.032c-.037.013-.052-.013-.08-.01-.022.012-.046.022-.07.033-.072.015-.155-.003-.215.022-.057.023-.09.07-.133.107-.023-.002-.032-.007-.044-.02a.78.78 0 0 0-.12.045c-.04.028-.036.07-.095.086-.065.02-.14 0-.16-.044-.003 0-.17.05-.237.032-.07-.02-.095-.076-.14-.12l-.048.02c-.035.028-.085.216-.124.268-.057.076-.162.082-.24.137a.58.58 0 0 0-.125.122c-.01.03.006.066-.01.095-.016.036-.06.063-.075.105-.038.1.077.152-.003.27a.91.91 0 0 1-.29.242c-.044.02-.105.015-.152.038-.054.027-.065.144-.102.19-.03.038-.094.045-.12.084a.437.437 0 0 0-.065.156l-.003.067c-.02.05-.09.075-.12.117a8.601 8.601 0 0 0-.096.22l-.07.075a.333.333 0 0 0-.032.194l.022-.025c.1.01.105.17.057.24.118.09.05.276.014.393l-.013.102c-.018.068-.072.16-.136.18 0 .003-.002.005-.003.007.092.038.09.135.134.156.005.01.007.02.006.038l-.03.006c-.024.034-.004.088-.015.13.04.067.02.018.07.05l.006.023.064.038c.032-.006.076-.026.102.003-.02.024-.047.04-.038.083.013.007.04.01.05.02.008.01.006.015.004.03.017.012.028.017.06.016a.066.066 0 0 1 0 .048.328.328 0 0 0 .134.083l.01.048c.015.03.058.04.07.08v.047c.006.01.016.01.03.013l.004.013-.035.03h-.006c.013.046.077.092.13.1.008.018.005.024.002.05.07.02.107.074.162.11.04.02.08.042.12.064.086.06.14.13.24.18.03.017.154.097.193.087l.153-.08.16-.044c.045-.013.145-.024.202-.013.025.005.072.03.105.02l.016-.02c.02.003.123.067.143.083l.308-.14.13-.013c.026-.02.027-.054.064-.067l.32-.03c.017-.005.02-.02.042-.028a.482.482 0 0 1 .165.102l.022.038c.012 0 .023.002.035.003l.01.014-.02.048c.012.104.174.182.267.1.05.008.115.018.17-.004.002-.014 0-.018-.005-.032.013-.008.073.007.09.025.033.063-.003.087.11.084l.013.02c.002 0 .004.003.006.005l-.03.02c.012.04.044.075.052.122l-.016.064.013.048a.273.273 0 0 1-.076.13l-.003.01.038.006c.002.042-.006.073-.038.083.024.02.05.042.073.064v.003l-.057-.006c-.015.07-.036.12-.095.146a.34.34 0 0 0 .038.07c.018.017.037.008.057.035-.01.007-.02.015-.032.022l-.003.006.063.092c.026.014.037 0 .054.022l-.016.022a.35.35 0 0 1 .102.104l.17.156c.015.02.056.102.066.124.014.034-.01.08.02.13.02.032.043.063.066.095l.02.09c.027.068.084.094.07.195-.123.054.022.18.044.245l.013.15c-.01.054-.033.142-.073.167l-.044.016-.026.06-.045.048c-.048.112-.022.286-.112.354 0 .1-.018.235.006.324.02.068.075.11.108.162l.162.324c.037.073.185.202.102.286l.045.21.036.083c.01.04-.016.072-.013.102.004.04.035.074.045.105.007.023-.01.036-.01.05l.05.157c.06.066.118.13.176.197.06.095.08.217.137.318.05.09.137.18.103.327-.017.003-.04 0-.048.012-.012.016.062.115.08.143-.01.024-.018.05-.026.073l.015.016.01.003.01-.022c.008-.004.01-.006.025-.006l.02.034c.013 0 .025-.004.05-.003.01.016.01.028.02.05.01.02.057.037.082.043.03-.023.048-.06.09-.073.057-.017.124.022.177-.003a.66.66 0 0 1 .047-.044c.075-.036.107 0 .165 0l.05-.03c.062-.017.118.038.16.052.02-.016.035-.028.048-.05.03.005.057.012.086.018.008-.01.01-.026.016-.038.025-.024.16-.01.2-.035l.124-.108c.208-.163.36-.344.51-.57.036-.055.13-.095.15-.148.01-.026-.013-.06-.01-.073.01-.02.034-.015.045-.03.036-.047.056-.176.046-.25a.08.08 0 0 1-.048-.037l-.01-.01c.04-.046.066-.087.12-.117.123-.067.264-.06.32-.194-.005-.03-.027-.018-.033-.035l.003-.01.02-.048c.014-.062.01-.133.008-.195-.014.005-.018.01-.038.01-.02-.062-.044-.137-.022-.187-.003-.037-.03-.056-.057-.07v-.102l.177-.13c.073-.06.117-.152.2-.203.1-.062.226-.08.32-.146.07-.047.113-.134.166-.197 0-.014-.005-.02-.01-.035.018-.023.034-.04.048-.07 0-.005 0-.01-.002-.016l-.035-.017c-.01-.08.006-.168-.035-.216.002-.017.017-.03.022-.054.013-.057-.02-.147-.03-.197l.045-.083c-.032-.07-.092-.08-.133-.133a.372.372 0 0 1-.035-.276c-.01-.014-.022-.016-.032-.03.014-.03.042-.073.044-.107-.03-.035-.082-.063-.1-.108-.018-.05.03-.205.052-.227.012-.013.034-.01.045-.026.024-.034.003-.052.013-.083.02-.07.086-.072.092-.184.048-.026.093-.026.095-.102.042.008.062-.01.095-.025.012-.018.013-.027.003-.048.104-.118.208-.235.31-.353.116-.093.258-.163.373-.254l.127-.156c.084-.108.21-.21.264-.343.004-.025.01-.05.015-.074l.11-.178c0-.014 0-.028-.002-.04l.063-.06.083-.147c.002-.042.005-.086.01-.13.006-.02.038-.034.037-.062 0-.023-.02-.054-.01-.086.01-.02.018-.04.026-.06l-.005-.018zm4.366.483c-.016-.093-.064-.14-.14-.188.01.037 0 .055-.013.094-.016.013-.02.02-.047.013l-.006.022.022.024c-.016.032-.005.038.002.07v.16c.012.05.036.133.073.16.104.023.238-.068.226-.167-.004-.045-.045-.082-.063-.117-.017-.037-.013-.057-.053-.073zM20.5 4.5c-8.837 0-16 7.163-16 16s7.163 16 16 16 16-7.163 16-16-7.163-16-16-16zm9.252 6.873c.022.022.04.046.062.068 0 .01-.003.02-.004.03v.003l.04.007c.024.025.046.052.07.076-.066.013-.16.01-.177-.042-.008-.012.005-.08.01-.14zm-.968.38l.057.026.106-.04-.02-.053c.018-.038.072-.05.103-.073.04-.033.113-.09.133-.143l.022-.088c.01-.026.03-.035.032-.073-.05-.066-.1-.02-.127-.147 0-.064.002-.127.003-.19l-.013-.112c.016-.02.032-.04.048-.063v-.004c.05.044.098.088.146.133-.006.015-.018.03-.02.046-.002.052.036.095.036.162.05 0 .12.02.156.013l.052-.018c.038.035.08.068.116.104-.107-.02-.235.004-.25.103.028.05.057.084.054.16l-.064.078a.529.529 0 0 0-.05.032c-.023.03-.02.078-.05.102-.07.056-.163.066-.202.155-.043.02-.093 0-.13-.006-.026 0-.053 0-.08.002-.11-.016-.21-.028-.25-.114a.315.315 0 0 1 .192.006zm-17.082-.804c0 .005-.003.01.007.016.005.003.013.002.02.002.024.002.053.01.062.025-.015.036-.09 0-.11-.003v.004h-.008c-.002.04.138.025.152.062-.016.018-.04.01-.07.018-.003.03.08.013.072.042v.003c-.02.005-.04-.002-.058.005l-.005.004v.003c.016.01.036.02.066.012.01-.003.02-.007.028-.006a.02.02 0 0 1 .01.002c0 .01-.01.03-.026.036a.532.532 0 0 1-.114-.01c-.03-.008-.05-.026-.074-.04a.596.596 0 0 0-.098-.042c.046-.048.097-.09.146-.137zm-.44.408c.01.006.02.01.026.02a.313.313 0 0 0-.05.005c.01-.008.016-.017.024-.025zm-2.79 7.094l.026-.006-.026.022c0-.005-.002-.01 0-.016zm-.222-2.268v.01c0-.002 0-.003-.002-.004 0-.002 0-.004.002-.006zm.088 7.148c-.025.033-.117.052-.168.025-.022.016-.03.032-.03.073l-.02.02c-.007-.027-.01-.035-.036-.042-.016-.003-.033.01-.048.02-.1.053-.062.124-.095.218l-.038.008c-.038-.15-.084-.3-.116-.452.006 0 .01.003.016.003.015.04.027.064.073.073l.006-.04h.004c.012.023.038.054.032.085l.01.01c.057.01.072-.023.124-.03-.005-.055-.048-.06-.067-.1.02-.03.07-.05.105-.06 0-.02-.002-.03.003-.045.1-.032.16-.008.19.07.022.004.037-.008.053-.02 0 .025.003.035.02.042 0 .002 0 .004.002.006-.03-.004-.048-.01-.06.016-.013.038.028.09.043.12zM20.5 33.5c-3.542 0-6.75-1.42-9.093-3.718.025-.026.06-.045.077-.076l.03-.118v-.006c.023.01.053.022.085.01h.002c.007.096-.102.146-.124.24a.644.644 0 0 0 .15-.174l.075-.18c.087-.14.24-.15.197-.427-.006-.037-.018-.056-.03-.085.024-.027.067-.102.01-.127v-.018c.073.007.08-.036.118-.07.04-.035.246-.18.292-.19.026-.006.045.01.064.015l.044-.054c.043-.024.072-.016.083-.075a.494.494 0 0 1 .14.003c.082.016.168-.006.243-.013-.002-.09.068-.12.146-.127l-.014-.076c.01-.06.06-.1.086-.146l.05-.105c.017-.022.053-.035.06-.066a.958.958 0 0 0-.01-.092.143.143 0 0 1 .093-.165c0-.024-.018-.07-.01-.11.01-.055.048-.123.038-.185-.01-.083-.017-.165-.026-.248.014-.086.047-.145.048-.232l.022.003.026.05h.01a.59.59 0 0 0 .146-.22c.014-.04.002-.064.028-.09.023-.01.047-.02.07-.032a.639.639 0 0 0 .267-.43c.014-.078-.07-.365-.108-.377-.08-.025-.17.004-.23-.035-.127-.082-.217-.217-.364-.282-.085-.038-.143.008-.225-.006l-.15-.022c-.043-.012-.09-.067-.143-.06-.077.01-.144.07-.197.105-.025-.1.012-.06.022-.12.007-.04-.057-.1-.092-.103l-.025.026h-.013c-.027-.086-.113-.078-.197-.108-.032-.012-.053-.034-.08-.05-.025.003-.074.007-.107.015-.036.014-.04.065-.06.095-.034.05-.114.064-.14.124l-.006.003c0-.035.006-.05.016-.073-.055.01-.13.024-.197.013l-.05-.114c-.043.012-.1.083-.158.06l-.01-.006c.043-.032.052-.1.08-.146.032-.05.102-.067.14-.113.033-.04.046-.105.1-.127.016-.027.007-.053-.004-.083-.13-.018-.138-.178-.172-.29-.01-.033-.008-.07-.038-.085-.015-.003-.022.016-.038.013-.007 0-.16-.158-.2-.178l-.165-.054c-.045-.018-.17-.056-.245-.025-.008.007-.01.013-.01.03l-.143-.033h-.003l-.022.022c-.03-.06-.107-.157-.194-.146l-.016.033v.006l-.02-.138a.447.447 0 0 0-.234-.16c-.042-.008-.088.004-.12.01l-.1-.006v-.003c.094-.03.07-.084.138-.11 0-.003.002-.005.003-.007-.027-.018-.062-.022-.09-.04l-.02-.03c-.022-.015-.065-.01-.085-.022-.013.01-.02.018-.022.038-.003-.002-.006 0-.008 0-.006-.057-.048-.077-.092-.095v-.022l.09.003.015-.01.006-.013-.003-.006a.548.548 0 0 0-.27.01c-.037.017-.057.062-.104.072-.13.03-.168-.075-.248-.08-.068-.003-.182.043-.242.014-.03-.015-.022-.028-.035-.06-.024-.062-.1-.08-.187-.08a.425.425 0 0 1-.044-.097c-.028-.007-.05.007-.058.03l.022.04.04-.004.02.016c-.008.032-.213.09-.258.105l.01.006c-.004.018-.01.018-.02.03.027.012.1.148.077.196-.013.02-.047.035-.076.04-.032-.025-.05-.082-.073-.114a.289.289 0 0 1 .06-.127c-.006-.052-.028-.084-.045-.128.02-.03.07-.043.12-.044l.016-.02c-.006-.03-.03-.05-.057-.06-.08-.03-.1.07-.138.093l-.06.02c.01-.018.023-.025.016-.05.013.005.014.007.02.02H8.4c.026-.016.04-.038.06-.06-.04-.082-.08-.17-.168-.205-.03-.012-.067 0-.102-.013-.013-.005-.06-.024-.08-.02-.022.017-.046.033-.07.05-.014.008-.03.005-.05.012-.06.022-.086.064-.165.048-.025-.032-.045-.014-.068-.01-.13-.645-.198-1.31-.23-1.985.01 0 .017 0 .024-.003.084-.04.085-.097.236-.06l.01.016v.003l-.07.02c.054.04.13.017.21.04.057.017.104.057.168.073.034.008.1-.01.13.01.02.012.033.062.035.092.048.03.147.03.193.064-.003.033-.026.053-.05.064l-.03.032v.003c.07.004.133-.027.197-.018l.146.016c.053-.01.1-.03.162-.035l.003-.006a.277.277 0 0 0-.215-.073l-.01-.01.02-.04c-.04-.042-.18-.045-.24-.07l-.06-.068c-.067-.045-.16-.037-.24-.073l-.094-.08h-.04a1.116 1.116 0 0 0-.28-.034l-.123.012c-.03.007-.054.02-.082.034-.006-.177-.025-.344-.025-.516 0-.202.02-.4.03-.6.035.037.064.09.09.106.028.018.06.012.067.05-.01.058-.02.115-.032.173.004 0 .01 0 .013.002.018.01.025-.01.045-.016l.003.03a.094.094 0 0 1-.04.03l.056.106h.028l.01.048.03.02c.023.05-.01.08.065.083.018.03.034.097.054.12.023-.01.055-.01.088-.015l-.006.032h.006c.024-.07.083-.2.054-.305-.01-.04-.04-.083-.054-.13l-.02-.124c-.03-.09-.157-.222-.132-.348l.048-.15c.027-.042.065-.076.083-.13.075-.013.152-.043.184-.098.025-.04.025-.075.065-.098.037-.022.108-.02.14-.038l.095-.12.105-.017.038-.03c0-.003.002-.005.003-.007-.013-.006-.016-.005-.022-.02-.012.01-.033.018-.048.026l-.022-.014c-.01-.007-.01-.014-.016-.025.012.01.017.02.035.026.027-.016.023-.03.044-.04v-.007a.093.093 0 0 0-.07-.03l-.01-.016.067.022-.01-.016v-.003c.026.01.032.027.07.032l.038-.045c.005-.008.004 0 .02 0l.008-.016c0-.024-.006-.032-.02-.042-.005-.003 0-.003-.005 0-.014.01-.014.026-.022.04 0 .002-.002.005 0 .007v-.008c-.005-.013 0-.027.003-.044l-.006-.006c-.03.005-.057.01-.095.01.004-.02-.01-.036 0-.054v-.006c.006.01-.002.018.003.032.004.005.01.01.013.016l.033-.01c0-.01 0-.01-.006-.02a.24.24 0 0 0 .032.017l.012-.006.003-.006-.016-.02c.016.008.028.02.043.012l.006.022h.01c-.007-.034-.022-.044-.036-.067h.02c-.004-.014-.004-.01-.01-.02l.006-.01c-.012-.043-.042-.042-.085-.033-.002-.035-.03-.05-.06-.057l-.003-.006a.059.059 0 0 0 .016-.01c.022.01.038.023.048.045.015.01.01.01.035.01l-.005-.035-.026-.02h-.004l-.032-.024c.01.013.023.018.034.025h.01l-.003-.018.025.01h.003c0-.022-.002-.026-.02-.032l.014-.006c-.01-.005-.01-.01-.018-.015l-.01-.01-.05-.043c.015.03.036.04.06.052.017-.012.02-.02.028-.04a.571.571 0 0 0-.156-.08v-.01c.034-.002.037.01.064.022l-.004-.02c.02.022.05.04.076.055-.008-.045-.04-.045-.048-.083h.003c.006.016.014.023.03.03.002 0 .004.003.006.006H8.6l-.022-.054c-.01-.054.036-.026-.003-.1l.026.004.003-.03c.01.007.005.002.01.014h.003c.004-.007.005-.01.005-.022l.003.016c.014-.01.017-.012.016-.022l.022-.016-.01.025.02.01-.04.01-.015.025v.003h.027c-.007.018-.01.022-.035.022l-.007.01c.008.008.014.01.03.013 0 .002 0 .004.002.006v.013l-.02-.01-.005.003-.007.02v.002c.024-.012.018-.005.045.006l.006.01-.044.016-.003.006.015.022.025.016.03-.018c0 .027 0 .016-.012.035l.022.013-.01.02v.002h.003c.013-.005.015-.007.026 0-.02.036-.046.068-.058.114l.006.02.013-.004.027-.057c.01 0 .008.003.016-.003l.035-.083c.016-.028.043-.038.05-.07 0-.02-.003-.04-.006-.06-.04-.016-.068-.103-.076-.146.012-.01.017-.022.032-.03 0 0 .002 0 .003.002-.007.016-.018.022-.028.035.027.037.034.072.092.07.003.02-.002.023-.006.04v.004l.006.004c.028-.02.076-.063.076-.108l.02.006c.015-.046.038-.098.047-.153-.026-.004-.03-.01-.044-.026l-.003-.01c.015-.01.017-.016.032-.012l.03-.08-.023.07a.605.605 0 0 1 .37-.11l.014-.064s.018 0 .032-.006c0 .01-.004.027-.003.048l.006.003c.028 0 .053-.024.06-.044h.002c.006.007.007.018.006.034l.108-.025c0-.02-.006-.025-.01-.034v.008l-.045.02-.024-.01c-.01-.05-.03-.092-.083-.096.005-.034.033-.042.064-.05 0-.004.002-.007.003-.01-.026-.008-.027-.004-.04-.03.02-.035.047-.12.09-.132v-.035c.015-.004.028-.01.042-.015l-.003.016c.005.004.012.007.018.01h.003c.015-.017.017-.013.014-.037l.016-.013-.006.022.025.006.012-.032c.006.004.013.01.02.013a.313.313 0 0 0 .07-.112h.002l.007.003c-.003.012-.008.022-.012.033l.003.006a.29.29 0 0 1 .042.012l-.006-.03c.023.005.038-.01.06-.015l.01.03c.018-.015.027-.037.047-.05l.022.017c.01-.008.008-.005.01-.022.033.006.047-.006.075-.02.006-.008.005-.007.006-.015H9.95l.016-.022-.016-.035.016.013c.02-.02.068-.01.09.006l.05-.03-.01-.02.035.02c.07-.008.097-.07.172-.073l.02-.035-.01-.03c.01.01.02.02.02.04l.03-.017h.003c-.012.033-.052.062-.086.073-.004.008-.006.01-.007.025.054-.028.15-.02.216-.013l.007.01c-.046 0-.074.017-.114.025v.022c-.012-.01-.01-.01-.022-.013l.004-.035a.529.529 0 0 0-.206.11h-.005l.016.01v.003c-.014.002-.01 0-.02-.006l-.06.035-.003.006.01.006.044-.03c-.006.02-.01.008-.02.02-.04.04-.014.086-.004.13.007-.002.005 0 .013-.01l.028.048c.024-.005.023-.006.038.01l.013-.035c.016-.008.025-.01.053-.006v-.02c.003 0 .007.003.01.005.03-.018.044-.085.102-.086.007-.027-.005-.027-.006-.055h.018l.01.016h.003c.012-.007.018-.01.023-.024l.006-.003-.004.022.054.006c.008-.016.016-.012.02-.034l.015.01.006-.022c.004 0 .007-.002.01-.003.016.005.013.008.022.017.062-.022.13-.07.203-.073l-.003-.013.048.004-.006-.01.01-.006c.012-.006.01-.002.022.006l.032-.013c-.013-.016-.034-.017-.067-.015 0-.003-.003-.006-.005-.01a.075.075 0 0 0 .02-.01l.008-.012-.032-.032c-.037-.012-.055.023-.066-.03-.033.004-.043.025-.067.034-.016.006-.036.002-.048.006l.008-.02h-.006l-.003-.005c-.035-.015-.06.014-.084.003l-.03-.02-.04.004c-.014-.007-.02-.024-.04-.03h-.01v-.002l.04-.013.005-.003c-.05-.025-.15-.014-.132-.095-.01-.015-.01-.014-.022-.01-.007-.027-.005-.04.006-.06-.015-.017-.047-.015-.08-.014.045-.044.052-.024.068-.09l.032-.03-.022-.017-.03.012v-.016l-.082.038c-.032-.044-.056-.07-.127-.076v-.003c.025-.007.058-.028.096-.02l.05.023a.457.457 0 0 0 .19-.108c-.048-.124-.207-.127-.338-.076-.14.055-.297.094-.41.178-.092.068-.16.172-.25.245.076-.162.237-.36.387-.448.04-.024.112-.016.15-.042.053-.038.034-.134.133-.168a.56.56 0 0 1 .22-.003c.088.013.176-.012.257-.003l.245.013c.11-.017.232-.02.305-.073.04-.045.083-.09.124-.137l.23-.022c.05-.016.145-.1.19-.134v-.005l-.065-.083c.017-.03.032-.07.048-.105-.003-.05-.08-.09-.124-.1-.022-.003-.057.022-.077.033l-.02-.03c.005-.02.016-.03.027-.047-.13-.123-.21.013-.305.067-.045.025-.11.03-.153.048.006-.035.017-.086.04-.105l.08-.006c.054-.015.08-.068.14-.083.06-.014.12-.016.146-.064l-.165-.04c-.053-.023-.095-.067-.162-.077-.05-.008-.08.02-.13.02.01-.026.022-.052.033-.077-.004-.046-.12-.136-.156-.15h-.048c-.032-.01-.066-.093-.084-.12l.006-.003c.027-.015.093.01.13 0 .006-.012.007-.03.006-.05-.042-.032-.09-.048-.12-.09a.085.085 0 0 1 .05-.025c-.018-.103-.113-.035-.13-.178-.014 0-.028.002-.04.003-.006-.035.008-.04.015-.067-.06-.07-.182-.28-.254-.315-.003 0-.005-.003-.007-.005l-.033.065c-.072.048-.135.013-.057.118-.048.06-.09.08-.092.194h-.003c-.026-.026-.03-.076-.076-.08l-.05.09c-.04.03-.133.028-.175.048l-.02-.03c.008-.01.01-.014.01-.034-.074-.11-.138-.058-.24-.022H9.57c-.02-.028-.018-.042-.012-.09l.054.004c.056-.082-.105-.31.006-.362a.108.108 0 0 0 .006-.048l-.016-.025c-.02-.005-.044.03-.09.02-.08-.02-.154-.066-.228-.08-.026-.033-.028-.03-.006-.07l-.038-.03c.054-.095.112-.187.17-.28.004.004.01.005.014.008.003.002.032 0 .05.007l.042.025.073.01.06.07c.047.028.102.016.165.032l.305.108a.466.466 0 0 0-.19-.245c-.078-.052-.222-.09-.236-.2.092 0 .108.04.17.064l-.012-.072c.094.073.14.187.302.175a.29.29 0 0 0 .137.124l-.057-.118.06.012h.003c-.003-.092-.088-.125-.076-.216a.331.331 0 0 1 .108.134l.013.01c.02-.167-.09-.144-.146-.238l.01-.02a.164.164 0 0 0 .038-.01h.006l-.092-.043c-.033-.025-.054-.07-.094-.08l-.03.022-.012.013a2.369 2.369 0 0 1-.105-.194l-.08-.012-.008-.02.038-.05s.003 0 .003.003c.02 0 .04-.003.06-.005.003-.004.006-.01.01-.013l-.035-.038c.023-.03.047-.06.07-.092.067.03.104.082.172.113.036.016.077.007.105.025l-.02.054c.003.04.03.055.046.083l.063-.03c.016.02.01.04.025.065.012.018.1.06.125.05h.006l-.02-.094.015-.114.006-.003c.02.026.046.063.08.07.018-.044.057-.067.11-.075-.005-.044-.048-.078-.082-.092l-.003-.006c.075-.047.09.03.162 0 .013-.01.03-.05.044-.064l.004-.01c-.043-.03-.087-.06-.13-.092-.046.043-.082.04-.15.026l.02-.064c-.074-.006-.145.013-.235.013v-.048l.09-.022h.01a.334.334 0 0 0-.134-.137c-.02-.008-.03 0-.043.004.31-.397.634-.78.986-1.138l.04.007c.02.006.04.012.063.017.01 0 .022-.003.033-.005h.004l.005.01c.01.003.026.002.04 0l.003.004c-.022.01-.03.008-.05.005-.013.004-.04.017-.044.024-.005.02.062.058.09.05l.066-.027c.03-.01.05-.002.078-.01a.245.245 0 0 0 .115-.078c.026-.045-.062-.07-.095-.078-.032-.008-.05-.03-.072-.05a.218.218 0 0 0-.105-.04l.025-.022c.008 0 .018.004.025.005.005-.002.004-.003.007-.006l.027-.002c.05.006.083.044.12.062.03.015.064.017.104.02.01.002.016.007.028.007.01-.01.02-.024.05-.024 0 0 0 .002.003.003v.002l-.013.01c.002 0 .003.003.005.006.04 0 .05-.018.074-.027.02-.007.03 0 .047-.004-.006.013-.023.02-.03.032-.008.01-.007.023-.013.035-.003.007-.016.01-.02.018.006.01.025.013.022.025a.136.136 0 0 1-.03.013c0 .01-.01.02-.002.03.005.003.012.003.02.002l.006.002c-.01.005-.02.008-.026.013 0 .01.012.026.006.035-.006.01-.024.015-.03.026.042-.005.035-.017.07-.026.02 0 .012.01.025.02.007 0 .013.002.02.004h.002v.004c-.008.02-.07.014-.094.023a.2.2 0 0 0-.033.038c0 .004.002.008.004.012l-.017.02a.421.421 0 0 0-.028.045c.037-.008.042-.025.08-.032.03.01.01.043-.01.053-.016.007-.036.003-.052.006-.032.005-.052.02-.092.024-.026.002-.057-.005-.084.003-.06.017-.08.065-.144.085.017 0 .047.003.062 0l.06-.013.034.006c.025.004.052.003.08.004.015-.016.032-.013.06-.024 0 0 0-.002.002-.003 0-.007-.006-.012-.015-.013.01-.017.05-.02.064-.01.002.022-.035.028-.036.047 0 .028.086.034.1.053-.006.002-.007.003-.005.01a.397.397 0 0 0-.107-.013l-.08.008c-.028 0-.054-.007-.08-.01-.032-.006-.066-.01-.1-.017l-.004.002c-.003.003-.004.006-.006.01 0 .012.077.025.097.025.007.003.018.008.007.014-.02.01-.072-.017-.11-.008-.055.014-.05.046-.068.073l-.042.054c0 .003.002.006.005.01.054.01.085-.04.105-.055l.043-.013c.034-.016.057-.034.108-.043-.002.007-.01.01-.01.02.018.015.037.005.072.003h.03c.013-.01.045-.026.026-.04v-.002c.036-.003.058-.005.082.002v.003c-.013.015-.046.027-.046.047.012.006.028.007.032.02-.054.002-.11.006-.16.002-.023-.002-.048-.013-.073-.01-.024.003-.046.02-.062.03l-.08.04c-.015.007-.03.012-.046.018l-.04.035c.05.02.173-.02.248-.027l.047-.007.037.01.04-.004c.035.002.052.03.072.05l-.072-.01a.739.739 0 0 0-.3.023l-.065.02c.016.012.045.004.062.014l.023.032c.005.002.093.012.106.013.015-.004.017-.01.027-.015.035-.005.05.024.03.04-.036.023-.125.018-.166.04.014.01.08.017.104.018a1.056 1.056 0 0 1-.08.024c-.02 0-.03-.01-.055.002-.022.01-.048.04-.02.058.005.003.03.004.03.01.002.006-.022.012-.025.02-.003.014.017.02.036.013.025-.01.06-.03.076-.042.034-.025.07-.052.11-.076l.038-.017.06-.056c.02-.014.055-.025.084-.037.02-.008.035-.014.056-.02.02-.006.04-.01.062-.014.01-.004.026-.012.04-.01.012.002.023.006.035.01-.01.01-.02.025-.034.032-.037.018-.11.01-.157.018-.013.02-.056.034-.08.05-.005.003 0 .008-.003.013-.007.013-.028.025-.056.03.003.005.004.01.005.014-.08.028-.13.07-.188.107-.015.01-.055.02-.06.034-.006.008.004.015.01.02.033.024.052.007.098-.004a.107.107 0 0 1-.072.055s0 .004-.002.006c.027.014.072.016.09-.01.055-.01.042.058.03.075 0 .004.002.004.005.007.027-.01.074-.024.093-.038l.006-.002h.003v.004c-.024.027-.087.04-.106.07.007.013.024.018.04.022.02 0 .03-.01.043-.017.006.005.01.01.014.02l-.024.034-.012.003c.014.024.047.002.076.008.016.004.018.027.03.035-.09.016-.05.086-.07.127-.005.01-.02.047-.01.058a.022.022 0 0 0 .012.005c.018 0 .035-.022.043-.03a.19.19 0 0 0 .063-.067c0-.007 0-.015-.002-.022a.065.065 0 0 1 .024-.034l.008-.002c.017.007.03.023.038.04h.003l.017-.025-.004-.07c0-.02.01-.038.014-.055h.002c.01.006.023.012.034.02.006.006-.002.014-.002.02 0 .016.012.042.03.046.018.004.045-.01.064-.013.002.018.026.07.042.08.014.004.03.008.043.013.017.008.026.02.038.032l.002.004a.216.216 0 0 1-.125-.04c-.014-.012-.014-.04-.035-.046-.03-.007-.07.022-.08.033h-.003c.01.004.038.015.03.03-.003.008-.025.015-.037.02-.03.02-.055.037-.095.053-.014.006-.045.01-.052.02.01.016.056.02.093.008l.13-.054.02-.018c.008.018.028.023.04.035-.012.004-.03.006-.05.01-.044.015-.093.025-.133.042-.018.007-.046.02-.067.017.003.02.025.026.028.046h.014c-.006.01-.028.013-.05.018v.004c.036.017.026.03.035.063.04.01.063-.018.09-.03.02-.006.042-.01.067-.015-.034.03-.07.058-.103.086l.002.004c.03.004.055-.016.086-.018.034-.002.064.017.057.046-.006.027-.07.033-.04.067.024.005.04-.008.064-.007-.003.01-.027.032-.016.043.055-.015.063-.048.102-.07l.013.003c0 .014-.017.03-.025.04l-.063.098c-.014.027.003.055.04.063h.074l.075.007c.007.01.015.022.017.03a.11.11 0 0 1-.042.02c0 .006 0 .007-.005.01.005.01.013.012.023.015a.35.35 0 0 0 .06-.02l.003.005c-.004.006-.012.007-.02.01-.03.015-.05.023-.053.048.056-.01.073-.037.117-.048.012.036-.047.047-.058.076.006.012.02.01.027.02-.02.008-.033.018-.05.025.02.02.05.032.095.013l.012-.008c.01-.004.016.004.025 0 .022-.01.015-.03.06-.018 0 0 0 .002.002.002-.007.015-.036.022-.068.03.03.013.117.007.136.026.018.018-.03.04-.007.06l.012-.002c.014-.012.023-.023.05-.03a.03.03 0 0 1 .012.003c.002.016.017.03.016.044 0 .017-.036.03-.066.036.036.01.09.016.14 0-.002-.005-.004-.013.002-.017a.207.207 0 0 1 .038-.012c.01-.004.01-.012.024-.015h.004c.016 0 .03.01.052.002a.43.43 0 0 1 .047-.026c.022-.01.046.01.046-.018.032 0 .064-.013.057-.032-.048-.017-.015-.034.02-.047.018.006.018.02.03.03.006.005.012.005.016.01-.018.02-.057.05-.063.07.012-.008.02-.023.038-.03.012-.003.026 0 .037-.005l.036-.028a.1.1 0 0 0 .017.028c.007.006.026.01.026.02 0 .017-.03.023-.044.035-.01.007-.008.02-.017.028l-.052.038c.016 0 .028-.007.043-.007a.11.11 0 0 1 .024.024h.003c.037-.01.023-.045.043-.062.02-.007.05-.004.05.013 0 .022-.036.038-.015.066.03.004.046-.035.055-.047.005-.008.02-.015.03-.02l-.03.06h.01c.025.02-.07.054-.04.09.025.005.054-.02.088-.018.022 0 .03.02.047.026h.01c.028-.015.02-.063.054-.07.04-.01.08.006.11.008.02 0 .04 0 .06-.002.014 0 .037.01.054 0 .006-.006.007-.013.01-.02.018-.042-.047-.032-.033-.06-.02.005-.03.014-.045.02-.033.015-.064 0-.072-.02.068-.014.198-.058.197-.09h-.03c-.018.005-.03.017-.053.018-.026 0-.062-.014-.07-.033l.093-.015a.143.143 0 0 0-.043-.012l-.005-.003c.016-.005.038-.01.05-.015.018-.03-.023-.035.028-.058v-.004c-.024-.015-.087.002-.1-.022-.005-.006 0-.013.003-.018.017-.027.07-.02.093-.007.01 0 .014-.003.018-.006.01-.008.018-.05.006-.063.022-.012.018-.026.028-.043l.015-.015c-.02.002-.046.012-.062.007 0-.003-.002-.005-.004-.008.05-.008.07-.042.084-.064-.015-.026-.05-.042-.052-.078a.308.308 0 0 1-.143-.05c.042-.005.106.03.136.015h.003l-.002-.005c-.02-.008-.057-.008-.072-.02-.013-.013-.013-.036-.024-.047l.07-.043c.023-.01.05-.015.067-.025l-.013-.014-.008-.02c-.016-.02-.054-.038-.033-.063.017.007.072.027.1.02v-.003c.003-.004.006-.004.006-.01-.017-.01-.058-.024-.056-.04l.002-.002c.022.002.034.01.06.01.01-.005.017-.01.015-.018-.013-.01-.032-.014-.045-.025l.002-.004c.017-.005.04.004.053-.008.01-.007.007-.02.017-.027.01-.006.034-.006.045-.01.008-.01.002-.023 0-.037-.034.02-.068.004-.096.002h-.028c-.01-.003-.02-.012-.028-.018.024 0 .042.005.063.007h.065c.014 0 .045-.005.05-.012.013-.018-.02-.038-.032-.046l-.034-.02-.018-.02c-.01-.004-.03 0-.043-.002l-.076-.023.052-.02c.027-.01.047-.027.074-.035.032-.01.05.004.073-.01-.003-.016-.03-.017-.04-.03.02-.006.017-.02.017-.034-.004-.01-.012-.004-.02-.01l-.014-.024-.023-.015c-.044-.022-.098 0-.1-.052l-.023-.01c.104-.04.086-.004.16 0a.209.209 0 0 0 .05-.02c.02-.016.048-.074.012-.095-.024-.013-.064-.01-.092-.018h-.003c.078-.01.07-.016.08-.058.003 0 .006-.003.008-.004h.004c.014.01.022.024.046.026.006 0 .004-.002.01-.003l-.025-.054h.002c.018.004.022.01.037.02.005 0 .01 0 .016.002l.014.014a.123.123 0 0 0 .083-.01c.015-.012.01-.032.028-.043a.02.02 0 0 1 .02 0c.064-.05-.07-.056-.066-.082 0-.008.024-.017.032-.023a.286.286 0 0 0 .058-.057h-.014c0-.002-.002-.002-.003-.003.025-.01.01-.033 0-.05.03.005.07.012.113-.005-.016.024-.02.052-.032.078-.008.016-.032.034-.033.052l.012.016c.007.015-.023.035-.004.05.01.007.035.003.054.003 0-.018.004-.04-.013-.055a.073.073 0 0 0 .068-.052h.002c.01.01.014.033.034.034h.005a.144.144 0 0 0 .058-.068l-.01-.007h.002c.022.004.083.025.1-.004 0-.016.002-.03.003-.047.006-.01.027-.02.026-.035 0-.023-.063-.014-.06-.042.005-.017.1-.012.123-.014.01.007.02.018.034.022.032 0 .043-.02.05-.035.016-.03.023-.06.038-.09.007-.015.014-.03.022-.043.004-.01 0-.037-.013-.047h-.007c.01-.02.033-.03.04-.05l-.022-.015c-.013-.014-.02-.047-.012-.06s.03-.025.035-.04c.007-.018-.016-.038-.002-.058.01-.014.056-.02.068-.043l.003-.024c.008-.015.066-.056.03-.076-.012-.006-.032-.003-.048-.005h-.003c.008-.006.017-.007.02-.013.008-.032-.073-.043-.087-.06.005-.005.01-.01.014-.017h.002c.016.028.075.045.12.045.022 0 .044-.005.063 0 .022.003.037.02.063.02.023.003.086-.01.095-.02 0-.023-.043-.027-.057-.043.047.003.04-.018.068.016.02.003.05-.006.058-.017 0-.025-.033-.04-.03-.067l.01-.007c.014.013.037.038.073.027.037-.012.006-.04.035-.054l.07-.023c.023-.013.04-.03.066-.044l.05-.02c.012-.007.012-.018.026-.026.026-.013.082-.052.08-.073h.02c.005-.003.003-.008.007-.01.012-.01.05-.006.034-.024-.003-.004-.007-.007-.01-.014.01-.01.022-.02.05-.025l-.005-.014c.002-.005.01-.008.018-.01.003-.02-.008-.036-.023-.05.004-.017.04-.023.053-.037 0-.016-.015-.027-.03-.028.018-.018.064-.016.072-.04-.012-.01-.03-.01-.034-.027a.09.09 0 0 1 .068-.027l-.05-.03c-.044-.04.08-.07.103-.1-.012.003-.016 0-.02-.004h-.003v-.002c.016 0 .034.002.05-.004l.006-.005c0-.012-.017-.018-.028-.022-.01-.02.025-.044.046-.057l.024.005-.012-.06c-.02.008-.018.02-.03.028a.326.326 0 0 1-.078.045.444.444 0 0 1-.11.028c-.027 0-.05-.003-.084.004-.043.008-.096.035-.135.027l-.014-.027a.497.497 0 0 0-.1.093c-.015.02-.03.04-.05.057-.02.016-.022.04-.05.054-.028.012-.062.006-.09.014h-.004c-.023-.012-.052.013-.08.015-.006-.006-.002-.01.002-.016.01-.013.028-.025.06-.027.01 0 .027 0 .038-.006.034-.017.023-.055.048-.07.016-.01.076-.03.08-.04.008-.013-.01-.024-.02-.027-.02.004-.02.01-.03.017-.02.006-.04.01-.06.017-.04.017-.092.057-.146.06-.008-.007-.01-.016-.02-.02-.025.003-.064.04-.073.053h-.016c-.023-.036.13-.106.077-.153-.016-.014-.044-.014-.064-.023l.155-.038c.007-.003.01-.006.01-.01.024-.01.05-.016.068-.028a.37.37 0 0 0 .08-.1c0-.01-.015-.03-.022-.036a.073.073 0 0 0-.034-.012c-.055-.01-.055.01-.1.024-.045.014-.083 0-.097.035-.023 0-.037-.013-.057-.014-.023 0-.047.018-.06.024h-.002c.008-.02.05-.03.054-.05.004-.02-.073-.036-.1-.033l-.04.012a.105.105 0 0 1-.078-.04c.016-.002.027.003.04.005.015.003.075 0 .083-.003.06.02.132.034.186.06.05-.01.077-.04.137-.043.05-.002.086.016.13.02.02-.004.018-.014.035-.02.028.005.052.02.075.03.012.005.024.01.036.013l.024.028c.01.003.016 0 .023.007l.023.033c.02.02.066.03.1.035.05.008.096.004.135-.023.008-.006.017-.01.02-.018.006-.025-.058-.043-.054-.083h.002c.007.02.09.07.11.074.01.003.03.004.044-.003.01-.004.015-.012.02-.02.02-.03-.036-.04-.054-.056l.005-.01c-.012 0-.015-.008-.02-.016-.006 0-.014 0-.024.002-.002-.02.02-.056-.035-.038a.056.056 0 0 0 .007-.026l-.023.003h-.003c-.016-.06-.006-.083-.08-.103h-.005c-.01.023-.014.053-.02.075-.004 0-.007-.002-.01-.004-.003-.013 0-.028-.008-.042-.01-.018-.022-.047-.02-.065-.025.007-.03.03-.047.04h-.014c0-.03-.01-.027-.045-.027-.005-.01 0-.016-.003-.027-.002 0-.005 0-.007-.002-.006 0-.01 0-.015.004-.003 0-.003 0-.005-.004-.026.005-.04 0-.063 0-.076.004-.085.02-.12-.024a.555.555 0 0 0-.13-.002c-.006.017-.01.035-.018.05l-.03.04c0 .002-.002.003-.003.004-.013-.008-.058-.03-.05-.052.003-.007.018-.01.027-.015.01-.006.042-.047.036-.058-.007-.015-.04-.015-.06-.02-.02-.004-.032-.02-.057-.02-.023 0-.03.017-.037.025l-.026.024a.131.131 0 0 0-.02.047c-.004 0-.007.002-.01.003-.008-.025-.037-.042-.077-.034.012-.017.052-.007.07-.018.03-.018.038-.06.07-.078l.008-.008a1.035 1.035 0 0 0-.12-.02c-.016.012-.025.006-.045.016l-.032.023c-.036.023-.057.034-.053.072a.05.05 0 0 1-.025-.01c-.062-.04.05-.05.05-.078 0-.015-.032-.015-.043-.02h-.003c.032-.01.084-.023.103-.01.028-.007.046-.042.05-.06l.003-.017c.01-.015.048-.032.068-.042 0 0 0-.002.002-.003a.134.134 0 0 1-.068-.023c.03.003.06.003.095.003-.004-.01-.01-.01-.016-.017-.01-.033.074-.053.124-.056l.03-.005c.007 0 .017.003.03-.002.01-.003.015-.008.02-.012.004.016-.01.022-.025.032-.02.002-.1-.004-.116.016v.004c.018.01.042.028.066.032.03.005.073-.005.11-.006h.048a.253.253 0 0 0 .054-.097c.008-.003.015-.002.023-.002.02 0 .07-.02.077-.026.024-.017-.045-.094-.064-.098-.016-.003-.035 0-.053-.002-.03-.002-.12-.02-.135.016.003.01.01.012.016.017l.002.002h-.084c-.003-.016.02-.042 0-.056-.005-.002-.03.002-.037 0 0-.007.013-.012.023-.016.012-.025-.04-.045-.056-.062.024 0 .043.01.072.01.04-.004.058-.04.108-.042.026-.002.04.014.065.012l.022-.01c.038-.017.064-.04.06-.074-.004-.018-.057-.04-.088-.028l-.113.05c-.012.01-.02.017-.033.025.002-.013.01-.04 0-.052-.012-.02-.033-.034-.042-.056-.072.013-.047.037-.072.063-.05.016-.087-.012-.132-.01.018-.018.077-.002.1 0l.006-.002.01-.02a.172.172 0 0 1 .043-.047h-.002c-.006-.005-.02-.004-.03-.005a.358.358 0 0 0-.06-.006c-.038 0-.08.01-.108-.003.022-.004.03-.01.037-.02-.007-.012-.04-.014-.053-.018v-.004a.374.374 0 0 1 .107.005c.026.006.05.022.083.017.017-.01.037-.032.066-.024.015.004.02.017.036.02a.036.036 0 0 0 .03-.057c-.02-.03-.062-.04-.09-.06-.012-.008-.005-.025-.017-.03-.02-.013-.062 0-.098 0h-.036c-.022 0-.037.013-.05.018a.344.344 0 0 1-.066.02c.035-.012.042-.03.065-.047.02-.014.053-.022.07-.036.01-.005.017-.02.005-.028-.005-.004-.02-.004-.034-.007l.087-.04.036.01.043.032h.004l.004-.003c0-.014-.024-.025-.036-.033a.116.116 0 0 1-.027-.018 12.898 12.898 0 0 1 12.213.518.466.466 0 0 0-.162.134c-.023 0-.065-.01-.075-.01-.04.008-.1.08-.114.115l-.018.018c.02.014.037.03.05.05-.048.035-.12.018-.145.077l-.007.006.048.046-.006.04c-.192 0-.16.057-.273.11v.002c.103.125.118.02.26.044.064.01.112.048.17.06.055-.03.08-.08.125-.12 0-.014-.002-.026-.003-.04l-.05-.03-.007-.01.035-.036a.165.165 0 0 1 .08.025c.026-.028.067-.056.097-.082v-.003c-.01-.008-.02-.017-.032-.025-.007-.01 0-.023.003-.038l.022-.02c.054.002.135.024.178.004.018-.014.036-.028.054-.04a.359.359 0 0 1 .032-.036l-.04-.022c.004-.02.023-.04.05-.053.414.26.815.536 1.197.84l-.007.037-.073.124c-.067.087-.264.09-.232.245l.08.007c.067.19-.052.145-.073.257.035.054.14.032.184.076.014.018-.002.056.005.083.017.062.068.084.143.073a.335.335 0 0 1-.092.156c-.008.006-.02.007-.035.006-.188-.176-.447-.273-.733-.353-.062-.017-.23-.065-.318-.044-.04.01-.06.05-.093.068l-.003.006.092.118c-.005.11-.06.09-.146.102-.01.016-.02.057-.026.073-.047.024-.096-.01-.108-.044l.044-.057c-.09-.04-.143-.047-.226.016a1.09 1.09 0 0 1-.064.05c-.05.016-.088-.016-.117-.024a.345.345 0 0 0-.18.016c-.047.02-.045.086-.087.11-.014-.007-.02-.01-.022-.028-.09.002-.112.035-.188.01 0-.025.003-.03.013-.045a.389.389 0 0 0 .056-.01c0-.048.01-.08.013-.117-.19 0-.084.1-.21.124-.004 0-.008-.002-.01-.003l-.017-.05-.2.082c-.113.045-.227.094-.33.137l-.077.022c-.043.035-.025.142-.07.175l-.086.016c-.17.035-.214-.046-.315-.124.02-.1.14-.097.254-.102-.028-.057-.085-.174-.153-.187l-.146.013c-.04-.01-.066-.027-.107-.016-.01.074.08.082.06.168l-.076.12-.006.007a.1.1 0 0 0 .077.044c.04.118.015.106-.016.202l-.008.054v.006c-.083-.004-.167-.106-.283-.092-.063.13-.247.118-.332.222.003.086.13.147.07.235l-.05-.016c-.036.005-.07.024-.118.01a1.22 1.22 0 0 1-.302-.132c-.052 0-.05.04-.076.063.002.033.063.102.095.115.028.012.07 0 .095.003.075.132-.05.123-.13.105-.036-.008-.08 0-.105-.016-.015-.01-.026-.038-.032-.057-.038-.02-.103-.007-.146-.03-.023-.01-.105-.22-.11-.263.062-.018.083-.095.036-.146-.033-.035-.11-.042-.153-.07-.068-.043-.122-.11-.18-.164.11-.056.126.045.17.07l.106.016c.25.075.65.262.914.064.056-.042.12-.08.118-.172-.034-.034-.04-.053-.038-.12a.587.587 0 0 0-.165-.1l-.192-.056-.18-.153a1.55 1.55 0 0 1-.103-.032l-.162-.057-.27-.02-.045.036-.006-.07c-.09-.018-.173-.034-.175-.14l-.092.054c-.023.01-.052.01-.07.022-.057-.037-.11-.018-.184-.013-.032-.05-.1-.064-.14-.11.12 0 .235.013.297-.05l-.003-.034c-.014-.007-.027-.016-.04-.024-.034-.01-.07 0-.096-.01-.053-.023-.09-.06-.15-.08a.226.226 0 0 0-.075.134l-.06-.013a.42.42 0 0 1 .064-.14c-.025-.033-.08-.014-.12-.006-.024.073-.06.123-.125.153l-.006-.14a.554.554 0 0 0-.194.213l-.026-.003c0-.123.057-.135.108-.2-.14-.01-.163.03-.235.102-.017.012-.04-.006-.06.006-.037.023-.073.094-.087.138-.093-.048-.14-.137-.19.04l-.064-.053c-.004 0-.008-.002-.01-.003-.025.038-.045.06-.103.067a.204.204 0 0 1-.076.113c.008-.034.014-.068.026-.095l-.006-.016-.01-.006c-.042.023-.074.115-.098.156-.068-.006-.082-.04-.15-.016-.012-.01-.025-.02-.037-.032-.03.123-.046.056-.108.102-.033.024-.016.058-.073.076l-.03.032.04.032v.003c-.02.024-.054.025-.087.018l.016.07-.03.04c-.002.003-.006.005-.01.007a.104.104 0 0 1-.044-.044h-.004c-.032.004-.035.04-.067.052-.006.013.006.027.02.038v.02c-.026.007-.038.012-.05.034-.02-.005-.037-.013-.064-.016-.022.017-.03.04-.06.048.005.02.01.026.03.032-.018.038-.1.048-.138.067l-.01.006c.01.02.02.037.032.055v.003c-.032.002-.056.005-.09.003l-.03.052c.02.026.045.035.063.067v.002l-.064.01a.612.612 0 0 0-.01.064c-.083-.02-.085.05-.115.105l.032.01c0 .023.002.045.003.068-.025 0-.04.002-.06-.003-.038.038-.06.082-.102.118l.01.03v.002c-.032.023-.043.007-.08 0a.444.444 0 0 0-.155.14l-.01.05c-.02.034-.063.043-.08.084-.002 0-.005.003-.008.005l-.03-.02c-.04-.026-.112.07-.11.122-.043-.018-.102-.016-.17-.016l-.015.017c.008.036.043.05.08.057-.032.037-.08.007-.134.003-.01.042-.006.055-.044.07-.05-.02-.072.02-.124.038l-.003.025c.013.017.036.024.054.035v.013l-.1.006c-.01.037 0 .076-.018.105.017.022.02.04.05.053l.004.006c-.028.022-.046.028-.057.07 0 .004.003.01.005.015.02.014.035.017.06.006l.016.02-.063.057c.026.04.056.017.11.022-.003.027-.01.045-.034.053l-.013.016.022.018c.03 0 .043-.007.064-.016-.014.018-.032.028-.064.03 0 .007 0 .003.003.012-.016.007-.025.002-.04-.006v.02h-.004c0-.01-.003-.018-.005-.026l-.003-.006-.038.044c.004.015.01.03.013.044l.016.01.003-.016.01.016c.025 0 .03-.007.048-.013l-.003-.037c.013.01.018.013.02.035h.003c.014-.013.028-.025.04-.038-.008.02-.02.026-.03.04.015.01.02.013.043.01v.003a.638.638 0 0 0-.057.032c-.006.014-.003.006.002.022.023.016.016.01.05.006v.003c-.017.003-.02.006-.028.02l.01.012c-.02-.01-.033-.028-.045-.01l-.01.006-.004-.03c-.008 0-.017 0-.025-.002.008.025 0 .036-.012.057l.03.056c.06.018.094.043.152.057l-.02.02a.082.082 0 0 1 .02.012l.016-.02c.015.01.02.01.026.03a.423.423 0 0 0 .175-.022c.054-.054.122-.088.178-.14.02-.018.02-.036.048-.048.02-.01.044.012.07-.006.03-.024.04-.064.042-.112l.022-.016c.006.023.005.028-.006.044.027.037.03.07.084.048l.006.003c.003.026-.01.033-.016.057.026.013.03.087.03.124.01 0 .018-.002.028-.003 0 .01.002.017.003.026.024-.005.023-.006.044 0 .003.025-.014.06-.023.084.024.03.04.043.038.102l.025.003c.024.08.074.114.12.16 0 .01-.003.018-.005.026l-.03-.003.004.025-.033.016c.02.04.044.084.08.11-.01.03-.02.038-.026.068.077.016.13-.015.192 0l.016-.02c.018-.015.003-.024-.01-.043.012-.03.018-.055.048-.068.01-.006.006-.003.02.003 0-.008.003-.017.005-.025a.51.51 0 0 0 .128-.013c.01.007.02.015.032.022.002 0 .004.003.006.005l.09-.162c0-.02 0-.04.002-.06.005-.03.02-.045.03-.067.007-.014-.006-.03.002-.05l-.022-.01v-.04h.032c.047-.035-.028-.126-.035-.158l.09-.003c0-.006 0-.013.002-.02.088.017.053-.066.095-.082v.048c0 .002.002.003.003.004l.03-.003c.006-.033.025-.044.056-.053 0-.01-.003-.02-.005-.032.014 0 .028-.002.04-.003 0-.005 0-.01-.002-.016l-.003-.006h-.016v.016c-.05-.02-.087.03-.14.022-.055-.01-.082-.068-.15-.048H20.9l.013-.022c.02-.02.152.024.184.04.04.023.143-.06.156-.075h.03c-.002-.047-.025-.05-.036-.09a.154.154 0 0 1-.124-.1c-.013 0-.025 0-.038.002-.02-.007-.03-.02-.067-.022l-.003-.006c.023-.02-.026-.148-.013-.2l.035-.01c.028-.087 0-.102-.01-.178.02.005.038.012.057.018.01-.014.02-.028.032-.04.008-.014-.002-.038-.006-.058h.064c.04-.056.058-.056.11-.095.026-.02.026-.048.058-.064l.035.023.15-.102c.035-.042.038-.097.09-.123l.007-.01c-.017-.026-.047-.04-.06-.067l-.01-.01a.16.16 0 0 0 .076-.067c.012-.018-.01-.036-.022-.05.04-.053.054-.02.092-.05.045-.033.047-.095.105-.123l.076.05c.012.008.112-.016.153-.015.04.03.058.057.13.057l.016.03c.006.018-.004.06-.01.078a.33.33 0 0 0 .025.03c.006.008.004.018.003.037l-.06-.003c-.05.014-.272.244-.305.292h-.016l-.02-.03v-.005c-.044.048-.007.104-.078.14-.03-.01-.05-.015-.08-.005l.006.04c-.036.035-.06.052-.076.11.013.01.03.02.045.03 0 .048-.01.072-.016.11l.05.078-.013.06c-.018.094-.006.155.063.19.03.016.035.033.073.02 0 .013-.002.025-.003.038.026-.008.047-.02.086-.018l-.016.035c.01.02.02.035.042.044.034.026.096-.007.117-.018v.013c.03-.007.04-.013.066 0 .022-.03.038-.034.076-.048l.007.013c.024-.014.07-.02.08-.048.015.01.03.02.042.03h.003c.01-.042.05-.02.076-.042.015-.008.02-.028.023-.048v.03l.054.018c.013-.013.017-.022.04-.025l.033.02c.03-.03.1-.05.15-.055l.013-.022c.014 0-.005.04-.01.057.074.107.173-.02.245.115l-.022.016c-.047 0-.07-.022-.11-.035-.04.004-.05.034-.07.055-.028-.006-.027-.018-.052-.013-.008.013-.007.007-.003.022-.015.014-.025.002-.037-.013l-.02.004c0 .007-.003.015-.005.022.016.02.033.026.032.054l-.013-.013c-.01-.004-.03.033-.054.032-.08-.007-.148-.022-.226-.036-.04-.007-.083.012-.102-.003l-.025.023-.073-.016-.006.022c-.02-.004-.03.002-.05-.004-.043.023-.072.048-.14.05.003.023.006.03-.013.036.012.03.012.05.022.083.01 0 .016-.006.028-.013l-.003.086c.028.008.04.016.06.025l.038-.035.02.013c-.01.08-.046.135-.02.227-.02.053-.11.085-.162.038l-.02-.06-.07-.05v-.023c-.058.002-.078.028-.134.03a.815.815 0 0 0-.05.063l-.004.067-.048.038c-.034.072.017.25.032.29-.004.01 0 0 .006.012l-.016.003c.006.017.01.024.006.044-.04.022-.125.006-.18.002-.01.025-.012.055-.014.083-.062.033-.105.08-.194.048a.132.132 0 0 0-.026-.06c.003-.044-.106-.017-.14-.006-.145.046-.25.13-.426.143.002.034.006.044.006.073-.04-.014-.07-.028-.105-.04l-.006-.055c-.04-.02-.088.008-.11-.06-.03-.002-.214.06-.23.1h-.035l-.006-.02h-.003a.051.051 0 0 1-.048.006l-.006-.01c.02-.02.033-.024.05-.05l-.01-.02-.073.006c-.03-.006-.033-.026-.06-.013-.007-.022-.007-.02-.032-.02.03-.046-.03-.09-.067-.104a.219.219 0 0 1 .044-.114l-.01-.017c.015 0 .03-.002.042-.003.012-.04.05-.047.032-.095l.032-.016.02.024.028-.01c.005-.01.034-.065.02-.08-.027 0-.052-.002-.077-.003-.017-.008-.016-.05-.017-.075-.034-.016-.082-.01-.127-.01l-.01.08c-.005.007-.01.008-.02.01l-.02-.045c-.024.013-.028.05-.048.06-.018.01-.05-.017-.067-.016-.034.053.007.09.01.143-.015.02-.027.033-.037.06l.026.013.012-.016c.015.013.014.023.04.025.005.03-.003.096.004.12.007.026.04.043.048.073a.086.086 0 0 1-.054.025c.006.022.02.015.048.013-.006.01-.008.01-.016.017l.022.022-.016.012.003.016.036.016c-.023.012-.052.002-.08 0-.01.03-.017.038-.002.067l-.048-.015c.004.01.01.02.013.03a.04.04 0 0 0-.01.012l-.01.003-.01-.006c-.003-.02-.006-.03-.013-.054a.364.364 0 0 0-.14.02l-.007.028c.004.024.016.02.03.035l-.004.01h-.013c-.012-.012-.03-.024-.038-.04-.06-.024-.158.026-.206.042-.008.028-.007.038-.007.073.014 0 .028.002.04.003-.007.013-.01.016-.012.036.013.008.018.012.04.013-.007.034-.024.03-.04.053-.024.017-.045 0-.082-.006.008-.018.008-.026.006-.054.013 0 .01 0 .022-.003l.01-.02a.113.113 0 0 0-.035-.037l-.047.013-.057.143c-.037.03-.074.063-.11.094.015.007.026.02.034.035-.027.03-.07-.003-.108.012l-.083.054c-.02 0-.037.002-.055.003-.023.01-.047.022-.07.034-.02.06.005.13-.044.162-.056.037-.132.025-.174.076l-.003.02.032.008c-.06.06-.14-.013-.213.022-.01-.022-.017-.037-.013-.07-.04.006-.06.004-.103 0 .006.04.024.08.054.095 0 .042-.006.073.014.1a.103.103 0 0 1-.054.012v-.023a.435.435 0 0 1-.137.03l-.04-.055-.068.006-.01.022c-.012.008-.054.003-.054.003 0-.002-.003-.004-.006-.006-.038.003-.066.03-.11.032l-.004.04a.186.186 0 0 1 .067-.01c-.008.015-.01.02-.03.022-.004.01.02.01.03.013l.003.013v.002l-.057.01c.01.017.033.014.044.03l.003.015a.308.308 0 0 1 .222.064l.04-.014.017.01-.017.032c.018.023.06.037.083.054l-.016.035.06.073c.067.034.056 0 .092.076-.01.02-.023.037-.026.064.025.033.056.053.067.102l-.05-.063h-.004a.33.33 0 0 0-.026.15l.016-.012.013.016-.025.013c-.017.076-.033.154-.06.213-.08.014-.122-.02-.188-.038-.038.048-.175.03-.257.016-.038-.006-.17-.043-.178-.04-.038.007-.08.043-.133.034-.07-.012-.115-.05-.184-.022l-.02.05h-.04c-.052.003-.08.017-.098.052 0 .012.002.023.003.035a.1.1 0 0 1 .083.076.566.566 0 0 1-.038.12c.048.1.012.37-.07.414a.187.187 0 0 1-.02.102c.01.013.01.013.027.018.02-.01.033-.015.04-.035l.01-.006.014.025c-.013.016-.026.022-.055.022v.003l.006.025a.112.112 0 0 0 .06-.01l.007.006-.016.083c0 .003 0 .005-.002.007.008.014.02.045.013.076-.005.023-.03.054-.02.08v.006a.145.145 0 0 1 .107-.02c.015.004.027.018.05.013a.843.843 0 0 0 .068-.032c.074-.02.146.042.143.096l.026.01c.01.052.05.106.114.09.005-.008.005-.007.006-.02h.003l.003.016h.003c.014-.06.034-.048.09-.067a.45.45 0 0 1 .047-.04c.084 0 .167 0 .25.002.017-.006.03-.018.058-.022l.02.016c.037-.027.032-.045.056-.088.025-.044.087-.042.146-.054.005-.014-.006-.015-.003-.032.013-.077.088-.13.15-.162v-.01l-.048-.026c-.013-.026-.024-.053-.036-.08.016-.072.112-.194.178-.218l.003-.006c-.008-.01-.012-.008-.016-.022.042-.075.13-.037.196-.08l.016-.028c.037-.033.106-.034.137-.073.037-.098-.076-.164.05-.253.08-.057.094.003.165.003.018 0 .04-.016.067-.006.037.014.058.07.12.057.12-.02.155-.092.236-.145l.07-.02.038-.04c.065-.05.128-.052.213-.01.11.055.104.24.21.305.09.057.164.146.25.19.078.04.153.013.172.115l.044-.013h.003l.018.022-.016.006-.007.013.057-.016.032.03c.004.02 0 .032-.006.047l.067.04c.012.007.02 0 .035-.01.017.006.09.21.086.227v.007c-.012 0-.023-.002-.035-.003l-.015.016c.01.033.002.055-.032.07v.038c.006.004.013.01.02.013h.04c.02-.03.034-.07.073-.082.008-.017.002-.03 0-.054.022-.02.03-.034.08-.032l.015-.02a.07.07 0 0 1-.002-.066l-.092-.05c0-.056.043-.142.098-.134-.003.047.07.032.102.054.015.012.003.02.013.038l.053.035.022-.068a.825.825 0 0 0-.372-.22l-.016-.018c.016-.014.025-.027.048-.035 0-.006-.002-.012-.003-.017-.023-.037-.163.006-.206-.038-.04-.04-.105-.1-.127-.153-.015-.033-.013-.078-.033-.105-.015-.02-.044-.025-.067-.038-.075-.045-.116-.072-.137-.173.013-.016.028-.022.038-.04-.015-.02-.028-.018-.028-.055l-.022-.003.013-.033a.317.317 0 0 1 .124-.035c0-.01.002-.017.003-.025.04.002.043.002.08 0l.015.025c-.01.013-.017.017-.038.02.01.048.035.087.05.126.018-.008.028-.02.042-.032l.024-.07c.128.05.043.155.172.194l-.054.003v.003c.037.054.093.083.133.133.012.012.03-.013.054-.007.002 0 .076.03.08.035.025.018.046.05.07.067.067.047.137.077.204.124l.044.053.064.032c.002.026 0 .03-.02.035-.002.022.01.113.007.118-.01.016-.018.032-.026.048.01.016.02.022.02.05-.006 0-.01 0-.017-.002.013.04.072.05.095.08l.01.044c.02.05.076.096.14.086l.013.013v.006c-.014.017-.033.015-.054.02v.002c.02.028.037.055.055.083.05-.004.113-.03.175-.013.04.01.06.04.11.044v.002c-.05.067-.1-.01-.16-.02-.02-.002-.042.018-.08.017l-.032.056.057.07c.007.022-.008.05-.006.073l.028.024.03-.022c.02-.01.047.043.053.07.003 0 .005.002.008.003l.016-.03c.028-.013.045 0 .07.014-.003-.07-.028-.098-.048-.147v-.016l.05.016h.007l-.01.02a.106.106 0 0 1 .026.01c.01-.018.013-.023.04-.023-.012-.014-.014-.01-.013-.032l-.032.006c-.01-.024-.013-.037-.03-.054l.07-.022c.026.003.054.04.06.06l.01.006.02-.016-.02-.06c.005 0 .01-.002.014-.003-.004-.03-.172-.116-.21-.124v-.002a.152.152 0 0 0 .05-.022l-.02-.044v-.003c.016-.01.022-.01.042-.004.007.013.008.018.006.035h.003c.004 0 .007 0 .01-.002l.014-.016c-.04-.048-.084-.096-.11-.156 0-.024.007-.032.018-.045l-.016-.018c.017-.008.03-.01.038-.03l.013.004.003.013a.059.059 0 0 0-.016.01c.02.04.07.034.073.09l.048.007h.006c-.017-.02-.038-.028-.053-.054v-.003c.038.002.06.025.073.05.007 0 .015 0 .022-.002l.003-.01c-.012-.02-.03-.023-.042-.044.005-.004.01-.01.016-.013.017.004.033.01.04.023.01.007.018.015.026.022l.01-.006v-.004c-.032-.04-.076-.047-.096-.098v-.003c.067-.013.054.01.105-.035.02.002.017 0 .022.016.04 0 .05-.012.076-.025.022.052.136-.005.143.06l.013-.012c.016.01.05.016.072.022l.003.006-.048.03-.013.047c.033-.01.045-.042.07-.06.03-.014.06-.028.092-.04l.022-.046c.02-.01.05 0 .076-.01.068-.026.056.005.137.007a.186.186 0 0 0 .033-.048c-.022-.03-.07-.026-.105-.044-.044-.024-.09-.157-.134-.15v-.024c.018-.017.024-.028.05-.038.01-.042.02-.076.027-.11.013-.007.055-.01.06-.02l.007-.06c.018-.1.03-.188.143-.194l.035-.073c-.008-.015-.017-.02-.026-.032-.017-.05.045-.048.075-.066.1-.06.052-.16.254-.156.003-.008.008-.015.012-.022l.01-.006.03.038v.006l-.034.032v.006c.048.067.132.043.23.044.005.013.012.026.018.038-.033.037-.125.053-.165.092l.007.013c.1.018.184 0 .127.132v.01c.142.026.08-.013.168-.044l.076-.006.05-.04c.03-.01.045.008.068.012l.057-.01a.187.187 0 0 0 .032-.057l-.095-.013c-.036.004-.07.032-.117.02-.012-.063-.1-.13-.17-.15 0-.002 0-.004-.002-.006.053-.014.1-.008.154-.01.02-.02.033-.033.04-.064.003 0 .005-.002.008-.003l.022.02c.01.007.01.004.022 0 .025-.008.03-.024.05-.032l.19-.035c.01-.013.022-.025.034-.038l.11-.013c.008-.006.005 0 .007-.013.047-.01.093-.018.14-.026l.016.032a.362.362 0 0 1-.207.076c-.004.005-.01.01-.013.016.037.026.074.05.098.09-.016.012-.038.016-.07.015-.013.04-.04.065-.044.114-.024.013-.077.02-.105.025.023.03.053.073.08.098.02.004.03 0 .044-.01.02.014.03.035.048.048l.067.02c.05.023.095.07.14.104.023.02.057.07.088.067l-.006.028c.05.038.155.05.19.105l.023.08c.04.143-.045.193-.162.22-.066.017-.11-.024-.168-.015l-.08.026c-.048.01-.137-.01-.19-.02-.063-.01-.075-.064-.146-.037-.04-.018-.04-.038-.06-.073-.015-.01-.052.015-.087.006-.042-.01-.038-.044-.06-.073-.087.055-.162-.01-.27.016-.098.024-.17.086-.257.114l.003.025c-.07.037-.102.004-.16-.006l-.03.01-.14-.013c-.005.013-.012.025-.018.038.015.016.035.022.04.045.027 0 .054-.002.08-.003v.003a.599.599 0 0 1-.14.016c-.01.012-.013.013-.013.026l.037.01.01.006-.01.013a.685.685 0 0 0-.17-.003l.017-.02a.061.061 0 0 0-.044-.002l-.003.006.02.01v.01c-.035.01-.072.005-.08-.022-.046.005-.102.02-.127.048-.017.02.002.028-.035.032-.005.035-.014.065-.016.095l.13-.02v.003a.057.057 0 0 1-.03.025l-.022.025c.018.003.025.01.032.022s-.004.01-.006.032h.03l.01.013c-.01.012-.027.018-.046.022-.004.013.005.027.02.038.016.023.012.015-.01.032-.017-.002-.028-.013-.045-.022l-.016.035v.022c.053.006.066.023.11.035.003.03-.01.062.004.083.018.01.035.02.052.032l.003.013-.04.016a.075.075 0 0 0 .01.02c.033.002.067.005.1.01.002 0 .003.003.004.005-.01.01-.013.01-.017.026l.01.022.005.003.032-.03c.042-.002.043.01.073.024.014.007.025-.008.038-.02l.04.09c.05.015.114-.013.148.01.007 0 .013-.002.02-.003l.02-.107a.31.31 0 0 1 .195.04c.036.025.054.072.102.087.068.02.15-.013.19-.022.022-.04.053-.05.08-.083.07 0 .088.028.143.035.018-.02.043-.033.06-.057h.013l.02.025.003.02c-.02.02-.045.033-.063.056l.025.044c-.005.03-.02.053-.032.076.044.057.01.098.038.165-.072.07-.102.202-.15.288l-.014.064c-.02.067-.038.13-.086.168l.11.28c.007.01.013.007.026.016-.01.07-.042.143-.048.203.018 0 .036 0 .054.002l.07.09c.052.084.094.16.15.237.04.058.102.112.082.205.042.06.11.075.162.124l.098.177c.033.064 0 .157.026.23l.076.107c.035.048.112.057.15.102l.133.273.05.037a.476.476 0 0 1 .118.172l.016.1c-.004.02-.02.035-.016.065.015.086.056.177.082.248v.108c.048.103.192.084.277.03.03-.023.057-.047.086-.07.047-.014.108.006.15-.006.063-.02.113-.067.17-.086.04-.013.083.008.115-.01.034-.017.044-.06.076-.08.12-.064.273-.064.384-.132.03-.02.023-.044.038-.08.015-.035.07-.07.105-.086l.182-.06.105.013.038-.022c.023-.044.008-.1.054-.123.047-.022.092.01.136-.025.016-.013.013-.035.022-.057.024-.06.095-.076.175-.08.005-.057-.006-.15.013-.21.028-.01.062.012.086-.002.03-.02.032-.074.05-.105l.065-.06a.76.76 0 0 0 .08-.12c-.007-.034-.06-.045-.08-.065l-.095-.12c-.024-.017-.052.003-.083-.004l-.135-.074a.317.317 0 0 1-.105-.124c-.01-.033.005-.075-.006-.102-.007-.01-.012-.01-.03-.01a.147.147 0 0 0 .03-.114h-.003c-.02.03-.044.057-.066.086-.056.045-.107.072-.156.133l-.035.067c-.017.015-.026.01-.035.035-.02.006-.032.007-.048-.003l-.003.016a.583.583 0 0 1-.238-.01c-.01.01-.013.01-.017.023-.037.003-.065-.002-.102-.003.008-.03-.006-.032-.03-.038-.02-.044.035-.064.037-.108 0-.014-.008-.134-.013-.14-.01-.013-.017-.01-.025-.03-.008 0-.016 0-.023-.002-.042.03-.06.144-.035.203.003.035.005.047-.026.044a.38.38 0 0 1-.057-.157c-.018-.013-.02-.02-.04-.016-.015-.053-.028-.058-.005-.114l-.02-.032c.01-.014.02-.013.023-.037-.03-.04-.102-.036-.124-.086-.018-.014-.013-.013-.003-.032-.017-.01-.028-.008-.056-.006-.035-.093-.08-.18-.105-.277-.02.004-.037.01-.055.013l-.02-.01.033-.037h.022c-.004-.02-.01-.04-.013-.06.013-.018.084-.02.118-.02.027-.027.023-.06.063-.076h.01c0 .02 0 .037.01.048.02.036.083.03.12.016.023.035.073.07.087.105v.05c.016.042.068.13.095.17.032.045.11.04.156.072.023.03.047.057.07.086.053.032.105.03.17.052.034.012.054.043.097.048.02-.018.093-.06.1-.086.048-.017.1-.037.16-.022.026.006.02.017.046.02.006.02.004.05.015.078.013.034.047.056.048.105.034.006.068.028.092.038h.127l.038.035.213.003c.038.01.06.034.108.042.067.01.128-.014.18-.022h.142c.028-.01.05-.03.095-.035.04.084.274-.01.343-.013.037.026.038.05.035.11l.07.017.035.1c.025.034.057.017.095.04l.045.062c.052.062.19.115.3.076 0 .026-.01.032-.027.048-.07.072-.107.01-.184.038h-.007c.024.057.217.25.286.254l.06-.022c.07-.024.19-.064.126-.15.004-.014.01-.03.013-.044.015-.01.04-.01.07-.01a.303.303 0 0 0 .005.143c.008.023.058.042.05.073s-.047.057-.05.095c.014.073.028.146.04.22l.052.307c.035.126.105.222.153.327.032.072.058.15.083.23.01.038.02.077.032.117.02.027.038.055.057.083l.11.245.05.168.088.095c.045 0 .11-.032.124-.064.013-.026.002-.052.02-.072.04-.014.082-.028.123-.04-.006-.014-.017-.022-.03-.03l.04-.108c.018-.01.053-.01.085-.01.012-.06-.016-.124-.01-.18.014-.107.144-.23.055-.328.028-.07-.018-.148 0-.226.01-.023.02-.047.032-.07.03-.024.058-.03.094-.01.024-.016.04-.053.048-.083.03-.016.085-.005.114-.026.032-.022.024-.084.054-.108l.095-.05c.036-.022.055-.07.09-.09.022-.015.043-.017.063-.033.05-.06.097-.12.146-.178.04-.028.104-.022.146-.05.053-.033.074-.09.114-.136l-.02-.067c.036-.036.09-.042.135-.07.015-.017.03-.034.047-.05a.08.08 0 0 1 .03.05l.018.006c.01-.015.017-.03.026-.045l.004-.006c.017.01.02.032.026.054h.045c-.003-.015 0-.02.003-.035l.03.017.018-.032.013-.01.012.032h.02a.114.114 0 0 0 .025-.06l.006-.003c.01.02.02.038.032.057h.022c.008-.033.013-.038.048-.047.01-.035-.002-.064-.016-.092-.002-.016-.003-.032.005-.04l.006-.006.05.063c.034 0 .05-.01.072-.022.088.07.06.32.18.353.012.003.028 0 .04.003v.042c.026.017.04 0 .062.013.034.018.054.073.067.114v.002l-.05.01a.133.133 0 0 0 .054.035l.016-.03c.002 0 .004 0 .006-.002.04.064.087.18.073.29-.01.064-.05.11-.052.18l.022.016c.024-.018.037-.032.076-.037l-.01.038.016.017h.013c.014-.01.016-.02.04-.022v.03c.04.035.048-.04.077-.06.092-.067.137-.016.152-.173h.013c.043.03.045.117.098.133l.038.27c.023.082.075.155.102.226.027.073.015.146.013.217a.06.06 0 0 0 .035.006c-.017.04-.073.17-.057.206.01.005.017.012.025.018-.03.08-.08.195-.05.283.013-.004.025-.01.038-.015.042.045.083.068.105.137.01.004.017.004.032 0 .022.028.026.05.026.098l.017.01c.017.02.04.015.06.003l.006.006c-.01.07-.004.15.022.22l.038.07c.004.036-.012.066.006.096l.06.05c.007.012.01.03.014.045-1.08 6.048-6.378 10.65-12.76 10.65zM14.964 9.424c.002 0 .003.003.004.004-.002 0-.002-.003-.004-.004zm11.494 7.595c-.014.005-.015-.01-.035-.007l-.05.016-.007-.004c0-.012-.002-.023-.003-.035-.006 0-.013-.003-.02-.005 0 .008-.003.017-.005.025-.024-.006-.027-.007-.054-.003l-.025-.05c-.035.037-.04.135-.023.183.02.01.067.004.108.003l-.022.03.006.018c.006.012.02.02.034.023v.01l-.067-.007-.016.022v.022c.022-.015.034-.01.065-.003.012.034.043.038.057.067.007.027-.02.06-.02.102 0 .02-.01.045-.008.054.01.05.054.177.013.21-.03.024-.096.012-.14.022-.157.035-.374.05-.43-.1-.06-.015-.124-.03-.174-.047-.026-.1.03-.196.03-.28l.01-.006c.008.006.01.007.012.02l.01.007.01-.045c.01-.005.01-.005.022-.003-.006-.085.005-.226.14-.17h.003l-.003-.015c-.028-.064-.095-.018-.12-.054-.016-.02-.04-.04-.05-.062-.01-.025-.004-.048-.018-.067a.572.572 0 0 0-.08-.09l-.03-.01c-.024-.035-.037-.08-.07-.108l-.02-.006c-.017-.023.002-.04-.023-.054-.03-.04-.01-.11.01-.156v-.01h-.017l-.016.057h-.003c0-.057-.006-.113-.056-.143-.016-.01-.038-.005-.044-.022v-.016c.002-.037.04-.04.057-.064a.546.546 0 0 0 .06-.143l.006-.01c.052.025.1-.015.14-.038l.022.013c.008-.01.01-.015.01-.035.05-.01.066-.06.107-.076l.06-.004c.065-.02.12-.105.206-.098.048.004.07.037.105.044.04.008.048-.02.067-.025l.086.02.022.037c-.01.008-.017.017-.025.025.023.08.005.102-.04.164 0 .03.034.04.056.048 0 .002 0 .004.002.006l-.206-.02c-.02.004-.023.014-.05.014l-.02.05c-.015.02-.03.01-.038.04a.105.105 0 0 0 .057.04l.01.013c-.03.022-.107-.013-.17-.01l-.008.01v.04c.02.014.067.023.092.026.013.08.068.103.066.185h.045c.02.014.037.034.046.057.044.006.083-.005.118.032a1.17 1.17 0 0 0-.048.102c.012.02 0 .038.01.06l.02.01-.004.03c.007.014.028.04.038.056v.006c.014-.036.005-.113.016-.153.044-.008.087-.016.137-.013.007.028.012.087.026.108.022.035.072.038.097.09-.008.014-.013.017-.03.024-.02-.004-.02-.012-.04-.016.002.015.007.028.01.04zm-4.058-.13c-.002 0-.004.003-.007.005-.012-.01-.02-.018-.04-.022 0-.005.003-.01.005-.016l.026.013c.01.005.01.008.016.02zm10.922 5.42c-.184.007-.162-.113-.194-.252l-.02.006c-.027-.022-.016-.073-.024-.11-.03 0-.06.01-.09.005-.075-.126.063-.318.096-.414l-.006-.08c.01-.04.03-.056.013-.107.046-.036.073-.03.146-.026l-.01.114c.03 0 .04.012.06.016.04.007.053-.027.095-.003l.057.06.003.002a13.17 13.17 0 0 1-.095.825l-.03-.038zm-17.046-9.965c.06.03.114.002.13-.057 0-.013.002-.025.003-.038l.09-.022c.022-.036.043-.126.01-.168-.02-.024-.077-.008-.11-.02a.385.385 0 0 1-.04-.024c-.01-.018-.003-.046.005-.067l-.013-.023c-.07-.03-.126-.018-.156-.086a.195.195 0 0 0-.086-.015v.08c-.065.044-.155.022-.24.012.01.025.024.044.02.073a.106.106 0 0 1-.094-.06c-.03-.024-.074-.006-.108.02l.016.05v.003l-.026.01a.252.252 0 0 1-.09-.106h-.002l-.026.016c-.015.026-.004.072-.003.114-.023.024-.056.02-.086.038a.66.66 0 0 1-.047.044l-.05-.074c-.01-.02.036-.05.027-.09-.017-.08-.13-.098-.206-.12l-.022.025-.006.007a.13.13 0 0 1 .05.064v.004c-.068.048-.12-.086-.16.003l.037.05.01.01c-.04.01-.1.01-.13.026-.003.014-.004.025.003.035.05.083.138-.01.225.003.05.01.084.024.122.04l.007.03a.176.176 0 0 0-.01.03c-.055.04-.242.033-.268.083l-.003.01.012.02c.04.016.13-.012.175-.02.037.043.052.062.127.07-.044.064-.1.068-.146.118.05.063.232.007.308.036l.073.05c.038.024.105.03.155.04.133.02.13-.065.184-.087l.152-.02c.07-.024.13-.077.184-.115zm3.48 10.434c-.014.015-.022.045-.045.053v.03c.007 0 .014.003.02.005.04-.005.033-.047.063-.064-.008-.015-.017-.02-.037-.025zm6.022 2.427c-.018-.03-.054-.03-.07-.067-.034-.027-.03-.02-.064.006.005.05.004.118-.035.15-.023.017-.04.02-.052.05-.02-.007-.024-.017-.032-.035-.01 0-.02 0-.03-.002 0 .034.01.055.02.083l-.006.017a.066.066 0 0 1-.04.013l-.004.006c0 .022.013.03.022.05l-.035.04c-.02-.003-.02-.005-.025-.02h-.003l-.048.04c.004.018.01.024.02.036l-.02.013c-.012.005-.013-.004-.032-.01l-.07.044.006.037c-.035.008-.06-.027-.104-.006l-.026.03c-.02.01-.037-.007-.054-.006l-.038.03c-.022 0-.045 0-.067.002 0 .107-.04.123-.07.19-.01.05.036.163.06.195l-.02.05.047.056c.015.058-.083.256-.108.28l-.04.013c-.022.015-.05.116-.044.155.026.05.053.097.08.146-.008.025-.014.05-.02.074-.015.072.03.08.042.114.008.026-.003.046.01.064.04.06.13.042.17.105.07-.004.086-.045.144-.06l.105-.013c.066-.04.103-.25.13-.337l.226-.728c.014-.05-.006-.095.01-.15.012-.046.06-.073.072-.127a.236.236 0 0 1-.045-.137l.016-.01.006-.006a.23.23 0 0 0 .06.083c.017-.015.057-.062.05-.095l-.04-.08c-.02-.073-.015-.23-.054-.28zM8.716 18.92c.003 0 .006.003.01.005l-.035-.076c.005.03.017.046.026.07zm6.644-9.13h.002l-.007-.01-.024.005c-.073 0-.11-.047-.204-.03-.027.012-.117.03-.127.046-.016.024.038.04.057.045.067.016.153.003.232.01.014 0 .038.003.048.01.01.002.012.01.022.012.016 0 .045-.02.05-.028h.003c-.04-.01-.1-.01-.13-.033.027-.01.052-.02.077-.028zm-6.672 9.06h.003a.06.06 0 0 0-.006-.023l.004.022zm-.397 2.843c.01.014.126.084.157.076.022-.007.03-.04.07-.03.025.006.032.02.064.02l.004-.017c-.037-.055-.165-.08-.258-.076l-.035.026zm.39-2.866h.004l-.003-.01v.01zm3.09-7.433c.018-.013.05-.062.023-.087-.03.03-.085.04-.034.085l.01.002zm3.43-1.113c-.002 0-.005 0-.008.002-.03.026-.058.053-.087.08-.026.01-.053.023-.08.035-.018.014-.017.05-.024.068-.003.01-.027.05-.023.056.01.006.067-.012.076-.016a.254.254 0 0 0 .052-.03l.016-.016.045-.014.042-.037.005-.005c.007.004.02.01.032.004.023-.013.02-.034.05-.048.007-.025-.076-.064-.094-.077zM12 16.823l-.004-.006-.032-.01a.08.08 0 0 0-.03.035c0 .002-.003.003-.005.004-.017-.02-.03-.056-.04-.083v-.002c.062-.03.06-.013.11-.057v-.015l-.023-.01a.17.17 0 0 1-.07.022.138.138 0 0 1-.048-.048l-.01-.01.072-.06.02-.023a.243.243 0 0 0-.166-.04l-.02.034c-.07.015-.128-.03-.17-.062v-.01l.053-.054-.068-.025c-.056.01-.05.066-.105.078-.003-.124.172-.2.12-.302.024-.007.052-.015.07-.022l.004-.013c0-.004-.003-.01-.005-.015l-.02-.006-.116.03c-.096.062-.215.245-.255.363l.048.057c-.043.045-.09 0-.118.083l-.006.013.072.02c-.045.044-.132.055-.162.114-.008.015.006.038.013.057l.146-.016c.06.01.12.018.18.026.055.01.115 0 .124-.04l.05-.007v.047l.007.01c.007 0 .014-.002.02-.003.016-.006.02-.018.026-.035a.873.873 0 0 1 .086.01v.005c-.06.028-.077.084-.153.105-.007.013-.005.008 0 .022.015.008.04.01.066.01.048-.054.138-.098.172-.157l.016.006c.01.015.02.03.032.042a.1.1 0 0 1-.032.073l.003.026.025.004c.013-.01.026-.02.038-.032l.006.054.08.022c.014-.047.053-.097.047-.15-.06.006-.066-.01-.054-.056zm11.305 1.236c.012-.006.008-.002.01-.02.072 0 .084-.045.146-.05l-.02-.03c.025-.033.067-.05.094-.082l-.15.054-.088-.01c.005.01.006.02 0 .032a.65.65 0 0 1-.092.022c.006.027.014.035.022.057.022.01.062.015.08.028zM12.84 13.67c-.004.016-.046.022-.053.044v.002a.167.167 0 0 0 .08-.03c0-.007-.003-.01-.01-.016h-.016zm-2.875 9.786l-.007.01c.022 0 .02.005.032.016a.047.047 0 0 0 0 .04l-.05.023-.007.01v.003c.043 0 .087-.002.12-.006.01-.04-.003-.078.017-.108v-.004h-.02a.185.185 0 0 1-.085.016zm1.656 1.817c.074.018.214-.006.255-.054.024-.03.032-.104.048-.134-.028-.027-.223-.03-.296-.028-.04.06-.028.163-.006.215zm-1.71-3.596c.01.02.006.045.007.067.043.01.057-.008.102-.01.058-.002.097.018.107-.048-.04-.03-.143-.025-.2-.025l-.016.017zm.958-4.49a.153.153 0 0 1-.025-.016c-.005-.05.042-.045.067-.072.02-.024.03-.077.048-.102l-.06-.04c-.023.05-.125.133-.108.206.025.104.21.07.235-.013-.075-.102-.098.02-.157.037z"/></svg>