<?xml version="1.0" encoding="utf-8"?>
<!-- Generator: Adobe Illustrator 18.0.0, SVG Export Plug-In . SVG Version: 6.00 Build 0)  -->
<!DOCTYPE svg PUBLIC "-//W3C//DTD SVG 1.1//EN" "http://www.w3.org/Graphics/SVG/1.1/DTD/svg11.dtd">
<svg version="1.1" id="Layer_1" xmlns="http://www.w3.org/2000/svg" xmlns:xlink="http://www.w3.org/1999/xlink" x="0px" y="0px"
	 width="52.5px" height="74.8px" viewBox="0 0 52.5 74.8" enable-background="new 0 0 52.5 74.8" xml:space="preserve">
<path fill="#6C9C39" d="M33.8,74.8V61.9c0-6.8-5.7-12.2-12.5-12.2c-6.8,0-12.5,5.5-12.5,12.2v12.9H33.8z"/>
<path fill="#7CB342" d="M28.8,74.8V61.9c0-6.8-0.7-12.2-7.5-12.2c-6.8,0-12.5,5.5-12.5,12.2v12.9H28.8z"/>
<rect x="8.8" y="71.8" fill="#332E2E" width="25" height="3"/>
<rect x="17.8" y="72.8" fill="#FDD500" width="7" height="2"/>
<g>
	<circle fill="#FFFFFF" cx="6.4" cy="3.3" r="2.6"/>
	<path fill="none" stroke="#6C9C39" stroke-width="5.7343" stroke-linecap="round" stroke-miterlimit="10" d="M29.8,53.5
		c3.4,0.3,2.9,9.4,9.7,9.3c6.2-0.1,6.7-7.7,6.4-13.1"/>
	<g>
		<g>
			<path fill="#843F4A" d="M12.6,48.2c2-2,2.8-4.7,2.3-7.3c-2.6-0.4-5.3,0.3-7.3,2.3c-2,2-2.8,4.7-2.3,7.3
				C7.8,51,10.6,50.2,12.6,48.2z"/>
		</g>
		<g>
			<path fill="#843F4A" d="M31.4,48.2c-2-2-2.8-4.7-2.3-7.3c2.6-0.4,5.3,0.3,7.3,2.3c2,2,2.8,4.7,2.3,7.3
				C36.1,51,33.4,50.2,31.4,48.2z"/>
		</g>
		<path fill="#843F4A" d="M13,47.6c0.2-0.3,0.5-0.6,0.8-0.8c2.7-2.3,6.2-4.2,9.8-3.9c3.1,0.3,5.9,1.2,8.2,3.1
			c1.9-2.3,3.1-5.3,3.1-8.6c0-7.4-6-13.3-13.3-13.3c-7.4,0-13.3,6-13.3,13.3C8.3,41.6,10.1,45.2,13,47.6z"/>
		<path fill="#FFE18C" d="M33.9,37.5c0,6.8-5.5,12.2-12.2,12.2l0,0c-6.8,0-12.2-5.5-12.2-12.2l0,0c0-6.8,5.5-12.2,12.2-12.2l0,0
			C28.4,25.3,33.9,30.7,33.9,37.5L33.9,37.5z"/>
		<polygon fill="#FFE18C" points="22.5,41.3 20.7,41.3 20.3,38.7 22.9,38.7 		"/>
		<path fill="#332E2E" d="M29.7,35.7c0,1.2-1,2.2-2.2,2.2c-1.2,0-2.2-1-2.2-2.2c0-1.2,1-2.2,2.2-2.2C28.8,33.6,29.7,34.5,29.7,35.7z
			"/>
		<path fill="#332E2E" d="M17.5,35.7c0,1.2-1,2.2-2.2,2.2c-1.2,0-2.2-1-2.2-2.2c0-1.2,1-2.2,2.2-2.2C16.5,33.6,17.5,34.5,17.5,35.7z
			"/>
	</g>
	<path fill="#1E88E5" d="M24.3,75.9H10.2c-0.7,0-1.2-0.5-1.2-1.2V57.2l17,1.3l-0.5,16.2C25.5,75.4,25,75.9,24.3,75.9z"/>
	<g>
		<circle fill="#1976D2" cx="16.8" cy="67.1" r="5"/>
		<g>
			<path fill="#90CAF9" d="M20.6,66.2C20.6,66.2,20.6,66.2,20.6,66.2l0.1-0.2c0,0,0,0,0,0l-0.4-0.3c0,0,0,0,0,0l-0.2,0.2l-0.4,0
				l-0.1-0.2l0.2-0.3l0.6,0.1c0,0,0,0,0,0l0.3-0.2c0,0,0,0,0,0c0,0,0,0,0,0l-0.1-0.1l0.1-0.1c0,0,0,0,0,0c0,0,0,0,0,0L19.6,65
				l-0.4-0.7c0,0,0,0,0,0l-1.3-0.2l-0.3-0.3c0,0,0,0,0,0L17,64c0,0,0,0,0,0c0,0,0,0,0,0l0,0l0.9,0.6c0,0,0,0,0,0l-0.1,0.3L17.6,65
				c0,0,0,0,0,0l-0.1,0.2l-0.5,0.2c0,0,0,0,0,0l0,0.3l0,0.3l0,0l0.1,0.3c0,0,0,0,0,0l0.1,0c0,0,0,0,0,0c0,0,0,0,0,0l0-0.4l0.1,0l0,1
				c0,0,0,0,0,0l0.2,0.6L16.4,68c0,0,0,0,0,0l-0.3,0.6c0,0,0,0,0,0l0.3,0.8l-0.6,1.2c0,0,0,0,0,0l0.2,0.8c0,0,0,0,0,0c0,0,0,0,0,0
				c0,0,0,0,0,0l0.9-0.9l0.8-0.4l0.5-0.3c0,0,0,0,0,0l0.1-0.7c0,0,0,0,0,0L18.1,69L18,68.6l0.1-0.2c0,0,0,0,0,0L18,67.9c0,0,0,0,0,0
				l-0.3-0.3c0,0,0,0,0,0l-0.2,0l0-0.3l0.3-0.1c0,0,0,0,0,0l0-0.1l0.2-0.1c0,0,0,0,0,0l0-0.1c0,0,0,0,0,0l-0.3-0.1l0.1-0.3l0.2-0.2
				l0.7,0.2l0.1,0.2L18.4,67c0,0,0,0,0,0c0,0,0,0,0,0l0.2,0c0,0,0,0,0,0l0.5-0.4L20.6,66.2z"/>
			<path fill="#9CCC65" d="M21.8,67.1l-0.5,0c0,0,0,0,0,0l0,0.1l-0.2-0.1c0,0,0,0,0,0L21,67.4c0,0,0,0,0,0l0.1,0.2c0,0,0,0,0,0
				l0.5-0.1l-0.1,0.2c0,0,0,0,0,0c0,0,0,0,0,0l0.1,0c0,0,0,0,0,0l0.1-0.1C21.8,67.5,21.8,67.3,21.8,67.1L21.8,67.1
				C21.8,67.1,21.8,67.1,21.8,67.1z"/>
			<path fill="#90CAF9" d="M21.7,68.3l-0.2-0.1l-0.2-0.3c0,0,0,0,0,0l-0.4-0.2c0,0,0,0,0,0l-0.3,0.2l-0.6-0.1c0,0,0,0,0,0L19,68.7
				c0,0,0,0,0,0l0.3,1.3c0,0,0,0,0,0l0.5,0.3l0.2,0.5l0,0.1C20.8,70.2,21.4,69.3,21.7,68.3z"/>
			<path fill="#90CAF9" d="M12.9,64.6C12.9,64.6,12.9,64.6,12.9,64.6l0.2-0.3c0,0,0,0,0,0c0,0,0,0,0,0l-0.2-0.1l0-0.2
				c-0.4,0.5-0.7,1-0.8,1.6l0.5-0.8L12.9,64.6z"/>
			<path fill="#90CAF9" d="M13.6,63.2l0.2,0.2l-0.1,0.3c0,0,0,0,0,0l0.9,0.8l0,0.4c0,0,0,0,0,0l0.5,0.4c0,0,0,0,0,0c0,0,0,0,0,0
				c0,0,0,0,0,0l0.4-0.7l1-1l0.4-0.8l1.5-0.4c-0.5-0.1-1-0.2-1.5-0.2C15.6,62.1,14.5,62.5,13.6,63.2z"/>
			<path fill="#90CAF9" d="M13.1,63.7l0.3,0.3c0,0,0,0,0,0l0.2,0c0,0,0,0,0,0c0,0,0,0,0,0l-0.1-0.4l0.1-0.2c0,0,0,0,0,0l-0.1-0.2
				C13.4,63.4,13.2,63.6,13.1,63.7z"/>
		</g>
	</g>
	<path fill="#648C37" d="M48.9,53.9c0.1-2.2-1.2-4.1-2.9-4.3c-1.7-0.2-3.2,1.3-3.3,3.5s1.2,4.1,2.9,4.3S48.8,56.1,48.9,53.9"/>
	<path fill="#FFFFFF" d="M50.8,51.4c0.2-2.7-1.7-5.1-4.4-5.3c-2.7-0.2-5.1,1.7-5.3,4.4c-0.2,2.7,1.7,5.1,4.4,5.3
		C48.2,56.1,50.6,54.1,50.8,51.4"/>
	<path fill="#FFE18C" d="M41.5,48.2c-0.2,2.4,1.6,4.6,4,4.8l0.2,0c2.4,0.2,4.6-1.6,4.8-4l0-0.2c0.2-2.4-1.6-4.6-4-4.8L46,43.4
		c-1.8,0.6-2.7,2.8-4.5,3.2L41.5,48.2z"/>
	<path fill="#FFE18C" d="M42.2,46.9c-0.1,0.9,0.6,1.8,1.6,1.9h0c0.9,0.1,1.8-0.6,1.9-1.6l0.6-6.9c0.1-0.9-0.6-1.8-1.6-1.9h0
		C43.8,38.3,43,39,42.9,40L42.2,46.9z"/>
	<path fill="#FFE18C" d="M43.5,49.4L43.5,49.4c0.6-0.6,0.6-1.6,0-2.2l-1.5-1.5c-0.6-0.6-1.6-0.6-2.2,0l0,0c-0.6,0.6-0.6,1.6,0,2.2
		l1.5,1.5C41.9,50,42.9,50,43.5,49.4z"/>
	<path fill="none" stroke="#7CB342" stroke-width="5.7343" stroke-linecap="round" stroke-miterlimit="10" d="M12.9,53.5
		c-3.4,0.3-8.3,4.4-6.4,11c1.2,4,4.8,7.6,10.8,7.1"/>
	<g>
		<path fill="#FFFFFF" d="M28.4,51.5c-0.6,1.8-2.6,2.7-4.4,2.1c-1.8-0.6-2.7-2.6-2.1-4.4l4.1,0.5L28.4,51.5z"/>
		<path fill="#FFFFFF" d="M14.3,51.5c0.6,1.8,2.6,2.7,4.4,2.1s2.7-2.6,2.1-4.4l-4.1,0.5L14.3,51.5z"/>
	</g>
	<circle opacity="0.2" fill="#EF9A9A" cx="14.9" cy="41.3" r="1.8"/>
	<circle opacity="0.2" fill="#EF9A9A" cx="28.1" cy="41.3" r="1.8"/>
	<path fill="#FFFFFF" d="M15.8,42c0.7,2.5,3.1,4.4,5.9,4.4c2.8,0,5.1-1.8,5.9-4.4H15.8z"/>
	<path fill="#FFE18C" d="M9.8,35.7l-4-5.5c0,0-2.3,14.2,5.5,12.4L9.8,35.7z"/>
	<path fill="#FFE18C" d="M32.9,35.7l4-5.5c0,0,2.3,14.2-5.5,12.4L32.9,35.7z"/>
	<circle opacity="0.2" fill="#EEEEEE" cx="27.6" cy="35.8" r="4.3"/>
	<path opacity="0.2" fill="#EEEEEE" d="M24.8,33c1.7-1.7,4.4-1.7,6,0c1.7,1.7,1.7,4.4,0,6"/>
	<path fill="#424242" d="M33.6,32.8c0-0.3-0.1-0.3-0.1-0.3s-3.3-1.1-6.2-1.1c-2.2,0-3.7,1.3-3.9,1.3c-0.1,0-0.3,0-0.4-0.1
		c-0.1-0.1-0.3-0.1-0.3-0.1h-1.1h-0.1H20c0,0-0.2,0.1-0.3,0.1c-0.1,0.1-0.3,0.1-0.4,0.1c-0.1,0-1.7-1.3-3.9-1.3
		c-2.9,0-6.2,1.1-6.2,1.1s-0.1,0-0.1,0.3c0,0.3,0,1,0,1s0.7,0,0.9,0.6c0,0.1,0.1,0.2,0.1,0.3c-0.1,1.1,0.4,2.2,0.8,3
		c0.9,1.6,2.4,2.6,4.3,2.6h0c0,0,0.1,0,0.1,0c1.2,0,2.4-0.5,3.2-1.4c0.9-0.9,1.3-2,1.3-3.1l0.2-0.9v0c-0.2-0.1-0.3-0.3-0.3-0.5
		c0-0.4,0.4-0.7,0.9-0.7c0,0,1.1,0,1.1,0c0.5,0,0.9,0.3,0.9,0.7c0,0.2-0.1,0.4-0.3,0.5v0l0.2,0.9c0,1.2,0.5,2.3,1.3,3.1
		c0.9,0.8,2,1.3,3.2,1.4c0,0,0.1,0,0.1,0c0,0,0,0,0,0c1.9,0,3.4-0.9,4.3-2.6c0.5-0.9,0.9-2,0.8-3c0-0.1,0.1-0.2,0.1-0.3
		c0.2-0.6,0.9-0.6,0.9-0.6S33.7,33.1,33.6,32.8z M10.7,33.3H9.8v-0.4h0.9V33.3z M15.4,39.6c-1.6,0-3-0.8-3.8-2.2
		c-1-1.9-1.9-5.2,3.8-5.2c2.1,0,3.9,1.3,3.9,3.6C19.3,37.9,17.6,39.6,15.4,39.6z M31.1,37.4c-0.8,1.4-2.1,2.2-3.8,2.2
		c-2.1,0-3.9-1.8-3.9-3.8c0-2.3,1.7-3.6,3.9-3.6C33,32.2,32.1,35.6,31.1,37.4z M33,33.3h-0.9v-0.4H33V33.3z"/>
	<circle opacity="0.2" fill="#EEEEEE" cx="15.3" cy="35.8" r="4.3"/>
	<path opacity="0.2" fill="#EEEEEE" d="M12.4,33c1.7-1.7,4.4-1.7,6,0c1.7,1.7,1.7,4.4,0,6"/>
	<path fill="#6C9C39" d="M35.3,26.1c0,0-17.8-16.4-27-20.8c0,0,7.8,13.7,2.5,19.8L35.3,26.1z"/>
	<path fill="#7CB342" d="M27.7,26.1c0,0-10.2-16.4-19.3-20.8c0,0,7.8,13.7,2.5,19.8L27.7,26.1z"/>
	<path fill="#843F4A" d="M23.8,27.6c-2.2-0.5-7.4-0.9-11.1,1l-0.8,0.2c-3.8,1.9-4,5.2-1.8,5.7l0,0c2.2,0.5,10.3,0.2,14-1.7l2.4-1.3
		C30.3,29.6,26,28.2,23.8,27.6L23.8,27.6z"/>
	<path fill="#FFFFFF" d="M35.6,28.8c0,0.9-0.7,1.6-1.6,1.6H9.7c-0.9,0-1.6-0.7-1.6-1.6v-3c0-0.9,0.7-1.6,1.6-1.6H34
		c0.9,0,1.6,0.7,1.6,1.6V28.8z"/>
	<rect x="9" y="57.1" fill="#1E88E5" width="7.1" height="4.7"/>
	<g>
		<path fill="#EDEDDB" d="M25.3,55.9H11.9c-1.2,0-2.2,0.8-2.2,1.7c0,1,1,0.8,2.2,0.8h13.4"/>
		<path opacity="0.1" fill="#95450B" d="M25.3,58.5H11.9c-1.2,0-2.2,0.1-2.2-0.8c0-1,1-1.7,2.2-1.7l13.6,2.5"/>
		<path fill="#1976D2" d="M25.3,59.2H11.9c-1.6,0-2.9-0.6-2.9-2c0-1.3,1.3-2,2.9-2h13.4c0.4,0,0.7,0.3,0.7,0.7
			c0,0.4-0.3,0.7-0.7,0.7H11.9c-0.8,0-1.5,0-1.5,0.6c0,0.6,0.7,0.6,1.5,0.6h13.4c0.4,0,0.7,0.3,0.7,0.7C26,58.9,25.7,59.2,25.3,59.2
			z"/>
	</g>
	<path fill="#6C9C39" d="M15.7,74.5c2.1,0.4,4.2-0.7,4.7-2.4c0.4-1.7-0.9-3.3-3.1-3.7c-2.1-0.4-4.2,0.7-4.7,2.4
		C12.2,72.5,13.6,74.1,15.7,74.5"/>
	<path fill="#FFFFFF" d="M14.1,70.9c0,2.6,2.1,4.6,4.6,4.6c2.6,0,4.6-2.1,4.6-4.6c0-2.6-2.1-4.6-4.6-4.6
		C16.2,66.3,14.1,68.4,14.1,70.9z"/>
	<path fill="#FFE18C" d="M16,70.9c0,2.6,2.1,4.6,4.6,4.6c2.6,0,4.6-2.1,4.6-4.6c0-2.6-2.1-4.6-4.6-4.6C18.1,66.3,16,68.4,16,70.9z"
		/>
</g>
</svg>
