<svg width="200" height="250" fill="none" xmlns="http://www.w3.org/2000/svg"><g clip-path="url(#clip0)"><path d="M95.693 61.366l-7.944 1.465c-1.277.261-2.79.861-2.715 2.067.017 1.077 1.196 1.634 2.223 2.026 5.771 1.988 11.542 3.975 17.406 5.998 1.811.584 3.946 1.72 3.959 3.65.017 1.078-.749 1.963-1.595 2.496-.845.534-1.9.774-2.955 1.014-3.128.626-6.2 1.38-9.328 2.007-1.629.342-3.258.683-4.62 1.448-1.455.73-2.715 2.068-3.099 3.634-.383 1.566.297 3.431 1.85 4.13.992.486 2.14.282 3.146.452 1.005.17 2.184.726 2.424 1.78.182.927-.584 1.812-1.452 2.123-.868.31-1.815.27-2.763.23-1.673-.103-3.591-.407-4.285-1.956-.693-1.549.487-3.239 1.827-4.226 2.056-1.463 4.891-1.88 7.156-.802 2.264 1.078 3.63 3.953 2.738 6.289-.891 2.335-4.291 3.393-6.155 1.826" stroke="#FFBD8A" stroke-miterlimit="10"/><path d="M99.113 83.541s4.012-5.747 1.584-8.92c-.569-.753-5.82.668-5.82.668l4.236 8.252zM60.842 85.103s-2.005-3.44 1.255-8.619c3.224-5.085 3.598 3.192 3.598 3.192l-4.853 5.427z" fill="#7C4C2A"/><path d="M94.873 73.896c3.355.745 5.654 3.977 5.06 7.496-.593 3.52-3.954 5.877-7.567 5.248-14.136-2.503-22.072 1.747-22.201 1.805-3.054 1.832-7.063.838-8.895-2.216-1.832-3.053-.837-7.062 2.216-8.894 1.269-.8 12.165-6.919 31.2-3.51l.187.071z" fill="#7C4C2A"/><path d="M67.864 79.326s9.454-5.705 26.665-2.564" stroke="#B66A33" stroke-width="12.973" stroke-miterlimit="10" stroke-linecap="round"/><path d="M78.631 64.543L75.1 69.337c-.703.978-1.993 1.167-2.971.465l-7.07-6.813c-.979-.702-1.167-1.992-.465-2.97l1.804-2.457c.703-.978 1.993-1.167 2.971-.465l8.799 4.476c.978.702 1.166 1.992.464 2.97z" fill="#F8C329"/><path d="M75.278 63.762L73.3 66.36c-.4.5-1.082.654-1.68.276l-3.818-3.753c-.5-.4-.654-1.082-.276-1.68l1.026-1.359c.4-.5 1.083-.654 1.68-.276l4.748 2.416c.522.497.697 1.277.298 1.778zM65.496 58.694c-.684.936-1.094 1.801-.915 1.931.178.13.877-.523 1.561-1.46.684-.936 1.094-1.8.916-1.931-.179-.13-.878.523-1.562 1.46z" fill="#6BB4FD"/><path d="M64.883 55.668l-2.418 3.31 2.1 1.534 2.418-3.31-2.1-1.534z" fill="#6BB4FD"/><path d="M63.37 57.125c-.685.937-1.095 1.802-.916 1.932.178.13.877-.523 1.561-1.46.684-.936 1.094-1.801.916-1.932-.178-.13-.878.524-1.562 1.46z" fill="#2C84DB"/><path d="M61.188 56.276l1.699 2.077.702-.978.702-.978-2.476-.98c-.456-.205-.834.393-.627.859z" fill="#fff"/><path d="M63.538 57.217c-.391.535-.636 1.022-.547 1.087.09.065.479-.316.87-.851.39-.536.635-1.022.546-1.087-.09-.066-.478.316-.87.85z" fill="#fff"/><path d="M109.199 143.4l-6.9-11.1c-.8-1.3-2.7-.8-2.9.7l-.2 2.3c-.2 1.5-2.2 1.9-2.9.6L86.7 118" stroke="#FFBD8A" stroke-width=".75" stroke-miterlimit="10" stroke-linecap="round"/><path d="M122.701 84.8s-3-3.1-3.9-3.6c-.9-.5-3.1 5.8-3.1 5.8l7-2.2zM106.301 119.901s-3.7.3-7.4-4.5 5.2-1.3 5.2-1.3l2.2 5.8z" fill="#7C4C2A"/><path d="M113.401 84.9c2.4-2.5 6.4-2.7 9-.4 2.7 2.4 2.9 6.5.5 9.2-9.5 10.701-10.1 19.701-10.1 19.801 0 3.6-3 6.5-6.6 6.4-3.6 0-6.5-3-6.4-6.6 0-1.4.5-13.9 13.4-28.3.1 0 .2-.1.2-.1z" fill="#7C4C2A"/><path d="M103.401 110.801s.1-11.1 11.8-24" stroke="#B66A33" stroke-width="12.973" stroke-miterlimit="10" stroke-linecap="round"/><path d="M119.801 81.9c-2.7-2.6-6.9-2.5-9.5.1-2.6 2.7-2.5 6.9.1 9.5 2.7 2.6 6.9 2.5 9.5-.1 2.7-2.6 2.6-6.9-.1-9.5z" fill="#FFBD8A"/><path d="M118.301 83.5c-1.8-1.7-4.6-1.7-6.4.1-1.7 1.8-1.7 4.6.1 6.4 1.8 1.7 4.6 1.7 6.4-.1 1.7-1.8 1.7-4.6-.1-6.4z" fill="#8C501C"/><path d="M72.1 115.6l-3.6-10.9c-.1-.4.1-.9.5-1 .4-.1.9.1 1 .5l3.6 10.9c.1.4-.1.9-.5 1-.4.2-.9 0-1-.5z" fill="#A3A7AB"/><path d="M71.1 116l-3.6-10.9c-.1-.4.1-.9.5-1 .4-.1.9.1 1 .5l3.6 10.9c.1.4-.1.9-.5 1-.4.1-.9-.1-1-.5z" fill="#A3A7AB"/><path d="M78.7 122.9c-1.8.6-3.7-.1-4.2-1.6l-.9-2.6" stroke="#206F3B" stroke-width="1.836" stroke-miterlimit="10"/><path d="M75.2 121.2l-.9-2.6 2.6-.9c1.5-.5 3 .3 3.5 1.8s-.3 3-1.8 3.5c-1.3.4-2.9-.4-3.4-1.8zM71.6 125.3c1.8-.6 2.9-2.3 2.4-3.7l-.9-2.6" stroke="#206F3B" stroke-width="1.836" stroke-miterlimit="10"/><path d="M73.4 121.8l-.9-2.6-2.6.9c-1.5.5-2.3 2-1.8 3.5.5 1.5 2 2.3 3.5 1.8 1.4-.6 2.2-2.2 1.8-3.6z" stroke="#206F3B" stroke-width="1.836" stroke-miterlimit="10"/><path d="M71.8 113.8l2.3 7.1-1.8.6-1.7-5.3c-.4-1 .2-2.1 1.2-2.4z" fill="#206F3B"/><path d="M71.8 113.8l2.3 7.1 1.8-.6-1.7-5.3c-.4-1-1.4-1.5-2.4-1.2z" fill="#206F3B"/><path d="M71.8 115.3a.5.5 0 101 0 .5.5 0 00-1 0z" fill="#A3A7AB"/><path d="M72.799 115.4l-3.6-10.9c-.1-.4.1-.9.5-1 .4-.1.9.1 1 .5l3.6 10.9c.1.4-.1.9-.5 1-.4.2-.9-.1-1-.5z" fill="#D8DDE2"/><path d="M71.799 115.7l-3.6-10.9c-.1-.4.1-.9.5-1 .4-.1.9.1 1 .5l3.6 10.9c.1.4-.1.9-.5 1-.4.2-.9 0-1-.5z" fill="#D8DDE2"/><path d="M79.5 122.7c-1.8.6-3.7-.1-4.2-1.6l-.9-2.6" stroke="#30A658" stroke-width="1.836" stroke-miterlimit="10"/><path d="M75.9 120.9l-.9-2.6 2.6-.9c1.5-.5 3 .3 3.5 1.8s-.3 3-1.8 3.5c-1.3.5-2.9-.3-3.4-1.8zM72.3 125.1c1.8-.6 2.9-2.3 2.4-3.7l-.9-2.6" stroke="#30A658" stroke-width="1.836" stroke-miterlimit="10"/><path d="M74.1 121.5l-.9-2.6-2.6.9c-1.5.5-2.3 2-1.8 3.5.5 1.5 2 2.3 3.5 1.8 1.5-.5 2.2-2.1 1.8-3.6z" stroke="#30A658" stroke-width="1.836" stroke-miterlimit="10"/><path d="M72.499 113.6l2.3 7.1-1.8.6-1.7-5.3c-.3-1 .2-2.1 1.2-2.4zM72.5 113.6l2.3 7.1 1.8-.6-1.7-5.3c-.4-1-1.4-1.6-2.4-1.2z" fill="#30A658"/><path d="M72.5 115a.5.5 0 101 0 .5.5 0 00-1 0z" fill="#D8DDE2"/><path d="M99.459 153.268s-1.3 6.2-1.8 7c-.5.9-5.6-3.3-5.6-3.3l7.4-3.7zM66.259 132.668s-2.5 1.8-3.2 7.8c-.7 6 5-.8 5-.8l-1.8-7z" fill="#7C4C2A"/><path d="M91.459 158.268c3.4.9 6.9-1 7.9-4.4 1-3.4-.9-7.1-4.3-8.1-13.7-4.2-18.8-11.6-18.9-11.7-1.9-3-5.9-4-8.9-2.1s-4 5.9-2.1 8.9c.7 1.2 7.6 11.6 26.1 17.3 0 0 .1 0 .2.1z" fill="#7C4C2A"/><path d="M69.16 142.868s5.8 9.4 22.5 14.5" stroke="#B66A33" stroke-width="12.973" stroke-miterlimit="10" stroke-linecap="round"/><path d="M98.16 159.068c-.9 3.6-4.6 5.7-8.2 4.8-3.6-.9-5.7-4.6-4.8-8.2.9-3.6 4.6-5.7 8.2-4.8 3.6 1 5.7 4.6 4.8 8.2z" fill="#FFBD8A"/><path d="M95.96 158.568c-.6 2.4-3.1 3.8-5.5 3.2-2.4-.6-3.8-3.1-3.2-5.5.6-2.4 3.1-3.8 5.5-3.2 2.4.6 3.9 3.1 3.2 5.5z" fill="#8C501C"/><path d="M121.527 134.378c1.08.289 2.467.501 3.413-.024 2.613-1.293 1.985-3.451 4.609-3.64M123.998 136.083c.574.348 1.396.113 1.918-.145.63-.35 1.169-.808 1.883-.951a2.467 2.467 0 012.152.676M129.978 140.28c-.593-1.352-1.924-2.263-3.311-2.475-1.388-.213-2.923.164-4.1 1.072M122.839 134.284c2.198-1.126 1.575-4.588.551-5.574" stroke="#FFBD8A" stroke-miterlimit="10"/><path d="M122.074 130.109s3.06 5.565 3.187 6.478c.218 1.021-6.409 1.086-6.409 1.086l3.222-7.564zM83.462 136.111s-.74 2.95 2.66 8.041c3.408 4.992 3.221-3.852 3.221-3.852l-5.881-4.189z" fill="#7C4C2A"/><path d="M119.238 139.109c3.128-1.452 4.539-5.251 3.194-8.47-1.436-3.326-5.234-4.738-8.561-3.302-13.207 5.753-21.85 3.448-21.95 3.44-3.423-1.08-7.09.83-8.17 4.254-1.08 3.424.831 7.09 4.255 8.17 1.272.404 13.33 3.889 31.116-3.901.009-.099.009-.099.116-.191z" fill="#7C4C2A"/><path d="M92.312 142.045s10.563 3.364 26.483-3.674" stroke="#B66A33" stroke-width="12.973" stroke-miterlimit="10" stroke-linecap="round"/><path d="M130.856 65.211c1.13-.402 2.422-.65 3.444-.164 2.649 1.18 2.25 3.339 4.779 3.288M133.193 63.424c.592-.423 1.292-.247 1.93.056.639.304 1.217.735 1.883.816.794.143 1.608-.253 2.133-.865M138.889 58.85c-.479 1.338-1.819 2.346-3.205 2.627-1.386.28-2.879-.037-4.096-.772M132.12 65.186c2.172 1.031 1.798 4.455.902 5.517" stroke="#FFBD8A" stroke-miterlimit="10"/><path d="M131.637 69.497s2.637-5.715 2.84-6.636c.203-.921-6.497-.66-6.497-.66l3.657 7.296z" fill="#7C4C2A"/><path d="M134.861 63.043c-1.197.426-2.452-.03-2.804-1.02-.352-.988.333-2.134 1.53-2.56 1.197-.426 2.452.03 2.804 1.019.352.988-.333 2.135-1.53 2.56z" fill="#fff"/><path d="M131.524 65.12a1.9 1.9 0 112.925-2.425 1.9 1.9 0 01-2.925 2.425z" fill="#fff"/><path d="M136.742 65.346c-1.509.537-3.123-.125-3.604-1.478-.482-1.352.351-2.884 1.86-3.421 1.509-.537 3.123.124 3.604 1.477.482 1.353-.351 2.885-1.86 3.422z" fill="#fff"/><path d="M133.037 63.586c.356.404.894.424 1.332.163.343-.229.397-.673.297-.955-.034-.094-.101-.283-.228-.343-.356-.404-.895-.425-1.332-.163-.343.228-.425.894-.069 1.298zM136.784 63.62a.7.7 0 111.079-.894.7.7 0 01-1.079.894z" fill="#CECECE"/><path d="M92.755 65.82s-.945-2.954 2.21-8.11c3.12-5.25 3.52 3.63 3.52 3.63l-5.73 4.48z" fill="#7C4C2A"/><path d="M128.264 60.614c3.221 1.295 4.844 4.963 3.677 8.244-1.228 3.41-4.99 5.066-8.272 3.899-13.542-4.946-22.088-2.117-22.182-2.084-3.358 1.302-7.123-.33-8.424-3.689-1.302-3.358.33-7.123 3.689-8.424 1.319-.47 13.095-4.66 31.257 1.932.127.061.161.155.255.122z" fill="#7C4C2A"/><path d="M101.198 59.42s10.262-3.971 26.702 1.96" stroke="#B66A33" stroke-width="12.973" stroke-miterlimit="10" stroke-linecap="round"/><path d="M76.9 104.7s3.8-5 4.7-5.6c.8-.6 3.6 5.5 3.6 5.5l-8.3.1zM97.9 137.7s3-.5 6.3-5.6c3.2-5.1-4.8-1.5-4.8-1.5l-1.5 7.1z" fill="#7C4C2A"/><path d="M86.3 103.7c-2.6-2.3-6.6-2.1-9 .5-2.4 2.6-2.3 6.7.4 9.2 10.5 9.8 11.9 18.7 11.9 18.8.4 3.6 3.6 6.1 7.1 5.8 3.599-.4 6.099-3.6 5.799-7.1-.1-1.4-1.8-13.8-16-26.9-.1-.2-.2-.2-.2-.3z" fill="#7C4C2A"/><path d="M99.7 127.3s-1.2-11-14-22.8" stroke="#B66A33" stroke-width="12.973" stroke-miterlimit="10" stroke-linecap="round"/><path d="M80.599 100.1c2.4-2.8 6.7-3.2 9.5-.8 2.8 2.4 3.2 6.7.8 9.5-2.4 2.8-6.7 3.2-9.5.7-2.9-2.4-3.2-6.6-.8-9.4z" fill="#FFBD8A"/><path d="M82.3 101.5c1.6-1.9 4.4-2.1 6.3-.5 1.9 1.6 2.1 4.5.5 6.3-1.6 1.9-4.5 2.1-6.3.5-1.8-1.6-2.1-4.4-.5-6.3z" fill="#8C501C"/><path d="M76.9 104.701s3.8-5 4.7-5.6c.8-.6 3.6 5.5 3.6 5.5l-8.3.1zM97.9 137.7s3-.5 6.3-5.6c3.2-5.1-4.8-1.5-4.8-1.5l-1.5 7.1z" fill="#7C4C2A"/><path d="M86.3 103.7c-2.6-2.3-6.6-2.1-9 .5-2.4 2.6-2.3 6.7.4 9.2 10.5 9.8 11.9 18.7 11.9 18.8.4 3.6 3.6 6.1 7.1 5.8 3.599-.4 6.099-3.6 5.799-7.1-.1-1.4-1.8-13.8-16-26.9-.1-.2-.2-.2-.2-.3z" fill="#7C4C2A"/><path d="M99.7 127.3s-1.2-11-14-22.8" stroke="#B66A33" stroke-width="12.973" stroke-miterlimit="10" stroke-linecap="round"/><path d="M80.599 100.1c2.4-2.8 6.7-3.2 9.5-.8 2.8 2.4 3.2 6.7.8 9.5-2.4 2.8-6.7 3.2-9.5.7-2.9-2.4-3.2-6.6-.8-9.4z" fill="#FFBD8A"/><path d="M82.3 101.5c1.6-1.9 4.4-2.1 6.3-.5 1.9 1.6 2.1 4.5.5 6.3-1.6 1.9-4.5 2.1-6.3.5-1.8-1.6-2.1-4.4-.5-6.3z" fill="#8C501C"/><path d="M133.811 147.9s4.9 4 5.4 4.8c.5.8-5.5 3.4-5.5 3.4l.1-8.2zM100.311 167.9s.4 3.1 5.5 6.4c5.1 3.3 1.6-4.8 1.6-4.8l-7.1-1.6z" fill="#7C4C2A"/><path d="M134.511 157.3c2.4-2.6 2.3-6.6-.2-9-2.6-2.5-6.7-2.5-9.2.1-10.1 10.3-19 11.4-19.1 11.4-3.6.3-6.2 3.4-6 7 .3 3.6 3.4 6.2 7 6 1.4-.1 13.8-1.4 27.4-15.2 0-.2.1-.2.1-.3z" fill="#7C4C2A"/><path d="M110.611 170s11-.9 23.2-13.3" stroke="#B66A33" stroke-width="12.973" stroke-miterlimit="10" stroke-linecap="round"/><path d="M138.41 151.7c2.8 2.5 3 6.7.5 9.5s-6.7 3-9.5.5-3-6.7-.5-9.5c2.5-2.7 6.7-3 9.5-.5z" fill="#FFBD8A"/><path d="M94.475 96.56c-.02-.86-.79-1.505-1.593-1.569l-23.676-1.124c-.139.026-.169.248-.03.221l23.452 4.118c.083.057.139-.026.222.03.942.037 1.67-.676 1.625-1.675zm-1.558.512l-6.84-1.15 6.903.346c.222.03.47.2.383.503-.112.166-.225.33-.446.301z" fill="#74797E"/><path d="M114.314 102.53s3.9-4.9 4.7-5.5c.8-.5 3.5 5.5 3.5 5.5h-8.2zM134.714 135.829s3.1-.5 6.4-5.5c3.3-5.1-4.8-1.5-4.8-1.5l-1.6 7z" fill="#7C4C2A"/><path d="M123.814 101.73c-2.6-2.3-6.6-2.2-9 .3-2.5 2.6-2.4 6.7.2 9.2 10.4 9.9 11.6 18.9 11.6 19 .3 3.6 3.5 6.2 7 5.9 3.6-.3 6.2-3.5 5.9-7-.1-1.4-1.6-13.8-15.5-27.2l-.2-.2z" fill="#7C4C2A"/><path d="M136.713 125.43s-1-11-13.6-23.1" stroke="#B66A33" stroke-width="12.973" stroke-miterlimit="10" stroke-linecap="round"/><path d="M134.011 154c0 2.651 1.746 4.8 3.9 4.8 2.153 0 3.9-2.149 3.9-4.8s-1.747-4.8-3.9-4.8c-2.154 0-3.9 2.149-3.9 4.8z" fill="#F4FDFF"/><path d="M132.279 162.026c2.023.739 4.278-.343 5.036-2.419.758-2.075-.267-4.356-2.29-5.095-2.024-.739-4.278.343-5.036 2.419-.759 2.075.267 4.356 2.29 5.095z" fill="#F4FDFF"/><path d="M128.21 152.1c0 3.369 2.417 6.1 5.4 6.1 2.982 0 5.4-2.731 5.4-6.1 0-3.369-2.418-6.1-5.4-6.1-2.983 0-5.4 2.731-5.4 6.1z" fill="#F4FDFF"/><path d="M134.211 158c-1-.4-1.5-1.5-1.1-2.6.3-.8 1-1.3 1.8-1.3.3 0 .5 0 .8.1 1 .4 1.5 1.5 1.1 2.6-.5 1-1.6 1.5-2.6 1.2zM131.405 150.577a1.4 1.4 0 10.96-2.629 1.4 1.4 0 00-.96 2.629z" fill="#CECECE"/><path d="M89.264 82.004c.914 1.448 3.093 1.713 4.868.593 1.775-1.121 2.472-3.203 1.558-4.65-.914-1.448-3.093-1.714-4.868-.593-1.775 1.12-2.472 3.202-1.558 4.65z" fill="#F4FDFF"/><path d="M84.746 79.55c.41 1.662 2.135 2.666 3.85 2.242 1.716-.425 2.774-2.116 2.363-3.778-.411-1.662-2.135-2.665-3.85-2.241-1.716.424-2.774 2.115-2.363 3.777z" fill="#F4FDFF"/><path d="M87.909 78.807c1.283 1.998 4.132 2.456 6.363 1.023 2.23-1.432 2.998-4.214 1.714-6.212-1.283-1.998-4.132-2.456-6.363-1.024-2.23 1.433-2.998 4.215-1.714 6.213z" fill="#F4FDFF"/><path d="M88.265 79.09c-.2-.8.4-1.7 1.3-1.9.6-.1 1.3.1 1.6.6l.3.6c.2.8-.4 1.7-1.3 1.9-.9.2-1.7-.3-1.9-1.2zM92.204 74.241a1.1 1.1 0 102.136-.528 1.1 1.1 0 00-2.136.528z" fill="#CECECE"/><path d="M61.745 86.6c0 1.823 1.208 3.3 2.7 3.3 1.49 0 2.7-1.477 2.7-3.3 0-1.822-1.21-3.3-2.7-3.3-1.492 0-2.7 1.478-2.7 3.3z" fill="#F4FDFF"/><path d="M60.287 92.88c1.816.663 3.84-.313 4.523-2.18.683-1.868-.236-3.92-2.052-4.583-1.815-.664-3.84.313-4.523 2.18-.682 1.868.237 3.92 2.052 4.583z" fill="#F4FDFF"/><path d="M57.844 85.2c0 2.32 1.657 4.2 3.7 4.2 2.044 0 3.7-1.88 3.7-4.2 0-2.32-1.656-4.2-3.7-4.2-2.043 0-3.7 1.88-3.7 4.2z" fill="#F4FDFF"/><path d="M62.145 88.8c-.4-.2-.7-.7-.5-1.1.1-.3.4-.6.7-.6h.3c.4.2.7.7.5 1.1-.1.5-.6.8-1 .6zM59.971 84.2c.467.171 1-.111 1.189-.63.19-.519-.035-1.078-.502-1.248-.467-.17-1 .111-1.189.63-.19.519.036 1.078.502 1.248z" fill="#CECECE"/></g><path d="M66.65 152.121c-.18.134-.18.581-.047.984l4.9 10.965c.044.135.09.045.045-.089l-4.139-11.366-.044-.135a.468.468 0 00-.715-.359z" fill="#CFD1D2"/><path d="M68.52 151.664c-.147-.358-1.011-.341-1.93.037-.92.378-1.546.975-1.4 1.332.148.358 1.012.341 1.932-.037.919-.378 1.545-.975 1.398-1.332zM58.232 157.294c-.135.268.133.626.49.806l10.23 6.368c.09.045.134-.044.045-.089l-9.737-7.128-.089-.045c-.447-.224-.805-.18-.94.088z" fill="#CFD1D2"/><path d="M59.562 155.918c-.32-.216-1.031.276-1.587 1.101-.556.824-.747 1.667-.426 1.883.32.216 1.03-.276 1.587-1.1.555-.825.746-1.668.426-1.884z" fill="#CFD1D2"/><path d="M73.5 158c4.12 2.069 5.779 7.099 3.71 11.218-2.073 4.129-7.094 5.792-11.214 3.723a8.355 8.355 0 01-3.719-11.222 8.326 8.326 0 016.359-4.528c.09-.022.183-.031.277-.04l.01.005c.004-.009.013-.005.013-.005.013-.004.022 0 .035-.004 0 0 .01.004.014-.005.018.009.031.005.049-.009l.009.005c.009.004.022 0 .022 0l.014-.005c.08-.004.138-.008.21-.017l.009.004c.045 0 .08-.004.112.001l.009.004c.094-.009.183-.009.272-.008h.269a7.9 7.9 0 011.422.155c.254.049.514.112.764.193l.174.054c.166.05.336.113.496.171.027.014.058.018.085.032l.018.009.018.009c.192.085.376.166.563.26z" fill="#FFBD8A"/><path d="M77.173 161.758l-.004.009-.032.041-.004.009a8.464 8.464 0 01-.745 1.215c-.018.035-.036.071-.063.102-.026.032-.044.067-.071.099-.027.031-.045.067-.072.098l.036.107c.044.157.08.309.124.466l-.004.009a1 1 0 01.044.201c.049.192.084.389.115.595a9.735 9.735 0 01.106.971c.013.062.009.116.013.174.008.206.017.411.012.622 0 .111 0 .223-.014.339 0 .179-.023.358-.041.528-.005.143-.027.277-.045.403-.023.178-.046.357-.086.527a3.85 3.85 0 01-.1.465c-.184.791-.459 1.56-.831 2.302-.108.214-.224.424-.337.625-.067.112-.139.232-.215.34a9.09 9.09 0 001.17-1.148l.004-.009c.094-.21.189-.42.265-.639.05-.12.09-.245.135-.379.054-.152.094-.3.14-.456.044-.134.08-.273.112-.403l.027-.12c.076-.331.14-.657.185-.993a9.57 9.57 0 00.11-1.444c.005-.188-.008-.385-.013-.577a10.778 10.778 0 00-.39-2.411c.243-.326.458-.666.66-1.023a10.53 10.53 0 01.465 5.179 8.356 8.356 0 00-.37-5.322" fill="#8C501C"/><path d="M74.086 172.607l-.013.004.013-.004zm0 0l.005-.009a.598.598 0 00.067-.112c.161-.254.31-.527.444-.795.175-.348.328-.697.454-1.059.094-.21.166-.42.229-.635.265-.84.419-1.703.465-2.575.014-.183.028-.366.01-.554a10.601 10.601 0 00-.18-2.116c.27-.268.516-.536.758-.839a1 1 0 01.044.201c.049.192.084.389.115.595a9.735 9.735 0 01.106.971c.013.062.009.116.013.174.008.206.017.411.012.622 0 .111 0 .223-.014.339 0 .179-.023.358-.04.528-.006.143-.028.277-.046.403-.023.178-.046.357-.086.527a3.85 3.85 0 01-.1.465c-.184.791-.458 1.56-.83 2.302-.109.214-.225.424-.338.625-.067.112-.139.233-.215.34a9.09 9.09 0 001.17-1.148l.004-.008c.094-.211.189-.421.265-.64.05-.12.09-.245.135-.379.054-.152.094-.3.14-.456.044-.134.08-.273.112-.403l.027-.12c.076-.331.14-.657.185-.993a9.57 9.57 0 00.096-.948l.014-.496c.005-.188-.008-.385-.013-.577a10.76 10.76 0 00-.39-2.411c-.012-.04-.017-.076-.03-.117l-.08-.286-.053-.183-.144.196c-.026.031-.044.067-.071.098-.027.032-.045.067-.072.099-.027.031-.045.067-.072.098a6.483 6.483 0 01-.394.473c.004.014.004.014-.01.018l-.317.366-.314.313c-.027.031-.063.058-.09.089l.027.125c.031.139.058.287.075.43l-.004.009a.82.82 0 01.017.143 5.87 5.87 0 01.084.725c.018.21.035.42.03.63.004.192.009.385-.01.577a.46.46 0 010 .112c-.01.264-.041.527-.077.8 0 .023.004.036-.005.054a3.83 3.83 0 01-.108.594c-.01.108-.032.197-.05.3a6 6 0 01-.166.599c-.01.063-.028.121-.05.188a7.459 7.459 0 01-.288.795 8.439 8.439 0 01-.359.805c-.108.214-.224.424-.34.634-.064.103-.126.206-.198.304-.112.178-.229.366-.359.536l-.103.138s.004-.009.013-.004c.305-.138.61-.299.887-.473" fill="#8C501C"/><path d="M74.313 168.86l.005.013c.009-.018.022-.044.022-.067l-.027.054zm.835-4.359c-.027.031-.062.058-.09.089-.058.049-.107.103-.165.152l-.264.237c-.036.026-.063.058-.094.075l.008.117c.009.161.009.317.004.483l-.004.009c-.01.241-.02.483-.051.724-.018.081-.023.157-.04.237-.023.179-.041.349-.096.523a6.914 6.914 0 01-.274.992c-.036.094-.059.184-.094.278l-.135.312-.018.058a10.404 10.404 0 01-.383 1.654l-.014.027a10.224 10.224 0 01-1.62 3.092c.25-.053.493-.133.739-.222a4.3 4.3 0 00.197-.304c.094-.143.184-.299.27-.447.048-.076.093-.143.12-.219.175-.326.323-.665.476-1.014.328-.786.553-1.613.689-2.463l.009-.018c.009-.018.022-.044.022-.067.014-.027.027-.053.027-.076.08-.183.148-.384.211-.576.063-.192.126-.385.171-.586.04-.147.072-.299.104-.451a8.521 8.521 0 00.169-1.851c.04-.036.08-.072.134-.112.009.049.018.098.018.143.04.21.062.412.08.622.003.036.008.071.003.103.027.214.035.42.03.63.005.193.009.385-.01.577a.47.47 0 010 .112 7.688 7.688 0 01-.077.8c0 .023.004.036-.005.054a3.875 3.875 0 01-.108.595c-.01.107-.032.196-.05.299-.045.201-.099.398-.166.599a1.048 1.048 0 01-.05.188 7.401 7.401 0 01-.287.795 8.49 8.49 0 01-.36.805c-.107.214-.224.424-.34.634-.063.103-.126.206-.198.304-.112.179-.229.366-.359.536a.854.854 0 00-.09.134c.305-.138.61-.299.887-.472l.013-.005.005-.009c.031-.04.05-.076.067-.112.162-.254.31-.527.444-.795.175-.348.328-.697.454-1.059.094-.21.166-.42.23-.634.264-.841.418-1.704.464-2.576.014-.183.028-.366.01-.554a10.593 10.593 0 00-.18-2.116c-.008-.049-.013-.085-.026-.125l-.093-.439-.314.313z" fill="#8C501C"/><path d="M74.579 167.036l-.267 1.824.004.013-.009.018c-.135.849-.36 1.676-.688 2.463-.104.273-.22.527-.35.786a2.303 2.303 0 01-.126.228c-.027.076-.072.143-.121.219-.086.148-.175.304-.27.447-.053.107-.116.21-.183.299l-.014.005a5.55 5.55 0 01-.738.222 10.275 10.275 0 001.62-3.092c-.023.022-.036.049-.058.072a8.967 8.967 0 01-1.86 1.942c-.179.133-.354.258-.533.37a3.86 3.86 0 01-.483.294c-.175.103-.367.196-.56.29a1.77 1.77 0 01-.25.12c-.014.005-.018.014-.027.009a7.34 7.34 0 01-.524.218c-.022 0-.04.014-.053.018-.005.009-.014.005-.014.005l-.009-.005a9.172 9.172 0 01-1.095-.158l.16-.054c.077-.018.153-.035.22-.058.063-.013.116-.031.183-.053.197-.058.399-.124.591-.196a10.84 10.84 0 00.703-.307c.273-.143.55-.294.815-.464.143-.084.282-.182.412-.285.067-.045.134-.089.197-.147.179-.134.367-.286.537-.447.139-.12.269-.245.39-.375.094-.098.188-.196.278-.308a5.03 5.03 0 00.345-.419c.161-.21.313-.425.448-.648.144-.219.274-.456.395-.697.076-.152.139-.299.206-.456l.135-.313.593-1.38zM77.138 161.584c.022.045.049.081.062.121.01.004.014.018.014.018.022.045.044.089.058.13.03.071.075.138.107.21 0 0-.005.009.004.013.027.059.045.112.071.171-.246.446-.515.871-.816 1.268l-.384-.282c.045-.067.099-.13.143-.197l-.254-.228c.358-.38.699-.791.995-1.224zM75.313 164.215c-.148.116-.304.227-.461.339l-.272-.394c.143-.107.295-.21.43-.321l.303.376zM75.488 164.85c-.18.179-.363.344-.556.505l-.308-.368c.18-.156.359-.312.524-.486l.34.349z" fill="#8C501C"/><path d="M76.97 161.275c.061.099.12.206.168.309.023.045.05.081.063.121.009.005.013.018.013.018.023.045.045.09.058.13.031.071.076.139.107.21-.269.38-.57.733-.883 1.067l-.352-.322c.116-.121.237-.25.344-.375-.071.053-.138.12-.21.174l-.308-.367c.35-.295.69-.616 1-.965z" fill="#8C501C"/><path d="M76.273 162.616c-.385.321-.788.611-1.213.879l-.254-.408a9.503 9.503 0 001.16-.839l.307.368zM76.492 163.139c-.363.389-.77.755-1.178 1.076l-.294-.372c.403-.312.779-.66 1.133-1.031l.339.327zM76.693 160.823c.089.134.178.269.25.416l.008.005c.005.013.014.018.018.031.063.099.12.206.17.309.022.045.049.081.062.121.009.004.013.018.013.018-.304.317-.609.611-.936.884l-.308-.368c.332-.281.65-.58.945-.901a2.64 2.64 0 00-.017-.054c-.3.241-.618.473-.932.674l-.258-.399c.335-.223.671-.468.985-.736zM74.718 162.662c-.103.049-.202.089-.305.138l-.182-.438c.098-.04.188-.085.286-.125l.2.425z" fill="#8C501C"/><path d="M75.064 163.486c-.125.071-.246.156-.38.223l-.237-.421c.121-.063.238-.138.354-.214l.263.412zM75.538 161.206c-.43.209-.877.387-1.329.53l-.142-.452a9.852 9.852 0 001.266-.495l.205.417zM75.97 161.971c-.402.268-.832.5-1.257.7l-.205-.439c.407-.187.81-.41 1.195-.664l.267.403zM76 159.927l-.008-.004a7.542 7.542 0 01-.743.298l-.01-.004c-.044.022-.098.04-.142.062l-.161.053-.143-.452c.054-.017.108-.035.152-.057 0 0 .01.004.014-.005a5.11 5.11 0 00.684-.271M76.564 160.635l-.013.005a8.713 8.713 0 01-1.012.566l-.21-.43a10.458 10.458 0 00.945-.522" fill="#8C501C"/><path d="M74.937 160.332c-.48.152-.971.263-1.454.333l-.076-.474c.47-.066.927-.173 1.383-.324l.147.465zM75.538 161.206c-.43.209-.877.387-1.329.53l-.142-.452a9.852 9.852 0 001.266-.495l.205.417z" fill="#8C501C"/><path d="M74.209 161.735c-.08.027-.161.054-.237.071l-.13-.456c.077-.018.157-.044.224-.067l.143.452zM73.477 160.674l-.036-.241.013.241-.179.022-.053-.474.17-.026.085.478z" fill="#8C501C"/><path d="M69.044 157.138v.022l.022-.022s-.013.004-.022 0zm0 0v.022l.022-.022s-.013.004-.022 0zm0 0v.022l.022-.022s-.013.004-.022 0zm0 0v.022l.022-.022s-.013.004-.022 0zm3.773.552c-.16-.058-.33-.121-.496-.171l-.174-.054a6.455 6.455 0 00-.765-.193 9.295 9.295 0 011.452 1.008c.12.095.228.193.344.296.326.287.634.609.915.941.116.125.223.269.335.403.013.018.018.031.031.049-.148.049-.3.085-.46.116-.153.035-.3.062-.448.088l-.01-.004.005-.009c-.062-.076-.12-.161-.187-.228-.058-.086-.13-.166-.2-.247a1.448 1.448 0 00-.206-.237 9.167 9.167 0 00-1.388-1.291 7.052 7.052 0 00-.35-.264c-.12-.094-.254-.184-.388-.274a8.485 8.485 0 00-.866-.502h-.269a2.518 2.518 0 00-.272.008l-.01-.005c-.03-.004-.067 0-.111 0l-.01-.004c-.07.009-.129.013-.21.017l-.013.005s-.013.004-.022 0l-.01-.005c-.017.014-.03.018-.048.009l-.01-.004-.004.009c-.013.004-.022-.001-.036.004l-.004.009c.027.013.067.022.094.036l.035.018c.157.067.304.13.456.206.08.041.17.086.246.135.206.103.407.215.599.345.111.068.214.13.312.202.121.072.237.153.349.242.098.072.196.144.29.224.09.068.179.135.264.211.151.121.294.26.442.39.339.327.665.681.964 1.066.093.103.183.215.267.336l.014.018.062.098.135-.022h.022c.13-.013.255-.04.38-.066.112-.022.233-.04.349-.071a7.48 7.48 0 00.555-.147c.063-.013.116-.031.17-.049l.16-.053.157-.044-.004-.014-.009-.004-.178-.247c-.04-.053-.072-.103-.116-.147a4.104 4.104 0 00-.281-.377c-.148-.174-.286-.344-.438-.51a6.557 6.557 0 00-.46-.466c-.129-.121-.25-.238-.383-.35-.076-.071-.152-.143-.237-.197-.067-.067-.139-.125-.21-.184l-.018-.009-.018-.009c-.027-.013-.058-.018-.085-.031zm-3.773-.552v.022l.022-.022s-.013.004-.022 0zm0 0v.022l.022-.022s-.013.004-.022 0z" fill="#8C501C"/><path d="M69.078 157.133l-.026.032-.027.031c-.036-.018-.067-.023-.103-.04.004-.009.013-.005.013-.005.014-.004.023 0 .036-.004 0 0 .009.004.013-.005.018.009.032.005.05-.009l.009.005c.009.004.022 0 .022 0l.013-.005z" fill="#8C501C"/><path d="M69.064 157.138l-.022.022-.018.036-.161.188a3.041 3.041 0 00-.228-.193 2.11 2.11 0 01.3-.04c.013-.004.022 0 .035-.004l.005-.009.009.004c.018.009.031.005.05-.009l.008.005c.009.004.022 0 .022 0z" fill="#8C501C"/><path d="M69.078 157.134l-.027.031-.188.219a3.041 3.041 0 00-.228-.193 2.11 2.11 0 01.3-.04c.013-.004.022 0 .035-.004 0 0 .01.004.014-.005.018.009.031.005.05-.009l.008.005c.009.004.022 0 .022 0l.014-.004z" fill="#8C501C"/><path d="M69.41 157.12l.517.35-.41-.139-.466-.166-.008-.005-.005.009-.054-.027c.018.009.032.005.05-.009l.008.005c.01.004.027-.009.027-.009l.01.004c.08-.004.138-.008.21-.017l.008.004c.045 0 .081-.004.112 0zM74.29 168.927l-.442-.189a8.402 8.402 0 00.69-3.067 9.413 9.413 0 01-.318.232l-.277-.385c.229-.165.462-.339.681-.531l.385-.321.017.501a8.796 8.796 0 01-.735 3.76z" fill="#8C501C"/><path d="M67.932 173.634a4.35 4.35 0 00.42-.103c.063-.013.117-.031.184-.053a8.8 8.8 0 00.59-.196c.018-.013.045-.022.072-.031.21-.084.425-.178.631-.276.273-.143.55-.294.815-.464a3.61 3.61 0 00.412-.285c.067-.045.134-.089.197-.147.179-.134.367-.286.537-.447.139-.12.269-.245.39-.375.094-.098.188-.196.278-.308.125-.138.237-.272.345-.419.161-.21.314-.425.448-.648.144-.219.274-.456.395-.697.076-.152.14-.299.207-.456l.442.189c-.072.165-.148.317-.229.478a9.605 9.605 0 01-.615 1.045c-.026.032-.044.067-.071.099a8.962 8.962 0 01-1.86 1.942c-.179.133-.353.258-.532.37a3.86 3.86 0 01-.484.294c-.175.103-.367.196-.56.29-.08.049-.165.085-.25.12-.014.005-.018.014-.027.009-.175.08-.345.152-.524.218-.022 0-.04.014-.053.018-.005.009-.014.005-.014.005l-.009-.005a9.172 9.172 0 01-1.095-.158l-.01-.005M73.606 166.211a.355.355 0 01-.026.098 8.564 8.564 0 01-.765 2.257 6.637 6.637 0 01-.31.55 2.494 2.494 0 01-.143.241c-.121.197-.246.38-.381.558-.13.17-.26.34-.408.501l-.009.017c-.148.161-.295.322-.452.478a8.938 8.938 0 01-3.725 2.203c-.197.058-.39.106-.582.155a.128.128 0 01-.049.009l-.009-.004a7.459 7.459 0 01-.75-.333l-.019-.009c.099-.017.206-.031.305-.048 0 0 .013-.005.022 0 .224-.045.438-.093.658-.151.228-.053.456-.129.675-.209a7.711 7.711 0 001.285-.575c.22-.125.439-.249.645-.392a4.28 4.28 0 00.425-.312c.233-.174.448-.357.658-.554.153-.147.305-.294.444-.46.04-.035.072-.076.103-.116.13-.147.264-.303.381-.469.17-.227.332-.46.48-.71.116-.187.224-.38.327-.585a11 11 0 00.238-.518c.086-.215.17-.429.238-.653.059-.161.108-.326.144-.487.01-.018.01-.04.018-.058.04-.17.082-.34.113-.514l.246.045.224.045zM74.936 165.346c-.233.196-.47.379-.717.558l-.276-.386c.228-.165.46-.339.68-.53l.313.358zM74.862 164.559a8.235 8.235 0 01-.815.508l-.236-.421c.264-.147.514-.312.774-.495l.277.408z" fill="#8C501C"/><path d="M74.22 165.904a8.033 8.033 0 01-.73.472l-.24-.412c.237-.138.47-.289.684-.45l.286.39zM74.043 165.076c-.144.084-.282.16-.43.232l-.21-.43c.135-.067.274-.143.412-.219l.228.417zM74.862 164.559a8.235 8.235 0 01-.815.508l-.236-.421c.264-.147.514-.312.774-.495l.277.408zM74.412 162.8a8.448 8.448 0 01-.97.352l-.138-.461c.304-.093.617-.205.917-.334l.191.443zM74.692 163.713c-.295.165-.778.392-1.092.526l-.191-.443c.3-.129.756-.348 1.047-.504l.236.421zM73.968 161.816a7.18 7.18 0 01-.86.195l-.088-.47c.273-.053.55-.115.814-.195l.134.47zM73.284 160.701c-.25.03-.496.052-.746.061l-.017-.479c.237-.004.47-.021.702-.061l.061.479z" fill="#8C501C"/><path d="M73.284 160.701c-.25.03-.496.052-.746.061l-.017-.479c.237-.004.47-.021.702-.061l.061.479zM64.764 172.188l.013-.004c.175.143.353.255.536.381l.01.004.008.005c.206-.054.398-.103.595-.16.3-.085.591-.196.886-.316a5.59 5.59 0 00.614-.285c.008.004.013-.005.026-.009.229-.121.457-.241.676-.388.193-.116.39-.241.573-.384a8.836 8.836 0 001.237-1.102 7.41 7.41 0 00.157-.179c.094-.098.183-.21.273-.321.076-.085.148-.183.22-.282.098-.129.192-.272.273-.411.063-.08.112-.156.157-.245a6.94 6.94 0 00.633-1.238l.022-.045a9.355 9.355 0 001.352-.574c-.009.018-.01.04-.018.058a4.005 4.005 0 01-.144.487c-.067.224-.153.438-.238.653-.076.174-.153.348-.238.518-.103.206-.211.398-.328.585a7.97 7.97 0 01-.48.711 5.604 5.604 0 01-.38.468.814.814 0 01-.103.117 6.136 6.136 0 01-.444.459c-.21.197-.426.38-.658.554a4.304 4.304 0 01-.426.312 8.204 8.204 0 01-.644.392 7.719 7.719 0 01-1.285.575c-.22.08-.443.147-.676.209-.219.058-.434.107-.657.151-.01-.005-.023 0-.023 0-.107.013-.197.035-.304.049l.018.009c.25.125.496.237.75.332l.01.004a.127.127 0 00.049-.009c.192-.048.385-.097.582-.155a8.937 8.937 0 003.724-2.203c.157-.156.305-.317.453-.477l.009-.018c.148-.161.278-.331.408-.5.134-.179.26-.362.38-.559.05-.076.1-.152.144-.241.112-.179.216-.362.31-.55.359-.714.61-1.461.76-2.248l.004-.009a.353.353 0 00.027-.098l.104-.519-.457.264c-.59.352-1.2.628-1.835.846-.04.013-.067.022-.103.027l-.045.111a8.548 8.548 0 01-.21.465 6.334 6.334 0 01-.538.983c-.122.197-.248.38-.391.554a.564.564 0 01-.076.107c-.103.138-.211.264-.319.389-.071.075-.134.156-.215.227-.134.157-.277.286-.425.424-.005.009-.018.014-.036.027-.148.138-.31.281-.48.397a.507.507 0 01-.13.103 7.969 7.969 0 01-1.915 1.074 8.65 8.65 0 01-.707.249c-.246.067-.492.134-.73.183a.777.777 0 01-.174.035.3.3 0 01-.085.013c-.022 0-.05.009-.08.005M73.6 164.239c-.479.196-.97.351-1.468.471l-.11-.47c.47-.111.935-.257 1.4-.449l.178.448zM73.617 165.299a8.898 8.898 0 01-1.66.654l-.138-.461a9.068 9.068 0 001.58-.628l.218.435zM73.442 163.152l-.08.026-.134-.469.063-.014.15.457zM72.77 162.064c-.292.044-.582.066-.873.088l-.017-.479c.273-.008.555-.035.832-.074l.057.465zM73.36 163.179c-.406.12-.836.217-1.256.275l-.076-.475c.399-.057.801-.146 1.186-.266l.147.466z" fill="#8C501C"/><path d="M73.108 162.011c-.112.022-.233.04-.34.053l-.075-.474c.107-.014.219-.036.326-.049l.089.47zM72.538 160.762a7.612 7.612 0 01-.724-.006l.018-.483c.228.014.452.015.68.006l.026.483z" fill="#8C501C"/><path d="M72.77 162.064c-.292.044-.582.066-.873.088l-.017-.479c.273-.008.555-.035.832-.074l.057.465zM71.813 160.756a6.846 6.846 0 01-.411-.027l.05-.479.389.028-.028.478zM69.289 157.116l.009.004a8.987 8.987 0 011.9 2.343l-.42.236a8.252 8.252 0 00-1.915-2.315l.189-.219.013-.027.014-.005c.08-.004.138-.008.21-.017z" fill="#8C501C"/><path d="M72.538 160.762a7.612 7.612 0 01-.724-.006l.018-.483c.228.014.452.015.68.006l.026.483z" fill="#8C501C"/><path d="M71.814 160.756a6.11 6.11 0 01-.411-.027l-.139-.014-.058-.13a8.85 8.85 0 00-.432-.877l.42-.236c.139.259.277.519.397.792.085.009.161.014.25.014l-.027.478zM71.419 166.802c-.04.013-.067.022-.103.026a8.824 8.824 0 01-2.206.403c-.044 0-.089 0-.138.009l-.058.116a2.975 2.975 0 01-.216.362c-.004.009-.013.027-.027.031a3.473 3.473 0 01-.314.469 5.34 5.34 0 01-.246.335c-.063.081-.14.166-.202.246-.107.125-.21.241-.336.357-.13.148-.278.286-.434.42a3.408 3.408 0 01-.363.299c-.085.08-.193.16-.296.232-.053.04-.112.089-.174.125-.121.085-.238.16-.363.232-.202.133-.42.258-.654.365a5.957 5.957 0 01-.568.263c-.175.08-.354.147-.537.2-.112.045-.22.08-.331.103.134.134.272.26.41.385l.014-.004a7.15 7.15 0 00.622-.236c.21-.085.412-.174.609-.277.192-.093.367-.196.555-.303a9.946 9.946 0 001.124-.789c.206-.165.412-.353.595-.54.108-.103.216-.206.319-.322l.08-.094c.135-.156.274-.321.4-.482.142-.174.268-.357.398-.549.099-.152.193-.317.287-.483a10.155 10.155 0 001.794-.296l.013-.005-.116.233c-.13.259-.27.514-.435.755a5.039 5.039 0 01-.39.554.598.598 0 01-.077.107 7.16 7.16 0 01-.318.388c-.072.076-.134.157-.215.228-.134.156-.278.286-.426.424-.004.009-.017.014-.035.027-.148.138-.31.281-.48.397-.031.04-.08.071-.13.103a7.969 7.969 0 01-1.915 1.074c-.22.103-.461.183-.707.249-.242.08-.484.138-.73.182a.778.778 0 01-.174.036.3.3 0 01-.085.013c-.023 0-.04.013-.063.013.174.144.353.256.536.381l.009.005.009.004c.206-.053.398-.102.595-.159.3-.085.59-.196.886-.316.21-.085.412-.174.613-.286.01.005.014-.004.027-.008.228-.121.457-.241.676-.388.193-.116.39-.241.573-.384.247-.178.48-.375.703-.576.184-.165.363-.343.534-.526.049-.054.103-.116.156-.179.094-.098.184-.21.274-.321.076-.085.148-.184.22-.282.098-.129.192-.272.273-.411.063-.08.112-.156.157-.245a6.94 6.94 0 00.633-1.238l.022-.045c.018-.036.022-.067.04-.103l.194-.473-.488.169zm-7.16 4.987l.004-.009-.004.009zM72.133 164.71c-.68.151-1.368.23-2.053.234l.006-.479a8.339 8.339 0 001.936-.225l.111.47zM71.952 165.962a9.292 9.292 0 01-2.22.363l-.016-.479a8.98 8.98 0 002.098-.345l.138.461zM71.888 162.147a8.635 8.635 0 01-1.865-.119l.082-.474c.577.099 1.171.14 1.757.11l.026.483zM72.104 163.454a8.266 8.266 0 01-1.927.072l.036-.474a8.601 8.601 0 001.825-.068l.066.47zM69.289 157.116l.009.004c.165.139.317.283.464.435a9.278 9.278 0 011.437 1.908l-.421.236a8.252 8.252 0 00-1.915-2.315l.162-.188.018-.036.022-.022.014-.005c.08-.004.138-.008.21-.017z" fill="#8C501C"/><path d="M71.8 160.761l-.393-.041a8.054 8.054 0 01-1.891-.402l-.107-.031-.04-.099a7.915 7.915 0 00-.633-1.28l.416-.25c.236.399.45.82.629 1.245.415.13.835.229 1.26.297l-.254-.497.42-.236c.166.296.322.609.45.931l.143.363zM69.144 158.654l-.416.25a10.934 10.934 0 00-.473-.708l.38-.29c.188.251.357.493.509.748zM67.566 157.404c.103.085.188.183.272.282l.363-.322c-.031-.026-.058-.062-.089-.089-.161.031-.313.066-.465.102l-.005.009-.076.018z" fill="#8C501C"/><path d="M68.643 157.911l-.38.29a8.126 8.126 0 00-.415-.511l.358-.312c.152.166.295.349.437.533zM69.11 167.232c-.045 0-.09-.001-.139.008a8.123 8.123 0 01-1.618-.119l-.157-.022-.085.125a4.583 4.583 0 01-.206.299c-.01.018-.023.022-.032.04a4.351 4.351 0 01-.233.308 8.561 8.561 0 01-.963 1.005c-.139.12-.278.241-.421.348-.143.107-.287.214-.439.317a3.49 3.49 0 01-.398.258 8.53 8.53 0 01-1.025.526 3.202 3.202 0 01-.35.138c.099.139.21.273.317.394.25-.098.497-.209.739-.334a9.969 9.969 0 00.985-.579c.156-.112.313-.224.46-.34.31-.236.592-.486.865-.763.135-.134.274-.277.395-.428.224-.246.425-.514.623-.795.416.063.845.1 1.27.1-.005.009-.014.027-.027.032a3.604 3.604 0 01-.314.469c-.08.116-.157.223-.247.335-.062.08-.139.165-.201.245a6.226 6.226 0 01-.336.357 7.392 7.392 0 01-.435.42c-.112.112-.237.205-.363.299-.094.076-.192.161-.295.232-.054.04-.112.089-.175.125-.12.085-.237.16-.363.232-.201.134-.42.258-.653.365a5.957 5.957 0 01-.569.263c-.174.08-.353.147-.537.2-.112.045-.219.081-.33.103.133.134.272.26.41.385l.013-.004a7.15 7.15 0 00.623-.236c.21-.085.411-.174.608-.276.193-.094.367-.197.555-.304a9.809 9.809 0 001.124-.789 6.88 6.88 0 00.596-.54c.108-.103.215-.206.318-.322l.08-.093c.135-.157.274-.322.4-.483.143-.174.269-.357.399-.549a9.7 9.7 0 00.287-.483.552.552 0 00.067-.111l.202-.38-.425.022zM70.08 164.943a8.287 8.287 0 01-1.6-.154l.09-.47a8.487 8.487 0 001.511.155v.469zM69.742 166.329a8.498 8.498 0 01-1.726-.106l.081-.473c.537.09 1.082.118 1.628.101l.017.478zM70.022 162.028a8.497 8.497 0 01-1.297-.338l.162-.456c.398.144.805.248 1.216.32l-.081.474zM70.177 163.526a8.416 8.416 0 01-1.498-.248l.122-.465c.456.117.93.198 1.413.239l-.037.474zM69.998 160.494l-.487-.167a6.673 6.673 0 01-.737-.292l.197-.438c.054.027.12.05.174.077a8.332 8.332 0 00-.41-.766l.417-.249c.263.434.486.881.673 1.356l.173.479z" fill="#8C501C"/><path d="M68.773 160.035l-.072-.036.198-.437.072.035-.198.438z" fill="#8C501C"/><path d="M68.773 160.035l-.072-.036.198-.437.072.035-.198.438zM68.725 161.69l.081-.228-.08.228-.13-.054.148-.452.143.05-.08.228-.082.228zM68.113 157.275a.6.6 0 01.09.089l-.364.322c-.085-.099-.174-.188-.259-.287.023 0 .04-.013.063-.013l.004-.009c.153-.036.305-.071.466-.102z" fill="#8C501C"/><path d="M68.702 159.999c-.08-.04-.166-.072-.246-.112a6.716 6.716 0 01-.398-.211l-.08-.04-.027-.081a9.176 9.176 0 00-.73-1.486l.407-.254c.29.47.544.967.753 1.486.098.049.192.108.3.162l.232.116-.211.42zM67.353 167.121a8.363 8.363 0 01-1.22-.311l-.135-.044-.103.093c-.103.094-.201.179-.3.264a9.41 9.41 0 01-1.227.861c-.125.071-.25.142-.38.2a5.604 5.604 0 01-.43.21c-.143.062-.286.124-.447.178-.144.062-.291.111-.448.155a5.095 5.095 0 01-.456.129c-.027.009-.063.014-.09.022.067.157.143.296.214.444.269-.067.52-.143.77-.241.16-.053.313-.111.47-.178a8.557 8.557 0 002.149-1.27c.13-.103.264-.215.39-.331l.008.005c.268.09.523.162.787.216-.01.018-.023.022-.031.04-.077.107-.153.215-.234.308a8.561 8.561 0 01-.963 1.005c-.13.125-.273.232-.42.348a3.735 3.735 0 01-.44.317c-.125.093-.26.183-.398.258a8.394 8.394 0 01-1.374.664c.098.139.21.273.316.394.251-.098.497-.209.739-.334a9.969 9.969 0 00.985-.579c.157-.112.313-.223.461-.339.31-.237.591-.487.865-.764.134-.134.273-.276.394-.428.224-.246.426-.514.623-.795.031-.04.054-.085.085-.125l.197-.304-.357-.068zM68.483 164.78a5.155 5.155 0 01-.559-.135l.018-.081-.24-.121.147-.317.197.054c.179.045.349.085.523.117l-.086.483zM68.021 166.214a8.93 8.93 0 01-.907-.198l.13-.46c.286.076.577.144.854.193l-.077.465zM68.678 163.277c-.072-.013-.148-.04-.215-.063l.13-.46c.068.023.14.036.206.059l-.121.464z" fill="#8C501C"/><path d="M66.133 166.81a7.257 7.257 0 01-1.492-.704c-.045-.023-.076-.05-.121-.072l-.125.071c-.112.067-.233.13-.363.187l-.009-.004c-.013.004-.018.013-.022.022-.005.009-.018.014-.032.018-.018.014-.04.013-.058.027-.036.027-.085.035-.13.058 0 0-.004.009-.013.004-.08.049-.166.085-.26.116-.004.009-.018.013-.031.018a5.085 5.085 0 01-.618.227.292.292 0 01-.107.035 4.78 4.78 0 01-.617.16c-.023 0-.04.014-.063.014-.09.022-.179.044-.264.057-.085.014-.175.036-.255.04.022.157.058.309.102.465l.067.001.148-.027c.071-.009.147-.027.224-.044.272-.054.559-.134.827-.223.287-.08.546-.173.806-.289.228-.098.452-.209.667-.325a.254.254 0 00.116-.054c.147.086.295.171.456.252.205.103.415.197.63.283a9.418 9.418 0 01-1.227.861c-.126.071-.25.142-.38.2a5.604 5.604 0 01-.43.21c-.143.062-.296.12-.448.178-.143.062-.29.111-.447.155a5.114 5.114 0 01-.457.129c-.027.009-.062.014-.09.022.068.157.143.296.215.444.268-.067.519-.143.77-.241.16-.053.313-.111.47-.178a8.557 8.557 0 002.148-1.27c.13-.103.264-.215.39-.331l.009.005c.035-.027.067-.067.103-.094l.29-.268-.379-.135zM68.135 164.672l-.188-.094-.018.08a8.021 8.021 0 01-.938-.315l.18-.446c.277.116.576.211.88.296l.277.072-.193.407zM67.112 166.016a8.777 8.777 0 01-1.27-.481l.207-.433a7.65 7.65 0 001.198.445l-.135.469zM68.464 163.214a6.788 6.788 0 01-.604-.202l-.254-.094.201-.38.197.099.027-.076c.188.072.38.135.576.189l-.143.464zM68.596 161.636l-.152-.054.18-.447.138.059-.166.442z" fill="#8C501C"/><path d="M68.596 161.636l-.152-.054.18-.447.138.059-.166.442zM63.153 165.191a2.023 2.023 0 01-.278.151.199.199 0 01-.063.036c-.053.04-.125.071-.183.098-.054.04-.125.071-.184.098a6.923 6.923 0 01-.487.214c-.175.08-.367.151-.55.204.008.161.025.327.043.492a7.606 7.606 0 001.298-.534c.174-.08.34-.165.501-.263.25.215.496.417.773.601l.018.009-.04.013c-.005.009-.019.014-.032.018-.018.013-.04.013-.058.027-.036.026-.085.035-.13.058 0 0-.004.009-.013.004-.081.049-.166.085-.26.116-.005.009-.018.013-.031.018a5.258 5.258 0 01-.618.227.292.292 0 01-.107.035 6.094 6.094 0 01-.618.16c-.022 0-.04.014-.062.013-.09.023-.18.045-.264.058-.085.013-.175.036-.255.04.022.157.057.309.102.465l-.005.009c.023 0 .05-.009.072-.009l.148-.026c.071-.009.147-.027.223-.045.273-.053.56-.133.828-.222.286-.08.546-.173.805-.289a8.34 8.34 0 00.667-.325.254.254 0 00.117-.054c.04-.013.076-.04.12-.062l.359-.201-.349-.219c-.044-.023-.076-.05-.12-.072a6.613 6.613 0 01-1.077-.821l-.143-.116-.147.094zM66.99 164.343a7.555 7.555 0 01-.63-.283 7.523 7.523 0 01-.907-.533l.27-.402c.276.183.562.349.857.497.197.099.389.185.594.265l-.184.456zM65.835 165.531l-.17-.086a8.406 8.406 0 01-1.278-.798l.291-.38c.38.292.782.539 1.202.749l.16.081-.206.434zM67.847 163.017a8.516 8.516 0 01-.791-.342 8.606 8.606 0 01-.764-.439l.26-.407c.228.148.474.283.724.408.241.122.487.234.75.333l-.18.447z" fill="#8C501C"/><path d="M66.99 164.343a7.555 7.555 0 01-.63-.283 7.523 7.523 0 01-.907-.533l.27-.402c.276.183.562.349.857.497.197.099.389.185.594.265l-.184.456zM68.445 161.582a8.954 8.954 0 01-.688-.301 8.342 8.342 0 01-.867-.502l.27-.402c.258.175.535.336.812.475.215.108.434.207.648.292l-.175.438zM67.848 163.017a8.516 8.516 0 01-.79-.342 8.592 8.592 0 01-.765-.439l-.187-.117.175-.326.223.112.045-.067c.228.148.473.283.724.408.24.122.487.234.75.333l-.175.438zM68.645 160.004l-.581-.337a11.34 11.34 0 01-.835-.542l.282-.385c.05.036.09.068.139.104a8.508 8.508 0 00-.428-.775l.407-.254c.312.492.57 1.025.78 1.567l.236.622zM61.576 163.694c.067.112.134.224.205.327.317.484.678.923 1.094 1.321l.009.005c-.018.013-.045.022-.072.031-.054.04-.125.071-.183.098-.054.04-.126.071-.184.098-.161.076-.322.152-.488.214-.175.08-.367.151-.55.205.008.161.026.326.044.492a7.698 7.698 0 001.297-.535c.224-.111.439-.227.65-.356l.272-.165-.227-.215a7.98 7.98 0 01-1.268-1.465 6.472 6.472 0 01-.423-.716c-.068.223-.122.442-.176.661zM62.389 161.518a7.827 7.827 0 002.29 2.749l-.292.38a8.564 8.564 0 01-2.263-2.602c.045-.112.099-.219.153-.326.036-.072.067-.134.112-.201zM62.87 160.718c.094-.143.197-.281.304-.407.112.202.228.394.344.587.107.166.218.322.348.466.058.085.111.156.174.233.138.17.28.331.428.483.01.005.022.023.031.027.183.193.367.363.563.529l.018.009c.205.17.415.332.643.48l-.27.402c-.115-.081-.24-.166-.352-.256a8.476 8.476 0 01-.66-.556 4.742 4.742 0 01-.309-.3 8.785 8.785 0 01-.602-.694c-.085-.099-.157-.202-.228-.305a1.809 1.809 0 01-.174-.255 2.879 2.879 0 01-.258-.443z" fill="#8C501C"/><path d="M62.87 160.718c.094-.143.197-.281.304-.407.112.202.228.394.344.587.111.157.218.322.348.466.058.085.111.156.174.233.138.17.28.331.428.483.01.005.022.023.031.027.179.179.367.363.563.529l.018.009c.205.17.415.332.643.48l-.27.402c-.115-.081-.24-.166-.352-.256a8.476 8.476 0 01-.66-.556 4.742 4.742 0 01-.309-.3 8.785 8.785 0 01-.602-.694c-.085-.099-.157-.202-.228-.305a1.809 1.809 0 01-.174-.255 9.774 9.774 0 01-.267-.425M63.753 159.651c.117-.121.228-.232.35-.34.004.014.013.018.026.036.281.443.607.864.964 1.245.12.139.25.26.38.381.334.314.696.596 1.085.847l-.045.067-.215.34c-.058-.041-.126-.086-.184-.126a7.191 7.191 0 01-.41-.296 10.611 10.611 0 01-.657-.564 7.28 7.28 0 01-.473-.507 5.34 5.34 0 01-.477-.586c-.121-.162-.241-.323-.344-.497z" fill="#8C501C"/><path d="M64.129 159.347c.281.444.607.864.964 1.245.12.139.25.26.38.381.334.314.696.596 1.085.847l-.045.067.196.099-.193.384-.219-.143-.183-.126.005-.009a3.92 3.92 0 01-.416-.287 10.611 10.611 0 01-.656-.564 7.28 7.28 0 01-.473-.507 5.34 5.34 0 01-.478-.586 5.505 5.505 0 01-.343-.497c.116-.121.228-.232.35-.34l.004-.008c.004.013.009.026.022.044zM64.788 158.749a4.05 4.05 0 01.394-.272c.04.054.072.103.116.148a7.453 7.453 0 001.866 1.743l-.268.402a6.223 6.223 0 01-.492-.359 6.96 6.96 0 01-.857-.766 6.194 6.194 0 01-.388-.43c-.085-.099-.17-.197-.25-.305-.04-.053-.08-.107-.125-.152" fill="#8C501C"/><path d="M64.786 158.749c.13-.102.265-.192.394-.272.04.054.072.103.116.148a7.453 7.453 0 001.866 1.743l-.268.402a6.242 6.242 0 01-.492-.359 6.968 6.968 0 01-.857-.766 5.996 5.996 0 01-.388-.43 5.618 5.618 0 01-.25-.304 1.418 1.418 0 00-.125-.153l.004-.009zM66.003 157.996a9.95 9.95 0 01.452-.21c.04.054.085.099.134.135.29.291.59.564.925.811l-.287.393a7.707 7.707 0 01-1.094-.986c-.045-.045-.085-.099-.13-.143z" fill="#8C501C"/><path d="M66.47 157.782a.882.882 0 00.121.139c.29.291.59.564.925.811l-.287.393a7.707 7.707 0 01-1.094-.986c-.045-.045-.085-.099-.13-.143.148-.072.296-.143.452-.21M67.388 157.448l.009.004c.004.014.018.032.022.045l.01.005c.07.103.133.201.195.3l-.398.258a7.173 7.173 0 00-.303-.443c-.01-.004-.005-.013-.005-.013l.416-.138c.014-.005.036-.005.054-.018z" fill="#8C501C"/><path d="M63.245 155.559c-.135.268-.002.67.222.894l5.043 5.555.135-.045s.089.045.134-.044l-4.775-6.091-.089-.045c-.133-.402-.536-.493-.67-.224z" fill="#CFD1D2"/><path d="M64.852 154.583c-.248-.296-1.067-.019-1.83.619-.762.638-1.178 1.395-.93 1.692.248.296 1.067.019 1.83-.619.762-.638 1.178-1.395.93-1.692z" fill="#CFD1D2"/><path d="M61.597 196.407c-.583 4.573-4.775 7.809-9.348 7.226a8.356 8.356 0 112.112-16.576 8.326 8.326 0 016.383 4.493c.051.077.09.163.13.248l-.001.01c.01.001.009.011.009.011.008.012.007.022.016.033 0 0-.002.01.008.011-.002.02.006.031.025.043l-.001.01c-.002.01.007.021.007.021l.009.012c.03.074.054.127.086.192l-.001.01c.015.042.03.074.037.105l-.002.01c.04.086.07.17.1.255l.088.253a8 8 0 01.405 2.36c.008.173.005.354.003.525-.003.03.003.061-.001.09l-.003.02-.002.02c-.017.21-.032.409-.059.618z" fill="#FFBD8A"/><path d="M59.272 201.121l-.01-.002-.048-.016-.01-.001a8.427 8.427 0 01-1.393-.299.483.483 0 01-.118-.025c-.038-.015-.078-.02-.116-.035-.039-.015-.079-.02-.117-.035l-.09.069c-.132.094-.264.178-.397.272l-.01-.001c-.056.043-.11.077-.175.109-.165.11-.34.209-.523.306a9.735 9.735 0 01-.88.422c-.055.034-.107.047-.16.071-.192.076-.383.153-.583.218a2.757 2.757 0 01-.325.099c-.169.06-.345.098-.511.137-.137.043-.271.066-.395.091-.176.038-.353.076-.526.094-.155.031-.32.05-.472.061-.807.088-1.624.085-2.447-.02-.238-.03-.475-.07-.702-.109-.127-.027-.265-.054-.391-.091.468.282.95.525 1.47.722l.01.001c.23.02.459.039.69.038.131.007.263.003.404.001.161 0 .314-.01.476-.02a5.04 5.04 0 00.417-.027l.123-.015c.337-.038.666-.086.998-.155.31-.061.621-.133.925-.225l.473-.151c.18-.058.36-.136.54-.204a10.76 10.76 0 002.145-1.168c.388.12.78.21 1.184.282a10.528 10.528 0 01-4.73 2.159 8.354 8.354 0 004.896-2.118" fill="#8C501C"/><path d="M48.016 201.813l-.01-.011.01.011zm0 0l.01.001a.57.57 0 00.127.027c.294.067.6.116.898.154.387.05.766.078 1.15.076.229.02.45.018.674.006.88-.029 1.746-.171 2.584-.417.177-.048.354-.096.526-.175a10.63 10.63 0 001.936-.872c.342.164.676.308 1.043.435a.963.963 0 01-.175.109c-.165.11-.34.209-.523.306a9.353 9.353 0 01-.88.422c-.055.034-.107.047-.16.071-.192.076-.383.153-.583.218a2.954 2.954 0 01-.325.1c-.169.059-.345.097-.511.136-.137.043-.271.066-.395.091-.176.038-.353.076-.526.094-.155.031-.32.05-.472.061-.808.089-1.624.085-2.447-.02-.238-.03-.475-.07-.702-.109-.127-.027-.265-.054-.392-.09.469.281.952.524 1.471.721l.01.002c.23.019.459.038.69.037.131.007.263.003.404.001.161.001.314-.01.476-.02.142-.002.284-.014.417-.027l.123-.015c.337-.038.666-.086.998-.155.31-.061.621-.133.925-.225l.473-.151c.18-.058.36-.136.54-.204a10.759 10.759 0 002.145-1.168c.034-.026.066-.042.1-.068l.243-.17.156-.112-.233-.07c-.039-.015-.079-.02-.117-.035-.038-.015-.078-.02-.117-.035-.038-.015-.078-.02-.116-.035-.193-.065-.387-.13-.578-.214-.01.008-.01.008-.02-.003l-.45-.178-.4-.192c-.038-.015-.075-.04-.113-.055l-.11.067c-.12.075-.25.149-.38.213l-.01-.001a.822.822 0 01-.129.064 5.94 5.94 0 01-.56.282c-.032.016-.064.032-.096.038-.192.086-.384.172-.584.238-.18.068-.36.135-.548.182a.464.464 0 01-.105.037 8.455 8.455 0 01-.78.193c-.022.007-.033.016-.053.013a3.863 3.863 0 01-.597.096c-.104.027-.196.035-.299.052a5.743 5.743 0 01-.62.042 1.077 1.077 0 01-.194.016 7.49 7.49 0 01-.846-.007 8.515 8.515 0 01-.878-.072c-.238-.03-.474-.07-.711-.111a4.362 4.362 0 01-.352-.085c-.206-.046-.422-.094-.625-.16l-.165-.051s.01.001.009.011c.231.241.484.475.74.679" fill="#8C501C"/><path d="M51.623 200.781l-.01.009c.02.002.049.006.07-.001l-.06-.008zm4.39-.66c-.04-.015-.076-.04-.115-.055-.065-.039-.132-.068-.198-.106l-.31-.171c-.038-.025-.076-.04-.104-.063l-.106.047a5.862 5.862 0 01-.455.163l-.01-.001c-.23.072-.462.143-.7.193-.082.01-.155.031-.237.041-.176.038-.342.077-.525.084a7.06 7.06 0 01-1.027.071c-.1-.003-.192.005-.292.003l-.34-.024-.061.003c-.559.11-1.12.169-1.687.188l-.03-.004a10.23 10.23 0 01-3.455-.501c.134.219.29.42.455.623.117.035.235.06.352.085.166.041.344.074.511.106.088.021.166.041.247.041.366.057.735.084 1.115.112.85.048 1.705-.015 2.552-.169l.02.003c.02.002.049.006.07-.001.03.003.06.007.08 0 .2.015.412.012.615.008.202-.005.404-.009.609-.034a8.52 8.52 0 002.262-.508c.047.026.094.053.15.09a.827.827 0 01-.13.064 5.7 5.7 0 01-.56.281.365.365 0 01-.095.039 4.42 4.42 0 01-.585.238c-.18.067-.36.135-.547.182a.464.464 0 01-.106.037 7.916 7.916 0 01-.78.193c-.021.007-.032.016-.052.013a3.861 3.861 0 01-.597.096c-.104.027-.196.035-.3.052a5.741 5.741 0 01-.62.042 1.08 1.08 0 01-.193.016 7.49 7.49 0 01-.846-.007 8.518 8.518 0 01-.878-.072 15.67 15.67 0 01-.712-.111c-.117-.025-.235-.05-.352-.085-.206-.046-.421-.094-.624-.16a.867.867 0 00-.157-.04c.232.241.484.475.74.679l.01.011.009.001a.57.57 0 00.128.027c.294.067.6.116.897.154.387.05.767.078 1.15.076.23.019.451.018.675.006.88-.029 1.745-.171 2.583-.417.178-.048.355-.096.526-.175a10.633 10.633 0 001.936-.872c.044-.025.076-.041.11-.067l.382-.233-.399-.192z" fill="#8C501C"/><path d="M53.433 200.427l-1.81.354-.01.009-.02-.003c-.847.154-1.701.217-2.552.169a8.185 8.185 0 01-.858-.069 2.397 2.397 0 01-.257-.043c-.08 0-.159-.02-.247-.041-.167-.032-.344-.065-.51-.106a1.943 1.943 0 01-.344-.074l-.009-.011a5.59 5.59 0 01-.454-.623 10.2 10.2 0 003.454.501c-.029-.014-.058-.017-.087-.031a8.937 8.937 0 01-2.45-1.109 7.472 7.472 0 01-.526-.379 3.918 3.918 0 01-.438-.358c-.154-.131-.307-.282-.459-.432-.073-.06-.135-.128-.197-.196-.008-.012-.018-.013-.017-.023a7.882 7.882 0 01-.38-.421c-.007-.021-.026-.034-.034-.045-.01-.001-.009-.011-.009-.011l.001-.01a9.207 9.207 0 01-.214-1.086l.104.134c.042.066.084.132.127.188.033.055.068.099.111.155.12.167.25.335.381.492a11.584 11.584 0 00.523.561c.226.21.46.422.709.614.127.107.266.206.406.294.064.049.128.097.204.137.186.125.391.252.6.359.16.091.32.172.483.243.123.056.247.112.382.159.173.073.336.134.511.187.252.082.504.155.76.207.254.063.52.107.788.141.169.022.329.032.499.043l.34.024 1.499.1zM59.425 201.029c-.035.036-.06.073-.094.099 0 .01-.012.019-.012.019-.035.036-.07.072-.103.098-.058.053-.106.117-.163.17 0 0-.01-.001-.011.009-.046.045-.091.079-.137.124a10.577 10.577 0 01-1.468-.349l.139-.456c.078.02.155.05.233.07l.13-.316c.478.212.979.397 1.486.532zM56.338 200.182a12.13 12.13 0 01-.473-.322l.281-.388c.149.1.296.209.446.299l-.254.411zM55.796 200.557a8.309 8.309 0 01-.66-.357l.244-.412c.207.117.414.234.633.333l-.217.436z" fill="#8C501C"/><path d="M59.66 200.767a2.852 2.852 0 01-.235.262c-.035.036-.06.073-.093.099-.002.01-.013.019-.013.019-.035.036-.07.072-.103.098-.057.053-.105.117-.163.17-.447-.127-.88-.293-1.3-.478l.187-.44c.153.07.315.141.469.201-.075-.05-.16-.091-.234-.141l.244-.412c.394.232.81.446 1.241.622z" fill="#8C501C"/><path d="M58.165 200.556c-.431-.256-.839-.54-1.233-.852l.3-.376a9.49 9.49 0 001.177.816l-.244.412zM57.744 200.936a10.593 10.593 0 01-1.406-.754l.253-.401c.428.276.882.516 1.349.726l-.196.429zM59.995 200.356a3.58 3.58 0 01-.31.374l-.001.01c-.011.008-.012.018-.024.027a3.007 3.007 0 01-.235.262c-.034.036-.06.073-.093.099-.001.01-.012.019-.012.019-.4-.182-.78-.372-1.145-.59l.244-.412c.375.219.763.42 1.165.592l.044-.035a11.099 11.099 0 01-.944-.654l.29-.377c.321.243.664.478 1.021.685zM57.604 199.104c-.08-.081-.151-.161-.231-.242l.352-.317c.071.079.143.149.213.228l-.334.331z" fill="#8C501C"/><path d="M56.942 199.705c-.108-.095-.229-.181-.336-.285l.318-.363c.1.094.21.178.32.263l-.302.385zM59.251 199.394a9.713 9.713 0 01-.941-1.078l.379-.284a9.7 9.7 0 00.887 1.03l-.325.332zM58.673 200.056a9.882 9.882 0 01-1.079-.954l.346-.339c.312.322.656.628 1.024.907l-.291.386zM60.61 199.406l.002-.01a7.452 7.452 0 01-.529-.602l.002-.01c-.036-.034-.071-.079-.107-.114l-.104-.134.38-.285c.034.045.069.09.104.125 0 0 0 .01.01.011.145.2.313.383.483.556" fill="#8C501C"/><path d="M60.13 200.171l-.01-.011a8.538 8.538 0 01-.87-.766l.337-.34c.152.15.314.302.477.444.11.094.218.189.328.273M59.875 198.536a9.34 9.34 0 01-.797-1.261l.422-.228c.219.421.47.816.765 1.196l-.39.293z" fill="#8C501C"/><path d="M59.251 199.394a9.713 9.713 0 01-.941-1.078l.379-.284a9.7 9.7 0 00.887 1.03l-.325.332zM58.309 198.316a2.756 2.756 0 01-.146-.2l.387-.273c.042.066.094.133.138.189l-.38.284zM59.066 197.274l.217-.114-.224.093-.08-.162.43-.207.081.151-.424.239z" fill="#8C501C"/><path d="M60.93 191.916l-.021.008.028.013s-.008-.011-.007-.021zm0 0l-.021.008.028.013s-.008-.011-.007-.021zm0 0l-.021.008.028.013s-.008-.011-.007-.021zm0 0l-.021.008.028.013s-.008-.011-.007-.021zm.733 3.743c.001-.171.004-.352-.004-.525l-.007-.182a6.58 6.58 0 00-.072-.785 9.365 9.365 0 01-.469 1.704c-.048.145-.106.279-.164.422a9.057 9.057 0 01-.584 1.176c-.08.151-.18.3-.269.45-.012.018-.023.027-.036.046a3.626 3.626 0 01-.262-.397c-.084-.131-.158-.262-.232-.392l.001-.01.01.001c.051-.084.112-.167.153-.253.061-.083.114-.177.166-.271.06-.083.113-.177.156-.272.052-.094.104-.189.145-.274a9.1 9.1 0 00.61-1.465c.048-.135.097-.28.134-.416.049-.145.089-.301.129-.457.081-.323.143-.648.186-.985l-.089-.253a2.81 2.81 0 00-.098-.255v-.01c-.005-.031-.021-.063-.036-.105l.001-.01a3.027 3.027 0 01-.086-.192l-.009-.012s-.008-.011-.007-.021l.001-.01c-.018-.012-.027-.023-.025-.043l.002-.01-.01-.001c-.009-.012-.008-.021-.016-.033l-.01-.001c-.004.03 0 .071-.003.101l-.005.039c-.012.17-.022.33-.043.499a2.602 2.602 0 01-.046.276 5.35 5.35 0 01-.127.68 4.282 4.282 0 01-.086.362 3.061 3.061 0 01-.113.409c-.035.116-.07.233-.115.348a3.783 3.783 0 01-.11.318c-.065.184-.148.365-.222.547a9.93 9.93 0 01-.685 1.263 3.46 3.46 0 01-.228.365l-.012.018-.072.092.065.119.007.021c.056.118.123.227.19.337.057.098.114.206.182.305.1.164.212.32.323.475.033.054.068.099.102.144l.104.134.094.133.011-.009.002-.009.173-.251c.037-.055.073-.101.1-.158.098-.129.185-.259.262-.39.116-.197.23-.384.336-.582.105-.189.2-.388.287-.589.071-.162.14-.315.202-.478.042-.096.085-.191.107-.289.041-.085.073-.172.104-.259l.002-.02.003-.02c.004-.029-.002-.06.002-.09zm-.733-3.743l-.021.008.028.013s-.008-.011-.007-.021zm0 0l-.021.008.028.013s-.008-.011-.007-.021z" fill="#8C501C"/><path d="M60.946 191.949l-.038-.015-.039-.015c.005-.04-.001-.071.004-.111.01.002.009.012.009.012.008.011.007.021.016.032 0 0-.002.01.008.011-.002.02.007.031.025.043l-.001.01c-.001.01.007.021.007.021l.009.012z" fill="#8C501C"/><path d="M60.938 191.937l-.029-.013-.04-.005-.23-.09c.042-.096.074-.182.106-.279.05.087.099.174.137.269.009.012.008.021.016.033l.01.001-.001.01c-.003.02.006.031.025.043l-.002.01c0 .01.008.021.008.021z" fill="#8C501C"/><path d="M60.946 191.949l-.038-.015-.269-.105c.042-.096.074-.182.106-.279.05.087.099.174.137.269.009.012.008.021.016.033 0 0-.001.01.009.011-.003.02.006.031.025.043l-.002.01c0 .01.008.021.008.021l.008.012z" fill="#8C501C"/><path d="M61.068 192.256l-.158.605-.005-.434.002-.494.002-.009-.01-.002.007-.059c-.002.02.006.031.025.043l-.001.01c-.002.01.017.023.017.023l-.001.009c.03.075.054.128.086.193l-.001.01c.015.042.03.074.037.105zM51.553 200.782l.03-.48a8.402 8.402 0 003.123-.368c-.112-.075-.223-.149-.325-.223l.271-.389c.232.161.474.323.727.466l.431.256-.466.183a8.792 8.792 0 01-3.791.555z" fill="#8C501C"/><path d="M45.002 196.348c.065.12.15.241.236.363.033.055.068.1.111.155.12.167.25.335.381.493a.24.24 0 01.053.057c.15.17.31.342.47.503.226.21.46.422.708.615.128.107.267.205.407.293.064.049.128.097.204.137.186.125.391.252.6.359.16.091.32.172.483.243.123.056.247.112.382.16.173.072.336.133.511.186.252.082.504.155.76.207.254.063.52.107.788.141.169.022.329.032.499.044l-.031.48c-.18-.013-.349-.035-.527-.058a9.415 9.415 0 01-1.19-.232c-.039-.015-.078-.02-.117-.035a8.933 8.933 0 01-2.45-1.108 7.766 7.766 0 01-.526-.38 3.91 3.91 0 01-.438-.358 8.139 8.139 0 01-.459-.432 1.896 1.896 0 01-.197-.196c-.008-.011-.018-.013-.017-.023a7.471 7.471 0 01-.38-.421c-.007-.021-.026-.034-.034-.045-.01-.001-.009-.011-.009-.011l.001-.01a9.227 9.227 0 01-.214-1.086l.001-.01M53.888 199.235a.352.352 0 01-.102.007c-.792.121-1.59.13-2.383.029a6.59 6.59 0 01-.621-.109 2.38 2.38 0 01-.275-.056 6.76 6.76 0 01-.654-.174 7.047 7.047 0 01-.607-.218l-.02-.003c-.2-.086-.401-.172-.6-.268a8.923 8.923 0 01-3.316-2.781 17.16 17.16 0 01-.34-.497.13.13 0 01-.024-.044l.001-.009c.005-.272.029-.541.064-.819l.003-.02c.05.087.097.184.147.271 0 0 .008.011.007.021.116.196.233.383.36.57.127.198.274.388.422.568.296.37.615.714.97 1.021.19.165.38.331.583.477.138.109.286.208.436.298.242.162.486.304.741.437.19.095.38.19.581.266a.825.825 0 00.144.058c.182.074.374.149.569.204.271.085.544.16.829.216a7.2 7.2 0 00.66.115c.19.024.379.038.569.052.23.009.461.019.694.008.172.002.344-.007.508-.026.02.002.04-.005.06-.002.174-.019.348-.037.523-.065l.039.247.032.226zM55.147 200.202a12.593 12.593 0 01-.765-.491l.272-.389c.231.161.473.323.727.466l-.234.414zM55.864 199.87a8.253 8.253 0 01-.75-.6l.318-.363c.226.201.465.382.724.567l-.292.396z" fill="#8C501C"/><path d="M54.382 199.711a8.238 8.238 0 01-.688-.531l.308-.364c.21.178.43.347.652.496l-.272.399zM55.102 199.269a5.611 5.611 0 01-.361-.329l.336-.34c.107.105.225.21.343.316l-.318.353zM55.864 199.87a8.253 8.253 0 01-.75-.6l.318-.363c.226.201.465.382.724.567l-.292.396zM57.372 198.862a8.394 8.394 0 01-.654-.799l.389-.283c.19.256.398.515.62.754l-.355.328zM56.605 199.43a13.701 13.701 0 01-.859-.856l.354-.328c.222.24.58.598.823.821l-.318.363zM58.154 198.115a7.216 7.216 0 01-.47-.745l.414-.24c.14.24.291.481.454.703l-.398.282zM58.978 197.101a8.279 8.279 0 01-.306-.684l.446-.175c.082.222.176.436.291.642l-.43.217z" fill="#8C501C"/><path d="M58.978 197.101a8.279 8.279 0 01-.306-.684l.446-.175c.082.222.176.436.291.642l-.43.217zM45.313 192.88l.009.011c-.078.212-.124.417-.182.632v.01l-.002.01c.119.176.229.341.348.508.18.255.381.492.593.731.15.17.3.33.472.483 0 .01.01.011.018.023.19.175.378.35.59.508.174.143.357.288.552.413.25.174.513.328.777.472.217.119.445.229.674.328.067.029.144.059.22.089.124.056.26.103.395.151.105.044.221.079.338.114.155.05.32.091.478.121.097.033.185.054.284.066.234.061.481.102.73.134.208.026.437.045.648.052l.05.006c.294.381.63.746.99 1.084-.02-.002-.04.005-.06.003a4.23 4.23 0 01-.508.026c-.233.01-.464.001-.694-.008-.19-.014-.38-.028-.568-.052a7.197 7.197 0 01-.661-.115 7.78 7.78 0 01-.83-.216 5.51 5.51 0 01-.568-.204c-.049-.016-.097-.032-.144-.058a6.316 6.316 0 01-.581-.266 7.725 7.725 0 01-.74-.437 4.091 4.091 0 01-.437-.298 8.684 8.684 0 01-.584-.477 7.774 7.774 0 01-.969-1.021 7.811 7.811 0 01-.421-.568 11.041 11.041 0 01-.361-.57c.001-.01-.008-.021-.008-.021-.048-.097-.098-.174-.147-.271l-.002.02c-.035.278-.06.547-.064.818l-.001.01a.138.138 0 00.024.044c.11.165.22.33.34.497a8.933 8.933 0 003.916 3.049l.02.003c.2.086.404.152.607.218.214.068.428.125.654.174.088.022.176.043.275.055.206.047.413.083.62.11a8.497 8.497 0 002.374-.03l.01.001c.03.004.07-.001.102-.007l.523-.075-.4-.343a9.697 9.697 0 01-1.408-1.45.496.496 0 01-.06-.088l-.12-.005c-.17-.012-.34-.023-.508-.045-.08 0-.16-.01-.25-.021a6.454 6.454 0 01-.856-.16 4.842 4.842 0 01-.652-.184.58.58 0 01-.126-.036 6.87 6.87 0 01-.472-.171c-.096-.043-.192-.075-.287-.127-.192-.075-.361-.168-.541-.261-.01-.001-.019-.012-.037-.025a4.052 4.052 0 01-.534-.32.501.501 0 01-.14-.088 7.98 7.98 0 01-1.65-1.451 8.733 8.733 0 01-.47-.584c-.144-.21-.289-.42-.414-.627a.747.747 0 01-.091-.153.285.285 0 01-.04-.076c-.008-.021-.026-.043-.032-.074M55.747 198.575c-.344-.387-.655-.8-.933-1.228l.407-.261c.26.406.553.796.889 1.172l-.363.317zM54.752 198.942a8.847 8.847 0 01-1.169-1.349l.39-.283c.324.455.703.886 1.116 1.281l-.337.351zM56.72 198.063l-.053-.067.4-.282.032.055-.38.294zM57.521 197.067c-.138-.26-.255-.527-.372-.794l.445-.175c.099.255.217.512.347.76l-.42.209z" fill="#8C501C"/><path d="M56.667 197.996a8.65 8.65 0 01-.677-1.094l.422-.229c.187.357.404.707.645 1.03l-.39.293zM57.684 197.37a5.41 5.41 0 01-.163-.303l.422-.229c.049.097.107.195.155.292l-.414.24zM58.673 196.417c-.093-.223-.164-.454-.235-.685l.461-.143c.063.22.137.431.22.643l-.446.185z" fill="#8C501C"/><path d="M57.521 197.067c-.138-.26-.255-.527-.372-.794l.445-.175c.099.255.217.512.347.76l-.42.209zM58.437 195.732a6.292 6.292 0 01-.11-.397l.467-.112.103.376-.46.133zM61.032 192.141l-.002.01a8.982 8.982 0 01-1.578 2.571l-.362-.318a8.252 8.252 0 001.548-2.575l.269.105.03.003.008.012c.03.074.054.127.087.192z" fill="#8C501C"/><path d="M58.673 196.417c-.093-.223-.164-.454-.235-.685l.461-.143c.063.22.137.431.22.643l-.446.185z" fill="#8C501C"/><path d="M58.438 195.732a6.227 6.227 0 01-.111-.397l-.033-.136.103-.097c.24-.222.471-.455.684-.7l.362.319c-.198.216-.398.433-.615.637.02.083.04.156.07.241l-.46.133zM52.604 197.368c-.026-.034-.044-.056-.06-.089a8.85 8.85 0 01-1.167-2.074l-.129-.016a3.096 3.096 0 01-.413-.083c-.01-.001-.03-.004-.038-.015a3.66 3.66 0 01-.547-.14 5.81 5.81 0 01-.398-.122c-.096-.032-.202-.076-.298-.108a4.162 4.162 0 01-.449-.199 4.264 4.264 0 01-.54-.27c-.142-.069-.272-.156-.402-.243a2.475 2.475 0 01-.317-.202c-.056-.037-.122-.076-.176-.123-.12-.086-.23-.17-.34-.265a4.778 4.778 0 01-.561-.495 5.911 5.911 0 01-.437-.449 3.818 3.818 0 01-.368-.44c-.079-.09-.148-.18-.206-.278-.082.171-.155.343-.227.516l.009.011c.138.179.278.348.429.508.15.17.3.331.462.482.153.151.308.281.47.423a9.877 9.877 0 001.118.798c.225.139.47.272.708.382.133.068.265.135.41.194l.114.045c.193.075.395.151.588.216a7.066 7.066 0 001.201.304c.242.555.537 1.087.876 1.593l.008.012-.258-.033a6.297 6.297 0 01-.856-.16 4.842 4.842 0 01-.652-.184.58.58 0 01-.127-.036c-.165-.051-.318-.111-.472-.171-.095-.042-.192-.075-.286-.127-.192-.075-.362-.167-.542-.261-.01-.001-.018-.012-.037-.025a4.051 4.051 0 01-.534-.32.501.501 0 01-.14-.088 8.001 8.001 0 01-1.65-1.45 4.47 4.47 0 01-.47-.584 5.374 5.374 0 01-.413-.628.751.751 0 01-.092-.153.296.296 0 01-.04-.075c-.008-.022-.026-.034-.034-.055-.077.212-.124.418-.181.632l-.002.01v.01c.118.176.228.342.348.508.179.255.38.492.592.731.15.17.3.33.473.483-.002.01.008.012.017.023.19.175.379.351.59.509.174.143.357.287.553.413a8.874 8.874 0 001.45.799c.067.029.144.059.22.089.125.056.26.104.395.151.105.044.222.079.338.114.155.05.321.091.479.121.096.033.184.054.284.067a7.01 7.01 0 001.378.185l.049.007c.04.005.07-.001.11.004l.511.024-.321-.403zm-7.083-5.097l.01.002-.01-.002zM54.813 197.347a9.725 9.725 0 01-.902-1.859l.453-.154a8.33 8.33 0 00.855 1.752l-.406.261zM53.574 197.592a9.272 9.272 0 01-1.08-1.972l.446-.176c.26.649.604 1.277 1.023 1.865l-.39.283zM57.15 196.263a8.604 8.604 0 01-.508-1.798l.474-.081a7.96 7.96 0 00.48 1.694l-.447.185zM55.989 196.902a8.225 8.225 0 01-.709-1.794l.46-.123c.157.584.387 1.148.67 1.698l-.421.219zM61.032 192.141l-.002.01c-.076.202-.16.393-.255.582a9.286 9.286 0 01-1.322 1.989l-.363-.318a8.252 8.252 0 001.548-2.575l.23.09.04.005.029.013.008.012c.03.074.054.127.087.192z" fill="#8C501C"/><path d="M58.428 195.721l-.092-.385a8.056 8.056 0 01-.25-1.917l-.006-.112.08-.07c.361-.307.698-.657.997-1.022l.374.309a10.14 10.14 0 01-.965 1.007c.015.435.061.864.138 1.287l.384-.404.363.318a8.109 8.109 0 01-.729.734l-.294.255zM59.532 192.515l-.374-.31c.18-.219.35-.45.51-.681l.4.262a8.4 8.4 0 01-.536.729zM60.19 190.612c-.047.125-.111.238-.176.351l.423.235c.015-.038.04-.075.055-.114a12.758 12.758 0 00-.25-.405l-.01-.001-.042-.066z" fill="#8C501C"/><path d="M60.068 191.796l-.4-.262a8.05 8.05 0 00.344-.561l.414.234a8.563 8.563 0 01-.358.589zM51.432 195.333c-.015-.042-.03-.084-.054-.128a8.175 8.175 0 01-.425-1.566l-.031-.155-.146-.039c-.118-.025-.235-.06-.351-.095-.02-.003-.029-.014-.048-.017-.127-.036-.253-.072-.369-.117a8.505 8.505 0 01-1.735-.856c-.149-.1-.298-.199-.445-.309a3.323 3.323 0 01-.376-.29 8.504 8.504 0 01-.837-.792 3.443 3.443 0 01-.246-.283 4.623 4.623 0 00-.266.429c.175.204.362.399.56.586a10.456 10.456 0 00.874.736c.157.111.315.222.473.323a8.25 8.25 0 001.007.562c.171.082.352.165.535.229.306.13.626.231.957.324.078.413.187.83.327 1.231-.01-.001-.03-.004-.038-.015a3.665 3.665 0 01-.547-.14 5.824 5.824 0 01-.398-.122c-.096-.032-.202-.076-.299-.108a6.307 6.307 0 01-.448-.199 7.326 7.326 0 01-.54-.27 3.375 3.375 0 01-.403-.243c-.102-.063-.215-.128-.317-.202-.055-.037-.121-.076-.176-.123-.12-.086-.23-.17-.339-.265a4.785 4.785 0 01-.562-.495 5.913 5.913 0 01-.436-.449 3.827 3.827 0 01-.368-.44c-.079-.09-.148-.18-.206-.278-.083.171-.155.343-.227.515l.008.012c.139.179.279.348.43.508.15.17.3.331.462.482.152.151.307.281.47.423a9.897 9.897 0 001.118.798c.225.139.47.272.708.382a5.28 5.28 0 00.524.239c.192.075.394.151.588.216a7.057 7.057 0 001.2.304c.04.015.089.021.128.026l.426.065-.162-.394zM53.912 195.488a8.318 8.318 0 01-.386-1.562l.473-.07c.069.492.196.992.356 1.476l-.443.156zM52.493 195.629a8.55 8.55 0 01-.474-1.663l.474-.08a8.25 8.25 0 00.446 1.568l-.446.175zM56.644 194.465a8.495 8.495 0 01-.112-1.335l.483.001c-.003.423.034.841.103 1.253l-.474.081zM55.282 195.108a8.395 8.395 0 01-.263-1.496l.479-.039c.04.469.121.943.243 1.412l-.46.123zM58.082 193.933l-.005-.515a6.833 6.833 0 01.03-.793l.48.041c-.008.06-.007.13-.015.19.208-.206.407-.422.586-.641l.374.31c-.322.392-.67.751-1.056 1.085l-.394.323z" fill="#8C501C"/><path d="M58.106 192.625l.01-.079.48.041-.01.079-.48-.041z" fill="#8C501C"/><path d="M58.106 192.625l.01-.079.48.041-.01.079-.48-.041zM56.53 193.13l.242.001-.242-.001.008-.14.475-.01.001.151h-.242l-.242-.001zM60.492 191.084a.547.547 0 01-.055.114l-.424-.235c.065-.113.12-.227.184-.34.008.022.026.034.034.055l.01.001c.084.132.168.264.25.405z" fill="#8C501C"/><path d="M58.118 192.546c.011-.09.013-.18.024-.269a6.76 6.76 0 01.067-.445l.011-.09.067-.052c.42-.36.812-.753 1.16-1.183l.374.3c-.347.43-.731.834-1.151 1.204-.014.109-.038.217-.053.336l-.033.258-.466-.059zM50.953 193.639a8.41 8.41 0 01-.113-1.255l-.002-.141-.123-.066a9.249 9.249 0 01-1.568-1.067 4.338 4.338 0 01-.315-.292 5.344 5.344 0 01-.34-.336 4.907 4.907 0 01-.317-.363 3.473 3.473 0 01-.295-.37 5.237 5.237 0 01-.274-.388c-.017-.022-.033-.054-.05-.077-.126.115-.231.233-.347.349.152.231.306.443.482.646.104.135.209.259.324.384a8.528 8.528 0 001.913 1.605c.14.089.29.178.44.258v.01c.003.283.02.547.057.814-.02-.003-.029-.014-.048-.017-.127-.036-.253-.072-.369-.117a8.505 8.505 0 01-1.267-.575c-.161-.081-.31-.181-.468-.281-.15-.09-.299-.19-.445-.309a3.323 3.323 0 01-.376-.29 8.504 8.504 0 01-.837-.792 3.425 3.425 0 01-.246-.283 4.623 4.623 0 00-.266.429c.175.204.362.399.56.586a10.454 10.454 0 00.874.736c.157.111.315.222.473.323.326.213.655.396 1.007.561.171.083.352.166.535.23.306.13.626.231.957.324.048.016.098.022.146.038l.352.086-.054-.36zM53.536 193.928a5.059 5.059 0 01-.058-.572l.082-.01.034-.268.348.034.015.204c.017.184.035.357.063.532l-.484.08zM52.029 193.967a9.12 9.12 0 01-.115-.921l.478-.03c.023.295.056.591.1.869l-.463.082zM55.018 193.612c-.01-.072-.01-.152-.012-.223l.478-.03c0 .071.012.143.013.214l-.479.039z" fill="#8C501C"/><path d="M50.84 192.384a7.227 7.227 0 01.17-1.642c.006-.049.02-.088.027-.137l-.11-.095a3.4 3.4 0 01-.296-.279l.001-.01c-.009-.012-.018-.013-.028-.014-.01-.001-.019-.013-.028-.024-.018-.012-.026-.033-.044-.046-.037-.025-.062-.068-.098-.103 0 0-.01-.001-.009-.011a1.26 1.26 0 01-.195-.206c-.01-.002-.019-.013-.027-.024a5.04 5.04 0 01-.42-.507.304.304 0 01-.069-.09 4.751 4.751 0 01-.356-.529c-.007-.021-.026-.033-.033-.055-.05-.077-.101-.154-.142-.229-.04-.076-.092-.153-.122-.228-.14.073-.272.157-.405.251l.022.064.074.13c.032.064.074.13.116.196.14.24.311.483.484.707.171.244.346.457.541.664.168.182.348.357.528.521a.259.259 0 00.09.092c-.032.167-.063.334-.086.513-.03.228-.048.458-.058.688a9.25 9.25 0 01-1.22-.871 4.337 4.337 0 01-.315-.292 5.344 5.344 0 01-.34-.336c-.106-.114-.212-.239-.317-.363a3.46 3.46 0 01-.295-.37 5.237 5.237 0 01-.274-.388c-.017-.022-.033-.054-.05-.077-.126.115-.231.233-.347.349.152.231.306.442.482.646.104.134.21.259.324.384a8.557 8.557 0 001.913 1.605c.14.088.29.178.44.258v.01c.036.025.085.041.122.066l.35.185v-.403zM53.522 193.563l.027-.208-.082.009a8.218 8.218 0 01-.015-.989l.481.021c-.018.3-.008.614.013.929l.024.285-.448-.047zM51.914 193.046a8.825 8.825 0 01.032-1.357l.477.051c-.044.427-.049.86-.021 1.277l-.488.029zM55.005 193.389a6.792 6.792 0 01-.01-.636l.005-.272.425.064-.027.219h.08c-.005.201 0 .403.014.606l-.487.019zM56.54 192.99v-.162l.481.022-.009.15-.473-.01z" fill="#8C501C"/><path d="M56.54 192.99v-.162l.481.022-.009.15-.473-.01zM51.378 189.036a2.023 2.023 0 01-.236-.212.206.206 0 01-.054-.047c-.056-.038-.109-.095-.154-.141-.055-.037-.108-.094-.153-.14-.125-.127-.25-.254-.364-.389a4.085 4.085 0 01-.376-.451c-.149.061-.299.133-.45.204.285.379.593.731.936 1.047.134.138.269.266.415.385-.12.308-.229.606-.31.929l-.003.02a1.005 1.005 0 00-.026-.034c-.01-.001-.018-.012-.027-.024-.019-.012-.026-.033-.044-.046-.038-.025-.062-.068-.098-.103 0 0-.01-.001-.009-.011a1.256 1.256 0 01-.195-.206c-.01-.002-.019-.013-.028-.024-.15-.16-.29-.329-.419-.507a.302.302 0 01-.07-.09 6.17 6.17 0 01-.355-.529c-.007-.021-.026-.033-.033-.054-.051-.077-.102-.154-.143-.23-.04-.076-.09-.153-.122-.228-.14.073-.272.157-.405.251l-.01-.001c.008.021.025.044.032.065l.075.13c.032.065.074.13.116.196.14.24.311.484.484.707.17.244.345.458.54.664.169.183.348.357.53.521a.259.259 0 00.088.092c.026.033.063.058.1.093l.307.271.092-.401c.006-.05.021-.088.027-.138.097-.441.233-.878.417-1.288l.062-.173-.137-.108zM53.452 192.375a8.012 8.012 0 01.26-1.721l.469.12a8.21 8.21 0 00-.185.974 7.07 7.07 0 00-.053.649l-.49-.022zM51.949 191.679l.023-.189c.064-.496.176-.985.329-1.47l.455.149a7.476 7.476 0 00-.307 1.382l-.023.179-.477-.051zM54.988 192.742c.007-.292.024-.582.059-.86.037-.287.094-.583.16-.866l.47.11a7.57 7.57 0 00-.144.818 7.655 7.655 0 00-.064.819l-.481-.021z" fill="#8C501C"/><path d="M53.452 192.375a8.012 8.012 0 01.26-1.721l.469.12a8.21 8.21 0 00-.185.974 7.07 7.07 0 00-.053.649l-.49-.022zM56.54 192.828c.01-.25.023-.501.054-.749.042-.327.105-.662.186-.984l.469.12c-.08.303-.14.618-.179.925a8.28 8.28 0 00-.06.708l-.47-.02zM54.987 192.742c.007-.292.024-.582.06-.86.036-.287.094-.583.16-.866l.048-.216.366.057-.032.248.078.02a7.57 7.57 0 00-.144.818 7.657 7.657 0 00-.064.818l-.472-.019zM58.095 192.492l.124-.659c.062-.325.143-.647.234-.968l.456.139-.05.164c.208-.215.407-.432.587-.661l.376.3c-.361.458-.778.879-1.219 1.256l-.508.429zM52.266 187.052c-.084.1-.167.2-.24.302-.351.459-.645.946-.883 1.47l-.002.01c-.018-.012-.035-.035-.053-.057-.056-.038-.109-.095-.153-.141-.056-.037-.11-.094-.154-.14a6.93 6.93 0 01-.363-.389 4.005 4.005 0 01-.376-.452c-.15.062-.3.134-.45.205.285.379.593.731.935 1.047.18.174.36.338.552.494l.247.202.127-.286a7.97 7.97 0 01.96-1.682c.17-.22.339-.441.535-.637-.233.01-.458.032-.682.054zM54.589 187.096a7.828 7.828 0 00-1.834 3.073l-.455-.149a8.566 8.566 0 011.703-2.999c.12.005.24.021.359.036.079.01.148.019.227.039z" fill="#8C501C"/><path d="M55.501 187.283c.166.041.331.092.485.152-.153.172-.296.346-.44.519-.12.156-.23.313-.323.483-.06.083-.11.157-.162.241-.114.187-.219.376-.314.565 0 .01-.013.029-.015.039-.12.236-.22.465-.311.706l-.003.02c-.092.25-.175.502-.239.766l-.468-.121c.037-.136.076-.282.124-.417.085-.272.19-.541.304-.808.058-.134.115-.268.181-.391.136-.275.29-.537.455-.798a3.49 3.49 0 01.211-.316 1.86 1.86 0 01.183-.249c.099-.139.206-.266.332-.391z" fill="#8C501C"/><path d="M55.501 187.283c.166.041.331.093.485.152a20.18 20.18 0 00-.44.519c-.11.157-.23.313-.323.483-.06.083-.11.157-.162.242-.114.187-.219.375-.314.564 0 .01-.013.029-.015.039-.11.228-.22.466-.311.706l-.003.02c-.092.25-.175.502-.239.766l-.468-.12c.037-.137.076-.283.124-.418.085-.271.19-.54.304-.808.058-.134.115-.268.181-.39.136-.275.29-.538.455-.799.064-.113.138-.214.211-.316a1.86 1.86 0 01.183-.249c.097-.129.206-.266.312-.394M56.801 187.761c.152.07.295.139.436.217-.011.009-.012.019-.025.037a8.366 8.366 0 00-.854 1.323 7.678 7.678 0 00-.672 1.789l-.078-.02-.391-.09.057-.214c.042-.167.093-.331.143-.486.096-.28.2-.549.314-.807.098-.209.205-.418.32-.614.12-.227.249-.443.395-.646.112-.167.224-.334.355-.489z" fill="#8C501C"/><path d="M57.213 188.015a8.372 8.372 0 00-.854 1.323c-.091.159-.162.322-.233.484-.185.42-.331.855-.439 1.305l-.078-.02-.028.218-.426-.054.062-.254.058-.215.01.002a3.93 3.93 0 01.132-.487c.096-.281.201-.549.315-.807.097-.21.204-.418.32-.615.12-.226.248-.442.395-.645.112-.167.224-.334.354-.489.153.07.295.138.437.217l.01.001c-.012.009-.023.017-.035.036zM57.996 188.437c.14.089.268.186.387.282-.037.055-.073.101-.1.158-.075.112-.15.223-.216.346a7.425 7.425 0 00-.809 1.993l-.468-.12c.045-.196.11-.389.175-.582.117-.368.263-.723.438-1.063.082-.171.174-.341.276-.51.065-.112.13-.225.205-.336.037-.056.074-.112.102-.169" fill="#8C501C"/><path d="M57.996 188.438c.14.088.268.185.387.281-.037.056-.073.101-.1.158-.075.112-.15.223-.216.346a7.432 7.432 0 00-.809 1.994l-.468-.121c.045-.195.11-.389.175-.582.117-.368.263-.723.438-1.063.082-.171.174-.341.276-.509.065-.113.13-.226.205-.337.037-.056.074-.112.102-.169l.01.002zM59.11 189.336a9.7 9.7 0 01.348.357.614.614 0 00-.082.171c-.178.37-.337.743-.458 1.141l-.466-.14c.151-.475.33-.926.566-1.36.028-.057.065-.112.093-.169z" fill="#8C501C"/><path d="M59.467 189.704a.876.876 0 00-.091.16c-.178.37-.337.743-.458 1.141l-.466-.14c.151-.475.33-.926.566-1.36.028-.057.065-.112.093-.169a9.7 9.7 0 01.347.357M60.086 190.458v.01c-.012.009-.024.027-.036.036v.01a9.675 9.675 0 01-.219.285l-.376-.29c.108-.138.218-.285.317-.434.002-.01.011-.008.011-.008l.269.346c.008.011.016.033.034.045z" fill="#8C501C"/><path d="M39.158 222.821s-4.48-4.402-4.96-5.37c-.482-.969 5.91-2.876 5.91-2.876l-.95 8.246zM74.548 206.161s-.117-3.039-4.759-6.957c-4.642-3.918-2.094 4.572-2.094 4.572l6.853 2.385z" fill="#7C4C2A"/><path d="M39.368 213.271c-2.61 2.288-2.918 6.281-.642 8.991 2.276 2.709 6.355 3.128 9.164.865 11.049-9.177 20.055-9.44 20.154-9.428 3.621.059 6.506-2.8 6.65-6.309.06-3.622-2.8-6.507-6.309-6.652-1.401-.077-13.917.041-28.707 12.471-.198-.025-.211.074-.31.062z" fill="#7C4C2A"/><path d="M64.361 203.048s-11.063-.2-24.387 11.006" stroke="#B66A33" stroke-width="12.973" stroke-miterlimit="10" stroke-linecap="round"/><path d="M34.977 218.457c-2.474-2.734-2.327-7.05.507-9.512 2.735-2.474 7.05-2.327 9.512.507 2.474 2.734 2.328 7.051-.506 9.512-2.834 2.462-6.94 2.241-9.513-.507z" fill="#FFBD8A"/><path d="M36.68 216.961c-1.682-1.828-1.514-4.73.301-6.313 1.827-1.683 4.73-1.514 6.313.3 1.682 1.828 1.514 4.73-.3 6.313-1.828 1.683-4.63 1.527-6.313-.3z" fill="#8C501C"/><path d="M163.301 120.5c4.142 0 7.5-1.209 7.5-2.7s-3.358-2.7-7.5-2.7c-4.142 0-7.5 1.209-7.5 2.7s3.358 2.7 7.5 2.7z" fill="#B9BDC3"/><path d="M166.801 51.1h-7.1v65.6h7.1V51.1z" fill="#B9BDC3"/><path opacity=".2" d="M166.8 51.1h-1.9v65.6h1.9V51.1z" fill="#000"/><path d="M168.502 27h-10.4v36h10.4V27z" fill="#FA9664"/><path d="M168.402 27l-10.3 5.3v-5.2l.1-.1h10.2zM168.502 34.1l-10.4 5.4v-5.2l10.4-5.4v5.2zM168.502 41.3l-10.4 5.4v-5.2l10.4-5.4v5.2zM168.502 48.5l-10.4 5.4v-5.2l10.4-5.4v5.2zM168.502 55.7l-10.4 5.4v-5.3l10.4-5.3v5.2zM168.501 57.7v5.2l-.2.1h-10.1l10.3-5.3z" fill="#FFF173"/><path d="M168.502 27h-10.4v36h10.4V27z" fill="#FA9664"/><path d="M168.402 27l-10.3 5.3v-5.2l.1-.1h10.2zM168.502 34.1l-10.4 5.4v-5.2l10.4-5.4v5.2zM168.502 41.3l-10.4 5.4v-5.2l10.4-5.4v5.2zM168.502 48.5l-10.4 5.4v-5.2l10.4-5.4v5.2zM168.502 55.7l-10.4 5.4v-5.3l10.4-5.3v5.2zM168.501 57.7v5.2l-.2.1-.2.2c-2.7 3-7.4 2.9-9.9-.2l10.3-5.3z" fill="#FFF173"/><path opacity=".2" d="M168.501 62.9l-2.2 1.8V27h2.2v35.9z" fill="#000"/><path d="M163.1 30.8c7.235 0 13.1-2.15 13.1-4.8 0-2.651-5.865-4.8-13.1-4.8-7.235 0-13.1 2.149-13.1 4.8 0 2.65 5.865 4.8 13.1 4.8z" fill="#FA9664"/><path d="M163.1 30c7.235 0 13.1-2.15 13.1-4.8 0-2.651-5.865-4.8-13.1-4.8-7.235 0-13.1 2.149-13.1 4.8 0 2.65 5.865 4.8 13.1 4.8z" fill="#FFF173"/><path d="M175.199 24.3c0 2.3-5.4 4.2-12 4.2-2.7 0-5.2-.3-7.2-.9-.6-.2-1.2-.3-1.7-.5-.3-.1-.6-.2-.8-.3-.3-.1-.6-.3-.8-.4-1-.6-1.5-1.3-1.5-2.1s.6-1.5 1.5-2.1c.2-.2.5-.3.8-.4.2-.1.5-.2.8-.3.5-.2 1-.4 1.7-.5 2-.5 4.5-.9 7.2-.9 6.6 0 12 1.9 12 4.2z" fill="#6AC86E"/><path d="M175.1 5.1h-22.7v19.5h22.7V5.1z" fill="#219750"/><path d="M174.5 5.1H151v19.5h23.5V5.1z" fill="#6AC86E"/><path d="M170.499 24.3c0 1-3.3 1.8-7.4 1.8-4.1 0-7.4-.8-7.4-1.8s3.3-6.9 7.4-6.9c4.1 0 7.4 5.9 7.4 6.9z" fill="#219750"/><path d="M157.699 24.1c2.486 0 4.5-3 4.5-6.7s-2.014-6.7-4.5-6.7c-2.485 0-4.5 3-4.5 6.7s2.015 6.7 4.5 6.7z" fill="#fff"/><path d="M158.699 24.1c2.486 0 4.5-3 4.5-6.7s-2.014-6.7-4.5-6.7c-2.485 0-4.5 3-4.5 6.7s2.015 6.7 4.5 6.7z" fill="#1A844B"/><path d="M165.1 24.1c2.485 0 4.5-3 4.5-6.7s-2.015-6.7-4.5-6.7c-2.486 0-4.5 3-4.5 6.7s2.014 6.7 4.5 6.7z" fill="#1A844B"/><path d="M168.5 24.1c2.485 0 4.5-3 4.5-6.7s-2.015-6.7-4.5-6.7-4.5 3-4.5 6.7 2.015 6.7 4.5 6.7z" fill="#fff"/><path opacity=".5" d="M154.2 5.1v21.2c-.3-.1-.6-.2-.8-.2-.3-.1-.6-.2-.8-.3V5.1h1.6z" fill="#fff"/><path opacity=".5" d="M155.9 5.1v21.5c-.6-.1-1.2-.2-1.7-.4-.3-.1-.6-.2-.8-.2V4.9l2.5.2z" fill="#fff"/><path d="M163.1 10.4c7.235 0 13.1-2.149 13.1-4.8 0-2.65-5.865-4.8-13.1-4.8-7.235 0-13.1 2.15-13.1 4.8 0 2.651 5.865 4.8 13.1 4.8z" fill="#FA9664"/><path d="M163.1 9.6c7.235 0 13.1-2.149 13.1-4.8S170.335 0 163.1 0C155.865 0 150 2.149 150 4.8s5.865 4.8 13.1 4.8z" fill="#FFF173"/><defs><clipPath id="clip0"><path fill="#fff" transform="rotate(90 74.35 77.35)" d="M0 0h173.7v138.7H0z"/></clipPath></defs></svg>