<svg xmlns="http://www.w3.org/2000/svg" xmlns:xlink="http://www.w3.org/1999/xlink" viewBox="0 0 400 220"><style>.st0{fill:#424242}.st1{fill:#7c6959}.st2{opacity:.2;fill:#231f20}.st3{fill:#536dfe}.st4{opacity:.1;fill:#231f20}.st5{fill:#f5a816}.st6{clip-path:url(#SVGID_2_)}.st7{fill:none;stroke:#e5e5e4;stroke-width:2;stroke-miterlimit:10}.st8{opacity:.1;fill:#fff}.st9{fill:#fce68d}.st10{fill:#fff;stroke:#fff;stroke-width:2;stroke-linejoin:round;stroke-miterlimit:10}</style><symbol id="mc-chimney-big" viewBox="0 -116 100 116"><path class="st0" d="M100 0H0v-16h8v-100h84v100h8z"/><path class="st1" d="M92-18H8v2h84z"/><path class="st1" d="M51-16v-22h-2v22zm0-40v-22h-2v22zm0-40v-20h-2v20zm30 20v-22h-2v22zm-60 0v-22h-2v22z"/><path class="st1" d="M92-38H8v2h84zm0-20H8v2h84zm0-20H8v2h84zm0-20H8v2h84z"/><path class="st2" d="M92-34L8-24v8h84z"/><path class="st1" d="M81-36v-22h-2v22zm-60 0v-22h-2v22zM81 0v-15.8h-2V0zM21 0v-15.8h-2V0z"/></symbol><use xlink:href="#mc-chimney-big" width="100" height="116" y="-116" transform="matrix(1 0 0 -1 147.548 .999)" overflow="visible"/><path class="st3" d="M29 102h340v118H29z"/><path class="st4" d="M29 129l340 10V89H29z"/><path class="st5" d="M372.2 68H26.7l-8.2 50h362z"/><defs><path id="SVGID_1_" d="M372.2 68H26.7l-8.2 50h362z"/></defs><clipPath id="SVGID_2_"><use xlink:href="#SVGID_1_" overflow="visible"/></clipPath><g class="st6"><path class="st7" d="M30.6 68c0 6.9-6.1 12.5-13.5 12.5-7.5 0-13.6-5.6-13.6-12.5m54.1 0c0 6.9-6.1 12.5-13.5 12.5-7.5 0-13.5-5.6-13.5-12.5m54.1 0c0 6.9-6.1 12.5-13.5 12.5-7.5 0-13.5-5.6-13.5-12.5m54.1 0c0 6.9-6.1 12.5-13.5 12.5-7.5 0-13.5-5.6-13.5-12.5M17 80.5C17 87.4 10.9 93 3.5 93-4 92.9-10 87.3-10 80.5m54.1 0C44.1 87.4 38 93 30.6 93c-7.5 0-13.5-5.6-13.5-12.5m54.1 0c0 6.9-6.1 12.5-13.5 12.5-7.5 0-13.5-5.6-13.5-12.5m54 0c0 6.9-6.1 12.5-13.5 12.5s-13.5-5.6-13.5-12.5M138.8 68c0 6.9-6.1 12.5-13.5 12.5-7.5 0-13.5-5.6-13.5-12.5m54.1 0c0 6.9-6.1 12.5-13.5 12.5-7.5 0-13.5-5.6-13.5-12.5m54.1 0c0 6.9-6.1 12.5-13.5 12.5-7.5 0-13.5-5.6-13.5-12.5m54 0c0 6.9-6.1 12.5-13.5 12.5-7.5 0-13.5-5.6-13.5-12.5m-67.7 12.5c0 6.9-6.1 12.5-13.5 12.5-7.5 0-13.5-5.6-13.5-12.5m54.1 0c0 6.9-6.1 12.5-13.5 12.5-7.5 0-13.5-5.6-13.5-12.5m54 0c0 6.9-6.1 12.5-13.5 12.5-7.5 0-13.5-5.6-13.5-12.5m54.1 0c0 6.9-6.1 12.5-13.5 12.5-7.5 0-13.5-5.6-13.5-12.5M247.1 68c0 6.9-6.1 12.5-13.5 12.5-7.5 0-13.5-5.6-13.5-12.5m54.1 0c0 6.9-6.1 12.5-13.5 12.5-7.5 0-13.5-5.6-13.5-12.5m54.1 0c0 6.9-6.1 12.5-13.5 12.5-7.5 0-13.5-5.6-13.5-12.5m54 0c0 6.9-6.1 12.5-13.5 12.5-7.5 0-13.5-5.6-13.5-12.5m-67.7 12.5c0 6.9-6.1 12.5-13.5 12.5-7.5 0-13.5-5.6-13.5-12.5m54.1 0c0 6.9-6.1 12.5-13.5 12.5-7.5 0-13.5-5.6-13.5-12.5m54 0c0 6.9-6.1 12.5-13.5 12.5s-13.5-5.6-13.5-12.5m54.1 0c0 6.9-6.1 12.5-13.5 12.5s-13.5-5.6-13.5-12.5M355.4 68c0 6.9-6.1 12.5-13.5 12.5-7.5 0-13.5-5.6-13.5-12.5m54.1 0c0 6.9-6.1 12.5-13.5 12.5-7.5 0-13.5-5.6-13.5-12.5m6828.7 1.7c0 6.9-6.1 12.5-13.5 12.5-7.5 0-13.5-5.6-13.5-12.5m54.1 0c0 6.9-6.1 12.5-13.5 12.5-7.5 0-13.5-5.6-13.5-12.5M341.9 80.5c0 6.9-6.1 12.5-13.5 12.5-7.5 0-13.5-5.6-13.5-12.5m54 0c0 6.9-6.1 12.5-13.5 12.5-7.5 0-13.5-5.6-13.5-12.5m6828.8 1.7c0 6.9-6.1 12.5-13.5 12.5-7.5 0-13.5-5.6-13.5-12.5m54 0c0 6.9-6.1 12.5-13.5 12.5s-13.5-5.6-13.5-12.5"/><path class="st7" d="M30.6 92.9c0 6.9-6.1 12.5-13.5 12.5-7.5 0-13.5-5.6-13.5-12.5m54 0c0 6.9-6.1 12.5-13.5 12.5-7.5 0-13.5-5.6-13.5-12.5m54.1 0c0 6.9-6.1 12.5-13.5 12.5-7.5 0-13.5-5.6-13.5-12.5m54.1 0c0 6.9-6.1 12.5-13.5 12.5-7.5 0-13.5-5.6-13.5-12.5M17 105.4c0 6.9-6.1 12.5-13.5 12.5-7.5 0-13.5-5.6-13.5-12.5m54.1 0c0 6.9-6.1 12.5-13.5 12.5-7.5 0-13.5-5.6-13.5-12.5m54.1 0c0 6.9-6.1 12.5-13.5 12.5-7.5 0-13.5-5.6-13.5-12.5m54 0c0 6.9-6.1 12.5-13.5 12.5s-13.5-5.6-13.5-12.5m67.6-12.5c0 6.9-6.1 12.5-13.5 12.5-7.5 0-13.5-5.6-13.5-12.5m54.1 0c0 6.9-6.1 12.5-13.5 12.5-7.5 0-13.5-5.6-13.5-12.5m54.1 0c0 6.9-6.1 12.5-13.5 12.5-7.5 0-13.5-5.6-13.5-12.5m54 0c0 6.9-6.1 12.5-13.5 12.5-7.5 0-13.5-5.6-13.5-12.5m-67.7 12.5c0 6.9-6.1 12.5-13.5 12.5-7.5 0-13.5-5.6-13.5-12.5m54.1 0c0 6.9-6.1 12.5-13.5 12.5-7.5 0-13.5-5.6-13.5-12.5m54 0c0 6.9-6.1 12.5-13.5 12.5-7.5 0-13.5-5.6-13.5-12.5m54.1 0c0 6.9-6.1 12.5-13.5 12.5-7.5 0-13.5-5.6-13.5-12.5m67.6-12.5c0 6.9-6.1 12.5-13.5 12.5-7.5 0-13.5-5.6-13.5-12.5m54.1 0c0 6.9-6.1 12.5-13.5 12.5-7.5 0-13.5-5.6-13.5-12.5m54.1 0c0 6.9-6.1 12.5-13.5 12.5-7.5 0-13.5-5.6-13.5-12.5m54 0c0 6.9-6.1 12.5-13.5 12.5-7.5 0-13.5-5.6-13.5-12.5m-67.7 12.5c0 6.9-6.1 12.5-13.5 12.5-7.5 0-13.5-5.6-13.5-12.5m54.1 0c0 6.9-6.1 12.5-13.5 12.5-7.5 0-13.5-5.6-13.5-12.5m54 0c0 6.9-6.1 12.5-13.5 12.5s-13.5-5.6-13.5-12.5m54.1 0c0 6.9-6.1 12.5-13.5 12.5s-13.5-5.6-13.5-12.5m67.6-12.5c0 6.9-6.1 12.5-13.5 12.5-7.5 0-13.5-5.6-13.5-12.5m54.1 0c0 6.9-6.1 12.5-13.5 12.5-7.5 0-13.5-5.6-13.5-12.5m6828.7 1.7c0 6.9-6.1 12.5-13.5 12.5-7.5 0-13.5-5.6-13.5-12.5m54.1 0c0 6.9-6.1 12.5-13.5 12.5-7.5 0-13.5-5.6-13.5-12.5M341.9 105.4c0 6.9-6.1 12.5-13.5 12.5-7.5 0-13.5-5.6-13.5-12.5m54 0c0 6.9-6.1 12.5-13.5 12.5-7.5 0-13.5-5.6-13.5-12.5m6828.8 1.7c0 6.9-6.1 12.5-13.5 12.5-7.5 0-13.5-5.6-13.5-12.5m54 0c0 6.9-6.1 12.5-13.5 12.5s-13.5-5.6-13.5-12.5"/></g><path class="st8" d="M168 163h60v36h-60zm-100 0h60v36H68z"/><path class="st9" d="M268 163h60v36h-60z"/><path class="st4" d="M68 163v7l60 4v-11zm100 0v7l60 4v-11zm100 0v7l60 4v-11z"/><path class="st10" d="M35.2 119c0 4-3.6 8.1-8.1 8.1S19 123 19 119h16.2z"/><path class="st10" d="M51.4 119c0 4-3.6 8.1-8.1 8.1s-8.1-4.1-8.1-8.1h16.2z"/><path class="st10" d="M67.5 119c0 4-3.6 8.1-8.1 8.1s-8.1-4.1-8.1-8.1h16.2zm149.8 0c0 4-3.6 8.1-8.1 8.1s-8.1-4.1-8.1-8.1h16.2zm16.2 0c0 4-3.6 8.1-8.1 8.1s-8.1-4.1-8.1-8.1h16.2z"/><path class="st10" d="M249.6 119c0 4-3.6 8.1-8.1 8.1s-8.1-4.1-8.1-8.1h16.2zm20.6 0c0 4-3.6 8.1-8.1 8.1S254 123 254 119h16.2z"/><path class="st10" d="M286.4 119c0 4-3.6 8.1-8.1 8.1s-8.1-4.1-8.1-8.1h16.2z"/><path class="st10" d="M302.5 119c0 4-3.6 8.1-8.1 8.1s-8.1-4.1-8.1-8.1h16.2zm46.7 0c0 4-3.6 8.1-8.1 8.1S333 123 333 119h16.2z"/><path class="st10" d="M365.4 119c0 4-3.6 8.1-8.1 8.1s-8.1-4.1-8.1-8.1h16.2z"/><path class="st10" d="M381.5 119c0 4-3.6 8.1-8.1 8.1s-8.1-4.1-8.1-8.1h16.2z"/></svg>