<svg xmlns="http://www.w3.org/2000/svg" xmlns:xlink="http://www.w3.org/1999/xlink" viewBox="0 0 400 206"><style>.st0{fill:#4527a0}.st1{fill:#5e35b1}.st2{opacity:.2;fill:#231f20}.st3{fill:#536dfe}.st4{opacity:.1;fill:#231f20}.st5{fill:#fce68d}.st6{fill:#90caf9}.st7{fill:#fff;stroke:#fff;stroke-width:2;stroke-linejoin:round;stroke-miterlimit:10}</style><symbol id="mc-chimney-med" viewBox="0 -116 70 116"><path class="st0" d="M70 0H0v-16h8v-100h54v100h8z"/><path class="st1" d="M20-16v-22h-2v22zm0-40v-22h-2v22zm0-40v-20h-2v20z"/><path class="st1" d="M62-38H8v2h54zm0 20H8v2h54zm0-40H8v2h54zm0-20H8v2h54zm0-20H8v2h54z"/><path class="st1" d="M52-76v-22h-2v22zm0 40v-22h-2v22zM35.3 0v-15.8h-2V0z"/><path class="st2" d="M62-34L8-24v8h54z"/></symbol><use xlink:href="#mc-chimney-med" width="70" height="116" y="-116" transform="matrix(1 0 0 -1 31.307 13.499)" overflow="visible"/><path class="st3" d="M200 12L30 104v102h340V104z"/><path class="st4" d="M363 116c0-.4 0-.9.1-1.3-1.4 1.2-3.2 2-5.3 2-4.4 0-8-3.6-8-8 0-.4 0-.9.1-1.3-1.4 1.2-3.2 2-5.3 2-4.4 0-8-3.6-8-8 0-.4 0-.9.1-1.3-1.4 1.2-3.2 2-5.3 2-4.4 0-8-3.6-8-8 0-.4 0-.9.1-1.3-1.4 1.2-3.2 2-5.3 2-4.4 0-8-3.6-8-8 0-.4 0-.9.1-1.3-1.4 1.2-3.2 2-5.3 2-4.4 0-8-3.6-8-8 0-.4 0-.9.1-1.3-1.4 1.2-3.2 2-5.3 2-4.4 0-8-3.6-8-8 0-.4 0-.9.1-1.3-1.4 1.2-3.2 2-5.3 2-4.4 0-8-3.6-8-8 0-.4 0-.9.1-1.3-1.4 1.2-3.2 2-5.3 2-4.4 0-8-3.6-8-8 0-.4 0-.9.1-1.3-1.4 1.2-3.2 2-5.3 2-4.4 0-8-3.6-8-8 0-.4 0-.9.1-1.3-1.4 1.2-3.2 2-5.3 2-4.4 0-8-3.6-8-8 0-.4 0-.9.1-1.3-1.4 1.2-3.2 2-5.3 2-4.4 0-8-3.6-8-8 0-.4 0-.9.1-1.3-1.4 1.2-3.2 2-5.3 2-4.4 0-8-3.6-8-8 0-.4 0-.9.1-1.3-1.2 1-2.7 1.7-4.3 1.9-.3 0-.7.1-1 .1-2 0-3.9-.8-5.3-2 .1.4.1.9.1 1.3 0 4.4-3.6 8-8 8-2 0-3.9-.8-5.3-2 .1.4.1.9.1 1.3 0 4.4-3.6 8-8 8-2 0-3.9-.8-5.3-2 .1.4.1.9.1 1.3 0 4.4-3.6 8-8 8-2 0-3.9-.8-5.3-2 .1.4.1.9.1 1.3 0 4.4-3.6 8-8 8-2 0-3.9-.8-5.3-2 .1.4.1.9.1 1.3 0 4.4-3.6 8-8 8-2 0-3.9-.8-5.3-2 .1.4.1.9.1 1.3 0 4.4-3.6 8-8 8-2 0-3.9-.8-5.3-2 .1.4.1.9.1 1.3 0 4.4-3.6 8-8 8-2 0-3.9-.8-5.3-2 .1.4.1.9.1 1.3 0 4.4-3.6 8-8 8-2 0-3.9-.8-5.3-2 .1.4.1.9.1 1.3 0 4.4-3.6 8-8 8-2 0-3.9-.8-5.3-2 .1.4.1.9.1 1.3 0 4.4-3.6 8-8 8-2 0-3.9-.8-5.3-2 .1.4.1.9.1 1.3 0 4.4-3.6 8-8 8-2 0-3.9-.8-5.3-2 .1.4.1.9.1 1.3 0 4.4-3.6 8-8 8-2 0-3.9-.8-5.3-2 .1.4.1.9.1 1.3 0 4.1-3.1 7.4-7 7.9v17c3.9-.5 7-3.9 7-7.9 0-.4 0-.9-.1-1.3 1.4 1.2 3.2 2 5.3 2 4.4 0 8-3.6 8-8 0-.4 0-.9-.1-1.3 1.4 1.2 3.2 2 5.3 2 4.4 0 8-3.6 8-8 0-.4 0-.9-.1-1.3 1.4 1.2 3.2 2 5.3 2 4.4 0 8-3.6 8-8 0-.4 0-.9-.1-1.3 1.4 1.2 3.2 2 5.3 2 4.4 0 8-3.6 8-8 0-.4 0-.9-.1-1.3 1.4 1.2 3.2 2 5.3 2 4.4 0 8-3.6 8-8 0-.4 0-.9-.1-1.3 1.4 1.2 3.2 2 5.3 2 4.4 0 8-3.6 8-8 0-.4 0-.9-.1-1.3 1.4 1.2 3.2 2 5.3 2 4.4 0 8-3.6 8-8 0-.4 0-.9-.1-1.3 1.4 1.2 3.2 2 5.3 2 4.4 0 8-3.6 8-8 0-.4 0-.9-.1-1.3 1.4 1.2 3.2 2 5.3 2 4.4 0 8-3.6 8-8 0-.4 0-.9-.1-1.3 1.4 1.2 3.2 2 5.3 2 4.4 0 8-3.6 8-8 0-.4 0-.9-.1-1.3 1.4 1.2 3.2 2 5.3 2 4.4 0 8-3.6 8-8 0-.4 0-.9-.1-1.3 1.4 1.2 3.2 2 5.3 2 4.4 0 8-3.6 8-8 0-.4 0-.9-.1-1.3 1.4 1.2 3.2 2 5.3 2 .3 0 .7 0 1-.1 1.6-.2 3.1-.9 4.3-1.9-.1.4-.1.9-.1 1.3 0 4.4 3.6 8 8 8 2 0 3.9-.8 5.3-2-.1.4-.1.9-.1 1.3 0 4.4 3.6 8 8 8 2 0 3.9-.8 5.3-2-.1.4-.1.9-.1 1.3 0 4.4 3.6 8 8 8 2 0 3.9-.8 5.3-2-.1.4-.1.9-.1 1.3 0 4.4 3.6 8 8 8 2 0 3.9-.8 5.3-2-.1.4-.1.9-.1 1.3 0 4.4 3.6 8 8 8 2 0 3.9-.8 5.3-2-.1.4-.1.9-.1 1.3 0 4.4 3.6 8 8 8 2 0 3.9-.8 5.3-2-.1.4-.1.9-.1 1.3 0 4.4 3.6 8 8 8 2 0 3.9-.8 5.3-2-.1.4-.1.9-.1 1.3 0 4.4 3.6 8 8 8 2 0 3.9-.8 5.3-2-.1.4-.1.9-.1 1.3 0 4.4 3.6 8 8 8 2 0 3.9-.8 5.3-2-.1.4-.1.9-.1 1.3 0 4.4 3.6 8 8 8 2 0 3.9-.8 5.3-2-.1.4-.1.9-.1 1.3 0 4.4 3.6 8 8 8 2 0 3.9-.8 5.3-2-.1.4-.1.9-.1 1.3 0 4.4 3.6 8 8 8 2 0 3.9-.8 5.3-2-.1.4-.1.9-.1 1.3 0 4.1 3.1 7.4 7 7.9v-17c-3.9-.5-7-3.8-7-7.9z"/><path class="st0" d="M200 1L6 106v10c0 4.4 3.6 8 8 8s8-3.6 8-8c0 4.4 3.6 8 8 8v-.1c3.9-.5 7-3.9 7-7.9 0-.4 0-.9-.1-1.3 1.4 1.2 3.2 2 5.3 2 4.4 0 8-3.6 8-8 0-.4 0-.9-.1-1.3 1.4 1.2 3.2 2 5.3 2 4.4 0 8-3.6 8-8 0-.4 0-.9-.1-1.3 1.4 1.2 3.2 2 5.3 2 4.4 0 8-3.6 8-8 0-.4 0-.9-.1-1.3 1.4 1.2 3.2 2 5.3 2 4.4 0 8-3.6 8-8 0-.4 0-.9-.1-1.3 1.4 1.2 3.2 2 5.3 2 4.4 0 8-3.6 8-8 0-.4 0-.9-.1-1.3 1.4 1.2 3.2 2 5.3 2 4.4 0 8-3.6 8-8 0-.4 0-.9-.1-1.3 1.4 1.2 3.2 2 5.3 2 4.4 0 8-3.6 8-8 0-.4 0-.9-.1-1.3 1.4 1.2 3.2 2 5.3 2 4.4 0 8-3.6 8-8 0-.4 0-.9-.1-1.3 1.4 1.2 3.2 2 5.3 2 4.4 0 8-3.6 8-8 0-.4 0-.9-.1-1.3 1.4 1.2 3.2 2 5.3 2 4.4 0 8-3.6 8-8 0-.4 0-.9-.1-1.3 1.4 1.2 3.2 2 5.3 2 4.4 0 8-3.6 8-8 0-.4 0-.9-.1-1.3 1.4 1.2 3.2 2 5.3 2 4.4 0 8-3.6 8-8 0-.4 0-.9-.1-1.3 1.4 1.2 3.2 2 5.3 2 .3 0 .7 0 1-.1 1.6-.2 3.1-.9 4.3-1.9-.1.4-.1.9-.1 1.3 0 4.4 3.6 8 8 8 2 0 3.9-.8 5.3-2-.1.4-.1.9-.1 1.3 0 4.4 3.6 8 8 8 2 0 3.9-.8 5.3-2-.1.4-.1.9-.1 1.3 0 4.4 3.6 8 8 8 2 0 3.9-.8 5.3-2-.1.4-.1.9-.1 1.3 0 4.4 3.6 8 8 8 2 0 3.9-.8 5.3-2-.1.4-.1.9-.1 1.3 0 4.4 3.6 8 8 8 2 0 3.9-.8 5.3-2-.1.4-.1.9-.1 1.3 0 4.4 3.6 8 8 8 2 0 3.9-.8 5.3-2-.1.4-.1.9-.1 1.3 0 4.4 3.6 8 8 8 2 0 3.9-.8 5.3-2-.1.4-.1.9-.1 1.3 0 4.4 3.6 8 8 8 2 0 3.9-.8 5.3-2-.1.4-.1.9-.1 1.3 0 4.4 3.6 8 8 8 2 0 3.9-.8 5.3-2-.1.4-.1.9-.1 1.3 0 4.4 3.6 8 8 8 2 0 3.9-.8 5.3-2-.1.4-.1.9-.1 1.3 0 4.4 3.6 8 8 8 2 0 3.9-.8 5.3-2-.1.4-.1.9-.1 1.3 0 4.4 3.6 8 8 8 2 0 3.9-.8 5.3-2-.1.4-.1.9-.1 1.3 0 4.1 3.1 7.4 7 7.9v.1c4.4 0 8-3.6 8-8 0 4.4 3.6 8 8 8s8-3.6 8-8v-10L200 1z"/><path class="st5" d="M110 130h27v27h-27zm33 0h27v27h-27zm-33 32h27v27h-27zm33 0h27v27h-27z"/><path class="st6" d="M230 130h27v27h-27zm33 0h27v27h-27zm-33 32h27v27h-27zm33 0h27v27h-27zm-60-98.8c9 1.4 16 8.6 16.9 17.8H203V63.2zM198 81V63.1c-9.4.9-17 8.5-17.9 17.9H198zm5 5v16.8c8.6-1.3 15.4-8.1 16.8-16.8H203zm-5 0h-17.8c1.4 9 8.6 16 17.8 16.9V86z"/><path class="st4" d="M110 130v7l60 4v-11zm120 0v7l60 4v-11z"/><path class="st7" d="M268.2 130c0 4.5-3.6 8.1-8.1 8.1s-8.1-3.6-8.1-8.1h16.2z"/><path class="st7" d="M284.4 130c0 4.5-3.6 8.1-8.1 8.1s-8.1-3.6-8.1-8.1h16.2z"/><path class="st7" d="M300.5 130c0 4.5-3.6 8.1-8.1 8.1s-8.1-3.6-8.1-8.1h16.2z"/></svg>