<svg id="Layer_1" xmlns="http://www.w3.org/2000/svg" viewBox="0 0 21.4 21.4" enable-background="new 0 0 21.4 21.4"><style>.st0{fill-rule:evenodd;clip-rule:evenodd;fill:#e5ebe4}.st1{filter:url(#Adobe_OpacityMaskFilter)}.st2{fill:#010101}.st3{mask:url(#SVGID_1_);fill-rule:evenodd;clip-rule:evenodd;fill:#e5ebe4}</style><path class="st0" d="M21.4 10.7c0 5.9-4.8 10.7-10.7 10.7S0 16.6 0 10.7C0 4.8 4.8 0 10.7 0s10.7 4.8 10.7 10.7zm-2.6 0c0-4.5-3.6-8.1-8.1-8.1s-8.1 3.6-8.1 8.1 3.6 8.1 8.1 8.1c4.4 0 8.1-3.6 8.1-8.1z"/><defs><filter id="Adobe_OpacityMaskFilter" filterUnits="userSpaceOnUse" x="4.5" y="4.5" width="12.5" height="12.5"><feFlood result="back" flood-color="#fff" flood-opacity="1"/><feBlend in="SourceGraphic" in2="back"/></filter></defs><mask maskUnits="userSpaceOnUse" x="4.5" y="4.5" width="12.5" height="12.5" id="SVGID_1_"><g class="st1"><path class="st2" d="M9.3 10.7c0 .8.6 1.4 1.4 1.4.8 0 1.4-.6 1.4-1.4 0-.8-.6-1.4-1.4-1.4-.8 0-1.4.6-1.4 1.4z"/><path class="st2" d="M9.8 11.1h1.8V5.8H9.8v5.3z"/><path class="st2" d="M9.8 11.2l3.4 2 .9-1.5-3.4-2-.9 1.5z"/></g></mask><path class="st3" d="M4.5 10.7c0 3.4 2.8 6.2 6.2 6.2 3.4 0 6.2-2.8 6.2-6.2 0-3.4-2.8-6.2-6.2-6.2-3.5 0-6.2 2.8-6.2 6.2z"/></svg>