<?xml version="1.0" encoding="utf-8"?>
<!-- Generator: Adobe Illustrator 18.0.0, SVG Export Plug-In . SVG Version: 6.00 Build 0)  -->
<!DOCTYPE svg PUBLIC "-//W3C//DTD SVG 1.1//EN" "http://www.w3.org/Graphics/SVG/1.1/DTD/svg11.dtd">
<svg version="1.1" id="Layer_1" xmlns="http://www.w3.org/2000/svg" xmlns:xlink="http://www.w3.org/1999/xlink" x="0px" y="0px"
	 viewBox="0 0 13.2 13.2" style="enable-background:new 0 0 13.2 13.2;" xml:space="preserve">
<g>
	<g>
		<path style="fill-rule:evenodd;clip-rule:evenodd;fill:#F2D9A2;" d="M6.6,0C3,0,0,3,0,6.6c0,3.6,3,6.6,6.6,6.6s6.6-3,6.6-6.6
			C13.2,3,10.3,0,6.6,0z M6.6,11.6c-2.8,0-5-2.2-5-5c0-2.8,2.2-5,5-5c2.8,0,5,2.2,5,5C11.6,9.4,9.4,11.6,6.6,11.6z"/>
		<defs>
			<filter id="Adobe_OpacityMaskFilter" filterUnits="userSpaceOnUse" x="2.8" y="2.8" width="7.7" height="7.7">
				<feFlood  style="flood-color:white;flood-opacity:1" result="back"/>
				<feBlend  in="SourceGraphic" in2="back" mode="normal"/>
			</filter>
		</defs>
		<mask maskUnits="userSpaceOnUse" x="2.8" y="2.8" width="7.7" height="7.7" id="SVGID_1_">
			<g style="filter:url(#Adobe_OpacityMaskFilter);">
				<path style="fill:#010101;" d="M6.6,5.8c0.5,0,0.8,0.4,0.8,0.8c0,0.5-0.4,0.8-0.8,0.8c-0.5,0-0.8-0.4-0.8-0.8
					C5.8,6.1,6.1,5.8,6.6,5.8z"/>
				<path style="fill:#010101;" d="M6.1,3.6h1.1v3.3H6.1V3.6z"/>
				<path style="fill:#010101;" d="M6.6,6l2.1,1.2L8.2,8.1L6.1,6.9L6.6,6z"/>
			</g>
		</mask>
		<path style="mask:url(#SVGID_1_);fill-rule:evenodd;clip-rule:evenodd;fill:#F2D9A2;" d="M6.6,2.8c2.1,0,3.9,1.7,3.9,3.9
			c0,2.1-1.7,3.9-3.9,3.9c-2.1,0-3.9-1.7-3.9-3.9C2.8,4.5,4.5,2.8,6.6,2.8z"/>
	</g>
</g>
</svg>
