<?xml version="1.0" encoding="utf-8"?>
<!-- Generator: Adobe Illustrator 19.1.0, SVG Export Plug-In . SVG Version: 6.00 Build 0)  -->
<svg version="1.1" id="Layer_1" xmlns="http://www.w3.org/2000/svg" xmlns:xlink="http://www.w3.org/1999/xlink" x="0px" y="0px"
	 viewBox="0 0 21.4 21.4" style="enable-background:new 0 0 21.4 21.4;" xml:space="preserve">
<style type="text/css">
	.st0{fill-rule:evenodd;clip-rule:evenodd;fill:#FBF5B0;}
	.st1{filter:url(#Adobe_OpacityMaskFilter);}
	.st2{fill:#010101;}
	.st3{mask:url(#SVGID_1_);fill-rule:evenodd;clip-rule:evenodd;fill:#FBF5B0;}
</style>
<g>
	<path class="st0" d="M21.4,10.7c0,5.9-4.8,10.7-10.7,10.7S0,16.6,0,10.7C0,4.8,4.8,0,10.7,0S21.4,4.8,21.4,10.7z M18.8,10.7
		c0-4.5-3.6-8.1-8.1-8.1c-4.5,0-8.1,3.6-8.1,8.1c0,4.5,3.6,8.1,8.1,8.1C15.1,18.8,18.8,15.2,18.8,10.7z"/>
	<defs>
		<filter id="Adobe_OpacityMaskFilter" filterUnits="userSpaceOnUse" x="4.5" y="4.5" width="12.5" height="12.5">
			<feFlood  style="flood-color:white;flood-opacity:1" result="back"/>
			<feBlend  in="SourceGraphic" in2="back" mode="normal"/>
		</filter>
	</defs>
	<mask maskUnits="userSpaceOnUse" x="4.5" y="4.5" width="12.5" height="12.5" id="SVGID_1_">
		<g class="st1">
			<path class="st2" d="M9.3,10.7c0,0.8,0.6,1.4,1.4,1.4c0.8,0,1.4-0.6,1.4-1.4c0-0.8-0.6-1.4-1.4-1.4C9.9,9.3,9.3,9.9,9.3,10.7z"/>
			<path class="st2" d="M9.8,11.1h1.8V5.8H9.8V11.1z"/>
			<path class="st2" d="M9.8,11.2l3.4,2l0.9-1.5l-3.4-2L9.8,11.2z"/>
		</g>
	</mask>
	<path class="st3" d="M4.5,10.7c0,3.4,2.8,6.2,6.2,6.2c3.4,0,6.2-2.8,6.2-6.2c0-3.4-2.8-6.2-6.2-6.2C7.2,4.5,4.5,7.3,4.5,10.7z"/>
</g>
</svg>
