<svg xmlns="http://www.w3.org/2000/svg" viewBox="0 0 13 13"><path d="M6.5 0C2.9 0 0 2.9 0 6.5S2.9 13 6.5 13 13 10.1 13 6.5 10 0 6.5 0zm4.4 3.9H9c-.2-.8-.5-1.6-.9-2.3 1.2.4 2.2 1.2 2.8 2.3zM6.5 1.3c.5.8.9 1.7 1.2 2.6H5.2c.3-.9.7-1.8 1.3-2.6zm-5 6.5c-.1-.4-.2-.9-.2-1.3s.1-.9.2-1.3h2.2c-.1.4-.1.8-.1 1.3 0 .4 0 .9.1 1.3H1.5zM2 9.1h1.9c.2.8.5 1.6.9 2.3C3.6 11 2.6 10.1 2 9.1zm1.9-5.2H2C2.6 2.8 3.6 2 4.8 1.6c-.4.7-.7 1.5-.9 2.3zm2.6 7.7C6 10.8 5.5 10 5.3 9h2.5c-.4 1-.8 1.8-1.3 2.6zM8 7.8H5c-.1-.5-.1-.9-.1-1.3s0-.9.1-1.3h3c0 .4.1.8.1 1.3 0 .4-.1.8-.1 1.3zm.1 3.6c.4-.8.7-1.5.9-2.3h2c-.7 1-1.7 1.9-2.9 2.3zm1.2-3.6c.1-.4.1-.9.1-1.3s0-.9-.1-1.3h2.2c.1.4.2.8.2 1.3 0 .4-.1.9-.2 1.3H9.3z" fill="#97d8ff"/></svg>