<?xml version="1.0" encoding="utf-8"?>
<!-- Generator: Adobe Illustrator 18.0.0, SVG Export Plug-In . SVG Version: 6.00 Build 0)  -->
<!DOCTYPE svg PUBLIC "-//W3C//DTD SVG 1.1//EN" "http://www.w3.org/Graphics/SVG/1.1/DTD/svg11.dtd">
<svg version="1.1" id="Layer_1" xmlns="http://www.w3.org/2000/svg" xmlns:xlink="http://www.w3.org/1999/xlink" x="0px" y="0px"
	 viewBox="0 0 8.9 11.6" style="enable-background:new 0 0 8.9 11.6;" xml:space="preserve">
<g>
	<path style="fill:#F2D9A2;" d="M8.9,4.5C8.9,2,6.9,0,4.5,0C2,0,0,2,0,4.5c0,1.1,0.4,2.2,1.1,3l3.3,4.2l3.3-4.1l0,0
		C8.5,6.7,8.9,5.6,8.9,4.5z M4.5,6C3.6,6,2.9,5.3,2.9,4.5c0-0.9,0.7-1.5,1.5-1.5C5.3,2.9,6,3.6,6,4.5C6,5.3,5.3,6,4.5,6z"/>
</g>
</svg>
