<svg xmlns="http://www.w3.org/2000/svg" xmlns:xlink="http://www.w3.org/1999/xlink" version="1.1" id="Layer_1" x="0px" y="0px" viewBox="-0.014 0.05 16.714 18.864" style="enable-background:new -0.014 0.05 16.714 18.864;" xml:space="preserve"><g id="Layer_10"><g id="New_Symbol_58"></g><g id="_x27__2_2_"></g><g id="_x27__2_1_"></g><g id="_x27__2"></g><g id="New_Symbol_57"></g><g id="New_Symbol_2"><g id="New_Symbol_36"><g id="New_Symbol_76"></g><g id="New_Symbol_79"></g><g id="New_Symbol_80"></g></g></g><g id="santa"></g><g id="New_Symbol_70"><g id="New_Symbol_69"><g id="New_Symbol_2_1_"><g id="New_Symbol_36_1_"></g></g></g></g><g id="New_Symbol_27"></g><g id="New_Symbol_26"></g><g id="New_Symbol_29"></g><g id="New_Symbol_32"><g id="New_Symbol_32_1_"><g id="New_Symbol_111"></g></g></g><g id="_x27__2_3_"></g><g id="New_Symbol_109"><g id="New_Symbol_112"></g></g></g><g id="Notes"><g id="_x27__2_4_"></g><g id="New_Symbol_109_2_"></g></g><g id="Grid"></g><g id="Layer_7"></g><g id="Layer_8"></g><g id="Layer_15"></g><g id="Layer_16"><g id="New_Symbol_114"><path style="fill:none;stroke:#97D8FF;stroke-width:0.9;stroke-linecap:round;stroke-linejoin:round;stroke-miterlimit:10;" d=" M12.4 6V4.8c0-0.3-0.2-0.5-0.5-0.5h-2c-0.3 0-0.5-0.2-0.5-0.5V3.3C9.5 3 9.2 2.8 9 2.8H8.1"/><path style="fill:none;stroke:#97D8FF;stroke-width:0.9;stroke-linecap:round;stroke-linejoin:round;stroke-miterlimit:10;" d=" M12.6 5.2h0.7c0.3 0 0.5-0.2 0.5-0.5v-1c0-0.3-0.2-0.5-0.5-0.5h-1.4c-0.3 0-0.5-0.2-0.5-0.5V0.5"/><path style="fill:#97D8FF;" d="M10.9 7.3c0 1.5-0.1 3.2-0.1 3.2H4.7c-1.3 0-2.3 1-2.3 2.3v0.1c0 1.3 1 2.3 2.3 2.3h6.2 c1.3 0 2.3-1 2.3-2.3V7.7C13.1 6.3 10.9 6 10.9 7.3z"/><path style="fill:#97D8FF;" d="M10.8 7.4c0-1.6 1.7-1.8 2.2-1.3c0 0 1.4 0.7 2.3 1.4s0.3 1.3-0.3 1.3h-2.8 C11.6 8.8 10.8 8.3 10.8 7.4z"/><path style="fill:#8E24AA;" d="M13.4 7.3c0 0.2-0.1 0.3-0.3 0.3l0 0c-0.2 0-0.3-0.1-0.3-0.3l0 0c0-0.2 0.1-0.3 0.3-0.3l0 0 C13.2 7 13.4 7.1 13.4 7.3L13.4 7.3z"/><path style="fill:none;stroke:#97D8FF;stroke-width:1.6287;stroke-linecap:round;stroke-linejoin:round;stroke-miterlimit:10;" d=" M4.4 14.6c-0.3 1.5-1.2 3-3.6 3.5"/><polyline style="fill:none;stroke:#97D8FF;stroke-width:1.6287;stroke-linecap:round;stroke-linejoin:round;stroke-miterlimit:10;" points="11.3,14.5 13.3,15.9 14.9,14.4 15.7,17.1"/><path style="fill:none;stroke:#97D8FF;stroke-width:0.9;stroke-linecap:round;stroke-linejoin:round;stroke-miterlimit:10;" d=" M9.8 4.3v0.4c0 0.3-0.2 0.5-0.5 0.5h-1"/><path style="fill:#97D8FF;" d="M16.7 8.2c0 0.3-0.2 0.5-0.5 0.5l0 0c-0.3 0-0.5-0.2-0.5-0.5l0 0c0-0.3 0.2-0.5 0.5-0.5l0 0 C16.4 7.7 16.7 7.9 16.7 8.2L16.7 8.2z"/><path style="fill:none;stroke:#97D8FF;stroke-width:0.9;stroke-linecap:round;stroke-linejoin:round;stroke-miterlimit:10;" d=" M10.4 1.8h2.2c0.3 0 0.5-0.2 0.5-0.5V0.5"/></g><g id="New_Symbol_109_1_"></g></g><g id="Layer_27"></g><g id="Layer_28"></g></svg>