<svg xmlns="http://www.w3.org/2000/svg" xmlns:xlink="http://www.w3.org/1999/xlink" version="1.1" id="Layer_1" x="0px" y="0px" viewBox="3.535 -9.993 228.778 230.503" style="enable-background:new 3.535 -9.993 228.778 230.503;" xml:space="preserve"><g id="_x35_"><path style="fill:none;stroke:#E53A35;stroke-width:11;stroke-linecap:round;stroke-miterlimit:10;" d="M138.821 84.601 c0 0 11.901 20.489 28.798 11.786"/><path style="opacity:0.15;fill:none;stroke:#221F1F;stroke-width:11;stroke-linecap:round;stroke-miterlimit:10;enable-background:new    ;" d=" M138.821 84.601c0 0 11.901 20.489 28.798 11.786"/><circle style="fill:#FFFFFF;" cx="167.62" cy="95.531" r="8.558"/><path style="fill:#F9CE1E;" d="M168.4 88.145c0.147 1.203 5.67 1.233 7.045 1.065c1.375-0.168 2.371-1.278 2.225-2.482 c-0.147-1.203-1.381-2.042-2.755-1.875C173.542 85.021 168.253 86.941 168.4 88.145z"/><path style="fill:#F9CE1E;" d="M160.178 91.201c0 3.519 4.447 6.371 9.93 6.371s9.93-2.852 9.93-6.371s-4.447-4.143-9.93-4.143 S160.178 87.682 160.178 91.201z"/><g><rect x="94.881" y="131.612" style="fill:#E53A35;" width="19.466" height="25.491"/><path style="fill:#212121;" d="M94.881 165.447v9.733c-7.423 0-13.441 6.018-13.441 13.441h13.441h19.466v-23.174H94.881z"/><rect x="94.881" y="157.104" style="fill:#FFFFFF;" width="19.466" height="8.343"/><rect x="118.982" y="131.612" style="fill:#E53A35;" width="19.466" height="25.491"/><rect x="118.982" y="131.612" style="opacity:0.15;fill:#221F1F;enable-background:new    ;" width="19.466" height="25.491"/><path style="fill:#212121;" d="M138.447 165.447v9.733c7.423 0 13.441 6.018 13.441 13.441h-13.441h-19.466v-23.174H138.447z"/><rect x="118.982" y="157.104" style="fill:#FFFFFF;" width="19.466" height="8.343"/><path style="fill:none;stroke:#E53A35;stroke-width:11;stroke-linecap:round;stroke-miterlimit:10;" d="M94.881 84.601 c0 0-11.901 20.489-28.798 11.786"/><circle style="fill:#FFFFFF;" cx="66.083" cy="95.531" r="8.558"/><path style="fill:#F9CE1E;" d="M65.301 88.145c-0.147 1.203-5.67 1.233-7.045 1.065c-1.375-0.168-2.371-1.278-2.225-2.482 c0.147-1.203 1.381-2.042 2.755-1.875C60.159 85.021 65.448 86.941 65.301 88.145z"/><path style="fill:#F9CE1E;" d="M73.523 91.201c0 3.519-4.447 6.371-9.93 6.371s-9.93-2.852-9.93-6.371s4.447-4.143 9.93-4.143 S73.523 87.682 73.523 91.201z"/><path style="fill:#E53A35;" d="M151.422 106.591c0 18.94-15.349 34.289-34.289 34.289c-18.954 0-34.303-15.349-34.303-34.289 c0-10.995 5.172-20.784 13.214-27.065c5.81-4.534 13.13-7.238 21.089-7.238c10.274 0 19.481 4.506 25.748 11.661 C148.206 89.994 151.422 97.911 151.422 106.591z"/><rect x="82.829" y="106.584" style="fill:#212121;" width="68.594" height="11.124"/><rect x="109.248" y="106.584" style="fill:#F9CE1E;" width="14.832" height="11.124"/><path style="opacity:0.15;fill:#221F1F;enable-background:new    ;" d="M151.426 106.591c0 18.94-15.363 34.289-34.303 34.289 c-7.238 0-13.962-2.246-19.495-6.087c3.882 1.525 8.111 2.385 12.548 2.385c18.94 0 34.303-15.363 34.303-34.303 c0-5.324-1.22-10.357-3.383-14.836c-2.981 5.005-8.444 8.347-14.697 8.347h-0.194c-12.839 0-24.07-6.766-30.157-16.86 c5.81-4.534 13.13-7.238 21.089-7.238c4.441 0 8.666 0.849 12.547 2.381c-0.004-0.003-0.008-0.007-0.012-0.01 c0.36 0.139 0.707 0.291 1.054 0.43c0.069 0.028 0.139 0.055 0.208 0.097c0.36 0.166 0.721 0.333 1.081 0.499 c0.763 0.374 1.511 0.763 2.246 1.192c0.361 0.208 0.721 0.43 1.081 0.652c0.361 0.222 0.707 0.458 1.068 0.693 c0.347 0.222 0.693 0.471 1.026 0.735c0.277 0.208 0.555 0.416 0.818 0.624c1.054 0.804 2.066 1.705 3.009 2.662 c0.25 0.236 0.485 0.485 0.735 0.735c0.305 0.319 0.596 0.638 0.887 0.971C148.196 89.994 151.426 97.911 151.426 106.591z"/><ellipse style="fill:#EF9A9B;" cx="99.63" cy="56.519" rx="5.213" ry="5.089"/><path style="fill:#EF9A9B;" d="M138.912 56.519c0 2.813-2.34 5.089-5.216 5.089c-2.884 0-5.213-2.275-5.213-5.089 c0-2.811 2.331-5.089 5.213-5.089C136.57 51.431 138.912 53.709 138.912 56.519z"/><path style="fill:#FFFFFF;" d="M97.661 29.185c0 3.073-2.49 5.56-5.56 5.56c-3.075 0-5.564-2.487-5.564-5.56 c0-3.075 2.489-5.564 5.564-5.564C95.172 23.621 97.661 26.11 97.661 29.185z"/><g><g><path style="fill:#F7CBAE;" d="M116.663 40.307c-10.24 0-18.539 8.3-18.539 18.539v18.539h37.079V58.846 C135.203 48.608 126.903 40.307 116.663 40.307z"/></g></g><path style="opacity:0.15;fill:#221F1F;enable-background:new    ;" d="M132.015 75.685c0.763 0.36 1.511 0.749 2.246 1.192 C133.526 76.448 132.778 76.06 132.015 75.685z"/><g><g><path style="fill:#FFFFFF;" d="M121.762 57.92c-0.001 0-0.003 0-0.006 0H86.537c0 18.941 15.68 34.297 35.022 34.297 c0.046 0 0.09-0.001 0.136-0.003c0.022 0 0.044 0.003 0.067 0.003c9.471 0 17.149-7.677 17.149-17.149 C138.912 65.597 131.233 57.92 121.762 57.92z"/></g></g><ellipse style="fill:#EF9A9B;" cx="116.663" cy="57.918" rx="5.098" ry="4.172"/><path style="fill:#212121;" d="M115.801 67.351c0 1.723-1.398 3.12-3.121 3.12c-1.722 0-3.118-1.396-3.118-3.12H115.801z"/><path style="fill:#212121;" d="M115.801 67.351c0-1.723-1.398-3.12-3.121-3.12c-1.722 0-3.118 1.396-3.118 3.12H115.801z"/><path style="fill:#E53A35;" d="M100.182 29.184c-0.068 0-0.134 0.003-0.202 0.003v22.244h35.225 C135.203 39.143 119.524 29.184 100.182 29.184z"/><g><path style="fill:#FFFFFF;" d="M135.203 40.307c1.529 0 2.781 1.252 2.781 2.781v5.561c0 1.529-1.252 2.781-2.781 2.781H98.124 c-1.529 0-2.781-1.252-2.781-2.781v-5.561c0-1.529 1.252-2.781 2.781-2.781H135.203z"/></g><path style="fill:#212121;" d="M110.869 54.947c0 0.77-0.625 1.393-1.391 1.393c-0.768 0-1.391-0.624-1.391-1.393 c0-0.761 0.623-1.387 1.391-1.387C110.244 53.56 110.869 54.186 110.869 54.947z"/><path style="fill:#212121;" d="M125.701 54.947c0 0.77 0.621 1.393 1.393 1.393c0.765 0 1.388-0.624 1.388-1.393 c0-0.761-0.623-1.387-1.388-1.387C126.321 53.56 125.701 54.186 125.701 54.947z"/></g><g><rect x="55.897" y="72.518" style="fill:#00B4F0;" width="16.258" height="16.261"/><g><polygon style="fill:#F58B37;" points="65.753,78.77 65.753,72.518 62.121,72.518 62.121,78.77 55.897,78.77 55.897,82.402 62.121,82.402 62.121,88.78 65.753,88.78 65.753,82.402 72.156,82.402 72.156,78.77"/></g><rect x="70.041" y="72.518" style="opacity:0.15;fill:#221F1F;enable-background:new    ;" width="2.113" height="16.261"/></g><g><rect x="153.151" y="27.19" style="fill:#FFDF00;" width="30.493" height="61.457"/><g><polygon style="fill:#914295;" points="170.179,56.379 170.179,27.19 166.093,27.19 166.093,56.379 153.151,56.379 153.151,60.467 166.093,60.467 166.093,88.648 170.179,88.648 170.179,60.467 183.644,60.467 183.644,56.379"/></g><rect x="180.04" y="27.19" style="opacity:0.15;fill:#221F1F;enable-background:new    ;" width="3.604" height="61.457"/></g><rect x="3.535" y="-9.993" style="fill:none;" width="228.778" height="230.503"/></g><g id="Layer_1_1_"></g></svg>