<svg xmlns="http://www.w3.org/2000/svg" xmlns:xlink="http://www.w3.org/1999/xlink" version="1.1" id="Layer_1" x="0px" y="0px" viewBox="17.498 -9.993 228.778 230.503" style="enable-background:new 17.498 -9.993 228.778 230.503;" xml:space="preserve"><g id="_x31_"><rect x="17.498" y="-9.993" style="fill:none;" width="228.778" height="230.503"/><g><rect x="108.844" y="131.612" style="fill:#E53A35;" width="19.466" height="25.491"/><path style="fill:#212121;" d="M108.844 165.447v9.733c-7.423 0-13.441 6.018-13.441 13.441h13.441h19.466v-23.174H108.844z"/><rect x="108.844" y="157.104" style="fill:#FFFFFF;" width="19.466" height="8.343"/><rect x="132.944" y="131.612" style="fill:#E53A35;" width="19.466" height="25.491"/><rect x="132.944" y="131.612" style="opacity:0.15;fill:#221F1F;enable-background:new    ;" width="19.466" height="25.491"/><path style="fill:#212121;" d="M152.41 165.447v9.733c7.423 0 13.441 6.018 13.441 13.441H152.41h-19.466v-23.174H152.41z"/><rect x="132.944" y="157.104" style="fill:#FFFFFF;" width="19.466" height="8.343"/><g><path style="fill:none;stroke:#E53A35;stroke-width:11;stroke-linecap:round;stroke-miterlimit:10;" d="M153.378 84.601 c0 0 24.458 14.355 9.33 25.86"/><path style="opacity:0.15;fill:none;stroke:#221F1F;stroke-width:11;stroke-linecap:round;stroke-miterlimit:10;enable-background:new    ;" d=" M153.378 84.601c0 0 24.458 14.355 9.33 25.86"/></g><g><path style="fill:none;stroke:#E53A35;stroke-width:11;stroke-linecap:round;stroke-miterlimit:10;" d="M108.379 84.601 c0 0-24.458 14.355-9.33 25.86"/></g><path style="fill:#E53A35;" d="M165.385 106.591c0 18.94-15.349 34.289-34.289 34.289c-18.954 0-34.303-15.349-34.303-34.289 c0-10.995 5.172-20.784 13.214-27.065c5.81-4.534 13.13-7.238 21.089-7.238c10.274 0 19.481 4.506 25.748 11.661 C162.168 89.994 165.385 97.911 165.385 106.591z"/><rect x="96.792" y="106.584" style="fill:#212121;" width="68.594" height="11.124"/><rect x="123.211" y="106.584" style="fill:#F9CE1E;" width="14.832" height="11.124"/><path style="opacity:0.15;fill:#221F1F;enable-background:new    ;" d="M165.389 106.591c0 18.94-15.363 34.289-34.303 34.289 c-7.238 0-13.962-2.246-19.495-6.087c3.882 1.525 8.111 2.385 12.548 2.385c18.94 0 34.303-15.363 34.303-34.303 c0-5.324-1.22-10.357-3.383-14.836c-2.981 5.005-8.444 8.347-14.697 8.347h-0.194c-12.839 0-24.07-6.766-30.157-16.86 c5.81-4.534 13.13-7.238 21.089-7.238c4.441 0 8.666 0.849 12.547 2.381c-0.004-0.003-0.008-0.007-0.012-0.01 c0.36 0.139 0.707 0.291 1.054 0.43c0.069 0.028 0.139 0.055 0.208 0.097c0.36 0.166 0.721 0.333 1.081 0.499 c0.763 0.374 1.511 0.763 2.246 1.192c0.361 0.208 0.721 0.43 1.081 0.652c0.361 0.222 0.707 0.458 1.068 0.693 c0.347 0.222 0.693 0.471 1.026 0.735c0.277 0.208 0.555 0.416 0.818 0.624c1.054 0.804 2.066 1.705 3.009 2.662 c0.25 0.236 0.485 0.485 0.735 0.735c0.305 0.319 0.596 0.638 0.887 0.971C162.159 89.994 165.389 97.911 165.389 106.591z"/><ellipse style="fill:#EF9A9B;" cx="113.593" cy="56.519" rx="5.213" ry="5.089"/><path style="fill:#EF9A9B;" d="M152.874 56.519c0 2.813-2.34 5.089-5.216 5.089c-2.884 0-5.213-2.275-5.213-5.089 c0-2.811 2.331-5.089 5.213-5.089C150.533 51.431 152.874 53.709 152.874 56.519z"/><path style="fill:#FFFFFF;" d="M111.624 29.185c0 3.073-2.49 5.56-5.56 5.56c-3.075 0-5.564-2.487-5.564-5.56 c0-3.075 2.489-5.564 5.564-5.564C109.135 23.621 111.624 26.11 111.624 29.185z"/><g><g><path style="fill:#F7CBAE;" d="M130.626 40.307c-10.24 0-18.539 8.3-18.539 18.539v18.539h37.079V58.846 C149.165 48.608 140.866 40.307 130.626 40.307z"/></g></g><path style="opacity:0.15;fill:#221F1F;enable-background:new    ;" d="M145.978 75.685c0.763 0.36 1.511 0.749 2.246 1.192 C147.489 76.448 146.74 76.06 145.978 75.685z"/><g><g><path style="fill:#FFFFFF;" d="M135.724 57.92c-0.001 0-0.003 0-0.006 0H100.5c0 18.941 15.68 34.297 35.022 34.297 c0.046 0 0.09-0.001 0.136-0.003c0.022 0 0.044 0.003 0.067 0.003c9.471 0 17.149-7.677 17.149-17.149 C152.874 65.597 145.196 57.92 135.724 57.92z"/></g></g><ellipse style="fill:#EF9A9B;" cx="130.626" cy="57.918" rx="5.098" ry="4.172"/><path style="fill:#212121;" d="M134.335 63.481c0 2.048-1.661 3.708-3.709 3.708c-2.047 0-3.708-1.66-3.708-3.708H134.335z"/><path style="fill:#E53A35;" d="M114.144 29.184c-0.068 0-0.134 0.003-0.202 0.003v22.244h35.225 C149.165 39.143 133.487 29.184 114.144 29.184z"/><g><path style="fill:#FFFFFF;" d="M149.165 40.307c1.529 0 2.781 1.252 2.781 2.781v5.561c0 1.529-1.252 2.781-2.781 2.781h-37.079 c-1.529 0-2.781-1.252-2.781-2.781v-5.561c0-1.529 1.252-2.781 2.781-2.781H149.165z"/></g><path style="fill:#212121;" d="M123.211 54.208c0 0.77-0.625 1.393-1.391 1.393c-0.768 0-1.391-0.624-1.391-1.393 c0-0.761 0.623-1.387 1.391-1.387C122.586 52.821 123.211 53.447 123.211 54.208z"/><path style="fill:#212121;" d="M138.043 54.208c0 0.77 0.621 1.393 1.393 1.393c0.765 0 1.388-0.624 1.388-1.393 c0-0.761-0.623-1.387-1.388-1.387C138.664 52.821 138.043 53.447 138.043 54.208z"/></g></g><g id="Layer_1_1_"></g></svg>