<svg xmlns="http://www.w3.org/2000/svg" xmlns:xlink="http://www.w3.org/1999/xlink" version="1.1" x="0px" y="0px" viewBox="0 0 165 165" style="enable-background:new 0 0 165 165;" xml:space="preserve"><g id="_x34_"><g><g><g><g><path style="fill:#FFFFFF;" d="M50.384 49.2c0.869 0.307 1.818-0.15 2.127-1.014c0.949-2.664-0.438-5.602-3.084-6.547 c-0.002-0.002-0.008-0.002-0.008-0.002c-0.866-0.305-1.82 0.145-2.131 1.01c-0.308 0.869 0.145 1.826 1.013 2.139 c0.917 0.326 1.394 1.35 1.065 2.279c-0.312 0.869 0.145 1.822 1.012 2.131C50.38 49.2 50.384 49.2 50.384 49.2z"/></g></g></g><g><rect x="41.298" y="32.16" transform="matrix(0.3057 0.9521 -0.9521 0.3057 75.9583 -19.6884)" style="fill:#00BFF2;" width="20.363" height="20.159"/><g><polygon style="fill:#F1B31C;" points="52.842,42.978 61.419,40.224 60.627,37.76 52.051,40.515 49.387,32.219 46.95,33.002 49.616,41.296 41.434,43.923 42.225,46.39 50.407,43.762 53.177,52.388 55.613,51.607"/></g></g></g><g><g><rect x="48.354" y="69.719" transform="matrix(0.9847 0.1742 -0.1742 0.9847 13.8842 -9.7233)" style="fill:#B93A2C;" width="27.938" height="9"/><g><g><path style="fill:#DB974E;" d="M45.589 70.499c0.904 0.178 1.779-0.407 1.961-1.308c0.559-2.771-1.234-5.482-3.99-6.039 c-0.001-0.001-0.008-0.002-0.008-0.002c-0.902-0.177-1.78 0.404-1.964 1.305c-0.18 0.904 0.406 1.788 1.308 1.971 c0.953 0.193 1.573 1.137 1.38 2.102c-0.185 0.907 0.403 1.786 1.305 1.968C45.585 70.497 45.589 70.499 45.589 70.499z"/></g><g><path style="fill:#DB974E;" d="M44.224 75.563c2.425 0.477 4.781-1.095 5.266-3.52c0.492-2.431-1.083-4.798-3.514-5.29 l-4.961-0.999c-0.004 0-0.009-0.001-0.018-0.004c-2.424-0.478-4.783 1.097-5.27 3.521c-0.491 2.433 1.084 4.8 3.515 5.292 l4.961 0.996C44.212 75.562 44.218 75.561 44.224 75.563z"/></g><g><path style="fill:#FFFFFF;" d="M46.679 77.34c1.079 0.213 2.127-0.489 2.346-1.566l1.533-7.614 c0.219-1.081-0.48-2.134-1.563-2.35c-0.002-0.001-0.004 0-0.007-0.001c-1.078-0.213-2.125 0.486-2.342 1.562l-1.535 7.613 c-0.22 1.08 0.479 2.135 1.561 2.355C46.673 77.34 46.676 77.339 46.679 77.34z"/></g></g></g><g><path style="fill:#7D4A03;" d="M77.587 140.503c0-18.226-12.191-33-30.416-33c-18.226 0-33 14.774-33 33 c0 4.616 0.951 9.011 2.662 13h60.675C79.219 149.514 77.587 145.119 77.587 140.503z"/></g><g><path style="fill:#995C11;" d="M58.587 140.503c0-18.226-8.584-30-13.25-30.25c-18.199-0.976-31.166 12.024-31.166 30.25 c0 4.616 0.951 9.011 2.662 13h38.924C57.47 149.514 58.587 145.119 58.587 140.503z"/></g><rect x="85.779" y="112.525" style="fill:#E53935;" width="13.23" height="36"/><g><path style="fill:#212121;" d="M85.644 144.691v-9.666h13.5v18.5H76.977c0-4.166 4.332-9 9-9"/><rect x="85.644" y="128.359" style="fill:#FFFFFF;" width="13.5" height="6.666"/></g><rect x="68.321" y="112.525" style="fill:#E53935;" width="13.178" height="36"/><rect x="68.321" y="112.525" style="opacity:0.4;fill:#231F20;" width="13.178" height="36"/><g><path style="fill:#212121;" d="M68.16 144.691v-9.666h13.499v18.5H59.492c0-4.166 4.334-9 9-9"/><rect x="68.16" y="128.359" style="fill:#FFFFFF;" width="13.499" height="6.666"/><rect x="68.16" y="128.359" style="fill:#BDBDBD;" width="13.499" height="6.666"/></g><g><path style="fill:#E53935;" d="M61.809 101.549c3.28 12.564 16.068 20.142 28.564 16.925 c12.498-3.222 19.967-16.017 16.687-28.582c-3.284-12.571-16.073-20.152-28.565-16.929C65.99 76.184 58.524 88.98 61.809 101.549 z"/></g><g><polygon style="fill:#212121;" points="107.452,101.071 63.667,95.505 64.274,89.065 108.054,94.632"/></g><g><g><path style="fill:#F1B31C;" d="M59.669 93.943c-0.071 0.787 0.512 1.498 1.301 1.576l2.069 0.211 c0.789 0.078 1.492-0.502 1.568-1.292l0.555-5.93c0.075-0.787-0.509-1.497-1.294-1.574l-2.074-0.207 c-0.789-0.079-1.495 0.504-1.568 1.291L59.669 93.943z"/></g></g><polygon style="fill:#995C11;" points="17.003,100.67 8.003,109.67 20.67,116.004 23.337,113.004"/><circle style="fill:#995C11;" cx="24.337" cy="117.67" r="5.666"/><rect x="103.052" y="107.186" style="fill:#CEA050;" width="47.244" height="46.442"/><rect x="103.052" y="107.186" style="opacity:0.4;fill:#999999;" width="47.244" height="5.813"/><rect x="97.456" y="92.762" style="fill:#BDBDBD;" width="59.377" height="15.048"/><rect x="97.456" y="105.628" style="fill:#CCCCCC;" width="59.377" height="2.182"/><line style="opacity:0.4;fill:none;stroke:#999999;stroke-miterlimit:10;" x1="103.462" y1="122.711" x2="149.462" y2="122.711"/><line style="opacity:0.4;fill:none;stroke:#999999;stroke-miterlimit:10;" x1="103.462" y1="137.961" x2="149.462" y2="137.961"/><line style="opacity:0.4;fill:none;stroke:#999999;stroke-miterlimit:10;" x1="113.712" y1="108.711" x2="113.712" y2="122.711"/><line style="opacity:0.4;fill:none;stroke:#999999;stroke-miterlimit:10;" x1="139.212" y1="108.711" x2="139.212" y2="122.711"/><line style="opacity:0.4;fill:none;stroke:#999999;stroke-miterlimit:10;" x1="113.712" y1="137.961" x2="113.712" y2="153.211"/><line style="opacity:0.4;fill:none;stroke:#999999;stroke-miterlimit:10;" x1="139.212" y1="137.961" x2="139.212" y2="153.211"/><line style="opacity:0.4;fill:none;stroke:#999999;stroke-miterlimit:10;" x1="126.212" y1="122.961" x2="126.212" y2="137.961"/><g><g><g><path style="fill:#F7CAAD;" d="M89.294 49.18c-6.934-2.812-14.835 0.53-17.646 7.464L66.557 69.2l12.555 5.091c0 0 0 0 0 0 l0.001 0l12.555 5.091l5.091-12.555C99.57 59.892 96.228 51.992 89.294 49.18z"/></g></g><path style="fill:#BDBDBD;" d="M88.546 58.007c-0.773 1.906 0.188 4.089 2.135 4.879c1.953 0.792 4.156-0.109 4.928-2.014 c0.772-1.904-0.181-4.086-2.134-4.878C91.529 55.204 89.318 56.104 88.546 58.007z"/><path style="fill:#FFFFFF;" d="M105.217 46.867c-0.844 2.081 0.159 4.449 2.239 5.292c2.082 0.844 4.451-0.157 5.295-2.238 c0.844-2.083-0.158-4.451-2.24-5.296C108.431 43.782 106.061 44.784 105.217 46.867z"/><path style="fill:#E53935;" d="M103.511 46.173c0.046 0.019 0.09 0.039 0.136 0.058l-6.108 15.064l-23.855-9.673 C77.058 43.302 90.412 40.862 103.511 46.173z"/><g><path style="fill:#FFFFFF;" d="M76.738 44.089c-1.036-0.42-2.227 0.084-2.647 1.12l-1.527 3.767 c-0.42 1.036 0.084 2.227 1.12 2.647l25.111 10.182c1.036 0.42 2.227-0.084 2.647-1.12l1.527-3.767 c0.42-1.036-0.084-2.227-1.12-2.647L76.738 44.089z"/></g><path style="fill:#BDBDBD;" d="M92.989 62.374c-0.773 1.906 0.188 4.089 2.135 4.879c1.953 0.792 4.156-0.109 4.928-2.014 c0.772-1.904-0.181-4.086-2.134-4.878C95.972 59.571 93.761 60.471 92.989 62.374z"/><path style="fill:#BDBDBD;" d="M88.962 60.742c-0.773 1.906 0.188 4.089 2.135 4.879c1.953 0.792 4.156-0.109 4.928-2.014 c0.772-1.904-0.181-4.086-2.134-4.878C91.945 57.938 89.734 58.838 88.962 60.742z"/><path style="fill:#EF9A9A;" d="M88.608 57.674L88.608 57.674c1.91 0.774 2.826 2.946 2.053 4.853 c-0.774 1.909-2.943 2.827-4.852 2.053l-0.001 0L88.608 57.674z"/><ellipse transform="matrix(-0.9267 -0.3758 0.3758 -0.9267 117.2079 134.7638)" style="fill:#EF9A9A;" cx="71.745" cy="55.952" rx="3.726" ry="3.049"/><path style="fill:#212121;" d="M80.454 56.558c-0.211 0.522-0.803 0.774-1.326 0.562c-0.518-0.21-0.768-0.804-0.557-1.325 c0.209-0.516 0.803-0.768 1.321-0.558C80.415 55.448 80.663 56.042 80.454 56.558z"/><path style="fill:#FFFFFF;" d="M100.795 67.745l-22.599-9.172c-0.001 0-0.002-0.001-0.003-0.001 c-6.077-2.466-13.11 0.734-15.709 7.149c-2.599 6.415 0.221 13.614 6.298 16.081c0.015 0.006 0.03 0.009 0.044 0.015 c0.028 0.013 0.057 0.026 0.086 0.037C81.323 86.892 95.598 80.575 100.795 67.745z"/><path style="fill:#212121;" d="M71.148 60.527l2.415 0.88c-0.496 1.363-1.971 2.081-3.34 1.66L71.148 60.527z"/></g><g><polygon style="fill:#E53935;" points="98.438,90.508 62.177,83.839 63.744,74.976 100.007,81.646"/><g><g><path style="fill:#F9CE1D;" d="M59.931 77.976c0.904 0.177 1.779-0.407 1.961-1.308c0.559-2.771-1.234-5.482-3.99-6.039 c-0.001-0.001-0.008-0.002-0.008-0.002c-0.902-0.177-1.78 0.404-1.964 1.305c-0.18 0.904 0.406 1.788 1.308 1.971 c0.953 0.193 1.573 1.137 1.38 2.102c-0.185 0.907 0.403 1.786 1.305 1.968C59.927 77.974 59.931 77.976 59.931 77.976z"/></g><g><path style="fill:#F9CE1D;" d="M58.566 83.04c2.425 0.477 4.781-1.095 5.266-3.52c0.492-2.431-1.083-4.798-3.514-5.29 l-4.961-0.999c-0.004 0-0.009-0.001-0.018-0.004c-2.424-0.478-4.783 1.097-5.27 3.521c-0.491 2.433 1.084 4.8 3.515 5.292 l4.961 0.996C58.554 83.038 58.56 83.038 58.566 83.04z"/></g><g><path style="fill:#FFFFFF;" d="M61.07 84.963c1.08 0.213 2.129-0.488 2.346-1.563l1.532-7.617 c0.221-1.08-0.478-2.132-1.561-2.349c-0.002-0.001-0.004-0.001-0.008-0.001c-1.079-0.215-2.125 0.483-2.344 1.561l-1.534 7.614 c-0.218 1.08 0.481 2.135 1.559 2.354C61.067 84.963 61.068 84.964 61.07 84.963z"/></g></g></g></g><rect x="0" y="0" style="fill:none;" width="165" height="165"/></g><g id="Layer_1"></g></svg>