<svg xmlns="http://www.w3.org/2000/svg" xmlns:xlink="http://www.w3.org/1999/xlink" version="1.1" x="0px" y="0px" viewBox="0 0 165 165" style="enable-background:new 0 0 165 165;" xml:space="preserve"><g id="_x36_"><g><g><rect x="89.661" y="16.868" transform="matrix(-0.7712 0.6367 -0.6367 -0.7712 193.9913 -15.8383)" style="fill:#00BFF2;" width="20.363" height="20.158"/><g><polygon style="fill:#F1B31C;" points="99.659,28.488 105.395,35.432 107.39,33.785 101.655,26.84 108.377,21.291 106.745,19.32 100.028,24.865 94.556,18.241 92.56,19.886 98.032,26.513 91.043,32.282 92.674,34.257"/></g></g></g><g><g><rect x="46.811" y="76.01" transform="matrix(1 0.0088 -0.0088 1 0.7102 -0.5312)" style="fill:#B93A2C;" width="27.938" height="9"/><g><g><path style="fill:#DB974E;" d="M43.66 79.612c0.921 0.025 1.687-0.696 1.717-1.614c0.092-2.825-2.125-5.202-4.934-5.295 c-0.001 0-0.008-0.001-0.008-0.001c-0.918-0.026-1.688 0.693-1.721 1.612c-0.028 0.922 0.696 1.696 1.616 1.728 c0.972 0.033 1.739 0.861 1.709 1.845c-0.033 0.925 0.693 1.695 1.613 1.724C43.657 79.611 43.66 79.612 43.66 79.612z"/></g><g><path style="fill:#DB974E;" d="M43.153 84.832c2.47 0.069 4.533-1.871 4.611-4.343c0.083-2.479-1.862-4.553-4.341-4.635 l-5.058-0.164c-0.004 0.001-0.009 0-0.018-0.001c-2.469-0.07-4.535 1.873-4.615 4.345c-0.081 2.481 1.864 4.554 4.342 4.637 l5.057 0.161C43.141 84.833 43.147 84.831 43.153 84.832z"/></g><g><path style="fill:#FFFFFF;" d="M45.868 86.179c1.099 0.031 2.017-0.834 2.054-1.933l0.251-7.762 c0.037-1.102-0.827-2.025-1.93-2.059c-0.002-0.001-0.004 0-0.007 0c-1.099-0.032-2.015 0.831-2.051 1.929l-0.253 7.763 c-0.038 1.101 0.826 2.026 1.929 2.064C45.862 86.179 45.865 86.177 45.868 86.179z"/></g></g></g><g><path style="fill:#7D4A03;" d="M77.587 140.503c0-18.226-12.191-33-30.416-33c-18.226 0-33 14.774-33 33 c0 4.616 0.951 9.011 2.662 13h60.675C79.219 149.514 77.587 145.119 77.587 140.503z"/></g><g><path style="fill:#995C11;" d="M58.587 140.503c0-18.226-8.584-30-13.25-30.25c-18.199-0.976-31.166 12.024-31.166 30.25 c0 4.616 0.951 9.011 2.662 13h38.924C57.47 149.514 58.587 145.119 58.587 140.503z"/></g><rect x="85.779" y="112.525" style="fill:#E53935;" width="13.23" height="36"/><g><path style="fill:#212121;" d="M85.644 144.691v-9.666h13.5v18.5H76.977c0-4.166 4.332-9 9-9"/><rect x="85.644" y="128.359" style="fill:#FFFFFF;" width="13.5" height="6.666"/></g><rect x="68.321" y="112.525" style="fill:#E53935;" width="13.178" height="36"/><rect x="68.321" y="112.525" style="opacity:0.4;fill:#231F20;" width="13.178" height="36"/><g><path style="fill:#212121;" d="M68.16 144.691v-9.666h13.499v18.5H59.492c0-4.166 4.334-9 9-9"/><rect x="68.16" y="128.359" style="fill:#FFFFFF;" width="13.499" height="6.666"/><rect x="68.16" y="128.359" style="fill:#BDBDBD;" width="13.499" height="6.666"/></g><g><path style="fill:#E53935;" d="M61.809 101.549c3.28 12.564 16.068 20.142 28.564 16.925 c12.498-3.222 19.967-16.017 16.687-28.582c-3.284-12.571-16.073-20.152-28.565-16.929C65.99 76.184 58.524 88.98 61.809 101.549 z"/></g><g><polygon style="fill:#212121;" points="107.452,101.071 63.667,95.505 64.274,89.065 108.054,94.632"/></g><g><g><path style="fill:#F1B31C;" d="M59.669 93.943c-0.071 0.787 0.512 1.498 1.301 1.576l2.069 0.211 c0.789 0.078 1.492-0.502 1.568-1.292l0.555-5.93c0.075-0.787-0.509-1.497-1.294-1.574l-2.074-0.207 c-0.789-0.079-1.495 0.504-1.568 1.291L59.669 93.943z"/></g></g><polygon style="fill:#995C11;" points="17.003,100.67 8.003,109.67 20.67,116.004 23.337,113.004"/><circle style="fill:#995C11;" cx="24.337" cy="117.67" r="5.666"/><rect x="103.052" y="107.186" style="fill:#CEA050;" width="47.244" height="46.442"/><rect x="103.052" y="107.186" style="opacity:0.4;fill:#999999;" width="47.244" height="5.813"/><rect x="97.456" y="92.762" style="fill:#BDBDBD;" width="59.377" height="15.048"/><rect x="97.456" y="105.628" style="fill:#CCCCCC;" width="59.377" height="2.182"/><line style="opacity:0.4;fill:none;stroke:#999999;stroke-miterlimit:10;" x1="103.462" y1="122.711" x2="149.462" y2="122.711"/><line style="opacity:0.4;fill:none;stroke:#999999;stroke-miterlimit:10;" x1="103.462" y1="137.961" x2="149.462" y2="137.961"/><line style="opacity:0.4;fill:none;stroke:#999999;stroke-miterlimit:10;" x1="113.712" y1="108.711" x2="113.712" y2="122.711"/><line style="opacity:0.4;fill:none;stroke:#999999;stroke-miterlimit:10;" x1="139.212" y1="108.711" x2="139.212" y2="122.711"/><line style="opacity:0.4;fill:none;stroke:#999999;stroke-miterlimit:10;" x1="113.712" y1="137.961" x2="113.712" y2="153.211"/><line style="opacity:0.4;fill:none;stroke:#999999;stroke-miterlimit:10;" x1="139.212" y1="137.961" x2="139.212" y2="153.211"/><line style="opacity:0.4;fill:none;stroke:#999999;stroke-miterlimit:10;" x1="126.212" y1="122.961" x2="126.212" y2="137.961"/><g><g><g><path style="fill:#F7CAAD;" d="M101.826 56.6c-3.895-6.389-12.231-8.411-18.62-4.516l-11.568 7.052l7.052 11.567l0 0.001 c0 0 0 0 0 0.001l7.052 11.567l11.568-7.052C103.7 71.326 105.721 62.989 101.826 56.6z"/></g></g><path style="fill:#BDBDBD;" d="M95.968 63.245c-1.756 1.07-2.285 3.396-1.191 5.19c1.097 1.799 3.403 2.388 5.159 1.318 c1.754-1.069 2.289-3.39 1.192-5.189C100.034 62.77 97.722 62.176 95.968 63.245z"/><circle style="fill:#FFFFFF;" cx="118.11" cy="67.697" r="4.064"/><path style="fill:#E53935;" d="M115.037 62.654c0.026 0.042 0.049 0.085 0.075 0.128l-13.879 8.462L87.833 49.264 C95.5 44.59 107.68 50.585 115.037 62.654z"/><g><path style="fill:#FFFFFF;" d="M94.774 45.032c-0.582-0.954-1.839-1.259-2.793-0.677l-3.47 2.116 c-0.954 0.582-1.259 1.839-0.677 2.793L101.938 72.4c0.582 0.954 1.839 1.259 2.793 0.677l3.47-2.116 c0.954-0.582 1.259-1.839 0.677-2.793L94.774 45.032z"/></g><path style="fill:#BDBDBD;" d="M96.935 69.399c-1.756 1.07-2.285 3.396-1.191 5.19c1.097 1.799 3.403 2.388 5.159 1.318 c1.754-1.069 2.289-3.39 1.192-5.189C101.001 68.924 98.689 68.33 96.935 69.399z"/><path style="fill:#BDBDBD;" d="M94.673 65.689c-1.756 1.07-2.285 3.396-1.191 5.19c1.097 1.799 3.403 2.388 5.159 1.318 c1.754-1.069 2.289-3.39 1.192-5.189C98.739 65.214 96.427 64.62 94.673 65.689z"/><path style="fill:#EF9A9A;" d="M96.216 63.014L96.216 63.014c1.073 1.76 0.515 4.049-1.242 5.121 c-1.759 1.072-4.048 0.518-5.12-1.241l0-0.001L96.216 63.014z"/><ellipse transform="matrix(-0.5205 -0.8538 0.8538 -0.5205 83.2178 149.9039)" style="fill:#EF9A9A;" cx="83.697" cy="51.587" rx="3.726" ry="3.049"/><path style="fill:#212121;" d="M90.332 57.261c-0.48 0.293-1.106 0.143-1.4-0.339c-0.291-0.477-0.139-1.103 0.342-1.396 c0.475-0.29 1.102-0.139 1.393 0.338C90.961 56.346 90.807 56.971 90.332 57.261z"/><path style="fill:#FFFFFF;" d="M100.007 78.363L87.318 57.535c-0.001-0.001-0.001-0.002-0.001-0.003 c-3.412-5.601-10.968-7.219-16.877-3.615c-5.909 3.605-7.932 11.067-4.52 16.668c0.008 0.013 0.018 0.025 0.026 0.039 c0.015 0.027 0.03 0.054 0.047 0.081C72.961 82.144 88.19 85.573 100.007 78.363z"/><path style="fill:#212121;" d="M80.493 54.906l1.416 2.145c-1.21 0.799-2.823 0.498-3.672-0.656L80.493 54.906z"/></g><g><polygon style="fill:#E53935;" points="99.093,90.596 62.229,90.022 62.307,81.022 99.173,81.595"/><g><g><path style="fill:#F9CE1D;" d="M59.042 84.611c0.921 0.025 1.687-0.696 1.717-1.614c0.092-2.825-2.125-5.202-4.934-5.295 c-0.001 0-0.008-0.001-0.008-0.001c-0.918-0.026-1.688 0.693-1.721 1.612c-0.028 0.922 0.696 1.696 1.616 1.728 c0.972 0.033 1.739 0.861 1.709 1.845c-0.033 0.925 0.693 1.695 1.613 1.724C59.038 84.61 59.042 84.611 59.042 84.611z"/></g><g><path style="fill:#F9CE1D;" d="M58.535 89.831c2.47 0.069 4.533-1.871 4.611-4.343c0.083-2.479-1.862-4.553-4.341-4.635 l-5.058-0.164c-0.004 0.001-0.009 0-0.018-0.001c-2.469-0.07-4.535 1.873-4.615 4.345c-0.081 2.481 1.864 4.555 4.342 4.637 l5.057 0.161C58.522 89.832 58.529 89.831 58.535 89.831z"/></g><g><path style="fill:#FFFFFF;" d="M61.323 91.313c1.1 0.032 2.019-0.834 2.055-1.93l0.249-7.765 c0.039-1.102-0.825-2.023-1.928-2.058c-0.002-0.001-0.004 0-0.008 0.001c-1.1-0.034-2.015 0.828-2.053 1.928l-0.253 7.763 c-0.036 1.101 0.828 2.026 1.927 2.063C61.32 91.314 61.321 91.315 61.323 91.313z"/></g></g></g></g><rect x="0" y="0" style="fill:none;" width="165" height="165"/></g><g id="Layer_1"></g></svg>