<svg xmlns="http://www.w3.org/2000/svg" xmlns:xlink="http://www.w3.org/1999/xlink" viewBox="0 0 24 24"><symbol id="a" viewBox="-38.001 -31.09 76 62.179"><path fill="#F9D099" d="M-8.065 6.523h18.6v4.653h-18.6z"/><path fill="#404040" d="M2.482-31.09H-34.45c-.603 0-1.09.48-1.09 1.073a1.08 1.08 0 0 0 1.09 1.072H2.48c1.324 0 2.804 2.44 2.804 5.705 0 2.654-1.2 4.348-2.025 4.348-.558 0-1.4-1.3-1.4-3.264 0-1.547.68-2.396.903-2.396.602 0 1.09-.48 1.09-1.072a1.08 1.08 0 0 0-1.09-1.073c-1.758 0-3.083 1.952-3.083 4.542 0 3.084 1.54 5.41 3.58 5.41 2.358 0 4.205-2.852 4.205-6.494 0-4.4-2.19-7.85-4.983-7.85zm-36.932 0c-2.024 0-3.55 2.304-3.55 5.356 0 2.566 1.313 4.5 3.055 4.5 1.52 0 2.664-1.64 2.664-3.814 0-.592-.49-1.072-1.09-1.072-.604 0-1.09.48-1.09 1.072 0 1.012-.384 1.603-.544 1.68-.16-.01-.82-.846-.82-2.365 0-1.992.888-3.21 1.372-3.21.6 0 1.088-.48 1.088-1.073s-.487-1.074-1.09-1.074z"/><path fill="#E53935" d="M-2.752-27.266c-3.644 0-6.625 2.933-6.625 6.52V1.616c0 3.585 2.98 6.518 6.625 6.518H21.46c3.647 0 6.63-2.933 6.63-6.518v-19.962l-5.733-8.92h-25.11z"/><path fill="#822B1F" d="M27.772-.865c-4.14-5.15-5.84-7.22-8.625-13.445-.876-1.957-17.583-10.7-26.737-10.87-1.104 1.167-1.787 2.723-1.787 4.432V1.617c0 3.585 2.98 6.518 6.625 6.518H21.46c3.647 0 6.63-2.933 6.63-6.518v-1.85c-.123-.19-.162-.438-.318-.632z"/><path fill="none" stroke="#F1B31C" stroke-width="3.5" stroke-linecap="round" stroke-miterlimit="10" d="M-8.065-1.23v3.96a6.287 6.287 0 0 0 6.287 6.287h23.256a6.287 6.287 0 0 0 6.287-6.287V1.677"/><path fill="#DA4637" d="M7.21-21.59c0-3.122-2.594-5.676-5.765-5.676h-25.1c-3.172 0-5.766 2.554-5.766 5.677v15.47c0 3.123 2.592 5.677 5.763 5.677H1.446C4.616-.445 7.21-3 7.21-6.123V-21.59z"/><path fill="#404040" d="M4.99-14.59h8.085v4.464H4.99zm-16.035 0h8.29v4.464h-8.29z"/><path fill="#999" d="M4.99-14.59h8.085v4.464H4.99zm-16.035 0h8.29v4.464h-8.29z"/><path fill="#F1B31C" d="M-3.345-14.707c0-.628.523-1.142 1.16-1.142H4.42c.637 0 1.16.516 1.16 1.144v4.698c0 .63-.523 1.143-1.16 1.143h-6.605c-.638 0-1.16-.514-1.16-1.142v-4.697z"/><path fill="#E0E0E0" d="M-10.636-22.357a.98.98 0 0 0-.988.968 1.05 1.05 0 0 1-1.054 1.038h-.005a.98.98 0 0 0-.988.97.98.98 0 0 0 .984.977h.007c1.664 0 3.023-1.33 3.03-2.972a.982.982 0 0 0-.982-.98h-.006z"/><path fill="none" stroke="#FACB43" stroke-width="2.616" stroke-linecap="round" stroke-miterlimit="10" d="M-11.82-17.497"/><path fill="#E0E0E0" d="M-14.1-25.464c-1.636 0-2.962 1.303-2.966 2.914l-.006 2.957c-.003 1.612 1.32 2.922 2.96 2.925h.005c1.636 0 2.962-1.303 2.966-2.914l.004-2.957c.003-1.61-1.32-2.92-2.96-2.923h-.005z"/><path fill="#F1B31C" d="M-16.402-18.807c-.727 0-1.316.58-1.318 1.294-.002.717.587 1.3 1.316 1.3l4.58.013h.004c.727 0 1.315-.578 1.318-1.294a1.31 1.31 0 0 0-1.315-1.302l-4.58-.01h-.005z"/><path fill="#DA4637" d="M19.147-14.31l-9.972.485-2.058 2.795-.4 6.412-4.5 3.213-24.158-.35s-.485-24.857 0-24.887c.48-.027 38.383.054 38.73-.264.347-.318 2.356 12.596 2.356 12.596z"/><path fill="#E53935" d="M7.21-21.59c0-3.122-2.594-5.676-5.765-5.676h-25.1c-3.172 0-5.766 2.554-5.766 5.677v15.47c0 3.123 2.592 5.677 5.763 5.677H1.446C4.616-.445 7.21-3 7.21-6.123V-21.59z"/><path fill="none" d="M.83-.134h15.72a5.145 5.145 0 0 1 5.144 5.144v10.185"/><path fill="#E53935" d="M.83-3.54h15.72c4.715 0 8.55 3.835 8.55 8.55v10.185h-6.813V5.01a1.74 1.74 0 0 0-1.737-1.737H.83V-3.54z"/><path opacity=".11" d="M.83-3.54h15.72c4.715 0 8.55 3.835 8.55 8.55v10.185h-6.813V5.01a1.74 1.74 0 0 0-1.737-1.737H.83V-3.54z"/><path fill="#E53935" d="M18.18-9.075c0-8.7-7.055-15.755-15.756-15.755S-13.33-17.777-13.33-9.075-6.277 6.68 2.424 6.68 18.18-.375 18.18-9.076z"/><path fill="#212121" d="M-15.14-9.075v-5.11h33.825v5.11z"/><path fill="#F9CE1D" d="M-2.578-9.075v-5.11h6.813v5.11z"/><path opacity=".11" d="M8.187 5.587c4.107-2.844 6.8-7.586 6.8-12.96 0-8.7-7.055-15.754-15.756-15.754-2.033 0-3.975.39-5.76 1.092a15.68 15.68 0 0 1 8.956-2.795c8.7 0 15.755 7.054 15.755 15.755 0 6.666-4.143 12.36-9.992 14.662z"/><path fill="#F9CE1D" d="M21.538 15.714a1.272 1.272 0 0 0-1.275-1.265c-2.15.003-3.9 1.747-3.898 3.89v.005a1.272 1.272 0 0 0 2.543-.006c0-.74.61-1.347 1.36-1.35.704 0 1.27-.57 1.27-1.272v-.006zm3.984.25a3.422 3.422 0 0 0-3.425-3.4 3.42 3.42 0 0 0-3.413 3.427l.007 3.853v.015a3.42 3.42 0 0 0 3.426 3.396 3.418 3.418 0 0 0 3.416-3.422l-.008-3.85v-.015z"/><path fill="#fff" d="M18.286 15.195a1.28 1.28 0 0 1-1.277-1.277V12.64a1.28 1.28 0 0 1 1.275-1.276H25.1a1.28 1.28 0 0 1 1.276 1.277v1.28a1.28 1.28 0 0 1-1.277 1.276h-6.815z"/><path fill="#EF9A9A" d="M6.61 14.116c0-1.452 1.204-2.625 2.69-2.625 1.485 0 2.69 1.176 2.69 2.627 0 1.45-1.206 2.626-2.69 2.626-1.486 0-2.69-1.175-2.69-2.626zm-17.576 0c0-1.452 1.208-2.625 2.69-2.625 1.49 0 2.69 1.176 2.69 2.627 0 1.45-1.2 2.626-2.69 2.626-1.483 0-2.69-1.175-2.69-2.626z"/><path fill="#fff" d="M10.315 28.22a2.868 2.868 0 0 1 5.738 0 2.87 2.87 0 0 1-5.738 0z"/><path fill="#F7CAAD" d="M.51 22.48c-5.28 0-9.563-4.282-9.563-9.564V3.352h19.13v9.564c0 5.282-4.283 9.564-9.566 9.564z"/><path opacity=".15" fill="#231F20" d="M-.395 10.764c0 .98-.002.98-.003.98-4.886 0-8.847-4.212-8.847-9.1 0-4.885 3.96-8.972 8.847-8.972.012 0 .023-.06.035-.06.023-.002.046.216.07.216 9.98 0 18.068 7.914 18.068 16.935H-.395z"/><path fill="#fff" d="M-2.117 13.394h-.002c-4.884 0-8.845-3.96-8.845-8.847S-7.005-4.3-2.12-4.3h.106c9.98 0 18.07 7.922 18.068 17.694h-18.17z"/><path fill="#EF9A9A" d="M-2.12 13.395c0-1.19 1.178-2.153 2.632-2.153 1.453 0 2.63.964 2.63 2.153 0 1.19-1.177 2.15-2.63 2.15-1.453 0-2.63-.96-2.63-2.15z"/><path fill="#212121" d="M-1.402 10.525a1.913 1.913 0 0 1 3.826 0H-1.4z"/><path fill="#E53935" d="M9.015 28.22c.035 0 .07-.003.104-.003V16.742H-9.055c0 6.34 8.09 11.477 18.068 11.477z"/><path fill="#fff" d="M-9.053 22.48c-.79 0-1.435-.645-1.435-1.434v-2.87a1.44 1.44 0 0 1 1.435-1.434h19.13a1.44 1.44 0 0 1 1.434 1.435v2.87c0 .788-.644 1.434-1.433 1.434h-19.13z"/><path fill="#212121" d="M4.337 15.31a.72.72 0 0 1 .717-.72.716.716 0 1 1-.716.72zm-7.652 0a.718.718 0 0 0-1.435 0 .717.717 0 0 0 1.436 0z"/><path fill="#E53935" d="M19.147-14.31l-9.972.485-2.058 2.795-.4 6.412-4.5 3.213-24.71.142s.07-25.35.552-25.378c.48-.03 38.383.052 38.73-.266.347-.32 2.356 12.595 2.356 12.595z"/><path fill="#404040" d="M33.018-31.09H-4.754c-.602 0-1.09.48-1.09 1.073a1.08 1.08 0 0 0 1.09 1.072h37.77c1.324 0 2.804 2.44 2.804 5.705 0 2.45-1.088 4.348-2.025 4.348-.558 0-1.4-1.3-1.4-3.264 0-1.547.677-2.396.902-2.396.602 0 1.09-.48 1.09-1.072a1.08 1.08 0 0 0-1.09-1.073c-1.757 0-3.082 1.952-3.082 4.542 0 3.084 1.54 5.41 3.58 5.41 2.358 0 4.203-2.852 4.203-6.494 0-4.4-2.187-7.85-4.98-7.85zm-37.772 0c-2.022 0-3.548 2.304-3.548 5.356 0 2.566 1.315 4.5 3.06 4.5 1.517 0 2.66-1.64 2.66-3.814A1.08 1.08 0 0 0-3.67-26.12c-.6 0-1.09.48-1.09 1.072 0 1.01-.383 1.603-.542 1.68-.16-.01-.82-.846-.82-2.365 0-1.992.886-3.21 1.368-3.21.602 0 1.09-.48 1.09-1.073s-.488-1.074-1.09-1.074z"/><path opacity=".11" d="M8.264-14.427c-1.174-4.862-3.628-9.27-6.97-12.84h21.063l5.73 8.92v19.96l-9.228-14.6-10.597-1.44z"/><path fill="none" stroke="#F1B31C" stroke-width="3.5" stroke-linecap="round" stroke-miterlimit="10" d="M6.127-11.583l1.726-1.726c.35-.35.825-.545 1.32-.545h8.11c.64 0 1.234.327 1.576.866l8.905 14.03M-29.743-11.512v3.96a6.287 6.287 0 0 0 6.287 6.288H-.2a6.287 6.287 0 0 0 6.287-6.287v-3.54"/></symbol><use xlink:href="#a" width="76" height="62.179" x="-38.001" y="-31.09" transform="matrix(.316 0 0 -.316 12 12)" overflow="visible"/></svg>