<svg xmlns="http://www.w3.org/2000/svg" viewBox="14.557 -9.993 228.778 230.503"><path fill="#e53a35" d="M105.903 131.612h19.466v25.49H105.9z"/><path d="M105.903 165.447v9.733c-7.423 0-13.44 6.018-13.44 13.44h32.906v-23.173H105.9z" fill="#212121"/><path fill="#FFF" d="M105.903 157.104h19.466v8.343H105.9z"/><path fill="#e53a35" d="M130.004 131.612h19.466v25.49h-19.466z"/><path opacity=".15" fill="#221f1f" d="M130.004 131.612h19.466v25.49h-19.466z"/><path d="M149.47 165.447v9.733c7.422 0 13.44 6.018 13.44 13.44h-32.907v-23.173h19.466z" fill="#212121"/><path fill="#FFF" d="M130.004 157.104h19.466v8.343h-19.466z"/><path d="M105.903 84.6s-11.9 20.49-28.798 11.787" fill="none" stroke="#e53a35" stroke-width="11" stroke-linecap="round" stroke-miterlimit="10"/><circle cx="77.105" cy="95.531" r="8.558" fill="#FFF"/><path d="M76.323 88.145c-.147 1.203-5.67 1.233-7.045 1.065-1.375-.168-2.37-1.278-2.225-2.482.147-1.203 1.38-2.042 2.755-1.875 1.374.168 6.662 2.088 6.515 3.292z" fill="#f9ce1e"/><path d="M84.545 91.2c0 3.52-4.447 6.372-9.93 6.372-5.484 0-9.93-2.852-9.93-6.37s4.447-4.144 9.93-4.144 9.93.624 9.93 4.143z" fill="#f9ce1e"/><g fill="none" stroke-width="11" stroke-linecap="round" stroke-miterlimit="10"><path d="M150.437 84.6s24.458 14.356 9.33 25.86" stroke="#e53a35"/><path d="M150.437 84.6s24.458 14.356 9.33 25.86" opacity=".15" stroke="#221f1f"/></g><path d="M162.445 106.59c0 18.94-15.35 34.29-34.29 34.29-18.953 0-34.302-15.35-34.302-34.29 0-10.994 5.172-20.783 13.214-27.064a34.16 34.16 0 0 1 21.09-7.238c10.273 0 19.48 4.506 25.747 11.66a34.12 34.12 0 0 1 8.54 22.643z" fill="#e53a35"/><path fill="#212121" d="M93.85 106.584h68.595v11.124H93.85z"/><path fill="#f9ce1e" d="M120.27 106.584h14.832v11.124H120.27z"/><path d="M162.45 106.59c0 18.94-15.364 34.29-34.304 34.29a34.078 34.078 0 0 1-19.495-6.087 34.242 34.242 0 0 0 12.55 2.385c18.94 0 34.304-15.363 34.304-34.303 0-5.324-1.22-10.357-3.383-14.836a17.07 17.07 0 0 1-14.697 8.344h-.194c-12.84 0-24.07-6.766-30.158-16.86a34.16 34.16 0 0 1 21.09-7.238c4.44 0 8.667.85 12.548 2.38-.004-.002-.008-.006-.012-.01.36.14.707.292 1.054.43.068.03.138.056.207.098l1.08.5a34.936 34.936 0 0 1 3.327 1.843c.36.22.707.457 1.068.692.347.22.693.47 1.026.734.276.208.554.416.817.624a28.63 28.63 0 0 1 3.01 2.662c.25.236.484.485.734.735.307.32.598.638.89.97 5.31 6.046 8.54 13.963 8.54 22.643z" opacity=".15" fill="#221f1f"/><ellipse cx="110.652" cy="56.519" rx="5.213" ry="5.089" fill="#ef9a9b"/><path d="M149.934 56.52c0 2.812-2.34 5.088-5.216 5.088-2.884 0-5.213-2.275-5.213-5.09 0-2.81 2.33-5.088 5.213-5.088 2.874 0 5.216 2.28 5.216 5.09z" fill="#ef9a9b"/><path d="M108.683 29.185a5.56 5.56 0 0 1-5.56 5.56 5.56 5.56 0 0 1-5.564-5.56 5.56 5.56 0 0 1 5.56-5.564 5.56 5.56 0 0 1 5.56 5.567z" fill="#FFF"/><path d="M127.686 40.307c-10.24 0-18.54 8.3-18.54 18.54v18.538h37.08v-18.54c0-10.237-8.3-18.538-18.54-18.538z" fill="#f7cbae"/><path d="M143.037 75.685c.763.36 1.51.75 2.246 1.192a35.172 35.172 0 0 0-2.246-1.192z" opacity=".15" fill="#221f1f"/><path d="M132.784 57.92H97.558c0 18.94 15.68 34.297 35.023 34.297.05 0 .09 0 .14-.003.02 0 .043.003.066.003 9.47 0 17.15-7.677 17.15-17.15 0-9.47-7.68-17.147-17.15-17.147z" fill="#FFF"/><ellipse cx="127.686" cy="57.918" rx="5.098" ry="4.172" fill="#ef9a9b"/><path d="M131.395 63.48a3.71 3.71 0 0 1-7.417 0h7.417z" fill="#212121"/><path d="M111.204 29.184c-.068 0-.134.003-.202.003V51.43h35.225c-.002-12.287-15.68-22.246-35.023-22.246z" fill="#e53a35"/><path d="M146.225 40.307a2.79 2.79 0 0 1 2.78 2.78v5.562a2.79 2.79 0 0 1-2.78 2.78h-37.08a2.79 2.79 0 0 1-2.78-2.78v-5.564a2.79 2.79 0 0 1 2.78-2.78h37.08z" fill="#FFF"/><path d="M118.417 55.134a1.392 1.392 0 0 1-2.782 0c0-.76.623-1.387 1.39-1.387.766 0 1.392.626 1.392 1.387zm14.83 0z" fill="#212121"/><path fill="#00b4f0" d="M66.92 72.518h16.257v16.26H66.92z"/><path fill="#f58b37" d="M76.775 78.77v-6.252h-3.63v6.252H66.92v3.632h6.223v6.378h3.63v-6.378h6.404V78.77z"/><path opacity=".15" fill="#221f1f" d="M81.063 72.518h2.113v16.26h-2.113z"/><path fill="none" d="M14.557-9.993h228.778V220.51H14.557z"/></svg>