<svg xmlns="http://www.w3.org/2000/svg" xmlns:xlink="http://www.w3.org/1999/xlink" version="1.1" x="0px" y="0px" viewBox="0 0 165 165" style="enable-background:new 0 0 165 165;" xml:space="preserve"><g id="_x31_"><g><g><rect x="42.746" y="99.1" transform="matrix(0.7634 -0.6459 0.6459 0.7634 -53.4979 61.1432)" style="fill:#B93A2C;" width="27.938" height="9"/><g><g><path style="fill:#DB974E;" d="M43.158 114.091c0.714-0.582 0.824-1.628 0.248-2.344c-1.774-2.201-5.004-2.555-7.195-0.792 c-0.001 0-0.007 0.005-0.007 0.005c-0.713 0.58-0.827 1.627-0.252 2.344c0.58 0.717 1.634 0.831 2.352 0.255 c0.758-0.61 1.88-0.483 2.499 0.283c0.579 0.722 1.631 0.832 2.348 0.254C43.154 114.093 43.158 114.091 43.158 114.091z"/></g><g><path style="fill:#DB974E;" d="M46.18 118.377c1.917-1.56 2.214-4.376 0.659-6.3c-1.555-1.933-4.382-2.234-6.314-0.679 l-3.94 3.176c-0.002 0.003-0.006 0.006-0.014 0.011c-1.916 1.559-2.214 4.379-0.661 6.304c1.557 1.933 4.385 2.235 6.316 0.68 l3.937-3.178C46.171 118.386 46.175 118.381 46.18 118.377z"/></g><g><path style="fill:#FFFFFF;" d="M49.116 117.626c0.853-0.694 0.984-1.948 0.295-2.805l-4.875-6.046 c-0.691-0.859-1.948-0.995-2.806-0.301c-0.002 0.001-0.002 0.003-0.006 0.005c-0.853 0.693-0.985 1.944-0.295 2.8l4.874 6.047 c0.689 0.859 1.948 0.996 2.809 0.305C49.112 117.63 49.113 117.627 49.116 117.626z"/></g></g></g><g><path style="fill:#7D4A03;" d="M77.587 140.503c0-18.226-12.191-33-30.416-33c-18.226 0-33 14.774-33 33 c0 4.616 0.951 9.011 2.662 13h60.675C79.219 149.514 77.587 145.119 77.587 140.503z"/></g><g><path style="fill:#995C11;" d="M58.587 140.503c0-18.226-8.584-30-13.25-30.25c-18.199-0.976-31.166 12.024-31.166 30.25 c0 4.616 0.951 9.011 2.662 13h38.924C57.47 149.514 58.587 145.119 58.587 140.503z"/></g><rect x="85.779" y="112.525" style="fill:#E53935;" width="13.23" height="36"/><g><path style="fill:#212121;" d="M85.644 144.691v-9.666h13.5v18.5H76.977c0-4.166 4.332-9 9-9"/><rect x="85.644" y="128.359" style="fill:#FFFFFF;" width="13.5" height="6.666"/></g><rect x="68.321" y="112.525" style="fill:#E53935;" width="13.178" height="36"/><rect x="68.321" y="112.525" style="opacity:0.4;fill:#231F20;" width="13.178" height="36"/><g><path style="fill:#212121;" d="M68.16 144.691v-9.666h13.499v18.5H59.492c0-4.166 4.334-9 9-9"/><rect x="68.16" y="128.359" style="fill:#FFFFFF;" width="13.499" height="6.666"/><rect x="68.16" y="128.359" style="fill:#BDBDBD;" width="13.499" height="6.666"/></g><g><path style="fill:#E53935;" d="M62.768 114.902c8.537 9.783 23.363 10.865 33.114 2.414c9.75-8.456 10.731-23.24 2.193-33.024 c-8.544-9.788-23.371-10.872-33.116-2.417C55.201 90.334 54.224 105.116 62.768 114.902z"/></g><g><polygon style="fill:#212121;" points="103.409,94.124 61.736,108.664 59.408,102.629 101.078,88.092"/></g><g><g><path style="fill:#F1B31C;" d="M57.46 109.048c0.287 0.736 1.126 1.112 1.867 0.831l1.946-0.733 c0.741-0.281 1.112-1.115 0.827-1.855l-2.147-5.556c-0.283-0.738-1.123-1.113-1.86-0.832l-1.949 0.739 c-0.742 0.281-1.113 1.118-0.828 1.854L57.46 109.048z"/></g></g><polygon style="fill:#995C11;" points="17.003,100.67 8.003,109.67 20.67,116.004 23.337,113.004"/><circle style="fill:#995C11;" cx="24.337" cy="117.67" r="5.666"/><rect x="103.052" y="107.186" style="fill:#CEA050;" width="47.244" height="46.442"/><rect x="103.052" y="107.186" style="opacity:0.4;fill:#999999;" width="47.244" height="5.813"/><rect x="97.456" y="92.762" style="fill:#BDBDBD;" width="59.377" height="15.048"/><rect x="97.456" y="105.628" style="fill:#CCCCCC;" width="59.377" height="2.182"/><line style="opacity:0.4;fill:none;stroke:#999999;stroke-miterlimit:10;" x1="103.462" y1="122.711" x2="149.462" y2="122.711"/><line style="opacity:0.4;fill:none;stroke:#999999;stroke-miterlimit:10;" x1="103.462" y1="137.961" x2="149.462" y2="137.961"/><line style="opacity:0.4;fill:none;stroke:#999999;stroke-miterlimit:10;" x1="113.712" y1="108.711" x2="113.712" y2="122.711"/><line style="opacity:0.4;fill:none;stroke:#999999;stroke-miterlimit:10;" x1="139.212" y1="108.711" x2="139.212" y2="122.711"/><line style="opacity:0.4;fill:none;stroke:#999999;stroke-miterlimit:10;" x1="113.712" y1="137.961" x2="113.712" y2="153.211"/><line style="opacity:0.4;fill:none;stroke:#999999;stroke-miterlimit:10;" x1="139.212" y1="137.961" x2="139.212" y2="153.211"/><line style="opacity:0.4;fill:none;stroke:#999999;stroke-miterlimit:10;" x1="126.212" y1="122.961" x2="126.212" y2="137.961"/><g><g><g><path style="fill:#F7CAAD;" d="M76.909 63.3c-3.618-6.55-11.86-8.927-18.41-5.309c-6.55 3.618-8.927 11.86-5.309 18.41 l6.55 11.859l23.719-13.1L76.909 63.3z"/></g></g><path style="fill:#BDBDBD;" d="M64.887 64.128c0.994 1.8 3.295 2.428 5.134 1.412c1.845-1.019 2.532-3.297 1.537-5.097 c-0.993-1.798-3.289-2.432-5.133-1.413C64.586 60.046 63.894 62.33 64.887 64.128z"/><circle style="fill:#FFFFFF;" cx="70.283" cy="42.197" r="4.064"/><path style="fill:#E53935;" d="M65.113 45.051c0.043-0.024 0.087-0.046 0.131-0.069l7.859 14.229L50.57 71.657 C46.229 63.797 52.74 51.885 65.113 45.051z"/><g><path style="fill:#FFFFFF;" d="M46.64 64.541c-0.978 0.54-1.337 1.783-0.796 2.761l1.965 3.558 c0.54 0.978 1.783 1.337 2.761 0.796l23.719-13.1c0.978-0.54 1.337-1.783 0.796-2.761l-1.965-3.558 c-0.54-0.978-1.783-1.337-2.761-0.796L46.64 64.541z"/></g><path style="fill:#BDBDBD;" d="M71.077 63.426c0.994 1.8 3.295 2.428 5.135 1.412c1.845-1.019 2.532-3.297 1.537-5.097 c-0.993-1.798-3.289-2.432-5.133-1.413C70.776 59.343 70.084 61.628 71.077 63.426z"/><path style="fill:#BDBDBD;" d="M67.273 65.527c0.994 1.8 3.295 2.428 5.135 1.412c1.845-1.019 2.532-3.297 1.537-5.097 c-0.993-1.798-3.289-2.432-5.133-1.413C66.972 61.444 66.28 63.729 67.273 65.527z"/><path style="fill:#EF9A9A;" d="M64.667 63.871C64.667 63.871 64.667 63.87 64.667 63.871c1.804-0.996 4.068-0.341 5.063 1.46 c0.996 1.803 0.344 4.066-1.46 5.062l-0.001 0L64.667 63.871z"/><ellipse transform="matrix(-0.8754 0.4835 -0.4835 -0.8754 135.5471 116.8325)" style="fill:#EF9A9A;" cx="52.714" cy="75.889" rx="3.726" ry="3.049"/><path style="fill:#212121;" d="M58.667 69.503c0.272 0.493 0.095 1.111-0.399 1.384c-0.489 0.27-1.108 0.091-1.38-0.401 c-0.269-0.487-0.091-1.107 0.398-1.377C57.78 68.835 58.398 69.016 58.667 69.503z"/><path style="fill:#FFFFFF;" d="M80.164 60.741L58.811 72.526c-0.001 0.001-0.002 0.001-0.003 0.001 c-5.742 3.169-7.683 10.649-4.335 16.706c3.348 6.058 10.717 8.399 16.459 5.23c0.014-0.008 0.026-0.017 0.04-0.025 c0.028-0.014 0.056-0.028 0.083-0.043C82.782 87.924 86.86 72.856 80.164 60.741z"/><path style="fill:#212121;" d="M55.892 79.232l2.204-1.323c0.746 1.243 0.376 2.842-0.813 3.64L55.892 79.232z"/></g><g><polygon style="fill:#E53935;" points="92.328,86.238 64.02,109.861 58.206,102.991 86.515,79.367"/><g><g><path style="fill:#F9CE1D;" d="M58.075 107.841c0.714-0.582 0.824-1.628 0.248-2.344c-1.774-2.201-5.004-2.555-7.195-0.792 c-0.001 0-0.007 0.005-0.007 0.005c-0.713 0.58-0.827 1.627-0.252 2.344c0.58 0.717 1.634 0.831 2.352 0.255 c0.758-0.61 1.88-0.483 2.499 0.283c0.579 0.722 1.631 0.832 2.348 0.254C58.072 107.843 58.075 107.841 58.075 107.841z"/></g><g><g><g><g><path style="fill:#FFFFFF;" d="M44.07 112.338c0.742-0.544 0.902-1.586 0.363-2.329c-1.663-2.286-4.871-2.8-7.146-1.148 c-0.001 0-0.005 0.005-0.005 0.005c-0.741 0.543-0.908 1.584-0.369 2.328c0.544 0.745 1.589 0.912 2.337 0.372 c0.788-0.573 1.902-0.389 2.484 0.407c0.541 0.749 1.586 0.911 2.33 0.368C44.067 112.34 44.07 112.338 44.07 112.338z"/></g><g><path style="fill:#FACB43;" d="M49.987 116.226c0.886-0.651 1.08-1.898 0.434-2.787l-4.569-6.281 c-0.648-0.892-1.897-1.089-2.787-0.44c-0.003 0.001-0.005 0.004-0.006 0.005c-0.888 0.65-1.081 1.893-0.437 2.783l4.57 6.28 c0.647 0.893 1.895 1.091 2.789 0.444C49.984 116.229 49.985 116.227 49.987 116.226z"/></g></g></g><g><rect x="33.129" y="96.719" transform="matrix(0.9908 0.1357 -0.1357 0.9908 14.8883 -4.8881)" style="fill:#00BFF2;" width="20.363" height="20.159"/><g><polygon style="fill:#F1B31C;" points="44.566,105.888 45.788,96.964 43.224,96.613 42.002,105.537 33.369,104.354 33.021,106.89 41.654,108.072 40.489,116.586 43.053,116.936 44.219,108.424 53.196,109.652 53.544,107.117"/></g></g></g><g><path style="fill:#F9CE1D;" d="M61.097 112.127c1.917-1.56 2.214-4.376 0.659-6.3c-1.555-1.933-4.382-2.234-6.314-0.679 l-3.94 3.176c-0.002 0.003-0.006 0.006-0.014 0.011c-1.916 1.559-2.214 4.379-0.661 6.304c1.557 1.933 4.385 2.235 6.316 0.68 l3.937-3.178C61.089 112.136 61.092 112.131 61.097 112.127z"/></g><g><path style="fill:#FFFFFF;" d="M64.177 111.431c0.854-0.694 0.985-1.95 0.297-2.803l-4.879-6.047 c-0.69-0.86-1.945-0.995-2.805-0.301c-0.002 0.001-0.003 0.003-0.005 0.006c-0.856 0.692-0.986 1.943-0.297 2.8l4.875 6.047 c0.691 0.858 1.949 0.995 2.807 0.306C64.175 111.433 64.176 111.433 64.177 111.431z"/></g></g></g></g><rect x="0" y="0" style="fill:none;" width="165" height="165"/></g><g id="Layer_1"></g></svg>