<svg xmlns="http://www.w3.org/2000/svg" xmlns:xlink="http://www.w3.org/1999/xlink" version="1.1" x="0px" y="0px" viewBox="0 0 165 165" style="enable-background:new 0 0 165 165;" xml:space="preserve"><g id="_x37_"><g><g><rect x="111.994" y="50.535" transform="matrix(-0.9989 0.0464 -0.0464 -0.9989 247.0327 115.4894)" style="fill:#00BFF2;" width="20.363" height="20.158"/><g><polygon style="fill:#F1B31C;" points="121.103,61.737 121.524,70.733 124.108,70.613 123.689,61.616 132.396,61.211 132.274,58.656 123.573,59.06 123.172,50.477 120.588,50.595 120.987,59.18 111.935,59.6 112.055,62.159"/></g></g></g><g><g><rect x="42.897" y="84.032" transform="matrix(0.9518 -0.3069 0.3069 0.9518 -24.423 21.7206)" style="fill:#B93A2C;" width="27.938" height="9"/><g><g><path style="fill:#DB974E;" d="M40.336 93.075c0.882-0.266 1.381-1.192 1.121-2.073c-0.803-2.71-3.656-4.267-6.352-3.47 c-0.001 0-0.008 0.002-0.008 0.002c-0.88 0.265-1.384 1.19-1.125 2.072c0.264 0.883 1.195 1.39 2.078 1.13 c0.933-0.275 1.922 0.269 2.203 1.212c0.26 0.888 1.192 1.39 2.075 1.128C40.332 93.076 40.336 93.075 40.336 93.075z"/></g><g><path style="fill:#DB974E;" d="M41.5 98.189c2.366-0.713 3.712-3.205 3.007-5.575c-0.703-2.379-3.203-3.734-5.581-3.031 l-4.852 1.438c-0.003 0.002-0.008 0.003-0.017 0.005c-2.365 0.712-3.714 3.208-3.01 5.578c0.705 2.38 3.204 3.735 5.583 3.032 l4.85-1.441C41.488 98.194 41.494 98.191 41.5 98.189z"/></g><g><path style="fill:#FFFFFF;" d="M44.501 98.612c1.053-0.317 1.651-1.427 1.34-2.482l-2.208-7.446 c-0.313-1.057-1.423-1.661-2.481-1.346c-0.002 0-0.003 0.002-0.007 0.002c-1.053 0.316-1.651 1.423-1.339 2.477l2.206 7.447 c0.311 1.057 1.422 1.662 2.481 1.351C44.496 98.614 44.498 98.611 44.501 98.612z"/></g></g></g><g><path style="fill:#7D4A03;" d="M77.587 140.503c0-18.226-12.191-33-30.416-33c-18.226 0-33 14.774-33 33 c0 4.616 0.951 9.011 2.662 13h60.675C79.219 149.514 77.587 145.119 77.587 140.503z"/></g><g><path style="fill:#995C11;" d="M58.587 140.503c0-18.226-8.584-30-13.25-30.25c-18.199-0.976-31.166 12.024-31.166 30.25 c0 4.616 0.951 9.011 2.662 13h38.924C57.47 149.514 58.587 145.119 58.587 140.503z"/></g><rect x="85.779" y="112.525" style="fill:#E53935;" width="13.23" height="36"/><g><path style="fill:#212121;" d="M85.644 144.691v-9.666h13.5v18.5H76.977c0-4.166 4.332-9 9-9"/><rect x="85.644" y="128.359" style="fill:#FFFFFF;" width="13.5" height="6.666"/></g><rect x="68.321" y="112.525" style="fill:#E53935;" width="13.178" height="36"/><rect x="68.321" y="112.525" style="opacity:0.4;fill:#231F20;" width="13.178" height="36"/><g><path style="fill:#212121;" d="M68.16 144.691v-9.666h13.499v18.5H59.492c0-4.166 4.334-9 9-9"/><rect x="68.16" y="128.359" style="fill:#FFFFFF;" width="13.499" height="6.666"/><rect x="68.16" y="128.359" style="fill:#BDBDBD;" width="13.499" height="6.666"/></g><g><path style="fill:#E53935;" d="M64.474 108.174c7.073 10.889 21.598 14.05 32.443 7.059c10.845-6.997 13.9-21.495 6.827-32.385 c-7.079-10.895-21.605-14.058-32.445-7.062C60.446 82.784 57.395 97.281 64.474 108.174z"/></g><g><polygon style="fill:#212121;" points="107.639,93.333 64.332,101.852 62.878,95.549 106.181,87.032"/></g><g><g><path style="fill:#F1B31C;" d="M60.045 101.63c0.181 0.769 0.958 1.26 1.731 1.086l2.03-0.451 c0.773-0.174 1.258-0.947 1.081-1.72l-1.343-5.803c-0.176-0.77-0.955-1.26-1.724-1.086l-2.033 0.457 c-0.774 0.174-1.26 0.949-1.081 1.719L60.045 101.63z"/></g></g><polygon style="fill:#995C11;" points="17.003,100.67 8.003,109.67 20.67,116.004 23.337,113.004"/><circle style="fill:#995C11;" cx="24.337" cy="117.67" r="5.666"/><rect x="103.052" y="107.186" style="fill:#CEA050;" width="47.244" height="46.442"/><rect x="103.052" y="107.186" style="opacity:0.4;fill:#999999;" width="47.244" height="5.813"/><rect x="97.456" y="92.762" style="fill:#BDBDBD;" width="59.377" height="15.048"/><rect x="97.456" y="105.628" style="fill:#CCCCCC;" width="59.377" height="2.182"/><line style="opacity:0.4;fill:none;stroke:#999999;stroke-miterlimit:10;" x1="103.462" y1="122.711" x2="149.462" y2="122.711"/><line style="opacity:0.4;fill:none;stroke:#999999;stroke-miterlimit:10;" x1="103.462" y1="137.961" x2="149.462" y2="137.961"/><line style="opacity:0.4;fill:none;stroke:#999999;stroke-miterlimit:10;" x1="113.712" y1="108.711" x2="113.712" y2="122.711"/><line style="opacity:0.4;fill:none;stroke:#999999;stroke-miterlimit:10;" x1="139.212" y1="108.711" x2="139.212" y2="122.711"/><line style="opacity:0.4;fill:none;stroke:#999999;stroke-miterlimit:10;" x1="113.712" y1="137.961" x2="113.712" y2="153.211"/><line style="opacity:0.4;fill:none;stroke:#999999;stroke-miterlimit:10;" x1="139.212" y1="137.961" x2="139.212" y2="153.211"/><line style="opacity:0.4;fill:none;stroke:#999999;stroke-miterlimit:10;" x1="126.212" y1="122.961" x2="126.212" y2="137.961"/><g><g><path style="fill:#F7CAAD;" d="M74.976 75.063l13.474-1.407l-1.407-13.475c-0.777-7.442-7.44-12.845-14.882-12.068 c-7.442 0.777-12.845 7.44-12.068 14.882L61.5 76.47l13.474-1.407C74.974 75.063 74.975 75.063 74.976 75.063 C74.975 75.063 74.975 75.063 74.976 75.063z"/></g></g><path style="fill:#BDBDBD;" d="M70.43 56.801c0.214 2.045-1.315 3.876-3.405 4.094c-2.096 0.219-3.962-1.258-4.176-3.303 c-0.213-2.043 1.308-3.876 3.403-4.095C68.342 53.279 70.216 54.758 70.43 56.801z"/><path style="fill:#FFFFFF;" d="M57.505 41.471c0.233 2.233-1.388 4.23-3.619 4.463c-2.235 0.233-4.233-1.386-4.466-3.619 c-0.233-2.235 1.387-4.233 3.622-4.466C55.274 37.616 57.272 39.236 57.505 41.471z"/><path style="fill:#E53935;" d="M59.337 41.279c-0.049 0.005-0.098 0.012-0.147 0.018l1.688 16.168l25.602-2.673 C85.548 45.861 73.395 39.811 59.337 41.279z"/><g><path style="fill:#FFFFFF;" d="M85.636 46.706c1.112-0.116 2.116 0.699 2.232 1.81l0.422 4.042 c0.116 1.112-0.699 2.116-1.81 2.232l-26.95 2.814c-1.112 0.116-2.116-0.699-2.232-1.81l-0.422-4.042 c-0.116-1.112 0.699-2.116 1.81-2.232L85.636 46.706z"/></g><path style="fill:#BDBDBD;" d="M64.95 59.763c0.214 2.045-1.315 3.876-3.405 4.094c-2.096 0.219-3.962-1.258-4.176-3.303 c-0.213-2.043 1.308-3.876 3.403-4.095C62.862 56.242 64.736 57.72 64.95 59.763z"/><path style="fill:#BDBDBD;" d="M69.272 59.312c0.214 2.045-1.315 3.876-3.405 4.094c-2.096 0.219-3.962-1.258-4.176-3.303 c-0.213-2.043 1.308-3.876 3.403-4.095C67.184 55.791 69.058 57.269 69.272 59.312z"/><path style="fill:#EF9A9A;" d="M70.463 56.463L70.463 56.463c-2.05 0.214-3.532 2.046-3.319 4.093 c0.214 2.049 2.043 3.533 4.092 3.319c0 0 0 0 0.001 0L70.463 56.463z"/><ellipse transform="matrix(0.9946 -0.1038 0.1038 0.9946 -5.7061 9.3702)" style="fill:#EF9A9A;" cx="87.141" cy="59.489" rx="3.726" ry="3.049"/><path style="fill:#212121;" d="M78.606 57.654c0.058 0.56 0.557 0.966 1.118 0.908c0.556-0.058 0.961-0.559 0.903-1.119 c-0.058-0.553-0.558-0.961-1.114-0.903C78.952 56.599 78.548 57.1 78.606 57.654z"/><path style="fill:#FFFFFF;" d="M55.959 62.757l24.256-2.54c0.001 0 0.002 0 0.003-0.001c6.523-0.683 12.391 4.344 13.108 11.228 c0.717 6.884-3.99 13.018-10.513 13.702c-0.016 0.002-0.031 0.001-0.047 0.002c-0.031 0.004-0.062 0.009-0.093 0.012 C69.353 86.555 57.392 76.525 55.959 62.757z"/><path style="fill:#212121;" d="M86.445 64.049l-2.565 0.175c0.099 1.447 1.316 2.547 2.748 2.522L86.445 64.049z"/><g><polygon style="fill:#E53935;" points="96.405,86.026 61.239,97.102 58.476,88.536 93.644,77.46"/><g><g><path style="fill:#F9CE1D;" d="M56.509 92.971c0.882-0.266 1.381-1.192 1.121-2.073c-0.803-2.71-3.656-4.267-6.352-3.47 c-0.001 0-0.008 0.002-0.008 0.002c-0.88 0.265-1.384 1.19-1.125 2.072c0.264 0.883 1.195 1.39 2.078 1.13 c0.933-0.275 1.922 0.269 2.203 1.212c0.26 0.888 1.192 1.39 2.075 1.128C56.505 92.972 56.509 92.971 56.509 92.971z"/></g><g><path style="fill:#F9CE1D;" d="M57.673 98.085c2.366-0.713 3.712-3.205 3.007-5.575c-0.703-2.379-3.203-3.734-5.581-3.031 l-4.852 1.438c-0.003 0.002-0.008 0.003-0.017 0.005c-2.365 0.712-3.714 3.208-3.01 5.578c0.705 2.38 3.204 3.735 5.583 3.032 l4.85-1.441C57.662 98.09 57.667 98.087 57.673 98.085z"/></g><g><path style="fill:#FFFFFF;" d="M60.787 98.613c1.054-0.317 1.653-1.428 1.342-2.479l-2.211-7.448 c-0.311-1.058-1.42-1.66-2.479-1.346c-0.002 0-0.004 0.002-0.007 0.003c-1.055 0.315-1.651 1.421-1.34 2.477l2.207 7.447 c0.313 1.056 1.424 1.662 2.479 1.351C60.783 98.615 60.784 98.615 60.787 98.613z"/></g></g></g></g><rect x="0" y="0" style="fill:none;" width="165" height="165"/></g><g id="Layer_1"></g></svg>