<svg xmlns="http://www.w3.org/2000/svg" viewBox="15.637 -9.993 228.778 230.503"><path fill="#e53a35" d="M106.983 131.612h19.466v25.49h-19.47z"/><path d="M106.983 165.447v9.733c-7.423 0-13.44 6.018-13.44 13.44h32.906v-23.173h-19.47z" fill="#212121"/><path fill="#FFF" d="M106.983 157.104h19.466v8.343h-19.47z"/><path fill="#e53a35" d="M131.083 131.612h19.466v25.49h-19.47z"/><path opacity=".15" fill="#221f1f" d="M131.083 131.612h19.466v25.49h-19.47z"/><path d="M150.55 165.447v9.733c7.422 0 13.44 6.018 13.44 13.44h-32.907v-23.173h19.466z" fill="#212121"/><path fill="#FFF" d="M131.083 157.104h19.466v8.343h-19.47z"/><path d="M106.983 84.6c-1.045-1.082-8.343 18.427-16.686 21.948" fill="none" stroke="#e53a35" stroke-width="11" stroke-linecap="round" stroke-miterlimit="10"/><ellipse transform="rotate(149.16 87.448 108.87)" cx="87.447" cy="108.868" rx="7.54" ry="8.557" fill="#FFF"/><path d="M85.573 110.153c-.66 1.015-5.633-1.39-6.794-2.146-1.164-.756-1.57-2.192-.908-3.207s2.138-1.226 3.3-.47c1.162.755 5.06 4.808 4.4 5.823z" fill="#f9ce1e"/><path d="M91.61 116.517c-1.55 3.16-6.797 3.763-11.722 1.348s-7.66-6.934-6.11-10.094c1.55-3.16 5.816-1.76 10.74.656s8.64 4.933 7.092 8.093z" fill="#f9ce1e"/><g fill="none" stroke-width="11" stroke-linecap="round" stroke-miterlimit="10"><path d="M151.517 84.6s24.458 14.356 9.33 25.86" stroke="#e53a35"/><path d="M151.517 84.6s24.458 14.356 9.33 25.86" opacity=".15" stroke="#221f1f"/></g><path d="M163.524 106.59c0 18.94-15.35 34.29-34.29 34.29-18.953 0-34.302-15.35-34.302-34.29 0-10.994 5.172-20.783 13.214-27.064a34.16 34.16 0 0 1 21.09-7.238c10.273 0 19.48 4.506 25.747 11.66a34.12 34.12 0 0 1 8.54 22.643z" fill="#e53a35"/><path fill="#212121" d="M94.93 106.584h68.595v11.124H94.93z"/><path fill="#f9ce1e" d="M121.35 106.584h14.832v11.124H121.35z"/><path d="M163.528 106.59c0 18.94-15.363 34.29-34.303 34.29a34.078 34.078 0 0 1-19.495-6.087 34.242 34.242 0 0 0 12.548 2.385c18.94 0 34.303-15.363 34.303-34.303a34.04 34.04 0 0 0-3.38-14.836 17.07 17.07 0 0 1-14.697 8.344h-.193c-12.84 0-24.07-6.766-30.158-16.86a34.16 34.16 0 0 1 21.09-7.238c4.44 0 8.665.85 12.546 2.38-.004-.002-.008-.006-.012-.01.36.14.707.292 1.054.43.07.03.14.056.208.098l1.08.5a34.936 34.936 0 0 1 3.328 1.843c.36.22.707.457 1.068.692.347.22.693.47 1.026.734.277.208.555.416.818.624a28.63 28.63 0 0 1 3.01 2.662c.25.236.484.485.734.735.305.32.596.638.887.97 5.31 6.046 8.54 13.963 8.54 22.643z" opacity=".15" fill="#221f1f"/><ellipse cx="111.732" cy="56.519" rx="5.213" ry="5.089" fill="#ef9a9b"/><path d="M151.014 56.52c0 2.812-2.34 5.088-5.216 5.088-2.884 0-5.213-2.275-5.213-5.09 0-2.81 2.33-5.088 5.213-5.088 2.874 0 5.216 2.28 5.216 5.09z" fill="#ef9a9b"/><path d="M109.763 29.185a5.56 5.56 0 0 1-5.56 5.56 5.56 5.56 0 0 1-5.564-5.56 5.56 5.56 0 0 1 5.56-5.564 5.56 5.56 0 0 1 5.56 5.567z" fill="#FFF"/><path d="M128.765 40.307c-10.24 0-18.54 8.3-18.54 18.54v18.538h37.08v-18.54c0-10.237-8.3-18.538-18.54-18.538z" fill="#f7cbae"/><path d="M144.117 75.685c.763.36 1.51.75 2.246 1.192a35.718 35.718 0 0 0-2.246-1.192z" opacity=".15" fill="#221f1f"/><path d="M133.863 57.92H98.64c0 18.94 15.68 34.297 35.02 34.297.047 0 .09 0 .137-.003.022 0 .044.003.067.003 9.47 0 17.15-7.677 17.15-17.15 0-9.47-7.68-17.147-17.15-17.147z" fill="#FFF"/><ellipse cx="128.765" cy="57.918" rx="5.098" ry="4.172" fill="#ef9a9b"/><path d="M132.474 63.48a3.71 3.71 0 0 1-7.417 0h7.417z" fill="#212121"/><path d="M112.284 29.184c-.068 0-.134.003-.202.003V51.43h35.225c-.002-12.287-15.68-22.246-35.023-22.246z" fill="#e53a35"/><path d="M147.305 40.307a2.79 2.79 0 0 1 2.78 2.78v5.562a2.79 2.79 0 0 1-2.78 2.78h-37.08a2.79 2.79 0 0 1-2.78-2.78v-5.564a2.79 2.79 0 0 1 2.78-2.78h37.08z" fill="#FFF"/><path d="M121.35 54.208a1.39 1.39 0 0 1-2.782 0c0-.758.623-1.385 1.39-1.385.767 0 1.392.627 1.392 1.388zm14.832 0a1.39 1.39 0 1 0 2.782.004 1.39 1.39 0 0 0-2.782-.004z" fill="#212121"/><path fill="none" d="M15.637-9.993h228.778V220.51H15.637z"/></svg>