<svg xmlns="http://www.w3.org/2000/svg" xmlns:xlink="http://www.w3.org/1999/xlink" version="1.1" id="Layer_1" x="0px" y="0px" viewBox="0 0 165 165" style="enable-background:new 0 0 165 165;" xml:space="preserve"><g><g><rect x="29.939" y="65.121" transform="matrix(-0.3966 -0.918 0.918 -0.3966 -15.0944 132.3276)" style="fill:#FFCD00;" width="12.008" height="12.008"/><polyline style="fill:#FFCD00;" points="93.237,14.051 102.639,17.601 99.089,26.999"/><line style="opacity:0.5;fill:none;stroke:#28A74B;stroke-width:0.9661;stroke-miterlimit:10;enable-background:new    ;" x1="104.642" y1="9.102" x2="119.1" y2="65.059"/><line style="opacity:0.28;fill:none;stroke:#28A74B;stroke-width:0.9661;stroke-miterlimit:10;enable-background:new    ;" x1="68.301" y1="0.098" x2="73.607" y2="87.821"/><line style="opacity:0.19;fill:none;stroke:#28A74B;stroke-width:0.9661;stroke-miterlimit:10;enable-background:new    ;" x1="99.588" y1="49.812" x2="96.655" y2="30.58"/><path style="opacity:0.5;fill:none;stroke:#28A74B;stroke-width:0.9661;stroke-miterlimit:10;enable-background:new    ;" d=" M68.844 2.201c1.001 21.683 1.996 43.211 1.278 25.135"/><line style="opacity:0.35;fill:none;stroke:#28A74B;stroke-width:0.9661;stroke-miterlimit:10;enable-background:new    ;" x1="54.786" y1="17.351" x2="55.029" y2="49.384"/><rect x="24.694" y="14.349" transform="matrix(-0.3966 -0.918 0.918 -0.3966 23.1084 51.3814)" style="fill:#29B6F6;" width="7.494" height="7.494"/><rect x="116.709" y="77.067" transform="matrix(-0.3966 -0.918 0.918 -0.3966 94.4726 225.522)" style="fill:#EC407A;" width="9.291" height="9.291"/><polyline style="fill:#28A74B;" points="4.799,48.591 12.07,51.336 9.326,58.61"/><rect x="92.743" y="35.69" transform="matrix(0.993 -0.1183 0.1183 0.993 -4.0878 11.8041)" style="fill:#EC407A;" width="9.291" height="9.291"/><rect x="138.778" y="53.761" transform="matrix(0.993 -0.1183 0.1183 0.993 -5.8023 17.2642)" style="fill:#29B6F6;" width="7.494" height="7.494"/><polyline style="fill:#28A74B;" points="119.95,25.894 115.244,32.083 109.054,27.374"/><polyline style="fill:#7E57C2;" points="130.802,11.509 131.284,0.512 142.28,0.991"/><rect x="34.307" y="102.608" transform="matrix(0.1952 -0.9808 0.9808 0.1952 -73.4997 121.0514)" style="opacity:0.49;fill:#FFCD00;enable-background:new    ;" width="5.404" height="5.404"/><polyline style="opacity:0.49;fill:#FFCD00;enable-background:new    ;" points="116.693,95.292 119.266,99.01 115.547,101.582"/><rect x="59.277" y="55.723" transform="matrix(0.1952 -0.9808 0.9808 0.1952 -7.2405 105.9928)" style="opacity:0.49;fill:#29B6F6;enable-background:new    ;" width="3.371" height="3.371"/><rect x="99.19" y="160.449" transform="matrix(0.1952 -0.9808 0.9808 0.1952 -77.9011 230.1445)" style="opacity:0.49;fill:#EC407A;enable-background:new    ;" width="4.18" height="4.18"/><polyline style="opacity:0.49;fill:#28A74B;enable-background:new    ;" points="24.264,72.479 26.256,75.355 23.38,77.347"/><rect x="102.983" y="112.786" transform="matrix(0.8844 0.4668 -0.4668 0.8844 65.7718 -35.7634)" style="opacity:0.49;fill:#EC407A;enable-background:new    ;" width="4.18" height="4.18"/><rect x="130.781" y="152.966" transform="matrix(0.8844 0.4668 -0.4668 0.8844 87.506 -43.9511)" style="opacity:0.49;fill:#29B6F6;enable-background:new    ;" width="3.371" height="3.371"/><polyline style="opacity:0.49;fill:#28A74B;enable-background:new    ;" points="128.411,115.512 125.087,116.601 123.999,113.277"/><polyline style="opacity:0.49;fill:#7E57C2;enable-background:new    ;" points="153.263,109.447 156.25,105.496 160.201,108.486"/></g></g></svg>