<svg xmlns="http://www.w3.org/2000/svg" xmlns:xlink="http://www.w3.org/1999/xlink" viewBox="-0.002 34.736 164.998 130.264"><symbol id="a" viewBox="-38 -30 75.999 60"><path d="M-13.076 5.364c0-4.264 3.513-7.718 7.846-7.718 19.863 0 21.89 11.17 21.89 15.43-1.964 0-17.558.007-21.89.007-4.334 0-7.846-3.456-7.846-7.72z" fill="#FFF"/><path d="M33.018-30h-37.77c-.603 0-1.09.48-1.09 1.073a1.08 1.08 0 0 0 1.09 1.072h37.77c1.323 0 2.803 2.44 2.803 5.705 0 2.45-1.087 4.348-2.024 4.348-.558 0-1.4-1.3-1.4-3.264 0-1.547.677-2.396.902-2.396.602 0 1.09-.48 1.09-1.072a1.08 1.08 0 0 0-1.09-1.073c-1.757 0-3.082 1.952-3.082 4.542 0 3.084 1.54 5.41 3.58 5.41 2.358 0 4.203-2.852 4.203-6.494 0-4.4-2.19-7.85-4.982-7.85z" fill="#404040"/><path d="M-4.753-30C-6.775-30-8.3-27.696-8.3-24.644c0 2.565 1.314 4.5 3.058 4.5 1.518 0 2.662-1.64 2.662-3.814 0-.592-.487-1.072-1.09-1.072s-1.09.48-1.09 1.072c0 1.01-.382 1.603-.54 1.68-.16-.01-.822-.846-.822-2.365 0-1.992.887-3.21 1.37-3.21.6 0 1.09-.48 1.09-1.073S-4.153-30-4.753-30z" fill="#404040"/><path d="M7.21-20.5c0-3.122-2.593-5.676-5.764-5.676h-25.1c-3.172 0-5.766 2.554-5.766 5.677V-5.03c0 3.123 2.594 5.677 5.765 5.677h25.1c3.172 0 5.766-2.554 5.766-5.677V-20.5z" fill="#e53935"/><path fill="#4d4d4d" d="M4.99-13.5h8.085v4.464H4.99zM-11.044-13.5h8.29v4.464h-8.29z"/><path fill="#999" d="M4.99-13.5h8.085v4.464H4.99zM-11.044-13.5h8.29v4.464h-8.29z"/><path d="M-3.345-13.617c0-.628.523-1.142 1.16-1.142H4.42c.638 0 1.16.515 1.16 1.143v4.698c0 .63-.522 1.143-1.16 1.143h-6.605c-.638 0-1.16-.514-1.16-1.142v-4.697z" fill="#f1b31c"/><path d="M-10.636-21.266a.98.98 0 0 0-.988.968 1.05 1.05 0 0 1-1.054 1.036h-.005a.98.98 0 0 0-.988.97c-.002.538.44.976.985.977h.007c1.663 0 3.022-1.33 3.03-2.972a.98.98 0 0 0-.983-.98h-.006z" fill="#e0e0e0"/><path d="M-14.1-24.374c-1.636 0-2.962 1.303-2.966 2.914l-.006 2.957c-.003 1.612 1.32 2.922 2.96 2.925h.005c1.636 0 2.962-1.303 2.966-2.914l.005-2.957c.003-1.61-1.32-2.922-2.96-2.924h-.005z" fill="#e0e0e0"/><path d="M-16.402-17.716c-.727 0-1.316.58-1.318 1.294-.002.717.587 1.3 1.315 1.3l4.58.013h.004c.726 0 1.314-.577 1.317-1.293a1.31 1.31 0 0 0-1.315-1.302l-4.58-.01h-.004z" fill="#f1b31c"/><path d="M18.61-8.084c0-8.476-6.987-15.347-15.6-15.347-8.62 0-15.602 6.87-15.602 15.346 0 8.477 6.982 15.348 15.6 15.348 8.615 0 15.6-6.87 15.6-15.348z" fill="#d4392c"/><path d="M7.162 13.62c0-1.37 1.128-2.477 2.518-2.477 1.392 0 2.518 1.108 2.518 2.477 0 1.368-1.127 2.477-2.518 2.477-1.39 0-2.518-1.11-2.518-2.477z" fill="#ef9a9a"/><path fill="#f9d099" d="M-8.065 7.614h18.6v4.652h-18.6z"/><path d="M-2.95 7.46C1.74 7.46 6 5.69 9.214 2.81v-24.03a18.1 18.1 0 0 0-6.81-3.866L-2.95-19.82l-5.354-5.267a18.033 18.033 0 0 0-10.898 9.22h-1.83v5.538C-21.03-.5-12.936 7.46-2.95 7.46z" fill="#e53935"/><path d="M-8.065 12.266c0-5.054 4.164-9.15 9.3-9.15 5.137 0 9.3 4.097 9.3 9.15s-4.163 9.148-9.3 9.148c-5.136 0-9.3-4.095-9.3-9.148z" fill="#f7caad"/><path d="M-5.91 17.155a16.17 16.17 0 0 0 3.726 5.66 16.587 16.587 0 0 0 11.68 4.76v-10.42H-5.91z" fill="#e53935"/><path d="M10.564 27.212c0-1.54 1.27-2.786 2.834-2.786 1.565 0 2.833 1.246 2.833 2.786S14.964 30 13.4 30c-1.564 0-2.834-1.248-2.834-2.788z" fill="#FFF"/><path d="M-6.427 12.293c0 1.29.12 2.557.336 3.794-1.348-.05-2.427-1.13-2.427-2.467 0-1.234.92-2.248 2.12-2.438-.02.368-.03.74-.03 1.11z" fill="#ef9a9a"/><path d="M-9.214 15.776a1.32 1.32 0 0 1 1.326-1.305h18.244c.73 0 1.325.588 1.325 1.306v3.6a1.32 1.32 0 0 1-1.324 1.308H-7.888a1.32 1.32 0 0 1-1.326-1.307v-3.6z" fill="#FFF"/><path d="M5.65 12.54c0-1.438 1.196-2.6 2.665-2.6 1.473 0 2.663 1.162 2.663 2.6 0 1.434-1.19 2.598-2.663 2.598-1.47 0-2.664-1.164-2.664-2.6z" fill="#bdbdbd"/><path d="M2.042 12.54c0-1.438 1.195-2.6 2.664-2.6 1.473 0 2.663 1.162 2.663 2.6 0 1.434-1.19 2.598-2.664 2.598-1.47 0-2.664-1.164-2.664-2.6z" fill="#bdbdbd"/><path d="M-1.082 12.54c0-1.438 1.195-2.6 2.664-2.6 1.473 0 2.663 1.162 2.663 2.6 0 1.434-1.19 2.598-2.663 2.598-1.47 0-2.664-1.164-2.664-2.6z" fill="#bdbdbd"/><path d="M-4.694 12.54c0-1.438 1.195-2.6 2.664-2.6 1.473 0 2.663 1.162 2.663 2.6 0 1.434-1.19 2.598-2.663 2.598-1.468 0-2.664-1.164-2.664-2.6z" fill="#bdbdbd"/><path d="M-.556 10.286c0-.97.798-1.752 1.782-1.752.983 0 1.783.783 1.783 1.752" fill="#4d4d4d"/><path d="M19.147-13.22l-9.972.486L7.117-9.94l-.4 6.412-4.5 3.213-24.158-.35s-.484-24.857 0-24.887c.482-.027 38.384.054 38.732-.264.346-.317 2.355 12.597 2.355 12.597z" fill="#e53935"/><path d="M-2.75 9.225H21.46c3.645 0 6.628-2.933 6.628-6.518v-19.962l-5.732-8.855a6.956 6.956 0 0 0-.895-.065H-2.75c-3.645 0-6.626 2.933-6.626 6.52V2.706c0 3.585 2.98 6.518 6.625 6.518z" fill="#e53935"/><path d="M-2.75 9.225H21.46c3.645 0 6.628-2.933 6.628-6.518v-19.962l-5.732-8.855a6.956 6.956 0 0 0-.895-.065H-2.75c-3.645 0-6.626 2.933-6.626 6.52V2.706c0 3.585 2.98 6.518 6.625 6.518z" opacity=".11"/><g><path d="M2.482-30H-34.45c-.602 0-1.09.48-1.09 1.073a1.08 1.08 0 0 0 1.09 1.072H2.482c1.324 0 2.804 2.44 2.804 5.705 0 2.654-1.2 4.348-2.025 4.348-.557 0-1.4-1.3-1.4-3.264 0-1.547.68-2.396.904-2.396.602 0 1.09-.48 1.09-1.072a1.08 1.08 0 0 0-1.09-1.073c-1.758 0-3.083 1.952-3.083 4.542 0 3.084 1.54 5.41 3.58 5.41 2.358 0 4.205-2.852 4.205-6.494 0-4.4-2.19-7.85-4.983-7.85z" fill="#404040"/><path d="M-34.45-30c-2.023 0-3.55 2.304-3.55 5.356 0 2.565 1.314 4.5 3.056 4.5 1.52 0 2.664-1.64 2.664-3.814 0-.592-.488-1.072-1.09-1.072s-1.09.48-1.09 1.072c0 1.012-.382 1.603-.542 1.68-.16-.01-.82-.846-.82-2.365 0-1.992.888-3.21 1.372-3.21.602 0 1.09-.48 1.09-1.073-.002-.593-.49-1.074-1.09-1.074z" fill="#404040"/></g><g><path d="M-29.42-12.194c-.902 0-1.633.72-1.633 1.608v4.72c0 4.13 3.413 7.487 7.61 7.487h12.136c.247 3.312 1.282 5.797 3.088 7.404 2.1 1.868 4.46 1.848 5.025 1.81h24.013c3.414 0 5.91-.89 7.416-2.65 1.776-2.07 1.423-4.47 1.377-4.736-.15-.876-1-1.463-1.883-1.316a1.61 1.61 0 0 0-1.34 1.838c.01.083.15 1.233-.675 2.17-.855.966-2.546 1.476-4.895 1.476l-24.238.01c-.035 0-1.434.087-2.65-1.028-1.325-1.215-2.025-3.49-2.025-6.585v-1.608h-15.348c-2.393 0-4.342-1.916-4.342-4.27v-4.72c0-.89-.732-1.61-1.634-1.61z" fill="#f1b31c"/></g></symbol><use xlink:href="#a" width="75.999" height="60" x="-38" y="-30" transform="matrix(2.171 0 0 -2.171 82.497 99.868)" overflow="visible"/></svg>