<svg xmlns="http://www.w3.org/2000/svg" viewBox="0 0 165 165"><path fill="#00bff2" d="M132.817 70.207l-20.34.944-.936-20.132 20.344-.945z"/><path fill="#f1b31c" d="M121.103 61.737l.42 8.996 2.585-.12-.42-8.997 8.708-.405-.122-2.552-8.7.404-.402-8.582-2.584.118.4 8.585-9.053.42.12 2.56z"/><path fill="#b93a2c" d="M42.196 88.537l26.59-8.574 2.763 8.566-26.594 8.57z"/><path d="M40.336 93.075a1.67 1.67 0 0 0 1.12-2.073c-.802-2.71-3.655-4.267-6.35-3.47l-.01.002a1.673 1.673 0 0 0-1.124 2.072 1.678 1.678 0 0 0 2.078 1.13 1.784 1.784 0 0 1 2.203 1.212 1.667 1.667 0 0 0 2.075 1.128h.008z" fill="#db974e"/><path d="M41.5 98.19a4.487 4.487 0 0 0 3.007-5.576 4.49 4.49 0 0 0-5.58-3.03l-4.853 1.437c-.003.005-.008.006-.017.008a4.493 4.493 0 0 0 2.573 8.61l4.85-1.44.02-.007z" fill="#db974e"/><path d="M44.5 98.612a2 2 0 0 0 1.34-2.482l-2.207-7.446a1.994 1.994 0 0 0-2.48-1.346l-.008.002a1.994 1.994 0 0 0-1.34 2.477l2.207 7.447a2 2 0 0 0 2.48 1.35c.004 0 .006-.003.01-.002z" fill="#FFF"/><path d="M77.587 140.503c0-18.226-12.19-33-30.416-33-18.223 0-33 14.774-33 33 0 4.616.954 9.01 2.665 13H77.51c1.71-3.99.08-8.384.08-13z" fill="#7d4a03"/><path d="M58.587 140.503c0-18.226-8.584-30-13.25-30.25-18.2-.976-31.166 12.024-31.166 30.25 0 4.616.954 9.01 2.665 13H55.76c1.712-3.99 2.83-8.384 2.83-13z" fill="#995c11"/><path fill="#e53935" d="M85.78 112.525h13.23v36H85.78z"/><path d="M85.644 144.69v-9.665h13.5v18.5H76.977c0-4.166 4.332-9 9-9" fill="#212121"/><path fill="#FFF" d="M85.644 128.36h13.5v6.665h-13.5z"/><path fill="#e53935" d="M68.32 112.525H81.5v36H68.32z"/><path opacity=".4" fill="#231f20" d="M68.32 112.525H81.5v36H68.32z"/><path d="M68.16 144.69v-9.665h13.5v18.5H59.49c0-4.166 4.334-9 9-9" fill="#212121"/><path fill="#FFF" d="M68.16 128.36h13.5v6.665h-13.5z"/><path fill="#bdbdbd" d="M68.16 128.36h13.5v6.665h-13.5z"/><path d="M64.474 108.174c7.073 10.89 21.598 14.05 32.443 7.06 10.845-6.998 13.9-21.496 6.827-32.386C96.664 71.953 82.14 68.79 71.3 75.786c-10.854 6.998-13.905 21.495-6.826 32.388z" fill="#e53935"/><path fill="#212121" d="M107.64 93.333l-43.308 8.52-1.454-6.304 43.303-8.52z"/><path d="M60.045 101.63c.18.77.958 1.26 1.73 1.086l2.03-.45a1.435 1.435 0 0 0 1.082-1.72l-1.343-5.804a1.45 1.45 0 0 0-1.724-1.086l-2.033.457c-.774.174-1.26.95-1.08 1.72l1.338 5.797z" fill="#f1b31c"/><path fill="#995c11" d="M17.003 100.67l-9 9 12.667 6.334 2.667-3z"/><circle cx="24.337" cy="117.67" r="5.666" fill="#995c11"/><path fill="#cea050" d="M103.052 107.186h47.244v46.442h-47.244z"/><path opacity=".4" fill="#999" d="M103.052 107.186h47.244V113h-47.244z"/><path fill="#bdbdbd" d="M97.456 92.762h59.377v15.048H97.456z"/><path fill="#CCC" d="M97.456 105.628h59.377v2.182H97.456z"/><path opacity=".4" fill="none" stroke="#999" stroke-miterlimit="10" d="M103.462 122.71h46m-46 15.25h46m-35.75-29.25v14m25.5-14v14m-25.5 15.25v15.25m25.5-15.25v15.25m-13-30.25v15"/><path d="M74.976 75.063l13.474-1.407-1.407-13.475c-.777-7.44-7.44-12.842-14.882-12.065-7.44.777-12.842 7.44-12.065 14.882L61.5 76.47l13.474-1.407h.002z" fill="#f7caad"/><path d="M70.43 56.8c.214 2.046-1.315 3.877-3.405 4.095-2.096.22-3.962-1.258-4.176-3.303-.216-2.043 1.305-3.876 3.4-4.095 2.09-.218 3.964 1.26 4.18 3.304z" fill="#bdbdbd"/><path d="M57.505 41.47a4.063 4.063 0 0 1-3.62 4.464 4.064 4.064 0 1 1 3.62-4.463z" fill="#FFF"/><path d="M59.337 41.28a2.36 2.36 0 0 0-.147.017l1.688 16.168 25.602-2.673c-.932-8.93-13.085-14.98-27.143-13.513z" fill="#e53935"/><path d="M85.636 46.706a2.038 2.038 0 0 1 2.232 1.81l.422 4.042a2.038 2.038 0 0 1-1.81 2.232l-26.95 2.814a2.038 2.038 0 0 1-2.232-1.81l-.422-4.042a2.038 2.038 0 0 1 1.81-2.232l26.95-2.814z" fill="#FFF"/><path d="M64.95 59.763c.214 2.045-1.315 3.876-3.405 4.094-2.096.22-3.962-1.258-4.176-3.303-.216-2.043 1.305-3.876 3.4-4.095 2.09-.22 3.964 1.26 4.18 3.3z" fill="#bdbdbd"/><path d="M69.272 59.312c.214 2.045-1.315 3.876-3.405 4.094-2.096.22-3.962-1.258-4.176-3.303-.21-2.043 1.31-3.876 3.406-4.095 2.09-.217 3.964 1.26 4.178 3.304z" fill="#bdbdbd"/><path d="M70.463 56.463a3.724 3.724 0 0 0-3.32 4.093 3.722 3.722 0 0 0 4.093 3.32l-.773-7.413z" fill="#ef9a9a"/><ellipse transform="rotate(-5.957 87.176 59.507)" cx="87.141" cy="59.489" rx="3.726" ry="3.049" fill="#ef9a9a"/><path d="M78.606 57.654a1.017 1.017 0 0 0 2.02-.21 1.017 1.017 0 0 0-2.02.21z" fill="#212121"/><path d="M55.96 62.757l24.255-2.54h.003c6.523-.684 12.39 4.343 13.108 11.227.717 6.884-3.99 13.018-10.513 13.702-.016.002-.03 0-.047.002-.03.004-.062.01-.093.012-13.32 1.395-25.28-8.635-26.714-22.403z" fill="#FFF"/><path d="M86.445 64.05l-2.565.174a2.708 2.708 0 0 0 2.748 2.522l-.183-2.697z" fill="#212121"/><path fill="#e53935" d="M96.405 86.026L61.24 97.102l-2.764-8.566L93.644 77.46z"/><path d="M56.51 92.97a1.67 1.67 0 0 0 1.12-2.072c-.803-2.71-3.656-4.267-6.352-3.47l-.008.002a1.673 1.673 0 0 0-1.125 2.072 1.678 1.678 0 0 0 2.078 1.13 1.784 1.784 0 0 1 2.203 1.212 1.667 1.667 0 0 0 2.075 1.128h.01z" fill="#f9ce1d"/><path d="M57.673 98.085a4.487 4.487 0 0 0 3.007-5.575 4.49 4.49 0 0 0-5.58-3.03l-4.853 1.437c-.003.002-.008.003-.017.005a4.493 4.493 0 0 0 2.573 8.61l4.85-1.44c.01-.002.014-.005.02-.007z" fill="#f9ce1d"/><path d="M60.787 98.613a2 2 0 0 0 1.342-2.48l-2.214-7.447a1.99 1.99 0 0 0-2.48-1.346l-.006.003a1.993 1.993 0 0 0-1.34 2.477l2.208 7.447a2 2 0 0 0 2.478 1.35l.01-.004z" fill="#FFF"/><path fill="none" d="M0 0h165v165H0z"/></svg>