<svg xmlns="http://www.w3.org/2000/svg" width="40" height="40" viewBox="0 0 40 40"><path fill="#fff" d="M15.108 9.74l.053-.027.086-.028.005-.013c-.052.004-.11.02-.15.018l-.1.057c-.012.007-.034.013-.036.024l.006.007c.02 0 .046-.012.07-.018l.07-.016zm6.6-1.68v.002c-.034.073-.05.117-.14.133v.057l.412.02.09-.06c.038-.017.08-.01.126-.023l.118-.06.156-.12.003-.008-.035-.057-.092-.026c-.06-.01-.125.014-.188.013l-.038-.076-.044-.017c-.066.01-.11.07-.143.116h-.054a.346.346 0 0 1 .01-.172c-.07.03-.07.116-.134.146l-.017.016c-.084-.128-.164-.01-.248-.067l-.09-.108-.12.16c-.044.03-.076.033-.1.085l-.005.005c.117.075.338.034.527.033zm-6.71 1.288a.12.12 0 0 0 .112.018c.017-.007.025-.017.038-.025l.028-.03c-.037-.01-.052-.04-.11-.025-.033.018-.074.037-.07.066zm5.187-1.086l.092-.048.054.083-.11.054c.028.07.217.23.31.198.08-.03.106-.113.176-.156a.433.433 0 0 0 .22.1v.002c-.09.096-.257.095-.386.15h-.007l.036.074c.122-.01.22-.034.33-.044a.473.473 0 0 1 .04.037c-.05.065-.16.076-.28.073a.55.55 0 0 1-.036.05l-.006.007c.05.03.28.22.36.2l.046-.03a.27.27 0 0 1 .08-.203c.013-.015.06-.02.085-.022l.057-.12c.03-.073.027-.173.09-.21.046-.012.092-.022.14-.033l.078-.038a.32.32 0 0 0-.14-.105c-.04-.018-.08-.01-.114-.034l-.085-.11c-.04 0-.06.04-.086.063l-.028-.013c-.016-.036.003-.087.004-.14-.01-.007-.02-.015-.032-.022h-.085c-.034-.01-.057-.04-.106-.044l-.054.065c-.02.054.055.147.064.2l-.03.025c-.053-.013-.152-.145-.174-.192-.037-.03-.05-.02-.095 0l-.02.115V8.2l-.11-.023c-.02-.028-.023-.073-.02-.12-.04-.01-.09.01-.12.015l-.07-.006c-.072.006-.11.037-.152.07.012.048.046.106.088.126zm-5.076.675c-.016.02-.06.04-.067.054l.047.067c.006.005.015.01.023.012a.492.492 0 0 0 .12-.066c.008-.005.016-.017.006-.025-.017-.013-.04.012-.05.02-.04.002-.06-.04-.083-.06zm-.15.715l-.07.012c-.008.013-.017.038-.035.048a.536.536 0 0 0 .177-.04c0-.018-.05-.022-.072-.02zm.03-.532s.002 0 0 0c.003-.002 0-.004 0-.006v.006zm.002 0c-.015.025.03.064.06.06.03-.028.023-.038-.018-.05a.235.235 0 0 1-.042-.01zm11.196 1.373c.102.016.162.075.25.102l-.008.032c-.042.02-.09.025-.086.086.047.01.082.004.14.003l.038.05c.047.02.07-.03.105-.04l.23.003c-.002-.068-.09-.085-.126-.115-.067-.053-.106-.167-.126-.267-.042-.215.127-.14.146-.3l-.098-.034c-.086-.01-.18.03-.238.044l-.108.008c-.045.022-.07.08-.12.102l-.005.01c.026.012.047.03.084.03-.02.056-.07.14-.123.157-.035.01-.056-.01-.085-.01-.024.03-.05.057-.035.114l.03.04c.068.05.08-.024.134-.016zm-17.52 8.29h-.003l.002.003v-.004zm11.123-4.83c.06-.008.127.004.208-.003.01-.025.01-.036.034-.048-.005-.057-.012-.065.013-.105l-.016-.006-.01.02-.08.02c-.03.02-.04.07-.078.087l-.113.013c-.027.01-.04.04-.05.066l.04.04c.023-.03.044-.036.055-.082zm-11.11 4.86l-.002-.01v.01h.003zm.82-.96v.004l.02.03h.014c-.003-.008-.003-.018-.007-.026a.075.075 0 0 1-.026-.003zm.034.033c0 .002 0 .006.002.008v-.008h-.002zm10.69-3.558l.02.045c.03-.007.053-.037.068-.057.006-.004.002 0 .006-.006l-.035-.02-.003-.005c.034-.027.047-.06.038-.117l-.045-.003c-.013.015-.02.063-.026.083-.03-.013-.044-.024-.054-.057h-.006c-.04.05-.09.05-.038.134.01.015.05.01.07.008zM8.677 18.805l-.003-.01v.01h.003zm-.003-.01c0-.006-.004-.004-.005-.01v.01h.002zm.702 2.653c-.023.002-.03.01-.045.016l-.06-.006c-.02.005-.03.024-.06.02-.056-.01-.098-.03-.163-.03l-.04.006-.01.013v.013c.03.017.096.015.113.048.02.04-.04.073.046.105l.006.01c-.063.04-.204.017-.285-.007l-.02.022c0 .002 0 .004-.002.006.017.032.05.04.076.06.027-.006.028-.024.05-.03l.117.017c.04 0 .078-.002.118-.01.024.028.055.08.09.09.02-.057.045-.1.1-.124l.033.035c.037.017.056-.03.09-.04.02-.003.036.008.047.01.064-.03.09.024.124.04.02-.012.03-.034.044-.054-.053-.075-.205-.075-.235-.165-.047-.01-.107.003-.13-.04zm8.275-7.375c.02-.012.028-.024.04-.04 0-.003 0-.005.004-.007l.038.025c-.014.05-.066.11-.042.157v.006a.76.76 0 0 0 .118-.075h.013l.01.04a.067.067 0 0 1-.04.03c-.003.028.006.052.028.064.017.03-.053.09-.06.14l.076.02c.012-.01.017-.014.02-.033l.056.015c.07-.003.042-.038.132-.015-.02.03-.05.046-.06.09.015.025.03.033.046.053l.054-.01h.002c-.002.08-.038.116-.006.18v.002c-.108 0-.208.01-.245.086v.004h.07v.006c.01.018.003.052.002.08-.038.055-.133.058-.15.088l-.015.016.038.03.127.004c.03.015.06.03.092.044H18c.045-.002.07-.025.102-.038-.014.03-.043.05-.044.085-.065.016-.116-.024-.172.002-.018.02-.01.04-.048.035-.006.068-.116.14-.175.16 0 0 0 .003-.002.005l.05.013.02.025a.243.243 0 0 1 .11-.076c.024.01.036 0 .05-.007.053.03.1.056.104-.043.1-.013.126-.003.218.005l-.005-.023.127-.018c.024-.004.03.012.048.015l.064-.014.093.014c.036-.008.05-.038.1-.033 0-.03.043-.04.067-.043v-.045H18.7a1.17 1.17 0 0 0-.15-.016v-.003c.054-.016.185-.103.2-.15l-.008-.083c-.043-.034-.135-.085-.184-.016l-.05-.01c.067-.1.027-.09-.04-.16 0 0 .006-.076-.012-.1l-.073-.096c-.03-.015-.06-.003-.076-.025-.034-.043-.028-.1-.048-.15-.018-.027-.12-.113-.16-.11-.067.002-.07.036-.154.002l-.003-.005c.063 0 .13-.005.157-.038l.007-.004-.05-.03c-.002 0-.003-.003-.004-.005.1-.002.137-.143.164-.213.007-.013 0-.01-.006-.025-.05-.035-.23-.01-.31-.012l-.01-.013c.01-.098.128-.087.164-.156.017-.016.006-.016-.004-.035-.066-.027-.145.04-.204.02l-.057-.034-.03.04.03.043-.06.02.036.074a.175.175 0 0 1-.064-.01c-.02.005-.027.02-.035.035a.847.847 0 0 1 .04.047c-.008.016-.03.015-.037.026l.014.06-.055.1c.005.007.016.01.026.017zm2.14 3.257l.03-.038c.025-.013.047 0 .07.006.01-.03.034-.056.03-.1l-.01-.07c.003-.017.018-.034.02-.047.018-.043-.05-.12-.074-.13-.043.04-.082.048-.156.06l-.008.007c.01.04.04.053.048.1.017.094-.063.193.047.216zm2.32.677l.21-.013c.01-.014.01-.03.016-.05-.022.013-.048.017-.073.03-.004 0-.008-.003-.013-.005l.005-.03-.003-.002a.15.15 0 0 1-.105-.016l-.106.01c-.01-.01-.005-.013-.024-.016l.01-.015-.006-.01-.023.015c-.017-.007-.028-.008-.038-.02v-.006c-.007.007-.007.006-.01.02h-.015a.325.325 0 0 0-.01.047c.042.02.13.017.177.036v.02zm-5.07-3.06c-.01.004-.023.01-.035.013-.003.016.003.027.006.044l.054-.006a.172.172 0 0 1 .006.073c.06 0 .094-.02.135-.03.017 0 .034-.003.05-.004.04-.027.077-.055.115-.083l.11-.01.015-.02h.073c.007-.054.038-.078.05-.115.018-.06-.033-.182-.06-.22.063-.017.084-.027.114-.078-.01-.063-.034-.11-.05-.163-.048-.034-.142-.02-.2.006-.033 0-.045-.012-.052-.037-.074.006-.097.037-.114.102l-.038.01-.01.013h.092c-.013.034-.033.046-.067.056 0 .012.004.02.01.033-.065-.006-.138-.007-.188-.026a.102.102 0 0 0-.04.067v.02c.027-.01.043-.01.063.006h.006c-.018.02-.025.017-.02.05l-.043.01.016.014-.02.024c.027.01.147.034.173.02l.01.024c-.043.018-.067.007-.085.048-.004.012-.002.007.006.02l-.02.03-.005.005.07-.01c-.01.036-.046.034-.08.04-.01.013-.01.04-.02.05-.017.013-.066.008-.093.007v.022l.07.002v.003zm3.645 2.765c.017-.014.028-.037.048-.048.008-.018-.012-.028-.02-.048-.02-.048.035-.112.05-.146v-.003c-.03-.007-.06.006-.086.013-.107.027-.15.03-.23-.022-.045.04-.104.003-.126.076.02.042.05.03.095.05.088.043.172.1.27.128zm-.92-.91l-.015.014c.005.016.005.01.027.01v.003l-.016.012v.006l.03.013-.016.023.016.013h.03v.017l.02.003c.053-.055.04-.185.036-.28-.004-.002-.01-.005-.013-.01l-.006.004-.006.044c0 .002-.084.037-.103.057 0 .014 0 .013.01.023-.004.003-.01.006-.013.01.003.023.01.023.02.036zm-2.096-2.57a.15.15 0 0 0 0 .06l.015.003.016-.02-.006-.05-.026.007zm8.31 7.362l-.077-.032c-.06.042-.106.086-.193.105-.04.008-.073-.008-.096-.013-.043-.01-.07.027-.098.035l-.09-.01h-.005a1.42 1.42 0 0 0-.11.07c-.05.014-.062-.03-.12-.02l-.135.06h-.09c-.044-.05-.107-.108-.136-.17-.028-.008-.065 0-.096-.007l-.007-.003v-.005c.035-.016.104-.045.13-.073-.003-.085-.116-.105-.165-.152-.006-.007-.014-.07-.042-.094-.013-.012-.038-.003-.054-.013-.045-.05-.09-.097-.133-.146-.017-.008-.037-.004-.063-.003-.02-.027-.037-.07-.067-.086-.01.01-.01.04-.01.053-.004 0-.006.005-.008.006-.09-.076-.112-.31-.165-.432-.025-.056-.148-.082-.18-.127-.054-.072-.02-.258-.045-.362a.468.468 0 0 0-.127-.213c-.025-.02-.06-.025-.08-.05-.02-.03-.025-.08-.037-.12l.035-.033-.076-.077c-.07-.104-.12-.23-.185-.333l-.083-.216c-.05-.084-.13-.143-.15-.26.017-.02.02-.032.05-.044.04.123.11.245.2.32.01.01.022.01.036.007.04-.08.03-.2.092-.254l-.11-.287c-.063.008-.084.057-.17.01-.057.04-.08.006-.14.016-.02-.02-.04-.026-.05-.06a.417.417 0 0 0-.3.053l-.06.048c-.04.01-.078-.023-.106-.03l-.092-.01-.02-.026-.22-.048h-.16c-.03-.014-.022-.063-.054-.074h-.074a1.018 1.018 0 0 1-.162-.035c-.035-.02-.017-.064-.067-.086-.13-.055-.34.02-.39.106-.07.116.083.18-.074.264-.02.01-.043.034-.072.03-.076-.01-.133-.09-.2-.116-.066-.025-.216-.027-.27-.057-.06-.033-.07-.155-.12-.174-.03-.01-.053 0-.077-.013l-.04-.04-.1-.02-.14.01-.195-.083c-.004-.016-.01-.033-.013-.05-.03-.002-.033.006-.06.013-.04-.02-.09-.054-.1-.104.03-.034.164-.144.163-.185l-.016-.064c-.17-.095.003-.135.002-.24l-.096.056-.016-.003c-.01-.02-.02-.036-.02-.064-.023-.01-.047-.02-.07-.033l-.044.006c-.048.018-.133.106-.216.083-.012-.004-.03-.035-.07-.048-.03.004-.042.025-.067.038-.036-.006-.055-.03-.09-.04a.358.358 0 0 1-.13.07c-.086.018-.15-.058-.25-.033a.54.54 0 0 0-.057.032c-.037.013-.052-.013-.08-.01-.022.012-.046.022-.07.033-.072.015-.155-.003-.215.022-.056.023-.09.07-.132.107-.023-.002-.032-.007-.044-.02a.78.78 0 0 0-.12.045c-.04.026-.035.07-.094.084-.065.02-.14 0-.16-.044-.003 0-.17.05-.237.033-.07-.02-.096-.076-.14-.12l-.05.02c-.034.028-.084.216-.123.268-.057.078-.162.084-.24.14a.58.58 0 0 0-.125.12c-.01.03.007.067-.01.096-.015.035-.06.062-.074.104-.037.1.078.153-.002.27a.91.91 0 0 1-.29.243c-.044.02-.105.015-.152.038-.053.028-.064.145-.1.19-.03.04-.095.046-.12.085a.438.438 0 0 0-.066.156l-.003.068c-.02.05-.09.075-.12.117l-.095.22-.07.076a.327.327 0 0 0-.033.193l.02-.026c.1.01.105.17.057.24.118.09.05.276.014.393l-.012.104c-.018.07-.072.16-.136.18 0 .004 0 .006-.002.008.092.04.09.136.134.157a.07.07 0 0 1 .006.038l-.03.006c-.024.034-.004.09-.015.13.04.067.02.02.07.05l.005.023.064.038c.03-.004.075-.024.1.005-.02.024-.046.04-.037.083.013.006.04.01.05.02.008.01.006.014.004.03.017.01.028.016.06.015a.066.066 0 0 1 0 .048.32.32 0 0 0 .134.085l.01.048c.016.03.06.04.07.08v.047c.007.01.017.01.03.012l.005.013-.036.03h-.006c.013.046.077.092.13.1.008.018.005.024.002.05.07.02.106.074.16.11.04.02.08.042.12.064.087.06.14.13.24.18.03.016.155.096.194.086l.154-.08.16-.044c.045-.013.145-.024.202-.013.025.003.072.03.105.02l.017-.02c.02 0 .123.065.143.08l.308-.14.13-.012c.026-.02.027-.056.064-.07l.32-.03c.017-.004.02-.02.042-.027a.482.482 0 0 1 .163.103l.02.038c.013 0 .024.003.036.004l.01.014-.02.05c.01.103.173.18.266.1.05.007.115.017.17-.005.002-.014 0-.018-.005-.032.014-.007.074.008.09.026.034.063-.002.087.11.084l.014.02c.003 0 .005.003.007.005l-.03.02c.013.04.045.075.053.122l-.017.062.013.047a.273.273 0 0 1-.077.13l-.003.01.04.007c0 .042-.007.073-.04.083.025.02.05.042.074.064v.004l-.057-.006c-.015.07-.036.12-.095.148a.34.34 0 0 0 .038.07c.018.017.037.008.057.035-.01.008-.02.016-.032.023l-.002.006.063.092c.027.014.038 0 .055.022l-.014.022c.044.028.07.06.1.104l.17.157c.016.02.057.102.067.124.014.036-.01.08.02.13.02.034.043.065.066.097l.02.09c.026.068.083.094.07.195-.124.055.02.18.043.246l.013.15c-.01.054-.033.142-.073.167l-.044.016-.027.06-.045.048c-.048.112-.022.286-.112.354 0 .1-.018.236.006.325.02.068.076.11.11.162l.16.323c.038.074.186.203.103.287l.045.21.036.083c.01.04-.017.07-.014.1.004.04.035.075.045.106.008.022-.01.035-.01.05l.05.156c.06.066.12.13.177.197.06.095.08.217.137.318.05.09.137.18.103.328-.017.003-.04 0-.048.012-.013.016.06.115.08.143a.82.82 0 0 0-.027.073l.015.016h.01l.01-.02c.008-.005.01-.007.025-.007l.02.034c.013 0 .025-.005.05-.004.01.016.01.028.02.05.01.02.057.037.082.043.03-.024.047-.06.09-.074.056-.017.123.022.176-.003a.66.66 0 0 1 .047-.043c.074-.036.106 0 .164 0l.05-.03c.062-.017.118.038.16.052a.226.226 0 0 0 .048-.05c.03.004.057.01.086.017.01-.01.01-.027.018-.04.025-.024.16-.01.2-.035l.124-.108c.21-.163.36-.344.51-.57.037-.055.13-.095.15-.148.01-.028-.012-.06-.01-.075.01-.02.035-.015.046-.03.036-.047.056-.176.046-.25a.09.09 0 0 1-.05-.037l-.01-.01c.04-.047.067-.088.12-.118.124-.068.265-.06.32-.195-.004-.03-.026-.018-.032-.035l.003-.01.02-.048c.015-.062.01-.133.01-.195-.015.005-.02.01-.04.01-.02-.062-.043-.137-.02-.187-.004-.037-.03-.056-.058-.07v-.102l.177-.13c.072-.06.116-.15.2-.202.1-.062.225-.08.32-.146.07-.047.112-.134.165-.197 0-.014-.006-.02-.01-.035.017-.023.033-.04.047-.07 0-.005 0-.01-.002-.016l-.034-.017c-.01-.08.006-.168-.035-.216.003-.018.018-.03.023-.055.013-.057-.02-.147-.03-.197l.045-.084c-.032-.07-.092-.08-.133-.133a.372.372 0 0 1-.036-.275c-.01-.014-.022-.016-.032-.03.014-.03.042-.073.044-.107-.03-.034-.082-.062-.1-.107-.018-.05.03-.204.052-.226.012-.013.034-.01.045-.026.023-.034.002-.052.012-.083.02-.07.086-.072.092-.184.048-.025.093-.025.095-.1.04.01.06-.01.094-.024.012-.018.013-.027.003-.048.102-.12.206-.236.31-.354.114-.093.256-.163.37-.254l.128-.155c.083-.108.21-.21.263-.343l.017-.074.11-.178c0-.014 0-.028-.003-.04l.063-.06.083-.147c.002-.042.005-.086.01-.13.006-.02.038-.034.037-.062 0-.02-.02-.052-.01-.084.01-.02.018-.04.026-.06l-.005-.018zm4.365.483c-.016-.093-.064-.14-.14-.188.01.034 0 .052-.013.09-.015.014-.02.02-.046.014l-.006.022.022.024c-.017.033-.006.04 0 .07v.16c.013.05.037.134.074.16.104.024.238-.067.226-.166-.004-.045-.045-.082-.063-.117-.018-.037-.014-.057-.054-.073zM20.5 4.5c-8.837 0-16 7.163-16 16s7.163 16 16 16 16-7.163 16-16-7.163-16-16-16zm9.252 6.873c.022.022.04.046.062.068 0 .01-.003.02-.004.03v.006l.04.007c.024.026.046.053.07.077-.066.012-.16.01-.177-.043-.008-.012.005-.08.01-.14zm-.968.38l.057.026.11-.04-.02-.056c.017-.038.07-.05.102-.073.04-.032.114-.09.134-.142l.022-.09c.01-.025.03-.034.032-.072-.05-.067-.1-.02-.127-.148 0-.064.003-.127.004-.19l-.013-.112.05-.063v-.004l.145.133c-.007.015-.02.03-.02.046-.003.05.035.094.035.16.05 0 .12.02.157.014l.052-.018c.037.034.08.067.115.103-.108-.02-.236.003-.25.102.027.05.056.084.053.16l-.065.078a.53.53 0 0 0-.05.033c-.023.03-.02.078-.05.102-.07.056-.163.066-.202.155-.043.02-.093 0-.13-.006-.026 0-.053 0-.08.002-.11-.017-.21-.03-.25-.115a.315.315 0 0 1 .192.008zm-17.082-.804c0 .002-.003.01.007.013.002.003.01.002.02.002.02.002.05.01.06.025-.016.037-.09 0-.11-.002v.003h-.01c0 .04.14.027.153.064-.016.018-.04.01-.07.018-.003.03.08.014.072.043v.003c-.02.005-.04-.002-.058.005l-.006.005v.003c.017.01.037.02.067.013.01-.003.02-.007.028-.006a.02.02 0 0 1 .01.002c0 .01-.01.03-.026.035a.532.532 0 0 1-.115-.01c-.03-.008-.05-.026-.074-.04a.596.596 0 0 0-.097-.042c.046-.048.097-.09.146-.137zm-.44.405c.01.006.02.01.026.02a.313.313 0 0 0-.05.005c.01-.007.016-.016.024-.024zm-2.79 7.094l.026-.006-.026.022c0-.005-.002-.01 0-.016zM8.25 16.18v.01c0-.002 0-.003-.002-.004 0-.004 0-.006.002-.008zm.088 7.148c-.025.035-.117.054-.168.027-.022.016-.03.032-.03.073l-.02.02c-.007-.028-.01-.036-.036-.043-.016-.003-.033.01-.048.02-.1.053-.062.124-.095.218l-.035.008c-.038-.15-.084-.3-.116-.452.005 0 .01.006.015.006.015.04.027.064.073.073l.006-.04h.004c.012.022.038.053.032.084l.01.01c.056.01.07-.023.123-.03-.005-.055-.048-.06-.067-.1.02-.03.07-.05.105-.06 0-.02 0-.03.005-.045.1-.033.16-.01.19.07.022.003.037-.01.053-.02 0 .024.003.034.02.04 0 0 0 .004.002.006-.03-.004-.05-.01-.06.016-.014.04.027.09.042.12zM20.5 33.5c-3.542 0-6.75-1.42-9.093-3.718.025-.026.06-.045.077-.076l.03-.118v-.006c.023.01.053.022.085.01.006.096-.1.146-.125.24a.644.644 0 0 0 .15-.174l.075-.18c.088-.14.24-.15.198-.427-.007-.034-.02-.053-.03-.082.023-.027.066-.102.01-.127v-.02c.072.01.08-.034.117-.07.04-.033.246-.18.292-.19.025-.004.044.01.063.017l.044-.054c.043-.024.072-.016.083-.075a.494.494 0 0 1 .14.003c.082.017.168-.005.243-.012-.002-.09.068-.12.146-.127l-.015-.075c.01-.06.06-.1.088-.146l.05-.106c.018-.022.054-.035.06-.066a.48.48 0 0 0-.01-.092.144.144 0 0 1 .094-.165c0-.023-.017-.07-.01-.11.01-.054.05-.122.04-.184l-.027-.248c.014-.086.047-.145.048-.232l.023.003.026.05h.01a.59.59 0 0 0 .145-.22c.014-.04.002-.065.028-.09.023-.01.047-.02.07-.033a.64.64 0 0 0 .267-.43c.014-.078-.07-.365-.108-.377-.08-.027-.17.002-.23-.037-.127-.082-.217-.217-.364-.282-.084-.036-.142.01-.224-.004l-.15-.022c-.043-.012-.09-.067-.143-.06-.076.01-.143.07-.196.105-.025-.1.012-.06.022-.12.006-.04-.058-.1-.093-.105l-.025.026h-.013c-.028-.085-.114-.077-.198-.107-.03-.012-.052-.034-.08-.05-.024.003-.073.007-.106.015-.036.013-.04.064-.06.094-.034.05-.114.065-.14.125l-.006.003c0-.034.006-.05.016-.072-.055.01-.13.024-.197.013l-.05-.113c-.044.012-.1.083-.16.06l-.01-.006c.04-.03.05-.1.08-.144.03-.05.1-.067.14-.113.03-.04.045-.105.1-.127.015-.027.006-.053-.005-.083-.13-.018-.138-.178-.172-.29-.01-.033-.008-.07-.038-.085-.015-.003-.022.016-.038.013-.007 0-.16-.157-.2-.177l-.165-.054c-.044-.02-.17-.057-.244-.026-.008.007-.01.013-.01.03l-.143-.033h-.003l-.02.023c-.03-.06-.108-.157-.195-.146l-.016.033v.004l-.02-.138a.454.454 0 0 0-.235-.16c-.042-.008-.088.004-.12.01l-.1-.006v-.002c.094-.03.07-.084.138-.11 0-.003.002-.005.003-.007-.027-.015-.062-.02-.09-.04l-.02-.03c-.022-.012-.065-.01-.085-.02-.01.01-.02.02-.02.04-.003-.003-.006 0-.01 0-.004-.058-.046-.078-.09-.096v-.022l.09.004.015-.01.006-.013-.002-.005a.548.548 0 0 0-.27.01c-.037.017-.057.062-.104.072-.13.03-.168-.075-.248-.08-.068-.003-.182.043-.242.014-.03-.014-.022-.027-.035-.06-.025-.06-.1-.08-.188-.08a.47.47 0 0 1-.042-.096c-.028-.007-.05.007-.058.03l.02.04.04-.004.02.015c-.007.03-.212.09-.257.104l.01.006c-.004.018-.01.018-.02.03.027.012.1.148.077.196-.013.02-.047.035-.076.04-.032-.025-.05-.082-.073-.114a.312.312 0 0 1 .06-.127c-.004-.05-.026-.082-.043-.126.02-.03.07-.044.12-.045l.016-.02c-.006-.03-.03-.05-.057-.06-.08-.03-.1.07-.14.092l-.06.02c.01-.018.024-.025.017-.05.013.005.014.007.02.02H8.4c.026-.016.04-.038.06-.06-.04-.082-.08-.17-.168-.205-.03-.012-.067 0-.102-.013-.013-.006-.06-.025-.08-.02l-.07.05c-.014.007-.03.004-.05.01-.06.023-.086.065-.165.05-.025-.033-.045-.015-.068-.01-.13-.646-.198-1.31-.23-1.986.01 0 .017 0 .024-.005.087-.04.088-.098.24-.06l.01.015v.004l-.07.02c.053.04.13.016.21.04.056.016.103.056.167.072.034.008.1-.01.13.01.02.012.033.062.035.092.05.03.148.03.194.063-.003.033-.026.053-.05.064l-.03.033v.002c.07.004.133-.027.197-.018l.147.016c.053-.01.1-.03.162-.034l.002-.007a.276.276 0 0 0-.214-.073l-.01-.01.02-.04c-.04-.042-.18-.045-.24-.07l-.06-.068c-.067-.047-.16-.04-.24-.075l-.094-.08h-.04a1.116 1.116 0 0 0-.28-.034l-.123.013c-.03.007-.054.02-.082.034-.005-.177-.024-.344-.024-.516 0-.2.02-.4.03-.6.035.038.064.09.09.107.028.02.06.013.067.05a3.51 3.51 0 0 1-.033.174c.004 0 .01 0 .013.003.018.01.025-.01.045-.016l.003.03a.094.094 0 0 1-.04.03l.057.107h.028l.01.048.03.02c.023.05-.01.08.065.085.018.03.034.097.054.12.025-.01.057-.01.09-.015l-.006.03h.006c.023-.07.082-.2.053-.304-.01-.04-.04-.082-.054-.13l-.02-.123c-.03-.09-.16-.222-.134-.348l.047-.15c.027-.043.065-.077.083-.13.075-.014.152-.044.184-.1.026-.04.026-.074.066-.097.037-.022.108-.02.14-.038l.095-.12.106-.017.04-.03c0-.003 0-.005.002-.007-.013-.005-.016-.004-.022-.02-.012.01-.033.02-.048.027l-.022-.014c-.01-.007-.01-.014-.016-.025.01.01.016.02.034.026.027-.018.023-.03.044-.04v-.01a.095.095 0 0 0-.07-.03l-.01-.015.066.02-.01-.015v-.002c.026.01.032.026.07.03l.038-.044c.005-.01.004 0 .02 0l.008-.017c0-.024-.006-.032-.02-.042-.005-.002 0-.002-.005 0-.015.01-.015.027-.023.04 0 .003-.002.006 0 .008v-.008c-.005-.013 0-.027.003-.044l-.006-.005c-.03.006-.057.01-.095.01.003-.02-.01-.035 0-.053v-.005c.005.01-.003.018.002.032.004.004.01.01.013.015l.034-.01c0-.01 0-.01-.007-.02a.24.24 0 0 0 .032.016l.012-.007.003-.007-.016-.02c.016.008.03.02.043.012l.006.02h.01c-.008-.033-.023-.043-.037-.066h.02c-.004-.015-.004-.01-.01-.02l.006-.01c-.013-.044-.043-.043-.086-.034-.002-.034-.03-.05-.06-.056l-.003-.006c.006 0 .01-.004.017-.01a.09.09 0 0 1 .048.046c.015.01.01.01.035.01l-.004-.035-.027-.02H8.59l-.033-.024c.01.014.023.02.034.026h.01L8.6 18.67l.025.01h.003c0-.023-.002-.027-.02-.033l.014-.005c-.01-.005-.01-.01-.018-.015l-.01-.01-.05-.042c.013.03.034.04.06.052a.066.066 0 0 0 .026-.04.57.57 0 0 0-.156-.08v-.01c.035-.002.038.01.065.022l-.004-.02c.02.02.05.04.078.054-.007-.045-.04-.045-.047-.083h.002c.006.017.014.024.03.03.002 0 .004.004.006.007l-.022-.054c-.01-.054.036-.026-.003-.1l.026.004.006-.03c.01.007.005.002.01.014h.003c.003-.006.004-.01.004-.02l.003.015c.014-.01.017-.012.016-.022l.023-.016-.01.025.02.01-.04.01-.015.025v.003h.028c-.007.018-.01.022-.035.022l-.007.01c.008.008.014.01.03.013 0 .002 0 .004.002.006v.014l-.02-.01-.005.003-.007.02v.002c.024-.013.018-.006.045.005l.007.01-.044.016-.003.007.014.022.025.015.03-.018c0 .027 0 .016-.014.035l.022.013-.01.02v.002h.002c.013-.005.015-.007.026 0-.02.036-.046.068-.058.114l.006.02.013-.003.026-.057c.01 0 .008.003.016-.003l.034-.083c.016-.028.043-.038.05-.07 0-.02-.003-.04-.006-.06-.04-.016-.07-.103-.076-.146.012-.01.017-.02.032-.03 0 0 .002 0 .003.004-.008.016-.02.022-.03.035.028.036.035.07.093.07.003.02-.002.022-.006.04v.003l.006.004c.028-.02.076-.063.076-.108l.02.005c.014-.045.037-.097.046-.152-.026-.003-.03-.01-.044-.025l-.002-.01c.015-.01.017-.016.032-.012l.03-.08-.023.07a.605.605 0 0 1 .37-.11l.013-.063s.02 0 .033-.006c0 .01-.003.028-.002.05l.006.003c.027 0 .052-.024.06-.044.007.006.008.017.007.033l.11-.025c0-.02-.007-.025-.01-.034v.008l-.046.02-.024-.01c-.01-.05-.03-.092-.083-.096.005-.034.033-.042.064-.05 0-.004.003-.007.004-.01-.026-.008-.027-.004-.04-.03.02-.035.047-.12.09-.132v-.035c.015-.004.028-.01.042-.015l-.004.016a.046.046 0 0 0 .018.01h.003c.014-.015.016-.01.013-.035l.017-.013-.006.023.026.006.012-.032c.006.003.013.01.02.012a.313.313 0 0 0 .07-.112h.002l.007.003c-.002.014-.007.024-.01.035l.002.006a.29.29 0 0 1 .042.013l-.006-.03c.023.005.038-.01.06-.015l.01.03c.018-.015.027-.037.047-.05l.022.017c.01-.008.008-.005.01-.022.033.006.047-.006.075-.02.006-.008.005-.007.006-.015h-.03l.016-.022-.017-.035.016.014c.02-.02.067-.01.09.006l.05-.03-.01-.02.034.02c.07-.01.1-.07.174-.074l.02-.035-.01-.03c.01.01.02.02.02.04l.03-.015h.003c-.01.033-.05.062-.085.073-.003.008-.005.01-.006.025.053-.028.15-.02.215-.013l.006.01c-.045 0-.073.016-.113.024v.022c-.012-.01-.01-.01-.022-.013l.004-.035a.53.53 0 0 0-.207.11h-.005l.016.01v.003c-.016.004-.01 0-.02-.004l-.06.035-.005.007.01.005.043-.03c-.007.02-.01.008-.02.02-.04.04-.015.086-.005.13.007-.002.005 0 .013-.01l.028.048c.024-.005.023-.006.038.01l.013-.035c.015-.008.024-.01.052-.006v-.02a.02.02 0 0 1 .01.003c.03-.018.044-.085.102-.086.007-.027-.005-.027-.006-.055h.018l.01.016h.003c.01-.007.017-.01.022-.024l.007-.003-.005.023.054.006c.007-.016.015-.01.02-.034l.014.01.006-.022c.004 0 .007-.002.01-.003.016.007.013.01.022.02.062-.023.13-.07.203-.074l-.003-.013.048.004-.006-.01.01-.006c.012-.005.01 0 .022.007l.032-.013c-.013-.016-.034-.017-.067-.015 0-.004-.004-.007-.006-.01a.075.075 0 0 0 .02-.01l.008-.013-.03-.032c-.038-.012-.056.023-.067-.03-.033.004-.043.025-.067.034-.016.005-.036 0-.048.005l.007-.02h.003V17.2c-.035-.016-.06.013-.084.002l-.03-.02-.04.004c-.014-.007-.02-.024-.04-.03h-.01v-.002l.04-.013h.005c-.05-.025-.15-.014-.13-.095-.01-.015-.01-.014-.023-.01-.007-.027-.005-.04.006-.06-.014-.017-.046-.015-.08-.014.046-.044.053-.024.07-.09l.03-.03-.02-.017-.03.012v-.016l-.083.037c-.033-.044-.057-.07-.128-.076v-.002c.025-.007.058-.028.096-.02l.05.023a.457.457 0 0 0 .19-.107c-.048-.124-.207-.127-.338-.076-.14.055-.297.094-.41.178-.092.068-.16.172-.25.245.076-.164.237-.36.387-.45.04-.024.112-.016.15-.04.053-.04.034-.136.133-.17a.58.58 0 0 1 .22-.003c.088.013.176-.012.257-.003l.245.013c.11-.017.232-.02.305-.073.04-.045.083-.09.124-.137l.23-.022c.05-.016.146-.1.19-.134v-.003l-.064-.083c.017-.03.032-.07.048-.105-.003-.05-.08-.09-.124-.1-.023-.005-.058.02-.078.03l-.02-.03c.006-.02.017-.03.028-.046-.13-.123-.21.013-.305.067-.045.026-.11.03-.153.05.006-.036.017-.087.04-.106l.08-.006c.054-.016.08-.07.14-.084.06-.014.12-.016.146-.064l-.165-.04c-.052-.024-.094-.068-.16-.078-.05-.008-.08.02-.13.02.01-.026.02-.052.032-.077-.004-.046-.12-.136-.156-.15h-.05c-.03-.01-.066-.093-.084-.12l.006-.003c.027-.015.093.01.13 0 .006-.012.007-.03.006-.05-.043-.032-.09-.048-.12-.09a.085.085 0 0 1 .05-.025c-.02-.103-.114-.035-.13-.178h-.04c-.007-.034.007-.04.014-.066-.06-.07-.18-.28-.253-.315-.003 0-.005-.004-.007-.006l-.033.065c-.07.047-.134.012-.056.117-.048.06-.09.08-.092.195h-.003c-.028-.026-.03-.076-.078-.08l-.05.09c-.04.03-.134.028-.176.048l-.02-.03c.008-.01.01-.013.01-.033-.074-.11-.138-.06-.24-.023H9.57c-.02-.028-.018-.042-.012-.09l.054.004c.056-.08-.105-.31.006-.36a.117.117 0 0 0 .006-.05l-.016-.024c-.02-.005-.044.03-.09.02-.08-.02-.154-.066-.228-.08-.026-.033-.028-.03-.006-.07l-.038-.03c.054-.095.112-.187.17-.28.004.004.01.005.014.008.003.002.032 0 .05.007l.042.024.073.01.06.07c.047.028.102.016.165.032l.305.108a.466.466 0 0 0-.19-.245c-.078-.05-.222-.09-.236-.2.09 0 .105.04.17.064l-.015-.072c.094.073.14.187.302.175a.284.284 0 0 0 .136.124l-.057-.117.06.012h.002c-.004-.092-.09-.125-.077-.216a.33.33 0 0 1 .11.133l.013.01c.02-.167-.09-.144-.146-.238l.01-.02a.18.18 0 0 0 .04-.01h.005l-.092-.043c-.032-.025-.053-.07-.093-.08l-.03.022-.013.013a2.37 2.37 0 0 1-.105-.194l-.08-.012-.01-.02.04-.05s0 0 0 .004c.02 0 .04-.003.06-.005l.01-.014-.034-.038c.023-.03.047-.06.07-.094.067.03.104.082.172.113.035.015.076.006.104.024l-.02.055c.003.04.03.054.046.082l.063-.03c.017.02.01.04.026.065.013.018.1.06.126.05h.006l-.02-.094.015-.113.006-.004c.02.027.046.064.08.07.02-.043.057-.066.11-.074-.005-.043-.048-.077-.08-.09l-.004-.007c.075-.047.09.03.162 0 .012-.01.03-.05.043-.064l.005-.01c-.043-.03-.087-.06-.13-.093-.046.043-.082.04-.15.026l.02-.065c-.074-.007-.145.012-.235.012v-.048l.09-.023h.01a.334.334 0 0 0-.134-.137c-.02-.007-.03 0-.044.005.31-.398.634-.78.986-1.14l.04.008c.02.006.04.012.063.017.01 0 .023-.003.034-.005h.004l.005.01c.01.003.026.002.04 0l.003.004c-.022.01-.03.006-.05.003-.013.003-.04.016-.044.023-.005.02.062.058.09.05l.066-.027c.03-.01.05-.003.078-.01a.245.245 0 0 0 .115-.08c.027-.044-.06-.07-.094-.077-.032-.008-.05-.03-.072-.05a.218.218 0 0 0-.105-.04l.025-.022c.008 0 .018.005.025.006.006-.002.005-.003.008-.006h.027c.05.005.083.043.12.06a.24.24 0 0 0 .104.02c.01.003.015.008.03.008.01-.01.02-.024.05-.024v.005l-.013.01.004.004c.04 0 .05-.017.075-.026.02-.008.03 0 .047-.005-.006.013-.023.02-.03.032-.008.01-.007.023-.013.035-.004.007-.017.01-.02.018.005.01.024.013.02.025a.136.136 0 0 1-.03.013c0 .01-.01.02 0 .03.004.003.01.003.02.002l.005.002c-.01.005-.02.008-.026.013 0 .01.01.026.005.035-.006.01-.024.015-.03.026.042-.004.035-.016.07-.025.02 0 .012.01.025.02.008 0 .014.002.02.004h.003v.003c-.008.02-.07.014-.094.023a.305.305 0 0 0-.034.04.02.02 0 0 0 .004.01l-.016.02a.42.42 0 0 0-.028.046c.037-.007.042-.024.08-.03.03.01.01.042-.01.052-.016.007-.036.003-.052.006-.032.005-.052.02-.092.024-.026.002-.057-.005-.084.003-.06.02-.08.067-.145.087.017 0 .047.003.062 0l.06-.013.034.006c.024.003.05.002.08.003.014-.016.03-.013.06-.024v-.005c0-.007-.005-.012-.014-.013.01-.017.05-.02.064-.01.003.022-.034.028-.035.047 0 .027.086.033.1.052-.006.002-.007.003-.005.01a.38.38 0 0 0-.106-.013l-.08.007c-.028 0-.054-.007-.08-.01-.032-.006-.066-.01-.1-.017l-.004.003c-.003.003-.004.006-.006.01 0 .012.077.025.097.025.01.003.02.008.01.014-.02.01-.072-.017-.11-.008-.055.014-.05.046-.07.073l-.04.055c0 .003 0 .006.005.01.054.01.085-.04.105-.055l.042-.013c.035-.016.058-.034.11-.043-.003.01-.01.01-.01.02.017.017.036.007.07.005h.03c.014-.01.046-.026.027-.04v-.002c.034-.003.056-.005.08.002v.003c-.014.015-.047.027-.047.047.012.006.028.007.032.02-.054.002-.11.006-.16.002-.023-.003-.048-.014-.073-.01-.024.002-.046.02-.062.03l-.08.04c-.014.006-.03.01-.045.017l-.04.035c.05.02.173-.02.248-.028l.047-.006.036.01.04-.004c.035.002.052.03.072.05l-.072-.01a.74.74 0 0 0-.3.023l-.065.02c.02.012.048.004.065.014l.023.032c.005.002.093.012.106.013.015-.004.017-.01.027-.015.035-.004.05.025.03.04-.036.024-.125.02-.166.04.014.01.08.018.104.02l-.08.023c-.02 0-.03-.01-.055.003-.022.01-.048.04-.02.058.005.004.03.005.03.01.002.007-.022.013-.025.02-.003.015.017.02.036.014a.41.41 0 0 0 .076-.042 1.24 1.24 0 0 1 .11-.076l.036-.017.06-.056c.02-.014.055-.025.084-.037a.55.55 0 0 1 .12-.034c.01-.004.024-.012.04-.01l.033.01c-.01.01-.02.025-.034.032-.04.018-.11.01-.16.018-.012.02-.055.034-.08.05-.004.003 0 .008-.002.013-.008.012-.03.024-.057.03.004.004.005.01.006.013-.08.03-.13.07-.19.108-.014.01-.054.02-.06.035-.005.008.005.015.01.02.034.024.053.007.1-.004a.11.11 0 0 1-.073.056s0 .004-.002.006c.028.012.073.014.09-.01.056-.01.043.056.03.073 0 .004.003.004.006.007.027-.01.074-.023.093-.037l.006-.002h.002v.006c-.025.026-.088.04-.107.07.008.012.025.017.04.02.02 0 .03-.01.044-.016.005.006.01.01.013.02l-.025.035-.013.002c.013.024.046.002.075.008.016.004.018.027.03.035-.09.017-.05.087-.07.128-.005.01-.02.047-.01.058a.022.022 0 0 0 .012.006c.018 0 .035-.02.043-.03a.19.19 0 0 0 .063-.066v-.022c0-.01.012-.026.023-.033l.007-.003c.018.007.03.023.04.04h.002l.016-.025-.004-.07c0-.02.01-.038.015-.055.01.006.025.012.036.02.006.006-.002.014-.002.02 0 .016.012.042.03.046.018.005.045-.01.064-.012.002.02.026.07.042.08l.042.014c.017.01.026.02.038.033l.002.004a.216.216 0 0 1-.125-.04c-.013-.01-.013-.04-.034-.045-.03-.006-.07.023-.08.034h-.003c.01.003.037.014.03.03-.004.007-.026.014-.038.02a.47.47 0 0 1-.095.052c-.014.006-.045.01-.052.02.01.016.056.02.093.008l.13-.054.02-.017c.01.017.03.022.04.034l-.05.01c-.043.014-.092.024-.132.04-.018.008-.046.02-.067.018.003.02.025.026.03.046h.012c-.006.01-.028.012-.05.017v.006c.036.017.026.03.035.063.04.01.063-.02.09-.03.02-.007.042-.01.067-.016-.034.03-.07.058-.103.086v.003c.03.003.057-.017.088-.02.033 0 .063.018.056.047-.006.028-.07.034-.04.068.024.005.04-.008.064-.007-.003.01-.027.034-.016.045.055-.015.063-.048.102-.07l.013.003c0 .014-.018.03-.026.04l-.062.098c-.014.027.003.055.04.063h.074l.075.006c.006.01.014.022.016.03a.11.11 0 0 1-.042.02c0 .006 0 .007-.004.01.004.01.012.012.022.015a.323.323 0 0 0 .06-.02l.004.006c-.004.006-.012.007-.02.01-.03.015-.05.023-.053.048.056-.01.073-.036.117-.047.013.036-.046.047-.057.076.006.012.02.01.027.02-.02.01-.033.02-.05.025.02.02.05.032.095.013l.012-.01c.01-.002.016.006.025 0 .02-.01.013-.03.06-.016v.003c-.007.015-.036.022-.068.03.03.013.117.007.136.026.018.02-.03.04-.007.06h.013c.014-.014.023-.025.05-.03h.012c.002.017.017.03.016.045 0 .017-.035.03-.065.036.036.01.09.017.14 0-.002-.004-.004-.012.002-.016a.207.207 0 0 1 .037-.012c.01-.004.01-.012.024-.015h.005c.016 0 .03.01.052.003a.43.43 0 0 1 .047-.027c.022-.01.046.01.046-.018.03 0 .063-.013.056-.032-.048-.017-.015-.034.02-.047.018.005.018.02.03.03.006.004.012.004.016.01-.018.02-.057.05-.063.07.01-.01.02-.024.036-.03.012-.004.026 0 .037-.006l.036-.027a.1.1 0 0 0 .016.028c.007.007.026.01.026.02 0 .018-.03.024-.044.036-.01.008-.01.02-.018.03l-.052.037c.016 0 .028-.007.043-.007a.11.11 0 0 1 .025.024h.003c.037-.01.023-.046.043-.063.02-.006.05-.003.05.014 0 .023-.035.04-.014.067.03.005.046-.034.055-.046.005-.008.02-.015.03-.02l-.03.06h.01c.025.02-.07.054-.04.09.025.005.054-.02.09-.018.02 0 .03.02.046.026h.01c.028-.015.02-.063.054-.07.04-.01.08.006.11.008.02 0 .04 0 .06-.002.015 0 .038.01.055 0 .006-.006.007-.013.01-.02.018-.042-.047-.032-.033-.06-.02.005-.03.014-.045.02-.033.015-.064 0-.072-.02.068-.014.198-.058.197-.09h-.03c-.018.005-.03.017-.053.018-.028 0-.064-.014-.07-.033l.09-.017a.143.143 0 0 0-.042-.012l-.006-.002c.016-.006.038-.01.05-.016.018-.03-.023-.035.028-.058v-.004c-.024-.015-.087.002-.1-.022-.005-.006 0-.013.003-.018.017-.027.07-.02.093-.007.01 0 .013-.003.017-.006.01-.01.018-.05.006-.063.022-.012.02-.026.03-.043l.014-.015c-.02 0-.046.01-.062.006 0-.003-.002-.005-.004-.008.05-.008.07-.042.083-.064-.014-.026-.05-.042-.05-.078a.308.308 0 0 1-.143-.05c.04-.005.105.03.135.015h.003l-.002-.004c-.02-.008-.057-.008-.072-.02-.012-.013-.012-.036-.023-.047l.07-.044c.023-.01.05-.015.067-.025l-.013-.013-.007-.02c-.016-.02-.054-.038-.033-.063.018.007.073.027.1.02v-.003c.004-.003.007-.003.007-.01-.018-.01-.06-.023-.057-.04h.002c.022 0 .034.01.06.01.01-.006.017-.01.015-.02-.013-.01-.032-.013-.045-.024l.002-.004c.017-.004.04.005.053-.007.01-.006.007-.02.017-.026.01-.007.034-.007.045-.01.006-.01 0-.024 0-.038-.036.02-.07.003-.098 0h-.028a.068.068 0 0 1-.028-.017c.024 0 .042.005.063.007h.064c.014 0 .045-.005.05-.012.013-.018-.02-.038-.032-.046l-.034-.02-.02-.02c-.01-.005-.03 0-.042-.003l-.075-.022.053-.02c.027-.01.047-.027.074-.035.032-.01.05.003.073-.01-.003-.017-.03-.018-.04-.03.02-.007.017-.02.017-.035-.003-.01-.01-.004-.02-.01l-.013-.024-.023-.014c-.043-.023-.097 0-.1-.053l-.022-.01c.106-.04.088-.004.16 0a.193.193 0 0 0 .05-.02c.02-.016.05-.074.014-.095-.024-.013-.064-.01-.092-.018h-.002c.078-.01.07-.016.08-.058.003 0 .006-.003.008-.004h.004c.014.01.022.024.046.026.006 0 .004-.002.01-.003l-.025-.053h.004c.018.005.022.01.037.02.006 0 .01 0 .017.003l.013.014a.123.123 0 0 0 .083-.01c.015-.013.01-.033.028-.044a.027.027 0 0 1 .02 0c.066-.05-.07-.055-.064-.08 0-.01.023-.018.03-.024a.353.353 0 0 0 .06-.058h-.015V12c.024-.01.01-.033 0-.05.03.005.07.01.112-.005-.015.023-.02.05-.03.077-.01.016-.033.034-.034.052l.012.015c.007.014-.023.034-.004.05.01.006.035.002.054.002 0-.018.004-.04-.013-.055a.073.073 0 0 0 .07-.052c.01.01.015.034.035.035h.004a.144.144 0 0 0 .057-.068l-.01-.007h.002c.02.004.082.025.1-.004l.002-.045c.006-.01.027-.02.026-.035 0-.024-.063-.015-.06-.043.005-.017.1-.012.123-.014.01.007.02.018.035.022.033 0 .044-.02.05-.035.017-.03.024-.06.04-.09l.02-.043c.005-.01 0-.037-.012-.047h-.007c.01-.02.034-.03.04-.05l-.02-.015c-.014-.014-.02-.047-.013-.06s.03-.025.036-.04c.008-.018-.015-.038 0-.058.01-.014.055-.02.067-.043l.003-.025c.008-.016.066-.057.03-.077-.012-.007-.032-.004-.048-.006h-.003c.007-.007.016-.008.02-.014.007-.032-.074-.043-.088-.06.005-.005.01-.01.014-.017h.003c.017.027.076.044.12.044.023 0 .045-.005.064 0 .023.003.038.02.064.02.023.003.086-.01.095-.02 0-.023-.044-.027-.058-.043.047.004.04-.017.068.017.02.004.05-.005.058-.016 0-.025-.032-.04-.03-.067l.01-.006c.015.013.038.038.074.027.038-.01.007-.04.036-.053l.07-.024c.023-.014.04-.03.066-.045l.05-.02c.012-.007.012-.018.026-.026.026-.014.082-.053.08-.074h.02c.005-.003.003-.008.007-.01.012-.01.05-.006.034-.024-.004-.005-.008-.008-.01-.015.01-.01.02-.02.05-.026l-.006-.014c0-.005.01-.008.017-.01.003-.02-.008-.036-.023-.05.003-.017.04-.023.052-.037 0-.016-.015-.027-.03-.03.018-.016.064-.014.072-.04-.012-.01-.03-.01-.034-.025a.09.09 0 0 1 .068-.027l-.05-.03c-.044-.04.08-.07.103-.1-.01.004-.015 0-.02-.003h-.002v-.002c.017 0 .035.003.05-.003l.007-.006c0-.012-.018-.018-.03-.022-.01-.02.026-.044.047-.057l.024.005-.01-.06c-.02.008-.02.02-.03.028a.326.326 0 0 1-.08.045.496.496 0 0 1-.11.03c-.026 0-.05-.004-.083.003-.043.008-.096.035-.135.027l-.014-.027a.497.497 0 0 0-.1.093c-.015.02-.03.04-.05.057-.02.016-.022.04-.05.054-.028.013-.062.007-.09.015h-.004c-.024-.01-.053.014-.08.016-.007-.005-.003-.01 0-.015.01-.013.03-.025.06-.027.01 0 .028 0 .04-.006.033-.016.022-.054.047-.07.016-.01.076-.03.08-.04.01-.012-.01-.023-.02-.026-.02.004-.02.01-.03.017-.02.007-.04.01-.06.018-.04.018-.09.058-.146.06-.007-.006-.01-.015-.02-.02-.024.004-.063.04-.072.054h-.016c-.023-.035.13-.105.077-.152-.017-.014-.045-.014-.065-.023l.154-.038c.007-.003.01-.006.01-.01.024-.01.05-.016.068-.028a.37.37 0 0 0 .08-.1c0-.01-.015-.03-.022-.036-.008-.008-.022-.01-.034-.013-.055-.01-.055.01-.1.025-.045.015-.083 0-.097.036-.024 0-.038-.012-.058-.013-.024 0-.048.018-.06.024.008-.02.05-.03.054-.05.004-.02-.073-.035-.1-.032l-.04.012a.105.105 0 0 1-.078-.04c.016-.002.027.003.04.005.015.003.075 0 .083-.003.06.02.13.033.184.06.05-.01.078-.04.138-.044.05-.003.086.015.13.02.02-.005.018-.015.035-.02.028.004.052.02.075.03.012.004.024.01.036.012l.023.028c.01.003.017 0 .024.007l.024.033c.02.02.066.03.1.035a.18.18 0 0 0 .135-.022c.007-.006.016-.01.02-.018.005-.026-.06-.044-.055-.084h.002c.007.02.09.07.11.074.01.003.03.004.044-.003a.04.04 0 0 0 .02-.02c.02-.03-.035-.04-.053-.055l.006-.01c-.012 0-.015-.007-.02-.015-.006 0-.014 0-.024.002-.002-.02.02-.057-.035-.04a.068.068 0 0 0 .006-.026l-.023.003h-.003c-.016-.06-.006-.083-.08-.103h-.005c-.01.023-.015.053-.02.075a.013.013 0 0 1-.01-.005c-.004-.013 0-.028-.01-.042a.163.163 0 0 1-.02-.065c-.024.008-.03.03-.046.04h-.015c0-.03-.01-.026-.044-.026-.005-.01 0-.016-.003-.027-.002 0-.005 0-.007-.002-.006 0-.01 0-.015.005-.002 0-.002 0-.004-.004-.026.006-.04 0-.063 0-.076.005-.085.02-.12-.023a.555.555 0 0 0-.13 0c-.006.017-.01.035-.018.05l-.03.04c0 .002-.003.003-.004.004-.01-.01-.056-.03-.05-.053.005-.006.02-.01.03-.014.01-.006.04-.047.035-.058-.007-.016-.04-.016-.06-.02-.02-.005-.032-.02-.057-.02-.023 0-.03.016-.037.024l-.025.023a.13.13 0 0 0-.02.047c-.004 0-.007.002-.01.003-.008-.025-.037-.042-.077-.034.012-.017.052-.007.07-.02.03-.016.038-.06.07-.076l.008-.008a1.035 1.035 0 0 0-.12-.02c-.015.012-.024.006-.044.016l-.032.024c-.036.023-.057.034-.053.072a.05.05 0 0 1-.024-.01c-.062-.04.05-.05.05-.078 0-.015-.032-.015-.043-.02h-.003c.032-.01.084-.023.103-.01.028-.007.046-.042.05-.06l.003-.017c.01-.014.048-.03.068-.04 0 0 0-.003.003-.004a.134.134 0 0 1-.068-.023c.03.003.06.003.095.003-.004-.01-.01-.01-.016-.016-.01-.034.075-.054.125-.057l.03-.005c.006 0 .016.003.03-.002.01-.003.014-.008.02-.012.003.016-.01.022-.026.032-.02.002-.1-.004-.116.016v.004c.02.01.043.028.067.032.03.005.073-.005.11-.006h.048a.253.253 0 0 0 .054-.097c.007-.005.014-.004.022-.004.02 0 .07-.02.076-.026.023-.016-.046-.093-.065-.097-.015-.004-.034 0-.052-.003-.03-.002-.12-.02-.135.016.003.01.01.012.016.017v.002h-.083c-.002-.016.02-.042 0-.056-.004-.004-.03 0-.036 0 0-.01.014-.014.024-.018.012-.025-.04-.045-.056-.062.025 0 .044.01.073.01.04-.003.06-.04.11-.04.026-.003.04.013.065.01l.02-.01c.04-.016.065-.04.06-.073-.003-.018-.056-.04-.087-.028l-.114.05a.252.252 0 0 1-.033.023c.003-.012.01-.04 0-.05-.01-.02-.032-.035-.04-.057-.07.013-.047.037-.07.063-.05.015-.09-.013-.134-.01.02-.02.078-.003.1 0l.007-.003.01-.02a.172.172 0 0 1 .043-.047h-.002c-.006-.004-.02-.003-.03-.004a.358.358 0 0 0-.06-.006c-.038 0-.08.01-.108-.003.022-.004.03-.01.037-.02-.007-.012-.04-.014-.053-.018v-.01a.372.372 0 0 1 .108.005c.027.006.05.022.084.017.017-.01.037-.032.066-.024.015.002.02.015.036.02.033-.004.045-.036.03-.06-.02-.03-.062-.04-.09-.06-.012-.007-.005-.024-.017-.03-.02-.012-.063 0-.1 0h-.035c-.022 0-.037.014-.05.02a.344.344 0 0 1-.066.02c.034-.013.04-.03.064-.048.02-.014.053-.022.07-.036.01-.005.017-.02.005-.028-.006-.005-.02-.005-.035-.008l.087-.04.036.01.043.032h.005l.006-.003c0-.014-.025-.025-.037-.033a.116.116 0 0 1-.028-.018 12.898 12.898 0 0 1 12.214.517.46.46 0 0 0-.163.134c-.022 0-.064-.01-.074-.01-.04.01-.1.08-.115.116l-.018.018c.02.015.037.03.05.05-.048.036-.12.02-.145.078l-.008.007.048.046-.006.04c-.192 0-.16.058-.273.11v.003c.104.125.12.02.26.044.065.01.113.047.17.06.056-.03.08-.08.126-.12 0-.015-.003-.027-.004-.04l-.05-.03-.008-.01.035-.037a.165.165 0 0 1 .08.025c.026-.03.067-.057.097-.083V9.73c-.01-.01-.02-.018-.032-.026-.007-.01 0-.024.003-.04l.023-.02c.054.003.135.025.178.005.02-.015.037-.03.055-.04l.03-.037-.04-.023c.005-.02.024-.04.05-.053.415.26.816.536 1.198.84l-.007.037-.072.125c-.066.086-.263.09-.23.244l.08.007c.066.19-.053.146-.074.258.035.055.14.033.184.077.014.018-.002.056.005.083.016.062.067.084.142.073a.335.335 0 0 1-.092.157c-.008.005-.02.006-.035.005-.187-.176-.446-.273-.732-.353-.062-.018-.23-.066-.318-.045-.04.01-.06.05-.093.07l-.003.005.092.118c-.005.11-.06.09-.146.103-.01.017-.02.058-.025.074-.045.024-.094-.01-.106-.044l.044-.057c-.09-.04-.143-.047-.226.016a.815.815 0 0 1-.063.05c-.05.016-.09-.016-.118-.024a.346.346 0 0 0-.18.015c-.047.02-.045.087-.087.11-.015-.006-.02-.01-.023-.027-.09.002-.11.035-.187.01 0-.025.003-.03.013-.045a.39.39 0 0 0 .056-.01c0-.05.01-.08.012-.118-.19 0-.084.1-.21.124-.004 0-.008-.003-.01-.004l-.017-.05-.2.082c-.114.045-.228.094-.33.137l-.078.022c-.042.035-.024.142-.07.175l-.085.016c-.17.035-.214-.046-.315-.124.02-.1.14-.098.254-.103-.028-.057-.085-.174-.153-.187l-.146.014c-.04-.01-.066-.027-.107-.016-.01.074.08.082.06.168l-.076.12-.005.007a.1.1 0 0 0 .076.044c.04.12.015.107-.016.203l-.008.054v.006c-.084-.004-.168-.106-.284-.092-.063.13-.247.12-.332.223.003.088.13.15.07.237l-.05-.016c-.036.006-.07.025-.118.01a1.22 1.22 0 0 1-.302-.13c-.052 0-.05.04-.076.062.002.034.063.103.095.116.03.012.07 0 .096.003.076.133-.05.124-.13.106-.035-.008-.08 0-.104-.016-.014-.01-.025-.04-.03-.058-.038-.02-.103-.007-.146-.03-.023-.01-.105-.22-.11-.263a.09.09 0 0 0 .036-.148c-.032-.035-.11-.042-.152-.07-.068-.043-.122-.11-.18-.164.11-.057.126.044.17.07l.106.015c.25.075.65.262.914.064.056-.043.12-.08.118-.173-.034-.034-.04-.053-.038-.12a.587.587 0 0 0-.165-.1l-.193-.056-.18-.152c-.033-.01-.07-.02-.1-.033l-.163-.057-.27-.02-.045.036-.006-.07c-.09-.018-.173-.034-.175-.14l-.093.054c-.023.01-.052.01-.07.022-.057-.037-.11-.018-.184-.013-.032-.05-.1-.065-.14-.11.12 0 .235.012.297-.05l-.01-.04-.04-.025c-.034-.01-.07 0-.096-.01-.053-.022-.09-.06-.15-.08a.232.232 0 0 0-.075.135l-.06-.013a.42.42 0 0 1 .062-.14c-.024-.033-.08-.014-.12-.006a.23.23 0 0 1-.124.153l-.007-.14a.55.55 0 0 0-.193.21l-.027-.003c0-.124.057-.136.108-.2-.14-.01-.162.03-.234.1-.017.013-.04-.005-.06.007-.037.023-.073.094-.087.138-.094-.048-.14-.137-.19.04l-.065-.053c-.004 0-.008-.003-.01-.004-.025.037-.045.06-.103.066a.206.206 0 0 1-.078.113c.008-.035.014-.07.026-.096l-.006-.017-.01-.006c-.042.023-.074.115-.098.156-.068-.006-.082-.04-.15-.016-.012-.01-.025-.02-.037-.032-.03.123-.047.056-.11.102-.032.024-.015.058-.072.076l-.03.032.04.032v.003c-.02.025-.054.026-.087.02l.017.07-.03.04-.01.006a.104.104 0 0 1-.044-.044h-.003c-.033.004-.036.04-.068.052-.006.013.006.027.02.038v.02c-.026.007-.038.012-.05.034-.02-.005-.037-.013-.064-.016-.023.017-.03.04-.06.048.004.02.01.026.03.032-.02.038-.1.048-.14.067l-.01.007.03.055c-.03.003-.054.006-.09.004l-.03.052c.02.026.047.035.065.067v.002l-.063.01a.555.555 0 0 0-.01.063c-.082-.02-.084.05-.114.104l.032.01c0 .023.002.045.003.068-.024 0-.04.002-.06-.003-.037.037-.06.08-.1.117l.01.03v.003c-.033.023-.044.007-.08 0a.444.444 0 0 0-.156.14l-.01.05c-.02.034-.063.043-.08.084-.002 0-.005.004-.008.006l-.03-.02c-.04-.027-.112.07-.11.12-.043-.017-.102-.015-.17-.015l-.015.018c.01.036.043.05.08.057-.03.036-.08.006-.134.002-.01.042-.006.055-.044.07-.05-.02-.072.02-.124.038l-.004.025c.013.017.036.024.054.035v.013l-.1.006c-.01.036 0 .075-.02.104.018.022.02.04.05.053l.005.007c-.028.022-.046.028-.057.07 0 .004.003.01.005.015.02.015.036.018.06.007l.017.02-.065.056c.026.04.056.017.11.022-.003.027-.01.045-.034.053l-.012.016.02.018c.03 0 .044-.007.065-.016-.013.018-.03.028-.063.03 0 .007 0 .003.003.012-.016.006-.025 0-.04-.007v.02h-.004c0-.01-.004-.02-.006-.027l-.003-.006-.037.045c.004.015.01.03.013.044l.016.01.002-.018.01.015c.025 0 .03-.008.048-.014l-.003-.036c.014.01.02.012.02.034h.004c.015-.012.03-.024.04-.037-.007.02-.02.026-.03.04.016.01.02.013.044.01v.003l-.057.03c-.006.015-.003.007.002.023.022.015.015.01.05.005v.002c-.018.003-.02.006-.03.02l.01.012c-.02-.01-.032-.03-.044-.01l-.01.005-.006-.03c-.008 0-.017 0-.025-.002.007.025 0 .036-.013.057l.03.056c.06.02.094.044.152.058l-.02.02a.082.082 0 0 1 .02.013l.015-.02c.014.01.02.01.025.03a.423.423 0 0 0 .176-.022c.055-.053.123-.087.18-.14.02-.017.02-.035.047-.047.02-.01.044.012.07-.006.03-.024.04-.064.042-.112l.02-.016c.007.022.006.027-.005.043.028.037.03.07.085.048l.006.004c.005.026-.01.033-.014.057.026.013.03.087.03.124.01 0 .018 0 .028-.002 0 .01.002.016.003.025.024-.005.023-.006.044 0 .004.025-.013.06-.022.084.024.03.04.042.038.1l.025.004c.025.08.075.115.12.16 0 .01-.002.02-.004.027l-.03-.003.004.024-.034.016c.02.04.044.084.08.11-.01.03-.02.038-.026.068.077.016.13-.015.192 0l.016-.02c.018-.015.003-.024-.01-.043.012-.03.018-.056.048-.07.01-.005.006-.002.02.004 0-.008.003-.017.005-.025.057 0 .09-.005.13-.014l.03.022c.003 0 .005.003.007.005l.09-.163c0-.02 0-.04.002-.06.003-.03.02-.045.03-.067.005-.014-.008-.03 0-.05l-.02-.01v-.04h.03c.047-.035-.028-.126-.035-.158l.09-.003c0-.007 0-.014.002-.02.088.016.053-.067.095-.083v.047c0 .002.002.003.003.004l.03-.003c.006-.033.025-.044.056-.053 0-.01-.002-.02-.004-.03.014 0 .028-.003.04-.004 0-.006 0-.01-.002-.017l-.003-.006h-.015v.016c-.05-.02-.087.03-.14.022-.055-.01-.082-.068-.15-.048H20.9l.013-.022c.02-.02.152.024.184.04.04.023.143-.06.156-.075h.03c-.002-.047-.025-.05-.036-.09a.154.154 0 0 1-.124-.1c-.013 0-.025 0-.038.002-.02-.008-.03-.02-.067-.023l-.003-.008c.023-.02-.026-.147-.013-.2l.035-.01c.028-.086 0-.1-.01-.177.02.005.038.012.057.018.01-.013.02-.027.032-.04.008-.013-.002-.037-.006-.057h.064c.04-.056.058-.056.11-.095.026-.02.026-.047.058-.063l.035.023.15-.1c.035-.043.038-.098.09-.124l.007-.01c-.017-.026-.047-.04-.06-.067l-.01-.01a.16.16 0 0 0 .076-.07c.012-.017-.01-.035-.022-.05.04-.052.054-.02.092-.05.045-.032.047-.094.105-.122l.076.05c.015.007.115-.017.156-.016.04.03.058.057.13.057l.016.03c.007.02-.003.06-.01.08a.33.33 0 0 0 .026.03c.006.006.004.016.003.035l-.06-.003c-.05.013-.272.243-.305.29h-.016l-.02-.03v-.004c-.045.047-.008.103-.08.14-.03-.01-.05-.016-.08-.006l.006.04c-.036.036-.06.053-.076.11.01.01.03.02.043.03 0 .05-.01.073-.016.11l.05.08-.013.06c-.018.093-.006.154.063.19.03.015.035.032.073.02 0 .012 0 .024-.002.037.026-.008.047-.02.086-.018l-.016.034c.01.02.02.035.042.044.034.027.096-.006.117-.017v.013c.03-.007.04-.013.066 0 .022-.03.038-.034.076-.048l.004.013c.024-.012.07-.02.08-.046.015.01.03.02.042.03h.003c.01-.042.05-.02.076-.042.015-.007.02-.027.023-.047v.03l.053.018c.013-.012.017-.02.04-.024l.033.02c.03-.03.1-.05.15-.056l.013-.02c.013 0-.006.04-.01.056.073.107.172-.02.244.115l-.022.017c-.047 0-.07-.022-.11-.035-.04.003-.05.033-.07.054-.028-.005-.027-.017-.052-.012-.006.014-.005.008 0 .023-.016.015-.026.003-.038-.012l-.02.004a.085.085 0 0 1-.004.022c.016.02.033.025.032.053l-.013-.013c-.01-.004-.03.033-.054.032-.08-.008-.147-.023-.225-.037-.04-.008-.083.01-.102-.004l-.025.023-.07-.017-.007.02c-.02-.004-.03 0-.05-.004-.044.022-.073.047-.14.05.002.022.005.03-.014.035.01.03.01.05.02.084.01 0 .017-.007.03-.014l-.004.087c.028.008.04.016.06.025l.038-.035.02.013c-.01.08-.045.135-.02.227-.02.053-.11.085-.16.038l-.02-.06-.07-.05v-.022c-.06.002-.08.028-.135.03a.815.815 0 0 0-.05.063l-.005.068-.047.038c-.034.072.017.25.032.29-.005.01 0 0 .005.012l-.015.003c.006.018.01.025.006.045-.04.02-.124.005-.18 0-.01.026-.01.056-.013.084-.062.032-.105.08-.194.047a.132.132 0 0 0-.028-.06c.003-.044-.106-.017-.14-.006-.145.047-.25.13-.426.144.003.034.007.044.007.073-.04-.014-.07-.028-.105-.04l-.007-.055c-.04-.02-.087.008-.11-.06-.03-.002-.213.06-.23.1h-.034l-.005-.02h-.002a.05.05 0 0 1-.048.006l-.006-.01c.02-.02.033-.024.05-.05l-.01-.02-.073.006c-.03-.007-.032-.027-.06-.014-.006-.022-.006-.02-.03-.02.03-.046-.03-.09-.067-.104a.22.22 0 0 1 .044-.114l-.01-.017h.042c.01-.04.05-.048.03-.096l.033-.017.02.024.028-.01c.006-.01.035-.064.02-.08-.026 0-.05 0-.076-.002-.017-.008-.016-.05-.017-.075-.034-.016-.082-.01-.127-.01l-.01.08c-.004.007-.01.008-.02.01l-.02-.045c-.023.013-.027.05-.047.06-.018.01-.05-.017-.067-.016-.034.052.007.09.01.142-.015.02-.027.033-.037.06l.025.013.012-.016c.014.012.013.022.04.024.004.03-.004.095.003.12.008.025.04.042.05.072a.083.083 0 0 1-.054.025c.006.023.02.016.048.014-.006.01-.008.01-.016.017l.02.023-.015.01.003.016.036.015c-.023.013-.052.003-.08 0-.01.03-.017.04-.002.068l-.048-.015c.004.01.01.02.013.03a.04.04 0 0 0-.01.012l-.01.003-.01-.006c-.003-.02-.006-.03-.013-.054a.364.364 0 0 0-.14.02l-.007.028c.004.025.016.02.03.036l-.004.01h-.01c-.013-.01-.03-.023-.04-.04-.06-.023-.157.027-.205.043-.008.027-.007.037-.007.072l.04.002c-.008.012-.01.015-.013.035.013.007.018.01.04.012-.007.034-.024.03-.04.053-.024.018-.045 0-.082-.005.008-.018.008-.026.006-.054.013 0 .01 0 .022-.002l.01-.02a.113.113 0 0 0-.034-.037l-.047.014-.056.143c-.037.03-.074.063-.11.094a.08.08 0 0 1 .034.036c-.027.03-.07-.003-.108.012l-.084.054c-.02 0-.037 0-.055.002l-.07.035c-.02.06.007.13-.042.16-.056.038-.132.026-.174.077l-.003.02.034.008c-.06.06-.14-.013-.213.022-.01-.022-.016-.037-.012-.07-.04.006-.06.004-.103 0 .006.04.024.08.054.095 0 .04-.007.072.013.1a.103.103 0 0 1-.054.01v-.023a.41.41 0 0 1-.138.03l-.04-.054-.066.006-.01.02c-.012.01-.054.004-.054.004 0-.002-.004-.004-.007-.006-.038.004-.066.03-.11.033l-.004.04a.18.18 0 0 1 .066-.01c-.008.016-.01.02-.03.023-.004.01.02.01.03.013l.003.013v.002l-.06.01c.01.018.034.015.045.03l.003.016a.303.303 0 0 1 .22.064l.04-.014.018.01-.017.032c.02.023.06.037.083.054l-.016.035.06.07c.067.034.056 0 .092.076-.01.02-.024.037-.027.064.025.032.056.052.067.1l-.05-.062h-.004a.338.338 0 0 0-.026.15l.017-.01.013.015-.025.013c-.017.076-.033.154-.06.213-.08.013-.122-.02-.188-.04-.038.05-.175.03-.257.017-.038-.007-.17-.044-.178-.04-.038.006-.08.042-.133.033-.07-.01-.118-.05-.187-.02l-.02.05h-.04c-.052.003-.08.017-.098.052 0 .012.002.023.003.035a.1.1 0 0 1 .082.076.566.566 0 0 1-.038.12c.048.1.012.37-.07.414a.187.187 0 0 1-.02.102c.01.01.01.01.027.016.02-.01.033-.015.04-.035l.01-.005.014.025c-.013.017-.026.023-.055.023v.003l.006.025a.112.112 0 0 0 .06-.01l.007.008-.016.083c0 .005 0 .007-.002.01.008.013.02.044.013.075-.007.023-.03.054-.02.08v.006a.142.142 0 0 1 .105-.02c.015.005.027.02.05.014a.843.843 0 0 0 .068-.032c.075-.02.147.044.144.098l.026.01c.01.052.05.106.114.09.005-.008.005-.007.006-.02h.003l.003.016h.002c.014-.06.034-.048.09-.067a.45.45 0 0 1 .047-.04h.25c.016-.006.03-.02.057-.022l.02.016c.037-.027.032-.045.056-.088.025-.044.087-.042.146-.054.004-.013-.007-.014-.004-.03.013-.078.088-.13.15-.163v-.01l-.048-.027c-.013-.025-.024-.052-.036-.08.016-.07.112-.193.178-.217l.003-.006c-.01-.01-.013-.008-.017-.022.042-.075.13-.037.196-.08l.015-.028c.037-.033.106-.034.137-.073.038-.098-.075-.164.05-.253.08-.056.095.004.166.004.02 0 .04-.016.068-.006.038.014.06.07.12.057.12-.02.156-.093.237-.146l.07-.02.038-.04c.065-.05.128-.053.213-.01.11.054.105.24.21.304.09.057.165.146.25.19.08.04.154.013.173.115l.045-.015h.004l.02.022-.018.006-.007.013.056-.017.033.03c.004.02 0 .033-.006.048l.067.04c.01.008.02 0 .034-.01a.84.84 0 0 1 .085.228v.007c-.012 0-.023-.002-.035-.003l-.015.014c.01.033.002.055-.032.07v.038l.02.013h.04c.02-.03.035-.07.074-.082.01-.017.003-.03 0-.054.023-.02.03-.034.08-.032l.016-.02a.07.07 0 0 1-.002-.066l-.092-.05c0-.055.043-.14.098-.133-.003.046.07.03.102.053.015.013.003.02.013.04l.053.034.022-.068a.825.825 0 0 0-.372-.22l-.016-.02c.016-.014.025-.027.048-.035 0-.006-.002-.012-.003-.017-.023-.037-.163.006-.206-.038-.04-.04-.104-.1-.126-.154-.014-.033-.012-.078-.032-.105-.014-.02-.043-.023-.066-.036-.075-.044-.116-.07-.137-.172.013-.016.028-.022.038-.04-.015-.02-.028-.018-.028-.055l-.022-.003.013-.033a.3.3 0 0 1 .124-.035c0-.01.002-.016.003-.024h.08l.015.025c-.01.013-.017.017-.038.02.01.048.035.087.05.126.018-.007.028-.02.042-.03l.024-.07c.128.05.043.154.172.193l-.054.003v.004c.037.054.093.083.133.133.01.013.03-.012.053-.006.002 0 .076.03.08.036.025.017.046.05.07.066.067.046.137.076.204.123l.044.053.065.03c.002.027 0 .03-.02.036-.002.022.01.113.007.118-.01.016-.018.032-.026.048.01.016.02.022.02.05-.006 0-.01 0-.017-.002.012.04.07.05.094.08l.01.044c.02.05.078.096.14.086l.015.013v.005c-.014.016-.033.014-.054.02l.056.084c.05-.005.113-.03.175-.014.04.01.06.04.11.045-.05.07-.1-.01-.16-.02-.02 0-.04.02-.08.02l-.03.055.057.07c.007.02-.008.05-.006.072l.03.024.03-.02c.02-.01.046.043.052.07.004 0 .006 0 .01.003l.016-.03c.028-.013.045 0 .07.014-.003-.07-.028-.098-.048-.147v-.017l.05.016h.006l-.01.02a.05.05 0 0 1 .026.01c.01-.02.013-.025.04-.025-.012-.014-.014-.01-.013-.032l-.034.006c-.01-.025-.013-.038-.03-.055l.07-.022c.026.003.054.04.06.06l.01.006.02-.017-.02-.06c.005 0 .01-.002.014-.003-.003-.03-.17-.115-.21-.123v-.002a.143.143 0 0 0 .05-.022l-.02-.044v-.005c.017-.01.023-.01.043-.004.008.014.01.02.007.036h.012l.013-.017c-.04-.05-.084-.098-.11-.158 0-.024.007-.032.018-.045l-.015-.017c.017-.008.03-.01.038-.03l.013.004v.013a.06.06 0 0 0-.015.01c.02.04.07.034.073.09l.047.007h.006c-.016-.02-.037-.028-.052-.054v-.003c.038.002.06.025.073.05.008 0 .016 0 .023-.002l.003-.01c-.012-.02-.03-.023-.042-.044.006-.002.01-.01.017-.01.018.003.034.01.04.022l.027.023.01-.006v-.005c-.032-.04-.076-.047-.096-.098v-.003c.068-.013.055.01.106-.035.02 0 .017 0 .022.015.04 0 .05-.012.075-.025.02.052.135-.005.142.06l.013-.012c.017.01.05.017.073.023l.004.007-.047.03-.013.046c.033-.01.045-.04.07-.06l.092-.04.022-.045c.02-.01.05 0 .075-.01.067-.025.055.006.136.008a.186.186 0 0 0 .032-.048c-.023-.03-.07-.026-.106-.044-.044-.024-.09-.157-.134-.15v-.024c.018-.017.024-.028.05-.038.01-.042.02-.076.027-.11.012-.007.054-.01.06-.02l.006-.06c.018-.1.03-.188.143-.194l.034-.073c-.008-.014-.017-.02-.026-.03-.017-.05.045-.05.075-.067.1-.06.053-.16.255-.156l.013-.022.01-.006.03.037V16l-.033.03v.007c.047.068.13.044.23.045.004.013.01.026.017.038-.032.037-.124.053-.164.092l.007.013c.1.018.183 0 .126.132v.01c.14.026.08-.013.167-.044l.076-.006.05-.04c.03-.01.045.008.068.012l.058-.01a.187.187 0 0 0 .032-.06l-.095-.012c-.037.003-.07.03-.118.02-.012-.064-.1-.13-.17-.15 0-.003 0-.005-.002-.007.053-.013.1-.007.154-.01.02-.02.033-.032.04-.063.003 0 .005-.003.008-.004l.022.02c.01.006.01.003.022 0 .024-.01.03-.025.05-.033l.19-.035a.373.373 0 0 1 .033-.038l.11-.013c.007-.005.004 0 .006-.012.047-.01.093-.018.14-.026l.016.03a.362.362 0 0 1-.207.077l-.013.016c.037.025.074.05.098.09-.016.01-.038.015-.07.014-.013.04-.04.066-.044.115-.023.012-.076.02-.104.024.023.03.053.073.08.098.02.004.03 0 .044-.01.02.014.03.035.047.048l.067.02c.05.023.095.07.14.104.023.02.057.07.088.067l-.006.03c.05.037.155.05.19.104l.023.08c.04.143-.047.193-.164.22-.065.017-.11-.024-.167-.015l-.08.025c-.05.01-.138-.01-.19-.02-.064-.01-.076-.064-.147-.037-.04-.018-.04-.038-.06-.073-.014-.01-.05.016-.086.007-.042-.01-.038-.044-.06-.073-.087.054-.162-.01-.27.015-.098.024-.17.086-.257.114l.002.024c-.07.035-.103.002-.16-.008l-.03.01-.14-.013-.02.037c.016.016.036.022.04.045.028 0 .055-.002.08-.003v.002a.6.6 0 0 1-.14.016c-.01.01-.012.012-.012.025l.038.01.01.006-.01.014a.685.685 0 0 0-.17-.003l.018-.02a.06.06 0 0 0-.044 0l-.003.006.02.01v.01c-.034.01-.07.005-.08-.022-.045.005-.1.02-.126.048-.016.02.003.03-.034.034-.005.035-.014.065-.016.095l.13-.02v.003a.06.06 0 0 1-.03.026l-.022.024c.018.004.025.01.032.023s-.004.01-.006.032h.03l.01.012c-.01.013-.027.02-.046.023-.004.013.005.027.02.038.016.024.012.016-.01.033-.017-.002-.028-.013-.045-.022l-.016.036v.022c.054.006.067.023.11.035.004.03-.01.062.005.083.02.01.037.02.054.032l.002.013-.04.017a.075.075 0 0 0 .01.02c.033.002.067.005.1.01.002 0 .003.003.004.005-.01.01-.012.01-.016.025l.01.022.005.002.03-.03c.043-.002.044.01.074.024.013.007.024-.008.037-.02l.04.09c.05.015.115-.013.15.01l.02-.003.02-.106a.31.31 0 0 1 .194.04c.037.026.055.073.103.088.068.02.15-.012.19-.02.022-.04.053-.05.08-.084.07 0 .088.028.143.035.018-.02.043-.033.06-.057h.013l.02.024.002.02c-.02.02-.045.032-.063.055l.024.043c-.005.03-.02.052-.032.075.044.057.01.098.038.165-.072.07-.102.202-.15.288l-.014.065c-.02.067-.04.13-.087.168l.11.28c.006.01.012.007.025.016-.01.07-.044.142-.05.202h.054l.07.09c.05.085.093.16.15.238.04.058.1.112.08.205.043.06.11.075.163.124l.097.177c.033.064 0 .157.026.23l.077.107c.034.05.11.058.15.103l.132.273.05.036a.476.476 0 0 1 .117.172l.016.1c-.004.02-.02.035-.016.065.015.086.056.177.082.248v.11c.047.103.19.084.276.03.03-.023.056-.047.085-.07.048-.014.11.006.15-.006.064-.02.114-.067.17-.086.04-.013.084.008.116-.01.035-.017.045-.06.077-.08.12-.064.273-.064.384-.132.03-.02.024-.044.04-.08.014-.035.07-.07.104-.086l.18-.06.106.012.038-.023c.023-.046.008-.1.054-.125.047-.022.092.01.136-.025.016-.013.013-.035.022-.057.024-.06.095-.076.175-.08.006-.057-.005-.15.014-.21.027-.01.06.012.085-.002.03-.02.032-.072.05-.103l.065-.06a.835.835 0 0 0 .08-.12c-.008-.034-.06-.045-.08-.065l-.096-.12c-.025-.016-.053.004-.084-.003l-.134-.075a.317.317 0 0 1-.105-.124c-.01-.033.007-.075-.004-.102-.007-.01-.012-.01-.03-.01a.147.147 0 0 0 .03-.114h-.003c-.02.03-.045.057-.067.086-.056.044-.107.07-.156.132l-.035.068c-.017.015-.026.01-.035.035-.02.006-.032.007-.048-.003l-.004.016a.592.592 0 0 1-.24-.01c-.01.01-.012.01-.016.023-.037.004-.065 0-.102-.002.008-.03-.006-.032-.03-.038-.02-.045.035-.065.037-.11 0-.013-.01-.133-.014-.14-.01-.012-.016-.01-.024-.03h-.023c-.042.03-.06.143-.035.202.002.036.004.048-.027.045a.38.38 0 0 1-.057-.157c-.018-.013-.02-.02-.04-.016-.015-.053-.028-.058-.005-.114l-.02-.032c.01-.014.02-.013.024-.037-.03-.04-.102-.035-.124-.085-.018-.014-.013-.013-.003-.032-.016-.01-.027-.007-.055-.005-.035-.093-.08-.18-.105-.277l-.055.014-.02-.01.033-.036h.022c-.004-.02-.01-.04-.013-.06.013-.018.084-.02.118-.02.027-.027.023-.06.063-.076h.01c0 .02 0 .038.01.05.02.035.083.03.12.015.023.035.073.07.087.105v.05c.016.042.068.13.095.17.032.045.11.04.156.072.023.03.047.056.07.085.053.03.105.03.17.05.034.01.054.043.097.048.02-.018.093-.06.1-.086.048-.017.1-.037.16-.022.026.006.02.017.046.02.004.02.002.05.013.078.013.034.047.056.048.105.035.007.07.03.093.04h.127l.04.034.212.003c.037.01.06.034.107.042.066.01.127-.015.18-.023h.14c.028-.01.05-.03.095-.036.04.085.274-.01.343-.012.037.026.038.05.035.11l.07.017.035.1c.025.033.057.016.095.04l.045.06a.31.31 0 0 0 .3.076c0 .026-.01.032-.027.048-.07.073-.106.01-.183.04h-.008c.023.056.216.25.285.253l.06-.022c.07-.023.19-.063.126-.15l.014-.043c.015-.01.04-.01.07-.01a.303.303 0 0 0 .005.144c.007.023.057.042.05.073s-.048.056-.05.094l.04.22.05.307c.036.126.106.22.154.327.032.072.058.15.083.23.01.038.02.077.032.117.02.026.037.054.056.082l.11.245.05.17.087.094c.045 0 .11-.032.124-.064.014-.027.003-.053.02-.073a2.56 2.56 0 0 1 .124-.04c-.005-.014-.016-.022-.03-.03l.04-.108c.02-.01.054-.01.086-.01.01-.06-.017-.126-.01-.18.013-.11.143-.23.054-.33.027-.07-.02-.148 0-.226l.03-.07c.03-.024.06-.03.095-.01.024-.016.04-.053.048-.083.03-.016.085-.005.114-.026.032-.022.024-.084.054-.108l.097-.05c.037-.022.056-.07.09-.09.023-.015.044-.017.064-.033l.147-.178c.04-.028.104-.022.146-.05.053-.033.074-.09.114-.136l-.02-.068c.036-.035.09-.04.135-.07l.048-.05c.015.01.025.03.03.05l.018.007.026-.046.004-.006c.017.01.02.03.026.053h.045c-.003-.014 0-.02.003-.034l.03.017.02-.032.012-.01.012.033h.02a.114.114 0 0 0 .025-.06l.005-.003c.01.02.02.037.032.056h.02c.008-.033.013-.038.048-.047.01-.036-.002-.065-.016-.093 0-.016-.002-.032.006-.04l.005-.006.05.065c.035 0 .05-.01.073-.022.088.07.06.32.18.353.012.003.028 0 .04.003v.04c.026.018.04 0 .062.014.033.018.053.073.066.114l-.05.01a.142.142 0 0 0 .055.035l.015-.03c.003 0 .005 0 .007-.002.04.065.087.18.073.29-.01.065-.05.11-.052.18l.022.017c.024-.02.037-.033.076-.038l-.01.04.018.015h.013c.015-.01.017-.02.04-.022v.03c.04.035.05-.04.078-.06.092-.067.137-.016.152-.173h.012c.043.03.045.118.098.134l.038.27c.023.082.075.155.102.226.027.073.015.146.013.217a.06.06 0 0 0 .035.006c-.017.04-.073.17-.057.206a.09.09 0 0 1 .027.016c-.03.08-.08.194-.05.282.013-.004.025-.01.038-.015.042.045.083.068.105.137.01.004.016.004.03 0 .023.028.027.05.027.098l.017.01c.016.02.04.015.06.003l.005.007c-.01.07-.005.15.02.22l.04.07c.003.036-.013.066.005.096l.06.05c.008.012.01.03.015.045-1.08 6.05-6.378 10.65-12.76 10.65zM14.964 9.424c.002 0 .003.003.004.004-.002 0-.002-.003-.004-.004zm11.494 7.595c-.014.002-.015-.01-.035-.01l-.05.016-.007-.004c0-.012-.002-.023-.003-.035-.006 0-.013-.004-.02-.006 0 .01-.003.018-.005.026-.024-.007-.027-.008-.054-.004l-.025-.05c-.038.037-.04.135-.026.183.02.01.067.003.108.002l-.022.03.007.018c.006.012.02.02.034.023v.01l-.065-.008-.016.022v.022c.02-.015.032-.01.063-.003.012.035.043.04.057.068.007.027-.02.06-.02.102 0 .02-.01.045-.008.054.01.05.054.177.013.21-.03.024-.096.012-.14.022-.157.035-.374.05-.43-.1-.06-.015-.124-.03-.174-.047-.024-.1.03-.196.03-.28l.01-.006c.01.005.01.006.014.02l.01.006.01-.044c.01-.004.01-.004.022-.002-.006-.085.005-.226.14-.17h.003l-.005-.015c-.028-.066-.095-.02-.12-.056-.016-.02-.04-.04-.05-.063-.01-.024-.004-.047-.018-.066a.572.572 0 0 0-.08-.09l-.03-.01c-.024-.035-.037-.08-.07-.108l-.02-.006c-.017-.022.002-.04-.023-.053-.03-.04-.01-.11.01-.156v-.01h-.017l-.016.06h-.002c0-.058-.007-.114-.057-.144-.015-.01-.037-.005-.043-.022v-.016c0-.037.04-.04.056-.064a.546.546 0 0 0 .06-.143l.006-.01c.05.026.1-.014.14-.037l.02.013c.01-.01.01-.015.01-.035.05-.01.067-.06.108-.075l.06-.005c.066-.02.12-.106.207-.1.048.005.07.038.105.045.04.01.047-.02.066-.024l.085.02.024.04c-.01.007-.017.016-.025.024.022.08.004.102-.04.164 0 .03.033.04.055.048 0 .002 0 .004.002.006l-.206-.02c-.02.005-.022.015-.05.015l-.02.05c-.014.02-.03.01-.037.04a.105.105 0 0 0 .057.04l.01.013c-.03.022-.108-.013-.17-.01l-.01.01v.04c.02.014.068.023.093.026.013.08.068.102.066.184h.043c.02.014.037.034.046.057.043.007.082-.004.117.033a1.17 1.17 0 0 0-.048.102c.01.02 0 .038.01.06l.02.01-.005.03c.007.014.028.04.038.056v.007c.014-.036.005-.113.016-.153.043-.008.086-.016.136-.013.008.03.013.087.027.11.022.033.072.036.097.09-.007.012-.012.015-.03.022-.02-.004-.02-.012-.04-.016l.01.04zm-4.058-.13l-.007.002c-.012-.01-.02-.018-.04-.022 0-.004.003-.01.005-.015l.026.013c.01.004.01.007.016.02zm10.922 5.42c-.184.004-.162-.116-.194-.255l-.02.006c-.027-.02-.016-.072-.024-.11-.03 0-.06.01-.09.006-.075-.126.063-.318.096-.414l-.006-.08c.01-.04.03-.056.013-.107.046-.036.073-.03.146-.026l-.01.114c.03 0 .04.012.06.016.04.01.053-.025.095 0l.057.06h.003a13.17 13.17 0 0 1-.095.826l-.03-.038zM16.276 12.34c.06.03.114.002.13-.057 0-.013.002-.025.003-.038l.09-.023c.02-.036.04-.126.01-.168-.02-.025-.08-.01-.11-.02a.28.28 0 0 1-.04-.025c-.01-.017-.006-.045.002-.066l-.013-.023c-.07-.03-.126-.017-.156-.085a.194.194 0 0 0-.086-.016v.08c-.067.043-.157.02-.24.01.01.026.022.045.02.074a.108.108 0 0 1-.096-.06c-.03-.025-.074-.007-.108.02l.016.05V12l-.026.01a.252.252 0 0 1-.09-.106h-.002l-.026.016c-.016.026-.005.072-.004.114-.023.024-.056.02-.086.038a.66.66 0 0 1-.047.044l-.05-.074c-.01-.02.036-.05.027-.09-.017-.08-.13-.098-.206-.12l-.02.025-.007.006a.13.13 0 0 1 .05.064v.004c-.068.05-.12-.084-.16.005l.037.05.01.01c-.04.01-.1.01-.13.026-.002.015-.003.026.004.036.05.083.138-.01.225.003.05.01.083.024.12.04l.008.03a.176.176 0 0 0-.01.03c-.056.04-.243.033-.27.083l-.002.01.01.02c.04.016.13-.012.176-.02.037.043.052.062.127.07-.044.064-.1.068-.146.118.05.064.232.008.308.037l.073.05c.038.024.105.03.155.04.134.02.13-.065.185-.087l.152-.02c.07-.024.13-.077.183-.115zm3.48 10.434c-.014.015-.022.045-.045.053v.03c.01 0 .017.003.02.005.04-.005.036-.047.066-.064-.008-.014-.017-.02-.037-.024zm6.022 2.427c-.018-.03-.054-.03-.07-.067-.034-.027-.03-.02-.064.006.005.05.004.118-.035.15-.026.017-.04.02-.055.05-.02-.007-.024-.017-.032-.035-.01 0-.02 0-.03-.003 0 .034.01.055.02.083l-.006.017a.068.068 0 0 1-.04.013l-.005.006c0 .022.013.03.022.05l-.035.04c-.02-.003-.02-.005-.026-.02h-.003l-.047.04c.004.018.01.024.02.036l-.02.012c-.012.005-.013-.004-.032-.01l-.07.044.007.036c-.035.008-.06-.027-.104-.006l-.026.03c-.02.01-.037-.007-.054-.006l-.038.03c-.022 0-.045 0-.067.003 0 .107-.04.123-.07.19-.01.05.036.163.06.195l-.02.05.047.057c.015.058-.083.256-.108.28l-.04.013c-.023.015-.05.116-.045.155.026.05.053.097.08.146a1.2 1.2 0 0 0-.02.073c-.015.072.03.08.042.114.008.025-.003.045.01.063.04.06.13.043.17.106.07-.004.086-.045.144-.06l.106-.013c.066-.04.103-.25.13-.337l.226-.728c.014-.05-.006-.095.01-.15.012-.046.06-.073.072-.127a.236.236 0 0 1-.045-.135l.015-.01.006-.006a.23.23 0 0 0 .06.082c.018-.014.058-.06.05-.094l-.04-.08c-.02-.073-.014-.23-.053-.28zM8.716 18.92c.003 0 .006.003.01.005l-.035-.076c.008.03.02.043.03.07zm6.644-9.13h.002l-.007-.01-.024.005c-.07 0-.11-.047-.2-.03-.028.012-.118.03-.128.046-.015.027.04.04.058.048.067.016.153.003.232.01.013 0 .037.003.047.01.01.002.01.01.02.012.015 0 .044-.02.05-.03-.04-.01-.1-.01-.13-.032l.08-.028zm-6.672 9.06h.003a.06.06 0 0 0-.003-.023l.004.022zm-.397 2.843c.01.014.13.084.16.076.02-.01.03-.04.07-.03.025.003.03.02.064.02l.004-.02c-.037-.055-.165-.08-.258-.076l-.036.026zm.39-2.866h.007l-.003-.01v.01zm3.09-7.433c.02-.013.05-.062.026-.087-.03.03-.085.04-.034.085l.01.002zm3.43-1.113s-.002 0-.005.005c-.03.026-.058.053-.087.08-.026.01-.053.023-.08.035-.018.013-.017.05-.024.067-.003.01-.027.05-.023.056.01.006.067-.012.076-.016a.254.254 0 0 0 .052-.03l.016-.016.045-.012.04-.037.006-.005c.007.004.02.01.032.004.023-.014.02-.035.05-.05.007-.024-.076-.063-.094-.076zM12 16.826l-.004-.006-.032-.01a.08.08 0 0 0-.03.034c0 .002-.003.003-.005.004-.02-.02-.03-.056-.04-.083v-.002c.06-.03.06-.012.11-.056v-.015l-.026-.01c-.02.01-.04.02-.07.02a.12.12 0 0 1-.048-.046l-.01-.01.072-.06.02-.023a.243.243 0 0 0-.167-.04l-.02.035c-.07.015-.127-.03-.17-.062v-.01l.054-.054-.068-.026c-.057.01-.05.066-.106.078-.003-.123.172-.2.12-.3.024-.008.052-.016.07-.023l.004-.013c0-.004-.003-.01-.005-.015l-.02-.006-.116.03c-.096.062-.215.245-.255.363l.047.056c-.043.045-.09 0-.118.083l-.007.012.072.02c-.045.043-.132.054-.162.113-.008.015.006.038.013.057l.145-.016c.06.01.12.018.18.026.056.01.116 0 .125-.04l.05-.007v.047l.006.01c.008 0 .015-.002.02-.003.017-.007.02-.02.027-.036a.873.873 0 0 1 .086.01v.005c-.06.027-.077.083-.153.104-.006.013-.004.008 0 .022a.16.16 0 0 0 .067.01c.05-.054.14-.098.173-.157l.016.005c.01.015.02.03.03.042a.103.103 0 0 1-.03.073l.002.026.025.004c.013-.01.026-.02.038-.032l.008.054.08.022c.015-.047.054-.097.048-.15-.06.006-.066-.01-.054-.056zm11.305 1.236c.012-.006.008-.002.01-.02.072 0 .084-.045.146-.05l-.02-.03c.028-.033.07-.05.097-.082l-.15.054-.088-.01c.004.01.005.02 0 .034a.65.65 0 0 1-.093.022c.006.027.014.035.022.057.02.01.06.015.08.028zM12.84 13.67c-.004.016-.046.022-.053.044v.002a.167.167 0 0 0 .08-.03c0-.007-.003-.01-.01-.016h-.016zm-2.875 9.786l-.007.01c.022 0 .02.005.032.016a.047.047 0 0 0 0 .04l-.05.023-.007.01v.003c.043 0 .087-.002.12-.006.01-.04-.003-.078.017-.108v-.004h-.02a.185.185 0 0 1-.085.016zm1.656 1.817c.077.018.217-.006.258-.054.024-.03.032-.107.048-.137-.028-.027-.223-.03-.296-.028-.04.06-.03.163-.007.215zm-1.71-3.596c.01.02.01.045.01.067.043.01.057-.008.1-.01.06-.002.1.018.11-.048-.04-.03-.144-.025-.2-.025l-.017.02zm.96-4.49l-.024-.016c-.005-.05.042-.042.067-.07.02-.023.03-.076.05-.1l-.06-.04c-.024.05-.126.132-.11.205.026.104.21.07.236-.013-.076-.1-.1.02-.158.038z"/></svg>