<svg xmlns="http://www.w3.org/2000/svg" width="100.1" height="100.1" viewBox="0 0 100.1 100.1"><symbol id="c" viewBox="-5.9 -8.5 11.9 16.9"><path fill="none" stroke="#FAC928" stroke-width="1.5" stroke-miterlimit="10" d="M0 5.1c0 1.4-1.2 2.6-2.6 2.6-1.4 0-2.6-1.2-2.6-2.6 0-.7.3-1.3.7-1.7L-2.6 1l1.9 2.4c.4.4.7 1 .7 1.7zM5.2 5.1c0 1.4-1.2 2.6-2.6 2.6C1.2 7.6 0 6.5 0 5.1c0-.7.3-1.3.7-1.7L2.6 1l1.9 2.4c.4.4.7 1 .7 1.7z"/><path fill="#DF473A" d="M5.2-.2C5.2 2.7 2.9 5 .1 5S-5.1 2.7-5.1-.2c0-1.3.5-2.5 1.3-3.4L0-8.4l3.8 4.7c.9 1 1.4 2.2 1.4 3.5z"/><path fill="#FAC928" d="M-1 4.9V-7L.1-8.5 1.2-7V4.9c-.4.1-.7.2-1.1.2-.4 0-.8-.1-1.1-.2z"/><path fill="#FFF" d="M1.9-.2c0-1-.8-1.8-1.8-1.8s-1.8.8-1.8 1.8.8 1.8 1.8 1.8S1.9.8 1.9-.2z"/></symbol><symbol id="d" viewBox="-77.5 -81.6 146.2 105.3"><path fill="#2B2B2B" d="M56.3 8.6H44.1v8.9h12.2zM-55.6 5.2h-14.3V14h14.3z"/><path fill="#2B2B2B" d="M-58.8 7.5h-8.4v8.9h8.4z"/><path fill="gray" d="M-55.6 3.7h-14.3v8.9h14.3z"/><path fill="#E0E0E0" d="M-43.1 5.2h-9.4V14h9.4z"/><path fill="#2B2B2B" d="M-43.1 3.7h-9.4v8.9h9.4z"/><path fill="#E0E0E0" d="M60.7 5.2h-21V14h21z"/><path fill="#2B2B2B" d="M60.7 3.7h-21v8.9h21z"/><path fill="gray" d="M68.7-81.6H-77.5V8.9H68.7z"/><path fill="#E0E0E0" d="M64.3-81.6H-77.5V8.9H64.3z"/><path fill="#E0E0E0" d="M64.3-81.6H-77.5V8.9H64.3z"/><path fill="#2B2B2B" d="M68.7-77.1H-77.5v73.5H68.7z"/><path fill="gray" d="M41.9-81.6h-66.5V8.9h66.5z"/><path fill="#E0E0E0" d="M28.6-81.6H-38V1.2l6.3 22.5h54l6.3-22.5z"/><path fill="#E0E0E0" d="M28.6-81.6H-38V1.2l6.3 22.5h54l6.3-22.5z"/><path fill="#2B2B2B" d="M28.6-77.1H-38V.7h66.6z"/><path fill="gray" d="M-34.3-77.1H-38V.7h3.7z"/><path fill="gray" d="M34.4-41.7c0-21.3-17.3-38.6-38.6-38.6S-42.8-63-42.8-41.7-25.5-3.1-4.2-3.1s38.6-17.3 38.6-38.6z"/><path fill="gray" d="M39.6-49.6C39.6-28.3 22.3-11 1-11s-38.6-17.3-38.6-38.6c0-13.3 6.7-25 16.9-31.9h49c6.8 7.3 11.3 18.6 11.3 31.9z"/><path fill="#2B2B2B" d="M31.1-41.7c0-19.5-15.8-35.2-35.2-35.2-19.5 0-35.2 15.8-35.2 35.2 0 19.5 15.8 35.2 35.2 35.2 19.4 0 35.2-15.7 35.2-35.2z"/><path fill="#704A93" d="M18.9-41.7C18.9-54.4 8.6-64.6-4-64.6c-12.7 0-22.9 10.3-22.9 22.9S-16.7-18.8-4-18.8c12.6 0 22.9-10.3 22.9-22.9z"/><path fill="#553D80" d="M15.3-41.6c0-10.6-8.6-19.2-19.2-19.2s-19.2 8.6-19.2 19.2 8.6 19.2 19.2 19.2S15.3-31 15.3-41.6z"/><path fill="#5F80B9" d="M14.8-42.6c0-9.9-8-17.9-17.9-17.9S-21-52.5-21-42.6c0 9.9 8 17.9 17.9 17.9s17.9-8 17.9-17.9z"/><path fill="#39527C" d="M8-42.6c0-6.1-4.9-11-11-11s-11 4.9-11 11 4.9 11 11 11 11-4.9 11-11z"/><path fill="#FFF" d="M-4.6-31.6c0-2.3-1.8-4.1-4.1-4.1s-4.1 1.8-4.1 4.1 1.8 4.1 4.1 4.1 4.1-1.8 4.1-4.1zM-12.7-38.9c0-1.1-.9-2-2-2s-2 .9-2 2 .9 2 2 2 2-.9 2-2z"/><path fill="gray" d="M60.8-20.1c0-5.1-4.1-9.2-9.2-9.2s-9.2 4.1-9.2 9.2 4.1 9.2 9.2 9.2c5.1.1 9.2-4.1 9.2-9.2z"/><path fill="#E0E0E0" d="M58.8-19.3c0-4.4-3.6-8-8-8s-8 3.6-8 8 3.6 8 8 8 8-3.5 8-8zM-53.5-47.2v-9.7c0-2.6 2.1-4.6 4.6-4.6 2.6 0 4.6 2.1 4.6 4.6 0 0-.2 2.6-2.2 5.3l-3.3 5.2c-1.4 2.5-3.7 1.9-3.7-.8z"/><path fill="gray" d="M-70.6-81.6h-6.9V8.9h6.9zM56.5-20c0-2.7-2.2-4.9-4.9-4.9s-4.9 2.2-4.9 4.9 2.2 4.9 4.9 4.9 4.9-2.2 4.9-4.9z"/><path fill="gray" d="M-72.3 2.2c0-.9-.7-1.7-1.7-1.7s-1.7.7-1.7 1.7c0 .9.7 1.7 1.7 1.7s1.7-.8 1.7-1.7z"/></symbol><g><circle fill="#B756C5" cx="50.1" cy="50.1" r="50.1"/><path fill="#2A903E" d="M57.5 19.5c-4.1 3.3-5.1 8.8-2.1 12.3 3 3.6 8.5 3.8 12.3.5 3.8-3.3 4.8-8.8 2.1-12.3-2.7-3.5-8.2-3.7-12.3-.5z"/><path opacity=".2" fill="#FFF" d="M69.4 20c-1.9-2.5-5.3-3.4-8.6-2.4 2.8-.4 5.6.5 7.3 2.7 2.7 3.5 1.8 9.1-2 12.3-1.1.9-2.3 1.6-3.5 1.9 1.7-.2 3.4-1 4.9-2.2 3.7-3.2 4.6-8.7 1.9-12.3z"/><path fill="#333" d="M54.4 22.8c.4-1.1 4-3 8.4-.2 4.3 2.7 6.4 8.5 6 8.7.4-.8.9-1.5 1.3-2.2.3-.1-1.2-5.2-5.3-8.6-2.6-2.7-8.2-2.5-8.5-1.2-.6 1.1-1.1 2.1-1.7 3.3"/><path fill="#FFDB86" d="M68.7 29.7c.5-1.4 1.2-4.6.1-3.8.5-2 .7 0-.5-1.3-.6-.6-6.5-2.3-7.6-2.4-.1.1-.4.4-1.8 1.3-1.2.8-2 1.3-3.3 1.8-.3.1-.5.2-.8.2-.5 2.1-.1 4.3 1.3 6 2.3 2.8 6.5 3.3 9.8 1.2 1.1-.8 2.4-2 2.8-3z"/><path fill="#FFBF70" d="M68.2 29.3c.5-1.4 1.2-4.5.2-3.7.5-1.9.7 0-.5-1.3-.5-.6-6.2-2.1-7.3-2.2-.1.1-.4.4-1.7 1.3-1.2.8-2 1.3-3.3 1.8-.3.1-.5.2-.8.2-.5 2.1-.2 4.2 1.1 5.9 2.2 2.7 6.2 3.1 9.5 1 1.1-.8 2.4-1.9 2.8-3z"/><path fill="#60B4D8" d="M70 23.7c-.7.1-1.8 1-1.4 2.3.7 2.2 2.4.5 2.6-.8.1-.5-.1-1-.3-1.2-.2-.3-.5-.4-.9-.3z"/><path fill="#333" d="M69.5 28.2c-.5 0-1.5-.2-2-1.8-.3-.9-.1-1.8.4-2.5s1.3-1.2 2.1-1.3c.7-.1 1.3.1 1.8.6s.7 1.3.6 2c-.2 1.4-1.5 3-2.9 3zm.5-3.4l-.2.2s-.1.2 0 .5c0 .1 0 .1.1.2.1-.2.2-.4.2-.6 0-.1 0-.3-.1-.3z"/><path fill="#FFDB86" d="M67.2 23.2c2.2-.1 4.3-.3 6.5-.4-.1.2-.1.5-.2.7-2.4.9-4.9 1.8-7.3 2.7"/><path fill="#FFBF70" d="M66.7 22.8c2.2-.1 4.3-.3 6.5-.4.2.1.3.2.5.3-2.6 1.2-5.2 2.5-7.7 3.7"/><path fill="#60B4D8" d="M68.3 21.3c.3.9-.1 2.5-2.1 2.1-3.4-.6-2.3-3.1-.7-3.6.6-.2 1.3 0 1.8.3.4.3.8.8 1 1.2z"/><path fill="#333" d="M66.5 24.7c-.2 0-.5 0-.7-.1-3-.5-3.1-2.4-3-3 .1-1.3 1.2-2.5 2.6-2.8.9-.2 1.9-.1 2.6.4.6.4 1.2 1 1.4 1.6.3.9.1 1.9-.4 2.7-.4.5-1.2 1.2-2.5 1.2zm-.7-3.7h-.2c-.3.1-.5.3-.5.5 0 .3.4.6 1.4.8.4.1.7 0 .7 0s.1-.3 0-.5-.3-.5-.6-.7c-.3 0-.5-.1-.8-.1z"/><path fill="#F1921D" d="M28.6 81.2c5.7-10 9.9-9.1 14.5-17.6 2.4-4.4 2.9-9 .7-10.4-2.1-1.4-6.1 1.1-8.7 5.5-5 8.8-2.2 11.5-6.5 22.5z"/><path fill="#FFEB00" d="M37.3 64.3c2.4-3.8 3.9-3.4 5.8-6.6 1-1.6 1.1-3.4.3-3.9s-2.3.4-3.2 2c-2 3.4-1 4.4-2.9 8.5zM29.7 64c-.2.6-.3 1.1-.5 1.7.5.4.9.8 1.4 1.2-.6-.2-1.1-.4-1.7-.6-.4.4-.8.8-1.1 1.3.2-.6.3-1.1.5-1.7-.5-.4-.9-.8-1.4-1.2.6.2 1.1.4 1.7.6.3-.5.7-.9 1.1-1.3zM29 69.4c-.1.3-.1.5-.2.8l.6.6c-.3-.1-.5-.2-.8-.3-.2.2-.3.4-.5.6.1-.3.1-.5.2-.8l-.6-.6c.3.1.5.2.8.3.1-.3.3-.5.5-.6zM26.6 72.9c-.1.5-.3 1.1-.4 1.6.5.4.9.8 1.4 1.2-.6-.2-1.2-.4-1.7-.6-.4.4-.7.8-1.1 1.2.1-.5.3-1.1.4-1.6-.5-.4-.9-.8-1.4-1.2.6.2 1.1.4 1.7.6.4-.3.7-.8 1.1-1.2z"/><path fill="#F1921D" d="M38.9 72.1c-.1.4-.2.9-.3 1.3.4.3.8.7 1.1 1-.5-.2-.9-.3-1.4-.5-.3.3-.6.7-.9 1 .1-.4.2-.9.3-1.3-.4-.3-.8-.7-1.1-1 .5.2.9.3 1.4.5.3-.3.6-.7.9-1z"/><path fill="#FFEB00" d="M33.1 75.9c0 .2-.1.4-.1.6.2.1.3.3.5.4-.2-.1-.4-.1-.6-.2-.1.1-.2.3-.4.4 0-.2.1-.4.1-.6-.2-.1-.3-.3-.5-.4.2.1.4.1.6.2.2-.1.3-.3.4-.4z"/><path fill="#F1921D" d="M35.1 81.7c0 .2-.1.4-.1.6.2.1.3.3.5.4-.2-.1-.4-.1-.6-.2-.1.1-.2.3-.4.4 0-.2.1-.4.1-.6-.2-.1-.3-.3-.5-.4.2.1.4.1.6.2.2-.1.3-.2.4-.4z"/><path fill="#FFEB00" d="M26.6 78.7c-.1.3-.1.5-.2.8.2.2.5.4.7.6-.3-.1-.6-.2-.8-.3-.2.2-.3.4-.5.6.1-.3.1-.5.2-.8-.2-.2-.5-.4-.7-.6.3.1.6.2.8.3.1-.2.3-.4.5-.6z"/><path fill="#9A9C9E" d="M36 47.3c3.7-5.7 7.6-11.3 11.7-17 1.7-2.3 4.8-2.9 6.9-1.5 2.1 1.4 2.5 4.5.9 6.7-4 5.6-7.8 11.3-11.3 17 0 0-8.3-5.5-8.2-5.2"/><path fill="#9A9C9E" d="M47.2 33.6c-4.4-1.4-8.7-2.7-13.1-4.1l-1.8 2.4c3.5 2.4 7.1 4.9 10.8 7.3 1.4-1.9 2.7-3.8 4.1-5.6z"/><path fill="#BABBBD" d="M36 47.3c3.7-5.7 7.6-11.3 11.7-17 1.7-2.3 4.8-2.9 6.9-1.5 1.4 1 .3 3-1.3 5.3-4 5.6-7.8 11.3-11.4 17-2-1.3-4-2.5-5.9-3.8z"/><path fill="#9A9C9E" d="M44.8 52.9c3.5-5.7 7.2-11.3 11.2-17 1.6-2.3 4.7-3 6.9-1.5 2.2 1.4 2.6 4.5 1.1 6.8-3.8 5.7-7.4 11.3-10.8 17 0 0-8.5-5.6-8.4-5.3"/><path fill="#BABBBD" d="M44.8 52.9c3.5-5.7 7.2-11.3 11.2-17 1.6-2.3 4.7-3 6.9-1.5 1.5 1 .4 3-1.2 5.3-3.9 5.7-7.5 11.3-10.9 17-2-1.3-4-2.5-6-3.8z"/><path fill="#333" d="M39.8 42.8c5.4 3.5 10.8 7 16.4 10.5.7-1.2 1.4-2.3 2.2-3.5-5.5-3.5-10.9-7-16.2-10.5-.9 1.2-1.6 2.3-2.4 3.5z"/><path fill="#9A9C9E" d="M61.6 43.1c3 3.5 6.1 7 9.3 10.5L69.4 56c-3.9-2.4-7.7-4.8-11.5-7.2 1.2-1.9 2.4-3.8 3.7-5.7z"/><g><path fill="#333" d="M37.3 62.3c.5-.9 0-2.2-.9-2.7-.9-.6-2.3-.4-2.8.5-.3.4-2.8 4.9-3 5.4-.5.9-1.1 4.3-.1 4.9.9.6 3.4-1.7 3.9-2.6.1-.5 2.6-5.1 2.9-5.5z"/></g><g><path fill="#CBCBCB" d="M39.9 57.8c-1.2-.8-2.4-1.5-3.6-2.3 0 0-2.6 4.4-2.7 4.6-.5.9 0 2.1.9 2.7.9.6 2.2.5 2.7-.4.1-.2 2.7-4.6 2.7-4.6z"/></g><g><path fill="#333" d="M38.4 63c.5-.9 1.8-1 2.8-.5.9.6 1.5 1.8 1 2.7-.2.4-2.7 4.9-2.9 5.3-.5.9-2.9 3.2-3.9 2.6-1-.6-.4-4 .1-4.9.1-.2 2.6-4.8 2.9-5.2z"/></g><g><path fill="#CBCBCB" d="M41 58.5c1.2.8 2.4 1.5 3.7 2.3 0 0-2.5 4.4-2.6 4.6-.5.9-1.8 1-2.7.4-.9-.6-1.5-1.8-1-2.7.1-.2 2.6-4.6 2.6-4.6z"/></g><g><path fill="#2A903E" d="M46.8 51.4c2.4 1.5 2.1 3 1.3 4.2-1 1.7-2.1 3.5-3.1 5.2-1.2-.8-2.5-1.5-3.7-2.3 1.5-2.5 3-5.1 4.6-7.6.3.2.6.4.9.5z"/></g><g opacity=".23"><path fill="#FFF" d="M42.1 63.1c-1.9 3.4-3.7 6.7-5.5 10.1 1.1-.4 2.6-1.9 2.9-2.6.9-1.8 1.9-3.6 2.9-5.3.5-.7.3-1.6-.3-2.2z"/><path fill="#FFF" d="M43.9 60c-1.2 2-2.3 4-3.4 6 .8.2 1.6-.1 2-.7.1-.2 2.6-4.6 2.6-4.6-.4-.2-.8-.4-1.2-.7z"/><path fill="#FFF" d="M48.3 52.8c-1.5 2.5-3 4.9-4.4 7.4.4.2.8.5 1.2.7 1-1.7 2-3.5 3.1-5.2.4-.9.7-1.9.1-2.9z"/></g><g><path fill="#2A903E" d="M44.1 49.7c-2.4-1.5-3.5-.6-4.3.7-1.1 1.7-2.2 3.5-3.2 5.2 1.2.8 2.5 1.5 3.7 2.3 1.5-2.5 3-5.1 4.6-7.6-.3-.2-.6-.4-.8-.6z"/></g><path fill="#36AB49" d="M40.5 43.2c-2.6 3.8-1.4 8.9 2.5 11.3 3.9 2.4 8.9 1.3 11.2-2.5 2-3.2 4-6.4 6.2-9.6 2.6-3.8 1.8-8.9-1.7-11.3-3.6-2.4-8.7-1.3-11.5 2.5-2.4 3.3-4.6 6.4-6.7 9.6z"/><path fill="#2A903E" d="M40.5 43.2c-2.6 3.8-1.4 8.9 2.5 11.3 3.9 2.4 7.5.5 9.9-3.4 2-3.2 4.1-6.4 6.2-9.6 2.6-3.8 3.1-8-.5-10.5-3.6-2.4-8.7-1.3-11.5 2.5-2.3 3.4-4.5 6.5-6.6 9.7z"/><g><path fill="#2A903E" d="M60.4 49.6h-.2c0-1.7.1-3.4.2-5.1 1.2 0 1.4-.4 1.4-.5.4-1.1-.2-3.8-2.4-5.8 1.2-1.3 2.4-2.5 3.6-3.8 3.4 3.2 4.8 8 3.4 11.4-.9 2.5-3.1 3.8-6 3.8z"/><path opacity=".2" fill="#FFF" d="M65.8 44.7c-.1.2-.4 1.7-1.2 2.6l.2.2c.6-.5 1-1.1 1.4-1.9 1.3-3.1-.1-7.6-3.3-10.6l-.5.5c2.2 2.2 4 7.7 3.4 9.2z"/><path fill="#E31C24" d="M60.1 50.1c-1 .8-2 1.5-3 2.3-6.2-1.2-12.3-2.3-18.5-3.5 1.5-7.9 3.5-15.8 6-23.7 6 1.1 12 2.3 18 3.4.6.8 1.2 1.6 1.9 2.4-1.7 6.5-3.2 12.8-4.4 19.1z"/><path fill="#2A903E" d="M40.1 44c-1.5-.8-2.9-1.6-4.3-2.5 1.2-2.1 3.3-3.6 5.5-4.3.4 1.6.8 3.2 1.2 4.9-1 .3-1.9 1-2.4 1.9z"/><path fill="#CBCBCB" d="M40.1 42.6c-.7 1-2.1 1.4-3.1.7s-1.3-2.1-.6-3.1c.7-1 2.1-1.4 3.1-.7 1.1.6 1.3 2 .6 3.1z"/><path opacity=".53" fill="#981C24" d="M57.1 52.4c-6.2-1.2-12.3-2.3-18.5-3.5 1.5-7.9 3.5-15.8 6-23.7 6 1.1 12 2.3 18 3.4-2.3 8-4.1 15.9-5.5 23.8z"/><path fill="#E39824" d="M49.7 51c-1.2-.2-2.5-.5-3.7-.7 1.5-7.9 3.4-15.8 5.9-23.7 1.2.2 2.4.5 3.7.7-2.5 7.9-4.4 15.8-5.9 23.7z"/><path fill="#E39824" d="M40.8 39c.3-1.2.6-2.5 1-3.7 6.1 1.2 12.2 2.3 18.3 3.5-.3 1.2-.6 2.5-.9 3.7-6.2-1.2-12.3-2.4-18.4-3.5z"/><path fill="#FFC131" d="M61.6 42.9c.3-1.2.6-2.5.9-3.7-.8-.2-1.6-.3-2.4-.5-.3 1.2-.6 2.5-.9 3.7.7.2 1.6.3 2.4.5z"/></g><path fill="#FFBF70" d="M40.3 43.5c-.7 1-2.1 1.4-3.1.7s-1.3-2.1-.6-3.1c.7-1 2.1-1.4 3.1-.7 1 .6 1.3 2 .6 3.1z"/><path fill="#CBCBCB" d="M62.9 48.3c-.7 1-2.1 1.4-3.1.7s-1.3-2.1-.6-3.1c.7-1 2.1-1.4 3.1-.7.9.6 1.2 2 .6 3.1z"/><path fill="#FFBF70" d="M61.5 48.6c-.7 1-2.1 1.4-3.1.7s-1.3-2.1-.7-3.1c.7-1 2.1-1.4 3.1-.7 1.1.6 1.4 2 .7 3.1z"/></g></svg>