<svg xmlns="http://www.w3.org/2000/svg" width="100.1" height="100.1" viewBox="0 0 100.1 100.1"><symbol id="c" viewBox="-5.9 -8.5 11.9 16.9"><path fill="none" stroke="#FAC928" stroke-width="1.5" stroke-miterlimit="10" d="M0 5.1c0 1.4-1.2 2.6-2.6 2.6-1.4 0-2.6-1.2-2.6-2.6 0-.7.3-1.3.7-1.7L-2.6 1l1.9 2.4c.4.4.7 1 .7 1.7zM5.2 5.1c0 1.4-1.2 2.6-2.6 2.6C1.2 7.6 0 6.5 0 5.1c0-.7.3-1.3.7-1.7L2.6 1l1.9 2.4c.4.4.7 1 .7 1.7z"/><path fill="#DF473A" d="M5.2-.2C5.2 2.7 2.9 5 .1 5S-5.1 2.7-5.1-.2c0-1.3.5-2.5 1.3-3.4L0-8.4l3.8 4.7c.9 1 1.4 2.2 1.4 3.5z"/><path fill="#FAC928" d="M-1 4.9V-7L.1-8.5 1.2-7V4.9c-.4.1-.7.2-1.1.2-.4 0-.8-.1-1.1-.2z"/><path fill="#FFF" d="M1.9-.2c0-1-.8-1.8-1.8-1.8s-1.8.8-1.8 1.8.8 1.8 1.8 1.8S1.9.8 1.9-.2z"/></symbol><symbol id="d" viewBox="-77.5 -81.6 146.2 105.3"><path fill="#2B2B2B" d="M56.3 8.6H44.1v8.9h12.2zM-55.6 5.2h-14.3V14h14.3z"/><path fill="#2B2B2B" d="M-58.8 7.5h-8.4v8.9h8.4z"/><path fill="gray" d="M-55.6 3.7h-14.3v8.9h14.3z"/><path fill="#E0E0E0" d="M-43.1 5.2h-9.4V14h9.4z"/><path fill="#2B2B2B" d="M-43.1 3.7h-9.4v8.9h9.4z"/><path fill="#E0E0E0" d="M60.7 5.2h-21V14h21z"/><path fill="#2B2B2B" d="M60.7 3.7h-21v8.9h21z"/><path fill="gray" d="M68.7-81.6H-77.5V8.9H68.7z"/><path fill="#E0E0E0" d="M64.3-81.6H-77.5V8.9H64.3z"/><path fill="#E0E0E0" d="M64.3-81.6H-77.5V8.9H64.3z"/><path fill="#2B2B2B" d="M68.7-77.1H-77.5v73.5H68.7z"/><path fill="gray" d="M41.9-81.6h-66.5V8.9h66.5z"/><path fill="#E0E0E0" d="M28.6-81.6H-38V1.2l6.3 22.5h54l6.3-22.5z"/><path fill="#E0E0E0" d="M28.6-81.6H-38V1.2l6.3 22.5h54l6.3-22.5z"/><path fill="#2B2B2B" d="M28.6-77.1H-38V.7h66.6z"/><path fill="gray" d="M-34.3-77.1H-38V.7h3.7z"/><path fill="gray" d="M34.4-41.7c0-21.3-17.3-38.6-38.6-38.6S-42.8-63-42.8-41.7-25.5-3.1-4.2-3.1s38.6-17.3 38.6-38.6z"/><path fill="gray" d="M39.6-49.6C39.6-28.3 22.3-11 1-11s-38.6-17.3-38.6-38.6c0-13.3 6.7-25 16.9-31.9h49c6.8 7.3 11.3 18.6 11.3 31.9z"/><path fill="#2B2B2B" d="M31.1-41.7c0-19.5-15.8-35.2-35.2-35.2-19.5 0-35.2 15.8-35.2 35.2 0 19.5 15.8 35.2 35.2 35.2 19.4 0 35.2-15.7 35.2-35.2z"/><path fill="#704A93" d="M18.9-41.7C18.9-54.4 8.6-64.6-4-64.6c-12.7 0-22.9 10.3-22.9 22.9S-16.7-18.8-4-18.8c12.6 0 22.9-10.3 22.9-22.9z"/><path fill="#553D80" d="M15.3-41.6c0-10.6-8.6-19.2-19.2-19.2s-19.2 8.6-19.2 19.2 8.6 19.2 19.2 19.2S15.3-31 15.3-41.6z"/><path fill="#5F80B9" d="M14.8-42.6c0-9.9-8-17.9-17.9-17.9S-21-52.5-21-42.6c0 9.9 8 17.9 17.9 17.9s17.9-8 17.9-17.9z"/><path fill="#39527C" d="M8-42.6c0-6.1-4.9-11-11-11s-11 4.9-11 11 4.9 11 11 11 11-4.9 11-11z"/><path fill="#FFF" d="M-4.6-31.6c0-2.3-1.8-4.1-4.1-4.1s-4.1 1.8-4.1 4.1 1.8 4.1 4.1 4.1 4.1-1.8 4.1-4.1zM-12.7-38.9c0-1.1-.9-2-2-2s-2 .9-2 2 .9 2 2 2 2-.9 2-2z"/><path fill="gray" d="M60.8-20.1c0-5.1-4.1-9.2-9.2-9.2s-9.2 4.1-9.2 9.2 4.1 9.2 9.2 9.2c5.1.1 9.2-4.1 9.2-9.2z"/><path fill="#E0E0E0" d="M58.8-19.3c0-4.4-3.6-8-8-8s-8 3.6-8 8 3.6 8 8 8 8-3.5 8-8zM-53.5-47.2v-9.7c0-2.6 2.1-4.6 4.6-4.6 2.6 0 4.6 2.1 4.6 4.6 0 0-.2 2.6-2.2 5.3l-3.3 5.2c-1.4 2.5-3.7 1.9-3.7-.8z"/><path fill="gray" d="M-70.6-81.6h-6.9V8.9h6.9zM56.5-20c0-2.7-2.2-4.9-4.9-4.9s-4.9 2.2-4.9 4.9 2.2 4.9 4.9 4.9 4.9-2.2 4.9-4.9z"/><path fill="gray" d="M-72.3 2.2c0-.9-.7-1.7-1.7-1.7s-1.7.7-1.7 1.7c0 .9.7 1.7 1.7 1.7s1.7-.8 1.7-1.7z"/></symbol><g><circle fill="#00BE5D" cx="50.1" cy="50.1" r="50.1"/><path fill="none" d="M11.6 27.1h76.9V73H11.6z"/><path fill="#0580DD" d="M11.7 50.1c0 6.4 6.6 16.3 16.6 22.9h43.9c9.8-6.7 16.3-16.6 16.3-22.9 0-6.4-6.6-16.4-16.7-23H28.4c-10.1 6.6-16.7 16.6-16.7 23z"/><path fill="none" d="M11.9 26.6h76.9v45.9H11.9z"/><g fill="#00B07B"><path d="M37 73c-.2-.3-.7-.2-1.1-.4-.2-.1-.5-.3-.6-.5-.2-.1-.5-.3-.5-.5 0-.1.2-.2.3-.3 0-.1-.1-.1 0-.2.1-.2.4-.2.4-.5 0-.4-1-.2-1-.6 0-.3.5-.2.6-.5 0-.1 0-.2-.1-.3.1-.2.3-.2.4-.4-.1-.1-.4 0-.5-.1-.2-.1-.2-.2-.2-.4.3-.1.8.2 1-.1.1-.1-.1-.5 0-.6.1-.1.6-.1.8-.1.3 0 .6-.1.7-.2.2-.1.4-.3.4-.5 0-.1-.1-.1-.2-.2s-.1-.2-.2-.3c-.1-.1-.3-.1-.4-.3.4-.1.9.2 1.5.1.3-.1.6-.4.7-.6 0-.1 0-.1.1-.2 0-.1.1-.1.2-.2 0-.1 0-.2.1-.2.1-.2.3-.3.5-.4l.3-.3.3-.3c.1-.3-.2-.6-.1-.9.1-.3.8-.5 1.2-.7.2-.1.3-.1.4-.2.3-.1.7 0 1-.1.5-.1.5-.5.8-.8.1-.2.3-.3.3-.4v-.3c0-.1.2-.2.2-.3.1-.2.1-.4.1-.6 0-.1-.1-.3-.1-.4 0-.5.2-.5.5-.8.1-.1.2-.3.3-.4.4-.5 1.1-.7 1.1-1.4 0-.2-.2-.7-.4-.8-.1 0-.4 0-.6-.1-.6-.2-1-.7-1.6-.8h-.4c-.2 0-.6-.1-.9-.2h-.5c-.2-.1-.2-.3-.3-.3-.1-.1-.3-.1-.5-.1-.3-.1-.5-.2-.7-.2H40c-.2 0-.3-.2-.4-.2-.2-.1-.4-.1-.4-.2.2-.4-.3-.5-.4-.8-.1-.1 0-.2-.1-.3-.1-.1-.3-.2-.5-.3-.4-.2-.7-.4-1.2-.5-.2 0-.5.1-.7 0-.3 0-.7-.2-.9-.4-.2-.2-.3-.3-.5-.4-.2-.1-.4-.1-.5-.2-.1 0 0-.1-.1-.2s-.2-.2-.1-.4c-.2-.1-.2.1-.4.1-.2-.2-.4-.3-.8-.2-.2 0-.3.2-.6.2-.2 0-.4-.2-.6-.2h-.6c-.2 0-.3-.2-.5-.3-.1-.1-.4-.2-.5-.2-.3 0-.4.4-.8.3-.2-.2.3-.2.1-.4-.2-.1-.3.1-.4.1-.1.1-.3.1-.4.2-.4.1-.6 0-.8.2-.3.1-.3.3-.4.5-.1.2-.4.4-.6.4-.2 0-.4-.2-.6-.3-.6-.2-.9.2-1.4.2-.5 0-1.1-.5-1.1-.8 0-.2.1-.5.2-.7 0-.2.2-.3.2-.5s-.4-.4-.6-.4c-.5-.1-1.1.1-1.7 0-.1-.1.1-.2.2-.3 0-.1 0-.2.1-.2l.3-.3c.1-.1.1-.2.1-.4.1-.1.2-.2.2-.3 0-.1 0-.3-.2-.4-.4 0-.7 0-1 .1-.6.2-.4.7-1 .9-.2 0-.5 0-.7.1-.2 0-.4.1-.6.1-.2 0-.6-.2-.7-.3-.1-.1-.4-.6-.4-.6-.2-.6 0-1.1.3-1.4l.2-.2c.1-.1 0-.3.1-.5.1-.3.6-.4.9-.5.4-.1.7-.4 1.1-.4.2 0 .5 0 .7.1.2 0 .3.1.5.1.5 0 .6-.2 1-.4h1c.2 0 .4.2.6.2.2 0 .3-.1.5-.1s.4.3.4.4c0 .2-.2.3-.1.5.2.2.7.2 1 .3.2-.1 0-.4 0-.6v-.2c0-.1-.1-.3-.1-.4 0-.5.6-.8 1.1-1 .2-.1.4-.3.6-.3.3-.1.5-.1.7-.2.4-.2.7-.3 1-.5.1-.2 0-.6 0-.8.1-.1.3 0 .4 0 .2 0 .3-.3.4-.4.1-.1.3-.1.4-.2.2-.1.3-.3.5-.4h.4c.2 0 .4-.2.6-.2.2 0 .5 0 .6-.1.1-.1 0-.2 0-.3.1-.4 1-.5 1.5-.7.4-.1.7-.3 1.1-.2-.1.2-.4.1-.4.4.1.3.7-.1.9-.2.3-.1.8-.2 1.3-.3.4-.1 1-.2.7-.5-.3 0-.4.2-.7.3-.2 0-.1-.1-.3-.1-.1 0-.2.1-.4.1-.1 0-.3-.2-.4-.3-.1-.3.4-.4.5-.7-.1-.3-.7-.1-1-.2 0-.2.3-.3.5-.3s.7 0 .8.1c.1 0 0 .2.1.2.1.1.3.1.5.1.1-.2-.4-.2-.3-.3.3-.2.9 0 1.3-.1.2 0 .5-.2.7-.2.2-.1.5-.2.7-.1.1.2-.2.2-.3.3-.4.3-.8.5-1.1.8.2.1.5.1.8.1.1 0 .3 0 .4.1h.4c.2 0 .3.2.5.2.4 0 .4-.3.2-.5.1-.2.2-.3.1-.4-.2-.2-.7 0-.8-.3 0-.2.2-.2.3-.3 0-.4.4-.4.4-.7 0-.1-.2-.1-.3-.3-.1-.1-.1-.2-.2-.2-.3-.2-.8-.1-.8-.5 0-.2.1-.3 0-.5 0-.2-.2-.7-.4-.8-.3 0-.6.3-.9.4-.2.1-.5.1-.6.1-.1 0-.4-.1-.4-.3 0-.2.2-.2.2-.4 0-.1-.2-.1-.4-.2s-.3-.3-.6-.4c-.1 0-.3.1-.4.1-.4 0-.7-.2-1-.1-.3.1-.3.5-.7.5 0 .2-.3.3-.3.5 0 .1 0 .2.1.3.1.9-.9 1.3-2.1 1.3-.2.2-.2.5-.3.7-.1.2-.5.4-.7.4-.2 0-.4-.2-.4-.3 0-.2.3-.2.1-.4 0-.1.4-.2.4-.4s-.4-.1-.8-.1c-.3 0-.6-.1-.8-.2-.3-.1-.6-.4-1-.4-.2 0-.4.1-.5 0-.1-.1 0-.3.1-.3 0-.1-.3-.2-.3-.3 0-.1.3-.3.4-.4.2-.1.6-.3.9-.4.3-.1.7-.3 1-.3.1 0 .3 0 .4-.1.3-.1.5-.3.8-.3.2 0 .3 0 .5-.1.4-.1.7-.3 1.1-.3-.7.1-1.1.1-1.2.3.3.4.8-.1 1.2-.1.3 0 .7.3.9 0-.1-.2-.3-.3-.5-.4-.2-.1-.5-.2-.5-.4.2-.1.3.1.5.1.1 0 .3-.1.4-.1.3-.1.7-.1.9-.2.1-.1.1-.2.2-.3.1-.1.3-.1.4-.2.1-.1 0-.2.2-.3.3-.1.7 0 1 0 .2 0 .3-.1.4-.1.3 0 .4.4.6.5.1.1.4.1.4.2.1.3-.5.3-.8.4-.2.1-.2.2-.4.3-.5.2-1.4-.2-1.5.3.3.3.7 0 1 0 .2 0 .5.2.6.3.1.1.2.3.3.3.1 0 .3 0 .4.1.4.1.7.2 1.1.2.1-.2-.3-.2-.1-.4.3 0 .5.1.7.2.3-.2.5-.2.5-.4s-.4-.2-.4-.5c0-.1.1-.2.3-.2.3 0 .4.3.7.4.1 0 .6-.1.7-.2.1 0 .5-.2.5-.3 0-.1-.4-.3-.6-.4-.3-.1-.6-.1-.7-.2-.1-.1 0-.2-.1-.3 0-.1.2-.2.1-.3 0-.1-.2-.1-.4-.2-.1 0-.3-.1-.4-.2h-.4c-.5-.1-.4-.4-.7-.5-.4 0-.7-.1-1 0-.3-.1-.9 0-1.3 0-.1 0-.3-.1-.4-.1-.7 0-1.6.3-1.9.5-.1 0-.2.3-.2.4.1.2.6.1.7.2 0 .2-.4.4-.6.5-.3.1-.6.3-.8.2-.1-.2.3-.2.2-.4-.1-.1-.4 0-.5-.2-.2-.2 0-.4 0-.7.3-.4 1.4-.2 1.7-.5 0-.1-.2-.1-.3-.1-.1 0-.2-.1-.3-.1-.1 0-.3.1-.5.2s-.4.1-.5.1c-.3.1-.4.5-.7.4-.1-.2.3-.3.3-.5-.1-.1-.3-.1-.5-.1-.5 0-.8.1-1 .3-.2 0-.4-.1-.5 0 .1.1.3.4.6.4.2 0 .4-.1.5 0 0 .2-.3.2-.3.4 0 .1.2.2.2.3 0 .2-.6.4-.8.3 0-.2.3-.1.3-.3 0-.1-.2-.2-.3-.2-.2 0-.5.1-.7.2-.1.1-.1.2-.3.3-.2.1-.5.1-.8.1-.5 0-.8 0-1.2-.1-.1 0-.3-.1-.3-.2.4 0 .8.1 1.3.1.2 0 .2-.1.4-.2s.4 0 .4-.1c0-.2-.4-.2-.4-.3 0-.1.2-.3.3-.4.2-.1.4-.1.5-.3-.1-.2-.4 0-.6 0h-.4c-.3 0-.4.2-.6.3-.2 0-.2-.2-.4-.2-.2.1-.4 0-.7 0h-.4c-.2 0-.3-.2-.6-.3h-.5c-6.4 4.9-11 10.9-12.9 16.1.1.1.3.2.4.3.3.3.7.6.7 1 0 .1-.2.3-.2.4 0 .1.2.3.4.4.2.1.4.2.5.3.1 0 .3 0 .5.1s.3.2.5.3l.9.3c.3.1.7.2 1 .2.2 0 .5-.2.8-.2.6 0 .9.6 1.4.8.1 0 .3 0 .5.1.1 0 .2.1.4.1.3.1.6.1.8.1.3.1.6.6.8.7v.4c.1.1.3.1.5.2.3.1.3.4.6.5.1 0 .3 0 .4.1.3.1.5.4.7.3.2 0 .2-.2.2-.3.1-.1.3-.3.5-.3.3 0 .3.2.5.5.1.1.2.2.3.4.1.2 0 .9 0 1.1-.1.2-.4.2-.6.4-.1.1-.1.2-.2.3-.1.1-.3.1-.4.2-.1.1-.1.2-.2.3-.2.2-.4.4-.2.7.1.1.3.2.3.3 0 .2-.5.3-.5.5 0 .1.1.4.2.5 0 .1.4.2.5.3.2.1.3.4.5.5l.9 1.2.5.5c.1.1.1.2.1.3.2.3 1 .6 1.4.8.2.1.4.1.6.2.3.1.8.4 1 .6.1.2.2.5.3.8.1.3 0 .6 0 .9 0 .2.1.4.1.6 0 .1 0 .1-.1.2 0 .2.1.5.1.7 0 .1-.1.2-.1.3 0 .1.1.2.1.3v.3c0 .2.3.4.3.6.1.2.1.5.1.7 0 .1-.1.2-.1.3v.3c0 .1-.1.2-.1.4 0 .3.4.5.5.7v.3c0 .2.1.3.2.4.1.2 0 .5.3.6.3-.1-.1-.3.1-.5.4.1.3.5.4.8-.1.1-.3-.1-.4.1-.1.1.1.2.1.3 0 .1-.1.3-.1.4.1.2.5.1.5.3.1.1-.1.2-.1.4s.3.4.5.6c.1.1.3.2.3.2.1.1.1.2.2.3.1.1.3.1.4.2.2.1.5.4.7.5.1 0 .2.1.4.1.2.1.3.1.5.2.1 0 .3.1.4.1L37 73zM76.4 30.7h-.3c-.1 0-.2.1-.4.2-.1 0-.3 0-.4.1-.2.1-.3.3-.5.3-.1 0-.3 0-.4-.2 0-.1.1-.1.1-.2-.1-.1-.6-.2-.6 0-.2.1.1.2.1.4 0 0-.1 0-.1.1-.5-.1-.9.1-1.2.2 0 .1 0 .3-.2.3-.4 0-.7-.2-.9-.1 0 .2.3.1.3.3-.6.1-1.2-.3-1.2-.7.4-.1 1 .1 1.4.1.2 0 .8-.1.8-.3 0-.2-.6-.3-1-.4-.4-.1-.8-.2-1.1-.3h-.4c-.3 0-.6-.2-.8-.2h-.4c-.2-.1-.2-.2-.4-.3-.3-.1-.7 0-1.1 0-.2 0-.5-.1-.7 0-.1 0-.2.1-.3.1h-.3c-.2 0-.3.1-.5.2-.3.1-.6 0-.9.1-.3 0-.5.3-.8.3-.2 0-.5-.1-.6.1 0 .1.2.2.1.3-.2.2-.6.3-.8.5-.1.1-.1.1-.1.2-.1.1-.2.1-.3.2-.1.1-.1.2-.2.3-.2.1-.6 0-.8.1-.1 0-.2.1-.4.2-.3.1-.8.2-1 .4-.1.2.1.4.1.5v.3c.1.2.4.4.7.4.5 0 .9-.4 1.3-.4.2 0 .2.2.3.4.1.1.5.3.4.5 0 .2-.5.2-.8.2 0-.2 0-.4-.2-.5-.4.1-.7.1-.8.3-.1.3.2.5.2.8-.1.3-.8.2-1.2.2-.3 0-.4.3-.6.5-.1.1-.4.3-.6.3-.1 0-.2 0-.3.1-.1.1-.2.2-.4.3-.1.1-.6.2-.7.2-.1 0-.3-.1-.4-.1-.2 0-.1.3-.3.3-.3.1-.9-.2-1 .2.1.2.5.2.8.3.2.1.5.4.5.5 0 .1 0 .5-.1.6-.2.3-.5.2-1 .2h-.4c-.8 0-1.6-.2-2 .2 0 .3.1.5 0 .8-.1.2-.3.4-.3.6 0 .1.1.2.2.3v.3c.1.2.5 0 .7.1.2 0 .5.3.5.5 0 .1-.2.3-.3.5-.2.2-.5.3-.8.4-.3.1-.4.3-.5.5-.2.2-.3.3-.2.6-.2.3-.6.5-1.1.7-.1 0-.3.1-.5.1l-.3.3c-.2.1-.4.2-.5.3-.1.1-.1.3-.2.4-.1.2-.3.2-.5.4-.1.1-.1.2-.2.3-.2.2-.4.4-.4.6 0 .2.3.2.3.4 0 .1-.1.1-.1.2s.1.2.2.4c0 .3-.1.4-.2.6 0 .1 0 .2-.1.3-.1.1-.3.3-.3.4 0 .1.2.2.2.4 0 .1-.1.2-.1.3.1.2.6.4.8.6.3.2.7.4.8.6.1.2.1.4.3.6.1.1.4.2.6.3l.6.3c.3.2.8.5 1.3.5.3 0 .5-.2.8-.2.3 0 .7-.1 1 0 .2 0 .5.1.7.1.3 0 .6-.2.8-.2.5-.2 1.3-.4 2-.3.6.1.5.5.9.7.5 0 .8-.1 1.2-.1.3 0 .6.4.6.5 0 .2-.1.4-.2.5-.1.2-.1.5-.1.6 0 .1-.2.2-.2.3 0 .1.2.3.3.5.2.2.4.3.6.5.4.3.5.7.8 1.1.1.2.3.4.3.5 0 .1-.1.2-.1.3 0 .3.2.4.3.6.1.5-.6.7-.7 1.1v.3c0 .1-.2.2-.2.4 0 .1-.1.4-.1.5 0 .2.3.4.5.6.2.2.3.5.5.8.1.1.3.2.3.4.1.1 0 .3 0 .5 0 .1.1.3.2.4.1.3.1.7.3 1 .1.1.3.2.5.4s.2.4.4.6c.2.2.4.4.4.5 0 .1-.1.2-.1.3 0 .3.4.6.8.6.1 0 .3-.1.5-.1h.3c.2 0 .3-.1.4-.1h1c.5 0 1.1-.2 1.5-.4.4-.2.8-.5 1.1-.7.2-.2.3-.4.5-.6.2-.1.4-.2.5-.4.1-.1.2-.4.3-.5 0-.1-.1-.2-.1-.3.1-.3 1-.3 1.2-.6.2-.3.1-.7 0-1 0-.1-.2-.3-.2-.4 0-.2.4-.4.7-.5.2-.1.3-.3.5-.4l.9-.3c.2-.1.6-.4.7-.6.1-.2 0-.3 0-.5v-1.1c-.3-.2-.4-.5-.5-.7 0-.2.1-.4 0-.6 0-.1-.2-.2-.2-.3-.1-.3.2-.4.4-.7.1-.2.2-.4.3-.5.1-.1.4-.2.6-.3l.3-.3c.3-.3.7-.6 1.1-.8l.6-.3c.2-.1.3-.2.5-.4.3-.2.7-.5.9-.8.1-.1.1-.2.1-.3.2-.3.5-.5.7-.9 0-.1 0-.1.1-.2.1-.2.3-.4 0-.7-.2-.1-.5.1-.8.2-.3 0-.6 0-.9.1-.2 0-.3.1-.4.1h-.3c-.2 0-.4.1-.5.1-.3 0-.5-.3-.7-.5 0-.1.1-.2.1-.3 0-.1-.2-.1-.4-.2-.2-.2-.4-.4-.7-.5-.3-.2-.7-.3-.9-.5-.1-.2-.1-.4-.3-.6-.2-.2-.6-.3-.7-.6-.1-.2 0-.4-.1-.6-.1-.3-.6-.4-.8-.7 0-.1 0-.2-.1-.3-.1-.2-.3-.4-.5-.6-.2-.2-.3-.4-.4-.7.1-.1.3-.1.5-.1.4.2.8.6 1 .9.1.1.1.2.2.3.1.1.3.2.4.3.1.1.3.3.3.4v.3c.1.4.7.6 1 .9.1.1.1.2.2.3.2.2.4.3.5.5 0 .1-.2.1-.2.2.1.2.3.2.4.3.2.3.2.7.4 1 .4.2.8-.1 1.2-.2h.4c.2 0 .3-.1.5-.1h.3c.2 0 .3-.2.5-.3.3-.1.7-.1 1-.2.2-.1.2-.3.4-.4.3-.1.6-.1 1-.2.2 0 .3-.2.4-.3.1-.1.3-.1.4-.2.1-.1.4-.2.4-.3 0 0 0-.2.1-.2 0-.1.2-.1.3-.2.1-.1.5-.5.4-.6 0-.1-.5-.5-.6-.5-.2-.1-.4 0-.5-.1-.2-.1-.3-.2-.4-.3-.1-.1 0-.3-.3-.4-.5.3-.8.7-1.9.6-.2-.1-.1-.4-.2-.6-.1-.1-.3 0-.4 0-.2-.4-.7-.5-1-.8-.1-.1-.3-.3-.3-.4 0-.2.4-.3.6-.3.6 0 .7.6 1.1.8.2.1.4.1.6.2.3.2.7.3 1.2.2.2 0 .4-.2.6-.1.2 0 .2.3.4.4.2.1.6.2 1 .2.3 0 .6.1.8.1h2c-1.4-5.3-5.3-10.6-10.6-15.2zm-3.2 11.7c-.1.3 0 .6-.4.7-.5.1-.8-.2-1.3-.1-.3 0-.5.2-.7.2-.4 0-.9-.2-1.4-.3h-.3c-.1 0-.2-.1-.3-.2-.2-.1-.4 0-.6-.1-.3-.3-1.5-.3-1.6.1 0 .2.1.5-.3.5-.3 0-.6-.2-.9-.3h-.5c-.3-.1-.2-.3-.5-.4-.1-.1-.5-.2-.7-.2h-.4c-.2 0-.4-.1-.6-.2-.1-.1-.4-.2-.5-.2-.1-.1.3-.3.4-.4 0-.1-.2-.1-.2-.3V41c0-.1-.3-.2-.5-.2s-.4.1-.5.1c-.2 0-.6-.1-.9-.1-.2 0-.3.1-.5.1h-1.2c-.3 0-.7.1-.9.2-.1 0-.2.1-.4.2-.1 0-.2 0-.3.1-.1 0-.3.2-.4.2h-.9c-.3 0-.7 0-.7-.2 0-.3.8-.2 1.3-.3.2 0 .3-.1.5-.2.1 0 .2 0 .3-.1.2-.1.4-.3.4-.4 0-.1-.1-.2-.1-.3 0-.1.1-.2.3-.3.2-.2.5-.4.7-.5.2-.1.4-.1.5-.2v-.3c.1-.1.2-.1.3-.2.3 0 .6.1.9.1.1 0 .3-.1.4-.2.1-.1.3-.1.4-.2.1-.1.3-.2.4-.2.4 0 .6.3.7.5.2.1.6.4.8.5.1.1.3.1.5.1.3.1 1 .5 1 .7 0 .1-.2.2-.1.3.3 0 .5-.2.5-.4 0-.1-.2-.2-.1-.3.1-.2.5 0 .6-.1 0-.2-.4-.2-.7-.3-.1-.1-.2-.2-.4-.2-.2-.1-.4 0-.6-.1-.1-.1-.2-.3-.4-.4-.2-.2-.7-.2-.5-.6.1-.1.2-.2.3-.1.2 0 .2.2.3.2.1.1.2 0 .4.1.1.1.2.2.4.3.2.1.6.2.9.3.3.1.7.2.8.4v.3c0 .1.1.2.2.3.2.2.5.4.7.6 0 .3.2.5.7.5.2-.1.1-.2.2-.3.1-.1.4-.1.4-.2 0-.2-.8-.3-.7-.6 0-.1.2-.1.3-.1.2-.2.7-.4 1-.1.1.6.4 1.1.9 1.4.4-.1.6.2.9.1.2 0 .3-.2.4-.2.3 0 .5.2.8.2.5 0 .8-.4 1.3-.2 0 .3.1.4.1.6.4.8.2.9.1 1.1z"/></g><path fill="#0071A5" d="M85.4 49.2c-1.8-.1-4.5-.2-7.5-.2-.1-1.7-.4-3.2-.8-4.8-.5-1.8-1.2-3.6-2-5.3-1.6-3.4-3.6-6.6-6-9.5L67 27h-1c.9.9 1.8 1.8 2.6 2.8 2.4 2.8 4.4 6 5.9 9.3.8 1.7 1.5 3.4 2 5.2.4 1.5.7 3.1.8 4.6h-.9c-3.6-.1-7.9-.2-12.4-.2h-1.9c0-2.5-.3-5-.7-7.5-.5-2.8-1.1-5.6-1.9-8.4-.6-1.9-1.2-3.9-2-5.7h-.8c.8 1.9 1.5 3.9 2.1 5.9.8 2.7 1.4 5.5 1.9 8.3.4 2.4.7 4.9.8 7.4-3.8 0-7.8 0-11.7-.1-3.8 0-7.6 0-11.2.1.1-2.5.4-5 .8-7.4.5-2.8 1.1-5.6 1.9-8.3.6-2 1.3-4 2.1-5.9h-.8c-.8 1.9-1.4 3.8-2 5.7-.8 2.8-1.4 5.5-1.9 8.4-.2 1.4-.4 2.8-.6 4.3-.1 1.1-.1 2.2-.2 3.3h-2.4c-4.5 0-8.8.2-12.4.2h-.4c.2-3.4 1.3-6.7 2.8-9.8 1.6-3.3 3.5-6.5 5.9-9.3.8-1 1.7-1.9 2.6-2.8h-1c-.7.8-1.4 1.5-2.1 2.3-2.4 2.9-4.4 6.1-6 9.4-.8 1.7-1.5 3.4-2 5.3-.4 1.5-.7 3.2-.8 4.8-3.2.1-6 .2-7.9.3H14h8.1v.5c0 1.9.4 3.8.9 5.6.5 1.8 1.2 3.5 2 5.2 1.6 3.4 3.6 6.5 6 9.3 1 1.1 2 2.2 3 3.1h.5c-1.2-1.1-2.2-2.2-3.2-3.4-2.4-2.8-4.4-6-5.9-9.3-1.5-3.3-2.8-6.9-2.8-10.6v-.5h15.2v.5c0 2.9.4 5.7.9 8.5s1.2 5.6 2 8.3c.7 2.2 1.5 4.4 2.5 6.4h.3c-1-2.1-1.7-4.3-2.4-6.6-.8-2.7-1.4-5.5-1.9-8.3-.5-2.8-.8-5.6-.8-8.4V49h22.9v.6c0 2.8-.3 5.7-.8 8.5s-1.1 5.6-1.9 8.3c-.6 2.2-1.4 4.4-2.4 6.5h.3c1-2.1 1.8-4.2 2.4-6.4.8-2.7 1.5-5.5 2-8.3.2-1.4.5-2.8.6-4.2.2-1.4.3-2.9.3-4.3v-.6H77v.5c-.1 3.7-1.3 7.3-2.8 10.6-1.6 3.3-3.6 6.5-5.9 9.3-1 1.2-2.1 2.3-3.2 3.4h.9c1.1-1 2-2 3-3.1 2.4-2.8 4.4-6 6-9.4.8-1.7 1.5-3.4 2-5.2.5-1.8.9-3.7.9-5.6V49h7.7c-.1.2-.2.2-.2.2z"/><path opacity=".27" fill="#05367B" d="M71.6 27.1C57.3 41.3 42.3 58.5 28.1 72.9c.1 0 .1.1.2.1h43.9c9.8-6.7 16.3-16.6 16.3-22.9-.1-6.4-6.8-16.4-16.9-23z"/></g></svg>