<svg id="Layer_1" xmlns="http://www.w3.org/2000/svg" width="262.5" height="409.6" viewBox="0 0 262.5 409.6"><style>.st0{opacity:.14}.st1{fill:url(#SVGID_1_)}.st2{fill:#3adebd}.st3{stroke:#fff;stroke-width:3.5309}.st3,.st4{fill:none;stroke-miterlimit:10}.st4{stroke:#fffeab;stroke-width:2.9823}.st5,.st6{fill:#fffeab}.st6{fill-rule:evenodd;clip-rule:evenodd}.st7{fill:#e5ebe4}.st8{opacity:.1}.st9{fill:#e53935}.st10{opacity:.11}.st11{fill:#fff}.st12{fill:#666}.st13{fill:#ffda85}.st14{fill:#ffb15b}.st15{fill:#333}.st16{clip-path:url(#SVGID_3_)}.st17{fill:none;stroke:#e53935;stroke-width:26;stroke-linecap:round;stroke-miterlimit:10}.st18{stroke:#fff;stroke-width:5.2681}.st18,.st19{fill:none;stroke-miterlimit:10}.st19{stroke:#666;stroke-width:9.2179}.st20{clip-path:url(#SVGID_3_);fill:#ffda85}.st21{clip-path:url(#SVGID_5_)}.st22{fill:none;stroke:#29b6f6;stroke-width:25.4008;stroke-linecap:round;stroke-miterlimit:10}.st23{fill:#2297cc}.st24{fill:#29b6f6}.st25{fill:#764c2e}.st26{fill:#4d4d4d}.st27{fill:#ffe18c}.st28{fill:#332e2e}.st29{stroke:#fff;stroke-width:1.769;stroke-miterlimit:10}.st29,.st30{fill:none}.st31{fill:#fdd500}.st32{stroke:#2297cc;stroke-width:25.4008;stroke-linecap:round}.st32,.st33{fill:none;stroke-miterlimit:10}.st33{stroke:#332e2e;stroke-width:1.9753}.st34{fill:#fdbe0c}.st35{fill:#bdbdbd}.st36{opacity:.1;fill:#fff}.st37{stroke:#e53935;stroke-width:19.6565}.st37,.st38{fill:none;stroke-linecap:round;stroke-miterlimit:10}.st38{stroke:#ffda85;stroke-width:11}.st39{stroke:#fff;stroke-width:3.8246}.st39,.st40{fill:none;stroke-miterlimit:10}.st40{stroke:#333;stroke-width:1.719}.st41{stroke:#666;stroke-width:6.6922}.st41,.st42{fill:none;stroke-miterlimit:10}.st42{stroke:#29b6f6;stroke-width:19.6565;stroke-linecap:round}.st43{display:none;fill:#f9ce1d}.st44{display:none;fill:none;stroke:#f9ce1d;stroke-width:32;stroke-linecap:round;stroke-miterlimit:10}.st45{fill:#be3935}.st46{fill:#f9ce1d}.st47{fill:#f1f1f1}.st48{fill:#212121}.st49{fill:#ef9a9a}.st50{fill:#f7caad}.st51{opacity:.15}.st52{fill:#231f20}.st53{fill:none;stroke:#e53935;stroke-width:79.2674;stroke-linecap:round;stroke-miterlimit:10}.st54{fill:#da4637}.st55{fill:#ffdf00}.st56{fill:#914295}.st57{fill:#48b980}.st58{fill:none;stroke:#f9ce1d;stroke-width:32;stroke-linecap:round;stroke-miterlimit:10}.st59{fill:#008fa1}.st60{fill:#fb8c00}.st61{fill:#ef5350}.st62{opacity:.33;fill:#333}.st63{fill:#4caf50}.st64{fill:#00838f}.st65{fill:#00acc1}.st66{fill:#8e24aa}.st67{fill:#ffd200}.st68{opacity:.14;fill:#333}.st69{fill:#f79117}.st70{fill:#dbdbdb}.st71{display:none;opacity:.1;fill:#231f20}.st72{fill:#dc9e00}.st73{fill:#fddf00}.st74{clip-path:url(#SVGID_7_)}.st75{fill:#ff8300}.st76{fill:#00c763}.st77{fill:#fff200}.st78{fill:#e86e1c}.st79{fill:#c8541f}</style><path class="st11" d="M30.8 354.1l-3.4 8.2L12 399.6l-4.2 10H0v-55.2l4.6-11.1z"/><path class="st78" d="M113.9 232.8c-7.3 0-13.6-1.2-18.3-3.6-6.3-3.2-8.8-10.9-5.6-17.2 3.2-6.3 10.9-8.7 17.1-5.6 3.2 1.4 18.8 2.2 39-7.3 17.4-8.2 42.4-26.2 62.4-65.1 3.2-6.3 10.9-8.7 17.2-5.5 6.3 3.2 8.7 10.9 5.5 17.2-23.6 46-54.1 67.3-75.4 77.1-14.3 6.6-29.4 10-41.9 10z"/><path class="st27" d="M218.4 136.4l4 2.5c8.6 5.3 19.8 2.7 25.1-5.9l.5-.7c6-9.7 3-22.4-6.7-28.4s-21.4-1.5-27.4 8.2l-1.4-.8c-5.2 8.6-2.6 19.8 5.9 25.1z"/><path class="st27" d="M224.3 117.8c-.6 0-1.1-.1-1.7-.2-3.6-.9-5.8-4.6-4.9-8.2l7-27.2c.9-3.6 4.6-5.8 8.2-4.9 3.6.9 5.8 4.6 4.9 8.2l-7 27.2c-.7 3-3.5 5.1-6.5 5.1z"/><path class="st27" d="M230.6 120c-1.3 0-2.6-.4-3.7-1.1-3.1-2.1-4-6.3-1.9-9.4L240.5 86c2.1-3.1 6.3-4 9.4-1.9 3.1 2.1 4 6.3 1.9 9.4l-15.5 23.4c-1.3 2-3.5 3.1-5.7 3.1z"/><path class="st27" d="M227.9 131.6h-.8c-9.2-1.1-17.4-7.3-20.8-15.9-1.4-3.5.3-7.4 3.8-8.8 3.5-1.4 7.4.3 8.8 3.8 1.6 3.9 5.6 7 9.8 7.5 3.7.4 6.4 3.8 5.9 7.5-.4 3.3-3.3 5.9-6.7 5.9z"/><path class="st79" d="M44.8 190.2c-.1 1-.3 2-.6 2.9-1.4 4.4-5 7.5-9.1 8.5-2.2.5-4.6.5-6.9-.3-4.5-1.5-8.5-2.5-12.1-3.2-6.9-1.4-12.1-1.7-16-1.3v-25.6c10.3-.5 22.3 1.4 36 5.8 3.9 1.2 6.7 4.1 8 7.6.5 1.8.8 3.7.7 5.6z"/><path class="st79" d="M102.9 259.3l-19.3 46.6-9.5 23.1-.9 2.1c-8.6 18.5-26.5 30-45.8 31.3-8.1.5-16.4-.7-24.4-4-.6-.2-1.2-.5-1.8-.8-.4-.2-.9-.4-1.3-.6V223.2l2.3-5.5c3.2-7.7 7.9-14.3 13.7-19.5 7.8-7.1 17.6-11.8 28-13.4 3.9-.6 7.9-.8 11.9-.6h.6c.6 0 1.2.1 1.8.2 3.4.3 6.7 1 10 2h.1c.3.1.5.2.8.2.4.1.8.2 1.2.4.4.1.8.3 1.2.4.6.2 1.3.5 1.9.8 1.1.5 2.2.9 3.2 1.5 8.1 4 14.7 9.7 19.8 16.5 5.7 7.7 9.2 16.8 10.3 26.3 1 8.7-.1 18-3.8 26.8z"/><path class="st78" d="M102.9 259.3l-19.3 46.6-9.5 23.1-.9 2.1c-8.6 18.5-26.5 30-45.8 31.3-8.1.5-16.4-.7-24.4-4-.6-.2-1.2-.5-1.8-.8-.4-.2-.9-.4-1.3-.6v-74.6l3.9-9.5 3.1-7.5 6.6-15.9 9.6-23.2c3.8-9.2 7.6-17.8 11.9-24.7 2.9-4.7 6.1-8.6 9.7-11.4 3.5-2.8 7.5-4.6 12.1-5 3.4-.4 7.2 0 11.4 1.2h.1c.3.1.5.2.8.2.4.1.8.2 1.2.4.4.1.8.3 1.2.4.6.2 1.3.5 1.9.8 1.1.5 2.2.9 3.2 1.5 8.1 4 14.7 9.7 19.8 16.5 5.7 7.7 9.2 16.8 10.3 26.3 1 8.7-.1 18-3.8 26.8z"/><path class="st11" d="M71.06 190.6l1.664.688-55.64 134.442-1.662-.688z"/><path class="st79" d="M55.8 67.2S157 30.1 202.1 27.7c0 0-55.3 42.9-44.1 77L55.8 67.2z"/><path class="st78" d="M87.2 80.2s69.7-50.1 114.9-52.5c0 0-55.3 42.9-44.1 77L87.2 80.2z"/><path class="st15" d="M47.1 94c-.6-.4-1.2-.8-1.9-1.1-8.1-3.6-18 .9-22.1 10s-.7 19.4 7.5 23c.7.3 1.4.4 2.1.6L47.1 94z"/><path class="st12" d="M37.564 140.242l-11.162-4.925 22.93-51.967 11.162 4.925z"/><path class="st12" d="M37.293 135.413l-11.162-4.926L45.59 86.39l11.16 4.924z"/><path class="st27" d="M42.4 116.4c-11.5 27.8 1.7 59.6 29.5 71.1 27.8 11.5 59.6-1.7 71.1-29.5 11.5-27.8-1.7-59.6-29.5-71.1-27.8-11.5-59.6 1.7-71.1 29.5z"/><path class="st12" d="M58 184.8l-29.9-13.2.3-3.4c4.5-52.8 5.1-54.2 5.4-55.1l8.7 3.7c.1-.1.1-.3.2-.6-.6 2.7-3 30.5-4.6 49.5l23.7 10.5-3.8 8.6z"/><path class="st12" d="M72 191.8l-14.7-6.5c-1.7-.8-2.4-2.7-1.7-4.4l2.7-6.1c.8-1.7 2.7-2.4 4.4-1.7l14.7 6.5c1.7.8 2.4 2.7 1.7 4.4l-2.7 6.1c-.8 1.7-2.8 2.5-4.4 1.7z"/><path class="st15" d="M79.1 183.9l-.1.1c.8-1.7 0-3.6-1.7-4.4l-14.7-6.5c-1.7-.8-3.6 0-4.4 1.7l.1-.1 20.8 9.2z"/><path class="st11" d="M126.1 164.2c-11.7 14.4-31.8 20.2-49.9 12.7-18-7.5-28.3-25.8-26.3-44.2l76.2 31.5z"/><path class="st27" d="M82.6 151.1l7.4 3.1 6.1-10-10.7-4.4z"/><path class="st28" d="M85.4 125.7l-3.1-1.3c.8-2 .8-4.2 0-6.2s-2.4-3.5-4.4-4.4c-4.1-1.7-8.8.3-10.5 4.4l-3.1-1.3c2.4-5.8 9.1-8.6 14.9-6.2 2.8 1.2 5 3.4 6.2 6.2 1.1 2.9 1.1 6 0 8.8zM126.4 142.7l-3.1-1.3c1.7-4.1-.3-8.8-4.4-10.5-4.1-1.7-8.8.3-10.5 4.4l-3.1-1.3c2.4-5.8 9.1-8.6 14.9-6.2 5.9 2.4 8.6 9.1 6.2 14.9z"/><path class="st11" d="M50 77.6c-1.5 3.7.2 7.9 3.9 9.5l100 41.4c3.7 1.5 7.9-.2 9.5-3.9l5.1-12.3c1.5-3.7-.2-7.9-3.9-9.5l-100-41.4c-3.7-1.5-7.9.2-9.5 3.9L50 77.6zM224.1 27c-2.5 6-9.3 8.8-15.2 6.3-6-2.5-8.8-9.3-6.3-15.2 2.5-6 9.3-8.8 15.3-6.3 5.9 2.4 8.7 9.2 6.2 15.2z"/><path class="st78" d="M30.8 354.1l-3.4 8.2L12 399.6l-12-5v-40.2l4.6-11.1z"/><path class="st28" d="M83.7 305.8l-9.6 23.1-.8 2.1-.1-.1-37.5-15.5-12.3-5-1.6-.7-12.3-5.1-9.5-3.9v-29.5l3.9 1.6 16 6.6 12.3 5.1 1.6.7 12.3 5.1z"/><path class="st27" d="M144.5 149.9l26-15.7s-14.6 62.3-43.8 41.8l17.8-26.1z"/><path class="st30" d="M49.3 110.6L42.1 81s-33.6 54.4 1.4 60.5l5.8-30.9z"/><path class="st31" d="M35.022 317.127L8.87 306.31l11.81-28.554 26.152 10.816z"/><path class="st30" d="M0 0h262.5v409.6H0z"/><path d="M2.3 217.6c1.9-4.6 4.4-8.8 7.3-12.6C6.2 285.7 1 409.4 0 409.6V223.2l2.3-5.6zm8.6-46.1c-.3 7.6-.7 16.2-1 25.5-4-.5-7.3-.5-9.9-.3v-25.6c3.4-.1 7.1 0 10.9.4z" class="st8"/></svg>