<svg xmlns="http://www.w3.org/2000/svg" xmlns:xlink="http://www.w3.org/1999/xlink" width="100.1" height="100.1" viewBox="0 0 100.1 100.1"><symbol id="c" viewBox="-5.9 -8.5 11.9 16.9"><path fill="none" stroke="#FAC928" stroke-width="1.5" stroke-miterlimit="10" d="M0 5.1c0 1.4-1.2 2.6-2.6 2.6-1.4 0-2.6-1.2-2.6-2.6 0-.7.3-1.3.7-1.7L-2.6 1l1.9 2.4c.4.4.7 1 .7 1.7zM5.2 5.1c0 1.4-1.2 2.6-2.6 2.6C1.2 7.6 0 6.5 0 5.1c0-.7.3-1.3.7-1.7L2.6 1l1.9 2.4c.4.4.7 1 .7 1.7z"/><path fill="#DF473A" d="M5.2-.2C5.2 2.7 2.9 5 .1 5S-5.1 2.7-5.1-.2c0-1.3.5-2.5 1.3-3.4L0-8.4l3.8 4.7c.9 1 1.4 2.2 1.4 3.5z"/><path fill="#FAC928" d="M-1 4.9V-7L.1-8.5 1.2-7V4.9c-.4.1-.7.2-1.1.2-.4 0-.8-.1-1.1-.2z"/><path fill="#FFF" d="M1.9-.2c0-1-.8-1.8-1.8-1.8s-1.8.8-1.8 1.8.8 1.8 1.8 1.8S1.9.8 1.9-.2z"/></symbol><symbol id="d" viewBox="-77.5 -81.6 146.2 105.3"><path fill="#2B2B2B" d="M56.3 8.6H44.1v8.9h12.2zM-55.6 5.2h-14.3V14h14.3z"/><path fill="#2B2B2B" d="M-58.8 7.5h-8.4v8.9h8.4z"/><path fill="gray" d="M-55.6 3.7h-14.3v8.9h14.3z"/><path fill="#E0E0E0" d="M-43.1 5.2h-9.4V14h9.4z"/><path fill="#2B2B2B" d="M-43.1 3.7h-9.4v8.9h9.4z"/><path fill="#E0E0E0" d="M60.7 5.2h-21V14h21z"/><path fill="#2B2B2B" d="M60.7 3.7h-21v8.9h21z"/><path fill="gray" d="M68.7-81.6H-77.5V8.9H68.7z"/><path fill="#E0E0E0" d="M64.3-81.6H-77.5V8.9H64.3z"/><path fill="#E0E0E0" d="M64.3-81.6H-77.5V8.9H64.3z"/><path fill="#2B2B2B" d="M68.7-77.1H-77.5v73.5H68.7z"/><path fill="gray" d="M41.9-81.6h-66.5V8.9h66.5z"/><path fill="#E0E0E0" d="M28.6-81.6H-38V1.2l6.3 22.5h54l6.3-22.5z"/><path fill="#E0E0E0" d="M28.6-81.6H-38V1.2l6.3 22.5h54l6.3-22.5z"/><path fill="#2B2B2B" d="M28.6-77.1H-38V.7h66.6z"/><path fill="gray" d="M-34.3-77.1H-38V.7h3.7z"/><path fill="gray" d="M34.4-41.7c0-21.3-17.3-38.6-38.6-38.6S-42.8-63-42.8-41.7-25.5-3.1-4.2-3.1s38.6-17.3 38.6-38.6z"/><path fill="gray" d="M39.6-49.6C39.6-28.3 22.3-11 1-11s-38.6-17.3-38.6-38.6c0-13.3 6.7-25 16.9-31.9h49c6.8 7.3 11.3 18.6 11.3 31.9z"/><path fill="#2B2B2B" d="M31.1-41.7c0-19.5-15.8-35.2-35.2-35.2-19.5 0-35.2 15.8-35.2 35.2 0 19.5 15.8 35.2 35.2 35.2 19.4 0 35.2-15.7 35.2-35.2z"/><path fill="#704A93" d="M18.9-41.7C18.9-54.4 8.6-64.6-4-64.6c-12.7 0-22.9 10.3-22.9 22.9S-16.7-18.8-4-18.8c12.6 0 22.9-10.3 22.9-22.9z"/><path fill="#553D80" d="M15.3-41.6c0-10.6-8.6-19.2-19.2-19.2s-19.2 8.6-19.2 19.2 8.6 19.2 19.2 19.2S15.3-31 15.3-41.6z"/><path fill="#5F80B9" d="M14.8-42.6c0-9.9-8-17.9-17.9-17.9S-21-52.5-21-42.6c0 9.9 8 17.9 17.9 17.9s17.9-8 17.9-17.9z"/><path fill="#39527C" d="M8-42.6c0-6.1-4.9-11-11-11s-11 4.9-11 11 4.9 11 11 11 11-4.9 11-11z"/><path fill="#FFF" d="M-4.6-31.6c0-2.3-1.8-4.1-4.1-4.1s-4.1 1.8-4.1 4.1 1.8 4.1 4.1 4.1 4.1-1.8 4.1-4.1zM-12.7-38.9c0-1.1-.9-2-2-2s-2 .9-2 2 .9 2 2 2 2-.9 2-2z"/><path fill="gray" d="M60.8-20.1c0-5.1-4.1-9.2-9.2-9.2s-9.2 4.1-9.2 9.2 4.1 9.2 9.2 9.2c5.1.1 9.2-4.1 9.2-9.2z"/><path fill="#E0E0E0" d="M58.8-19.3c0-4.4-3.6-8-8-8s-8 3.6-8 8 3.6 8 8 8 8-3.5 8-8zM-53.5-47.2v-9.7c0-2.6 2.1-4.6 4.6-4.6 2.6 0 4.6 2.1 4.6 4.6 0 0-.2 2.6-2.2 5.3l-3.3 5.2c-1.4 2.5-3.7 1.9-3.7-.8z"/><path fill="gray" d="M-70.6-81.6h-6.9V8.9h6.9zM56.5-20c0-2.7-2.2-4.9-4.9-4.9s-4.9 2.2-4.9 4.9 2.2 4.9 4.9 4.9 4.9-2.2 4.9-4.9z"/><path fill="gray" d="M-72.3 2.2c0-.9-.7-1.7-1.7-1.7s-1.7.7-1.7 1.7c0 .9.7 1.7 1.7 1.7s1.7-.8 1.7-1.7z"/></symbol><g><path fill="#00BCC9" d="M50.1 0C22.4 0 0 22.4 0 50.1c0 7.7 1.7 15 4.8 21.5h90.5c3.1-6.5 4.8-13.8 4.8-21.5 0-27.7-22.4-50.1-50-50.1z"/><path d="M67.1 71.4v-1.1h-2.7c0-.4 2.9-11.5 2.9-11.5l2 6.5c0 .2 0 .3.2.3s.3-.1.3-.3c0-.3 0-.6.1-.9 0-.3 0-.6.4-.5 0 0 .1-.1.1-.2v-.5h.5v.5c.5.1.5.1.5-.5.2 0 .3 0 .5-.1l2.8-7.6 2.5 7.1h.3c.3 0 .4-.1.4-.4 0-.3.1-.5.1-.8h3.8v-2.1l4.7-3.8 4.7 3.8v12.1H67.1z" opacity=".14"/><path fill="#00A6BC" d="M34 71.5v-.8h2.1c0-.3-2.2-8.9-2.2-8.9l-1.6 5c0 .1 0 .2-.2.2s-.2-.1-.2-.2c0-.2 0-.5-.1-.7 0-.2 0-.4-.3-.4 0 0-.1-.1-.1-.2v-.3H31v.4c-.3.1-.3.1-.4-.4h-.4l-2.1-5.9-1.9 5.5h-.3c-.2 0-.3 0-.3-.3 0-.2 0-.4-.1-.6h-2.9v-1.6l-3.7-2.9-3.7 2.9v9.3H34z"/><path fill="#D84637" d="M29.5 29.9H38v8.5h-8.5z"/><path fill="#00A9E9" d="M34.3 33.7v-3.8h-1.2v3.8h-3.6v1.1h3.6v3.6h1.2v-3.6H38v-1.1z"/><path fill="#FFDE00" d="M31.4 24.1h5.7v5.7h-5.7z"/><path fill="#48B780" d="M34.5 26.6v-2.5h-.7v2.5h-2.4v.7h2.4v2.4h.7v-2.4H37v-.7z"/><path fill="#D3AE6E" d="M25.4 54.1h49.3v18H25.4z"/><path fill="#FD0" d="M25.4 54.1h49.3v18H25.4z"/><path fill="#F27B20" d="M27.2 54.1H73v18H27.2z"/><path opacity=".1" d="M32 61.5h36.1V64H32z"/><path fill="#EE3837" d="M32 58.9h36.1v2.7H32z"/><path fill="#FFF" d="M39.3 61.6h-2.6l1.9-2.7h2.6zM44.9 61.6h-2.6l1.9-2.7h2.6zM50.4 61.6h-2.6l1.9-2.7h2.6zM56 61.6h-2.6l1.9-2.7h2.6zM61.5 61.6H59l1.8-2.7h2.6z"/><g fill="#FFF"><path d="M33.1 58.9L32 60.5v1.1h1.8l1.8-2.7zM68.1 58.9h-1.7l-1.9 2.7h2.6l1-1.4z"/></g><path fill="#7C6959" d="M25.7 41.4h48.8v12.7H25.7z"/><g fill="#FFF"><path d="M29.4 41.4c0 1.1-.9 2-2 2s-2-.9-2-2h4z"/><path d="M27.5 43.6c-1.2 0-2.2-1-2.2-2.2 0-.1.1-.2.2-.2h4c.1 0 .2.1.2.2-.1 1.2-1 2.2-2.2 2.2zm-1.8-2c.1.9.9 1.6 1.8 1.6s1.7-.7 1.8-1.6h-3.6z"/><path d="M33.4 41.4c0 1.1-.9 2-2 2s-2-.9-2-2h4z"/><path d="M31.4 43.6c-1.2 0-2.2-1-2.2-2.2 0-.1.1-.2.2-.2h4c.1 0 .2.1.2.2 0 1.2-1 2.2-2.2 2.2zm-1.8-2c.1.9.9 1.6 1.8 1.6s1.7-.7 1.8-1.6h-3.6z"/><path d="M37.3 41.4c0 1.1-.9 2-2 2s-2-.9-2-2h4z"/><path d="M35.4 43.6c-1.2 0-2.2-1-2.2-2.2 0-.1.1-.2.2-.2h4c.1 0 .2.1.2.2-.1 1.2-1 2.2-2.2 2.2zm-1.8-2c.1.9.9 1.6 1.8 1.6s1.7-.7 1.8-1.6h-3.6z"/><g><path d="M66.8 41.4c0 1.1-.9 2-2 2s-2-.9-2-2h4z"/><path d="M64.8 43.6c-1.2 0-2.2-1-2.2-2.2 0-.1.1-.2.2-.2h4c.1 0 .2.1.2.2 0 1.2-1 2.2-2.2 2.2zm-1.8-2c.1.9.9 1.6 1.8 1.6s1.7-.7 1.8-1.6H63z"/></g><g><path d="M70.7 41.4c0 1.1-.9 2-2 2s-2-.9-2-2h4z"/><path d="M68.7 43.6c-1.2 0-2.2-1-2.2-2.2 0-.1.1-.2.2-.2h4c.1 0 .2.1.2.2 0 1.2-1 2.2-2.2 2.2zm-1.7-2c.1.9.9 1.6 1.8 1.6s1.7-.7 1.8-1.6H67z"/></g><g><path d="M74.7 41.4c0 1.1-.9 2-2 2s-2-.9-2-2h4z"/><path d="M72.7 43.6c-1.2 0-2.2-1-2.2-2.2 0-.1.1-.2.2-.2h4c.1 0 .2.1.2.2 0 1.2-1 2.2-2.2 2.2zm-1.8-2c.1.9.9 1.6 1.8 1.6s1.7-.7 1.8-1.6h-3.6z"/></g></g><path fill="#7C6959" d="M33 71h15.5v1.1H33z"/><path fill="#7C6959" d="M34.5 70h12.3v1.1H34.5z"/><path opacity=".1" d="M40.8 62.5h3.6v7.4h-3.6zM37 62.5h3.6v7.4H37z"/><path fill="#7C6959" d="M51.3 71h15.5v1.1H51.3z"/><path fill="#7C6959" d="M52.8 70h12.3v1.1H52.8z"/><path opacity=".1" d="M59.1 62.5h3.6v7.4h-3.6zM55.3 62.5h3.6v7.4h-3.6zM25.4 55.3l49.3 1.2v-2.4H25.4z"/><path fill="#4C8BFB" d="M24.8 54.1l25.3-25.3 25.3 25.3z"/><path fill="#B757C5" d="M31.9 54.1L50.1 36l18.1 18.1z"/><path opacity=".1" d="M68.2 54.1L50.1 36l-2.3 2.3 6.3 5.9 10.7 9.9z"/><path fill="#FFDE00" d="M43.7 51.6v-.4c0-3.4 2.7-6.1 6.1-6.1 3.4 0 6.1 2.7 6.1 6.1v.4H43.7z"/><g fill="#B757C5"><path d="M49.4 43.7h.9v7.9h-.9z"/><path d="M42.9 51.2h6.9v.9h-6.9zM49.9 51.2h7.9v.9h-7.9z"/><path d="M45.336 46.413l4.88 4.88-.637.636-4.88-4.88z"/><path d="M54.398 46.374l.637.636-4.878 4.88-.637-.637z"/></g><path fill="#736357" d="M30.8 38.3h.9v2.9h-.9zM35.4 38.3h.9v2.9h-.9zM63.7 37.2h.9v4h-.9zM68.3 37.1h.9v4.1h-.9z"/><path fill="#F27B20" d="M62.9 30.8s3.4-7.2 6.6-8.7c0 0-1.6 6.7.1 8.8l-6.7-.1z"/><path fill="#FFDF8A" d="M70.6 34.7c0 2.3-1.9 4.2-4.2 4.2-2.3 0-4.2-1.9-4.2-4.2 0-2.3 1.9-4.2 4.2-4.2 2.3 0 4.2 1.8 4.2 4.2z"/><path fill="#FFF" d="M71.2 31.7c0 .3-.2.6-.6.6h-8.3c-.3 0-.6-.2-.6-.6v-1c0-.3.2-.6.6-.6h8.3c.3 0 .6.2.6.6v1z"/><circle fill="#333" cx="64.6" cy="34.1" r=".7"/><circle fill="#333" cx="68" cy="34.1" r=".7"/><circle fill="#FFF" cx="70.2" cy="21.4" r=".9"/><path fill="#FFDF8A" d="M62.2 33.8l-1.4-1.9s-.8 4.9 1.9 4.3l-.5-2.4zM70.2 33.8l1.4-1.9s.8 4.9-1.9 4.3l.5-2.4z"/><g><defs><circle id="e" cx="50.1" cy="50.1" r="50.1"/></defs><clipPath id="f"><use xlink:href="#e" overflow="visible"/></clipPath><g clip-path="url(#f)"><path fill="#B07644" d="M83.5 54.2l-.2-3.9 5.3-.3z"/><path fill="#B07644" d="M87.5 52.4l-.3-3.9 5.4-.3z"/><path fill="#B07644" d="M91.4 50.6l-.3-3.9 5.4-.2z"/><path fill="#B07644" d="M95.3 48.9l-.2-4 5.3-.2z"/><path fill="#B07644" d="M100.4 41.6c-.7 2.2-2.7 2.4-2.7 2.4l.2 2.4h5l.2-2.4s-2-.2-2.7-2.4z"/><path fill="#B07644" d="M115.8 71.7H84.7V52.6l15.5-7 15.6 7z"/><path opacity=".1" d="M115.8 64l-31.1-.3v-.8h31.1z"/><path fill="#EFDBC1" d="M115.8 54.3H84.7v-1.7l15.5-7 15.6 7z"/><path opacity=".1" d="M115.8 54.4l-15.6-7.1-9.4 4.2 25 3.9z"/><path fill="#845930" d="M118.1 55.4l-17.9-8.1-17.8 8.1-1.8-2.2 19.6-8.9 19.7 8.9z"/><path fill="#845930" d="M94.3 51.7c-.4-.4-.9-.6-1.4-.5-.1.5.1 1 .5 1.4.4.4.9.6 1.4.5 0-.5-.1-1-.5-1.4zM91.8 52.1c-.5-.2-1.1-.1-1.5.2.2.5.6.9 1.1 1.1.5.2 1.1.1 1.5-.2-.2-.5-.6-.9-1.1-1.1z"/><path fill="#FFC805" d="M100.2 48.7c-1 0-1.7.8-1.7 1.7v2.8h3.5v-2.8c-.1-.9-.9-1.7-1.8-1.7z"/><path fill="#231F20" d="M100.2 48.7c-1 0-1.7.8-1.7 1.7v.7c0-1 .8-1.7 1.7-1.7 1 0 1.7.8 1.7 1.7v-.7c0-.9-.8-1.7-1.7-1.7z" opacity=".2"/><path fill="#845930" d="M102.2 53.5h-4v-3c0-1.1.9-2 2-2s2 .9 2 2v3zm-3.5-.6h2.9v-2.5c0-.8-.7-1.5-1.5-1.5s-1.5.7-1.5 1.5v2.5z"/><path fill="#B07644" d="M98.1 52.9h4.2v.7h-4.2z"/><path fill="#845930" d="M100.1 51.5h.2v1.4h-.2z"/><circle fill="#EB9B95" cx="99.6" cy="50.8" r=".2"/><ellipse fill="#F7CE97" cx="100.3" cy="50.9" rx=".7" ry=".7"/><path fill="#EE3837" d="M101 50.5c-.1-.2-.2-.3-.3-.4-.2-.2-.7-.4-1.1-.4v.8h1.4z"/><ellipse fill="#FFF" cx="99.4" cy="49.7" rx=".2" ry=".2"/><path fill="#FFF" d="M101.1 50.5c0 .1 0 .1-.1.1h-1.4c-.1 0-.1 0-.1-.1v-.3c0-.1 0-.1.1-.1h1.4c.1 0 .1 0 .1.1v.3z"/><path fill="#F7CE97" d="M99.6 50.9h1.4v.4h-1.4z"/><path fill="#FFF" d="M101.2 51.5c0 .4-.3.7-.7.7-.9 0-1.3-1-1.3-1.3h1.3c.4-.1.7.2.7.6z"/><ellipse fill="#EB9B95" cx="100.3" cy="50.8" rx=".2" ry=".2"/><circle fill="#4D4D4D" cx="100.3" cy="51.2" r=".1"/><path fill="#EFDBC1" d="M89.8 55.4c-1.1 0-1.9.9-1.9 1.9v4.3h3.9v-4.3c-.1-1-1-1.9-2-1.9z"/><path fill="#00A351" d="M88.2 57.4v3.8h1.5v-5.4c-.9 0-1.5.7-1.5 1.6z"/><path fill="#084" d="M88.3 60.5h1.4v.1h-1.4zM88.3 60.2h1.4v.1h-1.4zM88.3 59.9h1.4v.1h-1.4zM88.3 59.6h1.4v.1h-1.4zM88.3 59.3h1.4v.1h-1.4zM88.3 59h1.4v.1h-1.4zM88.3 58.7h1.4v.1h-1.4zM88.3 58.5h1.4v.1h-1.4zM88.3 58.2h1.4v.1h-1.4zM88.3 57.9h1.4v.1h-1.4zM88.3 57.6h1.4v.1h-1.4zM88.3 57.3h1.4v.1h-1.4zM88.3 57h1.4v.1h-1.4zM88.3 56.7h1.4v.1h-1.4zM88.5 56.4h1.1v.1h-1.1zM88.7 56.1h1v.1h-1z"/><path fill="#084" d="M89.8 61.3H88v-4c0-.9.7-1.7 1.6-1.7h.1v5.7zm-1.5-.2h1.2v-5.2c-.7.1-1.2.7-1.2 1.4v3.8z"/><path fill="#00A351" d="M91.3 57.4v3.8h-1.5v-5.4c.9 0 1.5.7 1.5 1.6z"/><path fill="#084" d="M89.9 60.5h1.4v.1h-1.4zM88.3 60.8h1.4v.1h-1.4zM89.9 60.8h1.4v.1h-1.4zM89.9 60.2h1.4v.1h-1.4zM89.9 59.9h1.4v.1h-1.4zM89.9 59.6h1.4v.1h-1.4zM89.9 59.3h1.4v.1h-1.4zM89.9 59h1.4v.1h-1.4zM89.9 58.7h1.4v.1h-1.4zM89.9 58.5h1.4v.1h-1.4zM89.9 58.2h1.4v.1h-1.4zM89.9 57.9h1.4v.1h-1.4zM89.9 57.6h1.4v.1h-1.4zM89.9 57.3h1.4v.1h-1.4zM89.9 57h1.4v.1h-1.4zM89.9 56.7h1.4v.1h-1.4zM89.9 56.4H91v.1h-1.1zM89.9 56.1h1v.1h-1z"/><path fill="#084" d="M91.5 61.3h-1.7v-5.7h.1c.9.1 1.6.8 1.6 1.7v4zm-1.5-.2h1.2v-3.7c0-.7-.5-1.3-1.2-1.4v5.1z"/><path fill="#845930" d="M92 61.9h-4.4v-4.5c0-1.2 1-2.2 2.2-2.2s2.2 1 2.2 2.2v4.5zm-3.9-.5h3.4v-4c0-.9-.8-1.7-1.7-1.7-.9 0-1.7.8-1.7 1.7v4z"/><path fill="#EFDBC1" d="M87.4 61.3h4.7v.6h-4.7zM96.5 55.4c-1.1 0-1.9.9-1.9 1.9v4.3h3.9v-4.3c-.1-1-.9-1.9-2-1.9z"/><path fill="#00A351" d="M94.9 57.4v3.8h1.5v-5.4c-.8 0-1.5.7-1.5 1.6z"/><path fill="#084" d="M95 60.5h1.4v.1H95zM95 60.2h1.4v.1H95zM95 59.9h1.4v.1H95zM95 59.6h1.4v.1H95zM95 59.3h1.4v.1H95zM95 59h1.4v.1H95zM95 58.7h1.4v.1H95zM95 58.5h1.4v.1H95zM95 58.2h1.4v.1H95zM95 57.9h1.4v.1H95zM95 57.6h1.4v.1H95zM95 57.3h1.4v.1H95zM95 57h1.4v.1H95zM95 56.7h1.4v.1H95zM95.3 56.4h1.1v.1h-1.1zM95.4 56.1h1v.1h-1z"/><path fill="#084" d="M96.5 61.3h-1.7v-4c0-.9.7-1.7 1.6-1.7h.1v5.7zm-1.5-.2h1.2v-5.2c-.7.1-1.2.7-1.2 1.4v3.8z"/><path fill="#00A351" d="M98.1 57.4v3.8h-1.5v-5.4c.8 0 1.5.7 1.5 1.6z"/><path fill="#084" d="M96.6 60.5H98v.1h-1.4zM95 60.8h1.4v.1H95zM96.6 60.8H98v.1h-1.4zM96.6 60.2H98v.1h-1.4zM96.6 59.9H98v.1h-1.4zM96.6 59.6H98v.1h-1.4zM96.6 59.3H98v.1h-1.4zM96.6 59H98v.1h-1.4zM96.6 58.7H98v.1h-1.4zM96.6 58.5H98v.1h-1.4zM96.6 58.2H98v.1h-1.4zM96.6 57.9H98v.1h-1.4zM96.6 57.6H98v.1h-1.4zM96.6 57.3H98v.1h-1.4zM96.6 57H98v.1h-1.4zM96.6 56.7H98v.1h-1.4zM96.6 56.4h1.1v.1h-1.1zM96.6 56.1h1v.1h-1z"/><path fill="#084" d="M98.2 61.3h-1.7v-5.7h.1c.9.1 1.6.8 1.6 1.7v4zm-1.5-.2h1.2v-3.7c0-.7-.5-1.3-1.2-1.4v5.1z"/><path fill="#845930" d="M98.7 61.9h-4.4v-4.5c0-1.2 1-2.2 2.2-2.2s2.2 1 2.2 2.2v4.5zm-3.9-.5h3.4v-4c0-.9-.8-1.7-1.7-1.7s-1.7.8-1.7 1.7v4z"/><path fill="#EFDBC1" d="M94.2 61.3h4.7v.6h-4.7z"/><path fill="#EF6522" d="M89.8 63.8c-1.1 0-1.9.9-1.9 1.9V70h3.9v-4.3c-.1-1-1-1.9-2-1.9z"/><path fill="#845930" d="M92 70.3h-4.4v-4.5c0-1.2 1-2.2 2.2-2.2s2.2 1 2.2 2.2v4.5zm-3.9-.5h3.4v-4c0-.9-.8-1.7-1.7-1.7-.9 0-1.7.8-1.7 1.7v4z"/><path fill="#EFDBC1" d="M87.4 69.8h4.7v.6h-4.7z"/><path fill="#845930" d="M84.7 54h31.7v.5H84.7zM84.7 62.6h31.2v.5H84.7z"/><path fill="#845930" d="M95.6 48.7h.5v5.4h-.5z"/><g><path fill="#845930" d="M97.8 65.9h2.2v4.4h-2.2z"/><path fill="#85837D" d="M99.5 67.7h.3v.8h-.3z"/></g><path fill="#EFDBC1" d="M97.3 70.3h5.7v.6h-5.7zM96.4 71h7.4v.6h-7.4z"/><path fill="#845930" d="M85.4 54.3h.5v17.3h-.5zM94.4 62.9h.5v8.7h-.5z"/><path fill="#EFDBC1" d="M95.6 64.5h9.3v1.1h-9.3z"/><path opacity=".1" d="M95.6 65.4h9.3v1.1h-9.3z"/><path opacity=".1" d="M95.6 64.5h9.3v1.1h-9.3z"/><path fill="#EFDBC1" d="M95.6 64.1h9.3v1.1h-9.3z"/><g><path fill="none" d="M89 66h-.3c0 .2.1.4.3.4V66zM90.5 66v.5-.1c.1 0 .3-.2.3-.4h-.3z"/><path fill="#FFC805" d="M90.3 65.8v.2h-1.2v-.2h-.6v.1c0 .4.2.7.4.7.1.4.3.7.6.7v.6c-.1 0-.1.1-.2.2h.7c0-.1-.1-.2-.2-.2v-.6c.3-.1.5-.4.6-.7h.1c.2 0 .4-.3.4-.7v-.1h-.6zm-1.3.6c-.1 0-.3-.2-.3-.4h.3v.4zm1.5 0V66h.3c0 .2-.2.4-.3.4z"/></g><circle fill="#FFC805" cx="90.1" cy="64.7" r=".1"/><path fill="#FFC805" d="M89.3 65.7s.4-.8.7-1c0 0-.2.7 0 1h-.7z"/><path fill="#FFC805" d="M90.2 65.8c0 .1 0 .1 0 0l-1 .1s-.1 0-.1-.1v-.1s0-.1.1-.1h.9s.1 0 .1.1v.1z"/><path fill="#333" d="M90.3 69v-.6c0-.1 0-.1-.1-.2V68h-1v.2c-.1.1-.1.1-.1.2v.6H89v.2h1.4V69h-.1z"/><g opacity=".1"><path d="M89.9 67.9v-.6c.3-.1.5-.4.6-.7h.1c.2 0 .4-.3.4-.7v-.1h-.6v.2h-.2c0 .2 0 .9-.4 1.3l.1.6c-.1 0 0 .1 0 .2h.1c0-.1-.1-.2-.1-.2zm.6-1.9h.3c0 .2-.1.4-.3.4v.1-.1-.4z"/><path d="M90.4 69h-.1v-.6c0-.1 0-.1-.1-.2V68h-.4v1.1h.6V69z"/></g></g><g clip-path="url(#f)"><path fill="#D7C17D" d="M-15.8 54.5H17v17.2h-32.8z"/><path fill="#7C6959" d="M17 46.6h-32.8l-1.3 7.2h35.4z"/><path fill="#615246" d="M-7.6 53.2l8.2-7.5 8.2 7.5"/><path fill="#D7C17D" d="M7.9 53.8L.6 47.1l-7.3 6.7h-1.5l8.8-8.1 8.8 8.1z"/><path opacity=".1" d="M-.2 66.4H2v4.4H-.2z"/><path fill="#FFDE00" d="M-1.3 55.3h3.7v4.5h-3.7z"/><path fill="#D7C17D" d="M.5 55.3h.3v4.5H.5z"/><path fill="#7C6959" d="M2.5 55.3H4v4.5H2.5z"/><path opacity=".1" d="M-1.6 59.8h4.4v.7h-4.4zM-1.6 51.9h4.4v.7h-4.4z"/><path fill="#FFDE00" d="M8.4 64.3H11v4.6H8.4zM4.6 64.3h2.6v4.6H4.6z"/><path fill="#D7C17D" d="M8.4 66.2H11v.3H8.4zM4.6 66.2h2.6v.3H4.6z"/><path fill="#FFDE00" d="M8 55.3h3.7v4.5H8z"/><path fill="#D7C17D" d="M9.7 55.3h.3v4.5h-.3z"/><path fill="#7C6959" d="M11.7 55.3h1.5v4.5h-1.5zM6.5 55.3H8v4.5H6.5z"/><path opacity=".1" d="M7.7 59.8h4.4v.7H7.7z"/><path fill="#615246" d="M-16.7 53.8h34.6v.7h-34.6z"/><path fill="#FFDE00" d="M-.2 48.8h1.5v3.1H-.2z"/><path fill="#7C6959" d="M-2 70.8h6v.9h-6z"/><path opacity=".2" d="M-15.8 54.5v1.1L17 58v-3.5M-14 63.9v.7l29.4 1.7v-2.4"/><g fill="#7C6959"><path d="M15.2 63.9h.3v7.7h-.3z"/><path d="M15.7 71.7h-.5v-7.9h.5v7.9zm-.4-.2h.1V64h-.1v7.5zM5.2 63.9h.3v7.7h-.3z"/><path d="M5.6 71.7h-.5v-7.9h.5v7.9zm-.3-.2h.1V64h-.1v7.5z"/><g><path d="M5.5 68.3h9.9v.2H5.5z"/><path d="M15.5 68.7H5.4v-.4h10.1v.4zm-9.9-.2h9.7-9.7z"/></g><g><path d="M14.7 68.5h.2v3.1h-.2z"/><path d="M14.6 68.4h.3v3.3h-.3zM14.1 68.5h.2v3.1h-.2z"/><path d="M14 68.4h.3v3.3H14zM13.6 68.5h.2v3.1h-.2z"/><path d="M13.5 68.4h.3v3.3h-.3zM13 68.5h.2v3.1H13z"/><path d="M12.9 68.4h.3v3.3h-.3zM12.5 68.5h.2v3.1h-.2z"/><path d="M12.4 68.4h.3v3.3h-.3zM11.9 68.5h.2v3.1h-.2z"/><path d="M11.9 68.4h.3v3.3h-.3zM11.4 68.5h.2v3.1h-.2z"/><path d="M11.3 68.4h.3v3.3h-.3zM10.9 68.5h.2v3.1h-.2z"/><path d="M10.8 68.4h.3v3.3h-.3zM10.3 68.5h.2v3.1h-.2z"/><path d="M10.2 68.4h.3v3.3h-.3z"/><g><path d="M9.8 68.5h.2v3.1h-.2z"/><path d="M9.7 68.4h.3v3.3h-.3z"/></g><g><path d="M9.2 68.5h.2v3.1h-.2z"/><path d="M9.1 68.4h.3v3.3h-.3z"/></g><g><path d="M8.7 68.5h.2v3.1h-.2z"/><path d="M8.6 68.4h.3v3.3h-.3z"/></g><g><path d="M8.1 68.5h.2v3.1h-.2z"/><path d="M8 68.4h.3v3.3H8z"/></g><g><path d="M7.6 68.5h.2v3.1h-.2z"/><path d="M7.5 68.4h.3v3.3h-.3z"/></g><g><path d="M7 68.5h.2v3.1H7z"/><path d="M6.9 68.4h.3v3.3h-.3z"/></g><g><path d="M6.5 68.5h.2v3.1h-.2z"/><path d="M6.4 68.4h.3v3.3h-.3z"/></g><g><path d="M5.9 68.5h.2v3.1h-.2z"/><path d="M5.8 68.4h.3v3.3h-.3z"/></g></g></g><g fill="#7C6959"><path d="M.6 63h-15v.9h30V63z"/><path d="M15.6 64h-30.1v-1.1h30.1V64zm-29.9-.2h29.7v-.7h-29.7v.7z"/></g><path fill="#615246" d="M7.4 60.8H-6.2l-10 1.8v.4h33.6v-.4z"/></g></g><circle fill="none" cx="50.1" cy="50.1" r="50.1"/><path fill="#26C6DA" d="M4.8 71.6c8 16.9 25.3 28.6 45.2 28.6s37.2-11.7 45.2-28.6H4.8z"/></g></svg>