<svg id="Layer_1" xmlns="http://www.w3.org/2000/svg" width="210.8" height="156.8" viewBox="0 0 210.8 156.8"><style>.st0{opacity:.14}.st1{fill:url(#SVGID_1_)}.st2{fill:#3adebd}.st3{stroke:#fff;stroke-width:3.5309}.st3,.st4{fill:none;stroke-miterlimit:10}.st4{stroke:#fffeab;stroke-width:2.9823}.st5,.st6{fill:#fffeab}.st6{fill-rule:evenodd;clip-rule:evenodd}.st7{fill:#e5ebe4}.st8{opacity:.1}.st9{fill:#e53935}.st10{opacity:.11}.st11{fill:#fff}.st12{fill:#666}.st13{fill:#ffda85}.st14{fill:#ffb15b}.st15{fill:#333}.st16{clip-path:url(#SVGID_3_)}.st17{fill:none;stroke:#e53935;stroke-width:26;stroke-linecap:round;stroke-miterlimit:10}.st18{stroke:#fff;stroke-width:5.2681}.st18,.st19{fill:none;stroke-miterlimit:10}.st19{stroke:#666;stroke-width:9.2179}.st20{clip-path:url(#SVGID_3_);fill:#ffda85}.st21{clip-path:url(#SVGID_5_)}.st22{fill:none;stroke:#29b6f6;stroke-width:25.4008;stroke-linecap:round;stroke-miterlimit:10}.st23{fill:#2297cc}.st24{fill:#29b6f6}.st25{fill:#764c2e}.st26{fill:#4d4d4d}.st27{fill:#ffe18c}.st28{fill:#332e2e}.st29{stroke:#fff;stroke-width:1.769;stroke-miterlimit:10}.st29,.st30{fill:none}.st31{fill:#fdd500}.st32{stroke:#2297cc;stroke-width:25.4008;stroke-linecap:round}.st32,.st33{fill:none;stroke-miterlimit:10}.st33{stroke:#332e2e;stroke-width:1.9753}.st34{fill:#fdbe0c}.st35{fill:#bdbdbd}.st36{opacity:.1;fill:#fff}.st37{stroke:#e53935;stroke-width:19.6565}.st37,.st38{fill:none;stroke-linecap:round;stroke-miterlimit:10}.st38{stroke:#ffda85;stroke-width:11}.st39{stroke:#fff;stroke-width:3.8246}.st39,.st40{fill:none;stroke-miterlimit:10}.st40{stroke:#333;stroke-width:1.719}.st41{stroke:#666;stroke-width:6.6922}.st41,.st42{fill:none;stroke-miterlimit:10}.st42{stroke:#29b6f6;stroke-width:19.6565;stroke-linecap:round}.st43{display:none;fill:#f9ce1d}.st44{display:none;fill:none;stroke:#f9ce1d;stroke-width:32;stroke-linecap:round;stroke-miterlimit:10}.st45{fill:#be3935}.st46{fill:#f9ce1d}.st47{fill:#f1f1f1}.st48{fill:#212121}.st49{fill:#ef9a9a}.st50{fill:#f7caad}.st51{opacity:.15}.st52{fill:#231f20}.st53{fill:none;stroke:#e53935;stroke-width:79.2674;stroke-linecap:round;stroke-miterlimit:10}.st54{fill:#da4637}.st55{fill:#ffdf00}.st56{fill:#914295}.st57{fill:#48b980}.st58{fill:none;stroke:#f9ce1d;stroke-width:32;stroke-linecap:round;stroke-miterlimit:10}.st59{fill:#008fa1}.st60{fill:#fb8c00}.st61{fill:#ef5350}.st62{opacity:.33;fill:#333}.st63{fill:#4caf50}.st64{fill:#00838f}.st65{fill:#00acc1}.st66{fill:#8e24aa}.st67{fill:#ffd200}.st68{opacity:.14;fill:#333}.st69{fill:#f79117}.st70{fill:#dbdbdb}.st71{display:none;opacity:.1;fill:#231f20}.st72{fill:#dc9e00}.st73{fill:#fddf00}.st74{clip-path:url(#SVGID_7_)}.st75{fill:#ff8300}.st76{fill:#00c763}.st77{fill:#fff200}.st78{fill:#e86e1c}.st79{fill:#c8541f}</style><path class="st42" d="M117.3 115.6C81.8 156 49.9 118.1 37.6 98"/><path class="st13" d="M36.5 86l-.4-.3c-6.1-3.9-14.2-2-18 4.1l-.3.4c-3.9 6.1-2 14.2 4.1 18l.4.3c6.1 3.9 14.2 2 18-4.1l.3-.4c3.8-6 2-14.1-4.1-18z"/><path class="st38" d="M25.9 89.5c-6 3.8-13.5 6.6-20.4 6.7"/><path class="st13" d="M40.7 94c-2.2-1.3-4.3 2.5-5.6 4.7l-3.1 5.4c-1.3 2.2-.5 5.1 1.7 6.3 2.2 1.3 5.1.5 6.3-1.7l3.1-5.4c1.4-2.2-.1-8-2.4-9.3z"/><path class="st24" d="M176.8 147.1c0 .7-.1 1.4-.2 2.2-.1 1-.2 2.1-.4 3.1l-.2 1.4c-2.8 2.4-6.6 3.5-10.5 2.9l-.5-.1c-4.4-.7-7.9-3.6-9.7-7.3H97l1.9-10.6c.6-3.6 1.8-7 3.3-10.2 6.3-13.1 19.4-21.7 34-22.2 1.2 0 2.5 0 3.7.1 1.1 0 2.1.2 3.2.3.5.1.9.1 1.4.2.8.1 1.6.3 2.4.5.5.1 1.1.2 1.6.4 2.3.6 4.5 1.5 6.6 2.5 6.9 3.4 12.5 8.7 16.3 15.1.2.4.5.9.7 1.3.5.9.9 1.8 1.3 2.7.2.3.3.6.4.9.1.2.1.3.2.5.2.5.4 1 .6 1.4.2.5.3.9.4 1.4.2.5.3 1 .4 1.5.1.3.1.5.2.8.1.3.1.5.2.8.1.2.1.5.2.8.1.3.1.5.2.8.1.3.1.6.2.9 0 .2.1.5.1.8 0 .2.1.4.1.6 0 .3.1.6.1.9 0 .3.1.6.1 1 0 1.4.1 3 0 4.6z"/><path class="st11" d="M146.8 107.2v.1l-.1.4-.4 2.6-6 33.9-.9 5h-3.9l.8-4.4 6.2-34.8.4-2.5.2-.9v-.1l1.3.3z"/><path class="st10" d="M176.8 147.1c0 .7-.1 1.4-.2 2.2-.1 1-.2 2.1-.4 3.1l-.2 1.4c-2.8 2.4-6.6 3.5-10.5 2.9l-.5-.1c-4.4-.7-7.9-3.6-9.7-7.3h-58c2.6-.3 22.1-2.2 39-4.5 1.3-.2 2.7-.4 4-.5 5.3-.7 10.1-1.5 13.8-2.2 4.4-.8 7.2-1.6 7.2-2.3.4-3 .7-5.9.8-8.7.5-9-.9-16.3-7.5-20.6-1.1-.7-2.4-1.4-3.8-2 1.4.5 2.8 1.1 4.1 1.8 6.9 3.4 12.5 8.7 16.3 15.1.2.4.5.9.7 1.3.5.9.9 1.8 1.3 2.7.1.3.3.6.4.9.1.1.1.3.2.5.2.5.4.9.6 1.4.2.4.3.9.5 1.4.2.5.3 1 .4 1.5.1.3.1.5.2.8.1.3.1.5.2.8.1.2.1.5.2.8.1.3.1.5.2.8.1.3.1.6.2.9 0 .2.1.5.1.8 0 .2.1.4.1.6 0 .3.1.6.1.9 0 .3.1.6.1 1 .1 1.4.2 3 .1 4.6z"/><path class="st24" d="M198.8 149.2h-19.4c-.4 1-1 1.9-1.7 2.7-.2-.9-.3-1.8-.5-2.7-.1-.8-.3-1.5-.4-2.2-1.6-8.2-2.8-13-2.8-13.2-.2-.8-.3-1.5-.3-2.2 0-.5 0-1 .1-1.4.5-3.7 3.2-7 7.1-7.9 5.1-1.3 10.3 1.8 11.6 6.9.3 1 3.5 5.9 6.3 20z"/><path class="st10" d="M198.8 149.2h-19.4c-.4 1-1 1.9-1.7 2.7-.2-.9-.3-1.8-.5-2.7-.1-.8-.3-1.5-.4-2.2-1.6-8.2-2.8-13-2.8-13.2-.2-.8-.3-1.5-.3-2.2 0-.5 0-1 .1-1.4.5-3.7 3.2-7 7.1-7.9 5.1-1.3 10.3 1.8 11.6 6.9.3 1 3.5 5.9 6.3 20z"/><path class="st15" d="M190.5 57.3c.5 0 1-.1 1.6 0 6.3.5 10.9 6.6 10.4 13.7s-6.1 12.3-12.5 11.8c-.5 0-1-.2-1.5-.3l2-25.2z"/><path class="st25" d="M170.8 104.7c-.6-1-1.3-2-2.1-2.9-7.5-7.9-17.7-15.1-29.1-15.3-9.7-.1-18.5 1.8-26.4 6.8-5.2-7.8-7.8-17.4-6.7-27.5 2.5-22.7 22.9-39.1 45.6-36.6 22.7 2.5 39.1 22.9 36.6 45.6-1.4 12.7-8.2 23.3-17.9 29.9z"/><path class="st12" d="M189.504 90.136l-8.672-.707 3.274-40.17 8.67.708z"/><path class="st12" d="M191.295 87.2l-8.672-.707 2.778-34.087 8.674.707z"/><path class="st25" d="M171.5 114.3c-5.5-6.8-6.9-15.5-4.7-23.4 8.1-.4 16.3 2.9 21.8 9.7 5.5 6.8 6.9 15.5 4.7 23.4-8.1.5-16.3-2.8-21.8-9.7zM109.4 104c6.8-5.5 10.1-13.7 9.7-21.8-7.8-2.2-16.5-.7-23.4 4.7-6.8 5.5-10.1 13.7-9.7 21.8 7.9 2.2 16.6.8 23.4-4.7z"/><path class="st13" d="M108.3 65.6c-1.8 21.4 14 40.2 35.3 42 21.4 1.8 40.2-14 42-35.4 1.8-21.4-14-40.2-35.4-42-21.3-1.8-40.1 14-41.9 35.4z"/><path class="st11" d="M173.7 79.2c-2.9 10.8-12.5 19-24.3 19.7-11.7.7-22-6.3-26.2-16.5l50.5-3.2z"/><path class="st40" d="M186.2 76.8c-.1 1.3-2.6 12.8-2.6 12.8"/><path class="st41" d="M189 73.4c-.1 1.3-14.9 35.1-14.9 35.1l-20.7-1.7"/><path class="st12" d="M141.9 109.9l11.3.9c1.3.1 2.4-.9 2.5-2.1l.4-4.7c.1-1.3-.9-2.4-2.1-2.5l-11.3-.9c-1.3-.1-2.4.9-2.5 2.1l-.4 4.7c-.1 1.3.8 2.4 2.1 2.5z"/><path class="st15" d="M140.2 102.6v.1c.1-1.3 1.2-2.3 2.5-2.1l11.3.9c1.3.1 2.3 1.2 2.1 2.5v-.1l-15.9-1.3zm9.7-40.3c-.3 4 2.6 7.5 6.6 7.9 4 .3 7.5-2.6 7.9-6.6.3-4-2.6-7.5-6.6-7.9-4-.3-7.5 2.6-7.9 6.6zm-31.8-2.7c-.3 4 2.6 7.5 6.6 7.9 4 .3 7.5-2.6 7.9-6.6.3-4-2.6-7.5-6.6-7.9-4-.4-7.5 2.6-7.9 6.6z"/><path class="st13" d="M112.7 56.8l-11.4-18.6S90 82.7 115.4 79.3l-2.7-22.5z"/><path class="st25" d="M116.8 34.7c-12.6 4-15 13.9-8.4 16.7 3.7 4.7 14.5 15.5 69.7-1.5 0 0-17.6-10.1-24.2-12.9l-37.1-2.3z"/><path class="st11" d="M210.4 15.7c-1.3 4.4-6 6.9-10.4 5.5-4.4-1.4-6.9-6-5.5-10.4 1.4-4.4 6-6.9 10.4-5.5 4.4 1.4 6.9 6 5.5 10.4z"/><path class="st24" d="M112.4 31.3s36-55.8 87.1-18.5c0 0-24.2 5.4-9.7 26.5l-77.4-8z"/><path class="st10" d="M163.6 37.1s15.7-35.5 35.9-24.3c0 0-24.2 5.4-9.7 26.5l-26.2-2.2z"/><path class="st11" d="M188.8 51.4l-77-8.7c-2.8-.3-4.8-2.8-4.5-5.6l1.1-9.9c.3-2.8 2.8-4.8 5.6-4.5l77 8.7c2.8.3 4.8 2.8 4.5 5.6l-1.1 9.9c-.3 2.8-2.8 4.8-5.6 4.5z"/><path class="st13" d="M180.5 145.4l-.1.5c-.2 1.2-.6 2.3-1 3.4-.4 1-1 1.9-1.7 2.7-.5.7-1.1 1.2-1.7 1.8-2.8 2.4-6.6 3.5-10.5 2.9l-.5-.1c-4.4-.7-7.9-3.6-9.7-7.3-1-2.2-1.5-4.7-1.1-7.2 0-.2 0-.3.1-.5l.1-.5c.8-4.6 3.9-8.3 7.9-10 2.2-.9 4.6-1.2 7.1-.8l.5.1c1.4.2 2.7.7 3.9 1.3.3.2.6.3.8.5 4.3 2.7 6.8 7.8 5.9 13.2z"/></svg>