<svg xmlns="http://www.w3.org/2000/svg" width="8.9" height="11.6" viewBox="0 0 8.9 11.6"><symbol id="c" viewBox="-5.9 -8.5 11.9 16.9"><path fill="none" stroke="#FAC928" stroke-width="1.5" stroke-miterlimit="10" d="M0 5.1c0 1.4-1.2 2.6-2.6 2.6-1.4 0-2.6-1.2-2.6-2.6 0-.7.3-1.3.7-1.7L-2.6 1l1.9 2.4c.4.4.7 1 .7 1.7zM5.2 5.1c0 1.4-1.2 2.6-2.6 2.6C1.2 7.6 0 6.5 0 5.1c0-.7.3-1.3.7-1.7L2.6 1l1.9 2.4c.4.4.7 1 .7 1.7z"/><path fill="#DF473A" d="M5.2-.2C5.2 2.7 2.9 5 .1 5S-5.1 2.7-5.1-.2c0-1.3.5-2.5 1.3-3.4L0-8.4l3.8 4.7c.9 1 1.4 2.2 1.4 3.5z"/><path fill="#FAC928" d="M-1 4.9V-7L.1-8.5 1.2-7V4.9c-.4.1-.7.2-1.1.2-.4 0-.8-.1-1.1-.2z"/><path fill="#FFF" d="M1.9-.2c0-1-.8-1.8-1.8-1.8s-1.8.8-1.8 1.8.8 1.8 1.8 1.8S1.9.8 1.9-.2z"/></symbol><symbol id="d" viewBox="-77.5 -81.6 146.2 105.3"><path fill="#2B2B2B" d="M56.3 8.6H44.1v8.9h12.2zM-55.6 5.2h-14.3V14h14.3z"/><path fill="#2B2B2B" d="M-58.8 7.5h-8.4v8.9h8.4z"/><path fill="gray" d="M-55.6 3.7h-14.3v8.9h14.3z"/><path fill="#E0E0E0" d="M-43.1 5.2h-9.4V14h9.4z"/><path fill="#2B2B2B" d="M-43.1 3.7h-9.4v8.9h9.4z"/><path fill="#E0E0E0" d="M60.7 5.2h-21V14h21z"/><path fill="#2B2B2B" d="M60.7 3.7h-21v8.9h21z"/><path fill="gray" d="M68.7-81.6H-77.5V8.9H68.7z"/><path fill="#E0E0E0" d="M64.3-81.6H-77.5V8.9H64.3z"/><path fill="#E0E0E0" d="M64.3-81.6H-77.5V8.9H64.3z"/><path fill="#2B2B2B" d="M68.7-77.1H-77.5v73.5H68.7z"/><path fill="gray" d="M41.9-81.6h-66.5V8.9h66.5z"/><path fill="#E0E0E0" d="M28.6-81.6H-38V1.2l6.3 22.5h54l6.3-22.5z"/><path fill="#E0E0E0" d="M28.6-81.6H-38V1.2l6.3 22.5h54l6.3-22.5z"/><path fill="#2B2B2B" d="M28.6-77.1H-38V.7h66.6z"/><path fill="gray" d="M-34.3-77.1H-38V.7h3.7z"/><path fill="gray" d="M34.4-41.7c0-21.3-17.3-38.6-38.6-38.6S-42.8-63-42.8-41.7-25.5-3.1-4.2-3.1s38.6-17.3 38.6-38.6z"/><path fill="gray" d="M39.6-49.6C39.6-28.3 22.3-11 1-11s-38.6-17.3-38.6-38.6c0-13.3 6.7-25 16.9-31.9h49c6.8 7.3 11.3 18.6 11.3 31.9z"/><path fill="#2B2B2B" d="M31.1-41.7c0-19.5-15.8-35.2-35.2-35.2-19.5 0-35.2 15.8-35.2 35.2 0 19.5 15.8 35.2 35.2 35.2 19.4 0 35.2-15.7 35.2-35.2z"/><path fill="#704A93" d="M18.9-41.7C18.9-54.4 8.6-64.6-4-64.6c-12.7 0-22.9 10.3-22.9 22.9S-16.7-18.8-4-18.8c12.6 0 22.9-10.3 22.9-22.9z"/><path fill="#553D80" d="M15.3-41.6c0-10.6-8.6-19.2-19.2-19.2s-19.2 8.6-19.2 19.2 8.6 19.2 19.2 19.2S15.3-31 15.3-41.6z"/><path fill="#5F80B9" d="M14.8-42.6c0-9.9-8-17.9-17.9-17.9S-21-52.5-21-42.6c0 9.9 8 17.9 17.9 17.9s17.9-8 17.9-17.9z"/><path fill="#39527C" d="M8-42.6c0-6.1-4.9-11-11-11s-11 4.9-11 11 4.9 11 11 11 11-4.9 11-11z"/><path fill="#FFF" d="M-4.6-31.6c0-2.3-1.8-4.1-4.1-4.1s-4.1 1.8-4.1 4.1 1.8 4.1 4.1 4.1 4.1-1.8 4.1-4.1zM-12.7-38.9c0-1.1-.9-2-2-2s-2 .9-2 2 .9 2 2 2 2-.9 2-2z"/><path fill="gray" d="M60.8-20.1c0-5.1-4.1-9.2-9.2-9.2s-9.2 4.1-9.2 9.2 4.1 9.2 9.2 9.2c5.1.1 9.2-4.1 9.2-9.2z"/><path fill="#E0E0E0" d="M58.8-19.3c0-4.4-3.6-8-8-8s-8 3.6-8 8 3.6 8 8 8 8-3.5 8-8zM-53.5-47.2v-9.7c0-2.6 2.1-4.6 4.6-4.6 2.6 0 4.6 2.1 4.6 4.6 0 0-.2 2.6-2.2 5.3l-3.3 5.2c-1.4 2.5-3.7 1.9-3.7-.8z"/><path fill="gray" d="M-70.6-81.6h-6.9V8.9h6.9zM56.5-20c0-2.7-2.2-4.9-4.9-4.9s-4.9 2.2-4.9 4.9 2.2 4.9 4.9 4.9 4.9-2.2 4.9-4.9z"/><path fill="gray" d="M-72.3 2.2c0-.9-.7-1.7-1.7-1.7s-1.7.7-1.7 1.7c0 .9.7 1.7 1.7 1.7s1.7-.8 1.7-1.7z"/></symbol><path fill="#F2D9A2" d="M8.9 4.5C8.9 2 6.9 0 4.5 0 2 0 0 2 0 4.5c0 1.1.4 2.2 1.1 3l3.3 4.2 3.3-4.1c.8-.9 1.2-2 1.2-3.1zM4.5 6c-.9 0-1.6-.7-1.6-1.5 0-.9.7-1.5 1.5-1.5.9-.1 1.6.6 1.6 1.5C6 5.3 5.3 6 4.5 6z"/></svg>