<svg xmlns="http://www.w3.org/2000/svg" xmlns:xlink="http://www.w3.org/1999/xlink" width="100.1" height="100.1" viewBox="0 0 100.1 100.1"><symbol id="a" viewBox="-5.9 -8.5 11.9 16.9"><path fill="none" stroke="#FAC928" stroke-width="1.5" stroke-miterlimit="10" d="M0 5.1c0 1.4-1.2 2.6-2.6 2.6-1.4 0-2.6-1.2-2.6-2.6 0-.7.3-1.3.7-1.7L-2.6 1l1.9 2.4c.4.4.7 1 .7 1.7zm5.2 0c0 1.4-1.2 2.6-2.6 2.6C1.2 7.6 0 6.5 0 5.1c0-.7.3-1.3.7-1.7L2.6 1l1.9 2.4c.4.4.7 1 .7 1.7z"/><path fill="#DF473A" d="M5.2-.2C5.2 2.7 2.9 5 .1 5S-5.1 2.7-5.1-.2c0-1.3.5-2.5 1.3-3.4L0-8.4l3.8 4.7c.9 1 1.4 2.2 1.4 3.5z"/><path fill="#FAC928" d="M-1 4.9V-7L.1-8.5 1.2-7V4.9c-.4.1-.7.2-1.1.2-.4 0-.8-.1-1.1-.2z"/><path fill="#FFF" d="M1.9-.2c0-1-.8-1.8-1.8-1.8s-1.8.8-1.8 1.8.8 1.8 1.8 1.8S1.9.8 1.9-.2z"/></symbol><circle fill="#26C6DA" cx="50.1" cy="50.1" r="50.1"/><path fill="#D4392C" d="M56.6 59.3h7.5v20h-7.5z"/><path fill="#404040" d="M64.1 77.1v-5.4h-7.5V82h12.3c0-2.3-2.4-5-5-5"/><path fill="#E0E0E0" d="M56.6 68.1h7.5v3.7h-7.5z"/><path fill="#D4392C" d="M45.8 59.3h7.5v20h-7.5z"/><path fill="#404040" d="M45.8 77.1v-5.4h7.5V82H41c0-2.3 2.4-5 5-5"/><path fill="#E0E0E0" d="M45.8 68.1h7.5v3.7h-7.5z"/><path fill="#D4392C" d="M42.9 55.3c2.7 6.7 10.2 10 16.9 7.4 6.7-2.6 9.9-10.2 7.3-16.9-2.7-6.7-10.2-10-16.9-7.4-6.7 2.7-9.9 10.2-7.3 16.9z"/><ellipse transform="rotate(15.72 53.63 29.372)" fill="#ED9D97" cx="53.6" cy="29.4" rx="2.2" ry="2.1"/><ellipse transform="rotate(15.72 67.604 33.305)" fill="#ED9D97" cx="67.6" cy="33.3" rx="2.2" ry="2.1"/><ellipse transform="rotate(15.72 60.304 32.45)" fill="#F9D099" cx="60.3" cy="32.4" rx="8" ry="7.8"/><path fill="#E91C24" d="M69.1 30.6c-.2-2-.8-3.8-1.8-5.5C65.5 22 60.8 19 57 18l-2.4 8.6 14.5 4z"/><ellipse transform="rotate(15.72 53.696 17.346)" fill="#E0E0E0" cx="53.7" cy="17.3" rx="2.4" ry="2.4"/><path fill="#E0E0E0" d="M70.1 30.7c-.2.6-.8.9-1.4.8l-15.1-4.2c-.6-.2-1-.8-.8-1.4l.8-3c.2-.6.8-.9 1.4-.8l15.1 4.2c.6.2 1 .8.8 1.4l-.8 3z"/><path fill="#F9D099" d="M52.63 30.315l15.4 4.334-1.083 3.85-15.402-4.337z"/><path fill="#4D4D4D" d="M57.6 29.6c-.1.3-.4.4-.6.3-.3-.1-.4-.4-.4-.6.1-.3.4-.4.6-.3.4 0 .5.3.4.6zm6.5 1.8c-.1.3.1.5.4.6.3.1.5-.1.6-.3.1-.3-.1-.5-.4-.6-.3-.2-.6 0-.6.3z"/><path fill="#E0E0E0" d="M67.8 41.6c-1.1 3.9-5.2 6.2-9.2 5-9.8-2.8-10.7-14-9.6-17.9 1.8.5 9.6 2.7 13.6 3.8 3.9 1.1 6.3 5.2 5.2 9.1z"/><ellipse transform="rotate(15.72 60.458 31.9)" fill="#ED9D97" cx="60.4" cy="31.9" rx="2.2" ry="1.7"/><path fill="#4D4D4D" d="M61.3 34.8c-.2.9-1.1 1.4-2 1.1-.9-.2-1.4-1.1-1.1-2"/><path fill="#F1B31C" d="M52 48.4h6.1v3.9H52z"/><path fill="#E53935" d="M55.9 59.3h7.5v20h-7.5z"/><path opacity=".11" d="M55.9 59.3h7.5v20h-7.5z"/><path fill="#404040" d="M63.4 77.1v-5.4h-7.5V82h12.3c0-2.3-2.4-5-5-5"/><path fill="#FFF" d="M55.9 68.1h7.5v3.7h-7.5z"/><path fill="#E53935" d="M46.9 59.3h7.5v20h-7.5z"/><path fill="#404040" d="M46.9 77.1v-5.4h7.5V82H42.1c0-2.3 2.4-5 5-5"/><path fill="#FFF" d="M47.5 68.1h6.9v3.7h-6.9z"/><path fill="#E53935" d="M42.9 55.3c2.7 6.7 10.2 10 16.9 7.4 6.7-2.6 9.9-10.2 7.3-16.9-2.7-6.7-10.2-10-16.9-7.4-6.7 2.7-9.9 10.2-7.3 16.9z"/><path d="M67.1 45.8c-.5-1.2-1.1-2.4-1.9-3.3.2 1.1.4 2.2.4 3.4 0 8.6-7.2 15.9-15.9 15.9-.5 0-.9 0-1.4-.1 3.4 2.1 7.6 2.6 11.6 1 6.6-2.6 9.9-10.2 7.2-16.9z" opacity=".11"/><path fill="#212121" d="M41.9 49.8H68v3.6H41.9z"/><path fill="#F1B31C" d="M52 49.4h6.1v4.8H52z"/><path fill="#BF0000" d="M66.6 56c-3.7 0-7.7-1.9-8.8-2.4l2-4c2.9 1.5 7.6 2.7 8.6 1.4 1.1-1.4-1.9-4.4-3.2-5.3l2.7-3.6c3 2.2 7.3 7.2 4.1 11.5-1.3 1.8-3.3 2.4-5.4 2.4z"/><path fill="#E53935" d="M66.1 54.8c-3.7 0-7.7-1.9-8.8-2.4l2-4c2.9 1.5 7.6 2.7 8.6 1.4 1.1-1.4-1.9-4.4-3.2-5.3l2.7-3.6c3 2.2 7.3 7.2 4.1 11.5-1.2 1.8-3.2 2.4-5.4 2.4z"/><ellipse transform="rotate(15.72 53.63 29.372)" fill="#ED9D97" cx="53.6" cy="29.4" rx="2.2" ry="2.1"/><ellipse transform="rotate(15.72 67.604 33.305)" fill="#EF9A9A" cx="67.6" cy="33.3" rx="2.2" ry="2.1"/><ellipse transform="rotate(15.72 60.304 32.45)" fill="#F7CAAD" cx="60.3" cy="32.4" rx="8" ry="7.8"/><path fill="#E53935" d="M69.1 30.6c-.2-2-.8-3.8-1.8-5.5C65.5 22 60.8 19 57 18l-2.4 8.6 14.5 4z"/><ellipse transform="rotate(15.72 53.696 17.346)" fill="#FFF" cx="53.7" cy="17.3" rx="2.4" ry="2.4"/><path fill="#FFF" d="M70.1 30.7c-.2.6-.8.9-1.4.8l-15.1-4.2c-.6-.2-1-.8-.8-1.4l.8-3c.2-.6.8-.9 1.4-.8l15.1 4.2c.6.2 1 .8.8 1.4l-.8 3z"/><path fill="#F9D099" d="M52.63 30.315l15.4 4.334-1.083 3.85-15.402-4.337z"/><path fill="#212121" d="M56.9 29.9c-.1.3-.4.4-.6.3-.3-.1-.4-.4-.4-.6.1-.3.4-.4.6-.3.3.1.4.4.4.6zm6.4 1.9c-.1.3.1.5.4.6.3.1.5-.1.6-.3.1-.3-.1-.5-.4-.6-.3-.2-.6 0-.6.3z"/><path fill="#FFF" d="M61.7 50.1c.4 2.3-1.5 4.3-3.8 3.8-1.3-.2-2.3-1.3-2.6-2.6-.4-2.3 1.5-4.3 3.8-3.8 1.4.3 2.4 1.4 2.6 2.6zm6.1-8.5c-1.1 3.9-5.2 6.2-9.2 5-9.8-2.8-10.7-14-9.6-17.9 1.8.5 9.6 2.7 13.6 3.8 3.9 1.1 6.3 5.2 5.2 9.1z"/><ellipse transform="rotate(15.72 60.458 31.9)" fill="#EF9A9A" cx="60.4" cy="31.9" rx="2.2" ry="1.7"/><path fill="#212121" d="M61.3 34.8c-.2.9-1.1 1.4-2 1.1-.9-.2-1.4-1.1-1.1-2"/><circle fill="#FFF" cx="27.3" cy="38.4" r="2.9"/><use xlink:href="#a" width="11.9" height="16.9" x="-5.9" y="-8.5" transform="matrix(3.222 -.9825 -.9825 -3.222 40.67 47.862)" overflow="visible"/><circle fill="#F9CE1D" cx="28.1" cy="37.5" r="2.9"/><path fill="#F9CE1D" d="M61.2 49c.4 2.3-1.5 4.3-3.8 3.8-1.3-.2-2.3-1.3-2.6-2.6-.4-2.3 1.5-4.3 3.8-3.8 1.3.3 2.3 1.3 2.6 2.6z"/></svg>