<svg id="Layer_1" xmlns="http://www.w3.org/2000/svg" width="191.2" height="712.6" viewBox="0 0 191.2 712.6"><style>.st0{fill:#e53935}.st1{fill:#be3935}.st2{fill:#f9ce1d}.st3{opacity:.1}.st4{fill:#f1f1f1}.st5{fill:#212121}.st6{fill:#ef9a9a}.st7{fill:#FFF}.st8{fill:#f7caad}.st9{opacity:.15}.st10{fill:#231f20}.st11{fill:none;stroke:#e53935;stroke-width:79.2674;stroke-linecap:round;stroke-miterlimit:10}.st12{fill:#da4637}.st13{fill:#ffdf00}.st14{fill:#914295}.st15{fill:#48b980}.st16{opacity:.11}.st17{fill:#666}.st18{fill:#ffda85}.st19{fill:#ffb15b}.st20{fill:#333}.st21{fill:none;stroke:#29b6f6;stroke-width:25.4008;stroke-linecap:round;stroke-miterlimit:10}.st22{fill:#2297cc}.st23{fill:#29b6f6}.st24{fill:#764c2e}.st25{fill:#4d4d4d}.st26{fill:none;stroke:#666;stroke-width:9.2179;stroke-miterlimit:10}.st27{fill:#ffe18c}.st28{fill:#332e2e}.st29{stroke:#FFF;stroke-width:1.769;stroke-miterlimit:10}.st29,.st30{fill:none}.st31{fill:#fdd500}.st32{fill:none;stroke:#332e2e;stroke-width:1.9753;stroke-miterlimit:10}.st33{fill:#fdbe0c}.st34{fill:#bdbdbd}.st35{opacity:.1;fill:#FFF}.st36{fill:#008fa1}.st37{fill:#fb8c00}.st38{fill:#ef5350}.st39{opacity:.33;fill:#333}.st40{fill:#4caf50}.st41{fill:#00838f}.st42{fill:#00acc1}.st43{fill:#8e24aa}.st44{fill:#ffd200}.st45{opacity:.14;fill:#333}.st46{fill:#f79117}.st47{fill:#dbdbdb}.st48{fill:#dc9e00}.st49{fill:#fddf00}.st50{clip-path:url(#SVGID_2_)}.st51{fill:#ff8300}.st52{fill:#00c763}.st53{fill:#fff200}.st54{fill:#e86e1c}.st55{fill:#c8541f}.st56{fill:#009047}.st57{fill:#00a551}.st58{fill:#dec461}.st59{fill:#444}.st60{opacity:.2;enable-background:new}.st61{fill:#2b2b2b}.st62{opacity:.12;enable-background:new}.st63{fill:#848484}.st64{opacity:.21;enable-background:new}.st65{opacity:.21;fill:#5f81c0}.st65,.st66,.st67{enable-background:new}.st66,.st67{opacity:.66;stroke:#1f1f1f;stroke-width:2.1157;stroke-miterlimit:10}.st67{fill:#5f81c0}.st68{fill:#3a3a3a}.st69{stroke:#393939}.st69,.st70{fill:none;stroke-width:.6212;stroke-miterlimit:10;stroke-dasharray:1.81,.6033}.st70{stroke:#444}.st71{fill:#00ad00}.st72{fill:#e91100}.st73{fill:#39527c}.st74{opacity:.15;fill:#FFF}.st75{fill:#262626}.st76{opacity:.6;fill:url(#SVGID_3_)}.st77{fill:#0096a3}.st78{fill:#00b2c2}.st79{fill:#d97823}.st80{fill:#d13d7f}.st81{fill:#b81463}.st82{fill:#7b7878}.st83{fill:#929292}.st84{fill:#2f2f2f}.st85{fill:#616161}.st86{fill:#8d8d8d}.st87{fill:#575757}.st88{fill:#828282}.st89{opacity:.43}.st90{fill:#b3b3b3}.st91{fill:#7f7f7f}.st92{fill:none;stroke:#a5a3a3;stroke-width:3;stroke-linecap:round;stroke-miterlimit:10}.st93{fill:#6a6a6a}.st94{stroke:#7f7f7f;stroke-width:7}.st94,.st95{fill:none;stroke-linecap:round;stroke-miterlimit:10}.st95{stroke:#929292;stroke-width:5}.st96{clip-path:url(#SVGID_5_);fill:url(#SVGID_6_)}.st97{fill:#f78011}.st98{fill:#db6300}.st99{fill:#f0a42c}.st100{fill:#de7221}.st101{fill:#ff8787}.st102{clip-path:url(#SVGID_8_)}.st103{fill:#ffa1e4}.st104{fill:#1da802}.st105{fill:#fcbe2d}.st106{fill:#fcd03f}.st107{fill:#f6b12d}.st108{fill:#de4a3f}.st109{fill:#000002}.st110{fill:#ffdf82}.st111{fill:#764299}.st112{fill:#68378c}.st113{fill:#fd930c}.st114{fill:#287a5e}.st115{fill:#1aa17d}.st116{fill:#764d2f}.st117{fill:#ededed}.st118{fill:#c92828}.st119{fill:#ffd500}.st120{fill:#ec407a}.st121{fill:#1565c0}.st122{fill:#c165c7}.st123{fill:#ff931e}.st124{fill:#fdce48}.st125{fill:#2aaf4b}.st126{fill:#b99960}.st127{fill:#a17b54}.st128{fill:#d4af6e}.st129{opacity:.12}.st130{fill:#f0b21c}.st131{fill:#b0b0b0}.st132{fill:#b46d3d}.st133{opacity:.7;fill:url(#SVGID_9_)}.st134{fill:#29b65e}.st135{fill:none;stroke:#f0b21c;stroke-width:14.7487;stroke-linecap:round;stroke-linejoin:round;stroke-miterlimit:10}.st136{fill:#ffe51c}.st137{fill:#c70fd1}.st138{fill:#b9b9b9}.st139{fill:#4830a6}.st140{fill:#6e40ed}.st141{fill:#a2a5a3}.st142{fill:#b6e5cd}.st143{fill:#e9d386}.st144{fill:#413d3d}.st145{fill:#666262}.st146{fill:#85d4ac}.st147{fill:none;stroke:#6e40ed;stroke-width:18.7963;stroke-linecap:round;stroke-miterlimit:10}.st148{stroke-dasharray:29.0489,256.3136}.st148,.st149{fill:none;stroke:#f7fffa;stroke-width:19.2235;stroke-miterlimit:10}.st149{stroke-linecap:round;stroke-dasharray:8.5438,256.3136}.st150{fill:#211c1c}.st151{opacity:.2}.st152{fill:#f5951f}.st153{fill:#f7fffa}.st154{fill:#ff8b17}.st155{fill:none;stroke:#f0b21c;stroke-width:17.108;stroke-linecap:round;stroke-linejoin:round;stroke-miterlimit:10}.st156{fill:#d6aa1a}.st157{fill:none;stroke:#d6aa1a;stroke-width:25.8006;stroke-linecap:round;stroke-miterlimit:10}.st158{fill:#f5c60c}.st159{fill:#231f20;stroke:#b6e5cd;stroke-width:1.2082;stroke-miterlimit:10}.st160{fill:#ab5844}.st161{fill:#249d43}.st162{fill:#fde08b}.st163{fill:#c5161d}.st164{fill:#d89614}.st165{fill:#faac18}.st166{fill:none;stroke:#faac18;stroke-width:24.2;stroke-linecap:round;stroke-linejoin:round;stroke-miterlimit:10}.st167{fill:#e91c24}.st168{fill:#eceff1}.st169{stroke:#5f14a6;stroke-width:28.0254;stroke-linecap:round}.st169,.st170{fill:none;stroke-miterlimit:10}.st170{stroke-dasharray:43.312,382.1646}.st170,.st171{stroke:#a2a5a3;stroke-width:28.6623}.st171{stroke-dasharray:12.7388,382.1646}.st171,.st172{fill:none;stroke-linecap:round;stroke-miterlimit:10}.st172{stroke:#5f14a6;stroke-width:28.3806}.st173{fill:#8c28de}.st174{fill:#5f14a6}.st175{stroke:#8c28de;stroke-width:31.6424;stroke-linecap:round}.st175,.st176{fill:none;stroke-miterlimit:10}.st176{stroke-dasharray:48.9019,431.4876}.st176,.st177{stroke:#e6e6e6;stroke-width:32.3616}.st177{stroke-dasharray:14.3829,431.4876}.st177,.st178{fill:none;stroke-linecap:round;stroke-miterlimit:10}.st178{stroke:#8c28de;stroke-width:28.3806}.st179{fill:#fafafa}.st180{fill:#ffa000}.st181{fill:#ffb300}.st182{fill:#C93}.st183{fill:#5d4037}.st184{fill:#ff9800}.st185{fill:#cfd8dc}.st186{fill:#f57c00}.st187{stroke:#f57c00;stroke-width:23.7843;stroke-linecap:round}.st187,.st188{fill:none;stroke-miterlimit:10}.st188{opacity:.5;stroke:#cfd8dc;stroke-width:3.63}.st189{fill:#f06292}.st190{fill:none;stroke:#ff9800;stroke-width:23.7843;stroke-linecap:round;stroke-miterlimit:10}.st191{fill:#9b51a0}.st192{fill:#7b1fa2}.st193{fill:none;stroke:#8e24aa;stroke-width:23.7843;stroke-linecap:round;stroke-miterlimit:10}.st194{fill:#ffc107}.st195{fill:#26c6da}.st196{fill:#039be5}.st197{fill:none;stroke:#039be5;stroke-width:23.7843;stroke-linecap:round;stroke-miterlimit:10}.st198{stroke:#cfd8dc;stroke-width:3.63}.st198,.st199{fill:none;stroke-miterlimit:10}.st199{stroke:#29b6f6;stroke-width:23.7843;stroke-linecap:round}.st200{fill:#9575cd}.st201{fill:none;stroke:#9b51a0;stroke-width:23.7843;stroke-linecap:round;stroke-miterlimit:10}.st202{opacity:.6}</style><path class="st161" d="M167.5 712.6v-25.2c0-26.3-21.3-47.6-47.6-47.6s-47.6 21.3-47.6 47.6v25.2h95.2z"/><path class="st125" d="M94.2 712.6h73.2v-25.2c0-26.3-21.3-47.6-47.6-47.6s-25.6 21.3-25.6 47.6v25.2z"/><path class="st162" d="M87.6 305.1c0 10-8.1 18.1-18.1 18.1-10 0-18.1-8.1-18.1-18.1 0-10 8.1-18.1 18.1-18.1 10 .1 18.1 8.2 18.1 18.1z"/><path class="st163" d="M80.7 319.2v111.2c0 7.4-6 13.3-13.3 13.3s-13.3-6-13.3-13.3V319.9l26.6-.7z"/><path class="st164" d="M40.9 298.1c6.5 25.5 32.5 40.8 57.9 34.3s40.8-32.5 34.3-57.9l-16.3-63.6c-6.5-25.5-32.5-40.8-57.9-34.3-25.5 6.5-40.9 32.4-34.4 57.9l16.4 63.6z"/><path class="st165" d="M62.1 292.6c6.5 25.5 11.2 46.2 36.7 39.7 25.4-6.5 40.8-32.5 34.3-57.9l-16.3-63.6c-6.5-25.5-32.5-40.8-57.9-34.3-25.5 6.5-19.5 27-13 52.5l16.2 63.6z"/><path class="st7" d="M54.59 177.602l8.33-2.136 25.86 100.83-8.33 2.137z"/><path class="st166" d="M110.1 205.9s68.9 62.7 62.9-34.7"/><path class="st7" d="M37.3 85.2s62.8-65.1 102-70c0 0-41.8 66.7-30 95.7l-72-25.7z"/><path class="st164" d="M37.3 85.2s62.8-65.1 102-70c0 0-41.8 66.7-30 95.7l-72-25.7z"/><path class="st165" d="M37.3 85.2s62.8-65.1 102-70c0 0-63.2 59.6-51.3 88.6L37.3 85.2z"/><path class="st27" d="M105.6 154.4c-8.3 24.9-35.2 38.4-60.1 30.2-24.9-8.3-38.4-35.2-30.2-60.2C23.6 99.5 50.5 86 75.4 94.2c25 8.3 38.5 35.3 30.2 60.2z"/><path class="st7" d="M33.7 143.7c-3.3 10.1 4.3 21.7 17 25.9 12.8 4.2 25.8-.5 29.2-10.6l-46.2-15.3zM122.7 124.4c-1.1 3.3-4.7 5.1-8 4L24.9 98.7c-3.3-1.1-5.1-4.7-4-8l3.7-11c1.1-3.3 4.7-5.1 8-4l89.7 29.8c3.3 1.1 5.1 4.7 4 8l-3.6 10.9z"/><path class="st20" d="M51.3 129.2c-1.5 4.4-6.3 6.9-10.7 5.4-4.5-1.5-6.9-6.3-5.4-10.7 1.5-4.4 6.3-6.9 10.7-5.4 4.5 1.4 6.9 6.3 5.4 10.7zM88.4 141.5c-1.5 4.4-6.3 6.9-10.7 5.4-4.5-1.5-6.9-6.3-5.4-10.7 1.5-4.4 6.3-6.9 10.7-5.4 4.4 1.5 6.9 6.3 5.4 10.7z"/><path class="st27" d="M18.5 114.7l-8.3-25.4s-26.1 49.8 5.1 53l3.2-27.6zM104.5 143.3l21.8-15.4s-8.9 55.6-35.8 39.5l14-24.1z"/><path class="st125" d="M186 547.6v118c0 7.4-6 13.3-13.3 13.3s-13.3-6-13.3-13.3V548.3l26.6-.7z"/><path class="st162" d="M152.5 540.3c0 10 8.1 18.1 18.1 18.1 10 0 18.1-8.1 18.1-18.1 0-10-8.1-18.1-18.1-18.1-10 .1-18.1 8.2-18.1 18.1z"/><path class="st161" d="M83.7 554.4v111.2c0 7.4-6 13.3-13.3 13.3S57 673 57 665.6V555.1l26.7-.7z"/><path class="st162" d="M50.1 540.3c0 10 8.1 18.1 18.1 18.1 10 0 18.1-8.1 18.1-18.1 0-10-8.1-18.1-18.1-18.1-10 .1-18.1 8.2-18.1 18.1z"/><path class="st27" d="M167.4 582l15.9-21.5s9.1 55.5-21.5 48.7l5.6-27.2zM76.8 582l-15.9-21.5s-9.1 55.5 21.5 48.7L76.8 582z"/><path class="st167" d="M183.1 312.4v118c0 7.4-6 13.3-13.3 13.3s-13.3-6-13.3-13.3V313.1l26.6-.7z"/><path class="st162" d="M190 305.1c0 10-8.1 18.1-18.1 18.1-10 0-18.1-8.1-18.1-18.1 0-10 8.1-18.1 18.1-18.1 10 .1 18.1 8.2 18.1 18.1z"/><path class="st7" d="M148.9 547.3v79.5H124v-79.5"/><path class="st167" d="M148.9 547.3v43.3H124v-43.3"/><path class="st20" d="M122.3 622.3h28.9c9.6 18.7 34.5 18.7 38 5.1 0 0 13.3 25.8-46.5 22.1-14.1-.9-25.3-13.9-20.4-27.2z"/><path class="st7" d="M88.9 547.3v79.5h24.9v-79.5"/><path class="st167" d="M88.9 547.3v43.3h24.9v-43.3"/><path class="st20" d="M115.5 622.3H86.7c-9.6 18.7-34.6 18.7-38 5.1 0 0-13.3 25.8 46.5 22.1 14.1-.9 25.3-13.9 20.3-27.2z"/><path class="st7" d="M91.1 416.2s39.1-81.6 74.8-98.6c0 0-18.7 76.5 1.7 100.3l-76.5-1.7z"/><path class="st163" d="M72.3 517.9c0 26.3 21.3 47.6 47.6 47.6s47.6-21.3 47.6-47.6v-65.7c0-26.3-21.3-47.6-47.6-47.6s-47.6 21.3-47.6 47.6v65.7z"/><path class="st167" d="M94.2 517.9c0 26.3-.6 47.6 25.6 47.6 26.3 0 47.6-21.3 47.6-47.6v-65.7c0-26.3-21.3-47.6-47.6-47.6s-25.6 21.3-25.6 47.6v65.7z"/><path class="st7" d="M115.6 404.6h8.6v104.1h-8.6z"/><path class="st20" d="M72.3 494.1h95.2v23.8H72.3z"/><path class="st31" d="M107.4 491.8h24.9V519h-24.9z"/><path class="st7" d="M66.1 322l19.8 77 24.1-6.2-19.8-77"/><path class="st165" d="M66.1 322l10.8 42 24.1-6.2-10.8-42"/><path class="st20" d="M110.5 388l-28 7.2c-4.7 20.5-28.8 26.7-35.5 14.4 0 0-6.5 28.3 50.5 9.8 13.5-4.3 21.1-19.7 13-31.4z"/><path class="st7" d="M124.3 307.1l19.7 77-24.1 6.2-19.8-77"/><path class="st165" d="M124.3 307.1l10.7 42-24.1 6.2-10.8-42"/><path class="st20" d="M117.1 386.3l28-7.2c14 15.7 38.1 9.5 38-4.5 0 0 19.3 21.6-39.5 32.9-13.9 2.8-28-7-26.5-21.2zM34.928 275.087l92.21-23.648 5.913 23.052-92.21 23.648z"/><path class="st31" d="M68.39 264.11l24.12-6.184 6.756 26.346-24.118 6.185z"/><circle class="st7" cx="171.9" cy="167.5" r="19.3"/><circle class="st27" cx="169.7" cy="160" r="19.3"/><path class="st7" d="M156.8 13.4c-1.8 5.3-7.5 8.2-12.9 6.5-5.3-1.8-8.2-7.5-6.5-12.9 1.8-5.4 7.6-8.2 12.9-6.5 5.4 1.8 8.3 7.6 6.5 12.9zM66.6 441.6c0 5.6 4.6 10.2 10.2 10.2S87 447.2 87 441.6s-4.6-10.2-10.2-10.2c-5.7 0-10.2 4.5-10.2 10.2zM158.9 548s-39.1-81.6-74.8-98.6c0 0 18.7 76.5-1.7 100.3l76.5-1.7z"/><path class="st161" d="M158.9 548s-39.1-81.6-74.8-98.6c0 0 18.7 76.5-1.7 100.3l76.5-1.7z"/><path class="st125" d="M158.9 548s-39.1-81.6-74.8-98.6c0 0 41.2 76.5 20.8 100.3l54-1.7z"/><path class="st27" d="M72.2 592.2c0 26.3 21.3 47.6 47.6 47.6s47.6-21.3 47.6-47.6-21.3-47.6-47.6-47.6-47.6 21.3-47.6 47.6z"/><path class="st7" d="M154 604.7c0 15.1-15.4 27.3-34.5 27.3S85 619.8 85 604.7h69zM65.4 558.4c0 3.5 2.8 6.3 6.3 6.3h94.6c3.5 0 6.3-2.8 6.3-6.3v-11.6c0-3.5-2.8-6.3-6.3-6.3H71.8c-3.5 0-6.3 2.8-6.3 6.3v11.6z"/><path class="st20" d="M131.7 585.4c0 4.7 3.8 8.5 8.5 8.5s8.5-3.8 8.5-8.5-3.8-8.5-8.5-8.5-8.5 3.8-8.5 8.5zM92.6 585.4c0 4.7 3.8 8.5 8.5 8.5s8.5-3.8 8.5-8.5-3.8-8.5-8.5-8.5-8.5 3.8-8.5 8.5z"/><path class="st7" d="M115.6 639.8h8.6v72.8h-8.6z"/><g><path class="st7" d="M176 202.7c-1.8 5.3-7.5 8.2-12.9 6.5-5.3-1.8-8.2-7.5-6.5-12.9 1.8-5.4 7.6-8.2 12.9-6.5 5.4 1.7 8.3 7.5 6.5 12.9z"/><path class="st163" d="M81.2 312.8s39.1-81.6 74.8-98.6c0 0-18.7 76.5 1.7 100.3l-76.5-1.7z"/><path class="st167" d="M81.2 312.8s39.1-81.6 74.8-98.6c0 0-41.2 76.5-20.8 100.3l-54-1.7z"/><path class="st27" d="M167.8 357c0 26.3-21.3 47.6-47.6 47.6S72.6 383.3 72.6 357s21.3-47.6 47.6-47.6 47.6 21.3 47.6 47.6z"/><path class="st7" d="M110.6 373.7c0 7.4 7.6 13.5 17.1 13.5 9.4 0 17.1-6 17.1-13.5h-34.2zM174.6 323.2c0 3.5-2.8 6.3-6.3 6.3H73.7c-3.5 0-6.3-2.8-6.3-6.3v-11.6c0-3.5 2.8-6.3 6.3-6.3h94.6c3.5 0 6.3 2.8 6.3 6.3v11.6z"/><path class="st20" d="M108.4 350.2c0 4.7-3.8 8.5-8.5 8.5s-8.5-3.8-8.5-8.5 3.8-8.5 8.5-8.5 8.5 3.8 8.5 8.5zM147.4 350.2c0 4.7-3.8 8.5-8.5 8.5s-8.5-3.8-8.5-8.5 3.8-8.5 8.5-8.5 8.5 3.8 8.5 8.5z"/><path class="st27" d="M72.7 346.8l-15.9-21.5s-9.1 55.5 21.5 48.7l-5.6-27.2zM163.3 346.8l15.9-21.5s9.1 55.5-21.5 48.7l5.6-27.2z"/></g><path class="st3" d="M9.3 91.3c-4.1 8.5-18.6 41.8 0 49.6V91.3z"/><path class="st164" d="M40.2 209.1c-4.1-5.3-11.7-6.3-17-2.2-8.1 6.3-15.3 8.3-21.9 6.4l-.9-.3v24.8c2 .3 3.9.4 5.7.4 13 0 24.1-6.2 31.9-12.1 5.3-4.1 6.3-11.7 2.2-17z"/><path class="st3" d="M9.3 213.7c-2.8.5-5.4.3-8-.4l-.9-.3v24.8c2 .3 3.9.4 5.7.4 1.1 0 2.1-.1 3.2-.1v-24.4z"/></svg>