<svg xmlns="http://www.w3.org/2000/svg" xmlns:xlink="http://www.w3.org/1999/xlink" viewBox="0 0 65.38 73.03" width="65.38" height="73.03"><defs><style>.cls-1,.cls-5,.cls-6,.cls-8{fill:none;}.cls-2{fill:#936742;}.cls-3{clip-path:url(#clip-path);}.cls-4{opacity:0.2;}.cls-5,.cls-6,.cls-8{stroke:#744c28;stroke-linecap:round;stroke-linejoin:round;stroke-width:2.37px;}.cls-6{stroke-dasharray:0 59.64;}.cls-7{opacity:0.5;}.cls-8{stroke-dasharray:0 35.55;}.cls-9{opacity:0.75;}.cls-10{fill:url(#New_Pattern_5);}.cls-11{fill:#af0000;}.cls-12{fill:#6dba00;}.cls-13{fill:#ff0619;}.cls-14{fill:#00750b;}.cls-15{fill:#fff;}</style><clipPath id="clip-path"><rect class="cls-1" width="100" height="100"/></clipPath><pattern id="New_Pattern_5" data-name="New Pattern 5" width="100" height="100" patternTransform="matrix(0.2, 0.07, 0.1, -0.27, 272.83, 35.12)" patternUnits="userSpaceOnUse" viewBox="0 0 100 100"><rect class="cls-1" width="100" height="100"/><rect class="cls-2" width="100" height="100"/><g class="cls-3"><g class="cls-4"><line class="cls-5" x1="-7.31" y1="13.78" x2="-7.31" y2="13.78"/><path class="cls-6" d="M46-12.34q8-2.45,16.12-4.17a22.8,22.8,0,0,1,8.33-.65c2.76.46,5.49,2.08,6.53,4.69,1.23,3.09-.26,6.73-2.72,9S68.6-.1,65.46,1Q23.9,15.25-18.81,25.79c-3,.74-6,1.48-8.56,3.16s-4.59,4.48-4.47,7.54c.13,3.44,3,6.31,6.23,7.47s6.8.94,10.22.52A101.53,101.53,0,0,0,41.14,18.16c5.23-4.88,10-10.32,15.49-14.84s12.14-8.16,19.28-8.6A25.37,25.37,0,0,1,97.63,5.3a27.92,27.92,0,0,1,3.71,24.07c-4.43,14.46-19.32,23.2-33.95,27C55,59.66,40.52,59.94,30.9,51.51a25.39,25.39,0,0,1-6.1-28.93,25.38,25.38,0,0,1,26.05-14C62.37,10.33,71,19.73,78.6,28.55l39.87,46.22c1.28,1.48,2.76,3.07,4.72,3.24,3.87.34,5.65-4.67,6.05-8.54.72-7,1.17-14.13-.75-20.87s-6.61-13.07-13.29-15.16c-9.11-2.85-18.54,2.61-26.52,7.83C77,48.91,65.2,56.67,55.9,67.07S40,91,40.71,104.9c.16,2.86.62,5.72.3,8.57s-1.58,5.77-4,7.22c-3.83,2.27-8.67.21-12.61-1.85C16,114.46,7.51,110,.55,103.64s-12.36-15-12.81-24.47C-12.86,66.7-4.62,55.08,6,48.44a51.59,51.59,0,0,1,48.37-3c17.12,8,28.23,24.61,39.08,40.08,3.86,5.5,9.4,11.63,16,10.24,5.24-1.11,8.24-6.53,10.27-11.48a147.6,147.6,0,0,0,11-57.58c0-3.47-.59-7.59-3.66-9.21-3.24-1.71-7.1.45-10,2.61A196.66,196.66,0,0,0,80.23,55.2c-2.79,3.47-5.51,7.1-7,11.28s-1.8,9,.26,13c2.83,5.44,9.76,9,9.69,15.18,0,3.41-2.51,6.46-5.55,8s-6.55,1.9-10,1.9a59.7,59.7,0,0,1-29-7.5C32.23,93.5,26,87.9,25.58,80.61c-.57-9,7.6-15.94,15.29-20.66a181.37,181.37,0,0,1,66.59-24.57c4.86-.76,9.82-1.35,14.34-3.31s8.6-5.59,9.73-10.38c1-4.28-.5-8.87-3.18-12.36s-6.4-6-10.23-8.17C110.5-3.13,102-6.22,93.27-6.25S75.53-2.91,70,3.86,63.2,21,68,28.27c7.45,11.2,25.8,12.23,31.09,24.59,2.81,6.58.7,14.37-3.23,20.36-6,9.1-16,15.28-26.64,17.34A51.54,51.54,0,0,1,37.47,86C29,81.91,21.07,75.08,18.88,65.9c-2.55-10.7,3.5-22.05,12.35-28.57s20-9,30.9-10.48,22-2,32.52-5.2c1.45-.45,2.91-1,4.33-1.55"/><line class="cls-5" x1="109.73" y1="-3.16" x2="109.73" y2="-3.16"/></g><g class="cls-7"><line class="cls-5" x1="107.31" y1="90.57" x2="107.31" y2="90.57"/><path class="cls-8" d="M76.48,108.18a188.11,188.11,0,0,1-38.63,12.68,22.8,22.8,0,0,1-8.33.65c-2.76-.46-5.49-2.08-6.53-4.69-1.23-3.09.26-6.73,2.72-9s5.69-3.4,8.83-4.48Q76.1,89.12,118.81,78.56c3-.74,6-1.48,8.56-3.16s4.59-4.48,4.47-7.54c-.13-3.44-3-6.31-6.23-7.47s-6.8-.94-10.22-.52A101.53,101.53,0,0,0,58.86,86.19c-5.23,4.88-10,10.32-15.49,14.84s-12.14,8.16-19.28,8.6A25.37,25.37,0,0,1,2.37,99.05,27.91,27.91,0,0,1-1.34,75c4.43-14.46,19.32-23.2,34-27C45,44.69,59.48,44.41,69.1,52.84a25.39,25.39,0,0,1,6.1,28.93,25.38,25.38,0,0,1-26.05,14C37.63,94,29,84.62,21.4,75.8L-18.47,29.59c-1.28-1.49-2.76-3.08-4.72-3.25-3.87-.33-5.65,4.67-6,8.54-.72,7-1.17,14.13.75,20.87s6.61,13.07,13.29,15.16c9.11,2.85,18.54-2.6,26.52-7.83C23,55.44,34.8,47.68,44.1,37.28S60.05,13.38,59.29-.55c-.16-2.86-.62-5.72-.3-8.57s1.58-5.77,4-7.22c3.83-2.26,8.67-.21,12.61,1.85C84-10.11,92.49-5.67,99.45.71s12.36,15,12.81,24.47c.6,12.47-7.64,24.09-18.21,30.73a51.59,51.59,0,0,1-48.37,3C28.56,50.92,17.45,34.3,6.6,18.84,2.74,13.33-2.8,7.2-9.38,8.59c-5.24,1.11-8.24,6.53-10.27,11.48a147.6,147.6,0,0,0-11,57.58c0,3.48.59,7.59,3.66,9.21,3.24,1.72,7.1-.44,10.05-2.61a196.66,196.66,0,0,0,36.72-35.1c2.79-3.47,5.51-7.1,7.05-11.27s1.8-9-.26-13c-2.83-5.44-9.76-9-9.69-15.18,0-3.41,2.51-6.45,5.55-8S29-.2,32.39-.2a59.7,59.7,0,0,1,29,7.5c6.38,3.55,12.57,9.15,13,16.44.57,9-7.6,15.94-15.29,20.66A181.37,181.37,0,0,1-7.46,69c-4.86.76-9.82,1.35-14.34,3.31s-8.6,5.6-9.73,10.38c-1,4.28.5,8.87,3.18,12.36s6.4,6,10.23,8.17c7.62,4.29,16.11,7.38,24.85,7.41S24.47,107.27,30,100.49s6.81-17.13,2-24.41C24.52,64.88,6.17,63.85.88,51.49c-2.81-6.58-.7-14.37,3.23-20.36,6-9.1,16-15.28,26.64-17.34a51.54,51.54,0,0,1,31.78,4.56c8.5,4.09,16.4,10.92,18.59,20.1,2.55,10.7-3.5,22-12.35,28.57s-20,9-30.9,10.48-22,2-32.52,5.2C.05,84.33-5.26,86.79-8.76,91.07"/><line class="cls-5" x1="-9.73" y1="107.51" x2="-9.73" y2="107.51"/></g><g class="cls-9"><line class="cls-5" x1="1.15" y1="74.3" x2="1.15" y2="74.3"/><path class="cls-8" d="M5,39A188.53,188.53,0,0,1,17.45.3a22.6,22.6,0,0,1,4.37-7.12c2-2,4.91-3.23,7.63-2.54,3.22.82,5.29,4.17,5.67,7.47s-.6,6.6-1.58,9.78q-12.87,42-29.43,82.77C3,93.49,1.78,96.39,1.63,99.44s.94,6.35,3.48,8c2.86,1.91,6.86,1.29,9.71-.65s4.75-5,6.42-8a101.51,101.51,0,0,0,11.92-61.2c-.87-7.1-2.5-14.12-2.91-21.26s.53-14.62,4.37-20.65A25.37,25.37,0,0,1,55.94-15.61,28,28,0,0,1,77.6-4.47C86.7,7.61,85,24.8,79.54,38.9,74.9,50.81,66.6,62.72,54.13,65.54a25.35,25.35,0,0,1-27-12.06,25.35,25.35,0,0,1,4-29.29C39.3,15.89,52,14.44,63.58,13.46L124.4,8.35c1.95-.17,4.11-.43,5.4-1.91,2.54-2.94-.46-7.32-3.36-9.92-5.21-4.68-10.75-9.25-17.33-11.66S94.66-17.46,89-13.28c-7.66,5.69-8.78,16.53-9.24,26.06-.67,13.93-1.33,28.05,1.62,41.68S91.38,81.41,103.1,89c2.4,1.55,5,2.86,7.11,4.79s3.74,4.67,3.47,7.51c-.42,4.43-4.93,7.14-8.91,9.12-8.46,4.2-17,8.45-26.29,10.33s-19.43,1.17-27.33-4c-10.44-6.84-15-20.33-14.16-32.79A51.56,51.56,0,0,1,63,43c16.53-9.16,36.5-8.39,55.39-8.08,6.72.11,14.93-.77,17.68-6.91,2.18-4.89-.45-10.5-3.26-15.06A147.69,147.69,0,0,0,92.67-29.75c-2.84-2-6.49-4-9.61-2.46-3.29,1.62-3.81,6-3.79,9.67A196.65,196.65,0,0,0,86.1,27.79c1.16,4.3,2.51,8.63,5,12.34s6.24,6.76,10.65,7.41c6.06.9,13.06-2.58,18,1.08,2.75,2,3.76,5.82,3.24,9.2s-2.31,6.42-4.32,9.18A59.75,59.75,0,0,1,95.51,86.06c-6.62,3.08-14.79,4.79-21,.89-7.62-4.83-8.43-15.52-7.74-24.51A181.34,181.34,0,0,1,86.06-5.88c2.24-4.38,4.68-8.74,5.74-13.55s.53-10.24-2.68-14c-2.86-3.33-7.47-4.8-11.86-4.68s-8.63,1.65-12.63,3.48C56.69-31,49.19-25.91,44-18.86S36.31-2.55,38.55,5.9s9.86,15.58,18.59,15.94c13.44.56,25-13.68,38.16-10.7,7,1.59,12,7.87,14.58,14.57,3.86,10.18,3,21.89-1.62,31.75a51.5,51.5,0,0,1-22.36,23C77.59,85,67.42,87.35,58.71,83.73,48.56,79.51,42.92,67.94,42.85,57s4.44-21.49,9.67-31.16,11.33-19,14.9-29.38c1.8-5.24,2.93-11,1.52-16.33"/><line class="cls-5" x1="56.21" y1="-30.36" x2="56.21" y2="-30.36"/></g></g></pattern></defs><title>cookie_stocking</title><g id="Layer_2" data-name="Layer 2"><g id="ART"><path class="cls-10" d="M17.81,73A17.8,17.8,0,0,1,.34,58.75,17.42,17.42,0,0,1,3,45.55,17.7,17.7,0,0,1,14.42,38l7.15-1.38V21.69A11.58,11.58,0,0,1,27.3,0H53.71a11.58,11.58,0,0,1,5.73,21.69v30c0,4.7-3,13.43-14.22,16.34l-.27.06L21.21,72.7A18,18,0,0,1,17.81,73Zm26.32-9.19h0Z"/><path class="cls-11" d="M53.71,4.36H27.3A7.27,7.27,0,0,0,20,11.59h0a7.25,7.25,0,0,0,6,7.1V40.24l-10.7,2.07A13.31,13.31,0,0,0,4.61,57.91h0A13.44,13.44,0,0,0,20.38,68.42l23.75-4.58c10.12-2.62,10.94-10.61,10.94-12.11v-33a7.25,7.25,0,0,0,6-7.1h0A7.27,7.27,0,0,0,53.71,4.36Z"/><path class="cls-12" d="M34.31,60.71a.77.77,0,0,1-.77-.77V55a.77.77,0,0,1,1.54,0v4.94A.78.78,0,0,1,34.31,60.71Z"/><path class="cls-13" d="M48.85,33.78a.78.78,0,0,1-.77-.78V28.07a.77.77,0,1,1,1.54,0V33A.77.77,0,0,1,48.85,33.78Z"/><path class="cls-13" d="M13.91,62.42a.77.77,0,0,1-.61-1.24l3-3.93a.77.77,0,0,1,1.23.93l-3,3.94A.76.76,0,0,1,13.91,62.42Z"/><path class="cls-14" d="M41.35,57.74a.77.77,0,0,1-.61-1.24l3-3.94A.77.77,0,0,1,45,53.5l-3,3.94A.79.79,0,0,1,41.35,57.74Z"/><path class="cls-14" d="M10.32,55.53a.75.75,0,0,1-.43-.13.76.76,0,0,1-.21-1.07l2.79-4.1a.78.78,0,0,1,1.08-.2.77.77,0,0,1,.2,1.07L11,55.2A.76.76,0,0,1,10.32,55.53Z"/><path class="cls-12" d="M38.69,41a.77.77,0,0,1-.53-1.33l3.59-3.43a.77.77,0,1,1,1.06,1.12l-3.59,3.43A.77.77,0,0,1,38.69,41Z"/><path class="cls-14" d="M41.06,28.64a.75.75,0,0,1-.55-.24.76.76,0,0,1,0-1.09l3.59-3.43a.77.77,0,0,1,1.09,0,.78.78,0,0,1,0,1.09L41.6,28.42A.76.76,0,0,1,41.06,28.64Z"/><path class="cls-13" d="M35.38,47.39a.77.77,0,0,1-.69-.43L32.54,42.5a.76.76,0,0,1,.36-1,.78.78,0,0,1,1,.36l2.15,4.46a.78.78,0,0,1-.36,1A.8.8,0,0,1,35.38,47.39Z"/><path class="cls-15" d="M25.73,61.63A.88.88,0,0,1,24.9,61l-1.51-4.71a.87.87,0,0,1,1.66-.53l1.51,4.71a.89.89,0,0,1-.83,1.14Z"/><path class="cls-12" d="M27.31,49.93a.84.84,0,0,1-.27,0l-4.67-1.76a.77.77,0,0,1,.54-1.44l4.67,1.75a.77.77,0,0,1-.27,1.49Z"/><path class="cls-12" d="M35.41,30.11a.77.77,0,0,1-.7-.46l-2-4.51a.77.77,0,1,1,1.4-.63l2,4.51a.77.77,0,0,1-.39,1A.71.71,0,0,1,35.41,30.11Z"/><path class="cls-15" d="M49.55,48.27a.85.85,0,0,1-.56-.21l-3.81-3.19a.88.88,0,0,1-.11-1.23.87.87,0,0,1,1.23-.11l3.81,3.19A.87.87,0,0,1,50.22,48,.86.86,0,0,1,49.55,48.27Z"/><rect class="cls-15" x="19.95" y="4.36" width="41.07" height="14.54" rx="7" ry="7"/></g></g></svg>