<svg xmlns="http://www.w3.org/2000/svg" width="360.92" height="360.92"><defs><style>.cls-1{fill:none}.cls-2{fill:#81d4fa}.cls-5{opacity:.1}.cls-6{fill:#231f20}.cls-8{opacity:.31}.cls-9{fill:#48d5d5}.cls-10{fill:#f33}.cls-11{fill:#332e2e}.cls-12{fill:#f9ce1d}.cls-13{fill:#bf8f68}.cls-14{fill:#fff}.cls-18{fill:#6a4809}.cls-22{fill:#af9b69}.cls-23{fill:#f2f2f2}.cls-24{fill:#b67e41}.cls-25{fill:#cf8f4b}.cls-26{fill:#795a38}.cls-27{fill:#a5cd39}.cls-28{fill:#6ebd44}.cls-29{fill:#fdce48}.cls-30{fill:#e53935}.cls-32{fill:#f57c00}.cls-35{fill:#fff6dc}.cls-40{fill:#32a658}.cls-41{fill:#fadcbc}.cls-43{fill:#da4637}.cls-45{fill:#36b149}.cls-50{fill:#ffd200}</style><clipPath id="clip-path"><circle class="cls-1" cx="180.46" cy="180.46" r="180.46"/></clipPath><clipPath id="clip-path-2"><path class="cls-1" d="M49.41 230.25c.55 5.49 7.6 7.88 13 6.78s10.28-4.32 15.77-4.92c4.47-.49 8.93.8 13.43 1 10.49.57 21.26-5.31 25.75-14.8s1.88-22-6.51-28.37c-8-6-19-5.79-28.92-4.83-6.78.65-13.62 1.54-19.93 4.1s-12.1 7-15 13.16-2.35 14.15 2.35 19.07"/></clipPath><clipPath id="clip-path-3"><ellipse id="_Clipping_Path_" data-name="&lt;Clipping Path&gt;" class="cls-2" cx="82.23" cy="195.06" rx="5" ry="4.03"/></clipPath></defs><g style="isolation:isolate"><g clip-path="url(#clip-path)" id="UI"><g class="cls-5"><path class="cls-6" d="M453.66 366.03H-5.67v-184.6l93.25-20.01h205.78l160.3 30.02v174.59z"/></g><circle class="cls-1" cx="180.46" cy="180.46" r="180.46"/><circle cx="180.46" cy="179.96" r="180.46" fill="#0ea7dd"/><g class="cls-8"><path class="cls-9" d="M18 101.08c0-20.16 16.34-44 36.5-44s36.5 23.85 36.5 44"/><path class="cls-9" d="M-3 101.08c0-7.43 7.84-25 17.5-25s17.5 17.58 17.5 25M78.7 101.09c0-6.47 12.38-21.75 27.65-21.75S134 94.62 134 101.09"/></g><g class="cls-5"><path class="cls-6" d="M520.66 265.31c.59 29.71-39.27 54.16-97.57 75-34.51 12.35-75.45 28.79-123.25 35.57-39.55 5.61-83.23 2.39-128.47 3s-89 5.08-128.84.57C-5.53 374.06-47 358.77-82 347.38c-59-19.21-99.71-42.45-100.3-72.12s39.27-54.16 97.57-75c34.51-12.35 75.45-28.79 123.25-35.57 39.55-5.61 83.23-2.39 128.47-3s89-5.08 128.84-.57c48.06 5.44 89.56 20.74 124.53 32.13 58.95 19.15 99.7 42.4 100.3 72.06z"/><path class="cls-6" d="M172.36 180.95H327c-27.67-65.17-71.44-61.28-97.7-36s-37.93-31.11-56.94 36z"/><path class="cls-6" d="M307.62 110.75c3.89-.48 7.12-2.19 8.7-4.31-2.05-1.67-5.61-2.53-9.5-2a17.18 17.18 0 0 0-2.74.57 16.81 16.81 0 0 0 2.15-2.82c2-3.35 2.72-6.94 2-9.5-2.59.57-5.47 2.82-7.51 6.17a17.16 17.16 0 0 0-1.26 2.5 16.93 16.93 0 0 0-.88-3.44c-1.36-3.68-3.75-6.44-6.18-7.49-1.16 2.38-1.19 6 .17 9.71a17.15 17.15 0 0 0 1.18 2.54 16.89 16.89 0 0 0-3.24-1.45c-3.72-1.22-7.38-1.06-9.71.19 1.14 2.39 4 4.68 7.72 5.9a16.54 16.54 0 0 0 4.38.82 3.18 3.18 0 0 0-1.4 1.71 3.42 3.42 0 0 0-.21 1.29 52.38 52.38 0 0 0-12 17.36c-3.69 8.43-5.42 17.53-4.62 24.33a2.37 2.37 0 0 0 2.35 2.09h.28a2.37 2.37 0 0 0 2.08-2.63c-1.22-10.4 4.53-28.94 16.55-39a2 2 0 0 0 3.63 1.39 16.9 16.9 0 0 0 2.12 2.53c2.8 2.75 6.14 4.22 8.79 4.14 0-2.65-1.5-6-4.29-8.71a17.23 17.23 0 0 0-2.15-1.79 16.89 16.89 0 0 0 3.59-.1zM294.77 108h.26l-.14.1zM250.86 113.25a10.67 10.67 0 0 0-1.33 1.11 8 8 0 0 0-2.66 5.41 8 8 0 0 0 5.45-2.57 10.64 10.64 0 0 0 1.32-1.57 1.22 1.22 0 0 0 2.25-.86c7.46 6.21 11 17.71 10.27 24.16a1.47 1.47 0 0 0 1.29 1.63h.17a1.47 1.47 0 0 0 1.46-1.3c.5-4.22-.57-9.86-2.86-15.09a32.51 32.51 0 0 0-7.43-10.77 2.13 2.13 0 0 0-.13-.8 2 2 0 0 0-.87-1.06 10.25 10.25 0 0 0 2.72-.51 8 8 0 0 0 4.79-3.66 8 8 0 0 0-6-.12 10.48 10.48 0 0 0-2 .9 10.58 10.58 0 0 0 .73-1.57 8 8 0 0 0 .11-6 8 8 0 0 0-3.84 4.65 10.46 10.46 0 0 0-.55 2.13 10.62 10.62 0 0 0-.78-1.55 8 8 0 0 0-4.66-3.83 8 8 0 0 0 1.26 5.89 10.47 10.47 0 0 0 1.33 1.75 10.64 10.64 0 0 0-1.7-.35 8 8 0 0 0-5.89 1.27 8 8 0 0 0 5.4 2.68 10.49 10.49 0 0 0 2.15.03zm5.7-1.68l-.09-.06h.16zM-18.32 192.79l113.18-15.87C86.11 135.13 53.28 138 33.59 157s-25.65-7.47-51.91 35.79z"/><path class="cls-6" d="M92.33 131.35a9.7 9.7 0 0 0 6.53-3.23 9.71 9.71 0 0 0-7.12-1.54 12.88 12.88 0 0 0-2.05.43 12.61 12.61 0 0 0 1.61-2.12 9.7 9.7 0 0 0 1.52-7.13 9.71 9.71 0 0 0-5.63 4.63 12.87 12.87 0 0 0-.94 1.87 12.7 12.7 0 0 0-.66-2.58 9.71 9.71 0 0 0-4.64-5.62 9.7 9.7 0 0 0 .13 7.29 12.86 12.86 0 0 0 .88 1.9 12.67 12.67 0 0 0-2.43-1.08 9.7 9.7 0 0 0-7.29.14 9.71 9.71 0 0 0 5.76 4.43 12.41 12.41 0 0 0 3.29.61 2.39 2.39 0 0 0-1 1.28 2.57 2.57 0 0 0-.16 1 39.28 39.28 0 0 0-9 13c-2.77 6.32-4.06 13.15-3.46 18.25a1.78 1.78 0 0 0 1.76 1.57h.21a1.78 1.78 0 0 0 1.56-2c-.92-7.8 3.4-21.71 12.41-29.21a1.48 1.48 0 0 0 2.72 1 12.67 12.67 0 0 0 1.59 1.9 9.7 9.7 0 0 0 6.59 3.11 9.71 9.71 0 0 0-3.22-6.54 12.93 12.93 0 0 0-1.61-1.35 12.67 12.67 0 0 0 2.65-.01zm-9.64-2h.2l-.11.08zM49.76 133.23a8 8 0 0 0-1 .83 6 6 0 0 0-2 4.05 6 6 0 0 0 4.09-1.93 8 8 0 0 0 1-1.18.92.92 0 0 0 1.69-.65c5.59 4.66 8.27 13.28 7.7 18.12a1.1 1.1 0 0 0 1 1.22h.13a1.1 1.1 0 0 0 1.09-1 23.39 23.39 0 0 0-2.15-11.32 24.38 24.38 0 0 0-5.57-8.08 1.6 1.6 0 0 0-.1-.6 1.48 1.48 0 0 0-.65-.79 7.68 7.68 0 0 0 2-.38 6 6 0 0 0 3.59-2.75 6 6 0 0 0-4.52-.09 7.86 7.86 0 0 0-1.51.67 7.93 7.93 0 0 0 .55-1.18 6 6 0 0 0 .08-4.52 6 6 0 0 0-2.88 3.49 7.84 7.84 0 0 0-.41 1.6 8 8 0 0 0-.58-1.16 6 6 0 0 0-3.49-2.87 6 6 0 0 0 .94 4.42 7.86 7.86 0 0 0 1 1.31 8 8 0 0 0-1.27-.26 6 6 0 0 0-4.42 1 6 6 0 0 0 4.05 2 7.86 7.86 0 0 0 1.64.05zM54 132h-.07.12z"/></g><path class="cls-10" d="M185.25 162.54a1.65 1.65 0 0 1-1.58-2.14l3.83-12.4a1.65 1.65 0 0 1 3.16 1l-3.82 12.42a1.65 1.65 0 0 1-1.59 1.12z"/><path class="cls-11" d="M191.77 164.62a3.2 3.2 0 0 1-4 2.12 2.48 2.48 0 0 1-1.64-3.1l.7-2.27-3.16-1-2.12 6.9a.83.83 0 0 0 .55 1l7.72 2.37a3.25 3.25 0 0 0 4-2 3.2 3.2 0 0 0-2.05-4.02z"/><path class="cls-12" d="M185.89 164.43l-1.19-.36a.83.83 0 1 1 .49-1.58l1.19.36a.83.83 0 0 1-.49 1.58z"/><path class="cls-10" d="M179.73 160.84a1.65 1.65 0 0 1-1.58-2.14l3.85-12.42a1.65 1.65 0 0 1 3.16 1l-3.82 12.42a1.65 1.65 0 0 1-1.61 1.14z"/><path class="cls-11" d="M187.69 166.2a3.2 3.2 0 0 1-4.46.77 2.48 2.48 0 0 1-.59-3.45l1.37-1.94-2.7-1.91-4.17 5.9a.83.83 0 0 0 .2 1.15l6.6 4.66a3.25 3.25 0 0 0 4.45-.63 3.2 3.2 0 0 0-.7-4.55z"/><path class="cls-12" d="M177.21 161.76l1.19.36a.83.83 0 1 0 .49-1.58l-1.19-.36a.83.83 0 1 0-.49 1.58z"/><path class="cls-10" d="M183.55 146.76l5.52 1.7 1.55-14.83-7.07 13.13z"/><path class="cls-10" d="M191.1 132.05a7 7 0 0 0-8.81 4.66l-1.74 5.64A7 7 0 0 0 194 146.5l1.74-5.64a7 7 0 0 0-4.64-8.81z"/><path class="cls-10" d="M192.83 135.6a9.15 9.15 0 0 1-2.7-.38 1.65 1.65 0 1 1 1-3.16c4 1.24 10.5-2.41 16.21-5.62 2.23-1.25 4.33-2.44 6.24-3.31a1.65 1.65 0 0 1 1.38 3c-1.79.82-3.83 2-6 3.19-5.32 2.96-11.2 6.28-16.13 6.28z"/><circle class="cls-13" cx="215.48" cy="124.49" r="3.52" transform="rotate(-26.88 215.515 124.49)"/><path class="cls-14" d="M209.51 124.16l2.7 5.32a1.65 1.65 0 1 0 2.95-1.49l-2.7-5.32a1.65 1.65 0 0 0-2.95 1.49z"/><path class="cls-10" d="M190.62 135.28a1.65 1.65 0 0 1-.49-.07 40.52 40.52 0 0 0-4.63-1c-5.28-1-11.26-2-13-9.47a1.65 1.65 0 0 1 3.21-.76c1.19 5.07 4.72 6 10.38 7a42.92 42.92 0 0 1 5 1.11 1.65 1.65 0 0 1-.48 3.23z"/><path class="cls-11" transform="matrix(.96 .29 -.29 .96 50.28 -48.92)" d="M180.77 140.99h14.09v3.52h-14.09z"/><path class="cls-12" transform="rotate(17.1 187.834 142.757)" d="M186.05 140.99h3.52v3.52h-3.52z"/><circle class="cls-14" cx="199.04" cy="106.24" r="2.45" transform="rotate(-72.9 199.033 106.246)"/><path class="cls-10" d="M200.92 124.1l-2.6-15.51-10.87 11.37 13.47 4.14z"/><path class="cls-14" d="M200.1 125.68a2.07 2.07 0 0 1-1.46-2 5 5 0 0 0-9.09-2.8 2.06 2.06 0 0 1-3.4-2.34 9.11 9.11 0 0 1 16.62 5.11 2.07 2.07 0 0 1-2.67 2z"/><path class="cls-13" d="M203.54 123.36l-4.5 2.38a1.86 1.86 0 1 0 1.74 3.29c2.81-1.48 2.76-5.67 2.76-5.67zM188.09 122.38l-2.38-4.5s-2.4 3.43-.91 6.25a1.86 1.86 0 1 0 3.29-1.74z"/><path class="cls-11" d="M193.17 125.32a8.33 8.33 0 0 1-10.41 5.51l2.45-8zM193.17 125.32a8.33 8.33 0 0 0 5.51 10.41l2.45-8z"/><path class="cls-11" d="M185.21 122.87a8.33 8.33 0 1 1 15.93 4.9z"/><circle class="cls-13" cx="193.17" cy="125.32" r="7.05" transform="rotate(-72.9 193.169 125.32)"/><circle class="cls-11" cx="191.05" cy="122.55" r="1.42" transform="matrix(.29 -.96 .96 .29 17.73 269.11)"/><circle class="cls-11" cx="196.49" cy="124.23" r="1.42" transform="rotate(-72.9 196.477 124.226)"/><path class="cls-14" d="M197 127.37a4.27 4.27 0 1 1-8.16-2.51z"/><path class="cls-11" d="M197.3 119.61a7 7 0 0 0-9.84 1.59 7 7 0 0 0 9.84-1.59z"/><path d="M264.73 258c3 9.75-7.64 13.34-21.85 16.34-8.83 1.88-19.52 6.46-32.27 6.92h-3.46c-6.23-.22-12.66-1.48-19.14-2.36a80.06 80.06 0 0 0-10.91-.87c-11.47 0-23.64 3.63-34.3 3.24-12.61-.46-22.22-5-30.72-6.92-13.69-3-23.43-6.59-19.78-16.34 3.4-9.29 15.61-16.14 28.27-22.74 8.71-4.48 17.75-11.53 27.86-13.89 8.76-2.05 18.63.46 28.44.46s19.05-2.51 28.32-.46c10.75 2.36 21.25 9.42 30.47 13.89 13.48 6.6 26.18 13.45 29.07 22.73z" fill="#ffcc80"/><path d="M274.47 265.93c3.41 8.25-8.32 11.3-24.11 13.83-9.81 1.59-21.59 5.48-35.81 5.86h-3.87c-7-.19-14.18-1.25-21.44-2a118.15 118.15 0 0 0-12.2-.74c-12.8 0-26.27 3.07-38.18 2.74-14.1-.39-25-4.27-34.5-5.86C89 277.22 78 274.18 82 265.93c3.72-7.86 17.42-13.67 31.66-19.25 9.79-3.79 20.07-9.76 31.45-11.76 9.84-1.74 20.78.39 31.73.39s21.35-2.13 31.62-.39c11.91 2 23.44 8 33.66 11.76 14.95 5.57 29.05 11.38 32.35 19.25z" fill="#ffa580" opacity=".36"/><circle class="cls-14" cx="174.43" cy="126.99" r="3.52" transform="rotate(-62.65 174.445 126.985)"/><path class="cls-5" d="M209 281.26c-6.6-.22-13.48-1.49-20.48-2.37-8.09-16.06-28.6-46.9-16.58-48.86 22.48-3.68 30.06 37.66 37.06 51.23z"/><path class="cls-18" d="M186 234.81c-1.46 5.18-17.83 3.85-17.64 0A567.69 567.69 0 0 0 172 96.17h8.43c0-.08 6 33.83 7.16 68.15 1.88 34.3-1.12 69.02-1.59 70.49z"/><path d="M183 234.81a7.54 7.54 0 0 1-6.41 3.51c-7.71 0-8.34-3.51-8.34-3.51A568.13 568.13 0 0 0 173 96.17h5.54A567.92 567.92 0 0 1 183 234.81z" fill="#90651d"/><path d="M169.19 217.66a.85.85 0 0 1 .79-.92.86.86 0 0 1 .92.79.87.87 0 0 1-.79.93H170a.85.85 0 0 1-.81-.8zm1-2.64a.87.87 0 0 1-.54-1.1.86.86 0 0 1 1.1-.53.87.87 0 0 1 .53 1.1.87.87 0 0 1-.81.57.85.85 0 0 1-.28-.06zm9.34-1.91a.85.85 0 0 1 .8-.91.85.85 0 0 1 .92.8.86.86 0 0 1-.81.91h-.06a.86.86 0 0 1-.86-.8zm-2.73.58a.86.86 0 0 1-.69-1 .86.86 0 0 1 1-.68.86.86 0 0 1 .68 1 .87.87 0 0 1-.84.69h-.16zm6.13-1.11a.85.85 0 0 1 .35-1.16.86.86 0 0 1 1.17.35.86.86 0 0 1-.35 1.16.87.87 0 0 1-.41.11.87.87 0 0 1-.76-.46zm-9.6 0a.88.88 0 0 1-.48-.63.87.87 0 0 1-1.19 0 .87.87 0 0 1 0-1.22.87.87 0 0 1 1.22 0 .89.89 0 0 1 .24.47.85.85 0 0 1 1-.15.86.86 0 0 1 .41 1.15.85.85 0 0 1-.78.49.9.9 0 0 1-.43-.13zm-3.08-2a.87.87 0 0 1-.06-1.22.85.85 0 0 1 1.21-.06.86.86 0 0 1 .06 1.21.84.84 0 0 1-.64.29.89.89 0 0 1-.58-.26zm14-.53a.87.87 0 0 1 .13-1.21.86.86 0 0 1 1.21.13.85.85 0 0 1-.13 1.21.85.85 0 0 1-.54.19.84.84 0 0 1-.73-.37zm-9.91-.31a.86.86 0 0 1 .4-1.15.86.86 0 0 1 1.15.4.87.87 0 0 1-.4 1.15.83.83 0 0 1-.37.09.87.87 0 0 1-.84-.53zm3.19-1.28a.87.87 0 0 1 .7-1 .87.87 0 0 1 1 .7.87.87 0 0 1-.7 1h-.15a.87.87 0 0 1-.9-.74zm4.17.6a.86.86 0 0 1-.75-1 .85.85 0 0 1 1-.75.86.86 0 0 1 .75 1 .85.85 0 0 1-.85.76h-.11zM168 207.5a.86.86 0 0 1 .46-1.12.85.85 0 0 1 1.13.45.87.87 0 0 1-.46 1.13 1 1 0 0 1-.33.07.88.88 0 0 1-.8-.53zm.3-2.88a.84.84 0 0 1-.6-1.05.86.86 0 0 1 1-.61.86.86 0 0 1 .61 1 .87.87 0 0 1-.84.64zm15.44-2.62a.86.86 0 0 1-.78-.94.86.86 0 0 1 .94-.77.86.86 0 0 1 .78.93.87.87 0 0 1-.86.78h-.08zm-14.09-.54a.87.87 0 0 1 0-1.22.86.86 0 0 1 1.22 0 .85.85 0 0 1 0 1.21.84.84 0 0 1-.62.27.86.86 0 0 1-.6-.23zm10.63.17a.86.86 0 0 1-.74-1 .87.87 0 0 1 1-.74.86.86 0 0 1 .74 1 .86.86 0 0 1-.85.75h-.12zm6.22-.45a.85.85 0 0 1 0-1.21.84.84 0 0 1 1.21 0 .85.85 0 0 1 0 1.21.87.87 0 0 1-.63.27.86.86 0 0 1-.57-.24zm-9.7-.19a.85.85 0 0 1-.62-1 .86.86 0 0 1 1-.63.88.88 0 0 1 .63 1 .86.86 0 0 1-.84.65.74.74 0 0 1-.16-.01zm-3.4-1.21a.92.92 0 0 1-.23-.16.89.89 0 0 1-.94-.43.86.86 0 0 1 .34-1.17.86.86 0 0 1 1 .14.92.92 0 0 1 .56.07.86.86 0 0 1 .4 1.15.85.85 0 0 1-.77.49.84.84 0 0 1-.36-.06zm12.44-1.3a.86.86 0 0 1-.32-1.17.86.86 0 0 1 1.18-.32.85.85 0 0 1 .31 1.17.86.86 0 0 1-.74.44.82.82 0 0 1-.42-.09zm-10.5-.78a.86.86 0 0 1 .57-1.07.85.85 0 0 1 1.07.58.85.85 0 0 1-.57 1.07 1.16 1.16 0 0 1-.25 0 .85.85 0 0 1-.81-.55zm-5 0a.85.85 0 0 1 0-1.21.86.86 0 0 1 1.22 0 .87.87 0 0 1 0 1.22.88.88 0 0 1-.6.24.85.85 0 0 1-.64-.24zm12.56 0a.85.85 0 0 1-.76-1 .86.86 0 0 1 .95-.76.86.86 0 0 1 .76.95.87.87 0 0 1-.86.77h-.09zm-4.2-.79a.85.85 0 0 1 .77-.94.86.86 0 0 1 .94.78.85.85 0 0 1-.77.93h-.08a.87.87 0 0 1-.87-.77zm-9.11-2a.87.87 0 0 1-.64-1 .86.86 0 0 1 1-.64.86.86 0 0 1 .64 1 .86.86 0 0 1-.83.66zm11.94-3.1a.86.86 0 0 1 .85-.86.85.85 0 0 1 .87.85.87.87 0 0 1-.85.87.87.87 0 0 1-.88-.9zm-10.15.3a.87.87 0 0 1 .47-1.13.86.86 0 0 1 1.12.47.85.85 0 0 1-.46 1.12.77.77 0 0 1-.33.07.87.87 0 0 1-.82-.57zm7.46.24a.87.87 0 0 1-.73-1 .86.86 0 0 1 1-.73.86.86 0 0 1 .73 1 .85.85 0 0 1-.85.74h-.12zm-3.31-.32a.87.87 0 0 1-.85-.87.85.85 0 0 1 .87-.85.86.86 0 0 1 .85.86.87.87 0 0 1-.86.86zm9.43-.53a.86.86 0 0 1 .41-1.14.86.86 0 0 1 1.15.41.86.86 0 0 1-.41 1.14.85.85 0 0 1-.37.09.88.88 0 0 1-.8-.54zm2.82-1.94a.85.85 0 0 1-.33-1.17.86.86 0 0 1 1.17-.33.86.86 0 0 1 .33 1.17.88.88 0 0 1-.76.44.82.82 0 0 1-.42-.15zm1.25-3.19a.85.85 0 0 1-.83-.89.85.85 0 0 1 .89-.83.86.86 0 0 1 .83.89.87.87 0 0 1-.86.83zm-1.31-4a.86.86 0 0 1 .53-1.1.88.88 0 0 1 1.1.53.87.87 0 0 1-.53 1.1 1 1 0 0 1-.28.05.87.87 0 0 1-.83-.58zm-1.58-2.68a.87.87 0 0 1 .11-1.22.86.86 0 0 1 1.21.11.86.86 0 0 1-.1 1.21.84.84 0 0 1-.56.2.88.88 0 0 1-.67-.3zm-2.37-2.19a.84.84 0 0 1-.18-1.2.85.85 0 0 1 1.2-.19.87.87 0 0 1 .18 1.21.86.86 0 0 1-.69.35.87.87 0 0 1-.52-.17zm-2.82-1.75a.86.86 0 0 1-.35-1.17.86.86 0 0 1 1.16-.35.86.86 0 0 1 .35 1.17.84.84 0 0 1-.75.45.87.87 0 0 1-.42-.1zm-3-1.51a.86.86 0 0 1-.42-1.14.87.87 0 0 1 1.15-.42.87.87 0 0 1 .41 1.15.87.87 0 0 1-.78.49.76.76 0 0 1-.41-.08zm-3.17-1.7a.87.87 0 0 1-.2-1.21.86.86 0 0 1 1.2-.19.85.85 0 0 1 .2 1.2.87.87 0 0 1-.7.36.93.93 0 0 1-.55-.16zm-2.3-3.28a.85.85 0 0 1 .68-1 .86.86 0 0 1 1 .69.86.86 0 0 1-.69 1h-.16a.87.87 0 0 1-.88-.69zm1.22-2.69a.86.86 0 0 1-.16-1.21.85.85 0 0 1 1.2-.16.85.85 0 0 1 .17 1.2.87.87 0 0 1-.69.34.85.85 0 0 1-.57-.17zm2.48-2.36a.86.86 0 0 1 .49-1.11.84.84 0 0 1 1.11.49.85.85 0 0 1-.49 1.11.85.85 0 0 1-.31.06.85.85 0 0 1-.85-.55zm3.3-1a.85.85 0 0 1 .74-1 .86.86 0 0 1 1 .74.87.87 0 0 1-.74 1h-.11a.85.85 0 0 1-.94-.7zm3.41-.4a.87.87 0 0 1 .76-1 .88.88 0 0 1 1 .76.86.86 0 0 1-.76 1h-.1a.86.86 0 0 1-.95-.72zm3.42-.44a.86.86 0 0 1 .68-1 .86.86 0 0 1 1 .68.86.86 0 0 1-.68 1h-.17a.86.86 0 0 1-.88-.64zm3.35-.78a.86.86 0 0 1 .5-1.11.86.86 0 0 1 1.11.49.86.86 0 0 1-.49 1.11.84.84 0 0 1-.31 0 .87.87 0 0 1-.86-.45zm3.13-1.43a.86.86 0 0 1 .16-1.21.86.86 0 0 1 1.2.15.86.86 0 0 1-.15 1.21.87.87 0 0 1-.53.18.88.88 0 0 1-.74-.29zm2.55-2.32a.86.86 0 0 1-.25-1.19.85.85 0 0 1 1.19-.24.85.85 0 0 1 .25 1.19.86.86 0 0 1-.72.39.85.85 0 0 1-.53-.11zm1.59-3a.86.86 0 0 1-.73-1 .86.86 0 0 1 1-.74.86.86 0 0 1 .74 1 .86.86 0 0 1-.85.74h-.12zm-1.2-3.84a.85.85 0 0 1 .45-1.13.86.86 0 0 1 1.13.45.86.86 0 0 1-.45 1.13 1 1 0 0 1-.34.07.87.87 0 0 1-.79-.52zm-1.8-2.52a.86.86 0 0 1 0-1.22.85.85 0 0 1 1.21 0 .86.86 0 0 1 0 1.22.86.86 0 0 1-.6.25.9.9 0 0 1-.6-.29zm-2.55-2.1a.85.85 0 0 1-.2-1.2.86.86 0 0 1 1.2-.2.86.86 0 0 1 .2 1.2.85.85 0 0 1-.7.36.85.85 0 0 1-.49-.2zm-2.82-1.94a.86.86 0 0 1-.22-1.2.85.85 0 0 1 1.19-.22.85.85 0 0 1 .23 1.19.86.86 0 0 1-.71.38.88.88 0 0 1-.48-.19zm-2.84-1.95a.85.85 0 0 1-.22-1.19.84.84 0 0 1 1.19-.23.87.87 0 0 1 .23 1.2.88.88 0 0 1-.72.37.88.88 0 0 1-.47-.19zm-2.84-1.94a.86.86 0 0 1-.22-1.2.84.84 0 0 1 1.19-.22.85.85 0 0 1 .23 1.19.86.86 0 0 1-.72.38.88.88 0 0 1-.47-.19zm-2.84-2a.87.87 0 0 1-.23-1.2.87.87 0 0 1 1.2-.22.87.87 0 0 1 .23 1.2.88.88 0 0 1-.72.37.87.87 0 0 1-.52-.14zm-2.84-1.94a.86.86 0 0 1-.22-1.2.84.84 0 0 1 1.19-.22.85.85 0 0 1 .22 1.19.86.86 0 0 1-.71.38.87.87 0 0 1-.47-.14zm-2.85-2a.86.86 0 0 1-.14-1.21.85.85 0 0 1 1.21-.14.86.86 0 0 1 .14 1.2.85.85 0 0 1-.68.33.89.89 0 0 1-.52-.21zm-2.63-2.46a.87.87 0 0 1 .08-1.21.86.86 0 0 1 1.2.06.86.86 0 0 1-.08 1.21.84.84 0 0 1-.57.21.84.84 0 0 1-.62-.3zm-2-3.19a.86.86 0 0 1 .52-1.1.85.85 0 0 1 1.1.53.86.86 0 0 1-.53 1.1.94.94 0 0 1-.28 0 .85.85 0 0 1-.76-.56zm.44-2.84a.87.87 0 0 1-.59-1.07.86.86 0 0 1 1.06-.59.85.85 0 0 1 .59 1.06.86.86 0 0 1-.83.63zm1.43-3.11a.86.86 0 0 1 0-1.21.87.87 0 0 1 1.22 0 .86.86 0 0 1 0 1.22.86.86 0 0 1-.59.24.86.86 0 0 1-.57-.26zm2.67-2.17a.85.85 0 0 1 .28-1.18.85.85 0 0 1 1.18.28.85.85 0 0 1-.28 1.18.83.83 0 0 1-.45.13.86.86 0 0 1-.67-.44zm3-1.77a.87.87 0 0 1 .26-1.19.87.87 0 0 1 1.19.26.86.86 0 0 1-.26 1.19.86.86 0 0 1-.46.14.86.86 0 0 1-.72-.47zm2.8-2a.85.85 0 0 1 0-1.21.85.85 0 0 1 1.21 0 .87.87 0 0 1 0 1.22.89.89 0 0 1-.62.26.81.81 0 0 1-.58-.34zm2.26-2.59a.86.86 0 0 1-.28-1.18.86.86 0 0 1 1.18-.29.87.87 0 0 1 .28 1.19.86.86 0 0 1-.73.41.84.84 0 0 1-.45-.17zm1.63-3a.86.86 0 0 1-.54-1.09.87.87 0 0 1 1.09-.54.86.86 0 0 1 .54 1.09.87.87 0 0 1-.81.59.94.94 0 0 1-.23-.12zm.92-3.31a.85.85 0 0 1-.77-.94.86.86 0 0 1 .93-.78.87.87 0 0 1 .78.94.87.87 0 0 1-.86.78h-.08zm-.84-4.18a.86.86 0 0 1 .74-1 .86.86 0 0 1 1 .74.85.85 0 0 1-.73 1h-.12a.86.86 0 0 1-.92-.81zm-.85-3.07a.86.86 0 0 1 .45-1.14.85.85 0 0 1 1.13.45.87.87 0 0 1-.45 1.13.85.85 0 0 1-.35.08.87.87 0 0 1-.77-.59zm-1.67-2.74a.87.87 0 0 1 .14-1.21.87.87 0 0 1 1.21.14.87.87 0 0 1-.14 1.21.82.82 0 0 1-.53.19.84.84 0 0 1-.67-.4zm-2.28-2.38a.87.87 0 0 1 0-1.22.85.85 0 0 1 1.21 0 .86.86 0 0 1 .06 1.21.86.86 0 0 1-.64.28.86.86 0 0 1-.63-.34zm-2.59-2.21a.86.86 0 0 1-.12-1.21.86.86 0 0 1 1.21-.12.87.87 0 0 1 .11 1.21.85.85 0 0 1-.66.31.9.9 0 0 1-.53-.26zM174 91.25a.86.86 0 0 1-.06-1.21.86.86 0 0 1 1.22-.06.85.85 0 0 1 .06 1.21.84.84 0 0 1-.64.28.86.86 0 0 1-.58-.22zm-2.5-2.6a.87.87 0 0 1 .19-1.21.86.86 0 0 1 1.2.19.85.85 0 0 1-.19 1.2.8.8 0 0 1-.5.17.86.86 0 0 1-.69-.35zm-1.41-3.58a.86.86 0 0 1 .76-.95.86.86 0 0 1 1 .76.86.86 0 0 1-.76 1h-.1a.86.86 0 0 1-.89-.81zm1-2.67a.85.85 0 0 1-.42-1.14.86.86 0 0 1 1.14-.42.86.86 0 0 1 .42 1.14.85.85 0 0 1-.78.5.78.78 0 0 1-.3-.08zm1.8-2.92a.87.87 0 0 1 .1-1.22.88.88 0 0 1 1.22.11.87.87 0 0 1-.11 1.21.89.89 0 0 1-.55.2.86.86 0 0 1-.61-.3z" fill="#f4c236"/><circle class="cls-13" cx="174.1" cy="124.35" r="3.52" transform="rotate(-62.65 174.112 124.35)"/><g opacity=".5"><circle class="cls-22" cx="233.58" cy="239.69" r="1.73"/><circle class="cls-22" cx="242.22" cy="248.33" r="1.3"/><circle class="cls-22" cx="147.16" cy="244.44" r=".97"/><circle class="cls-22" cx="121.67" cy="246.17" r=".97"/></g><circle class="cls-22" cx="198.32" cy="236.04" r="1"/><circle class="cls-22" cx="214.6" cy="230.14" r=".75"/><circle class="cls-22" cx="153.19" cy="221.86" r=".56"/><circle class="cls-22" cx="167.97" cy="229.31" r=".56"/><circle class="cls-23" cx="147.19" cy="57.86" r="3.08"/><ellipse class="cls-18" cx="176.23" cy="93.56" rx="4.8" ry="6.24"/><ellipse class="cls-18" cx="180.05" cy="90.9" rx="4.8" ry="6.24"/><ellipse class="cls-24" cx="170.42" cy="91.42" rx="4.8" ry="6.24"/><ellipse class="cls-25" cx="169.34" cy="90.69" rx="3.54" ry="4.6"/><ellipse class="cls-24" cx="175.53" cy="82.84" rx="4.8" ry="6.24"/><ellipse class="cls-24" cx="182.5" cy="88.95" rx="7.37" ry="4.46" transform="rotate(-84.03 182.5 88.951)"/><ellipse class="cls-25" cx="174.88" cy="82.37" rx="3.54" ry="4.6"/><ellipse class="cls-25" cx="180.74" cy="89.46" rx="3.54" ry="4.6"/><circle class="cls-26" cx="168.84" cy="94.16" r=".83"/><circle class="cls-26" cx="171.38" cy="95.17" r=".83"/><circle class="cls-26" cx="174.62" cy="84.91" r=".83"/><circle class="cls-26" cx="177.16" cy="85.93" r=".83"/><circle class="cls-26" cx="179.93" cy="93.23" r=".83"/><circle class="cls-26" cx="182.47" cy="94.25" r=".83"/><path class="cls-27" d="M200.86 61.57c8.71-10.24 12.94-22 12-31.08-9.08.53-20 6.59-28.76 16.83s-12.95 22-12 31.08c9.08-.52 20.05-6.59 28.76-16.83z"/><path class="cls-28" d="M200.86 61.57c8.71-10.24 12.94-22 12-31.08-5.31 13.2-6.15 16.85-14.86 27.09s-26.83 11.78-25.9 20.82c9.08-.52 20.05-6.59 28.76-16.83z"/><circle class="cls-23" cx="203.7" cy="57.77" r="3.08"/><path class="cls-27" d="M205.45 89.49c13.44.47 25.31-3.55 31.82-9.9-6.05-6.78-17.62-11.61-31.06-12.08s-25.31 3.55-31.82 9.9C180.45 84.2 192 89 205.45 89.49z"/><path class="cls-28" d="M205.45 89.49c13.44.47 25.31-3.55 31.82-9.9-15.88 3.86-18.12 5-31.56 4.56s-24.81-13.08-31.31-6.74C180.45 84.2 192 89 205.45 89.49z"/><path class="cls-27" d="M143.91 84.28c-13.09 5.93-22.57 15.42-25.79 24.6 9 3.63 22.4 2.76 35.49-3.18s22.57-15.42 25.79-24.6c-9.01-3.62-22.4-2.75-35.49 3.18z"/><circle class="cls-23" cx="142.62" cy="102.13" r="3.08"/><path class="cls-27" d="M150 58.66c-12-6.15-24.41-7.58-33-4.61 2.58 8.72 11 18 22.95 24.16s24.41 7.58 33 4.61c-2.6-8.71-11.01-18.01-22.95-24.16z"/><path class="cls-27" d="M177.63 50.38c-2.84-14.36-10.05-26-18.4-31.28-5.69 8.1-7.94 21.57-5.09 35.94s10.05 26 18.4 31.28c5.69-8.1 7.94-21.57 5.09-35.94z"/><path class="cls-27" d="M158.11 81.7c1.46-5.06 7.36-10.54 14.89-14.49 6.17.78 9.5 4.12 8 9.18s-7.36 10.54-14.9 14.49c-6.1-.78-9.45-4.12-7.99-9.18z"/><path class="cls-29" d="M99.27 44.24l7.12.09 4.1-5.81 2.11 6.8 6.8 2.11-5.81 4.1.09 7.12-5.7-4.26-6.74 2.29 2.29-6.74-4.26-5.7z"/><path class="cls-29" d="M113.68 59a.34.34 0 0 1-.21-.07l-5.56-4.15-6.56 2.22a.35.35 0 0 1-.35-.08.34.34 0 0 1-.08-.35l2.22-6.57L99 44.44a.34.34 0 0 1 .27-.55l6.93.09 4-5.66a.36.36 0 0 1 .33-.14.34.34 0 0 1 .27.24l2.08 6.58 6.62 2.06a.34.34 0 0 1 .1.61l-5.66 4 .09 6.93a.34.34 0 0 1-.19.31.35.35 0 0 1-.16.09zM108 54a.34.34 0 0 1 .21.07l5.12 3.93-.08-6.42a.34.34 0 0 1 .14-.28l5.24-3.71-6.13-1.9a.34.34 0 0 1-.23-.23l-1.91-6.13-3.71 5.24a.41.41 0 0 1-.29.14l-6.36-.12 3.84 5.14a.34.34 0 0 1 0 .32l-2.06 6.08 6.08-2.06z"/><path class="cls-29" d="M112.61 51.03l7.26 9.87 5.53-8.32-12.79-1.55z"/><path class="cls-29" d="M119.87 61.25a.35.35 0 0 1-.28-.14l-7.27-9.87a.34.34 0 0 1 0-.38.34.34 0 0 1 .34-.17l12.79 1.54a.34.34 0 0 1 .24.53l-5.52 8.33a.34.34 0 0 1-.28.15zm-6.52-9.78l6.51 8.84 4.95-7.46z"/><circle class="cls-30" cx="165.06" cy="41.23" r="3.08"/><circle class="cls-23" cx="150.53" cy="80.71" r="3.08"/><circle class="cls-30" cx="173.76" cy="61.12" r="3.08"/><circle class="cls-30" cx="187.24" cy="73.26" r="3.08"/><circle class="cls-30" cx="134.42" cy="70.26" r="3.08"/><circle class="cls-30" cx="190.32" cy="43.07" r="3.08"/><circle class="cls-30" cx="131.18" cy="94.21" r="3.08"/><circle class="cls-23" cx="203.87" cy="87.43" r="3.08"/><g class="cls-5"><path d="M112.14 165.93a2.64 2.64 0 0 0-2.64-2.64h-16c-3.89 0-3.74-.11-5.6-3.24-4.77-8-14.6-12.94-23.9-11.54a18.85 18.85 0 0 0-9.54 4.17 23.25 23.25 0 0 0-5.77 8.55c-.93 2.14-1.73 7.35-4.82 7.35H28.06a2.64 2.64 0 0 0 0 5.29h21.15a2.64 2.64 0 0 1 2.64 2.64 2.64 2.64 0 0 0 2.64 2.64h5.29a2.64 2.64 0 0 1 2.64 2.64 2.64 2.64 0 0 0 2.64 2.64h18a2.64 2.64 0 0 0 2.64-2.64 2.64 2.64 0 0 1 2.64-2.64h5.29a2.64 2.64 0 0 0 0-5.29 2.64 2.64 0 0 1 0-5.29h15.87a2.64 2.64 0 0 0 2.64-2.64zM73.68 193.79h-12a2.5 2.5 0 1 1 0-5h12a2.5 2.5 0 0 1 0 5zM78.68 203.79h-11a2.5 2.5 0 1 1 0-5h11a2.5 2.5 0 0 1 0 5zM63.68 212.79h-12a2.5 2.5 0 0 1 0-5h12a2.5 2.5 0 0 1 0 5z"/></g><g class="cls-5"><path d="M318.36 167.93c0-1.69-3.13-2.57-4.34-3.71-5.74-5.46-8.7-13-15.39-18.14a46.5 46.5 0 0 0-22.63-9.36c-7.83-.93-16.11.26-22.71 4.57-5.63 3.69-9.63 9.33-14.38 14.1A59.52 59.52 0 0 1 196 172.66c19.78 4.52 39.18 3.2 59.19 3.2a2.64 2.64 0 0 1 2.64 2.64 2.64 2.64 0 0 0 2.64 2.64h5.29a2.64 2.64 0 0 1 2.64 2.64 2.64 2.64 0 0 0 2.64 2.64h18a2.64 2.64 0 0 0 2.64-2.64 2.64 2.64 0 0 1 2.64-2.64h5.29a2.64 2.64 0 1 0 0-5.29 2.64 2.64 0 1 1 0-5.29c4.19 0 8.42.17 12.6 0 1.13 0 3.59.45 4.58-.36s1.58-1.64 1.57-2.27zM279.68 195.79h-12a2.5 2.5 0 0 1 0-5h12a2.5 2.5 0 0 1 0 5z"/><path d="M284.68 187.79h-29a2.5 2.5 0 0 1 0-5h29a2.5 2.5 0 0 1 0 5zM244.68 179.79h-26a2.5 2.5 0 0 1 0-5h26a2.5 2.5 0 0 1 0 5z"/><path d="M231.68 183.79h-26a2.5 2.5 0 0 1 0-5h26a2.5 2.5 0 0 1 0 5zM224.68 175.79h-33a2.5 2.5 0 0 1 0-5h33a2.5 2.5 0 0 1 0 5zM241.68 195.79h-16a2.5 2.5 0 0 1 0-5h16a2.5 2.5 0 0 1 0 5zM299.68 189.79h-12a2.5 2.5 0 0 1 0-5h12a2.5 2.5 0 0 1 0 5z"/></g><path d="M105.62 248.88a7.18 7.18 0 0 1-3.87.83C90.94 249 53 254.22 55 274.34c.89 9.12 34.73 12.72 41.21 16.72 31.87 19.7 69.15 22.09 104.42 18.08 20.19-2.29 40.38-10.55 60.57-12.85 6.65-.76 13.45-1.56 19.54-5.06s40.37-5.69 41.36-14.13c1.34-11.45-35.73-21.68-44.2-25.79s-16.92-8.26-25.94-7.22c2.32 8.78-2.14 18.64-8.38 23.36s-13.79 5.47-21 5.83a279 279 0 0 1-70.07-5.44c-8.59-1.77-15.66-5.88-22.62-12.42-8.05-7.51-21.58-7.97-24.27-6.54z" opacity=".24" fill="#ffcc80"/><g class="cls-8"><path class="cls-9" d="M262.87 71.74c0-13.74 8.34-30 18.64-30s18.64 16.25 18.64 30"/><path class="cls-9" d="M252.16 71.74c0-5.06 4-17 8.94-17s8.94 12 8.94 17M293.88 71.74c0-4.41 6.32-14.82 14.12-14.82s14.12 10.41 14.12 14.82"/></g><path class="cls-32" d="M136.71 257.52a1 1 0 0 1-1-1v-5.69a1 1 0 0 1 2 0v5.69a1 1 0 0 1-1 1z"/><path class="cls-32" d="M144.09 231.86h4.5v3h-4.5a1.5 1.5 0 0 1-1.5-1.5 1.5 1.5 0 0 1 1.5-1.5z" transform="rotate(180 145.585 233.36)"/><path d="M125.44 242.7a9.32 9.32 0 0 0 .48 3 9.18 9.18 0 0 0 2.26 3.64 9.29 9.29 0 0 0 6.6 2.74h4.4a5 5 0 0 0 5-5V231.4a2.81 2.81 0 0 0-2.82-2.81 2.75 2.75 0 0 0-1.18.26 2.68 2.68 0 0 0-.58.36 2.82 2.82 0 0 0-1 1.59l-2.6 11.9z" fill="#eee"/><path d="M128.84 244.4a5.94 5.94 0 0 0 .31 1.89 5.85 5.85 0 0 0 1.44 2.32 5.92 5.92 0 0 0 4.21 1.75h2.81a3.19 3.19 0 0 0 3.19-3.19v-2.77z" fill="#bdbdbd"/><circle class="cls-6" cx="141.32" cy="232.02" r="1"/><path class="cls-35" d="M175.48 265.79h-12.17a6.08 6.08 0 1 1 12.16 0zM193.47 272.79h-9.12a4.56 4.56 0 0 1 9.12 0z"/><ellipse class="cls-5" cx="242.13" cy="253.43" rx="16.43" ry="2.98"/><path d="M237 251.25h-13a1.65 1.65 0 1 1 0-3.3h13a1.65 1.65 0 1 1 0 3.3z" fill="#00822f"/><path class="cls-11" d="M222.38 242.27a3.2 3.2 0 0 0-3.2 3.2 2.48 2.48 0 0 0 2.48 2.48H224v3.3h-7.22a.83.83 0 0 1-.83-.83v-8.08a3.25 3.25 0 0 1 3.08-3.27 3.2 3.2 0 0 1 3.35 3.2z"/><path transform="rotate(-.08 229.008 250.829)" fill="#4771b6" d="M211.18 240.09h14.95v3.4h-14.95z"/><path d="M224.62 253v-9.51h-11.91V253a26.46 26.46 0 0 1 5.95-.79 27 27 0 0 1 5.96.79z" fill="#5f84c3"/><path style="mix-blend-mode:multiply" fill="#e5e5e4" d="M212.72 244.96l-.01-1.47 11.89-.01.01.73-11.89.75z"/><path class="cls-14" d="M211.28 248.49a.78.78 0 0 1 0-1.1l7.45-7.45a.78.78 0 0 1 1.1 0 .78.78 0 0 1 0 1.1l-7.45 7.45a.78.78 0 0 1-1.1 0z"/><path class="cls-12" d="M220.83 247.95v1.24a.83.83 0 0 0 1.65 0v-1.24a.83.83 0 0 0-1.65 0z"/><path class="cls-40" d="M235.79 249.29h5.77l-2.88-14.62-2.89 14.62z"/><path class="cls-40" d="M232.69 236.46c-4.53 0-8.76-.79-10.6-6.14a1.65 1.65 0 0 1 3.13-1.07c1.37 4 4.44 4.05 10.22 3.85 1.06 0 2.15-.08 3.25-.08a1.65 1.65 0 1 1 0 3.3c-1.06 0-2.11 0-3.13.07s-1.93.07-2.87.07z"/><circle class="cls-41" cx="222.5" cy="226.45" r="3.52" transform="rotate(-18.97 222.532 226.49)"/><path class="cls-14" d="M221.36 232.32l5.64-1.94a1.65 1.65 0 0 0-1.07-3.12l-5.64 1.94a1.65 1.65 0 0 0 1.07 3.12z"/><path class="cls-40" d="M238.68 233a7 7 0 0 0-7 7v6a7 7 0 0 0 14.09 0v-5.9a7 7 0 0 0-7.09-7.1z"/><path class="cls-40" d="M239.5 253.25h-13a1.65 1.65 0 0 1 0-3.3h13a1.65 1.65 0 0 1 0 3.3z"/><path class="cls-11" d="M224.85 244.27a3.2 3.2 0 0 0-3.2 3.2 2.48 2.48 0 0 0 2.48 2.48h2.37v3.3h-7.22a.83.83 0 0 1-.83-.83v-8.08a3.25 3.25 0 0 1 3.08-3.27 3.2 3.2 0 0 1 3.32 3.2z"/><path class="cls-12" d="M223.31 249.95v1.24a.83.83 0 0 0 1.65 0v-1.24a.83.83 0 0 0-1.65 0z"/><path class="cls-11" d="M231.63 242.44h14.09v3.52h-14.09z"/><path class="cls-12" d="M234.02 242.44h3.52v3.52h-3.52z"/><path class="cls-40" d="M232 244.1h-.32a1.65 1.65 0 1 1 .13-3.3c3.62.12 7.3-3.09 7.82-4.39a3.82 3.82 0 0 0-.9-.09 1.65 1.65 0 1 1 0-3.3c1.95 0 3.26.58 3.9 1.73a3.51 3.51 0 0 1-.36 3.69A13.41 13.41 0 0 1 232 244.1zm7.85-7.61z"/><circle class="cls-41" cx="228.17" cy="242.31" r="3.52" transform="rotate(-87.83 228.152 242.307)"/><path class="cls-14" d="M231.87 237.81a1.65 1.65 0 0 0-1.71 1.59l-.23 6a1.65 1.65 0 0 0 3.3.13l.23-6a1.65 1.65 0 0 0-1.59-1.72z"/><circle class="cls-14" cx="243.5" cy="206.63" r="2.45" transform="rotate(-77.4 243.483 206.625)"/><path class="cls-40" d="M246.77 224.28l-3.8-15.26-9.95 12.19 13.75 3.07z"/><path class="cls-14" d="M245.4 225.93a2.07 2.07 0 0 1-2-1.45 5 5 0 0 0-9.51 0 2.06 2.06 0 1 1-3.94-1.23 9.11 9.11 0 0 1 17.39 0 2.07 2.07 0 0 1-2 2.68z"/><path class="cls-41" d="M248 221.05l-3.6 3.6a1.86 1.86 0 1 0 2.64 2.64c2.25-2.29.96-6.24.96-6.24zM234.47 224.65l-3.6-3.6s-1.28 4 1 6.24a1.86 1.86 0 1 0 2.64-2.64z"/><circle class="cls-41" cx="238.68" cy="225.97" r="7.05"/><path d="M238.68 221.4a7 7 0 0 0 4-1.24 7 7 0 0 0-8 0 7 7 0 0 0 4 1.24z" fill="#764c2e"/><circle class="cls-11" cx="233.89" cy="224.99" r="1.42"/><circle class="cls-11" cx="239.58" cy="224.99" r="1.42"/><path class="cls-14" d="M241.59 227.83a4.27 4.27 0 0 1-8.54 0z"/><path class="cls-43" d="M225 212.68l6.73 4-2.39 4.06a3.9 3.9 0 0 1-5.34 1.39 3.9 3.9 0 0 1-1.39-5.34z"/><path class="cls-43" d="M225.45 219.7a1 1 0 0 1 .35 1.34l-4.36 7.43a1 1 0 0 1-1.34.35 1 1 0 0 1-.35-1.34l4.36-7.43a1 1 0 0 1 1.34-.35z"/><circle class="cls-41" cx="222.73" cy="225.87" r="1.82"/><path class="cls-5" d="M64.65 237.37c5.47 2.4 12.43 3 19 2.51 2.24-.18 4.46-.41 6.69-.64l2.31-.24 20.63-2.15c4.51-.47 5.09-5 .78-6s-11.69-3.51-12.31-3.51H70.33s-13.23 6.72-5.68 10.03z"/><path class="cls-5" d="M69.68 235.46c4.15 1.82 9.42 2.29 14.4 1.9 1.7-.13 3.38-.31 5.07-.48l1.75-.18 15.65-1.63c3.42-.36 3.86-3.77.59-4.57s-8.87-2.66-9.34-2.66H74s-10 5.11-4.32 7.62z"/><g clip-path="url(#clip-path-2)"><path class="cls-2" d="M101.52 266.87c1.12-.69 1.75-1.46 1.75-2.27 0-3-8.82-5.51-19.69-5.51s-19.69 2.47-19.69 5.51 8.76 5.5 19.59 5.51c0 2 5.7 3.57 12.74 3.57s12.74-1.6 12.74-3.57c.04-1.43-3.05-2.67-7.44-3.24z"/><ellipse class="cls-2" cx="71.31" cy="273.68" rx="6.6" ry="1.85"/><path class="cls-45" d="M79.62 262.34h1.43v-26.55H74.6v20.81M85.36 262.34h-.72v-26.55h7.17v22.25"/><path class="cls-6" d="M84.64 262.34v-8.61h7.17V258.04l12.6 4.31-5.05.9-.73 1.61-3.61.17-2.17 2.33-8.21-5.02zM81.05 262.34v-8.61h-7.17V258.04l-12.75 4.31 4.96.9.69 1.61 3.59.17 2.32 2.33 8.36-5.02z"/><path d="M96.12 221.87a12.91 12.91 0 1 0-25.83 0v21.82h25.83z" fill="#29b6f6"/><path class="cls-45" d="M70.29 221.87v21.82h12.33l-.1-33.9H78.3a12.48 12.48 0 0 0-8.01 12.08z"/><path class="cls-45" d="M96.12 221.52v21.82H81.66l.1-33.9h6a12.78 12.78 0 0 1 8.36 12.08z"/><path class="cls-6" d="M87.76 209.39h-6 .79a13 13 0 0 1 8.54 12.16v21.82h5v-21.82a12.86 12.86 0 0 0-8.33-12.16z" opacity=".2"/><path class="cls-14" d="M69.57 243.69a.72.72 0 0 1 .72-.72h26.55a.72.72 0 0 1 .72.72.72.72 0 0 1-.72.72H70.29a.72.72 0 0 1-.72-.72z"/><path class="cls-6" d="M70.29 233.64h25.83v-4.2a.43.43 0 0 1 .06-.11H70a1.88 1.88 0 0 1 .33.11z"/><path d="M78.9 233.64h5.74v-4.3H78.9v4.3z" fill="#ffce00"/><path class="cls-45" d="M91.29 202.33a8.77 8.77 0 0 1-17.54 0c0-4.84 3.93-13.54 8.77-13.54s8.77 8.7 8.77 13.54z"/><ellipse class="cls-14" cx="82.23" cy="202.95" rx="6.66" ry="5.37"/><path class="cls-6" transform="rotate(180 82.49 195.26)" d="M74.6 194.18h15.78v2.15H74.6z"/><ellipse class="cls-6" cx="82.23" cy="195.78" rx="6.66" ry="5.37"/><ellipse id="_Clipping_Path_2" data-name="&lt;Clipping Path&gt;" class="cls-2" cx="82.23" cy="195.06" rx="5" ry="4.03"/><g clip-path="url(#clip-path-3)"><path class="cls-14" d="M86.78 199.92h2.74l-7.18-9.32h-2.73l7.17 9.32zM83.92 199.92h1.29l-7.17-9.32h-1.3l7.18 9.32z"/></g><circle class="cls-6" cx="79" cy="202.02" r=".93"/><circle class="cls-6" cx="84.78" cy="201.98" r=".93"/><path class="cls-6" d="M82.48 205.66a.93.93 0 1 1-1.86 0z"/><path class="cls-43" d="M81.55 204.74a1.63 1.63 0 0 1-1.63-1.64 1.63 1.63 0 0 1 1.64-1.63 1.63 1.63 0 0 1 1.63 1.64 1.63 1.63 0 0 1-1.64 1.63z"/><path class="cls-45" d="M68.18 242.5l-6.46-.09c.34-25.28 9.82-27.87 11.71-28.13l.89 6.4a.82.82 0 0 0 .22 0c-.06-.02-6.09 2.02-6.36 21.82z"/><path class="cls-50" d="M65 242.46a1.29 1.29 0 0 1 1.25-1.28 3.82 3.82 0 0 1 4 3.63 1.23 1.23 0 1 1-2.46.09 1.38 1.38 0 0 0-1.43-1.26 1.3 1.3 0 0 1-1.36-1.18z"/><path class="cls-50" d="M61.21 242.85a3.33 3.33 0 0 1 6.65-.23l.14 3.75a3.33 3.33 0 0 1-6.65.23l-.14-3.75z"/><path class="cls-14" d="M59.83 240.8a1.59 1.59 0 0 1 1.56-1.54l5.82-.22a1.51 1.51 0 0 1 1.57 1.42 1.47 1.47 0 0 1-1.4 1.54l-5.88.22a1.6 1.6 0 0 1-1.67-1.41z"/><path class="cls-45" d="M97.81 242.5c-.26-19.11-6.09-21.81-6.14-21.82l.89-6.4c1.9.26 11.37 2.85 11.71 28.13z"/><path d="M97.81 242.5c-.26-19.11-6.09-21.81-6.14-21.82l.89-6.4c1.9.26 11.37 2.85 11.71 28.13z" opacity=".2" fill="#231f20"/><path class="cls-50" d="M101 242.46a1.29 1.29 0 0 0-1.25-1.28 3.82 3.82 0 0 0-4 3.63 1.23 1.23 0 1 0 2.46.09 1.38 1.38 0 0 1 1.43-1.26 1.3 1.3 0 0 0 1.34-1.19z"/><path class="cls-50" d="M104.78 242.85a3.33 3.33 0 0 0-6.65-.23l-.13 3.74a3.33 3.33 0 0 0 6.65.23l.14-3.75a.05.05 0 0 1-.01.01z"/><path class="cls-14" d="M106.16 240.8a1.59 1.59 0 0 0-1.56-1.54l-5.82-.26a1.51 1.51 0 0 0-1.57 1.42 1.47 1.47 0 0 0 1.4 1.58l5.88.22a1.6 1.6 0 0 0 1.67-1.41z"/></g></g></g></svg>