<svg xmlns="http://www.w3.org/2000/svg" xmlns:xlink="http://www.w3.org/1999/xlink" width="360.92" height="360.92"><defs><style>.cls-1,.cls-78,.cls-79,.cls-81{fill:none}.cls-2,.cls-42{fill:#81d4fa}.cls-2,.cls-3,.cls-4{opacity:.35}.cls-3{fill:url(#New_Gradient_Swatch_5)}.cls-4{fill:url(#New_Gradient_Swatch_5-2)}.cls-5{fill:#a66d40}.cls-7{fill:#0ea7dd}.cls-9{fill:#231f20}.cls-10{opacity:.1}.cls-14{fill:#ee3c39}.cls-15{fill:#332e2e}.cls-16{fill:#f9ce1d}.cls-17{fill:#774d2e}.cls-18{fill:#fadcbc}.cls-20{fill:#424242}.cls-22{fill:#fff}.cls-24{fill:#dedede}.cls-26{fill:#cfcfcf}.cls-38{fill:#29b6f6}.cls-41{fill:#80deea}.cls-57{fill:#eee}.cls-69{fill:#e53935}.cls-70{fill:#fb8c00}.cls-71{fill:#cc2027}.cls-72{fill:#f57c00}.cls-73{fill:#ffcc80}.cls-76{fill:#c62828}.cls-78,.cls-79{stroke:#f7fffa;stroke-width:2.87px}.cls-78,.cls-79,.cls-81{stroke-miterlimit:10}.cls-78{stroke-dasharray:4.33 38.23}.cls-79{stroke-linecap:round;stroke-dasharray:1.27 38.23}.cls-80{fill:#2087cc}.cls-81{stroke:#ef6c00;stroke-width:.94px}.cls-83{fill:#35b0e5}.cls-84{fill:#be8f68}.cls-85{fill:#333}.cls-89{fill:#ef6c00}.cls-90{fill:#fce68d}.cls-91{fill:#1976d2}.cls-92{fill:#00b2ee}.cls-93{fill:#1565c0}.cls-94{fill:#90caf9}.cls-95{fill:#4e342e}.cls-96{fill:#212121}.cls-100{fill:#cc372c}.cls-104{fill:#00acc1}.cls-105{fill:#deac78}</style><linearGradient id="New_Gradient_Swatch_5" x1="123.57" y1="147.2" x2="130.11" y2="147.2" gradientUnits="userSpaceOnUse"><stop offset="0" stop-color="#eee"/><stop offset="1" stop-color="#cfcfcf"/></linearGradient><linearGradient id="New_Gradient_Swatch_5-2" x1="162.4" y1="150.8" x2="168.95" y2="150.8" xlink:href="#New_Gradient_Swatch_5"/><clipPath id="clip-path"><circle class="cls-1" cx="606.46" cy="180.46" r="180.46"/></clipPath><clipPath id="clip-path-2"><circle class="cls-1" cx="-298.54" cy="180.46" r="180.46"/></clipPath><clipPath id="clip-path-3"><circle class="cls-1" cx="180.46" cy="180.46" r="180.46"/></clipPath><linearGradient id="linear-gradient" x1="15.9" y1="274.14" x2="355.91" y2="274.14" gradientUnits="userSpaceOnUse"><stop offset=".01" stop-color="#fff"/><stop offset="1" stop-color="#eee"/></linearGradient><linearGradient id="New_Gradient_Swatch_5-3" x1="184.4" y1="168.67" x2="217.05" y2="166.46" xlink:href="#New_Gradient_Swatch_5"/><linearGradient id="New_Gradient_Swatch_5-4" x1="163.65" y1="88.63" x2="164.6" y2="106.33" xlink:href="#New_Gradient_Swatch_5"/><linearGradient id="linear-gradient-2" x1="160.55" y1="96.9" x2="168.61" y2="119.99" xlink:href="#linear-gradient"/><linearGradient id="linear-gradient-3" x1="167.85" y1="150.74" x2="179.64" y2="150.14" xlink:href="#linear-gradient"/><linearGradient id="linear-gradient-4" x1="149.02" y1="102.21" x2="136.85" y2="117.77" xlink:href="#linear-gradient"/><linearGradient id="linear-gradient-5" x1="121.84" y1="158.32" x2="260.51" y2="158.32" xlink:href="#linear-gradient"/><linearGradient id="New_Gradient_Swatch_5-5" x1="133.33" y1="162.78" x2="160.39" y2="162.78" xlink:href="#New_Gradient_Swatch_5"/><linearGradient id="New_Gradient_Swatch_5-6" x1="154.96" y1="198.18" x2="144.89" y2="177.19" xlink:href="#New_Gradient_Swatch_5"/><linearGradient id="linear-gradient-6" x1="140.99" y1="188.7" x2="138.16" y2="179.02" gradientUnits="userSpaceOnUse"><stop offset="0" stop-color="#cfcfcf"/><stop offset=".99" stop-color="#212121"/></linearGradient><linearGradient id="New_Gradient_Swatch_6" x1="149.41" y1="161.9" x2="156.04" y2="166.24" gradientUnits="userSpaceOnUse"><stop offset=".02" stop-color="#fff"/><stop offset=".52" stop-color="#eee"/><stop offset="1" stop-color="#cfcfcf"/></linearGradient><linearGradient id="linear-gradient-7" x1="133.33" y1="160.22" x2="160.39" y2="160.22" gradientUnits="userSpaceOnUse"><stop offset=".01" stop-color="#fff"/><stop offset="1" stop-color="#80deea"/></linearGradient><linearGradient id="linear-gradient-8" x1="130.09" y1="161.79" x2="157.15" y2="161.79" xlink:href="#linear-gradient"/><clipPath id="clip-path-4"><path id="_Clipping_Path_" data-name="&lt;Clipping Path&gt;" class="cls-2" d="M157.16 161.79c0 6.55-6.06 11.86-13.53 11.86a15.16 15.16 0 0 1-2.47-.2 14.73 14.73 0 0 1-3-.81c-4.75-1.84-8.06-6-8.06-10.84a11.16 11.16 0 0 1 4-8.44 14.51 14.51 0 0 1 9.5-3.41 13.8 13.8 0 0 1 12.18 6.69 10.6 10.6 0 0 1 1.38 5.15z"/></clipPath><linearGradient id="linear-gradient-9" x1="156.42" y1="156.99" x2="156.52" y2="177.03" xlink:href="#linear-gradient-7"/><linearGradient id="linear-gradient-10" x1="142.57" y1="154.46" x2="142.57" y2="170.55" xlink:href="#linear-gradient-7"/><linearGradient id="linear-gradient-11" x1="143.48" y1="146.95" x2="147.75" y2="154.73" xlink:href="#linear-gradient-7"/><linearGradient id="linear-gradient-12" x1="128.93" y1="156.69" x2="128.18" y2="166.82" xlink:href="#linear-gradient-7"/><linearGradient id="New_Gradient_Swatch_5-7" x1="124.68" y1="149.54" x2="131.66" y2="149.54" xlink:href="#New_Gradient_Swatch_5"/><linearGradient id="linear-gradient-13" x1="127.85" y1="144.63" x2="127.54" y2="150.06" xlink:href="#linear-gradient-7"/><clipPath id="clip-path-5"><ellipse id="_Ellipse_" data-name="&lt;Ellipse&gt;" class="cls-3" cx="126.84" cy="147.2" rx="3.27" ry="3.49"/></clipPath><linearGradient id="linear-gradient-14" x1="130.25" y1="146.05" x2="130.28" y2="151.61" xlink:href="#linear-gradient-7"/><linearGradient id="linear-gradient-15" x1="126.41" y1="145.34" x2="126.41" y2="149.81" xlink:href="#linear-gradient-7"/><linearGradient id="linear-gradient-16" x1="126.66" y1="143.26" x2="127.85" y2="145.42" xlink:href="#linear-gradient-7"/><linearGradient id="linear-gradient-17" x1="122.62" y1="145.96" x2="122.42" y2="148.77" xlink:href="#linear-gradient-7"/><linearGradient id="linear-gradient-18" x1="118.74" y1="225.11" x2="122.86" y2="225.11" xlink:href="#linear-gradient"/><linearGradient id="linear-gradient-19" x1="125.67" y1="236.03" x2="127.43" y2="236.03" xlink:href="#linear-gradient"/><linearGradient id="linear-gradient-20" x1="113.27" y1="229.79" x2="115.62" y2="229.79" xlink:href="#linear-gradient"/><linearGradient id="New_Gradient_Swatch_5-9" x1="200.59" y1="223.86" x2="202.36" y2="223.86" xlink:href="#New_Gradient_Swatch_5"/><linearGradient id="New_Gradient_Swatch_5-10" x1="163.52" y1="153.14" x2="170.49" y2="153.14" xlink:href="#New_Gradient_Swatch_5"/><linearGradient id="linear-gradient-21" x1="166.68" y1="148.23" x2="166.37" y2="153.66" xlink:href="#linear-gradient-7"/><clipPath id="clip-path-6"><ellipse id="_Ellipse_2" data-name="&lt;Ellipse&gt;" class="cls-4" cx="165.67" cy="150.8" rx="3.27" ry="3.49"/></clipPath><linearGradient id="linear-gradient-22" x1="169.09" y1="149.65" x2="169.11" y2="155.21" xlink:href="#linear-gradient-7"/><linearGradient id="linear-gradient-23" x1="165.24" y1="148.94" x2="165.24" y2="153.41" xlink:href="#linear-gradient-7"/><linearGradient id="linear-gradient-24" x1="165.49" y1="146.86" x2="166.68" y2="149.02" xlink:href="#linear-gradient-7"/><linearGradient id="linear-gradient-25" x1="161.46" y1="149.56" x2="161.25" y2="152.38" xlink:href="#linear-gradient-7"/><linearGradient id="New_Gradient_Swatch_6-2" x1="220.61" y1="139.87" x2="220.61" y2="159.36" xlink:href="#New_Gradient_Swatch_6"/><linearGradient id="New_Gradient_Swatch_5-12" x1="209.15" y1="150.75" x2="226.42" y2="150.75" xlink:href="#New_Gradient_Swatch_5"/><linearGradient id="New_Gradient_Swatch_3" x1="179.97" y1="47.94" x2="190.7" y2="67.1" gradientTransform="matrix(.96 -.31 0 1 7.22 60.77)" gradientUnits="userSpaceOnUse"><stop offset="0" stop-color="#eee"/><stop offset="1" stop-color="#bdbdbd"/></linearGradient><clipPath id="clip-path-7"><rect id="_Clipping_Path_2" data-name="&lt;Clipping Path&gt;" class="cls-5" x="218.68" y="248.79" width="6" height="8" rx="2.79" ry="2.79"/></clipPath><clipPath id="clip-path-8"><path id="_Rectangle_" data-name="&lt;Rectangle&gt;" class="cls-1" transform="rotate(90 226.175 269.785)" d="M215.18 263.29h22v13h-22z"/></clipPath><clipPath id="clip-path-9"><path class="cls-1" d="M227.68 236.79h-7v51c0 6.06 5.44 11 11.5 11s11.5-4.93 11.5-11v-6h-7v6a4.5 4.5 0 1 1-9 0z"/></clipPath><clipPath id="clip-path-10"><path id="_Rectangle_2" data-name="&lt;Rectangle&gt;" class="cls-1" transform="rotate(180 217.675 262.785)" d="M203.68 255.79h28v14h-28z"/></clipPath><clipPath id="clip-path-11"><path class="cls-1" d="M243.68 264.79v-7H194c-6.06 0-11 5.44-11 11.5s4.93 11.5 11 11.5h5.64v-7H194a4.5 4.5 0 1 1 0-9z"/></clipPath></defs><g clip-path="url(#clip-path)" id="Art"><path class="cls-7" d="M126.68-144.21h1027v578h-1027z"/><path class="cls-9" d="M1152.67 15.97L728.6 70.78l-221.04.41-365.12-42.33-13.45-171.07h1023.68V15.97z" opacity=".05"/><g class="cls-10"><path class="cls-9" d="M352.37 98.79a11.31 11.31 0 0 1 11.31 11.31v48.69h-22v-49.31a10.69 10.69 0 0 1 10.69-10.69z"/></g><path class="cls-7" d="M502.63 135.66l-156.29 23.09-9.59 17.54 165.88-23.18v-17.45z"/></g><g id="UI"><g class="cls-10" clip-path="url(#clip-path-2)"><path class="cls-9" d="M41.66 265.31c.59 29.71-39.27 54.16-97.57 75-34.51 12.35-75.45 28.79-123.25 35.57-39.55 5.61-83.23 2.39-128.47 3s-89 5.08-128.84.57c-48.06-5.39-89.53-20.68-124.53-32.07-59-19.21-99.71-42.45-100.3-72.12s39.27-54.16 97.57-75c34.51-12.35 75.45-28.79 123.25-35.57 39.55-5.61 83.23-2.39 128.47-3s89-5.08 128.84-.57c48.06 5.44 89.56 20.74 124.53 32.13 58.95 19.15 99.7 42.4 100.3 72.06z"/></g><g clip-path="url(#clip-path-3)"><circle class="cls-7" cx="180.46" cy="180.46" r="180.46"/><g class="cls-10"><path class="cls-9" d="M131.06 234.82L66.18 331c-6.22 9.21-20.64 9.21-26.85 0l-64.88-96.16a13.91 13.91 0 0 1 0-15.71l78.3-116.05 78.3 116.05a13.91 13.91 0 0 1 .01 15.69z"/><path class="cls-9" d="M192 215.24l-64.9 96.16c-6.22 9.21-20.64 9.21-26.85 0l-64.88-96.16a13.91 13.91 0 0 1 0-15.71l78.3-116.05L192 199.53a13.91 13.91 0 0 1 0 15.71zM379.58 243.37l-64.88 96.15c-6.22 9.21-20.64 9.21-26.85 0L223 243.37a13.91 13.91 0 0 1 0-15.71l78.3-116.05 78.3 116.05a13.91 13.91 0 0 1-.02 15.71z"/></g><path d="M89.87 175a1.43 1.43 0 0 1-.71-2.67 116.34 116.34 0 0 0 12-8 1.43 1.43 0 0 1 1.75 2.26 116.85 116.85 0 0 1-12.36 8.27 1.43 1.43 0 0 1-.68.14z" fill="#c62522"/><path class="cls-14" d="M95.61 197.07a1.43 1.43 0 0 1-1.38-1.07l-2.8-10.9a1.43 1.43 0 1 1 2.77-.71l2.8 10.89a1.43 1.43 0 0 1-1 1.72 1.41 1.41 0 0 1-.39.07z"/><path class="cls-15" d="M102.11 195.44a2.77 2.77 0 0 1-2 3.37 2.14 2.14 0 0 1-2.61-1.54l-.51-2-2.77.71 1.56 6a.71.71 0 0 0 .87.51l6.77-1.74a2.81 2.81 0 0 0 2.08-3.29 2.77 2.77 0 0 0-3.39-2.02z"/><path class="cls-16" d="M97.69 198l-1 .27a.71.71 0 0 1-.36-1.38l1-.27a.71.71 0 1 1 .36 1.38z"/><path class="cls-14" d="M90.33 185.38l4.84-1.24-5.57-11.63.73 12.87z"/><path class="cls-14" d="M89.24 171.12a6.1 6.1 0 0 0-4.38 7.42l1.27 4.95a6.1 6.1 0 0 0 11.81-3l-1.27-4.95a6.1 6.1 0 0 0-7.43-4.42z"/><path class="cls-15" transform="rotate(-14.45 91.617 180.449)" d="M85.56 178.97h12.19v3.05H85.56z"/><path class="cls-16" transform="rotate(-14.45 97.335 178.97)" d="M96.79 177.5h1.11v3.05h-1.11z"/><circle class="cls-17" cx="83.83" cy="170.8" r="1.66" transform="rotate(-14.45 83.788 170.76)"/><circle class="cls-17" cx="87.48" cy="169.86" r="1.66" transform="rotate(-14.45 87.434 169.82)"/><circle class="cls-17" cx="82.01" cy="171.27" r="1.66" transform="rotate(-14.45 81.968 171.21)"/><circle class="cls-17" cx="85.66" cy="170.33" r="1.66" transform="rotate(-14.45 85.614 170.27)"/><path class="cls-17" d="M89.83 164.67l-8.93 2.3 1.11 4.3 8.93-2.3"/><circle class="cls-18" cx="87.72" cy="165.22" r="6.1" transform="rotate(-14.45 87.704 165.165)"/><circle class="cls-15" cx="89.67" cy="162.91" r="1.23" transform="rotate(-14.45 89.636 162.885)"/><path class="cls-17" d="M92.19 159a3.43 3.43 0 1 0-6.65 1.71 1.14 1.14 0 0 0 2.22-.57 1.14 1.14 0 0 0 2.22-.57 1.14 1.14 0 1 0 2.22-.57z"/><path class="cls-14" d="M96.7 179.16a7.4 7.4 0 0 1-1.15-.09c-4.06-.64-6.75-4.52-6.86-4.68a1.43 1.43 0 0 1 2.36-1.61c0 .06 2.14 3 5 3.47a5 5 0 0 0 3.94-1.2 1.43 1.43 0 1 1 1.75 2.26 8.09 8.09 0 0 1-5.04 1.85z"/><circle class="cls-18" cx="104.59" cy="163.72" r="3.05" transform="rotate(-33.98 104.57 163.708)"/><path d="M102.66 178.42h-.11a.94.94 0 0 1-.83-1l3.54-31.9a.93.93 0 0 1 1-.83.94.94 0 0 1 .83 1l-3.54 31.9a.94.94 0 0 1-.89.83z" fill="#f29312"/><path class="cls-20" d="M102.66 178.42h-.11a.94.94 0 0 1-.83-1l1.56-14.07a.93.93 0 0 1 1-.83.94.94 0 0 1 .83 1l-1.56 14.07a.94.94 0 0 1-.89.83z"/><circle class="cls-18" cx="104.42" cy="163.28" r="2.29" transform="rotate(-33.98 104.4 163.263)"/><path d="M119.4 152.82c.24-2.16-5.76-4.6-13.41-5.45s-14 .21-14.28 2.37z" fill="#bdbdbd"/><path class="cls-22" d="M104.69 166.76l-2.89-4.28a1.43 1.43 0 1 0-2.37 1.6l2.89 4.28a1.43 1.43 0 1 0 2.37-1.6z"/><path class="cls-17" d="M87.71 164.8a8.13 8.13 0 0 0-2.15-5.18 6.1 6.1 0 0 0-.23 11.3 8.15 8.15 0 0 0 2.38-6.12z"/><path class="cls-17" d="M86.71 164.13a8.13 8.13 0 0 0-.66-5.57 6.17 6.17 0 0 0-3.4 10.84 8.35 8.35 0 0 0 4.06-5.27z"/><path class="cls-18" d="M87.87 164l-3.8-2.24s-.22 3.62 2.16 5a1.61 1.61 0 1 0 1.64-2.76z"/><path class="cls-14" d="M80.57 166.15l-5.27-8.51 11.42-.28-6.15 8.79z"/><path class="cls-22" d="M81.23 167.61a1.43 1.43 0 0 1-1.77-2.11l6.26-9.1a1.43 1.43 0 1 1 2.36 1.6l-6.26 9.1a1.42 1.42 0 0 1-.59.51z"/><circle class="cls-22" cx="74.13" cy="156.89" r="1.43" transform="rotate(-24.39 74.128 156.862)"/><path class="cls-18" d="M92.88 162l5.1.15c.51-.13.71.61 0 .8l-5.66 1.46z"/><path class="cls-22" d="M93.79 164.55l-3.75 1a3.53 3.53 0 0 0 3 2.62 5.87 5.87 0 0 0 .75-3.62zM103.45 177.51l-2.89-4.28a1.43 1.43 0 1 0-2.37 1.6l2.89 4.28a1.43 1.43 0 1 0 2.37-1.6z"/><circle class="cls-18" cx="103.35" cy="174.47" r="3.05" transform="rotate(-33.98 103.33 174.44)"/><path d="M347.59 316.83L246 478.52c-21.28 33.86-70.63 33.86-91.9 0L18.07 362.1C7 344.45 41.4 276.74 52.49 259.09l128.2-204a22.85 22.85 0 0 1 38.69 0l128.2 204a54.27 54.27 0 0 1 .01 57.74z" fill="url(#linear-gradient)"/><g class="cls-10"><path transform="rotate(6.78 164.151 333.076)" d="M32.29 300.47h263.66v65.07H32.29z"/><path class="cls-22" d="M291.51 381.29L29 350.07l7.77-65.35 262.55 31.22zM29.79 349.42l261.08 31 7.6-63.88-261.08-31z"/></g><path class="cls-24" d="M129.02 276.37l37.3-26.86 43.43-18.88 8.49-83.07.95-46.26 84.01 169.92-88.73 62.3-69.12-17.81-16.33-39.34z"/><path d="M223.84 196.5a42.76 42.76 0 0 1-5.2 32.72c-10.21 16.41-66.39 21.65-64.33 20.58s69.53-53.3 69.53-53.3z" opacity=".2" fill="#231f20"/><path class="cls-26" d="M227.55 192.22c0 47.41-101.59 72.63-101.59 72.63s-1-1.78-2.69-4.82c-7.23-13.19-26.53-50-26.53-67.18 0-21 14.09-38 14.31-38.3a20.21 20.21 0 0 1-.12-2.12 41.57 41.57 0 0 1 2.47-14.21c-2.12-6.6-1.39-15.36.39-20.51.28-15.26 40.7-44.94 81.78-41.79l.63.05q3.59.29 7.17.87c5.58 12.23 12.73 31.33 12.73 31.33.59 10.31-5 38.21-5 38.21s16.45 16.95 16.45 45.84z"/><path d="M218.72 189.08c0 40.32-70.79 70-92.77 76.4-7.23-13.19-29.22-55.45-29.22-72.63 0-21 14.09-38 14.31-38.3a20.21 20.21 0 0 1-.12-2.12 41.57 41.57 0 0 1 2.47-14.21c-2.12-6.6-1.39-15.36.39-20.51.28-15.26 40.7-44.94 81.78-41.79 15.5 13 13.55 74.52 13.67 75.2a15.3 15.3 0 0 1 3.93 5.34c2.71 5.46 5.56 15.65 5.56 32.62z" fill="url(#New_Gradient_Swatch_5-3)"/><path d="M216.11 108.17S209 89.06 203.37 76.83q-3.58-.58-7.17-.87l-.63-.05c-41.08-3.15-81.5 26.54-81.78 41.79z" fill="url(#New_Gradient_Swatch_5-4)"/><path d="M202.81 124.59l-89.61-4.87c.18-.72.39-1.4.6-2 .28-15.26 40.7-44.94 81.78-41.79 4.69 6.46 35.88 7.43 7.23 48.66z" fill="url(#linear-gradient-2)"/><path d="M132.74 225.56c-34.64-3.55-39.91-34.6-21.69-71l-.12-2.11a54.18 54.18 0 0 1 .57-6.94 34.83 34.83 0 0 1 1.9-7.26c-2.12-6.6-1.39-15.36.39-20.51.28-15.33 41.11-45.18 82.41-41.74-27 4.48-35.27 40.76-35.27 40.76 6.67 5.66 29.19 12.63 26.38 42.39 2.1 1.92 10.47 4.07 10.47 24.63.01 20.69-23.78 46.01-65.04 41.78z" fill="url(#linear-gradient-3)"/><path d="M160.94 116.73s8.3-36.28 35.26-40.73c-41.29-3.43-82.13 26.41-82.41 41.74z" fill="url(#linear-gradient-4)"/><path d="M210.63 152.13c-23 19.8-97.16 14.35-99.58 4.61v-2.2c2.44 9.81 75.18 15.72 98.19-3.43.35-.01 2.07.44 1.39 1.02z" fill="url(#linear-gradient-5)"/><ellipse cx="146.86" cy="162.78" rx="13.53" ry="11.85" fill="url(#New_Gradient_Swatch_5-5)"/><path d="M159.8 178.79c0 6.55-6.35 12.17-13.83 12.17s-13.24-5.62-13.24-12.17a104.64 104.64 0 0 0 13.53 1 122.09 122.09 0 0 0 13.54-1z" fill="url(#New_Gradient_Swatch_5-6)"/><path d="M147.45 190.89a14.31 14.31 0 0 1-1.45.11c-7.48 0-13.24-5.62-13.24-12.17 0 0 1.14.17 2.95.38.18 5.91 5.13 11.02 11.74 11.68z" fill="url(#linear-gradient-6)" opacity=".5"/><ellipse cx="146.86" cy="160.22" rx="13.53" ry="11.85" fill="url(#New_Gradient_Swatch_6)"/><ellipse cx="146.86" cy="160.22" rx="13.53" ry="11.85" fill="url(#linear-gradient-7)"/><path class="cls-38" d="M160.39 160.22c0 6.55-6.06 11.85-13.53 11.85s-13.53-5.31-13.53-11.85l13.52 6.28z"/><ellipse cx="143.62" cy="161.79" rx="13.53" ry="11.85" fill="url(#linear-gradient-8)"/><path id="_Clipping_Path_3" data-name="&lt;Clipping Path&gt;" class="cls-2" d="M157.16 161.79c0 6.55-6.06 11.86-13.53 11.86a15.16 15.16 0 0 1-2.47-.2 14.73 14.73 0 0 1-3-.81c-4.75-1.84-8.06-6-8.06-10.84a11.16 11.16 0 0 1 4-8.44 14.51 14.51 0 0 1 9.5-3.41 13.8 13.8 0 0 1 12.18 6.69 10.6 10.6 0 0 1 1.38 5.15z"/><g clip-path="url(#clip-path-4)"><path class="cls-38" d="M135.24 167.1l13.6-.21 9.64 8.27-29.71.31z"/><path class="cls-41" d="M146.13 154.64l7.67-4.22 8.19 11.11-11.7.34M139.04 154.64l-7.67-4.22-8.18 11.11 11.69.34"/><path class="cls-42" d="M146.27 169.22l7.53 3.95 8.19-11.43-11.7-.02-4.02 7.5z"/><path d="M162.28 156.5a1.45 1.45 0 0 0-.29.09c-1.82.7-11.4 5.12-11.4 5.12l11.69 6.3" fill="url(#linear-gradient-9)"/><path class="cls-42" d="M139.04 168.95l-7.67 4.22-8.18-11.11 11.69-.34"/><path class="cls-41" d="M146.49 154.56l3.91 7.23-3.91 7.24h-7.83l-3.91-7.24 3.91-7.23h7.83z"/><path fill="url(#linear-gradient-10)" d="M146.49 154.56l3.91 7.23-3.91 7.24h-7.83l-3.91-7.24 3.91-7.23h7.83z"/><path fill="url(#linear-gradient-11)" d="M132.74 150.75l5.92 3.81h7.83l11.24-5.02-13.6-2.69-11.39 3.9z"/><path d="M122.9 156.5l11.69 5.22L122.9 168z" fill="url(#linear-gradient-12)"/></g><path d="M131.66 148.56a3.5 3.5 0 1 1-7 0v-1.76h7z" fill="url(#New_Gradient_Swatch_5-7)"/><ellipse cx="127.72" cy="146.85" rx="4.16" ry="4.21" fill="url(#linear-gradient-13)"/><path class="cls-38" d="M131.85 147.38a4.11 4.11 0 0 1-4.58 3.65 4.25 4.25 0 0 1-3.67-3.65z"/><ellipse class="cls-22" cx="126.84" cy="147.2" rx="3.27" ry="3.49"/><ellipse id="_Ellipse_3" data-name="&lt;Ellipse&gt;" class="cls-3" cx="126.84" cy="147.2" rx="3.27" ry="3.49"/><g clip-path="url(#clip-path-5)"><path class="cls-38" d="M124.38 148.85l3.77-.06 2.68 2.29-8.25.09z"/><path class="cls-41" d="M127.4 145.39l2.13-1.17 2.27 3.09-3.25.09M125.43 145.39l-2.13-1.17-2.27 3.09 3.25.09"/><path class="cls-42" d="M127.44 149.44l2.09 1.1 2.27-3.17-3.25-.01-1.11 2.08z"/><path d="M131.88 145.91h-.08c-.51.19-3.16 1.42-3.16 1.42l3.24 1.75" fill="url(#linear-gradient-14)"/><path class="cls-42" d="M125.43 149.36l-2.13 1.18-2.27-3.09 3.25-.09"/><path class="cls-41" d="M127.5 145.37l1.08 2.01-1.08 2.01h-2.17l-1.09-2.01 1.09-2.01h2.17z"/><path fill="url(#linear-gradient-15)" d="M127.5 145.37l1.08 2.01-1.08 2.01h-2.17l-1.09-2.01 1.09-2.01h2.17z"/><path fill="url(#linear-gradient-16)" d="M123.68 144.31l1.65 1.06h2.17l3.12-1.39-3.78-.75-3.16 1.08z"/><path d="M121 145.91l3.24 1.45-3.24 1.75z" fill="url(#linear-gradient-17)"/></g><ellipse cx="120.8" cy="225.11" rx="2.06" ry="2.2" fill="url(#linear-gradient-18)"/><ellipse cx="126.55" cy="236.03" rx=".88" ry=".94" fill="url(#linear-gradient-19)"/><path d="M115.28 230.68a1.12 1.12 0 0 1-1.66 0 1.32 1.32 0 0 1 0-1.78 1.12 1.12 0 0 1 1.66 0 1.32 1.32 0 0 1 0 1.78z" fill="url(#linear-gradient-20)"/><ellipse class="cls-57" cx="158.18" cy="122.4" rx="2.06" ry="2.2"/><ellipse class="cls-57" cx="163.93" cy="133.31" rx=".88" ry=".94"/><path class="cls-57" d="M152.66 128a1.12 1.12 0 0 1-1.66 0 1.32 1.32 0 0 1 0-1.78 1.12 1.12 0 0 1 1.66 0 1.32 1.32 0 0 1 0 1.78z"/><ellipse cx="201.48" cy="223.86" rx=".88" ry=".94" fill="url(#New_Gradient_Swatch_5-9)"/><path class="cls-26" d="M190.21 218.5a1.12 1.12 0 0 1-1.66 0 1.32 1.32 0 0 1 0-1.78 1.12 1.12 0 0 1 1.66 0 1.32 1.32 0 0 1 0 1.78z"/><path d="M170.49 152.16a3.5 3.5 0 1 1-7 0v-1.76h7z" fill="url(#New_Gradient_Swatch_5-10)"/><ellipse cx="166.56" cy="150.45" rx="4.16" ry="4.21" fill="url(#linear-gradient-21)"/><path class="cls-38" d="M170.68 151a4.11 4.11 0 0 1-4.58 3.65 4.25 4.25 0 0 1-3.67-3.65z"/><ellipse class="cls-22" cx="165.67" cy="150.8" rx="3.27" ry="3.49"/><ellipse id="_Ellipse_4" data-name="&lt;Ellipse&gt;" class="cls-4" cx="165.67" cy="150.8" rx="3.27" ry="3.49"/><g clip-path="url(#clip-path-6)"><path class="cls-38" d="M163.21 152.45l3.77-.06 2.68 2.29-8.25.09z"/><path class="cls-41" d="M166.23 148.99l2.13-1.17 2.27 3.09-3.24.09M164.26 148.99l-2.13-1.17-2.27 3.09 3.25.09"/><path class="cls-42" d="M166.27 153.04l2.09 1.1 2.27-3.17-3.24-.01-1.12 2.08z"/><path d="M170.71 149.51h-.08c-.51.19-3.16 1.42-3.16 1.42l3.24 1.75" fill="url(#linear-gradient-22)"/><path class="cls-42" d="M164.26 152.97l-2.13 1.17-2.27-3.09 3.25-.09"/><path class="cls-41" d="M166.33 148.97l1.08 2.01-1.08 2.01h-2.17l-1.09-2.01 1.09-2.01h2.17z"/><path fill="url(#linear-gradient-23)" d="M166.33 148.97l1.08 2.01-1.08 2.01h-2.17l-1.09-2.01 1.09-2.01h2.17z"/><path fill="url(#linear-gradient-24)" d="M162.51 147.91l1.65 1.06h2.17l3.12-1.39-3.78-.75-3.16 1.08z"/><path d="M159.78 149.51L163 151l-3.24 1.75z" fill="url(#linear-gradient-25)"/></g><path d="M229.58 149.75c0 8.33-4.27 15.08-13.15 15.08v-.32L212.09 138s-1.33-.68.52-1.37c2-.77 4.37-1.54 5.15-1.45h.09a15.84 15.84 0 0 1 10.4 8.53 14.17 14.17 0 0 1 1.33 6.04z" fill="url(#New_Gradient_Swatch_6-2)"/><path d="M226.42 150.66c0 6.88-5.24 13.79-10 14.17a35.08 35.08 0 0 0-5.8-12.69l-1.39-1-.08-13.14s1.61-.68 3.47-1.37c7.21 2.03 13.8 7.75 13.8 14.03z" fill="url(#New_Gradient_Swatch_5-12)"/><path class="cls-22" d="M138.45 150.56l.47 3.6 3.37.5-3.37.51-.47 3.59-.48-3.59-3.37-.51 3.37-.5.48-3.6z"/><path d="M184.67 64a9.3 9.3 0 0 0 2.47 3.9c2.53 2.36 6.79.93 5.06-2.22-.89-1.61-3-5-4.41-6.07" opacity=".49" fill="url(#New_Gradient_Swatch_3)"/><path class="cls-24" d="M364.47 290L213.83 529.7a3.76 3.76 0 0 1-6.81-3L273.53 289a3.76 3.76 0 0 0 0-2l-48.42-173.14c-4.2-15 16.14-24 24.43-10.82L364.47 286a3.76 3.76 0 0 1 0 4z"/><path class="cls-69" d="M185.88 64.47l.09-.1a.2.2 0 0 1 0 .1z"/><path class="cls-70" d="M189.88 47.72V48L189 63.72a2.73 2.73 0 0 0-1-.19 2.83 2.83 0 0 0-2 .84 2.79 2.79 0 0 0-2-1.83 3.15 3.15 0 0 0-.74-.09h-.13L182.37 48v-.28a.64.64 0 0 1 .11-.25h7.31a.6.6 0 0 1 .08.13.46.46 0 0 1 .01.12z"/><path class="cls-71" d="M185.88 64.47l.09-.1a.2.2 0 0 1 0 .1z"/><path class="cls-72" d="M189.88 47.72V48L189 63.72a2.73 2.73 0 0 0-1-.19 2.83 2.83 0 0 0-2 .84 2.79 2.79 0 0 0-2-1.83l5.48-14.09.32-.83a.46.46 0 0 1 .08.1z"/><path class="cls-22" d="M186 64.47h-.13l.09-.1a.2.2 0 0 1 .04.1z"/><path class="cls-22" d="M186 64.47h-.13l.09-.1a.2.2 0 0 1 .04.1z"/><path class="cls-73" d="M189.89 47.84a.53.53 0 0 1 0 .17 1 1 0 0 1-.34.43 6 6 0 0 1-3.4.81c-1.93 0-3.52-.55-3.75-1.25a.53.53 0 0 1 0-.17.46.46 0 0 1 0-.11.64.64 0 0 1 .11-.25c.42-.61 1.9-1.06 3.65-1.06s3.23.44 3.65 1.06a.6.6 0 0 1 .08.13.46.46 0 0 1 0 .1.46.46 0 0 1 0 .14z"/><path d="M308.9 323.26c2.78.77 2.94 1.5.66 3.25 2.85-.42 3.25.18 1.79 2.65 2.47-1.46 3.07-1.06 2.65 1.79 1.75-2.28 2.48-2.13 3.25.66.77-2.78 1.5-2.94 3.25-.66-.42-2.85.18-3.25 2.65-1.79-1.46-2.47-1.06-3.07 1.79-2.65-2.28-1.75-2.13-2.48.66-3.25-2.78-.77-2.94-1.5-.66-3.25-2.85.42-3.25-.18-1.79-2.65-2.47 1.46-3.07 1.06-2.65-1.79-1.75 2.28-2.48 2.13-3.25-.66-.77 2.78-1.5 2.94-3.25.66.42 2.85-.18 3.25-2.65 1.79 1.46 2.47 1.06 3.07-1.79 2.65 2.28 1.75 2.12 2.48-.66 3.25z" fill="#ab47bc"/><circle cx="317.25" cy="323.26" r="2.56" fill="#eee" opacity=".5"/><path class="cls-76" d="M322.11 319.26h20.54v8h-20.54a4 4 0 0 1-4-4 4 4 0 0 1 4-4z" transform="rotate(-180 330.385 323.26)"/><path class="cls-76" d="M338.79 333.76a2.24 2.24 0 0 0 2.12-2.95l-1.85-5.55h-4.72l2.32 7a2.24 2.24 0 0 0 2.13 1.5zM330.18 317.77a3.8 3.8 0 0 0 1.1 2.67 3.76 3.76 0 0 0 2.66 1.1h1.9a3.78 3.78 0 0 0 0-7.55h-1.9a3.77 3.77 0 0 0-3.76 3.78zm1.89 0a1.89 1.89 0 0 1 1.88-1.89h1.9a1.89 1.89 0 0 1 0 3.78h-1.9a1.87 1.87 0 0 1-1.88-1.89z"/><path d="M330.38 312.87a2.11 2.11 0 0 1 2.12 2.13v18.65h-4.23V315a2.11 2.11 0 0 1 2.11-2.13z" transform="rotate(90 330.385 323.255)" fill="#6a1b9a" opacity=".5"/><path class="cls-76" d="M317.25 331.69a8.44 8.44 0 0 0 0-16.87"/><path class="cls-69" d="M235.24 90.74l.09-.1a.2.2 0 0 1 0 .1z"/><path class="cls-70" d="M239.25 74v.28l-.9 15.72a2.73 2.73 0 0 0-1-.19 2.81 2.81 0 0 0-.87.14 1.87 1.87 0 0 1-1.88-.46 2.8 2.8 0 0 0-1.2-.67 3.15 3.15 0 0 0-.74-.09h-.13l-.8-14.44v-.28a.64.64 0 0 1 .11-.25h7.31a.6.6 0 0 1 .08.13.46.46 0 0 1 .02.11z"/><path class="cls-71" d="M235.24 90.74l.09-.1a.2.2 0 0 1 0 .1z"/><path class="cls-72" d="M239.25 74v.28l-.9 15.72a2.73 2.73 0 0 0-1-.19 2.81 2.81 0 0 0-.87.14 1.87 1.87 0 0 1-1.88-.46l-.13-.11a1.76 1.76 0 0 1-.52-2l4.92-12.66.32-.83a.46.46 0 0 1 .06.11z"/><path class="cls-22" d="M235.38 90.74h-.13l.09-.1a.2.2 0 0 1 .04.1z"/><path class="cls-22" d="M235.38 90.74h-.13l.09-.1a.2.2 0 0 1 .04.1z"/><path class="cls-73" d="M239.26 74.11a.53.53 0 0 1 0 .17 1 1 0 0 1-.34.43 6 6 0 0 1-3.4.81c-1.93 0-3.52-.55-3.75-1.25a.53.53 0 0 1 0-.17.46.46 0 0 1 0-.11.64.64 0 0 1 .11-.25c.42-.61 1.9-1.06 3.65-1.06s3.23.44 3.65 1.06a.6.6 0 0 1 .08.13.46.46 0 0 1 0 .1.46.46 0 0 1 0 .14z"/><path class="cls-78" d="M335 346.46c4-3.24 8-4.08 11.56-5.3"/><path class="cls-79" d="M335 346.46c4-3.24 8-4.08 11.56-5.3"/><path class="cls-80" d="M335 347.86a1.4 1.4 0 0 1-.88-2.5 28.88 28.88 0 0 1 10.06-4.9c.66-.21 1.3-.41 1.92-.63a1.4 1.4 0 1 1 .92 2.65c-.65.22-1.31.44-2 .65a26.2 26.2 0 0 0-9.16 4.42 1.39 1.39 0 0 1-.86.31z"/><path class="cls-9" d="M234.57 75.65l112.81 262.79"/><path class="cls-81" d="M234.57 75.65l.37.86"/><path stroke-dasharray="1.88 1.88" stroke="#ef6c00" stroke-width=".94" stroke-miterlimit="10" fill="none" d="M235.68 78.24L346.63 336.7"/><path class="cls-81" d="M347.01 337.57l.37.87"/><path class="cls-70" transform="rotate(-23.23 291.014 207.07)" d="M290.5 64.05h.94v285.98h-.94z"/><path class="cls-80" d="M352.53 331.64a1.41 1.41 0 0 1-1.21-.67c-2.17-3.53-11.6-11.14-15-13.77a1.42 1.42 0 1 1 1.72-2.25c.52.4 12.86 9.85 15.74 14.54a1.42 1.42 0 0 1-1.21 2.16z"/><path class="cls-83" d="M348.62 316.36s9.13-5.42 13.46-6.46c0 0-4.58 5.15-2.89 8.25z"/><path class="cls-80" d="M352.14 317.1s5.61-6.16 9.95-7.2c0 0-4.58 5.15-2.89 8.25z"/><circle class="cls-22" cx="361.75" cy="309.9" r="1.39"/><path class="cls-84" d="M348.21 321.36a5.36 5.36 0 0 0 4.14 6.36 5.36 5.36 0 0 0 6.36-4.14 5.36 5.36 0 0 0-4.14-6.36 5.36 5.36 0 0 0-6.36 4.14z"/><path class="cls-85" d="M352 317.31a5.36 5.36 0 0 1 4.76 9.38c-4.69-2.39-4.93-7.14-4.76-9.38zM358.11 329.16a1.86 1.86 0 1 1 3.15 1 3.61 3.61 0 0 1-3.15-1z"/><path class="cls-84" d="M351.68 323.52l3.61-3.33s-.3 6.33-3.51 4.87z"/><rect class="cls-22" x="352.93" y="312.04" width="2.74" height="12.09" rx=".71" ry=".71" transform="rotate(-78.05 354.327 318.084)"/><circle class="cls-85" cx="350.38" cy="321.03" r=".96" transform="rotate(-78.05 350.401 321.035)"/><path class="cls-80" d="M344.71 339.15a5.36 5.36 0 1 0 10.49 2.22l1.53-7.24a5.36 5.36 0 1 0-10.49-2.22z"/><path class="cls-83" d="M348.79 341.33l-.35 3.37-8.26-4.6 4.53-.95 4.08 2.18z"/><path class="cls-83" d="M344.71 339.15a5.36 5.36 0 1 0 10.49 2.22l1.53-7.24a5.36 5.36 0 1 0-10.49-2.22z"/><path class="cls-80" d="M347.12 339.66c-.61 2.9-1.17 5.23 1.73 5.85a5.36 5.36 0 0 0 6.36-4.14l1.53-7.24a5.36 5.36 0 0 0-4.14-6.36c-2.9-.61-3.33 1.75-3.95 4.65z"/><path class="cls-80" d="M355.2 341.37l-1.33 6.8-8.26-4.6 1.51-3.91 8.08 1.71z"/><path class="cls-85" transform="rotate(-78.05 350.261 338.952)" d="M348.89 333.59h2.68v10.73h-2.68z"/><path transform="rotate(-78.05 345.087 337.794)" fill="#fdd500" d="M343.53 337.41h3.06v.75h-3.06z"/><circle class="cls-84" cx="337.14" cy="316.07" r="2.04"/><path class="cls-84" d="M349 321.26l-5.24.38c-.54-.11-.7.66.07.82l5.89 1.25z"/><path class="cls-80" d="M348.43 333.71c-6.08 0-9-2.71-9.18-2.85a1.42 1.42 0 0 1 1.93-2.07c.17.15 3.85 3.36 12 1.52a1.42 1.42 0 1 1 .63 2.76 24.09 24.09 0 0 1-5.38.64z"/><circle class="cls-84" cx="340.22" cy="329.83" r="2.04"/><path class="cls-15" d="M336.61 347.4l-2.38-2.18c-2.2.81-3.55-.43-2.81-1.8 0 0-3 1.12 2.16 5.32 1.23.99 2.42.12 3.03-1.34z"/><path class="cls-78" d="M336.87 349.29c4-3.24 8-4.08 11.56-5.3"/><path class="cls-79" d="M336.87 349.29c4-3.24 8-4.08 11.56-5.3"/><path class="cls-80" d="M336.87 350.69a1.4 1.4 0 0 1-.88-2.5 28.88 28.88 0 0 1 10.06-4.9c.66-.21 1.3-.41 1.92-.63a1.4 1.4 0 1 1 .92 2.65c-.65.22-1.31.44-2 .65a26.2 26.2 0 0 0-9.16 4.42 1.39 1.39 0 0 1-.86.31z"/><path class="cls-15" d="M338.5 350.23l-2.38-2.18c-2.2.81-3.55-.43-2.81-1.8 0 0-3 1.12 2.16 5.32 1.23.99 2.43.13 3.03-1.34z"/><path class="cls-81" d="M349.22 336.53l.83.45"/><path d="M351.79 337.76a18.33 18.33 0 0 0 6.5 1.31" stroke-dasharray="1.9 1.9" stroke="#ef6c00" stroke-width=".94" stroke-miterlimit="10" fill="none"/><path class="cls-81" d="M359.24 339a8.31 8.31 0 0 0 .94-.1 3.5 3.5 0 0 1 .35.87"/><path d="M360.77 341.7c0 2.42-.94 6.44-5.48 12.15-7.46 9.39 0 20.55 8.54 20.11" stroke-dasharray="1.9 1.9" stroke="#ef6c00" stroke-width=".94" stroke-miterlimit="10" fill="none"/><path class="cls-70" d="M363.39 374.44a11.6 11.6 0 0 1-9.58-5.5c-2.41-3.72-3.38-9.72 1.12-15.38 6.64-8.35 5.43-13 5-14.09a18.41 18.41 0 0 1-10.93-2.53l.46-.82a17.32 17.32 0 0 0 10.63 2.37l.31-.06.17.26c.13.21 3.22 5.23-4.9 15.45-4.19 5.27-3.3 10.84-1.06 14.28 2.53 3.9 6.95 5.83 11 4.79l.23.91a9.81 9.81 0 0 1-2.45.32z"/><path class="cls-76" transform="rotate(-77.64 159.779 303.042)" d="M143.43 100.6h32.67v404.87h-32.67z"/><path class="cls-69" transform="rotate(-77.64 159.78 296.512)" d="M143.43 94.07h32.67v404.87h-32.67z"/><path class="cls-20" transform="rotate(-77.64 159.777 297.051)" d="M157.04 94.61h5.44v404.87h-5.44z"/><path class="cls-57" transform="rotate(-77.64 159.777 294.328)" d="M157.04 91.89h5.44v404.87h-5.44z"/><path class="cls-16" d="M94.62 255.35v15.93l-38.08-8v-15.92l38.08 7.99z"/><path class="cls-89" d="M33.69 258.78v15.93l22.85-11.43v-15.99l-22.85 11.49z"/><path class="cls-90" d="M71.77 278.21l-.09-.03-37.99-7.98 22.75-11.37 38.17 7.88-22.84 11.5z"/><path class="cls-16" d="M71.77 266.78v15.92l-38.08-7.99v-15.93l38.08 8z"/><path class="cls-89" d="M71.77 266.78v15.92l22.85-11.42v-16l-22.85 11.5z"/><path class="cls-16" d="M71.77 266.78v15.92l-38.08-7.99v-15.93l38.08 8z"/><path class="cls-89" d="M71.77 266.78v15.92l22.85-11.42v-16l-22.85 11.5z"/><path class="cls-91" d="M59.77 287.43l1.56-.27c3-.54 5-4.19 4.26-8.25s-3.73-6.85-6.78-6.31l-1.61.28z"/><ellipse class="cls-92" cx="58.41" cy="280.15" rx="5.6" ry="7.47" transform="rotate(-10 58.416 280.15)"/><ellipse class="cls-93" cx="58.41" cy="280.15" rx="4.2" ry="5.6" transform="rotate(-10 58.416 280.15)"/><ellipse class="cls-92" cx="58.41" cy="280.15" rx="2.36" ry="3.15" transform="rotate(-10 58.416 280.15)"/><path class="cls-91" d="M43.53 284l1.56-.27c3-.54 5-4.19 4.26-8.25s-3.73-6.85-6.78-6.31l-1.61.28z"/><ellipse class="cls-92" cx="42.16" cy="276.76" rx="5.6" ry="7.47" transform="rotate(-10 42.184 276.772)"/><ellipse class="cls-93" cx="42.16" cy="276.76" rx="4.2" ry="5.6" transform="rotate(-10 42.184 276.772)"/><ellipse class="cls-92" cx="42.16" cy="276.76" rx="2.36" ry="3.15" transform="rotate(-10 42.184 276.772)"/><path class="cls-16" d="M147.93 266.69v15.93l-38.08-8V258.7l38.08 7.99z"/><path class="cls-89" d="M87 270.12v15.93l22.85-11.43v-15.99L87 270.12z"/><path class="cls-90" d="M125.08 289.55l-.09-.03L87 281.54l22.76-11.37 38.17 7.88-22.85 11.5z"/><path class="cls-16" d="M125.08 278.12v15.92L87 286.05v-15.93l38.08 8z"/><path class="cls-89" d="M125.08 278.12v15.92l22.85-11.42v-16l-22.85 11.5z"/><path class="cls-41" d="M137.79 253.76l-8.38-13.63-18.78 1-9.09 22.66s17 15.85 17.37 15.85 21.34-11.11 21.34-11.11z"/><path class="cls-94" d="M118.86 248.12l-8.24-7.02 18.79-.97 5.47 8.9-16.02-.91z"/><path class="cls-22" d="M120.89 267.69l7.61-11.94-9.64-7.63-6.02 7.63.92 6.64 7.13 5.3z"/><path class="cls-94" d="M120.89 267.69l-1.99 11.92 21.35-11.11-2.46-14.74-9.29 1.99-7.61 11.94z"/><path class="cls-41" d="M120.89 267.69l19.36.81-11.75-12.75-7.61 11.94z"/><path class="cls-94" d="M112.84 255.75l-7.3-1.99-4.01 10 12.23-1.37-.92-6.64zM146.9 260.65l-4.09-3.33-6.35-1.52-7.81 6.06-4.72 7.84 4.72 5.49 8.51 1.36 10.52-6.22-.78-9.68z"/><path class="cls-41" d="M140.79 266.18l6.89 4.15-10.52 6.22v-8.53l3.63-1.84zM137.16 260.84h3.38s2.39-3.5 2.27-3.52l-6.36-1.52zM128.65 261.86l-4.72 7.84 4.72 5.49 3.89-10.76-3.89-2.57z"/><path class="cls-22" d="M136.9 259l-4.36 5.43 4.62 3.59 3.63-1.84-.25-5.34-3.64-1.84z"/><path class="cls-41" d="M108.8 267.55L103 277l-13-.67-6.28-15.66s11.72-11 12-11 14.75 7.68 14.75 7.68z"/><path class="cls-94" d="M95.72 271.45l-5.69 4.85 12.98.67 3.78-6.15-11.07.63z"/><path class="cls-22" d="M97.12 257.92l5.26 8.26-6.66 5.27-4.16-5.27.64-4.59 4.92-3.67z"/><path class="cls-94" d="M97.12 257.92l-1.37-8.24 14.75 7.68-1.7 10.19-6.42-1.37-5.26-8.26z"/><path class="cls-41" d="M97.12 257.92l13.38-.56-8.12 8.82-5.26-8.26z"/><path class="cls-94" d="M91.56 266.18l-5.04 1.37-2.77-6.91 8.45.95-.64 4.59zM103.63 270.51l-1.59 6.55 3.54 4.82 10.2-1.5 1.89-9.37-6.82-4.15-7.22 3.65z"/><path class="cls-41" d="M104.17 270.51l8.65-.05-1.97-3.6-6.68 3.65zM106.13 281.88l2.06-5.16 4.68.46 2.91 3.2-9.65 1.5zM117.67 271.01l-4.85-.55-4.63 6.26 4.68.46 4.8-6.17z"/><path class="cls-22" d="M104.17 270.51l4.02 6.21 4.63-6.26-8.65.05z"/><path class="cls-94" d="M127.48 265.26l-6.72.48-3.52 4.84 4.52 9.26 9.51-1.05 1.88-7.75-5.67-5.78z"/><path class="cls-41" d="M127.64 265.78l2.68 8.23 2.83-2.97-5.51-5.26zM117.41 271.1l5.54.4.98 4.6-2.17 3.74-4.35-8.74zM131.27 278.79l-.95-4.78-7.37-2.51.98 4.6 7.34 2.69z"/><path class="cls-22" d="M127.64 265.78l-4.69 5.72 7.37 2.51-2.68-8.23z"/><path class="cls-16" d="M125.08 278.12v15.92L87 286.05v-15.93l38.08 8z"/><path class="cls-89" d="M125.08 278.12v15.92l22.85-11.42v-16l-22.85 11.5z"/><path class="cls-91" d="M113.09 298.77l1.56-.27c3-.54 5-4.19 4.26-8.25s-3.73-6.85-6.78-6.31l-1.61.28z"/><ellipse class="cls-92" cx="111.72" cy="291.49" rx="5.6" ry="7.47" transform="rotate(-10 111.73 291.494)"/><ellipse class="cls-93" cx="111.72" cy="291.49" rx="4.2" ry="5.6" transform="rotate(-10 111.73 291.494)"/><ellipse class="cls-92" cx="111.72" cy="291.49" rx="2.36" ry="3.15" transform="rotate(-10 111.73 291.494)"/><path class="cls-91" d="M96.84 295.39l1.56-.27c3-.54 5-4.19 4.26-8.25s-3.73-6.85-6.78-6.31l-1.61.28z"/><ellipse class="cls-92" cx="95.47" cy="288.1" rx="5.6" ry="7.47" transform="rotate(-10 95.44 288.111)"/><ellipse class="cls-93" cx="95.47" cy="288.1" rx="4.2" ry="5.6" transform="rotate(-10 95.44 288.111)"/><ellipse class="cls-92" cx="95.47" cy="288.1" rx="2.36" ry="3.15" transform="rotate(-10 95.497 288.116)"/><path class="cls-16" d="M198.53 278.03v15.93l-38.07-8v-15.92l38.07 7.99z"/><path class="cls-89" d="M137.61 281.46v15.92l22.85-11.42v-15.99l-22.85 11.49z"/><path class="cls-90" d="M175.68 300.88l-.09-.02-37.98-7.98 22.75-11.37 38.17 7.88-22.85 11.49z"/><path class="cls-16" d="M175.69 289.46v15.92l-38.08-8v-15.92l38.08 8z"/><path class="cls-89" d="M175.69 289.46v15.92l22.84-11.42v-16l-22.84 11.5z"/><path class="cls-16" d="M175.69 289.46v15.92l-38.08-8v-15.92l38.08 8z"/><path class="cls-89" d="M175.69 289.46v15.92l22.84-11.42v-16l-22.84 11.5z"/><path class="cls-16" d="M198.53 278.03v15.93l-38.07-8v-15.92l38.07 7.99z"/><path class="cls-89" d="M137.61 281.46v15.92l22.85-11.42v-15.99l-22.85 11.49z"/><path class="cls-90" d="M175.68 300.88l-.09-.02-37.98-7.98 22.75-11.37 38.17 7.88-22.85 11.49z"/><path class="cls-16" d="M175.69 289.46v15.92l-38.08-8v-15.92l38.08 8z"/><path class="cls-89" d="M175.69 289.46v15.92l22.84-11.42v-16l-22.84 11.5z"/><path class="cls-41" d="M148.65 267.26l7.24-11.78 16.23.84L180 275.9s-14.66 13.7-15 13.7-18.45-9.6-18.45-9.6z"/><path class="cls-94" d="M165.01 262.38l7.12-6.07-16.23-.84-4.73 7.69 13.84-.78z"/><path class="cls-22" d="M163.26 279.3l-6.58-10.33 8.33-6.59 5.2 6.59-.79 5.74-6.16 4.59z"/><path class="cls-94" d="M163.26 279.3l1.71 10.3-18.44-9.61 2.13-12.74 8.02 1.72 6.58 10.33z"/><path class="cls-41" d="M163.26 279.3l-16.73.69 10.15-11.02 6.58 10.33z"/><path class="cls-94" d="M170.21 268.97l6.31-1.72 3.47 8.64-10.57-1.18.79-5.74zM139.21 277.31l4.08-3.33 6.36-1.52 7.8 6.05 4.72 7.85-4.72 5.49-8.5 1.36-10.53-6.22.79-9.68z"/><path class="cls-41" d="M145.31 282.83l-6.89 4.16 10.53 6.22v-8.53l-3.64-1.85zM148.95 277.5h-3.38s-2.39-3.5-2.27-3.52l6.36-1.52zM157.45 278.51l4.72 7.85-4.72 5.49-3.89-10.76 3.89-2.58z"/><path class="cls-22" d="M149.2 275.66l4.36 5.43-4.61 3.59-3.64-1.85.25-5.33 3.64-1.84z"/><path class="cls-41" d="M179.57 282.72l10.56 3.28 9.34-9-5.56-16s-16-.55-16.25-.37-6.07 15.48-6.07 15.48z"/><path class="cls-94" d="M191.99 277.06l7.48-.09-9.34 9.04-6.89-2.15 8.75-6.8z"/><path class="cls-22" d="M182.04 267.79l1.47 9.67 8.48-.4-.33-6.71-3.49-3.04-6.13.48z"/><path class="cls-94" d="M182.04 267.79l-4.38-7.11-6.07 15.48 7.98 6.56 3.94-5.26-1.47-9.67z"/><path class="cls-41" d="M182.04 267.79l-10.45 8.37 11.92 1.3-1.47-9.67z"/><path class="cls-94" d="M191.66 270.35l4.7-2.28-2.45-7.03-5.74 6.27 3.49 3.04zM177.65 271.46l4.08 5.36-1.31 5.84-9.94 2.73-5.49-7.83 4.58-6.54 8.08.44z"/><path class="cls-41" d="M177.15 271.68l-7.94 3.43.36-4.09 7.58.66zM179.92 282.88l-3.96-3.9-4.1 2.31-1.38 4.1 9.44-2.51z"/><path class="cls-41" d="M164.99 277.56l4.22-2.45 6.75 3.87-4.1 2.31-6.87-3.73z"/><path class="cls-22" d="M177.15 271.68l-1.19 7.3-6.75-3.87 7.94-3.43z"/><path class="cls-94" d="M157.26 276.6l6.73.47 3.51 4.85-4.52 9.26-9.5-1.05-1.89-7.75 5.67-5.78z"/><path class="cls-41" d="M157.1 277.12l-2.67 8.23-2.84-2.97 5.51-5.26zM167.34 282.44l-5.54.39-.99 4.61 2.17 3.74 4.36-8.74z"/><path class="cls-41" d="M153.48 290.13l.95-4.78 7.37-2.52-.99 4.61-7.33 2.69z"/><path class="cls-22" d="M157.1 277.12l4.7 5.71-7.37 2.52 2.67-8.23z"/><path class="cls-94" d="M164.42 285.05l4.09-3.33 6.36-1.52 7.8 6.05 4.72 7.85-4.72 5.49-8.51 1.36-10.52-6.22.78-9.68z"/><path class="cls-41" d="M170.53 290.57l-6.89 4.16 10.52 6.22v-8.53l-3.63-1.85zM174.16 285.24h-3.38s-2.39-3.5-2.27-3.52l6.36-1.52zM182.67 286.25l4.72 7.85-4.72 5.49-3.89-10.76 3.89-2.58z"/><path class="cls-22" d="M174.42 283.4l4.36 5.43-4.62 3.59-3.63-1.85.25-5.33 3.64-1.84z"/><path class="cls-16" d="M175.69 289.46v15.92l-38.08-8v-15.92l38.08 8z"/><path class="cls-89" d="M175.69 289.46v15.92l22.84-11.42v-16l-22.84 11.5z"/><path class="cls-94" d="M179.59 254.05l1.59 6.54-3.55 4.83-10.2-1.5-1.88-9.37 6.82-4.15 7.22 3.65z"/><path class="cls-41" d="M179.04 254.05l-8.64-.05 1.97-3.6 6.67 3.65zM177.08 265.42l-2.05-5.16-4.69.46-2.91 3.2 9.65 1.5z"/><path class="cls-41" d="M165.55 254.55l4.85-.55 4.63 6.26-4.69.46-4.79-6.17z"/><path class="cls-22" d="M179.04 254.05l-4.01 6.21-4.63-6.26 8.64.05z"/><path class="cls-91" d="M163.69 310.11l1.56-.27c3-.54 5-4.19 4.26-8.25s-3.73-6.85-6.78-6.31l-1.61.28z"/><ellipse class="cls-92" cx="162.32" cy="302.83" rx="5.6" ry="7.47" transform="rotate(-10 162.336 302.832)"/><ellipse class="cls-93" cx="162.32" cy="302.83" rx="4.2" ry="5.6" transform="rotate(-10 162.336 302.832)"/><ellipse class="cls-92" cx="162.32" cy="302.83" rx="2.36" ry="3.15" transform="rotate(-10 162.336 302.832)"/><path class="cls-91" d="M147.44 306.73l1.56-.27c3-.54 5-4.19 4.26-8.25s-3.73-6.85-6.78-6.31l-1.61.28z"/><ellipse class="cls-92" cx="146.07" cy="299.44" rx="5.6" ry="7.47" transform="rotate(-10 146.046 299.449)"/><ellipse class="cls-93" cx="146.07" cy="299.44" rx="4.2" ry="5.6" transform="rotate(-10 146.046 299.449)"/><ellipse class="cls-92" cx="146.07" cy="299.44" rx="2.36" ry="3.15" transform="matrix(.98 -.17 .17 .98 -49.78 29.91)"/><path class="cls-16" d="M250.49 289.37v15.93l-38.08-8v-15.92l38.08 7.99z"/><path class="cls-89" d="M189.56 292.8v15.92l22.85-11.42v-15.99l-22.85 11.49z"/><path class="cls-90" d="M227.64 312.22l-.09-.02-37.99-7.98 22.76-11.37 38.17 7.88-22.85 11.49z"/><path class="cls-95" d="M227.58 265.25l-.28-1.16-.28-1.16-.28-1.16-.28-1.16s.79-.2 2-.62a41.21 41.21 0 0 0 4.76-2 36.31 36.31 0 0 0 5.93-3.66 26.44 26.44 0 0 0 5.49-5.59l1.77-.1.18 1.49 1.77-.1.18 1.49a31.25 31.25 0 0 1-6.3 6.49 40.57 40.57 0 0 1-6.72 4.21 45 45 0 0 1-5.44 2.3c-1.45.48-2.37.69-2.5.73z"/><circle class="cls-95" cx="224.65" cy="243.3" r="2.29"/><circle class="cls-95" cx="212.64" cy="242.73" r="2.29"/><path class="cls-95" d="M222.68 283.79V303s5.3-.22 5.3 2.78h-8.3v-22"/><path class="cls-95" d="M215.43 290.49a10.83 10.83 0 0 0 6 0 10.83 10.83 0 0 0 7.8-9.28l1.93-18.35a10.83 10.83 0 0 0-.12-3.07l-1.68-9.23a10.83 10.83 0 0 0-5.28-7.47l-.25-.14a10.83 10.83 0 0 0-10.75 0l-.25.14a10.83 10.83 0 0 0-5.28 7.47l-1.68 9.23a10.84 10.84 0 0 0-.12 3.07l1.93 18.35a10.83 10.83 0 0 0 7.75 9.28z"/><path d="M205.81 259.52l1.68-9.23a10.83 10.83 0 0 1 5.28-7.47l.25-.14a10.82 10.82 0 0 1 1.94-.87 10.83 10.83 0 0 0-4.62 7.05l-1.68 9.23a10.83 10.83 0 0 0-.12 3.07l1.93 18.35a10.83 10.83 0 0 0 7.8 9.28 10.83 10.83 0 0 0 6 0l.39-.13a10.81 10.81 0 0 1-3.24 1.56 10.83 10.83 0 0 1-6 0 10.83 10.83 0 0 1-7.8-9.28l-1.93-18.35a10.83 10.83 0 0 1 .12-3.07z"/><circle class="cls-96" cx="223.84" cy="247.87" r=".86"/><circle class="cls-96" cx="218.4" cy="247.87" r=".86"/><rect id="_Clipping_Path_4" data-name="&lt;Clipping Path&gt;" class="cls-5" x="218.68" y="248.79" width="6" height="8" rx="2.79" ry="2.79"/><g clip-path="url(#clip-path-7)"><rect class="cls-96" x="218.68" y="241.79" width="6" height="8" rx="2.79" ry="2.79"/></g><path class="cls-96" d="M219.73 254.79a3.3 3.3 0 0 0 2.09 1h.4a3.3 3.3 0 0 0 2.09-1z"/><path class="cls-95" d="M218.68 283.79V303s3.58-.22 3.58 2.78h-8.58v-22M202.68 266.9v24.46l1.48-.57 1.35.57 1.08-.57 1.08.57V266.9c0-.34.13-.65 0-.94a2.19 2.19 0 0 0-.42-.77 1.86 1.86 0 0 0-.72-.36 2.22 2.22 0 0 0-.91 0h-1v-.3l-.46.18c-.29.12-.31.3-.53.52a2.92 2.92 0 0 0-.67.77 2.58 2.58 0 0 0-.28.9z"/><g clip-path="url(#clip-path-8)"><path class="cls-22" d="M227.68 236.79h-7v51c0 6.06 5.44 11 11.5 11s11.5-4.93 11.5-11v-6h-7v6a4.5 4.5 0 1 1-9 0z"/><g clip-path="url(#clip-path-9)"><path class="cls-100" transform="rotate(-66.74 231.221 296.816)" d="M230.09 280.85h2.25v31.91h-2.25z"/><path class="cls-100" transform="rotate(-66.74 231.232 291.445)" d="M230.09 275.48h2.25v31.91h-2.25z"/><path class="cls-100" transform="rotate(-66.74 231.234 286.07)" d="M230.09 270.11h2.25v31.91h-2.25z"/><path class="cls-100" transform="rotate(-66.74 231.237 280.695)" d="M230.09 264.74h2.25v31.91h-2.25z"/><path class="cls-100" transform="rotate(-66.74 231.227 275.322)" d="M230.09 259.36h2.25v31.91h-2.25z"/><path class="cls-100" transform="rotate(-66.74 231.238 269.952)" d="M230.09 253.99h2.25v31.91h-2.25z"/><path class="cls-100" transform="rotate(-66.74 231.233 264.572)" d="M230.09 248.62h2.25v31.91h-2.25z"/><path class="cls-100" transform="rotate(-66.74 231.23 259.204)" d="M230.09 243.24h2.25v31.91h-2.25z"/><path class="cls-100" transform="rotate(-66.74 231.226 253.824)" d="M230.09 237.87h2.25v31.91h-2.25z"/><path class="cls-100" transform="rotate(-66.74 231.236 248.454)" d="M230.09 232.5h2.25v31.91h-2.25z"/><path class="cls-100" transform="rotate(-66.74 231.234 243.086)" d="M230.09 227.12h2.25v31.91h-2.25z"/><path class="cls-100" transform="rotate(-66.74 231.229 237.706)" d="M230.09 221.75h2.25v31.91h-2.25z"/><path class="cls-100" transform="rotate(-66.74 231.22 232.333)" d="M230.09 216.38h2.25v31.91h-2.25z"/></g></g><g clip-path="url(#clip-path-10)"><path class="cls-22" d="M243.68 264.79v-7H194c-6.06 0-11 5.44-11 11.5s4.93 11.5 11 11.5h5.64v-7H194a4.5 4.5 0 1 1 0-9z"/><g clip-path="url(#clip-path-11)"><path class="cls-100" transform="rotate(-66.76 184.97 268.522)" d="M169.04 267.41h31.91v2.25h-31.91z"/><path class="cls-100" transform="rotate(-66.76 190.35 268.518)" d="M174.42 267.41h31.91v2.25h-31.91z"/><path class="cls-100" transform="rotate(-66.76 195.723 268.522)" d="M179.79 267.41h31.91v2.25h-31.91z"/><path class="cls-100" transform="rotate(-66.76 201.09 268.52)" d="M185.16 267.41h31.91v2.25h-31.91z"/><path class="cls-100" transform="rotate(-66.76 206.468 268.517)" d="M190.53 267.41h31.91v2.25h-31.91z"/><path class="cls-100" transform="rotate(-66.76 211.842 268.52)" d="M195.91 267.41h31.91v2.25h-31.91z"/><path class="cls-100" transform="rotate(-66.76 217.216 268.524)" d="M201.28 267.41h31.91v2.25h-31.91z"/><path class="cls-100" transform="rotate(-66.76 222.582 268.523)" d="M206.66 267.41h31.91v2.25h-31.91z"/><path class="cls-100" transform="rotate(-66.76 227.96 268.519)" d="M212.03 267.41h31.91v2.25h-31.91z"/><path class="cls-100" transform="rotate(-66.76 233.335 268.523)" d="M217.4 267.41h31.91v2.25H217.4z"/><path class="cls-100" transform="rotate(-66.76 238.709 268.526)" d="M222.78 267.41h31.91v2.25h-31.91z"/><path class="cls-100" transform="rotate(-66.76 244.075 268.525)" d="M228.15 267.41h31.91v2.25h-31.91z"/><path class="cls-100" transform="rotate(-66.76 249.454 268.521)" d="M233.52 267.41h31.91v2.25h-31.91z"/></g></g><path class="cls-16" d="M227.65 300.8v15.92l-38.09-8V292.8l38.09 8z"/><path class="cls-89" d="M227.65 300.8v15.92l22.84-11.42v-16l-22.84 11.5z"/><path class="cls-16" d="M227.65 300.8v15.92l-38.09-8V292.8l38.09 8z"/><path class="cls-89" d="M227.65 300.8v15.92l22.84-11.42v-16l-22.84 11.5z"/><path class="cls-91" d="M215.65 321.45l1.56-.27c3-.54 5-4.19 4.26-8.25s-3.73-6.85-6.78-6.31l-1.61.28z"/><ellipse class="cls-92" cx="214.28" cy="314.17" rx="5.6" ry="7.47" transform="rotate(-10 214.267 314.17)"/><ellipse class="cls-93" cx="214.28" cy="314.17" rx="4.2" ry="5.6" transform="rotate(-10 214.267 314.17)"/><ellipse class="cls-92" cx="214.28" cy="314.17" rx="2.36" ry="3.15" transform="rotate(-10 214.267 314.17)"/><path class="cls-91" d="M199.4 318.07l1.56-.27c3-.54 5-4.19 4.26-8.25s-3.73-6.85-6.78-6.31l-1.61.28z"/><ellipse class="cls-92" cx="198.03" cy="310.78" rx="5.6" ry="7.47" transform="rotate(-10 198.035 310.793)"/><ellipse class="cls-93" cx="198.03" cy="310.78" rx="4.2" ry="5.6" transform="matrix(.98 -.17 .17 .98 -50.96 39.11)"/><ellipse class="cls-92" cx="198.03" cy="310.78" rx="2.36" ry="3.15" transform="rotate(-10 198.035 310.793)"/><path class="cls-16" d="M302.45 300.71v15.93l-38.08-8v-15.93l38.08 8z"/><path class="cls-89" d="M241.52 304.14v15.92l22.85-11.42v-15.99l-22.85 11.49z"/><path class="cls-90" d="M279.6 323.56l-.09-.02-37.99-7.98 22.76-11.37 38.17 7.88-22.85 11.49z"/><path fill="#32a658" d="M266.5 293.55h6.01l-3-18.26-3.01 18.26z"/><path class="cls-104" d="M269.51 295.35c-5.09 0-8.5-1.34-8.5-6.56 0-6.93 2.85-15.24 8.5-15.24s8.5 8.31 8.5 15.24c-.01 5.21-3.42 6.56-8.5 6.56z"/><path class="cls-104" d="M266.5 304.91a1.74 1.74 0 0 1-1.74-1.74v-9.63a1.74 1.74 0 1 1 3.47 0v9.63a1.74 1.74 0 0 1-1.73 1.74z"/><path class="cls-15" d="M258.54 305a3.5 3.5 0 0 0 3.5 3.5 2.71 2.71 0 0 0 2.71-2.71v-2.6h3.48v7.91a.9.9 0 0 1-.9.9h-8.7a3.56 3.56 0 0 1-3.58-3.37 3.5 3.5 0 0 1 3.49-3.63z"/><path class="cls-16" d="M264.76 306.68h1.36a.9.9 0 1 0 0-1.81h-1.36a.9.9 0 0 0 0 1.81z"/><path class="cls-104" d="M272.52 304.91a1.74 1.74 0 0 1-1.74-1.74v-9.63a1.74 1.74 0 0 1 3.47 0v9.63a1.74 1.74 0 0 1-1.73 1.74z"/><path class="cls-15" d="M280.47 305a3.5 3.5 0 0 1-3.5 3.5 2.71 2.71 0 0 1-2.71-2.71v-2.6h-3.48v7.91a.9.9 0 0 0 .9.9h8.7a3.56 3.56 0 0 0 3.58-3.37 3.5 3.5 0 0 0-3.49-3.63z"/><path class="cls-16" d="M274.25 306.68h-1.36a.9.9 0 0 1 0-1.81h1.36a.9.9 0 1 1 0 1.81z"/><path class="cls-15" d="M261 287.73h17a27.22 27.22 0 0 0-.31-3.09h-16.35a27.22 27.22 0 0 0-.34 3.09z"/><path class="cls-16" d="M267.96 284.64h3.09v3.09h-3.09z"/><path class="cls-104" d="M283.66 288.19a1.74 1.74 0 0 1-1.74-1.69c-.13-4.58-5.16-9.47-12.42-9.47a1.74 1.74 0 1 1 0-3.47c9.58 0 15.71 6.67 15.89 12.85a1.74 1.74 0 0 1-1.69 1.79z"/><circle class="cls-105" cx="283.75" cy="289.54" r="3.09" transform="rotate(-1.67 283.67 289.624)"/><path class="cls-22" d="M286.24 284.93l-5.23.15a1.45 1.45 0 0 0 .08 2.9l5.23-.15a1.45 1.45 0 1 0-.08-2.89z"/><path class="cls-104" d="M255.35 288.19h-.05a1.74 1.74 0 0 1-1.69-1.79c.18-6.18 6.31-12.85 15.89-12.85a1.74 1.74 0 1 1 0 3.47c-7.26 0-12.29 4.9-12.42 9.47a1.74 1.74 0 0 1-1.73 1.7z"/><circle class="cls-105" cx="255.26" cy="289.54" r="3.09" transform="rotate(-88.33 255.256 289.54)"/><path class="cls-22" d="M258 285.08l-5.23-.15a1.45 1.45 0 0 0-.08 2.89l5.23.15a1.45 1.45 0 1 0 .08-2.9z"/><circle class="cls-22" cx="269.51" cy="249.27" r="2.15"/><path class="cls-104" d="M275.68 263.75l-6.17-12.34-6.18 12.34h12.35z"/><path class="cls-22" d="M275.4 265.28a1.81 1.81 0 0 1-1.73-1.27 4.37 4.37 0 0 0-8.34 0 1.81 1.81 0 1 1-3.45-1.08 8 8 0 0 1 15.25 0 1.81 1.81 0 0 1-1.73 2.35z"/><path class="cls-15" d="M261.47 266.76a8 8 0 1 1 16.07 0zM277.54 274.8a8 8 0 0 1-8-8h8z"/><path class="cls-105" d="M277.68 262.45l-3.16 3.16a1.63 1.63 0 1 0 2.31 2.31c1.98-1.97.85-5.47.85-5.47zM261.33 262.45s-1.13 3.5.85 5.47a1.63 1.63 0 1 0 2.31-2.31z"/><circle class="cls-105" cx="269.51" cy="266.76" r="6.79"/><circle class="cls-15" cx="267.01" cy="264.99" r="1.25"/><circle class="cls-15" cx="272" cy="264.99" r="1.25"/><path class="cls-22" d="M273.25 267.49a3.74 3.74 0 1 1-7.48 0z"/><path class="cls-15" d="M261.47 274.8a8 8 0 0 0 8-8h-8zM261.47 266.76h8v-8a8 8 0 0 0-8 8z"/><path class="cls-16" d="M279.6 312.13v15.93l-38.08-8v-15.92l38.08 7.99z"/><path class="cls-89" d="M279.6 312.13v15.93l22.85-11.42v-16l-22.85 11.49z"/><path class="cls-16" d="M279.6 312.13v15.93l-38.08-8v-15.92l38.08 7.99z"/><path class="cls-89" d="M279.6 312.13v15.93l22.85-11.42v-16l-22.85 11.49z"/><path class="cls-91" d="M267.61 332.79l1.56-.27c3-.54 5-4.19 4.26-8.25s-3.73-6.85-6.78-6.31l-1.61.28z"/><ellipse class="cls-92" cx="266.24" cy="325.5" rx="5.6" ry="7.47" transform="rotate(-10 266.255 325.515)"/><ellipse class="cls-93" cx="266.24" cy="325.5" rx="4.2" ry="5.6" transform="rotate(-10 266.255 325.515)"/><ellipse class="cls-92" cx="266.24" cy="325.5" rx="2.36" ry="3.15" transform="rotate(-10 266.255 325.515)"/><path class="cls-91" d="M251.36 329.4l1.56-.27c3-.54 5-4.19 4.26-8.25s-3.73-6.85-6.78-6.31l-1.61.28z"/><ellipse class="cls-92" cx="249.99" cy="322.12" rx="5.6" ry="7.47" transform="rotate(-10 249.966 322.131)"/><ellipse class="cls-93" cx="249.99" cy="322.12" rx="4.2" ry="5.6" transform="rotate(-10 249.966 322.131)"/><ellipse class="cls-92" cx="249.99" cy="322.12" rx="2.36" ry="3.15" transform="rotate(-10 249.966 322.131)"/></g></g></svg>