<svg width="200" height="250" viewBox="0 0 200 250" fill="none" xmlns="http://www.w3.org/2000/svg">
<rect opacity="0.1" x="178" y="66" width="159" height="126" transform="rotate(90 178 66)" fill="black"/>
<rect x="139" y="50" width="32" height="87" transform="rotate(90 139 50)" fill="#584539"/>
<path d="M67.5914 165L152 166L152 200L52 200L52 168.451L67.5914 165Z" fill="#584539"/>
<rect x="152" y="50" width="124" height="81" transform="rotate(90 152 50)" fill="#9B643D"/>
<rect opacity="0.5" width="43.0958" height="26.087" transform="matrix(-1 0 0 1 150.096 174)" fill="#9B643D"/>
<rect width="33.8985" height="15.4891" transform="matrix(-1 0 0 1 145.498 179.217)" fill="#584539"/>
<line x1="1.5" y1="-1.5" x2="6.65218" y2="-1.5" transform="matrix(-3.80431e-08 1 1 5.02243e-08 115.279 182.885)" stroke="#FADCBC" stroke-width="3" stroke-linecap="round" stroke-linejoin="round"/>
<path d="M71 50L71 174L68 174L68 50L71 50Z" fill="#584539"/>
<rect x="71" y="166" width="81" height="8" fill="#584539"/>
<path d="M150 50L150 60L73.5 60L57 50L150 50Z" fill="#9B643D"/>
<rect opacity="0.5" width="44" height="26.087" transform="matrix(-1 0 0 1 107 174)" fill="#9B643D"/>
<rect width="34.6098" height="15.4891" transform="matrix(-1 0 0 1 102.307 179.217)" fill="#584539"/>
<line x1="1.5" y1="-1.5" x2="6.65218" y2="-1.5" transform="matrix(-3.88413e-08 1 1 4.91922e-08 71.4531 182.885)" stroke="#FADCBC" stroke-width="3" stroke-linecap="round" stroke-linejoin="round"/>
</svg>
