<svg xmlns="http://www.w3.org/2000/svg" xmlns:xlink="http://www.w3.org/1999/xlink" width="57.28" height="57.276" viewBox="0 0 57.28 57.276"><g><defs><path id="a" d="M-26.27 321.2h1599v901.967h-1599z"/></defs><clipPath><use xlink:href="#a" overflow="visible"/></clipPath></g><g><g opacity=".25"><path d="M2.833 55.75l.693.693c.974.974 2.506 1.11 3.636.322l10.964-6.388L8.9 41.15 2.51 52.115c-.787 1.13-.65 2.662.323 3.636z"/><path d="M18.206 51.957L7.32 41.07 46.39 2l10.887 10.886z"/><path d="M21.34 48.824L10.452 37.937 43.257 5.133 54.144 16.02z"/><path d="M48.45 21.716L37.56 10.83l1.328-1.328L49.777 20.39z"/><path d="M50.643 19.523L39.757 8.636l1.328-1.328L51.97 18.195z"/><path d="M23.538 46.623L12.65 35.737l1.33-1.328 10.886 10.885z"/><path d="M25.732 44.43L14.846 33.543l1.328-1.328L27.06 43.102z"/><path d="M25.958 32.013l1.307 1.307c1.72 1.72 4.537 1.72 6.258 0l7.237-7.236c1.72-1.72 1.72-4.537 0-6.258l-1.307-1.307c-1.72-1.722-4.537-1.722-6.258 0l-7.237 7.235c-1.72 1.72-1.72 4.537 0 6.258z"/><path opacity=".3" d="M51.908 7.524l5.367 5.368L18.21 51.958 12.84 46.59z"/><path opacity=".3" d="M15.46 49.21l1.707 1.706L7.13 56.75c-1.13.786-2.663.65-3.636-.326l-.692-.694c-.174-.174-.31-.37-.43-.575.936.547 2.126.533 3.052-.11L15.46 49.21z"/></g><path fill="#7CB342" d="M.833 53.75l.693.693c.974.974 2.506 1.11 3.636.322l10.964-6.388L6.9 39.15.51 50.115c-.787 1.13-.65 2.662.323 3.636z"/><path fill="#7CB342" d="M16.206 49.957L5.32 39.07 44.39 0l10.887 10.886z"/><path fill="#9DCE2E" d="M19.34 46.824L8.452 35.937 41.257 3.133 52.144 14.02z"/><path fill="#7CB342" d="M46.45 19.716L35.562 8.83l1.327-1.328L47.777 18.39z"/><path fill="#7CB342" d="M48.643 17.523L37.757 6.636l1.328-1.328L49.97 16.195z"/><path fill="#7CB342" d="M21.538 44.623L10.652 33.737l1.327-1.328 10.886 10.885z"/><path fill="#7CB342" d="M23.732 42.43L12.846 31.543l1.328-1.328L25.06 41.102z"/><path fill="#7CB342" d="M23.958 30.013l1.307 1.307c1.72 1.72 4.537 1.72 6.258 0l7.237-7.236c1.72-1.72 1.72-4.537 0-6.258l-1.307-1.307c-1.72-1.722-4.537-1.722-6.258 0l-7.237 7.235c-1.72 1.72-1.72 4.537 0 6.258z"/><path opacity=".3" fill="#558B2F" d="M49.908 5.524l5.367 5.368L16.21 49.958 10.84 44.59z"/><path opacity=".3" fill="#558B2F" d="M13.46 47.21l1.707 1.706L5.13 54.75c-1.13.786-2.663.65-3.636-.326l-.692-.694c-.174-.174-.31-.37-.43-.575.936.547 2.126.533 3.052-.11L13.46 47.21z"/></g></svg>