<svg xmlns="http://www.w3.org/2000/svg" width="79.758" height="101.694" viewBox="33.241 17.917 79.758 101.694" enable-background="new 33.241 17.917 79.758 101.694"><g><path fill="#fff" d="M33.44 104.257c2.313 0 4.188 1.875 4.188 4.187 0 2.313-1.875 4.188-4.188 4.188-.067 0-.132-.007-.2-.01v3.01c.068-.002.133-.01.2-.01 2.246 0 4.073 1.77 4.178 3.99h2.916c.153-2.174 1.96-3.89 4.172-3.89 2.212 0 4.02 1.716 4.172 3.89H51.9c.153-2.174 1.96-3.89 4.17-3.89 2.213 0 4.02 1.716 4.174 3.89h3.02c.154-2.174 1.962-3.89 4.173-3.89 2.212 0 4.02 1.716 4.172 3.89h3.02c.154-2.174 1.96-3.89 4.172-3.89 2.212 0 4.02 1.716 4.173 3.89h3.02c.155-2.174 1.962-3.89 4.173-3.89 2.212 0 4.02 1.716 4.172 3.89h3.02c.154-2.174 1.96-3.89 4.173-3.89s4.02 1.716 4.172 3.89h2.917c.105-2.22 1.932-3.99 4.177-3.99.067 0 .132.01.2.01v-3.01c-.068.003-.133.01-.2.01-2.313 0-4.188-1.875-4.188-4.188 0-2.312 1.875-4.187 4.187-4.187.067 0 .132.007.2.01v-3.01c-.068.002-.133.01-.2.01-2.313 0-4.188-1.876-4.188-4.19 0-2.31 1.875-4.186 4.187-4.186.067 0 .132.008.2.01v-3.01c-.068.003-.133.01-.2.01-2.313 0-4.188-1.875-4.188-4.187 0-2.313 1.875-4.187 4.187-4.187.067 0 .132.007.2.01v-3.01c-.068.002-.133.01-.2.01-2.313 0-4.188-1.875-4.188-4.188s1.875-4.187 4.187-4.187c.067 0 .132.008.2.01v-3.01c-.068.003-.133.01-.2.01-2.313 0-4.188-1.875-4.188-4.187 0-2.313 1.875-4.188 4.187-4.188.067 0 .132.008.2.01v-3.01c-.068.002-.133.01-.2.01-2.313 0-4.188-1.875-4.188-4.188s1.875-4.188 4.187-4.188c.067 0 .132.006.2.01v-3.012c-.068.003-.133.01-.2.01-2.313 0-4.188-1.875-4.188-4.187s1.875-4.187 4.187-4.187c.067 0 .132.007.2.01v-3.01c-.068.002-.133.01-.2.01-2.313 0-4.188-1.875-4.188-4.19 0-2.31 1.875-4.186 4.187-4.186.067 0 .132.007.2.01v-3.01c-.068.002-.133.01-.2.01-2.18 0-3.967-1.665-4.168-3.79h-2.783c-.202 2.125-1.99 3.79-4.168 3.79s-3.966-1.665-4.167-3.79h-3.032c-.2 2.125-1.99 3.79-4.167 3.79s-3.966-1.665-4.167-3.79h-3.03c-.2 2.125-1.99 3.79-4.167 3.79s-3.966-1.665-4.167-3.79h-3.03c-.203 2.125-1.99 3.79-4.168 3.79s-3.967-1.665-4.167-3.79h-3.03c-.2 2.125-1.99 3.79-4.167 3.79s-3.966-1.665-4.167-3.79h-3.03c-.202 2.125-1.99 3.79-4.168 3.79-2.18 0-3.966-1.665-4.168-3.79h-3.08c-.2 2.125-1.99 3.79-4.168 3.79-.067 0-.132-.01-.2-.01v3.01c.068-.003.133-.01.2-.01 2.313 0 4.188 1.874 4.188 4.187s-1.875 4.188-4.188 4.188c-.067 0-.132-.007-.2-.01v3.01c.068-.002.133-.01.2-.01 2.313 0 4.188 1.876 4.188 4.19s-1.875 4.186-4.188 4.186c-.067 0-.132-.007-.2-.01v3.01c.068-.002.133-.01.2-.01 2.313 0 4.188 1.876 4.188 4.19s-1.875 4.186-4.188 4.186c-.067 0-.132-.007-.2-.01v3.01c.068-.002.133-.01.2-.01 2.313 0 4.188 1.876 4.188 4.19s-1.875 4.186-4.188 4.186c-.067 0-.132-.007-.2-.01v3.01c.068-.002.133-.01.2-.01 2.313 0 4.188 1.876 4.188 4.188 0 2.313-1.875 4.188-4.188 4.188-.067 0-.132-.008-.2-.01v3.01c.068-.003.133-.01.2-.01 2.313 0 4.188 1.874 4.188 4.187S35.755 89.9 33.442 89.9c-.067 0-.132-.007-.2-.01v3.01c.068-.002.133-.01.2-.01 2.313 0 4.188 1.876 4.188 4.188 0 2.313-1.875 4.188-4.188 4.188-.067 0-.132-.007-.2-.01v3.01c.066-.002.13-.01.198-.01z"/><path fill="#00ADEE" d="M41.5 25.5h63v86h-63z"/><radialGradient id="a" cx="538.779" cy="-537.992" r="14.559" gradientTransform="matrix(1 0 0 -1 -462 -490)" gradientUnits="userSpaceOnUse"><stop offset=".5" stop-color="#DF4A3F"/><stop offset="1" stop-color="#D53E2F"/></radialGradient><path fill="url(#a)" d="M61.304 57.664s17.168-20.272 30.95-23.253c0 0-9.442 19.814-2.67 27.163l-28.28-3.91z"/><path fill="#FFE18C" d="M91.454 77.737c-1.185 9.74-10.04 16.673-19.777 15.488-9.74-1.185-16.675-10.04-15.49-19.78 1.185-9.74 10.04-16.675 19.782-15.49 9.737 1.186 16.67 10.042 15.484 19.782z"/><path fill="#fff" d="M95.497 65.51c-.16 1.3-1.335 2.222-2.635 2.063L57.817 63.31c-1.297-.16-2.218-1.336-2.06-2.635l.524-4.304c.16-1.298 1.336-2.22 2.632-2.064l35.045 4.265c1.3.16 2.222 1.337 2.063 2.636l-.523 4.305z"/><path fill="#333" d="M69.717 72.537c-.21 1.736-1.79 2.977-3.528 2.764-1.745-.21-2.98-1.793-2.77-3.53.212-1.736 1.79-2.978 3.536-2.765 1.737.21 2.972 1.795 2.76 3.532z"/><path fill="#333" d="M84.21 74.3c-.213 1.736-1.8 2.975-3.537 2.764-1.74-.212-2.98-1.794-2.77-3.53.212-1.738 1.797-2.98 3.537-2.767 1.736.21 2.98 1.797 2.77 3.533z"/><radialGradient id="b" cx="535.236" cy="-592.288" r="14.15" gradientTransform="matrix(1 0 0 -1 -462 -490)" gradientUnits="userSpaceOnUse"><stop offset=".5" stop-color="#DF4A3F"/><stop offset="1" stop-color="#D53E2F"/></radialGradient><path fill="url(#b)" d="M55.47 111.5c0-9.81 7.953-18.425 17.767-18.425C83.05 93.075 91 101.69 91 111.5"/><path fill="#fff" d="M99.88 32.268c-.254 2.086-2.153 3.573-4.238 3.32-2.088-.255-3.572-2.154-3.318-4.24.255-2.093 2.15-3.575 4.238-3.32 2.085.255 3.573 2.147 3.318 4.24z"/><path fill="#FFE18C" d="M56.65 69.672l-4.91-8.7s-5.857 20.17 5.782 19.032l-.873-10.332z"/><path fill="#FFE18C" d="M90.234 73.758l6.85-7.268s.852 20.987-10.176 17.09l3.326-9.822z"/><path fill="#fff" d="M72.5 93.5h2v18h-2z"/><path fill="#333" d="M64.747 80.544c1.117 2.665 4.204 4.814 8.047 5.28 3.843.47 7.353-.876 9.078-3.195-2.17 1.433-5.4 2.14-8.897 1.715-3.498-.425-6.464-1.888-8.228-3.8z"/></g></svg>