<svg xmlns="http://www.w3.org/2000/svg" xmlns:xlink="http://www.w3.org/1999/xlink" width="1600" height="900" viewBox="0 0 1600 900"><defs><style>.cls-1,.cls-2,.cls-9{fill:none;}.cls-2{stroke:#231f20;stroke-width:0.3px;}.cls-3{isolation:isolate;}.cls-4{fill:#5e35b1;}.cls-16,.cls-5{opacity:0.2;}.cls-5{fill:url(#Grid_.5_inch_Lines);}.cls-6{fill:#754c24;}.cls-7{clip-path:url(#clip-path);}.cls-8{opacity:0.1;}.cls-16,.cls-8{mix-blend-mode:multiply;}.cls-9{stroke:#a67c52;stroke-linecap:round;stroke-miterlimit:10;stroke-width:2.26px;}.cls-10{fill:#603813;}.cls-11{clip-path:url(#clip-path-2);}.cls-12{clip-path:url(#clip-path-3);}.cls-13{fill:#f9ce1d;}.cls-14{fill:#e53935;}.cls-15{fill:#fff;}</style><pattern id="Grid_.5_inch_Lines" data-name="Grid .5 inch Lines" width="72" height="72" patternTransform="matrix(-2.15, 0, 0, 1.7, 326.48, 2.47)" patternUnits="userSpaceOnUse" viewBox="0 0 72 72"><rect class="cls-1" width="72" height="72"/><line class="cls-2" x1="54" y1="71.75" x2="54" y2="144.25"/><line class="cls-2" x1="18" y1="71.75" x2="18" y2="144.25"/><line class="cls-2" x1="71.75" y1="18" x2="144.25" y2="18"/><line class="cls-2" x1="71.75" y1="54" x2="144.25" y2="54"/><line class="cls-2" x1="-0.25" y1="18" x2="72.25" y2="18"/><line class="cls-2" x1="54" y1="-0.25" x2="54" y2="72.25"/><line class="cls-2" x1="-0.25" y1="54" x2="72.25" y2="54"/><line class="cls-2" x1="18" y1="-0.25" x2="18" y2="72.25"/><line class="cls-2" x1="-72.25" y1="18" x2="0.25" y2="18"/><line class="cls-2" x1="-72.25" y1="54" x2="0.25" y2="54"/><line class="cls-2" x1="54" y1="-72.25" x2="54" y2="0.25"/><line class="cls-2" x1="18" y1="-72.25" x2="18" y2="0.25"/></pattern><clipPath id="clip-path"><rect class="cls-1" y="765.36" width="1600" height="134.64"/></clipPath><clipPath id="clip-path-2"><rect class="cls-1" x="1620" y="765.33" width="1600" height="134.64"/></clipPath><clipPath id="clip-path-3"><rect class="cls-1" x="1620" y="-0.03" width="1600" height="900.01"/></clipPath></defs><title>Artboard 3</title><g class="cls-3"><g id="Layer_1" data-name="Layer 1"><rect class="cls-4" y="-0.01" width="1600" height="731.19"/><rect class="cls-5" y="-0.01" width="1600" height="731.19"/><rect class="cls-6" y="765.36" width="1600" height="134.64"/><g class="cls-7"><g class="cls-8"><line class="cls-9" x1="584.36" y1="765.36" x2="330.05" y2="900"/><line class="cls-9" x1="557.41" y1="765.36" x2="271.31" y2="900"/><line class="cls-9" x1="611.32" y1="765.36" x2="388.8" y2="900"/><line class="cls-9" x1="638.27" y1="765.36" x2="447.54" y2="900"/><line class="cls-9" x1="665.23" y1="765.36" x2="506.28" y2="900"/><line class="cls-9" x1="692.18" y1="765.36" x2="565.03" y2="900"/><line class="cls-9" x1="719.14" y1="765.36" x2="623.77" y2="900"/><line class="cls-9" x1="746.09" y1="765.36" x2="682.51" y2="900"/><line class="cls-9" x1="773.05" y1="765.36" x2="741.26" y2="900"/><line class="cls-9" x1="800" y1="765.36" x2="800" y2="900"/><line class="cls-9" x1="826.95" y1="765.36" x2="858.74" y2="900"/><line class="cls-9" x1="853.91" y1="765.36" x2="917.49" y2="900"/><line class="cls-9" x1="880.86" y1="765.36" x2="976.23" y2="900"/><line class="cls-9" x1="907.82" y1="765.36" x2="1034.97" y2="900"/><line class="cls-9" x1="934.77" y1="765.36" x2="1093.72" y2="900"/><line class="cls-9" x1="961.73" y1="765.36" x2="1152.46" y2="900"/><line class="cls-9" x1="988.68" y1="765.36" x2="1211.2" y2="900"/><line class="cls-9" x1="1015.64" y1="765.36" x2="1269.95" y2="900"/><line class="cls-9" x1="1042.59" y1="765.36" x2="1328.69" y2="900"/><line class="cls-9" x1="1069.54" y1="765.36" x2="1387.43" y2="900"/><line class="cls-9" x1="1096.5" y1="765.36" x2="1446.18" y2="900"/><line class="cls-9" x1="1123.45" y1="765.36" x2="1504.92" y2="900"/><line class="cls-9" x1="1563.66" y1="900" x2="1150.41" y2="765.36"/><line class="cls-9" x1="1177.36" y1="765.36" x2="1622.4" y2="900"/><line class="cls-9" x1="1204.32" y1="765.36" x2="1681.15" y2="900"/><line class="cls-9" x1="1231.27" y1="765.36" x2="1739.89" y2="900"/><line class="cls-9" x1="1258.23" y1="765.36" x2="1798.63" y2="900"/><line class="cls-9" x1="1285.18" y1="765.36" x2="1857.38" y2="900"/><line class="cls-9" x1="1312.13" y1="765.36" x2="1916.12" y2="900"/><line class="cls-9" x1="1339.09" y1="765.36" x2="1974.86" y2="900"/><line class="cls-9" x1="1366.04" y1="765.36" x2="2033.61" y2="900"/><line class="cls-9" x1="1393" y1="765.36" x2="2092.35" y2="900"/><line class="cls-9" x1="1419.95" y1="765.36" x2="2151.09" y2="900"/><line class="cls-9" x1="1446.91" y1="765.36" x2="2209.84" y2="900"/><line class="cls-9" x1="1473.86" y1="765.36" x2="2268.58" y2="900"/><line class="cls-9" x1="1500.82" y1="765.36" x2="2327.32" y2="900"/><line class="cls-9" x1="1527.77" y1="765.36" x2="2386.07" y2="900"/><line class="cls-9" x1="1554.72" y1="765.36" x2="2444.81" y2="900"/><line class="cls-9" x1="1581.68" y1="765.36" x2="2503.55" y2="900"/><line class="cls-9" x1="233.96" y1="765.36" x2="-433.61" y2="900"/><line class="cls-9" x1="207" y1="765.36" x2="-492.35" y2="900"/><line class="cls-9" x1="180.05" y1="765.36" x2="-551.09" y2="900"/><line class="cls-9" x1="153.09" y1="765.36" x2="-609.84" y2="900"/><line class="cls-9" x1="126.14" y1="765.36" x2="-668.58" y2="900"/><line class="cls-9" x1="99.18" y1="765.36" x2="-727.32" y2="900"/><line class="cls-9" x1="72.23" y1="765.36" x2="-786.07" y2="900"/><line class="cls-9" x1="45.28" y1="765.36" x2="-844.81" y2="900"/><line class="cls-9" x1="18.32" y1="765.36" x2="-903.55" y2="900"/><line class="cls-9" x1="530.46" y1="765.36" x2="212.57" y2="900"/><line class="cls-9" x1="503.5" y1="765.36" x2="153.82" y2="900"/><line class="cls-9" x1="476.55" y1="765.36" x2="95.08" y2="900"/><line class="cls-9" x1="36.34" y1="900" x2="449.59" y2="765.36"/><line class="cls-9" x1="422.64" y1="765.36" x2="-22.4" y2="900"/><line class="cls-9" x1="395.68" y1="765.36" x2="-81.15" y2="900"/><line class="cls-9" x1="368.73" y1="765.36" x2="-139.89" y2="900"/><line class="cls-9" x1="341.77" y1="765.36" x2="-198.63" y2="900"/><line class="cls-9" x1="314.82" y1="765.36" x2="-257.38" y2="900"/><line class="cls-9" x1="287.87" y1="765.36" x2="-316.12" y2="900"/><line class="cls-9" x1="260.91" y1="765.36" x2="-374.86" y2="900"/><line class="cls-9" x1="1059.64" y1="773.38" x2="1030.79" y2="773.38"/><line class="cls-9" x1="1117.34" y1="773.38" x2="1088.49" y2="773.38"/><line class="cls-9" x1="1175.04" y1="773.38" x2="1146.19" y2="773.38"/><line class="cls-9" x1="1232.73" y1="773.38" x2="1203.88" y2="773.38"/><line class="cls-9" x1="1290.43" y1="773.38" x2="1261.58" y2="773.38"/><line class="cls-9" x1="1348.13" y1="773.38" x2="1319.28" y2="773.38"/><line class="cls-9" x1="1001.94" y1="773.38" x2="973.09" y2="773.38"/><line class="cls-9" x1="944.24" y1="773.38" x2="915.47" y2="773.38"/><line class="cls-9" x1="886.55" y1="773.38" x2="857.7" y2="773.38"/><line class="cls-9" x1="828.85" y1="773.38" x2="800" y2="773.38"/><line class="cls-9" x1="771.14" y1="773.38" x2="742.3" y2="773.38"/><line class="cls-9" x1="713.45" y1="773.38" x2="684.6" y2="773.38"/><line class="cls-9" x1="655.76" y1="773.38" x2="626.91" y2="773.38"/><line class="cls-9" x1="598.01" y1="773.38" x2="569.21" y2="773.38"/><line class="cls-9" x1="540.36" y1="773.38" x2="511.51" y2="773.38"/><line class="cls-9" x1="482.59" y1="773.38" x2="453.81" y2="773.38"/><line class="cls-9" x1="424.82" y1="773.38" x2="396.12" y2="773.38"/><line class="cls-9" x1="367.27" y1="773.38" x2="338.42" y2="773.38"/><line class="cls-9" x1="309.57" y1="773.38" x2="280.72" y2="773.38"/><line class="cls-9" x1="251.52" y1="773.38" x2="234" y2="773.38"/><line class="cls-9" x1="1068.28" y1="879.29" x2="1015.41" y2="879.29"/><line class="cls-9" x1="1176.97" y1="879.29" x2="1123.12" y2="879.29"/><line class="cls-9" x1="1284.67" y1="879.29" x2="1230.82" y2="879.29"/><line class="cls-9" x1="1366" y1="879.29" x2="1338.53" y2="879.29"/><line class="cls-9" x1="961.56" y1="879.29" x2="907.78" y2="879.29"/><line class="cls-9" x1="853.85" y1="879.29" x2="800" y2="879.29"/><line class="cls-9" x1="746.15" y1="879.29" x2="692.29" y2="879.29"/><line class="cls-9" x1="638.44" y1="879.29" x2="584.59" y2="879.29"/><line class="cls-9" x1="530.77" y1="879.29" x2="476.91" y2="879.29"/><line class="cls-9" x1="423.03" y1="879.29" x2="369.24" y2="879.29"/><line class="cls-9" x1="315.33" y1="879.29" x2="261.56" y2="879.29"/><line class="cls-9" x1="1031.34" y1="814.56" x2="992.86" y2="814.56"/><line class="cls-9" x1="1108.57" y1="814.56" x2="1070" y2="814.56"/><line class="cls-9" x1="1185.71" y1="814.56" x2="1147.14" y2="814.56"/><line class="cls-9" x1="1262.84" y1="814.56" x2="1224.28" y2="814.56"/><line class="cls-9" x1="1339.97" y1="814.56" x2="1301.4" y2="814.56"/><line class="cls-9" x1="954.28" y1="814.56" x2="915.71" y2="814.56"/><line class="cls-9" x1="877.14" y1="814.56" x2="838.57" y2="814.56"/><line class="cls-9" x1="800" y1="814.56" x2="761.43" y2="814.56"/><line class="cls-9" x1="722.86" y1="814.56" x2="684.29" y2="814.56"/><line class="cls-9" x1="645.72" y1="814.56" x2="607.14" y2="814.56"/><line class="cls-9" x1="568.57" y1="814.56" x2="530.1" y2="814.56"/><line class="cls-9" x1="491.43" y1="814.56" x2="452.86" y2="814.56"/><line class="cls-9" x1="414.29" y1="814.56" x2="375.72" y2="814.56"/><line class="cls-9" x1="337.15" y1="814.56" x2="298.57" y2="814.56"/><line class="cls-9" x1="260" y1="814.56" x2="224.95" y2="814.56"/></g></g><rect class="cls-10" y="731.18" width="1600" height="34.18"/><g class="cls-11"><g class="cls-8"><line class="cls-9" x1="1853.96" y1="765.33" x2="1186.39" y2="899.98"/><line class="cls-9" x1="1827" y1="765.33" x2="1127.65" y2="899.98"/><line class="cls-9" x1="1800.05" y1="765.33" x2="1068.91" y2="899.98"/><line class="cls-9" x1="1773.09" y1="765.33" x2="1010.16" y2="899.98"/><line class="cls-9" x1="1746.14" y1="765.33" x2="951.42" y2="899.98"/><line class="cls-9" x1="1719.18" y1="765.33" x2="892.68" y2="899.98"/><line class="cls-9" x1="1692.23" y1="765.33" x2="833.93" y2="899.98"/><line class="cls-9" x1="1665.28" y1="765.33" x2="775.19" y2="899.98"/><line class="cls-9" x1="1638.32" y1="765.33" x2="716.45" y2="899.98"/><line class="cls-9" x1="2042.64" y1="765.33" x2="1597.6" y2="899.98"/><line class="cls-9" x1="2015.68" y1="765.33" x2="1538.85" y2="899.98"/><line class="cls-9" x1="1988.73" y1="765.33" x2="1480.11" y2="899.98"/><line class="cls-9" x1="1961.77" y1="765.33" x2="1421.37" y2="899.98"/><line class="cls-9" x1="1934.82" y1="765.33" x2="1362.62" y2="899.98"/><line class="cls-9" x1="1907.87" y1="765.33" x2="1303.88" y2="899.98"/><line class="cls-9" x1="1880.91" y1="765.33" x2="1245.14" y2="899.98"/></g></g><g class="cls-12"><rect class="cls-13" x="1650.45" y="333.39" width="209.32" height="390.92" transform="translate(140.1 1395.95) rotate(-45)"/><rect class="cls-14" x="1380.29" y="605.46" width="205.5" height="390.92" transform="translate(-131.97 1283.26) rotate(-45)"/><rect class="cls-15" x="1527.24" y="414.02" width="177.35" height="498.13" rx="50.09" ry="50.09" transform="translate(4.42 1336.84) rotate(-45)"/><path class="cls-16" d="M1789.58,354.92a69.76,69.76,0,0,0-98.67,0L1562,483.79,1740.25,662v38.29a139.57,139.57,0,0,0,0-197.36l49.33-49.34A69.76,69.76,0,0,0,1789.58,354.92Z"/><path class="cls-13" d="M1542.89,464.65A139.55,139.55,0,1,1,1740.25,662Z"/><rect class="cls-13" x="1596.46" y="335.32" width="139.55" height="209.32" transform="translate(799.14 -1049.34) rotate(45)"/></g></g></g></svg>