<svg version="1.1" id="Layer_1" xmlns="http://www.w3.org/2000/svg" xmlns:xlink="http://www.w3.org/1999/xlink" x="0" y="0" viewBox="0 0 200 250" xml:space="preserve"><style>.st0{fill:#898f95}.st1{fill:#b8bcc2}.st2{fill:#5c01e4}.st3{fill:#fff}.st5{fill:#e1632d}.st8{fill:#fff;stroke:#fff;stroke-width:.2477;stroke-linejoin:round;stroke-miterlimit:10}.st12{fill:#8a9096}.st13{fill:#b9bdc3}.st14{fill:#3a058d}.st15{fill:#4900b8}.st16{fill:#9d87f5}.st17{fill:#c3b9fc}.st18{opacity:.5;fill:#55b2ff}.st19,.st20,.st21{fill:none;stroke-linecap:round;stroke-miterlimit:10}.st19{stroke:#c3b9fc;stroke-width:.6885;stroke-linejoin:round}.st20,.st21{stroke:#4900b8;stroke-width:.9951}.st21{stroke:#dbf3fb;stroke-width:.3732}.st22{fill:#cef}.st23{fill:#dbd7ff}.st24{opacity:.5;fill:#fff}.st25{fill:none;stroke:#4900b8;stroke-width:1.1057;stroke-linecap:round;stroke-miterlimit:10}.st26{opacity:.2;enable-background:new}.st27{fill:#f99564}.st28{fill:#fff073}.st29{fill:#69c76e}.st30{fill:#1f9650}.st31{fill:#18834b}.st32{opacity:.5;fill:#fff;enable-background:new}</style><path class="st0" d="M77.5 129.8l5.2-.4.9-4.4-1.4-3.8-1.1-.6-5.1.3-2.3 4.6 2.8 4.3h1zm3-3.7c-.4.8-1.2 1.2-2 1-.6-.6-.9-1.3-1.2-2.1-.9-2.4 1.2-2.3 2.9-1.2.6.7.7 1.6.3 2.3z"/><path class="st1" d="M78.2 124.3c.5-1 1.7-1.3 2.6-.9 1 .5 1.3 1.7.9 2.6-.5 1-1.7 1.3-2.6.9-1-.5-1.4-1.6-.9-2.6zm4.5 5.2l2.3-4.6-2.8-4.3-5.1.3-2.3 4.6 2.8 4.3 5.1-.3z"/><ellipse transform="rotate(-42.439 136.01 120.012)" class="st2" cx="136" cy="120" rx="4.4" ry="5.3"/><ellipse transform="rotate(-42.439 136.782 119.23)" class="st3" cx="136.8" cy="119.2" rx="4.4" ry="5.3"/><path class="st0" d="M77.9 60.4l4.2 2.5 3.1-2.9 1-3.7-.6-1-4.1-2.5-4.2 2.3-.1 4.8.7.5zm4.3-1.3c-.7.4-1.5.2-2.1-.3-.1-.7 0-1.5.2-2.3.6-2.3 2.2-1.1 2.8.6.1.9-.2 1.7-.9 2z"/><path class="st1" d="M81.4 56.5c.9-.5 2-.1 2.5.7.5.9.1 2-.7 2.5-.9.5-2 .1-2.5-.7-.5-.9-.2-2 .7-2.5zm.7 6.4l4.2-2.3.1-4.8-4.1-2.5-4.2 2.3-.1 4.8 4.1 2.5z"/><g id="XMLID_53_"><path transform="rotate(-51.582 82.498 116.13)" class="st1" d="M81.7 110.1h1.6v12h-1.6z"/><path class="st1" d="M86.7 120.5l1-1.3 1.4.4-1.7 2.2z"/><path class="st1" d="M89.5 122.7l1-1.3-1.4-1.8-1.7 2.2z"/><path d="M72.8 108.4c1-1.2 2.7-1.4 3.9-.5l4.4 3.5c1.2 1 1.4 2.7.5 3.9-1 1.2-2.7 1.4-3.9.5l-4.4-3.5c-1.3-.9-1.5-2.7-.5-3.9z" fill="#f73"/><path class="st5" d="M76.7 108.5c.2-.2.4-.2.6-.1l4.4 3.5c.2.2.2.4.1.6-.2.2-.4.2-.6.1l-4.4-3.5c-.2-.1-.3-.4-.1-.6zM76.5 111.4c.2-.2.4-.2.6-.1l4.4 3.5c.2.2.2.4.1.6-.2.2-.4.2-.6.1l-4.4-3.5c-.2-.2-.2-.4-.1-.6zM73.9 112.3c.2-.2.4-.2.6-.1l4.4 3.5c.2.2.2.4.1.6-.2.2-.4.2-.6.1l-4.4-3.5c-.2-.1-.2-.4-.1-.6z"/><circle class="st5" cx="74.1" cy="109.5" r="2.1"/></g><g><defs><path id="SVGID_1_" d="M118.9 181.4h35v26.2h-35z"/></defs><clipPath id="SVGID_2_"><use xlink:href="#SVGID_1_" overflow="visible"/></clipPath><g clip-path="url(#SVGID_2_)"><path d="M153.9 182.8h-35.1v11.3h35.1v-11.3z" fill="#333"/><path class="st8" d="M146.5 181.6c-1.7 0-3.1 1.4-3.1 3.1 0 1.1.6 2 1.4 2.6v9.3c-.9.6-1.5 1.6-1.4 2.7 0 1.3.6 2.4 1.9 2.9v-3h2.8v3c1.2-.5 1.9-1.6 1.9-2.9 0-1.2-.7-2.3-1.8-2.8v-9.1c.9-.6 1.5-1.5 1.4-2.6.1-1.9-1.3-3.3-3.1-3.2zm0 1.6l1.1.7v1.4l-1.1.7-1.1-.7v-1.4l1.1-.7zM139.7 199c0-1.1-.6-2.1-1.4-2.6v-9.1c1.1-.5 1.7-1.6 1.8-2.8 0-1.3-.6-2.4-1.9-2.9v3h-2.8v-3c-1.3.5-1.9 1.6-1.9 2.9 0 1.1.6 2.1 1.4 2.7v9.3c-.9.5-1.4 1.5-1.4 2.6 0 1.7 1.4 3.1 3.1 3.1 1.7-.2 3.1-1.5 3.1-3.2zm-4.3.7v-1.4l1.1-.7 1.1.7v1.4l-1.1.7-1.1-.7z"/><path d="M131 183v2.3c0 .3-.2.6-.5.6h-1.4c-.3 0-.6-.3-.6-.6h0c0-.3-.3-.6-.6-.6h-.5v14.7h-2v-14.7h-.3l-2.6.7c-.5.1-.9-.5-.6-.9.8-1 2.6-2.3 6-2.3h2.5c.4.3.6.5.6.8z" fill="#fff" stroke="#fff" stroke-width=".222" stroke-linejoin="round" stroke-miterlimit="10"/><path d="M153.9 190.4h-35.1v17.3h35.1v-17.3z" fill="#d94537"/></g></g><g><path d="M144.5 221.3c.1 0 .1.1.2.1l8.4 4.2c.9.4 1.9.1 2.3-.8.4-.9.1-1.9-.8-2.3l-8.4-4.2c-.1 0-.1-.1-.2-.1 0-1.5-.8-3-2.2-3.7-1.5-.7-3.2-.5-4.4.6l3.3 1.7-1.4 2.8-3.3-1.7c-.1 1.6.7 3.1 2.2 3.9 1.5.6 3.1.4 4.3-.5z" fill="#74797e"/><path class="st1" d="M144 220c.1 0 .1.1.2.1l8.4 4.2c.9.4 1.9.1 2.3-.8.4-.9.1-1.9-.8-2.3l-8.4-4.2c-.1 0-.1-.1-.2-.1 0-1.5-.8-3-2.2-3.7-1.5-.7-3.2-.5-4.4.6l3.3 1.7-1.4 2.8-3.3-1.7c-.1 1.6.7 3.1 2.2 3.9 1.4.7 3.1.4 4.3-.5z"/></g><g><path class="st12" d="M148.2 153.8c-.6-1.6-2.4-2.4-4-1.8-1 .4-1.7 1.3-1.9 2.2l-8.7 3.2c-.9-.6-2-.8-3-.4-1.2.5-2 1.4-2 2.8l2.8-1.1 1 2.6-2.8 1.1c.9 1 2.2 1.2 3.4.7 1.2-.4 1.9-1.5 2-2.6l8.5-3.2c.8.6 1.9.8 3 .4 1.6-.5 2.4-2.3 1.7-3.9zm-1.5.6l-.3 1.3-1.3.5-1.1-.8.3-1.3 1.3-.5 1.1.8z"/><path class="st13" d="M149.2 153.5c-.6-1.6-2.4-2.4-4-1.8-1 .4-1.7 1.3-1.9 2.2l-8.7 3.2c-.9-.6-2-.8-3-.4-1.2.5-2 1.4-2 2.8l2.8-1.1 1 2.6-2.8 1.1c.9 1 2.2 1.2 3.4.7 1.2-.4 1.9-1.5 2-2.6l8.5-3.2c.8.6 1.9.8 3 .4 1.5-.6 2.3-2.3 1.7-3.9zm-1.6.5l-.3 1.3-1.3.5-1-.8.3-1.3 1.3-.5 1 .8z"/><path class="st14" d="M94.4 57L83.5 69.6 78 86.5l10.7-5.8z"/><path class="st15" d="M73.9 68.4l-4.6 11.7c-.5 1.3.1 2.8 1.4 3.3l7.2 3.1 5.5-16.9-6.1-2.6c-1.3-.6-2.8.1-3.4 1.4zm7.2 2.7L77 83.6l-4.2-1.8c-.9-.4-1.4-1.5-1-2.4l3.4-8.7c.4-1 1.5-1.5 2.5-1.1l3.4 1.5z"/><path class="st16" d="M82.3 78l-2.1 5.1-.2.7-5.1-2.3c-.6-.3-.9-1-.7-1.6l1.2-3.3c0-.1.1-.2.1-.3.3-.5 1-.7 1.6-.5l5.2 2.2z"/><path class="st17" d="M85.4 79.3l-2.1 5.1-8.2-3.6c-.6-.3-.9-1-.7-1.6l1.1-2.8c.3-.5 1-.7 1.6-.5l8.3 3.4z"/><path class="st16" d="M85 70.8l-2 5.1-.3.7-5.1-2.3c-.6-.3-.9-1-.7-1.6l1.2-3.3c0-.1.1-.2.1-.3.3-.5 1-.7 1.6-.5l5.2 2.2z"/><path class="st17" d="M90.2 73l-2.1 5.1-10.3-4.5c-.6-.3-.9-1-.7-1.6l1.1-2.8c.3-.5 1-.7 1.6-.5L90.2 73z"/><path class="st16" d="M90.4 76.6l-2.1 5.1-.3.7-9-4c-.6-.3-.9-1-.7-1.6l1.2-3.3c0-.1.1-.2.1-.3.3-.5 1-.7 1.6-.5l9.2 3.9z"/><path class="st17" d="M90.4 76.6l-2.1 5.1-9-4c-.6-.3-.9-1-.7-1.6l1.1-2.8c.3-.5 1-.7 1.6-.5l9.1 3.8z"/><path class="st16" d="M91 67.7l-2 5.1-.3.7-7.5-3.3c-.6-.3-.9-1-.7-1.6l1.2-3.3c0-.1.1-.2.1-.3.3-.5 1-.7 1.6-.5l7.6 3.2z"/><path class="st17" d="M91 67.7l-2 5.1-7.4-3.3c-.6-.3-.9-1-.7-1.6l1.1-2.8c.3-.5 1-.7 1.6-.5l7.4 3.1z"/><path class="st2" d="M108.2 48.4l1 .4c-.3 2.9 2.3 4.6 2.3 4.6l-1.4 9.2-.4 2.4-.8-.3-.4.6c-1.1-.7-2.1-.2-2.1-.2s-.1 1.3-.2 2.3c-.1.6-.4 1.2-.7 1.5l-.2.2-1.2 1.3s-.7-.2-1.5-.3c-.9-.1-1.6.7-1.6.7s-1.2 1.2-2.2 2.4c-.9 1.5-.4 2.7-.4 2.7l2.1 4.3-5.4 5.6s-2.1-1-4.3-1.2c-1.7-.1-3.4.3-4.5 2-1.3 2.1.1 4 1.5 5.1.9.7 1.7 1.2 1.7 1.2l-.3.4-1.7-.8-2.1-1 .6-1.3-.6-.2-4.4-1.9-3-1.6 1.5-1.5.8-2 1.2.5 2.4-2.6 3.3-.5h.1l.1-.1 2.1-2.8-1.8-.8.6-2.4 1.2-1.6c.2-5 3.3-12.8 3.2-13.4-.2-.9.5-1.4.5-1.4l.4-1.3.9.4s6.9-6.3 7.2-6.5c.8-.6 1.7-.3 1.7-.3s.3-.9.6-1.3c.3-.6 1.3-.8 2.3-.5.9.3 1.9 0 1.9 0z"/><path class="st2" d="M87.3 80.3l-.1.1-5.9 7.5 4.3 2-4.4-2-3.2-1.4 1.5-1.4.8-2.1 1.2.6 2.3-2.7 3.3-.5h.1z"/><path class="st18" d="M87.7 92.5l.3-.7c.9.7 1.7 1.2 1.7 1.2l-.4.3-1.6-.8z"/><path class="st14" d="M88.4 82.7l6.3 1.8-.7.7-6 6.5-.4.4-2.1-.9.6-1.1-.6-.2-2.3-1s0-.9.4-2.2l3.7-3.9 1.1-.1zM107.8 71.5l-7.4 7.9-.7-.3c-2.9-1.2-3.7-5-1.6-7.4l2.9-3.1 6.8 2.9z"/><path class="st15" d="M105.7 68.8l-.2.2-1.2 1.3s-.7-.2-1.5-.3c-.9-.1-1.6.7-1.6.7s-1.2 1.2-2.2 2.4c-.9 1.5-.4 2.7-.4 2.7l2.1 4.3-5.4 5.6s-.5-.3-1.3-.5c-2-.7-5.7-1.5-7.5 1.4-1.3 2.1.1 4 1.4 5.1.9.8 1.7 1.2 1.7 1.2l-.5.7-4-1.9.3-.5.6-1.1-.6-.2-2.3-1s0-.9.4-2.2c.3-.7.7-1.5 1.4-2.3.7-.8 1.5-1.3 2.3-1.6.6-.3 1.3-.4 2-.5 2.1-.3 4.2.2 4.9.4l2.7-2.9-2-3.6s-.4-.9.1-1.8 4.6-5.6 4.6-5.6 1-1.1 2.6-.6c1 .2 2.6.5 3.6.6z"/><path class="st19" d="M62.3 79.6l19 8"/><circle class="st3" cx="62.1" cy="79.4" r="1.5"/><path class="st16" d="M98.4 64.9s.9-9.6 1.9-12c0 0-5.7 4.1-7 8.9-1.3 4.7-.7 6.1.2 6.3.8.2 3.1-1.4 4.9-3.2z"/><path class="st18" d="M109.7 64.9l-3.4 2c.1-.9.2-1.9.2-1.9s1-.5 2.1.2l.4-.6.7.3z"/><path class="st14" d="M113.4 48.9l-4 24.6-5.3-2.2 4.1-24.6z"/><path class="st16" d="M116.1 50.1v.3l-2.7-1.2c.1-.4.5-.7.9-.5l1.5.6c.2.2.3.5.3.8zM108.2 69.9s1.7-1.5 2.5-4.4l2.7 1.2s-.9 2.8-2.5 4.4c0-.1-2.6-1.2-2.7-1.2z"/><path class="st17" d="M99.5 61.2s-.1-3.7 2.3-9.5c.4-.8 1.1-1.1 1.8-1.1.6 0 1.3.2 1.8.6.5.3 1 .8 1.2 1.3l2.1 1c.9.4 1.4 1.4 1.3 2.4-.2 1.3-.8 5-1 6.5-.1 1-1.2 1.6-2.1 1.3l-1-.4-2.4.8s-1.2.5-2.4-.2c-1.3-.8-1.6-2.3-1.6-2.7z"/><path class="st20" d="M101.6 58.6l6.4 2.7M102.1 56.1l6.4 2.7M102.5 53.6l6.4 2.7"/><ellipse transform="rotate(-60.954 108.39 62.653)" class="st2" cx="108.4" cy="62.7" rx="1.3" ry="1.6"/><ellipse transform="rotate(-60.954 108.56 62.348)" class="st3" cx="108.6" cy="62.3" rx="1.3" ry="1.6"/><ellipse transform="rotate(-60.954 109.639 54.388)" class="st2" cx="109.6" cy="54.4" rx="1.3" ry="1.6"/><ellipse transform="rotate(-60.954 109.808 54.083)" class="st3" cx="109.8" cy="54.1" rx="1.3" ry="1.6"/><path class="st17" d="M116 50.4l-2.6 16.2-2.7-1.1 2.6-16.2z"/><circle class="st16" cx="111" cy="61.7" r=".5"/><circle class="st16" cx="114.4" cy="63.2" r=".5"/><path transform="rotate(-67.094 112.69 62.462)" class="st16" d="M112.2 60.6h1v3.8h-1z"/><circle class="st16" cx="112.7" cy="51.5" r=".5"/><circle class="st16" cx="116.2" cy="52.9" r=".5"/><path transform="rotate(-67.094 114.45 52.19)" class="st16" d="M113.9 50.3h1v3.8h-1z"/><path class="st16" d="M116.1 54.7l-.8 4.7c-.1.4-.5.6-.8.5-.3-.1-.4-.4-.4-.6l.8-4.7c.1-.4.5-.6.8-.5.3 0 .4.3.4.6zM114.7 54.4l-.8 5c0 .1-.2.2-.3.1-.1 0-.1-.1-.1-.2l.8-5c0-.1.2-.2.3-.1 0 0 .1.1.1.2z"/><ellipse transform="rotate(-67.094 87.192 74.903)" class="st16" cx="87.2" cy="74.9" rx="1.4" ry="1.7"/><path class="st21" d="M88.5 75.1l.8.3"/><ellipse transform="rotate(-67.094 87.372 74.479)" class="st22" cx="87.4" cy="74.5" rx="1.4" ry="1.7"/><ellipse transform="rotate(-67.094 87.372 74.479)" class="st23" cx="87.4" cy="74.5" rx="1.4" ry="1.7"/><circle class="st2" cx="103.1" cy="74.2" r="1.6"/><circle class="st15" cx="103.2" cy="74.9" r="1.6"/><circle class="st2" cx="90.7" cy="88.4" r="1.6"/><circle class="st15" cx="90.7" cy="89" r="1.6"/><g><path class="st14" d="M102 92.1l15.5 6.2 12.6 12.5-12.2-.2z"/><path class="st15" d="M121.7 93.2l-4.3 5.1 12.7 12.5 5-6c.9-1.1.8-2.7-.3-3.6l-9.5-8.3c-1-1-2.6-.8-3.6.3zm.9 2.5c.7-.8 1.9-.9 2.7-.2l7 6.1c.8.7.9 1.9.2 2.6l-2.9 3.5-9.4-9.2 2.4-2.8z"/><path class="st16" d="M122.3 105.2l4.2 3.6.6.5 3.5-4.4c.4-.5.4-1.3-.1-1.8l-2.6-2.3-.2-.2c-.5-.3-1.2-.2-1.6.3l-3.8 4.3z"/><path class="st17" d="M120.2 107.8l4.2 3.6 5.6-7c.4-.5.4-1.3-.1-1.8l-2.2-2c-.5-.3-1.2-.2-1.6.3l-5.9 6.9z"/><path class="st16" d="M116.6 100.1l4.2 3.6.6.5 3.5-4.4c.4-.5.4-1.3-.1-1.8l-2.6-2.3-.2-.2c-.5-.3-1.2-.2-1.6.3l-3.8 4.3z"/><path class="st17" d="M113 104.4l4.2 3.6 7.1-8.8c.4-.5.4-1.3-.1-1.8l-2.2-2c-.5-.3-1.2-.2-1.6.3l-7.4 8.7z"/><path class="st16" d="M114.6 107.7l4.2 3.6.6.5 6.1-7.7c.4-.5.4-1.3-.1-1.8l-2.6-2.3-.2-.2c-.5-.3-1.2-.2-1.6.3l-6.4 7.6z"/><path class="st17" d="M114.6 107.7l4.2 3.6 6.1-7.7c.4-.5.4-1.3-.1-1.8l-2.2-2c-.5-.3-1.2-.2-1.6.3l-6.4 7.6z"/><path class="st16" d="M109.9 100.1l4.2 3.6.6.5 5.1-6.3c.4-.5.4-1.3-.1-1.8l-2.6-2.3-.2-.2c-.5-.3-1.2-.2-1.6.3l-5.4 6.2z"/><path class="st17" d="M109.9 100.1l4.2 3.6 5.1-6.3c.4-.5.4-1.3-.1-1.8l-2.2-2c-.5-.3-1.2-.2-1.6.3l-5.4 6.2z"/><path class="st2" d="M85.8 90.8l-.7.8c1.6 2.4 0 5.1 0 5.1l5.5 7.5 1.4 1.9.5-.6.6.4c.6-1.2 1.7-1.1 1.7-1.1s.7 1.1 1.3 1.9c.4.5 1 .9 1.3 1.1.2.1.3.1.3.1l1.6.6s.5-.5 1.2-1 1.8-.1 1.8-.1 1.6.5 3.1 1.2c1.5.9 1.6 2.2 1.6 2.2l.1 4.8 7.3 2.5s1.4-1.9 3.3-3c1.4-.9 3.2-1.3 4.9-.3 2.1 1.3 1.7 3.6 1.1 5.2-.4 1.1-1 1.8-1 1.8l.4.2 1.1-1.5 1.4-1.9-1.1-.9.4-.5 3-3.8 2.2-2.7-2-.6-1.6-1.4-.8 1-3.3-1.2-3.1 1.1h-.1l-.1-.1-3.2-1.5 1.2-1.5-1.7-1.9-1.8-.9c-2.5-4.4-8.8-9.8-9-10.4-.2-.9-1.1-1-1.1-1l-.9-1-.6.7s-9-2.4-9.4-2.4c-1-.1-1.7.5-1.7.5s-.7-.6-1.2-.9c-.5-.4-1.6-.1-2.2.6s-1.7 1-1.7 1z"/><path class="st2" d="M119 109.6h.1l8.7 4-2.9 3.7 3.1-3.8 2.1-2.7-2-.6-1.6-1.4-.8 1-3.3-1.3-3.2 1.1h-.1z"/><path class="st18" d="M124.2 120.6l-.6-.5c-.4 1.1-1 1.8-1 1.8l.5.1 1.1-1.4z"/><path class="st14" d="M119.2 112.2l-4.7 4.5.9.3 8.4 3 .5.2 1.5-1.8-1.1-.7.4-.5 1.6-1.9s-.4-.9-1.4-1.7l-5.1-1.8-1 .4zM96.8 111.2l10.2 3.6.5-.6c2-2.5 1-6.2-2-7.3l-4-1.4-4.7 5.7z"/><path class="st15" d="M97.4 107.8c.2.1.3.1.3.1l1.6.6s.5-.5 1.2-1 1.8-.1 1.8-.1 1.6.5 3.1 1.2c1.5.9 1.6 2.2 1.6 2.2l.1 4.8 7.3 2.5s.3-.5.9-1c1.4-1.5 4.4-4 7.3-2.2 2.1 1.3 1.7 3.6 1.1 5.2-.4 1.1-1 1.9-1 1.9l.8.3 2.6-3.5-.5-.3-1.1-.7.4-.5 1.6-1.9s-.4-.9-1.4-1.7c-.6-.5-1.3-1.1-2.3-1.4-.9-.4-1.9-.5-2.8-.4-.7.1-1.3.2-2 .5-2 .7-3.6 2.1-4.1 2.6l-3.7-1.4.1-4.1s-.1-1-1-1.5-6.6-2.9-6.6-2.9-1.4-.5-2.6.6c-.6.6-1.9 1.5-2.7 2.1z"/><path class="st19" d="M140.9 97.4l-13.2 15.9"/><circle class="st3" cx="141" cy="97.1" r="1.5"/><path class="st16" d="M102.1 101.1s-5.2-8.1-7.2-9.8c0 0 6.9 1 10.3 4.7 3.3 3.6 3.4 5.1 2.7 5.7-.6.5-3.4.1-5.8-.6z"/><path class="st18" d="M92 106.3l3.9.2c-.5-.7-1-1.6-1-1.6s-1.1 0-1.7 1.1l-.6-.4-.6.7z"/><path class="st14" d="M81.4 93.7l14.9 20 3.6-4.4L85 89.4z"/><path class="st16" d="M79.6 96l.2.3 1.9-2.3c-.2-.3-.8-.4-1 0l-1 1.3c-.3.2-.3.5-.1.7zM95.6 109.9s-2.2-.6-4.2-2.8l-1.9 2.3s2.1 2 4.3 2.7c0 .1 1.8-2.1 1.8-2.2z"/><path class="st17" d="M99.4 98.2s-1.6-3.3-6.4-7.4c-.7-.6-1.5-.4-2.1-.2-.6.3-1 .7-1.3 1.3-.3.5-.5 1.2-.5 1.7l-1.4 1.9c-.6.8-.6 1.9 0 2.7.8 1 3 4.1 3.9 5.3.6.8 1.8.9 2.5.2l.7-.8 2.4-.4s1.3-.1 2-1.3c.8-1.2.4-2.6.2-3z"/><path class="st20" d="M96.3 96.9l-4.4 5.3M94.7 94.9l-4.4 5.3M93.2 92.8l-4.4 5.4"/><ellipse transform="rotate(-56.461 92.165 103.62)" class="st2" cx="92.2" cy="103.6" rx="1.6" ry="1.3"/><ellipse transform="rotate(-56.461 91.875 103.428)" class="st3" cx="91.9" cy="103.4" rx="1.6" ry="1.3"/><ellipse transform="rotate(-56.461 87.251 96.859)" class="st2" cx="87.2" cy="96.9" rx="1.6" ry="1.3"/><ellipse transform="rotate(-56.461 86.96 96.666)" class="st3" cx="87" cy="96.7" rx="1.6" ry="1.3"/><path class="st17" d="M79.8 96.3l9.7 13.2 1.9-2.3L81.7 94z"/><circle class="st16" cx="89.5" cy="104" r=".5"/><circle class="st16" cx="87.1" cy="106.9" r=".5"/><path transform="rotate(-140.318 88.262 105.424)" class="st16" d="M87.8 103.5h1v3.8h-1z"/><circle class="st16" cx="83.2" cy="95.7" r=".5"/><circle class="st16" cx="80.8" cy="98.6" r=".5"/><path transform="rotate(-140.318 81.97 97.116)" class="st16" d="M81.5 95.2h1V99h-1z"/><path class="st16" d="M81.7 100.1l2.9 3.9c.2.3.7.3.9 0 .2-.2.2-.5 0-.7l-2.9-3.9c-.2-.3-.7-.3-.9 0-.2.2-.2.5 0 .7zM82.8 99.1l3 4.1c.1.1.2.1.3 0 .1-.1.1-.2 0-.2l-3-4.1c-.1-.1-.2-.1-.3 0-.1.1-.1.2 0 .2z"/><ellipse transform="rotate(-50.32 116.626 104.732)" class="st16" cx="116.6" cy="104.7" rx="1.7" ry="1.4"/><path class="st21" d="M115.6 105.5l-.6.7"/><ellipse transform="rotate(-50.32 116.271 104.437)" class="st22" cx="116.3" cy="104.4" rx="1.7" ry="1.4"/><ellipse transform="rotate(-50.32 116.271 104.437)" class="st23" cx="116.3" cy="104.4" rx="1.7" ry="1.4"/><circle class="st2" cx="102.2" cy="111.5" r="1.6"/><circle class="st15" cx="102.4" cy="112.1" r="1.6"/><circle class="st2" cx="119.7" cy="118.3" r="1.6"/><circle class="st15" cx="120" cy="118.9" r="1.6"/></g><g><path class="st14" d="M99.2 82.2l16.7.2 16.3 7.2-11.5 4.1z"/><path class="st15" d="M118.1 76.1l-2.2 6.3 16.3 7.2 2.5-7.4c.5-1.3-.2-2.8-1.5-3.2l-11.8-4.4c-1.3-.6-2.8.2-3.3 1.5zm1.7 2.1c.3-1 1.5-1.5 2.5-1.2l8.7 3.3c1 .4 1.5 1.4 1.1 2.4l-1.5 4.3-12-5.3 1.2-3.5z"/><path class="st16" d="M122.9 87.1l5.2 1.9.7.3 1.7-5.4c.2-.6-.1-1.4-.7-1.6l-3.3-1.3c-.1 0-.2-.1-.3-.1-.6-.1-1.2.3-1.4.9l-1.9 5.3z"/><path class="st17" d="M121.8 90.3l5.2 1.9 2.8-8.5c.2-.6-.1-1.4-.7-1.6l-2.8-1.1c-.6-.1-1.2.3-1.4.9l-3.1 8.4z"/><path class="st16" d="M115.8 84.4l5.2 1.9.7.3 1.7-5.4c.2-.6-.1-1.4-.7-1.6l-3.3-1.3c-.1 0-.2-.1-.3-.1-.6-.1-1.2.3-1.4.9l-1.9 5.3z"/><path class="st17" d="M114 89.7l5.2 1.9 3.5-10.7c.2-.6-.1-1.4-.7-1.6l-2.8-1.1c-.6-.1-1.2.3-1.4.9L114 89.7z"/><path class="st16" d="M116.5 92.2l5.2 1.9.7.3 3-9.4c.2-.6-.1-1.4-.7-1.6l-3.3-1.3c-.1 0-.2-.1-.3-.1-.6-.1-1.2.3-1.4.9l-3.2 9.3z"/><path class="st17" d="M116.5 92.2l5.2 1.9 3-9.4c.2-.6-.1-1.4-.7-1.6l-2.8-1.1c-.6-.1-1.2.3-1.4.9l-3.3 9.3z"/><path class="st16" d="M109.5 86.8l5.2 1.9.7.3 2.5-7.7c.2-.6-.1-1.4-.7-1.6l-3.3-1.3c-.1 0-.2-.1-.3-.1-.6-.1-1.2.3-1.4.9l-2.7 7.6z"/><path class="st17" d="M109.5 86.8l5.2 1.9 2.5-7.7c.2-.6-.1-1.4-.7-1.6l-2.8-1.1c-.6-.1-1.2.3-1.4.9l-2.8 7.6z"/><path class="st2" d="M83.6 86.7l-.3 1c2.3 1.7 1.8 4.8 1.8 4.8l7.8 5.1 2 1.3.3-.8.7.1c.2-1.3 1.2-1.7 1.2-1.7s1.1.8 1.8 1.3c.5.4 1.2.5 1.6.5h2.1s.3-.7.8-1.4 1.7-.7 1.7-.7 1.6-.1 3.3 0c1.7.3 2.2 1.5 2.2 1.5l1.8 4.5 7.7-.3s.6-2.2 2-4c1-1.3 2.5-2.4 4.5-2 2.5.4 2.9 2.8 2.8 4.5 0 1.1-.3 2-.3 2h.5l.5-1.8.7-2.3-1.4-.5.2-.6 1.5-4.6 1.1-3.3-2.1.2-2-.8-.4 1.2h-3.6l-2.6 2.1-.1.1h-.1l-3.5-.3.6-1.9-2.2-1.1-2-.2c-3.9-3.2-11.8-6.1-12.1-6.6-.5-.8-1.4-.5-1.4-.5l-1.2-.6-.3.9s-9.3 1-9.7 1.1c-1 .2-1.4 1.1-1.4 1.1s-.9-.3-1.4-.4c-.6-.2-1.5.4-1.8 1.4-.3 1.2-1.3 1.7-1.3 1.7z"/><path class="st2" d="M121.4 92.4h.1l9.5.6-1.4 4.5 1.5-4.6 1.1-3.3-2.1.2-2-.8-.4 1.2h-3.6l-2.5 2.1-.1.1z"/><path class="st18" d="M130.2 100.8l-.7-.2c0 1.1-.3 2-.3 2h.5l.5-1.8z"/><path class="st14" d="M122.4 94.8l-2.8 5.9h.9l8.9-.2h.5l.8-2.2-1.2-.2.2-.6.8-2.4s-.7-.7-1.9-1.1l-5.4.1-.8.7zM101.1 101.8l10.8-.2.2-.7c1-3-1.3-6.1-4.4-6.1l-4.3.1-2.3 6.9z"/><path class="st15" d="M100.6 98.5h2.1s.3-.7.8-1.4 1.7-.7 1.7-.7 1.6-.1 3.3 0c1.7.3 2.2 1.5 2.2 1.5l1.8 4.5 7.7-.3s.1-.5.5-1.3c.8-1.9 2.7-5.3 6-4.7 2.4.4 2.9 2.7 2.8 4.5 0 1.2-.3 2.1-.3 2.1h.9l1.2-4.2-.5-.1-1.2-.2.2-.6.8-2.4s-.7-.7-1.9-1.1c-.7-.3-1.6-.5-2.6-.5s-1.9.2-2.8.6c-.6.3-1.2.7-1.7 1.1-1.6 1.4-2.6 3.3-2.9 3.9h-4l-1.4-3.9s-.4-.9-1.4-1.1c-1-.2-7.2-.4-7.2-.4s-1.5.1-2.2 1.5c-.6 1-1.4 2.3-1.9 3.2z"/><path class="st19" d="M137.5 73.3l-6.7 19.5"/><circle class="st3" cx="137.5" cy="73" r="1.5"/><path class="st16" d="M102.5 90.5s-7.7-5.8-10.2-6.6c0 0 6.8-1.5 11.2.7 4.4 2.2 5 3.5 4.6 4.4-.4.7-3.1 1.3-5.6 1.5z"/><path class="st18" d="M95 98.9l3.7-1.2c-.7-.5-1.5-1.1-1.5-1.1s-1 .4-1.2 1.7l-.7-.1-.3.7z"/><path class="st14" d="M80.5 91l21.1 13.3 1.9-5.3-21.1-13.4z"/><path class="st16" d="M79.7 93.8l.3.2 1-2.8c-.4-.2-.8-.1-1 .3l-.6 1.5c-.1.3 0 .6.3.8zM99.6 101.1s-2.3.2-4.9-1.1l-1 2.8s2.7 1.2 4.9 1c.1 0 1-2.7 1-2.7z"/><path class="st17" d="M99 88.8s-2.7-2.5-8.6-4.7c-.9-.3-1.6.1-2 .6-.4.5-.7 1.1-.8 1.7-.1.6-.1 1.3.1 1.8l-.6 2.2c-.3 1 .1 2 .9 2.5 1.1.7 4.3 2.7 5.5 3.6.8.6 2 .2 2.4-.7l.4-1 2.1-1.2s1.2-.6 1.4-1.9c.4-1.5-.5-2.7-.8-2.9z"/><path class="st20" d="M95.6 88.6l-2.2 6.5M93.5 87.3l-2.3 6.6M91.3 85.9L89 92.5"/><ellipse transform="rotate(-77.256 94.14 96.37)" class="st2" cx="94.1" cy="96.4" rx="1.6" ry="1.3"/><ellipse transform="rotate(-77.256 93.8 96.294)" class="st3" cx="93.8" cy="96.3" rx="1.6" ry="1.3"/><ellipse transform="rotate(-77.256 87.147 91.794)" class="st2" cx="87.2" cy="91.8" rx="1.6" ry="1.3"/><ellipse transform="rotate(-77.256 86.807 91.717)" class="st3" cx="86.8" cy="91.7" rx="1.6" ry="1.3"/><path class="st17" d="M80 93.9l13.7 8.9 1-2.8-13.8-8.9z"/><circle class="st16" cx="91.7" cy="97.7" r=".5"/><circle class="st16" cx="90.5" cy="101.2" r=".5"/><path transform="scale(-1) rotate(18.886 597.912 -547.955)" class="st16" d="M90.6 97.6h1v3.8h-1z"/><circle class="st16" cx="82.9" cy="92.1" r=".5"/><circle class="st16" cx="81.7" cy="95.7" r=".5"/><path transform="scale(-1) rotate(18.886 564.641 -494.864)" class="st16" d="M81.8 92h1v3.8h-1z"/><path class="st16" d="M83.1 96.8l4 2.6c.3.2.8.1.9-.3.1-.3 0-.6-.2-.7l-4-2.6c-.3-.2-.8-.1-.9.3-.1.3 0 .5.2.7zM83.8 95.5l4.3 2.7c.1.1.2 0 .3-.1 0-.1 0-.2-.1-.2L84 95.2c-.1-.1-.2 0-.3.1 0 .1 0 .2.1.2z"/><ellipse transform="rotate(-71.114 117.401 88.726)" class="st16" cx="117.4" cy="88.7" rx="1.7" ry="1.4"/><path class="st21" d="M116.7 89.8l-.3.8"/><ellipse transform="rotate(-71.114 116.965 88.576)" class="st22" cx="117" cy="88.6" rx="1.7" ry="1.4"/><ellipse transform="rotate(-71.114 116.965 88.576)" class="st23" cx="117" cy="88.6" rx="1.7" ry="1.4"/><circle class="st2" cx="106.3" cy="100.2" r="1.6"/><circle class="st15" cx="106.7" cy="100.6" r="1.6"/><circle class="st2" cx="125.1" cy="100.3" r="1.6"/><circle class="st15" cx="125.6" cy="100.8" r="1.6"/></g><g><path class="st14" d="M127.8 108.4l10.1-13.3 4.4-17.2-10.4 6.5z"/><path class="st15" d="M147.5 95.6l3.8-12c.4-1.3-.3-2.8-1.6-3.2l-7.4-2.6-4.4 17.2 6.3 2.2c1.3.6 2.8-.2 3.3-1.6zm-7.3-2.1l3.2-12.8 4.3 1.5c1 .3 1.5 1.4 1.2 2.4l-2.8 8.9c-.3 1-1.4 1.6-2.4 1.2l-3.5-1.2z"/><path class="st16" d="M138.5 86.7l1.7-5.3.2-.7 5.3 2c.6.2 1 .9.8 1.6l-1 3.4c0 .1-.1.2-.1.3-.3.5-.9.8-1.5.6l-5.4-1.9z"/><path class="st17" d="M135.3 85.6l1.7-5.3 8.4 3.1c.6.2 1 .9.8 1.6l-.9 2.9c-.3.5-.9.8-1.5.6l-8.5-2.9z"/><path class="st16" d="M136.3 94l1.7-5.3.2-.7 5.3 2c.6.2 1 .9.8 1.6l-1 3.4c0 .1-.1.2-.1.3-.3.5-.9.8-1.5.6l-5.4-1.9z"/><path class="st17" d="M130.9 92.2l1.7-5.3 10.6 3.8c.6.2 1 .9.8 1.6l-.9 2.9c-.3.5-.9.8-1.5.6l-10.7-3.6z"/><path class="st16" d="M130.6 88.6l1.7-5.3.2-.7 9.3 3.4c.6.2 1 .9.8 1.6l-1 3.4c0 .1-.1.2-.1.3-.3.5-.9.8-1.5.6l-9.4-3.3z"/><path class="st17" d="M130.6 88.6l1.7-5.3 9.3 3.4c.6.2 1 .9.8 1.6l-.9 2.9c-.3.5-.9.8-1.5.6l-9.4-3.2z"/><path class="st16" d="M130.5 97.5l1.7-5.3.2-.7 7.7 2.8c.6.2 1 .9.8 1.6l-1 3.4c0 .1-.1.2-.1.3-.3.5-.9.8-1.5.6l-7.8-2.7z"/><path class="st17" d="M130.5 97.5l1.7-5.3 7.6 2.8c.6.2 1 .9.8 1.6l-.9 2.9c-.3.5-.9.8-1.5.6l-7.7-2.6z"/><path class="st2" d="M114.7 117.9l-1-.4c.1-2.9-2.6-4.4-2.6-4.4l.8-9.3.2-2.4.8.2.3-.6c1.1.7 2.1.1 2.1.1s0-1.4.1-2.3c0-.6.4-1.2.6-1.6l.2-.2 1.1-1.4s.7.2 1.6.2c.9.1 1.6-.8 1.6-.8s1.1-1.2 2-2.6c.8-1.6.2-2.7.2-2.7l-2.4-4.2 5-5.9s2.1.9 4.4.9c1.7 0 3.4-.5 4.4-2.3 1.2-2.2-.4-4-1.8-5-.9-.7-1.8-1.1-1.8-1.1l.3-.4 1.8.7 2.2.9-.5 1.4.6.2 4.5 1.6 3.3 1.2-1.4 1.6-.7 2.1-1.6-.4-2.2 2.8-3.2.7h-.1l-.1.1-1.9 3 1.8.7-.5 2.4-1.1 1.7c.1 5-2.5 13-2.3 13.6.3.9-.4 1.4-.4 1.4l-.3 1.3-.9-.3s-6.5 6.7-6.8 7c-.8.6-1.7.4-1.7.4s-.3.9-.5 1.4c-.3.6-1.3.9-2.2.6-1-.3-1.9.1-1.9.1z"/><path class="st2" d="M133.4 84.7l.1-.1 5.4-7.9-4.4-1.7 4.5 1.7 3.3 1.2-1.5 1.5-.6 2.1-1.2-.5-2.2 2.8-3.2.8h-.1z"/><path class="st14" d="M132.2 82.1l-6.5-1.2.6-.7 5.6-6.9.3-.4 2.2.8-.6 1.1.6.2 2.3.8s.1.9-.3 2.2l-3.4 4.2-.8-.1zM113.5 94.8l6.9-8.4.7.2c3 1 4.1 4.8 2.1 7.2l-2.7 3.3-7-2.3z"/><path class="st15" d="M115.8 97.3l.2-.2 1.1-1.4s.7.2 1.6.2c.9.1 1.6-.8 1.6-.8s1.1-1.2 2-2.6c.8-1.6.2-2.7.2-2.7l-2.4-4.2 5-5.9s.5.2 1.3.4c2 .6 5.8 1.1 7.4-1.9 1.2-2.2-.4-4-1.8-5-.9-.7-1.8-1.1-1.8-1.1l.5-.7 4.1 1.6-.3.5-.6 1.1.6.2 2.3.8s.1.9-.3 2.2c-.2.7-.6 1.6-1.2 2.4-.6.8-1.4 1.4-2.2 1.8-.6.3-1.3.5-1.9.6-2.1.4-4.2 0-4.9-.1l-2.5 3.1 2.2 3.5s.5.9 0 1.8-4.2 5.9-4.2 5.9-1 1.1-2.5.8c-.9 0-2.5-.2-3.5-.3z"/><path class="st3" d="M136.8 110.9c1 .3 1.8.2 2.4-.3.8-.6 1.4-2.3 1.5-3v-.1-.1-.1L144 96c.4-1.2.3-2.3-.8-2.9-.2-.1-.4-.2-.6-.2l-9.7-2.2-1.1 1.7-3 16.3 8 2.2z"/><path class="st3" d="M132.5 92.6l9.3 2.1c.2 0 .4.1.6.2 1.1.6 1.2 1.7.8 2.9l-2.9 10.3s-.2.7-.6 1c-.6.3-1.3.4-2.1.1l-8.1-2.2 3-14.4z"/><path class="st22" d="M137.6 109.2c.8.3 1.5.2 2.1-.1.1 0 .1-.1.2-.1.3-.3.5-.9.5-.9l1.3-4.8 1.6-5.5c.4-1.2.3-2.3-.8-2.9-.2-.1-.4-.2-.6-.2l-9-2-.3-.1-1.2 6-1.7 8.3 7.9 2.3z"/><path class="st24" d="M139.8 108.9l-8.6-10.3 1.2-6 .3.1 8.9 10.6-1.3 4.8c0-.1-.1.5-.5.8z"/><path class="st19" d="M158.4 83.8L138.9 77"/><circle class="st3" cx="158.6" cy="83.9" r="1.5"/><path class="st16" d="M123.3 100.7s-.2 9.6-1.1 12.1c0 0 5.4-4.4 6.4-9.3 1-4.8.3-6.1-.7-6.3-.8-.1-2.9 1.7-4.6 3.5z"/><path class="st15" d="M130.3 98.8l12.4-3.4-12.1 4.3c-.2.1-.5 0-.6-.3-.1-.2.1-.5.3-.6zM129.5 104.2l12.4-3.4-12.1 4.3c-.2.1-.5 0-.6-.3-.1-.3 0-.5.3-.6z"/><path class="st18" d="M112 101.5l3.2-2.2c-.1.9-.1 1.9-.1 1.9s-.9.6-2.1-.1l-.3.6-.7-.2z"/><path class="st14" d="M109.4 117.7l2.4-24.8 5.4 1.8-2.5 24.9z"/><path class="st16" d="M106.6 116.7v-.3l2.8 1c0 .4-.5.7-.9.6l-1.5-.5c-.2-.3-.4-.5-.4-.8zM113.2 96.5s-1.6 1.7-2.2 4.6l-2.8-1s.7-2.8 2.2-4.5c0-.1 2.7.9 2.8.9z"/><path class="st17" d="M122.5 104.5s.3 3.6-1.6 9.7c-.3.9-1 1.2-1.7 1.2-.6.1-1.3-.1-1.8-.4-.5-.3-1.1-.8-1.3-1.2l-2.2-.9c-.9-.4-1.5-1.3-1.4-2.3.1-1.3.5-5 .6-6.5.1-1 1.1-1.7 2-1.4l1 .3 2.3-.9s1.2-.5 2.4 0c1.2.6 1.6 2 1.7 2.4z"/><path class="st20" d="M120.5 107.3L114 105M120.2 109.8l-6.5-2.3M119.9 112.4l-6.5-2.3"/><ellipse transform="rotate(-64.716 113.484 103.671)" class="st2" cx="113.5" cy="103.7" rx="1.3" ry="1.6"/><ellipse transform="rotate(-64.716 113.335 103.987)" class="st3" cx="113.3" cy="104" rx="1.3" ry="1.6"/><ellipse transform="rotate(-64.716 112.78 112)" class="st2" cx="112.8" cy="112" rx="1.3" ry="1.6"/><ellipse transform="rotate(-64.716 112.632 112.315)" class="st3" cx="112.6" cy="112.3" rx="1.3" ry="1.6"/><path class="st17" d="M106.7 116.3l1.5-16.3 2.8 1-1.5 16.3z"/><circle class="st16" cx="111" cy="104.8" r=".5"/><circle class="st16" cx="107.4" cy="103.5" r=".5"/><path transform="rotate(109.141 109.214 104.144)" class="st16" d="M108.7 102.3h1v3.8h-1z"/><circle class="st16" cx="109.9" cy="115.1" r=".5"/><circle class="st16" cx="106.4" cy="113.9" r=".5"/><path transform="rotate(109.141 108.132 114.51)" class="st16" d="M107.6 112.6h1v3.8h-1z"/><path class="st16" d="M106.3 112.1l.4-4.8c0-.4.4-.6.8-.5.3.1.4.3.4.6l-.4 4.8c0 .4-.4.6-.8.5-.2 0-.4-.3-.4-.6zM107.8 112.4l.5-5c0-.1.1-.2.3-.2.1 0 .1.1.1.2l-.5 5c0 .1-.1.2-.3.2-.1-.1-.1-.1-.1-.2z"/><ellipse transform="rotate(-70.859 133.838 90.058)" class="st16" cx="133.8" cy="90.1" rx="1.4" ry="1.7"/><path class="st21" d="M132.6 89.9l-.9-.2"/><ellipse transform="rotate(-70.859 133.687 90.494)" class="st22" cx="133.7" cy="90.5" rx="1.4" ry="1.7"/><ellipse transform="rotate(-70.859 133.687 90.494)" class="st23" cx="133.7" cy="90.5" rx="1.4" ry="1.7"/><circle class="st2" cx="118" cy="91.8" r="1.6"/><circle class="st15" cx="117.9" cy="91.1" r="1.6"/><circle class="st2" cx="129.5" cy="76.8" r="1.6"/><circle class="st15" cx="129.4" cy="76.2" r="1.6"/></g><g><path class="st12" d="M132.2 149.9l4.3 2.8 4.6-2.3.3-5.1-.6-1.1-3.8-1.4-4.4.9-.4 5.2v1zm5.9-3.7c1.1 1.6 1.2 3.8-1.2 2.9-.8-.3-1.5-.6-2.1-1.2-.1-.8.3-1.6 1-2 .9-.4 1.8-.3 2.3.3z"/><path class="st13" d="M135.1 147.3c-.5-1-.1-2.1.9-2.6s2.1-.1 2.6.9.1 2.1-.9 2.6c-.9.4-2.1.1-2.6-.9zm-2.8 1.4l4.3 2.8 4.6-2.3.3-5.1-4.3-2.8-4.6 2.3-.3 5.1z"/></g><g><path class="st12" d="M143.3 146.3l2.7 1.8 2.9-1.5.2-3.2-.4-.7-2.4-.9-2.8.6-.2 3.3v.6zm3.7-2.3c.7 1 .8 2.4-.7 1.8-.5-.2-1-.4-1.3-.8-.1-.5.2-1 .7-1.3.4-.2 1-.1 1.3.3z"/><path class="st13" d="M145.1 144.7c-.3-.6-.1-1.3.5-1.6.6-.3 1.3-.1 1.6.5.3.6.1 1.3-.5 1.6-.5.4-1.3.1-1.6-.5zm-1.8.9l2.7 1.8 2.9-1.5.2-3.2-2.7-1.8-2.9 1.5-.2 3.2z"/></g><g><path class="st14" d="M93.6 143.3l15.8-5.2 17.8 1.5-9.6 7.6z"/><path class="st15" d="M109.4 131.4v6.7l17.7 1.5v-7.8c0-1.4-1.1-2.5-2.5-2.6l-12.6-.3c-1.4-.1-2.6 1.1-2.6 2.5zm2.3 1.4c0-1.1.9-1.9 2-1.9l9.3.3c1 0 1.9.9 1.9 1.9v4.6l-13.1-1.1v-3.8z"/><path class="st16" d="M117.6 140.3l5.5.1h.8l-.1-5.6c0-.7-.5-1.3-1.2-1.3l-3.5-.1h-.3c-.6.1-1 .6-1 1.3l-.2 5.6z"/><path class="st17" d="M117.6 143.7l5.5.1-.1-9c0-.7-.5-1.3-1.2-1.3l-3-.1c-.6.1-1 .6-1 1.3l-.2 9z"/><path class="st16" d="M109.9 140l5.5.1h.8l-.1-5.6c0-.7-.5-1.3-1.2-1.3l-3.5-.1h-.3c-.6.1-1 .6-1 1.3l-.2 5.6z"/><path class="st17" d="M109.9 145.7l5.5.1-.1-11.3c0-.7-.5-1.3-1.2-1.3l-3-.1c-.6.1-1 .6-1 1.3l-.2 11.3z"/><path class="st16" d="M113.2 147.2l5.5.1h.8l-.2-9.9c0-.7-.5-1.3-1.2-1.3l-3.5-.1h-.3c-.6.1-1 .6-1 1.3l-.1 9.9z"/><path class="st17" d="M113.2 147.2l5.5.1-.2-9.9c0-.7-.5-1.3-1.2-1.3l-3-.1c-.6.1-1 .6-1 1.3l-.1 9.9z"/><path class="st16" d="M104.7 144.3l5.5.1h.8l-.1-8.1c0-.7-.5-1.3-1.2-1.3l-3.5-.1h-.3c-.6.1-1 .6-1 1.3l-.2 8.1z"/><path class="st17" d="M104.7 144.3l5.5.1-.1-8.1c0-.7-.5-1.3-1.2-1.3l-3-.1c-.6.1-1 .6-1 1.3l-.2 8.1z"/><path class="st2" d="M80.2 152.6v1.1c2.7.9 3.3 3.9 3.3 3.9l9 2.3 2.3.6v-.8l.7-.1c-.3-1.3.6-2 .6-2s1.3.4 2.2.6c.6.2 1.3.1 1.7 0 .2 0 .3-.1.3-.1l1.6-.6s.1-.7.3-1.6c.2-.8 1.3-1.2 1.3-1.2s1.5-.6 3.1-1.1c1.7-.3 2.6.7 2.6.7l3.2 3.6 7.2-2.8s-.1-2.3.6-4.4c.6-1.6 1.6-3.1 3.6-3.4 2.5-.4 3.6 1.7 4.1 3.4.3 1.1.4 2 .4 2l.4-.1-.1-1.9-.1-2.4h-1.4v-.6l-.1-4.8-.1-3.5-1.9.8-2.2-.1v1.3l-3.4 1.2-1.7 2.8-.1.1h-.1l-3.4.9v-2l-2.5-.4-1.9.5c-4.7-1.8-13.1-1.9-13.6-2.3-.7-.5-1.5 0-1.5 0l-1.3-.2v1s-8.5 3.9-8.8 4.1c-.8.5-1 1.5-1 1.5H82c-.7.1-1.3.9-1.3 1.9.3 1.3-.5 2.1-.5 2.1z"/><path class="st2" d="M117.8 145.8l.1-.1 9.3-2.5.1 4.7-.1-4.8v-3.5l-2 .8h-2.1v1.3l-3.4 1.1-1.7 2.8-.1.1z"/><path class="st18" d="M128.8 150.9h-.8c.3 1.1.4 2 .4 2l.4-.2v-1.8z"/><path class="st14" d="M120 148.2l-1.1 6.1.9-.3 8.3-3.1.5-.2v-2.3l-1.3.2v-3.1s-.9-.4-2.1-.5l-5.1 1.9-.1 1.3zM101.7 161.2l10.2-3.7v-.7c0-3.2-3.2-5.4-6.2-4.3l-4 1.5v7.2z"/><path class="st15" d="M100.1 158.2c.2 0 .3-.1.3-.1l1.6-.6s.1-.7.3-1.6c.2-.8 1.3-1.2 1.3-1.2s1.5-.6 3.1-1.1c1.7-.3 2.6.7 2.6.7l3.2 3.6 7.2-2.8v-1.4c.1-2.1.8-5.9 4.2-6.4 2.5-.4 3.6 1.7 4.1 3.3.4 1.1.4 2.1.4 2.1l.8-.2-.2-4.4-.6.1-1.3.2v-3.1s-.9-.4-2.1-.5c-.8 0-1.7 0-2.7.4-1 .3-1.8.9-2.4 1.5-.5.5-.9 1-1.2 1.6-1.1 1.9-1.4 3.9-1.5 4.7l-3.7 1.3-2.6-3.2s-.7-.7-1.7-.6c-1 .2-7 2-7 2s-1.4.6-1.6 2.1c.1 1.1-.3 2.7-.5 3.6z"/><path class="st3" d="M93.6 142.3l16.4 2.5 2-.5 1.1-9.9v-.6c-.2-1.2-1.2-1.7-2.4-1.7l-11.9-.7h-.1-.2c-.7 0-2.5-.1-3.3.5-.7.4-1.1 1.1-1.1 2.1l-.5 8.3zm1.9-.2l.6-8.4c0-.9.3-1.5.8-1.9.4-.3 1.2-.3 1.2-.3l10.7.6c1.2 0 2.3.5 2.4 1.7v.6l-1.1 9.5-14.6-1.8z"/><path class="st22" d="M95.5 142.1l8.5 1.1 6.1.8v-.4l1.1-9.1v-.6c-.2-1.2-1.2-1.7-2.4-1.7l-5.7-.3-4.9-.3s-.6 0-1 .2c-.1 0-.1.1-.2.1-.5.4-.8 1.1-.8 1.9l-.7 8.3z"/><path class="st24" d="M97 131.7l6.9 11.5 6.1.8v-.4l-7.1-11.9-4.9-.3c0 .2-.5.1-1 .3z"/><path class="st19" d="M126.9 122.5v20.6"/><circle class="st3" cx="126.8" cy="122.2" r="1.5"/><path class="st16" d="M99.3 150s-9.2-2.9-11.8-2.9c0 0 6-3.6 10.9-3 4.9.7 5.8 1.7 5.7 2.7-.1.8-2.5 2.3-4.8 3.2z"/><path class="st15" d="M102.7 143.5l8-10.1-7.3 10.6c-.1.2-.4.2-.6.1s-.2-.4-.1-.6zM97.4 142.5l8-10.1-7.3 10.6c-.1.2-.4.2-.6.1s-.3-.4-.1-.6z"/><path class="st18" d="M94.9 160.5l3.1-2.3c-.8-.2-1.8-.5-1.8-.5s-.8.7-.6 2l-.7.1v.7z"/><path class="st14" d="M78.7 157.6l24.3 5.9v-5.7L78.7 152z"/><path class="st16" d="M78.8 160.5l.3.1v-3c-.4-.1-.8.2-.8.6v1.6c0 .4.2.7.5.7zM100 161s-2.1.9-5 .5v3s2.9.2 5-.6V161z"/><path class="st17" d="M95.5 149.6s-3.3-1.5-9.7-1.6c-.9 0-1.4.6-1.7 1.2-.3.6-.3 1.2-.2 1.9.1.6.4 1.3.7 1.6l.1 2.3c.1 1 .7 1.8 1.7 2.1 1.2.3 4.9 1.2 6.3 1.6 1 .3 2-.4 2-1.5v-1l1.6-1.9s.9-.9.7-2.3c.1-1.4-1.2-2.3-1.5-2.4z"/><path class="st20" d="M92.2 150.5v6.9M89.8 150v6.9M87.2 149.4v6.9"/><ellipse transform="rotate(-6.142 93.332 158.341)" class="st2" cx="93.3" cy="158.3" rx="1.3" ry="1.6"/><ellipse transform="rotate(-6.142 92.985 158.378)" class="st3" cx="93" cy="158.4" rx="1.3" ry="1.6"/><ellipse transform="rotate(-6.142 85.232 156.275)" class="st2" cx="85.2" cy="156.3" rx="1.3" ry="1.6"/><ellipse transform="rotate(-6.142 84.886 156.311)" class="st3" cx="84.9" cy="156.3" rx="1.3" ry="1.6"/><path class="st17" d="M79.1 160.6l15.9 3.9v-3l-15.9-3.8z"/><circle class="st16" cx="91.5" cy="160.3" r=".5"/><circle class="st16" cx="91.5" cy="164.1" r=".5"/><path transform="rotate(180 91.484 162.223)" class="st16" d="M91 160.3h1v3.8h-1z"/><circle class="st16" cx="81.3" cy="158" r=".5"/><circle class="st16" cx="81.3" cy="161.7" r=".5"/><path transform="rotate(180 81.337 159.846)" class="st16" d="M80.8 158h1v3.8h-1z"/><path class="st16" d="M83 162.3l4.7 1.2c.4.1.7-.2.7-.6 0-.3-.2-.5-.5-.6l-4.7-1.2c-.4-.1-.7.2-.7.6.1.3.2.6.5.6zM83.2 160.9l4.9 1.2c.1 0 .2-.1.2-.2s-.1-.2-.1-.2l-4.9-1.2c-.1 0-.2.1-.2.2s.1.2.1.2z"/><ellipse class="st16" cx="112.9" cy="143.6" rx="1.4" ry="1.7"/><path class="st21" d="M112.6 144.8v.9"/><ellipse class="st22" cx="112.4" cy="143.6" rx="1.4" ry="1.7"/><ellipse class="st23" cx="112.4" cy="143.6" rx="1.4" ry="1.7"/><circle class="st2" cx="106.1" cy="158" r="1.6"/><circle class="st15" cx="106.6" cy="158.3" r="1.6"/><circle class="st2" cx="123.9" cy="152.1" r="1.6"/><circle class="st15" cx="124.5" cy="152.3" r="1.6"/></g><g><path class="st14" d="M61.7 188.8L46 187.5l-17.5 5.8 9.5 5.3z"/><path class="st15" d="M43.4 178.9L31 182.2c-1.4.4-2.5 1.8-2.5 3.2v7.8l17.5-5.8v-6.7c0-1.3-1.1-2.2-2.6-1.8zm.4 7.5l-13 4.3v-4.6c0-1 .8-2.1 1.8-2.3l9.2-2.5c1.1-.3 1.9.4 1.9 1.4v3.7z"/><path class="st16" d="M38 191.6l-5.5 1.4-.8.2.1-5.7c0-.7.5-1.4 1.2-1.6l3.5-1h.3c.6 0 1 .4 1 1l.2 5.7z"/><path class="st17" d="M38 195l-5.5 1.4.1-9c0-.7.5-1.4 1.2-1.6l3-.8c.6 0 1 .4 1 1l.2 9z"/><path class="st16" d="M45.5 189.5l-5.5 1.4-.8.2.1-5.7c0-.7.5-1.4 1.2-1.6l3.5-1h.3c.6 0 1 .4 1 1l.2 5.7z"/><path class="st17" d="M45.5 195.2l-5.5 1.4.1-11.3c0-.7.5-1.4 1.2-1.6l3-.8c.6 0 1 .4 1 1l.2 11.3z"/><path class="st16" d="M42.3 197.4l-5.5 1.4-.8.2.2-9.9c0-.7.5-1.4 1.2-1.6l3.5-1h.3c.6 0 1 .4 1 1l.1 9.9z"/><path class="st17" d="M42.3 197.4l-5.5 1.4.2-9.9c0-.7.5-1.4 1.2-1.6l3-.8c.6 0 1 .4 1 1l.1 9.9z"/><path class="st16" d="M50.7 192.6l-5.5 1.4-.8.2.1-8.2c0-.7.5-1.4 1.2-1.6l3.5-1h.3c.6 0 1 .4 1 1l.2 8.2z"/><path class="st17" d="M50.7 192.6l-5.5 1.4.1-8.2c0-.7.5-1.4 1.2-1.6l3-.8c.6 0 1 .4 1 1l.2 8.2z"/><path class="st2" d="M74.9 194.9v1.1c-2.7 1.5-3.3 4.7-3.3 4.7l-8.9 4.5-2.3 1.2v-.8l-.7.1c.2-1.3-.6-1.8-.6-1.8s-1.3.7-2.1 1.2c-.6.3-1.3.4-1.6.4h-.3l-1.6-.2s-.1-.7-.3-1.5c-.2-.8-1.3-.9-1.3-.9s-1.5-.2-3.1-.3c-1.7.1-2.6 1.3-2.6 1.3l-3.1 4.4-7.1-1s.1-2.3-.6-4.3c-.6-1.4-1.6-2.7-3.6-2.5-2.4.2-3.6 2.5-4.1 4.3-.3 1.2-.4 2.1-.4 2.1h-.4l.1-1.9.1-2.4 1.4-.3v-.6l.1-4.8.1-3.5 1.9.4 2.1-.6v1.3l3.3.4 1.7 2.4.1.1h3.5v-2l2.4-1h1.9c4.6-2.9 12.9-5.1 13.4-5.6.7-.7 1.5-.4 1.5-.4l1.3-.5v1s8.4 1.9 8.7 2c.8.3 1 1.2 1 1.2s.9-.2 1.5-.3c.7-.1 1.3.6 1.3 1.6s.6 1.5.6 1.5z"/><path class="st2" d="M37.8 197.2h-.2l-9.1-.3-.1 4.7.1-4.8v-3.5l1.9.3 2.2-.6v1.3l3.3.4 1.7 2.4v.1z"/><path class="st18" d="M26.9 204.9l.8-.2c-.3 1.2-.4 2.1-.4 2.1l-.4-.1v-1.8z"/><path class="st14" d="M35.6 200.1l1.1 5.8-.9-.1-8.2-1.1-.5-.1v-2.3l1.2-.1v-3.1s.8-.6 2.1-1l5 .6.2 1.4zM53.7 208.8l-10.1-1.3v-.7c0-3.2 3.1-6.2 6.1-5.8l4 .5v7.3z"/><path class="st15" d="M55.3 205.4H55l-1.6-.2s-.1-.7-.3-1.5c-.2-.8-1.3-.9-1.3-.9s-1.5-.2-3.1-.3c-1.7.1-2.6 1.3-2.6 1.3l-3.1 4.4-7.1-1v-1.4c-.1-2.1-.8-5.7-4.2-5.4-2.4.2-3.6 2.5-4.1 4.3-.3 1.2-.4 2.2-.4 2.2l-.8-.1.2-4.4.5-.1 1.2-.1v-3.1s.8-.6 2.1-1c.8-.2 1.7-.4 2.6-.3 1 .1 1.7.4 2.4.9.5.4.9.8 1.2 1.3 1.1 1.6 1.4 3.6 1.5 4.3l3.7.4 2.6-3.9s.7-.9 1.7-1 6.9.3 6.9.3 1.4.2 1.6 1.7c.1 1.2.4 2.6.7 3.6z"/><path class="st3" d="M61.2 179.6c0-1-.4-1.6-1.1-1.9-.8-.4-2.6.1-3.3.3h-.1-.1-.1l-11.7 3.5c-1.2.3-2.2 1-2.4 2.3v.6l1.1 9.7h1.9l16.2-6.4-.4-8.1zm-15.8 14l-1.1-9.2v-.6c.2-1.3 1.2-2 2.4-2.3l10.6-3.2s.7-.2 1.2 0c.5.3.8.9.8 1.7l.5 8.3-14.4 5.3z"/><path class="st22" d="M59.3 179.9c0-.9-.3-1.4-.8-1.7-.1 0-.1 0-.2-.1-.4-.1-1 .1-1 .1l-4.9 1.5-5.7 1.7c-1.2.3-2.2 1-2.4 2.3v.6l1.1 8.9v.3l6-2.3 8.4-3.1-.5-8.2z"/><path class="st24" d="M58.3 178.1l-6.8 13.2-6 2.3v-.3l7-13.6 4.9-1.5c-.1 0 .5-.2.9-.1z"/><path class="st19" d="M28.8 176v20.7"/><ellipse transform="rotate(-49.827 28.908 175.734)" class="st3" cx="28.9" cy="175.7" rx="1.6" ry="1.3"/><path class="st16" d="M56 197s9.1-5.1 11.7-5.8c0 0-5.9-2.2-10.7-.4-4.8 1.8-5.8 3.1-5.7 4.1.1.8 2.4 1.7 4.7 2.1z"/><path class="st15" d="M52 191.9l-7.3-8.8 7.9 8.2c.2.2.2.4 0 .6-.2.2-.4.2-.6 0zM57.3 189.6l-7.3-8.8 7.9 8.2c.2.2.2.4 0 .6-.2.2-.4.2-.6 0 0 .1 0 0 0 0z"/><path class="st18" d="M60.4 206.4l-3.1-1.6c.8-.4 1.8-1 1.8-1s.8.5.6 1.8l.7-.1v.9z"/><path class="st14" d="M76.4 199.6l-24 11.7v-5.7l24-11.6z"/><path class="st16" d="M76.3 202.6l-.3.2v-3c.4-.2.8 0 .8.4v1.6c0 .3-.2.6-.5.8zM55.3 208.1s2.1.4 5-.7v3s-2.9.9-4.9.6c-.1 0-.1-2.8-.1-2.9z"/><path class="st17" d="M59.9 195.6s3.3-2.3 9.6-3.9c.9-.2 1.4.3 1.7.8.3.5.3 1.2.2 1.8-.1.6-.4 1.4-.7 1.8l-.1 2.4c-.1 1-.7 2-1.7 2.5-1.2.6-4.9 2.4-6.3 3.1-1 .5-1.9 0-2-1v-1l-1.6-1.5s-.9-.7-.7-2.1c0-1.5 1.2-2.7 1.6-2.9z"/><path class="st20" d="M63.1 195.7v7M65.5 194.7v6.9M68 193.5v6.9"/><ellipse transform="rotate(-65.669 61.951 203.86)" class="st2" cx="61.9" cy="203.9" rx="1.7" ry="1.2"/><ellipse transform="rotate(-65.669 62.294 203.815)" class="st3" cx="62.3" cy="203.8" rx="1.7" ry="1.2"/><ellipse transform="rotate(-65.669 69.956 199.85)" class="st2" cx="70" cy="199.8" rx="1.7" ry="1.2"/><ellipse transform="rotate(-65.669 70.299 199.804)" class="st3" cx="70.3" cy="199.8" rx="1.7" ry="1.2"/><path class="st17" d="M76 202.7l-15.7 7.7v-2.9l15.7-7.7z"/><ellipse transform="rotate(-49.827 63.777 205.42)" class="st16" cx="63.8" cy="205.4" rx=".6" ry=".4"/><ellipse transform="rotate(-49.827 63.777 209.181)" class="st16" cx="63.8" cy="209.2" rx=".6" ry=".4"/><path class="st16" d="M64.3 209.1l-1 .2v-3.8l1-.2z"/><ellipse transform="rotate(-49.827 73.806 200.606)" class="st16" cx="73.8" cy="200.6" rx=".6" ry=".4"/><ellipse transform="rotate(-49.827 73.806 204.368)" class="st16" cx="73.8" cy="204.4" rx=".6" ry=".4"/><path class="st16" d="M74.3 204.2l-1 .3v-3.8l1-.2zM72.1 205.4l-4.6 2.3c-.4.2-.7 0-.7-.4 0-.3.2-.6.5-.7l4.6-2.3c.4-.2.7 0 .7.4 0 .2-.2.5-.5.7zM71.9 204l-4.9 2.4c-.1.1-.2 0-.2-.1s.1-.2.1-.2l4.9-2.4c.1-.1.2 0 .2.1.1.1 0 .1-.1.2z"/><ellipse transform="rotate(-71.089 42.638 193.793)" class="st16" cx="42.6" cy="193.8" rx="1.8" ry="1.3"/><path class="st21" d="M42.9 195v.8"/><ellipse transform="rotate(-71.089 43.094 193.682)" class="st22" cx="43.1" cy="193.7" rx="1.8" ry="1.3"/><ellipse transform="rotate(-71.089 43.094 193.682)" class="st24" cx="43.1" cy="193.7" rx="1.8" ry="1.3"/><ellipse transform="rotate(-49.827 49.37 206.596)" class="st2" cx="49.4" cy="206.6" rx="1.8" ry="1.4"/><ellipse transform="rotate(-49.827 48.8 207.026)" class="st15" cx="48.8" cy="207" rx="1.8" ry="1.4"/><ellipse transform="rotate(-49.827 31.713 204.92)" class="st2" cx="31.7" cy="204.9" rx="1.8" ry="1.4"/><ellipse transform="rotate(-49.827 31.144 205.35)" class="st15" cx="31.1" cy="205.3" rx="1.8" ry="1.4"/></g><g><path class="st2" d="M101.8 112.5l-.4-.4 4.5-2.5c.5.5.4 1.4-.3 1.8l-2.5 1.4c-.4.2-1 .1-1.3-.3zM83 80.4s.3 4 3.4 8.1L81.9 91s-2.8-4.2-3.3-8.2c0 .1 4.3-2.3 4.4-2.4z"/><path class="st2" d="M101.4 112.1l-19.5-21 4.5-2.5 19.5 21z"/><path class="st2" d="M106.1 111l-1.6 2.2-1-3.4z"/><path class="st16" d="M100.2 114.9l-.4-.4 4.5-2.5c.5.5.4 1.4-.3 1.8l-2.5 1.4c-.4.2-1 .1-1.3-.3z"/><path class="st2" d="M78.6 82.9L77 85.3l3.4 1.3z"/><path class="st16" d="M81.4 82.8s.3 4 3.4 8.1l-4.5 2.5s-2.8-4.2-3.3-8.2c0 .1 4.3-2.4 4.4-2.4z"/><path class="st17" d="M99.8 114.5l-19.5-21 4.5-2.6 19.5 21.1z"/><circle class="st16" cx="89.7" cy="95.3" r=".9"/><circle class="st16" cx="83.9" cy="98.5" r=".9"/><path transform="rotate(60.908 86.805 96.94)" class="st16" d="M85.9 93.6h1.7v6.6h-1.7z"/><circle class="st16" cx="102" cy="108.8" r=".9"/><circle class="st16" cx="96.2" cy="112" r=".9"/><path transform="rotate(60.908 99.079 110.44)" class="st16" d="M98.2 107.1h1.7v6.6h-1.7z"/><path class="st16" d="M93.9 110l-5.7-6.2c-.5-.5-.3-1.3.3-1.6.4-.2 1-.2 1.3.2l5.7 6.2c.5.5.3 1.3-.3 1.6-.5.2-1 .1-1.3-.2zM95.9 108.4l-6-6.5c-.1-.2-.1-.4.1-.5.1-.1.3 0 .4.1l6 6.5c.1.2.1.4-.1.5-.2 0-.3 0-.4-.1z"/></g><g><path class="st14" d="M74.9 191.1l-15.7-1.3-17.5 5.7 9.5 5.4z"/><path class="st15" d="M56.6 181.2l-12.4 3.4c-1.4.4-2.5 1.8-2.5 3.2v7.8l17.5-5.8v-6.7c0-1.4-1.1-2.3-2.6-1.9zm.4 7.5L44 193v-4.6c0-1 .8-2.1 1.8-2.3l9.2-2.5c1.1-.3 1.9.4 1.9 1.4v3.7z"/><path class="st16" d="M51.2 193.9l-5.5 1.4-.8.2.1-5.7c0-.7.5-1.4 1.2-1.6l3.5-1h.3c.6 0 1 .4 1 1l.2 5.7z"/><path class="st17" d="M51.2 197.3l-5.5 1.4.1-9c0-.7.5-1.4 1.2-1.6l3-.8c.6 0 1 .4 1 1l.2 9z"/><path class="st16" d="M58.8 191.8l-5.5 1.4-.8.2.1-5.7c0-.7.5-1.4 1.2-1.6l3.5-1h.3c.6 0 1 .4 1 1l.2 5.7z"/><path class="st17" d="M58.8 197.4l-5.5 1.4.1-11.3c0-.7.5-1.4 1.2-1.6l3-.8c.6 0 1 .4 1 1l.2 11.3z"/><path class="st16" d="M55.5 199.7l-5.5 1.4-.8.2.2-9.9c0-.7.5-1.4 1.2-1.6l3.5-1h.3c.6 0 1 .4 1 1l.1 9.9z"/><path class="st17" d="M55.5 199.7l-5.5 1.4.2-9.9c0-.7.5-1.4 1.2-1.6l3-.8c.6 0 1 .4 1 1l.1 9.9z"/><path class="st16" d="M63.9 194.9l-5.5 1.4-.8.2.1-8.2c0-.7.5-1.4 1.2-1.6l3.5-1h.3c.6 0 1 .4 1 1l.2 8.2z"/><path class="st17" d="M63.9 194.9l-5.5 1.4.1-8.2c0-.7.5-1.4 1.2-1.6l3-.8c.6 0 1 .4 1 1l.2 8.2z"/><path class="st2" d="M88.1 197.2v1.1c-2.7 1.5-3.3 4.7-3.3 4.7l-8.9 4.5-2.3 1.2v-.8l-.7.1c.2-1.3-.6-1.8-.6-1.8s-1.3.7-2.1 1.2c-.6.3-1.3.4-1.6.4h-.3l-1.6-.2s-.1-.7-.3-1.5c-.2-.8-1.3-.9-1.3-.9s-1.5-.2-3.1-.3c-1.7.1-2.6 1.3-2.6 1.3l-3.1 4.4-7.1-1s.1-2.3-.6-4.3c-.6-1.4-1.6-2.7-3.6-2.5-2.4.2-3.6 2.5-4.1 4.3-.3 1.2-.4 2.1-.4 2.1h-.4l.1-1.9.1-2.4 1.4-.3v-.6l.1-4.8.1-3.5 1.9.4 2.1-.6v1.3l3.3.4 1.7 2.4.1.1h3.5v-2l2.4-1h1.9c4.6-2.9 12.9-5.1 13.4-5.6.7-.7 1.5-.4 1.5-.4l1.3-.5v1s8.4 1.9 8.7 2c.8.3 1 1.2 1 1.2s.9-.2 1.5-.3c.7-.1 1.3.6 1.3 1.6-.1.9.6 1.5.6 1.5z"/><path class="st2" d="M51 199.4h-.1l-9.2-.3-.1 4.8.1-4.9v-3.5l1.9.4 2.2-.6v1.3l3.3.4 1.7 2.4h.1z"/><path class="st18" d="M40.1 207.2l.8-.2c-.3 1.2-.4 2.1-.4 2.1l-.4-.1v-1.8z"/><path class="st14" d="M48.8 202.3l1.1 5.8-.9-.1-8.2-1.1-.5-.1v-2.3l1.2-.1v-3.1s.8-.6 2.1-1l5 .6.2 1.4zM66.9 211.1l-10.1-1.3v-.8c0-3.2 3.1-6.2 6.1-5.8l4 .5v7.4z"/><path class="st15" d="M68.5 207.6h-.3l-1.6-.2s-.1-.7-.3-1.5c-.2-.8-1.3-.9-1.3-.9s-1.5-.2-3.1-.3c-1.7.1-2.6 1.3-2.6 1.3l-3.1 4.4-7.1-1V208c-.1-2.1-.8-5.7-4.2-5.4-2.4.2-3.6 2.5-4.1 4.3-.3 1.2-.4 2.2-.4 2.2l-.8-.1.2-4.4.5-.1 1.2-.1v-3.1s.8-.6 2.1-1c.8-.2 1.7-.4 2.6-.3 1 .1 1.7.4 2.4.9.5.4.9.8 1.2 1.3 1.1 1.6 1.4 3.6 1.5 4.3l3.7.4 2.6-3.9s.7-.9 1.7-1c1-.1 6.9.3 6.9.3s1.4.2 1.6 1.7c.1 1.3.5 2.7.7 3.6z"/><path class="st3" d="M74.4 181.9c0-1-.4-1.6-1.1-1.9-.8-.4-2.6.1-3.3.3h-.1-.1-.1L58 183.8c-1.2.3-2.2 1-2.4 2.3v.6l1.1 9.7h1.9l16.2-6.4-.4-8.1zm-15.7 14l-1.1-9.2v-.6c.2-1.3 1.2-2 2.4-2.3l10.6-3.2s.7-.2 1.2 0c.5.3.8.9.8 1.7l.5 8.3-14.4 5.3z"/><path class="st22" d="M72.5 182.2c0-.9-.3-1.4-.8-1.7-.1 0-.1 0-.2-.1-.4-.1-1 .1-1 .1l-4.9 1.5-5.7 1.7c-1.2.3-2.2 1-2.4 2.3v.6l1.1 8.9v.3l6-2.3 8.4-3.1-.5-8.2z"/><path class="st24" d="M71.5 180.4l-6.8 13.2-6 2.3v-.3l7-13.6 4.9-1.5c-.1 0 .5-.2.9-.1z"/><path class="st19" d="M42 178.3v20.6"/><ellipse transform="rotate(-49.827 42.12 178.01)" class="st3" cx="42.1" cy="178" rx="1.6" ry="1.3"/><path class="st16" d="M69.2 199.3s9.1-5.1 11.7-5.8c0 0-5.9-2.2-10.7-.4-4.8 1.8-5.8 3.1-5.7 4.1.1.8 2.5 1.6 4.7 2.1z"/><path class="st15" d="M65.2 194.2l-7.3-8.8 7.9 8.2c.2.2.2.4 0 .6-.1.2-.4.2-.6 0zM70.5 191.9l-7.3-8.8 7.9 8.2c.2.2.2.4 0 .6-.1.2-.4.2-.6 0z"/><path class="st18" d="M73.6 208.7l-3.1-1.6c.8-.4 1.8-1 1.8-1s.8.5.6 1.8l.7-.1v.9z"/><path class="st14" d="M89.6 201.9l-24 11.7v-5.7l24-11.7z"/><path class="st16" d="M89.5 204.8l-.3.2v-3c.4-.2.8 0 .8.4v1.6c0 .4-.2.7-.5.8zM68.5 210.4s2.1.4 5-.7v3s-2.9.9-4.9.6c-.1 0-.1-2.9-.1-2.9z"/><path class="st17" d="M73.1 197.9s3.3-2.3 9.6-3.9c.9-.2 1.4.3 1.7.8.3.5.3 1.2.2 1.8-.1.6-.4 1.4-.7 1.8l-.1 2.4c-.1 1-.7 2-1.7 2.5-1.2.6-4.9 2.4-6.3 3.1-1 .5-1.9 0-2-1v-1l-1.6-1.5s-.9-.7-.7-2.1c0-1.5 1.2-2.7 1.6-2.9z"/><path class="st20" d="M76.3 198v7M78.7 196.9v7M81.2 195.7v7"/><ellipse transform="rotate(-65.669 75.163 206.137)" class="st2" cx="75.2" cy="206.1" rx="1.7" ry="1.2"/><ellipse transform="rotate(-65.669 75.505 206.09)" class="st3" cx="75.5" cy="206.1" rx="1.7" ry="1.2"/><ellipse transform="rotate(-65.669 83.168 202.125)" class="st2" cx="83.2" cy="202.1" rx="1.7" ry="1.2"/><ellipse transform="rotate(-65.669 83.51 202.08)" class="st3" cx="83.5" cy="202.1" rx="1.7" ry="1.2"/><path class="st17" d="M89.2 205l-15.7 7.7v-3l15.7-7.7z"/><ellipse transform="rotate(-49.827 76.989 207.696)" class="st16" cx="77" cy="207.7" rx=".6" ry=".4"/><ellipse transform="rotate(-49.827 76.989 211.457)" class="st16" cx="77" cy="211.5" rx=".6" ry=".4"/><path class="st16" d="M77.5 211.3l-1 .3v-3.8l1-.2z"/><ellipse transform="rotate(-49.827 87.018 202.882)" class="st16" cx="87" cy="202.9" rx=".6" ry=".4"/><ellipse transform="rotate(-49.827 87.018 206.644)" class="st16" cx="87" cy="206.6" rx=".6" ry=".4"/><path class="st16" d="M87.5 206.5l-1 .3V203l1-.2zM85.4 207.6l-4.6 2.3c-.4.2-.7 0-.7-.4 0-.3.2-.6.5-.7l4.6-2.3c.4-.2.7 0 .7.4-.1.3-.3.6-.5.7zM85.1 206.3l-4.9 2.4c-.1.1-.2 0-.2-.1s.1-.2.1-.2L85 206c.1-.1.2 0 .2.1.1 0 0 .1-.1.2z"/><ellipse transform="rotate(-71.089 55.85 196.07)" class="st16" cx="55.9" cy="196.1" rx="1.8" ry="1.3"/><path class="st21" d="M56.2 197.2v.9"/><ellipse transform="rotate(-71.089 56.306 195.958)" class="st22" cx="56.3" cy="196" rx="1.8" ry="1.3"/><ellipse transform="rotate(-71.089 56.306 195.958)" class="st23" cx="56.3" cy="196" rx="1.8" ry="1.3"/><ellipse transform="rotate(-49.827 62.581 208.872)" class="st2" cx="62.6" cy="208.9" rx="1.8" ry="1.4"/><ellipse transform="rotate(-49.827 62.012 209.302)" class="st15" cx="62" cy="209.3" rx="1.8" ry="1.4"/><ellipse transform="rotate(-49.827 44.925 207.196)" class="st2" cx="44.9" cy="207.2" rx="1.8" ry="1.4"/><ellipse transform="rotate(-49.827 44.356 207.626)" class="st15" cx="44.4" cy="207.6" rx="1.8" ry="1.4"/></g><g><path class="st14" d="M78.1 104.9l-.5-2.7 3.7.2z"/><path class="st14" d="M84.7 95s3.5 2 7.7 7.7c.6.8.4 1.7 0 2.3-.3.6-.9 1.1-1.6 1.4-.6.2-1.4.5-1.9.4l-2.2 1.4c-.9.6-2.1.5-3-.2-1.1-.9-4.3-3.6-5.6-4.7-.9-.7-.9-2.1 0-2.7l.9-.7.6-2.7s.3-1.4 1.5-2.1c1.6-.9 3.2-.4 3.6-.1z"/><path class="st14" d="M92.8 103.4l.5 2.9-3.6-2z"/><path class="st17" d="M85.2 97.9s3.5 2 7.7 7.7c.6.8.4 1.7 0 2.3-.3.6-.9 1.1-1.6 1.4-.6.2-1.4.5-1.9.4l-2.2 1.4c-.9.6-2.1.5-3-.2-1.1-.9-4.3-3.6-5.6-4.7-.9-.7-.9-2.1 0-2.7l.9-.7.6-2.7s.3-1.4 1.5-2.1c1.6-.8 3.2-.3 3.6-.1z"/><path class="st25" d="M86.5 101.5l-6.3 4.5M88.5 103.3l-6.2 4.6M90.7 105.2l-6.2 4.5"/></g><g><path class="st3" d="M155.2 191.3c-.4-1.3-1.2-2-2.2-2.2-1.2-.4-3.5.4-4.3.7l-.3.1-14.5 5.6c-1.5.5-2.6 1.5-2.3 3.1 0 .3.1.5.3.8l5.4 11.9 2.7-.2 19.4-9.7-4.2-10.1zm-15.7 19l-5.2-11.4c-.1-.3-.2-.5-.3-.8-.3-1.6.8-2.6 2.3-3.1l13.1-5.1c.5-.2 1.1-.3 1.6-.1.4.1.8.4 1 .7.3.4.6.8.7 1.3l4.1 10.2-17.3 8.3z"/><path class="st22" d="M152.8 191.9c-.3-1.1-1-1.8-1.8-2.1-.1 0-.2 0-.3-.1-.6-.1-1.3.2-1.3.2l-6 2.3-7 2.7c-1.5.5-2.6 1.5-2.3 3.1 0 .3.1.6.3.8l5 11 .2.4 7.3-3.4L157 202l-4.2-10.1z"/><path class="st24" d="M150.7 189.7l-4 17.2-7.3 3.4-.2-.4 4.1-17.7 6-2.3c.1 0 .8-.2 1.4-.2z"/></g><g><path class="st14" d="M139.8 204.5l6.3 5.1-1 .5-10 4.4-.6.3-2-2 1.3-.9-.5-.5-2.1-2.2s.4-1.1 1.5-2.2l6-2.7 1.1.2zM167.2 201.2l-12.2 5.3-.6-.7c-2.7-2.8-1.8-7.5 1.8-9l4.8-2.1 6.2 6.5z"/><path class="st15" d="M166.1 197.2c-.2.1-.3.2-.3.2l-2 .9s-.7-.6-1.6-1.1c-.9-.5-2.2 0-2.2 0s-1.9.7-3.6 1.7c-1.8 1.2-1.7 2.8-1.7 2.8l.3 5.9-8.7 3.7s-.4-.5-1.2-1.2c-1.9-1.7-5.7-4.5-9.1-2.1-2.5 1.8-1.8 4.5-.8 6.4.6 1.3 1.4 2.2 1.4 2.2l-.9.5-3.5-4 .6-.4 1.3-.9-.5-.5-2.1-2.2s.4-1.1 1.5-2.2c.6-.7 1.5-1.4 2.7-1.9 1.1-.5 2.3-.7 3.4-.7.8 0 1.7.2 2.4.4 2.5.7 4.6 2.3 5.3 2.9l4.4-2-.5-5.1s0-1.2 1-1.9 7.8-4.1 7.8-4.1 1.7-.7 3.2.5c.7.4 2.3 1.5 3.4 2.2z"/><circle class="st15" cx="160.3" cy="202.8" r="2"/><circle class="st2" cx="139.8" cy="211.9" r="2"/><circle class="st15" cx="139.5" cy="212.7" r="2"/></g><g><path class="st2" d="M173.8 198.7l-.4.3-1.3-4.1c.5-.3 1.2-.1 1.4.5l.7 2.2c.1.4 0 .9-.4 1.1zM145 208.8s3.3.3 7.1-1.5l1.3 4.1s-3.9 1.6-7.1 1.4l-1.3-4z"/><path class="st2" d="M173.4 199l-20 12.4-1.3-4.1 20-12.4z"/><path class="st2" d="M173.2 195l1.6 1.6-2.9.3z"/><path class="st16" d="M175.4 200.4l-.4.3-1.3-4.1c.5-.3 1.2-.1 1.4.5l.7 2.2c.2.4 0 .8-.4 1.1z"/><path class="st2" d="M146.3 212.8l1.6 1.6 1.6-2.6z"/><path class="st16" d="M146.6 210.5s3.3.3 7.1-1.5l1.3 4.1s-3.9 1.6-7.1 1.4c0-.1-1.3-4-1.3-4z"/><path class="st17" d="M175 200.6L155 213l-1.3-4 20-12.4z"/><circle class="st16" cx="158" cy="205.7" r=".7"/><circle class="st16" cx="159.7" cy="210.9" r=".7"/><path transform="rotate(-18.06 158.854 208.324)" class="st16" d="M158.1 205.6h1.4v5.4h-1.4z"/><circle class="st16" cx="170.8" cy="198" r=".7"/><circle class="st16" cx="172.5" cy="203.1" r=".7"/><path transform="rotate(-18.06 171.669 200.55)" class="st16" d="M171 197.8h1.4v5.4H171z"/><path class="st16" d="M170.5 204.7l-5.9 3.7c-.5.3-1.1.1-1.3-.5-.1-.4 0-.8.4-1l5.9-3.7c.5-.3 1.1-.1 1.3.5.1.3-.1.8-.4 1zM169.5 202.8l-6.2 3.8c-.2.1-.4 0-.4-.1s0-.3.1-.3l6.2-3.8c.2-.1.4 0 .4.1.1.1 0 .3-.1.3z"/></g><g><ellipse transform="rotate(-42.439 156.272 217.701)" class="st2" cx="156.3" cy="217.7" rx="4.9" ry="4.1"/><ellipse transform="rotate(-42.439 155.539 216.899)" class="st3" cx="155.5" cy="216.9" rx="4.9" ry="4.1"/></g><g><path class="st14" d="M117.5 88.4l5.2-15.9-1.6-17.8-7.6 9.6z"/><path class="st15" d="M131.9 69.8l-.3-12.6c0-1.4-1.2-2.5-2.6-2.5h-7.8l1.5 17.7h6.7c1.4.1 2.5-1.1 2.5-2.6zm-7.6.4l-1.1-13.1h4.6c1 0 1.9.8 1.9 1.9l.3 9.3c0 1.1-.8 2-1.9 2h-3.8z"/><path class="st16" d="M120.5 64.3l-.1-5.5V58l5.6.1c.7 0 1.3.5 1.3 1.2l.1 3.5v.3c-.1.6-.6 1-1.3 1l-5.6.2z"/><path class="st17" d="M117.1 64.3l-.1-5.5 9 .1c.7 0 1.3.5 1.3 1.2l.1 3c-.1.6-.6 1-1.3 1l-9 .2z"/><path class="st16" d="M120.8 72l-.1-5.5v-.8l5.6.1c.7 0 1.3.5 1.3 1.2l.1 3.5v.3c-.1.6-.6 1-1.3 1l-5.6.2z"/><path class="st17" d="M115.1 72l-.1-5.5 11.3.1c.7 0 1.3.5 1.3 1.2l.1 3c-.1.6-.6 1-1.3 1l-11.3.2z"/><path class="st16" d="M113.6 68.7l-.1-5.5v-.8l9.9.2c.7 0 1.3.5 1.3 1.2l.1 3.5v.3c-.1.6-.6 1-1.3 1l-9.9.1z"/><path class="st17" d="M113.6 68.7l-.1-5.5 9.9.2c.7 0 1.3.5 1.3 1.2l.1 3c-.1.6-.6 1-1.3 1l-9.9.1z"/><path class="st16" d="M116.4 77.2l-.1-5.5v-.8l8.1.1c.7 0 1.3.5 1.3 1.2l.1 3.5v.3c-.1.6-.6 1-1.3 1l-8.1.2z"/><path class="st17" d="M116.4 77.2l-.1-5.5 8.1.1c.7 0 1.3.5 1.3 1.2l.1 3c-.1.6-.6 1-1.3 1l-8.1.2z"/><path class="st2" d="M108.2 101.7h-1.1c-.9-2.7-3.9-3.3-3.9-3.3l-2.3-9-.6-2.3h.8l.1-.7c1.3.3 2-.6 2-.6s-.4-1.3-.6-2.2c-.2-.6-.1-1.3 0-1.7 0-.2.1-.3.1-.3l.6-1.6s.7-.1 1.6-.3c.8-.2 1.2-1.3 1.2-1.3s.6-1.5 1.1-3.1c.3-1.7-.7-2.6-.7-2.6l-3.6-3.2 2.8-7.2s2.3.1 4.4-.6c1.6-.6 3.1-1.6 3.4-3.6.4-2.5-1.7-3.6-3.4-4.1-1.1-.3-2-.4-2-.4l-.1-.6 1.9.1 2.4.1v1.4h.6l4.8.1 3.5.1-.8 1.9.1 2.2h-1.3l-1.2 3.4-2.8 1.7h-.2v.1l-.9 3.4h2l.4 2.5-.5 1.9c1.8 4.7 1.9 13.1 2.3 13.6.5.7 0 1.5 0 1.5l.2 1.3h-1s-3.9 8.5-4.1 8.8c-.5.8-1.5 1-1.5 1v1.5c-.1.7-.9 1.3-1.9 1.3-1 0-1.8.8-1.8.8z"/><path class="st2" d="M115 64.1V64l2.5-9.2-4.7-.2 4.8.1h3.5l-.8 2 .1 2.2-1.3-.1-1.2 3.4-2.8 1.7-.1.1z"/><path class="st18" d="M109.9 53.1v.8c-1.1-.3-2-.4-2-.4l.1-.5 1.9.1z"/><path class="st14" d="M113 62l-6.5 1.1.3-.9 3.1-8.3.2-.5h2.3l-.2 1.3h3.1s.4.9.5 2.1l-1.9 5.1-.9.1zM99.5 80.2l3.7-10.2h.7c3.2 0 5.4 3.2 4.3 6.2l-1.5 4h-7.2z"/><path class="st15" d="M102.5 81.8c0-.2.1-.3.1-.3l.6-1.6s.7-.1 1.6-.3c.8-.2 1.2-1.3 1.2-1.3s.6-1.5 1.1-3.1c.3-1.7-.7-2.6-.7-2.6l-3.6-3.2 2.8-7.2h1.4c2.1-.1 5.9-.8 6.4-4.2.4-2.5-1.7-3.6-3.3-4.1-1.1-.4-2.1-.4-2.1-.4l.2-.8 4.4.2-.1.6-.2 1.3h3.1s.4.9.5 2.1c0 .8 0 1.7-.4 2.7-.3 1-.9 1.8-1.5 2.4-.5.5-1 .9-1.6 1.2-1.9 1.1-3.9 1.4-4.7 1.5l-1.3 3.7 3.2 2.6s.7.7.6 1.7-2 7-2 7-.6 1.4-2.1 1.6c-1.1-.1-2.6.3-3.6.5z"/><path class="st3" d="M126.8 87.8c1 0 1.7-.4 2.1-1.1.5-.8.5-2.6.5-3.3v-.1-.1-.1l-.7-11.9c0-1.2-.5-2.3-1.7-2.4h-.6l-9.9 1.1-.5 2 2.5 16.4 8.3-.5zm-10.1-15.9l9.5-1.1h.6c1.2.2 1.7 1.2 1.7 2.4l.6 10.7s0 .7-.3 1.2c-.4.5-1.1.8-1.9.8l-8.4.6-1.8-14.6z"/><path class="st22" d="M127 85.9c.9 0 1.5-.3 1.9-.8 0-.1.1-.1.1-.2.2-.4.2-1 .2-1l-.3-4.9-.3-5.7c0-1.2-.5-2.3-1.7-2.4h-.6l-9.1 1.1h-.4l.8 6.1 1.1 8.5 8.3-.7z"/><path class="st24" d="M129 84.9L117.5 78l-.8-6.1h.4L129 79l.3 4.9c-.1 0-.1.5-.3 1z"/><path class="st19" d="M138.3 55.1h-20.6"/><circle class="st3" cx="138.6" cy="55.1" r="1.5"/><path class="st16" d="M110.7 82.6s2.9 9.2 2.9 11.8c0 0 3.6-6 3-10.9-.7-4.9-1.7-5.8-2.7-5.7-.7.1-2.2 2.5-3.2 4.8z"/><path class="st15" d="M116.7 78.5l10.6-7.3-10.1 8c-.2.1-.5.1-.6-.1s-.1-.5.1-.6zM117.7 83.8l10.6-7.3-10.1 8c-.2.1-.5.1-.6-.1-.1-.1-.1-.4.1-.6z"/><path class="st18" d="M100.3 87l2.3-3.1c.2.8.5 1.8.5 1.8s-.7.8-2 .6l-.1.7h-.7z"/><path class="st14" d="M103.1 103.2l-5.8-24.3h5.7l5.8 24.3z"/><path class="st16" d="M100.2 103.1l-.1-.3h3c.1.4-.2.8-.6.8h-1.6c-.4 0-.6-.2-.7-.5zM99.8 81.9s-.9 2.1-.5 5h-3s-.2-2.9.6-5h2.9z"/><path class="st17" d="M111.2 86.4s1.5 3.3 1.6 9.7c0 .9-.6 1.4-1.2 1.7-.6.3-1.2.3-1.9.2-.6-.1-1.3-.4-1.6-.7l-2.3-.1c-1-.1-1.8-.7-2.1-1.7-.3-1.2-1.2-4.9-1.6-6.3-.3-1 .4-2 1.5-2h1l1.9-1.6s.9-.9 2.3-.7c1.4-.1 2.2 1.2 2.4 1.5z"/><path class="st20" d="M110.3 89.7h-7M110.8 92.1h-7M111.4 94.7h-7"/><ellipse transform="rotate(-83.858 102.414 88.567)" class="st2" cx="102.4" cy="88.6" rx="1.3" ry="1.6"/><ellipse transform="rotate(-83.858 102.377 88.914)" class="st3" cx="102.4" cy="88.9" rx="1.3" ry="1.6"/><ellipse transform="rotate(-83.858 104.48 96.666)" class="st2" cx="104.5" cy="96.7" rx="1.3" ry="1.6"/><ellipse transform="rotate(-83.858 104.443 97.013)" class="st3" cx="104.4" cy="97" rx="1.3" ry="1.6"/><path class="st17" d="M100.1 102.8l-3.9-15.9h3l3.9 15.9z"/><circle class="st16" cx="100.4" cy="90.4" r=".5"/><circle class="st16" cx="96.7" cy="90.4" r=".5"/><path transform="rotate(90 98.538 90.419)" class="st16" d="M98 88.5h1v3.8h-1z"/><circle class="st16" cx="102.8" cy="100.6" r=".5"/><circle class="st16" cx="99" cy="100.6" r=".5"/><path transform="rotate(90 100.915 100.565)" class="st16" d="M100.4 98.7h1v3.8h-1z"/><path class="st16" d="M98.4 98.9l-1.2-4.7c-.1-.4.2-.7.6-.7.3 0 .5.2.6.5l1.2 4.7c.1.4-.2.7-.6.7-.3 0-.5-.2-.6-.5zM99.9 98.7l-1.2-4.9c0-.1.1-.2.2-.2s.2.1.2.1l1.2 4.9c0 .1-.1.2-.2.2s-.2-.1-.2-.1z"/><ellipse class="st16" cx="117.2" cy="69" rx="1.7" ry="1.4"/><path class="st21" d="M115.9 69.4h-.8"/><ellipse class="st22" cx="117.2" cy="69.5" rx="1.7" ry="1.4"/><ellipse class="st23" cx="117.2" cy="69.5" rx="1.7" ry="1.4"/><circle class="st2" cx="102.7" cy="75.8" r="1.6"/><circle class="st15" cx="102.5" cy="75.3" r="1.6"/><circle class="st2" cx="108.7" cy="58" r="1.6"/><circle class="st15" cx="108.4" cy="57.4" r="1.6"/></g><circle class="st3" cx="174" cy="166.7" r="1.5"/></g><g><path class="st1" d="M39.9 131.6c4.1 0 7.5-1.2 7.5-2.7s-3.4-2.7-7.5-2.7-7.5 1.2-7.5 2.7c0 1.4 3.3 2.7 7.5 2.7z"/><path class="st1" d="M43.4 62.2h-7.1v65.6h7.1V62.2z"/><path class="st26" d="M43.4 62.2h-1.9v65.6h1.9V62.2z"/><path class="st27" d="M45.1 38.1H34.7v36h10.4v-36z"/><path class="st28" d="M45 38.1l-10.3 5.3v-5.2l.1-.1H45zM45.1 45.2l-10.4 5.4v-5.2L45.1 40v5.2zM45.1 52.4l-10.4 5.4v-5.2l10.4-5.4v5.2zM45.1 59.6L34.7 65v-5.2l10.4-5.4v5.2zM45.1 66.8l-10.4 5.4v-5.3l10.4-5.3v5.2zM45.1 68.8V74l-.2.1H34.8l10.3-5.3z"/><path class="st27" d="M45.1 38.1H34.7v36h10.4v-36z"/><path class="st28" d="M45 38.1l-10.3 5.3v-5.2l.1-.1H45zM45.1 45.2l-10.4 5.4v-5.2L45.1 40v5.2zM45.1 52.4l-10.4 5.4v-5.2l10.4-5.4v5.2zM45.1 59.6L34.7 65v-5.2l10.4-5.4v5.2zM45.1 66.8l-10.4 5.4v-5.3l10.4-5.3v5.2zM45.1 68.8V74l-.2.1-.2.2c-2.7 3-7.4 2.9-9.9-.2l10.3-5.3z"/><path class="st26" d="M45.1 74l-2.2 1.8V38.1h2.2V74z"/><path class="st27" d="M39.7 41.9c7.2 0 13.1-2.1 13.1-4.8s-5.9-4.8-13.1-4.8-13.1 2.1-13.1 4.8c0 2.6 5.9 4.8 13.1 4.8z"/><path class="st28" d="M39.7 41.1c7.2 0 13.1-2.1 13.1-4.8s-5.9-4.8-13.1-4.8-13.1 2.1-13.1 4.8c0 2.7 5.9 4.8 13.1 4.8z"/><path class="st29" d="M51.8 35.4c0 2.3-5.4 4.2-12 4.2-2.7 0-5.2-.3-7.2-.9-.6-.2-1.2-.3-1.7-.5-.3-.1-.6-.2-.8-.3-.3-.1-.6-.3-.8-.4-1-.6-1.5-1.3-1.5-2.1s.6-1.5 1.5-2.1c.2-.2.5-.3.8-.4.2-.1.5-.2.8-.3.5-.2 1-.4 1.7-.5 2-.5 4.5-.9 7.2-.9 6.6 0 12 1.9 12 4.2z"/><path class="st30" d="M51.7 16.2H29v19.5h22.7V16.2z"/><path class="st29" d="M51.1 16.2H27.6v19.5h23.5V16.2z"/><path class="st30" d="M47.1 35.4c0 1-3.3 1.8-7.4 1.8s-7.4-.8-7.4-1.8 3.3-6.9 7.4-6.9 7.4 5.9 7.4 6.9z"/><path class="st3" d="M34.3 35.2c2.5 0 4.5-3 4.5-6.7s-2-6.7-4.5-6.7-4.5 3-4.5 6.7 2 6.7 4.5 6.7z"/><path class="st31" d="M35.3 35.2c2.5 0 4.5-3 4.5-6.7s-2-6.7-4.5-6.7-4.5 3-4.5 6.7 2 6.7 4.5 6.7z"/><path class="st31" d="M41.7 35.2c2.5 0 4.5-3 4.5-6.7s-2-6.7-4.5-6.7-4.5 3-4.5 6.7 2 6.7 4.5 6.7z"/><path class="st3" d="M45.1 35.2c2.5 0 4.5-3 4.5-6.7s-2-6.7-4.5-6.7-4.5 3-4.5 6.7 2 6.7 4.5 6.7z"/><path class="st32" d="M30.8 16.2v21.2c-.3-.1-.6-.2-.8-.2-.3-.1-.6-.2-.8-.3V16.2h1.6z"/><path class="st32" d="M32.5 16.2v21.5c-.6-.1-1.2-.2-1.7-.4-.3-.1-.6-.2-.8-.2V16l2.5.2z"/><path class="st27" d="M39.7 21.5c7.2 0 13.1-2.1 13.1-4.8s-5.9-4.8-13.1-4.8-13.1 2.1-13.1 4.8 5.9 4.8 13.1 4.8z"/><path class="st28" d="M39.7 20.7c7.2 0 13.1-2.1 13.1-4.8s-5.9-4.8-13.1-4.8-13.1 2.1-13.1 4.8 5.9 4.8 13.1 4.8z"/></g></svg>