<svg xmlns="http://www.w3.org/2000/svg" viewBox="0 0 875 875"><defs><style>.cls-1{opacity:0.2;}.cls-2,.cls-4{fill:none;stroke-miterlimit:10;}.cls-2{stroke:#e53935;stroke-linecap:round;stroke-width:10.95px;}.cls-3{fill:#e53935;}.cls-4{stroke:#fff;stroke-linecap:square;stroke-width:2.54px;}.cls-5{fill:#fff;}.cls-6{fill:#333;}.cls-7{fill:#ffd400;}.cls-8{fill:#bf8f68;}.cls-9{fill:#ffd200;opacity:0.75;}</style></defs><title>Untitled-4</title><g id="Layer_1" data-name="Layer 1"><ellipse class="cls-1" cx="425.79" cy="703.75" rx="46.27" ry="8.64"/><path class="cls-2" d="M389.25,636.57c-7.82-19.76,2.56-42.61,20.83-46"/><path class="cls-2" d="M487,577c-16.81,22.25-36.43,21.48-47.38,13.62"/><path class="cls-3" d="M447.66,639.47a22.81,22.81,0,1,1-45.63,0V608a22.81,22.81,0,1,1,45.63,0Z"/><path class="cls-4" d="M424.84,585.16s6,7.32,6,20.46v39.44"/><polyline class="cls-5" points="410.76 674.37 410.76 692.71 422.71 692.71 422.71 674.37"/><polyline class="cls-3" points="410.76 653.6 410.76 674.37 422.71 674.37 422.71 653.6"/><polyline class="cls-5" points="439.54 674.37 439.54 692.71 427.59 692.71 427.59 674.37"/><polyline class="cls-3" points="439.54 653.6 439.54 674.37 427.59 674.37 427.59 653.6"/><path class="cls-6" d="M426.77,690.54h13.85c4.62,9,16.57,9,18.2,2.45,0,0,6.38,12.35-22.27,10.59C429.77,703.16,424.4,696.92,426.77,690.54Z"/><rect class="cls-6" x="402.03" y="628.08" width="45.63" height="11.4"/><rect class="cls-7" x="424.84" y="626.98" width="11.95" height="13.04"/><path class="cls-6" d="M409.75,690.54H423.6c4.62,9,16.57,9,18.2,2.45,0,0,6.38,12.35-22.28,10.59C412.75,703.16,407.37,696.92,409.75,690.54Z"/><path class="cls-3" d="M443.62,541.18S424.94,502,407.84,493.87c0,0,8.91,36.68-.89,48.07Z"/><circle class="cls-5" cx="404.36" cy="489.67" r="5.53" transform="translate(-85.91 893.3) rotate(-89.91)"/><path class="cls-8" d="M447.66,562.37a22.82,22.82,0,0,1-22.85,22.78h0A22.82,22.82,0,0,1,402,562.3h0a22.82,22.82,0,0,1,22.85-22.78h0a22.82,22.82,0,0,1,22.78,22.85Z"/><path class="cls-8" d="M404.79,557.43l-7.59-10.34s-4.39,26.62,10.28,23.38Z"/><path class="cls-8" d="M443.7,557.49l7.62-10.32s4.31,26.63-10.35,23.35Z"/><path class="cls-5" d="M434.57,569.47a9.7,9.7,0,1,1-19.4,0Z"/><rect class="cls-5" x="419.05" y="517.63" width="11.65" height="51.42" rx="3.04" ry="3.04" transform="translate(-119.1 967.4) rotate(-89.91)"/><circle class="cls-6" cx="415.89" cy="558.24" r="4.07" transform="matrix(0, -1, 1, 0, -142.97, 973.3)"/><circle class="cls-6" cx="435.7" cy="558.27" r="4.07" transform="translate(-123.21 993.14) rotate(-89.91)"/><circle class="cls-8" cx="486.98" cy="576.96" r="8.49"/><circle class="cls-8" cx="389.25" cy="636.57" r="8.49"/><path class="cls-9" d="M495.48,577a8.49,8.49,0,1,0-16.85,1.46c-12.89,13.77-26.94,14.09-35.83,7.71a5.48,5.48,0,0,0-7.64,1.26c0,.06-.06.12-.1.18a22.67,22.67,0,0,0-8.6-2.35l-.08-.12a22.82,22.82,0,0,0,19.9-14.91c8.17-3.66,5-23,5-23l-5.17,7a22.75,22.75,0,0,0-2.66-5h4.05a3,3,0,0,0,3-3v-5.57a3,3,0,0,0-3-3H441.8c-5.09-9.88-20-36.93-33.89-43.64a5.15,5.15,0,1,0-.05,0c.36,1.51,6.93,29.56,1.61,43.54h-7.26a3,3,0,0,0-3,3v5.57a3,3,0,0,0,3,3h4a22.73,22.73,0,0,0-3.07,6.08l-6-8.13s-3.53,21.44,6.37,23.49a22.82,22.82,0,0,0,19.59,14.52l.11.13a22.66,22.66,0,0,0-8.61,2.34,5.46,5.46,0,0,0-5.56-2.36c-9.4,1.74-17.7,8-22.76,17.12a42.77,42.77,0,0,0-4.18,29.61,8.49,8.49,0,1,0,10.54-3.13,31.65,31.65,0,0,1,3.23-21.18,24.29,24.29,0,0,1,8-8.82A22.73,22.73,0,0,0,402,608v31.5h0a22.77,22.77,0,0,0,8.72,17.93v33.13h-1c-2.37,6.39,3,12.62,9.78,13a55.69,55.69,0,0,0,14.11-.57,11.72,11.72,0,0,0,2.92.57c28.66,1.76,22.27-10.59,22.27-10.59-1.63,6.51-13.58,6.51-18.2-2.45h-1.09V656.92a22.76,22.76,0,0,0,8.12-17.44h0V608a22.75,22.75,0,0,0-1.55-8.27,33.91,33.91,0,0,0,9.48,1.36,34.73,34.73,0,0,0,6.54-.62c8.92-1.71,17.42-6.86,24.89-15A8.49,8.49,0,0,0,495.48,577Zm-67.89,97.41v16.17h-.81a8.82,8.82,0,0,0-.56,3.53,13.43,13.43,0,0,1-2.61-3.53h-.9V662.19c.7.07,1.42.1,2.14.1a23,23,0,0,0,2.75-.17Z"/></g><g id="Unavailable"><path d="M495.48,577a8.49,8.49,0,1,0-16.85,1.46c-12.89,13.77-26.94,14.09-35.83,7.71a5.48,5.48,0,0,0-7.64,1.26c0,.06-.06.12-.1.18a22.67,22.67,0,0,0-8.6-2.35l-.08-.12a22.82,22.82,0,0,0,19.9-14.91c8.17-3.66,5-23,5-23l-5.17,7a22.75,22.75,0,0,0-2.66-5h4.05a3,3,0,0,0,3-3v-5.57a3,3,0,0,0-3-3H441.8c-5.09-9.88-20-36.93-33.89-43.64a5.15,5.15,0,1,0-.05,0c.36,1.51,6.93,29.56,1.61,43.54h-7.26a3,3,0,0,0-3,3v5.57a3,3,0,0,0,3,3h4a22.73,22.73,0,0,0-3.07,6.08l-6-8.13s-3.53,21.44,6.37,23.49a22.82,22.82,0,0,0,19.59,14.52l.11.13a22.66,22.66,0,0,0-8.61,2.34,5.46,5.46,0,0,0-5.56-2.36c-9.4,1.74-17.7,8-22.76,17.12a42.77,42.77,0,0,0-4.18,29.61,8.49,8.49,0,1,0,10.54-3.13,31.65,31.65,0,0,1,3.23-21.18,24.29,24.29,0,0,1,8-8.82A22.73,22.73,0,0,0,402,608v31.5h0a22.77,22.77,0,0,0,8.72,17.93v33.13h-1c-2.37,6.39,3,12.62,9.78,13a55.69,55.69,0,0,0,14.11-.57,11.72,11.72,0,0,0,2.92.57c28.66,1.76,22.27-10.59,22.27-10.59-1.63,6.51-13.58,6.51-18.2-2.45h-1.09V656.92a22.76,22.76,0,0,0,8.12-17.44h0V608a22.75,22.75,0,0,0-1.55-8.27,33.91,33.91,0,0,0,9.48,1.36,34.73,34.73,0,0,0,6.54-.62c8.92-1.71,17.42-6.86,24.89-15A8.49,8.49,0,0,0,495.48,577Zm-67.89,97.41v16.17h-.81a8.82,8.82,0,0,0-.56,3.53,13.43,13.43,0,0,1-2.61-3.53h-.9V662.19c.7.07,1.42.1,2.14.1a23,23,0,0,0,2.75-.17Z"/></g></svg>