<svg xmlns="http://www.w3.org/2000/svg" xmlns:xlink="http://www.w3.org/1999/xlink" viewBox="0 0 875 875"><defs><style>.cls-1,.cls-3,.cls-4{fill:none;}.cls-2{opacity:0.2;}.cls-3{stroke:#a8844f;}.cls-3,.cls-4{stroke-linecap:round;stroke-linejoin:round;stroke-width:11.85px;}.cls-4{stroke:#caa56e;}.cls-5{fill:#caa56e;}.cls-6{fill:#fff;}.cls-7{fill:#59595c;}.cls-8{fill:#b56d3d;}.cls-9{fill:#b0b0b0;}.cls-10{clip-path:url(#clip-path);}.cls-11{fill:#ffd200;opacity:0.75;}</style><clipPath id="clip-path"><rect class="cls-1" x="391.25" y="480.38" width="61.39" height="127.22" rx="29.87" ry="29.87"/></clipPath></defs><title>Untitled-4</title><g id="Layer_1" data-name="Layer 1"><ellipse class="cls-2" cx="421.39" cy="703.49" rx="47.68" ry="8.9"/><path class="cls-3" d="M508.26,481.43c-22.17,26.5-59.66,32.27-84,15.88"/><line class="cls-4" x1="407.89" y1="576.19" x2="407.67" y2="698.64"/><line class="cls-3" x1="433.05" y1="594.26" x2="435.85" y2="698.64"/><path class="cls-5" d="M422.81,565.14a17,17,0,0,1-17,17l.65.65c-9.41,0-12.53-37.07-12.53-46.48L411.27,411.3s8-7.7,17.4-7.7h0a17,17,0,0,1,17,17Z"/><path class="cls-5" d="M410.86,416.19c0-20.86,19.9-23,33.2-15.29,8.75,5.11,18.17,10,27.58,17.1,11.86,9,4.53,17.23-3.63,17.23,0,0-29.57-.09-36.62-.09s-20.53-4.62-20.53-19"/><path class="cls-6" d="M445,416.19a5.44,5.44,0,1,1-5.44-5.44,5.44,5.44,0,0,1,5.44,5.44"/><path class="cls-7" d="M440.86,414.2a2.61,2.61,0,1,1-3.56,1,2.61,2.61,0,0,1,3.56-1"/><path class="cls-6" d="M460,409.78a5.44,5.44,0,1,1-5.44-5.44,5.44,5.44,0,0,1,5.44,5.44"/><path class="cls-7" d="M455.84,407.8a2.61,2.61,0,1,1-3.56,1,2.61,2.61,0,0,1,3.56-1"/><path class="cls-8" d="M486.23,425a7.09,7.09,0,1,1-7.08-7.08,7.09,7.09,0,0,1,7.08,7.08"/><path class="cls-6" d="M435.9,483.3c-14.14-28-7.27-45.31,7.64-48.15Z"/><path class="cls-9" d="M376.79,352.37h6.74V338.6a3.07,3.07,0,0,1,6.15,0v13.8a9.23,9.23,0,0,1,8.63,9.19v8.2a3.08,3.08,0,0,0,3.07,3.07h18.44a9.23,9.23,0,0,1,9.22,9.22v2.39h9.73a3.08,3.08,0,0,0,3.07-3.07v-9.57a3.08,3.08,0,0,0-3.07-3.07H424.43a9.23,9.23,0,0,1-9.22-9.22V346.29h-5.39a9.23,9.23,0,0,1-9.22-9.22v-7.69a3.07,3.07,0,1,1,6.15,0v7.69a3.08,3.08,0,0,0,3.08,3.07h5.39v-2.46a3.07,3.07,0,1,1,6.15,0v12h7.86a3.08,3.08,0,0,0,3.07-3.07V334.95a3.07,3.07,0,0,1,6.15,0v11.61a9.23,9.23,0,0,1-9.22,9.22h-7.86v3.76a3.08,3.08,0,0,0,3.07,3.07h14.35a9.23,9.23,0,0,1,9.22,9.22v9.57a9.23,9.23,0,0,1-9.22,9.22H429v9.91a3.07,3.07,0,1,1-6.15,0V382.09a3.08,3.08,0,0,0-3.07-3.07H401.38a9.23,9.23,0,0,1-9.22-9.22v-8.2a3.08,3.08,0,0,0-3.07-3.07h-12.3a3.07,3.07,0,1,1,0-6.15Z"/><path class="cls-6" d="M400,585.8a9.29,9.29,0,0,1-10.73,7.6c-23.09-4-23.13-17.74-22.24-22.82L392.45,575A9.29,9.29,0,0,1,400,585.8Z"/><rect class="cls-5" x="391.25" y="480.38" width="61.39" height="127.22" rx="29.87" ry="29.87"/><g class="cls-10"><path class="cls-3" d="M385.7,561.11c-2-24.15,8.73-47.46,27.6-58.77"/></g><path class="cls-4" d="M382.24,582c-10.72-32.85,4.26-67.69,31.06-79.63"/><path class="cls-11" d="M512.2,476.86a5.92,5.92,0,0,0-8.35.74c-13.48,16.11-34,24.24-52.77,22.72a30,30,0,0,0-15.18-17l0-.24.09.19,7.63-48.13,24.47.06a10.76,10.76,0,0,0,8.39-3.7,7.09,7.09,0,1,0-2.34-11.45,24.8,24.8,0,0,0-2.42-2.09,139.49,139.49,0,0,0-11.63-7.85c0-.12,0-.24,0-.37a5.44,5.44,0,0,0-8.41-4.56c-2.56-1.46-5.08-2.88-7.55-4.32a29.9,29.9,0,0,0-15-4.12V390.6h9.73a9.23,9.23,0,0,0,9.22-9.22v-9.57a9.23,9.23,0,0,0-9.22-9.22H424.57a3.08,3.08,0,0,1-3.07-3.07v-3.76h7.86a9.23,9.23,0,0,0,9.22-9.22V334.92a3.07,3.07,0,0,0-6.15,0v11.61a3.08,3.08,0,0,1-3.07,3.07h-7.86v-12a3.07,3.07,0,1,0-6.15,0v2.46H410a3.08,3.08,0,0,1-3.08-3.07v-7.69a3.07,3.07,0,1,0-6.15,0V337a9.23,9.23,0,0,0,9.22,9.22h5.39v13.25a9.23,9.23,0,0,0,9.22,9.22h14.35a3.08,3.08,0,0,1,3.07,3.07v9.57a3.08,3.08,0,0,1-3.07,3.07h-9.73v-2.39a9.23,9.23,0,0,0-9.22-9.22H401.51a3.08,3.08,0,0,1-3.07-3.07v-8.2a9.23,9.23,0,0,0-8.63-9.19v-13.8a3.07,3.07,0,0,0-6.15,0v13.77h-6.74a3.07,3.07,0,1,0,0,6.15h12.3a3.08,3.08,0,0,1,3.07,3.07v8.2a9.23,9.23,0,0,0,9.22,9.22H420a3.08,3.08,0,0,1,3.07,3.07v15.6c-5.71,1.73-10.26,6-11.62,13.6h0l-.07.49c-.06.36-.11.71-.15,1.08l-10.52,75.73a29.77,29.77,0,0,0-9.28,21.63v.95a68.88,68.88,0,0,0-13,20.91,75.39,75.39,0,0,0-4.46,39.66l-6.74-1.18c-.89,5.07-.85,18.78,22.24,22.82a9.16,9.16,0,0,0,5.89-.94,30,30,0,0,0,6.79,8.15l-.18,98a5.92,5.92,0,0,0,5.91,5.94h0a5.92,5.92,0,0,0,5.92-5.91l.17-92a29.92,29.92,0,0,0,7.35.92h1.65a30.07,30.07,0,0,0,4.7-.37l2.46,91.57a5.92,5.92,0,0,0,5.92,5.77h.16a5.92,5.92,0,0,0,5.76-6.08l-2.57-95.81a29.83,29.83,0,0,0,13.43-24.94V512.32c1,0,1.92.07,2.89.07a71.78,71.78,0,0,0,12.59-1.13,75.8,75.8,0,0,0,44.69-26.06A5.92,5.92,0,0,0,512.2,476.86Zm-68.67-41.71h0ZM386.34,573.9a64.27,64.27,0,0,1,5-41.85v42.73Z"/></g><g id="Unavailable"><path d="M512.2,476.86a5.92,5.92,0,0,0-8.35.74c-13.48,16.11-34,24.24-52.77,22.72a30,30,0,0,0-15.18-17l0-.24.09.19,7.63-48.13,24.47.06a10.76,10.76,0,0,0,8.39-3.7,7.09,7.09,0,1,0-2.34-11.45,24.8,24.8,0,0,0-2.42-2.09,139.49,139.49,0,0,0-11.63-7.85c0-.12,0-.24,0-.37a5.44,5.44,0,0,0-8.41-4.56c-2.56-1.46-5.08-2.88-7.55-4.32a29.9,29.9,0,0,0-15-4.12V390.6h9.73a9.23,9.23,0,0,0,9.22-9.22v-9.57a9.23,9.23,0,0,0-9.22-9.22H424.57a3.08,3.08,0,0,1-3.07-3.07v-3.76h7.86a9.23,9.23,0,0,0,9.22-9.22V334.92a3.07,3.07,0,0,0-6.15,0v11.61a3.08,3.08,0,0,1-3.07,3.07h-7.86v-12a3.07,3.07,0,1,0-6.15,0v2.46H410a3.08,3.08,0,0,1-3.08-3.07v-7.69a3.07,3.07,0,1,0-6.15,0V337a9.23,9.23,0,0,0,9.22,9.22h5.39v13.25a9.23,9.23,0,0,0,9.22,9.22h14.35a3.08,3.08,0,0,1,3.07,3.07v9.57a3.08,3.08,0,0,1-3.07,3.07h-9.73v-2.39a9.23,9.23,0,0,0-9.22-9.22H401.51a3.08,3.08,0,0,1-3.07-3.07v-8.2a9.23,9.23,0,0,0-8.63-9.19v-13.8a3.07,3.07,0,0,0-6.15,0v13.77h-6.74a3.07,3.07,0,1,0,0,6.15h12.3a3.08,3.08,0,0,1,3.07,3.07v8.2a9.23,9.23,0,0,0,9.22,9.22H420a3.08,3.08,0,0,1,3.07,3.07v15.6c-5.71,1.73-10.26,6-11.62,13.6h0l-.07.49c-.06.36-.11.71-.15,1.08l-10.52,75.73a29.77,29.77,0,0,0-9.28,21.63v.95a68.88,68.88,0,0,0-13,20.91,75.39,75.39,0,0,0-4.46,39.66l-6.74-1.18c-.89,5.07-.85,18.78,22.24,22.82a9.16,9.16,0,0,0,5.89-.94,30,30,0,0,0,6.79,8.15l-.18,98a5.92,5.92,0,0,0,5.91,5.94h0a5.92,5.92,0,0,0,5.92-5.91l.17-92a29.92,29.92,0,0,0,7.35.92h1.65a30.07,30.07,0,0,0,4.7-.37l2.46,91.57a5.92,5.92,0,0,0,5.92,5.77h.16a5.92,5.92,0,0,0,5.76-6.08l-2.57-95.81a29.83,29.83,0,0,0,13.43-24.94V512.32c1,0,1.92.07,2.89.07a71.78,71.78,0,0,0,12.59-1.13,75.8,75.8,0,0,0,44.69-26.06A5.92,5.92,0,0,0,512.2,476.86Zm-68.67-41.71h0ZM386.34,573.9a64.27,64.27,0,0,1,5-41.85v42.73Z"/></g></svg>