<svg xmlns="http://www.w3.org/2000/svg" width="1052.1" height="590.9" viewBox="0 0 1052.1 590.9"><ellipse fill="#B5B5B5" cx="526.1" cy="51.5" rx="20.1" ry="6.6"/><linearGradient id="a" gradientUnits="userSpaceOnUse" x1="-927.859" y1="3214.711" x2="-927.859" y2="2670.486" gradientTransform="matrix(-1 0 0 -1 -401.795 3204.654)"><stop offset="0" stop-color="#fff"/><stop offset="1" stop-color="#fff" stop-opacity="0"/></linearGradient><path opacity=".7" fill="url(#a)" d="M540.5 51.5H511.6L406.2 590.9h239.7z"/><ellipse fill="#fff" cx="526.1" cy="51.5" rx="14.7" ry="3.9"/><ellipse transform="matrix(.707 -.707 .707 .707 142.667 426.327)" fill="#B5B5B5" cx="586" cy="41" rx="20.1" ry="6.6"/><linearGradient id="b" gradientUnits="userSpaceOnUse" x1="-1821.287" y1="2040.535" x2="-1821.287" y2="1496.31" gradientTransform="matrix(-.707 .707 -.707 -.707 697.471 2728.154)"><stop offset="0" stop-color="#fff"/><stop offset="1" stop-color="#fff" stop-opacity="0"/></linearGradient><path opacity=".7" fill="url(#b)" d="M596.1 30.8l-20.3 20.3v.1l306.8 455.9 169.5-169.5z"/><ellipse transform="matrix(.707 -.707 .707 .707 142.667 426.327)" fill="#fff" cx="586" cy="41" rx="14.7" ry="3.9"/><ellipse transform="matrix(.707 .707 -.707 .707 165.494 -317.639)" fill="#B5B5B5" cx="466.2" cy="41" rx="20.1" ry="6.6"/><linearGradient id="c" gradientUnits="userSpaceOnUse" x1="596.114" y1="3562.803" x2="596.114" y2="3018.577" gradientTransform="matrix(-.707 -.707 .707 -.707 -1588.078 2938.231)"><stop offset="0" stop-color="#fff"/><stop offset="1" stop-color="#fff" stop-opacity="0"/></linearGradient><path opacity=".7" fill="url(#c)" d="M476.4 51.1L456 30.8h-.1L0 337.6l169.5 169.5z"/><ellipse transform="matrix(.707 .707 -.707 .707 165.494 -317.639)" fill="#fff" cx="466.2" cy="41" rx="14.7" ry="3.9"/></svg>