{
    "accessors" : [{
        "bufferView" : 0, 
        "componentType" : 5123, 
        "count" : 2964, 
        "max" : [2123], 
        "min" : [0], 
        "type" : "SCALAR"
    }, {
        "bufferView" : 1, 
        "componentType" : 5126, 
        "count" : 2124, 
        "max" : [1.29431, 6.59076, 3.67009], 
        "min" : [-1.28351, -0.0143654, -1.92867], 
        "type" : "VEC3"
    }, {
        "bufferView" : 2, 
        "componentType" : 5126, 
        "count" : 2124, 
        "max" : [1, 1, 0.999738], 
        "min" : [-1, -1, -1], 
        "type" : "VEC3"
    }, {
        "bufferView" : 3, 
        "componentType" : 5126, 
        "count" : 2124, 
        "max" : [0.987292, 0.999631], 
        "min" : [0.000369215, 0.000369251], 
        "type" : "VEC2"
    }, {
        "bufferView" : 4, 
        "componentType" : 5126, 
        "count" : 2124, 
        "max" : [0, 1], 
        "min" : [0, 1], 
        "type" : "VEC2"
    }, {
        "bufferView" : 5, 
        "componentType" : 5126, 
        "count" : 2124, 
        "max" : [1, 1, 1, 1], 
        "min" : [0, 0, 0, 1], 
        "type" : "VEC4"
    }, {
        "bufferView" : 6, 
        "componentType" : 5123, 
        "count" : 2124, 
        "max" : [0, 0, 0, 0], 
        "min" : [0, 0, 0, 0], 
        "type" : "VEC4"
    }, {
        "bufferView" : 7, 
        "componentType" : 5126, 
        "count" : 2124, 
        "max" : [0, 0, 0, 0], 
        "min" : [0, 0, 0, 0], 
        "type" : "VEC4"
    }, {
        "bufferView" : 8, 
        "componentType" : 5123, 
        "count" : 2124, 
        "max" : [0, 0, 0, 0], 
        "min" : [0, 0, 0, 0], 
        "type" : "VEC4"
    }, {
        "bufferView" : 9, 
        "componentType" : 5126, 
        "count" : 2124, 
        "max" : [0, 0, 0, 0], 
        "min" : [0, 0, 0, 0], 
        "type" : "VEC4"
    }, {
        "bufferView" : 10, 
        "componentType" : 5123, 
        "count" : 2124, 
        "max" : [0, 0, 0, 0], 
        "min" : [0, 0, 0, 0], 
        "type" : "VEC4"
    }, {
        "bufferView" : 11, 
        "componentType" : 5126, 
        "count" : 2124, 
        "max" : [0, 0, 0, 0], 
        "min" : [0, 0, 0, 0], 
        "type" : "VEC4"
    }], 
    "asset" : {
        "generator" : "Khronos Blender glTF 2.0 exporter", 
        "version" : "2.0"
    }, 
    "bufferViews" : [{
        "buffer" : 0, 
        "byteLength" : 5928, 
        "byteOffset" : 0, 
        "target" : 34963
    }, {
        "buffer" : 0, 
        "byteLength" : 25488, 
        "byteOffset" : 5928, 
        "target" : 34962
    }, {
        "buffer" : 0, 
        "byteLength" : 25488, 
        "byteOffset" : 31416, 
        "target" : 34962
    }, {
        "buffer" : 0, 
        "byteLength" : 16992, 
        "byteOffset" : 56904, 
        "target" : 34962
    }, {
        "buffer" : 0, 
        "byteLength" : 16992, 
        "byteOffset" : 73896, 
        "target" : 34962
    }, {
        "buffer" : 0, 
        "byteLength" : 33984, 
        "byteOffset" : 90888, 
        "target" : 34962
    }, {
        "buffer" : 0, 
        "byteLength" : 16992, 
        "byteOffset" : 124872, 
        "target" : 34962
    }, {
        "buffer" : 0, 
        "byteLength" : 33984, 
        "byteOffset" : 141864, 
        "target" : 34962
    }, {
        "buffer" : 0, 
        "byteLength" : 16992, 
        "byteOffset" : 175848, 
        "target" : 34962
    }, {
        "buffer" : 0, 
        "byteLength" : 33984, 
        "byteOffset" : 192840, 
        "target" : 34962
    }, {
        "buffer" : 0, 
        "byteLength" : 16992, 
        "byteOffset" : 226824, 
        "target" : 34962
    }, {
        "buffer" : 0, 
        "byteLength" : 33984, 
        "byteOffset" : 243816, 
        "target" : 34962
    }], 
    "buffers" : [{
        "byteLength" : 277800, 
        "uri" : "elfskiing.bin"
    }], 
    "images" : [{
        "uri" : "elf.png"
    }], 
    "materials" : [{
        "name" : "Material", 
        "pbrMetallicRoughness" : {
            "baseColorFactor" : [0.64, 0.64, 0.64, 1], 
            "baseColorTexture" : {
                "index" : 0
            }, 
            "metallicFactor" : 0
        }
    }], 
    "meshes" : [{
        "name" : "elf_geometry.002", 
        "primitives" : [{
            "attributes" : {
                "COLOR_0" : 5, 
                "JOINTS_0" : 6, 
                "JOINTS_1" : 8, 
                "JOINTS_2" : 10, 
                "NORMAL" : 2, 
                "POSITION" : 1, 
                "TEXCOORD_0" : 3, 
                "TEXCOORD_1" : 4, 
                "WEIGHTS_0" : 7, 
                "WEIGHTS_1" : 9, 
                "WEIGHTS_2" : 11
            }, 
            "indices" : 0, 
            "material" : 0
        }]
    }], 
    "nodes" : [{
        "mesh" : 0, 
        "name" : "elf_skiing_baked"
    }], 
    "samplers" : [{}], 
    "scene" : 0, 
    "scenes" : [{
        "name" : "Scene", 
        "nodes" : [0]
    }], 
    "textures" : [{
        "sampler" : 0, 
        "source" : 0
    }]
}
