<svg xmlns="http://www.w3.org/2000/svg" width="57.6" height="57.6" viewBox="0 0 57.6 57.6"><g opacity=".07"><path d="M55.3 18.5L16.4 57.3c-.4.4-1.2.4-1.6 0L2.3 44.8c-.4-.4-.4-1.2 0-1.6L41.2 4.4c.4-.4 1.2-.4 1.6 0l12.5 12.5c.4.4.4 1.1 0 1.6z"/><path opacity=".6" d="M7.35 38.237l9.052-9.05 14.07 14.07-9.05 9.052z"/><path d="M8.058 35.876l33.94-33.94L57.7 17.63l-33.942 33.94z"/><path d="M13.008 40.825l33.94-33.94 5.8 5.798-33.942 33.94z"/></g><path fill="#eee" d="M53.3 16.5L14.4 55.3c-.4.4-1.2.4-1.6 0L.3 42.8c-.4-.4-.4-1.2 0-1.6L39.2 2.4c.4-.4 1.2-.4 1.6 0l12.5 12.5c.4.4.4 1.1 0 1.6z"/><path opacity=".6" fill="#BDBDBD" d="M5.35 36.237l9.052-9.05 14.072 14.07-9.05 9.052z"/><path fill="#1976D2" d="M6.058 33.876l33.94-33.94L55.7 15.63l-33.942 33.94z"/><path fill="#1E88E5" d="M11.008 38.825l33.94-33.94 5.8 5.798-33.942 33.94z"/></svg>