<svg xmlns="http://www.w3.org/2000/svg" xmlns:xlink="http://www.w3.org/1999/xlink" viewBox="0 0 525.85 389.77" width="525.85" height="389.77"><defs><style>.cls-1,.cls-13,.cls-6{fill:none;}.cls-2{isolation:isolate;}.cls-3{fill:#b07644;}.cls-4{fill:#00a351;}.cls-5{clip-path:url(#clip-path);}.cls-6{stroke:#000;}.cls-13,.cls-6{stroke-miterlimit:10;stroke-width:4.15px;}.cls-7{fill:#845930;}.cls-8{fill:#084;}.cls-9{clip-path:url(#clip-path-2);}.cls-10{fill:#85837d;}.cls-11{fill:#231f20;opacity:0.2;mix-blend-mode:multiply;}.cls-12{fill:#71bdde;}.cls-13{stroke:#fff;}.cls-14{fill:#664525;}</style><clipPath id="clip-path"><polygon class="cls-1" points="354.63 134.81 0 134.81 85.61 0 440.24 0 354.63 134.81"/></clipPath><clipPath id="clip-path-2"><path class="cls-1" d="M127.21,385.55V329a50.11,50.11,0,0,1,50.1-50.11h0A50.11,50.11,0,0,1,227.42,329v56.53Z"/></clipPath></defs><title>house</title><g class="cls-2"><g id="Layer_2" data-name="Layer 2"><g id="ART"><rect class="cls-3" y="134.81" width="354.63" height="250.75"/><polygon class="cls-4" points="354.63 134.81 0 134.81 85.61 0 440.24 0 354.63 134.81"/><g class="cls-5"><line class="cls-6" y1="33.7" x2="525.85" y2="33.7"/><line class="cls-6" y1="67.4" x2="525.85" y2="67.4"/><line class="cls-6" y1="101.11" x2="525.85" y2="101.11"/></g><rect class="cls-7" x="354.63" y="134.81" width="171.22" height="250.75" transform="translate(880.48 520.36) rotate(180)"/><polygon class="cls-8" points="440.24 0 354.63 134.81 525.85 134.81 440.24 0"/><path class="cls-7" d="M127.21,385.55V329a50.11,50.11,0,0,1,50.1-50.11h0A50.11,50.11,0,0,1,227.42,329v56.53Z"/><g class="cls-9"><line class="cls-6" x1="202.37" y1="274.69" x2="202.37" y2="389.77"/><line class="cls-6" x1="177.31" y1="274.69" x2="177.31" y2="389.77"/><line class="cls-6" x1="152.26" y1="274.69" x2="152.26" y2="389.77"/></g><circle class="cls-10" cx="139.73" cy="342.92" r="6.57"/><path class="cls-11" d="M183.7,279.33a51.69,51.69,0,0,0-6.39-.42A50.11,50.11,0,0,0,127.21,329v56.53H140V329A50.1,50.1,0,0,1,183.7,279.33Z"/><circle class="cls-12" cx="440.24" cy="90.01" r="27.89"/><line class="cls-13" x1="412.35" y1="90.01" x2="468.13" y2="90.01"/><line class="cls-13" x1="440.24" y1="62.12" x2="440.24" y2="117.9"/><path class="cls-11" d="M457,90a27.89,27.89,0,0,0-22.33-27.33,27.89,27.89,0,1,1,5.57,55.22,28.36,28.36,0,0,1-5.57-.55A27.91,27.91,0,0,0,457,90Z"/><rect class="cls-12" x="29.49" y="279.43" width="64.01" height="64.01"/><line class="cls-13" x1="29.49" y1="311.44" x2="93.5" y2="311.44"/><line class="cls-13" x1="61.49" y1="279.43" x2="61.49" y2="343.44"/><rect class="cls-11" x="29.49" y="279.43" width="8" height="64.01"/><rect class="cls-7" x="57.49" y="305.85" width="8" height="83.18" transform="translate(-285.95 408.93) rotate(-90)"/><polygon class="cls-7" points="61.49 246.69 19.91 279.43 103.08 279.43 61.49 246.69"/><rect class="cls-12" x="261.13" y="279.43" width="64.01" height="64.01"/><line class="cls-13" x1="261.13" y1="311.44" x2="325.14" y2="311.44"/><line class="cls-13" x1="293.13" y1="279.43" x2="293.13" y2="343.44"/><rect class="cls-11" x="261.13" y="279.43" width="8" height="64.01"/><rect class="cls-7" x="289.13" y="305.85" width="8" height="83.18" transform="translate(-54.31 640.57) rotate(-90)"/><polygon class="cls-7" points="293.13 246.69 251.54 279.43 334.72 279.43 293.13 246.69"/><rect class="cls-12" x="408.24" y="279.43" width="64.01" height="64.01"/><line class="cls-13" x1="408.24" y1="311.44" x2="472.24" y2="311.44"/><line class="cls-13" x1="440.24" y1="279.43" x2="440.24" y2="343.44"/><rect class="cls-11" x="408.24" y="279.43" width="8" height="64.01"/><rect class="cls-14" x="436.24" y="305.85" width="8" height="83.18" transform="translate(92.8 787.68) rotate(-90)"/><polygon class="cls-14" points="440.24 246.69 398.65 279.43 481.83 279.43 440.24 246.69"/><rect class="cls-12" x="29.49" y="166.63" width="64.01" height="64.01"/><line class="cls-13" x1="29.49" y1="198.63" x2="93.5" y2="198.63"/><line class="cls-13" x1="61.49" y1="166.63" x2="61.49" y2="230.64"/><rect class="cls-11" x="29.49" y="166.63" width="8" height="64.01"/><rect class="cls-7" x="57.49" y="193.05" width="8" height="83.18" transform="translate(-173.14 296.13) rotate(-90)"/><rect class="cls-12" x="145.31" y="166.63" width="64.01" height="64.01"/><line class="cls-13" x1="145.31" y1="198.63" x2="209.32" y2="198.63"/><line class="cls-13" x1="177.31" y1="166.63" x2="177.31" y2="230.64"/><rect class="cls-11" x="145.31" y="166.63" width="8" height="64.01"/><rect class="cls-7" x="173.31" y="193.05" width="8" height="83.18" transform="translate(-57.32 411.95) rotate(-90)"/><rect class="cls-12" x="261.13" y="166.63" width="64.01" height="64.01"/><line class="cls-13" x1="261.13" y1="198.63" x2="325.14" y2="198.63"/><line class="cls-13" x1="293.13" y1="166.63" x2="293.13" y2="230.64"/><rect class="cls-11" x="261.13" y="166.63" width="8" height="64.01"/><rect class="cls-7" x="289.13" y="193.05" width="8" height="83.18" transform="translate(58.5 527.77) rotate(-90)"/><rect class="cls-12" x="408.24" y="166.63" width="64.01" height="64.01"/><line class="cls-13" x1="408.24" y1="198.63" x2="472.24" y2="198.63"/><line class="cls-13" x1="440.24" y1="166.63" x2="440.24" y2="230.64"/><rect class="cls-11" x="408.24" y="166.63" width="8" height="64.01"/><rect class="cls-14" x="436.24" y="193.05" width="8" height="83.18" transform="translate(205.6 674.88) rotate(-90)"/></g></g></g></svg>