<svg xmlns="http://www.w3.org/2000/svg" viewBox="0 0 1033.95 355"><defs><style>.cls-1{fill:#7099ba;}.cls-2{fill:#ffea52;}.cls-3{fill:#b59a48;}.cls-4{fill:#fdd835;}.cls-5{fill:#a7c1c5;}.cls-6{fill:#b6e2f8;}.cls-7{fill:#61aac9;}.cls-8{fill:#e1f3fc;}.cls-9{fill:#ccc;}.cls-10{fill:#e8e8e8;}.cls-11,.cls-13{fill:#fff;}.cls-12{fill:#fbcd48;}.cls-13{stroke:#b59a48;stroke-miterlimit:10;stroke-width:7.89px;}.cls-14{fill:#d43e2e;}</style></defs><title>school_bus</title><g id="Layer_2" data-name="Layer 2"><g id="ART"><circle class="cls-1" cx="160.51" cy="309.78" r="45.22" transform="translate(-172.04 204.23) rotate(-45)"/><circle class="cls-1" cx="749.85" cy="309.78" r="45.22" transform="translate(0.58 620.96) rotate(-45)"/><path class="cls-2" d="M958.07,59.5V299.33h-947V198.23c0-27.23,1.65-39.63,38.84-39.63H70.54V59.5A59.46,59.46,0,0,1,130,0H917.59C950.4,0,958.07,26.61,958.07,59.5Z"/><path class="cls-3" d="M970,2.35H197.44a59.23,59.23,0,0,0-59.43,59v98.39H117.38c-37.15,0-38.79,12.3-38.79,39.35V313.9h950.82V61.38A59.23,59.23,0,0,0,970,2.35Z"/><path class="cls-4" d="M1013.44,59.48c0-32.85-10.66-59.48-43.51-59.48H196.72a59.48,59.48,0,0,0-59.48,59.48v99.13H116.59c-37.18,0-38.83,12.39-38.83,39.65V285h932.69V239.56h3Z"/><rect class="cls-5" x="451.5" y="57.64" width="86.89" height="86.57" rx="8.27" ry="8.27"/><path class="cls-5" d="M432.65,135.93a8.26,8.26,0,0,1-8.27,8.28H354a8.26,8.26,0,0,1-8.26-8.28v-70A8.25,8.25,0,0,1,354,57.64h70.35a8.25,8.25,0,0,1,8.27,8.27Z"/><path class="cls-5" d="M644.12,135.93a8.27,8.27,0,0,1-8.28,8.28H565.5a8.28,8.28,0,0,1-8.28-8.28v-70a8.27,8.27,0,0,1,8.28-8.27h70.34a8.26,8.26,0,0,1,8.28,8.27Z"/><path class="cls-5" d="M751.48,135.93a8.27,8.27,0,0,1-8.27,8.28H672.86a8.27,8.27,0,0,1-8.27-8.28v-70a8.26,8.26,0,0,1,8.27-8.27h70.35a8.26,8.26,0,0,1,8.27,8.27Z"/><path class="cls-5" d="M857.2,135.93a8.26,8.26,0,0,1-8.27,8.28H778.59a8.26,8.26,0,0,1-8.27-8.28v-70a8.25,8.25,0,0,1,8.27-8.27h70.34a8.25,8.25,0,0,1,8.27,8.27Z"/><path class="cls-5" d="M962.93,135.93a8.27,8.27,0,0,1-8.27,8.28H884.31a8.27,8.27,0,0,1-8.27-8.28v-70a8.26,8.26,0,0,1,8.27-8.27h70.35a8.26,8.26,0,0,1,8.27,8.27Z"/><path class="cls-5" d="M205.92,135.93a8.27,8.27,0,0,0,8.28,8.28h70.33a8.27,8.27,0,0,0,8.28-8.28v-70a8.26,8.26,0,0,0-8.28-8.27H214.2a8.26,8.26,0,0,0-8.28,8.27Z"/><path class="cls-5" d="M990,57.64a8.25,8.25,0,0,0-8.27,8.27v70a8.26,8.26,0,0,0,8.27,8.28h39.37V57.64Z"/><path class="cls-5" d="M183.77,135.93v-70a8.26,8.26,0,0,0-8.28-8.27H137.24v86.57h38.25A8.27,8.27,0,0,0,183.77,135.93Z"/><rect class="cls-6" x="451.5" y="70.4" width="86.89" height="86.57" rx="8.27" ry="8.27"/><path class="cls-6" d="M432.65,148.7a8.26,8.26,0,0,1-8.27,8.27H354a8.26,8.26,0,0,1-8.26-8.27v-70A8.26,8.26,0,0,1,354,70.4h70.35a8.26,8.26,0,0,1,8.27,8.27Z"/><path class="cls-6" d="M644.12,148.7a8.27,8.27,0,0,1-8.28,8.27H565.5a8.28,8.28,0,0,1-8.28-8.27v-70a8.28,8.28,0,0,1,8.28-8.27h70.34a8.27,8.27,0,0,1,8.28,8.27Z"/><rect class="cls-6" x="664.59" y="70.4" width="86.89" height="86.57" rx="8.27" ry="8.27"/><path class="cls-6" d="M857.2,148.7a8.26,8.26,0,0,1-8.27,8.27H778.59a8.26,8.26,0,0,1-8.27-8.27v-70a8.26,8.26,0,0,1,8.27-8.27h70.34a8.26,8.26,0,0,1,8.27,8.27Z"/><path class="cls-6" d="M962.93,148.7a8.27,8.27,0,0,1-8.27,8.27H884.31A8.27,8.27,0,0,1,876,148.7v-70a8.27,8.27,0,0,1,8.27-8.27h70.35a8.27,8.27,0,0,1,8.27,8.27Z"/><path class="cls-6" d="M205.92,148.7A8.27,8.27,0,0,0,214.2,157h70.33a8.27,8.27,0,0,0,8.28-8.27v-70a8.27,8.27,0,0,0-8.28-8.27H214.2a8.27,8.27,0,0,0-8.28,8.27Z"/><path class="cls-7" d="M990,70.4a8.26,8.26,0,0,0-8.27,8.27v70A8.26,8.26,0,0,0,990,157h39.37V70.4Z"/><path class="cls-6" d="M990,70.4a8.26,8.26,0,0,0-8.27,8.27v70A8.26,8.26,0,0,0,990,157h26.39V70.4Z"/><path class="cls-6" d="M183.77,148.7v-70a8.27,8.27,0,0,0-8.28-8.27H137.24V157h38.25A8.27,8.27,0,0,0,183.77,148.7Z"/><rect class="cls-8" x="70.54" y="70.39" width="66.71" height="86.56"/><circle class="cls-1" cx="236.37" cy="309.78" r="45.22" transform="translate(-149.82 257.87) rotate(-45)"/><path class="cls-3" d="M179.05,308.37a56.18,56.18,0,0,1,112.36,0"/><path class="cls-3" d="M744.09,308.37a56.18,56.18,0,0,1,112.36,0"/><path class="cls-3" d="M838.27,308.37a56.18,56.18,0,0,1,112.35,0"/><path class="cls-1" d="M191.15,309.78a45.22,45.22,0,1,1,90.44,0"/><path class="cls-2" d="M262.41,309.78a26,26,0,1,1-26-26A26,26,0,0,1,262.41,309.78Z"/><circle class="cls-1" cx="801.41" cy="309.78" r="45.22" transform="translate(-57.54 330.27) rotate(-22.5)"/><path class="cls-2" d="M827.45,309.78a26,26,0,1,1-26-26A26,26,0,0,1,827.45,309.78Z"/><circle class="cls-1" cx="895.58" cy="309.78" r="45.22" transform="translate(388.33 1110.23) rotate(-76.72)"/><path class="cls-2" d="M921.62,309.78a26,26,0,1,1-26-26A26,26,0,0,1,921.62,309.78Z"/><rect class="cls-3" x="977.36" y="287.48" width="56.59" height="32.22"/><rect class="cls-9" x="977.36" y="287.48" width="37.57" height="20.65"/><rect class="cls-10" x="13.88" y="217.26" width="64.09" height="70.22"/><rect class="cls-3" x="73.22" y="287.48" width="91.69" height="32.22"/><rect class="cls-10" y="287.48" width="164.91" height="20.65"/><rect class="cls-1" x="61.97" y="287.48" width="102.94" height="20.65"/><rect class="cls-11" x="77.14" y="183.19" width="13.63" height="33.45"/><rect class="cls-11" x="7.06" y="183.19" width="13.63" height="33.45"/><rect class="cls-12" x="1015.59" y="183.19" width="13.63" height="33.45"/><path class="cls-7" d="M243.74,99.76a2.79,2.79,0,0,0-2.8,2.79v5.12a2.8,2.8,0,0,0,2.8,2.8h4.07a20.84,20.84,0,0,0-3.87,12l-16.71,4.82c-2.14,0-2.14,3.1,1,3.1h17.25A20.95,20.95,0,0,0,281,136.06h0a20.81,20.81,0,0,0,1.92-2.72l.2-.33a20.23,20.23,0,0,0,1.37-2.9l.18-.48a20.33,20.33,0,0,0,.85-3.13c0-.14.05-.29.07-.44A20.6,20.6,0,0,0,282,110.47h3.41a2.79,2.79,0,0,0,2.79-2.8v-5.12a2.79,2.79,0,0,0-2.79-2.79h-3.19c-5-8.53.88-22.94,3.91-29.19a7.81,7.81,0,0,0-1.62-.17h-2.06c-12.55,7.69-29.85,22.7-37.31,29.36Z"/><path class="cls-7" d="M265.91,143.57A21,21,0,0,0,246.39,157h38.14a6.25,6.25,0,0,0,.87-.09A21,21,0,0,0,265.91,143.57Z"/><path class="cls-7" d="M384.91,99.76a2.79,2.79,0,0,0-2.8,2.79v5.12a2.8,2.8,0,0,0,2.8,2.8H389a20.84,20.84,0,0,0-3.87,12l-16.71,4.82c-2.14,0-2.14,3.1,1,3.1h17.25a20.95,20.95,0,0,0,35.54,5.71h0a20.81,20.81,0,0,0,1.92-2.72l.2-.33a20.23,20.23,0,0,0,1.37-2.9l.18-.48a20.33,20.33,0,0,0,.85-3.13c0-.14.05-.29.07-.44a20.6,20.6,0,0,0-3.56-15.58h3.41a2.79,2.79,0,0,0,2.79-2.8v-5.12a2.79,2.79,0,0,0-2.79-2.79h-3.19c-4.93-8.36.67-22.41,3.74-28.84a8,8,0,0,0-2.77-.52h-.74c-12.55,7.69-29.85,22.7-37.31,29.36Z"/><path class="cls-7" d="M407.08,143.57A21,21,0,0,0,387.56,157h36.82a7.82,7.82,0,0,0,2.12-.31A21,21,0,0,0,407.08,143.57Z"/><path class="cls-7" d="M489.1,99.76a2.78,2.78,0,0,0-2.79,2.79v5.12a2.79,2.79,0,0,0,2.79,2.8h4.07a20.83,20.83,0,0,0-3.86,12l-16.71,4.82c-2.14,0-2.14,3.1.95,3.1h17.26a20.95,20.95,0,0,0,35.54,5.71h0a21.81,21.81,0,0,0,1.92-2.72,3.62,3.62,0,0,1,.2-.33,22.63,22.63,0,0,0,1.37-2.9c.06-.17.12-.32.17-.48a19.28,19.28,0,0,0,.86-3.13c0-.14,0-.29.07-.44a20.6,20.6,0,0,0-3.56-15.58h3.41a2.79,2.79,0,0,0,2.79-2.8v-5.12a2.79,2.79,0,0,0-2.79-2.79h-3.2c-5-8.53.9-23,3.93-29.22a8.22,8.22,0,0,0-1.41-.14h-2.28C515.29,78.09,498,93.1,490.53,99.76Z"/><path class="cls-7" d="M511.28,143.57A20.94,20.94,0,0,0,491.76,157h38.36c.22,0,.43,0,.65-.06A20.94,20.94,0,0,0,511.28,143.57Z"/><path class="cls-7" d="M595.54,99.76a2.79,2.79,0,0,0-2.8,2.79v5.12a2.8,2.8,0,0,0,2.8,2.8h4.07a20.83,20.83,0,0,0-3.86,12L579,127.25c-2.14,0-2.14,3.1,1,3.1h17.25a21,21,0,0,0,35.55,5.71h0a20.74,20.74,0,0,0,1.91-2.72c.07-.12.14-.22.21-.33a22.63,22.63,0,0,0,1.37-2.9l.17-.48a20.35,20.35,0,0,0,.86-3.13c0-.14,0-.29.06-.44a19.79,19.79,0,0,0,.32-3.46,20.86,20.86,0,0,0-3.87-12.12h3.41a2.79,2.79,0,0,0,2.79-2.8v-5.12a2.79,2.79,0,0,0-2.79-2.79H634c-5-8.46.81-22.75,3.85-29.07a8.05,8.05,0,0,0-2-.29h-1.57c-12.55,7.69-29.84,22.7-37.3,29.36Z"/><path class="cls-7" d="M617.72,143.57A20.94,20.94,0,0,0,598.2,157h37.64a8.34,8.34,0,0,0,1.34-.13A20.92,20.92,0,0,0,617.72,143.57Z"/><path class="cls-7" d="M702,99.76a2.79,2.79,0,0,0-2.8,2.79v5.12a2.8,2.8,0,0,0,2.8,2.8h4.07a20.91,20.91,0,0,0-3.87,12l-16.71,4.82c-2.14,0-2.14,3.1,1,3.1h17.25a21,21,0,0,0,35.55,5.71h0a21.74,21.74,0,0,0,1.91-2.72l.2-.33a20.23,20.23,0,0,0,1.37-2.9c.06-.17.12-.32.18-.48a20.35,20.35,0,0,0,.86-3.13c0-.14,0-.29.06-.44a19.79,19.79,0,0,0,.32-3.46,20.86,20.86,0,0,0-3.88-12.12h3.41a2.8,2.8,0,0,0,2.8-2.8v-5.12a2.8,2.8,0,0,0-2.8-2.79h-3.19c-5-8.54.92-23,3.93-29.24a7.87,7.87,0,0,0-1.2-.12h-2.5c-12.55,7.69-29.84,22.7-37.31,29.36Z"/><path class="cls-7" d="M724.15,143.57A21,21,0,0,0,704.63,157h38.58c.15,0,.29,0,.44,0A20.93,20.93,0,0,0,724.15,143.57Z"/><path class="cls-7" d="M809.54,99.76a2.79,2.79,0,0,0-2.8,2.79v5.12a2.8,2.8,0,0,0,2.8,2.8h4.07a20.84,20.84,0,0,0-3.87,12L793,127.25c-2.14,0-2.14,3.1,1,3.1h17.25a21,21,0,0,0,35.55,5.71h0a20.81,20.81,0,0,0,1.92-2.72l.2-.33a20.23,20.23,0,0,0,1.37-2.9l.18-.48a20.33,20.33,0,0,0,.85-3.13,3.11,3.11,0,0,0,.07-.44,20.42,20.42,0,0,0-3.56-15.58h3.41a2.79,2.79,0,0,0,2.79-2.8v-5.12a2.79,2.79,0,0,0-2.79-2.79H848c-4.92-8.35.66-22.37,3.73-28.82a8.1,8.1,0,0,0-2.84-.54h-.66C835.72,78.09,818.43,93.1,811,99.76Z"/><path class="cls-7" d="M831.71,143.57A21,21,0,0,0,812.19,157h36.74a8.28,8.28,0,0,0,2.19-.32A21,21,0,0,0,831.71,143.57Z"/><path class="cls-7" d="M912.61,99.76a2.78,2.78,0,0,0-2.79,2.79v5.12a2.79,2.79,0,0,0,2.79,2.8h4.07a20.83,20.83,0,0,0-3.86,12l-16.71,4.82c-2.14,0-2.14,3.1.95,3.1h17.26a20.95,20.95,0,0,0,35.54,5.71h0a21.81,21.81,0,0,0,1.92-2.72,3.62,3.62,0,0,1,.2-.33,22.63,22.63,0,0,0,1.37-2.9c.06-.17.12-.32.17-.48a19.28,19.28,0,0,0,.86-3.13c0-.14.05-.29.07-.44a20.6,20.6,0,0,0-3.56-15.58h3.41a2.79,2.79,0,0,0,2.79-2.8v-5.12a2.79,2.79,0,0,0-2.79-2.79h-3.2c-5.06-8.58,1-23.13,4-29.31-.15,0-.29,0-.43,0h-3.31C938.8,78.09,921.5,93.1,914,99.76Z"/><path class="cls-7" d="M934.79,143.57A21,21,0,0,0,915.27,157h39A20.94,20.94,0,0,0,934.79,143.57Z"/><line class="cls-13" x1="164.91" y1="194.87" x2="996.14" y2="194.87"/><line class="cls-13" x1="191.15" y1="204.95" x2="996.14" y2="204.95"/><circle class="cls-14" cx="142.01" cy="33.07" r="15.4"/><circle class="cls-2" cx="179.05" cy="33.07" r="10.17"/><circle class="cls-14" cx="74.85" cy="33.07" r="15.4"/><circle class="cls-2" cx="94.13" cy="33.07" r="10.17"/><rect class="cls-1" x="241.33" y="187.35" width="18.55" height="25.36"/><polygon class="cls-14" points="271.95 233.61 252.49 199.91 271.95 166.21 310.87 166.21 330.33 199.91 310.87 233.61 271.95 233.61"/></g></g></svg>