<svg xmlns="http://www.w3.org/2000/svg" xmlns:xlink="http://www.w3.org/1999/xlink" viewBox="0 0 21.61 21.61" width="21.61" height="21.61"><defs><style>.cls-1{fill:none;}.cls-2{fill:#fdce48;}.cls-3{clip-path:url(#clip-path);}.cls-4{opacity:0.75;}.cls-5{fill:#fff;}.cls-6{opacity:0.5;}.cls-7{opacity:0.1;}</style><clipPath id="clip-path"><circle class="cls-1" cx="10.81" cy="10.81" r="10.81"/></clipPath></defs><title>garland</title><g id="Layer_2" data-name="Layer 2"><g id="ART"><circle class="cls-2" cx="10.81" cy="10.81" r="10.81"/><g class="cls-3"><g class="cls-4"><path class="cls-5" d="M16.46,19.06a.48.48,0,0,1,.48-.47h0a.48.48,0,0,1,.47.48h0a.48.48,0,0,1-.48.47h0A.48.48,0,0,1,16.46,19.06ZM8.61,18A.48.48,0,0,1,9,17.48H9a.48.48,0,0,1,.56.38h0a.49.49,0,0,1-.38.56H9.08A.48.48,0,0,1,8.61,18ZM4.47,17.9a.47.47,0,0,1,.39-.55h0a.47.47,0,0,1,.54.39h0a.47.47,0,0,1-.39.55H4.94A.48.48,0,0,1,4.47,17.9Zm12.79-1.35a.48.48,0,0,1,.19-.65h0a.47.47,0,0,1,.64.19h0a.46.46,0,0,1-.18.64h0a.53.53,0,0,1-.23.06h0A.49.49,0,0,1,17.26,16.55ZM7.47,15.32a.49.49,0,0,1,0-.68h0a.47.47,0,0,1,.67,0h0a.47.47,0,0,1,0,.67h0a.5.5,0,0,1-.35.15h0A.52.52,0,0,1,7.47,15.32ZM15.1,14a.47.47,0,0,1,.3-.6h0a.48.48,0,0,1,.6.31h0a.48.48,0,0,1-.3.6h0l-.15,0h0A.47.47,0,0,1,15.1,14Zm-5.28.25a.47.47,0,0,1-.45-.5h0a.46.46,0,0,1,.5-.44h0a.47.47,0,0,1,.45.5h0a.48.48,0,0,1-.48.44h0Zm-2.64-.89h0a.49.49,0,0,1-.4-.55h0a.48.48,0,0,1,.55-.39h0a.47.47,0,0,1,.39.54h0a.48.48,0,0,1-.47.4H7.18Zm3.92-1.78a.48.48,0,0,1,.07-.67h0a.48.48,0,0,1,.67.07h0a.48.48,0,0,1-.07.67h0a.47.47,0,0,1-.3.1h0A.51.51,0,0,1,11.1,11.61ZM.92,8.38a.47.47,0,0,1,0-.67h0a.47.47,0,0,1,.67,0h0a.47.47,0,0,1,0,.67h0a.44.44,0,0,1-.32.13h0A.49.49,0,0,1,.92,8.38ZM10,8.31a.47.47,0,0,1,.05-.67h0a.48.48,0,0,1,.67.06h0a.47.47,0,0,1,0,.67h0a.51.51,0,0,1-.31.11h0A.48.48,0,0,1,10,8.31ZM14.42,7a.48.48,0,0,1-.24-.55h0a.48.48,0,0,1,.59-.33h0a.48.48,0,0,1,.29.23h0a.48.48,0,0,1,.25.42h0a.49.49,0,0,1-.48.48h0A.46.46,0,0,1,14.42,7ZM10.06,3.2a.46.46,0,0,1,.15-.65h0a.47.47,0,0,1,.65.14h0a.47.47,0,0,1-.15.66h0a.43.43,0,0,1-.25.07h0A.47.47,0,0,1,10.06,3.2ZM8.86,1.6A.47.47,0,0,1,9,.94H9a.49.49,0,0,1,.67.11h0a.48.48,0,0,1-.11.66h0a.49.49,0,0,1-.28.09h0A.46.46,0,0,1,8.86,1.6Z"/></g><g class="cls-6"><path class="cls-5" d="M.54,11.23a.54.54,0,0,0-.16.1.86.86,0,0,0-.1.16.52.52,0,0,0,0,.18.57.57,0,0,0,0,.18A.42.42,0,0,0,.39,12a.42.42,0,0,0,.15.11.57.57,0,0,0,.18,0A.48.48,0,0,0,1.06,12a.4.4,0,0,0,.1-.15.58.58,0,0,0,0-.18.52.52,0,0,0-.14-.34A.5.5,0,0,0,.54,11.23Z"/><path class="cls-5" d="M8.55,4a.47.47,0,0,0,0,.67.47.47,0,0,0,.31.12.49.49,0,0,0,.36-.17A.48.48,0,1,0,8.55,4Z"/><path class="cls-5" d="M16.71,5.65a.48.48,0,0,0,.12.94l.12,0A.48.48,0,0,0,17.29,6,.49.49,0,0,0,16.71,5.65Z"/><path class="cls-5" d="M16.51,10a.47.47,0,0,0,0,.67.44.44,0,0,0,.35.16.47.47,0,0,0,.35-.8A.48.48,0,0,0,16.51,10Z"/><path class="cls-5" d="M14.67,15.43a.47.47,0,0,0,.23.89.46.46,0,0,0,.22-.06.47.47,0,1,0-.45-.83Z"/><path class="cls-5" d="M13.25,1.44a.49.49,0,0,0-.07.67.47.47,0,0,0,.37.18.48.48,0,1,0-.3-.85Z"/><path class="cls-5" d="M19.93,10.52a.48.48,0,0,0,.09.67.52.52,0,0,0,.29.09.47.47,0,0,0,.28-.85A.47.47,0,0,0,19.93,10.52Z"/><path class="cls-5" d="M4.64,16a.47.47,0,0,0,.08.94H4.8A.48.48,0,1,0,4.64,16Z"/><path class="cls-5" d="M5.35,8.75a.47.47,0,0,0,0,.67.48.48,0,0,0,.35.16A.45.45,0,0,0,6,9.45a.48.48,0,0,0,0-.67A.47.47,0,0,0,5.35,8.75Z"/><path class="cls-5" d="M10.77,20.64a.47.47,0,0,0,.19.91.65.65,0,0,0,.19,0,.48.48,0,0,0,.24-.63A.46.46,0,0,0,10.77,20.64Z"/><path class="cls-5" d="M10.3,10.53a.48.48,0,0,0,.09-.67.47.47,0,1,0-.38.77A.51.51,0,0,0,10.3,10.53Z"/><path class="cls-5" d="M10.84,20.31a.47.47,0,0,0-.35-.57.47.47,0,1,0-.22.92h.11A.46.46,0,0,0,10.84,20.31Z"/><path class="cls-5" d="M8.12,13.11a.46.46,0,0,0,0,.67.47.47,0,0,0,.33.14.46.46,0,0,0,.33-.13.47.47,0,1,0-.66-.68Z"/></g></g><path class="cls-7" d="M19.29,17.5A10.8,10.8,0,0,1,4.11,2.33,10.8,10.8,0,1,0,19.29,17.5Z"/></g></g></svg>