<svg width="692" height="17530" fill="none" xmlns="http://www.w3.org/2000/svg"><g clip-path="url(#clip0)"><path fill="#F4FDFF" d="M692 0H0v17530h692z"/><path d="M-5 969.036V-40.5h707V969.036c-6.992-1.924-23.306-.12-71 7.964-23.475 3.979-64.118-11.248-94 0-37.841 14.244-57.825 34-101 34-39 0-57.944 15.9-79 11.95-25.706-4.82-55.045-29.305-81.5-36.45-29.934-8.084-71.517-2.746-101-9.5-33.761-7.734-41-28-69.5-28-81.4513 0-90.0485 16.669-110 20.036z" fill="url(#paint0_linear)"/><circle r="12" transform="matrix(-1 0 0 1 233 87)" fill="#DBF3FB"/><circle r="12" transform="matrix(-1 0 0 1 471 459)" fill="#DBF3FB"/><circle opacity=".5" r="12" transform="matrix(-1 0 0 1 68 1611)" fill="#DBF3FB"/><circle r="12" transform="matrix(-1 0 0 1 589 1348)" fill="#DBF3FB"/><circle r="12" transform="matrix(-1 0 0 1 108 1697)" fill="#DBF3FB"/><circle opacity=".5" r="12" transform="matrix(-1 0 0 1 447 778)" fill="#fff"/><circle r="12" transform="matrix(-1 0 0 1 68 1051)" fill="#DBF3FB"/><circle r="12" transform="matrix(-1 0 0 1 229 2929)" fill="#DBF3FB"/><circle r="12" transform="matrix(-1 0 0 1 467 3301)" fill="#DBF3FB"/><circle r="12" transform="matrix(-1 0 0 1 151 3453)" fill="#DBF3FB"/><circle r="12" transform="matrix(-1 0 0 1 400 3585)" fill="#DBF3FB"/><circle r="12" transform="matrix(-1 0 0 1 577 2311)" fill="#DBF3FB"/><circle r="12" transform="matrix(-1 0 0 1 56 2396)" fill="#DBF3FB"/><circle r="12" transform="matrix(-1 0 0 1 212 2443)" fill="#DBF3FB"/><circle cx="248" cy="4423" r="12" transform="rotate(-180 248 4423)" fill="#DBF3FB"/><circle cx="486" cy="4051" r="12" transform="rotate(-180 486 4051)" fill="#DBF3FB"/><circle cx="170" cy="3899" r="12" transform="rotate(-180 170 3899)" fill="#DBF3FB"/><circle cx="419" cy="3767" r="12" transform="rotate(-180 419 3767)" fill="#DBF3FB"/><circle cx="596" cy="5041" r="12" transform="rotate(-180 596 5041)" fill="#DBF3FB"/><circle cx="75" cy="4956" r="12" transform="rotate(-180 75 4956)" fill="#DBF3FB"/><circle cx="231" cy="4909" r="12" transform="rotate(-180 231 4909)" fill="#DBF3FB"/><circle cx="439" cy="6273" r="12" fill="#DBF3FB"/><circle cx="201" cy="6645" r="12" fill="#DBF3FB"/><circle cx="517" cy="6797" r="12" fill="#DBF3FB"/><circle cx="268" cy="6929" r="12" fill="#DBF3FB"/><circle cx="91" cy="5655" r="12" fill="#DBF3FB"/><circle cx="612" cy="5740" r="12" fill="#DBF3FB"/><circle cx="456" cy="5787" r="12" fill="#DBF3FB"/><circle r="12" transform="matrix(1 0 0 -1 439 8663)" fill="#DBF3FB"/><circle r="12" transform="matrix(1 0 0 -1 201 8291)" fill="#DBF3FB"/><circle r="12" transform="matrix(1 0 0 -1 517 8139)" fill="#DBF3FB"/><circle r="12" transform="matrix(1 0 0 -1 268 8007)" fill="#DBF3FB"/><circle r="12" transform="matrix(1 0 0 -1 91 9281)" fill="#DBF3FB"/><circle r="12" transform="matrix(1 0 0 -1 612 9196)" fill="#DBF3FB"/><circle r="12" transform="matrix(1 0 0 -1 456 9149)" fill="#DBF3FB"/><circle cx="264" cy="10691" r="12" transform="rotate(180 264 10691)" fill="#DBF3FB"/><circle cx="502" cy="10319" r="12" transform="rotate(180 502 10319)" fill="#DBF3FB"/><circle cx="186" cy="10167" r="12" transform="rotate(180 186 10167)" fill="#DBF3FB"/><circle cx="435" cy="10035" r="12" transform="rotate(180 435 10035)" fill="#DBF3FB"/><circle cx="612" cy="11309" r="12" transform="rotate(180 612 11309)" fill="#DBF3FB"/><circle cx="91" cy="11224" r="12" transform="rotate(180 91 11224)" fill="#DBF3FB"/><circle cx="247" cy="11177" r="12" transform="rotate(180 247 11177)" fill="#DBF3FB"/><circle cx="264" cy="12051" r="12" transform="rotate(180 264 12051)" fill="#DBF3FB"/><circle cx="502" cy="11679" r="12" transform="rotate(180 502 11679)" fill="#DBF3FB"/><circle cx="186" cy="11527" r="12" transform="rotate(180 186 11527)" fill="#DBF3FB"/><circle cx="435" cy="11395" r="12" transform="rotate(180 435 11395)" fill="#DBF3FB"/><circle cx="612" cy="12669" r="12" transform="rotate(180 612 12669)" fill="#DBF3FB"/><circle cx="91" cy="12584" r="12" transform="rotate(180 91 12584)" fill="#DBF3FB"/><circle cx="247" cy="12537" r="12" transform="rotate(180 247 12537)" fill="#DBF3FB"/><circle cx="255" cy="13827" r="12" transform="rotate(180 255 13827)" fill="#DBF3FB"/><circle cx="493" cy="13455" r="12" transform="rotate(180 493 13455)" fill="#DBF3FB"/><circle cx="177" cy="13303" r="12" transform="rotate(180 177 13303)" fill="#DBF3FB"/><circle cx="426" cy="13171" r="12" transform="rotate(180 426 13171)" fill="#DBF3FB"/><circle cx="603" cy="14445" r="12" transform="rotate(180 603 14445)" fill="#DBF3FB"/><circle cx="82" cy="14360" r="12" transform="rotate(180 82 14360)" fill="#DBF3FB"/><circle cx="238" cy="14313" r="12" transform="rotate(180 238 14313)" fill="#DBF3FB"/><circle cx="255" cy="15187" r="12" transform="rotate(180 255 15187)" fill="#DBF3FB"/><circle cx="493" cy="14815" r="12" transform="rotate(180 493 14815)" fill="#DBF3FB"/><circle cx="177" cy="14663" r="12" transform="rotate(180 177 14663)" fill="#DBF3FB"/><circle cx="426" cy="14531" r="12" transform="rotate(180 426 14531)" fill="#DBF3FB"/><circle cx="603" cy="15805" r="12" transform="rotate(180 603 15805)" fill="#DBF3FB"/><circle cx="82" cy="15720" r="12" transform="rotate(180 82 15720)" fill="#DBF3FB"/><circle cx="238" cy="15673" r="12" transform="rotate(180 238 15673)" fill="#DBF3FB"/><circle r="12" transform="matrix(-1 0 0 1 692 945)" fill="#DBF3FB"/><g clip-path="url(#clip1)"><path d="M584.404 3116.86c5.629 8.16 17.323 25.13 24.502 35.56" stroke="#219750" stroke-width="10.9763" stroke-miterlimit="10" stroke-linecap="round"/><path d="M632.062 3143.13c3.331 4.83 2.112 11.45-2.716 14.77-3.742 2.58-8.869 1.63-11.448-2.11l-4.47-6.49-9.04 6.23 13.607 19.75c.857 1.25 2.57 1.57 3.821.71l22.097-15.23c4.739-3.27 6.244-9.74 3.148-14.6-3.259-5.09-10.067-6.43-14.999-3.03z" fill="#332F2E"/><path d="M619.442 3158.05l-3.394 2.35c-1.246.85-2.955.54-3.821-.71-.857-1.24-.549-2.95.702-3.82l3.395-2.34c1.246-.86 2.955-.55 3.821.7.865 1.25.548 2.96-.703 3.82z" fill="#F8C329"/><path d="M580.325 3114.46c-9.874-.94-30.392-2.9-42.992-4.09" stroke="#219750" stroke-width="10.9763" stroke-miterlimit="10" stroke-linecap="round"/><path d="M534.185 3085.62c-5.843-.55-11.028 3.73-11.58 9.56-.431 4.53 2.892 8.55 7.417 8.98l7.843.74-1.04 10.93-23.881-2.27c-1.505-.14-2.62-1.48-2.473-2.99l2.537-26.71c.549-5.73 5.468-10.19 11.218-9.85 6.041.36 10.519 5.64 9.959 11.61z" fill="#332F2E"/><path d="M527.281 3103.9l-.394 4.11c-.142 1.51.959 2.85 2.473 3 1.506.14 2.849-.96 2.996-2.48l.394-4.1c.142-1.51-.959-2.85-2.473-3-1.505-.14-2.848.96-2.996 2.47z" fill="#F8C329"/><path d="M605.449 3076.38c-19.175-11.27-29.266-38.15-18.998-55.63" stroke="#30A658" stroke-width="10.9763" stroke-miterlimit="10" stroke-linecap="round"/><path d="M586.441 3020.74c5.571 3.28 12.741 1.41 16.015-4.16 3.273-5.57 1.41-12.74-4.161-16.01-5.572-3.28-12.742-1.41-16.015 4.16-3.273 5.57-1.41 12.74 4.161 16.01z" fill="#FADCBC"/><path d="M597.77 3021.04L580.673 3011c-2.613-1.54-5.98-.66-7.515 1.95-1.535 2.61-.66 5.98 1.953 7.52l17.097 10.04c2.613 1.54 5.98.66 7.515-1.95 1.54-2.62.66-5.98-1.953-7.52z" fill="#fff"/><path d="M605.449 3076.38c19.176 11.26 46.555 8.72 57.842-10.49" stroke="#30A658" stroke-width="10.9763" stroke-miterlimit="10" stroke-linecap="round"/><path d="M663.291 3065.89c5.571 3.28 12.741 1.41 16.014-4.16 3.274-5.57 1.411-12.74-4.161-16.01-5.571-3.27-12.741-1.41-16.014 4.16-3.274 5.57-1.411 12.74 4.161 16.01z" fill="#FADCBC"/><path d="M674.62 3066.19l-17.097-10.04c-2.613-1.54-5.98-.66-7.515 1.95-1.535 2.61-.66 5.98 1.952 7.52l17.098 10.04c2.612 1.54 5.979.66 7.514-1.95 1.54-2.62.66-5.98-1.952-7.52z" fill="#fff"/><path d="M576.832 3106.13l16.554 9.73 16.342-46.77-32.896 37.04z" fill="#00B4C9"/><path d="M612.51 3064.36c-11.148-6.55-25.493-2.82-32.043 8.32l-9.933 16.91c-6.55 11.15-2.823 25.49 8.325 32.04 11.148 6.55 25.493 2.83 32.043-8.32l9.934-16.91c6.549-11.15 2.822-25.49-8.326-32.04z" fill="#30A658"/><path d="M653.828 2994.03c3.881 2.28 8.876.98 11.156-2.9 2.28-3.88.982-8.87-2.898-11.15-3.881-2.28-8.876-.99-11.156 2.89-2.28 3.88-.982 8.88 2.898 11.16z" fill="#fff"/><path d="M650.342 3046.18l3.492-52.16-43.861 28.44 40.369 23.72z" fill="#30A658"/><path d="M643.691 3055.39c-2.517-1.48-3.902-4.47-3.211-7.47 1.645-7.08-1.469-14.31-7.746-18-6.277-3.69-14.112-2.89-19.499 2-2.808 2.54-7.146 2.33-9.686-.48-2.549-2.8-2.331-7.14.472-9.68 9.856-8.94 24.187-10.41 35.663-3.67 11.476 6.74 17.165 19.98 14.155 32.94-.86 3.69-4.538 5.98-8.232 5.12-.679-.16-1.329-.42-1.916-.76z" fill="#fff"/><path d="M659.365 3045.79l-16.376 4.26c-1.533.4-2.913 1.38-3.779 2.86-1.733 2.95-.748 6.74 2.201 8.47 1.474.87 3.16 1.06 4.699.65 10.224-2.66 13.255-16.24 13.255-16.24zM610.174 3030.77l-4.257-16.39s-10.393 9.26-7.733 19.5c.398 1.54 1.385 2.92 2.859 3.78 2.949 1.73 6.741.75 8.473-2.2.871-1.48 1.057-3.16.658-4.69z" fill="#FADCBC"/><path d="M612.504 3064.37c11.147 6.55 25.493 2.82 32.042-8.33 6.55-11.15 2.823-25.49-8.325-32.04-11.147-6.55-25.493-2.82-32.043 8.32-6.549 11.15-2.822 25.5 8.326 32.05z" fill="#FADCBC"/><path d="M632.052 3031.1c4.242 2.49 8.944 3.49 13.511 3.15-1.938-4.14-5.1-7.76-9.342-10.25-4.242-2.49-8.944-3.49-13.506-3.17 1.933 4.15 5.095 7.77 9.337 10.27z" fill="#7C5539"/><path d="M623.688 3035.99c-1.322 2.25-4.224 3.01-6.474 1.69-2.259-1.33-3.004-4.23-1.682-6.48s4.215-3.01 6.474-1.68c2.245 1.33 2.999 4.23 1.682 6.47zM639.993 3045.57c-1.322 2.25-4.224 3.01-6.475 1.68-2.258-1.32-3.004-4.22-1.682-6.47s4.216-3.01 6.475-1.68c2.245 1.33 2.999 4.23 1.682 6.47z" fill="#332F2E"/><path d="M635.2 3053.73c-3.966 6.75-12.658 9.01-19.409 5.04-6.751-3.96-9.009-12.66-5.043-19.41l24.452 14.37z" fill="#fff"/><path d="M634.899 3057.46l-27.262-16.02c2.82-2.92 7.285-3.53 10.794-1.47l12.511 7.35c3.5 2.05 5.13 6.25 3.957 10.14z" fill="#7C5539"/><path d="M570.533 3089.59c-6.55 11.15-2.823 25.49 8.325 32.04 11.149 6.55 25.493 2.83 32.043-8.32l-40.368-23.72z" fill="#219750"/><path d="M599.239 3111.25c1.966 1.15 4.498.49 5.653-1.47l20.425-34.77c.613-1.04.412-2.37-.492-3.18l-3.108-2.83c-.823-.75-2.115-.54-2.677.41l-21.261 36.19c-1.155 1.97-.497 4.5 1.46 5.65z" fill="#332F2E"/><path d="M600.328 3109.39c.943.56 2.156.24 2.71-.7.554-.94.239-2.16-.704-2.71-.943-.55-2.156-.24-2.71.7-.554.95-.239 2.16.704 2.71z" fill="#F8C329"/><path d="M578.002 3098.77c-1.966-1.15-2.624-3.69-1.469-5.65l20.425-34.77c.613-1.04 1.878-1.51 3.025-1.12l3.98 1.34c1.056.36 1.506 1.58.944 2.54l-21.261 36.19c-1.146 1.97-3.678 2.63-5.644 1.47z" fill="#332F2E"/><path d="M579.092 3096.92c.943.55 2.156.24 2.71-.71.554-.94.239-2.15-.704-2.71-.943-.55-2.156-.24-2.71.71-.554.94-.239 2.15.704 2.71z" fill="#F8C329"/></g><g opacity=".8"><mask id="a" mask-type="alpha" maskUnits="userSpaceOnUse" x="483" y="2948" width="243" height="244"><path d="M483 3106l17-91 72.5-67 61.5 5.5 56 18.5 36 145.5-12 30.5-40.5 36-149.5 7.5-41-85.5z" fill="#000"/></mask><g style="mix-blend-mode:lighten" mask="url(#a)"><path d="M658.761 2964.66c57.653 33.28 77.494 107.1 44.261 164.66-18.347 31.78-49.061 52.15-82.759 58.28-27.217 5.07-56.262.82-82.086-14.08-57.653-33.29-77.494-107.1-44.261-164.66 11.308-19.59 27.214-34.66 45.738-45.01 35.872-20.07 80.872-21.27 119.107.81z" fill="#80DEEA"/><path d="M674.819 3029.85c-2.012 3.48-58.273 97.57-58.273 97.57l73.377 98.81 68.809-210.45-83.913 14.07z" fill="#29B6F6"/><path d="M544.615 3059.96l-60.654 38.91 41.263 102.79 48.747-82.54" fill="#80DEEA"/><path d="M640.78 3118.99l-2.274 69.11-111.826 14.4 48.842-83.38 65.258-.13z" fill="#81D4FA"/><path d="M489.803 3184.11c.167-.29.877-.85 1.755-1.7 12.423-10.43 82.43-62.53 82.43-62.53l-5.969 109.39" fill="url(#paint1_linear)"/><path d="M671.544 3064.73l60.737-39.06-41.262-102.78-51.184 83.28" fill="#81D4FA"/><path d="M542.609 3062.09l32.714 56.82 65.565-.08 31.838-54.7-31.953-58.58-65.481-.07-32.683 56.61z" fill="#80DEEA"/><path d="M542.609 3062.09l31.362 57.81 66.809-.91 31.944-54.86-31.754-58.87-65.678.22-32.683 56.61z" fill="url(#paint2_linear)"/><path d="M574.136 2947.72l1.157 57.76-32.684 56.61-81.033 61.79 38.5-108.99 74.06-67.17z" fill="url(#paint3_linear)"/><path d="M654.392 2899.03c-.167.29-13.422 106.23-13.422 106.23l91.639-61.07-78.217-45.16z" fill="url(#paint4_linear)"/><path d="M748.178 3132.35c-.29-.17-50.035-30.61-50.035-30.61l16.122 45.74-73.486-28.49-8.623 69.36 70.864 22.22 45.158-78.22z" fill="url(#paint5_linear)"/></g></g><path d="M692 16520.5v1009.6H-15l.0001-1009.6c6.99157 2 23.30584.2 71-7.9 23.4755-4 64.1179 11.2 93.9999 0 37.841-14.3 57.825-34 101-34 39 0 57.944-15.9 79-12 25.706 4.9 55.045 29.3 81.5 36.5 29.934 8.1 71.517 2.7 101 9.5 33.761 7.7 41 28 69.5 28 81.451 0 90.049-16.7 110-20.1z" fill="url(#paint6_linear)"/><g opacity=".4"><path d="M169.525 1756.51l14.861 61.83s23.758.62 20.217 22.08l-39.528-1.02-14.352-59.72M90.1734 1725.72l-48.5375 41.08s9.4125 19.96-5.2261 30.17l-22.2639-37.94 46.8765-39.68" fill="#94D8F7"/><path d="M193.785 1772.87c-16.815 24.24-50.128 30.26-74.365 13.45l-62.38-43.28c-24.2368-16.82-30.2591-50.13-13.4435-74.37 16.8155-24.24 50.1284-30.26 74.3655-13.44l105.49 73.19c29.004 20.12 29.367 54.8 23.302 63.54-6.064 8.75-11.355 8.31-25.261-1.34-13.907-9.64-27.708-17.75-27.708-17.75z" fill="#94D8F7"/><path d="M193.42 1770.85c-16.815 24.24-40.48 16.36-64.717-.46l-62.38-43.28c-24.2368-16.81-39.9073-36.22-23.0918-60.46 16.8155-24.23 50.1285-30.26 74.3658-13.44l105.291 73.05c29.203 20.26 29.704 54.75 23.501 63.69-6.202 8.94-11.355 8.3-25.262-1.34-13.906-9.65-27.707-17.76-27.707-17.76z" fill="#fff"/><path d="M242.342 1783.9l-11.445 5.89-.276-14.02 11.721 8.13z" fill="#404040"/><path d="M151.029 1754.03L132.983 1815s12.759 14.27 1.541 32.59l-28.791-24.01 17.429-58.89M61.965 1712.17l-57.51742 27.12s4.33888 24-16.33428 30.77l-8.2066-45.4 73.701-34.75M208.625 1713.3c-3.584 5.17-2.306 12.24 2.859 15.82s12.232 2.31 15.815-2.86c3.584-5.17 2.306-12.23-2.859-15.82-5.165-3.58-12.231-2.3-15.815 2.86zM229.947 1738.49c-3.583 5.17-2.306 12.23 2.859 15.82 5.165 3.58 12.232 2.3 15.816-2.86 3.583-5.17 2.306-12.23-2.86-15.82-5.165-3.58-12.231-2.3-15.815 2.86z" fill="#fff"/><path d="M216.105 1748.33c-1.516 2.19-.83 5.02 1.156 6.4 2.186 1.51 5.015.83 6.394-1.16 1.378-1.98.83-5.01-1.156-6.39-1.987-1.38-4.877-1.03-6.394 1.15z" fill="#404040"/></g><g opacity=".8"><mask id="b" mask-type="alpha" maskUnits="userSpaceOnUse" x="-101" y="1517" width="487" height="487"><path d="M-8.12998 1662.31L106.006 1597.3l139.023 17.09 50.422 71.65 31.302 77.6-124.573 172.38-44.032 14.96-76.1151-10.86-145.1728-155.03 55.00992-122.78z" fill="#000"/></mask><g style="mix-blend-mode:lighten" mask="url(#b)"><path d="M306.067 1723.08c16.804 92.95-44.946 182.11-137.748 198.88-51.235 9.27-101.4568-5.32-138.9841-36.2-30.44348-24.82-52.4731-60.17-59.9997-101.8-16.8035-92.96 44.9459-182.11 137.7488-198.89 31.579-5.7 62.477-2.29 90.676 8.28 54.61 20.45 97.163 68.09 108.307 129.73z" fill="#80DEEA"/><path d="M250.186 1800.24c-5.616 1.01-159.09 26.33-159.09 26.33l-39.737 170.05 290.984-118.4-92.157-77.98z" fill="#29B6F6"/><path d="M98.2149 1686.83L.471072 1656.81-73.0179 1795.73l134.0745-22.87" fill="#80DEEA"/><path d="M122.444 1845.09l-76.9294 60.89-118.1084-107.91 135.0695-23.53 59.9683 70.55z" fill="#81D4FA"/><path d="M-86.4863 1741.28c.468-.08 1.7229.17 3.4458.35 22.6943 3.88 143.2856 31.94 143.2856 31.94l-123.9345 93.82" fill="url(#paint7_linear)"/><path d="M209.408 1828.67l97.978 29.97 73.489-138.91-137.113 20.91" fill="#81D4FA"/><path d="M94.0675 1686.61l-31.546 87.52 60.1905 70.93 88.431-15.67 34.149-88.3-59.956-70.98-91.2685 16.5z" fill="#80DEEA"/><path d="M94.0676 1686.61l-33.8505 86.96 62.2279 71.52 88.697-15.7 34.639-88.35-60.445-70.93-91.2684 16.5z" fill="url(#paint8_linear)"/><path d="M246.828 1615.91l-61.494 54.2-91.268 16.5-141.2015-31.11 153.3275-58.22 140.636 18.63z" fill="url(#paint9_linear)"/><path d="M373.134 1658.19c-.468.09-127.352 82.85-127.352 82.85l150.149 43.26-22.797-126.11z" fill="url(#paint10_linear)"/><path d="M206.427 1973.65c-.085-.47-12.72-82.25-12.72-82.25l-34.758 59.39-36.506-105.7-83.0238 54.24 40.9022 97.12 126.1056-22.8z" fill="url(#paint11_linear)"/></g></g><g opacity=".5"><path d="M396.317 5310.51c1.12.64 3.584.84 4.289-.38l7.938-13.75c.646-1.12 1.795-3.58 3.017-2.87l10.998 6.35c3.462 2 7.137 2.22 9.136-1.24l3.821-6.62c.647-1.12 2.21-1.71 3.331-1.07l7.433 4.29c1.121.65 2.786.12 3.432-1 .647-1.12.377-2.77-.845-3.48l-7.434-4.29c-3.462-2-8.559-.46-10.558 3l-3.763 6.52c-.646 1.12-1.669 1.48-2.789.83l-10.998-6.35c-3.463-2-8.892-1.06-10.891 2.41l-7.996 13.85c-.647 1.12.759 3.15 1.879 3.8z" fill="#00C1F2"/><path d="M417.957 5311.59l6.313 3.65c3.463 2 5.892.14 7.891-3.32l3.057-5.3c.647-1.12.828-2.37-.292-3.02-1.121-.64-2.057.04-2.763 1.26l-3.057 5.3c-.647 1.12-1.952 2.67-3.072 2.02l-6.313-3.64c-1.121-.65-1.954-3.44-1.307-4.56l2.469-4.27c.647-1.12.827-2.38-.293-3.02-1.12-.65-2.057.03-2.762 1.25l-2.469 4.28c-1.941 3.36-.865 7.37 2.598 9.37zM420.291 5288.5l10.489 6.06c1.12.64 2.785.11 3.432-1.01.647-1.12.377-2.77-.845-3.47l-10.489-6.06c-1.12-.65-2.107-1.76-1.401-2.98l2.469-4.28c.647-1.12.827-2.37-.293-3.02-1.12-.64-2.056.04-2.762 1.26l-2.469 4.28c-1.94 3.36-1.593 7.22 1.869 9.22zM339.4 5245.87l10.489 6.06c3.463 2 8.779.32 10.778-3.15l2.469-4.27c.647-1.12-.7-3.26-1.82-3.91-1.12-.64-3.584-.84-4.29.38l-2.469 4.28c-.647 1.12-.8 2.79-2.022 2.09l-10.489-6.06c-1.12-.65-2.785-.11-3.432 1.01-.545 1.18-.334 2.93.786 3.57z" fill="#00C1F2"/><path d="M340.745 5281.41c1.12.65 2.769.38 3.475-.85l7.937-13.74c1.999-3.47 2.24-8.35-1.223-10.35l-10.998-6.35c-1.12-.65-1.935-1.12-1.288-2.24l3.822-6.62c1.999-3.46 1.339-9.13-2.124-11.13l-7.434-4.3c-1.12-.64-3.255.7-3.902 1.82-.647 1.13-.847 3.59.375 4.29l7.434 4.3c1.12.64 3.242 2.14 2.596 3.26l-3.822 6.62c-1.999 3.46-2.647 8.11.816 10.11l10.998 6.35c1.12.65.873.37.168 1.59l-7.996 13.85c-.545 1.18.046 2.74 1.166 3.39z" fill="#00C1F2"/><path d="M323.215 5260.97l6.314 3.65c3.462 1.99 6.217-.9 8.216-4.36l2.47-4.28c.646-1.12.827-2.37-.293-3.02-1.121-.64-2.057.04-2.763 1.26l-2.469 4.28c-.647 1.12-1.395 2.18-2.515 1.53l-6.314-3.64c-1.12-.65-1.041-1.96-.336-3.18l3.057-5.3c.647-1.12.115-2.78-1.005-3.43-1.121-.65-2.77-.38-3.475.84l-3.058 5.3c-2.1 3.4-1.291 8.35 2.171 10.35z" fill="#00C1F2"/><path d="M319.774 5421.92l-22.342 38.69s13.023 6.84 7.732 16.01l-24.95-14.41 28.221-48.88" fill="#fff"/><path d="M296.863 5408.69l-22.342 38.7s12.616 6.6 7.324 15.77l-24.542-14.17 28.221-48.88M411.09 5347.01l14.65 14.84 19.285-33.41 5 7.1 8.34.61 4.491 6.8 8.136.49-19.813 34.31-.882 1.53-9.878 17.11c-1.999 3.46-6.457 5.78-9.92 3.78l-15.886-9.17-2.851-1.65-20.469-11.82-29.532-17.05s14.317-31.38 44.703-16.28c1.731 1 3.232 1.46 4.626 2.81zM252.162 5352.06l20.872-49.32c.134-.47.02-1.21.256-1.62 18.692-31.44 47.349-11.22 47.349-11.22l-17.05 29.53-13.464 23.32-13.464 23.32-15.992 27.7-24.44-14.11 15.933-27.6z" fill="#fff"/><path d="M251.926 5395.51l-7.729-.26-4.593-6.86-8.136-.49 4.703-8.14 24.44 14.11-4.703 8.15-3.982-6.51zM462.958 5343.01l-4.288-6.69-8.645-.78-5-7.1-3.881 6.73 25.968 14.99 3.88-6.72-8.034-.43z" fill="#00C1F2"/><path d="M286.583 5404.38l5.733 6.3c4.253 4.63 9.752 7.8 15.886 9.17l8.32 1.82c10.709 2.38 21.883-1.22 29.168-9.37l58.414-65.66c9.088-10.1 11.674-24.22 2.687-36.87l.059-.11c-1.879-3.8-4.867-7.56-9.246-10.09l-45.825-26.45c-4.277-2.47-10.861-4.24-15.092-3.97-12.34.21-25.576 8.32-29.674 21.3l-26.947 83.83c-3.474 10.49-.799 22.08 6.517 30.1z" fill="#fff"/><path d="M350.77 5283.8c.25 2.86 1.534 6.05 3.978 7.46l14.359 8.29 14.358 8.29c2.444 1.41 6.052.1 8.697-.95 3.762-2.99 5.131-9.13 3.734-13.06-1.398-3.93-14.54-16.67-5.473-25.56l-32.057 3.08c-4.627.72-8.22 5.3-7.658 9.97l.062 2.48z" fill="#fff"/><path d="M377.74 5312.82c-1.352 2.34-.535 5.39 1.808 6.74 2.342 1.35 5.394.54 6.746-1.81 1.352-2.34.535-5.39-1.808-6.74-2.283-1.46-5.335-.64-6.746 1.81zM359.004 5302c-1.353 2.34-.535 5.39 1.807 6.74 2.343 1.36 5.394.54 6.747-1.8 1.352-2.35.534-5.4-1.808-6.75-2.283-1.45-5.335-.64-6.746 1.81z" fill="#00C1F2"/><path d="M376.289 5334.38c-3.528 6.11-11.903 6.98-19.133 2.8-7.231-4.17-10.668-11.86-7.14-17.97l26.273 15.17z" fill="#3374B9"/><path d="M365.939 5336.55c.509.3 1.109-.04 1.461-.65l2.881-4.99-4.582-2.64-1.529 2.64c-1.058 1.84-.166 4.52 1.769 5.64zM353.413 5329.32c1.629.94 3.353.31 4.293-1.32l1.882-3.26-7.638-4.41-.764 1.32c-1.529 2.65-.421 6.14 2.227 7.67z" fill="#fff"/><path d="M374.759 5320.33c3.666 2.12 6.289 9.33 6.289 9.33 1.272 2.5 3.92 4.03 6.78 3.78l3.181-.34-4.327 5.38c-1.305 1.56-3.264 2.6-5.364 2.47l-.846.06c-1.998-.07-3.948-.92-5.225-2.48l-2.945-3.6c-.986-1.11-2.15-1.92-3.548-2.32l-2.025-.49c-4.356-1.16-6.536-6.08-4.243-10.05 1.336-2.08 6.469-5.09 12.273-1.74z" fill="#00C1F2"/><path d="M362.134 5313.04c-3.666-2.12-11.227-.78-11.227-.78-2.801.15-5.449-1.38-6.663-3.98l-1.299-2.92-2.494 6.43c-.694 1.91-.616 4.13.543 5.88l.376.76c1.057 1.7 2.772 2.96 4.754 3.29l4.591.75c1.458.3 2.738.9 3.784 1.91l1.437 1.51c3.18 3.19 8.535 2.62 10.828-1.35 1.235-2.14 1.276-8.09-4.63-11.5z" fill="#00C1F2"/></g><g opacity=".8"><mask id="c" mask-type="alpha" maskUnits="userSpaceOnUse" x="142" y="5132" width="423" height="423"><path d="M173.399 5348.55l56.717-118.48 123.97-65.2 82.268 30.12 69.957 45.92-4.094 212.64-27.647 37.39-68.727 34.47-207.651-44.63-24.793-132.23z" fill="#000"/></mask><g style="mix-blend-mode:lighten" mask="url(#c)"><path d="M466.193 5219.38c66.792 66.79 66.879 175.24.194 241.92-36.816 36.82-86.393 53.46-134.828 49.49-39.165-3.05-77.414-19.53-107.331-49.45-66.792-66.79-66.878-175.24-.193-241.93 22.691-22.69 50.023-37.5 79.216-44.89 56.53-14.32 118.646.56 162.942 44.86z" fill="#80DEEA"/><path d="M464.262 5314.62c-4.036 4.04-115.697 112.33-115.697 112.33l64.282 162.36 171.587-263.15-120.172-11.54z" fill="#29B6F6"/><path d="M274.752 5308.07l-97.418 31.06 18.806 156.02 97.12-95.21" fill="#80DEEA"/><path d="M384.875 5424.29l-28.496 93.88-158.551-21.33 97.559-96.33 89.488 23.78z" fill="#81D4FA"/><path d="M154.039 5458.1c.336-.34 1.514-.84 3.028-1.68 20.861-9.75 135.938-55.43 135.938-55.43l-48.351 147.72" fill="url(#paint12_linear)"/><path d="M446.962 5361.22l97.587-31.22-18.806-156.02-100.732 95.34" fill="#81D4FA"/><path d="M271.221 5310.26l23.97 89.89 89.889 23.97 63.724-63.29-22.28-92.02-89.72-24.13-65.583 65.58z" fill="#80DEEA"/><path d="M271.221 5310.26l21.755 90.74 91.898 23.29 63.927-63.46-21.904-92.33-90.094-23.82-65.582 65.58z" fill="url(#paint13_linear)"/><path d="M356.43 5165.09l-19.627 79.59-65.582 65.58-133.751 54.93 92.791-135.24 126.169-64.86z" fill="url(#paint14_linear)"/><path d="M484.306 5127.83c-.336.34-57.407 140.67-57.407 140.67l148.023-50.06-90.616-90.61z" fill="url(#paint15_linear)"/><path d="M527.161 5482.04c-.336-.33-57.335-60.32-57.335-60.32l5.298 68.61-90.251-66.04-37.29 91.9 88.963 56.47 90.615-90.62z" fill="url(#paint16_linear)"/></g></g><g opacity=".2"><path d="M700.582 7451.26s35.396-4.59 45.44-17.9c7.636-10.16-1.012-40.4-20.2-38.24-12.127 1.36-34.293 19.91-34.293 19.91l9.053 36.23z" fill="#fff"/><path d="M709.476 7466.67s35.397-4.59 45.44-17.9c7.636-10.16-1.012-40.4-20.199-38.24-12.128 1.36-34.294 19.92-34.294 19.92l9.053 36.22z" fill="#BBE5FA"/><path d="M690.423 7449.72s26.585-3.37 34.045-13.43c5.692-7.63-.728-30.34-15.163-28.7-9.051 1-25.751 14.98-25.751 14.98l6.869 27.15z" fill="#022289"/><path d="M660.444 7461.05s39.657.35 52.715-12.83c9.92-10.07 5.112-44.63-16.421-45.12-13.547-.28-40.816 16.76-40.816 16.76l4.522 41.19z" fill="#fff"/><path d="M666.583 7480.63s39.656.36 52.715-12.82c9.919-10.07 5.111-44.63-16.421-45.12-13.547-.28-40.816 16.76-40.816 16.76l4.522 41.18z" fill="#BBE5FA"/><path d="M649.366 7457.93s29.767.31 39.561-9.57c7.522-7.52 3.774-33.53-12.372-33.84-10.129-.26-30.543 12.58-30.543 12.58l3.354 30.83z" fill="#022289"/><path d="M616.11 7454.82s36.744 14.83 53.7 7.39c12.915-5.69 20.988-39.71 1.174-47.99-12.523-5.22-44.104.68-44.104.68l-10.77 39.92z" fill="#fff"/><path d="M623.317 7476.26s36.744 14.83 53.7 7.39c12.915-5.7 20.988-39.71 1.174-48-12.523-5.22-44.104.69-44.104.69l-10.77 39.92z" fill="#BBE5FA"/><path d="M606.982 7447.76s27.545 11.11 40.285 5.51c9.718-4.32 15.797-29.78.798-36.04-9.301-3.9-33.043.53-33.043.53l-8.04 30z" fill="#022289"/><path d="M581.901 7448.86s36.744 14.83 53.7 7.39c12.916-5.7 20.988-39.71 1.174-48-12.523-5.22-44.104.69-44.104.69l-10.77 39.92z" fill="#fff"/><path d="M589.158 7470.38s36.745 14.83 53.701 7.39c12.915-5.69 20.987-39.71 1.174-48-12.523-5.21-44.104.69-44.104.69l-10.771 39.92z" fill="#BBE5FA"/><path d="M608.501 7497.24c26.426-31.2 29.504-72.03 6.876-91.19-22.628-19.17-62.394-9.41-88.819 21.79-26.425 31.2-29.503 72.02-6.875 91.19s62.393 9.41 88.818-21.79z" fill="#BBE5FA"/><path d="M611.326 7480.51c14.157-16.71 15.801-38.59 3.673-48.86-12.129-10.27-33.437-5.05-47.593 11.66-14.157 16.72-15.801 38.59-3.672 48.87 12.128 10.27 33.436 5.05 47.592-11.67z" fill="#022289"/><path d="M446.433 7563.82l73.064-76.82c1.419-1.41 2.079-3.31 2.146-5.23l.318-13.69c.06-3.56 2.606-6.67 6.021-7.47l4.447-1.04c3.818-.91 7.863 1.22 9.179 4.92l1.584 4.37c.932 2.63 3.324 4.54 6.089 5.05l2.348.41c4.644.72 7.617 5.46 6.25 10.01l-2.037 7.05c-.87 2.97-3.383 5.12-6.408 5.58l-10.752 1.51c-1.714.28-3.262 1.06-4.468 2.22l-63.42 64.45c-2.449 2.47-2.986 6.42-1.257 9.41l.712 1.24c1.83 3.17 1.204 7.17-1.471 9.65l-5.175 4.87c-3.366 3.12-8.766 2.71-11.583-.95l-1.586-2.13c-1.928-2.53-5.137-3.61-8.185-2.79-5.115 1.31-9.951-2.59-9.81-7.84l.063-2.74c.158-4.2 3.599-7.6 7.786-7.67l.454-.02c2.145.05 4.146-.75 5.691-2.35z" fill="#fff"/><path d="M450.853 7571.48l73.064-76.82c1.419-1.41 2.079-3.31 2.146-5.23l.318-13.69c.059-3.55 2.606-6.67 6.02-7.47l4.448-1.04c3.818-.91 7.863 1.22 9.179 4.92l1.583 4.37c.933 2.63 3.325 4.54 6.09 5.05l2.347.41c4.645.72 7.618 5.47 6.25 10.01l-2.037 7.05c-.869 2.97-3.382 5.12-6.407 5.58l-10.752 1.51c-1.714.28-3.262 1.06-4.468 2.23l-63.42 64.44c-2.449 2.47-2.986 6.42-1.257 9.41l.711 1.24c1.831 3.17 1.205 7.17-1.47 9.65l-5.175 4.87c-3.366 3.12-8.766 2.71-11.583-.95l-1.586-2.13c-1.928-2.53-5.137-3.61-8.185-2.79-5.115 1.31-9.951-2.59-9.81-7.84l.063-2.74c.158-4.2 3.599-7.59 7.786-7.66l.454-.03c2.195.14 4.146-.75 5.691-2.35z" fill="#BBE5FA"/><path d="M531.175 7568.44l45.978-95.47c.85-1.78 1.005-3.75.479-5.68l-3.931-13.11c-1.024-3.4.347-7.13 3.517-8.96l3.912-2.38c3.384-2.07 7.853-1.24 10.225 1.85l2.816 3.66c1.776 2.26 4.531 3.37 7.329 2.93l2.256-.36c4.651-.69 8.917 2.83 9.064 7.56l.121 7.33c.001 3.05-1.651 5.88-4.395 7.23l-9.741 4.69c-1.548.77-2.842 1.99-3.566 3.58l-40.62 80.76c-1.587 3.14-.902 6.97 1.745 9.32l1.064 1.03c2.697 2.44 3.345 6.41 1.581 9.65l-3.453 6.23c-2.214 4.09-7.519 5.28-11.365 2.68l-2.138-1.46c-2.568-1.81-5.986-1.83-8.666-.17-4.477 2.82-10.352.58-11.749-4.49l-.794-2.59c-1.153-4.03 1.047-8.35 5.116-9.65l.491-.16c2.191-.68 3.837-2.1 4.724-4.02z" fill="#fff"/><path d="M618.67 7475.54c.001 3.05-1.652 5.88-4.395 7.23l-9.742 4.69c-1.548.77-2.841 1.99-3.566 3.58l-40.619 80.75c-1.588 3.15-.902 6.98 1.744 9.33l1.064 1.03c2.698 2.43 3.346 6.4 1.582 9.65l-3.454 6.22c-2.214 4.1-7.518 5.28-11.364 2.69l-2.138-1.47c-2.569-1.8-5.987-1.82-8.666-.16-4.478 2.82-10.353.58-11.75-4.49l-.794-2.59c-1.153-4.03 1.048-8.36 5.116-9.65l.491-.17c2.053-.71 3.699-2.13 4.586-4.05l30.2-66.87-27.887 11.29 39.24-93.11s58.306 24.93 57.412 25.21c-.82 0-17.06 20.89-17.06 20.89z" fill="#BBE5FA"/><path d="M359.892 7468.42c2.954.65 5.847-1.26 6.54-4.12 2.193-9.02-3.258-17.85-12.032-19.83-2.904-.55-5.847 1.26-6.541 4.13-.642 2.95 1.035 5.86 3.99 6.5 3.093.68 4.96 3.71 4.192 6.86-.869 2.97.947 5.91 3.851 6.46z" fill="#FB8C00"/><path d="M389.771 7491.1c10.34 2.25 21.014.19 30.182-5.69 9.169-5.88 15.599-14.88 18.113-25.37l2.527-10.26c2.155-8.88-3.193-17.53-11.917-19.42l-.088.05c-8.724-1.89-17.452 3.73-19.658 12.52l-2.527 10.27c-.657 2.72-2.479 4.24-3.485 4.94-1.006.7-3.045 1.64-5.633 1.02l-20.402-4.42c-8.724-1.89-17.452 3.74-19.658 12.52-2.155 8.88 3.193 17.53 11.917 19.42l20.402 4.43c.139.04.227-.01.227-.01z" fill="#C52928"/><path d="M351.059 7482.21c7.752 1.63 15.65-3.4 17.596-11.21 1.894-7.91-2.807-15.64-10.609-17.36l-15.971-3.46c-7.751-1.63-15.65 3.4-17.595 11.21-1.895 7.91 2.807 15.64 10.609 17.36l15.97 3.46s-.088.05 0 0z" fill="#FB8C00"/><path d="M362.991 7488.24c3.459.7 6.968-1.56 7.81-4.98l6.033-24.73c.879-3.56-1.331-6.99-4.702-7.74-3.459-.7-7.018 1.47-7.81 4.98l-6.032 24.73c-.931 3.48 1.191 6.95 4.701 7.74z" fill="#fff"/><path d="M411.5 7366.65c22.372-.71 46.377 11.38 27.327 38.59-16.744 23.87-44.996 7.07-44.996 7.07 8.967 19.6 61.239 128.44 129.745 106.97 75.432-23.7 98.548-103.86 77.085-131.27-82.947-106.05-189.161-21.36-189.161-21.36z" fill="#DA4637"/><path d="M469.175 7408.66c5.174-27.66-6.876-53.12-26.914-56.86-20.038-3.75-40.476 15.63-45.649 43.28-5.174 27.66 6.876 53.12 26.914 56.87 20.038 3.74 40.476-15.64 45.649-43.29z" fill="#FB8C00"/><path d="M376.301 7413.27s36.744 14.83 53.7 7.39c12.916-5.69 20.988-39.71 1.174-48-12.522-5.21-44.104.69-44.104.69l-10.77 39.92z" fill="#BBE5FA"/><path d="M367.228 7406.3s27.546 11.1 40.285 5.51c9.718-4.32 15.797-29.79.798-36.04-9.3-3.91-33.043.52-33.043.52l-8.04 30.01z" fill="#022289"/><path d="M342.008 7407.36s36.744 14.83 53.7 7.39c12.916-5.7 20.988-39.71 1.174-48-12.522-5.21-44.104.69-44.104.69l-10.77 39.92z" fill="#BBE5FA"/><path d="M350.347 7350.41s29.576 28.25 25.255 43.54c-4.182 15.33-54.691 30.75-54.691 30.75l29.436-74.29z" fill="#022289"/><path d="M265.279 7371.46c-39.718 31.27-108.586 104.38-94.346 118.47 10.173 10.09 165.935-84.77 165.935-84.77l-9.806-88.98c-.088.05-21.978 23.96-61.783 55.28z" fill="#022289"/><path d="M352.634 7301.3l-58.293 71.7c-16.295 19.98-35.477 37.39-57.133 51.54l-62.855 41.22c-3.686 2.36-8.663.66-10.056-3.59l-13.524-43.15c-4.222-13.41-.819-28.06 8.823-38.21l17.533-13.76c23.8-17.14 27.662-47.67 53.032-69.01 25.371-21.34 68.684-26.86 68.684-26.86l53.789 30.12z" fill="#fff"/><path d="M401.077 7292.47l-58.293 71.7c-16.295 19.97-35.477 37.39-57.133 51.54l-62.855 41.22c-3.685 2.36-8.662.65-10.056-3.59l-13.524-43.15c-4.222-13.42-.819-28.06 8.823-38.21l17.635-13.58c23.8-17.15 27.662-47.68 53.032-69.02 25.371-21.34 68.684-26.85 68.684-26.85l53.687 29.94z" fill="#BBE5FA"/><path d="M321.101 7420.37c5.881.83 10.141-5.62 7.016-10.63-3.532-5.71-8.405-12.52-14.512-18.63-4.992-4.98-9.41-8.77-12.992-11.52-4.063-3.17-9.912.32-8.969 5.42.842 4.91 2.382 10.83 5.019 16.82 3.211 7.19 7.37 15.01 10.688 20.96 2.607 4.72 9.406 4.9 12.223.22l1.527-2.64z" fill="#fff"/><path d="M306.66 7428.7c5.881.84 10.141-5.62 7.016-10.62-3.532-5.71-8.406-12.53-14.512-18.63-4.992-4.98-9.411-8.77-12.992-11.52-4.063-3.17-9.913.32-8.969 5.41.842 4.92 2.381 10.84 5.019 16.83 3.21 7.19 7.37 15 10.688 20.95 2.607 4.72 9.406 4.91 12.223.23l1.527-2.65z" fill="#fff"/><path d="M288.873 7432.87c5.881.83 10.141-5.62 7.016-10.63-3.532-5.71-8.406-12.52-14.512-18.62-4.992-4.99-9.411-8.78-12.993-11.52-4.062-3.18-9.912.32-8.968 5.41.841 4.91 2.381 10.84 5.019 16.83 3.21 7.18 7.369 15 10.688 20.95 2.607 4.72 9.406 4.9 12.223.22l1.527-2.64zM192.945 7479.45c-4.992-4.99-9.41-8.78-12.992-11.52-4.063-3.18-9.912.32-8.969 5.41.842 4.91 2.382 10.84 5.019 16.83 3.072 7.15 22.91-4.66 16.942-10.72z" fill="#fff"/><path d="M206.415 7471.67c-4.992-4.99-9.41-8.77-12.992-11.52-4.063-3.17-9.912.32-8.969 5.41.842 4.92 2.382 10.84 5.019 16.83 3.16 7.1 22.998-4.71 16.942-10.72z" fill="#fff"/><path d="M221.829 7462.77c-4.992-4.98-9.41-8.77-12.992-11.52-4.063-3.17-9.912.32-8.969 5.41.842 4.92 2.382 10.84 5.019 16.83 3.16 7.1 22.998-4.7 16.942-10.72z" fill="#fff"/><path d="M351.84 7286.49l19.295 89.96c2.846 13.27-2.756 26.95-14.15 34.47l-145.354 95.2c-8.326 5.51-19.278 4.43-26.435-2.47l-14.263-13.72c-3.382-3.22-2.486-8.78 1.629-10.81 0 0 164.498-64.68 135.289-152.08" fill="#fff"/><path d="M366.651 7267.61l30.429 109.24c2.847 13.27-2.756 26.96-14.149 34.48l-145.355 95.19c-8.325 5.51-19.278 4.44-26.435-2.47l-14.212-13.63c-3.382-3.22-2.486-8.78 1.629-10.81 0 0 136.615-63.96 107.493-151.41" fill="#BBE5FA"/><path d="M180.541 7444.34c-2.689 5.31-10.446 5.09-12.742-.51-2.563-6.27-5.36-14.17-6.735-22.65-1.191-6.95-1.671-12.66-1.855-17.25-.174-5.18 6.044-7.83 9.681-4.18 3.497 3.62 7.465 8.26 10.719 13.89 4.054 6.82 7.986 14.65 10.915 20.94 2.343 4.87-1.467 10.48-6.867 10.07l-3.116-.31z" fill="#022289"/><path d="M204.134 7406.29c-5.881-.83 1.441 23.24 7.496 29.26 4.992 4.98 9.411 8.77 12.992 11.52 4.063 3.17 9.913-.32 8.969-5.41-.841-4.92-2.381-10.84-5.019-16.83-3.21-7.19-7.37-15-10.688-20.96-2.607-4.71-9.406-4.9-12.223-.22l-1.527 2.64z" fill="#BBE5FA"/><path d="M218.664 7397.91c-5.881-.84-10.141 5.62-7.016 10.62 3.532 5.71 8.406 12.53 14.512 18.63 4.992 4.98 9.411 8.77 12.992 11.52 4.063 3.17 9.912-.32 8.969-5.41-.842-4.92-2.382-10.84-5.019-16.83-3.211-7.19-7.37-15-10.688-20.95-2.607-4.72-9.406-4.91-12.223-.23l-1.527 2.65z" fill="#BBE5FA"/><path d="M231.896 7386.04c-5.881-.83-10.14 5.62-7.015 10.63 3.531 5.71 8.405 12.52 14.512 18.62 4.991 4.99 9.41 8.78 12.992 11.52 4.062 3.18 9.912-.32 8.968-5.41-.841-4.91-2.381-10.84-5.019-16.83-3.21-7.19-7.369-15-10.688-20.95-2.606-4.72-9.406-4.9-12.223-.22l-1.527 2.64z" fill="#BBE5FA"/><path d="M267.309 7321.09c3.355 5.81 1.345 13.31-4.467 16.67-5.812 3.36-13.313 1.35-16.669-4.47-3.355-5.81-1.345-13.31 4.467-16.66 5.812-3.36 13.313-1.35 16.669 4.46z" fill="#022289"/><path d="M213.961 7282.38s111.094-161.24 211.147-20.69c0 0-108.68-21.68-79.062 10.3l-132.085 10.39z" fill="#DA4637"/><path d="M212.967 7296.93c.198 4.81 4.302 8.67 9.119 8.47l131.63-5.08c4.817-.19 8.671-4.3 8.473-9.12l-.652-16.17c-.198-4.82-4.302-8.68-9.119-8.48l-131.63 5.08c-4.817.2-8.671 4.3-8.473 9.12l.652 16.18zM438.093 7262.41c.287 7.82-5.789 14.38-13.695 14.72-7.819.28-14.518-5.83-14.805-13.65-.287-7.82 5.876-14.43 13.695-14.71 7.906-.34 14.518 5.82 14.805 13.64z" fill="#fff"/><path opacity=".2" d="M454.059 7499.54c2.391-1.15 3.455-3.17 3.891-4.25.386-1.16.982-3.38-.178-6l-4.231-9.77c-3.593-8.26.008-18.08 8.076-21.8l.088-.05c8.068-3.72 17.582-.06 21.139 8.34l4.231 9.77c4.332 9.94 4.634 21.04.87 31.2-1.408 3.86-5.705 10.46-5.705 10.46-18.018-7.21-28.181-17.9-28.181-17.9z" fill="#231F20"/><path d="M423.598 7527.92c2.707-1.21 3.878-4.47 2.705-7.31-3.658-8.57-13.362-12.37-21.606-8.54-2.707 1.21-3.878 4.46-2.705 7.31 1.261 2.79 4.345 4.07 7 2.77 2.883-1.31 6.244.03 7.468 2.97 1.261 2.79 4.432 4.01 7.138 2.8z" fill="#FB8C00"/><path d="M461.093 7528c9.617-4.5 16.921-12.59 20.685-22.75 3.764-10.15 3.462-21.25-.87-31.2l-4.231-9.76c-3.645-8.35-13.071-12.07-21.139-8.35l-.088.05c-8.068 3.72-11.67 13.55-8.076 21.81l4.231 9.77c1.159 2.62.615 4.93.178 6-.437 1.07-1.5 3.1-3.891 4.24l-19.019 8.75-.088.05c-8.068 3.72-11.67 13.55-8.076 21.81 3.644 8.35 13.07 12.06 21.138 8.34l19.019-8.75c.139.04.227-.01.227-.01z" fill="#DA4637"/><path d="M432.292 7514.92l19.019-8.75c2.392-1.15 3.455-3.17 3.891-4.24.386-1.17.982-3.39-.178-6.01l-2.905-6.66c.438 1.98.079 3.6-.32 4.53-.437 1.08-1.5 3.1-3.892 4.25l-19.019 8.75s.001 0-.088.05c-8.068 3.72-11.669 13.55-8.076 21.8.536 1.34 1.285 2.43 2.173 3.56-.839-7.14 2.838-14.2 9.395-17.28z" fill="#DA4637"/><path d="M424.805 7544.25c7.225-3.35 10.478-12.15 7.254-19.57-3.224-7.41-11.765-10.82-18.99-7.47l-14.853 6.82-.088.05c-7.225 3.35-10.478 12.15-7.254 19.57 3.224 7.41 11.766 10.82 18.991 7.47l14.94-6.87z" fill="#FB8C00"/><path d="M437.959 7541.83c3.235-1.52 4.643-5.39 3.215-8.67l-10.106-23.4c-1.427-3.29-5.205-4.75-8.49-3.32-3.235 1.52-4.643 5.38-3.216 8.67l10.106 23.4c1.428 3.28 5.205 4.74 8.491 3.32z" fill="#fff"/><path d="M545.81 7589.93l81.89 52.76s-35.07 18.37-25.021 31.71l61.38-35.44L557.641 7573l-11.831 16.93z" fill="#BBE5FA"/><path d="M629.273 7647.65s-26.133 20.02-14.946 31.06l50.616-39.44M454.15 7591.42l81.789 52.58s-34.054 20.14-25.124 31.54l61.381-35.44-106.317-65.78-11.729 17.1z" fill="#BBE5FA"/><path d="M539.64 7647.97s-26.133 20.02-14.946 31.06l50.616-39.44" fill="#BBE5FA"/></g><g opacity=".8"><mask id="d" mask-type="alpha" maskUnits="userSpaceOnUse" x="8" y="6991" width="871" height="869"><path d="M454.15 7795.16l-243.553-116.59-134.0365-254.85 61.9245-169.12 94.399-143.81 437.115 8.42 76.873 56.83 70.854 141.28-91.732 426.87-271.844 50.97z" fill="#000"/></mask><g style="mix-blend-mode:lighten" mask="url(#d)"><path d="M188.614 7193.26c137.305-137.3 360.247-137.48 497.333-.4 75.682 75.69 109.899 177.6 101.722 277.17-6.258 80.51-40.143 159.14-101.644 220.64-137.305 137.31-360.247 137.49-497.332.4-46.647-46.65-77.09-102.83-92.2862-162.84-29.4421-116.22 1.1477-243.91 92.2072-334.97z" fill="#80DEEA"/><path d="M384.408 7197.23c8.297 8.3 230.915 237.84 230.915 237.84l333.768-132.14-540.96-352.73-23.723 247.03z" fill="#29B6F6"/><path d="M370.949 7586.81l63.844 200.26 320.741-38.65-195.742-199.66" fill="#80DEEA"/><path d="M609.858 7360.43l192.996 58.58-43.852 325.94-198.031-200.56 48.887-183.96z" fill="#81D4FA"/><path d="M679.357 7834.97c-.691-.7-1.727-3.12-3.454-6.23-20.032-42.88-113.946-279.45-113.946-279.45l303.679 99.4" fill="url(#paint17_linear)"/><path d="M480.214 7232.8l-64.19-200.61-320.7413 38.66L291.28 7277.92" fill="#81D4FA"/><path d="M375.442 7594.07l184.785-49.28 49.275-184.78-130.093-131-189.165 45.8-49.621 184.44 134.819 134.82z" fill="#80DEEA"/><path d="M375.444 7594.07l186.534-44.72 47.88-188.92-130.45-131.41-189.819 45.02-48.964 185.21 134.819 134.82z" fill="url(#paint18_linear)"/><path d="M77.019 7418.91l163.61 40.34 134.819 134.82 112.911 274.96-278.004-190.76-133.336-259.36z" fill="url(#paint19_linear)"/><path d="M.420116 7156.03c.691384.69 289.168884 118.01 289.168884 118.01l-102.89-304.29L.420116 7156.03z" fill="url(#paint20_linear)"/><path d="M728.585 7067.93c-.691.69-124.012 117.87-124.012 117.87l141.043-10.9-135.758 185.53 188.914 76.66 116.092-182.88-186.279-186.28z" fill="url(#paint21_linear)"/></g></g><path d="M321.997 9673.23c-1.901-5.24 14.193-25.65 8.729-61.83" stroke="#EF3E3A" stroke-width="6.1406" stroke-miterlimit="10" stroke-linecap="round"/><path d="M344.748 9608.65c-.376-3.37-3.418-5.82-6.812-5.46-2.63.28-4.521 2.63-4.236 5.26l.504 4.55-6.334.69-1.524-13.84c-.093-.87.54-1.66 1.41-1.75l15.488-1.67c3.329-.37 6.443 1.92 6.926 5.22.517 3.46-1.968 6.62-5.422 7z" fill="#332F2E"/><path d="M333.535 9606.86l-2.379.25c-.87.09-1.503.88-1.41 1.75.093.87.884 1.5 1.754 1.41l2.379-.25c.87-.09 1.503-.88 1.41-1.75-.093-.87-.884-1.5-1.754-1.41z" fill="#F9CF1D"/><path d="M308.953 9677.96c-1.029-2.84-15.515-2.22-22.496-16.32-3.936-10.85-3.861-15.7-3.257-24.34" stroke="#EF3E3A" stroke-width="6.1406" stroke-miterlimit="10" stroke-linecap="round"/><path d="M269.399 9634.77c.244-3.36 3.177-5.9 6.528-5.67 2.605.19 4.557 2.44 4.361 5.05l-.33 4.52 6.277.43 1.012-13.75c.066-.86-.588-1.61-1.45-1.68l-15.347-1.06c-3.299-.23-6.292 2.14-6.655 5.43-.377 3.45 2.17 6.49 5.604 6.73z" fill="#332F2E"/><path d="M280.407 9632.58l2.356.17c.861.06 1.516.82 1.45 1.68-.067.86-.823 1.52-1.685 1.46l-2.356-.17c-.862-.06-1.516-.82-1.45-1.68.055-.87.812-1.53 1.685-1.46z" fill="#F9CF1D"/><path d="M308.952 9677.96l13.045-4.73 7.884 42.11-20.929-37.38z" fill="#EF3E3A"/><path d="M329.881 9715.34c33.482-8.98 55.125.09 55.125.09" stroke="#EF3E3A" stroke-width="6.1406" stroke-miterlimit="10" stroke-linecap="round"/><path d="M399.678 9719.25c-.203-3.63-3.309-6.41-6.939-6.21-3.63.21-6.408 3.31-6.205 6.94.202 3.63 3.309 6.41 6.938 6.21 3.63-.2 6.408-3.31 6.206-6.94z" fill="#E0BB95"/><path d="M387.429 9710.02l-5.468 9.71c-.841 1.48-.309 3.37 1.172 4.19 1.482.84 3.37.31 4.197-1.17l5.468-9.71c.841-1.48.309-3.37-1.172-4.2-1.481-.82-3.37-.3-4.197 1.18z" fill="#fff"/><path d="M329.003 9717.3c-17.097 5.2-32.097 22.2-28.099 46.2" stroke="#EF3E3A" stroke-width="6.1406" stroke-miterlimit="10" stroke-linecap="round"/><path d="M294.235 9769.2c-.056-3.63 2.844-6.62 6.474-6.68 3.63-.05 6.625 2.85 6.681 6.48.055 3.63-3.141 6.39-6.771 6.44-3.631.06-6.329-2.61-6.384-6.24z" fill="#E0BB95"/><path d="M295.181 9765.69l11.147-.17c1.708-.02 3.059-1.43 3.037-3.12-.021-1.71-1.433-3.06-3.127-3.04l-11.147.16c-1.708.02-3.059 1.44-3.037 3.13.036 1.71 1.432 3.07 3.127 3.04z" fill="#fff"/><path d="M330.28 9694.56c1.546 4.26 6.299 4.01 8.302 9.52 1.923 5.32-.778 11.67-7.644 14.17-6.865 2.49-13.009-.67-14.937-5.97-2.002-5.52 1.817-8.37.271-12.63-1.989-5.52-12.191-6.74-15.486-15.81-2.937-8.12 1.355-14.71 11.066-18.23 9.711-3.52 17.229-1.21 20.179 6.9 3.285 9.06-3.753 16.53-1.751 22.05z" fill="#EF3E3A"/><path d="M316.614 9701.16c-.043-.49-.159-.99-.353-1.53-.592-1.63-1.889-2.87-3.52-4.07l17.618-6.4c-.48 1.96-.682 3.75-.09 5.38.194.54.427.98.713 1.4l-14.368 5.22z" fill="#332F2E"/><path d="M324.678 9691.27l-6.188 2.24 2.244 6.19 6.188-2.24-2.244-6.19z" fill="#F9CF1D"/><path d="M365.745 9746.73c-2.444.66-3.895 3.17-3.24 5.61.655 2.45 3.168 3.9 5.612 3.24 2.444-.65 3.895-3.17 3.24-5.61-.655-2.44-3.167-3.89-5.612-3.24z" fill="#fff"/><path d="M351.806 9721.24l11.63 26.96-28.559-6.83 16.929-20.13z" fill="#EF3E3A"/><path d="M348.91 9719.59c-1.059 1.26-1.224 3.11-.291 4.56 2.202 3.45 1.914 7.86-.727 10.99-2.628 3.13-6.929 4.18-10.699 2.6-1.968-.82-4.217.1-5.041 2.07-.823 1.97.102 4.22 2.07 5.04 6.896 2.88 14.758.98 19.582-4.75 4.825-5.72 5.35-13.79 1.328-20.09-1.142-1.79-3.528-2.31-5.322-1.17-.355.21-.64.46-.9.75z" fill="#fff"/><path d="M356.664 9719.75l-9.473.82c-.89.07-1.799-.2-2.536-.81-1.476-1.23-1.654-3.43-.42-4.91.625-.74 1.485-1.14 2.361-1.22 5.913-.51 10.068 6.12 10.068 6.12zM334.244 9746.4s-7.242-2.96-7.754-8.87c-.077-.89.193-1.8.804-2.54 1.234-1.48 3.434-1.65 4.91-.42.74.62 1.147 1.48 1.22 2.36l.82 9.47z" fill="#E0BB95"/><path d="M335.028 9714.47c-7.015 1.88-11.178 9.09-9.298 16.11 1.879 7.01 9.09 11.18 16.105 9.3 7.015-1.88 11.178-9.09 9.299-16.11-1.88-7.02-9.091-11.18-16.106-9.3z" fill="#E0BB95"/><path d="M339.086 9732.45c-.697-.59-1.74-.49-2.33.21-.59.7-.493 1.74.204 2.33.697.59 1.743.5 2.33-.21.588-.7.491-1.74-.204-2.33zM345.929 9724.32c-.696-.58-1.738-.49-2.327.21-.589.69-.493 1.74.204 2.33.696.58 1.74.5 2.327-.21.587-.7.501-1.74-.204-2.33z" fill="#332F2E"/><path d="M337.237 9726.19c2.836-3.37 1.844-8.93-2.364-7.62-1.406.43-2.707 1.26-3.723 2.48-1.022 1.22-1.619 2.65-1.806 4.12-.555 4.36 5.064 4.38 7.893 1.02z" fill="#fff"/><path d="M347.049 9730.18c-3.027.81-4.824 3.92-4.013 6.95.812 3.03 3.923 4.82 6.95 4.01 3.027-.81 4.823-3.92 4.012-6.95-.811-3.02-3.922-4.82-6.949-4.01z" fill="#F27455"/><path d="M340.928 9736.77c-1.748.47-2.786 2.27-2.317 4.01.468 1.75 2.265 2.79 4.013 2.32 1.748-.47 2.785-2.26 2.317-4.01-.468-1.75-2.265-2.79-4.013-2.32zM350.732 9725.13c-1.748.46-2.785 2.26-2.317 4.01.469 1.75 2.265 2.78 4.014 2.32 1.748-.47 2.785-2.27 2.317-4.02-.469-1.75-2.266-2.78-4.014-2.31z" fill="#F27455"/><g opacity=".8"><mask id="e" mask-type="alpha" maskUnits="userSpaceOnUse" x="148" y="9485" width="345" height="346"><path d="M148 9709.18l24.121-129.11 102.87-95.07 87.262 7.8 79.457 26.25 51.081 206.45-17.027 43.28-57.465 51.08-212.124 10.64L148 9709.18z" fill="#000"/></mask><g style="mix-blend-mode:lighten" mask="url(#e)"><path d="M397.386 9508.64c81.803 47.22 109.956 151.96 62.802 233.63-26.032 45.09-69.612 74-117.426 82.69-38.618 7.2-79.83 1.18-116.471-19.98-81.803-47.23-109.955-151.96-62.802-233.63 16.045-27.79 38.614-49.17 64.898-63.87 50.898-28.46 114.748-30.17 168.999 1.16z" fill="#80DEEA"/><path d="M420.171 9601.13c-2.854 4.95-82.682 138.45-82.682 138.45l104.113 140.19 97.633-298.59-119.064 19.95z" fill="#29B6F6"/><path d="M235.424 9643.86l-86.06 55.21 58.547 145.84 69.167-117.11" fill="#80DEEA"/><path d="M371.873 9727.61l-3.227 98.06-158.669 20.43 69.302-118.29 92.594-.2z" fill="#81D4FA"/><path d="M157.652 9820.01c.238-.41 1.245-1.2 2.49-2.4 17.628-14.81 116.96-88.73 116.96-88.73l-8.469 155.21" fill="url(#paint22_linear)"/><path d="M415.523 9650.63l86.179-55.42-58.547-145.84-72.623 118.16" fill="#81D4FA"/><path d="M232.579 9646.88l46.418 80.63 93.03-.12 45.173-77.62-45.336-83.11-92.911-.1-46.374 80.32z" fill="#80DEEA"/><path d="M232.579 9646.88l44.499 82.02 94.795-1.29 45.325-77.84-45.056-83.52-93.189.31-46.374 80.32z" fill="url(#paint23_linear)"/><path d="M277.312 9484.61l1.64 81.95-46.374 80.33-114.977 87.67 54.628-154.65 105.083-95.3z" fill="url(#paint24_linear)"/><path d="M391.188 9415.52c-.238.41-19.045 150.73-19.045 150.73l130.025-86.66-110.98-64.07z" fill="url(#paint25_linear)"/><path d="M524.26 9746.57c-.412-.23-70.995-43.43-70.995-43.43l22.875 64.91-104.268-40.44-12.235 98.42 100.548 31.53 64.075-110.99z" fill="url(#paint26_linear)"/></g></g><g opacity=".4"><path d="M183.482 12964.9l14.861 61.8s23.758.6 20.217 22.1l-39.528-1.1-14.352-59.7M104.13 12934.1l-48.537 41.1s9.4124 19.9-5.2261 30.1l-22.264-37.9 46.8765-39.7" fill="#94D8F7"/><path d="M207.742 12981.2c-16.815 24.3-50.128 30.3-74.365 13.5l-62.38-43.3c-24.2368-16.8-30.259-50.1-13.4435-74.4 16.8155-24.2 50.1285-30.2 74.3655-13.4l105.49 73.2c29.004 20.1 29.367 54.8 23.302 63.5-6.064 8.8-11.355 8.3-25.261-1.3-13.907-9.7-27.708-17.8-27.708-17.8z" fill="#94D8F7"/><path d="M207.377 12979.2c-16.815 24.2-40.48 16.4-64.717-.5l-62.38-43.2c-24.2368-16.9-39.9073-36.3-23.0918-60.5 16.8155-24.2 50.1288-30.3 74.3658-13.4l105.291 73c29.203 20.3 29.704 54.8 23.501 63.7-6.202 8.9-11.355 8.3-25.262-1.3-13.906-9.7-27.707-17.8-27.707-17.8z" fill="#fff"/><path d="M256.299 12992.3l-11.445 5.8-.276-14 11.721 8.2z" fill="#404040"/><path d="M164.987 12962.4l-18.047 61s12.759 14.2 1.541 32.5l-28.791-24 17.429-58.9M75.922 12920.5l-57.5174 27.1s4.3389 24-16.33431 30.8l-8.20653-45.4 73.70104-34.7M222.582 12921.7c-3.584 5.1-2.306 12.2 2.859 15.8 5.165 3.6 12.232 2.3 15.815-2.9 3.584-5.2 2.306-12.2-2.859-15.8-5.165-3.6-12.231-2.3-15.815 2.9zM243.904 12946.8c-3.583 5.2-2.306 12.3 2.859 15.9 5.166 3.5 12.232 2.3 15.816-2.9 3.583-5.2 2.306-12.2-2.86-15.8-5.165-3.6-12.231-2.3-15.815 2.8z" fill="#fff"/><path d="M230.062 12956.7c-1.516 2.2-.83 5 1.156 6.4 2.186 1.5 5.015.8 6.394-1.2 1.378-2 .831-5-1.156-6.4-1.987-1.3-4.877-1-6.394 1.2z" fill="#404040"/></g><g opacity=".8"><mask id="f" mask-type="alpha" maskUnits="userSpaceOnUse" x="-87" y="12725" width="487" height="488"><path d="M5.82705 12870.7l114.13595-65.1 139.023 17.1 50.422 71.7 31.302 77.6-124.573 172.4-44.032 14.9-76.1151-10.8-145.1728-155.1 55.00995-122.7z" fill="#000"/></mask><g style="mix-blend-mode:lighten" mask="url(#f)"><path d="M320.024 12931.4c16.804 93-44.946 182.1-137.748 198.9-51.235 9.3-101.4568-5.3-138.984-36.2-30.4436-24.8-52.4732-60.2-59.9998-101.8-16.8034-92.9 44.946-182.1 137.7488-198.9 31.579-5.7 62.477-2.3 90.676 8.3 54.61 20.5 97.163 68.1 108.307 129.7z" fill="#80DEEA"/><path d="M264.143 13008.6c-5.616 1-159.09 26.3-159.09 26.3L65.3161 13205 356.3 13086.6l-92.157-78z" fill="#29B6F6"/><path d="M112.172 12895.2l-97.7439-30-73.489 138.9 134.0745-22.9" fill="#80DEEA"/><path d="M136.401 13053.4l-76.9294 60.9-118.1083-107.9 135.0694-23.5 59.9683 70.5z" fill="#81D4FA"/><path d="M-72.5293 12949.6c.468-.1 1.7229.2 3.4458.4 22.6943 3.9 143.2856 31.9 143.2856 31.9l-123.9344 93.8" fill="url(#paint27_linear)"/><path d="M223.365 13037l97.978 30 73.489-138.9-137.113 20.9" fill="#81D4FA"/><path d="M108.025 12895l-31.5465 87.5 60.1905 70.9 88.431-15.7 34.149-88.3-59.956-70.9-91.268 16.5z" fill="#80DEEA"/><path d="M108.025 12895l-33.8508 86.9 62.2278 71.5 88.698-15.7 34.638-88.3-60.445-70.9-91.268 16.5z" fill="url(#paint28_linear)"/><path d="M260.785 12824.3l-61.493 54.2-91.269 16.5-141.2015-31.1 153.3275-58.3 140.636 18.7z" fill="url(#paint29_linear)"/><path d="M387.091 12866.5c-.468.1-127.352 82.9-127.352 82.9l150.149 43.2-22.797-126.1z" fill="url(#paint30_linear)"/><path d="M220.384 13182c-.085-.5-12.72-82.2-12.72-82.2l-34.758 59.3-36.506-105.7-83.0238 54.3 40.9023 97.1 126.1055-22.8z" fill="url(#paint31_linear)"/></g></g><g opacity=".8"><path d="M398.43 16069.9l-3.274-23.1M391.484 16071.9l-11.098-1M329.13 16116.3l-1.564 11M389.537 16071.6l-12.626-19.7M393.129 16067.3l-9.004-21.6M326.502 16126.4l-16.786-16.3M322.086 16133.3l-23.002-4.3M322 16130.5l-19.719-12.6" stroke="#BF8F68" stroke-width="7.88282" stroke-miterlimit="10" stroke-linecap="round"/><path d="M417.394 16120.4c4.922 1.1 8.616 4.7 10.022 9.2-3.193 3.4-8.091 5.2-13.004 4.1-4.922-1.2-8.616-4.8-10.011-9.3 3.176-3.4 8.07-5.1 12.993-4zM372.511 16158.6c.312 5.1 3.324 9.3 7.528 11.4 3.921-2.6 6.379-7.2 6.061-12.2-.313-5-3.324-9.3-7.539-11.4-3.901 2.6-6.358 7.2-6.05 12.2z" fill="#C75600"/><path d="M355.607 16090.5c-3.967 1.5-5.912 6-4.346 10 1.566 3.9 6.051 5.9 10.017 4.3 3.966-1.5 5.911-6 4.345-10-1.566-4-6.05-5.9-10.016-4.3z" fill="#fff"/><path d="M396.568 16108.2l-33.115-4.7-.648 33.5 33.763-28.8z" fill="#F33"/><path d="M402.22 16116.3c-2.101 1.8-5.214 2.2-7.681.6-5.831-3.7-13.28-3.1-18.525 1.4-5.245 4.4-6.957 11.7-4.255 18 1.411 3.3-.127 7.2-3.431 8.6-3.304 1.4-7.123-.2-8.534-3.5-4.948-11.6-1.823-24.9 7.78-33 9.604-8.2 23.215-9.2 33.886-2.5 3.037 1.9 3.957 5.9 2.039 9-.356.5-.794 1-1.279 1.4z" fill="#fff"/><path d="M406.684 16113.8l-39.925 34c-4.372-5.1-6.431-11.4-6.262-17.6.156-6.3 2.504-12.4 6.959-17.2.693-.8 1.44-1.5 2.245-2.2.805-.6 1.633-1.3 2.482-1.8 5.447-3.7 11.878-5 18.041-4.2 6.18.8 12.087 3.9 16.46 9z" fill="#C75600"/><path d="M451.638 16173.8c5.524 7.9 15.247 20.6 37.077 13.8" stroke="#F33" stroke-width="10.4025" stroke-miterlimit="10" stroke-linecap="round"/><path d="M487.432 16164.1c5.381-1.4 10.883 1.8 12.299 7.2 1.103 4.1-1.392 8.4-5.551 9.5l-7.218 1.9 2.652 10.1 21.972-5.8c1.388-.4 2.223-1.8 1.852-3.2l-6.485-24.6c-1.386-5.3-6.677-8.7-11.999-7.5-5.598 1.3-8.972 6.9-7.522 12.4z" fill="#332E2E"/><path d="M496.694 16180.1l.995 3.8c.371 1.4-.459 2.8-1.852 3.2-1.388.4-2.814-.5-3.175-1.9l-.995-3.7c-.371-1.4.459-2.9 1.852-3.2 1.378-.4 2.804.4 3.175 1.8z" fill="#F9CE1D"/><path d="M442.415 16189.3c-1.154 17.4 13.864 27.8 26.448 34.8" stroke="#F33" stroke-width="10.4025" stroke-miterlimit="10" stroke-linecap="round"/><path d="M459.883 16245.8c4.671 3 10.903 1.7 13.912-3 2.335-3.6 1.29-8.5-2.332-10.8l-6.272-4 5.629-8.8 19.106 12.3c1.204.8 1.556 2.4.78 3.6l-13.77 21.4c-2.957 4.6-9.04 6.2-13.73 3.4-4.921-2.9-6.395-9.3-3.323-14.1z" fill="#332E2E"/><path d="M473.647 16233.4l2.113-3.3c.776-1.2.435-2.8-.779-3.6-1.215-.7-2.817-.4-3.589.8l-2.114 3.3c-.776 1.2-.434 2.8.78 3.6 1.204.8 2.813.4 3.589-.8z" fill="#F9CE1D"/><path d="M436.788 16187.5l10.185-15.1-43.278-18.2 33.093 33.3z" fill="#F33"/><path d="M405.635 16143.7c-8.186 9.1-8.253 24.3.86 32.5l13.829 12.4c9.113 8.2 23.971 6.3 32.157-2.9 8.186-9.1 6.835-21.4-2.288-29.6l-13.829-12.4c-9.113-8.2-22.543-9.1-30.729 0z" fill="#F33"/><path d="M404.49 16151.6c16.031-13.6 5.225-59.4-5.202-75.5" stroke="#F33" stroke-width="10.4025" stroke-miterlimit="10" stroke-linecap="round"/><path d="M389.197 16056.5c-5.698 2.2-8.493 8.7-6.243 14.4 2.25 5.7 8.693 8.5 14.391 6.2 5.698-2.2 8.493-8.7 6.243-14.4-2.25-5.7-8.693-8.5-14.391-6.2zM317.189 16118.9c-5.698 2.3-8.493 8.7-6.243 14.4 2.25 5.7 8.693 8.5 14.391 6.2 5.698-2.2 8.493-8.6 6.243-14.3-2.25-5.7-8.693-8.5-14.391-6.3z" fill="#BF8F68"/><path d="M394.225 16085.6l15.786-10.2c2.409-1.6 3.106-4.8 1.543-7.2-1.554-2.4-4.781-3.1-7.187-1.6l-15.785 10.2c-2.41 1.6-3.107 4.8-1.544 7.2 1.558 2.5 4.771 3.1 7.187 1.6z" fill="#fff"/><path d="M404.488 16151.6c-16.031 13.7-55.257-6.4-73.384-17.2" stroke="#F33" stroke-width="10.4025" stroke-miterlimit="10" stroke-linecap="round"/><path d="M330.759 16145.1l9.622-16.1c1.47-2.5.66-5.7-1.799-7.2-2.47-1.4-5.657-.6-7.13 1.8l-9.623 16.2c-1.469 2.5-.659 5.6 1.8 7.1 2.463 1.5 5.661.7 7.13-1.8z" fill="#fff"/><path d="M440.797 16147.4l-29.639 33 8.254 7.4 29.639-33-8.254-7.4z" fill="#332E2E"/><path d="M429.683 16159.8l-7.41 8.2 8.255 7.4 7.409-8.2-8.254-7.4z" fill="#F9CE1D"/><path d="M399.017 16100l-1.266 16c-.117 1.4.339 3 1.38 4.2 2.106 2.5 5.813 2.8 8.275.7 1.237-1.1 1.926-2.5 2.043-4 .793-10-10.432-16.9-10.432-16.9zM370.304 16139.4l-15.992-1.3s5.069 12.2 15.063 13c1.498.1 3.042-.4 4.272-1.4 2.463-2.1 2.759-5.8.653-8.3-1.045-1.2-2.498-1.9-3.996-2z" fill="#BF8F68"/><path d="M378.572 16110.2c-11.396 4.5-16.987 17.4-12.487 28.8 4.5 11.3 17.386 16.9 28.782 12.4 11.397-4.5 16.987-17.3 12.487-28.7-4.5-11.4-17.386-17-28.782-12.5z" fill="#BF8F68"/><path d="M372.51 16121c1.605 1.9 1.376 4.8-.505 6.4-1.892 1.6-4.711 1.3-6.316-.5-1.605-1.9-1.386-4.8.505-6.4 1.875-1.6 4.711-1.3 6.316.5zM386.139 16109.4c1.605 1.9 1.376 4.7-.505 6.3-1.892 1.6-4.711 1.4-6.316-.5-1.605-1.9-1.387-4.7.505-6.3 1.885-1.6 4.711-1.4 6.316.5z" fill="#332E2E"/><path d="M398.35 16115.7c6.683 7.8 5.748 19.6-2.087 26.3-7.834 6.7-19.61 5.7-26.293-2.1l28.38-24.2z" fill="#EF4372"/><path d="M397.458 16112.7c4.131 4.8 6.367 10.5 6.71 15.9.259 4.2-.615 8.2-2.633 11.6-.91 1.4-2.04 2.8-3.419 4-1.413 1.2-2.973 2.1-4.648 2.8-3.643 1.4-7.786 1.6-11.898.6-5.207-1.2-10.384-4.3-14.448-9l30.336-25.9z" fill="#EF4372"/><path d="M401.255 16124.3c1.166 1.4 2.139 2.8 2.913 4.3.259 4.2-.615 8.2-2.633 11.6-.91 1.4-2.04 2.8-3.419 4-1.413 1.2-2.973 2.1-4.648 2.8-3.643 1.4-7.786 1.6-11.898.6-1.294-.9-2.525-2.1-3.643-3.4-2.753-3.2-4.423-6.9-4.98-10.6l18.601-15.9c3.535 1.1 6.958 3.4 9.707 6.6z" fill="#CA4372"/><path d="M372.185 16109c.317 1.6.38 3.3.214 5-.693 6.7-5.124 13.1-11.89 16.1.156-6.2 2.504-12.3 6.959-17.1.693-.8 1.44-1.5 2.245-2.2.78-.6 1.608-1.3 2.472-1.8z" fill="#C75600"/><path d="M390.21 16104.8c-4.09 6.2-11.086 9.6-17.826 9.2-1.679-.1-3.341-.4-4.942-1 .693-.8 1.441-1.5 2.245-2.2.805-.6 1.633-1.3 2.482-1.8 5.452-3.7 11.882-5 18.041-4.2z" fill="#C75600"/><path d="M378.623 16117.5l-3.677 3.1-5.412-7.9 2.11-1.8 6.979 6.6z" fill="#BF8F68"/><path d="M397.857 16132.7c1.39 1.6 1.947 3.7 1.686 5.6-.906 1.4-2.004 2.6-3.294 3.7-1.316 1.1-2.752 2-4.248 2.7-1.966-.1-3.905-.9-5.287-2.5-2.619-3.1-2.258-7.7.817-10.4 3.085-2.6 7.706-2.2 10.326.9z" fill="#C2275D"/><path d="M399.717 16115.7c-.678-1-1.428-2-2.25-3l-30.325 25.8c.832 1 1.705 1.9 2.612 2.7l29.963-25.5zM387.141 16148.2c2.209 0 4.351-.4 6.339-1.2 1.675-.7 3.231-1.6 4.648-2.8 1.369-1.2 2.509-2.5 3.419-4 1.136-1.9 1.906-4 2.318-6.2l-16.724 14.2z" fill="#fff"/><path d="M384.685 16151.8c2.161 5.1 9.76 6.2 13.153-.6.442-.8.501-2.3.108-3.2l-3.171-7.5-12.691 5.4 2.601 5.9z" fill="#EF4372"/><path d="M390.803 16148.3l-2.222-5.3" stroke="#974372" stroke-width="1.7558" stroke-miterlimit="10"/><mask id="g" mask-type="alpha" maskUnits="userSpaceOnUse" x="166" y="15897" width="489" height="489"><path d="M324.862 16300l-74.244-108.3 5.518-140 67.221-56.2 74.747-37.6 182.1 109.9 18.561 42.6-4.515 76.7-142.469 157.6-126.919-44.7z" fill="#000"/></mask><g style="mix-blend-mode:lighten" mask="url(#g)"><path d="M359.396 15981.9c91.239-24.5 185.203 29.7 209.611 120.8 13.476 50.3 3.102 101.5-24.56 141.5-22.219 32.4-55.618 57.2-96.486 68.2-91.239 24.4-185.203-29.7-209.611-120.8-8.306-31-7.465-62.1.73-91 15.862-56.2 59.806-102.5 120.316-118.7z" fill="#80DEEA"/><path d="M440.912 16031.2c1.478 5.5 39.431 156.3 39.431 156.3l172.75 25.5-142.101-280.1-70.08 98.3z" fill="#29B6F6"/><path d="M340.489 16192l-21.813 99.9 144.524 61.7-33.901-131.7" fill="#80DEEA"/><path d="M496.197 16154.8l67.056 71.6-97.749 126.6-34.646-132.6 65.339-65.6z" fill="#81D4FA"/><path d="M410.057 16371.6c-.123-.5.029-1.8.058-3.5 1.992-22.9 19.967-145.4 19.967-145.4l103.757 115.7" fill="url(#paint32_linear)"/><path d="M472.624 16069.4l21.752-100.1-144.524-61.7 32.203 134.9" fill="#81D4FA"/><path d="M340.616 16196.2l89.83 24.1 65.703-65.8-22.943-86.8-90.831-26.8-65.764 65.7 24.005 89.6z" fill="#80DEEA"/><path d="M340.617 16196.2l89.461 26.5 66.119-67.9-22.992-87.1-90.918-27.2-65.675 66.1 24.005 89.6z" fill="url(#paint33_linear)"/><path d="M257.502 16049.8l59.112 56.8 24.005 89.6-19.309 143.3-70.721-148 6.913-141.7z" fill="url(#paint34_linear)"/><path d="M289.17 15920.4c.123.5 93.116 120.1 93.116 120.1l30.666-153.3-123.782 33.2z" fill="url(#paint35_linear)"/><path d="M617.357 16060.4c-.46.1-80.911 19.5-80.911 19.5l62.067 29.7-102.317 45.2 60.939 78.2 93.389-48.8-33.167-123.8z" fill="url(#paint36_linear)"/></g></g></g><defs><linearGradient id="paint0_linear" x1="348.5" y1="191" x2="348.5" y2="1001.95" gradientUnits="userSpaceOnUse"><stop stop-color="#E9F9FD"/><stop offset="1" stop-color="#F4FDFF"/></linearGradient><linearGradient id="paint1_linear" x1="517.636" y1="3143.67" x2="653.34" y2="3222.89" gradientUnits="userSpaceOnUse"><stop offset=".0117586" stop-color="#fff"/><stop offset="1" stop-color="#80DEEA"/></linearGradient><linearGradient id="paint2_linear" x1="558.277" y1="3033.44" x2="667.616" y2="3096.56" gradientUnits="userSpaceOnUse"><stop offset=".0117586" stop-color="#fff"/><stop offset="1" stop-color="#80DEEA"/></linearGradient><linearGradient id="paint3_linear" x1="527.442" y1="3038.73" x2="554.702" y2="3047.05" gradientUnits="userSpaceOnUse"><stop offset=".0117586" stop-color="#fff"/><stop offset="1" stop-color="#80DEEA"/></linearGradient><linearGradient id="paint4_linear" x1="630.727" y1="2943.43" x2="702.504" y2="2978.11" gradientUnits="userSpaceOnUse"><stop offset=".0117586" stop-color="#fff"/><stop offset="1" stop-color="#80DEEA"/></linearGradient><linearGradient id="paint5_linear" x1="703.783" y1="3108.69" x2="669.103" y2="3180.46" gradientUnits="userSpaceOnUse"><stop offset=".0117586" stop-color="#fff"/><stop offset="1" stop-color="#80DEEA"/></linearGradient><linearGradient id="paint6_linear" x1="338.5" y1="17298.6" x2="338.5" y2="16487.6" gradientUnits="userSpaceOnUse"><stop stop-color="#E9F9FD"/><stop offset="1" stop-color="#F4FDFF"/></linearGradient><linearGradient id="paint7_linear" x1="-17.1759" y1="1734.35" x2="21.4302" y2="1953.94" gradientUnits="userSpaceOnUse"><stop offset=".0117586" stop-color="#fff"/><stop offset="1" stop-color="#80DEEA"/></linearGradient><linearGradient id="paint8_linear" x1="139.465" y1="1677.31" x2="171.332" y2="1853.59" gradientUnits="userSpaceOnUse"><stop offset=".0117586" stop-color="#fff"/><stop offset="1" stop-color="#80DEEA"/></linearGradient><linearGradient id="paint9_linear" x1="105.467" y1="1648.77" x2="121.44" y2="1685.92" gradientUnits="userSpaceOnUse"><stop offset=".0117586" stop-color="#fff"/><stop offset="1" stop-color="#80DEEA"/></linearGradient><linearGradient id="paint10_linear" x1="303.36" y1="1673.26" x2="331.602" y2="1782.78" gradientUnits="userSpaceOnUse"><stop offset=".0117586" stop-color="#fff"/><stop offset="1" stop-color="#80DEEA"/></linearGradient><linearGradient id="paint11_linear" x1="191.357" y1="1903.88" x2="81.8327" y2="1932.12" gradientUnits="userSpaceOnUse"><stop offset=".0117586" stop-color="#fff"/><stop offset="1" stop-color="#80DEEA"/></linearGradient><linearGradient id="paint12_linear" x1="207.036" y1="5412.9" x2="363.931" y2="5571.31" gradientUnits="userSpaceOnUse"><stop offset=".0117586" stop-color="#fff"/><stop offset="1" stop-color="#80DEEA"/></linearGradient><linearGradient id="paint13_linear" x1="303.217" y1="5276.74" x2="429.889" y2="5403.41" gradientUnits="userSpaceOnUse"><stop offset=".0117586" stop-color="#fff"/><stop offset="1" stop-color="#80DEEA"/></linearGradient><linearGradient id="paint14_linear" x1="259.014" y1="5272.67" x2="293.318" y2="5294.09" gradientUnits="userSpaceOnUse"><stop offset=".0117586" stop-color="#fff"/><stop offset="1" stop-color="#80DEEA"/></linearGradient><linearGradient id="paint15_linear" x1="435.569" y1="5179.98" x2="521.206" y2="5253.87" gradientUnits="userSpaceOnUse"><stop offset=".0117586" stop-color="#fff"/><stop offset="1" stop-color="#80DEEA"/></linearGradient><linearGradient id="paint16_linear" x1="475.005" y1="5433.31" x2="401.117" y2="5518.94" gradientUnits="userSpaceOnUse"><stop offset=".0117586" stop-color="#fff"/><stop offset="1" stop-color="#80DEEA"/></linearGradient><linearGradient id="paint17_linear" x1="586.435" y1="7726.02" x2="912.087" y2="7403.49" gradientUnits="userSpaceOnUse"><stop offset=".0117586" stop-color="#fff"/><stop offset="1" stop-color="#80DEEA"/></linearGradient><linearGradient id="paint18_linear" x1="306.536" y1="7528.29" x2="566.936" y2="7267.89" gradientUnits="userSpaceOnUse"><stop offset=".0117586" stop-color="#fff"/><stop offset="1" stop-color="#80DEEA"/></linearGradient><linearGradient id="paint19_linear" x1="298.163" y1="7619.17" x2="342.202" y2="7548.65" gradientUnits="userSpaceOnUse"><stop offset=".0117586" stop-color="#fff"/><stop offset="1" stop-color="#80DEEA"/></linearGradient><linearGradient id="paint20_linear" x1="107.635" y1="7256.22" x2="259.528" y2="7080.17" gradientUnits="userSpaceOnUse"><stop offset=".0117586" stop-color="#fff"/><stop offset="1" stop-color="#80DEEA"/></linearGradient><linearGradient id="paint21_linear" x1="628.394" y1="7175.15" x2="804.439" y2="7327.04" gradientUnits="userSpaceOnUse"><stop offset=".0117586" stop-color="#fff"/><stop offset="1" stop-color="#80DEEA"/></linearGradient><linearGradient id="paint22_linear" x1="197.144" y1="9762.64" x2="389.694" y2="9875.04" gradientUnits="userSpaceOnUse"><stop offset=".0117586" stop-color="#fff"/><stop offset="1" stop-color="#80DEEA"/></linearGradient><linearGradient id="paint23_linear" x1="254.81" y1="9606.23" x2="409.95" y2="9695.8" gradientUnits="userSpaceOnUse"><stop offset=".0117586" stop-color="#fff"/><stop offset="1" stop-color="#80DEEA"/></linearGradient><linearGradient id="paint24_linear" x1="211.057" y1="9613.73" x2="249.737" y2="9625.55" gradientUnits="userSpaceOnUse"><stop offset=".0117586" stop-color="#fff"/><stop offset="1" stop-color="#80DEEA"/></linearGradient><linearGradient id="paint25_linear" x1="357.61" y1="9478.51" x2="459.453" y2="9527.72" gradientUnits="userSpaceOnUse"><stop offset=".0117586" stop-color="#fff"/><stop offset="1" stop-color="#80DEEA"/></linearGradient><linearGradient id="paint26_linear" x1="461.267" y1="9713" x2="412.061" y2="9814.84" gradientUnits="userSpaceOnUse"><stop offset=".0117586" stop-color="#fff"/><stop offset="1" stop-color="#80DEEA"/></linearGradient><linearGradient id="paint27_linear" x1="-3.21889" y1="12942.7" x2="35.3873" y2="13162.3" gradientUnits="userSpaceOnUse"><stop offset=".0117586" stop-color="#fff"/><stop offset="1" stop-color="#80DEEA"/></linearGradient><linearGradient id="paint28_linear" x1="153.422" y1="12885.7" x2="185.29" y2="13061.9" gradientUnits="userSpaceOnUse"><stop offset=".0117586" stop-color="#fff"/><stop offset="1" stop-color="#80DEEA"/></linearGradient><linearGradient id="paint29_linear" x1="119.425" y1="12857.1" x2="135.397" y2="12894.3" gradientUnits="userSpaceOnUse"><stop offset=".0117586" stop-color="#fff"/><stop offset="1" stop-color="#80DEEA"/></linearGradient><linearGradient id="paint30_linear" x1="317.317" y1="12881.6" x2="345.559" y2="12991.1" gradientUnits="userSpaceOnUse"><stop offset=".0117586" stop-color="#fff"/><stop offset="1" stop-color="#80DEEA"/></linearGradient><linearGradient id="paint31_linear" x1="205.314" y1="13112.2" x2="95.7897" y2="13140.5" gradientUnits="userSpaceOnUse"><stop offset=".0117586" stop-color="#fff"/><stop offset="1" stop-color="#80DEEA"/></linearGradient><linearGradient id="paint32_linear" x1="397.409" y1="16303.1" x2="613.046" y2="16246.4" gradientUnits="userSpaceOnUse"><stop offset=".0117586" stop-color="#fff"/><stop offset="1" stop-color="#80DEEA"/></linearGradient><linearGradient id="paint33_linear" x1="327.586" y1="16151.7" x2="500.623" y2="16105.3" gradientUnits="userSpaceOnUse"><stop offset=".0117586" stop-color="#fff"/><stop offset="1" stop-color="#80DEEA"/></linearGradient><linearGradient id="paint34_linear" x1="301.957" y1="16187.9" x2="337.662" y2="16168.9" gradientUnits="userSpaceOnUse"><stop offset=".0117586" stop-color="#fff"/><stop offset="1" stop-color="#80DEEA"/></linearGradient><linearGradient id="paint35_linear" x1="309.969" y1="15988.7" x2="416.776" y2="15951.5" gradientUnits="userSpaceOnUse"><stop offset=".0117586" stop-color="#fff"/><stop offset="1" stop-color="#80DEEA"/></linearGradient><linearGradient id="paint36_linear" x1="549.071" y1="16081.2" x2="586.29" y2="16188" gradientUnits="userSpaceOnUse"><stop offset=".0117586" stop-color="#fff"/><stop offset="1" stop-color="#80DEEA"/></linearGradient><clipPath id="clip0"><path fill="#fff" transform="matrix(-1 0 0 1 692 0)" d="M0 0h692v17530H0z"/></clipPath><clipPath id="clip1"><path fill="#fff" transform="rotate(30.436 -5107.82615591 2565.51749869)" d="M0 0h153.88v190.99H0z"/></clipPath></defs></svg>