<?xml version="1.0" encoding="utf-8"?>
<!-- Generator: Adobe Illustrator 23.0.4, SVG Export Plug-In . SVG Version: 6.00 Build 0)  -->
<svg version="1.1" id="Ice_x5F_Base" xmlns="http://www.w3.org/2000/svg" xmlns:xlink="http://www.w3.org/1999/xlink" x="0px"
	 y="0px" viewBox="0 0 200 200" style="enable-background:new 0 0 200 200;" xml:space="preserve">
<style type="text/css">
	.st0{fill:#587E9C;}
	.st1{fill:#4AD3F6;}
	.st2{fill:#00C1F2;}
</style>
<path class="st0" d="M200,6.4V62c0,3,0,12.5,0,12.5V112c0,3,0,12.5,0,12.5V195c0,2-0.1,2.5-1.5,3.8c-1.3,1.2-3.7,1.2-5.5,1.2H3.8
	c-1.1,0-2.2-0.5-2.9-1.4c-0.5-0.7-0.8-1.5-0.8-2.4v-0.1l0.1-2.1L1,164.5L0,150h3l0.8,12.7L3.1,194c0,0,0,0,0,0
	c0.9,2.4,3.2,4,5.7,3.9l15-0.4L50,198l23.6-1.5l26.4,1v0l26.4-0.5l19.4,0.5h4.2l26.4-0.5l15.6,0.4c2.3,0.1,4.4-1.3,5.2-3.5l0.1-0.2
	l0.7-12.4V150h-0.1c0,0-0.5-19.8-0.6-21l0.6-5l0.4-24h-0.4c0,0-0.5-19.8-0.6-21l0.6-5l0.4-24h0l0.1-18.9l1.1-24.6
	c0-1.4,0.3-3.2-0.5-4.6C200,3.2,200,5.8,200,6.4z"/>
<path class="st1" d="M4,121.1L3,150l0.8,12.7L3.1,194c0,0,0,0,0,0h-3L1,164.5L0,150V50l0.6-14.4L0,6.9c0-0.7,0.2-1.4,0.6-2
	C0.5,5.4,1.3,5.7,1.3,6.5l1.1,26.8L2.6,50L4,71.1L3,100L4,121.1z"/>
<path class="st2" d="M199,1.9c-0.1-0.2-0.3-0.3-0.5-0.4c-0.8-0.8-1.5-1.2-2.4-1.4c0.4,0.1,0.9,0.2,1.3,0.4
	C198.1,0.9,198.6,1.4,199,1.9z"/>
<path class="st2" d="M199.5,6.5l-1.1,24.6L198.3,50h0l-0.4,24l-0.6,5c0.1,1.2,0.6,21,0.6,21h0.4l-0.4,24l-0.6,5
	c0.1,1.2,0.6,21,0.6,21h0.1v31.3l-0.7,12.4l-0.1,0.2c-0.8,2.2-2.9,3.6-5.2,3.5l-15.6-0.4l-26.4,0.5h-4.2l-19.4-0.5l-26.4,0.5v0
	l-26.4-1L50,198l-26.2-0.5l-15,0.4C6.3,198,4,196.4,3.1,194l0.7-31.2L3,150l1-28.9L3,100l1-28.9L2.6,50L2.4,33.3L1.3,6.5
	c0-1-1.1-1.2-0.5-1.9L2,1.5C2.7,0.8,5-0.1,6,0l12.7,1.3H19l23-0.9h1.6L50,0.5v0h4.2L67,1.2l2.3,0.1L71,1.1l5.1-0.4L83.4,0h0.9l8,0.3
	H93l7,0.2l7-0.4l3.9-0.1c3.2-0.1,6.4,0.2,9.6,0.9l5.9,0.8c3.1,0,6.3-0.5,9.4-0.9l10-0.5l4.2,0.2L165.7,1h6.6l8.8-0.3L194.9,0
	c0.8,0,1.6,0.1,2.4,0.5C200,1.8,199.5,4.5,199.5,6.5z"/>
</svg>
