<?xml version="1.0" encoding="utf-8"?>
<!-- Generator: Adobe Illustrator 23.0.4, SVG Export Plug-In . SVG Version: 6.00 Build 0)  -->
<svg version="1.1" id="shine" xmlns="http://www.w3.org/2000/svg" xmlns:xlink="http://www.w3.org/1999/xlink" x="0px" y="0px"
	 viewBox="0 0 94.4 94.4" style="enable-background:new 0 0 94.4 94.4;" xml:space="preserve">
<style type="text/css">
	.st0{fill:#00C1F2;}
	.st1{opacity:0.22;fill:url(#SVGID_1_);enable-background:new    ;}
	.st2{opacity:0.22;fill:url(#SVGID_2_);enable-background:new    ;}
</style>
<path class="st0" d="M199,1.9c-0.1-0.2-0.3-0.3-0.5-0.4c-0.8-0.8-1.5-1.2-2.4-1.4c0.4,0.1,0.9,0.2,1.3,0.4
	C198.1,0.9,198.6,1.4,199,1.9z"/>
<g>
	
		<linearGradient id="SVGID_1_" gradientUnits="userSpaceOnUse" x1="21.5974" y1="203.2953" x2="21.5974" y2="159.4277" gradientTransform="matrix(1 0 0 -1 0 202)">
		<stop  offset="0" style="stop-color:#F9F9F9"/>
		<stop  offset="1" style="stop-color:#F9F9F9;stop-opacity:0"/>
	</linearGradient>
	<path class="st1" d="M41.7,0.1L24.9,40.9H1.4L17.8,1l0.4,0.1L24.9,1L32,0.5h0.9L41.7,0.1z"/>
	<linearGradient id="SVGID_2_" gradientUnits="userSpaceOnUse" x1="69.5795" y1="-7.0452" x2="33.8079" y2="100.9999">
		<stop  offset="0" style="stop-color:#F9F9F9"/>
		<stop  offset="1" style="stop-color:#F9F9F9;stop-opacity:0"/>
	</linearGradient>
	<polygon class="st2" points="91.2,0.1 70.9,49.8 53,93.8 12.1,93.8 30.1,49.8 48.9,3.6 50.2,0.3 53.1,0.3 65.9,1 68.2,1.1 
		69.9,0.9 75,0.5 82.3,-0.2 83.2,-0.2 	"/>
</g>
</svg>
