<svg xmlns="http://www.w3.org/2000/svg" viewBox="0 0 100.144 100.144" enable-background="new 0 0 100.144 100.144"><g><circle cx="50.072" cy="50.072" r="50.072" fill="#B756C5"/><g><path opacity=".1" d="M25.513 71.692H74.63v7.986H25.514z"/><path d="M50.138 19.545c-11.284 0-20.432 9.148-20.432 20.432v32.936H70.57V39.977c0-11.284-9.148-20.432-20.432-20.432z" fill="#FFC805"/><path d="M50.138 19.545c-11.284 0-20.432 9.148-20.432 20.432v7.987c0-11.284 9.148-20.432 20.432-20.432 11.284 0 20.432 9.148 20.432 20.432v-7.987c0-11.284-9.148-20.432-20.432-20.432z" opacity=".1"/><path d="M73.65 75.992H26.627V39.977c0-12.963 10.548-23.51 23.51-23.51S73.65 27.013 73.65 39.976v36.015zm-40.864-6.16H67.49V39.978c0-9.568-7.784-17.352-17.352-17.352-9.568 0-17.352 7.784-17.352 17.352v29.856z" fill="#845930"/><path fill="#B07644" d="M25.513 68.92H74.63v7.985H25.514z"/><path d="M45.59 53.698V52.23c0-1.268.318-2.37.956-3.31.637-.937 1.803-1.935 3.497-2.992 1.632-.99 2.708-1.797 3.23-2.418.52-.62.78-1.315.78-2.08 0-.86-.374-1.514-1.12-1.964-.746-.448-1.787-.674-3.124-.674-2.332 0-4.99.648-7.975 1.942l-2.54-4.34c3.465-1.652 7.14-2.48 11.027-2.48 3.2 0 5.746.655 7.635 1.964 1.89 1.308 2.833 3.052 2.833 5.232 0 1.454-.39 2.71-1.166 3.766-.777 1.058-2.254 2.247-4.43 3.568-1.492.94-2.437 1.65-2.833 2.14-.394.49-.593 1.13-.593 1.923v1.19H45.59zm-.746 6.78c0-1.11.35-1.95 1.05-2.518.7-.568 1.717-.853 3.054-.853 1.29 0 2.288.29 2.996.872.707.58 1.06 1.413 1.06 2.497 0 1.044-.356 1.866-1.07 2.468-.716.6-1.71.9-2.985.9-1.307 0-2.317-.293-3.032-.88-.717-.588-1.074-1.417-1.074-2.487z" fill="#F8F7F3"/></g></g></svg>