<svg xmlns="http://www.w3.org/2000/svg" viewBox="0 0 100.144 100.144" enable-background="new 0 0 100.144 100.144"><circle cx="50.072" cy="50.072" r="50.072" fill="#FFD300"/><path d="M71.326 37.633h.09-41.682c-3.524 0-7.033 3.704-7.033 7.227v23.074c0 3.524 3.51 4.7 7.035 4.7H41.83c.713-3 4.185-7.006 8.37-7.006s7.66 4.005 8.37 7.005h14.59-1.83c3.523 0 5.374-1.175 5.374-4.7v-23.07c0-3.524-1.852-7.228-5.376-7.228z" fill="#B757C5"/><circle cx="49.919" cy="45.247" r="7.899" fill="#B757C5"/><path d="M71.326 37.633h.09-41.682c-3.524 0-7.033 3.704-7.033 7.227v23.074c0 3.524 3.51 4.7 7.035 4.7H41.83c.713-3 4.185-7.006 8.37-7.006s7.66 4.005 8.37 7.005h14.59-1.83c3.523 0 5.374-1.175 5.374-4.7v-23.07c0-3.524-1.852-7.228-5.376-7.228z" opacity=".2"/><circle cx="49.919" cy="45.247" r="7.899"/><path d="M71.326 29.633h.09-41.682c-3.524 0-7.033 3.864-7.033 7.388v23.076c0 3.524 3.51 6.538 7.035 6.538H41.83c.713-5 4.185-7.005 8.37-7.005s7.66 2.004 8.37 7.004h14.59-1.83c3.523 0 5.374-3.014 5.374-6.538V37.02c0-3.522-1.852-7.387-5.376-7.387z" fill="#B757C5"/><circle cx="49.847" cy="30.867" r="7.899" fill="#B757C5"/><path d="M39.04 53.71l-4.453-5.8 4.454-5.8h4.04l-4.452 5.8 4.454 5.8h-4.04zm9.552.416h-3.854l7.19-12.41h3.832l-7.168 12.41zm8.615-14.896h-3.833l-2.866 4.95-7.19 12.41h3.854l2.858-4.95h.01zm4.25 14.48h-4.04l4.454-5.8-4.452-5.8h4.04l4.454 5.8-4.453 5.8z" fill="#fff"/></svg>