<?xml version="1.0" encoding="utf-8"?>
<!-- Generator: Adobe Illustrator 18.0.0, SVG Export Plug-In . SVG Version: 6.00 Build 0)  -->
<!DOCTYPE svg PUBLIC "-//W3C//DTD SVG 1.1//EN" "http://www.w3.org/Graphics/SVG/1.1/DTD/svg11.dtd">
<svg version="1.1" id="Layer_1" xmlns="http://www.w3.org/2000/svg" xmlns:xlink="http://www.w3.org/1999/xlink" x="0px" y="0px"
	 viewBox="0 90 612 612" enable-background="new 0 90 612 612" xml:space="preserve">
<g id="_x31_0-translations">
	<circle fill="#FFD300" cx="306" cy="396" r="306"/>
	<polygon fill="#D81B60" points="251.4,594.6 228.9,575.7 210.9,594.6 210.9,377.9 251.4,377.9 	"/>
	<path opacity="0.2" fill="#424242" enable-background="new    " d="M403.8,557.2h-214V220.7h214c14.7,0,26.7,11.9,26.7,26.7v283.2
		C430.5,545.3,418.5,557.2,403.8,557.2z"/>
	<path fill="#802B83" d="M395.5,546.2h-214V209.7h214c14.7,0,26.7,11.9,26.7,26.7v283.2C422.2,534.2,410.2,546.2,395.5,546.2z"/>
	<rect x="181.5" y="209.7" fill="#9B51A0" width="29.4" height="336.5"/>
	<rect x="246.9" y="282.3" fill="#FFFFFF" width="131" height="15.1"/>
	<rect x="265.6" y="310.8" fill="#FFFFFF" width="93.5" height="15.1"/>
</g>
<g id="Layer_1_1_">
</g>
</svg>
