<?xml version="1.0" encoding="iso-8859-1"?>
<!-- Generator: Adobe Illustrator 18.0.0, SVG Export Plug-In . SVG Version: 6.00 Build 0)  -->
<!DOCTYPE svg PUBLIC "-//W3C//DTD SVG 1.1//EN" "http://www.w3.org/Graphics/SVG/1.1/DTD/svg11.dtd">
<svg version="1.1" xmlns="http://www.w3.org/2000/svg" xmlns:xlink="http://www.w3.org/1999/xlink" x="0px" y="0px"
	 viewBox="0 0 100.144 100.144" style="enable-background:new 0 0 100.144 100.144;" xml:space="preserve">
<g id="_x31_-racer">
	<circle style="fill:#B756C5;" cx="50.072" cy="50.072" r="50.072"/>
	<g>
		<rect x="33.864" y="25.822" style="fill:#FFFFFF;" width="21.25" height="33.5"/>
		<rect x="33.864" y="25.822" style="fill:#404040;" width="7.083" height="6.7"/>
		<rect x="40.947" y="25.822" style="fill:#FFFFFF;" width="7.083" height="6.7"/>
		<rect x="48.03" y="25.822" style="fill:#404040;" width="7.083" height="6.7"/>
		<rect x="33.864" y="32.522" style="fill:#FFFFFF;" width="7.083" height="6.7"/>
		<rect x="40.947" y="32.522" style="fill:#404040;" width="7.083" height="6.7"/>
		<rect x="48.03" y="32.522" style="fill:#FFFFFF;" width="7.083" height="6.7"/>
		<rect x="33.864" y="39.223" style="fill:#404040;" width="7.083" height="6.699"/>
		<rect x="40.947" y="39.223" style="fill:#FFFFFF;" width="7.083" height="6.699"/>
		<rect x="48.03" y="39.223" style="fill:#404040;" width="7.083" height="6.699"/>
		<rect x="33.864" y="45.922" style="fill:#FFFFFF;" width="7.083" height="6.7"/>
		<rect x="40.947" y="45.922" style="fill:#404040;" width="7.083" height="6.7"/>
		<rect x="48.03" y="45.922" style="fill:#FFFFFF;" width="7.083" height="6.7"/>
		<rect x="33.864" y="52.622" style="fill:#404040;" width="7.083" height="6.7"/>
		<rect x="40.947" y="52.622" style="fill:#FFFFFF;" width="7.083" height="6.7"/>
		<rect x="48.03" y="52.622" style="fill:#404040;" width="7.083" height="6.7"/>
		<line style="fill:none;stroke:#FFFFFF;stroke-width:3;stroke-miterlimit:10;" x1="32.364" y1="23.322" x2="32.364" y2="78.822"/>
		<rect x="55.114" y="21.322" style="fill:#FFFFFF;" width="21.25" height="33.5"/>
		<rect x="55.114" y="21.322" style="fill:#FFFFFF;" width="7.083" height="6.7"/>
		<rect x="62.197" y="21.322" style="fill:#404040;" width="7.083" height="6.7"/>
		<rect x="69.28" y="21.322" style="fill:#FFFFFF;" width="7.083" height="6.7"/>
		<rect x="55.114" y="28.022" style="fill:#404040;" width="7.083" height="6.7"/>
		<rect x="62.197" y="28.022" style="fill:#FFFFFF;" width="7.083" height="6.7"/>
		<rect x="69.28" y="28.022" style="fill:#404040;" width="7.083" height="6.7"/>
		<rect x="55.114" y="34.723" style="fill:#FFFFFF;" width="7.083" height="6.699"/>
		<rect x="62.197" y="34.723" style="fill:#404040;" width="7.083" height="6.699"/>
		<rect x="69.28" y="34.723" style="fill:#FFFFFF;" width="7.083" height="6.699"/>
		<rect x="55.114" y="41.422" style="fill:#404040;" width="7.083" height="6.7"/>
		<rect x="62.197" y="41.422" style="fill:#FFFFFF;" width="7.083" height="6.7"/>
		<rect x="69.28" y="41.422" style="fill:#404040;" width="7.083" height="6.7"/>
		<rect x="55.114" y="48.122" style="fill:#FFFFFF;" width="7.083" height="6.7"/>
		<rect x="62.197" y="48.122" style="fill:#404040;" width="7.083" height="6.7"/>
		<rect x="69.28" y="48.122" style="fill:#FFFFFF;" width="7.083" height="6.7"/>
	</g>
</g>
<g id="Layer_1">
</g>
</svg>
