<svg xmlns="http://www.w3.org/2000/svg" xmlns:xlink="http://www.w3.org/1999/xlink" viewBox="0 90 612 612" enable-background="new 0 90 612 612"><circle fill="#B856C5" cx="306" cy="396" r="306"/><path opacity=".1" enable-background="new" d="M321 185c-44 .3-79.4 36.1-79.1 80.1.2 28.5 15.4 53.4 38 67.3-.8 3.8-1.2 7.8-.9 11.9l16.8 195.4c1.1 12.6 7.8 23 16.9 27.6-.6 12.1-1.7 25-3.8 32-1.5 5.2 1.4 10.6 6.6 12.2 2.8.8 5.7.3 7.9-1.1 2-1.2 3.5-3.2 4.2-5.6 2.7-9.1 4-24 4.6-37 9.8-4.3 17-15.1 18-28.4l14.4-195.6c.3-4.2-.1-8.2-1-11.9 22.5-14.2 37.4-39.2 37.2-67.8 0-43.9-35.8-79.4-79.8-79.1z"/><path fill="#333" d="M308.7 605.5c-2.3 1.4-5.2 1.9-7.9 1.1-5.2-1.5-8.2-7-6.6-12.2 3.8-12.8 4.4-45.2 4.3-56.6 0-5.4 4.3-9.8 9.7-9.9 5.4 0 9.8 4.3 9.9 9.7 0 4.5.1 44.4-5.1 62.2-.8 2.6-2.4 4.5-4.3 5.7z"/><path fill="#505050" d="M308.4 565c14.1-.1 25.9-13.3 27.1-30.4L350 338.9c1.5-19.7-11.3-36.7-27.5-36.6l-31.2.2c-16.2.1-28.8 17.3-27.1 37L281 534.9c1.4 17.1 13.3 30.1 27.4 30.1z"/><defs><path id="a" d="M308.4 565c14.1-.1 25.9-13.3 27.1-30.4L350 338.9c1.5-19.7-11.3-36.7-27.5-36.6l-31.2.2c-16.2.1-28.8 17.3-27.1 37L281 534.9c1.4 17.1 13.3 30.1 27.4 30.1z"/></defs><clipPath id="b"><use xlink:href="#a" overflow="visible"/></clipPath><path clip-path="url(#b)" fill="#8C8C8C" d="M362.4 380.1c-.3.2-.6.3-.8.5-32.1 15.9-80.9 19.7-112.2-9.6-4-3.7-4.2-9.9-.5-13.9 3.7-3.9 9.9-4.2 13.9-.5 17.2 16.1 52.7 24.9 90.1 6.4 4.9-2.4 10.7-.4 13.1 4.4 2.3 4.6.7 10.1-3.6 12.7z"/><path opacity=".1" enable-background="new" d="M322.4 302.3h-6.8c8.7 6.4 14.3 18.3 13.3 31.7l-14.4 195.6c-1.1 14.8-10 26.6-21.4 29.6 4.4 3.6 9.7 5.8 15.4 5.7 14.1-.1 25.9-13.3 27.1-30.4L350 338.9c1.4-19.7-11.4-36.7-27.6-36.6z"/><circle fill="#333" cx="306.6" cy="259.7" r="79.6"/><path opacity=".1" enable-background="new" d="M326.6 182.7c20.7 14.3 34.3 38 34.5 65.1.3 44-35.2 79.8-79.1 80.1-7.1 0-13.9-.9-20.4-2.6 12.9 8.9 28.6 14.1 45.6 14 44-.3 79.4-36.1 79.1-80.1-.3-36.9-25.7-67.7-59.7-76.5z"/></svg>