<svg xmlns="http://www.w3.org/2000/svg" viewBox="0.4 56.9 149.6 149.6" enable-background="new 0.4 56.9 149.6 149.6"><circle fill="#83CE00" cx="75.2" cy="131.7" r="74.8"/><ellipse fill="#fff" cx="62.7" cy="148.1" rx="29" ry="29.2"/><ellipse fill="#fff" cx="62.7" cy="148.1" rx="29" ry="29.2"/><path fill="#fff" d="M52.2 108h20.5v14.9H52.2z"/><path opacity=".09" d="M64.4 108h8.2v14.9h-8.2z"/><ellipse fill="#fff" cx="62.7" cy="148.1" rx="29" ry="29.2"/><path fill="#333" d="M62.8 106.8c-2.8 0-5.2-2.3-5.2-5.2 0-2.9 2.3-5.2 5.2-5.2 2.8 0 5.2 2.3 5.2 5.2 0 2.9-2.3 5.2-5.2 5.2zm0-9c-2.1 0-3.7 1.7-3.7 3.8 0 2.1 1.7 3.8 3.7 3.8 2.1 0 3.7-1.7 3.7-3.8.1-2.1-1.6-3.8-3.7-3.8z"/><path fill="#FFDF00" d="M63.3 99.2h-.4c0-4.7-1.1-8.7-2-12.2-.7-2.6-1.3-4.8-1.3-6.7 0-1.5 1.5-2.7 3.3-2.7 1.8 0 3.3 1.2 3.3 2.7 0 3.4-.6 6.4-1.3 9.7-.6 2.6-1.2 5.6-1.6 9.2zM62.9 78c-1.6 0-2.8 1-2.8 2.3 0 1.9.6 4.1 1.3 6.6.8 2.9 1.6 6 1.9 9.7.4-2.5.8-4.7 1.2-6.6.7-3.4 1.3-6.2 1.3-9.6-.1-1.4-1.3-2.4-2.9-2.4z"/><path fill="#B757C5" d="M59.6 118.8c-14.6 1.5-26.1 13.9-26.1 29.1v.9l32.1 28.4c2.9-.3 5.6-1 8.1-2.1-.2-.6-.8-1.4-1.3-1.9l-12.9-11.4c1 0 1.9-.5 2.6-1.2 1.4-1.5 1.2-3.9-.3-5.3l-1-.9h.5c1.1 0 2.1-.4 2.8-1.3 1.3-1.6 1.2-3.9-.4-5.3l-2.6-2.3c1 0 2.1-.5 2.8-1.4.5-.6.7-1.2.8-1.9l5.2 4.5c.7.6 1.6.9 2.5.9 1 0 2.1-.4 2.8-1.3 1.4-1.6 1.2-3.9-.4-5.3l-1.7-1.5h.5c1 0 2.1-.4 2.8-1.3 1.4-1.5 1.2-3.9-.3-5.3l-16.5-14.1z"/><path opacity=".1" d="M62.7 118.9c-1.6 0-3.1.1-4.6.4h.3c13.4 0 24.3 11 24.3 24.5s-10.9 24.5-24.3 24.5-24.3-11-24.3-24.5v-.9c-.3 1.7-.5 3.4-.5 5.2 0 16.1 13 29.2 29 29.2s29-13.1 29-29.2c.1-16.2-12.9-29.2-28.9-29.2z"/><ellipse fill="none" cx="62.7" cy="148.1" rx="29" ry="29.2"/><path fill="#B757C5" d="M71.2 176.2l-.8-.8c-1.2-1.2-1.3-3-.4-4.3l7.6-13.1 11 11-13.1 7.6c-1.3 1-3.2.8-4.3-.4zM122.466 111.165l13.003 13.018-46.766 46.712L75.7 157.877z"/><path fill="#D571E3" d="M118.716 114.91l13.004 13.018-39.267 39.222-13.003-13.018z"/><path fill="#B757C5" d="M113.504 120.103l13.003 13.018-1.557 1.555-13.003-13.018zM116.095 117.477l13.003 13.018-1.556 1.555-13.004-13.018zM83.686 149.91l13.003 13.017-1.557 1.554-13.004-13.017zM86.277 147.283L99.28 160.3l-1.556 1.556-13.003-13.018zM101.3 150.3l-5.1-5.1c-1.1-1.1-1.1-2.9 0-4l12.2-12.1c1.1-1.1 2.9-1.1 4 0l5.1 5.1c1.1 1.1 1.1 2.9 0 4l-12.2 12.1c-1.1 1.1-2.9 1.1-4 0z"/><path opacity=".15" d="M82.22 164.422l-6.433-6.435 40.375-40.375 6.435 6.434zM79 161.1l-2-2-7 12c-.9 1.4-.8 3.2.4 4.3l.8.8c.2.2.4.4.7.5-.7-1.1-.6-2.5.1-3.7l7-11.9z"/></svg>