<?xml version="1.0" encoding="iso-8859-1"?>
<!-- Generator: Adobe Illustrator 18.0.0, SVG Export Plug-In . SVG Version: 6.00 Build 0)  -->
<!DOCTYPE svg PUBLIC "-//W3C//DTD SVG 1.1//EN" "http://www.w3.org/Graphics/SVG/1.1/DTD/svg11.dtd">
<svg version="1.1" xmlns="http://www.w3.org/2000/svg" xmlns:xlink="http://www.w3.org/1999/xlink" x="0px" y="0px"
	 viewBox="0 0 100.144 100.144" style="enable-background:new 0 0 100.144 100.144;" xml:space="preserve">
<g id="_x39_-codelab">
	<circle style="fill:#FFD300;" cx="50.072" cy="50.072" r="50.072"/>
	<path style="fill:#B757C5;" d="M71.326,37.633h0.091H43.59H29.734c-3.524,0-7.033,3.704-7.033,7.227v23.074
		c0,3.524,3.509,4.699,7.033,4.699h12.097c0.712-3,4.184-7.005,8.37-7.005s7.658,4.005,8.37,7.005h14.587h-1.831
		c3.524,0,5.375-1.175,5.375-4.699V44.861C76.702,41.337,74.85,37.633,71.326,37.633z"/>
	<circle style="fill:#B757C5;" cx="49.919" cy="45.247" r="7.899"/>
	<path style="opacity:0.2;" d="M71.326,37.633h0.091H43.59H29.734c-3.524,0-7.033,3.704-7.033,7.227v23.074
		c0,3.524,3.509,4.699,7.033,4.699h12.097c0.712-3,4.184-7.005,8.37-7.005s7.658,4.005,8.37,7.005h14.587h-1.831
		c3.524,0,5.375-1.175,5.375-4.699V44.861C76.702,41.337,74.85,37.633,71.326,37.633z"/>
	<circle cx="49.919" cy="45.247" r="7.899"/>
	<path style="fill:#B757C5;" d="M71.326,29.633h0.091H43.59H29.734c-3.524,0-7.033,3.864-7.033,7.388v23.074
		c0,3.524,3.509,6.538,7.033,6.538h12.097c0.712-5,4.184-7.005,8.37-7.005s7.658,2.005,8.37,7.005h14.587h-1.831
		c3.524,0,5.375-3.014,5.375-6.538V37.021C76.702,33.498,74.85,29.633,71.326,29.633z"/>
	<circle style="fill:#B757C5;" cx="49.847" cy="30.867" r="7.899"/>
	<path style="fill:#FFFFFF;" d="M39.041,53.711l-4.454-5.801l4.454-5.801h4.04l-4.454,5.801l4.454,5.801H39.041z"/>
	<path style="fill:#FFFFFF;" d="M48.592,54.126h-3.854l7.189-12.41h3.833L48.592,54.126z"/>
	<polygon style="fill:#FFFFFF;" points="57.207,39.231 53.374,39.231 50.508,44.179 50.508,44.179 43.319,56.589 47.172,56.589 
		50.03,51.641 50.039,51.641 	"/>
	<path style="fill:#FFFFFF;" d="M61.457,53.711h-4.04l4.454-5.801l-4.454-5.801h4.04l4.454,5.801L61.457,53.711z"/>
</g>
<g id="Layer_1">
</g>
</svg>
