<?xml version="1.0" encoding="iso-8859-1"?>
<!-- Generator: Adobe Illustrator 18.0.0, SVG Export Plug-In . SVG Version: 6.00 Build 0)  -->
<!DOCTYPE svg PUBLIC "-//W3C//DTD SVG 1.1//EN" "http://www.w3.org/Graphics/SVG/1.1/DTD/svg11.dtd">
<svg version="1.1" xmlns="http://www.w3.org/2000/svg" xmlns:xlink="http://www.w3.org/1999/xlink" x="0px" y="0px"
	 viewBox="0 0 100.144 100.144" style="enable-background:new 0 0 100.144 100.144;" xml:space="preserve">
<g id="_x32_4-tracker">
	<circle style="fill:#E62F22;" cx="50.072" cy="50.072" r="50.072"/>
	<circle style="fill:#A6A499;" cx="50.072" cy="53.726" r="24.178"/>
	<circle style="fill:#A6A499;" cx="50.151" cy="21.509" r="3.09"/>
	<path style="fill:#A6A499;" d="M45.112,17.278c0-2.778,2.26-5.038,5.039-5.038c2.779,0,5.039,2.26,5.039,5.038
		c0,2.779-2.26,5.039-5.039,5.039C47.372,22.317,45.112,20.057,45.112,17.278z M46.348,17.278c0,2.097,1.706,3.802,3.802,3.802
		c2.096,0,3.802-1.705,3.802-3.802c0-2.096-1.706-3.802-3.802-3.802C48.054,13.476,46.348,15.182,46.348,17.278z"/>
	<rect x="48.96" y="22.718" style="fill:#A6A499;" width="2.382" height="5.643"/>
	<circle style="fill:#D0CEC1;" cx="50.072" cy="50.932" r="24.178"/>
	<circle style="fill:#A6A499;" cx="50.072" cy="50.933" r="19.725"/>
	<path style="fill:#A6A499;" d="M64.019,64.882c7.703-7.703,7.702-20.194,0-27.897s-20.193-7.702-27.896,0.001"/>
	<polygon style="fill:#E62F22;" points="44.65,50.966 49.969,34.661 55.494,50.898 	"/>
	<polygon style="fill:#2364D7;" points="44.65,50.966 50.174,67.203 55.494,50.898 	"/>
	<circle style="fill:#FFFFFF;" cx="50.072" cy="50.933" r="1.836"/>
	<polygon style="opacity:0.47;fill:#FFFFFF;" points="39.408,49.382 39.408,50.932 39.408,52.484 34.216,50.932 	"/>
	<polygon style="opacity:0.47;fill:#FFFFFF;" points="65.926,50.932 60.735,52.484 60.735,50.932 60.735,49.382 	"/>
	<path style="opacity:0.1;" d="M39.972,40.835c-7.049,7.049-7.642,18.105-1.789,25.834c-0.716-0.542-1.406-1.136-2.059-1.789
		c-7.702-7.702-7.702-20.192,0-27.894c7.703-7.703,20.193-7.703,27.896-0.001c0.653,0.653,1.247,1.343,1.789,2.059
		C58.078,33.191,47.022,33.785,39.972,40.835z"/>
	<circle style="fill:#FFFFFF;" cx="39.358" cy="35.959" r="2.546"/>
	<circle style="fill:#FFFFFF;" cx="35.159" cy="40.158" r="1.677"/>
</g>
<g id="Layer_1">
</g>
</svg>
