<?xml version="1.0" encoding="iso-8859-1"?>
<!-- Generator: Adobe Illustrator 18.0.0, SVG Export Plug-In . SVG Version: 6.00 Build 0)  -->
<!DOCTYPE svg PUBLIC "-//W3C//DTD SVG 1.1//EN" "http://www.w3.org/Graphics/SVG/1.1/DTD/svg11.dtd">
<svg version="1.1" xmlns="http://www.w3.org/2000/svg" xmlns:xlink="http://www.w3.org/1999/xlink" x="0px" y="0px"
	 viewBox="0 0 100.144 100.144" style="enable-background:new 0 0 100.144 100.144;" xml:space="preserve">
<g id="_x32_1-gumball">
	<circle style="fill:#B756C5;" cx="50.072" cy="50.072" r="50.072"/>
	<circle style="fill:#00A9E7;" cx="50.072" cy="50.072" r="30.862"/>
	<g>
		<path style="fill:#FFFFFF;" d="M60.071,79.837c-7.726,0.256-15.536-2.529-21.421-8.412c-8.901-8.902-8.901-23.391,0-32.293
			c7.003-7.002,18.397-7.002,25.399,0c2.656,2.655,4.119,6.184,4.119,9.939c0,3.755-1.462,7.284-4.12,9.939
			c-2.065,2.067-4.812,3.207-7.732,3.207c-0.002,0-0.003,0-0.003,0c-2.92,0-5.665-1.137-7.729-3.201
			c-3.292-3.292-3.295-8.648-0.005-11.938c1.217-1.219,2.837-1.892,4.558-1.892h0.004c1.719,0,3.336,0.669,4.552,1.886
			c0.918,0.917,1.423,2.135,1.423,3.431c-0.001,1.293-0.505,2.508-1.423,3.424c-0.673,0.676-1.568,1.048-2.521,1.049h-0.005
			c-0.951,0-1.845-0.37-2.517-1.041c-0.993-0.994-0.995-2.613-0.004-3.604c0.326-0.327,0.76-0.508,1.222-0.508h0.001
			c0.461,0,0.895,0.179,1.22,0.505c0.603,0.603,1.58,0.603,2.182,0c0.603-0.603,0.603-1.579,0-2.183
			c-0.909-0.908-2.116-1.408-3.402-1.408h-0.004c-1.286,0.001-2.494,0.503-3.403,1.413c-2.191,2.194-2.19,5.769,0.004,7.966
			c1.256,1.255,2.925,1.947,4.7,1.947c0,0,0.006,0,0.009,0c1.777-0.004,3.447-0.698,4.701-1.953
			c1.499-1.497,2.325-3.487,2.326-5.604c0-2.122-0.826-4.115-2.327-5.615c-1.799-1.799-4.191-2.789-6.734-2.789h-0.005
			c-2.546,0.002-4.939,0.994-6.74,2.795c-4.493,4.492-4.491,11.806,0.006,16.303c2.646,2.647,6.166,4.104,9.91,4.104h0.005
			c3.746-0.001,7.267-1.462,9.915-4.11c3.239-3.237,5.023-7.543,5.023-12.122c-0.001-4.58-1.785-8.885-5.023-12.122
			c-8.206-8.203-21.558-8.203-29.764,0c-10.105,10.107-10.105,26.551,0,36.658c3.006,3.005,6.473,5.268,10.169,6.826
			c1.752,0.311,3.546,0.5,5.387,0.5C54.814,80.934,57.502,80.531,60.071,79.837z"/>
	</g>
	<g style="opacity:0.1;">
		<path d="M66.394,23.914c6.082,5.213,9.95,12.935,9.95,21.573c0,15.698-12.724,28.421-28.42,28.421
			c-15.556,0-28.175-12.501-28.4-28.005c-0.185,1.365-0.314,2.75-0.314,4.168c0,17.047,13.817,30.862,30.862,30.862
			s30.862-13.815,30.862-30.862C80.934,39.03,75.114,29.367,66.394,23.914z"/>
	</g>
</g>
<g id="Layer_1">
</g>
</svg>
