<svg xmlns="http://www.w3.org/2000/svg" viewBox="0 0 100.144 100.144" enable-background="new 0 0 100.144 100.144"><circle cx="50.072" cy="50.072" r="50.072" fill="#B756C5"/><path fill="#fff" d="M34.727 46.976h30.76v40.052h-30.76zm-5.07-5.962h40.71v18.6h-40.71z"/><path fill="none" stroke="#A4A6A9" stroke-width="2" stroke-miterlimit="10" d="M34.797 77.937h30.816m-30.816-9.24h30.816m-35.996-9.085h40.645M29.485 50.37h40.91"/><path fill="#B757C5" d="M29.75 41.13h40.91"/><path fill="none" stroke="#A4A6A9" stroke-width="2" stroke-miterlimit="10" d="M40.242 50.528v9.24m0 9.242v9.24M59.37 50.528v9.24m0 9.242v9.24m-9.298-36.963v9.24m0 9.085v9.24m0 8.928v9.24"/><path fill="#D84637" d="M39.96 13.116h20.86V33.98H39.96z"/><path fill="#FFDE00" d="M51.536 22.435v-9.32h-2.65v9.32H39.96v2.652h8.926v8.892h2.65v-8.894h9.285v-2.652z"/></svg>