<?xml version="1.0" encoding="utf-8"?>
<!-- Generator: Adobe Illustrator 18.0.0, SVG Export Plug-In . SVG Version: 6.00 Build 0)  -->
<!DOCTYPE svg PUBLIC "-//W3C//DTD SVG 1.1//EN" "http://www.w3.org/Graphics/SVG/1.1/DTD/svg11.dtd">
<svg version="1.1" id="Layer_1" xmlns="http://www.w3.org/2000/svg" xmlns:xlink="http://www.w3.org/1999/xlink" x="0px" y="0px"
	 viewBox="0 0 100.1 100.1" enable-background="new 0 0 100.1 100.1" xml:space="preserve">
<circle fill="#83CE00" cx="50.1" cy="50.1" r="50.1"/>
<g>
	<circle fill="#286EE4" cx="50.1" cy="50.1" r="30.9"/>
	<path opacity="0.1" enable-background="new    " d="M74,56.1v-4.2l-18.9-8V36c0-1.8-1.5-6-3.3-6s-3.3,4.1-3.3,6v7.9l-18.9,8v4.2
		l18.9-3.2v12c0,0,0,0.1,0,0.1l-5.6,3.7v4.1l6.8-2.5c0.6,1.6,1.3,2.8,2.1,2.8c0.8,0,1.6-1.3,2.1-2.9l7.1,2.6v-4.1l-5.9-3.9V52.8
		L74,56.1z"/>
	<path fill="#CCCCCC" d="M72.5,53.6v-4.2l-18.9-8v-7.9c0-1.8-1.5-6-3.3-6s-3.3,4.1-3.3,6v7.9l-18.9,8v4.2L47,50.3v12
		c0,0,0,0.1,0,0.1l-5.6,3.7v4.1l6.8-2.5c0.6,1.6,1.3,2.8,2.1,2.8c0.8,0,1.6-1.3,2.1-2.9l7.1,2.6v-4.1l-5.9-3.9V50.3L72.5,53.6z"/>
	<path opacity="0.11" enable-background="new    " d="M53.6,50.3l4.3,0.7v-7.9l-4.3-1.8v-1.9c-2.5-1.2-5.2-2.4-5.4-2.4
		c-0.4,0,2,32.6,2,32.6s0.3,0.3,0.7,0.6c0.6-0.5,1.1-1.5,1.5-2.7l3.4,1.2c0.4-1.2,0.8-2.9,1.1-4.5l-3.3-2.1V50.3z"/>
	<path fill="#FFFFFF" d="M53.6,41.4v-7.9c0-1.8-1.5-6-3.3-6s-3.3,4.1-3.3,6v7.9v9v12c0,0,0,0.1,0,0.1l1.2,5.4
		c0.6,1.6,1.3,2.8,2.1,2.8c0.8,0,1.6-1.3,2.1-2.9l1.2-5.5V50.3V41.4z"/>
	<ellipse fill="#28AE4B" cx="50.3" cy="64.4" rx="0.7" ry="4.9"/>
	<path fill="#E64436" d="M51.7,28.1c0,0-2.8,0-2.8,0c0-1.2,0.6-2.2,1.4-2.2C51.1,25.9,51.7,26.9,51.7,28.1z"/>
</g>
<g id="Layer_1_1_">
</g>
</svg>
