<svg xmlns="http://www.w3.org/2000/svg" viewBox="0 0 100.144 100.144" enable-background="new 0 0 100.144 100.144"><g><circle cx="50.072" cy="50.072" r="50.072" fill="#EC4180"/><path d="M41.214 75.24l-3.43-17.468c0-6.77 5.49-12.257 12.258-12.257 6.77 0 12.257 5.488 12.257 12.257L57.775 74.88c0 13.164-16.562 12.54-16.562.36zM38.652 56.014l-7.116-9.658S27.47 71.26 41.19 68.21l-2.538-12.196zM60.443 56.014l7.116-9.658s4.066 24.905-9.656 21.855l2.54-12.196z" fill="#CEA060"/><path d="M46.146 49.88c-1 0-1.81-.81-1.81-1.81V36.092c0-1-.814-1.81-1.813-1.81h-9.578c-2.996 0-5.434-2.44-5.434-5.435V23.09c0-.998-.812-1.81-1.81-1.81h-6.473c-1 0-1.81-.81-1.81-1.81s.81-1.812 1.81-1.812H25.7c2.996 0 5.434 2.438 5.434 5.434v5.756c0 1 .813 1.81 1.812 1.81h9.578c2.996 0 5.434 2.44 5.434 5.435V48.07c0 1-.81 1.81-1.812 1.81zM31.54 42.665h-5.466c-2.996 0-5.434-2.438-5.434-5.434v-4.61c0-1 .81-1.81 1.81-1.81s1.812.81 1.812 1.81v4.61c0 1 .813 1.812 1.812 1.812h5.465c.998 0 1.81-.812 1.81-1.81v-3.745c0-1 .812-1.81 1.812-1.81s1.81.81 1.81 1.81v3.744c0 2.997-2.437 5.435-5.433 5.435zM38.72 26.57h-9.088c-1 0-1.81-.812-1.81-1.812s.81-1.81 1.81-1.81h9.09c.998 0 1.81-.813 1.81-1.812v-3.743c0-1 .812-1.81 1.812-1.81s1.81.81 1.81 1.81v3.743c0 2.995-2.437 5.433-5.433 5.433zM69.173 26.57h-9.09c-2.995 0-5.433-2.44-5.433-5.435v-3.743c0-1 .81-1.81 1.81-1.81s1.812.81 1.812 1.81v3.743c0 1 .813 1.81 1.812 1.81h9.09c1 0 1.81.812 1.81 1.812s-.81 1.812-1.81 1.812zM53.998 49.88c-1 0-1.81-.81-1.81-1.81V36.092c0-2.996 2.437-5.434 5.433-5.434h9.58c.998 0 1.81-.812 1.81-1.81V23.09c0-2.995 2.44-5.433 5.435-5.433h6.47c1.002 0 1.812.81 1.812 1.81s-.81 1.812-1.81 1.812h-6.472c-1 0-1.812.81-1.812 1.81v5.756c0 2.996-2.438 5.434-5.434 5.434h-9.58c-.998 0-1.81.812-1.81 1.81v11.98c0 1-.81 1.81-1.812 1.81zM74.07 42.665h-5.464c-2.996 0-5.434-2.438-5.434-5.434v-3.743c0-1 .81-1.81 1.81-1.81s1.812.81 1.812 1.81v3.744c0 1 .813 1.812 1.812 1.812h5.464c1 0 1.812-.812 1.812-1.81V32.62c0-1 .81-1.81 1.81-1.81s1.812.81 1.812 1.81v4.61c0 2.997-2.438 5.435-5.434 5.435z" fill="#7C6959"/><path d="M49.554 77.335c-2.292-.006-4.15-1.868-4.142-4.162.004-2.293 1.867-4.15 4.16-4.144 2.294.004 4.15 1.867 4.143 4.16-.003 2.293-1.866 4.15-4.16 4.145z" fill="#D84637"/><path d="M43.788 62.786c-1.463-.003-2.644-1.19-2.64-2.653 0-1.464 1.19-2.646 2.652-2.644 1.463.002 2.646 1.19 2.643 2.653-.004 1.463-1.192 2.647-2.655 2.643z" fill="#fff"/><path d="M44.505 60.515c.608.347.818 1.123.47 1.73-.347.608-1.122.82-1.73.47-.608-.347-.82-1.122-.472-1.73.348-.606 1.123-.817 1.732-.47z" fill="#231F20"/><path d="M56.507 62.786c1.463-.003 2.643-1.19 2.64-2.653 0-1.464-1.19-2.646-2.652-2.644-1.463.002-2.646 1.19-2.643 2.653.005 1.463 1.192 2.647 2.655 2.643z" fill="#fff"/><path d="M55.79 60.515c-.607.347-.817 1.123-.47 1.73.348.608 1.123.82 1.73.47.608-.347.822-1.122.473-1.73-.348-.606-1.123-.817-1.733-.47z" fill="#231F20"/><path d="M65.592 58.884h-2c0-8.133-6.168-14.75-13.75-14.75s-13.75 6.617-13.75 14.75h-2c0-9.236 7.065-16.75 15.75-16.75s15.75 7.514 15.75 16.75z" fill="#FFDE00"/><path d="M35.967 67.384c-3.728 0-6.75-3.022-6.75-6.75s3.022-6.75 6.75-6.75 3.728 13.5 0 13.5zM64.217 67.384c3.728 0 6.75-3.022 6.75-6.75s-3.022-6.75-6.75-6.75-3.728 13.5 0 13.5z" fill="#231F20"/><path d="M49.967 81.384c-.432 0-.83-.282-.96-.718-.155-.53.148-1.086.678-1.24l12.2-3.59 2.862-11.444c.134-.537.677-.864 1.213-.728.536.134.862.677.728 1.212l-3 12c-.086.345-.348.617-.688.717l-12.75 3.75c-.095.028-.19.04-.283.04z" fill="#FFDE00"/><path d="M49.967 81.384c-.432 0-.83-.282-.96-.718-.155-.53.148-1.086.678-1.24l2.45-.722c.53-.158 1.086.147 1.242.677.156.53-.147 1.087-.677 1.242l-2.45.72c-.095.03-.19.042-.283.042z"/></g></svg>