<svg xmlns="http://www.w3.org/2000/svg" viewBox="0 90 612 612" enable-background="new 0 90 612 612"><circle fill="#EC4180" cx="306" cy="396" r="306"/><path fill="#E798CD" d="M325.645 443.985l-108.398-108.4 67.103-67.102 108.4 108.398z"/><path fill="#5E535A" d="M325.6 450.2L211 335.6l73.3-73.3 114.6 114.6-73.3 73.3zM223.4 335.6l102.2 102.2 60.9-60.9-102.2-102.2-60.9 60.9zm-9.388 3.184l-17.324-17.324 144.037-144.036 17.324 17.324z"/><path d="M324.622 219.058l-8.202-8.202 4.738-4.738 8.202 8.202zm-24.062 24.09l-8.2-8.203 4.736-4.738 8.203 8.203zm-24.065 24.08l-8.203-8.203 4.738-4.738 8.202 8.203zM252.35 291.25l-8.2-8.202 4.736-4.738 8.203 8.202zm-24.063 24.08l-8.203-8.2 4.738-4.74 8.202 8.203zM348.7 194.974l-8.202-8.203 4.737-4.735 8.203 8.202z" fill="#EC4180"/><path fill="#E798CD" d="M394.903 374.7l-108.4-108.4 67.105-67.103 108.398 108.398z"/><path fill="#5E535A" d="M394.9 380.9L280.3 266.3l74.6-74.6 114.6 114.6-74.6 74.6zM292.7 266.3l102.2 102.2 60.9-60.9-102.2-102.2-60.9 60.9z"/><path opacity=".17" fill="#5E535A" enable-background="new" d="M394.9 374.7L286.5 266.3 462 307.6zM325.6 444L217.2 335.6l175.5 41.3z"/><path fill="#5E535A" d="M339.112 463.89l-17.324-17.325L465.824 302.53l17.324 17.323z"/><path d="M449.733 344.157l-8.202-8.202 4.74-4.738 8.202 8.203zm-24.076 24.083l-8.203-8.202 4.738-4.737 8.202 8.204zm-24.062 24.09l-8.202-8.202 4.737-4.738 8.203 8.202zm-24.147 24.015l-8.202-8.202 4.738-4.738 8.202 8.203zm-24.06 24.09l-8.203-8.203 4.737-4.737 8.202 8.202zm120.408-120.368l-8.202-8.202 4.737-4.737 8.205 8.202z" fill="#EC4180"/><path fill="#E798CD" d="M326.4 446.8L218 338.4l65.4-28.3 108.4 108.4z"/><path fill="#5E535A" d="M325.5 451.1l-114-114 72.7-31.4 114 114-72.7 31.4zM224.4 339.6l102.8 102.8 58.2-25.2-102.8-102.8-58.2 25.2zm-9.6.2l-17.3-17.4 140.2-60.6 17.3 17.3z"/><path d="M322.7 286.6l-8.2-8.2 4.6-2 8.2 8.2zm-23.5 10.1l-8.2-8.1 4.6-2 8.2 8.1zm-23.5 10.2l-8.2-8.2 4.6-2 8.2 8.2zm-23.5 10.2l-8.2-8.2 4.6-2 8.2 8.2zm-23.6 10.1l-8.1-8.2 4.6-2 8.2 8.2zm117.6-50.8l-8.2-8.2 4.6-2 8.2 8.2z" fill="#EC4180"/><path fill="#E798CD" d="M394 417.6L285.6 309.2l65.4-28.3 108.4 108.4z"/><path fill="#5E535A" d="M393.1 421.9l-114-114 72.7-31.4 114 114-72.7 31.4zM292 310.4l102.8 102.8L453 388 350.2 285.2 292 310.4z"/><path opacity=".17" fill="#5E535A" enable-background="new" d="M394 417.6L285.6 309.2l173.8 80.1zm-67.6 29.2L218 338.4l173.8 80.1z"/><path fill="#5E535A" d="M339.9 464.9l-17.3-17.4 140.2-60.6 17.3 17.3z"/><path d="M447.8 411.7l-8.2-8.2 4.6-2 8.2 8.2zm-23.5 10.1l-8.2-8.1 4.6-2 8.2 8.1zM400.8 432l-8.2-8.2 4.6-2 8.2 8.2zm-23.5 10.2l-8.2-8.2 4.6-2 8.2 8.2zm-23.6 10.1l-8.1-8.2 4.6-1.9 8.2 8.1zm117.6-50.8l-8.2-8.2 4.6-2 8.2 8.2z" fill="#EC4180"/><path fill="#332C31" d="M326.4 446.8L218 338.4l65.4-28.3 108.4 108.4zm-.9 4.3l-114-114 72.7-31.4 114 114-72.7 31.4zM224.4 339.6l102.8 102.8 58.2-25.2-102.8-102.8-58.2 25.2zm-9.6.2l-17.3-17.4 140.2-60.6 17.3 17.3z"/><path d="M322.7 286.6l-8.2-8.2 4.6-2 8.2 8.2zm-23.5 10.1l-8.2-8.1 4.6-2 8.2 8.1zm-23.5 10.2l-8.2-8.2 4.6-2 8.2 8.2zm-23.5 10.2l-8.2-8.2 4.6-2 8.2 8.2zm-23.6 10.1l-8.1-8.2 4.6-2 8.2 8.2zm117.6-50.8l-8.2-8.2 4.6-2 8.2 8.2z" fill="#4A3F3C"/><path fill="#332C31" d="M394 417.6L285.6 309.2l65.4-28.3 108.4 108.4zm-.9 4.3l-114-114 72.7-31.4 114 114-72.7 31.4zM292 310.4l102.8 102.8L453 388 350.2 285.2 292 310.4z"/><path opacity=".17" fill="#332C31" enable-background="new" d="M394 417.6L285.6 309.2l173.8 80.1zm-67.6 29.2L218 338.4l173.8 80.1z"/><path fill="#332C31" d="M339.9 464.9l-17.3-17.4 140.2-60.6 17.3 17.3z"/><path d="M447.8 411.7l-8.2-8.2 4.6-2 8.2 8.2zm-23.5 10.1l-8.2-8.1 4.6-2 8.2 8.1zM400.8 432l-8.2-8.2 4.6-2 8.2 8.2zm-23.5 10.2l-8.2-8.2 4.6-2 8.2 8.2zm-23.6 10.1l-8.1-8.2 4.6-1.9 8.2 8.1zm117.6-50.8l-8.2-8.2 4.6-2 8.2 8.2z" fill="#EC4180"/><path fill="#E798CD" d="M324.328 528.064l-108.4-108.398 67.105-67.104 108.4 108.4z"/><path fill="#5E535A" d="M324.4 534.3L209.8 419.7l73.3-73.3L397.6 461l-73.2 73.3zM222.1 419.7l102.2 102.2 60.9-60.9L283 358.8l-60.9 60.9z"/><path fill="#E798CD" d="M254.616 597.902l-108.398-108.4 70.215-70.214 108.398 108.4z"/><path fill="#5E535A" d="M257.7 600.9L143.1 486.4l73.3-73.3L331 527.7l-73.3 73.2zM155.5 486.4l102.2 102.2 60.9-60.9-102.2-102.3-60.9 61z"/><path fill="#E798CD" d="M393.658 458.85l-108.4-108.4 67.105-67.102L460.76 391.746z"/><path fill="#5E535A" d="M393.6 465L279.1 350.4l73.3-73.3L467 391.7 393.6 465zM291.4 350.4l102.2 102.2 60.9-60.9-102.2-102.2-60.9 60.9z"/><path opacity=".17" fill="#5E535A" enable-background="new" d="M393.6 458.8L285.2 350.4l175.5 41.3zm-69.2 69.3L216 419.7 391.4 461zm-65.7 65.7L150.3 485.4l175.5 41.3z"/><path fill="#5E535A" d="M271.338 614.506l-17.324-17.324 210.22-210.22 17.325 17.323z"/><path d="M448.41 428.243l-8.204-8.203 4.738-4.737 8.202 8.202zm-24.063 24.09l-8.202-8.203 4.737-4.738 8.203 8.202zm-24.077 24.083l-8.203-8.202 4.738-4.738 8.202 8.202zm-24.062 24.09l-8.202-8.203 4.737-4.737 8.202 8.202zM352.13 524.59l-8.2-8.203 4.736-4.737 8.203 8.202zm120.496-120.432l-8.203-8.203 4.738-4.737 8.204 8.202zM328.956 547.726l-8.202-8.203 4.737-4.737 8.205 8.202zm-24.066 24.08l-8.202-8.204 4.738-4.737 8.202 8.202zM280.82 595.9l-8.202-8.203 4.738-4.738 8.202 8.2z" fill="#EC4180"/><path fill="#5E535A" d="M146.24 489.41l-17.323-17.323 210.22-210.22 17.325 17.323z"/><path fill="#EC4180" d="M323.31 303.14l-8.204-8.204 4.738-4.737 8.202 8.2zm-24.073 24.093l-8.203-8.203 4.738-4.737 8.202 8.202zm-24.067 24.08l-8.203-8.203 4.737-4.738 8.203 8.203zm-24.062 24.09l-8.203-8.204 4.738-4.74 8.202 8.203zm-24.072 24.092l-8.203-8.202 4.738-4.738 8.204 8.203z"/><path fill="#E798CD" d="M347.514 279.058l-8.202-8.202 4.737-4.738 8.2 8.202z"/><path d="M203.856 422.62l-8.202-8.202 4.738-4.737 8.202 8.204zm-24.072 24.094l-8.202-8.202 4.738-4.738 8.202 8.203zm-24.066 24.08l-8.202-8.202 4.737-4.737 8.203 8.202z" fill="#EC4180"/></svg>