<svg xmlns="http://www.w3.org/2000/svg" viewBox="0 0 100.144 100.144" enable-background="new 0 0 100.144 100.144"><g><circle cx="50.072" cy="50.072" r="50.072" fill="#83CE00"/><g><ellipse cx="50.37" cy="45.354" rx="6.518" ry="6.689" fill="#fff"/><path d="M72.192 68.097c12.195-12.518 12.195-32.886 0-45.405M27.954 22.692c-12.197 12.52-12.197 32.888 0 45.405M66.312 62.063c8.955-9.19 8.955-24.146 0-33.338M33.833 28.726c-8.954 9.19-8.954 24.146 0 33.338M60.433 56.028c5.72-5.872 5.72-15.394 0-21.267M39.712 34.76c-5.723 5.874-5.722 15.398-.002 21.27" fill="none" stroke="#00A9E7" stroke-width="3" stroke-linecap="round" stroke-linejoin="round" stroke-miterlimit="10"/><path fill="#C1161C" d="M50.37 52.043L37.71 73.51l25.774-.184z"/><path fill="#E64436" d="M50.37 52.043L37.71 73.51l19.47-.184z"/><path d="M64.89 75.188c0 .97-.82 1.765-1.82 1.765H38.036c-1.002 0-1.82-.793-1.82-1.765V70.32c0-.97.82-1.764 1.82-1.764H63.07c1 0 1.82.793 1.82 1.765v4.868z" fill="#fff"/></g></g></svg>