<svg xmlns="http://www.w3.org/2000/svg" viewBox="135.7 353.6 612.1 503.3" enable-background="new 135.7 353.6 612.1 503.3"><g fill="#fff"><path d="M135.7 531h199.6v148.6H135.7zM451.9 857L200.3 605.3l251.6-251.7zM648.5 798.6c-6.3 0-12.7-2.8-17-8.1-7.7-9.4-6.2-23.2 3.2-30.9 43.3-35 69.2-92.7 69.2-154.3S678 485.9 634.7 450.8c-9.4-7.5-10.9-21.4-3.2-30.9 7.5-9.4 21.3-10.9 30.9-3.2 53.5 43.3 85.5 113.8 85.5 188.5s-32.1 145.5-85.6 188.7c-4.1 3.2-9 4.7-13.8 4.7zM583.1 716c-6.3 0-12.7-2.8-17-8.1-7.7-9.4-6.2-23.2 3.2-30.9 20-16.2 31.8-42.9 31.8-71.7 0-28.7-11.9-55.5-31.8-71.7-9.4-7.5-10.9-21.4-3.2-30.9 7.5-9.4 21.4-10.9 30.9-3.2 30.2 24.4 48.1 63.9 48.1 105.7 0 41.8-17.9 81.4-48.1 105.7-4.2 3.5-9 5.1-13.9 5.1z"/></g></svg>