<?xml version="1.0" encoding="utf-8"?>
<!-- Generator: Adobe Illustrator 18.0.0, SVG Export Plug-In . SVG Version: 6.00 Build 0)  -->
<!DOCTYPE svg PUBLIC "-//W3C//DTD SVG 1.1//EN" "http://www.w3.org/Graphics/SVG/1.1/DTD/svg11.dtd">
<svg version="1.1" id="Layer_1" xmlns="http://www.w3.org/2000/svg" xmlns:xlink="http://www.w3.org/1999/xlink" x="0px" y="0px"
	 viewBox="135.7 353.6 612.1 503.3" enable-background="new 135.7 353.6 612.1 503.3" xml:space="preserve">
<g id="New_Symbol_2">
	<g>
		<g>
			<g>
				<rect x="135.7" y="531" fill="#FFFFFF" width="199.6" height="148.6"/>
				<polygon fill="#FFFFFF" points="451.9,857 200.3,605.3 451.9,353.6 				"/>
			</g>
			<path fill="#FFFFFF" d="M648.5,798.6c-6.3,0-12.7-2.8-17-8.1c-7.7-9.4-6.2-23.2,3.2-30.9c43.3-35,69.2-92.7,69.2-154.3
				S678,485.9,634.7,450.8c-9.4-7.5-10.9-21.4-3.2-30.9c7.5-9.4,21.3-10.9,30.9-3.2c53.5,43.3,85.5,113.8,85.5,188.5
				s-32.1,145.5-85.6,188.7C658.2,797.1,653.3,798.6,648.5,798.6z"/>
			<path fill="#FFFFFF" d="M583.1,716c-6.3,0-12.7-2.8-17-8.1c-7.7-9.4-6.2-23.2,3.2-30.9c20-16.2,31.8-42.9,31.8-71.7
				c0-28.7-11.9-55.5-31.8-71.7c-9.4-7.5-10.9-21.4-3.2-30.9c7.5-9.4,21.4-10.9,30.9-3.2c30.2,24.4,48.1,63.9,48.1,105.7
				c0,41.8-17.9,81.4-48.1,105.7C592.8,714.4,588,716,583.1,716z"/>
		</g>
	</g>
</g>
</svg>
