<svg xmlns="http://www.w3.org/2000/svg" viewBox="109.3 251.2 611.9 612.1" enable-background="new 109.3 251.2 611.9 612.1"><g fill="#fff"><path d="M214 511.7h126.5v94H214zm200.3 206.4L254.9 558.7l159.4-159.3zm124.5-36.9c-4.1 0-8-1.7-10.7-5.1-4.8-6-3.9-14.7 2.1-19.5 27.4-22.2 43.8-58.7 43.8-97.8 0-39.1-16.4-75.6-43.8-97.8-5.9-4.8-6.8-13.5-2.1-19.5 4.8-6 13.6-6.8 19.5-2.1 33.8 27.4 54.1 72.1 54.1 119.4s-20.2 92-54.1 119.4c-2.6 2.1-5.7 3-8.8 3zm-41.4-52.3c-4.1 0-8-1.7-10.7-5.1-4.8-6-3.9-14.7 2.1-19.5 12.6-10.2 20.2-27.1 20.2-45.4s-7.6-35.1-20.2-45.4c-6-4.8-6.9-13.5-2.1-19.5 4.8-6 13.6-6.9 19.5-2.1 19.1 15.5 30.5 40.5 30.5 67s-11.4 51.5-30.5 67c-2.6 1.9-5.8 3-8.8 3z" opacity=".7"/><path d="M602.967 333.22l30.36 29.884L229.265 773.62l-30.36-29.885zM415.4 863.4c-81.8 0-158.6-31.9-216.4-89.7s-89.7-134.6-89.7-216.4 31.9-158.6 89.7-216.4 134.6-89.7 216.4-89.7 158.6 31.9 216.4 89.7c119.3 119.3 119.3 313.5 0 432.8-57.7 57.8-134.6 89.7-216.4 89.7zm0-569.6c-70.4 0-136.6 27.4-186.3 77.2-49.8 49.8-77.2 115.9-77.2 186.3s27.4 136.6 77.2 186.3c49.8 49.8 115.9 77.2 186.3 77.2s136.6-27.4 186.4-77.2c102.6-102.8 102.6-269.9 0-372.5-49.9-49.9-116-77.3-186.4-77.3z"/></g></svg>