<svg xmlns="http://www.w3.org/2000/svg" xmlns:xlink="http://www.w3.org/1999/xlink" version="1.1" id="Layer_1" x="0px" y="0px" viewBox="0 0 100.1 100.1" style="enable-background:new 0 0 100.1 100.1;" xml:space="preserve"><g id="Layer_10"><g id="New_Symbol_58"></g><g id="_x27__2_2_"></g><g id="_x27__2_1_"></g><g id="_x27__2"></g><g id="New_Symbol_57"></g><g id="New_Symbol_2"><g id="New_Symbol_36"><g id="New_Symbol_76"></g><g id="New_Symbol_79"></g><g id="New_Symbol_80"></g></g></g><g id="santa"></g><g id="New_Symbol_70"><g id="New_Symbol_69"><g id="New_Symbol_2_1_"><g id="New_Symbol_36_1_"></g></g></g></g><g id="New_Symbol_27"></g><g id="New_Symbol_26"></g><g id="New_Symbol_29"></g><g id="New_Symbol_32"><g id="New_Symbol_32_1_"><g id="New_Symbol_111"></g></g></g><g id="_x27__2_3_"></g><g id="New_Symbol_109"><g id="New_Symbol_112"></g></g></g><g id="Notes"><g id="_x27__2_4_"></g><g id="New_Symbol_109_2_"></g></g><g id="Grid"></g><g id="Layer_7"></g><g id="Layer_8"></g><g id="Layer_15"></g><g id="Layer_16"><g><circle style="fill:#B756C5;" cx="50.1" cy="50.1" r="50.1"/><g><g><rect x="25.9" y="17.8" style="fill:none;" width="48.3" height="64.5"/></g><g><path style="fill:#BA9A60;" d="M63.2 80.3L63.2 80.3c-0.7 0-1.3-0.6-1.2-1.3c0.2-4.5-0.7-8.4-2.8-11.8c-1.5-2.5-3.2-3.8-3.2-3.8 c-0.5-0.4-0.7-1.2-0.3-1.7s1.2-0.7 1.7-0.3c0.3 0.2 7.5 5.7 6.9 17.7C64.4 79.8 63.8 80.3 63.2 80.3z"/></g><g><polygon style="fill:#D5B06E;" points="56.5,59.2 56.5,37.2 63.5,40.2 63.5,58.4"/></g><g><g><path style="fill:#B9BBBD;" d="M61.1 34.2c-0.4 0-0.8-0.4-0.8-0.8v-3.9c0-0.4 0-0.4-0.1-0.4h-2c-1.1 0-2.2-1-2.2-2.2v-1.8 c0-0.2-0.1-0.4-0.4-0.4h-3.2c-1.1 0-2.3-1-2.3-2.2v-2.1c0-0.4 0.4-0.8 0.8-0.8c0.4 0 0.8 0.4 0.8 0.8v2.1 c0 0.3 0.5 0.6 0.7 0.6h3.2c1.1 0 2 0.7 2 2v1.8c0 0.2 0.3 0.6 0.6 0.6h2c1.1 0 1.7 0.8 1.7 2v3.9 C61.9 33.9 61.5 34.2 61.1 34.2z"/></g><g><path style="fill:#B9BBBD;" d="M64 31.8h-1.9c-0.4 0-0.8-0.4-0.8-0.8s0.4-0.8 0.8-0.8H64c0.1 0 0-0.4 0-0.8v-2 c0-0.4 0.1-0.4 0-0.4h-3c-1.1 0-2.3-1-2.3-2.2v-3.3c0-0.4-0.2-0.4-0.2-0.4h-1.7c-0.4 0-0.8-0.4-0.8-0.8s0.4-0.8 0.8-0.8h1.7 c1.2 0 1.9 0.9 1.9 2v3.3c0 0.3 0.5 0.6 0.7 0.6h3c1.1 0 1.6 0.8 1.6 2v2C65.7 30.6 65.2 31.8 64 31.8z"/></g><g><path style="fill:#B9BBBD;" d="M62 24.3h-2c-0.4 0-0.8-0.4-0.8-0.8s0.4-0.8 0.8-0.8h2c0.3 0 0.4-0.4 0.4-0.7v-2.6 c0-0.4 0.4-0.8 0.8-0.8S64 19 64 19.5V22C64 23.2 63.2 24.3 62 24.3z"/></g><g><path style="fill:#B9BBBD;" d="M56.7 27h-3.2c-0.4 0-0.8-0.4-0.8-0.8s0.4-0.8 0.8-0.8h3.2c0.4 0 0.8 0.4 0.8 0.8 S57.2 27 56.7 27z"/></g><g><path style="fill:#D5B06E;" d="M56.8 37.4c0-4.4 4.7-5.3 6.4-3.6c0 0 4 2.1 6.5 4.1c2.5 1.9 1 3.7-0.8 3.7H61 C59 41.5 56.8 40 56.8 37.4"/></g><g><path style="fill:#FFFFFF;" d="M65.2 37.4c0 0.6-0.5 1.2-1.2 1.2c-0.6 0-1.2-0.5-1.2-1.2s0.5-1.2 1.2-1.2S65.2 36.7 65.2 37.4"/></g><g><path style="fill:#884537;" d="M73.3 39.8c0 0.8-0.7 1.5-1.5 1.5s-1.5-0.7-1.5-1.5s0.7-1.5 1.5-1.5 C72.6 38.3 73.3 38.9 73.3 39.8"/></g><g><path style="fill:#58595B;" d="M64.6 36.8c0.3 0.1 0.3 0.5 0.2 0.8c-0.1 0.3-0.5 0.3-0.8 0.2s-0.3-0.5-0.2-0.8 C64.1 36.7 64.4 36.6 64.6 36.8"/></g></g><g><path style="fill:#BA9A60;" d="M40 74.1c-2.3 0-5.4-1.7-7.5-3c-0.6-0.4-0.8-1.1-0.4-1.7s1.1-0.8 1.7-0.4 c2.6 1.6 5.6 2.8 6.4 2.6c0.7-1.2-2.2-6.6-6.1-11.5c-0.4-0.5-0.3-1.3 0.2-1.7s1.3-0.3 1.7 0.2c0.1 0.1 2.2 2.7 4 5.6 c2.8 4.5 3.5 7.4 2.1 9.1C41.7 73.9 40.9 74.1 40 74.1z"/></g><g><path style="fill:#D5B06E;" d="M39 75.7c-2.3 0-5.4-1.7-7.5-3c-0.6-0.4-0.8-1.1-0.4-1.7s1.1-0.8 1.7-0.4 c2.6 1.6 5.6 2.8 6.4 2.6c0.7-1.2-2.2-6.6-6.1-11.5c-0.4-0.5-0.3-1.3 0.2-1.7s1.3-0.3 1.7 0.2c0.1 0.1 2.2 2.7 4 5.6 c2.8 4.5 3.5 7.4 2.1 9.1C40.6 75.5 39.9 75.7 39 75.7z"/></g><g><path style="fill:#D5B06E;" d="M63.5 51.1H38.6c-3.8 0-6.8 2.9-6.8 6.7v0.4c0 3.8 3 6.9 6.8 6.9h18.5c3.8 0 6.4-3.1 6.4-6.9 V51.1z"/></g><g><path style="fill:#E2E3E4;" d="M34.9 51.8c0 1.2-1 2.1-2.2 2.1c-5.4 0-6-2.8-6-4.4c0.5 0 4.8 0 6 0 C33.9 49.5 34.9 50.6 34.9 51.8"/></g><g><rect x="42.6" y="51.1" style="fill:#28B04B;" width="10.7" height="14"/></g><g><path style="fill:#F2B31B;" d="M54.1 63H41.7c-0.6 0-1.1-0.5-1.1-1.1s0.5-1.1 1.1-1.1h12.4c0.6 0 1.1 0.5 1.1 1.1 S54.6 63 54.1 63z"/></g><g><path style="fill:#039BE5;" d="M49.3 49.7c-0.4 1.8-2.1 3-3.9 2.6c-1.8-0.4-3-2.1-2.6-3.9l0.9-4.5c0.4-1.8 2.1-3 3.9-2.6 c1.8 0.4 3 2.1 2.6 3.9L49.3 49.7z"/></g><g><path style="fill:#0277BD;" d="M47.6 41.3c1.8 0.4 1.4 1.8 1 3.6l-0.9 4.5c-0.4 1.8-0.6 3.3-2.4 2.9c1.8 0.4 3.5-0.8 3.9-2.6 l0.9-4.5C50.6 43.4 49.5 41.6 47.6 41.3"/></g><g><rect x="42.898" y="47.391" transform="matrix(-0.9798 -0.2 0.2 -0.9798 81.8235 104.6485)" style="fill:#58595B;" width="6.6" height="1.6"/></g><g><rect x="49.191" y="47.889" transform="matrix(-0.9798 -0.1999 0.1999 -0.9798 88.0222 106.5658)" style="fill:#FDD500;" width="0.4" height="1.9"/></g><g><polygon style="fill:#039BE5;" points="55.8,46 47.5,43.4 48.7,41.7 56.4,44.4"/></g><g><path style="fill:#FDE08C;" d="M57.9 45.6c-0.2 0.7-0.8 1.1-1.5 1c-0.7-0.2-1.1-0.8-1-1.5s0.8-1.1 1.5-1 C57.6 44.2 58 44.9 57.9 45.6"/></g><g><polyline style="fill:#FFFFFF;" points="50.7,53.8 50.7,56.5 49,56.5 49,53.9"/></g><g><path style="fill:#039BE5;" d="M45.9 52.1l3-0.1l0.1 2l1.7-0.1l-0.1-2.5c0-0.6-0.3-1.2-1.4-1.1h-0.1l-1.5 0.1"/></g><g><path style="fill:#58595B;" d="M48.9 56.2l2-0.1c0.8 1.3 2.5 1.2 2.6 0.2c0 0 1 1.7-3.1 1.7C49.4 58 48.6 57.2 48.9 56.2"/></g><g><path style="fill:#FDE08C;" d="M51.4 38.3c0 1.8-1.4 3.3-3.3 3.4s-3.3-1.4-3.4-3.3c0-1.8 1.4-3.3 3.3-3.4 C49.8 35 51.3 36.5 51.4 38.3"/></g><g><path style="fill:#AE5F2D;" d="M49.5 35.4C49 35.2 48.5 35 48 35c-1.8 0-3.3 1.5-3.3 3.4c0 0.8 0.3 1.5 0.8 2.1 C48.7 39.6 49.4 36.8 49.5 35.4"/></g><g><path style="fill:#FDE08C;" d="M49 39.2l-1.8-2.4c0 0-0.6 3.9 1.5 3.4L49 39.2z"/></g><g><path style="fill:#FDE08C;" d="M50.9 38.2L54 39c0.3 0 0.4 0.5-0.2 0.5h-3.7L50.9 38.2z"/></g><g><path style="fill:#58595B;" d="M50.7 37.8c0 0.3-0.3 0.6-0.6 0.6s-0.6-0.3-0.6-0.6s0.3-0.6 0.6-0.6S50.7 37.5 50.7 37.8"/></g><g><path style="fill:#FDD19B;" d="M63.5 54.4c-4.3-6.6-3.2-11.6 0-12.9V54.4z"/></g><g><path style="fill:#D5B06E;" d="M61.6 81.9C61.6 81.9 61.5 81.9 61.6 81.9c-0.7 0-1.3-0.6-1.2-1.3c0.2-4.5-0.7-8.4-2.8-11.8 C56 66.3 54.4 65 54.4 65c-0.5-0.4-0.7-1.2-0.3-1.7s1.2-0.7 1.7-0.3c0.3 0.2 7.5 5.7 6.9 17.7C62.8 81.4 62.2 81.9 61.6 81.9z"/></g><g><g><path style="fill:#0277BD;" d="M51.7 35.2c0 0-0.9-4.4-10.6-1.8c0 0 5.4-0.1 4 1.6L51.7 35.2z"/></g><g><path style="fill:#039BE5;" d="M49.5 35.2c0 0 0.5-3.2-8.5-1.8c0 0 5.4-0.1 4 1.6L49.5 35.2z"/></g><g><circle style="fill:#FFFFFF;" cx="40.7" cy="33.5" r="0.9"/></g><g><path style="fill:#FFFFFF;" d="M51.7 35.3c0-0.1-0.1-0.3-0.3-0.3h-7c-0.1 0-0.3 0.1-0.3 0.3v1.1c0 0.1 0.1 0.3 0.3 0.3h7 c0.1 0 0.3-0.1 0.3-0.3V35.3z"/></g></g></g></g><g id="New_Symbol_114"></g><g id="New_Symbol_109_1_"></g></g><g id="Layer_27"></g><g id="Layer_28"></g></svg>