<svg xmlns="http://www.w3.org/2000/svg" viewBox="0 0 24.5 19.9" enable-background="new 0 0 24.5 19.9"><path fill="#fff" d="M24.5 2.4c-.9.4-1.9.7-2.9.8 1-.6 1.8-1.6 2.2-2.8-1 .6-2 1-3.2 1.2-.9-1-2.2-1.6-3.7-1.6-2.8 0-5 2.2-5 5 0 .4 0 .8.1 1.1C7.9 6 4.2 4 1.7.9c-.4.8-.7 1.6-.7 2.5 0 1.7.9 3.3 2.2 4.2-.8 0-1.5-.2-2.2-.6v.1c0 2.4 1.7 4.5 4 4.9-.4.1-.9.2-1.3.2-.3 0-.6 0-.9-.1.6 2 2.5 3.4 4.7 3.5-1.7 1.3-3.9 2.1-6.2 2.1-.4 0-.8 0-1.2-.1C2.3 19 5 19.9 7.8 19.9c9.2 0 14.3-7.7 14.3-14.3v-.7c.8-.7 1.7-1.5 2.4-2.5z"/></svg>