<svg xmlns="http://www.w3.org/2000/svg" viewBox="0 0 108.333 107.815" enable-background="new 0 0 108.333 107.815"><circle cx="50.072" cy="57.743" r="50.072" fill="#FF8933"/><circle cx="85.789" cy="22.544" r="22.545" fill="#FF8933"/><circle cx="85.789" cy="22.544" r="22.545" opacity=".1"/><path d="M95.027 17.422v-1.9c0-5.185-4.218-9.403-9.403-9.403-5.185 0-9.403 4.216-9.403 9.4v1.9h-1.74V34.9H97.1V17.42h-2.073zm-15.676-1.9c0-3.46 2.816-6.273 6.275-6.273 3.46 0 6.273 2.812 6.273 6.27v1.9H79.35v-1.9zm8.376 15.038H83.71l1.215-4.872c-.973-.34-1.675-1.255-1.675-2.344 0-1.376 1.115-2.492 2.49-2.492 1.377 0 2.493 1.116 2.493 2.492 0 1.036-.633 1.923-1.532 2.3l1.026 4.916zM45.446 76.125h-8.252v-26.27l-8.105 2.368v-6.25l15.6-5.396h.756v35.548zm22.524 0h-8.25v-26.27l-8.106 2.368v-6.25l15.6-5.396h.758v35.548z" fill="#fff"/></svg>