<svg xmlns="http://www.w3.org/2000/svg" viewBox="0 0 108.333 107.815" enable-background="new 0 0 108.333 107.815"><circle cx="50.072" cy="57.743" r="50.072" fill="#B756C5"/><circle cx="85.789" cy="22.544" r="22.545" fill="#B756C5"/><circle cx="85.789" cy="22.544" r="22.545" opacity=".1"/><path d="M95.027 17.422v-1.9c0-5.185-4.218-9.403-9.403-9.403-5.185 0-9.403 4.216-9.403 9.4v1.9h-1.74V34.9H97.1V17.42h-2.073zm-15.676-1.9c0-3.46 2.816-6.273 6.275-6.273 3.46 0 6.273 2.812 6.273 6.27v1.9H79.35v-1.9zm8.376 15.038H83.71l1.215-4.872c-.973-.34-1.675-1.255-1.675-2.344 0-1.376 1.115-2.492 2.49-2.492 1.377 0 2.493 1.116 2.493 2.492 0 1.036-.633 1.923-1.532 2.3l1.026 4.916zm-29.38 9.506v6.47h-.44c-1.4 0-2.72.17-3.968.513-1.244.34-2.355.857-3.332 1.55-.977.69-1.803 1.557-2.48 2.6-.674 1.04-1.134 2.27-1.378 3.685.83-.813 1.827-1.473 2.99-1.978 1.164-.504 2.51-.757 4.04-.757 1.628 0 3.068.314 4.322.94 1.253.628 2.308 1.49 3.16 2.59.856 1.098 1.503 2.388 1.942 3.87.44 1.48.66 3.083.66 4.81 0 1.74-.31 3.356-.93 4.845-.618 1.49-1.477 2.783-2.574 3.882-1.1 1.1-2.41 1.96-3.932 2.588-1.52.626-3.186.94-4.992.94-1.872 0-3.61-.322-5.213-.964-1.6-.64-2.99-1.577-4.16-2.806-1.172-1.23-2.09-2.73-2.746-4.504-.66-1.775-.99-3.785-.99-6.03v-3.004c0-2.034.232-3.918.697-5.652.464-1.733 1.11-3.312 1.94-4.736.83-1.424 1.823-2.686 2.98-3.784 1.155-1.1 2.425-2.022 3.81-2.77 1.382-.75 2.86-1.32 4.43-1.71 1.57-.39 3.187-.586 4.847-.586h1.32zM50.922 58.45c-1.09 0-2.002.252-2.734.757-.734.505-1.28 1.123-1.638 1.855v2.466c0 2.295.395 3.992 1.184 5.09.79 1.1 1.95 1.648 3.48 1.648.634 0 1.22-.15 1.757-.452.537-.3 1-.716 1.392-1.245.39-.53.695-1.153.916-1.87.22-.716.33-1.497.33-2.344 0-.91-.12-1.733-.354-2.466-.235-.73-.56-1.354-.977-1.867-.415-.513-.908-.903-1.478-1.172-.57-.265-1.196-.4-1.88-.4z" fill="#fff"/></svg>