<?xml version="1.0" encoding="iso-8859-1"?>
<!-- Generator: Adobe Illustrator 18.0.0, SVG Export Plug-In . SVG Version: 6.00 Build 0)  -->
<!DOCTYPE svg PUBLIC "-//W3C//DTD SVG 1.1//EN" "http://www.w3.org/Graphics/SVG/1.1/DTD/svg11.dtd">
<svg version="1.1" xmlns="http://www.w3.org/2000/svg" xmlns:xlink="http://www.w3.org/1999/xlink" x="0px" y="0px"
	 viewBox="0 0 108.333 107.815" style="enable-background:new 0 0 108.333 107.815;" xml:space="preserve">
<g id="_x32_">
	<circle style="fill:#FFD300;" cx="50.072" cy="57.743" r="50.072"/>
	<circle style="fill:#FFD300;" cx="85.789" cy="22.544" r="22.545"/>
	<circle style="opacity:0.1;" cx="85.789" cy="22.544" r="22.545"/>
	<path style="fill:#FFFFFF;" d="M95.027,17.422v-1.901c0-5.184-4.218-9.402-9.403-9.402c-5.185,0-9.403,4.218-9.403,9.402v1.901
		h-1.743v17.481H97.1V17.422H95.027z M79.351,15.521c0-3.459,2.814-6.272,6.273-6.272c3.459,0,6.273,2.814,6.273,6.272v1.901H79.351
		V15.521z M87.725,30.56h-4.017l1.216-4.872c-0.973-0.34-1.675-1.255-1.675-2.344c0-1.376,1.116-2.492,2.492-2.492
		c1.376,0,2.492,1.116,2.492,2.492c0,1.036-0.633,1.923-1.532,2.3L87.725,30.56z"/>
	<g>
		<path style="fill:#FFFFFF;" d="M63.276,76.125H38.471v-5.371l11.426-12.012c1.514-1.725,2.596-3.202,3.247-4.431
			c0.65-1.229,0.977-2.299,0.977-3.21c0-1.53-0.334-2.693-1.001-3.491c-0.668-0.797-1.636-1.196-2.905-1.196
			c-0.635,0-1.213,0.143-1.733,0.427c-0.521,0.285-0.964,0.68-1.331,1.184c-0.365,0.505-0.65,1.095-0.854,1.77
			c-0.204,0.676-0.306,1.412-0.306,2.209h-8.252c0-1.627,0.306-3.166,0.915-4.614c0.611-1.448,1.474-2.718,2.588-3.809
			c1.115-1.09,2.45-1.949,4.004-2.576c1.555-0.626,3.275-0.94,5.164-0.94c1.969,0,3.699,0.232,5.188,0.696
			c1.49,0.464,2.738,1.135,3.748,2.014c1.009,0.879,1.77,1.958,2.283,3.235c0.512,1.278,0.769,2.73,0.769,4.358
			c0,1.237-0.195,2.421-0.586,3.552c-0.391,1.131-0.952,2.258-1.685,3.381s-1.628,2.271-2.686,3.442
			c-1.059,1.172-2.246,2.417-3.564,3.735l-4.59,5.298h13.989V76.125z"/>
	</g>
</g>
<g id="Layer_1">
</g>
</svg>
