<?xml version="1.0" encoding="iso-8859-1"?>
<!-- Generator: Adobe Illustrator 18.0.0, SVG Export Plug-In . SVG Version: 6.00 Build 0)  -->
<!DOCTYPE svg PUBLIC "-//W3C//DTD SVG 1.1//EN" "http://www.w3.org/Graphics/SVG/1.1/DTD/svg11.dtd">
<svg version="1.1" xmlns="http://www.w3.org/2000/svg" xmlns:xlink="http://www.w3.org/1999/xlink" x="0px" y="0px"
	 viewBox="0 0 100.144 100.144" style="enable-background:new 0 0 100.144 100.144;" xml:space="preserve">
<g id="_x35_-memory">
	<circle style="fill:#B756C5;" cx="50.072" cy="50.072" r="50.072"/>
	<g id="New_Symbol_25">
		<rect x="25.513" y="71.692" style="opacity:0.1;" width="49.118" height="7.986"/>
		<path style="fill:#FFC805;" d="M50.138,19.545c-11.284,0-20.432,9.148-20.432,20.432v32.936h40.863V39.977
			C70.569,28.693,61.422,19.545,50.138,19.545z"/>
		<path style="opacity:0.1;" d="M50.138,19.545c-11.284,0-20.432,9.148-20.432,20.432v7.987c0-11.284,9.148-20.432,20.432-20.432
			c11.284,0,20.432,9.148,20.432,20.432v-7.987C70.569,28.693,61.422,19.545,50.138,19.545z"/>
		<path style="fill:#845930;" d="M73.649,75.992H26.628V39.977c0-12.963,10.548-23.511,23.511-23.511s23.511,10.548,23.511,23.511
			V75.992z M32.786,69.833H67.49V39.977c0-9.568-7.784-17.352-17.352-17.352c-9.568,0-17.352,7.784-17.352,17.352V69.833z"/>
		<rect x="25.513" y="68.919" style="fill:#B07644;" width="49.118" height="7.986"/>
		<path style="fill:#F8F7F3;" d="M45.59,53.698v-1.467c0-1.269,0.318-2.371,0.956-3.31c0.637-0.938,1.803-1.936,3.497-2.993
			c1.632-0.991,2.708-1.797,3.229-2.418c0.521-0.621,0.78-1.315,0.78-2.081c0-0.859-0.373-1.513-1.119-1.963
			c-0.746-0.448-1.787-0.674-3.124-0.674c-2.331,0-4.989,0.648-7.974,1.942l-2.541-4.34c3.466-1.652,7.142-2.479,11.028-2.479
			c3.201,0,5.746,0.654,7.635,1.963c1.889,1.308,2.833,3.052,2.833,5.232c0,1.454-0.389,2.709-1.166,3.766
			c-0.777,1.058-2.254,2.247-4.43,3.568c-1.492,0.939-2.437,1.651-2.833,2.141c-0.395,0.488-0.594,1.13-0.594,1.922v1.19H45.59z
			 M44.844,60.478c0-1.11,0.35-1.949,1.05-2.518c0.699-0.568,1.717-0.853,3.054-0.853c1.29,0,2.288,0.291,2.996,0.872
			c0.707,0.582,1.061,1.414,1.061,2.498c0,1.044-0.357,1.866-1.072,2.468c-0.715,0.601-1.71,0.901-2.984,0.901
			c-1.306,0-2.316-0.294-3.031-0.882C45.201,62.377,44.844,61.548,44.844,60.478z"/>
	</g>
</g>
<g id="Layer_1">
</g>
</svg>
