<?xml version="1.0" encoding="iso-8859-1"?>
<!-- Generator: Adobe Illustrator 18.0.0, SVG Export Plug-In . SVG Version: 6.00 Build 0)  -->
<!DOCTYPE svg PUBLIC "-//W3C//DTD SVG 1.1//EN" "http://www.w3.org/Graphics/SVG/1.1/DTD/svg11.dtd">
<svg version="1.1" xmlns="http://www.w3.org/2000/svg" xmlns:xlink="http://www.w3.org/1999/xlink" x="0px" y="0px"
	 viewBox="0 0 100.144 156.644" style="enable-background:new 0 0 100.144 156.644;" xml:space="preserve">
<g id="zz-candy">
	<circle style="fill:#83CE00;" cx="50.072" cy="50.072" r="50.072"/>
<!--	<circle style="fill:#EC4180;" cx="78.73" cy="135.841" r="20.802"/>-->
	<path style="fill:#88391D;" d="M30.502,26.571h16.114c-0.369-0.927-0.578-1.936-0.578-2.995c0-0.75,0.11-1.472,0.3-2.161H25.414
		V74.73l5.088-5.088V26.571z"/>
	<path style="fill:#88391D;" d="M73.642,51.428v18.283h-43.14v-0.069l-5.088,5.088H78.73V52.052
		c-0.524,0.106-1.066,0.163-1.621,0.163C75.867,52.215,74.695,51.927,73.642,51.428z"/>
	<path style="opacity:0.15;" d="M73.642,51.428v18.283h-43.14v-0.069l-5.088,5.088H78.73V52.052
		c-0.524,0.106-1.066,0.163-1.621,0.163C75.867,52.215,74.695,51.927,73.642,51.428z"/>
	<path style="fill:#A95728;" d="M30.502,69.642v0.069l6.535-6.535h-0.13V33.064h11.955c0.371-0.859,0.891-1.637,1.52-2.312
		c-1.705-0.895-3.048-2.378-3.767-4.182H30.502V69.642z"/>
	<path style="fill:#A95728;" d="M37.037,63.176l-6.535,6.535h43.14V51.428c-0.996-0.473-1.878-1.14-2.6-1.956
		c-1.075,1.111-2.463,1.912-4.023,2.266v11.438H37.037z"/>
	<path style="opacity:0.15;" d="M37.037,63.176l-6.535,6.535h43.14V51.428c-0.996-0.473-1.878-1.14-2.6-1.956
		c-1.075,1.111-2.463,1.912-4.023,2.266v11.438H37.037z"/>
	<path style="fill:#CB712E;" d="M36.907,63.176h0.13h29.982V51.738c-0.579,0.131-1.179,0.207-1.798,0.207
		c-4.309,0-7.822-3.364-8.08-7.608c-0.275,0.028-0.553,0.043-0.836,0.043c-4.476,0-8.105-3.629-8.105-8.106
		c0-1.141,0.238-2.225,0.663-3.21H36.907V63.176z"/>
</g>
<g id="Layer_1">
</g>
</svg>
