<svg xmlns="http://www.w3.org/2000/svg" viewBox="0 0 108.333 107.815" enable-background="new 0 0 108.333 107.815"><circle cx="50.072" cy="57.743" r="50.072" fill="#FFD300"/><circle cx="85.789" cy="22.544" r="22.545" fill="#FFD300"/><circle cx="85.789" cy="22.544" r="22.545" opacity=".1"/><path d="M95.027 17.422v-1.9c0-5.185-4.218-9.403-9.403-9.403-5.185 0-9.403 4.216-9.403 9.4v1.9h-1.74V34.9H97.1V17.42h-2.073zm-15.676-1.9c0-3.46 2.816-6.273 6.275-6.273 3.46 0 6.273 2.812 6.273 6.27v1.9H79.35v-1.9zm8.376 15.038H83.71l1.215-4.872c-.973-.34-1.675-1.255-1.675-2.344 0-1.376 1.115-2.492 2.49-2.492 1.377 0 2.493 1.116 2.493 2.492 0 1.036-.633 1.923-1.532 2.3l1.026 4.916zM49.81 76.126H25.007v-5.37l11.426-12.013c1.514-1.725 2.596-3.202 3.247-4.43.65-1.23.976-2.3.976-3.21 0-1.53-.334-2.694-1-3.492-.67-.795-1.637-1.194-2.906-1.194-.635 0-1.213.143-1.733.427-.52.285-.964.68-1.33 1.184-.366.505-.65 1.095-.855 1.77-.204.676-.306 1.412-.306 2.21h-8.252c0-1.628.306-3.167.915-4.615.61-1.447 1.472-2.717 2.586-3.808 1.115-1.09 2.45-1.95 4.004-2.576 1.556-.626 3.276-.94 5.165-.94 1.97 0 3.7.232 5.188.696 1.49.464 2.738 1.135 3.748 2.014 1.01.88 1.77 1.958 2.285 3.235.512 1.28.77 2.73.77 4.36 0 1.236-.196 2.42-.587 3.55-.39 1.132-.952 2.26-1.685 3.382s-1.628 2.27-2.686 3.442c-1.06 1.172-2.246 2.417-3.564 3.735l-4.59 5.297h13.99v6.35zM76.618 61.6c0 2.57-.302 4.796-.903 6.676-.603 1.88-1.45 3.438-2.54 4.675-1.09 1.24-2.392 2.16-3.905 2.76s-3.183.904-5.005.904c-1.84 0-3.52-.3-5.04-.903-1.523-.6-2.83-1.52-3.92-2.76-1.09-1.235-1.94-2.793-2.552-4.673-.61-1.88-.915-4.105-.915-6.677v-6.495c0-2.555.3-4.777.903-6.665s1.45-3.45 2.54-4.688c1.09-1.237 2.394-2.156 3.907-2.76 1.514-.6 3.19-.902 5.03-.902 1.82 0 3.494.3 5.017.903 1.52.603 2.827 1.522 3.918 2.76 1.09 1.236 1.942 2.8 2.552 4.687.61 1.888.916 4.11.916 6.665V61.6zm-8.227-7.545c0-1.416-.096-2.608-.29-3.577-.196-.968-.474-1.753-.83-2.356-.36-.602-.795-1.033-1.307-1.294-.514-.26-1.096-.39-1.746-.39-.65 0-1.232.13-1.746.39-.51.26-.942.692-1.292 1.294-.35.603-.62 1.388-.807 2.356-.186.97-.28 2.16-.28 3.577V62.6c0 1.45.095 2.66.28 3.638.19.977.46 1.762.82 2.356.356.594.796 1.02 1.317 1.282.52.26 1.106.39 1.758.39.635 0 1.21-.13 1.72-.39.515-.26.95-.688 1.308-1.282.357-.594.63-1.38.818-2.356.188-.977.28-2.19.28-3.638v-8.545z" fill="#fff"/></svg>