<?xml version="1.0" encoding="iso-8859-1"?>
<!-- Generator: Adobe Illustrator 18.0.0, SVG Export Plug-In . SVG Version: 6.00 Build 0)  -->
<!DOCTYPE svg PUBLIC "-//W3C//DTD SVG 1.1//EN" "http://www.w3.org/Graphics/SVG/1.1/DTD/svg11.dtd">
<svg version="1.1" xmlns="http://www.w3.org/2000/svg" xmlns:xlink="http://www.w3.org/1999/xlink" x="0px" y="0px"
	 viewBox="0 0 100.144 100.144" style="enable-background:new 0 0 100.144 100.144;" xml:space="preserve">
<g id="_x36_-presentdrop">
	<circle style="fill:#B756C5;" cx="50.072" cy="50.072" r="50.072"/>
	<rect x="34.727" y="46.976" style="fill:#FFFFFF;" width="30.76" height="40.052"/>
	<rect x="29.656" y="41.014" style="fill:#FFFFFF;" width="40.709" height="18.599"/>
	<line style="fill:none;stroke:#A4A6A9;stroke-width:2;stroke-miterlimit:10;" x1="34.797" y1="77.937" x2="65.613" y2="77.937"/>
	<line style="fill:none;stroke:#A4A6A9;stroke-width:2;stroke-miterlimit:10;" x1="34.797" y1="68.697" x2="65.613" y2="68.697"/>
	<line style="fill:none;stroke:#A4A6A9;stroke-width:2;stroke-miterlimit:10;" x1="29.617" y1="59.612" x2="70.262" y2="59.612"/>
	<line style="fill:none;stroke:#A4A6A9;stroke-width:2;stroke-miterlimit:10;" x1="29.485" y1="50.371" x2="70.395" y2="50.371"/>
	<line style="fill:#B757C5;" x1="29.75" y1="41.131" x2="70.66" y2="41.131"/>
	<line style="fill:none;stroke:#A4A6A9;stroke-width:2;stroke-miterlimit:10;" x1="40.242" y1="50.528" x2="40.242" y2="59.769"/>
	<line style="fill:none;stroke:#A4A6A9;stroke-width:2;stroke-miterlimit:10;" x1="40.242" y1="69.01" x2="40.242" y2="78.251"/>
	<line style="fill:none;stroke:#A4A6A9;stroke-width:2;stroke-miterlimit:10;" x1="59.37" y1="50.528" x2="59.37" y2="59.769"/>
	<line style="fill:none;stroke:#A4A6A9;stroke-width:2;stroke-miterlimit:10;" x1="59.37" y1="69.01" x2="59.37" y2="78.251"/>
	<line style="fill:none;stroke:#A4A6A9;stroke-width:2;stroke-miterlimit:10;" x1="50.072" y1="41.287" x2="50.072" y2="50.528"/>
	<line style="fill:none;stroke:#A4A6A9;stroke-width:2;stroke-miterlimit:10;" x1="50.072" y1="59.612" x2="50.072" y2="68.853"/>
	<line style="fill:none;stroke:#A4A6A9;stroke-width:2;stroke-miterlimit:10;" x1="50.072" y1="77.781" x2="50.072" y2="87.021"/>
	<rect x="39.959" y="13.116" style="fill:#D84637;" width="20.861" height="20.863"/>
	<polygon style="fill:#FFDE00;" points="51.536,22.435 51.536,13.116 48.886,13.116 48.886,22.435 39.959,22.435 39.959,25.087 
		48.886,25.087 48.886,33.979 51.536,33.979 51.536,25.087 60.821,25.087 60.821,22.435 	"/>
</g>
<g id="Layer_1">
</g>
</svg>
