<?xml version="1.0" encoding="iso-8859-1"?>
<!-- Generator: Adobe Illustrator 18.0.0, SVG Export Plug-In . SVG Version: 6.00 Build 0)  -->
<!DOCTYPE svg PUBLIC "-//W3C//DTD SVG 1.1//EN" "http://www.w3.org/Graphics/SVG/1.1/DTD/svg11.dtd">
<svg version="1.1" xmlns="http://www.w3.org/2000/svg" xmlns:xlink="http://www.w3.org/1999/xlink" x="0px" y="0px"
	 viewBox="0 0 108.333 107.815" style="enable-background:new 0 0 108.333 107.815;" xml:space="preserve">
<g id="_x32_3">
	<circle style="fill:#FF8933;" cx="50.072" cy="57.743" r="50.072"/>
	<circle style="fill:#FF8933;" cx="85.789" cy="22.544" r="22.545"/>
	<circle style="opacity:0.1;" cx="85.789" cy="22.544" r="22.545"/>
	<path style="fill:#FFFFFF;" d="M95.027,17.422v-1.901c0-5.184-4.218-9.402-9.403-9.402c-5.185,0-9.403,4.218-9.403,9.402v1.901
		h-1.743v17.481H97.1V17.422H95.027z M79.351,15.521c0-3.459,2.814-6.272,6.273-6.272c3.459,0,6.273,2.814,6.273,6.272v1.901H79.351
		V15.521z M87.725,30.56h-4.017l1.216-4.872c-0.973-0.34-1.675-1.255-1.675-2.344c0-1.376,1.116-2.492,2.492-2.492
		c1.376,0,2.492,1.116,2.492,2.492c0,1.036-0.633,1.923-1.532,2.3L87.725,30.56z"/>
	<g>
		<path style="fill:#FFFFFF;" d="M49.596,76.126H24.792v-5.371l11.426-12.012c1.514-1.725,2.596-3.202,3.247-4.431
			c0.65-1.229,0.977-2.299,0.977-3.21c0-1.53-0.334-2.693-1.001-3.491c-0.668-0.797-1.636-1.196-2.905-1.196
			c-0.635,0-1.213,0.143-1.733,0.427c-0.521,0.285-0.964,0.68-1.331,1.184c-0.365,0.505-0.65,1.095-0.854,1.77
			c-0.204,0.676-0.306,1.412-0.306,2.209h-8.252c0-1.627,0.306-3.166,0.915-4.614c0.611-1.448,1.474-2.718,2.588-3.809
			c1.115-1.09,2.45-1.949,4.004-2.576c1.555-0.626,3.275-0.94,5.164-0.94c1.969,0,3.699,0.232,5.188,0.696
			c1.49,0.464,2.738,1.135,3.748,2.014c1.009,0.879,1.77,1.958,2.283,3.235c0.512,1.278,0.769,2.73,0.769,4.358
			c0,1.237-0.195,2.421-0.586,3.552c-0.391,1.131-0.952,2.258-1.685,3.381s-1.628,2.271-2.686,3.442
			c-1.059,1.172-2.246,2.417-3.564,3.735l-4.59,5.298h13.989V76.126z"/>
		<path style="fill:#FFFFFF;" d="M59.672,54.91h4.004c1.529,0,2.661-0.403,3.394-1.208s1.099-1.908,1.099-3.308
			c0-0.537-0.085-1.045-0.257-1.526c-0.17-0.48-0.427-0.903-0.769-1.27s-0.777-0.655-1.306-0.867
			c-0.529-0.211-1.152-0.317-1.868-0.317c-0.505,0-0.997,0.078-1.478,0.232c-0.479,0.155-0.911,0.375-1.293,0.659
			c-0.383,0.285-0.692,0.631-0.928,1.038c-0.236,0.407-0.354,0.871-0.354,1.392h-8.228c0-1.514,0.325-2.869,0.977-4.065
			c0.65-1.196,1.529-2.209,2.637-3.04c1.106-0.83,2.381-1.465,3.82-1.904c1.441-0.439,2.958-0.659,4.554-0.659
			c1.888,0,3.613,0.22,5.176,0.659s2.901,1.086,4.017,1.941c1.114,0.854,1.98,1.913,2.6,3.174c0.618,1.262,0.928,2.722,0.928,4.382
			c0,0.814-0.131,1.595-0.391,2.344c-0.261,0.749-0.627,1.453-1.099,2.112c-0.473,0.659-1.05,1.257-1.733,1.794
			s-1.44,1.001-2.271,1.392c1.888,0.684,3.369,1.721,4.443,3.113s1.611,3.113,1.611,5.164c0,1.66-0.338,3.142-1.013,4.443
			c-0.676,1.302-1.608,2.401-2.796,3.296c-1.188,0.896-2.592,1.575-4.212,2.039c-1.619,0.464-3.373,0.696-5.261,0.696
			c-0.993,0-1.989-0.09-2.991-0.269c-1-0.179-1.965-0.447-2.893-0.806c-0.928-0.358-1.799-0.818-2.612-1.379
			c-0.814-0.562-1.518-1.229-2.112-2.002c-0.594-0.773-1.065-1.648-1.416-2.625c-0.35-0.977-0.524-2.075-0.524-3.296h8.276
			c0,0.57,0.122,1.099,0.366,1.587s0.573,0.916,0.989,1.282c0.414,0.366,0.898,0.651,1.452,0.854
			c0.553,0.204,1.139,0.305,1.758,0.305c0.748,0,1.42-0.11,2.015-0.33c0.594-0.22,1.094-0.525,1.501-0.916
			c0.406-0.391,0.716-0.846,0.928-1.367c0.211-0.521,0.317-1.082,0.317-1.685c0-1.79-0.448-3.06-1.343-3.809
			c-0.896-0.749-2.133-1.123-3.711-1.123h-4.004V54.91z"/>
	</g>
</g>
<g id="Layer_1">
</g>
</svg>
