<?xml version="1.0" encoding="iso-8859-1"?>
<!-- Generator: Adobe Illustrator 18.0.0, SVG Export Plug-In . SVG Version: 6.00 Build 0)  -->
<!DOCTYPE svg PUBLIC "-//W3C//DTD SVG 1.1//EN" "http://www.w3.org/Graphics/SVG/1.1/DTD/svg11.dtd">
<svg version="1.1" xmlns="http://www.w3.org/2000/svg" xmlns:xlink="http://www.w3.org/1999/xlink" x="0px" y="0px"
	 viewBox="0 0 100.144 100.144" style="enable-background:new 0 0 100.144 100.144;" xml:space="preserve">
<g id="_x38_-jamband">
	<circle style="fill:#FFD300;" cx="50.072" cy="50.072" r="50.072"/>
	<ellipse style="fill:#EC4180;" cx="50.776" cy="52.519" rx="25.819" ry="28.063"/>
	<ellipse style="fill:#EC4180;" cx="50.776" cy="52.378" rx="15.073" ry="18.592"/>
	<path style="fill:#EC4180;" d="M57.902,81.892c0,3.627-3.079,6.567-6.878,6.567l0,0c-3.799,0-6.878-2.94-6.878-6.567v-5.254
		c0-3.627,3.079-6.567,6.878-6.567l0,0c3.799,0,6.878,2.94,6.878,6.567V81.892z"/>
	<path style="fill:#EC4180;" d="M53.955,39.603c7.229,0,13.219-3.353,14.298-7.736c-4.598-4.599-10.734-7.411-17.476-7.411
		c-3.537,0-6.907,0.775-9.976,2.174c-0.844,1.162-1.318,2.454-1.318,3.816C39.482,35.503,45.962,39.603,53.955,39.603z"/>
	<ellipse style="fill:#EC4180;" cx="51.061" cy="18.867" rx="5.076" ry="11.846"/>
	<ellipse style="fill:#EC4180;" cx="51.231" cy="26.209" rx="12.329" ry="11.771"/>
	<ellipse style="fill:#EC4180;" cx="40.769" cy="26.585" rx="0.705" ry="3.231"/>
	<ellipse style="fill:#EC4180;" cx="61.542" cy="26.585" rx="0.705" ry="3.231"/>
	<path style="fill:#EC4180;" d="M59.944,71.021"/>
	<rect x="29.665" y="51.355" style="fill:#EC4180;" width="40.065" height="5.366"/>
	<rect x="45.451" y="58.624" style="fill:#EC4180;" width="9.035" height="8.625"/>
	<polygon style="fill:#EC4180;" points="50.45,63.411 54.486,63.411 54.486,62.316 50.45,62.316 50.45,58.624 49.303,58.624 
		49.303,62.316 45.451,62.316 45.451,63.411 49.303,63.411 49.303,67.249 50.45,67.249 	"/>
	<rect x="52.117" y="42.863" style="fill:#EC4180;" width="8.073" height="7.706"/>
	<polygon style="fill:#EC4180;" points="56.742,47.294 60.19,47.294 60.19,45.962 56.742,45.962 56.742,42.863 55.347,42.863 
		55.347,45.962 52.117,45.962 52.117,47.294 55.347,47.294 55.347,50.568 56.742,50.568 	"/>
	<rect x="42.258" y="42.917" style="fill:#EC4180;" width="8.073" height="7.706"/>
	<polygon style="fill:#EC4180;" points="46.883,47.349 50.331,47.349 50.331,46.017 46.883,46.017 46.883,42.918 45.488,42.918 
		45.488,46.017 42.258,46.017 42.258,47.349 45.488,47.349 45.488,50.623 46.883,50.623 	"/>
	<g>
		<path style="fill:#FFFFFF;" d="M42.007,42.218h-6.05v16.407h-4.859V42.218h-5.94v-3.752h16.85V42.218z"/>
		<path style="fill:#FFFFFF;" d="M43.294,58.625V38.466h7.24c1.246,0,2.361,0.113,3.344,0.339c0.983,0.226,1.816,0.57,2.499,1.031
			c0.684,0.462,1.205,1.041,1.564,1.738c0.36,0.697,0.54,1.516,0.54,2.458c0,0.461-0.051,0.907-0.152,1.336
			s-0.266,0.833-0.491,1.211c-0.227,0.379-0.52,0.718-0.879,1.018c-0.36,0.3-0.799,0.547-1.315,0.741
			c0.6,0.157,1.107,0.383,1.522,0.679c0.416,0.295,0.753,0.637,1.011,1.024c0.259,0.388,0.445,0.805,0.562,1.253
			c0.115,0.448,0.173,0.902,0.173,1.364c0,1.994-0.637,3.487-1.911,4.479c-1.273,0.992-3.161,1.488-5.662,1.488H43.294z
			 M48.154,46.87h2.533c1.062-0.009,1.818-0.203,2.271-0.582s0.679-0.937,0.679-1.675c0-0.849-0.244-1.461-0.733-1.834
			c-0.489-0.374-1.279-0.561-2.368-0.561h-2.381V46.87z M48.154,50.054v4.832h3.185c0.489,0,0.906-0.06,1.253-0.18
			c0.346-0.12,0.627-0.284,0.845-0.492c0.216-0.208,0.376-0.45,0.478-0.727s0.152-0.577,0.152-0.9c0-0.388-0.047-0.738-0.139-1.052
			c-0.093-0.313-0.24-0.579-0.443-0.796s-0.466-0.385-0.789-0.505s-0.716-0.18-1.177-0.18H48.154z"/>
		<path style="fill:#FFFFFF;" d="M60.994,58.625V38.466h6.493c1.365,0,2.621,0.235,3.766,0.706s2.13,1.133,2.956,1.987
			c0.826,0.854,1.47,1.874,1.932,3.06c0.461,1.186,0.692,2.49,0.692,3.911v0.845c0,1.431-0.231,2.737-0.692,3.918
			c-0.462,1.182-1.105,2.197-1.932,3.046c-0.826,0.85-1.807,1.509-2.942,1.98c-1.135,0.471-2.377,0.706-3.725,0.706H60.994z
			 M65.854,42.218v12.668h1.688c1.395,0,2.465-0.496,3.213-1.488c0.747-0.992,1.121-2.467,1.121-4.423v-0.873
			c0-1.947-0.374-3.415-1.121-4.403c-0.748-0.987-1.837-1.481-3.268-1.481H65.854z"/>
	</g>
</g>
<g id="Layer_1">
</g>
</svg>
