<?xml version="1.0" encoding="utf-8"?>
<!-- Generator: Adobe Illustrator 18.0.0, SVG Export Plug-In . SVG Version: 6.00 Build 0)  -->
<!DOCTYPE svg PUBLIC "-//W3C//DTD SVG 1.1//EN" "http://www.w3.org/Graphics/SVG/1.1/DTD/svg11.dtd">
<svg version="1.1" id="Layer_1" xmlns="http://www.w3.org/2000/svg" xmlns:xlink="http://www.w3.org/1999/xlink" x="0px" y="0px"
	 viewBox="0 0 100.1 100.1" enable-background="new 0 0 100.1 100.1" xml:space="preserve">
<g id="_x31_9-traditions">
	<circle fill="#FFD300" cx="50.1" cy="50.1" r="50.1"/>
	<g id="New_Symbol_35">
		<g id="New_Symbol_31">
			<path fill="#24B6E9" d="M23.7,66.1L23.7,66.1c-0.4-0.6-0.7-1.2-1.1-1.9l1.1,0.3L23.7,66.1z"/>
			<path fill="#24B6E9" d="M22.9,59.8l0.3,1.7l-1.7,0.3c-0.4-0.9-0.7-1.7-1-2.6l1.4-0.3L22.9,59.8z"/>
			<path fill="#24B6E9" d="M32.2,72.3l-2-3.6c0,0,0,0,0,0l-5.8-2.5l1.1-3.7c0,0,0,0,0,0l0-5.9l0.4,0.1l0,2.1c0,0,0,0.1,0,0.1
				c0,0,0.1,0,0.1,0l0.4-0.3c0,0,0,0,0,0l0.5-1.6c0,0,0,0,0,0l-0.1-2.1l0.2-1.9c0,0,0-0.1-0.1-0.1l-3.1-1.1l-0.7-1.3c0,0,0,0,0,0
				l-2-0.7l-0.4-1.6c0,0,0,0,0,0l5.8-3.9l0.1,0c0,0,0.1,0,0.1,0c0,0,0-0.1,0-0.1l-4-1.4c0,0-0.1,0-0.1,0l-1.6,1.9l-1.2,0.2
				c0.6-3.6,1.9-7.1,3.7-10.2l4.3,1.1l2.5,5.1l5.9,6l2.2,4.5c0,0,0,0,0,0c0,0,0.1,0,0.1,0c0,0,0,0,0,0l3.2-2.2c0,0,0,0,0-0.1
				l0.3-2.3l5.3-4.7c0,0,0-0.1,0-0.1l-0.6-1.7l1.7-2.1l0.3,0.5l-1.1,1.9c0,0,0,0.1,0,0.1l0.7,1.2l-0.7,2.4c0,0,0,0,0,0.1
				c0,0,0,0,0.1,0l1.4,0.1c0,0,0,0,0.1,0l2.7-2.9c0,0,0,0,0-0.1l-0.1-4.3l0.8-0.2l0.5,3.4l-0.8,4.7l-1.5,0.8c0,0,0,0,0,0
				c0,0,0,0,0,0.1l1,1.8c0,0,0,0,0,0l2.4,1.1l3.6,5.5c0,0,0,0,0,0l9.9,4.9c0,0,0,0,0,0l3.9-0.5c0,0,0,0,0,0c0,0,0,0,0,0
				c0,0,0,0,0-0.1l-1.8-5c0,0,0,0,0,0l-3.9-2.8l-1-3.4l1.5-3.1l3.3-1.9c0,0,0,0,0,0l2-8c0,0,0-0.1,0-0.1L66,29.2c0,0,0,0-0.1,0
				L62,29.6l-2-1.3c0,0-0.1,0-0.1,0l-2.4,1.3c0,0,0,0,0,0l-1.1,2.1L53,33.8l-1.7,0l1.9-2.1c0,0,0,0,0,0l1-3.6l0.7,1.2
				c0,0,0.1,0,0.1,0l0.9-0.3c0,0,0,0,0,0c0,0,0,0,0-0.1l-0.6-1.4l3.4,0.5c0,0,0.1,0,0.1-0.1l0.3-1.2c0,0,0,0,0-0.1l-0.6-1.1
				c0,0-0.1,0-0.1,0l-1.2,0.5l0-0.9c0,0,0-0.1-0.1-0.1l-2.8-0.2c0,0-0.1,0-0.1,0l-1.1,1.6L52.4,27l-1.3-1.3l0-1.4l1.4,1
				c0,0,0,0,0.1,0s0,0,0,0l1.1-1.8c0,0,0,0,0-0.1c0,0,0,0,0,0l-3-1.6c0,0-0.1,0-0.1,0l-2.3,1.8c0,0,0,0.1,0,0.1l0.6,1l-2.7,1.5
				l-1.9-0.6c0,0,0,0-0.1,0l-2,1l-3.7,0c0,0,0,0,0,0l-4.2,1.2c0,0,0,0-0.1,0.1l-0.5,3.6h-8.3c5.6-7.4,14.5-12.2,24.5-12.2
				C67.1,19.2,81,33,81,50.1C81,67.1,67.1,81,50.1,81c-7,0-13.4-2.3-18.6-6.3L32.2,72.3C32.2,72.3,32.2,72.3,32.2,72.3z"/>
			<path fill="#028F4A" d="M19.7,44.6l1.2-0.2l1.6-1.9c0,0,0.1,0,0.1,0l4,1.4c0,0,0.1,0.1,0,0.1s-0.1,0.1-0.1,0l-0.1,0l-5.8,3.9
				c0,0,0,0,0,0l0.4,1.6l2,0.7c0,0,0,0,0,0l0.7,1.3l3.1,1.1c0,0,0.1,0,0.1,0.1l-0.2,1.9l0.1,2.1c0,0,0,0,0,0l-0.5,1.6c0,0,0,0,0,0
				L26,58.7c0,0-0.1,0-0.1,0c0,0,0,0,0-0.1l0-2.1l-0.4-0.1l0,5.9c0,0,0,0,0,0l-1.1,3.7l5.8,2.5c0,0,0,0,0,0l2,3.6c0,0,0,0,0,0.1
				l-0.8,2.4c-3.1-2.4-5.8-5.3-7.8-8.6l0,0l0-1.6l-1.1-0.3c-0.4-0.8-0.8-1.5-1.1-2.3l1.7-0.3l-0.3-1.7l-1-1l-1.4,0.3
				c-0.9-2.9-1.4-6-1.4-9.1C19.2,48.2,19.4,46.4,19.7,44.6z"/>
			<path fill="#028F4A" d="M34.3,27.8C34.3,27.7,34.3,27.7,34.3,27.8l4.2-1.3c0,0,0,0,0,0l3.7,0l2-1c0,0,0,0,0.1,0l1.9,0.6l2.7-1.5
				l-0.6-1c0,0,0-0.1,0-0.1l2.3-1.8c0,0,0.1,0,0.1,0l3,1.6c0,0,0,0,0,0s0,0,0,0.1l-1.1,1.8c0,0,0,0,0,0s0,0-0.1,0l-1.4-1l0,1.4
				l1.3,1.3l0.8-0.5l1.1-1.6c0,0,0,0,0.1,0l2.8,0.2c0,0,0.1,0,0.1,0.1l0,0.9l1.2-0.5c0,0,0.1,0,0.1,0l0.6,1.1c0,0,0,0,0,0.1
				l-0.3,1.2c0,0,0,0.1-0.1,0.1l-3.4-0.5l0.6,1.4c0,0,0,0,0,0.1c0,0,0,0,0,0L55,29.4c0,0-0.1,0-0.1,0l-0.7-1.2l-1,3.6c0,0,0,0,0,0
				l-1.9,2.1l1.7,0l3.3-2.1l1.1-2.1c0,0,0,0,0,0l2.4-1.3c0,0,0.1,0,0.1,0l2,1.3l3.9-0.4c0,0,0,0,0.1,0l5.8,5.2c0,0,0,0,0,0.1l-2,8
				c0,0,0,0,0,0l-3.3,1.9l-1.5,3.1l1,3.4l3.9,2.8c0,0,0,0,0,0l1.8,5c0,0,0,0,0,0.1c0,0,0,0,0,0c0,0,0,0,0,0l-3.9,0.5c0,0,0,0,0,0
				l-9.9-4.9c0,0,0,0,0,0l-3.6-5.5l-2.4-1.1c0,0,0,0,0,0l-1-1.8c0,0,0,0,0-0.1c0,0,0,0,0,0l1.5-0.8l0.8-4.7L52.5,37l-0.8,0.2
				l0.1,4.3c0,0,0,0,0,0.1L49,44.4c0,0,0,0-0.1,0l-1.4-0.1c0,0,0,0-0.1,0c0,0,0,0,0-0.1l0.7-2.4l-0.7-1.2c0,0,0-0.1,0-0.1l1.1-1.9
				l-0.3-0.5l-1.7,2.1l0.6,1.7c0,0,0,0.1,0,0.1l-5.3,4.7L41.6,49c0,0,0,0,0,0.1l-3.2,2.2c0,0,0,0,0,0c0,0-0.1,0-0.1,0c0,0,0,0,0,0
				l-2.2-4.5l-5.9-6l-2.5-5.1l-4.3-1.1c0.6-1.1,1.3-2.1,2.1-3.1h8.3L34.3,27.8z"/>
		</g>
		<path opacity="0.15" enable-background="new    " d="M78.7,38.5C80.2,42.1,81,46,81,50.1C81,67.1,67.1,81,50.1,81
			c-10.9,0-20.5-5.7-26-14.2c5.3,3,11.5,4.7,18,4.7C61.1,71.5,76.8,57,78.7,38.5z"/>
	</g>
</g>
<g id="Layer_1_1_">
</g>
</svg>
