<svg xmlns="http://www.w3.org/2000/svg" viewBox="0 0 108.333 107.815" enable-background="new 0 0 108.333 107.815"><g><circle cx="50.072" cy="57.743" r="50.072" fill="#37B049"/><circle cx="85.789" cy="22.544" r="22.545" fill="#37B049"/><circle cx="85.789" cy="22.544" r="22.545" opacity=".1"/><path d="M95.027 17.422v-1.9c0-5.185-4.218-9.403-9.403-9.403-5.185 0-9.403 4.217-9.403 9.4v1.902H74.48v17.48H97.1v-17.48h-2.073zm-15.676-1.9c0-3.46 2.815-6.273 6.274-6.273 3.46 0 6.273 2.813 6.273 6.27v1.902H79.35v-1.9zm8.375 15.038h-4.017l1.216-4.872c-.973-.34-1.675-1.255-1.675-2.344 0-1.376 1.115-2.492 2.49-2.492 1.377 0 2.493 1.116 2.493 2.492 0 1.036-.633 1.923-1.532 2.3l1.025 4.916z" fill="#fff"/><g fill="#fff"><path d="M50.51 76.126H25.708v-5.37l11.426-12.013c1.514-1.725 2.596-3.202 3.247-4.43.65-1.23.977-2.3.977-3.21 0-1.53-.334-2.694-1-3.492-.67-.796-1.637-1.195-2.906-1.195-.634 0-1.212.143-1.732.427-.52.285-.964.68-1.33 1.184-.366.505-.65 1.095-.855 1.77-.204.676-.306 1.412-.306 2.21h-8.252c0-1.628.306-3.167.915-4.615.61-1.447 1.474-2.717 2.588-3.808 1.115-1.09 2.45-1.95 4.004-2.576 1.555-.626 3.275-.94 5.164-.94 1.97 0 3.7.232 5.188.696 1.49.464 2.738 1.135 3.748 2.014 1.01.88 1.77 1.958 2.283 3.235.512 1.28.77 2.73.77 4.36 0 1.236-.196 2.42-.587 3.55-.39 1.132-.952 2.26-1.685 3.382s-1.628 2.27-2.686 3.442c-1.06 1.172-2.246 2.417-3.564 3.735l-4.59 5.297h13.99v6.35zM69.474 76.126h-8.252v-26.27l-8.105 2.368v-6.25l15.6-5.396h.758v35.548z"/></g></g></svg>