<svg xmlns="http://www.w3.org/2000/svg" viewBox="0 0 100.1 100.1" enable-background="new 0 0 100.1 100.1"><circle fill="#83CE00" cx="50.1" cy="50.1" r="50.1"/><path fill="#fff" d="M50.4 47.1c1.1 2.2.2 4.9-2 6l-11.3 5.6c-2.2 1.1-4.9.2-6-2-1.1-2.2-.2-4.9 2-6l11.3-5.6c2.2-1.1 4.9-.2 6 2zm-.7 0c-1.1 2.2-.2 4.9 2 6L63 58.7c2.2 1.1 4.9.2 6-2 1.1-2.2.2-4.9-2-6l-11.3-5.6c-2.2-1.1-4.9-.2-6 2z"/><circle fill="#A2C0CF" cx="35.3" cy="55" r="2.3"/><circle fill="#A2C0CF" cx="64.7" cy="55" r="2.3"/><ellipse fill="#fff" cx="50.3" cy="63.9" rx="12.8" ry="15.9"/><ellipse fill="#FBD5CD" cx="50.1" cy="60.8" rx="9.1" ry="11.4"/><circle fill="#fff" cx="40.9" cy="74.4" r="5.7"/><circle fill="#A2C0CF" cx="40.8" cy="74.4" r="3.8"/><circle fill="#fff" cx="60.7" cy="74.4" r="5.7"/><circle fill="#A2C0CF" cx="60.6" cy="74.4" r="3.8"/><ellipse fill="#fff" cx="50.5" cy="40.2" rx="15.4" ry="11.8"/><path fill="#fff" d="M61.5 26c-1.3 4.9-4 8.4-6 7.8-2-.6-2.6-5-1.4-9.9 1.3-4.9 4-8.4 6-7.8 2.1.6 2.7 5 1.4 9.9zm-23.2 0c1.3 4.9 4 8.4 6 7.8 2-.6 2.6-5 1.4-9.9-1.3-4.9-4-8.4-6-7.8-2.1.6-2.7 5-1.4 9.9z"/><circle fill="#FBD5CD" cx="50.5" cy="43.6" r="6.8"/><circle fill="#333" cx="43.3" cy="36.2" r="2.1"/><circle fill="#333" cx="57.8" cy="36.2" r="2.1"/><path fill="#F2808A" d="M50.5 43.7l-3.6-4.3h7z"/><path fill="#fff" d="M48.4 44.9h2v2.8h-2zm2.5 0h2v2.8h-2z"/></svg>