<?xml version="1.0" encoding="iso-8859-1"?>
<!-- Generator: Adobe Illustrator 18.0.0, SVG Export Plug-In . SVG Version: 6.00 Build 0)  -->
<!DOCTYPE svg PUBLIC "-//W3C//DTD SVG 1.1//EN" "http://www.w3.org/Graphics/SVG/1.1/DTD/svg11.dtd">
<svg version="1.1" xmlns="http://www.w3.org/2000/svg" xmlns:xlink="http://www.w3.org/1999/xlink" x="0px" y="0px"
	 viewBox="0 0 108.333 107.815" style="enable-background:new 0 0 108.333 107.815;" xml:space="preserve">
<g id="_x31_0">
	<circle style="fill:#00B8EF;" cx="50.072" cy="57.743" r="50.072"/>
	<circle style="fill:#00B8EF;" cx="85.789" cy="22.544" r="22.545"/>
	<circle style="opacity:0.1;" cx="85.789" cy="22.544" r="22.545"/>
	<path style="fill:#FFFFFF;" d="M95.027,17.422v-1.901c0-5.184-4.218-9.402-9.403-9.402c-5.185,0-9.403,4.218-9.403,9.402v1.901
		h-1.743v17.481H97.1V17.422H95.027z M79.351,15.521c0-3.459,2.814-6.272,6.273-6.272c3.459,0,6.273,2.814,6.273,6.272v1.901H79.351
		V15.521z M87.725,30.56h-4.017l1.216-4.872c-0.973-0.34-1.675-1.255-1.675-2.344c0-1.376,1.116-2.492,2.492-2.492
		c1.376,0,2.492,1.116,2.492,2.492c0,1.036-0.633,1.923-1.532,2.3L87.725,30.56z"/>
	<g>
		<path style="fill:#FFFFFF;" d="M44.274,76.125h-8.252v-26.27l-8.105,2.368v-6.25l15.602-5.396h0.756V76.125z"/>
		<path style="fill:#FFFFFF;" d="M75.59,61.599c0,2.572-0.303,4.797-0.904,6.677s-1.449,3.438-2.539,4.675
			c-1.09,1.237-2.393,2.157-3.906,2.759s-3.182,0.903-5.004,0.903c-1.84,0-3.52-0.301-5.041-0.903
			c-1.523-0.602-2.83-1.521-3.92-2.759c-1.09-1.237-1.939-2.795-2.551-4.675c-0.609-1.88-0.916-4.105-0.916-6.677v-6.494
			c0-2.555,0.301-4.777,0.904-6.665c0.602-1.888,1.447-3.45,2.539-4.688c1.09-1.237,2.393-2.156,3.906-2.759
			c1.514-0.602,3.189-0.903,5.029-0.903c1.822,0,3.494,0.301,5.018,0.903c1.521,0.603,2.826,1.522,3.918,2.759
			c1.09,1.237,1.941,2.8,2.551,4.688c0.611,1.888,0.916,4.11,0.916,6.665V61.599z M67.362,54.055c0-1.416-0.098-2.608-0.293-3.577
			c-0.195-0.968-0.473-1.753-0.83-2.356c-0.357-0.602-0.793-1.033-1.305-1.294c-0.514-0.26-1.096-0.391-1.746-0.391
			c-0.652,0-1.232,0.13-1.746,0.391c-0.512,0.261-0.943,0.692-1.293,1.294c-0.352,0.603-0.619,1.388-0.807,2.356
			c-0.188,0.969-0.281,2.161-0.281,3.577V62.6c0,1.449,0.094,2.661,0.281,3.638S59.801,68,60.16,68.594
			c0.357,0.594,0.797,1.021,1.318,1.282c0.52,0.261,1.105,0.391,1.758,0.391c0.635,0,1.209-0.13,1.721-0.391
			c0.514-0.26,0.947-0.688,1.307-1.282c0.357-0.594,0.631-1.379,0.818-2.356c0.186-0.977,0.279-2.189,0.279-3.638V54.055z"/>
	</g>
</g>
<g id="Layer_1">
</g>
</svg>
