<svg xmlns="http://www.w3.org/2000/svg" xmlns:xlink="http://www.w3.org/1999/xlink" viewBox="0 0 125 125"><defs><style>.cls-1{fill:none;}.cls-2{isolation:isolate;}.cls-3,.cls-8{opacity:0.2;}.cls-10,.cls-3,.cls-8{mix-blend-mode:multiply;}.cls-4{fill:#f7caad;}.cls-5{fill:#fff;}.cls-6{fill:#e53935;}.cls-7{clip-path:url(#clip-path);}.cls-10,.cls-8{fill:#221f1f;}.cls-9{fill:#212121;}.cls-10{opacity:0.15;}</style><clipPath id="clip-path"><circle id="_Clipping_Path_" data-name="&lt;Clipping Path&gt;" class="cls-1" cx="62.5" cy="-82.5" r="49.56"/></clipPath></defs><title>GemMatch</title><g class="cls-2"><g id="Layer_1" data-name="Layer 1"><g class="cls-3"><path d="M55.13,64.48a7.53,7.53,0,1,1-7.53-7.34A7.43,7.43,0,0,1,55.13,64.48Z"/><path d="M104.29,64.48a7.53,7.53,0,1,1-7.53-7.34A7.44,7.44,0,0,1,104.29,64.48Z"/><circle cx="40.08" cy="25.03" r="8.03"/><path d="M72.19,41.08A26.76,26.76,0,0,0,45.43,67.84V94.59H98.94V67.84A26.76,26.76,0,0,0,72.19,41.08Z"/><path d="M79.54,66.5H28.71c0,27.34,22.63,49.5,50.54,49.5h.29a24.75,24.75,0,1,0,0-49.5Z"/><path d="M48.4,25h-.29v32.1H98.94C98.94,39.4,76.31,25,48.4,25Z"/><rect x="41.42" y="41.08" width="61.54" height="16.05" rx="4.01" ry="4.01"/></g><path class="cls-4" d="M51.13,60.48a7.53,7.53,0,1,1-7.53-7.34A7.43,7.43,0,0,1,51.13,60.48Z"/><path class="cls-4" d="M100.29,60.48a7.53,7.53,0,1,1-7.53-7.34A7.44,7.44,0,0,1,100.29,60.48Z"/><circle class="cls-5" cx="36.08" cy="21.03" r="8.03"/><path class="cls-4" d="M68.19,37.08A26.76,26.76,0,0,0,41.43,63.84V90.59H94.94V63.84A26.76,26.76,0,0,0,68.19,37.08Z"/><path class="cls-5" d="M75.54,62.5H24.71c0,27.34,22.63,49.5,50.54,49.5h.29a24.75,24.75,0,1,0,0-49.5Z"/><path class="cls-6" d="M44.4,21h-.29v32.1H94.94C94.94,35.4,72.31,21,44.4,21Z"/><rect class="cls-5" x="37.42" y="37.08" width="61.54" height="16.05" rx="4.01" ry="4.01"/><g class="cls-7"><ellipse class="cls-8" cx="63.77" cy="68.73" rx="55.76" ry="4.78"/><rect class="cls-6" x="38.87" y="3.41" width="22.3" height="29.21"/><path class="cls-9" d="M38.87,42.17V53.33a15.4,15.4,0,0,0-15.4,15.4h37.7V42.17Z"/><rect class="cls-5" x="38.87" y="32.62" width="22.3" height="9.56"/><rect class="cls-6" x="66.48" y="3.41" width="22.3" height="29.21"/><path class="cls-9" d="M88.78,42.17V53.33a15.4,15.4,0,0,1,15.4,15.4H66.48V42.17Z"/><rect class="cls-5" x="66.48" y="32.62" width="22.3" height="9.56"/><circle class="cls-6" cx="64.35" cy="-25.27" r="39.3"/><path class="cls-10" d="M78.73-61.84a39.24,39.24,0,0,1,17,32.32,39.3,39.3,0,0,1-39.3,39.3A39.17,39.17,0,0,1,42,7.06a39.1,39.1,0,0,0,22.34,7,39.3,39.3,0,0,0,39.3-39.3A39.3,39.3,0,0,0,78.73-61.84Z"/></g></g></g></svg>