<svg xmlns="http://www.w3.org/2000/svg" xmlns:xlink="http://www.w3.org/1999/xlink" viewBox="0 0 125 125"><defs><style>.cls-1{fill:none;}.cls-2{fill:#fff;}.cls-3{isolation:isolate;}.cls-4{opacity:0.2;mix-blend-mode:multiply;}.cls-5{fill:#bae4f9;}.cls-6{clip-path:url(#clip-path);}.cls-7{clip-path:url(#clip-path-2);}</style><clipPath id="clip-path"><circle id="_Clipping_Path_" data-name="&lt;Clipping Path&gt;" class="cls-1" cx="62.5" cy="-82.5" r="49.56"/></clipPath><clipPath id="clip-path-2"><path id="_Clipping_Path_2" data-name="&lt;Clipping Path&gt;" class="cls-2" d="M90.68-4.34l22.52-15.34a2,2,0,0,0,.83-1.2l.81-3.43a2,2,0,0,1,1.93-1.55l1.16,0a2,2,0,0,1,2,1.74l.17,1.18a2,2,0,0,0,1.26,1.6l.56.22a2,2,0,0,1,1,2.86l-.91,1.65a2,2,0,0,1-1.91,1l-2.77-.2a2,2,0,0,0-1.25.33L96.73-2.71A2,2,0,0,0,95.92-.4L96,0a2,2,0,0,1-.88,2.35l-1.57.94a2,2,0,0,1-2.87-.87l-.29-.61A2,2,0,0,0,88.52.62h0a2,2,0,0,1-2-2.5l.17-.69A2,2,0,0,1,89-4.06l.12,0A2,2,0,0,0,90.68-4.34Z"/></clipPath></defs><title>GemMatch</title><g class="cls-3"><g id="Layer_1" data-name="Layer 1"><g class="cls-4"><path d="M101,67.92A16.52,16.52,0,1,0,84.44,51.4h-33A16.52,16.52,0,1,0,34.88,67.92,16.52,16.52,0,1,0,51.4,84.44h33A16.52,16.52,0,1,0,101,67.92Z"/><path d="M98.12,65.08A16.52,16.52,0,1,0,81.6,48.56h-33A16.52,16.52,0,1,0,32,65.08,16.52,16.52,0,1,0,48.56,81.6h33A16.52,16.52,0,1,0,98.12,65.08Z"/></g><path class="cls-5" d="M97,63.92A16.52,16.52,0,1,0,80.44,47.4h-33A16.52,16.52,0,1,0,30.88,63.92,16.52,16.52,0,1,0,47.4,80.44h33A16.52,16.52,0,1,0,97,63.92Z"/><path class="cls-2" d="M94.12,61.08A16.52,16.52,0,1,0,77.6,44.56h-33A16.52,16.52,0,1,0,28,61.08,16.52,16.52,0,1,0,44.56,77.6h33A16.52,16.52,0,1,0,94.12,61.08Z"/><g class="cls-6"><path id="_Clipping_Path_3" data-name="&lt;Clipping Path&gt;" class="cls-2" d="M90.68-4.34l22.52-15.34a2,2,0,0,0,.83-1.2l.81-3.43a2,2,0,0,1,1.93-1.55l1.16,0a2,2,0,0,1,2,1.74l.17,1.18a2,2,0,0,0,1.26,1.6l.56.22a2,2,0,0,1,1,2.86l-.91,1.65a2,2,0,0,1-1.91,1l-2.77-.2a2,2,0,0,0-1.25.33L96.73-2.71A2,2,0,0,0,95.92-.4L96,0a2,2,0,0,1-.88,2.35l-1.57.94a2,2,0,0,1-2.87-.87l-.29-.61A2,2,0,0,0,88.52.62h0a2,2,0,0,1-2-2.5l.17-.69A2,2,0,0,1,89-4.06l.12,0A2,2,0,0,0,90.68-4.34Z"/><g class="cls-7"><path id="_Path_" data-name="&lt;Path&gt;" class="cls-5" d="M122.09-13.78a2,2,0,0,1-1.91,1l-2.77-.2a2,2,0,0,0-1.25.33L96.73.15a2,2,0,0,0-.81,2.31l.12.36a2,2,0,0,1-.88,2.35l-1.57.94a2,2,0,0,1-2.87-.87l-.29-.61a2,2,0,0,0-1.91-1.15h0a2,2,0,0,1-2-2.5l.17-.69A2,2,0,0,1,89-1.2l.12,0a2,2,0,0,0,1.55-.31l15.32-11-7.65-1.08,20.7-15.7s9.77,13.05,9.56,13S122.09-13.78,122.09-13.78Z"/></g><path class="cls-5" d="M91.17,2.32l11.44,22.21S92.44,24.39,93,28.31H111.2L96,0Z"/><path class="cls-5" d="M102.35,25.9S94,27,95,30.9l16.36-2.28"/><path class="cls-5" d="M70.57-9.13,82,12.93s-10.18.69-9.65,3.63H90.6L75.38-11.58Z"/><path class="cls-5" d="M82.32,14.46s-8.39,1.11-7.31,5l16.36-2.28"/></g></g></g></svg>