<?xml version="1.0" encoding="iso-8859-1"?>
<!-- Generator: Adobe Illustrator 19.1.0, SVG Export Plug-In . SVG Version: 6.00 Build 0)  -->
<svg version="1.1" xmlns="http://www.w3.org/2000/svg" xmlns:xlink="http://www.w3.org/1999/xlink" x="0px" y="0px" width="1600px"
	 height="900px" viewBox="0 0 1600 900" style="enable-background:new 0 0 1600 900;" xml:space="preserve">
<g id="Disco_Backgrounds">
	<g>
		<rect x="0" y="0" width="1600" height="900"/>
		<circle style="opacity:0.25;fill:#FFFFFF;" cx="1033.75" cy="216.391" r="106.787"/>
		<circle style="opacity:0.25;fill:#FFFFFF;" cx="686.676" cy="190.976" r="106.787"/>
		<circle style="opacity:0.25;fill:#FFFFFF;" cx="1082.448" cy="156.509" r="75.386"/>
		<circle style="opacity:0.25;fill:#FFFFFF;" cx="543.491" cy="164.57" r="75.386"/>
		<rect x="0" y="10.786" style="fill:#434343;" width="1600" height="17.376"/>
		<g>
			<g>
				<path style="fill:#231F20;" d="M1020.37,18.715c-7.35,0-13.308,5.958-13.308,13.308v29.203h26.615V32.023
					C1033.678,24.673,1027.72,18.715,1020.37,18.715z"/>
				<g>
					<path style="fill:#A6A8AB;" d="M1020.37,66.59c-7.074,0-14.236-1.842-14.236-5.364c0-3.522,7.162-5.364,14.236-5.364
						s14.236,1.842,14.236,5.364C1034.606,64.748,1027.444,66.59,1020.37,66.59z"/>
					<path style="fill:#434343;" d="M1020.37,56.79c7.35,0,13.308,1.986,13.308,4.436c0,2.45-5.958,4.436-13.308,4.436
						c-7.35,0-13.308-1.986-13.308-4.436C1007.062,58.776,1013.02,56.79,1020.37,56.79 M1020.37,54.933
						c-10.476,0-15.165,3.161-15.165,6.293c0,3.132,4.689,6.293,15.165,6.293c10.476,0,15.164-3.161,15.164-6.293
						C1035.535,58.094,1030.846,54.933,1020.37,54.933L1020.37,54.933z"/>
				</g>
				<g>
					
						<line style="fill:none;stroke:#434343;stroke-width:1.8569;stroke-linecap:round;stroke-miterlimit:10;" x1="1023.259" y1="30.837" x2="1023.259" y2="48.19"/>
					
						<line style="fill:none;stroke:#434343;stroke-width:1.8569;stroke-linecap:round;stroke-miterlimit:10;" x1="1017.481" y1="30.837" x2="1017.481" y2="48.19"/>
					
						<line style="fill:none;stroke:#434343;stroke-width:1.8569;stroke-linecap:round;stroke-miterlimit:10;" x1="1029.036" y1="32.23" x2="1029.036" y2="49.582"/>
					
						<line style="fill:none;stroke:#434343;stroke-width:1.8569;stroke-linecap:round;stroke-miterlimit:10;" x1="1011.704" y1="32.23" x2="1011.704" y2="49.582"/>
				</g>
			</g>
			<g>
				<path style="fill:#231F20;" d="M999.915,22.613c-5.197-5.197-13.623-5.197-18.82,0l-20.65,20.65l18.82,18.82l20.65-20.65
					C1005.112,36.236,1005.112,27.81,999.915,22.613z"/>
				<g>
					<path style="fill:#A6A8AB;" d="M977.792,63.523c-2.839,0-7.442-2.771-11.729-7.057c-2.582-2.582-4.681-5.357-5.909-7.814
						c-1.767-3.532-1.173-5.237-0.364-6.046c0.52-0.52,1.236-0.784,2.13-0.784c2.839,0,7.442,2.77,11.729,7.057
						c5.003,5.003,8.764,11.37,6.273,13.86C979.402,63.259,978.686,63.523,977.792,63.523z"/>
					<path style="fill:#434343;" d="M961.919,42.751c2.491,0,6.917,2.628,11.073,6.785c5.197,5.197,8.006,10.814,6.273,12.547
						c-0.347,0.347-0.85,0.512-1.473,0.512c-2.492,0-6.917-2.628-11.073-6.785c-5.197-5.197-8.006-10.814-6.273-12.547
						C960.792,42.916,961.295,42.751,961.919,42.751 M961.92,40.894L961.92,40.894c-1.431,0-2.306,0.574-2.787,1.056
						c-1.024,1.024-1.823,3.091,0.19,7.117c1.272,2.544,3.432,5.404,6.083,8.055c3.543,3.543,8.657,7.329,12.386,7.329
						c1.43,0,2.305-0.574,2.786-1.056c2.215-2.215,1.134-7.765-6.273-15.173C970.762,44.68,965.648,40.894,961.92,40.894
						L961.92,40.894z"/>
				</g>
				<g>
					
						<line style="fill:none;stroke:#434343;stroke-width:1.8569;stroke-linecap:round;stroke-miterlimit:10;" x1="993.386" y1="33.227" x2="981.116" y2="45.497"/>
					
						<line style="fill:none;stroke:#434343;stroke-width:1.8569;stroke-linecap:round;stroke-miterlimit:10;" x1="989.301" y1="29.142" x2="977.031" y2="41.412"/>
					
						<line style="fill:none;stroke:#434343;stroke-width:1.8569;stroke-linecap:round;stroke-miterlimit:10;" x1="996.486" y1="38.297" x2="984.216" y2="50.567"/>
					
						<line style="fill:none;stroke:#434343;stroke-width:1.8569;stroke-linecap:round;stroke-miterlimit:10;" x1="984.231" y1="26.042" x2="971.961" y2="38.312"/>
				</g>
			</g>
			<g>
				<path style="fill:#231F20;" d="M1040.825,22.613c5.197-5.197,13.623-5.197,18.82,0l20.65,20.65l-18.82,18.82l-20.65-20.65
					C1035.628,36.236,1035.628,27.81,1040.825,22.613z"/>
				<g>
					<path style="fill:#A6A8AB;" d="M1062.948,63.523c-0.894,0-1.61-0.264-2.13-0.784c-2.49-2.491,1.271-8.857,6.273-13.86
						c4.287-4.287,8.891-7.057,11.729-7.057c0.894,0,1.61,0.264,2.13,0.784c2.489,2.49-1.271,8.857-6.273,13.859
						C1070.391,60.752,1065.787,63.523,1062.948,63.523z"/>
					<path style="fill:#434343;" d="M1078.821,42.751c0.624,0,1.127,0.165,1.474,0.512c1.732,1.732-1.076,7.35-6.273,12.547
						c-4.156,4.157-8.582,6.785-11.073,6.785c-0.624,0-1.126-0.165-1.473-0.512c-1.732-1.732,1.076-7.35,6.273-12.547
						C1071.904,45.379,1076.329,42.751,1078.821,42.751 M1078.821,40.894c-3.729,0-8.843,3.786-12.386,7.329
						c-2.651,2.651-4.811,5.512-6.083,8.055c-2.013,4.027-1.215,6.093-0.19,7.117c0.482,0.482,1.356,1.056,2.787,1.056
						c3.729,0,8.843-3.786,12.386-7.329c7.407-7.407,8.488-12.958,6.273-15.173C1081.126,41.468,1080.252,40.894,1078.821,40.894
						L1078.821,40.894z"/>
				</g>
				<g>
					
						<line style="fill:none;stroke:#434343;stroke-width:1.8569;stroke-linecap:round;stroke-miterlimit:10;" x1="1047.354" y1="33.227" x2="1059.624" y2="45.497"/>
					
						<line style="fill:none;stroke:#434343;stroke-width:1.8569;stroke-linecap:round;stroke-miterlimit:10;" x1="1051.439" y1="29.142" x2="1063.709" y2="41.412"/>
					
						<line style="fill:none;stroke:#434343;stroke-width:1.8569;stroke-linecap:round;stroke-miterlimit:10;" x1="1044.254" y1="38.297" x2="1056.524" y2="50.567"/>
					
						<line style="fill:none;stroke:#434343;stroke-width:1.8569;stroke-linecap:round;stroke-miterlimit:10;" x1="1056.509" y1="26.042" x2="1068.779" y2="38.312"/>
				</g>
			</g>
			<linearGradient id="SVGID_1_" gradientUnits="userSpaceOnUse" x1="1020.37" y1="56.79" x2="1020.37" y2="315.7161">
				<stop  offset="0" style="stop-color:#F6EC13"/>
				<stop  offset="1" style="stop-color:#F0EB1A;stop-opacity:0"/>
			</linearGradient>
			<path style="opacity:0.5;fill:url(#SVGID_1_);" d="M1033.714,61.226h-0.036c0-2.45-5.958-4.436-13.308-4.436
				s-13.308,1.986-13.308,4.436h-0.036l-75.727,254.49h178.143L1033.714,61.226z"/>
			
				<linearGradient id="SVGID_2_" gradientUnits="userSpaceOnUse" x1="2605.5535" y1="1678.5397" x2="2605.5535" y2="1937.4657" gradientTransform="matrix(0.7071 0.7071 -0.7071 0.7071 317.4947 -2979.7754)">
				<stop  offset="0" style="stop-color:#D32E2E"/>
				<stop  offset="1" style="stop-color:#D32E2E;stop-opacity:0"/>
			</linearGradient>
			<path style="opacity:0.5;fill:url(#SVGID_2_);" d="M979.291,62.108l-0.026-0.026c1.732-1.732-1.076-7.35-6.273-12.547
				s-10.814-8.006-12.547-6.273l-0.026-0.026L726.921,169.641l125.966,125.966L979.291,62.108z"/>
			
				<linearGradient id="SVGID_3_" gradientUnits="userSpaceOnUse" x1="6473.8296" y1="-2189.7366" x2="6473.8296" y2="-1930.8104" gradientTransform="matrix(-0.7071 0.7071 0.7071 0.7071 7193.814 -2979.7754)">
				<stop  offset="0" style="stop-color:#679F42"/>
				<stop  offset="1" style="stop-color:#679F42;stop-opacity:0"/>
			</linearGradient>
			<path style="opacity:0.5;fill:url(#SVGID_3_);" d="M1061.449,62.108l0.026-0.026c-1.732-1.732,1.076-7.35,6.273-12.547
				c5.197-5.197,10.814-8.006,12.547-6.273l0.026-0.026l233.499,126.404l-125.966,125.966L1061.449,62.108z"/>
		</g>
		<g>
			<g>
				<path style="fill:#231F20;" d="M579.63,18.715c7.35,0,13.308,5.958,13.308,13.308v29.203h-26.616V32.023
					C566.322,24.673,572.28,18.715,579.63,18.715z"/>
				<g>
					<path style="fill:#A6A8AB;" d="M579.63,66.59c-7.075,0-14.236-1.842-14.236-5.364c0-3.522,7.162-5.364,14.236-5.364
						c7.074,0,14.236,1.842,14.236,5.364C593.866,64.748,586.705,66.59,579.63,66.59z"/>
					<path style="fill:#434343;" d="M579.63,56.79c7.35,0,13.308,1.986,13.308,4.436c0,2.45-5.958,4.436-13.308,4.436
						c-7.35,0-13.308-1.986-13.308-4.436C566.322,58.776,572.28,56.79,579.63,56.79 M579.63,54.933
						c-10.476,0-15.165,3.161-15.165,6.293c0,3.132,4.689,6.293,15.165,6.293s15.165-3.161,15.165-6.293
						C594.795,58.094,590.106,54.933,579.63,54.933L579.63,54.933z"/>
				</g>
				<g>
					
						<line style="fill:none;stroke:#434343;stroke-width:1.8569;stroke-linecap:round;stroke-miterlimit:10;" x1="576.742" y1="30.837" x2="576.742" y2="48.19"/>
					
						<line style="fill:none;stroke:#434343;stroke-width:1.8569;stroke-linecap:round;stroke-miterlimit:10;" x1="582.519" y1="30.837" x2="582.519" y2="48.19"/>
					
						<line style="fill:none;stroke:#434343;stroke-width:1.8569;stroke-linecap:round;stroke-miterlimit:10;" x1="570.965" y1="32.23" x2="570.965" y2="49.582"/>
					
						<line style="fill:none;stroke:#434343;stroke-width:1.8569;stroke-linecap:round;stroke-miterlimit:10;" x1="588.296" y1="32.23" x2="588.296" y2="49.582"/>
				</g>
			</g>
			<g>
				<path style="fill:#231F20;" d="M600.085,22.613c5.197-5.197,13.623-5.197,18.82,0l20.65,20.65l-18.82,18.82l-20.65-20.65
					C594.888,36.236,594.888,27.81,600.085,22.613z"/>
				<g>
					<path style="fill:#A6A8AB;" d="M622.208,63.523c-0.894,0-1.61-0.264-2.13-0.784c-2.489-2.491,1.271-8.857,6.273-13.86
						c4.288-4.287,8.892-7.057,11.73-7.057c0.894,0,1.61,0.264,2.13,0.784c0.809,0.809,1.402,2.514-0.364,6.046
						c-1.229,2.457-3.327,5.232-5.91,7.814C629.651,60.752,625.047,63.523,622.208,63.523z"/>
					<path style="fill:#434343;" d="M638.081,42.751c0.624,0,1.127,0.165,1.474,0.512c1.732,1.732-1.076,7.35-6.273,12.547
						c-4.156,4.157-8.581,6.785-11.073,6.785c-0.624,0-1.127-0.165-1.474-0.512c-1.732-1.732,1.076-7.35,6.273-12.547
						C631.164,45.379,635.59,42.751,638.081,42.751 M638.081,40.894c-3.729,0-8.843,3.786-12.386,7.329
						c-7.407,7.407-8.488,12.958-6.273,15.173c0.481,0.482,1.356,1.056,2.787,1.056c3.729,0,8.843-3.786,12.386-7.329
						c2.651-2.651,4.811-5.512,6.083-8.055c2.013-4.027,1.215-6.093,0.19-7.117C640.386,41.468,639.512,40.894,638.081,40.894
						L638.081,40.894z"/>
				</g>
				<g>
					
						<line style="fill:none;stroke:#434343;stroke-width:1.8569;stroke-linecap:round;stroke-miterlimit:10;" x1="606.614" y1="33.227" x2="618.884" y2="45.497"/>
					
						<line style="fill:none;stroke:#434343;stroke-width:1.8569;stroke-linecap:round;stroke-miterlimit:10;" x1="610.699" y1="29.142" x2="622.969" y2="41.412"/>
					
						<line style="fill:none;stroke:#434343;stroke-width:1.8569;stroke-linecap:round;stroke-miterlimit:10;" x1="603.514" y1="38.297" x2="615.784" y2="50.567"/>
					
						<line style="fill:none;stroke:#434343;stroke-width:1.8569;stroke-linecap:round;stroke-miterlimit:10;" x1="615.769" y1="26.042" x2="628.039" y2="38.312"/>
				</g>
			</g>
			<g>
				<path style="fill:#231F20;" d="M559.175,22.613c-5.197-5.197-13.623-5.197-18.82,0l-20.65,20.65l18.82,18.82l20.65-20.65
					C564.372,36.236,564.372,27.81,559.175,22.613z"/>
				<g>
					<path style="fill:#A6A8AB;" d="M537.052,63.523c-2.838,0-7.443-2.771-11.729-7.058c-2.582-2.582-4.681-5.357-5.909-7.813
						c-1.766-3.532-1.173-5.237-0.364-6.046c0.52-0.52,1.236-0.784,2.13-0.784c2.838,0,7.442,2.77,11.729,7.057
						c5.002,5.003,8.763,11.37,6.273,13.86C538.662,63.259,537.945,63.523,537.052,63.523z"/>
					<path style="fill:#434343;" d="M521.179,42.751c2.492,0,6.917,2.628,11.073,6.785c5.197,5.197,8.006,10.814,6.273,12.547
						c-0.347,0.347-0.85,0.512-1.473,0.512c-2.492,0-6.917-2.628-11.073-6.785c-5.197-5.197-8.006-10.814-6.273-12.547
						C520.052,42.916,520.556,42.751,521.179,42.751 M521.18,40.894L521.18,40.894c-1.432,0-2.306,0.574-2.787,1.056
						c-1.024,1.024-1.823,3.091,0.19,7.117c1.272,2.544,3.432,5.404,6.083,8.055c3.543,3.543,8.657,7.329,12.386,7.329
						c1.431,0,2.305-0.574,2.786-1.056c1.024-1.024,1.823-3.091-0.19-7.117c-1.272-2.544-3.432-5.404-6.083-8.055
						C530.022,44.68,524.908,40.894,521.18,40.894L521.18,40.894z"/>
				</g>
				<g>
					
						<line style="fill:none;stroke:#434343;stroke-width:1.8569;stroke-linecap:round;stroke-miterlimit:10;" x1="552.646" y1="33.227" x2="540.376" y2="45.497"/>
					
						<line style="fill:none;stroke:#434343;stroke-width:1.8569;stroke-linecap:round;stroke-miterlimit:10;" x1="548.561" y1="29.142" x2="536.291" y2="41.412"/>
					
						<line style="fill:none;stroke:#434343;stroke-width:1.8569;stroke-linecap:round;stroke-miterlimit:10;" x1="555.746" y1="38.297" x2="543.476" y2="50.567"/>
					
						<line style="fill:none;stroke:#434343;stroke-width:1.8569;stroke-linecap:round;stroke-miterlimit:10;" x1="543.491" y1="26.042" x2="531.221" y2="38.312"/>
				</g>
			</g>
			
				<linearGradient id="SVGID_4_" gradientUnits="userSpaceOnUse" x1="6490.939" y1="56.79" x2="6490.939" y2="315.716" gradientTransform="matrix(-1 0 0 1 7070.5688 0)">
				<stop  offset="0" style="stop-color:#F6EC13"/>
				<stop  offset="1" style="stop-color:#F0EB1A;stop-opacity:0"/>
			</linearGradient>
			<path style="opacity:0.5;fill:url(#SVGID_4_);" d="M566.286,61.226h0.036c0-2.45,5.958-4.436,13.308-4.436
				s13.308,1.986,13.308,4.436h0.036l75.727,254.49H490.559L566.286,61.226z"/>
			
				<linearGradient id="SVGID_5_" gradientUnits="userSpaceOnUse" x1="6473.8296" y1="-2189.7366" x2="6473.8296" y2="-1930.8105" gradientTransform="matrix(-0.7071 0.7071 0.7071 0.7071 6753.0742 -2979.7754)">
				<stop  offset="0" style="stop-color:#D32E2E"/>
				<stop  offset="1" style="stop-color:#D32E2E;stop-opacity:0"/>
			</linearGradient>
			<path style="opacity:0.5;fill:url(#SVGID_5_);" d="M620.709,62.108l0.026-0.026c-1.732-1.732,1.076-7.35,6.273-12.547
				s10.814-8.006,12.547-6.273l0.026-0.026l233.499,126.404L747.113,295.607L620.709,62.108z"/>
			
				<linearGradient id="SVGID_6_" gradientUnits="userSpaceOnUse" x1="2605.5532" y1="1678.5398" x2="2605.5532" y2="1937.4658" gradientTransform="matrix(0.7071 0.7071 -0.7071 0.7071 -123.2452 -2979.7754)">
				<stop  offset="0" style="stop-color:#679F42"/>
				<stop  offset="1" style="stop-color:#679F42;stop-opacity:0"/>
			</linearGradient>
			<path style="opacity:0.5;fill:url(#SVGID_6_);" d="M538.551,62.108l-0.026-0.026c1.732-1.732-1.076-7.35-6.273-12.547
				s-10.814-8.006-12.547-6.273l-0.026-0.026L286.181,169.641l125.966,125.966L538.551,62.108z"/>
		</g>
		<g>
			<defs>
				<rect id="SVGID_7_" x="424.716" y="341.391" width="750.569" height="558.609"/>
			</defs>
			<clipPath id="SVGID_8_">
				<use xlink:href="#SVGID_7_"  style="overflow:visible;"/>
			</clipPath>
			<g style="clip-path:url(#SVGID_8_);">
				<g>
					<circle style="fill:#231F20;" cx="841.233" cy="467.63" r="31.559"/>
					<path style="fill:#231F20;" d="M875.435,449.429c0,0-44.464-42.213-67.526-53.634c0,0,19.193,34.896,5.68,50.187
						L875.435,449.429"/>
					<path style="fill:#231F20;" d="M876.199,448.629l-0.117,7.561c-0.035,2.282-1.907,4.098-4.19,4.062l-61.562-0.95
						c-2.282-0.035-4.098-1.907-4.063-4.19l0.117-7.561c0.035-2.283,1.908-4.098,4.19-4.063l61.562,0.95
						C874.419,444.474,876.234,446.346,876.199,448.629"/>
					<path style="fill:#231F20;" d="M799.628,393.963c-0.057,3.665,2.867,6.685,6.532,6.742c3.671,0.057,6.691-2.872,6.747-6.537
						c0.057-3.666-2.872-6.686-6.542-6.742C802.699,387.369,799.684,390.297,799.628,393.963z"/>
				</g>
				<g>
					<circle style="fill:#231F20;" cx="1034.946" cy="473.114" r="31.559"/>
					<path style="fill:#231F20;" d="M1069.147,454.913c0,0-44.464-42.213-67.526-53.634c0,0,19.193,34.896,5.68,50.187
						L1069.147,454.913"/>
					<path style="fill:#231F20;" d="M1069.911,454.113l-0.117,7.561c-0.035,2.282-1.907,4.098-4.19,4.062l-61.562-0.95
						c-2.282-0.035-4.098-1.907-4.063-4.19l0.117-7.561c0.035-2.283,1.908-4.098,4.19-4.063l61.562,0.95
						C1068.131,449.958,1069.946,451.83,1069.911,454.113"/>
					<path style="fill:#231F20;" d="M993.34,399.447c-0.057,3.665,2.867,6.685,6.532,6.742c3.671,0.057,6.691-2.872,6.747-6.537
						c0.057-3.666-2.872-6.686-6.542-6.742C996.412,392.853,993.397,395.781,993.34,399.447z"/>
				</g>
				<g>
					<circle style="fill:#231F20;" cx="1102.787" cy="510.171" r="31.559"/>
					<path style="fill:#231F20;" d="M1068.586,491.97c0,0,44.464-42.213,67.526-53.634c0,0-19.193,34.896-5.68,50.187
						L1068.586,491.97"/>
					<path style="fill:#231F20;" d="M1067.821,491.17l0.117,7.561c0.035,2.282,1.907,4.098,4.19,4.062l61.562-0.95
						c2.282-0.035,4.098-1.907,4.063-4.19l-0.117-7.561c-0.035-2.283-1.908-4.098-4.19-4.063l-61.562,0.95
						C1069.601,487.015,1067.786,488.887,1067.821,491.17"/>
					<path style="fill:#231F20;" d="M1144.392,436.504c0.057,3.665-2.866,6.685-6.532,6.742c-3.671,0.057-6.691-2.872-6.747-6.537
						c-0.057-3.666,2.872-6.686,6.542-6.742C1141.321,429.91,1144.336,432.838,1144.392,436.504z"/>
				</g>
				<g>
					<circle style="fill:#231F20;" cx="760.352" cy="485.976" r="31.559"/>
					<path style="fill:#231F20;" d="M726.151,467.775c0,0,44.464-42.213,67.526-53.634c0,0-19.193,34.896-5.68,50.187
						L726.151,467.775"/>
					<path style="fill:#231F20;" d="M725.387,466.975l0.117,7.561c0.035,2.282,1.907,4.098,4.19,4.062l61.562-0.95
						c2.282-0.035,4.098-1.907,4.063-4.19l-0.117-7.561c-0.035-2.283-1.908-4.098-4.19-4.063l-61.562,0.95
						C727.167,462.82,725.352,464.692,725.387,466.975"/>
					<path style="fill:#231F20;" d="M801.958,412.309c0.057,3.665-2.867,6.685-6.532,6.742c-3.671,0.057-6.691-2.872-6.747-6.537
						c-0.057-3.666,2.872-6.686,6.542-6.742C798.886,405.715,801.901,408.643,801.958,412.309z"/>
				</g>
				<g>
					<circle style="fill:#231F20;" cx="713.069" cy="466.992" r="31.559"/>
					<path style="fill:#231F20;" d="M747.27,448.791c0,0-44.464-42.213-67.526-53.634c0,0,19.193,34.896,5.68,50.187L747.27,448.791
						"/>
					<path style="fill:#231F20;" d="M748.035,447.991l-0.117,7.561c-0.035,2.282-1.907,4.098-4.19,4.062l-61.562-0.95
						c-2.282-0.035-4.098-1.907-4.063-4.19l0.117-7.561c0.035-2.283,1.908-4.098,4.19-4.063l61.562,0.95
						C746.255,443.836,748.07,445.708,748.035,447.991"/>
					<path style="fill:#231F20;" d="M671.464,393.325c-0.057,3.665,2.867,6.685,6.532,6.742c3.671,0.057,6.691-2.872,6.747-6.537
						c0.057-3.666-2.872-6.686-6.542-6.742C674.535,386.731,671.52,389.659,671.464,393.325z"/>
				</g>
				<g>
					<circle style="fill:#231F20;" cx="625.732" cy="477.857" r="31.559"/>
					<path style="fill:#231F20;" d="M659.933,459.656c0,0-44.464-42.213-67.526-53.634c0,0,19.193,34.896,5.68,50.187
						L659.933,459.656"/>
					<path style="fill:#231F20;" d="M660.698,458.856l-0.117,7.561c-0.035,2.282-1.907,4.098-4.19,4.062l-61.562-0.95
						c-2.282-0.035-4.098-1.907-4.063-4.19l0.117-7.561c0.035-2.283,1.908-4.098,4.19-4.063l61.562,0.95
						C658.918,454.701,660.733,456.573,660.698,458.856"/>
					<path style="fill:#231F20;" d="M584.127,404.19c-0.057,3.665,2.867,6.685,6.532,6.742c3.671,0.057,6.691-2.872,6.747-6.537
						c0.057-3.666-2.872-6.686-6.542-6.742C587.198,397.595,584.183,400.524,584.127,404.19z"/>
				</g>
				<g>
					<circle style="fill:#231F20;" cx="534.385" cy="467.892" r="31.559"/>
					<path style="fill:#231F20;" d="M568.586,449.691c0,0-44.464-42.213-67.526-53.634c0,0,19.193,34.896,5.68,50.187
						L568.586,449.691"/>
					<path style="fill:#231F20;" d="M569.35,448.891l-0.117,7.561c-0.035,2.282-1.907,4.098-4.19,4.062l-61.562-0.95
						c-2.282-0.035-4.098-1.907-4.063-4.19l0.117-7.561c0.035-2.283,1.908-4.098,4.19-4.063l61.562,0.95
						C567.57,444.736,569.385,446.608,569.35,448.891"/>
					<path style="fill:#231F20;" d="M492.779,394.225c-0.057,3.665,2.867,6.685,6.532,6.742c3.671,0.057,6.691-2.872,6.747-6.537
						c0.057-3.666-2.872-6.686-6.542-6.742C495.851,387.631,492.836,390.559,492.779,394.225z"/>
				</g>
				<g>
					<circle style="fill:#231F20;" cx="587.446" cy="494.803" r="31.559"/>
					<path style="fill:#231F20;" d="M553.245,476.602c0,0,44.464-42.213,67.526-53.634c0,0-19.193,34.896-5.68,50.187
						L553.245,476.602"/>
					<path style="fill:#231F20;" d="M552.481,475.802l0.117,7.561c0.035,2.282,1.907,4.098,4.19,4.062l61.562-0.95
						c2.282-0.035,4.098-1.907,4.063-4.19l-0.117-7.561c-0.035-2.283-1.908-4.098-4.19-4.063l-61.562,0.95
						C554.261,471.647,552.445,473.519,552.481,475.802"/>
					<path style="fill:#231F20;" d="M629.052,421.136c0.057,3.665-2.867,6.685-6.532,6.742c-3.671,0.057-6.691-2.872-6.747-6.537
						c-0.057-3.666,2.872-6.686,6.542-6.742C625.98,414.542,628.995,417.47,629.052,421.136z"/>
				</g>
				<g>
					<circle style="fill:#231F20;" cx="538.18" cy="499.189" r="31.559"/>
				</g>
				<g>
					<circle style="fill:#231F20;" cx="565.098" cy="476.602" r="31.559"/>
				</g>
				<g>
					<circle style="fill:#231F20;" cx="795.889" cy="470.661" r="31.559"/>
				</g>
				<g>
					<circle style="fill:#231F20;" cx="880.068" cy="476.602" r="31.559"/>
				</g>
				<g>
					<circle style="fill:#231F20;" cx="499.419" cy="510.171" r="31.559"/>
				</g>
				<g>
					<circle style="fill:#231F20;" cx="448.79" cy="526.362" r="31.559"/>
				</g>
				<g>
					<circle style="fill:#231F20;" cx="999.388" cy="487.426" r="31.559"/>
				</g>
				<g>
					<circle style="fill:#231F20;" cx="1025.971" cy="525.373" r="31.559"/>
				</g>
				<g>
					<circle style="fill:#231F20;" cx="1024.792" cy="523.889" r="31.559"/>
				</g>
				<g>
					<circle style="fill:#231F20;" cx="1067.821" cy="494.803" r="31.559"/>
				</g>
				<g>
					<circle style="fill:#231F20;" cx="1149.156" cy="523.889" r="31.559"/>
				</g>
				<polygon style="fill:#231F20;" points="424.716,900 424.716,533.389 569.351,485.976 622.412,482.285 805.053,467.892 
					893.175,475.891 1102.787,510.171 1175.284,539.915 1175.284,900 				"/>
			</g>
		</g>
		<g>
			<defs>
				<rect id="SVGID_9_" x="1175.284" y="341.391" width="424.716" height="558.609"/>
			</defs>
			<clipPath id="SVGID_10_">
				<use xlink:href="#SVGID_9_"  style="overflow:visible;"/>
			</clipPath>
			<g style="clip-path:url(#SVGID_10_);">
				<g>
					<circle style="fill:#231F20;" cx="1265.949" cy="527.933" r="31.559"/>
					<path style="fill:#231F20;" d="M1300.15,509.732c0,0-44.464-42.213-67.526-53.634c0,0,19.193,34.896,5.68,50.187
						L1300.15,509.732"/>
					<path style="fill:#231F20;" d="M1300.915,508.932l-0.117,7.561c-0.035,2.282-1.907,4.098-4.19,4.062l-61.562-0.95
						c-2.282-0.035-4.098-1.907-4.063-4.19l0.117-7.561c0.035-2.283,1.908-4.098,4.19-4.063l61.562,0.95
						C1299.135,504.777,1300.95,506.649,1300.915,508.932"/>
					<path style="fill:#231F20;" d="M1224.344,454.266c-0.057,3.665,2.867,6.685,6.532,6.742c3.671,0.057,6.691-2.872,6.747-6.537
						c0.057-3.666-2.872-6.686-6.542-6.742C1227.415,447.672,1224.4,450.6,1224.344,454.266z"/>
				</g>
				<g>
					<circle style="fill:#231F20;" cx="1459.661" cy="533.417" r="31.559"/>
					<path style="fill:#231F20;" d="M1493.862,515.216c0,0-44.464-42.213-67.526-53.634c0,0,19.193,34.896,5.68,50.187
						L1493.862,515.216"/>
					<path style="fill:#231F20;" d="M1494.627,514.416l-0.117,7.561c-0.035,2.282-1.907,4.098-4.19,4.062l-61.562-0.95
						c-2.282-0.035-4.098-1.907-4.063-4.19l0.117-7.561c0.035-2.283,1.908-4.098,4.19-4.063l61.562,0.95
						C1492.847,510.261,1494.662,512.133,1494.627,514.416"/>
					<path style="fill:#231F20;" d="M1418.056,459.75c-0.057,3.665,2.867,6.685,6.532,6.742c3.671,0.057,6.691-2.872,6.747-6.537
						c0.057-3.666-2.872-6.686-6.542-6.742C1421.127,453.156,1418.112,456.084,1418.056,459.75z"/>
				</g>
				<g>
					<circle style="fill:#231F20;" cx="1527.502" cy="570.474" r="31.559"/>
					<path style="fill:#231F20;" d="M1493.301,552.273c0,0,44.464-42.213,67.526-53.634c0,0-19.193,34.896-5.68,50.187
						L1493.301,552.273"/>
					<path style="fill:#231F20;" d="M1492.537,551.473l0.117,7.561c0.035,2.282,1.907,4.098,4.19,4.062l61.562-0.95
						c2.282-0.035,4.098-1.907,4.063-4.19l-0.117-7.561c-0.035-2.283-1.908-4.098-4.19-4.063l-61.562,0.95
						C1494.317,547.318,1492.502,549.19,1492.537,551.473"/>
					<path style="fill:#231F20;" d="M1569.108,496.807c0.057,3.665-2.867,6.685-6.532,6.742c-3.671,0.057-6.691-2.872-6.748-6.537
						c-0.057-3.666,2.872-6.686,6.542-6.742C1566.036,490.213,1569.051,493.141,1569.108,496.807z"/>
				</g>
				<g>
					<circle style="fill:#231F20;" cx="1185.068" cy="546.279" r="31.559"/>
					<path style="fill:#231F20;" d="M1150.867,528.078c0,0,44.464-42.213,67.526-53.634c0,0-19.193,34.896-5.68,50.187
						L1150.867,528.078"/>
					<path style="fill:#231F20;" d="M1150.103,527.278l0.117,7.561c0.035,2.282,1.907,4.098,4.19,4.062l61.562-0.95
						c2.282-0.035,4.098-1.907,4.063-4.19l-0.117-7.561c-0.035-2.283-1.908-4.098-4.19-4.063l-61.562,0.95
						C1151.882,523.123,1150.067,524.995,1150.103,527.278"/>
					<path style="fill:#231F20;" d="M1226.674,472.612c0.057,3.665-2.866,6.685-6.532,6.742c-3.671,0.057-6.691-2.872-6.747-6.537
						c-0.057-3.666,2.872-6.686,6.542-6.742C1223.602,466.018,1226.617,468.946,1226.674,472.612z"/>
				</g>
				<g>
					<circle style="fill:#231F20;" cx="1137.785" cy="527.294" r="31.559"/>
					<path style="fill:#231F20;" d="M1171.986,509.094c0,0-44.464-42.213-67.526-53.634c0,0,19.193,34.896,5.68,50.187
						L1171.986,509.094"/>
					<path style="fill:#231F20;" d="M1172.75,508.293l-0.117,7.561c-0.035,2.282-1.907,4.098-4.19,4.062l-61.562-0.95
						c-2.282-0.035-4.098-1.907-4.063-4.19l0.117-7.561c0.035-2.283,1.908-4.098,4.19-4.063l61.562,0.95
						C1170.97,504.138,1172.786,506.01,1172.75,508.293"/>
					<path style="fill:#231F20;" d="M1096.179,453.627c-0.057,3.665,2.867,6.685,6.532,6.742c3.671,0.057,6.691-2.872,6.747-6.537
						c0.057-3.666-2.872-6.686-6.542-6.742C1099.251,447.033,1096.236,449.962,1096.179,453.627z"/>
				</g>
				<g>
					<circle style="fill:#231F20;" cx="1050.448" cy="538.159" r="31.559"/>
					<path style="fill:#231F20;" d="M1084.649,519.958c0,0-44.464-42.213-67.526-53.634c0,0,19.193,34.896,5.68,50.187
						L1084.649,519.958"/>
					<path style="fill:#231F20;" d="M1085.413,519.158l-0.117,7.561c-0.035,2.282-1.907,4.098-4.19,4.062l-61.562-0.95
						c-2.282-0.035-4.098-1.907-4.063-4.19l0.117-7.561c0.035-2.283,1.908-4.098,4.19-4.063l61.562,0.95
						C1083.634,515.003,1085.449,516.875,1085.413,519.158"/>
					<path style="fill:#231F20;" d="M1008.842,464.492c-0.057,3.665,2.867,6.685,6.532,6.742c3.671,0.057,6.691-2.872,6.747-6.537
						c0.057-3.666-2.872-6.686-6.542-6.742C1011.914,457.898,1008.899,460.826,1008.842,464.492z"/>
				</g>
				<g>
					<circle style="fill:#231F20;" cx="959.1" cy="528.194" r="31.559"/>
					<path style="fill:#231F20;" d="M993.302,509.994c0,0-44.464-42.213-67.526-53.634c0,0,19.193,34.896,5.68,50.187
						L993.302,509.994"/>
					<path style="fill:#231F20;" d="M994.066,509.193l-0.117,7.561c-0.035,2.282-1.907,4.098-4.19,4.062l-61.562-0.95
						c-2.282-0.035-4.098-1.907-4.063-4.19l0.117-7.561c0.035-2.283,1.908-4.098,4.19-4.063l61.562,0.95
						C992.286,505.038,994.101,506.91,994.066,509.193"/>
					<path style="fill:#231F20;" d="M917.495,454.527c-0.057,3.665,2.867,6.685,6.532,6.742c3.671,0.057,6.691-2.872,6.747-6.537
						c0.057-3.666-2.872-6.686-6.542-6.742C920.566,447.933,917.551,450.861,917.495,454.527z"/>
				</g>
				<g>
					<circle style="fill:#231F20;" cx="1012.162" cy="555.105" r="31.559"/>
					<path style="fill:#231F20;" d="M977.961,536.905c0,0,44.464-42.213,67.526-53.634c0,0-19.193,34.896-5.68,50.187
						L977.961,536.905"/>
					<path style="fill:#231F20;" d="M977.196,536.104l0.117,7.561c0.035,2.282,1.907,4.098,4.19,4.062l61.562-0.95
						c2.282-0.035,4.098-1.907,4.063-4.19l-0.117-7.561c-0.035-2.283-1.908-4.098-4.19-4.063l-61.562,0.95
						C978.976,531.949,977.161,533.821,977.196,536.104"/>
					<path style="fill:#231F20;" d="M1053.767,481.438c0.057,3.665-2.867,6.685-6.532,6.742c-3.671,0.057-6.691-2.872-6.747-6.537
						c-0.057-3.666,2.872-6.686,6.542-6.742C1050.696,474.844,1053.711,477.772,1053.767,481.438z"/>
				</g>
				<g>
					<circle style="fill:#231F20;" cx="962.896" cy="559.492" r="31.559"/>
				</g>
				<g>
					<circle style="fill:#231F20;" cx="989.814" cy="536.905" r="31.559"/>
				</g>
				<g>
					<circle style="fill:#231F20;" cx="1220.604" cy="530.963" r="31.559"/>
				</g>
				<g>
					<circle style="fill:#231F20;" cx="1304.783" cy="536.905" r="31.559"/>
				</g>
				<g>
					<circle style="fill:#231F20;" cx="924.134" cy="570.474" r="31.559"/>
				</g>
				<g>
					<circle style="fill:#231F20;" cx="873.506" cy="586.665" r="31.559"/>
				</g>
				<g>
					<circle style="fill:#231F20;" cx="1424.104" cy="547.728" r="31.559"/>
				</g>
				<g>
					<circle style="fill:#231F20;" cx="1450.687" cy="585.676" r="31.559"/>
				</g>
				<g>
					<circle style="fill:#231F20;" cx="1449.507" cy="584.191" r="31.559"/>
				</g>
				<g>
					<circle style="fill:#231F20;" cx="1492.536" cy="555.105" r="31.559"/>
				</g>
				<g>
					<circle style="fill:#231F20;" cx="1573.872" cy="584.191" r="31.559"/>
				</g>
				<polygon style="fill:#231F20;" points="849.431,960.303 849.431,593.691 994.066,546.279 1047.127,542.588 1229.769,528.194 
					1317.891,536.193 1527.502,570.474 1600,600.218 1600,960.303 				"/>
			</g>
		</g>
		<g>
			<defs>
				<rect id="SVGID_11_" x="0" y="341.391" width="424.716" height="558.609"/>
			</defs>
			<clipPath id="SVGID_12_">
				<use xlink:href="#SVGID_11_"  style="overflow:visible;"/>
			</clipPath>
			<g style="clip-path:url(#SVGID_12_);">
				<g>
					<circle style="fill:#231F20;" cx="334.051" cy="527.933" r="31.559"/>
					<path style="fill:#231F20;" d="M299.85,509.732c0,0,44.464-42.213,67.526-53.634c0,0-19.193,34.896-5.68,50.187L299.85,509.732
						"/>
					<path style="fill:#231F20;" d="M299.086,508.932l0.117,7.561c0.035,2.282,1.907,4.098,4.19,4.062l61.562-0.95
						c2.282-0.035,4.098-1.907,4.063-4.19l-0.117-7.561c-0.035-2.283-1.908-4.098-4.19-4.063l-61.562,0.95
						C300.865,504.777,299.05,506.649,299.086,508.932"/>
					<path style="fill:#231F20;" d="M375.657,454.266c0.057,3.665-2.867,6.685-6.532,6.742c-3.671,0.057-6.691-2.872-6.747-6.537
						c-0.057-3.666,2.872-6.686,6.542-6.742C372.585,447.672,375.6,450.6,375.657,454.266z"/>
				</g>
				<g>
					<circle style="fill:#231F20;" cx="140.339" cy="533.417" r="31.559"/>
					<path style="fill:#231F20;" d="M106.138,515.216c0,0,44.464-42.213,67.526-53.634c0,0-19.193,34.896-5.68,50.187
						L106.138,515.216"/>
					<path style="fill:#231F20;" d="M105.373,514.416l0.117,7.561c0.035,2.282,1.907,4.098,4.19,4.062l61.562-0.95
						c2.282-0.035,4.098-1.907,4.063-4.19l-0.117-7.561c-0.035-2.283-1.908-4.098-4.19-4.063l-61.562,0.95
						C107.153,510.261,105.338,512.133,105.373,514.416"/>
					<path style="fill:#231F20;" d="M181.944,459.75c0.057,3.665-2.867,6.685-6.532,6.742c-3.671,0.057-6.691-2.872-6.747-6.537
						c-0.057-3.666,2.872-6.686,6.542-6.742C178.873,453.156,181.888,456.084,181.944,459.75z"/>
				</g>
				<g>
					<circle style="fill:#231F20;" cx="72.498" cy="570.474" r="31.559"/>
					<path style="fill:#231F20;" d="M106.699,552.273c0,0-44.464-42.213-67.526-53.634c0,0,19.193,34.896,5.68,50.187
						L106.699,552.273"/>
					<path style="fill:#231F20;" d="M107.463,551.473l-0.117,7.561c-0.035,2.282-1.907,4.098-4.19,4.062l-61.562-0.95
						c-2.282-0.035-4.098-1.907-4.063-4.19l0.117-7.561c0.035-2.283,1.908-4.098,4.19-4.063l61.562,0.95
						C105.683,547.318,107.498,549.19,107.463,551.473"/>
					<path style="fill:#231F20;" d="M30.892,496.807c-0.057,3.665,2.867,6.685,6.532,6.742c3.671,0.057,6.691-2.872,6.747-6.537
						c0.057-3.666-2.872-6.686-6.542-6.742C33.964,490.213,30.949,493.141,30.892,496.807z"/>
				</g>
				<g>
					<circle style="fill:#231F20;" cx="414.932" cy="546.279" r="31.559"/>
					<path style="fill:#231F20;" d="M449.133,528.078c0,0-44.464-42.213-67.526-53.634c0,0,19.193,34.896,5.68,50.187
						L449.133,528.078"/>
					<path style="fill:#231F20;" d="M449.897,527.278l-0.117,7.561c-0.035,2.282-1.907,4.098-4.19,4.062l-61.562-0.95
						c-2.282-0.035-4.098-1.907-4.063-4.19l0.117-7.561c0.035-2.283,1.908-4.098,4.19-4.063l61.562,0.95
						C448.118,523.123,449.933,524.995,449.897,527.278"/>
					<path style="fill:#231F20;" d="M373.326,472.612c-0.057,3.665,2.867,6.685,6.532,6.742c3.671,0.057,6.691-2.872,6.747-6.537
						c0.057-3.666-2.872-6.686-6.542-6.742C376.398,466.018,373.383,468.946,373.326,472.612z"/>
				</g>
				<g>
					<circle style="fill:#231F20;" cx="462.215" cy="527.294" r="31.559"/>
					<path style="fill:#231F20;" d="M428.014,509.094c0,0,44.464-42.213,67.526-53.634c0,0-19.193,34.896-5.68,50.187
						L428.014,509.094"/>
					<path style="fill:#231F20;" d="M427.25,508.293l0.117,7.561c0.035,2.282,1.907,4.098,4.19,4.062l61.562-0.95
						c2.282-0.035,4.098-1.907,4.063-4.19l-0.117-7.561c-0.035-2.283-1.908-4.098-4.19-4.063l-61.562,0.95
						C429.03,504.138,427.215,506.01,427.25,508.293"/>
					<path style="fill:#231F20;" d="M503.821,453.627c0.057,3.665-2.867,6.685-6.532,6.742c-3.671,0.057-6.691-2.872-6.747-6.537
						c-0.057-3.666,2.872-6.686,6.542-6.742C500.749,447.033,503.764,449.962,503.821,453.627z"/>
				</g>
				<g>
					<circle style="fill:#231F20;" cx="549.552" cy="538.159" r="31.559"/>
					<path style="fill:#231F20;" d="M515.351,519.958c0,0,44.464-42.213,67.526-53.634c0,0-19.193,34.896-5.68,50.187
						L515.351,519.958"/>
					<path style="fill:#231F20;" d="M514.587,519.158l0.117,7.561c0.035,2.282,1.907,4.098,4.19,4.062l61.562-0.95
						c2.282-0.035,4.098-1.907,4.063-4.19l-0.117-7.561c-0.035-2.283-1.908-4.098-4.19-4.063l-61.562,0.95
						C516.367,515.003,514.551,516.875,514.587,519.158"/>
					<path style="fill:#231F20;" d="M591.158,464.492c0.057,3.665-2.867,6.685-6.532,6.742c-3.671,0.057-6.691-2.872-6.747-6.537
						c-0.057-3.666,2.872-6.686,6.542-6.742C588.086,457.898,591.101,460.826,591.158,464.492z"/>
				</g>
				<g>
					<circle style="fill:#231F20;" cx="640.9" cy="528.194" r="31.559"/>
					<path style="fill:#231F20;" d="M606.699,509.994c0,0,44.464-42.213,67.526-53.634c0,0-19.193,34.896-5.68,50.187
						L606.699,509.994"/>
					<path style="fill:#231F20;" d="M605.934,509.193l0.117,7.561c0.035,2.282,1.907,4.098,4.19,4.062l61.562-0.95
						c2.282-0.035,4.098-1.907,4.063-4.19l-0.117-7.561c-0.035-2.283-1.908-4.098-4.19-4.063l-61.562,0.95
						C607.714,505.038,605.899,506.91,605.934,509.193"/>
					<path style="fill:#231F20;" d="M682.505,454.527c0.057,3.665-2.867,6.685-6.532,6.742c-3.671,0.057-6.691-2.872-6.747-6.537
						c-0.057-3.666,2.872-6.686,6.542-6.742C679.434,447.933,682.449,450.861,682.505,454.527z"/>
				</g>
				<g>
					<circle style="fill:#231F20;" cx="587.838" cy="555.105" r="31.559"/>
					<path style="fill:#231F20;" d="M622.039,536.905c0,0-44.464-42.213-67.526-53.634c0,0,19.193,34.896,5.68,50.187
						L622.039,536.905"/>
					<path style="fill:#231F20;" d="M622.804,536.104l-0.117,7.561c-0.035,2.282-1.907,4.098-4.19,4.062l-61.562-0.95
						c-2.282-0.035-4.098-1.907-4.063-4.19l0.117-7.561c0.035-2.283,1.908-4.098,4.19-4.063l61.562,0.95
						C621.024,531.949,622.839,533.821,622.804,536.104"/>
					<path style="fill:#231F20;" d="M546.233,481.438c-0.057,3.665,2.867,6.685,6.532,6.742c3.671,0.057,6.691-2.872,6.747-6.537
						c0.057-3.666-2.872-6.686-6.542-6.742C549.304,474.844,546.289,477.772,546.233,481.438z"/>
				</g>
				<g>
					<circle style="fill:#231F20;" cx="637.105" cy="559.492" r="31.559"/>
				</g>
				<g>
					<circle style="fill:#231F20;" cx="610.186" cy="536.905" r="31.559"/>
				</g>
				<g>
					<circle style="fill:#231F20;" cx="379.396" cy="530.963" r="31.559"/>
				</g>
				<g>
					<circle style="fill:#231F20;" cx="295.217" cy="536.905" r="31.559"/>
				</g>
				<g>
					<circle style="fill:#231F20;" cx="675.866" cy="570.474" r="31.559"/>
				</g>
				<g>
					<circle style="fill:#231F20;" cx="726.494" cy="586.665" r="31.559"/>
				</g>
				<g>
					<circle style="fill:#231F20;" cx="175.896" cy="547.728" r="31.559"/>
				</g>
				<g>
					<circle style="fill:#231F20;" cx="149.313" cy="585.676" r="31.559"/>
				</g>
				<g>
					<circle style="fill:#231F20;" cx="150.493" cy="584.191" r="31.559"/>
				</g>
				<g>
					<circle style="fill:#231F20;" cx="107.464" cy="555.105" r="31.559"/>
				</g>
				<g>
					<circle style="fill:#231F20;" cx="26.128" cy="584.191" r="31.559"/>
				</g>
				<polygon style="fill:#231F20;" points="750.569,960.303 750.569,593.691 605.934,546.279 552.873,542.588 370.231,528.194 
					282.109,536.193 72.498,570.474 0,600.218 0,960.303 				"/>
			</g>
		</g>
		<g>
			<polygon style="fill:#FFFFFF;" points="922.223,742.732 900.289,674.346 699.712,674.346 677.778,742.732 			"/>
			<polygon style="fill:#FFFFFF;" points="883.938,605.46 1043.198,605.46 1007.396,568.253 872.004,568.253 			"/>
			<polygon style="fill:#FFFFFF;" points="720.203,610.46 701.316,669.346 898.685,669.346 879.797,610.46 			"/>
			<polygon style="fill:#E44C25;" points="495.33,669.346 695.571,669.346 714.457,610.46 551.991,610.46 			"/>
			<polygon style="fill:#00B7D3;" points="1048.009,610.46 885.542,610.46 904.429,669.346 1104.67,669.346 			"/>
			<polygon style="fill:#FFFFFF;" points="693.967,674.346 490.519,674.346 424.716,742.732 672.033,742.732 			"/>
			<polygon style="fill:#B231CC;" points="906.033,674.346 927.968,742.732 1175.284,742.732 1109.482,674.346 			"/>
			<polygon style="fill:#FDD500;" points="733.74,568.253 721.806,605.46 878.194,605.46 866.259,568.253 			"/>
			<polygon style="fill:#FFFFFF;" points="716.061,605.46 727.995,568.253 592.604,568.253 556.802,605.46 			"/>
		</g>
		<rect x="424.716" y="742.732" width="750.568" height="157.268"/>
		<g>
			<rect x="790.455" y="0" style="fill:#434343;" width="19.091" height="183.275"/>
			<path style="fill:#81D4FA;" d="M879.211,226.835c-3.688-10.433-9.377-19.92-16.609-27.999
				c-8.929-9.975-20.205-17.801-32.961-22.613c-4.845-1.828-9.902-3.222-15.126-4.132c-3.283-0.572-6.631-0.955-10.033-1.134
				c-1.484-0.078-2.978-0.119-4.482-0.119c-1.504,0-2.997,0.042-4.482,0.119c-3.402,0.179-6.75,0.562-10.033,1.134
				c-5.224,0.91-10.281,2.305-15.126,4.132c-12.756,4.813-24.032,12.639-32.961,22.613c-7.232,8.079-12.921,17.566-16.609,27.999
				c-3.096,8.758-4.786,18.181-4.786,27.999c0,9.818,1.69,19.241,4.786,27.999c3.688,10.433,9.377,19.92,16.609,27.999
				c8.929,9.975,20.205,17.801,32.961,22.613c4.845,1.828,9.902,3.222,15.126,4.133c3.283,0.572,6.631,0.955,10.033,1.134
				c1.484,0.078,2.978,0.119,4.482,0.119c1.504,0,2.997-0.041,4.482-0.119c3.402-0.179,6.75-0.562,10.033-1.134
				c5.224-0.91,10.281-2.305,15.126-4.133c12.757-4.812,24.033-12.639,32.961-22.613c7.232-8.079,12.921-17.566,16.609-27.999
				c3.096-8.758,4.786-18.181,4.786-27.999C883.998,245.016,882.307,235.594,879.211,226.835z"/>
			<g>
				<path style="fill:#81D4FA;" d="M752.304,311.539h-15.696c9.041,10.1,20.459,18.025,33.377,22.898
					C763.154,328.577,757.15,320.78,752.304,311.539z"/>
				<path style="fill:#44B3E6;" d="M847.696,311.539h15.696c7.323-8.181,13.084-17.787,16.818-28.352h-22.43
					C855.535,293.577,852.094,303.152,847.696,311.539z"/>
				<path style="fill:#81D4FA;" d="M857.779,226.482h22.43c-3.735-10.565-9.495-20.171-16.818-28.352h-15.696
					C852.094,206.517,855.535,216.092,857.779,226.482z"/>
				<path style="fill:#FFFFFF;" d="M857.779,283.187h22.43c3.135-8.869,4.846-18.41,4.846-28.352h-24.302
					C860.755,264.732,859.708,274.259,857.779,283.187z"/>
				<path style="fill:#44B3E6;" d="M860.755,254.835h24.302c0-9.942-1.712-19.483-4.846-28.352h-22.43
					C859.708,235.41,860.755,244.937,860.755,254.835z"/>
				<path style="fill:#81D4FA;" d="M830.014,334.437c12.917-4.873,24.336-12.798,33.377-22.898h-15.696
					C842.85,320.78,836.846,328.577,830.014,334.437z"/>
				<path style="fill:#44B3E6;" d="M847.696,198.13h15.696c-9.041-10.1-20.459-18.025-33.377-22.898
					C836.846,181.092,842.85,188.89,847.696,198.13z"/>
				<path style="fill:#44B3E6;" d="M742.221,226.482h-22.43c-3.135,8.869-4.846,18.41-4.846,28.352h24.302
					C739.246,244.937,740.292,235.41,742.221,226.482z"/>
				<path style="fill:#81D4FA;" d="M752.304,198.13h-15.696c-7.323,8.181-13.084,17.787-16.819,28.352h22.43
					C744.465,216.092,747.907,206.517,752.304,198.13z"/>
				<path style="fill:#44B3E6;" d="M752.304,311.539c-4.398-8.386-7.839-17.962-10.084-28.352h-22.43
					c3.735,10.565,9.496,20.171,16.819,28.352H752.304z"/>
				<path style="fill:#81D4FA;" d="M739.246,254.835h-24.302c0,9.942,1.712,19.483,4.846,28.352h22.43
					C740.292,274.259,739.246,264.732,739.246,254.835z"/>
				<path style="fill:#44B3E6;" d="M769.986,175.232c-12.917,4.873-24.336,12.798-33.377,22.898h15.696
					C757.15,188.89,763.154,181.092,769.986,175.232z"/>
				<path style="fill:#FFFFFF;" d="M765.333,226.482h-23.112c-1.928,8.928-2.975,18.455-2.975,28.352h24.302
					C763.547,244.937,764.175,235.41,765.333,226.482z"/>
				<path style="fill:#81D4FA;" d="M765.333,283.187h-23.112c2.245,10.39,5.686,19.966,10.084,28.352h19.078
					C768.744,303.152,766.679,293.577,765.333,283.187z"/>
				<path style="fill:#44B3E6;" d="M763.547,254.835h-24.302c0,9.897,1.047,19.424,2.975,28.352h23.112
					C764.175,274.259,763.547,264.732,763.547,254.835z"/>
				<path style="fill:#44B3E6;" d="M771.383,198.13h-19.078c-4.398,8.387-7.839,17.962-10.084,28.352h23.112
					C766.679,216.092,768.744,206.517,771.383,198.13z"/>
				<path style="fill:#44B3E6;" d="M834.668,283.187h23.112c1.928-8.928,2.975-18.455,2.975-28.352h-24.302
					C836.453,264.732,835.825,274.259,834.668,283.187z"/>
				<path style="fill:#81D4FA;" d="M828.617,311.539h19.078c4.398-8.386,7.84-17.962,10.084-28.352h-23.112
					C833.321,293.577,831.256,303.152,828.617,311.539z"/>
				<path style="fill:#44B3E6;" d="M857.779,226.482c-2.244-10.39-5.686-19.966-10.084-28.352h-19.078
					c2.639,8.387,4.704,17.962,6.05,28.352H857.779z"/>
				<path style="fill:#FFFFFF;" d="M836.453,254.835h24.302c0-9.897-1.047-19.424-2.975-28.352h-23.112
					C835.825,235.41,836.453,244.937,836.453,254.835z"/>
				<path style="fill:#81D4FA;" d="M752.304,198.13h19.078c3.667-11.655,8.44-21.012,13.92-27.083
					c-5.29,0.922-10.411,2.334-15.317,4.184C763.154,181.092,757.15,188.89,752.304,198.13z"/>
				<path style="fill:#81D4FA;" d="M828.617,198.13h19.078c-4.846-9.241-10.85-17.038-17.681-22.898
					c-4.906-1.851-10.027-3.263-15.316-4.184C820.178,177.118,824.95,186.476,828.617,198.13z"/>
				<path style="fill:#FFFFFF;" d="M771.383,311.539h-19.078c4.846,9.241,10.85,17.038,17.681,22.898
					c4.906,1.851,10.027,3.263,15.317,4.185C779.823,332.551,775.05,323.193,771.383,311.539z"/>
				<path style="fill:#44B3E6;" d="M847.696,311.539h-19.078c-3.667,11.655-8.439,21.012-13.919,27.083
					c5.29-0.922,10.411-2.334,15.316-4.185C836.846,328.577,842.85,320.78,847.696,311.539z"/>
				<path style="fill:#44B3E6;" d="M788.444,283.187h-23.112c1.346,10.39,3.411,19.966,6.05,28.352h19.078
					C789.581,303.152,788.893,293.577,788.444,283.187z"/>
				<path style="fill:#81D4FA;" d="M771.383,311.539c3.667,11.655,8.44,21.012,13.919,27.083c3.325,0.579,6.715,0.967,10.16,1.148
					c-1.978-6.005-3.699-15.815-5.001-28.231H771.383z"/>
				<path style="fill:#44B3E6;" d="M836.453,254.835c0-9.897-0.628-19.424-1.785-28.352h-23.112
					c0.386,8.928,0.595,18.455,0.595,28.352H836.453z"/>
				<path style="fill:#81D4FA;" d="M804.538,339.77c3.445-0.181,6.835-0.569,10.16-1.148c5.48-6.071,10.252-15.428,13.919-27.083
					h-19.078C808.237,323.955,806.517,333.765,804.538,339.77z"/>
				<path style="fill:#81D4FA;" d="M811.556,283.187h23.112c1.157-8.928,1.785-18.455,1.785-28.352h-24.302
					C812.151,264.732,811.942,274.259,811.556,283.187z"/>
				<path style="fill:#44B3E6;" d="M788.444,226.482h-23.112c-1.157,8.928-1.785,18.455-1.785,28.352h24.302
					C787.849,244.937,788.058,235.41,788.444,226.482z"/>
				<path style="fill:#FFFFFF;" d="M787.849,254.835h-24.302c0,9.897,0.628,19.424,1.785,28.352h23.112
					C788.058,274.259,787.849,264.732,787.849,254.835z"/>
				<path style="fill:#44B3E6;" d="M795.462,169.899c-3.445,0.181-6.835,0.569-10.16,1.148c-5.48,6.071-10.252,15.428-13.92,27.083
					h19.078C791.763,185.714,793.484,175.904,795.462,169.899z"/>
				<path style="fill:#FFFFFF;" d="M828.617,198.13c-3.667-11.655-8.439-21.012-13.919-27.083c-3.325-0.579-6.715-0.967-10.16-1.148
					c1.978,6.005,3.699,15.815,5.001,28.231H828.617z"/>
				<path style="fill:#81D4FA;" d="M788.444,226.482c0.449-10.39,1.137-19.966,2.017-28.352h-19.078
					c-2.639,8.387-4.704,17.962-6.05,28.352H788.444z"/>
				<path style="fill:#FFFFFF;" d="M811.556,283.187c-0.449,10.39-1.137,19.966-2.017,28.352h19.078
					c2.639-8.386,4.704-17.962,6.05-28.352H811.556z"/>
				<path style="fill:#81D4FA;" d="M811.556,226.482h23.112c-1.347-10.39-3.411-19.966-6.05-28.352h-19.078
					C810.419,206.517,811.107,216.092,811.556,226.482z"/>
				<path style="fill:#44B3E6;" d="M787.849,254.835c0,9.897,0.209,19.424,0.595,28.352h23.112
					c0.386-8.928,0.595-18.455,0.595-28.352H787.849z"/>
				<path style="fill:#81D4FA;" d="M790.461,311.539h19.078c0.879-8.386,1.568-17.962,2.017-28.352h-23.112
					C788.893,293.577,789.581,303.152,790.461,311.539z"/>
				<path style="fill:#FFFFFF;" d="M809.539,198.13h-19.078c-0.88,8.387-1.568,17.962-2.017,28.352h23.112
					C811.107,216.092,810.419,206.517,809.539,198.13z"/>
				<path style="fill:#FFFFFF;" d="M790.461,311.539c1.302,12.416,3.022,22.226,5.001,28.231c1.503,0.079,3.016,0.121,4.538,0.121
					c1.523,0,3.035-0.042,4.538-0.121c1.978-6.005,3.699-15.815,5.001-28.231H790.461z"/>
				<path style="fill:#81D4FA;" d="M812.151,254.835c0-9.897-0.209-19.424-0.595-28.352h-23.112
					c-0.386,8.928-0.595,18.455-0.595,28.352H812.151z"/>
				<path style="fill:#81D4FA;" d="M809.539,198.13c-1.302-12.416-3.023-22.226-5.001-28.231c-1.503-0.079-3.016-0.121-4.538-0.121
					c-1.523,0-3.035,0.042-4.538,0.121c-1.978,6.005-3.699,15.815-5.001,28.231H809.539z"/>
			</g>
			<g>
				<polygon style="fill:#FFD600;" points="742.854,310.866 739.745,293.134 730.752,310.773 735.198,330.424 				"/>
				<polygon style="fill:#FFD600;" points="735.883,305.483 718.151,308.593 735.79,317.585 755.441,313.139 				"/>
			</g>
			<g>
				<polygon style="fill:#FFD600;" points="762.859,211.393 759.75,193.661 750.758,211.3 755.204,230.951 				"/>
				<polygon style="fill:#FFD600;" points="755.889,206.011 738.157,209.12 755.795,218.112 775.447,213.666 				"/>
			</g>
			<g>
				<polygon style="fill:#FFD600;" points="865.342,253.348 860.367,240.379 856.164,255.065 862.435,269.29 				"/>
				<polygon style="fill:#FFD600;" points="859.268,250.302 846.299,255.277 860.985,259.48 875.21,253.209 				"/>
			</g>
		</g>
		<g>
			<defs>
				<rect id="SVGID_13_" x="424.716" y="716.3" width="750.568" height="183.7"/>
			</defs>
			<clipPath id="SVGID_14_">
				<use xlink:href="#SVGID_13_"  style="overflow:visible;"/>
			</clipPath>
			<g style="clip-path:url(#SVGID_14_);">
				<g>
					<circle style="fill:#231F20;" cx="502.045" cy="869.597" r="48.613"/>
					<path style="fill:#231F20;" d="M554.728,841.56c0,0-68.492-65.024-104.017-82.616c0,0,29.565,53.753,8.75,77.307
						L554.728,841.56"/>
					<path style="fill:#231F20;" d="M555.905,840.328l-0.18,11.647c-0.054,3.516-2.938,6.312-6.454,6.258l-94.829-1.464
						c-3.516-0.054-6.313-2.938-6.258-6.454l0.18-11.647c0.054-3.517,2.939-6.313,6.455-6.258l94.829,1.464
						C553.163,833.927,555.959,836.811,555.905,840.328"/>
					<path style="fill:#231F20;" d="M437.956,756.121c-0.087,5.646,4.416,10.298,10.061,10.385
						c5.655,0.087,10.307-4.423,10.394-10.069c0.087-5.647-4.423-10.299-10.078-10.386
						C442.687,745.963,438.043,750.474,437.956,756.121z"/>
				</g>
				<g>
					<circle style="fill:#231F20;" cx="713.062" cy="859.434" r="48.613"/>
					<path style="fill:#231F20;" d="M765.745,831.398c0,0-68.492-65.024-104.017-82.616c0,0,29.565,53.753,8.75,77.307
						L765.745,831.398"/>
					<path style="fill:#231F20;" d="M766.922,830.165l-0.18,11.647c-0.054,3.516-2.938,6.312-6.454,6.258l-94.829-1.464
						c-3.516-0.054-6.313-2.938-6.258-6.454l0.18-11.647c0.054-3.517,2.939-6.313,6.455-6.258l94.829,1.464
						C764.18,823.764,766.976,826.648,766.922,830.165"/>
					<path style="fill:#231F20;" d="M648.973,745.958c-0.087,5.646,4.416,10.298,10.062,10.385
						c5.654,0.087,10.307-4.423,10.394-10.069c0.087-5.647-4.423-10.299-10.078-10.386
						C653.704,735.801,649.06,740.311,648.973,745.958z"/>
				</g>
				<g>
					<circle style="fill:#231F20;" cx="827.073" cy="879.585" r="48.613"/>
					<path style="fill:#231F20;" d="M879.756,851.549c0,0-68.492-65.024-104.017-82.616c0,0,29.565,53.753,8.75,77.307
						L879.756,851.549"/>
					<path style="fill:#231F20;" d="M880.933,850.316l-0.18,11.648c-0.054,3.516-2.938,6.312-6.454,6.258l-94.829-1.464
						c-3.516-0.054-6.313-2.938-6.258-6.454l0.18-11.648c0.054-3.517,2.939-6.313,6.455-6.258l94.829,1.464
						C878.191,843.916,880.987,846.799,880.933,850.316"/>
					<path style="fill:#231F20;" d="M762.984,766.109c-0.087,5.646,4.416,10.298,10.061,10.385
						c5.655,0.087,10.307-4.423,10.394-10.069c0.087-5.647-4.423-10.299-10.078-10.386
						C767.715,755.952,763.071,760.463,762.984,766.109z"/>
				</g>
				<g>
					<circle style="fill:#231F20;" cx="1076.342" cy="852.299" r="48.613"/>
					<path style="fill:#231F20;" d="M1129.025,824.262c0,0-68.492-65.024-104.017-82.616c0,0,29.565,53.753,8.75,77.307
						L1129.025,824.262"/>
					<path style="fill:#231F20;" d="M1130.202,823.03l-0.18,11.648c-0.054,3.516-2.938,6.312-6.454,6.258l-94.829-1.464
						c-3.516-0.054-6.313-2.938-6.258-6.454l0.18-11.648c0.054-3.517,2.939-6.313,6.455-6.258l94.829,1.464
						C1127.461,816.629,1130.257,819.513,1130.202,823.03"/>
					<path style="fill:#231F20;" d="M1012.253,738.823c-0.087,5.646,4.416,10.298,10.062,10.385
						c5.655,0.087,10.307-4.423,10.394-10.069c0.087-5.647-4.423-10.299-10.078-10.386
						C1016.985,728.665,1012.34,733.176,1012.253,738.823z"/>
				</g>
				<g>
					<circle style="fill:#231F20;" cx="941.148" cy="845.914" r="48.613"/>
				</g>
				<g>
					<circle style="fill:#231F20;" cx="1012.289" cy="879.585" r="48.613"/>
				</g>
				<g>
					<circle style="fill:#231F20;" cx="1131.112" cy="885.824" r="48.613"/>
				</g>
				<g>
					<circle style="fill:#231F20;" cx="898.53" cy="885.824" r="48.613"/>
				</g>
				<g>
					<circle style="fill:#231F20;" cx="767.547" cy="842.397" r="48.613"/>
				</g>
				<g>
					<circle style="fill:#231F20;" cx="759.842" cy="900" r="48.613"/>
				</g>
				<g>
					<circle style="fill:#231F20;" cx="646.794" cy="900" r="48.613"/>
				</g>
				<g>
					<circle style="fill:#231F20;" cx="958.107" cy="890.601" r="48.613"/>
				</g>
				<g>
					<circle style="fill:#231F20;" cx="1050.486" cy="893.431" r="48.613"/>
				</g>
				<g>
					<circle style="fill:#231F20;" cx="1158.557" cy="834.869" r="48.613"/>
				</g>
				<g>
					<circle style="fill:#231F20;" cx="642.563" cy="858.233" r="48.613"/>
				</g>
				<g>
					<circle style="fill:#231F20;" cx="450.711" cy="868.222" r="48.613"/>
				</g>
				<g>
					<circle style="fill:#231F20;" cx="556.802" cy="850.811" r="48.613"/>
				</g>
				<g>
					<circle style="fill:#231F20;" cx="880.934" cy="845.321" r="48.613"/>
				</g>
				<g>
					<circle style="fill:#231F20;" cx="1006.799" cy="837.211" r="48.613"/>
				</g>
				<g>
					<circle style="fill:#231F20;" cx="564.625" cy="901.358" r="48.613"/>
					<path style="fill:#231F20;" d="M511.942,873.321c0,0,68.492-65.024,104.017-82.616c0,0-29.565,53.753-8.75,77.307
						L511.942,873.321"/>
					<path style="fill:#231F20;" d="M510.764,872.089l0.18,11.648c0.054,3.516,2.938,6.312,6.454,6.258l94.829-1.464
						c3.516-0.054,6.313-2.938,6.258-6.454l-0.18-11.647c-0.054-3.517-2.939-6.313-6.455-6.258l-94.829,1.464
						C513.506,865.688,510.71,868.572,510.764,872.089"/>
					<path style="fill:#231F20;" d="M628.713,787.882c0.087,5.646-4.416,10.298-10.062,10.385
						c-5.654,0.087-10.307-4.423-10.394-10.069c-0.087-5.647,4.423-10.299,10.078-10.386
						C623.982,777.724,628.626,782.235,628.713,787.882z"/>
				</g>
			</g>
		</g>
	</g>
</g>
<g id="Layer_1">
</g>
</svg>
