<?xml version="1.0" encoding="iso-8859-1"?>
<!-- Generator: Adobe Illustrator 19.1.0, SVG Export Plug-In . SVG Version: 6.00 Build 0)  -->
<svg version="1.1" xmlns="http://www.w3.org/2000/svg" xmlns:xlink="http://www.w3.org/1999/xlink" x="0px" y="0px" width="1600px"
	 height="900px" viewBox="0 0 1600 900" style="enable-background:new 0 0 1600 900;" xml:space="preserve">
<symbol  id="New_Symbol_21" viewBox="-26.153 -17.16 52.202 32.789">
	<path style="fill:#FFFFFF;" d="M-18.235-3.908h1.303V0c0,5.754,4.665,10.42,10.42,10.42c1.807,0,3.378-0.461,4.683-1.271
		c1.554,3.8,5.284,6.481,9.644,6.481c5.754,0,10.42-4.665,10.42-10.42V1.452c4.501-1.404,7.815-5.606,7.815-10.57
		c0-2.436-0.788-4.683-2.121-6.512h-48.93c-0.665,1.15-1.047,2.483-1.047,3.907C-26.049-7.407-22.551-3.908-18.235-3.908z"/>
	<path style="fill:#DFF1FE;" d="M-18.338-5.438h1.303v3.907c0,5.754,4.665,10.42,10.42,10.42c1.807,0,3.378-0.461,4.683-1.271
		c1.554,3.8,5.284,6.481,9.644,6.481c5.754,0,10.42-4.665,10.42-10.42v-3.757c4.501-1.404,7.815-5.606,7.815-10.57
		c0-2.436-0.788-4.683-2.121-6.512h-48.93c-0.665,1.15-1.047,2.483-1.047,3.907C-26.153-8.937-22.655-5.438-18.338-5.438z"/>
</symbol>
<g id="School_Stage">
	<rect x="1175.284" y="0" width="424.716" height="900"/>
	<rect x="0" y="0" width="424.716" height="900"/>
	<rect x="424.716" y="0" style="fill:#FFFFFF;" width="750.569" height="417.938"/>
	<linearGradient id="SVGID_1_" gradientUnits="userSpaceOnUse" x1="800" y1="417.9378" x2="800" y2="9.446017e-06">
		<stop  offset="0" style="stop-color:#94EFFF"/>
		<stop  offset="1" style="stop-color:#3DDAF2"/>
	</linearGradient>
	<rect x="424.716" y="0" style="fill:url(#SVGID_1_);" width="750.569" height="417.938"/>
	<g>
		<rect x="321.865" y="417.44" style="fill:#F9A823;" width="956.27" height="328.667"/>
		<g>
			<defs>
				<rect id="SVGID_2_" x="340.383" y="417.44" width="919.233" height="328.667"/>
			</defs>
			<clipPath id="SVGID_3_">
				<use xlink:href="#SVGID_2_"  style="overflow:visible;"/>
			</clipPath>
			<g style="opacity:0.15;clip-path:url(#SVGID_3_);">
				<g>
					
						<line style="fill:none;stroke:#434343;stroke-width:2;stroke-linecap:round;stroke-miterlimit:10;" x1="495.213" y1="417.44" x2="135.762" y2="746.107"/>
					
						<line style="fill:none;stroke:#434343;stroke-width:2;stroke-linecap:round;stroke-miterlimit:10;" x1="457.114" y1="417.44" x2="52.732" y2="746.107"/>
					
						<line style="fill:none;stroke:#434343;stroke-width:2;stroke-linecap:round;stroke-miterlimit:10;" x1="533.311" y1="417.44" x2="218.791" y2="746.107"/>
					
						<line style="fill:none;stroke:#434343;stroke-width:2;stroke-linecap:round;stroke-miterlimit:10;" x1="571.409" y1="417.44" x2="301.821" y2="746.107"/>
					
						<line style="fill:none;stroke:#434343;stroke-width:2;stroke-linecap:round;stroke-miterlimit:10;" x1="609.508" y1="417.44" x2="384.851" y2="746.107"/>
					
						<line style="fill:none;stroke:#434343;stroke-width:2;stroke-linecap:round;stroke-miterlimit:10;" x1="647.606" y1="417.44" x2="467.881" y2="746.107"/>
					
						<line style="fill:none;stroke:#434343;stroke-width:2;stroke-linecap:round;stroke-miterlimit:10;" x1="685.705" y1="417.44" x2="550.911" y2="746.107"/>
					
						<line style="fill:none;stroke:#434343;stroke-width:2;stroke-linecap:round;stroke-miterlimit:10;" x1="723.803" y1="417.44" x2="633.94" y2="746.107"/>
					
						<line style="fill:none;stroke:#434343;stroke-width:2;stroke-linecap:round;stroke-miterlimit:10;" x1="761.902" y1="417.44" x2="716.97" y2="746.107"/>
					
						<line style="fill:none;stroke:#434343;stroke-width:2;stroke-linecap:round;stroke-miterlimit:10;" x1="800" y1="417.44" x2="800" y2="746.107"/>
					
						<line style="fill:none;stroke:#434343;stroke-width:2;stroke-linecap:round;stroke-miterlimit:10;" x1="838.099" y1="417.44" x2="883.03" y2="746.107"/>
					
						<line style="fill:none;stroke:#434343;stroke-width:2;stroke-linecap:round;stroke-miterlimit:10;" x1="876.197" y1="417.44" x2="966.06" y2="746.107"/>
					
						<line style="fill:none;stroke:#434343;stroke-width:2;stroke-linecap:round;stroke-miterlimit:10;" x1="914.295" y1="417.44" x2="1049.089" y2="746.107"/>
					
						<line style="fill:none;stroke:#434343;stroke-width:2;stroke-linecap:round;stroke-miterlimit:10;" x1="952.394" y1="417.44" x2="1132.119" y2="746.107"/>
					
						<line style="fill:none;stroke:#434343;stroke-width:2;stroke-linecap:round;stroke-miterlimit:10;" x1="990.492" y1="417.44" x2="1215.149" y2="746.107"/>
					
						<line style="fill:none;stroke:#434343;stroke-width:2;stroke-linecap:round;stroke-miterlimit:10;" x1="1028.591" y1="417.44" x2="1298.179" y2="746.107"/>
					
						<line style="fill:none;stroke:#434343;stroke-width:2;stroke-linecap:round;stroke-miterlimit:10;" x1="1066.689" y1="417.44" x2="1381.209" y2="746.107"/>
					
						<line style="fill:none;stroke:#434343;stroke-width:2;stroke-linecap:round;stroke-miterlimit:10;" x1="1104.787" y1="417.44" x2="1464.239" y2="746.107"/>
					
						<line style="fill:none;stroke:#434343;stroke-width:2;stroke-linecap:round;stroke-miterlimit:10;" x1="1142.886" y1="417.44" x2="1547.268" y2="746.107"/>
				</g>
				<g>
					
						<line style="fill:none;stroke:#434343;stroke-width:2;stroke-linecap:round;stroke-miterlimit:10;" x1="1166.985" y1="437.027" x2="1126.209" y2="437.027"/>
					
						<line style="fill:none;stroke:#434343;stroke-width:2;stroke-linecap:round;stroke-miterlimit:10;" x1="1085.433" y1="437.027" x2="1044.657" y2="437.027"/>
					
						<line style="fill:none;stroke:#434343;stroke-width:2;stroke-linecap:round;stroke-miterlimit:10;" x1="1003.881" y1="437.027" x2="963.206" y2="437.027"/>
					
						<line style="fill:none;stroke:#434343;stroke-width:2;stroke-linecap:round;stroke-miterlimit:10;" x1="922.328" y1="437.027" x2="881.552" y2="437.027"/>
					
						<line style="fill:none;stroke:#434343;stroke-width:2;stroke-linecap:round;stroke-miterlimit:10;" x1="840.776" y1="437.027" x2="800" y2="437.027"/>
					
						<line style="fill:none;stroke:#434343;stroke-width:2;stroke-linecap:round;stroke-miterlimit:10;" x1="759.204" y1="437.027" x2="718.448" y2="437.027"/>
					
						<line style="fill:none;stroke:#434343;stroke-width:2;stroke-linecap:round;stroke-miterlimit:10;" x1="677.672" y1="437.027" x2="636.896" y2="437.027"/>
					
						<line style="fill:none;stroke:#434343;stroke-width:2;stroke-linecap:round;stroke-miterlimit:10;" x1="596.12" y1="437.027" x2="555.343" y2="437.027"/>
					
						<line style="fill:none;stroke:#434343;stroke-width:2;stroke-linecap:round;stroke-miterlimit:10;" x1="514.495" y1="437.027" x2="473.791" y2="437.027"/>
					
						<line style="fill:none;stroke:#434343;stroke-width:2;stroke-linecap:round;stroke-miterlimit:10;" x1="433.015" y1="437.027" x2="390.63" y2="437.027"/>
					
						<line style="fill:none;stroke:#434343;stroke-width:2;stroke-linecap:round;stroke-miterlimit:10;" x1="1179.199" y1="695.544" x2="1104.47" y2="695.544"/>
					
						<line style="fill:none;stroke:#434343;stroke-width:2;stroke-linecap:round;stroke-miterlimit:10;" x1="1028.352" y1="695.544" x2="952.335" y2="695.544"/>
					
						<line style="fill:none;stroke:#434343;stroke-width:2;stroke-linecap:round;stroke-miterlimit:10;" x1="876.117" y1="695.544" x2="800" y2="695.544"/>
					
						<line style="fill:none;stroke:#434343;stroke-width:2;stroke-linecap:round;stroke-miterlimit:10;" x1="723.883" y1="695.544" x2="647.765" y2="695.544"/>
					
						<line style="fill:none;stroke:#434343;stroke-width:2;stroke-linecap:round;stroke-miterlimit:10;" x1="571.648" y1="695.544" x2="495.53" y2="695.544"/>
					
						<line style="fill:none;stroke:#434343;stroke-width:2;stroke-linecap:round;stroke-miterlimit:10;" x1="1127.108" y1="537.547" x2="1072.59" y2="537.547"/>
					
						<line style="fill:none;stroke:#434343;stroke-width:2;stroke-linecap:round;stroke-miterlimit:10;" x1="1018.072" y1="537.547" x2="963.554" y2="537.547"/>
					
						<line style="fill:none;stroke:#434343;stroke-width:2;stroke-linecap:round;stroke-miterlimit:10;" x1="909.036" y1="537.547" x2="854.518" y2="537.547"/>
					
						<line style="fill:none;stroke:#434343;stroke-width:2;stroke-linecap:round;stroke-miterlimit:10;" x1="800" y1="537.547" x2="745.482" y2="537.547"/>
					
						<line style="fill:none;stroke:#434343;stroke-width:2;stroke-linecap:round;stroke-miterlimit:10;" x1="690.964" y1="537.547" x2="636.446" y2="537.547"/>
					
						<line style="fill:none;stroke:#434343;stroke-width:2;stroke-linecap:round;stroke-miterlimit:10;" x1="581.928" y1="537.547" x2="527.41" y2="537.547"/>
					
						<line style="fill:none;stroke:#434343;stroke-width:2;stroke-linecap:round;stroke-miterlimit:10;" x1="472.892" y1="537.547" x2="418.516" y2="537.547"/>
				</g>
			</g>
		</g>
	</g>
	<g>
		
			<line style="fill:none;stroke:#B0BEC5;stroke-width:2;stroke-miterlimit:10;" x1="670.722" y1="235.051" x2="670.722" y2="147.871"/>
		<g style="opacity:0.2;">
			<path style="fill:#332E2E;" d="M632.778,290.902l-22.895,3.847l17.939-15.052c-0.857-3.404-1.226-6.967-1.044-10.595
				l-21.191-10.547l23.961-1.675c1.305-3.129,3.026-6.003,5.077-8.578l-11.239-21.554l20.912,13.068
				c2.658-1.601,5.522-2.861,8.524-3.742l3.659-24.597l9.399,23.264c1.458,0.118,2.924,0.315,4.394,0.616
				c1.487,0.305,2.929,0.707,4.332,1.18l17.626-17.961l-6.084,24.398c2.308,1.919,4.363,4.108,6.118,6.512l24.716-4.153
				l-19.027,15.964c0.819,2.98,1.266,6.088,1.29,9.263l22.033,10.966l-24.202,1.692c-1.16,3.213-2.749,6.18-4.682,8.857
				l11.084,21.258l-20.051-12.53c-2.943,2.009-6.177,3.587-9.602,4.664l-3.442,23.137l-8.689-21.507
				c-1.98-0.073-3.979-0.301-5.984-0.712c-1.686-0.346-3.316-0.811-4.893-1.371l-16.184,16.491l5.592-22.426
				C637.329,296.738,634.817,293.978,632.778,290.902z"/>
			<g style="opacity:0.38;">
				<g>
					<polygon style="fill:#332E2E;" points="652.331,239.38 659.9,240.276 667.049,237.633 656.482,211.478 					"/>
					
						<ellipse transform="matrix(-0.993 0.1179 -0.1179 -0.993 1352.9489 453.753)" style="fill:#332E2E;" cx="663.058" cy="266.881" rx="4.384" ry="3.183"/>
				</g>
				<g>
					<polygon style="fill:#332E2E;" points="636.429,251.761 643.079,248.038 647.309,241.698 623.387,226.748 					"/>
					
						<ellipse transform="matrix(-0.7341 0.679 -0.679 -0.7341 1328.4941 15.1975)" style="fill:#332E2E;" cx="661.272" cy="267.705" rx="4.384" ry="3.183"/>
				</g>
				<g>
					<polygon style="fill:#332E2E;" points="630.841,271.125 634.033,264.204 633.728,256.588 605.588,258.555 					"/>
					
						<ellipse transform="matrix(-0.1948 0.9808 -0.9808 -0.1948 1053.1816 -325.7685)" style="fill:#332E2E;" cx="660.311" cy="269.422" rx="4.384" ry="3.183"/>
				</g>
				<g>
					<polygon style="fill:#332E2E;" points="637.703,290.075 636.216,282.6 631.493,276.618 609.883,294.749 					"/>
					
						<ellipse transform="matrix(0.419 0.908 -0.908 0.419 630.2142 -442.0963)" style="fill:#332E2E;" cx="660.543" cy="271.375" rx="4.384" ry="3.183"/>
				</g>
				<g>
					<polygon style="fill:#332E2E;" points="654.392,301.373 648.795,296.199 641.458,294.135 634.633,321.506 					"/>
					
						<ellipse transform="matrix(0.8727 0.4883 -0.4883 0.8727 217.5137 -288.4771)" style="fill:#332E2E;" cx="661.878" cy="272.819" rx="4.384" ry="3.183"/>
				</g>
				<g>
					<polygon style="fill:#332E2E;" points="674.534,300.703 666.966,299.807 659.817,302.45 670.384,328.605 					"/>
					
						<ellipse transform="matrix(0.993 -0.1179 0.1179 0.993 -27.5734 80.1421)" style="fill:#332E2E;" cx="663.808" cy="273.202" rx="4.384" ry="3.183"/>
				</g>
				<g>
					<polygon style="fill:#332E2E;" points="690.436,288.322 683.786,292.046 679.556,298.386 703.479,313.335 					"/>
					
						<ellipse transform="matrix(0.7341 -0.679 0.679 0.7341 -7.9747 524.3906)" style="fill:#332E2E;" cx="665.594" cy="272.378" rx="4.384" ry="3.183"/>
				</g>
				<g>
					<polygon style="fill:#332E2E;" points="696.024,268.958 692.833,275.88 693.137,283.495 721.278,281.528 					"/>
					
						<ellipse transform="matrix(0.1948 -0.9808 0.9808 0.1948 271.2517 871.7341)" style="fill:#332E2E;" cx="666.554" cy="270.662" rx="4.384" ry="3.183"/>
				</g>
				<g>
					<polygon style="fill:#332E2E;" points="689.163,250.009 690.649,257.484 695.372,263.466 716.982,245.334 					"/>
					
						<ellipse transform="matrix(-0.419 -0.908 0.908 -0.419 701.494 986.3104)" style="fill:#332E2E;" cx="666.322" cy="268.708" rx="4.384" ry="3.183"/>
				</g>
				<g>
					<polygon style="fill:#332E2E;" points="672.474,238.711 678.07,243.885 685.407,245.948 692.232,218.577 					"/>
					
						<ellipse transform="matrix(-0.8727 -0.4883 0.4883 -0.8727 1114.7766 825.2311)" style="fill:#332E2E;" cx="664.987" cy="267.264" rx="4.384" ry="3.183"/>
				</g>
				<g>
					<polygon style="fill:#332E2E;" points="652.331,239.38 659.9,240.276 667.049,237.633 656.482,211.478 					"/>
					
						<ellipse transform="matrix(-0.993 0.1179 -0.1179 -0.993 1352.9489 453.753)" style="fill:#332E2E;" cx="663.058" cy="266.881" rx="4.384" ry="3.183"/>
				</g>
			</g>
			<circle style="opacity:0.39;fill:#332E2E;" cx="662.992" cy="270.872" r="36.253"/>
			
				<line style="fill:none;stroke:#332E2E;stroke-width:2;stroke-miterlimit:10;" x1="658.17" y1="245.798" x2="658.17" y2="158.618"/>
		</g>
		<g>
			<path style="fill:#FFFFFF;" d="M641.621,280.005l-22.895,3.847l17.939-15.052c-0.857-3.404-1.225-6.967-1.044-10.595
				l-21.191-10.547l23.961-1.675c1.305-3.129,3.026-6.003,5.077-8.578l-11.239-21.554l20.912,13.068
				c2.658-1.601,5.522-2.861,8.524-3.742l3.659-24.597l9.399,23.264c1.458,0.118,2.924,0.315,4.394,0.616
				c1.487,0.305,2.929,0.707,4.332,1.18l17.626-17.961l-6.084,24.398c2.308,1.919,4.363,4.108,6.118,6.512l24.716-4.153
				l-19.027,15.964c0.819,2.98,1.266,6.088,1.29,9.263l22.033,10.967l-24.202,1.692c-1.16,3.213-2.749,6.18-4.682,8.857
				l11.084,21.258l-20.051-12.53c-2.943,2.009-6.177,3.587-9.602,4.664l-3.442,23.137l-8.689-21.507
				c-1.98-0.073-3.979-0.301-5.984-0.712c-1.686-0.346-3.316-0.811-4.893-1.371l-16.184,16.491l5.592-22.426
				C646.172,285.841,643.66,283.081,641.621,280.005z"/>
			<g>
				<g>
					<polygon style="fill:#FDD836;" points="661.174,228.483 668.743,229.38 675.892,226.737 665.325,200.581 					"/>
					
						<ellipse transform="matrix(-0.993 0.1179 -0.1179 -0.993 1369.2893 430.9929)" style="fill:#FDD836;" cx="671.901" cy="255.984" rx="4.384" ry="3.183"/>
				</g>
				<g>
					<polygon style="fill:#FDD836;" points="645.272,240.865 651.922,237.141 656.152,230.801 632.23,215.852 					"/>
					
						<ellipse transform="matrix(-0.7341 0.679 -0.679 -0.7341 1336.4298 -9.7037)" style="fill:#FDD836;" cx="670.115" cy="256.808" rx="4.384" ry="3.183"/>
				</g>
				<g>
					<polygon style="fill:#FDD836;" points="639.685,260.228 642.876,253.307 642.571,245.691 614.431,247.658 					"/>
					
						<ellipse transform="matrix(-0.1948 0.9808 -0.9808 -0.1948 1053.059 -347.4616)" style="fill:#FDD836;" cx="669.154" cy="258.525" rx="4.384" ry="3.183"/>
				</g>
				<g>
					<polygon style="fill:#FDD836;" points="646.546,279.178 645.059,271.703 640.336,265.721 618.727,283.853 					"/>
					
						<ellipse transform="matrix(0.419 0.908 -0.908 0.419 625.458 -456.4576)" style="fill:#FDD836;" cx="669.386" cy="260.478" rx="4.384" ry="3.183"/>
				</g>
				<g>
					<polygon style="fill:#FDD836;" points="663.235,290.476 657.638,285.302 650.302,283.238 643.477,310.609 					"/>
					
						<ellipse transform="matrix(0.8727 0.4883 -0.4883 0.8727 213.3185 -294.1832)" style="fill:#FDD836;" cx="670.722" cy="261.922" rx="4.384" ry="3.183"/>
				</g>
				<g>
					<polygon style="fill:#FDD836;" points="683.377,289.806 675.809,288.91 668.66,291.553 679.227,317.708 					"/>
					
						<ellipse transform="matrix(0.993 -0.1179 0.1179 0.993 -26.2275 81.1084)" style="fill:#FDD836;" cx="672.651" cy="262.305" rx="4.384" ry="3.183"/>
				</g>
				<g>
					<polygon style="fill:#FDD836;" points="699.28,277.425 692.63,281.149 688.4,287.489 712.322,302.438 					"/>
					
						<ellipse transform="matrix(0.7341 -0.679 0.679 0.7341 1.7761 527.498)" style="fill:#FDD836;" cx="674.437" cy="261.481" rx="4.384" ry="3.183"/>
				</g>
				<g>
					<polygon style="fill:#FDD836;" points="704.867,258.062 701.676,264.983 701.981,272.598 730.121,270.631 					"/>
					
						<ellipse transform="matrix(0.1948 -0.9808 0.9808 0.1948 289.0608 871.6334)" style="fill:#FDD836;" cx="675.398" cy="259.765" rx="4.384" ry="3.183"/>
				</g>
				<g>
					<polygon style="fill:#FDD836;" points="698.006,239.112 699.493,246.587 704.215,252.569 725.825,234.437 					"/>
					
						<ellipse transform="matrix(-0.419 -0.908 0.908 -0.419 723.9365 978.8779)" style="fill:#FDD836;" cx="675.166" cy="257.811" rx="4.384" ry="3.183"/>
				</g>
				<g>
					<polygon style="fill:#FDD836;" points="681.317,227.814 686.913,232.988 694.25,235.051 701.075,207.68 					"/>
					
						<ellipse transform="matrix(-0.8727 -0.4883 0.4883 -0.8727 1136.6583 809.1434)" style="fill:#FDD836;" cx="673.83" cy="256.367" rx="4.384" ry="3.183"/>
				</g>
				<g>
					<polygon style="fill:#FDD836;" points="661.174,228.483 668.743,229.38 675.892,226.737 665.325,200.581 					"/>
					
						<ellipse transform="matrix(-0.993 0.1179 -0.1179 -0.993 1369.2893 430.9929)" style="fill:#FDD836;" cx="671.901" cy="255.984" rx="4.384" ry="3.183"/>
				</g>
			</g>
			<circle style="fill:#F9A823;" cx="671.836" cy="259.975" r="36.253"/>
		</g>
	</g>
	<g>
		<g style="opacity:0.2;">
			<g>
				<rect x="839.484" y="179.841" style="fill:#332E2E;" width="2" height="85.352"/>
			</g>
			<g>
				<rect x="776.411" y="182.043" style="fill:#332E2E;" width="2" height="85.352"/>
			</g>
			<g id="XMLID_174_">
				<path style="fill:#332E2E;" d="M761.228,282.229h3.052v-9.152c0-13.478,10.927-24.405,24.406-24.405
					c4.233,0,7.912,1.079,10.969,2.976c3.64-8.902,12.376-15.179,22.588-15.179c13.478,0,24.406,10.927,24.406,24.406v8.8
					c10.543,3.289,18.304,13.13,18.304,24.757c0,5.705-1.845,10.969-4.969,15.253H745.377c-1.559-2.693-2.453-5.815-2.453-9.152
					C742.924,290.425,751.118,282.229,761.228,282.229z"/>
			</g>
		</g>
		<g>
			
				<line style="fill:none;stroke:#B0BEC5;stroke-width:2;stroke-miterlimit:10;" x1="837.975" y1="253.354" x2="837.975" y2="168.002"/>
			
				<line style="fill:none;stroke:#B0BEC5;stroke-width:2;stroke-miterlimit:10;" x1="774.901" y1="255.557" x2="774.901" y2="170.204"/>
			
				<use xlink:href="#New_Symbol_21"  width="52.202" height="32.789" id="XMLID_173_" x="-26.153" y="-17.16" transform="matrix(2.3422 0 0 -2.3422 801.4288 261.2381)" style="overflow:visible;"/>
		</g>
	</g>
	<g>
		<g style="opacity:0.2;">
			<g>
				<polygon id="XMLID_172_" style="fill:#332E2E;" points="588.842,509.658 606.269,509.265 583.188,486.102 570.049,486.398 				
					"/>
			</g>
			<polygon id="XMLID_40_" style="fill:#332E2E;" points="520.249,424.561 654.137,484.746 534.791,503.384 			"/>
		</g>
		<polygon style="fill:#795649;" points="591.432,405.52 531.488,475.286 542.956,474.854 599.62,409.495 		"/>
		<g>
			<g>
				<polygon id="XMLID_176_" style="fill:#888480;" points="589.25,511.409 605.998,508.109 604.48,455.211 591.854,457.699 				"/>
			</g>
			<polygon id="XMLID_37_" style="fill:#7099BA;" points="598.93,314.881 654.137,484.746 543.843,503.525 			"/>
			<g>
				<polygon style="fill:#8AB8D4;" points="573.743,401.133 577.723,387.503 598.526,403.832 619.146,377.084 623.177,389.487 
					598.949,420.918 				"/>
				<polygon style="fill:#8AB8D4;" points="565.31,430.011 569.454,415.819 597.65,441.69 628.453,405.721 632.387,417.827 
					597.029,459.115 				"/>
				<polygon style="fill:#8AB8D4;" points="554.952,465.482 559.018,451.559 597.112,486.467 638.844,437.693 642.706,449.575 
					605.533,493.022 588.222,495.969 				"/>
				<polygon style="fill:#8AB8D4;" points="593.216,334.448 597.054,321.304 598.916,322.884 600.784,320.586 604.548,332.169 
					598.828,339.21 				"/>
				<polygon style="fill:#8AB8D4;" points="583.351,368.23 587.717,353.278 598.579,361.345 609.328,346.875 613.851,360.792 
					599.448,380.183 				"/>
			</g>
		</g>
	</g>
	<g>
		<g style="opacity:0.2;">
			<g>
				<rect x="1009.596" y="137.206" style="fill:#332E2E;" width="1.36" height="108.029"/>
			</g>
			<g>
				<rect x="966.714" y="138.703" style="fill:#332E2E;" width="1.36" height="108.029"/>
			</g>
			<g id="XMLID_177_">
				<path style="fill:#332E2E;" d="M956.392,256.817h2.075v-6.222c0-9.163,7.429-16.592,16.593-16.592
					c2.878,0,5.379,0.733,7.457,2.023c2.475-6.052,8.414-10.32,15.357-10.32c9.164,0,16.593,7.429,16.593,16.593v5.983
					c7.168,2.236,12.444,8.926,12.444,16.832c0,3.879-1.254,7.458-3.378,10.37h-77.917c-1.06-1.831-1.668-3.953-1.668-6.222
					C943.948,262.389,949.518,256.817,956.392,256.817z"/>
			</g>
		</g>
		<g>
			
				<line style="fill:none;stroke:#B0BEC5;stroke-width:2;stroke-miterlimit:10;" x1="1002.309" y1="239.493" x2="1002.309" y2="131.464"/>
			
				<line style="fill:none;stroke:#B0BEC5;stroke-width:2;stroke-miterlimit:10;" x1="959.427" y1="240.99" x2="959.427" y2="132.961"/>
			
				<use xlink:href="#New_Symbol_21"  width="52.202" height="32.789" id="XMLID_175_" x="-26.153" y="-17.16" transform="matrix(1.5924 0 0 -1.5924 977.462 244.8525)" style="overflow:visible;"/>
		</g>
	</g>
	<g>
		<polygon style="opacity:0.2;fill:#332E2E;" points="1084.701,488.082 1153.294,417.222 1016.414,432.99 1014.785,412.67 
			787.062,449.689 		"/>
		<polygon style="fill:#795649;" points="1028.717,385.313 1101.573,459.681 1089.064,459.681 1018.613,389.084 		"/>
		<polygon style="fill:#34D4F0;" points="1084.701,488.082 1001.373,256.891 938.109,345.705 907.598,293.191 787.062,449.689 		"/>
		<polygon style="opacity:0.51;fill:#74E4F6;" points="907.598,293.191 899.459,328.767 910.716,320.488 921.182,345.557 
			921.182,328.767 932.513,336.072 		"/>
		<polygon style="opacity:0.51;fill:#74E4F6;" points="1001.373,256.891 986.811,340.603 1003.816,327.011 1039.148,361.695 		"/>
		<polygon style="opacity:0.51;fill:#74E4F6;" points="856.948,410.513 896.397,380.182 927.849,414.799 896.331,399.9 
			886.484,427.077 885.078,399.827 		"/>
	</g>
	<rect x="0" y="772.903" width="1600" height="127.097"/>
	<g>
		<defs>
			<rect id="SVGID_4_" x="0" y="0" width="1600" height="746.147"/>
		</defs>
		<clipPath id="SVGID_5_">
			<use xlink:href="#SVGID_4_"  style="overflow:visible;"/>
		</clipPath>
		<g style="clip-path:url(#SVGID_5_);">
			<path style="opacity:0.2;fill:#332E2E;" d="M1061.584,585.798V-0.21l140.786,0.106v585.901c0,0-33.566-13.171-70.393,0
				C1095.15,598.969,1061.584,585.798,1061.584,585.798z"/>
			<path style="opacity:0.2;fill:#332E2E;" d="M538.418,585.798V-0.21L397.632-0.104v585.901c0,0,33.566-13.171,70.393,0
				S538.418,585.798,538.418,585.798z"/>
			<path style="fill:#B72025;" d="M1073.755,601.039V-0.21l147.337,0.109v601.14c0,0-35.128-13.514-73.668,0
				C1108.882,614.553,1073.755,601.039,1073.755,601.039z"/>
			<path style="opacity:0.2;fill:#332E2E;" d="M1073.755,601.039V-0.21l147.337,0.109v601.14c0,0-35.128-13.514-73.668,0
				C1108.882,614.553,1073.755,601.039,1073.755,601.039z"/>
			<path style="opacity:0.2;fill:#332E2E;" d="M1126.561,649.124V-0.144l140.786,0.106v649.161c0,0-33.566-13.172-70.393,0
				C1160.127,662.295,1126.561,649.124,1126.561,649.124z"/>
			<path style="fill:#B72025;" d="M1141.755,666.013V-0.142l147.337,0.109v666.046c0,0-35.128-13.514-73.668,0
				C1176.882,679.527,1141.755,666.013,1141.755,666.013z"/>
			<path style="fill:#B72025;" d="M526.245,601.039V-0.21L378.908-0.101v601.14c0,0,35.128-13.514,73.669,0
				C491.118,614.553,526.245,601.039,526.245,601.039z"/>
			<path style="opacity:0.2;fill:#332E2E;" d="M526.245,601.039V-0.21L378.908-0.101v601.14c0,0,35.128-13.514,73.669,0
				C491.118,614.553,526.245,601.039,526.245,601.039z"/>
			<path style="opacity:0.2;fill:#332E2E;" d="M473.442,649.124V-0.112L332.656-0.005v649.129c0,0,33.566-13.172,70.393,0
				S473.442,649.124,473.442,649.124z"/>
			<path style="fill:#B72025;" d="M458.245,666.013V-0.109L310.908,0v666.012c0,0,35.128-13.514,73.669,0
				S458.245,666.013,458.245,666.013z"/>
			<path style="opacity:0.2;fill:#332E2E;" d="M397.691,721.333V-0.09L35.63,0.016v727.168h325.508
				C382.402,727.185,397.691,721.333,397.691,721.333z"/>
			<polygon style="fill:#D41F26;" points="382.579,-0.087 0.062,0.022 0.062,746.104 382.579,746.104 			"/>
			<path style="opacity:0.2;fill:#332E2E;" d="M1202.37,721.333V-0.09l362.061,0.106v727.168h-325.508
				C1217.66,727.185,1202.37,721.333,1202.37,721.333z"/>
			<polygon style="fill:#D41F26;" points="1215.913,-0.087 1600,0.022 1600,746.104 1215.913,746.104 			"/>
		</g>
	</g>
	<rect x="0" y="746.147" style="fill:#B72025;" width="1600" height="26.755"/>
	<g>
		<g>
			<rect x="461.471" y="747.81" style="fill:#231F20;" width="6.302" height="11.715"/>
			<path style="fill:#F9CE1E;" d="M466.736,718.747c-0.78-1.889-3.45-1.889-4.23,0c-4.136,10.021-11.741,32.233,2.115,32.233
				S470.872,728.768,466.736,718.747z"/>
		</g>
		<g>
			<rect x="509.376" y="747.81" style="fill:#231F20;" width="6.302" height="11.715"/>
			<path style="fill:#F9CE1E;" d="M514.642,718.747c-0.78-1.889-3.45-1.889-4.23,0c-4.136,10.021-11.741,32.233,2.115,32.233
				S518.778,728.768,514.642,718.747z"/>
		</g>
		<g>
			<rect x="557.282" y="747.81" style="fill:#231F20;" width="6.302" height="11.715"/>
			<path style="fill:#F9CE1E;" d="M562.547,718.747c-0.78-1.889-3.45-1.889-4.23,0c-4.136,10.021-11.741,32.233,2.115,32.233
				S566.683,728.768,562.547,718.747z"/>
		</g>
		<g>
			<rect x="605.187" y="747.81" style="fill:#231F20;" width="6.302" height="11.715"/>
			<path style="fill:#F9CE1E;" d="M610.453,718.747c-0.78-1.889-3.45-1.889-4.23,0c-4.136,10.021-11.741,32.233,2.115,32.233
				S614.589,728.768,610.453,718.747z"/>
		</g>
		<g>
			<rect x="653.093" y="747.81" style="fill:#231F20;" width="6.302" height="11.715"/>
			<path style="fill:#F9CE1E;" d="M658.359,718.747c-0.78-1.889-3.45-1.889-4.23,0c-4.136,10.021-11.741,32.233,2.115,32.233
				S662.494,728.768,658.359,718.747z"/>
		</g>
		<g>
			<rect x="700.998" y="747.81" style="fill:#231F20;" width="6.302" height="11.715"/>
			<path style="fill:#F9CE1E;" d="M706.264,718.747c-0.78-1.889-3.45-1.889-4.23,0c-4.136,10.021-11.741,32.233,2.115,32.233
				S710.4,728.768,706.264,718.747z"/>
		</g>
		<g>
			<rect x="748.904" y="747.81" style="fill:#231F20;" width="6.302" height="11.715"/>
			<path style="fill:#F9CE1E;" d="M754.17,718.747c-0.78-1.889-3.45-1.889-4.23,0c-4.136,10.021-11.741,32.233,2.115,32.233
				S758.306,728.768,754.17,718.747z"/>
		</g>
		<g>
			<rect x="796.81" y="747.81" style="fill:#231F20;" width="6.302" height="11.715"/>
			<path style="fill:#F9CE1E;" d="M802.075,718.747c-0.78-1.889-3.45-1.889-4.23,0c-4.136,10.021-11.741,32.233,2.115,32.233
				S806.211,728.768,802.075,718.747z"/>
		</g>
		<g>
			<rect x="844.715" y="747.81" style="fill:#231F20;" width="6.302" height="11.715"/>
			<path style="fill:#F9CE1E;" d="M849.981,718.747c-0.78-1.889-3.45-1.889-4.23,0c-4.136,10.021-11.741,32.233,2.115,32.233
				S854.117,728.768,849.981,718.747z"/>
		</g>
		<g>
			<rect x="892.621" y="747.81" style="fill:#231F20;" width="6.302" height="11.715"/>
			<path style="fill:#F9CE1E;" d="M897.887,718.747c-0.78-1.889-3.45-1.889-4.23,0c-4.136,10.021-11.741,32.233,2.115,32.233
				S902.022,728.768,897.887,718.747z"/>
		</g>
		<g>
			<rect x="940.526" y="747.81" style="fill:#231F20;" width="6.302" height="11.715"/>
			<path style="fill:#F9CE1E;" d="M945.792,718.747c-0.78-1.889-3.45-1.889-4.23,0c-4.136,10.021-11.741,32.233,2.115,32.233
				S949.928,728.768,945.792,718.747z"/>
		</g>
		<g>
			<rect x="988.432" y="747.81" style="fill:#231F20;" width="6.302" height="11.715"/>
			<path style="fill:#F9CE1E;" d="M993.698,718.747c-0.78-1.889-3.45-1.889-4.23,0c-4.136,10.021-11.741,32.233,2.115,32.233
				S997.833,728.768,993.698,718.747z"/>
		</g>
		<g>
			<rect x="1036.338" y="747.81" style="fill:#231F20;" width="6.302" height="11.715"/>
			<path style="fill:#F9CE1E;" d="M1041.603,718.747c-0.78-1.889-3.45-1.889-4.23,0c-4.136,10.021-11.741,32.233,2.115,32.233
				C1053.344,750.98,1045.739,728.768,1041.603,718.747z"/>
		</g>
		<g>
			<rect x="1084.243" y="747.81" style="fill:#231F20;" width="6.302" height="11.715"/>
			<path style="fill:#F9CE1E;" d="M1089.509,718.747c-0.78-1.889-3.45-1.889-4.23,0c-4.136,10.021-11.741,32.233,2.115,32.233
				C1101.25,750.98,1093.645,728.768,1089.509,718.747z"/>
		</g>
		<g>
			<rect x="1132.149" y="747.81" style="fill:#231F20;" width="6.302" height="11.715"/>
			<path style="fill:#F9CE1E;" d="M1137.414,718.747c-0.78-1.889-3.45-1.889-4.23,0c-4.136,10.021-11.741,32.233,2.115,32.233
				C1149.155,750.98,1141.55,728.768,1137.414,718.747z"/>
		</g>
	</g>
	<g>
		<defs>
			<rect id="SVGID_6_" x="424.716" y="772.903" width="750.568" height="126.988"/>
		</defs>
		<clipPath id="SVGID_7_">
			<use xlink:href="#SVGID_6_"  style="overflow:visible;"/>
		</clipPath>
		<g style="clip-path:url(#SVGID_7_);">
			<g>
				<circle style="fill:#231F20;" cx="502.045" cy="926.2" r="48.613"/>
				<path style="fill:#231F20;" d="M554.728,898.163c0,0-68.492-65.024-104.017-82.616c0,0,29.565,53.753,8.75,77.307
					L554.728,898.163"/>
				<path style="fill:#231F20;" d="M555.905,896.93l-0.18,11.648c-0.054,3.516-2.938,6.312-6.454,6.258l-94.829-1.464
					c-3.516-0.054-6.313-2.938-6.258-6.454l0.18-11.647c0.054-3.517,2.939-6.313,6.455-6.258l94.829,1.464
					C553.163,890.53,555.959,893.414,555.905,896.93"/>
				<path style="fill:#231F20;" d="M437.956,812.724c-0.087,5.646,4.416,10.298,10.061,10.385
					c5.655,0.087,10.307-4.423,10.394-10.069c0.087-5.647-4.423-10.299-10.078-10.386
					C442.687,802.566,438.043,807.077,437.956,812.724z"/>
			</g>
			<g>
				<circle style="fill:#231F20;" cx="713.062" cy="916.037" r="48.613"/>
				<path style="fill:#231F20;" d="M765.745,888c0,0-68.492-65.024-104.017-82.616c0,0,29.565,53.753,8.75,77.307L765.745,888"/>
				<path style="fill:#231F20;" d="M766.922,886.768l-0.18,11.648c-0.054,3.516-2.938,6.312-6.454,6.258l-94.829-1.464
					c-3.516-0.054-6.313-2.938-6.258-6.454l0.18-11.647c0.054-3.517,2.939-6.313,6.455-6.258l94.829,1.464
					C764.18,880.367,766.976,883.251,766.922,886.768"/>
				<path style="fill:#231F20;" d="M648.973,802.561c-0.087,5.646,4.416,10.298,10.062,10.385
					c5.654,0.087,10.307-4.423,10.394-10.069c0.087-5.647-4.423-10.299-10.078-10.386
					C653.704,792.403,649.06,796.914,648.973,802.561z"/>
			</g>
			<g>
				<circle style="fill:#231F20;" cx="827.073" cy="936.188" r="48.613"/>
				<path style="fill:#231F20;" d="M879.756,908.152c0,0-68.492-65.024-104.017-82.616c0,0,29.565,53.753,8.75,77.307
					L879.756,908.152"/>
				<path style="fill:#231F20;" d="M880.933,906.919l-0.18,11.647c-0.054,3.516-2.938,6.312-6.454,6.258l-94.829-1.464
					c-3.516-0.054-6.313-2.938-6.258-6.454l0.18-11.648c0.054-3.517,2.939-6.313,6.455-6.258l94.829,1.464
					C878.191,900.519,880.987,903.402,880.933,906.919"/>
				<path style="fill:#231F20;" d="M762.984,822.712c-0.087,5.646,4.416,10.298,10.061,10.385
					c5.655,0.087,10.307-4.423,10.394-10.069c0.087-5.647-4.423-10.299-10.078-10.386
					C767.715,812.555,763.071,817.065,762.984,822.712z"/>
			</g>
			<g>
				<circle style="fill:#231F20;" cx="1076.342" cy="908.902" r="48.613"/>
				<path style="fill:#231F20;" d="M1129.025,880.865c0,0-68.492-65.024-104.017-82.616c0,0,29.565,53.753,8.75,77.307
					L1129.025,880.865"/>
				<path style="fill:#231F20;" d="M1130.202,879.632l-0.18,11.647c-0.054,3.516-2.938,6.312-6.454,6.258l-94.829-1.464
					c-3.516-0.054-6.313-2.938-6.258-6.454l0.18-11.647c0.054-3.517,2.939-6.313,6.455-6.258l94.829,1.464
					C1127.461,873.232,1130.257,876.116,1130.202,879.632"/>
				<path style="fill:#231F20;" d="M1012.253,795.426c-0.087,5.646,4.416,10.298,10.062,10.385
					c5.655,0.087,10.307-4.423,10.394-10.069c0.087-5.647-4.423-10.299-10.078-10.386
					C1016.985,785.268,1012.34,789.779,1012.253,795.426z"/>
			</g>
			<g>
				<circle style="fill:#231F20;" cx="941.148" cy="902.517" r="48.613"/>
			</g>
			<g>
				<circle style="fill:#231F20;" cx="1012.289" cy="936.188" r="48.613"/>
			</g>
			<g>
				<circle style="fill:#231F20;" cx="1131.112" cy="942.427" r="48.613"/>
			</g>
			<g>
				<circle style="fill:#231F20;" cx="898.53" cy="942.427" r="48.613"/>
			</g>
			<g>
				<circle style="fill:#231F20;" cx="767.547" cy="899" r="48.613"/>
			</g>
			<g>
				<circle style="fill:#231F20;" cx="958.107" cy="947.204" r="48.613"/>
			</g>
			<g>
				<circle style="fill:#231F20;" cx="1158.557" cy="891.472" r="48.613"/>
			</g>
			<g>
				<circle style="fill:#231F20;" cx="642.563" cy="914.836" r="48.613"/>
			</g>
			<g>
				<circle style="fill:#231F20;" cx="450.711" cy="924.825" r="48.613"/>
			</g>
			<g>
				<circle style="fill:#231F20;" cx="556.802" cy="907.413" r="48.613"/>
			</g>
			<g>
				<circle style="fill:#231F20;" cx="880.934" cy="901.924" r="48.613"/>
			</g>
			<g>
				<circle style="fill:#231F20;" cx="1006.799" cy="893.813" r="48.613"/>
			</g>
			<g>
				<path style="fill:#231F20;" d="M511.942,929.924c0,0,68.492-65.024,104.017-82.616c0,0-29.565,53.753-8.75,77.307
					L511.942,929.924"/>
				<path style="fill:#231F20;" d="M628.713,844.485c0.087,5.646-4.416,10.298-10.062,10.385
					c-5.654,0.087-10.307-4.423-10.394-10.069c-0.087-5.647,4.423-10.299,10.078-10.386
					C623.982,834.327,628.626,838.838,628.713,844.485z"/>
			</g>
		</g>
	</g>
	<g>
		<defs>
			<rect id="SVGID_8_" x="1175.284" y="772.903" width="424.716" height="126.988"/>
		</defs>
		<clipPath id="SVGID_9_">
			<use xlink:href="#SVGID_8_"  style="overflow:visible;"/>
		</clipPath>
		<g style="clip-path:url(#SVGID_9_);">
			<g>
				<circle style="fill:#231F20;" cx="1604.052" cy="916.037" r="48.613"/>
				<path style="fill:#231F20;" d="M1551.369,888c0,0,68.492-65.024,104.017-82.616c0,0-29.565,53.753-8.75,77.307L1551.369,888"/>
				<path style="fill:#231F20;" d="M1550.191,886.768l0.18,11.648c0.054,3.516,2.938,6.312,6.454,6.258l94.829-1.464
					c3.516-0.054,6.313-2.938,6.258-6.454l-0.18-11.647c-0.054-3.517-2.939-6.313-6.455-6.258l-94.829,1.464
					C1552.933,880.367,1550.137,883.251,1550.191,886.768"/>
			</g>
			<g>
				<circle style="fill:#231F20;" cx="1490.04" cy="936.188" r="48.613"/>
				<path style="fill:#231F20;" d="M1437.357,908.152c0,0,68.492-65.024,104.017-82.616c0,0-29.565,53.753-8.75,77.307
					L1437.357,908.152"/>
				<path style="fill:#231F20;" d="M1436.18,906.919l0.18,11.647c0.054,3.516,2.938,6.312,6.454,6.258l94.829-1.464
					c3.516-0.054,6.313-2.938,6.258-6.454l-0.18-11.648c-0.054-3.517-2.939-6.313-6.455-6.258l-94.829,1.464
					C1438.922,900.519,1436.126,903.402,1436.18,906.919"/>
				<path style="fill:#231F20;" d="M1554.129,822.712c0.087,5.646-4.416,10.298-10.062,10.385
					c-5.654,0.087-10.307-4.423-10.394-10.069c-0.087-5.647,4.423-10.299,10.078-10.386
					C1549.398,812.555,1554.042,817.065,1554.129,822.712z"/>
			</g>
			<g>
				<circle style="fill:#231F20;" cx="1240.771" cy="908.902" r="48.613"/>
				<path style="fill:#231F20;" d="M1188.088,880.865c0,0,68.492-65.024,104.017-82.616c0,0-29.565,53.753-8.75,77.307
					L1188.088,880.865"/>
				<path style="fill:#231F20;" d="M1186.911,879.632l0.18,11.647c0.054,3.516,2.938,6.312,6.454,6.258l94.829-1.464
					c3.516-0.054,6.313-2.938,6.258-6.454l-0.18-11.647c-0.054-3.517-2.939-6.313-6.455-6.258l-94.829,1.464
					C1189.652,873.232,1186.857,876.116,1186.911,879.632"/>
				<path style="fill:#231F20;" d="M1304.86,795.426c0.087,5.646-4.416,10.298-10.062,10.385
					c-5.655,0.087-10.307-4.423-10.394-10.069c-0.087-5.647,4.423-10.299,10.078-10.386
					C1300.128,785.268,1304.773,789.779,1304.86,795.426z"/>
			</g>
			<g>
				<circle style="fill:#231F20;" cx="1375.966" cy="902.517" r="48.613"/>
			</g>
			<g>
				<circle style="fill:#231F20;" cx="1304.824" cy="936.188" r="48.613"/>
			</g>
			<g>
				<circle style="fill:#231F20;" cx="1186.001" cy="942.427" r="48.613"/>
			</g>
			<g>
				<circle style="fill:#231F20;" cx="1418.583" cy="942.427" r="48.613"/>
			</g>
			<g>
				<circle style="fill:#231F20;" cx="1549.566" cy="899" r="48.613"/>
			</g>
			<g>
				<circle style="fill:#231F20;" cx="1359.006" cy="947.204" r="48.613"/>
			</g>
			<g>
				<circle style="fill:#231F20;" cx="1158.557" cy="891.472" r="48.613"/>
			</g>
			<g>
				<circle style="fill:#231F20;" cx="1436.179" cy="901.924" r="48.613"/>
			</g>
			<g>
				<circle style="fill:#231F20;" cx="1310.314" cy="893.813" r="48.613"/>
			</g>
		</g>
	</g>
	<g>
		<defs>
			<rect id="SVGID_10_" x="0" y="772.903" width="424.716" height="126.988"/>
		</defs>
		<clipPath id="SVGID_11_">
			<use xlink:href="#SVGID_10_"  style="overflow:visible;"/>
		</clipPath>
		<g style="clip-path:url(#SVGID_11_);">
			<g>
				<circle style="fill:#231F20;" cx="349.113" cy="926.2" r="48.613"/>
				<path style="fill:#231F20;" d="M296.431,898.163c0,0,68.492-65.024,104.017-82.616c0,0-29.565,53.753-8.75,77.307
					L296.431,898.163"/>
				<path style="fill:#231F20;" d="M295.253,896.93l0.18,11.648c0.054,3.516,2.938,6.312,6.454,6.258l94.829-1.464
					c3.516-0.054,6.313-2.938,6.258-6.454l-0.18-11.647c-0.054-3.517-2.939-6.313-6.455-6.258l-94.829,1.464
					C297.995,890.53,295.199,893.414,295.253,896.93"/>
				<path style="fill:#231F20;" d="M413.202,812.724c0.087,5.646-4.416,10.298-10.061,10.385
					c-5.655,0.087-10.307-4.423-10.394-10.069c-0.087-5.647,4.423-10.299,10.078-10.386
					C408.471,802.566,413.115,807.077,413.202,812.724z"/>
			</g>
			<g>
				<circle style="fill:#231F20;" cx="138.097" cy="916.037" r="48.613"/>
				<path style="fill:#231F20;" d="M85.414,888c0,0,68.492-65.024,104.017-82.616c0,0-29.565,53.753-8.75,77.307L85.414,888"/>
				<path style="fill:#231F20;" d="M84.236,886.768l0.18,11.648c0.054,3.516,2.938,6.312,6.454,6.258l94.829-1.464
					c3.516-0.054,6.313-2.938,6.258-6.454l-0.18-11.647c-0.054-3.517-2.939-6.313-6.455-6.258l-94.829,1.464
					C86.978,880.367,84.182,883.251,84.236,886.768"/>
				<path style="fill:#231F20;" d="M202.185,802.561c0.087,5.646-4.416,10.298-10.061,10.385
					c-5.655,0.087-10.307-4.423-10.394-10.069c-0.087-5.647,4.423-10.299,10.078-10.386
					C197.454,792.403,202.098,796.914,202.185,802.561z"/>
			</g>
			<g>
				<circle style="fill:#231F20;" cx="24.085" cy="936.188" r="48.613"/>
				<path style="fill:#231F20;" d="M-28.598,908.152c0,0,68.492-65.024,104.017-82.616c0,0-29.565,53.753-8.75,77.307
					L-28.598,908.152"/>
				<path style="fill:#231F20;" d="M-29.775,906.919l0.18,11.647c0.054,3.516,2.938,6.312,6.454,6.258l94.829-1.464
					c3.516-0.054,6.313-2.938,6.258-6.454l-0.18-11.648c-0.054-3.517-2.939-6.313-6.455-6.258l-94.829,1.464
					C-27.033,900.519-29.829,903.402-29.775,906.919"/>
				<path style="fill:#231F20;" d="M88.174,822.712c0.087,5.646-4.416,10.298-10.061,10.385
					c-5.655,0.087-10.307-4.423-10.394-10.069c-0.087-5.647,4.423-10.299,10.078-10.386
					C83.443,812.555,88.087,817.065,88.174,822.712z"/>
			</g>
			<g>
				<circle style="fill:#231F20;" cx="-47.372" cy="942.427" r="48.613"/>
			</g>
			<g>
				<circle style="fill:#231F20;" cx="83.611" cy="899" r="48.613"/>
			</g>
			<g>
				<circle style="fill:#231F20;" cx="208.595" cy="914.836" r="48.613"/>
			</g>
			<g>
				<circle style="fill:#231F20;" cx="400.447" cy="924.825" r="48.613"/>
			</g>
			<g>
				<circle style="fill:#231F20;" cx="294.356" cy="907.413" r="48.613"/>
			</g>
			<g>
				<circle style="fill:#231F20;" cx="-29.776" cy="901.924" r="48.613"/>
			</g>
			<g>
				<path style="fill:#231F20;" d="M339.216,929.924c0,0-68.492-65.024-104.017-82.616c0,0,29.565,53.753,8.75,77.307
					L339.216,929.924"/>
				<path style="fill:#231F20;" d="M222.445,844.485c-0.087,5.646,4.416,10.298,10.061,10.385
					c5.655,0.087,10.307-4.423,10.394-10.069c0.087-5.647-4.423-10.299-10.078-10.386
					C227.176,834.327,222.532,838.838,222.445,844.485z"/>
			</g>
		</g>
	</g>
	<g>
		<defs>
			<rect id="SVGID_12_" x="0" y="0" width="1600" height="235.478"/>
		</defs>
		<clipPath id="SVGID_13_">
			<use xlink:href="#SVGID_12_"  style="overflow:visible;"/>
		</clipPath>
		<g style="clip-path:url(#SVGID_13_);">
			<path style="fill:#B72025;" d="M1091.895-0.109V208.62c23.027,23.027,60.362,23.027,83.39,0s60.362-23.027,83.39,0
				s60.362,23.027,83.39,0s60.362-23.027,83.39,0c23.027,23.027,60.362,23.027,83.39,0c23.027-23.027,60.362-23.027,83.39,0
				s60.362,23.027,83.39,0s60.362-23.027,83.39,0s60.362,23.027,83.39,0V-0.109H1091.895z"/>
			<path style="opacity:0.2;fill:#332E2E;" d="M1091.895-0.109V208.62c23.027,23.027,60.362,23.027,83.39,0s60.362-23.027,83.39,0
				s60.362,23.027,83.39,0s60.362-23.027,83.39,0c23.027,23.027,60.362,23.027,83.39,0c23.027-23.027,60.362-23.027,83.39,0
				s60.362,23.027,83.39,0s60.362-23.027,83.39,0s60.362,23.027,83.39,0V-0.109H1091.895z"/>
			<g>
				<defs>
					<path id="SVGID_14_" d="M1091.895-0.109V208.62c23.027,23.027,60.362,23.027,83.39,0s60.362-23.027,83.39,0
						s60.362,23.027,83.39,0s60.362-23.027,83.39,0c23.027,23.027,60.362,23.027,83.39,0c23.027-23.027,60.362-23.027,83.39,0
						s60.362,23.027,83.39,0s60.362-23.027,83.39,0s60.362,23.027,83.39,0V-0.109H1091.895z"/>
				</defs>
				<clipPath id="SVGID_15_">
					<use xlink:href="#SVGID_14_"  style="overflow:visible;"/>
				</clipPath>
				<g style="clip-path:url(#SVGID_15_);">
					<path style="opacity:0.2;fill:#332E2E;" d="M1216.971-392.344V191.35c15.094-0.002,30.188,5.755,41.704,17.27
						c11.519,11.519,26.619,17.276,41.716,17.27v-618.234H1216.971z"/>
					<path style="opacity:0.2;fill:#332E2E;" d="M1383.728-392.344V191.35c15.094-0.002,30.188,5.755,41.704,17.27
						c11.519,11.519,26.619,17.276,41.716,17.27v-618.234H1383.728z"/>
					<path style="opacity:0.2;fill:#332E2E;" d="M1550.486-392.344V191.35c15.094-0.002,30.188,5.755,41.704,17.27
						c11.519,11.519,26.619,17.276,41.716,17.27v-618.234H1550.486z"/>
					<path style="opacity:0.2;fill:#332E2E;" d="M1050.185-392.344V191.35c15.094-0.002,30.188,5.755,41.704,17.27
						c11.519,11.519,26.619,17.276,41.716,17.27v-618.234H1050.185z"/>
				</g>
			</g>
		</g>
		<g style="clip-path:url(#SVGID_13_);">
			<path style="fill:#B72025;" d="M-242.34-0.109V208.62c23.027,23.027,60.362,23.027,83.39,0s60.362-23.027,83.39,0
				s60.362,23.027,83.39,0s60.362-23.027,83.39,0s60.362,23.027,83.39,0s60.362-23.027,83.39,0s60.362,23.027,83.39,0
				s60.362-23.027,83.39,0s60.362,23.027,83.39,0V-0.109H-242.34z"/>
			<path style="opacity:0.2;fill:#332E2E;" d="M-242.34-0.109V208.62c23.027,23.027,60.362,23.027,83.39,0s60.362-23.027,83.39,0
				s60.362,23.027,83.39,0s60.362-23.027,83.39,0s60.362,23.027,83.39,0s60.362-23.027,83.39,0s60.362,23.027,83.39,0
				s60.362-23.027,83.39,0s60.362,23.027,83.39,0V-0.109H-242.34z"/>
			<g>
				<defs>
					<path id="SVGID_16_" d="M-242.34-0.109V208.62c23.027,23.027,60.362,23.027,83.39,0s60.362-23.027,83.39,0
						s60.362,23.027,83.39,0s60.362-23.027,83.39,0s60.362,23.027,83.39,0s60.362-23.027,83.39,0s60.362,23.027,83.39,0
						s60.362-23.027,83.39,0s60.362,23.027,83.39,0V-0.109H-242.34z"/>
				</defs>
				<clipPath id="SVGID_17_">
					<use xlink:href="#SVGID_16_"  style="overflow:visible;"/>
				</clipPath>
				<g style="clip-path:url(#SVGID_17_);">
					<path style="opacity:0.2;fill:#332E2E;" d="M49.494-392.344V191.35c15.094-0.002,30.187,5.755,41.704,17.27
						c11.519,11.519,26.619,17.276,41.716,17.27v-618.234H49.494z"/>
					<path style="opacity:0.2;fill:#332E2E;" d="M216.251-392.344V191.35c15.094-0.002,30.188,5.755,41.704,17.27
						c11.519,11.519,26.619,17.276,41.716,17.27v-618.234H216.251z"/>
					<path style="opacity:0.2;fill:#332E2E;" d="M383.009-392.344V191.35c15.094-0.002,30.188,5.755,41.704,17.27
						c11.519,11.519,26.619,17.276,41.716,17.27v-618.234H383.009z"/>
				</g>
			</g>
		</g>
		<g style="clip-path:url(#SVGID_13_);">
			<path style="fill:#B72025;" d="M424.777-0.109V208.62c23.027,23.027,60.362,23.027,83.39,0s60.362-23.027,83.39,0
				c23.027,23.027,60.362,23.027,83.39,0c23.027-23.027,60.362-23.027,83.39,0c23.027,23.027,60.362,23.027,83.39,0
				s60.362-23.027,83.39,0c23.027,23.027,60.362,23.027,83.39,0c23.027-23.027,60.362-23.027,83.39,0
				c23.027,23.027,60.362,23.027,83.39,0V-0.109H424.777z"/>
			<path style="opacity:0.2;fill:#332E2E;" d="M424.777-0.109V208.62c23.027,23.027,60.362,23.027,83.39,0s60.362-23.027,83.39,0
				c23.027,23.027,60.362,23.027,83.39,0c23.027-23.027,60.362-23.027,83.39,0c23.027,23.027,60.362,23.027,83.39,0
				s60.362-23.027,83.39,0c23.027,23.027,60.362,23.027,83.39,0c23.027-23.027,60.362-23.027,83.39,0
				c23.027,23.027,60.362,23.027,83.39,0V-0.109H424.777z"/>
			<g>
				<defs>
					<path id="SVGID_18_" d="M424.777-0.109V208.62c23.027,23.027,60.362,23.027,83.39,0s60.362-23.027,83.39,0
						c23.027,23.027,60.362,23.027,83.39,0c23.027-23.027,60.362-23.027,83.39,0c23.027,23.027,60.362,23.027,83.39,0
						s60.362-23.027,83.39,0c23.027,23.027,60.362,23.027,83.39,0c23.027-23.027,60.362-23.027,83.39,0
						c23.027,23.027,60.362,23.027,83.39,0V-0.109H424.777z"/>
				</defs>
				<clipPath id="SVGID_19_">
					<use xlink:href="#SVGID_18_"  style="overflow:visible;"/>
				</clipPath>
				<g style="clip-path:url(#SVGID_19_);">
					<path style="opacity:0.2;fill:#332E2E;" d="M549.853-392.344V191.35c15.094-0.002,30.188,5.755,41.704,17.27
						c11.519,11.519,26.619,17.276,41.716,17.27v-618.234H549.853z"/>
					<path style="opacity:0.2;fill:#332E2E;" d="M716.611-392.344V191.35c15.094-0.002,30.188,5.755,41.704,17.27
						c11.519,11.519,26.619,17.276,41.716,17.27v-618.234H716.611z"/>
					<path style="opacity:0.2;fill:#332E2E;" d="M883.369-392.344V191.35c15.094-0.002,30.188,5.755,41.704,17.27
						c11.519,11.519,26.619,17.276,41.716,17.27v-618.234H883.369z"/>
					<path style="opacity:0.2;fill:#332E2E;" d="M1050.127-392.344V191.35c15.094-0.002,30.188,5.755,41.704,17.27
						c11.519,11.519,26.619,17.276,41.716,17.27v-618.234H1050.127z"/>
					<path style="opacity:0.2;fill:#332E2E;" d="M383.067-392.344V191.35c15.094-0.002,30.188,5.755,41.704,17.27
						c11.519,11.519,26.619,17.276,41.716,17.27v-618.234H383.067z"/>
				</g>
			</g>
		</g>
	</g>
</g>
<g id="Layer_1">
</g>
</svg>
