<?xml version="1.0" encoding="utf-8"?>
<!-- Generator: Adobe Illustrator 19.1.0, SVG Export Plug-In . SVG Version: 6.00 Build 0)  -->
<svg version="1.1" id="Layer_1" xmlns="http://www.w3.org/2000/svg" xmlns:xlink="http://www.w3.org/1999/xlink" x="0px" y="0px"
	 width="1600px" height="900px" viewBox="320 -170 1600 900" style="enable-background:new 320 -170 1600 900;"
	 xml:space="preserve">
<style type="text/css">
	.st0{fill:#434343;}
	.st1{clip-path:url(#SVGID_2_);}
	.st2{fill:#231F20;}
	.st3{clip-path:url(#SVGID_4_);}
	.st4{clip-path:url(#SVGID_6_);}
	.st5{fill:#808080;}
	.st6{fill:#ABABAB;}
	.st7{fill:#878787;}
	.st8{fill:#9D9D9D;}
	.st9{fill:#81D4FA;}
	.st10{fill:#44B3E6;}
	.st11{fill:#FFFFFF;}
	.st12{clip-path:url(#SVGID_8_);}
	.st13{display:none;}
</style>
<g id="Disco_Backgrounds">
	<g>
		<rect x="320" y="-159.2" class="st0" width="1600" height="17.4"/>
		<g>
			<g>
				<defs>
					<rect id="SVGID_1_" x="744.7" y="171.4" width="750.6" height="558.6"/>
				</defs>
				<clipPath id="SVGID_2_">
					<use xlink:href="#SVGID_1_"  style="overflow:visible;"/>
				</clipPath>
				<g class="st1">
					<g>
						<circle class="st2" cx="1161.2" cy="297.6" r="31.6"/>
						<path class="st2" d="M1195.4,279.4c0,0-44.5-42.2-67.5-53.6c0,0,19.2,34.9,5.7,50.2L1195.4,279.4"/>
						<path class="st2" d="M1196.2,278.6l-0.1,7.6c0,2.3-1.9,4.1-4.2,4.1l-61.6-1c-2.3,0-4.1-1.9-4.1-4.2l0.1-7.6
							c0-2.3,1.9-4.1,4.2-4.1l61.6,1C1194.4,274.5,1196.2,276.3,1196.2,278.6"/>
						<path class="st2" d="M1119.6,224c-0.1,3.7,2.9,6.7,6.5,6.7c3.7,0.1,6.7-2.9,6.7-6.5c0.1-3.7-2.9-6.7-6.5-6.7
							C1122.7,217.4,1119.7,220.3,1119.6,224z"/>
					</g>
					<g>
						<circle class="st2" cx="1354.9" cy="303.1" r="31.6"/>
						<path class="st2" d="M1389.1,284.9c0,0-44.5-42.2-67.5-53.6c0,0,19.2,34.9,5.7,50.2L1389.1,284.9"/>
						<path class="st2" d="M1389.9,284.1l-0.1,7.6c0,2.3-1.9,4.1-4.2,4.1l-61.6-1c-2.3,0-4.1-1.9-4.1-4.2l0.1-7.6
							c0-2.3,1.9-4.1,4.2-4.1l61.6,1C1388.1,280,1389.9,281.8,1389.9,284.1"/>
						<path class="st2" d="M1313.3,229.4c-0.1,3.7,2.9,6.7,6.5,6.7c3.7,0.1,6.7-2.9,6.7-6.5c0.1-3.7-2.9-6.7-6.5-6.7
							C1316.4,222.9,1313.4,225.8,1313.3,229.4z"/>
					</g>
					<g>
						<circle class="st2" cx="1422.8" cy="340.2" r="31.6"/>
						<path class="st2" d="M1388.6,322c0,0,44.5-42.2,67.5-53.6c0,0-19.2,34.9-5.7,50.2L1388.6,322"/>
						<path class="st2" d="M1387.8,321.2l0.1,7.6c0,2.3,1.9,4.1,4.2,4.1l61.6-1c2.3,0,4.1-1.9,4.1-4.2l-0.1-7.6
							c0-2.3-1.9-4.1-4.2-4.1l-61.6,1C1389.6,317,1387.8,318.9,1387.8,321.2"/>
						<path class="st2" d="M1464.4,266.5c0.1,3.7-2.9,6.7-6.5,6.7c-3.7,0.1-6.7-2.9-6.7-6.5c-0.1-3.7,2.9-6.7,6.5-6.7
							C1461.3,259.9,1464.3,262.8,1464.4,266.5z"/>
					</g>
					<g>
						<circle class="st2" cx="1080.4" cy="316" r="31.6"/>
						<path class="st2" d="M1046.2,297.8c0,0,44.5-42.2,67.5-53.6c0,0-19.2,34.9-5.7,50.2L1046.2,297.8"/>
						<path class="st2" d="M1045.4,297l0.1,7.6c0,2.3,1.9,4.1,4.2,4.1l61.6-1c2.3,0,4.1-1.9,4.1-4.2l-0.1-7.6c0-2.3-1.9-4.1-4.2-4.1
							l-61.6,1C1047.2,292.8,1045.4,294.7,1045.4,297"/>
						<path class="st2" d="M1122,242.3c0.1,3.7-2.9,6.7-6.5,6.7c-3.7,0.1-6.7-2.9-6.7-6.5c-0.1-3.7,2.9-6.7,6.5-6.7
							C1118.9,235.7,1121.9,238.6,1122,242.3z"/>
					</g>
					<g>
						<circle class="st2" cx="1033.1" cy="297" r="31.6"/>
						<path class="st2" d="M1067.3,278.8c0,0-44.5-42.2-67.5-53.6c0,0,19.2,34.9,5.7,50.2L1067.3,278.8"/>
						<path class="st2" d="M1068,278l-0.1,7.6c0,2.3-1.9,4.1-4.2,4.1l-61.6-1c-2.3,0-4.1-1.9-4.1-4.2l0.1-7.6c0-2.3,1.9-4.1,4.2-4.1
							l61.6,1C1066.3,273.8,1068.1,275.7,1068,278"/>
						<path class="st2" d="M991.5,223.3c-0.1,3.7,2.9,6.7,6.5,6.7c3.7,0.1,6.7-2.9,6.7-6.5c0.1-3.7-2.9-6.7-6.5-6.7
							C994.5,216.7,991.5,219.7,991.5,223.3z"/>
					</g>
					<g>
						<circle class="st2" cx="945.7" cy="307.9" r="31.6"/>
						<path class="st2" d="M979.9,289.7c0,0-44.5-42.2-67.5-53.6c0,0,19.2,34.9,5.7,50.2L979.9,289.7"/>
						<path class="st2" d="M980.7,288.9l-0.1,7.6c0,2.3-1.9,4.1-4.2,4.1l-61.6-1c-2.3,0-4.1-1.9-4.1-4.2l0.1-7.6
							c0-2.3,1.9-4.1,4.2-4.1l61.6,1C978.9,284.7,980.7,286.6,980.7,288.9"/>
						<path class="st2" d="M904.1,234.2c-0.1,3.7,2.9,6.7,6.5,6.7c3.7,0.1,6.7-2.9,6.7-6.5c0.1-3.7-2.9-6.7-6.5-6.7
							C907.2,227.6,904.2,230.5,904.1,234.2z"/>
					</g>
					<g>
						<circle class="st2" cx="854.4" cy="297.9" r="31.6"/>
						<path class="st2" d="M888.6,279.7c0,0-44.5-42.2-67.5-53.6c0,0,19.2,34.9,5.7,50.2L888.6,279.7"/>
						<path class="st2" d="M889.3,278.9l-0.1,7.6c0,2.3-1.9,4.1-4.2,4.1l-61.6-1c-2.3,0-4.1-1.9-4.1-4.2l0.1-7.6
							c0-2.3,1.9-4.1,4.2-4.1l61.6,1C887.6,274.7,889.4,276.6,889.3,278.9"/>
						<path class="st2" d="M812.8,224.2c-0.1,3.7,2.9,6.7,6.5,6.7c3.7,0.1,6.7-2.9,6.7-6.5c0.1-3.7-2.9-6.7-6.5-6.7
							C815.9,217.6,812.8,220.6,812.8,224.2z"/>
					</g>
					<g>
						<circle class="st2" cx="907.4" cy="324.8" r="31.6"/>
						<path class="st2" d="M873.2,306.6c0,0,44.5-42.2,67.5-53.6c0,0-19.2,34.9-5.7,50.2L873.2,306.6"/>
						<path class="st2" d="M872.5,305.8l0.1,7.6c0,2.3,1.9,4.1,4.2,4.1l61.6-1c2.3,0,4.1-1.9,4.1-4.2l-0.1-7.6
							c0-2.3-1.9-4.1-4.2-4.1l-61.6,1C874.3,301.6,872.4,303.5,872.5,305.8"/>
						<path class="st2" d="M949.1,251.1c0.1,3.7-2.9,6.7-6.5,6.7c-3.7,0.1-6.7-2.9-6.7-6.5c-0.1-3.7,2.9-6.7,6.5-6.7
							C946,244.5,949,247.5,949.1,251.1z"/>
					</g>
					<g>
						<circle class="st2" cx="858.2" cy="329.2" r="31.6"/>
					</g>
					<g>
						<circle class="st2" cx="885.1" cy="306.6" r="31.6"/>
					</g>
					<g>
						<circle class="st2" cx="1115.9" cy="300.7" r="31.6"/>
					</g>
					<g>
						<circle class="st2" cx="1200.1" cy="306.6" r="31.6"/>
					</g>
					<g>
						<circle class="st2" cx="819.4" cy="340.2" r="31.6"/>
					</g>
					<g>
						<circle class="st2" cx="768.8" cy="356.4" r="31.6"/>
					</g>
					<g>
						<circle class="st2" cx="1319.4" cy="317.4" r="31.6"/>
					</g>
					<g>
						<circle class="st2" cx="1346" cy="355.4" r="31.6"/>
					</g>
					<g>
						<circle class="st2" cx="1344.8" cy="353.9" r="31.6"/>
					</g>
					<g>
						<circle class="st2" cx="1387.8" cy="324.8" r="31.6"/>
					</g>
					<g>
						<circle class="st2" cx="1469.2" cy="353.9" r="31.6"/>
					</g>
					<polygon class="st2" points="744.7,730 744.7,363.4 889.4,316 942.4,312.3 1125.1,297.9 1213.2,305.9 1422.8,340.2 
						1495.3,369.9 1495.3,730 					"/>
				</g>
			</g>
		</g>
		<g>
			<g>
				<defs>
					<rect id="SVGID_3_" x="1495.3" y="171.4" width="424.7" height="558.6"/>
				</defs>
				<clipPath id="SVGID_4_">
					<use xlink:href="#SVGID_3_"  style="overflow:visible;"/>
				</clipPath>
				<g class="st3">
					<g>
						<circle class="st2" cx="1585.9" cy="357.9" r="31.6"/>
						<path class="st2" d="M1620.2,339.7c0,0-44.5-42.2-67.5-53.6c0,0,19.2,34.9,5.7,50.2L1620.2,339.7"/>
						<path class="st2" d="M1620.9,338.9l-0.1,7.6c0,2.3-1.9,4.1-4.2,4.1l-61.6-1c-2.3,0-4.1-1.9-4.1-4.2l0.1-7.6
							c0-2.3,1.9-4.1,4.2-4.1l61.6,1C1619.1,334.8,1620.9,336.6,1620.9,338.9"/>
						<path class="st2" d="M1544.3,284.3c-0.1,3.7,2.9,6.7,6.5,6.7c3.7,0.1,6.7-2.9,6.7-6.5c0.1-3.7-2.9-6.7-6.5-6.7
							C1547.4,277.7,1544.4,280.6,1544.3,284.3z"/>
					</g>
					<g>
						<circle class="st2" cx="1779.7" cy="363.4" r="31.6"/>
						<path class="st2" d="M1813.9,345.2c0,0-44.5-42.2-67.5-53.6c0,0,19.2,34.9,5.7,50.2L1813.9,345.2"/>
						<path class="st2" d="M1814.6,344.4l-0.1,7.6c0,2.3-1.9,4.1-4.2,4.1l-61.6-1c-2.3,0-4.1-1.9-4.1-4.2l0.1-7.6
							c0-2.3,1.9-4.1,4.2-4.1l61.6,1C1812.8,340.3,1814.7,342.1,1814.6,344.4"/>
						<path class="st2" d="M1738.1,289.8c-0.1,3.7,2.9,6.7,6.5,6.7c3.7,0.1,6.7-2.9,6.7-6.5c0.1-3.7-2.9-6.7-6.5-6.7
							C1741.1,283.2,1738.1,286.1,1738.1,289.8z"/>
					</g>
					<g>
						<circle class="st2" cx="1847.5" cy="400.5" r="31.6"/>
						<path class="st2" d="M1813.3,382.3c0,0,44.5-42.2,67.5-53.6c0,0-19.2,34.9-5.7,50.2L1813.3,382.3"/>
						<path class="st2" d="M1812.5,381.5l0.1,7.6c0,2.3,1.9,4.1,4.2,4.1l61.6-1c2.3,0,4.1-1.9,4.1-4.2l-0.1-7.6
							c0-2.3-1.9-4.1-4.2-4.1l-61.6,1C1814.3,377.3,1812.5,379.2,1812.5,381.5"/>
						<path class="st2" d="M1889.1,326.8c0.1,3.7-2.9,6.7-6.5,6.7c-3.7,0.1-6.7-2.9-6.7-6.5c-0.1-3.7,2.9-6.7,6.5-6.7
							C1886,320.2,1889.1,323.1,1889.1,326.8z"/>
					</g>
					<g>
						<circle class="st2" cx="1505.1" cy="376.3" r="31.6"/>
						<path class="st2" d="M1470.9,358.1c0,0,44.5-42.2,67.5-53.6c0,0-19.2,34.9-5.7,50.2L1470.9,358.1"/>
						<path class="st2" d="M1470.1,357.3l0.1,7.6c0,2.3,1.9,4.1,4.2,4.1l61.6-1c2.3,0,4.1-1.9,4.1-4.2l-0.1-7.6
							c0-2.3-1.9-4.1-4.2-4.1l-61.6,1C1471.9,353.1,1470.1,355,1470.1,357.3"/>
						<path class="st2" d="M1546.7,302.6c0.1,3.7-2.9,6.7-6.5,6.7c-3.7,0.1-6.7-2.9-6.7-6.5c-0.1-3.7,2.9-6.7,6.5-6.7
							C1543.6,296,1546.6,298.9,1546.7,302.6z"/>
					</g>
					<g>
						<circle class="st2" cx="1457.8" cy="357.3" r="31.6"/>
						<path class="st2" d="M1492,339.1c0,0-44.5-42.2-67.5-53.6c0,0,19.2,34.9,5.7,50.2L1492,339.1"/>
						<path class="st2" d="M1492.8,338.3l-0.1,7.6c0,2.3-1.9,4.1-4.2,4.1l-61.6-1c-2.3,0-4.1-1.9-4.1-4.2l0.1-7.6
							c0-2.3,1.9-4.1,4.2-4.1l61.6,1C1491,334.1,1492.8,336,1492.8,338.3"/>
						<path class="st2" d="M1416.2,283.6c-0.1,3.7,2.9,6.7,6.5,6.7c3.7,0.1,6.7-2.9,6.7-6.5c0.1-3.7-2.9-6.7-6.5-6.7
							C1419.3,277,1416.2,280,1416.2,283.6z"/>
					</g>
					<g>
						<circle class="st2" cx="1370.4" cy="368.2" r="31.6"/>
						<path class="st2" d="M1404.6,350c0,0-44.5-42.2-67.5-53.6c0,0,19.2,34.9,5.7,50.2L1404.6,350"/>
						<path class="st2" d="M1405.4,349.2l-0.1,7.6c0,2.3-1.9,4.1-4.2,4.1l-61.6-1c-2.3,0-4.1-1.9-4.1-4.2l0.1-7.6
							c0-2.3,1.9-4.1,4.2-4.1l61.6,1C1403.6,345,1405.4,346.9,1405.4,349.2"/>
						<path class="st2" d="M1328.8,294.5c-0.1,3.7,2.9,6.7,6.5,6.7c3.7,0.1,6.7-2.9,6.7-6.5c0.1-3.7-2.9-6.7-6.5-6.7
							C1331.9,287.9,1328.9,290.8,1328.8,294.5z"/>
					</g>
					<g>
						<circle class="st2" cx="1279.1" cy="358.2" r="31.6"/>
						<path class="st2" d="M1313.3,340c0,0-44.5-42.2-67.5-53.6c0,0,19.2,34.9,5.7,50.2L1313.3,340"/>
						<path class="st2" d="M1314.1,339.2l-0.1,7.6c0,2.3-1.9,4.1-4.2,4.1l-61.6-1c-2.3,0-4.1-1.9-4.1-4.2l0.1-7.6
							c0-2.3,1.9-4.1,4.2-4.1l61.6,1C1312.3,335,1314.1,336.9,1314.1,339.2"/>
						<path class="st2" d="M1237.5,284.5c-0.1,3.7,2.9,6.7,6.5,6.7c3.7,0.1,6.7-2.9,6.7-6.5c0.1-3.7-2.9-6.7-6.5-6.7
							C1240.6,277.9,1237.6,280.9,1237.5,284.5z"/>
					</g>
					<g>
						<circle class="st2" cx="1332.2" cy="385.1" r="31.6"/>
						<path class="st2" d="M1298,366.9c0,0,44.5-42.2,67.5-53.6c0,0-19.2,34.9-5.7,50.2L1298,366.9"/>
						<path class="st2" d="M1297.2,366.1l0.1,7.6c0,2.3,1.9,4.1,4.2,4.1l61.6-1c2.3,0,4.1-1.9,4.1-4.2l-0.1-7.6
							c0-2.3-1.9-4.1-4.2-4.1l-61.6,1C1299,361.9,1297.2,363.8,1297.2,366.1"/>
						<path class="st2" d="M1373.8,311.4c0.1,3.7-2.9,6.7-6.5,6.7c-3.7,0.1-6.7-2.9-6.7-6.5c-0.1-3.7,2.9-6.7,6.5-6.7
							C1370.7,304.8,1373.7,307.8,1373.8,311.4z"/>
					</g>
					<g>
						<circle class="st2" cx="1282.9" cy="389.5" r="31.6"/>
					</g>
					<g>
						<circle class="st2" cx="1309.8" cy="366.9" r="31.6"/>
					</g>
					<g>
						<circle class="st2" cx="1540.6" cy="361" r="31.6"/>
					</g>
					<g>
						<circle class="st2" cx="1624.8" cy="366.9" r="31.6"/>
					</g>
					<g>
						<circle class="st2" cx="1244.1" cy="400.5" r="31.6"/>
					</g>
					<g>
						<circle class="st2" cx="1193.5" cy="416.7" r="31.6"/>
					</g>
					<g>
						<circle class="st2" cx="1744.1" cy="377.7" r="31.6"/>
					</g>
					<g>
						<circle class="st2" cx="1770.7" cy="415.7" r="31.6"/>
					</g>
					<g>
						<circle class="st2" cx="1769.5" cy="414.2" r="31.6"/>
					</g>
					<g>
						<circle class="st2" cx="1812.5" cy="385.1" r="31.6"/>
					</g>
					<g>
						<circle class="st2" cx="1893.9" cy="414.2" r="31.6"/>
					</g>
					<polygon class="st2" points="1169.4,790.3 1169.4,423.7 1314.1,376.3 1367.1,372.6 1549.8,358.2 1637.9,366.2 1847.5,400.5 
						1920,430.2 1920,790.3 					"/>
				</g>
			</g>
		</g>
		<g>
			<g>
				<defs>
					<rect id="SVGID_5_" x="320" y="171.4" width="424.7" height="558.6"/>
				</defs>
				<clipPath id="SVGID_6_">
					<use xlink:href="#SVGID_5_"  style="overflow:visible;"/>
				</clipPath>
				<g class="st4">
					<g>
						<circle class="st2" cx="654.1" cy="357.9" r="31.6"/>
						<path class="st2" d="M619.8,339.7c0,0,44.5-42.2,67.5-53.6c0,0-19.2,34.9-5.7,50.2L619.8,339.7"/>
						<path class="st2" d="M619.1,338.9l0.1,7.6c0,2.3,1.9,4.1,4.2,4.1l61.6-1c2.3,0,4.1-1.9,4.1-4.2l-0.1-7.6
							c0-2.3-1.9-4.1-4.2-4.1l-61.6,1C620.9,334.8,619,336.6,619.1,338.9"/>
						<path class="st2" d="M695.7,284.3c0.1,3.7-2.9,6.7-6.5,6.7c-3.7,0.1-6.7-2.9-6.7-6.5c-0.1-3.7,2.9-6.7,6.5-6.7
							C692.6,277.7,695.6,280.6,695.7,284.3z"/>
					</g>
					<g>
						<circle class="st2" cx="460.3" cy="363.4" r="31.6"/>
						<path class="st2" d="M426.1,345.2c0,0,44.5-42.2,67.5-53.6c0,0-19.2,34.9-5.7,50.2L426.1,345.2"/>
						<path class="st2" d="M425.4,344.4l0.1,7.6c0,2.3,1.9,4.1,4.2,4.1l61.6-1c2.3,0,4.1-1.9,4.1-4.2l-0.1-7.6
							c0-2.3-1.9-4.1-4.2-4.1l-61.6,1C427.2,340.3,425.3,342.1,425.4,344.4"/>
						<path class="st2" d="M501.9,289.8c0.1,3.7-2.9,6.7-6.5,6.7c-3.7,0.1-6.7-2.9-6.7-6.5c-0.1-3.7,2.9-6.7,6.5-6.7
							C498.9,283.2,501.9,286.1,501.9,289.8z"/>
					</g>
					<g>
						<circle class="st2" cx="392.5" cy="400.5" r="31.6"/>
						<path class="st2" d="M426.7,382.3c0,0-44.5-42.2-67.5-53.6c0,0,19.2,34.9,5.7,50.2L426.7,382.3"/>
						<path class="st2" d="M427.5,381.5l-0.1,7.6c0,2.3-1.9,4.1-4.2,4.1l-61.6-1c-2.3,0-4.1-1.9-4.1-4.2l0.1-7.6
							c0-2.3,1.9-4.1,4.2-4.1l61.6,1C425.7,377.3,427.5,379.2,427.5,381.5"/>
						<path class="st2" d="M350.9,326.8c-0.1,3.7,2.9,6.7,6.5,6.7c3.7,0.1,6.7-2.9,6.7-6.5c0.1-3.7-2.9-6.7-6.5-6.7
							C354,320.2,350.9,323.1,350.9,326.8z"/>
					</g>
					<g>
						<circle class="st2" cx="734.9" cy="376.3" r="31.6"/>
						<path class="st2" d="M769.1,358.1c0,0-44.5-42.2-67.5-53.6c0,0,19.2,34.9,5.7,50.2L769.1,358.1"/>
						<path class="st2" d="M769.9,357.3l-0.1,7.6c0,2.3-1.9,4.1-4.2,4.1l-61.6-1c-2.3,0-4.1-1.9-4.1-4.2l0.1-7.6
							c0-2.3,1.9-4.1,4.2-4.1l61.6,1C768.1,353.1,769.9,355,769.9,357.3"/>
						<path class="st2" d="M693.3,302.6c-0.1,3.7,2.9,6.7,6.5,6.7c3.7,0.1,6.7-2.9,6.7-6.5c0.1-3.7-2.9-6.7-6.5-6.7
							C696.4,296,693.4,298.9,693.3,302.6z"/>
					</g>
					<g>
						<circle class="st2" cx="782.2" cy="357.3" r="31.6"/>
						<path class="st2" d="M748,339.1c0,0,44.5-42.2,67.5-53.6c0,0-19.2,34.9-5.7,50.2L748,339.1"/>
						<path class="st2" d="M747.2,338.3l0.1,7.6c0,2.3,1.9,4.1,4.2,4.1l61.6-1c2.3,0,4.1-1.9,4.1-4.2l-0.1-7.6
							c0-2.3-1.9-4.1-4.2-4.1l-61.6,1C749,334.1,747.2,336,747.2,338.3"/>
						<path class="st2" d="M823.8,283.6c0.1,3.7-2.9,6.7-6.5,6.7c-3.7,0.1-6.7-2.9-6.7-6.5c-0.1-3.7,2.9-6.7,6.5-6.7
							C820.7,277,823.8,280,823.8,283.6z"/>
					</g>
					<g>
						<circle class="st2" cx="869.6" cy="368.2" r="31.6"/>
						<path class="st2" d="M835.4,350c0,0,44.5-42.2,67.5-53.6c0,0-19.2,34.9-5.7,50.2L835.4,350"/>
						<path class="st2" d="M834.6,349.2l0.1,7.6c0,2.3,1.9,4.1,4.2,4.1l61.6-1c2.3,0,4.1-1.9,4.1-4.2l-0.1-7.6
							c0-2.3-1.9-4.1-4.2-4.1l-61.6,1C836.4,345,834.6,346.9,834.6,349.2"/>
						<path class="st2" d="M911.2,294.5c0.1,3.7-2.9,6.7-6.5,6.7c-3.7,0.1-6.7-2.9-6.7-6.5c-0.1-3.7,2.9-6.7,6.5-6.7
							C908.1,287.9,911.1,290.8,911.2,294.5z"/>
					</g>
					<g>
						<circle class="st2" cx="960.9" cy="358.2" r="31.6"/>
						<path class="st2" d="M926.7,340c0,0,44.5-42.2,67.5-53.6c0,0-19.2,34.9-5.7,50.2L926.7,340"/>
						<path class="st2" d="M925.9,339.2l0.1,7.6c0,2.3,1.9,4.1,4.2,4.1l61.6-1c2.3,0,4.1-1.9,4.1-4.2l-0.1-7.6
							c0-2.3-1.9-4.1-4.2-4.1l-61.6,1C927.7,335,925.9,336.9,925.9,339.2"/>
						<path class="st2" d="M1002.5,284.5c0.1,3.7-2.9,6.7-6.5,6.7c-3.7,0.1-6.7-2.9-6.7-6.5c-0.1-3.7,2.9-6.7,6.5-6.7
							C999.4,277.9,1002.4,280.9,1002.5,284.5z"/>
					</g>
					<g>
						<circle class="st2" cx="907.8" cy="385.1" r="31.6"/>
						<path class="st2" d="M942,366.9c0,0-44.5-42.2-67.5-53.6c0,0,19.2,34.9,5.7,50.2L942,366.9"/>
						<path class="st2" d="M942.8,366.1l-0.1,7.6c0,2.3-1.9,4.1-4.2,4.1l-61.6-1c-2.3,0-4.1-1.9-4.1-4.2l0.1-7.6
							c0-2.3,1.9-4.1,4.2-4.1l61.6,1C941,361.9,942.8,363.8,942.8,366.1"/>
						<path class="st2" d="M866.2,311.4c-0.1,3.7,2.9,6.7,6.5,6.7c3.7,0.1,6.7-2.9,6.7-6.5c0.1-3.7-2.9-6.7-6.5-6.7
							C869.3,304.8,866.3,307.8,866.2,311.4z"/>
					</g>
					<g>
						<circle class="st2" cx="957.1" cy="389.5" r="31.6"/>
					</g>
					<g>
						<circle class="st2" cx="930.2" cy="366.9" r="31.6"/>
					</g>
					<g>
						<circle class="st2" cx="699.4" cy="361" r="31.6"/>
					</g>
					<g>
						<circle class="st2" cx="615.2" cy="366.9" r="31.6"/>
					</g>
					<g>
						<circle class="st2" cx="995.9" cy="400.5" r="31.6"/>
					</g>
					<g>
						<circle class="st2" cx="1046.5" cy="416.7" r="31.6"/>
					</g>
					<g>
						<circle class="st2" cx="495.9" cy="377.7" r="31.6"/>
					</g>
					<g>
						<circle class="st2" cx="469.3" cy="415.7" r="31.6"/>
					</g>
					<g>
						<circle class="st2" cx="470.5" cy="414.2" r="31.6"/>
					</g>
					<g>
						<circle class="st2" cx="427.5" cy="385.1" r="31.6"/>
					</g>
					<g>
						<circle class="st2" cx="346.1" cy="414.2" r="31.6"/>
					</g>
					<polygon class="st2" points="1070.6,790.3 1070.6,423.7 925.9,376.3 872.9,372.6 690.2,358.2 602.1,366.2 392.5,400.5 
						320,430.2 320,790.3 					"/>
				</g>
			</g>
		</g>
		<g>
			<polygon class="st5" points="1048.1,402.4 904.4,402.4 868.8,440.4 1036.3,440.4 			"/>
			<polygon class="st6" points="1191.9,402.4 1048.1,402.4 1036.3,440.4 1203.7,440.4 			"/>
			<polygon class="st5" points="1335.6,402.4 1191.9,402.4 1203.7,440.4 1371.2,440.4 			"/>
		</g>
		<g>
			<polygon class="st6" points="1036.3,440.4 868.8,440.4 819,493.5 1019.7,493.5 			"/>
			<polygon class="st7" points="1203.7,440.4 1036.3,440.4 1019.7,493.5 1220.3,493.5 			"/>
			<polygon class="st6" points="1371.2,440.4 1203.7,440.4 1220.3,493.5 1421,493.5 			"/>
		</g>
		<g>
			<polygon class="st7" points="1019.7,493.5 819,493.5 744.7,572.7 994.9,572.7 			"/>
			<polygon class="st8" points="1220.3,493.5 1019.7,493.5 994.9,572.7 1245.1,572.7 			"/>
			<polygon class="st7" points="1421,493.5 1220.3,493.5 1245.1,572.7 1495.3,572.7 			"/>
		</g>
		<rect x="744.7" y="572.7" width="750.6" height="157.3"/>
		<g>
			<rect x="1110.5" y="-170" class="st0" width="19.1" height="183.3"/>
			<path class="st9" d="M1199.2,56.8c-3.7-10.4-9.4-19.9-16.6-28c-8.9-10-20.2-17.8-33-22.6c-4.8-1.8-9.9-3.2-15.1-4.1
				c-3.3-0.6-6.6-1-10-1.1c-1.5-0.1-3-0.1-4.5-0.1c-1.5,0-3,0-4.5,0.1c-3.4,0.2-6.8,0.6-10,1.1c-5.2,0.9-10.3,2.3-15.1,4.1
				c-12.8,4.8-24,12.6-33,22.6c-7.2,8.1-12.9,17.6-16.6,28c-3.1,8.8-4.8,18.2-4.8,28s1.7,19.2,4.8,28c3.7,10.4,9.4,19.9,16.6,28
				c8.9,10,20.2,17.8,33,22.6c4.8,1.8,9.9,3.2,15.1,4.1c3.3,0.6,6.6,1,10,1.1c1.5,0.1,3,0.1,4.5,0.1c1.5,0,3,0,4.5-0.1
				c3.4-0.2,6.8-0.6,10-1.1c5.2-0.9,10.3-2.3,15.1-4.1c12.8-4.8,24-12.6,33-22.6c7.2-8.1,12.9-17.6,16.6-28c3.1-8.8,4.8-18.2,4.8-28
				C1204,75,1202.3,65.6,1199.2,56.8z"/>
			<g>
				<path class="st9" d="M1072.3,141.5h-15.7c9,10.1,20.5,18,33.4,22.9C1083.2,158.6,1077.2,150.8,1072.3,141.5z"/>
				<path class="st10" d="M1167.7,141.5h15.7c7.3-8.2,13.1-17.8,16.8-28.4h-22.4C1175.5,123.6,1172.1,133.2,1167.7,141.5z"/>
				<path class="st9" d="M1177.8,56.5h22.4c-3.7-10.6-9.5-20.2-16.8-28.4h-15.7C1172.1,36.5,1175.5,46.1,1177.8,56.5z"/>
				<path class="st11" d="M1177.8,113.2h22.4c3.1-8.9,4.8-18.4,4.8-28.4h-24.3C1180.8,94.7,1179.7,104.3,1177.8,113.2z"/>
				<path class="st10" d="M1180.8,84.8h24.3c0-9.9-1.7-19.5-4.8-28.4h-22.4C1179.7,65.4,1180.8,74.9,1180.8,84.8z"/>
				<path class="st9" d="M1150,164.4c12.9-4.9,24.3-12.8,33.4-22.9h-15.7C1162.8,150.8,1156.8,158.6,1150,164.4z"/>
				<path class="st10" d="M1167.7,28.1h15.7c-9-10.1-20.5-18-33.4-22.9C1156.8,11.1,1162.8,18.9,1167.7,28.1z"/>
				<path class="st10" d="M1062.2,56.5h-22.4c-3.1,8.9-4.8,18.4-4.8,28.4h24.3C1059.2,74.9,1060.3,65.4,1062.2,56.5z"/>
				<path class="st9" d="M1072.3,28.1h-15.7c-7.3,8.2-13.1,17.8-16.8,28.4h22.4C1064.5,46.1,1067.9,36.5,1072.3,28.1z"/>
				<path class="st10" d="M1072.3,141.5c-4.4-8.4-7.8-18-10.1-28.4h-22.4c3.7,10.6,9.5,20.2,16.8,28.4H1072.3z"/>
				<path class="st9" d="M1059.2,84.8h-24.3c0,9.9,1.7,19.5,4.8,28.4h22.4C1060.3,104.3,1059.2,94.7,1059.2,84.8z"/>
				<path class="st10" d="M1090,5.2c-12.9,4.9-24.3,12.8-33.4,22.9h15.7C1077.2,18.9,1083.2,11.1,1090,5.2z"/>
				<path class="st11" d="M1085.3,56.5h-23.1c-1.9,8.9-3,18.5-3,28.4h24.3C1083.5,74.9,1084.2,65.4,1085.3,56.5z"/>
				<path class="st9" d="M1085.3,113.2h-23.1c2.2,10.4,5.7,20,10.1,28.4h19.1C1088.7,133.2,1086.7,123.6,1085.3,113.2z"/>
				<path class="st10" d="M1083.5,84.8h-24.3c0,9.9,1,19.4,3,28.4h23.1C1084.2,104.3,1083.5,94.7,1083.5,84.8z"/>
				<path class="st10" d="M1091.4,28.1h-19.1c-4.4,8.4-7.8,18-10.1,28.4h23.1C1086.7,46.1,1088.7,36.5,1091.4,28.1z"/>
				<path class="st10" d="M1154.7,113.2h23.1c1.9-8.9,3-18.5,3-28.4h-24.3C1156.5,94.7,1155.8,104.3,1154.7,113.2z"/>
				<path class="st9" d="M1148.6,141.5h19.1c4.4-8.4,7.8-18,10.1-28.4h-23.1C1153.3,123.6,1151.3,133.2,1148.6,141.5z"/>
				<path class="st10" d="M1177.8,56.5c-2.2-10.4-5.7-20-10.1-28.4h-19.1c2.6,8.4,4.7,18,6.1,28.4H1177.8z"/>
				<path class="st11" d="M1156.5,84.8h24.3c0-9.9-1-19.4-3-28.4h-23.1C1155.8,65.4,1156.5,74.9,1156.5,84.8z"/>
				<path class="st9" d="M1072.3,28.1h19.1c3.7-11.7,8.4-21,13.9-27.1c-5.3,0.9-10.4,2.3-15.3,4.2
					C1083.2,11.1,1077.2,18.9,1072.3,28.1z"/>
				<path class="st9" d="M1148.6,28.1h19.1c-4.8-9.2-10.9-17-17.7-22.9c-4.9-1.9-10-3.3-15.3-4.2
					C1140.2,7.1,1144.9,16.5,1148.6,28.1z"/>
				<path class="st11" d="M1091.4,141.5h-19.1c4.8,9.2,10.9,17,17.7,22.9c4.9,1.9,10,3.3,15.3,4.2
					C1099.8,162.6,1095.1,153.2,1091.4,141.5z"/>
				<path class="st10" d="M1167.7,141.5h-19.1c-3.7,11.7-8.4,21-13.9,27.1c5.3-0.9,10.4-2.3,15.3-4.2
					C1156.8,158.6,1162.8,150.8,1167.7,141.5z"/>
				<path class="st10" d="M1108.4,113.2h-23.1c1.3,10.4,3.4,20,6,28.4h19.1C1109.6,133.2,1108.9,123.6,1108.4,113.2z"/>
				<path class="st9" d="M1091.4,141.5c3.7,11.7,8.4,21,13.9,27.1c3.3,0.6,6.7,1,10.2,1.1c-2-6-3.7-15.8-5-28.2L1091.4,141.5
					L1091.4,141.5z"/>
				<path class="st10" d="M1156.5,84.8c0-9.9-0.6-19.4-1.8-28.4h-23.1c0.4,8.9,0.6,18.5,0.6,28.4H1156.5z"/>
				<path class="st9" d="M1124.5,169.8c3.4-0.2,6.8-0.6,10.2-1.1c5.5-6.1,10.3-15.4,13.9-27.1h-19.1
					C1128.2,154,1126.5,163.8,1124.5,169.8z"/>
				<path class="st9" d="M1131.6,113.2h23.1c1.2-8.9,1.8-18.5,1.8-28.4h-24.3C1132.2,94.7,1131.9,104.3,1131.6,113.2z"/>
				<path class="st10" d="M1108.4,56.5h-23.1c-1.2,8.9-1.8,18.5-1.8,28.4h24.3C1107.8,74.9,1108.1,65.4,1108.4,56.5z"/>
				<path class="st11" d="M1107.8,84.8h-24.3c0,9.9,0.6,19.4,1.8,28.4h23.1C1108.1,104.3,1107.8,94.7,1107.8,84.8z"/>
				<path class="st10" d="M1115.5-0.1c-3.4,0.2-6.8,0.6-10.2,1.1c-5.5,6.1-10.3,15.4-13.9,27.1h19.1
					C1111.8,15.7,1113.5,5.9,1115.5-0.1z"/>
				<path class="st11" d="M1148.6,28.1c-3.7-11.7-8.4-21-13.9-27.1c-3.3-0.6-6.7-1-10.2-1.1c2,6,3.7,15.8,5,28.2H1148.6z"/>
				<path class="st9" d="M1108.4,56.5c0.4-10.4,1.1-20,2-28.4h-19.1c-2.6,8.4-4.7,18-6.1,28.4H1108.4z"/>
				<path class="st11" d="M1131.6,113.2c-0.4,10.4-1.1,20-2,28.4h19.1c2.6-8.4,4.7-18,6.1-28.4H1131.6z"/>
				<path class="st9" d="M1131.6,56.5h23.1c-1.3-10.4-3.4-20-6-28.4h-19.1C1130.4,36.5,1131.1,46.1,1131.6,56.5z"/>
				<path class="st10" d="M1107.8,84.8c0,9.9,0.2,19.4,0.6,28.4h23.1c0.4-8.9,0.6-18.5,0.6-28.4H1107.8z"/>
				<path class="st9" d="M1110.5,141.5h19.1c0.9-8.4,1.6-18,2-28.4h-23.1C1108.9,123.6,1109.6,133.2,1110.5,141.5z"/>
				<path class="st11" d="M1129.5,28.1h-19.1c-0.9,8.4-1.6,18-2,28.4h23.1C1131.1,46.1,1130.4,36.5,1129.5,28.1z"/>
				<path class="st11" d="M1110.5,141.5c1.3,12.4,3,22.2,5,28.2c1.5,0.1,3,0.1,4.5,0.1c1.5,0,3,0,4.5-0.1c2-6,3.7-15.8,5-28.2
					H1110.5z"/>
				<path class="st9" d="M1132.2,84.8c0-9.9-0.2-19.4-0.6-28.4h-23.1c-0.4,8.9-0.6,18.5-0.6,28.4H1132.2z"/>
				<path class="st9" d="M1129.5,28.1c-1.3-12.4-3-22.2-5-28.2c-1.5-0.1-3-0.1-4.5-0.1c-1.5,0-3,0-4.5,0.1c-2,6-3.7,15.8-5,28.2
					H1129.5z"/>
			</g>
		</g>
		<g>
			<g>
				<defs>
					<rect id="SVGID_7_" x="744.7" y="546.3" width="750.6" height="183.7"/>
				</defs>
				<clipPath id="SVGID_8_">
					<use xlink:href="#SVGID_7_"  style="overflow:visible;"/>
				</clipPath>
				<g class="st12">
					<g>
						<circle class="st2" cx="822" cy="699.6" r="48.6"/>
						<path class="st2" d="M874.7,671.6c0,0-68.5-65-104-82.6c0,0,29.6,53.8,8.8,77.3L874.7,671.6"/>
						<path class="st2" d="M875.9,670.3l-0.2,11.6c-0.1,3.5-2.9,6.3-6.5,6.3l-94.8-1.5c-3.5-0.1-6.3-2.9-6.3-6.5l0.2-11.6
							c0.1-3.5,2.9-6.3,6.5-6.3l94.8,1.5C873.2,663.9,876,666.8,875.9,670.3"/>
						<path class="st2" d="M758,586.1c-0.1,5.6,4.4,10.3,10.1,10.4c5.7,0.1,10.3-4.4,10.4-10.1c0.1-5.6-4.4-10.3-10.1-10.4
							C762.7,576,758,580.5,758,586.1z"/>
					</g>
					<g>
						<circle class="st2" cx="1033.1" cy="689.4" r="48.6"/>
						<path class="st2" d="M1085.7,661.4c0,0-68.5-65-104-82.6c0,0,29.6,53.8,8.8,77.3L1085.7,661.4"/>
						<path class="st2" d="M1086.9,660.2l-0.2,11.6c-0.1,3.5-2.9,6.3-6.5,6.3l-94.8-1.5c-3.5-0.1-6.3-2.9-6.3-6.5l0.2-11.6
							c0.1-3.5,2.9-6.3,6.5-6.3l94.8,1.5C1084.2,653.8,1087,656.6,1086.9,660.2"/>
						<path class="st2" d="M969,576c-0.1,5.6,4.4,10.3,10.1,10.4c5.7,0.1,10.3-4.4,10.4-10.1c0.1-5.6-4.4-10.3-10.1-10.4
							C973.7,565.8,969.1,570.3,969,576z"/>
					</g>
					<g>
						<circle class="st2" cx="1147.1" cy="709.6" r="48.6"/>
						<path class="st2" d="M1199.8,681.5c0,0-68.5-65-104-82.6c0,0,29.6,53.8,8.8,77.3L1199.8,681.5"/>
						<path class="st2" d="M1200.9,680.3l-0.2,11.6c-0.1,3.5-2.9,6.3-6.5,6.3l-94.8-1.5c-3.5-0.1-6.3-2.9-6.3-6.5l0.2-11.6
							c0.1-3.5,2.9-6.3,6.5-6.3l94.8,1.5C1198.2,673.9,1201,676.8,1200.9,680.3"/>
						<path class="st2" d="M1083,596.1c-0.1,5.6,4.4,10.3,10.1,10.4c5.7,0.1,10.3-4.4,10.4-10.1c0.1-5.6-4.4-10.3-10.1-10.4
							C1087.7,586,1083.1,590.5,1083,596.1z"/>
					</g>
					<g>
						<circle class="st2" cx="1396.3" cy="682.3" r="48.6"/>
						<path class="st2" d="M1449,654.3c0,0-68.5-65-104-82.6c0,0,29.6,53.8,8.8,77.3L1449,654.3"/>
						<path class="st2" d="M1450.2,653l-0.2,11.6c-0.1,3.5-2.9,6.3-6.5,6.3l-94.8-1.5c-3.5-0.1-6.3-2.9-6.3-6.5l0.2-11.6
							c0.1-3.5,2.9-6.3,6.5-6.3l94.8,1.5C1447.5,646.6,1450.3,649.5,1450.2,653"/>
						<path class="st2" d="M1332.3,568.8c-0.1,5.6,4.4,10.3,10.1,10.4c5.7,0.1,10.3-4.4,10.4-10.1c0.1-5.6-4.4-10.3-10.1-10.4
							C1337,558.7,1332.3,563.2,1332.3,568.8z"/>
					</g>
					<g>
						<circle class="st2" cx="1261.1" cy="675.9" r="48.6"/>
					</g>
					<g>
						<circle class="st2" cx="1332.3" cy="709.6" r="48.6"/>
					</g>
					<g>
						<circle class="st2" cx="1451.1" cy="715.8" r="48.6"/>
					</g>
					<g>
						<circle class="st2" cx="1218.5" cy="715.8" r="48.6"/>
					</g>
					<g>
						<circle class="st2" cx="1087.5" cy="672.4" r="48.6"/>
					</g>
					<g>
						<circle class="st2" cx="1079.8" cy="730" r="48.6"/>
					</g>
					<g>
						<circle class="st2" cx="966.8" cy="730" r="48.6"/>
					</g>
					<g>
						<circle class="st2" cx="1278.1" cy="720.6" r="48.6"/>
					</g>
					<g>
						<circle class="st2" cx="1370.5" cy="723.4" r="48.6"/>
					</g>
					<g>
						<circle class="st2" cx="1478.6" cy="664.9" r="48.6"/>
					</g>
					<g>
						<circle class="st2" cx="962.6" cy="688.2" r="48.6"/>
					</g>
					<g>
						<circle class="st2" cx="770.7" cy="698.2" r="48.6"/>
					</g>
					<g>
						<circle class="st2" cx="876.8" cy="680.8" r="48.6"/>
					</g>
					<g>
						<circle class="st2" cx="1200.9" cy="675.3" r="48.6"/>
					</g>
					<g>
						<circle class="st2" cx="1326.8" cy="667.2" r="48.6"/>
					</g>
					<g>
						<circle class="st2" cx="884.6" cy="731.4" r="48.6"/>
						<path class="st2" d="M831.9,703.3c0,0,68.5-65,104-82.6c0,0-29.6,53.8-8.8,77.3L831.9,703.3"/>
						<path class="st2" d="M830.8,702.1l0.2,11.6c0.1,3.5,2.9,6.3,6.5,6.3l94.8-1.5c3.5-0.1,6.3-2.9,6.3-6.5l-0.2-11.6
							c-0.1-3.5-2.9-6.3-6.5-6.3l-94.8,1.5C833.5,695.7,830.7,698.6,830.8,702.1"/>
						<path class="st2" d="M948.7,617.9c0.1,5.6-4.4,10.3-10.1,10.4c-5.7,0.1-10.3-4.4-10.4-10.1c-0.1-5.6,4.4-10.3,10.1-10.4
							C944,607.7,948.6,612.2,948.7,617.9z"/>
					</g>
				</g>
			</g>
		</g>
	</g>
</g>
<g id="st_x5F_" class="st13">
</g>
</svg>
