<svg xmlns="http://www.w3.org/2000/svg" width="81" height="98" viewBox="0 0 81 98"><path fill="#F7981D" d="M16.1 82.3C17.7 52.9 27 49.5 27 25.7c0-12.3-4.8-22.3-10.8-22.3-6 0-10.9 10-10.9 22.3 0 24.6 8.7 26.8 10.8 56.6z"/><path fill="#FFF100" d="M48.1 77.1c1.1-20.9 7.7-23.3 7.7-40.3 0-8.8-3.4-15.9-7.7-15.9-4.3 0-7.7 7.1-7.7 15.9 0 17.5 6.2 19.1 7.7 40.3zM46.4 0l1 4.9 5 1.1-5 1.1-1 4.9-1.1-5-4.9-1 4.9-1.1z"/><path fill="#F7981D" d="M65.8-.1l1.1 5 5 1.1-5 1.1-1.1 4.9-1.1-4.9L59.8 6l4.9-1.1z"/></svg>