<svg width="120" height="120" viewBox="0 0 120 120" xmlns="http://www.w3.org/2000/svg"><title>Artboard</title><g fill="none" fill-rule="evenodd"><path fill="#404040" d="M38.64 29.862l-12.198-.214.2-11.497 12.2.214z"/><path fill="#FFF" d="M50.822 30.088l-12.198-.214.2-11.497 12.2.213z"/><path fill="#404040" d="M63.004 30.314L50.807 30.1l.2-11.497 12.198.213z"/><path fill="#FFF" d="M75.358 22.75l-12.198-.213.2-11.498 12.2.213z"/><path fill="#404040" d="M87.54 22.976l-12.197-.213.2-11.498 12.198.213z"/><path fill="#FFF" d="M99.723 23.202l-12.197-.213.2-11.5 12.198.215zM38.436 41.425l-12.196-.213.2-11.497 12.197.213z"/><path fill="#404040" d="M50.62 41.55l-12.198-.212.2-11.498 12.2.214z"/><path fill="#FFF" d="M62.802 41.777l-12.197-.213.2-11.497 12.198.213z"/><path fill="#404040" d="M75.154 34.314L62.957 34.1l.2-11.497 12.198.213z"/><path fill="#FFF" d="M87.338 34.44l-12.197-.213.202-11.498 12.197.212z"/><path fill="#404040" d="M99.52 34.666l-12.196-.213.2-11.498 12.198.213zM38.234 52.888l-12.197-.214.2-11.497 12.198.213z"/><path fill="#FFF" d="M50.416 53.114L38.22 52.9l.2-11.497 12.197.213z"/><path fill="#404040" d="M62.6 53.34l-12.2-.214.202-11.497 12.198.212z"/><path fill="#FFF" d="M74.952 45.776l-12.197-.213.2-11.498 12.198.213z"/><path fill="#404040" d="M87.135 46.002l-12.198-.213.2-11.5 12.2.214z"/><path fill="#FFF" d="M99.318 46.228l-12.198-.213.2-11.498 12.198.213zM38.03 64.45l-12.197-.214.2-11.497 12.2.212z"/><path fill="#404040" d="M50.213 64.676l-12.198-.214.2-11.497 12.2.213z"/><path fill="#FFF" d="M62.395 64.902l-12.198-.213.2-11.5 12.2.214z"/><path fill="#404040" d="M74.75 57.338l-12.2-.213.202-11.498 12.198.213z"/><path fill="#FFF" d="M86.93 57.564l-12.197-.213.2-11.497 12.2.214z"/><path fill="#404040" d="M99.114 57.79l-12.198-.213.2-11.498 12.2.213zM37.827 76.013L25.63 75.8l.2-11.498 12.198.214z"/><path fill="#FFF" d="M50.01 76.24l-12.2-.214.202-11.497 12.198.212z"/><path fill="#404040" d="M62.293 76.367l-12.198-.213.2-11.498 12.2.214z"/><path fill="#FFF" d="M74.545 68.902l-12.198-.213.2-11.5 12.2.214z"/><path fill="#404040" d="M86.727 69.128l-12.197-.213.2-11.498 12.198.213z"/><path fill="#FFF" d="M98.912 69.254l-12.198-.213.2-11.497 12.2.213z"/><path d="M23.2 13.8l-1.7 95.5" stroke="#FFF" stroke-width="3"/></g></svg>