<svg xmlns="http://www.w3.org/2000/svg" viewBox="0 0 113.07 320.89"><defs><style>.cls-1{fill:#37414d;}.cls-2{fill:#ecf3f8;}.cls-3{opacity:0.04;}.cls-4{fill:#f2faff;}.cls-5{fill:#ccc;stroke-width:2px;}.cls-11,.cls-5{stroke:#ccc;}.cls-10,.cls-11,.cls-12,.cls-5,.cls-6,.cls-7,.cls-8,.cls-9{stroke-miterlimit:10;}.cls-10,.cls-11,.cls-12,.cls-6,.cls-7,.cls-8,.cls-9{fill:none;stroke-linecap:round;stroke-width:3.85px;}.cls-6{stroke:#e6e6e6;}.cls-7{stroke:#f6f6f6;}.cls-8{stroke:#fff;}.cls-9{stroke:#ddd;}.cls-10{stroke:#eee;}.cls-12{stroke:#d5d5d5;}</style></defs><title>silly_pen_tinsel</title><g id="Layer_2" data-name="Layer 2"><g id="ART"><rect class="cls-1" x="55.75" y="307.7" width="6.12" height="13.19" rx="2.93" ry="2.93"/><path class="cls-2" d="M58.81,314.3A11.34,11.34,0,0,0,70.14,303H47.48A11.33,11.33,0,0,0,58.81,314.3Z"/><path class="cls-3" d="M69.65,306.23a11,11,0,0,0,.49-3.26H47.48a11.32,11.32,0,0,0,.48,3.26Z"/><path class="cls-4" d="M70.55,91.33a6,6,0,0,0-5.85-4.7H52.91a6,6,0,0,0-5.85,4.7c-4.89,22.25-23.94,119.62-4,207.13a6,6,0,0,0,5.85,4.69H68.7a6,6,0,0,0,5.86-4.69C94.49,211,75.44,113.58,70.55,91.33Z"/><path class="cls-5" d="M34.39,226.88a389.94,389.94,0,0,0,6.52,61.31H76.7a390,390,0,0,0,6.53-61.31Z"/><path class="cls-3" d="M58.85,126.39a66.36,66.36,0,0,0,18.38-2.6C74.94,109,72.66,97.84,71.37,92a6,6,0,0,0-3.19-4,6,6,0,0,0-3.69-1.27H52.71a6,6,0,0,0-5.85,4.7c-1,4.54-2.59,12.21-4.31,22.29l.19.06C36,153,27.2,228.84,43.06,298.46a6,6,0,0,0,5.85,4.69h7.5S49.66,259,49.66,194.89c0-27.13,1.21-50.67,2.61-68.83A65,65,0,0,0,58.85,126.39Z"/><path class="cls-6" d="M32.18,68.85A222.93,222.93,0,0,1,98.72,29"/><path class="cls-7" d="M24.05,29.8,99.63,79.86"/><path class="cls-8" d="M33.85,9.82,85.94,99.3"/><path class="cls-9" d="M29.73,98l54-90.5"/><path class="cls-10" d="M16.55,48.92a612.92,612.92,0,0,0,83.91,7.8"/><path class="cls-11" d="M55.93,12.56,73.8,109"/><path class="cls-12" d="M51.3,102.68,68,13"/><path class="cls-6" d="M32.18,68.85A222.93,222.93,0,0,1,98.72,29"/><path class="cls-7" d="M24.05,29.8,99.63,79.86"/><path class="cls-8" d="M33.85,9.82,85.94,99.3"/><path class="cls-9" d="M29.73,98l54-90.5"/><path class="cls-10" d="M16.55,48.92a612.92,612.92,0,0,0,83.91,7.8"/><path class="cls-11" d="M55.93,12.56,73.8,109"/><path class="cls-12" d="M51.3,102.68,68,13"/><path class="cls-6" d="M37.39,77.21A222.94,222.94,0,0,1,86.29,17"/><path class="cls-7" d="M16.4,43.3l88.14,21.19"/><path class="cls-8" d="M18.78,21.17,98.32,87.45"/><path class="cls-9" d="M45.06,105.45,64.88,1.93"/><path class="cls-10" d="M15.89,63.83A611,611,0,0,0,97.4,42.46"/><path class="cls-11" d="M40.46,16.19l49.78,84.52"/><path class="cls-12" d="M66.93,102.47l-15-90"/><path class="cls-6" d="M45.15,83.29A222.8,222.8,0,0,1,70.51,10"/><path class="cls-7" d="M13.83,58.6,103.9,48.37"/><path class="cls-8" d="M8.49,37,105.9,72.07"/><path class="cls-9" d="M62,107.2,45.23,3.14"/><path class="cls-10" d="M20.37,78.07a612.88,612.88,0,0,0,69.29-48"/><path class="cls-11" d="M27.16,24.9l75.68,62.4"/><path class="cls-12" d="M81.55,96.92,36.71,17.5"/><path class="cls-6" d="M54.52,86.34A222.45,222.45,0,0,1,53.28,8.8"/><path class="cls-7" d="M16.64,73.86,97.78,33.44"/><path class="cls-8" d="M4.24,55.39,107.77,55"/><path class="cls-9" d="M78.54,103.05,27.18,11"/><path class="cls-10" d="M29.45,89.92a613.11,613.11,0,0,0,48.7-68.77"/><path class="cls-11" d="M17.64,37.64,110.1,70.38"/><path class="cls-12" d="M93.38,86.71l-69.3-59.3"/><path class="cls-6" d="M64.37,86A222.77,222.77,0,0,1,36.68,13.57"/><path class="cls-7" d="M24.5,87.24,86.92,21.51"/><path class="cls-8" d="M6.53,74.12l97.16-35.75"/><path class="cls-9" d="M92.65,93.5,12.91,24.57"/><path class="cls-10" d="M42,98A612.88,612.88,0,0,0,64.28,16.67"/><path class="cls-11" d="M13.06,52.85,111.14,52"/><path class="cls-12" d="M101,73.06,15.61,41"/><path class="cls-6" d="M73.51,82.34a222.84,222.84,0,0,1-50.8-58.61"/><path class="cls-7" d="M36.47,97.12,72.64,14"/><path class="cls-8" d="M15.09,90.94,94.17,24.11"/><path class="cls-9" d="M102.65,79.69,4.14,42.2"/><path class="cls-10" d="M56.6,101.19a613.34,613.34,0,0,0-6.89-84"/><path class="cls-11" d="M14,68.72l91.88-34.34"/><path class="cls-12" d="M103.51,57.63l-91.2-.88"/><path class="cls-6" d="M80.84,75.75a222.68,222.68,0,0,1-67.78-37.7"/><path class="cls-7" d="M51.09,102.31l5.56-90.47"/><path class="cls-8" d="M28.89,103.82,80.34,14"/><path class="cls-9" d="M107.32,63.3,1.93,61.76"/><path class="cls-10" d="M71.4,99.25A613,613,0,0,0,36.2,22.69"/><path class="cls-11" d="M20.22,83.33l74.59-63.7"/><path class="cls-12" d="M100.58,42.27l-86,30.37"/><path class="cls-6" d="M85.48,67.06A222.68,222.68,0,0,1,8.89,54.81"/><path class="cls-7" d="M66.61,102.19,40.89,15.27"/><path class="cls-8" d="M46.26,111.2l17.62-102"/><path class="cls-9" d="M106.1,46.3,6.54,80.9"/><path class="cls-10" d="M84.64,92.37A611.55,611.55,0,0,0,25.38,32.46"/><path class="cls-11" d="M31.1,94.91,79.41,9.55"/><path class="cls-12" d="M92.58,28.85l-70.43,58"/></g></g></svg>