<svg xmlns="http://www.w3.org/2000/svg" xmlns:xlink="http://www.w3.org/1999/xlink" width="1100" height="270" viewBox="368.951 396.881 1100 270"><path fill="#fff" d="M473.532 664.06a48.607 48.607 0 0 0 18.038-6.66c13.342 7.793 29.36 11.214 45.822 8.63 28.08-4.406 49.562-25.04 56.38-50.823.168-.024.335-.046.502-.072 27.222-4.272 46.054-28.28 42.064-53.62-1.305-8.283-4.888-15.684-10.07-21.746 12.476-6.223 20.06-19.98 17.78-34.467-2.55-16.2-16.56-27.754-32.487-27.733a61.745 61.745 0 0 0-.746-8.87c-5.07-32.19-34.317-54.582-66.364-51.64-5.698-13.646-20.166-22.173-35.448-19.775-9.67 1.517-17.682 7.103-22.578 14.73-9.55-3.418-20.073-4.563-30.802-2.88-31.014 4.868-53.107 31.686-52.9 62.108-1.41.045-2.83.167-4.258.39-18.66 2.93-31.408 20.405-28.473 39.034 1.946 12.355 10.303 22.107 21.152 26.425-15.042 8.437-24.007 25.582-21.17 43.596 3.58 22.736 24.625 38.397 47.34 35.505.01 2.447.205 4.926.598 7.42 4.172 26.503 29.076 44.612 55.622 40.446z"/><defs><path id="a" d="M473.532 664.06a48.607 48.607 0 0 0 18.038-6.66c13.342 7.793 29.36 11.214 45.822 8.63 28.08-4.406 49.562-25.04 56.38-50.823.168-.024.335-.046.502-.072 27.222-4.272 46.054-28.28 42.064-53.62-1.305-8.283-4.888-15.684-10.07-21.746 12.476-6.223 20.06-19.98 17.78-34.467-2.55-16.2-16.56-27.754-32.487-27.733a61.745 61.745 0 0 0-.746-8.87c-5.07-32.19-34.317-54.582-66.364-51.64-5.698-13.646-20.166-22.173-35.448-19.775-9.67 1.517-17.682 7.103-22.578 14.73-9.55-3.418-20.073-4.563-30.802-2.88-31.014 4.868-53.107 31.686-52.9 62.108-1.41.045-2.83.167-4.258.39-18.66 2.93-31.408 20.405-28.473 39.034 1.946 12.355 10.303 22.107 21.152 26.425-15.042 8.437-24.007 25.582-21.17 43.596 3.58 22.736 24.625 38.397 47.34 35.505.01 2.447.205 4.926.598 7.42 4.172 26.503 29.076 44.612 55.622 40.446z"/></defs><clipPath id="b"><use xlink:href="#a" overflow="visible"/></clipPath><g clip-path="url(#b)"><path fill="#DCDDDE" stroke="#000" stroke-width="2.611" stroke-linecap="round" stroke-linejoin="round" stroke-miterlimit="10" d="M428.09 576.56c-2.322 0-4.204-17.967-4.204-40.13s1.882-40.13 4.203-40.13h151.317c2.32 0 4.203 17.965 4.203 40.13s-1.88 40.13-4.203 40.13H428.09z"/><path stroke="#000" stroke-width="2.308" stroke-linecap="round" stroke-linejoin="round" stroke-miterlimit="10" fill="none" d="M444.625 503.35h118.853v66.01H444.625z"/><path fill="#FFE300" d="M444.625 503.35h118.853v66.01H444.625z"/><path stroke="#000" stroke-width="2.308" stroke-linecap="round" stroke-linejoin="round" stroke-miterlimit="10" fill="none" d="M444.625 503.35h118.853v66.01H444.625z"/><ellipse stroke="#000" stroke-width="2.308" stroke-linecap="round" stroke-linejoin="round" stroke-miterlimit="10" cx="434.919" cy="535.118" rx="2.627" ry="9.966" fill="none"/><circle stroke="#000" stroke-width="2.308" stroke-linecap="round" stroke-linejoin="round" stroke-miterlimit="10" cx="573.627" cy="536.866" r="2.098" fill="none"/></g><defs><path id="c" d="M473.532 664.06a48.607 48.607 0 0 0 18.038-6.66c13.342 7.793 29.36 11.214 45.822 8.63 28.08-4.406 49.562-25.04 56.38-50.823.168-.024.335-.046.502-.072 27.222-4.272 46.054-28.28 42.064-53.62-1.305-8.283-4.888-15.684-10.07-21.746 12.476-6.223 20.06-19.98 17.78-34.467-2.55-16.2-16.56-27.754-32.487-27.733a61.745 61.745 0 0 0-.746-8.87c-5.07-32.19-34.317-54.582-66.364-51.64-5.698-13.646-20.166-22.173-35.448-19.775-9.67 1.517-17.682 7.103-22.578 14.73-9.55-3.418-20.073-4.563-30.802-2.88-31.014 4.868-53.107 31.686-52.9 62.108-1.41.045-2.83.167-4.258.39-18.66 2.93-31.408 20.405-28.473 39.034 1.946 12.355 10.303 22.107 21.152 26.425-15.042 8.437-24.007 25.582-21.17 43.596 3.58 22.736 24.625 38.397 47.34 35.505.01 2.447.205 4.926.598 7.42 4.172 26.503 29.076 44.612 55.622 40.446z"/></defs><clipPath id="d"><use xlink:href="#c" overflow="visible"/></clipPath><g clip-path="url(#d)"><path fill="#DCDDDE" stroke="#000" stroke-width="2.611" stroke-linecap="round" stroke-linejoin="round" stroke-miterlimit="10" d="M428.09 576.56c-2.322 0-4.204-17.967-4.204-40.13s1.882-40.13 4.203-40.13h151.317c2.32 0 4.203 17.965 4.203 40.13s-1.88 40.13-4.203 40.13H428.09z"/><path stroke="#000" stroke-width="2.308" stroke-linecap="round" stroke-linejoin="round" stroke-miterlimit="10" fill="none" d="M444.625 503.35h118.853v66.01H444.625z"/><path fill="#FFE300" d="M444.625 503.35h118.853v66.01H444.625z"/><path d="M517.115 545.76h-21.252l10.626 12.448z"/><path stroke="#000" stroke-width="6.242" stroke-linecap="round" stroke-linejoin="round" stroke-miterlimit="10" fill="none" d="M506.925 513.89v35.55"/><path stroke="#000" stroke-width="2.308" stroke-linecap="round" stroke-linejoin="round" stroke-miterlimit="10" fill="none" d="M444.625 503.35h118.853v66.01H444.625z"/><ellipse stroke="#000" stroke-width="2.308" stroke-linecap="round" stroke-linejoin="round" stroke-miterlimit="10" cx="434.919" cy="535.118" rx="2.627" ry="9.966" fill="none"/><circle stroke="#000" stroke-width="2.308" stroke-linecap="round" stroke-linejoin="round" stroke-miterlimit="10" cx="573.627" cy="536.866" r="2.098" fill="none"/><g fill="#fff"><path d="M590.147 462.64c-7.192 2.766-25.478 9.17-27.737 22.82l-25.552 6.374-31.54 9.552c-14.698 4.708-10.822 21.67 4.076 18.588l34.653-7.54 7.604-1.634c-12.61 6.352-7.215 26.154 13.6 20.715-9.53 4.328-10.354 25.844 17.063 18.27-14.842 6.804-7.814 21.464 11.178 17.92l47.052-12.554c6.447-1.375 13.94-6.537 16.118-8.426l10.817-10.168 38.637-10.48s-2.617-5.335-5.878-11.9l2.922.608c.225-.065-9.566-49.9-9.566-49.9s-39.26 9.508-57.92-1.185c-10.804-6.194-38.314-3.835-45.525-1.06z"/><path stroke="#000" stroke-width="2.308" stroke-linecap="round" stroke-linejoin="round" stroke-miterlimit="10" d="M562.388 485.573c2.174-13.73 20.547-20.16 27.76-22.933 7.21-2.774 34.72-5.133 45.527 1.06 18.66 10.69 57.92 1.184 57.92 1.184M568.6 530.466c-24.627 8.957-30.78-15.007-15.02-20.48l32.95-9.066"/><path stroke="#000" stroke-width="2.308" stroke-linecap="round" stroke-linejoin="round" stroke-miterlimit="10" d="M589.402 502.695l-45.354 9.74-34.653 7.54c-14.9 3.08-18.774-13.88-4.077-18.588l31.54-9.552 63.024-15.72M582.714 549.677c-29.264 8.306-26.884-16.133-15.913-18.69l27.037-6.59"/><path stroke="#000" stroke-width="2.308" stroke-linecap="round" stroke-linejoin="round" stroke-miterlimit="10" d="M601.952 543.81l-16.632 4.807c-18.674 6.088-11.994 22.85 8.174 19.09l47.05-12.556c6.448-1.375 13.942-6.537 16.12-8.426l10.816-10.168 38.637-10.48"/></g></g><path fill="#fff" d="M748.533 664.06a48.607 48.607 0 0 0 18.038-6.66c13.343 7.793 29.36 11.214 45.823 8.63 28.08-4.406 49.562-25.04 56.38-50.823.168-.024.335-.046.502-.072 27.222-4.272 46.054-28.28 42.064-53.62-1.306-8.283-4.89-15.684-10.07-21.746 12.475-6.223 20.06-19.98 17.778-34.467-2.55-16.2-16.56-27.754-32.486-27.733a61.89 61.89 0 0 0-.747-8.87c-5.07-32.19-34.317-54.582-66.364-51.64-5.697-13.646-20.165-22.173-35.447-19.775-9.67 1.517-17.682 7.103-22.578 14.73-9.55-3.418-20.073-4.563-30.802-2.88-31.014 4.868-53.107 31.686-52.9 62.108-1.41.045-2.83.167-4.258.39-18.66 2.928-31.408 20.405-28.474 39.034 1.946 12.355 10.303 22.107 21.152 26.425-15.042 8.437-24.007 25.582-21.17 43.596 3.58 22.736 24.625 38.397 47.34 35.505.01 2.447.205 4.926.598 7.42 4.17 26.503 29.076 44.612 55.623 40.446z"/><defs><path id="e" d="M748.533 664.06a48.607 48.607 0 0 0 18.038-6.66c13.343 7.793 29.36 11.214 45.823 8.63 28.08-4.406 49.562-25.04 56.38-50.823.168-.024.335-.046.502-.072 27.222-4.272 46.054-28.28 42.064-53.62-1.306-8.283-4.89-15.684-10.07-21.746 12.475-6.223 20.06-19.98 17.778-34.467-2.55-16.2-16.56-27.754-32.486-27.733a61.89 61.89 0 0 0-.747-8.87c-5.07-32.19-34.317-54.582-66.364-51.64-5.697-13.646-20.165-22.173-35.447-19.775-9.67 1.517-17.682 7.103-22.578 14.73-9.55-3.418-20.073-4.563-30.802-2.88-31.014 4.868-53.107 31.686-52.9 62.108-1.41.045-2.83.167-4.258.39-18.66 2.928-31.408 20.405-28.474 39.034 1.946 12.355 10.303 22.107 21.152 26.425-15.042 8.437-24.007 25.582-21.17 43.596 3.58 22.736 24.625 38.397 47.34 35.505.01 2.447.205 4.926.598 7.42 4.17 26.503 29.076 44.612 55.623 40.446z"/></defs><clipPath id="f"><use xlink:href="#e" overflow="visible"/></clipPath><g clip-path="url(#f)"><path fill="#DCDDDE" stroke="#000" stroke-width="2.611" stroke-linecap="round" stroke-linejoin="round" stroke-miterlimit="10" d="M703.09 576.56c-2.32 0-4.203-17.967-4.203-40.13s1.88-40.13 4.203-40.13h151.317c2.32 0 4.203 17.965 4.203 40.13s-1.882 40.13-4.203 40.13H703.09z"/><path stroke="#000" stroke-width="2.308" stroke-linecap="round" stroke-linejoin="round" stroke-miterlimit="10" fill="none" d="M719.624 503.35h118.853v66.01H719.624z"/><path fill="#FFE300" d="M719.624 503.35h118.853v66.01H719.624z"/><path stroke="#000" stroke-width="2.308" stroke-linecap="round" stroke-linejoin="round" stroke-miterlimit="10" fill="none" d="M719.624 503.35h118.853v66.01H719.624z"/><ellipse stroke="#000" stroke-width="2.308" stroke-linecap="round" stroke-linejoin="round" stroke-miterlimit="10" cx="709.92" cy="535.118" rx="2.627" ry="9.966" fill="none"/><circle stroke="#000" stroke-width="2.308" stroke-linecap="round" stroke-linejoin="round" stroke-miterlimit="10" cx="848.628" cy="536.866" r="2.098" fill="none"/></g><defs><path id="g" d="M748.533 664.06a48.607 48.607 0 0 0 18.038-6.66c13.343 7.793 29.36 11.214 45.823 8.63 28.08-4.406 49.562-25.04 56.38-50.823.168-.024.335-.046.502-.072 27.222-4.272 46.054-28.28 42.064-53.62-1.306-8.283-4.89-15.684-10.07-21.746 12.475-6.223 20.06-19.98 17.778-34.467-2.55-16.2-16.56-27.754-32.486-27.733a61.89 61.89 0 0 0-.747-8.87c-5.07-32.19-34.317-54.582-66.364-51.64-5.697-13.646-20.165-22.173-35.447-19.775-9.67 1.517-17.682 7.103-22.578 14.73-9.55-3.418-20.073-4.563-30.802-2.88-31.014 4.868-53.107 31.686-52.9 62.108-1.41.045-2.83.167-4.258.39-18.66 2.928-31.408 20.405-28.474 39.034 1.946 12.355 10.303 22.107 21.152 26.425-15.042 8.437-24.007 25.582-21.17 43.596 3.58 22.736 24.625 38.397 47.34 35.505.01 2.447.205 4.926.598 7.42 4.17 26.503 29.076 44.612 55.623 40.446z"/></defs><clipPath id="h"><use xlink:href="#g" overflow="visible"/></clipPath><g clip-path="url(#h)"><path fill="#DCDDDE" stroke="#000" stroke-width="2.611" stroke-linecap="round" stroke-linejoin="round" stroke-miterlimit="10" d="M703.09 576.56c-2.32 0-4.203-17.967-4.203-40.13s1.88-40.13 4.203-40.13h151.317c2.32 0 4.203 17.965 4.203 40.13s-1.882 40.13-4.203 40.13H703.09z"/><path stroke="#000" stroke-width="2.308" stroke-linecap="round" stroke-linejoin="round" stroke-miterlimit="10" fill="none" d="M719.624 503.35h118.853v66.01H719.624z"/><path fill="#FFE300" d="M719.624 503.35h118.853v66.01H719.624z"/><path stroke="#000" stroke-width="2.308" stroke-linecap="round" stroke-linejoin="round" stroke-miterlimit="10" fill="none" d="M719.624 503.35h118.853v66.01H719.624z"/><ellipse stroke="#000" stroke-width="2.308" stroke-linecap="round" stroke-linejoin="round" stroke-miterlimit="10" cx="709.92" cy="535.118" rx="2.627" ry="9.966" fill="none"/><g fill="#fff"><path d="M865.146 512.537c-7.19 2.767-25.478 9.17-27.735 22.82l-25.55 6.375-31.542 9.552c-14.697 4.708-10.82 21.67 4.077 18.588l34.653-7.54 7.604-1.634c-12.61 6.352-7.215 26.154 13.6 20.715-9.532 4.328-10.355 25.844 17.062 18.27-14.842 6.804-7.814 21.464 11.178 17.92l47.05-12.554c6.447-1.377 13.94-6.54 16.118-8.428l10.817-10.168 38.637-10.48s-2.617-5.335-5.878-11.9l2.922.608c.225-.065-9.566-49.9-9.566-49.9s-39.26 9.508-57.918-1.185c-10.806-6.193-38.316-3.834-45.528-1.06z"/><path stroke="#000" stroke-width="2.308" stroke-linecap="round" stroke-linejoin="round" stroke-miterlimit="10" d="M837.39 535.47c2.173-13.728 20.545-20.158 27.757-22.932 7.212-2.774 34.722-5.133 45.528 1.06 18.66 10.69 57.918 1.184 57.918 1.184M843.6 580.365c-24.627 8.957-30.78-15.007-15.02-20.482l32.95-9.065"/><path stroke="#000" stroke-width="2.308" stroke-linecap="round" stroke-linejoin="round" stroke-miterlimit="10" d="M864.403 552.593l-45.354 9.74-34.654 7.54c-14.9 3.08-18.774-13.88-4.077-18.588l31.54-9.552 63.023-15.72M857.714 599.575c-29.264 8.306-26.884-16.133-15.913-18.69l27.037-6.59"/><path stroke="#000" stroke-width="2.308" stroke-linecap="round" stroke-linejoin="round" stroke-miterlimit="10" d="M876.952 593.707l-16.63 4.808c-18.675 6.088-11.995 22.85 8.174 19.09l47.05-12.556c6.447-1.377 13.94-6.54 16.118-8.428l10.817-10.168 38.638-10.48"/></g></g><path fill="#fff" d="M1298.533 664.06a48.607 48.607 0 0 0 18.038-6.66c13.343 7.793 29.36 11.214 45.823 8.63 28.08-4.406 49.562-25.04 56.38-50.823.168-.024.335-.046.502-.072 27.222-4.272 46.054-28.28 42.064-53.62-1.306-8.283-4.89-15.684-10.07-21.746 12.475-6.223 20.06-19.98 17.778-34.467-2.55-16.2-16.56-27.754-32.486-27.733a61.89 61.89 0 0 0-.747-8.87c-5.07-32.19-34.317-54.582-66.364-51.64-5.697-13.646-20.165-22.173-35.446-19.775-9.67 1.517-17.682 7.103-22.578 14.73-9.55-3.418-20.073-4.563-30.802-2.88-31.014 4.868-53.107 31.686-52.9 62.108a34.77 34.77 0 0 0-4.258.39c-18.66 2.928-31.408 20.405-28.474 39.034 1.946 12.355 10.302 22.107 21.15 26.425-15.04 8.437-24.006 25.582-21.168 43.596 3.58 22.736 24.624 38.397 47.34 35.505.01 2.447.204 4.926.597 7.42 4.173 26.503 29.077 44.612 55.623 40.446z"/><defs><path id="i" d="M1298.533 664.06a48.607 48.607 0 0 0 18.038-6.66c13.343 7.793 29.36 11.214 45.823 8.63 28.08-4.406 49.562-25.04 56.38-50.823.168-.024.335-.046.502-.072 27.222-4.272 46.054-28.28 42.064-53.62-1.306-8.283-4.89-15.684-10.07-21.746 12.475-6.223 20.06-19.98 17.778-34.467-2.55-16.2-16.56-27.754-32.486-27.733a61.89 61.89 0 0 0-.747-8.87c-5.07-32.19-34.317-54.582-66.364-51.64-5.697-13.646-20.165-22.173-35.446-19.775-9.67 1.517-17.682 7.103-22.578 14.73-9.55-3.418-20.073-4.563-30.802-2.88-31.014 4.868-53.107 31.686-52.9 62.108a34.77 34.77 0 0 0-4.258.39c-18.66 2.928-31.408 20.405-28.474 39.034 1.946 12.355 10.302 22.107 21.15 26.425-15.04 8.437-24.006 25.582-21.168 43.596 3.58 22.736 24.624 38.397 47.34 35.505.01 2.447.204 4.926.597 7.42 4.173 26.503 29.077 44.612 55.623 40.446z"/></defs><clipPath id="j"><use xlink:href="#i" overflow="visible"/></clipPath><g clip-path="url(#j)"><path fill="#DCDDDE" stroke="#000" stroke-width="2.611" stroke-linecap="round" stroke-linejoin="round" stroke-miterlimit="10" d="M1253.09 576.56c-2.32 0-4.203-17.967-4.203-40.13s1.88-40.13 4.203-40.13h151.317c2.32 0 4.203 17.965 4.203 40.13s-1.88 40.13-4.203 40.13H1253.09z"/><path stroke="#000" stroke-width="2.308" stroke-linecap="round" stroke-linejoin="round" stroke-miterlimit="10" fill="none" d="M1269.626 503.35h118.853v66.01h-118.854z"/><path fill="#FFE300" d="M1269.626 503.35h118.853v66.01h-118.854z"/><path stroke="#000" stroke-width="2.308" stroke-linecap="round" stroke-linejoin="round" stroke-miterlimit="10" fill="none" d="M1269.626 503.35h118.853v66.01h-118.854z"/><ellipse stroke="#000" stroke-width="2.308" stroke-linecap="round" stroke-linejoin="round" stroke-miterlimit="10" cx="1259.92" cy="535.118" rx="2.627" ry="9.966" fill="none"/><circle stroke="#000" stroke-width="2.308" stroke-linecap="round" stroke-linejoin="round" stroke-miterlimit="10" cx="1398.628" cy="536.866" r="2.098" fill="none"/></g><defs><path id="k" d="M1298.533 664.06a48.607 48.607 0 0 0 18.038-6.66c13.343 7.793 29.36 11.214 45.823 8.63 28.08-4.406 49.562-25.04 56.38-50.823.168-.024.335-.046.502-.072 27.222-4.272 46.054-28.28 42.064-53.62-1.306-8.283-4.89-15.684-10.07-21.746 12.475-6.223 20.06-19.98 17.778-34.467-2.55-16.2-16.56-27.754-32.486-27.733a61.89 61.89 0 0 0-.747-8.87c-5.07-32.19-34.317-54.582-66.364-51.64-5.697-13.646-20.165-22.173-35.446-19.775-9.67 1.517-17.682 7.103-22.578 14.73-9.55-3.418-20.073-4.563-30.802-2.88-31.014 4.868-53.107 31.686-52.9 62.108a34.77 34.77 0 0 0-4.258.39c-18.66 2.928-31.408 20.405-28.474 39.034 1.946 12.355 10.302 22.107 21.15 26.425-15.04 8.437-24.006 25.582-21.168 43.596 3.58 22.736 24.624 38.397 47.34 35.505.01 2.447.204 4.926.597 7.42 4.173 26.503 29.077 44.612 55.623 40.446z"/></defs><clipPath id="l"><use xlink:href="#k" overflow="visible"/></clipPath><g clip-path="url(#l)"><path fill="#DCDDDE" stroke="#000" stroke-width="2.611" stroke-linecap="round" stroke-linejoin="round" stroke-miterlimit="10" d="M1253.09 576.56c-2.32 0-4.203-17.967-4.203-40.13s1.88-40.13 4.203-40.13h151.317c2.32 0 4.203 17.965 4.203 40.13s-1.88 40.13-4.203 40.13H1253.09z"/><path stroke="#000" stroke-width="2.308" stroke-linecap="round" stroke-linejoin="round" stroke-miterlimit="10" fill="none" d="M1269.626 503.35h118.853v66.01h-118.854z"/><path fill="#FFE300" d="M1269.626 503.35h118.853v66.01h-118.854z"/><path stroke="#000" stroke-width="2.308" stroke-linecap="round" stroke-linejoin="round" stroke-miterlimit="10" fill="none" d="M1269.626 503.35h118.853v66.01h-118.854z"/><ellipse stroke="#000" stroke-width="2.308" stroke-linecap="round" stroke-linejoin="round" stroke-miterlimit="10" cx="1259.92" cy="535.118" rx="2.627" ry="9.966" fill="none"/><circle stroke="#000" stroke-width="2.308" stroke-linecap="round" stroke-linejoin="round" stroke-miterlimit="10" cx="1398.628" cy="536.866" r="2.098" fill="none"/><g fill="#fff"><path d="M1415.147 462.64c-7.192 2.766-25.478 9.17-27.737 22.82l-25.552 6.374-31.54 9.552c-14.696 4.708-10.82 21.67 4.078 18.588l34.653-7.54 7.603-1.634c-12.61 6.352-7.216 26.154 13.6 20.715-9.532 4.328-10.355 25.844 17.062 18.27-14.842 6.804-7.814 21.464 11.178 17.92l47.05-12.554c6.447-1.375 13.94-6.537 16.117-8.426l10.817-10.168 38.637-10.48s-2.617-5.335-5.878-11.9l2.922.608c.225-.065-9.566-49.9-9.566-49.9s-39.258 9.508-57.918-1.185c-10.806-6.194-38.315-3.835-45.527-1.06z"/><path stroke="#000" stroke-width="2.308" stroke-linecap="round" stroke-linejoin="round" stroke-miterlimit="10" d="M1387.39 485.573c2.173-13.73 20.545-20.16 27.758-22.933 7.212-2.774 34.722-5.133 45.528 1.06 18.66 10.69 57.918 1.184 57.918 1.184M1393.6 530.466c-24.627 8.957-30.78-15.007-15.02-20.48l32.95-9.066"/><path stroke="#000" stroke-width="2.308" stroke-linecap="round" stroke-linejoin="round" stroke-miterlimit="10" d="M1414.403 502.695l-45.354 9.74-34.654 7.54c-14.9 3.08-18.774-13.88-4.077-18.588l31.538-9.552 63.023-15.72M1407.714 549.677c-29.264 8.306-26.884-16.133-15.913-18.69l27.037-6.59"/><path stroke="#000" stroke-width="2.308" stroke-linecap="round" stroke-linejoin="round" stroke-miterlimit="10" d="M1426.952 543.81l-16.63 4.807c-18.675 6.088-11.995 22.85 8.173 19.09l47.05-12.556c6.447-1.375 13.94-6.537 16.117-8.426l10.817-10.168 38.636-10.48"/></g></g><path fill="#fff" d="M1023.533 664.06a48.607 48.607 0 0 0 18.038-6.66c13.343 7.793 29.36 11.214 45.823 8.63 28.08-4.406 49.562-25.04 56.38-50.823.168-.024.335-.046.502-.072 27.222-4.272 46.054-28.28 42.064-53.62-1.306-8.283-4.89-15.684-10.07-21.746 12.475-6.223 20.06-19.98 17.778-34.467-2.55-16.2-16.56-27.754-32.486-27.733a61.89 61.89 0 0 0-.747-8.87c-5.07-32.19-34.317-54.582-66.364-51.64-5.697-13.646-20.165-22.173-35.447-19.775-9.67 1.517-17.682 7.103-22.578 14.73-9.552-3.418-20.073-4.563-30.802-2.88-31.014 4.868-53.107 31.686-52.9 62.108-1.41.045-2.83.167-4.258.39-18.66 2.93-31.408 20.405-28.474 39.034 1.946 12.355 10.303 22.107 21.152 26.425-15.042 8.437-24.007 25.582-21.17 43.596 3.58 22.736 24.625 38.397 47.34 35.505.01 2.447.205 4.926.598 7.42 4.17 26.503 29.076 44.612 55.623 40.446z"/><defs><path id="m" d="M1023.533 664.06a48.607 48.607 0 0 0 18.038-6.66c13.343 7.793 29.36 11.214 45.823 8.63 28.08-4.406 49.562-25.04 56.38-50.823.168-.024.335-.046.502-.072 27.222-4.272 46.054-28.28 42.064-53.62-1.306-8.283-4.89-15.684-10.07-21.746 12.475-6.223 20.06-19.98 17.778-34.467-2.55-16.2-16.56-27.754-32.486-27.733a61.89 61.89 0 0 0-.747-8.87c-5.07-32.19-34.317-54.582-66.364-51.64-5.697-13.646-20.165-22.173-35.447-19.775-9.67 1.517-17.682 7.103-22.578 14.73-9.552-3.418-20.073-4.563-30.802-2.88-31.014 4.868-53.107 31.686-52.9 62.108-1.41.045-2.83.167-4.258.39-18.66 2.93-31.408 20.405-28.474 39.034 1.946 12.355 10.303 22.107 21.152 26.425-15.042 8.437-24.007 25.582-21.17 43.596 3.58 22.736 24.625 38.397 47.34 35.505.01 2.447.205 4.926.598 7.42 4.17 26.503 29.076 44.612 55.623 40.446z"/></defs><clipPath id="n"><use xlink:href="#m" overflow="visible"/></clipPath><g clip-path="url(#n)"><path fill="#DCDDDE" stroke="#000" stroke-width="2.611" stroke-linecap="round" stroke-linejoin="round" stroke-miterlimit="10" d="M978.09 576.56c-2.322 0-4.204-17.967-4.204-40.13s1.88-40.13 4.203-40.13h151.316c2.32 0 4.203 17.965 4.203 40.13s-1.883 40.13-4.204 40.13H978.09z"/><path stroke="#000" stroke-width="2.308" stroke-linecap="round" stroke-linejoin="round" stroke-miterlimit="10" fill="none" d="M994.624 503.35h118.853v66.01H994.624z"/><path fill="#FFE300" d="M994.624 503.35h118.853v66.01H994.624z"/><path stroke="#000" stroke-width="2.308" stroke-linecap="round" stroke-linejoin="round" stroke-miterlimit="10" fill="none" d="M994.624 503.35h118.853v66.01H994.624z"/><ellipse stroke="#000" stroke-width="2.308" stroke-linecap="round" stroke-linejoin="round" stroke-miterlimit="10" cx="984.919" cy="535.118" rx="2.627" ry="9.966" fill="none"/><circle stroke="#000" stroke-width="2.308" stroke-linecap="round" stroke-linejoin="round" stroke-miterlimit="10" cx="1123.627" cy="536.866" r="2.098" fill="none"/></g><defs><path id="o" d="M1023.533 664.06a48.607 48.607 0 0 0 18.038-6.66c13.343 7.793 29.36 11.214 45.823 8.63 28.08-4.406 49.562-25.04 56.38-50.823.168-.024.335-.046.502-.072 27.222-4.272 46.054-28.28 42.064-53.62-1.306-8.283-4.89-15.684-10.07-21.746 12.475-6.223 20.06-19.98 17.778-34.467-2.55-16.2-16.56-27.754-32.486-27.733a61.89 61.89 0 0 0-.747-8.87c-5.07-32.19-34.317-54.582-66.364-51.64-5.697-13.646-20.165-22.173-35.447-19.775-9.67 1.517-17.682 7.103-22.578 14.73-9.552-3.418-20.073-4.563-30.802-2.88-31.014 4.868-53.107 31.686-52.9 62.108-1.41.045-2.83.167-4.258.39-18.66 2.93-31.408 20.405-28.474 39.034 1.946 12.355 10.303 22.107 21.152 26.425-15.042 8.437-24.007 25.582-21.17 43.596 3.58 22.736 24.625 38.397 47.34 35.505.01 2.447.205 4.926.598 7.42 4.17 26.503 29.076 44.612 55.623 40.446z"/></defs><clipPath id="p"><use xlink:href="#o" overflow="visible"/></clipPath><g clip-path="url(#p)"><path fill="#DCDDDE" stroke="#000" stroke-width="2.611" stroke-linecap="round" stroke-linejoin="round" stroke-miterlimit="10" d="M978.09 576.56c-2.322 0-4.204-17.967-4.204-40.13s1.88-40.13 4.203-40.13h151.316c2.32 0 4.203 17.965 4.203 40.13s-1.883 40.13-4.204 40.13H978.09z"/><path stroke="#000" stroke-width="2.308" stroke-linecap="round" stroke-linejoin="round" stroke-miterlimit="10" fill="none" d="M994.624 503.35h118.853v66.01H994.624z"/><path fill="#FFE300" d="M994.624 503.35h118.853v66.01H994.624z"/><path d="M1065.45 526.882h-21.253l10.626-12.447z"/><path stroke="#000" stroke-width="6.242" stroke-linecap="round" stroke-linejoin="round" stroke-miterlimit="10" fill="none" d="M1055.26 558.754v-35.55"/><path stroke="#000" stroke-width="2.308" stroke-linecap="round" stroke-linejoin="round" stroke-miterlimit="10" fill="none" d="M994.624 503.35h118.853v66.01H994.624z"/><ellipse stroke="#000" stroke-width="2.308" stroke-linecap="round" stroke-linejoin="round" stroke-miterlimit="10" cx="984.919" cy="535.118" rx="2.627" ry="9.966" fill="none"/><g fill="#fff"><path d="M1140.146 512.537c-7.192 2.767-25.478 9.17-27.737 22.82l-25.553 6.375-31.54 9.552c-14.698 4.708-10.822 21.67 4.076 18.588l34.653-7.54 7.604-1.634c-12.61 6.352-7.215 26.154 13.6 20.715-9.532 4.328-10.355 25.844 17.062 18.27-14.842 6.804-7.814 21.464 11.178 17.92l47.05-12.554c6.447-1.377 13.94-6.54 16.118-8.428l10.817-10.168 38.637-10.48s-2.617-5.335-5.878-11.9l2.922.608c.225-.065-9.566-49.9-9.566-49.9s-39.26 9.508-57.918-1.185c-10.804-6.193-38.314-3.834-45.526-1.06z"/><path stroke="#000" stroke-width="2.308" stroke-linecap="round" stroke-linejoin="round" stroke-miterlimit="10" d="M1112.388 535.47c2.174-13.728 20.547-20.158 27.76-22.932 7.21-2.774 34.72-5.133 45.527 1.06 18.66 10.69 57.918 1.184 57.918 1.184M1118.598 580.365c-24.626 8.957-30.78-15.007-15.02-20.482l32.95-9.065"/><path stroke="#000" stroke-width="2.308" stroke-linecap="round" stroke-linejoin="round" stroke-miterlimit="10" d="M1139.4 552.593l-45.353 9.74-34.653 7.54c-14.9 3.08-18.774-13.88-4.077-18.588l31.54-9.552 63.024-15.72M1132.713 599.575c-29.264 8.306-26.884-16.133-15.913-18.69l27.036-6.59"/><path stroke="#000" stroke-width="2.308" stroke-linecap="round" stroke-linejoin="round" stroke-miterlimit="10" d="M1151.95 593.707l-16.63 4.808c-18.675 6.088-11.995 22.85 8.174 19.09l47.05-12.556c6.447-1.377 13.94-6.54 16.118-8.428l10.817-10.168 38.636-10.48"/></g></g></svg>