<svg width="37" height="58" viewBox="0 0 37 58" fill="none" xmlns="http://www.w3.org/2000/svg">
<path d="M14.0321 9.05639C16.533 9.05639 18.5603 7.02905 18.5603 4.52819C18.5603 2.02734 16.533 0 14.0321 0C11.5313 0 9.50391 2.02734 9.50391 4.52819C9.50391 7.02905 11.5313 9.05639 14.0321 9.05639Z" fill="white"/>
<path d="M31.0045 32.9072L14.6546 8.9873L5.28711 36.433L31.0045 32.9072Z" fill="#3399FF"/>
<path d="M30.8311 36.1905C29.241 36.3979 27.6164 35.5683 26.8905 34.0474C25.1622 30.3834 21.3599 28.3094 17.3502 28.8625C13.3405 29.4155 10.2295 32.4574 9.53821 36.4325C9.19255 38.5065 7.22227 39.8891 5.14829 39.5435C3.0743 39.1978 1.69165 37.2275 2.03731 35.1535C3.2817 27.8946 9.01972 22.3294 16.3132 21.327C23.6413 20.3246 30.6237 24.1614 33.7692 30.8327C34.668 32.7339 33.8384 35.0153 31.9372 35.8794C31.5916 36.0177 31.2113 36.1214 30.8311 36.1905Z" fill="white"/>
<path d="M34.8044 29.6572L29.1355 37.1236C28.617 37.8149 28.3405 38.7136 28.4788 39.6815C28.7207 41.5481 30.4491 42.8616 32.3502 42.6196C33.2835 42.4814 34.0785 41.9974 34.6316 41.3061C38.1228 36.6051 34.8044 29.6572 34.8044 29.6572Z" fill="#FADCBC"/>
<path d="M8.22329 39.958L0.756952 34.2891C0.756952 34.2891 -0.59114 41.8937 4.07532 45.4194C4.76665 45.9379 5.66538 46.2145 6.63324 46.0762C8.49982 45.8342 9.81334 44.1059 9.57138 42.2048C9.39855 41.306 8.91462 40.511 8.22329 39.958Z" fill="#FADCBC"/>
<path d="M19.0078 40.9261C20.1485 49.3258 26.9926 55.3403 32.7998 54.5453L34.0788 47.1135C34.5627 44.3828 34.5973 41.6175 34.217 38.8867L19.0078 40.9261Z" fill="#584539"/>
<path d="M19.008 40.9258C20.1487 49.3254 15.1712 56.93 9.36401 57.725L6.14934 50.9155C4.97408 48.4267 4.17906 45.7651 3.79883 42.9998L19.008 40.9258Z" fill="#584539"/>
<path d="M3.79979 43.0351C2.6591 34.6355 8.53538 26.8926 16.935 25.7519C25.3346 24.6112 33.0775 30.4875 34.2182 38.8872L3.79979 43.0351Z" fill="#584539"/>
<path d="M19.0073 53.9228C26.1662 53.9228 31.9697 48.1194 31.9697 40.9604C31.9697 33.8015 26.1662 27.998 19.0073 27.998C11.8484 27.998 6.04492 33.8015 6.04492 40.9604C6.04492 48.1194 11.8484 53.9228 19.0073 53.9228Z" fill="#FADCBC"/>
<path d="M15.8977 37.608C16.1051 39.0252 15.1026 40.3733 13.6509 40.5461C12.1991 40.7535 10.8855 39.7511 10.7127 38.2993C10.5053 36.8821 11.5077 35.534 12.9595 35.3612C14.3767 35.1883 15.6903 36.1908 15.8977 37.608Z" fill="#332F2E"/>
<path d="M26.2688 36.191C26.4762 37.6082 25.4737 38.9563 24.0219 39.1291C22.5702 39.3365 21.2566 38.3341 21.0838 36.8823C20.8764 35.4651 21.8788 34.117 23.3306 33.9442C24.7824 33.7713 26.0959 34.7738 26.2688 36.191Z" fill="#332F2E"/>
<path d="M26.9937 41.376C27.5814 45.6622 24.5741 49.6373 20.2533 50.225C15.9671 50.8126 11.9919 47.8053 11.4043 43.4845L26.9937 41.376Z" fill="white"/>
<path d="M21.428 27.8948C14.3764 26.5467 7.60141 31.1441 6.21875 38.161C13.2703 39.5437 20.0453 34.9464 21.428 27.8948Z" fill="#584539"/>
</svg>
