<svg xmlns="http://www.w3.org/2000/svg" viewBox="0 0 61.6 275.26"><defs><style>.cls-1{isolation:isolate;}.cls-2{fill:#f2faff;}.cls-3{fill:#f2faff;}.cls-4{fill:#bdbdbd;opacity:0.3;mix-blend-mode:multiply;}</style></defs><title>marker_primary</title><g class="cls-1"><g id="Layer_2" data-name="Layer 2"><g id="ART"><rect class="cls-2" y="54.29" width="61.58" height="220.97" rx="12.95" ry="12.95"/><rect class="cls-3" x="0.01" y="238.33" width="61.58" height="7.51"/><rect class="cls-3" x="0.01" y="250.74" width="61.58" height="7.51"/><rect class="cls-3" x="9.4" y="132.58" width="42.8" height="76.33" rx="4.42" ry="4.42"/><rect class="cls-3" x="0.01" y="72.08" width="61.58" height="7.51"/><rect class="cls-3" x="0.01" y="84.5" width="61.58" height="7.51"/><path class="cls-4" d="M30.82,54.29H13A12.94,12.94,0,0,0,0,67.23V262.31A12.81,12.81,0,0,0,1.91,269c2,3.75,5.32,6.22,9.12,6.22H30.82Z" transform="translate(0 0)"/><path class="cls-3" d="M35.76,2.85a5.75,5.75,0,0,0-9.93,0C23.57,6.66,14.54,23.94,14.54,23.94v9.14H47.05V23.94S38,6.66,35.76,2.85Z" transform="translate(0 0)"/><path class="cls-4" d="M32.22,2.85A5.78,5.78,0,0,1,34,1a5.74,5.74,0,0,0-8.16,1.87C23.57,6.66,14.54,23.94,14.54,23.94v9.14h6.39V23.94S30,6.66,32.22,2.85Z" transform="translate(0 0)"/><rect class="cls-2" x="13.52" y="33.08" width="34.6" height="21.17"/><rect class="cls-4" x="13.52" y="33.08" width="10.74" height="21.17"/></g></g></g></svg>