<svg xmlns="http://www.w3.org/2000/svg" xmlns:xlink="http://www.w3.org/1999/xlink" viewBox="0 0 1440 1300"><defs><style>.cls-1{fill:#f33;}.cls-2{fill:#388e3c;}.cls-3{fill:#f8c329;}.cls-4{fill:#219750;}.cls-5{fill:#1a844b;}.cls-6{fill:#fadcbc;}.cls-7{fill:#9b643d;}.cls-8{fill:#221f1f;}.cls-9{fill:#f4fafe;}.cls-10{fill:#ee3c39;}.cls-11{fill:#fff;}.cls-12{fill:#f73;}.cls-13{isolation:isolate;}.cls-14,.cls-15,.cls-27,.cls-29,.cls-40,.cls-42,.cls-56{fill:none;stroke-linecap:round;}.cls-14{stroke:#eff1f3;}.cls-14,.cls-15,.cls-27,.cls-29,.cls-32,.cls-40,.cls-42,.cls-56{stroke-miterlimit:10;}.cls-14,.cls-15{stroke-width:16.4px;}.cls-15,.cls-42{stroke:#fff;}.cls-16{fill:#332e2e;}.cls-17{fill:#f9ce1d;}.cls-18{fill:#e0bb95;}.cls-19{fill:#231f20;opacity:0.2;}.cls-19,.cls-38{mix-blend-mode:multiply;}.cls-20{fill:#f9d278;}.cls-21{fill:#fadb95;}.cls-22{fill:#ed5722;}.cls-23{fill:#0e9a58;}.cls-24{fill:#a4bfe0;}.cls-25{fill:#ffe6ef;}.cls-26{fill:#774e2e;}.cls-27{stroke:#332e2e;stroke-width:2px;}.cls-28{fill:#c7e8f9;}.cls-29,.cls-56{stroke:#332f2e;}.cls-29{stroke-width:2.37px;}.cls-30{fill:#332f2e;}.cls-31{fill:#58bc71;}.cls-32{fill:#f0f0f0;stroke:#e0bb95;stroke-width:4px;}.cls-33{fill:#d8dde2;}.cls-34{fill:#f9719f;}.cls-35{fill:#ffcbdc;}.cls-36,.cls-39{fill:#ff4081;}.cls-37{fill:#7c5539;}.cls-38{fill:#9b2854;}.cls-38,.cls-39{opacity:0.5;}.cls-40{stroke:#74797e;}.cls-40,.cls-42{stroke-width:17.47px;}.cls-41{fill:#bf8f68;}.cls-43{fill:#18ac53;}.cls-44{fill:#2cb85a;}.cls-45{fill:#3fc55f;}.cls-46{fill:#52d165;}.cls-47{fill:#64dd6a;}.cls-48{fill:#f9d232;}.cls-49{opacity:0.22;}.cls-50{fill:#fa9664;}.cls-51{fill:#7099ba;}.cls-52{fill:#9c0f0a;}.cls-53{fill:#9acce5;}.cls-54{fill:#39f;}.cls-55{fill:#6cc87d;}.cls-56{stroke-width:1.5px;}</style><symbol id="New_Symbol_10" data-name="New Symbol 10" viewBox="0 0 81.35 124.41"><path class="cls-8" d="M5.7,77.29l.1.45c1.29,3.23,16.41,5.8,34.88,5.8S74.26,81,75.55,77.74l.1-.45c0-3.46-15.66-6.26-35-6.26S5.7,73.83,5.7,77.29Z"/><path class="cls-8" d="M75.65,77.29l-.1.45A1,1,0,0,0,75.65,77.29Z"/><path class="cls-8" d="M5.7,77.29a1,1,0,0,0,.1.45Z"/><path class="cls-1" d="M5.8,77.74l8.71,42c0,2.58,11.72,4.67,26.17,4.67s26.16-2.09,26.16-4.67l8.71-42c-1.29,3.23-16.41,5.8-34.87,5.8S7.09,81,5.8,77.74Z"/><path class="cls-1" d="M75.55,77.74a0,0,0,0,1,0,0v0Z"/><path class="cls-1" d="M5.8,77.74v0A0,0,0,0,1,5.8,77.74Z"/><path class="cls-9" d="M75.55,77.77C74.16,81,59.08,83.54,40.68,83.54S7.2,81,5.81,77.77a34.77,34.77,0,0,1,7.34-20.52,28.38,28.38,0,1,1,55.91-6.92,28.64,28.64,0,0,1-.85,6.92A34.77,34.77,0,0,1,75.55,77.77Z"/><polygon class="cls-10" points="67.05 37.66 69.29 7.84 40.1 22.19 67.05 37.66"/><path class="cls-11" d="M67.27,42.45a3.94,3.94,0,0,0,3.38-2.18A4.48,4.48,0,0,0,69,34.44L41.36,18.26a3.91,3.91,0,0,0-5.5,1.64,4.44,4.44,0,0,0,1.66,5.82L65.15,41.91A3.92,3.92,0,0,0,67.27,42.45Z"/><ellipse class="cls-11" cx="71.25" cy="4.28" rx="4.05" ry="4.29" transform="translate(0.31 12.18) rotate(-9.79)"/><polygon class="cls-12" points="39.06 45.3 5.47 55 39.06 57.69 39.06 45.3"/><path class="cls-11" d="M80.94,79.81A5.79,5.79,0,0,1,77.85,83a5.86,5.86,0,0,1-2.26,1.81,5.79,5.79,0,0,1-3.46.41A5.77,5.77,0,0,1,65,86a5.76,5.76,0,0,1-8.8.14A5.79,5.79,0,0,1,46,85.65a5.79,5.79,0,0,1-10.72,0,5.79,5.79,0,0,1-10.18.53,5.77,5.77,0,0,1-8.8-.15,5.77,5.77,0,0,1-7.11-.83A5.8,5.8,0,0,1,3.51,83a5.79,5.79,0,1,1,6.93-8.79l.09,0a6,6,0,0,1,1.73,1.18,5.77,5.77,0,0,1,5.52,2,5.77,5.77,0,0,1,8,1.93A5.8,5.8,0,0,1,35.45,81a5.79,5.79,0,0,1,10.46,0,5.8,5.8,0,0,1,9.71-1.64,5.77,5.77,0,0,1,8-1.93,5.77,5.77,0,0,1,5.52-2,5.84,5.84,0,0,1,1.72-1.18l.1,0a5.79,5.79,0,0,1,10,5.62Z"/><circle class="cls-8" cx="51.32" cy="41.92" r="2.31"/><circle class="cls-8" cx="25.9" cy="41.92" r="2.31"/></symbol><symbol id="New_Symbol_1" data-name="New Symbol 1" viewBox="0 0 90.95 45.48"><path class="cls-4" d="M91,0A45.48,45.48,0,0,1,45.48,45.48,45.48,45.48,0,0,1,0,0"/><path class="cls-5" d="M91,0c0,15.74-20.36,28.5-45.47,28.5S0,15.74,0,0"/><path class="cls-6" d="M87,0c0,15.74-18.61,28.5-41.56,28.5S3.92,15.74,3.92,0"/><path class="cls-7" d="M49.7,9.66c0-1.77-1.43-6.09-3.21-6.09s-3.21,4.32-3.21,6.09a3.21,3.21,0,1,0,6.42,0Z"/><path class="cls-7" d="M59,1.9c-1.71-.44-6.25-.14-6.7,1.57s3.37,4.2,5.08,4.65A3.21,3.21,0,0,0,59,1.9Z"/><path class="cls-7" d="M31.94,1.9c1.72-.44,6.26-.14,6.71,1.57s-3.37,4.2-5.09,4.65A3.21,3.21,0,0,1,31.94,1.9Z"/></symbol><symbol id="New_Symbol" data-name="New Symbol" viewBox="0 0 47.87 36.72"><path class="cls-1" d="M33.58,6.69,47.15,28.6a4.81,4.81,0,0,1-3.94,7.33l-25.75.79a4.8,4.8,0,0,1-4.38-7.07L25.27,7A4.8,4.8,0,0,1,33.58,6.69Z"/><path class="cls-2" d="M0,5.75A31,31,0,0,1,6.45,7.82a55.39,55.39,0,0,1,5.75,2.93c1.85,1.07,3.63,2.25,5.37,3.49a57.44,57.44,0,0,1,5.19,4.19,16.85,16.85,0,0,1-6.84-.85,29.16,29.16,0,0,1-6.1-2.74,32.48,32.48,0,0,1-5.38-3.9A22.35,22.35,0,0,1,0,5.75Z"/><path class="cls-2" d="M9.26,0a17.27,17.27,0,0,1,3.57,3.44,26.82,26.82,0,0,1,2.51,3.8,31.3,31.3,0,0,1,1.86,4.08A36.39,36.39,0,0,1,18.57,16a9.33,9.33,0,0,1-4.46-2.56,15.94,15.94,0,0,1-2.92-3.88A17.5,17.5,0,0,1,9.48,5,12.79,12.79,0,0,1,9.26,0Z"/><path class="cls-2" d="M0,16.19a21.58,21.58,0,0,1,4.73-1.14,27.08,27.08,0,0,1,4.48-.2,25.62,25.62,0,0,1,4.48.55,16.56,16.56,0,0,1,4.62,1.69,12.81,12.81,0,0,1-4.57,2A17,17,0,0,1,9,19.58a16.9,16.9,0,0,1-4.69-.84A11,11,0,0,1,0,16.19Z"/><path class="cls-2" d="M3.06,24.18a14,14,0,0,1,4.05-3.79A20,20,0,0,1,12,18.15a18.6,18.6,0,0,1,5.32-.84,12.24,12.24,0,0,1,5.47,1.12A28.5,28.5,0,0,1,18,21a43.17,43.17,0,0,1-4.68,1.72,38.58,38.58,0,0,1-4.88,1.17A23.61,23.61,0,0,1,3.06,24.18Z"/><path class="cls-2" d="M18.52.69a21.84,21.84,0,0,1,1.7,4.65c.37,1.49.65,2.93.86,4.34l.57,4.17a21.4,21.4,0,0,0,1,4.49,6.31,6.31,0,0,1-4.4-3.07A11.72,11.72,0,0,1,16.4,10.4a14.4,14.4,0,0,1,.11-5A11.38,11.38,0,0,1,18.52.69Z"/><path class="cls-2" d="M22.64,1.81a12.48,12.48,0,0,1,1.89,4.13,17.22,17.22,0,0,1,.54,4.13,17.33,17.33,0,0,1-.47,4.15,12.73,12.73,0,0,1-1.84,4.21,12.13,12.13,0,0,1-1.89-4.11,16.9,16.9,0,0,1-.54-4.16A17.59,17.59,0,0,1,20.81,6,12.37,12.37,0,0,1,22.64,1.81Z"/><path class="cls-2" d="M8.4,28a41.75,41.75,0,0,1,3-3.43,25.64,25.64,0,0,1,3.2-2.71,21.86,21.86,0,0,1,3.69-2.12,14.15,14.15,0,0,1,4.51-1.26,12,12,0,0,1-2.21,4.19,15.71,15.71,0,0,1-3.25,3.06,15.11,15.11,0,0,1-4.05,2,10.94,10.94,0,0,1-2.33.47A5.76,5.76,0,0,1,8.4,28Z"/><circle class="cls-3" cx="19.59" cy="32.6" r="0.59"/><circle class="cls-3" cx="16.65" cy="27.44" r="0.59"/><circle class="cls-3" cx="27.99" cy="31.76" r="0.59"/><circle class="cls-3" cx="27.22" cy="25.57" r="0.59"/><circle class="cls-3" cx="25.56" cy="16.98" r="0.59"/><circle class="cls-3" cx="39.06" cy="18.98" r="0.59"/><circle class="cls-3" cx="33.59" cy="17.5" r="0.59"/><circle class="cls-3" cx="32.39" cy="11.35" r="0.59"/><circle class="cls-3" cx="29.1" cy="7.3" r="0.59"/><circle class="cls-3" cx="34.85" cy="24.39" r="0.59"/><circle class="cls-3" cx="36.35" cy="32.46" r="0.59"/><circle class="cls-3" cx="43.83" cy="30.28" r="0.59"/></symbol></defs><title>Kitchen-SVG-2</title><g class="cls-13"><g id="middle"><path class="cls-14" d="M272.16,680.18l-19.43,61.51"/><path class="cls-15" d="M283.39,686.48,308,746.12"/><path class="cls-16" d="M344.72,739.84a15.86,15.86,0,0,1-8.62,20.71h0A12.3,12.3,0,0,1,320,753.87L315.56,743l-15.16,6.25,13.65,33.13a4.11,4.11,0,0,0,5.35,2.23l37.06-15.28A16.11,16.11,0,0,0,365.65,749,15.87,15.87,0,0,0,344.72,739.84Z"/><path class="cls-17" d="M321.6,757.66,315.91,760a4.1,4.1,0,0,1-3.13-7.58l5.7-2.35a4.1,4.1,0,0,1,3.12,7.58Z"/><path class="cls-16" d="M284.93,760.46A15.86,15.86,0,0,1,265,770.81h0a12.3,12.3,0,0,1-8-15.43l3.55-11.22-15.64-4.94-10.79,34.17a4.09,4.09,0,0,0,2.67,5.14L275,790.61a16.11,16.11,0,0,0,20.09-9.69A15.87,15.87,0,0,0,284.93,760.46Z"/><path class="cls-17" d="M255.77,759.29l-5.88-1.85a4.1,4.1,0,0,1,2.47-7.82l5.88,1.85a4.1,4.1,0,0,1-2.47,7.82Z"/><path class="cls-11" d="M240.76,670.47l1.18,31.3,69.93-1.71a3.31,3.31,0,0,0,0-.45l-1.21-32a35,35,0,0,0-69.88,2.88Z"/><path class="cls-14" d="M263.56,630.68c11.73,9.05,69-19,80.69-34.2"/><path class="cls-18" d="M346.15,578.47c-4.84,6.27-9.94,13.36-3.68,18.2a14.34,14.34,0,0,0,20.11-2.59c4.83-6.27,5.51-28.76-.75-33.6S351,572.2,346.15,578.47Z"/><path class="cls-11" d="M358.2,597.3l-23.46-18.1a8.2,8.2,0,0,0-10,13l23.46,18.1a8.2,8.2,0,1,0,10-13Z"/><ellipse class="cls-19" cx="501.24" cy="775.6" rx="123.58" ry="13.72"/><path class="cls-20" d="M662.58,675.47c3.24-8.23,6.73-16.29,8.6-25a130.68,130.68,0,0,0,2.33-13.89c.43-4.13-.19-8.26.17-12.43,1.53-17.89-2.15-35.67-7.26-52.76-4.48-15-10.82-29.39-20.13-42-4.68-6.35-8.72-13.8-14.83-18.87a102.12,102.12,0,0,1-7.74-7.83c-2.87-2.95-6.31-5.31-9.36-8.07-5.9-5.35-12.75-8.74-19.33-13.09-3.21-2.12-5.88-4.12-9.55-5.43-4-1.43-7.32-3.91-11.21-5.39-3.48-1.33-7.23-1.32-10.72-2.77a59.09,59.09,0,0,0-11.89-3.3c-7.74-1.49-15-3.95-23-4.17-16.51-.46-33.19-.58-49.12,4.46-3.8,1.2-7.76,1.44-11.56,2.61a72.19,72.19,0,0,0-12,4.86c-7.1,3.63-14.2,7.69-21.56,10.71-7.15,2.94-12.74,9.23-18.85,13.79a104.29,104.29,0,0,0-16.84,16.16c-5,5.82-10.7,11.6-14.58,18.29-2,3.49-3.21,7-5.74,10.21a45.73,45.73,0,0,0-5.62,10.27c-6.64,15.18-11.65,31.72-13.28,48.31-.84,8.64.11,17.44-.16,26.09-.13,3.95-.55,7.07.53,11s1.28,8.12,2.12,12.2a155,155,0,0,0,15.75,43.85c3.6,6.54,7.44,14.3,12.72,19.59,2.85,2.86,4.66,6.15,7.18,9.26s5.62,5.42,8.13,8.42c5.15,6.13,11.65,10.13,18.08,14.77s13.23,9.66,20.24,13c3.37,1.6,6.87,2.47,10.1,4.4a49.34,49.34,0,0,0,11.48,4.64A200.31,200.31,0,0,0,489.63,773c8.86,1.55,17.2,2.8,26.22,2.85,8.6,0,16.66-1.65,25.14-2.68,7.92-1,15.32-2,22.89-4.62a146.41,146.41,0,0,0,21.37-9.42c3.24-1.76,6.8-2.75,10-4.57a98,98,0,0,0,10.38-6.74c6.25-4.67,12.65-9.12,18.38-14.44s10-12,15.6-17.41a53,53,0,0,0,7-8.47c2.36-3.48,3.76-7.32,5.82-11,1.8-3.19,3.52-6.42,5.44-9.54C660.22,683.23,661,679.46,662.58,675.47Z"/><path class="cls-21" d="M655.84,671.43c3-7.53,5.86-14.75,7.66-22.71,1.88-8.32,2.47-16.92,2.85-25.42a90.08,90.08,0,0,0-.22-12c-.32-3.76.38-7.45.09-11.21-.32-4-.88-8-1.56-11.92s-2.33-7.58-3.48-11.49a215,215,0,0,0-8.16-23.3,126.24,126.24,0,0,0-10.56-19.65c-4.36-6.72-8.43-13.56-14-19.44-5.07-5.38-11-10.48-16.53-15.44a118,118,0,0,0-38.41-23.49c-7.78-2.83-15.33-6.07-23.48-7.74s-15.17-4.25-23.57-3.94c-16.51.61-33.1-1-49.18,3.69-8,2.32-15.87,4.52-23.53,7.77a131.82,131.82,0,0,0-21,11.58c-6.48,4.25-12.9,8.88-19,13.62a53.31,53.31,0,0,0-8,7c-2.35,2.77-4.22,5.64-6.81,8.24-10.74,10.8-17.81,24.47-24.32,38-6.77,14-10.69,30.09-12.23,45.62a146.5,146.5,0,0,0,10.45,72.68c1.41,3.4,2.43,6.72,3.6,10.19,1.24,3.67,3.92,6.68,5.81,10a153,153,0,0,0,13.68,20.63,98.81,98.81,0,0,0,7.3,8.14c2.7,2.7,5.91,4.71,8.64,7.34,2.46,2.37,4.3,5,7.18,6.92a85,85,0,0,1,8.48,6.5c2.8,2.42,6.11,3.45,9.29,5.23s6.27,4,9.68,5.56c7.39,3.49,15,7.34,23.08,8.9,7.18,1.39,13.83,5.31,21.27,5.52,7.65.21,15,1.81,22.74,1.71,8.16-.11,15.8-1.56,23.79-2.72a153.31,153.31,0,0,0,44.7-13.94A203.54,203.54,0,0,0,601.93,741c5.93-3.7,11.14-9.09,16.18-13.88,5.49-5.21,11.83-10.55,16.08-16.86,4-6,8.94-11.82,12.41-18.17A185,185,0,0,0,655.84,671.43Z"/><path class="cls-11" d="M487,482.91c-31.51-2.05-68.45,28.09-82.75,53.62-18.28,32.66-26.24,74-21.59,110.91,9,71.29,100.23,120.37,165.51,100.4,18.37-5.62,33.06-15.49,49-25.92,15.55-10.19,29.42-16.29,38.31-33.72,16.13-31.63,22.13-65.84,15.94-101.14-2.93-16.73-10.18-36.19-19.84-50.12-10.49-15.13-27.56-20.87-42.69-30.07-15.61-9.5-26-18.93-44.92-20.21S506,484.2,487,482.91Z"/><path class="cls-22" d="M645.06,607.66c10.78-9.64-4.17-26.37-14.95-16.73S634.27,617.3,645.06,607.66Z"/><path class="cls-22" d="M580.3,632.47c10.78-9.64-4.16-26.36-14.95-16.72S569.51,642.11,580.3,632.47Z"/><path class="cls-22" d="M416.14,594.84c10.78-9.64-4.17-26.37-14.95-16.73S405.35,604.48,416.14,594.84Z"/><path class="cls-22" d="M549.21,593.74c10.78-9.64-4.17-26.36-15-16.72S538.42,603.39,549.21,593.74Z"/><path class="cls-23" d="M497.28,513.83c10.78-9.63-4.17-26.36-14.95-16.72S486.49,523.48,497.28,513.83Z"/><path class="cls-23" d="M437.81,649.74c10.78-9.63-4.17-26.36-14.95-16.72S427,659.39,437.81,649.74Z"/><path class="cls-23" d="M520.26,635.12c10.78-9.64-4.16-26.36-14.95-16.72S509.47,644.76,520.26,635.12Z"/><path class="cls-23" d="M597.43,545.1c10.79-9.63-4.16-26.36-14.95-16.72S586.65,554.75,597.43,545.1Z"/><path class="cls-24" d="M468,558.62c2.39-6.08-7-9.65-9.36-3.68S465.59,564.74,468,558.62Z"/><path class="cls-24" d="M592.53,704.81c2.39-6.08-7-9.64-9.35-3.68S590.12,710.93,592.53,704.81Z"/><path class="cls-24" d="M455,695.46c2.4-6.09-7-9.65-9.35-3.68S452.64,701.57,455,695.46Z"/><path class="cls-24" d="M519.93,656.19c2.39-6.09-7-9.65-9.36-3.68S517.52,662.3,519.93,656.19Z"/><path class="cls-24" d="M611.75,642.23c2.4-6.09-7-9.65-9.35-3.68S609.34,648.35,611.75,642.23Z"/><path class="cls-24" d="M558.76,689.36c2.39-6.09-7-9.65-9.36-3.68S556.35,695.48,558.76,689.36Z"/><path class="cls-24" d="M602.13,551.68c2.39-6.09-7-9.65-9.35-3.68S599.72,557.79,602.13,551.68Z"/><path class="cls-25" d="M565.62,597c2.39-6.08-7-9.65-9.35-3.68S563.21,603.15,565.62,597Z"/><path class="cls-25" d="M461,511.84c2.4-6.09-7-9.65-9.35-3.68S458.61,518,461,511.84Z"/><path class="cls-11" d="M521.4,736.88c2.39-6.09-7-9.65-9.36-3.68S519,743,521.4,736.88Z"/><path class="cls-11" d="M492.62,694.14c2.39-6.09-7-9.66-9.36-3.68S490.21,700.25,492.62,694.14Z"/><path class="cls-11" d="M556.52,645.47c2.39-6.09-7-9.65-9.36-3.68S554.11,651.59,556.52,645.47Z"/><path class="cls-11" d="M441.65,643.29c2.4-6.09-7-9.66-9.35-3.68S439.24,649.4,441.65,643.29Z"/><path class="cls-11" d="M636.23,593.74c2.39-6.09-7-9.65-9.35-3.68S633.82,599.85,636.23,593.74Z"/><path class="cls-25" d="M500.89,600.49c2.4-6.09-7-9.65-9.35-3.68S498.48,606.6,500.89,600.49Z"/><path class="cls-25" d="M413,567.83c2.39-6.08-7-9.65-9.36-3.68S410.6,574,413,567.83Z"/><path class="cls-24" d="M404.58,627.81c2.4-6.08-7-9.65-9.35-3.67S402.17,633.93,404.58,627.81Z"/><path class="cls-24" d="M528.18,541.1c2.39-6.09-7-9.65-9.35-3.68S525.77,547.22,528.18,541.1Z"/><path class="cls-25" d="M591.25,711.53c-15.29,9.27-28.71,19.74-46.18,24.8a125.31,125.31,0,0,1-32,4.91c-9.31.21-19.26.08-27.76-4.19-7.68-3.86-13.71-10.31-19.86-16.14A179.45,179.45,0,0,1,451.65,707c-4-4.77-9.12-11.15-8.87-17.81s6.46-9.89,12.35-10.68c7.5-1,15,.65,22.53.82,9.51.21,17.58-3.38,26.27-6.63,5.05-1.89,10.51-2.22,15.54-4.18,4.78-1.86,9-4.8,13.57-7,4.34-2.09,9.06-3.13,13.52-4.91a48.66,48.66,0,0,0,13.19-8.5,138.19,138.19,0,0,0,19.77-20.33c3.12-4.07,5.45-8.77,8.33-13,2.52-3.71,6.35-10.09,11.23-11,5.64-1,7.36,7.16,8.2,11.1A126.48,126.48,0,0,1,610.06,643c-.12,6.17-.93,12.3-1.08,18.48a40.41,40.41,0,0,1-1,9.24c-.69,2.64-1.94,5.12-2.48,7.8-.93,4.6-.83,9.27-2,13.88C601.62,699.83,598,707.44,591.25,711.53Z"/><path class="cls-25" d="M435.37,600.25c-4.82-4.41-.85-19.46,6.26-19.4,5.43,0,10.75,1.82,15.84,3.49,3,1,7.63,1.61,9.57,4.53s1.24,7.08,1.22,10.23c0,3.47.48,7.53-.69,10.86-2.09,5.91-14.34,1.91-18.85,1-4.06-.78-19.12-3.55-14.75-10.62"/><path class="cls-23" d="M614,684.86c10.78-9.64-4.17-26.36-14.95-16.72S603.25,694.5,614,684.86Z"/><path class="cls-22" d="M503.65,707.64c10.78-9.64-4.17-26.36-14.95-16.73S492.86,717.28,503.65,707.64Z"/><circle class="cls-21" cx="394.65" cy="739.15" r="2.29"/><ellipse class="cls-21" cx="412.36" cy="753.43" rx="1.69" ry="5.98" transform="translate(-325 312.97) rotate(-30.46)"/><path class="cls-21" d="M378.2,749.06a4,4,0,0,1-4,4c-2.23,0-1.3-2.18-1.3-4.41s-.93-3.67,1.3-3.67A4,4,0,0,1,378.2,749.06Z"/><path class="cls-21" d="M431.73,770.37a4,4,0,0,1,.48-5.69c1.7-1.44,2.4.82,3.84,2.52s3.08,2.21,1.38,3.65A4,4,0,0,1,431.73,770.37Z"/><circle class="cls-21" cx="394.65" cy="762" r="2.29"/><path class="cls-11" d="M272.81,601.66A35,35,0,0,0,239.31,638l1.21,29.28a35,35,0,0,0,69.87-2.88l-1.2-29.28A35,35,0,0,0,272.81,601.66Z"/><path class="cls-11" d="M272.81,601.66A35,35,0,0,0,239.31,638l1.21,29.28a35,35,0,0,0,69.87-2.88l-1.2-29.28A35,35,0,0,0,272.81,601.66Z"/><circle class="cls-18" cx="271.37" cy="566.73" r="34.97"/><path class="cls-11" d="M289.22,609.62c0,1.82-8,3.32-17.83,3.38-9.41,0-17.12-1.25-17.81-3l-.06-13.65c0,1.82,8,3.24,17.87,3.19s17.84-1.56,17.83-3.38Z"/><path class="cls-26" d="M261.47,579.94a9.19,9.19,0,0,1-18.13-3.08Z"/><path class="cls-26" d="M253.4,582.12a9.2,9.2,0,0,1-15,10.65Z"/><path class="cls-26" d="M271.5,563.79a46.67,46.67,0,0,0-5.83-31.63,35,35,0,0,0-14.88,63.1A46.78,46.78,0,0,0,271.5,563.79Z"/><polygon class="cls-18" points="295.68 541.6 320 565.63 306.2 566.29 295.68 541.6"/><path class="cls-27" d="M280.81,557.24a7.06,7.06,0,1,1,14.11-.58"/><path class="cls-28" d="M286.91,533.57l-20-30.42a29.46,29.46,0,1,0-55.52-14.25A22.59,22.59,0,1,0,203,532.46a22.7,22.7,0,0,0,5.5-.68L233,569.05Z"/><line x1="234.06" y1="569.26" x2="286.93" y2="534.33"/><path class="cls-11" d="M234.41,577.45a8.2,8.2,0,0,1-4.87-15l52.87-34.93a8.2,8.2,0,0,1,9,13.68L238.58,576.1A8.17,8.17,0,0,1,234.41,577.45Z"/><line class="cls-29" x1="294.71" y1="614.98" x2="299.07" y2="691.91"/><circle class="cls-30" cx="301.72" cy="624.45" r="1.91"/><circle class="cls-30" cx="302.16" cy="632.24" r="1.91"/><circle class="cls-30" cx="302.6" cy="640.03" r="1.91"/><circle class="cls-30" cx="303.04" cy="647.82" r="1.91"/><circle class="cls-30" cx="303.48" cy="655.61" r="1.91"/><circle class="cls-30" cx="303.92" cy="663.4" r="1.91"/><circle class="cls-30" cx="304.36" cy="671.19" r="1.91"/><path class="cls-15" d="M272.47,611.59c.61,14.8,58.89,40.59,78.08,39.8"/><circle class="cls-18" cx="367.55" cy="647.42" r="17.48"/><path class="cls-11" d="M357.67,633a8.2,8.2,0,0,0-16.39.67l1.22,29.61a8.2,8.2,0,0,0,16.39-.68Z"/><path class="cls-18" d="M277,566.78a8.87,8.87,0,0,0-3.64-5.74l-19.84-13.95s-2.77,19.76,9.63,28.47h0A8.87,8.87,0,0,0,277,566.78Z"/><rect class="cls-11" x="269.84" y="353.89" width="92.9" height="9.75"/><rect class="cls-1" x="805.32" y="659.03" width="9.54" height="3.52" rx="1.76" transform="translate(186.72 1500.02) rotate(-92.6)"/><circle class="cls-4" cx="842.34" cy="666.8" r="3.28"/><path class="cls-31" d="M674.34,699.26h0a1.16,1.16,0,1,1-1.41,1.83l-.92-.71a1.16,1.16,0,1,0-1.41,1.83l7.32,5.66a1.16,1.16,0,0,1-1.41,1.83L671,705.46a1.16,1.16,0,1,0-1.42,1.83l2.75,2.12a1.16,1.16,0,1,1-1.42,1.83l-3.66-2.83a1.16,1.16,0,1,0-1.41,1.83h0a1.16,1.16,0,1,1-1.42,1.83h0l-7.32-5.65L667,693.6Z"/><circle class="cls-31" cx="662.09" cy="700.03" r="8.1"/><ellipse class="cls-32" cx="304.1" cy="580.5" rx="4.29" ry="7.57"/><polygon class="cls-33" points="1025.81 827.27 406.36 827.27 459.28 755.16 976.41 755.16 1025.81 827.27"/><rect class="cls-34" x="406.35" y="827.27" width="619.45" height="122.87"/><rect class="cls-33" x="406.35" y="809.48" width="35.78" height="17.86"/><rect class="cls-33" x="990.02" y="809.48" width="35.78" height="17.86"/><polygon class="cls-25" points="1025.81 809.42 406.36 809.42 459.28 737.31 976.41 737.31 1025.81 809.42"/><rect class="cls-33" x="706.65" y="809.57" width="18.86" height="17.69"/><rect class="cls-33" x="706.65" y="809.57" width="18.86" height="17.69"/><rect class="cls-35" x="891.7" y="731.46" width="48.62" height="48.62" rx="4.96"/><rect class="cls-36" x="898" y="737.76" width="36.01" height="36.01" rx="3.67"/><rect class="cls-37" x="892.99" y="719.69" width="46.04" height="9.52" rx="4.6"/><rect class="cls-11" x="896.23" y="729.2" width="39.56" height="2.26" rx="1.13"/><path class="cls-38" d="M940.32,736.42v38.7a5,5,0,0,1-5,5H927.2V731.46h8.16A5,5,0,0,1,940.32,736.42Z"/><rect class="cls-35" x="847.95" y="707.12" width="47.54" height="89.17" rx="4.85"/><rect class="cls-34" x="854.12" y="713.29" width="35.21" height="76.84" rx="3.59"/><rect class="cls-37" x="849.21" y="695.61" width="45.02" height="9.3" rx="4.5"/><rect class="cls-11" x="852.38" y="704.92" width="38.68" height="2.21" rx="1.1"/><path class="cls-39" d="M895.49,712v79.47a4.86,4.86,0,0,1-4.85,4.85h-8V707.12h8A4.87,4.87,0,0,1,895.49,712Z"/><rect class="cls-35" x="877.09" y="758.16" width="41.22" height="41.22" rx="4.21"/><rect class="cls-36" x="882.44" y="763.5" width="30.53" height="30.53" rx="3.11"/><rect class="cls-37" x="878.19" y="748.18" width="39.03" height="8.07" rx="3.9"/><rect class="cls-11" x="880.93" y="756.24" width="33.54" height="1.91" rx="0.96"/><path class="cls-38" d="M918.31,762.36v32.81a4.21,4.21,0,0,1-4.21,4.2h-6.91V758.16h6.91A4.21,4.21,0,0,1,918.31,762.36Z"/><path class="cls-1" d="M870.73,781.65l6.59,12.47A2.63,2.63,0,0,1,874.9,798l-14.09-.53a2.63,2.63,0,0,1-2.13-4l7.51-11.94A2.62,2.62,0,0,1,870.73,781.65Z"/><path class="cls-2" d="M852.45,779.88a16.93,16.93,0,0,1,3.43,1.37,29.64,29.64,0,0,1,3,1.82c1,.65,1.9,1.36,2.8,2.1a35.62,35.62,0,0,1,2.68,2.48,9,9,0,0,1-3.7-.72,16.1,16.1,0,0,1-3.23-1.72,17.78,17.78,0,0,1-2.79-2.33A12.24,12.24,0,0,1,852.45,779.88Z"/><path class="cls-2" d="M857.71,777.09a9.66,9.66,0,0,1,1.82,2,15.64,15.64,0,0,1,1.23,2.17,18,18,0,0,1,.86,2.29,20,20,0,0,1,.57,2.59,5.14,5.14,0,0,1-2.34-1.57,8.72,8.72,0,0,1-1.45-2.23,9.4,9.4,0,0,1-.76-2.5A7,7,0,0,1,857.71,777.09Z"/><path class="cls-2" d="M852.05,785.58a11.8,11.8,0,0,1,2.62-.45,15.5,15.5,0,0,1,2.46.06,15,15,0,0,1,2.42.47,9.24,9.24,0,0,1,2.46,1.09,7,7,0,0,1-2.57,1,9.79,9.79,0,0,1-2.59.07,9.41,9.41,0,0,1-2.53-.64A5.84,5.84,0,0,1,852.05,785.58Z"/><path class="cls-2" d="M853.42,790.06a7.48,7.48,0,0,1,2.35-1.92,10.76,10.76,0,0,1,2.73-1,10,10,0,0,1,2.94-.26,6.77,6.77,0,0,1,2.95.81,16,16,0,0,1-2.68,1.21,25.12,25.12,0,0,1-2.62.76,19.9,19.9,0,0,1-2.71.45A12.75,12.75,0,0,1,853.42,790.06Z"/><path class="cls-2" d="M862.74,777.81a12.64,12.64,0,0,1,.75,2.6c.14.83.24,1.63.31,2.41l.15,2.29a11.22,11.22,0,0,0,.36,2.49,3.48,3.48,0,0,1-2.29-1.84,6.56,6.56,0,0,1-.81-2.73,8,8,0,0,1,.25-2.72A6.21,6.21,0,0,1,862.74,777.81Z"/><path class="cls-2" d="M864.94,778.57a7.06,7.06,0,0,1,.88,2.33,9.75,9.75,0,0,1,.14,2.28,9.2,9.2,0,0,1-.41,2.24,7.13,7.13,0,0,1-1.16,2.23,6.46,6.46,0,0,1-.88-2.31,8.85,8.85,0,0,1-.14-2.29,9.28,9.28,0,0,1,.42-2.26A6.94,6.94,0,0,1,864.94,778.57Z"/><path class="cls-2" d="M856.19,792.31a22.41,22.41,0,0,1,1.75-1.76,13,13,0,0,1,1.85-1.36,11.91,11.91,0,0,1,2.09-1,7.92,7.92,0,0,1,2.51-.52,6.47,6.47,0,0,1-1.37,2.21,8.78,8.78,0,0,1-1.89,1.55,8.41,8.41,0,0,1-2.28,1A4.48,4.48,0,0,1,856.19,792.31Z"/><circle class="cls-3" cx="862.13" cy="795.27" r="0.32"/><circle class="cls-3" cx="860.71" cy="792.35" r="0.32"/><circle class="cls-3" cx="866.74" cy="795.12" r="0.32"/><circle class="cls-3" cx="866.55" cy="791.72" r="0.32"/><circle class="cls-3" cx="865.97" cy="786.97" r="0.32"/><circle class="cls-3" cx="873.26" cy="788.56" r="0.32"/><circle class="cls-3" cx="870.33" cy="787.55" r="0.32"/><circle class="cls-3" cx="869.91" cy="784.15" r="0.32"/><circle class="cls-3" cx="868.26" cy="781.81" r="0.32"/><circle class="cls-3" cx="870.76" cy="791.36" r="0.32"/><circle class="cls-3" cx="871.28" cy="795.82" r="0.32"/><circle class="cls-3" cx="875.45" cy="794.91" r="0.32"/><path class="cls-1" d="M970.53,794.94l-14,2a2.62,2.62,0,0,1-2.81-3.57l5.22-13.1a2.63,2.63,0,0,1,4.51-.65l8.72,11.08A2.62,2.62,0,0,1,970.53,794.94Z"/><path class="cls-2" d="M978.33,778.31a16.93,16.93,0,0,1-2.44,2.78,31.8,31.8,0,0,1-2.73,2.24c-.94.69-1.92,1.33-2.92,1.93A33.77,33.77,0,0,1,967,787a9.15,9.15,0,0,1,1.92-3.25,16.6,16.6,0,0,1,2.71-2.46,17.84,17.84,0,0,1,3.13-1.84A12.58,12.58,0,0,1,978.33,778.31Z"/><path class="cls-2" d="M979.2,784.2a9.77,9.77,0,0,1-2.51,1,15.17,15.17,0,0,1-2.45.43,18.22,18.22,0,0,1-2.45.05,23,23,0,0,1-2.63-.33,5.12,5.12,0,0,1,2.26-1.68,8.76,8.76,0,0,1,2.58-.62,9.59,9.59,0,0,1,2.62.12A7,7,0,0,1,979.2,784.2Z"/><path class="cls-2" d="M973.1,776a11.79,11.79,0,0,1-.46,2.62,16.3,16.3,0,0,1-.88,2.3,13.6,13.6,0,0,1-1.26,2.12,8.87,8.87,0,0,1-1.85,2,7,7,0,0,1,0-2.74,10,10,0,0,1,.8-2.46,9.46,9.46,0,0,1,1.45-2.17A6,6,0,0,1,973.1,776Z"/><path class="cls-2" d="M968.42,775.81a7.7,7.7,0,0,1,1,2.86,11,11,0,0,1,.06,2.92,10.22,10.22,0,0,1-.74,2.86A6.76,6.76,0,0,1,967,787a16.14,16.14,0,0,1-.23-2.93,22.32,22.32,0,0,1,.16-2.72,19.61,19.61,0,0,1,.48-2.7A12.74,12.74,0,0,1,968.42,775.81Z"/><path class="cls-2" d="M976.83,788.7a12.29,12.29,0,0,1-2.71-.17c-.82-.14-1.61-.31-2.36-.51l-2.22-.63a11.57,11.57,0,0,0-2.46-.5,3.48,3.48,0,0,1,2.5-1.54,6.58,6.58,0,0,1,2.84.16,7.91,7.91,0,0,1,2.48,1.15A6.11,6.11,0,0,1,976.83,788.7Z"/><path class="cls-2" d="M975.37,790.52a7,7,0,0,1-2.49,0,9,9,0,0,1-2.19-.63,9.39,9.39,0,0,1-2-1.14A6.92,6.92,0,0,1,967,787a6.72,6.72,0,0,1,2.48-.05,9.13,9.13,0,0,1,2.2.64,9.44,9.44,0,0,1,2,1.15A6.84,6.84,0,0,1,975.37,790.52Z"/><path class="cls-2" d="M965.36,777.66a22.45,22.45,0,0,1,1.08,2.24,13.2,13.2,0,0,1,.65,2.2,11,11,0,0,1,.27,2.31A7.79,7.79,0,0,1,967,787a6.69,6.69,0,0,1-1.62-2,8.72,8.72,0,0,1-.82-2.29,8.19,8.19,0,0,1-.14-2.48A4.57,4.57,0,0,1,965.36,777.66Z"/><circle class="cls-3" cx="960.59" cy="782.26" r="0.32"/><circle class="cls-3" cx="963.82" cy="781.91" r="0.32"/><circle class="cls-3" cx="959.17" cy="786.66" r="0.32"/><circle class="cls-3" cx="962.44" cy="787.63" r="0.32"/><circle class="cls-3" cx="967.12" cy="788.67" r="0.32"/><circle class="cls-3" cx="963.17" cy="795" r="0.32"/><circle class="cls-3" cx="965.11" cy="792.58" r="0.32"/><circle class="cls-3" cx="968.45" cy="793.33" r="0.32"/><circle class="cls-3" cx="971.2" cy="792.56" r="0.32"/><circle class="cls-3" cx="961.37" cy="791.71" r="0.32"/><circle class="cls-3" cx="956.99" cy="790.7" r="0.32"/><circle class="cls-3" cx="956.45" cy="794.93" r="0.32"/><use width="81.35" height="124.41" transform="matrix(-0.57, 0, 0, 0.57, 949.56, 730.31)" xlink:href="#New_Symbol_10"/></g><g id="front"><polygon class="cls-16" points="715.79 717.62 733.77 708.9 738.68 693.97 722.62 699.84 715.79 717.62"/><path class="cls-40" d="M704.16,937.05c25.8,45.42,86.43-73.86,90.08-41.47.71,6.32-.55,70.83-.62,80.37"/><path class="cls-16" d="M832.3,985a16.91,16.91,0,0,1-17,16.77h0a13.09,13.09,0,0,1-13-13.2l.09-12.54-17.47-.14-.3,38.18a4.38,4.38,0,0,0,4.34,4.41l42.71.33a17.18,17.18,0,0,0,17.43-16.16A16.9,16.9,0,0,0,832.3,985Z"/><path class="cls-17" d="M802.22,992.92l-6.56,0a4.37,4.37,0,1,1,.07-8.73l6.56.05a4.37,4.37,0,1,1-.07,8.73Z"/><path class="cls-40" d="M713.66,934.85c13.91,38.59,60.78,45.68,53.3,62.73-2.56,5.83-46,53.84-52.23,61.09"/><path class="cls-16" d="M738.5,1090.49a16.91,16.91,0,0,1-23.84,1.86h0a13.09,13.09,0,0,1-1.44-18.47l8.15-9.53L708.09,1053l-24.82,29a4.37,4.37,0,0,0,.48,6.16l32.49,27.77a17.14,17.14,0,0,0,23.07-.49A16.91,16.91,0,0,0,738.5,1090.49Z"/><path class="cls-17" d="M710.38,1077.2l-4.87-4.16a4.49,4.49,0,0,1-1.12-5.52,4.38,4.38,0,0,1,6.68-1.23l4.86,4.16a4.48,4.48,0,0,1,1.13,5.52A4.38,4.38,0,0,1,710.38,1077.2Z"/><path class="cls-11" d="M723.91,774.57a34.13,34.13,0,0,0-34.12,34.12V921.42a34.12,34.12,0,0,0,68.24,0V808.69A34.13,34.13,0,0,0,723.91,774.57Z"/><rect class="cls-16" x="689.79" y="888.12" width="68.23" height="18.63"/><rect class="cls-17" x="751.28" y="888.12" width="6.74" height="18.63"/><path class="cls-41" d="M755.31,756a37.26,37.26,0,1,1,3.52-30.07,33.46,33.46,0,0,1,1.2,5.11A37.05,37.05,0,0,1,755.31,756Z"/><path class="cls-16" d="M741.64,720.1a7.52,7.52,0,1,1-9.42-5A7.52,7.52,0,0,1,741.64,720.1Z"/><polygon class="cls-16" points="717.85 713.7 733.4 701.16 734.82 685.5 720.49 694.84 717.85 713.7"/><path class="cls-42" d="M800.1,682.4c-6,41.7-15.38,75.56-58.12,110.25"/><circle class="cls-41" cx="807.69" cy="665.39" r="18.63"/><rect class="cls-43" x="740.15" y="625.7" width="159.3" height="26.91" rx="13.46"/><rect class="cls-44" x="751.8" y="598.84" width="136.01" height="26.91" rx="13.46"/><rect class="cls-45" x="770.56" y="571.97" width="111.42" height="26.91" rx="13.46"/><rect class="cls-46" x="775.74" y="545.1" width="88.12" height="26.91" rx="13.46"/><rect class="cls-47" x="775.74" y="518.24" width="62.24" height="26.91" rx="13.46"/><path class="cls-48" d="M825.43,487.57l-7.87,7.79,2,10.89a.67.67,0,0,1-.25.63.63.63,0,0,1-.67,0L810,502.5l3,14.93a.71.71,0,0,1-.13.53.62.62,0,0,1-.49.23l-7.06,0h0a.62.62,0,0,1-.48-.23.6.6,0,0,1-.13-.52l2.78-15-8.5,4.54a.66.66,0,0,1-.3.07.7.7,0,0,1-.37-.11.63.63,0,0,1-.26-.62l1.79-10.93-8-7.67a.61.61,0,0,1-.17-.64.66.66,0,0,1,.51-.44l10.95-1.67L808,475.1a.63.63,0,0,1,.57-.36.62.62,0,0,1,.57.35l5,9.89,11,1.51a.66.66,0,0,1,.52.43A.62.62,0,0,1,825.43,487.57Z"/><use width="90.95" height="45.48" transform="matrix(-0.14, 0.29, -0.29, -0.14, 813.12, 527.62)" xlink:href="#New_Symbol_1"/><g class="cls-49"><path class="cls-4" d="M834,587.4A21.29,21.29,0,1,1,812.16,624"/><path class="cls-5" d="M834,587.4c6.33,3.78,6.56,15,.53,25.12S818.49,627.74,812.16,624"/><path class="cls-6" d="M833.08,589c6.33,3.78,7,14.33,1.47,23.55s-15.12,13.64-21.45,9.86"/><path class="cls-7" d="M828,606.3c-.71-.43-2.79-.89-3.22-.18s1,2.33,1.68,2.76A1.5,1.5,0,0,0,828,606.3Z"/><path class="cls-7" d="M827.11,600.68c-.59.58-1.56,2.48-1,3.07s2.49-.34,3.08-.92a1.51,1.51,0,0,0-2.11-2.15Z"/><path class="cls-7" d="M820.6,611.57c.24-.8,1.45-2.55,2.25-2.32s.87,2.37.64,3.16a1.5,1.5,0,0,1-2.89-.84Z"/></g><use width="47.87" height="36.72" transform="matrix(0.51, 0.26, -0.26, 0.51, 793.59, 565.26)" xlink:href="#New_Symbol"/><use width="47.87" height="36.72" transform="translate(837.02 549.89) rotate(90.48) scale(0.35)" xlink:href="#New_Symbol"/><g class="cls-49"><path class="cls-12" d="M837.39,576.2a11.37,11.37,0,0,1,14.24,17.74"/><path class="cls-50" d="M839.75,579.13A7.61,7.61,0,0,1,849.27,591"/></g><g class="cls-49"><path class="cls-12" d="M780.57,630a11.37,11.37,0,1,1,14-18"/><path class="cls-50" d="M782.88,627a7.61,7.61,0,0,1,9.34-12"/></g><rect class="cls-51" x="738.13" y="652.61" width="163.33" height="11.7" rx="5.85"/><path class="cls-52" d="M764.36,646.65a11.38,11.38,0,0,1,22.75,0"/><path class="cls-1" d="M768.13,646.65a7.61,7.61,0,1,1,15.21,0"/><path class="cls-46" d="M800.32,630.93h0l-.45,3.55,2.9,3.57-12.85,2-.19,0c0-.2,0-.4.07-.6a9.59,9.59,0,0,1,.84-2.88l0-.05a9.92,9.92,0,0,1,9.6-5.63Z"/><path class="cls-52" d="M786.83,646.65a11.37,11.37,0,1,1,22.74,0"/><path class="cls-1" d="M790.59,646.65a7.61,7.61,0,1,1,15.22,0"/><path class="cls-48" d="M737.86,646.65a15.13,15.13,0,0,1,30.26,0"/><path class="cls-3" d="M742.87,646.65a10.12,10.12,0,1,1,20.24,0"/><use width="47.87" height="36.72" transform="translate(828.24 618.13) scale(0.78)" xlink:href="#New_Symbol"/><rect class="cls-53" x="731.19" y="646.14" width="177.22" height="11.7" rx="5.85"/><path d="M818.08,680.85,789.25,668a8.73,8.73,0,1,0-7.12,16L811,696.81a8.74,8.74,0,1,0,7.12-16Z"/><path class="cls-16" d="M722.91,733.64a49.7,49.7,0,0,0-14.7-31,37.27,37.27,0,0,0,2,69.06A49.83,49.83,0,0,0,722.91,733.64Z"/><path class="cls-41" d="M721.58,731l-23.86-12.53s-.21,22.17,14.69,30A9.86,9.86,0,0,0,721.58,731Z"/><polygon class="cls-41" points="741.68 704.62 773.46 723.12 758.98 727.73 741.68 704.62"/><polygon class="cls-54" points="668.33 658.3 709.54 711.15 720.12 696.97 668.33 658.3"/><rect class="cls-11" x="649.72" y="667.62" width="55.69" height="64.64" transform="translate(-288.67 824.08) rotate(-53.25)"/><path class="cls-55" d="M682.71,695a2.14,2.14,0,0,0,2.18-2.07l.05-1.85a4.72,4.72,0,0,0,1.06.12l-.16,5.91a3.55,3.55,0,0,0,7.1.19l.38-14a17.49,17.49,0,0,0,.42-4.1c-.07-6.59-3.59-11.91-7.87-11.87s-7.7,5.43-7.62,12a15.54,15.54,0,0,0,2.52,8.67l-.12,4.82A2.12,2.12,0,0,0,682.71,695Z"/><rect class="cls-30" x="668.29" y="712.05" width="55.69" height="3.48" transform="translate(-292.31 844.52) rotate(-53.25)"/><rect class="cls-30" x="662.51" y="707.64" width="55.69" height="3.48" transform="translate(-291.09 838.11) rotate(-53.25)"/><path class="cls-11" d="M689.7,749.52a7.37,7.37,0,0,1-8.76-11.17l33.78-45.83a7.37,7.37,0,0,1,11.86,8.74L692.8,747.09A7.29,7.29,0,0,1,689.7,749.52Z"/><rect class="cls-11" x="689.79" y="913.91" width="68.23" height="41.63"/><path class="cls-11" d="M686,665.39a25.58,25.58,0,0,1-22.74,25.42,25.58,25.58,0,1,1-27.86-30.73,25.58,25.58,0,0,1,50.6,5.31Z"/><line class="cls-56" x1="751.28" y1="805.29" x2="751.28" y2="948.7"/><circle class="cls-30" cx="754.98" cy="815.76" r="1.74"/><circle class="cls-30" cx="754.98" cy="847.76" r="1.74"/><circle class="cls-30" cx="754.98" cy="879.77" r="1.74"/><circle class="cls-30" cx="754.98" cy="911.77" r="1.74"/><circle class="cls-30" cx="754.98" cy="943.77" r="1.74"/><path class="cls-42" d="M833.71,688.1c-9.42,41.06-43.68,83.15-89.11,114.24"/><circle class="cls-41" cx="842.66" cy="671.76" r="18.63"/><path class="cls-30" d="M851.75,688l-27.69-15.18a8.74,8.74,0,0,0-8.39,15.33l27.68,15.17a8.74,8.74,0,1,0,8.4-15.32Z"/><path class="cls-11" d="M755.31,756a4.52,4.52,0,0,1-1.47-.09c-4.26-.9-6.53-7.26-5.06-14.21s6.12-11.84,10.38-10.94a4.91,4.91,0,0,1,.87.28A37.05,37.05,0,0,1,755.31,756Z"/><path class="cls-11" d="M701.64,782.84c0,2.19,9.6,4,21.46,4.07,11.33.06,20.6-1.5,21.44-3.55l.06-16.43c0,2.19-9.63,3.91-21.5,3.84s-21.47-1.87-21.46-4.06Z"/></g></g></svg>