<svg width="40" height="51" viewBox="0 0 40 51" fill="none" xmlns="http://www.w3.org/2000/svg">
<path d="M19.6529 42.2348C19.7569 38.9074 20.6096 34.6026 16.8455 30.2354" stroke="#2A8C4A" stroke-width="2.5764" stroke-miterlimit="10" stroke-linecap="round"/>
<path d="M28.7209 46.8508C28.617 48.369 27.286 49.5128 25.7679 49.4712L18.8011 49.2632C18.406 49.2632 18.0733 48.9305 18.0941 48.5353L18.2604 42.2133L21.0471 42.2965L20.9847 44.3761C20.9431 45.5823 21.879 46.5805 23.0852 46.6221C24.6241 46.6845 25.9134 45.4575 25.955 43.9186C27.5563 43.9394 28.7833 45.2911 28.7209 46.8508Z" fill="#332E2E"/>
<path d="M21.7123 44.3978C21.7123 44.0026 21.4003 43.6907 21.0052 43.6699L19.9238 43.6491C19.5287 43.6491 19.2167 43.9611 19.1959 44.3562C19.1959 44.7513 19.5079 45.0633 19.903 45.084L20.9844 45.1048C21.3587 45.1048 21.6915 44.7929 21.7123 44.3978Z" fill="#F9CE1D"/>
<path d="M16.0759 32.8768C22.5851 32.5441 23.4586 35.6427 24.9143 38.6374" stroke="#32A658" stroke-width="2.5764" stroke-miterlimit="10" stroke-linecap="round"/>
<path d="M31.256 37.1195C31.9423 38.5128 31.3808 40.1765 29.9875 40.8628C28.9061 41.4035 27.5959 40.946 27.076 39.8854L26.161 38.0345L23.6654 39.2615L26.4521 44.9389C26.6393 45.2924 27.0552 45.438 27.4087 45.2716L33.6684 42.1938C35.0201 41.5075 35.6648 39.9062 35.0409 38.5128C34.3963 37.0363 32.6702 36.4332 31.256 37.1195Z" fill="#332E2E"/>
<path d="M27.3885 40.5291L26.4111 41.0074C26.0575 41.1946 25.6208 41.049 25.4544 40.6746C25.2673 40.3211 25.4128 39.8844 25.7872 39.718L26.7646 39.2397C27.1181 39.0525 27.5548 39.1981 27.7212 39.5724C27.8876 39.926 27.742 40.3627 27.3885 40.5291Z" fill="#F9CE1D"/>
<g opacity="0.11">
<g opacity="0.11">
<path opacity="0.11" d="M0 27.4699C0.0623887 29.6951 1.1022 31.7955 2.66192 33.376C4.36721 35.0813 6.65479 36.0587 9.02556 36.3915C10.3981 36.5786 11.8123 36.5578 13.1848 36.3707C13.4344 36.3291 13.3304 35.9548 13.0808 35.9963C10.7308 36.3291 8.2561 36.1211 6.0517 35.1853C4.03447 34.3326 2.32918 32.8353 1.31016 30.9013C0.748664 29.8407 0.436721 28.6761 0.395128 27.4907C0.395128 27.2203 0 27.2203 0 27.4699Z" fill="#00A551"/>
</g>
</g>
<g opacity="0.11">
<g opacity="0.11">
<path opacity="0.11" d="M11.2302 34.7899C9.96166 34.7067 8.69309 34.4987 7.46611 34.166C7.21656 34.1036 7.11258 34.4779 7.36213 34.5403C8.6307 34.8731 9.92007 35.1018 11.2302 35.185C11.4798 35.185 11.4798 34.8107 11.2302 34.7899Z" fill="#00A551"/>
</g>
</g>
<g opacity="0.11">
<g opacity="0.11">
<path opacity="0.11" d="M20.1303 40.3224C19.1113 41.1542 17.9675 41.8405 16.7613 42.3812C16.5325 42.4852 16.7405 42.8179 16.9485 42.7139C18.1754 42.1524 19.34 41.4453 20.3798 40.5927C20.5878 40.4263 20.3174 40.156 20.1303 40.3224Z" fill="#00A551"/>
</g>
</g>
<g opacity="0.11">
<g opacity="0.11">
<path opacity="0.11" d="M36.7886 35.5169C37.9948 37.4717 38.5147 39.8217 38.1819 42.0885C38.1403 42.338 38.5147 42.442 38.5563 42.1924C38.889 39.8217 38.3899 37.3677 37.1213 35.3297C36.9965 35.1009 36.6638 35.2881 36.7886 35.5169Z" fill="#00A551"/>
</g>
</g>
<g opacity="0.11">
<g opacity="0.11">
<path opacity="0.11" d="M36.4142 38.0139C36.6845 38.7002 36.8509 39.4073 36.9133 40.1352C36.9341 40.3847 37.3292 40.3847 37.3084 40.1352C37.246 39.3657 37.0797 38.617 36.8093 37.91C36.7677 37.806 36.6845 37.7436 36.5598 37.7644C36.4558 37.806 36.3726 37.9308 36.4142 38.0139Z" fill="#00A551"/>
</g>
</g>
<path d="M17.1983 20.254C20.193 19.7757 23.0213 21.8345 23.4788 24.8292L24.1859 29.3628C24.6642 32.3574 22.6054 35.1857 19.6107 35.6432C16.616 36.1216 13.7878 34.0627 13.3302 31.0681L12.6232 26.5345C12.1657 23.519 14.2037 20.7323 17.1983 20.254Z" fill="#32A658"/>
<path d="M17.1988 20.2526C17.6355 20.1902 18.0514 20.1694 18.4882 20.211C16.2006 21.1469 14.724 23.5592 15.14 26.138L15.847 30.6715C16.2422 33.2295 18.3426 35.1011 20.8381 35.3091C20.443 35.4547 20.0271 35.5794 19.5904 35.6626C16.5957 36.1409 13.7674 34.0821 13.3099 31.0875L12.6028 26.5539C12.1661 23.5176 14.2041 20.7309 17.1988 20.2526Z" fill="#2A8C4A"/>
<path d="M23.764 26.6634L12.9143 28.3543L13.3338 31.0462L24.1836 29.3552L23.764 26.6634Z" fill="#332E2E"/>
<path d="M20.8623 27.114L18.1704 27.5336L18.59 30.2255L21.2818 29.8059L20.8623 27.114Z" fill="#F9CE1D"/>
<path d="M15.6614 3.41058C16.6032 3.41058 17.3667 2.6471 17.3667 1.70529C17.3667 0.763485 16.6032 0 15.6614 0C14.7196 0 13.9561 0.763485 13.9561 1.70529C13.9561 2.6471 14.7196 3.41058 15.6614 3.41058Z" fill="white"/>
<path d="M11.918 13.5375L15.8485 3.3681L21.6091 12.6016L11.918 13.5375Z" fill="#32A658"/>
<path d="M12.2494 14.7222C12.8525 14.6598 13.3932 14.2231 13.4972 13.5992C13.8091 12.1227 15.0361 11.0413 16.5542 10.8749C18.0724 10.7293 19.4657 11.5612 20.0688 12.9753C20.3599 13.6824 21.2126 14.0359 21.9405 13.7448C22.6475 13.4536 23.0011 12.601 22.7099 11.8731C21.6493 9.3152 19.0498 7.77628 16.3047 8.04663C13.5388 8.31698 11.3136 10.3134 10.7313 12.9961C10.5649 13.7656 11.064 14.5143 11.8335 14.6806C11.9583 14.743 12.1038 14.743 12.2494 14.7222Z" fill="white"/>
<path d="M22.73 14.8872C22.4181 11.7262 19.6106 9.39701 16.4288 9.68815C13.2677 10.0001 10.9386 12.8076 11.2297 15.9894L22.73 14.8872Z" fill="#F47455"/>
<path d="M21.7329 19.8782C22.4679 19.8782 23.0638 19.2823 23.0638 18.5472C23.0638 17.8121 22.4679 17.2162 21.7329 17.2162C20.9978 17.2162 20.4019 17.8121 20.4019 18.5472C20.4019 19.2823 20.9978 19.8782 21.7329 19.8782Z" fill="#F47455"/>
<path d="M18.7377 20.1702C19.4728 20.1702 20.0687 19.5744 20.0687 18.8393C20.0687 18.1042 19.4728 17.5083 18.7377 17.5083C18.0026 17.5083 17.4067 18.1042 17.4067 18.8393C17.4067 19.5744 18.0026 20.1702 18.7377 20.1702Z" fill="#F47455"/>
<path d="M23.2505 19.7537C23.9856 19.7537 24.5815 19.1578 24.5815 18.4227C24.5815 17.6876 23.9856 17.0917 23.2505 17.0917C22.5154 17.0917 21.9196 17.6876 21.9196 18.4227C21.9196 19.1578 22.5154 19.7537 23.2505 19.7537Z" fill="#F47455"/>
<path d="M20.2566 20.0458C20.9917 20.0458 21.5876 19.4499 21.5876 18.7148C21.5876 17.9797 20.9917 17.3839 20.2566 17.3839C19.5215 17.3839 18.9257 17.9797 18.9257 18.7148C18.9257 19.4499 19.5215 20.0458 20.2566 20.0458Z" fill="#F47455"/>
<path d="M12.8936 20.7322C13.6287 20.7322 14.2246 20.1363 14.2246 19.4012C14.2246 18.6662 13.6287 18.0703 12.8936 18.0703C12.1586 18.0703 11.5627 18.6662 11.5627 19.4012C11.5627 20.1363 12.1586 20.7322 12.8936 20.7322Z" fill="#F47455"/>
<path d="M15.8877 20.44C16.6227 20.44 17.2186 19.8441 17.2186 19.109C17.2186 18.374 16.6227 17.7781 15.8877 17.7781C15.1526 17.7781 14.5567 18.374 14.5567 19.109C14.5567 19.8441 15.1526 20.44 15.8877 20.44Z" fill="#F47455"/>
<path d="M11.3747 20.8754C12.1098 20.8754 12.7057 20.2795 12.7057 19.5445C12.7057 18.8094 12.1098 18.2135 11.3747 18.2135C10.6397 18.2135 10.0438 18.8094 10.0438 19.5445C10.0438 20.2795 10.6397 20.8754 11.3747 20.8754Z" fill="#F47455"/>
<path d="M14.41 20.587C15.1451 20.587 15.741 19.9911 15.741 19.2561C15.741 18.521 15.1451 17.9251 14.41 17.9251C13.6749 17.9251 13.079 18.521 13.079 19.2561C13.079 19.9911 13.6749 20.587 14.41 20.587Z" fill="#F47455"/>
<path d="M22.9087 14.8905L11.0461 16.0222L11.3838 19.5623L23.2464 18.4307L22.9087 14.8905Z" fill="#F47455"/>
<path d="M10.2324 12.6862L12.9567 14.9321C13.227 15.1401 13.3934 15.4521 13.4142 15.8056C13.4766 16.5127 12.9567 17.1573 12.2496 17.1989C11.8961 17.2405 11.5633 17.1365 11.3138 16.9078C9.58769 15.5144 10.2324 12.6862 10.2324 12.6862Z" fill="#E0BB95"/>
<path d="M20.859 14.1619L23.1049 11.4376C23.1049 11.4376 24.2487 14.0995 22.8554 15.8048C22.6474 16.0751 22.3355 16.2415 21.9819 16.2623C21.2749 16.3247 20.6302 15.8048 20.5886 15.0977C20.5054 14.7442 20.6302 14.4114 20.859 14.1619Z" fill="#E0BB95"/>
<path d="M17.0219 20.3356C19.7207 20.3061 21.8846 18.0943 21.8551 15.3955C21.8256 12.6967 19.6138 10.5328 16.915 10.5623C14.2162 10.5919 12.0523 12.8036 12.0818 15.5024C12.1114 18.2012 14.3231 20.3651 17.0219 20.3356Z" fill="#E0BB95"/>
<path d="M19.7979 13.7853C19.7563 13.2446 19.2572 12.8495 18.7373 12.8911C18.1758 12.9327 17.7599 13.411 17.8431 13.9517" stroke="#332E2E" stroke-width="0.212121" stroke-miterlimit="10"/>
<path d="M15.8679 14.1813C15.8263 13.6406 15.3272 13.2455 14.8073 13.2871C14.2874 13.3287 13.8714 13.7862 13.913 14.3477" stroke="#332E2E" stroke-width="0.212121" stroke-miterlimit="10"/>
<path d="M14.2246 16.8623C14.1831 17.7774 14.8901 18.5676 15.8052 18.6092C16.7202 18.6508 17.5104 17.9437 17.552 17.0287L14.2246 16.8623Z" fill="white"/>
<path d="M16.3463 8.77363C17.8644 8.62805 19.1953 9.75105 19.3409 11.2484C19.3825 11.7475 19.0082 12.1842 18.5091 12.2466C18.01 12.2882 17.5732 11.9139 17.5109 11.4147C17.5524 11.9139 17.1781 12.3506 16.679 12.413C16.1799 12.4546 15.7432 12.0802 15.6808 11.5811C15.7224 12.0802 15.348 12.5169 14.8489 12.5793C14.3498 12.6209 13.9131 12.2466 13.8507 11.7475C13.7259 10.2294 14.8489 8.9192 16.3463 8.77363Z" fill="#F47455"/>
<path opacity="0.2" d="M23.3006 50.7418C32.5234 50.6962 39.9966 49.9703 39.9924 49.1203C39.9882 48.2704 32.5082 47.6183 23.2854 47.6639C14.0626 47.7095 6.58946 48.4354 6.59366 49.2853C6.59786 50.1352 14.0778 50.7873 23.3006 50.7418Z" fill="#332E2E"/>
<path d="M29.2807 28.01C28.844 21.3136 22.9171 20.6065 19.3401 21.9583" stroke="#32A658" stroke-width="2.5764" stroke-miterlimit="10" stroke-linecap="round"/>
<path d="M28.9264 32.9179C30.2931 32.9179 31.4011 31.8099 31.4011 30.4431C31.4011 29.0763 30.2931 27.9684 28.9264 27.9684C27.5596 27.9684 26.4516 29.0763 26.4516 30.4431C26.4516 31.8099 27.5596 32.9179 28.9264 32.9179Z" fill="#BF8F68"/>
<path d="M32.5048 28.4463C32.4216 29.091 31.8393 29.5069 31.1947 29.4237L27.0354 28.8414C26.3907 28.7583 25.9748 28.176 26.058 27.5313C26.1412 26.8866 26.7235 26.4707 27.3681 26.5539L31.5274 27.1362C32.1513 27.2401 32.588 27.8016 32.5048 28.4463Z" fill="white"/>
<path d="M12.6852 31.8989C7.54852 30.5472 7.04942 23.7884 13.7666 22.9566C13.829 22.9566 13.8914 22.9358 13.9538 22.9358C14.0162 22.9358 14.0577 22.915 14.1201 22.915" stroke="#2A8C4A" stroke-width="2.5764" stroke-miterlimit="10" stroke-linecap="round"/>
<path d="M14.9514 35.3511C16.3181 35.3511 17.4261 34.2431 17.4261 32.8763C17.4261 31.5095 16.3181 30.4016 14.9514 30.4016C13.5846 30.4016 12.4766 31.5095 12.4766 32.8763C12.4766 34.2431 13.5846 35.3511 14.9514 35.3511Z" fill="#BF8F68"/>
<path d="M14.5771 30.4436L12.9134 34.2909C12.6638 34.894 11.9775 35.1436 11.3952 34.894C10.7922 34.6445 10.5426 33.9582 10.7922 33.3759L12.4559 29.5286C12.7054 28.9255 13.3917 28.6759 13.974 28.9255C14.5771 29.175 14.8266 29.8405 14.5771 30.4436Z" fill="white"/>
</svg>
