<svg width="40" height="62" viewBox="0 0 40 62" fill="none" xmlns="http://www.w3.org/2000/svg">
<path d="M19.9904 10.4369C22.8724 10.4369 25.2087 8.1006 25.2087 5.21863C25.2087 2.33666 22.8724 0.000366211 19.9904 0.000366211C17.1085 0.000366211 14.7722 2.33666 14.7722 5.21863C14.7722 8.1006 17.1085 10.4369 19.9904 10.4369Z" fill="#F9F9F9"/>
<path d="M34.9829 40.3422L19.9904 10.4175L5.01801 40.3422H34.9829Z" fill="#FF3333"/>
<path d="M5.01801 40.3422H34.9829" stroke="#F9F9F9" stroke-width="10.0351" stroke-miterlimit="10" stroke-linecap="round"/>
<path d="M6.72345 54.9921V53.5671C6.72345 52.7643 6.0812 52.1221 5.27839 52.1221C4.77664 52.1221 4.35516 51.7006 4.35516 51.1988C4.35516 50.8175 4.59601 50.4562 4.95727 50.3358C6.00092 49.9545 8.46956 49.2721 12.6442 49.2721C15.2734 49.2721 17.0396 50.0348 18.1635 50.8777C19.2473 51.6805 20.7526 51.6805 21.8363 50.8777C22.9804 50.0348 24.7265 49.2721 27.3557 49.2721C31.5303 49.2721 33.9788 49.9545 35.0426 50.3358C35.4038 50.4763 35.6447 50.8175 35.6447 51.1988C35.6447 51.7006 35.2232 52.1221 34.7214 52.1221C33.9186 52.1221 33.2764 52.7643 33.2764 53.5671V54.9921L19.9899 54.089L6.72345 54.9921Z" fill="black"/>
<path d="M27.3555 49.2715C24.5858 49.2314 22.2376 51.0377 21.4749 53.5465C21.0735 53.2053 20.5517 53.0046 19.9897 53.0046C19.4278 53.0046 18.906 53.2053 18.5046 53.5465C17.7419 51.0377 15.3937 49.2314 12.624 49.2715C9.49301 49.3317 6.86381 51.8606 6.70325 54.9715C6.52261 58.4436 9.29231 61.3337 12.7243 61.3337C16.0359 61.3337 18.7253 58.6644 18.7655 55.3729C18.7655 54.7306 19.207 54.1687 19.8493 54.0884C20.5919 54.0081 21.214 54.5901 21.214 55.2926C21.214 58.6243 23.9235 61.3337 27.2552 61.3337C30.6872 61.3337 33.4569 58.4436 33.2763 54.9715C33.1157 51.8606 30.4865 49.3317 27.3555 49.2715Z" fill="black"/>
<path d="M12.7446 60.2696C15.4825 60.2696 17.7019 58.0501 17.7019 55.3122C17.7019 52.5743 15.4825 50.3549 12.7446 50.3549C10.0067 50.3549 7.78723 52.5743 7.78723 55.3122C7.78723 58.0501 10.0067 60.2696 12.7446 60.2696Z" fill="#332E2E"/>
<path d="M27.2553 60.2696C29.9931 60.2696 32.2126 58.0501 32.2126 55.3122C32.2126 52.5743 29.9931 50.3549 27.2553 50.3549C24.5174 50.3549 22.2979 52.5743 22.2979 55.3122C22.2979 58.0501 24.5174 60.2696 27.2553 60.2696Z" fill="#332E2E"/>
</svg>
