<svg width="40" height="46" viewBox="0 0 40 46" fill="none" xmlns="http://www.w3.org/2000/svg">
<path d="M0.441162 40.9206L13.4559 37.5382H20H26.4706L39.4853 40.9206L20 1.87646L0.441162 40.9206Z" fill="#F5A816"/>
<g opacity="0.1">
<path opacity="0.1" d="M20 37.5382H26.4706L39.5588 40.9206L20 1.87646V37.5382Z" fill="#231F20"/>
</g>
<g opacity="0.2">
<path opacity="0.2" d="M20 37.5382H26.4706L20 1.87646V37.5382Z" fill="#231F20"/>
</g>
<path d="M30.2206 27.7588C30.1471 27.7588 30.0735 27.7588 30 27.7588L20.2206 24.45C19.853 24.303 19.7059 23.9353 19.7794 23.6412C19.9265 23.2736 20.2941 23.1265 20.5883 23.2L30.3677 26.5088C30.7353 26.6559 30.8824 27.0236 30.8088 27.3177C30.7353 27.6118 30.5147 27.7588 30.2206 27.7588Z" fill="#808080"/>
<path d="M9.77939 27.7588C9.48527 27.7588 9.26468 27.6117 9.11763 27.3176C9.0441 26.9499 9.19116 26.5823 9.5588 26.5088L20.6617 23.1264C21.0294 23.0529 21.397 23.1999 21.4706 23.5676C21.5441 23.9352 21.397 24.3029 21.0294 24.3764L9.92645 27.6852C9.85292 27.7588 9.85292 27.7588 9.77939 27.7588Z" fill="#808080"/>
<path d="M24.1176 15.3324H16.25V16.6559H24.1176V15.3324Z" fill="#424242"/>
<path d="M16.0294 17.5382C16.0294 19.6705 17.7941 21.4352 19.9265 21.4352C22.0588 21.4352 23.8235 19.6705 23.8235 17.5382C23.8235 15.4058 22.0588 13.6411 19.9265 13.6411C17.7941 13.6411 16.0294 15.3323 16.0294 17.5382Z" fill="#9B643D"/>
<path d="M16.0294 29.303C16.0294 31.4353 17.7941 33.1265 19.9265 33.1265C22.0588 33.1265 23.8235 31.4353 23.8235 29.303V24.8177C23.8235 22.6853 22.0588 20.9941 19.9265 20.9941C17.7941 20.9941 16.0294 22.6853 16.0294 24.8177V29.303V29.303Z" fill="#4CAF50"/>
<path d="M24.1176 27.7588H16.25V29.7441H24.1176V27.7588Z" fill="#424242"/>
<path d="M21.3236 27.9794H18.6765V29.7441H21.3236V27.9794Z" fill="#FFD200"/>
<path d="M23.897 17.0971L25.147 15.4059C25.147 15.4059 25.8823 19.7441 23.4559 19.2294L23.897 17.0971Z" fill="#9B643D"/>
<path d="M16.4706 17.0971L15.2206 15.4059C15.2206 15.4059 14.4853 19.7441 16.9118 19.2294L16.4706 17.0971Z" fill="#9B643D"/>
<path d="M24.1177 15.3324L22.7941 16.6559V17.9795L24.1177 16.6559V15.3324Z" fill="#424242"/>
<path d="M16.25 15.3324L17.5735 16.6559V17.9795L16.25 16.6559V15.3324Z" fill="#424242"/>
<path d="M23.4559 14.0088C23.4559 14.0088 22.5735 7.53823 13.0147 10.1118C13.0147 10.1118 18.6765 12.6118 17.0588 14.45L23.4559 14.0088Z" fill="#4CAF50"/>
<path d="M15.6617 14.7441C15.6617 15.0382 15.8823 15.3323 16.1764 15.3323H24.2647C24.5588 15.3323 24.7794 15.1118 24.7794 14.7441V13.7147C24.7794 13.4206 24.5588 13.1265 24.2647 13.1265H16.1764C15.8823 13.1265 15.6617 13.3471 15.6617 13.7147V14.7441Z" fill="white"/>
<path d="M11.6912 10.1117C11.6912 10.847 12.2795 11.4353 13.0148 11.4353C13.75 11.4353 14.3383 10.847 14.3383 10.1117C14.3383 9.37644 13.75 8.78821 13.0148 8.78821C12.2795 8.78821 11.6912 9.37644 11.6912 10.1117Z" fill="white"/>
<path d="M17.5735 17.3175C17.5735 18.0528 18.1618 18.6411 18.8971 18.6411C19.6324 18.6411 20.2206 18.0528 20.2206 17.3175C20.2206 16.5823 19.6324 15.994 18.8971 15.994C18.1618 15.994 17.5735 16.5823 17.5735 17.3175Z" fill="#81D4FA"/>
<path d="M18.897 18.7882C18.0882 18.7882 17.4265 18.1265 17.4265 17.3176C17.4265 16.5088 18.0882 15.847 18.897 15.847C19.7059 15.847 20.3676 16.5088 20.3676 17.3176C20.3676 18.1265 19.7059 18.7882 18.897 18.7882ZM18.897 16.1412C18.2353 16.1412 17.7206 16.6559 17.7206 17.3176C17.7206 17.9794 18.2353 18.4941 18.897 18.4941C19.5588 18.4941 20.0735 17.9794 20.0735 17.3176C20 16.6559 19.4853 16.1412 18.897 16.1412Z" fill="#424242"/>
<path d="M20.2206 17.3175C20.2206 18.0528 20.8088 18.6411 21.5441 18.6411C22.2794 18.6411 22.8676 18.0528 22.8676 17.3175C22.8676 16.5823 22.2794 15.994 21.5441 15.994C20.8088 15.994 20.2206 16.5823 20.2206 17.3175Z" fill="#81D4FA"/>
<path d="M21.4706 18.7882C20.6618 18.7882 20 18.1265 20 17.3176C20 16.5088 20.6618 15.847 21.4706 15.847C22.2794 15.847 22.9412 16.5088 22.9412 17.3176C22.9412 18.1265 22.2794 18.7882 21.4706 18.7882ZM21.4706 16.1412C20.8088 16.1412 20.2941 16.6559 20.2941 17.3176C20.2941 17.9794 20.8088 18.4941 21.4706 18.4941C22.1324 18.4941 22.6471 17.9794 22.6471 17.3176C22.6471 16.6559 22.1324 16.1412 21.4706 16.1412Z" fill="#424242"/>
<path d="M30.2206 28.4941H9.77944C9.41179 28.4941 9.11768 28.1265 9.11768 27.7589C9.11768 27.3912 9.41179 27.0236 9.77944 27.0236H30.2206C30.5883 27.0236 30.8824 27.3912 30.8824 27.7589C30.8824 28.1265 30.5883 28.4941 30.2206 28.4941Z" fill="#BDBDBD"/>
<path d="M12.3529 27.3913C12.2794 27.3913 12.1323 27.3913 12.0588 27.3177C11.5441 27.1707 11.25 26.5824 11.397 26.0677C11.7647 24.9648 12.9412 23.1265 16.8382 22.7589C17.3529 22.6854 17.8676 23.1265 17.8676 23.6413C17.9412 24.156 17.5 24.6707 16.9853 24.6707C14.9265 24.8913 13.6029 25.553 13.2353 26.5824C13.1618 27.1707 12.7941 27.3913 12.3529 27.3913Z" fill="#4CAF50"/>
<path d="M25.0735 24.8912C24.5588 24.8912 23.9706 24.8177 23.3823 24.7441C22.8676 24.6706 22.5 24.1559 22.5735 23.6412C22.647 23.1265 23.1618 22.7588 23.6765 22.8324C27.4265 23.3471 28.4559 22.1706 29.4118 19.303C29.5588 18.7883 30.147 18.4941 30.6618 18.7147C31.1765 18.8618 31.4706 19.45 31.25 19.9647C30.2206 22.9794 28.75 24.8912 25.0735 24.8912Z" fill="#4CAF50"/>
<path d="M11.0294 26.8029C11.0294 27.6852 11.7647 28.4205 12.6471 28.4205C13.5294 28.4205 14.2647 27.6852 14.2647 26.8029C14.2647 25.9205 13.5294 25.1852 12.6471 25.1852C11.7647 25.1117 11.0294 25.847 11.0294 26.8029Z" fill="#9B643D"/>
<path d="M28.9706 19.7441C28.9706 20.6265 29.7059 21.3618 30.5882 21.3618C31.4706 21.3618 32.2059 20.6265 32.2059 19.7441C32.2059 18.8618 31.4706 18.1265 30.5882 18.1265C29.7059 18.1265 28.9706 18.8618 28.9706 19.7441Z" fill="#9B643D"/>
<path d="M19.2059 38.9852C19.2059 38.4705 18.6176 38.0293 18.1029 38.0293C17.5882 38.0293 17 38.4705 17 38.9852C17 39.2058 17 41.9999 17 42.2205C17 42.7352 17.5882 44.4999 18.1029 44.4999C18.6176 44.4999 19.2059 42.8087 19.2059 42.294C19.2059 41.9999 19.2059 39.2793 19.2059 38.9852Z" fill="#424242"/>
<path d="M19.2059 36.4117H17C17 36.4117 17 38.8382 17 38.9853C17 39.5 17.5882 39.9412 18.1029 39.9412C18.6176 39.9412 19.2059 39.5 19.2059 38.9853C19.2059 38.9117 19.2059 36.4117 19.2059 36.4117Z" fill="#EEEEEE"/>
<path d="M19.2059 32H17C17 32 17 36.2647 17 36.4118C17 36.9265 17.5882 37.3676 18.1029 37.3676C18.6176 37.3676 19.2059 36.9265 19.2059 36.4118C19.2059 36.2647 19.2059 32 19.2059 32Z" fill="#4CAF50"/>
<path d="M22.147 38.9852C22.147 38.4705 21.5588 38.0293 21.0441 38.0293C20.5294 38.0293 19.9412 38.4705 19.9412 38.9852C19.9412 39.2058 19.9412 41.9999 19.9412 42.2205C19.9412 42.7352 20.5294 44.4999 21.0441 44.4999C21.5588 44.4999 22.147 42.8087 22.147 42.294C22.147 41.9999 22.147 39.2793 22.147 38.9852Z" fill="#424242"/>
<path d="M22.1323 36.5824H19.9265C19.9265 36.5824 19.9265 39.0089 19.9265 39.1559C19.9265 39.6706 20.5147 40.1118 21.0294 40.1118C21.5441 40.1118 22.1323 39.6706 22.1323 39.1559C22.1323 39.0824 22.1323 36.5824 22.1323 36.5824Z" fill="#EEEEEE"/>
<path d="M22.147 32H19.9412C19.9412 32 19.9412 36.2647 19.9412 36.4118C19.9412 36.9265 20.5294 37.3676 21.0441 37.3676C21.5588 37.3676 22.147 36.9265 22.147 36.4118C22.147 36.2647 22.147 32 22.147 32Z" fill="#4CAF50"/>
</svg>
