<svg width="40" height="50" viewBox="0 0 40 50" fill="none" xmlns="http://www.w3.org/2000/svg">
<path d="M19.9961 10.7575C22.7879 10.7575 25.0511 8.49426 25.0511 5.70246C25.0511 2.91066 22.7879 0.647461 19.9961 0.647461C17.2043 0.647461 14.9411 2.91066 14.9411 5.70246C14.9411 8.49426 17.2043 10.7575 19.9961 10.7575Z" fill="white"/>
<path d="M34.5114 27.7769C34.5114 27.7769 33.723 10.7569 19.9956 10.7569C6.2683 10.7569 5.43353 27.7769 5.43353 27.7769H34.5114Z" fill="#FF7733"/>
<path d="M33.8627 34.7815C32.054 34.7815 30.3845 33.6221 29.7816 31.8135C28.4367 27.5005 24.4947 24.6252 19.9963 24.6252C15.4978 24.6252 11.5558 27.5005 10.2109 31.8135C9.51524 34.0395 7.10368 35.2917 4.87763 34.596C2.65157 33.9004 1.39942 31.4888 2.09506 29.2628C4.55299 21.3788 11.7877 16.0919 20.0426 16.0919C28.2976 16.0919 35.5323 21.3788 37.9902 29.2628C38.6858 31.4888 37.4337 33.9004 35.2076 34.596C34.6975 34.7352 34.2801 34.7815 33.8627 34.7815Z" fill="white"/>
<path d="M39.2427 24.7189L31.8226 32.1391C31.1269 32.8347 30.7095 33.8086 30.7095 34.8752C30.7095 37.0086 32.4254 38.7245 34.5588 38.7245C35.6254 38.7245 36.5993 38.3071 37.2949 37.6114C41.8862 32.9274 39.2427 24.7189 39.2427 24.7189Z" fill="#E0BB95"/>
<path d="M8.17034 32.1378L0.750156 24.7177C0.750156 24.7177 -1.89328 32.9262 2.74433 37.5638C3.43997 38.2595 4.41387 38.6769 5.48052 38.6769C7.61383 38.6769 9.32974 36.961 9.32974 34.8276C9.28337 33.8074 8.86598 32.8335 8.17034 32.1378Z" fill="#E0BB95"/>
<path d="M19.996 49.3899C28.0128 49.3899 34.5117 42.891 34.5117 34.8742C34.5117 26.8574 28.0128 20.3585 19.996 20.3585C11.9792 20.3585 5.48029 26.8574 5.48029 34.8742C5.48029 42.891 11.9792 49.3899 19.996 49.3899Z" fill="#E0BB95"/>
<path d="M17.0272 30.6997C17.0272 32.3229 15.7286 33.6214 14.1055 33.6214C12.4823 33.6214 11.1838 32.3229 11.1838 30.6997C11.1838 29.0765 12.4823 27.778 14.1055 27.778C15.7286 27.778 17.0272 29.0765 17.0272 30.6997Z" fill="#332E2E"/>
<path d="M28.8068 30.699C28.8068 32.3221 27.5083 33.6207 25.8851 33.6207C24.262 33.6207 22.9634 32.3221 22.9634 30.699C22.9634 29.0758 24.262 27.7773 25.8851 27.7773C27.4619 27.7773 28.8068 29.0758 28.8068 30.699Z" fill="#332E2E"/>
<path d="M27.6482 37.7032C27.6482 41.9235 24.2164 45.3553 19.9962 45.3553C15.776 45.3553 12.3441 41.9235 12.3441 37.7032H27.6482Z" fill="white"/>
<path d="M28.0654 37.0082C25.7466 37.0082 23.5669 35.8488 22.2684 33.9474L22.222 33.8547C21.7119 33.1126 20.8771 32.6489 19.9496 32.6489C19.0221 32.6489 18.1873 33.1126 17.6772 33.8547L17.6308 33.901C16.3323 35.8488 14.1062 36.9619 11.741 36.9619C10.3497 36.9619 9.00484 36.5445 7.89181 35.8025L7.70631 35.6633C6.03677 34.5039 5.06287 32.6025 5.06287 30.562V27.9649C5.06287 26.2026 6.50053 24.7186 8.3092 24.7186H31.59C33.3523 24.7186 34.8363 26.1562 34.8363 27.9649V30.562C34.8363 32.6025 33.8161 34.5503 32.1465 35.7097L32.0538 35.7561C30.8944 36.5909 29.5031 37.0082 28.0654 37.0082Z" fill="#6F00FF"/>
<path d="M19.997 25.4141H31.6374C33.0287 25.4141 34.1417 26.5271 34.1417 27.9184V30.5154C34.1417 32.3241 33.2606 34.04 31.7765 35.1067L31.6838 35.153C30.6171 35.8951 29.365 36.2661 28.1128 36.2661C26.0259 36.2661 24.0781 35.2458 22.9187 33.5299L22.8723 33.4371C22.223 32.5096 21.1564 31.9531 20.0434 31.9531C18.9303 31.9531 17.8637 32.5096 17.2144 33.4371L17.168 33.4835C15.9623 35.2458 14.0145 36.2661 11.8812 36.2661C10.629 36.2661 9.42324 35.8951 8.44934 35.1994C8.40296 35.153 8.31021 35.1067 8.26383 35.0603C6.77979 34.04 5.89865 32.3241 5.89865 30.5154V27.9184C5.89865 26.5271 7.01167 25.4141 8.40296 25.4141H19.997V25.4141ZM19.997 24.0228H8.35658C6.17691 24.0228 4.41461 25.7851 4.41461 27.9647V30.5618C4.41461 32.8342 5.52764 34.9675 7.38268 36.2661C7.47544 36.3124 7.52181 36.3588 7.61456 36.4052C8.9131 37.2863 10.3971 37.7037 11.8348 37.7037C14.3391 37.7037 16.797 36.4979 18.2811 34.3183L18.3275 34.2719C18.7448 33.669 19.3477 33.3907 19.997 33.3907C20.6463 33.3907 21.2955 33.669 21.6665 34.2719L21.7129 34.3646C23.1969 36.5443 25.6085 37.7037 28.0664 37.7037C29.5969 37.7037 31.1273 37.24 32.4258 36.3588C32.4722 36.3588 32.4722 36.3124 32.5186 36.3124C34.3736 35.0139 35.4866 32.8806 35.4866 30.6082V28.0111C35.4866 25.8314 33.7243 24.0691 31.5447 24.0691L19.997 24.0228Z" fill="black"/>
</svg>
