<svg width="30" height="76" viewBox="0 0 30 76" fill="none" xmlns="http://www.w3.org/2000/svg">
<g clip-path="url(#clip0)">
<path opacity="0.1" d="M16.2255 1.39242C8.63055 1.4442 2.52008 7.62372 2.57186 15.2187C2.60638 20.1381 5.23009 24.4361 9.13112 26.8355C8.99303 27.4914 8.92399 28.1818 8.97577 28.8895L11.8757 62.618C12.0655 64.7929 13.222 66.588 14.7928 67.3821C14.6892 69.4707 14.4994 71.6974 14.1369 72.9057C13.878 73.8032 14.3785 74.7353 15.2761 75.0115C15.7594 75.1496 16.26 75.0633 16.6398 74.8216C16.985 74.6145 17.2439 74.2693 17.3647 73.855C17.8308 72.2842 18.0552 69.7123 18.1587 67.4684C19.8503 66.7261 21.0931 64.8619 21.2658 62.5662L23.7514 28.8032C23.8032 28.0783 23.7341 27.3878 23.5788 26.7491C27.4625 24.2981 30.0345 19.9827 29.9999 15.046C29.9999 7.46837 23.8204 1.34063 16.2255 1.39242Z" fill="black"/>
<path d="M14.1024 73.9758C13.7054 74.2175 13.2048 74.3038 12.7388 74.1657C11.8412 73.9068 11.3234 72.9574 11.5995 72.0598C12.2555 69.8504 12.359 64.2578 12.3418 62.29C12.3418 61.3579 13.084 60.5984 14.0161 60.5811C14.9482 60.5811 15.7077 61.3234 15.725 62.2555C15.725 63.0322 15.7422 69.9194 14.8446 72.9919C14.7066 73.4407 14.4304 73.7687 14.1024 73.9758Z" fill="#333333"/>
<path d="M14.0506 66.9851C16.4844 66.9678 18.5213 64.6893 18.7284 61.7377L21.2313 27.9575C21.4902 24.557 19.2808 21.6226 16.4844 21.6398L11.0989 21.6744C8.30263 21.6916 6.12772 24.6606 6.42116 28.061L9.32104 61.7894C9.5627 64.7411 11.6168 66.9851 14.0506 66.9851Z" fill="#505050"/>
<path d="M23.3717 35.069C23.3199 35.1036 23.2681 35.1208 23.2336 35.1553C17.6928 37.8999 9.26928 38.5558 3.86651 33.4983C3.17607 32.8596 3.14154 31.7894 3.78021 31.099C4.41887 30.4258 5.48907 30.374 6.17952 31.0127C9.14845 33.7917 15.2762 35.3107 21.7319 32.1174C22.5777 31.7031 23.5788 32.0483 23.9931 32.8769C24.3901 33.6709 24.1139 34.6202 23.3717 35.069Z" fill="#8C8C8C"/>
<path opacity="0.1" d="M16.4672 21.6398H15.2934C16.7952 22.7446 17.7618 24.7986 17.5892 27.1117L15.1036 60.8746C14.9137 63.4293 13.3774 65.4661 11.4097 65.9839C12.1692 66.6053 13.084 66.9851 14.0679 66.9678C16.5017 66.9505 18.5386 64.6721 18.7457 61.7204L21.2313 27.9575C21.473 24.557 19.2635 21.6226 16.4672 21.6398Z" fill="black"/>
<path d="M13.7399 28.0265C21.3283 28.0265 27.4799 21.8749 27.4799 14.2866C27.4799 6.69821 21.3283 0.546631 13.7399 0.546631C6.15158 0.546631 0 6.69821 0 14.2866C0 21.8749 6.15158 28.0265 13.7399 28.0265Z" fill="#333333"/>
<path opacity="0.1" d="M17.1921 0.995361C20.7652 3.46372 23.1127 7.55462 23.1473 12.2324C23.199 19.8273 17.0713 26.0069 9.49364 26.0586C8.26809 26.0586 7.09433 25.9033 5.97235 25.6099C8.19905 27.1461 10.9091 28.0437 13.8435 28.0264C21.4384 27.9746 27.5489 21.7951 27.4971 14.2002C27.4453 7.8308 23.061 2.51435 17.1921 0.995361Z" fill="black"/>
</g>
<defs>
<clipPath id="clip0">
<rect width="30" height="74.5339" fill="white" transform="translate(0 0.546631)"/>
</clipPath>
</defs>
</svg>
