<svg width="36" height="74" viewBox="0 0 36 74" fill="none" xmlns="http://www.w3.org/2000/svg">
<path d="M35.9995 52.5244H1.88232V73.8593H35.9995V52.5244Z" fill="#FEDC00"/>
<path d="M13.735 62.0531V52.5244H11.0391V62.0531H1.88232V64.7955H11.0391V73.8593H13.735V64.7955H35.9995V62.0531H13.735Z" fill="#F28835"/>
<path d="M36 52.5247H26.146V73.8595H36V52.5247Z" fill="#3F3F3F" fill-opacity="0.25"/>
<path d="M6.15941 11.016C8.90181 11.016 11.1794 12.3175 11.4118 13.9908C11.6907 11.7597 14.712 9.99346 18.384 9.99346C21.963 9.99346 24.8913 11.6668 25.3097 13.8049C25.728 12.2246 27.8661 11.0625 30.5156 11.0625C32.9326 11.0625 34.9778 12.0851 35.582 13.4331C35.0707 5.90311 27.5408 0 18.291 0C9.04125 0 1.46481 5.99608 1 13.526C1.51129 12.0851 3.64943 11.016 6.15941 11.016Z" fill="white"/>
<path d="M1.13806 13.4339L18.708 52.3852L35.3947 13.3409" stroke="white" stroke-width="0.386027" stroke-miterlimit="10" stroke-linecap="round"/>
<path d="M1.13806 13.4339L18.708 52.3852L35.3947 13.3409" stroke="white" stroke-width="0.386027" stroke-miterlimit="10" stroke-linecap="round"/>
<path d="M11.3185 13.6199L18.7555 51.6881L25.3559 13.527" stroke="white" stroke-width="0.386027" stroke-miterlimit="10" stroke-linecap="round"/>
</svg>
