<svg width="44" height="45" viewBox="0 0 44 45" fill="none" xmlns="http://www.w3.org/2000/svg">
<g clip-path="url(#clip0)">
<path d="M7.90369 0.0649414H30.5555V39.502H7.90369V0.0649414ZM7.90369 0.0649414H30.5555V39.502H7.90369V0.0649414Z" fill="#F6F3EF"/>
<path d="M10.837 2.18359H28.5185V37.4651H10.837V2.18359Z" fill="#81D4FA"/>
<path d="M18.9852 3.81292V3.8944V3.81292ZM22.2444 12.5314V12.6944L22.8963 12.9388L23.3037 12.6944L23.3852 12.5314L23.4667 12.6129H23.5481L23.7111 12.124L23.6296 11.9611H23.5481V11.7166L23.4667 11.6351L23.3852 11.7166L23.3037 11.6351H23.2222L23.1407 11.7166V11.7981H22.8963V11.7166L22.7333 11.7981V11.8796L22.6518 11.7981L22.5704 11.9611L22.4889 11.8796H22.5704L22.2444 11.6351H22.163V11.7981H22.0815V11.8796H22L21.9185 12.124H22.3259L22.0815 12.3685V12.45L22.2444 12.3685L22.3259 12.5314H22.2444V12.5314ZM19.3926 3.07959H19.2296V3.16107H19.3111L19.3926 3.07959ZM27.9481 5.36107L27.7852 5.44255L27.8667 5.68699H27.9481L28.0296 5.76848H27.8667L27.9481 6.0944L28.1111 6.17588V6.25736L28.2741 6.50181H28.3556L28.5185 6.0944V5.1981H28.1111L27.9481 5.36107ZM17.3556 3.24255H17.1111L16.3778 3.32403L17.1111 3.24255H17.3556ZM21.4296 2.83514L21.3481 2.75366L21.4296 2.83514ZM19.0667 3.8944V3.73144L18.9037 3.24255V3.32403L18.9852 3.8944H19.0667ZM19.2296 3.16107H18.9037V3.24255L19.2296 3.16107ZM21.2667 2.75366V2.5907V2.75366H21.3481H21.2667ZM13.7704 21.8203L13.6889 22.0648H13.7704V22.1463L13.8518 22.2277L13.9333 22.0648H13.8518V21.9833L13.7704 21.8203ZM13.6889 23.124L14.0963 23.2055L14.1778 23.124L14.0963 23.0425L13.7704 22.9611L13.6889 23.124ZM14.3407 22.3092L14.4222 22.4722L14.5037 22.3092H14.3407ZM19.963 11.9611H20.2889L20.3704 11.7981H20.5333V11.7166L20.6963 11.2277L21.1852 11.0648V10.9833L22 10.5759L22.3259 10.4129H22.7333V10.25H22.3259L22.4074 10.0055H22.5704V9.43514H22.4889V9.35366H22.8148V9.27218H22.6518L22.5704 8.94625H22.4889V8.78329L22.3259 8.70181L22.7333 8.53885V8.21292H22.6518L22.8963 8.13144L22.9778 7.96847L22.8148 7.64255H22.6518V7.47959L22.7333 7.3981L22.8148 7.47959L23.3037 7.56107L23.2222 7.3981H23.1407V7.31662H22.8963V7.07218L22.7333 6.9907L22.8963 6.90922L22.8148 6.82773L22.4889 6.50181L22.6518 6.42033V6.33885L23.1407 6.42033V5.84996L22.6518 5.76848L22.8148 5.68699L22.9778 5.76848L23.0593 5.68699V5.60551L22.7333 5.52403L22.5704 5.44255V5.76848H22.163V5.11662L22.4074 5.03514H22.2444L21.837 4.95366H22L22.0815 4.87218H22.8148V4.70922L22.7333 4.7907L22.9778 4.54625L22.7333 4.22033L22.4074 4.13885H22.2444V3.8944V3.97588V3.73144H22.0815H22.2444H22.163V3.64996L22.2444 3.56848H22.3259L22 3.32403H21.7556V3.40551L21.5111 3.32403H21.5926V3.24255L21.6741 3.32403L21.7556 3.24255L21.6741 3.07959L20.7778 3.16107V3.24255L20.6963 3.16107L20.2889 3.07959H20.2074H20.2889V2.9981V3.07959H20.2074V2.9981L20.4518 2.91662H21.0222L21.2667 2.83514V2.75366L21.1037 2.67218H21.0222L20.8593 2.42773L20.6963 2.5907L20.4518 2.50922L20.5333 2.42773L20.2074 2.50922H20.1259L20.0444 2.5907H19.963V2.75366L19.8815 2.67218H19.4741L19.3926 2.75366H19.3111V2.83514L19.3926 2.91662V2.9981H19.637H19.3926V3.07959L19.3111 3.16107V3.64996L19.3926 3.73144L19.3111 3.81292H19.1481L19.0667 3.56848L18.9037 3.16107H18.7407V3.73144L18.6593 3.64996V3.73144H18.5778L18.4963 3.48699L17.8444 3.81292L18.0074 3.56848V3.48699L18.0889 3.07959H17.9259V3.24255L17.8444 3.16107L17.763 3.24255H17.1111V3.32403L17.0296 3.40551V3.64996L16.8667 3.81292L16.7037 3.97588L16.6222 3.81292H16.5407L16.4593 4.22033V3.81292L16.2148 3.97588H16.1333L15.9704 4.05736L15.8889 4.13885V4.22033L15.8074 4.30181H15.0741H15.7259L15.4 4.46477H15.0741H15.7259L15.9704 4.54625V4.62773H16.1333L15.8889 4.95366H15.0741L14.7481 5.03514H14.5037L14.5852 5.11662L14.5037 5.1981H14.5852V5.27959L14.9111 5.60551V5.68699H14.9926V5.76848L15.563 5.68699V5.76848H15.4815L15.4 5.68699L14.7481 6.01292V6.17588L14.9111 6.33885V6.42033H15.0741L14.9926 6.66477L15.563 7.07218V6.82773H15.6444L15.7259 6.90922L16.0519 6.66477L16.7037 7.15366L16.9481 7.64255H17.0296V7.88699L17.2741 8.62033L17.1926 8.70181L17.2741 8.78329L17.1926 9.1907H17.2741V9.27218H17.3556L17.2741 9.35366L17.3556 9.5981L17.6815 9.51662V9.35366V9.43514H17.763L17.6815 9.51662H17.8444L17.9259 9.76107L17.437 9.67959H17.5185L17.6 9.76107L17.5185 9.92403L17.437 10.0055V10.087L17.5185 10.1685L17.6815 10.25L17.9259 10.0055L17.8444 9.84255H18.0074V10.0055L17.8444 10.7388H17.6815L17.6 10.9018H17.5185H17.6V10.9833L17.5185 11.3907L17.6 11.4722L17.5185 11.6351L17.6 11.9611L17.6815 12.0425L17.763 12.3685H17.8444V12.6129H17.9259L18.0074 12.7759V12.8574L18.0889 13.1018L18.1704 13.3463V13.4277L18.2518 13.5092V13.5907L18.4148 13.7537H18.4963V13.8351H18.5778L18.8222 13.7537V13.9166L18.9037 14.0796H19.0667V13.9981V14.0796H19.1481V13.9981H19.2296L19.3926 13.1833L19.5556 13.1018L19.637 12.6129H19.7185L19.637 12.45H19.7185L19.8 12.287L19.7185 12.2055H19.963C19.963 12.2055 19.963 11.9611 19.963 11.9611ZM21.1037 4.87218L21.1852 4.7907L21.1037 4.87218ZM22.0815 8.37588L22.2444 8.45736L22.0815 8.37588ZM22.0815 10.0055L21.837 9.92403L22 9.84255V9.76107L22.0815 10.0055ZM21.837 5.11662H22H21.837ZM22.0815 3.8944L22 4.30181V4.46477V4.22033L21.837 4.46477H21.7556L21.6741 4.54625H21.5111L21.3481 4.62773L21.2667 4.70922L21.4296 4.54625L21.5926 3.97588L21.7556 4.05736L21.837 3.97588V3.8944H21.5926L21.5111 4.13885H21.4296L21.3481 4.05736L21.0222 4.13885V4.05736L21.1852 3.97588V3.8944L21.3481 3.73144H22.0815V3.8944ZM21.1852 3.8944H21.0222L20.9407 3.73144L21.1852 3.8944ZM20.2889 4.05736L20.6963 3.81292H20.6148H20.6963L20.8593 3.73144L20.6963 3.97588L20.2889 4.05736L20.3704 4.13885L20.2889 4.05736ZM19.5556 3.48699L19.4741 3.24255L19.5556 3.32403H19.637L19.7185 3.40551V3.48699C19.7185 3.48699 19.5556 3.48699 19.5556 3.48699ZM13.9333 21.8203L14.0148 21.6574L13.9333 21.5759V21.6574H13.8518V21.5759H13.6889L13.6074 21.6574L13.6889 21.7388H13.8518L13.9333 21.8203ZM13.9333 13.0203V12.8574L13.7704 12.7759L13.6889 12.8574L13.7704 13.0203H13.9333ZM15.4 23.124H15.7259V23.0425L15.4 23.124ZM14.4222 22.7166L14.1778 22.6351L13.9333 22.4722V22.3907L13.6889 22.3092L13.5259 22.2277L12.7926 22.3092L12.7111 22.4722V22.5537L12.9556 22.4722V22.6351L13.1185 22.5537L13.037 22.4722L13.1185 22.3907L13.8518 22.7981H13.7704V22.8796L14.4222 22.7981V22.7166ZM12.9556 13.1018L12.8741 13.3463H13.037L13.2815 13.1018L13.2 13.0203H13.1185L12.9556 13.1018ZM27.0519 18.8055L26.9704 19.2129L27.0519 19.3759H27.1333L27.2148 19.2944L27.2963 18.8055H27.2148V18.3981H27.1333V18.4796L27.0519 18.5611V18.8055ZM26.4815 19.05H26.237L26.0741 19.2129L26.237 19.2944H26.3185L26.4 19.1314L26.4815 19.05C26.4815 19.05 26.4815 19.1314 26.4815 19.05ZM25.9111 19.2944H26.0741V19.2129H25.9926L25.9111 19.2944ZM14.4222 22.7166L14.5852 22.6351V22.5537L14.4222 22.7166ZM14.4222 23.2055H14.6667L14.7481 23.287H14.8296L14.9111 23.2055L15.3185 23.124V22.9611L14.5037 22.7981L14.4222 22.8796L14.5037 22.9611L14.3407 23.0425V23.124L14.4222 23.2055ZM28.437 31.6796L28.5185 31.5166L28.437 31.5981V31.6796ZM28.1111 20.5981L27.5407 20.4351L27.4593 20.3537H27.3778L27.5407 20.1092V20.0277L27.4593 19.8648L27.5407 19.7018L27.4593 19.6203H27.3778L27.2963 19.5388L25.0963 19.9463L25.0148 19.8648L25.5037 19.7833L25.5852 19.6203H25.6667L25.8296 19.3759V19.2944H25.7481L26.3185 18.724V18.5611L26.4 18.4796L26.7259 18.5611L27.1333 18.3166L27.2963 18.3981L27.4593 18.724H27.5407L27.7852 18.9685H27.8667L27.9481 19.1314H28.0296L28.1926 19.4574V19.5388L27.6222 19.4574V19.6203L28.0296 19.7833L28.1111 19.7018V19.5388H28.1926L28.3556 19.1314L28.2741 19.05V18.9685L28.3556 19.05V18.887L28.1111 18.724V18.6425L28.0296 18.5611H27.8667L27.4593 17.9907V17.8277L27.5407 17.7463L27.6222 17.9092H27.7037L27.7852 18.0722L28.1111 18.2351L28.2741 18.3981V15.3833L27.9481 15.7907L27.8667 15.6277H27.7852L27.7037 15.7092H27.6222V15.6277L27.7037 15.5463H27.9481V15.6277H28.0296V15.5463L27.9481 15.4648V15.3018L28.2741 15.2203L28.3556 14.9759V14.8944L28.437 14.4055H28.5185V13.7537H28.437V13.5092H28.5185V10.3314H28.437L28.3556 10.4944H28.2741L28.1111 10.6574H28.0296L27.8667 10.9018L27.9481 10.9833L27.8667 11.0648V11.1463L28.0296 11.0648L27.9481 11.2277V11.3092L27.7037 11.7166V11.7981L27.6222 11.8796V12.2055L27.5407 12.287V12.3685L27.2963 12.6944L27.2148 12.6129L27.1333 12.6944V12.7759L26.8074 13.0203L26.7259 13.1018H26.6444L26.563 13.1833H26.4L26.4815 13.9981L26.4 14.0796V14.1611H26.4815V14.324L26.7259 14.5685H26.8889L27.2148 14.2425H27.2963V14.1611L27.3778 14.487L27.5407 14.8944L27.4593 14.9759H27.3778L27.2963 15.0574L27.3778 14.9759V14.8944H27.2963V14.5685L27.2148 14.487L26.8074 14.7314V15.2203L26.8889 15.3018V15.6277L26.8074 15.7907V15.8722L26.4815 15.9537L26.3185 16.3611V16.4425L25.9926 16.524V16.4425H25.9111L25.9926 16.2796V16.0351H25.9111L25.4222 15.2203L25.5852 14.8129L25.5037 14.7314H25.2593V14.65L25.3407 14.5685V14.4055L25.0148 14.487V14.65L24.9333 14.7314L25.0148 14.65V14.487H24.9333L24.7704 14.5685V14.7314H24.8518V14.8129L25.0148 14.8944L24.9333 14.9759L25.0148 15.0574L24.9333 15.1388H25.0148H24.8518L24.363 15.5463V15.6277H24.2V15.9537L24.2815 16.0351H24.363L24.2 16.2796L24.2815 16.524L24.8518 16.2796L25.0148 15.6277H25.0963L25.0148 15.7907H25.1778V15.6277L25.2593 15.8722H25.0963V15.9537L25.0148 16.0351H25.1778L25.0148 16.1981L25.0963 16.2796H25.3407H25.2593L25.0148 16.6055H25.0963L25.1778 16.524H25.3407L25.5037 16.4425L25.5852 16.524L25.7481 16.4425H26.1556L25.9926 16.6055V16.7685L25.8296 16.9314V17.0129H25.7481V16.9314H25.6667L25.5852 17.0129L25.6667 17.2574H25.1778V17.4203L25.7481 17.8277V18.3981H24.6889V18.4796H24.6074L24.363 18.3981V18.4796L24.4444 18.5611L24.363 19.3759L24.4444 19.4574V19.7018H24.7704L24.9333 19.8648L23.2222 22.6351V23.5314L23.0593 23.6129L23.2222 23.8574V24.1018L23.3852 24.2648L23.5481 24.4277L23.7926 24.8351L23.8741 24.9166H23.9556L24.7704 25.4055L26.0741 25.1611L26.1556 25.0796H26.6444L26.8889 25.4055L27.2963 25.324V25.487H27.3778V25.4055L27.4593 25.487L27.3778 25.8129V25.8944L27.2963 26.0574H27.2148L28.6 31.3537V20.7611L28.3556 20.6796L28.1111 20.5981ZM14.1778 22.1463V21.9018H14.0963V21.8203L14.0148 21.9018V21.9833L14.0963 22.0648L14.1778 22.1463ZM10.837 8.13144V8.53885L10.9185 8.45736L10.837 8.37588V8.13144ZM11 9.35366L11.0815 8.94625L11 8.78329H10.9185L11 8.70181L10.9185 8.53885L10.837 8.62033V9.43514L11 9.35366ZM13.5259 6.74625L13.4444 6.9907L13.5259 7.07218L13.6889 6.9907V6.82773L13.6074 6.74625H13.5259ZM13.4444 13.1833L13.363 13.4277L13.5259 13.5907L13.6074 13.2648L13.5259 13.1833H13.4444ZM23.1407 5.52403L23.0593 5.44255H22.9778V5.76848L23.1407 5.68699V5.52403ZM14.2593 5.1981H12.3037V5.36107H12.6296L12.5481 5.44255L12.6296 5.52403V5.60551L12.7111 5.76848H12.8741H12.7926L12.6296 5.68699L12.4667 5.36107H12.1407V5.60551L12.2222 5.93144H12.3037L11.8963 6.42033L11.9778 6.50181L11.6518 6.25736L11.4074 6.42033V6.17588L10.9185 6.01292L10.837 6.0944V6.17588L10.7556 6.25736L11.0815 6.66477L11.3259 6.58329L11.4889 7.31662V7.47959L11.6518 7.64255L11.7333 7.56107L11.8148 7.64255H11.8963L12.0593 7.72403L12.1407 7.64255V7.72403L12.2222 7.80551L13.037 7.72403L13.1185 7.80551L13.5259 7.72403V7.56107H13.6074L13.6889 7.47959V7.31662H13.5259L13.6074 7.23514L13.5259 6.9907L13.1185 6.74625L12.4667 6.9907L12.3037 6.90922H12.1407V7.07218L11.9778 6.90922V6.82773H12.1407L12.2222 6.66477L12.3852 6.74625H12.4667L12.8741 6.82773L12.9556 6.74625V6.58329L13.037 6.66477V6.58329L13.1185 6.66477L13.2 6.58329H13.2815V6.82773H13.363L13.8518 6.50181V6.17588H13.7704L13.6889 6.25736V6.17588L13.6074 6.01292H13.7704L13.8518 5.76848V5.68699H13.7704V5.60551H14.0963L14.1778 5.36107L14.2593 5.1981ZM13.2815 6.0944L13.363 6.01292L13.2815 6.0944ZM11.4074 7.72403V7.31662L11.163 6.9907L11.0815 7.07218L11 6.9907L10.9185 7.07218V6.90922V7.23514L11 7.31662H11.0815L11 7.3981L11.3259 7.80551L11.4074 7.72403ZM22.8148 6.42033V6.82773L22.8963 6.90922L22.9778 6.82773L22.8148 6.42033ZM15.237 13.8351V13.9981H15.3185L15.4 13.9166V13.7537L15.237 13.8351ZM15.6444 13.5092L15.8889 13.5907V13.5092L15.8074 13.4277L15.6444 13.5092ZM13.7704 10.5759V10.4129H13.6889L13.5259 10.7388H13.6889L13.7704 10.5759ZM11.2444 23.5314L12.2222 24.0203H12.3037L12.7111 24.5907H12.7926L12.8741 24.6722V24.7537L13.037 24.8351H13.1185V24.9166H13.2815L13.363 24.9981H13.4444L13.5259 24.9166V24.7537L13.6889 24.6722L13.7704 24.7537L13.9333 25.487L13.363 26.4648L13.4444 26.5463L13.2815 26.7092L13.363 26.9537L14.9926 28.9907L14.6667 32.25L14.5852 32.3314V32.4129L14.5037 33.3092L14.4222 33.7166L14.5852 33.7981L14.6667 33.7166V33.7981L14.5852 33.8796V33.9611L14.5037 34.0425L14.5852 34.124V34.2055H14.3407V34.287L14.0963 34.5314V34.6129L14.1778 34.6944V34.6129H14.2593L14.1778 34.7759V34.9388L14.0963 34.7759H14.0148V35.2648H14.0963L14.1778 35.3463L14.2593 35.5907L14.1778 35.6722V35.7537H14.2593V35.8351L14.3407 35.9166V35.9981L14.2593 36.0796H14.1778V36.1611L14.4222 36.487L14.7481 36.5685V36.65L14.8296 36.7314L14.9111 36.8129H14.9926L15.0741 36.8944H15.1556L15.3185 36.9759V36.8129L15.7259 36.65V36.7314L15.8889 36.65V36.5685L15.8074 36.487H15.6444L15.3185 36.1611V36.0796L15.237 35.9166V35.8351L15.0741 35.4277L15.6444 34.5314L15.4 34.287L15.7259 34.0425L15.8074 33.7166L15.8889 33.6351H15.9704L16.0519 33.5537L15.9704 33.3907L15.8074 33.4722V33.2277L16.0519 33.3092L16.2148 33.1463L16.2963 32.8203L17.0296 32.6574L17.1926 32.25L17.1111 32.1685V32.0055L17.0296 31.924L17.437 32.0055L18.4963 30.5388L18.4148 30.3759L20.5333 27.1981L20.4518 26.8722L18.9852 26.2203L18.5778 26.1388L18.3333 25.9759L18.4148 25.8129L16.7852 24.5907V24.5092H16.7037V24.3463H16.2963L16.2148 24.2648L16.1333 24.3463V24.4277H15.9704L15.8889 24.3463H15.6444L15.563 24.2648H15.4L15.3185 24.1018L15.1556 24.3463L15.237 24.2648V24.1833L15.1556 24.1018L14.5037 24.4277V24.5907L14.3407 24.7537L13.9333 24.5907V24.6722L13.6889 24.7537L12.9556 24.2648L13.037 23.6944L12.2222 23.5314L12.3037 23.287L12.3852 23.0425L12.4667 22.7166L12.3852 22.6351L11.8148 22.7166L11.6518 23.124L11.3259 23.0425L10.9185 21.9018L11 21.8203V21.4944L11.0815 21.3314L11.2444 21.25V21.1685L11.9778 21.25L12.0593 21.3314L12.1407 21.25L12.0593 21.1685V21.087H12.4667L12.6296 21.25L12.7926 21.1685L12.9556 21.3314V21.6574L13.2815 22.0648L13.4444 21.9833V20.6796L14.0963 20.1907L14.5037 19.1314L14.7481 19.05L14.8296 18.9685H15.1556L15.237 18.887V18.8055L15.1556 18.724H15.0741L14.9926 18.6425L15.0741 18.3981L15.237 18.3166V18.2351L15.4815 18.0722V17.9907H15.6444L15.563 18.0722V18.3166L15.7259 18.3981L15.9704 18.1537H16.0519L16.3778 17.9907V17.9092L16.5407 17.8277V17.7463L16.4593 17.6648V17.5833L16.3778 17.5018L16.2148 17.7463V17.6648H15.9704L15.8889 17.5833H15.8074V17.6648L15.7259 17.5833V17.4203L15.8889 17.3388V17.1759L15.4 17.0944L15.4815 16.9314H15.7259V17.0129L16.2148 17.1759L16.1333 17.0944L15.8889 17.0129L16.8667 16.687L16.7852 16.85V17.1759L16.6222 17.3388L16.7037 17.4203L16.6222 17.5018V17.5833L17.1926 17.6648V17.7463L17.2741 17.8277L17.437 17.6648V17.8277H17.5185V17.9092H17.6L17.6815 17.8277V17.3388H17.6V17.1759H17.3556L17.1926 17.0944L17.2741 16.7685H17.1926L17.2741 16.687V16.1981L17.0296 15.7907V15.6277L16.8667 15.4648L16.7852 15.5463L16.7037 15.4648H16.6222L16.5407 15.3018H16.4593V15.2203L16.3778 15.1388L16.4593 14.9759L16.3778 14.8944V14.8129L16.2148 14.487V14.4055L16.1333 14.324V14.2425H16.0519V14.1611H15.9704L15.8889 13.9166H15.8074L15.6444 14.1611V14.324H15.563L15.4 14.487V14.4055H15.3185L15.237 14.324H15.1556V13.9981L15.0741 13.8351L15.1556 13.6722L15.0741 13.5907H14.9111V13.5092H14.8296L14.6667 13.3463V13.2648L14.5037 13.1833L14.2593 13.2648L13.8518 13.1018L13.6889 13.2648L13.7704 13.5092V13.7537H13.8518L13.9333 13.9981V14.0796L13.7704 14.1611L14.0963 14.9759L13.6889 15.3833L13.8518 16.0351L13.6889 16.1981L13.5259 15.9537V15.8722H13.6074V15.7907L13.5259 15.6277H13.363V15.1388L11.9778 14.487L11.8148 14.5685L11.6518 14.0796L11.4074 13.9981L11.4889 13.3463V13.2648L11.6518 13.1018V13.0203H11.7333V12.8574H11.8148L11.8963 12.7759L12.0593 12.6944V12.5314L12.1407 12.45V12.3685H12.2222L12.4667 12.287L12.6296 11.8796L12.4667 12.45L12.5481 12.5314L12.7111 12.45V12.5314L12.7926 12.6129H12.8741L13.1185 12.3685V12.287H13.2V12.3685L13.4444 12.45L13.6074 12.287L13.363 12.5314H13.2815L13.2 12.3685L12.9556 12.2055V12.124L12.8741 12.0425L12.7926 11.8796H12.7111V11.6351L13.037 12.0425V11.9611L12.9556 11.8796V11.7981L13.2815 11.3907V11.2277L13.1185 11.0648V10.9018L13.2 10.8203V10.6574L13.2815 10.5759L13.1185 10.4944L13.037 10.3314H13.1185L13.2 10.4129H13.2815L13.363 10.5759H13.4444L13.6889 10.3314V10.25H13.7704V10.3314L13.8518 10.4129V10.4944L14.0963 10.6574H14.0148L14.0963 10.9018L14.3407 10.8203L14.5037 10.9833V11.0648H14.4222L14.3407 11.1463V11.0648L14.0148 10.9018L13.8518 11.3092L13.9333 11.4722H14.1778L14.2593 11.2277L14.5037 11.1463L14.5852 11.3907L14.2593 11.8796L14.3407 12.0425L13.7704 12.124V12.45L14.0148 12.6944L14.1778 12.5314L14.3407 12.6129L14.4222 12.5314H14.5037L14.5852 12.7759L14.7481 12.8574V12.9388L14.9926 13.3463L15.0741 13.2648H15.1556L15.4815 13.5092H15.563L15.6444 13.5907H15.7259L15.8074 13.5092V13.3463L15.6444 13.1833H15.8074L15.8889 13.3463L15.9704 13.2648V13.1833L16.0519 13.1018V12.6129H15.9704V12.45L15.8074 12.287H15.7259V12.124L15.6444 12.0425L15.7259 11.9611L15.6444 11.8796L15.8074 12.0425L15.9704 12.3685L16.0519 12.45H16.1333L16.2148 12.2055H16.2963L16.3778 11.9611L16.4593 11.8796V11.7981L16.2148 11.4722H16.1333V11.3092H16.0519L15.9704 11.0648H15.8889V10.9833L15.7259 11.0648L15.6444 10.9018H15.563V10.8203H15.4V10.6574L15.6444 10.5759V10.4944L15.4 10.4129H15.4815L15.563 10.3314L15.3185 10.087V9.92403L15.0741 9.84255H14.9926V9.76107L14.9111 9.67959L14.6667 9.27218V9.35366H14.5852V9.27218H14.5037V9.1907L14.4222 9.10922H14.3407V9.02773L14.0148 8.78329L14.0963 8.70181L13.8518 8.2944L13.2815 8.21292L13.2 8.2944L13.1185 8.21292L12.7926 8.2944L12.7111 8.37588H12.5481L12.6296 8.13144H12.2222L11.8148 9.43514L11.9778 9.5981H11.8963V9.76107L12.1407 10.087H12.3852L12.4667 10.25H12.5481V10.4944L12.6296 10.5759L12.5481 10.6574H12.4667L12.3852 10.9018H12.4667H12.3852V11.1463L12.4667 11.2277V11.3092H12.3852L12.3037 10.9833H12.3852L12.1407 10.4944H11.9778L11.8963 10.6574L11.8148 10.4944V10.4129L11.7333 10.3314L11.5704 10.25L11.6518 10.1685H11.7333L11.4074 9.27218H11.3259V9.1907H11.4074L11.4889 8.86477L11.4074 8.78329H11.5704L11.8963 8.04996L11.0815 7.96847L11 8.13144H10.9185V8.78329L11 8.86477V9.10922L10.9185 9.35366L10.837 9.43514V9.67959L10.9185 9.76107L10.837 10.087L11.163 10.4129L11.0815 10.5759H11L10.6741 10.1685V23.3685L10.837 23.45C10.837 23.45 11.2444 23.5314 11.2444 23.5314ZM14.5037 33.7166V33.5537V33.7166ZM14.0148 18.3166H13.8518H14.0148ZM13.2815 17.8277L13.4444 17.9092V17.9907L13.2815 17.8277ZM13.363 18.5611L13.2 18.724L13.363 18.5611ZM12.9556 17.8277L13.2 17.9907V18.3981L13.1185 18.2351H13.037V17.9907L12.9556 17.8277ZM12.4667 18.3166V18.4796L12.3852 18.724L12.4667 17.9907L12.7111 17.9092L12.4667 18.3166ZM12.1407 17.3388L12.3037 17.1759L12.3852 17.3388L12.4667 17.2574V17.1759L12.5481 17.3388H12.6296L12.7111 17.5018L12.4667 17.5833L12.3037 17.5018V17.3388H12.1407L11.8148 17.5833V17.5018L12.1407 17.3388ZM15.4 12.8574L15.4815 13.0203L15.4 12.8574ZM13.5259 8.86477L13.6074 8.94625H13.6889V9.10922H13.5259C13.5259 9.10922 13.5259 8.86477 13.5259 8.86477ZM13.037 10.25H12.7926H13.037ZM12.5481 8.86477V8.70181V8.86477C12.5481 8.86477 12.5481 8.94625 12.5481 8.86477ZM12.5481 9.10922V8.94625H12.6296L12.5481 9.10922ZM12.6296 8.62033V8.53885V8.62033ZM12.5481 12.0425V12.2055V12.0425ZM11.163 10.7388H11.3259L11.163 10.9018H11.0815V10.8203L11.163 10.7388ZM11.9778 5.36107L12.0593 5.44255L12.1407 5.36107V5.44255L12.2222 5.36107V5.1981H11.5704V5.27959L11.6518 5.36107L11.9778 5.44255V5.36107ZM11.4889 5.68699L11.163 5.60551L11 5.68699V5.76848L11.4074 5.93144H11.4889V5.68699ZM10.837 5.68699L11.3259 5.44255L11.2444 5.1981H10.837V5.68699Z" fill="#2D9720"/>
<path opacity="0.39" d="M8.14813 39.502H30.3111L30.4741 0.0649414H7.98517L8.14813 39.502Z" fill="black"/>
<path d="M24.037 42.2723L30.5556 39.4205V0.0649414L23.8741 2.99827L24.037 42.2723Z" fill="#F6F3EF"/>
<path opacity="0.12" d="M24.037 42.2723L30.5556 39.4205V0.0649414L23.8741 2.99827L24.037 42.2723Z" fill="black"/>
<path d="M17.1926 41.539L7.90369 39.4205V0.0649414L17.1926 2.99827V41.539Z" fill="#F6F3EF"/>
<path d="M17.1926 41.539L0 44.065V5.6057L17.1926 2.99829V41.539Z" fill="white"/>
<path d="M23.8741 2.99829H44V44.6353H23.8741V2.99829Z" fill="#F6F3EF"/>
<path d="M23.8741 5.3612H41.637V42.2723H23.8741V5.3612ZM17.1926 4.87231L2.20001 7.39824V41.7834L17.1926 39.4205V4.87231V4.87231Z" fill="#81D4FA"/>
<path d="M16.7037 12.776L16.8667 12.939L16.9482 12.8575V12.776L16.8667 12.6945L16.7037 12.776ZM14.5037 12.3686L14.4222 12.6945L14.5037 12.8575H14.5852L14.6667 12.4501C14.6667 12.4501 14.5037 12.3686 14.5037 12.3686ZM15.4815 23.6131L15.2371 23.4501L14.9111 23.2056L14.6667 23.0427V23.1242L14.5037 22.9612L13.8519 23.1242L13.7704 23.2871V23.3686L14.0148 23.2871V23.4501L14.1778 23.3686L14.0963 23.2056H14.1778L14.8296 23.6131V23.6945L15.4815 23.6131ZM14.8296 22.5538L14.7482 22.7168L14.8296 22.7982V22.8797L14.9111 22.9612L14.9926 22.7982L14.9111 22.7168L14.8296 22.5538ZM14.7482 23.939L15.1556 24.1019V23.939H14.7482ZM14.0148 12.2871L13.8519 12.6131H14.0963L14.2593 12.2871V12.2056L14.0148 12.2871ZM14.9926 12.2056L14.9111 12.0427L14.7482 11.9612V12.0427L14.8296 12.2056H14.9926ZM16.4593 24.0205H16.7852V23.8575H16.5408L16.4593 24.0205ZM15.4815 24.1019H15.7259L15.8074 24.1834H15.8889L15.9704 24.1019L16.3778 24.0205V23.8575L15.563 23.6131L15.4815 23.6945L15.563 23.776V23.8575H15.4L15.3185 23.939V24.0205L15.4815 24.1019ZM15.4815 23.5316L15.6445 23.4501V23.2871L15.4815 23.5316ZM15.4 23.0427V23.2056L15.4815 23.2871V23.2056L15.563 23.0427H15.4ZM14.9926 22.5538V22.2279H14.9111V22.3094L14.8296 22.2279H14.6667V22.3908H14.9111L14.9926 22.5538ZM15.2371 22.8797L15.1556 22.6353V22.5538H15.0741V22.7982H15.1556L15.2371 22.8797ZM9.45186 6.17602V6.2575V6.17602ZM17.1926 4.9538V4.87231V4.9538ZM12.6296 5.68713L12.5482 5.76861V5.93157L12.7111 6.09454H12.8741L13.0371 6.17602L13.1185 6.09454L13.2 6.17602H14.0148V6.09454L14.0963 6.17602L14.5037 6.09454L14.5852 6.01306L14.5037 5.93157H14.5852L14.6667 5.85009V5.68713H14.5037L14.6667 5.60565L14.5852 5.3612L12.5482 5.68713H12.6296ZM14.8296 9.3538V9.19083H14.6667L14.5852 9.51676V9.59824L14.7482 9.51676L14.8296 9.3538ZM3.01483 14.6501L2.93335 14.5686V14.7316H3.01483V14.6501ZM6.51853 15.3019L6.43705 15.3834L6.27409 15.3019V15.3834L6.60001 16.1168V16.0353L6.68149 15.9538L6.60001 15.8723V15.7094L6.51853 15.6279L6.60001 15.4649L6.51853 15.3019ZM16.7037 5.11676L16.6222 5.03528H16.7037V5.11676L17.1111 4.87231L16.4593 5.03528L16.7037 5.19824V5.11676ZM12.0593 7.88713V7.47972L11.9778 7.23528L12.0593 7.1538L11.9778 6.99083H11.8963L11.8148 7.07231L11.8963 6.90935V6.82787L11.9778 6.58343L11.8148 6.50194V6.33898H11.7333L11.4889 6.50194H11.3259V6.58343L11.163 6.66491L11.2445 6.74639L11.163 6.82787L11.3259 7.23528V7.31676L11.163 7.07231L11 7.1538V7.31676L11.163 7.72417H11.3259L11.5704 8.21306H11.7333L11.8148 8.13157V8.05009H11.8963L12.0593 7.88713ZM16.2963 13.1834V13.3464H16.3778L16.4593 13.2649V13.1019L16.2963 13.1834ZM12.4667 6.01306V5.68713L12.0593 5.76861L12.2222 6.09454L12.4667 6.01306ZM17.1111 25.4056H16.9482V25.4871H16.7852L16.7037 25.4056H16.4593L16.3778 25.2427H16.2148L16.1333 25.0797L15.9704 25.3242L16.0519 25.2427V25.1612L15.9704 25.0797L15.3185 25.4871V25.6501L15.1556 25.8131L14.5852 25.5686V25.6501L14.3408 25.7316L14.0963 25.3242L14.1778 24.5908L13.363 24.4279L13.4445 24.1019L13.5259 23.776L13.6074 23.4501L13.5259 23.3686L12.9556 23.4501L12.7926 23.939H12.3037L11.8963 22.6353L11.9778 22.5538V22.1464L12.0593 21.9834L12.2222 21.9019V21.8205L12.9556 21.9019L13.0371 21.9834L13.1185 21.9019L13.0371 21.8205V21.739H13.4445L13.6074 21.9019L13.7704 21.8205L13.9333 21.9834V22.3908L14.2593 22.8797L14.4222 22.7982V21.2501L15.0741 20.6797V20.5982L15.4815 19.376L15.7259 19.2945L15.8074 19.2131H16.1333L16.2148 19.1316V19.0501L16.1333 18.9686H16.0519L15.9704 18.8871L16.0519 18.5612L16.2148 18.4797V18.3982L16.4593 18.2353V18.1538H16.6222L16.5408 18.2353V18.5612L16.7037 18.6427L17.0296 18.2353H17.1926V17.6649H17.0296V17.4205H16.9482V17.5019V17.2575L17.1111 17.0945V16.9316L16.6222 16.8501L16.7037 16.6871H16.9482V16.7686L17.2741 16.9316V16.7686L17.1926 16.6871L17.2741 16.6056V13.6723L17.1926 13.5908V13.5094H17.1111L17.0296 13.2649H16.9482L16.7852 13.5094V13.6723H16.7037L16.6222 13.8353L16.5408 13.6723H16.4593L16.3778 13.5908H16.2963V13.1834H16.2148L16.2963 13.0205L16.2148 12.939H16.0519V12.8575L15.9704 12.776L15.8889 12.6131V12.5316L15.7259 12.3686L15.4815 12.5316L15.0741 12.3686L14.9111 12.5316L14.9926 12.776L14.9111 13.1019H14.9926L15.0741 13.4279V13.5094L14.9111 13.6723L15.2371 14.6501L14.5852 15.2205L14.7482 15.9538L14.5852 16.1982L14.4222 15.9538V15.8723H14.5037V15.7908L14.4222 15.6279H14.2593V15.0575L12.8741 14.2427L12.7111 14.3242L12.5482 13.7538L12.3037 13.6723L12.3852 12.8575V12.776L12.5482 12.6131V12.5316H12.6296V12.3686H12.7111L12.7926 12.2871L12.9556 12.2056V11.9612L13.0371 11.8797V11.7982H13.1185L13.363 11.7168L13.5259 11.2279L13.363 11.8797L13.4445 11.9612L13.6074 11.8797V12.0427L13.6889 12.1242H13.7704L14.0148 11.7982V11.7168H14.0963V11.7982L14.3408 11.8797L14.5037 11.7168L14.3408 11.5538H14.2593L14.1778 11.3094L13.8519 11.0649V10.9834L13.7704 10.9019H13.6074V10.6575L13.9333 11.0649V10.9834L14.0148 10.9019V10.8205L14.3408 10.4131V10.2501L14.1778 10.0871V9.92417L14.2593 9.84268V9.67972L14.3408 9.59824L14.2593 9.27231L14.1778 9.10935H14.2593V9.02787L14.3408 9.10935H14.4222L14.5037 9.27231H14.5852L14.8296 8.94639V8.86491H14.9111V9.02787L14.9926 9.10935V9.19083L15.2371 9.43528H15.1556L15.2371 9.7612L15.4815 9.59824L15.6445 9.84268V9.92417H15.563L15.4815 10.0056V9.92417L15.2371 9.84268L15.0741 10.2501L15.1556 10.4131H15.4L15.4815 10.1686L15.7259 10.0871L15.8074 10.3316L15.3185 10.9019L15.4 11.0649L14.8296 11.1464V11.3094L14.7482 11.3908V11.6353L14.9926 11.8797L15.1556 11.7168L15.3185 11.7982L15.4 11.7168H15.4815L15.563 11.9612L15.7259 12.0427V12.1242L15.9704 12.5316L16.0519 12.4501H16.1333L16.4593 12.776H16.5408L16.6222 12.8575H16.7037L16.7852 12.776V12.5316L16.6222 12.3686H16.7852L16.9482 12.5316L17.0296 12.4501V12.3686L17.1111 12.2871V11.7168H17.0296V11.5538L16.8667 11.3908H16.7852V11.1464L16.7037 11.0649L16.7852 10.9834V10.9019L16.7037 10.8205L16.8667 10.9834L17.0296 11.3094L17.1111 11.4723H17.1926L17.2741 11.1464H17.3556V10.2501H17.2741L17.1926 10.0056H17.1111V9.92417L16.9482 10.0056L16.8667 9.92417H16.7852V9.84268L16.6222 9.7612V9.67972L16.5408 9.59824V9.51676L16.7852 9.43528V9.3538L16.5408 9.27231L16.6222 9.19083L16.7037 9.10935L16.4593 8.78343V8.62046L16.2148 8.4575H16.1333V8.37602L16.0519 8.29454V8.21306L15.7259 7.88713V7.96861H15.6445V7.80565H15.563V7.72417L15.4 7.64268H15.3185V7.5612L14.9926 7.31676L15.0741 7.23528L14.8296 6.82787L14.2593 6.74639L14.1778 6.82787L14.0963 6.66491L13.7704 6.74639L13.8519 6.82787H13.6889L13.7704 6.58343H13.363L12.9556 8.05009L13.1185 8.21306H13.0371V8.37602L13.2815 8.78343H13.5259L13.6074 8.94639H13.6889V9.27231L13.7704 9.3538L13.6889 9.43528H13.6074L13.5259 9.67972L13.4445 9.59824H13.363V9.84268L13.4445 9.92417V10.0056H13.363L13.2815 9.67972H13.363L13.1185 9.27231H12.9556V9.43528L12.8741 9.27231V9.10935L12.7926 9.02787L12.6296 8.94639L12.7111 8.78343H12.7926L12.3852 7.72417H12.3037V7.64268H12.3852L12.4667 7.31676L12.3852 7.23528H12.6296L12.9556 6.33898L12.1408 6.2575L12.0593 6.42046V6.50194H11.9778V7.23528L12.0593 7.31676V7.64268L11.9778 7.88713L11.8963 7.96861V8.29454L11.9778 8.37602L11.8963 8.70194L12.2222 9.10935L12.1408 9.3538H12.0593L11.6519 8.78343L11.4074 9.27231V9.43528L11.6519 9.51676L11.4889 9.59824L11.5704 9.67972V9.7612H11.0815L10.9185 9.51676H10.7556L10.6741 9.43528V9.27231L11.0815 9.3538L11.3259 9.10935V9.02787H11.2445V8.86491H11.3259L11.4074 8.78343V8.53898L11.3259 8.70194H11.2445L11 8.4575H10.9185L10.6741 6.58343H10.3482L10.2667 6.90935L10.1852 6.82787V6.90935L10.2667 7.64268L10.0222 6.99083L9.77779 6.90935V6.99083L9.85927 7.07231V7.1538L9.69631 7.39824V7.23528L9.37038 6.99083L9.2889 7.07231V6.82787H9.12594L8.96298 6.99083L9.12594 6.82787L8.80001 6.33898L7.65927 6.50194V6.58343L7.49631 7.07231V7.1538L7.33335 7.80565V7.88713L7.57779 8.05009L7.74075 8.4575H7.82224L7.9852 8.21306H8.06668L8.22964 8.13157L8.31112 7.72417L8.47409 7.64268L8.55557 7.39824L8.47409 7.5612L8.55557 7.64268L8.39261 7.88713V8.05009L8.47409 8.13157H8.55557V8.29454L8.63705 8.37602H8.80001L8.55557 8.53898L8.71853 8.78343L9.45186 8.86491L8.71853 9.02787L8.63705 9.10935L8.80001 9.43528L9.20742 9.59824L9.2889 9.92417L10.1037 9.67972L9.94075 9.84268V9.92417L10.1037 10.0871L10.0222 10.1686L9.85927 10.0871L9.77779 9.92417L9.04446 10.0056V9.92417L9.20742 9.84268L8.96298 9.43528H8.71853L7.74075 8.94639L7.65927 9.19083V9.02787H7.57779V8.86491L7.49631 8.78343H7.41483L7.33335 9.10935L7.00742 8.4575V8.62046L7.0889 8.70194L7.00742 8.78343H6.92594L6.84446 8.62046L6.1926 9.10935V9.02787H6.11112V8.94639H6.02964V9.10935H5.94816V9.27231H5.86668V9.43528L5.05186 8.94639L3.50372 8.53898L3.42223 8.4575V8.37602H3.34075L3.17779 8.29454L3.01483 8.37602L2.85186 8.21306L2.60742 8.05009L2.44446 8.29454H2.28149L2.20001 8.4575V13.8353L2.28149 13.9982L2.36298 13.9168H2.52594V13.9982L2.20001 14.4871V14.976L2.36298 14.8131H2.44446L2.52594 14.7316V14.6501L2.6889 14.4871L2.85186 14.4056V14.3242L2.93335 14.2427L3.17779 14.0797L3.01483 14.3242L3.17779 14.4871H3.25927L3.34075 14.3242H3.42223V14.0797H3.50372V13.9982L3.42223 13.9168H3.25927L3.17779 14.0797V14.1612H3.09631V14.0797L3.25927 13.8353L3.17779 13.7538L3.50372 13.1834L3.42223 13.7538L3.50372 13.8353L3.91112 13.5908V13.5094H4.07409V13.5908L4.23705 13.5094L4.31853 13.3464H4.48149L4.56298 13.4279L4.72594 13.5908H5.13335L5.37779 13.6723V13.7538L5.86668 14.2427V14.4056L5.94816 14.5686L6.11112 14.976H6.1926L6.27409 15.0575V15.139L6.43705 15.5464H6.60001L6.68149 15.4649V15.3834H6.76298V15.5464H6.84446V15.7908L7.00742 16.0353H7.0889L7.17038 16.2797L7.25186 16.3612V16.6871L7.17038 16.8501V16.9316H7.25186V17.0131L7.33335 17.0945H7.41483L7.65927 17.4205L7.82224 18.1538L8.31112 21.0056L8.39261 21.0871L8.47409 21.1686L8.55557 21.0871L9.2889 22.3094V22.3908H9.20742L9.12594 22.3094L9.04446 22.3908L9.53335 22.8797L9.61483 23.2056H9.69631L10.0222 23.6131L10.1852 23.5316V23.3686L10.0222 23.2056L9.69631 22.3908L10.1852 22.8797V22.9612L10.8371 23.8575V24.1834L12.3037 24.9982L12.5482 24.9168L13.5259 25.4871H13.6074L14.0148 26.2205H14.0963L14.1778 26.3019V26.3834L14.3408 26.4649H14.4222V26.5464H14.5037L14.5852 26.4649L14.6667 26.5464H14.7482L14.8296 26.4649L14.7482 26.3834L14.9111 26.3019L14.9926 26.3834L15.1556 27.1982L14.5852 28.339L14.6667 28.4205L14.5037 28.6649L14.5852 28.9094L16.2148 31.3538L15.8889 35.1834L15.8074 35.2649V35.3464L15.4 35.9982V36.4871L15.563 36.5686L15.6445 36.4871V36.5686L15.563 36.7316V36.8131L15.4 36.8945L15.4815 36.976V37.0575H15.2371V37.139L15.1556 37.3019V37.3834L15.2371 37.4649V37.3834H15.3185L15.2371 37.5464V37.7094L15.1556 37.5464H15.0741V38.0353L15.1556 38.1168L15.0741 38.1982L15.1556 38.4427L15.0741 38.5242V38.6056H15.1556V38.6871L15.2371 38.7686V38.8501L15.4 39.0131V39.0945H15.3185V39.176L15.563 39.5834L15.8889 39.6649V39.7464L16.7852 39.5834L16.4593 39.2575V39.176L16.3778 39.0131V38.9316L16.2148 38.5242L16.7852 37.4649L16.5408 37.2205L16.8667 36.8945L16.9482 36.4871L17.0296 36.4056H17.1111L17.1926 36.3242L17.0296 35.9982L16.8667 36.0797V35.8353L17.1111 35.9168L17.1926 35.8353L17.1111 25.4056ZM15.0741 18.3982H14.9111H15.0741ZM14.3408 17.8279L14.5037 17.9908V18.0723L14.3408 17.8279ZM14.3408 18.7242L14.1778 18.8871L14.3408 18.7242ZM13.9333 17.8279L14.1778 17.9908V18.4797L14.0963 18.2353H14.0148V17.9908L13.9333 17.8279ZM13.4445 18.3982V18.5612L13.363 18.8056L13.4445 17.9094L13.6889 17.8279C13.6889 17.8279 13.4445 18.3982 13.4445 18.3982ZM13.1185 17.2575L13.2815 17.0131L13.363 17.176L13.4445 17.0945V17.0131L13.5259 17.2575H13.6074L13.6889 17.5019L13.4445 17.5834L13.2815 17.5019V17.339H13.2L12.7926 17.5834V17.5019C12.7926 17.5019 13.1185 17.2575 13.1185 17.2575ZM16.4593 12.0427L16.5408 12.2056V12.1242C16.5408 12.1242 16.4593 12.0427 16.4593 12.0427ZM15.563 9.92417L15.4 9.84268L15.563 9.92417ZM14.5037 7.31676L14.5852 7.39824H14.6667V7.5612H14.5037V7.31676ZM14.0148 8.94639H13.7704H14.0148ZM13.6074 7.07231V7.1538V7.07231ZM13.5259 7.39824V7.23528V7.5612C13.5259 7.5612 13.5259 7.39824 13.5259 7.39824ZM13.6074 7.64268V7.47972L13.6889 7.5612L13.6074 7.64268ZM13.6889 6.99083V6.90935V6.99083ZM13.5259 11.0649V11.2279V11.0649ZM12.2222 9.59824H12.3852L12.2222 9.84268H12.0593V9.7612L12.2222 9.59824ZM4.15557 13.1834L3.9926 13.3464L4.07409 13.1019L4.23705 13.0205L4.15557 13.1834ZM7.90372 17.0945L7.82224 16.9316L7.90372 17.0945ZM8.55557 10.9834H8.39261L8.31112 11.0649H8.22964L8.06668 11.1464V11.2279H7.9852V11.1464L8.06668 11.0649V10.9834H8.14816V10.8205L7.90372 10.739L8.31112 10.4945L8.22964 10.576V10.739L8.55557 10.8205V10.9834ZM8.96298 13.0205L9.12594 12.8575V12.776H9.20742V12.6131L9.37038 12.776L9.45186 12.8575L9.2889 12.939V13.0205C9.2889 13.0205 8.96298 13.0205 8.96298 13.0205ZM9.45186 21.8205L9.20742 21.3316H9.2889L9.45186 21.8205ZM9.85927 13.6723L9.94075 13.5094V13.5908L9.85927 13.6723ZM11.8148 15.9538L11.6519 15.7908V15.7094L11.5704 15.6279V15.5464H11.6519L11.8148 15.9538ZM15.563 36.4056V36.2427V36.4056ZM9.45186 6.17602V6.2575V6.17602Z" fill="#4DA742"/>
<path opacity="0.26" d="M17.1926 41.539L0 44.065V5.6057L17.1926 2.99829V41.539Z" fill="black"/>
<path d="M23.8741 14.6502L24.037 14.8131L24.1185 14.7316H24.2V15.0576H24.2815L24.363 15.2205V15.302L24.1185 15.7909H24.037L23.8741 15.9539C23.8741 15.9539 23.8741 14.6502 23.8741 14.6502ZM37.1556 10.0872L36.9926 10.3317H36.9111L36.9926 10.4946L36.8296 10.4131L36.7482 10.4946V10.5761L36.5852 10.902V11.065H36.5037L36.5852 11.2279L36.4222 11.1465V11.2279L36.3408 11.3909L36.2593 11.5539L36.1778 12.0428L36.5852 12.7761L36.5037 12.8576L36.2593 12.6946L36.1778 12.7761L36.0148 12.6131H35.8519V12.5316V12.6131L35.5259 12.2057H35.7704H35.4445V11.7983H35.6074L35.6889 11.5539L35.6074 11.3094L35.6889 11.2279L35.7704 11.1465V11.065L36.0148 10.8205H35.9333L35.7704 10.902L36.0148 10.6576L35.9333 10.5761H36.0148L35.9333 10.4946H36.0963L36.0148 10.3317H36.0963V10.2502H36.0148V9.92424L36.0963 10.0057L36.8296 9.27239H36.9111V9.10943L37.237 9.27239L38.0519 8.70202H38.2963L38.3778 8.94646V9.02795H38.4593L38.3778 9.27239L37.563 9.6798V9.59832L37.1556 10.0872ZM30.4741 8.45758L30.8815 8.05017L30.637 7.80572V7.64276L30.5556 7.56128L30.2296 7.64276V7.72424L30.3111 7.88721L30.2296 8.29461L30.4741 8.21313V8.45758ZM30.0667 17.4205L30.1482 17.2576L30.0667 17.0946H29.9852L29.9037 17.1761L30.0667 17.4205ZM29.9852 10.5761V10.4131H29.9037L29.8222 10.4946C29.8222 10.4946 29.9852 10.5761 29.9852 10.5761ZM34.3037 35.5094L34.6296 35.4279L35.2 33.7168L35.2815 33.6354L35.1185 32.902H35.037L34.9556 32.9835V33.1465H34.8741V33.2279L34.2222 33.8798L34.3037 34.2872L34.0593 34.6946L34.3037 35.5094ZM34.8741 13.7539L35.037 13.8354L35.363 13.5909L35.1185 13.265L34.9556 13.3465C34.9556 13.3465 34.8741 13.7539 34.8741 13.7539ZM29.2519 8.70202L29.4148 9.02795H29.5778L29.8222 7.88721H29.9037L29.9852 7.80572V7.64276L29.9037 7.56128H29.2519L29.0889 7.80572H29.0074L28.9259 7.88721L29.0074 8.21313H29.0889V8.29461H29.1704H29.0074L29.0889 8.62054L29.2519 8.70202ZM29.7408 18.3983L29.9037 17.9909H29.8222L29.7408 18.3983C29.7408 18.3983 29.7408 18.3168 29.7408 18.3983ZM31.0445 22.9613H30.8815V23.0428L31.0445 22.9613ZM28.2741 22.2279H28.1111L27.9482 22.3094L28.0296 22.5539L27.9482 22.6354H27.8667L27.7852 22.7168L27.8667 23.1242L27.9482 23.2872H28.0296L28.1111 23.2057H28.1926V22.6354C28.1926 22.6354 28.2741 22.2279 28.2741 22.2279ZM30.8 23.9391H30.637V24.102H30.8L30.8815 24.1835H31.2074V24.0205L30.8 23.9391ZM40.2519 11.2279L40.0074 11.4724L40.3333 11.6354L40.2519 11.2279ZM32.1037 24.102L32.2667 24.265L32.5111 24.1835L32.5926 23.9391C32.5926 23.9391 32.1037 24.102 32.1037 24.102ZM40.6593 10.0872L40.7408 9.76128L40.5778 9.59832L40.4963 9.76128L40.6593 10.0872ZM41.637 26.8724L41.5556 27.0354L40.4148 28.0131L40.3333 28.9909L40.6593 29.4798V29.6428L40.4148 29.8057H40.2519V29.0724L40.1704 29.2354H40.0889L40.0074 29.3983H39.9259L39.1111 26.9539L38.7852 27.0354L38.4593 26.7094L38.0519 26.2205H37.8074L36.5852 26.1391L37.0741 26.7094L36.8296 27.1168H36.7482V27.3613L35.8519 27.9316V28.0131L34.1408 28.5835V28.7465L34.3037 28.9094L35.4445 28.665L35.5259 28.9909L33.8148 31.1909L33.4889 31.6798L33.5704 31.7613V31.8428L33.4889 31.9242L33.6519 33.6354V33.7168H33.4889L33 34.0428L32.6741 34.3687L32.7556 35.1835L32.3482 35.5094L32.2667 36.0798L31.0445 37.302H29.9037L29.6593 36.9761V36.8946H29.7408L28.1111 30.865H28.1926L28.2741 30.702V30.6205L28.3556 30.2946L28.2741 30.2131V30.2946H28.1111V30.1317L27.7037 30.2131L27.4593 29.8872H26.9704L26.8889 29.9687L25.5037 30.2131L24.6074 29.6428H24.5259L24.4445 29.5613L24.1185 29.0724L23.9556 28.9094L23.8741 28.8279V26.9539L25.6667 24.102L25.5037 23.9391H25.0963V23.6946L25.0148 23.6131L25.0963 22.7168L25.0148 22.3094V22.2279L25.0963 22.1465H25.1778L25.2593 22.065H26.4V21.4946L25.7482 21.0057V20.7613H26.3185L26.237 20.5168L26.3185 20.4354H26.4815L26.563 20.5168H26.6445V20.4354L26.8889 20.2724V20.1094L26.8074 20.1909L26.4 20.2724L26.1556 20.3539L26.0741 20.2724L25.9111 20.4354H25.7482L25.6667 20.5168H25.5037L25.7482 20.1094H25.8296H25.5852L25.5037 20.0279L25.7482 19.865H25.5852L25.6667 19.702V19.5391H25.9111L25.9926 19.1316V19.2946L25.8296 19.3761L25.9111 19.2131H25.8296L25.6667 19.865L25.0148 20.1094L24.8519 19.865L25.0148 19.6205H24.9333L24.8519 19.5391V19.4576L24.7704 19.3761L24.8519 19.2131H25.0963H25.0148V19.1316L25.3408 18.8872L25.4222 18.9687H25.5037H25.4222L25.5037 18.8057L25.4222 18.7242L25.5037 18.5613V18.1539H25.4222V17.9094L25.5852 17.8279H25.6667L25.7482 17.9909L25.6667 18.0724L25.7482 17.9909V17.8279L26.1556 17.7465L26.237 17.9094L26.0741 17.9909V18.0724H26.3185L26.4 18.1539L26.237 18.5613V18.6428L26.7259 19.5391H26.8889L26.9704 19.6205V19.865L26.8074 20.0279H26.8889V20.1094L27.2963 19.9465V19.865L27.4593 19.4576L27.7852 19.3761V19.2946L28.0296 19.2131V19.0502L27.9482 18.8057L27.8667 18.7242V18.2354L28.2741 17.9094L28.3556 17.9909V18.3168H28.437V18.7242L28.5185 18.6428H28.6L28.6815 18.4798L28.5185 18.0724L28.437 17.7465V17.8279H28.3556L28.0296 18.1539H27.7852L27.5408 17.9094V17.7465H27.4593V17.665L27.5408 17.5835L27.4593 16.6872L27.5408 16.6057H27.6222L27.7037 16.5242H27.7852L27.8667 16.4428L28.1111 16.1983V16.1168L28.1926 16.0354L28.2741 16.1168L28.5185 15.7094V15.6279L28.6815 15.5465V15.302L28.763 15.2205V15.1391L28.8445 15.0576V14.9761L29.2519 14.1613V14.0798L29.3333 13.9168L29.1704 13.9983V13.9168L29.3333 13.8354L29.1704 13.7539L29.3333 13.5094H29.4148L29.5778 13.3465H29.6593L29.8222 13.1835H29.9037V13.102H30.0667L29.9852 13.0205H30.0667V12.9391L30.2296 13.0205V12.9391H30.3111L30.3926 13.102L30.4741 12.9391H30.5556L30.4741 12.8576V12.7761L30.5556 12.6946H30.7185V12.6131H30.8V12.5316L31.1259 12.3687L31.2074 12.4502H31.2889L31.3704 12.6131L31.4519 12.3687H31.5333L31.6963 12.4502V12.5316H31.7778V12.6131H31.8593L32.1037 12.7761L31.9408 13.0205V13.102H32.1037V13.0205H32.1852L32.4296 13.102V13.265L33.8148 14.1613V14.5687L33.3259 14.9761L32.5111 14.8131L32.4296 14.7316H32.3482L32.5926 15.0576V15.302H32.5111L32.5926 15.6279L33 15.8724H33.0815V15.7909H33L32.7556 15.465L32.837 15.302L33.4074 15.5465L33.3259 15.1391L33.7333 14.7316L33.9778 14.8946L34.0593 14.6502L33.9778 14.4872L34.0593 13.9983L33.8963 13.8354V13.7539L34.3852 13.8354L34.5482 14.2428L34.3037 14.3242V14.4057L34.4667 14.6502H34.5482L34.6296 14.7316L35.9333 13.6724L36.0148 13.7539V13.9983H36.0963L36.1778 13.8354H36.5037L36.7482 13.5909L36.9111 13.7539L37.0741 13.6724L36.9926 13.3465L36.9111 13.265H36.8296L36.5852 12.9391L36.6667 12.7761L36.9926 13.1835L37.0741 13.102L38.2963 13.8354L38.3778 13.6724L38.2148 13.3465H38.0519L37.9704 13.265L38.0519 12.7761L37.9704 12.6946V12.5316L38.4593 11.3909H38.5408L38.6222 11.065H38.7852V11.2279L38.9482 11.3094L38.6222 11.4724L39.0296 11.6354V12.2872L39.3556 11.8798L39.1926 11.3909H39.5185V11.4724L39.6815 11.7168L39.6 12.1242L39.8445 11.7168L40.1704 11.7983L40.0074 11.8798L40.1704 11.7983L40.8222 12.2057L40.6593 11.9613V11.8798L40.4148 11.7168L40.3333 11.2279L40.4148 11.1465L41.4741 10.902V10.7391L41.3111 10.6576L41.3926 10.5761H41.3111V10.4946L41.3926 10.3317H41.4741L41.5556 10.4131L41.4741 10.0872L41.3926 10.0057L41.5556 9.92424L41.637 26.8724ZM32.6741 21.4946L33 21.5761L33.0815 21.4131V21.3317L32.6741 21.4946ZM31.4519 22.3909L31.5333 22.5539L32.6741 22.3909L32.7556 22.4724H32.837L32.9185 22.5539L33.5704 22.6354L33.7333 22.4724L33.4074 22.1465L33.0815 21.902H33L32.9185 21.8205L32.3482 21.9835L32.2667 21.8205L32.1037 21.7391V21.6576L32.2667 21.5761H32.0222L31.9408 21.4946H31.8593C31.8593 21.4946 31.4519 22.3909 31.4519 22.3909ZM29.4148 13.5909L29.4963 13.7539H29.5778H29.4963L29.4148 13.5909L29.4963 13.5094L29.4148 13.5909ZM28.763 19.1316L28.9259 19.0502L29.0074 19.2131L29.8222 18.8872L29.9037 19.0502L29.9852 18.8872L30.1482 18.8057L30.0667 18.5613L30.2296 18.0724L30.3926 17.9909H30.3111V17.9094H30.2296V17.7465H30.3111L30.2296 17.665L30.3926 17.5835L30.4741 17.665V17.5835L31.2074 17.502V17.4205H31.2889L31.3704 17.3391H31.2889V17.2576L30.4741 17.502H30.3111V17.4205L30.1482 17.3391V16.3613H30.2296L30.3111 16.2798H30.3926L30.8815 15.6279L30.7185 15.3835H30.4741V15.465L30.3111 15.5465V15.9539L29.6593 16.6872L29.5778 16.8502V17.1761H29.4963V17.4205L29.7408 17.5835V17.665L29.8222 17.7465L29.7408 17.9094L29.5778 18.1539H29.4963L29.4148 18.7242V18.8057L29.3333 19.0502L29.0074 19.1316V19.2946L29.0889 19.3761V19.4576H28.9259V19.3761H28.6815L28.6 19.4576C28.6 19.4576 28.763 19.1316 28.763 19.1316ZM30.7185 17.9909H30.5556V18.0724L30.8 18.3168C30.8 18.3168 30.7185 17.9909 30.7185 17.9909ZM32.4296 24.8354L32.7556 23.8576L32.2667 23.9391L31.9408 23.7761V23.8576H31.6148V23.7761H31.5333V23.9391H31.2889V23.8576H31.2074L31.1259 23.5316H30.963L30.8815 23.3687H30.963V23.2872L31.0445 22.9613H30.8815V23.0428H30.8V23.2057H30.637L31.0445 23.6131L30.963 23.6946H30.8815V23.5316V23.6131H30.8L30.7185 23.6946V23.8576H30.637L30.5556 23.7761V23.8576L30.4741 23.7761L30.3111 23.4502H30.0667L30.1482 23.3687V23.2872H30.0667L29.9852 23.1242L29.9037 23.0428V22.7168L29.4963 22.3909L29.1704 22.1465L29.0889 21.9835H29.0074V22.065H28.9259L28.8445 21.8205L28.763 21.902V22.065L29.1704 22.6354H29.3333L29.4148 22.7168V22.7983L29.8222 23.1242V23.2057H29.7408L29.5778 23.0428V23.1242L29.6593 23.2057L29.4963 23.6131H29.4148V23.8576L29.2519 23.7761L28.763 23.5316V23.3687L29.3333 23.2872V23.2057L29.1704 22.8798H29.0889L29.0074 22.7168H28.9259L28.6815 22.4724H28.6L28.437 22.065L28.2741 21.9835L27.7037 22.3094L27.2963 22.2279V22.4724L26.6445 23.1242H26.7259V23.2057L26.563 23.5316H26.4815L26.4 23.6946L25.8296 23.9391L25.9926 24.0205L28.437 23.5316L28.5185 23.6131H28.6L28.6815 23.6946L28.6 23.8576L28.6815 23.9391V24.102L28.437 24.3465H28.5185L28.6 24.4279L29.2519 24.5909L29.3333 24.7539L29.8222 24.9168L29.9037 24.8354V24.5909L30.0667 24.4279H30.4741L30.5556 24.5094L30.8815 24.7539L30.963 24.8354H32.1037L32.1852 24.9168L32.4296 24.8354ZM33.9778 28.4205L33.0815 26.3835H33L32.5926 25.6502H32.5111L32.9185 26.3835L32.837 26.465L33.2445 27.4428L33.4889 27.9316V27.8502H33.5704L33.6519 27.9316L33.5704 28.0131C33.5704 28.0131 33.9778 28.4205 33.9778 28.4205ZM34.7926 21.9835L35.2 22.7983H35.2815L35.363 22.8798H35.2815L35.2 23.2057H35.1185V23.4502L35.8519 23.6131V23.2057L35.7704 23.1242V23.0428H35.6889L35.2 21.8205L35.363 21.7391L35.4445 21.6576H35.5259V21.5761L35.9333 21.6576L35.6074 21.2502L35.037 21.3317L34.8741 21.4946H34.7926V21.5761L34.7111 21.7391C34.7111 21.7391 34.7926 21.9835 34.7926 21.9835ZM35.7704 22.5539V22.7168H35.8519L35.9333 22.6354L35.7704 22.5539ZM36.1778 25.8946H36.0148L35.2 25.1613H35.1185L35.037 25.0798L34.9556 25.2428L35.2815 25.8131H35.4445L35.6074 25.8946V26.2205H35.9333L36.1778 25.8946ZM36.3408 25.9761L36.2593 25.8131L36.3408 25.9761ZM39.3556 13.6724L39.5185 13.5909L39.2741 13.5094L39.1111 12.3687L39.0296 14.4872L38.9482 14.5687V14.6502L39.3556 14.0798C39.3556 14.0798 39.3556 13.6724 39.3556 13.6724ZM39.763 12.3687L39.6 12.2057L39.5185 12.0428V12.2057C39.5185 12.2057 39.763 12.3687 39.763 12.3687ZM39.763 12.0428V11.8798L39.6815 11.9613C39.6815 11.9613 39.763 12.0428 39.763 12.0428ZM40.9037 12.8576L40.8222 12.4502L40.7408 12.5316V12.7761C40.7408 12.7761 40.9037 12.8576 40.9037 12.8576ZM27.3778 22.8798V23.0428H27.2963L27.2148 23.2057H27.1333L27.0519 23.1242L27.2963 22.9613L27.3778 23.0428C27.3778 23.0428 27.3778 22.8798 27.3778 22.8798Z" fill="#32B325"/>
</g>
<defs>
<clipPath id="clip0">
<rect width="44" height="44.5704" fill="white" transform="translate(0 0.0649414)"/>
</clipPath>
</defs>
</svg>
