<svg width="40" height="41" viewBox="0 0 40 41" fill="none" xmlns="http://www.w3.org/2000/svg">
<path d="M39.8368 24.209C38.7617 33.0073 31.3457 42.2224 19.4538 40.7743C7.56194 39.3262 -1.34601 29.2993 0.167904 16.793C1.28688 7.55597 8.04464 -1.22034 19.3441 0.139989C24.6319 0.776272 26.6723 3.78216 26.3432 6.59058C25.7728 11.2201 21.5602 10.7154 21.0555 14.8403C20.6606 18.1095 22.8766 19.6892 24.7854 19.9306C30.0732 20.5668 30.3584 13.9627 35.0537 14.5331C38.9811 14.9939 40.5389 18.5044 39.8368 24.209Z" fill="#BF804A"/>
<path d="M33.9346 26.4033C35.7037 26.4033 37.1379 24.9691 37.1379 23.1999C37.1379 21.4308 35.7037 19.9966 33.9346 19.9966C32.1654 19.9966 30.7312 21.4308 30.7312 23.1999C30.7312 24.9691 32.1654 26.4033 33.9346 26.4033Z" fill="#FF3333"/>
<path d="M18.9275 8.45578C20.6966 8.45578 22.1308 7.02159 22.1308 5.25243C22.1308 3.48326 20.6966 2.04907 18.9275 2.04907C17.1583 2.04907 15.7241 3.48326 15.7241 5.25243C15.7241 7.02159 17.1583 8.45578 18.9275 8.45578Z" fill="#AD00AD"/>
<path d="M10.6996 12.0324C12.4688 12.0324 13.903 10.5982 13.903 8.82909C13.903 7.05992 12.4688 5.62573 10.6996 5.62573C8.93047 5.62573 7.49628 7.05992 7.49628 8.82909C7.49628 10.5982 8.93047 12.0324 10.6996 12.0324Z" fill="#F9CE1D"/>
<path d="M28.1643 35.7939C30.3455 35.7939 32.1136 34.0258 32.1136 31.8446C32.1136 29.6634 30.3455 27.8953 28.1643 27.8953C25.9831 27.8953 24.215 29.6634 24.215 31.8446C24.215 34.0258 25.9831 35.7939 28.1643 35.7939Z" fill="#FF7733"/>
<path d="M9.60254 31.4277C11.7837 31.4277 13.5519 29.6595 13.5519 27.4784C13.5519 25.2972 11.7837 23.5291 9.60254 23.5291C7.42138 23.5291 5.6532 25.2972 5.6532 27.4784C5.6532 29.6595 7.42138 31.4277 9.60254 31.4277Z" fill="#3399FF"/>
<path d="M9.97024 18.0798C10.1264 16.0499 8.60744 14.2779 6.5776 14.1217C4.54775 13.9656 2.77566 15.4845 2.61952 17.5143C2.46337 19.5442 3.9823 21.3163 6.01215 21.4724C8.04199 21.6286 9.81409 20.1096 9.97024 18.0798Z" fill="#6F00FF"/>
<path d="M17.8523 38.2079C20.2879 38.2079 22.2624 36.2334 22.2624 33.7978C22.2624 31.3622 20.2879 29.3877 17.8523 29.3877C15.4167 29.3877 13.4422 31.3622 13.4422 33.7978C13.4422 36.2334 15.4167 38.2079 17.8523 38.2079Z" fill="#32A658"/>
</svg>
