<svg width="40" height="53" viewBox="0 0 40 53" fill="none" xmlns="http://www.w3.org/2000/svg">
<path d="M13.9892 25.1259C13.9892 27.2864 12.2163 29.01 10.0062 29.01C7.8204 29.01 6.02319 27.2622 6.02319 25.1259C6.02319 22.9896 7.79611 21.2417 10.0062 21.2417C12.192 21.2417 13.9892 22.9653 13.9892 25.1259Z" fill="#EF9A9A"/>
<path d="M40 25.1259C40 27.2864 38.2028 29.01 36.017 29.01C33.8069 29.01 32.034 27.2622 32.034 25.1259C32.034 22.9896 33.8069 21.2417 36.017 21.2417C38.2271 21.2417 40 22.9653 40 25.1259Z" fill="#EF9A9A"/>
<path d="M8.50053 4.24832C8.50053 6.6031 6.60618 8.49663 4.25039 8.49663C1.89459 8.49663 0.000244141 6.6031 0.000244141 4.24832C0.000244141 1.89353 1.89459 0 4.25039 0C6.60618 0 8.50053 1.89353 8.50053 4.24832Z" fill="white"/>
<path d="M22.9995 12.7449C15.1792 12.7449 8.84045 19.0809 8.84045 26.8978V41.0508H37.1585V26.8978C37.1828 19.0809 30.844 12.7449 22.9995 12.7449Z" fill="#F1C4A7"/>
<path d="M26.9095 26.1938H0C0 40.6624 11.9733 52.3877 26.7395 52.3877C26.7638 52.3877 26.788 52.3877 26.8123 52.3877C26.8366 52.3877 26.8609 52.3877 26.8852 52.3877C34.1226 52.3877 39.9756 46.5372 39.9756 39.3029C39.9999 32.0444 34.1469 26.1938 26.9095 26.1938Z" fill="white"/>
<path d="M25.8406 30.5393C25.8406 31.9959 24.5777 33.3796 22.9991 33.3796C21.4448 33.3796 20.1576 31.9959 20.1576 30.5393H25.8406Z" fill="#212121"/>
<path d="M10.3219 4.17529C10.2733 4.17529 10.3219 4.24812 10.079 4.24812V21.0715H37.1828C37.1828 11.8465 25.1124 4.17529 10.3219 4.17529Z" fill="#E53935"/>
<path d="M17.3408 23.3535C17.3408 23.9362 16.855 24.4217 16.2722 24.4217C15.6893 24.4217 15.2036 23.9362 15.2036 23.3535C15.2036 22.7709 15.6893 22.2854 16.2722 22.2854C16.8793 22.2854 17.3408 22.7709 17.3408 23.3535Z" fill="#212121"/>
<path d="M28.6823 23.3535C28.6823 23.9362 29.168 24.4217 29.7509 24.4217C30.3337 24.4217 30.8195 23.9362 30.8195 23.3535C30.8195 22.7709 30.3337 22.2854 29.7509 22.2854C29.1437 22.2854 28.6823 22.7709 28.6823 23.3535Z" fill="#212121"/>
<path d="M37.1825 12.7449C38.3483 12.7449 39.2955 13.6916 39.2955 14.8569V19.1052C39.2955 20.2705 38.3483 21.2172 37.1825 21.2172H8.84016C7.67441 21.2172 6.72723 20.2705 6.72723 19.1052V14.8569C6.72723 13.6916 7.67441 12.7449 8.84016 12.7449H37.1825Z" fill="white"/>
<path d="M26.9094 26.1939C26.9094 27.9418 25.1608 29.3741 23.0236 29.3741C20.8621 29.3741 19.1378 27.9418 19.1378 26.1939C19.1378 24.4217 20.8864 23.0137 23.0236 23.0137C25.1608 22.9895 26.9094 24.4217 26.9094 26.1939Z" fill="#EF9A9A"/>
</svg>
