<svg width="40" height="51" viewBox="0 0 40 51" fill="none" xmlns="http://www.w3.org/2000/svg">
<g clip-path="url(#clip0)">
<path d="M0.0840336 43.2535C1.2605 43.2535 2.18487 44.1774 2.18487 45.3532C2.18487 46.5291 1.2605 47.4529 0.0840336 47.4529H0V48.9647H0.0840336C1.17647 48.9647 2.10084 49.8886 2.18487 50.9804H3.61345C3.69748 49.8886 4.62185 49.0487 5.71429 49.0487C6.80672 49.0487 7.73109 49.8886 7.81513 50.9804H9.32773C9.41177 49.8886 10.3361 49.0487 11.4286 49.0487C12.521 49.0487 13.4454 49.8886 13.5294 50.9804H15.042C15.1261 49.8886 16.0504 49.0487 17.1429 49.0487C18.2353 49.0487 19.1597 49.8886 19.2437 50.9804H20.7563C20.8403 49.8886 21.7647 49.0487 22.8571 49.0487C23.9496 49.0487 24.874 49.8886 24.958 50.9804H26.4706C26.5546 49.8886 27.479 49.0487 28.5714 49.0487C29.6639 49.0487 30.5882 49.8886 30.6723 50.9804H32.1849C32.2689 49.8886 33.1933 49.0487 34.2857 49.0487C35.3782 49.0487 36.3025 49.8886 36.3866 50.9804H37.8151C37.8992 49.8886 38.8235 48.9647 39.916 48.9647H40V47.4529H39.916C38.7395 47.4529 37.8151 46.5291 37.8151 45.3532C37.8151 44.1774 38.7395 43.2535 39.916 43.2535H40V41.7418H39.916C38.7395 41.7418 37.8151 40.8179 37.8151 39.6421C37.8151 38.4663 38.7395 37.5424 39.916 37.5424H40V36.1146H39.916C38.7395 36.1146 37.8151 35.1907 37.8151 34.0149C37.8151 32.8391 38.7395 31.9152 39.916 31.9152H40V30.4035H39.916C38.7395 30.4035 37.8151 29.4796 37.8151 28.3038C37.8151 27.128 38.7395 26.2041 39.916 26.2041H40V24.6923H39.916C38.7395 24.6923 37.8151 23.7685 37.8151 22.5926C37.8151 21.4168 38.7395 20.4929 39.916 20.4929H40V18.9812H39.916C38.7395 18.9812 37.8151 18.0573 37.8151 16.8815C37.8151 15.7057 38.7395 14.7818 39.916 14.7818H40V13.27H39.916C38.7395 13.27 37.8151 12.3462 37.8151 11.1703C37.8151 9.99451 38.7395 9.07065 39.916 9.07065H40V7.55887H39.916C38.7395 7.55887 37.8151 6.63501 37.8151 5.45919C37.8151 4.28336 38.7395 3.3595 39.916 3.3595H40V1.93171H39.916C38.8235 1.93171 37.8992 1.09184 37.8151 0H36.3866C36.3025 1.09184 35.3782 1.93171 34.2857 1.93171C33.1933 1.93171 32.2689 1.09184 32.1849 0H30.6723C30.5882 1.09184 29.6639 1.93171 28.5714 1.93171C27.479 1.93171 26.5546 1.09184 26.4706 0H24.958C24.874 1.09184 23.9496 1.93171 22.8571 1.93171C21.7647 1.93171 20.8403 1.09184 20.7563 0H19.3277C19.2437 1.09184 18.3193 1.93171 17.2269 1.93171C16.1345 1.93171 15.2101 1.09184 15.1261 0H13.6134C13.5294 1.09184 12.605 1.93171 11.5126 1.93171C10.4202 1.93171 9.4958 1.09184 9.41176 0H7.89916C7.81513 1.09184 6.89076 1.93171 5.79832 1.93171C4.70588 1.93171 3.86555 1.09184 3.69748 0H2.18487C2.10084 1.09184 1.17647 1.93171 0.0840336 1.93171H0V3.44349H0.0840336C1.2605 3.44349 2.18487 4.36735 2.18487 5.54317C2.18487 6.719 1.2605 7.55887 0.0840336 7.55887H0V9.07065H0.0840336C1.2605 9.07065 2.18487 9.99451 2.18487 11.1703C2.18487 12.3462 1.2605 13.27 0.0840336 13.27H0V14.7818H0.0840336C1.2605 14.7818 2.18487 15.7057 2.18487 16.8815C2.18487 18.0573 1.2605 18.9812 0.0840336 18.9812H0V20.4929H0.0840336C1.2605 20.4929 2.18487 21.4168 2.18487 22.5926C2.18487 23.7685 1.2605 24.6923 0.0840336 24.6923H0V26.2041H0.0840336C1.2605 26.2041 2.18487 27.128 2.18487 28.3038C2.18487 29.4796 1.2605 30.4035 0.0840336 30.4035H0V31.9152H0.0840336C1.2605 31.9152 2.18487 32.8391 2.18487 34.0149C2.18487 35.1907 1.2605 36.1146 0.0840336 36.1146H0V37.6264H0.0840336C1.2605 37.6264 2.18487 38.5502 2.18487 39.7261C2.18487 40.9019 1.2605 41.8258 0.0840336 41.8258H0V43.3375C0 43.2535 0.0840336 43.2535 0.0840336 43.2535Z" fill="white"/>
<path d="M4.70587 3.92163H35.2941V47.0589H4.70587V3.92163Z" fill="#00ABEC"/>
<path d="M27.2213 47.0719L27.2213 46.5495C27.2213 42.4555 23.8699 39.106 19.7737 39.106C15.6775 39.106 12.326 42.9649 12.326 47.0588" fill="#FF7733"/>
<path d="M19.6806 13.0535C21.1202 13.0535 22.2873 11.8871 22.2873 10.4483C22.2873 9.00942 21.1202 7.84302 19.6806 7.84302C18.241 7.84302 17.0739 9.00942 17.0739 10.4483C17.0739 11.8871 18.241 13.0535 19.6806 13.0535Z" fill="white"/>
<path d="M27.2213 27.9405L19.6806 13.0535L12.233 27.9405H27.2213Z" fill="#FF7733"/>
<path d="M26.849 31.5692C25.918 31.5692 25.0802 31.0109 24.8009 29.9874C24.1492 27.7544 22.1011 26.2657 19.7737 26.2657C17.4463 26.2657 15.3982 27.7544 14.7466 29.9874C14.3742 31.104 13.164 31.7553 11.9537 31.3831C10.8366 31.0109 10.1849 29.8014 10.5573 28.5918C11.8606 24.4978 15.5844 21.7996 19.7737 21.7996C23.963 21.7996 27.7799 24.4978 28.9902 28.5918C29.3625 29.7083 28.7109 31.0109 27.5937 31.3831C27.3144 31.5692 27.1282 31.5692 26.849 31.5692Z" fill="white"/>
<path d="M29.6418 26.3589L25.8249 30.1737C25.4525 30.5459 25.2664 31.0111 25.2664 31.5694C25.2664 32.6859 26.1973 33.5233 27.2214 33.5233C27.7799 33.5233 28.2454 33.3372 28.6178 32.965C31.0383 30.6389 29.6418 26.3589 29.6418 26.3589Z" fill="#9B643D"/>
<path d="M13.6294 30.1737L9.8125 26.3589C9.8125 26.3589 8.41607 30.6389 10.8366 32.965C11.2089 33.3372 11.6744 33.5233 12.233 33.5233C13.3501 33.5233 14.188 32.5928 14.188 31.5694C14.188 31.0111 14.0018 30.5459 13.6294 30.1737Z" fill="#9B643D"/>
<path d="M19.6806 39.0128C23.7938 39.0128 27.1282 35.6802 27.1282 31.5693C27.1282 27.4583 23.7938 24.1257 19.6806 24.1257C15.5674 24.1257 12.233 27.4583 12.233 31.5693C12.233 35.6802 15.5674 39.0128 19.6806 39.0128Z" fill="#9B643D"/>
<path d="M19.6806 26.731C21.2633 26.731 22.7528 26.2658 23.963 25.4284C22.7528 24.591 21.2633 24.1257 19.6806 24.1257C18.098 24.1257 16.6085 24.591 15.3983 25.4284C16.7016 26.2658 18.1911 26.731 19.6806 26.731Z" fill="#7C5539"/>
<path d="M18.1911 29.4294C18.1911 30.2668 17.5394 30.9181 16.7016 30.9181C15.8637 30.9181 15.212 30.2668 15.212 29.4294C15.212 28.592 15.8637 27.9407 16.7016 27.9407C17.5394 27.9407 18.1911 28.592 18.1911 29.4294Z" fill="#332F2E"/>
<path d="M24.2423 29.4294C24.2423 30.2668 23.5906 30.9181 22.7528 30.9181C21.9149 30.9181 21.2632 30.2668 21.2632 29.4294C21.2632 28.592 21.9149 27.9407 22.7528 27.9407C23.5906 27.9407 24.2423 28.592 24.2423 29.4294Z" fill="#332F2E"/>
<path d="M24.2423 32.4998C24.2423 35.0119 22.1942 37.0589 19.6806 37.0589C17.1671 37.0589 15.119 35.0119 15.119 32.4998H24.2423Z" fill="white"/>
<path d="M24.8008 33.5233H14.6534C14.9327 32.2207 16.0499 31.3833 17.3532 31.3833H22.008C23.3113 31.3833 24.4285 32.3137 24.8008 33.5233Z" fill="#7C5539"/>
</g>
<defs>
<clipPath id="clip0">
<rect width="40" height="50.9804" fill="white"/>
</clipPath>
</defs>
</svg>
