<svg width="46" height="46" viewBox="0 0 46 46" fill="none" xmlns="http://www.w3.org/2000/svg">
<g clip-path="url(#clip0)">
<path d="M3.48705 34.7225C3.19028 34.2773 2.9677 33.8322 2.67093 33.3128L3.48705 33.5354V34.7225ZM2.89351 30.0483L3.11609 31.3096L1.8548 31.5322C1.55802 30.8644 1.33544 30.2709 1.11286 29.6031L2.15157 29.3806L2.89351 30.0483ZM9.79351 39.3225L8.30964 36.6515L4.00641 34.7967L4.82254 32.0515V27.6741L5.11931 27.7483V29.3806H5.19351L5.49028 29.158L5.86125 27.9709L5.78705 26.4128L5.93544 25.0031C5.93544 25.0031 5.93544 24.9289 5.86125 24.9289L3.56125 24.1128L3.04189 23.1483L1.55802 22.6289L1.26125 21.4418L5.56447 18.5483H5.71286V18.4741L2.74512 17.4354H2.67093L1.48383 18.8451L0.593506 18.9935C1.03867 16.3225 2.00318 13.7257 3.33867 11.4257L6.52899 12.2418L8.38383 16.0257L12.7613 20.4773L14.3935 23.816H14.4677L16.8419 22.1838V22.1096L17.0645 20.4031L20.9967 16.916V16.8418L20.5516 15.5806L21.8129 14.0225L22.0354 14.3935L21.2193 15.8031V15.8773L21.7387 16.7677L21.2193 18.5483V18.6225H21.2935L22.3322 18.6967H22.4064L24.4096 16.5451V16.4709L24.3354 13.2806L24.929 13.1322L25.3 15.6547L24.7064 19.1418L23.5935 19.7354V19.8096L24.3354 21.1451L26.1161 21.9612L28.7871 26.0418L36.1322 29.6773L39.0258 29.3064V29.2322L37.6903 25.5225L34.7967 23.4451L34.0548 20.9225L35.1677 18.6225L37.6161 17.2128L39.1 11.2773V11.2031L34.8709 7.34507H34.7967L31.9032 7.64185L30.4193 6.67733H30.3451L28.5645 7.64185L27.7483 9.19991L25.2258 10.758H23.9645L25.3742 9.19991L26.1161 6.52894L26.6354 7.41927H26.7096L27.3774 7.19669V7.12249L26.9322 6.08378L29.4548 6.45475C29.4548 6.45475 29.529 6.45475 29.529 6.38056L29.7516 5.49023V5.41604L29.3064 4.59991H29.2322L28.3419 4.97088V4.30314C28.3419 4.30314 28.3419 4.22894 28.2677 4.22894L26.1903 4.08056H26.1161L25.3 5.26765L24.7806 5.71281L23.8161 4.7483V3.70959L24.8548 4.45152H24.929L25.7451 3.11604V3.04185L23.5193 1.85475H23.4451L21.7387 3.19023V3.26443L22.1838 4.00636L20.1806 5.11927L18.7709 4.67411H18.6967L17.2129 5.41604H14.4677L11.3516 6.30636L11.2774 6.38056L10.9064 9.05152H4.74834C8.90318 3.5612 15.5064 -8.75896e-05 22.9258 -8.75896e-05C35.6871 -0.0742811 46 10.1644 46 22.8515C46 35.4644 35.6871 45.7773 23.0742 45.7773C17.8806 45.7773 13.1322 44.0709 9.27415 41.1031C9.27415 41.1031 9.79351 39.3225 9.79351 39.3225Z" fill="#24B6E9"/>
<path d="M0.519355 18.7711L1.40968 18.6227L2.59677 17.213H2.67097L5.63871 18.2517C5.63871 18.2517 5.7129 18.3259 5.63871 18.3259C5.56452 18.3259 5.56452 18.4001 5.56452 18.3259H5.49032L1.1871 21.2195L1.48387 22.4066L2.96774 22.9259L3.4871 23.8904L5.7871 24.7066C5.7871 24.7066 5.86129 24.7066 5.86129 24.7808L5.7129 26.1904L5.7871 27.7485L5.41613 28.9356L5.19355 29.2324H5.11936V27.6001L4.82258 27.5259V31.9033L4.00645 34.6485L8.30968 36.5033L9.79355 39.1743V39.2485L9.2 41.0291C6.9 39.2485 4.89677 37.0969 3.4129 34.6485V33.4614L2.59677 33.2388C2.3 32.6453 2.00323 32.1259 1.78065 31.5324L3.04194 31.3098L2.81936 30.0485L2.07742 29.3066L1.03871 29.5291C0.370968 27.3775 0 25.0775 0 22.7775C0.148387 21.4421 0.296774 20.1066 0.519355 18.7711ZM11.3516 6.30657C11.3516 6.23237 11.3516 6.23237 11.3516 6.30657L14.4677 5.34205H17.2129L18.6968 4.60012H18.771L20.1806 5.04528L22.1839 3.93237L21.7387 3.19044V3.11625L23.4452 1.78076H23.5194L25.7452 2.96786V3.04205L24.929 4.37754H24.8548L23.8161 3.6356V4.67431L24.7807 5.63883L25.3742 5.26786L26.1903 4.08076H26.2645L28.3419 4.22915C28.3419 4.22915 28.4161 4.22915 28.4161 4.30334V4.97108L29.3065 4.60012H29.3806L29.8258 5.41625V5.49044L29.6032 6.38076C29.6032 6.38076 29.6032 6.45496 29.529 6.45496L27.0065 6.08399L27.4516 7.1227V7.19689L26.7097 7.49367H26.6355L26.1161 6.60334L25.3742 9.27431L23.9645 10.8324H25.2258L27.6742 9.27431L28.4903 7.71625L30.271 6.75173H30.3452L31.829 7.71625L34.7226 7.41947H34.7968L39.1 11.2775V11.3517L37.6161 17.2872L35.1677 18.6969L34.0548 20.9969L34.7968 23.5195L37.6903 25.5969L39.0258 29.3066V29.3808L36.1323 29.7517L28.7871 26.1162L26.1161 22.0356L24.3355 21.2195L23.5936 19.884V19.8098L24.7065 19.2162L25.3 15.7291L24.8548 13.1324L24.2613 13.2808L24.3355 16.4711V16.5453L22.2581 18.6227H22.1839L21.1452 18.5485H21.071V18.4743L21.5903 16.6937L21.071 15.8033V15.7291L21.8871 14.3195L21.6645 13.9485L20.4032 15.5066L20.8484 16.7679V16.8421L16.9161 20.3291L16.7677 22.0356V22.1098L14.3936 23.7421H14.3194L12.6871 20.4033L8.30968 15.9517L6.45484 12.1679L3.26452 11.3517C3.70968 10.5356 4.22903 9.79366 4.82258 9.05173H10.9806C10.9806 9.05173 11.3516 6.30657 11.3516 6.30657Z" fill="#028F4A"/>
<path opacity="0.15" d="M44.2935 14.2451C45.4064 16.9161 45.9999 19.8096 45.9999 22.8516C45.9999 35.4645 35.687 45.7774 23.0741 45.7774C14.987 45.7774 7.86446 41.5483 3.78381 35.2419C7.71607 37.4677 12.3161 38.729 17.1387 38.729C31.2354 38.729 42.8838 27.9709 44.2935 14.2451Z" fill="black"/>
</g>
<defs>
<clipPath id="clip0">
<rect width="46" height="45.7774" fill="white"/>
</clipPath>
</defs>
</svg>
