<svg width="44" height="69" viewBox="0 0 44 69" fill="none" xmlns="http://www.w3.org/2000/svg">
<path d="M12.3518 68.0143L8.37591 64.6745L5.19519 68.0143V29.7219H12.3518V68.0143Z" fill="#D81B60"/>
<path opacity="0.2" d="M39.2819 61.4055H1.46667V1.9436H39.2819C41.8795 1.9436 44 4.04641 44 6.66168V56.7051C44 59.3026 41.8795 61.4055 39.2819 61.4055Z" fill="#424242"/>
<path d="M37.8153 59.4619H0V0H37.8153C40.4128 0 42.5333 2.10281 42.5333 4.71807V54.7614C42.5333 57.3414 40.4128 59.4619 37.8153 59.4619Z" fill="#802B83"/>
<path d="M0 0H5.19518V59.4619H0V0Z" fill="#9B51A0"/>
<path d="M11.5566 12.8289H34.7052V15.4971H11.5566V12.8289ZM14.8611 17.865H31.3831V20.5333H14.8611V17.865Z" fill="white"/>
</svg>
