<svg id="Layer_1" xmlns="http://www.w3.org/2000/svg" xmlns:xlink="http://www.w3.org/1999/xlink" viewBox="0 0 67 44.6"><style>.st0{opacity:.14}.st1{fill:url(#SVGID_1_)}.st2{fill:#f0e540}.st3{opacity:.53}.st4{fill:#efb53e}</style><symbol id="New_Symbol_161" viewBox="-33.6 -22.6 67 44.6"><g class="st0"><linearGradient id="SVGID_1_" gradientUnits="userSpaceOnUse" x1="-197.036" y1="-190.734" x2="-133.666" y2="-190.734" gradientTransform="rotate(-3.201 3263.045 -3024.676) scale(.99996)"><stop offset="0" stop-color="#010101"/><stop offset="1" stop-color="#010101" stop-opacity="0"/></linearGradient><path class="st1" d="M3.6-22.6c.3 3.4.5 6.8.8 10.1-12.6-1.7-25.3-4.2-38-7.3.4 11.1.8 22.1 1.1 33.2 12.9-1.6 25.7-4 38.4-7.1.2 2.8.4 5.5.7 8.3C14.4 8.2 22.2 1.4 30-5.7c-8.8-5.4-17.5-11-26.4-16.9z"/></g><path class="st2" d="M8.3-15.5c.1 12.5.3 25 .4 37.4C16.9 16 25.2 9.8 33.4 3.2 25-2.7 16.7-9 8.3-15.5z"/><path class="st2" d="M12.7-4.4C-1.2-7.2-15.1-10.8-29-15.2l-1.2 33.3c14.1-.8 28.1-2.5 42.2-5 .2-5.9.4-11.7.7-17.5z"/><g class="st3"><path class="st4" d="M-29.8 5.4c0 .4 63.1-1.7 63.1-2.2C25.1-2.7 16.7-9 8.3-15.5c0 3.4.1 6.8.1 10.2-12.5-2.6-24.9-5.9-37.4-9.9l-.8 20.6z"/></g></symbol><use xlink:href="#New_Symbol_161" width="67" height="44.6" x="-33.6" y="-22.6" transform="matrix(1 0 0 -1 33.59 21.93)" overflow="visible"/></svg>