<svg xmlns="http://www.w3.org/2000/svg" xmlns:xlink="http://www.w3.org/1999/xlink" width="440" height="270" viewBox="0 0 440 270"><defs><style>.cls-1{opacity:.15}.cls-2{fill:#26a89b}.cls-3{fill:#34875d}.cls-11,.cls-14,.cls-15,.cls-17,.cls-22,.cls-26,.cls-30,.cls-31,.cls-4,.cls-40,.cls-43,.cls-44,.cls-46,.cls-9{fill:none}.cls-4{stroke:#b99960}.cls-11,.cls-14,.cls-15,.cls-17,.cls-26,.cls-31,.cls-4,.cls-40,.cls-43,.cls-44,.cls-9{stroke-linecap:round}.cls-11,.cls-14,.cls-4,.cls-9{stroke-linejoin:round}.cls-14,.cls-4{stroke-width:9.76px}.cls-5{fill:#d6ae76}.cls-6{fill:#b99960}.cls-7{fill:#914295}.cls-8{opacity:.1}.cls-9{stroke:#f0b21c;stroke-width:6.97px}.cls-10{fill:#fff}.cls-11{stroke:#858585;stroke-width:4.94px}.cls-12{fill:#333}.cls-13{fill:#b46d3d}.cls-14{stroke:#d6ae76}.cls-15{stroke:#c92e7c}.cls-15,.cls-17,.cls-22,.cls-26,.cls-30,.cls-31,.cls-40,.cls-43,.cls-44,.cls-46{stroke-miterlimit:10}.cls-15,.cls-17{stroke-width:8.78px}.cls-16{fill:#9b643d}.cls-17{stroke:#ff3295}.cls-18{fill:#c92e7c}.cls-19{fill:#332e2e}.cls-20{fill:#ff3295}.cls-21{fill:#761436}.cls-22,.cls-30{stroke:#fff}.cls-22{stroke-width:.63px}.cls-23{fill:#fdd500}.cls-24{fill:#009194}.cls-25{fill:#00b59a}.cls-26{stroke:#009194}.cls-26,.cls-31{stroke-width:9.53px}.cls-27{fill:#1b36ab}.cls-28{fill:#fadcbc}.cls-29{fill:#0790e6}.cls-30{stroke-width:.9px}.cls-31{stroke:#00b59a}.cls-32{fill:#f47455}.cls-33{fill:#211c1c}.cls-34{fill:#00abe9}.cls-35{fill:#4859b9}.cls-36{fill:#c36e2c}.cls-37{fill:#ffdf00}.cls-38{fill:#da4637}.cls-39{fill:#48b980}.cls-40{stroke:#3251ff}.cls-40,.cls-44{stroke-width:9.1px}.cls-41{fill:#2b46db}.cls-42{fill:#e0bb95}.cls-43{stroke:#e0bb95;stroke-width:4.83px}.cls-44{stroke:#2b46db}.cls-45{fill:#3251ff}.cls-46{stroke:#332e2e;stroke-width:1.2px}</style><symbol id="New_Symbol_167" data-name="New Symbol 167" viewBox="0 0 438.14 269.73"><ellipse class="cls-1" cx="184.87" cy="259.39" rx="55.98" ry="4.33"/><ellipse class="cls-1" cx="115.07" cy="255.32" rx="55.98" ry="4.33"/><path class="cls-2" d="M140.95 181.58h22.03v22.04h-22.03z"/><path class="cls-3" d="M151.26 187.72v-6.15h-2.8v6.15h-7.51v2.8h7.51v13.09h2.8v-13.09h11.73v-2.8h-11.73z"/><ellipse class="cls-1" cx="343.54" cy="247.15" rx="94.59" ry="4.33"/><path class="cls-4" d="M369.22 159.59v84.47M268.55 159.87v84.48"/><path class="cls-5" d="M282.24 75c0 17.67.77 49.46.77 49.46h73.86a27.66 27.66 0 0 1 27.66 27.66v1.54a27.66 27.66 0 0 1-27.66 27.66H283a27.66 27.66 0 0 1-27.66-27.66l-.12-67.59c.01-17.92 27.02-25.74 27.02-11.07z"/><path class="cls-6" d="M356.87 177.09H283a27.8 27.8 0 0 1-4.95-.45 37.15 37.15 0 0 1-6.52 2.2 27.54 27.54 0 0 0 11.47 2.49h73.86"/><path class="cls-7" d="M297.32 123.86h44.26v57.51h-44.26z"/><path class="cls-8" d="M319.74 181.37h21.84v-57.51h-32.03l10.19 57.51z"/><path class="cls-9" d="M343.75 167.98h-48.02"/><path class="cls-10" d="M255.23 136.77c18.51-26 14.2-41.53-.15-46.74z"/><path class="cls-11" d="M264.29 58l.08-15.62a5.22 5.22 0 0 1 5.23-5.18l15.62.08a5.22 5.22 0 0 0 5.23-5.18v-6.94a5.22 5.22 0 0 1 5.28-5.16l10.41.05"/><path class="cls-11" d="M264.35 47h-9a5.22 5.22 0 0 1-5.18-5.23v-8.1a5.22 5.22 0 0 1 5.23-5.18l12.15.06a5.22 5.22 0 0 0 5.23-5.18L273 4.86"/><path class="cls-11" d="M273 17.65l-9.32-.11a5.22 5.22 0 0 1-5.18-5.23l.05-9.84M286.17 38.25v5.21a5.22 5.22 0 0 0 5.18 5.23l10.85.06"/><path class="cls-5" d="M282.18 74c.09-17.67-18.81-21.12-25.37-14.63 0 0-16.18 8.36-26.2 16S226.69 90 233.6 90l31.47.21c8.24.06 17.06-5.76 17.11-16.21z"/><path class="cls-10" d="M248.38 73.87A4.61 4.61 0 0 0 253 78.5a4.61 4.61 0 0 0 4.63-4.59 4.61 4.61 0 0 0-4.63-4.63 4.61 4.61 0 0 0-4.63 4.58z"/><path class="cls-12" d="M250.74 72.53a2.21 2.21 0 0 0-.84 3 2.21 2.21 0 0 0 3 .84 2.21 2.21 0 0 0 .84-3 2.21 2.21 0 0 0-3-.84z"/><path class="cls-13" d="M220.63 88.84a5.54 5.54 0 0 0 5.55-5.52 5.54 5.54 0 0 0-5.52-5.56 5.53 5.53 0 0 0-5.55 5.52 5.54 5.54 0 0 0 5.52 5.56z"/><path class="cls-14" d="M281.56 159.87v84.48M355.91 168.88v75.47"/><path class="cls-10" d="M367.76 222.6v33.05h10.1V222.6"/><path class="cls-15" d="M393.49 169.63c5.44.44 18.58 2.22 17.27 12.89-.81 6.64-8 10.12-13 12.21"/><circle class="cls-16" cx="398.04" cy="195.06" r="7.34"/><path class="cls-17" d="M364.35 169.63c-5.44.44-16.3 2.22-15 12.89.81 6.64 5.78 10.12 10.72 12.21"/><circle class="cls-16" cx="361.18" cy="195.06" r="7.34"/><path class="cls-10" d="M392.08 222.6v33.05h-10.09V222.6"/><path class="cls-18" d="M392.08 222.6v17.56h-10.09V222.6"/><ellipse class="cls-1" cx="383.76" cy="265.84" rx="43.77" ry="3.9"/><path class="cls-19" d="M381.3 253.81H393c3.9 7.57 14 7.57 15.38 2.07 0 0 5.39 10.43-18.82 8.95-5.73-.36-10.27-5.62-8.26-11.02z"/><path class="cls-18" d="M399.42 209.86a19.41 19.41 0 1 1-38.82 0v-26.8a19.41 19.41 0 1 1 38.82 0z"/><path class="cls-20" d="M391.36 209.86c0 10.72-.63 19.41-11.36 19.41a19.41 19.41 0 0 1-19.41-19.41v-26.8A19.41 19.41 0 0 1 380 163.64c10.72 0 11.36 8.69 11.36 19.41z"/><path class="cls-18" d="M402.3 126.21s-28.26-26-42.82-32.95c0 0 12.36 21.68 4 31.38z"/><path class="cls-20" d="M390.17 126.21s-16.13-26-30.68-32.95c0 0 12.36 21.68 4 31.38z"/><path class="cls-21" d="M366.64 160.77a12.82 12.82 0 0 0 3.58-11.19 12.82 12.82 0 0 0-14.77 14.77 12.82 12.82 0 0 0 11.19-3.58zM395.46 160.77a12.82 12.82 0 0 1-3.58-11.19 12.82 12.82 0 0 1 14.77 14.77 12.82 12.82 0 0 1-11.19-3.58z"/><path class="cls-21" d="M367.34 159.05a8.18 8.18 0 0 1 1.2-1.28c4.1-3.46 9.46-6.45 15.07-5.91a22.76 22.76 0 0 1 12.55 4.76 20.4 20.4 0 1 0-28.83 2.44z"/><path class="cls-16" d="M400 144.23a19.41 19.41 0 0 1-19.41 19.41 19.41 19.41 0 0 1-19.41-19.41 19.41 19.41 0 0 1 19.41-19.41A19.41 19.41 0 0 1 400 144.23z"/><path class="cls-10" d="M375.59 152.56a8.53 8.53 0 0 0 16.35-.55z"/><circle class="cls-19" cx="372.81" cy="141.46" r="3.34"/><path class="cls-21" d="M365.78 129c-5.91 2.7-6.49 7.69-3.13 8.66 2.11 2.06 8 6.71 34-4.93 0 0-9.23-3.87-12.59-4.85z"/><path class="cls-16" d="M382.02 150.21h-2.86l-.63-4.12h4.12l-.63 4.12z"/><circle class="cls-19" cx="388.63" cy="141.46" r="3.34"/><rect class="cls-10" x="359.03" y="123.11" width="43.75" height="9.91" rx="2.59" ry="2.59"/><circle class="cls-10" cx="356.48" cy="90.02" r="4.16"/><path class="cls-18" d="M367.76 222.6v17.56h10.1V222.6"/><path class="cls-19" d="M378.55 253.81h-11.7c-3.9 7.57-14 7.57-15.38 2.07 0 0-5.39 10.43 18.82 8.95 5.71-.36 10.27-5.62 8.26-11.02z"/><path class="cls-22" d="M380.15 164.78v51.86"/><path class="cls-18" d="M406.97 228.98h-53.92l8.52-18.43h36.87l8.53 18.43z"/><path class="cls-20" d="M398.03 228.98h-44.98l8.52-18.43h31.49l4.97 18.43z"/><path class="cls-19" d="M360.6 201.02h38.82v9.7H360.6z"/><path class="cls-16" d="M361.79 141.37l-6.43-8.73s-3.67 22.5 8.72 19.74zM398.5 141.37l6.42-8.73s3.67 22.5-8.71 19.74z"/><path class="cls-23" d="M375.09 200.36h10.1v11.02h-10.1z"/><path class="cls-24" d="M66.68 216.6h-58l9.17-18.43h39.66l9.17 18.43z"/><ellipse class="cls-1" cx="50.52" cy="252.4" rx="43.77" ry="3.9"/><path class="cls-10" d="M50.89 208.87l-.49 34.48-10.54-.15.5-34.48M38.82 208.8l-.5 34.48-10.54-.15.5-34.48"/><path class="cls-25" d="M27.59 227.37l.28-19.14 11.37.16-.27 19.15-11.38-.17z"/><path class="cls-19" d="M27.09 241.2l12.21.18c4 8 14.49 8.11 16 2.39 0 0 5.47 11-19.77 9-5.95-.41-10.61-5.97-8.44-11.57z"/><path class="cls-24" d="M50.89 208.87l-.26 18.31-10.53-.15.26-18.31"/><path class="cls-19" d="M39.17 241.27l12.21.18c4 8 14.49 8.11 16 2.39 0 0 5.47 11-19.77 9-5.96-.41-10.61-5.97-8.44-11.57z"/><path class="cls-26" d="M86.94 148.55s-11.13 31.62-40.71 5.7"/><path class="cls-27" d="M77 123c-.21-.86-.8-2.95-.31-3.8l-.9.69c-.51.21-.31-.57-.4.16a4.93 4.93 0 0 0 .27 1.31l.49 2.36a1.51 1.51 0 0 0 2.95-.4 11.63 11.63 0 0 1 1.29-6.27l-2.74-.36c.49 2.17-.71 4.44-.65 6.66a1.51 1.51 0 0 0 2.8.76 9.35 9.35 0 0 1 3.63-3.46L81.24 119a6.57 6.57 0 0 1-2.57 3c-1.62 1-.11 3.64 1.51 2.59a10.05 10.05 0 0 0 3.94-4.8c.53-1.29-1.17-2.26-2.2-1.69a12.37 12.37 0 0 0-4.7 4.54l2.8.76c-.06-2.57 1.13-4.86.54-7.45a1.52 1.52 0 0 0-2.74-.36 14.62 14.62 0 0 0-1.7 7.79l2.95-.4c-.4-1.94-.52-6.46-3.52-6.1s-1.88 5.13-1.43 7 3.36 1.08 2.89-.8z"/><circle class="cls-28" cx="90.26" cy="145.18" r="7.34"/><path class="cls-29" d="M66.73 122.93h26.61v26.61H66.73z"/><path class="cls-8" d="M86.76 122.93h6.58v26.61h-6.58z"/><path class="cls-27" d="M79.18 130.35v-7.42H75.8v7.42h-9.07v3.38h9.07v15.81h3.38v-15.81h14.15v-3.38H79.18z"/><path class="cls-24" d="M58.27 195.68a20.25 20.25 0 1 1-40.5-.58l.4-28a20.25 20.25 0 1 1 40.5.58z"/><path class="cls-25" d="M49.86 195.56c-.16 11.18-1 20.24-12.14 20.08a20.26 20.26 0 0 1-20-20.54l.4-28a20.26 20.26 0 0 1 20.54-20c11.18.16 11.72 9.24 11.56 20.42z"/><path class="cls-25" d="M57.07 216.6H8.68l9.17-18.43h33.87l5.35 18.43z"/><path class="cls-30" d="M45.64 195.09l.66-37s.31-10.13-5.92-10.13"/><path class="cls-19" d="M58.25 196.58l-40.5-.58.15-10.13 40.5.59-.15 10.12z"/><path class="cls-23" d="M49.76 197.14l-10.54-.15.17-11.49 10.53.15-.16 11.49z"/><circle class="cls-28" cx="73.13" cy="147.85" r="7.34"/><path class="cls-31" d="M70.61 154.89c1.27-.6-14.62 25.76-43.24 6.32"/><path class="cls-24" d="M56.91 105.37s-33-22.8-49-27.87c0 0 15.9 20.61 8.71 31.85z"/><path class="cls-25" d="M44.37 107.13S24 82.57 7.91 77.51c0 0 15.9 20.61 8.71 31.85z"/><path class="cls-32" d="M18.64 155.22a16.51 16.51 0 0 0 4.61-14.42 16.51 16.51 0 0 0-19 19 16.51 16.51 0 0 0 14.39-4.58z"/><path class="cls-32" d="M55.61 123.52c1.49 10.69-6.45 20.64-17.74 22.22-11.29 1.58-21.65-5.81-23.15-16.51-1.49-10.69 6.45-20.64 17.74-22.22 11.29-1.58 21.65 5.81 23.15 16.51z"/><path class="cls-28" d="M57.14 124.33a20.26 20.26 0 0 1-17.26 22.86A20.26 20.26 0 0 1 17 129.93a20.26 20.26 0 0 1 17.26-22.86 20.26 20.26 0 0 1 22.86 17.26z"/><path class="cls-32" d="M44.61 110.25c-3.45-.76-11.43-1.22-17.31 1.46l-1.17.25c-5.88 2.68-6.26 7.24-2.81 8 3.45.76 16 .31 21.83-2.37l3.74-1.84c5.88-2.68-.83-4.74-4.27-5.5z"/><path class="cls-32" d="M57.33 119.61h-.23c-5.86 0-14.63-5.88-16.49-8.54a4 4 0 0 1 .34-4.42H41c7.27 0 13.75 5.23 16.33 12.96zM21.93 121.65c1-3 1.31-6-.35-8.53A20.23 20.23 0 0 0 16 126.58c3.51 1.51 5.87-4.73 5.93-4.93z"/><path class="cls-10" d="M29.11 133.2a8.5 8.5 0 0 0 16.07 2.8z"/><circle class="cls-33" cx="48.51" cy="123.39" r="3.62" transform="rotate(-8.1 47.645 121.975)"/><circle class="cls-33" cx="32.14" cy="125.68" r="3.62" transform="rotate(-7.95 32.12 125.651)"/><path class="cls-10" d="M58 109.68a2.69 2.69 0 0 1-2.3 3l-39.86 5.57a2.69 2.69 0 0 1-3-2.3l-.68-4.9a2.69 2.69 0 0 1 2.3-3l39.86-5.57a2.69 2.69 0 0 1 3 2.3z"/><circle class="cls-10" cx="4.34" cy="74.59" r="4.34" transform="rotate(-7.95 4.363 74.557)"/><path class="cls-28" d="M17.23 126.89l-7.9-8.09s-.55 23.78 11.86 19.14zM55.17 121.59l5.37-9.94s7 22.72-6.16 21.66zM44.96 133.55l-2.96.41-1.25-4.17 4.27-.6-.06 4.36z"/><path class="cls-34" d="M132.46 225.86h29.46v29.46h-29.46z"/><path class="cls-35" d="M148.81 239.01v-13.16h-3.74v13.16h-12.61v3.75h12.61v12.56h3.74v-12.56h13.11v-3.75h-13.11z"/><path class="cls-3" d="M100.73 175.2h20.9v20.9h-20.9z"/><path class="cls-36" d="M112.33 184.53v-9.33h-2.66v9.33h-8.94v2.66h8.94v8.91h2.66v-8.91h9.3v-2.66h-9.3z"/><path class="cls-7" d="M103.01 225.86h29.46v29.46h-29.46z"/><path class="cls-3" d="M119.35 239.01v-13.16h-3.74v13.16h-12.6v3.75h12.6v12.56h3.74v-12.56h13.11v-3.75h-13.11z"/><path class="cls-8" d="M128.57 166.86h7.79v29.43h-7.79zM154.13 225.87h7.79v29.43h-7.79zM124.67 225.87h7.79v29.43h-7.79z"/><path class="cls-34" d="M73.55 225.86h29.46v29.46H73.55z"/><path class="cls-3" d="M89.9 239.01v-13.16h-3.75v13.16h-12.6v3.75h12.6v12.56h3.75v-12.56h13.11v-3.75H89.9z"/><path class="cls-8" d="M95.21 225.87H103v29.43h-7.79z"/><path class="cls-37" d="M111.18 166.32h29.77v29.77h-29.77z"/><path class="cls-38" d="M127.7 179.62v-13.3h-3.78v13.3h-12.74v3.79h12.74v12.69h3.78v-12.69h13.25v-3.79H127.7z"/><path class="cls-8" d="M135.64 166.32h5.32v29.77h-5.32z"/><path class="cls-7" d="M126.07 196.1h41.29v29.77h-41.29z"/><path class="cls-39" d="M142.59 209.4v-13.31h-3.79v13.31h-12.73v3.78h12.73v12.69h3.79v-12.69h24.77v-3.78h-24.77z"/><path class="cls-38" d="M87.54 196.1h38.53v29.77H87.54z"/><path class="cls-37" d="M104.06 209.4v-13.31h-3.79v13.31H87.54v3.78h12.73v12.69h3.79v-12.69h22.01v-3.78h-22.01z"/><path class="cls-8" d="M118.09 196.1h7.97v29.77h-7.97zM133.82 196.1h33.54v29.77h-33.54z"/><path class="cls-37" d="M142.78 228.89h32.36v29.1h-32.36z"/><path class="cls-8" d="M167.16 228.89h7.98v29.1h-7.98z"/><path class="cls-3" d="M158.92 241.89v-13h-3.69v13h-12.45v3.7h12.45v12.4h3.69v-12.4h8.24v-3.7h-8.24z"/><path class="cls-37" d="M170.62 228.9h29.1V258h-29.1z"/><path class="cls-8" d="M166.82 228.9h32.89V258h-32.89z"/><path class="cls-38" d="M186.76 241.89v-13h-3.7v13h-12.44v3.7h12.44v12.4h3.7v-12.4h12.95v-3.7h-12.95z"/><path class="cls-38" d="M148 199.8h65.24v29.1H148z"/><path class="cls-37" d="M196.92 212.79v-13h-3.7v13H148v3.7h45.22v12.41h3.7v-12.41h16.33v-3.7h-16.33z"/><path class="cls-8" d="M157.15 199.8h56.1v29.1h-56.1z"/><path class="cls-34" d="M199.71 228.9h29.1V258h-29.1z"/><path class="cls-8" d="M221.1 228.9h7.7V258h-7.7z"/><path class="cls-35" d="M215.86 241.89v-13h-3.7v13h-12.45v3.7h12.45v12.4h3.7v-12.4h12.95v-3.7h-12.95z"/><path class="cls-10" d="M187.7 222.6v33.05h10.1V222.6"/><path class="cls-40" d="M186.68 169.63c-5.44.44-25.81-10.17-28.41-41.82"/><path class="cls-41" d="M186.4 174.19c-8.8 0-29.93-12.89-32.66-46-.21-2.5 6.66 42.55 32.59 36.91 0 0 4.7 1.66 4.91 4.17a4.57 4.57 0 0 1-4.18 4.91z"/><path class="cls-42" d="M159.78 125.81l-4 .65a4.31 4.31 0 0 1-5-3.56l-.34-2.07a5.78 5.78 0 0 1 4.77-6.64l1.08-.18a5.78 5.78 0 0 1 6.64 4.77l.34 2.07a4.31 4.31 0 0 1-3.49 4.96z"/><path class="cls-43" d="M162.16 107.76l-1.4 9.92M156.45 107.72l1.91 9.83M157.69 121.74a6.84 6.84 0 0 0 6.63-1.78"/><path class="cls-44" d="M213.43 169.63c5.44.44 18.58 2.22 17.27 12.89-.81 6.64-8 10.12-13 12.21"/><circle class="cls-42" cx="217.98" cy="195.06" r="7.34"/><path class="cls-10" d="M212.02 222.6v33.05h-10.1V222.6"/><path class="cls-41" d="M212.02 222.6v17.56h-10.1V222.6"/><ellipse class="cls-1" cx="202.59" cy="264.97" rx="43.77" ry="3.9"/><path class="cls-19" d="M201.23 253.81h11.7c3.9 7.57 14 7.57 15.38 2.07 0 0 5.39 10.43-18.82 8.95-5.72-.36-10.26-5.62-8.26-11.02z"/><path class="cls-41" d="M219.35 209.86a19.41 19.41 0 1 1-38.82 0v-26.8a19.41 19.41 0 1 1 38.82 0z"/><path class="cls-45" d="M211.3 209.86c0 10.72-.63 19.41-11.36 19.41a19.41 19.41 0 0 1-19.41-19.41v-26.8a19.41 19.41 0 0 1 19.41-19.41c10.72 0 11.36 8.69 11.36 19.41z"/><path class="cls-41" d="M222.24 126.21s-28.26-26-42.82-32.95c0 0 12.36 21.68 4 31.38z"/><path class="cls-45" d="M210.1 126.21s-16.13-26-30.68-32.95c0 0 12.36 21.68 4 31.38z"/><path class="cls-42" d="M219.94 144.23a19.41 19.41 0 0 1-19.41 19.41 19.41 19.41 0 0 1-19.41-19.41 19.41 19.41 0 0 1 19.41-19.41 19.41 19.41 0 0 1 19.41 19.41z"/><path class="cls-10" d="M185.83 148.59a15.33 15.33 0 0 0 29.39 0z"/><path class="cls-42" d="M201.96 150.21h-2.86l-.63-4.12h4.12l-.63 4.12z"/><path class="cls-46" d="M205.1 141.46a3.47 3.47 0 0 1 6.93 0M189.27 141.46a3.47 3.47 0 0 1 6.93 0"/><rect class="cls-10" x="178.96" y="123.11" width="43.75" height="9.91" rx="2.59" ry="2.59"/><circle class="cls-10" cx="176.42" cy="90.02" r="4.16"/><path class="cls-45" d="M187.7 222.6v17.56h10.1V222.6"/><path class="cls-19" d="M198.49 253.81h-11.71c-3.9 7.57-14 7.57-15.38 2.07 0 0-5.39 10.43 18.82 8.95 5.73-.36 10.27-5.62 8.27-11.02z"/><path class="cls-22" d="M200.08 164.78v51.86"/><path class="cls-19" d="M180.53 201.02h38.82v9.7h-38.82z"/><path class="cls-42" d="M181.72 141.37l-6.43-8.73s-3.67 22.5 8.72 19.74zM218.44 141.37l6.42-8.73s3.67 22.5-8.71 19.74z"/><path class="cls-23" d="M195.03 200.36h10.1v11.02h-10.1z"/></symbol></defs><title>goodbye-elves</title><g id="Layer_28" data-name="Layer 28"><use id="New_Symbol_167-3" data-name="New Symbol 167" width="438.14" height="269.73" transform="translate(.93 .7)" xlink:href="#New_Symbol_167"/></g></svg>