<svg xmlns="http://www.w3.org/2000/svg" viewBox="0 0 411.46 392.05"><defs><style>.cls-1{fill:#29b6f6;}.cls-2,.cls-6{fill:none;stroke:#000;}.cls-2{stroke-miterlimit:10;stroke-width:2.59px;}.cls-3{fill:#f9ce1d;}.cls-4{fill:#ef6c00;}.cls-5{fill:#fff;}.cls-6{stroke-linecap:round;stroke-linejoin:round;stroke-width:1.45px;}</style></defs><title>Asset 1</title><g id="Layer_2" data-name="Layer 2"><g id="Layer_1-2" data-name="Layer 1"><path class="cls-1" d="M228.23,164.3c0-15.69,12.92-25.2,12.92-41.22s-11.53-26.21-26.81-26.21-26.82,10.18-26.82,26.21,12.93,25.53,12.93,41.22Z"/><path class="cls-2" d="M214.34,164.3V124.9c0-4.72-7.19-4.62-7.19,0,0,6.82,12.63,2.69,12.63,2.69"/><path class="cls-2" d="M310.12,225.13h0A10.91,10.91,0,0,0,321,214.22V173.36"/><circle class="cls-3" cx="321.04" cy="164.3" r="9.06"/><path class="cls-2" d="M118.55,225.13h0a10.91,10.91,0,0,1-10.92-10.91V173.36"/><circle class="cls-3" cx="107.63" cy="164.3" r="9.06"/><path class="cls-3" d="M136.67,243.26a18.13,18.13,0,0,1,0-36.25Z"/><path class="cls-3" d="M292,207a18.13,18.13,0,0,1,0,36.25Z"/><rect class="cls-4" x="136.67" y="164.3" width="155.33" height="121.67" rx="20.87" ry="20.87"/><circle class="cls-3" cx="258.35" cy="197.95" r="18.12"/><circle class="cls-3" cx="170.33" cy="197.95" r="18.12"/><circle cx="258.35" cy="197.95" r="9.06"/><circle cx="170.33" cy="197.95" r="9.06"/><path class="cls-1" d="M170.33,234.19a18.13,18.13,0,0,0,0,36.25h88a18.13,18.13,0,0,0,0-36.25Z"/><line class="cls-2" x1="169.96" y1="234.19" x2="169.96" y2="270.44"/><line class="cls-2" x1="187.71" y1="234.19" x2="187.71" y2="270.44"/><line class="cls-2" x1="205.46" y1="234.19" x2="205.46" y2="270.44"/><line class="cls-2" x1="223.21" y1="234.19" x2="223.21" y2="270.44"/><line class="cls-2" x1="240.97" y1="234.19" x2="240.97" y2="270.44"/><line class="cls-2" x1="258.72" y1="234.19" x2="258.72" y2="270.44"/><polygon class="cls-5" points="196.22 216.07 214.34 179.83 232.46 216.07 196.22 216.07"/><path class="cls-1" d="M228.23,164.3c0-15.69,12.92-25.2,12.92-41.22s-11.53-26.21-26.81-26.21-26.82,10.18-26.82,26.21,12.93,25.53,12.93,41.22Z"/><path class="cls-2" d="M214.34,164.3V124.9c0-4.72-7.19-4.62-7.19,0,0,6.82,12.63,2.69,12.63,2.69"/><path class="cls-6" d="M405.91,175.46a53.78,53.78,0,0,0-7.6-15c-2.45-3.22-5.38-6.13-9.81-6.47a8.84,8.84,0,0,0-9,6.08c-1,3.55.67,7.42,3.27,10s6,4.24,9.34,5.82l5.73,2.69a9.15,9.15,0,0,0,6,1.1"/><path class="cls-6" d="M405.24,175.78a3.45,3.45,0,0,0-1.41,4,4,4,0,0,0,3.42,2.61,3,3,0,0,0,1-.08,2.85,2.85,0,0,0,1-.57,4.07,4.07,0,0,0,1.39-3.59C410.33,175.34,407.54,174.43,405.24,175.78Z"/><path d="M392.14,166.7a2.48,2.48,0,0,0,1,1.61,1.8,1.8,0,0,0,1.2.49,2.06,2.06,0,0,0,1.27-3.43C394.5,164.3,392,164.85,392.14,166.7Z"/><path class="cls-6" d="M393.26,155.22l2.81-6.08a4.28,4.28,0,0,0,.57-2.18c-.15-1.37-1.51-2.23-2.72-2.88l-5.22-2.8c-1.15-.62-2.42-1.37-2.77-2.63-.65-2.35,2.28-4.6,1.61-7-.58-2-3.23-2.41-4.85-3.73"/><path class="cls-6" d="M387.67,140.69c-.62.88-1.19,1.64-1.82,2.53a4.3,4.3,0,0,1-2.57,2.11,3.7,3.7,0,0,1-1.67-.25,13.72,13.72,0,0,1-3.81-2"/><path class="cls-6" d="M395.21,151c1.57.7,3.07,1.41,4.64,2.12a4.28,4.28,0,0,0,2,.52c1.41-.1,2.31-1.51,3-2.77l1.36-2.56a3.37,3.37,0,0,0,.52-1.61c0-1.11-1.11-1.86-2.07-2.43l-3.55-2.09a8.07,8.07,0,0,1-3.29-2.87c-1.24-2.35.08-5.17,1.37-7.48l2-3.51"/><path class="cls-6" d="M392.46,131.88l7.47,3.76c1.37.7,2.88,1.41,4.38,1.08a4.56,4.56,0,0,0,2.63-1.89,13.44,13.44,0,0,0,1.46-3"/><path class="cls-6" d="M260.7,2.94a5,5,0,0,0,1.11,6.12,5.12,5.12,0,0,0,6.42-.1,3.64,3.64,0,0,0,.94-1.23,5.17,5.17,0,0,0,.07-3.21,6.18,6.18,0,0,0-.7-1.91C266.84-.16,262.28.28,260.7,2.94Z"/><path class="cls-6" d="M290.67,25a29.68,29.68,0,0,0-8.3-10.39,57.05,57.05,0,0,0-12.81-7.5c-1.26,3.41-3.47,8.91-3.47,8.91"/><path class="cls-6" d="M295.9,27.18c-7.84-3.44-15.94-6.16-24-9l-4.7-1.68a15.37,15.37,0,0,0-3.73-1.27c-1.17-.44-2.4,1.12-2.86,1.95a18,18,0,0,0-1.91,4.65,1.36,1.36,0,0,0,.09,1.14c.31.41.84.43,1.28.59.68.24,1.34.6,2,.88,1.35.58,2.71,1.13,4.09,1.66,2.74,1.06,5.51,2,8.28,3l10,3.55,5.07,1.8,2.48.87c.63.23,1.27.72,2,.57,1.06-.23,1.33-1.56,1.8-2.36a14.59,14.59,0,0,0,1.34-3.73,2.36,2.36,0,0,0-.07-1.81A2.57,2.57,0,0,0,295.9,27.18Z"/><path class="cls-6" d="M278,37.46a18.78,18.78,0,0,1,4,2.06,13.71,13.71,0,0,1,3.3,3.41,14.78,14.78,0,0,1-7,22.14,18,18,0,0,1-15.75-2.65,45.35,45.35,0,0,1-6.35-5.73,29.52,29.52,0,0,1-7.06-12.32c-1.26-4.41-1.77-8.32-.79-12.8.09-.43,1.37-5,1.42-5q10.19,4.13,20.49,8"/><path class="cls-6" d="M270.32,34.32a3,3,0,0,0,.14,2.36,4.45,4.45,0,0,0,1.63,1.76,4.8,4.8,0,0,0,3.67.75,3.32,3.32,0,0,0,2.54-2.59,3.66,3.66,0,0,0-1.49-3.29C274.72,31.68,271.51,31.41,270.32,34.32Z"/><path class="cls-6" d="M259.07,30.07c.83-2.36,1.55-4,2.23-6"/><path d="M267.26,29.25a1.27,1.27,0,0,0-.27.48,1,1,0,0,0,.21.92,1.8,1.8,0,0,0,.82.53,1,1,0,0,0,.24,0,.66.66,0,0,0,.28,0,1.17,1.17,0,0,0,.72-.54,1.47,1.47,0,0,0-.42-1.63A1.31,1.31,0,0,0,267.26,29.25Z"/><path d="M283.47,34.86a1.11,1.11,0,0,1,.07,1.1,1.09,1.09,0,0,1-.93.58,1,1,0,0,1-.38,0,1.22,1.22,0,0,1-.92-1.12,1.09,1.09,0,0,1,.55-.93,1.3,1.3,0,0,1,1.09-.08C283.23,34.47,283.3,34.61,283.47,34.86Z"/><path class="cls-6" d="M287.18,47.1c.3-1,3.64-9.55,4.21-12"/><path class="cls-6" d="M288.09,44.28a4.53,4.53,0,0,0,4.67-.89,4.84,4.84,0,0,0,1.38-4.58A5.25,5.25,0,0,0,291,35.19"/><path class="cls-6" d="M254.54,28.51a4.9,4.9,0,0,1,2-3.8,5.26,5.26,0,0,1,4.77-.65"/><path d="M268.74,39.53c0,.26-.14.51-.14.78a5.17,5.17,0,0,0,.11,1,3.67,3.67,0,0,0,.24.92,3,3,0,0,0,.72.9,5.19,5.19,0,0,0,1.3.94,3.41,3.41,0,0,0,2.73,0,4.25,4.25,0,0,0,1-.53,4.5,4.5,0,0,0,1.14-1.36c-2.37-.9-4.79-1.75-7.14-2.73Z"/><path class="cls-6" d="M17.49,210.17a3.71,3.71,0,0,0,1.43,3.89,4.07,4.07,0,0,0,4.19.23,2.58,2.58,0,0,0,1.05-.94,2.84,2.84,0,0,0,.3-1.25,4.89,4.89,0,0,0-.72-3A3.53,3.53,0,0,0,17.49,210.17Z"/><path class="cls-6" d="M24.12,240.48a5.87,5.87,0,0,0-.65,3.08c0,1.14,0,2.44.9,3.15a3.69,3.69,0,0,0,2.3.58q15.19.45,30.4-.21a4,4,0,0,0,2.41-.65,3.94,3.94,0,0,0,1-2.72c.14-1.38.22-2.92-.69-4s-2.67-1.16-4.16-1.12l-18.21.55a48.79,48.79,0,0,1-7.93-.12C27.65,238.82,25.27,238.67,24.12,240.48Z"/><path class="cls-6" d="M28.7,238.79c1.5-5.11.7-10.61-.59-15.78-.82-3.3-1.95-6.71-4.46-9a61.47,61.47,0,0,1,33.79,24.47"/><path class="cls-6" d="M28.13,247.32a11.83,11.83,0,0,0-3,6.34l0,.21-4.73-6.48a33.28,33.28,0,0,0-.77,6.53,17.18,17.18,0,0,0,.51,4.85,8.3,8.3,0,0,0,2.52,4.11,5.53,5.53,0,0,0,4.56,1.3h0a20.26,20.26,0,0,0,4.31,5.39,15.73,15.73,0,0,0,14.6,3,16.57,16.57,0,0,0,9.45-7.73h0a5.84,5.84,0,0,0,5.1-2.74,12.37,12.37,0,0,0,1.63-6.66,34,34,0,0,0-.8-7.92,61.41,61.41,0,0,1-4.1,6.23h0a17.71,17.71,0,0,0-2.56-6.6"/><path d="M33.23,252.37a3,3,0,0,0,.92,3.54,3.78,3.78,0,0,0,3,.44,2.46,2.46,0,0,0,1.22-.65,2.88,2.88,0,0,0,.6-1.55,3.08,3.08,0,0,0-.11-2,2.59,2.59,0,0,0-.66-.74,3.53,3.53,0,0,0-4.37.11A2.4,2.4,0,0,0,33.23,252.37Z"/><path d="M45.11,252.88a2.76,2.76,0,0,0-.19.94,2.53,2.53,0,0,0,1.1,2.06,3.56,3.56,0,0,0,2.19.59,2.69,2.69,0,0,0,1.46-.41,3.33,3.33,0,0,0,1-1.36C52.61,250.5,46.51,249.19,45.11,252.88Z"/><path class="cls-6" d="M51.79,260.4a17.06,17.06,0,0,1-6.41,6,8.55,8.55,0,0,1-6,1.14,9.65,9.65,0,0,1-2.64-1.19,16.79,16.79,0,0,1-3.45-2.58,7.24,7.24,0,0,1-2.12-3.68,10.46,10.46,0,0,1,3.35,0c1.4.12,2.8.21,4.2.28,2.77.13,5.56.18,8.34.14Q49.45,260.52,51.79,260.4Z"/><path class="cls-6" d="M158.62,15.49a3.73,3.73,0,0,0,2.1,3.58,4.07,4.07,0,0,0,4.16-.51,2.49,2.49,0,0,0,.87-1.11,2.92,2.92,0,0,0,.08-1.28,5,5,0,0,0-1.24-2.86A3.54,3.54,0,0,0,158.62,15.49Z"/><path class="cls-6" d="M206.6,43a5.9,5.9,0,0,0,.1-3.15c-.17-1.12-.44-2.39-1.43-2.94a3.68,3.68,0,0,0-2.37-.17q-15,2.2-29.9,5.52a4,4,0,0,0-2.26,1.06,4,4,0,0,0-.51,2.86c.1,1.37.28,2.91,1.36,3.78s2.84.67,4.29.37l17.84-3.72a47.67,47.67,0,0,1,7.83-1.27C203.41,45.22,205.78,45,206.6,43Z"/><path class="cls-6" d="M174.66,41.71c.59-5.3.32-9.93-1.85-14.8a22.62,22.62,0,0,0-7.45-8.72c13.32,2.47,26.36,9.11,37.55,18.19"/><path class="cls-6" d="M179.09,331.38a3.71,3.71,0,0,0,2.28,3.47,4.09,4.09,0,0,0,4.13-.72,2.61,2.61,0,0,0,.81-1.16,2.81,2.81,0,0,0,0-1.29,4.91,4.91,0,0,0-1.38-2.78A3.54,3.54,0,0,0,179.09,331.38Z"/><path class="cls-6" d="M228.43,356.35a6.06,6.06,0,0,0-.07-3.16c-.23-1.11-.57-2.36-1.58-2.86a3.72,3.72,0,0,0-2.38-.05q-14.91,3-29.57,7.06a3,3,0,0,0-2.57,4.06c.18,1.37.44,2.89,1.56,3.7s2.87.53,4.31.15l17.61-4.64a48.58,48.58,0,0,1,7.76-1.67C225.36,358.76,227.7,358.36,228.43,356.35Z"/><path class="cls-6" d="M196.46,356.73c.31-5.32-.19-9.93-2.62-14.67a22.58,22.58,0,0,0-7.88-8.33c13.42,1.78,26.79,7.73,38.43,16.22"/><path class="cls-6" d="M197.73,365.35a11.92,11.92,0,0,0-1.41,6.68c0,.07,0,.14,0,.21-2-1.69-4.12-3.55-6.07-5.25a33.24,33.24,0,0,0,.73,6.53,16.64,16.64,0,0,0,1.59,4.62,8.3,8.3,0,0,0,3.38,3.44,5.57,5.57,0,0,0,4.73.24h0a20.13,20.13,0,0,0,5.4,4.29,15.76,15.76,0,0,0,14.91-.36,16.57,16.57,0,0,0,7.47-9.67h0a5.83,5.83,0,0,0,4.36-3.82,12.45,12.45,0,0,0,.08-6.85,34.48,34.48,0,0,0-2.56-7.53,62.06,62.06,0,0,1-2.6,7h0a17.47,17.47,0,0,0-4-5.85"/><path d="M202.82,370.81a2.78,2.78,0,0,0,1.55,1.67,3.81,3.81,0,0,0,3-.25,2.57,2.57,0,0,0,1.05-.9,3,3,0,0,0,.23-1.65,6.93,6.93,0,0,0-.12-1"/><path d="M217.23,366.39a2.82,2.82,0,0,0,0,1,2.54,2.54,0,0,0,1.53,1.76,3.6,3.6,0,0,0,2.27.08,2.65,2.65,0,0,0,1.33-.73,3.29,3.29,0,0,0,.66-1.54C224,362.38,217.76,362.48,217.23,366.39Z"/><path class="cls-6" d="M218.81,360.48c-1.14,3.1-6.55,9-22.47,11.76"/><path class="cls-6" d="M196.54,381.9a11.66,11.66,0,0,0-3.93,5.45,6.77,6.77,0,0,0-.28,3.95,16.35,16.35,0,0,0,9.54-2.38,5.76,5.76,0,0,0,2.92-3.58"/><path class="cls-6" d="M226.84,379.89a9,9,0,0,0,5.91,2.32,22,22,0,0,0,6.58-.92,11.28,11.28,0,0,0-7.26-7.56"/><path class="cls-6" d="M223.65,371.4a8.74,8.74,0,0,1-.72,6.17,9.7,9.7,0,0,1-5,4.22,11.94,11.94,0,0,1-6.36.79,10.3,10.3,0,0,1-5.83-3.11,21,21,0,0,1-2.24-3.09c1.4-.33,2.78-.79,4.19-1.13l4.92-1.2q2.91-.72,5.81-1.47l2.9-.77C222.08,371.61,222.86,371.61,223.65,371.4Z"/><path class="cls-6" d="M39.67,153.21c-.21,4.68-.57,8.63-1.2,13.27"/><path class="cls-6" d="M.73,158.84a86.25,86.25,0,0,1,10.39-23.26c3-4.56,6.65-9,11.67-11.1a8.85,8.85,0,0,1,4.87-.79A12.14,12.14,0,0,1,33,126c6.72,5.47,6.55,13.37,6.6,17.69"/><path class="cls-6" d="M35.35,141.93l26.37,10.64a184.88,184.88,0,0,1-28.3.35"/><path d="M22.61,141.33a3.21,3.21,0,1,0,4.65-4.07C24.83,135.63,21.39,138.72,22.61,141.33Z"/><path class="cls-6" d="M21.85,129.55q6.16,2.82,12.38,5.51"/><path class="cls-6" d="M34.58,148.34l26.24,4"/><path class="cls-6" d="M301.69,366.68c10.76-3.49,21.53-7.5,32-11.48-3.27-9.26-7.13-19.77-10.39-29l-17.06,6.22c-3.43,1.25-14.66,5.81-14.66,5.81S302.16,366.51,301.69,366.68Z"/><path class="cls-6" d="M296.86,352.63c8.38-3.05,16.36-6.16,23.75-8.63,2.49-.83,5.33-2.14,7.93-3.08"/><path class="cls-6" d="M307.14,332a240.24,240.24,0,0,1,10.6,29.17"/><path class="cls-6" d="M304.12,326.3a7.07,7.07,0,0,0-7.91-1.18,3.4,3.4,0,0,0-1.5,1.33,2.92,2.92,0,0,0,.21,2.83,7.06,7.06,0,0,0,2.13,2.05,8.08,8.08,0,0,0,2.24,1.2,7.91,7.91,0,0,0,2.95.21,21.2,21.2,0,0,0,2.84-.44c.82-.19,1.94-.17,1.81-1.11A10,10,0,0,0,304.12,326.3Z"/><path class="cls-6" d="M306.33,327a10.33,10.33,0,0,1,.76-4.87,5.36,5.36,0,0,1,3.66-3.1,3.37,3.37,0,0,1,1.67.06,3.5,3.5,0,0,1,2.21,2.79,6.54,6.54,0,0,1-.62,3.63c-.95,2.13-4.25,5.63-6.6,6.49a13,13,0,0,1-.87-2.85A15.5,15.5,0,0,1,306.33,327Z"/><path class="cls-6" d="M303.48,342.44a8,8,0,0,0,1.93-1.87A3.52,3.52,0,0,0,306,338a13.1,13.1,0,0,0-.58-1.7,4.4,4.4,0,0,1,1.3-4.55,3.32,3.32,0,0,0,3.05,1.59,5.93,5.93,0,0,1,2,.12,2.76,2.76,0,0,1,.83.52,4,4,0,0,1,.94,4.55"/><path class="cls-6" d="M84.28,18.4q1.14,25.43,1.23,50.9"/><path class="cls-6" d="M106.53,33.28,62.91,56.91"/><path class="cls-6" d="M63.5,33.55C76,40.58,93.42,49,106.35,55.21"/><path class="cls-6" d="M77.42,21.56l6.94,4.69C86.2,24,88.85,22.39,90.57,20"/><path class="cls-6" d="M77.3,68.82q3.84-4.33,8-8.31Q89,64.56,92.9,68.33"/><path class="cls-6" d="M106.92,49.32l-8,1.92a30.44,30.44,0,0,1,.87,7.43"/><path class="cls-6" d="M101.46,29.47a71.42,71.42,0,0,0-3.31,8.06,47.34,47.34,0,0,1,8.19,2.27"/><path class="cls-6" d="M68.6,29l3.86,9.57A35.08,35.08,0,0,0,62.52,41"/><path class="cls-6" d="M62.92,50.22a52.58,52.58,0,0,0,8.48,2.3c-.18,1.39-1.05,2.82-1.49,4.17a34.61,34.61,0,0,1-1.64,4.54"/><path class="cls-6" d="M350.46,62.77c-19-10.52-.73-26.09,28.54-16s35.82,26.38,14.84,29.53"/><path class="cls-6" d="M362.68,43.49a79.61,79.61,0,0,1,4.18-11.94,3,3,0,0,1,.47-.84,1.82,1.82,0,0,1,.87-.49,10,10,0,0,1,4.15-.15,56.44,56.44,0,0,1,23,8,1.35,1.35,0,0,1,.57.54,2.1,2.1,0,0,1,0,1.22,39.6,39.6,0,0,1-1.69,5.7c-1.31,3.73-1.59,4.72-2.34,6.8"/><path class="cls-6" d="M349.72,64.9a25.35,25.35,0,0,0-1.23,7.8c.09,6.31,5.82,12.11,10.36,15.61a21.22,21.22,0,0,0,15.56,4,23.69,23.69,0,0,0,14.8-7.51,19.37,19.37,0,0,0,4.58-8.33c1.78-7.3-1.6-15.37-6.76-20.08C375.28,45.68,355.21,46.92,349.72,64.9Z"/><path d="M363.77,57.48a1.79,1.79,0,0,0-.58,1.35,2.12,2.12,0,0,0,.15.65,2.94,2.94,0,0,0,.83,1.36,3.13,3.13,0,0,0,2.4.5,3.08,3.08,0,0,0,1-.26,2.62,2.62,0,0,0,.6-3.88C367.1,56.05,364.78,56.5,363.77,57.48Z"/><path d="M380.67,61.67a1.84,1.84,0,0,0-.44.44,6.51,6.51,0,0,0-.77,1.42,1,1,0,0,0-.1.48,1.12,1.12,0,0,0,.3.58,4.06,4.06,0,0,0,1.43,1.28,2.06,2.06,0,0,0,.73.18,2.57,2.57,0,0,0,2.6-3.28C384,61.6,381.66,61.06,380.67,61.67Z"/><path class="cls-6" d="M358.15,70.33a18.56,18.56,0,0,0,14.05,12,25.74,25.74,0,0,0,4.29.32,36.94,36.94,0,0,0,6-.52"/><path class="cls-6" d="M383.31,72.71q-3.54-2.42-7.17-4.64c-2.41-1.48-8.61-3.7-10.35,2.31a4.4,4.4,0,0,0,0,2.22,7,7,0,0,0,5.1,4.93c3.57,1.13,7.5.91,11.36.68l8-.48C389.06,76.81,384.55,73.55,383.31,72.71Z"/><path class="cls-6" d="M374,67.16l-1.92.89a7.85,7.85,0,0,0-2.19,1.32A7.64,7.64,0,0,0,368.34,72a9.84,9.84,0,0,0-.73,2.14,3.3,3.3,0,0,0,.3,2.19"/><path class="cls-6" d="M377.47,69.24a8.77,8.77,0,0,0-4,3.47,12.75,12.75,0,0,0-1.11,3.14,2.18,2.18,0,0,0,.19,2.1"/><path class="cls-6" d="M381.17,71.54a7.34,7.34,0,0,0-3.33,3.07,6.11,6.11,0,0,0-.69,3.48"/><path class="cls-6" d="M384.64,73.49c-1.21.46-1.81,1.8-2.24,3-.18.56-.34,1.24.06,1.67"/><path class="cls-6" d="M360.1,74.26c-7.26.65-14,.95-21.86,1.45a59.61,59.61,0,0,1,.33-6.55.23.23,0,0,1,.08-.18s.11,0,.17,0a33.69,33.69,0,0,1,3.63.23c-.18,1.63-.31,4.65-.36,6.29"/><path class="cls-6" d="M293,103.18c3.14-3.41,6.55-6.52,9.87-9.75a14.56,14.56,0,0,1,7.54-4.15,10.85,10.85,0,0,1,12.13,7.37,12.44,12.44,0,0,1-.12,7.61,22.51,22.51,0,0,1-5.2,8.12,7.87,7.87,0,0,1-1.4,1.24,2.74,2.74,0,0,1-1.77.49,4.17,4.17,0,0,1-1.91-1,3.13,3.13,0,0,1-1.36-1.63,2.6,2.6,0,0,1,.33-1.69c.82-1.71,2.33-3,3.41-4.59,1-1.39,1.86-3,1.59-4.67a5.62,5.62,0,0,0-1.7-2.94,4.31,4.31,0,0,0-2.18-1.34,4.59,4.59,0,0,0-3.31,1c-2.2,1.53-3.93,3.59-5.89,5.39-1.44,1.33-2.8,2.76-4.15,4.19-3,3.18-5.84,6.49-9,9.51a129.42,129.42,0,0,0-9.63,10.24,4.06,4.06,0,0,1-2.61,1.79c-1.13.05-2.06-.84-2.84-1.67a3.41,3.41,0,0,1-1.14-2,3.15,3.15,0,0,1,.75-1.9,37.94,37.94,0,0,1,3.55-4.06C283,113.72,288.05,108.5,293,103.18Z"/><path class="cls-6" d="M315,104.5a3.7,3.7,0,0,1,.78,1.48,9,9,0,0,0,.41.89l2.15,4.28"/><path class="cls-6" d="M315.78,99.4c1.7.47,2.9,1.92,4.19,3.13a18,18,0,0,0,2.37,1.88"/><path class="cls-6" d="M312.67,96q4.06-1.42,8.25-2.44"/><path class="cls-6" d="M308.87,97.21a22.17,22.17,0,0,1,1-7.68"/><path class="cls-6" d="M302.35,103.3l-1.54-8.55"/><path class="cls-6" d="M296.82,109.09a41.13,41.13,0,0,1-1.3-5.11c-.18-1.09-.27-2.19-.37-3.29"/><path class="cls-6" d="M291.71,114.65c-.46-1.66-1.08-3.28-1.7-4.89l-1-2.63"/><path class="cls-6" d="M286.37,119.77a54.73,54.73,0,0,1-2.95-6.64"/><path class="cls-6" d="M281.46,125.15a6.09,6.09,0,0,0-.54-1.53,37.5,37.5,0,0,1-2.22-5.6"/><path class="cls-6" d="M374.73,258.75a8.66,8.66,0,0,0-.14,6.26,15.46,15.46,0,0,0,3.37,5.4,6.06,6.06,0,0,0,1.92,1.57,6.91,6.91,0,0,0,2.72.43c2.46.06,5.13,0,7.07-1.52a11.17,11.17,0,0,0,2.49-3.2,10.91,10.91,0,0,0,1.62-3.6,8.2,8.2,0,0,0-.18-3.23,12,12,0,0,0-3.88-6.61C384.64,250.06,377.32,253.05,374.73,258.75Z"/><path class="cls-6" d="M386.37,252.3q1.89-3.59,3.94-7.08c1.5-2.57,3.28-5.29,6.1-6.25.89-.31,2.08-.33,2.6.47a2.64,2.64,0,0,1,0,2.15L398,245a6,6,0,0,0,2.62-.39,2.24,2.24,0,0,1,2.43.59,3,3,0,0,1,0,2.3c-.18.77-.2,1.74.47,2.16s1.3.09,2,.12a2.82,2.82,0,0,1,2.47,2.85,4.61,4.61,0,0,1-2,3.51,13.75,13.75,0,0,1-3.75,1.78c-2.95,1-5.69,1.86-8.64,2.9"/><path class="cls-6" d="M374.06,263.38c-4.34,1.36-8.68,2.72-12.87,4.47a6.13,6.13,0,0,0-2.64,1.72,2.21,2.21,0,0,0,0,2.89,2.67,2.67,0,0,0,2.16.46,8.79,8.79,0,0,1,2.27-.22,1.73,1.73,0,0,1,1.61,1.37c.07.76-.59,1.56-.24,2.24s1.28.61,2,.44,1.63-.29,2,.33a1.29,1.29,0,0,1,.19.54c.24,1.68-1.2,3.35-.68,4.95a2.68,2.68,0,0,0,2.54,1.68,4.38,4.38,0,0,0,2.9-1.29,12.79,12.79,0,0,0,2-2.59l4.83-7.64"/><path class="cls-6" d="M381.09,256.7c-1.48.91-2.16,2.65-2.76,4.27a6.84,6.84,0,0,0,.21,4.33,5,5,0,0,0,3.07,3c2.19.74,4.29-.3,6-1.7a6.14,6.14,0,0,0,1.51-1.78,4.44,4.44,0,0,0-.09-4.31,4.13,4.13,0,0,0-3.81-1.94,3.84,3.84,0,0,0-3.25,2.72,2.5,2.5,0,0,0,.53,2.43,2.06,2.06,0,0,0,2.51.17,2.42,2.42,0,0,0,.95-2.39"/><path class="cls-6" d="M391,252.11l4.65-4.86"/><path class="cls-6" d="M395.18,255.5c1.76-1.6,4.16-2.34,6-3.88"/><path class="cls-6" d="M365.79,271.32c1.86-1.09,3.78-2.1,5.74-3"/><path class="cls-6" d="M370,275.34a28,28,0,0,1,4.34-4.69"/><path class="cls-6" d="M95.47,339.08A19.9,19.9,0,0,1,98.88,336c.4,2,.68,3.95,1.18,5.9.16.6,2,5.2,1.74,5.43A32.58,32.58,0,0,1,107,342.8a109.43,109.43,0,0,0,2.41,13.08,234.85,234.85,0,0,1,19-18.75,58.82,58.82,0,0,1-11.47-3.4l3.6-3.88a98.36,98.36,0,0,0-13.35-2.91,30.83,30.83,0,0,1,4.3-4.62c-.58.51-5.5-1.26-6.34-1.48-2.1-.56-4.19-1.17-6.25-1.85-4.11-1.35-8-3.25-12-4.71C88.21,323,91.51,331.13,95.47,339.08Z"/><path class="cls-6" d="M116.18,348.78l5.8,5.68,3.71-4.55-5.42-5.32"/><line class="cls-6" x1="87" y1="314.55" x2="81.52" y2="308.41"/><path class="cls-6" d="M83.13,314.6l1-7.35"/><path class="cls-6" d="M80.28,311.39c2.73-.24,5-.62,7.43-.79"/><path d="M93.15,328.91a.86.86,0,0,0,0,.45.77.77,0,0,0,.67.43,1.52,1.52,0,0,0,.8-.23,1.18,1.18,0,0,0,.53-.53,1,1,0,0,0,.06-.45.92.92,0,0,0-.17-.6,1,1,0,0,0-.48-.29,1.62,1.62,0,0,0-.54-.11C93.44,327.61,93.2,328.38,93.15,328.91Z"/><path d="M104.31,334.66a.9.9,0,0,0,.15.72,1.73,1.73,0,0,0,.36.48.84.84,0,0,0,.54.22,1.24,1.24,0,0,0,.68-.33,1.14,1.14,0,0,0,.15-.16.63.63,0,0,0,0-.31,2.21,2.21,0,0,0-.2-1,.68.68,0,0,0-.26-.27.91.91,0,0,0-.83.06A1.46,1.46,0,0,0,104.31,334.66Z"/><path d="M116.54,338.74a.86.86,0,0,0,.15.72,1.84,1.84,0,0,0,.36.47.77.77,0,0,0,.53.22,1.14,1.14,0,0,0,.68-.32.75.75,0,0,0,.15-.16.67.67,0,0,0,0-.31,2,2,0,0,0-.21-1,.75.75,0,0,0-.25-.28.93.93,0,0,0-.84.07A1.43,1.43,0,0,0,116.54,338.74Z"/><path d="M101.62,325.06a1.32,1.32,0,0,0,.5.55.73.73,0,0,0,.44.17.62.62,0,0,0,.39-.16,1.25,1.25,0,0,0,.44-1.23.66.66,0,0,0-.27-.43.84.84,0,0,0-.32-.08,1.64,1.64,0,0,0-.7,0A.79.79,0,0,0,101.62,325.06Z"/><path class="cls-6" d="M133.2,108.37a12.55,12.55,0,0,0-2.77-1.2A14.15,14.15,0,0,0,128,107a5.32,5.32,0,0,0-1.87.07,3.37,3.37,0,0,0-1.17.65,5.82,5.82,0,0,0-1.87,2.78l2.11-.54-.72,1.46c1.6-.06,3-1.28,4.62-1.26a7.19,7.19,0,0,1,3.29,1.29"/><path class="cls-6" d="M153.28,107.92a4.51,4.51,0,0,0,2.05-.84,7.39,7.39,0,0,0,1.86-2.39,26.69,26.69,0,0,0,1.48-3.16,12.85,12.85,0,0,1,.12,2.63l2.59-1.6c-.17.11-.26,1.32-.31,1.56a10.1,10.1,0,0,1-.5,1.59,14.38,14.38,0,0,1-1.61,2.35,7.27,7.27,0,0,1-3.05,2.54l-.73.32"/><path class="cls-6" d="M136.41,107.14a7.53,7.53,0,0,1-3.25-2.55,9.71,9.71,0,0,1-1.64-3.82,6,6,0,0,1-.09-2.19,4.64,4.64,0,0,1,1.2-2.31A5.21,5.21,0,0,1,141.56,99"/><path class="cls-6" d="M139.2,99.89a1.42,1.42,0,0,0-.74-.6,3.86,3.86,0,0,0-1.27-.16,2.27,2.27,0,0,0-.86.11,1.41,1.41,0,0,0-.45.28,2.81,2.81,0,0,0-.51,3.29,4,4,0,0,0,1.94,1.77"/><path class="cls-6" d="M143.38,99.38a12.23,12.23,0,0,1,.79-1.23,6.91,6.91,0,0,1,1-1.25,5.19,5.19,0,0,1,1.39-.8,14.73,14.73,0,0,1,3.57-1,5.85,5.85,0,0,1,1.77,0,2.58,2.58,0,0,1,1.55.79,2.79,2.79,0,0,1,.6,1.29,8.76,8.76,0,0,1-.91,5.16,5.58,5.58,0,0,1-1,1.69,4.64,4.64,0,0,1-2.26,1.17l-1,.25"/><path class="cls-6" d="M144.55,100.87a3.51,3.51,0,0,1,3.2-2.1,1.49,1.49,0,0,1,.75.19,1.22,1.22,0,0,1,.52.9,4.21,4.21,0,0,1-.07,1.06,3.19,3.19,0,0,1-.76,1.88,3.11,3.11,0,0,1-.92.53"/><path class="cls-6" d="M136.25,107a6.56,6.56,0,0,1-4.24-1.56,4.86,4.86,0,0,1-5.67,7.66,4.82,4.82,0,0,1-4.44,8.13,6.92,6.92,0,0,1,2.63,4.6,20.58,20.58,0,0,1-.06,5.43c1.26-1,1.94-2.55,3.12-3.63s3.37-1.43,4.17-.05a4.76,4.76,0,0,1,2.88-6.84,3.61,3.61,0,0,1,.34-4.86,5.73,5.73,0,0,1,5-1.29c-.76-.14-.68-3.75-.62-4.32a3.69,3.69,0,0,1,.14-.55"/><path class="cls-6" d="M146.5,109.57a3.72,3.72,0,0,1,0,.82,8.76,8.76,0,0,1-1.61,4.14,4.5,4.5,0,0,1,6.18-.51c1.71,1.55,1.48,4.79-.55,5.89a10.61,10.61,0,0,1,3.33-1.37,3.58,3.58,0,0,1,3.31,1c1.32,1.54.48,3.93-.65,5.62a4.32,4.32,0,0,1,4.47-.93,12.77,12.77,0,0,1,4.07,2.54,14.88,14.88,0,0,1-2.46-4.16,5.1,5.1,0,0,1,.53-4.64,4.12,4.12,0,0,1-3.25-7.26,4.83,4.83,0,0,1-5,0,3.49,3.49,0,0,1-1-4.68c-.72,1-2.83.94-4.69.68"/><path class="cls-6" d="M138.87,100.42a2.7,2.7,0,0,0,.06,2,3.07,3.07,0,0,0,2.67,1.82c2,0,3.87-2.39,2.6-4.22C143.12,98.52,139.59,98.6,138.87,100.42Z"/><path class="cls-6" d="M146.44,103.16a6.86,6.86,0,0,0-1.69.14,2.69,2.69,0,0,0-1.61.64,2.39,2.39,0,0,0-.39.65,3.31,3.31,0,0,0-.38,1.65,3,3,0,0,0,.48,1.33,4.43,4.43,0,0,0,2,1.77,3,3,0,0,0,4.25-2.67A3.09,3.09,0,0,0,146.44,103.16Z"/><path class="cls-6" d="M141.12,104.69a3.13,3.13,0,0,0-1.32-.94,2.6,2.6,0,0,0-2.46.93,2.8,2.8,0,0,0-.88,2,3.51,3.51,0,0,0,1,1.93,3.41,3.41,0,0,0,.66.6,2.77,2.77,0,0,0,1,.36,3.58,3.58,0,0,0,2.69-.35C143.63,108,142.18,105.84,141.12,104.69Z"/></g></g></svg>