<svg xmlns="http://www.w3.org/2000/svg" xmlns:xlink="http://www.w3.org/1999/xlink" width="52" height="74.8" viewBox="0 0 52 74.8"><symbol id="b" viewBox="-36 -37.5 53 74.8"><path opacity=".1" d="M-28.1 25.2L-35-32.2l43.6-5.3 7 57.5-6.3 14-28.1 3.3z"/><path fill="#fc0" d="M-27.4 24.3v-58.6h44v58.6L9.2 36.7h-28.4z"/><path fill="#607D8B" d="M-8.3 26.2c0-1.5 1.3-2.8 2.8-2.8 1.5 0 2.8 1.3 2.8 2.8S-3.9 29-5.5 29c-1.5 0-2.8-1.2-2.8-2.8z"/></symbol><symbol id="a" viewBox="-62 -62.1 124 124.2"><path opacity=".15" d="M62-62.1h-97.6l-25.7 25.7 25.7 71.9 71.9 25.7L62 35.5z"/><path fill="#E53935" d="M36.3-36.4h-97.6v97.6h97.6z"/><path stroke="#FFE582" stroke-width="8" stroke-miterlimit="10" fill="none" d="M-12.5-36.4l-.5 98.5m-49-49.5l98.5.5"/><path opacity=".07" d="M35.8-36.4h-97.6l6.9 90.7 90.7 6.9z"/><path opacity=".07" d="M36.3-36.4h-48.8l32.9 97.6h15.9z"/><path opacity=".07" d="M37.1-36.4h-9.2l-1.3 97.6h10.5z"/><path opacity=".07" d="M37.1-36.4h-9.2l-1.3 97.6h10.5z"/></symbol><use xlink:href="#a" width="124" height="124.2" x="-62" y="-62.1" transform="scale(1.18 -1.18) rotate(4.03 300.02 -2008.4)" overflow="visible"/><use xlink:href="#b" width="53" height="74.8" x="-36" y="-37.5" transform="scale(-1.18 1.18) rotate(-39.05 -182.1 6.908)" overflow="visible"/><text transform="rotate(39.04 206.458 -11.367)" fill="#E53631" font-family="'Roboto-Black'" font-size="52.073">1</text><path opacity=".15" d="M-86 140.5v97.1h-97.3l25.7 26H-60v-97.4z"/><path stroke="#FFE582" stroke-width="8" stroke-miterlimit="10" fill="none" d="M-134.5 238.1l-.5-98.5m-49 49.5l98.5-.5"/><path opacity=".07" d="M-86.2 238.1h-97.6l6.9-90.7 90.7-6.9z"/><path opacity=".07" d="M-85.7 238.1h-48.8l32.9-97.6h15.9z"/><path opacity=".07" d="M-84.9 238.1h-9.2l-1.3-97.6h10.5z"/><path opacity=".07" d="M-84.9 238.1h-9.2l-1.3-97.6h10.5z"/><path opacity=".1" d="M45.1 62.7L52 5.3 8.3 0 1.4 57.5l6.2 13.9 28.1 3.4z"/><path fill="#fc0" d="M44 61.8V3.6H0v58.2l7.8 12.8h28.3z"/><circle fill="#607D8B" cx="22.4" cy="63.7" r="2.8"/></svg>