<svg width="250" height="200" fill="none" xmlns="http://www.w3.org/2000/svg"><path d="M212.6 137.7s9.2 1.7 15.1 13.4" stroke="#7C4C2A" stroke-width="10.723" stroke-miterlimit="10" stroke-linecap="round"/><path d="M213.5 136s9.3 1.2 15.8 12.6" stroke="#B66A33" stroke-width="10.723" stroke-miterlimit="10" stroke-linecap="round"/><path d="M232.499 151.3c-1.4 1.5-3.9 1.6-5.6 0-1.7-1.5-2-4-.6-5.6 1.4-1.5 3.9-1.6 5.6 0 1.7 1.6 1.9 4.1.6 5.6z" fill="#FFBD8A"/><path d="M214.4 151.9c-3.5 9.1-13.3 13.8-21.7 10.5-8.5-3.3-12.5-13.3-9-22.4 3.5-9.1 13.3-13.8 21.7-10.5 8.5 3.3 12.5 13.3 9 22.4z" fill="#7C4C2A"/><path d="M215.499 149.2c-3.5 9.1-13.3 13.8-21.7 10.5-8.5-3.3-12.5-13.3-9-22.4 3.5-9.1 13.3-13.8 21.7-10.5 8.5 3.3 12.5 13.3 9 22.4z" fill="#B66A33"/><path d="M212.2 144.1c-2.7 7-9.8 10.7-15.9 8.4-6.1-2.4-8.8-9.9-6.1-16.9 2.7-7 9.8-10.7 15.9-8.4 6 2.4 8.8 9.9 6.1 16.9z" fill="#FFBD8A"/><path d="M204.398 132.3s5-2.8 8.7-1.3c3.7 1.5.3 9.7-3.4 8.3-3.6-1.5-5.3-7-5.3-7z" fill="#F33"/><path d="M204.399 132.3s-1.7-5.5-5.3-7c-3.7-1.5-7 6.8-3.4 8.3 3.6 1.5 8.7-1.3 8.7-1.3z" fill="#F33"/><path d="M204.4 135.7a3.4 3.4 0 100-6.8 3.4 3.4 0 000 6.8z" fill="#fff"/><path d="M212.6 137.7s9.2 1.7 15.1 13.4" stroke="#7C4C2A" stroke-width="10.723" stroke-miterlimit="10" stroke-linecap="round"/><path d="M213.5 136s9.3 1.2 15.8 12.6" stroke="#B66A33" stroke-width="10.723" stroke-miterlimit="10" stroke-linecap="round"/><path d="M232.499 151.3c-1.4 1.5-3.9 1.6-5.6 0-1.7-1.5-2-4-.6-5.6 1.4-1.5 3.9-1.6 5.6 0 1.7 1.6 1.9 4.1.6 5.6z" fill="#FFBD8A"/><path d="M199.3 148s-11.4 4.4-29.4-2.2" stroke="#B66A33" stroke-width="14.286" stroke-miterlimit="10" stroke-linecap="round"/><path d="M163.1 142.9c-1.6 3.8.2 8.1 4 9.7 3.8 1.6 8.1-.2 9.7-4 1.6-3.8-.2-8.1-4-9.7-3.8-1.6-8.2.2-9.7 4z" fill="#FFBD8A"/><path d="M165.3 143.8c-1 2.5.2 5.4 2.7 6.5 2.5 1 5.4-.2 6.5-2.7 1-2.5-.2-5.4-2.7-6.5-2.5-1-5.4.2-6.5 2.7z" fill="#8C501C"/><path d="M197.4 147.2s5.2 11 22.8 18.7" stroke="#B66A33" stroke-width="14.286" stroke-miterlimit="10" stroke-linecap="round"/><path d="M227.101 168.6c-1.5 3.8-5.8 5.7-9.6 4.2s-5.7-5.8-4.2-9.6 5.8-5.7 9.6-4.2 5.7 5.8 4.2 9.6z" fill="#FFBD8A"/><path d="M224.9 167.7c-1 2.5-3.9 3.8-6.4 2.8-2.5-1-3.8-3.9-2.8-6.4 1-2.5 3.9-3.8 6.4-2.8 2.5 1 3.8 3.8 2.8 6.4z" fill="#8C501C"/><path d="M214.4 151.9c-3.5 9.1-13.3 13.8-21.7 10.5-8.5-3.3-12.5-13.3-9-22.4 3.5-9.1 13.3-13.8 21.7-10.5 8.5 3.3 12.5 13.3 9 22.4z" fill="#7C4C2A"/><path d="M215.499 149.2c-3.5 9.1-13.3 13.8-21.7 10.5-8.5-3.3-12.5-13.3-9-22.4 3.5-9.1 13.3-13.8 21.7-10.5 8.5 3.3 12.5 13.3 9 22.4z" fill="#B66A33"/><path d="M212.2 144.1c-2.7 7-9.8 10.7-15.9 8.4-6.1-2.4-8.8-9.9-6.1-16.9 2.7-7 9.8-10.7 15.9-8.4 6 2.4 8.8 9.9 6.1 16.9z" fill="#FFBD8A"/><path d="M211.099 105.2c-1.4 3.6-5.5 5.5-9.2 4-3.6-1.4-5.5-5.5-4-9.2 1.4-3.6 5.5-5.5 9.2-4 3.6 1.4 5.4 5.5 4 9.2zM232.3 113.4c-1.4 3.6-5.5 5.5-9.2 4-3.6-1.4-5.5-5.5-4-9.2 1.4-3.6 5.5-5.5 9.2-4 3.6 1.5 5.4 5.6 4 9.2z" fill="#B66A33"/><path d="M208.801 104.3c-.9 2.4-3.6 3.5-6 2.6-2.4-.9-3.5-3.6-2.6-6 .9-2.4 3.6-3.5 6-2.6 2.3 1 3.5 3.6 2.6 6zM229.901 112.5c-.9 2.4-3.6 3.5-6 2.6-2.4-.9-3.5-3.6-2.6-6 .9-2.4 3.6-3.5 6-2.6 2.4 1 3.6 3.6 2.6 6z" fill="#8C501C"/><path d="M225.501 124.2c-2.8 7.2-12 10.4-20.5 7-8.5-3.3-13.2-11.8-10.4-19 2.8-7.2 12-10.4 20.5-7 8.5 3.3 13.2 11.8 10.4 19z" fill="#B66A33"/><path d="M216.799 125.3c-1.4 3.5-6.2 4.9-10.8 3.2-4.6-1.8-7.2-6.1-5.8-9.6 1.4-3.5 6.2-4.9 10.8-3.2 4.6 1.7 7.2 6 5.8 9.6z" fill="#FFBD8A"/><path d="M207.134 113.221c.479-1.235.159-2.512-.716-2.852-.876-.34-1.974.386-2.454 1.622-.479 1.236-.159 2.513.716 2.853.876.339 1.974-.387 2.454-1.623zM218.39 117.625c.479-1.236.159-2.513-.717-2.853-.875-.34-1.973.386-2.453 1.622-.48 1.236-.159 2.513.716 2.853.876.339 1.974-.387 2.454-1.622z" fill="#332F2E"/><path d="M206.084 113.405c.18-.464.033-.953-.327-1.093s-.798.122-.978.586c-.18.463-.034.952.327 1.092.36.14.798-.122.978-.585zM217.248 117.771c.18-.463.034-.952-.327-1.092-.36-.14-.798.122-.978.586-.18.463-.034.952.327 1.092.36.14.798-.122.978-.586z" fill="#fff"/><path d="M207.9 123.7c-.5 1.3-2 2-3.4 1.5-1.3-.5-2-2-1.5-3.4" stroke="#584539" stroke-width=".977" stroke-miterlimit="10" stroke-linecap="round"/><path d="M212.699 125.6c-.5 1.3-2 2-3.4 1.5s-2-2-1.5-3.4M209 120.9l-1.1 2.8" stroke="#584539" stroke-width=".977" stroke-miterlimit="10" stroke-linecap="round"/><path d="M212.876 121.591c.48-1.235-.759-2.869-2.767-3.648-2.008-.78-4.024-.41-4.504.826-.48 1.235.759 2.869 2.767 3.648 2.008.78 4.024.41 4.504-.826z" fill="#7C4C2A"/><path d="M204.398 132.3s5-2.8 8.7-1.3c3.7 1.5.3 9.7-3.4 8.3-3.6-1.5-5.3-7-5.3-7z" fill="#F33"/><path d="M204.399 132.3s-1.7-5.5-5.3-7c-3.7-1.5-7 6.8-3.4 8.3 3.6 1.5 8.7-1.3 8.7-1.3z" fill="#F33"/><path d="M204.4 135.7a3.4 3.4 0 100-6.8 3.4 3.4 0 000 6.8z" fill="#fff"/><path d="M143.701 63.5c-1.6-2.5-3.3-4.9-4.9-7.4-.8-1.1-2.1-2.5-3.6-2.1-1.3.3-1.6 1.6-1.6 2.7-.3 6.1-.5 12.2-.8 18.4-.1 1.9-.6 4.3-3 4.7-1.3.3-2.7-.2-3.8-.9-1-.7-1.7-1.7-2.4-2.6-2-2.8-4.1-5.7-6.1-8.5-1-1.5-2.1-2.9-3.6-4.1-1.5-1.2-3.6-2.1-5.7-2.1s-4.2 1.2-4.5 2.8c-.2 1.1.4 2.1.7 3.2.2 1.1 0 2.4-1.3 2.8-1.1.4-2.4-.1-3.2-.9-.8-.8-1-1.7-1.3-2.6-.5-1.6-.8-3.6.8-4.6 1.6-1 4.2-.4 5.9.7 2.6 1.6 4.2 4.3 3.7 6.7-.5 2.5-3.5 4.5-6.8 4.2-3.2-.3-5.9-3.3-4.6-5.5" stroke="#7C4C2A" stroke-width="1.141" stroke-miterlimit="10" stroke-linecap="round"/><path d="M101.9 79.4s8.7-1.7 18 6.5" stroke="#7C4C2A" stroke-width="10.161" stroke-miterlimit="10" stroke-linecap="round"/><path d="M102.1 77.6s8.6-2.2 18.4 5.5" stroke="#B66A33" stroke-width="10.161" stroke-miterlimit="10" stroke-linecap="round"/><path d="M124.201 84.4c-.7 1.8-2.9 2.7-4.9 2-2-.7-3.2-2.9-2.5-4.7.7-1.8 2.9-2.7 4.9-2 2 .7 3.2 2.8 2.5 4.7z" fill="#FFBD8A"/><path d="M88.401 102.1c-7.3-5.6-9.1-15.7-3.8-22.5 5.2-6.9 15.4-7.9 22.8-2.3 7.4 5.6 9.1 15.7 3.8 22.5-5.3 6.9-15.5 7.9-22.8 2.3z" fill="#7C4C2A"/><path d="M85.6 100c-7.3-5.6-9.1-15.7-3.8-22.5 5.2-6.9 15.4-7.9 22.8-2.3 7.4 5.6 9.1 15.7 3.8 22.5-5.2 6.9-15.4 7.9-22.8 2.3z" fill="#B66A33"/><path d="M91.2 98.4c-5.6-4.3-7.2-11.8-3.4-16.7 3.7-4.9 11.3-5.4 17-1.1 5.6 4.3 7.2 11.8 3.4 16.7-3.8 4.9-11.4 5.4-17 1.1z" fill="#FFBD8A"/><path d="M103.901 94.4s1.2 5.3-1.1 8.3c-2.3 3-9-2.3-6.6-5.3 2.3-2.9 7.7-3 7.7-3zM103.901 94.4s5.4-.1 7.7-3c2.3-3-4.3-8.2-6.6-5.3-2.3 2.9-1.1 8.3-1.1 8.3z" fill="#F33"/><path d="M103.901 97.6a3.2 3.2 0 100-6.4 3.2 3.2 0 000 6.4z" fill="#fff"/><path d="M79.002 69.6c-2.9 7.4-10.8 11.1-17.7 8.4-6.9-2.7-10-10.9-7.1-18.3 2.9-7.4 10.9-11.1 17.7-8.4 6.9 2.8 10.1 11 7.1 18.3z" fill="#7C4C2A"/><path d="M76.801 74.1c-2.9 7.4-10.9 11.1-17.8 8.3-6.9-2.7-10-10.9-7.1-18.3 2.9-7.4 10.9-11.1 17.8-8.3 6.9 2.8 10 11 7.1 18.3z" fill="#B66A33"/><path d="M74.2 69.9c-2.3 5.6-8.1 8.6-13 6.7-4.9-2-7.1-8.1-4.8-13.8 2.3-5.6 8.1-8.6 13-6.7 4.9 2 7 8.2 4.8 13.8z" fill="#FFBD8A"/><path d="M94.5 72.6c-6.2 6.9-16.3 7.8-22.8 2.1-6.4-5.7-6.6-16-.5-22.9 6.1-6.9 16.4-7.8 22.8-2.1 6.501 5.8 6.701 16 .5 22.9z" fill="#7C4C2A"/><path d="M96.7 70.2c-6.2 6.9-16.3 7.8-22.8 2.1-6.4-5.7-6.6-16-.5-22.9 6.1-6.9 16.3-7.8 22.8-2.1 6.4 5.8 6.7 16 .5 22.9z" fill="#B66A33"/><path d="M95.501 64.6c-4.7 5.3-12.3 6.2-16.9 2.1-4.6-4.1-4.5-11.7.2-17 4.7-5.3 12.3-6.2 16.9-2.1 4.6 4.1 4.5 11.7-.2 17z" fill="#FFBD8A"/><path d="M92.5 51.5s5.4-.8 8.2 1.7c2.8 2.5-3 8.7-5.8 6.2-2.8-2.5-2.4-7.9-2.4-7.9z" fill="#F33"/><path d="M92.501 51.5s.3-5.4-2.4-7.9c-2.7-2.5-8.5 3.7-5.8 6.2s8.2 1.7 8.2 1.7z" fill="#F33"/><path d="M92.5 54.7a3.2 3.2 0 100-6.4 3.2 3.2 0 000 6.4z" fill="#fff"/><path d="M156.301 51.4c5.3-4.8 13.3-4.6 17.7.3 4.5 5 3.8 12.9-1.6 17.7-5.4 4.8-13.3 4.6-17.7-.3-4.4-5-3.7-12.9 1.6-17.7z" fill="#7C4C2A"/><path d="M159.901 48.7c5.3-4.8 13.3-4.6 17.7.3 4.5 5 3.8 12.9-1.6 17.7-5.3 4.8-13.3 4.6-17.7-.3-4.4-5-3.7-12.9 1.6-17.7z" fill="#B66A33"/><path d="M160.4 53.1c4.1-3.7 10-3.8 13.2-.2 3.2 3.6 2.5 9.4-1.6 13.1-4.1 3.7-10 3.8-13.2.2-3.2-3.5-2.5-9.4 1.6-13.1z" fill="#FFBD8A"/><path d="M196 94s-8.7-1.7-18 6.5" stroke="#7C4C2A" stroke-width="10.161" stroke-miterlimit="10" stroke-linecap="round"/><path d="M195.8 92.2s-8.6-2.2-18.4 5.5" stroke="#B66A33" stroke-width="10.161" stroke-miterlimit="10" stroke-linecap="round"/><path d="M173.701 99c.7 1.8 2.9 2.7 4.9 2 2-.7 3.2-2.9 2.5-4.7-.7-1.8-2.9-2.7-4.9-2-2.1.7-3.2 2.9-2.5 4.7z" fill="#FFBD8A"/><path d="M179.4 96.1c.1.2.2.3.2.5v.4l-.5 2.4c-.1.3-.4.4-.7.3l-2.6-.9c-.1 0-.2-.1-.3-.2-.2-.1-.3-.2-.4-.4-.3-.5-.2-1.1.3-1.5.4-.3.9-.3 1.3-.2.2.1.3 0 .4-.2.1-.4.4-.8.8-.9.5-.1 1.2.2 1.5.7z" fill="#8C501C"/><path d="M46.9 150.3c-2.4-1.3-4.7-2.6-7.1-4-1.1-.6-2.7-1.1-3.4-.2-.7.8-.1 2 .4 2.9 3.2 5.3 6.3 10.5 9.5 15.8 1 1.6 1.9 3.8.7 5.3-.7.8-1.8 1.1-2.9.9-1-.1-2-.6-2.9-1.1-2.8-1.5-5.6-2.9-8.4-4.4-1.4-.8-2.9-1.5-4.5-1.8-1.6-.3-3.4-.2-4.7.8-1.3 1-2 2.9-1.3 4.3.5 1 1.4 1.6 2.1 2.4.7.8 1.3 2 .7 2.9-.5.8-1.6 1-2.5.7-.9-.3-1.6-1-2.2-1.6-1.2-1.1-2.4-2.6-2-4.2.5-1.6 2.5-2.2 4.1-2 2.5.2 5 1.7 6 4s.2 5.4-2 6.6c-2.2 1.2-5.5-.1-5.9-2.6" stroke="#7C4C2A" stroke-width=".75" stroke-miterlimit="10" stroke-linecap="round"/><path d="M59.9 151.2s-6 6.6-18.4 5.5" stroke="#7C4C2A" stroke-width="10.161" stroke-miterlimit="10" stroke-linecap="round"/><path d="M60.9 152.8s-5.6 6.9-18 6.5" stroke="#B66A33" stroke-width="10.161" stroke-miterlimit="10" stroke-linecap="round"/><path d="M39 160.5c-.6-1.9.7-3.9 2.8-4.5 2.1-.6 4.2.4 4.8 2.3.6 1.9-.7 3.9-2.8 4.5-2.1.6-4.2-.5-4.8-2.3z" fill="#FFBD8A"/><path d="M45.4 159.4c0-.2-.1-.4-.2-.5-.1-.1-.1-.2-.2-.2l-.1-.1-1.8-1.6c-.2-.2-.5-.1-.7.1l-1.6 2.3c-.1.1-.1.2-.2.3-.1.2-.1.3-.1.5 0 .6.5 1 1.1 1 .5 0 .9-.3 1.2-.7.1-.2.3-.2.4-.1.3.3.7.4 1.2.2.6 0 1-.6 1-1.2z" fill="#8C501C"/><path d="M160.702 85.3c-2.4-1.3-4.7-2.6-7.1-4-1.1-.6-2.7-1.1-3.4-.2-.7.8-.1 2 .4 2.9 3.2 5.3 6.3 10.5 9.5 15.8 1 1.6 1.9 3.8.7 5.3-.7.8-1.8 1.1-2.9.9-1-.1-2-.6-2.9-1.1-2.8-1.5-5.6-2.9-8.4-4.4-1.4-.8-2.9-1.5-4.5-1.8-1.6-.3-3.4-.2-4.7.8-1.3 1-2 2.9-1.3 4.3.5 1 1.4 1.6 2.1 2.4.7.8 1.3 2 .7 2.9-.5.8-1.6 1-2.5.7-.9-.3-1.6-1-2.2-1.6-1.2-1.1-2.4-2.6-2-4.2.5-1.6 2.5-2.2 4.1-2 2.5.2 5 1.7 6 4s.2 5.4-2 6.6c-2.2 1.2-5.5-.1-5.9-2.6" stroke="#7C4C2A" stroke-miterlimit="10" stroke-linecap="round"/><path d="M144.801 85.3s-8.9.8-15.5 11.3" stroke="#7C4C2A" stroke-width="10.161" stroke-miterlimit="10" stroke-linecap="round"/><path d="M144.2 83.5s-8.9.3-16.1 10.5" stroke="#B66A33" stroke-width="10.161" stroke-miterlimit="10" stroke-linecap="round"/><path d="M124.9 96.3c1.2 1.6 3.5 1.8 5.3.5 1.8-1.3 2.2-3.6 1.1-5.2-1.2-1.6-3.5-1.8-5.3-.5-1.8 1.3-2.3 3.6-1.1 5.2z" fill="#FFBD8A"/><path d="M129.499 91.9c.1.1.2.3.3.4 0 .1.1.2.1.3v.1l.2 2.4c0 .3-.2.5-.5.5l-2.8-.1c-.1 0-.2 0-.3-.1-.2 0-.3-.1-.5-.3-.4-.4-.5-1-.2-1.5.3-.4.8-.6 1.2-.5.2 0 .3-.1.3-.3-.1-.4.1-.8.5-1.1.6-.3 1.3-.2 1.7.2z" fill="#8C501C"/><path d="M162.4 80.1s7.9-4.1 19.1 1.1" stroke="#7C4C2A" stroke-width="10.161" stroke-miterlimit="10" stroke-linecap="round"/><path d="M162 78.3s7.6-4.5 19.2.1" stroke="#B66A33" stroke-width="10.161" stroke-miterlimit="10" stroke-linecap="round"/><path d="M185.1 78.5c-.1 2-2 3.4-4.2 3.3-2.2-.1-3.8-1.8-3.7-3.8.1-2 2-3.4 4.2-3.3 2.2.2 3.9 1.9 3.7 3.8z" fill="#FFBD8A"/><path d="M172.199 90c2.7 8.8-1.8 18-10 20.6-8.2 2.5-17.1-2.6-19.8-11.4-2.7-8.8 1.8-18 10-20.6 8.2-2.5 17.1 2.6 19.8 11.4z" fill="#7C4C2A"/><path d="M171.199 86.9c2.7 8.8-1.8 18-10 20.6-8.2 2.5-17.1-2.6-19.8-11.4-2.7-8.8 1.8-18 10-20.6 8.3-2.5 17.1 2.6 19.8 11.4z" fill="#B66A33"/><path d="M165.801 85.1c2.1 6.8-1 13.7-6.9 15.5-5.9 1.8-12.4-2.2-14.4-9-2.1-6.8 1-13.7 6.9-15.5 5.8-1.8 12.3 2.2 14.4 9z" fill="#FFBD8A"/><path d="M153.1 80.9s2.1-5 5.7-6.1c3.6-1.1 5.9 7.1 2.3 8.1-3.6 1-8-2-8-2zM153.1 80.9s-4.5-3.1-8-2c-3.6 1.1-1.2 9.2 2.3 8.1 3.5-1.1 5.7-6.1 5.7-6.1z" fill="#F33"/><path d="M153.1 84.1a3.2 3.2 0 10.001-6.4 3.2 3.2 0 00-.001 6.4z" fill="#fff"/><path d="M67.1 93.8s-7.8 4.3-9.7 16.5" stroke="#7C4C2A" stroke-width="10.161" stroke-miterlimit="10" stroke-linecap="round"/><path d="M65.801 92.4s-8 3.8-10.6 16" stroke="#B66A33" stroke-width="10.161" stroke-miterlimit="10" stroke-linecap="round"/><path d="M53.2 111.8c1.7 1 4 .3 5.1-1.6 1.1-1.9.6-4.2-1.1-5.2-1.7-1-4-.3-5.1 1.6-1.1 1.9-.6 4.2 1.1 5.2z" fill="#FFBD8A"/><path d="M55.7 105.9c.2.1.3.2.5.3l.2.2s0 .1.1.1l1.1 2.2c.1.2 0 .6-.3.7l-2.6 1c-.1 0-.2.1-.3.1-.2 0-.4 0-.5-.1-.6-.2-.9-.7-.7-1.3.1-.5.5-.8.9-1 .2-.1.3-.2.2-.4-.2-.3-.2-.8.1-1.2.1-.5.8-.8 1.3-.6z" fill="#8C501C"/><path d="M81.2 82s5.6-6.9 18-6.6" stroke="#7C4C2A" stroke-width="10.161" stroke-miterlimit="10" stroke-linecap="round"/><path d="M80.1 80.5s5.2-7.2 17.6-7.5" stroke="#B66A33" stroke-width="10.161" stroke-miterlimit="10" stroke-linecap="round"/><path d="M101.499 71.6c.7 1.8-.5 3.9-2.5 4.7-2.1.7-4.3-.2-4.9-2-.7-1.8.5-3.9 2.5-4.7 2-.8 4.2.1 4.9 2z" fill="#FFBD8A"/><path d="M94.1 87.3c6 7 5.5 17.3-1 22.8-6.6 5.6-16.7 4.4-22.7-2.6s-5.5-17.3 1-22.8c6.6-5.6 16.7-4.5 22.7 2.6z" fill="#7C4C2A"/><path d="M92 84.8c6 7 5.5 17.3-1 22.8-6.6 5.6-16.7 4.4-22.7-2.6s-5.5-17.3 1-22.8c6.6-5.6 16.8-4.4 22.7 2.6z" fill="#B66A33"/><path d="M86.3 85.3c4.6 5.4 4.5 13-.2 17s-12.2 2.9-16.8-2.5c-4.6-5.4-4.5-13 .2-17 4.7-4.1 12.2-2.9 16.8 2.5z" fill="#FFBD8A"/><path d="M73 86.4s-.1-5.5 2.8-7.9c2.9-2.4 8.3 4.1 5.4 6.5-2.9 2.5-8.2 1.4-8.2 1.4z" fill="#F33"/><path d="M73.001 86.4s-5.3-1.1-8.2 1.3c-2.9 2.4 2.5 8.9 5.4 6.5 2.8-2.3 2.8-7.8 2.8-7.8z" fill="#F33"/><path d="M73 89.6a3.2 3.2 0 100-6.4 3.2 3.2 0 000 6.4z" fill="#fff"/><path d="M138.4 64l8.6-7.5c.3-.3.4-.8.1-1.1-.3-.3-.8-.4-1.1-.1l-8.6 7.5c-.3.3-.4.8-.1 1.1.3.4.8.4 1.1.1z" fill="#A3A7AB"/><path d="M139.099 64.9l8.6-7.5c.3-.3.401-.8.101-1.1-.3-.3-.801-.4-1.101-.1l-8.6 7.5c-.3.3-.4.8-.1 1.1.3.3.8.3 1.1.1z" fill="#A3A7AB"/><path d="M129 66.9c1.3 1.4 3.2 1.8 4.4.8l2.1-1.8" stroke="#206F3B" stroke-width="1.836" stroke-miterlimit="10"/><path d="M132.9 67.2l2.1-1.8-1.8-2.1c-1-1.2-2.8-1.3-3.9-.3-1.2 1-1.3 2.8-.3 3.9 1 1.2 2.7 1.3 3.9.3zM133.9 72.6c-1.3-1.4-1.3-3.4-.2-4.4l2.1-1.8" stroke="#206F3B" stroke-width="1.836" stroke-miterlimit="10"/><path d="M134.201 68.7l2.1-1.8 1.8 2.1c1 1.2.9 2.9-.3 3.9s-2.9.9-3.9-.3-.9-2.9.3-3.9z" stroke="#206F3B" stroke-width="1.836" stroke-miterlimit="10"/><path d="M139.6 62.6l-5.7 4.9 1.2 1.4 4.2-3.7c.9-.6 1-1.8.3-2.6zM139.599 62.6l-5.7 4.9-1.2-1.4 4.2-3.7c.9-.7 2-.6 2.7.2z" fill="#206F3B"/><path d="M138.4 64.1a.5.5 0 10.001-.999.5.5 0 00-.001 1z" fill="#A3A7AB"/><path d="M137.9 63.5l8.6-7.5c.3-.3.4-.8.1-1.1-.3-.3-.8-.4-1.1-.1l-8.6 7.5c-.3.3-.4.8-.1 1.1.3.3.8.4 1.1.1z" fill="#D8DDE2"/><path d="M138.599 64.3l8.6-7.5c.3-.3.401-.8.101-1.1-.3-.3-.801-.4-1.101-.1l-8.6 7.5c-.3.3-.4.8-.1 1.1.3.3.8.4 1.1.1z" fill="#D8DDE2"/><path d="M128.5 66.3c1.3 1.4 3.2 1.8 4.4.8l2.1-1.8" stroke="#30A658" stroke-width="1.836" stroke-miterlimit="10"/><path d="M132.4 66.6l2.1-1.8-1.8-2.1c-1-1.2-2.8-1.3-3.9-.3-1.2 1-1.3 2.8-.3 3.9 1 1.2 2.7 1.3 3.9.3zM133.4 72c-1.3-1.4-1.3-3.4-.2-4.4l2.1-1.8" stroke="#30A658" stroke-width="1.836" stroke-miterlimit="10"/><path d="M133.701 68.1l2.1-1.8 1.8 2.1c1 1.2.9 2.9-.3 3.9s-2.9.9-3.9-.3c-1-1.1-.9-2.9.3-3.9z" stroke="#30A658" stroke-width="1.836" stroke-miterlimit="10"/><path d="M139.1 62l-5.7 4.9 1.2 1.4 4.2-3.7c.9-.6 1-1.8.3-2.6z" fill="#30A658"/><path d="M139.099 62.1l-5.7 4.9-1.2-1.4 4.2-3.7c.9-.7 2.1-.6 2.7.2z" fill="#30A658"/><path d="M138 63.6a.5.5 0 100-1 .5.5 0 000 1z" fill="#D8DDE2"/><path d="M112.102 69.1s8.7-1.7 18 6.5" stroke="#7C4C2A" stroke-width="10.161" stroke-miterlimit="10" stroke-linecap="round"/><path d="M112.301 67.3s8.6-2.2 18.4 5.5" stroke="#B66A33" stroke-width="10.161" stroke-miterlimit="10" stroke-linecap="round"/><path d="M134.402 74.1c-.7 1.8-2.9 2.7-4.9 2-2-.7-3.2-2.9-2.5-4.7.7-1.8 2.9-2.7 4.9-2 2 .7 3.2 2.9 2.5 4.7z" fill="#FFBD8A"/><path d="M72.5 160c-1.7.9-3.7.9-5.4.6-.2.8-.8 1.6-1.6 2.1s-1.8.5-2.6.3c-.7 1.6-1.8 3.4-3.4 4.3-3.4 1.9-7.7-5.8-4.3-7.8 1.6-.9 3.7-.9 5.4-.6.2-.9.8-1.6 1.6-2.1s1.8-.5 2.6-.3c.7-1.6 1.8-3.4 3.4-4.3 3.4-1.9 7.7 5.9 4.3 7.8z" fill="#9C0F0A"/><path d="M63 158.4s1-5.6 4.4-7.6c3.4-1.9 7.7 5.8 4.3 7.8-3.4 2-8.7-.2-8.7-.2zM63 158.4s-5.3-2.1-8.7-.2c-3.4 1.9.9 9.7 4.3 7.8 3.4-1.9 4.4-7.6 4.4-7.6z" fill="#F33"/><path d="M63 161.8a3.4 3.4 0 100-6.8 3.4 3.4 0 000 6.8z" fill="#fff"/><path d="M136.101 110c.2-.8-.3-1.6-1.1-1.9l-22.6-7.1c-.1-.1-.2.2-.1.2l21.6 9.9c.1 0 .1.1.2.1.9.3 1.8-.3 2-1.2zm-1.7.1l-6.3-2.9 6.6 2.1c.2.1.3.3.3.5-.1.2-.4.3-.6.3z" fill="#D8DDE2"/><path d="M117.4 99.9s-8.7-1.7-18 6.5" stroke="#7C4C2A" stroke-width="10.161" stroke-miterlimit="10" stroke-linecap="round"/><path d="M117.201 98s-8.6-2.2-18.4 5.5" stroke="#B66A33" stroke-width="10.161" stroke-miterlimit="10" stroke-linecap="round"/><path d="M95.101 104.8c.7 1.8 2.9 2.7 4.9 2 2-.7 3.2-2.9 2.5-4.7-.7-1.8-2.9-2.7-4.9-2-2.1.8-3.2 2.9-2.5 4.7z" fill="#FFBD8A"/><path d="M100.801 101.9c.1.2.2.3.2.5v.4l-.5 2.4c-.1.3-.4.4-.7.3l-2.6-.9c-.1 0-.2-.1-.3-.2-.2-.1-.3-.2-.4-.4-.3-.5-.2-1.1.3-1.5.4-.3.9-.3 1.3-.2.2.1.3 0 .4-.2.1-.4.4-.8.8-.9.5-.1 1.2.2 1.5.7z" fill="#8C501C"/><path d="M99.1 102.3c1.712 0 3.1-1.119 3.1-2.5 0-1.38-1.388-2.5-3.1-2.5-1.712 0-3.1 1.12-3.1 2.5 0 1.381 1.388 2.5 3.1 2.5z" fill="#fff"/><path d="M104.264 103.47c.474-1.297-.236-2.748-1.584-3.241-1.349-.492-2.827.159-3.3 1.456-.474 1.297.235 2.748 1.584 3.241 1.348.493 2.826-.159 3.3-1.456z" fill="#fff"/><path d="M97.8 106.1c2.154 0 3.9-1.567 3.9-3.5s-1.746-3.5-3.9-3.5c-2.153 0-3.9 1.567-3.9 3.5s1.746 3.5 3.9 3.5z" fill="#fff"/><path d="M101.6 102.2c-.2.7-1 1-1.7.7-.5-.2-.8-.6-.9-1.1 0-.2 0-.3.1-.5.2-.7 1-1 1.7-.7.7.2 1 .9.8 1.6zM96.814 103.951a.9.9 0 10-1.69-.618.9.9 0 001.69.618z" fill="#CECECE"/><path d="M91.702 51.6c1.712 0 3.1-1.12 3.1-2.5s-1.388-2.5-3.1-2.5c-1.712 0-3.1 1.12-3.1 2.5s1.388 2.5 3.1 2.5z" fill="#fff"/><path d="M96.83 52.74c.474-1.297-.235-2.748-1.584-3.24-1.349-.493-2.826.159-3.3 1.456-.474 1.296.235 2.747 1.584 3.24 1.349.493 2.826-.159 3.3-1.456z" fill="#fff"/><path d="M90.502 55.4c2.154 0 3.9-1.567 3.9-3.5s-1.746-3.5-3.9-3.5-3.9 1.567-3.9 3.5 1.746 3.5 3.9 3.5z" fill="#fff"/><path d="M94.202 51.5c-.2.7-1 1-1.7.7-.5-.2-.8-.6-.9-1.1 0-.2 0-.3.1-.5.2-.7 1-1 1.7-.7.7.2 1.1.9.8 1.6zM89.474 53.255a.9.9 0 10-1.69-.617.9.9 0 001.69.617z" fill="#CECECE"/><path d="M190.7 69.5c-1.7-.8-2.9-2.6-3.6-4.1-.8.3-1.8.3-2.6-.1-.9-.4-1.5-1.2-1.7-2-1.7.4-3.8.5-5.5-.4-3.5-1.7.4-9.7 4-7.9 1.7.8 2.9 2.6 3.6 4.1.8-.3 1.8-.3 2.6.1.9.4 1.5 1.2 1.7 2 1.7-.4 3.8-.5 5.5.4 3.5 1.7-.5 9.6-4 7.9z" fill="#9C0F0A"/><path d="M186.701 60.8s5.2-2.4 8.7-.7c3.5 1.7-.4 9.7-4 7.9-3.5-1.6-4.7-7.2-4.7-7.2zM186.701 60.8s-1.2-5.5-4.7-7.3c-3.5-1.8-7.5 6.2-4 7.9 3.5 1.7 8.7-.6 8.7-.6z" fill="#F33"/><path d="M186.701 64.2a3.4 3.4 0 100-6.8 3.4 3.4 0 000 6.8z" fill="#fff"/><path d="M69.8 84.3c.1-.9.2-2-.3-2.8-1.2-2-2.9-1.4-3.2-3.4M70.501 82.8c.2-.5 0-1.1-.3-1.6s-.7-.9-.9-1.4c-.2-.6 0-1.3.4-1.8M72.701 77.2c-1 .6-1.7 1.7-1.7 2.8-.1 1.2.4 2.3 1.1 3.2M69.602 83.3c-1.1-1.6-3.8-.9-4.5-.1" stroke="#FFBD8A" stroke-width=".803" stroke-miterlimit="10" stroke-linecap="round"/><path d="M121.801 83.1c-.2 1-.2 2.2.3 3.1 1.4 2.2 3.3 1.5 3.7 3.8M121.001 84.8c-.3.6 0 1.2.3 1.7s.8 1 1 1.6c.2.7 0 1.5-.5 2M118.602 91.2c1.1-.6 1.8-1.9 1.9-3.2.1-1.3-.4-2.6-1.3-3.6M122.002 84.3c1.2 1.8 4.3 1 5.1.1" stroke="#FFBD8A" stroke-width=".904" stroke-miterlimit="10" stroke-linecap="round"/><path d="M192.502 83.4l-4.1-2.8c-.8-.6-1-1.7-.5-2.5l5.5-6.1c.6-.8 1.7-1 2.5-.5l2.1 1.5c.8.6 1 1.7.5 2.5l-3.5 7.5c-.5.7-1.6.9-2.5.4z" fill="#F8C329"/><path d="M193.102 80.5l-2.3-1.5c-.4-.3-.6-.9-.3-1.4l3-3.3c.3-.4.9-.6 1.4-.3l1.2.8c.4.3.6.9.3 1.4l-1.9 4.1c-.3.4-.9.5-1.4.2zM198.341 73.459c.093-.137-.46-.676-1.237-1.205-.776-.528-1.481-.845-1.574-.708-.093.137.461.676 1.237 1.204.776.529 1.481.846 1.574.709z" fill="#6BB4FD"/><path d="M199.602 71.671l-2.893-1.97-1.182 1.737 2.894 1.97 1.181-1.737z" fill="#6BB4FD"/><path d="M199.608 71.597c.094-.137-.46-.676-1.236-1.204-.776-.529-1.481-.846-1.574-.709-.094.137.46.676 1.236 1.205.776.528 1.481.845 1.574.708z" fill="#2C84DB"/><path d="M199.001 68.6l-1.7 1.5.9.6.9.6.8-2.1c0-.6-.5-.9-.9-.6z" fill="#fff"/><path d="M198.977 71.15c.031-.045-.314-.334-.77-.645-.457-.31-.852-.526-.883-.48-.031.046.314.335.77.645.457.311.852.526.883.48z" fill="#fff"/><path d="M38.3 120.5c4.143 0 7.5-1.209 7.5-2.7s-3.357-2.7-7.5-2.7c-4.141 0-7.5 1.209-7.5 2.7s3.359 2.7 7.5 2.7z" fill="#B9BDC3"/><path d="M41.801 51.1h-7.1v65.6h7.1V51.1z" fill="#B9BDC3"/><path opacity=".2" d="M41.8 51.1h-1.9v65.6h1.9V51.1z" fill="#000"/><path d="M43.502 27h-10.4v36h10.4V27z" fill="#FA9664"/><path d="M43.402 27l-10.3 5.3v-5.2l.1-.1h10.2zM43.502 34.1l-10.4 5.4v-5.2l10.4-5.4v5.2zM43.502 41.3l-10.4 5.4v-5.2l10.4-5.4v5.2zM43.502 48.5l-10.4 5.4v-5.2l10.4-5.4v5.2zM43.502 55.7l-10.4 5.4v-5.3l10.4-5.3v5.2zM43.501 57.7v5.2l-.2.1h-10.1l10.3-5.3z" fill="#FFF173"/><path d="M43.502 27h-10.4v36h10.4V27z" fill="#FA9664"/><path d="M43.402 27l-10.3 5.3v-5.2l.1-.1h10.2zM43.502 34.1l-10.4 5.4v-5.2l10.4-5.4v5.2zM43.502 41.3l-10.4 5.4v-5.2l10.4-5.4v5.2zM43.502 48.5l-10.4 5.4v-5.2l10.4-5.4v5.2zM43.502 55.7l-10.4 5.4v-5.3l10.4-5.3v5.2zM43.501 57.7v5.2l-.2.1-.2.2c-2.7 3-7.4 2.9-9.9-.2l10.3-5.3z" fill="#FFF173"/><path opacity=".2" d="M43.5 62.9l-2.2 1.8V27h2.2v35.9z" fill="#000"/><path d="M38.1 30.8c7.235 0 13.1-2.15 13.1-4.8 0-2.651-5.865-4.8-13.1-4.8-7.235 0-13.1 2.149-13.1 4.8 0 2.65 5.865 4.8 13.1 4.8z" fill="#FA9664"/><path d="M38.1 30c7.235 0 13.1-2.15 13.1-4.8 0-2.651-5.865-4.8-13.1-4.8-7.235 0-13.1 2.149-13.1 4.8 0 2.65 5.865 4.8 13.1 4.8z" fill="#FFF173"/><path d="M50.2 24.3c0 2.3-5.4 4.2-12 4.2-2.7 0-5.2-.3-7.2-.9-.6-.2-1.2-.3-1.7-.5-.3-.1-.6-.2-.8-.3-.3-.1-.6-.3-.8-.4-1-.6-1.5-1.3-1.5-2.1s.6-1.5 1.5-2.1c.2-.2.5-.3.8-.4.2-.1.5-.2.8-.3.5-.2 1-.4 1.7-.5 2-.5 4.5-.9 7.2-.9 6.6 0 12 1.9 12 4.2z" fill="#6AC86E"/><path d="M50.1 5.1H27.4v19.5h22.7V5.1z" fill="#219750"/><path d="M49.5 5.1H26v19.5h23.5V5.1z" fill="#6AC86E"/><path d="M45.5 24.3c0 1-3.3 1.8-7.4 1.8-4.1 0-7.4-.8-7.4-1.8s3.3-6.9 7.4-6.9c4.1 0 7.4 5.9 7.4 6.9z" fill="#219750"/><path d="M32.7 24.1c2.484 0 4.5-3 4.5-6.7s-2.016-6.7-4.5-6.7c-2.486 0-4.5 3-4.5 6.7s2.014 6.7 4.5 6.7z" fill="#fff"/><path d="M33.7 24.1c2.484 0 4.5-3 4.5-6.7s-2.016-6.7-4.5-6.7c-2.486 0-4.5 3-4.5 6.7s2.014 6.7 4.5 6.7z" fill="#1A844B"/><path d="M40.1 24.1c2.485 0 4.5-3 4.5-6.7s-2.015-6.7-4.5-6.7c-2.486 0-4.5 3-4.5 6.7s2.014 6.7 4.5 6.7z" fill="#1A844B"/><path d="M43.5 24.1c2.485 0 4.5-3 4.5-6.7s-2.015-6.7-4.5-6.7-4.5 3-4.5 6.7 2.015 6.7 4.5 6.7z" fill="#fff"/><path opacity=".5" d="M29.2 5.1v21.2c-.3-.1-.6-.2-.8-.2-.3-.1-.6-.2-.8-.3V5.1h1.6z" fill="#fff"/><path opacity=".5" d="M30.9 5.1v21.5c-.6-.1-1.2-.2-1.7-.4-.3-.1-.6-.2-.8-.2V4.9l2.5.2z" fill="#fff"/><path d="M38.1 10.4c7.235 0 13.1-2.149 13.1-4.8 0-2.65-5.865-4.8-13.1-4.8C30.865.8 25 2.95 25 5.6c0 2.651 5.865 4.8 13.1 4.8z" fill="#FA9664"/><path d="M38.1 9.6c7.235 0 13.1-2.149 13.1-4.8S45.335 0 38.1 0C30.865 0 25 2.149 25 4.8s5.865 4.8 13.1 4.8z" fill="#FFF173"/></svg>