<svg width="250" height="200" fill="none" xmlns="http://www.w3.org/2000/svg"><path d="M40.3 120.5c4.143 0 7.5-1.209 7.5-2.7s-3.357-2.7-7.5-2.7c-4.141 0-7.5 1.209-7.5 2.7s3.359 2.7 7.5 2.7z" fill="#B9BDC3"/><path d="M43.801 51.1h-7.1v65.6h7.1V51.1z" fill="#B9BDC3"/><path opacity=".2" d="M43.8 51.1h-1.9v65.6h1.9V51.1z" fill="#000"/><path d="M45.502 27h-10.4v36h10.4V27z" fill="#FA9664"/><path d="M45.402 27l-10.3 5.3v-5.2l.1-.1h10.2zM45.502 34.1l-10.4 5.4v-5.2l10.4-5.4v5.2zM45.502 41.3l-10.4 5.4v-5.2l10.4-5.4v5.2zM45.502 48.5l-10.4 5.4v-5.2l10.4-5.4v5.2zM45.502 55.7l-10.4 5.4v-5.3l10.4-5.3v5.2zM45.501 57.7v5.2l-.2.1h-10.1l10.3-5.3z" fill="#FFF173"/><path d="M45.502 27h-10.4v36h10.4V27z" fill="#FA9664"/><path d="M45.402 27l-10.3 5.3v-5.2l.1-.1h10.2zM45.502 34.1l-10.4 5.4v-5.2l10.4-5.4v5.2zM45.502 41.3l-10.4 5.4v-5.2l10.4-5.4v5.2zM45.502 48.5l-10.4 5.4v-5.2l10.4-5.4v5.2zM45.502 55.7l-10.4 5.4v-5.3l10.4-5.3v5.2zM45.501 57.7v5.2l-.2.1-.2.2c-2.7 3-7.4 2.9-9.9-.2l10.3-5.3z" fill="#FFF173"/><path opacity=".2" d="M45.5 62.9l-2.2 1.8V27h2.2v35.9z" fill="#000"/><path d="M40.1 30.8c7.235 0 13.1-2.15 13.1-4.8 0-2.651-5.865-4.8-13.1-4.8-7.235 0-13.1 2.149-13.1 4.8 0 2.65 5.865 4.8 13.1 4.8z" fill="#FA9664"/><path d="M40.1 30c7.235 0 13.1-2.15 13.1-4.8 0-2.651-5.865-4.8-13.1-4.8-7.235 0-13.1 2.149-13.1 4.8 0 2.65 5.865 4.8 13.1 4.8z" fill="#FFF173"/><path d="M52.2 24.3c0 2.3-5.4 4.2-12 4.2-2.7 0-5.2-.3-7.2-.9-.6-.2-1.2-.3-1.7-.5-.3-.1-.6-.2-.8-.3-.3-.1-.6-.3-.8-.4-1-.6-1.5-1.3-1.5-2.1s.6-1.5 1.5-2.1c.2-.2.5-.3.8-.4.2-.1.5-.2.8-.3.5-.2 1-.4 1.7-.5 2-.5 4.5-.9 7.2-.9 6.6 0 12 1.9 12 4.2z" fill="#6AC86E"/><path d="M52.1 5.1H29.4v19.5h22.7V5.1z" fill="#219750"/><path d="M51.5 5.1H28v19.5h23.5V5.1z" fill="#6AC86E"/><path d="M47.5 24.3c0 1-3.3 1.8-7.4 1.8-4.1 0-7.4-.8-7.4-1.8s3.3-6.9 7.4-6.9c4.1 0 7.4 5.9 7.4 6.9z" fill="#219750"/><path d="M34.7 24.1c2.484 0 4.5-3 4.5-6.7s-2.016-6.7-4.5-6.7c-2.486 0-4.5 3-4.5 6.7s2.014 6.7 4.5 6.7z" fill="#fff"/><path d="M35.7 24.1c2.484 0 4.5-3 4.5-6.7s-2.016-6.7-4.5-6.7c-2.486 0-4.5 3-4.5 6.7s2.014 6.7 4.5 6.7z" fill="#1A844B"/><path d="M42.1 24.1c2.485 0 4.5-3 4.5-6.7s-2.015-6.7-4.5-6.7c-2.486 0-4.5 3-4.5 6.7s2.014 6.7 4.5 6.7z" fill="#1A844B"/><path d="M45.5 24.1c2.485 0 4.5-3 4.5-6.7s-2.015-6.7-4.5-6.7-4.5 3-4.5 6.7 2.015 6.7 4.5 6.7z" fill="#fff"/><path opacity=".5" d="M31.2 5.1v21.2c-.3-.1-.6-.2-.8-.2-.3-.1-.6-.2-.8-.3V5.1h1.6z" fill="#fff"/><path opacity=".5" d="M32.9 5.1v21.5c-.6-.1-1.2-.2-1.7-.4-.3-.1-.6-.2-.8-.2V4.9l2.5.2z" fill="#fff"/><path d="M40.1 10.4c7.235 0 13.1-2.149 13.1-4.8 0-2.65-5.865-4.8-13.1-4.8C32.865.8 27 2.95 27 5.6c0 2.651 5.865 4.8 13.1 4.8z" fill="#FA9664"/><path d="M40.1 9.6c7.235 0 13.1-2.149 13.1-4.8S47.335 0 40.1 0C32.865 0 27 2.149 27 4.8s5.865 4.8 13.1 4.8z" fill="#FFF173"/><g clip-path="url(#clip0)"><path d="M179.929 82.075c-2.2-3.1-5.7-3.9-8.1-2.2-2.2 1.6-2.8 4.7-1 7.7-1.2.4-2.3.9-3.3 1.6-.8.6-1.5 1.2-2.1 2-2.3-2.5-5.3-2.9-7.4-1.4-2.4 1.7-2.8 5.3-.5 8.4 1.4 2 3.5 3.2 5.4 3.4.4 2.1 1.2 4.2 2.6 6.1 4.4 6.2 12.5 8 18.1 4 5.6-4 6.5-12.3 2.1-18.5-1.3-1.8-2.8-3.2-4.5-4.2.7-1.9.3-4.6-1.3-6.9z" fill="#7C4C2A"/><path d="M166.928 93.775c1.8 2.5 1.2 6-1.3 7.8-2.5 1.8-6 1.2-7.8-1.3-1.8-2.5-1.2-6 1.3-7.8 2.5-1.8 6-1.2 7.8 1.3zM181.428 83.375c1.8 2.5 1.2 6-1.3 7.8-2.5 1.8-6 1.2-7.8-1.3-1.8-2.5-1.2-6 1.3-7.8 2.5-1.8 6-1.2 7.8 1.3z" fill="#B66A33"/><path d="M165.328 94.975c1.2 1.6.8 3.9-.8 5.1-1.6 1.2-3.9.8-5.1-.8-1.2-1.6-.8-3.9.8-5.1 1.7-1.2 3.9-.9 5.1.8zM179.828 84.575c1.2 1.6.8 3.9-.8 5.1-1.6 1.2-3.9.8-5.1-.8-1.2-1.6-.8-3.9.8-5.1 1.7-1.2 4-.9 5.1.8z" fill="#8C501C"/><path d="M185.628 92.575c3.5 4.9 1.7 12.4-4.2 16.5-5.9 4.2-13.5 3.6-17-1.4-3.5-4.9-1.7-12.4 4.2-16.5 5.9-4.2 13.5-3.6 17 1.4z" fill="#B66A33"/><path d="M182.628 98.675c1.7 2.4.6 6.2-2.6 8.5-3.1 2.3-7.1 2.1-8.8-.3-1.7-2.4-.6-6.2 2.6-8.5 3.1-2.2 7.1-2.1 8.8.3z" fill="#FFBD8A"/><path d="M170.552 102.223c.629-.45.643-1.507.032-2.36s-1.616-1.18-2.244-.73c-.629.45-.644 1.507-.033 2.36s1.616 1.18 2.245.73zM178.271 96.727c.628-.45.643-1.507.032-2.36s-1.616-1.18-2.245-.73c-.628.45-.643 1.507-.032 2.36s1.616 1.18 2.245.73z" fill="#332F2E"/><path d="M170.114 101.529c.225-.161.224-.546-.001-.861-.225-.314-.589-.438-.814-.278-.224.161-.224.546.001.861.225.314.59.438.814.278zM177.833 96.033c.224-.161.224-.546-.001-.86-.225-.315-.59-.44-.814-.279-.225.161-.224.546.001.86.225.315.589.44.814.279z" fill="#fff"/><path d="M177.726 103.875c.7.9.4 2.2-.5 2.9-.9.7-2.2.4-2.9-.5" stroke="#584539" stroke-width=".769" stroke-miterlimit="10" stroke-linecap="round"/><path d="M181.027 101.475c.7.9.4 2.2-.5 2.9-.9.7-2.2.4-2.9-.5M176.426 101.975l1.3 1.9" stroke="#584539" stroke-width=".769" stroke-miterlimit="10" stroke-linecap="round"/><path d="M177.122 103.026c1.392-.996 2.025-2.496 1.414-3.35-.611-.853-2.235-.736-3.627.26-1.392.997-2.025 2.497-1.414 3.35.611.854 2.235.737 3.627-.26z" fill="#7C4C2A"/><path d="M54.333 130.143c-.9-3.8-4-5.7-6.9-5-2.8.7-4.5 3.4-4 6.8-1.3-.1-2.6 0-3.9.3-1 .2-1.9.6-2.8 1.1-1.2-3.2-3.9-4.6-6.6-4-3 .7-4.8 3.9-3.9 7.7.6 2.4 2.1 4.3 3.9 5.1-.5 2.1-.5 4.4 0 6.7 1.8 7.4 8.9 12 15.9 10.3 7-1.7 11.2-9.1 9.4-16.5-.5-2.1-1.4-4-2.7-5.6 1.5-1.5 2.2-4.2 1.6-6.9z" fill="#8C501C"/><path d="M37.433 135.843c.7 3-1.1 6-4.1 6.7-3 .7-6-1.1-6.7-4.1-.7-3 1.1-6 4.1-6.7 2.9-.7 5.9 1.1 6.7 4.1zM54.734 131.643c.7 3-1.1 6-4.1 6.7-3 .7-6-1.1-6.7-4.1-.7-3 1.1-6 4.1-6.7 3-.7 6 1.1 6.7 4.1z" fill="#B66A33"/><path d="M35.534 136.343c.5 1.9-.7 3.9-2.7 4.4-1.9.5-3.9-.7-4.4-2.7-.5-1.9.7-3.9 2.7-4.4 1.9-.5 3.9.7 4.4 2.7zM52.833 132.043c.5 1.9-.7 3.9-2.7 4.4-1.9.5-3.9-.7-4.4-2.7-.5-1.9.7-3.9 2.7-4.4 2-.4 3.9.8 4.4 2.7z" fill="#8C501C"/><path d="M55.233 141.643c1.4 5.9-3.1 12.1-10.1 13.8-7 1.7-13.8-1.7-15.3-7.6-1.4-5.9 3.1-12.1 10.1-13.8 7-1.7 13.9 1.7 15.3 7.6z" fill="#B66A33"/><path d="M50.134 146.243c.7 2.9-1.8 6-5.5 6.9-3.8.9-7.4-.7-8.1-3.6-.7-2.9 1.8-6 5.5-6.9 3.8-.9 7.4.7 8.1 3.6z" fill="#FFBD8A"/><path d="M37.584 145.002c.752-.183 1.16-1.158.91-2.178-.248-1.019-1.058-1.697-1.81-1.514-.75.183-1.158 1.158-.91 2.177.249 1.02 1.06 1.698 1.81 1.515zM46.893 142.781c.751-.183 1.159-1.158.91-2.177-.248-1.02-1.059-1.698-1.81-1.515-.751.183-1.159 1.158-.91 2.178.248 1.019 1.059 1.697 1.81 1.514z" fill="#332F2E"/><path d="M37.395 144.237c.269-.065.412-.423.32-.798-.091-.376-.383-.627-.651-.562-.268.065-.412.423-.32.798.091.376.383.628.651.562zM46.704 142.016c.268-.065.412-.423.32-.798-.092-.376-.383-.627-.651-.562-.269.065-.412.423-.32.799.091.375.383.627.651.561z" fill="#fff"/><path d="M43.633 149.243c.3 1.1-.4 2.2-1.5 2.5-1.1.3-2.2-.4-2.5-1.5" stroke="#584539" stroke-width=".769" stroke-miterlimit="10" stroke-linecap="round"/><path d="M47.633 148.243c.3 1.1-.4 2.2-1.5 2.5-1.1.3-2.2-.4-2.5-1.5M43.133 146.943l.5 2.3" stroke="#584539" stroke-width=".769" stroke-miterlimit="10" stroke-linecap="round"/><path d="M43.398 148.3c1.664-.406 2.81-1.561 2.562-2.58-.248-1.02-1.798-1.518-3.462-1.112-1.663.405-2.81 1.56-2.562 2.58.249 1.019 1.799 1.517 3.462 1.112z" fill="#7C4C2A"/><path d="M135.4 101.2c-.5-.7-1.5-.8-2.2-.4L113 113.2c-.1.1 0 .3.1.2l21.6-9.8c.1 0 .1-.1.2-.1.9-.5 1.1-1.6.5-2.3zm-1 1.3l-6.3 2.9 5.9-3.6c.2-.1.5-.1.6.2 0 .1 0 .4-.2.5z" fill="#CFD1D2"/><path d="M148.8 70.8c-2.7-.5-5.3-.9-8-1.4-1.2-.2-2.9-.2-3.3 1-.3 1 .6 2 1.4 2.6 4.7 3.9 9.5 7.8 14.2 11.7 1.5 1.2 3.1 3 2.5 4.8-.4 1-1.4 1.6-2.4 1.8-1 .2-2.1.1-3.1-.1-3.1-.4-6.3-.9-9.4-1.3-1.6-.2-3.3-.5-4.9-.2-1.6.2-3.2 1-4.2 2.3-.9 1.4-.9 3.4.2 4.5.8.7 1.9 1 2.8 1.5 1 .5 1.9 1.4 1.7 2.5-.2.9-1.2 1.5-2.1 1.5-.9 0-1.8-.4-2.7-.8-1.5-.7-3.2-1.7-3.3-3.3-.1-1.7 1.6-2.9 3.2-3.3 2.4-.6 5.2-.1 7 1.7 1.8 1.8 2 5 .3 6.8-1.7 1.9-5.2 1.7-6.4-.5" stroke="#7C4C2A" stroke-miterlimit="10" stroke-linecap="round" stroke-linejoin="round"/><path d="M106.1 91.6c3.5 1.7 6.9.8 8.2-1.9 1.2-2.5.2-5.5-2.7-7.3.9-.9 1.6-1.9 2.2-3 .4-.9.7-1.8.9-2.7 3.2 1.1 6 .1 7.2-2.3 1.3-2.7 0-6-3.5-7.7-2.2-1.1-4.6-1.2-6.4-.4-1.3-1.7-3.1-3.2-5.2-4.2-6.8-3.4-14.8-1.1-17.9 5-3 6.2 0 14 6.8 17.4 1.9 1 4 1.5 6 1.6.3 2.1 1.9 4.3 4.4 5.5z" fill="#7C4C2A"/><path d="M111.801 75.7c.2 1.1.5 2.4 1.3 3.2 2.2 1.9 4 .6 5.1 2.9M110.7 78.1c-.1.7.4 1.3.9 1.7.5.4 1.1.8 1.5 1.4.5.7.5 1.6.2 2.3M110.6 85.6c1-1 1.3-2.6 1-4-.3-1.4-1.3-2.6-2.5-3.4M112.301 76.9c1.9 1.6 4.8-.3 5.4-1.5" stroke="#FFBD8A" stroke-width=".75" stroke-miterlimit="10" stroke-linecap="round"/><path d="M111.3 74.8c-2.8-1.4-3.9-4.7-2.5-7.5s4.7-3.9 7.5-2.5 3.9 4.7 2.5 7.5c-1.4 2.7-4.7 3.9-7.5 2.5zM103.3 90.8c-2.8-1.4-3.9-4.7-2.5-7.5s4.7-3.9 7.5-2.5 3.9 4.7 2.5 7.5c-1.3 2.7-4.7 3.9-7.5 2.5z" fill="#B66A33"/><path d="M112.199 73c-1.8-.9-2.5-3.1-1.6-4.9.9-1.8 3.1-2.5 4.9-1.6 1.8.9 2.5 3.1 1.6 4.9-1 1.8-3.1 2.5-4.9 1.6zM104.199 89c-1.8-.9-2.5-3.1-1.6-4.9.9-1.8 3.1-2.5 4.9-1.6 1.8.9 2.5 3.1 1.6 4.9-.9 1.8-3.1 2.5-4.9 1.6z" fill="#8C501C"/><path d="M95.4 84.7C90 82 88.1 74.6 91.3 68.1c3.2-6.5 10.2-9.5 15.7-6.8 5.4 2.7 7.3 10.1 4.1 16.6-3.3 6.5-10.3 9.5-15.7 6.8z" fill="#B66A33"/><path d="M95.1 77.8c-2.7-1.3-3.4-5.2-1.7-8.7 1.7-3.5 5.3-5.2 7.9-3.9 2.7 1.3 3.4 5.2 1.7 8.7-1.6 3.5-5.2 5.3-7.9 3.9z" fill="#FFBD8A"/><path d="M107.507 70.792c.343-.693-.14-1.632-1.08-2.099-.94-.466-1.981-.283-2.324.41-.344.693.139 1.632 1.079 2.099.94.466 1.981.282 2.325-.41zM103.296 79.276c.343-.692-.14-1.632-1.08-2.098-.94-.466-1.981-.283-2.324.41-.344.692.14 1.632 1.08 2.098.94.466 1.98.283 2.324-.41z" fill="#332F2E"/><path d="M106.076 69.985c.123-.248-.059-.587-.405-.76-.346-.171-.726-.11-.849.138-.123.247.058.587.405.759.346.171.726.11.849-.137zM101.82 78.559c.123-.248-.058-.587-.405-.76-.346-.171-.726-.11-.849.138-.123.247.058.587.405.759.346.171.726.11.849-.137z" fill="#fff"/><path d="M97 71c-1-.5-1.4-1.7-.9-2.7.5-1 1.7-1.4 2.7-.9" stroke="#584539" stroke-width=".769" stroke-miterlimit="10" stroke-linecap="round"/><path d="M95.2 74.6c-1-.5-1.4-1.7-.9-2.7.5-1 1.7-1.4 2.7-.9M99.1 72L97 71" stroke="#584539" stroke-width=".769" stroke-miterlimit="10" stroke-linecap="round"/><path d="M101.344 73.146c.761-1.533.616-3.155-.324-3.621-.94-.466-2.319.399-3.08 1.933-.76 1.533-.615 3.155.325 3.621.94.466 2.318-.399 3.079-1.933zM227.301 135.5c.7-3.8-1.3-6.8-4.3-7.4-2.8-.5-5.5 1.2-6.5 4.6-1.1-.6-2.3-1-3.6-1.3-1-.2-2-.2-3-.2.2-3.4-1.7-5.8-4.4-6.3-3-.6-6 1.6-6.7 5.4-.5 2.4.2 4.8 1.4 6.3-1.3 1.7-2.3 3.8-2.7 6.1-1.4 7.5 3.2 14.6 10.3 15.9 7.1 1.3 14-3.7 15.4-11.2.4-2.1.3-4.2-.2-6.2 2.1-.9 3.8-3 4.3-5.7z" fill="#7C4C2A"/><path d="M209.502 133.4c-.6 3-3.5 5-6.5 4.5-3-.6-5-3.5-4.5-6.5.6-3 3.5-5 6.5-4.5 3.1.6 5.1 3.5 4.5 6.5zM227.102 136.7c-.6 3-3.5 5-6.5 4.5-3-.6-5-3.5-4.5-6.5.6-3 3.5-5 6.5-4.5s5 3.5 4.5 6.5z" fill="#B66A33"/><path d="M207.602 133.1c-.4 2-2.3 3.3-4.2 2.9-2-.4-3.3-2.3-2.9-4.2.4-2 2.3-3.3 4.2-2.9 1.9.3 3.2 2.2 2.9 4.2zM225.102 136.3c-.4 2-2.3 3.3-4.2 2.9-2-.4-3.3-2.3-2.9-4.2.4-2 2.3-3.3 4.2-2.9 2 .4 3.3 2.3 2.9 4.2z" fill="#8C501C"/><path d="M223.401 146c-1.1 6-7.8 9.8-14.8 8.4-7.1-1.3-11.9-7.2-10.8-13.2 1.1-6 7.8-9.8 14.8-8.4 7.1 1.3 11.9 7.3 10.8 13.2z" fill="#B66A33"/><path d="M216.901 148.1c-.5 2.9-4.1 4.7-7.9 4-3.8-.7-6.4-3.7-5.9-6.6.5-2.9 4.1-4.7 7.9-4 3.8.7 6.4 3.7 5.9 6.6z" fill="#FFBD8A"/><path d="M207.69 140.246c.192-1.031-.268-1.982-1.028-2.124-.761-.141-1.532.58-1.724 1.612-.192 1.032.268 1.983 1.028 2.124.76.142 1.532-.58 1.724-1.612zM216.977 142.005c.192-1.032-.268-1.983-1.028-2.124-.76-.142-1.532.58-1.724 1.611-.192 1.032.268 1.983 1.028 2.125.76.141 1.532-.581 1.724-1.612z" fill="#332F2E"/><path d="M206.697 140.522c.071-.38-.092-.729-.363-.779-.272-.051-.549.216-.62.596-.071.38.092.73.363.78.272.051.549-.217.62-.597zM215.984 142.281c.071-.38-.092-.729-.363-.78-.272-.05-.549.217-.62.597-.071.38.092.729.364.78.271.05.548-.217.619-.597z" fill="#fff"/><path d="M209.702 148.2c-.2 1.1-1.3 1.8-2.4 1.6-1.1-.2-1.8-1.3-1.6-2.4" stroke="#584539" stroke-width=".769" stroke-miterlimit="10" stroke-linecap="round"/><path d="M213.702 149c-.2 1.1-1.3 1.8-2.4 1.6-1.1-.2-1.8-1.3-1.6-2.4M210.101 145.9l-.4 2.3" stroke="#584539" stroke-width=".769" stroke-miterlimit="10" stroke-linecap="round"/><path d="M213.283 145.845c.192-1.032-1.017-2.122-2.7-2.435-1.683-.314-3.203.269-3.395 1.3-.192 1.032 1.016 2.122 2.699 2.435 1.684.314 3.204-.269 3.396-1.3zM171.1 60.4c1-3.7-.6-6.9-3.4-7.7-2.7-.7-5.4.8-6.7 4.1-1-.7-2.2-1.2-3.4-1.6-1-.3-1.9-.4-2.9-.4.5-3.3-1.1-5.9-3.7-6.6-2.9-.8-5.9 1.1-6.9 4.8-.7 2.4-.3 4.7.8 6.3-1.4 1.6-2.5 3.6-3.2 5.9-2.1 7.3 1.7 14.8 8.4 16.6 6.7 1.8 13.8-2.6 15.9-10 .6-2.1.7-4.2.4-6.2 2.1-.5 4-2.5 4.7-5.2z" fill="#7C4C2A"/><path d="M153.8 57.9c-.8 3-3.9 4.7-6.9 3.9-3-.8-4.7-3.9-3.9-6.9.8-3 3.9-4.7 6.9-3.9 3 .8 4.7 3.9 3.9 6.9zM171.001 62.7c-.8 3-3.9 4.7-6.9 3.9-3-.8-4.7-3.9-3.9-6.9.8-3 3.9-4.7 6.9-3.9 3 .8 4.8 3.9 3.9 6.9z" fill="#B66A33"/><path d="M151.9 57.4c-.5 1.9-2.5 3.1-4.5 2.5-1.9-.5-3.1-2.5-2.5-4.5.5-1.9 2.5-3.1 4.5-2.5 1.9.5 3.1 2.5 2.5 4.5zM169.2 62.1c-.5 1.9-2.5 3.1-4.5 2.5-1.9-.5-3.1-2.5-2.5-4.5.5-1.9 2.5-3.1 4.5-2.5 1.9.6 3 2.6 2.5 4.5z" fill="#8C501C"/><path d="M166.6 71.7c-1.6 5.9-8.6 9-15.5 7.1-6.9-1.9-11.2-8.2-9.6-14.1 1.6-5.9 8.6-9.1 15.5-7.1 6.9 1.9 11.2 8.2 9.6 14.1z" fill="#B66A33"/><path d="M159.9 73.2c-.8 2.9-4.5 4.4-8.2 3.3-3.7-1-6.1-4.2-5.3-7.1.8-2.9 4.5-4.4 8.2-3.3 3.7 1 6.1 4.2 5.3 7.1z" fill="#FFBD8A"/><path d="M151.468 64.51c.281-1.011-.096-1.999-.841-2.205-.745-.207-1.576.445-1.857 1.456-.281 1.011.096 1.998.841 2.205.745.207 1.576-.445 1.857-1.456zM160.564 67.08c.28-1.012-.096-1.999-.841-2.206-.745-.207-1.577.445-1.857 1.457-.281 1.01.095 1.998.84 2.205.746.207 1.577-.445 1.858-1.457z" fill="#332F2E"/><path d="M150.473 64.666c.104-.372-.028-.734-.294-.808-.267-.074-.566.168-.669.54-.104.373.028.735.294.809.266.074.566-.168.669-.54zM159.569 67.236c.103-.373-.029-.735-.295-.809-.266-.073-.565.169-.669.541-.103.373.029.735.295.809.266.073.565-.169.669-.541z" fill="#fff"/><path d="M152.799 72.6c-.3 1.1-1.4 1.7-2.5 1.4-1.1-.3-1.7-1.4-1.4-2.5M156.7 73.7c-.3 1.1-1.4 1.7-2.5 1.4-1.1-.3-1.7-1.4-1.4-2.5M153.399 70.4l-.6 2.2" stroke="#584539" stroke-width=".769" stroke-miterlimit="10" stroke-linecap="round"/><path d="M156.5 70.684c.281-1.011-.829-2.202-2.479-2.66-1.65-.458-3.214-.01-3.495 1.001-.281 1.011.829 2.203 2.479 2.66 1.649.458 3.214.01 3.495-1.001zM226.001 106.3c0-3.9-2.6-6.5-5.6-6.4-2.9 0-5.2 2.3-5.5 5.7-1.2-.4-2.5-.6-3.8-.6-1 0-2 .2-3 .4-.4-3.4-2.8-5.4-5.6-5.4-3.1 0-5.6 2.7-5.5 6.6 0 2.5 1.1 4.6 2.6 5.9-1 1.9-1.5 4.2-1.5 6.5.1 7.6 6 13.7 13.2 13.6 7.2-.1 13-6.4 12.9-14 0-2.2-.5-4.2-1.4-6 1.9-1.1 3.2-3.5 3.2-6.3z" fill="#7C4C2A"/><path d="M208.1 108.3c0 3.1-2.4 5.6-5.5 5.6s-5.6-2.4-5.6-5.5 2.4-5.6 5.5-5.6c3 0 5.6 2.5 5.6 5.5zM226 108.2c0 3.1-2.4 5.6-5.5 5.6s-5.6-2.4-5.6-5.5 2.4-5.6 5.5-5.6c3-.1 5.5 2.4 5.6 5.5z" fill="#B66A33"/><path d="M206.101 108.4c0 2-1.6 3.6-3.6 3.7-2 0-3.6-1.6-3.7-3.6 0-2 1.6-3.6 3.6-3.7 2.1 0 3.7 1.6 3.7 3.6zM223.999 108.2c0 2-1.6 3.6-3.6 3.7-2 0-3.6-1.6-3.7-3.6 0-2 1.6-3.6 3.6-3.7 2 0 3.7 1.6 3.7 3.6z" fill="#8C501C"/><path d="M224.201 118c.1 6.1-5.7 11.1-12.9 11.1-7.2.1-13.1-4.8-13.2-10.9-.1-6.1 5.7-11.1 12.9-11.1s13.1 4.9 13.2 10.9z" fill="#B66A33"/><path d="M218.199 121.4c0 3-3.1 5.4-6.9 5.5-3.9 0-7-2.3-7.1-5.3 0-3 3.1-5.4 6.9-5.5 3.9-.1 7 2.3 7.1 5.3z" fill="#FFBD8A"/><path d="M206.211 117.297c.774-.008 1.391-.865 1.38-1.915-.011-1.049-.647-1.893-1.42-1.885-.773.009-1.391.866-1.379 1.915.011 1.049.646 1.893 1.419 1.885zM215.709 117.197c.774-.008 1.391-.865 1.38-1.915-.011-1.049-.646-1.893-1.42-1.885-.773.009-1.391.866-1.379 1.915.011 1.049.646 1.893 1.419 1.885z" fill="#332F2E"/><path d="M206.198 116.497c.276-.003.497-.319.493-.705-.004-.387-.231-.698-.507-.695-.277.003-.497.319-.493.705.004.387.231.698.507.695zM215.696 116.397c.276-.003.497-.319.493-.705-.004-.387-.231-.698-.507-.695-.277.003-.497.319-.493.705.004.387.231.698.507.695z" fill="#fff"/><path d="M211.2 122.8c0 1.1-.9 2.1-2 2.1s-2.1-.9-2.1-2" stroke="#584539" stroke-width=".769" stroke-miterlimit="10" stroke-linecap="round"/><path d="M215.299 122.8c0 1.1-.9 2.1-2 2.1s-2.1-.9-2.1-2M211.1 120.5l.1 2.3" stroke="#584539" stroke-width=".769" stroke-miterlimit="10" stroke-linecap="round"/><path d="M211.11 121.797c1.712-.018 3.091-.883 3.08-1.933-.011-1.049-1.408-1.885-3.12-1.867-1.712.018-3.09.884-3.079 1.933.011 1.049 1.408 1.885 3.119 1.867zM227.757 99.941c3.223-2.234 4.105-5.67 2.402-8.261-1.601-2.394-4.734-3.181-7.767-1.55-.341-1.235-.822-2.447-1.64-3.533-.575-.91-1.187-1.6-1.938-2.268 2.583-2.204 3.033-5.212 1.514-7.547-1.704-2.591-5.072-3.055-8.399-1.02-6.278 3.727-3.815 3.905-4.002 5.869-2.176.276-3.955.346-5.974 1.6-6.432 4.109-8.393 12.443-4.432 18.397 3.901 6.035 12.308 7.555 18.74 3.446 1.821-1.15 2.634-2.784 3.726-4.463 2.016.967 1.779 3.511 7.77-.67z" fill="#7C4C2A"/><path d="M215.788 86.46c-2.592 1.703-6.005.96-7.708-1.631-1.704-2.592-.961-6.005 1.631-7.709 2.592-1.703 6.004-.96 7.708 1.631 1.623 2.533.961 6.005-1.631 7.709zM225.479 101.379c-2.591 1.704-6.004.961-7.708-1.63-1.704-2.592-.961-6.005 1.631-7.709 2.592-1.704 6.005-.96 7.709 1.631 1.703 2.592.96 6.005-1.632 7.708z" fill="#B66A33"/><path d="M214.661 84.778c-1.681 1.129-3.91.626-5.038-1.055-1.128-1.682-.626-3.91 1.056-5.039 1.681-1.128 3.91-.625 5.038 1.056 1.128 1.681.707 3.969-1.056 5.038zM224.433 99.757c-1.682 1.128-3.91.626-5.039-1.056-1.128-1.681-.625-3.91 1.056-5.038 1.681-1.129 3.91-.626 5.038 1.056 1.07 1.762.626 3.91-1.055 5.038z" fill="#8C501C"/><path d="M216.202 105.156c-5.125 3.326-12.423 1.128-16.325-4.908-3.901-6.035-2.968-13.632 2.157-16.958 5.124-3.327 12.422-1.129 16.324 4.907 3.843 6.117 2.91 13.713-2.156 16.959z" fill="#B66A33"/><path d="M210.167 101.896c-2.533 1.623-6.256.285-8.351-2.96-2.095-3.246-1.801-7.231.673-8.773 2.533-1.622 6.256-.285 8.351 2.96 2.153 3.165 1.86 7.151-.673 8.773z" fill="#FFBD8A"/><path d="M209.559 89.857c.88-.572 1.251-1.561.829-2.21-.421-.648-1.476-.71-2.356-.137-.879.572-1.251 1.561-.829 2.21.421.648 1.476.71 2.356.137zM214.766 97.78c.88-.571 1.251-1.56.829-2.209-.421-.648-1.476-.71-2.356-.138-.879.573-1.251 1.562-.829 2.21.421.648 1.476.71 2.356.138z" fill="#332F2E"/><path d="M208.751 89.305c.324-.21.465-.57.314-.8-.15-.232-.535-.249-.859-.038-.324.21-.465.57-.314.8.15.232.535.25.859.038zM213.872 97.284c.324-.211.465-.57.315-.801-.151-.232-.536-.249-.86-.038-.324.211-.465.57-.314.801.15.232.535.248.859.038z" fill="#fff"/><path d="M205.201 96.819c-.969.656-2.234.357-2.809-.553-.657-.97-.358-2.234.553-2.81" stroke="#584539" stroke-width=".769" stroke-miterlimit="10" stroke-linecap="round"/><path d="M207.457 100.181c-.969.657-2.234.358-2.809-.553-.657-.969-.358-2.234.553-2.81M207.14 95.506l-1.938 1.313" stroke="#584539" stroke-width=".769" stroke-miterlimit="10" stroke-linecap="round"/><path d="M209.348 97.86c.88-.573.836-2.2-.097-3.636-.934-1.435-2.403-2.135-3.283-1.563-.88.573-.836 2.2.097 3.635.934 1.436 2.404 2.135 3.283 1.563zM102.124 93.196c.6-.9.9-3 .9-3.4.4-3.3-1.1-5.9-3.7-6.7-2.7-.8-5.6.7-6.9 3.9-1-.7-2.2-1.3-3.5-1.6-1-.3-2-.4-3-.5.6-3.3-1.1-6-3.7-6.7-2.8-.8-5.6.9-7 4.2-.1.2-.6 1.3-.6 1.5-.7 2.4.1 3.8 1.3 5.4-1.5 1.6-2.6 3.6-3.3 5.8-2.2 7.3 1.6 14.9 8.5 16.8 6.9 2 14.2-2.3 16.3-9.7.6-2.1.6-4.2.3-6.1 2.2-.5 2.9-.5 4.4-2.9z" fill="#7C4C2A"/><path d="M85.224 87.596c-.9 3-4 4.7-6.9 3.8-3-.9-4.7-4-3.8-6.9.9-3 4-4.7 6.9-3.8 3 .8 4.6 3.9 3.8 6.9zM102.324 92.596c-.9 3-4 4.7-6.9 3.8-3-.9-4.7-4-3.8-6.9.9-3 4-4.7 6.9-3.8 3 .8 4.7 3.9 3.8 6.9z" fill="#B66A33"/><path d="M83.324 86.996c-.6 1.9-2.6 3-4.5 2.5-1.9-.6-3-2.6-2.5-4.5.6-1.9 2.6-3 4.5-2.5 2 .6 3.1 2.6 2.5 4.5zM100.523 91.996c-.6 1.9-2.6 3-4.5 2.5-1.9-.6-3-2.6-2.5-4.5.6-1.9 2.6-3 4.5-2.5 1.9.6 3 2.6 2.5 4.5z" fill="#8C501C"/><path d="M97.723 101.496c-1.7 5.8-8.7 8.9-15.6 6.9s-11.1-8.4-9.4-14.2c1.7-5.8 8.7-8.9 15.6-6.9s11.1 8.4 9.4 14.2z" fill="#B66A33"/><path d="M91.023 102.896c-.8 2.9-4.5 4.3-8.2 3.2-3.7-1.1-6-4.3-5.2-7.1.8-2.9 4.5-4.3 8.2-3.2 3.7 1.1 6.1 4.3 5.2 7.1z" fill="#FFBD8A"/><path d="M82.73 94.212c.295-1.007-.067-2-.81-2.217-.742-.217-1.582.423-1.877 1.43-.294 1.008.068 2 .81 2.217.743.218 1.583-.423 1.878-1.43zM91.801 96.77c.295-1.008-.068-2-.81-2.218-.742-.217-1.583.424-1.877 1.431-.295 1.007.068 2 .81 2.217.742.217 1.582-.424 1.877-1.43z" fill="#332F2E"/><path d="M81.736 94.35c.109-.372-.018-.735-.283-.813-.265-.077-.568.16-.676.532-.109.37.018.734.283.812.265.077.568-.16.676-.532zM90.877 97.03c.109-.37-.018-.734-.283-.811-.265-.078-.568.16-.677.531-.108.371.019.735.284.812.265.078.568-.16.676-.531z" fill="#fff"/><path d="M83.923 102.296c-.3 1.1-1.5 1.7-2.5 1.4-1-.3-1.7-1.5-1.4-2.5" stroke="#584539" stroke-width=".769" stroke-miterlimit="10" stroke-linecap="round"/><path d="M87.824 103.396c-.3 1.1-1.5 1.7-2.5 1.4-1-.3-1.7-1.5-1.4-2.5M84.624 100.096l-.7 2.2" stroke="#584539" stroke-width=".769" stroke-miterlimit="10" stroke-linecap="round"/><path d="M87.75 100.394c.295-1.007-.799-2.213-2.442-2.694-1.643-.48-3.214-.054-3.509.953-.295 1.007.799 2.214 2.442 2.694 1.643.481 3.214.054 3.509-.953zM89.8 50.8c-2.2-3.2-5.6-4-8.1-2.4-2.3 1.6-2.9 4.7-1.2 7.7-1.2.3-2.3.9-3.4 1.6-.8.6-1.5 1.2-2.2 1.9-2.2-2.6-5.2-3-7.4-1.5-2.5 1.7-3 5.2-.8 8.4 1.4 2.1 3.4 3.3 5.3 3.5.3 2.1 1.1 4.3 2.4 6.2 4.3 6.3 12.4 8.3 18.1 4.4 5.7-3.9 6.9-12.2 2.7-18.5-1.2-1.8-2.7-3.2-4.4-4.3.8-2 .5-4.7-1-7z" fill="#7C4C2A"/><path d="M82.212 60.63c.855-1.916.28-4.035-1.283-4.732-1.564-.698-3.525.29-4.38 2.208-.854 1.916-.28 4.035 1.284 4.733 1.564.697 3.524-.291 4.38-2.208z" fill="#F4FDFF"/><path d="M77.185 63.098c1.192-1.305 1.134-3.3-.13-4.454-1.264-1.155-3.255-1.033-4.447.272-1.192 1.305-1.134 3.299.13 4.453 1.264 1.155 3.255 1.034 4.447-.271z" fill="#F4FDFF"/><path d="M80.806 58.261c1.06-2.43.156-5.17-2.02-6.12-2.177-.95-4.801.25-5.862 2.68-1.06 2.43-.156 5.169 2.02 6.12 2.177.95 4.802-.25 5.862-2.68z" fill="#F4FDFF"/><path d="M75.45 59.697c-.6-.6-.6-1.6 0-2.2.5-.5 1.1-.6 1.7-.4.2.1.4.2.5.3.6.6.6 1.6 0 2.2-.6.7-1.6.7-2.2.1zM77.54 54.712a1.1 1.1 0 10-1.624-1.484 1.1 1.1 0 001.624 1.484z" fill="#CECECE"/><path d="M76.801 62.6c1.7 2.6 1.1 6-1.5 7.8-2.6 1.7-6 1.1-7.8-1.5-1.7-2.6-1.1-6 1.5-7.8 2.6-1.7 6-1.1 7.8 1.5zM91.602 52.5c1.7 2.6 1.1 6-1.5 7.8-2.6 1.7-6 1.1-7.8-1.5-1.7-2.6-1.1-6 1.5-7.8 2.6-1.7 6-1 7.8 1.5z" fill="#B66A33"/><path d="M75.102 63.7c1.1 1.7.7 3.9-1 5s-3.9.7-5-1-.7-3.9 1-5 3.9-.7 5 1zM89.9 53.6c1.1 1.7.7 3.9-1 5s-3.9.7-5-1-.7-3.9 1-5c1.7-1 3.9-.6 5 1z" fill="#8C501C"/><path d="M95.502 61.8c3.4 5 1.3 12.4-4.6 16.4-6 4-13.6 3.2-17-1.8-3.4-5-1.3-12.4 4.6-16.4 6-4.1 13.6-3.2 17 1.8z" fill="#B66A33"/><path d="M92.3 67.9c1.7 2.5.4 6.2-2.8 8.4-3.2 2.2-7.1 1.9-8.8-.5-1.7-2.5-.4-6.2 2.8-8.4 3.2-2.2 7.2-2 8.8.5z" fill="#FFBD8A"/><path d="M80.176 71.077c.64-.434.681-1.49.093-2.358-.59-.868-1.586-1.22-2.226-.787-.64.434-.68 1.49-.092 2.358.589.869 1.585 1.221 2.225.787zM88.082 65.747c.64-.434.682-1.49.093-2.358-.589-.869-1.585-1.221-2.225-.787-.64.434-.682 1.49-.093 2.358.59.869 1.585 1.221 2.225.787z" fill="#332F2E"/><path d="M79.76 70.362c.229-.155.238-.54.021-.86-.217-.32-.578-.454-.807-.3-.228.156-.238.54-.02.86.216.32.578.454.806.3zM87.582 65.088c.229-.155.238-.54.021-.86-.217-.32-.578-.454-.806-.3-.229.156-.238.54-.021.86.217.32.578.455.806.3z" fill="#fff"/><path d="M87.302 72.9c.6.9.4 2.2-.5 2.8-.9.6-2.2.4-2.8-.5M90.702 70.6c.6.9.4 2.2-.5 2.8-.9.6-2.2.4-2.8-.5M86.002 71l1.3 1.9" stroke="#584539" stroke-width=".769" stroke-miterlimit="10" stroke-linecap="round"/><path d="M86.76 72.061c1.418-.96 2.09-2.444 1.5-3.312-.588-.869-2.215-.794-3.632.167-1.417.96-2.088 2.444-1.5 3.312.59.869 2.216.794 3.633-.167zM75.5 94.2c3.8-.4 6.2-3.1 5.9-6.1-.3-2.7-2.8-4.8-6.2-4.7.3-1.2.3-2.5.2-3.7-.1-1-.4-1.9-.7-2.8 3.3-.8 5.1-3.2 4.8-5.9-.3-3-3.2-5.1-7.1-4.7-2.5.3-4.5 1.5-5.6 3.1-2-.7-4.3-1-6.6-.8-7.6.8-13.1 7.1-12.3 14 .8 6.9 7.6 11.8 15.2 11 2.2-.2 4.1-.9 5.9-1.9 1.1 1.8 3.7 2.8 6.5 2.5z" fill="#7C4C2A"/><path d="M71.2 77.2c-3.1.3-5.8-1.9-6.2-4.9-.3-3.1 1.9-5.8 4.9-6.2 3.1-.3 5.8 1.9 6.2 4.9.4 3.1-1.9 5.8-4.9 6.2zM73.1 94.9c-3 .4-5.8-1.9-6.1-4.9-.3-3.1 1.9-5.8 4.9-6.2 3.1-.3 5.8 1.9 6.2 4.9.3 3.1-1.9 5.9-5 6.2z" fill="#B66A33"/><path d="M71 75.2c-2 .2-3.8-1.2-4-3.2-.2-2 1.2-3.8 3.2-4 2-.2 3.8 1.2 4 3.2.2 2-1.2 3.8-3.2 4zM72.9 93c-2 .2-3.8-1.2-4-3.2-.2-2 1.2-3.8 3.2-4 2-.2 3.8 1.2 4 3.2.3 2-1.2 3.8-3.2 4z" fill="#8C501C"/><path d="M63.1 94.1c-6 .7-11.6-4.6-12.4-11.7-.8-7.2 3.5-13.5 9.5-14.2 6-.7 11.6 4.6 12.4 11.7.8 7.2-3.4 13.5-9.5 14.2z" fill="#B66A33"/><path d="M59.2 88.5c-3 .3-5.7-2.5-6.1-6.4-.4-3.8 1.6-7.2 4.6-7.5 3-.3 5.7 2.5 6.1 6.4.5 3.8-1.6 7.1-4.6 7.5z" fill="#FFBD8A"/><path d="M64.149 77.39c1.043-.115 1.82-.832 1.735-1.6-.085-.769-1-1.298-2.042-1.183-1.043.115-1.82.831-1.735 1.6.085.768.999 1.298 2.042 1.183zM65.145 86.794c1.043-.115 1.82-.831 1.735-1.6-.085-.768-1-1.298-2.042-1.183-1.043.116-1.82.832-1.735 1.6.085.769 1 1.298 2.042 1.183z" fill="#332F2E"/><path d="M63.544 76.503c.384-.042.671-.3.64-.574-.03-.274-.366-.462-.75-.42-.384.043-.671.3-.64.574.03.275.366.463.75.42zM64.651 85.996c.385-.042.671-.3.641-.574-.03-.274-.366-.462-.75-.42-.385.043-.672.3-.641.574.03.275.366.463.75.42z" fill="#fff"/><path d="M57.1 81.7c-1.1.1-2.1-.7-2.3-1.9-.1-1.1.7-2.1 1.8-2.3" stroke="#584539" stroke-width=".769" stroke-miterlimit="10" stroke-linecap="round"/><path d="M57.5 85.7c-1.1.1-2.1-.7-2.3-1.8-.1-1.1.7-2.1 1.8-2.3M59.4 81.4l-2.3.3" stroke="#584539" stroke-width=".769" stroke-miterlimit="10" stroke-linecap="round"/><path d="M60.33 84.383c1.044-.115 1.737-1.588 1.549-3.29-.188-1.701-1.186-2.987-2.229-2.872-1.043.115-1.736 1.588-1.548 3.29.188 1.701 1.186 2.988 2.229 2.872zM117 104.1l3.1-2-2.3-1.9-.8 3.9z" fill="#7C4C2A"/><path d="M117.6 103c-3.1.3-5.8-1.9-6.2-4.9-.3-3.1 1.9-5.8 4.9-6.2 3.1-.3 5.8 1.9 6.2 4.9.4 3.1-1.9 5.9-4.9 6.2z" fill="#7C4C2A"/><path d="M110.5 95l3.6-2.3 1.8 2-5.4.3z" fill="#7C4C2A"/><path d="M114.501 105c-3.1.3-5.8-1.9-6.2-4.9-.3-3.1 1.9-5.8 4.9-6.2 3.1-.3 5.8 1.9 6.2 4.9.4 3.1-1.8 5.9-4.9 6.2z" fill="#B66A33"/><path d="M114.3 103.1c-2 .2-3.8-1.2-4-3.2-.2-2 1.2-3.8 3.2-4 2-.2 3.8 1.2 4 3.2.2 2-1.2 3.8-3.2 4z" fill="#8C501C"/><path d="M62.5 111.3l3.1-2-2.2-2-.9 4z" fill="#7C4C2A"/><path d="M63.2 110.2c-3.1.3-5.8-1.9-6.2-4.9-.3-3.1 1.9-5.8 4.9-6.2 3.1-.3 5.8 1.9 6.2 4.9.3 3.1-1.9 5.9-4.9 6.2z" fill="#7C4C2A"/><path d="M56.1 102.2l3.6-2.3 1.7 2-5.3.3z" fill="#7C4C2A"/><path d="M60.099 112.2c-3.1.3-5.8-1.9-6.2-4.9-.3-3.1 1.9-5.8 4.9-6.2 3.1-.3 5.8 1.9 6.2 4.9.3 3.1-1.9 5.9-4.9 6.2z" fill="#B66A33"/><path d="M59.9 110.3c-2 .2-3.8-1.2-4-3.2-.2-2 1.2-3.8 3.2-4 2-.2 3.8 1.2 4 3.2.2 2-1.2 3.8-3.2 4z" fill="#8C501C"/><path d="M57.8 106.7c1.823 0 3.3-1.209 3.3-2.7s-1.477-2.7-3.3-2.7c-1.822 0-3.3 1.209-3.3 2.7s1.477 2.7 3.3 2.7z" fill="#F4FDFF"/><path d="M64.077 108.243c.664-1.816-.312-3.841-2.18-4.523-1.867-.683-3.92.236-4.582 2.052-.664 1.815.312 3.84 2.18 4.523 1.867.682 3.919-.237 4.582-2.052z" fill="#F4FDFF"/><path d="M56.4 110.7c2.319 0 4.2-1.657 4.2-3.7 0-2.044-1.881-3.7-4.2-3.7-2.32 0-4.2 1.656-4.2 3.7 0 2.043 1.88 3.7 4.2 3.7z" fill="#F4FDFF"/><path d="M59.999 106.4c-.2.4-.7.7-1.1.5-.3-.1-.6-.4-.6-.7v-.3c.2-.4.7-.7 1.1-.5.4.2.7.6.6 1zM55.398 108.559c.171-.467-.111-.999-.63-1.189-.519-.189-1.078.036-1.248.502-.17.467.111.999.63 1.189.519.19 1.078-.035 1.248-.502z" fill="#CECECE"/><path d="M185.2 65.3l2.1 2.6-2.9.7.8-3.3z" fill="#7C4C2A"/><path d="M187.5 68.1c1.7 2.5.4 6.2-2.8 8.4-3.2 2.2-7.1 1.9-8.8-.5-1.7-2.5-.4-6.2 2.8-8.4 3.2-2.2 7.1-1.9 8.8.5z" fill="#7C4C2A"/><path d="M174.1 73.8l1.8 2.2.4-3.1-2.2.9z" fill="#7C4C2A"/><path d="M185.4 65.6c1.7 2.5.4 6.2-2.8 8.4-3.2 2.2-7.1 1.9-8.8-.5-1.7-2.5-.4-6.2 2.8-8.4 3.2-2.2 7.1-2 8.8.5z" fill="#FFBD8A"/><path d="M180.4 70.7c.6.9.4 2.2-.5 2.8-.9.6-2.2.4-2.8-.5M183.8 68.4c.6.9.4 2.2-.5 2.8-.9.6-2.2.4-2.8-.5M179.1 68.7l1.3 2" stroke="#584539" stroke-width=".769" stroke-miterlimit="10" stroke-linecap="round"/><path d="M179.845 69.753c1.417-.96 2.088-2.444 1.5-3.312-.589-.869-2.216-.794-3.633.167-1.417.96-2.088 2.444-1.499 3.312.589.869 2.215.794 3.632-.167zM62.7 51.3l2.1 2.7-2.9.7.8-3.4z" fill="#7C4C2A"/><path d="M65 54.2c1.7 2.5.4 6.2-2.8 8.4-3.2 2.2-7.1 1.9-8.8-.5-1.7-2.5-.4-6.2 2.8-8.4 3.2-2.2 7.1-2 8.8.5z" fill="#7C4C2A"/><path d="M51.6 59.8l1.8 2.2.4-3.1-2.2.9z" fill="#7C4C2A"/><path d="M62.9 51.6c1.7 2.5.4 6.2-2.8 8.4-3.2 2.2-7.1 1.9-8.8-.5-1.7-2.5-.4-6.2 2.8-8.4 3.2-2.2 7.2-1.9 8.8.5z" fill="#FFBD8A"/><path d="M57.9 56.7c.6.9.4 2.2-.5 2.8-.9.6-2.2.4-2.8-.5M61.3 54.4c.6.9.4 2.2-.5 2.8-.9.6-2.2.4-2.8-.5M56.6 54.8l1.3 1.9" stroke="#584539" stroke-width=".769" stroke-miterlimit="10" stroke-linecap="round"/><path d="M57.376 55.854c1.417-.961 2.089-2.444 1.5-3.313-.59-.868-2.215-.793-3.632.168-1.417.96-2.089 2.443-1.5 3.312.589.868 2.215.794 3.632-.167zM126.301 70.3v1.2l.9-.4-.9-.8zM130.001 70.5v1.2l-1.2-.6c.1-.1 1.2-.6 1.2-.6z" fill="#7C4C2A"/><path d="M130.047 71.627c.059-.771-.741-1.461-1.788-1.542-1.046-.08-1.942.48-2.001 1.25-.06.772.741 1.462 1.787 1.542 1.046.08 1.942-.48 2.002-1.25z" fill="#7C4C2A"/><path d="M130.062 70.513c.06-.771-.741-1.462-1.787-1.542-1.046-.08-1.942.48-2.002 1.25-.059.772.741 1.462 1.788 1.542 1.046.08 1.942-.48 2.001-1.25z" fill="#332F2E"/><path d="M129.26 70.482c.022-.275-.274-.523-.659-.552-.386-.03-.715.17-.737.445-.021.275.275.522.66.552.386.03.715-.17.736-.445z" fill="#fff"/><path d="M130.301 73.1l-.1 1.2 1-.3-.9-.9zM134.001 73.3v1.2l-1.2-.6 1.2-.6z" fill="#7C4C2A"/><path d="M133.959 74.49c.059-.77-.741-1.46-1.787-1.541-1.047-.08-1.943.48-2.002 1.25-.059.771.741 1.461 1.787 1.542 1.046.08 1.943-.48 2.002-1.25z" fill="#7C4C2A"/><path d="M133.974 73.376c.06-.77-.741-1.46-1.787-1.541-1.046-.08-1.942.48-2.002 1.25-.059.771.741 1.461 1.788 1.541 1.046.08 1.942-.479 2.001-1.25z" fill="#332F2E"/><path d="M133.272 73.353c.021-.275-.274-.522-.66-.552-.385-.03-.715.17-.736.445-.021.275.274.522.66.552.385.03.715-.17.736-.445z" fill="#fff"/><path d="M99.6 104.5v1.2l.9-.4-.9-.8zM103.3 104.7v1.2l-1.2-.6c.1-.1 1.2-.6 1.2-.6z" fill="#7C4C2A"/><path d="M103.31 105.907c.06-.771-.741-1.461-1.787-1.542-1.046-.08-1.942.48-2.002 1.251-.059.771.741 1.461 1.788 1.541 1.046.081 1.942-.479 2.001-1.25z" fill="#7C4C2A"/><path d="M103.326 104.793c.059-.771-.741-1.461-1.787-1.542-1.047-.08-1.943.48-2.002 1.251-.06.77.741 1.461 1.787 1.541 1.046.08 1.943-.479 2.002-1.25z" fill="#332F2E"/><path d="M102.532 104.662c.021-.275-.274-.522-.66-.552-.385-.03-.715.17-.736.445-.021.275.274.522.66.552.385.03.715-.169.736-.445z" fill="#fff"/><path d="M105.602 106.6v1.3l.9-.4-.9-.9zM109.302 106.9v1.2l-1.2-.6c.1-.1 1.2-.6 1.2-.6z" fill="#7C4C2A"/><path d="M109.31 108.07c.06-.771-.741-1.461-1.787-1.541-1.046-.081-1.942.479-2.002 1.25-.059.771.741 1.461 1.788 1.542 1.046.08 1.942-.48 2.001-1.251z" fill="#7C4C2A"/><path d="M109.326 106.956c.059-.771-.741-1.461-1.787-1.542-1.047-.08-1.943.48-2.002 1.251-.059.771.741 1.461 1.787 1.541 1.046.081 1.943-.479 2.002-1.25z" fill="#332F2E"/><path d="M108.532 106.826c.021-.276-.274-.523-.66-.552-.385-.03-.715.169-.736.444-.021.276.274.523.66.553.385.029.715-.17.736-.445z" fill="#fff"/><path d="M83.4 156.9c2.7-2.8 2.8-6.4.6-8.5-2-2-5.3-2.1-7.9.2-.6-1.1-1.4-2.2-2.3-3.1-.7-.7-1.6-1.3-2.4-1.8 2.1-2.7 1.9-5.8-.1-7.7-2.2-2.2-5.8-2-8.6.7-1.7 1.8-2.5 4-2.3 6-2.1.7-4 1.9-5.6 3.6-5.3 5.4-5.5 13.9-.3 18.9 5.2 5 13.7 4.7 19-.8 1.5-1.5 2.6-3.3 3.3-5.2 2 .5 4.6-.3 6.6-2.3z" fill="#7C4C2A"/><path d="M68.602 145.9c-2.2 2.2-5.7 2.2-7.9.1-2.2-2.2-2.2-5.7-.1-7.9 2.2-2.2 5.7-2.2 7.9-.1 2.2 2.2 2.3 5.7.1 7.9zM81.4 158.4c-2.2 2.2-5.7 2.2-7.9.1-2.2-2.2-2.2-5.7-.1-7.9 2.2-2.2 5.7-2.2 7.9-.1 2.2 2.2 2.2 5.7.1 7.9z" fill="#B66A33"/><path d="M67.201 144.5c-1.4 1.4-3.7 1.5-5.1.1-1.4-1.4-1.5-3.7-.1-5.1 1.4-1.4 3.7-1.5 5.1-.1 1.5 1.4 1.5 3.7.1 5.1zM80 157c-1.4 1.4-3.7 1.5-5.1.1-1.4-1.4-1.5-3.7-.1-5.1 1.4-1.4 3.7-1.5 5.1-.1 1.5 1.4 1.5 3.7.1 5.1z" fill="#8C501C"/><path d="M73.101 164.1c-4.3 4.3-11.9 3.8-17-1.3-5.1-5-5.9-12.6-1.6-17 4.3-4.3 11.9-3.8 17 1.3 5.2 5.1 5.9 12.7 1.6 17z" fill="#B66A33"/><path d="M66.502 162.2c-2.1 2.1-6 1.7-8.8-1-2.8-2.7-3.3-6.6-1.2-8.7 2.1-2.1 6-1.7 8.8 1 2.8 2.7 3.3 6.6 1.2 8.7z" fill="#FFBD8A"/><path d="M63.312 150.581c.734-.749.882-1.796.33-2.337-.553-.541-1.596-.371-2.33.378-.734.75-.882 1.796-.33 2.337.553.541 1.596.372 2.33-.378zM70.078 157.179c.734-.75.881-1.796.329-2.337-.553-.541-1.596-.372-2.33.378s-.881 1.796-.329 2.337c.553.541 1.596.372 2.33-.378z" fill="#332F2E"/><path d="M62.362 150.252c.27-.276.33-.656.133-.85-.197-.193-.577-.125-.847.151s-.33.657-.133.85c.198.193.577.126.847-.151zM69.128 156.85c.27-.276.33-.657.132-.85-.197-.193-.576-.126-.846.15-.27.277-.33.657-.133.85.197.194.577.126.847-.15z" fill="#fff"/><path d="M60.602 158.3c-.8.8-2.1.8-2.9 0-.8-.8-.8-2.1 0-2.9" stroke="#584539" stroke-width=".769" stroke-miterlimit="10" stroke-linecap="round"/><path d="M63.502 161.2c-.8.8-2.1.8-2.9 0-.8-.8-.8-2.1 0-2.9M62.202 156.7l-1.6 1.6" stroke="#584539" stroke-width=".769" stroke-miterlimit="10" stroke-linecap="round"/><path d="M64.804 158.388c.734-.75.338-2.329-.886-3.526-1.223-1.198-2.81-1.561-3.544-.812-.734.75-.337 2.329.886 3.527 1.223 1.197 2.81 1.561 3.544.811z" fill="#7C4C2A"/><path d="M53.72 161.36c0 4.61-3.75 8.35-8.36 8.35-4.62 0-8.36-3.74-8.36-8.35 0-4.62 3.74-8.36 8.36-8.36 2.86 0 5.4 1.44 6.9 3.65.06.07.11.15.16.23v.01c.01 0 .01.01.01.01.01.01.01.02.02.03 0 0 0 .01.01.01 0 .02.01.03.03.04v.01c0 .01.01.02.01.02l.01.01c.04.07.07.12.11.18v.01c.02.04.04.07.05.1v.01c.05.08.09.16.13.24l.12.24a7.997 7.997 0 01.67 2.11l.03.18c.03.17.05.35.07.52 0 .03.01.06.01.09v.04c.01.21.02.41.02.62z" fill="#FFBD8A"/><path d="M52.01 166.33H52l-.05-.01h-.01c-.48 0-.95-.04-1.42-.12-.04 0-.08 0-.12-.01-.04-.01-.08-.01-.12-.02-.04-.01-.08-.01-.12-.02l-.08.08c-.12.11-.24.21-.36.32h-.01c-.05.05-.1.09-.16.13-.15.13-.31.25-.48.37a9.702 9.702 0 01-.82.53c-.05.04-.1.06-.15.09-.18.1-.36.2-.55.29-.1.05-.2.1-.31.14-.16.08-.33.14-.49.2-.13.06-.26.1-.38.14-.17.06-.34.12-.51.16-.15.05-.31.09-.46.12-.79.19-1.6.29-2.43.29-.24 0-.48-.01-.71-.02-.13-.01-.27-.02-.4-.04.5.22 1.01.4 1.55.53h.01c.23-.01.46-.02.69-.05.13-.01.26-.03.4-.05.16-.02.31-.05.47-.08.14-.02.28-.05.41-.08l.12-.03c.33-.08.65-.17.97-.28.3-.1.6-.21.89-.34l.45-.21c.17-.08.34-.18.51-.27a10.777 10.777 0 001.98-1.43c.4.07.8.11 1.21.13a10.533 10.533 0 01-4.42 2.74 8.357 8.357 0 004.59-2.72" fill="#8C501C"/><path d="M40.93 168.44l-.01-.01.01.01zm0 0h.01c.05.01.09.01.13.01.3.03.61.04.91.04.39 0 .77-.02 1.15-.07.23-.01.45-.04.67-.08.87-.14 1.71-.39 2.51-.74.17-.07.34-.14.5-.24.63-.3 1.24-.68 1.81-1.11.36.12.71.22 1.09.3-.05.05-.1.09-.16.13-.15.13-.31.25-.48.37a9.704 9.704 0 01-.82.53c-.05.04-.1.06-.15.09-.18.1-.36.2-.55.29-.1.05-.2.1-.31.14-.16.08-.33.14-.49.2-.13.06-.26.1-.38.14-.17.06-.34.12-.51.16-.15.05-.31.09-.46.12-.79.19-1.6.29-2.43.29-.24 0-.48-.01-.71-.02-.13-.01-.27-.02-.4-.04.5.22 1.01.4 1.55.53h.01c.23-.01.46-.02.69-.05.13-.01.26-.03.4-.05.16-.02.31-.05.47-.08.14-.02.28-.05.41-.08l.12-.03c.33-.08.65-.17.97-.28.3-.1.6-.21.89-.34l.45-.21c.17-.08.34-.18.51-.27a10.776 10.776 0 001.98-1.43c.03-.03.06-.05.09-.08l.22-.2.14-.13-.24-.04c-.04-.01-.08-.01-.12-.02-.04-.01-.08-.01-.12-.02-.04-.01-.08-.01-.12-.02-.2-.04-.4-.08-.6-.14-.01.01-.01.01-.02 0l-.47-.12-.42-.14c-.04-.01-.08-.03-.12-.04l-.1.08c-.11.09-.23.18-.35.26h-.01c-.04.03-.08.06-.12.08a5.909 5.909 0 01-.61.4c-.18.11-.36.22-.55.31-.17.09-.34.18-.52.25-.03.02-.07.04-.1.05-.24.11-.49.2-.75.29-.02.01-.03.02-.05.02-.19.07-.38.13-.58.17-.1.04-.19.06-.29.09-.2.05-.4.09-.61.12-.06.02-.12.03-.19.04-.27.05-.55.08-.84.1-.29.03-.58.04-.88.04-.24 0-.48-.01-.72-.02-.12-.01-.24-.02-.36-.04-.21-.02-.43-.04-.64-.08l-.17-.03s.01 0 .01.01c.26.21.54.41.82.58" fill="#8C501C"/><path d="M44.38 166.96l-.01.01c.02 0 .05 0 .07-.01h-.06zm4.27-1.21c-.04-.01-.08-.03-.12-.04-.07-.03-.14-.05-.21-.08l-.33-.13c-.04-.02-.08-.03-.11-.05l-.1.06c-.14.08-.28.15-.43.22h-.01c-.22.1-.44.2-.67.28-.08.02-.15.05-.23.07-.17.06-.33.12-.51.15-.33.09-.67.16-1.01.2-.1.01-.19.03-.29.04l-.34.02-.06.01c-.54.18-1.09.31-1.65.4h-.03a10.279 10.279 0 01-3.49-.06c.16.2.34.38.53.56.12.02.24.03.36.04.17.02.35.03.52.04.09.01.17.02.25.01.37.01.74-.01 1.12-.03.85-.06 1.69-.23 2.51-.49h.02c.02 0 .05 0 .07-.01.03 0 .06 0 .08-.01.2-.01.41-.04.61-.07.2-.03.4-.06.6-.11.15-.03.3-.07.45-.11.6-.16 1.17-.39 1.73-.68.05.02.1.04.16.07-.04.03-.08.06-.12.08a5.909 5.909 0 01-.61.4c-.18.12-.36.22-.55.31-.17.09-.34.18-.52.25-.03.02-.07.04-.1.05-.25.11-.5.21-.75.29-.02.01-.03.02-.05.02-.19.07-.38.13-.58.17-.1.04-.19.06-.29.09-.2.05-.4.09-.61.12-.06.02-.12.03-.19.04-.27.05-.55.08-.84.1-.29.03-.58.04-.88.04-.24 0-.48-.01-.72-.02-.12-.01-.24-.02-.36-.04-.21-.02-.43-.04-.64-.08a.874.874 0 00-.16-.02c.26.21.54.41.82.58l.01.01h.01c.05.01.09.01.13.01.3.03.61.04.91.04.39 0 .77-.02 1.15-.07.23-.01.45-.04.67-.08.87-.14 1.71-.39 2.51-.74.17-.07.34-.14.5-.24.63-.3 1.24-.68 1.81-1.11.04-.03.07-.05.1-.08l.35-.28-.42-.14z" fill="#8C501C"/><path d="M46.13 166.38l-1.75.58-.01.01h-.02c-.82.26-1.66.43-2.51.49-.29.03-.57.04-.86.04-.08 0-.17 0-.26-.01-.08.01-.16 0-.25-.01-.17-.01-.35-.02-.52-.04-.12 0-.24-.01-.35-.03l-.01-.01c-.19-.18-.37-.36-.53-.56a10.238 10.238 0 003.49.06c-.03-.01-.06-.01-.09-.02-.91-.13-1.77-.41-2.57-.79-.2-.1-.39-.2-.57-.31a3.88 3.88 0 01-.48-.3c-.17-.11-.34-.24-.51-.37-.08-.05-.15-.11-.22-.17-.01-.01-.02-.01-.02-.02-.15-.12-.29-.24-.43-.37-.01-.02-.03-.03-.04-.04-.01 0-.01-.01-.01-.01v-.01c-.14-.34-.25-.69-.35-1.05l.12.12c.05.06.1.12.15.17.04.05.08.09.13.14.14.15.29.3.44.44.02.01.04.03.06.05.17.15.35.3.53.44.25.18.51.36.78.52.14.09.29.17.44.24.07.04.14.08.22.11.2.1.42.2.64.28.17.07.34.13.51.18.13.04.26.08.4.11.18.05.35.09.53.12.26.05.52.09.78.11.26.03.53.04.8.04.17 0 .33-.01.5-.02l.34-.02 1.5-.09zM52.15 166.22c-.03.04-.05.08-.08.11 0 .01-.01.02-.01.02-.03.04-.06.08-.09.11-.05.06-.09.13-.14.19 0 0-.01 0-.01.01-.04.05-.08.09-.12.14-.51-.02-1.01-.07-1.5-.16l.08-.47c.08.01.16.03.24.04l.09-.33c.5.15 1.02.27 1.54.34zM48.98 165.77c-.17-.08-.34-.17-.51-.26l.23-.42c.16.08.32.17.48.24l-.2.44zM48.49 166.21c-.24-.08-.47-.17-.7-.27l.189-.44c.22.09.44.18.67.25l-.16.46z" fill="#8C501C"/><path d="M52.35 165.93c-.06.1-.13.2-.2.29-.03.04-.05.08-.08.11 0 .01-.01.02-.01.02-.03.04-.06.08-.09.11-.05.06-.09.13-.14.19-.46-.07-.91-.18-1.35-.31l.13-.46c.16.05.33.1.49.14-.08-.04-.17-.07-.25-.11l.19-.44c.42.18.86.34 1.31.46z" fill="#8C501C"/><path d="M50.84 165.91c-.46-.2-.9-.43-1.33-.69l.25-.41c.4.25.83.47 1.27.66l-.19.44zM50.47 166.34c-.51-.15-1.02-.35-1.49-.57l.2-.43c.46.22.94.4 1.43.55l-.14.45zM52.63 165.48c-.08.14-.16.28-.26.41v.01c-.01.01-.01.02-.02.03-.06.1-.13.2-.2.29-.03.04-.05.08-.08.11 0 .01-.01.02-.01.02-.42-.13-.82-.27-1.21-.44l.19-.44c.4.17.81.32 1.23.44l.04-.04c-.35-.16-.7-.34-1.02-.53l.24-.41c.35.2.72.39 1.1.55zM50.1 164.54c-.09-.07-.17-.14-.26-.21l.31-.36c.08.07.16.13.24.2l-.29.37z" fill="#8C501C"/><path d="M49.52 165.22c-.12-.08-.25-.15-.37-.24l.27-.4c.11.08.23.15.35.22l-.25.42zM51.77 164.62c-.38-.29-.74-.61-1.07-.95l.34-.33c.31.32.65.63 1.01.91l-.28.37zM51.28 165.35c-.42-.24-.82-.52-1.19-.81l.3-.38c.35.28.73.54 1.13.77l-.24.42zM53.12 164.46v-.01c-.21-.17-.41-.34-.6-.53v-.01c-.04-.03-.08-.07-.12-.1l-.12-.12.34-.33c.04.04.08.08.12.11 0 0 0 .01.01.01.17.18.36.34.55.49M52.74 165.28l-.01-.01c-.33-.19-.65-.41-.96-.65l.29-.38c.17.13.35.26.53.38.12.08.24.16.36.23M52.28 163.69a9.35 9.35 0 01-.95-1.15l.39-.28c.27.39.57.75.91 1.09l-.35.34z" fill="#8C501C"/><path d="M51.77 164.62c-.38-.29-.74-.61-1.07-.95l.34-.33c.31.32.65.63 1.01.91l-.28.37zM50.7 163.67a2.81 2.81 0 01-.17-.18l.35-.32c.05.06.11.12.16.17l-.34.33zM51.32 162.54l.2-.14-.21.12-.1-.15.4-.26.1.14-.39.29z" fill="#8C501C"/><path d="M52.49 156.99l-.02.01.03.01s-.01-.01-.01-.02zm0 0l-.02.01.03.01s-.01-.01-.01-.02zm0 0l-.02.01.03.01s-.01-.01-.01-.02zm0 0l-.02.01.03.01s-.01-.01-.01-.02zm1.2 3.62c-.02-.17-.04-.35-.07-.52l-.03-.18c-.04-.26-.1-.52-.17-.77-.03.59-.11 1.18-.25 1.75-.03.15-.07.29-.11.44-.11.42-.26.84-.43 1.24-.06.16-.14.32-.21.48-.01.02-.02.03-.03.05a3.65 3.65 0 01-.31-.36c-.1-.12-.19-.24-.28-.36v-.01h.01c.04-.09.09-.18.12-.27.05-.09.09-.19.13-.29.05-.09.09-.19.12-.29.04-.1.08-.2.11-.29.18-.5.33-1.01.42-1.53.03-.14.06-.29.08-.43.03-.15.05-.31.07-.47.04-.33.06-.66.06-1l-.12-.24c-.04-.08-.08-.16-.13-.24v-.01c-.01-.03-.03-.06-.05-.1v-.01c-.04-.06-.07-.11-.11-.18l-.01-.01s-.01-.01-.01-.02v-.01c-.02-.01-.03-.02-.03-.04v-.01h-.01c-.01-.01-.01-.02-.02-.03h-.01c0 .03.01.07.01.1v.04c.01.17.02.33.02.5 0 .09 0 .19-.01.28 0 .23-.01.46-.04.69-.01.13-.02.25-.04.37-.01.14-.03.28-.06.42-.02.12-.04.24-.07.36-.02.11-.04.22-.07.33-.04.19-.1.38-.15.57-.14.45-.31.9-.52 1.34-.05.13-.11.26-.18.39l-.01.02-.06.1.08.11.01.02c.07.11.15.21.23.31.07.09.14.19.22.28.12.15.25.29.38.43.04.05.08.09.12.13l.12.12.11.12.01-.01v-.01l.14-.27c.03-.06.06-.11.08-.17.08-.14.15-.28.21-.42.09-.21.18-.41.26-.62.08-.2.15-.41.21-.62.05-.17.1-.33.14-.5.03-.1.06-.2.07-.3.03-.09.05-.18.07-.27v-.02-.02c0-.03-.01-.06-.01-.09zm-1.2-3.62l-.02.01.03.01s-.01-.01-.01-.02zm0 0l-.02.01.03.01s-.01-.01-.01-.02z" fill="#8C501C"/><path d="M52.51 157.02l-.04-.01-.04-.01c0-.04-.01-.07-.01-.11.01 0 .01.01.01.01.01.01.01.02.02.03 0 0 0 .01.01.01 0 .02.01.03.03.04v.01c0 .01.01.02.01.02l.01.01z" fill="#8C501C"/><path d="M52.5 157.01l-.03-.01h-.04l-.24-.06c.03-.1.05-.19.07-.29.06.08.12.16.17.25.01.01.01.02.02.03h.01v.01c0 .02.01.03.03.04v.01c0 .01.01.02.01.02z" fill="#8C501C"/><path d="M52.51 157.02l-.04-.01-.28-.07c.03-.1.05-.19.07-.29.06.08.12.16.17.25.01.01.01.02.02.03 0 0 0 .01.01.01 0 .02.01.03.03.04v.01c0 .01.01.02.01.02l.01.01z" fill="#8C501C"/><path d="M52.67 157.31l-.08.62-.06-.43-.06-.49V157h-.01v-.06c0 .02.01.03.03.04v.01c0 .01.02.02.02.02v.01c.04.07.07.12.11.18v.01c.02.04.04.07.05.1zM44.31 166.97l-.03-.48c1.07-.06 2.09-.32 3.05-.76-.12-.06-.24-.12-.35-.18l.22-.42c.25.13.51.26.78.37l.46.2-.44.24c-1.14.61-2.39.96-3.69 1.03z" fill="#8C501C"/><path d="M37.25 163.4c.08.11.18.22.28.33.04.05.08.09.13.14.14.15.29.3.44.44.02.01.04.03.06.05.17.15.35.3.53.44.25.18.51.36.78.52.14.09.29.17.44.24.07.04.14.08.22.11.2.1.42.2.64.28.17.07.34.13.51.18.13.04.26.08.4.11.18.05.35.09.53.12.26.05.52.09.78.11.26.03.53.04.8.04.17 0 .33-.01.5-.02l.03.48c-.18.01-.35.01-.53.01-.41 0-.82-.03-1.21-.08-.04-.01-.08-.01-.12-.02-.91-.13-1.77-.41-2.57-.79-.2-.1-.39-.2-.57-.31a3.88 3.88 0 01-.48-.3c-.17-.11-.34-.24-.51-.37-.08-.05-.15-.11-.22-.17-.01-.01-.02-.01-.02-.02-.15-.12-.29-.24-.43-.37-.01-.02-.03-.03-.04-.04-.01 0-.01-.01-.01-.01v-.01c-.14-.34-.25-.69-.35-1.05v-.01M46.43 165.14c-.03.01-.07.02-.1.02-.77.22-1.56.33-2.36.33-.21 0-.42-.01-.63-.03-.1 0-.19-.01-.28-.02-.23-.02-.45-.05-.67-.09-.21-.04-.42-.08-.63-.14h-.02c-.21-.06-.42-.12-.63-.19a8.929 8.929 0 01-3.64-2.34c-.14-.15-.27-.3-.4-.45-.01-.01-.02-.02-.03-.04v-.01c-.03-.27-.04-.54-.04-.82v-.02c.06.08.12.17.18.25 0 0 .01.01.01.02.14.18.28.35.43.52.15.18.32.35.49.51.34.33.7.63 1.09.89.21.14.42.28.64.4.15.09.31.17.47.24.26.13.52.24.79.34.2.07.4.14.61.19.05.02.1.03.15.04.19.05.39.1.59.13.28.05.56.09.85.11.22.02.44.03.67.03.19 0 .38-.01.57-.02.23-.02.46-.04.69-.08.17-.02.34-.05.5-.09.02 0 .04-.01.06-.01.17-.04.34-.08.51-.13l.07.24.06.22zM47.8 165.94c-.28-.12-.55-.25-.82-.39l.22-.42c.25.13.51.26.78.37l-.18.44zM48.47 165.52c-.29-.16-.57-.32-.82-.5l.27-.4c.25.17.51.32.79.47l-.24.43z" fill="#8C501C"/><path d="M46.98 165.55c-.26-.13-.5-.28-.75-.44l.26-.4c.23.15.47.29.71.41l-.22.43zM47.64 165.02c-.14-.09-.27-.18-.4-.28l.29-.38c.12.09.25.18.38.27l-.27.39zM48.47 165.52c-.29-.16-.57-.32-.82-.5l.27-.4c.25.17.51.32.79.47l-.24.43zM49.84 164.33c-.26-.22-.52-.46-.75-.71l.35-.33c.22.23.46.46.71.67l-.31.37zM49.15 164.99c-.28-.19-.7-.52-.96-.74l.31-.37c.25.21.65.52.92.71l-.27.4zM50.52 163.49c-.2-.22-.39-.44-.56-.68l.38-.29c.17.22.35.44.54.64l-.36.33zM51.21 162.38c-.14-.21-.27-.42-.39-.64l.42-.23c.11.21.23.41.37.6l-.4.27z" fill="#8C501C"/><path d="M51.21 162.38c-.14-.21-.27-.42-.39-.64l.42-.23c.11.21.23.41.37.6l-.4.27zM37.12 159.92l.01.01c-.05.22-.07.43-.1.65v.02c.14.16.27.31.41.46.21.23.44.44.68.65.17.15.34.29.53.42 0 .01.01.01.02.02.21.15.42.3.65.43.19.12.39.24.6.34a8.752 8.752 0 001.54.61c.07.02.15.04.23.06.13.04.27.07.41.1.11.03.23.05.35.07.16.03.33.05.49.06.1.02.19.03.29.03a7.068 7.068 0 001.39.01h.05c.34.34.72.66 1.12.95-.02 0-.04.01-.06.01-.16.04-.33.07-.5.09a8.1 8.1 0 01-1.26.1c-.23 0-.45-.01-.67-.03-.29-.02-.57-.06-.85-.11-.2-.03-.4-.08-.59-.13-.05-.01-.1-.02-.15-.04a6.17 6.17 0 01-.61-.19c-.27-.1-.53-.21-.79-.34-.16-.07-.32-.15-.47-.24-.22-.12-.43-.26-.64-.4-.39-.26-.75-.56-1.09-.89-.17-.16-.33-.33-.49-.51-.15-.17-.29-.34-.43-.52 0-.01-.01-.02-.01-.02-.06-.09-.12-.16-.18-.25v.02c0 .28.01.55.04.82v.01c.01.02.02.03.03.04.13.15.26.3.4.45a8.929 8.929 0 004.27 2.53h.02c.21.06.42.1.63.14.22.04.44.07.67.09.09.01.18.02.28.02.21.02.42.03.63.03.8 0 1.58-.11 2.35-.33h.01c.03 0 .07-.01.1-.02l.51-.14-.44-.29c-.58-.37-1.1-.79-1.58-1.26-.03-.03-.05-.05-.07-.08l-.12.01c-.17.01-.34.02-.51.02-.08.01-.16.01-.25.01-.29 0-.58-.01-.87-.05-.23-.02-.45-.05-.67-.1-.04 0-.09-.01-.13-.02-.17-.03-.33-.07-.49-.11-.1-.03-.2-.05-.3-.09-.2-.05-.38-.12-.57-.19-.01 0-.02-.01-.04-.02-.19-.07-.39-.15-.57-.25a.507.507 0 01-.15-.07c-.66-.32-1.27-.74-1.82-1.23-.19-.17-.37-.34-.54-.52-.17-.19-.34-.38-.49-.57a.755.755 0 01-.11-.14.304.304 0 01-.05-.07c-.01-.02-.03-.04-.04-.07M48.19 164.25c-.39-.34-.75-.71-1.08-1.1l.37-.31c.31.37.65.72 1.03 1.05l-.32.36zM47.25 164.74a8.84 8.84 0 01-1.33-1.19l.35-.33c.38.41.81.79 1.27 1.13l-.29.39zM49.09 163.62l-.06-.06.36-.33.04.05-.34.34zM49.759 162.53c-.17-.24-.32-.49-.47-.74l.42-.23c.13.24.28.48.44.71l-.39.26zM49.03 163.56c-.29-.31-.57-.65-.81-1l.39-.28c.23.33.49.65.77.94l-.35.34z" fill="#8C501C"/><path d="M49.96 162.81a4.85 4.85 0 01-.2-.28l.39-.28c.06.09.13.18.19.27l-.38.29zM50.82 161.74c-.12-.21-.22-.43-.32-.65l.44-.2c.09.21.19.41.3.61l-.42.24z" fill="#8C501C"/><path d="M49.759 162.53c-.17-.24-.32-.49-.47-.74l.42-.23c.13.24.28.48.44.71l-.39.26zM50.5 161.09a6.15 6.15 0 01-.16-.38l.45-.17.15.36-.44.19zM52.62 157.2v.01c-.26.98-.67 1.91-1.24 2.75l-.4-.27c.57-.84.98-1.77 1.21-2.75l.28.07h.03l.01.01c.04.07.07.12.11.18z" fill="#8C501C"/><path d="M50.82 161.74c-.12-.21-.22-.43-.32-.65l.44-.2c.09.21.19.41.3.61l-.42.24z" fill="#8C501C"/><path d="M50.5 161.09a6.15 6.15 0 01-.16-.38l-.05-.13.09-.11c.21-.25.41-.51.59-.78l.399.27c-.17.24-.34.48-.53.71.03.08.06.15.1.23l-.44.19zM44.92 163.45c-.03-.03-.05-.05-.07-.08a8.857 8.857 0 01-1.42-1.91h-.13c-.14 0-.28-.01-.42-.03-.01 0-.03 0-.04-.01-.19-.01-.37-.03-.56-.07-.14-.02-.27-.04-.41-.07-.1-.02-.21-.05-.31-.07-.16-.04-.31-.08-.47-.14-.19-.05-.38-.12-.57-.2-.15-.05-.29-.12-.43-.19-.11-.04-.23-.1-.34-.16-.06-.03-.13-.06-.19-.1-.13-.07-.25-.14-.37-.22-.21-.12-.42-.26-.62-.42a5.98 5.98 0 01-.49-.39 3.88 3.88 0 01-.42-.39c-.09-.08-.17-.16-.24-.25-.06.18-.11.36-.16.54l.01.01c.16.16.32.31.49.45.17.15.34.29.52.42.17.13.34.24.52.36a9.913 9.913 0 001.21.65c.24.11.5.21.75.29.14.05.28.1.43.14l.12.03c.2.05.41.1.61.14.22.05.44.08.67.11.18.02.37.03.56.04.31.52.67 1.01 1.07 1.47l.01.01h-.26c-.29 0-.58-.01-.87-.05-.23-.02-.45-.05-.67-.1-.04 0-.09-.01-.13-.02-.17-.03-.33-.07-.49-.11-.1-.03-.2-.05-.3-.09-.2-.05-.38-.12-.57-.19-.01 0-.02-.01-.04-.02-.19-.07-.39-.15-.57-.25-.05-.01-.1-.04-.15-.07-.66-.32-1.27-.74-1.82-1.23-.19-.15-.37-.33-.54-.52a5.27 5.27 0 01-.49-.57.755.755 0 01-.11-.14.304.304 0 01-.05-.07c-.01-.02-.03-.03-.04-.05-.05.22-.07.43-.1.65v.02c.14.16.27.31.41.46.21.23.44.44.68.65.17.15.34.29.53.42 0 .01.01.01.02.02.21.15.42.3.65.43.19.12.39.24.6.34a8.752 8.752 0 001.54.61c.07.02.15.04.23.06.13.04.27.07.41.1.11.03.23.05.35.07.16.03.33.05.49.06.1.02.19.03.29.03a7.068 7.068 0 001.39.01h.05c.04 0 .07-.01.11-.01l.51-.04-.37-.36zm-7.67-4.16h.01-.01zM47.11 163.15c-.44-.54-.82-1.12-1.13-1.73l.43-.21c.29.58.65 1.13 1.07 1.63l-.37.31zM45.91 163.55c-.52-.56-.96-1.17-1.32-1.82l.42-.23c.34.61.76 1.19 1.25 1.72l-.35.33zM49.29 161.78c-.31-.55-.55-1.13-.73-1.72l.46-.14c.17.56.4 1.11.69 1.62l-.42.24zM48.22 162.56a8.21 8.21 0 01-.93-1.69l.439-.18c.23.56.53 1.09.88 1.6l-.39.27zM52.62 157.2v.01c-.05.21-.11.41-.18.61-.26.75-.61 1.47-1.06 2.14l-.4-.27c.57-.84.98-1.77 1.21-2.75l.24.06h.04l.03.01.01.01c.04.07.07.12.11.18z" fill="#8C501C"/><path d="M50.49 161.08l-.14-.37c-.24-.6-.4-1.23-.49-1.87l-.02-.11.07-.08c.32-.35.61-.74.86-1.14l.41.26c-.25.39-.53.77-.83 1.12.07.43.17.85.3 1.26l.33-.45.4.27c-.19.28-.4.56-.63.82l-.26.29zM51.18 157.76l-.41-.26c.15-.24.29-.49.42-.74l.43.21c-.14.28-.28.54-.44.79zM51.59 155.79c-.03.13-.08.25-.13.37l.45.18c.01-.04.03-.08.04-.12-.1-.13-.2-.25-.3-.37h-.01l-.05-.06z" fill="#8C501C"/><path d="M51.62 156.98l-.43-.21c.1-.2.19-.4.27-.6l.44.18c-.08.21-.18.42-.28.63zM43.5 161.58a.746.746 0 00-.07-.12c-.26-.48-.46-.98-.62-1.5l-.05-.15-.15-.02c-.12-.01-.24-.03-.36-.05-.02 0-.03-.01-.05-.01-.13-.02-.26-.04-.38-.07-.46-.1-.9-.24-1.33-.41-.17-.07-.34-.14-.5-.22-.16-.08-.32-.16-.48-.25-.14-.07-.28-.15-.41-.24-.32-.2-.63-.43-.93-.68-.1-.08-.19-.16-.28-.25-.08.15-.15.31-.21.46.2.18.41.35.63.51.14.1.28.2.42.29a7.825 7.825 0 001.05.59c.35.17.7.31 1.07.43.18.06.37.12.56.16.32.09.65.15.99.2.13.4.29.8.48 1.18-.01 0-.03 0-.04-.01-.19-.01-.37-.03-.56-.07-.14-.02-.27-.04-.41-.07-.1-.02-.21-.05-.31-.07-.16-.04-.32-.09-.47-.14-.2-.06-.39-.13-.57-.2-.15-.05-.29-.12-.43-.19-.11-.05-.23-.1-.34-.16-.06-.03-.13-.06-.19-.1-.13-.07-.25-.14-.37-.22-.21-.12-.42-.26-.62-.42a5.98 5.98 0 01-.49-.39 3.88 3.88 0 01-.42-.39c-.09-.08-.17-.16-.24-.25-.06.18-.11.36-.16.54l.01.01c.16.16.32.31.49.45.17.15.34.29.52.42.17.13.34.24.52.36a9.913 9.913 0 001.21.65c.24.11.5.21.75.29a5.41 5.41 0 00.55.17c.2.05.41.1.61.14.22.05.44.08.67.11.18.02.37.03.56.04.04.01.09.01.13.01l.43.01-.21-.37zM45.98 161.42c-.24-.48-.44-.99-.58-1.5l.46-.13c.13.48.32.96.54 1.42l-.42.21zM44.59 161.74c-.28-.51-.51-1.04-.68-1.59l.46-.14c.16.52.38 1.02.64 1.5l-.42.23zM48.56 160.06c-.13-.43-.22-.87-.28-1.31l.48-.06c.05.42.14.83.26 1.23l-.46.14zM47.29 160.87a8.38 8.38 0 01-.45-1.45l.47-.1c.1.46.24.92.42 1.37l-.44.18zM49.92 159.35l-.07-.51a6.82 6.82 0 01-.07-.79l.48-.02c0 .06.01.13.01.19.18-.23.35-.47.5-.71l.41.26a8.9 8.9 0 01-.91 1.21l-.35.37z" fill="#8C501C"/><path d="M49.78 158.05v-.08l.48-.02v.08l-.48.02z" fill="#8C501C"/><path d="M49.78 158.05v-.08l.48-.02v.08l-.48.02zM48.28 158.75l.24-.03-.24.03-.01-.14.47-.07.02.15-.24.03-.24.03zM51.95 156.22c-.01.04-.02.08-.04.12l-.45-.18c.05-.12.09-.24.14-.36.01.02.03.03.04.05h.01c.1.12.2.24.3.37z" fill="#8C501C"/><path d="M49.78 157.97c0-.09-.01-.18-.01-.27 0-.15 0-.3.01-.45v-.09l.06-.06c.37-.41.71-.85 1-1.32l.41.25c-.29.47-.62.92-.99 1.34 0 .11-.01.22-.01.34v.26h-.47zM42.81 159.96c-.12-.4-.21-.81-.27-1.23l-.02-.14-.13-.05c-.13-.05-.25-.1-.37-.15-.46-.2-.9-.44-1.32-.71-.12-.08-.24-.16-.35-.25-.13-.09-.26-.19-.38-.29-.12-.1-.24-.2-.36-.32-.12-.1-.23-.21-.34-.33-.11-.11-.22-.23-.32-.35-.02-.02-.04-.05-.06-.07-.11.13-.2.26-.3.39.18.21.36.4.56.58.12.12.24.23.37.34.63.55 1.33 1 2.1 1.35.15.07.31.14.47.2v.01c.04.28.09.54.16.8-.02 0-.03-.01-.05-.01-.13-.02-.26-.04-.38-.07-.46-.1-.9-.24-1.33-.41-.17-.06-.33-.14-.5-.22-.16-.07-.32-.15-.48-.25-.14-.07-.28-.15-.41-.24-.32-.2-.63-.43-.93-.68-.1-.08-.19-.16-.28-.25-.08.15-.15.31-.21.46.2.18.41.35.63.51.14.1.28.2.42.29.18.12.36.23.54.33.17.09.34.18.51.26.35.17.7.31 1.07.43.18.06.37.12.56.16.32.09.65.15.99.2.05.01.1.01.15.02l.36.04-.1-.35zM45.41 159.92c-.05-.18-.1-.37-.13-.56l.08-.02v-.27l.35-.01.04.2c.04.18.08.35.13.52l-.47.14zM43.92 160.15c-.09-.29-.17-.6-.23-.9l.47-.09c.06.29.13.58.21.85l-.45.14zM46.84 159.42c-.02-.07-.03-.15-.04-.22l.47-.09c.01.07.03.14.04.21l-.47.1z" fill="#8C501C"/><path d="M42.54 158.73a7.229 7.229 0 01-.04-1.65c0-.05.01-.09.01-.14l-.12-.08c-.11-.07-.22-.15-.33-.24v-.01c-.01-.01-.02-.01-.03-.01-.01 0-.02-.01-.03-.02-.02-.01-.03-.03-.05-.04-.04-.02-.07-.06-.11-.09 0 0-.01 0-.01-.01-.08-.05-.15-.11-.22-.18-.01 0-.02-.01-.03-.02-.17-.14-.33-.29-.48-.45a.304.304 0 01-.08-.08 4.81 4.81 0 01-.42-.48c-.01-.02-.03-.03-.04-.05-.06-.07-.12-.14-.17-.21-.05-.07-.11-.14-.15-.21-.13.09-.25.19-.37.3l.03.06.09.12c.04.06.09.12.14.18.17.22.37.44.57.64.2.22.4.41.62.59.19.16.39.31.59.45.03.04.06.06.1.08a8.7 8.7 0 00-.02.52c0 .23.01.46.03.69-.46-.2-.9-.44-1.32-.71-.12-.08-.24-.16-.35-.25-.13-.09-.26-.19-.38-.29-.12-.1-.24-.21-.36-.32-.12-.1-.23-.21-.34-.33a5.31 5.31 0 01-.32-.35c-.02-.02-.04-.05-.06-.07-.11.13-.2.26-.3.39.18.21.36.4.56.58.12.12.24.23.37.34.63.55 1.33 1 2.1 1.35.15.07.31.14.47.2v.01c.04.02.09.03.13.05l.37.14-.05-.4zM45.35 159.56v-.21l-.08.02c-.07-.33-.11-.65-.14-.98l.48-.04c.02.3.07.61.13.92l.06.28-.45.01zM43.69 159.25c-.08-.45-.13-.9-.14-1.35l.48-.01c.01.43.06.86.14 1.27l-.48.09zM46.8 159.2c-.04-.21-.07-.42-.09-.63l-.03-.27.43.01v.22l.08-.01c.02.2.05.4.09.6l-.48.08zM48.27 158.61l-.02-.16.48-.04.01.15-.47.05z" fill="#8C501C"/><path d="M48.27 158.61l-.02-.16.48-.04.01.15-.47.05zM42.65 155.34c-.09-.05-.17-.11-.26-.18a.21.21 0 01-.06-.04c-.06-.03-.12-.08-.17-.12-.06-.03-.12-.08-.17-.12-.14-.11-.28-.22-.41-.34-.15-.12-.3-.26-.43-.4-.14.08-.28.17-.42.26.33.34.68.65 1.06.92.15.12.3.23.46.33-.08.32-.15.63-.19.96v.02l-.03-.03c-.01 0-.02-.01-.03-.02-.02-.01-.03-.03-.05-.04-.04-.02-.07-.06-.11-.09 0 0-.01 0-.01-.01-.08-.05-.15-.11-.22-.18-.01 0-.02-.01-.03-.02a5.11 5.11 0 01-.48-.45.304.304 0 01-.08-.08 6.27 6.27 0 01-.42-.48c-.01-.02-.03-.03-.04-.05-.06-.07-.12-.14-.17-.21-.05-.07-.11-.14-.15-.21-.13.09-.25.19-.37.3h-.01c.01.02.03.04.04.06l.09.12c.04.06.09.12.14.18.17.22.37.44.57.64.2.22.4.41.62.59.19.16.39.31.59.45.03.04.06.06.1.08.03.03.07.05.11.08l.34.23.04-.41c0-.05.01-.09.01-.14.04-.45.12-.9.25-1.33l.04-.18-.15-.09zM45.13 158.39a7.961 7.961 0 01.04-1.74l.48.06c-.04.33-.06.66-.06.99 0 .22.01.43.03.65l-.49.04zM43.55 157.89v-.19c0-.5.05-1 .14-1.5l.47.09c-.09.47-.13.94-.13 1.41v.18l-.48.01zM46.7 158.56c-.03-.29-.05-.58-.05-.86 0-.29.02-.59.05-.88l.48.05c-.03.27-.04.55-.04.83 0 .27.01.54.04.82l-.48.04z" fill="#8C501C"/><path d="M45.13 158.39a7.961 7.961 0 01.04-1.74l.48.06c-.04.33-.06.66-.06.99 0 .22.01.43.03.65l-.49.04zM48.25 158.45c-.02-.25-.04-.5-.04-.75 0-.33.02-.67.06-1l.48.06c-.04.31-.06.63-.06.94 0 .24.01.48.03.71l-.47.04zM46.7 158.56c-.03-.29-.05-.58-.05-.86 0-.29.02-.59.05-.88l.02-.22.37.01v.25l.08.01c-.03.27-.04.55-.04.83 0 .27.01.54.04.82l-.47.04zM49.75 157.92l.04-.67c.02-.33.06-.66.11-.99l.47.08-.03.17c.18-.24.35-.48.5-.73l.41.25c-.3.5-.66.97-1.05 1.4l-.45.49zM43.28 153.26c-.07.11-.14.22-.2.33-.29.5-.52 1.02-.69 1.57v.01c-.02-.01-.04-.03-.06-.05-.06-.03-.12-.08-.17-.12-.06-.03-.12-.08-.17-.12-.14-.11-.28-.22-.41-.34-.15-.12-.3-.26-.43-.4-.14.08-.28.17-.42.26.33.34.68.65 1.06.92.2.15.4.29.61.42l.27.17.09-.3c.17-.62.42-1.22.74-1.79.14-.24.28-.48.45-.7-.23.04-.45.09-.67.14zM45.59 153.01c-.73.99-1.22 2.1-1.43 3.28l-.47-.09c.21-1.13.66-2.22 1.31-3.19.12-.01.24-.01.36-.01.08 0 .15 0 .23.01z" fill="#8C501C"/><path d="M46.52 153.08c.17.02.34.05.5.09-.13.19-.25.38-.37.57-.1.17-.19.34-.26.52-.05.09-.09.17-.13.26-.09.2-.17.4-.24.6 0 .01-.01.03-.01.04-.09.25-.16.49-.22.74v.02c-.06.26-.11.52-.14.79l-.48-.06c.02-.14.04-.29.07-.43.05-.28.12-.56.2-.84.04-.14.08-.28.13-.41.1-.29.22-.57.35-.85.05-.12.11-.23.17-.34.04-.09.09-.18.15-.27.08-.15.17-.29.28-.43z" fill="#8C501C"/><path d="M46.52 153.08c.17.02.34.05.5.09-.13.19-.25.38-.37.57-.09.17-.19.34-.26.52-.05.09-.09.17-.13.26-.09.2-.17.4-.24.6 0 .01-.01.03-.01.04-.08.24-.16.49-.22.74v.02c-.06.26-.11.52-.14.79l-.48-.06c.02-.14.04-.29.07-.43.05-.28.12-.56.2-.84.04-.14.08-.28.13-.41.1-.29.22-.57.35-.85.05-.12.11-.23.17-.34.04-.09.09-.18.15-.27.08-.14.17-.29.26-.43M47.869 153.39c.16.05.31.1.46.16-.01.01-.01.02-.02.04-.27.45-.5.93-.68 1.42-.07.17-.12.34-.17.51-.13.44-.22.89-.27 1.35l-.08-.01-.4-.04.03-.22c.02-.17.05-.34.08-.5.06-.29.13-.57.21-.84.07-.22.15-.44.24-.65.09-.24.19-.47.31-.69.09-.18.18-.36.29-.53z" fill="#8C501C"/><path d="M48.31 153.59c-.27.45-.5.93-.68 1.42-.07.17-.12.34-.17.51-.13.44-.22.89-.27 1.35l-.08-.01v.22h-.43l.03-.26.03-.22h.01c.01-.17.04-.34.07-.5.06-.29.13-.57.21-.84.07-.22.15-.44.24-.65.09-.24.19-.47.31-.69.09-.18.18-.36.29-.53.16.05.31.1.46.16h.01c-.01.01-.02.02-.03.04zM49.14 153.91c.15.07.29.15.42.23-.03.06-.06.11-.08.17-.06.12-.12.24-.17.37-.28.66-.47 1.36-.55 2.08l-.48-.06c.02-.2.06-.4.1-.6.07-.38.17-.75.3-1.11.06-.18.13-.36.21-.54.05-.12.1-.24.16-.36.03-.06.06-.12.08-.18" fill="#8C501C"/><path d="M49.14 153.91c.15.07.29.15.42.23-.03.06-.06.11-.08.17-.06.12-.12.24-.17.37-.28.66-.47 1.36-.55 2.08l-.48-.06c.02-.2.06-.4.1-.6.07-.38.17-.75.3-1.11.06-.18.13-.36.21-.54.05-.12.1-.24.16-.36.03-.06.06-.12.08-.18h.01zM50.358 154.66c.13.1.26.2.39.31-.03.06-.05.12-.06.18a8 8 0 00-.31 1.19l-.48-.08c.09-.49.21-.96.39-1.42.02-.06.05-.12.07-.18z" fill="#8C501C"/><path d="M50.76 154.98c-.03.05-.05.11-.07.17a8 8 0 00-.31 1.19l-.48-.08c.09-.49.21-.96.39-1.42.02-.06.05-.12.07-.18.13.1.26.2.39.31M51.47 155.65v.01c-.01.01-.02.03-.03.04v.01c-.06.11-.12.21-.18.31l-.41-.24c.09-.15.18-.31.26-.47 0-.01.01-.01.01-.01l.31.31c.01.01.02.03.04.04z" fill="#8C501C"/><path d="M128.701 59.6l11.4-.8c.4 0 .8-.4.8-.9 0-.4-.4-.8-.9-.8l-11.4.9c-.4 0-.8.4-.8.9.1.4.4.7.9.7z" fill="#A3A7AB"/><path d="M128.8 60.7l11.4-.8c.4 0 .8-.4.8-.9 0-.4-.4-.8-.9-.8l-11.4.8c-.4 0-.8.4-.8.9 0 .4.4.8.9.8z" fill="#A3A7AB"/><path d="M119.4 56.2c.1 1.9 1.5 3.4 3 3.3l2.8-.2" stroke="#206F3B" stroke-width="1.836" stroke-miterlimit="10"/><path d="M122.4 58.7l2.8-.2-.2-2.7a2.808 2.808 0 00-5.6.4c.1 1.5 1.5 2.6 3 2.5zM119.901 63.7c-.1-1.9 1-3.6 2.5-3.7l2.8-.2" stroke="#206F3B" stroke-width="1.836" stroke-miterlimit="10"/><path d="M122.5 60.7l2.8-.2.2 2.8c.1 1.5-1.1 2.9-2.6 3-1.5.1-2.9-1.1-3-2.6-.1-1.6 1.1-2.9 2.6-3z" stroke="#206F3B" stroke-width="1.836" stroke-miterlimit="10"/><path d="M130.5 59.2l-7.5.5.1 1.9 5.6-.4c1.1-.1 1.9-1 1.8-2z" fill="#206F3B"/><path d="M130.5 59.2l-7.5.5-.1-1.9 5.6-.4c1 0 2 .7 2 1.8z" fill="#206F3B"/><path d="M129 59.8a.5.5 0 100-1 .5.5 0 000 1z" fill="#A3A7AB"/><path d="M128.601 58.8l11.4-.8c.4 0 .8-.4.8-.9 0-.4-.4-.8-.9-.8l-11.4.8c-.4 0-.8.4-.8.9.1.5.5.9.9.8z" fill="#D8DDE2"/><path d="M128.701 59.9l11.4-.8c.4 0 .8-.4.8-.9 0-.4-.4-.8-.9-.8l-11.4.8c-.4 0-.8.4-.8.9.1.5.5.8.9.8z" fill="#D8DDE2"/><path d="M119.4 55.4c.1 1.9 1.5 3.4 3 3.3l2.8-.2" stroke="#30A658" stroke-width="1.836" stroke-miterlimit="10"/><path d="M122.301 58l2.8-.2-.2-2.8a2.808 2.808 0 00-5.6.4c.2 1.5 1.5 2.7 3 2.6zM119.901 62.9c-.1-1.9 1-3.6 2.5-3.7l2.8-.2" stroke="#30A658" stroke-width="1.836" stroke-miterlimit="10"/><path d="M122.501 60l2.8-.2.2 2.8c.1 1.5-1.1 2.9-2.6 3-1.5.1-2.9-1.1-3-2.6-.1-1.6 1-2.9 2.6-3z" stroke="#30A658" stroke-width="1.836" stroke-miterlimit="10"/><path d="M130.5 58.4l-7.5.5.1 1.9 5.6-.4c1.1 0 1.8-.9 1.8-2z" fill="#30A658"/><path d="M130.5 58.4l-7.5.6-.1-1.9 5.6-.4c1-.1 1.9.7 2 1.7z" fill="#30A658"/><path d="M128.9 59a.5.5 0 10.001-.999.5.5 0 00-.001.999z" fill="#D8DDE2"/><path d="M150.899 94.6c-.2-.1-.6.1-.9.4l-7.6 9.3c-.1.1 0 .1.1 0l8.3-8.8.1-.1c.3-.2.3-.6 0-.8z" fill="#CFD1D2"/><path d="M152.148 96.066c.253-.292-.15-1.057-.9-1.709-.751-.651-1.565-.943-1.818-.651-.254.291.149 1.057.9 1.708.75.652 1.564.944 1.818.652zM142.5 89.4c-.3 0-.5.4-.5.8l-1.1 12c0 .1.1.1.1 0l2-11.9v-.1c0-.5-.2-.8-.5-.8z" fill="#CFD1D2"/><path d="M144.326 89.97c.049-.383-.71-.796-1.696-.923s-1.825.08-1.875.464c-.049.383.71.797 1.696.924s1.826-.08 1.875-.464z" fill="#CFD1D2"/><path d="M148.72 103.36c0 4.61-3.75 8.35-8.36 8.35-4.62 0-8.36-3.74-8.36-8.35 0-4.62 3.74-8.36 8.36-8.36 2.86 0 5.4 1.44 6.9 3.65.06.07.11.15.16.23v.01c.01 0 .01.01.01.01.01.01.01.02.02.03 0 0 0 .01.01.01 0 .02.01.03.03.04v.01c0 .01.01.02.01.02l.01.01c.04.07.07.12.11.18v.01c.02.04.04.07.05.1v.01c.05.08.09.16.13.24l.12.24a7.997 7.997 0 01.67 2.11l.03.18c.03.17.05.35.07.52 0 .03.01.06.01.09v.04c.01.21.02.41.02.62z" fill="#FFBD8A"/><path d="M147.009 108.33h-.01l-.05-.01h-.01c-.48 0-.95-.04-1.42-.12-.04 0-.08 0-.12-.01-.04-.01-.08-.01-.12-.02-.04-.01-.08-.01-.12-.02l-.08.08c-.12.11-.24.21-.36.32h-.01c-.05.05-.1.09-.16.13-.15.13-.31.25-.48.37a9.702 9.702 0 01-.82.53c-.05.04-.1.06-.15.09-.18.1-.36.2-.55.29-.1.05-.2.1-.31.14-.16.08-.33.14-.49.2-.13.06-.26.1-.38.14-.17.06-.34.12-.51.16-.15.05-.31.09-.46.12-.79.19-1.6.29-2.43.29-.24 0-.48-.01-.71-.02-.13-.01-.27-.02-.4-.04.5.22 1.01.4 1.55.53h.01c.23-.01.46-.02.69-.05.13-.01.26-.03.4-.05.16-.02.31-.05.47-.08.14-.02.28-.05.41-.08l.12-.03c.33-.08.65-.17.97-.28.3-.1.6-.21.89-.34l.45-.21c.17-.08.34-.18.51-.27a10.777 10.777 0 001.98-1.43c.4.07.8.11 1.21.13a10.533 10.533 0 01-4.42 2.74 8.357 8.357 0 004.59-2.72" fill="#8C501C"/><path d="M135.93 110.44l-.01-.01.01.01zm0 0h.01c.05.01.09.01.13.01.3.03.61.04.91.04.39 0 .77-.02 1.15-.07.23-.01.45-.04.67-.08.87-.14 1.71-.39 2.51-.74.17-.07.34-.14.5-.24.63-.3 1.24-.68 1.81-1.11.36.12.71.22 1.09.3-.05.05-.1.09-.16.13-.15.13-.31.25-.48.37a9.702 9.702 0 01-.82.53c-.05.04-.1.06-.15.09-.18.1-.36.2-.55.29-.1.05-.2.1-.31.14-.16.08-.33.14-.49.2-.13.06-.26.1-.38.14-.17.06-.34.12-.51.16-.15.05-.31.09-.46.12-.79.19-1.6.29-2.43.29-.24 0-.48-.01-.71-.02-.13-.01-.27-.02-.4-.04.5.22 1.01.4 1.55.53h.01c.23-.01.46-.02.69-.05.13-.01.26-.03.4-.05.16-.02.31-.05.47-.08.14-.02.28-.05.41-.08l.12-.03c.33-.08.65-.17.97-.28a9.583 9.583 0 001.34-.55c.17-.08.34-.18.51-.27a10.777 10.777 0 001.98-1.43c.03-.03.06-.05.09-.08l.22-.2.14-.13-.24-.04c-.04-.01-.08-.01-.12-.02-.04-.01-.08-.01-.12-.02-.04-.01-.08-.01-.12-.02-.2-.04-.4-.08-.6-.14-.01.01-.01.01-.02 0l-.47-.12-.42-.14c-.04-.01-.08-.03-.12-.04l-.1.08c-.11.09-.23.18-.35.26h-.01c-.04.03-.08.06-.12.08-.17.13-.34.24-.52.35-.03.02-.06.04-.09.05-.18.11-.36.22-.55.31-.17.09-.34.18-.52.25-.03.02-.07.04-.1.05-.24.11-.49.2-.75.29-.02.01-.03.02-.05.02-.19.07-.38.13-.58.17-.1.04-.19.06-.29.09-.2.05-.4.09-.61.12-.06.02-.12.03-.19.04-.27.05-.55.08-.84.1-.29.03-.58.04-.88.04-.24 0-.48-.01-.72-.02-.12-.01-.24-.02-.36-.04-.21-.02-.43-.04-.64-.08l-.17-.03s.01 0 .01.01c.26.21.54.41.82.58" fill="#8C501C"/><path d="M139.381 108.96l-.01.01c.02 0 .05 0 .07-.01h-.06zm4.27-1.21c-.04-.01-.08-.03-.12-.04-.07-.03-.14-.05-.21-.08l-.33-.13c-.04-.02-.08-.03-.11-.05l-.1.06c-.14.08-.28.15-.43.22h-.01c-.22.1-.44.2-.67.28-.08.02-.15.05-.23.07-.17.06-.33.12-.51.15-.33.09-.67.16-1.01.2-.1.01-.19.03-.29.04l-.34.02-.06.01c-.54.18-1.09.31-1.65.4h-.03a10.278 10.278 0 01-3.49-.06c.16.2.34.38.53.56.12.02.24.03.36.04.17.02.35.03.52.04.09.01.17.02.25.01.37.01.74-.01 1.12-.03.85-.06 1.69-.23 2.51-.49h.02c.02 0 .05 0 .07-.01.03 0 .06 0 .08-.01.2-.01.41-.04.61-.07.2-.03.4-.06.6-.11.15-.03.3-.07.45-.11.6-.16 1.17-.39 1.73-.68.05.02.1.04.16.07-.04.03-.08.06-.12.08-.17.13-.34.24-.52.35-.03.02-.06.04-.09.05-.18.12-.36.22-.55.31-.17.09-.34.18-.52.25-.03.02-.07.04-.1.05-.25.11-.5.21-.75.29-.02.01-.03.02-.05.02-.19.07-.38.13-.58.17-.1.04-.19.06-.29.09-.2.05-.4.09-.61.12-.06.02-.12.03-.19.04-.27.05-.55.08-.84.1-.29.03-.58.04-.88.04-.24 0-.48-.01-.72-.02-.12-.01-.24-.02-.36-.04-.21-.02-.43-.04-.64-.08a.875.875 0 00-.16-.02c.26.21.54.41.82.58l.01.01h.01c.05.01.09.01.13.01.3.03.61.04.91.04.39 0 .77-.02 1.15-.07.23-.01.45-.04.67-.08.87-.14 1.71-.39 2.51-.74.17-.07.34-.14.5-.24.63-.3 1.24-.68 1.81-1.11.04-.03.07-.05.1-.08l.35-.28-.42-.14z" fill="#8C501C"/><path d="M141.13 108.38l-1.75.58-.01.01h-.02c-.82.26-1.66.43-2.51.49-.29.03-.57.04-.86.04-.08 0-.17 0-.26-.01-.08.01-.16 0-.25-.01-.17-.01-.35-.02-.52-.04-.12 0-.24-.01-.35-.03l-.01-.01c-.19-.18-.37-.36-.53-.56a10.238 10.238 0 003.49.06c-.03-.01-.06-.01-.09-.02-.91-.13-1.77-.41-2.57-.79-.2-.1-.39-.2-.57-.31a3.88 3.88 0 01-.48-.3c-.17-.11-.34-.24-.51-.37-.08-.05-.15-.11-.22-.17-.01-.01-.02-.01-.02-.02-.15-.12-.29-.24-.43-.37-.01-.02-.03-.03-.04-.04-.01 0-.01-.01-.01-.01v-.01c-.14-.34-.25-.69-.35-1.05l.12.12c.05.06.1.12.15.17.04.05.08.09.13.14.14.15.29.3.44.44.02.01.04.03.06.05.17.15.35.3.53.44.25.18.51.36.78.52.14.09.29.17.44.24.07.04.14.08.22.11.2.1.42.2.64.28.17.07.34.13.51.18.13.04.26.08.4.11.18.05.35.09.53.12.26.05.52.09.78.11.26.03.53.04.8.04.17 0 .33-.01.5-.02l.34-.02 1.5-.09zM147.149 108.22c-.03.04-.05.08-.08.11 0 .01-.01.02-.01.02-.03.04-.06.08-.09.11-.05.06-.09.13-.14.19 0 0-.01 0-.01.01-.04.05-.08.09-.12.14-.51-.02-1.01-.07-1.5-.16l.08-.47c.08.01.16.03.24.04l.09-.33c.5.15 1.02.27 1.54.34zM143.981 107.77c-.17-.08-.34-.17-.51-.26l.23-.42c.16.08.32.17.48.24l-.2.44zM143.489 108.21c-.24-.08-.47-.17-.7-.27l.19-.44c.22.09.44.18.67.25l-.16.46z" fill="#8C501C"/><path d="M147.35 107.93c-.06.1-.13.2-.2.29-.03.04-.05.08-.08.11 0 .01-.01.02-.01.02-.03.04-.06.08-.09.11-.05.06-.09.13-.14.19-.46-.07-.91-.18-1.35-.31l.13-.46c.16.05.33.1.49.14-.08-.04-.17-.07-.25-.11l.19-.44c.42.18.86.34 1.31.46z" fill="#8C501C"/><path d="M145.84 107.91c-.46-.2-.9-.43-1.33-.69l.25-.41c.4.25.83.47 1.27.66l-.19.44zM145.47 108.34c-.51-.15-1.02-.35-1.49-.57l.2-.43c.46.22.94.4 1.43.55l-.14.45zM147.63 107.48c-.08.14-.16.28-.26.41v.01c-.01.01-.01.02-.02.03-.06.1-.13.2-.2.29-.03.04-.05.08-.08.11 0 .01-.01.02-.01.02-.42-.13-.82-.27-1.21-.44l.19-.44c.4.17.81.32 1.23.44l.04-.04c-.35-.16-.7-.34-1.02-.53l.24-.41c.35.2.72.39 1.1.55zM145.1 106.54c-.09-.07-.17-.14-.26-.21l.31-.36c.08.07.16.13.24.2l-.29.37z" fill="#8C501C"/><path d="M144.52 107.22c-.12-.08-.25-.15-.37-.24l.27-.4c.11.08.23.15.35.22l-.25.42zM146.769 106.62c-.38-.29-.74-.61-1.07-.95l.34-.33c.31.32.65.63 1.01.91l-.28.37zM146.28 107.35c-.42-.24-.82-.52-1.19-.81l.3-.38c.35.28.73.54 1.13.77l-.24.42zM148.119 106.46v-.01c-.21-.17-.41-.34-.6-.53v-.01c-.04-.03-.08-.07-.12-.1l-.12-.12.34-.33c.04.04.08.08.12.11 0 0 0 .01.01.01.17.18.36.34.55.49M147.74 107.28l-.01-.01c-.33-.19-.65-.41-.96-.65l.29-.38c.17.13.35.26.53.38.12.08.24.16.36.23" fill="#8C501C"/><path d="M147.28 105.69a9.35 9.35 0 01-.95-1.15l.39-.28c.27.39.57.75.91 1.09l-.35.34zM146.769 106.62c-.38-.29-.74-.61-1.07-.95l.34-.33c.31.32.65.63 1.01.91l-.28.37z" fill="#8C501C"/><path d="M145.699 105.67a2.81 2.81 0 01-.17-.18l.35-.32c.05.06.11.12.16.17l-.34.33zM146.321 104.54l.2-.14-.21.12-.1-.15.4-.26.1.14-.39.29z" fill="#8C501C"/><path d="M147.49 98.99l-.02.01.03.01s-.01-.01-.01-.02zm0 0l-.02.01.03.01s-.01-.01-.01-.02zm0 0l-.02.01.03.01s-.01-.01-.01-.02zm0 0l-.02.01.03.01s-.01-.01-.01-.02zm1.2 3.62c-.02-.17-.04-.35-.07-.52l-.03-.18c-.04-.26-.1-.52-.17-.77-.03.59-.11 1.18-.25 1.75-.03.15-.07.29-.11.44-.11.42-.26.84-.43 1.24-.06.16-.14.32-.21.48-.01.02-.02.03-.03.05a3.65 3.65 0 01-.31-.36c-.1-.12-.19-.24-.28-.36v-.01h.01c.04-.09.09-.18.12-.27.05-.09.09-.19.13-.29.05-.09.09-.19.12-.29.04-.1.08-.2.11-.29.18-.5.33-1.01.42-1.53.03-.14.06-.29.08-.43.03-.15.05-.31.07-.47.04-.33.06-.66.06-1l-.12-.24c-.04-.08-.08-.16-.13-.24v-.01c-.01-.03-.03-.06-.05-.1v-.01c-.04-.06-.07-.11-.11-.18l-.01-.01s-.01-.01-.01-.02v-.01c-.02-.01-.03-.02-.03-.04v-.01h-.01c-.01-.01-.01-.02-.02-.03h-.01c0 .03.01.07.01.1v.04c.01.17.02.33.02.5 0 .09 0 .19-.01.28 0 .23-.01.46-.04.69-.01.13-.02.25-.04.37-.01.14-.03.28-.06.42-.02.12-.04.24-.07.36-.02.11-.04.22-.07.33-.04.19-.1.38-.15.57-.14.45-.31.9-.52 1.34-.05.13-.11.26-.18.39l-.01.02-.06.1.08.11.01.02c.07.11.15.21.23.31.07.09.14.19.22.28.12.15.25.29.38.43.04.05.08.09.12.13l.12.12.11.12.01-.01v-.01l.14-.27c.03-.06.06-.11.08-.17.08-.14.15-.28.21-.42.09-.21.18-.41.26-.62.08-.2.15-.41.21-.62.05-.17.1-.33.14-.5.03-.1.06-.2.07-.3.03-.09.05-.18.07-.27v-.02-.02c0-.03-.01-.06-.01-.09zm-1.2-3.62l-.02.01.03.01s-.01-.01-.01-.02zm0 0l-.02.01.03.01s-.01-.01-.01-.02z" fill="#8C501C"/><path d="M147.51 99.02l-.04-.01-.04-.01c0-.04-.01-.07-.01-.11.01 0 .01.01.01.01.01.01.01.02.02.03 0 0 0 .01.01.01 0 .02.01.03.03.04v.01c0 .01.01.02.01.02l.01.01z" fill="#8C501C"/><path d="M147.499 99.01l-.03-.01h-.04l-.24-.06c.03-.1.05-.19.07-.29.06.08.12.16.17.25.01.01.01.02.02.03h.01v.01c0 .02.01.03.03.04v.01c0 .01.01.02.01.02z" fill="#8C501C"/><path d="M147.509 99.02l-.04-.01-.28-.07c.03-.1.05-.19.07-.29.06.08.12.16.17.25.01.01.01.02.02.03 0 0 0 .01.01.01 0 .02.01.03.03.04v.01c0 .01.01.02.01.02l.01.01z" fill="#8C501C"/><path d="M147.671 99.31l-.08.62-.06-.43-.06-.49V99h-.01v-.06c0 .02.01.03.03.04v.01c0 .01.02.02.02.02v.01c.04.07.07.12.11.18v.01c.02.04.04.07.05.1zM139.309 108.97l-.03-.48c1.07-.06 2.09-.32 3.05-.76-.12-.06-.24-.12-.35-.18l.22-.42c.25.13.51.26.78.37l.46.2-.44.24c-1.14.61-2.39.96-3.69 1.03z" fill="#8C501C"/><path d="M132.25 105.4c.08.11.18.22.28.33.04.05.08.09.13.14.14.15.29.3.44.44.02.01.04.03.06.05.17.15.35.3.53.44.25.18.51.36.78.52.14.09.29.17.44.24.07.04.14.08.22.11.2.1.42.2.64.28.17.07.34.13.51.18.13.04.26.08.4.11.18.05.35.09.53.12.26.05.52.09.78.11.26.03.53.04.8.04.17 0 .33-.01.5-.02l.03.48c-.18.01-.35.01-.53.01-.41 0-.82-.03-1.21-.08-.04-.01-.08-.01-.12-.02-.91-.13-1.77-.41-2.57-.79-.2-.1-.39-.2-.57-.31a3.88 3.88 0 01-.48-.3c-.17-.11-.34-.24-.51-.37-.08-.05-.15-.11-.22-.17-.01-.01-.02-.01-.02-.02-.15-.12-.29-.24-.43-.37-.01-.02-.03-.03-.04-.04-.01 0-.01-.01-.01-.01v-.01c-.14-.34-.25-.69-.35-1.05v-.01M141.43 107.14c-.03.01-.07.02-.1.02-.77.22-1.56.33-2.36.33-.21 0-.42-.01-.63-.03-.1 0-.19-.01-.28-.02-.23-.02-.45-.05-.67-.09-.21-.04-.42-.08-.63-.14h-.02c-.21-.06-.42-.12-.63-.19a8.929 8.929 0 01-3.64-2.34c-.14-.15-.27-.3-.4-.45-.01-.01-.02-.02-.03-.04v-.01c-.03-.27-.04-.54-.04-.82v-.02c.06.08.12.17.18.25 0 0 .01.01.01.02.14.18.28.35.43.52.15.18.32.35.49.51.34.33.7.63 1.09.89.21.14.42.28.64.4.15.09.31.17.47.24.26.13.52.24.79.34.2.07.4.14.61.19.05.02.1.03.15.04.19.05.39.1.59.13.28.05.56.09.85.11.22.02.44.03.67.03.19 0 .38-.01.57-.02.23-.02.46-.04.69-.08.17-.02.34-.05.5-.09.02 0 .04-.01.06-.01.17-.04.34-.08.51-.13l.07.24.06.22zM142.8 107.94c-.28-.12-.55-.25-.82-.39l.22-.42c.25.13.51.26.78.37l-.18.44zM143.47 107.52c-.29-.16-.57-.32-.82-.5l.27-.4c.25.17.51.32.79.47l-.24.43z" fill="#8C501C"/><path d="M141.98 107.55c-.26-.13-.5-.28-.75-.44l.26-.4c.23.15.47.29.71.41l-.22.43zM142.64 107.02c-.14-.09-.27-.18-.4-.28l.29-.38c.12.09.25.18.38.27l-.27.39zM143.47 107.52c-.29-.16-.57-.32-.82-.5l.27-.4c.25.17.51.32.79.47l-.24.43zM144.84 106.33c-.26-.22-.52-.46-.75-.71l.35-.33c.22.23.46.46.71.67l-.31.37zM144.149 106.99c-.28-.19-.7-.52-.96-.74l.31-.37c.25.21.65.52.92.71l-.27.4zM145.521 105.49c-.2-.22-.39-.44-.56-.68l.38-.29c.17.22.35.44.54.64l-.36.33zM146.21 104.38c-.14-.21-.27-.42-.39-.64l.42-.23c.11.21.23.41.37.6l-.4.27z" fill="#8C501C"/><path d="M146.21 104.38c-.14-.21-.27-.42-.39-.64l.42-.23c.11.21.23.41.37.6l-.4.27zM132.12 101.92l.01.01c-.05.22-.07.43-.1.65v.02c.14.16.27.31.41.46.21.23.44.44.68.65.17.15.34.29.53.42 0 .01.01.01.02.02.21.15.42.3.65.43.19.12.39.24.6.34a8.752 8.752 0 001.54.61c.07.02.15.04.23.06.13.04.27.07.41.1.11.03.23.05.35.07.16.03.33.05.49.06.1.02.19.03.29.03a7.068 7.068 0 001.39.01h.05c.34.34.72.66 1.12.95-.02 0-.04.01-.06.01-.16.04-.33.07-.5.09a8.1 8.1 0 01-.69.08c-.19.01-.38.02-.57.02-.23 0-.45-.01-.67-.03-.29-.02-.57-.06-.85-.11-.2-.03-.4-.08-.59-.13a.833.833 0 01-.15-.04c-.21-.05-.41-.12-.61-.19-.27-.1-.53-.21-.79-.34-.16-.07-.32-.15-.47-.24-.22-.12-.43-.26-.64-.4-.39-.26-.75-.56-1.09-.89-.17-.16-.33-.33-.49-.51-.15-.17-.29-.34-.43-.52 0-.01-.01-.02-.01-.02-.06-.09-.12-.16-.18-.25v.02c0 .28.01.55.04.82v.01c.01.02.02.03.03.04.13.15.26.3.4.45a8.929 8.929 0 004.27 2.53h.02c.21.06.42.1.63.14.22.04.44.07.67.09.09.01.18.02.28.02.21.02.42.03.63.03.8 0 1.58-.11 2.35-.33h.01c.03 0 .07-.01.1-.02l.51-.14-.44-.29c-.58-.37-1.1-.79-1.58-1.26a.5.5 0 01-.07-.08l-.12.01c-.17.01-.34.02-.51.02-.08.01-.16.01-.25.01-.29 0-.58-.01-.87-.05-.23-.02-.45-.05-.67-.1-.04 0-.09-.01-.13-.02-.17-.03-.33-.07-.49-.11-.1-.03-.2-.05-.3-.09-.2-.05-.38-.12-.57-.19-.01 0-.02-.01-.04-.02-.19-.07-.39-.15-.57-.25a.507.507 0 01-.15-.07c-.66-.32-1.27-.74-1.82-1.23-.19-.17-.37-.34-.54-.52-.17-.19-.34-.38-.49-.57a.755.755 0 01-.11-.14.304.304 0 01-.05-.07c-.01-.02-.03-.04-.04-.07M143.189 106.25c-.39-.34-.75-.71-1.08-1.1l.37-.31c.31.37.65.72 1.03 1.05l-.32.36zM142.25 106.74a8.84 8.84 0 01-1.33-1.19l.35-.33c.38.41.81.79 1.27 1.13l-.29.39zM144.089 105.62l-.06-.06.36-.33.04.05-.34.34zM144.759 104.53c-.17-.24-.32-.49-.47-.74l.42-.23c.13.24.28.48.44.71l-.39.26z" fill="#8C501C"/><path d="M144.031 105.56c-.29-.31-.57-.65-.81-1l.39-.28c.23.33.49.65.77.94l-.35.34zM144.96 104.81a4.85 4.85 0 01-.2-.28l.39-.28c.06.09.13.18.19.27l-.38.29zM145.82 103.74c-.12-.21-.22-.43-.32-.65l.44-.2c.09.21.19.41.3.61l-.42.24z" fill="#8C501C"/><path d="M144.759 104.53c-.17-.24-.32-.49-.47-.74l.42-.23c.13.24.28.48.44.71l-.39.26zM145.5 103.09a6.15 6.15 0 01-.16-.38l.45-.17.15.36-.44.19zM147.62 99.2v.01c-.26.98-.67 1.91-1.24 2.75l-.4-.27c.57-.84.98-1.77 1.21-2.75l.28.07h.03l.01.01c.04.07.07.12.11.18z" fill="#8C501C"/><path d="M145.82 103.74c-.12-.21-.22-.43-.32-.65l.44-.2c.09.21.19.41.3.61l-.42.24z" fill="#8C501C"/><path d="M145.499 103.09a6.15 6.15 0 01-.16-.38l-.05-.13.09-.11c.21-.25.41-.51.59-.78l.4.27c-.17.24-.34.48-.53.71.03.08.06.15.1.23l-.44.19zM139.919 105.45c-.03-.03-.05-.05-.07-.08a8.857 8.857 0 01-1.42-1.91h-.13c-.14 0-.28-.01-.42-.03-.01 0-.03 0-.04-.01-.19-.01-.37-.03-.56-.07-.14-.02-.27-.04-.41-.07-.1-.02-.21-.05-.31-.07-.16-.04-.31-.08-.47-.14-.19-.05-.38-.12-.57-.2-.15-.05-.29-.12-.43-.19-.11-.04-.23-.1-.34-.16-.06-.03-.13-.06-.19-.1-.13-.07-.25-.14-.37-.22-.21-.12-.42-.26-.62-.42a5.98 5.98 0 01-.49-.39 3.88 3.88 0 01-.42-.39c-.09-.08-.17-.16-.24-.25-.06.18-.11.36-.16.54l.01.01c.16.16.32.31.49.45.17.15.34.29.52.42.17.13.34.24.52.36a9.913 9.913 0 001.21.65c.24.11.5.21.75.29.14.05.28.1.43.14l.12.03c.2.05.41.1.61.14.22.05.44.08.67.11.18.02.37.03.56.04.31.52.67 1.01 1.07 1.47l.01.01h-.26c-.29 0-.58-.01-.87-.05-.23-.02-.45-.05-.67-.1-.04 0-.09-.01-.13-.02-.17-.03-.33-.07-.49-.11-.1-.03-.2-.05-.3-.09-.2-.05-.38-.12-.57-.19-.01 0-.02-.01-.04-.02-.19-.07-.39-.15-.57-.25-.05-.01-.1-.04-.15-.07-.66-.32-1.27-.74-1.82-1.23-.19-.15-.37-.33-.54-.52a5.27 5.27 0 01-.49-.57.755.755 0 01-.11-.14.304.304 0 01-.05-.07c-.01-.02-.03-.03-.04-.05-.05.22-.07.43-.1.65v.02c.14.16.27.31.41.46.21.23.44.44.68.65.17.15.34.29.53.42 0 .01.01.01.02.02.21.15.42.3.65.43.19.12.39.24.6.34a8.752 8.752 0 001.54.61c.07.02.15.04.23.06.13.04.27.07.41.1.11.03.23.05.35.07.16.03.33.05.49.06.1.02.19.03.29.03a7.068 7.068 0 001.39.01h.05c.04 0 .07-.01.11-.01l.51-.04-.37-.36zm-7.67-4.16h.01-.01zM142.11 105.15c-.44-.54-.82-1.12-1.13-1.73l.43-.21c.29.58.65 1.13 1.07 1.63l-.37.31zM140.91 105.55c-.52-.56-.96-1.17-1.32-1.82l.42-.23c.34.61.76 1.19 1.25 1.72l-.35.33zM144.291 103.78c-.31-.55-.55-1.13-.73-1.72l.46-.14c.17.56.4 1.11.69 1.62l-.42.24zM143.219 104.56a8.21 8.21 0 01-.93-1.69l.44-.18c.23.56.53 1.09.88 1.6l-.39.27zM147.62 99.2v.01c-.05.21-.11.41-.18.61-.26.75-.61 1.47-1.06 2.14l-.4-.27c.57-.84.98-1.77 1.21-2.75l.24.06h.04l.03.01.01.01c.04.07.07.12.11.18z" fill="#8C501C"/><path d="M145.49 103.08l-.14-.37c-.24-.6-.4-1.23-.49-1.87l-.02-.11.07-.08c.32-.35.61-.74.86-1.14l.41.26c-.25.39-.53.77-.83 1.12.07.43.17.85.3 1.26l.33-.45.4.27c-.19.28-.4.56-.63.82l-.26.29zM146.18 99.76l-.41-.26c.15-.24.29-.49.42-.74l.43.21c-.14.28-.28.54-.44.79zM146.591 97.79c-.03.13-.08.25-.13.37l.45.18c.01-.04.03-.08.04-.12-.1-.13-.2-.25-.3-.37h-.01l-.05-.06z" fill="#8C501C"/><path d="M146.619 98.98l-.43-.21c.1-.2.19-.4.27-.6l.44.18c-.08.21-.18.42-.28.63zM138.5 103.58c-.02-.04-.04-.08-.07-.12-.26-.48-.46-.98-.62-1.5l-.05-.15-.15-.02c-.12-.01-.24-.03-.36-.05-.02 0-.03-.01-.05-.01-.13-.02-.26-.04-.38-.07a8.54 8.54 0 01-1.83-.63c-.16-.08-.32-.16-.48-.25-.14-.07-.28-.15-.41-.24-.32-.2-.63-.43-.93-.68-.1-.08-.19-.16-.28-.25-.08.15-.15.31-.21.46.2.18.41.35.63.51a10.553 10.553 0 00.96.62c.17.09.34.18.51.26.35.17.7.31 1.07.43.18.06.37.12.56.16.32.09.65.15.99.2.13.4.29.8.48 1.18-.01 0-.03 0-.04-.01-.19-.01-.37-.03-.56-.07-.14-.02-.27-.04-.41-.07-.1-.02-.21-.05-.31-.07-.16-.04-.32-.09-.47-.14-.2-.06-.39-.13-.57-.2-.15-.05-.29-.12-.43-.19-.11-.05-.23-.1-.34-.16-.06-.03-.13-.06-.19-.1-.13-.07-.25-.14-.37-.22-.21-.12-.42-.26-.62-.42a5.98 5.98 0 01-.49-.39 3.88 3.88 0 01-.42-.39c-.09-.08-.17-.16-.24-.25-.06.18-.11.36-.16.54l.01.01c.16.16.32.31.49.45.17.15.34.29.52.42.17.13.34.24.52.36a9.913 9.913 0 001.21.65c.24.11.5.21.75.29.14.05.28.1.43.14l.12.03c.2.05.41.1.61.14.22.05.44.08.67.11.18.02.37.03.56.04.04.01.09.01.13.01l.43.01-.21-.37zM140.98 103.42c-.24-.48-.44-.99-.58-1.5l.46-.13c.13.48.32.96.54 1.42l-.42.21zM139.59 103.74c-.28-.51-.51-1.04-.68-1.59l.46-.14c.16.52.38 1.02.64 1.5l-.42.23zM143.559 102.06c-.13-.43-.22-.87-.28-1.31l.48-.06c.05.42.14.83.26 1.23l-.46.14zM142.29 102.87a8.38 8.38 0 01-.45-1.45l.47-.1c.1.46.24.92.42 1.37l-.44.18zM144.919 101.35l-.07-.51a6.82 6.82 0 01-.07-.79l.48-.02c0 .06.01.13.01.19.18-.23.35-.47.5-.71l.41.26a8.9 8.9 0 01-.91 1.21l-.35.37z" fill="#8C501C"/><path d="M144.779 100.05v-.08l.48-.02v.08l-.48.02z" fill="#8C501C"/><path d="M144.779 100.05v-.08l.48-.02v.08l-.48.02zM143.28 100.75l.24-.03-.24.03-.01-.14.47-.07.02.15-.24.03-.24.03zM146.951 98.22c-.01.04-.02.08-.04.12l-.45-.18c.05-.12.09-.24.14-.36.01.02.03.03.04.05h.01c.1.12.2.24.3.37z" fill="#8C501C"/><path d="M144.78 99.97c0-.09-.01-.18-.01-.27 0-.15 0-.3.01-.45v-.09l.06-.06c.37-.41.71-.85 1-1.32l.41.25c-.29.47-.62.92-.99 1.34 0 .11-.01.22-.01.34v.26h-.47zM137.81 101.96c-.12-.4-.21-.81-.27-1.23l-.02-.14-.13-.05c-.13-.05-.25-.1-.37-.15-.46-.2-.9-.44-1.32-.71-.12-.08-.24-.16-.35-.25-.13-.09-.26-.19-.38-.29-.12-.1-.24-.2-.36-.32-.12-.1-.23-.21-.34-.33-.11-.11-.22-.23-.32-.35-.02-.02-.04-.05-.06-.07-.11.13-.2.26-.3.39.18.21.36.4.56.58.12.12.24.23.37.34.63.55 1.33 1 2.1 1.35.15.07.31.14.47.2v.01c.04.28.09.54.16.8-.02 0-.03-.01-.05-.01-.13-.02-.26-.04-.38-.07-.46-.1-.9-.24-1.33-.41-.17-.06-.33-.14-.5-.22-.16-.07-.32-.15-.48-.25-.14-.07-.28-.15-.41-.24-.32-.2-.63-.43-.93-.68-.1-.08-.19-.16-.28-.25-.08.15-.15.31-.21.46.2.18.41.35.63.51a10.553 10.553 0 00.96.62c.17.09.34.18.51.26.35.17.7.31 1.07.43.18.06.37.12.56.16.32.09.65.15.99.2.05.01.1.01.15.02l.36.04-.1-.35zM140.409 101.92c-.05-.18-.1-.37-.13-.56l.08-.02v-.27l.35-.01.04.2c.04.18.08.35.13.52l-.47.14zM138.919 102.15c-.09-.29-.17-.6-.23-.9l.47-.09c.06.29.13.58.21.85l-.45.14zM141.841 101.42c-.02-.07-.03-.15-.04-.22l.47-.09c.01.07.03.14.04.21l-.47.1z" fill="#8C501C"/><path d="M137.54 100.73a7.228 7.228 0 01-.04-1.65c0-.05.01-.09.01-.14l-.12-.08c-.11-.07-.22-.15-.33-.24v-.01c-.01-.01-.02-.01-.03-.01-.01 0-.02-.01-.03-.02-.02-.01-.03-.03-.05-.04-.04-.02-.07-.06-.11-.09 0 0-.01 0-.01-.01-.08-.05-.15-.11-.22-.18-.01 0-.02-.01-.03-.02a5.11 5.11 0 01-.48-.45.304.304 0 01-.08-.08 4.81 4.81 0 01-.42-.48c-.01-.02-.03-.03-.04-.05-.06-.07-.12-.14-.17-.21-.05-.07-.11-.14-.15-.21-.13.09-.25.19-.37.3l.03.06.09.12c.04.06.09.12.14.18.17.22.37.44.57.64.2.22.4.41.62.59.19.16.39.31.59.45.03.04.06.06.1.08a8.7 8.7 0 00-.02.52c0 .23.01.46.03.69-.46-.2-.9-.44-1.32-.71-.12-.08-.24-.16-.35-.25-.13-.09-.26-.19-.38-.29-.12-.1-.24-.21-.36-.32-.12-.1-.23-.21-.34-.33-.11-.11-.22-.23-.32-.35-.02-.02-.04-.05-.06-.07-.11.13-.2.26-.3.39.18.21.36.4.56.58.12.12.24.23.37.34.63.55 1.33 1 2.1 1.35.15.07.31.14.47.2v.01c.04.02.09.03.13.05l.37.14-.05-.4zM140.351 101.56v-.21l-.08.02c-.07-.33-.11-.65-.14-.98l.48-.04c.02.3.07.61.13.92l.06.28-.45.01zM138.691 101.25c-.08-.45-.13-.9-.14-1.35l.48-.01c.01.43.06.86.14 1.27l-.48.09zM141.8 101.2c-.04-.21-.07-.42-.09-.63l-.03-.27.43.01v.22l.08-.01c.02.2.05.4.09.6l-.48.08zM143.27 100.61l-.02-.16.48-.04.01.15-.47.05z" fill="#8C501C"/><path d="M143.27 100.61l-.02-.16.48-.04.01.15-.47.05zM137.649 97.34c-.09-.05-.17-.11-.26-.18a.21.21 0 01-.06-.04c-.06-.03-.12-.08-.17-.12-.06-.03-.12-.08-.17-.12-.14-.11-.28-.22-.41-.34-.15-.12-.3-.26-.43-.4-.14.08-.28.17-.42.26.33.34.68.65 1.06.92.15.12.3.23.46.33-.08.32-.15.63-.19.96v.02l-.03-.03c-.01 0-.02-.01-.03-.02-.02-.01-.03-.03-.05-.04-.04-.02-.07-.06-.11-.09 0 0-.01 0-.01-.01-.08-.05-.15-.11-.22-.18-.01 0-.02-.01-.03-.02a5.11 5.11 0 01-.48-.45.304.304 0 01-.08-.08 6.27 6.27 0 01-.42-.48c-.01-.02-.03-.03-.04-.05-.06-.07-.12-.14-.17-.21-.05-.07-.11-.14-.15-.21-.13.09-.25.19-.37.3h-.01c.01.02.03.04.04.06l.09.12c.04.06.09.12.14.18.17.22.37.44.57.64.2.22.4.41.62.59.19.16.39.31.59.45.03.04.06.06.1.08.03.03.07.05.11.08l.34.23.04-.41c0-.05.01-.09.01-.14.04-.45.12-.9.25-1.33l.04-.18-.15-.09zM140.13 100.39a7.964 7.964 0 01.04-1.74l.48.06c-.04.33-.06.66-.06.99 0 .22.01.43.03.65l-.49.04zM138.551 99.89v-.19c0-.5.05-1 .14-1.5l.47.09c-.09.47-.13.94-.13 1.41v.18l-.48.01zM141.7 100.56c-.03-.29-.05-.58-.05-.86 0-.29.02-.59.05-.88l.48.05c-.03.27-.04.55-.04.83 0 .27.01.54.04.82l-.48.04z" fill="#8C501C"/><path d="M140.13 100.39a7.964 7.964 0 01.04-1.74l.48.06c-.04.33-.06.66-.06.99 0 .22.01.43.03.65l-.49.04zM143.251 100.45c-.02-.25-.04-.5-.04-.75 0-.33.02-.67.06-1l.48.06c-.04.31-.06.63-.06.94 0 .24.01.48.03.71l-.47.04zM141.7 100.56c-.03-.29-.05-.58-.05-.86 0-.29.02-.59.05-.88l.02-.22.37.01v.25l.08.01c-.03.27-.04.55-.04.83 0 .27.01.54.04.82l-.47.04zM144.75 99.92l.04-.67c.02-.33.06-.66.11-.99l.47.08-.03.17c.18-.24.35-.48.5-.73l.41.25c-.3.5-.66.97-1.05 1.4l-.45.49zM138.28 95.26c-.07.11-.14.22-.2.33-.29.5-.52 1.02-.69 1.57v.01a.265.265 0 01-.06-.05c-.06-.03-.12-.08-.17-.12-.06-.03-.12-.08-.17-.12-.14-.11-.28-.22-.41-.34-.15-.12-.3-.26-.43-.4-.14.08-.28.17-.42.26.33.34.68.65 1.06.92.2.15.4.29.61.42l.27.17.09-.3c.17-.62.42-1.22.74-1.79.14-.24.28-.48.45-.7-.23.04-.45.09-.67.14zM140.589 95.01c-.73.99-1.22 2.1-1.43 3.28l-.47-.09c.21-1.13.66-2.22 1.31-3.19.12-.01.24-.01.36-.01.08 0 .15 0 .23.01zM141.52 95.08c.17.02.34.05.5.09-.13.19-.25.38-.37.57-.1.17-.19.34-.26.52-.05.09-.09.17-.13.26-.09.2-.17.4-.24.6 0 .01-.01.03-.01.04-.09.25-.16.49-.22.74v.02c-.06.26-.11.52-.14.79l-.48-.06c.02-.14.04-.29.07-.43.05-.28.12-.56.2-.84.04-.14.08-.28.13-.41.1-.29.22-.57.35-.85.05-.12.11-.23.17-.34.04-.09.09-.18.15-.27.08-.15.17-.29.28-.43z" fill="#8C501C"/><path d="M141.52 95.08c.17.02.34.05.5.09-.13.19-.25.38-.37.57-.09.17-.19.34-.26.52-.05.09-.09.17-.13.26-.09.2-.17.4-.24.6 0 .01-.01.03-.01.04-.08.24-.16.49-.22.74v.02c-.06.26-.11.52-.14.79l-.48-.06c.02-.14.04-.29.07-.43.05-.28.12-.56.2-.84.04-.14.08-.28.13-.41.1-.29.22-.57.35-.85.05-.12.11-.23.17-.34.04-.09.09-.18.15-.27.08-.14.17-.29.26-.43M142.869 95.39c.16.05.31.1.46.16-.01.01-.01.02-.02.04-.27.45-.5.93-.68 1.42-.07.17-.12.34-.17.51-.13.44-.22.89-.27 1.35l-.08-.01-.4-.04.03-.22c.02-.17.05-.34.08-.5.06-.29.13-.57.21-.84.07-.22.15-.44.24-.65.09-.24.19-.47.31-.69.09-.18.18-.36.29-.53z" fill="#8C501C"/><path d="M143.31 95.59c-.27.45-.5.93-.68 1.42-.07.17-.12.34-.17.51-.13.44-.22.89-.27 1.35l-.08-.01v.22h-.43l.03-.26.03-.22h.01c.01-.17.04-.34.07-.5.06-.29.13-.57.21-.84.07-.22.15-.44.24-.65.09-.24.19-.47.31-.69.09-.18.18-.36.29-.53.16.05.31.1.46.16h.01c-.01.01-.02.02-.03.04zM144.139 95.91c.15.07.29.15.42.23-.03.06-.06.11-.08.17-.06.12-.12.24-.17.37-.28.66-.47 1.36-.55 2.08l-.48-.06c.02-.2.06-.4.1-.6.07-.38.17-.75.3-1.11.06-.18.13-.36.21-.54.05-.12.1-.24.16-.36.03-.06.06-.12.08-.18" fill="#8C501C"/><path d="M144.139 95.91c.15.07.29.15.42.23-.03.06-.06.11-.08.17-.06.12-.12.24-.17.37-.28.66-.47 1.36-.55 2.08l-.48-.06c.02-.2.06-.4.1-.6.07-.38.17-.75.3-1.11.06-.18.13-.36.21-.54.05-.12.1-.24.16-.36.03-.06.06-.12.08-.18h.01zM145.358 96.66c.13.1.26.2.39.31-.03.06-.05.12-.06.18a8 8 0 00-.31 1.19l-.48-.08c.09-.49.21-.96.39-1.42.02-.06.05-.12.07-.18z" fill="#8C501C"/><path d="M145.76 96.98c-.03.05-.05.11-.07.17a8 8 0 00-.31 1.19l-.48-.08c.09-.49.21-.96.39-1.42.02-.06.05-.12.07-.18.13.1.26.2.39.31M146.47 97.65v.01c-.01.01-.02.03-.03.04v.01c-.06.11-.12.21-.18.31l-.41-.24c.09-.15.18-.31.26-.47 0-.01.01-.01.01-.01l.31.31c.01.01.02.03.04.04z" fill="#8C501C"/><path d="M146.298 93.1c-.3 0-.6.3-.7.6l-2.7 7 .1.1s0 .1.1.1l3.3-7v-.1c.3-.3.2-.7-.1-.7z" fill="#CFD1D2"/><path d="M147.89 94.098c.154-.355-.461-.962-1.373-1.357-.913-.395-1.777-.428-1.93-.073-.154.355.461.963 1.373 1.357.913.395 1.777.428 1.93.073z" fill="#CFD1D2"/><path d="M188.999 62.2c1.823 0 3.3-1.209 3.3-2.7s-1.477-2.7-3.3-2.7c-1.822 0-3.3 1.209-3.3 2.7s1.478 2.7 3.3 2.7z" fill="#F4FDFF"/><path d="M195.351 63.698c.663-1.816-.313-3.84-2.18-4.523-1.868-.682-3.92.236-4.583 2.052-.663 1.816.313 3.84 2.18 4.523 1.868.682 3.919-.236 4.583-2.052z" fill="#F4FDFF"/><path d="M187.7 66.2c2.32 0 4.2-1.657 4.2-3.7s-1.88-3.7-4.2-3.7c-2.32 0-4.2 1.657-4.2 3.7s1.88 3.7 4.2 3.7z" fill="#F4FDFF"/><path d="M191.2 61.9c-.2.4-.7.7-1.1.5-.3-.1-.6-.4-.6-.7v-.3c.2-.4.7-.7 1.1-.5.6.1.8.6.6 1zM186.672 64.014c.17-.467-.112-.999-.631-1.188-.518-.19-1.077.035-1.248.502-.17.467.112.999.631 1.188.518.19 1.077-.035 1.248-.502z" fill="#CECECE"/><path d="M60.2 161.9l2.2 2.7-3 .7.8-3.4z" fill="#7C4C2A"/><path d="M62.5 164.8c1.7 2.5.4 6.2-2.8 8.4-3.2 2.2-7.1 1.9-8.8-.5-1.7-2.5-.4-6.2 2.8-8.4 3.2-2.2 7.1-2 8.8.5z" fill="#7C4C2A"/><path d="M49.1 170.4l1.8 2.2.4-3.1-2.2.9z" fill="#7C4C2A"/><path d="M60.4 162.2c1.7 2.5.4 6.2-2.8 8.4-3.2 2.2-7.1 1.9-8.8-.5-1.7-2.5-.4-6.2 2.8-8.4 3.2-2.2 7.2-1.9 8.8.5z" fill="#FFBD8A"/><path d="M55.4 167.3c.6.9.4 2.2-.5 2.8-.9.6-2.2.4-2.8-.5M58.8 165c.6.9.4 2.2-.5 2.8-.9.6-2.2.4-2.8-.5M54.1 165.4l1.3 1.9" stroke="#584539" stroke-width=".769" stroke-miterlimit="10" stroke-linecap="round"/><path d="M54.876 166.466c1.417-.961 2.089-2.444 1.5-3.313-.59-.868-2.215-.793-3.632.167-1.417.961-2.089 2.444-1.5 3.313.589.868 2.215.793 3.632-.167z" fill="#7C4C2A"/><path d="M142.9 78.7c-.5-.7-1.5-.8-2.2-.3L121 91.7c-.1.1 0 .3.1.2l21.2-10.8c.1 0 .1-.1.2-.1.8-.5 1-1.5.4-2.3zm-1 1.4l-6.2 3.1 5.7-3.8c.2-.1.5-.1.6.1.1.2.1.5-.1.6z" fill="#332F2E"/></g><defs><clipPath id="clip0"><path fill="#fff" transform="translate(0 40)" d="M0 0h250v160H0z"/></clipPath></defs></svg>