<svg width="250" height="200" viewBox="0 0 250 200" fill="none" xmlns="http://www.w3.org/2000/svg">
<g clip-path="url(#clip0)">
<path d="M110.5 72.8C108.2 74.2 105.9 75.6 103.6 77C102.5 77.7 101.3 78.8001 101.8 79.9001C102.2 80.9001 103.5 81 104.6 81C110.7 80.8 116.8 80.6001 123 80.4001C124.9 80.3001 127.3 80.6001 128 82.4001C128.4 83.4001 128 84.5 127.4 85.3C126.8 86.1 125.9 86.7 125 87.3C122.3 89 119.7 90.8 117 92.5C115.6 93.4 114.2 94.3 113.2 95.5C112.1 96.7 111.4 98.4 111.6 100C111.8 101.6 113.1 103.1 114.8 103.2C115.9 103.3 116.9 102.7 117.9 102.5C118.9 102.3 120.2 102.4 120.8 103.3C121.3 104.1 120.9 105.2 120.2 105.8C119.5 106.4 118.6 106.7 117.7 107C116.1 107.5 114.2 107.9 113 106.7C111.8 105.5 112.3 103.5 113.2 102.1C114.6 100 117.1 98.6001 119.6 98.8001C122.1 99.0001 124.4 101.2 124.4 103.7C124.4 106.2 121.6 108.4 119.3 107.6" stroke="#FFBD8A" stroke-miterlimit="10"/>
<path d="M121.601 92.3C121.601 92.3 123.301 85.5 119.901 83.4C119.101 82.9 114.701 86.1 114.701 86.1L121.601 92.3Z" fill="#7C4C2A"/>
<path d="M86.4007 107.4C86.4007 107.4 83.3007 104.9 84.5007 98.9C85.7007 93 89.0007 100.6 89.0007 100.6L86.4007 107.4Z" fill="#7C4C2A"/>
<path d="M114.201 84.8001C117.601 84.3001 120.901 86.5001 121.601 90.0001C122.301 93.5001 120.001 96.9001 116.401 97.6001C102.301 100.3 96.4013 107.1 96.3013 107.2C94.1013 110 90.0013 110.5 87.2013 108.3C84.4013 106.1 83.9013 102 86.1013 99.2001C87.0013 98.0001 95.0013 88.4001 114.001 84.8001C114.101 84.8001 114.101 84.8001 114.201 84.8001Z" fill="#7C4C2A"/>
<path d="M90.9004 99.5001C90.9004 99.5001 97.7004 90.8001 114.9 87.6001" stroke="#B66A33" stroke-width="12.9729" stroke-miterlimit="10" stroke-linecap="round"/>
<path d="M77.3645 78.7124L75.6109 73.0216C75.2419 71.8754 75.8578 70.7261 77.004 70.3571L86.6855 68.7234C87.8317 68.3544 88.9809 68.9702 89.3499 70.1165L90.2523 73.0278C90.6213 74.174 90.0055 75.3232 88.8592 75.6922L80.029 80.1054C78.8828 80.4744 77.7335 79.8586 77.3645 78.7124Z" fill="#F8C329"/>
<path d="M79.9869 76.4807L79.0737 73.346C78.9093 72.7272 79.1917 72.0866 79.8509 71.8308L85.1383 70.9923C85.7572 70.8279 86.3977 71.1103 86.6535 71.7695L87.1357 73.4027C87.3001 74.0216 87.0177 74.6621 86.3585 74.918L81.5936 77.2982C80.8832 77.4222 80.1512 77.0996 79.9869 76.4807Z" fill="#6BB4FD"/>
<path d="M89.8788 71.6298C89.5326 70.5229 89.081 69.679 88.8702 69.745C88.6594 69.8109 88.7691 70.7617 89.1153 71.8686C89.4615 72.9755 89.9131 73.8193 90.1239 73.7534C90.3348 73.6875 90.225 72.7367 89.8788 71.6298Z" fill="#6BB4FD"/>
<path d="M92.675 72.9369L91.4512 69.0239L88.9698 69.8L90.1936 73.713L92.675 72.9369Z" fill="#6BB4FD"/>
<path d="M92.4042 70.8522C92.058 69.7453 91.6064 68.9015 91.3956 68.9674C91.1848 69.0333 91.2945 69.9841 91.6407 71.091C91.9869 72.1979 92.4385 73.0418 92.6493 72.9758C92.8602 72.9099 92.7504 71.9591 92.4042 70.8522Z" fill="#2C84DB"/>
<path d="M94.3847 69.6035L91.7046 69.7335L92.0736 70.8798L92.4426 72.026L94.7025 70.6179C95.1384 70.3729 94.8825 69.7137 94.3847 69.6035Z" fill="white"/>
<path d="M92.2306 70.9336C92.0327 70.3011 91.7869 69.8151 91.6815 69.848C91.5761 69.881 91.651 70.4205 91.8488 71.053C92.0467 71.6855 92.2925 72.1715 92.3979 72.1385C92.5033 72.1056 92.4284 71.5661 92.2306 70.9336Z" fill="white"/>
<path d="M167.4 72.5L156.3 79.4C155 80.2 155.5 82.1 157 82.3L159.3 82.5C160.8 82.7 161.2 84.7 159.9 85.4L142 95" stroke="#FFBD8A" stroke-width="0.75" stroke-miterlimit="10" stroke-linecap="round"/>
<path d="M95.3001 54.4001C95.3001 54.4001 92.2001 57.4001 91.7001 58.3001C91.2001 59.2001 97.5001 61.4001 97.5001 61.4001L95.3001 54.4001Z" fill="#7C4C2A"/>
<path d="M130.401 70.8C130.401 70.8 130.701 74.5001 125.901 78.2001C121.101 81.9001 124.601 73 124.601 73L130.401 70.8Z" fill="#7C4C2A"/>
<path d="M95.4016 63.7001C92.9016 61.3001 92.7016 57.3001 95.0016 54.7001C97.4016 52.0001 101.502 51.8001 104.202 54.2001C114.902 63.7001 123.902 64.3001 124.002 64.3001C127.602 64.3001 130.502 67.3001 130.402 70.9001C130.402 74.5001 127.402 77.4001 123.802 77.3001C122.402 77.3001 109.902 76.8001 95.5016 63.9001C95.5016 63.8001 95.4016 63.7001 95.4016 63.7001Z" fill="#7C4C2A"/>
<path d="M121.301 73.7001C121.301 73.7001 110.201 73.6001 97.3008 61.9001" stroke="#B66A33" stroke-width="12.9729" stroke-miterlimit="10" stroke-linecap="round"/>
<path d="M92.4007 57.3001C89.8007 60.0001 89.9007 64.2001 92.5007 66.8001C95.2007 69.4001 99.4007 69.3001 102.001 66.7001C104.601 64.0001 104.501 59.8001 101.901 57.2001C99.3007 54.5001 95.0007 54.6001 92.4007 57.3001Z" fill="#FFBD8A"/>
<path d="M94.001 58.8C92.301 60.6 92.301 63.4 94.101 65.2C95.901 66.9 98.701 66.9 100.501 65.1C102.201 63.3 102.201 60.5 100.401 58.7C98.6011 57 95.801 57 94.001 58.8Z" fill="#8C501C"/>
<path d="M139.599 109.6L128.699 113.2C128.299 113.3 127.799 113.1 127.699 112.7C127.599 112.3 127.799 111.8 128.199 111.7L139.099 108.1C139.499 108 139.999 108.2 140.099 108.6C140.299 109 140.099 109.5 139.599 109.6Z" fill="#A3A7AB"/>
<path d="M140 110.6L129.1 114.2C128.7 114.3 128.2 114.1 128.1 113.7C128 113.3 128.2 112.8 128.6 112.7L139.5 109.1C139.9 109 140.4 109.2 140.5 109.6C140.6 110 140.4 110.5 140 110.6Z" fill="#A3A7AB"/>
<path d="M146.899 103C147.499 104.8 146.799 106.7 145.299 107.2L142.699 108.1" stroke="#206F3B" stroke-width="1.8363" stroke-miterlimit="10"/>
<path d="M145.2 106.5L142.6 107.4L141.7 104.8C141.2 103.3 142 101.8 143.5 101.3C145 100.8 146.5 101.6 147 103.1C147.4 104.4 146.6 106 145.2 106.5Z" stroke="#206F3B" stroke-width="1.8363" stroke-miterlimit="10"/>
<path d="M149.3 110.1C148.7 108.3 147 107.2 145.6 107.7L143 108.6" stroke="#206F3B" stroke-width="1.8363" stroke-miterlimit="10"/>
<path d="M145.799 108.3L143.199 109.2L144.099 111.8C144.599 113.3 146.099 114.1 147.599 113.6C149.099 113.1 149.899 111.6 149.399 110.1C148.799 108.7 147.199 107.9 145.799 108.3Z" stroke="#206F3B" stroke-width="1.8363" stroke-miterlimit="10"/>
<path d="M137.799 109.9L144.899 107.6L145.499 109.4L140.199 111.1C139.199 111.5 138.099 110.9 137.799 109.9Z" fill="#206F3B"/>
<path d="M137.799 109.9L144.899 107.6L144.299 105.8L138.999 107.5C137.999 107.9 137.499 108.9 137.799 109.9Z" fill="#206F3B"/>
<path d="M139.299 109.9C139.575 109.9 139.799 109.676 139.799 109.4C139.799 109.124 139.575 108.9 139.299 108.9C139.023 108.9 138.799 109.124 138.799 109.4C138.799 109.676 139.023 109.9 139.299 109.9Z" fill="#A3A7AB"/>
<path d="M139.4 108.9L128.5 112.5C128.1 112.6 127.6 112.4 127.5 112C127.4 111.6 127.6 111.1 128 111L138.9 107.4C139.3 107.3 139.8 107.5 139.9 107.9C140.1 108.3 139.8 108.8 139.4 108.9Z" fill="#D8DDE2"/>
<path d="M139.701 109.9L128.801 113.5C128.401 113.6 127.901 113.4 127.801 113C127.701 112.6 127.901 112.1 128.301 112L139.201 108.4C139.601 108.3 140.101 108.5 140.201 108.9C140.401 109.3 140.201 109.8 139.701 109.9Z" fill="#D8DDE2"/>
<path d="M146.7 102.2C147.3 104 146.6 105.9 145.1 106.4L142.5 107.3" stroke="#30A658" stroke-width="1.8363" stroke-miterlimit="10"/>
<path d="M144.901 105.8L142.301 106.7L141.401 104.1C140.901 102.6 141.701 101.1 143.201 100.6C144.701 100.1 146.201 100.9 146.701 102.4C147.201 103.7 146.401 105.3 144.901 105.8Z" stroke="#30A658" stroke-width="1.8363" stroke-miterlimit="10"/>
<path d="M149.101 109.4C148.501 107.6 146.801 106.5 145.401 107L142.801 107.9" stroke="#30A658" stroke-width="1.8363" stroke-miterlimit="10"/>
<path d="M145.5 107.6L142.9 108.5L143.8 111.1C144.3 112.6 145.8 113.4 147.3 112.9C148.8 112.4 149.6 110.9 149.1 109.4C148.6 107.9 147 107.2 145.5 107.6Z" stroke="#30A658" stroke-width="1.8363" stroke-miterlimit="10"/>
<path d="M137.6 109.2L144.7 106.9L145.3 108.7L140 110.4C139 110.7 137.9 110.2 137.6 109.2Z" fill="#30A658"/>
<path d="M137.6 109.2L144.7 106.9L144.1 105.1L138.8 106.8C137.8 107.2 137.2 108.2 137.6 109.2Z" fill="#30A658"/>
<path d="M139 109.2C139.276 109.2 139.5 108.976 139.5 108.7C139.5 108.424 139.276 108.2 139 108.2C138.724 108.2 138.5 108.424 138.5 108.7C138.5 108.976 138.724 109.2 139 109.2Z" fill="#D8DDE2"/>
<path d="M176.4 72.2C176.4 72.2 182.6 73.5 183.4 74C184.3 74.5 180.1 79.5999 180.1 79.5999L176.4 72.2Z" fill="#7C4C2A"/>
<path d="M155.801 105.4C155.801 105.4 157.601 107.9 163.601 108.6C169.601 109.3 162.801 103.6 162.801 103.6L155.801 105.4Z" fill="#7C4C2A"/>
<path d="M181.401 80.2C182.301 76.8 180.401 73.3 177.001 72.3C173.601 71.3 169.901 73.2 168.901 76.6C164.701 90.3 157.301 95.4 157.201 95.5C154.201 97.4 153.201 101.4 155.101 104.4C157.001 107.4 161.001 108.4 164.001 106.5C165.201 105.8 175.601 98.9 181.301 80.4C181.301 80.4 181.301 80.3 181.401 80.2Z" fill="#7C4C2A"/>
<path d="M166 102.5C166 102.5 175.4 96.6998 180.5 79.9998" stroke="#B66A33" stroke-width="12.9729" stroke-miterlimit="10" stroke-linecap="round"/>
<path d="M182.201 73.4999C185.801 74.3999 187.901 78.0999 187.001 81.6999C186.101 85.2999 182.401 87.3999 178.801 86.4999C175.201 85.5999 173.101 81.8999 174.001 78.2999C175.001 74.6999 178.601 72.5999 182.201 73.4999Z" fill="#FFBD8A"/>
<path d="M181.699 75.6998C184.099 76.2998 185.499 78.7998 184.899 81.1998C184.299 83.5998 181.799 84.9998 179.399 84.3998C176.999 83.7998 175.599 81.2998 176.199 78.8998C176.799 76.4998 179.299 74.9998 181.699 75.6998Z" fill="#8C501C"/>
<path d="M157.2 60.4C157.4 59.3 157.5 57.9 156.9 57C155.4 54.5 153.3 55.3 152.9 52.7" stroke="#FFBD8A" stroke-miterlimit="10"/>
<path d="M158.701 57.7999C159.001 57.1999 158.701 56.3999 158.401 55.8999C158.001 55.2999 157.501 54.7999 157.301 54.0999C157.101 53.2999 157.301 52.4999 157.801 51.8999" stroke="#FFBD8A" stroke-miterlimit="10"/>
<path d="M162.4 51.5C161.1 52.2 160.3 53.6 160.2 55C160.1 56.4 160.6 57.9 161.6 59" stroke="#FFBD8A" stroke-miterlimit="10"/>
<path d="M157 59.0999C155.7 56.9999 152.3 57.8999 151.4 58.9999" stroke="#FFBD8A" stroke-miterlimit="10"/>
<path d="M152.9 60.1999C152.9 60.1999 158.2 56.6999 159.1 56.4999C160.1 56.1999 160.7 62.7999 160.7 62.7999L152.9 60.1999Z" fill="#7C4C2A"/>
<path d="M162 98.2C162 98.2 165 98.7 169.8 94.9C174.5 91.1 165.7 92 165.7 92L162 98.2Z" fill="#7C4C2A"/>
<path d="M162.101 62.3001C160.401 59.3001 156.501 58.2001 153.401 59.8001C150.201 61.5001 149.101 65.4001 150.801 68.6001C157.601 81.3001 156.001 90.1001 156.001 90.2001C155.201 93.7001 157.401 97.2001 160.901 98.0001C164.401 98.8001 167.901 96.6001 168.701 93.1001C169.001 91.8001 171.501 79.5001 162.301 62.4001C162.201 62.4001 162.201 62.4001 162.101 62.3001Z" fill="#7C4C2A"/>
<path d="M167.2 88.9001C167.2 88.9001 169.7 78.1 161.4 62.8" stroke="#B66A33" stroke-width="12.9729" stroke-miterlimit="10" stroke-linecap="round"/>
<path d="M65.7 100.7C64.5 100.7 63.2 100.9 62.4 101.7C60.3 103.7 61.4 105.6 59 106.4" stroke="#FFBD8A" stroke-miterlimit="10"/>
<path d="M62.9008 99.7999C62.2008 99.5999 61.6008 99.9999 61.1008 100.5C60.6008 101 60.2008 101.6 59.6008 101.9C58.9008 102.3 58.0008 102.2 57.3008 101.8" stroke="#FFBD8A" stroke-miterlimit="10"/>
<path d="M56 97.4C56.9 98.5 58.5 99 59.9 98.8C61.3 98.6 62.6 97.8 63.5 96.7" stroke="#FFBD8A" stroke-miterlimit="10"/>
<path d="M64.5 101.1C62.8 102.8 64.3 105.9 65.5 106.6" stroke="#FFBD8A" stroke-miterlimit="10"/>
<path d="M66.4005 105C66.4005 105 62.0005 100.5 61.5005 99.6999C61.0005 98.8999 67.4005 96.8999 67.4005 96.8999L66.4005 105Z" fill="#7C4C2A"/>
<path d="M61.2004 100C62.4706 100 63.5004 99.1493 63.5004 98.1C63.5004 97.0506 62.4706 96.2 61.2004 96.2C59.9301 96.2 58.9004 97.0506 58.9004 98.1C58.9004 99.1493 59.9301 100 61.2004 100Z" fill="white"/>
<path d="M65.0417 100.838C65.4019 99.8524 64.8948 98.7615 63.9091 98.4013C62.9235 98.0412 61.8325 98.5483 61.4724 99.5339C61.1123 100.52 61.6193 101.611 62.605 101.971C63.5906 102.331 64.6816 101.824 65.0417 100.838Z" fill="white"/>
<path d="M60.2008 102.8C61.8024 102.8 63.1008 101.636 63.1008 100.2C63.1008 98.7639 61.8024 97.5999 60.2008 97.5999C58.5992 97.5999 57.3008 98.7639 57.3008 100.2C57.3008 101.636 58.5992 102.8 60.2008 102.8Z" fill="white"/>
<path d="M63.1008 99.9001C62.9008 100.4 62.4008 100.6 61.9008 100.5C61.5008 100.4 61.3008 100 61.3008 99.7C61.3008 99.6 61.3008 99.4001 61.4008 99.3001C61.6008 98.8001 62.1008 98.6 62.6008 98.7C63.0008 98.8 63.3008 99.4001 63.1008 99.9001Z" fill="#CECECE"/>
<path d="M59.5826 101.188C59.7153 100.825 59.5285 100.423 59.1653 100.291C58.8022 100.158 58.4003 100.345 58.2676 100.708C58.1349 101.071 58.3217 101.473 58.6849 101.606C59.048 101.738 59.4499 101.552 59.5826 101.188Z" fill="#CECECE"/>
<path d="M101.801 88.4999C101.801 88.4999 101.701 85.3999 97.0009 81.5999C92.3009 77.6999 94.9009 86.1999 94.9009 86.1999L101.801 88.4999Z" fill="#7C4C2A"/>
<path d="M66.5992 95.5C63.9992 97.8 63.6992 101.8 65.8992 104.5C68.1992 107.3 72.2992 107.6 74.9992 105.4C86.0992 96.2 95.0992 96 95.1992 96C98.7992 96.1 101.799 93.3 101.899 89.7C101.999 86.1 99.1992 83.1 95.5992 83C94.1992 83 81.6992 83 66.7992 95.3C66.6992 95.4 66.6992 95.5 66.5992 95.5Z" fill="#7C4C2A"/>
<path d="M91.6992 85.2999C91.6992 85.2999 80.6992 84.9999 67.1992 96.0999" stroke="#B66A33" stroke-width="12.9729" stroke-miterlimit="10" stroke-linecap="round"/>
<path d="M128.7 104.8C128.7 104.8 123.7 101 123.1 100.1C122.5 99.3 128.6 96.5 128.6 96.5L128.7 104.8Z" fill="#7C4C2A"/>
<path d="M161.701 83.7999C161.701 83.7999 161.201 80.7999 156.101 77.4999C151.001 74.2999 154.601 82.2999 154.601 82.2999L161.701 83.7999Z" fill="#7C4C2A"/>
<path d="M127.7 95.3999C125.4 97.9999 125.6 102 128.2 104.4C130.8 106.8 134.9 106.7 137.4 104C147.2 93.4999 156.1 92.0999 156.2 92.0999C159.8 91.6999 162.3 88.4999 162 84.9999C161.6 81.3999 158.4 78.8999 154.9 79.1999C153.5 79.2999 141.1 80.9999 128 95.1999C127.8 95.2999 127.8 95.3999 127.7 95.3999Z" fill="#7C4C2A"/>
<path d="M151.3 82C151.3 82 140.3 83.2 128.5 96" stroke="#B66A33" stroke-width="12.9729" stroke-miterlimit="10" stroke-linecap="round"/>
<path d="M124.1 101.1C121.3 98.7 120.9 94.4 123.3 91.6C125.7 88.8 130 88.4 132.8 90.8C135.6 93.2 136 97.5 133.5 100.3C131.1 103.2 126.9 103.5 124.1 101.1Z" fill="#FFBD8A"/>
<path d="M125.501 99.4C123.601 97.8 123.401 95 125.001 93.1C126.601 91.2 129.501 91 131.301 92.6C133.201 94.2 133.401 97.1 131.801 98.9C130.201 100.7 127.401 101 125.501 99.4Z" fill="#8C501C"/>
<path d="M128.7 104.8C128.7 104.8 123.7 101 123.1 100.1C122.5 99.3 128.6 96.5 128.6 96.5L128.7 104.8Z" fill="#7C4C2A"/>
<path d="M161.701 83.7999C161.701 83.7999 161.201 80.7999 156.101 77.4999C151.001 74.2999 154.601 82.2999 154.601 82.2999L161.701 83.7999Z" fill="#7C4C2A"/>
<path d="M127.7 95.3999C125.4 97.9999 125.6 102 128.2 104.4C130.8 106.8 134.9 106.7 137.4 104C147.2 93.4999 156.1 92.0999 156.2 92.0999C159.8 91.6999 162.3 88.4999 162 84.9999C161.6 81.3999 158.4 78.8999 154.9 79.1999C153.5 79.2999 141.1 80.9999 128 95.1999C127.8 95.2999 127.8 95.3999 127.7 95.3999Z" fill="#7C4C2A"/>
<path d="M151.3 82C151.3 82 140.3 83.2 128.5 96" stroke="#B66A33" stroke-width="12.9729" stroke-miterlimit="10" stroke-linecap="round"/>
<path d="M124.1 101.1C121.3 98.7 120.9 94.4 123.3 91.6C125.7 88.8 130 88.4 132.8 90.8C135.6 93.2 136 97.5 133.5 100.3C131.1 103.2 126.9 103.5 124.1 101.1Z" fill="#FFBD8A"/>
<path d="M125.501 99.4C123.601 97.8 123.401 95 125.001 93.1C126.601 91.2 129.501 91 131.301 92.6C133.201 94.2 133.401 97.1 131.801 98.9C130.201 100.7 127.401 101 125.501 99.4Z" fill="#8C501C"/>
<path d="M172.1 57.9999C172.1 57.9999 176.1 53.0999 176.9 52.5999C177.7 52.0999 180.3 58.0999 180.3 58.0999L172.1 57.9999Z" fill="#7C4C2A"/>
<path d="M192.1 91.4999C192.1 91.4999 195.2 91.0999 198.5 85.9999C201.8 80.8999 193.7 84.3999 193.7 84.3999L192.1 91.4999Z" fill="#7C4C2A"/>
<path d="M181.499 57.3C178.899 54.9 174.899 55 172.499 57.5C169.999 60.1 169.999 64.2 172.599 66.7C182.899 76.8 183.999 85.7 183.999 85.8C184.299 89.4 187.399 92 190.999 91.8C194.599 91.5 197.199 88.4 196.999 84.8C196.899 83.4 195.599 71 181.799 57.4C181.599 57.4 181.599 57.3 181.499 57.3Z" fill="#7C4C2A"/>
<path d="M194.198 81.2C194.198 81.2 193.298 70.2 180.898 58" stroke="#B66A33" stroke-width="12.9729" stroke-miterlimit="10" stroke-linecap="round"/>
<path d="M175.899 53.4C178.399 50.6 182.599 50.4 185.399 52.9C188.199 55.4 188.399 59.6 185.899 62.4C183.399 65.2 179.199 65.4 176.399 62.9C173.699 60.4 173.399 56.2 175.899 53.4Z" fill="#FFBD8A"/>
<path d="M123.199 105.6C122.699 104.9 121.699 104.8 120.999 105.2L100.799 117.6C100.699 117.7 100.799 117.9 100.899 117.8L122.599 108C122.699 108 122.699 107.9 122.799 107.9C123.599 107.4 123.799 106.4 123.199 105.6ZM122.199 106.9L115.899 109.8L121.799 106.2C121.999 106.1 122.299 106.1 122.399 106.4C122.399 106.6 122.399 106.8 122.199 106.9Z" fill="#74797E"/>
<path d="M57.72 138.36C57.72 142.97 53.97 146.71 49.36 146.71C44.74 146.71 41 142.97 41 138.36C41 133.74 44.74 130 49.36 130C52.22 130 54.76 131.44 56.26 133.65C56.32 133.72 56.37 133.8 56.42 133.88V133.89C56.43 133.89 56.43 133.9 56.43 133.9C56.44 133.91 56.44 133.92 56.45 133.93C56.45 133.93 56.45 133.94 56.46 133.94C56.46 133.96 56.47 133.97 56.49 133.98V133.99C56.49 134 56.5 134.01 56.5 134.01L56.51 134.02C56.55 134.09 56.58 134.14 56.62 134.2V134.21C56.64 134.25 56.66 134.28 56.67 134.31V134.32C56.72 134.4 56.76 134.48 56.8 134.56C56.84 134.64 56.88 134.72 56.92 134.8C57.13 135.23 57.29 135.68 57.42 136.14C57.49 136.39 57.55 136.65 57.59 136.91C57.6 136.97 57.61 137.03 57.62 137.09C57.65 137.26 57.67 137.44 57.69 137.61C57.69 137.64 57.7 137.67 57.7 137.7C57.7 137.71 57.7 137.71 57.7 137.72V137.74C57.71 137.95 57.72 138.15 57.72 138.36Z" fill="#FFBD8A"/>
<path d="M56.0094 143.33C55.9994 143.33 55.9994 143.33 55.9994 143.33L55.9494 143.32H55.9394C55.4594 143.32 54.9894 143.28 54.5194 143.2C54.4794 143.2 54.4394 143.2 54.3994 143.19C54.3594 143.18 54.3194 143.18 54.2794 143.17C54.2394 143.16 54.1994 143.16 54.1594 143.15L54.0794 143.23C53.9594 143.34 53.8394 143.44 53.7194 143.55H53.7094C53.6594 143.6 53.6094 143.64 53.5494 143.68C53.3994 143.81 53.2394 143.93 53.0694 144.05C53.0194 144.09 52.9794 144.12 52.9294 144.15C52.7094 144.3 52.4794 144.45 52.2494 144.58C52.1994 144.62 52.1494 144.64 52.0994 144.67C51.9194 144.77 51.7394 144.87 51.5494 144.96C51.4494 145.01 51.3494 145.06 51.2394 145.1C51.0794 145.18 50.9094 145.24 50.7494 145.3C50.6194 145.36 50.4894 145.4 50.3694 145.44C50.1994 145.5 50.0294 145.56 49.8594 145.6C49.7094 145.65 49.5494 145.69 49.3994 145.72C48.6094 145.91 47.7994 146.01 46.9694 146.01C46.7294 146.01 46.4894 146 46.2594 145.99C46.1294 145.98 45.9894 145.97 45.8594 145.95C46.3594 146.17 46.8694 146.35 47.4094 146.48H47.4194C47.6494 146.47 47.8794 146.46 48.1094 146.43C48.2394 146.42 48.3694 146.4 48.5094 146.38C48.6694 146.36 48.8194 146.33 48.9794 146.3C49.1194 146.28 49.2594 146.25 49.3894 146.22C49.4294 146.21 49.4694 146.2 49.5094 146.19C49.8394 146.11 50.1594 146.02 50.4794 145.91C50.7794 145.81 51.0794 145.7 51.3694 145.57C51.5194 145.5 51.6694 145.43 51.8194 145.36C51.9894 145.28 52.1594 145.18 52.3294 145.09C52.4794 145.01 52.6294 144.92 52.7694 144.83C53.3094 144.49 53.8294 144.1 54.3094 143.66C54.7094 143.73 55.1094 143.77 55.5194 143.79C54.2894 145.07 52.7694 146 51.0994 146.53C52.9194 146.14 54.5194 145.17 55.6894 143.81" fill="#8C501C"/>
<path d="M44.9299 145.44L44.9198 145.43L44.9299 145.44ZM44.9299 145.44C44.9399 145.44 44.9398 145.44 44.9398 145.44C44.9898 145.45 45.0299 145.45 45.0699 145.45C45.3699 145.48 45.6798 145.49 45.9798 145.49C46.3698 145.49 46.7499 145.47 47.1299 145.42C47.3599 145.41 47.5799 145.38 47.7999 145.34C48.6699 145.2 49.5098 144.95 50.3098 144.6C50.4798 144.53 50.6498 144.46 50.8098 144.36C51.4398 144.06 52.0498 143.68 52.6198 143.25C52.9798 143.37 53.3299 143.47 53.7099 143.55C53.6599 143.6 53.6099 143.64 53.5499 143.68C53.3999 143.81 53.2399 143.93 53.0699 144.05C53.0199 144.09 52.9799 144.12 52.9299 144.15C52.7099 144.3 52.4798 144.45 52.2498 144.58C52.1998 144.62 52.1499 144.64 52.0999 144.67C51.9199 144.77 51.7399 144.87 51.5499 144.96C51.4499 145.01 51.3499 145.06 51.2399 145.1C51.0799 145.18 50.9098 145.24 50.7498 145.3C50.6198 145.36 50.4898 145.4 50.3698 145.44C50.1998 145.5 50.0298 145.56 49.8598 145.6C49.7098 145.65 49.5498 145.69 49.3998 145.72C48.6098 145.91 47.7998 146.01 46.9698 146.01C46.7298 146.01 46.4898 146 46.2598 145.99C46.1298 145.98 45.9898 145.97 45.8598 145.95C46.3598 146.17 46.8699 146.35 47.4099 146.48H47.4198C47.6498 146.47 47.8798 146.46 48.1098 146.43C48.2398 146.42 48.3698 146.4 48.5098 146.38C48.6698 146.36 48.8198 146.33 48.9798 146.3C49.1198 146.28 49.2598 146.25 49.3898 146.22C49.4298 146.21 49.4698 146.2 49.5098 146.19C49.8398 146.11 50.1598 146.02 50.4798 145.91C50.7798 145.81 51.0798 145.7 51.3698 145.57C51.5198 145.5 51.6699 145.43 51.8199 145.36C51.9899 145.28 52.1598 145.18 52.3298 145.09C52.4798 145.01 52.6299 144.92 52.7699 144.83C53.3099 144.49 53.8298 144.1 54.3098 143.66C54.3398 143.63 54.3698 143.61 54.3998 143.58L54.6198 143.38L54.7598 143.25L54.5199 143.21C54.4799 143.2 54.4398 143.2 54.3998 143.19C54.3598 143.18 54.3198 143.18 54.2798 143.17C54.2398 143.16 54.1999 143.16 54.1599 143.15C53.9599 143.11 53.7598 143.07 53.5598 143.01C53.5498 143.02 53.5499 143.02 53.5399 143.01C53.3799 142.97 53.2299 142.93 53.0699 142.89L52.6498 142.75C52.6098 142.74 52.5698 142.72 52.5298 142.71L52.4299 142.79C52.3199 142.88 52.1998 142.97 52.0798 143.05C52.0698 143.05 52.0699 143.05 52.0699 143.05C52.0299 143.08 51.9898 143.11 51.9498 143.13C51.7798 143.26 51.6099 143.37 51.4299 143.48C51.3999 143.5 51.3698 143.52 51.3398 143.53C51.1598 143.64 50.9799 143.75 50.7899 143.84C50.6199 143.93 50.4499 144.02 50.2699 144.09C50.2399 144.11 50.1998 144.13 50.1698 144.14C49.9298 144.25 49.6798 144.34 49.4198 144.43C49.3998 144.44 49.3898 144.45 49.3698 144.45C49.1798 144.52 48.9899 144.58 48.7899 144.62C48.6899 144.66 48.5998 144.68 48.4998 144.71C48.2998 144.76 48.0998 144.8 47.8898 144.83C47.8298 144.85 47.7698 144.86 47.6998 144.87C47.4298 144.92 47.1498 144.95 46.8598 144.97C46.5698 145 46.2798 145.01 45.9798 145.01C45.7398 145.01 45.4998 145 45.2598 144.99C45.1398 144.98 45.0198 144.97 44.8998 144.95C44.6898 144.93 44.4698 144.91 44.2598 144.87C44.1998 144.86 44.1498 144.85 44.0898 144.84C44.0898 144.84 44.0999 144.84 44.0999 144.85C44.3599 145.06 44.6398 145.26 44.9198 145.43" fill="#8C501C"/>
<path d="M48.3806 143.96L48.3705 143.97C48.3905 143.97 48.4206 143.97 48.4406 143.96H48.3806ZM52.6505 142.75C52.6105 142.74 52.5705 142.72 52.5305 142.71C52.4605 142.68 52.3906 142.66 52.3206 142.63L51.9906 142.5C51.9506 142.48 51.9106 142.47 51.8806 142.45L51.7805 142.51C51.6405 142.59 51.5006 142.66 51.3506 142.73H51.3405C51.1205 142.83 50.9005 142.93 50.6705 143.01C50.5905 143.03 50.5206 143.06 50.4406 143.08C50.2706 143.14 50.1106 143.2 49.9306 143.23C49.6006 143.32 49.2605 143.39 48.9205 143.43C48.8205 143.44 48.7306 143.46 48.6306 143.47L48.2906 143.49L48.2305 143.5C47.6905 143.68 47.1406 143.81 46.5806 143.9H46.5506C46.0306 143.98 45.5105 144.02 44.9805 144.02C44.3305 144.02 43.6905 143.96 43.0605 143.84C43.2205 144.04 43.4005 144.22 43.5905 144.4C43.7105 144.42 43.8305 144.43 43.9505 144.44C44.1205 144.46 44.3006 144.47 44.4706 144.48C44.5606 144.49 44.6406 144.5 44.7206 144.49C45.0906 144.5 45.4605 144.48 45.8405 144.46C46.6905 144.4 47.5306 144.23 48.3506 143.97C48.3606 143.97 48.3605 143.97 48.3705 143.97C48.3905 143.97 48.4206 143.97 48.4406 143.96C48.4706 143.96 48.5006 143.96 48.5206 143.95C48.7206 143.94 48.9306 143.91 49.1306 143.88C49.3306 143.85 49.5305 143.82 49.7305 143.77C49.8805 143.74 50.0306 143.7 50.1806 143.66C50.7806 143.5 51.3506 143.27 51.9106 142.98C51.9606 143 52.0106 143.02 52.0706 143.05C52.0306 143.08 51.9905 143.11 51.9505 143.13C51.7805 143.26 51.6106 143.37 51.4306 143.48C51.4006 143.5 51.3705 143.52 51.3405 143.53C51.1605 143.65 50.9806 143.75 50.7906 143.84C50.6206 143.93 50.4506 144.02 50.2706 144.09C50.2406 144.11 50.2005 144.13 50.1705 144.14C49.9205 144.25 49.6705 144.35 49.4205 144.43C49.4005 144.44 49.3905 144.45 49.3705 144.45C49.1805 144.52 48.9906 144.58 48.7906 144.62C48.6906 144.66 48.6005 144.68 48.5005 144.71C48.3005 144.76 48.1005 144.8 47.8905 144.83C47.8305 144.85 47.7705 144.86 47.7005 144.87C47.4305 144.92 47.1505 144.95 46.8605 144.97C46.5705 145 46.2805 145.01 45.9805 145.01C45.7405 145.01 45.5005 145 45.2605 144.99C45.1405 144.98 45.0205 144.97 44.9005 144.95C44.6905 144.93 44.4705 144.91 44.2605 144.87C44.2105 144.86 44.1506 144.85 44.1006 144.85C44.3606 145.06 44.6405 145.26 44.9205 145.43L44.9306 145.44C44.9406 145.44 44.9406 145.44 44.9406 145.44C44.9906 145.45 45.0306 145.45 45.0706 145.45C45.3706 145.48 45.6805 145.49 45.9805 145.49C46.3705 145.49 46.7506 145.47 47.1306 145.42C47.3606 145.41 47.5806 145.38 47.8006 145.34C48.6706 145.2 49.5105 144.95 50.3105 144.6C50.4805 144.53 50.6505 144.46 50.8105 144.36C51.4405 144.06 52.0505 143.68 52.6205 143.25C52.6605 143.22 52.6906 143.2 52.7206 143.17L53.0706 142.89L52.6505 142.75Z" fill="#8C501C"/>
<path d="M50.1298 143.38L48.3798 143.96L48.3698 143.97C48.3598 143.97 48.3598 143.97 48.3498 143.97C47.5298 144.23 46.6898 144.4 45.8398 144.46C45.5498 144.49 45.2698 144.5 44.9798 144.5C44.8998 144.5 44.8098 144.5 44.7198 144.49C44.6398 144.5 44.5598 144.49 44.4698 144.48C44.2998 144.47 44.1198 144.46 43.9498 144.44C43.8298 144.44 43.7098 144.43 43.5998 144.41C43.5898 144.4 43.5898 144.4 43.5898 144.4C43.3998 144.22 43.2198 144.04 43.0598 143.84C43.6898 143.96 44.3298 144.02 44.9798 144.02C45.5098 144.02 46.0298 143.98 46.5498 143.9C46.5198 143.89 46.4898 143.89 46.4598 143.88C45.5498 143.75 44.6898 143.47 43.8898 143.09C43.6898 142.99 43.4998 142.89 43.3198 142.78C43.1498 142.69 42.9898 142.59 42.8398 142.48C42.6698 142.37 42.4998 142.24 42.3298 142.11C42.2498 142.06 42.1798 142 42.1098 141.94C42.0998 141.93 42.0898 141.93 42.0898 141.92C41.9398 141.8 41.7998 141.68 41.6598 141.55C41.6498 141.53 41.6298 141.52 41.6198 141.51C41.6098 141.51 41.6098 141.5 41.6098 141.5V141.49C41.4698 141.15 41.3598 140.8 41.2598 140.44C41.2998 140.48 41.3398 140.52 41.3798 140.56C41.4298 140.62 41.4798 140.68 41.5298 140.73C41.5698 140.78 41.6098 140.82 41.6598 140.87C41.7998 141.02 41.9498 141.17 42.0998 141.31C42.1198 141.32 42.1398 141.34 42.1598 141.36C42.3298 141.51 42.5098 141.66 42.6898 141.8C42.9398 141.98 43.1998 142.16 43.4698 142.32C43.6098 142.41 43.7598 142.49 43.9098 142.56C43.9798 142.6 44.0498 142.64 44.1298 142.67C44.3298 142.77 44.5498 142.87 44.7698 142.95C44.9398 143.02 45.1098 143.08 45.2798 143.13C45.4098 143.17 45.5398 143.21 45.6798 143.24C45.8598 143.29 46.0298 143.33 46.2098 143.36C46.4698 143.41 46.7298 143.45 46.9898 143.47C47.2498 143.5 47.5198 143.51 47.7898 143.51C47.9598 143.51 48.1198 143.5 48.2898 143.49L48.6298 143.47L50.1298 143.38Z" fill="#8C501C"/>
<path d="M56.1492 143.22C56.1192 143.26 56.0992 143.3 56.0692 143.33C56.0692 143.34 56.0592 143.35 56.0592 143.35C56.0292 143.39 55.9992 143.43 55.9692 143.46C55.9192 143.52 55.8792 143.59 55.8292 143.65C55.8292 143.65 55.8192 143.65 55.8192 143.66C55.7792 143.71 55.7392 143.75 55.6992 143.8C55.1892 143.78 54.6892 143.73 54.1992 143.64L54.2792 143.17C54.3592 143.18 54.4392 143.2 54.5192 143.21L54.6092 142.88C55.1092 143.03 55.6292 143.15 56.1492 143.22Z" fill="#8C501C"/>
<path d="M52.9807 142.77C52.8107 142.69 52.6407 142.6 52.4707 142.51L52.7007 142.09C52.8607 142.17 53.0207 142.26 53.1807 142.33L52.9807 142.77Z" fill="#8C501C"/>
<path d="M52.4891 143.21C52.2491 143.13 52.0191 143.04 51.7891 142.94L51.979 142.5C52.199 142.59 52.419 142.68 52.649 142.75L52.4891 143.21Z" fill="#8C501C"/>
<path d="M56.3505 142.93C56.2905 143.03 56.2205 143.13 56.1505 143.22C56.1205 143.26 56.1005 143.3 56.0705 143.33C56.0705 143.34 56.0605 143.35 56.0605 143.35C56.0305 143.39 56.0005 143.43 55.9705 143.46C55.9205 143.52 55.8805 143.59 55.8305 143.65C55.3705 143.58 54.9205 143.47 54.4805 143.34L54.6105 142.88C54.7705 142.93 54.9405 142.98 55.1005 143.02C55.0205 142.98 54.9305 142.95 54.8505 142.91L55.0405 142.47C55.4605 142.65 55.9005 142.81 56.3505 142.93Z" fill="#8C501C"/>
<path d="M54.8398 142.91C54.3798 142.71 53.9398 142.48 53.5098 142.22L53.7598 141.81C54.1598 142.06 54.5898 142.28 55.0298 142.47L54.8398 142.91Z" fill="#8C501C"/>
<path d="M54.4705 143.34C53.9605 143.19 53.4505 142.99 52.9805 142.77L53.1805 142.34C53.6405 142.56 54.1205 142.74 54.6105 142.89L54.4705 143.34Z" fill="#8C501C"/>
<path d="M56.6296 142.48C56.5496 142.62 56.4696 142.76 56.3696 142.89V142.9C56.3596 142.91 56.3596 142.92 56.3496 142.93C56.2896 143.03 56.2196 143.13 56.1496 143.22C56.1196 143.26 56.0996 143.3 56.0696 143.33C56.0696 143.34 56.0596 143.35 56.0596 143.35C55.6396 143.22 55.2396 143.08 54.8496 142.91L55.0396 142.47C55.4396 142.64 55.8496 142.79 56.2696 142.91C56.2796 142.9 56.2996 142.88 56.3096 142.87C55.9596 142.71 55.6096 142.53 55.2896 142.34L55.5296 141.93C55.8796 142.13 56.2496 142.32 56.6296 142.48Z" fill="#8C501C"/>
<path d="M54.0999 141.54C54.0099 141.47 53.9298 141.4 53.8398 141.33L54.1498 140.97C54.2298 141.04 54.3098 141.1 54.3898 141.17L54.0999 141.54Z" fill="#8C501C"/>
<path d="M53.5204 142.22C53.4004 142.14 53.2704 142.07 53.1504 141.98L53.4204 141.58C53.5304 141.66 53.6504 141.73 53.7704 141.8L53.5204 142.22Z" fill="#8C501C"/>
<path d="M55.7692 141.62C55.3892 141.33 55.0292 141.01 54.6992 140.67L55.0392 140.34C55.3492 140.66 55.6892 140.97 56.0492 141.25L55.7692 141.62Z" fill="#8C501C"/>
<path d="M55.2798 142.35C54.8598 142.11 54.4598 141.83 54.0898 141.54L54.3898 141.16C54.7398 141.44 55.1199 141.7 55.5199 141.93L55.2798 142.35Z" fill="#8C501C"/>
<path d="M57.1193 141.46C57.1193 141.45 57.1193 141.45 57.1193 141.45C56.9093 141.28 56.7093 141.11 56.5193 140.92V140.91C56.4793 140.88 56.4393 140.84 56.3993 140.81L56.2793 140.69L56.6193 140.36C56.6593 140.4 56.6993 140.44 56.7393 140.47C56.7393 140.47 56.7393 140.48 56.7493 140.48C56.9193 140.66 57.1093 140.82 57.2993 140.97" fill="#8C501C"/>
<path d="M56.7395 142.28L56.7295 142.27C56.3995 142.08 56.0795 141.86 55.7695 141.62L56.0595 141.24C56.2295 141.37 56.4095 141.5 56.5895 141.62C56.7095 141.7 56.8295 141.78 56.9495 141.85" fill="#8C501C"/>
<path d="M56.2801 140.69C55.9301 140.33 55.6101 139.94 55.3301 139.54L55.7201 139.26C55.9901 139.65 56.2901 140.01 56.6301 140.35L56.2801 140.69Z" fill="#8C501C"/>
<path d="M55.7692 141.62C55.3892 141.33 55.0292 141.01 54.6992 140.67L55.0392 140.34C55.3492 140.66 55.6892 140.97 56.0492 141.25L55.7692 141.62Z" fill="#8C501C"/>
<path d="M54.6993 140.67C54.6393 140.61 54.5793 140.55 54.5293 140.49L54.8793 140.17C54.9293 140.23 54.9893 140.29 55.0393 140.34L54.6993 140.67Z" fill="#8C501C"/>
<path d="M55.3209 139.54L55.5209 139.4L55.3109 139.52L55.2109 139.37L55.6109 139.11L55.7109 139.25L55.3209 139.54Z" fill="#8C501C"/>
<path d="M56.4902 133.99L56.4702 134L56.5002 134.01C56.5002 134.01 56.4902 134 56.4902 133.99ZM56.4902 133.99L56.4702 134L56.5002 134.01C56.5002 134.01 56.4902 134 56.4902 133.99ZM56.4902 133.99L56.4702 134L56.5002 134.01C56.5002 134.01 56.4902 134 56.4902 133.99ZM56.4902 133.99L56.4702 134L56.5002 134.01C56.5002 134.01 56.4902 134 56.4902 133.99ZM57.6902 137.61C57.6702 137.44 57.6502 137.26 57.6202 137.09C57.6102 137.03 57.6002 136.97 57.5902 136.91C57.5502 136.65 57.4902 136.39 57.4202 136.14C57.3902 136.73 57.3102 137.32 57.1702 137.89C57.1402 138.04 57.1002 138.18 57.0602 138.33C56.9502 138.75 56.8002 139.17 56.6302 139.57C56.5702 139.73 56.4902 139.89 56.4202 140.05C56.4102 140.07 56.4002 140.08 56.3902 140.1C56.2802 139.99 56.1802 139.87 56.0802 139.74C55.9802 139.62 55.8902 139.5 55.8002 139.38V139.37H55.8102C55.8502 139.28 55.9002 139.19 55.9302 139.1C55.9802 139.01 56.0202 138.91 56.0602 138.81C56.1102 138.72 56.1502 138.62 56.1802 138.52C56.2202 138.42 56.2602 138.32 56.2902 138.23C56.4702 137.73 56.6202 137.22 56.7102 136.7C56.7402 136.56 56.7702 136.41 56.7902 136.27C56.8202 136.12 56.8402 135.96 56.8602 135.8C56.9002 135.47 56.9202 135.14 56.9202 134.8C56.8802 134.72 56.8402 134.64 56.8002 134.56C56.7602 134.48 56.7202 134.4 56.6702 134.32V134.31C56.6602 134.28 56.6402 134.25 56.6202 134.21V134.2C56.5802 134.14 56.5502 134.09 56.5102 134.02L56.5002 134.01C56.5002 134.01 56.4902 134 56.4902 133.99V133.98C56.4702 133.97 56.4602 133.96 56.4602 133.94V133.93H56.4502C56.4402 133.92 56.4402 133.91 56.4302 133.9H56.4202C56.4202 133.93 56.4302 133.97 56.4302 134V134.04C56.4402 134.21 56.4502 134.37 56.4502 134.54C56.4502 134.63 56.4502 134.73 56.4402 134.82C56.4402 135.05 56.4302 135.28 56.4002 135.51C56.3902 135.64 56.3802 135.76 56.3602 135.88C56.3502 136.02 56.3302 136.16 56.3002 136.3C56.2802 136.42 56.2602 136.54 56.2302 136.66C56.2102 136.77 56.1902 136.88 56.1602 136.99C56.1202 137.18 56.0602 137.37 56.0102 137.56C55.8702 138.01 55.7002 138.46 55.4902 138.9C55.4402 139.03 55.3802 139.16 55.3102 139.29L55.3002 139.31L55.2402 139.41L55.3202 139.52L55.3302 139.54C55.4002 139.65 55.4802 139.75 55.5602 139.85C55.6302 139.94 55.7002 140.04 55.7802 140.13C55.9002 140.28 56.0302 140.42 56.1602 140.56C56.2002 140.61 56.2402 140.65 56.2802 140.69L56.4002 140.81L56.5102 140.93L56.5202 140.92V140.91L56.6602 140.64C56.6902 140.58 56.7202 140.53 56.7402 140.47C56.8202 140.33 56.8902 140.19 56.9502 140.05C57.0402 139.84 57.1302 139.64 57.2102 139.43C57.2902 139.23 57.3602 139.02 57.4202 138.81C57.4702 138.64 57.5202 138.48 57.5602 138.31C57.5902 138.21 57.6202 138.11 57.6302 138.01C57.6602 137.92 57.6802 137.83 57.7002 137.74V137.72C57.7002 137.71 57.7002 137.71 57.7002 137.7C57.7002 137.67 57.6902 137.64 57.6902 137.61ZM56.4902 133.99L56.4702 134L56.5002 134.01C56.5002 134.01 56.4902 134 56.4902 133.99ZM56.4902 133.99L56.4702 134L56.5002 134.01C56.5002 134.01 56.4902 134 56.4902 133.99Z" fill="#8C501C"/>
<path d="M56.5099 134.02L56.4699 134.01L56.4299 134C56.4299 133.96 56.4199 133.93 56.4199 133.89C56.4299 133.89 56.4299 133.9 56.4299 133.9C56.4399 133.91 56.4399 133.92 56.4499 133.93C56.4499 133.93 56.4499 133.94 56.4599 133.94C56.4599 133.96 56.4699 133.97 56.4899 133.98V133.99C56.4899 134 56.4999 134.01 56.4999 134.01L56.5099 134.02Z" fill="#8C501C"/>
<path d="M56.4995 134.01L56.4695 134H56.4295L56.1895 133.94C56.2195 133.84 56.2394 133.75 56.2594 133.65C56.3194 133.73 56.3795 133.81 56.4295 133.9C56.4395 133.91 56.4394 133.92 56.4494 133.93H56.4595V133.94C56.4595 133.96 56.4695 133.97 56.4895 133.98V133.99C56.4895 134 56.4995 134.01 56.4995 134.01Z" fill="#8C501C"/>
<path d="M56.5094 134.02L56.4695 134.01L56.1895 133.94C56.2195 133.84 56.2394 133.75 56.2594 133.65C56.3194 133.73 56.3795 133.81 56.4295 133.9C56.4395 133.91 56.4394 133.92 56.4494 133.93C56.4494 133.93 56.4495 133.94 56.4595 133.94C56.4595 133.96 56.4695 133.97 56.4895 133.98V133.99C56.4895 134 56.4995 134.01 56.4995 134.01L56.5094 134.02Z" fill="#8C501C"/>
<path d="M56.6709 134.31L56.5909 134.93L56.5309 134.5L56.4709 134.01V134H56.4609V133.94C56.4609 133.96 56.4709 133.97 56.4909 133.98V133.99C56.4909 134 56.5109 134.01 56.5109 134.01V134.02C56.5509 134.09 56.5809 134.14 56.6209 134.2V134.21C56.6409 134.25 56.6609 134.28 56.6709 134.31Z" fill="#8C501C"/>
<path d="M48.3093 143.97L48.2793 143.49C49.3493 143.43 50.3693 143.17 51.3293 142.73C51.2093 142.67 51.0893 142.61 50.9793 142.55L51.1993 142.13C51.4493 142.26 51.7093 142.39 51.9793 142.5L52.4393 142.7L51.9993 142.94C50.8593 143.55 49.6093 143.9 48.3093 143.97Z" fill="#8C501C"/>
<path d="M41.25 140.4C41.33 140.51 41.43 140.62 41.53 140.73C41.57 140.78 41.61 140.82 41.66 140.87C41.8 141.02 41.95 141.17 42.1 141.31C42.12 141.32 42.14 141.34 42.16 141.36C42.33 141.51 42.51 141.66 42.69 141.8C42.94 141.98 43.2 142.16 43.47 142.32C43.61 142.41 43.76 142.49 43.91 142.56C43.98 142.6 44.05 142.64 44.13 142.67C44.33 142.77 44.55 142.87 44.77 142.95C44.94 143.02 45.11 143.08 45.28 143.13C45.41 143.17 45.54 143.21 45.68 143.24C45.86 143.29 46.03 143.33 46.21 143.36C46.47 143.41 46.73 143.45 46.99 143.47C47.25 143.5 47.52 143.51 47.79 143.51C47.96 143.51 48.12 143.5 48.29 143.49L48.32 143.97C48.14 143.98 47.97 143.98 47.79 143.98C47.38 143.98 46.97 143.95 46.58 143.9C46.54 143.89 46.5 143.89 46.46 143.88C45.55 143.75 44.69 143.47 43.89 143.09C43.69 142.99 43.5 142.89 43.32 142.78C43.15 142.69 42.99 142.59 42.84 142.48C42.67 142.37 42.5 142.24 42.33 142.11C42.25 142.06 42.18 142 42.11 141.94C42.1 141.93 42.09 141.93 42.09 141.92C41.94 141.8 41.8 141.68 41.66 141.55C41.65 141.53 41.63 141.52 41.62 141.51C41.61 141.51 41.61 141.5 41.61 141.5V141.49C41.47 141.15 41.36 140.8 41.26 140.44C41.26 140.44 41.26 140.44 41.26 140.43" fill="#8C501C"/>
<path d="M50.43 142.14C50.4 142.15 50.36 142.16 50.33 142.16C49.56 142.38 48.77 142.49 47.97 142.49C47.76 142.49 47.55 142.48 47.34 142.46C47.24 142.46 47.15 142.45 47.06 142.44C46.83 142.42 46.61 142.39 46.39 142.35C46.18 142.31 45.97 142.27 45.76 142.21C45.75 142.21 45.74 142.21 45.74 142.21C45.53 142.15 45.32 142.09 45.11 142.02C43.71 141.55 42.46 140.73 41.47 139.68C41.33 139.53 41.2 139.38 41.07 139.23C41.06 139.22 41.05 139.21 41.04 139.19C41.04 139.19 41.04 139.19 41.04 139.18C41.01 138.91 41 138.64 41 138.36C41 138.35 41 138.35 41 138.34C41.06 138.42 41.12 138.51 41.18 138.59C41.18 138.59 41.19 138.6 41.19 138.61C41.33 138.79 41.47 138.96 41.62 139.13C41.77 139.31 41.94 139.48 42.11 139.64C42.45 139.97 42.81 140.27 43.2 140.53C43.41 140.67 43.62 140.81 43.84 140.93C43.99 141.02 44.15 141.1 44.31 141.17C44.57 141.3 44.83 141.41 45.1 141.51C45.3 141.58 45.5 141.65 45.71 141.7C45.76 141.72 45.81 141.73 45.86 141.74C46.05 141.79 46.25 141.84 46.45 141.87C46.73 141.92 47.01 141.96 47.3 141.98C47.52 142 47.74 142.01 47.97 142.01C48.16 142.01 48.35 142 48.54 141.99C48.77 141.97 49 141.95 49.23 141.91C49.4 141.89 49.57 141.86 49.73 141.82C49.75 141.82 49.77 141.81 49.79 141.81C49.96 141.77 50.13 141.73 50.3 141.68L50.37 141.92L50.43 142.14Z" fill="#8C501C"/>
<path d="M51.8005 142.94C51.5205 142.82 51.2505 142.69 50.9805 142.55L51.2005 142.13C51.4505 142.26 51.7105 142.39 51.9805 142.5L51.8005 142.94Z" fill="#8C501C"/>
<path d="M52.4704 142.52C52.1804 142.36 51.9004 142.2 51.6504 142.02L51.9204 141.62C52.1704 141.79 52.4304 141.94 52.7104 142.09L52.4704 142.52Z" fill="#8C501C"/>
<path d="M50.9805 142.55C50.7205 142.42 50.4805 142.27 50.2305 142.11L50.4905 141.71C50.7205 141.86 50.9605 142 51.2005 142.12L50.9805 142.55Z" fill="#8C501C"/>
<path d="M51.6402 142.02C51.5002 141.93 51.3702 141.84 51.2402 141.74L51.5302 141.36C51.6502 141.45 51.7802 141.54 51.9102 141.63L51.6402 142.02Z" fill="#8C501C"/>
<path d="M52.4704 142.52C52.1804 142.36 51.9004 142.2 51.6504 142.02L51.9204 141.62C52.1704 141.79 52.4304 141.94 52.7104 142.09L52.4704 142.52Z" fill="#8C501C"/>
<path d="M53.8398 141.33C53.5798 141.11 53.3198 140.87 53.0898 140.62L53.4398 140.29C53.6598 140.52 53.8998 140.75 54.1498 140.96L53.8398 141.33Z" fill="#8C501C"/>
<path d="M53.1494 141.99C52.8694 141.8 52.4495 141.47 52.1895 141.25L52.4995 140.88C52.7495 141.09 53.1494 141.4 53.4194 141.59L53.1494 141.99Z" fill="#8C501C"/>
<path d="M54.5209 140.49C54.3209 140.27 54.1309 140.05 53.9609 139.81L54.3409 139.52C54.5109 139.74 54.6909 139.96 54.8809 140.16L54.5209 140.49Z" fill="#8C501C"/>
<path d="M55.2103 139.38C55.0703 139.17 54.9403 138.96 54.8203 138.74L55.2403 138.51C55.3503 138.72 55.4703 138.92 55.6103 139.11L55.2103 139.38Z" fill="#8C501C"/>
<path d="M55.2103 139.38C55.0703 139.17 54.9403 138.96 54.8203 138.74L55.2403 138.51C55.3503 138.72 55.4703 138.92 55.6103 139.11L55.2103 139.38Z" fill="#8C501C"/>
<path d="M41.12 136.92C41.12 136.92 41.12 136.92 41.13 136.93C41.08 137.15 41.06 137.36 41.03 137.58V137.59C41.03 137.6 41.03 137.6 41.03 137.6C41.17 137.76 41.3 137.91 41.44 138.06C41.65 138.29 41.88 138.5 42.12 138.71C42.29 138.86 42.46 139 42.65 139.13C42.65 139.14 42.66 139.14 42.67 139.15C42.88 139.3 43.09 139.45 43.32 139.58C43.51 139.7 43.71 139.82 43.92 139.92C44.19 140.06 44.47 140.18 44.75 140.29C44.98 140.38 45.22 140.46 45.46 140.53C45.53 140.55 45.61 140.57 45.69 140.59C45.82 140.63 45.96 140.66 46.1 140.69C46.21 140.72 46.33 140.74 46.45 140.76C46.61 140.79 46.78 140.81 46.94 140.82C47.04 140.84 47.13 140.85 47.23 140.85C47.47 140.88 47.72 140.89 47.97 140.89C48.18 140.89 48.41 140.88 48.62 140.86H48.67C49.01 141.2 49.39 141.52 49.79 141.81C49.77 141.81 49.75 141.82 49.73 141.82C49.57 141.86 49.4 141.89 49.23 141.91C49 141.95 48.77 141.97 48.54 141.99C48.35 142 48.16 142.01 47.97 142.01C47.74 142.01 47.52 142 47.3 141.98C47.01 141.96 46.73 141.92 46.45 141.87C46.25 141.84 46.05 141.79 45.86 141.74C45.81 141.73 45.76 141.72 45.71 141.7C45.5 141.65 45.3 141.58 45.1 141.51C44.83 141.41 44.57 141.3 44.31 141.17C44.15 141.1 43.99 141.02 43.84 140.93C43.62 140.81 43.41 140.67 43.2 140.53C42.81 140.27 42.45 139.97 42.11 139.64C41.94 139.48 41.78 139.31 41.62 139.13C41.47 138.96 41.33 138.79 41.19 138.61C41.19 138.6 41.18 138.59 41.18 138.59C41.12 138.5 41.06 138.43 41 138.34C41 138.35 41 138.35 41 138.36C41 138.64 41.01 138.91 41.04 139.18C41.04 139.19 41.04 139.19 41.04 139.19C41.05 139.21 41.06 139.22 41.07 139.23C41.2 139.38 41.33 139.53 41.47 139.68C42.46 140.73 43.71 141.55 45.11 142.02C45.32 142.09 45.53 142.15 45.74 142.21C45.74 142.21 45.75 142.21 45.76 142.21C45.97 142.27 46.18 142.31 46.39 142.35C46.61 142.39 46.83 142.42 47.06 142.44C47.15 142.45 47.24 142.46 47.34 142.46C47.55 142.48 47.76 142.49 47.97 142.49C48.77 142.49 49.55 142.38 50.32 142.16H50.33C50.36 142.16 50.4 142.15 50.43 142.14L50.94 142L50.5 141.71C49.92 141.34 49.4 140.92 48.92 140.45C48.89 140.42 48.87 140.4 48.85 140.37L48.73 140.38C48.56 140.39 48.39 140.4 48.22 140.4C48.14 140.41 48.06 140.41 47.97 140.41C47.68 140.41 47.39 140.4 47.1 140.36C46.87 140.34 46.65 140.31 46.43 140.26C46.39 140.26 46.34 140.25 46.3 140.24C46.13 140.21 45.97 140.17 45.81 140.13C45.71 140.1 45.61 140.08 45.51 140.04C45.31 139.99 45.13 139.92 44.94 139.85C44.93 139.85 44.92 139.84 44.9 139.83C44.71 139.76 44.51 139.68 44.33 139.58C44.28 139.57 44.23 139.54 44.18 139.51C43.52 139.19 42.91 138.77 42.36 138.28C42.17 138.11 41.99 137.94 41.82 137.76C41.65 137.57 41.48 137.38 41.33 137.19C41.29 137.15 41.25 137.1 41.22 137.05C41.2 137.03 41.18 137 41.17 136.98C41.16 136.96 41.14 136.94 41.13 136.91" fill="#8C501C"/>
<path d="M52.1894 141.25C51.7994 140.91 51.4394 140.54 51.1094 140.15L51.4794 139.84C51.7894 140.21 52.1294 140.56 52.5094 140.89L52.1894 141.25Z" fill="#8C501C"/>
<path d="M51.2499 141.74C50.7699 141.39 50.3199 140.99 49.9199 140.55L50.2699 140.22C50.6499 140.63 51.0799 141.01 51.5399 141.35L51.2499 141.74Z" fill="#8C501C"/>
<path d="M53.0893 140.62L53.0293 140.56L53.3893 140.23L53.4293 140.28L53.0893 140.62Z" fill="#8C501C"/>
<path d="M53.759 139.53C53.589 139.29 53.4391 139.04 53.2891 138.79L53.7091 138.56C53.8391 138.8 53.989 139.04 54.149 139.27L53.759 139.53Z" fill="#8C501C"/>
<path d="M53.0307 140.56C52.7407 140.25 52.4607 139.91 52.2207 139.56L52.6107 139.28C52.8407 139.61 53.1007 139.93 53.3807 140.22L53.0307 140.56Z" fill="#8C501C"/>
<path d="M53.9598 139.81C53.8898 139.72 53.8198 139.62 53.7598 139.53L54.1498 139.25C54.2098 139.34 54.2798 139.43 54.3398 139.52L53.9598 139.81Z" fill="#8C501C"/>
<path d="M54.82 138.74C54.7 138.53 54.6 138.31 54.5 138.09L54.94 137.89C55.03 138.1 55.13 138.3 55.24 138.5L54.82 138.74Z" fill="#8C501C"/>
<path d="M53.759 139.53C53.589 139.29 53.4391 139.04 53.2891 138.79L53.7091 138.56C53.8391 138.8 53.989 139.04 54.149 139.27L53.759 139.53Z" fill="#8C501C"/>
<path d="M54.4998 138.09C54.4398 137.96 54.3898 137.84 54.3398 137.71L54.7899 137.54C54.8399 137.66 54.8898 137.78 54.9398 137.9L54.4998 138.09Z" fill="#8C501C"/>
<path d="M56.6205 134.2V134.21C56.3605 135.19 55.9505 136.12 55.3805 136.96L54.9805 136.69C55.5505 135.85 55.9605 134.92 56.1905 133.94L56.4705 134.01H56.5005L56.5105 134.02C56.5505 134.09 56.5805 134.14 56.6205 134.2Z" fill="#8C501C"/>
<path d="M54.82 138.74C54.7 138.53 54.6 138.31 54.5 138.09L54.94 137.89C55.03 138.1 55.13 138.3 55.24 138.5L54.82 138.74Z" fill="#8C501C"/>
<path d="M54.4991 138.09C54.4391 137.96 54.3891 137.84 54.3391 137.71L54.2891 137.58L54.3791 137.47C54.5891 137.22 54.7891 136.96 54.9691 136.69L55.369 136.96C55.199 137.2 55.0291 137.44 54.8391 137.67C54.8691 137.75 54.8991 137.82 54.9391 137.9L54.4991 138.09Z" fill="#8C501C"/>
<path d="M48.9193 140.45C48.8893 140.42 48.8693 140.4 48.8493 140.37C48.3193 139.82 47.8593 139.22 47.4993 138.58C47.4793 138.54 47.4593 138.5 47.4293 138.46H47.2993C47.1593 138.46 47.0193 138.45 46.8793 138.43C46.8693 138.43 46.8493 138.43 46.8393 138.42C46.6493 138.41 46.4693 138.39 46.2793 138.35C46.1393 138.33 46.0093 138.31 45.8693 138.28C45.7693 138.26 45.6593 138.23 45.5593 138.21C45.3993 138.17 45.2493 138.13 45.0893 138.07C44.8993 138.02 44.7093 137.95 44.5193 137.87C44.3693 137.82 44.2293 137.75 44.0893 137.68C43.9793 137.64 43.8593 137.58 43.7493 137.52C43.6893 137.49 43.6193 137.46 43.5593 137.42C43.4293 137.35 43.3093 137.28 43.1893 137.2C42.9793 137.08 42.7693 136.94 42.5693 136.78C42.3993 136.66 42.2393 136.53 42.0793 136.39C41.9293 136.27 41.7893 136.14 41.6593 136C41.5693 135.92 41.4893 135.84 41.4193 135.75C41.3593 135.93 41.3093 136.11 41.2593 136.29L41.2693 136.3C41.4293 136.46 41.5893 136.61 41.7593 136.75C41.9293 136.9 42.0993 137.04 42.2793 137.17C42.4493 137.3 42.6193 137.41 42.7993 137.53C42.8193 137.54 42.8393 137.55 42.8493 137.56C43.2193 137.79 43.6093 138 44.0093 138.18C44.2493 138.29 44.5093 138.39 44.7593 138.47C44.8993 138.52 45.0393 138.57 45.1893 138.61C45.2293 138.62 45.2693 138.63 45.3093 138.64C45.5093 138.69 45.7193 138.74 45.9193 138.78C46.1393 138.83 46.3593 138.86 46.5893 138.89C46.7693 138.91 46.9593 138.92 47.1493 138.93C47.4593 139.45 47.8193 139.94 48.2193 140.4L48.2293 140.41H47.9693C47.6793 140.41 47.3893 140.4 47.0993 140.36C46.8693 140.34 46.6493 140.31 46.4293 140.26C46.3893 140.26 46.3393 140.25 46.2993 140.24C46.1293 140.21 45.9693 140.17 45.8093 140.13C45.7093 140.1 45.6093 140.08 45.5093 140.04C45.3093 139.99 45.1293 139.92 44.9393 139.85C44.9293 139.85 44.9193 139.84 44.8993 139.83C44.7093 139.76 44.5093 139.68 44.3293 139.58C44.2793 139.57 44.2293 139.54 44.1793 139.51C43.5193 139.19 42.9093 138.77 42.3593 138.28C42.1693 138.13 41.9893 137.95 41.8193 137.76C41.6393 137.58 41.4793 137.39 41.3293 137.19C41.2893 137.15 41.2493 137.1 41.2193 137.05C41.1993 137.03 41.1793 137 41.1693 136.98C41.1593 136.96 41.1393 136.95 41.1293 136.93C41.0793 137.15 41.0593 137.36 41.0293 137.58V137.59C41.0293 137.6 41.0293 137.6 41.0293 137.6C41.1693 137.76 41.2993 137.91 41.4393 138.06C41.6493 138.29 41.8793 138.5 42.1193 138.71C42.2893 138.86 42.4593 139 42.6493 139.13C42.6493 139.14 42.6593 139.14 42.6693 139.15C42.8793 139.3 43.0893 139.45 43.3193 139.58C43.5093 139.7 43.7093 139.82 43.9193 139.92C44.1893 140.06 44.4693 140.18 44.7493 140.29C44.9793 140.38 45.2193 140.46 45.4593 140.53C45.5293 140.55 45.6093 140.57 45.6893 140.59C45.8193 140.63 45.9593 140.66 46.0993 140.69C46.2093 140.72 46.3293 140.74 46.4493 140.76C46.6093 140.79 46.7793 140.81 46.9393 140.82C47.0393 140.84 47.1293 140.85 47.2293 140.85C47.4693 140.88 47.7193 140.89 47.9693 140.89C48.1793 140.89 48.4093 140.88 48.6193 140.86H48.6693C48.7093 140.86 48.7393 140.85 48.7793 140.85L49.2893 140.81L48.9193 140.45ZM41.2493 136.29H41.2593H41.2493Z" fill="#8C501C"/>
<path d="M51.1105 140.15C50.6705 139.61 50.2905 139.03 49.9805 138.42L50.4105 138.21C50.7005 138.79 51.0605 139.34 51.4805 139.84L51.1105 140.15Z" fill="#8C501C"/>
<path d="M49.9099 140.55C49.3899 139.99 48.9498 139.38 48.5898 138.73L49.0098 138.5C49.3498 139.11 49.7698 139.69 50.2598 140.22L49.9099 140.55Z" fill="#8C501C"/>
<path d="M53.2906 138.78C52.9806 138.23 52.7405 137.65 52.5605 137.06L53.0206 136.92C53.1906 137.48 53.4206 138.03 53.7106 138.54L53.2906 138.78Z" fill="#8C501C"/>
<path d="M52.2191 139.56C51.8391 139.03 51.5291 138.46 51.2891 137.87L51.729 137.69C51.959 138.25 52.2591 138.78 52.6091 139.29L52.2191 139.56Z" fill="#8C501C"/>
<path d="M56.6205 134.2V134.21C56.5705 134.42 56.5105 134.62 56.4405 134.82C56.1805 135.57 55.8305 136.29 55.3805 136.96L54.9805 136.69C55.5505 135.85 55.9605 134.92 56.1905 133.94L56.4305 134H56.4705L56.5005 134.01L56.5105 134.02C56.5505 134.09 56.5805 134.14 56.6205 134.2Z" fill="#8C501C"/>
<path d="M54.4899 138.08L54.3499 137.71C54.1099 137.11 53.9498 136.48 53.8598 135.84L53.8398 135.73L53.9099 135.65C54.2299 135.3 54.5199 134.91 54.7699 134.51L55.1799 134.77C54.9299 135.16 54.6499 135.54 54.3499 135.89C54.4199 136.32 54.5198 136.74 54.6498 137.15C54.7598 137 54.8698 136.85 54.9798 136.7L55.3799 136.97C55.1899 137.25 54.9798 137.53 54.7498 137.79L54.4899 138.08Z" fill="#8C501C"/>
<path d="M55.1795 134.76L54.7695 134.5C54.9195 134.26 55.0595 134.01 55.1895 133.76L55.6195 133.97C55.4795 134.25 55.3395 134.51 55.1795 134.76Z" fill="#8C501C"/>
<path d="M55.5909 132.79C55.5609 132.92 55.5109 133.04 55.4609 133.16L55.9109 133.34C55.9209 133.3 55.9409 133.26 55.9509 133.22C55.8509 133.09 55.7509 132.97 55.6509 132.85H55.6409L55.5909 132.79Z" fill="#8C501C"/>
<path d="M55.6194 133.98L55.1895 133.77C55.2895 133.57 55.3795 133.37 55.4595 133.17L55.8994 133.35C55.8194 133.56 55.7194 133.77 55.6194 133.98Z" fill="#8C501C"/>
<path d="M47.4998 138.58C47.4798 138.54 47.4598 138.5 47.4298 138.46C47.1698 137.98 46.9698 137.48 46.8098 136.96L46.7598 136.81L46.6098 136.79C46.4898 136.78 46.3698 136.76 46.2498 136.74C46.2298 136.74 46.2198 136.73 46.1998 136.73C46.0698 136.71 45.9398 136.69 45.8198 136.66C45.3598 136.56 44.9198 136.42 44.4898 136.25C44.3198 136.18 44.1498 136.11 43.9898 136.03C43.8298 135.95 43.6698 135.87 43.5098 135.78C43.3698 135.71 43.2298 135.63 43.0998 135.54C42.7798 135.34 42.4698 135.11 42.1698 134.86C42.0698 134.78 41.9798 134.7 41.8898 134.61C41.8098 134.76 41.7398 134.92 41.6798 135.07C41.8798 135.25 42.0898 135.42 42.3098 135.58C42.4498 135.68 42.5898 135.78 42.7298 135.87C42.9098 135.99 43.0898 136.1 43.2698 136.2C43.4398 136.29 43.6098 136.38 43.7798 136.46C44.1298 136.63 44.4798 136.77 44.8498 136.89C45.0298 136.95 45.2198 137.01 45.4098 137.05C45.7298 137.14 46.0598 137.2 46.3998 137.25C46.5298 137.65 46.6898 138.05 46.8798 138.43C46.8698 138.43 46.8498 138.43 46.8398 138.42C46.6498 138.41 46.4698 138.39 46.2798 138.35C46.1398 138.33 46.0098 138.31 45.8698 138.28C45.7698 138.26 45.6598 138.23 45.5598 138.21C45.3998 138.17 45.2398 138.12 45.0898 138.07C44.8898 138.01 44.6998 137.94 44.5198 137.87C44.3698 137.82 44.2298 137.75 44.0898 137.68C43.9798 137.63 43.8598 137.58 43.7498 137.52C43.6898 137.49 43.6198 137.46 43.5598 137.42C43.4298 137.35 43.3098 137.28 43.1898 137.2C42.9798 137.08 42.7698 136.94 42.5698 136.78C42.3998 136.66 42.2398 136.53 42.0798 136.39C41.9298 136.27 41.7898 136.14 41.6598 136C41.5698 135.92 41.4898 135.84 41.4198 135.75C41.3598 135.93 41.3098 136.11 41.2598 136.29L41.2698 136.3C41.4298 136.46 41.5898 136.61 41.7598 136.75C41.9298 136.9 42.0998 137.04 42.2798 137.17C42.4498 137.3 42.6198 137.41 42.7998 137.53C42.8198 137.54 42.8398 137.55 42.8498 137.56C43.2198 137.79 43.6098 138 44.0098 138.18C44.2498 138.29 44.5098 138.39 44.7598 138.47C44.8998 138.52 45.0398 138.57 45.1898 138.61C45.2298 138.62 45.2698 138.63 45.3098 138.64C45.5098 138.69 45.7198 138.74 45.9198 138.78C46.1398 138.83 46.3598 138.86 46.5898 138.89C46.7698 138.91 46.9598 138.92 47.1498 138.93C47.1898 138.94 47.2398 138.94 47.2798 138.94L47.7098 138.95L47.4998 138.58Z" fill="#8C501C"/>
<path d="M49.9804 138.42C49.7404 137.94 49.5404 137.43 49.4004 136.92L49.8604 136.79C49.9904 137.27 50.1804 137.75 50.4004 138.21L49.9804 138.42Z" fill="#8C501C"/>
<path d="M48.5901 138.74C48.3101 138.23 48.0802 137.7 47.9102 137.15L48.3701 137.01C48.5301 137.53 48.7501 138.03 49.0101 138.51L48.5901 138.74Z" fill="#8C501C"/>
<path d="M52.5593 137.06C52.4293 136.63 52.3393 136.19 52.2793 135.75L52.7593 135.69C52.8093 136.11 52.8993 136.52 53.0193 136.92L52.5593 137.06Z" fill="#8C501C"/>
<path d="M51.2899 137.87C51.0999 137.4 50.9398 136.91 50.8398 136.42L51.3098 136.32C51.4098 136.78 51.5498 137.24 51.7298 137.69L51.2899 137.87Z" fill="#8C501C"/>
<path d="M53.9193 136.35L53.8493 135.84C53.8093 135.58 53.7893 135.32 53.7793 135.05L54.2593 135.03C54.2593 135.09 54.2693 135.16 54.2693 135.22C54.4493 134.99 54.6193 134.75 54.7693 134.51L55.1793 134.77C54.9093 135.2 54.6093 135.6 54.2693 135.98L53.9193 136.35Z" fill="#8C501C"/>
<path d="M53.7793 135.05V134.97L54.2593 134.95V135.03L53.7793 135.05Z" fill="#8C501C"/>
<path d="M53.7793 135.05V134.97L54.2593 134.95V135.03L53.7793 135.05Z" fill="#8C501C"/>
<path d="M52.2795 135.75L52.5195 135.72L52.2795 135.75L52.2695 135.61L52.7395 135.54L52.7595 135.69L52.5195 135.72L52.2795 135.75Z" fill="#8C501C"/>
<path d="M55.9509 133.22C55.9409 133.26 55.9309 133.3 55.9109 133.34L55.4609 133.16C55.5109 133.04 55.5509 132.92 55.6009 132.8C55.6109 132.82 55.6309 132.83 55.6409 132.85H55.6509C55.7509 132.97 55.8509 133.09 55.9509 133.22Z" fill="#8C501C"/>
<path d="M53.7795 134.97C53.7795 134.88 53.7695 134.79 53.7695 134.7C53.7695 134.55 53.7695 134.4 53.7795 134.25V134.16L53.8395 134.1C54.2095 133.69 54.5495 133.25 54.8395 132.78L55.2495 133.03C54.9595 133.5 54.6295 133.95 54.2595 134.37C54.2595 134.48 54.2495 134.59 54.2495 134.71C54.2495 134.79 54.2495 134.88 54.2495 134.97H53.7795Z" fill="#8C501C"/>
<path d="M46.8097 136.96C46.6897 136.56 46.5997 136.15 46.5397 135.73L46.5197 135.59L46.3897 135.54C46.2597 135.49 46.1397 135.44 46.0197 135.39C45.5597 135.19 45.1197 134.95 44.6997 134.68C44.5797 134.6 44.4597 134.52 44.3497 134.43C44.2197 134.34 44.0897 134.24 43.9697 134.14C43.8497 134.04 43.7297 133.94 43.6097 133.82C43.4897 133.72 43.3797 133.61 43.2697 133.49C43.1597 133.38 43.0497 133.26 42.9497 133.14C42.9297 133.12 42.9097 133.09 42.8897 133.07C42.7797 133.2 42.6897 133.33 42.5897 133.46C42.7697 133.67 42.9497 133.86 43.1497 134.04C43.2697 134.16 43.3897 134.27 43.5197 134.38C44.1497 134.93 44.8497 135.38 45.6197 135.73C45.7697 135.8 45.9297 135.87 46.0897 135.93V135.94C46.1297 136.22 46.1797 136.48 46.2497 136.74C46.2297 136.74 46.2197 136.73 46.1997 136.73C46.0697 136.71 45.9397 136.69 45.8197 136.66C45.3597 136.56 44.9197 136.42 44.4897 136.25C44.3197 136.19 44.1597 136.11 43.9897 136.03C43.8297 135.96 43.6697 135.88 43.5097 135.78C43.3697 135.71 43.2297 135.63 43.0997 135.54C42.7797 135.34 42.4697 135.11 42.1697 134.86C42.0697 134.78 41.9797 134.7 41.8897 134.61C41.8097 134.76 41.7397 134.92 41.6797 135.07C41.8797 135.25 42.0897 135.42 42.3097 135.58C42.4497 135.68 42.5897 135.78 42.7297 135.87C42.9097 135.99 43.0897 136.1 43.2697 136.2C43.4397 136.29 43.6097 136.38 43.7797 136.46C44.1297 136.63 44.4797 136.77 44.8497 136.89C45.0297 136.95 45.2197 137.01 45.4097 137.05C45.7297 137.14 46.0597 137.2 46.3997 137.25C46.4497 137.26 46.4997 137.26 46.5497 137.27L46.9097 137.31L46.8097 136.96Z" fill="#8C501C"/>
<path d="M49.4093 136.92C49.3593 136.74 49.3093 136.55 49.2793 136.36L49.3593 136.34V136.07L49.7093 136.06L49.7493 136.26C49.7893 136.44 49.8293 136.61 49.8793 136.78L49.4093 136.92Z" fill="#8C501C"/>
<path d="M47.9194 137.15C47.8294 136.86 47.7495 136.55 47.6895 136.25L48.1595 136.16C48.2195 136.45 48.2894 136.74 48.3694 137.01L47.9194 137.15Z" fill="#8C501C"/>
<path d="M50.8408 136.42C50.8208 136.35 50.8108 136.27 50.8008 136.2L51.2708 136.11C51.2808 136.18 51.3008 136.25 51.3108 136.32L50.8408 136.42Z" fill="#8C501C"/>
<path d="M46.5399 135.73C46.4899 135.38 46.4698 135.04 46.4698 134.7C46.4698 134.49 46.4798 134.28 46.4998 134.08C46.4998 134.03 46.5098 133.99 46.5098 133.94L46.3898 133.86C46.2798 133.79 46.1698 133.71 46.0598 133.62V133.61C46.0498 133.6 46.0398 133.6 46.0298 133.6C46.0198 133.6 46.0098 133.59 45.9998 133.58C45.9798 133.57 45.9698 133.55 45.9498 133.54C45.9098 133.52 45.8798 133.48 45.8398 133.45C45.8398 133.45 45.8298 133.45 45.8298 133.44C45.7498 133.39 45.6798 133.33 45.6098 133.26C45.5998 133.26 45.5898 133.25 45.5798 133.24C45.4098 133.1 45.2499 132.95 45.0999 132.79C45.0699 132.77 45.0399 132.74 45.0199 132.71C44.8699 132.56 44.7299 132.4 44.5999 132.23C44.5899 132.21 44.5698 132.2 44.5598 132.18C44.4998 132.11 44.4398 132.04 44.3898 131.97C44.3398 131.9 44.2799 131.83 44.2399 131.76C44.1099 131.85 43.9898 131.95 43.8698 132.06C43.8798 132.08 43.8898 132.1 43.8998 132.12C43.9298 132.16 43.9599 132.2 43.9899 132.24C44.0299 132.3 44.0799 132.36 44.1299 132.42C44.2999 132.64 44.4998 132.86 44.6998 133.06C44.8998 133.28 45.0999 133.47 45.3199 133.65C45.5099 133.81 45.7099 133.96 45.9099 134.1C45.9399 134.14 45.9698 134.16 46.0098 134.18C45.9998 134.35 45.9899 134.52 45.9899 134.7C45.9899 134.93 45.9999 135.16 46.0199 135.39C45.5599 135.19 45.1198 134.95 44.6998 134.68C44.5798 134.6 44.4599 134.52 44.3499 134.43C44.2199 134.34 44.0898 134.24 43.9698 134.14C43.8498 134.04 43.7298 133.93 43.6098 133.82C43.4898 133.72 43.3799 133.61 43.2699 133.49C43.1599 133.38 43.0498 133.26 42.9498 133.14C42.9298 133.12 42.9098 133.09 42.8898 133.07C42.7798 133.2 42.6898 133.33 42.5898 133.46C42.7698 133.67 42.9498 133.86 43.1498 134.04C43.2698 134.16 43.3899 134.27 43.5199 134.38C44.1499 134.93 44.8498 135.38 45.6198 135.73C45.7698 135.8 45.9298 135.87 46.0898 135.93V135.94C46.1298 135.96 46.1798 135.97 46.2198 135.99L46.5898 136.13L46.5399 135.73Z" fill="#8C501C"/>
<path d="M49.3509 136.56V136.35L49.2709 136.37C49.2009 136.04 49.1609 135.72 49.1309 135.39L49.6109 135.35C49.6309 135.65 49.6809 135.96 49.7409 136.27L49.8009 136.55L49.3509 136.56Z" fill="#8C501C"/>
<path d="M47.6908 136.25C47.6108 135.8 47.5608 135.35 47.5508 134.9L48.0308 134.89C48.0408 135.32 48.0908 135.75 48.1708 136.16L47.6908 136.25Z" fill="#8C501C"/>
<path d="M50.7997 136.2C50.7597 135.99 50.7297 135.78 50.7097 135.57L50.6797 135.3L51.1097 135.31V135.53L51.1897 135.52C51.2097 135.72 51.2397 135.92 51.2797 136.12L50.7997 136.2Z" fill="#8C501C"/>
<path d="M52.27 135.61L52.25 135.45L52.73 135.41L52.74 135.56L52.27 135.61Z" fill="#8C501C"/>
<path d="M52.27 135.61L52.25 135.45L52.73 135.41L52.74 135.56L52.27 135.61Z" fill="#8C501C"/>
<path d="M46.6494 132.34C46.5594 132.29 46.4794 132.23 46.3894 132.16C46.3694 132.15 46.3494 132.14 46.3294 132.12C46.2694 132.09 46.2094 132.04 46.1594 132C46.0994 131.97 46.0394 131.92 45.9894 131.88C45.8494 131.77 45.7094 131.66 45.5794 131.54C45.4294 131.42 45.2794 131.28 45.1494 131.14C45.0094 131.22 44.8694 131.31 44.7294 131.4C45.0594 131.74 45.4094 132.05 45.7894 132.32C45.9394 132.44 46.0894 132.55 46.2494 132.65C46.1694 132.97 46.0994 133.28 46.0594 133.61V133.63C46.0494 133.62 46.0394 133.61 46.0294 133.6C46.0194 133.6 46.0094 133.59 45.9994 133.58C45.9794 133.57 45.9694 133.55 45.9494 133.54C45.9094 133.52 45.8794 133.48 45.8394 133.45C45.8394 133.45 45.8294 133.45 45.8294 133.44C45.7494 133.39 45.6794 133.33 45.6094 133.26C45.5994 133.26 45.5894 133.25 45.5794 133.24C45.4094 133.1 45.2494 132.95 45.0994 132.79C45.0694 132.77 45.0394 132.74 45.0194 132.71C44.8694 132.56 44.7294 132.39 44.5994 132.23C44.5894 132.21 44.5694 132.2 44.5594 132.18C44.4994 132.11 44.4394 132.04 44.3894 131.97C44.3394 131.9 44.2794 131.83 44.2394 131.76C44.1094 131.85 43.9894 131.95 43.8694 132.06H43.8594C43.8694 132.08 43.8894 132.1 43.8994 132.12C43.9294 132.16 43.9594 132.2 43.9894 132.24C44.0294 132.3 44.0794 132.36 44.1294 132.42C44.2994 132.64 44.4994 132.86 44.6994 133.06C44.8994 133.28 45.0994 133.47 45.3194 133.65C45.5094 133.81 45.7094 133.96 45.9094 134.1C45.9394 134.14 45.9694 134.16 46.0094 134.18C46.0394 134.21 46.0794 134.23 46.1194 134.26L46.4594 134.49L46.4994 134.08C46.4994 134.03 46.5094 133.99 46.5094 133.94C46.5494 133.49 46.6294 133.04 46.7594 132.61L46.7994 132.43L46.6494 132.34Z" fill="#8C501C"/>
<path d="M49.1296 135.39C49.1096 135.16 49.0996 134.93 49.0996 134.7C49.0996 134.36 49.1196 134 49.1696 133.65L49.6496 133.71C49.6096 134.04 49.5896 134.37 49.5896 134.7C49.5896 134.92 49.5996 135.13 49.6196 135.35L49.1296 135.39Z" fill="#8C501C"/>
<path d="M47.5508 134.89V134.7C47.5508 134.2 47.6008 133.7 47.6908 133.2L48.1608 133.29C48.0708 133.76 48.0308 134.23 48.0308 134.7V134.88L47.5508 134.89Z" fill="#8C501C"/>
<path d="M50.7004 135.56C50.6704 135.27 50.6504 134.98 50.6504 134.7C50.6504 134.41 50.6704 134.11 50.7004 133.82L51.1804 133.87C51.1504 134.14 51.1404 134.42 51.1404 134.7C51.1404 134.97 51.1504 135.24 51.1804 135.52L50.7004 135.56Z" fill="#8C501C"/>
<path d="M49.1296 135.39C49.1096 135.16 49.0996 134.93 49.0996 134.7C49.0996 134.36 49.1196 134 49.1696 133.65L49.6496 133.71C49.6096 134.04 49.5896 134.37 49.5896 134.7C49.5896 134.92 49.5996 135.13 49.6196 135.35L49.1296 135.39Z" fill="#8C501C"/>
<path d="M52.2509 135.45C52.2309 135.2 52.2109 134.95 52.2109 134.7C52.2109 134.37 52.2309 134.03 52.2709 133.7L52.7509 133.76C52.7109 134.07 52.6909 134.39 52.6909 134.7C52.6909 134.94 52.7009 135.18 52.7209 135.41L52.2509 135.45Z" fill="#8C501C"/>
<path d="M50.7004 135.56C50.6704 135.27 50.6504 134.98 50.6504 134.7C50.6504 134.41 50.6704 134.11 50.7004 133.82L50.7204 133.6L51.0904 133.61V133.86L51.1704 133.87C51.1404 134.14 51.1304 134.42 51.1304 134.7C51.1304 134.97 51.1404 135.24 51.1704 135.52L50.7004 135.56Z" fill="#8C501C"/>
<path d="M53.75 134.92L53.79 134.25C53.81 133.92 53.85 133.59 53.9 133.26L54.37 133.34C54.36 133.4 54.35 133.45 54.34 133.51C54.52 133.27 54.69 133.03 54.84 132.78L55.25 133.03C54.95 133.53 54.59 134 54.2 134.43L53.75 134.92Z" fill="#8C501C"/>
<path d="M47.2805 130.26C47.2105 130.37 47.1405 130.48 47.0805 130.59C46.7905 131.09 46.5605 131.61 46.3905 132.16V132.17C46.3705 132.16 46.3505 132.14 46.3305 132.12C46.2705 132.09 46.2105 132.04 46.1605 132C46.1005 131.97 46.0405 131.92 45.9905 131.88C45.8505 131.77 45.7105 131.66 45.5805 131.54C45.4305 131.42 45.2805 131.28 45.1505 131.14C45.0105 131.22 44.8705 131.31 44.7305 131.4C45.0605 131.74 45.4105 132.05 45.7905 132.32C45.9905 132.47 46.1905 132.61 46.4005 132.74L46.6705 132.91L46.7605 132.61C46.9305 131.99 47.1805 131.39 47.5005 130.82C47.6405 130.58 47.7805 130.34 47.9505 130.12C47.7205 130.16 47.5005 130.21 47.2805 130.26Z" fill="#8C501C"/>
<path d="M49.5894 130.01C48.8594 131 48.3695 132.11 48.1595 133.29L47.6895 133.2C47.8995 132.07 48.3495 130.98 48.9995 130.01C49.1195 130 49.2395 130 49.3595 130C49.4395 130 49.5094 130 49.5894 130.01Z" fill="#8C501C"/>
<path d="M50.5199 130.08C50.6899 130.1 50.8599 130.13 51.0199 130.17C50.8899 130.36 50.7699 130.55 50.6499 130.74C50.5499 130.91 50.4599 131.08 50.3899 131.26C50.3399 131.35 50.2999 131.43 50.2599 131.52C50.1699 131.72 50.0899 131.92 50.0199 132.12C50.0199 132.13 50.0099 132.15 50.0099 132.16C49.9199 132.41 49.8499 132.65 49.7899 132.9C49.7899 132.91 49.7899 132.92 49.7899 132.92C49.7299 133.18 49.6799 133.44 49.6499 133.71L49.1699 133.65C49.1899 133.51 49.2099 133.36 49.2399 133.22C49.2899 132.94 49.3599 132.66 49.4399 132.38C49.4799 132.24 49.5199 132.1 49.5699 131.97C49.6699 131.68 49.7899 131.4 49.9199 131.12C49.9699 131 50.0299 130.89 50.0899 130.78C50.1299 130.69 50.1799 130.6 50.2399 130.51C50.3199 130.36 50.4099 130.22 50.5199 130.08Z" fill="#8C501C"/>
<path d="M50.5199 130.08C50.6899 130.1 50.8599 130.13 51.0199 130.17C50.8899 130.36 50.7699 130.55 50.6499 130.74C50.5599 130.91 50.4599 131.08 50.3899 131.26C50.3399 131.35 50.2999 131.43 50.2599 131.52C50.1699 131.72 50.0899 131.92 50.0199 132.12C50.0199 132.13 50.0099 132.15 50.0099 132.16C49.9299 132.4 49.8499 132.65 49.7899 132.9C49.7899 132.91 49.7899 132.92 49.7899 132.92C49.7299 133.18 49.6799 133.44 49.6499 133.71L49.1699 133.65C49.1899 133.51 49.2099 133.36 49.2399 133.22C49.2899 132.94 49.3599 132.66 49.4399 132.38C49.4799 132.24 49.5199 132.1 49.5699 131.97C49.6699 131.68 49.7899 131.4 49.9199 131.12C49.9699 131 50.0299 130.89 50.0899 130.78C50.1299 130.69 50.1799 130.6 50.2399 130.51C50.3199 130.37 50.4099 130.22 50.4999 130.08" fill="#8C501C"/>
<path d="M51.869 130.39C52.029 130.44 52.179 130.49 52.329 130.55C52.319 130.56 52.319 130.57 52.309 130.59C52.039 131.04 51.809 131.52 51.629 132.01C51.559 132.18 51.509 132.35 51.459 132.52C51.329 132.96 51.239 133.41 51.189 133.87L51.109 133.86L50.709 133.82C50.719 133.75 50.729 133.67 50.739 133.6C50.759 133.43 50.789 133.26 50.819 133.1C50.879 132.81 50.949 132.53 51.029 132.26C51.099 132.04 51.179 131.82 51.269 131.61C51.359 131.37 51.459 131.14 51.579 130.92C51.669 130.74 51.759 130.56 51.869 130.39Z" fill="#8C501C"/>
<path d="M52.3097 130.59C52.0397 131.04 51.8097 131.52 51.6297 132.01C51.5597 132.18 51.5097 132.35 51.4597 132.52C51.3297 132.96 51.2397 133.41 51.1897 133.87L51.1097 133.86V134.08H50.6797L50.7097 133.82C50.7197 133.75 50.7297 133.67 50.7397 133.6H50.7497C50.7597 133.43 50.7897 133.26 50.8197 133.1C50.8797 132.81 50.9497 132.53 51.0297 132.26C51.0997 132.04 51.1797 131.82 51.2697 131.61C51.3597 131.37 51.4597 131.14 51.5797 130.92C51.6697 130.74 51.7597 130.56 51.8697 130.39C52.0297 130.44 52.1797 130.49 52.3297 130.55C52.3397 130.55 52.3397 130.55 52.3397 130.55C52.3297 130.56 52.3197 130.57 52.3097 130.59Z" fill="#8C501C"/>
<path d="M53.1393 130.91C53.2893 130.98 53.4293 131.06 53.5593 131.14C53.5293 131.2 53.4993 131.25 53.4793 131.31C53.4193 131.43 53.3593 131.55 53.3093 131.68C53.0293 132.34 52.8393 133.04 52.7593 133.76L52.2793 133.7C52.2993 133.5 52.3393 133.3 52.3793 133.1C52.4493 132.72 52.5493 132.35 52.6793 131.99C52.7393 131.81 52.8093 131.63 52.8893 131.45C52.9393 131.33 52.9893 131.21 53.0493 131.09C53.0793 131.03 53.1093 130.97 53.1293 130.91" fill="#8C501C"/>
<path d="M53.1393 130.91C53.2893 130.98 53.4293 131.06 53.5593 131.14C53.5293 131.2 53.4993 131.25 53.4793 131.31C53.4193 131.43 53.3593 131.55 53.3093 131.68C53.0293 132.34 52.8393 133.04 52.7593 133.76L52.2793 133.7C52.2993 133.5 52.3393 133.3 52.3793 133.1C52.4493 132.72 52.5493 132.35 52.6793 131.99C52.7393 131.81 52.8093 131.63 52.8893 131.45C52.9393 131.33 52.9893 131.21 53.0493 131.09C53.0793 131.03 53.1093 130.97 53.1293 130.91H53.1393Z" fill="#8C501C"/>
<path d="M54.3584 131.66C54.4884 131.76 54.6184 131.86 54.7484 131.97C54.7184 132.03 54.6984 132.09 54.6884 132.15C54.5584 132.54 54.4484 132.93 54.3784 133.34L53.8984 133.26C53.9884 132.77 54.1085 132.3 54.2885 131.84C54.3085 131.78 54.3384 131.72 54.3584 131.66Z" fill="#8C501C"/>
<path d="M54.7604 131.98C54.7304 132.03 54.7104 132.09 54.6904 132.15C54.5604 132.54 54.4504 132.93 54.3804 133.34L53.9004 133.26C53.9904 132.77 54.1104 132.3 54.2904 131.84C54.3104 131.78 54.3404 131.72 54.3604 131.66C54.4904 131.76 54.6204 131.86 54.7504 131.97" fill="#8C501C"/>
<path d="M55.4696 132.65V132.66C55.4596 132.67 55.4496 132.69 55.4396 132.7V132.71C55.3796 132.82 55.3196 132.92 55.2596 133.02L54.8496 132.78C54.9396 132.63 55.0296 132.47 55.1096 132.31C55.1096 132.3 55.1196 132.3 55.1196 132.3C55.2196 132.4 55.3196 132.5 55.4296 132.61C55.4396 132.62 55.4496 132.64 55.4696 132.65Z" fill="#8C501C"/>
<path d="M67.7 72C64.7 74.6 60.9 77.4 56 79.9" stroke="#B66A33" stroke-width="14.4133" stroke-miterlimit="10" stroke-linecap="round"/>
<path d="M86.4004 49.6001C86.4004 49.6001 85.0004 53.1001 80.9004 57.8001" stroke="#B66A33" stroke-width="14.4133" stroke-miterlimit="10" stroke-linecap="round"/>
<path d="M73.6992 66.5002C73.6992 66.5002 77.2992 64.7002 78.8992 60.7002" stroke="#FFBD8A" stroke-width="2" stroke-miterlimit="10" stroke-linecap="round"/>
<path d="M38.7997 167.4C38.7997 167.4 33.7997 163.6 33.1997 162.7C32.5997 161.8 38.6997 159.1 38.6997 159.1L38.7997 167.4Z" fill="#7C4C2A"/>
<path d="M71.7984 146.4C71.7984 146.4 71.2984 143.4 66.1984 140.1C61.0984 136.8 64.6984 144.9 64.6984 144.9L71.7984 146.4Z" fill="#7C4C2A"/>
<path d="M37.8 157.9C35.5 160.5 35.7 164.5 38.3 166.9C40.9 169.3 45 169.2 47.5 166.6C57.3 156.1 66.2 154.7 66.3 154.7C69.9 154.3 72.4 151.1 72.1 147.6C71.7 144 68.5 141.5 65 141.8C63.6 141.9 51.2 143.6 38.1 157.8C37.9 157.8 37.9 157.9 37.8 157.9Z" fill="#7C4C2A"/>
<path d="M61.3 144.6C61.3 144.6 50.3 145.8 38.5 158.6" stroke="#B66A33" stroke-width="12.9729" stroke-miterlimit="10" stroke-linecap="round"/>
<path d="M34.0991 163.6C31.2991 161.2 30.8991 156.9 33.3991 154.1C35.7991 151.3 40.0991 150.9 42.8991 153.4C45.6991 155.8 46.0991 160.1 43.5991 162.9C41.0991 165.7 36.9991 166 34.0991 163.6Z" fill="#FFBD8A"/>
<path d="M35.5991 161.9C33.6991 160.3 33.4991 157.4 35.0991 155.6C36.699 153.7 39.599 153.5 41.399 155.1C43.299 156.7 43.499 159.6 41.899 161.4C40.299 163.3 37.4991 163.5 35.5991 161.9Z" fill="#8C501C"/>
<path d="M116.5 84C116.5 84 111.6 80.1 111 79.3C110.5 78.5 116.5 75.8 116.5 75.8V84Z" fill="#7C4C2A"/>
<path d="M149.8 63.6001C149.8 63.6001 149.3 60.5001 144.3 57.2001C139.2 53.9001 142.8 62.0001 142.8 62.0001L149.8 63.6001Z" fill="#7C4C2A"/>
<path d="M115.7 74.5002C113.4 77.1002 113.5 81.1002 116 83.5002C118.6 86.0002 122.7 85.9002 125.2 83.3002C135.1 72.9002 144.1 71.7002 144.2 71.7002C147.8 71.4002 150.4 68.2002 150.1 64.7002C149.8 61.1002 146.6 58.5002 143.1 58.8002C141.7 58.9002 129.3 60.4002 115.9 74.3002C115.8 74.4002 115.7 74.5002 115.7 74.5002Z" fill="#7C4C2A"/>
<path d="M139.401 61.6001C139.401 61.6001 128.401 62.6001 116.301 75.2001" stroke="#B66A33" stroke-width="12.9729" stroke-miterlimit="10" stroke-linecap="round"/>
<path d="M178.198 57.8C180.849 57.8 182.998 56.0539 182.998 53.9C182.998 51.7461 180.849 50 178.198 50C175.547 50 173.398 51.7461 173.398 53.9C173.398 56.0539 175.547 57.8 178.198 57.8Z" fill="white"/>
<path d="M186.226 59.5306C186.965 57.5074 185.882 55.2527 183.807 54.4945C181.732 53.7363 179.451 54.7618 178.712 56.785C177.972 58.8081 179.055 61.0629 181.13 61.821C183.205 62.5792 185.487 61.5537 186.226 59.5306Z" fill="white"/>
<path d="M176.299 63.6C179.668 63.6 182.399 61.1824 182.399 58.2001C182.399 55.2177 179.668 52.8 176.299 52.8C172.93 52.8 170.199 55.2177 170.199 58.2001C170.199 61.1824 172.93 63.6 176.299 63.6Z" fill="white"/>
<path d="M182.199 57.5999C181.799 58.5999 180.699 59.0999 179.599 58.6999C178.799 58.3999 178.299 57.6999 178.299 56.8999C178.299 56.5999 178.299 56.3999 178.399 56.0999C178.799 55.0999 179.899 54.5999 180.999 54.9999C181.999 55.4999 182.499 56.5999 182.199 57.5999Z" fill="#CECECE"/>
<path d="M174.777 60.405C175.042 59.6787 174.668 58.8748 173.942 58.6095C173.216 58.3441 172.412 58.7178 172.146 59.444C171.881 60.1703 172.255 60.9742 172.981 61.2395C173.707 61.5049 174.511 61.1312 174.777 60.405Z" fill="#CECECE"/>
<path d="M84.2122 108.103C85.6599 107.189 85.9252 105.009 84.8047 103.235C83.6843 101.46 81.6023 100.762 80.1546 101.676C78.7068 102.591 78.4415 104.77 79.562 106.545C80.6825 108.319 82.7645 109.017 84.2122 108.103Z" fill="white"/>
<path d="M81.7584 112.621C83.4205 112.21 84.424 110.486 83.9998 108.771C83.5757 107.055 81.8845 105.997 80.2224 106.408C78.5603 106.819 77.5567 108.543 77.9809 110.259C78.405 111.974 80.0963 113.032 81.7584 112.621Z" fill="white"/>
<path d="M81.0158 109.457C83.014 108.174 83.4723 105.325 82.0394 103.094C80.6066 100.864 77.8252 100.096 75.827 101.38C73.8288 102.663 73.3705 105.512 74.8034 107.743C76.2362 109.973 79.0176 110.741 81.0158 109.457Z" fill="white"/>
<path d="M81.3 109.1C80.5 109.3 79.6 108.7 79.4 107.8C79.3 107.2 79.5 106.5 80 106.2C80.2 106.1 80.4 106 80.6 105.9C81.4 105.7 82.3 106.3 82.5 107.2C82.7 108.1 82.2 108.9 81.3 109.1Z" fill="#CECECE"/>
<path d="M76.4494 105.163C77.0392 105.017 77.3991 104.42 77.2533 103.831C77.1075 103.241 76.5112 102.881 75.9214 103.027C75.3316 103.173 74.9717 103.769 75.1175 104.359C75.2633 104.948 75.8596 105.308 76.4494 105.163Z" fill="#CECECE"/>
<path d="M91.2004 109.8C93.0229 109.8 94.5004 108.591 94.5004 107.1C94.5004 105.609 93.0229 104.4 91.2004 104.4C89.3778 104.4 87.9004 105.609 87.9004 107.1C87.9004 108.591 89.3778 109.8 91.2004 109.8Z" fill="white"/>
<path d="M97.4798 111.256C98.1432 109.441 97.167 107.416 95.2995 106.733C93.432 106.051 91.3802 106.97 90.7168 108.785C90.0534 110.601 91.0296 112.626 92.8971 113.309C94.7646 113.991 96.8164 113.072 97.4798 111.256Z" fill="white"/>
<path d="M89.7996 113.7C92.1192 113.7 93.9996 112.043 93.9996 110C93.9996 107.956 92.1192 106.3 89.7996 106.3C87.48 106.3 85.5996 107.956 85.5996 110C85.5996 112.043 87.48 113.7 89.7996 113.7Z" fill="white"/>
<path d="M93.3992 109.4C93.1992 109.8 92.6992 110.1 92.2992 109.9C91.9992 109.8 91.6992 109.5 91.6992 109.2C91.6992 109.1 91.6992 109 91.6992 108.9C91.8992 108.5 92.3992 108.2 92.7992 108.4C93.2992 108.5 93.5992 109 93.3992 109.4Z" fill="#FFE2CB"/>
<path d="M88.8008 111.572C88.9714 111.106 88.6891 110.573 88.1703 110.384C87.6516 110.194 87.0928 110.419 86.9222 110.886C86.7516 111.353 87.0338 111.885 87.5526 112.075C88.0713 112.264 88.6302 112.039 88.8008 111.572Z" fill="#FFE2CB"/>
</g>
<path d="M38.3008 126.5C42.4429 126.5 45.8008 125.291 45.8008 123.8C45.8008 122.309 42.4429 121.1 38.3008 121.1C34.1586 121.1 30.8008 122.309 30.8008 123.8C30.8008 125.291 34.1586 126.5 38.3008 126.5Z" fill="#B9BDC3"/>
<path d="M41.8012 57.1001H34.7012V122.7H41.8012V57.1001Z" fill="#B9BDC3"/>
<path opacity="0.2" d="M41.8004 57.1001H39.9004V122.7H41.8004V57.1001Z" fill="black"/>
<path d="M43.5016 33H33.1016V69H43.5016V33Z" fill="#FA9664"/>
<path d="M43.4016 33L33.1016 38.3V33.1L33.2016 33H43.4016Z" fill="#FFF173"/>
<path d="M43.5016 40.0999L33.1016 45.4999V40.2999L43.5016 34.8999V40.0999Z" fill="#FFF173"/>
<path d="M43.5016 47.3001L33.1016 52.7001V47.5001L43.5016 42.1001V47.3001Z" fill="#FFF173"/>
<path d="M43.5016 54.5L33.1016 59.9001V54.7001L43.5016 49.3V54.5Z" fill="#FFF173"/>
<path d="M43.5016 61.7L33.1016 67.1V61.8L43.5016 56.5V61.7Z" fill="#FFF173"/>
<path d="M43.5012 63.7V68.9L43.3012 69H33.2012L43.5012 63.7Z" fill="#FFF173"/>
<path d="M43.5016 33H33.1016V69H43.5016V33Z" fill="#FA9664"/>
<path d="M43.4016 33L33.1016 38.3V33.1L33.2016 33H43.4016Z" fill="#FFF173"/>
<path d="M43.5016 40.0999L33.1016 45.4999V40.2999L43.5016 34.8999V40.0999Z" fill="#FFF173"/>
<path d="M43.5016 47.3001L33.1016 52.7001V47.5001L43.5016 42.1001V47.3001Z" fill="#FFF173"/>
<path d="M43.5016 54.5L33.1016 59.9001V54.7001L43.5016 49.3V54.5Z" fill="#FFF173"/>
<path d="M43.5016 61.7L33.1016 67.1V61.8L43.5016 56.5V61.7Z" fill="#FFF173"/>
<path d="M43.5012 63.7V68.9L43.3012 69L43.1012 69.2C40.4012 72.2 35.7012 72.1 33.2012 69L43.5012 63.7Z" fill="#FFF173"/>
<path opacity="0.2" d="M43.5008 68.9L41.3008 70.7V33H43.5008V68.9Z" fill="black"/>
<path d="M38.1 36.7999C45.3349 36.7999 51.2 34.6509 51.2 32C51.2 29.349 45.3349 27.2 38.1 27.2C30.8651 27.2 25 29.349 25 32C25 34.6509 30.8651 36.7999 38.1 36.7999Z" fill="#FA9664"/>
<path d="M38.1 35.9999C45.3349 35.9999 51.2 33.8509 51.2 31.1999C51.2 28.5489 45.3349 26.3999 38.1 26.3999C30.8651 26.3999 25 28.5489 25 31.1999C25 33.8509 30.8651 35.9999 38.1 35.9999Z" fill="#FFF173"/>
<path d="M50.1992 30.3001C50.1992 32.6001 44.7992 34.5001 38.1992 34.5001C35.4992 34.5001 32.9992 34.2001 30.9992 33.6001C30.3992 33.4001 29.7992 33.3001 29.2992 33.1001C28.9992 33.0001 28.6992 32.9001 28.4992 32.8001C28.1992 32.7001 27.8992 32.5001 27.6992 32.4001C26.6992 31.8001 26.1992 31.1001 26.1992 30.3001C26.1992 29.5001 26.7992 28.8001 27.6992 28.2001C27.8992 28.0001 28.1992 27.9001 28.4992 27.8001C28.6992 27.7001 28.9992 27.6001 29.2992 27.5001C29.7992 27.3001 30.2992 27.1001 30.9992 27.0001C32.9992 26.5001 35.4992 26.1001 38.1992 26.1001C44.7992 26.1001 50.1992 28.0001 50.1992 30.3001Z" fill="#6AC86E"/>
<path d="M50.1004 11.1001H27.4004V30.6001H50.1004V11.1001Z" fill="#219750"/>
<path d="M49.5 11.1001H26V30.6001H49.5V11.1001Z" fill="#6AC86E"/>
<path d="M45.4992 30.3001C45.4992 31.3001 42.1992 32.1001 38.0992 32.1001C33.9992 32.1001 30.6992 31.3001 30.6992 30.3001C30.6992 29.3001 33.9992 23.4001 38.0992 23.4001C42.1992 23.4001 45.4992 29.3001 45.4992 30.3001Z" fill="#219750"/>
<path d="M32.6992 30.1C35.1845 30.1 37.1992 27.1003 37.1992 23.4C37.1992 19.6996 35.1845 16.7 32.6992 16.7C30.2139 16.7 28.1992 19.6996 28.1992 23.4C28.1992 27.1003 30.2139 30.1 32.6992 30.1Z" fill="white"/>
<path d="M33.6992 30.1C36.1845 30.1 38.1992 27.1003 38.1992 23.4C38.1992 19.6996 36.1845 16.7 33.6992 16.7C31.2139 16.7 29.1992 19.6996 29.1992 23.4C29.1992 27.1003 31.2139 30.1 33.6992 30.1Z" fill="#1A844B"/>
<path d="M40.0996 30.1C42.5849 30.1 44.5996 27.1003 44.5996 23.4C44.5996 19.6996 42.5849 16.7 40.0996 16.7C37.6143 16.7 35.5996 19.6996 35.5996 23.4C35.5996 27.1003 37.6143 30.1 40.0996 30.1Z" fill="#1A844B"/>
<path d="M43.5 30.1C45.9853 30.1 48 27.1003 48 23.4C48 19.6996 45.9853 16.7 43.5 16.7C41.0147 16.7 39 19.6996 39 23.4C39 27.1003 41.0147 30.1 43.5 30.1Z" fill="white"/>
<path opacity="0.5" d="M29.1996 11.1001V32.3001C28.8996 32.2001 28.5996 32.1001 28.3996 32.1001C28.0996 32.0001 27.7996 31.9001 27.5996 31.8001V11.1001H29.1996Z" fill="white"/>
<path opacity="0.5" d="M30.9004 11.0999V32.5999C30.3004 32.4999 29.7004 32.3999 29.2004 32.1999C28.9004 32.0999 28.6004 31.9999 28.4004 31.9999V10.8999L30.9004 11.0999Z" fill="white"/>
<path d="M38.1 16.4C45.3349 16.4 51.2 14.251 51.2 11.6C51.2 8.94908 45.3349 6.80005 38.1 6.80005C30.8651 6.80005 25 8.94908 25 11.6C25 14.251 30.8651 16.4 38.1 16.4Z" fill="#FA9664"/>
<path d="M38.1 15.6C45.3349 15.6 51.2 13.451 51.2 10.8C51.2 8.14903 45.3349 6 38.1 6C30.8651 6 25 8.14903 25 10.8C25 13.451 30.8651 15.6 38.1 15.6Z" fill="#FFF173"/>
<defs>
<clipPath id="clip0">
<rect width="173.7" height="138.7" fill="white" transform="translate(27 30)"/>
</clipPath>
</defs>
</svg>
