<svg xmlns="http://www.w3.org/2000/svg" xmlns:xlink="http://www.w3.org/1999/xlink" viewBox="0 0 396.99 371.2"><defs><style>.cls-1{fill:none;}.cls-2{clip-path:url(#clip-path);}.cls-3{fill:#34439c;}.cls-13,.cls-20,.cls-4,.cls-8{fill:#332e2e;}.cls-26,.cls-4{opacity:0.2;}.cls-13,.cls-4,.cls-7,.cls-8{isolation:isolate;}.cls-5{fill:#223393;}.cls-6{fill:#0e2185;}.cls-7{opacity:0.77;}.cls-8{opacity:0.06;}.cls-9{clip-path:url(#clip-path-2);}.cls-10,.cls-13{opacity:0.15;}.cls-11{fill:#434343;}.cls-12{clip-path:url(#clip-path-3);}.cls-14{fill:#be8f68;}.cls-15{fill:#009047;}.cls-16{fill:#ffe18c;}.cls-17{fill:#00a551;}.cls-18{fill:#fff;}.cls-19{fill:#fd9a0c;}.cls-21{fill:#fdd500;}.cls-22{fill:#8d00a3;}.cls-23{fill:#b231cc;}.cls-24{opacity:0.4;fill:url(#linear-gradient);}.cls-25{clip-path:url(#clip-path-6);}</style><clipPath id="clip-path"><circle class="cls-1" cx="216.59" cy="180.4" r="180.4"/></clipPath><clipPath id="clip-path-2"><rect class="cls-1" x="-132.52" y="233.5" width="640.76" height="131.62"/></clipPath><clipPath id="clip-path-3"><rect class="cls-1" x="-132.52" y="-35.26" width="640.76" height="268.76"/></clipPath><linearGradient id="linear-gradient" x1="210.49" y1="343.25" x2="210.49" y2="251.45" gradientUnits="userSpaceOnUse"><stop offset="0.23" stop-color="#223393"/><stop offset="0.77" stop-color="#223393" stop-opacity="0"/></linearGradient><clipPath id="clip-path-6"><circle class="cls-1" cx="216.59" cy="-245.6" r="180.4"/></clipPath></defs><title>CodeLab2015-overlays-diversity</title><g id="Layer_1" data-name="Layer 1"><g id="New_Symbol-3" data-name="New Symbol"><g class="cls-2"><g id="Dance_Studio" data-name="Dance Studio"><rect class="cls-3" x="-132.52" y="-35.26" width="640.76" height="268.76"/><polygon class="cls-4" points="45.46 48.69 137.24 34.74 153.9 147.97 61.22 160.76 45.46 48.69"/><rect class="cls-5" x="50.71" y="39.78" width="93.64" height="113.18" transform="translate(-12.47 14.53) rotate(-8.01)"/><polygon class="cls-3" points="100.64 63.37 114.26 63.49 103.94 69.34 100.64 63.37"/><path class="cls-6" d="M110.9,134.81a7.41,7.41,0,0,0-11.83-8.91Z"/><path class="cls-6" d="M120.2,122.08c-5.91-42-18-67.38-28.31-65.93S77,85.3,82.87,127.33Z"/><path class="cls-6" d="M85.68,94.24l-24.36-8S62.54,102.73,85,104.61,85.68,94.24,85.68,94.24Z"/><path class="cls-6" d="M108.37,91.05,129.6,76.69s3.36,16.13-17.72,24.14S108.37,91.05,108.37,91.05Z"/><path class="cls-3" d="M92.7,125.95c-2.2-27.29,4.71-44.9,15.77-51.32,4.73,11.35,8.92,27.52,11.73,47.45Z"/><g class="cls-7"><path class="cls-3" d="M90.66,68.46a.87.87,0,0,1-.86-.75,4,4,0,0,1,7.83-1.1.87.87,0,0,1-1.72.24,2.18,2.18,0,0,0-.86-1.45,2.22,2.22,0,0,0-3.11.44,2.19,2.19,0,0,0-.42,1.63.87.87,0,0,1-.74,1Z"/></g><path class="cls-6" d="M104.74,136.36a7.41,7.41,0,0,0-11.83-8.91Z"/><path class="cls-3" d="M118.35,110.52l-36.9,5.19-4.71,14a5.1,5.1,0,0,0,7.15-1,5.1,5.1,0,0,1,7.15-1,5.1,5.1,0,0,0,7.15-1,5.1,5.1,0,0,1,7.15-1,5.1,5.1,0,0,0,7.15-1,5.1,5.1,0,0,1,7.15-1,5.1,5.1,0,0,0,7.15-1Z"/><polygon class="cls-8" points="-132.52 145.26 -132.52 -35.26 185.63 -35.26 -132.52 145.26"/><rect class="cls-3" x="208.15" y="-35.26" width="217.16" height="159.7"/><rect class="cls-5" x="-132.52" y="232.5" width="640.76" height="131.62"/><g class="cls-9"><g class="cls-10"><path class="cls-11" d="M-78.15,365.53a.4.4,0,0,1-.3-.13.4.4,0,0,1,0-.57l144-131.62a.4.4,0,0,1,.54.59l-144,131.62A.4.4,0,0,1-78.15,365.53Z"/><path class="cls-11" d="M-111.4,365.53a.4.4,0,0,1-.31-.15.4.4,0,0,1,.06-.56L50.29,233.19a.4.4,0,1,1,.5.62L-111.15,365.44A.4.4,0,0,1-111.4,365.53Z"/><path class="cls-11" d="M-44.9,365.53a.4.4,0,0,1-.28-.11.4.4,0,0,1,0-.57l126-131.62a.4.4,0,0,1,.58.55l-126,131.62A.4.4,0,0,1-44.9,365.53Z"/><path class="cls-11" d="M-11.65,365.53a.4.4,0,0,1-.25-.09.4.4,0,0,1-.06-.56L96,233.25a.4.4,0,0,1,.62.51l-108,131.62A.4.4,0,0,1-11.65,365.53Z"/><path class="cls-11" d="M21.6,365.53a.4.4,0,0,1-.33-.63l90-131.62a.4.4,0,1,1,.66.45l-90,131.62A.4.4,0,0,1,21.6,365.53Z"/><path class="cls-11" d="M54.85,365.53a.4.4,0,0,1-.35-.59l72-131.62a.4.4,0,0,1,.7.38l-72,131.62A.4.4,0,0,1,54.85,365.53Z"/><path class="cls-11" d="M88.1,365.53a.4.4,0,0,1-.37-.55l54-131.62a.4.4,0,0,1,.74.3l-54,131.62A.4.4,0,0,1,88.1,365.53Z"/><path class="cls-11" d="M121.36,365.53h-.11A.4.4,0,0,1,121,365L157,233.4a.41.41,0,0,1,.49-.28.4.4,0,0,1,.28.49l-36,131.62A.4.4,0,0,1,121.36,365.53Z"/><path class="cls-11" d="M154.61,365.53h-.05a.4.4,0,0,1-.34-.45l18-131.62a.39.39,0,0,1,.45-.34.4.4,0,0,1,.34.45L155,365.18A.4.4,0,0,1,154.61,365.53Z"/><path class="cls-11" d="M187.86,365.53a.4.4,0,0,1-.4-.4V233.5a.4.4,0,0,1,.8,0V365.13A.4.4,0,0,1,187.86,365.53Z"/><path class="cls-11" d="M221.11,365.53a.4.4,0,0,1-.4-.35l-18-131.62a.4.4,0,0,1,.34-.45.39.39,0,0,1,.45.34l18,131.62a.4.4,0,0,1-.34.45Z"/><path class="cls-11" d="M254.36,365.53a.4.4,0,0,1-.39-.29L218,233.61a.4.4,0,1,1,.77-.21l36,131.62a.4.4,0,0,1-.28.49Z"/><path class="cls-11" d="M287.61,365.53a.4.4,0,0,1-.37-.25l-54-131.62a.4.4,0,0,1,.74-.3L288,365a.4.4,0,0,1-.37.55Z"/><path class="cls-11" d="M320.87,365.53a.4.4,0,0,1-.35-.21l-72-131.62a.4.4,0,0,1,.7-.38l72,131.62a.4.4,0,0,1-.35.59Z"/><path class="cls-11" d="M354.12,365.53a.4.4,0,0,1-.33-.17l-90-131.62a.4.4,0,1,1,.66-.45l90,131.62a.4.4,0,0,1-.33.63Z"/><path class="cls-11" d="M387.37,365.53a.4.4,0,0,1-.31-.15l-108-131.62a.4.4,0,0,1,.62-.51l108,131.62a.4.4,0,0,1-.06.56A.4.4,0,0,1,387.37,365.53Z"/><path class="cls-11" d="M420.62,365.53a.4.4,0,0,1-.29-.12l-126-131.62a.4.4,0,0,1,.58-.55l126,131.62a.4.4,0,0,1-.29.68Z"/><path class="cls-11" d="M453.87,365.53a.4.4,0,0,1-.27-.1l-144-131.62a.4.4,0,0,1,.54-.59l144,131.62a.4.4,0,0,1-.27.7Z"/><path class="cls-11" d="M487.12,365.53a.4.4,0,0,1-.25-.09L324.92,233.81a.4.4,0,1,1,.5-.62L487.38,364.82a.4.4,0,0,1-.25.71Z"/><path class="cls-11" d="M334.83,241.75H318.5a.4.4,0,0,1,0-.8h16.33a.4.4,0,0,1,0,.8Z"/><path class="cls-11" d="M302.17,241.75H285.84a.4.4,0,0,1,0-.8h16.33a.4.4,0,1,1,0,.8Z"/><path class="cls-11" d="M269.51,241.75H253.22a.4.4,0,0,1,0-.8h16.29a.4.4,0,0,1,0,.8Z"/><path class="cls-11" d="M236.85,241.75H220.52a.4.4,0,0,1,0-.8h16.33a.4.4,0,1,1,0,.8Z"/><path class="cls-11" d="M204.19,241.75H187.86a.4.4,0,0,1,0-.8h16.33a.4.4,0,0,1,0,.8Z"/><path class="cls-11" d="M171.52,241.75H155.2a.4.4,0,1,1,0-.8h16.32a.4.4,0,0,1,0,.8Z"/><path class="cls-11" d="M138.87,241.75H122.54a.4.4,0,0,1,0-.8h16.33a.4.4,0,1,1,0,.8Z"/><path class="cls-11" d="M106.21,241.75H89.88a.4.4,0,0,1,0-.8h16.33a.4.4,0,0,1,0,.8Z"/><path class="cls-11" d="M73.52,241.75H57.22a.4.4,0,0,1,0-.8h16.3a.4.4,0,0,1,0,.8Z"/><path class="cls-11" d="M40.89,241.75h-17a.4.4,0,0,1,0-.8h17a.4.4,0,0,1,0,.8Z"/><path class="cls-11" d="M339.72,345.28H309.79a.4.4,0,0,1,0-.8h29.93a.4.4,0,0,1,0,.8Z"/><path class="cls-11" d="M279.31,345.28H248.87a.4.4,0,1,1,0-.8h30.44a.4.4,0,0,1,0,.8Z"/><path class="cls-11" d="M218.34,345.28H187.86a.4.4,0,0,1,0-.8h30.48a.4.4,0,0,1,0,.8Z"/><path class="cls-11" d="M157.38,345.28H126.89a.4.4,0,0,1,0-.8h30.48a.4.4,0,0,1,0,.8Z"/><path class="cls-11" d="M96.41,345.28H65.93a.4.4,0,0,1,0-.8H96.41a.4.4,0,0,1,0,.8Z"/><path class="cls-11" d="M318.86,282H297a.4.4,0,0,1,0-.8h21.83a.4.4,0,1,1,0,.8Z"/><path class="cls-11" d="M275.19,282H253.36a.4.4,0,0,1,0-.8h21.83a.4.4,0,1,1,0,.8Z"/><path class="cls-11" d="M231.53,282H209.69a.4.4,0,0,1,0-.8h21.83a.4.4,0,1,1,0,.8Z"/><path class="cls-11" d="M187.86,282H166a.4.4,0,0,1,0-.8h21.83a.4.4,0,0,1,0,.8Z"/><path class="cls-11" d="M144.19,282H122.36a.4.4,0,0,1,0-.8h21.83a.4.4,0,0,1,0,.8Z"/><path class="cls-11" d="M100.53,282H78.69a.4.4,0,0,1,0-.8h21.83a.4.4,0,0,1,0,.8Z"/><path class="cls-11" d="M56.86,282H35.08a.4.4,0,0,1,0-.8H56.86a.4.4,0,0,1,0,.8Z"/></g></g><path class="cls-5" d="M236.29,66h1.18V62.46A9.43,9.43,0,0,1,246.9,53a7.92,7.92,0,0,1,4.24,1.15,9.43,9.43,0,0,1,18.16,3.57v3.4a10,10,0,0,1,5.15,15.46H230.16A7.07,7.07,0,0,1,236.29,66Z"/><g id="_Group_" data-name="&lt;Group&gt;"><path class="cls-5" d="M275.14,81.63h1v-3a8,8,0,0,1,7.95-7.95,6.67,6.67,0,0,1,3.57,1,7.94,7.94,0,0,1,15.3,3v2.87a8.43,8.43,0,0,1,4.34,13H270a6,6,0,0,1,5.16-8.94Z"/></g><path class="cls-5" d="M353.32,50.19H355V45.1a13.57,13.57,0,0,1,13.57-13.57,11.39,11.39,0,0,1,6.1,1.65,13.56,13.56,0,0,1,26.12,5.13v4.89a14.39,14.39,0,0,1,7.41,22.24H344.51a10.17,10.17,0,0,1,8.81-15.26Z"/><rect class="cls-4" x="213" y="-35.3" width="4.85" height="164.99"/><rect class="cls-4" x="207.12" y="128.45" width="231.64" height="10.5"/><path class="cls-5" d="M430.16,124.44V-35.3h-4.85V36.12H320.58V-35.3h-2.85V36.12H213V-35.3h-4.85V124.44h-5v10.5H435.2v-10.5Zm-112.43,0H213V39H317.73v85.47Zm107.58,0H320.58V39H425.31Z"/><g class="cls-12"><rect class="cls-4" x="342.72" y="174.45" width="300.59" height="9.02"/><rect class="cls-5" x="342.72" y="170.09" width="300.59" height="6.47"/><rect class="cls-4" x="342.72" y="174.48" width="300.59" height="2.08"/></g><g class="cls-12"><rect class="cls-4" x="-267.58" y="174.45" width="300.59" height="9.02"/><rect class="cls-5" x="-267.58" y="170.09" width="300.59" height="6.47"/><rect class="cls-4" x="-267.58" y="174.48" width="300.59" height="2.08"/></g><g class="cls-12"><circle class="cls-5" cx="355.69" cy="176.56" r="2.6"/><circle class="cls-5" cx="386.21" cy="176.56" r="2.6"/><circle class="cls-5" cx="20.03" cy="176.56" r="2.6"/><circle class="cls-5" cx="325.18" cy="176.56" r="2.6"/><circle class="cls-5" cx="50.54" cy="176.56" r="2.6"/><circle class="cls-5" cx="81.06" cy="176.56" r="2.6"/><circle class="cls-5" cx="111.57" cy="176.56" r="2.6"/><circle class="cls-5" cx="142.09" cy="176.56" r="2.6"/><circle class="cls-5" cx="172.6" cy="176.56" r="2.6"/><circle class="cls-5" cx="203.12" cy="176.56" r="2.6"/><circle class="cls-5" cx="233.63" cy="176.56" r="2.6"/><circle class="cls-5" cx="264.15" cy="176.56" r="2.6"/><circle class="cls-5" cx="294.66" cy="176.56" r="2.6"/><rect class="cls-4" x="33" y="174.45" width="309.72" height="9.02"/><rect class="cls-5" x="33" y="170.09" width="309.72" height="6.47"/><rect class="cls-4" x="33" y="174.48" width="309.72" height="2.08"/></g><polygon class="cls-13" points="508.24 306.26 -132.52 255.26 -132.52 365.13 508.24 365.13 508.24 306.26"/></g><g id="Layer_1-2" data-name="Layer 1"><g id="New_Symbol-4" data-name="New Symbol"><path class="cls-14" d="M164.21,121.25a4.72,4.72,0,0,0-1.89.14c-4.75-4.3-11.62-6.84-16.9-4.65-7.6,3.15-9.06,14.85-5.91,22.45a14.88,14.88,0,0,0,28.2-9.23c.19-1,.37-2.12.54-3.45A4.7,4.7,0,0,0,164.21,121.25Z"/><path class="cls-15" d="M258.56,416.08a10.32,10.32,0,0,1-10.3-9.89c-.55-13.31-.3-25,0-37.3.27-12.16.54-24.73,0-39.71a10.32,10.32,0,0,1,20.63-.71c.53,15.55.25,28.42,0,40.87-.26,12-.51,23.33,0,36A10.32,10.32,0,0,1,259,416.07Z"/><path class="cls-15" d="M370.24,279.83l-.32-.17-3.27-1.78c-1-.59-2.34-1.37-3.82-2.23s-3.15-1.95-5-3.07L352,268.76c-2.06-1.41-4.27-2.85-6.5-4.43s-4.56-3.19-6.88-4.89-4.66-3.44-7-5.2-4.62-3.57-6.87-5.35-4.44-3.56-6.48-5.33l-3-2.59-2.82-2.53c-1.87-1.63-3.46-3.25-5-4.72s-2.76-2.86-3.94-4.08Q302,228,301,226.82l-2.37-3.36-.08-.11a7.69,7.69,0,0,0-10.07-2.23c-.18.1-.35.22-.52.33a39.35,39.35,0,0,0-69.69,19l-7.78,53.79a39.37,39.37,0,1,0,77.92,11.28l7.78-53.79a39.77,39.77,0,0,0,.39-4.73c1.07,1.26,2.19,2.57,3.4,3.85l2.79,3,3,3.08c2,2.12,4.15,4.17,6.31,6.32s4.4,4.23,6.66,6.32,4.52,4.16,6.79,6.15,4.51,4,6.7,5.83,4.36,3.64,6.39,5.34,4,3.24,5.87,4.68,3.54,2.74,5.11,3.88,2.91,2.14,4.08,2.95l3.73,2.54c.33.22.68.44,1,.63a12.37,12.37,0,1,0,11.85-21.73Z"/><path class="cls-16" d="M385.1,291.83c-.54-.42-1.08-.83-1.64-1.22.69-.37,1.44-.8,2.28-1.29a4.7,4.7,0,0,0-4.78-8.09c-4.08,2.41-5.27,2.66-6.43,2.89a17.34,17.34,0,0,0-6.18,2.5,4.77,4.77,0,0,0-.48.36,9.78,9.78,0,0,0-3.31,2.78A15.54,15.54,0,0,0,367.84,312c6.46,4.57,17.36,5.37,22.5-.64C396.12,304.63,392,297.26,385.1,291.83Z"/><path class="cls-15" d="M318.28,139.81c.14-1.15-16.7-37.45,16.3-39.45,0,0-69.62-24.87-95,23.11l78.73,16.33"/><path class="cls-17" d="M288.11,139.81c.14-1.15-3.67-39.45,46.47-39.45,0,0-69.62-24.87-95,23.11l78.73,16.33"/><path class="cls-18" d="M327.9,99.78a8.44,8.44,0,1,0,9-7.77A8.43,8.43,0,0,0,327.9,99.78Z"/><path class="cls-19" d="M312.4,196.65a26.88,26.88,0,0,0-5.55-6.2,42.87,42.87,0,1,0-79.37-15.92,26.92,26.92,0,0,0-17.9,24.21,26.93,26.93,0,0,0,28.37-5.4c.35-.23.69-.46,1.06-.66,9.94-5.32,22.28-9.1,33.57-5.53a53.15,53.15,0,0,1,16.51,8.3,26.92,26.92,0,0,0,25.73,25.79A26.94,26.94,0,0,0,312.4,196.65Z"/><path class="cls-14" d="M323.11,156s-2,41.24-22,36.71a39.38,39.38,0,0,1-69.5-15c-22.67-2.15-6.81-42.76-6.81-42.76l8.58,19a39.38,39.38,0,0,1,75.92,14.24Z"/><path class="cls-18" d="M252.71,187.13a19.67,19.67,0,0,0,37.68-1.59Z"/><polygon class="cls-14" points="270.02 181.05 264.35 179.83 264.84 171.39 273.02 173.13 270.02 181.05"/><path class="cls-20" d="M293.94,168a7,7,0,1,1-5.4-8.34A7,7,0,0,1,293.94,168Z"/><path class="cls-20" d="M262.53,161.3a7,7,0,1,1-5.4-8.34A7,7,0,0,1,262.53,161.3Z"/><path class="cls-19" d="M283.42,139c-6.62-3.21-22.56-7.7-35.76-4.19l-2.5.06c-13.2,3.51-16.16,13.64-9.54,16.85h0c6.62,3.21,32.15,7.6,45.35,4.09l8.46-2.54c13.2-3.51.61-11.06-6-14.26Z"/><path class="cls-18" d="M321.78,141.28l-2,9.4a5.24,5.24,0,0,1-6.22,4L237,138.36a5.24,5.24,0,0,1-4-6.22l2-9.4a5.24,5.24,0,0,1,6.22-4l76.51,16.35a5.24,5.24,0,0,1,4,6.22"/><path class="cls-15" d="M240.21,416.08a10.33,10.33,0,0,1-10.27-11.46c2.53-22.87,1.67-40.21.58-62.15-.21-4.22-.43-8.59-.63-13.18a10.32,10.32,0,0,1,9.86-10.77h.46a10.32,10.32,0,0,1,10.3,9.87c.2,4.55.42,8.89.63,13.07,1.09,22,2,40.94-.68,65.46A10.32,10.32,0,0,1,240.21,416.08Z"/><path class="cls-17" d="M262.86,207.07a39.25,39.25,0,0,0-30.56,8.5A9,9,0,0,0,230,214c-40.61-20.44-45.91-24.27-63.64-67.75-.18-.84-.65-3.45-2.54-4a9,9,0,0,0-15.06,7.1,1.37,1.37,0,0,0-.05.15l.08.24a8.93,8.93,0,0,0,.61,2.44c19.76,48.59,27.55,55.2,72,77.58a39.36,39.36,0,0,0-3.15,10.71l-7.78,53.79a39.37,39.37,0,0,0,33.32,44.6c21.52,3.11,25.32-14.15,28.43-35.67L280,249.33C283.13,227.82,284.38,210.19,262.86,207.07Z"/><path class="cls-18" d="M241.91,314.76h-.1a1.28,1.28,0,0,1-1.18-1.37l.54-7.07c3.07-40.41,6.25-82.2,16.62-95.83a1.28,1.28,0,1,1,2,1.55c-9.91,13-13.2,56.29-16.1,94.47l-.54,7.08A1.28,1.28,0,0,1,241.91,314.76Z"/><polygon class="cls-15" points="300.39 346.98 188.23 330.75 211.51 294.97 288.21 306.07 300.39 346.98"/><polygon class="cls-17" points="281.8 344.29 188.23 330.75 211.51 294.97 277 304.45 281.8 344.29"/><rect class="cls-20" x="240.76" y="252.46" width="19.68" height="78.74" transform="translate(-74.1 498.06) rotate(-81.77)"/><rect class="cls-21" x="233.14" y="281.63" width="22.34" height="20.48" transform="translate(-79.53 491.87) rotate(-81.77)"/><path class="cls-22" d="M172.71,412.85c-.07-.44-.14-.9-.22-1.37-1.1,0-5-43.72-4.82-50.21-.83-5-11.14-7.19-16.43-5.77s-8.9,6.67-7.93,11.72c5.12,25.69,7.53,39.29,8.48,44.78a10.85,10.85,0,0,0,.76,3.49,6.73,6.73,0,0,0-.2,1.61c0,4.7,4.89,8.5,10.92,8.5s10.92-3.81,10.92-8.5A7.08,7.08,0,0,0,172.71,412.85Z"/><path class="cls-22" d="M189.28,303.82c-4.5,14.78-10.17,32.3-13.9,47.81-3.71,19.21-17.58,27-36.64,23.82-.58-.09-1.18-.2-1.8-.33s-1.23-.26-1.87-.41c-20.7-4.8-31.66-18.48-26-38.55,3.56-15.55,4.5-33.22,8.21-48.25,3.15-11.36,5-20.53,12.25-25.25,6.65-4.43,15.76-5.62,25.69-4.33q3.26.43,6.6,1.22c.79.19,1.56.38,2.29.58l.9.26.46.14.34.1c10.68,3.23,19.41,8.7,23.72,16.3a23.41,23.41,0,0,1,1.56,3.35C193.77,287.15,191.91,294.2,189.28,303.82Z"/><path class="cls-23" d="M161.15,350.45c-3.92,18.87-5.42,27.43-22.42,25-.58-.09-1.18-.2-1.8-.33s-1.23-.26-1.87-.41c-20.7-4.8-31.66-18.48-26-38.55,3.56-15.55,4.5-33.22,8.21-48.25,3.15-11.36,5-20.53,12.25-25.25,6.65-4.43,15.76-5.62,25.69-4.33q3.26.43,6.6,1.22c.79.19,1.56.38,2.29.58l.9.26.46.14.34.1c12.53,3.8,15.4,11.24,13.32,22.5q-.17.95-.37,1.94c-1.18,5.57-4.09,12.63-5.47,19.65C170.16,319.29,164.68,335,161.15,350.45Z"/><path class="cls-22" d="M191.14,280.29c-.87.46-1.75.9-2.63,1.31a52.57,52.57,0,0,1-9.71,3.49,37.86,37.86,0,0,1-9.18,1.16c-14.15.07-24.84-9.32-31.64-22.54,4.77-3.17,10.7-4.89,17.29-5.37q3.26.43,6.6,1.22c.79.19,1.56.38,2.29.58l.9.26.46.14.34.1c10.68,3.23,19.41,8.7,23.72,16.3A23.42,23.42,0,0,1,191.14,280.29Z"/><path class="cls-18" d="M162.28,262.35c-7.52-1.87-30.65,95.61-22.75,97.57l-1.49-.34c-8.66-1.91,13.43-100,21.66-98.13C161,261.76,161,262.06,162.28,262.35Z"/><path class="cls-20" d="M175,353.28a186.59,186.59,0,0,1-66.36-15.48q1.79-9.41,2.84-19.09A177.67,177.67,0,0,0,181,335Q177.62,344.06,175,353.28Z"/><path class="cls-21" d="M144.26,351.69q-8.76-1.6-17.33-4,2.4-10.37,4.58-20.81A174.22,174.22,0,0,0,149.42,331Q146.72,341.31,144.26,351.69Z"/><path class="cls-23" d="M103,417.5a10.35,10.35,0,0,1-10.29-9.3c-1.53-15-3.19-26.72-4.53-36.17-1.16-8.19-2-14.11-2.25-18.66-.21-3.73-.69-12.46,6.54-16.71s14.71.45,17.89,2.47c3.91,2.47,8.77,6.16,15.5,11.26q3.34,2.53,7.27,5.49a10.35,10.35,0,1,1-12.43,16.56q-4-3-7.34-5.54c-1.88-1.42-3.77-2.86-5.58-4.21.29,2.09.6,4.28.9,6.45,1.29,9.12,3.06,21.6,4.63,37A10.35,10.35,0,0,1,103,417.5Z"/><path class="cls-23" d="M129.51,272.86l-3.42,2.31c-1.37.78-3.05,1.72-5,2.76-1.77.83-3.78,1.85-6,2.81s-4.55,2-7,2.92l-3.85,1.49-4,1.44c-2.74,1-5.57,1.89-8.46,2.86s-5.82,1.83-8.77,2.7-5.9,1.72-8.82,2.49-5.8,1.54-8.59,2.24-5.52,1.32-8.1,1.94-5.05,1.11-7.34,1.59-4.39.88-6.3,1.21-3.56.62-5,.83l-4.47.61A12.37,12.37,0,1,1,31,278.55q.6-.08,1.18-.11h.38l3.72-.14c1.2-.06,2.71-.19,4.41-.3s3.69-.34,5.82-.54l7-.81c2.47-.35,5.09-.65,7.79-1.08s5.5-.83,8.33-1.33,5.71-1,8.58-1.54,5.72-1.15,8.53-1.74,5.56-1.22,8.17-1.9l3.88-1,3.65-1c2.4-.63,4.54-1.38,6.58-2s3.74-1.34,5.34-1.9q2-.85,3.47-1.43l3.61-2,.09,0a7.69,7.69,0,0,1,8,13.14Z"/><path class="cls-23" d="M115.93,190.14s59.91-47.49,89.82-59.12c0,0-27.71,41.21-12.63,61.7l-77.2-2.59"/><path class="cls-22" d="M169.08,195.7s6.77-53.05,36.68-64.67c0,0-27.71,41.21-12.63,61.7Z"/><path class="cls-16" d="M190,248.2a38.64,38.64,0,0,1-33.55,19.53c-1,0-1.92,0-2.89-.1a38.64,38.64,0,0,1-33.14-24.46c-20.07-1.24-10.61-40.64-10.61-40.64l9.62,15.33a38.67,38.67,0,0,1,36.94-27.4c1,0,1.92,0,2.89.1a38.64,38.64,0,0,1,35.6,34.78l13.32-15.55S211.93,252.44,190,248.2Z"/><path class="cls-18" d="M182.22,243.78a23,23,0,0,1-44.05.43Z"/><path class="cls-20" d="M133.95,221.91a6.9,6.9,0,1,0,7.39-6.37A6.9,6.9,0,0,0,133.95,221.91Z"/><path class="cls-20" d="M165.38,224.23a6.9,6.9,0,1,0,7.39-6.37A6.9,6.9,0,0,0,165.38,224.23Z"/><path class="cls-18" d="M115.07,189.06l-.69,9.4a5.14,5.14,0,0,0,4.75,5.51l76.57,5.66a5.14,5.14,0,0,0,5.51-4.75l.69-9.4a5.14,5.14,0,0,0-4.75-5.51l-76.57-5.66a5.14,5.14,0,0,0-5.51,4.75"/><path class="cls-18" d="M198,127a8.28,8.28,0,1,0,9.79-6.42A8.28,8.28,0,0,0,198,127Z"/><path class="cls-22" d="M199.55,279.83l2.37,3.36q1.06,1.17,2.47,2.82c1.19,1.21,2.44,2.6,3.94,4.08s3.14,3.08,5,4.72l2.82,2.53,3,2.59c2,1.77,4.27,3.52,6.48,5.33s4.54,3.58,6.87,5.35,4.66,3.52,7,5.2,4.63,3.33,6.88,4.89,4.44,3,6.5,4.43l5.87,3.82c1.83,1.12,3.5,2.2,5,3.07s2.77,1.64,3.82,2.23l3.27,1.78.32.17a12.37,12.37,0,1,1-11.85,21.73c-.35-.19-.71-.41-1-.63l-3.73-2.54c-1.17-.81-2.5-1.81-4.08-2.95s-3.24-2.46-5.11-3.88-3.8-3-5.87-4.68-4.22-3.45-6.39-5.34-4.45-3.81-6.7-5.83-4.53-4.08-6.79-6.15-4.48-4.21-6.66-6.32-4.3-4.2-6.31-6.32l-3-3.08-2.79-3c-1.83-1.94-3.47-4-5-5.75s-2.88-3.64-4.09-5.17c-1.28-1.79-2.37-3.39-3.25-4.69l-2-3.59a7.69,7.69,0,0,1,13-8.25Z"/><path class="cls-16" d="M286,347.34c-.54-.42-1.08-.83-1.64-1.22.69-.37,1.44-.8,2.28-1.29a4.7,4.7,0,1,0-4.78-8.09c-4.08,2.41-5.27,2.66-6.43,2.89a17.34,17.34,0,0,0-6.18,2.5,4.77,4.77,0,0,0-.48.36,9.78,9.78,0,0,0-3.31,2.78,15.54,15.54,0,0,0,3.27,22.29c6.46,4.57,17.36,5.37,22.5-.64C297.06,360.15,293,352.77,286,347.34Z"/><path class="cls-16" d="M31.83,286.77a9.8,9.8,0,0,0-2.43-3.58,4.48,4.48,0,0,0-.37-.47,17.35,17.35,0,0,0-5.26-4.09c-1-.54-2.12-1.1-5.39-4.54a4.7,4.7,0,1,0-6.8,6.48c.67.7,1.28,1.32,1.84,1.87q-1,.34-1.91.73c-8.14,3.34-14.1,9.31-10.38,17.4,3.31,7.19,14,9.39,21.47,6.76A15.54,15.54,0,0,0,31.83,286.77Z"/></g></g><rect class="cls-24" x="9.63" y="205.75" width="401.72" height="165.83"/></g><g id="Layer_1-3" data-name="Layer 1"><g id="New_Symbol-5" data-name="New Symbol"><path class="cls-15" d="M370.24,279.83l-.32-.17-3.27-1.78c-1-.58-2.34-1.37-3.82-2.23s-3.15-1.95-5-3.07L352,268.76c-2.06-1.41-4.27-2.85-6.5-4.43l-3.18-2.23c-4.7,5.4-9,11.24-13.18,16.81l3.07,2.63c2.17,1.89,4.36,3.64,6.39,5.34s4,3.24,5.87,4.68,3.54,2.74,5.11,3.88,2.91,2.14,4.08,2.95l3.73,2.54c.33.22.68.44,1,.63a12.37,12.37,0,1,0,11.85-21.73Z"/><path class="cls-14" d="M385.1,291.83c-.54-.42-1.08-.83-1.64-1.22.69-.37,1.44-.8,2.28-1.29a4.7,4.7,0,0,0-4.78-8.09c-4.08,2.41-5.27,2.66-6.43,2.89a17.34,17.34,0,0,0-6.18,2.5,4.77,4.77,0,0,0-.48.36,9.78,9.78,0,0,0-3.31,2.78A15.54,15.54,0,0,0,367.84,312c6.46,4.57,17.36,5.37,22.5-.64C396.12,304.63,392,297.26,385.1,291.83Z"/><path class="cls-23" d="M70.19,274.13l-.55.1c-2.83.5-5.63.92-8.33,1.33s-5.32.73-7.79,1.08l-7,.81c-2.14.19-4.11.42-5.82.54s-3.21.24-4.41.3l-3.72.14h-.38q-.59,0-1.18.11a12.37,12.37,0,1,0,3.37,24.52l4.47-.61c1.4-.21,3-.51,5-.83s4-.77,6.3-1.21,4.74-1,7.34-1.59,5.31-1.22,8.1-1.94,5.68-1.44,8.59-2.24S80,293,83,292.15L86.82,291C118.63,280.77,145.73,267.58,70.19,274.13Z"/><path class="cls-16" d="M31.83,286.77a9.8,9.8,0,0,0-2.43-3.58,4.48,4.48,0,0,0-.37-.47,17.35,17.35,0,0,0-5.26-4.09c-1-.54-2.12-1.1-5.39-4.54a4.7,4.7,0,1,0-6.8,6.48c.67.7,1.28,1.32,1.84,1.87q-1,.34-1.91.73c-8.14,3.34-14.1,9.31-10.38,17.4,3.31,7.19,14,9.39,21.47,6.76A15.54,15.54,0,0,0,31.83,286.77Z"/></g></g><g class="cls-25"><g id="Layer_1-4" data-name="Layer 1"><g id="New_Symbol-6" data-name="New Symbol"><g class="cls-26"><ellipse class="cls-20" cx="191.43" cy="2.96" rx="146.7" ry="9.1"/></g><path class="cls-20" d="M115-25.24,90.54-19C86.27-1.7,65.31,4.13,59.51-6.63c0,0-5.7,24.7,44.06,8.73C115.34-1.69,122.08-14.87,115-25.24Z"/></g></g></g></g></g></svg>