<svg xmlns="http://www.w3.org/2000/svg" width="170.6" height="27.7" viewBox="0 0 170.6 27.7"><path fill="#212121" d="M9.6 22.4H14v5.2H9.6z"/><path stroke="#212121" stroke-width=".189" stroke-miterlimit="10" d="M11.9 21c-.5 0-.9.4-.9.8V25c0 .5.4.8.8.8.5 0 .8-.4.8-.8v-3.1c.1-.5-.3-.9-.7-.9z" fill="none"/><path fill="#212121" d="M39 22.4h4.4v5.2H39z"/><path stroke="#212121" stroke-width=".189" stroke-miterlimit="10" d="M41.2 21c-.5 0-.9.4-.9.8V25c0 .5.4.8.8.8.5 0 .8-.4.8-.8v-3.1c.2-.5-.2-.9-.7-.9z" fill="none"/><path fill="#212121" d="M68.4 22.4h4.4v5.2h-4.4z"/><path stroke="#212121" stroke-width=".189" stroke-miterlimit="10" d="M70.6 21c-.5 0-.9.4-.9.8V25c0 .5.4.8.8.8.5 0 .8-.4.8-.8v-3.1c.2-.5-.2-.9-.7-.9z" fill="none"/><path fill="#212121" d="M97.8 22.4h4.4v5.2h-4.4z"/><path stroke="#212121" stroke-width=".189" stroke-miterlimit="10" d="M100 21c-.5 0-.9.4-.9.8V25c0 .5.4.8.8.8.5 0 .8-.4.8-.8v-3.1c.2-.5-.2-.9-.7-.9z" fill="none"/><path fill="#212121" d="M127.2 22.4h4.4v5.2h-4.4z"/><path stroke="#212121" stroke-width=".189" stroke-miterlimit="10" d="M129.4 21c-.5 0-.9.4-.9.8V25c0 .5.4.8.8.8.5 0 .8-.4.8-.8v-3.1c.1-.5-.2-.9-.7-.9z" fill="none"/><path fill="#212121" d="M156.6 22.4h4.4v5.2h-4.4z"/><path stroke="#212121" stroke-width=".189" stroke-miterlimit="10" d="M158.8 21c-.5 0-.9.4-.9.8V25c0 .5.4.8.8.8.5 0 .8-.4.8-.8v-3.1c.1-.5-.3-.9-.7-.9z" fill="none"/><path opacity=".49" fill="#1E88E5" d="M16.8 18.9c0 2.7-2.2 4.9-4.9 4.9S7 21.6 7 18.9 9.2 7.2 11.9 7.2s4.9 9 4.9 11.7z"/><path opacity=".49" fill="#fff" d="M46.2 18.9c0 2.7-2.2 4.9-4.9 4.9s-4.9-2.2-4.9-4.9 2.2-11.7 4.9-11.7c2.6 0 4.9 9 4.9 11.7z"/><path opacity=".49" fill="#1E88E5" d="M75.5 18.9c0 2.7-2.2 4.9-4.9 4.9s-4.9-2.2-4.9-4.9 2.2-11.7 4.9-11.7 4.9 9 4.9 11.7z"/><path opacity=".49" fill="#fff" d="M104.9 18.9c0 2.7-2.2 4.9-4.9 4.9s-4.9-2.2-4.9-4.9S97.3 7.2 100 7.2s4.9 9 4.9 11.7z"/><path opacity=".49" fill="#1E88E5" d="M134.3 18.9c0 2.7-2.2 4.9-4.9 4.9s-4.9-2.2-4.9-4.9 2.2-11.7 4.9-11.7 4.9 9 4.9 11.7z"/><path opacity=".49" fill="#fff" d="M163.7 18.9c0 2.7-2.2 4.9-4.9 4.9s-4.9-2.2-4.9-4.9 2.2-11.7 4.9-11.7 4.9 9 4.9 11.7z"/><path opacity=".19" fill="#1E88E5" d="M11.3 22.8c-1.9-.3-2.2-1.9-2.2-3.9 0-3.7 1.4-10.7 2.7-10.7.1 0 .7-.4.9-.7-.3-.2-.6-.3-.9-.3-2.7 0-4.9 9-4.9 11.7 0 2.6 2 4.7 4.5 4.9 0-.3-.1-.7-.1-1z"/><path opacity=".19" fill="#1E88E5" d="M70.1 22.8c-1.9-.3-2.2-1.9-2.2-3.9 0-3.7 1.4-10.7 2.7-10.7.1 0 .7-.4.9-.7-.3-.2-.6-.3-.9-.3-2.7 0-4.9 9-4.9 11.7 0 2.6 2 4.7 4.5 4.9 0-.3-.1-.7-.1-1z"/><path opacity=".19" fill="#1E88E5" d="M128.8 22.8c-1.9-.3-2.2-1.9-2.2-3.9 0-3.7 1.4-10.7 2.7-10.7.1 0 .7-.4.9-.7-.3-.2-.6-.3-.9-.3-2.7 0-4.9 9-4.9 11.7 0 2.6 2 4.7 4.5 4.9 0-.3 0-.7-.1-1z"/><path opacity=".19" fill="#fff" d="M40.7 22.8c-1.9-.3-2.2-1.9-2.2-3.9 0-3.7 1.4-10.7 2.7-10.7.1 0 .7-.4.9-.7-.3-.2-.6-.3-.9-.3-2.7 0-4.9 9-4.9 11.7 0 2.6 2 4.7 4.5 4.9 0-.3-.1-.7-.1-1z"/><path opacity=".19" fill="#fff" d="M158.2 22.8c-1.9-.3-2.2-1.9-2.2-3.9 0-3.7 1.4-10.7 2.7-10.7.1 0 .7-.4.9-.7-.3-.2-.6-.3-.9-.3-2.7 0-4.9 9-4.9 11.7 0 2.6 2 4.7 4.5 4.9 0-.3 0-.7-.1-1z"/><path opacity=".19" fill="#fff" d="M99.5 22.8c-1.9-.3-2.2-1.9-2.2-3.9 0-3.7 1.4-10.7 2.7-10.7.1 0 .7-.4.9-.7-.3-.2-.6-.3-.9-.3-2.7 0-4.9 9-4.9 11.7 0 2.6 2 4.7 4.5 4.9-.1-.3-.1-.7-.1-1z"/></svg>