<svg xmlns="http://www.w3.org/2000/svg" width="522" height="522" viewBox="0 0 522 522"><g fill="none"><circle cx="261" cy="261" r="261"/><path stroke="#000" stroke-width="1.001" stroke-miterlimit="10" d="M39.772 162.96h2.24v-6.72c0-9.898 8.026-17.923 17.924-17.923 3.108 0 5.81.792 8.055 2.186 2.674-6.537 9.09-11.147 16.59-11.147 9.897 0 17.922 8.025 17.922 17.923v6.462c7.743 2.415 13.442 9.642 13.442 18.18 0 4.19-1.355 8.056-3.65 11.203H28.132c-1.144-1.978-1.8-4.27-1.8-6.72 0-7.426 6.017-13.444 13.442-13.444z"/><path stroke="#000" stroke-width="1.001" stroke-miterlimit="10" d="M134.756 76.28h-17.01c-1.146-1.977-1.802-4.27-1.802-6.72 0-7.423 6.017-13.442 13.442-13.442h2.24v-6.72c0-9.9 8.026-17.924 17.924-17.924 3.108 0 5.81.792 8.055 2.186 2.673-6.537 9.09-11.147 16.588-11.147 9.898 0 17.923 8.025 17.923 17.923V46.9c7.743 2.414 13.442 9.64 13.442 18.18 0 1.295-.02 1.967-.267 3.19"/><g stroke="#000" stroke-width="1.001" stroke-miterlimit="10"><path d="M172.45 135.447V107.41"/><path d="M172.45 271.417V144.915"/><path d="M183.466 144.915v126.502"/><path d="M183.466 107.41v28.037"/><path d="M340.182 135.447V107.41"/><path d="M340.182 271.417V144.915"/><path d="M351.197 144.915v126.502"/><path d="M351.197 107.41v28.037"/></g><path stroke="#000" stroke-width="1.001" stroke-miterlimit="10" d="M243.702 144.915h-85.19v-9.468h85.19"/><path stroke="#000" stroke-width="1.001" stroke-miterlimit="10" d="M279.78 135.447h119.717v9.468H279.78"/><path stroke="#000" stroke-miterlimit="10" d="M403 169.5h-3.5V145"/><path stroke="#000" stroke-miterlimit="10" d="M394.5 145v29.5h8.5"/><path stroke="#000" stroke-width="1.001" stroke-miterlimit="10" d="M403.082 166.73h32v10.827h-32z"/><path stroke="#000" stroke-width="1.001" stroke-miterlimit="10" d="M259.662 168.49v-35.104h4.006v35.103"/><path stroke="#000" stroke-width="1.001" stroke-miterlimit="10" d="M263.668 173.905v1.936h-4.006v-1.935"/><path stroke="#000" stroke-width="1.001" stroke-miterlimit="10" d="M271.314 172.483c10.575 4.888 19.056 17.298 19.056 30.97"/><path stroke="#000" stroke-width="1.001" stroke-miterlimit="10" d="M232.288 203.454c0-14.373 8.23-26.58 19.67-30.97"/><path stroke="#000" stroke-width="1.001" stroke-miterlimit="10" d="M226.442 203.454h70.763v10.68h-70.763z"/><path stroke="#000" stroke-width="1.001" stroke-miterlimit="10" d="M286.643 258.99h-49.638l-5.007-44.855h59.652z"/><path stroke="#000" stroke-width="1.001" stroke-miterlimit="10" d="M255.657 133.386h4.005v14.21h-4.005z"/><path stroke="#000" stroke-width="1.001" stroke-miterlimit="10" d="M251.65 133.386h4.006v14.21h-4.005z"/><path stroke="#000" stroke-width="1.001" stroke-miterlimit="10" d="M247.646 133.386h4.005v14.21h-4.004z"/><path stroke="#000" stroke-width="1.001" stroke-miterlimit="10" d="M243.702 133.386h4.005v14.21h-4.005z"/><path stroke="#000" stroke-width="1.001" stroke-miterlimit="10" d="M275.622 133.386h4.005v14.21h-4.005z"/><path stroke="#000" stroke-width="1.001" stroke-miterlimit="10" d="M271.617 133.386h4.005v14.21h-4.005z"/><path stroke="#000" stroke-width="1.001" stroke-miterlimit="10" d="M267.61 133.386h4.006v14.21h-4.005z"/><path stroke="#000" stroke-width="1.001" stroke-miterlimit="10" d="M263.668 133.386h4.005v14.21h-4.005z"/><path stroke="#000" stroke-width="1.001" stroke-miterlimit="10" d="M252.333 168.49h18.98v5.256h-18.98z"/><path stroke="#000" stroke-width="1.001" stroke-miterlimit="10" d="M134.756 68.268h254.136v39.14H134.756z"/><g stroke="#000" stroke-miterlimit="10"><path stroke-width="1.001" d="M158.182 424.09V270.965h207.284V424.09"/><path d="M159 374.5h207"/><path d="M159 323.5h207"/><path d="M233.5 375v49"/><path d="M331.5 375v49"/><path d="M184.5 323v52"/><path d="M282.5 323v52"/><path d="M222.5 271v52"/><path d="M320.5 271v52"/></g><path stroke="#000" stroke-width="1.001" stroke-miterlimit="10" d="M482.323 322.902c6.323-7.945 22.383-27.795 39.083-44.145"/><path stroke="#000" stroke-width="1.001" stroke-miterlimit="10" d="M8.413 327.136c34.486-22.595 42.56-30.48 62.724-31.556 9.248-.494 42.795 15.948 87.045 35.818"/><path stroke="#000" stroke-width="1.001" stroke-miterlimit="10" d="M158.51 358.252c-9.104-.378-15.076-1.362-23.53-3.404-58.203-14.056-99.65-10.734-120.227-7.166"/><path stroke="#000" stroke-miterlimit="10" d="M464 424.5h-26.487c-.13-2 2.53-5.462 2.53-5.462-4.307-.668-6.562 5.34-6.562 5.34-3.43-1.19 2.467-8.628 2.467-8.628-3.254-.318-8.187 8.646-8.187 8.646-1.144-9.202 12.283-17.332 12.283-17.332-12.887-2.003-18.003 17.336-18.003 17.336l-119.882.19c-.303-1.09-4.35-14.945-13.978-13.45 0 0 10.364 6.36 9.556 13.36h-.048c-.417-1-3.945-6.875-6.323-6.643 0 0 4.38 5.643 2.056 6.643h-.168c-.235-1-1.966-4.54-5.072-4.06 0 0 1.897 2.06 1.976 4.06H108.392c-.476-3 3.294-7.5 3.294-7.5-5.654-.875-8.615 7.006-8.615 7.006-4.505-1.563 3.24-11.332 3.24-11.332-4.274-.417-10.75 11.35-10.75 11.35 1.868-11.956 16.126-22.756 16.126-22.756-12.607-1.96-16.983 10.44-19.703 17.497-2.248-5.04-9.442-11.117-17.16-9.917 0 0 12.134 7.35 11.1 15.667 0 0-4.458-8.096-7.4-7.81 0 0 5.332 6.734 2.23 7.81 0 0-2.038-5.455-5.93-4.852 0 0 2.325 2.836 2.29 4.836h-19.55"/><path d="M57.42 424.343C21.495 379.627 0 322.823 0 261 0 116.854 116.854 0 261 0s261 116.854 261 261-116.854 261-261 261c-82.323 0-155.744-38.113-203.58-97.657"/><path stroke="#000" stroke-width="1.001" stroke-miterlimit="10" d="M405.027 225.024h2.24v-6.72c0-9.9 8.026-17.924 17.924-17.924 3.11 0 5.81.792 8.056 2.186 2.673-6.537 9.09-11.147 16.588-11.147 9.898 0 17.923 8.024 17.923 17.922v6.463c7.743 2.415 13.442 9.642 13.442 18.18 0 4.19-1.356 8.056-3.65 11.203h-84.164c-1.145-1.978-1.8-4.27-1.8-6.72 0-7.425 6.017-13.444 13.44-13.444z"/><path stroke="#000" stroke-width="1.001" stroke-miterlimit="10" d="M479.662 326.28"/><path stroke="#000" stroke-width="1.001" stroke-miterlimit="10" d="M507.862 346.446c-22.706-26.58-52.393-42.92-88.758-44.524-15.172-.67-34.578 3.718-53.638 8.652"/></g></svg>