<?xml version="1.0" encoding="utf-8"?>
<!-- Generator: Adobe Illustrator 19.1.0, SVG Export Plug-In . SVG Version: 6.00 Build 0)  -->
<svg version="1.1" id="Layer_1" xmlns="http://www.w3.org/2000/svg" xmlns:xlink="http://www.w3.org/1999/xlink" x="0px" y="0px"
	 width="340px" height="340px" viewBox="0 0 340 340" style="enable-background:new 0 0 340 340;" xml:space="preserve">
<style type="text/css">
	.st0{fill:#FFFFFF;stroke:#231F20;stroke-miterlimit:10;}
	.st1{clip-path:url(#SVGID_2_);}
	.st2{clip-path:url(#SVGID_4_);}
	.st3{fill:none;stroke:#E53935;stroke-width:16;stroke-linecap:round;stroke-linejoin:round;stroke-miterlimit:10;}
	.st4{fill:none;stroke:#C62828;stroke-width:16;stroke-linecap:round;stroke-linejoin:round;stroke-miterlimit:10;}
	.st5{fill:none;stroke:#231F20;stroke-miterlimit:10;}
	.st6{fill:#C62828;stroke:#231F20;stroke-miterlimit:10;}
	.st7{fill:#F1CA3A;}
	.st8{fill:none;stroke:#F1CA3A;stroke-width:0.7547;stroke-miterlimit:10;}
	.st9{opacity:0.6;fill:#F5A816;}
	.st10{opacity:0.25;}
	.st11{fill:#E53935;}
	.st12{fill:#F94B4B;}
	.st13{opacity:0.25;fill:#C62828;}
</style>
<g>
	<circle class="st0" cx="170" cy="181.9" r="101.1"/>
	<g>
		<g>
			<defs>
				<circle id="SVGID_1_" cx="170" cy="181.9" r="101.1"/>
			</defs>
			<use xlink:href="#SVGID_1_"  style="overflow:visible;fill:#FFFFFF;"/>
			<clipPath id="SVGID_2_">
				<use xlink:href="#SVGID_1_"  style="overflow:visible;"/>
			</clipPath>
			<g class="st1">
				<g>
					<defs>
						<path id="SVGID_3_" d="M163.3,282.8l-0.2-36.9c0-3.7-0.7-7.3-1.8-10.6c14,0.7,26.6-0.2,49.2-12.5l-21.2-24.6
							c-16.7,13.4-36,19.4-40.5,19.8c-0.4,0-0.8,0.1-1.2,0.1c-5.2-3.3-11.3-5.1-17.9-5.1c-14.1,0-33,11.6-33,33.3l0,5.4
							C113.8,269.4,137.2,281.1,163.3,282.8z"/>
					</defs>
					<clipPath id="SVGID_4_">
						<use xlink:href="#SVGID_3_"  style="overflow:visible;"/>
					</clipPath>
					<g class="st2">
						<path class="st3" d="M148.1,232c-13.7-11.1-27.4-22.3-41.2-33.4c7.2,18.8,6.5,23.9,23.2,35.1c-15.6-9.7-17.4-8-33-17.7
							c9.7,12.6,19.9,25.1,29.6,37.7c-15.5-7.4-31.6-14.6-47.1-22"/>
						<path class="st4" d="M148.1,232c-13.7-11.1-27.4-22.3-41.2-33.4c7.2,18.8,6.5,23.9,23.2,35.1c-15.6-9.7-17.4-8-33-17.7
							c9.7,12.6,19.9,25.1,29.6,37.7c-15.5-7.4-31.6-14.6-47.1-22"/>
					</g>
				</g>
				<line class="st0" x1="163.2" y1="255.9" x2="245.8" y2="255.9"/>
				<g>
					<path class="st0" d="M254.3,237.7c10.6-16,16.8-35.1,16.8-55.7c0-21.3-6.6-41-17.8-57.3l-23.6,47.2h16.5l-16.5,32.9h16.5
						l-16.5,32.9H254.3z"/>
					<circle class="st0" cx="249.9" cy="153.7" r="3.7"/>
					<circle class="st0" cx="261" cy="187.7" r="3.7"/>
					<circle class="st0" cx="246.2" cy="224.1" r="3.7"/>
				</g>
				<path class="st5" d="M163.3,282.8l-0.2-36.9c0-3.7-0.7-7.3-1.8-10.6c14,0.7,26.6-0.2,49.2-12.5l-21.2-24.6
					c-16.7,13.4-36,19.4-40.5,19.8c-0.4,0-0.8,0.1-1.2,0.1c-5.2-3.3-11.3-5.1-17.9-5.1c-14.1,0-33,11.6-33,33.3l0,5.4
					C113.8,269.4,137.2,281.1,163.3,282.8z"/>
				<path class="st0" d="M218.3,207.9c2.3,12-5.5,23.6-17.5,25.9c-12,2.3-23.6-5.5-25.9-17.5c-2.3-12,5.5-23.6,17.5-25.9
					C204.4,188.1,216,195.9,218.3,207.9z"/>
				<g>
					<g>
						<path class="st6" d="M100.2,149c0,0,27.1-53.6,66.7-53.6c0,0-23.1,25.4-7.1,53.6H100.2z"/>
						<path class="st0" d="M176.5,94.2c0,3.9-3.2,7.1-7.1,7.1c-3.9,0-7.1-3.2-7.1-7.1c0-3.9,3.2-7.1,7.1-7.1
							C173.3,87.1,176.5,90.3,176.5,94.2z"/>
						<path class="st0" d="M173.6,160.1L163,174.5c-2.5-15.8-16.1-27.8-32.6-27.9c-16.5-0.1-30.2,11.9-32.8,27.6l-10.4-14.1
							c0,0-5.8,36.2,13.2,34c5.3,11.1,16.6,18.8,29.8,18.8c13.2,0.1,24.7-7.7,30-18.8C179.5,196.7,173.6,160.1,173.6,160.1z"/>
						<path class="st0" d="M133.7,187.2l-0.5,3.5l-5.4,0l-0.5-3.5l-21.9-0.1c3.2,10.8,13.1,18.8,25,18.8c11.9,0,21.9-7.8,25.2-18.6
							L133.7,187.2z"/>
						<path class="st0" d="M110.9,174.9c0,3.3,2.6,5.9,5.9,5.9c3.3,0,5.9-2.6,5.9-5.9c0-3.3-2.6-5.9-5.9-5.9
							C113.5,169,110.9,171.7,110.9,174.9z"/>
						<path class="st0" d="M137.9,175.1c0,3.3,2.6,5.9,5.9,5.9c3.3,0,5.9-2.6,5.9-5.9c0-3.3-2.6-5.9-5.9-5.9
							C140.6,169.1,137.9,171.8,137.9,175.1z"/>
						<path class="st0" d="M92.7,158.7c0,2.4,2,4.4,4.4,4.4l65.9,0c2.4,0,4.4-2,4.4-4.4v-8.1c0-2.4-2-4.4-4.4-4.4l-65.9,0
							c-2.4,0-4.4,2-4.4,4.4V158.7z"/>
					</g>
				</g>
				<line class="st0" x1="130.1" y1="212.9" x2="130.1" y2="258.9"/>
				<path class="st5" d="M163.1,260h-57.2c8.5,7,18.2,12.6,28.7,16.6h28.5"/>
				<path class="st0" d="M137.6,277.7h1.1v-18.8h-17.2v11.7C126.6,273.4,132,275.8,137.6,277.7z"/>
				<g>
					<path class="st0" d="M202.1,208.6l4.6-18.1l-21.1-5.3l-4.5,18.1l0,0l0,0c-2.9,11.7,4.1,23.5,15.8,26.4
						c11.7,2.9,23.5-4.1,26.4-15.8L202.1,208.6z"/>
					<g>
						<path class="st0" d="M200,194.5l-15.8-4l-2.7,10.6c0,0,15.8,4,15.8,4c2.9,0.7,5.9-1,6.6-4C204.7,198.2,202.9,195.2,200,194.5z
							"/>
						<g>
							<circle class="st0" cx="182.8" cy="195.8" r="5.4"/>
						</g>
					</g>
					<path class="st0" d="M215.4,159.4c-2.7-1.3-6-0.1-7.3,2.6c0,0,0,0,0,0l-11.8,24.9l9.8,4.7l11.8-24.9l0,0
						C219.3,163.9,218.1,160.7,215.4,159.4z"/>
					<path class="st0" d="M197.6,159.3c0.2-3-2.2-5.6-5.2-5.7s-5.6,2.2-5.7,5.2c0,0,0,0,0,0l0,0l-1.4,27.5l10.9,0.6L197.6,159.3
						L197.6,159.3L197.6,159.3z"/>
					<g>
						<path class="st0" d="M196,187.9c0.7-2.9-1-5.9-4-6.6c-2.9-0.7-5.9,1-6.6,4c-0.4,1.6,0,3.3,0.9,4.5c0.7,1,1.8,1.7,3.1,2.1
							C192.3,192.6,195.3,190.8,196,187.9z"/>
					</g>
					<g>
						<circle class="st0" cx="201.3" cy="189.2" r="5.4"/>
					</g>
					<line class="st0" x1="186.7" y1="158.8" x2="197.6" y2="159.3"/>
					<line class="st0" x1="186.1" y1="171.7" x2="196.9" y2="172.3"/>
					<line class="st0" x1="208.2" y1="162" x2="218" y2="166.6"/>
					<line class="st0" x1="202.6" y1="173.7" x2="212.5" y2="178.4"/>
					<g>
						<path class="st0" d="M217.2,193.2l-10.6-2.7l-5.3,21.1l0,0c-0.7,2.9,1,5.9,4,6.6c2.9,0.7,5.9-1,6.6-4c0,0,0,0,0,0L217.2,193.2
							z"/>
						<g>
							<circle class="st0" cx="211.9" cy="191.9" r="5.4"/>
						</g>
					</g>
					<g>
						<path class="st0" d="M227.7,195.9l-10.6-2.7l-5.3,21.1l0,0c-0.7,2.9,1,5.9,4,6.6c2.9,0.7,5.9-1,6.6-4l0,0L227.7,195.9z"/>
						<g>
							<circle class="st0" cx="222.4" cy="194.6" r="5.4"/>
						</g>
					</g>
				</g>
			</g>
			<use xlink:href="#SVGID_1_"  style="overflow:visible;fill:none;stroke:#231F20;stroke-miterlimit:10;"/>
		</g>
		<g>
			<polygon class="st0" points="220.3,127.5 224.3,123.8 220.3,120 222.6,115 217.4,113.1 217.6,107.6 212.1,107.9 210.2,102.7 
				205.2,105 201.5,100.9 197.8,105 192.8,102.7 190.9,107.9 185.4,107.6 185.6,113.1 180.4,115 182.8,120 178.7,123.8 182.8,127.5 
				180.4,132.5 185.6,134.4 185.4,139.9 190.9,139.7 192.8,144.8 197.8,142.5 201.5,146.6 205.2,142.5 210.2,144.8 212.1,139.7 
				217.6,139.9 217.4,134.4 222.6,132.5 			"/>
			<g>
				<circle class="st0" cx="201.5" cy="123.8" r="13.1"/>
			</g>
		</g>
	</g>
	<path class="st7" d="M170,66.2c-1.6,0-2.9-1.3-2.9-2.9V43.4l2.9,0c10.7,0,19.4-8.4,19.4-18.8c0-10.5-8-18.8-18.2-18.8
		c-10.6,0-19.2,8.4-19.2,18.8c0,1.6-1.3,2.9-2.9,2.9c-1.6,0-2.9-1.3-2.9-2.9c0-13.6,11.2-24.7,25-24.7c13.5,0,24.1,10.8,24.1,24.7
		c0,12.6-9.8,23.1-22.3,24.5v14.1C172.9,64.9,171.6,66.2,170,66.2z"/>
	<g>
		<circle class="st7" cx="146.7" cy="83.6" r="2.3"/>
		<circle class="st7" cx="151.4" cy="83.6" r="2.3"/>
		<circle class="st7" cx="156" cy="83.6" r="2.3"/>
		<circle class="st7" cx="160.6" cy="83.6" r="2.3"/>
		<circle class="st7" cx="165.2" cy="83.6" r="2.3"/>
		<circle class="st7" cx="169.9" cy="83.6" r="2.3"/>
		<circle class="st7" cx="174.5" cy="83.6" r="2.3"/>
		<circle class="st7" cx="179.1" cy="83.6" r="2.3"/>
		<circle class="st7" cx="183.7" cy="83.6" r="2.3"/>
		<circle class="st7" cx="188.3" cy="83.6" r="2.3"/>
		<circle class="st7" cx="193" cy="83.6" r="2.3"/>
	</g>
	<path class="st7" d="M195.3,83.5h-50.9V65.9c0-2.2,1.7-3.9,3.9-3.9h43.1c2.2,0,3.9,1.7,3.9,3.9V83.5z"/>
	<path class="st9" d="M195,83.3V64.2c0-1.2-0.7-1.6-1.8-1.6h-23.1v23.3c0,0-0.1,0,0,0c1.2,0,2-0.8,2.2-2c0.2,1.1,1.1,2,2.3,2
		c1.2,0,2.1-0.8,2.3-2c0.2,1.1,1.1,2,2.3,2c1.2,0,2.1-0.8,2.3-2c0.2,1.1,1.1,2,2.3,2c1.2,0,2.1-0.8,2.3-2c0.2,1.1,1.1,2,2.3,2
		c1.2,0,2.1-0.8,2.3-2c0.2,1.1,1.1,2,2.3,2c1.3,0,2.2-1.1,2.2-2.3C195.2,83.5,195,83.4,195,83.3z"/>
</g>
<g>
	<g class="st10">
		<path d="M147.1,241.2l1.6,1.6c2.3,2.3,5.9,2.6,8.6,0.8l26-15.1l-21.9-21.9l-15.1,26C144.4,235.3,144.8,238.9,147.1,241.2z"/>
		<rect x="198.7" y="107.5" transform="matrix(-0.7071 -0.7071 0.7071 -0.7071 247.9272 448.7595)" width="36.5" height="131"/>
		<rect x="198.7" y="118" transform="matrix(-0.7071 -0.7071 0.7071 -0.7071 247.9272 448.7595)" width="36.5" height="110"/>
		<rect x="225.6" y="143.9" transform="matrix(-0.7071 -0.7071 0.7071 -0.7071 312.9932 421.8136)" width="36.5" height="4.5"/>
		<rect x="230.8" y="138.7" transform="matrix(-0.7071 -0.7071 0.7071 -0.7071 325.5482 416.6142)" width="36.5" height="4.5"/>
		<rect x="166.6" y="202.9" transform="matrix(-0.7071 -0.7071 0.7071 -0.7071 170.4529 480.8441)" width="36.5" height="4.5"/>
		<rect x="171.8" y="197.7" transform="matrix(-0.7071 -0.7071 0.7071 -0.7071 183.0079 475.6447)" width="36.5" height="4.5"/>
		<path d="M201.9,185l3.1,3.1c4.1,4.1,10.8,4.1,14.8,0l17.2-17.2c4.1-4.1,4.1-10.8,0-14.8l-3.1-3.1c-4.1-4.1-10.8-4.1-14.8,0
			l-17.2,17.2C197.8,174.2,197.8,180.9,201.9,185z"/>
		
			<rect x="214.5" y="114.1" transform="matrix(0.7071 0.7071 -0.7071 0.7071 192.427 -105.4038)" class="st10" width="18" height="130.9"/>
		<path class="st10" d="M177,225.7l4,4l-23.8,13.8c-2.7,1.9-6.3,1.5-8.6-0.8l-1.6-1.6c-0.4-0.4-0.7-0.9-1-1.4c2.2,1.3,5,1.3,7.2-0.3
			L177,225.7z"/>
	</g>
	<g>
		<g>
			<g>
				<path class="st11" d="M142.3,236.5l1.6,1.6c2.3,2.3,5.9,2.6,8.6,0.8l26-15.1l-21.9-21.9l-15.1,26
					C139.7,230.5,140,234.2,142.3,236.5z"/>
				
					<rect x="193.9" y="102.8" transform="matrix(-0.7071 -0.7071 0.7071 -0.7071 243.1872 437.3152)" class="st11" width="36.5" height="131"/>
				
					<rect x="193.9" y="113.3" transform="matrix(-0.7071 -0.7071 0.7071 -0.7071 243.1872 437.3152)" class="st12" width="36.5" height="110"/>
				
					<rect x="220.9" y="139.1" transform="matrix(-0.7071 -0.7071 0.7071 -0.7071 308.2531 410.3693)" class="st11" width="36.5" height="4.5"/>
				
					<rect x="226.1" y="133.9" transform="matrix(-0.7071 -0.7071 0.7071 -0.7071 320.8081 405.1699)" class="st11" width="36.5" height="4.5"/>
				
					<rect x="161.8" y="198.2" transform="matrix(-0.7071 -0.7071 0.7071 -0.7071 165.7128 469.3998)" class="st11" width="36.5" height="4.5"/>
				
					<rect x="167" y="193" transform="matrix(-0.7071 -0.7071 0.7071 -0.7071 178.2678 464.2004)" class="st11" width="36.5" height="4.5"/>
				<path class="st11" d="M197.1,180.2l3.1,3.1c4.1,4.1,10.8,4.1,14.8,0l17.2-17.2c4.1-4.1,4.1-10.8,0-14.8l-3.1-3.1
					c-4.1-4.1-10.8-4.1-14.8,0l-17.2,17.2C193.1,169.5,193.1,176.1,197.1,180.2z"/>
			</g>
			
				<rect x="209.7" y="109.4" transform="matrix(0.7071 0.7071 -0.7071 0.7071 187.6866 -103.4403)" class="st13" width="18" height="130.9"/>
			<path class="st13" d="M172.3,221l4,4l-23.8,13.8c-2.7,1.9-6.3,1.5-8.6-0.8l-1.6-1.6c-0.4-0.4-0.7-0.9-1-1.4
				c2.2,1.3,5,1.3,7.2-0.3L172.3,221z"/>
		</g>
	</g>
</g>
</svg>
