<?xml version="1.0" encoding="utf-8"?>
<!-- Generator: Adobe Illustrator 19.1.0, SVG Export Plug-In . SVG Version: 6.00 Build 0)  -->
<svg version="1.1" id="Layer_1" xmlns="http://www.w3.org/2000/svg" xmlns:xlink="http://www.w3.org/1999/xlink" x="0px" y="0px"
	 viewBox="211 -151 493.3 375" style="enable-background:new 211 -151 493.3 375;" xml:space="preserve">
<style type="text/css">
	.st0{fill:none;stroke:#FFFFFF;stroke-width:2.3158;stroke-miterlimit:10;}
	.st1{opacity:0.25;fill:#424242;}
	.st2{fill:#F9CE1D;}
	.st3{fill:#86BAD6;}
	.st4{clip-path:url(#SVGID_2_);fill:#FFFFFF;}
	
		.st5{clip-path:url(#SVGID_2_);fill:none;stroke:#FFFFFF;stroke-width:1.2158;stroke-linecap:round;stroke-miterlimit:10;stroke-dasharray:0,27.3558;}
	.st6{fill:#D3D4D6;}
	.st7{fill:none;stroke:#F9CE1D;stroke-width:5.9865;stroke-linecap:round;stroke-miterlimit:10;}
	.st8{fill:#FFFFFF;}
	.st9{opacity:0.7;fill:#FFFFFF;}
	.st10{fill:#E53935;}
	.st11{fill:none;stroke:#FFD600;stroke-width:3.5938;stroke-linecap:round;stroke-miterlimit:10;}
</style>
<g>
	<line class="st0" x1="454.5" y1="52" x2="454.5" y2="87.7"/>
	<polyline class="st0" points="467.4,74.7 454.5,87.7 441.5,74.7 	"/>
</g>
<polygon class="st1" points="505.3,-117.5 505.3,-125 501.3,-125 501.3,-145.5 493,-145.5 418.4,-145.5 418.4,-125 414.4,-125 
	414.4,-117.5 418.4,-117.5 418.4,-51.5 414.4,-51.5 414.4,-44 505.3,-44 505.3,-51.5 501.3,-51.5 501.3,-117.5 "/>
<g>
	<path class="st1" d="M481,8.3c1.6-11-5.9-21.2-16.9-22.9c-11-1.6-21.2,5.9-22.9,16.9c-0.8,5.6,0.8,11.1,4,15.3l-2.5-0.4
		c-1.6-0.2-3.2,0.9-3.4,2.5c-0.2,1.6,0.9,3.2,2.5,3.4l1.8,0.3l-3.3,6.7l33.4,5l-1.2-7.4l1.8,0.3c0.2,0,0.3,0,0.4,0
		c1.5,0,2.7-1.1,3-2.5c0.2-1.6-0.9-3.2-2.5-3.4l-2.5-0.4C477.1,18.7,480.2,13.9,481,8.3z"/>
	<g>
		<polygon class="st2" points="467.1,28.5 433.6,23.4 438.4,13.9 465.3,17.9 		"/>
		<circle class="st3" cx="454.5" cy="-1.4" r="20.1"/>
		<g>
			<defs>
				<circle id="SVGID_1_" cx="454.5" cy="-1.4" r="20.1"/>
			</defs>
			<clipPath id="SVGID_2_">
				<use xlink:href="#SVGID_1_"  style="overflow:visible;"/>
			</clipPath>
			<path class="st4" d="M435.3,5c2.7-1.7,6.3-1.9,9.2-0.6c2,0.9,3.8,2.4,6,2.2c1.7-0.1,3.2-1.4,4.9-1.7c1.4-0.3,2.9,0,4.2,0.5
				s2.6,1.3,3.9,1.8c2.6,1.2,5.4,1.8,8.2,1.8l3.2,5.1l-14.1,7.6l-23.1-3.5l-7.2-8.5L435.3,5z"/>
			<path class="st5" d="M458.7-9.8c-1.6-0.5-3.3-0.7-5-0.6c-0.7,0-1.4,0.2-1.8,0.8c-0.3,0.5-0.1,1,0.1,1.5c0.3,0.4,0.7,0.7,1.1,1.1
				c2.3,1.7,4.6,3.3,6.9,5c0.7,0.5,1.6,1.4,1.2,2.2c-0.3,0.7-1.1,0.8-1.8,0.8c-2.6,0-5.1-0.6-7.3-1.9c-0.8-0.5-1.6-1-2-1.9
				c-0.4-0.8-0.5-1.9,0.1-2.6c0.7-0.8,1.9-0.8,2.9-0.7c1.9,0.2,3.7,0.7,5.6,1s3.9,0.2,5.6-0.7c1.7-0.9,2.9-2.8,2.6-4.7
				c-0.2-1.3-1.1-2.3-2-3.2c-5-4.8-12.5-7-19.3-5.5c-1.9,0.4-3.7,1.1-5.3,2.2c-1.5,1.1-2.8,2.8-3.1,4.7c-0.4,2,0.3,4,1.3,5.8
				c2.5,4.4,7.4,7.3,12.4,7.9c5.1,0.6,10.3-0.8,14.6-3.5c1-0.6,2-1.3,3.1-1.7c1.1-0.4,2.4-0.5,3.5,0c1.1,0.5,1.8,1.7,2.1,2.8
				c0.3,1.2,0.3,2.4,0.2,3.6c0,0.9-0.1,1.9-0.7,2.6c-0.7,0.7-1.8,0.7-2.8,0.6c-5.5-0.7-10.5-4.6-12.5-9.9c-0.9-2.4-1.3-5.1-3.2-6.9
				c-1.7-1.5-4.2-1.9-6.5-1.4s-4.2,1.7-6.2,2.9c-1.3,0.8-2.7,1.7-3.1,3.1c-0.7,1.9,0.6,4,2.2,5.1c2.4,1.7,5.5,1.9,8.4,1.4
				c2.9-0.5,5.5-1.8,8.2-2.9c2.7-1.2,5.4-2.2,8.3-2.4"/>
		</g>
		<path class="st6" d="M468-16.2c2.9,4.1,4.4,9.3,3.6,14.7c-1.7,11-11.9,18.6-23,17c-3.9-0.6-7.3-2.2-10-4.6c3.1,4,7.6,6.8,12.9,7.6
			c11,1.6,21.2-5.9,22.9-16.9C475.4-5.3,472.8-11.9,468-16.2z"/>
		<line class="st7" x1="435.6" y1="13.5" x2="468.1" y2="18.4"/>
		<circle class="st8" cx="447.1" cy="-11.3" r="2.7"/>
		<circle class="st9" cx="442.4" cy="-6.2" r="1.2"/>
		<polygon class="st6" points="437,16.7 466.6,26.5 465.7,21 		"/>
	</g>
</g>
<g>
	<rect x="412.7" y="-151.3" class="st6" width="82.9" height="94.1"/>
	<rect x="412.7" y="-151.3" class="st8" width="74.6" height="94.1"/>
	<rect x="408.7" y="-130.8" class="st10" width="90.9" height="7.6"/>
	<rect x="408.7" y="-57.3" class="st10" width="90.9" height="7.6"/>
</g>
<path class="st1" d="M494.9,143.3c0.1-0.3,0.2-0.5,0.2-0.8c0-0.6-0.3-1.2-0.8-1.5l9.2-14.2h-87.3l9.2,14.2c-0.5,0.3-0.8,0.9-0.8,1.5
	c0,0.3,0.1,0.6,0.2,0.8c-12,6.6-20.2,19.3-20.2,34c0,21.4,17.4,38.8,38.8,38.8h32.9c21.4,0,38.8-17.4,38.8-38.8
	C515.1,162.6,506.9,149.9,494.9,143.3z"/>
<g>
	<path class="st10" d="M487.5,136.7l10.2-15.7h-87.3l10.2,15.7c-12.9,6.3-21.7,19.5-21.7,34.8c0,21.4,17.4,38.8,38.8,38.8h32.9
		c21.4,0,38.8-17.4,38.8-38.8C509.3,156.2,500.4,143,487.5,136.7z"/>
	<g>
		<path class="st6" d="M487.5,136.7l10.2-15.7h-21.2l-10.2,15.7c12.9,6.3,21.7,19.5,21.7,34.8c0,20.2-15.4,36.7-35.1,38.6
			c1.2,0.1,16.3,0.2,17.5,0.2c21.4,0,38.8-17.4,38.8-38.8C509.3,156.2,500.4,143,487.5,136.7z"/>
	</g>
	<line class="st11" x1="420.7" y1="136.7" x2="487.5" y2="136.7"/>
	<path class="st11" d="M474.5,136.7c2.2,0,4.2,0.9,5,2.8c0.8,1.9,0.3,4.3-1.3,5.6c-0.7,0.6-1.5,0.9-2,1.6c-1.3,1.4-1.2,3.8,0,5.4
		s3,2.4,4.9,2.9"/>
	<path class="st11" d="M476.4,136.7c4.2,0,8.5,2.3,9.5,5.1c0.3,0.9,0.1,2.1-0.6,2.8c-0.4,0.5-1,0.8-1.4,1.3c-0.7,1-0.4,2.4,0.5,3.3
		c0.8,0.9,2.1,1.2,3.2,1.3"/>
</g>
</svg>
