<?xml version="1.0" encoding="iso-8859-1"?>
<!-- Generator: Adobe Illustrator 16.0.0, SVG Export Plug-In . SVG Version: 6.00 Build 0)  -->
<!DOCTYPE svg PUBLIC "-//W3C//DTD SVG 1.1//EN" "http://www.w3.org/Graphics/SVG/1.1/DTD/svg11.dtd">
<svg version="1.1" xmlns="http://www.w3.org/2000/svg" xmlns:xlink="http://www.w3.org/1999/xlink" x="0px" y="0px"
	 width="19.529px" height="22.18px" viewBox="0 0 19.529 22.18" style="enable-background:new 0 0 19.529 22.18;"
	 xml:space="preserve">
<g id="cat">
	<g>
		<path style="fill:#404040;" d="M9.572,22.18c0-7.332,2.229-13.274,4.979-13.274s4.979,5.942,4.979,13.274"/>
		<circle style="fill:#404040;" cx="14.551" cy="5.045" r="3.924"/>
		<path style="fill:#404040;" d="M10.626,5.045V0c0,0,2.229,1.602,3.924,1.602C13.338,2.813,10.626,5.045,10.626,5.045z"/>
		<path style="fill:#404040;" d="M18.475,5.045V0c0,0-2.229,1.602-3.924,1.602C15.764,2.813,18.475,5.045,18.475,5.045z"/>
		<path style="fill:none;stroke:#404040;stroke-miterlimit:10;" d="M0.378,6.097c1.333-1.552,4.25-1.006,4.25,2.372
			S4.877,20.68,8.961,21.097"/>
		<circle style="fill:#404040;" cx="12.588" cy="4.186" r="0.604"/>
		<circle style="fill:#404040;" cx="16.512" cy="4.186" r="0.604"/>
	</g>
</g>
<g id="Layer_1">
</g>
</svg>
