<?xml version="1.0" encoding="iso-8859-1"?>
<!-- Generator: Adobe Illustrator 16.0.0, SVG Export Plug-In . SVG Version: 6.00 Build 0)  -->
<!DOCTYPE svg PUBLIC "-//W3C//DTD SVG 1.1//EN" "http://www.w3.org/Graphics/SVG/1.1/DTD/svg11.dtd">
<svg version="1.1" xmlns="http://www.w3.org/2000/svg" xmlns:xlink="http://www.w3.org/1999/xlink" x="0px" y="0px"
	 width="232.423px" height="237.043px" viewBox="0 0 232.423 237.043" style="enable-background:new 0 0 232.423 237.043;"
	 xml:space="preserve">
<g id="house3">
	<g>
		<rect x="21.778" y="43.097" style="fill:#DA4637;" width="39.187" height="39.187"/>
		<g>
			<polygon style="fill:#00ABEB;" points="43.658,60.482 43.658,43.097 38.408,43.097 38.408,60.482 21.778,60.482 21.778,65.733 
				38.408,65.733 38.408,82.283 43.658,82.283 43.658,65.733 60.964,65.733 60.964,60.482 			"/>
		</g>
	</g>
	<g>
		<rect x="30.334" y="16.481" style="fill:#FFE000;" width="26.012" height="26.011"/>
		<g>
			<polygon style="fill:#48B980;" points="44.858,28.021 44.858,16.481 41.374,16.481 41.374,28.021 30.334,28.021 30.334,31.507 
				41.374,31.507 41.374,42.492 44.858,42.492 44.858,31.507 56.346,31.507 56.346,28.021 			"/>
		</g>
	</g>
	<g>
		<rect x="3.076" y="154.491" style="fill:#D5B06E;" width="226.272" height="82.552"/>
		<rect x="3.076" y="154.491" style="fill:#FFDF00;" width="226.272" height="82.552"/>
		<rect x="11.041" y="154.491" style="fill:#F47B20;" width="210.335" height="82.552"/>
		<rect x="33.059" y="188.085" style="fill:#D1D1D1;" width="165.697" height="11.296"/>
		<rect x="33.059" y="176.149" style="fill:#D63E30;" width="165.697" height="12.499"/>
		<polygon style="fill:#FFFFFF;" points="66.853,188.648 54.975,188.648 63.628,176.149 75.506,176.149 		"/>
		<polygon style="fill:#FFFFFF;" points="92.353,188.648 80.475,188.648 89.128,176.149 101.006,176.149 		"/>
		<polygon style="fill:#FFFFFF;" points="117.854,188.648 105.975,188.648 114.628,176.149 126.506,176.149 		"/>
		<polygon style="fill:#FFFFFF;" points="143.354,188.648 131.475,188.648 140.129,176.149 152.006,176.149 		"/>
		<polygon style="fill:#FFFFFF;" points="168.854,188.648 156.975,188.648 165.629,176.149 177.506,176.149 		"/>
		<g>
			<polygon style="fill:#FFFFFF;" points="38.128,176.149 33.059,183.471 33.059,188.648 41.353,188.648 50.006,176.149 			"/>
			<polygon style="fill:#FFFFFF;" points="198.756,176.149 191.129,176.149 182.475,188.648 194.354,188.648 198.756,182.29 			"/>
		</g>
		<rect x="4.217" y="96.078" style="fill:#7C6959;" width="223.989" height="58.413"/>
		<g>
			<path style="fill:#FFFFFF;stroke:#FFFFFF;stroke-width:1.8744;stroke-linejoin:round;stroke-miterlimit:10;" d="M21.47,96.078
				c0,5.01-4.06,9.069-9.069,9.069s-9.069-4.06-9.069-9.069H21.47z"/>
			<path style="fill:#FFFFFF;stroke:#FFFFFF;stroke-width:1.8744;stroke-linejoin:round;stroke-miterlimit:10;" d="M39.611,96.078
				c0,5.01-4.061,9.069-9.07,9.069c-5.009,0-9.07-4.06-9.07-9.069H39.611z"/>
			<path style="fill:#FFFFFF;stroke:#FFFFFF;stroke-width:1.8744;stroke-linejoin:round;stroke-miterlimit:10;" d="M57.751,96.078
				c0,5.01-4.061,9.069-9.07,9.069s-9.07-4.06-9.07-9.069H57.751z"/>
			<path style="fill:#FFFFFF;stroke:#FFFFFF;stroke-width:1.8744;stroke-linejoin:round;stroke-miterlimit:10;" d="M192.812,96.078
				c0,5.01-4.061,9.069-9.07,9.069s-9.07-4.06-9.07-9.069H192.812z"/>
			<path style="fill:#FFFFFF;stroke:#FFFFFF;stroke-width:1.8744;stroke-linejoin:round;stroke-miterlimit:10;" d="M210.951,96.078
				c0,5.01-4.061,9.069-9.07,9.069c-5.008,0-9.068-4.06-9.068-9.069H210.951z"/>
			<path style="fill:#FFFFFF;stroke:#FFFFFF;stroke-width:1.8744;stroke-linejoin:round;stroke-miterlimit:10;" d="M229.092,96.078
				c0,5.01-4.061,9.069-9.07,9.069c-5.008,0-9.07-4.06-9.07-9.069H229.092z"/>
		</g>
		<rect x="37.681" y="232.054" style="fill:#7C6959;" width="71.062" height="4.989"/>
		<rect x="44.957" y="227.065" style="fill:#7C6959;" width="56.511" height="4.989"/>
		<rect x="73.854" y="193.002" style="fill:#404040;" width="16.303" height="34.063"/>
		<rect x="56.264" y="193.002" style="fill:#404040;" width="16.302" height="34.063"/>
		<rect x="121.682" y="232.054" style="fill:#7C6959;" width="71.062" height="4.989"/>
		<rect x="128.957" y="227.065" style="fill:#7C6959;" width="56.51" height="4.989"/>
		<rect x="157.854" y="193.002" style="fill:#404040;" width="16.303" height="34.063"/>
		<rect x="140.264" y="193.002" style="fill:#404040;" width="16.303" height="34.063"/>
		<polygon style="fill:#D1D1D1;" points="3.076,159.729 229.348,165.418 229.348,154.491 3.076,154.491 		"/>
		<polygon style="fill:#4C8DFD;" points="0,154.491 116.211,38.279 232.422,154.491 		"/>
		<polygon style="fill:#914295;" points="32.957,154.491 116.211,71.237 199.465,154.491 		"/>
		<polygon style="fill:#CCCCCC;" points="199.465,154.491 116.211,71.237 105.617,81.831 134.617,108.803 183.742,154.491 		"/>
		<path style="fill:#FFE000;" d="M87.16,142.779v-1.886c0-15.493,12.562-28.063,28.059-28.063l0,0
			c15.497,0,28.063,12.57,28.063,28.063v1.886H87.16z"/>
		<g>
			<rect x="113.219" y="106.528" style="fill:#914295;" width="4" height="36.433"/>
			<rect x="83.359" y="140.816" style="fill:#914295;" width="31.859" height="4"/>
			<rect x="115.219" y="140.816" style="fill:#914295;" width="36.43" height="4"/>
			
				<rect x="88.32" y="129.675" transform="matrix(0.7071 0.7071 -0.7071 0.7071 123.5913 -35.0271)" style="fill:#914295;" width="31.515" height="4"/>
			
				<rect x="124.361" y="115.918" transform="matrix(0.7072 0.707 -0.707 0.7072 130.0867 -50.7851)" style="fill:#914295;" width="4" height="31.514"/>
		</g>
	</g>
	<line style="fill:none;stroke:#736357;stroke-width:4;stroke-miterlimit:10;" x1="29.741" y1="81.732" x2="29.741" y2="95.232"/>
	<line style="fill:none;stroke:#736357;stroke-width:4;stroke-miterlimit:10;" x1="50.741" y1="81.732" x2="50.741" y2="95.232"/>
	<line style="fill:none;stroke:#736357;stroke-width:4;stroke-miterlimit:10;" x1="180.74" y1="76.815" x2="180.74" y2="95.232"/>
	<line style="fill:none;stroke:#736357;stroke-width:4;stroke-miterlimit:10;" x1="201.74" y1="76.482" x2="201.74" y2="95.232"/>
	<path style="fill:#F47B20;" d="M175.291,47.184c0,0,15.805-32.985,30.236-39.855c0,0-7.561,30.919,0.686,40.543L175.291,47.184z"/>
	<path style="fill:#FFE18C;" d="M210.334,65.049c0,10.627-8.611,19.242-19.238,19.242l0,0c-10.627,0-19.242-8.615-19.242-19.242l0,0
		c0-10.627,8.615-19.242,19.242-19.242l0,0C201.723,45.807,210.334,54.422,210.334,65.049L210.334,65.049z"/>
	<path style="fill:#FFFFFF;" d="M213.08,51.375c0,1.418-1.145,2.562-2.562,2.562h-38.238c-1.414,0-2.559-1.145-2.559-2.562v-4.696
		c0-1.418,1.145-2.563,2.559-2.563h38.238c1.418,0,2.562,1.146,2.562,2.563V51.375z"/>
	<path style="fill:#333333;" d="M186.283,62.302c0,1.896-1.539,3.436-3.434,3.436c-1.9,0-3.436-1.54-3.436-3.436
		c0-1.895,1.535-3.436,3.436-3.436C184.744,58.866,186.283,60.407,186.283,62.302z"/>
	<path style="fill:#333333;" d="M202.094,62.302c0,1.896-1.543,3.436-3.438,3.436c-1.9,0-3.439-1.54-3.439-3.436
		c0-1.895,1.539-3.436,3.439-3.436C200.551,58.866,202.094,60.407,202.094,62.302z"/>
	<path style="fill:#FFFFFF;" d="M212.627,4.124c0,2.276-1.848,4.124-4.125,4.124s-4.121-1.848-4.121-4.124
		c0-2.283,1.844-4.124,4.121-4.124S212.627,1.841,212.627,4.124z"/>
	<path style="fill:#FFE18C;" d="M171.859,60.932l-6.414-8.711c0,0-3.664,22.453,8.701,19.706L171.859,60.932z"/>
	<path style="fill:#FFE18C;" d="M208.502,60.932l6.414-8.711c0,0,3.664,22.453-8.703,19.706L208.502,60.932z"/>
</g>
<g id="Layer_1">
</g>
</svg>
