<?xml version="1.0" encoding="iso-8859-1"?>
<!-- Generator: Adobe Illustrator 16.0.0, SVG Export Plug-In . SVG Version: 6.00 Build 0)  -->
<!DOCTYPE svg PUBLIC "-//W3C//DTD SVG 1.1//EN" "http://www.w3.org/Graphics/SVG/1.1/DTD/svg11.dtd">
<svg version="1.1" xmlns="http://www.w3.org/2000/svg" xmlns:xlink="http://www.w3.org/1999/xlink" x="0px" y="0px"
	 width="335.938px" height="319.498px" viewBox="0 0 335.938 319.498" style="enable-background:new 0 0 335.938 319.498;"
	 xml:space="preserve">
<g id="house17">
	<line style="fill:#A7DFF8;" x1="22.706" y1="267.288" x2="308.953" y2="267.288"/>
	<path style="fill:#FDDE00;" d="M113.677,172.733c-2.255,0-4.084-1.828-4.084-4.083v-2.097c0-2.255,1.829-4.084,4.084-4.084h97.87
		c2.256,0,4.084,1.829,4.084,4.084v2.097c0,2.255-1.828,4.083-4.084,4.083H113.677z"/>
	<g style="opacity:0.1;">
		<path style="fill:#231F20;" d="M215.631,168.65v-1.487c0,2.256-1.828,2.437-4.084,2.437h-97.87c-2.255,0-4.084-0.181-4.084-2.437
			v1.487c0,2.255,1.829,4.083,4.084,4.083h97.87C213.803,172.733,215.631,170.905,215.631,168.65z"/>
	</g>
	<path style="fill:#FDDE00;" d="M113.677,162.685c-2.255,0-4.084-1.829-4.084-4.084v-2.097c0-2.255,1.829-4.084,4.084-4.084h97.87
		c2.256,0,4.084,1.829,4.084,4.084v2.097c0,2.255-1.828,4.084-4.084,4.084H113.677z"/>
	<g style="opacity:0.1;">
		<path style="fill:#231F20;" d="M215.631,158.601v-1.487c0,2.256-1.828,2.437-4.084,2.437h-97.87c-2.255,0-4.084-0.181-4.084-2.437
			v1.487c0,2.255,1.829,4.084,4.084,4.084h97.87C213.803,162.685,215.631,160.855,215.631,158.601z"/>
	</g>
	<path style="fill:#FDDE00;" d="M113.677,152.635c-2.255,0-4.084-1.829-4.084-4.085v-2.096c0-2.255,1.829-4.084,4.084-4.084h97.87
		c2.256,0,4.084,1.829,4.084,4.084v2.096c0,2.256-1.828,4.085-4.084,4.085H113.677z"/>
	<g style="opacity:0.1;">
		<path style="fill:#231F20;" d="M215.631,148.55v-1.486c0,2.256-1.828,2.437-4.084,2.437h-97.87c-2.255,0-4.084-0.181-4.084-2.437
			v1.486c0,2.256,1.829,4.085,4.084,4.085h97.87C213.803,152.635,215.631,150.806,215.631,148.55z"/>
	</g>
	<path style="fill:#FDDE00;" d="M113.677,142.585c-2.255,0-4.084-1.829-4.084-4.084v-2.097c0-2.255,1.829-4.084,4.084-4.084h97.87
		c2.256,0,4.084,1.829,4.084,4.084v2.097c0,2.255-1.828,4.084-4.084,4.084H113.677z"/>
	<g style="opacity:0.1;">
		<path style="fill:#231F20;" d="M215.631,138.501v-1.487c0,2.256-1.828,2.437-4.084,2.437h-97.87c-2.255,0-4.084-0.181-4.084-2.437
			v1.487c0,2.255,1.829,4.084,4.084,4.084h97.87C213.803,142.585,215.631,140.756,215.631,138.501z"/>
	</g>
	<path style="fill:#D94636;" d="M112.379,200.865c0,2.255-1.829,4.084-4.084,4.084H97.066c-2.256,0-4.084-1.829-4.084-4.084V87.541
		c0-2.256,1.828-4.084,4.084-4.084h11.229c2.255,0,4.084,1.828,4.084,4.084V200.865z"/>
	<g style="opacity:0.1;">
		<path style="fill:#231F20;" d="M108.295,83.457h-5.673c2.256,0,4.084,1.828,4.084,4.084v113.324c0,2.255-1.828,4.084-4.084,4.084
			h5.673c2.255,0,4.084-1.829,4.084-4.084V87.541C112.379,85.285,110.55,83.457,108.295,83.457z"/>
	</g>
	<path style="fill:#FDDE00;" d="M117.275,74.312c2.256,0,4.084,1.828,4.084,4.084v5.314c0,2.255-1.828,4.084-4.084,4.084h-28.16
		c-2.256,0-4.084-1.829-4.084-4.084v-5.314c0-2.256,1.828-4.084,4.084-4.084H117.275z"/>
	<g style="opacity:0.1;">
		<path style="fill:#231F20;" d="M117.275,74.312h-5.785c2.256,0,4.084,1.828,4.084,4.084v5.314c0,2.255-1.828,4.084-4.084,4.084
			h5.785c2.256,0,4.084-1.829,4.084-4.084v-5.314C121.359,76.141,119.531,74.312,117.275,74.312z"/>
	</g>
	<path style="fill:#36B04A;" d="M113.902,67.754c1.41,1.807,1.41,4.735,0,6.542H92.618c-1.41-1.807-1.41-4.735,0-6.542l8.088-13.652
		c1.411-1.807,3.698-1.807,5.108,0L113.902,67.754z"/>
	<g style="opacity:0.1;">
		<path style="fill:#231F20;" d="M113.902,67.754l-8.088-13.652l3.534,13.652c1.411,1.807,1.411,4.735,0,6.542h4.554
			C115.312,72.489,115.312,69.561,113.902,67.754z"/>
	</g>
	<path style="fill:#36B04A;" d="M232.875,67.754c1.41,1.807,1.41,4.735,0,6.542h-21.283c-1.412-1.807-1.412-4.735,0-6.542
		l8.088-13.652c1.41-1.807,3.697-1.807,5.107,0L232.875,67.754z"/>
	<g style="opacity:0.1;">
		<path style="fill:#231F20;" d="M232.875,67.754l-8.088-13.652l3.533,13.652c1.412,1.807,1.412,4.735,0,6.542h4.555
			C234.285,72.489,234.285,69.561,232.875,67.754z"/>
	</g>
	<path style="fill:#D94636;" d="M231.154,200.865c0,2.255-1.828,4.084-4.084,4.084h-11.229c-2.256,0-4.084-1.829-4.084-4.084V87.541
		c0-2.256,1.828-4.084,4.084-4.084h11.229c2.256,0,4.084,1.828,4.084,4.084V200.865z"/>
	<g style="opacity:0.1;">
		<path style="fill:#231F20;" d="M227.07,83.457h-5.672c2.256,0,4.084,1.828,4.084,4.084v113.324c0,2.255-1.828,4.084-4.084,4.084
			h5.672c2.256,0,4.084-1.829,4.084-4.084V87.541C231.154,85.285,229.326,83.457,227.07,83.457z"/>
	</g>
	<path style="fill:#FDDE00;" d="M236.051,74.312c2.256,0,4.084,1.828,4.084,4.084v5.314c0,2.255-1.828,4.084-4.084,4.084h-28.16
		c-2.256,0-4.084-1.829-4.084-4.084v-5.314c0-2.256,1.828-4.084,4.084-4.084H236.051z"/>
	<g style="opacity:0.1;">
		<path style="fill:#231F20;" d="M236.051,74.312h-5.785c2.256,0,4.084,1.828,4.084,4.084v5.314c0,2.255-1.828,4.084-4.084,4.084
			h5.785c2.256,0,4.084-1.829,4.084-4.084v-5.314C240.135,76.141,238.307,74.312,236.051,74.312z"/>
	</g>
	<path style="fill:#FDDE00;" d="M113.677,201.462c-2.255,0-4.084-1.828-4.084-4.084v-11.229c0-2.256,1.829-4.084,4.084-4.084h97.87
		c2.256,0,4.084,1.828,4.084,4.084v11.229c0,2.256-1.828,4.084-4.084,4.084H113.677z"/>
	<g style="opacity:0.1;">
		<path style="fill:#231F20;" d="M215.631,197.378v-11.131c0,2.256-1.828,4.084-4.084,4.084h-97.87
			c-2.255,0-4.084-1.828-4.084-4.084v11.131c0,2.256,1.829,4.084,4.084,4.084h97.87
			C213.803,201.462,215.631,199.634,215.631,197.378z"/>
	</g>
	
		<line style="fill:none;stroke:#FFFFFF;stroke-width:3;stroke-linecap:round;stroke-linejoin:round;stroke-miterlimit:10;" x1="103.552" y1="41.287" x2="103.552" y2="53.672"/>
	
		<line style="fill:none;stroke:#FFFFFF;stroke-width:3;stroke-linecap:round;stroke-linejoin:round;stroke-miterlimit:10;" x1="222.322" y1="41.287" x2="222.322" y2="53.672"/>
	<path style="fill:#36B04A;" d="M113.677,110.913c-2.255,0-4.084-1.829-4.084-4.084v-2.097c0-2.255,1.829-4.084,4.084-4.084h97.87
		c2.256,0,4.084,1.829,4.084,4.084v2.097c0,2.255-1.828,4.084-4.084,4.084H113.677z"/>
	<g style="opacity:0.1;">
		<path style="fill:#231F20;" d="M215.631,106.829v-1.487c0,2.256-1.828,2.437-4.084,2.437h-97.87c-2.255,0-4.084-0.181-4.084-2.437
			v1.487c0,2.255,1.829,4.084,4.084,4.084h97.87C213.803,110.913,215.631,109.084,215.631,106.829z"/>
	</g>
	<path style="fill:#36B04A;" d="M113.677,182.783c-2.255,0-4.084-1.828-4.084-4.084v-2.096c0-2.255,1.829-4.084,4.084-4.084h97.87
		c2.256,0,4.084,1.829,4.084,4.084v2.096c0,2.256-1.828,4.084-4.084,4.084H113.677z"/>
	<g style="opacity:0.1;">
		<path style="fill:#231F20;" d="M215.631,178.699v-1.486c0,2.256-1.828,2.437-4.084,2.437h-97.87c-2.255,0-4.084-0.181-4.084-2.437
			v1.486c0,2.256,1.829,4.084,4.084,4.084h97.87C213.803,182.783,215.631,180.955,215.631,178.699z"/>
	</g>
	<polyline style="fill:#D94636;" points="103.911,40.031 92.747,43.837 103.911,47.136 103.911,40.031 	"/>
	<polyline style="fill:#D94636;" points="222.277,40.031 211.113,43.837 222.277,47.136 222.277,40.031 	"/>
	<path style="fill:#FFFFFF;" d="M335.938,275.104L0,274.965l37.135-101.549c6.053,13.72,25.537,29.911,54.696,26.107
		c35.849-4.676,42.777-6.467,54.232-3.425c23.855,6.334,34.339-2.796,49.666-3.996c24.207-1.896,33.238,2.529,46.799,4.718
		c13.562,2.188,25.826-3.228,33.494-9.28c10.281-8.117,14.525-9.685,21.789-23.001L335.938,275.104"/>
	<line style="opacity:0.1;fill:#3396B9;" x1="313.951" y1="268.648" x2="20.589" y2="268.648"/>
	<circle style="opacity:0.1;fill:#3396B9;" cx="151.033" cy="123.586" r="123.586"/>
	<path style="fill:none;" d="M297.115,135.463c0,73.103-59.26,132.362-132.362,132.362c-73.103,0-132.363-59.26-132.363-132.362
		C32.39,62.361,91.651,3.1,164.753,3.1C237.855,3.1,297.115,62.361,297.115,135.463z"/>
	<g style="opacity:0.6;">
		<path style="fill:#FFFFFF;" d="M153.155,13.094C91.421,18.75,43.072,70.665,43.072,133.873c0,10.092,1.233,19.894,3.557,29.268
			c-0.75-5.872-1.141-11.863-1.141-17.95C45.488,78.347,92.178,22.964,153.155,13.094z"/>
	</g>
	<polygon style="fill:#7D8687;" points="277.582,318.796 47.833,318.796 71.89,232.378 256.934,232.378 	"/>
	<polygon style="fill:#7D8687;" points="283.035,319.089 42.445,319.089 47.216,300.592 278.172,300.592 	"/>
	<rect x="60.198" y="313.293" style="opacity:0.2;" width="206.38" height="6.205"/>
	<rect x="117.705" y="313.293" style="fill:#E4A024;" width="88.373" height="6.205"/>
	<rect x="162.896" y="264.744" style="fill:#404040;" width="20.272" height="48.378"/>
	<rect x="141.021" y="264.744" style="fill:#404040;" width="20.272" height="48.378"/>
	<circle style="fill:#D94636;" cx="99.44" cy="279.074" r="26.864"/>
	<g>
		<path style="opacity:0.2;" d="M99.44,262.21c13.128,0,24.049,9.418,26.393,21.864c0.306-1.621,0.472-3.291,0.472-5
			c0-14.837-12.027-26.864-26.864-26.864c-14.836,0-26.863,12.027-26.863,26.864c0,1.709,0.167,3.379,0.472,5
			C75.392,271.628,86.314,262.21,99.44,262.21z"/>
	</g>
	<circle style="fill:#36B04A;" cx="227.44" cy="279.074" r="26.864"/>
	<g>
		<path style="opacity:0.2;" d="M227.439,262.21c13.129,0,24.049,9.418,26.393,21.864c0.307-1.621,0.473-3.291,0.473-5
			c0-14.837-12.027-26.864-26.865-26.864c-14.836,0-26.863,12.027-26.863,26.864c0,1.709,0.168,3.379,0.473,5
			C203.393,271.628,214.314,262.21,227.439,262.21z"/>
	</g>
	<polygon style="opacity:0.2;" points="68.934,244.489 259.621,244.489 263.045,259.903 67.221,249.628 	"/>
	<circle style="fill:#FFF58A;" cx="147.924" cy="36.423" r="1.825"/>
	<circle style="fill:#FFF58A;" cx="179.161" cy="25.455" r="1.825"/>
	<circle style="fill:#FFF58A;" cx="177.64" cy="71.282" r="1.825"/>
	<circle style="fill:#FFF58A;" cx="139.775" cy="83.378" r="1.825"/>
	<circle style="fill:#FFF58A;" cx="125.418" cy="117.257" r="1.825"/>
	<circle style="fill:#FFF58A;" cx="71.071" cy="117.789" r="2.816"/>
	<circle style="fill:#FFF58A;" cx="246.375" cy="117.257" r="2.816"/>
	<circle style="fill:#FFF58A;" cx="281.434" cy="123.101" r="1.643"/>
	<circle style="fill:#FFF58A;" cx="240.268" cy="46.045" r="1.643"/>
	<circle style="fill:#C7A1C7;" cx="60.415" cy="157.601" r="2.266"/>
	<circle style="fill:#C7A1C7;" cx="55.847" cy="130.197" r="2.266"/>
	<circle style="fill:#C7A1C7;" cx="130.445" cy="54.077" r="2.266"/>
	<circle style="fill:#C7A1C7;" cx="188.296" cy="121.062" r="2.267"/>
	<circle style="fill:#C7A1C7;" cx="138.8" cy="122.585" r="2.266"/>
	<circle style="fill:#C7A1C7;" cx="249.971" cy="73.868" r="2.266"/>
	<circle style="fill:#C7A1C7;" cx="83.783" cy="101.561" r="1.443"/>
	<circle style="fill:#C7A1C7;" cx="268.934" cy="124.711" r="1.443"/>
	<circle style="fill:#FFFFFF;" cx="189.234" cy="53.316" r="2.105"/>
	<circle style="fill:#FFFFFF;" cx="166.221" cy="88.914" r="2.105"/>
	<circle style="fill:#FFFFFF;" cx="249.774" cy="162.167" r="2.106"/>
	<circle style="fill:#FFFFFF;" cx="74.116" cy="152.149" r="2.161"/>
	<circle style="fill:#FFFFFF;" cx="285.852" cy="140.854" r="2.16"/>
	<circle style="fill:#FFFFFF;" cx="271.904" cy="177.392" r="2.16"/>
	<circle style="fill:#00AAEA;" cx="162.539" cy="42.148" r="1.856"/>
	<circle style="fill:#00AAEA;" cx="71.833" cy="87.143" r="1.856"/>
	<circle style="fill:#00AAEA;" cx="258.325" cy="142.376" r="1.856"/>
	<circle style="fill:#00AAEA;" cx="247.335" cy="180.437" r="1.856"/>
	<circle style="fill:#00AAEA;" cx="162.267" cy="15.951" r="1.594"/>
	<circle style="fill:#00AAEA;" cx="263.32" cy="102.033" r="1.855"/>
	<circle style="fill:#00AAEA;" cx="276.595" cy="93.66" r="1.856"/>
	<circle style="fill:#00AAEA;" cx="76.733" cy="177.392" r="1.856"/>
	<circle style="fill:#00AAEA;" cx="56.942" cy="184.242" r="1.856"/>
	<circle style="fill:#FFFFFF;" cx="146.674" cy="58.495" r="1.503"/>
</g>
<g id="Layer_1">
</g>
</svg>
