<?xml version="1.0" encoding="iso-8859-1"?>
<!-- Generator: Adobe Illustrator 16.0.0, SVG Export Plug-In . SVG Version: 6.00 Build 0)  -->
<!DOCTYPE svg PUBLIC "-//W3C//DTD SVG 1.1//EN" "http://www.w3.org/Graphics/SVG/1.1/DTD/svg11.dtd">
<svg version="1.1" xmlns="http://www.w3.org/2000/svg" xmlns:xlink="http://www.w3.org/1999/xlink" x="0px" y="0px"
	 width="273.203px" height="267.423px" viewBox="0 0 273.203 267.423" style="enable-background:new 0 0 273.203 267.423;"
	 xml:space="preserve">
<g id="house15">
	<path style="fill:#87847D;" d="M207.242,50.238c-1.264,0-2.288-1.024-2.288-2.288V32.817c0-1.263-1.027-2.289-2.289-2.289h-12.102
		c-3.785,0-6.864-3.079-6.864-6.865v-7.271c0-1.262-1.027-2.288-2.289-2.288h-8.177c-1.264,0-2.288-1.025-2.288-2.289
		s1.024-2.288,2.288-2.288h8.177c3.785,0,6.865,3.08,6.865,6.865v7.271c0,1.262,1.026,2.288,2.288,2.288h12.102
		c3.785,0,6.865,3.08,6.865,6.866V47.95C209.53,49.214,208.506,50.238,207.242,50.238z"/>
	<path style="fill:#87847D;" d="M188.786,41.121h-6.905c-3.785,0-6.864-3.08-6.864-6.865V28.43c0-1.264,1.023-2.289,2.288-2.289
		c1.264,0,2.288,1.025,2.288,2.289v5.826c0,1.262,1.027,2.288,2.288,2.288h6.905c1.263,0,2.289-1.026,2.289-2.288v-4.73
		c0-1.264,1.024-2.288,2.288-2.288c1.265,0,2.288,1.024,2.288,2.288v4.73C195.651,38.041,192.572,41.121,188.786,41.121z"/>
	<path style="fill:#87847D;" d="M236.907,50.412c-1.265,0-2.289-1.025-2.289-2.289V32.99c0-3.785,3.08-6.865,6.865-6.865h12.102
		c1.262,0,2.289-1.026,2.289-2.288v-7.272c0-3.785,3.079-6.865,6.864-6.865h8.177c1.264,0,2.288,1.025,2.288,2.289
		s-1.024,2.288-2.288,2.288h-8.177c-1.262,0-2.288,1.026-2.288,2.288v7.272c0,3.785-3.08,6.865-6.865,6.865h-12.102
		c-1.262,0-2.288,1.026-2.288,2.288v15.133C239.195,49.387,238.171,50.412,236.907,50.412z"/>
	<path style="fill:#87847D;" d="M262.267,41.294h-6.904c-3.786,0-6.865-3.08-6.865-6.865v-4.729c0-1.265,1.024-2.289,2.288-2.289
		c1.265,0,2.288,1.024,2.288,2.289v4.729c0,1.262,1.027,2.288,2.289,2.288h6.904c1.262,0,2.289-1.026,2.289-2.288v-5.826
		c0-1.264,1.024-2.288,2.288-2.288s2.288,1.024,2.288,2.288v5.826C269.132,38.214,266.052,41.294,262.267,41.294z"/>
	<polyline style="fill:none;stroke:#87847D;stroke-width:2;stroke-miterlimit:10;" points="211.611,256.969 211.611,256.969 
		234.809,256.969 	"/>
	<polyline style="fill:none;stroke:#87847D;stroke-width:2;stroke-miterlimit:10;" points="211.611,244.855 211.611,244.855 
		234.809,244.855 	"/>
	<polyline style="fill:none;stroke:#87847D;stroke-width:2;stroke-miterlimit:10;" points="211.611,155.881 211.611,155.881 
		234.809,155.881 	"/>
	
		<line style="fill:none;stroke:#87847D;stroke-width:2;stroke-miterlimit:10;" x1="211.121" y1="138.667" x2="211.121" y2="267.423"/>
	
		<line style="fill:none;stroke:#87847D;stroke-width:2;stroke-miterlimit:10;" x1="234.867" y1="138.667" x2="234.867" y2="267.423"/>
	<polyline style="fill:none;stroke:#87847D;stroke-width:2;stroke-miterlimit:10;" points="211.611,143.244 211.611,143.244 
		234.809,143.244 	"/>
	<g>
		<polyline style="fill:none;stroke:#87847D;stroke-width:2;stroke-miterlimit:10;" points="118.098,256.969 118.098,256.969 
			141.296,256.969 		"/>
		<polyline style="fill:none;stroke:#87847D;stroke-width:2;stroke-miterlimit:10;" points="118.098,244.332 118.098,244.332 
			141.296,244.332 		"/>
		<polyline style="fill:none;stroke:#87847D;stroke-width:2;stroke-miterlimit:10;" points="118.098,231.696 118.098,231.696 
			141.296,231.696 		"/>
		<polyline style="fill:none;stroke:#87847D;stroke-width:2;stroke-miterlimit:10;" points="118.098,219.061 118.098,219.061 
			141.296,219.061 		"/>
		
			<line style="fill:none;stroke:#87847D;stroke-width:2;stroke-miterlimit:10;" x1="117.608" y1="214.324" x2="117.608" y2="267.423"/>
		
			<line style="fill:none;stroke:#87847D;stroke-width:2;stroke-miterlimit:10;" x1="141.354" y1="214.324" x2="141.354" y2="267.423"/>
	</g>
	
		<line style="fill:none;stroke:#A66D40;stroke-width:5.8479;stroke-miterlimit:10;" x1="105.233" y1="194.718" x2="105.233" y2="267.423"/>
	
		<line style="fill:none;stroke:#A66D40;stroke-width:5.8479;stroke-miterlimit:10;" x1="153.27" y1="166.288" x2="153.27" y2="267.423"/>
	
		<line style="fill:none;stroke:#B9C9D2;stroke-width:12.3837;stroke-linecap:round;stroke-linejoin:round;stroke-miterlimit:10;" x1="202.135" y1="120.702" x2="55.575" y2="221.677"/>
	
		<line style="fill:none;stroke:#A66D40;stroke-width:5.8479;stroke-miterlimit:10;" x1="204.095" y1="129.525" x2="57.536" y2="230.5"/>
	<polygon style="fill:#FFFFFF;" points="222.646,0 225.517,8.834 234.805,8.834 227.29,14.293 230.16,23.126 222.646,17.667 
		215.132,23.126 218.003,14.293 210.488,8.834 219.776,8.834 	"/>
	<polygon style="fill:#FFFFFF;" points="33.436,99.114 36.306,107.948 45.594,107.948 38.079,113.407 40.949,122.24 33.436,116.781 
		25.921,122.24 28.791,113.407 21.277,107.948 30.565,107.948 	"/>
	
		<line style="fill:none;stroke:#A66D40;stroke-width:5.8479;stroke-miterlimit:10;" x1="198.535" y1="138.667" x2="198.535" y2="267.423"/>
	
		<line style="fill:none;stroke:#A66D40;stroke-width:5.8479;stroke-miterlimit:10;" x1="248.534" y1="138.667" x2="248.534" y2="267.423"/>
	<path style="fill:#FFD600;" d="M251.149,134.745h-55.556V63.354h55.556V134.745z"/>
	
		<line style="fill:none;stroke:#A66D40;stroke-width:5.8479;stroke-miterlimit:10;" x1="192.325" y1="137.359" x2="252.252" y2="137.359"/>
	<path style="fill:#50B748;" d="M251.149,232.288h-55.556v-71.392h55.556V232.288z"/>
	<path style="fill:#CCCCCC;" d="M251.149,167.414h-55.556v-7.556h55.556V167.414z"/>
	
		<line style="fill:none;stroke:#A66D40;stroke-width:5.8479;stroke-miterlimit:10;" x1="254.09" y1="234.902" x2="103.438" y2="234.902"/>
	<polygon style="fill:#D63E30;" points="250.496,61.173 194.738,61.173 222.617,19.209 	"/>
	<circle style="fill:#FFFFFF;" cx="205.247" cy="74.808" r="5.6"/>
	<circle style="fill:#333333;" cx="205.941" cy="77.012" r="3.21"/>
	<circle style="fill:#FFFFFF;" cx="241.057" cy="74.808" r="5.6"/>
	<circle style="fill:#333333;" cx="240.363" cy="77.012" r="3.21"/>
	<rect x="195.594" y="63.354" style="fill:#CCCCCC;" width="55.556" height="5.161"/>
	
		<line style="fill:none;stroke:#FFFFFF;stroke-width:6.8799;stroke-linecap:round;stroke-linejoin:round;stroke-miterlimit:10;" x1="254.09" y1="60.562" x2="192.325" y2="60.562"/>
	
		<line style="fill:none;stroke:#A66D40;stroke-width:5.8479;stroke-miterlimit:10;" x1="9.648" y1="236.704" x2="9.648" y2="267.423"/>
	
		<line style="fill:none;stroke:#A66D40;stroke-width:5.8479;stroke-miterlimit:10;" x1="59.647" y1="236.704" x2="59.647" y2="267.423"/>
	<path style="fill:#00ADEE;" d="M62.263,232.783H6.708v-71.392h55.555V232.783z"/>
	<path style="fill:#CCCCCC;" d="M62.263,166.43H6.708v-5.688h55.555V166.43z"/>
	
		<line style="fill:none;stroke:#A66D40;stroke-width:5.8479;stroke-miterlimit:10;" x1="65.203" y1="235.397" x2="3.439" y2="235.397"/>
	<polygon style="fill:#D63E30;" points="61.609,159.211 5.853,159.211 33.73,117.247 	"/>
	
		<line style="fill:none;stroke:#FFFFFF;stroke-width:6.8799;stroke-linecap:round;stroke-linejoin:round;stroke-miterlimit:10;" x1="65.203" y1="158.601" x2="3.439" y2="158.601"/>
	
		<line style="fill:none;stroke:#FFFFFF;stroke-width:6.8799;stroke-linecap:round;stroke-linejoin:round;stroke-miterlimit:10;" x1="254.09" y1="160.234" x2="192.325" y2="160.234"/>
	<circle style="fill:#914295;" cx="34.018" cy="196.413" r="11.971"/>
	<path style="fill:none;stroke:#FFFFFF;stroke-width:2;stroke-miterlimit:10;" d="M206.328,111.771
		c0,9.204,7.462,16.666,16.665,16.666c9.205,0,16.666-7.462,16.666-16.666"/>
	<circle style="fill:#FFFFFF;" cx="205.247" cy="173.821" r="5.6"/>
	<circle style="fill:#333333;" cx="203.98" cy="172.321" r="3.21"/>
	<circle style="fill:#FFFFFF;" cx="241.057" cy="173.821" r="5.6"/>
	<circle style="fill:#333333;" cx="238.838" cy="172.757" r="3.21"/>
	<path style="fill:none;stroke:#FFFFFF;stroke-width:2;stroke-miterlimit:10;" d="M206.328,210.784
		c0,9.204,7.462,16.665,16.665,16.665c9.205,0,16.666-7.461,16.666-16.665"/>
	<circle style="fill:#FFFFFF;" cx="16.688" cy="173.821" r="5.6"/>
	<circle style="fill:#333333;" cx="19.342" cy="172.975" r="3.21"/>
	<circle style="fill:#FFFFFF;" cx="52.497" cy="173.821" r="5.6"/>
	<circle style="fill:#333333;" cx="54.2" cy="173.41" r="3.21"/>
	<path style="fill:none;stroke:#FFFFFF;stroke-width:2;stroke-miterlimit:10;" d="M17.769,210.784
		c0,9.204,7.461,16.665,16.665,16.665S51.1,219.988,51.1,210.784"/>
	<circle style="fill:#FFD600;" cx="223.222" cy="196.413" r="11.971"/>
	<circle style="fill:#D63E30;" cx="223.222" cy="98.562" r="11.972"/>
</g>
<g id="Layer_1">
</g>
</svg>
