<?xml version="1.0" encoding="iso-8859-1"?>
<!-- Generator: Adobe Illustrator 16.0.0, SVG Export Plug-In . SVG Version: 6.00 Build 0)  -->
<!DOCTYPE svg PUBLIC "-//W3C//DTD SVG 1.1//EN" "http://www.w3.org/Graphics/SVG/1.1/DTD/svg11.dtd">
<svg version="1.1" xmlns="http://www.w3.org/2000/svg" xmlns:xlink="http://www.w3.org/1999/xlink" x="0px" y="0px"
	 width="292.896px" height="234.334px" viewBox="0 0 292.896 234.334" style="enable-background:new 0 0 292.896 234.334;"
	 xml:space="preserve">
<g id="house9">
	<polygon style="fill:#ABABAB;" points="162.896,149.5 180.229,99.5 194.229,134.167 217.562,115.5 240.896,172.834 
		262.229,162.834 292.896,234.167 186.229,234.167 	"/>
	<path style="fill:none;stroke:#7289A7;stroke-width:8;stroke-miterlimit:10;" d="M133.729,62.667
		c58.5-49,145.567-66.732,140.667-22"/>
	
		<line style="fill:none;stroke:#7289A7;stroke-width:4;stroke-miterlimit:10;" x1="168.229" y1="39.667" x2="168.229" y2="234.167"/>
	<line style="fill:none;stroke:#7289A7;stroke-width:4;stroke-miterlimit:10;" x1="250.229" y1="95.5" x2="165.562" y2="180.167"/>
	<g>
		<polygon style="fill:#E0E0E0;" points="141.896,18.667 115.229,0 87.229,100.667 64.563,81.334 43.896,142 24.563,138.667 
			0,234.334 192.066,234.334 		"/>
	</g>
	<g>
		<polygon style="fill:#F2F2F2;" points="139.229,171.167 117.562,69.5 101.229,145.167 68.896,105.5 43.229,169.167 
			29.229,149.167 13,234.334 182.229,234.334 		"/>
	</g>
	<g>
		<path style="fill:#2B4352;" d="M91.885,186c0-19.882-9.099-36-20.322-36c-11.225,0-20.323,16.118-20.323,36v36.334h40.646V186z"/>
	</g>
	
		<line style="fill:none;stroke:#7289A7;stroke-width:4;stroke-miterlimit:10;" x1="274.229" y1="40.834" x2="274.229" y2="234.167"/>
	
		<line style="fill:none;stroke:#7289A7;stroke-width:4;stroke-miterlimit:10;" x1="209.229" y1="234.167" x2="209.229" y2="23.167"/>
	
		<line style="fill:none;stroke:#7289A7;stroke-width:4;stroke-miterlimit:10;" x1="230.229" y1="134.167" x2="230.229" y2="234.167"/>
	<line style="fill:none;stroke:#7289A7;stroke-width:4;stroke-miterlimit:10;" x1="175.562" y1="177.5" x2="175.562" y2="234.167"/>
	<line style="fill:none;stroke:#7289A7;stroke-width:4;stroke-miterlimit:10;" x1="121.562" y1="201.5" x2="121.562" y2="234.167"/>
	<path style="fill:none;stroke:#7289A7;stroke-width:8;stroke-miterlimit:10;" d="M274.396,40.667
		c-11.668,106.5-141.167,172.5-222.667,173.833"/>
	<line style="fill:none;stroke:#7289A7;stroke-width:4;stroke-miterlimit:10;" x1="120.896" y1="226.834" x2="175.562" y2="177.5"/>
	<polyline style="fill:none;stroke:#7289A7;stroke-width:4;stroke-miterlimit:10;" points="121.562,201.5 175.562,227.5 
		231.562,134.834 	"/>
	<polyline style="fill:none;stroke:#7289A7;stroke-width:4;stroke-miterlimit:10;" points="177.562,173.5 230.229,226.167 
		274.479,73.667 	"/>
	<line style="fill:none;stroke:#7289A7;stroke-width:4;stroke-miterlimit:10;" x1="230.229" y1="131.5" x2="273.896" y2="226.834"/>
	<polyline style="fill:none;stroke:#7289A7;stroke-width:4;stroke-miterlimit:10;" points="166.229,40.167 249.729,102.167 
		274.229,170.5 	"/>
	<polyline style="fill:none;stroke:#7289A7;stroke-width:4;stroke-miterlimit:10;" points="250.896,221.167 168.229,114.167 
		251.229,16.667 251.229,234.167 	"/>
	<polygon style="fill:#4D4D4D;" points="108.036,199.679 102.579,201.2 102.231,199.417 107.688,197.896 	"/>
	<polygon style="fill:#4D4D4D;" points="157.09,178.997 152.943,181.706 152.117,180.087 156.266,177.378 	"/>
	<g>
		<g>
			
				<path style="fill:none;stroke:#B9C9D2;stroke-width:2.7401;stroke-linecap:round;stroke-linejoin:round;stroke-miterlimit:10;" d="
				M73.043,193.702c0.535,3.379-1.771,6.553-5.15,7.088c-3.378,0.534-6.551-1.771-7.086-5.151l-1.337-8.446
				c-0.534-3.379,1.771-6.553,5.149-7.087c3.379-0.535,6.553,1.771,7.088,5.15L73.043,193.702z"/>
		</g>
		
			<path style="fill:none;stroke:#B9C9D2;stroke-width:2.7401;stroke-linecap:round;stroke-linejoin:round;stroke-miterlimit:10;" d="
			M96.741,190.049c0.535,3.379-1.771,6.552-5.15,7.087c-3.377,0.534-6.551-1.771-7.086-5.15l-1.336-8.447
			c-0.535-3.379,1.771-6.552,5.148-7.087c3.38-0.534,6.553,1.771,7.088,5.15L96.741,190.049z"/>
		
			<rect x="53.521" y="185.866" transform="matrix(0.9883 -0.1524 0.1524 0.9883 -28.8882 14.1686)" style="fill:#D63E30;" width="48.951" height="19.388"/>
		
			<rect x="52.925" y="190.868" transform="matrix(0.9883 -0.1524 0.1524 0.9883 -28.3062 14.0326)" style="fill:#FFD600;" width="48.951" height="1.653"/>
		<circle style="fill:#B9CAD1;" cx="60.955" cy="207.887" r="4.23"/>
		<circle style="fill:#4D4D4D;" cx="60.918" cy="207.872" r="1.587"/>
		<circle style="fill:#B9CAD1;" cx="69.213" cy="206.613" r="4.23"/>
		<circle style="fill:#4D4D4D;" cx="69.176" cy="206.598" r="1.587"/>
		<circle style="fill:#B9CAD1;" cx="88.722" cy="203.605" r="4.23"/>
		<circle style="fill:#4D4D4D;" cx="88.685" cy="203.59" r="1.586"/>
		<circle style="fill:#B9CAD1;" cx="96.98" cy="202.332" r="4.23"/>
		<circle style="fill:#4D4D4D;" cx="96.943" cy="202.317" r="1.587"/>
	</g>
	<g>
		<g>
			
				<path style="fill:none;stroke:#B9C9D2;stroke-width:2.7401;stroke-linecap:round;stroke-linejoin:round;stroke-miterlimit:10;" d="
				M122.032,181.553c1.284,3.171-0.245,6.783-3.416,8.067c-3.17,1.285-6.782-0.244-8.067-3.415l-3.211-7.926
				c-1.285-3.171,0.245-6.784,3.415-8.068c3.171-1.284,6.783,0.245,8.068,3.416L122.032,181.553z"/>
		</g>
		
			<path style="fill:none;stroke:#B9C9D2;stroke-width:2.7401;stroke-linecap:round;stroke-linejoin:round;stroke-miterlimit:10;" d="
			M144.29,172.637c1.285,3.171-0.245,6.783-3.416,8.068c-3.169,1.284-6.782-0.245-8.067-3.416l-3.211-7.926
			c-1.285-3.171,0.244-6.783,3.414-8.067c3.171-1.285,6.783,0.244,8.068,3.415L144.29,172.637z"/>
		
			<rect x="102.801" y="172.55" transform="matrix(0.9283 -0.3718 0.3718 0.9283 -58.6363 60.3889)" style="fill:#D63E30;" width="48.949" height="19.387"/>
		
			<rect x="101.346" y="177.785" transform="matrix(0.9283 -0.3718 0.3718 0.9283 -57.3936 59.5923)" style="fill:#FFD600;" width="48.949" height="1.654"/>
		<circle style="fill:#B9CAD1;" cx="113.462" cy="198.102" r="4.23"/>
		<circle style="fill:#4D4D4D;" cx="113.422" cy="198.096" r="1.587"/>
		<circle style="fill:#B9CAD1;" cx="121.218" cy="194.995" r="4.23"/>
		<circle style="fill:#4D4D4D;" cx="121.179" cy="194.988" r="1.587"/>
		<circle style="fill:#B9CAD1;" cx="139.542" cy="187.655" r="4.23"/>
		<circle style="fill:#4D4D4D;" cx="139.502" cy="187.649" r="1.587"/>
		<circle style="fill:#B9CAD1;" cx="147.3" cy="184.548" r="4.23"/>
		<circle style="fill:#4D4D4D;" cx="147.259" cy="184.542" r="1.587"/>
	</g>
	<polygon style="fill:#4D4D4D;" points="201.559,151.259 196.344,154.656 195.455,153.072 200.67,149.675 	"/>
	<g>
		<g>
			
				<path style="fill:none;stroke:#B9C9D2;stroke-width:2.7401;stroke-linecap:round;stroke-linejoin:round;stroke-miterlimit:10;" d="
				M167.295,159.396c1.799,2.91,0.898,6.728-2.012,8.527c-2.908,1.798-6.727,0.897-8.525-2.013l-4.498-7.273
				c-1.799-2.91-0.898-6.728,2.011-8.526c2.91-1.799,6.728-0.898,8.527,2.012L167.295,159.396z"/>
		</g>
		
			<path style="fill:none;stroke:#B9C9D2;stroke-width:2.7401;stroke-linecap:round;stroke-linejoin:round;stroke-miterlimit:10;" d="
			M187.739,146.867c1.799,2.909,0.898,6.728-2.011,8.527c-2.91,1.798-6.728,0.897-8.527-2.013l-4.496-7.273
			c-1.8-2.91-0.899-6.728,2.01-8.526c2.91-1.799,6.729-0.898,8.527,2.011L187.739,146.867z"/>
		
			<rect x="148.105" y="149.501" transform="matrix(0.8526 -0.5225 0.5225 0.8526 -57.7478 113.6322)" style="fill:#D63E30;" width="48.95" height="19.387"/>
		
			<rect x="146.062" y="155.033" transform="matrix(0.8526 -0.5225 0.5225 0.8526 -56.3077 112.079)" style="fill:#FFD600;" width="48.949" height="1.654"/>
		<circle style="fill:#B9CAD1;" cx="161.627" cy="177.149" r="4.23"/>
		<circle style="fill:#4D4D4D;" cx="161.587" cy="177.149" r="1.586"/>
		<circle style="fill:#B9CAD1;" cx="168.751" cy="172.783" r="4.23"/>
		<circle style="fill:#4D4D4D;" cx="168.711" cy="172.783" r="1.587"/>
		<circle style="fill:#B9CAD1;" cx="185.583" cy="162.469" r="4.23"/>
		<circle style="fill:#4D4D4D;" cx="185.542" cy="162.47" r="1.586"/>
		<circle style="fill:#B9CAD1;" cx="192.707" cy="158.104" r="4.23"/>
		<circle style="fill:#4D4D4D;" cx="192.667" cy="158.104" r="1.587"/>
	</g>
	<g>
		<g>
			
				<path style="fill:none;stroke:#B9C9D2;stroke-width:2.7401;stroke-linecap:round;stroke-linejoin:round;stroke-miterlimit:10;" d="
				M207.242,128.745c2.451,2.387,2.503,6.31,0.116,8.761c-2.386,2.449-6.31,2.501-8.76,0.114l-6.126-5.967
				c-2.451-2.387-2.503-6.31-0.117-8.76c2.388-2.45,6.311-2.502,8.761-0.115L207.242,128.745z"/>
		</g>
		
			<path style="fill:none;stroke:#B9C9D2;stroke-width:2.7401;stroke-linecap:round;stroke-linejoin:round;stroke-miterlimit:10;" d="
			M224.041,111.635c2.45,2.387,2.502,6.31,0.115,8.761c-2.387,2.449-6.309,2.501-8.76,0.114l-6.127-5.967
			c-2.45-2.387-2.502-6.31-0.115-8.76s6.309-2.502,8.76-0.115L224.041,111.635z"/>
		<polygon style="fill:#D63E30;" points="240.863,112.034 202.093,151.525 188.258,137.943 222.55,103.013 234.541,105.827 		"/>
		<g>
			<polygon style="fill:#FFD600;" points="191.795,141.415 228.195,104.338 230.078,104.78 192.975,142.574 			"/>
		</g>
		<circle style="fill:#B9CAD1;" cx="206.047" cy="147.343" r="4.23"/>
		<circle style="fill:#4D4D4D;" cx="206.008" cy="147.353" r="1.587"/>
		<circle style="fill:#B9CAD1;" cx="211.901" cy="141.381" r="4.23"/>
		<circle style="fill:#4D4D4D;" cx="211.862" cy="141.391" r="1.587"/>
		<circle style="fill:#B9CAD1;" cx="225.729" cy="127.295" r="4.23"/>
		<circle style="fill:#4D4D4D;" cx="225.691" cy="127.305" r="1.587"/>
		<circle style="fill:#B9CAD1;" cx="231.583" cy="121.332" r="4.23"/>
		<circle style="fill:#4D4D4D;" cx="231.544" cy="121.342" r="1.587"/>
	</g>
</g>
<g id="Layer_1">
</g>
</svg>
