<?xml version="1.0" encoding="iso-8859-1"?>
<!-- Generator: Adobe Illustrator 16.0.0, SVG Export Plug-In . SVG Version: 6.00 Build 0)  -->
<!DOCTYPE svg PUBLIC "-//W3C//DTD SVG 1.1//EN" "http://www.w3.org/Graphics/SVG/1.1/DTD/svg11.dtd">
<svg version="1.1" xmlns="http://www.w3.org/2000/svg" xmlns:xlink="http://www.w3.org/1999/xlink" x="0px" y="0px"
	 width="240.825px" height="219.441px" viewBox="0 0 240.825 219.441" style="enable-background:new 0 0 240.825 219.441;"
	 xml:space="preserve">
<g id="house13">
	<rect x="34.906" y="149.024" style="fill:#87847D;" width="187.529" height="70.417"/>
	<polygon style="fill:#D43E2E;" points="233.602,125.941 23.333,125.941 18.333,158.983 238.602,158.983 	"/>
	<rect x="102.795" y="99.977" style="fill:#8B6339;" width="24.025" height="25.965"/>
	<g>
		<rect x="53.209" y="169.469" style="fill:#FDDF00;" width="39.952" height="36.654"/>
		
			<line style="fill:none;stroke:#87847D;stroke-width:3;stroke-miterlimit:10;" x1="73.185" y1="169.469" x2="73.185" y2="206.123"/>
		<g>
			<g>
				<rect x="167.893" y="169.469" style="fill:#FDDF00;" width="39.949" height="36.654"/>
				
					<line style="fill:none;stroke:#87847D;stroke-width:3;stroke-miterlimit:10;" x1="187.867" y1="169.469" x2="187.867" y2="206.123"/>
			</g>
		</g>
	</g>
	<g>
		<rect x="114.651" y="185.377" style="fill:#404040;" width="16.945" height="34.064"/>
		<rect x="127.438" y="199.389" style="fill:#87847D;" width="2.461" height="6.041"/>
		<rect x="132.596" y="185.377" style="fill:#404040;" width="16.943" height="34.064"/>
		<rect x="134.293" y="199.389" style="fill:#87847D;" width="2.461" height="6.041"/>
	</g>
	<path style="fill:#87847D;" d="M47.875,99.977v-72.21C47.875,12.433,60.306,0,75.636,0l0,0c15.336,0,27.772,12.433,27.772,27.767
		v72.21H47.875z"/>
	<rect x="75.636" style="fill:#87847D;" width="100.133" height="99.977"/>
	<path style="fill:#AAA89D;" d="M148.002,99.977v-72.21C148.002,12.433,160.434,0,175.77,0l0,0
		c15.334,0,27.768,12.433,27.768,27.767v72.21H148.002z"/>
	<path style="fill:#D43E2E;" d="M131.633,32.366c0,4.031-3.271,7.306-7.305,7.306c-4.036,0-7.305-3.274-7.305-7.306
		c0-4.033,3.27-7.305,7.305-7.305C128.361,25.062,131.633,28.333,131.633,32.366z"/>
	<polygon style="fill:#D43E2E;" points="125.578,28.833 71.017,28.833 71.017,30.193 71.017,35.898 71.017,49.722 83.851,49.722 
		83.851,35.898 125.578,35.898 	"/>
	<path style="fill:#979797;" d="M148.002,99.977v-72.21C148.002,12.433,160.434,0,175.77,0l0,0
		c15.334,0,27.768,12.433,27.768,27.767v72.21H148.002z"/>
	<g>
		<defs>
			<path id="SVGID_1_" d="M175.77,0c-15.336,0-27.768,12.433-27.768,27.767v72.21h27.768h27.768h26.064V0H175.77z"/>
		</defs>
		<clipPath id="SVGID_2_">
			<use xlink:href="#SVGID_1_"  style="overflow:visible;"/>
		</clipPath>
		<g style="clip-path:url(#SVGID_2_);">
			<g>
				
					<radialGradient id="SVGID_3_" cx="242.8955" cy="22.606" r="97.3117" gradientTransform="matrix(1 0 0 1 -99 0)" gradientUnits="userSpaceOnUse">
					<stop  offset="0" style="stop-color:#FDFBF4"/>
					<stop  offset="0.65" style="stop-color:#E2E0D0"/>
					<stop  offset="0.8215" style="stop-color:#DCDACB"/>
					<stop  offset="1" style="stop-color:#D0CDC0"/>
				</radialGradient>
				<polygon style="fill:url(#SVGID_3_);" points="217.906,22.519 143.736,22.519 146.961,85.407 214.686,85.407 				"/>
				<polygon style="fill:#D1D1D1;" points="180.82,62.828 146.961,85.407 146.961,83.788 180.82,61.216 				"/>
			</g>
			<g>
				<radialGradient id="SVGID_4_" cx="137.6084" cy="22.8413" r="106.8988" gradientUnits="userSpaceOnUse">
					<stop  offset="0.5" style="stop-color:#DF4A3F"/>
					<stop  offset="1" style="stop-color:#D53E2F"/>
				</radialGradient>
				<path style="fill:url(#SVGID_4_);" d="M217.906,22.519L180.82,49.123l-37.084-26.604c-3.564,0-6.451,2.886-6.451,6.447v49.99
					c0,3.561,2.887,6.451,6.451,6.451h3.225V38.642l33.859,24.187l33.865-24.187v46.766h3.221c3.562,0,6.449-2.891,6.449-6.451
					v-49.99C224.355,25.404,221.469,22.519,217.906,22.519z"/>
			</g>
			
				<linearGradient id="SVGID_5_" gradientUnits="userSpaceOnUse" x1="300.7539" y1="46.2832" x2="324.792" y2="76.5071" gradientTransform="matrix(1 0 0 1 -99 0)">
				<stop  offset="0.15" style="stop-color:#A6A6A6"/>
				<stop  offset="1" style="stop-color:#B3B3B3"/>
			</linearGradient>
			<path style="opacity:0.8;fill:url(#SVGID_5_);" d="M180.82,62.828l33.865,22.579h3.221c3.562,0,6.449-2.891,6.449-6.451V31.837
				L180.82,62.828z"/>
		</g>
	</g>
	<path style="fill:#CCCBCB;" d="M184.451,5.669c3.729,0,7.279,0.743,10.529,2.081C189.99,2.96,183.232,0,175.77,0
		c-15.336,0-27.768,12.433-27.768,27.767v72.21h8.68V33.432C156.682,18.101,169.113,5.669,184.451,5.669z"/>
	<polygon style="fill:#CCCBCB;" points="126.719,99.977 126.719,103.896 102.795,107.368 102.795,99.977 	"/>
	<g>
		<path style="fill:#87847D;" d="M18.333,183.039c-5.388,0-9.757,4.368-9.757,9.758v23.917v2.612h2.852v-2.612h13.813v2.612h2.851
			v-2.612v-23.917C28.091,187.407,23.72,183.039,18.333,183.039z"/>
		<rect x="11.427" y="201.097" style="opacity:0.3;fill:#4D4E4E;" width="13.813" height="7.317"/>
	</g>
	<polyline style="opacity:0.2;" points="34.5,158.983 222.027,178.9 222.027,158.983 	"/>
	<g>
		<path style="fill:none;stroke:#E5E5E4;stroke-width:2;stroke-miterlimit:10;" d="M25.706,125.941c0,4.549-3.687,8.235-8.235,8.235
			s-8.235-3.687-8.235-8.235"/>
		<path style="fill:none;stroke:#E5E5E4;stroke-width:2;stroke-miterlimit:10;" d="M42.176,125.941c0,4.549-3.687,8.235-8.235,8.235
			s-8.235-3.687-8.235-8.235"/>
		<path style="fill:none;stroke:#E5E5E4;stroke-width:2;stroke-miterlimit:10;" d="M58.647,125.941c0,4.549-3.687,8.235-8.235,8.235
			s-8.235-3.687-8.235-8.235"/>
		<path style="fill:none;stroke:#E5E5E4;stroke-width:2;stroke-miterlimit:10;" d="M75.118,125.941c0,4.549-3.687,8.235-8.235,8.235
			s-8.235-3.687-8.235-8.235"/>
		<path style="fill:none;stroke:#E5E5E4;stroke-width:2;stroke-miterlimit:10;" d="M17.47,134.177c0,4.548-3.688,8.234-8.235,8.234
			c-4.549,0-8.235-3.687-8.235-8.234"/>
		<path style="fill:none;stroke:#E5E5E4;stroke-width:2;stroke-miterlimit:10;" d="M33.941,134.177c0,4.548-3.687,8.234-8.235,8.234
			s-8.235-3.687-8.235-8.234"/>
		<path style="fill:none;stroke:#E5E5E4;stroke-width:2;stroke-miterlimit:10;" d="M50.412,134.177c0,4.548-3.687,8.234-8.235,8.234
			s-8.235-3.687-8.235-8.234"/>
		<path style="fill:none;stroke:#E5E5E4;stroke-width:2;stroke-miterlimit:10;" d="M66.882,134.177c0,4.548-3.687,8.234-8.235,8.234
			s-8.235-3.687-8.235-8.234"/>
	</g>
	<g>
		<path style="fill:none;stroke:#E5E5E4;stroke-width:2;stroke-miterlimit:10;" d="M91.588,125.941c0,4.549-3.687,8.235-8.235,8.235
			s-8.235-3.687-8.235-8.235"/>
		<path style="fill:none;stroke:#E5E5E4;stroke-width:2;stroke-miterlimit:10;" d="M108.059,125.941
			c0,4.549-3.687,8.235-8.235,8.235s-8.235-3.687-8.235-8.235"/>
		<path style="fill:none;stroke:#E5E5E4;stroke-width:2;stroke-miterlimit:10;" d="M124.529,125.941
			c0,4.549-3.686,8.235-8.235,8.235s-8.235-3.687-8.235-8.235"/>
		<path style="fill:none;stroke:#E5E5E4;stroke-width:2;stroke-miterlimit:10;" d="M141,125.941c0,4.549-3.686,8.235-8.234,8.235
			s-8.236-3.687-8.236-8.235"/>
		<path style="fill:none;stroke:#E5E5E4;stroke-width:2;stroke-miterlimit:10;" d="M83.353,134.177c0,4.548-3.688,8.234-8.235,8.234
			c-4.549,0-8.235-3.687-8.235-8.234"/>
		<path style="fill:none;stroke:#E5E5E4;stroke-width:2;stroke-miterlimit:10;" d="M99.824,134.177c0,4.548-3.687,8.234-8.235,8.234
			s-8.235-3.687-8.235-8.234"/>
		<path style="fill:none;stroke:#E5E5E4;stroke-width:2;stroke-miterlimit:10;" d="M116.294,134.177
			c0,4.548-3.687,8.234-8.235,8.234s-8.235-3.687-8.235-8.234"/>
		<path style="fill:none;stroke:#E5E5E4;stroke-width:2;stroke-miterlimit:10;" d="M132.766,134.177
			c0,4.548-3.688,8.234-8.236,8.234c-4.548,0-8.235-3.687-8.235-8.234"/>
	</g>
	<g>
		<path style="fill:none;stroke:#E5E5E4;stroke-width:2;stroke-miterlimit:10;" d="M157.471,125.941
			c0,4.549-3.686,8.235-8.234,8.235S141,130.49,141,125.941"/>
		<path style="fill:none;stroke:#E5E5E4;stroke-width:2;stroke-miterlimit:10;" d="M173.941,125.941
			c0,4.549-3.686,8.235-8.234,8.235s-8.236-3.687-8.236-8.235"/>
		<path style="fill:none;stroke:#E5E5E4;stroke-width:2;stroke-miterlimit:10;" d="M190.412,125.941
			c0,4.549-3.686,8.235-8.234,8.235s-8.236-3.687-8.236-8.235"/>
		<path style="fill:none;stroke:#E5E5E4;stroke-width:2;stroke-miterlimit:10;" d="M206.883,125.941
			c0,4.549-3.686,8.235-8.234,8.235s-8.236-3.687-8.236-8.235"/>
		<path style="fill:none;stroke:#E5E5E4;stroke-width:2;stroke-miterlimit:10;" d="M149.236,134.177
			c0,4.548-3.688,8.234-8.236,8.234s-8.234-3.687-8.234-8.234"/>
		<path style="fill:none;stroke:#E5E5E4;stroke-width:2;stroke-miterlimit:10;" d="M165.707,134.177
			c0,4.548-3.688,8.234-8.236,8.234s-8.234-3.687-8.234-8.234"/>
		<path style="fill:none;stroke:#E5E5E4;stroke-width:2;stroke-miterlimit:10;" d="M182.178,134.177
			c0,4.548-3.688,8.234-8.236,8.234s-8.234-3.687-8.234-8.234"/>
		<path style="fill:none;stroke:#E5E5E4;stroke-width:2;stroke-miterlimit:10;" d="M198.648,134.177
			c0,4.548-3.688,8.234-8.236,8.234s-8.234-3.687-8.234-8.234"/>
	</g>
	<path style="fill:none;stroke:#E5E5E4;stroke-width:2;stroke-miterlimit:10;" d="M223.354,125.941c0,4.549-3.686,8.235-8.234,8.235
		s-8.236-3.687-8.236-8.235"/>
	<path style="fill:none;stroke:#E5E5E4;stroke-width:2;stroke-miterlimit:10;" d="M239.824,125.941c0,4.549-3.686,8.235-8.234,8.235
		s-8.236-3.687-8.236-8.235"/>
	<path style="fill:none;stroke:#E5E5E4;stroke-width:2;stroke-miterlimit:10;" d="M215.119,134.177c0,4.548-3.688,8.234-8.236,8.234
		s-8.234-3.687-8.234-8.234"/>
	<path style="fill:none;stroke:#E5E5E4;stroke-width:2;stroke-miterlimit:10;" d="M231.59,134.177c0,4.548-3.688,8.234-8.236,8.234
		s-8.234-3.687-8.234-8.234"/>
	<g>
		<path style="fill:none;stroke:#E5E5E4;stroke-width:2;stroke-miterlimit:10;" d="M25.706,142.411c0,4.549-3.687,8.235-8.235,8.235
			s-8.235-3.687-8.235-8.235"/>
		<path style="fill:none;stroke:#E5E5E4;stroke-width:2;stroke-miterlimit:10;" d="M42.176,142.411c0,4.549-3.687,8.235-8.235,8.235
			s-8.235-3.687-8.235-8.235"/>
		<path style="fill:none;stroke:#E5E5E4;stroke-width:2;stroke-miterlimit:10;" d="M58.647,142.411c0,4.549-3.687,8.235-8.235,8.235
			s-8.235-3.687-8.235-8.235"/>
		<path style="fill:none;stroke:#E5E5E4;stroke-width:2;stroke-miterlimit:10;" d="M75.118,142.411c0,4.549-3.687,8.235-8.235,8.235
			s-8.235-3.687-8.235-8.235"/>
		<path style="fill:none;stroke:#E5E5E4;stroke-width:2;stroke-miterlimit:10;" d="M17.47,150.646c0,4.548-3.688,8.234-8.235,8.234
			c-4.549,0-8.235-3.687-8.235-8.234"/>
		<path style="fill:none;stroke:#E5E5E4;stroke-width:2;stroke-miterlimit:10;" d="M33.941,150.646c0,4.548-3.687,8.234-8.235,8.234
			s-8.235-3.687-8.235-8.234"/>
		<path style="fill:none;stroke:#E5E5E4;stroke-width:2;stroke-miterlimit:10;" d="M50.412,150.646c0,4.548-3.687,8.234-8.235,8.234
			s-8.235-3.687-8.235-8.234"/>
		<path style="fill:none;stroke:#E5E5E4;stroke-width:2;stroke-miterlimit:10;" d="M66.882,150.646c0,4.548-3.687,8.234-8.235,8.234
			s-8.235-3.687-8.235-8.234"/>
	</g>
	<g>
		<path style="fill:none;stroke:#E5E5E4;stroke-width:2;stroke-miterlimit:10;" d="M91.588,142.411c0,4.549-3.687,8.235-8.235,8.235
			s-8.235-3.687-8.235-8.235"/>
		<path style="fill:none;stroke:#E5E5E4;stroke-width:2;stroke-miterlimit:10;" d="M108.059,142.411
			c0,4.549-3.687,8.235-8.235,8.235s-8.235-3.687-8.235-8.235"/>
		<path style="fill:none;stroke:#E5E5E4;stroke-width:2;stroke-miterlimit:10;" d="M124.529,142.411
			c0,4.549-3.686,8.235-8.235,8.235s-8.235-3.687-8.235-8.235"/>
		<path style="fill:none;stroke:#E5E5E4;stroke-width:2;stroke-miterlimit:10;" d="M141,142.411c0,4.549-3.686,8.235-8.234,8.235
			s-8.236-3.687-8.236-8.235"/>
		<path style="fill:none;stroke:#E5E5E4;stroke-width:2;stroke-miterlimit:10;" d="M83.353,150.646c0,4.548-3.688,8.234-8.235,8.234
			c-4.549,0-8.235-3.687-8.235-8.234"/>
		<path style="fill:none;stroke:#E5E5E4;stroke-width:2;stroke-miterlimit:10;" d="M99.824,150.646c0,4.548-3.687,8.234-8.235,8.234
			s-8.235-3.687-8.235-8.234"/>
		<path style="fill:none;stroke:#E5E5E4;stroke-width:2;stroke-miterlimit:10;" d="M116.294,150.646
			c0,4.548-3.687,8.234-8.235,8.234s-8.235-3.687-8.235-8.234"/>
		<path style="fill:none;stroke:#E5E5E4;stroke-width:2;stroke-miterlimit:10;" d="M132.766,150.646
			c0,4.548-3.688,8.234-8.236,8.234c-4.548,0-8.235-3.687-8.235-8.234"/>
	</g>
	<g>
		<path style="fill:none;stroke:#E5E5E4;stroke-width:2;stroke-miterlimit:10;" d="M157.471,142.411
			c0,4.549-3.686,8.235-8.234,8.235S141,146.96,141,142.411"/>
		<path style="fill:none;stroke:#E5E5E4;stroke-width:2;stroke-miterlimit:10;" d="M173.941,142.411
			c0,4.549-3.686,8.235-8.234,8.235s-8.236-3.687-8.236-8.235"/>
		<path style="fill:none;stroke:#E5E5E4;stroke-width:2;stroke-miterlimit:10;" d="M190.412,142.411
			c0,4.549-3.686,8.235-8.234,8.235s-8.236-3.687-8.236-8.235"/>
		<path style="fill:none;stroke:#E5E5E4;stroke-width:2;stroke-miterlimit:10;" d="M206.883,142.411
			c0,4.549-3.686,8.235-8.234,8.235s-8.236-3.687-8.236-8.235"/>
		<path style="fill:none;stroke:#E5E5E4;stroke-width:2;stroke-miterlimit:10;" d="M149.236,150.646
			c0,4.548-3.688,8.234-8.236,8.234s-8.234-3.687-8.234-8.234"/>
		<path style="fill:none;stroke:#E5E5E4;stroke-width:2;stroke-miterlimit:10;" d="M165.707,150.646
			c0,4.548-3.688,8.234-8.236,8.234s-8.234-3.687-8.234-8.234"/>
		<path style="fill:none;stroke:#E5E5E4;stroke-width:2;stroke-miterlimit:10;" d="M182.178,150.646
			c0,4.548-3.688,8.234-8.236,8.234s-8.234-3.687-8.234-8.234"/>
		<path style="fill:none;stroke:#E5E5E4;stroke-width:2;stroke-miterlimit:10;" d="M198.648,150.646
			c0,4.548-3.688,8.234-8.236,8.234s-8.234-3.687-8.234-8.234"/>
	</g>
	<path style="fill:none;stroke:#E5E5E4;stroke-width:2;stroke-miterlimit:10;" d="M223.354,142.411c0,4.549-3.686,8.235-8.234,8.235
		s-8.236-3.687-8.236-8.235"/>
	<path style="fill:none;stroke:#E5E5E4;stroke-width:2;stroke-miterlimit:10;" d="M239.824,142.411c0,4.549-3.686,8.235-8.234,8.235
		s-8.236-3.687-8.236-8.235"/>
	<path style="fill:none;stroke:#E5E5E4;stroke-width:2;stroke-miterlimit:10;" d="M215.119,150.646c0,4.548-3.688,8.234-8.236,8.234
		s-8.234-3.687-8.234-8.234"/>
	<path style="fill:none;stroke:#E5E5E4;stroke-width:2;stroke-miterlimit:10;" d="M231.59,150.646c0,4.548-3.688,8.234-8.236,8.234
		s-8.234-3.687-8.234-8.234"/>
	<polygon style="fill:none;" points="233.602,125.941 23.333,125.941 18.333,158.983 238.602,158.983 	"/>
</g>
<g id="Layer_1">
</g>
</svg>
