<?xml version="1.0" encoding="iso-8859-1"?>
<!-- Generator: Adobe Illustrator 16.0.0, SVG Export Plug-In . SVG Version: 6.00 Build 0)  -->
<!DOCTYPE svg PUBLIC "-//W3C//DTD SVG 1.1//EN" "http://www.w3.org/Graphics/SVG/1.1/DTD/svg11.dtd">
<svg version="1.1" xmlns="http://www.w3.org/2000/svg" xmlns:xlink="http://www.w3.org/1999/xlink" x="0px" y="0px"
	 width="172.549px" height="410.332px" viewBox="0 0 172.549 410.332" style="enable-background:new 0 0 172.549 410.332;"
	 xml:space="preserve">
<g id="house21">
	<g>
		<g>
			<line style="fill:none;stroke:#808184;stroke-width:3;stroke-miterlimit:10;" x1="12.519" y1="213.127" x2="12.519" y2="2.825"/>
			<circle style="fill:#808184;" cx="12.52" cy="3.803" r="3.802"/>
			<line style="fill:none;stroke:#808184;stroke-width:3;stroke-miterlimit:10;" x1="24.853" y1="213.127" x2="24.853" y2="2.825"/>
			<circle style="fill:#808184;" cx="24.852" cy="3.803" r="3.802"/>
			<rect x="3.562" y="32.127" style="fill:#CCCCCC;" width="165.319" height="377.5"/>
			<polyline style="opacity:0.1;" points="168.521,354.295 168.521,382.332 3.205,362.415 3.205,355.961 			"/>
			<polyline style="opacity:0.1;" points="168.521,29.461 168.521,57.499 3.205,37.582 3.205,26.127 			"/>
			<rect x="0" y="22.127" style="fill:#808184;" width="172.549" height="9.5"/>
			<rect x="0" y="349.627" style="fill:#808184;" width="172.549" height="9.5"/>
			<polyline style="fill:#FFE000;" points="53.988,210.643 53.988,176.841 28.183,176.841 28.183,210.643 			"/>
			<polyline style="fill:#B3B3B3;" points="144.057,210.643 144.057,176.841 118.252,176.841 118.252,210.643 			"/>
			<polyline style="fill:#B3B3B3;" points="53.988,267.284 53.988,233.484 28.183,233.484 28.183,267.284 			"/>
			<polyline style="fill:#FFE000;" points="144.057,267.284 144.057,233.484 118.252,233.484 118.252,267.284 			"/>
			<rect x="24.734" y="210.643" style="fill:#D9D9D9;" width="32.703" height="6.211"/>
			<rect x="114.805" y="210.643" style="fill:#D9D9D9;" width="32.703" height="6.211"/>
			<rect x="24.734" y="267.284" style="fill:#D9D9D9;" width="32.703" height="6.213"/>
			<rect x="114.805" y="267.284" style="fill:#D9D9D9;" width="32.703" height="6.213"/>
			<polyline style="fill:#B3B3B3;" points="53.988,321.784 53.988,287.984 28.183,287.984 28.183,321.784 			"/>
			<polyline style="fill:#FFE000;" points="99.021,321.784 99.021,287.984 73.217,287.984 73.217,321.784 			"/>
			<polyline style="fill:#FFE000;" points="144.057,321.784 144.057,287.984 118.252,287.984 118.252,321.784 			"/>
			<rect x="24.734" y="321.784" style="fill:#D9D9D9;" width="32.703" height="6.213"/>
			<rect x="69.769" y="321.784" style="fill:#D9D9D9;" width="32.702" height="6.213"/>
			<rect x="114.805" y="321.784" style="fill:#D9D9D9;" width="32.703" height="6.213"/>
			<polyline style="fill:#FFE000;" points="53.988,97.643 53.988,63.841 28.183,63.841 28.183,97.643 			"/>
			<polyline style="fill:#B3B3B3;" points="99.021,97.643 99.021,63.841 73.217,63.841 73.217,97.643 			"/>
			<polyline style="fill:#B3B3B3;" points="144.057,97.643 144.057,63.841 118.252,63.841 118.252,97.643 			"/>
			<polyline style="fill:#B3B3B3;" points="53.988,154.284 53.988,120.484 28.183,120.484 28.183,154.284 			"/>
			<polyline style="fill:#FFE000;" points="144.057,154.284 144.057,120.484 118.252,120.484 118.252,154.284 			"/>
			<rect x="24.734" y="97.643" style="fill:#D9D9D9;" width="32.703" height="6.211"/>
			<rect x="69.769" y="97.643" style="fill:#D9D9D9;" width="32.702" height="6.211"/>
			<rect x="114.805" y="97.643" style="fill:#D9D9D9;" width="32.703" height="6.211"/>
			<rect x="24.734" y="154.284" style="fill:#D9D9D9;" width="32.703" height="6.213"/>
			<rect x="114.805" y="154.284" style="fill:#D9D9D9;" width="32.703" height="6.213"/>
			<g>
				<path style="fill:#FFFFFF;stroke:#FFFFFF;stroke-width:2;stroke-linejoin:round;stroke-miterlimit:10;" d="M62.009,21.454
					c0,6.202-5.025,11.229-11.229,11.229c-6.201,0-11.229-5.026-11.229-11.229H62.009z"/>
				<path style="fill:#FFFFFF;stroke:#FFFFFF;stroke-width:2;stroke-linejoin:round;stroke-miterlimit:10;" d="M84.466,21.454
					c0,6.202-5.026,11.229-11.229,11.229c-6.2,0-11.229-5.026-11.229-11.229H84.466z"/>
				<path style="fill:#FFFFFF;stroke:#FFFFFF;stroke-width:2;stroke-linejoin:round;stroke-miterlimit:10;" d="M106.926,21.454
					c0,6.202-5.027,11.229-11.229,11.229s-11.231-5.026-11.231-11.229H106.926z"/>
				<path style="fill:#FFFFFF;stroke:#FFFFFF;stroke-width:2;stroke-linejoin:round;stroke-miterlimit:10;" d="M126.252,21.454
					c0,6.202-5.025,11.229-11.227,11.229c-6.203,0-11.229-5.026-11.229-11.229H126.252z"/>
				<path style="fill:#FFFFFF;stroke:#FFFFFF;stroke-width:2;stroke-linejoin:round;stroke-miterlimit:10;" d="M148.711,21.454
					c0,6.202-5.027,11.229-11.229,11.229s-11.23-5.026-11.23-11.229H148.711z"/>
				<path style="fill:#FFFFFF;stroke:#FFFFFF;stroke-width:2;stroke-linejoin:round;stroke-miterlimit:10;" d="M171.168,21.454
					c0,6.202-5.027,11.229-11.229,11.229s-11.229-5.026-11.229-11.229H171.168z"/>
			</g>
		</g>
		<g>
			<rect x="19.417" y="376.268" style="fill:#404040;" width="16.943" height="34.064"/>
			<rect x="32.204" y="390.279" style="fill:#87857D;" width="2.46" height="6.041"/>
			<rect x="37.361" y="376.268" style="fill:#404040;" width="16.944" height="34.064"/>
			<rect x="39.058" y="390.279" style="fill:#87857D;" width="2.461" height="6.041"/>
		</g>
		<g>
			<rect x="68.917" y="376.268" style="fill:#404040;" width="16.943" height="34.064"/>
			<rect x="81.704" y="390.279" style="fill:#87857D;" width="2.46" height="6.041"/>
			<rect x="86.861" y="376.268" style="fill:#404040;" width="16.944" height="34.064"/>
			<rect x="88.559" y="390.279" style="fill:#87857D;" width="2.461" height="6.041"/>
		</g>
		<g>
			<rect x="118.418" y="376.268" style="fill:#404040;" width="16.943" height="34.064"/>
			<rect x="131.203" y="390.279" style="fill:#87857D;" width="2.461" height="6.041"/>
			<rect x="136.361" y="376.268" style="fill:#404040;" width="16.943" height="34.064"/>
			<rect x="138.059" y="390.279" style="fill:#87857D;" width="2.461" height="6.041"/>
		</g>
		<polygon style="fill:#D53E2F;" points="86.435,277.036 60.882,253.794 73.05,253.794 73.05,154.537 99.332,154.537 
			99.455,254.039 111.521,254.195 		"/>
		
			<polygon style="fill:none;stroke:#FFFFFF;stroke-width:2;stroke-linecap:round;stroke-miterlimit:10;stroke-dasharray:0,4;" points="
			86.449,271.321 71.464,257.065 78.555,257.065 78.669,158.627 94.115,158.627 94.209,257.065 103.037,257.065 		"/>
		<g>
			<rect x="73.112" y="121.21" style="fill:#2364D7;" width="26.353" height="26.356"/>
			<g>
				<polygon style="fill:#28B04B;" points="87.738,132.981 87.738,121.21 84.388,121.21 84.388,132.981 73.112,132.981 
					73.112,136.332 84.388,136.332 84.388,147.566 87.738,147.566 87.738,136.332 99.465,136.332 99.465,132.981 				"/>
			</g>
		</g>
	</g>
</g>
<g id="Layer_1">
</g>
</svg>
