<?xml version="1.0" encoding="iso-8859-1"?>
<!-- Generator: Adobe Illustrator 16.0.0, SVG Export Plug-In . SVG Version: 6.00 Build 0)  -->
<!DOCTYPE svg PUBLIC "-//W3C//DTD SVG 1.1//EN" "http://www.w3.org/Graphics/SVG/1.1/DTD/svg11.dtd">
<svg version="1.1" xmlns="http://www.w3.org/2000/svg" xmlns:xlink="http://www.w3.org/1999/xlink" x="0px" y="0px"
	 width="40.104px" height="69.77px" viewBox="0 0 40.104 69.77" style="enable-background:new 0 0 40.104 69.77;"
	 xml:space="preserve">
<g id="snowman">
	<path style="fill:none;stroke:#D53E2F;stroke-width:3;stroke-miterlimit:10;" d="M15.536,17.979
		c-3.264,0.457-5.098,6.773-10.598,8.282"/>
	<path style="fill:none;stroke:#D53E2F;stroke-width:3;stroke-miterlimit:10;" d="M15.536,17.979
		c-2.764-1.376-3.598-2.37-6.264-1.123s-9,2.414-9,2.414"/>
	<circle style="fill:#FFFFFF;" cx="23.88" cy="53.546" r="16.224"/>
	<circle style="fill:#FFFFFF;" cx="23.879" cy="29.589" r="12.732"/>
	<path style="fill:none;stroke:#D53E2F;stroke-width:3;stroke-miterlimit:10;" d="M32.438,18.521c0,0,0.708-0.042,0.722,1.458
		s-9.805,3.708-13.18,2.75c-3.375-0.958-5.042-3.458-4.25-3.917l1.75-1.451L32.438,18.521z"/>
	<circle style="fill:#FFFFFF;" cx="23.879" cy="10.928" r="10.928"/>
	<polygon style="fill:#FF8C33;stroke:#FF8C33;stroke-linejoin:round;stroke-miterlimit:10;" points="23.879,9.773 31.312,11.921 
		23.879,12.517 	"/>
	<ellipse style="fill:#7C6959;" cx="19.69" cy="7.744" rx="0.894" ry="0.59"/>
	<ellipse style="fill:#7C6959;" cx="27.595" cy="7.153" rx="0.815" ry="0.673"/>
</g>
<g id="Layer_1">
</g>
</svg>
