<svg width="250" height="200" fill="none" xmlns="http://www.w3.org/2000/svg"><path d="M42.3 121.5c4.143 0 7.5-1.209 7.5-2.7s-3.357-2.7-7.5-2.7c-4.141 0-7.5 1.209-7.5 2.7s3.359 2.7 7.5 2.7z" fill="#B9BDC3"/><path d="M45.801 52.1h-7.1v65.6h7.1V52.1z" fill="#B9BDC3"/><path opacity=".2" d="M45.8 52.1h-1.9v65.6h1.9V52.1z" fill="#000"/><path d="M47.502 28h-10.4v36h10.4V28z" fill="#FA9664"/><path d="M47.402 28l-10.3 5.3v-5.2l.1-.1h10.2zM47.502 35.1l-10.4 5.4v-5.2l10.4-5.4v5.2zM47.502 42.3l-10.4 5.4v-5.2l10.4-5.4v5.2zM47.502 49.5l-10.4 5.4v-5.2l10.4-5.4v5.2zM47.502 56.7l-10.4 5.4v-5.3l10.4-5.3v5.2zM47.501 58.7v5.2l-.2.1h-10.1l10.3-5.3z" fill="#FFF173"/><path d="M47.502 28h-10.4v36h10.4V28z" fill="#FA9664"/><path d="M47.402 28l-10.3 5.3v-5.2l.1-.1h10.2zM47.502 35.1l-10.4 5.4v-5.2l10.4-5.4v5.2zM47.502 42.3l-10.4 5.4v-5.2l10.4-5.4v5.2zM47.502 49.5l-10.4 5.4v-5.2l10.4-5.4v5.2zM47.502 56.7l-10.4 5.4v-5.3l10.4-5.3v5.2zM47.501 58.7v5.2l-.2.1-.2.2c-2.7 3-7.4 2.9-9.9-.2l10.3-5.3z" fill="#FFF173"/><path opacity=".2" d="M47.5 63.9l-2.2 1.8V28h2.2v35.9z" fill="#000"/><path d="M42.1 31.8c7.235 0 13.1-2.15 13.1-4.8 0-2.651-5.865-4.8-13.1-4.8-7.235 0-13.1 2.149-13.1 4.8 0 2.65 5.865 4.8 13.1 4.8z" fill="#FA9664"/><path d="M42.1 31c7.235 0 13.1-2.15 13.1-4.8 0-2.651-5.865-4.8-13.1-4.8-7.235 0-13.1 2.149-13.1 4.8 0 2.65 5.865 4.8 13.1 4.8z" fill="#FFF173"/><path d="M54.2 25.3c0 2.3-5.4 4.2-12 4.2-2.7 0-5.2-.3-7.2-.9-.6-.2-1.2-.3-1.7-.5-.3-.1-.6-.2-.8-.3-.3-.1-.6-.3-.8-.4-1-.6-1.5-1.3-1.5-2.1s.6-1.5 1.5-2.1c.2-.2.5-.3.8-.4.2-.1.5-.2.8-.3.5-.2 1-.4 1.7-.5 2-.5 4.5-.9 7.2-.9 6.6 0 12 1.9 12 4.2z" fill="#6AC86E"/><path d="M54.1 6.1H31.4v19.5h22.7V6.1z" fill="#219750"/><path d="M53.5 6.1H30v19.5h23.5V6.1z" fill="#6AC86E"/><path d="M49.5 25.3c0 1-3.3 1.8-7.4 1.8-4.1 0-7.4-.8-7.4-1.8s3.3-6.9 7.4-6.9c4.1 0 7.4 5.9 7.4 6.9z" fill="#219750"/><path d="M36.7 25.1c2.484 0 4.5-3 4.5-6.7s-2.016-6.7-4.5-6.7c-2.486 0-4.5 3-4.5 6.7s2.014 6.7 4.5 6.7z" fill="#fff"/><path d="M37.7 25.1c2.484 0 4.5-3 4.5-6.7s-2.016-6.7-4.5-6.7c-2.486 0-4.5 3-4.5 6.7s2.014 6.7 4.5 6.7z" fill="#1A844B"/><path d="M44.1 25.1c2.485 0 4.5-3 4.5-6.7s-2.015-6.7-4.5-6.7c-2.486 0-4.5 3-4.5 6.7s2.014 6.7 4.5 6.7z" fill="#1A844B"/><path d="M47.5 25.1c2.485 0 4.5-3 4.5-6.7s-2.015-6.7-4.5-6.7-4.5 3-4.5 6.7 2.015 6.7 4.5 6.7z" fill="#fff"/><path opacity=".5" d="M33.2 6.1v21.2c-.3-.1-.6-.2-.8-.2-.3-.1-.6-.2-.8-.3V6.1h1.6z" fill="#fff"/><path opacity=".5" d="M34.9 6.1v21.5c-.6-.1-1.2-.2-1.7-.4-.3-.1-.6-.2-.8-.2V5.9l2.5.2z" fill="#fff"/><path d="M42.1 11.4c7.235 0 13.1-2.149 13.1-4.8 0-2.65-5.865-4.8-13.1-4.8C34.865 1.8 29 3.95 29 6.6c0 2.651 5.865 4.8 13.1 4.8z" fill="#FA9664"/><path d="M42.1 10.6c7.235 0 13.1-2.149 13.1-4.8S49.335 1 42.1 1C34.865 1 29 3.149 29 5.8s5.865 4.8 13.1 4.8z" fill="#FFF173"/><path d="M157.62 85.25l-.3-4.29-3.62-.77-3.16 1.15-.46.91.23 4.24 3.78 1.92 3.55-2.32-.02-.84zm-3.04-2.5c.63.32.95 1 .86 1.66-.48.47-1.09.73-1.74.99-1.95.76-1.89-1.02-.96-2.36.48-.47 1.22-.61 1.84-.29z" fill="#8A9096"/><path d="M153.05 84.67a1.607 1.607 0 011.45-2.87 1.6 1.6 0 01.71 2.15c-.4.8-1.37 1.12-2.16.72zm4.28-3.75L153.55 79 150 81.32l.23 4.24 3.78 1.92 3.55-2.32-.23-4.24z" fill="#B9BDC3"/><path d="M151.66 109.1l-.35-4.87-4.11-.88-3.59 1.31-.53 1.04.26 4.81 4.3 2.18 4.03-2.64-.01-.95zm-3.45-2.85c.71.36 1.08 1.13.98 1.88-.54.53-1.23.83-1.98 1.13-2.21.86-2.14-1.15-1.09-2.68.54-.53 1.38-.69 2.09-.33z" fill="#8A9096"/><path d="M146.47 108.44a1.831 1.831 0 01-.8-2.45c.45-.9 1.55-1.25 2.45-.8.9.45 1.26 1.55.81 2.45-.46.89-1.56 1.25-2.46.8zm4.86-4.26l-4.3-2.18-4.03 2.63.26 4.81 4.3 2.18 4.03-2.64-.26-4.8z" fill="#B9BDC3"/><path d="M148.074 61.464c-.05.04-.1.07-.16.09l-8.41 4.2c-.86.43-1.89.08-2.32-.78-.43-.85-.08-1.89.78-2.32l8.41-4.2c.06-.03.11-.05.17-.07a4.03 4.03 0 012.23-3.69 4.02 4.02 0 014.44.57l-3.32 1.66 1.37 2.75 3.32-1.66c.11 1.58-.72 3.14-2.22 3.89-1.45.71-3.11.49-4.29-.44z" fill="#74797E"/><path d="M148.593 60.194c-.05.04-.1.07-.16.09l-8.41 4.2c-.86.43-1.89.08-2.32-.78-.43-.85-.08-1.89.78-2.32l8.41-4.2c.06-.03.11-.05.17-.07a4.03 4.03 0 012.23-3.69 4.02 4.02 0 014.44.57l-3.32 1.66 1.37 2.75 3.32-1.66c.11 1.58-.72 3.14-2.22 3.89-1.44.72-3.11.5-4.29-.44z" fill="#B9BDC3"/><path d="M98.777 110.619c-1.34-1.06-1.58-2.99-.54-4.31.67-.84 1.69-1.23 2.7-1.13l5.66-7.32c-.34-1-.18-2.15.52-3.03.79-1 1.95-1.48 3.25-1.12l-1.85 2.34 2.15 1.7 1.85-2.34c.65 1.18.48 2.44-.32 3.44-.77.97-1.97 1.41-3.12 1.18l-5.53 7.16c.36.97.23 2.1-.45 2.96-1.05 1.32-2.98 1.53-4.32.47zm.99-1.31l1.32.14.87-1.1-.44-1.25-1.32-.14-.87 1.1.44 1.25z" fill="#74797E"/><path d="M98.187 110.029c-1.34-1.06-1.58-2.99-.54-4.31.67-.84 1.69-1.23 2.7-1.13l5.66-7.32c-.34-1-.18-2.15.52-3.03.79-1 1.95-1.48 3.25-1.12l-1.85 2.34 2.15 1.7 1.85-2.34c.65 1.18.48 2.44-.32 3.44-.77.97-1.97 1.41-3.12 1.18l-5.53 7.16c.36.97.23 2.1-.45 2.96-1.05 1.32-2.98 1.53-4.32.47zm.99-1.31l1.32.14.87-1.1-.44-1.25-1.32-.14-.87 1.1.44 1.25z" fill="#B9BDC3"/><path d="M174.3 72.242l-12.3 5.29 2.04-16.42c.55-4.42 5.65-6.61 9.24-3.97l13.3 9.82-12.28 5.28z" fill="#fff"/><path d="M162 77.532l24.58-10.57-2.99 5.04c-.25.43-.68.79-1.19 1l-13.18 5.67c-.51.22-1.07.28-1.55.17l-5.67-1.31z" fill="#D8DDE2"/><path d="M175.661 75.43c2.162-.93 3.645-2.308 3.314-3.08-.332-.77-2.353-.642-4.514.287-2.162.93-3.645 2.308-3.314 3.079.332.771 2.353.643 4.514-.286z" fill="#B9BDC3"/><path d="M158.99 93.89h32.86l-5.82 5.62c-.49.47-1.15.74-1.83.74h-17.62c-.69 0-1.34-.27-1.84-.75l-5.75-5.61z" fill="#B71C1C"/><path d="M175.421 99.49c3.75 0 6.79-1.084 6.79-2.42 0-1.337-3.04-2.42-6.79-2.42s-6.79 1.083-6.79 2.42c0 1.336 3.04 2.42 6.79 2.42z" fill="#9C0F0A"/><path d="M175.42 98.79c2.662 0 4.82-.77 4.82-1.72s-2.158-1.72-4.82-1.72c-2.662 0-4.82.77-4.82 1.72s2.158 1.72 4.82 1.72z" fill="#332F2E"/><path d="M191.85 93.89H159l3.05-16.67h26.75l3.05 16.67z" fill="#F33"/><path d="M191.85 93.89H159l1.99-10.88 1.06-5.79h26.75l1.06 5.79 1.99 10.88z" fill="#F33"/><path d="M189.86 83.01h-28.87l.49-2.7v-.01l.57-3.08h26.75l.03.16.63 3.41.4 2.22z" fill="#fff"/><path d="M166.88 77.22l-4.27 5.79h-1.62l.49-2.7v-.01l2.28-3.08h3.12zM173.181 77.22l-4.27 5.79h-3.12l4.27-5.79h3.12zM179.48 77.22l-4.27 5.79h-3.12l4.26-5.79h3.13zM185.781 77.22l-4.27 5.79h-3.12l4.26-5.79h3.13zM189.459 80.79l-1.65 2.22h-3.12l4.14-5.63.63 3.41z" fill="#F33"/><path d="M117.949 96.64h29.52l-5.22 5.04c-.44.43-1.03.66-1.64.66h-15.83c-.62 0-1.21-.24-1.65-.67l-5.18-5.03z" fill="#B71C1C"/><path d="M132.709 101.68c3.369 0 6.1-.976 6.1-2.18 0-1.204-2.731-2.18-6.1-2.18-3.369 0-6.1.976-6.1 2.18 0 1.204 2.731 2.18 6.1 2.18z" fill="#9C0F0A"/><path d="M132.709 101.05c2.391 0 4.33-.694 4.33-1.55 0-.856-1.939-1.55-4.33-1.55s-4.33.694-4.33 1.55c0 .856 1.939 1.55 4.33 1.55z" fill="#332F2E"/><path d="M147.459 96.64h-29.51l2.74-14.97h24.03l2.74 14.97z" fill="#F33"/><path d="M147.459 96.64h-29.51l1.79-9.77.95-5.2h24.03l.95 5.2 1.79 9.77z" fill="#F33"/><path d="M132.709 81.67h-12.02l7.51-12.82c2.02-3.45 7.01-3.45 9.03 0l7.49 12.82h-12.01zM145.668 86.87h-25.93l.44-2.42v-.01l.51-2.77h24.03l.03.14.56 3.06.36 2z" fill="#fff"/><path d="M125.028 81.67l-3.83 5.2h-1.46l.44-2.42v-.01l2.05-2.77h2.8zM130.689 81.67l-3.83 5.2h-2.8l3.83-5.2h2.8zM136.349 81.67l-3.83 5.2h-2.81l3.83-5.2h2.81zM142.009 81.67l-3.83 5.2h-2.81l3.83-5.2h2.81zM145.307 84.87l-1.47 2h-2.81l3.72-5.06.56 3.06z" fill="#F33"/><path d="M89.529 64.838l22.588-19.002-7.249-.497a2.311 2.311 0 00-1.682.554l-12.11 10.189c-.473.394-.77.958-.833 1.577l-.714 7.18z" fill="#B71C1C"/><path d="M97.588 51.48c2.577-2.168 5.296-3.18 6.071-2.258.775.921-.687 3.426-3.265 5.595-2.578 2.17-5.296 3.18-6.07 2.26-.776-.922.686-3.427 3.264-5.596z" fill="#9C0F0A"/><path d="M97.993 51.963c1.83-1.54 3.761-2.257 4.312-1.602.551.656-.486 2.435-2.316 3.974-1.83 1.54-3.76 2.257-4.311 1.602-.551-.655.486-2.434 2.315-3.974z" fill="#332F2E"/><path d="M112.117 45.836l-22.58 18.999 11.73 9.692 18.39-15.466-7.54-13.225z" fill="#F33"/><path d="M112.117 45.836l-22.58 18.999 7.655 6.326 4.075 3.366 18.39-15.466-2.616-4.594-4.924-8.631z" fill="#F33"/><path d="M110.476 66.789l-9.196 7.744 14.004 4.98c3.769 1.339 7.586-1.869 6.916-5.815l-2.521-14.634-9.203 7.725zM117.042 54.467L97.192 71.16l1.896 1.57.013.006 2.17 1.8 18.387-15.476-.079-.13-1.529-2.702-1.008-1.762z" fill="#fff"/><path d="M104.588 71.743l-6.279-1.517-1.118.935 1.895 1.57.013.006 3.341.803 2.148-1.797zM108.917 68.096l-6.279-1.517-2.144 1.805 6.278 1.518 2.145-1.806zM113.245 64.45l-6.278-1.519-2.151 1.819 6.288 1.514 2.141-1.815zM117.577 60.811l-6.279-1.517-2.154 1.809 6.289 1.514 2.144-1.806zM118.05 56.229l-2.422-.582-2.144 1.805 6.094 1.478-1.528-2.701z" fill="#F33"/><path d="M67.05 71.34l18.14-23.29.77 7.22c.06.61-.11 1.22-.49 1.7l-9.72 12.49c-.38.49-.93.81-1.54.89l-7.16.99z" fill="#B71C1C"/><path d="M80.095 62.788c2.07-2.658 2.978-5.412 2.028-6.152-.95-.74-3.398.815-5.468 3.473s-2.979 5.413-2.029 6.152c.95.74 3.398-.815 5.469-3.473z" fill="#9C0F0A"/><path d="M79.597 62.4c1.47-1.886 2.113-3.842 1.438-4.368-.676-.526-2.414.577-3.884 2.464-1.47 1.887-2.113 3.843-1.438 4.369.676.526 2.414-.577 3.884-2.464z" fill="#332F2E"/><path d="M93.09 82.38l10.2-27.7 2.93 6.65c.25.56.27 1.2.05 1.77l-5.47 14.85c-.21.58-.64 1.05-1.2 1.32l-6.51 3.11z" fill="#B71C1C"/><path d="M102.916 70.263c1.165-3.161 1.193-6.061.063-6.477-1.13-.416-2.99 1.81-4.154 4.97-1.164 3.162-1.192 6.062-.063 6.478 1.13.416 2.99-1.81 4.154-4.97z" fill="#9C0F0A"/><path d="M102.325 70.046c.827-2.244.846-4.303.042-4.6-.803-.295-2.124 1.284-2.95 3.528-.827 2.244-.846 4.303-.043 4.6.804.295 2.125-1.284 2.951-3.528z" fill="#332F2E"/><path d="M103.29 54.68l-10.2 27.69-13.1-7.74 8.3-22.55 15 2.6z" fill="#F33"/><path d="M103.29 54.68l-10.2 27.69-8.55-5.05-4.55-2.69 8.3-22.55 5.21.9 9.79 1.7z" fill="#F33"/><path d="M84.14 63.34l-4.16 11.28-9.44-11.48c-2.54-3.09-.82-7.77 3.12-8.48l14.62-2.6-4.14 11.28zM93.5 52.98l-8.96 24.34-2.12-1.25-.01-.01-2.43-1.43 8.31-22.55.15.03 3.06.52 2 .35z" fill="#fff"/><path d="M81.48 70.56l3.56 5.39-.5 1.37-2.12-1.25-.01-.01-1.89-2.87.96-2.63zM83.439 65.25l3.56 5.39-.97 2.63-3.56-5.39.97-2.63zM85.4 59.94l3.56 5.39-.98 2.64-3.56-5.4.98-2.63zM87.349 54.63l3.56 5.39-.97 2.64-3.56-5.4.97-2.63zM91.5 52.63l1.37 2.08-.97 2.63-3.46-5.23 3.06.52z" fill="#F33"/><path d="M105.889 88.08l-22.59-19.01 7.25-.5c.61-.04 1.22.16 1.68.55l12.11 10.19c.47.4.77.96.83 1.57l.72 7.2z" fill="#B71C1C"/><path d="M101.094 80.326c.776-.92-.685-3.426-3.262-5.596-2.578-2.17-5.295-3.181-6.07-2.26-.776.92.685 3.426 3.262 5.596s5.295 3.181 6.07 2.26z" fill="#9C0F0A"/><path d="M99.74 79.186c.552-.654-.484-2.434-2.314-3.974s-3.76-2.258-4.31-1.603c-.552.655.484 2.435 2.314 3.975s3.759 2.257 4.31 1.602z" fill="#332F2E"/><path d="M83.31 69.08l22.57 19-11.74 9.69L75.76 82.3l7.55-13.22z" fill="#F33"/><path d="M83.31 69.08l22.57 19-7.65 6.32-4.09 3.37L75.76 82.3l2.62-4.6 4.93-8.62z" fill="#F33"/><path d="M84.95 90.03l9.2 7.74-14 4.97c-3.77 1.34-7.59-1.87-6.91-5.82l2.53-14.63 9.18 7.74z" fill="#fff"/><path d="M78.38 77.7l19.84 16.7-1.9 1.57v.01l-2.18 1.79-18.38-15.48.08-.12 1.53-2.7 1.01-1.77z" fill="#fff"/><path d="M90.83 94.98l6.28-1.52 1.11.94-1.9 1.57v.01l-3.35.8-2.14-1.8zM86.5 91.33l6.28-1.51 2.14 1.8-6.28 1.52-2.14-1.81zM82.17 87.69l6.28-1.52 2.15 1.81-6.28 1.52-2.15-1.81zM77.84 84.04l6.28-1.51 2.15 1.81-6.28 1.51-2.15-1.81zM77.37 79.47l2.42-.58 2.15 1.81-6.1 1.47 1.53-2.7z" fill="#F33"/><path d="M74.4 108.72l7.31-28.6 3.59 6.31c.3.53.39 1.16.24 1.76l-3.92 15.33c-.15.6-.53 1.11-1.06 1.43l-6.16 3.77z" fill="#B71C1C"/><path d="M82.93 95.671c.835-3.264.566-6.151-.6-6.45-1.167-.298-2.79 2.106-3.624 5.37-.834 3.264-.565 6.151.601 6.45 1.167.298 2.789-2.106 3.623-5.37z" fill="#9C0F0A"/><path d="M82.32 95.515c.592-2.317.4-4.367-.43-4.579-.829-.212-1.981 1.494-2.573 3.811-.593 2.317-.4 4.367.429 4.579.83.212 1.982-1.494 2.574-3.811z" fill="#332F2E"/><path d="M81.71 80.13l-7.31 28.58-13.83-6.36 5.96-23.28 15.18 1.06z" fill="#F33"/><path d="M81.71 80.13l-7.31 28.58-9.02-4.15-4.81-2.21 5.96-23.28 5.28.37 9.9.69z" fill="#F33"/><path d="M63.55 90.7l-2.98 11.65L50.01 91.9c-2.84-2.81-1.61-7.65 2.24-8.75l14.28-4.08-2.98 11.63z" fill="#fff"/><path d="M71.8 79.44l-6.42 25.12-2.24-1.02-.01-.01-2.56-1.18 5.96-23.28.14.01 3.11.21 2.02.15z" fill="#fff"/><path d="M61.65 98.15l4.09 5-.36 1.41-2.24-1.02-.01-.01-2.18-2.67.7-2.71zM63.05 92.67l4.09 5-.69 2.71-4.09-5 .69-2.71zM64.45 87.18l4.09 5-.69 2.73-4.09-5 .69-2.73zM65.85 81.7l4.1 5-.7 2.72-4.09-5 .69-2.72zM69.78 79.29l1.57 1.93-.7 2.72-3.98-4.86 3.11.21zM85.18 48.06L67.05 71.34 56.92 59.98l14.77-18.96 13.49 7.04z" fill="#F33"/><path d="M85.18 48.06L67.05 71.34l-6.61-7.41-3.52-3.95 14.77-18.96 4.69 2.44 8.8 4.6z" fill="#F33"/><path d="M64.31 50.49l-7.39 9.49-5.5-13.8c-1.48-3.72 1.58-7.66 5.55-7.13l14.72 1.97-7.38 9.47z" fill="#fff"/><path d="M76.38 43.46L60.44 63.92l-1.64-1.83v-.01l-1.88-2.1 14.77-18.96.13.07 2.76 1.43 1.8.94z" fill="#fff"/><path d="M59.591 56.55l1.75 6.22-.9 1.15-1.64-1.83v-.01l-.93-3.32 1.72-2.21zM63.062 52.09l1.76 6.22-1.72 2.21-1.76-6.22 1.72-2.21zM66.54 47.62l1.75 6.22-1.72 2.22-1.75-6.22 1.72-2.22zM70.021 43.16l1.75 6.22-1.73 2.22-1.75-6.22 1.73-2.22zM74.58 42.52l.67 2.39-1.73 2.22-1.7-6.04 2.76 1.43z" fill="#F33"/><path d="M96.57 76.47c2.41-.49 2.43-2.61 2.02-3.4-.22-.43-.62-.75-.8-1.19-.25-.58-.06-1.32.43-1.72" stroke="#6AC86E" stroke-width="1.204" stroke-miterlimit="10" stroke-linecap="round"/><path d="M96.37 76.15c1.2-.41 1.27-1.52 1.2-1.79-.07-.27-.28-.5-.51-.66-.23-.16-.5-.27-.74-.42a2.954 2.954 0 01-1.33-1.9" stroke="#FF4081" stroke-width="1.204" stroke-miterlimit="10" stroke-linecap="round"/><path d="M98.459 70.03c.37-.23.75-.47 1.12-.7M94.59 69.94c.1.43.21.85.31 1.28" stroke="#F9D232" stroke-width=".5" stroke-miterlimit="10" stroke-linecap="round"/><path d="M175.781 96.16c-2.63.74-2.48 3.11-1.96 3.95.28.45.75.78.99 1.25.33.63.18 1.46-.34 1.94" stroke="#6AC86E" stroke-width="1.34" stroke-miterlimit="10" stroke-linecap="round"/><path d="M176.03 96.49c-1.3.55-1.28 1.79-1.18 2.09.1.3.35.53.63.69.28.16.58.26.86.41.79.4 1.39 1.15 1.63 2" stroke="#FF4081" stroke-width="1.34" stroke-miterlimit="10" stroke-linecap="round"/><path d="M174.231 103.46c-.39.29-.79.58-1.18.87M178.521 103.24c-.15-.47-.3-.93-.46-1.4" stroke="#F9D232" stroke-width=".557" stroke-miterlimit="10" stroke-linecap="round"/><path d="M80.96 95.09c.57 2.39 2.7 2.34 3.47 1.9.42-.24.73-.64 1.16-.85.57-.27 1.32-.11 1.73.37" stroke="#6AC86E" stroke-width="1.204" stroke-miterlimit="10" stroke-linecap="round"/><path d="M81.272 94.88c.45 1.19 1.56 1.21 1.84 1.13.27-.08.49-.3.64-.54.15-.24.26-.51.4-.76.39-.69 1.08-1.21 1.85-1.39" stroke="#FF4081" stroke-width="1.204" stroke-miterlimit="10" stroke-linecap="round"/><path d="M87.46 96.75c.25.36.49.73.74 1.09M87.41 92.89l-1.27.36" stroke="#F9D232" stroke-width=".5" stroke-miterlimit="10" stroke-linecap="round"/><path d="M30.74 154.68l15.65-25.03 1.51 7.1c.13.6.02 1.22-.31 1.74l-8.39 13.42c-.33.52-.84.9-1.44 1.04l-7.02 1.73z" fill="#B71C1C"/><path d="M42.837 144.829c1.785-2.857 2.405-5.69 1.384-6.329-1.021-.638-3.296 1.161-5.082 4.018-1.785 2.857-2.405 5.69-1.384 6.328 1.02.638 3.296-1.16 5.081-4.017z" fill="#9C0F0A"/><path d="M42.303 144.495c1.267-2.028 1.706-4.04.98-4.493-.726-.454-2.342.822-3.61 2.85-1.267 2.028-1.706 4.039-.98 4.493.726.454 2.342-.822 3.61-2.85z" fill="#332F2E"/><path d="M46.39 129.66l-15.64 25.02-11.25-10.26 12.74-20.38 14.15 5.62z" fill="#F33"/><path d="M46.38 129.66l-15.64 25.02-7.33-6.69-3.91-3.57 12.74-20.38 4.92 1.95 9.22 3.67z" fill="#F33"/><path d="M25.87 134.23l-6.37 10.2-6.89-13.17c-1.86-3.54.79-7.78 4.79-7.66l14.84.45-6.37 10.18z" fill="#fff"/><path d="M37.15 125.99l-13.74 22-1.82-1.66-.01-.01-2.08-1.9 12.74-20.38.13.06 2.9 1.14 1.88.75z" fill="#fff"/><path d="M21.8 140.74l2.38 6.01-.77 1.24-1.82-1.66-.01-.01-1.27-3.2 1.49-2.38zM24.8 135.94l2.38 6.01-1.48 2.38-2.39-6.01 1.49-2.38zM27.8 131.15l2.38 6-1.49 2.38-2.38-6 1.49-2.38zM30.8 126.35l2.38 6-1.49 2.38-2.38-6 1.49-2.38zM35.271 125.24l.91 2.31-1.49 2.39-2.32-5.84 2.9 1.14z" fill="#F33"/><path d="M41.05 143.65c.57 2.39 2.7 2.34 3.47 1.9.42-.24.73-.64 1.16-.85.57-.27 1.32-.11 1.73.37" stroke="#6AC86E" stroke-width="1.204" stroke-miterlimit="10" stroke-linecap="round"/><path d="M41.361 143.44c.45 1.19 1.56 1.21 1.84 1.13.27-.08.49-.3.64-.54.15-.24.26-.51.4-.76.39-.69 1.08-1.21 1.85-1.39" stroke="#FF4081" stroke-width="1.204" stroke-miterlimit="10" stroke-linecap="round"/><path d="M47.55 145.31c.25.36.49.73.74 1.09M47.5 141.45l-1.27.36" stroke="#F9D232" stroke-width=".5" stroke-miterlimit="10" stroke-linecap="round"/><path d="M153.059 98.948l-.756 1.684 12.387 5.564.756-1.685-12.387-5.563z" fill="#B9BDC3"/><path d="M153.058 98.947l-.749 1.69-1.683-.086 1.256-2.788 1.176 1.183zM149.333 97.28l-.755 1.677 2.047 1.594 1.257-2.789-2.549-.482z" fill="#B9BDC3"/><path d="M171.564 108.279a3.153 3.153 0 01-4.149 1.584l-5.727-2.584a3.153 3.153 0 01-1.584-4.149 3.171 3.171 0 014.169-1.578l5.72 2.571a3.142 3.142 0 011.571 4.156z" fill="#74797E"/><path d="M167.284 109.212a.49.49 0 01-.657.247l-5.824-2.616a.502.502 0 01-.26-.651.49.49 0 01.657-.247l5.844 2.624c.247.104.357.39.24.643zM166.679 106.086a.49.49 0 01-.657.246l-5.831-2.629a.49.49 0 01-.246-.657.497.497 0 01.643-.24l5.844 2.623a.49.49 0 01.247.657zM169.27 104.337a.49.49 0 01-.657.247l-5.837-2.61a.489.489 0 01-.246-.657.49.49 0 01.656-.247l5.844 2.624c.234.11.344.396.24.643zM170.893 109.605a2.355 2.355 0 10-2.104-4.214 2.355 2.355 0 002.104 4.214z" fill="#41474C"/><path d="M198.189 126.61l28.12 8.97-6.51 3.22c-.55.27-1.18.32-1.77.13l-15.08-4.81c-.59-.19-1.08-.6-1.37-1.14l-3.39-6.37z" fill="#B71C1C"/><path d="M217.192 135.674c.366-1.147-1.94-2.907-5.149-3.931-3.21-1.024-6.108-.924-6.474.223-.366 1.147 1.939 2.907 5.149 3.931 3.209 1.024 6.108.924 6.474-.223z" fill="#9C0F0A"/><path d="M215.505 135.136c.26-.816-1.376-2.066-3.655-2.793-2.278-.726-4.336-.654-4.596.161-.26.816 1.376 2.066 3.654 2.793 2.279.727 4.336.655 4.597-.161z" fill="#332F2E"/><path d="M196.83 154.86h29.52l-5.22 5.04c-.44.43-1.03.66-1.64.66h-15.83c-.62 0-1.21-.24-1.65-.67l-5.18-5.03z" fill="#B71C1C"/><path d="M211.59 159.89c3.369 0 6.1-.976 6.1-2.18 0-1.204-2.731-2.18-6.1-2.18-3.369 0-6.1.976-6.1 2.18 0 1.204 2.731 2.18 6.1 2.18z" fill="#9C0F0A"/><path d="M211.59 159.26c2.391 0 4.33-.694 4.33-1.55 0-.856-1.939-1.55-4.33-1.55-2.392 0-4.33.694-4.33 1.55 0 .856 1.938 1.55 4.33 1.55z" fill="#332F2E"/><path d="M226.35 154.86h-29.51l2.74-14.98h24.03l2.74 14.98z" fill="#F33"/><path d="M226.35 154.86h-29.51l1.79-9.77.95-5.21h24.03l.95 5.21 1.79 9.77z" fill="#F33"/><path d="M211.6 139.88h-12.02l7.51-12.82c2.02-3.45 7.01-3.45 9.03 0l7.49 12.82H211.6zM224.559 145.09h-25.93l.44-2.43.51-2.78h24.03l.02.15.57 3.06.36 2z" fill="#fff"/><path d="M203.919 139.88l-3.83 5.21h-1.46l.44-2.43 2.04-2.78h2.81zM209.579 139.88l-3.83 5.21h-2.81l3.83-5.21h2.81zM215.23 139.88l-3.82 5.21h-2.82l3.83-5.21h2.81zM220.888 139.88l-3.83 5.21h-2.81l3.83-5.21h2.81zM224.198 143.09l-1.48 2h-2.81l3.72-5.06.57 3.06z" fill="#F33"/><path d="M228.251 104.54l-28.12 8.97 6.51 3.22c.55.27 1.18.32 1.77.13l15.08-4.81c.59-.19 1.08-.6 1.37-1.14l3.39-6.37z" fill="#B71C1C"/><path d="M215.722 113.814c3.21-1.024 5.515-2.784 5.149-3.931-.366-1.147-3.264-1.247-6.474-.223-3.209 1.024-5.514 2.784-5.149 3.931.366 1.147 3.265 1.246 6.474.223z" fill="#9C0F0A"/><path d="M215.53 113.213c2.278-.726 3.914-1.977 3.654-2.792-.26-.816-2.318-.888-4.596-.161s-3.914 1.977-3.654 2.793c.26.815 2.318.887 4.596.16z" fill="#332F2E"/><path d="M226.309 135.58l-28.11-8.97 7.16-13.43 22.89 7.3-1.94 15.1z" fill="#F33"/><path d="M226.309 135.58l-28.11-8.97 4.67-8.76 2.49-4.67 22.89 7.3-.67 5.25-1.27 9.85z" fill="#F33"/><path d="M216.81 116.83l-11.46-3.65 11.05-9.93c2.97-2.67 7.73-1.16 8.61 2.75l3.24 14.49-11.44-3.66z" fill="#fff"/><path d="M227.569 125.73l-24.7-7.88 1.15-2.18.01-.01 1.32-2.48 22.9 7.3-.02.15-.39 3.08-.27 2.02z" fill="#fff"/><path d="M209.489 114.5l-5.23 3.79-1.39-.44 1.15-2.18.01-.01 2.79-2.01 2.67.85zM214.879 116.22l-5.23 3.79-2.67-.85 5.23-3.79 2.67.85zM220.269 117.94l-5.23 3.79-2.68-.85 5.23-3.8 2.68.86zM225.66 119.66l-5.23 3.79-2.67-.85 5.23-3.8 2.67.86zM227.838 123.71l-2.02 1.46-2.67-.85 5.08-3.69-.39 3.08zM200.129 113.51l28.12-8.97-7.16-13.43-22.9 7.3 1.94 15.1z" fill="#F33"/><path d="M200.129 113.5l28.11-8.96-4.66-8.76-2.49-4.67-22.9 7.3.68 5.25 1.26 9.84z" fill="#F33"/><path d="M209.629 94.76l11.46-3.65-11.05-9.93c-2.97-2.67-7.73-1.16-8.61 2.75l-3.24 14.49 11.44-3.66z" fill="#fff"/><path d="M198.869 103.65l24.7-7.88-1.15-2.17-.01-.01-1.32-2.48-22.9 7.3.02.15.39 3.08.27 2.01z" fill="#fff"/><path d="M216.949 92.42l5.23 3.8 1.39-.45-1.15-2.17-.01-.01-2.79-2.02-2.67.85zM211.559 94.14l5.23 3.8 2.67-.85-5.23-3.8-2.67.85zM206.17 95.86l5.23 3.8 2.68-.86-5.23-3.79-2.68.85zM200.779 97.58l5.23 3.8 2.68-.86-5.23-3.79-2.68.85zM198.599 101.64l2.02 1.46 2.67-.86-5.08-3.68.39 3.08z" fill="#F33"/><path d="M212.73 157c-2.63.74-2.48 3.11-1.96 3.95.28.45.75.78.99 1.25.33.63.18 1.46-.34 1.94" stroke="#6AC86E" stroke-width="1.34" stroke-miterlimit="10" stroke-linecap="round"/><path d="M212.979 157.33c-1.3.55-1.28 1.79-1.18 2.09.1.3.35.53.63.69.28.16.58.26.86.41.79.4 1.39 1.15 1.63 2" stroke="#FF4081" stroke-width="1.34" stroke-miterlimit="10" stroke-linecap="round"/><path d="M211.18 164.3c-.39.29-.79.58-1.18.87M215.47 164.08c-.15-.47-.3-.93-.46-1.4" stroke="#F9D232" stroke-width=".557" stroke-miterlimit="10" stroke-linecap="round"/></svg>