<svg width="250" height="200" viewBox="0 0 250 200" fill="none" xmlns="http://www.w3.org/2000/svg">
<g clip-path="url(#clip0)">
<path d="M182.764 73.2624C182.768 73.1078 182.627 72.979 182.451 72.9748C182.274 72.9705 182.128 73.0923 182.124 73.2469C182.12 73.4015 182.26 73.5303 182.437 73.5346C182.614 73.5389 182.76 73.417 182.764 73.2624Z" fill="#6AB360"/>
<path d="M157.109 60.2242L146.291 75.56L130.947 65.9026L142.868 49L157.109 60.2242Z" fill="#30A658"/>
<path d="M144.309 69.5998C148.136 69.5998 151.239 66.4971 151.239 62.6696C151.239 58.8422 148.136 55.7395 144.309 55.7395C140.482 55.7395 137.379 58.8422 137.379 62.6696C137.379 66.4971 140.482 69.5998 144.309 69.5998Z" fill="white"/>
<path d="M144.31 66.2258C146.274 66.2258 147.866 64.6336 147.866 62.6695C147.866 60.7055 146.274 59.1133 144.31 59.1133C142.346 59.1133 140.754 60.7055 140.754 62.6695C140.754 64.6336 142.346 66.2258 144.31 66.2258Z" fill="#FF3333"/>
<path d="M142.867 49L130.938 65.9026L130.151 60.8791C130.085 60.4563 130.184 60.0169 130.433 59.6688L136.832 50.5999C137.081 50.2434 137.454 50.003 137.885 49.9284L142.867 49Z" fill="#A8E9A2"/>
<path d="M136.194 56.9526C137.466 55.1495 137.976 53.3198 137.333 52.8658C136.689 52.4119 135.136 53.5056 133.864 55.3087C132.592 57.1118 132.082 58.9415 132.726 59.3955C133.369 59.8494 134.922 58.7558 136.194 56.9526Z" fill="#226D45"/>
<path d="M135.108 56.5023C135.862 54.3635 134.188 53.3356 133.367 53.2859C132.928 53.261 132.48 53.4185 132.041 53.3605C131.461 53.2859 130.963 52.7802 130.889 52.2" stroke="#6AC86E" stroke-width="1.11106" stroke-miterlimit="10" stroke-linecap="round"/>
<path d="M134.761 56.5107C135.01 55.3667 134.156 54.7864 133.907 54.7118C133.659 54.6372 133.385 54.6953 133.145 54.8113C132.904 54.9274 132.689 55.0766 132.457 55.2009C131.81 55.5408 131.014 55.5988 130.326 55.3501" stroke="#FF4081" stroke-width="1.11106" stroke-miterlimit="10" stroke-linecap="round"/>
<path d="M130.898 51.9595C130.89 51.5534 130.881 51.1472 130.873 50.741" stroke="#F9D232" stroke-width="0.461402" stroke-miterlimit="10" stroke-linecap="round"/>
<path d="M129 54.9771C129.39 55.0931 129.779 55.2175 130.161 55.3335" stroke="#F9D232" stroke-width="0.461402" stroke-miterlimit="10" stroke-linecap="round"/>
<path d="M192.5 81.9699L192.19 77.6299L188.52 76.8499L185.32 78.0199L184.85 78.9499L185.08 83.2399L188.92 85.1799L192.52 82.8299L192.5 81.9699ZM189.42 79.4299C190.06 79.7499 190.39 80.4399 190.29 81.1099C189.81 81.5799 189.19 81.8499 188.52 82.1099C186.55 82.8799 186.61 81.0799 187.55 79.7199C188.04 79.2499 188.78 79.1099 189.42 79.4299Z" fill="#8A9096"/>
<path d="M187.87 81.3799C187.07 80.9799 186.75 79.9899 187.16 79.1899C187.57 78.3899 188.55 78.0699 189.34 78.4799C190.14 78.8899 190.46 79.8599 190.06 80.6599C189.65 81.4699 188.67 81.7899 187.87 81.3799ZM192.2 77.5799L188.36 75.6399L184.76 77.9899L184.99 82.2799L188.83 84.2199L192.43 81.8699L192.2 77.5799Z" fill="#B9BDC3"/>
<path d="M169.74 109.88L171.35 107.18L169.5 105.2L167.12 104.57L166.46 104.93L164.83 107.57L166.3 110.3L169.4 110.39L169.74 109.88ZM168.96 107.1C169.2 107.55 169.12 108.1 168.78 108.45C168.3 108.53 167.82 108.44 167.32 108.32C165.83 107.96 166.61 106.92 167.73 106.5C168.21 106.42 168.71 106.64 168.96 107.1Z" fill="#8A9096"/>
<path d="M167.23 107.61C166.92 107.04 167.14 106.33 167.71 106.02C168.28 105.71 168.99 105.93 169.3 106.5C169.61 107.07 169.4 107.78 168.83 108.09C168.26 108.4 167.54 108.19 167.23 107.61ZM171.37 107.15L169.9 104.42L166.8 104.33L165.17 106.97L166.64 109.7L169.74 109.79L171.37 107.15Z" fill="#B9BDC3"/>
<path d="M122.729 69.0999L119.819 65.1899L115.879 66.6699L113.559 69.6999L113.679 70.8599L116.489 74.7699L121.279 74.2899L123.259 69.8999L122.729 69.0999ZM118.289 68.5599C119.089 68.4799 119.809 68.9299 120.129 69.6199C119.959 70.3599 119.539 70.9899 119.069 71.6299C117.669 73.5499 116.639 71.8099 116.709 69.9599C116.879 69.2199 117.489 68.6399 118.289 68.5599Z" fill="#8A9096"/>
<path d="M117.999 71.3399C116.999 71.4399 116.109 70.7099 116.009 69.7099C115.909 68.7099 116.639 67.8199 117.639 67.7199C118.639 67.6199 119.539 68.3499 119.639 69.3499C119.739 70.3399 119.009 71.2399 117.999 71.3399ZM119.799 65.1299L115.009 65.6099L113.029 69.9999L115.839 73.9099L120.629 73.4299L122.609 69.0399L119.799 65.1299Z" fill="#B9BDC3"/>
<path d="M192.83 62.0501L182.97 64.4501C182.02 64.6801 181.07 64.1001 180.84 63.1601L178.8 54.7901C178.57 53.8401 179.15 52.8901 180.09 52.6601L189.95 50.2601C190.9 50.0301 191.85 50.6101 192.08 51.5501L194.11 59.9001C194.36 60.8701 193.78 61.8201 192.83 62.0501Z" fill="#B9BDC3"/>
<path d="M192.83 61.3101L182.97 63.7101C182.02 63.9401 181.07 63.3601 180.84 62.4201L178.8 54.0501C178.57 53.1001 179.15 52.1501 180.09 51.9201L189.95 49.5201C190.9 49.2901 191.85 49.8701 192.08 50.8101L194.11 59.1601C194.36 60.1301 193.78 61.0801 192.83 61.3101Z" fill="#333333"/>
<path d="M190.61 51.21L180.32 53.72L180.84 55.86L191.13 53.35L190.61 51.21Z" fill="#BBE5FA"/>
<path d="M186.4 56.3201L181.27 57.5701L182.44 62.3701L187.57 61.1201L186.4 56.3201Z" fill="#BBE5FA"/>
<path d="M190.119 59.87L189.869 59.93C188.879 60.17 187.859 59.57 187.609 58.56C187.369 57.57 187.969 56.55 188.979 56.3L189.229 56.24C190.219 56 191.239 56.6 191.489 57.61C191.739 58.63 191.129 59.63 190.119 59.87Z" fill="#F8BF15"/>
<path d="M182.601 73.7625L183.289 75.207L193.96 70.1244L193.272 68.6799L182.601 73.7625Z" fill="#B9BDC3"/>
<path d="M193.279 68.6699L193.969 70.1199L195.419 70.0099L194.279 67.5999L193.279 68.6699Z" fill="#B9BDC3"/>
<path d="M196.489 67.1399L197.179 68.5899L195.419 70.0099L194.279 67.5999L196.489 67.1399Z" fill="#B9BDC3"/>
<path d="M177.339 77.1499C177.989 78.5099 179.619 79.0899 180.979 78.4399L185.909 76.0899C187.269 75.4399 187.849 73.8099 187.199 72.4499C186.549 71.0899 184.919 70.5099 183.559 71.1599L178.629 73.5099C177.269 74.1499 176.689 75.7799 177.339 77.1499Z" fill="#FF7733"/>
<path d="M181.08 77.89C181.18 78.1 181.44 78.2 181.65 78.09L186.68 75.69C186.89 75.59 186.99 75.33 186.88 75.12C186.78 74.91 186.52 74.81 186.31 74.92L181.28 77.32C181.07 77.41 180.98 77.67 181.08 77.89Z" fill="#E2632D"/>
<path d="M181.549 75.14C181.649 75.35 181.909 75.45 182.119 75.34L187.149 72.94C187.359 72.84 187.459 72.58 187.349 72.37C187.249 72.16 186.989 72.06 186.779 72.17L181.749 74.57C181.539 74.67 181.439 74.93 181.549 75.14Z" fill="#E2632D"/>
<path d="M179.26 73.68C179.36 73.89 179.62 73.99 179.83 73.88L184.86 71.48C185.07 71.38 185.17 71.12 185.06 70.91C184.96 70.7 184.7 70.6 184.49 70.71L179.46 73.11C179.25 73.21 179.16 73.46 179.26 73.68Z" fill="#E2632D"/>
<path d="M178.829 78.4899C179.961 78.4899 180.879 77.5721 180.879 76.4399C180.879 75.3077 179.961 74.3899 178.829 74.3899C177.697 74.3899 176.779 75.3077 176.779 76.4399C176.779 77.5721 177.697 78.4899 178.829 78.4899Z" fill="#E2632D"/>
<path d="M138.51 45.35L146.05 52.17L157.08 38.52L140.26 38.8C137.07 38.71 135.5 42.63 137.86 44.77L138.51 45.35Z" fill="#D8DDE2"/>
<path d="M137.472 40.0901L134.932 43.6601L139.652 41.5501L137.472 40.0901Z" fill="#D8DDE2"/>
<path d="M170.642 74.43L163.102 67.61L175.592 55.28L176.992 72.04C177.402 75.2 173.652 77.16 171.292 75.02L170.642 74.43Z" fill="#D8DDE2"/>
<path d="M135.981 48.8901L143.521 55.7101L154.551 42.0601L137.731 42.3301C134.541 42.2401 132.971 46.1601 135.331 48.3001L135.981 48.8901Z" fill="white"/>
<path d="M175.982 74.9499L172.682 77.8299L174.312 72.9199L175.982 74.9499Z" fill="#D8DDE2"/>
<path d="M167.36 77.2901L159.82 70.4701L172.31 58.1401L173.71 74.9001C174.12 78.0601 170.37 80.0201 168.01 77.8801L167.36 77.2901Z" fill="white"/>
<path d="M143.281 55.5L160.071 70.69L175.581 55.27L157.081 38.53L143.281 55.5Z" fill="#30A658"/>
<path d="M159.001 63.3601C163.618 63.3601 167.361 59.6172 167.361 55.0001C167.361 50.383 163.618 46.6401 159.001 46.6401C154.384 46.6401 150.641 50.383 150.641 55.0001C150.641 59.6172 154.384 63.3601 159.001 63.3601Z" fill="white"/>
<path d="M159.001 59.29C161.37 59.29 163.291 57.3693 163.291 55C163.291 52.6307 161.37 50.71 159.001 50.71C156.632 50.71 154.711 52.6307 154.711 55C154.711 57.3693 156.632 59.29 159.001 59.29Z" fill="#FF3333"/>
<path d="M157.08 38.53L175.58 55.28L175.17 49.16C175.14 48.64 174.9 48.16 174.52 47.81L164.59 38.83C164.2 38.48 163.7 38.3 163.18 38.31L157.08 38.53Z" fill="#A8E9A2"/>
<path d="M171.777 48.0678C172.414 47.3634 171.331 45.3444 169.357 43.5582C167.383 41.772 165.266 40.895 164.629 41.5994C163.991 42.3037 165.075 44.3228 167.049 46.109C169.023 47.8952 171.139 48.7722 171.777 48.0678Z" fill="#226D45"/>
<path d="M168.201 45.2999C166.751 42.9799 168.441 41.3299 169.401 41.0599C169.911 40.9099 170.481 40.9799 170.981 40.7999C171.641 40.5499 172.101 39.8399 172.031 39.1299" stroke="#6AC86E" stroke-width="1.3403" stroke-miterlimit="10" stroke-linecap="round"/>
<path d="M168.612 45.2199C168.022 43.9399 168.862 43.0299 169.142 42.8799C169.422 42.7199 169.762 42.7199 170.072 42.7899C170.382 42.8599 170.672 42.9799 170.982 43.0699C171.832 43.2999 172.782 43.1499 173.532 42.6799" stroke="#FF4081" stroke-width="1.3403" stroke-miterlimit="10" stroke-linecap="round"/>
<path d="M171.952 38.8399C171.852 38.3599 171.752 37.8799 171.662 37.3999" stroke="#F9D232" stroke-width="0.5566" stroke-miterlimit="10" stroke-linecap="round"/>
<path d="M174.981 41.8899C174.551 42.1299 174.131 42.3799 173.701 42.6199" stroke="#F9D232" stroke-width="0.5566" stroke-miterlimit="10" stroke-linecap="round"/>
<path d="M122.413 91.6809L131.483 88.5789L125.26 73.248L117.802 87.2401C116.275 89.8235 118.783 92.9161 121.63 91.9449L122.413 91.6809Z" fill="#D8DDE2"/>
<path d="M117.596 90.1346L119.378 93.8589L119.793 89.0032L117.596 90.1346Z" fill="#D8DDE2"/>
<path d="M161.081 78.4715L152.01 81.5735L147.551 65.6392L162.014 72.1449C164.805 73.248 164.711 77.2363 161.863 78.2075L161.081 78.4715Z" fill="#D8DDE2"/>
<path d="M124.175 95.377L133.245 92.275L127.022 76.9441L119.564 90.9361C118.037 93.5195 120.545 96.6121 123.392 95.641L124.175 95.377Z" fill="white"/>
<path d="M163.946 74.304L164.814 78.3394L161.514 74.7471L163.946 74.304Z" fill="#D8DDE2"/>
<path d="M161.938 82.4785L152.868 85.5806L148.408 69.6462L162.872 76.152C165.663 77.2551 165.568 81.2434 162.721 82.2145L161.938 82.4785Z" fill="white"/>
<path d="M132.963 92.3786L153.159 85.4769L147.54 65.6392L125.27 73.248L132.963 92.3786Z" fill="#30A658"/>
<path d="M139.734 87.0703C144.087 87.0703 147.616 83.5412 147.616 79.188C147.616 74.8347 144.087 71.3057 139.734 71.3057C135.381 71.3057 131.852 74.8347 131.852 79.188C131.852 83.5412 135.381 87.0703 139.734 87.0703Z" fill="white"/>
<path d="M139.734 83.233C141.968 83.233 143.779 81.4221 143.779 79.1882C143.779 76.9543 141.968 75.1433 139.734 75.1433C137.5 75.1433 135.689 76.9543 135.689 79.1882C135.689 81.4221 137.5 83.233 139.734 83.233Z" fill="#FF3333"/>
<path d="M125.27 73.2481L147.54 65.6392L142.307 63.1783C141.864 62.9709 141.355 62.9426 140.893 63.1029L128.947 67.1855C128.485 67.3458 128.098 67.6758 127.872 68.1189L125.27 73.2481Z" fill="#A8E9A2"/>
<path d="M136.08 68.4945C138.455 67.6831 140.145 66.3382 139.856 65.4906C139.566 64.6431 137.406 64.6138 135.031 65.4253C132.656 66.2367 130.965 67.5816 131.255 68.4292C131.544 69.2767 133.704 69.306 136.08 68.4945Z" fill="#226D45"/>
<path d="M137.62 98.9902H147.79L146.81 81.4702L134.52 92.9602C132.1 95.0302 133.56 99.0002 136.75 99.0002H137.62V98.9902Z" fill="#D8DDE2"/>
<path d="M133.32 95.7901L133.83 100.13L135.91 95.4001L133.32 95.7901Z" fill="#D8DDE2"/>
<path d="M138.14 103.3H148.31L147.33 85.7803L135.04 97.2703C132.62 99.3403 134.08 103.31 137.27 103.31H138.14V103.3Z" fill="white"/>
<path d="M170.611 103.3H147.971L146.811 81.4602H171.771L170.611 103.3Z" fill="#30A658"/>
<path d="M159.29 100.74C163.907 100.74 167.65 96.9974 167.65 92.3803C167.65 87.7632 163.907 84.0203 159.29 84.0203C154.673 84.0203 150.93 87.7632 150.93 92.3803C150.93 96.9974 154.673 100.74 159.29 100.74Z" fill="white"/>
<path d="M159.29 96.6701C161.659 96.6701 163.58 94.7494 163.58 92.3801C163.58 90.0108 161.659 88.0901 159.29 88.0901C156.921 88.0901 155 90.0108 155 92.3801C155 94.7494 156.921 96.6701 159.29 96.6701Z" fill="#FF3333"/>
<path d="M171.771 81.4601H146.811L151.221 77.1901C151.591 76.8301 152.091 76.6301 152.611 76.6301H166.001C166.521 76.6301 167.021 76.8301 167.391 77.2001L171.771 81.4601Z" fill="#A8E9A2"/>
<path d="M159.291 80.4002C161.953 80.4002 164.111 79.6301 164.111 78.6802C164.111 77.7303 161.953 76.9602 159.291 76.9602C156.629 76.9602 154.471 77.7303 154.471 78.6802C154.471 79.6301 156.629 80.4002 159.291 80.4002Z" fill="#226D45"/>
<path d="M158.971 79.0201C161.601 78.2801 161.451 75.9101 160.931 75.0701C160.651 74.6201 160.181 74.2901 159.941 73.8201C159.611 73.1901 159.761 72.3601 160.281 71.8801" stroke="#6AC86E" stroke-width="1.3403" stroke-miterlimit="10" stroke-linecap="round"/>
<path d="M158.731 78.68C160.031 78.13 160.011 76.89 159.911 76.59C159.811 76.29 159.561 76.06 159.281 75.9C159.011 75.74 158.701 75.64 158.421 75.49C157.631 75.09 157.031 74.34 156.791 73.49" stroke="#FF4081" stroke-width="1.3403" stroke-miterlimit="10" stroke-linecap="round"/>
<path d="M160.531 71.7201C160.921 71.4301 161.321 71.1401 161.711 70.8501" stroke="#F9D232" stroke-width="0.5566" stroke-miterlimit="10" stroke-linecap="round"/>
<path d="M156.23 71.9402C156.38 72.4102 156.53 72.8702 156.69 73.3402" stroke="#F9D232" stroke-width="0.5566" stroke-miterlimit="10" stroke-linecap="round"/>
<path d="M103.031 100H92.8613L93.8413 82.4802L106.131 93.9702C108.551 96.0402 107.091 100.01 103.901 100.01H103.031V100Z" fill="#D8DDE2"/>
<path d="M107.33 96.8002L106.81 101.14L104.73 96.4102L107.33 96.8002Z" fill="#D8DDE2"/>
<path d="M59.6806 100H69.8506L68.8706 82.4802L56.5806 93.9602C54.1606 96.0302 55.6206 100 58.8106 100H59.6806Z" fill="#D8DDE2"/>
<path d="M102.52 104.32H92.3496L93.3296 86.8003L105.62 98.2903C108.04 100.36 106.58 104.33 103.39 104.33H102.52V104.32Z" fill="white"/>
<path d="M55.3809 96.8002L55.8909 101.15L57.9809 96.4202L55.3809 96.8002Z" fill="#D8DDE2"/>
<path d="M60.2001 104.32H70.3701L69.3901 86.8003L57.1001 98.2803C54.6801 100.35 56.1401 104.32 59.3301 104.32H60.2001V104.32Z" fill="white"/>
<path d="M92.6809 104.32H70.0409L68.8809 82.4702H93.8309L92.6809 104.32Z" fill="#30A658"/>
<path d="M81.36 101.76C85.9771 101.76 89.72 98.0174 89.72 93.4003C89.72 88.7832 85.9771 85.0403 81.36 85.0403C76.7429 85.0403 73 88.7832 73 93.4003C73 98.0174 76.7429 101.76 81.36 101.76Z" fill="white"/>
<path d="M81.3603 97.6901C83.7296 97.6901 85.6503 95.7694 85.6503 93.4001C85.6503 91.0308 83.7296 89.1101 81.3603 89.1101C78.991 89.1101 77.0703 91.0308 77.0703 93.4001C77.0703 95.7694 78.991 97.6901 81.3603 97.6901Z" fill="#FF3333"/>
<path d="M93.8309 82.4701H68.8809L73.2909 78.2001C73.6609 77.8401 74.1609 77.6401 74.6809 77.6401H88.0709C88.5909 77.6401 89.0909 77.8401 89.4609 78.2101L93.8309 82.4701Z" fill="#A8E9A2"/>
<path d="M81.3512 81.4202C84.0133 81.4202 86.1712 80.6502 86.1712 79.7002C86.1712 78.7503 84.0133 77.9802 81.3512 77.9802C78.6892 77.9802 76.5312 78.7503 76.5312 79.7002C76.5312 80.6502 78.6892 81.4202 81.3512 81.4202Z" fill="#226D45"/>
<path d="M81.041 80.0301C83.671 79.2901 83.521 76.9201 83.001 76.0801C82.721 75.6301 82.251 75.3001 82.011 74.8301C81.681 74.2001 81.831 73.3701 82.351 72.8901" stroke="#6AC86E" stroke-width="1.3403" stroke-miterlimit="10" stroke-linecap="round"/>
<path d="M80.7916 79.7C82.0916 79.15 82.0716 77.91 81.9716 77.61C81.8716 77.31 81.6216 77.08 81.3416 76.92C81.0716 76.76 80.7616 76.66 80.4816 76.51C79.6916 76.11 79.0916 75.36 78.8516 74.51" stroke="#FF4081" stroke-width="1.3403" stroke-miterlimit="10" stroke-linecap="round"/>
<path d="M82.5898 72.7301C82.9798 72.4401 83.3798 72.1501 83.7698 71.8601" stroke="#F9D232" stroke-width="0.5566" stroke-miterlimit="10" stroke-linecap="round"/>
<path d="M78.3008 72.9602C78.4508 73.4302 78.6008 73.8902 78.7608 74.3602" stroke="#F9D232" stroke-width="0.5566" stroke-miterlimit="10" stroke-linecap="round"/>
<path d="M23.0107 147.32H33.1807L32.2007 129.8L19.9107 141.29C17.4907 143.36 18.9507 147.33 22.1407 147.33H23.0107V147.32Z" fill="#D8DDE2"/>
<path d="M18.7109 144.12L19.2209 148.47L21.3109 143.74L18.7109 144.12Z" fill="#D8DDE2"/>
<path d="M23.5302 151.64H33.7002L32.7202 134.12L20.4302 145.6C18.0102 147.67 19.4702 151.64 22.6602 151.64H23.5302Z" fill="white"/>
<path d="M56.0109 151.64H33.3709L32.2109 129.8H57.1609L56.0109 151.64Z" fill="#30A658"/>
<path d="M44.6901 149.08C49.3072 149.08 53.0501 145.337 53.0501 140.72C53.0501 136.103 49.3072 132.36 44.6901 132.36C40.073 132.36 36.3301 136.103 36.3301 140.72C36.3301 145.337 40.073 149.08 44.6901 149.08Z" fill="white"/>
<path d="M44.6904 145.01C47.0597 145.01 48.9804 143.089 48.9804 140.72C48.9804 138.351 47.0597 136.43 44.6904 136.43C42.3211 136.43 40.4004 138.351 40.4004 140.72C40.4004 143.089 42.3211 145.01 44.6904 145.01Z" fill="#FF3333"/>
<path d="M57.1609 129.8H32.2109L36.6209 125.53C36.9909 125.17 37.4909 124.97 38.0109 124.97H51.4009C51.9209 124.97 52.4209 125.17 52.7909 125.54L57.1609 129.8Z" fill="#A8E9A2"/>
<path d="M44.6813 128.74C47.3433 128.74 49.5013 127.97 49.5013 127.02C49.5013 126.07 47.3433 125.3 44.6813 125.3C42.0193 125.3 39.8613 126.07 39.8613 127.02C39.8613 127.97 42.0193 128.74 44.6813 128.74Z" fill="#226D45"/>
<path d="M44.3711 127.36C47.0011 126.62 46.8511 124.25 46.3311 123.41C46.0511 122.96 45.5811 122.63 45.3411 122.16C45.0111 121.53 45.1611 120.7 45.6811 120.22" stroke="#6AC86E" stroke-width="1.3403" stroke-miterlimit="10" stroke-linecap="round"/>
<path d="M44.1216 127.02C45.4216 126.47 45.4016 125.23 45.3016 124.93C45.2016 124.63 44.9516 124.4 44.6716 124.24C44.4016 124.08 44.0916 123.98 43.8116 123.83C43.0216 123.43 42.4216 122.68 42.1816 121.83" stroke="#FF4081" stroke-width="1.3403" stroke-miterlimit="10" stroke-linecap="round"/>
<path d="M45.9199 120.05C46.3099 119.76 46.7099 119.47 47.0999 119.18" stroke="#F9D232" stroke-width="0.5566" stroke-miterlimit="10" stroke-linecap="round"/>
<path d="M41.6309 120.28C41.7809 120.75 41.9309 121.21 42.0909 121.68" stroke="#F9D232" stroke-width="0.5566" stroke-miterlimit="10" stroke-linecap="round"/>
<path d="M74.0378 46.8161L69.6222 54.9814L55.9922 46.5789L70.5436 41.7071C73.2532 40.658 75.8077 43.5591 74.421 46.1136L74.0378 46.8161Z" fill="#D8DDE2"/>
<path d="M73.3347 41.9717L76.6008 44.2707L71.9023 43.8875L73.3347 41.9717Z" fill="#D8DDE2"/>
<path d="M77.2742 49.1062L72.8585 57.2714L59.2285 48.869L73.78 43.9972C76.4896 42.948 79.0441 45.8492 77.6573 48.4037L77.2742 49.1062Z" fill="white"/>
<path d="M63.1797 75.1618L73.0054 56.9975L55.9815 46.5789L45.1523 66.6042L63.1797 75.1618Z" fill="#30A658"/>
<path d="M59.3301 68.9673C63.5424 68.9673 66.9571 65.5526 66.9571 61.3404C66.9571 57.1281 63.5424 53.7134 59.3301 53.7134C55.1178 53.7134 51.7031 57.1281 51.7031 61.3404C51.7031 65.5526 55.1178 68.9673 59.3301 68.9673Z" fill="white"/>
<path d="M59.3299 65.254C61.4914 65.254 63.2437 63.5017 63.2437 61.3401C63.2437 59.1786 61.4914 57.4263 59.3299 57.4263C57.1683 57.4263 55.416 59.1786 55.416 61.3401C55.416 63.5017 57.1683 65.254 59.3299 65.254Z" fill="#FF3333"/>
<path d="M45.1522 66.6042L55.9905 46.5789L50.6535 48.2666C50.2064 48.4126 49.8233 48.7228 49.6043 49.1333L43.7929 59.8713C43.5648 60.291 43.51 60.7836 43.6378 61.2398L45.1522 66.6042Z" fill="#A8E9A2"/>
<path d="M49.7201 56.1375C50.8759 54.0016 51.1949 51.9357 50.4327 51.5233C49.6705 51.1108 48.1157 52.508 46.9599 54.644C45.8041 56.7799 45.4851 58.8458 46.2473 59.2583C47.0095 59.6707 48.5643 58.2735 49.7201 56.1375Z" fill="#226D45"/>
<path d="M48.7462 55.2825C47.0128 57.0707 45.179 55.9303 44.732 55.1366C44.4948 54.7169 44.4309 54.1969 44.1572 53.7955C43.7923 53.2663 43.0624 53.02 42.4512 53.2207" stroke="#6AC86E" stroke-width="1.22278" stroke-miterlimit="10" stroke-linecap="round"/>
<path d="M48.5806 54.9358C47.5771 55.7386 46.5917 55.1821 46.391 54.9723C46.1903 54.7625 46.1173 54.4614 46.1082 54.1695C46.0991 53.8775 46.1447 53.5947 46.1538 53.3028C46.1721 52.4999 45.8345 51.688 45.2598 51.1223" stroke="#FF4081" stroke-width="1.22278" stroke-miterlimit="10" stroke-linecap="round"/>
<path d="M42.2134 53.3574C41.812 53.549 41.4014 53.7406 41 53.9322" stroke="#F9D232" stroke-width="0.507796" stroke-miterlimit="10" stroke-linecap="round"/>
<path d="M44.2578 50.0093C44.568 50.3377 44.8691 50.657 45.1793 50.9855" stroke="#F9D232" stroke-width="0.507796" stroke-miterlimit="10" stroke-linecap="round"/>
<path d="M50.5891 128.71H27.9491L26.7891 106.87H51.7491L50.5891 128.71Z" fill="#30A658"/>
<path d="M39.2682 126.15C43.8853 126.15 47.6282 122.407 47.6282 117.79C47.6282 113.173 43.8853 109.43 39.2682 109.43C34.6511 109.43 30.9082 113.173 30.9082 117.79C30.9082 122.407 34.6511 126.15 39.2682 126.15Z" fill="white"/>
<path d="M39.2685 122.08C41.6378 122.08 43.5585 120.159 43.5585 117.79C43.5585 115.421 41.6378 113.5 39.2685 113.5C36.8992 113.5 34.9785 115.421 34.9785 117.79C34.9785 120.159 36.8992 122.08 39.2685 122.08Z" fill="#FF3333"/>
<path d="M51.7491 106.87H26.7891L31.1991 102.6C31.5691 102.24 32.0691 102.04 32.5891 102.04H45.9791C46.4991 102.04 46.9991 102.24 47.3691 102.61L51.7491 106.87Z" fill="#A8E9A2"/>
<path d="M39.2595 105.81C41.9215 105.81 44.0795 105.04 44.0795 104.09C44.0795 103.14 41.9215 102.37 39.2595 102.37C36.5974 102.37 34.4395 103.14 34.4395 104.09C34.4395 105.04 36.5974 105.81 39.2595 105.81Z" fill="#226D45"/>
<path d="M38.9492 104.43C41.5792 103.69 41.4292 101.32 40.9092 100.48C40.6292 100.03 40.1592 99.7 39.9192 99.23C39.5892 98.6 39.7392 97.77 40.2592 97.29" stroke="#6AC86E" stroke-width="1.3403" stroke-miterlimit="10" stroke-linecap="round"/>
<path d="M38.6998 104.09C39.9998 103.54 39.9798 102.3 39.8798 102C39.7798 101.7 39.5298 101.47 39.2498 101.31C38.9698 101.15 38.6698 101.05 38.3898 100.9C37.5998 100.5 36.9998 99.7499 36.7598 98.8999" stroke="#FF4081" stroke-width="1.3403" stroke-miterlimit="10" stroke-linecap="round"/>
<path d="M40.498 97.13C40.888 96.84 41.288 96.55 41.678 96.26" stroke="#F9D232" stroke-width="0.5566" stroke-miterlimit="10" stroke-linecap="round"/>
<path d="M36.209 97.3501C36.359 97.8201 36.509 98.2801 36.669 98.7501" stroke="#F9D232" stroke-width="0.5566" stroke-miterlimit="10" stroke-linecap="round"/>
<path d="M184.67 100.86L174.59 99.47L177.96 82.24L188.56 95.3C190.68 97.68 188.69 101.41 185.53 100.98L184.67 100.86Z" fill="#D8DDE2"/>
<path d="M189.37 98.28L188.27 102.52L186.85 97.54L189.37 98.28Z" fill="#D8DDE2"/>
<path d="M183.58 105.07L173.5 103.68L177.08 86.72L187.47 99.51C189.59 101.89 187.6 105.62 184.44 105.19L183.58 105.07Z" fill="white"/>
<path d="M48.6466 149.97H38.4766L39.4566 132.45L51.7466 143.94C54.1666 146.01 52.7066 149.98 49.5166 149.98H48.6466V149.97Z" fill="#D8DDE2"/>
<path d="M52.9474 146.77L52.4374 151.11L50.3574 146.38L52.9474 146.77Z" fill="#D8DDE2"/>
<path d="M5.30754 149.97H15.4775L14.4975 132.44L2.20754 143.93C-0.212464 146 1.24754 149.97 4.43754 149.97H5.30754V149.97Z" fill="#D8DDE2"/>
<path d="M48.1466 154.29H37.9766L38.9566 136.77L51.2466 148.26C53.6666 150.33 52.2066 154.3 49.0166 154.3H48.1466V154.29Z" fill="white"/>
<path d="M1.00781 146.77L1.51781 151.12L3.60781 146.38L1.00781 146.77Z" fill="#D8DDE2"/>
<path d="M5.82707 154.29H15.9971L15.0171 136.77L2.72707 148.25C0.307067 150.32 1.76707 154.29 4.95707 154.29H5.82707Z" fill="white"/>
<path d="M38.2978 154.29H15.6578L14.5078 132.44H39.4578L38.2978 154.29Z" fill="#30A658"/>
<path d="M26.9772 151.72C31.5943 151.72 35.3372 147.977 35.3372 143.36C35.3372 138.743 31.5943 135 26.9772 135C22.3601 135 18.6172 138.743 18.6172 143.36C18.6172 147.977 22.3601 151.72 26.9772 151.72Z" fill="white"/>
<path d="M26.9775 147.65C29.3468 147.65 31.2675 145.729 31.2675 143.36C31.2675 140.991 29.3468 139.07 26.9775 139.07C24.6082 139.07 22.6875 140.991 22.6875 143.36C22.6875 145.729 24.6082 147.65 26.9775 147.65Z" fill="#FF3333"/>
<path d="M39.4578 132.44H14.5078L18.9178 128.17C19.2878 127.81 19.7878 127.61 20.3078 127.61H33.6978C34.2178 127.61 34.7178 127.81 35.0878 128.18L39.4578 132.44Z" fill="#A8E9A2"/>
<path d="M26.9782 131.39C29.6402 131.39 31.7982 130.62 31.7982 129.67C31.7982 128.72 29.6402 127.95 26.9782 127.95C24.3162 127.95 22.1582 128.72 22.1582 129.67C22.1582 130.62 24.3162 131.39 26.9782 131.39Z" fill="#226D45"/>
<path d="M26.668 130C29.298 129.26 29.148 126.89 28.628 126.05C28.348 125.6 27.878 125.27 27.638 124.8C27.308 124.17 27.458 123.34 27.978 122.86" stroke="#6AC86E" stroke-width="1.3403" stroke-miterlimit="10" stroke-linecap="round"/>
<path d="M26.4185 129.67C27.7185 129.12 27.6985 127.88 27.5985 127.58C27.4985 127.28 27.2485 127.05 26.9685 126.89C26.6885 126.73 26.3885 126.63 26.1085 126.48C25.3185 126.08 24.7185 125.33 24.4785 124.48" stroke="#FF4081" stroke-width="1.3403" stroke-miterlimit="10" stroke-linecap="round"/>
<path d="M28.2168 122.7C28.6068 122.41 29.0068 122.12 29.3968 121.83" stroke="#F9D232" stroke-width="0.5566" stroke-miterlimit="10" stroke-linecap="round"/>
<path d="M23.9277 122.93C24.0777 123.4 24.2277 123.86 24.3877 124.33" stroke="#F9D232" stroke-width="0.5566" stroke-miterlimit="10" stroke-linecap="round"/>
<path d="M45.9707 162.04L46.3807 139.41L68.2407 138.64L67.7907 163.59L45.9707 162.04Z" fill="#30A658"/>
<path d="M57.0905 159.28C61.7076 159.28 65.4505 155.537 65.4505 150.92C65.4505 146.303 61.7076 142.56 57.0905 142.56C52.4734 142.56 48.7305 146.303 48.7305 150.92C48.7305 155.537 52.4734 159.28 57.0905 159.28Z" fill="white"/>
<path d="M57.0908 155.21C59.4601 155.21 61.3808 153.289 61.3808 150.92C61.3808 148.551 59.4601 146.63 57.0908 146.63C54.7215 146.63 52.8008 148.551 52.8008 150.92C52.8008 153.289 54.7215 155.21 57.0908 155.21Z" fill="#FF3333"/>
<path d="M67.791 163.59L68.231 138.64L72.421 143.12C72.771 143.5 72.971 144 72.961 144.52L72.721 157.9C72.711 158.42 72.501 158.92 72.131 159.28L67.791 163.59Z" fill="#A8E9A2"/>
<path d="M72.5075 151.197C72.5549 148.536 71.8234 146.364 70.8737 146.347C69.9239 146.33 69.1156 148.474 69.0682 151.136C69.0208 153.797 69.7523 155.969 70.7021 155.985C71.6518 156.002 72.4601 153.859 72.5075 151.197Z" fill="#226D45"/>
<path d="M70.4609 150.84C71.1609 153.48 73.5209 153.38 74.3709 152.87C74.8309 152.6 75.1609 152.14 75.6409 151.9C76.2709 151.59 77.1109 151.75 77.5809 152.27" stroke="#6AC86E" stroke-width="1.3403" stroke-miterlimit="10" stroke-linecap="round"/>
<path d="M70.8008 150.6C71.3308 151.91 72.5708 151.91 72.8708 151.82C73.1708 151.73 73.4008 151.48 73.5708 151.21C73.7308 150.94 73.8408 150.64 73.9908 150.36C74.4108 149.58 75.1608 148.99 76.0208 148.76" stroke="#FF4081" stroke-width="1.3403" stroke-miterlimit="10" stroke-linecap="round"/>
<path d="M77.7305 152.52C78.0105 152.92 78.3005 153.32 78.5805 153.72" stroke="#F9D232" stroke-width="0.5566" stroke-miterlimit="10" stroke-linecap="round"/>
<path d="M77.5914 148.23C77.1214 148.37 76.6514 148.52 76.1914 148.66" stroke="#F9D232" stroke-width="0.5566" stroke-miterlimit="10" stroke-linecap="round"/>
<path d="M193.529 152.14L193.929 129.5L215.789 128.73L215.349 153.68L193.529 152.14Z" fill="#30A658"/>
<path d="M204.649 149.37C209.266 149.37 213.009 145.627 213.009 141.01C213.009 136.393 209.266 132.65 204.649 132.65C200.032 132.65 196.289 136.393 196.289 141.01C196.289 145.627 200.032 149.37 204.649 149.37Z" fill="white"/>
<path d="M204.649 145.3C207.019 145.3 208.939 143.379 208.939 141.01C208.939 138.641 207.019 136.72 204.649 136.72C202.28 136.72 200.359 138.641 200.359 141.01C200.359 143.379 202.28 145.3 204.649 145.3Z" fill="#FF3333"/>
<path d="M215.35 153.68L215.79 128.73L219.98 133.21C220.33 133.59 220.53 134.09 220.52 134.61L220.28 148C220.27 148.52 220.06 149.02 219.69 149.38L215.35 153.68Z" fill="#A8E9A2"/>
<path d="M220.062 141.292C220.11 138.631 219.378 136.46 218.428 136.443C217.479 136.426 216.67 138.57 216.623 141.231C216.576 143.892 217.307 146.064 218.257 146.081C219.207 146.098 220.015 143.954 220.062 141.292Z" fill="#226D45"/>
<path d="M218.02 140.93C218.72 143.57 221.08 143.47 221.93 142.96C222.39 142.69 222.72 142.23 223.2 141.99C223.83 141.68 224.67 141.84 225.14 142.36" stroke="#6AC86E" stroke-width="1.3403" stroke-miterlimit="10" stroke-linecap="round"/>
<path d="M218.359 140.69C218.889 142 220.129 142 220.429 141.91C220.729 141.82 220.959 141.57 221.129 141.3C221.289 141.03 221.399 140.73 221.549 140.45C221.969 139.67 222.719 139.08 223.579 138.85" stroke="#FF4081" stroke-width="1.3403" stroke-miterlimit="10" stroke-linecap="round"/>
<path d="M225.289 142.62C225.569 143.02 225.859 143.42 226.139 143.82" stroke="#F9D232" stroke-width="0.5566" stroke-miterlimit="10" stroke-linecap="round"/>
<path d="M225.14 138.32C224.67 138.46 224.2 138.61 223.74 138.75" stroke="#F9D232" stroke-width="0.5566" stroke-miterlimit="10" stroke-linecap="round"/>
<path d="M96.4503 54.6799L86.4103 56.3099L84.5703 38.8599L98.5403 48.2199C101.26 49.8699 100.46 54.0199 97.3103 54.5399L96.4503 54.6799Z" fill="#D8DDE2"/>
<path d="M100.181 50.8298L100.381 55.1998L97.5605 50.8698L100.181 50.8298Z" fill="#D8DDE2"/>
<path d="M96.63 59.02L86.6 60.66L84.75 43.2L98.72 52.56C101.44 54.21 100.64 58.36 97.49 58.88L96.63 59.02Z" fill="white"/>
<path d="M64.5797 64.2399L86.9297 60.5999L84.5597 38.8599L59.9297 42.8699L64.5797 64.2399Z" fill="#30A658"/>
<path d="M74.0006 59.9998C78.6177 59.9998 82.3606 56.2569 82.3606 51.6398C82.3606 47.0227 78.6177 43.2798 74.0006 43.2798C69.3835 43.2798 65.6406 47.0227 65.6406 51.6398C65.6406 56.2569 69.3835 59.9998 74.0006 59.9998Z" fill="white"/>
<path d="M73.999 55.9299C76.3683 55.9299 78.289 54.0092 78.289 51.6399C78.289 49.2706 76.3683 47.3499 73.999 47.3499C71.6297 47.3499 69.709 49.2706 69.709 51.6399C69.709 54.0092 71.6297 55.9299 73.999 55.9299Z" fill="#FF3333"/>
<path d="M59.9297 42.8699L84.5597 38.8599L79.5197 35.3599C79.0897 35.0599 78.5697 34.9499 78.0597 35.0299L64.8497 37.1799C64.3397 37.2599 63.8697 37.5399 63.5597 37.9599L59.9297 42.8699Z" fill="#A8E9A2"/>
<path d="M72.0758 39.8202C74.7032 39.3924 76.7094 38.2855 76.5567 37.348C76.4041 36.4104 74.1504 35.9971 71.523 36.4249C68.8956 36.8527 66.8894 37.9595 67.042 38.8971C67.1947 39.8347 69.4484 40.248 72.0758 39.8202Z" fill="#226D45"/>
<path d="M192.111 155.85L183.781 150.02L194.641 136.23L198.121 152.69C198.921 155.78 195.441 158.19 192.831 156.36L192.111 155.85Z" fill="#D8DDE2"/>
<path d="M197.471 155.69L194.561 158.96L195.561 153.89L197.471 155.69Z" fill="#D8DDE2"/>
<path d="M189.221 159.1L180.891 153.27L191.821 139.81L195.231 155.93C196.031 159.02 192.551 161.43 189.941 159.6L189.221 159.1Z" fill="white"/>
<path d="M101.929 76.6114C105.834 76.6114 109 73.446 109 69.5413C109 65.6366 105.834 62.4712 101.929 62.4712C98.0248 62.4712 94.8594 65.6366 94.8594 69.5413C94.8594 73.446 98.0248 76.6114 101.929 76.6114Z" fill="#B9BDC3"/>
<path d="M101.203 75.5289C105.108 75.5289 108.273 72.3635 108.273 68.4588C108.273 64.5541 105.108 61.3887 101.203 61.3887C97.2982 61.3887 94.1328 64.5541 94.1328 68.4588C94.1328 72.3635 97.2982 75.5289 101.203 75.5289Z" fill="white"/>
<path d="M101.204 72.0867C103.208 72.0867 104.832 70.4624 104.832 68.4586C104.832 66.4549 103.208 64.8306 101.204 64.8306C99.2005 64.8306 97.5762 66.4549 97.5762 68.4586C97.5762 70.4624 99.2005 72.0867 101.204 72.0867Z" fill="#FF3333"/>
<path d="M40.9401 168.28C45.5572 168.28 49.3001 164.537 49.3001 159.92C49.3001 155.303 45.5572 151.56 40.9401 151.56C36.323 151.56 32.5801 155.303 32.5801 159.92C32.5801 164.537 36.323 168.28 40.9401 168.28Z" fill="#B9BDC3"/>
<path d="M40.0709 167C44.688 167 48.4309 163.257 48.4309 158.64C48.4309 154.023 44.688 150.28 40.0709 150.28C35.4538 150.28 31.7109 154.023 31.7109 158.64C31.7109 163.257 35.4538 167 40.0709 167Z" fill="white"/>
<path d="M40.0713 162.93C42.4406 162.93 44.3613 161.009 44.3613 158.64C44.3613 156.271 42.4406 154.35 40.0713 154.35C37.7019 154.35 35.7812 156.271 35.7812 158.64C35.7812 161.009 37.7019 162.93 40.0713 162.93Z" fill="#FF3333"/>
<g clip-path="url(#clip1)">
<path d="M180.05 136.39H145V147.69H180.05V136.39Z" fill="#333333"/>
<path d="M172.651 135.12C170.941 135.14 169.571 136.52 169.581 138.2C169.591 139.27 170.171 140.21 171.021 140.75L171.011 150.01C170.121 150.59 169.551 151.59 169.561 152.72C169.571 153.99 170.191 155.09 171.441 155.6L171.411 152.62L174.161 152.59L174.191 155.57C175.431 155.03 176.061 153.93 176.051 152.66C176.041 151.42 175.361 150.35 174.301 149.82L174.311 140.77C175.191 140.22 175.781 139.25 175.761 138.15C175.761 136.46 174.361 135.11 172.651 135.12ZM172.631 136.77L173.761 137.46L173.771 138.87L172.651 139.58L171.521 138.89L171.511 137.48L172.631 136.77Z" fill="white" stroke="white" stroke-width="0.2477" stroke-miterlimit="10" stroke-linejoin="round"/>
<path d="M165.8 152.58C165.81 151.48 165.23 150.51 164.35 149.96L164.34 140.91C165.39 140.38 166.07 139.31 166.09 138.07C166.1 136.8 165.47 135.69 164.23 135.16L164.2 138.14L161.45 138.11L161.48 135.13C160.22 135.63 159.6 136.73 159.59 138C159.58 139.13 160.15 140.13 161.04 140.71L161.05 149.97C160.19 150.51 159.62 151.44 159.61 152.52C159.59 154.2 160.97 155.58 162.68 155.6C164.38 155.61 165.78 154.26 165.8 152.58ZM161.54 153.24L161.55 151.83L162.68 151.14L163.8 151.85L163.79 153.26L162.66 153.95L161.54 153.24Z" fill="white" stroke="white" stroke-width="0.2477" stroke-miterlimit="10" stroke-linejoin="round"/>
<path d="M157.09 136.61V138.95C157.09 139.25 156.86 139.59 156.55 139.59H155.17C154.86 139.6 154.61 139.3 154.61 139V138.98C154.61 138.67 154.32 138.42 154.01 138.42L153.54 138.4V153.13H151.54V138.43C151.54 138.43 151.24 138.44 151.19 138.45L148.61 139.19C148.08 139.34 147.68 138.73 148.03 138.31C148.87 137.3 150.62 136.04 154.05 136.04H156.55C156.86 136.05 157.09 136.31 157.09 136.61Z" fill="white" stroke="white" stroke-width="0.2218" stroke-miterlimit="10" stroke-linejoin="round"/>
<path d="M180.05 143.92H145V161.22H180.05V143.92Z" fill="#DA4537"/>
</g>
</g>
<path d="M208.301 121.5C212.443 121.5 215.801 120.291 215.801 118.8C215.801 117.309 212.443 116.1 208.301 116.1C204.159 116.1 200.801 117.309 200.801 118.8C200.801 120.291 204.159 121.5 208.301 121.5Z" fill="#B9BDC3"/>
<path d="M211.801 52.1001H204.701V117.7H211.801V52.1001Z" fill="#B9BDC3"/>
<path opacity="0.2" d="M211.8 52.1001H209.9V117.7H211.8V52.1001Z" fill="black"/>
<path d="M213.502 28H203.102V64H213.502V28Z" fill="#FA9664"/>
<path d="M213.402 28L203.102 33.3V28.1L203.202 28H213.402Z" fill="#FFF173"/>
<path d="M213.502 35.0999L203.102 40.4999V35.2999L213.502 29.8999V35.0999Z" fill="#FFF173"/>
<path d="M213.502 42.3001L203.102 47.7001V42.5001L213.502 37.1001V42.3001Z" fill="#FFF173"/>
<path d="M213.502 49.5L203.102 54.9001V49.7001L213.502 44.3V49.5Z" fill="#FFF173"/>
<path d="M213.502 56.7L203.102 62.1V56.8L213.502 51.5V56.7Z" fill="#FFF173"/>
<path d="M213.501 58.7V63.9L213.301 64H203.201L213.501 58.7Z" fill="#FFF173"/>
<path d="M213.502 28H203.102V64H213.502V28Z" fill="#FA9664"/>
<path d="M213.402 28L203.102 33.3V28.1L203.202 28H213.402Z" fill="#FFF173"/>
<path d="M213.502 35.0999L203.102 40.4999V35.2999L213.502 29.8999V35.0999Z" fill="#FFF173"/>
<path d="M213.502 42.3001L203.102 47.7001V42.5001L213.502 37.1001V42.3001Z" fill="#FFF173"/>
<path d="M213.502 49.5L203.102 54.9001V49.7001L213.502 44.3V49.5Z" fill="#FFF173"/>
<path d="M213.502 56.7L203.102 62.1V56.8L213.502 51.5V56.7Z" fill="#FFF173"/>
<path d="M213.501 58.7V63.9L213.301 64L213.101 64.2C210.401 67.2 205.701 67.1 203.201 64L213.501 58.7Z" fill="#FFF173"/>
<path opacity="0.2" d="M213.501 63.9L211.301 65.7V28H213.501V63.9Z" fill="black"/>
<path d="M208.1 31.7999C215.335 31.7999 221.2 29.6509 221.2 27C221.2 24.349 215.335 22.2 208.1 22.2C200.865 22.2 195 24.349 195 27C195 29.6509 200.865 31.7999 208.1 31.7999Z" fill="#FA9664"/>
<path d="M208.1 30.9999C215.335 30.9999 221.2 28.8509 221.2 26.1999C221.2 23.5489 215.335 21.3999 208.1 21.3999C200.865 21.3999 195 23.5489 195 26.1999C195 28.8509 200.865 30.9999 208.1 30.9999Z" fill="#FFF173"/>
<path d="M220.199 25.3001C220.199 27.6001 214.799 29.5001 208.199 29.5001C205.499 29.5001 202.999 29.2001 200.999 28.6001C200.399 28.4001 199.799 28.3001 199.299 28.1001C198.999 28.0001 198.699 27.9001 198.499 27.8001C198.199 27.7001 197.899 27.5001 197.699 27.4001C196.699 26.8001 196.199 26.1001 196.199 25.3001C196.199 24.5001 196.799 23.8001 197.699 23.2001C197.899 23.0001 198.199 22.9001 198.499 22.8001C198.699 22.7001 198.999 22.6001 199.299 22.5001C199.799 22.3001 200.299 22.1001 200.999 22.0001C202.999 21.5001 205.499 21.1001 208.199 21.1001C214.799 21.1001 220.199 23.0001 220.199 25.3001Z" fill="#6AC86E"/>
<path d="M220.1 6.1001H197.4V25.6001H220.1V6.1001Z" fill="#219750"/>
<path d="M219.5 6.1001H196V25.6001H219.5V6.1001Z" fill="#6AC86E"/>
<path d="M215.499 25.3001C215.499 26.3001 212.199 27.1001 208.099 27.1001C203.999 27.1001 200.699 26.3001 200.699 25.3001C200.699 24.3001 203.999 18.4001 208.099 18.4001C212.199 18.4001 215.499 24.3001 215.499 25.3001Z" fill="#219750"/>
<path d="M202.699 25.1C205.185 25.1 207.199 22.1003 207.199 18.4C207.199 14.6996 205.185 11.7 202.699 11.7C200.214 11.7 198.199 14.6996 198.199 18.4C198.199 22.1003 200.214 25.1 202.699 25.1Z" fill="white"/>
<path d="M203.699 25.1C206.185 25.1 208.199 22.1003 208.199 18.4C208.199 14.6996 206.185 11.7 203.699 11.7C201.214 11.7 199.199 14.6996 199.199 18.4C199.199 22.1003 201.214 25.1 203.699 25.1Z" fill="#1A844B"/>
<path d="M210.1 25.1C212.585 25.1 214.6 22.1003 214.6 18.4C214.6 14.6996 212.585 11.7 210.1 11.7C207.614 11.7 205.6 14.6996 205.6 18.4C205.6 22.1003 207.614 25.1 210.1 25.1Z" fill="#1A844B"/>
<path d="M213.5 25.1C215.985 25.1 218 22.1003 218 18.4C218 14.6996 215.985 11.7 213.5 11.7C211.015 11.7 209 14.6996 209 18.4C209 22.1003 211.015 25.1 213.5 25.1Z" fill="white"/>
<path opacity="0.5" d="M199.2 6.1001V27.3001C198.9 27.2001 198.6 27.1001 198.4 27.1001C198.1 27.0001 197.8 26.9001 197.6 26.8001V6.1001H199.2Z" fill="white"/>
<path opacity="0.5" d="M200.9 6.0999V27.5999C200.3 27.4999 199.7 27.3999 199.2 27.1999C198.9 27.0999 198.6 26.9999 198.4 26.9999V5.8999L200.9 6.0999Z" fill="white"/>
<path d="M208.1 11.4C215.335 11.4 221.2 9.25102 221.2 6.60005C221.2 3.94908 215.335 1.80005 208.1 1.80005C200.865 1.80005 195 3.94908 195 6.60005C195 9.25102 200.865 11.4 208.1 11.4Z" fill="#FA9664"/>
<path d="M208.1 10.6C215.335 10.6 221.2 8.45097 221.2 5.8C221.2 3.14903 215.335 1 208.1 1C200.865 1 195 3.14903 195 5.8C195 8.45097 200.865 10.6 208.1 10.6Z" fill="#FFF173"/>
<path d="M130.774 94.0083L130.174 95.2083L128.674 94.7083L130.774 94.0083Z" fill="#74797E"/>
<path d="M125.074 101.408C124.974 101.408 124.974 101.508 124.874 101.508L116.474 105.708C115.574 106.108 114.574 105.808 114.174 104.908C113.774 104.008 114.074 103.008 114.974 102.608L123.374 98.4083C123.474 98.4083 123.474 98.3083 123.574 98.3083C123.574 96.8083 124.374 95.3083 125.774 94.6083C127.274 93.9083 128.974 94.1083 130.174 95.2083L126.874 96.9083L128.274 99.7083L131.574 98.0083C131.674 99.6083 130.874 101.108 129.374 101.908C127.974 102.608 126.274 102.408 125.074 101.408Z" fill="#74797E"/>
<path d="M125.574 100.208C125.474 100.208 125.474 100.308 125.374 100.308L116.974 104.508C116.074 104.908 115.074 104.608 114.674 103.708C114.274 102.808 114.574 101.808 115.474 101.408L123.874 97.2083C123.974 97.2083 123.974 97.1083 124.074 97.1083C124.074 95.6083 124.874 94.1083 126.274 93.4083C127.774 92.7083 129.474 92.9083 130.674 94.0083L127.374 95.7083L128.774 98.5083L132.074 96.8083C132.174 98.4083 131.374 99.9083 129.874 100.708C128.474 101.308 126.774 101.108 125.574 100.208Z" fill="#B9BDC3"/>
<defs>
<clipPath id="clip0">
<rect width="226" height="135" fill="white" transform="translate(0 33)"/>
</clipPath>
<clipPath id="clip1">
<rect width="35.05" height="26.22" fill="white" transform="translate(145 135)"/>
</clipPath>
</defs>
</svg>
