<svg width="250" height="200" viewBox="0 0 250 200" fill="none" xmlns="http://www.w3.org/2000/svg">
<path d="M42.3008 121.5C46.4429 121.5 49.8008 120.291 49.8008 118.8C49.8008 117.309 46.4429 116.1 42.3008 116.1C38.1586 116.1 34.8008 117.309 34.8008 118.8C34.8008 120.291 38.1586 121.5 42.3008 121.5Z" fill="#B9BDC3"/>
<path d="M45.8012 52.1001H38.7012V117.7H45.8012V52.1001Z" fill="#B9BDC3"/>
<path opacity="0.2" d="M45.8004 52.1001H43.9004V117.7H45.8004V52.1001Z" fill="black"/>
<path d="M47.5016 28H37.1016V64H47.5016V28Z" fill="#FA9664"/>
<path d="M47.4016 28L37.1016 33.3V28.1L37.2016 28H47.4016Z" fill="#FFF173"/>
<path d="M47.5016 35.0999L37.1016 40.4999V35.2999L47.5016 29.8999V35.0999Z" fill="#FFF173"/>
<path d="M47.5016 42.3001L37.1016 47.7001V42.5001L47.5016 37.1001V42.3001Z" fill="#FFF173"/>
<path d="M47.5016 49.5L37.1016 54.9001V49.7001L47.5016 44.3V49.5Z" fill="#FFF173"/>
<path d="M47.5016 56.7L37.1016 62.1V56.8L47.5016 51.5V56.7Z" fill="#FFF173"/>
<path d="M47.5012 58.7V63.9L47.3012 64H37.2012L47.5012 58.7Z" fill="#FFF173"/>
<path d="M47.5016 28H37.1016V64H47.5016V28Z" fill="#FA9664"/>
<path d="M47.4016 28L37.1016 33.3V28.1L37.2016 28H47.4016Z" fill="#FFF173"/>
<path d="M47.5016 35.0999L37.1016 40.4999V35.2999L47.5016 29.8999V35.0999Z" fill="#FFF173"/>
<path d="M47.5016 42.3001L37.1016 47.7001V42.5001L47.5016 37.1001V42.3001Z" fill="#FFF173"/>
<path d="M47.5016 49.5L37.1016 54.9001V49.7001L47.5016 44.3V49.5Z" fill="#FFF173"/>
<path d="M47.5016 56.7L37.1016 62.1V56.8L47.5016 51.5V56.7Z" fill="#FFF173"/>
<path d="M47.5012 58.7V63.9L47.3012 64L47.1012 64.2C44.4012 67.2 39.7012 67.1 37.2012 64L47.5012 58.7Z" fill="#FFF173"/>
<path opacity="0.2" d="M47.5008 63.9L45.3008 65.7V28H47.5008V63.9Z" fill="black"/>
<path d="M42.1 31.7999C49.3349 31.7999 55.2 29.6509 55.2 27C55.2 24.349 49.3349 22.2 42.1 22.2C34.8651 22.2 29 24.349 29 27C29 29.6509 34.8651 31.7999 42.1 31.7999Z" fill="#FA9664"/>
<path d="M42.1 30.9999C49.3349 30.9999 55.2 28.8509 55.2 26.1999C55.2 23.5489 49.3349 21.3999 42.1 21.3999C34.8651 21.3999 29 23.5489 29 26.1999C29 28.8509 34.8651 30.9999 42.1 30.9999Z" fill="#FFF173"/>
<path d="M54.1992 25.3001C54.1992 27.6001 48.7992 29.5001 42.1992 29.5001C39.4992 29.5001 36.9992 29.2001 34.9992 28.6001C34.3992 28.4001 33.7992 28.3001 33.2992 28.1001C32.9992 28.0001 32.6992 27.9001 32.4992 27.8001C32.1992 27.7001 31.8992 27.5001 31.6992 27.4001C30.6992 26.8001 30.1992 26.1001 30.1992 25.3001C30.1992 24.5001 30.7992 23.8001 31.6992 23.2001C31.8992 23.0001 32.1992 22.9001 32.4992 22.8001C32.6992 22.7001 32.9992 22.6001 33.2992 22.5001C33.7992 22.3001 34.2992 22.1001 34.9992 22.0001C36.9992 21.5001 39.4992 21.1001 42.1992 21.1001C48.7992 21.1001 54.1992 23.0001 54.1992 25.3001Z" fill="#6AC86E"/>
<path d="M54.1004 6.1001H31.4004V25.6001H54.1004V6.1001Z" fill="#219750"/>
<path d="M53.5 6.1001H30V25.6001H53.5V6.1001Z" fill="#6AC86E"/>
<path d="M49.4992 25.3001C49.4992 26.3001 46.1992 27.1001 42.0992 27.1001C37.9992 27.1001 34.6992 26.3001 34.6992 25.3001C34.6992 24.3001 37.9992 18.4001 42.0992 18.4001C46.1992 18.4001 49.4992 24.3001 49.4992 25.3001Z" fill="#219750"/>
<path d="M36.6992 25.1C39.1845 25.1 41.1992 22.1003 41.1992 18.4C41.1992 14.6996 39.1845 11.7 36.6992 11.7C34.2139 11.7 32.1992 14.6996 32.1992 18.4C32.1992 22.1003 34.2139 25.1 36.6992 25.1Z" fill="white"/>
<path d="M37.6992 25.1C40.1845 25.1 42.1992 22.1003 42.1992 18.4C42.1992 14.6996 40.1845 11.7 37.6992 11.7C35.2139 11.7 33.1992 14.6996 33.1992 18.4C33.1992 22.1003 35.2139 25.1 37.6992 25.1Z" fill="#1A844B"/>
<path d="M44.0996 25.1C46.5849 25.1 48.5996 22.1003 48.5996 18.4C48.5996 14.6996 46.5849 11.7 44.0996 11.7C41.6143 11.7 39.5996 14.6996 39.5996 18.4C39.5996 22.1003 41.6143 25.1 44.0996 25.1Z" fill="#1A844B"/>
<path d="M47.5 25.1C49.9853 25.1 52 22.1003 52 18.4C52 14.6996 49.9853 11.7 47.5 11.7C45.0147 11.7 43 14.6996 43 18.4C43 22.1003 45.0147 25.1 47.5 25.1Z" fill="white"/>
<path opacity="0.5" d="M33.1996 6.1001V27.3001C32.8996 27.2001 32.5996 27.1001 32.3996 27.1001C32.0996 27.0001 31.7996 26.9001 31.5996 26.8001V6.1001H33.1996Z" fill="white"/>
<path opacity="0.5" d="M34.9004 6.0999V27.5999C34.3004 27.4999 33.7004 27.3999 33.2004 27.1999C32.9004 27.0999 32.6004 26.9999 32.4004 26.9999V5.8999L34.9004 6.0999Z" fill="white"/>
<path d="M42.1 11.4C49.3349 11.4 55.2 9.25102 55.2 6.60005C55.2 3.94908 49.3349 1.80005 42.1 1.80005C34.8651 1.80005 29 3.94908 29 6.60005C29 9.25102 34.8651 11.4 42.1 11.4Z" fill="#FA9664"/>
<path d="M42.1 10.6C49.3349 10.6 55.2 8.45097 55.2 5.8C55.2 3.14903 49.3349 1 42.1 1C34.8651 1 29 3.14903 29 5.8C29 8.45097 34.8651 10.6 42.1 10.6Z" fill="#FFF173"/>
<g clip-path="url(#clip0)">
<path d="M188.8 88.1999L188.5 83.8999L184.8 83.0999L181.6 84.2999L181.1 85.1999L181.3 89.4999L185.1 91.3999L188.7 88.9999L188.8 88.1999ZM185.7 85.6999C186.3 85.9999 186.7 86.6999 186.6 87.3999C186.1 87.8999 185.5 88.0999 184.8 88.3999C182.8 89.1999 182.9 87.3999 183.8 85.9999C184.3 85.4999 185 85.2999 185.7 85.6999Z" fill="#8A9096"/>
<path d="M184.1 87.5999C183.3 87.1999 183 86.1999 183.4 85.3999C183.8 84.5999 184.8 84.2999 185.6 84.6999C186.4 85.0999 186.7 86.0999 186.3 86.8999C185.9 87.6999 184.9 87.9999 184.1 87.5999ZM188.5 83.7999L184.7 81.8999L181.1 84.1999L181.3 88.4999L185.1 90.3999L188.7 87.9999L188.5 83.7999Z" fill="#B9BDC3"/>
<path d="M172.5 114L174.1 111.3L172.2 109.3L169.8 108.7L169.1 109.1L167.5 111.7L169 114.4L172.1 114.5L172.5 114ZM171.7 111.3C171.9 111.8 171.9 112.3 171.5 112.7C171 112.8 170.5 112.7 170 112.6C168.5 112.2 169.3 111.2 170.4 110.8C171 110.6 171.5 110.8 171.7 111.3Z" fill="#8A9096"/>
<path d="M170 111.8C169.7 111.2 169.9 110.5 170.5 110.2C171.1 109.9 171.8 110.1 172.1 110.7C172.4 111.3 172.2 112 171.6 112.3C171 112.6 170.3 112.3 170 111.8ZM174.2 111.3L172.7 108.6L169.6 108.5L168 111.1L169.5 113.8L172.6 113.9L174.2 111.3Z" fill="#B9BDC3"/>
<path d="M63.1 105.2L65.1 101.8L62.8 99.3L59.8 98.5L59 99L57 102.3L58.8 105.7L62.7 105.8L63.1 105.2ZM62.1 101.7C62.4 102.3 62.3 102.9 61.9 103.4C61.3 103.5 60.7 103.4 60.1 103.2C58.2 102.8 59.2 101.5 60.6 100.9C61.2 100.9 61.8 101.1 62.1 101.7Z" fill="#8A9096"/>
<path d="M60.0004 102.4C59.6004 101.7 59.9004 100.8 60.6004 100.4C61.3004 100 62.2004 100.3 62.6004 101C63.0004 101.7 62.7004 102.6 62.0004 103C61.2004 103.3 60.3004 103.1 60.0004 102.4ZM65.1004 101.8L63.3004 98.4001L59.4004 98.3L57.4004 101.6L59.2004 105L63.1004 105.1L65.1004 101.8Z" fill="#B9BDC3"/>
<path d="M73.6996 96.1002L70.7996 92.2002L66.8996 93.7002L64.5996 96.7002L64.6996 97.9002L67.4996 101.8L72.2996 101.3L74.2996 96.9002L73.6996 96.1002ZM69.2996 95.5002C70.0996 95.4002 70.7996 95.9002 71.0996 96.6002C70.8996 97.3002 70.4996 98.0002 69.9996 98.6002C68.5996 100.5 67.5996 98.8002 67.5996 96.9002C67.8996 96.2002 68.4996 95.6002 69.2996 95.5002Z" fill="#8A9096"/>
<path d="M69 98.3001C68 98.4001 67.1 97.7001 67 96.7001C66.9 95.7001 67.6 94.8001 68.6 94.7001C69.6 94.6001 70.5 95.3001 70.6 96.3001C70.7 97.3001 70 98.2001 69 98.3001ZM70.8 92.1001L66 92.6001L64 97.0001L66.8 100.9L71.6 100.4L73.6 96.0001L70.8 92.1001Z" fill="#B9BDC3"/>
<path d="M195.6 66.1999L185.7 68.5999C184.8 68.7999 183.8 68.2999 183.6 67.2999L181.6 58.8999C181.4 57.9999 181.9 56.9999 182.9 56.7999L192.8 54.3999C193.7 54.1999 194.7 54.6999 194.9 55.6999L196.9 64.0999C197.1 64.9999 196.6 65.9999 195.6 66.1999Z" fill="#B9BDC3"/>
<path d="M195.6 65.5L185.7 67.9C184.8 68.1 183.8 67.6 183.6 66.6L181.6 58.2C181.4 57.3 181.9 56.3 182.9 56.1L192.8 53.7C193.7 53.5 194.7 54 194.9 55L196.9 63.4C197.1 64.3 196.6 65.2 195.6 65.5Z" fill="#333333"/>
<path d="M193.4 55.3999L183.1 57.8999L183.6 59.9999L193.9 57.4999L193.4 55.3999Z" fill="#BBE5FA"/>
<path d="M189.2 60.5L184.1 61.8L185.3 66.6L190.4 65.3L189.2 60.5Z" fill="#BBE5FA"/>
<path d="M192.9 64L192.7 64.1C191.7 64.3 190.7 63.7 190.4 62.7C190.2 61.7 190.8 60.7 191.8 60.4L192 60.3C193 60.1 194 60.7 194.3 61.7C194.5 62.8 193.9 63.8 192.9 64Z" fill="#F8BF15"/>
<path d="M176.898 71.4332L176.404 73.2681L190.214 76.9818L190.707 75.147L176.898 71.4332Z" fill="#B9BDC3"/>
<path d="M176.9 71.4001L176.3 73.3001L174.6 73.5001L175.4 70.4001L176.9 71.4001Z" fill="#B9BDC3"/>
<path d="M172.699 70.3L172.199 72.2001L174.599 73.5L175.399 70.4L172.699 70.3Z" fill="#B9BDC3"/>
<path d="M197.7 78C197.2 79.8 195.4 80.8 193.6 80.3L187.2 78.6C185.4 78.1 184.4 76.3 184.9 74.5C185.4 72.7 187.2 71.7 189 72.2L195.4 73.9C197.1 74.5 198.2 76.3 197.7 78Z" fill="#FF7733"/>
<path d="M193.398 79.7001C193.298 80.0001 192.998 80.1 192.798 80.1L186.298 78.3C185.998 78.2 185.898 77.9001 185.898 77.7001C185.998 77.4001 186.298 77.3 186.498 77.3L192.998 79.1C193.298 79.2 193.498 79.5001 193.398 79.7001Z" fill="#E2632D"/>
<path d="M192.299 76.5999C192.199 76.8999 191.899 77 191.699 77L185.199 75.2C184.899 75.1 184.799 74.7999 184.799 74.5999C184.899 74.2999 185.199 74.2 185.399 74.2L191.899 76C192.199 76 192.299 76.2999 192.299 76.5999Z" fill="#E2632D"/>
<path d="M194.699 74.3001C194.599 74.6001 194.299 74.7001 194.099 74.7001L187.599 72.9001C187.299 72.8001 187.199 72.5001 187.199 72.3001C187.299 72.0001 187.599 71.9001 187.799 71.9001L194.299 73.7001C194.599 73.8001 194.699 74.1001 194.699 74.3001Z" fill="#E2632D"/>
<path d="M195.799 80C197.18 80 198.299 78.8807 198.299 77.5C198.299 76.1193 197.18 75 195.799 75C194.418 75 193.299 76.1193 193.299 77.5C193.299 78.8807 194.418 80 195.799 80Z" fill="#E2632D"/>
<path d="M122.799 85L122.199 86.2L120.699 85.7L122.799 85Z" fill="#74797E"/>
<path d="M117.099 92.4C116.999 92.4 116.999 92.5 116.899 92.5L108.499 96.7C107.599 97.1 106.599 96.8 106.199 95.9C105.799 95 106.099 94 106.999 93.6L115.399 89.4C115.499 89.4 115.499 89.3 115.599 89.3C115.599 87.8 116.399 86.3 117.799 85.6C119.299 84.9 120.999 85.1 122.199 86.2L118.899 87.9L120.299 90.7L123.599 89C123.699 90.6 122.899 92.1 121.399 92.9C119.999 93.6 118.299 93.4 117.099 92.4Z" fill="#74797E"/>
<path d="M117.599 91.2C117.499 91.2 117.499 91.3 117.399 91.3L108.999 95.5C108.099 95.9 107.099 95.6 106.699 94.7C106.299 93.8 106.599 92.8 107.499 92.4L115.899 88.2C115.999 88.2 115.999 88.1 116.099 88.1C116.099 86.6 116.899 85.1 118.299 84.4C119.799 83.7 121.499 83.9 122.699 85L119.399 86.7L120.799 89.5L124.099 87.8C124.199 89.4 123.399 90.9 121.899 91.7C120.499 92.3 118.799 92.1 117.599 91.2Z" fill="#B9BDC3"/>
<path d="M151.359 45.2027L174.449 47.5993L173.359 69.095L148.01 66.5089L151.359 45.2027Z" fill="#C6FFC0"/>
<path d="M167.262 57.7371C166.888 61.3074 167.564 64.3044 168.772 64.4312C169.981 64.5579 171.264 61.7663 171.638 58.196C172.013 54.6257 171.337 51.6287 170.128 51.502C168.92 51.3753 167.637 54.1668 167.262 57.7371Z" fill="#FF3333"/>
<path d="M159.62 56.8543C159.245 60.4246 159.921 63.4216 161.13 63.5484C162.338 63.6751 163.621 60.8835 163.996 57.3132C164.37 53.7429 163.694 50.7459 162.486 50.6192C161.277 50.4924 159.994 53.284 159.62 56.8543Z" fill="#FF3333"/>
<path d="M151.967 56.0708C151.593 59.6411 152.269 62.6382 153.478 62.7649C154.686 62.8916 155.969 60.1001 156.344 56.5298C156.718 52.9595 156.042 49.9625 154.833 49.8357C153.625 49.709 152.342 52.5006 151.967 56.0708Z" fill="#FF3333"/>
<path d="M147.95 66.4286L173.359 69.095L168.464 72.7345C168.063 73.0328 167.542 73.1707 166.983 73.0883L153.329 71.6512C152.769 71.5688 152.31 71.2869 151.931 70.9453L147.95 66.4286Z" fill="#6AC86E"/>
<path d="M155.585 69.6071C155.499 70.431 157.611 71.3278 160.302 71.61C162.994 71.8923 165.245 71.4532 165.332 70.6293C165.418 69.8054 163.306 68.9086 160.615 68.6264C157.924 68.3441 155.672 68.7832 155.585 69.6071Z" fill="#226D45"/>
<path d="M160.475 69.7012C162.529 71.2898 161.58 73.3659 160.858 73.9028C160.456 74.2012 159.936 74.339 159.535 74.6373C159.033 75.1352 158.849 75.8945 159.187 76.5159" stroke="#6AC86E" stroke-width="1.2833" stroke-miterlimit="10" stroke-linecap="round"/>
<path d="M160.094 69.8596C161.03 70.7836 160.586 71.8617 160.405 72.1209C160.224 72.3802 159.923 72.4789 159.563 72.4974C159.263 72.5962 158.983 72.555 158.623 72.5735C157.823 72.6701 156.981 73.0466 156.438 73.8244" stroke="#FF4081" stroke-width="1.2833" stroke-miterlimit="10" stroke-linecap="round"/>
<path d="M159.227 76.7359C159.526 77.1371 159.684 77.5178 159.982 77.919" stroke="#F9D232" stroke-width="0.533" stroke-miterlimit="10" stroke-linecap="round"/>
<path d="M155.474 75.0401C155.816 74.6616 156.077 74.3427 156.419 73.9641" stroke="#F9D232" stroke-width="0.533" stroke-miterlimit="10" stroke-linecap="round"/>
<path d="M101.201 86.7001C105.84 86.7001 109.601 82.9393 109.601 78.3001C109.601 73.661 105.84 69.9001 101.201 69.9001C96.5616 69.9001 92.8008 73.661 92.8008 78.3001C92.8008 82.9393 96.5616 86.7001 101.201 86.7001Z" fill="#B9BDC3"/>
<path d="M100.3 85.4001C104.94 85.4001 108.7 81.6393 108.7 77.0001C108.7 72.3609 104.94 68.6001 100.3 68.6001C95.6612 68.6001 91.9004 72.3609 91.9004 77.0001C91.9004 81.6393 95.6612 85.4001 100.3 85.4001Z" fill="white"/>
<path d="M100.3 81.3002C102.675 81.3002 104.6 79.375 104.6 77.0002C104.6 74.6254 102.675 72.7002 100.3 72.7002C97.9252 72.7002 96 74.6254 96 77.0002C96 79.375 97.9252 81.3002 100.3 81.3002Z" fill="#FF3333"/>
<path d="M184.201 113.9C188.84 113.9 192.601 110.139 192.601 105.5C192.601 100.861 188.84 97.1001 184.201 97.1001C179.562 97.1001 175.801 100.861 175.801 105.5C175.801 110.139 179.562 113.9 184.201 113.9Z" fill="#B9BDC3"/>
<path d="M183.4 112.6C188.039 112.6 191.8 108.839 191.8 104.2C191.8 99.5609 188.039 95.8 183.4 95.8C178.761 95.8 175 99.5609 175 104.2C175 108.839 178.761 112.6 183.4 112.6Z" fill="white"/>
<path d="M183.4 108.5C185.774 108.5 187.7 106.575 187.7 104.2C187.7 101.825 185.774 99.9001 183.4 99.9001C181.025 99.9001 179.1 101.825 179.1 104.2C179.1 106.575 181.025 108.5 183.4 108.5Z" fill="#FF3333"/>
<path d="M194.4 107.9C199.039 107.9 202.8 104.139 202.8 99.4999C202.8 94.8607 199.039 91.0999 194.4 91.0999C189.761 91.0999 186 94.8607 186 99.4999C186 104.139 189.761 107.9 194.4 107.9Z" fill="#B9BDC3"/>
<path d="M193.5 106.7C198.139 106.7 201.9 102.939 201.9 98.2999C201.9 93.6607 198.139 89.8999 193.5 89.8999C188.86 89.8999 185.1 93.6607 185.1 98.2999C185.1 102.939 188.86 106.7 193.5 106.7Z" fill="white"/>
<path d="M193.499 102.6C195.874 102.6 197.799 100.675 197.799 98.3C197.799 95.9252 195.874 94 193.499 94C191.124 94 189.199 95.9252 189.199 98.3C189.199 100.675 191.124 102.6 193.499 102.6Z" fill="#FF3333"/>
<path d="M145.301 109C147.601 110.5 149.301 108.8 149.601 107.9C149.801 107.4 149.701 106.8 149.901 106.3C150.201 105.6 150.901 105.2 151.601 105.3" stroke="#6AC86E" stroke-width="1.3403" stroke-miterlimit="10" stroke-linecap="round"/>
<path d="M151.801 105.4C152.301 105.5 152.801 105.6 153.201 105.7" stroke="#F9D232" stroke-width="0.5566" stroke-miterlimit="10" stroke-linecap="round"/>
<path d="M62.5996 109.5C64.8996 111 66.5996 109.3 66.8996 108.4C67.0996 107.9 66.9996 107.3 67.1996 106.8C67.4996 106.1 68.1996 105.7 68.8996 105.8" stroke="#6AC86E" stroke-width="1.3403" stroke-miterlimit="10" stroke-linecap="round"/>
<path d="M69.0996 105.8C69.5996 105.9 70.0996 106 70.4996 106.1" stroke="#F9D232" stroke-width="0.5566" stroke-miterlimit="10" stroke-linecap="round"/>
<path d="M128.699 106.006C128.599 104.306 127.199 103.006 125.499 103.106C124.399 103.206 123.499 103.806 122.999 104.606L113.799 105.006C113.199 104.106 112.199 103.606 110.999 103.706C109.699 103.806 108.699 104.406 108.199 105.706L111.199 105.506L111.299 108.206L108.299 108.406C108.899 109.606 109.999 110.206 111.299 110.106C112.499 110.006 113.599 109.306 114.099 108.206L123.099 107.806C123.699 108.706 124.699 109.206 125.799 109.106C127.499 109.206 128.699 107.706 128.699 106.006ZM126.999 106.006L126.399 107.206L124.999 107.306L124.199 106.206L124.799 105.006L126.199 104.906L126.999 106.006Z" fill="#74797E"/>
<path d="M108.2 105.605L108 104.605L109.1 104.505V105.605H108.2Z" fill="#74797E"/>
<path d="M108.199 107.305L108.299 108.405H109.899L108.199 107.305Z" fill="#74797E"/>
<path d="M128.5 104.905C128.4 103.205 127 101.905 125.3 102.005C124.2 102.105 123.3 102.705 122.8 103.505L113.6 103.905C113 103.005 112 102.505 110.8 102.605C109.5 102.705 108.5 103.305 108 104.605L111 104.405L111.1 107.105L108.1 107.305C108.7 108.505 109.8 109.105 111.1 109.005C112.3 108.905 113.4 108.205 113.9 107.105L122.9 106.705C123.5 107.605 124.5 108.105 125.6 108.005C127.3 108.105 128.6 106.605 128.5 104.905ZM126.9 105.005L126.3 106.205L124.9 106.305L124.1 105.205L124.7 104.005L126.1 103.905L126.9 105.005Z" fill="#B9BDC3"/>
<path d="M137.5 110.7C138.8 110.1 138.8 108.9 138.7 108.6C138.6 108.3 138.3 108.1 138.1 107.9C137.8 107.7 137.5 107.6 137.2 107.5C136.4 107.1 135.8 106.4 135.6 105.5" stroke="#FF4081" stroke-width="1.3403" stroke-miterlimit="10" stroke-linecap="round"/>
<path d="M135 104C135.2 104.5 135.3 104.9 135.5 105.4" stroke="#F9D232" stroke-width="0.5566" stroke-miterlimit="10" stroke-linecap="round"/>
<path d="M157.8 70.7999L138.7 83.8999L125.6 66.6999L146.7 52.3999L157.8 70.7999Z" fill="#C6FFC0"/>
<path d="M139.471 78.1814C140.474 77.4964 139.647 74.5375 137.623 71.5727C135.599 68.6078 133.145 66.7597 132.141 67.4447C131.138 68.1297 131.965 71.0886 133.989 74.0534C136.013 77.0183 138.467 78.8664 139.471 78.1814Z" fill="#FF3333"/>
<path d="M145.84 73.7761C146.843 73.0911 146.016 70.1323 143.992 67.1674C141.968 64.2026 139.514 62.3544 138.51 63.0394C137.507 63.7245 138.334 66.6833 140.358 69.6481C142.382 72.613 144.836 74.4612 145.84 73.7761Z" fill="#FF3333"/>
<path d="M152.266 69.4534C153.269 68.7683 152.442 65.8095 150.418 62.8447C148.394 59.8798 145.94 58.0316 144.936 58.7167C143.933 59.4017 144.76 62.3605 146.784 65.3254C148.808 68.2902 151.262 70.1384 152.266 69.4534Z" fill="#FF3333"/>
<path d="M146.7 52.3999L125.6 66.7999L127 60.8999C127.1 60.3999 127.4 59.9999 127.9 59.6999L139.2 51.9999C139.6 51.6999 140.2 51.5999 140.7 51.5999L146.7 52.3999Z" fill="#6AC86E"/>
<path d="M135.662 58.9697C137.897 57.444 139.33 55.6525 138.863 54.9683C138.396 54.2841 136.206 54.9663 133.971 56.492C131.736 58.0178 130.302 59.8093 130.77 60.4935C131.237 61.1777 133.427 60.4955 135.662 58.9697Z" fill="#226D45"/>
<path d="M135.099 57.9999C132.499 58.0999 131.899 55.9999 132.099 54.9999C132.199 54.4999 132.499 54.0999 132.599 53.5999C132.699 52.8999 132.299 52.1999 131.699 51.8999" stroke="#6AC86E" stroke-width="1.2833" stroke-miterlimit="10" stroke-linecap="round"/>
<path d="M135.2 57.5999C133.9 57.4999 133.5 56.3999 133.5 56.0999C133.5 55.7999 133.7 55.4999 133.9 55.2999C134.1 55.0999 134.3 54.8999 134.6 54.6999C135.2 54.0999 135.5 53.1999 135.5 52.3999" stroke="#FF4081" stroke-width="1.2833" stroke-miterlimit="10" stroke-linecap="round"/>
<path d="M131.4 51.9C131 51.8 130.5 51.6 130.1 51.5" stroke="#F9D232" stroke-width="0.533" stroke-miterlimit="10" stroke-linecap="round"/>
<path d="M135.4 50.7C135.4 51.2 135.4 51.6 135.4 52.1" stroke="#F9D232" stroke-width="0.533" stroke-miterlimit="10" stroke-linecap="round"/>
<path d="M185 152.3V129.2L206.5 128V153.5L185 152.3Z" fill="#C6FFC0"/>
<path d="M195.801 135.2C199.391 135.2 202.301 134.215 202.301 133C202.301 131.785 199.391 130.8 195.801 130.8C192.211 130.8 189.301 131.785 189.301 133C189.301 134.215 192.211 135.2 195.801 135.2Z" fill="#FF3333"/>
<path d="M195.801 143C199.391 143 202.301 142.015 202.301 140.8C202.301 139.585 199.391 138.6 195.801 138.6C192.211 138.6 189.301 139.585 189.301 140.8C189.301 142.015 192.211 143 195.801 143Z" fill="#FF3333"/>
<path d="M195.801 150.7C199.391 150.7 202.301 149.715 202.301 148.5C202.301 147.285 199.391 146.3 195.801 146.3C192.211 146.3 189.301 147.285 189.301 148.5C189.301 149.715 192.211 150.7 195.801 150.7Z" fill="#FF3333"/>
<path d="M206.5 153.5V128L210.6 132.5C210.9 132.9 211.1 133.4 211.1 133.9V147.6C211.1 148.1 210.9 148.6 210.6 149L206.5 153.5Z" fill="#6AC86E"/>
<path d="M208.801 145.7C209.629 145.7 210.301 143.506 210.301 140.8C210.301 138.094 209.629 135.9 208.801 135.9C207.972 135.9 207.301 138.094 207.301 140.8C207.301 143.506 207.972 145.7 208.801 145.7Z" fill="#226D45"/>
<path d="M208.4 140.8C209.8 138.6 211.9 139.3 212.5 140C212.8 140.4 213 140.9 213.4 141.2C213.9 141.7 214.7 141.7 215.3 141.4" stroke="#6AC86E" stroke-width="1.2833" stroke-miterlimit="10" stroke-linecap="round"/>
<path d="M208.701 141.1C209.501 140 210.701 140.4 210.901 140.5C211.201 140.7 211.301 141 211.401 141.3C211.501 141.6 211.501 141.9 211.601 142.2C211.801 143 212.301 143.8 213.001 144.2" stroke="#FF4081" stroke-width="1.2833" stroke-miterlimit="10" stroke-linecap="round"/>
<path d="M215.5 141.2C215.9 140.9 216.2 140.6 216.6 140.3" stroke="#F9D232" stroke-width="0.533" stroke-miterlimit="10" stroke-linecap="round"/>
<path d="M214.2 145.1C213.8 144.8 213.4 144.6 213 144.3" stroke="#F9D232" stroke-width="0.533" stroke-miterlimit="10" stroke-linecap="round"/>
<path d="M46.0996 166.7V143.6L67.5996 142.4V167.9L46.0996 166.7Z" fill="#C6FFC0"/>
<path d="M56.7988 149.6C60.3887 149.6 63.2988 148.615 63.2988 147.4C63.2988 146.185 60.3887 145.2 56.7988 145.2C53.209 145.2 50.2988 146.185 50.2988 147.4C50.2988 148.615 53.209 149.6 56.7988 149.6Z" fill="#FF3333"/>
<path d="M56.7988 157.4C60.3887 157.4 63.2988 156.415 63.2988 155.2C63.2988 153.985 60.3887 153 56.7988 153C53.209 153 50.2988 153.985 50.2988 155.2C50.2988 156.415 53.209 157.4 56.7988 157.4Z" fill="#FF3333"/>
<path d="M56.7988 165.1C60.3887 165.1 63.2988 164.115 63.2988 162.9C63.2988 161.685 60.3887 160.7 56.7988 160.7C53.209 160.7 50.2988 161.685 50.2988 162.9C50.2988 164.115 53.209 165.1 56.7988 165.1Z" fill="#FF3333"/>
<path d="M67.5996 167.9V142.4L71.6996 146.9C71.9996 147.3 72.1996 147.8 72.1996 148.3V162C72.1996 162.5 71.9996 163 71.6996 163.4L67.5996 167.9Z" fill="#6AC86E"/>
<path d="M69.9004 160.1C70.7288 160.1 71.4004 157.906 71.4004 155.2C71.4004 152.494 70.7288 150.3 69.9004 150.3C69.072 150.3 68.4004 152.494 68.4004 155.2C68.4004 157.906 69.072 160.1 69.9004 160.1Z" fill="#226D45"/>
<path d="M69.5 155.2C70.9 153 73 153.7 73.6 154.4C73.9 154.8 74.1 155.3 74.5 155.6C75 156.1 75.8 156.1 76.4 155.8" stroke="#6AC86E" stroke-width="1.2833" stroke-miterlimit="10" stroke-linecap="round"/>
<path d="M69.6992 155.5C70.4992 154.4 71.6992 154.8 71.8992 154.9C72.0992 155 72.2992 155.4 72.3992 155.7C72.4992 156 72.4992 156.3 72.5992 156.6C72.7992 157.4 73.2992 158.2 73.9992 158.6" stroke="#FF4081" stroke-width="1.2833" stroke-miterlimit="10" stroke-linecap="round"/>
<path d="M76.5996 155.6C76.9996 155.3 77.2996 155 77.6996 154.7" stroke="#F9D232" stroke-width="0.533" stroke-miterlimit="10" stroke-linecap="round"/>
<path d="M75.2996 159.5C74.8996 159.2 74.4996 159 74.0996 158.7" stroke="#F9D232" stroke-width="0.533" stroke-miterlimit="10" stroke-linecap="round"/>
<path d="M161.9 87.6999L143.7 102.1L129.4 85.8999L149.5 70.0999L161.9 87.6999Z" fill="#C6FFC0"/>
<path d="M144.145 96.3754C145.098 95.6218 144.065 92.7283 141.838 89.9128C139.612 87.0973 137.034 85.4259 136.081 86.1795C135.128 86.9332 136.161 89.8266 138.387 92.6421C140.614 95.4577 143.192 97.1291 144.145 96.3754Z" fill="#FF3333"/>
<path d="M150.149 91.6122C151.102 90.8586 150.069 87.9652 147.842 85.1496C145.615 82.3341 143.038 80.6627 142.085 81.4163C141.132 82.17 142.165 85.0634 144.391 87.879C146.618 90.6945 149.196 92.3659 150.149 91.6122Z" fill="#FF3333"/>
<path d="M156.233 86.7871C157.186 86.0334 156.153 83.14 153.926 80.3244C151.699 77.5089 149.122 75.8375 148.169 76.5912C147.216 77.3448 148.249 80.2382 150.475 83.0538C152.702 85.8693 155.28 87.5407 156.233 86.7871Z" fill="#FF3333"/>
<path d="M149.5 70.2L129.5 86L130.5 80C130.6 79.5 130.9 79 131.3 78.7L142 70.2C142.4 69.9 142.9 69.7 143.5 69.7L149.5 70.2Z" fill="#6AC86E"/>
<path d="M139.04 77.4404C141.162 75.7617 142.466 73.8742 141.953 73.2245C141.439 72.5747 139.301 73.4088 137.179 75.0875C135.057 76.7661 133.753 78.6537 134.266 79.3034C134.78 79.9531 136.917 79.119 139.04 77.4404Z" fill="#226D45"/>
<path d="M179.201 107.5H156.001L154.801 86H180.401L179.201 107.5Z" fill="#C6FFC0"/>
<path d="M159.901 103.2C161.116 103.2 162.101 100.29 162.101 96.7C162.101 93.1101 161.116 90.2 159.901 90.2C158.686 90.2 157.701 93.1101 157.701 96.7C157.701 100.29 158.686 103.2 159.901 103.2Z" fill="#FF3333"/>
<path d="M167.6 103.2C168.815 103.2 169.8 100.29 169.8 96.7C169.8 93.1101 168.815 90.2 167.6 90.2C166.385 90.2 165.4 93.1101 165.4 96.7C165.4 100.29 166.385 103.2 167.6 103.2Z" fill="#FF3333"/>
<path d="M175.302 103.2C176.517 103.2 177.502 100.29 177.502 96.7C177.502 93.1101 176.517 90.2 175.302 90.2C174.087 90.2 173.102 93.1101 173.102 96.7C173.102 100.29 174.087 103.2 175.302 103.2Z" fill="#FF3333"/>
<path d="M180.4 85.9999H154.9L159.4 81.8999C159.8 81.5999 160.3 81.3999 160.8 81.3999H174.5C175 81.3999 175.5 81.5999 175.9 81.8999L180.4 85.9999Z" fill="#6AC86E"/>
<path d="M167.601 85.2C170.307 85.2 172.501 84.5284 172.501 83.7C172.501 82.8715 170.307 82.2 167.601 82.2C164.895 82.2 162.701 82.8715 162.701 83.7C162.701 84.5284 164.895 85.2 167.601 85.2Z" fill="#226D45"/>
<path d="M167.601 84.0999C165.401 82.6999 166.101 80.6 166.801 80C167.201 79.7 167.701 79.4999 168.001 79.0999C168.501 78.5999 168.501 77.8 168.201 77.2" stroke="#6AC86E" stroke-width="1.2833" stroke-miterlimit="10" stroke-linecap="round"/>
<path d="M168.001 83.8C166.901 83 167.301 81.8 167.401 81.6C167.501 81.4 167.901 81.2 168.201 81.1C168.501 81 168.801 81 169.101 80.9C169.901 80.7 170.701 80.2 171.101 79.5" stroke="#FF4081" stroke-width="1.2833" stroke-miterlimit="10" stroke-linecap="round"/>
<path d="M168.101 76.9999C167.801 76.5999 167.501 76.2999 167.201 75.8999" stroke="#F9D232" stroke-width="0.533" stroke-miterlimit="10" stroke-linecap="round"/>
<path d="M172.001 78.2998C171.701 78.6998 171.501 79.0998 171.201 79.4998" stroke="#F9D232" stroke-width="0.533" stroke-miterlimit="10" stroke-linecap="round"/>
<path d="M56.7004 155.4H33.6004L32.4004 133.9H57.9004L56.7004 155.4Z" fill="#C6FFC0"/>
<path d="M37.4012 151.2C38.6162 151.2 39.6012 148.29 39.6012 144.7C39.6012 141.11 38.6162 138.2 37.4012 138.2C36.1861 138.2 35.2012 141.11 35.2012 144.7C35.2012 148.29 36.1861 151.2 37.4012 151.2Z" fill="#FF3333"/>
<path d="M45.1004 151.2C46.3154 151.2 47.3004 148.29 47.3004 144.7C47.3004 141.11 46.3154 138.2 45.1004 138.2C43.8854 138.2 42.9004 141.11 42.9004 144.7C42.9004 148.29 43.8854 151.2 45.1004 151.2Z" fill="#FF3333"/>
<path d="M52.8016 151.2C54.0166 151.2 55.0016 148.29 55.0016 144.7C55.0016 141.11 54.0166 138.2 52.8016 138.2C51.5865 138.2 50.6016 141.11 50.6016 144.7C50.6016 148.29 51.5865 151.2 52.8016 151.2Z" fill="#FF3333"/>
<path d="M57.9004 134H32.4004L36.9004 129.9C37.3004 129.6 37.8004 129.4 38.3004 129.4H52.0004C52.5004 129.4 53.0004 129.6 53.4004 129.9L57.9004 134Z" fill="#6AC86E"/>
<path d="M45.1012 133.2C47.8074 133.2 50.0012 132.528 50.0012 131.7C50.0012 130.872 47.8074 130.2 45.1012 130.2C42.395 130.2 40.2012 130.872 40.2012 131.7C40.2012 132.528 42.395 133.2 45.1012 133.2Z" fill="#226D45"/>
<path d="M45.2007 132.1C43.0007 130.7 43.7007 128.6 44.4007 128C44.8007 127.7 45.3007 127.5 45.6007 127.1C46.1007 126.6 46.1007 125.8 45.8007 125.2" stroke="#6AC86E" stroke-width="1.2833" stroke-miterlimit="10" stroke-linecap="round"/>
<path d="M45.5013 131.8C44.4013 131 44.8013 129.8 44.9013 129.6C45.1013 129.3 45.4013 129.2 45.7013 129.1C46.0013 129 46.3013 129 46.6013 128.9C47.4013 128.7 48.2013 128.2 48.6013 127.5" stroke="#FF4081" stroke-width="1.2833" stroke-miterlimit="10" stroke-linecap="round"/>
<path d="M45.6012 124.9C45.3012 124.5 45.0012 124.2 44.7012 123.8" stroke="#F9D232" stroke-width="0.533" stroke-miterlimit="10" stroke-linecap="round"/>
<path d="M49.5012 126.2C49.2012 126.6 49.0012 127 48.7012 127.4" stroke="#F9D232" stroke-width="0.533" stroke-miterlimit="10" stroke-linecap="round"/>
<path d="M96.4 110.3H73.2L72 88.8H97.6L96.4 110.3Z" fill="#C6FFC0"/>
<path d="M77.1004 106C78.3154 106 79.3004 103.09 79.3004 99.5C79.3004 95.9101 78.3154 93 77.1004 93C75.8854 93 74.9004 95.9101 74.9004 99.5C74.9004 103.09 75.8854 106 77.1004 106Z" fill="#FF3333"/>
<path d="M84.7996 106C86.0146 106 86.9996 103.09 86.9996 99.5C86.9996 95.9101 86.0146 93 84.7996 93C83.5846 93 82.5996 95.9101 82.5996 99.5C82.5996 103.09 83.5846 106 84.7996 106Z" fill="#FF3333"/>
<path d="M92.5008 106C93.7158 106 94.7008 103.09 94.7008 99.5C94.7008 95.9101 93.7158 93 92.5008 93C91.2858 93 90.3008 95.9101 90.3008 99.5C90.3008 103.09 91.2858 106 92.5008 106Z" fill="#FF3333"/>
<path d="M97.6 88.7999H72L76.5 84.7C76.9 84.4 77.4 84.2 77.9 84.2H91.6C92.1 84.2 92.6 84.4 93 84.7L97.6 88.7999Z" fill="#6AC86E"/>
<path d="M84.8004 88C87.5066 88 89.7004 87.3284 89.7004 86.5C89.7004 85.6716 87.5066 85 84.8004 85C82.0942 85 79.9004 85.6716 79.9004 86.5C79.9004 87.3284 82.0942 88 84.8004 88Z" fill="#226D45"/>
<path d="M84.8003 86.9C82.6003 85.5 83.3003 83.4 84.0003 82.8C84.4003 82.5 84.9003 82.3 85.2003 81.9C85.7003 81.4 85.7003 80.6 85.4003 80" stroke="#6AC86E" stroke-width="1.2833" stroke-miterlimit="10" stroke-linecap="round"/>
<path d="M85.1009 86.6999C84.0009 85.8999 84.4009 84.6999 84.5009 84.4999C84.6009 84.2999 85.0009 84.0999 85.3009 83.9999C85.6009 83.8999 85.9009 83.8999 86.2009 83.7999C87.0009 83.5999 87.8009 83.0999 88.2009 82.3999" stroke="#FF4081" stroke-width="1.2833" stroke-miterlimit="10" stroke-linecap="round"/>
<path d="M85.3004 79.7999C85.0004 79.3999 84.7004 79.1 84.4004 78.7" stroke="#F9D232" stroke-width="0.533" stroke-miterlimit="10" stroke-linecap="round"/>
<path d="M89.2004 81.0999C88.9004 81.4999 88.7004 81.8999 88.4004 82.2999" stroke="#F9D232" stroke-width="0.533" stroke-miterlimit="10" stroke-linecap="round"/>
<path d="M85 61.6L73.1 81.5L54 71.5L67.1 49.5L85 61.6Z" fill="#C6FFC0"/>
<path d="M71.3646 75.9928C71.9872 74.9494 69.9929 72.6125 66.9103 70.773C63.8277 68.9336 60.8241 68.2882 60.2015 69.3316C59.5789 70.3749 61.5732 72.7119 64.6558 74.5513C67.7384 76.3907 70.742 77.0361 71.3646 75.9928Z" fill="#FF3333"/>
<path d="M75.3685 69.3409C75.9911 68.2976 73.9968 65.9606 70.9142 64.1212C67.8316 62.2817 64.828 61.6364 64.2054 62.6797C63.5828 63.7231 65.5771 66.06 68.6597 67.8994C71.7423 69.7389 74.7459 70.3842 75.3685 69.3409Z" fill="#FF3333"/>
<path d="M79.3724 62.6893C79.995 61.646 78.0007 59.309 74.9181 57.4696C71.8355 55.6301 68.8319 54.9848 68.2093 56.0281C67.5867 57.0714 69.581 59.4084 72.6636 61.2478C75.7462 63.0873 78.7498 63.7326 79.3724 62.6893Z" fill="#FF3333"/>
<path d="M67.1988 49.6001L54.0988 71.5001L52.8988 65.5001C52.7988 65.0001 52.8988 64.5001 53.1988 64.0001L60.1988 52.2001C60.4988 51.7001 60.8988 51.4001 61.3988 51.3001L67.1988 49.6001Z" fill="#6AC86E"/>
<path d="M59.8603 60.1089C61.247 57.7851 61.7944 55.5571 61.083 55.1326C60.3716 54.7082 58.6709 56.2479 57.2842 58.5717C55.8975 60.8955 55.3501 63.1234 56.0615 63.5479C56.7729 63.9724 58.4736 62.4327 59.8603 60.1089Z" fill="#226D45"/>
<path d="M58.9984 59.5C56.6984 60.7 55.1984 59 54.9984 58.1C54.8984 57.6 54.9984 57.1 54.8984 56.6C54.6984 56 54.0984 55.5 53.3984 55.5" stroke="#6AC86E" stroke-width="1.2833" stroke-miterlimit="10" stroke-linecap="round"/>
<path d="M58.9 59.1C57.6 59.6 56.8 58.7 56.7 58.4C56.6 58.1 56.6 57.8 56.7 57.5C56.8 57.2 56.9 56.9 57 56.7C57.3 55.9 57.2 55 56.8 54.2" stroke="#FF4081" stroke-width="1.2833" stroke-miterlimit="10" stroke-linecap="round"/>
<path d="M53.0992 55.5C52.5992 55.6 52.1992 55.6 51.6992 55.7" stroke="#F9D232" stroke-width="0.533" stroke-miterlimit="10" stroke-linecap="round"/>
<path d="M56.1992 52.8C56.3992 53.2 56.5992 53.6 56.7992 54.1" stroke="#F9D232" stroke-width="0.533" stroke-miterlimit="10" stroke-linecap="round"/>
<path d="M95.9996 66.2998L72.9996 69.1998L69.0996 48.0998L94.3996 44.7998L95.9996 66.2998Z" fill="#C6FFC0"/>
<path d="M76.329 64.546C77.5341 64.391 78.1397 61.379 77.6816 57.8186C77.2235 54.2582 75.8753 51.4976 74.6702 51.6526C73.4652 51.8077 72.8596 54.8196 73.3177 58.38C73.7757 61.9405 75.124 64.7011 76.329 64.546Z" fill="#FF3333"/>
<path d="M83.9267 63.5538C85.1318 63.3988 85.7373 60.3868 85.2793 56.8264C84.8212 53.266 83.473 50.5054 82.2679 50.6604C81.0628 50.8155 80.4573 53.8274 80.9153 57.3879C81.3734 60.9483 82.7216 63.7089 83.9267 63.5538Z" fill="#FF3333"/>
<path d="M91.6259 62.5487C92.831 62.3937 93.4365 59.3817 92.9785 55.8213C92.5204 52.2609 91.1722 49.5003 89.9671 49.6553C88.7621 49.8104 88.1565 52.8223 88.6146 56.3827C89.0726 59.9431 90.4209 62.7038 91.6259 62.5487Z" fill="#FF3333"/>
<path d="M94.3996 44.7999L69.0996 48.0999L73.0996 43.4999C73.3996 43.0999 73.8996 42.8999 74.3996 42.7999L87.9996 40.9999C88.4996 40.8999 89.0996 41.0999 89.4996 41.3999L94.3996 44.7999Z" fill="#6AC86E"/>
<path d="M81.6918 45.6868C84.3758 45.3415 86.466 44.3955 86.3603 43.5739C86.2546 42.7523 83.993 42.3661 81.309 42.7114C78.625 43.0567 76.5349 44.0027 76.6406 44.8244C76.7463 45.646 79.0078 46.0321 81.6918 45.6868Z" fill="#226D45"/>
<path d="M50.9992 132.7H27.7992L26.6992 111.2H52.1992L50.9992 132.7Z" fill="#C6FFC0"/>
<path d="M31.7 128.5C32.915 128.5 33.9 125.59 33.9 122C33.9 118.41 32.915 115.5 31.7 115.5C30.485 115.5 29.5 118.41 29.5 122C29.5 125.59 30.485 128.5 31.7 128.5Z" fill="#FF3333"/>
<path d="M39.3992 128.5C40.6142 128.5 41.5992 125.59 41.5992 122C41.5992 118.41 40.6142 115.5 39.3992 115.5C38.1842 115.5 37.1992 118.41 37.1992 122C37.1992 125.59 38.1842 128.5 39.3992 128.5Z" fill="#FF3333"/>
<path d="M47.1004 128.5C48.3154 128.5 49.3004 125.59 49.3004 122C49.3004 118.41 48.3154 115.5 47.1004 115.5C45.8854 115.5 44.9004 118.41 44.9004 122C44.9004 125.59 45.8854 128.5 47.1004 128.5Z" fill="#FF3333"/>
<path d="M52.1992 111.3H26.6992L31.1992 107.2C31.5992 106.9 32.0992 106.7 32.5992 106.7H46.2992C46.7992 106.7 47.2992 106.9 47.6992 107.2L52.1992 111.3Z" fill="#6AC86E"/>
<path d="M39.4 110.5C42.1062 110.5 44.3 109.828 44.3 109C44.3 108.172 42.1062 107.5 39.4 107.5C36.6938 107.5 34.5 108.172 34.5 109C34.5 109.828 36.6938 110.5 39.4 110.5Z" fill="#226D45"/>
<path d="M39.4995 109.4C37.2995 108 37.9995 105.9 38.6995 105.3C39.0995 105 39.5995 104.8 39.8995 104.4C40.3995 103.9 40.3995 103.1 40.0995 102.5" stroke="#6AC86E" stroke-width="1.2833" stroke-miterlimit="10" stroke-linecap="round"/>
<path d="M39.8001 109.1C38.7001 108.3 39.1001 107.1 39.2001 106.9C39.4001 106.6 39.7001 106.5 40.0001 106.4C40.3001 106.3 40.6001 106.3 40.9001 106.2C41.7001 106 42.5001 105.5 42.9001 104.8" stroke="#FF4081" stroke-width="1.2833" stroke-miterlimit="10" stroke-linecap="round"/>
<path d="M39.9 102.2C39.6 101.8 39.3 101.5 39 101.1" stroke="#F9D232" stroke-width="0.533" stroke-miterlimit="10" stroke-linecap="round"/>
<path d="M43.8 103.5C43.5 103.9 43.3 104.3 43 104.7" stroke="#F9D232" stroke-width="0.533" stroke-miterlimit="10" stroke-linecap="round"/>
<path d="M37.3 158.5H14.2L13 137H38.5L37.3 158.5Z" fill="#C6FFC0"/>
<path d="M18.0008 154.3C19.2158 154.3 20.2008 151.39 20.2008 147.8C20.2008 144.21 19.2158 141.3 18.0008 141.3C16.7858 141.3 15.8008 144.21 15.8008 147.8C15.8008 151.39 16.7858 154.3 18.0008 154.3Z" fill="#FF3333"/>
<path d="M25.8016 154.3C27.0166 154.3 28.0016 151.39 28.0016 147.8C28.0016 144.21 27.0166 141.3 25.8016 141.3C24.5865 141.3 23.6016 144.21 23.6016 147.8C23.6016 151.39 24.5865 154.3 25.8016 154.3Z" fill="#FF3333"/>
<path d="M33.5008 154.3C34.7158 154.3 35.7008 151.39 35.7008 147.8C35.7008 144.21 34.7158 141.3 33.5008 141.3C32.2858 141.3 31.3008 144.21 31.3008 147.8C31.3008 151.39 32.2858 154.3 33.5008 154.3Z" fill="#FF3333"/>
<path d="M38.5 137H13L17.5 133C17.9 132.7 18.4 132.5 18.9 132.5H32.6C33.1 132.5 33.6 132.7 34 133L38.5 137Z" fill="#6AC86E"/>
<path d="M25.8004 136.2C28.5066 136.2 30.7004 135.528 30.7004 134.7C30.7004 133.872 28.5066 133.2 25.8004 133.2C23.0942 133.2 20.9004 133.872 20.9004 134.7C20.9004 135.528 23.0942 136.2 25.8004 136.2Z" fill="#226D45"/>
<path d="M25.8003 135.1C23.6003 133.7 24.3003 131.6 25.0003 131C25.4003 130.7 25.9003 130.5 26.2003 130.1C26.7003 129.6 26.7003 128.8 26.4003 128.2" stroke="#6AC86E" stroke-width="1.2833" stroke-miterlimit="10" stroke-linecap="round"/>
<path d="M26.1009 134.9C25.0009 134.1 25.4009 132.9 25.5009 132.7C25.7009 132.4 26.0009 132.3 26.3009 132.2C26.6009 132.1 26.9009 132.1 27.2009 132C28.0009 131.8 28.8009 131.3 29.2009 130.6" stroke="#FF4081" stroke-width="1.2833" stroke-miterlimit="10" stroke-linecap="round"/>
<path d="M26.2008 128C25.9008 127.6 25.6008 127.3 25.3008 126.9" stroke="#F9D232" stroke-width="0.533" stroke-miterlimit="10" stroke-linecap="round"/>
<path d="M30.1008 129.3C29.8008 129.7 29.6008 130.1 29.3008 130.5" stroke="#F9D232" stroke-width="0.533" stroke-miterlimit="10" stroke-linecap="round"/>
<path d="M109.101 77.3L102.801 64.8L114.101 58.3L121.101 72.1L109.101 77.3Z" fill="#6AC86E"/>
<path d="M108.101 75.2999L101.801 62.8L113.101 56.2L120.001 70L108.101 75.2999Z" fill="#C6FFC0"/>
<path d="M109.226 63.1524C111.148 62.1805 112.424 60.8333 112.075 60.1433C111.726 59.4533 109.885 59.6818 107.963 60.6536C106.041 61.6255 104.765 62.9727 105.114 63.6627C105.463 64.3527 107.304 64.1242 109.226 63.1524Z" fill="#FF3333"/>
<path d="M111.339 67.3531C113.262 66.3812 114.537 65.034 114.188 64.344C113.839 63.654 111.998 63.8825 110.076 64.8543C108.154 65.8262 106.879 67.1734 107.227 67.8634C107.576 68.5534 109.417 68.3249 111.339 67.3531Z" fill="#FF3333"/>
<path d="M113.455 71.5537C115.377 70.5819 116.652 69.2347 116.303 68.5447C115.954 67.8547 114.113 68.0832 112.191 69.055C110.269 70.0269 108.994 71.3741 109.343 72.0641C109.691 72.7541 111.533 72.5256 113.455 71.5537Z" fill="#FF3333"/>
<path d="M41.2008 172C45.84 172 49.6008 168.239 49.6008 163.6C49.6008 158.961 45.84 155.2 41.2008 155.2C36.5616 155.2 32.8008 158.961 32.8008 163.6C32.8008 168.239 36.5616 172 41.2008 172Z" fill="#B9BDC3"/>
<path d="M40.4 170.7C45.0392 170.7 48.8 166.939 48.8 162.3C48.8 157.661 45.0392 153.9 40.4 153.9C35.7608 153.9 32 157.661 32 162.3C32 166.939 35.7608 170.7 40.4 170.7Z" fill="white"/>
<path d="M40.3996 166.6C42.7744 166.6 44.6996 164.675 44.6996 162.3C44.6996 159.925 42.7744 158 40.3996 158C38.0248 158 36.0996 159.925 36.0996 162.3C36.0996 164.675 38.0248 166.6 40.3996 166.6Z" fill="#FF3333"/>
</g>
<defs>
<clipPath id="clip0">
<rect width="214.8" height="130.9" fill="white" transform="translate(13 41)"/>
</clipPath>
</defs>
</svg>
