<svg id="Layer_1" data-name="Layer 1" xmlns="http://www.w3.org/2000/svg" viewBox="0 0 320.06 241.02"><defs><style>.cls-26,.cls-33,.cls-38{fill:none}.cls-2{opacity:.2}.cls-2,.cls-5{isolation:isolate}.cls-3{fill:#e3e3e2}.cls-4{fill:#b7b7b7}.cls-5,.cls-9{fill:#fff}.cls-5{opacity:.19}.cls-6{fill:#d5b06e}.cls-7{fill:#ba9a60}.cls-8{fill:#b0b0b0}.cls-10{fill:#59595c}.cls-11{fill:#b56d3d}.cls-13{fill:#e0e0e0}.cls-14{fill:#a8844f}.cls-15{fill:#848484}.cls-18{fill:#8f1c00}.cls-19{fill:#81d4fa}.cls-20{fill:#165075}.cls-21{fill:#a66d40}.cls-22{fill:#ff8c33}.cls-23{fill:#c62828}.cls-25{fill:#9b643d}.cls-26{stroke:#f47637}.cls-26,.cls-33,.cls-38{stroke-linecap:round;stroke-width:6.67px;stroke-miterlimit:10}.cls-27{fill:#332e2e}.cls-28{fill:#f9ce1d}.cls-30{fill:#f47637}.cls-31{fill:#a04343}.cls-33{stroke:#8cb0f9}.cls-34{fill:#fadcbc}.cls-35{fill:#a59e9d}.cls-36{fill:#e53625}.cls-37{fill:#39f}.cls-38{stroke:#9e3494}.cls-40{fill:#9e3494}.cls-41{fill:#774d2e}.cls-42{fill:#8cb0f9}</style><clipPath id="clip-path" transform="translate(.04)"><path d="M88.5 117.8c-14-7.4-32.3-4.1-44.2 6.3s-17.7 24-17 39.8c.3 6.4 5.2 19.3 13.1 17.9 9.6-1.8 9 9.9 18.8 10.8 4.8.4 9.7.6 14.2-1 7.4-2.6 12.4-9.6 14.7-17.1s2.1-15.4 1.9-23.2" fill="none"/></clipPath></defs><ellipse class="cls-2" cx="216.53" cy="237.63" rx="3.3" ry="35.9" transform="rotate(-88.78 216.5524 237.6056)"/><ellipse class="cls-2" cx="154.26" cy="237.57" rx="3.3" ry="35.9" transform="rotate(-88.78 154.2819 237.5509)"/><path class="cls-2" d="M146.3 234.7c0 1.6-16.1 2.6-36 2.2s-35.9-2-35.8-3.6 16.2-2.6 36-2.2 35.8 2 35.8 3.6z" transform="translate(.04)"/><path class="cls-3" d="M244.2 56.3c5 2.5 9.8 5.1 14.2 7.8-5.4 12.9-17 27.8-34.9 40l-13.1-2.6C229.8 87.2 241 70 244.2 56.3z" transform="translate(.04)"/><path class="cls-4" d="M247.7 57.6c4 2.1 7.8 4.2 11.5 6.4-8.9 13.1-24.2 28.1-45.9 40.5-.1-.8-.2-1.7-.3-2.5 19.3-14 30.9-30.9 34.7-44.4z" transform="translate(.04)"/><path class="cls-3" d="M252.6 60.1c2.8 2.2 5.4 4.5 7.8 6.8-5.7 12.5-17 26.5-33.9 38.1a6.82 6.82 0 0 1-4.6 1.2l-8.5-1.7c20.7-13.6 33.8-30.4 39.2-44.4z" transform="translate(.04)"/><path class="cls-5" d="M238.3 59a208.67 208.67 0 0 1 22.1 13.7l-.8 1.3A188.08 188.08 0 0 0 238 60.2z" transform="translate(.04)"/><path class="cls-6" d="M229.1 147a10.39 10.39 0 0 1-10.4 10.4l.4.4a10.39 10.39 0 0 1-10.4-10.4v-89a10.4 10.4 0 1 1 20.8.1z" transform="translate(.04)"/><path class="cls-7" d="M226 50.6v103.8a10.37 10.37 0 0 0 3.1-7.4l.4-88.6a10.37 10.37 0 0 0-3.5-7.8z" transform="translate(.04)"/><path class="cls-8" d="M217.3 47.4a1.9 1.9 0 0 1-1.9-1.9V34.2a2 2 0 0 0-1.9-1.9h-11.3a5.59 5.59 0 0 1-5.6-5.6v-5a1.9 1.9 0 0 0-1.9-1.9h-7.5a1.9 1.9 0 0 1-1.9-1.9 1.84 1.84 0 0 1 1.9-1.9h7.5a5.68 5.68 0 0 1 5.7 5.6v5a1.9 1.9 0 0 0 1.9 1.9h11.3a5.61 5.61 0 0 1 5.6 5.7v11.3a1.9 1.9 0 0 1-1.9 1.9z" transform="translate(.04)"/><path class="cls-8" d="M225.2 39.4h-6.7a1.9 1.9 0 0 1 0-3.8h6.7a1.9 1.9 0 0 0 1.9-1.9v-5.9a1.9 1.9 0 0 0-1.9-1.9h-8.8a5.59 5.59 0 0 1-5.6-5.6V7a1.9 1.9 0 0 1 3.8 0v13.4a1.9 1.9 0 0 0 1.9 1.9h8.8a5.59 5.59 0 0 1 5.6 5.6v5.9a5.74 5.74 0 0 1-5.7 5.6z" transform="translate(.04)"/><path class="cls-8" d="M219.3 18.1h-5.9a1.9 1.9 0 0 1-1.9-1.9 1.84 1.84 0 0 1 1.9-1.9h5.9a1.9 1.9 0 0 0 1.9-1.9V5.3a1.9 1.9 0 0 1 3.8 0v7.1a5.83 5.83 0 0 1-5.7 5.7zm-26.1 1.1a1.9 1.9 0 0 1-1.9-1.9V7.5a1.9 1.9 0 0 1 3.8 0v9.7a2 2 0 0 1-1.9 2zm18.9-6.9h-4.7a5.61 5.61 0 0 1-5.6-5.7V1.9a1.9 1.9 0 0 1 3.8 0v4.7a2 2 0 0 0 1.9 1.9h4.7a1.9 1.9 0 0 1 1.9 1.9 2 2 0 0 1-2 1.9z" transform="translate(.04)"/><path class="cls-6" d="M208.6 55.6c0-12.8 12.2-14.1 20.4-9.4 5.4 3.1 11.1 6.1 16.9 10.5 7.3 5.5 2.8 10.6-2.2 10.6 0 0-18.1-.1-22.4-.1s-12.7-2.8-12.7-11.6" transform="translate(.04)"/><path class="cls-9" d="M233.1 55.6a3.3 3.3 0 1 1-3.3-3.3 3.33 3.33 0 0 1 3.3 3.3" transform="translate(.04)"/><path class="cls-10" d="M230.5 54.3a1.61 1.61 0 1 1-2.2.6 1.55 1.55 0 0 1 2.2-.6" transform="translate(.04)"/><path class="cls-11" d="M258.1 61.8a4.3 4.3 0 1 1-4.3-4.3 4.21 4.21 0 0 1 4.3 4.3" transform="translate(.04)"/><path d="M229.9 96.9c-10.6-15-8.3-26.3-.1-29.3z" transform="translate(.04)" style="isolation:isolate" fill="#fdd19b" opacity=".19"/><path class="cls-13" d="M204 169.8a5.75 5.75 0 0 1-1.6 7.9c-12 7.9-17.8 1.8-19.5-.8l13.2-8.7a5.58 5.58 0 0 1 7.9 1.6z" transform="translate(.04)"/><path class="cls-14" d="M219.6 239.9a3.59 3.59 0 0 1-3.6-3.6v-.6a129 129 0 0 1 5.5-20c5.8-17.6 11.3-34.2-2-52.3a3.65 3.65 0 1 1 5.9-4.3c15.5 21.2 8.9 41.2 3 58.9-2.2 6.6-4.2 12.8-5.2 18.9a3.65 3.65 0 0 1-3.6 3zm22.7-126c-5.3 0-12.1-1.8-20.9-7.1a3.64 3.64 0 0 1 3.8-6.2c11.1 6.8 20 7.9 24.9 3.2 5.8-5.6 5.7-18.9-.2-29.8a3.6 3.6 0 1 1 6.3-3.5v.1c7.7 14 7.2 30.5-1.1 38.5a18 18 0 0 1-12.8 4.8z" transform="translate(.04)"/><path class="cls-6" d="M218.1 95h1a18.31 18.31 0 0 1 18.3 18.3v48.9a18.31 18.31 0 0 1-18.3 18.3h-1a18.31 18.31 0 0 1-18.3-18.3v-48.9A18.31 18.31 0 0 1 218.1 95z" transform="translate(.04)"/><path class="cls-7" d="M226.4 96c-1.9 3.1-1.6 10.3-1.6 17.2v48.9c0 6.9 1.3 12.9 3.2 16a18.31 18.31 0 0 0 9.5-16v-48.8c-.1-8-5.4-14.1-11.1-17.3z" transform="translate(.04)"/><path class="cls-3" d="M232.4 138c-5.8.8-11.6 1.7-17.4 2.6 4.1-13.1 6.2-38.6-11.9-46.3 2.2-3.7 2.4-7.3 4.6-10.4 21.8 5.7 28.3 39.9 24.7 54.1z" transform="translate(.04)"/><path class="cls-4" d="M225.8 140.1l-9.6 1.4c7.5-15 7.8-45.8-12.1-53.5 1.1-.3.8-.9 2-1.2 21.1 6.8 24.3 39.3 19.7 53.3z" transform="translate(.04)"/><path class="cls-3" d="M221.9 140.6l-9.6 1.5c5.1-12.8 9.5-38.1-7.3-46.5-1.4-.7-2.3-1.7-2.1-2.4q.6-2.7 1.2-5.1c21.5 6.8 23.1 38.1 17.8 52.5z" transform="translate(.04)"/><path class="cls-5" d="M234.1 129.1c-6.4.8-12.9 1.7-19.3 2.6.1-.4.1-.9.2-1.4 6.4-.9 12.8-1.7 19.2-2.5 0 .5-.1.9-.1 1.3z" transform="translate(.04)"/><path class="cls-6" d="M200.8 137a10.63 10.63 0 0 1-7.6-2.7c-6.2-5.8-3.3-17.8 8.8-36.9a3.62 3.62 0 1 1 6.1 3.9c-14.6 23-10.1 27.5-10 27.7 2.2 2 11.6.1 23.7-8.9a3.65 3.65 0 0 1 4.3 5.9c-8.1 5.9-17.8 11-25.3 11zm10.6 101.5h-.3a3.68 3.68 0 0 1-3.4-3.9l4.5-62.6a3.61 3.61 0 0 1 7.2.4v.1l-4.6 62.6a3.26 3.26 0 0 1-3.4 3.4z" transform="translate(.04)"/><path class="cls-15" d="M55.7 110.4h20.6V149H55.7z" transform="translate(.04)"/><path class="cls-15" d="M62.7 110.4l.4 40.3h11.2l-5.6-40.3z" transform="translate(.04)"/><path class="cls-15" d="M66.4 110.4l1.3 40.3h11.2l-1.4-40.3z" transform="translate(.04)"/><path class="cls-5" d="M55.7 140.9h23.2v1.7H55.7z" transform="translate(.04)"/><path class="cls-6" d="M33.9 149.9a9.56 9.56 0 0 1-9.5-9.5c0-18.6 19.3-34.2 51.6-41.6a9.5 9.5 0 1 1 4.3 18.5c-24.3 5.6-36.9 15.9-36.9 23.1a9.5 9.5 0 0 1-9.5 9.5z" transform="translate(.04)"/><path class="cls-13" d="M26.2 179.3a5.75 5.75 0 0 1-1.6 7.9c-12 7.9-17.8 1.8-19.5-.8l13.2-8.7a5.75 5.75 0 0 1 7.9 1.6z" transform="translate(.04)"/><ellipse class="cls-2" cx="35.85" cy="232.78" rx="3.3" ry="35.9" transform="rotate(-88.78 35.8725 232.7615)"/><path class="cls-14" d="M41.8 233.3a3.74 3.74 0 0 1-3.7-3.6 3.58 3.58 0 0 1 .9-2.4c18.2-21.6 19-36.7 3-54a3.61 3.61 0 1 1 5.3-4.9c23.7 25.5 11 47.4-2.7 63.7a4 4 0 0 1-2.8 1.2zm43.9-67.8c-19 0-22.1-12.2-26.1-27.9-.5-2.1-1.1-4.3-1.7-6.6a3.58 3.58 0 0 1 2.8-4.3 3.68 3.68 0 0 1 4.2 2.4c.6 2.3 1.2 4.6 1.7 6.7 4.7 18.6 6.6 26.3 32.4 20.8a3.65 3.65 0 0 1 4.3 2.9 3.54 3.54 0 0 1-2.7 4.2 74.91 74.91 0 0 1-14.9 1.8z" transform="translate(.04)"/><path class="cls-6" d="M36.2 182.4a17.37 17.37 0 0 1-14.9-8.4 37.71 37.71 0 0 1-3.6-32.2c4-11.6 13.5-21 25.9-25.6A17.5 17.5 0 1 1 55.8 149c-2.6 1-4.5 2.6-5.1 4.2a2.72 2.72 0 0 0 .4 2.6 17.51 17.51 0 0 1-5.8 24 17.18 17.18 0 0 1-9.1 2.6z" transform="translate(.04)"/><path class="cls-6" d="M22.1 233.3a3.74 3.74 0 0 1-3.7-3.6 3.58 3.58 0 0 1 .9-2.4c18.2-21.6 19-36.7 3-54a3.61 3.61 0 1 1 5.3-4.9c23.7 25.5 11 47.4-2.7 63.7a3.83 3.83 0 0 1-2.8 1.2z" transform="translate(.04)"/><g clip-path="url(#clip-path)"><path class="cls-7" d="M33.9 149.9a9.56 9.56 0 0 1-9.5-9.5c0-18.6 19.3-34.2 51.6-41.6a9.48 9.48 0 1 1 4.6 18.4c-.1 0-.2.1-.4.1-24.3 5.6-36.9 15.9-36.9 23.1a9.35 9.35 0 0 1-9.4 9.5z" transform="translate(.04)"/><path class="cls-7" d="M36.2 182.4a17.37 17.37 0 0 1-14.9-8.4 37.71 37.71 0 0 1-3.6-32.2c4-11.6 13.5-21 25.9-25.6A17.5 17.5 0 1 1 55.8 149c-2.6 1-4.5 2.6-5.1 4.2a2.72 2.72 0 0 0 .4 2.6 17.51 17.51 0 0 1-5.8 24 17.18 17.18 0 0 1-9.1 2.6z" transform="translate(.04)"/></g><path class="cls-6" d="M51.3 188.7a3.58 3.58 0 0 1-2.4-.9c-17.1-14.9-15.8-50.9-12.4-66a3.63 3.63 0 0 1 7.1 1.5c-2.9 13.2-4.4 46.3 10.1 59a3.63 3.63 0 0 1 .4 5.1 3.15 3.15 0 0 1-2.8 1.3z" transform="translate(.04)"/><path d="M94 116.9a3.37 3.37 0 0 1 3.4 3.4v5.6a3.4 3.4 0 0 1-6.8 0v-5.6a3.44 3.44 0 0 1 3.4-3.4z" transform="translate(.04)" fill="#c9263a"/><path class="cls-2" d="M93.9 120.2a.71.71 0 0 1 .8.7v3.5a.68.68 0 0 1-.7.7h-.1a.68.68 0 0 1-.7-.7v-3.5a.84.84 0 0 1 .7-.7z" transform="translate(.04)"/><path class="cls-8" d="M85.5 99.9a2 2 0 0 1-1.6-2.2l1.8-11.2a1.9 1.9 0 0 0-1.6-2.2L73 82.6a5.66 5.66 0 0 1-4.7-6.5l.8-5a1.9 1.9 0 0 0-1.6-2.2l-7.4-1.2a1.86 1.86 0 0 1 .3-3.7.37.37 0 0 1 .3.1l7.4 1.2a5.66 5.66 0 0 1 4.7 6.5l-.8 5a1.9 1.9 0 0 0 1.6 2.2l11.2 1.8a5.66 5.66 0 0 1 4.7 6.5l-1.8 11.2a2.13 2.13 0 0 1-2.2 1.4z" transform="translate(.04)"/><path class="cls-8" d="M94.5 93.3l-6.6-1.1a2 2 0 0 1-1.6-2.2 1.87 1.87 0 0 1 2.2-1.6l6.6 1.1a1.9 1.9 0 0 0 2.2-1.6l.9-5.8a1.9 1.9 0 0 0-1.6-2.2L88 78.6a5.66 5.66 0 0 1-4.7-6.5l2.2-13.2a2 2 0 0 1 2.2-1.6 1.87 1.87 0 0 1 1.6 2.2L87 72.8a1.9 1.9 0 0 0 1.6 2.2l8.7 1.4a5.71 5.71 0 0 1 4.8 6.4v.1l-1 5.8a5.82 5.82 0 0 1-6.6 4.6z" transform="translate(.04)"/><path class="cls-8" d="M92.2 71.3l-5.8-.9a2 2 0 0 1-1.6-2.2 1.87 1.87 0 0 1 2.2-1.6l5.8.9A1.91 1.91 0 0 0 95 66l1.2-7a2 2 0 0 1 2.2-1.6 1.87 1.87 0 0 1 1.6 2.2l-1.2 7a5.93 5.93 0 0 1-6.6 4.7zm-26-3.2a2 2 0 0 1-1.6-2.1l1.6-9.6a2 2 0 0 1 2.2-1.6A1.87 1.87 0 0 1 70 57l-1.6 9.6a1.91 1.91 0 0 1-2.2 1.5zM86 64.4l-4.7-.8a5.66 5.66 0 0 1-4.7-6.5l.8-4.7a2 2 0 0 1 2.2-1.6 1.87 1.87 0 0 1 1.6 2.2l-.8 4.7a1.9 1.9 0 0 0 1.6 2.2l4.7.8a1.91 1.91 0 0 1 1.5 2.2 2 2 0 0 1-2.2 1.5z" transform="translate(.04)"/><path class="cls-6" d="M75.1 106.5c2.1-12.6 14.3-12 21.6-6 4.8 4 10 7.8 15 13.1 6.3 6.6 1 10.9-3.9 10.1 0 0-17.9-3-22.2-3.7s-12-4.8-10.5-13.5" transform="translate(.04)"/><path class="cls-9" d="M93.8 111.1a3.34 3.34 0 1 1-2.8-3.8 3.24 3.24 0 0 1 2.8 3.8" transform="translate(.04)"/><path class="cls-10" d="M91.6 109.3a1.56 1.56 0 1 1-2.2.2 1.5 1.5 0 0 1 2.2-.2" transform="translate(.04)"/><path class="cls-9" d="M93.8 110.3a3.34 3.34 0 1 1-2.8-3.8 3.19 3.19 0 0 1 2.8 3.8" transform="translate(.04)"/><path class="cls-10" d="M91.6 108.5a1.56 1.56 0 1 1-2.2.2 1.5 1.5 0 0 1 2.2-.2" transform="translate(.04)"/><path class="cls-9" d="M93.8 109.5a3.34 3.34 0 1 1-2.8-3.8 3.19 3.19 0 0 1 2.8 3.8" transform="translate(.04)"/><path class="cls-10" d="M92.1 108.4a1.56 1.56 0 1 1-2.2.2 1.5 1.5 0 0 1 2.2-.2" transform="translate(.04)"/><path class="cls-11" d="M121.3 121.1a4.36 4.36 0 1 1-8.6-1.4 4.4 4.4 0 0 1 5-3.6 4.53 4.53 0 0 1 3.6 5" transform="translate(.04)"/><ellipse class="cls-6" cx="88.54" cy="112.7" rx="7.1" ry="3"/><path class="cls-3" d="M70 160.2H49.4v-53.8L70 99z" transform="translate(.04)"/><path class="cls-4" d="M62.6 161.9H51.3l8.6-61.5 3.2 1.1z" transform="translate(.04)"/><path class="cls-3" d="M58 161.9H46.7l1.9-53a4.57 4.57 0 0 1 2.3-3.7l9-4.8z" transform="translate(.04)"/><path class="cls-5" d="M46.7 152.1h23.2v1.7H46.7z" transform="translate(.04)"/><path class="cls-18" d="M129.6 214.1h1v19.6h-1z" transform="translate(.04)"/><path class="cls-19" d="M104.9 221c.2-1.2 2.7-14.4 1.8-19.7a5.73 5.73 0 0 0-2.2-3.8 8.33 8.33 0 0 0-5.3-1.2v-.1l-1-2.4a2.47 2.47 0 0 0-3.2-1.3 2.1 2.1 0 0 0-1.3 1.3l-1 2.4a2.92 2.92 0 0 0-.2.9v4.4a2 2 0 0 1-.1.7l-5 18.7a1.48 1.48 0 0 0-.1.7v5.4a2.66 2.66 0 0 0 .3 1.2l.8 1.5a2.33 2.33 0 0 0 2.1 1.3l11.2-.1a2.33 2.33 0 0 0 2.1-1.3l.8-1.5a2.66 2.66 0 0 0 .3-1.2V221zm-5.6-19.3V198a6.1 6.1 0 0 1 4.2.9 4 4 0 0 1 1.6 2.7c.6 3.6-.5 11.5-1.3 16l-4.4-15.2c0-.3-.1-.5-.1-.7z" transform="translate(.04)"/><path class="cls-20" d="M103.8 227.5l-.8 1.5a1.74 1.74 0 0 1-1.2.8l-11.3.1a1 1 0 0 1-.9-.4c-.1-.1-.2-.2-.2-.3l-.8-1.5a1.42 1.42 0 0 1-.2-.6l-.1-5.4v-.4l2.7-9.8 2.4-8.8c.1-.3.1-.7.2-1v-4.4a.75.75 0 0 1 .1-.5l1-2.4a1.3 1.3 0 0 1 1.2-.8h.3a2.18 2.18 0 0 1 .8.5.52.52 0 0 1 .2.4l1 2.4a.9.9 0 0 1 .1.5v4.5a2.77 2.77 0 0 0 .1.9l5.3 18.5a.6.6 0 0 0 .1.4v5.4c.1 0 .1.2 0 .4z" transform="translate(.04)"/><path class="cls-21" d="M104 226.9v-5.4a.6.6 0 0 0-.1-.4l-3.9-13.3a38.15 38.15 0 0 1-7.2-3.1l-1.8 6.7-2.7 9.8v.4l.1 5.4a1.42 1.42 0 0 0 .2.6l.8 1.5c.1.1.1.2.2.3a1.09 1.09 0 0 0 .9.4l11.3-.1a1.41 1.41 0 0 0 1.2-.8l.8-1.5a.76.76 0 0 0 .2-.5z" transform="translate(.04)"/><path class="cls-22" d="M92.88 188.63h5.9v4.8l-5.9.05zM96.1 211a6.08 6.08 0 0 1 5.9 4.8l.8 4.1a6 6 0 0 1-4.7 7 3.75 3.75 0 0 1-1.1.1h-1.6a6 6 0 0 1-6-6 4.1 4.1 0 0 1 .1-1.1l.8-4.1a6 6 0 0 1 5.8-4.8z" transform="translate(.04)"/><path class="cls-23" d="M101.2 219.5l-.8-.7.4-1-1.1-.1-.3-1-1.3 1.6a.3.3 0 0 1-.4 0c-.1-.1-.1-.1-.1-.2v-3.4l-1 .3-.7-.9-.6.9-1-.2.3 3.4a.27.27 0 0 1-.3.3c-.1 0-.2 0-.2-.1l-1.4-1.5-.2 1-1.1.2.5 1-.7.8 2.8 1a1 1 0 0 1 .7 1.1v.2l.8-.2c.2-.1.4.1.5.3v2.7a.37.37 0 0 0 .1.3.6.6 0 0 0 .4.1.22.22 0 0 0 .2-.2l-.2-2.8a.37.37 0 0 1 .4-.4h.1l1.1.1v-.1a1.14 1.14 0 0 1 .6-1.3l2.5-1.2z" transform="translate(.04)"/><path class="cls-19" d="M110 221c.2-1.2 2.7-14.4 1.8-19.7a5.73 5.73 0 0 0-2.2-3.8 8.33 8.33 0 0 0-5.3-1.2v-.1l-1-2.4a2.47 2.47 0 0 0-3.2-1.3 2.1 2.1 0 0 0-1.3 1.3l-1 2.4a2.92 2.92 0 0 0-.2.9v4.4a2 2 0 0 1-.1.7l-5 18.7a1.48 1.48 0 0 0-.1.7v5.4a2.66 2.66 0 0 0 .3 1.2l.8 1.5a2.33 2.33 0 0 0 2.1 1.3l11.2-.1a2.33 2.33 0 0 0 2.1-1.3l.8-1.5a2.66 2.66 0 0 0 .3-1.2V221zm-5.5-19.3V198a6.1 6.1 0 0 1 4.2.9 4 4 0 0 1 1.6 2.7c.6 3.6-.5 11.5-1.3 16l-4.4-15.2a2 2 0 0 1-.1-.7z" transform="translate(.04)"/><path class="cls-20" d="M109 227.5l-.8 1.5a1.74 1.74 0 0 1-1.2.8l-11.3.1a1 1 0 0 1-.9-.4c-.1-.1-.2-.2-.2-.3l-.8-1.5a1.42 1.42 0 0 1-.2-.6l-.1-5.4v-.4l2.7-9.8 2.4-8.8c.1-.3.1-.7.2-1v-4.4a.75.75 0 0 1 .1-.5l1-2.4a1.3 1.3 0 0 1 1.2-.8h.3a2 2 0 0 1 .8.4.52.52 0 0 1 .2.4l1 2.4a.9.9 0 0 1 .1.5v4.5a2.77 2.77 0 0 0 .1.9l5.3 18.5a.6.6 0 0 0 .1.4v5.4a.45.45 0 0 1 0 .5z" transform="translate(.04)"/><path class="cls-21" d="M109.1 226.9v-5.4a.6.6 0 0 0-.1-.4l-3.8-13.3a38.15 38.15 0 0 1-7.2-3.1l-1.8 6.7-2.7 9.8v.4l.1 5.4a1.42 1.42 0 0 0 .2.6l.8 1.5c.1.1.1.2.2.3a1.09 1.09 0 0 0 .9.4l11.3-.1a1.41 1.41 0 0 0 1.2-.8l.8-1.5a.44.44 0 0 0 .1-.5z" transform="translate(.04)"/><path class="cls-22" d="M98 188.63h5.9v4.8l-5.9.05zM101.3 211a6.08 6.08 0 0 1 5.9 4.8l.8 4.1a6 6 0 0 1-4.7 7 3.4 3.4 0 0 1-1 .1h-1.7a6 6 0 0 1-6-6 4.1 4.1 0 0 1 .1-1.1l.8-4.1a5.82 5.82 0 0 1 5.8-4.8z" transform="translate(.04)"/><path class="cls-23" d="M106.3 219.5l-.8-.7.4-1-1.1-.1-.3-1-1.3 1.6a.3.3 0 0 1-.4 0c-.1-.1-.1-.1-.1-.2v-3.4l-1 .3-.7-.9-.6.9-1-.2.3 3.4a.27.27 0 0 1-.3.3c-.1 0-.2 0-.2-.1l-1.4-1.5-.2 1-1.1.2.5 1-.7.8 2.8 1a1 1 0 0 1 .7 1.1v.2l.8-.2c.2-.1.4.1.5.3v2.7a.37.37 0 0 0 .1.3.6.6 0 0 0 .4.1.22.22 0 0 0 .2-.2l-.2-2.8a.37.37 0 0 1 .4-.4h.1l1.1.1v-.1a1.14 1.14 0 0 1 .6-1.3l2.5-1.2z" transform="translate(.04)"/><path class="cls-19" d="M119.8 221c.2-1.2 2.7-14.4 1.8-19.7a5.73 5.73 0 0 0-2.2-3.8 8.33 8.33 0 0 0-5.3-1.2v-.1l-1-2.4a2.47 2.47 0 0 0-3.2-1.3 2.1 2.1 0 0 0-1.3 1.3l-1 2.4a2.92 2.92 0 0 0-.2.9v4.4a2 2 0 0 1-.1.7l-5 18.7a1.48 1.48 0 0 0-.1.7v5.4a2.66 2.66 0 0 0 .3 1.2l.8 1.5a2.33 2.33 0 0 0 2.1 1.3l11.2-.1a2.33 2.33 0 0 0 2.1-1.3l.8-1.5a2.66 2.66 0 0 0 .3-1.2V221zm-5.5-19.3V198a6.1 6.1 0 0 1 4.2.9 4 4 0 0 1 1.6 2.7c.6 3.6-.5 11.5-1.3 16l-4.4-15.2a2 2 0 0 1-.1-.7z" transform="translate(.04)"/><path class="cls-20" d="M118.8 227.5l-.8 1.5a1.74 1.74 0 0 1-1.2.8l-11.3.1a1 1 0 0 1-.9-.4c-.1-.1-.2-.2-.2-.3l-.8-1.5a1.42 1.42 0 0 1-.2-.6l-.1-5.4v-.4l2.7-9.8 2.4-8.8c.1-.3.1-.7.2-1v-4.4a.75.75 0 0 1 .1-.5l1-2.4a1.3 1.3 0 0 1 1.2-.8h.3a2 2 0 0 1 .8.4.52.52 0 0 1 .2.4l1 2.4a.9.9 0 0 1 .1.5v4.5a2.77 2.77 0 0 0 .1.9l5.3 18.5a.6.6 0 0 0 .1.4v5.4a.45.45 0 0 1 0 .5z" transform="translate(.04)"/><path class="cls-21" d="M119 226.9v-5.4a.6.6 0 0 0-.1-.4l-3.9-13.3a38.15 38.15 0 0 1-7.2-3.1l-1.8 6.7-2.7 9.8v.4l.1 5.4a1.42 1.42 0 0 0 .2.6l.8 1.5c.1.1.1.2.2.3a1.09 1.09 0 0 0 .9.4l11.3-.1a1.41 1.41 0 0 0 1.2-.8l.8-1.5a.76.76 0 0 0 .2-.5z" transform="translate(.04)"/><path class="cls-22" d="M107.78 188.63h5.9v4.8l-5.9.05zM111.1 211a6.08 6.08 0 0 1 5.9 4.8l.8 4.1a6 6 0 0 1-4.7 7 3.4 3.4 0 0 1-1 .1h-1.7a6 6 0 0 1-6-6 4.1 4.1 0 0 1 .1-1.1l.8-4.1a5.82 5.82 0 0 1 5.8-4.8z" transform="translate(.04)"/><path class="cls-23" d="M116.1 219.5l-.8-.7.4-1-1.1-.1-.3-1-1.3 1.6a.3.3 0 0 1-.4 0c-.1-.1-.1-.1-.1-.2v-3.4l-1 .3-.7-.9-.6.9-1-.2.3 3.4a.27.27 0 0 1-.3.3c-.1 0-.2 0-.2-.1l-1.4-1.5-.2 1-1.1.2.5 1-.7.8 2.8 1a1 1 0 0 1 .7 1.1v.2l.8-.2c.2-.1.4.1.5.3v2.7a.37.37 0 0 0 .1.3.6.6 0 0 0 .4.1.22.22 0 0 0 .2-.2l-.2-2.8a.37.37 0 0 1 .4-.4h.1l1.1.1v-.1a1.14 1.14 0 0 1 .6-1.3l2.5-1.2z" transform="translate(.04)"/><path class="cls-19" d="M127.4 221c.2-1.2 2.7-14.4 1.8-19.7a5.73 5.73 0 0 0-2.2-3.8 8.33 8.33 0 0 0-5.3-1.2v-.1l-1-2.4a2.47 2.47 0 0 0-3.2-1.3 2.1 2.1 0 0 0-1.3 1.3l-1 2.4a2.92 2.92 0 0 0-.2.9v4.4a2 2 0 0 1-.1.7l-5 18.7a1.48 1.48 0 0 0-.1.7v5.4a2.66 2.66 0 0 0 .3 1.2l.8 1.5a2.33 2.33 0 0 0 2.1 1.3l11.2-.1a2.33 2.33 0 0 0 2.1-1.3l.8-1.5a2.66 2.66 0 0 0 .3-1.2V221zm-5.5-19.3V198a6.1 6.1 0 0 1 4.2.9 4 4 0 0 1 1.6 2.7c.6 3.6-.5 11.5-1.3 16l-4.4-15.2a2 2 0 0 1-.1-.7z" transform="translate(.04)"/><path class="cls-20" d="M126.4 227.5l-.8 1.5a1.74 1.74 0 0 1-1.2.8l-11.3.1a1 1 0 0 1-.9-.4c-.1-.1-.2-.2-.2-.3l-.8-1.5a1.42 1.42 0 0 1-.2-.6l-.1-5.4v-.4l2.7-9.8 2.4-8.8c.1-.3.1-.7.2-1v-4.4a.75.75 0 0 1 .1-.5l1-2.4a1.3 1.3 0 0 1 1.2-.8h.3a2 2 0 0 1 .8.4.52.52 0 0 1 .2.4l1 2.4a.9.9 0 0 1 .1.5v4.5a2.77 2.77 0 0 0 .1.9l5.3 18.5a.6.6 0 0 0 .1.4v5.4c.1.1 0 .3 0 .5z" transform="translate(.04)"/><path class="cls-21" d="M126.5 226.9v-5.4a.6.6 0 0 0-.1-.4l-3.8-13.3a38.15 38.15 0 0 1-7.2-3.1l-1.8 6.7-2.7 9.8v.4l.1 5.4a1.42 1.42 0 0 0 .2.6l.8 1.5c.1.1.1.2.2.3a1.09 1.09 0 0 0 .9.4l11.3-.1a1.41 1.41 0 0 0 1.2-.8l.8-1.5a.75.75 0 0 0 .1-.5z" transform="translate(.04)"/><path class="cls-22" d="M115.39 188.63h5.9v4.8l-5.9.05zM118.6 211a6.08 6.08 0 0 1 5.9 4.8l.8 4.1a6 6 0 0 1-4.7 7 3.4 3.4 0 0 1-1 .1h-1.7a6 6 0 0 1-6-6 4.1 4.1 0 0 1 .1-1.1l.8-4.1a6 6 0 0 1 5.8-4.8z" transform="translate(.04)"/><path class="cls-23" d="M123.7 219.5l-.8-.7.4-1-1.1-.1-.3-1-1.3 1.6a.3.3 0 0 1-.4 0c-.1-.1-.1-.1-.1-.2v-3.4l-1 .3-.7-.9-.6.9-1-.2.3 3.4a.27.27 0 0 1-.3.3c-.1 0-.2 0-.2-.1l-1.4-1.5-.2 1-1.1.2.5 1-.7.8 2.8 1a1 1 0 0 1 .7 1.1v.2l.8-.2c.2-.1.4.1.5.3v2.7a.37.37 0 0 0 .1.3.6.6 0 0 0 .4.1.22.22 0 0 0 .2-.2l-.2-2.8a.37.37 0 0 1 .4-.4h.1l1.1.1v-.1a1.14 1.14 0 0 1 .6-1.3l2.5-1.2z" transform="translate(.04)"/><path class="cls-18" d="M134.2 234.2H84.3v-20.6h49.8l.1 20.6zm-48.9-1h47.8v-18.6H85.3z" transform="translate(.04)"/><path class="cls-18" d="M97.4 214.1h1v19.6h-1zm-5.3 0h1v19.6h-1zm-5.2 0h1v19.6h-1zm7.9 0h1v19.6h-1zm-4 0h1v19.6h-1zm-5.3 0h1v19.6h-1zm4 0h1v19.6h-1zm4 0h1v19.6h-1zm-5.3 0h1v19.6h-1zm17.3 0h1v19.6h-1zm-3 0h1v19.6h-1zm-3 0h1v19.6h-1zm-3.4 0h1v19.6h-1zm21.5 0h1v19.6h-1zm-3.1 0h1v19.6h-1zm-3 0h1v19.6h-1zm-3 0h1v19.6h-1zm15.1 0h1v19.6h-1zm-3 0h1v19.6h-1zm6 0h1v19.6h-1z" transform="translate(.04)"/><path class="cls-18" d="M84.51 214.33l.83-.55 13 19.48-.83.55z" transform="translate(.04)"/><path class="cls-18" d="M84.54 233.23l13-19.47.83.55-13 19.47z" transform="translate(.04)"/><path class="cls-18" d="M98 214.51l.48-.88 35.62 19.5-.48.87z" transform="translate(.04)"/><path class="cls-18" d="M98 233.14l35.6-19.51.48.88L98.46 234z" transform="translate(.04)"/><path d="M80.5 107.7a1.6 1.6 0 1 1-3.2 0c0-.9 1.2-3.9 1.6-3.9s1.6 3 1.6 3.9zm-7.9-5.6a1.8 1.8 0 0 1-3.6 0c0-1 1.4-4.4 1.8-4.4s1.8 3.4 1.8 4.4zm-37.4 24.2c-.5.8-1.2 1.1-1.9.4a2.44 2.44 0 0 1-.6-2.8c.3-1 4.2-2 4.6-1.5.1.1-1.9 2.8-2.1 3.9zm-8.1 11.2a1.24 1.24 0 0 1-1.4 1.1 1.18 1.18 0 0 1-1.1-1.1 8.33 8.33 0 0 1 1.2-3.1 8.23 8.23 0 0 1 1.3 3.1zm53 6.5a1.15 1.15 0 0 1-1.3 1 1.07 1.07 0 0 1-1-1c0-.6.9-2.8 1.2-2.8s1.1 2.1 1.1 2.8zm136.5-69.6a1.8 1.8 0 1 1-3.6 0c0-1 1.4-4.4 1.8-4.4s1.8 3.4 1.8 4.4z" transform="translate(.04)" fill="#a3efef"/><ellipse class="cls-2" cx="271.36" cy="236.84" rx="3.3" ry="35.9" transform="rotate(-88.78 271.374 236.8197)"/><path class="cls-25" d="M155 119.26l-11.9.35c-1.2-.31-1.64 1.42.09 1.87l13.21 3.4z" transform="translate(.04)"/><path class="cls-26" d="M163.16 184.44v38" transform="translate(.04)"/><path class="cls-27" d="M148.37 225.81a6.46 6.46 0 0 0 6.46 6.45 5 5 0 0 0 5-5v-4.79h6.66v14.58a1.66 1.66 0 0 1-1.66 1.66h-16.3a6.55 6.55 0 0 1-6.6-6.21 6.45 6.45 0 0 1 6.44-6.69z" transform="translate(.04)"/><path class="cls-28" d="M159.83 228.93h2.5a1.67 1.67 0 0 0 0-3.34h-2.5a1.67 1.67 0 0 0 0 3.34z" transform="translate(.04)"/><path fill="#32a558" d="M167.89 184.36l-11.6-1.24 10.02-38.78 1.58 40.02z"/><path class="cls-30" d="M162.69 191.07c-4.56-.35-10.7-3-10-12.51s-5.84-13.06-5.13-22.28 7.28-16.41 18.95-15.51 17.07 9 16.37 18.21-7.74 11.73-8.47 21.25-7.16 11.19-11.72 10.84z" transform="translate(.04)"/><path class="cls-2" d="M166.54 140.77a23 23 0 0 0-5 .16c8.23 2.52 12 9.49 11.43 17.29-.71 9.22-7.74 11.73-8.47 21.24-.48 6.25-3.43 9.1-6.69 10.24a12.53 12.53 0 0 0 4.91 1.37c4.56.35 11-1.33 11.75-10.84s7.76-12 8.47-21.25-4.74-17.32-16.4-18.21z" transform="translate(.04)"/><path class="cls-27" d="M151.29 171.21l24.84 1.91a18 18 0 0 0-2.1 7l-21.73-1.67a18.1 18.1 0 0 0-1.01-7.24z" transform="translate(.04)"/><path class="cls-28" transform="rotate(-175.62 152.0882 174.8327)" d="M150.53 171.28h3.07v7.11h-3.07z"/><path class="cls-31" d="M181.38 132.06l-5.79 4.68a7.42 7.42 0 0 0-1.12 10.45l5.79-4.67a7.44 7.44 0 0 0 1.12-10.46z" transform="translate(.04)"/><path class="cls-31" d="M180.26 142.52l-5.79 4.67a7.42 7.42 0 0 0-1.12 10.45l5.79-4.67a7.42 7.42 0 0 0 1.12-10.45zM179.14 153l-5.79 4.67a7.44 7.44 0 0 0-1.12 10.46l5.79-4.68a7.42 7.42 0 0 0 1.12-10.45z" transform="translate(.04)"/><path class="cls-31" d="M175.13 175.9l.4-3.71a3.72 3.72 0 0 0-3.3-4.09l-.4 3.7a3.72 3.72 0 0 0 3.3 4.1z" transform="translate(.04)"/><path class="cls-31" d="M167.73 175.11l.4-3.71a3.72 3.72 0 0 1 4.1-3.3l-.4 3.7a3.72 3.72 0 0 1-4.1 3.31z" transform="translate(.04)"/><circle class="cls-25" cx="167.17" cy="126.72" r="14.22"/><path class="cls-27" d="M159.79 120.62a2.88 2.88 0 1 0 3.5-2.06 2.88 2.88 0 0 0-3.5 2.06z" transform="translate(.04)"/><path class="cls-31" d="M174.6 114.67a14.18 14.18 0 0 1 6.62 11.45 14.12 14.12 0 0 1-6.05-5.17 14.36 14.36 0 0 1-1.86-4.24 14.12 14.12 0 0 1-11.9-3.08 14.17 14.17 0 0 1 13.19 1.04z" transform="translate(.04)"/><path class="cls-26" d="M168.45 146c21.84 8.07 3.72 26.39 3.72 26.39" transform="translate(.04)"/><circle class="cls-25" cx="168.25" cy="178.31" r="7.11"/><path class="cls-9" d="M179 173l-10-6.71a3.33 3.33 0 1 0-3.72 5.53l10 6.72A3.34 3.34 0 1 0 179 173z" transform="translate(.04)"/><path class="cls-26" d="M161.63 147.72c-15.16 14.27-30 1.61-30 1.61" transform="translate(.04)"/><circle class="cls-25" cx="125.07" cy="146.71" r="7.11"/><path class="cls-9" d="M135.08 140.63a3.34 3.34 0 0 0-4.33 1.87l-4.43 11.2a3.34 3.34 0 0 0 6.2 2.46L137 145a3.32 3.32 0 0 0-1.92-4.37z" transform="translate(.04)"/><path class="cls-31" d="M167.18 125.52a21.32 21.32 0 0 1 5.25-12.86 15.27 15.27 0 0 1 .49 27.55 20.14 20.14 0 0 1-5.74-14.69z" transform="translate(.04)"/><path class="cls-9" d="M153 125.19l8.75 2.29a8.2 8.2 0 0 1-7.06 6.11 13.81 13.81 0 0 1-1.69-8.4z" transform="translate(.04)"/><path class="cls-30" d="M181.36 130.69l11.43-20.35-26.65.51 15.22 19.84z"/><path class="cls-9" d="M179.92 134.16a3.3 3.3 0 0 0 3.25-.43 3.34 3.34 0 0 0 .66-4.67l-15.51-20.57a3.34 3.34 0 0 0-5.33 4l15.51 20.58a3.32 3.32 0 0 0 1.42 1.09z" transform="translate(.04)"/><circle class="cls-9" cx="195.43" cy="108.47" r="3.33"/><path class="cls-25" d="M175.58 118.64s.5 8.44-5 11.71a3.76 3.76 0 1 1-3.83-6.48z" transform="translate(.04)"/><path d="M168.11 129.17a1.92 1.92 0 1 1-2.35 1.38" transform="translate(.04)" stroke="#f9ce1d" stroke-miterlimit="10" fill="none"/><path class="cls-19" d="M122.8 163.7c0-1.3 0-14.7-1.8-19.7a6.07 6.07 0 0 0-2.8-3.3 8 8 0 0 0-5.5-.2v-.1l-1.4-2.2a2.41 2.41 0 0 0-4.4.8l-.5 2.5a1.39 1.39 0 0 0 0 .9l.8 4.4v.7l-1.6 19.2v.7l1 5.3a3.7 3.7 0 0 0 .5 1.1l1.1 1.3a2.64 2.64 0 0 0 2.3.9l11-2.1a2.25 2.25 0 0 0 1.8-1.7l.5-1.6a4.87 4.87 0 0 0 .1-1.2l-1-5.3c0-.1 0-.1-.1-.2a.14.14 0 0 1 0-.2zm-9-18l-.7-3.6a7 7 0 0 1 4.3.1 3.7 3.7 0 0 1 2 2.4c1.2 3.4 1.5 11.4 1.6 15.9l-7.1-14.2a1.27 1.27 0 0 0-.1-.6z" transform="translate(.04)"/><path class="cls-20" d="M122.9 170.3l-.5 1.6a1.17 1.17 0 0 1-1 .9l-11.1 2.2a1.23 1.23 0 0 1-1-.2l-.3-.3-1.1-1.3-.3-.6-1-5.3v-.4l.8-10.1.8-9.1v-1l-.8-4.4v-.5l.5-2.5a1.28 1.28 0 0 1 1.1-1h.3a1.61 1.61 0 0 1 .9.3l.3.3 1.4 2.2a.76.76 0 0 1 .2.5l.8 4.4.3.9 8.5 17.2c.1.1.1.2.1.4l.5 2.6.5 2.6a.47.47 0 0 1 .1.6z" transform="translate(.04)"/><path class="cls-21" d="M123 169.6l-.5-2.6-.5-2.6c0-.1-.1-.3-.1-.4l-6.2-12.4a38.13 38.13 0 0 1-7.6-1.7l-.6 6.9-.8 10.1v.4l1 5.3a.86.86 0 0 0 .3.6l1.1 1.3.3.3a1.23 1.23 0 0 0 1 .2l11.1-2.1a1.32 1.32 0 0 0 1-.9l.5-1.6z" transform="translate(.04)"/><path class="cls-22" d="M105.11 134l5.8-1.1.9 4.71-5.8 1.11zM112.3 155.4a6.12 6.12 0 0 1 6.7 3.6l1.6 3.8a6 6 0 0 1-3.4 7.8l-1 .3-1.6.3a6 6 0 0 1-7-4.8 4.1 4.1 0 0 1-.1-1.1l.1-4.1a5.9 5.9 0 0 1 4.7-5.8z" transform="translate(.04)"/><path class="cls-23" d="M118.9 162.9l-.9-.6.2-1.1-1.1.1-.5-.9-1 1.8c-.1.1-.3.2-.4.1s-.1-.1-.1-.2l-.6-3.4-1 .5-.8-.7-.5 1h-1.1l.9 3.3a.52.52 0 0 1-.2.4h-.2L110 162l-.1 1.1-1.1.4.7.9-.6.9 3 .5a1.06 1.06 0 0 1 .9 1v.2l.8-.4a.37.37 0 0 1 .5.2v.1l.5 2.6c0 .1.1.2.2.3a.3.3 0 0 0 .4 0c.1 0 .2-.2.2-.3l-.7-2.7c-.1-.2.1-.4.3-.5h1.2l-.2-.3a1.11 1.11 0 0 1 .4-1.4l2.5-1.7z" transform="translate(.04)"/><path class="cls-25" d="M121 144.75l3 .25a1.85 1.85 0 1 1-.28 3.68l-3-.26a1.84 1.84 0 1 1 .27-3.67z" transform="translate(.04)"/><path class="cls-33" d="M269 173.52l-20.68-16.16"/><circle class="cls-34" cx="242.76" cy="152.92" r="7.11"/><path class="cls-9" d="M254.11 150.05a3.33 3.33 0 0 0-4.68.52l-7.52 9.43a3.33 3.33 0 0 0 5.21 4.16l7.52-9.41a3.34 3.34 0 0 0-.53-4.7z" transform="translate(.04)"/><path class="cls-27" d="M241.07 140.61l.9.5.9-1.4-.9-.5zm2.9 3l.4 1.6 1.6-.4-.4-1.6z" transform="translate(.04)"/><path class="cls-35" d="M232.77 142.61a6.62 6.62 0 1 0 9.1-2.2 6.56 6.56 0 0 0-9.1 2.2z" transform="translate(.04)"/><path class="cls-9" d="M233.87 143.11a5.45 5.45 0 1 0 7.5-1.8 5.4 5.4 0 0 0-7.5 1.8z" transform="translate(.04)"/><path class="cls-35" d="M241.17 138.71l2.5 1.5 1.1-1.8-2.5-1.6z" transform="translate(.04)"/><circle class="cls-36" cx="238.46" cy="146.12" r=".6"/><path class="cls-36" d="M238.17 145.81l.6.3 1.8-3.4-.2-.1z" transform="translate(.04)"/><circle class="cls-34" cx="242.4" cy="149.74" r="2"/><path class="cls-37" d="M265.54 165.77l.5-4.47 17.49 1.94-.5 4.48z" transform="translate(.04)"/><path class="cls-38" d="M274.15 194.24v26.23" transform="translate(.04)"/><path class="cls-27" d="M259.36 223.81a6.45 6.45 0 0 0 6.45 6.45 5 5 0 0 0 5-5v-4.79h6.67v14.58a1.66 1.66 0 0 1-1.67 1.66h-16.3a6.56 6.56 0 0 1-6.6-6.21 6.46 6.46 0 0 1 6.45-6.69z" transform="translate(.04)"/><path class="cls-28" d="M270.81 226.93h2.51a1.67 1.67 0 0 0 0-3.34h-2.51a1.67 1.67 0 0 0 0 3.34z" transform="translate(.04)"/><path class="cls-38" d="M278.92 194.3l4.74 25.8" transform="translate(.04)"/><path class="cls-27" d="M269.72 226.05a6.46 6.46 0 0 0 7.51 5.18 5 5 0 0 0 4-5.82l-.87-4.71 6.56-1.21 2.63 14.33a1.66 1.66 0 0 1-1.33 1.94l-16 3a6.55 6.55 0 0 1-7.62-4.92 6.45 6.45 0 0 1 5.12-7.79z" transform="translate(.04)"/><path class="cls-28" d="M281.55 227l2.46-.45a1.66 1.66 0 0 0 1.34-1.94 1.68 1.68 0 0 0-1.94-1.34l-2.46.46a1.66 1.66 0 1 0 .6 3.27z" transform="translate(.04)"/><path fill="#ee3c39" d="M281.16 196.24h-11.67l5.83-29.52 5.84 29.52z"/><path class="cls-40" d="M275.28 163.39a14.22 14.22 0 0 1 14.22 14.22v11.91a14.22 14.22 0 0 1-28.44 0v-11.91a14.22 14.22 0 0 1 14.22-14.22z" transform="translate(.04)"/><path class="cls-27" transform="rotate(-180 275.305 185.965)" d="M261.06 182.41h28.44v7.11h-28.44z"/><path class="cls-28" transform="rotate(-180 261.585 185.965)" d="M260.27 182.41h2.59v7.11h-2.59z"/><circle class="cls-41" cx="281.46" cy="164" r="3.87"/><circle class="cls-41" cx="273.74" cy="159.8" r="3.87"/><circle class="cls-41" cx="285.32" cy="166.1" r="3.87"/><circle class="cls-41" cx="277.6" cy="161.9" r="3.87"/><path class="cls-41" d="M271.39 146.72l18.88 10.29-4.95 9.09-18.89-10.28"/><circle class="cls-34" cx="275.85" cy="149.16" r="14.22"/><path class="cls-27" d="M270.18 141.45a2.88 2.88 0 1 0 3.9-1.14 2.89 2.89 0 0 0-3.9 1.14z" transform="translate(.04)"/><path class="cls-41" d="M280.11 129.23a8 8 0 0 0-10.87 3.21 2.67 2.67 0 0 0 4.69 2.55 2.67 2.67 0 0 0 4.7 2.55 2.67 2.67 0 1 0 4.69 2.56 8 8 0 0 0-3.21-10.87z" transform="translate(.04)"/><path class="cls-41" d="M276.07 148.22a19 19 0 0 1 7.81-10.49 14.22 14.22 0 0 1-5.88 25.69 19 19 0 0 1-1.93-15.2z" transform="translate(.04)"/><path class="cls-41" d="M278.71 147.26a19 19 0 0 1 4.66-12.26 14.4 14.4 0 0 1 1.53 26.46 19.47 19.47 0 0 1-6.19-14.2z" transform="translate(.04)"/><path class="cls-34" d="M276.15 146.31l9.86-2.9s-1.57 8.3-7.74 10.12a3.76 3.76 0 0 1-2.12-7.22z" transform="translate(.04)"/><path class="cls-40" d="M291.49 155.32l16.77-16.24-25.69-7.13 8.92 23.37z"/><path class="cls-9" d="M289.11 158.24a3.34 3.34 0 0 0 5.21-3.77l-9-24.15a3.34 3.34 0 1 0-6.25 2.33l9 24.15a3.33 3.33 0 0 0 1.04 1.44z" transform="translate(.04)"/><circle class="cls-9" cx="311.32" cy="138.04" r="3.33"/><path class="cls-34" d="M265.94 139l-11.62-2.57c-1.09-.59-1.95 1-.38 1.84l12 6.52z" transform="translate(.04)"/><path class="cls-9" d="M262.44 144.18l7.92 4.35a8.26 8.26 0 0 1-8.38 4.19 13.76 13.76 0 0 1 .46-8.54z" transform="translate(.04)"/><path class="cls-37" d="M289 217.2l.9-40.1a14.3 14.3 0 0 0-12-14.2l-1.2 54.1 12.3.2z" transform="translate(.04)"/><path class="cls-42" d="M282.84 217l.9-40.1c.1-6.9-.1-12.7-12.2-14.2l-1.2 54.1 12.5.2zm-15.2-52.8l-1.2 52.5-7.1-.1.9-40.1a14.83 14.83 0 0 1 7.4-12.3z" transform="translate(.04)"/><path class="cls-42" d="M267.44 166l-1.9-.2.5-4.5 1.8 1.3z" transform="translate(.04)"/><path class="cls-37" d="M273.54 166.2l-.1-3.61 10.2-.69.2 3.9z" transform="translate(.04)"/><path class="cls-42" d="M271.54 170.6l10.3-2.2-.66-6.33-9.44.63z" transform="translate(.04)"/><path class="cls-33" d="M282.65 171.47l23.86-10.92"/><circle class="cls-34" cx="312.94" cy="157.52" r="7.11"/><path class="cls-9" d="M312.05 164.58l-5.13-10.9a3.33 3.33 0 1 0-6 2.84l5.13 10.9a3.33 3.33 0 0 0 6-2.84z" transform="translate(.04)"/></svg>