<?xml version="1.0" encoding="iso-8859-1"?>
<!-- Generator: Adobe Illustrator 21.0.0, SVG Export Plug-In . SVG Version: 6.00 Build 0)  -->
<svg version="1.1" id="slices" xmlns="http://www.w3.org/2000/svg" xmlns:xlink="http://www.w3.org/1999/xlink" x="0px" y="0px"
	 viewBox="0 0 86 86" style="enable-background:new 0 0 86 86;" xml:space="preserve">
<g id="New_Symbol_8">
</g>
<g id="New_Symbol_9">
</g>
<g id="New_Symbol_10">
</g>
<g id="New_Symbol_12">
</g>
<g id="New_Symbol_13">
</g>
<g id="New_Symbol_14">
</g>
<path style="fill:#575757;" d="M25.5,10.8c-2.9,1.6-6.6,0.6-8.4-2.1c-1.1,0.9-2.2,1.8-3.3,2.7c2.5,2.2,2.9,6.1,0.7,8.7
	c-2.1,2.7-6,3.1-8.7,1.1c-0.7,1.1-1.3,2.3-1.8,3.5c3.1,1.1,4.8,4.5,3.9,7.7c-1,3.2-4.3,5.1-7.5,4.4C0.2,38.2,0,39.7,0,41.2
	c3.4-0.3,6.4,2.2,6.8,5.6c0.4,3.4-2.1,6.5-5.5,7C1.6,55,2,56.2,2.5,57.5c3-1.5,6.8-0.4,8.4,2.6c1.7,3,0.6,6.9-2.5,8.6
	c0.9,1.2,1.8,2.4,2.8,3.5c2.2-2.7,6.2-3.1,8.9-0.9s3.2,6.2,1,8.9c1.1,0.7,2.3,1.3,3.5,1.9c0,0,0,0,0-0.1c1-3.4,4.5-5.3,7.9-4.3
	s5.3,4.5,4.3,7.9v0.1c1.5,0.2,3,0.4,4.5,0.4c0,0,0,0,0-0.1c-0.4-3.5,2.1-6.6,5.6-7s6.6,2.1,7,5.6c0,0,0,0,0,0.1
	c1.3-0.3,2.6-0.8,3.9-1.2c0-0.1-0.1-0.1-0.1-0.2c-1.7-3.1-0.5-6.9,2.5-8.6c3.1-1.7,6.9-0.5,8.6,2.5c0,0.1,0.1,0.1,0.1,0.2
	c1.2-0.9,2.3-1.8,3.4-2.8c0,0,0,0-0.1,0c-2.7-2.2-3.2-6.2-1-8.9c2.2-2.7,6.2-3.2,8.9-1l0,0c0.7-1.2,1.3-2.5,1.9-3.7h-0.1
	c-3.4-1-5.3-4.5-4.3-7.9s4.5-5.3,7.9-4.3c0,0,0,0,0.1,0c0.2-1.4,0.3-2.8,0.4-4.3c-3.5,0.3-6.6-2.2-6.9-5.6c-0.4-3.4,2.1-6.5,5.5-7
	c-0.4-1.3-0.8-2.7-1.3-4c-3.1,1.6-6.9,0.5-8.5-2.6c-1.6-3-0.6-6.8,2.4-8.5c-0.9-1.1-1.7-2.2-2.7-3.2c-2.2,2.6-6.1,3-8.8,0.8
	c-2.7-2.1-3.1-6-1.1-8.7c-1.2-0.7-2.4-1.3-3.7-1.9c-1.1,3.2-4.5,4.9-7.8,4c-3.2-1-5.1-4.2-4.4-7.5C47.4,0.2,46,0.1,44.6,0
	c0.2,3.3-2.3,6.3-5.6,6.7c-3.4,0.4-6.4-2-6.9-5.3c-1.3,0.3-2.6,0.7-3.8,1.2C29.6,5.6,28.4,9.2,25.5,10.8z M21.7,60.6l10.2-5.5
	c3.7,3.4,8.8,4.8,13.7,3.9l5.6,10.3C40.6,72.8,28.8,69.3,21.7,60.6z M69,34.9c3.4,10.6,0,22.2-8.4,29.3l-5.7-10.4
	c3.2-3.6,4.6-8.5,3.8-13.3L69,34.9z M48.3,39.7c1.7,3.2,0.6,7.1-2.6,8.8c-3.2,1.7-7.1,0.6-8.8-2.6c-1.7-3.2-0.6-7.1,2.6-8.8
	C42.6,35.3,46.5,36.5,48.3,39.7z M63.9,25.6l-10.2,5.6c-3.6-3.3-8.5-4.8-13.3-4L34.9,17C45.4,13.8,56.8,17.2,63.9,25.6z M30.9,32
	c-3.4,3.7-5,8.8-4.2,13.7l-10.1,5.5C13.4,40.6,16.9,29,25.4,22L30.9,32z"/>
<g id="New_Symbol_15">
</g>
<g id="New_Symbol">
</g>
</svg>
