<?xml version="1.0" encoding="iso-8859-1"?>
<!-- Generator: Adobe Illustrator 21.0.0, SVG Export Plug-In . SVG Version: 6.00 Build 0)  -->
<svg version="1.1" id="slices" xmlns="http://www.w3.org/2000/svg" xmlns:xlink="http://www.w3.org/1999/xlink" x="0px" y="0px"
	 viewBox="0 0 51.4 51.4" style="enable-background:new 0 0 51.4 51.4;" xml:space="preserve">
<g id="New_Symbol_8">
</g>
<g id="New_Symbol_9">
</g>
<g id="New_Symbol_10">
</g>
<g id="New_Symbol_12">
</g>
<g id="New_Symbol_13">
</g>
<g id="New_Symbol_14">
</g>
<path style="fill:#A1A1A1;" d="M10.6,9.6c-1.5,1.4-3.8,1.3-5.2,0c-0.5,0.7-1.1,1.4-1.5,2.1c1.8,0.9,2.6,3.1,1.7,5s-3,2.7-4.9,2
	c-0.2,0.8-0.4,1.5-0.6,2.3c2,0.2,3.5,1.9,3.4,4s-1.8,3.7-3.8,3.7c0.1,0.9,0.2,1.8,0.4,2.6c2-0.6,4.1,0.4,4.8,2.3
	c0.7,2-0.3,4.1-2.2,4.9c0.4,0.7,0.8,1.4,1.2,2c1.6-1.4,3.9-1.2,5.4,0.3c1.4,1.6,1.3,4-0.2,5.4c0.7,0.6,1.4,1.1,2.2,1.6
	c0.9-1.9,3.2-2.7,5.1-1.9c1.9,0.9,2.9,3.2,2.1,5.1c0.8,0.2,1.5,0.4,2.5,0.6l0,0c0-2.1,1.7-3.8,3.8-3.7s3.7,1.9,3.6,4V52
	c0.9-0.1,1.8-0.2,2.7-0.4l0,0c-0.7-2,0.3-4.2,2.3-4.9s4.2,0.3,4.9,2.3l0,0c0.7-0.4,1.4-0.8,2.1-1.3l-0.1-0.1c-1.4-1.6-1.3-4,0.2-5.4
	c1.6-1.4,4-1.3,5.4,0.2l0.1,0.1c0.6-0.7,1.1-1.4,1.6-2.2l0,0c-1.9-0.9-2.8-3.2-1.9-5.1c0.9-1.9,3.2-2.8,5.1-1.9v-0.1
	c0.2-0.8,0.4-1.6,0.6-2.6h-0.1c-2.1,0-3.8-1.8-3.7-3.9s1.9-3.7,4-3.6l0,0c-0.1-0.9-0.2-1.7-0.4-2.5c-2,0.7-4.2-0.3-4.9-2.3
	s0.3-4.2,2.2-4.9c-0.4-0.7-0.9-1.5-1.3-2.2c-1.6,1.4-4,1.3-5.4-0.3C40.4,9.3,40.5,7,42,5.5c-0.7-0.5-1.3-1-2-1.5
	c-0.9,1.9-3.2,2.7-5.1,1.8c-1.9-0.9-2.7-3.1-1.9-5c-0.8-0.2-1.6-0.4-2.4-0.6c-0.2,2-1.9,3.6-4,3.5c-2-0.1-3.6-1.7-3.7-3.8
	c-0.8,0.1-1.7,0.2-2.5,0.4c0.6,1.9-0.4,4-2.3,4.8C16.2,5.8,14,4.9,13.2,3c-0.7,0.4-1.4,0.8-2.1,1.3C12.3,5.9,12.1,8.2,10.6,9.6z
	 M28.3,23.2c1.5,1.6,1.4,4.1-0.2,5.6s-4.1,1.4-5.6-0.2C21,27,21.1,24.5,22.7,23C24.4,21.5,26.9,21.6,28.3,23.2z"/>
<g id="New_Symbol_15">
</g>
<g id="New_Symbol">
</g>
</svg>
