<?xml version="1.0" encoding="utf-8"?>
<!-- Generator: Adobe Illustrator 21.0.0, SVG Export Plug-In . SVG Version: 6.00 Build 0)  -->
<svg version="1.1" id="Layer_1" xmlns="http://www.w3.org/2000/svg" xmlns:xlink="http://www.w3.org/1999/xlink" x="0px" y="0px"
	 viewBox="0 0 85 195" style="enable-background:new 0 0 85 195;" xml:space="preserve">
<style type="text/css">
	.st0{fill:#E0BB95;}
	.st1{fill:#F7971D;}
	.st2{fill:#E9721D;}
	.st3{fill:#884537;}
	.st4{fill:#FFFFFF;}
	.st5{fill:#333333;}
	.st6{opacity:0.2;enable-background:new    ;}
	.st7{fill:#B3B3B3;}
	.st8{fill:#8C7665;}
	.st9{opacity:0.34;fill:url(#SVGID_1_);enable-background:new    ;}
	.st10{opacity:0.34;fill:url(#SVGID_2_);enable-background:new    ;}
</style>
<g>
	<g>
		<circle class="st0" cx="27.5" cy="125.2" r="5.1"/>
		<circle class="st0" cx="74.8" cy="126.9" r="5.1"/>
		<path class="st0" d="M82.4,127.3c-2.1-0.1-4.2-0.8-5.9-2c-0.7-0.5-0.9-1.6-0.4-2.3c0.5-0.7,1.6-0.9,2.3-0.4c1.3,1,2.9,1.4,4.5,1.4
			c0.9-0.1,1.7,0.6,1.8,1.5c0.1,0.9-0.5,1.7-1.3,1.8C83.1,127.3,82.7,127.3,82.4,127.3z"/>
		<path class="st1" d="M28.3,81.6c0,0,11.1-23.2,21.2-28c0,0-5.3,21.7,0.5,28.5L28.3,81.6z"/>
		<path class="st2" d="M41.7,81.6c0,0,3-21.8,7.8-28c0,0-5.3,21.7,0.5,28.5L41.7,81.6z"/>
		<path class="st0" d="M52.9,94.2c0,7.4-6,13.5-13.4,13.5h-0.1l0,0c-7.5,0-13.5-6-13.5-13.5l0,0c0-7.4,6-13.5,13.4-13.5h0.1l0,0
			C46.9,80.8,52.9,86.8,52.9,94.2z"/>
		<path class="st3" d="M50.8,85.3c0,9.8-5.8,17.8-13,17.8s-13-8-13-17.8"/>
		<path class="st1" d="M21.9,129.2c-0.6,0-1.2-0.1-1.7-0.4c-1.4-0.7-2.2-2.2-2.1-3.8c0-3.8,3.7-11.5,8.8-14.2c1.4-0.7,3-0.2,3.7,1.2
			s0.2,3-1.2,3.7c-2.2,1.1-4.2,4.4-5.2,6.8c0.8,0,1.6,0.4,2.1,1.1c0.9,1.2,0.6,3-0.6,3.9C24.7,128.6,23.4,129.2,21.9,129.2z"/>
		<path class="st1" d="M52.5,139.9c0,7.6-6.1,13.7-13.7,13.7s-13.7-6.1-13.7-13.7v-18.7c0-7.6,6.1-13.7,13.7-13.7
			s13.7,6.1,13.7,13.7l0,0V139.9z"/>
		<path class="st2" d="M71.3,129.2L71.3,129.2c-7.5-0.4-17-7.6-22.2-11.5c-0.4-0.3-0.8-0.6-1.1-0.9c-1.2-0.9-1.5-2.7-0.6-3.9
			c0.9-1.2,2.7-1.5,3.9-0.6l0,0c0.4,0.3,0.8,0.6,1.2,0.9c4,3,13.4,10.1,19,10.4c1.5,0.1,2.7,1.4,2.6,2.9
			C74,128,72.8,129.2,71.3,129.2z"/>
		<path class="st2" d="M52.5,121.2v18.7c-0.1,7.3-5.9,13.3-13.2,13.5c4.4-0.4,8-6.3,8-13.5v-18.7c0-7.2-3.6-13.1-8-13.5
			C46.6,108,52.4,113.9,52.5,121.2z"/>
		<polyline class="st4" points="32.7,148.4 32.7,166.6 40.6,166.6 40.6,148.4 		"/>
		<polyline class="st2" points="32.7,148.4 32.7,160.1 40.6,160.1 40.6,148.4 		"/>
		<path class="st5" d="M40.9,165.4h-8.2c-2.7,5.2-4.2,5.4-5.1,1.6c0,0-1,6.2,7.5,6.2c3.3,0.1,6-2.5,6.1-5.8
			C41.2,166.7,41.1,166,40.9,165.4z"/>
		<path class="st5" d="M27.6,166.9l4.6,0.3c0.6-0.1,1.2,0.1,1.6,0.5c0.3,0.4,0.5,0.8,0.6,1.3c0.2,0.5,0.2,1.1,0,1.6
			c-0.4,0.7-4.5,0.7-5.3,0.7L27.6,166.9z"/>
		<polyline class="st4" points="51,148.4 51,166.6 43.2,166.6 43.2,148.4 		"/>
		<polyline class="st2" points="51,148.4 51,160.1 43.2,160.1 43.2,148.4 		"/>
		<path class="st5" d="M42.9,165.4h8.2c2.7,5.2,9.8,5.4,10.8,1.6c0,0,3.8,7.3-13.2,6.2C44.6,172.9,41.5,169.2,42.9,165.4z"/>
		<rect x="25.2" y="132.8" class="st5" width="27.3" height="6.5"/>
		<circle class="st4" cx="51.6" cy="51.4" r="2.9"/>
		<path class="st0" d="M25.8,91.3l-4.5-6.1c0,0-2.6,15.8,6.1,13.8L25.8,91.3z"/>
		<path class="st0" d="M51.6,91.3l4.5-6.1c0,0,2.6,15.8-6.1,13.8L51.6,91.3z"/>
		<path class="st4" d="M55.1,84.6c0,1-1.1,1.3-2.1,1.3H26.1c-1,0-2.3-0.3-2.3-1.3v-3.3c0-1,1.3-1.9,2.3-1.9H53c1.1,0,2,0.8,2.1,1.9
			V84.6z"/>
		<ellipse class="st6" cx="42.9" cy="191.2" rx="35.9" ry="3.3"/>
		<rect x="37.2" y="148.4" class="st7" width="3.3" height="41.7"/>
		<path class="st8" d="M20.7,153.6v-18.5c0-7.5,7-13.5,16.3-13.5s16.3,6.1,16.3,13.5v18.5H20.7z"/>
		<path class="st8" d="M23.2,153.6v-4.4c0-1.8,7-3.2,16.3-3.2s16.3,1.4,16.3,3.2v4.4H23.2z"/>
		<ellipse class="st7" cx="39" cy="190.9" rx="12.4" ry="1.3"/>
	</g>
	<g>
		
			<linearGradient id="SVGID_1_" gradientUnits="userSpaceOnUse" x1="12.4" y1="-483.4078" x2="12.4" y2="-547.4361" gradientTransform="matrix(1 0 0 -1 0 -508)">
			<stop  offset="0" style="stop-color:#FFFFFF"/>
			<stop  offset="0.8601" style="stop-color:#FFFFFF;stop-opacity:0"/>
		</linearGradient>
		<path class="st9" d="M0.2,24.9L24.6,0.5H13.1C8.8,4.8,4.6,9,0.3,13.3L0.2,24.9z"/>
		
			<linearGradient id="SVGID_2_" gradientUnits="userSpaceOnUse" x1="25.5" y1="-481.3858" x2="25.5" y2="-550.4975" gradientTransform="matrix(1 0 0 -1 0 -508)">
			<stop  offset="0" style="stop-color:#FFFFFF"/>
			<stop  offset="0.8601" style="stop-color:#FFFFFF;stop-opacity:0"/>
		</linearGradient>
		<path class="st10" d="M28.6,0.6L0.3,28.9V51c15.2-15.4,35-35.2,50.4-50.5L28.6,0.6z"/>
	</g>
</g>
</svg>
