<svg xmlns="http://www.w3.org/2000/svg" viewBox="0 0 275 190" enable-background="new 0 0 275 190"><path fill="none" d="M0 0h275v190H0z"/><path fill="#039BE5" d="M211.9 93.4c-.2 0-.4 0-.6-.1-.6-.1-14.1-3.5-22.4-6.8-1.3-.5-1.9-2-1.4-3.3s2-1.9 3.3-1.4c7.9 3.2 21.6 6.5 21.7 6.6 1.3.3 2.2 1.7 1.8 3-.3 1.2-1.3 2-2.4 2z"/><path fill="#FDE08C" d="M216 90.8c.1 2-1.5 3.7-3.5 3.7-2 .1-3.7-1.5-3.7-3.5-.1-2 1.5-3.7 3.5-3.7 2-.1 3.6 1.5 3.7 3.5"/><path fill="#BA9A60" d="M190 164c-2.1 0-3.8-1.6-4-3.7-.2-2.2 1.5-4.1 3.7-4.3 19.8-1.4 20.2-5.2 20.3-6.4.3-3-7.4-11.1-19.1-18.1-1.9-1.1-2.5-3.6-1.4-5.5s3.6-2.5 5.5-1.4c5.7 3.4 24 15.3 22.9 25.9-1.1 10.3-14 12.6-27.7 13.6 0-.1-.1-.1-.2-.1z"/><path fill="#BA9A60" d="M146.4 177.1c-.7 0-1.5-.2-2.1-.6-28.6-18.1-23.9-51.7-23.6-53.1.3-2.2 2.4-3.7 4.6-3.4 2.2.3 3.7 2.4 3.4 4.5-.2 1.2-4.1 29.8 20 45.2 1.9 1.2 2.4 3.7 1.2 5.5-.9 1.2-2.2 1.9-3.5 1.9z"/><path fill="#D5B06E" d="M185 138c-11.7 0-21.9-1.5-30.9-2.8-7.9-1.1-15.4-2.2-23.1-2.2-11 0-20-9-20-20s9-20 20-20c10.5 0 19.8 1.3 28.8 2.6 8.5 1.2 16.4 2.4 25.2 2.4 11 0 20 9 20 20s-9 20-20 20z"/><path fill="#D5B06E" d="M191 121c-5.5 0-10-4.5-10-10 0-2 .6-3.8 1.6-5.4 2.1-5.3 8.9-29.8 8.9-40.6 0-5.5 4.5-10 10-10s10 4.5 10 10c0 8.8-2.8 21.6-5.2 30.8-1.2 4.7-2.5 9.4-3.7 13-1.8 5.5-3.9 12.2-11.6 12.2zm0-20c-1.2 0-2.3.2-3.3.6 1-.4 2.1-.6 3.3-.6z"/><path fill="#E2E3E4" d="M120.8 100.5c-3.6 0-6.6-2.8-6.6-6.3 0-16 9.9-17.7 12.9-17.7v17.7c-.1 3.5-2.7 6.3-6.3 6.3"/><path fill="#B9BBBD" d="M203.5 45.5c-.8 0-1.5-.7-1.5-1.5V32.5c0-3.1 2.2-5.5 4.9-5.5h5.8c1.1 0 2.3-.7 2.3-2v-5c0-2.8 2.3-5.1 5.1-5.1h9.2c.6 0 1.1-.2 1.5-.6.4-.4.7-1 .7-1.7l.1-5.5c0-.8.7-1.5 1.5-1.5s1.5.7 1.5 1.5l-.1 5.5c0 1.4-.5 2.7-1.5 3.8-1 1-2.3 1.5-3.6 1.5h-9.2c-1.2 0-2.1.9-2.1 2.1v5c0 2.8-2.3 5-5.3 5H207c-1.2 0-1.9 1.3-1.9 2.5V44c-.1.8-.8 1.5-1.6 1.5z"/><path fill="#B9BBBD" d="M203 37h-7.3c-2.8 0-4.7-2-4.7-4.9v-5.8c0-3.1 2-5.3 4.7-5.3h8.7c1.3 0 2.5-1 2.5-2.2V9.3c0-3 2.1-5.3 4.9-5.3h5.1c.8 0 1.5.7 1.5 1.5S217.8 7 217 7h-5.1c-1.3 0-1.9 1.1-1.9 2.3v9.5c0 2.8-2.5 5.2-5.5 5.2h-8.7c-1.3 0-1.7 1.2-1.7 2.3v5.8c0 1.9 1.3 1.9 1.7 1.9h7.3c.8 0 1.5.7 1.5 1.5s-.8 1.5-1.6 1.5z"/><path fill="#B9BBBD" d="M208 16h-6.4c-2.8 0-4.6-2-4.6-5.1V4c0-.8.7-1.5 1.5-1.5s1.5.7 1.5 1.5v6.9c0 2.1 1.2 2.1 1.6 2.1h6.4c.8 0 1.5.7 1.5 1.5s-.7 1.5-1.5 1.5z"/><path fill="#B9BBBD" d="M226 25h-9c-.8 0-1.5-.7-1.5-1.5s.7-1.5 1.5-1.5h9c.8 0 1.5.7 1.5 1.5s-.7 1.5-1.5 1.5z"/><path fill="#D5B06E" d="M216.7 55.1c0-12.7-13.6-15.1-18.3-10.4 0 0-11.6 6.1-18.7 11.6-7.2 5.5-2.8 10.5 2.2 10.5h22.6c5.9 0 12.2-4.2 12.2-11.7"/><path fill="#884537" d="M168.8 61.5c0 2.5 2 4.5 4.5 4.5s4.5-2 4.5-4.5-2-4.5-4.5-4.5-4.5 2-4.5 4.5"/><path fill="#28B04B" d="M174 137.6l-30.4-3.4 1.7-40.7 29.7 4z"/><path fill="#F2B31B" d="M175 132c-7.8 0-31.4-3.8-32.4-4-1.1-.2-1.8-1.2-1.7-2.3.2-1.1 1.2-1.8 2.3-1.7.2 0 24.2 3.9 31.7 3.9 1.1 0 2 .9 2 2s-.8 2.1-1.9 2.1z"/><path fill="#039BE5" d="M166.5 99.5c-5.1 1.1-10.2-2.2-11.3-7.3-1.1-5.1 2.2-10.2 7.3-11.3l12.8-2.7c5.1-1.1 10.2 2.2 11.3 7.3 1.1 5.1-2.2 10.2-7.3 11.3l-12.8 2.7z"/><path fill="#0277BD" d="M186.6 85.5c1.1 5.1-3.1 5.9-8.2 7l-12.8 2.7c-5.1 1.1-9.3 2.1-10.4-3 1.1 5.1 6.1 8.4 11.3 7.3l12.8-2.7c5.1-1.1 8.4-6.2 7.3-11.3"/><path fill="#58595B" d="M166.508 99.495l-3.963-18.582 4.597-.98 3.963 18.58z"/><path fill="#FDD500" d="M166.412 100.072l-.272-1.27 5.28-1.13.273 1.273z"/><path fill="#039BE5" d="M172.8 110.2c-.7 0-1.4-.3-1.9-.9-.6-.7-4.5-4.2-7.1-6.5-1.9-1.7-3.6-3.2-4.5-4.1-1-.9-1.1-2.5-.1-3.5.9-1 2.5-1.1 3.5-.1.9.8 2.6 2.3 4.4 4 4.1 3.6 6.8 6.1 7.6 6.9.9 1 .8 2.6-.3 3.5-.4.5-1 .7-1.6.7z"/><path fill="#fff" d="M172.6 103.7l7.8 8.9-3.8 3.2-7.7-8.8"/><path fill="#58595B" d="M175.8 115.4l4.3-3.8c3.9 1.5 7.6-1.7 6.4-4.2 0 0 5.4 2.1-4.1 9.4-2.2 1.7-5.6 1.2-6.6-1.4"/><path fill="#884537" d="M199 58c-.6 0-1-.4-1-1 0-1.1-.9-2-2-2s-2 .9-2 2c0 .6-.4 1-1 1s-1-.4-1-1c0-2.2 1.8-4 4-4s4 1.8 4 4c0 .6-.4 1-1 1z"/><path fill="#FDE08C" d="M181.1 73.5c-2.2 4.7-.2 10.4 4.5 12.6s10.4.2 12.6-4.5c2.2-4.7.2-10.4-4.5-12.6-4.7-2.3-10.3-.3-12.6 4.5"/><path fill="#AE5F2D" d="M189.3 68c1.5-.1 3 .2 4.4.9 4.7 2.2 6.8 7.9 4.5 12.6-1 2.1-2.7 3.7-4.6 4.6-7-6-5.5-14.3-4.3-18.1"/><path fill="#FDE08C" d="M186.2 78.6l7.6-4.3s-3.1 10.8-8 7l.4-2.7z"/><path fill="#FDE08C" d="M182.6 73.7l-9.2-1.5c-.9-.4-1.5.9-.2 1.5l9.6 4.5-.2-4.5z"/><path fill="#0277BD" d="M185.5 68.1c3.4-3.1 12.6-15.3 30.7 7.8 0 0-16.7-7.5-15-1.5l-15.7-6.3z"/><path fill="#039BE5" d="M189.7 69.2s7.4-17.2 26.6 6.7c0 0-16.7-7.5-15-1.5l-11.6-5.2z"/><path fill="#fff" d="M182.9 68.2c-.3.6 0 1.4.6 1.7l17.1 8c.6.3 1.4 0 1.7-.6l1-2.1c.3-.6 0-1.4-.6-1.7l-17.1-8c-.6-.3-1.4 0-1.7.6l-1 2.1z"/><circle fill="#fff" cx="215.9" cy="76.2" r="2.6"/><path fill="#58595B" d="M186.2 75l-.9-.4c.2-.5 0-1.1-.5-1.3-.2-.1-.5-.1-.8 0s-.5.3-.6.5l-.9-.4c.2-.5.6-.8 1.1-1s1.1-.2 1.5 0c1.1.4 1.6 1.7 1.1 2.6z"/><path fill="#D5B06E" d="M165 167c-.2 0-.5 0-.7-.1-33.4-5.8-41.9-38.6-42.2-40-.5-2.1.8-4.3 2.9-4.8s4.3.8 4.8 2.9c.3 1.2 7.6 29.2 35.8 34 2.2.4 3.6 2.4 3.3 4.6-.3 2-2 3.4-3.9 3.4z"/><path fill="#D5B06E" d="M226 169c-.2 0-.5 0-.7-.1-33.4-5.8-41.9-38.6-42.2-40-.5-2.1.8-4.3 2.9-4.8 2.1-.5 4.3.8 4.8 2.9.3 1.2 7.6 29.2 35.8 34 2.2.4 3.6 2.4 3.3 4.6-.3 2-2 3.4-3.9 3.4z"/><path fill="#039BE5" d="M206 100.8c-.3 0-.6-.1-1-.2-.5-.2-13.4-5.6-21.1-10.2-1.2-.7-1.6-2.2-.9-3.4s2.2-1.6 3.4-.9c7.3 4.4 20.3 9.8 20.4 9.9 1.3.5 1.9 2 1.3 3.3-.2.9-1.1 1.5-2.1 1.5z"/><path fill="#FDE08C" d="M210.1 98.8c-.3 2-2.1 3.4-4 3.1-2-.3-3.4-2.1-3.1-4 .3-2 2.1-3.4 4-3.1 2 .2 3.4 2.1 3.1 4"/></svg>