<svg xmlns="http://www.w3.org/2000/svg" viewBox="0 0 65 112"><path fill="none" d="M0 0h65v112H0z"/><path fill="#78909C" d="M1 81h10.4l.6.4V112h3V85.2l14.4 14.3L17 112h5.3l7.6-8v8h4v-8l8.1 8h5.3L34.8 99.4 49 85.2V112h4V81.4l.1-.4H64V19h-.6L32.1 1.4.7 19H1v62zm33 0h13.8L34 94.9V81zm-4 0v13.9L16.7 81H30z"/><path fill="#231F20" d="M12 112h3V85.2l14.4 14.2L17 112h5.4l7.6-8v8h4v-8l8.1 8h5.4L34.8 99.4 49 85.2V112h4V81.4l.1-.4h-5.3L34 94.9V81h-4v13.9L16.7 81h-5.3l.6.4zm27-93h-7l.1-17.6L64 19.2V81H39z" opacity=".1"/><g fill="#fff"><path d="M18.2 81c0 4.5-3.6 8.1-8.1 8.1S2 85.5 2 81h16.2z"/><path d="M10.1 90.1C5.1 90.1 1 86 1 81c0-.6.4-1 1-1h16.2c.6 0 1 .4 1 1 0 5-4.1 9.1-9.1 9.1zm-7-8.1c.5 3.4 3.4 6.1 7 6.1s6.5-2.7 7-6.1h-14z"/></g><g fill="#fff"><path d="M34.4 81c0 4.5-3.6 8.1-8.1 8.1s-8.1-3.6-8.1-8.1h16.2z"/><path d="M26.3 90.1c-5 0-9.1-4.1-9.1-9.1 0-.6.4-1 1-1h16.2c.6 0 1 .4 1 1 0 5-4.1 9.1-9.1 9.1zM19.2 82c.5 3.4 3.4 6.1 7 6.1s6.5-2.7 7-6.1h-14z"/></g></svg>