<?xml version="1.0" encoding="utf-8"?>
<!-- Generator: Adobe Illustrator 21.0.0, SVG Export Plug-In . SVG Version: 6.00 Build 0)  -->
<svg version="1.1" id="Layer_1" xmlns="http://www.w3.org/2000/svg" xmlns:xlink="http://www.w3.org/1999/xlink" x="0px" y="0px"
	 viewBox="0 0 450 270" style="enable-background:new 0 0 450 270;" xml:space="preserve">
<style type="text/css">
	.st0{opacity:0.2;enable-background:new    ;}
	.st1{fill:#AB47BC;}
	.st2{fill:#7CB342;}
	.st3{fill:#B39DDB;}
	.st4{fill:#FCE68D;}
	.st5{opacity:0.1;fill:#231F20;enable-background:new    ;}
	.st6{fill:#FFFFFF;stroke:#FFFFFF;stroke-width:2;stroke-linejoin:round;stroke-miterlimit:10;}
</style>
<path class="st0" d="M250,41L56,146v10c0,4.4,3.6,8,8,8s8-3.6,8-8c0,4.4,3.6,8,8,8c0,0,0,0-0.1,0h-0.1v12h0.1H80v94h340v-94v-12l0,0
	c0.1,0,0.1,0,0.2,0c4.4,0,8-3.6,8-8c0,4.4,3.6,8,8,8s8-3.6,8-8v-10L250,41z"/>
<g>
	<rect x="30" y="106" class="st1" width="340" height="164"/>
	<path class="st2" d="M200,1L6,106v10c0,4.4,3.6,8,8,8s8-3.6,8-8c0,4.4,3.6,8,8,8l0,0h0.1c4.5,0,8.1-3.6,8.1-8c0,4.4,3.6,8,8.1,8
		s8.1-3.6,8.1-8c0,4.4,3.6,8,8.1,8s8.1-3.6,8.1-8c0,4.4,3.6,8,8.1,8s8.1-3.6,8.1-8c0,4.4,3.6,8,8.1,8s8.1-3.6,8.1-8
		c0,4.4,3.6,8,8.1,8s8.1-3.6,8.1-8c0,4.4,3.6,8,8.1,8s8.1-3.6,8.1-8c0,4.4,3.6,8,8.1,8s8.1-3.6,8.1-8c0,4.4,3.6,8,8.1,8
		s8.1-3.6,8.1-8c0,4.4,3.6,8,8.1,8s8.1-3.6,8.1-8c0,4.4,3.6,8,8.1,8s8.1-3.6,8.1-8c0,4.4,3.6,8,8.1,8s8.1-3.6,8.1-8
		c0,4.4,3.6,8,8.1,8s8.1-3.6,8.1-8c0,4.4,3.6,8,8.1,8s8.1-3.6,8.1-8c0,4.4,3.6,8,8.1,8s8.1-3.6,8.1-8c0,4.4,3.6,8,8.1,8
		s8.1-3.6,8.1-8c0,4.4,3.6,8,8.1,8s8.1-3.6,8.1-8c0,4.4,3.6,8,8.1,8s8.1-3.6,8.1-8c0,4.4,3.6,8,8.1,8s8.1-3.6,8.1-8
		c0,4.4,3.6,8,8.1,8s8.1-3.6,8.1-8c0,4.4,3.6,8,8.1,8s8.1-3.6,8.1-8c0,4.4,3.6,8,8,8s8-3.6,8-8c0,4.4,3.6,8,8,8s8-3.6,8-8v-10L200,1
		z"/>
	<g>
		<rect x="109" y="152" class="st3" width="27" height="27"/>
		<rect x="142" y="152" class="st3" width="27" height="27"/>
	</g>
	<g>
		<rect x="229" y="152" class="st4" width="27" height="27"/>
		<rect x="262" y="152" class="st4" width="27" height="27"/>
	</g>
	<g>
		<rect x="109" y="185" class="st3" width="27" height="27"/>
		<rect x="142" y="185" class="st3" width="27" height="27"/>
	</g>
	<g>
		<rect x="229" y="185" class="st4" width="27" height="27"/>
		<rect x="262" y="185" class="st4" width="27" height="27"/>
	</g>
	<path class="st5" d="M362,116c0,4.4-3.6,8-8.1,8s-8.1-3.6-8.1-8c0,4.4-3.6,8-8.1,8s-8.1-3.6-8.1-8c0,4.4-3.6,8-8.1,8
		s-8.1-3.6-8.1-8c0,4.4-3.6,8-8.1,8s-8.1-3.6-8.1-8c0,4.4-3.6,8-8.1,8s-8.1-3.6-8.1-8c0,4.4-3.6,8-8.1,8s-8.1-3.6-8.1-8
		c0,4.4-3.6,8-8.1,8s-8.1-3.6-8.1-8c0,4.4-3.6,8-8.1,8s-8.1-3.6-8.1-8c0,4.4-3.6,8-8.1,8s-8.1-3.6-8.1-8c0,4.4-3.6,8-8.1,8
		s-8.1-3.6-8.1-8c0,4.4-3.6,8-8.1,8s-8.1-3.6-8.1-8c0,4.4-3.6,8-8.1,8s-8.1-3.6-8.1-8c0,4.4-3.6,8-8.1,8s-8.1-3.6-8.1-8
		c0,4.4-3.6,8-8.1,8s-8.1-3.6-8.1-8c0,4.4-3.6,8-8.1,8s-8.1-3.6-8.1-8c0,4.4-3.6,8-8.1,8s-8.1-3.6-8.1-8c0,4.4-3.6,8-8.1,8
		s-8.1-3.6-8.1-8c0,4.4-3.6,8-8.1,8s-8.1-3.6-8.1-8c0,4.4-3.6,8-8.1,8s-8.1-3.6-8.1-8c0,4.4-3.6,8-8.1,8s-8.1-3.6-8.1-8
		c0,4.4-3.6,8-8.1,8h-0.1v12h0.1c4.5,0,8.1-3.6,8.1-8c0,4.4,3.6,8,8.1,8s8.1-3.6,8.1-8c0,4.4,3.6,8,8.1,8s8.1-3.6,8.1-8
		c0,4.4,3.6,8,8.1,8s8.1-3.6,8.1-8c0,4.4,3.6,8,8.1,8s8.1-3.6,8.1-8c0,4.4,3.6,8,8.1,8s8.1-3.6,8.1-8c0,4.4,3.6,8,8.1,8
		c4.5,0,8.1-3.6,8.1-8c0,4.4,3.6,8,8.1,8s8.1-3.6,8.1-8c0,4.4,3.6,8,8.1,8s8.1-3.6,8.1-8c0,4.4,3.6,8,8.1,8s8.1-3.6,8.1-8
		c0,4.4,3.6,8,8.1,8s8.1-3.6,8.1-8c0,4.4,3.6,8,8.1,8s8.1-3.6,8.1-8c0,4.4,3.6,8,8.1,8s8.1-3.6,8.1-8c0,4.4,3.6,8,8.1,8
		s8.1-3.6,8.1-8c0,4.4,3.6,8,8.1,8s8.1-3.6,8.1-8c0,4.4,3.6,8,8.1,8s8.1-3.6,8.1-8c0,4.4,3.6,8,8.1,8s8.1-3.6,8.1-8
		c0,4.4,3.6,8,8.1,8s8.1-3.6,8.1-8c0,4.4,3.6,8,8.1,8s8.1-3.6,8.1-8c0,4.4,3.6,8,8.1,8s8.1-3.6,8.1-8c0,4.4,3.6,8,8.1,8
		s8.1-3.6,8.1-8c0,4.4,3.6,8,8,8v-12C365.6,124,362,120.4,362,116z"/>
	<g>
		<path class="st6" d="M45.2,102c0,4-3.6,8.1-8.1,8.1S29,106,29,102H45.2z"/>
		<path class="st6" d="M61.4,102c0,4-3.6,8.1-8.1,8.1s-8.1-4.1-8.1-8.1H61.4z"/>
		<path class="st6" d="M77.5,102c0,4-3.6,8.1-8.1,8.1s-8.1-4.1-8.1-8.1H77.5z"/>
	</g>
	<g>
		<path class="st6" d="M137.2,212c0,4.5-3.6,8.1-8.1,8.1s-8.1-3.6-8.1-8.1H137.2z"/>
		<path class="st6" d="M153.4,212c0,4.5-3.6,8.1-8.1,8.1s-8.1-3.6-8.1-8.1H153.4z"/>
		<path class="st6" d="M169.5,212c0,4.5-3.6,8.1-8.1,8.1s-8.1-3.6-8.1-8.1H169.5z"/>
	</g>
	<g>
		<path class="st6" d="M259.7,102c0,4-3.6,8.1-8.1,8.1s-8.1-4.1-8.1-8.1H259.7z"/>
		<path class="st6" d="M275.9,102c0,4-3.6,8.1-8.1,8.1s-8.1-4.1-8.1-8.1H275.9z"/>
		<path class="st6" d="M292.1,102c0,4-3.6,8.1-8.1,8.1s-8.1-4.1-8.1-8.1H292.1z"/>
	</g>
	<g>
		<path class="st6" d="M313.6,102c0,4-3.6,8.1-8.1,8.1s-8.1-4.1-8.1-8.1H313.6z"/>
		<path class="st6" d="M329.8,102c0,4-3.6,8.1-8.1,8.1s-8.1-4.1-8.1-8.1H329.8z"/>
		<path class="st6" d="M346,102c0,4-3.6,8.1-8.1,8.1s-8.1-4.1-8.1-8.1H346z"/>
	</g>
</g>
</svg>
