<svg xmlns="http://www.w3.org/2000/svg" xmlns:xlink="http://www.w3.org/1999/xlink" viewBox="0 0 186 466"><path fill="none" d="M0 0h186v466H0z"/><path fill="#019049" d="M92.9 1.3L1 268h183.9z"/><defs><path id="a" d="M92.9 1.3L1 268h183.9z"/></defs><clipPath id="b"><use xlink:href="#a" overflow="visible"/></clipPath><g clip-path="url(#b)" fill="#07A860"><path d="M92.9 264.8L-30.7 140.1l5.6-5.6 118 119 118-118 5.7 5.6z"/><path d="M92.9 345.2L-30.7 220.5l5.6-5.6 118 118.9 118-118 5.7 5.7z"/><path d="M92.9 425.5L-30.7 300.9l5.6-5.7 118 119 118-118 5.7 5.7zm0-402.8L-30.7-100.9l5.6-5.7 118 118 118-118 5.7 5.7z"/><path d="M92.9 104.1L-30.7-20.6l5.6-5.6 118 119 118-118 5.7 5.6z"/><path d="M92.9 184.5L-30.7 59.8l5.6-5.7 118 119 118-118 5.7 5.7z"/><path d="M92.9 286.8L-30.7 162.1l5.6-5.6 118 119 118-118 5.7 5.6z"/><path d="M92.9 367.2L-30.7 242.5l5.6-5.6 118 118.9 118-118 5.7 5.7z"/><path d="M92.9 447.5L-30.7 322.9l5.6-5.7 118 119 118-118 5.7 5.7zm0-402.8L-30.7-78.9l5.6-5.7 118 118 118-118 5.7 5.7z"/><path d="M92.9 126.1L-30.7 1.4l5.6-5.6 118 119 118-118 5.7 5.6z"/><path d="M92.9 206.5L-30.7 81.8l5.6-5.7 118 119 118-118 5.7 5.7z"/></g><g fill="#fff"><path d="M154.4 173c0 5-3.6 8.1-8.1 8.1s-8.1-3.1-8.1-8.1h16.2z"/><path d="M146.3 182.1c-5.3 0-9.1-3.8-9.1-9.1 0-.6.4-1 1-1h16.2c.6 0 1 .4 1 1 0 5.3-3.8 9.1-9.1 9.1zm-7-8.1c.4 3.6 3.2 6.1 7 6.1s6.6-2.5 7-6.1h-14z"/></g><g fill="#fff"><path d="M68.4 104c0 5-3.6 8.1-8.1 8.1s-8.1-3.1-8.1-8.1h16.2z"/><path d="M60.3 113.1c-5.3 0-9.1-3.8-9.1-9.1 0-.6.4-1 1-1h16.2c.6 0 1 .4 1 1 0 5.3-3.8 9.1-9.1 9.1zm-7-8.1c.4 3.6 3.2 6.1 7 6.1s6.6-2.5 7-6.1h-14z"/></g><path fill="#725D4C" d="M79 268h28v198H79z"/><path fill="#A1887F" d="M7 350h171v9H7z"/><path fill="#8D6E63" d="M7 313h171v6H7z"/><path fill="#3E2723" d="M121 350h57v9h-57zm0-37h57v6h-57z" opacity=".4"/><path fill="#8D6E63" d="M166 319h6v31h-6zm-74 51h18v6H92zm0 20h18v6H92zm0 20h18v6H92zm0 20h18v6H92zm55-111h6v31h-6zm-19 0h6v31h-6z"/><path fill="#3E2723" d="M166 319h6v31h-6zm-19 0h6v31h-6zm-19 0h6v31h-6z" opacity=".4"/><path fill="#8D6E63" d="M109 319h6v31h-6zm-20 0h6v31h-6zm-19 0h6v31h-6zm-19 0h6v31h-6zm-19 0h6v31h-6zm-19 0h6v31h-6z"/><path fill="#3E2723" d="M166 346h6v4h-6zm-19 0h6v4h-6zm-19 0h6v4h-6zm-19 0h6v4h-6zm-20 0h6v4h-6zm-19 0h6v4h-6zm-19 0h6v4h-6zm-19 0h6v4h-6zm-19 0h6v4h-6z" opacity=".2"/><path fill="#fff" d="M92.9 1.3L46 268H1z" opacity=".1"/><path fill="#3E2723" d="M79 359h28v17.7l-28-12zm0-91h28v17.7l-28-12zm87 51h6v3.9l-6-2.6zm-19 0h6v3.9l-6-2.6zm-19 0h6v3.9l-6-2.6zm-19 0h6v3.9l-6-2.6zm-20 0h6v3.9l-6-2.6zm-19 0h6v3.9l-6-2.6zm-19 0h6v3.9l-6-2.6zm-19 0h6v3.9l-6-2.6zm-19 0h6v3.9l-6-2.6z" opacity=".2"/><g fill="#fff"><path d="M52.4 263c0 5-3.6 8.1-8.1 8.1s-8.1-3.1-8.1-8.1h16.2z"/><path d="M44.3 272.1c-5.3 0-9.1-3.8-9.1-9.1 0-.6.4-1 1-1h16.2c.6 0 1 .4 1 1 0 5.3-3.8 9.1-9.1 9.1zm-7-8.1c.4 3.6 3.2 6.1 7 6.1s6.6-2.5 7-6.1h-14z"/><path d="M68.6 263c0 5-3.6 8.1-8.1 8.1s-8.1-3.1-8.1-8.1h16.2z"/><path d="M60.5 272.1c-5.3 0-9.1-3.8-9.1-9.1 0-.6.4-1 1-1h16.2c.6 0 1 .4 1 1 0 5.3-3.8 9.1-9.1 9.1zm-7-8.1c.4 3.6 3.2 6.1 7 6.1s6.6-2.5 7-6.1h-14z"/><path d="M84.8 263c0 5-3.6 8.1-8.1 8.1s-8.1-3.1-8.1-8.1h16.2z"/><path d="M76.7 272.1c-5.3 0-9.1-3.8-9.1-9.1 0-.6.4-1 1-1h16.2c.6 0 1 .4 1 1 0 5.3-3.9 9.1-9.1 9.1zm-7.1-8.1c.4 3.6 3.2 6.1 7 6.1s6.6-2.5 7-6.1h-14z"/></g><g fill="#fff"><path d="M109.4 134c0 5-3.6 8.1-8.1 8.1s-8.1-3.1-8.1-8.1h16.2z"/><path d="M101.3 143.1c-5.3 0-9.1-3.8-9.1-9.1 0-.6.4-1 1-1h16.2c.6 0 1 .4 1 1 0 5.3-3.8 9.1-9.1 9.1zm-7-8.1c.4 3.6 3.2 6.1 7 6.1s6.6-2.5 7-6.1h-14z"/></g><g fill="#fff"><path d="M125.6 134c0 5-3.6 8.1-8.1 8.1s-8.1-3.1-8.1-8.1h16.2z"/><path d="M117.5 143.1c-5.3 0-9.1-3.8-9.1-9.1 0-.6.4-1 1-1h16.2c.6 0 1 .4 1 1 0 5.3-3.8 9.1-9.1 9.1zm-7-8.1c.4 3.6 3.2 6.1 7 6.1s6.6-2.5 7-6.1h-14z"/></g><g fill="#fff"><path d="M81.4 56c0 5-3.6 8.1-8.1 8.1S65.2 61 65.2 56h16.2z"/><path d="M73.3 65.1c-5.3 0-9.1-3.8-9.1-9.1 0-.6.4-1 1-1h16.2c.6 0 1 .4 1 1 0 5.3-3.8 9.1-9.1 9.1zm-7-8.1c.4 3.6 3.2 6.1 7 6.1s6.6-2.5 7-6.1h-14z"/></g><g fill="#fff"><path d="M97.6 56c0 5-3.6 8.1-8.1 8.1S81.4 61 81.4 56h16.2z"/><path d="M89.5 65.1c-5.3 0-9.1-3.8-9.1-9.1 0-.6.4-1 1-1h16.2c.6 0 1 .4 1 1 0 5.3-3.8 9.1-9.1 9.1zm-7-8.1c.4 3.6 3.2 6.1 7 6.1s6.6-2.5 7-6.1h-14z"/></g><g fill="#fff"><path d="M132.4 231c0 5-3.6 8.1-8.1 8.1s-8.1-3.1-8.1-8.1h16.2z"/><path d="M124.3 240.1c-5.3 0-9.1-3.8-9.1-9.1 0-.6.4-1 1-1h16.2c.6 0 1 .4 1 1 0 5.3-3.8 9.1-9.1 9.1zm-7-8.1c.4 3.6 3.2 6.1 7 6.1s6.6-2.5 7-6.1h-14z"/></g><g fill="#fff"><path d="M148.6 231c0 5-3.6 8.1-8.1 8.1s-8.1-3.1-8.1-8.1h16.2z"/><path d="M140.5 240.1c-5.3 0-9.1-3.8-9.1-9.1 0-.6.4-1 1-1h16.2c.6 0 1 .4 1 1 0 5.3-3.8 9.1-9.1 9.1zm-7-8.1c.4 3.6 3.2 6.1 7 6.1s6.6-2.5 7-6.1h-14z"/></g><g fill="#fff"><path d="M161.4 314c0 5-3.6 8.1-8.1 8.1s-8.1-3.1-8.1-8.1h16.2z"/><path d="M153.3 323.1c-5.3 0-9.1-3.8-9.1-9.1 0-.6.4-1 1-1h16.2c.6 0 1 .4 1 1 0 5.3-3.8 9.1-9.1 9.1zm-7-8.1c.4 3.6 3.2 6.1 7 6.1s6.6-2.5 7-6.1h-14z"/></g><g fill="#fff"><path d="M177.6 314c0 5-3.6 8.1-8.1 8.1s-8.1-3.1-8.1-8.1h16.2z"/><path d="M169.5 323.1c-5.3 0-9.1-3.8-9.1-9.1 0-.6.4-1 1-1h16.2c.6 0 1 .4 1 1 0 5.3-3.8 9.1-9.1 9.1zm-7-8.1c.4 3.6 3.2 6.1 7 6.1s6.6-2.5 7-6.1h-14z"/></g><g fill="#fff"><path d="M141.8 134c0 5-3.6 8.1-8.1 8.1s-8.1-3.1-8.1-8.1h16.2z"/><path d="M133.7 143.1c-5.3 0-9.1-3.8-9.1-9.1 0-.6.4-1 1-1h16.2c.6 0 1 .4 1 1 0 5.3-3.9 9.1-9.1 9.1zm-7.1-8.1c.4 3.6 3.2 6.1 7 6.1s6.6-2.5 7-6.1h-14z"/></g><g fill="#fff"><path d="M60.4 351c0 5-3.6 8.1-8.1 8.1s-8.1-3.1-8.1-8.1h16.2z"/><path d="M52.3 360.1c-5.3 0-9.1-3.8-9.1-9.1 0-.6.4-1 1-1h16.2c.6 0 1 .4 1 1 0 5.3-3.8 9.1-9.1 9.1zm-7-8.1c.4 3.6 3.2 6.1 7 6.1s6.6-2.5 7-6.1h-14z"/></g><g fill="#fff"><path d="M42.4 351c0 5-3.6 8.1-8.1 8.1s-8.1-3.1-8.1-8.1h16.2z"/><path d="M34.3 360.1c-5.3 0-9.1-3.8-9.1-9.1 0-.6.4-1 1-1h16.2c.6 0 1 .4 1 1 0 5.3-3.8 9.1-9.1 9.1zm-7-8.1c.4 3.6 3.2 6.1 7 6.1s6.6-2.5 7-6.1h-14z"/></g></svg>