<svg xmlns="http://www.w3.org/2000/svg" viewBox="0 0 400 270"><path fill="#90A4AE" d="M30 87h340v183H30z"/><path fill="#B0BEC5" d="M73 151h60v113H73z"/><path d="M265 151h27v27h-27zm33 0h27v27h-27zm-33 32h27v27h-27zm33 0h27v27h-27z" fill="#FCE68D"/><path fill="#CFD8DC" d="M68 264h70v6H68zm192-55h70v6h-70z"/><path opacity=".1" fill="#231F20" d="M73 151v7l60 4v-11zm192 0v7l60 4v-11z"/><path fill="#5D4037" d="M213.4 1h-26.7L6 87v10c0 4.4 3.6 8 8 8s8-3.6 8-8c0 4.4 3.6 8 8 8h.1c4.5 0 8.1-3.6 8.1-8 0 4.4 3.6 8 8.1 8s8.1-3.6 8.1-8c0 4.4 3.6 8 8.1 8s8.1-3.6 8.1-8c0 4.4 3.6 8 8.1 8s8.1-3.6 8.1-8c0 4.4 3.6 8 8.1 8s8.1-3.6 8.1-8c0 4.4 3.6 8 8.1 8s8.1-3.6 8.1-8c0 4.4 3.6 8 8.1 8s8.1-3.6 8.1-8c0 4.4 3.6 8 8.1 8s8.1-3.6 8.1-8c0 4.4 3.6 8 8.1 8s8.1-3.6 8.1-8c0 4.4 3.6 8 8.1 8s8.1-3.6 8.1-8c0 4.4 3.6 8 8.1 8s8.1-3.6 8.1-8c0 4.4 3.6 8 8.1 8s8.1-3.6 8.1-8c0 4.4 3.6 8 8.1 8s8.1-3.6 8.1-8c0 4.4 3.6 8 8.1 8s8.1-3.6 8.1-8c0 4.4 3.6 8 8.1 8s8.1-3.6 8.1-8c0 4.4 3.6 8 8.1 8s8.1-3.6 8.1-8c0 4.4 3.6 8 8.1 8s8.1-3.6 8.1-8c0 4.4 3.6 8 8.1 8s8.1-3.6 8.1-8c0 4.4 3.6 8 8.1 8s8.1-3.6 8.1-8c0 4.4 3.6 8 8.1 8s8.1-3.6 8.1-8c0 4.4 3.6 8 8.1 8s8.1-3.6 8.1-8c0 4.4 3.6 8 8 8s8-3.6 8-8c0 4.4 3.6 8 8 8s8-3.6 8-8V87L213.4 1z"/><path opacity=".1" fill="#231F20" d="M362 97c0 4.4-3.6 8-8.1 8s-8.1-3.6-8.1-8c0 4.4-3.6 8-8.1 8s-8.1-3.6-8.1-8c0 4.4-3.6 8-8.1 8s-8.1-3.6-8.1-8c0 4.4-3.6 8-8.1 8s-8.1-3.6-8.1-8c0 4.4-3.6 8-8.1 8s-8.1-3.6-8.1-8c0 4.4-3.6 8-8.1 8s-8.1-3.6-8.1-8c0 4.4-3.6 8-8.1 8s-8.1-3.6-8.1-8c0 4.4-3.6 8-8.1 8s-8.1-3.6-8.1-8c0 4.4-3.6 8-8.1 8s-8.1-3.6-8.1-8c0 4.4-3.6 8-8.1 8s-8.1-3.6-8.1-8c0 4.4-3.6 8-8.1 8s-8.1-3.6-8.1-8c0 4.4-3.6 8-8.1 8s-8.1-3.6-8.1-8c0 4.4-3.6 8-8.1 8s-8.1-3.6-8.1-8c0 4.4-3.6 8-8.1 8s-8.1-3.6-8.1-8c0 4.4-3.6 8-8.1 8s-8.1-3.6-8.1-8c0 4.4-3.6 8-8.1 8s-8.1-3.6-8.1-8c0 4.4-3.6 8-8.1 8s-8.1-3.6-8.1-8c0 4.4-3.6 8-8.1 8s-8.1-3.6-8.1-8c0 4.4-3.6 8-8.1 8s-8.1-3.6-8.1-8c0 4.4-3.6 8-8.1 8s-8.1-3.6-8.1-8c0 4.4-3.6 8-8.1 8h-.1v12h.1c4.5 0 8.1-3.6 8.1-8 0 4.4 3.6 8 8.1 8s8.1-3.6 8.1-8c0 4.4 3.6 8 8.1 8s8.1-3.6 8.1-8c0 4.4 3.6 8 8.1 8s8.1-3.6 8.1-8c0 4.4 3.6 8 8.1 8s8.1-3.6 8.1-8c0 4.4 3.6 8 8.1 8s8.1-3.6 8.1-8c0 4.4 3.6 8 8.1 8s8.1-3.6 8.1-8c0 4.4 3.6 8 8.1 8s8.1-3.6 8.1-8c0 4.4 3.6 8 8.1 8s8.1-3.6 8.1-8c0 4.4 3.6 8 8.1 8s8.1-3.6 8.1-8c0 4.4 3.6 8 8.1 8s8.1-3.6 8.1-8c0 4.4 3.6 8 8.1 8s8.1-3.6 8.1-8c0 4.4 3.6 8 8.1 8s8.1-3.6 8.1-8c0 4.4 3.6 8 8.1 8s8.1-3.6 8.1-8c0 4.4 3.6 8 8.1 8s8.1-3.6 8.1-8c0 4.4 3.6 8 8.1 8s8.1-3.6 8.1-8c0 4.4 3.6 8 8.1 8s8.1-3.6 8.1-8c0 4.4 3.6 8 8.1 8s8.1-3.6 8.1-8c0 4.4 3.6 8 8.1 8s8.1-3.6 8.1-8c0 4.4 3.6 8 8.1 8s8.1-3.6 8.1-8c0 4.4 3.6 8 8.1 8s8.1-3.6 8.1-8c0 4.4 3.6 8 8 8v-12c-4.4 0-8-3.6-8-8z"/><g fill="#fff" stroke="#fff" stroke-width="2" stroke-linejoin="round" stroke-miterlimit="10"><path d="M32.7 89c0 4-3.6 8.1-8.1 8.1S16.5 93 16.5 89h16.2zm16.2 0c0 4-3.6 8.1-8.1 8.1S32.7 93 32.7 89h16.2z"/><path d="M65.1 89c0 4-3.6 8.1-8.1 8.1S48.9 93 48.9 89h16.2z"/></g><g fill="#fff" stroke="#fff" stroke-width="2" stroke-linejoin="round" stroke-miterlimit="10"><path d="M290.2 89c0 4-3.6 8.1-8.1 8.1S274 93 274 89h16.2z"/><path d="M306.4 89c0 4-3.6 8.1-8.1 8.1s-8.1-4.1-8.1-8.1h16.2z"/><path d="M322.5 89c0 4-3.6 8.1-8.1 8.1s-8.1-4.1-8.1-8.1h16.2z"/></g><path d="M313.9 215c0 4.5-3.6 8.1-8.1 8.1s-8.1-3.6-8.1-8.1h16.2zm16.2 0c0 4.5-3.6 8.1-8.1 8.1s-8.1-3.6-8.1-8.1h16.2z" fill="#fff" stroke="#fff" stroke-width="2" stroke-linejoin="round" stroke-miterlimit="10"/><path d="M177 151h27v27h-27zm33 0h27v27h-27zm-33 32h27v27h-27zm33 0h27v27h-27z" fill="#FCE68D"/><path fill="#CFD8DC" d="M172 209h70v6h-70z"/><path opacity=".1" fill="#231F20" d="M177 151v7l60 4v-11z"/><path d="M225.9 215c0 4.5-3.6 8.1-8.1 8.1s-8.1-3.6-8.1-8.1h16.2zm16.2 0c0 4.5-3.6 8.1-8.1 8.1s-8.1-3.6-8.1-8.1h16.2z" fill="#fff" stroke="#fff" stroke-width="2" stroke-linejoin="round" stroke-miterlimit="10"/><circle opacity=".1" fill="#231F20" cx="81" cy="217" r="3"/><circle fill="#A1887F" cx="81" cy="213" r="3"/></svg>