<svg xmlns="http://www.w3.org/2000/svg" xmlns:xlink="http://www.w3.org/1999/xlink" viewBox="0 0 230 466"><g fill="#fff"><path d="M33.4 288c0 5-3.6 8.1-8.1 8.1s-8.1-3.1-8.1-8.1h16.2z"/><path d="M25.3 297.1c-5.3 0-9.1-3.8-9.1-9.1 0-.6.4-1 1-1h16.2c.6 0 1 .4 1 1 0 5.3-3.8 9.1-9.1 9.1zm-7-8.1c.4 3.6 3.2 6.1 7 6.1s6.6-2.5 7-6.1h-14z"/></g><g fill="#fff"><path d="M90.4 104c0 5-3.6 8.1-8.1 8.1s-8.1-3.1-8.1-8.1h16.2z"/><path d="M82.3 113.1c-5.3 0-9.1-3.8-9.1-9.1 0-.6.4-1 1-1h16.2c.6 0 1 .4 1 1 0 5.3-3.8 9.1-9.1 9.1zm-7-8.1c.4 3.6 3.2 6.1 7 6.1s6.6-2.5 7-6.1h-14z"/></g><path fill="none" d="M0 0h230v466H0z"/><path fill="#725D4C" d="M101 285h28v181h-28z"/><path fill="#019049" d="M114.9 1.3L1.7 359h226.5z"/><path fill="#3E2723" d="M101 359h28v17.7l-28-12z" opacity=".2"/><defs><path id="a" d="M114.9 1.3L1.7 359h226.5z"/></defs><clipPath id="b"><use xlink:href="#a" overflow="visible"/></clipPath><g clip-path="url(#b)" fill="#07A860"><path d="M114.9 264.8L-8.7 140.1l5.6-5.6 118 119 118-118 5.7 5.6z"/><path d="M114.9 345.2L-8.7 220.5l5.6-5.6 118 118.9 118-118 5.7 5.7z"/><path d="M114.9 425.5L-8.7 300.9l5.6-5.7 118 119 118-118 5.7 5.7zm0-402.8L-8.7-100.9l5.6-5.7 118 118 118-118 5.7 5.7z"/><path d="M114.9 104.1L-8.7-20.6l5.6-5.6 118 119 118-118 5.7 5.6z"/><path d="M114.9 184.5L-8.7 59.8l5.6-5.7 118 119 118-118 5.7 5.7z"/><path d="M114.9 286.8L-8.7 162.1l5.6-5.6 118 119 118-118 5.7 5.6z"/><path d="M114.9 367.2L-8.7 242.5l5.6-5.6 118 118.9 118-118 5.7 5.7z"/><path d="M114.9 447.5L-8.7 322.9l5.6-5.7 118 119 118-118 5.7 5.7zm0-402.8L-8.7-78.9l5.6-5.7 118 118 118-118 5.7 5.7z"/><path d="M114.9 126.1L-8.7 1.4l5.6-5.6 118 119 118-118 5.7 5.6z"/><path d="M114.9 206.5L-8.7 81.8l5.6-5.7 118 119 118-118 5.7 5.7z"/></g><g fill="#fff"><path d="M176.4 173c0 5-3.6 8.1-8.1 8.1s-8.1-3.1-8.1-8.1h16.2z"/><path d="M168.3 182.1c-5.3 0-9.1-3.8-9.1-9.1 0-.6.4-1 1-1h16.2c.6 0 1 .4 1 1 0 5.3-3.8 9.1-9.1 9.1zm-7-8.1c.4 3.6 3.2 6.1 7 6.1s6.6-2.5 7-6.1h-14z"/></g><path fill="#fff" d="M114.9 1.3L49.8 359H1.7z" opacity=".1"/><g fill="#fff"><path d="M21.4 312c0 5-3.6 8.1-8.1 8.1S5.2 317 5.2 312h16.2z"/><path d="M13.3 321.1c-5.3 0-9.1-3.8-9.1-9.1 0-.6.4-1 1-1h16.2c.6 0 1 .4 1 1 0 5.3-3.8 9.1-9.1 9.1zm-7-8.1c.4 3.6 3.2 6.1 7 6.1s6.6-2.5 7-6.1h-14z"/><path d="M37.6 312c0 5-3.6 8.1-8.1 8.1s-8.1-3.1-8.1-8.1h16.2z"/><path d="M29.5 321.1c-5.3 0-9.1-3.8-9.1-9.1 0-.6.4-1 1-1h16.2c.6 0 1 .4 1 1 0 5.3-3.8 9.1-9.1 9.1zm-7-8.1c.4 3.6 3.2 6.1 7 6.1s6.6-2.5 7-6.1h-14z"/><path d="M53.8 312c0 5-3.6 8.1-8.1 8.1s-8.1-3.1-8.1-8.1h16.2z"/><path d="M45.7 321.1c-5.3 0-9.1-3.8-9.1-9.1 0-.6.4-1 1-1h16.2c.6 0 1 .4 1 1 0 5.3-3.9 9.1-9.1 9.1zm-7.1-8.1c.4 3.6 3.2 6.1 7 6.1s6.6-2.5 7-6.1h-14z"/></g><g fill="#fff"><path d="M184.4 291c0 5-3.6 8.1-8.1 8.1s-8.1-3.1-8.1-8.1h16.2z"/><path d="M176.3 300.1c-5.3 0-9.1-3.8-9.1-9.1 0-.6.4-1 1-1h16.2c.6 0 1 .4 1 1 0 5.3-3.8 9.1-9.1 9.1zm-7-8.1c.4 3.6 3.2 6.1 7 6.1s6.6-2.5 7-6.1h-14z"/><path d="M200.6 291c0 5-3.6 8.1-8.1 8.1s-8.1-3.1-8.1-8.1h16.2z"/><path d="M192.5 300.1c-5.3 0-9.1-3.8-9.1-9.1 0-.6.4-1 1-1h16.2c.6 0 1 .4 1 1 0 5.3-3.8 9.1-9.1 9.1zm-7-8.1c.4 3.6 3.2 6.1 7 6.1s6.6-2.5 7-6.1h-14z"/><path d="M216.8 291c0 5-3.6 8.1-8.1 8.1s-8.1-3.1-8.1-8.1h16.2z"/><path d="M208.7 300.1c-5.3 0-9.1-3.8-9.1-9.1 0-.6.4-1 1-1h16.2c.6 0 1 .4 1 1 0 5.3-3.9 9.1-9.1 9.1zm-7.1-8.1c.4 3.6 3.2 6.1 7 6.1s6.6-2.5 7-6.1h-14z"/></g><g fill="#fff"><path d="M61.4 197c0 5-3.6 8.1-8.1 8.1s-8.1-3.1-8.1-8.1h16.2z"/><path d="M53.3 206.1c-5.3 0-9.1-3.8-9.1-9.1 0-.6.4-1 1-1h16.2c.6 0 1 .4 1 1 0 5.3-3.8 9.1-9.1 9.1zm-7-8.1c.4 3.6 3.2 6.1 7 6.1s6.6-2.5 7-6.1h-14z"/><path d="M77.6 197c0 5-3.6 8.1-8.1 8.1s-8.1-3.1-8.1-8.1h16.2z"/><path d="M69.5 206.1c-5.3 0-9.1-3.8-9.1-9.1 0-.6.4-1 1-1h16.2c.6 0 1 .4 1 1 0 5.3-3.8 9.1-9.1 9.1zm-7-8.1c.4 3.6 3.2 6.1 7 6.1s6.6-2.5 7-6.1h-14z"/><path d="M93.8 197c0 5-3.6 8.1-8.1 8.1s-8.1-3.1-8.1-8.1h16.2z"/><path d="M85.7 206.1c-5.3 0-9.1-3.8-9.1-9.1 0-.6.4-1 1-1h16.2c.6 0 1 .4 1 1 0 5.3-3.9 9.1-9.1 9.1zm-7.1-8.1c.4 3.6 3.2 6.1 7 6.1s6.6-2.5 7-6.1h-14z"/></g><g fill="#fff"><path d="M103.4 56c0 5-3.6 8.1-8.1 8.1S87.2 61 87.2 56h16.2z"/><path d="M95.3 65.1c-5.3 0-9.1-3.8-9.1-9.1 0-.6.4-1 1-1h16.2c.6 0 1 .4 1 1 0 5.3-3.8 9.1-9.1 9.1zm-7-8.1c.4 3.6 3.2 6.1 7 6.1s6.6-2.5 7-6.1h-14z"/></g><g fill="#fff"><path d="M119.6 56c0 5-3.6 8.1-8.1 8.1s-8.1-3.1-8.1-8.1h16.2z"/><path d="M111.5 65.1c-5.3 0-9.1-3.8-9.1-9.1 0-.6.4-1 1-1h16.2c.6 0 1 .4 1 1 0 5.3-3.8 9.1-9.1 9.1zm-7-8.1c.4 3.6 3.2 6.1 7 6.1s6.6-2.5 7-6.1h-14z"/></g><g fill="#fff"><path d="M154.4 231c0 5-3.6 8.1-8.1 8.1s-8.1-3.1-8.1-8.1h16.2z"/><path d="M146.3 240.1c-5.3 0-9.1-3.8-9.1-9.1 0-.6.4-1 1-1h16.2c.6 0 1 .4 1 1 0 5.3-3.8 9.1-9.1 9.1zm-7-8.1c.4 3.6 3.2 6.1 7 6.1s6.6-2.5 7-6.1h-14z"/></g><g fill="#fff"><path d="M170.6 231c0 5-3.6 8.1-8.1 8.1s-8.1-3.1-8.1-8.1h16.2z"/><path d="M162.5 240.1c-5.3 0-9.1-3.8-9.1-9.1 0-.6.4-1 1-1h16.2c.6 0 1 .4 1 1 0 5.3-3.8 9.1-9.1 9.1zm-7-8.1c.4 3.6 3.2 6.1 7 6.1s6.6-2.5 7-6.1h-14z"/></g></svg>