<?xml version="1.0" encoding="utf-8"?>
<!-- Generator: Adobe Illustrator 21.0.0, SVG Export Plug-In . SVG Version: 6.00 Build 0)  -->
<svg version="1.1" id="Layer_1" xmlns="http://www.w3.org/2000/svg" xmlns:xlink="http://www.w3.org/1999/xlink" x="0px" y="0px"
	 viewBox="0 0 450 270" style="enable-background:new 0 0 450 270;" xml:space="preserve">
<style type="text/css">
	.st0{fill:#4527A0;}
	.st1{fill:#5E35B1;}
	.st2{opacity:0.2;fill:#231F20;enable-background:new    ;}
	.st3{opacity:0.2;enable-background:new    ;}
	.st4{fill:#536DFE;}
	.st5{opacity:0.1;fill:#231F20;enable-background:new    ;}
	.st6{fill:#CFD8DC;}
	.st7{fill:#90CAF9;}
	.st8{fill:#FFFFFF;stroke:#FFFFFF;stroke-width:1.6715;stroke-linejoin:round;stroke-miterlimit:10;}
	.st9{fill:#A1887F;}
</style>
<symbol  id="mc-chimney-med" viewBox="-35 -58 70 116">
	<g>
		<polygon class="st0" points="35,58 -35,58 -35,42 -27,42 -27,-58 27,-58 27,42 35,42 		"/>
	</g>
	<g>
		<polygon class="st1" points="-15,42 -15,20 -17,20 -17,42 		"/>
		<polygon class="st1" points="-15,2 -15,-20 -17,-20 -17,2 		"/>
		<polygon class="st1" points="-15,-38 -15,-58 -17,-58 -17,-38 		"/>
		<polygon class="st1" points="27,20 -27,20 -27,22 27,22 		"/>
		<polygon class="st1" points="27,40 -27,40 -27,42 27,42 		"/>
		<polygon class="st1" points="27,0 -27,0 -27,2 27,2 		"/>
		<polygon class="st1" points="27,-20 -27,-20 -27,-18 27,-18 		"/>
		<polygon class="st1" points="27,-40 -27,-40 -27,-38 27,-38 		"/>
		<polygon class="st1" points="17,-18 17,-40 15,-40 15,-18 		"/>
		<polygon class="st1" points="17,22 17,0 15,0 15,22 		"/>
	</g>
	<polygon class="st1" points="0.3,58 0.3,42.2 -1.7,42.2 -1.7,58 	"/>
	<polygon class="st2" points="27,24 -27,34 -27,42 27,42 	"/>
</symbol>
<path class="st3" d="M250,41L56,146v10c0,4.4,3.6,8,8,8s8-3.6,8-8c0,4,3,7.3,6.8,7.9l0,0v17c0.4-0.1,0.8-0.1,1.2-0.3V270h75h5h60h5
	h195v-89.1v-17v-0.3c0.4,0.1,0.8,0.2,1.2,0.3v0.1c4.4,0,8-3.6,8-8c0,4.4,3.6,8,8,8s8-3.6,8-8v-10L250,41z"/>
<g>
	
		<use xlink:href="#mc-chimney-med"  width="70" height="116" x="-35" y="-58" transform="matrix(1 0 0 -1 66.307 71.4993)" style="overflow:visible;"/>
	<polygon class="st4" points="200,12 30,104 30,270 370,270 370,104 	"/>
	<path class="st5" d="M363,116c0-0.4,0-0.9,0.1-1.3c-1.4,1.2-3.2,2-5.3,2c-4.4,0-8-3.6-8-8c0-0.4,0-0.9,0.1-1.3
		c-1.4,1.2-3.2,2-5.3,2c-4.4,0-8-3.6-8-8c0-0.4,0-0.9,0.1-1.3c-1.4,1.2-3.2,2-5.3,2c-4.4,0-8-3.6-8-8c0-0.4,0-0.9,0.1-1.3
		c-1.4,1.2-3.2,2-5.3,2c-4.4,0-8-3.6-8-8c0-0.4,0-0.9,0.1-1.3c-1.4,1.2-3.2,2-5.3,2c-4.4,0-8-3.6-8-8c0-0.4,0-0.9,0.1-1.3
		c-1.4,1.2-3.2,2-5.3,2c-4.4,0-8-3.6-8-8c0-0.4,0-0.9,0.1-1.3c-1.4,1.2-3.2,2-5.3,2c-4.4,0-8-3.6-8-8c0-0.4,0-0.9,0.1-1.3
		c-1.4,1.2-3.2,2-5.3,2c-4.4,0-8-3.6-8-8c0-0.4,0-0.9,0.1-1.3c-1.4,1.2-3.2,2-5.3,2c-4.4,0-8-3.6-8-8c0-0.4,0-0.9,0.1-1.3
		c-1.4,1.2-3.2,2-5.3,2c-4.4,0-8-3.6-8-8c0-0.4,0-0.9,0.1-1.3c-1.4,1.2-3.2,2-5.3,2c-4.4,0-8-3.6-8-8c0-0.4,0-0.9,0.1-1.3
		c-1.4,1.2-3.2,2-5.3,2c-4.4,0-8-3.6-8-8c0-0.4,0-0.9,0.1-1.3c-1.2,1-2.7,1.7-4.3,1.9c-0.3,0-0.7,0.1-1,0.1c-2,0-3.9-0.8-5.3-2
		c0.1,0.4,0.1,0.9,0.1,1.3c0,4.4-3.6,8-8,8c-2,0-3.9-0.8-5.3-2c0.1,0.4,0.1,0.9,0.1,1.3c0,4.4-3.6,8-8,8c-2,0-3.9-0.8-5.3-2
		c0.1,0.4,0.1,0.9,0.1,1.3c0,4.4-3.6,8-8,8c-2,0-3.9-0.8-5.3-2c0.1,0.4,0.1,0.9,0.1,1.3c0,4.4-3.6,8-8,8c-2,0-3.9-0.8-5.3-2
		c0.1,0.4,0.1,0.9,0.1,1.3c0,4.4-3.6,8-8,8c-2,0-3.9-0.8-5.3-2c0.1,0.4,0.1,0.9,0.1,1.3c0,4.4-3.6,8-8,8c-2,0-3.9-0.8-5.3-2
		c0.1,0.4,0.1,0.9,0.1,1.3c0,4.4-3.6,8-8,8c-2,0-3.9-0.8-5.3-2c0.1,0.4,0.1,0.9,0.1,1.3c0,4.4-3.6,8-8,8c-2,0-3.9-0.8-5.3-2
		c0.1,0.4,0.1,0.9,0.1,1.3c0,4.4-3.6,8-8,8c-2,0-3.9-0.8-5.3-2c0.1,0.4,0.1,0.9,0.1,1.3c0,4.4-3.6,8-8,8c-2,0-3.9-0.8-5.3-2
		c0.1,0.4,0.1,0.9,0.1,1.3c0,4.4-3.6,8-8,8c-2,0-3.9-0.8-5.3-2c0.1,0.4,0.1,0.9,0.1,1.3c0,4.4-3.6,8-8,8c-2,0-3.9-0.8-5.3-2
		c0.1,0.4,0.1,0.9,0.1,1.3c0,4.1-3.1,7.4-7,7.9v17c3.9-0.5,7-3.9,7-7.9c0-0.4,0-0.9-0.1-1.3c1.4,1.2,3.2,2,5.3,2c4.4,0,8-3.6,8-8
		c0-0.4,0-0.9-0.1-1.3c1.4,1.2,3.2,2,5.3,2c4.4,0,8-3.6,8-8c0-0.4,0-0.9-0.1-1.3c1.4,1.2,3.2,2,5.3,2c4.4,0,8-3.6,8-8
		c0-0.4,0-0.9-0.1-1.3c1.4,1.2,3.2,2,5.3,2c4.4,0,8-3.6,8-8c0-0.4,0-0.9-0.1-1.3c1.4,1.2,3.2,2,5.3,2c4.4,0,8-3.6,8-8
		c0-0.4,0-0.9-0.1-1.3c1.4,1.2,3.2,2,5.3,2c4.4,0,8-3.6,8-8c0-0.4,0-0.9-0.1-1.3c1.4,1.2,3.2,2,5.3,2c4.4,0,8-3.6,8-8
		c0-0.4,0-0.9-0.1-1.3c1.4,1.2,3.2,2,5.3,2c4.4,0,8-3.6,8-8c0-0.4,0-0.9-0.1-1.3c1.4,1.2,3.2,2,5.3,2c4.4,0,8-3.6,8-8
		c0-0.4,0-0.9-0.1-1.3c1.4,1.2,3.2,2,5.3,2c4.4,0,8-3.6,8-8c0-0.4,0-0.9-0.1-1.3c1.4,1.2,3.2,2,5.3,2c4.4,0,8-3.6,8-8
		c0-0.4,0-0.9-0.1-1.3c1.4,1.2,3.2,2,5.3,2c4.4,0,8-3.6,8-8c0-0.4,0-0.9-0.1-1.3c1.4,1.2,3.2,2,5.3,2c0.3,0,0.7,0,1-0.1
		c1.6-0.2,3.1-0.9,4.3-1.9c-0.1,0.4-0.1,0.9-0.1,1.3c0,4.4,3.6,8,8,8c2,0,3.9-0.8,5.3-2c-0.1,0.4-0.1,0.9-0.1,1.3c0,4.4,3.6,8,8,8
		c2,0,3.9-0.8,5.3-2c-0.1,0.4-0.1,0.9-0.1,1.3c0,4.4,3.6,8,8,8c2,0,3.9-0.8,5.3-2c-0.1,0.4-0.1,0.9-0.1,1.3c0,4.4,3.6,8,8,8
		c2,0,3.9-0.8,5.3-2c-0.1,0.4-0.1,0.9-0.1,1.3c0,4.4,3.6,8,8,8c2,0,3.9-0.8,5.3-2c-0.1,0.4-0.1,0.9-0.1,1.3c0,4.4,3.6,8,8,8
		c2,0,3.9-0.8,5.3-2c-0.1,0.4-0.1,0.9-0.1,1.3c0,4.4,3.6,8,8,8c2,0,3.9-0.8,5.3-2c-0.1,0.4-0.1,0.9-0.1,1.3c0,4.4,3.6,8,8,8
		c2,0,3.9-0.8,5.3-2c-0.1,0.4-0.1,0.9-0.1,1.3c0,4.4,3.6,8,8,8c2,0,3.9-0.8,5.3-2c-0.1,0.4-0.1,0.9-0.1,1.3c0,4.4,3.6,8,8,8
		c2,0,3.9-0.8,5.3-2c-0.1,0.4-0.1,0.9-0.1,1.3c0,4.4,3.6,8,8,8c2,0,3.9-0.8,5.3-2c-0.1,0.4-0.1,0.9-0.1,1.3c0,4.4,3.6,8,8,8
		c2,0,3.9-0.8,5.3-2c-0.1,0.4-0.1,0.9-0.1,1.3c0,4.1,3.1,7.4,7,7.9v-17C366.1,123.4,363,120.1,363,116z"/>
	<path class="st0" d="M200,1L6,106v10c0,4.4,3.6,8,8,8s8-3.6,8-8c0,4.4,3.6,8,8,8v-0.1c3.9-0.5,7-3.9,7-7.9c0-0.4,0-0.9-0.1-1.3
		c1.4,1.2,3.2,2,5.3,2c4.4,0,8-3.6,8-8c0-0.4,0-0.9-0.1-1.3c1.4,1.2,3.2,2,5.3,2c4.4,0,8-3.6,8-8c0-0.4,0-0.9-0.1-1.3
		c1.4,1.2,3.2,2,5.3,2c4.4,0,8-3.6,8-8c0-0.4,0-0.9-0.1-1.3c1.4,1.2,3.2,2,5.3,2c4.4,0,8-3.6,8-8c0-0.4,0-0.9-0.1-1.3
		c1.4,1.2,3.2,2,5.3,2c4.4,0,8-3.6,8-8c0-0.4,0-0.9-0.1-1.3c1.4,1.2,3.2,2,5.3,2c4.4,0,8-3.6,8-8c0-0.4,0-0.9-0.1-1.3
		c1.4,1.2,3.2,2,5.3,2c4.4,0,8-3.6,8-8c0-0.4,0-0.9-0.1-1.3c1.4,1.2,3.2,2,5.3,2c4.4,0,8-3.6,8-8c0-0.4,0-0.9-0.1-1.3
		c1.4,1.2,3.2,2,5.3,2c4.4,0,8-3.6,8-8c0-0.4,0-0.9-0.1-1.3c1.4,1.2,3.2,2,5.3,2c4.4,0,8-3.6,8-8c0-0.4,0-0.9-0.1-1.3
		c1.4,1.2,3.2,2,5.3,2c4.4,0,8-3.6,8-8c0-0.4,0-0.9-0.1-1.3c1.4,1.2,3.2,2,5.3,2c4.4,0,8-3.6,8-8c0-0.4,0-0.9-0.1-1.3
		c1.4,1.2,3.2,2,5.3,2c0.3,0,0.7,0,1-0.1c1.6-0.2,3.1-0.9,4.3-1.9c-0.1,0.4-0.1,0.9-0.1,1.3c0,4.4,3.6,8,8,8c2,0,3.9-0.8,5.3-2
		c-0.1,0.4-0.1,0.9-0.1,1.3c0,4.4,3.6,8,8,8c2,0,3.9-0.8,5.3-2c-0.1,0.4-0.1,0.9-0.1,1.3c0,4.4,3.6,8,8,8c2,0,3.9-0.8,5.3-2
		c-0.1,0.4-0.1,0.9-0.1,1.3c0,4.4,3.6,8,8,8c2,0,3.9-0.8,5.3-2c-0.1,0.4-0.1,0.9-0.1,1.3c0,4.4,3.6,8,8,8c2,0,3.9-0.8,5.3-2
		c-0.1,0.4-0.1,0.9-0.1,1.3c0,4.4,3.6,8,8,8c2,0,3.9-0.8,5.3-2c-0.1,0.4-0.1,0.9-0.1,1.3c0,4.4,3.6,8,8,8c2,0,3.9-0.8,5.3-2
		c-0.1,0.4-0.1,0.9-0.1,1.3c0,4.4,3.6,8,8,8c2,0,3.9-0.8,5.3-2c-0.1,0.4-0.1,0.9-0.1,1.3c0,4.4,3.6,8,8,8c2,0,3.9-0.8,5.3-2
		c-0.1,0.4-0.1,0.9-0.1,1.3c0,4.4,3.6,8,8,8c2,0,3.9-0.8,5.3-2c-0.1,0.4-0.1,0.9-0.1,1.3c0,4.4,3.6,8,8,8c2,0,3.9-0.8,5.3-2
		c-0.1,0.4-0.1,0.9-0.1,1.3c0,4.4,3.6,8,8,8c2,0,3.9-0.8,5.3-2c-0.1,0.4-0.1,0.9-0.1,1.3c0,4.1,3.1,7.4,7,7.9v0.1c4.4,0,8-3.6,8-8
		c0,4.4,3.6,8,8,8s8-3.6,8-8v-10L200,1z"/>
	<rect x="110" y="151" class="st1" width="60" height="119"/>
	<rect x="105" y="264" class="st6" width="70" height="6"/>
	<g>
		<rect x="230" y="151" class="st7" width="27" height="27"/>
		<rect x="263" y="151" class="st7" width="27" height="27"/>
		<rect x="230" y="183" class="st7" width="27" height="27"/>
		<rect x="263" y="183" class="st7" width="27" height="27"/>
	</g>
	<path class="st7" d="M203,74.2c9,1.4,16,8.6,16.9,17.8H203V74.2z M198,92V74.1c-9.4,0.9-17,8.5-17.9,17.9H198z M203,97v16.8
		c8.6-1.3,15.4-8.1,16.8-16.8H203z M198,97h-17.8c1.4,9,8.6,16,17.8,16.9V97z"/>
	<polygon class="st5" points="110,151 110,158 170,162 170,151 	"/>
	<polygon class="st5" points="230,151 230,158 290,162 290,151 	"/>
	<g>
		<path class="st8" d="M268.2,151c0,4.5-3.6,8.1-8.1,8.1s-8.1-3.6-8.1-8.1H268.2z"/>
		<path class="st8" d="M284.4,151c0,4.5-3.6,8.1-8.1,8.1s-8.1-3.6-8.1-8.1H284.4z"/>
		<path class="st8" d="M300.5,151c0,4.5-3.6,8.1-8.1,8.1s-8.1-3.6-8.1-8.1H300.5z"/>
	</g>
	<circle class="st5" cx="118" cy="217" r="3"/>
	<circle class="st9" cx="118" cy="213" r="3"/>
</g>
</svg>