<svg id="slices" xmlns="http://www.w3.org/2000/svg" viewBox="0 0 135 725"><style>.st0{fill:#12406e}.st1{fill:#b3b3b3}.st2{fill:#fff}.st3{opacity:.1;enable-background:new}</style><path transform="rotate(-7.432 20.176 303.001)" class="st0" d="M18.7 161h3v284h-3z"/><path transform="rotate(-7.068 86.552 260.09)" class="st0" d="M85 91.4h3v337.4h-3z"/><path class="st0" d="M57 436.2L33.8 157.1l19.9-6.8.3 1.8L86.5 426l-3 .3-32.3-272-14.2 4.9L60 436z"/><path class="st0" d="M57.1 151.8c-1.9-7-9.2-11.2-16.3-9.3s-11.3 9.1-9.5 16.1c1.9 7 9.2 11.2 16.3 9.3 7.2-1.9 11.4-9.1 9.5-16.1z"/><g><path class="st0" d="M32 65h12v660H32z"/><path class="st1" d="M5 27.6h22V705H5z"/><path class="st1" d="M12 0h8v705h-8z"/><path class="st2" d="M0 40.4h32V725H0z"/><path class="st3" d="M18 40.4h14V725H18z"/><path class="st1" d="M3 8.7h25v4H3z"/></g></svg>