<?xml version="1.0" encoding="iso-8859-1"?>
<!-- Generator: Adobe Illustrator 21.0.0, SVG Export Plug-In . SVG Version: 6.00 Build 0)  -->
<svg version="1.1" id="slices" xmlns="http://www.w3.org/2000/svg" xmlns:xlink="http://www.w3.org/1999/xlink" x="0px" y="0px"
	 viewBox="0 0 86 86" style="enable-background:new 0 0 86 86;" xml:space="preserve">
<g id="New_Symbol_8">
</g>
<g id="New_Symbol_9">
</g>
<g id="New_Symbol_10">
</g>
<g id="New_Symbol_12">
</g>
<g id="New_Symbol_13">
</g>
<g id="New_Symbol_14">
</g>
<g>
	<path style="fill:#12406E;" d="M10.8,60.5c1.6,2.9,0.6,6.6-2.1,8.4c0.9,1.1,1.8,2.2,2.7,3.3c2.2-2.5,6.1-2.9,8.7-0.7
		c2.7,2.1,3.1,6,1.1,8.7c1.1,0.7,2.3,1.3,3.5,1.8c1.1-3.1,4.5-4.8,7.7-3.9c3.2,1,5.1,4.3,4.4,7.5c1.4,0.2,2.9,0.4,4.4,0.4
		c-0.3-3.4,2.2-6.4,5.6-6.8c3.4-0.4,6.5,2.1,7,5.5c1.3-0.3,2.5-0.7,3.8-1.2c-1.5-3-0.4-6.8,2.6-8.4c3-1.7,6.9-0.6,8.6,2.5
		c1.2-0.9,2.4-1.8,3.5-2.8c-2.7-2.2-3.1-6.2-0.9-8.9c2.2-2.7,6.2-3.2,8.9-1c0.7-1.1,1.3-2.3,1.9-3.5c0,0,0,0-0.1,0
		c-3.4-1-5.3-4.5-4.3-7.9s4.5-5.3,7.9-4.3h0.1c0.2-1.5,0.4-3,0.4-4.5c0,0,0,0-0.1,0c-3.5,0.4-6.6-2.1-7-5.6s2.1-6.6,5.6-7
		c0,0,0,0,0.1,0c-0.3-1.3-0.8-2.6-1.2-3.9c-0.1,0-0.1,0.1-0.2,0.1c-3.1,1.7-6.9,0.5-8.6-2.5c-1.7-3.1-0.5-6.9,2.5-8.6
		c0.1,0,0.1-0.1,0.2-0.1c-0.9-1.2-1.8-2.3-2.8-3.4c0,0,0,0,0,0.1c-2.2,2.7-6.2,3.2-8.9,1c-2.7-2.2-3.2-6.2-1-8.9l0,0
		c-1.2-0.7-2.5-1.3-3.7-1.9v0.1c-1,3.4-4.5,5.3-7.9,4.3s-5.3-4.5-4.3-7.9c0,0,0,0,0-0.1c-1.4-0.2-2.8-0.3-4.3-0.4
		c0.3,3.5-2.2,6.6-5.6,6.9c-3.4,0.4-6.5-2.1-7-5.5c-1.3,0.4-2.7,0.8-4,1.3c1.6,3.1,0.5,6.9-2.6,8.5c-3,1.6-6.8,0.6-8.5-2.4
		c-1.1,0.9-2.2,1.7-3.2,2.7c2.6,2.2,3,6.1,0.8,8.8c-2.1,2.7-6,3.1-8.7,1.1c-0.7,1.2-1.3,2.4-1.9,3.7c3.2,1.1,4.9,4.5,4,7.8
		c-1,3.2-4.2,5.1-7.5,4.4C0.2,38.6,0.1,40,0,41.4c3.3-0.2,6.3,2.3,6.7,5.6c0.4,3.4-2,6.4-5.3,6.9c0.3,1.3,0.7,2.6,1.2,3.8
		C5.6,56.4,9.2,57.6,10.8,60.5z M60.6,64.3l-5.5-10.2c3.4-3.7,4.8-8.8,3.9-13.7l10.3-5.6C72.8,45.4,69.3,57.2,60.6,64.3z M34.9,17
		c10.6-3.4,22.2,0,29.3,8.4l-10.4,5.7c-3.6-3.2-8.5-4.6-13.3-3.8L34.9,17z M39.7,37.7c3.2-1.7,7.1-0.6,8.8,2.6
		c1.7,3.2,0.6,7.1-2.6,8.8c-3.2,1.7-7.1,0.6-8.8-2.6C35.3,43.4,36.5,39.5,39.7,37.7z M25.6,22.1l5.6,10.2c-3.3,3.6-4.8,8.5-4,13.3
		L17,51.1C13.8,40.6,17.2,29.2,25.6,22.1z M32,55.1c3.7,3.4,8.8,5,13.7,4.2l5.5,10.1C40.6,72.6,29,69.1,22,60.6L32,55.1z"/>
</g>
<g id="New_Symbol_15">
</g>
<g id="New_Symbol">
</g>
</svg>
