<svg xmlns="http://www.w3.org/2000/svg" viewBox="0 0 392 538"><path fill="none" d="M0 2h392v536H0z"/><path fill="#455A64" d="M26 11h340v527H26z"/><path fill="#607D8B" d="M260 154h70v50h-70zm-200 0h70v50H60zm100 0h70v50h-70z"/><path fill="#231F20" d="M60 154h70v6H60zm100 0h70v6h-70zm100 0h70v6h-70z" opacity=".1"/><path fill="#607D8B" d="M260 425h70v50h-70zm-200 0h70v50H60zm100 0h70v50h-70z"/><path fill="#231F20" d="M60 425h70v6H60zm100 0h70v6h-70zm100 0h70v6h-70z" opacity=".1"/><path fill="#607D8B" d="M260 64h70v50h-70zM60 64h70v50H60zm100 0h70v50h-70z"/><path fill="#231F20" d="M60 64h70v6H60zm100 0h70v6h-70zm100 0h70v6h-70z" opacity=".1"/><g fill="#fff"><path d="M113.2 121c0 4-3.6 8.1-8.1 8.1S97 125 97 121h16.2z"/><path d="M105.1 130.1c-5.2 0-9.1-4.8-9.1-9.1 0-.6.4-1 1-1h16.2c.6 0 1 .4 1 1 0 4.3-3.9 9.1-9.1 9.1zm-7-8.1c.5 3 3.3 6.1 7 6.1s6.5-3 7-6.1h-14z"/><path d="M129.4 121c0 4-3.6 8.1-8.1 8.1s-8.1-4.1-8.1-8.1h16.2z"/><path d="M121.3 130.1c-5.2 0-9.1-4.8-9.1-9.1 0-.6.4-1 1-1h16.2c.6 0 1 .4 1 1 0 4.3-3.9 9.1-9.1 9.1zm-7-8.1c.5 3 3.3 6.1 7 6.1s6.5-3 7-6.1h-14z"/></g><g fill="#fff"><path d="M233.8 40c0 4-3.6 8.1-8.1 8.1s-8.1-4.1-8.1-8.1h16.2z"/><path d="M225.7 49.1c-5.2 0-9.1-4.8-9.1-9.1 0-.6.4-1 1-1h16.2c.6 0 1 .4 1 1 0 4.3-3.9 9.1-9.1 9.1zm-7-8.1c.5 3 3.3 6.1 7 6.1s6.5-3 7-6.1h-14z"/><path d="M250 40c0 4-3.6 8.1-8.1 8.1s-8.1-4.1-8.1-8.1H250z"/><path d="M241.9 49.1c-5.2 0-9.1-4.8-9.1-9.1 0-.6.4-1 1-1H250c.6 0 1 .4 1 1 0 4.3-3.9 9.1-9.1 9.1zm-7-8.1c.5 3 3.3 6.1 7 6.1s6.5-3 7-6.1h-14z"/></g><path fill="#607D8B" d="M260 244h70v50h-70zm-200 0h70v50H60zm100 0h70v50h-70z"/><path fill="#231F20" d="M60 244h70v6H60zm100 0h70v6h-70zm100 0h70v6h-70z" opacity=".1"/><g fill="#fff"><path d="M96.6 392c0 4-3.6 8.1-8.1 8.1s-8.1-4.1-8.1-8.1h16.2z"/><path d="M88.6 401.1c-5.2 0-9.1-4.8-9.1-9.1 0-.6.4-1 1-1h16.2c.6 0 1 .4 1 1-.1 4.3-3.9 9.1-9.1 9.1zm-7-8.1c.5 3 3.3 6.1 7 6.1s6.5-3 7-6.1h-14z"/><path d="M112.8 392c0 4-3.6 8.1-8.1 8.1s-8.1-4.1-8.1-8.1h16.2z"/><path d="M104.7 401.1c-5.2 0-9.1-4.8-9.1-9.1 0-.6.4-1 1-1h16.2c.6 0 1 .4 1 1 0 4.3-3.9 9.1-9.1 9.1zm-7-8.1c.5 3 3.3 6.1 7 6.1s6.5-3 7-6.1h-14z"/><path d="M129 392c0 4-3.6 8.1-8.1 8.1s-8.1-4.1-8.1-8.1H129z"/><path d="M120.9 401.1c-5.2 0-9.1-4.8-9.1-9.1 0-.6.4-1 1-1H129c.6 0 1 .4 1 1 0 4.3-3.9 9.1-9.1 9.1zm-7-8.1c.5 3 3.3 6.1 7 6.1s6.5-3 7-6.1h-14z"/></g><path fill="#607D8B" d="M260 335h70v50h-70zm-200 0h70v50H60zm100 0h70v50h-70z"/><path fill="#231F20" d="M60 335h70v6H60zm100 0h70v6h-70zm100 0h70v6h-70z" opacity=".1"/><g fill="#fff"><path d="M213.8 483c0 4-3.6 8.1-8.1 8.1s-8.1-4.1-8.1-8.1h16.2z"/><path d="M205.7 492.1c-5.2 0-9.1-4.8-9.1-9.1 0-.6.4-1 1-1h16.2c.6 0 1 .4 1 1 0 4.3-3.9 9.1-9.1 9.1zm-7-8.1c.5 3 3.3 6.1 7 6.1s6.5-3 7-6.1h-14z"/><path d="M230 483c0 4-3.6 8.1-8.1 8.1s-8.1-4.1-8.1-8.1H230z"/><path d="M221.9 492.1c-5.2 0-9.1-4.8-9.1-9.1 0-.6.4-1 1-1H230c.6 0 1 .4 1 1 0 4.3-3.9 9.1-9.1 9.1zm-7-8.1c.5 3 3.3 6.1 7 6.1s6.5-3 7-6.1h-14z"/></g><path fill="#231F20" d="M26 23h340v22H26z" opacity=".1"/><path fill="#231F20" d="M26 23v54l340 20V23z" opacity=".1"/><path fill="#00ACC1" d="M390 40V8c0-4.4-3.6-8-8-8H10C5.6 0 2 3.6 2 8v32h388z"/><path fill="#231F20" d="M362 0h4v40h-4zm-28 0h4v40h-4zm-28 0h4v40h-4zm-28 0h4v40h-4zm-28 0h4v40h-4zm-28 0h4v40h-4zm-28 0h4v40h-4zm-28 0h4v40h-4zm-28 0h4v40h-4zm-28 0h4v40h-4zM82 0h4v40h-4zM54 0h4v40h-4zM26 0h4v40h-4z" opacity=".1"/></svg>