<?xml version="1.0" encoding="utf-8"?>
<!-- Generator: Adobe Illustrator 21.0.0, SVG Export Plug-In . SVG Version: 6.00 Build 0)  -->
<svg version="1.1" id="Layer_1" xmlns="http://www.w3.org/2000/svg" xmlns:xlink="http://www.w3.org/1999/xlink" x="0px" y="0px"
	 viewBox="0 0 442 270" style="enable-background:new 0 0 442 270;" xml:space="preserve">
<style type="text/css">
	.st0{fill:#21586D;}
	.st1{opacity:0.1;}
	.st2{fill:#231F20;}
	.st3{fill:#00897B;}
	.st4{opacity:0.2;enable-background:new    ;}
	.st5{fill:#26A69A;}
	.st6{fill:#0C485F;}
	.st7{fill:#2D6175;}
	.st8{fill:#FFFFFF;}
	.st9{fill:none;}
</style>
<g>
	<rect x="10" y="22" class="st0" width="368" height="248"/>
</g>
<g class="st1">
	<g>
		<polygon class="st2" points="10,178 10,148 378,118 378,148 		"/>
	</g>
</g>
<g class="st1">
	<g>
		<polygon class="st2" points="10,238 10,208 378,178 378,208 		"/>
	</g>
</g>
<g class="st1">
	<g>
		<polygon class="st2" points="10,268 378,238 378,270 10,270 		"/>
	</g>
</g>
<g class="st1">
	<g>
		<polygon class="st2" points="10,118 10,88 378,58 378,88 		"/>
	</g>
</g>
<g>
	<polygon class="st3" points="34,1 34,41 26,49 18,41 18,1 	"/>
</g>
<path class="st4" d="M437,38.5v32l-8,8l-8-8l-8,8l-8-8l-8,8l-8-8l-8,8l-8-8l-8,8l-8-8l-8,8l-8-8l-8,8l-8-8l-8,8l-8-8l-8,8l-8-8l-8,8
	l-8-8l-8,8l-8-8l-8,8l-8-8l-8,8l-8-8l-8,8l-8-8l-8,8l-8-8l-8,8l-8-8l-8,8l-8-8l-8,8l-8-8l-8,8l-8-8l-8,8l-8-8l-8,8l-8-8l-8,8l-8-8
	l-8,8l-8-8l-8,8L2,40V8c0-4.4,4.6-7,9-7h368c9.2,0,55.3,31.6,55.3,31.6C436,33.8,437,35.8,437,38.5z"/>
<g>
	<path class="st5" d="M18,1v40l-8,8l-8-8V9c0-4.4,3.6-8,8-8H18z"/>
</g>
<g>
	<g class="st1">
		<path class="st2" d="M76,110h-8h-8c-4.4,0-8,3.6-8,8v11l8,8l8-8l8,8l8-8v-11C84,113.6,80.4,110,76,110z"/>
	</g>
	<g>
		<path class="st6" d="M84,107v11l-8,8l-8-8V99h8C80.4,99,84,102.6,84,107z"/>
	</g>
	<g>
		<path class="st7" d="M68,99v19l-8,8l-8-8v-11c0-4.4,3.6-8,8-8H68z"/>
	</g>
</g>
<g>
	<g class="st1">
		<path class="st2" d="M176,128h-8h-8c-4.4,0-8,3.6-8,8v11l8,8l8-8l8,8l8-8v-11C184,131.6,180.4,128,176,128z"/>
	</g>
	<g>
		<path class="st6" d="M184,125v11l-8,8l-8-8v-19h8C180.4,117,184,120.6,184,125z"/>
	</g>
	<g>
		<path class="st7" d="M168,117v19l-8,8l-8-8v-11c0-4.4,3.6-8,8-8H168z"/>
	</g>
</g>
<g class="st1">
	<path class="st2" d="M326,208h-8h-8c-4.4,0-8,3.6-8,8v11l8,8l8-8l8,8l8-8v-11C334,211.6,330.4,208,326,208z"/>
</g>
<g>
	<path class="st6" d="M334,205v11l-8,8l-8-8v-19h8C330.4,197,334,200.6,334,205z"/>
</g>
<g class="st1">
	<polygon class="st2" points="378,86 370,86 370,105 378,113 378,105 	"/>
</g>
<g>
	<path class="st6" d="M386,83v11l-8,8l-8-8V83c0-4.4,3.6-8,8-8l0,0C382.4,75,386,78.6,386,83z"/>
</g>
<g>
	<path class="st7" d="M318,197v19l-8,8l-8-8v-11c0-4.4,3.6-8,8-8H318z"/>
</g>
<g>
	<path class="st7" d="M10,166v19v8l-8-8v-11C2,169.6,5.6,166,10,166L10,166z"/>
</g>
<g>
	<polygon class="st3" points="66,1 66,41 58,49 50,41 50,1 	"/>
</g>
<g>
	<polygon class="st5" points="50,1 50,41 42,49 34,41 34,1 	"/>
</g>
<g>
	<polygon class="st3" points="98,1 98,41 90,49 82,41 82,1 	"/>
</g>
<g>
	<polygon class="st5" points="82,1 82,41 74,49 66,41 66,1 	"/>
</g>
<g>
	<polygon class="st3" points="130,1 130,41 122,49 114,41 114,1 	"/>
</g>
<g>
	<polygon class="st5" points="114,1 114,41 106,49 98,41 98,1 	"/>
</g>
<g>
	<polygon class="st3" points="162,1 162,41 154,49 146,41 146,1 	"/>
</g>
<g>
	<polygon class="st5" points="146,1 146,41 138,49 130,41 130,1 	"/>
</g>
<g>
	<polygon class="st3" points="194,1 194,41 186,49 178,41 178,1 	"/>
</g>
<g>
	<polygon class="st5" points="178,1 178,41 170,49 162,41 162,1 	"/>
</g>
<g>
	<polygon class="st3" points="226,1 226,41 218,49 210,41 210,1 	"/>
</g>
<g>
	<polygon class="st5" points="210,1 210,41 202,49 194,41 194,1 	"/>
</g>
<g>
	<polygon class="st3" points="258,1 258,41 250,49 242,41 242,1 	"/>
</g>
<g>
	<polygon class="st5" points="242,1 242,41 234,49 226,41 226,1 	"/>
</g>
<g>
	<polygon class="st3" points="290,1 290,41 282,49 274,41 274,1 	"/>
</g>
<g>
	<polygon class="st5" points="274,1 274,41 266,49 258,41 258,1 	"/>
</g>
<g>
	<polygon class="st3" points="322,1 322,41 314,49 306,41 306,1 	"/>
</g>
<g>
	<polygon class="st5" points="306,1 306,41 298,49 290,41 290,1 	"/>
</g>
<g>
	<polygon class="st3" points="354,1 354,41 346,49 338,41 338,1 	"/>
</g>
<g>
	<polygon class="st5" points="338,1 338,41 330,49 322,41 322,1 	"/>
</g>
<g>
	<path class="st3" d="M386,9v32l-8,8l-8-8V1h8C382.4,1,386,4.6,386,9z"/>
</g>
<g>
	<polygon class="st5" points="370,1 370,41 362,49 354,41 354,1 	"/>
</g>
<g>
	<path class="st8" d="M346.2,2c0,4.5-3.6,8.1-8.1,8.1S330,6.5,330,2H346.2z"/>
	<path class="st8" d="M338.1,11.1c-5,0-9.1-4.1-9.1-9.1c0-0.6,0.4-1,1-1h16.2c0.6,0,1,0.4,1,1C347.2,7,343.1,11.1,338.1,11.1z
		 M331.1,3c0.5,3.4,3.4,6.1,7,6.1s6.5-2.7,7-6.1C345.1,3,331.1,3,331.1,3z"/>
</g>
<g>
	<path class="st8" d="M362.4,2c0,4.5-3.6,8.1-8.1,8.1s-8.1-3.6-8.1-8.1H362.4z"/>
	<path class="st8" d="M354.3,11.1c-5,0-9.1-4.1-9.1-9.1c0-0.6,0.4-1,1-1h16.2c0.6,0,1,0.4,1,1C363.4,7,359.3,11.1,354.3,11.1z
		 M347.2,3c0.5,3.4,3.4,6.1,7,6.1s6.5-2.7,7-6.1C361.2,3,347.2,3,347.2,3z"/>
</g>
<g>
	<path class="st8" d="M314,2c0,4.5-3.6,8.1-8.1,8.1s-8.1-3.6-8.1-8.1H314z"/>
	<path class="st8" d="M305.9,11.1c-5,0-9.1-4.1-9.1-9.1c0-0.6,0.4-1,1-1H314c0.6,0,1,0.4,1,1C315,7,310.9,11.1,305.9,11.1z M298.9,3
		c0.5,3.4,3.4,6.1,7,6.1s6.5-2.7,7-6.1C312.9,3,298.9,3,298.9,3z"/>
</g>
<g>
	<path class="st0" d="M2,270h8v-8C5.6,262,2,266,2,270z"/>
</g>
<rect class="st9" width="392" height="270"/>
</svg>