<svg id="Layer_1" xmlns="http://www.w3.org/2000/svg" viewBox="0 0 442 270"><style>.st0{fill:#21586d}.st1{opacity:.1}.st2{fill:#231f20}.st3{fill:#d7d7d7}.st4{opacity:.3}.st5{fill:#fff}.st6{fill:#2d6175}.st7{fill:#0c485f}.st8{opacity:.2;enable-background:new}.st9{fill:#00acc1}.st10{fill:#0094a2}.st11{opacity:.39}.st12{fill:#78d3de}.st13{fill:none}</style><path class="st0" d="M27 24h340v246H27z"/><g class="st1"><path class="st2" d="M27 24h340v22H27z"/></g><path class="st3" d="M102 134h70v6h-70zM222 134h70v6h-70zM102 224h70v6h-70zM222 224h70v6h-70z"/><g class="st4"><path class="st5" d="M107 165h27v27h-27zM140 165h27v27h-27zM107 197h27v27h-27zM140 197h27v27h-27z"/></g><g class="st1"><path class="st5" d="M227 165h27v27h-27zM260 165h27v27h-27zM227 197h27v27h-27zM260 197h27v27h-27z"/></g><path class="st6" d="M107 75h27v27h-27zM140 75h27v27h-27zM107 107h27v27h-27zM140 107h27v27h-27z"/><path class="st7" d="M227 75h27v27h-27zM260 75h27v27h-27zM227 107h27v27h-27zM260 107h27v27h-27zM107 165h27v27h-27zM140 165h27v27h-27zM107 197h27v27h-27zM140 197h27v27h-27z"/><path class="st6" d="M254 192h-27v-27h27v27zm6-27v27h27v-27h-27zm-6 32h-27v27h27v-27zm6 0v27h27v-27h-27z"/><path class="st5" d="M248.2 230c0 4.5-3.6 8.1-8.1 8.1s-8.1-3.6-8.1-8.1h16.2z"/><path class="st5" d="M240.1 239.1c-5 0-9.1-4.1-9.1-9.1 0-.6.4-1 1-1h16.2c.6 0 1 .4 1 1 0 5-4.1 9.1-9.1 9.1zm-7-8.1c.5 3.4 3.4 6.1 7 6.1s6.5-2.7 7-6.1h-14z"/><path class="st5" d="M264.4 230c0 4.5-3.6 8.1-8.1 8.1s-8.1-3.6-8.1-8.1h16.2z"/><path class="st5" d="M256.3 239.1c-5 0-9.1-4.1-9.1-9.1 0-.6.4-1 1-1h16.2c.6 0 1 .4 1 1 0 5-4.1 9.1-9.1 9.1zm-7.1-8.1c.5 3.4 3.4 6.1 7 6.1s6.5-2.7 7-6.1h-14z"/><g><path class="st5" d="M280.5 230c0 4.5-3.6 8.1-8.1 8.1s-8.1-3.6-8.1-8.1h16.2z"/><path class="st5" d="M272.4 239.1c-5 0-9.1-4.1-9.1-9.1 0-.6.4-1 1-1h16.2c.6 0 1 .4 1 1 0 5-4 9.1-9.1 9.1zm-7-8.1c.5 3.4 3.4 6.1 7 6.1s6.5-2.7 7-6.1h-14z"/></g><g><path class="st5" d="M20.6 42c0 4-3.6 8.1-8.1 8.1S4.4 46 4.4 42h16.2z"/><path class="st5" d="M12.6 51.1c-5.2 0-9.1-4.8-9.1-9.1 0-.6.4-1 1-1h16.2c.6 0 1 .4 1 1-.1 4.3-3.9 9.1-9.1 9.1zm-7-8.1c.5 3 3.3 6.1 7 6.1s6.5-3 7-6.1h-14z"/></g><g><path class="st5" d="M36.8 42c0 4-3.6 8.1-8.1 8.1S20.6 46 20.6 42h16.2z"/><path class="st5" d="M28.7 51.1c-5.2 0-9.1-4.8-9.1-9.1 0-.6.4-1 1-1h16.2c.6 0 1 .4 1 1 0 4.3-3.9 9.1-9.1 9.1zm-7-8.1c.5 3 3.3 6.1 7 6.1s6.5-3 7-6.1h-14z"/></g><g><path class="st5" d="M179 42c0 4-3.6 8.1-8.1 8.1s-8.1-4.1-8.1-8.1H179z"/><path class="st5" d="M170.9 51.1c-5.2 0-9.1-4.8-9.1-9.1 0-.6.4-1 1-1H179c.6 0 1 .4 1 1 0 4.3-3.9 9.1-9.1 9.1zm-7-8.1c.5 3 3.3 6.1 7 6.1s6.5-3 7-6.1h-14z"/></g><g><path class="st5" d="M288.9 42c0 4-3.6 8.1-8.1 8.1s-8.1-4.1-8.1-8.1h16.2z"/><path class="st5" d="M280.8 51.1c-5.2 0-9.1-4.8-9.1-9.1 0-.6.4-1 1-1h16.2c.6 0 1 .4 1 1 0 4.3-3.9 9.1-9.1 9.1zm-7-8.1c.5 3 3.3 6.1 7 6.1s6.5-3 7-6.1h-14z"/></g><g><path class="st5" d="M305.1 42c0 4-3.6 8.1-8.1 8.1s-8.1-4.1-8.1-8.1h16.2z"/><path class="st5" d="M297 51.1c-5.2 0-9.1-4.8-9.1-9.1 0-.6.4-1 1-1h16.2c.6 0 1 .4 1 1 0 4.3-3.9 9.1-9.1 9.1zm-7-8.1c.5 3 3.3 6.1 7 6.1s6.5-3 7-6.1h-14z"/></g><g><path class="st5" d="M356.9 42c0 4-3.6 8.1-8.1 8.1s-8.1-4.1-8.1-8.1h16.2z"/><path class="st5" d="M348.8 51.1c-5.2 0-9.1-4.8-9.1-9.1 0-.6.4-1 1-1h16.2c.6 0 1 .4 1 1 0 4.3-3.9 9.1-9.1 9.1zm-7-8.1c.5 3 3.3 6.1 7 6.1s6.5-3 7-6.1h-14z"/></g><g><path class="st5" d="M373.1 42c0 4-3.6 8.1-8.1 8.1s-8.1-4.1-8.1-8.1h16.2z"/><path class="st5" d="M365 51.1c-5.2 0-9.1-4.8-9.1-9.1 0-.6.4-1 1-1h16.2c.6 0 1 .4 1 1 0 4.3-3.9 9.1-9.1 9.1zm-7-8.1c.5 3 3.3 6.1 7 6.1s6.5-3 7-6.1h-14z"/></g><g><path class="st5" d="M389.3 42c0 4-3.6 8.1-8.1 8.1s-8.1-4.1-8.1-8.1h16.2z"/><path class="st5" d="M381.2 51.1c-5.2 0-9.1-4.8-9.1-9.1 0-.6.4-1 1-1h16.2c.6 0 1 .4 1 1 0 4.3-3.9 9.1-9.1 9.1zm-7-8.1c.5 3 3.3 6.1 7 6.1s6.5-3 7-6.1h-14z"/></g><g><path class="st8" d="M69 78.5h-8L2 40V8c0-4.4 4.6-7 9-7h368c9.2 0 55.3 31.6 55.3 31.6 1.8 1.2 2.7 3.2 2.7 5.9v40H69z"/><path class="st9" d="M390 41V9c0-4.4-3.6-8-8-8H10C5.6 1 2 4.6 2 9v32h388z"/><path class="st10" d="M393 43V11c0-4.4-3.6-8-8-8H13c-4.4 0-8 3.6-8 8L2 41l3 2h388z"/><path class="st9" d="M390 41V9c0-4.4-3.6-8-8-8H10C5.6 1 2 4.6 2 9v32h388z"/><g class="st11"><path class="st12" d="M388.6 4.4c-1.3-.9-2.9-1.4-4.6-1.4H12c-4.4 0-8 3.6-8 8v30H2V9c0-4.4 3.6-8 8-8h372c2.7 0 5.1 1.4 6.6 3.4z"/></g><g class="st1"><path class="st2" d="M362 1h4v40h-4z"/></g><g class="st1"><path class="st2" d="M334 1h4v40h-4z"/></g><g class="st1"><path class="st2" d="M306 1h4v40h-4z"/></g><g class="st1"><path class="st2" d="M278 1h4v40h-4z"/></g><g class="st1"><path class="st2" d="M250 1h4v40h-4z"/></g><g class="st1"><path class="st2" d="M222 1h4v40h-4z"/></g><g class="st1"><path class="st2" d="M194 1h4v40h-4z"/></g><g class="st1"><path class="st2" d="M166 1h4v40h-4z"/></g><g class="st1"><path class="st2" d="M138 1h4v40h-4z"/></g><g class="st1"><path class="st2" d="M110 1h4v40h-4z"/></g><g class="st1"><path class="st2" d="M82 1h4v40h-4z"/></g><g class="st1"><path class="st2" d="M54 1h4v40h-4z"/></g><g class="st1"><path class="st2" d="M26 1h4v40h-4z"/></g></g><g><path class="st13" d="M0 0h392v270H0z"/></g></svg>