<?xml version="1.0" encoding="iso-8859-1"?>
<!-- Generator: Adobe Illustrator 21.0.0, SVG Export Plug-In . SVG Version: 6.00 Build 0)  -->
<svg version="1.1" id="slices" xmlns="http://www.w3.org/2000/svg" xmlns:xlink="http://www.w3.org/1999/xlink" x="0px" y="0px"
	 viewBox="0 0 522.1 65.6" style="enable-background:new 0 0 522.1 65.6;" xml:space="preserve">
<g id="New_Symbol_8">
</g>
<g id="New_Symbol_9">
</g>
<g id="New_Symbol_10">
</g>
<g id="New_Symbol_12">
</g>
<g id="New_Symbol_13">
</g>
<g id="New_Symbol_14">
</g>
<g>
	<path style="fill:#ED3737;" d="M58.6,56.5l-0.3-2.4c8.7-1.1,17.5-1.3,26.1-0.7l1.2,0.1c3.2,0.2,6.6,0.5,9.7-0.2
		c2.4-0.6,4.6-1.8,7-3c0.6-0.3,1.1-0.6,1.7-0.9c3.9-2,7.7-2.5,11.6-2.9c1.2-0.1,2.5-0.3,3.7-0.5c6.5-1,12.7-1.4,16.2-1.3
		c6.5,0.3,13.3,2.1,19.8,3.7c5.7,1.5,11.7,3,17.4,3.6l1.7,0.2c13.4,1.4,30.2,3.1,32.1-9.5L209,43c-2.3,14.8-21.1,12.9-34.8,11.5
		l-1.7-0.2c-5.9-0.6-11.9-2.1-17.7-3.6c-6.7-1.7-13.1-3.4-19.3-3.7c-3.3-0.2-9.5,0.3-15.7,1.3c-1.3,0.2-2.6,0.4-3.8,0.5
		c-3.7,0.4-7.3,0.9-10.8,2.7c-0.6,0.3-1.1,0.6-1.7,0.9c-2.4,1.3-4.8,2.6-7.5,3.2c-3.5,0.8-7,0.6-10.4,0.3l-1.1-0.1
		C75.8,55.2,67.1,55.4,58.6,56.5z"/>
	<path style="fill:#37B34A;" d="M146.5,63.6c-4.3,0-8.5-0.1-12.7-0.3c-10.9-0.6-22-2-32.6-3.3c-8.9-1.1-18.1-2.3-27.2-3
		c-5.5-0.4-10.5-0.6-15.2-0.7v-2.4c4.8,0,9.8,0.3,15.4,0.7c9.2,0.7,18.4,1.9,27.4,3c10.6,1.3,21.6,2.7,32.4,3.3
		c16.8,0.9,35.3-0.1,56.5-3.1c5.5-0.8,11.8-1.7,17.3-3.8c1.5-0.6,3.3-1.2,4.2-2.3c1.2-1.6,2-4.2,2.4-7.4c0.1-1.3,0.1-2.7,0-4
		l2.4-0.3c0.2,1.5,0.2,3,0,4.5c-0.2,2.1-0.9,5.9-2.9,8.5c-1.3,1.7-3.6,2.5-5.2,3.1c-5.9,2.2-12.2,3.1-17.9,3.9
		C174.6,62.4,160,63.6,146.5,63.6z"/>
	<path style="fill:#00ADEE;" d="M183.8,65.6c-8,0-18-0.4-21.5-1.1c-1.7-0.3-2.9-0.7-3.4-1.6c-0.4-0.9,0-1.6,0.3-2
		c0-0.1,0.1-0.2,0.1-0.2l0,0v-0.2c0-1.1,1-1.8,2-2.4c0.1-0.1,0.3-0.2,0.4-0.3c-1.6-0.7-7.6-1.6-16.5-2.1c-4.5-0.3-8-0.4-11.2-0.4
		c-0.4,0-0.7,0-1.1,0c-2.4,0-5.5,0-7.4,1c-0.9,0.4-1.7,1-2.5,1.6c-0.5,0.3-0.9,0.7-1.4,1c-2.4,1.5-5.1,2.6-7.9,3
		c-1.1,0.2-2.8,0.3-4.1-0.6c-0.5-0.3-0.9-0.8-1.2-1.1c-0.1-0.1-0.2-0.3-0.3-0.4c-1.2-1.3-3.2-2-5.5-1.9c-1.7,0.1-3.5,0.5-5.3,0.9
		c-0.5,0.1-1,0.2-1.4,0.3c-9.7,2.2-19.7,1.6-29.3,1.1l0.1-2.4c9.5,0.5,19.3,1.1,28.6-1c0.5-0.1,0.9-0.2,1.4-0.3
		c1.9-0.4,3.8-0.9,5.8-1c3-0.1,5.7,0.9,7.4,2.7c0.1,0.1,0.3,0.3,0.4,0.5c0.2,0.3,0.5,0.6,0.7,0.7c0.6,0.4,1.6,0.3,2.3,0.2
		c2.5-0.4,4.9-1.3,7-2.6c0.4-0.3,0.9-0.6,1.3-0.9c0.9-0.6,1.8-1.3,2.8-1.8c2.4-1.2,5.8-1.2,8.5-1.2c0.4,0,0.7,0,1.1,0
		c3.3,0,6.8,0.1,11.4,0.4c4.7,0.3,15.6,1.1,18,2.7c0.9,0.5,1.2,1.1,1.2,1.6c0.1,1.2-1,1.9-2,2.5c-0.3,0.2-0.6,0.4-0.9,0.6
		c0,0.5-0.2,0.9-0.3,1.2c0.3,0.1,0.7,0.2,1.4,0.3c3.7,0.7,14.9,1.1,23,1c12.3-0.1,14.6-1.1,14.9-1.3c2.4-4.1,7.4-4.2,11.4-4.2
		c1.2,0,2.3,0,3.3-0.1c1.7-0.2,4.8-0.9,6.3-3.2c1.3-2,1.7-6.3,1.3-9.2l2.4-0.3c0.3,2.8,0.2,7.9-1.7,10.8c-1.5,2.4-4.4,3.9-8.1,4.3
		c-1.1,0.1-2.3,0.1-3.5,0.2c-3.8,0.1-7.8,0.1-9.4,3.1c-0.4,0.8-1.3,2.3-17,2.4C185.1,65.6,184.5,65.6,183.8,65.6z M200.7,61.9
		L200.7,61.9L200.7,61.9z M162.3,58.1L162.3,58.1L162.3,58.1z"/>
</g>
<rect x="198.3" y="36" style="fill:#6B6B6B;" width="34" height="8.8"/>
<path style="fill:#8C8C8C;" d="M470.6,39.3h-429c-10.2,0-18.5-8.3-18.5-18.5l0,0c0-10.2,8.3-18.5,18.5-18.5h429
	c10.2,0,18.5,8.3,18.5,18.5l0,0C489.1,31,480.8,39.3,470.6,39.3z"/>
<linearGradient id="SVGID_1_" gradientUnits="userSpaceOnUse" x1="255.4" y1="28.6883" x2="255.4" y2="65.6883" gradientTransform="matrix(1 0 0 -1 0 68)">
	<stop  offset="0.9017" style="stop-color:#080808;stop-opacity:0.0322"/>
	<stop  offset="0.9135" style="stop-color:#020202;stop-opacity:0.9951"/>
	<stop  offset="1" style="stop-color:#080808"/>
</linearGradient>
<path style="opacity:0.18;fill:url(#SVGID_1_);enable-background:new    ;" d="M487.2,14.4c-2.6-7.1-9.4-12.1-17.3-12.1h-429
	c-8,0-14.7,5-17.3,12.1H487.2z"/>
<rect x="202.3" y="44.1" style="fill:#8C8C8C;" width="8.1" height="1.8"/>
<rect x="211.2" y="44.1" style="fill:#8C8C8C;" width="8.1" height="1.8"/>
<rect x="220.1" y="44.1" style="fill:#8C8C8C;" width="8.1" height="1.8"/>
<g id="New_Symbol_15">
</g>
<g id="New_Symbol">
</g>
</svg>
