<?xml version="1.0" encoding="iso-8859-1"?>
<!-- Generator: Adobe Illustrator 21.0.0, SVG Export Plug-In . SVG Version: 6.00 Build 0)  -->
<svg version="1.1" id="slices" xmlns="http://www.w3.org/2000/svg" xmlns:xlink="http://www.w3.org/1999/xlink" x="0px" y="0px"
	 viewBox="0 0 522.1 65.6" style="enable-background:new 0 0 522.1 65.6;" xml:space="preserve">
<g id="New_Symbol_8">
</g>
<g id="New_Symbol_9">
</g>
<g id="New_Symbol_10">
</g>
<g id="New_Symbol_12">
</g>
<g id="New_Symbol_13">
</g>
<g id="New_Symbol_14">
</g>
<g>
	<g>
		<g>
			<g>
				
					<ellipse transform="matrix(0.6294 -0.7771 0.7771 0.6294 158.2561 373.4291)" style="fill:#A1A1A1;" cx="470.629" cy="20.8" rx="20.8" ry="20.8"/>
				<path style="opacity:0.1;enable-background:new    ;" d="M483.7,4.6c8.9,7.2,10.3,20.3,3.1,29.2c-7.2,8.9-20.3,10.3-29.2,3.1"/>
			</g>
			
				<ellipse transform="matrix(0.6294 -0.7771 0.7771 0.6294 158.2561 373.4291)" style="fill:#B3B3B3;" cx="470.629" cy="20.8" rx="14" ry="14"/>
			<path style="opacity:0.1;enable-background:new    ;" d="M479.4,9.9c6,4.9,6.9,13.7,2.1,19.7c-4.9,6-13.7,6.9-19.7,2.1"/>
		</g>
		<g>
			<rect x="457.6" y="51" style="fill:#B3B3B3;" width="25" height="6.7"/>
			<path style="opacity:0.1;enable-background:new    ;" d="M477.6,27.3v5.9c-2.1,1.4-4.6,2.2-7.2,2.2c-0.9,0-1.9-0.1-2.8-0.3v-7.8
				c0-2.8,2.2-5,5-5c0.7,0,1.4,0.1,2,0.4s1.1,0.6,1.5,1C477.1,24.7,477.6,25.9,477.6,27.3z"/>
			<path style="fill:#B3B3B3;" d="M475.6,24.7V51h-10V24.7c0-2.8,2.2-5,5-5c0.7,0,1.4,0.1,2,0.4s1.1,0.6,1.5,1
				C475.1,22.1,475.6,23.3,475.6,24.7z"/>
			<path style="fill:#E0E0E0;" d="M472.6,20.1V51h-7V24.7c0-2.8,2.2-5,5-5C471.3,19.7,472,19.8,472.6,20.1z"/>
		</g>
	</g>
	<g>
		<g>
			<g>
				
					<ellipse transform="matrix(0.6294 -0.7771 0.7771 0.6294 -0.9411 39.5731)" style="fill:#A1A1A1;" cx="41.018" cy="20.773" rx="20.8" ry="20.8"/>
				<path style="opacity:0.1;enable-background:new    ;" d="M54.1,4.6c8.9,7.2,10.3,20.3,3.1,29.2S36.9,44.1,28,36.9"/>
			</g>
			
				<ellipse transform="matrix(0.6294 -0.7771 0.7771 0.6294 -0.9411 39.5731)" style="fill:#B3B3B3;" cx="41.018" cy="20.773" rx="14" ry="14"/>
			<path style="opacity:0.1;enable-background:new    ;" d="M49.8,9.9c6,4.9,6.9,13.7,2.1,19.7s-13.7,6.9-19.7,2.1"/>
		</g>
		<g>
			<rect x="28" y="51" style="fill:#B3B3B3;" width="25" height="6.7"/>
			<path style="opacity:0.1;enable-background:new    ;" d="M48,27.3v5.9c-2.1,1.4-4.6,2.2-7.2,2.2c-0.9,0-1.9-0.1-2.8-0.3v-7.8
				c0-2.8,2.2-5,5-5c0.7,0,1.4,0.1,2,0.4s1.1,0.6,1.5,1C47.4,24.7,48,25.9,48,27.3z"/>
			<path style="fill:#B3B3B3;" d="M46,24.7V51H36V24.7c0-2.8,2.2-5,5-5c0.7,0,1.4,0.1,2,0.4s1.1,0.6,1.5,1
				C45.4,22.1,46,23.3,46,24.7z"/>
			<path style="fill:#E0E0E0;" d="M43,20.1V51h-7V24.7c0-2.8,2.2-5,5-5C41.7,19.7,42.4,19.8,43,20.1z"/>
		</g>
	</g>
	<ellipse style="opacity:0.1;enable-background:new    ;" cx="261.1" cy="57.4" rx="261.1" ry="4.2"/>
</g>
<g id="New_Symbol_15">
</g>
<g id="New_Symbol">
</g>
</svg>
