<svg width="1440" height="1024" fill="none" xmlns="http://www.w3.org/2000/svg"><g clip-path="url(#clip0)"><path fill="#7000FF" d="M0 0h1440v1024H0z"/><g clip-path="url(#clip1)"><path d="M1448-8H-4v1162.1h1452V-8z" fill="#7000FF"/><path opacity=".5" d="M158.194 1067s-194.9143-557.208 71.025-593.019c166.279-22.391 203.188-21.648 233.929-37.424 147.535-75.714 404.139-322.043 628.302-204.293 224.16 117.751 389.03-33.155 389.03-33.155l6.71-80.596s-72.57 93.027-223.9 62.501c-151.33-30.527-303.618-251.9028-495.853-44.477-192.235 207.426-416.204 206.261-609.243 215.894C-39.7125 362.29-92.0435 585.589-92.0435 585.589L-168 1067h326.194z" fill="#8053FA"/><path d="M-101.321 722.239s97.83184-382.335 324.819-356.675c228.758 25.912 353.285-24.119 426.867-76.182C751.046 218.177 905.693-3.60929 1120.36 130.664c214.67 134.273 366.28 18.605 366.28 18.605l1.15-31.531s-72.34 75.043-220.94 33.249c-148.6-41.795-278.434-299.934-485.754-107.5223C573.775 235.877 350.565 218.017 157.367 213.094c-198.0378-5.009-227.2849 144.89-227.2849 144.89l-21.4588 219.6-9.9443 144.655z" fill="#7C48F9"/><path opacity=".5" d="M1447.9 686l1.1 192s-176.3-65.5-272 55c-100.9 127-163.2 144-194.9 141-31.7-3-128.1-1-128.1-1s206.3-25 269.7-219c65.4-199.7 265.2-120 324.2-168z" fill="#8053FA"/><path opacity=".1" d="M1209 539c86.16 0 156-16.789 156-37.5s-69.84-37.5-156-37.5-156 16.789-156 37.5 69.84 37.5 156 37.5z" fill="#000"/><path d="M1435 514.1c0 10.4-21.7 18.9-48.5 18.9s-48.5-8.5-48.5-18.9c0-10.4 5-51.1 48.5-51.1 48.5 0 48.5 40.7 48.5 51.1z" fill="#7C48F9"/><path d="M1380 538.2c0 8.2-17 14.8-38 14.8s-38-6.6-38-14.8c0-8.2 3.9-40 38-40 38 0 38 31.8 38 40z" fill="#5C01E4"/><path d="M1393 557c0 5-10.3 9-23 9s-23-4-23-9 2.4-24.2 23-24.2c23 0 23 19.3 23 24.2z" fill="#7C48F9"/><path d="M1166.88 485.598c32.87-18.275 34.57-77.972 3.79-133.337-30.78-55.366-82.38-85.433-115.25-67.158-32.87 18.275-34.57 77.972-3.79 133.337 30.78 55.366 82.38 85.433 115.25 67.158z" fill="#9B2854"/><path d="M1088.8 230.5l-17.2 29.8 14.8 2.1 14.4-24.9c2.5-4.3-.2-9.7-5.1-10.3-2.7-.4-5.5.9-6.9 3.3z" fill="#C73A07"/><path d="M1067.9 235.6l-1.1 26.5 16.8-4.1.9-21.7c.2-5.5-4.9-9.7-10.2-8.4-3.6.9-6.2 4-6.4 7.7z" fill="#C73A07"/><path d="M1047.5 246.7l7.2 21.1 16.3-7.4-6.7-19.5c-1.7-5-7.3-7.4-12.1-5.2-4.2 1.9-6.2 6.7-4.7 11zM988.799 285.4l34.401 1.1-6.1 13.7-28.801-.9c-4.9-.2-8.1-5.3-6.1-9.8 1.1-2.5 3.7-4.2 6.6-4.1z" fill="#C73A07"/><path d="M1005.8 269.5l23.1 13-12.3 12.1-18.9-10.7c-4.8-2.7-5.7-9.3-1.7-13.1 2.5-2.6 6.6-3.2 9.8-1.3z" fill="#C73A07"/><path d="M1026 257.9l14.1 17.3-14.9 9.9-13-16c-3.3-4.1-2.4-10.1 2-13.1 3.8-2.4 8.9-1.6 11.8 1.9z" fill="#C73A07"/><path d="M1043.3 246.1l11.7 21-15.7 8.7-11.7-21c-1.6-3-.6-6.7 2.4-8.3l5-2.8c2.9-1.6 6.7-.5 8.3 2.4zM1014.3 332.9l12.8-36.6-17-5.9-12.8 36.6c-1.1 3.2.6 6.7 3.8 7.8l5.4 1.9c3.2 1.1 6.7-.6 7.8-3.8z" fill="#C73A07"/><path d="M989.7 324l32.5-21.1-9.8-15.1L980 309c-2.8 1.8-3.7 5.6-1.8 8.5l3.1 4.8c1.8 2.8 5.6 3.6 8.4 1.7z" fill="#C73A07"/><path d="M1039.4 331.8l-4.5-38.5-17.9 2.1 4.5 38.5c.4 3.4 3.4 5.8 6.8 5.4l5.7-.7c3.4-.4 5.8-3.4 5.4-6.8z" fill="#C73A07"/><path d="M1061.8 323.8l-14.7-35.9-16.6 6.8 14.7 35.9c1.3 3.1 4.9 4.6 8 3.4l5.3-2.2c3.1-1.3 4.6-4.9 3.3-8z" fill="#C73A07"/><path d="M1081.3 314.5l-18.8-33.9-15.7 8.7 18.8 33.9c1.6 3 5.4 4 8.3 2.4l5-2.8c3-1.6 4.1-5.3 2.4-8.3zM1114.2 277.4l-37.8-8.5 3.9-17.5 37.8 8.5c3.3.7 5.4 4 4.6 7.3l-1.3 5.6c-.6 3.3-3.9 5.3-7.2 4.6z" fill="#C73A07"/><path d="M1118.3 253.3l-35.1 16.5-7.6-16.3 35.1-16.5c3.1-1.4 6.7-.1 8.2 2.9l2.4 5.2c1.4 3.1 0 6.8-3 8.2z" fill="#C73A07"/><path d="M1103.2 297.1l-30.3-24.2 11.2-14.1 30.3 24.2c2.7 2.1 3.1 6 1 8.6l-3.6 4.5c-2.1 2.7-6 3.1-8.6 1z" fill="#C73A07"/><path d="M1084.5 311.9l-22.8-31.4 14.6-10.6 22.8 31.4c2 2.7 1.4 6.6-1.4 8.6l-4.6 3.4c-2.8 2-6.6 1.4-8.6-1.4z" fill="#C73A07"/><path d="M1055.13 284.578c20.76-11.54 34.86-25.785 31.51-31.819-3.35-6.034-22.9-1.571-43.66 9.969-20.75 11.539-34.86 25.785-31.5 31.818 3.35 6.034 22.9 1.571 43.65-9.968z" fill="#9B2854"/><path d="M1202 508c58.54 0 106-79.917 106-178.5S1260.54 151 1202 151s-106 79.917-106 178.5S1143.46 508 1202 508z" fill="#B52C61"/><path opacity=".5" d="M1242.7 153.1L1196 157s43 48 43 117c0 62.6-44 231-119 177 34 37 58.5 74.9 116.3 47.5 57.8-27.4 131.2-199.3 6.4-345.4z" fill="#9B2854"/><path d="M1288.7 101.8l-46 27.5 18.6 14 38.4-23c6.6-3.9 7.1-13.3.9-17.9-3.4-2.6-8.1-2.9-11.9-.6z" fill="#F73"/><path d="M1256.5 92.9l-21.6 35.2 25.9 7.2 17.7-28.8c4.5-7.3.7-16.9-7.6-19.2-5.5-1.6-11.4.7-14.4 5.6z" fill="#F73"/><path d="M1220.2 92.5l-6.1 34.2 27.8 2.2 5.7-31.6c1.4-8.1-4.4-15.6-12.5-16.3-7.2-.4-13.6 4.5-14.9 11.5zM1111 100.8l46 27.5-18.6 14-38.4-23c-6.6-3.9-7.1-13.3-.9-17.9 3.4-2.6 8.2-2.9 11.9-.6z" fill="#F73"/><path d="M1146.3 91.9l21.6 35.2-25.9 7.2-17.7-28.8c-4.5-7.3-.7-16.9 7.6-19.2 5.5-1.6 11.4.7 14.4 5.6z" fill="#F73"/><path d="M1182.5 91.5l6.1 34.2-27.8 2.2-5.7-31.6c-1.4-8.1 4.4-15.6 12.5-16.3 7.3-.4 13.7 4.5 14.9 11.5z" fill="#F73"/><path d="M1215 93v33h-28V93c0-7.7 6.3-14 14-14s14 6.3 14 14zM1113.3 181.8l41.7-37.2-18.6-20.9-41.7 37.2c-5.8 5.1-6.3 14-1.1 19.8 5 5.7 13.9 6.2 19.7 1.1z" fill="#F73"/><path d="M1087.6 153.8l55.8-3.8-1.9-27.9-55.8 3.8c-7.7.5-13.5 7.2-13 14.9s7.2 13.5 14.9 13z" fill="#F73"/><path d="M1146.5 198.1l21.3-51.7-25.9-10.7-21.3 51.7c-2.9 7.1.5 15.3 7.6 18.3 7.2 3 15.4-.4 18.3-7.6z" fill="#F73"/><path d="M1182 203.9l6.7-55.5-27.8-3.3-6.7 55.5c-.9 7.7 4.6 14.6 12.2 15.6 7.7.8 14.7-4.6 15.6-12.3z" fill="#F73"/><path d="M1215 205.9V150h-28v55.9c0 7.7 6.3 14 14 14s14-6.2 14-14zM1284.5 181.8l-41.7-37.2 18.6-20.9 41.7 37.2c5.8 5.1 6.3 14 1.1 19.8-5.1 5.7-13.9 6.2-19.7 1.1z" fill="#F73"/><path d="M1307.1 154.8l-55.8-3.8 1.9-27.9 55.8 3.8c7.7.5 13.5 7.2 13 14.9s-7.2 13.5-14.9 13z" fill="#F73"/><path d="M1256.2 199.1l-21.3-51.7 25.9-10.7 21.3 51.7c2.9 7.1-.5 15.3-7.6 18.3-7.2 3-15.4-.4-18.3-7.6z" fill="#F73"/><path d="M1220.8 204.9l-6.7-55.5 27.8-3.3 6.7 55.5c.9 7.7-4.6 14.6-12.2 15.6-7.7.8-14.7-4.6-15.6-12.3z" fill="#F73"/><path d="M1202 150c37 0 67-8.73 67-19.5s-30-19.5-67-19.5-67 8.73-67 19.5 30 19.5 67 19.5z" fill="#9B2854"/><path d="M1135.65 508.458c22.26-12.815 22.8-53.583 1.23-91.059-21.58-37.475-57.12-57.466-79.37-44.651-22.26 12.815-22.81 53.583-1.23 91.058 21.58 37.476 57.11 57.467 79.37 44.652z" fill="#B52C61"/><path d="M1079.7 335.2l-11.4 20.5 10.2 1.3 9.6-17.2c1.6-2.9-.2-6.6-3.6-7-1.9-.3-3.8.7-4.8 2.4z" fill="#E2632D"/><path d="M1065.6 338.9l-.5 18.1 11.4-2.9.4-14.8c.1-3.8-3.4-6.6-7.1-5.6-2.4.5-4.2 2.6-4.2 5.2z" fill="#E2632D"/><path d="M1051.7 346.6l5.2 14.4 11.1-5.2-4.8-13.2c-1.2-3.4-5.1-5-8.3-3.4-2.9 1.2-4.3 4.5-3.2 7.4zM1012 373.6l23.5.4-4 9.4-19.6-.3c-3.4-.1-5.6-3.5-4.3-6.6.8-1.8 2.5-2.9 4.4-2.9z" fill="#E2632D"/><path d="M1023.5 362.6l15.9 8.6-8.3 8.4-13-7.1c-3.3-1.8-4-6.3-1.3-8.9 1.7-1.8 4.5-2.2 6.7-1z" fill="#E2632D"/><path d="M1037.2 354.5l9.8 11.7-10.1 6.9-9.1-10.8c-2.3-2.7-1.8-6.9 1.2-8.9 2.6-1.8 6.2-1.3 8.2 1.1z" fill="#E2632D"/><path d="M1049.8 348l7.2 12.5-10.6 6.1-7.2-12.5c-1.7-2.9-.7-6.7 2.3-8.4 2.9-1.7 6.6-.7 8.3 2.3zM1030.6 403.9l7.7-23.3-11.7-3.9-7.7 23.3c-1.1 3.2.7 6.7 3.9 7.8 3.3 1.1 6.7-.6 7.8-3.9z" fill="#E2632D"/><path d="M1014.7 398.9l20.4-13.7-6.8-10.2-20.4 13.7c-2.8 1.9-3.6 5.7-1.7 8.5 1.9 2.8 5.7 3.6 8.5 1.7z" fill="#E2632D"/><path d="M1046.8 402.9l-3.2-24.3-12.2 1.6 3.2 24.3c.4 3.4 3.5 5.7 6.9 5.3 3.4-.5 5.8-3.6 5.3-6.9z" fill="#E2632D"/><path d="M1061.5 397.3l-9.6-22.6-11.3 4.8 9.6 22.6c1.3 3.1 4.9 4.6 8.1 3.2 3.1-1.3 4.6-4.9 3.2-8z" fill="#E2632D"/><path d="M1074.5 390.9l-12.2-21.3-10.6 6.1 12.2 21.3c1.7 2.9 5.4 3.9 8.4 2.3 2.9-1.8 3.9-5.5 2.2-8.4zM1095.7 366.5l-24-5 2.5-12 24 5c3.3.7 5.4 3.9 4.8 7.3-.8 3.2-4 5.4-7.3 4.7z" fill="#E2632D"/><path d="M1098.3 351.3l-22 10.8-5.4-11 22-10.8c3-1.5 6.7-.2 8.2 2.8 1.6 3 .3 6.7-2.8 8.2z" fill="#E2632D"/><path d="M1088.7 379.2l-19.4-15 7.5-9.7 19.4 15c2.7 2.1 3.2 5.9 1.1 8.6-2.1 2.7-5.9 3.2-8.6 1.1z" fill="#E2632D"/><path d="M1076.5 389.2l-14.7-19.6 9.8-7.4 14.7 19.6c2 2.7 1.5 6.6-1.2 8.6-2.7 2.1-6.6 1.5-8.6-1.2z" fill="#E2632D"/><path d="M1057.32 372.355c14.07-8.103 23.58-17.969 21.23-22.037-2.34-4.068-15.65-.798-29.72 7.305-14.07 8.102-23.58 17.968-21.23 22.036 2.34 4.068 15.65.798 29.72-7.304z" fill="#9B2854"/><path opacity=".5" d="M1122.4 397s55.6 71 19.6 106c-23.9 23.2-55.3-4-55.3-4s74.3 18 35.7-102z" fill="#9B2854"/><path d="M1354.34 446.609c26.51-51.577 23.2-106.14-7.4-121.871-30.6-15.731-76.91 13.327-103.42 64.903-26.51 51.577-23.2 106.14 7.41 121.871 30.6 15.731 76.9-13.327 103.41-64.903z" fill="#D74D19"/><path d="M1373 370s1 109-85 143c-57 19-62.4-45.7-62.2-47.8.2-2.2 26.2 96.8 147.2-95.2z" fill="#C73A07"/><path d="M1405.4 322.4l-31.4 2 6 12.4 26.3-1.7c4.5-.3 7.3-5.1 5.3-9.1-1.1-2.4-3.6-3.8-6.2-3.6z" fill="#F9719F"/><path d="M1391 309.1l-20.7 12.6 11.6 10.7 17-10.3c4.3-2.6 4.9-8.6 1.2-12.1-2.5-2.3-6.2-2.7-9.1-.9z" fill="#F9719F"/><path d="M1372.1 299.1l-12.4 16.3 13.9 8.6 11.5-15c2.9-3.8 1.9-9.3-2.2-11.9-3.6-2.2-8.2-1.3-10.8 2zM1312.8 274.1l16.6 26.8-13.5 2.3-13.9-22.4c-2.4-3.8-.1-8.9 4.3-9.6 2.6-.5 5.1.7 6.5 2.9z" fill="#F9719F"/><path d="M1333.6 278.9l1.8 24.2-15.5-3.2-1.5-19.8c-.4-5 4.2-9 9.1-8 3.4.7 5.9 3.4 6.1 6.8z" fill="#F9719F"/><path d="M1352.7 288.5l-6 19.6-15.1-6.3 5.5-18.1c1.4-4.6 6.5-7 10.9-5.1 3.9 1.5 5.9 5.8 4.7 9.9z" fill="#F9719F"/><path d="M1370.2 296.1l-9.8 19.1-14.6-7.5 9.8-19.1c1.5-3 5.2-4.2 8.3-2.7l3.7 1.9c3 1.6 4.2 5.3 2.6 8.3zM1290.1 317.6l33.9-8.8-4.1-15.9-33.9 8.8c-3.3.9-5.3 4.2-4.4 7.5l1.1 4.1c.8 3.2 4.2 5.1 7.4 4.3z" fill="#F9719F"/><path d="M1284.4 294.7l32.1 13.8 6.5-15.1-32.1-13.8c-3.1-1.3-6.7.1-8.1 3.2l-1.7 3.9c-1.3 3 .1 6.6 3.3 8z" fill="#F9719F"/><path d="M1303.6 335.9l26.7-22.7-10.7-12.5-26.7 22.7c-2.6 2.2-2.9 6.1-.7 8.7l2.7 3.2c2.2 2.5 6.1 2.8 8.7.6z" fill="#F9719F"/><path d="M1321 348.8l19.6-29-13.6-9.2-19.6 29c-1.9 2.8-1.2 6.6 1.6 8.5l3.5 2.3c2.8 2 6.6 1.2 8.5-1.6z" fill="#F9719F"/><path d="M1337.9 358.9l16-31.1-14.6-7.5-16 31.1c-1.5 3-.4 6.7 2.7 8.3l3.7 1.9c3 1.5 6.7.3 8.2-2.7zM1382.5 365l-12.6-32.7 15.4-5.9 12.6 32.7c1.2 3.2-.4 6.7-3.5 7.9l-3.9 1.5c-3.2 1.3-6.8-.3-8-3.5z" fill="#F9719F"/><path d="M1402.6 356.1l-30-18.1 8.5-14.1 30 18.1c2.9 1.8 3.8 5.5 2.1 8.4l-2.2 3.6c-1.7 3-5.5 3.9-8.4 2.1z" fill="#F9719F"/><path d="M1362.1 366.6l2.9-34.9 16.4 1.4-2.9 34.9c-.3 3.4-3.3 5.9-6.6 5.6l-4.2-.4c-3.4-.2-5.9-3.2-5.6-6.6z" fill="#F9719F"/><path d="M1341.5 360l12.2-32.8 15.4 5.7-12.2 32.8c-1.2 3.2-4.7 4.8-7.9 3.6l-3.9-1.5c-3.2-1.1-4.8-4.6-3.6-7.8z" fill="#F9719F"/><path d="M1387.47 332.049c2.9-5.649-10.43-18.293-29.79-28.242-19.35-9.949-37.39-13.434-40.3-7.786-2.9 5.649 10.43 18.293 29.79 28.242 19.35 9.949 37.39 13.435 40.3 7.786z" fill="#D74D19"/><path d="M1202 122c6.08 0 11-4.925 11-11s-4.92-11-11-11-11 4.925-11 11 4.92 11 11 11zM1184.5 141c1.38 0 2.5-1.119 2.5-2.5s-1.12-2.5-2.5-2.5-2.5 1.119-2.5 2.5 1.12 2.5 2.5 2.5z" fill="#FFCBDC"/><path d="M1167.5 73c12.43 0 22.5-10.0736 22.5-22.5S1179.93 28 1167.5 28 1145 38.0736 1145 50.5s10.07 22.5 22.5 22.5zM1190.5 22c5.8 0 10.5-4.701 10.5-10.5 0-5.79899-4.7-10.5-10.5-10.5S1180 5.70101 1180 11.5c0 5.799 4.7 10.5 10.5 10.5zM1202.5 72c3.04 0 5.5-2.4624 5.5-5.5s-2.46-5.5-5.5-5.5-5.5 2.4624-5.5 5.5 2.46 5.5 5.5 5.5zM1235 40c1.66 0 3-1.3431 3-3s-1.34-3-3-3-3 1.3431-3 3 1.34 3 3 3z" fill="#7C48F9"/><path d="M1228 86c2.76 0 5-2.2386 5-5s-2.24-5-5-5-5 2.2386-5 5 2.24 5 5 5z" fill="#FFCBDC"/><path opacity=".1" d="M756 523c86.156 0 156-16.789 156-37.5S842.156 448 756 448s-156 16.789-156 37.5S669.844 523 756 523z" fill="#000"/><path d="M479.9 153.5s-1.2-40.6-26.9-28.9c-15.9 7.3-19.3-8.6-30-8.6-22 0-20.8 26.3-43.5 20.8-12-3-26.3-10.5-35.5-3.1-9.1 7.3-14 20.3-14 20.3l149.9-.5zM661.5 516.3c0 3.7-10.9 6.8-24.2 6.8-13.3 0-24.2-3-24.2-6.8s2.5-18.2 24.2-18.2c24.2-.1 24.2 14.4 24.2 18.2zM957.2 536.2c0 2.1-6.1 3.8-13.6 3.8s-13.6-1.7-13.6-3.8c0-2.1 1.4-10.2 13.6-10.2 13.6 0 13.6 8.1 13.6 10.2z" fill="#7C48F9"/><path d="M857 180.5s11.6-63.7-37.3-39.5c-36.1 17.9-50.4 6.1-73-3.5-12.8-5.5-58.2-15.6-81.6 9.6-25.1 27.1-13.8 44.8-20.1 62.9-5.9 16.8-27.1 39.7-68.4 40.5-14.1.3-44.8 17.1 30 65.6 74.8 48.5 80.9 176.4 128.1 170.5C782 480.5 857 180.5 857 180.5z" fill="#9D0E9D"/><path d="M769.1 455.9S819 332 805 202c80-3 118 49.4 118 49.4L769.1 455.9z" fill="#7A027E"/><path d="M748.2 220.7c37.1 12.4 70.8 61.5 125.4 52.7 42.3-6.8 32.4-33 12.4-46.2-24.6-16.2-91.7-12.2-80.2-31.9 8.9-15.2 35.4 1.5 59.2 6.7 13.8 3 74.8 26 62.4 67.7-12.4 41.7-32.2 36.3-55.6 79.6-27.1 50.1-60.3 157.4-112.1 137.5-71.1-27.4-62.3-283-11.5-266.1z" fill="#8F0093"/><path d="M757.9 474.4c17-28.7-1.9-78.5 9.1-110 9.5-27.5 11.8-49.4 11.8-49.4s-24.6 4-38.4-2.4c-13.8-6.4-38.1-22-89.8 14.8-27.5 19.6-52.1 9.1-64.7.8-2.7-1.8-6.1.9-5 3.9 12.5 33.1 52.3 130.1 96.2 151.1 27.7 13.2 23.5.7 40.9-3.1 11.6-2.5 25.8 18.1 39.9-5.7z" fill="#AD00AD"/><path d="M804.6 488.2S867 471 870 426c1-8 13.1-22.2 24.4-9.3 11.3 12.9 11.3 24.5 29.6 23.5s14.6 9.8 6.6 22.2c-13.4 20.8-149 59.4-126 25.8z" fill="#8F0093"/><path d="M776.5 308c4.142 0 7.5-3.358 7.5-7.5 0-4.142-3.358-7.5-7.5-7.5-4.142 0-7.5 3.358-7.5 7.5 0 4.142 3.358 7.5 7.5 7.5zM793.5 393c4.142 0 7.5-3.358 7.5-7.5 0-4.142-3.358-7.5-7.5-7.5-4.142 0-7.5 3.358-7.5 7.5 0 4.142 3.358 7.5 7.5 7.5zM842.5 379c3.038 0 5.5-2.462 5.5-5.5s-2.462-5.5-5.5-5.5-5.5 2.462-5.5 5.5 2.462 5.5 5.5 5.5zM869.5 323c4.142 0 7.5-3.358 7.5-7.5 0-4.142-3.358-7.5-7.5-7.5-4.142 0-7.5 3.358-7.5 7.5 0 4.142 3.358 7.5 7.5 7.5zM819 337c7.18 0 13-5.82 13-13s-5.82-13-13-13-13 5.82-13 13 5.82 13 13 13zM756 241c3.314 0 6-2.686 6-6s-2.686-6-6-6-6 2.686-6 6 2.686 6 6 6zM839 418c-6-1-12-6.8-12-14s5.8-13 13-13c3.9 0 7.4 1.7 9.8 4.4C847 401 843 411 839 418z" fill="#C945CB"/><path d="M772.4 233.2s-15.6 17.8 2 37.8c17.6 16 30.1 6.5 33.6 3 2-2 6.8-4.6 14-1 8 4 5.2 12.9 4.1 16.5C825 293 825 300 834 303c13.6 4.5 16-10.2 16-10.2s1-10.8 13-7.8c12 3 10 14 10 14s-9.2 22.8 11.9 29.9c6.1-7.9 59.1-47.9 40-87.9C914 215 882 202 824 188c0 0-16-3-19 6-2.6 7.8 2.8 12.7 11 15 8.2 2.3 9.5 3 64 20 30 12 27 75-107.6 4.2z" fill="#C945CB"/><path d="M665 409c4.418 0 8-3.582 8-8s-3.582-8-8-8-8 3.582-8 8 3.582 8 8 8zM750 377c4.418 0 8-3.582 8-8s-3.582-8-8-8-8 3.582-8 8 3.582 8 8 8zM720.5 356c3.038 0 5.5-2.462 5.5-5.5s-2.462-5.5-5.5-5.5-5.5 2.462-5.5 5.5 2.462 5.5 5.5 5.5zM631.5 384c3.038 0 5.5-2.462 5.5-5.5s-2.462-5.5-5.5-5.5-5.5 2.462-5.5 5.5 2.462 5.5 5.5 5.5zM698.5 392c6.904 0 12.5-5.596 12.5-12.5s-5.596-12.5-12.5-12.5-12.5 5.596-12.5 12.5 5.596 12.5 12.5 12.5z" fill="#9D0E9D"/><path d="M753.2 315.8c5.3.7 8.3 9.2 8.3 15.7 0 0 .7 22.6-24.2 18.3-1.8 13.7-9.7 18.7-20.4 18.1 0 0-17.5.6-18.5-15.4-.4-7.2-5.8-13-13-13 0 0-13 0-13.5 13-.3 6.9-4.5 12.5-11.5 13-4 .5-13-1-13.5-12-.3-6.8-5.7-12.6-12.5-12.5-6.9 0-11.8 5.6-12.5 12.5-1.5 15-14.5 15-17.5 15-4 0-7.6-2.1-10.4-3.9l-15.2-38.3c-.5-1.3 1-2.5 2.1-1.6 10.3 8.1 38 25.1 69.5 2.7 51.7-36.8 76-21.1 89.8-14.8.2 0 7.7 2.5 13 3.2z" fill="#9D0E9D"/><path d="M698 219c7.18 0 13-5.82 13-13s-5.82-13-13-13-13 5.82-13 13 5.82 13 13 13zM883 436c7.18 0 13-5.82 13-13s-5.82-13-13-13-13 5.82-13 13 5.82 13 13 13zM624 294c7.18 0 13-5.82 13-13s-5.82-13-13-13-13 5.82-13 13 5.82 13 13 13zM750.5 190c4.694 0 8.5-3.806 8.5-8.5s-3.806-8.5-8.5-8.5-8.5 3.806-8.5 8.5 3.806 8.5 8.5 8.5zM622.5 258c3.038 0 5.5-2.462 5.5-5.5s-2.462-5.5-5.5-5.5-5.5 2.462-5.5 5.5 2.462 5.5 5.5 5.5zM883.5 468c3.038 0 5.5-2.462 5.5-5.5s-2.462-5.5-5.5-5.5-5.5 2.462-5.5 5.5 2.462 5.5 5.5 5.5zM682 171c2.761 0 5-2.239 5-5s-2.239-5-5-5-5 2.239-5 5 2.239 5 5 5zM802 171c2.761 0 5-2.239 5-5s-2.239-5-5-5-5 2.239-5 5 2.239 5 5 5z" fill="#AD00AD"/><path d="M649 177s17 7.1 19-19c2-26 35.7-24.8 40-4 5 24 50.8 18.5 51-11-30-16-79-21-98 5-12.3 16.8-12 29-12 29z" fill="#AD00AD"/><path opacity=".1" d="M363 566c86.156 0 156-16.789 156-37.5S449.156 491 363 491s-156 16.789-156 37.5S276.844 566 363 566z" fill="#000"/><path d="M505 567.5c0 7.5-21.7 13.5-48.5 13.5s-48.5-6-48.5-13.5 5-36.5 48.5-36.5c48.5 0 48.5 29.1 48.5 36.5z" fill="#7C48F9"/><path d="M501 586.2c0 3.8-11 6.8-24.5 6.8s-24.5-3-24.5-6.8 2.5-18.4 24.5-18.4c24.5 0 24.5 14.6 24.5 18.4zM44.2 458.2c0 2.1-6.1 3.8-13.6 3.8S17 460.3 17 458.2c0-2.1 1.4-10.2 13.6-10.2 13.6 0 13.6 8.1 13.6 10.2z" fill="#9D87F5"/><path d="M417.8 402.7c-.1.2-.1.1 0 0z" fill="#D74D19"/><path d="M550.8 157.5c5.9-7.2 7.6-18.3 0-25.3-6.6-6-18.9-7.7-25.3 0-11.1 13.6-23.4 26.1-36.9 37.4-1.7 1.5-3.5 2.9-5.2 4.3-.6.5-1.2 1-1.9 1.5-.2.1-.6.5-1.2.9-3.2 2.4-6.4 4.7-9.6 6.9-5.6 3.8-11.3 7.4-17.1 10.8-1.3-6.5-2.7-13-3.9-19.5-1.4-7.4-2.7-14.8-3.9-22.2-.6-3.6-1.1-7.1-1.6-10.7 0-.3-.1-.7-.1-1.2-.3-2.5-.6-4.9-.9-7.4-1-9.3-7.5-18.3-17.9-17.9-8.8.4-18.9 7.9-17.9 17.9 2.9 26.8 8.1 53.3 13.6 79.7 2.6 12.6 5.2 25.2 7.6 37.8 1.1 6.1 2.2 12.3 3.1 18.4.2 1.5.5 3.1.7 4.6.1.4.3 2 .4 2.6l1.2 10.2c.3 3.1.6 6.2.8 9.3-9.1-4.8-15.7-10.2-22.9-18.5-2.8-3.2-2.3-2.6-4.5-5.8-1.8-2.7-3.5-5.4-5.1-8.2-.8-1.5-1.6-3.1-2.4-4.6-.3-.6-.6-1.2-.8-1.8-.1-.2-.2-.4-.3-.8-1.2-3.3-2.3-6.5-3.2-9.9-2.1-7.8-10.7-12.6-18.5-10.5-7.9 2.2-12.6 10.6-10.5 18.5 8.2 30.9 30.8 58.2 60.3 71 2.8 1.2 5.7 1.8 8.5 1.7-.2 5-.5 9.9-1 14.9-.2 1.6-.3 3.1-.5 4.7-.1.5-.2 1.4-.2 1.6-.6 3.5-1.2 7-1.9 10.4-2.5 11.9-6 23.5-10.3 34.9-1 2.7-2.1 5.4-3.2 8.1-.1.2-.5 1.2-.7 1.5.1-.2.2-.5.4-1-.6 1.3-1.2 2.7-1.8 4-2.5 5.6-5.2 11.1-7.9 16.5-3 5.8-6.1 11.5-9.3 17.2.2-11.3-.2-22.5-1.4-33.7-3.3-32.4-12-65.6-29.8-93.4-9.2-14.3-20.8-27.1-34.2-37.7l-2.7-2.1c-4.5-7.1-8.5-14.6-11.8-22.4-.2-.5-.9-2.1-1.1-2.6-.5-1.4-1.1-2.8-1.6-4.2-1-2.8-2-5.7-3-8.6-.4-1.2-.8-2.5-1.2-3.7 33.7-24.1 54.7-61.8 56.9-103.3.5-9.3-8.6-18.3-17.9-17.9-10.1.5-17.3 7.8-17.9 17.9-.1 2-.3 4.1-.5 6.1 0 .2 0 .4-.1.6-.1.7-.2 1.5-.3 2.2-.7 4-1.6 8-2.7 11.9-1.1 3.8-2.4 7.5-3.9 11.2 0 .1-.1.2-.1.3-.4.9-.8 1.8-1.3 2.8-1 2.1-2 4.1-3.2 6.1-2 3.6-4.1 7-6.5 10.3-.6.8-1.2 1.6-1.8 2.5v.1c-1.3 1.5-2.6 3.1-3.9 4.6-1.6 1.8-3.3 3.5-5 5.2l-.3-4.2c-.3-5.3-.4-10.6-.2-15.9.1-2.6.3-5.2.5-7.8 0-.1 0-.3.1-.6.1-.6.4-2.9.5-3.3 1.6-9.2-2.5-19.7-12.5-22-8.7-2-20.2 2.6-22 12.5-4.5 25.2-2.2 50.9 3.6 75.6 1.2 5.3 2.6 10.5 4.2 15.8-2.4-1.4-4.7-2.9-7.1-4.4-3-2-6-4-9-6.1-1.4-1-2.7-2-4.1-3-.6-.4-1.1-.9-1.7-1.3 3.1 2.3.3.2-.3-.3-11.1-8.8-21.3-18.7-30.2-29.7-.4-.5-.8-1.1-1.3-1.6l-.1-.1c-1.1-1.5-2.2-2.9-3.2-4.4-2.3-3.3-4.6-6.7-6.7-10.2-1.9-3.1-3.6-6.3-5.3-9.5-.9-1.8-1.8-3.6-2.7-5.5-.3-.6-.6-1.2-.9-1.9 0-.1-.6-1.4-.9-2.1-.1-.3-.2-.5-.2-.6-.4-1.1-.8-2.1-1.2-3.2-.6-1.7-1.2-3.5-1.8-5.2-1.2-3.7-2.3-7.5-3.3-11.3-1-3.9-1.8-7.8-2.5-11.7-.2-1.1-.6-4.1-.6-3.9l-.6-5.7c-.8-9.3-7.6-18.3-17.9-17.9-9 .4-18.8 7.9-17.9 17.9 2.7 30 11.8 59.1 28.5 84.4 16.6 25.2 38.8 46 64 62.5.4.3.8.5 1.2.8-1.2.3-2.4.4-3.4.3.7-.1 1.5-.2 2.2-.3-.9.1-1.7.2-2.6.3-1.3.1-2.6.3-4 .3-2.5.2-5 .3-7.5.3-2.6 0-5.2-.1-7.7-.2-1.4-.1-2.9-.3-4.3-.4h-.5c-.2 0-.4-.1-.6-.1-6.1-1.2-11.9-2.7-17.7-4.8-.4-.1-.6-.2-.8-.3-.2-.1-.5-.3-.8-.5-1.5-.8-3-1.5-4.4-2.2-3-1.6-5.9-3.5-8.7-5.4-7.7-5.3-20.2-1.7-24.4 6.4-4.8 9.1-1.8 18.8 6.4 24.4 36.5 25.1 82.7 22.4 122.1 6.1 1.7 1 3.5 2.1 5.2 3.2 1.5 1 2.9 1.9 4.4 2.9 1.7 1.7 3.6 3.2 5.7 4.3 5.4 4.4 10.5 9.2 15.2 14.3 1.4 1.6 2.9 3.2 4.2 4.8.5.6 1 1.3 1.5 1.9 0 0 0 .1.1.1 0 0 0 .1.1.1 2.3 3.3 4.6 6.5 6.6 9.9 2 3.4 3.9 6.8 5.6 10.4.8 1.6 1.6 3.2 2.3 4.9.4.9.8 1.9 1.3 2.8.1.2.2.3.2.5 1.3 3.3 2.6 6.6 3.7 9.9-2.6-.7-5.2-1.3-7.9-1.7-12.5-1.9-24.8-1.5-37.4-.9-5.5.3-10.9.4-16.4.1-1.4-.1-2.7-.2-4.1-.3h-.5c-2.7-.6-5.4-1.1-8.1-1.9-1-.3-3.2-.7-4-1.4 2.4 1 2.6 1.1.8.3-.6-.3-1.1-.6-1.7-.9-1.4-.7-2.7-1.5-4-2.3-.2-.1-1.5-1-2.4-1.6-.6-.5-2.8-2.3-3.1-2.5-1.4-1.2-2.7-2.5-3.9-3.8-1.4-1.4-2.6-2.9-3.9-4.4-.5-.7-.9-1.1-1-1.3-.6-.8-1.2-1.6-1.7-2.4-5.4-7.6-15.8-12-24.4-6.4-7.5 4.9-12.2 16.3-6.4 24.4 9.7 13.6 21.3 26.1 36.8 33 12.6 5.6 26 7.6 39.8 7.4 11.2-.2 22.5-1.5 33.7-.8 1.3.1 2.6.3 3.9.3.3.1.6.1.9.1 2.8.5 5.6 1.2 8.3 2.1.5.1 1.8.5 2.7.7-.3-.1-.6-.1-1-.2 1.2.3 2.5 1.1 3.6 1.7 1.6.9 3.2 1.8 4.8 2.8.6.4 5.6 4 2.4 1.5 1.3 1 2.8 2 4.3 2.7.4 3.8.7 7.6.9 11.4.5 9.1.6 18.2.3 27.3-.3 9.3-.9 18.6-1.8 27.8-.5 5-1 10-1.6 14.9-.2 2-.5 4-.8 6.1-.4.1-.8.1-1.2.2-.3.1-.6.1-.8.1-1.3.1-2.6.3-3.9.4-5.3.5-10.6.8-15.9.8-5 0-10.1-.2-15.1-.6-.8-.1-4.9-.5-5.1-.5-2.8-.4-5.5-.9-8.2-1.4-10.2-2-20.1-4.9-29.8-8.7-.5-.2-1.8-.7-2.2-.9-.5-.2-1.1-.5-1.6-.7-2.4-1.1-4.7-2.2-7.1-3.4 3.8-12.4 7.6-24.8 11.4-37.1 2.7-8.9-3.3-19.9-12.5-22-9.7-2.2-19 2.9-22 12.5-2.6 8.6-5.3 17.2-7.9 25.9-1.8-1.6-3.7-3.3-5.4-5-3.6-3.5-7-7.1-10.3-10.9-1.5-1.8-3.1-3.6-4.5-5.4-.2-.2-1.7-2.2-1.9-2.4-.7-.9-1.3-1.8-2-2.7-6-8.3-11.4-17-16.2-26.1-2.4-4.4-4.6-8.9-6.8-13.5-1.1-2.4-2.2-4.8-3.3-7.3-.3-.6-.5-1.2-.7-1.7.3.6-1-2.3-1.2-2.8-9.1-22.3-15.9-45.5-21.9-68.8-2.3-9-12.9-15.4-22-12.5-9.3 3-15 12.3-12.5 22 4.7 18.2 9.9 36.6 16.3 54.5-2.1-.6-4.1-1.3-6.1-2 1.2.4-2.9-1.3-3.6-1.6l-5.1-2.7c-1.7-1-3.3-2-4.9-3-.5-.4-3.7-2.8-3.3-2.4-2.6-2.1-5-4.4-7.4-6.8-1.3-1.4-2.6-2.8-3.9-4.3-.4-.4-.7-.9-1.1-1.3-.1-.2-.3-.4-.5-.7-2.1-3.2-4.2-6.4-6-9.8-.6-1.2-1.2-2.5-1.8-3.7.1.2-1.2001-3.3-1.4001-3.9-3-8.8-12.4-15.6-22-12.5-8.8 2.8-15.7 12.5-12.5 22 13.4 39.7 49.4001 67.3 91.0001 70.8 1.4.1 2.9 0 4.2-.3 5.8 11.8 12.3 23.1 19.9 33.9 14.9 21.3 33.4 39.6 54.7 53.5 1.4 1.3 3.1 2.4 4.9 3.1 16.7 10.2 35 17.8 54.6 22.2 26.6 6 53.9 6.2 80.5.7 3.5-.7 16.5-7.6 21.4-15.6 15.7-24.2 31.5-48.8 44.5-74.7 25.1-5.2 48.9-17.2 66.6-36.1 16.8-17.9 27.5-40 35.4-63.1 3-8.8-3.5-19.9-12.5-22-9.9-2.3-18.7 3-22 12.5-.8 2.4-1.7 4.8-2.6 7.2-.4 1.2-.9 2.4-1.4 3.5-.2.5-2.2 5.1-1 2.5 1.2-2.6-.6 1.4-.9 1.9-.5 1.1-1 2.3-1.6 3.4-1.1 2.3-2.2 4.5-3.4 6.7-2.5 4.5-5.1 9-8.1 13.2-.7 1-1.4 2-2.2 3l-.3.3c-1.6 1.9-3.2 3.8-4.9 5.6-2.9 3.1-6.4 7.3-10.1 9.7-.5.3-1.1.6-1.4.8-1.1.8-2.1 1.5-3.2 2.2-2.2 1.4-4.5 2.8-6.8 4.1-.5.3-1 .6-1.6.8 1.6-4.8 3-9.7 4.3-14.7 12.7-49 6.5-98.9-3-147.7 1.6-.4 3.1-1 4.7-1.8 33.6-18.1 62.8-42.3 86.4-70.9zm-217.5-22.6c0 .3 0 .3 0 0zm-6.8 24.8c.4-1.1.5-1.1 0 0zm22.1 192.4c.1.2.1.2 0 0z" fill="#D74D19"/><path d="M417.8 402.7c-.1.2-.1.1 0 0z" fill="url(#paint0_linear)"/><path d="M550.8 157.5c5.9-7.2 7.6-18.3 0-25.3-6.6-6-18.9-7.7-25.3 0-11.1 13.6-23.4 26.1-36.9 37.4-1.7 1.5-3.5 2.9-5.2 4.3-.6.5-1.2 1-1.9 1.5-.2.1-.6.5-1.2.9-3.2 2.4-6.4 4.7-9.6 6.9-5.6 3.8-11.3 7.4-17.1 10.8-1.3-6.5-2.7-13-3.9-19.5-1.4-7.4-2.7-14.8-3.9-22.2-.6-3.6-1.1-7.1-1.6-10.7 0-.3-.1-.7-.1-1.2-.3-2.5-.6-4.9-.9-7.4-1-9.3-7.5-18.3-17.9-17.9-8.8.4-18.9 7.9-17.9 17.9 2.9 26.8 8.1 53.3 13.6 79.7 2.6 12.6 5.2 25.2 7.6 37.8 1.1 6.1 2.2 12.3 3.1 18.4.2 1.5.5 3.1.7 4.6.1.4.3 2 .4 2.6l1.2 10.2c.3 3.1.6 6.2.8 9.3-9.1-4.8-15.7-10.2-22.9-18.5-2.8-3.2-2.3-2.6-4.5-5.8-1.8-2.7-3.5-5.4-5.1-8.2-.8-1.5-1.6-3.1-2.4-4.6-.3-.6-.6-1.2-.8-1.8-.1-.2-.2-.4-.3-.8-1.2-3.3-2.3-6.5-3.2-9.9-2.1-7.8-10.7-12.6-18.5-10.5-7.9 2.2-12.6 10.6-10.5 18.5 8.2 30.9 30.8 58.2 60.3 71 2.8 1.2 5.7 1.8 8.5 1.7-.2 5-.5 9.9-1 14.9-.2 1.6-.3 3.1-.5 4.7-.1.5-.2 1.4-.2 1.6-.6 3.5-1.2 7-1.9 10.4-2.5 11.9-6 23.5-10.3 34.9-1 2.7-2.1 5.4-3.2 8.1-.1.2-.5 1.2-.7 1.5.1-.2.2-.5.4-1-.6 1.3-1.2 2.7-1.8 4-2.5 5.6-5.2 11.1-7.9 16.5-3 5.8-6.1 11.5-9.3 17.2.2-11.3-.2-22.5-1.4-33.7-3.3-32.4-12-65.6-29.8-93.4-9.2-14.3-20.8-27.1-34.2-37.7l-2.7-2.1c-4.5-7.1-8.5-14.6-11.8-22.4-.2-.5-.9-2.1-1.1-2.6-.5-1.4-1.1-2.8-1.6-4.2-1-2.8-2-5.7-3-8.6-.4-1.2-.8-2.5-1.2-3.7 33.7-24.1 54.7-61.8 56.9-103.3.5-9.3-8.6-18.3-17.9-17.9-10.1.5-17.3 7.8-17.9 17.9-.1 2-.3 4.1-.5 6.1 0 .2 0 .4-.1.6-.1.7-.2 1.5-.3 2.2-.7 4-1.6 8-2.7 11.9-1.1 3.8-2.4 7.5-3.9 11.2 0 .1-.1.2-.1.3-.4.9-.8 1.8-1.3 2.8-1 2.1-2 4.1-3.2 6.1-2 3.6-4.1 7-6.5 10.3-.6.8-1.2 1.6-1.8 2.5v.1c-1.3 1.5-2.6 3.1-3.9 4.6-1.6 1.8-3.3 3.5-5 5.2l-.3-4.2c-.3-5.3-.4-10.6-.2-15.9.1-2.6.3-5.2.5-7.8 0-.1 0-.3.1-.6.1-.6.4-2.9.5-3.3 1.6-9.2-2.5-19.7-12.5-22-8.7-2-20.2 2.6-22 12.5-4.5 25.2-2.2 50.9 3.6 75.6 1.2 5.3 2.6 10.5 4.2 15.8-2.4-1.4-4.7-2.9-7.1-4.4-3-2-6-4-9-6.1-1.4-1-2.7-2-4.1-3-.6-.4-1.1-.9-1.7-1.3 3.1 2.3.3.2-.3-.3-11.1-8.8-21.3-18.7-30.2-29.7-.4-.5-.8-1.1-1.3-1.6l-.1-.1c-1.1-1.5-2.2-2.9-3.2-4.4-2.3-3.3-4.6-6.7-6.7-10.2-1.9-3.1-3.6-6.3-5.3-9.5-.9-1.8-1.8-3.6-2.7-5.5-.3-.6-.6-1.2-.9-1.9 0-.1-.6-1.4-.9-2.1-.1-.3-.2-.5-.2-.6-.4-1.1-.8-2.1-1.2-3.2-.6-1.7-1.2-3.5-1.8-5.2-1.2-3.7-2.3-7.5-3.3-11.3-1-3.9-1.8-7.8-2.5-11.7-.2-1.1-.6-4.1-.6-3.9l-.6-5.7c-.8-9.3-7.6-18.3-17.9-17.9-9 .4-18.8 7.9-17.9 17.9 2.7 30 11.8 59.1 28.5 84.4 16.6 25.2 38.8 46 64 62.5.4.3.8.5 1.2.8-1.2.3-2.4.4-3.4.3.7-.1 1.5-.2 2.2-.3-.9.1-1.7.2-2.6.3-1.3.1-2.6.3-4 .3-2.5.2-5 .3-7.5.3-2.6 0-5.2-.1-7.7-.2-1.4-.1-2.9-.3-4.3-.4h-.5c-.2 0-.4-.1-.6-.1-6.1-1.2-11.9-2.7-17.7-4.8-.4-.1-.6-.2-.8-.3-.2-.1-.5-.3-.8-.5-1.5-.8-3-1.5-4.4-2.2-3-1.6-5.9-3.5-8.7-5.4-7.7-5.3-20.2-1.7-24.4 6.4-4.8 9.1-1.8 18.8 6.4 24.4 36.5 25.1 82.7 22.4 122.1 6.1 1.7 1 3.5 2.1 5.2 3.2 1.5 1 2.9 1.9 4.4 2.9 1.7 1.7 3.6 3.2 5.7 4.3 5.4 4.4 10.5 9.2 15.2 14.3 1.4 1.6 2.9 3.2 4.2 4.8.5.6 1 1.3 1.5 1.9 0 0 0 .1.1.1 0 0 0 .1.1.1 2.3 3.3 4.6 6.5 6.6 9.9 2 3.4 3.9 6.8 5.6 10.4.8 1.6 1.6 3.2 2.3 4.9.4.9.8 1.9 1.3 2.8.1.2.2.3.2.5 1.3 3.3 2.6 6.6 3.7 9.9-2.6-.7-5.2-1.3-7.9-1.7-12.5-1.9-24.8-1.5-37.4-.9-5.5.3-10.9.4-16.4.1-1.4-.1-2.7-.2-4.1-.3h-.5c-2.7-.6-5.4-1.1-8.1-1.9-1-.3-3.2-.7-4-1.4 2.4 1 2.6 1.1.8.3-.6-.3-1.1-.6-1.7-.9-1.4-.7-2.7-1.5-4-2.3-.2-.1-1.5-1-2.4-1.6-.6-.5-2.8-2.3-3.1-2.5-1.4-1.2-2.7-2.5-3.9-3.8-1.4-1.4-2.6-2.9-3.9-4.4-.5-.7-.9-1.1-1-1.3-.6-.8-1.2-1.6-1.7-2.4-5.4-7.6-15.8-12-24.4-6.4-7.5 4.9-12.2 16.3-6.4 24.4 9.7 13.6 21.3 26.1 36.8 33 12.6 5.6 26 7.6 39.8 7.4 11.2-.2 22.5-1.5 33.7-.8 1.3.1 2.6.3 3.9.3.3.1.6.1.9.1 2.8.5 5.6 1.2 8.3 2.1.5.1 1.8.5 2.7.7-.3-.1-.6-.1-1-.2 1.2.3 2.5 1.1 3.6 1.7 1.6.9 3.2 1.8 4.8 2.8.6.4 5.6 4 2.4 1.5 1.3 1 2.8 2 4.3 2.7.4 3.8.7 7.6.9 11.4.5 9.1.6 18.2.3 27.3-.3 9.3-.9 18.6-1.8 27.8-.5 5-1 10-1.6 14.9-.2 2-.5 4-.8 6.1-.4.1-.8.1-1.2.2-.3.1-.6.1-.8.1-1.3.1-2.6.3-3.9.4-5.3.5-10.6.8-15.9.8-5 0-10.1-.2-15.1-.6-.8-.1-4.9-.5-5.1-.5-2.8-.4-5.5-.9-8.2-1.4-10.2-2-20.1-4.9-29.8-8.7-.5-.2-1.8-.7-2.2-.9-.5-.2-1.1-.5-1.6-.7-2.4-1.1-4.7-2.2-7.1-3.4 3.8-12.4 7.6-24.8 11.4-37.1 2.7-8.9-3.3-19.9-12.5-22-9.7-2.2-19 2.9-22 12.5-2.6 8.6-5.3 17.2-7.9 25.9-1.8-1.6-3.7-3.3-5.4-5-3.6-3.5-7-7.1-10.3-10.9-1.5-1.8-3.1-3.6-4.5-5.4-.2-.2-1.7-2.2-1.9-2.4-.7-.9-1.3-1.8-2-2.7-6-8.3-11.4-17-16.2-26.1-2.4-4.4-4.6-8.9-6.8-13.5-1.1-2.4-2.2-4.8-3.3-7.3-.3-.6-.5-1.2-.7-1.7.3.6-1-2.3-1.2-2.8-9.1-22.3-15.9-45.5-21.9-68.8-2.3-9-12.9-15.4-22-12.5-9.3 3-15 12.3-12.5 22 4.7 18.2 9.9 36.6 16.3 54.5-2.1-.6-4.1-1.3-6.1-2 1.2.4-2.9-1.3-3.6-1.6l-5.1-2.7c-1.7-1-3.3-2-4.9-3-.5-.4-3.7-2.8-3.3-2.4-2.6-2.1-5-4.4-7.4-6.8-1.3-1.4-2.6-2.8-3.9-4.3-.4-.4-.7-.9-1.1-1.3-.1-.2-.3-.4-.5-.7-2.1-3.2-4.2-6.4-6-9.8-.6-1.2-1.2-2.5-1.8-3.7.1.2-1.2001-3.3-1.4001-3.9-3-8.8-12.4-15.6-22-12.5-8.8 2.8-15.7 12.5-12.5 22 13.4 39.7 49.4001 67.3 91.0001 70.8 1.4.1 2.9 0 4.2-.3 5.8 11.8 12.3 23.1 19.9 33.9 14.9 21.3 33.4 39.6 54.7 53.5 1.4 1.3 3.1 2.4 4.9 3.1 16.7 10.2 35 17.8 54.6 22.2 26.6 6 53.9 6.2 80.5.7 3.5-.7 16.5-7.6 21.4-15.6 15.7-24.2 31.5-48.8 44.5-74.7 25.1-5.2 48.9-17.2 66.6-36.1 16.8-17.9 27.5-40 35.4-63.1 3-8.8-3.5-19.9-12.5-22-9.9-2.3-18.7 3-22 12.5-.8 2.4-1.7 4.8-2.6 7.2-.4 1.2-.9 2.4-1.4 3.5-.2.5-2.2 5.1-1 2.5 1.2-2.6-.6 1.4-.9 1.9-.5 1.1-1 2.3-1.6 3.4-1.1 2.3-2.2 4.5-3.4 6.7-2.5 4.5-5.1 9-8.1 13.2-.7 1-1.4 2-2.2 3l-.3.3c-1.6 1.9-3.2 3.8-4.9 5.6-2.9 3.1-6.4 7.3-10.1 9.7-.5.3-1.1.6-1.4.8-1.1.8-2.1 1.5-3.2 2.2-2.2 1.4-4.5 2.8-6.8 4.1-.5.3-1 .6-1.6.8 1.6-4.8 3-9.7 4.3-14.7 12.7-49 6.5-98.9-3-147.7 1.6-.4 3.1-1 4.7-1.8 33.6-18.1 62.8-42.3 86.4-70.9zm-217.5-22.6c0 .3 0 .3 0 0zm-6.8 24.8c.4-1.1.5-1.1 0 0zm22.1 192.4c.1.2.1.2 0 0z" fill="url(#paint1_linear)"/><path d="M250 282c2.209 0 4-1.791 4-4s-1.791-4-4-4-4 1.791-4 4 1.791 4 4 4z" fill="#FFB1B1"/><path d="M378 367c2.209 0 4-1.791 4-4s-1.791-4-4-4-4 1.791-4 4 1.791 4 4 4zM254 447c2.209 0 4-1.791 4-4s-1.791-4-4-4-4 1.791-4 4 1.791 4 4 4zM96 382c2.2091 0 4-1.791 4-4s-1.7909-4-4-4c-2.2091 0-4 1.791-4 4s1.7909 4 4 4zM318 529c2.209 0 4-1.791 4-4s-1.791-4-4-4-4 1.791-4 4 1.791 4 4 4zM401 466c2.209 0 4-1.791 4-4s-1.791-4-4-4-4 1.791-4 4 1.791 4 4 4zM393 281c2.209 0 4-1.791 4-4s-1.791-4-4-4-4 1.791-4 4 1.791 4 4 4z" fill="#F73"/><path d="M439 175c2.209 0 4-1.791 4-4s-1.791-4-4-4-4 1.791-4 4 1.791 4 4 4zM427 130c2.209 0 4-1.791 4-4s-1.791-4-4-4-4 1.791-4 4 1.791 4 4 4z" fill="#FFB1B1"/><path d="M526 360c2.209 0 4-1.791 4-4s-1.791-4-4-4-4 1.791-4 4 1.791 4 4 4zM415.5 462c4.142 0 7.5-3.358 7.5-7.5 0-4.142-3.358-7.5-7.5-7.5-4.142 0-7.5 3.358-7.5 7.5 0 4.142 3.358 7.5 7.5 7.5zM295.5 378c4.142 0 7.5-3.358 7.5-7.5 0-4.142-3.358-7.5-7.5-7.5-4.142 0-7.5 3.358-7.5 7.5 0 4.142 3.358 7.5 7.5 7.5z" fill="#F73"/><path d="M154.5 324c4.142 0 7.5-3.358 7.5-7.5 0-4.142-3.358-7.5-7.5-7.5-4.142 0-7.5 3.358-7.5 7.5 0 4.142 3.358 7.5 7.5 7.5z" fill="#FFB1B1"/><path d="M370.5 486c4.142 0 7.5-3.358 7.5-7.5 0-4.142-3.358-7.5-7.5-7.5-4.142 0-7.5 3.358-7.5 7.5 0 4.142 3.358 7.5 7.5 7.5zM456.5 292c4.142 0 7.5-3.358 7.5-7.5 0-4.142-3.358-7.5-7.5-7.5-4.142 0-7.5 3.358-7.5 7.5 0 4.142 3.358 7.5 7.5 7.5z" fill="#F73"/><path d="M415 152c1.105 0 2-.895 2-2s-.895-2-2-2-2 .895-2 2 .895 2 2 2zM334 163c1.105 0 2-.895 2-2s-.895-2-2-2-2 .895-2 2 .895 2 2 2zM196 195c1.105 0 2-.895 2-2s-.895-2-2-2-2 .895-2 2 .895 2 2 2zM244 225c1.105 0 2-.895 2-2s-.895-2-2-2-2 .895-2 2 .895 2 2 2zM216 296c1.105 0 2-.895 2-2s-.895-2-2-2-2 .895-2 2 .895 2 2 2zM149 332c1.105 0 2-.895 2-2s-.895-2-2-2-2 .895-2 2 .895 2 2 2zM152 305c1.105 0 2-.895 2-2s-.895-2-2-2-2 .895-2 2 .895 2 2 2zM277 214c1.105 0 2-.895 2-2s-.895-2-2-2-2 .895-2 2 .895 2 2 2zM332 307c1.105 0 2-.895 2-2s-.895-2-2-2-2 .895-2 2 .895 2 2 2z" fill="#FFB1B1"/><path d="M281 372c1.105 0 2-.895 2-2s-.895-2-2-2-2 .895-2 2 .895 2 2 2z" fill="#F73"/><path d="M78 330c1.1046 0 2-.895 2-2s-.8954-2-2-2-2 .895-2 2 .8954 2 2 2z" fill="#FFB1B1"/><path d="M229 479c1.105 0 2-.895 2-2s-.895-2-2-2-2 .895-2 2 .895 2 2 2zM310 514c1.105 0 2-.895 2-2s-.895-2-2-2-2 .895-2 2 .895 2 2 2zM152 393c1.105 0 2-.895 2-2s-.895-2-2-2-2 .895-2 2 .895 2 2 2z" fill="#F73"/><path d="M194 139c1.105 0 2-.895 2-2s-.895-2-2-2-2 .895-2 2 .895 2 2 2zM535 145c1.105 0 2-.895 2-2s-.895-2-2-2-2 .895-2 2 .895 2 2 2zM501 202c1.105 0 2-.895 2-2s-.895-2-2-2-2 .895-2 2 .895 2 2 2z" fill="#FFB1B1"/><path d="M489.5 392c4.142 0 7.5-3.358 7.5-7.5 0-4.142-3.358-7.5-7.5-7.5-4.142 0-7.5 3.358-7.5 7.5 0 4.142 3.358 7.5 7.5 7.5z" fill="#F73"/><path d="M764.4 755.5c43.244 0 78.3-35.056 78.3-78.3s-35.056-78.3-78.3-78.3-78.3 35.056-78.3 78.3 35.056 78.3 78.3 78.3z" fill="#6BB4FD" fill-opacity=".5"/><path d="M310 208c2.209 0 4-1.791 4-4s-1.791-4-4-4-4 1.791-4 4 1.791 4 4 4zM345.5 174c3.59 0 6.5-2.91 6.5-6.5s-2.91-6.5-6.5-6.5-6.5 2.91-6.5 6.5 2.91 6.5 6.5 6.5zM207.5 207c3.59 0 6.5-2.91 6.5-6.5s-2.91-6.5-6.5-6.5-6.5 2.91-6.5 6.5 2.91 6.5 6.5 6.5z" fill="#FFB1B1"/><path d="M756.9 808.6c3.7 14.1-7 48.2 25.3 58" stroke="#5E3930" stroke-width="25.507" stroke-miterlimit="10" stroke-linecap="round"/><path d="M803.901 859.9l-15.7 51.7c-17.7-5.4-11.7-26.2-9.8-32.5 1.9-6.3 7.5-24.8 7.5-24.8" fill="#5E3930"/><path d="M806.7 802.3c-.1 14.6 28.4 22.6 28.4 48.4" stroke="#5E3930" stroke-width="25.507" stroke-miterlimit="10" stroke-linecap="round"/><path d="M822.2 869.5l54.1.1c0-18.5-21.7-18.9-28.2-18.9h-25.9" fill="#5E3930"/><path d="M847 774.8l-25.7-4s.1-.4.1-1.2c0-5.4-3.4-27.2-18.8-27.2-2 0-4.2.3-6.6.9l-6.5-25.2c4.5-1.2 8.9-1.7 13.1-1.7 30.9 0 44.8 31.1 44.8 53.2-.1 2-.2 3.7-.4 5.2z" fill="#F9D232"/><path d="M826.701 756.4c-4.3 0-8.5-2.1-11-6-4.5-7.1-9.7-7.9-13.2-7.9-2 0-4.2.3-6.6.9-6.9 1.8-14.001-2.4-15.801-9.3-1.8-7 2.401-14 9.301-15.8 4.5-1.2 8.9-1.7 13.1-1.7 14.5 0 27 7.1 35.2 20 3.8 6.1 2 14.1-4 17.9-2.2 1.3-4.6 1.9-7 1.9z" fill="#F9D232"/><path d="M830.201 798l-5.4-6.5-7.2 4.5 3.9-25.2 25.2 4-3.9 25.2-5.4-6.6-7.2 4.6z" fill="#5E3930"/><path d="M847.2 779.2l-25-5.8c-1.1-.2-1.7-1.3-1.5-2.4l.1-.4c.2-1.1 1.3-1.7 2.4-1.5l25 5.8c1.1.2 1.7 1.3 1.5 2.4l-.1.4c-.3 1.1-1.4 1.7-2.4 1.5z" fill="#6BB4FD"/><path d="M776.8 830.3c-26.5 0-49.5-19.7-52.9-46.7l-3.4-26.8c-3.7-29.3 17-56 46.3-59.7 29.3-3.7 56 17 59.7 46.3l3.4 26.8c3.7 29.3-17 56-46.3 59.7-2.3.3-4.5.4-6.8.4z" fill="#F9D232"/><path d="M720 745c-21.3-14.2-36.2-33.1-53-60" stroke="#F9D232" stroke-width="25.9975" stroke-miterlimit="10" stroke-dasharray="112.82 112.82"/><path d="M720 745c-21.3-14.2-36.2-33.1-53-60" stroke="#F9D232" stroke-width="25.9975" stroke-miterlimit="10" stroke-linecap="round" stroke-dasharray="39.24 39.24"/><path d="M719 757.7c-2.1-.2-4.2-.9-6.1-2.1-24-16-40-37.1-56.7-63.8-3.7-6-1.9-13.8 4.1-17.6 6-3.7 13.8-1.9 17.6 4.1 20.6 33.1 34.6 46.4 49.2 56.1 5.9 3.9 7.4 11.8 3.5 17.7-2.6 3.9-7.1 5.9-11.6 5.6z" fill="#F8D231"/><path d="M659.4 666.2l1.8-14.4 16.7 26.5-21.6 13.5-11.3-18.2 14.4-7.4z" fill="#5E3930"/><path d="M774.046 754.863c23.616-2.982 40.981-19.48 38.788-36.85-2.194-17.369-23.116-29.031-46.732-26.049-23.615 2.983-40.981 19.481-38.787 36.85 2.193 17.369 23.116 29.032 46.731 26.049z" fill="#6BB4FD"/><path d="M766 749.4c32.64 0 59.1-26.46 59.1-59.1s-26.46-59.1-59.1-59.1-59.1 26.46-59.1 59.1 26.46 59.1 59.1 59.1z" fill="#5E3930"/><path d="M779.4 631.2l-21.1-17.6-.2 22 21.3-4.4z" fill="#5E3930"/><path d="M786.2 629.8l-9.8-10.9-11.5 15.3 21.3-4.4z" fill="#5E3930"/><g clip-path="url(#clip2)"><path d="M784 630.1l14.3-2.6c1.9-.3 3-2.5 2-4.2l-5.3-9.8c-.9-1.7-3.3-2-4.6-.6l-10 10.3c-.9.9-1.1 2.3-.5 3.4l1.1 2c.6 1.1 1.8 1.7 3 1.5z" fill="#6BB4FD"/><path d="M781.3 631.6l-10 10.5c-1.4 1.4-3.7 1.1-4.6-.6l-5.3-9.8c-.9-1.7.1-3.8 2-4.2l14.2-2.8c1.2-.2 2.5.4 3.1 1.5l1.1 2c.5 1.1.3 2.5-.5 3.4z" fill="#6BB4FD"/><path d="M781.1 633.9c3.589 0 6.5-2.91 6.5-6.5s-2.911-6.5-6.5-6.5c-3.59 0-6.5 2.91-6.5 6.5s2.91 6.5 6.5 6.5z" fill="#F9D232"/></g><path d="M760.4 657l-27.1 34.9L705 670c-8.7-6.7-10.3-19.2-3.5-27.9l2.7-3.5c6.7-8.7 19.2-10.3 27.9-3.5l28.3 21.9zM763.101 656.6l34.9 27.1 21.9-28.3c6.7-8.7 5.2-21.2-3.5-27.9l-3.5-2.7c-8.7-6.7-21.2-5.2-27.9 3.5l-21.9 28.3zM678.3 678.4l1-12.7-1-.1c-5-.4-9.3 3.3-9.7 8.3l-.3 3.7 10 .8z" fill="#5E3930"/><path d="M680.2 681.7l-21.7 13.6c-.9.6-2.2.3-2.7-.6l-.2-.4c-.6-.9-.3-2.2.6-2.7l21.7-13.6c.9-.6 2.2-.3 2.7.6l.2.4c.6.9.3 2.1-.6 2.7z" fill="#6BB4FD"/><path d="M764.4 755.5c43.244 0 78.3-35.056 78.3-78.3s-35.056-78.3-78.3-78.3-78.3 35.056-78.3 78.3 35.056 78.3 78.3 78.3z" stroke="#6BB4FD" stroke-width="6" stroke-miterlimit="10"/><path opacity=".5" d="M853.8 921c3.535 0 6.4-2.865 6.4-6.4s-2.865-6.4-6.4-6.4c-3.534 0-6.4 2.865-6.4 6.4s2.866 6.4 6.4 6.4z" fill="#8053FA"/><path d="M825.3 900.1c1.546 0 2.8-1.254 2.8-2.8 0-1.546-1.254-2.8-2.8-2.8-1.546 0-2.8 1.254-2.8 2.8 0 1.546 1.254 2.8 2.8 2.8zM903.2 900.1c1.547 0 2.8-1.254 2.8-2.8 0-1.546-1.253-2.8-2.8-2.8-1.546 0-2.8 1.254-2.8 2.8 0 1.546 1.254 2.8 2.8 2.8z" fill="#7C48F9"/><path d="M772.7 817.4h-28.9v24.1h28.9v-24.1zM823.401 802.053l-21.394 19.426 16.2 17.841 21.395-19.426-16.201-17.841zM807 717.1c4.639 0 8.4-3.761 8.4-8.4s-3.761-8.4-8.4-8.4c-4.64 0-8.4 3.761-8.4 8.4s3.76 8.4 8.4 8.4z" fill="#F9D232"/><path d="M777.4 824.7l-3.5.7c-8.8 1.9-17.4-3.7-19.3-12.5l-9.1-42.8c-1.9-8.8 3.7-17.4 12.5-19.3l3.5-.7c8.8-1.9 17.4 3.7 19.3 12.5l9.1 42.8c1.9 8.8-3.7 17.4-12.5 19.3z" fill="#23201F"/><path d="M807.2 709s30.5 46.6 3.6 54.5" stroke="#332F2E" stroke-width="9.6351" stroke-miterlimit="10" stroke-linecap="round" stroke-linejoin="round"/><path d="M807.2 709s30.5 46.6 3.6 54.5" stroke="#23201F" stroke-width="9.6351" stroke-miterlimit="10" stroke-linejoin="round" stroke-dasharray="9 5"/><path d="M806.7 818.2l-3.5.7c-8.8 1.9-17.4-3.7-19.3-12.5l-9.1-42.8c-1.9-8.8 3.7-17.4 12.5-19.3l3.5-.7c8.8-1.9 17.4 3.7 19.3 12.5l9.1 42.8c1.9 8.8-3.7 17.4-12.5 19.3z" fill="#23201F"/><path d="M807.5 814l-3.1.7c-7.8 1.7-15.6-3.3-17.2-11.2l-9.1-42.7c-1.7-7.8 3.3-15.6 11.2-17.2l3.1-.7c7.8-1.7 15.6 3.3 17.2 11.2l9.1 42.7c1.6 7.8-3.4 15.5-11.2 17.2zM773.3 824.7l-2.9.6c-7.2 1.5-14.301-3.1-15.801-10.3L744.2 766.5c-1.5-7.2 3.1-14.3 10.3-15.8l2.9-.6c7.2-1.5 14.3 3.1 15.8 10.3l10.399 48.5c1.5 7.2-3.099 14.3-10.299 15.8z" fill="#332F2E"/><path d="M1037 963c7.73 0 14-6.268 14-14s-6.27-14-14-14-14 6.268-14 14 6.27 14 14 14z" fill="#7000FF"/><path d="M894.5 441c3.038 0 5.5-2.462 5.5-5.5s-2.462-5.5-5.5-5.5-5.5 2.462-5.5 5.5 2.462 5.5 5.5 5.5z" fill="#AD00AD"/><path d="M1175.6 715.8c39.9-2.2 71.7-7.2 70.1 17.1-1.5 22.2-8.1 37.4-11.7 48.1-4.2 12.2 17.5 30.6 17.4 12.4-.1-21.3 55.6-62.7 12.6-118.5-32-41.5-112.4-34.4-122.3-25-6.7 6.2-6 68.1 33.9 65.9z" fill="#2297CC"/><path d="M1262.5 760.4s31.6 3.4 24.2 15.1c-7.3 11.4-26 5-26 5l-11.4-15.1 13.2-5z" fill="#2297CC"/><path d="M953.8 667.5c2 7.2 4.5 14.3 7.2 21.3.7 1.7 1.3 3.5 2 5.3l2.2 5.2c1.4 3.5 2.9 6.9 4.5 10.3 6.2 13.8 13.1 27.2 20.9 40.4 15.4 26.3 33.6 51.5 54.4 75.1 2.6 3 5.2 5.9 7.8 8.8 2.6 2.9 5.3 5.8 8 8.7 1.3 1.4 2.7 2.9 4.1 4.3l4.1 4.3c2.8 2.8 5.6 5.6 8.4 8.5 11.4 11.2 23.4 22.1 36.1 32.6l4.8 3.9 4.9 3.9 4.9 3.8 2.5 1.9 2.5 1.9c1.7 1.3 3.4 2.5 5.1 3.7l5.2 3.6c.9.6 1.7 1.2 2.6 1.8l2.7 1.8c1.8 1.2 3.6 2.4 5.4 3.5 7.3 4.7 14.8 9.2 22.6 13.5 7.8 4.3 16 8.5 24.6 12.3l3.2 1.4c1.1.5 2.2.9 3.3 1.4 2.2.9 4.5 1.8 6.7 2.7l7 2.6c2.3.8 4.8 1.6 7.1 2.4 9.7 3.1 20 5.7 31.2 7.5 1.4.2 2.8.4 4.3.6l4.3.6c.7.1 1.5.1 2.2.2l2.2.2 4.5.3c1.6.1 3.1.1 4.7.2l2.3.1h2.4c1.6 0 3.2 0 4.8-.1l2.4-.1 2.5-.1c1.7-.1 3.3-.2 5-.3 1.6-.1 3.4-.4 5.1-.6l2.6-.4 1.3-.2 1.3-.2c1.8-.3 3.6-.6 5.3-1 1.7-.3 3.6-.8 5.4-1.2l2.7-.7c.9-.2 1.8-.5 2.7-.7 3.6-1.1 7.2-2.2 10.9-3.8 1.8-.7 3.6-1.4 5.4-2.2 1.8-.8 3.6-1.7 5.4-2.6 1.8-.8 3.5-1.9 5.3-2.9l2.6-1.5c.8-.5 1.7-1 2.5-1.6 1.7-1.1 3.3-2.2 5-3.4l1.2-.9 1.2-.9 2.3-1.9 2.3-1.9c.4-.3.8-.6 1.1-1l1.1-1c1.4-1.3 2.9-2.7 4.3-4.1 5.5-5.5 10.4-11.5 14.3-17.5l1.5-2.3.7-1.1c.2-.4.5-.8.7-1.1.9-1.5 1.7-3 2.6-4.6.9-1.5 1.6-3 2.3-4.6.7-1.5 1.4-3 2.1-4.6l1.8-4.5.9-2.2.2-.6c.1-.2.2-.4.2-.5l.3-1c.8-2.7 1.7-5.3 2.5-8 .7-2.6 1.3-5.2 1.9-7.9.3-1.3.6-2.6.8-3.9l.7-3.9c1.6-10.2 2.3-19.9 2.2-29.2-.1-9.2-1-18-2.1-26.3l-.9-6.2c-.3-2-.8-4-1.1-6l-.6-3-.6-3c-.4-2-.9-3.9-1.3-5.8l-1.4-5.7-1.6-5.6c-.5-1.9-1-3.7-1.6-5.5-.6-1.8-1.1-3.7-1.7-5.4l-1.7-5.3-1.8-5.2c-.6-1.7-1.3-3.5-1.9-5.2-.7-1.7-1.3-3.4-2-5.1-2.6-6.8-5.4-13.4-8.1-19.8-1.4-3.2-2.8-6.5-4.2-9.6-1.4-3.2-2.9-6.3-4.4-9.4-5.8-12.4-11.9-24.4-17.2-35.6l-.4-1c-6.7-13.8-23.3-19.6-37.2-13-10.2 4.9-16.1 15.3-15.7 25.9.2 7.3.6 14.3 1 21.1l1.2 20.1c.2 3.3.4 6.6.5 9.8.1 3.2.3 6.5.4 9.6 0 1.6.1 3.2.2 4.8 0 1.6.1 3.2.1 4.7l.1 4.7v4.6c0 12.3-.4 24.2-1.8 35.2-.8 5.5-1.5 10.7-2.7 15.6-1.1 4.8-4 13.2-4 13.2s-1.9-.3-2.1-1.8v-.1l-.1-.1-.1-.2c-.1-.1-.2-.3-.2-.4-.1-.2-.3-.4-.4-.5l-.2-.2-.2-.2-.5-.5-.6-.5c-1.6-1.4-3.8-3.2-6.2-5.3l-1.9-1.7c-.7-.6-1.3-1.2-2-1.8l-2-1.9-1-1-1.1-1c-2.8-2.8-5.8-5.8-8.8-9.1-3-3.3-6-6.8-9-10.4-.8-.9-1.5-1.9-2.2-2.8l-1.1-1.4c-.4-.5-.7-1-1.1-1.4l-2.2-2.9-2.2-3-1.1-1.5-1.1-1.5-2.2-3.1-2.2-3.1c-.7-1-1.4-2.1-2.1-3.2-5.7-8.5-11.1-17.6-16.4-26.8-1.3-2.4-2.6-4.7-3.9-7.1l-1.9-3.6c-.6-1.2-1.2-2.4-1.9-3.6-2.5-4.9-4.9-9.7-7.3-14.6-9.3-19.9-18.2-40.2-27.4-60.7-4.6-10.2-9.3-20.5-14.1-30.8l-3.7-7.7-3.8-7.7c-.6-1.3-1.3-2.6-2-3.8-.7-1.3-1.4-2.5-2-3.8-1.4-2.5-2.7-5.1-4.2-7.6l-3.3-5.4c-32.1-52.4-100.5-68.9-152.9-36.8-43.7 26.6-62.3 78.4-49.1 125.2z" fill="#28B6F6"/><path d="M1103.6 541.8c.2-2.5-1.6-4.6-4.1-4.8-2.5-.2-4.6 1.6-4.8 4.1-.2 2.5 1.6 4.6 4.1 4.8 2.4.2 4.6-1.6 4.8-4.1zM1082.4 549.7c-2.6 2.9-7.1 3.2-10 .6-2.9-2.6-3.2-7.1-.6-10 2.6-2.9 7.1-3.2 10-.6 3 2.6 3.3 7.1.6 10zM1237 776.6c-2.6 2.9-7.1 3.2-10 .6-2.9-2.6-3.2-7.1-.6-10 2.6-2.9 7.1-3.2 10-.6 2.9 2.6 3.3 7.1.6 10zM1208.9 733.8c-6.6 7.4-17.9 8.1-25.3 1.5-7.4-6.6-8-17.9-1.5-25.3 6.6-7.4 17.9-8.1 25.3-1.5 7.4 6.6 8.2 18 1.5 25.3z" fill="#2297CC"/><path fill-rule="evenodd" clip-rule="evenodd" d="M1044.47 527.126c1.68 4.632 1.69 9.887-.37 14.774-4.4 10.2-16.2 14.9-26.4 10.6l-15.3-6.6c-1-.43-1.94-.93-2.829-1.493 1.089-.719 2.199-1.421 3.329-2.107 13.13-8.041 27.26-13.032 41.57-15.174z" fill="#2297CC"/><path d="M1057.2 530.8l-9.6-43.2c-5.2-23.3-14.7-45.4-28-65.2-15.7-23.2-26-49.5-30.3-77.1l-1.6-10.4c-1.3-8.3-8.9-28.2-17-48-1.7-4.1-7.9-2-6.8 2.3 6.1 22.7 11.9 46.1 12.3 55.1l.9 19.2c1.3 27.9 8.5 55.3 21.1 80.3 10.7 21.4 17.5 44.5 20 68.2l2.6 25.2c.3 3.2 1.5 6.3 3.5 8.8 4.6 6 12.6 8.4 19.7 5.9l1.7-.6c7.6-2.7 12.4-10.3 11.6-18.3l-.1-2.2z" fill="#fff"/><path d="M1022.2 576.5c9.1 1.3 15.3 9.8 14 18.8-1.3 9-9.8 15.3-18.8 13.9-9.1-1.3-15.3-9.8-14-18.8 1.3-9 9.8-15.2 18.8-13.9z" fill="#231F20"/><path d="M1006.6 590.8c-1.3 9 3.5 17.2 10.8 18.3 7.3 1.1 14.3-5.3 15.7-14.3 1.3-9-3.5-17.2-10.8-18.3-7.4-1.1-14.4 5.3-15.7 14.3z" fill="#231F20"/><path opacity=".3" d="M1019.8 588.3c-5-.3-13.6-4.4-12.7 5 .9 9.4 6.9 9.6 12 9.9 5 .3 9.2-2.8 9.5-6.9.1-4.2-3.8-7.8-8.8-8z" fill="#29B6F6"/><path d="M1024.4 588.5c-.3 2.2 1.2 4.2 3.4 4.5 2.2.3 4.3-1.2 4.6-3.3.3-2.2-1.2-4.2-3.4-4.5-2.3-.4-4.3 1.1-4.6 3.3z" fill="#fff"/><path d="M1033.4 707c-69.8 26-87.6 15.5-91.7-4.1-5.8-27.9 10.7-62.3 16-75.8 6.1-15.3-26.9-50.7-21.4-16.9 4.4 26.9-66.6 82.1-23.3 161.1 38.1 69.4 136 50.2 149.2 38.8 8.6-7.5 19.1-121-28.8-103.1z" fill="#28B6F6"/><path d="M899.2 711.4c-1.5 18.1 1.8 38.1 13.8 59.9 38.1 69.4 136 50.2 149.2 38.8 3.7-3.2 7.8-26.1 7.4-49.7C923 845 906 736 899.2 711.4z" fill="#2297CC"/><path d="M1348.1 665.5c-18.5 21.6-55.3 20.5-82.1-2.4-26.8-23-33.5-59.1-15-80.7" fill="#28B6F6"/><path d="M1355.4 666.9c-28.4 2.2-53.6-24.6-56.3-59.8-2.7-35.2 18.2-65.5 46.6-67.6" fill="#28B6F6"/><path d="M1039 818c2.6 3 11.1 12.9 13.7 15.8 2.6 2.9 5.3 5.8 8 8.7 1.3 1.4 2.7 2.9 4.1 4.3l4.1 4.3c2.8 2.8 5.6 5.6 8.4 8.5 11.4 11.2 23.4 22.1 36.1 32.6l4.8 3.9 4.9 3.9 4.9 3.8 2.5 1.9 2.5 1.9c1.7 1.3 3.4 2.5 5.1 3.7l5.2 3.6c.9.6 1.7 1.2 2.6 1.8l2.7 1.8c1.8 1.2 3.6 2.4 5.4 3.5 7.3 4.7 14.8 9.2 22.6 13.5 7.8 4.3 16 8.5 24.6 12.3l3.2 1.4c1.1.5 2.2.9 3.3 1.4 2.2.9 4.5 1.8 6.7 2.7l7 2.6c2.3.8 4.8 1.6 7.1 2.4 9.7 3.1 20 5.7 31.2 7.5 1.4.2 2.8.4 4.3.6l4.3.6c.7.1 1.5.1 2.2.2l2.2.2 4.5.3c1.6.1 3.1.1 4.7.2l2.3.1h2.4c1.6 0 3.2 0 4.8-.1l2.4-.1 2.5-.1c1.7-.1 3.3-.2 5-.3 1.6-.1 3.4-.4 5.1-.6l2.6-.4 1.3-.2 1.3-.2c1.8-.3 3.6-.6 5.3-1 1.7-.3 3.6-.8 5.4-1.2l2.7-.7c.9-.2 1.8-.5 2.7-.7 3.6-1.1 7.2-2.2 10.9-3.8 1.8-.7 3.6-1.4 5.4-2.2 1.8-.8 3.6-1.7 5.4-2.6 1.8-.8 3.5-1.9 5.3-2.9l2.6-1.5c.8-.5 1.7-1 2.5-1.6 1.7-1.1 3.3-2.2 5-3.4l1.2-.9 1.2-.9 2.3-1.9 2.3-1.9c.4-.3.8-.6 1.1-1l1.1-1c1.4-1.3 2.9-2.7 4.3-4.1 5.5-5.5 10.4-11.5 14.3-17.5l1.5-2.3.7-1.1c.2-.4.5-.8.7-1.1.9-1.5 1.7-3 2.6-4.6.9-1.5 1.6-3 2.3-4.6.7-1.5 1.4-3 2.1-4.6l1.8-4.5.9-2.2.2-.6c.1-.2.2-.4.2-.5l.3-1c.8-2.7 1.7-5.3 2.5-8 .7-2.6 1.3-5.2 1.9-7.9.3-1.3.6-2.6.8-3.9l.7-3.9c1.6-10.2 2.3-19.9 2.2-29.2-.1-9.2-1-18-2.1-26.3l-.9-6.2c-.3-2-.8-4-1.1-6l-.6-3-.6-3c-.4-2-.9-3.9-1.3-5.8l-1.4-5.7-1.6-5.6c-.5-1.9-1-3.7-1.6-5.5-.6-1.8-1.1-3.7-1.7-5.4l-1.7-5.3-1.8-5.2c-.6-1.7-1.3-3.5-1.9-5.2-.7-1.7-1.3-3.4-2-5.1-2.6-6.8-5.4-13.4-8.1-19.8-1.4-3.2-2.8-6.5-4.2-9.6-1.4-3.2-2.9-6.3-4.4-9.4-5.8-12.4-11.9-24.4-17.2-35.6l-4.8-8.5c22-56-8-115.9-9-119-3-9 11 73-6 121-7 28 114 260-64 274-58 1.8-145.8-56.3-185-102-6-7-21-30.5-21-73 0-4-37.4 50.7-31 58z" fill="#2297CC"/><path d="M963 586s9-1 7 17" stroke="#231F20" stroke-width="4" stroke-miterlimit="10" stroke-linecap="round"/><path d="M1030.8 441.2c-3.4-6.5-7.1-12.7-11.2-18.8-.8-1.2-1.6-2.5-2.4-3.7-6.8 6.2-15 10.7-25.5 10.8 2 4.9 4.2 9.7 6.5 14.4.9 1.7 1.7 3.5 2.5 5.2 10.7 0 19.1-1.6 30.1-7.9zM1050.2 499.1l-2.6-11.6c-1.5-6.9-3.4-13.6-5.7-20.2-8.6 5.8-18.8 9.4-31 8.7 2.9 9.7 5 19.5 6.4 29.6 10.4 1.1 19.5-.2 32.9-6.5zM999.101 382.6c-5.5 3.6-11.9 5.9-19.3 5.3 1.3 7.6 3.1 15.1 5.2 22.5 7.6-.2 13.9-2 22.699-8.2-3.2-6.3-6.1-12.9-8.599-19.6zM994 367c-1.7-6.1-3.1-12.3-4.2-18.5-4 2.1-8.4 3.4-13.3 3.5l.6 11.4c.1 2.7.3 5.3.5 8 5.2.1 9.9-1 16.4-4.4zM981.701 315.1c-3.2 1.5-6.7 2.6-10.4 2.9 1.6 6.6 2.9 12.5 3.7 17.4 3.7-.4 7.4-1.5 12-3.7-1-4.3-2.9-10.1-5.3-16.6zM970.7 286.8c-1.7-4.1-7.9-2-6.8 2.3 1.1 4.1 2.2 8.2 3.2 12.2 2.8-.2 5.5-.8 8.6-2-1.6-4-3.3-8.2-5-12.5zM1020.4 533.6l.4 3.6c.3 3.2 1.5 6.3 3.5 8.8 4.6 6 12.6 8.4 19.7 5.9l1.7-.6c7.6-2.7 12.4-10.3 11.6-18.3l-.1-2.2-.9-4.1c-10.4 5.8-22.3 9.2-35.9 6.9z" fill="#fff"/><path d="M975.701 299.4c-3.1 1.2-5.8 1.8-8.6 2 1.5 5.7 2.9 11.3 4.1 16.6 3.7-.3 7.2-1.3 10.4-2.9-1.6-4.9-3.7-10.2-5.9-15.7zM989.3 345.3l-1.6-10.4c-.1-.9-.4-2.1-.7-3.3-4.6 2.3-8.3 3.4-12 3.7.7 3.7 1.1 6.7 1.2 8.9l.4 7.8c4.9-.1 9.3-1.4 13.3-3.5-.3-1.1-.5-2.2-.6-3.2zM999.1 382.6c-1.9-5.1-3.6-10.3-5.1-15.6-6.5 3.3-11.2 4.5-16.3 4.4.5 5.5 1.2 11 2.1 16.5 7.4.6 13.7-1.7 19.3-5.3zM1007.8 402.3c-8.899 6.1-15.099 7.9-22.699 8.2 1.9 6.4 4.1 12.7 6.6 18.9 10.499 0 18.699-4.6 25.499-10.8-3.5-5.3-6.6-10.7-9.4-16.3zM1041.9 467.3c-3.1-9-6.8-17.7-11.2-26.1-10.9 6.4-19.4 7.9-30.1 7.8 4.1 8.8 7.5 17.8 10.3 27 12.2.6 22.4-3 31-8.7zM1017.4 505.6c.3 2.1.6 4.3.8 6.4l2.2 21.6c13.6 2.3 25.5-1.1 35.9-7l-6.1-27.5c-13.4 6.3-22.5 7.6-32.8 6.5z" fill="#B71C1C"/></g></g><defs><clipPath id="clip0"><path fill="#fff" d="M0 0h1440v1024H0z"/></clipPath><clipPath id="clip1"><path fill="#fff" d="M-4-8h1453v1162.1H-4z"/></clipPath><clipPath id="clip2"><path fill="#fff" d="M761 612h39.7v31H761z"/></clipPath><linearGradient id="paint0_linear" x1="417.746" y1="402.714" x2="417.78" y2="402.807" gradientUnits="userSpaceOnUse"><stop offset=".1865" stop-color="#FF7BAC"/><stop offset=".5254" stop-color="#FF7BAC" stop-opacity="0"/></linearGradient><linearGradient id="paint1_linear" x1="249.898" y1="74.7088" x2="409.854" y2="514.185" gradientUnits="userSpaceOnUse"><stop offset=".1865" stop-color="#FF7BAC"/><stop offset=".5254" stop-color="#FF7BAC" stop-opacity="0"/></linearGradient></defs></svg>