<svg width="1440" height="1024" fill="none" xmlns="http://www.w3.org/2000/svg"><g clip-path="url(#clip0)"><path fill="#060606" d="M0 0h1440v1024H0z"/><path d="M1442.95-200.714H-328.359V1893.54H1442.95V-200.714z" fill="url(#paint0_radial)"/><path d="M1210.56 726.071l34.3-8.164 47.43-23.666" stroke="#EF9A9A" stroke-width="11.5133" stroke-miterlimit="10" stroke-linecap="round" stroke-linejoin="round"/><path d="M1343.96 756.041l-36.07-59.113-70.05-11.781-32.86-50.018M1307.9 696.928l-6.93-30.279s-52.8.413-83.39-62.11M1301.07 666.649l-51.56-92.08M1284.75 595.135c13.95 23.252 1.65 45.264 1.65 45.264M1341.37 665.305c-15.29-15.605-23.56-67.07-23.56-67.07-.72-1.653-27.69-40.511-27.69-40.511M1308.52 640.089c7.44 23.253 23.04 9.198 23.04 9.198" stroke="#EF9A9A" stroke-width="11.5133" stroke-miterlimit="10" stroke-linecap="round" stroke-linejoin="round"/><path d="M1319.37 715.737l49.8-83.502-15.81-86.705M1381.98 580.77s3.83 17.052-16.53 29.556M1217.17 657.864l-26.35.827M1195.37 692.588l49.49 25.319M1360.39 582.01l-38.13-28.729M1231.64 590.898l37.92 19.428M1369.17 632.235l34.93-14.985" stroke="#EF9A9A" stroke-width="11.5133" stroke-miterlimit="10" stroke-linecap="round" stroke-linejoin="round"/><path d="M1169.43 777.226l-34.62 6.717-52.9-1.963" stroke="#4527A0" stroke-width="11.5133" stroke-miterlimit="10" stroke-linecap="round" stroke-linejoin="round"/><path d="M1060.21 859.694l8.47-68.826 59-39.581 9.3-59.113" stroke="#4527A0" stroke-width="11.5133" stroke-miterlimit="10" stroke-linecap="round" stroke-linejoin="round"/><path d="M1068.68 790.868l-6.2-30.383s48.26-21.393 50.32-91.046M1062.48 760.485l8.89-105.204M1047.81 688.557c-3.1 26.87 17.15 41.958 17.15 41.958M1024.56 783.943c7.54-20.565-5.58-78.851-5.58-78.851 0-1.86 8.47-48.364 8.47-48.364M1044.71 739.299c2.89 24.183-17.15 17.879-17.15 17.879" stroke="#4527A0" stroke-width="11.5133" stroke-miterlimit="10" stroke-linecap="round" stroke-linejoin="round"/><path d="M1066 812.776l-79.88-55.598-21.286-85.466M953.363 715.633s3.617 17.156 27.28 20.049M1135.23 717.907l24.38-10.128M1169.43 740.436l-34.62 43.507M973.41 707.883l22.94-41.958M1094.41 662.825l-26.55 33.276M986.12 757.177l-37.923.827" stroke="#4527A0" stroke-width="11.5133" stroke-miterlimit="10" stroke-linecap="round" stroke-linejoin="round"/><path d="M330.688 812.26l.827 1.447c2.583 4.547 3.41 9.921 2.17 14.984l-7.957 33.794c-2.48 10.644 3.72 21.495 14.26 24.595 6.097 1.757 13.743 3.101 23.146 3.101 8.68 0 15.81-1.137 21.39-2.687 10.436-2.894 16.946-13.435 14.776-24.079l-6.613-32.45c-1.137-5.684.103-11.678 3.617-16.432 10.746-14.571-1.137-34.93-19.117-32.76-4.03.517-8.163.724-12.296.724-4.65 0-9.197-.31-13.536-.93-16.947-2.377-29.243 15.708-20.667 30.693z" fill="#095427"/><path d="M345.258 792.831s-11.47-32.76-32.756-40.407M316.119 733.202s35.649 10.644 40.713 57.355M356.314 727.311s11.057 46.815 9.92 64.073M374.502 790.558s-1.447-41.648 9.403-52.086M397.234 753.767s-11.986 12.608-16.429 39.478" stroke="#4CAF50" stroke-width="5.7566" stroke-miterlimit="10" stroke-linecap="round" stroke-linejoin="round"/><path d="M384.421 793.555c0 4.65-9.713 8.474-21.596 8.474-11.883 0-21.596-3.824-21.596-8.474 0-4.651 9.713-8.475 21.596-8.475 11.883 0 21.596 3.824 21.596 8.475z" fill="#2E7D32"/><path d="M290.699 734.855s50.633-1.653 63.032 69.241M320.045 719.457s40.196 2.584 42.676 86.602M283.363 758.314s39.266-10.024 58.279 40.511M367.371 716.46l4.547 89.599M405.294 734.235s-30.276 10.541-24.799 64.59M389.898 794.071s1.241-36.687 23.87-38.237M396.822 794.071s5.27-21.805 25.316-17.465M331.31 796.448s-7.336-18.292-26.556-19.842" stroke="#095427" stroke-width="5.7566" stroke-miterlimit="10" stroke-linecap="round" stroke-linejoin="round"/><path d="M393.514 861.865c0 3.72-3.1 6.82-6.819 6.82-3.72 0-6.82-3.1-6.82-6.82 0-3.721 3.1-6.821 6.82-6.821 3.823 0 6.819 2.997 6.819 6.821zM379.875 881.81c2.283 0 4.134-1.851 4.134-4.134 0-2.283-1.851-4.134-4.134-4.134-2.282 0-4.133 1.851-4.133 4.134 0 2.283 1.851 4.134 4.133 4.134zM336.475 876.953c2.283 0 4.133-1.851 4.133-4.134 0-2.283-1.85-4.134-4.133-4.134s-4.133 1.851-4.133 4.134c0 2.283 1.85 4.134 4.133 4.134z" fill="#2E7D32"/><path d="M340.61 814.223c2.282 0 4.133-1.85 4.133-4.134 0-2.283-1.851-4.133-4.133-4.133-2.283 0-4.133 1.85-4.133 4.133 0 2.284 1.85 4.134 4.133 4.134zM362.721 825.591c2.283 0 4.133-1.851 4.133-4.134 0-2.283-1.85-4.134-4.133-4.134s-4.133 1.851-4.133 4.134c0 2.283 1.85 4.134 4.133 4.134zM357.555 838.302c0 5.994-4.857 10.955-10.953 10.955-6.097 0-10.954-4.857-10.954-10.955 0-6.097 4.857-10.954 10.954-10.954 6.096 0 10.953 4.96 10.953 10.954z" fill="#4CAF50"/><path d="M349.805 838.302c0 2.274-1.86 4.134-4.133 4.134-2.273 0-4.133-1.86-4.133-4.134 0-2.273 1.86-4.134 4.133-4.134 2.377 0 4.133 1.861 4.133 4.134z" fill="#388E3C"/><path d="M162.465 975.233l9.92 17.051s-14.259 49.916 0 72.756c22.217 35.65-50.219 72.96-16.119 111.51 0 0 21.183-115.23-19.427-131.25l-5.683-10.85M187.576 999.828l-18.703 8.162M185.198 1020.19c-1.447.51-18.6 5.16-18.6 5.16M167.012 1020.19l-13.742-12.2" stroke="#26C6DA" stroke-width="5.7566" stroke-miterlimit="10" stroke-linecap="round" stroke-linejoin="round"/><path d="M1573.53 505.958c-3.51 1.137-6.71 2.377-9.71 3.823-3 1.447-5.79 2.894-8.37 4.651-4.96 3.41-9.09 7.337-12.19 11.988-.83 1.137-1.45 2.377-2.17 3.617-.73 1.24-1.35 2.48-1.86 3.824-1.14 2.686-1.97 5.477-2.59 8.474-.62 2.997-1.13 6.097-1.24 9.507-.2 3.307-.1 6.924.11 10.645.93 14.881-2.79 27.489-10.85 36.48-1.97 2.274-4.24 4.34-6.62 6.201-2.48 1.756-5.26 3.41-8.16 4.753-5.78 2.687-12.71 4.341-20.15 4.961-1.86.103-3.72.413-5.47.62-1.76.207-3.52.517-5.17.93-3.41.723-6.51 1.654-9.4 2.79-2.9 1.137-5.79 2.377-8.27 3.927-2.58 1.551-4.86 3.307-7.03 5.271-2.17 1.963-4.13 4.134-5.99 6.511-1.76 2.377-3.31 5.063-4.75 7.854-1.45 2.79-2.69 5.89-3.72 9.197-.52 1.654-.93 3.411-1.35 5.167-.41 1.757-.82 3.514-1.13 5.478-5.38 30.073-27.18 46.298-57.77 42.887-30.48-3.307-50.83 9.095-61.99 37.927-11.16 28.833-35.55 41.028-65.52 32.76-3.72-1.033-7.33-1.757-10.85-2.273-3.51-.517-6.92-.724-10.23-.62-3.3.103-6.4.413-9.5 1.033-3.1.62-6 1.447-8.89 2.584-5.58 2.377-10.95 5.684-15.81 10.127-4.86 4.444-9.2 10.128-13.23 16.949-1.03 1.653-1.96 3.307-3.1 4.857-1.03 1.55-2.17 2.997-3.3 4.34-2.28 2.791-4.76 5.167-7.34 7.441-5.16 4.34-10.74 7.647-16.84 9.714-1.55.517-3.1.93-4.65 1.24-1.55.31-3.2.517-4.75.724-3.21.31-6.51.413-9.92.103-6.72-.516-13.75-2.17-20.98-5.167-7.23-3.1-14.16-5.064-20.87-5.787-3.31-.414-6.62-.414-9.72-.207-3.2.207-6.2.827-9.3 1.55-6.09 1.447-11.88 4.134-17.36 8.061-2.68 1.964-5.37 4.237-7.95 6.717-1.24 1.241-2.59 2.584-3.83 4.031-1.24 1.343-2.48 2.79-3.72 4.34-4.85 6.097-10.23 11.058-15.91 14.882-5.68 3.72-11.78 6.407-18.08 7.544-6.305 1.24-12.919 1.137-19.635-.104-3.41-.62-6.717-1.55-10.127-2.79-3.41-1.343-6.923-2.997-10.333-4.857-6.923-3.927-13.639-6.511-20.252-7.957-3.307-.724-6.51-1.137-9.817-1.241-3.203-.206-6.407 0-9.61.414-12.606 1.757-24.489 8.577-35.649 19.635-5.58 5.581-11.47 10.024-17.567 13.228-1.55.827-3.099 1.55-4.649 2.17-1.55.62-3.1 1.137-4.754 1.654-3.203.93-6.406 1.55-9.609 1.86-6.51.62-13.124 0-19.737-1.86-6.613-1.86-13.33-5.167-19.943-9.715-6.613-4.443-13.123-7.75-19.633-9.714-6.51-2.067-13.019-2.997-19.529-2.687-6.407.31-12.813 1.964-19.117 4.754-6.303 2.687-12.503 6.614-18.599 11.781-6.097 5.167-12.4 9.094-18.807 11.781-6.406 2.584-13.019 3.927-19.529 4.031-3.307.103-6.613-.207-9.817-.724-3.306-.516-6.51-1.446-9.816-2.687-6.51-2.48-13.02-6.2-19.22-11.161-6.51-5.167-13.123-8.887-19.736-11.471-3.307-1.24-6.613-2.17-10.023-2.79-3.307-.62-6.717-.93-10.023-.93-6.717-.31-13.433.62-20.15 2.893-6.716 2.274-13.433 5.788-20.046 10.645-25.627 18.705-53.319 16.845-75.846-5.271-22.526-22.012-47.429-25.215-74.295-9.404-6.716 4.031-13.433 6.511-20.046 7.958-6.613 1.343-13.02 1.343-19.22.206-12.4-2.48-23.766-9.921-32.859-22.425-2.273-3.101-4.65-5.891-7.13-8.371-2.377-2.584-4.96-4.754-7.543-6.717-1.24-.931-2.583-1.861-3.927-2.687-1.343-.827-2.686-1.654-4.03-2.274-2.686-1.447-5.476-2.48-8.369-3.307-2.894-.827-5.787-1.447-8.784-1.653-2.996-.311-6.199-.207-9.299.103-6.304.517-13.124 2.377-20.15 5.064-3.513 1.447-7.027 2.48-10.437 3.307-3.41.723-6.716 1.136-10.023 1.24-6.51.31-12.606-.827-18.289-3.101-2.894-1.033-5.477-2.583-8.06-4.34-2.48-1.757-4.96-3.72-7.13-6.097-2.17-2.377-4.237-4.961-6.097-7.854-.93-1.447-1.86-2.894-2.686-4.547-.827-1.654-1.653-3.307-2.377-4.961-1.446-3.41-3.1-6.614-4.753-9.508-1.757-2.893-3.513-5.58-5.477-7.957-3.926-4.754-8.163-8.578-13.123-11.264-2.48-1.344-4.96-2.481-7.75-3.307-2.686-.931-5.579-1.447-8.679-1.861-5.994-.826-12.607-.62-19.943.62-14.57 2.171-27.383-.516-36.786-7.75-1.24-.93-2.377-1.861-3.41-2.791-1.137-1.033-2.17-2.067-3.1-3.203-1.964-2.377-3.617-4.961-5.167-7.751-1.55-2.79-2.79-5.787-3.823-8.991-1.033-3.204-1.757-6.821-2.17-10.541-3.927-29.556-19.5297-44.748-49.3924-48.365-7.4399-.93-14.0531-2.997-19.8396-5.787-1.4466-.723-2.8933-1.447-4.1333-2.377-1.3433-.827-2.5833-1.757-3.72-2.79-2.3766-1.964-4.5466-4.134-6.5099-6.511-3.9266-4.65-6.5099-10.334-8.2665-16.638-.8267-3.101-1.4465-6.407-1.6532-9.921-.2067-3.514-.2067-7.131.2066-10.955 2.6867-30.279-9.71318-49.708-38.5426-60.146-7.1299-2.686-13.433-6.097-18.4962-10.231-5.0633-4.237-9.0933-9.197-11.9866-14.778-2.7899-5.58-4.5465-11.781-5.0631-18.395-.5167-6.717.2065-13.848 2.1698-21.392 1.9633-7.544 2.8933-14.675 2.5833-21.185-.1033-3.307-.5165-6.511-1.1365-9.611-.62-3.101-1.6535-6.098-2.7902-8.991-.62-1.447-1.3433-2.791-2.0666-4.237-.7233-1.344-1.5499-2.791-2.4798-4.031-1.7567-2.687-3.8232-5.167-6.0965-7.647-4.6499-4.754-10.3333-9.301-17.2565-13.125-27.3832-15.708-36.8892-41.854-26.2462-72.134 5.27-15.088 5.89-29.143 1.757-41.75-4.134-12.608-12.917-23.769-26.246-33.07l-20.563-14.469L-176.796 260-332 308.778c14.983 48.262 30.276 97.763 47.842 147.885 17.67 50.122 37.716 100.76 61.999 150.778l9.3 18.705c3.203 6.201 6.51 12.402 9.713 18.602.827 1.55 1.653 3.101 2.48 4.651l2.583 4.65 5.167 9.301c3.41 6.201 7.026 12.298 10.643 18.395 14.466 24.389 30.07 48.365 47.119 71.514 17.05 23.149 35.3395 45.678 54.8691 67.277l7.4401 8.061c2.4799 2.686 4.9596 5.373 7.5429 7.957l15.3966 15.605 16.0163 15.191c1.3433 1.241 2.6865 2.584 4.0298 3.721l4.1333 3.617 8.2665 7.337c2.79 2.377 5.4767 4.857 8.36995 7.234l8.57654 7.028c5.78656 4.65 11.46971 9.404 17.46291 13.744l8.8866 6.718 4.4431 3.307 2.2734 1.653 2.2733 1.55 18.393 12.711c1.55 1.034 3.1 2.067 4.6499 3.101l4.7531 2.997 9.4033 5.994c6.3032 4.03 12.7097 7.75 19.1163 11.471 3.2032 1.86 6.4064 3.72 9.713 5.477l9.713 5.374c3.307 1.757 6.51 3.41 9.817 5.064 3.306 1.653 6.51 3.41 9.816 5.064 52.699 26.148 107.155 45.678 161.61 60.038 27.28 7.24 54.559 13.34 81.839 18.4 27.279 5.06 54.456 9.09 81.528 12.4 54.146 6.51 107.878 10.02 161.094 11.37 6.613.1 13.33.21 19.943.31l9.92.1h9.92l19.839-.1h9.92l9.92-.21c26.453-.41 53.009-1.34 79.462-2.69 53.112-2.79 106.328-7.54 159.44-14.67 53.216-7.13 106.324-16.74 159.234-29.35 52.8-12.61 105.4-28.11 156.96-47.124l19.32-7.441 9.61-3.72 4.86-1.861 4.86-1.963c12.81-5.271 25.62-10.748 38.33-16.432 25.32-11.471 50.32-23.769 74.81-37.203 49.09-26.766 96.31-57.356 140.95-92.493 22.32-17.568 43.91-36.17 64.68-56.012 20.77-19.842 40.72-40.821 59.42-63.246 37.51-44.645 70.57-94.353 96.41-148.815l-146.84-70.067c-3.61 1.55-7.23 3.1-10.85 4.547-3.61 1.447-7.13 2.894-10.74 4.34-7.86 2.377-14.88 5.064-22.12 7.338z" fill="#094C26"/><path d="M1810.7 897.518c-55.69-18.292-116.04-18.292-171.73 0-55.7 18.292-116.04 18.292-171.74 0-55.69-18.292-116.04-18.292-171.74 0-55.69 18.292-116.04 18.292-171.73 0-55.7-18.292-116.04-18.292-171.739 0-55.695 18.292-116.041 18.292-171.736 0-55.696-18.292-116.041-18.292-171.737 0s-116.041 18.292-171.737 0-116.041-18.292-171.737 0c-55.695 18.292-116.041 18.292-171.7364 0-55.6955-18.292-116.041-18.292-171.7366 0-55.696 18.292-116.041 18.292-171.737 0-12.4-4.03-25.109-7.234-37.819-9.507v192.429l2184.635-4.34V925.731l-85.98-28.213z" fill="#27632A"/><path d="M483.103 919.014l31-20.152c11.883-7.751 27.899-1.861 31.929 11.677 1.86 6.201.827 12.918-2.997 18.292l-19.736 28.213c-6.716 9.611-20.149 11.988-29.759 5.064l-11.264-8.061c-12.089-8.681-11.779-26.869.827-35.033z" fill="#219750"/><path d="M512.759 948.673l30.999-20.152c11.883-7.751 27.9-1.86 31.93 11.678 1.86 6.201.826 12.918-2.997 18.292l-19.736 28.213c-6.717 9.611-20.15 11.987-29.76 5.063l-11.263-8.06c-12.09-8.681-11.677-26.87.827-35.034zM397.442 965.312l-29.553-22.323c-11.263-8.577-11.16-25.526.207-34 5.27-3.823 11.883-5.167 18.186-3.41l33.273 8.991c11.366 3.1 18.083 14.881 14.88 26.249l-3.72 13.331c-4.03 14.365-21.39 20.256-33.273 11.162z" fill="#219750"/><path d="M335.444 1014.92l-29.553-22.326c-11.263-8.577-11.16-25.526.207-34 5.27-3.824 11.883-5.167 18.186-3.41l33.273 8.991c11.366 3.1 18.083 14.881 14.88 26.249l-3.72 13.336c-4.03 14.36-21.39 20.15-33.273 11.16z" fill="#7CB342"/><path d="M327.383 1048.5l-34.823-12.6c-13.329-4.86-18.289-21.09-9.816-32.56 3.823-5.269 9.92-8.369 16.326-8.679l34.41-1.24c11.779-.413 21.596 8.889 22.009 20.669l.414 13.85c.31 14.98-14.467 25.63-28.52 20.56zM576.618 1050.78l34.822-12.61c13.33-4.86 18.29-21.08 9.817-32.55-3.823-5.28-9.92-8.375-16.326-8.685l-34.41-1.24c-11.78-.414-21.596 8.885-22.009 20.665l-.414 13.85c-.413 14.99 14.363 25.63 28.52 20.57z" fill="#7CB342"/><path d="M415.215 921.39l-29.553-22.322c-11.263-8.577-11.159-25.526.207-34 5.27-3.824 11.883-5.167 18.186-3.41l33.273 8.991c11.367 3.1 18.083 14.881 14.88 26.249l-3.72 13.331c-4.03 14.365-21.286 20.256-33.273 11.161z" fill="#219750"/><path d="M506.25 831.895l-81.632 24.596c-9.093 2.79-16.119 10.024-18.393 19.325l-10.643 41.957c-1.86 7.338-6.716 13.538-13.329 17.155l-56.833 31.004c-7.026 3.823-12.09 10.644-13.64 18.498-4.34 21.81-12.193 72.44-8.679 72.44h302.037c2.894 0-6.716-85.668-9.61-90.938-1.756-3.307-36.682-22.426-62.515-36.274-14.57-7.854-18.806-26.766-8.887-39.994l11.574-15.605c7.439-10.024 7.129-23.769-.827-33.38-6.923-8.577-18.186-11.988-28.623-8.784z" fill="#219750"/><path d="M392.998 958.181c0 4.237-8.887 7.647-19.736 7.647-10.954 0-19.737-3.41-19.737-7.647s8.887-7.648 19.737-7.648c10.849 0 19.736 3.411 19.736 7.648zM397.337 975.646c0 3.307-6.923 5.994-15.499 5.994-8.577 0-15.5-2.687-15.5-5.994s6.923-5.994 15.5-5.994c8.576 0 15.499 2.687 15.499 5.994zM345.362 978.54c6.335 0 11.47-1.99 11.47-4.444 0-2.455-5.135-4.444-11.47-4.444-6.334 0-11.469 1.989-11.469 4.444 0 2.454 5.135 4.444 11.469 4.444zM532.496 935.755c0 4.237-8.887 7.648-19.736 7.648-10.954 0-19.737-3.411-19.737-7.648s8.887-7.647 19.737-7.647c10.849 0 19.736 3.41 19.736 7.647zM536.835 953.324c0 3.307-6.923 5.994-15.499 5.994-8.577 0-15.5-2.687-15.5-5.994s6.923-5.994 15.5-5.994c8.576-.104 15.499 2.687 15.499 5.994zM496.33 951.67c0 2.48-5.167 4.444-11.47 4.444-6.303 0-11.469-1.964-11.469-4.444s5.166-4.444 11.469-4.444c6.303 0 11.47 2.067 11.47 4.444zM447.66 882.223c0 4.237-8.886 7.648-19.736 7.648-10.953 0-19.736-3.411-19.736-7.648s8.886-7.647 19.736-7.647c10.953 0 19.736 3.41 19.736 7.647zM452.103 899.792c0 3.307-6.923 5.994-15.5 5.994-8.576 0-15.499-2.687-15.499-5.994s6.923-5.994 15.499-5.994c8.473-.104 15.5 2.583 15.5 5.994z" fill="#9CCC65"/><path d="M486.514 869.409c0-1.964-2.79-3.721-7.234-4.857 2.997-4.548 4.134-8.371 2.687-9.818-1.446-1.447-5.166-.31-9.61 2.583-1.136-5.167-2.997-8.577-5.063-8.577-2.067 0-3.927 3.41-5.063 8.577-4.444-2.893-8.164-4.03-9.61-2.583-1.447 1.447-.31 5.27 2.686 9.818-4.443 1.136-7.233 2.893-7.233 4.857 0 1.963 2.79 3.72 7.233 4.857-2.996 4.547-4.133 8.371-2.686 9.818 1.446 1.446 5.166.31 9.61-2.584 1.136 5.167 2.996 8.578 5.063 8.578 2.066 0 3.927-3.411 5.063-8.578 4.444 2.894 8.164 4.03 9.61 2.584 1.447-1.447.31-5.271-2.687-9.818 4.34-1.137 7.234-2.894 7.234-4.857zM385.558 918.084c0-1.964-2.79-3.721-7.233-4.858 2.997-4.547 4.133-8.37 2.687-9.817-1.447-1.447-5.167-.31-9.61 2.583-1.137-5.167-2.997-8.577-5.063-8.577-2.067 0-3.927 3.41-5.064 8.577-4.443-2.893-8.163-4.03-9.609-2.583-1.447 1.447-.31 5.27 2.686 9.817-4.443 1.137-7.233 2.894-7.233 4.858 0 1.963 2.79 3.72 7.233 4.857-2.996 4.547-4.133 8.37-2.686 9.817 1.446 1.447 5.166.31 9.609-2.583 1.137 5.167 2.997 8.577 5.064 8.577 2.066 0 3.926-3.41 5.063-8.577 4.443 2.893 8.163 4.03 9.61 2.583 1.446-1.447.31-5.27-2.687-9.817 4.34-1.137 7.233-2.894 7.233-4.857z" fill="#EF9A9A"/><path d="M407.982 869.409c0-1.964-2.79-3.721-7.233-4.857 2.997-4.548 4.133-8.371 2.687-9.818-1.447-1.447-5.167-.31-9.61 2.583-1.137-5.167-2.997-8.577-5.064-8.577-2.066 0-3.926 3.41-5.063 8.577-4.443-2.893-8.163-4.03-9.61-2.583-1.446 1.447-.309 5.27 2.687 9.818-4.443 1.136-7.233 2.893-7.233 4.857 0 1.963 2.79 3.72 7.233 4.857-2.996 4.547-4.133 8.371-2.687 9.818 1.447 1.446 5.167.31 9.61-2.584 1.137 5.167 2.997 8.578 5.063 8.578 2.067 0 3.927-3.411 5.064-8.578 4.443 2.894 8.163 4.03 9.61 2.584 1.446-1.447.31-5.271-2.687-9.818 4.34-1.137 7.233-2.894 7.233-4.857zM302.273 1010.58c0-1.97-2.79-3.72-7.233-4.86 2.997-4.55 4.133-8.372 2.687-9.819-1.447-1.447-5.167-.31-9.61 2.584-1.137-5.167-2.997-8.578-5.063-8.578-2.067 0-3.927 3.411-5.064 8.578-4.443-2.894-8.163-4.031-9.61-2.584-1.446 1.447-.309 5.269 2.687 9.819-4.443 1.14-7.233 2.89-7.233 4.86 0 1.96 2.79 3.72 7.233 4.85-2.996 4.55-4.133 8.37-2.687 9.82 1.447 1.45 5.167.31 9.61-2.58 1.137 5.16 2.997 8.57 5.064 8.57 2.066 0 3.926-3.41 5.063-8.57 4.443 2.89 8.163 4.03 9.61 2.58 1.446-1.45.31-5.27-2.687-9.82 4.443-1.13 7.233-2.89 7.233-4.85zM553.059 847.396c0-1.963-2.79-3.72-7.234-4.857 2.997-4.547 4.134-8.37 2.687-9.817-1.447-1.447-5.167-.31-9.61 2.583-1.136-5.167-2.996-8.577-5.063-8.577-2.067 0-3.927 3.41-5.063 8.577-4.444-2.893-8.163-4.03-9.61-2.583-1.447 1.447-.31 5.27 2.686 9.817-4.443 1.137-7.233 2.894-7.233 4.857 0 1.964 2.79 3.721 7.233 4.858-2.996 4.547-4.133 8.37-2.686 9.817 1.447 1.447 5.166.31 9.61-2.583 1.136 5.167 2.996 8.577 5.063 8.577 2.067 0 3.927-3.41 5.063-8.577 4.443 2.893 8.163 4.03 9.61 2.583 1.447-1.447.31-5.27-2.687-9.817 4.444-1.137 7.234-2.894 7.234-4.858z" fill="#C5E1A5"/><path d="M560.705 904.856c0-1.964-2.79-3.721-7.233-4.858 2.996-4.547 4.133-8.37 2.686-9.817-1.447-1.447-5.166-.31-9.61 2.583-1.136-5.167-2.996-8.577-5.063-8.577-2.067 0-3.926 3.41-5.063 8.577-4.443-2.893-8.163-4.03-9.61-2.583-1.447 1.447-.31 5.27 2.687 9.817-4.443 1.137-7.233 2.894-7.233 4.858 0 1.963 2.79 3.72 7.233 4.857-2.997 4.547-4.134 8.371-2.687 9.817 1.447 1.447 5.167.31 9.61-2.583 1.137 5.167 2.996 8.577 5.063 8.577 2.067 0 3.927-3.41 5.063-8.577 4.444 2.893 8.163 4.03 9.61 2.583 1.447-1.446.31-5.27-2.686-9.817 4.443-1.137 7.233-2.894 7.233-4.857zM321.595 960.351c0-1.963-2.789-3.72-7.233-4.857 2.997-4.547 4.134-8.371 2.687-9.818-1.447-1.447-5.167-.31-9.61 2.584-1.137-5.167-2.996-8.578-5.063-8.578-2.067 0-3.927 3.411-5.063 8.578-4.444-2.894-8.163-4.031-9.61-2.584-1.447 1.447-.31 5.271 2.686 9.818-4.443 1.137-7.233 2.894-7.233 4.857 0 1.964 2.79 3.72 7.233 4.857-2.996 4.547-4.133 8.371-2.686 9.818 1.447 1.447 5.166.31 9.61-2.584 1.136 5.167 2.996 8.578 5.063 8.578 2.067 0 3.926-3.411 5.063-8.578 4.443 2.894 8.163 4.031 9.61 2.584 1.447-1.447.31-5.271-2.687-9.818 4.34-1.137 7.233-2.893 7.233-4.857z" fill="#FCE68D"/><path d="M591.705 935.652c0-1.964-2.79-3.72-7.233-4.857 2.996-4.547 4.133-8.371 2.686-9.818-1.447-1.447-5.166-.31-9.61 2.584-1.136-5.167-2.996-8.578-5.063-8.578-2.067 0-3.926 3.411-5.063 8.578-4.443-2.894-8.163-4.031-9.61-2.584-1.447 1.447-.31 5.271 2.687 9.818-4.443 1.137-7.233 2.893-7.233 4.857 0 1.964 2.79 3.72 7.233 4.857-2.997 4.547-4.134 8.371-2.687 9.818 1.447 1.447 5.167.31 9.61-2.584 1.137 5.167 2.996 8.578 5.063 8.578 2.067 0 3.927-3.411 5.063-8.578 4.444 2.894 8.163 4.031 9.61 2.584 1.447-1.447.31-5.271-2.686-9.818 4.34-1.137 7.233-2.893 7.233-4.857z" fill="#EF9A9A"/><path d="M478.556 925.008c0-1.964-2.79-3.721-7.233-4.858 2.997-4.547 4.133-8.37 2.686-9.817-1.446-1.447-5.166-.31-9.609 2.583-1.137-5.167-2.997-8.577-5.063-8.577-2.067 0-3.927 3.41-5.064 8.577-4.443-2.893-8.163-4.03-9.609-2.583-1.447 1.447-.31 5.27 2.686 9.817-4.443 1.137-7.233 2.894-7.233 4.858 0 1.963 2.79 3.72 7.233 4.857-2.996 4.547-4.133 8.371-2.686 9.817 1.446 1.447 5.166.31 9.609-2.583 1.137 5.167 2.997 8.577 5.064 8.577 2.066 0 3.926-3.41 5.063-8.577 4.443 2.893 8.163 4.03 9.609 2.583 1.447-1.446.311-5.27-2.686-9.817 4.443-1.137 7.233-2.894 7.233-4.857zM616.092 984.947c0-1.964-2.79-3.72-7.234-4.857 2.997-4.547 4.134-8.371 2.687-9.818-1.447-1.447-5.167-.31-9.61 2.584-1.136-5.168-2.996-8.578-5.063-8.578-2.067 0-3.927 3.41-5.063 8.578-4.444-2.894-8.163-4.031-9.61-2.584-1.447 1.447-.31 5.271 2.687 9.818-4.444 1.137-7.234 2.893-7.234 4.857 0 1.963 2.79 3.72 7.234 4.857-2.997 4.547-4.134 8.371-2.687 9.818 1.447 1.448 5.166.31 9.61-2.584 1.136 5.172 2.996 8.582 5.063 8.582 2.067 0 3.927-3.41 5.063-8.582 4.443 2.894 8.163 4.032 9.61 2.584 1.447-1.447.31-5.271-2.687-9.818 4.444-1.137 7.234-2.894 7.234-4.857z" fill="#C5E1A5"/><path d="M452.104 978.953c0-1.964-2.79-3.72-7.234-4.857 2.997-4.547 4.134-8.371 2.687-9.818-1.447-1.447-5.167-.31-9.61 2.584-1.137-5.167-2.996-8.578-5.063-8.578-2.067 0-3.927 3.411-5.064 8.578-4.443-2.894-8.163-4.031-9.609-2.584-1.447 1.447-.31 5.271 2.686 9.818-4.443 1.137-7.233 2.893-7.233 4.857 0 1.963 2.79 3.72 7.233 4.857-2.996 4.547-4.133 8.371-2.686 9.818 1.446 1.446 5.166.31 9.609-2.584 1.137 5.167 2.997 8.578 5.064 8.578s3.926-3.411 5.063-8.578c4.443 2.894 8.163 4.03 9.61 2.584 1.447-1.447.31-5.271-2.687-9.818 4.444-1.137 7.234-2.894 7.234-4.857z" fill="#FCE68D"/><path d="M1810.7 955.494c-55.69-18.292-116.04-18.292-171.73 0-55.7 18.292-116.04 18.292-171.74 0-55.69-18.292-116.04-18.292-171.74 0-55.69 18.292-116.04 18.292-171.73 0-55.7-18.292-116.04-18.292-171.739 0-55.695 18.292-116.041 18.292-171.736 0-55.696-18.292-116.041-18.292-171.737 0s-116.041 18.292-171.737 0-116.041-18.292-171.737 0c-55.695 18.292-116.041 18.292-171.7364 0-55.6955-18.292-116.041-18.292-171.7366 0-55.696 18.292-116.041 18.292-171.737 0-12.4-4.031-25.109-7.234-37.819-9.508v192.324l2184.635-4.34V983.603l-85.98-28.109z" fill="#2E7D32"/><path d="M1000.17 977.299c0 6.098-26.449 11.058-59.205 11.058-32.653 0-59.209-4.96-59.209-11.058 0-6.097 26.453-11.057 59.209-11.057 32.756-.104 59.205 4.857 59.205 11.057zM974.754 1008.41c0 .62-2.893 1.03-6.51 1.03-3.616 0-6.51-.52-6.51-1.03 0-.62 2.894-3.72 6.51-3.72 3.617 0 6.51 3.1 6.51 3.72zM1043.06 1016.16c0 .62-2.9 1.03-6.51 1.03-3.62 0-6.51-.52-6.51-1.03 0-.62 2.89-3.72 6.51-3.72 3.61 0 6.51 3.1 6.51 3.72zM1066 984.947c0 1.343-6.82 2.48-15.19 2.48s-15.19-1.137-15.19-2.48c0-1.344 6.82-8.784 15.19-8.784s15.19 7.44 15.19 8.784z" fill="#388E3C"/><path d="M146.553 810.503c7.233.413 14.673 2.893 20.976 7.131 11.78 7.854 21.183 21.908 34.926 22.425 7.026.207 13.33-3.307 20.046-5.167 22.113-6.097 46.809 7.957 58.279 27.696 3.306 5.684 5.89 11.988 10.953 16.122 8.473 6.82 20.976 5.374 31.929 6.717 18.807 2.274 35.236 14.571 41.643 31.726 3.203 8.475 4.03 18.086 8.783 25.733 6.2 10.128 17.773 14.985 28.21 20.462 6.406 3.307 12.606 7.027 16.636 12.918 4.03 5.891 7.44 12.608 8.783 19.945.827 4.649.827 9.719-.413 14.569-1.447 5.69-5.063 10.54-7.75 15.81-1.137 2.17-2.067 4.55-2.067 6.93-.103 4.03 2.48 7.23 5.477 9.51 6.716 5.06 14.053 8.37 19.529 14.77 9.094 10.55 13.124 26.15 6.407 41.44-3.72 8.38-10.54 16.64-18.91 20.47-7.956 3.61-16.533 4.03-24.489 2.89-21.39-3.2-38.543-16.64-56.316-28.52-23.662-15.92-49.289-29.77-74.088-45.68-24.593-15.81-48.463-34-67.889-56.942-19.943-23.563-35.133-50.742-51.666-77.198-5.58-8.991-11.263-17.982-17.463-26.663-12.296-17.465-26.969-38.03-21.906-56.942 2.687-9.714 10.85-17.052 20.873-19.325 2.997-.827 6.2-1.034 9.507-.827z" fill="#028490"/><path d="M169.492 865.275c5.373.207 10.953 1.963 15.603 5.064 8.783 5.684 15.809 16.018 25.936 16.328 5.27.103 9.92-2.584 14.88-3.927 16.533-4.547 34.822 5.994 43.296 20.772 2.48 4.237 4.34 8.991 8.163 12.091 6.303 5.167 15.603 4.237 23.766 5.374 13.95 1.964 26.246 11.471 31 24.389 2.376 6.408 2.996 13.538 6.509 19.429 4.65 7.647 13.227 11.678 21.08 16.018 4.753 2.687 9.403 5.581 12.4 10.128 2.996 4.547 5.58 9.609 6.613 15.189.62 3.52.62 7.24-.31 10.85-1.137 4.14-3.823 7.65-5.787 11.47-.826 1.66-1.549 3.31-1.549 5.07 0 3 1.859 5.48 4.029 7.23 5.064 3.93 10.437 6.72 14.57 11.68 6.717 8.16 9.817 19.95 4.857 31.11-2.79 6.09-7.957 11.98-14.157 14.57-5.993 2.48-12.399 2.48-18.289 1.34-15.913-3-28.83-13.43-41.953-22.63-17.67-12.3-36.683-22.94-55.076-35.03-18.289-11.99-36.062-25.43-50.529-42.478-14.879-17.362-26.142-37.514-38.439-56.943-4.133-6.614-8.37-13.228-13.02-19.532-9.196-12.814-20.149-27.799-16.326-41.854 1.963-7.337 8.06-12.918 15.5-14.778 2.376-.723 4.753-1.033 7.233-.93z" fill="#00B4C9"/><path d="M161.329 845.95c6.097.31 12.297 2.273 17.463 5.787 9.817 6.511 17.67 18.085 29.139 18.498 5.89.207 11.16-2.893 16.74-4.443 18.497-5.167 39.059 6.717 48.669 23.252 2.687 4.754 4.96 10.024 9.197 13.538 7.13 5.787 17.463 4.65 26.659 5.891 15.707 2.17 29.45 12.608 34.823 27.076 2.687 7.13 3.41 15.191 7.336 21.702 5.167 8.577 14.88 12.918 23.56 17.672 5.373 2.893 10.54 6.097 13.95 11.161 3.41 5.063 6.303 10.747 7.336 16.846.724 3.93.724 8.06-.413 12.19-1.24 4.65-4.237 8.68-6.51 13.02-.93 1.86-1.653 3.83-1.757 5.69 0 3.31 2.067 6.1 4.547 8.06 5.58 4.34 11.78 7.34 16.326 12.81 7.544 8.99 10.954 22.22 5.374 34.83-3.1 6.92-8.887 13.64-15.913 16.64-6.717 2.89-13.847 3-20.46 1.86-17.876-3.1-32.239-14.68-47.119-24.8-19.736-13.64-41.126-25.43-61.792-38.86-20.46-13.33-40.403-28.52-56.729-47.642-16.636-19.532-29.346-42.164-43.089-64.073-4.65-7.441-9.403-14.882-14.57-22.012-10.23-14.468-22.63-31.417-18.29-47.228 2.274-8.164 9.093-14.365 17.463-16.432 2.584-.93 5.374-1.24 8.06-1.033z" fill="#93DAE4"/><path d="M169.492 865.275c5.373.207 10.953 1.963 15.603 5.064 8.783 5.684 15.809 16.018 25.936 16.328 5.27.103 9.92-2.584 14.88-3.927 16.533-4.547 34.822 5.994 43.296 20.772 2.48 4.237 4.34 8.991 8.163 12.091 6.303 5.167 15.603 4.237 23.766 5.374 13.95 1.964 26.246 11.471 31 24.389 2.376 6.408 2.996 13.538 6.509 19.429 4.65 7.647 13.227 11.678 21.08 16.018 4.753 2.687 9.403 5.581 12.4 10.128 2.996 4.547 5.58 9.609 6.613 15.189.62 3.52.62 7.24-.31 10.85-1.137 4.14-3.823 7.65-5.787 11.47-.826 1.66-1.549 3.31-1.549 5.07 0 3 1.859 5.48 4.029 7.23 5.064 3.93 10.437 6.72 14.57 11.68 6.717 8.16 9.817 19.95 4.857 31.11-2.79 6.09-7.957 11.98-14.157 14.57-5.993 2.48-12.399 2.48-18.289 1.34-15.913-3-28.83-13.43-41.953-22.63-17.67-12.3-36.683-22.94-55.076-35.03-18.289-11.99-36.062-25.43-50.529-42.478-14.879-17.362-26.142-37.514-38.439-56.943-4.133-6.614-8.37-13.228-13.02-19.532-9.196-12.814-20.149-27.799-16.326-41.854 1.963-7.337 8.06-12.918 15.5-14.778 2.376-.723 4.753-1.033 7.233-.93z" fill="#028490"/><path d="M-118.492 932.965c83.4916 18.085 181.1398-76.681 181.1398-77.094 58.1752 20.255 117.1782 35.653 176.0762 46.194 0-.31 52.906 121.325 130.921 172.795-164.297-9.41-331.3835-56.74-488.137-141.895z" fill="#27632A"/><path d="M238.104 903.409c-1.136 6.924-41.642 5.89-90.208-7.028-48.5658-12.814-86.5918-32.45-85.4552-39.167 1.1367-6.821 41.0222 1.654 89.5882 14.262 48.566 12.607 87.212 24.802 86.075 31.933z" fill="#2AAF4B"/><path d="M215.992 899.172c-.517 2.997-30.483-.31-66.959-9.921-36.476-9.611-65.3052-21.806-64.8919-24.699.5167-2.997 30.1729 4.547 66.6489 14.054 36.476 9.508 65.718 17.569 65.202 20.566z" fill="#4527A0"/><path d="M243.787 1060.28c43.709-9.81 94.755-85.668 94.755-85.771 28.829 2.48 57.659 3.824 86.281 4.031 0-.104 23.353 69.34 60.139 96.73-79.565 4.03-160.473-.93-241.175-14.99z" fill="#388E3C"/><path d="M424.409 979.366c-.723 4.444-20.459 8.061-44.225 6.924-23.766-1.137-42.573-6.51-41.849-10.954.723-4.444 20.666-6.201 44.432-5.167 23.766 1.136 42.366 4.753 41.642 9.197z" fill="#2AAF4B"/><path d="M413.663 979.263c-.31 1.86-14.983 3.307-32.756 2.48-17.876-.827-32.136-3.514-31.826-5.477.31-1.86 15.087-2.274 32.86-1.447 17.876.827 32.032 2.584 31.722 4.444z" fill="#4527A0"/><path d="M239.447 904.236c-1.136 6.924-41.642 5.994-90.208-6.924-48.566-12.712-86.5916-32.347-85.5583-39.064 1.1367-6.821 41.0223 1.653 89.5883 14.158 48.669 12.608 87.315 24.802 86.178 31.83z" fill="#2AAF4B"/><path d="M217.337 900.102c-.517 2.997-30.483-.31-66.959-9.818s-65.4093-21.702-64.8927-24.596c.5167-2.997 30.1727 4.444 66.6487 13.952 36.476 9.404 65.719 17.361 65.203 20.462z" fill="#4527A0"/><path d="M98.917 870.752c-1.24 7.647-12.503 25.526-22.1129 22.219-9.6098-3.204-14.1564-26.146-12.9164-33.793 11.6765 4.03 23.3528 7.854 35.0293 11.574z" fill="#fff" stroke="#fff" stroke-width="2.5585" stroke-miterlimit="10" stroke-linejoin="round"/><path d="M134.05 881.086c-1.24 7.648-14.156 36.171-23.87 33.174-9.713-2.894-12.503-35.964-11.263-43.508 11.677 3.617 23.456 7.027 35.133 10.334zM203.903 898.138c-1.24 7.751 3.203 30.073 13.019 32.037 9.713 1.963 21.08-17.362 22.32-25.216-11.677-1.964-23.56-4.237-35.339-6.821z" fill="#fff" stroke="#fff" stroke-width="2.5585" stroke-miterlimit="10" stroke-linejoin="round"/><path d="M168.667 890.078c-1.24 7.75 1.55 40.51 11.263 42.784 9.714 2.273 22.733-26.973 23.973-34.724-11.78-2.48-23.456-5.167-35.236-8.06z" fill="#fff" stroke="#fff" stroke-width="2.5585" stroke-miterlimit="10" stroke-linejoin="round"/><path d="M169.287 890.284c-1.24 7.751-15.086 41.751-24.799 39.064-9.713-2.584-11.677-40.614-10.437-48.262 11.78 3.307 23.456 6.304 35.236 9.198z" fill="#fff" stroke="#fff" stroke-width="2.5585" stroke-miterlimit="10" stroke-linejoin="round"/><path d="M40.226 913.433c-.7234 4.237-5.7867 5.891-11.3666 3.824-5.58-2.17-9.5066-7.234-8.7833-11.471.7233-4.134 5.7865-5.788 11.2632-3.721 5.6833 2.067 9.61 7.131 8.8867 11.368zM171.456 972.339c-.723 4.237-5.89 6.614-11.47 5.27-5.58-1.446-9.61-6.097-8.886-10.334.723-4.237 5.786-6.51 11.47-5.167 5.683 1.343 9.61 5.891 8.886 10.231zM233.145 947.95c-.723 4.34-5.89 7.027-11.47 5.89-5.683-1.136-9.61-5.58-8.99-9.817.724-4.341 5.89-6.924 11.47-5.787 5.684 1.033 9.61 5.374 8.99 9.714zM38.9857 987.944c-.7233 4.237-5.7865 5.89-11.2631 3.823-5.5799-2.17-9.5066-7.337-8.7832-11.471.7233-4.133 5.7865-5.787 11.2631-3.72 5.5799 2.067 9.5065 7.131 8.7832 11.368z" fill="#D43E2E"/><path d="M239.447 904.236c-1.136 6.924-41.642 5.994-90.208-6.924-48.566-12.712-86.5916-32.347-85.5583-39.064 1.1367-6.821 41.0223 1.653 89.5883 14.158 48.669 12.608 87.315 24.802 86.178 31.83z" fill="#2F703F"/><path d="M217.337 900.102c-.517 2.997-30.483-.31-66.959-9.818s-65.4093-21.702-64.8927-24.596c.5167-2.997 30.1727 4.444 66.6487 13.952 36.476 9.404 65.719 17.361 65.203 20.462z" fill="#4527A0"/><path d="M63.7846 857.214c-3.5133 28.11 30.2763 65.313 75.1224 90.219 44.846 25.319 100.644 38.341 140.117 27.386.103-.207-63.136 117.501-142.907 21.289 0-.103-39.1628 5.482-79.8754-2.894-40.8159-7.751-83.1819-29.453-91.3451-71.1" stroke="#F4C236" stroke-width="5.117" stroke-miterlimit="10" stroke-linecap="round"/><path d="M16.252 1115.68c42.9858 3.3 104.055-38.14 154.377-83.2 50.322-44.64 90.002-93.108 89.898-92.798 36.166 9.301 72.436 16.845 108.395 22.529-.104-.206 61.895 190.359 138.567 231.389-161.507 11.88-329.627-14.06-491.237-77.92z" fill="#2E7D32"/><path d="M368.612 963.555c-.723 7.027-25.419 9.094-55.282 2.893-29.863-6.2-53.629-18.395-52.906-25.319.724-7.027 25.523-6.304 55.386-.103 29.966 6.097 53.526 15.398 52.802 22.529z" fill="#2AAF4B"/><path d="M355.179 961.385c-.31 2.997-18.703 2.48-41.125-2.171-22.423-4.65-40.403-11.678-40.093-14.675.31-2.996 18.703-.93 41.126 3.721 22.423 4.65 40.299 10.024 40.092 13.125z" fill="#4527A0"/><path d="M1221 1039.05c36.89-33.59 58.28-148.814 58.28-148.814 28.62-9.094 57.24-19.222 85.76-30.59 0 .104 48.16 73.684 94.86 89.496-78.63 39.064-158.82 69.038-238.9 89.908z" fill="#388E3C"/><path d="M1365.04 860.886c.93 5.684-17.46 17.982-41.02 26.457-23.66 8.474-43.61 9.817-44.54 4.133-.93-5.787 17.57-16.328 41.13-24.699 23.66-8.474 43.5-11.574 44.43-5.891z" fill="#2AAF4B"/><path d="M1354.3 865.124c.41 2.377-13.64 10.024-31.31 16.328-17.67 6.304-32.45 8.991-32.86 6.51-.42-2.48 13.64-9.094 31.41-15.398s32.45-9.921 32.76-7.44z" fill="#4527A0"/><path d="M1003.48 1220.26c75.85-45.26 126.99-230.766 126.99-230.456 58.39-12.195 116.98-29.143 175.25-51.052-.1.104 92.59 115.128 184.35 125.248-158.82 89.91-325.39 142-486.59 156.26z" fill="#2E7D32"/><path d="M1305.52 940.819c1.44 8.991-36.37 31.623-84.73 45.781-48.36 14.26-88.66 14.47-90.11 5.064-1.45-9.404 36.48-24.596 84.84-38.547 48.25-13.848 88.55-21.495 90-12.298z" fill="#2AAF4B"/><path d="M1283.72 948.776c.62 3.928-28.21 17.776-64.38 28.317-36.27 10.644-66.13 13.848-66.75 9.921-.62-4.031 28.21-13.642 64.48-24.183 36.16-10.541 66.03-17.982 66.65-14.055z" fill="#4527A0"/><path d="M818.246 862.725l-6.407 10.334-39.473 5.788-12.503-24.699 6.82-10.335 42.883-12.091 8.68 31.003z" fill="#E2632D"/><path d="M811.736 872.956l-42.986 12.091-8.68-31.003 42.986-12.091 8.68 31.003z" fill="#FC7E54"/><path d="M804.85 839.044c3.11-3.573 5.283-6.773 4.852-7.148-.43-.374-3.3 2.218-6.41 5.791-3.111 3.573-5.283 6.773-4.853 7.148.431.374 3.301-2.218 6.411-5.791z" fill="#C73A07"/><path d="M788.28 837.303c-.31 2.48-1.136 4.753-2.17 6.924-.516 1.136-1.136 2.17-1.756 3.203-.62 1.034-1.344 2.067-2.067 2.997l1.033-3.617c1.24 2.79 2.377 5.477 3.41 8.268 1.033 2.79 2.067 5.58 3.1 8.37.93 2.791 1.86 5.684 2.687 8.681.206.724.413 1.447.62 2.274.207.723.413 1.55.517 2.273 0 .414.103.931.516 1.241.207.206.413.31.723.31s.724-.104 1.034-.31c0 .413-.207.826-.62 1.24-.31.413-.93.62-1.55.723-1.24.103-2.377-.413-3.203-1.343-1.24-1.24-2.377-2.274-3.41-3.617-2.067-2.481-3.824-5.168-5.374-7.958-1.549-2.79-2.79-5.787-3.72-8.784-1.033-2.997-1.653-6.201-2.066-9.301l-.31-2.687 1.343-.93 5.373-3.72c1.964-1.551 3.824-2.894 5.89-4.237z" fill="#E2632D"/><path d="M790.553 836.992c-.31 1.137-.724 2.274-1.137 3.307-.413 1.034-1.033 2.171-1.55 3.101-1.137 2.067-2.583 3.927-4.133 5.787l.723-2.48 6.407 16.845c1.033 2.79 2.17 5.684 3.203 8.474.517 1.447 1.033 2.894 1.55 4.34.103.517.413 1.034.93 1.241.207.103.517.206.827.103.31 0 .62-.207.93-.517-.104.414-.31.827-.62 1.137-.31.31-.827.517-1.344.517-1.033 0-2.066-.517-2.686-1.344-1.137-1.24-2.067-2.377-2.997-3.72-1.86-2.584-3.513-5.271-4.96-8.061-2.79-5.581-4.857-11.678-5.89-17.878l-.31-1.654.93-.723c1.757-1.344 3.41-2.687 5.063-4.134l5.064-4.341zM793.033 840.816c3.513-.93 7.13-1.447 10.746-1.86.93-.103 2.067-.31 3.41.31.62.31 1.344.723 1.654 1.343.413.517.723 1.034.93 1.551.206.516.31.93.516 1.343l.414 1.24.826 2.584c1.033 3.41 1.963 6.924 2.583 10.541.62 3.514 1.137 7.131 1.241 10.851-1.55-3.307-2.79-6.717-3.927-10.128-1.137-3.41-2.273-6.82-3.307-10.231l-1.549-5.064c-.104-.31-.207-.62-.311-.826-.103-.207-.206-.31-.413-.414-.31-.206-1.033-.31-1.963-.31-3.617-.206-7.233-.413-10.85-.93z" fill="#1A844B"/><path d="M783.422 832.962c1.344.724 2.48 1.447 3.514 1.964 1.033.516 1.963.826 2.48.723.31 0 .413-.103.413-.31 0 0 .103-.103.103-.207l.104-.103h-.414c-.413.103-.826.31-1.033.517-.207.206-.31.31-.413.413-.104.103-.104.207-.104.31v.31s0-.207-.103-.62c-.103-.413-.31-1.033-.413-1.86-.31-1.757-.207-3.514.31-5.064.93-3.1 3.513-5.684 6.613-5.89-.31 2.996 0 4.96.516 6.613.31.827.62 1.447.93 1.964.207.31.414.827.724 1.447.31.723.516 1.653.62 2.79v1.033c0 .311-.104.724-.104 1.034-.103.723-.413 1.343-.723 1.963-.31.621-.827 1.344-1.447 1.861-.62.62-1.55 1.136-2.48 1.446-.206.104-.516.104-.723.207h-1.447c-.516 0-1.136-.103-1.653-.31-1.136-.31-2.066-.93-2.79-1.55-1.446-1.344-2.066-2.894-2.376-4.34-.62-1.447-.62-2.791-.104-4.341zM783.526 841.85c-1.55 1.343-3.307 2.377-4.96 3.203-1.757.93-3.514 1.654-5.373 2.274-1.86.62-3.721 1.137-5.581 1.55-1.963.413-3.823.62-5.889.62 1.55-1.343 3.306-2.377 4.96-3.204 1.756-.93 3.513-1.653 5.373-2.273 1.86-.62 3.72-1.137 5.58-1.55 1.86-.414 3.823-.724 5.89-.62z" fill="#1A844B"/><path d="M1268 787.5L1156.5 773l13-9.056 8-5.573 11.36-7.911 111.7 14.262-10.06 7.036-8.5 5.947-14 9.795z" fill="#F73"/><path d="M1205.5 779.372l14 1.821 25.21-23.602-11.21-1.091-28 22.872z" fill="#5CB45F"/><path d="M1169.5 763.944l8-5.573 113 13.387-8.5 5.947-112.5-13.761z" fill="#5CB45F"/><path d="M1288.26 868.169l-8.01 5.761-8.01 5.761L1256 891l12-103.5 8.14-5.695 4.07-2.847 4.07-2.847 4.07-2.847 4.07-2.848 8.14-5.694-12.3 103.447z" fill="#B9480F"/><path d="M1280.25 873.93l-8.01 5.761L1282 777.5l8.5-6-10.25 102.43z" fill="#1A844B"/><path fill="#7A037E" d="M976.553 833.978l182.5343-56.2337 51.71499 167.86656-182.5343 56.2337z"/><path fill="#1A844B" d="M1054.78 809.878l19.55726-6.02504 51.71499 167.86656-19.55726 6.02505z"/><path d="M986.535 786.291L1124 743.942l35.09 33.802-182.538 56.234 9.983-47.687z" fill="#8F0093"/><path d="M1137.16 756.618l4.38 4.225 4.39 4.226-165.634 51.026 1.248-5.96 1.248-5.961 154.368-47.556z" fill="#5CB45F"/><path d="M1044.64 768.39l14.73-4.538 14.97 40.001-19.56 6.025-10.14-41.488z" fill="#5CB45F"/><path d="M949.934 702.236c3.171-1.065 6.641-1.221 10.065-.891 3.425.33 6.881 1.32 10.205 2.834 6.673 2.967 12.443 8.244 16.544 14.454 1.056 1.564 1.963 3.142 2.845 4.782.472.833.819 1.616 1.204 2.487l.27.609.154.348c.038.087.115.261.115.261.14.199.217.373.357.571.434.746.917 1.366 1.361 1.9.469.471.962.879 1.416 1.201.909.643 2.056 1.235 3.716 1.812 1.66.576 3.774 1.113 6.294 1.522 2.5.472 5.23.893 8.25 1.35 1.5.229 3.05.544 4.62.797 1.6.34 3.21.68 4.95 1.069 3.37.816 6.93 1.918 10.55 3.618 3.61 1.7 7.26 4.06 10.34 7.134 5.84 6.025 8.8 13.662 9.42 20.601.37 3.525.23 6.854-.19 10.147-.42 3.292-1.18 6.375-2.22 9.572-1.8-2.794-3.38-5.64-4.89-8.249-1.59-2.633-3.07-5.155-4.69-7.303-1.61-2.209-3.27-4.082-4.99-5.618-.86-.768-1.77-1.411-2.61-2.029-.46-.322-.94-.581-1.33-.878l-.7-.42-.61-.308c-1.59-.764-3.36-1.24-5.34-1.728-2.08-.449-4.35-.761-6.94-.983-1.26-.13-2.64-.309-4.07-.364l-4.34-.399c-2.99-.307-6.24-.713-9.697-1.342-3.428-.691-7.21-1.593-11.163-3.353-3.89-1.736-8.079-4.379-11.338-8.1-1.623-1.786-3.061-3.86-4.136-5.935-1.074-2.076-1.912-4.202-2.497-6.231-.168-.497-.249-1.033-.417-1.53-.014-.15-.077-.175-.028-.3l-.053-.236-.042-.449c-.12-.622-.176-1.22-.32-1.78-.2-1.158-.526-2.365-.814-3.486-1.252-4.592-3.129-9.068-6.193-13.289-1.54-2.185-3.365-4.194-5.492-6.177-2.315-2.056-4.703-3.924-7.566-5.691z" fill="#6AC86E"/><path d="M950.122 701.76c3.096-.313 6.26.125 9.34.966 3.08.84 6.075 2.083 8.899 3.766 5.646 3.366 10.266 8.433 13.611 14.163.827 1.41 1.542 2.922 2.256 4.434.37.724.627 1.55.91 2.313l.435 1.112.384.875c.996 2.275 2.266 4.221 3.859 5.713 1.593 1.493 3.521 2.681 5.849 3.59 2.328.91 4.905 1.554 7.685 2.058 2.77.504 5.66.908 8.67 1.36 3.02.452 6.09.929 9.25 1.581 3.13.715 6.36 1.542 9.52 2.921 3.16 1.379 6.29 3.185 8.95 5.672.33.273.63.609.93.946l.88.921c.54.647 1.09 1.295 1.61 2.006 1.06 1.358 1.95 2.793 2.75 4.267.81 1.473 1.5 3.048 2.06 4.574.54 1.588 1.02 3.152 1.34 4.73.72 3.179 1.03 6.275 1.11 9.422.1 3.085-.01 6.158-.22 9.27-1.02-2.939-1.9-5.892-2.85-8.656-.99-2.851-2.03-5.577-3.27-8.163-.59-1.249-1.26-2.523-2.03-3.696-.71-1.148-1.49-2.321-2.31-3.368-.83-1.047-1.74-2.055-2.7-2.938-.47-.473-.96-.883-1.45-1.293l-.78-.595-.72-.571c-2.01-1.364-4.33-2.487-6.79-3.232-2.53-.77-5.19-1.375-7.95-1.729-2.8-.442-5.72-.782-8.72-1.084-2.97-.365-6.1-.716-9.28-1.305-3.15-.651-6.468-1.44-9.753-2.868-3.286-1.429-6.539-3.497-9.196-6.348-2.594-2.826-4.453-6.235-5.497-9.688l-.633-2.277c-.181-.651-.362-1.302-.606-1.977-.424-1.326-.874-2.589-1.386-3.877-2.073-5.088-5.022-9.792-9.08-13.698-4.173-4.168-9.228-7.375-15.077-9.297z" fill="#1A844B"/><path d="M1054.1 655.612c-.3 2.199-.33 4.36-.21 6.442.12 2.083.48 4.166.99 6.17 1.01 4.01 2.81 7.589 5.11 10.699 2.37 3.109 5.17 5.748 8.36 8.035.39.276.77.552 1.2.867l.6.394c.05.04.14.118.22.197l.27.237.52.394c1.39 1.103 2.79 2.56 4.02 4.37 1.24 1.811 2.13 4.013 2.49 6.174.21 1.101.29 2.162.25 3.183-.04 1.021-.12 2.003-.26 2.867-.73 3.573-2.13 6.202-3.57 8.438-1.48 2.274-3.13 4.117-4.83 5.841-3.36 3.409-6.96 6.19-10.74 8.734-.95.626-1.91 1.252-2.83 1.839l-1.48.861-.37.234-.07.079.04-.039h.07c.12-.039.19-.118.3-.157.37-.234.77-.587 1.04-1.254.13-.314.24-.707.26-1.178.03-.118.02-.196.01-.275-.01-.079-.02-.157.02-.196-.01-.079-.02-.158.02-.197-.01-.078-.01-.078-.02-.157-.09-.432-.1-.511 0-.354.04.04.05.118.09.158.05.039.1.157.14.197.15.196.28.315.51.59.14.197.4.433.63.709.27.236.5.512.81.788.3.275.57.512.88.787l.48.434.52.394 1.4 1.103.87.71.88.788c1.15 1.024 2.31 2.205 3.44 3.426 1.09 1.26 2.2 2.598 3.21 4.212 1.01 1.534 1.92 3.265 2.65 5.113.73 1.848 1.24 3.853 1.47 5.897.24 2.043.19 4.046-.11 5.892-.64 3.731-2.14 6.83-3.87 9.301-.88 1.255-1.86 2.352-2.89 3.411-.53.509-1.03.979-1.61 1.449-.55.431-1.19.979-1.78 1.371-1.18.782-2.13 1.409-3.06 1.917-.89.548-1.67.978-2.45 1.408-1.4.861-2.5 1.644-3.14 2.271-.67.666-1.06 1.097-1.33 1.843-3.7 10.232-10.26 26.711-16.21 1.727-.31-1.611-.51-3.34-.43-5.108.07-1.768.38-3.535.98-5.183.57-1.609 1.34-3.179 2.21-4.512 1.75-2.667 3.82-4.626 5.77-6.193.94-.783 1.89-1.488 2.68-2.115.8-.626 1.56-1.214 2.03-1.645.25-.195.31-.352.56-.627l.63-.705c.38-.51.72-.981.94-1.412.53-.942.71-1.766.7-2.198-.02-.511-.12-.669-.29-1.101-.16-.433-.73-1.22-1.55-2.165-.45-.472-.9-.945-1.47-1.457l-.44-.394-.48-.355-1.3-1.024-.83-.67-.84-.749c-.53-.472-1.1-.985-1.68-1.497-.57-.512-1.15-1.103-1.69-1.654-.55-.63-1.13-1.221-1.64-1.89-.55-.63-1.11-1.417-1.63-2.164l-.82-1.22c-.28-.394-.54-.905-.78-1.338-1-1.81-1.97-4.012-2.43-6.606-.03-.314-.11-.668-.15-.982-.04-.315-.04-.668-.07-.983-.04-.314-.04-.668-.04-1.021 0-.354-.04-.668.04-1.022.06-1.492.41-2.945.93-4.24 1-2.63 2.67-4.668 4.67-6.195.5-.392 1.02-.705 1.54-1.018l.41-.195.19-.118.11-.039.3-.156 1.27-.625c.86-.43 1.72-.86 2.54-1.33 3.35-1.799 6.52-3.755 9.29-5.791 1.39-1.018 2.65-2.075 3.64-3.094.99-1.019 1.74-2.039 2.09-2.509.1-.118.13-.236.21-.235.03-.04.11-.039.14-.079.08.001.13.04.16.001.08 0 .12-.039.11-.118.06-.157-.06-.471-.35-.943l-.14-.197-.09-.079c-.04-.039-.04-.039-.13-.118l-.71-.709c-.45-.473-.95-.985-1.4-1.457-3.58-3.977-6.65-8.62-8.52-13.535-1.92-4.955-2.59-10.142-1.98-14.816.28-2.356.85-4.594 1.64-6.635.76-2.355 1.76-4.278 3.16-5.924z" fill="#6AC86E"/><path d="M1053.71 654c-.62 2.071-.98 4.224-1.09 6.458-.16 2.194-.07 4.389.22 6.543.58 4.309 2.08 8.498 4.36 12.283 2.28 3.784 5.32 7.083 8.67 9.936.41.367.86.693 1.27 1.06l.68.53.84.611c1.1.978 2.21 2.119 3.07 3.543.9 1.384 1.49 3.011 1.76 4.637.27 1.626.17 3.211-.13 4.551-.62 2.802-1.87 5.034-3.28 6.981-1.41 1.947-3.02 3.649-4.68 5.23-3.31 3.161-6.94 5.753-10.67 8.181-.95.608-1.87 1.174-2.87 1.741l-1.46.809-.34.202-.12.04-.04.041-.03.04c-.08.081-.19.122-.27.203-.3.243-.5.568-.59.852-.03.122-.06.243-.04.406.02.163 0 .366.07.569.18.894.96 2.319 2.15 3.744 1.18 1.425 2.78 2.851 4.4 4.156l1.44 1.141c.54.408 1.04.856 1.54 1.304 1.01.897 2.02 1.874 3.01 2.974.94 1.059 1.89 2.199 2.69 3.501.84 1.262 1.53 2.605 2.11 4.069 1.11 2.888 1.56 6.14 1.08 9.064-.44 2.884-1.58 5.441-3.05 7.551-.74 1.095-1.57 2.027-2.45 2.919-.4.446-.88.892-1.37 1.256-.44.406-1 .851-1.49 1.216-2.01 1.417-3.81 2.428-5.44 3.603-1.63 1.093-3.01 2.268-4.01 3.484-1.04 1.257-.48-1.502-1.93 4.181-1.46 5.682-7.56-1.644-7.56-1.644s.38-2.803.88-4.102c.51-1.299 1.1-2.517 1.83-3.612 1.51-2.15 3.36-3.852 5.2-5.27 1.85-1.417 3.67-2.632 5.09-3.766.64-.527 1.26-1.135 1.88-1.824.58-.649 1.11-1.338 1.52-2.069.86-1.42 1.46-2.922 1.67-4.343.2-1.422-.04-2.804-.62-4.268-.28-.692-.7-1.424-1.19-2.157-.49-.733-1.07-1.466-1.68-2.158-.66-.733-1.35-1.426-2.12-2.037-.36-.326-.77-.693-1.17-.978l-1.4-1.101c-2.03-1.671-4.04-3.464-5.89-5.703-.9-1.1-1.86-2.321-2.64-3.745s-1.49-3.011-1.78-4.8c-.19-.894-.25-1.829-.16-2.763.05-.975.27-1.95.62-2.802.66-1.746 1.76-3.166 3.11-4.219.34-.283.68-.486 1.06-.728l.31-.162.23-.162.34-.203 1.39-.727c.93-.486 1.81-1.012 2.74-1.497 1.8-1.011 3.52-2.104 5.22-3.278 1.67-1.134 3.29-2.308 4.83-3.564 1.53-1.256 2.92-2.634 4.07-4.013 1.19-1.419 2.12-2.92 2.57-4.341.45-1.422.39-2.641-.2-3.902-.32-.651-.81-1.302-1.46-1.954l-.51-.529-.73-.652c-.45-.408-.92-.897-1.34-1.345-3.57-3.625-6.67-7.859-8.75-12.415-2.08-4.557-3.1-9.476-2.98-14.108.29-4.55 1.43-8.936 3.61-12.669z" fill="#1A844B"/><path d="M1050.62 790.68s42.36 4.425 47.18-6.285l-5.02-29.742s-4.34-4.508-14.12-2.119c-12.97 3.112-27.37 20.867-27.37 20.867l-.67 17.279z" fill="#6AC86E"/><path d="M1097.8 784.394s-6.03-6.819-17.35-1.992c-4.11 1.735-8.37 3.403-12.39 4.675 5.19-23.507 19.25-34.93 19.26-34.996 3.74.736 5.5 2.544 5.5 2.544l4.98 29.769z" fill="#6AC86E"/><path d="M1097.81 784.393c-4.85 10.67-47.18 6.285-47.18 6.285l.09-2.287c6.21 2.932 18.48-1.149 29.77-6.016 11.29-4.8 17.32 2.018 17.32 2.018zM1018.73 777.773c-11.02.346-10.66 6.788-10.66 6.788 14.45 7.727 45.36-14.335 45.36-14.335-17.1 8.628-23.69 7.201-34.7 7.547z" fill="#1A844B"/><path d="M1020.07 785.794l4.11 29.142c2.21-.199 4.45-.873 6.69-1.892 6.09-7.66 16.15-22.386 21.87-41.963l.79-.352-.04-.49c-.02-.04-18.41 13.037-33.42 15.555z" fill="#6AC86E"/><path d="M1020.07 785.794c-4.49.728-8.65.558-12-1.233 0 0 6.85 17.693 8.62 24.117 1.74 6.45 6.53 6.266 6.53 6.266.31-.038.66-.036.98-.074l-4.13-29.076zM1030.87 813.045c11.89-5.432 23.27-20.057 23.27-20.057l-.69-22.722-.77.564c-5.74 19.537-15.72 34.554-21.81 42.215z" fill="#6AC86E"/><path d="M1094.76 766.075c-.96-.508-2.08-.911-3.16-1.169-2.2-.555-4.47-.713-6.72-.66-2.8.076-5.54.51-8.28 1.115-1.59.361-3.17.828-4.74 1.295-1.04.338-2.04.715-3.12 1.079-1 .378-2.02.822-3.01 1.239-2 .861-3.95 1.802-5.88 2.849-1.97 1.006-3.78 2.146-5.64 3.312-1.83 1.206-3.61 2.492-5.35 3.751-1.73 1.365-3.43 2.77-5.04 4.229-.81.762-1.62 1.524-2.34 2.34l-2.05 2.091c-2.66 2.55-5.78 4.66-9.19 6.333-2.68 1.307-5.58 2.361-8.61 3.216-.83.207-1.67.414-2.5.62-1.88.439-3.84.758-5.76 1.051l.01.106.51 1.378.35.968.09.225c1.73.288 3.42.43 5.19.52.96.058 1.92.05 2.86.003 3.47-.112 6.99-.66 10.4-1.712 2.18-.688 4.35-1.548 6.37-2.647 2.04-1.059 4.03-2.37 5.83-3.893.45-.355.87-.749 1.3-1.143l1.18-1.064c.69-.684 1.48-1.314 2.19-1.958 1.51-1.274 3.01-2.548 4.63-3.729 5.63-4.278 11.6-8.21 17.9-11.559.81-.418 1.6-.876 2.39-1.229 3.54-1.817 7.24-3.396 11.06-4.537 1.9-.571 3.85-.996 5.81-1.143 1.19-.099 2.39-.092 3.59.087l-.27-1.364z" fill="#1A844B"/><path d="M1046.85 774.444c2.06.7 3.87 15.6 3.86 22.516 4.01-1.101 5.15-1.623 9.63-5.141 4.5-3.478 3.06-18.508-5.87-22.448-2.3-1.058-9.64 4.348-7.62 5.073z" fill="#1A844B"/><path d="M1048.16 773.924c2.06.7 2.59 16.161 2.57 23.077 4.02-1.101 6.44-2.184 10.95-5.662 4.5-3.478 3.05-18.508-5.88-22.448-2.32-1.098-9.66 4.308-7.64 5.033z" fill="#6AC86E"/><path d="M1256 891l-41.83-5.586-27.9-3.591-41.85-5.387 12.2-103.343 41.88 5.348 27.93 3.565 41.89 5.348L1256 891z" fill="#CD591F"/><path d="M1207.2 884.516l-13.95-1.795 12.24-103.389 13.96 1.783-12.25 103.401z" fill="#1A844B"/><path d="M1189.14 673.391c.72 1.461 1.25 2.93 1.65 4.365.4 1.435.64 2.901.76 4.332.23 2.864-.19 5.533-1.06 7.946-.93 2.424-2.26 4.58-3.95 6.547-.2.238-.41.475-.63.745l-.33.346c-.02.032-.06.097-.11.162l-.13.195-.27.335c-.71.931-1.34 2.102-1.78 3.494-.44 1.392-.54 3.007-.29 4.527.12.777.31 1.511.57 2.202.27.691.56 1.349.86 1.921 1.35 2.341 2.94 3.954 4.47 5.294 1.56 1.361 3.14 2.407 4.73 3.365 3.14 1.894 6.3 3.329 9.53 4.58.81.304 1.62.609 2.4.891l1.24.397.31.113.07.045-.04-.022-.05.01c-.09-.012-.16-.057-.25-.069-.31-.113-.67-.303-1.02-.722-.16-.198-.33-.451-.45-.769-.05-.077-.06-.132-.07-.187-.02-.055-.03-.109-.06-.131-.01-.055-.03-.11-.06-.132l-.02-.11c-.04-.306-.05-.361-.09-.241-.02.033-.01.087-.03.12-.02.032-.03.12-.05.152-.05.152-.12.25-.21.467-.05.152-.18.347-.28.564-.13.195-.22.413-.37.64-.15.227-.28.422-.43.65l-.24.357-.27.335-.71.931-.45.595-.43.65c-.55.844-1.09 1.799-1.59 2.775-.47.999-.93 2.052-1.26 3.282-.34 1.175-.57 2.471-.64 3.824-.08 1.353.04 2.785.35 4.208.32 1.423.82 2.783 1.46 4.002 1.32 2.462 3.09 4.382 4.88 5.845.91.743 1.85 1.365 2.81 1.955.49.279.95.536 1.46.782.48.224 1.06.515 1.56.707 1.01.383 1.82.688 2.59.915.74.26 1.39.454 2.03.647 1.18.407 2.13.801 2.72 1.147.63.367 1 .612 1.36 1.086 4.98 6.501 13.41 16.895 11.71-.896-.17-1.137-.43-2.342-.9-3.537-.46-1.196-1.09-2.361-1.9-3.407-.77-1.025-1.67-1.997-2.59-2.794-1.85-1.594-3.75-2.665-5.48-3.483-.83-.414-1.66-.773-2.36-1.098-.71-.325-1.37-.628-1.8-.863-.22-.101-.3-.2-.54-.356-.2-.133-.4-.266-.6-.4-.38-.299-.73-.576-.99-.841-.59-.575-.91-1.114-1-1.41-.11-.351-.08-.47-.06-.787.02-.316.23-.925.58-1.674.2-.38.4-.759.68-1.182l.22-.325.25-.302.67-.866.42-.562.41-.618c.25-.39.53-.812.81-1.234.28-.423.55-.9.8-1.345.23-.499.5-.976.7-1.498.23-.499.44-1.108.63-1.684l.28-.936c.11-.304.17-.686.24-1.012.27-1.362.43-2.986.14-4.813-.05-.219-.08-.47-.13-.689-.04-.219-.13-.46-.17-.679-.05-.219-.13-.46-.22-.702-.08-.241-.13-.46-.26-.691-.4-1.009-.98-1.955-1.65-2.771-1.31-1.664-2.95-2.841-4.7-3.626-.45-.202-.88-.349-1.31-.496l-.34-.081-.15-.056-.09-.012-.25-.069-1.03-.263c-.7-.183-1.4-.367-2.08-.582-2.76-.798-5.43-1.725-7.84-2.759-1.2-.516-2.33-1.076-3.26-1.644-.93-.568-1.69-1.166-2.04-1.444-.1-.066-.14-.143-.2-.133-.03-.022-.09-.012-.12-.034-.06.01-.08.043-.11.02-.06.011-.09-.012-.1-.066-.08-.1-.07-.329.02-.688l.05-.152.04-.065c.03-.033.03-.033.07-.098l.33-.574c.2-.38.43-.792.63-1.172 1.57-3.169 2.62-6.726 2.77-10.316.18-3.622-.57-7.245-2.08-10.353-.75-1.57-1.67-3.022-2.71-4.312-1.07-1.509-2.22-2.691-3.58-3.635z" fill="#6AC86E"/><path d="M1185.51 677.5c5.59.4 6.16 7.001 6 8.5.4-1.5.45-9.7-2.5-12.5-2.96-2.8-10.5 1.5-13.51 5.5 3.51-1 4.41-1.9 10.01-1.5z" fill="#1A844B"/><path d="M1189.99 673.999c.93 1.351.95 1.127 1.56 2.657.63 1.496 1.09 3.024 1.4 4.551.61 3.052.54 6.142-.17 9.053-.71 2.911-2.08 5.585-3.77 7.991-.2.307-.44.59-.64.897l-.36.453-.45.533c-.54.818-1.06 1.75-1.33 2.846-.3 1.073-.34 2.274-.14 3.433.2 1.158.64 2.24 1.17 3.128 1.1 1.856 2.52 3.236 3.98 4.398 1.46 1.162 3 2.131 4.55 3.008 3.09 1.755 6.27 3.075 9.48 4.27.82.297 1.6.569 2.44.831l1.22.37.3.095.09.013.03.023.04.023c.07.047.16.059.23.106.27.129.5.327.63.511.05.081.09.162.12.277.02.114.09.252.09.401.08.642-.13 1.727-.63 2.866s-1.29 2.331-2.13 3.443l-.75.976c-.28.351-.53.726-.78 1.101-.49.749-.98 1.556-1.41 2.444-.41.854-.82 1.765-1.07 2.769-.3.981-.47 1.998-.53 3.085-.1 2.139.35 4.446 1.39 6.404 1 1.936 2.41 3.556 3.95 4.822.78.662 1.59 1.198 2.42 1.701.39.256.83.502 1.27.69.41.223.91.458 1.34.646 1.75.72 3.27 1.184 4.7 1.785 1.41.544 2.66 1.177 3.66 1.888 1.04.733-.02-1.1 2.36 2.638s4.95-2.115 4.95-2.115-.93-1.889-1.6-2.721c-.66-.832-1.37-1.597-2.15-2.258-1.58-1.29-3.29-2.227-4.93-2.968-1.63-.741-3.21-1.343-4.49-1.943-.57-.281-1.16-.62-1.75-1.017-.57-.373-1.11-.78-1.57-1.232-.94-.87-1.73-1.83-2.21-2.786s-.64-1.942-.58-3.029c.04-.515.16-1.074.33-1.645.18-.57.41-1.151.68-1.709.29-.592.61-1.16 1.01-1.682.18-.272.38-.579.6-.828l.72-.942c1.04-1.418 2.03-2.917 2.81-4.705.38-.877.77-1.846.98-2.931.21-1.085.34-2.274.12-3.547-.08-.642-.26-1.297-.55-1.93-.26-.667-.65-1.313-1.1-1.857-.88-1.121-2-1.958-3.2-2.511-.3-.152-.6-.248-.92-.366l-.26-.072-.2-.082-.29-.095-1.15-.323c-.77-.216-1.52-.465-2.29-.681-1.52-.464-2.99-.997-4.47-1.587-1.45-.567-2.88-1.169-4.26-1.838s-2.69-1.44-3.83-2.244c-1.18-.827-2.19-1.744-2.85-2.667-.65-.924-.9-1.774-.78-2.723.07-.491.26-1.004.56-1.539l.24-.432.36-.545c.23-.341.44-.739.63-1.103 1.66-2.968 2.85-6.296 3.24-9.715.39-3.418-.06-6.949-1.25-10.135-1.28-3.106-2.38-4.327-4.81-6.623z" fill="#1A844B"/><path d="M1287.21 661.887c.15-6.881 6.38-10.061 9.65-10.534-11.7.621-20.14 9.92-18.67 16.633 4.23 19.392 10.26 17.299 1.19 33.615 5.61 6.69 8.43-2.439 11.39-5.22 12.58-11.822-3.74-25.894-3.56-34.494z" fill="#6AC86E"/><mask id="a" maskUnits="userSpaceOnUse" x="1278" y="651" width="19" height="54"><path d="M1287.21 661.887c.15-6.881 6.38-10.061 9.65-10.534-11.7.621-20.14 9.92-18.67 16.633 4.23 19.392 10.26 17.299 1.19 33.615 5.61 6.69 8.43-2.439 11.39-5.22 12.58-11.822-3.74-25.894-3.56-34.494z" fill="#6AC86E"/></mask><g mask="url(#a)"><path d="M1287 650c-2.33 1.834-5.2 9.9-4 17.5 1.49 9.5 5.5 13.5 5.5 20.5 0 5.6-5 14.167-8.5 18" stroke="#1A844B" stroke-width="4"/></g><path d="M1251.83 690.731c-8.91-8.054-16.28-3.838-18.31-3.068 7.46-22.513 23.68-11.641 37.41 4.235 11.62 13.437 21.31 3.23 23.8-.941-1.03 2.769-7.87 19.714-19.67 17.134-5.46-1.193-11.31-6.58-23.23-17.36z" fill="#1A844B"/><path d="M1246.01 739.441c-2.65 26.104-27.96 24.048-29.76 23.951 23.96-27.041 9.43-43.057 5.11-53.609-4.42-10.792 2.86-24.705 20.44-34.035-21.76 24.938 6.87 37.588 4.21 63.693z" fill="#6AC86E"/><path fill-rule="evenodd" clip-rule="evenodd" d="M1233.33 681.176c-.27.459-.55.964-.83 1.513-1.15 2.248-2.23 5.056-2.94 8.141-1.43 6.21-1.27 13.176 2.49 19.057 4.21 6.597 7.54 15.216 8.01 23.953.47 8.804-1.98 17.875-9.53 24.862l-4.07-4.403c5.95-5.514 8-12.692 7.6-20.138-.4-7.513-3.3-15.144-7.07-21.046-4.23-6.623-4.83-14.044-3.87-20.535 2.22-3.965 5.64-7.859 10.21-11.404z" fill="#1A844B"/><path d="M1229.32 766.085s-27.67 10.441-32.8 4.1l-1.87-20.861s2.12-3.793 9.11-3.914c9.26-.196 22.06 9.188 22.06 9.188l3.5 11.487z" fill="#6AC86E"/><path d="M1196.52 770.184s2.85-5.643 11.3-4.398c3.07.441 6.23.808 9.15.955-7.63-14.873-19.09-20.065-19.11-20.107-2.38 1.153-3.24 2.679-3.24 2.679l1.9 20.871z" fill="#6AC86E"/><path d="M1196.52 770.184c5.14 6.31 32.79-4.1 32.79-4.1l-.46-1.519c-3.66 3.064-12.62 2.487-21.06 1.211-8.42-1.235-11.27 4.408-11.27 4.408zM1248.46 751.791c7.46-1.71 8.36 2.679 8.36 2.679-8.35 7.738-33-1.627-33-1.627 13.01 2.78 17.18.659 24.64-1.052z" fill="#1A844B"/><path d="M1248.97 757.415l2.38 20.297c-1.52.256-3.14.198-4.83-.091-5.43-4.071-14.79-12.187-22.08-24.326l-.6-.096-.06-.335c.01-.032 14.67 5.507 25.19 4.551z" fill="#6AC86E"/><path d="M1248.98 757.415c3.14-.303 5.9-1.151 7.84-2.945 0 0-1.49 13.091-1.54 17.718-.03 4.638-3.28 5.359-3.28 5.359-.22.03-.45.092-.67.123l-2.35-20.255zM1246.52 777.621c-8.94-1.55-19.16-9.366-19.16-9.366l-3.55-15.381.62.243c7.31 12.108 16.66 20.433 22.09 24.504z" fill="#6AC86E"/><path d="M1195.33 757.345c.56-.511 1.24-.98 1.92-1.343 1.38-.76 2.88-1.267 4.4-1.628 1.89-.443 3.81-.635 5.76-.712 1.13-.038 2.27-.002 3.41.033.75.045 1.5.121 2.28.176.74.076 1.51.194 2.24.301 1.5.226 2.97.514 4.46.875 1.49.33 2.91.775 4.37 1.23 1.44.487 2.86 1.037 4.25 1.576 1.4.612 2.79 1.256 4.13 1.952.68.368 1.36.737 1.99 1.158l1.74 1.043c2.24 1.244 4.7 2.111 7.29 2.633 2.03.405 4.16.602 6.35.641.6-.008 1.19-.017 1.79-.025 1.34-.037 2.71-.168 4.05-.31l.01.074-.09 1.015-.07.711-.02.168c-1.11.498-2.22.892-3.4 1.265-.63.207-1.28.372-1.92.506-2.34.536-4.8.788-7.28.685-1.59-.079-3.2-.273-4.74-.656-1.56-.351-3.13-.88-4.61-1.587-.36-.158-.72-.348-1.07-.538l-.98-.506c-.59-.337-1.23-.622-1.82-.928-1.24-.59-2.47-1.181-3.76-1.688-4.54-1.88-9.25-3.468-14.07-4.605-.62-.139-1.22-.308-1.82-.405-2.7-.596-5.46-1.004-8.22-1.098-1.38-.046-2.77.011-4.11.258-.81.143-1.62.36-2.4.692l-.06-.963z" fill="#1A844B"/><path d="M1228.99 754.515c-1.26.833.15 11.161 1.38 15.803-2.89-.032-3.75-.181-7.38-1.755-3.64-1.541-5.32-11.89-.01-16.111 1.35-1.115 7.24 1.22 6.01 2.063z" fill="#1A844B"/><path d="M1228.02 754.397c-1.26.833 1.11 11.31 2.34 15.953-2.89-.032-4.71-.332-8.35-1.873-3.64-1.542-5.32-11.891-.02-16.112 1.37-1.146 7.26 1.189 6.03 2.032z" fill="#6AC86E"/><g opacity=".5"><g opacity=".5"><path opacity=".5" d="M982.399 442.186H616.193L378.221-293H744.53l237.869 735.186z" fill="url(#paint1_linear)"/><path opacity=".5" d="M1564.05 442.186h-128.34L1197.85-293h128.23l237.97 735.186z" fill="url(#paint2_linear)"/><path opacity=".5" d="M1669.76 442.186h-75.43L1356.46-293h75.43l237.87 735.186z" fill="url(#paint3_linear)"/></g><g opacity=".5"><path opacity=".5" d="M525.779 442.186H397.544L159.572-293H287.91l237.869 735.186z" fill="url(#paint4_linear)"/><path opacity=".5" d="M23.4841 442.186H-422.081L-660.053-293h445.565L23.4841 442.186z" fill="url(#paint5_linear)"/><path opacity=".5" d="M208.551 442.186h-445.565L-474.986-293h445.5645L208.551 442.186z" fill="url(#paint6_linear)"/></g></g><path d="M1114.66 442.186H748.353L510.484-293h366.207l237.969 735.186z" fill="url(#paint7_linear)"/><path d="M7.67442 476.496c2.68658 3.204 4.75308 6.924 6.50968 10.955 1.6533 3.927 2.9967 8.164 3.72 12.608 1.55 8.784.8267 18.395-2.2732 27.386-2.9966 8.991-8.16319 17.362-14.46641 24.286-.82665.826-1.55002 1.756-2.37667 2.583l-1.23993 1.24c-.10333.104-.10328.207-.20661.207l-.10344.207-.20661.31c-.51666.826-.72342 1.446-.62009 1.653 0 .103.10328.207.20661.207h.31005c.10333 0 .20671 0 .31004.103.10334.104.20656.31.41323.517.61999 1.033 2.06678 2.997 4.03007 4.96 1.9633 1.964 4.33998 4.134 7.0266 6.201 5.26986 4.237 11.36626 8.164 17.66956 11.988 1.5499.93 3.2033 1.86 4.7533 2.79l2.3767 1.344.6198.31.2066.103.4135.207.7233.516c1.0333.62 1.9632 1.344 2.9965 2.171 3.8233 3.1 7.0267 7.13 9.1966 12.194 1.0334 2.48 1.7567 5.271 2.0667 8.061.1033.723.1032 1.343.1032 1.963 0 .62.1033 1.241 0 1.861 0 .62.0001 1.24-.1032 1.86 0 .62-.1033 1.24-.2066 1.757-.62 4.857-2.1702 8.784-3.8235 12.091-.4133.827-.8265 1.653-1.3431 2.377l-1.3434 2.17c-.93 1.343-1.8599 2.687-2.7899 3.824-.93 1.24-1.9633 2.273-2.8933 3.307-.93.93-1.9634 2.067-2.8933 2.893-.93.93-1.9634 1.861-2.8934 2.584l-1.4465 1.24-1.4468 1.137-2.2732 1.757-.8267.62-.7233.62c-1.0333.826-1.86 1.757-2.5833 2.48-1.4466 1.654-2.3765 2.997-2.6865 3.824-.31.826-.5168 1.137-.4134 2.067 0 .93.5168 2.376 1.4468 4.237.5166.93 1.1364 1.86 1.8597 2.79.4133.517.7234.93 1.1368 1.343.5166.517.6201.724 1.1367 1.241.93.826 2.2733 2.066 3.8232 3.307 1.55 1.24 3.3066 2.686 5.1666 4.34 3.6166 3.204 7.6466 7.027 11.1598 12.298 1.7567 2.583 3.3065 5.58 4.4431 8.681 1.1366 3.1 1.9635 6.51 2.2735 9.817.31 3.307.2066 6.511-.3101 9.508-.4133 2.997-1.2399 5.787-2.0666 8.371-1.8599 5.167-4.2367 9.611-6.82 13.538-.31.516-.6199 1.033-1.0333 1.447l-.5166.723-.4133.517-1.6534 2.17c-1.0333 1.447-2.0666 2.997-3.0999 4.547-1.9633 3.1-3.8233 6.201-5.4766 9.508-1.6533 3.307-3.0999 6.717-4.3399 10.231-1.3433 3.513-2.2733 7.13-3.0999 10.851-.7234 3.72-1.3434 7.544-1.3434 11.471-.1033 1.963.0002 3.927.2069 5.787.1033.93.3098 1.964.6198 2.894.31.93.6199 1.86 1.2399 2.687-1.0333-.414-1.8599-1.137-2.5833-1.86-.7233-.827-1.4466-1.654-2.0666-2.584-1.24-1.86-2.2733-3.72-3.0999-5.787-1.7567-4.031-2.8932-8.268-3.7198-12.608-.8267-4.341-1.0333-8.784-1.0333-13.228 0-4.444.4132-8.888 1.1365-13.332.7233-4.443 1.7566-8.784 3.0999-13.124.62-2.17 1.4469-4.237 2.2735-6.407.4133-1.034.8266-2.067 1.2399-3.101l.3101-.826.2066-.621c.1033-.413.3099-.826.4132-1.24 1.1367-3.203 1.9634-6.2 2.1701-8.887.31-2.687-.0001-4.754-.6201-6.098-.62-1.343-1.3432-2.273-2.6865-3.617-1.3433-1.343-3.4101-2.893-6.0967-4.65-1.3433-.93-2.89316-1.86-4.54647-2.894-1.75663-1.136-3.6167-2.273-5.78666-3.927-1.13664-.826-2.48-1.963-3.40999-2.79-1.03331-.93-2.06663-1.86-3.09994-2.894-1.9633-2.066-3.9266-4.237-5.68324-6.717-3.5133-4.857-6.5097-10.748-8.0596-17.878-.7234-3.514-1.0334-7.234-.8267-10.955.2066-3.72 1.0331-7.441 2.1698-10.851 1.1366-3.41 2.6868-6.511 4.3401-9.301 1.6533-2.79 3.61639-5.27 5.47635-7.441 1.9633-2.17 3.92665-4.237 5.99328-5.993l1.54997-1.344 1.54997-1.24 2.48011-1.964.92988-.723.8267-.723c.61999-.517 1.03332-.93 1.54997-1.344.51666-.413.93004-.93 1.34336-1.343.31-.414.82651-.827 1.13651-1.24.31-.414.62-.724.8267-1.034.1033-.103.2067-.207.31-.413.1034-.104.1033-.207.2066-.31.2067-.31.1034-.207 0 .62v1.137c0 .206.0001.206.1035.413.1033.827.3098 1.55.6198 2.17.62 1.24 1.3433 2.067 2.0666 2.48.2067.104.31.207.5167.31l.1034.104h.1032l-.2066-.104-.7233-.413-2.7899-1.86c-1.85993-1.24-3.61661-2.48-5.47658-3.824-7.12987-5.167-14.05298-10.851-20.56282-17.568-3.2033-3.411-6.51-7.131-9.4033-11.471-2.8933-4.341-5.7865-9.405-7.4398-16.225-.4133-1.654-.7234-3.514-.8267-5.374-.1034-1.964-.1034-3.927.2066-5.891.5166-4.03 1.9634-8.061 4.0301-11.264 2.0666-3.204 4.5465-5.787 6.9231-7.648l.9299-.723.4135-.31c.1033-.103.3099-.207.4132-.31l1.1368-.724c.7233-.413 1.4464-.93 2.1698-1.446 5.6832-3.927 10.64306-8.578 14.67298-14.055 4.02993-5.477 6.92341-12.091 8.47338-19.429.72332-3.617 1.1366-7.544 1.23993-11.471.20666-3.513.00005-7.544-.72327-11.678z" fill="#6AC86E"/><path d="M-43.371 558.241c2.9966 1.034 5.7864 2.687 8.4731 4.651 2.5832 1.963 5.0632 4.237 7.2331 7.027 2.17 2.687 3.9267 5.891 5.27 9.508 1.3433 3.513 1.9633 7.44 2.0666 11.471 0 4.03-.6199 7.957-1.7566 11.781-1.1366 3.72-2.6867 7.337-4.5467 10.541-.5166.827-.9298 1.653-1.4465 2.377l-.7233 1.137-.5166.826c-.62 1.137-1.3434 2.274-1.86 3.411-1.24 2.273-2.2734 4.547-3.2034 6.717-1.8599 4.444-3.0998 8.681-3.5131 12.505-.4134 3.823-.1033 7.13.8267 10.231.9299 3.1 2.3766 6.097 4.6498 9.197 2.2733 3.101 5.1666 6.304 8.5766 9.405 3.4099 3.1 7.3364 6.2 11.573 9.094l3.2031 2.17 3.82344 2.48c2.58327 1.757 5.1664 3.617 7.853 5.581 2.58328 1.963 5.26999 4.03 7.85326 6.304 2.5833 2.273 5.2697 4.754 7.853 7.751 2.5833 2.996 5.2699 6.407 7.5432 10.851 1.1367 2.273 2.1699 4.753 2.7899 7.544.7233 2.79 1.0335 5.684.9301 8.577-.1033 2.894-.5166 5.581-1.2399 7.958s-1.55 4.443-2.5833 6.407c-1.9632 3.72-4.03 6.717-6.0966 9.301-1.0334 1.343-2.0665 2.583-3.2032 3.72l-.8266.93-.4135.414-.3098.31-1.2402 1.343c-1.6533 1.757-3.2031 3.617-4.54645 5.581-2.78994 3.927-4.95984 8.371-5.88982 13.538-.51665 2.583-.72342 5.27-.62009 8.164.10334 2.894.51681 5.787 1.44679 8.784-2.6866-1.653-4.95994-4.03-7.02656-6.717-1.96329-2.687-3.61658-5.787-4.64989-9.094-2.27328-6.614-2.58318-14.262-1.23992-21.393.72332-3.617 1.75662-7.027 3.09992-10.437l1.03331-2.481.3098-.62.20686-.516.41322-.93c.51666-1.344 1.03321-2.584 1.44654-3.824.82665-2.48 1.55017-4.754 1.75682-6.511.31-1.757-.10347-2.893-.41347-2.997-.20666-.103-.41332-.103-.51666-.206-.20665-.104-.41336-.207-.82669-.517-.72332-.62-1.96319-1.757-3.51316-2.894-3.20325-2.48-7.54305-5.27-12.08965-7.957-2.2733-1.344-4.65-2.687-7.0266-4.134l-3.72-2.17c-1.4466-.827-2.8932-1.654-4.3398-2.584-5.6832-3.617-11.2631-7.647-16.533-12.504-5.2699-4.858-10.3329-10.541-14.5695-17.362-4.2366-6.717-7.44-14.778-8.68-23.459-1.2399-8.578-.3099-17.362 2.1701-25.009 2.4799-7.648 6.1998-14.262 10.5397-19.946 2.1699-2.893 4.4433-5.477 6.8199-7.957 1.24-1.24 2.3767-2.377 3.6166-3.514l.9299-.826c.2067-.207.4133-.414.7233-.517.4133-.31.8267-.724 1.3433-1.137 3.4099-2.997 6.0967-6.097 7.8533-9.818 1.7566-3.72 2.5832-8.37 1.7566-13.538-1.1367-4.96-3.2034-10.541-6.3033-16.018z" fill="#6AC86E"/><path d="M85.4829 606.606c3.3066 3.927 5.4768 8.784 6.9234 13.848 1.4467 5.064 1.9632 10.541 1.6532 16.122-.5167 11.161-4.8565 22.322-11.4697 31.623-1.6533 2.377-3.41 4.547-5.2699 6.717-.93 1.137-1.8601 2.067-2.8934 3.1l-.7232.724-.4133.413c-.1033.104-.31.31-.31.31-.2067.31-.4134.517-.6201.827-.8266 1.033-1.4465 2.067-1.9632 2.997-.4133.93-.7235 1.86-.9301 2.687-.4134 1.653-.62 3.617-.5167 6.304.1033 2.687.5167 5.994 1.3434 9.817.7233 3.824 1.6534 7.958 2.6867 12.505.5166 2.274.9299 4.65 1.4465 7.027.4134 2.481.8266 4.961 1.24 7.648.7233 5.27 1.1368 10.954.7235 17.052-.4134 6.097-1.7567 12.607-4.4433 18.705-5.3732 11.678-14.6731 20.152-24.2829 24.906-4.8565 2.48-9.7131 4.133-14.673 5.373-4.9599 1.24-9.8164 1.861-14.983 2.171 2.9966-4.134 6.1997-7.958 9.093-11.575 2.8932-3.72 5.6833-7.234 7.8532-10.748 2.2733-3.513 4.0301-6.924 5.27-10.231.62-1.653 1.0332-3.307 1.4466-4.857.2066-.827.31-1.653.5166-2.377l.2066-1.24.1035-1.033c.2066-2.687-.1034-5.477-.5167-8.578-.5166-3.203-1.3434-6.614-2.4801-10.437-.5166-1.861-1.0333-3.928-1.7566-5.994l-1.86-6.408c-1.24-4.443-2.4798-9.301-3.5131-14.571-.93-5.271-1.7566-11.161-1.4466-17.775.31-6.511 1.7565-13.952 5.2698-20.669 1.6533-3.307 3.8232-6.511 6.1998-9.198 2.3767-2.686 4.96-5.063 7.5433-7.027.62-.517 1.3432-.93 1.9632-1.447.2066-.103.2068-.206.4134-.206l.3101-.207.6198-.31c.8267-.517 1.6534-.93 2.3767-1.447 1.55-.93 3.0998-2.067 4.5465-3.1 5.8898-4.341 11.2632-9.508 15.6031-16.225 2.2733-3.411 4.1333-7.131 5.7866-11.265 1.6533-4.443 2.9964-8.887 3.9264-13.951z" fill="#6AC86E"/><path d="M7.67513 476.496c4.13327 7.028 6.61317 15.089 7.23317 23.563.7234 8.371-.7234 17.155-4.03 25.216-3.30665 8.06-8.47322 15.294-14.46645 21.392-.72332.723-1.54992 1.55-2.27324 2.273l-1.13675 1.137-.82645.827c-1.03331 1.137-1.86001 2.273-2.37671 3.41-1.0333 2.274-.93 4.341-.1034 7.027.92999 2.584 2.79001 5.478 4.95997 8.165 2.27329 2.687 4.85658 5.27 7.74985 7.75 2.78995 2.481 5.88985 4.754 8.98978 7.028 3.1 2.273 6.3033 4.444 9.6099 6.51 1.6533 1.034 3.3066 2.067 4.9599 2.997l2.4799 1.447.6201.414.4132.206.5167.31c.7233.414 1.3434.93 1.9634 1.447 2.48 2.067 4.6497 4.754 5.993 7.958.62 1.653 1.1367 3.307 1.3434 5.167.2067 1.757.2068 3.41-.1032 4.96-.4133 3.204-1.4468 5.994-2.7901 8.474-1.24 2.481-2.7899 4.548-4.3399 6.408-3.0999 3.823-6.6132 6.82-10.0231 9.611l-2.3767 1.86c-.7233.517-1.3432 1.137-1.9632 1.653-1.3433 1.137-2.4799 2.274-3.6166 3.514-1.0333 1.24-2.0665 2.48-2.7899 3.72-.8266 1.241-1.44666 2.481-1.85998 3.824-.92999 2.48-1.23993 4.961-.72327 7.648.41332 2.686 1.65305 5.373 3.40975 8.06.8266 1.344 1.86 2.687 2.8933 3.927 1.1367 1.24 2.2735 2.481 3.5134 3.514 2.5833 2.17 6.0964 4.651 9.403 7.441 3.41 2.79 6.8201 5.994 9.7134 10.127 1.4466 2.067 2.6866 4.341 3.6166 6.718.9299 2.377 1.6531 4.96 1.8597 7.544.62 5.167-.2066 10.128-1.55 14.571-1.3433 4.444-3.3065 8.475-5.5798 12.195l-3.2033 5.167c-1.0333 1.654-1.8599 3.307-2.7899 5.064-1.7567 3.41-3.4098 6.924-4.7531 10.541-2.79 7.234-4.6501 14.778-5.3735 22.632-.31 3.927-.4133 7.854 0 11.781.2067 1.964.5167 3.927 1.0334 5.788.3099.93.6199 1.86 1.0333 2.79.4133.93.9301 1.757 1.6534 2.48-1.7567-1.137-2.8933-2.997-3.8232-4.754-.93-1.86-1.7567-3.823-2.3767-5.787-1.24-4.03-1.9633-8.164-2.2733-12.298-.6199-8.371.2066-16.845 2.1699-25.009 1.0333-4.134 2.2735-8.164 3.8234-12.091.7233-1.964 1.5499-3.927 2.4799-5.891.4133-.93.93-1.963 1.3433-2.893l.6199-1.344c.2066-.413.4134-.827.6201-1.24 1.5499-3.41 2.7898-6.821 3.5131-10.231.7233-3.307.8269-6.614.2069-9.404-.62-2.894-1.8602-5.374-3.8235-7.751-1.9633-2.377-4.5464-4.65-7.543-6.821-2.9966-2.17-6.3034-4.237-10.02332-7.13-.92998-.724-1.96325-1.551-2.7899-2.377-.82665-.827-1.75663-1.654-2.58328-2.481-1.65331-1.756-3.20318-3.617-4.54649-5.58-2.78995-4.03-5.06324-8.681-6.19989-14.055-1.13664-5.27-.72347-11.161 1.1365-16.225.82665-2.583 2.06668-4.96 3.40999-7.13 1.34331-2.171 2.89333-4.134 4.4433-5.994 1.6533-1.757 3.30651-3.514 5.06314-4.961.82665-.827 1.75673-1.55 2.68672-2.17l2.37663-1.86c2.8933-2.171 5.4767-4.547 7.5433-7.028 2.0666-2.377 3.3065-4.96 3.5132-6.51.1033-.414.1034-.724.1034-1.034 0-.206-.1034-.413-.1034-.723-.2067-.517-.5168-1.137-1.1368-1.654-.1033-.103-.3099-.206-.4132-.413l-.1034-.103h-.1032l-.2066-.104-.7236-.413-2.6864-1.654c-1.7567-1.136-3.5134-2.273-5.27-3.513-6.92324-4.754-13.63963-9.921-19.73619-16.019-3.09991-2.997-6.09651-6.303-8.78321-10.024-2.6866-3.72-5.1666-7.854-6.5099-13.021-.62-2.584-.9301-5.374-.6201-8.268.31-2.893 1.3433-5.787 2.7899-8.164 1.4467-2.377 3.2033-4.444 5.1666-5.994l1.4468-1.137 1.1365-.826c.7233-.517 1.4467-1.137 2.17-1.757 5.7866-4.754 10.84994-10.438 14.56987-16.948 3.71993-6.511 5.99323-13.952 6.71653-21.703.31-3.823.3098-7.854-.2068-11.781-.31004-4.134-1.13649-8.164-2.37647-11.988z" fill="#1A844B"/><path d="M-43.3714 558.241c5.0632 3.1 9.6098 7.544 12.9164 12.918 1.6533 2.687 2.9965 5.684 3.8232 8.888.8266 3.203 1.1368 6.614.9301 10.024-.2066 3.41-1.0334 6.717-2.17 9.921-1.1367 3.204-2.7899 6.097-4.5465 8.888-.4133.723-.93 1.343-1.3434 2.066l-1.3433 1.861c-.8267 1.136-1.6534 2.273-2.3767 3.41-1.55 2.273-2.8931 4.65-4.2364 7.027-1.24 2.377-2.3766 4.857-3.3066 7.234-.93 2.481-1.6534 4.857-2.17 7.338-1.0333 4.96-1.0333 9.714 0 14.364 1.9633 9.301 8.1632 17.776 16.1197 24.906 3.9266 3.617 8.3697 6.924 13.0196 10.025 1.1367.723 2.2735 1.55 3.5134 2.273l3.8232 2.377c2.58333 1.654 5.06318 3.307 7.64646 5.167 2.47995 1.757 4.95984 3.721 7.43979 5.684 2.47995 2.067 4.85658 4.134 7.23315 6.614 2.2733 2.48 4.5468 5.271 6.4068 8.681 1.8599 3.307 3.0999 7.544 3.0999 11.781 0 4.134-1.1366 7.958-2.5833 11.058-1.4466 3.204-3.1001 5.994-4.8567 8.577-.93 1.344-1.7565 2.584-2.6865 3.824l-2.58327 3.411c-1.54997 2.17-2.99661 4.547-4.13326 6.924-2.37661 4.857-3.8233 10.127-3.92663 15.708 0 2.79.20656 5.58.92988 8.371.61999 2.79 1.65345 5.58 2.99675 8.267-4.3399-4.237-7.33666-9.921-8.67997-16.121-1.44663-6.201-.92993-12.918.82671-19.119.92998-3.1 2.06677-6.097 3.5134-8.991l1.1365-2.17 1.03331-1.964c.72332-1.24 1.34345-2.48 1.96344-3.823 1.23998-2.481 2.37652-4.961 2.99651-7.338.72332-2.377.92993-4.444.72326-6.2-.20665-1.757-.82664-3.307-2.06662-5.064-1.13664-1.757-2.78994-3.514-4.6499-5.167-3.82326-3.411-8.36978-6.614-13.12301-9.715-2.3766-1.55-4.7532-3.1-7.2332-4.547l-3.72-2.273c-1.3433-.827-2.6865-1.654-4.0298-2.481-5.2699-3.41-10.3331-7.13-15.1897-11.574-4.7532-4.444-9.1965-9.301-12.9164-15.088-3.6166-5.788-6.4066-12.402-7.5432-19.429-1.1367-7.027-.62-14.261 1.3433-20.772 1.86-6.614 4.96-12.505 8.5766-17.878 1.7566-2.687 3.7198-5.168 5.7864-7.544 1.0333-1.241 2.0666-2.377 3.0999-3.514l1.4468-1.55c.5167-.517.9298-.93 1.3431-1.447 3.4099-3.927 6.2001-8.474 7.4401-13.331 1.2399-4.961.9299-10.335-.8267-15.709-.93-2.687-2.0668-5.27-3.5135-7.75-1.6533-2.377-3.4098-4.754-5.3731-7.028zM85.4826 606.606c2.17 4.237 3.3068 8.991 3.8235 13.848.5166 4.857.4132 9.818-.4135 14.778-1.6533 9.921-6.3032 19.325-12.6064 27.283-1.55 1.963-3.3065 3.824-5.0631 5.684-.8267.93-1.8602 1.757-2.7902 2.583l-1.3431 1.24-1.0333 1.034c-2.6866 2.687-4.7533 5.58-5.9933 8.681-1.24 3.1-1.86 6.51-1.86 10.334s.5167 7.854 1.3433 12.091c.8267 4.237 1.8601 8.578 2.8934 13.125 1.0333 4.547 2.0664 9.198 2.8931 14.055.7233 4.857 1.3434 9.921 1.1367 15.191-.2067 5.271-1.0333 10.748-3.0999 15.915-.2067.62-.5167 1.24-.8267 1.86l-.8267 1.757c-.62 1.137-1.2399 2.274-1.9632 3.41-1.3434 2.274-2.8932 4.341-4.5465 6.304-1.6533 1.964-3.5135 3.824-5.3735 5.478-1.9633 1.653-3.9264 3.203-5.993 4.547-4.1333 2.79-8.37 4.96-12.8133 6.82-4.3399 1.861-8.783 3.411-13.3296 4.858 3.6166-3.101 7.3364-5.994 10.7463-8.888 3.5133-2.997 6.8199-5.994 9.8165-9.198 1.4467-1.55 2.8933-3.203 4.1333-4.96 1.24-1.653 2.4801-3.41 3.5134-5.167 1.0333-1.757 1.9632-3.617 2.6865-5.477.4133-.931.7233-1.861 1.0333-2.791l.4135-1.446.4132-1.344c.8267-3.617 1.1367-7.544.8267-11.471-.31-4.031-.9301-8.164-1.9634-12.298-.93-4.237-2.0666-8.578-3.3066-13.021-1.1366-4.444-2.3766-9.095-3.3065-13.952-.8267-4.857-1.5501-10.024-1.3434-15.501.2067-5.477 1.3434-11.265 3.9266-16.639 2.5833-5.27 6.4065-9.817 10.7464-13.228l2.8934-2.17c.8266-.62 1.6534-1.24 2.4801-1.963 1.6533-1.344 3.2031-2.687 4.7531-4.134 6.0965-5.787 11.1598-12.608 14.4664-20.565 3.6166-8.268 5.3732-17.259 4.8565-26.663z" fill="#1A844B"/><path d="M1077.35 289.605l-13.43 6.511 9.61 11.058 3.82-17.569z" fill="#764ACC"/><path d="M1066.3 296.633c-8.06-12.608-18.5-14.675-26.66-13.642l-3.2 14.778c7.02 4.444 17.25 7.028 29.86-1.136z" fill="#764ACC"/><path d="M1026 287.848s3.72 5.89 10.44 10.024l3.2-14.778c-7.75.93-13.64 4.754-13.64 4.754z" fill="#C30FE8"/><path d="M1116.62 256.845l-13.43 6.511 9.61 11.058 3.82-17.569z" fill="#764ACC"/><path d="M1105.67 263.873c-8.06-12.608-18.5-14.675-26.66-13.642l-3.21 14.779c6.93 4.443 17.16 7.027 29.87-1.137z" fill="#764ACC"/><path d="M1065.37 255.088s3.72 5.89 10.44 10.024l3.2-14.778c-7.85 1.033-13.64 4.754-13.64 4.754z" fill="#C30FE8"/><path d="M1149.69 298.7l-13.44 6.51 9.61 11.058 3.83-17.568z" fill="#764ACC"/><path d="M1138.73 305.727c-8.06-12.608-18.49-14.675-26.66-13.641l-3.2 14.778c6.92 4.443 17.26 6.924 29.86-1.137z" fill="#764ACC"/><path d="M1098.44 296.839s3.72 5.89 10.43 10.024l3.21-14.778c-7.86 1.033-13.64 4.754-13.64 4.754z" fill="#C30FE8"/><path d="M1109.39 329.083l-13.43 6.51 9.61 11.058 3.82-17.568z" fill="#764ACC"/><path d="M1098.44 336.11c-8.06-12.608-18.5-14.675-26.66-13.641l-3.21 14.778c6.93 4.443 17.26 6.924 29.87-1.137z" fill="#764ACC"/><path d="M1058.14 327.325s3.72 5.89 10.43 10.024l3.21-14.778c-7.86.93-13.64 4.754-13.64 4.754z" fill="#C30FE8"/><path d="M38.2609 943.815c-4.2366 4.651-9.8166 8.061-15.8098 9.611-11.3664 2.894-25.21267.413-33.3758 8.888-4.1333 4.34-5.58 10.541-8.37 15.915-9.0931 17.671-32.7561 23.871-51.9757 18.601-5.4766-1.55-10.9531-3.823-16.7397-3.41-9.5065.827-16.4299 8.89-24.2829 14.36-13.433 9.31-31.929 10.86-46.706 3.83-7.336-3.52-13.846-8.89-21.699-11.06-10.333-2.893-21.287.41-31.723 2.48-6.407 1.34-13.02 2.27-19.53.72-6.51-1.55-13.019-3.923-18.496-7.746-3.513-2.481-6.51-5.581-8.68-9.198-2.48-4.237-2.893-9.094-4.236-13.745-.62-1.963-1.447-3.823-2.79-5.373-2.377-2.481-6.2-3.204-9.61-2.997-7.853.413-15.087 2.066-22.94.93-12.916-1.861-25.523-9.508-30.069-22.219-2.48-7.028-2.687-15.605.93-22.219 3.41-6.304 9.093-11.058 15.293-14.468 16.739-9.301 36.476-10.438 55.489-12.918 25.316-3.41 50.116-9.611 75.122-14.572 24.799-4.96 50.012-8.577 75.328-6.82 25.9364 1.757 51.046 8.577 76.4655 13.848 8.5765 1.757 17.153 3.513 25.83285 4.65C13.048 893.28 33.4044 895.76 42.2909 910.849c4.65 7.854 4.7531 17.981.8265 26.249-1.3433 2.273-2.9966 4.65-4.8565 6.717z" fill="#049AAD"/><path d="M8.39795 931.932c-3.51328 3.823-8.16324 6.717-13.22647 7.957-9.50648 2.48-21.07958.31-27.89948 7.441-3.5133 3.617-4.6499 8.784-6.9232 13.228-7.6465 14.778-27.3828 19.945-43.3992 15.501-4.5466-1.24-9.1965-3.203-13.9497-2.79-7.9569.62-13.7429 7.441-20.2529 11.988-11.263 7.751-26.66 8.991-39.06 3.203-6.096-2.893-11.573-7.44-18.083-9.197-8.679-2.377-17.772.31-26.556 2.067-5.373 1.137-10.85 1.963-16.326.62-5.373-1.24-10.85-3.204-15.396-6.407-2.894-2.067-5.477-4.651-7.234-7.648-2.066-3.514-2.376-7.544-3.513-11.471-.517-1.654-1.136-3.204-2.376-4.444-2.067-2.067-5.167-2.687-8.06-2.48-6.51.31-12.607 1.653-19.22.723-10.85-1.55-21.286-7.854-25.11-18.601-2.066-5.891-2.169-13.022.827-18.602 2.893-5.271 7.647-9.198 12.813-12.091 13.95-7.751 30.483-8.681 46.293-10.852 21.079-2.79 41.849-8.06 62.722-12.194 20.666-4.134 41.746-7.131 62.929-5.787 21.596 1.446 42.6756 7.13 63.7552 11.574 7.1298 1.447 14.3632 2.997 21.5964 3.824 14.4664 2.067 31.51602 4.03 38.9559 16.638 3.8233 6.511 4.0299 15.088.7233 21.909-1.1367 2.17-2.47989 4.134-4.02985 5.891z" fill="#93DAE4"/><path d="M685.568 850.634c8.163-5.581 4.339-17.672-5.684-17.775-18.496-.31-38.542-.517-38.852-.31-.723.31 6.407 44.231 6.407 44.231l38.129-26.146z" fill="#fff"/><path d="M655.602 802.476s-15.913-8.371-42.469 3.1c-29.036 12.505-28.313 44.438-28.313 44.438l70.782-47.538zM666.762 858.591l35.443 13.022c1.756.62 3.203-1.344 2.273-2.791l-5.064-7.544c-7.543-11.264-23.456-12.504-32.652-2.687z" fill="#AD1457"/><path d="M666.658 858.591l14.157 24.493c.723 1.137 2.48.827 2.583-.517l.723-6.821c1.137-10.024-7.44-18.395-17.463-17.155z" fill="#AD1457"/><path d="M689.287 846.603c-2.996 1.757-6.096 3.411-9.403 4.548-3.823 1.343-7.75 2.17-11.779 2.893-1.344.31-2.687.62-4.134.827-.413.103-.93.207-1.343.31.103 0 .207-.103.31-.103-5.89.723-12.193.103-16.947-2.687-2.376-1.447-1.55-5.788 1.55-5.581 14.26 1.24 27.693.207 38.44-10.334.93-.93 1.963-1.034 2.893-.724.207-.31.517-.62.723-.826 1.24-1.654 2.377-3.307 3.41-4.961.517-.827 1.137-1.757 1.654-2.584.206-.31 1.549-2.17 1.446-2.376 0 0-3.1-6.408-9.403-13.848-7.026-8.371-17.876-12.402-28.623-10.852-12.916 1.861-25.006 7.648-34.512 16.535l-40.816 34.724c-2.894 2.584-6.82 3.514-10.54 2.584L547 847.947l11.263 15.605-6.82 14.778s23.56-9.094 28.933-8.164c5.373.93 19.53 22.322 52.079 18.292 32.55-4.031 53.112-27.386 66.545-48.469l-9.713 6.614z" fill="#EC407A"/><path d="M580.376 870.269c-5.373-.93-28.933 8.164-28.933 8.164l6.82-14.778L547 848.05l25.213 6.201c3.72.93 7.646-.103 10.54-2.584 0 0-10.747 8.784-11.057 11.885-.31 3.1 8.68 6.717 8.68 6.717z" fill="#AD1457"/><path d="M665.212 854.768c-.827.206-1.654.31-2.48.516.206-.103.31-.206.516-.206-7.233.826-14.673.206-21.596-2.067-3.72-1.24-2.17-6.408 1.55-5.788 15.087 2.584 40.093-3.203 45.053-10.437.516-.62.93-1.137 1.446-1.757 1.24-1.654 2.377-3.307 3.41-4.961.517-.826 1.137-1.756 1.653-2.583.207-.31 1.55-2.17 1.447-2.377 0 0-3.1-6.407-9.403-13.848-7.027-8.371-17.876-12.401-28.623-10.851-12.916 1.86-25.006 7.647-34.512 16.535l-17.153 14.571c6.613 14.778 23.869 25.319 43.915 25.319 5.27 0 10.333-.723 14.983-2.066 0-.104-.103-.104-.206 0z" fill="#EC407A"/><path d="M659.632 832.859c5.079 0 9.197-4.118 9.197-9.198s-4.118-9.197-9.197-9.197c-5.079 0-9.196 4.117-9.196 9.197 0 5.08 4.117 9.198 9.196 9.198z" fill="#000"/><path d="M662.835 827.898c2.626 0 4.754-2.128 4.754-4.754 0-2.625-2.128-4.753-4.754-4.753-2.625 0-4.753 2.128-4.753 4.753 0 2.626 2.128 4.754 4.753 4.754z" fill="#fff"/><path d="M689.701 823.661c3.766 0 6.82-3.054 6.82-6.821s-3.054-6.82-6.82-6.82c-3.767 0-6.82 3.053-6.82 6.82 0 3.767 3.053 6.821 6.82 6.821z" fill="#000"/><path d="M691.974 819.837c1.884 0 3.41-1.526 3.41-3.41 0-1.883-1.526-3.41-3.41-3.41-1.883 0-3.41 1.527-3.41 3.41 0 1.884 1.527 3.41 3.41 3.41z" fill="#fff"/><path d="M620.469 859.728l35.442 13.021c1.757.62 3.204-1.343 2.274-2.79l-5.064-7.544c-7.439-11.264-23.456-12.505-32.652-2.687z" fill="#AD1457"/><path d="M620.469 859.728l14.156 24.493c.723 1.136 2.48.826 2.583-.517l.724-6.821c1.033-10.024-7.44-18.395-17.463-17.155z" fill="#AD1457"/><path d="M929.946 847.43s-31.413 29.453-82.355 18.912c-8.473-1.757-15.81-3.824-22.216-6.2-1.137-.414-2.17-.827-3.204-1.241-7.543-2.893-13.639-6.097-18.599-9.301-.93-.62-1.86-1.136-2.687-1.756-11.16-7.648-15.5-14.572-16.326-16.019-.104-.206-.207-.31-.207-.31-.62-.62-.517-2.48.103-2.997 0 0 26.763-35.653 89.589-15.398 50.219 16.225 56.109 24.286 56.109 24.286.31.207.62.413.826.827 1.55 2.377 1.137 8.371-1.033 9.197z" fill="#F2CD13"/><path d="M930.979 838.233c-.31.826-.826 1.55-1.55 1.757 0 0-31.206 23.769-82.252 13.641-5.993-1.24-11.573-2.48-16.946-3.927-1.55-.414-3.1-.827-4.65-1.344-18.186-5.27-31.929-11.574-41.229-16.535-.103-.206-.207-.31-.207-.31-.62-.62-.517-2.48.103-2.997 0 0 13.847-18.498 45.053-21.288 10.643-.931 23.249-.104 38.026 3.927.93.206 1.86.516 2.79.826 1.24.31 2.48.724 3.72 1.137 5.89 1.86 11.16 3.721 15.913 5.374.207.103.31.103.517.207 2.376.827 4.65 1.653 6.716 2.48 29.036 10.851 32.963 16.225 32.963 16.225.517.207.723.413 1.033.827z" fill="#FFDB70"/><path d="M844.182 812.397c8.886-13.642 24.386-16.432 36.476-17.982 11.263-1.447 8.576 1.137 5.476 3.927-3.616 3.204-9.506 11.678-8.266 15.915 1.033 4.237-32.756 3.617-33.686-1.86zM891.402 825.728c5.167-7.957 14.157-9.508 21.183-10.438 6.51-.826 4.96.724 3.203 2.274-2.066 1.86-5.683 5.891-5.063 8.371.723 2.377-18.806 2.893-19.323-.207z" fill="#FFDB70"/><path d="M929.325 840.403c1.034-13.641 14.26-21.806 21.803-25.423 1.757-.826 3.617.93 2.894 2.791-2.79 6.407-7.544 17.671-8.577 25.215-.93 6.408 2.893 13.435 6.303 18.189 1.24 1.757-.62 4.03-2.583 3.204-8.473-3.617-20.77-11.162-19.84-23.976z" fill="#F2CD13"/><path d="M836.327 850.22c-9.197 1.654-27.28 14.675-35.029 19.326-2.17 1.343-4.547-1.964-3.514-5.064 4.03-12.815 13.64-35.447 30.483-36.79l8.06 22.528z" fill="#FFDB70"/><path d="M867.431 811.26c-14.053 2.997-25.316 12.815-25.316 12.815-1.137-10.955 7.13-16.432 7.13-16.432-10.54-.207-25.936 15.708-25.936 15.708.103-6.407 2.893-11.884 6.096-16.121 10.643-.931 23.25-.104 38.026 4.03zM860.095 828.828c-1.034-8.784 5.993-14.261 10.126-16.845 1.24.31 2.48.724 3.72 1.137 5.89 1.86 11.16 3.721 15.913 5.374-17.876-1.343-29.759 10.334-29.759 10.334zM897.086 821.181c-7.75 3.41-14.673 10.334-14.673 10.334-1.137-8.06 6.407-12.091 7.853-12.814 2.48.826 4.754 1.653 6.82 2.48z" fill="#F2CD13"/><path d="M810.66 830.7c2.957-2.242 3.816-6.086 1.92-8.588-1.896-2.501-5.83-2.712-8.786-.471-2.956 2.241-3.815 6.086-1.919 8.587 1.896 2.502 5.829 2.713 8.785.472z" fill="#332F2E"/><path d="M805.535 831.309c1.313 0 2.376-1.065 2.376-2.377 0-1.313-1.063-2.377-2.376-2.377s-2.377 1.064-2.377 2.377c0 1.312 1.064 2.377 2.377 2.377z" fill="#fff"/><circle opacity=".2" cx="984" cy="968" r="14" fill="#fff"/><circle opacity=".2" cx="949.5" cy="913.5" r="7.5" fill="#fff"/><circle opacity=".2" cx="878" cy="1000" r="12" fill="#fff"/><circle opacity=".2" cx="1067" cy="1011" r="4" fill="#fff"/><circle opacity=".2" cx="1177" cy="716" r="8" fill="#fff"/><circle opacity=".2" cx="1114.5" cy="734.5" r="4.5" fill="#fff"/><circle opacity=".2" cx="1146" cy="632" r="4" fill="#fff"/><circle opacity=".2" cx="1220.5" cy="902.5" r="3.5" fill="#fff"/><circle opacity=".2" cx="1236" cy="931" r="6" fill="#fff"/><circle opacity=".2" cx="1257" cy="906" r="9" fill="#fff"/><circle opacity=".2" cx="1320" cy="783" r="14" fill="#fff"/><circle opacity=".2" cx="1280" cy="731" r="14" fill="#fff"/><circle opacity=".2" cx="1303.5" cy="839.5" r="6.5" fill="#fff"/><circle opacity=".2" cx="1216.5" cy="662.5" r="6.5" fill="#fff"/><circle opacity=".3" cx="344.5" cy="287.5" r="20.5" stroke="#fff" stroke-width="6"/><circle opacity=".3" cx="427.5" cy="121.5" r="11.5" stroke="#fff" stroke-width="6"/><circle opacity=".3" cx="433" cy="245" r="33" fill="#fff"/></g><defs><linearGradient id="paint1_linear" x1="539.44" y1="-297.979" x2="730.863" y2="208.095" gradientUnits="userSpaceOnUse"><stop stop-color="#fff" stop-opacity=".2"/><stop offset="1" stop-color="#fff" stop-opacity="0"/></linearGradient><linearGradient id="paint2_linear" x1="1253.19" y1="-263.185" x2="1426.74" y2="195.63" gradientUnits="userSpaceOnUse"><stop stop-color="#fff" stop-opacity=".2"/><stop offset="1" stop-color="#fff" stop-opacity="0"/></linearGradient><linearGradient id="paint3_linear" x1="1388.3" y1="-255.453" x2="1557.88" y2="192.86" gradientUnits="userSpaceOnUse"><stop stop-color="#fff" stop-opacity=".2"/><stop offset="1" stop-color="#fff" stop-opacity="0"/></linearGradient><linearGradient id="paint4_linear" x1="214.937" y1="-263.185" x2="388.483" y2="195.63" gradientUnits="userSpaceOnUse"><stop stop-color="#fff" stop-opacity=".2"/><stop offset="1" stop-color="#fff" stop-opacity="0"/></linearGradient><linearGradient id="paint5_linear" x1="-463.544" y1="-309.577" x2="-266.162" y2="212.25" gradientUnits="userSpaceOnUse"><stop stop-color="#fff" stop-opacity=".2"/><stop offset="1" stop-color="#fff" stop-opacity="0"/></linearGradient><linearGradient id="paint6_linear" x1="-278.482" y1="-309.577" x2="-81.1003" y2="212.25" gradientUnits="userSpaceOnUse"><stop stop-color="#fff" stop-opacity=".2"/><stop offset="1" stop-color="#fff" stop-opacity="0"/></linearGradient><linearGradient id="paint7_linear" x1="671.627" y1="-297.979" x2="863.05" y2="208.095" gradientUnits="userSpaceOnUse"><stop stop-color="#fff" stop-opacity=".3"/><stop offset="1" stop-color="#fff" stop-opacity="0"/></linearGradient><radialGradient id="paint0_radial" cx="0" cy="0" r="1" gradientUnits="userSpaceOnUse" gradientTransform="matrix(1334.4 0 0 1761.75 -235.898 -26.1756)"><stop stop-color="#9D87F5"/><stop offset=".08201" stop-color="#8D67F1"/><stop offset=".1811" stop-color="#7E48ED"/><stop offset=".2895" stop-color="#722EEA"/><stop offset=".4089" stop-color="#681AE7"/><stop offset=".5449" stop-color="#610CE5"/><stop offset=".7118" stop-color="#5D03E4"/><stop offset="1" stop-color="#5C01E4"/></radialGradient><clipPath id="clip0"><path fill="#fff" d="M0 0h1440v1024H0z"/></clipPath></defs></svg>