<svg width="1440" height="1024" fill="none" xmlns="http://www.w3.org/2000/svg"><g clip-path="url(#clip0)"><path fill="#1B0243" d="M0 0h1440v1024H0z"/><g clip-path="url(#clip1)"><path d="M1458.02-21H-19.9805v1162.1H1458.02V-21z" fill="#3A058D"/><path d="M1542.63 308.79l-101.97 23-50.29 185.62-25.39-75.52-5.99 42.87-23.98 7.38-25.64 72.44-4-27.57-13.95-12.25-16.74 31.62-78.86-118.81-75.49 88.11-10.95-8.32-76.55 48.36-27.07-9.31-17.55 64.81-96.23-41.81-8.52 13.66-9.679.21-15.651 15.55-102.959-20.11-19.77 17.8-11.1-3.34-15.071 21.89-87.16-28.26-14.75 14.22-18.38-24.08-10.49 7.14-24.99-17.58-15.13 9.7-58.11-47.4-54.909 22.26-25.941-13.97-32.67 15.89-12.21-7.94-22.54 10.88-15.22-9.1-50.26 25.18-20.159-23.16-14.091 3.41-17.61-16.08-1.74 17.56-33.29-74.8-21.7 44-35.44-124.53-17.87 69.71-18.6695-57.6-23.13 24.49-30.84-84.7-35.99996 34.01-18.31004-10.93-23.24 11.04-43.9-33.62v674.6H1542.63V308.79z" fill="#4900B8"/><path d="M86.7188 421.29c-1.1 2.82-2.37 5.49-3.62 8.17l-1.95 3.95-2.02 3.89c-1.33 2.61-2.7901 5.09-4.1801 7.64l-4.3699 7.46-4.69 7.99-13.25-11.74c-6.36-5.64-11.2601-11.8-15.1901-18.33-3.92-6.54-6.8399-13.45-8.9099-20.7-2.05-7.25-3.1799-14.86-3.1099-22.92.03-2.02.1299-4.07.3199-6.15.25-2.11.47-4.2.89-6.36.16-1.07.4299-2.17.6799-3.27.22-1.08.5602-2.22.8602-3.34.33-1.13.6899-2.25 1.1199-3.43.22-.58.42-1.16.68-1.75.23-.64.5299-1.28.8399-1.86l2.2001-.47.4299 1.22.5101 1.3 1.02 2.61 2.0899 5.22c1.42 3.48 2.7501 6.99 4.1401 10.47 2.81 6.97 5.4 14.02 8.08 21.04 2.71 7.01 5.18 14.1 7.74 21.17 2.59 7.05 4.92 14.21 7.31 21.34l-2.82-.59c7.85-8.04 15.6401-16.12 23.5401-24.11l1.6599 1.55zM1093.65 528.22c-1.95 1.14-3.69 2.56-5.38 4.09-1.69 1.53-3.38 3.15-5.19 4.71l-.2.13c-4.12 2.67-8.17 5.44-12.19 8.28l-12.1 8.51c-4.05 2.85-8.14 5.69-12.33 8.44-4.19 2.75-8.46 5.45-12.89 7.9l-1.78.98-2.41-.76c-3.84-1.22-8.17-2.01-12.77-3.17-4.58-1.15-9.5-2.76-14.12-5.42l9.61-3.37c-.43 1.47-.83 2.94-1.13 4.3-.15.66-.27 1.34-.31 1.77-.02.18 0 .42.03.03v-.23l-.01-.16-.02-.23c-.01-.11-.03-.21-.05-.32l-.03-.16-.07-.29c-.05-.2-.12-.4-.19-.6-.02-.06-.11-.28-.19-.45-.08-.18-.18-.36-.28-.53-.1-.18-.2-.33-.33-.51-.2-.28-.42-.54-.66-.79-.24-.25-.51-.48-.78-.68-.28-.21-.71-.49-1.11-.67-.41-.2-.84-.35-1.27-.46-.39-.1-.76-.16-1.16-.19-.39-.03-.79-.02-1.17.02-.31.03-.5.06-.76.12-.45.09-1.05.32-1.21.39-.25.11-.5.23-.74.38-.17.1-.27.17-.41.26l-.31.24c-.59.49-.64.62-.72.69-.06.06-.07.06-.05.02l.16-.42c.14-.37.27-.82.32-1.16.07-.32.03-.63-.02-.26 0 .21-.04.58.28 1.47.16.4.45.98.89 1.49.45.54 1.03 1.03 1.64 1.35l10.36-3.71c-3.68 10.07-6.4 20.55-8.64 31.27-2.25 10.73-4.05 21.7-6.11 32.86l-2.08 11.26-11.34-4.24c-2.33-.87-4.65-1.77-7.01-2.71-1.18-.47-2.37-.95-3.6-1.47-.62-.26-1.25-.54-1.96-.86-.36-.17-.73-.34-1.22-.6-.26-.14-.53-.28-1.02-.58l-.49-.33-.35-.25c-.18-.14-.35-.27-.53-.42-.16-.13-.31-.27-.46-.42-.16-.16-.23-.21-.6-.62-.15-.17-.29-.34-.43-.51l-.2-.27-.26-.38c-.31-.47-.59-.98-.82-1.51-.12-.26-.22-.53-.32-.8-.05-.12-.25-.72-.4-1.51-.27-1.43-.22-3.01.13-4.36.35-1.52 1.28-3.33 2.51-4.6.69-.72 1.25-1.14 1.46-1.28.33-.24.68-.46 1.05-.67.36-.2.74-.38 1.12-.54.32-.14.92-.33.96-.34.6-.18 1.23-.31 1.85-.37.33-.04.57-.05.87-.06 1-.01 1.29.04 1.64.08.28.03.52.07.68.1.36.06.55.11.76.15l.9.22 1.26.36c.75.23 1.43.44 2.09.67 1.33.45 2.61.91 3.91 1.41 1.3.51 2.6 1.04 4.05 1.72.73.35 1.48.72 2.45 1.29.5.3 1.03.62 1.85 1.26.42.34.91.72 1.68 1.57.17.18.43.5.64.79.11.15.27.37.4.56l.19.3.24.4c.17.3.28.51.46.91s.32.78.46 1.21c.17.54.3 1.1.38 1.66.1.68.14 1.42.11 2.13l-.63 14.73-14.08-5.31c-16.68-6.28-32.75-13.43-48.63-20.11l-5.93-2.54-5.81-2.44c-.92-.37-1.77-.76-2.75-1.12l-1.49-.54-1.66-.63c-2.24-.86-4.39-1.76-6.46-2.65-8.3-3.6-15.58-6.97-22.17-8.38l7.18-.33-1.27.45 6.16-4.47c.19-.22.09-.11-.12.44-.22.54-.53 1.47-1.02 2.81-.51 1.34-1.14 3.14-2.58 5.52-.73 1.18-1.7 2.51-3.01 3.81-1.3 1.3-2.96 2.53-4.73 3.42l-.78.39-.94.32c-1.92.65-3.78.96-5.27 1.1-1.49.14-2.64.13-3.39.15l-.85.02-.22.02c-.03.01-.06.01-.08.01-.02.02.35-.01.85-.16l2.39-1.07c-.4.27-.95.7-1.74 1.52-.79.81-1.77 1.98-3.04 3.48s-2.81 3.35-4.97 5.36c-2.14 1.98-5.04 4.12-8.5 5.6l-3.69 1.58-4.03-.69c-17.22-2.94-34.52-5.86-51.85-9.03-8.67-1.59-17.34-3.24-26.01-4.99-8.67-1.76-17.36-3.58-26.01-5.62l13.8-4.37c-2.09 2.32-4.36 4.85-6.99 7.41-2.64 2.56-5.63 5.19-9.39 7.61-3.73 2.39-8.43 4.63-13.98 5.46-2.75.42-5.64.46-8.41.11-2.78-.34-5.41-1.05-7.81-1.98l11.24-.54c.65-.33 1.22-.74 1.61-1.09.4-.36.63-.65.76-.82.24-.35.09-.2-.13.3-.23.49-.55 1.3-.95 2.35-.41 1.06-.89 2.37-1.67 4.05-.41.89-.84 1.71-1.3 2.51-.46.81-.96 1.61-1.5 2.4-1.07 1.58-2.31 3.09-3.67 4.49-2.72 2.8-5.95 5.07-9.23 6.69l-5.2 2.57-5.33-1.82c-4.7-1.6-8.97-3.24-13.25-4.87l-12.67-4.85c-8.38-3.19-16.71-6.29-25.01-9.07-8.28-2.73-16.57-5.41-24.49-7.08-.99-.22-1.96-.4-2.93-.58-.49-.1-.95-.16-1.43-.24-.4-.07-1.26-.19-.7-.14.5.04 1.69-.05 2.77-.53.53-.22.99-.51 1.3-.76.31-.24.49-.43.56-.51.13-.16-.12.09-.51.72-.42.63-.96 1.6-1.88 3.03-.47.71-1.05 1.58-1.9 2.61-.87 1.03-2.01 2.3-3.92 3.63-1.84 1.31-4.73 2.56-7.62 2.83-1.44.15-2.79.09-4.01-.07-1.23-.17-2.24-.44-3.18-.75l1.57.42c-2.47-.54-3.8-1.29-4.87-1.89-1.05-.62-1.8-1.18-2.39-1.67-1.22-1-2-1.8-2.71-2.56-1.38-1.5-2.38-2.78-3.32-4.01-1.85-2.45-3.39-4.7-4.88-6.84-1.48-2.12-2.91-4.15-4.17-5.76-.61-.78-1.22-1.47-1.45-1.71-.09-.12-.09-.07.5.26.34.18.83.45 1.83.74.96.27 2.68.61 4.89.17l.97-.23c.51-.15.97-.49.99-.55.02-.05-.26.17-.91 1.01-.35.43-.74.99-1.66 2.09l-.4.46-.53.56c-.18.19-.47.46-.71.68-.11.1-.28.25-.47.4l-.54.43c-.15.12-.44.32-.7.49-.26.17-.53.34-.8.5-.31.18-.73.39-1.1.56-.41.18-.7.32-1.27.51-.52.17-1.05.32-1.58.43-.5.11-1.22.2-1.83.24-1.27.09-2.57-.04-3.83-.34-.62-.15-1.22-.35-1.82-.59-.3-.12-.59-.25-.87-.39l-.39-.2-.05-.03-.4-.24-.8-.5-.8-.51-.39-.26-.3-.22c-.8-.59-1.65-1.22-2.3-1.82-2.81-2.42-4.88-4.71-6.8-6.82-1.9-2.12-3.59-4.08-5.15-5.7-.38-.39-.78-.82-1.13-1.14l-.54-.53-.5-.45c-.34-.33-.62-.53-.89-.76-.17-.15-.2-.16-.25-.2-.02-.02-.04-.04-.06-.07l-.03-.04c-.01-.01-.03-.04.04.01.17.11.45.18.54.22.06.02.13.03.2.04.08.03.16.04.25.05.34.06.77.06 1.13.03.77-.1 1.1-.35.93-.29-.15.04-.64.34-1.25.86-.61.5-1.33 1.21-2.11 2.03-.78.82-1.61 1.76-2.55 2.81-.94 1.05-1.97 2.21-3.36 3.56l-7.11 6.95-7.38-6.15c-2.72-2.27-5.13-4.74-7.12-6.85-2-2.12-3.69-3.88-5.38-5.33l-13.32-11.07c-8.93-7.57-17.81-15.46-26.29-23.85l.47.4c-.2-.18.18-.15-.2-.28-.36-.1-1.45 0-2.86.42-.71.2-1.49.47-2.36.79l-1.37.5-.61.22-.62.25-5.43 2.16c-3.71 1.46-7.48 2.91-11.34 4.22-3.87 1.3-7.81 2.48-11.81 3.49l1.1-.43c-3.25 1.4-6.61 3.34-10.68 5.22-2.71 1.26-5.73 1.84-8.74 1.67-3.01-.18-5.76-1.13-7.99-2.3-4.49-2.38-7.54-5.31-10.51-7.76-2.93-2.46-5.66-4.61-8.34-5.57l3.38-.4c-5.34 2.51-10.66 5.63-16.35 8.43-2.85 1.4-5.79 2.71-8.87 3.77-3.07 1.07-6.3 1.82-9.57 2.17l-1.1.12-.63-.49c-3.32-2.55-6.38-5.22-9.55-7.67l.38.19c-1.16-.52-2.92-.33-4.6.18-1.7.51-3.4 1.3-5.07 2.15l-.82-1.34c1.64-.99 3.32-1.95 5.16-2.68.92-.36 1.88-.66 2.91-.81 1.02-.15 2.12-.14 3.18.2l.1.03.1.06c3.42 2.28 6.67 4.73 10.02 6.97l-.62-.13c5.94-1 11.51-3.59 16.8-6.59 5.31-3 10.43-6.43 15.87-9.42l.35-.19.38.11c4.09 1.14 7.47 3.59 10.65 5.97 3.18 2.39 6.23 4.93 9.65 6.54 1.7.8 3.49 1.31 5.3 1.36 1.8.04 3.61-.37 5.22-1.19 3.45-1.77 6.81-3.94 10.42-5.75l.09-.04.1-.03c7.44-2.26 14.67-5.21 21.83-8.34l5.38-2.38c1.84-.78 3.61-1.53 5.55-2.21 1.92-.65 3.97-1.19 6.17-1.15 2.19.02 4.45.84 6.16 2.23l.04.03.03.03c8.5 7.83 17.44 15.17 26.53 22.35l13.69 10.75c4.68 3.75 8.34 8.31 12.77 11.79l-1.72.1c1.8-1.83 3.47-3.99 5.31-6.03 1.84-2.03 3.81-4.09 6.4-5.58 1.29-.73 2.78-1.3 4.38-1.39 1.61-.13 3.18.26 4.62.95 2.62 1.49 4.63 3.37 6.62 5.3 3.91 3.86 7.31 8.09 11.32 11.42.49.43 1.01.79 1.53 1.17.26.2.52.34.77.51l.39.25.19.12c.05.02-.06-.04-.09-.03-.09-.03-.22-.01-.25 0s0 0 .06-.04c.12-.09.31-.29.5-.51.38-.45.77-1 1.19-1.55.83-1.1 1.76-2.24 2.92-3.22 1.14-.98 2.53-1.77 4.03-2.2l.07-.02.04-.01c1.26-.21 2.14.25 2.84.63.7.41 1.28.88 1.81 1.36 1.06.96 1.98 1.98 2.86 3.02 1.75 2.08 3.33 4.22 4.9 6.36 1.57 2.13 3.12 4.27 4.74 6.31.81 1.02 1.63 2.01 2.5 2.91.43.45.87.87 1.32 1.22.42.35.92.63 1.13.66l.05.01.12.04c.82.26 1.37.21 1.98-.22.63-.43 1.25-1.26 1.82-2.15 1.16-1.81 2.19-3.95 3.91-5.84.86-.94 1.94-1.8 3.22-2.33 1.27-.54 2.68-.71 3.98-.6.68.05 1.21.16 1.79.24.57.09 1.14.16 1.7.27 1.13.2 2.26.39 3.38.63 8.98 1.81 17.69 4.46 26.32 7.29 8.63 2.85 17.14 5.98 25.62 9.16 8.48 3.16 16.92 6.52 25.41 9.41l-1.14.08c1.89-.94 3.6-2.18 5.05-3.68 1.45-1.49 2.63-3.27 3.51-5.17.88-1.92 1.55-4.11 2.52-6.29.49-1.09 1.06-2.19 1.84-3.24.77-1.04 1.8-2.02 3.07-2.66l.6-.3.63.24c2.67 1.02 5.51 1.4 8.29.95 2.78-.42 5.45-1.63 7.9-3.21 2.46-1.59 4.72-3.56 6.87-5.67 2.15-2.11 4.18-4.38 6.22-6.69l.62-.7.91.22c33.99 8.02 68.45 13.98 102.89 20.09l-.83.1c3.17-1.33 5.66-4.05 8.13-6.9 1.25-1.43 2.51-2.91 3.94-4.29 1.42-1.39 3.01-2.68 4.8-3.7l.12-.07.13-.04c1.72-.57 3.45-.57 4.95-.57 1.52.01 2.87-.02 4.05-.42l-.19.08c.79-.39 1.42-1.04 1.96-1.9.54-.85.96-1.88 1.37-2.95.83-2.14 1.58-4.57 3.19-6.73l.26-.35.41-.14 1.27-.43.39-.13.39.1c8.69 2.12 16.6 6.11 24.48 9.64 1.97.89 3.95 1.75 5.95 2.56.99.41 2.01.79 3.03 1.18 1.02.39 2.02.86 3.03 1.29 4.02 1.75 7.98 3.52 11.95 5.32 15.86 7.19 31.55 14.69 47.62 21.24l-1.77 1.13c0 .3.08.42.1.47.03.05.04.05.02.04-.02-.03-.09-.09-.18-.16-.17-.14-.39-.29-.63-.43-.47-.29-.99-.56-1.51-.82-1.06-.53-2.16-1.01-3.27-1.47-1.11-.46-2.24-.9-3.37-1.31-.57-.2-1.13-.4-1.7-.59l-.83-.26-.39-.1-.16-.03c-.03-.01-.11-.01.03-.01l.07-.01c.07-.01.13-.02.2-.04.04-.01.17-.06.24-.1.04-.02.08-.05.12-.08.02-.02.09-.07.17-.15.15-.15.26-.37.3-.55.04-.16.05-.35.02-.52-.05-.21-.05-.18-.08-.27-.03-.06-.06-.12-.09-.17-.04-.06-.06-.08-.09-.12-.06-.07-.05-.06-.08-.08-.04-.03.01.01.04.03l.32.19.77.39 1.63.76 3.34 1.47c2.24.96 4.5 1.9 6.76 2.83l-1.7.89c2.44-10.92 4.68-21.92 7.41-32.82 2.73-10.9 5.96-21.73 10.28-32.16l.49-1.19 1.15.6c.61.32 1.09.92 1.31 1.49.24.57.29 1.11.3 1.61.01 1-.18 1.88-.42 2.73-.25.85-.56 1.66-.94 2.45-.19.39-.4.78-.64 1.17-.26.4-.47.76-1 1.22-.16.11-.29.26-.74.38-.09.02-.23.04-.4.03-.15-.01-.32-.05-.48-.13-.18-.08-.28-.17-.38-.27-.05-.05-.1-.11-.14-.16l-.08-.12c-.2-.36-.19-.53-.23-.72-.02-.17-.03-.32-.02-.45.01-.53.08-.96.16-1.4.16-.86.37-1.66.59-2.46.45-1.59.97-3.14 1.51-4.68l.46-1.33 1.18.75c3.69 2.34 7.81 3.94 12.07 5.22 4.25 1.31 8.66 2.34 12.96 3.95l-.82.04c17.62-8.7 33.7-20.28 51.05-29.81l-.09.06c1.84-1.37 3.6-2.86 5.46-4.3 1.85-1.44 3.83-2.8 5.99-3.84l.69 1.31zM1336.37 492.32c.41 1 .7 1.96 1 2.92.31.96.62 1.93.84 2.86.26.95.47 1.88.67 2.8.21.93.4 1.85.55 2.75.69 3.66 1.02 7.19 1.25 10.68.35 6.95-.04 13.64-1.05 20.1-1.06 6.44-2.65 12.7-4.75 18.78-.5 1.53-1.15 3-1.72 4.51-.58 1.5-1.15 3-1.87 4.45l-2.05 4.39-2.32 4.29-26.93 49.86-8.9-52.56c-.61-3.6-1.25-7.19-1.82-10.8l-1.75-10.81-3.5-21.62 17.38 14-19.51.05 16.23-13.62-4.09 17.04-2.04 8.52c-.67 2.84-1.39 5.68-2.09 8.51l-9.2 37.22-18.91-31.67-9.15-15.32c-3.06-5.1-6.1-10.21-9.09-15.36-6.01-10.27-12.06-20.52-17.96-30.87-2.96-5.17-5.95-10.31-8.88-15.5l-8.78-15.57c-5.8-10.41-11.6-20.83-17.26-31.33l9.88.61c-2.93 2.86-5.85 5.72-8.81 8.55-2.96 2.83-5.88 5.69-8.87 8.5l-8.96 8.42c-2.97 2.82-5.99 5.6-9.03 8.36l-1.71-1.46 31.62-37.31 1.18-1.39 1.02 1.53c13.23 19.75 26.54 39.44 39.7 59.23l39.54 59.34-3.34.66 6.76-34.37.3-1.5 1.53-.04 19.5-.45 1.62-.04.31 1.59 8.45 42.97-3.86-.29 6.27-18.23 6.72-18.07 6.72-18.07c.57-1.5 1.11-3.02 1.69-4.51l1.79-4.48 3.58-8.96 2.1.71zM1542.89 309.89c-3.86 2.45-7.77 4.68-11.71 6.79-3.94 2.12-7.9 4.14-11.88 6.06-7.96 3.86-15.99 7.45-24.09 10.75l-6.07 2.48-6.11 2.34-6.11 2.32-6.14 2.18-6.14 2.17-6.18 2.03-6.18 2.03c-2.06.67-4.14 1.27-6.21 1.9l13.78-13.26c-.86 3.91-1.61 7.84-2.55 11.73l-2.78 11.67c-.92 3.89-2.02 7.73-3.02 11.6-1.03 3.86-2.01 7.73-3.17 11.56l-3.35 11.51c-1.16 3.82-2.41 7.62-3.61 11.44l-1.82 5.71-1.96 5.68-1.96 5.68-.98 2.84-1.05 2.82c-5.44 15.07-11.56 29.96-18.39 44.64-3.5 7.32-7.04 14.63-10.98 21.82-.95 1.81-1.96 3.6-2.98 5.39l-1.52 2.69-1.58 2.67c-2.1 3.56-4.3 7.1-6.7 10.58l-2.16-.6 6.08-23.19c2.02-7.73 4.05-15.46 6.14-23.17l6.23-23.15c2.06-7.72 4.16-15.43 6.29-23.13l12.72-46.22 12.95-46.16.34-1.22 1.22-.28c8.42-1.95 16.82-3.97 25.25-5.87l25.27-5.76 12.64-2.88 12.65-2.8 25.31-5.59.51 2.2z" fill="#7000FF"/><path d="M1423.02 624.6c-59-20-200-20-260-6-43.9 10.24-158.61 16.18-204.03 14.91-66.451-1.86-99.92 9.39-162.97 23.09-37.11 8.06-90.7 4.78-129 10-34.97 4.76-116.3-14.93-151-13-144 8-172.91-16.19-244.1-14.24-87.99 2.41-124.9 25.24-291.9005-8.76" fill="#5C01E4"/><path d="M1614.88 677.31c-36.71-.64-60.34-6.63-60.34-6.63s-29.71-6.1-60.34-6.63c-30.63-.53-84.35 9.67-121.07 9.02-36.72-.65-60.32-6.63-60.32-6.63s-29.7-6.1-60.31-6.63c-30.63-.54-84.3 9.66-121.02 9.02-36.71-.64-60.23-6.63-60.23-6.63s-29.52-6.09-60.14-6.63c-30.63-.54-83.96 9.67-120.66 9.03-36.71-.64-59.54-6.62-59.54-6.62s-30.53-6.11-61.14-6.65c-30.63-.54-85.15 9.65-121.87 9.01-36.71-.64-60.34-6.63-60.34-6.63s-29.71-6.1-60.34-6.63c-30.63-.54-84.35 9.67-121.07 9.02-36.71-.64-60.32-6.64-60.32-6.64s-29.7-6.1-60.3-6.63c-30.63-.54-84.31 9.66-121.03 9.02-36.72-.64-60.22-6.63-60.22-6.63s-29.5202-6.09-60.1402-6.63c-30.63-.54-84.2401 9.67-120.95 9.03-36.7098-.64-254.7998-5.33-254.7998-5.33l-.3-45.32s219.18 4.67 255.8998 5.32c36.71.64 90.1801-9.56 120.8101-9.03 30.63.53 60.2001 6.63 60.2001 6.63s23.56 5.99 60.27 6.63c36.71.64 90.41-9.56 121.04-9.02 30.63.54 60.32 6.63 60.32 6.63s23.63 5.99 60.32 6.63c36.7.64 90.44-9.56 121.07-9.02 30.63.54 60.34 6.63 60.34 6.63s23.62 5.99 60.34 6.63c36.71.64 91.25-9.54 121.87-9.01 30.63.54 61.14 6.65 61.14 6.65s22.82 5.98 59.54 6.62c36.72.64 90.05-9.56 120.66-9.03 30.63.54 60.14 6.63 60.14 6.63s23.53 5.99 60.23 6.63c36.7.64 90.39-9.56 121.02-9.02 30.63.54 60.31 6.63 60.31 6.63s23.62 5.99 60.32 6.63c36.7.64 90.44-9.56 121.07-9.02 30.63.54 60.34 6.63 60.34 6.63s23.62 5.99 60.34 6.63c36.71.64 90.97-9.55 121.58-9.01 30.63.54 60.85 6.64 60.85 6.64l-.79 45.33s-30.24-6.11-60.85-6.64c-30.62-.54-84.89 9.67-121.59 9.02z" fill="#3A058D"/><path d="M1947.94 672.12c-14.62-38.62-62.15-63.82-100.57-56.77-38.42 7.05-75.38 25.84-114.32 24.05-56.98-2.63-112.21-49.01-166.27-29.6-31.81 11.42-54.95 43.95-87.79 51.34-29.98 6.75-59.76-9.05-88.93-19.04-79.03-27.05-164.73-11.96-246.08 5.58-81.35 17.54-21.72 24.44-246.451 24.44" fill="#3A058D"/><path d="M-331.61 661.73s244.3097 5.57 281.0297 5.57 90-11.14 120.63-11.14c30.6303 0 60.3103 5.58 60.3103 5.58s23.66 5.58 60.38 5.58 90.23-11.14 120.86-11.14c30.63 0 60.43 5.58 60.43 5.58s23.73 5.57 60.43 5.57c36.71 0 90.26-11.13 120.89-11.13 30.63 0 60.45 5.58 60.45 5.58s23.72 5.58 60.44 5.58 91.08-11.14 121.69-11.14c30.63 0 61.24 5.58 61.24 5.58s22.92 5.57 59.64 5.57 89.86-11.13 120.48-11.13c30.63 0 60.25 5.58 60.25 5.58s23.63 5.58 60.34 5.58c36.71 0 90.21-11.14 120.84-11.14 30.63 0 60.41 5.58 60.41 5.58s23.72 5.57 60.43 5.57 90.26-11.13 120.89-11.13c30.63 0 60.44 5.58 60.44 5.58s23.72 5.58 60.44 5.58 90.79-11.14 121.4-11.14c30.63 0 60.96 5.58 60.96 5.58v43.29h-2155.3v-43.44z" fill="url(#paint0_linear)"/><path d="M-249.75 709.73s244.31003-3.89 281.03-3.89c36.72 0 90 7.77 120.63 7.77 30.63 0 60.31-3.89 60.31-3.89s23.66-3.89 60.38-3.89 90.23 7.77 120.86 7.77c30.63 0 60.43-3.89 60.43-3.89s23.73-3.89 60.43-3.89c36.71 0 90.26 7.77 120.89 7.77 30.63 0 60.45-3.89 60.45-3.89s23.72-3.89 60.44-3.89 91.07 7.77 121.69 7.77c30.63 0 61.25-3.89 61.25-3.89s22.92-3.89 59.64-3.89 89.86 7.77 120.48 7.77c30.63 0 60.25-3.89 60.25-3.89s23.63-3.89 60.34-3.89c36.71 0 90.21 7.77 120.84 7.77 30.63 0 60.41-3.89 60.41-3.89s23.72-3.89 60.43-3.89 90.26 7.77 120.89 7.77c30.63 0 60.44-3.89 60.44-3.89s23.72-3.89 60.44-3.89 90.79 7.77 121.4 7.77c30.63 0 60.96-3.89 60.96-3.89v-30.21H-249.75v30.29zM1204.19 670.56c0-9.58-7.76-17.34-17.34-17.34s-17.34 7.76-17.34 17.34M1257.38 661.89c0-9.67-7.84-17.51-17.51-17.51-9.67 0-17.51 7.84-17.51 17.51" fill="#5C01E4"/><path d="M1224.88 664.96c0-6-4.86-10.86-10.86-10.86-6 0-10.86 4.86-10.86 10.86" fill="#5C01E4"/><path d="M623.11 791.92s86.75 61.37 146.96 71.07c47.27 7.61-124.86 110.3-206.43 16.97-27.62-31.6 59.47-88.04 59.47-88.04z" fill="#2297CC"/><path d="M267.74 740.19c23.52.96 81.29 12.33 250.69-111.06 144.56-108.3 224.41-40.65 259.6-3.43 35.19 37.22 59.03 179.74-132.35 255.79C454.3 957.54 349 958.23 204.77 912.98c-149.7996-47-265.0295-187.52-240.7095-228.92C-8.66953 637.65 137.86 734.89 267.74 740.19z" fill="#28B6F6"/><path d="M566.351 838.33s54.23 91.39 105.27 124.77c40.07 26.21-158.97 49.87-195.44-68.59-12.35-40.11 90.17-56.18 90.17-56.18z" fill="#28B6F6"/><path d="M658.5 617.45c12.979 0 23.5-10.521 23.5-23.5s-10.521-23.5-23.5-23.5-23.5 10.521-23.5 23.5 10.521 23.5 23.5 23.5zM579.539 740.43c5.247 0 9.5-4.253 9.5-9.5s-4.253-9.5-9.5-9.5-9.5 4.253-9.5 9.5 4.253 9.5 9.5 9.5zM132.58 759.37c5.247 0 9.5-4.253 9.5-9.5s-4.253-9.5-9.5-9.5-9.5 4.253-9.5 9.5 4.253 9.5 9.5 9.5zM613.561 630.25c5.246 0 9.5-4.253 9.5-9.5s-4.254-9.5-9.5-9.5c-5.247 0-9.5 4.253-9.5 9.5s4.253 9.5 9.5 9.5zM764.029 647.87c8.561 0 15.5-6.94 15.5-15.5 0-8.56-6.939-15.5-15.5-15.5-8.56 0-15.5 6.94-15.5 15.5 0 8.56 6.94 15.5 15.5 15.5zM418.9 726.62c8.285 0 15-6.716 15-15 0-8.284-6.715-15-15-15-8.284 0-15 6.716-15 15 0 8.284 6.716 15 15 15zM48.8105 708.1c6.9036 0 12.5-5.596 12.5-12.5s-5.5964-12.5-12.5-12.5c-6.9035 0-12.5 5.596-12.5 12.5s5.5965 12.5 12.5 12.5z" fill="#2297CC"/><path d="M743.46 665.63c-10.61-4.58-22.93.33-27.48 10.88-4.55 10.55.37 22.87 10.97 27.45 10.61 4.58 22.93-.33 27.48-10.88 4.55-10.54-.36-22.86-10.97-27.45z" fill="#231F20"/><path d="M750.749 691.36c-4.55 10.56-15.19 16.11-23.77 12.42-8.58-3.7-11.85-15.25-7.3-25.81 4.55-10.56 15.19-16.11 23.77-12.42 8.58 3.7 11.85 15.26 7.3 25.81z" fill="#231F20"/><path opacity=".3" d="M738.261 679.85c5.58 3.03 17.57 4.3 10.37 13.83-7.21 9.53-13.81 5.69-19.39 2.66-5.58-3.03-8.02-9.17-5.55-13.75 2.48-4.58 8.99-5.77 14.57-2.74z" fill="#29B6F6"/><path d="M733.2 677.09c-1.1 2.55-4.08 3.71-6.67 2.6-2.59-1.11-3.79-4.08-2.69-6.63s4.08-3.71 6.67-2.6c2.58 1.11 3.79 4.08 2.69 6.63z" fill="#fff"/><path d="M798.44 732.88s-15.2 10.29-36.54-5" stroke="#231F20" stroke-width="5.0509" stroke-miterlimit="10" stroke-linecap="round"/><path d="M735 594.85l39.29-40.84c21.2-21.97 46.34-39.79 74.12-52.49 32.58-14.87 61.48-36.75 84.58-64.03l8.69-10.31c6.91-8.19 28.48-24.87 50.61-41.1 4.59-3.37 10.05 3.07 5.89 7-21.86 20.73-43.79 42.43-50.15 51.96l-13.82 20.37c-20.02 29.65-46.15 54.77-76.58 73.7-25.98 16.18-48.8 36.91-67.38 61.21l-19.62 25.79c-2.48 3.24-5.85 5.81-9.7 7.31-9.05 3.55-19.38.84-25.55-6.69l-1.46-1.79c-6.58-8.02-6.8-19.45-.5-27.72l1.58-2.37z" fill="#fff"/><path d="M879.209 497.45c-2.65-2.82-5.02-5.62-7.14-8.34-7.25 4.33-14.74 8.28-22.44 11.84 2.39 3.31 5.18 6.81 8.46 10.47 6.24 6.96 11.95 12.09 16.89 15.87 6.73-4.99 13.2-10.31 19.39-15.93-4.58-3.55-9.71-8.1-15.16-13.91zM792.059 565.58c-5.47-5.63-9.71-11.26-12.98-16.4-1.62 1.59-3.22 3.2-4.8 4.83l-16.4 17.05c3.29 4.55 7.53 9.53 12.99 14.69 7.18 6.78 13.71 11.46 19.28 14.69l.1-.13c5.59-7.31 11.57-14.3 17.9-20.94-4.88-3.39-10.34-7.88-16.09-13.79zM909.65 461.47c-5.19 4.64-10.57 9.06-16.14 13.24 1.41 1.65 2.91 3.34 4.53 5.07 5.25 5.6 10.08 10 14.39 13.46 4.62-5.13 9.03-10.44 13.22-15.93-3.16-2.73-6.54-5.86-10.11-9.48-2.11-2.16-4.07-4.28-5.89-6.36zM748.34 609.6c-5.39-5.09-9.65-10.28-12.99-15.11l-.35.36-1.58 2.36c-6.3 8.27-6.07 19.71.5 27.72l1.46 1.79c6.16 7.53 16.49 10.23 25.55 6.69 3.85-1.5 7.23-4.07 9.7-7.31l.21-.28c-6.35-3.24-14.13-8.31-22.5-16.22zM825.111 513.73c-8.07 4.8-15.85 10.06-23.31 15.76 3.11 4.54 7.09 9.53 12.19 14.77 6.06 6.24 11.65 10.86 16.56 14.3 6.57-5.41 13.42-10.48 20.52-15.21-4.25-3.47-8.92-7.83-13.8-13.28-5.08-5.67-9.06-11.26-12.16-16.34zM992.291 386.08c-3.87 2.84-7.72 5.69-11.48 8.51 1.35 1.23 2.77 2.49 4.26 3.77 1.38 1.19 2.72 2.32 4.02 3.4 3-2.89 6.039-5.79 9.089-8.67 4.16-3.94-1.299-10.38-5.889-7.01zM940.409 428.69l-7.42 8.8c-2.71 3.2-5.49 6.31-8.36 9.36 1.8 2.01 3.75 4.1 5.87 6.25 2.55 2.59 4.98 4.92 7.29 7.03l10.24-15.08c1.04-1.56 2.5-3.44 4.3-5.59-.98-.81-1.96-1.64-2.97-2.52-3.28-2.83-6.26-5.6-8.95-8.25zM967.11 405.03c-5.45 4.25-10.41 8.25-14.59 11.82 2.4 2.29 5.039 4.69 7.939 7.2 1.14.98 2.241 1.91 3.331 2.81 3.94-4.1 8.35-8.55 13.05-13.19-.95-.79-1.901-1.6-2.881-2.44-2.45-2.1-4.729-4.18-6.849-6.2z" fill="#fff"/><path d="M768.35 587.8c-5.46-5.16-8.71-10.53-10.47-16.73l-22.54 23.43c2.76 6.45 7.09 13.42 12.48 18.51 8.37 7.91 15.78 10.91 23.03 12.83l19.31-25.39c-3.84-.76-14.63-5.87-21.81-12.65zM812.57 546.51c-7.19-6.98-9.1-13.79-10.76-17.02-7.96 6.08-15.55 12.66-22.72 19.69 1.09 2.88 3.24 10.48 10.28 17.48 5.84 5.81 15.42 11.37 18.79 12.71 7.04-7.38 14.52-14.34 22.4-20.82-4.39-2.1-10.03-4.31-17.99-12.04zM859.699 515.63c-5.78-5.83-7.89-10.62-10.07-14.67-.41.19-.81.38-1.22.57-7.99 3.65-15.77 7.74-23.29 12.22 2.44 6.17 3.29 9.79 9.98 17.25 6.76 7.55 10.6 9.06 15.99 12.36 2.16-1.44 4.34-2.86 6.55-4.24 5.95-3.7 11.74-7.65 17.35-11.81-4.7-2.63-8.71-5.04-15.29-11.68zM893.51 474.71c-6.88 5.17-14.039 9.98-21.449 14.4 1.48 4.18 3.609 7.23 9.169 13.18 5.22 5.57 10.04 7.89 13.13 9.08 6.32-5.74 12.351-11.79 18.071-18.13-3.55-1.72-4.511-1.39-11.311-7.81-4.66-4.4-6.98-9.91-7.61-10.72zM924.63 446.84c-4.79 5.09-9.79 9.98-14.98 14.63 1.82 2.08 3.78 4.2 5.9 6.35 3.56 3.62 6.94 6.75 10.11 9.48 2.96-3.88 5.81-7.84 8.55-11.89l3.59-5.28c-2.31-2.11-4.74-4.44-7.29-7.03-2.13-2.16-4.08-4.24-5.88-6.26zM952.52 416.85c-4.83 4.13-8.61 7.67-10.84 10.32l-1.27 1.51c2.7 2.66 5.68 5.42 8.95 8.25 1.01.87 2 1.7 2.97 2.52 2.98-3.55 6.9-7.83 11.46-12.58-1.09-.9-2.19-1.83-3.33-2.81-2.9-2.51-5.54-4.92-7.94-7.21zM980.809 394.58c-4.77 3.57-9.38 7.08-13.69 10.45 2.12 2.02 4.4 4.1 6.84 6.21.98.84 1.94 1.65 2.88 2.44 3.93-3.88 8.05-7.89 12.25-11.93-1.31-1.08-2.65-2.21-4.02-3.4-1.49-1.28-2.91-2.54-4.26-3.77z" fill="#B71C1C"/><path d="M779.08 549.18c1.09 2.88 4.66 12.02 10.28 17.48 7.96 7.72 15.42 11.37 18.79 12.71" fill="#B71C1C"/><path d="M349.401 685.79c-41.92 65.54-57.89 67.02-109.68 28.2" stroke="#5E3930" stroke-width="38.8663" stroke-miterlimit="10" stroke-linecap="round"/><path d="M224.131 702.49c-21.39 40.24-3.37 85.54 26.1 13.58l-26.1-13.58z" fill="#5E3930"/><path d="M332.239 713.28c-17.81 75.73-32.38 82.43-94.12 62.98" stroke="#5E3930" stroke-width="38.8663" stroke-miterlimit="10" stroke-linecap="round"/><path d="M416.292 671.68c-20.45 19.47-36.411 2.84-75.351 4.52" stroke="#F9D232" stroke-width="162.85" stroke-miterlimit="10" stroke-linecap="round" stroke-dasharray="139.02 139.02"/><path d="M416.292 671.68c-20.45 19.47-36.411 2.84-75.351 4.52" stroke="#F9D232" stroke-width="162.85" stroke-miterlimit="10" stroke-linecap="round" stroke-dasharray="2.99 2.99"/><path d="M344.451 757.55c5.95-.25 10.89.6 18.37 1.89 10.98 1.89 26.03 4.48 43.8 2.51 21.52-2.39 41.08-10.66 58.25-24.63.4-.32.8-.65 1.21-.98.12-.1.24-.2.35-.3.08-.06.15-.13.23-.19.29-.25.58-.5.87-.74.26-.22.52-.45.79-.68.38-.34.77-.67 1.14-1.02.51-.45 1.01-.9 1.5-1.36.49-.45.99-.92 1.48-1.39 32.57-31.01 33.83-82.56 2.83-115.12-.8-.84-1.61-1.66-2.44-2.45-.33-.33-.67-.65-1.01-.97-.08-.07-.14-.13-.21-.2-.36-.33-.73-.66-1.09-.99-.84-.76-1.7-1.49-2.57-2.21-.39-.32-.78-.65-1.19-.96-.42-.34-.83-.66-1.26-.98-.94-.72-1.9-1.41-2.86-2.07-.47-.34-.96-.66-1.45-.98-.52-.35-1.04-.69-1.58-1.02l-.18-.12c-.4-.24-.79-.49-1.18-.72-.25-.15-.49-.3-.75-.45-1.43-.83-2.87-1.63-4.35-2.36-.37-.2-.75-.38-1.12-.56-.42-.21-.84-.4-1.26-.6-.48-.22-.95-.45-1.43-.65-.6-.27-1.2-.52-1.81-.78-.33-.13-.65-.26-.98-.39-.7-.29-1.4-.56-2.11-.81-.41-.16-.83-.31-1.26-.46-.98-.35-1.97-.66-2.97-.97-.45-.14-.89-.27-1.34-.39-2.87-.83-5.77-1.49-8.71-2-.53-.09-1.07-.18-1.6-.26-2.61-.4-5.24-.67-7.87-.81-.63-.04-1.25-.07-1.87-.08h-.07c-.64-.02-1.29-.03-1.94-.03-.64-.01-1.29 0-1.94.01-.56.01-1.11.02-1.66.04-5.91.22-11.81 1.08-17.57 2.59-.63.16-1.25.34-1.87.51-.41.11-.8.23-1.2.36-.36.1-.71.21-1.07.33-1.17.37-2.33.77-3.48 1.2-.58.21-1.13.42-1.69.64-.56.21-1.11.44-1.66.68-.75.31-1.5.64-2.24.98-11.32-1.78-26.4-3.56-45-2.75-44.92 1.94-79.78 39.93-77.84 84.86 1.94 44.92 39.93 79.77 84.86 77.83z" fill="#F8C329"/><path d="M492.32 643.09c3.25-35.69 68.67-39.59 30.7 23.28" stroke="#4E342E" stroke-width="38.8663" stroke-miterlimit="10" stroke-linecap="round"/><path d="M492.32 643.09c3.25-35.69 68.67-39.59 30.7 23.28" stroke="#FFE14D" stroke-width="39.6138" stroke-miterlimit="10" stroke-dasharray="171.91 171.91"/><path d="M492.32 643.09c3.25-35.69 68.67-39.59 30.7 23.28" stroke="#F8C329" stroke-width="39.6138" stroke-miterlimit="10" stroke-linecap="round"/><path d="M502.921 699.54l-3.9-12.34-12.73 2.29 20.09-33.27 33.27 20.1-20.1 33.27-3.89-12.35-12.74 2.3z" fill="#4E342E"/><path d="M506.569 653.902s14.897 29.367 35.579 23.576l-35.579-23.576z" fill="#6BB4FD"/><path d="M501.572 655.301c-.043-.163-.087-.331-.115-.499-.028-.168-.05-.338-.065-.504-.011-.168-.018-.343-.016-.51.005-.173.018-.338.037-.504.019-.167.048-.337.084-.503.036-.166.079-.329.134-.491.049-.159.109-.322.178-.477.068-.154.147-.312.229-.46.083-.147.177-.293.273-.434.098-.135.206-.275.312-.402.111-.128.23-.254.351-.369.122-.115.251-.226.381-.333.137-.103.276-.201.417-.293.141-.093.29-.177.446-.258.147-.072.307-.142.463-.206.156-.064.322-.113.484-.161.163-.043.331-.088.499-.116.163-.026.338-.05.504-.065.168-.011.343-.018.511-.011.174.005.337.014.51.036.166.019.336.048.503.084.166.036.329.079.49.133.16.05.323.11.478.178.154.069.31.143.459.23.148.082.294.177.435.273.135.097.273.2.401.312.127.106.254.229.369.351.115.122.227.251.335.386.101.132.204.269.294.417.092.14.177.29.256.441.073.152.142.307.206.463.123.319.216.648.276.983.028.168.05.337.068.509.01.168.015.338.01.511-.001.167-.018.338-.036.51-.018.166-.047.336-.085.497-.036.167-.079.33-.132.496-.05.16-.111.318-.18.472-.067.16-.142.311-.229.46-.083.148-.177.294-.273.434-.098.136-.201.273-.312.402-.106.127-.23.254-.351.369-.12.12-.256.228-.386.335-.131.106-.27.204-.415.299-.141.092-.29.176-.443.25-.152.074-.31.15-.463.206-.161.066-.321.119-.482.167-.163.043-.333.083-.501.11-.166.033-.338.05-.504.066-.167.015-.343.017-.51.015-.168-.006-.338-.018-.504-.037-.167-.019-.336-.048-.498-.086-.166-.036-.329-.078-.496-.131a5.8693 5.8693 0 01-.473-.185c-.155-.069-.311-.143-.46-.23-.148-.082-.292-.172-.434-.273-.136-.097-.273-.2-.402-.312-.129-.111-.254-.229-.369-.351-.115-.122-.227-.251-.333-.381-.101-.132-.206-.274-.299-.415-.087-.142-.172-.291-.251-.442-.073-.153-.144-.313-.207-.469-.073-.164-.126-.324-.169-.487zM509.659 659.425c2.257-1.772 5.524-1.376 7.292.888 1.767 2.258 1.371 5.525-.889 7.287-2.257 1.771-5.526 1.37-7.287-.89l-.005.002c-.43-.549-.732-1.163-.916-1.8-.546-1.962.096-4.15 1.805-5.487zm7.137 9.073c1.816-2.219 5.084-2.555 7.303-.74 2.225 1.814 2.556 5.084.742 7.308-1.814 2.225-5.084 2.556-7.308.742-.863-.701-1.439-1.619-1.715-2.619-.435-1.576-.133-3.325.978-4.691zm9.037 7.347c.827-2.748 3.722-4.303 6.47-3.476 2.745.822 4.303 3.722 3.481 6.467-.827 2.748-3.722 4.304-6.47 3.476-1.767-.53-3.039-1.925-3.505-3.576-.261-.92-.269-1.918.024-2.891zM537.147 678.873c-.043-.163-.082-.332-.11-.501-.027-.168-.05-.338-.065-.504-.011-.168-.017-.343-.016-.509.005-.174.019-.338.038-.505.018-.166.047-.336.083-.503.036-.166.079-.329.134-.49.05-.16.11-.323.178-.477.069-.155.142-.311.23-.46.082-.148.176-.294.272-.435.098-.135.201-.272.312-.401.112-.129.23-.254.352-.369.122-.115.25-.227.38-.333.133-.102.275-.206.417-.294.141-.093.29-.177.446-.257.153-.074.307-.143.463-.207.156-.063.323-.113.484-.161.163-.043.331-.088.499-.115.163-.026.338-.05.505-.066.168-.01.343-.017.511-.01.171 0 .336.013.509.035.167.019.337.048.503.084.166.036.33.079.491.134.159.049.322.109.477.178.154.086.31.159.458.242.148.082.294.176.434.272.136.098.275.206.402.312.127.106.254.23.369.352.115.121.227.25.335.385.101.132.204.27.293.417.093.141.177.29.256.441.074.153.143.307.206.463.124.319.217.648.277.983.028.168.05.338.067.509.011.169.016.338.011.512-.002.166-.014.336-.036.509-.027.158-.056.328-.089.488-.039.173-.082.336-.137.497-.049.16-.111.318-.18.472-.067.16-.142.311-.229.46-.083.148-.177.293-.273.434-.096.141-.2.273-.312.402-.106.127-.225.252-.351.369-.122.115-.256.228-.386.335-.131.106-.269.204-.415.298-.141.093-.29.177-.443.251-.147.072-.302.141-.459.199-.162.066-.319.124-.482.167-.163.043-.333.083-.501.11-.167.033-.338.05-.505.066-.166.015-.343.017-.509.015-.168-.006-.337-.013-.505-.037-.166-.019-.336-.048-.497-.086-.167-.036-.33-.078-.496-.131-.161-.055-.319-.117-.474-.186-.154-.068-.31-.142-.46-.229-.147-.082-.297-.17-.434-.273-.135-.097-.273-.2-.401-.312-.129-.111-.255-.229-.37-.351-.115-.122-.226-.251-.333-.381-.101-.132-.206-.274-.298-.415-.093-.141-.174-.297-.251-.442-.074-.153-.144-.313-.208-.469-.063-.156-.117-.315-.167-.482z" fill="#6BB4FD"/><path d="M437.951 574.97l42.21 52.38 39.85-32.12c14.46-11.66 16.74-32.83 5.09-47.29-11.66-14.46-32.83-16.74-47.29-5.09l-39.86 32.12z" fill="#5E3930"/><path d="M506.942 581.35c6.29-5.07 7.28-14.27 2.21-20.56-5.07-6.29-14.27-7.28-20.56-2.21" fill="#9B643D"/><path d="M433.891 574.53l-52.38 42.21-32.11-39.85c-11.66-14.46-9.38-35.64 5.09-47.29 14.46-11.66 35.64-9.38 47.29 5.09l32.11 39.84z" fill="#5E3930"/><path d="M365.122 566.1c-5.07-6.29-4.08-15.49 2.21-20.56 6.29-5.07 15.49-4.08 20.56 2.21" fill="#9B643D"/><path d="M474.649 710.204c26.27-25.011 29.102-64.679 6.326-88.601-22.775-23.922-62.534-23.039-88.804 1.972-26.27 25.011-29.102 64.679-6.327 88.601 22.776 23.921 62.535 23.038 88.805-1.972z" fill="#39F" stroke="#39F" stroke-width="8" stroke-miterlimit="10" stroke-linecap="round"/><path d="M430.57 715.47c49.7 0 89.99-40.29 89.99-89.99 0-49.7-40.29-89.99-89.99-89.99-49.7 0-89.99 40.29-89.99 89.99 0 49.7 40.29 89.99 89.99 89.99z" fill="#5E3930"/><path d="M402.398 539.086l20.387-5.477c2.771-.745 4.001-3.976 2.432-6.374l-8.864-13.537c-1.555-2.378-4.972-2.564-6.776-.373l-13.351 16.22c-1.172 1.422-1.28 3.442-.275 4.986l1.829 2.795c.995 1.525 2.858 2.236 4.618 1.76z" fill="#6BB4FD"/><path d="M398.544 541.611l-13.174 16.494c-1.79 2.241-5.246 2.079-6.815-.324l-8.865-13.542c-1.554-2.378-.363-5.58 2.373-6.359l20.206-5.751c1.774-.505 3.667.201 4.677 1.745l1.829 2.795c1 1.525.907 3.515-.231 4.942z" fill="#6BB4FD"/><path d="M397.795 545.073c5.248 0 9.502-4.255 9.502-9.503 0-5.247-4.254-9.502-9.502-9.502-5.248 0-9.502 4.255-9.502 9.502 0 5.248 4.254 9.503 9.502 9.503z" fill="#F9D232"/><path d="M486.955 628.825c9.494-.786 17.005-3.671 16.775-6.446-.229-2.774-8.112-4.385-17.607-3.599-9.495.786-17.005 3.672-16.776 6.446.23 2.774 8.113 4.385 17.608 3.599z" fill="#000"/><path d="M486.839 622.79c12.33-1.45 23.42 1.52 28.78 6.99-3.43 6.39-5.54 13.57-6.13 21.07-4.91 3.03-11.39 5.26-18.63 6.11-16.63 1.95-31.02-4.11-32.12-13.55-1.12-9.43 11.46-18.66 28.1-20.62z" fill="#5E3930"/><path d="M417.511 636.984c9.495-.786 16.998-3.761 16.759-6.645-.239-2.884-8.129-4.585-17.624-3.799-9.494.786-16.997 3.761-16.759 6.645.239 2.884 8.13 4.585 17.624 3.799z" fill="#000"/><path d="M421.46 665.137c16.632-1.954 29.215-11.187 28.107-20.621-1.109-9.435-15.49-15.499-32.121-13.545-16.631 1.954-29.215 11.187-28.107 20.621 1.109 9.435 15.49 15.499 32.121 13.545z" fill="#5E3930"/><path opacity=".8" d="M455.3 700.79c13.54-.61 24.03-12.09 23.41-25.63l-1.07-23.73c-.61-13.54-12.09-24.03-25.63-23.41-13.54.61-24.03 12.09-23.41 25.63l1.07 23.73c.61 13.54 12.09 24.02 25.63 23.41z" fill="#9B643D"/><path d="M461.24 702.28c13.54-.61 24.03-12.09 23.41-25.63l-1.07-23.73c-.61-13.54-12.09-24.03-25.63-23.41-13.54.61-24.03 12.09-23.41 25.63l1.07 23.73c.61 13.54 12.09 24.02 25.63 23.41z" fill="#9B643D"/><path d="M451.319 634c-2.77 1.73-4.08 5.07-3.12 8.19 2.73 8.87 11.14 15.18 20.85 14.86 9.72-.32 17.69-7.16 19.84-16.19.76-3.18-.77-6.43-3.65-7.97-5.08-2.72-10.93-4.17-17.11-3.97-6.18.2-11.92 2.04-16.81 5.08z" fill="#212121"/><path d="M456.34 678.74c3.17.3 13.22.08 16.92-.75" stroke="#000" stroke-width="3" stroke-miterlimit="10"/><path d="M401.01 752.09c31.6 10.07 70.05 25.96 122.55-18.53" stroke="#4E342E" stroke-width="38.8663" stroke-miterlimit="10" stroke-linecap="round"/><path d="M401.01 752.09c31.6 10.07 70.05 25.96 122.55-18.53" stroke="#F8C329" stroke-width="39.6138" stroke-miterlimit="10" stroke-dasharray="171.91 171.91"/><path d="M401.01 752.09c31.6 10.07 70.05 25.96 122.55-18.53" stroke="#F8C329" stroke-width="39.6138" stroke-miterlimit="10" stroke-linecap="round"/><path d="M553.189 708.54l-.24 12.94 12.8 1.88-29.66 25.13-25.12-29.66 29.66-25.12-.25 12.94 12.81 1.89z" fill="#4E342E"/><g clip-path="url(#clip2)" fill="#6BB4FD"><path d="M536.749 750.962s-5.914-32.382-27.382-32.721l27.382 32.721z"/><path d="M541.933 751.043c-.005.168-.01.342-.032.511-.021.169-.048.338-.081.502-.038.164-.081.334-.13.493-.054.165-.114.318-.179.473-.066.154-.142.308-.224.457-.082.15-.169.294-.267.433-.093.138-.197.278-.307.406-.11.129-.23.257-.351.375-.121.118-.253.231-.385.339-.132.102-.275.204-.413.296-.144.092-.293.178-.442.253-.149.076-.304.146-.46.211-.16.06-.321.114-.482.163-.162.049-.329.087-.501.12-.162.027-.335.049-.503.065-.167.017-.341.017-.509.018-.169-.006-.342-.011-.511-.032-.164-.022-.338-.049-.502-.081-.164-.038-.334-.081-.493-.135-.165-.055-.318-.109-.478-.18-.154-.065-.309-.141-.458-.223-.149-.082-.293-.169-.432-.268-.139-.093-.278-.197-.407-.306-.128-.11-.257-.225-.375-.351-.118-.121-.231-.253-.339-.385-.102-.132-.204-.27-.296-.414-.091-.138-.178-.292-.253-.441-.076-.15-.146-.305-.211-.466-.06-.155-.119-.316-.163-.482-.049-.162-.087-.329-.119-.496-.028-.167-.05-.334-.066-.502-.028-.341-.023-.683.015-1.021.021-.169.048-.338.08-.507.038-.164.081-.328.136-.493.049-.159.114-.319.179-.478.065-.154.142-.309.224-.453.081-.149.169-.293.267-.437.093-.139.197-.273.307-.401.109-.134.225-.257.351-.376.121-.118.253-.231.385-.338.132-.102.27-.204.413-.296.138-.092.292-.178.442-.254.149-.081.31-.146.465-.211.155-.064.316-.119.483-.168.161-.049.328-.087.495-.114.167-.027.34-.055.503-.066.173-.016.341-.022.509-.022.168.005.342.016.511.037.169.016.338.048.502.081.164.032.334.081.493.13.159.054.318.114.473.179.154.066.308.142.452.224.149.082.293.169.438.268.139.098.272.202.401.312.128.109.257.224.375.351.118.121.231.247.339.384.102.133.204.27.296.414.091.143.178.292.253.442.076.149.146.304.211.459.059.156.119.322.168.483.043.161.082.328.114.495.028.168.05.341.066.508.022.179.028.347.023.515zM535.359 744.79c-2.667 1.055-5.685-.255-6.735-2.928-1.05-2.667.26-5.684 2.927-6.729 2.667-1.055 5.685.26 6.73 2.928l.005-.001c.255.648.37 1.323.365 1.985-.035 2.036-1.273 3.95-3.292 4.745zm-4.256-10.727c-2.372 1.61-5.599 1.001-7.209-1.37-1.615-2.372-1.001-5.599 1.37-7.214 2.372-1.616 5.599-1.002 7.215 1.37.627.917.917 1.96.898 2.997-.032 1.635-.82 3.224-2.274 4.217zm-6.568-9.613c-1.574 2.397-4.792 3.064-7.189 1.489-2.396-1.569-3.063-4.792-1.494-7.189 1.575-2.397 4.792-3.063 7.189-1.489 1.542 1.012 2.364 2.71 2.341 4.426-.012.955-.289 1.914-.847 2.763zM514.558 718.327c-.005.169-.016.343-.037.511-.022.169-.049.339-.081.502-.038.164-.081.334-.13.493-.054.165-.114.319-.18.473-.065.154-.141.308-.223.458-.082.149-.169.293-.268.432-.093.139-.197.278-.306.406-.11.129-.225.257-.351.376-.121.118-.253.231-.385.338-.132.102-.27.205-.414.296-.143.092-.292.178-.441.254-.15.075-.305.146-.46.21-.155.06-.322.12-.483.163-.161.049-.328.087-.501.12-.167.027-.334.049-.502.066-.168.016-.341.017-.51.017-.168-.005-.342-.01-.511-.032-.163-.022-.338-.048-.502-.081-.164-.038-.333-.081-.493-.135-.164-.049-.318-.109-.478-.18-.154-.065-.308-.141-.458-.223-.149-.082-.293-.169-.432-.268-.139-.093-.278-.197-.406-.306-.124-.126-.253-.241-.371-.362s-.23-.253-.338-.385c-.102-.132-.205-.275-.296-.413-.091-.138-.178-.293-.254-.442-.075-.15-.145-.305-.211-.465-.059-.156-.119-.316-.162-.483-.049-.161-.087-.328-.12-.495a8.6542 8.6542 0 01-.066-.503c-.027-.341-.022-.683.015-1.021.022-.169.048-.338.081-.507.038-.164.081-.328.135-.493.049-.159.109-.318.18-.478.071-.143.147-.298.223-.442.088-.154.175-.298.273-.437.093-.139.197-.273.307-.401.11-.134.225-.258.351-.376.121-.118.253-.231.385-.338.132-.108.27-.205.413-.296.138-.092.287-.178.442-.254.15-.075.31-.146.465-.211.155-.065.316-.119.483-.168.161-.049.328-.087.495-.114.162-.027.33-.049.498-.06.173-.017.341-.028.509-.023.168.006.342.016.511.037.169.017.338.049.502.081.164.033.334.081.493.13.159.055.318.109.473.18.154.065.308.141.452.223.149.082.293.17.438.268.139.098.272.202.401.312.128.11.257.225.375.351.118.121.236.247.339.385.102.132.204.27.296.413.091.144.178.293.253.442.076.15.146.305.211.46.059.155.119.321.168.483.049.161.082.333.114.495.028.167.05.34.066.508.017.167.022.336.023.509z"/></g><path d="M435.37 551.26l-25.08-33.48-7.95 32.53 33.03.95z" fill="#5E3930"/><path d="M448.12 540l-10.7-19.68-22.32 18.73 33.02.95zM277.061 637c11.321 0 20.5-9.178 20.5-20.5s-9.179-20.5-20.5-20.5c-11.322 0-20.5 9.178-20.5 20.5s9.178 20.5 20.5 20.5zM219.34 772.33c-6.84 45.05 25.18 81.82 29.12 4.15l-29.12-4.15z" fill="#5E3930"/><g opacity=".8" fill="#8053FA"><path opacity=".8" d="M111.22 1123.61c-79.6104-10.81-158.9504-24.35-237.87-40.61 15.44-130.44 32.1197-260.67 50.0396-390.69 48.75 60.55 144.5501 77.84 211.1704 38.12-9.03 130.94-16.81 262-23.34 393.18z"/><path opacity=".8" d="M350.74 1147.85c-80.02-5.35-159.9-13.43-239.51-24.24 6.53-131.18 14.31-262.25 23.35-393.18 52.58 57.05 149.09 67.74 212.74 23.57-.13 131.24 1.01 262.53 3.42 393.85z"/><path opacity=".8" d="M617.71 1155.59c-89.03.79-178.08-1.79-266.97-7.74-2.4-131.32-3.54-262.61-3.43-393.85 55.95 54.65 237.53 59.91 296.47 8.6-7.48 131.03-16.17 262.03-26.07 392.99z"/><path opacity=".8" d="M824.681 1147.69c-68.91 4.66-137.94 7.29-206.97 7.9 9.9-130.96 18.59-261.96 26.07-392.99 61.02 47.46 127.64 44.29 183.91-8.76.2 131.24-.8 262.53-3.01 393.85z"/><path opacity=".8" d="M1103.78 1117.64c-92.69 13.72-185.8 23.74-279.1 30.05 2.21-131.32 3.21-262.6 3-393.84 63.61 44.63 196.13 29.1 247.87-29.05 10.61 130.8 20.02 261.76 28.23 392.84z"/><path opacity=".8" d="M1341.14 1074.16c-78.72 17.22-157.88 31.71-237.36 43.48-8.2-131.08-17.62-262.03-28.23-392.85 67.1 38.91 162.67 20.48 210.68-40.66 19.5 129.79 37.8 259.8 54.91 390.03z"/><path opacity=".8" d="M1575.81 1014.32c-77.68 22.67-155.95 42.61-234.67 59.83-17.1-130.22-35.41-260.23-54.91-390.02 69.8 33.86 134.83 16.96 179.51-46.67 36.67 125.63 73.35 251.25 110.07 376.86z"/></g><path d="M258.049 1641.07c-155.989-10.64-311.6995-26.6-466.86-47.88 17.62-288.21 37.95-576.15 60.98-863.78 98.6804 123.11 284.73 143.95 407.97 45.74-3.41 288.53-4.109 577.18-2.09 865.92z" fill="url(#paint1_linear)"/><path d="M778.519 1656.83c-173.58 1.31-347.19-3.94-520.47-15.76-2.02-288.74-1.32-577.39 2.09-865.92 53.04 57.79 166.94 92.09 281.75 95.33 114.8 3.72 230.5-23.63 286.91-78.1-14.04 288.2-30.8 576.37-50.28 864.45z" fill="url(#paint2_linear)"/><path d="M1182.09 1641.94c-134.38 8.91-268.97 13.88-403.57 14.89 19.48-288.09 36.24-576.25 50.28-864.46 117.16 104.88 245.79 98.92 352.83-16.35 2.87 288.53 3.03 577.19.46 865.92z" fill="url(#paint3_linear)"/><path d="M1726.39 1584.04c-180.78 26.54-362.36 45.84-544.3 57.9 2.56-288.73 2.41-577.39-.46-865.93 122.91 99.41 378.38 69.81 475.62-55.15 25.76 287.41 48.8 575.15 69.14 863.18z" fill="url(#paint4_linear)"/><path d="M1132.52 190.6c-33.41 0-60.5-27.09-60.5-60.5 0-14.01 4.77-26.89 12.76-37.15-27.3 5.85-47.76 30.1-47.76 59.15 0 33.41 27.09 60.5 60.5 60.5 19.41 0 36.67-9.15 47.74-23.35-4.11.88-8.37 1.35-12.74 1.35z" fill="#fff"/><path d="M545.52 240.6c4.142 0 7.5-3.358 7.5-7.5 0-4.142-3.358-7.5-7.5-7.5-4.143 0-7.5 3.358-7.5 7.5 0 4.142 3.357 7.5 7.5 7.5z" fill="#7000FF"/><path d="M787.52 189.6c1.933 0 3.5-1.567 3.5-3.5s-1.567-3.5-3.5-3.5-3.5 1.567-3.5 3.5 1.567 3.5 3.5 3.5z" fill="#fff"/><path d="M1390.52 200.6c1.93 0 3.5-1.567 3.5-3.5s-1.57-3.5-3.5-3.5-3.5 1.567-3.5 3.5 1.57 3.5 3.5 3.5z" fill="#8053FA"/><path d="M146.52 38.6c1.933 0 3.5-1.567 3.5-3.5s-1.567-3.5-3.5-3.5-3.5 1.567-3.5 3.5 1.567 3.5 3.5 3.5zM531.52 219.6c1.933 0 3.5-1.567 3.5-3.5s-1.567-3.5-3.5-3.5-3.5 1.567-3.5 3.5 1.567 3.5 3.5 3.5zM1003.52 430.6c1.93 0 3.5-1.567 3.5-3.5s-1.57-3.5-3.5-3.5-3.5 1.567-3.5 3.5 1.57 3.5 3.5 3.5z" fill="#fff"/><path d="M676.52 440.6c1.933 0 3.5-1.567 3.5-3.5s-1.567-3.5-3.5-3.5-3.5 1.567-3.5 3.5 1.567 3.5 3.5 3.5zM338.52 334.6c1.933 0 3.5-1.567 3.5-3.5s-1.567-3.5-3.5-3.5-3.5 1.567-3.5 3.5 1.567 3.5 3.5 3.5z" fill="#7000FF"/><path d="M258.52 87.6c4.142 0 7.5-3.3579 7.5-7.5s-3.358-7.5-7.5-7.5c-4.143 0-7.5 3.3579-7.5 7.5s3.357 7.5 7.5 7.5z" fill="#fff"/><path d="M89.5195 197.6c4.1422 0 7.5-3.358 7.5-7.5 0-4.142-3.3578-7.5-7.5-7.5-4.1421 0-7.5 3.358-7.5 7.5 0 4.142 3.3579 7.5 7.5 7.5zM1264.52 35.6c4.14 0 7.5-3.3579 7.5-7.5s-3.36-7.5-7.5-7.5c-4.14 0-7.5 3.3579-7.5 7.5s3.36 7.5 7.5 7.5z" fill="#7000FF"/><path d="M1320.52 272.6c4.14 0 7.5-3.358 7.5-7.5 0-4.142-3.36-7.5-7.5-7.5-4.14 0-7.5 3.358-7.5 7.5 0 4.142 3.36 7.5 7.5 7.5z" fill="#fff"/></g></g><defs><linearGradient id="paint0_linear" x1="1823.71" y1="680.652" x2="-331.606" y2="680.652" gradientUnits="userSpaceOnUse"><stop offset=".3606" stop-color="#5C01E4"/><stop offset="1" stop-color="#5C01E4" stop-opacity=".3"/></linearGradient><linearGradient id="paint1_linear" x1="25.6684" y1="1105.95" x2="25.6684" y2="796.47" gradientUnits="userSpaceOnUse"><stop offset=".3606" stop-color="#5C01E4"/><stop offset="1" stop-color="#5C01E4" stop-opacity=".3"/></linearGradient><linearGradient id="paint2_linear" x1="542.866" y1="1139.39" x2="542.866" y2="840.018" gradientUnits="userSpaceOnUse"><stop offset=".3606" stop-color="#5C01E4"/><stop offset="1" stop-color="#5C01E4" stop-opacity=".3"/></linearGradient><linearGradient id="paint3_linear" x1="981.215" y1="1139.82" x2="981.215" y2="840.81" gradientUnits="userSpaceOnUse"><stop offset=".3606" stop-color="#5C01E4"/><stop offset="1" stop-color="#5C01E4" stop-opacity=".3"/></linearGradient><linearGradient id="paint4_linear" x1="1454.01" y1="1101.3" x2="1454.01" y2="788.623" gradientUnits="userSpaceOnUse"><stop offset=".3606" stop-color="#5C01E4"/><stop offset="1" stop-color="#5C01E4" stop-opacity=".3"/></linearGradient><clipPath id="clip0"><path fill="#fff" d="M0 0h1440v1024H0z"/></clipPath><clipPath id="clip1"><path fill="#fff" d="M-1131-21h3778.18v1678.03H-1131z"/></clipPath><clipPath id="clip2"><path transform="rotate(-1.919 504 713.227)" fill="#fff" d="M504 713.227h36.6513v44H504z"/></clipPath></defs></svg>