<svg width="1440" height="1024" fill="none" xmlns="http://www.w3.org/2000/svg"><g clip-path="url(#clip0)"><path fill="#3A068D" d="M0 0h1440v1024H0z"/><g opacity=".4" clip-path="url(#clip1)"><path opacity=".5" d="M1406.2-118.801s-54.7 67.5999-139.3 184.4999C1182.3 182.599 1221 275.399 1091.6 420.399c-81 90.7-234.601 172-234.601 172s141.3-102.6 167.601-333.5c9-78.7 16.8-172.6001 37-268.10008C1081.8-104.601 1161-109.601 1161-109.601l245.2-9.2z" fill="#7C48F9"/><path opacity=".5" d="M-101.101 833.099c19.5999-13.4 40.3999-24.5 62.1999-33.8-14.2 6-28.4 12-42.7 18 44.1-18.6 91.10002-29.2 138.5-35.6-15.8 2.1-31.7 4.3-47.49997 6.4 85.99997-11.4 173.10007-9.5 259.60007-9.2 42.4.1 84.8.1 127.2-2.3 25.2-1.4 50.5-5.2 75.3-9.4 9.6-1.6 19.1-3.8 28.5-6.5 9.1-2.6 18.1-5.8 26.9-9.4 22.6-9.2 46.1-18.3 67.9-29.7 24.2-12.7 45.5-28.9 67.1-45.6 21.5-16.6 42.4-33.2 61.1-52.9 23.7-24.9 44.7-52.8 64.6-80.7 11.2-15.7 21.2-32.2 30-49.3 15.2-29.6 28.4-60.5 38.9-92.1 5.2-15.7 9.1-31.8 13.7-47.7 10.7-36.6 22.5-72.9 34.7-109 25.5-75.3 52.9-150.2 82.9-223.9 3.1-7.6 6.2-15.10007 9.4-22.70007-6 14.19997-12 28.40007-18 42.70007 1.2-2.8 2.4-5.6 3.6-8.5 6-14.2 12-28.40007 18.001-42.7001 7.4-23.7 8.5-47.5 3.2-71.2-.1-16.1-4.101-31.0999-12.201-45.0999-7.2-22.1-19.5-41.3-36.9-57.5-12-9.3-24.1-18.6-36.1-27.9-14.2-6-28.4-12-42.7-18-23.7-7.4-47.5-8.5-71.2-3.2-23.8 1.1-45.9 8.1-66.4 21.2-67.3 38.2-127.6 87.7-188 135.5999-13.2 10.5-26.4 21-39.7 31.3 12-9.3 24.1-18.6 36.1-27.9-44.7 34.5-91.3 66.90003-143.5 89 14.2-5.99997 28.4-11.99997 42.7-17.99997-32 13.49997-65.7 22.89997-100.2 27.59997 15.8-2.1 31.7-4.3 47.5-6.4-28.5 3.7-57.4 3.8-86.1 3-34.4-1-68.8-3.7-103.1-6.6C128.199 8.79892 52.2989.99893-24.0011-.10107c-41.2-.6-82.4999.7-123.3999 6.19999-24.6-.9-47.5 4.19998-68.8 15.39998-22.1 7.2-41.3 19.5001-57.5 36.9001-17.4 16.2-29.7 35.3-36.9 57.5-11.2 21.3-16.3 44.2-15.4 68.8 2.1 15.8 4.3 31.7 6.4 47.5 8.5 30.3 23.8 56.5 45.9 78.8 12 9.3 24.1 18.6 36.1 27.9 27.9 16.2 57.9 24.3 90.1 24.4 63.5999-8.5 128.1999-7.3 192.0999-3.6 64.6001 3.7 128.9001 10.5 193.5001 15.3 28.4 2.1 56.9 3.8 85.3 4.2 12.7.2 25.5 0 38.2-.6 27.1-1.3 53.9-5.6 80.7-9.3 30-4.2 59.4-11.9 87.6-22.9 41.3-16.1 81.8-33.6 119.6-56.8 24.7-15.2 48.2-32.2 71.2-49.7 35.2-26.9 69.9-54.5 104.8-81.9 6-4.7 12-9.4 18-14-12 9.3-24.1 18.6-36.1 27.9 35.6-27.5 72.3-53.7 111.5-75.9001-81.5-81.3-162.9-162.8-244.4-244.1999-29.4 68.6999-56.9 137.9-82.4 208.1-21.9 60.3-42.8 120.9-61.3 182.3-8.9 29.4-15.7 59.6-27.6 88 6-14.2 12-28.4 18-42.7-13.2 31.3-30.8 60.7-51.5 87.6 9.3-12 18.6-24.1 27.9-36.1-20.4 26.3-43.8 50.1-70.1 70.5 12-9.3 24.1-18.6 36.1-27.9-21.9 16.8-45.6 31.1-71 41.9 14.2-6 28.4-12 42.7-18-21.2 8.9-43.3 15.2-66.1 18.4 15.8-2.1 31.7-4.3 47.5-6.4-19.7 2.6-39.7 2.9-59.5 3.5-20.8.6-41.5.7-62.3.8-42.3 0-84.5-.5-126.8-.2-41.9.4-83.9001 1.6-125.7001 5.6-35.79997 3.4-71.5 8.1-106.9 14.1-19.4 3.3-38.6999 7.5-57.6999 12.8-35.4 9.8-69 24.4-102.6 39.2-19.8 8.8-38.9 19.2-56.8 31.5-20.8 11.2-37.5 26.6-50.1 46-15.6 17.2-26.3 37.4-31.8 60.6-7.4 23.8-8.5 47.5-3.2 71.3 1.1 23.8 8.1 45.9 21.2 66.4 9.3 12 18.6 24.1 27.9 36.1 22.3 22.1 48.6 37.4 78.8 45.9 15.8 2.1 31.7 4.3 47.5 6.4 32.3-.1 62.3-8.2 90.2-24.4zM849.699 1549c.6-.7 1.1-1.5 1.7-2.2-8.4 10.8-16.8 21.7-25.1 32.5 19.2-24.6 41.7-46.3 66.3-65.4-10.8 8.4-21.7 16.8-32.5 25.1 43.7-33.7 93.1-59.1 143.701-80.5-12.801 5.4-25.601 10.8-38.401 16.2 76.301-32.1 155.701-55.6 234.101-81.7 18.9-6.3 37.8-12.8 56.5-19.6 30.4-11.1 61-22.5 89.9-37.1 28.4-14.2 53.2-34.6 77.8-54.3 14.5-11.6 27.8-24.6 39.8-38.7 33.1-38.6 63-80 83.2-126.8 12.6-29.3 25.5-58.4 34.2-89.1 4.9-17.2 8.6-34.801 11.1-52.501 4.4-30.9 9.4-61.9 9.2-93.1-.1-16.5-1.5-33-2-49.5-1.3-39-1.4-78.1-1.1-117.2.8-81.1 3.3-162.3 9.3-243.2.6-7.9 1.2-15.7 1.9-23.6-1.9-14.2-3.8-28.5-5.7-42.7l-16.2-38.4c-8.4-10.8-16.8-21.7-25.1-32.5-14.6-15.7-31.8-26.8-51.7-33.2-12.5-7.3-26.1-10.9-40.6-11-14.2-3.8-28.5-3.8-42.7 0-14.5 0-28 3.7-40.6 11-19.9 6.5-37.2 17.6-51.7 33.2-36.5 40.2-69.2 84.1-99.9 128.8-22.1 32.2-43 65.3-64.9 97.6-12.1 17.9-24.6 35.5-37.8 52.6 8.4-10.8 16.8-21.7 25.1-32.5-25.8 33.4-54.6 64.4-88 90.4 10.8-8.4 21.7-16.8 32.5-25.1-25.9 20-54.2 36.9-84.3 49.6l38.4-16.2c-57.601 24.1-119.501 37.8-180.101 52.2-71 16.9-142.3 33-211.9 55.2-19.1 6.1-38 12.7-56.7 19.9-30.6 11.9-61.1 24.5-90.7 38.8-18.7 10.1-33.8 23.9-45.1 41.4-14.2 15.5-23.8 33.7-28.8 54.7-6.7 21.4-7.7 42.7-2.9 64.101 1 21.4 7.3 41.3 19.1 59.8 8.4 10.8 16.8 21.7 25.1 32.5 20.1 19.9 43.7 33.7 70.9 41.3 14.2 1.9 28.5 3.8 42.7 5.7 29-.1 56.1-7.4 81.1-21.9 10.1-4.9 20.4-9.5 30.7-13.9l-38.4 16.2c61.7-26 126.4-43.9 191.2-60.1 62.6-15.6 125.8-29.1 188.001-46 26.2-7.1 52.4-14.9 77.8-24.701 39-14.9 77.7-31.2 112.6-54.4 6.7-4.5 13.3-9.1 19.7-14 16.8-12.7 33.8-25.4 49.9-39 11.9-10 23.1-20.8 33.9-32 10.7-11.1 20.8-22.8 30.5-34.7 18-22.3 35.6-45 52.3-68.2 37.3-51.8 69.8-106.8 107.5-158.3 4.9-6.7 9.9-13.3 15-19.9-8.4 10.8-16.8 21.7-25.1 32.5 12-15.5 24.5-30.6 37.7-45.1-91.5-37.9-182.9-75.8-274.4-113.7-5.4 62.9-8 126-9.7 189.1-1.8 66.4-2.6 133-.2 199.4.5 15 1.8 30 1.9 45 .1 16-1.1 32-3.2 47.8 1.9-14.2 3.8-28.5 5.7-42.7-4.8 35.5-14.5 70.2-28.4 103.2l16.2-38.4c-12.7 29.9-28.9 58.301-48.8 84.101 8.4-10.8 16.8-21.7 25.1-32.5-15.6 20-33.3 38.2-53.4 53.9 10.8-8.4 21.7-16.8 32.5-25.1-17.5 13.5-36.5 24.9-56.9 33.5l38.4-16.2c-36.9 15.4-75.2 27.8-113.2 40.2-39.4 13-79 25.5-118.301 39-51.6 17.7-102.2 37.8-152 60-35.9 16-71 34.3-103.5 56.5-28.4 19.4-56.1 40.4-81.4 63.7-25.5 23.4-45.7 50.4-66.7 77.9-11.7 18.4-18.1 38.4-19.1 59.8-4.8 21.4-3.8 42.7 2.9 64.1 5 20.9 14.6 39.1 28.8 54.7 11.3 17.5 26.4 31.3 45.1 41.4l38.4 16.2c28.5 7.7 57 7.7 85.5 0l38.4-16.2c24.4-14.4 43.6-33.6 57.9-57.7z" fill="#8053FA"/><path opacity=".5" d="M-82.301 903.899c0-1.9 69.4-112 339-50 126 29 221 81 341 59 7.9-1.5-58 58-304 33-269.8-27.4-370 160.001-370 160.001l-6-202.001z" fill="#8053FA"/></g><path d="M369.617 340.844L767.494 205l319.666 511.311c2.07 3.322.46 7.711-3.27 8.898L586.153 883.58c-16.251 5.171-33.765-2.893-40.403-18.603L346.294 392.931c-8.806-20.841 1.912-44.777 23.323-52.087z" fill="#2E066D"/><ellipse cx="1217.5" cy="793" rx="96.5" ry="19" fill="#2E066D"/><ellipse cx="129.5" cy="443" rx="96.5" ry="19" fill="#2E066D"/><path d="M1070.53 640.355l-78.851-117.524-452.658 172.116 30.329 159.985 501.18-170.6v-43.977z" fill="#FFF8BD"/><path d="M572 862.632l504.87-161.554c4.24-1.358 6.93-5.537 6.4-9.963-.7-5.849-6.6-9.579-12.19-7.708L572 850.5v12.132z" fill="#6F00FF"/><path d="M583.755 808.681L360.898 303.705c-10.312 0-22.688 31.087-16.681 46.251 46.252 116.767 188.738 428.396 223.676 504.976 12.418 27.22-2.335-26.537 15.862-46.251z" fill="#7F54FA"/><path d="M1079.27 610.313L825.129 175.532c-7.225-12.36-22.109-17.984-35.702-13.491L360.838 303.705l222.159 505.734 484.013-166.133c13.59-4.663 19.5-20.593 12.26-32.993z" fill="#7F54FA"/><path d="M175.889-59.6177c4.125 4.8149 7.318 10.4234 10.046 16.5068 2.57 5.9284 4.675 12.3319 5.843 19.0587 2.491 13.2952 1.548 27.88047-3.009 41.5635-4.401 13.6813-12.101 26.4571-21.548 37.0571-1.241 1.2669-2.323 2.6888-3.563 3.9557l-1.86 1.9002c-.155.1584-.154.3151-.31.3167l-.154.3151-.308.4734c-.77 1.2619-1.074 2.2055-.914 2.5173.002.1567.16.3117.317.31.156-.0016.313-.0033.47-.0049.156-.0017.313-.0033.471.1518.159.155.319.4668.635.7769.957 1.5571 3.182 4.5114 6.191 7.4574 3.008 2.9461 6.647 6.1989 10.754 9.2901 8.058 6.3407 17.366 12.198 26.985 17.8954 2.365 1.3855 4.887 2.7695 7.252 4.1555l3.625 1.999.945.46.315.153.63.307 1.105.772c1.577.924 2.999 2.006 4.579 3.243 5.847 4.64 10.769 10.7 14.14 18.344 1.607 3.745 2.748 7.964 3.263 12.19.168 1.096.178 2.036.188 2.976.01.94.176 1.879.029 2.821.01.94.021 1.88-.126 2.822.01.941-.137 1.882-.285 2.668-.863 7.375-3.151 13.354-5.605 18.395-.613 1.261-1.227 2.521-1.999 3.626l-2.002 3.312c-1.389 2.052-2.777 4.104-4.169 5.843-1.391 1.895-2.941 3.479-4.335 5.061-1.395 1.425-2.944 3.165-4.341 4.434-1.395 1.425-2.947 2.852-4.346 3.964l-2.173 1.903-2.176 1.747-3.419 2.701-1.244.953-1.087.952c-1.553 1.27-2.792 2.694-3.877 3.802-2.167 2.531-3.556 4.583-4.013 5.841-.457 1.259-.765 1.732-.594 3.141.015 1.41.822 3.596 2.262 6.402.798 1.402 1.753 2.802 2.865 4.201.635.777 1.111 1.399 1.745 2.019.792.775.952 1.087 1.743 1.862 1.424 1.239 3.48 3.098 5.851 4.954 2.37 1.856 5.057 4.021 7.903 6.499 5.536 4.8 11.708 10.534 17.119 18.47 2.705 3.889 5.103 8.409 6.876 13.092 1.773 4.683 3.082 9.841 3.605 14.851.523 5.009.417 9.869-.318 14.422-.579 4.551-1.788 8.795-3 12.726-2.738 7.865-6.271 14.641-10.125 20.637-.462.789-.924 1.577-1.544 2.211l-.772 1.105-.618.79-2.473 3.317c-1.544 2.211-3.086 4.578-4.628 6.945-2.927 4.732-5.698 9.463-8.152 14.504-2.455 5.041-4.594 10.236-6.418 15.584-1.98 5.349-3.333 10.849-4.527 16.503-1.037 5.653-1.916 11.461-1.853 17.416-.126 2.979.063 5.955.406 8.772.171 1.409.501 2.973.986 4.378.485 1.406.97 2.811 1.923 4.055-1.573-.61-2.839-1.694-3.947-2.78-1.11-1.242-2.22-2.484-3.175-3.884-1.91-2.801-3.507-5.605-4.793-8.726-2.728-6.084-4.519-12.49-5.842-19.059-1.323-6.568-1.707-13.303-1.779-20.042-.071-6.738.485-13.483 1.511-20.233 1.025-6.75 2.523-13.348 4.491-19.951.905-3.301 2.126-6.448 3.345-9.752.61-1.574 1.22-3.148 1.83-4.721l.457-1.259.303-.943c.151-.629.457-1.259.607-1.888 1.673-4.876 2.878-9.433 3.149-13.511.427-4.079-.076-7.208-1.038-9.236-.962-2.027-2.073-3.426-4.131-5.442-2.059-2.015-5.218-4.333-9.32-6.954-2.051-1.389-4.416-2.774-6.94-4.315-2.682-1.696-5.521-3.39-8.837-5.862-1.737-1.236-3.792-2.938-5.216-4.177-1.582-1.394-3.163-2.787-4.747-4.338-3.01-3.103-6.022-6.362-8.725-10.095-5.405-7.309-10.043-16.193-12.507-26.981-1.153-5.317-1.683-10.953-1.429-16.598s1.448-11.299 3.117-16.489c1.669-5.189 3.97-9.915 6.433-14.173 2.462-4.257 5.399-8.049 8.185-11.37 2.942-3.322 5.886-6.488 8.992-9.185l2.329-2.062 2.33-1.905 3.73-3.017 1.398-1.112 1.242-1.11c.932-.794 1.552-1.427 2.329-2.062.777-.635 1.395-1.425 2.015-2.059.464-.631 1.241-1.267 1.704-1.898.463-.632.929-1.107 1.237-1.581.155-.158.31-.316.464-.631.155-.159.153-.315.308-.474.308-.473.153-.315.01.94.001.157.003.314.005.471.001.156.003.313.006.626.002.157.004.314.007.627.003.314.003.314.163.625.17 1.252.495 2.346.975 3.281.96 1.871 2.07 3.113 3.173 3.728.315.154.474.309.789.462l.158.155.157-.002-.315-.153-1.104-.615-4.26-2.776c-2.84-1.851-5.524-3.703-8.365-5.711-10.894-7.721-21.483-16.229-31.462-26.311-4.912-5.12-9.985-10.709-14.442-17.244-4.457-6.5356-8.925-14.168-11.541-24.4842-.653-2.5007-1.153-5.3164-1.339-8.1355-.188-2.9758-.22-5.9532.219-8.9356.719-6.1198 2.848-12.2544 5.931-17.1453 3.082-4.8909 6.801-8.8483 10.376-11.707l1.398-1.1118.622-.4767c.155-.1584.467-.3183.622-.4767l1.712-1.1151c1.09-.6384 2.178-1.4335 3.267-2.2285 8.555-6.0457 16.002-13.1768 22.025-21.54669 6.023-8.36984 10.305-18.44531 12.538-29.59621 1.039-5.4962 1.603-11.4576 1.697-17.4141.257-5.3313-.121-11.4396-1.284-17.6963z" fill="#6AC86E"/><path d="M99.7916 65.1528c4.5604 1.5192 8.8174 3.9819 12.9224 6.9163 3.949 2.9362 7.746 6.344 11.081 10.5404 3.333 4.0397 6.048 8.8695 8.143 14.3327 2.093 5.3068 3.096 11.2518 3.317 17.3618.064 6.111-.813 12.076-2.475 17.892-1.664 5.66-3.957 11.169-6.726 16.057-.771 1.262-1.384 2.522-2.156 3.627l-1.078 1.736-.771 1.261c-.922 1.734-2 3.47-2.765 5.202-1.844 3.467-3.375 6.931-4.751 10.237-2.749 6.768-4.561 13.212-5.127 19.017-.565 5.805-.042 10.815 1.417 15.501 1.46 4.686 3.702 9.208 7.198 13.872 3.497 4.665 7.935 9.477 13.156 14.124 5.22 4.646 11.223 9.285 17.694 13.605l4.892 3.239 5.837 3.7c3.945 2.623 7.892 5.402 11.997 8.337 3.949 2.936 8.056 6.027 12.009 9.433 3.954 3.407 8.067 7.125 12.032 11.628s8.094 9.631 11.612 16.333c1.76 3.43 3.366 7.174 4.351 11.395 1.141 4.22 1.658 8.603 1.547 12.992-.11 4.389-.694 8.47-1.752 12.086-1.059 3.616-2.28 6.763-3.815 9.757-2.918 5.673-6.004 10.251-9.096 14.201-1.546 2.054-3.093 3.951-4.798 5.693l-1.239 1.423-.62.634-.465.475-1.859 2.057c-2.479 2.69-4.799 5.536-6.805 8.535-4.167 5.999-7.387 12.772-8.714 20.622-.743 3.926-1.013 8.004-.81 12.39.203 4.386.876 8.767 2.334 13.297-4.1-2.464-7.585-6.032-10.762-10.074-3.02-4.043-5.577-8.717-7.196-13.715-3.553-9.993-4.145-21.585-2.222-32.419 1.039-5.496 2.551-10.684 4.533-15.877l1.528-3.777.459-.945.306-.787.611-1.417c.762-2.046 1.526-3.934 2.133-5.821 1.214-3.774 2.274-7.234 2.56-9.901.442-2.669-.203-4.386-.675-4.538-.315-.153-.629-.15-.787-.305-.315-.153-.63-.307-1.262-.77-1.106-.929-3.005-2.633-5.373-4.332-4.897-3.71-11.522-7.871-18.46-11.873-3.468-2.001-7.094-4-10.721-6.156l-5.675-3.231c-2.207-1.231-4.414-2.461-6.622-3.848-8.676-5.394-17.201-11.417-25.27-18.698-8.0687-7.281-15.837-15.818-22.3702-26.093-6.5315-10.119-11.5179-22.29-13.5369-35.434-2.0174-12.987-.7475-26.322 2.8908-37.958 3.6382-11.635 9.1731-21.724 15.6631-30.412 3.2442-4.423 6.6502-8.377 10.2143-12.176 1.8604-1.9 3.5658-3.642 5.4279-5.385l1.3968-1.269c.3101-.317.6201-.633 1.0885-.795.6218-.477 1.242-1.11 2.0188-1.745 5.1229-4.599 9.1469-9.343 11.7519-15.013 2.604-5.669 3.783-12.7344 2.447-20.5565-1.803-7.5037-5.026-15.9328-9.8144-24.1887z" fill="#6AC86E"/><path d="M295.954 136.432c5.077 5.901 8.445 13.232 10.72 20.888 2.275 7.655 3.145 15.952 2.764 24.419-.605 16.933-7.007 33.926-16.886 48.136-2.469 3.63-5.098 6.949-7.884 10.27-1.392 1.738-2.787 3.164-4.338 4.747l-1.085 1.109-.62.633c-.155.158-.465.475-.465.475-.308.474-.619.79-.927 1.264-1.237 1.58-2.161 3.157-2.929 4.576-.612 1.417-1.067 2.832-1.368 4.089-.6 2.514-.882 5.494-.682 9.567.199 4.073.879 9.081 2.194 14.866 1.158 5.786 2.634 12.04 4.274 18.918.819 3.44 1.484 7.037 2.305 10.633.667 3.754 1.333 7.509 2.003 11.577 1.181 7.98 1.899 16.592 1.37 25.845-.53 9.252-2.463 19.146-6.439 28.434-7.961 17.794-21.927 30.793-36.423 38.155-7.325 3.838-14.663 6.423-22.164 8.383-7.501 1.96-14.856 2.978-22.685 3.53 4.478-6.316 9.274-12.165 13.603-17.696 4.328-5.688 8.502-11.06 11.737-16.423 3.391-5.364 6-10.564 7.827-15.598.914-2.517 1.514-5.031 2.116-7.389.3-1.257.444-2.512.746-3.612l.293-1.884.14-1.569c.271-4.077-.244-8.303-.92-12.998-.835-4.85-2.143-10.008-3.928-15.788-.813-2.812-1.629-5.938-2.759-9.06l-2.923-9.687c-1.951-6.718-3.909-14.063-5.56-22.039-1.495-7.977-2.842-16.896-2.478-26.93.366-9.878 2.441-21.184 7.661-31.426 2.454-5.041 5.693-9.933 9.254-14.046 3.561-4.112 7.44-7.758 11.326-10.776.932-.794 2.022-1.432 2.954-2.225.311-.16.31-.317.623-.321l.467-.318.935-.48c1.245-.797 2.492-1.437 3.581-2.232 2.335-1.435 4.667-3.183 6.844-4.774 8.862-6.675 16.927-14.597 23.401-24.852 3.392-5.208 6.154-10.879 8.594-17.173 2.436-6.765 4.402-13.525 5.731-21.218z" fill="#6AC86E"/><path d="M175.889-59.6176c6.38 10.5899 10.269 22.7734 11.345 35.6134 1.23 12.6816-.823 26.02473-5.708 38.3007-4.885 12.2759-12.604 23.3279-21.595 32.6694l-3.41 3.4839-1.706 1.7419-1.24 1.2668c-1.548 1.7403-2.784 3.4774-3.549 5.2094-1.531 3.4641-1.341 6.5965-.045 10.6577 1.452 3.9027 4.319 8.2607 7.652 12.3004 3.49 4.038 7.449 7.9144 11.875 11.6291 4.271 3.7163 9.008 7.1139 13.745 10.5119 4.737 3.398 9.629 6.638 14.676 9.719 2.523 1.541 5.047 3.082 7.569 4.465l3.783 2.155.947.617.63.306.788.462c1.104.616 2.052 1.389 3.001 2.163 3.793 3.094 7.126 7.134 9.215 11.97.966 2.498 1.776 4.997 2.119 7.814.342 2.661.368 5.168-.077 7.524-.576 4.864-2.098 9.112-4.095 12.894-1.841 3.781-4.158 6.94-6.479 9.785-4.639 5.848-9.919 10.449-15.045 14.734l-3.574 2.859c-1.089.795-2.019 1.745-2.95 2.539-2.019 1.745-3.725 3.487-5.428 5.385-1.547 1.897-3.094 3.795-4.171 5.687-1.234 1.893-2.154 3.784-2.76 5.827-1.37 3.776-1.801 7.542-.974 11.608.67 4.068 2.592 8.122 5.299 12.169 1.275 2.024 2.863 4.044 4.45 5.908 1.744 1.863 3.487 3.725 5.384 5.272 3.952 3.25 9.319 6.955 14.377 11.133 5.216 4.176 10.438 8.98 14.891 15.202 2.227 3.111 4.143 6.538 5.591 10.128 1.449 3.589 2.586 7.495 2.941 11.409 1.023 7.826-.151 15.361-2.117 22.121-1.966 6.76-4.879 12.903-8.266 18.58l-4.775 7.887c-1.541 2.524-2.768 5.044-4.15 7.723-2.609 5.199-5.059 10.554-7.039 16.06-4.115 11.014-6.815 22.483-7.786 34.405-.407 5.959-.501 11.916.188 17.864.345 2.974.847 5.947 1.66 8.759.485 1.405.97 2.811 1.611 4.215.642 1.403 1.439 2.649 2.547 3.734-2.682-1.695-4.435-4.498-5.873-7.147-1.44-2.806-2.725-5.77-3.697-8.738-1.944-6.091-3.107-12.348-3.643-18.611-1.074-12.684.044-25.547 2.89-37.958 1.501-6.285 3.317-12.416 5.605-18.396 1.065-2.989 2.287-5.979 3.666-8.972.612-1.417 1.379-2.992 1.991-4.409l.918-2.047c.307-.63.614-1.26.92-1.89 2.296-5.196 4.122-10.387 5.164-15.57 1.044-5.026 1.148-10.043.163-14.264-.986-4.378-2.906-8.119-5.921-11.692-3.015-3.573-6.968-6.979-11.547-10.222-4.579-3.243-9.626-6.324-15.313-10.652-1.422-1.082-3.002-2.319-4.269-3.56-1.266-1.24-2.69-2.479-3.956-3.72-2.536-2.637-4.915-5.433-6.984-8.389-4.295-6.067-7.816-13.082-9.626-21.213-1.808-7.974-1.275-16.913 1.464-24.621 1.212-3.931 3.055-7.555 5.057-10.867 2.002-3.313 4.321-6.315 6.642-9.16 2.479-2.691 4.958-5.381 7.598-7.603 1.24-1.267 2.639-2.379 4.039-3.334l3.575-2.858c4.352-3.338 8.231-6.983 11.326-10.777 3.095-3.637 4.934-7.575 5.223-9.929.15-.628.145-1.098.14-1.568-.003-.314-.163-.626-.168-1.096-.322-.78-.802-1.715-1.751-2.489-.158-.155-.473-.308-.633-.62l-.158-.155-.157.001-.315-.153-1.103-.615-4.1-2.465c-2.682-1.695-5.364-3.391-8.048-5.243-10.574-7.098-20.841-14.826-30.183-23.974-4.749-4.495-9.345-9.462-13.479-15.0603-4.133-5.5984-7.96-11.8271-10.079-19.6409-.982-3.9078-1.497-8.1339-1.073-12.5266.424-4.3927 1.945-8.797 4.1-12.4243 2.156-3.6274 4.787-6.7897 7.739-9.1717l2.176-1.7468 1.71-1.2718c1.088-.7951 2.175-1.7469 3.262-2.6987 8.699-7.301 16.286-16.0008 21.822-25.93277 5.537-9.93195 8.865-21.25113 9.838-33.01563.409-5.8031.344-11.9146-.502-17.8612-.536-6.2632-1.854-12.3616-3.795-18.1399z" fill="#1A844B"/><path d="M99.7919 65.1529c7.7271 4.6203 14.6921 11.286 19.7921 19.3818 2.55 4.048 4.635 8.5709 5.94 13.4156 1.304 4.8447 1.829 10.0107 1.57 15.1857-.258 5.175-1.459 10.202-3.132 15.078-1.672 4.876-4.133 9.291-6.752 13.55-.615 1.103-1.388 2.052-2.004 3.155l-2.007 2.843c-1.235 1.737-2.471 3.474-3.549 5.209-2.314 3.472-4.313 7.098-6.312 10.724-1.842 3.624-3.5259 7.403-4.8981 11.022-1.3705 3.776-2.4295 7.392-3.1733 11.161-1.4876 7.538-1.4116 14.747.2296 21.782 3.1258 14.072 12.6628 26.823 24.8418 37.508 6.012 5.422 12.802 10.366 19.902 14.993 1.736 1.079 3.473 2.314 5.364 3.391l5.836 3.543c3.943 2.466 7.73 4.934 11.677 7.713 3.789 2.625 7.58 5.563 11.372 8.5 3.794 3.095 7.431 6.191 11.074 9.914 3.487 3.724 6.979 7.919 9.854 13.061 2.873 4.985 4.821 11.39 4.889 17.815.066 6.268-1.597 12.084-3.741 16.808-2.142 4.882-4.605 9.139-7.227 13.085-1.389 2.052-2.622 3.945-4.013 5.841l-3.862 5.212c-2.316 3.316-4.472 6.943-6.157 10.566-3.526 7.403-5.636 15.418-5.703 23.882.044 4.231.402 8.459 1.544 12.678.984 4.221 2.596 8.436 4.676 12.489-6.649-6.356-11.284-14.927-13.42-24.308-2.292-9.379-1.616-19.573.948-29.003 1.361-4.716 3.037-9.279 5.184-13.69l1.689-3.309 1.535-2.994c1.077-1.892 1.998-3.782 2.916-5.83 1.841-3.78 3.525-7.559 4.427-11.174 1.059-3.615 1.339-6.753.997-9.413-.341-2.661-1.306-5.002-3.214-7.646-1.752-2.646-4.287-5.283-7.134-7.761-5.852-5.11-12.797-9.895-20.054-14.521-3.629-2.312-7.257-4.625-11.041-6.779l-5.677-3.388c-2.05-1.232-4.1-2.464-6.151-3.697-8.045-5.087-15.782-10.647-23.218-17.308-7.2783-6.662-14.0935-13.956-19.8267-22.672-5.5766-8.718-9.913-18.703-11.7489-29.341-1.8359-10.638-1.168-21.615 1.705-31.519 2.7146-10.059 7.3212-19.041 12.7193-27.247 2.6208-4.103 5.5579-7.895 8.6537-11.532 1.547-1.897 3.0957-3.638 4.6444-5.378l2.1692-2.374c.775-.791 1.395-1.425 2.013-2.215 5.108-6.009 9.266-12.949 11.069-20.334 1.801-7.542 1.245-15.6855-1.505-23.8062-1.453-4.0594-3.218-7.9589-5.451-11.6968-2.545-3.5778-5.247-7.1539-8.2601-10.5701zM295.954 136.432c3.359 6.39 5.158 13.58 6.02 20.937.861 7.357.783 14.881-.391 22.416-2.349 15.07-9.249 29.405-18.68 41.572-2.319 3.002-4.953 5.851-7.587 8.699-1.238 1.424-2.792 2.694-4.189 3.963l-2.017 1.902-1.55 1.583c-4.031 4.118-7.119 8.538-8.949 13.259-1.831 4.721-2.717 9.903-2.656 15.701.061 5.798.909 11.901 2.231 18.313 1.321 6.412 2.957 12.977 4.597 19.855 1.639 6.879 3.28 13.914 4.611 21.266 1.175 7.354 2.196 15.022 1.967 23.018-.229 7.995-1.395 16.314-4.446 24.182-.304.943-.764 1.889-1.224 2.834l-1.226 2.677c-.922 1.734-1.843 3.467-2.922 5.203-2.001 3.469-4.318 6.628-6.793 9.631-2.476 3.004-5.267 5.855-8.061 8.392-2.951 2.539-5.903 4.921-9.015 6.991-6.223 4.297-12.612 7.655-19.32 10.547-6.551 2.89-13.264 5.312-20.135 7.578 5.434-4.759 11.029-9.206 16.153-13.648 5.28-4.601 10.246-9.198 14.738-14.104 2.169-2.374 4.336-4.904 6.189-7.588 1.853-2.527 3.706-5.211 5.245-7.891 1.538-2.681 2.919-5.516 3.986-8.349.612-1.417 1.067-2.832 1.522-4.247l.604-2.201.605-2.043c1.196-5.498 1.603-11.458 1.07-17.408-.534-6.107-1.541-12.365-3.174-18.617-1.478-6.41-3.271-12.973-5.222-19.692-1.794-6.72-3.749-13.752-5.237-21.102-1.331-7.352-2.51-15.176-2.285-23.485.226-8.309 1.857-17.102 5.689-25.292 3.833-8.034 9.557-14.99 16.084-20.23l4.352-3.337c1.244-.954 2.488-1.907 3.73-3.017 2.485-2.064 4.814-4.126 7.141-6.345 9.152-8.873 16.721-19.296 21.607-31.416 5.352-12.594 7.872-26.255 6.938-40.507z" fill="#1A844B"/><path d="M216.776 434.119c0 11.374-32.907 20.472-73.548 20.472-40.64 0-73.5471-9.098-73.5471-20.472 0-11.373 7.5822-55.35 73.5471-55.35 73.548 0 73.548 44.129 73.548 55.35z" fill="#7C48F9"/><path d="M148.686 454.536c-44.074-11.654-58.8426-34.116-52.6441-64.688-22.8683 13.814-26.361 36.552-26.361 44.271 0 11.374 32.9071 20.472 73.5471 20.472 1.836 0 3.656-.018 5.458-.055z" fill="#7000FF"/><path d="M235 450.191c0 3.943-11.409 7.098-25.5 7.098s-25.5-3.155-25.5-7.098c0-3.944 2.629-19.191 25.5-19.191 25.5 0 25.5 15.3 25.5 19.191z" fill="#9D87F5"/><path d="M211.392 457.27c-15.281-4.041-20.401-11.829-18.252-22.429-7.929 4.79-9.14 12.673-9.14 15.35 0 3.943 11.409 7.098 25.5 7.098.636 0 1.268-.007 1.892-.019z" fill="#906BFB"/><path d="M1288.79 582.885c-2.67.155-5.31.86-7.94 1.84-2.54 1.003-5.07 2.281-7.46 4.049-2.38 1.685-4.53 3.882-6.45 6.509-1.89 2.544-3.29 5.587-4.29 8.832-.92 3.269-1.31 6.595-1.26 9.956.07 3.276.5 6.563 1.28 9.586.23.788.38 1.553.63 2.257l.33 1.087.23.789c.24 1.063.57 2.15.73 3.19.49 2.126.81 4.206 1.07 6.178.49 4.028.53 7.748-.01 10.943-.53 3.195-1.54 5.807-3 8.109-1.46 2.302-3.32 4.403-5.87 6.399-2.55 1.996-5.63 3.934-9.1 5.671-3.47 1.737-7.36 3.356-11.46 4.736l-3.09 1.03-3.67 1.139c-2.49.836-5.01 1.756-7.64 2.735-2.54 1.004-5.19 2.067-7.81 3.322-2.61 1.255-5.36 2.653-8.13 4.495-2.78 1.841-5.74 3.995-8.6 7.08-1.44 1.585-2.84 3.361-3.98 5.482-1.22 2.098-2.13 4.374-2.71 6.745-.58 2.37-.85 4.643-.81 6.736.05 2.093.24 3.958.63 5.786.75 3.465 1.74 6.367 2.83 8.933.53 1.326 1.08 2.567 1.75 3.748l.46.943.24.43.18.322.7 1.372c.94 1.802 1.77 3.664 2.41 5.563 1.37 3.821 2.11 7.92 1.69 12.323-.17 2.213-.62 4.44-1.36 6.763-.74 2.323-1.74 4.575-3.18 6.794 2.56-.728 4.95-2.138 7.24-3.845 2.2-1.732 4.25-3.869 5.84-6.315 3.35-4.846 5.35-10.978 5.88-17.067.24-3.099.18-6.1-.13-9.172l-.27-2.248-.11-.573-.05-.466-.12-.849c-.12-1.207-.25-2.331-.3-3.431-.11-2.2-.18-4.209.06-5.681.14-1.496.74-2.323 1.01-2.336.2-.037.36.01.47-.05.19-.037.38-.073.79-.231.73-.338 1.99-.977 3.51-1.545 3.16-1.281 7.32-2.554 11.62-3.697 2.15-.571 4.38-1.118 6.64-1.75l3.51-.911c1.36-.341 2.72-.682 4.11-1.106 5.43-1.637 10.88-3.633 16.26-6.371 5.38-2.737 10.78-6.192 15.78-10.758 4.96-4.481 9.4-10.288 12.39-17.046 2.96-6.674 4.21-14.01 3.94-20.778-.27-6.768-1.78-12.98-4-18.58-1.1-2.841-2.35-5.455-3.72-8.009-.72-1.288-1.38-2.47-2.13-3.674l-.56-.883c-.12-.215-.24-.429-.47-.584-.27-.346-.51-.775-.83-1.228-2.08-3.209-3.56-6.336-4.13-9.754-.58-3.418-.19-7.378 1.66-11.38 2.05-3.764 5-7.818 8.77-11.554z" fill="#6AC86E"/><path d="M1193.25 582.722c-3.57 2.431-6.44 5.875-8.77 9.652-2.33 3.777-4 8.102-5.02 12.698-2.12 9.17-1.15 19.212 2.09 28.263.8 2.305 1.73 4.466 2.74 6.65.5 1.134 1.04 2.1 1.64 3.174l.43.752.24.429c.06.108.18.323.18.323.09.298.21.513.31.811.44 1.027.7 2.007.91 2.879.12.848.16 1.674.14 2.391-.04 1.435-.32 3.075-1.02 5.231-.69 2.155-1.78 4.743-3.33 7.656-1.45 2.936-3.15 6.076-5.03 9.528-.93 1.726-1.81 3.56-2.77 5.37-.9 1.917-1.8 3.834-2.75 5.919-1.79 4.11-3.42 8.625-4.48 13.665-1.05 5.039-1.45 10.626-.66 16.183 1.69 10.697 7.3 19.691 14.01 25.738 3.38 3.119 6.94 5.567 10.68 7.704 3.74 2.137 7.54 3.748 11.65 5.178-1.48-4.036-3.21-7.868-4.73-11.461-1.5-3.677-2.96-7.164-3.92-10.508-1.04-3.368-1.69-6.535-1.94-9.5-.12-1.482-.08-2.917-.06-4.269.02-.717.12-1.411.12-2.045l.11-1.053.16-.862c.44-2.226 1.33-4.418 2.37-6.839 1.15-2.48 2.6-5.057 4.39-7.899.85-1.391 1.74-2.95 2.79-4.461l2.97-4.772c2.02-3.321 4.14-6.978 6.18-11.017 1.95-4.062 3.97-8.651 5.22-14.086 1.24-5.351 1.76-11.715.44-17.964-.58-3.06-1.61-6.153-2.93-8.874-1.31-2.721-2.86-5.238-4.51-7.42-.39-.56-.88-1.06-1.26-1.621-.15-.131-.12-.215-.29-.262l-.21-.238-.43-.393c-.55-.607-1.13-1.131-1.6-1.715-1.04-1.108-2.04-2.384-2.98-3.552-3.78-4.863-6.96-10.279-8.95-16.717-1.07-3.284-1.73-6.726-2.12-10.456-.33-3.981-.41-7.891-.01-12.21z" fill="#6AC86E"/><path d="M1288.79 582.884c-4.82 1.36-9.52 3.927-13.42 7.531-1.96 1.802-3.73 3.926-5.13 6.336s-2.43 5.105-3.04 7.918c-.61 2.813-.7 5.683-.51 8.541.2 2.857.88 5.581 1.67 8.245.17.681.44 1.301.61 1.982l.67 1.815c.41 1.111.82 2.221 1.15 3.308.74 2.198 1.28 4.432 1.83 6.666.46 2.21.82 4.481 1.03 6.621.19 2.224.24 4.316.09 6.446-.29 4.259-1.38 8.114-3.28 11.65-3.71 7.095-10.67 12.554-18.75 16.523-4.01 2.038-8.37 3.706-12.85 5.16-1.08.328-2.19.739-3.36 1.043l-3.65 1.056c-2.47.752-4.86 1.527-7.38 2.447-2.41.859-4.87 1.886-7.33 2.913-2.48 1.11-4.88 2.244-7.37 3.714-2.41 1.493-4.89 3.238-7.18 5.579-2.26 2.258-4.23 5.412-5.2 8.848-.94 3.353-.89 6.713-.42 9.557.44 2.928 1.14 5.569 1.98 8.065.45 1.301.83 2.495 1.3 3.713l1.32 3.355c.76 2.114 1.4 4.372 1.77 6.559.82 4.481.8 9.085-.39 13.635-.64 2.263-1.44 4.479-2.67 6.577-1.14 2.121-2.61 4.149-4.31 6.021 4.48-2.446 8.21-6.372 10.71-11.095 2.59-4.699 3.7-10.265 3.69-15.694-.04-2.727-.28-5.417-.8-8.093l-.42-2.02-.39-1.828c-.31-1.17-.53-2.318-.72-3.549-.44-2.294-.8-4.565-.76-6.634-.04-2.093.26-3.816.83-5.194.57-1.377 1.42-2.493 2.83-3.635 1.32-1.166 3.06-2.214 4.95-3.13 3.88-1.894 8.3-3.456 12.86-4.886 2.28-.715 4.56-1.43 6.9-2.038l3.54-.996c1.27-.364 2.55-.728 3.83-1.092 5.05-1.564 10.01-3.427 14.96-5.923 4.87-2.52 9.58-5.446 13.92-9.291 4.25-3.869 8.02-8.597 10.54-14.037 2.53-5.44 3.76-11.425 3.65-17.153 0-5.788-1.17-11.272-2.88-16.456-.81-2.579-1.83-5.039-2.97-7.438-.55-1.241-1.13-2.399-1.71-3.556l-.82-1.588c-.3-.537-.54-.966-.76-1.479-1.87-3.963-3.1-8.287-2.99-12.509.12-4.306 1.6-8.594 4.25-12.551 1.37-1.967 2.88-3.804 4.62-5.485 1.88-1.551 3.85-3.078 5.96-4.474z" fill="#1A844B"/><path d="M1193.25 582.722c-2.72 2.942-4.73 6.538-6.26 10.359-1.52 3.822-2.57 7.868-3.03 12.08-.92 8.423.7 17.111 4 25.002.81 1.946 1.81 3.855 2.81 5.765.46.942 1.11 1.849 1.67 2.731l.81 1.312.6 1.074c1.57 2.792 2.59 5.61 2.88 8.408.3 2.797.03 5.704-.84 8.805-.88 3.101-2.21 6.252-3.85 9.5-1.64 3.248-3.47 6.532-5.34 9.984-1.88 3.453-3.78 6.989-5.55 10.739-1.7 3.775-3.36 7.74-4.39 12.062-1.03 4.321-1.61 8.952-1.12 13.614.03.55.14 1.124.25 1.697l.27 1.614c.24 1.063.49 2.126.82 3.213.57 2.151 1.35 4.18 2.24 6.15.9 1.969 1.98 3.902 3.11 5.668 1.22 1.788 2.46 3.493 3.83 5.054 2.71 3.206 5.65 5.932 8.83 8.454 3.1 2.499 6.35 4.769 9.71 6.98-2.23-3.34-4.59-6.535-6.69-9.659-2.17-3.232-4.17-6.417-5.87-9.699-.82-1.587-1.61-3.258-2.22-4.965-.63-1.624-1.23-3.332-1.67-4.992-.44-1.661-.77-3.382-.93-5.055-.12-.849-.16-1.674-.2-2.499v-1.268l-.03-1.183c.15-3.122.8-6.378 1.94-9.492 1.17-3.198 2.62-6.409 4.4-9.526 1.72-3.225 3.63-6.486 5.65-9.807 1.94-3.345 4-6.833 5.86-10.561 1.78-3.75 3.55-7.776 4.63-12.265 1.08-4.49 1.48-9.442.61-14.39-.89-4.864-2.96-9.423-5.7-13.179l-1.85-2.42c-.53-.691-1.06-1.383-1.56-2.158-1.04-1.467-1.99-2.91-2.92-4.437-3.62-6.084-6.17-12.77-7.04-19.978-1.05-7.53-.42-15.222 2.14-22.732z" fill="#1A844B"/><path d="M1304.96 785.366c0 11.374-32.91 20.472-73.55 20.472s-73.55-9.098-73.55-20.472c0-11.373 7.59-55.35 73.55-55.35 73.55 0 73.55 44.129 73.55 55.35z" fill="#7C48F9"/><path d="M1236.87 805.783c-44.08-11.654-58.84-34.116-52.65-64.688-22.86 13.814-26.36 36.552-26.36 44.271 0 11.374 32.91 20.472 73.55 20.472 1.84 0 3.66-.018 5.46-.055z" fill="#7000FF"/><path d="M1273.86 812.207c0 3.943-11.41 7.098-25.5 7.098s-25.5-3.155-25.5-7.098c0-3.944 2.63-19.191 25.5-19.191 25.5 0 25.5 15.3 25.5 19.191z" fill="#9D87F5"/><path d="M1250.26 819.286c-15.29-4.041-20.41-11.829-18.26-22.429-7.93 4.79-9.14 12.673-9.14 15.35 0 3.943 11.41 7.098 25.5 7.098.64 0 1.27-.007 1.9-.019z" fill="#906BFB"/><path d="M1414.86 816.207c0 3.943-11.41 7.098-25.5 7.098s-25.5-3.155-25.5-7.098c0-3.944 2.63-19.191 25.5-19.191 25.5 0 25.5 15.3 25.5 19.191z" fill="#9D87F5"/><path d="M1391.26 823.286c-15.29-4.041-20.41-11.829-18.26-22.429-7.93 4.79-9.14 12.673-9.14 15.35 0 3.943 11.41 7.098 25.5 7.098.64 0 1.27-.007 1.9-.019z" fill="#906BFB"/><path d="M489.221 867.197c0 6.821-19.736 12.278-44.111 12.278-24.374 0-44.11-5.457-44.11-12.278 0-6.822 4.547-33.197 44.11-33.197 44.111 0 44.111 26.466 44.111 33.197z" fill="#7C48F9"/><path d="M448.384 879.442c-26.434-6.99-35.291-20.462-31.574-38.797-13.715 8.285-15.81 21.922-15.81 26.552 0 6.821 19.736 12.278 44.11 12.278 1.101 0 2.193-.011 3.274-.033z" fill="#7000FF"/><path d="M470.571 883.294c0 2.365-6.842 4.257-15.293 4.257s-15.294-1.892-15.294-4.257c0-2.365 1.577-11.509 15.294-11.509 15.293 0 15.293 9.176 15.293 11.509z" fill="#9D87F5"/><path d="M456.413 887.54c-9.165-2.424-12.236-7.095-10.948-13.452-4.755 2.873-5.481 7.601-5.481 9.206 0 2.365 6.843 4.257 15.294 4.257.381 0 .76-.004 1.135-.011z" fill="#906BFB"/><path d="M555.137 885.693c0 2.365-6.843 4.257-15.294 4.257s-15.293-1.892-15.293-4.257c0-2.365 1.576-11.509 15.293-11.509 15.294 0 15.294 9.176 15.294 11.509z" fill="#9D87F5"/><path d="M540.978 889.939c-9.165-2.424-12.236-7.094-10.947-13.452-4.755 2.873-5.482 7.601-5.482 9.206 0 2.365 6.843 4.257 15.294 4.257.382 0 .76-.004 1.135-.011z" fill="#906BFB"/><ellipse cx="713.03" cy="470.537" rx="146.183" ry="179.55" transform="rotate(-25.735 713.03 470.537)" fill="#6F00FF"/><g opacity=".5" fill="#9FCEFF"><path opacity=".5" d="M798.068 446.951c21.469 0 38.873-17.404 38.873-38.873 0-21.469-17.404-38.874-38.873-38.874-21.47 0-38.874 17.405-38.874 38.874s17.404 38.873 38.874 38.873z"/><path opacity=".5" d="M743.35 425.399c20.273 0 36.708-16.435 36.708-36.709 0-20.273-16.435-36.708-36.708-36.708s-36.708 16.435-36.708 36.708c0 20.274 16.435 36.709 36.708 36.709zM692.962 450.593c11.577 0 20.962-9.386 20.962-20.963 0-11.577-9.385-20.962-20.962-20.962S672 418.053 672 429.63s9.385 20.963 20.962 20.963z"/><path opacity=".5" d="M718.352 479.329c14.132 0 25.588-11.456 25.588-25.587 0-14.132-11.456-25.588-25.588-25.588-14.131 0-25.587 11.456-25.587 25.588 0 14.131 11.456 25.587 25.587 25.587zM705.953 393.906c13.316 0 24.111-10.795 24.111-24.111s-10.795-24.111-24.111-24.111c-13.317 0-24.112 10.795-24.112 24.111s10.795 24.111 24.112 24.111zM817.456 363.201c7.827 0 14.171-6.345 14.171-14.172 0-7.826-6.344-14.171-14.171-14.171-7.827 0-14.172 6.345-14.172 14.171 0 7.827 6.345 14.172 14.172 14.172zM766.871 375.896c11.794 0 21.356-9.561 21.356-21.355 0-11.795-9.562-21.356-21.356-21.356-11.795 0-21.356 9.561-21.356 21.356 0 11.794 9.561 21.355 21.356 21.355z"/><path opacity=".5" d="M752.601 336.432c7.99 0 14.467-6.477 14.467-14.466 0-7.99-6.477-14.467-14.467-14.467s-14.467 6.477-14.467 14.467c0 7.989 6.477 14.466 14.467 14.466z"/><path opacity=".5" d="M725.045 344.995c7.99 0 14.467-6.477 14.467-14.467s-6.477-14.467-14.467-14.467-14.467 6.477-14.467 14.467 6.477 14.467 14.467 14.467zM704.968 308.778c5.653 0 10.235-4.582 10.235-10.235 0-5.652-4.582-10.235-10.235-10.235s-10.235 4.583-10.235 10.235c0 5.653 4.582 10.235 10.235 10.235zM739.61 310.747c5.653 0 10.235-4.583 10.235-10.235 0-5.653-4.582-10.235-10.235-10.235s-10.235 4.582-10.235 10.235c0 5.652 4.582 10.235 10.235 10.235zM724.651 284.962c4.729 0 8.562-3.833 8.562-8.562 0-4.728-3.833-8.562-8.562-8.562-4.729 0-8.562 3.834-8.562 8.562 0 4.729 3.833 8.562 8.562 8.562zM701.524 274.038c2.772 0 5.02-2.247 5.02-5.019 0-2.772-2.248-5.019-5.02-5.019-2.772 0-5.019 2.247-5.019 5.019 0 2.772 2.247 5.019 5.019 5.019zM819.522 344.798c4.838 0 8.759-3.922 8.759-8.759s-3.921-8.759-8.759-8.759c-4.837 0-8.759 3.922-8.759 8.759s3.922 8.759 8.759 8.759z"/></g><path d="M562.873 469.51c-13.755 7.267-17.634 27.031-8.605 44.073 9.03 17.041 27.526 25.001 41.286 17.738" fill="#28B6F6"/><path d="M619.68 466.737c-14.866-4.656-31.598 6.563-37.308 25.018-5.71 18.455 1.72 37.156 16.611 41.742" fill="#28B6F6"/><path d="M626.408 611.204l-1.818-6.594c-.233-.597-.339-1.236-.309-1.877.029-.64.193-1.267.48-1.84.287-.574.692-1.08 1.187-1.487.495-.407 1.071-.705 1.689-.876.618-.171 1.264-.21 1.898-.114.634.095 1.241.322 1.782.667.54.344 1.003.799 1.357 1.333.353.535.591 1.138.697 1.77l1.792 6.611c.308 1.164.144 2.403-.455 3.448a4.58147 4.58147 0 01-2.746 2.134c-1.157.3-2.385.136-3.423-.457-1.038-.593-1.802-1.568-2.131-2.718zM690.796 633.342l-6.414-2.391c-.612-.17-1.182-.465-1.674-.867-.491-.402-.894-.901-1.183-1.467-.288-.566-.455-1.186-.491-1.82-.036-.634.06-1.268.283-1.863.222-.595.566-1.137 1.009-1.592.443-.454.976-.812 1.565-1.05s1.221-.35 1.855-.331c.635.02 1.259.171 1.832.445l6.414 2.391c1.034.493 1.845 1.356 2.274 2.418.429 1.062.444 2.246.043 3.319-.402 1.073-1.19 1.956-2.211 2.476-1.02.52-2.198.638-3.302.332z" fill="#F9CE1D"/><path d="M663.243 444.487c12.379-2.973 31.394 12.925 5.892 31.108" stroke="#332F2E" stroke-width="8.06694" stroke-miterlimit="10" stroke-linecap="round"/><path d="M663.244 444.487c.746-.182 1.508-.293 2.275-.333" stroke="#534741" stroke-width="8.06694" stroke-miterlimit="10"/><path d="M670.357 444.637c10.008 2.555 18.447 14.38 2.527 28.035" stroke="#534741" stroke-width="8.06694" stroke-miterlimit="10" stroke-dasharray="4.88 4.88"/><path d="M670.99 474.22c-.609.474-1.229.938-1.865 1.386" stroke="#534741" stroke-width="8.06694" stroke-miterlimit="10"/><path d="M653.803 475.302l11.735 19.58c3.435 5.73 10.864 7.592 16.595 4.157 5.73-3.434 7.591-10.864 4.157-16.594l-11.735-19.58c-3.434-5.73-10.864-7.592-16.594-4.157-5.731 3.434-7.592 10.864-4.158 16.594z" fill="#332F2E"/><path d="M667.056 442.973c-.994-2.881-3.682-4.567-6.005-3.766-2.323.801-3.401 3.786-2.408 6.667.994 2.881 3.682 4.567 6.005 3.766 2.323-.801 3.401-3.786 2.408-6.667z" fill="#332F2E" stroke="#F9D232" stroke-width="3.45726" stroke-miterlimit="10"/><path d="M658.178 531.457c1.576 8.533 4.126 19.098 15.385 28.223" stroke="#5E3930" stroke-width="14.9815" stroke-miterlimit="10" stroke-linecap="round"/><path d="M686.882 560.812l-19.988 24.678c-8.465-6.858-.572-16.876 1.832-19.836l9.559-11.804" fill="#5E3930"/><path d="M658.178 531.457c1.576 8.533 4.126 19.098 15.385 28.223" stroke="#F9D232" stroke-width="15.5615" stroke-miterlimit="10" stroke-dasharray="23.05 230.51"/><path d="M680.055 518.349c6.654.323 16.268 7.169 12.383 20.692" stroke="#5E3930" stroke-width="14.9815" stroke-miterlimit="10" stroke-linecap="round"/><path d="M682.165 547.609l30.522 8.768c3.002-10.446-9.2-14.16-12.865-15.212l-14.6-4.193" fill="#5E3930"/><path d="M680.055 518.349c6.654.323 16.268 7.169 12.383 20.692" stroke="#F9D232" stroke-width="15.5615" stroke-miterlimit="10" stroke-dasharray="23.05 230.51"/><path d="M649.887 498.133l8.144 13.597" stroke="#F9D232" stroke-width="62.7802" stroke-miterlimit="10" stroke-linecap="round"/><path d="M664.935 478.551c18.77-10.46 29.165 11.47 29.803 17.742" stroke="#5E3930" stroke-width="14.9815" stroke-miterlimit="10" stroke-linecap="round"/><path d="M696.231 511.171l-4.057-2.899-3.395 3.659-1.515-14.909 14.904-1.521 1.515 14.91-4.057-2.899-3.395 3.659z" fill="#5E3930"/><path d="M664.935 478.551c18.77-10.46 29.165 11.47 29.803 17.742" stroke="#F9D232" stroke-width="15.2715" stroke-miterlimit="10" stroke-dasharray="66.28 23.05"/><path d="M664.935 478.551c18.77-10.46 29.165 11.47 29.803 17.742" stroke="#F9D232" stroke-width="15.2715" stroke-miterlimit="10" stroke-linecap="round" stroke-dasharray="23.05 172.89"/><path d="M629.764 498.851c-14.228 18.697-30.939 12.139-39.273.846" stroke="#5E3930" stroke-width="14.9815" stroke-miterlimit="10" stroke-linecap="round"/><path d="M581.637 487.655l4.971.419 1.06-4.869 8.893 12.057-12.057 8.893-8.893-12.057 4.966.426 1.06-4.869z" fill="#5E3930"/><path d="M629.764 498.851c-14.228 18.697-30.939 12.139-39.273.846" stroke="#F9D232" stroke-width="15.2715" stroke-miterlimit="10"/><path opacity=".62" d="M658.79 490.043c16.793-17.662 16.088-45.594-1.575-62.386-17.662-16.793-45.593-16.088-62.386 1.574-16.792 17.662-16.088 45.594 1.575 62.386 17.662 16.793 45.593 16.088 62.386-1.574z" fill="#C2C6EA"/><path d="M669.083 465.126c-4.382-7.31-20.776-5.539-36.619 3.956s-25.134 23.119-20.752 30.429c4.381 7.31 20.776 5.539 36.618-3.956 15.843-9.495 25.134-23.118 20.753-30.429z" fill="#2A56AD"/><path d="M585.934 455.774c.836-3.338 2.964-6.207 5.915-7.976 2.952-1.769 6.485-2.293 9.823-1.457l19.13 4.793-6.306 25.17-19.137-4.794c-3.336-.838-6.203-2.966-7.97-5.917-1.768-2.951-2.291-6.483-1.455-9.819z" fill="#5E3930"/><path d="M597.69 464.523a5.6345 5.6345 0 01-1.989-.935c-.595-.439-1.098-.991-1.48-1.625-.771-1.279-1.003-2.812-.644-4.262.36-1.451 1.28-2.699 2.56-3.47 1.279-.771 2.813-1.003 4.263-.643" fill="#9B643D"/><path d="M647.312 456.635l-25.17-6.306 4.794-19.137c.836-3.338 2.964-6.207 5.916-7.976 2.951-1.769 6.484-2.293 9.822-1.456 3.338.836 6.207 2.964 7.976 5.915 1.769 2.952 2.293 6.485 1.457 9.823l-4.795 19.137z" fill="#5E3930"/><path d="M644.887 436.629c.207-.727.266-1.488.173-2.237a5.6407 5.6407 0 00-.714-2.128 5.6459 5.6459 0 00-1.487-1.681c-.603-.455-1.292-.784-2.025-.968-.733-.183-1.495-.218-2.242-.101-.746.116-1.462.382-2.104.78-.642.399-1.197.922-1.633 1.539-.436.618-.743 1.316-.903 2.054" fill="#9B643D"/><path d="M649.867 497.966l11.254 18.766" stroke="#1B69C1" stroke-width="4.03729" stroke-miterlimit="10"/><path d="M656.811 491.636c13.203-13.887 12.649-35.847-1.238-49.05-13.886-13.203-35.847-12.649-49.05 1.238-13.203 13.887-12.649 35.847 1.238 49.05 13.887 13.203 35.847 12.649 49.05-1.238z" fill="#5E3930"/><path d="M658.79 490.043c16.793-17.662 16.088-45.594-1.575-62.386-17.662-16.793-45.593-16.088-62.386 1.574-16.792 17.662-16.088 45.594 1.575 62.386 17.662 16.793 45.593 16.088 62.386-1.574z" stroke="#9FCEFF" stroke-width="3.45726" stroke-miterlimit="10"/><path d="M642.566 407.964c-1.546 1.644-4.132 1.722-5.775.176-1.643-1.546-1.722-4.132-.176-5.775 1.546-1.644 4.132-1.722 5.775-.176 1.644 1.546 1.722 4.132.176 5.775z" stroke="#D8DDE2" stroke-width="2.66441" stroke-miterlimit="10"/><path d="M627.997 398.955c-.961 1.022-2.569 1.071-3.59.109-1.022-.961-1.071-2.568-.11-3.59.962-1.021 2.569-1.07 3.59-.109 1.022.961 1.071 2.569.11 3.59z" fill="#D8DDE2"/><path d="M571.878 428.785c-1.755 1.866-4.69 1.955-6.555.2-1.866-1.755-1.955-4.691-.2-6.556 1.755-1.865 4.69-1.955 6.556-.2 1.865 1.756 1.955 4.691.199 6.556zM583.002 414.386c-1.755 1.865-4.691 1.954-6.556.199-1.865-1.755-1.955-4.69-.199-6.556 1.755-1.865 4.69-1.954 6.555-.199 1.866 1.755 1.955 4.69.2 6.556z" stroke="#D8DDE2" stroke-width="2.66441" stroke-miterlimit="10"/><path d="M615.582 439.978l4.63-15.437 7.203 10.723-11.833 4.714z" fill="#5E3930"/><path d="M611.797 441.489l1.264-8.54 10.569 3.826-11.833 4.714z" fill="#5E3930"/><path d="M621.779 473.999c2.53-2.66 2.423-6.868-.237-9.398-2.661-2.529-6.869-2.423-9.398.238-2.53 2.66-2.424 6.868.237 9.398 2.661 2.529 6.868 2.423 9.398-.238z" fill="#000"/><path d="M632.626 472.812c-1.883-3.142-7.9-2.997-13.438.322-5.539 3.32-8.503 8.558-6.62 11.699 1.883 3.142 7.9 2.998 13.438-.321 5.539-3.32 8.503-8.558 6.62-11.7z" fill="#5E3930"/><path d="M644.9 460.136c2.53-2.661 2.424-6.869-.237-9.398-2.661-2.53-6.868-2.424-9.398.237-2.529 2.661-2.423 6.868.237 9.398 2.661 2.529 6.869 2.423 9.398-.237z" fill="#000"/><path d="M655.742 458.959c-1.883-3.142-7.899-2.998-13.438.322-5.539 3.319-8.502 8.557-6.619 11.699 1.883 3.142 7.899 2.997 13.438-.322 5.539-3.32 8.502-8.558 6.619-11.699z" fill="#5E3930"/><path d="M641.871 466.23c-2.631-4.516-8.424-6.045-12.941-3.415-4.516 2.631-6.045 8.424-3.415 12.941l4.609 7.914c2.63 4.516 8.424 6.045 12.94 3.415 4.517-2.63 6.046-8.424 3.416-12.941l-4.609-7.914z" fill="#9B643D"/><path d="M634.348 459.538c.611-.015 1.21.173 1.703.535.492.362.851.877 1.02 1.464.482 1.718.386 3.548-.273 5.206-.66 1.658-1.847 3.054-3.377 3.972-1.531.917-3.321 1.306-5.095 1.106-1.773-.2-3.432-.978-4.72-2.214-.438-.426-.724-.985-.811-1.59-.088-.605.027-1.222.327-1.755 1.12-2.004 2.747-3.68 4.716-4.86 1.97-1.179 4.215-1.822 6.51-1.864z" fill="#212121"/><path d="M644.504 477.366c.66 1.5.704 3.199.122 4.731-.581 1.531-1.742 2.773-3.231 3.457-1.489.683-3.187.754-4.728.197-1.54-.557-2.8-1.697-3.508-3.175" fill="#000"/><path d="M605.192 447.561l-.698 8.488c-.021.268-.105.527-.245.756-.141.229-.334.422-.564.561-.229.14-.489.223-.757.243-.268.019-.537-.025-.784-.13l-6.003-2.547c-.246-.107-.464-.269-.635-.476-.172-.206-.292-.45-.351-.712-.059-.261-.056-.533.01-.793.066-.261.192-.501.369-.703l5.467-6.481c.232-.279.548-.475.9-.561.353-.086.724-.056 1.058.085l1.244.519c.329.15.601.4.779.715.178.314.251.677.21 1.036z" fill="#6BB4FD"/><path d="M605.905 445.848l5.592-6.436c.177-.202.303-.442.369-.703.066-.26.069-.532.01-.793-.059-.262-.18-.506-.351-.712-.171-.207-.389-.369-.636-.476l-6.002-2.547c-.246-.107-.513-.155-.78-.139-.268.016-.528.095-.759.23-.231.135-.427.323-.572.549-.145.225-.235.481-.262.748l-.802 8.441c-.034.361.048.722.233 1.033.186.311.466.555.799.696l1.249.524c.323.138.68.172 1.022.098.343-.075.654-.254.89-.513z" fill="#6BB4FD"/><path d="M606.234 448.636c1.461-1.536 1.4-3.966-.137-5.427-1.536-1.461-3.966-1.4-5.427.137-1.461 1.536-1.4 3.966.137 5.427 1.536 1.461 3.966 1.4 5.427-.137z" fill="#F9D232"/><path d="M596.695 486.433l-1.505 7.324-5.758-1.183.321-1.565c.314-1.527 1.222-2.868 2.524-3.726 1.301-.858 2.891-1.164 4.418-.85z" fill="#5E3930"/><path d="M686.316 497.3l16.794-1.936M582.959 504.362l13.583-10.054" stroke="#1B69C1" stroke-width="4.03729" stroke-miterlimit="10" stroke-linecap="round"/><path d="M657.436 404.098c2.016-2.12 1.931-5.473-.189-7.488-2.12-2.016-5.472-1.931-7.488.189s-1.931 5.472.189 7.488c2.12 2.015 5.472 1.931 7.488-.189zM611.068 343.391c1.254-1.32 1.202-3.407-.118-4.661-1.319-1.255-3.406-1.202-4.661.117-1.255 1.32-1.202 3.407.118 4.661 1.319 1.255 3.406 1.202 4.661-.117z" fill="#8053FA"/><path d="M634.054 371.719c2.297-2.417 2.201-6.238-.216-8.535-2.416-2.297-6.237-2.201-8.534.215-2.298 2.417-2.201 6.238.215 8.535 2.416 2.297 6.237 2.201 8.535-.215z" stroke="#8053FA" stroke-width="3.45726" stroke-miterlimit="10"/><path d="M661.251 348.367c2.298-2.416 2.201-6.237-.215-8.535-2.416-2.297-6.238-2.2-8.535.216-2.297 2.416-2.201 6.237.216 8.534 2.416 2.298 6.237 2.201 8.534-.215z" fill="#8053FA"/><path d="M804.805 424.677c.82 4.675 1.414 9.389 1.82 14.135.406 4.746.693 9.484.83 14.268.262 9.607.021 19.221-.72 28.802-1.532 19.576-4.963 38.957-10.243 57.87-2.63 9.599-5.6 19.181-8.959 28.75-3.359 9.57-7.26 19.078-11.582 28.553-4.423 9.686-9.4 19.111-14.905 28.226-2.84 4.671-5.885 9.324-9.133 13.958-3.273 4.628-6.811 9.247-10.675 13.798-3.988 4.736-8.238 9.246-12.728 13.509-4.925 4.691-10.185 9.017-15.739 12.943-1.448 1.024-3.047 2.042-4.566 3.03-1.519.989-3.265 1.972-4.887 2.925-1.622.954-3.451 1.869-5.269 2.762l-2.774 1.312-1.399.629-1.474.62a85.848 85.848 0 01-26.6 6.523c-5.014.404-10.057.293-15.048-.332-5.017-.629-9.956-1.775-14.737-3.418-8.699-3.042-16.755-7.677-23.758-13.668l-2.26-2.054c-.719-.683-1.557-1.407-2.124-2.019-1.214-1.292-2.424-2.59-3.606-3.882-1.183-1.293-2.194-2.644-3.269-3.972-1.076-1.328-1.99-2.67-2.968-4.012-3.556-5.077-6.679-10.444-9.334-16.045-2.346-5.078-4.383-10.292-6.1-15.615-1.635-5.103-2.916-10.08-3.985-14.993-1.978-9.375-3.342-18.869-4.085-28.421-.414-4.605-.641-9.118-.824-13.589-.183-4.47-.283-8.884-.344-13.228-.062-4.344-.073-8.64-.05-12.852l-.001-12.238.009-.707c.003-4.038 1.389-7.953 3.928-11.092 2.539-3.139 6.078-5.313 10.026-6.159 3.948-.846 8.067-.313 11.67 1.51 3.602 1.823 6.471 4.826 8.128 8.508 1.904 4.233 3.589 8.32 5.24 12.354l4.876 11.797c3.175 7.736 6.482 15.167 9.857 22.229 3.187 6.74 6.782 13.278 10.767 19.578 2.413 3.653 10.947 15.611 15.046 6.05.806-1.888 1.69-4.059 2.52-6.45.831-2.391 1.717-4.939 2.492-7.593.775-2.654 1.545-5.524 2.232-8.462.687-2.938 1.318-5.939 1.871-9.057.307-1.519.541-3.139.827-4.68.285-1.54.497-3.181.71-4.8 1.771-13.411 2.582-26.931 2.428-40.457-.232-13.911-.761-27.998-1.167-42.18-.185-7.105-.376-14.258-.429-21.469l-.023-5.414.052-5.437.055-2.728c.037-.913.068-1.821.082-2.734.078-1.831.14-3.668.32-5.508l.386-3.973c1.649-16.965 9.39-32.759 21.789-44.456 12.4-11.697 28.617-18.506 45.65-19.165 17.033-.659 33.728 4.876 46.994 15.58 13.266 10.704 22.204 25.852 25.16 42.64z" fill="#28B6F6"/><path d="M796.001 520.928l-21.499-40.101c1.079-.027 28.019-.793 55.71-9.428 45.04-14.044 17.042 40.635-32.971 51.603l-1.24-2.074z" fill="#2297CC"/><path d="M807.477 452.88l.01.221c.268 9.606.028 19.22-.719 28.802-1.545 19.57-4.986 38.943-10.276 57.848-2.63 9.6-5.6 19.181-8.959 28.751-.863 2.392-1.704 4.783-2.61 7.175-.906 2.393-1.823 4.754-2.816 7.149l-1.465 3.556c-.482 1.195-1.014 2.385-1.518 3.569-1.009 2.368-2.088 4.744-3.162 7.114-4.427 9.683-9.407 19.104-14.916 28.215-2.84 4.671-5.885 9.324-9.133 13.959-3.273 4.628-6.811 9.246-10.675 13.797-3.988 4.736-8.238 9.246-12.728 13.51-4.925 4.691-10.185 9.016-15.739 12.943-.705.509-1.491 1.014-2.261 1.525l-2.315 1.516c-.383.247-.792.49-1.202.743l-1.233.733-2.441 1.459-2.615 1.411-1.311.681c-.426.226-.874.453-1.344.67-.922.45-1.873.863-2.774 1.312l-1.398.629-1.474.62c-.984.403-1.967.806-2.951 1.176-.984.37-2.065.743-3.098 1.099l-1.557.53-.782.247-.836.258c-1.089.319-2.188.622-3.297.909-.975.273-2.049.506-3.101.726 1.807-1.114 3.558-2.313 5.275-3.588 2.033-1.573 4.04-3.141 5.917-4.905 3.873-3.503 7.477-7.293 10.78-11.338 3.357-4.115 6.447-8.442 9.25-12.952 2.881-4.537 5.513-9.228 7.883-14.051 2.394-4.822 4.563-9.78 6.507-14.875 1.967-5.059 3.71-10.226 5.23-15.469 6.219-20.94 9.292-42.935 10.179-65.09.337-11.043.364-22.148.504-33.293.032-5.572.14-11.146.225-16.752.081-2.798.095-5.638.241-8.427l.185-4.226c.099-1.422.155-2.833.303-4.251l.221-2.138c.785-7.511 3.507-14.691 7.899-20.835 4.392-6.144 10.303-11.043 17.156-14.218 6.853-3.175 14.413-4.516 21.94-3.893 7.527.623 14.763 3.189 21.001 7.448z" fill="#90CAF9"/><path d="M696.831 474.178c-2.52 6.126-6.958 11.27-12.65 14.66-5.691 3.389-12.328 4.842-18.915 4.14-.16-5.193-.315-10.409-.465-15.649-.195-7.105-.376-14.258-.428-21.469l-.024-5.414.057-5.443.056-2.727c.036-.914.067-1.821.082-2.734.078-1.832.139-3.669.32-5.509l.194-1.921c5.291-.612 10.65.168 15.547 2.262s9.163 5.43 12.376 9.678c3.213 4.248 5.261 9.261 5.943 14.544.682 5.282-.027 10.651-2.056 15.575l-.037.007zM683.53 414.112c-1.337 3.221-3.829 5.826-6.988 7.304-3.159 1.478-6.756 1.722-10.085.685 1.947-9.162 5.713-17.839 11.076-25.517 2.964 1.689 5.209 4.402 6.313 7.63 1.104 3.227.992 6.747-.316 9.898zM682.164 524.671c-1.319 3.203-3.63 5.898-6.594 7.69a16.1858 16.1858 0 01-9.874 2.265c.206-4.986.284-10.023.235-15.111a882.55 882.55 0 00-.394-17.097c2.784-.288 5.595.151 8.159 1.274 2.564 1.124 4.792 2.893 6.468 5.135 1.675 2.243 2.74 4.881 3.091 7.658.35 2.778-.026 5.598-1.091 8.186zM629.665 580.708c2.469 4.889 5.182 9.651 8.129 14.268 1.426 2.166 2.849 4.257 4.302 6.196a13.0541 13.0541 0 01-4.858 4.161c-1.939.962-4.087 1.427-6.25 1.352-2.164-.074-4.275-.686-6.143-1.779-1.869-1.094-3.436-2.635-4.56-4.485-1.125-1.85-1.771-3.95-1.882-6.112-.11-2.162.319-4.318 1.249-6.273.93-1.955 2.331-3.648 4.079-4.926 1.747-1.278 3.784-2.102 5.929-2.397l.005-.005zM611.54 571.594c2.829-2.975 2.71-7.68-.265-10.509-2.975-2.829-7.681-2.71-10.509.265-2.829 2.976-2.71 7.681.265 10.51 2.975 2.828 7.68 2.71 10.509-.266zM702.64 382.039c-.284-.481-.419-1.036-.387-1.594.031-.557.227-1.093.563-1.54.336-.446.797-.783 1.324-.967.527-.185 1.098-.208 1.639-.069.54.14 1.028.437 1.4.854.372.417.612.935.689 1.488.078.553-.01 1.117-.253 1.62-.243.503-.63.923-1.111 1.206-.319.189-.672.313-1.039.365-.368.052-.741.031-1.1-.062-.359-.092-.696-.255-.992-.478-.296-.224-.545-.503-.733-.823zM698.011 394.118c.824.338 1.729.425 2.602.248.872-.176 1.673-.607 2.301-1.239.628-.631 1.054-1.434 1.225-2.308.172-.874.08-1.778-.262-2.6-.343-.822-.922-1.523-1.663-2.016-.742-.493-1.613-.755-2.503-.753-.89.002-1.76.267-2.499.763-.739.496-1.315 1.201-1.654 2.024-.227.547-.343 1.133-.342 1.725 0 .593.118 1.179.346 1.725.228.547.562 1.043.982 1.46.42.417.919.747 1.467.971zM672.58 566.296c.823.34 1.729.427 2.602.252.873-.175 1.675-.606 2.304-1.237.628-.631 1.056-1.434 1.228-2.308.172-.874.081-1.779-.262-2.601-.342-.822-.921-1.525-1.662-2.018-.742-.493-1.613-.755-2.504-.754-.891.002-1.761.269-2.5.765-.74.497-1.315 1.201-1.654 2.025-.455 1.104-.452 2.343.007 3.445.459 1.102 1.337 1.976 2.441 2.431zM770.677 375.895l-14.158 16.331-19.251-16.692 7.365-8.488c9.181 1.198 18.034 4.205 26.044 8.849z" fill="#2297CC"/><path d="M693.594 556.179c5.762 20.506 5.785 42.202.066 62.721-1.873 6.644-3.879 14.867 1.257 19.434 3.987 3.56 10.558 2.519 14.666-.883 4.109-3.402 6.339-8.527 8.242-13.52 9.125-23.756 14.884-48.671 17.113-74.021" fill="#28B6F6"/><path d="M662.925 573.061c-4.218 20.877-14.084 40.197-28.523 55.853-4.667 5.041-10.233 11.46-7.765 17.892 1.918 4.983 8.248 7.052 13.461 5.901 5.213-1.152 9.522-4.721 13.497-8.282 18.94-16.978 35.412-36.522 48.939-58.063M720.487 494.122l-29.381 60.808c2.322.249 84.491 38.144 149.444 15.948 5.149-1.76 13.419-5.596 15.702-10.977 3.845-8.918-11.128-10.58-16.665-12.011-27.073-6.848-53.439-13.951-77.896-27.725-3.762-2.102-42.861-22.606-41.204-26.043z" fill="#28B6F6"/><path d="M780.393 229.139c-.619 3.266-1.222 6.558-1.794 9.763-.709 3.98-1.357 7.829-1.879 11.324-.953 6.297-1.551 11.478-1.458 14.315l.137 3.7.246 8.459c.029.965.048 1.931.051 2.892.04 5.699-.305 11.394-1.033 17.047-.482 3.704-1.127 7.388-1.934 11.05-1.246 5.65-2.88 11.207-4.892 16.632-.521 1.4-1.064 2.791-1.638 4.182-.936 2.269-1.823 4.586-2.601 6.91-1.665 4.815-3.03 9.728-4.087 14.711-.14.668-.274 1.341-.398 2.013-.717 3.667-1.271 7.374-1.636 11.081-.332 3.118-.539 6.245-.622 9.382l-.148 5.693-.283 10.377c-.012.586-.077 1.17-.194 1.744-.28 1.505-.869 2.936-1.729 4.202-.86 1.267-1.973 2.341-3.268 3.157-1.296.815-2.747 1.354-4.261 1.582-1.513.228-3.058.14-4.536-.258l-1.12-.296c-2.411-.642-4.536-2.076-6.033-4.072-1.496-1.996-2.278-4.438-2.218-6.932l.039-1.437.066-.401 1.878-13.052 2.036-14.324c.122-.937.281-1.892.441-2.835.793-4.739 1.869-9.426 3.225-14.036l.024-.092c1.333-4.522 2.928-8.962 4.777-13.298 1.546-3.655 3.278-7.228 5.187-10.706.289-.537.578-1.062.884-1.583 2.241-3.936 4.256-7.997 6.036-12.163 1.499-3.489 2.825-7.041 3.979-10.654.161-.469.311-.937.445-1.41 1.554-5.042 2.772-10.182 3.644-15.385.581-3.498 1.012-7.024 1.293-10.576l.198-2.223.352-4.447c.21-2.591 1.221-7.032 2.72-12.42 1.014-3.669 2.239-7.781 3.578-12.036.69-2.199 1.399-4.441 2.137-6.678.212-.503.597-.914 1.086-1.158.489-.244 1.049-.306 1.579-.173s.995.45 1.311.896c.316.445.463.989.413 1.533z" fill="#fff"/><path d="M778.599 238.902c-.709 3.98-1.357 7.829-1.879 11.324-.708-.262-1.396-.558-2.073-.865-1.532-.726-2.986-1.604-4.342-2.622 1.014-3.669 2.238-7.781 3.578-12.037 1.042 1.465 2.357 2.714 3.871 3.681.248.183.566.38.845.519zM775.398 268.241l.246 8.459c.03.965.049 1.931.052 2.892-3.041-.419-5.999-1.306-8.769-2.629-.382-.185-.759-.375-1.137-.576.581-3.498 1.012-7.024 1.293-10.576l.134-2.189c.915 1.03 1.976 1.922 3.149 2.646 1.563.919 3.262 1.585 5.032 1.973zM774.637 296.667c-.482 3.704-1.127 7.388-1.935 11.05-4.691.002-9.322-1.051-13.551-3.08-.498-.241-.985-.494-1.456-.773 1.499-3.489 2.826-7.041 3.98-10.654.441.325.899.627 1.372.904 2.427 1.372 5.122 2.203 7.9 2.435 1.226.123 2.459.162 3.69.118zM767.81 324.349c-.52 1.4-1.063 2.79-1.638 4.181-.936 2.27-1.822 4.586-2.6 6.911-4.229-.225-8.37-1.297-12.177-3.153-2.128-1.038-4.105-2.361-5.876-3.933 1.556-3.666 3.298-7.251 5.219-10.739 1.331 1.778 3.02 3.258 4.958 4.345 2.371 1.291 4.981 2.085 7.67 2.332 1.204.131 2.416.163 3.625.098.291.003.55-.014.819-.042zM737.498 355.754c1.855 1.661 3.926 3.064 6.157 4.169 4.29 2.127 9.002 3.264 13.79 3.328.37-3.713.925-7.419 1.637-11.081-1.091.06-2.184.028-3.269-.095-2.604-.26-5.134-1.017-7.452-2.231-3.397-1.8-6.082-4.702-7.614-8.229l-3.249 14.139zM756.676 378.326l-.284 10.378c-.012.585-.077 1.169-.193 1.743-1.239.27-2.495.452-3.76.543-5.716.322-11.416-.864-16.53-3.437-.943-.462-1.857-.98-2.738-1.551l1.878-13.052c1.629 2.007 3.674 3.635 5.994 4.772 3.29 1.65 6.956 2.408 10.631 2.199 2.408-.196 4.146-.85 5.002-1.595z" fill="#E53935"/><path d="M793.766 424.901c6.804 11.019 2.32 27.332-10.017 36.454l-.239.173c-7.353 5.319-15.783 6.898-22.822 4.976-4.836-1.259-8.999-4.338-11.618-8.593l44.696-33.01z" fill="#231F20"/><path d="M782.006 459.866c.549.508 1.053 1.065 1.504 1.662-7.353 5.32-15.783 6.898-22.822 4.976.487-2.226 1.563-4.28 3.116-5.947 2.322-2.504 5.544-3.984 8.957-4.114 3.414-.13 6.739 1.101 9.245 3.423z" fill="#B71C1C"/><path d="M749.964 443.092c-1.544 1.38-3.462 2.272-5.512 2.563-2.051.291-4.141-.032-6.008-.928-1.867-.897-3.427-2.326-4.482-4.108-1.055-1.782-1.558-3.837-1.446-5.905.112-2.068.834-4.056 2.076-5.714 1.241-1.658 2.946-2.911 4.898-3.6 1.953-.69 4.067-.785 6.074-.274 2.007.51 3.817 1.604 5.203 3.143 1.858 2.073 2.817 4.798 2.666 7.578-.15 2.779-1.398 5.385-3.469 7.245z" fill="#231F20"/><path d="M749.279 429.671c-3.858-4.286-9.809-5.219-13.293-2.084-3.484 3.136-3.181 9.152.676 13.438 3.857 4.286 9.808 5.219 13.292 2.083 3.484-3.135 3.182-9.151-.675-13.437z" fill="#231F20"/><path opacity=".3" d="M742.107 435.684c1.437 2.83 1.914 8.886 6.787 5.4 4.873-3.486 3.055-6.857 1.618-9.688-1.438-2.83-4.473-4.157-6.808-2.986-2.334 1.171-3.035 4.444-1.597 7.274z" fill="#29B6F6"/><path d="M735.309 432.023l2.868 2.832.973 3.905-2.868-2.821-.973-3.916z" fill="#fff"/><path d="M733.771 437.373l2.837-2.873 3.91-.989-2.837 2.873-3.91.989z" fill="#fff"/><path d="M794.569 413.291c-1.413 1.262-3.168 2.078-5.044 2.344-1.876.266-3.788-.03-5.496-.85a9.59272 9.59272 0 01-4.099-3.759c-.965-1.631-1.425-3.511-1.322-5.402.103-1.892.764-3.711 1.9-5.227 1.136-1.516 2.696-2.662 4.483-3.292 1.787-.631 3.72-.717 5.556-.25 1.836.468 3.492 1.47 4.759 2.878 1.696 1.898 2.571 4.39 2.433 6.931-.138 2.542-1.278 4.924-3.17 6.627z" fill="#231F20"/><path d="M793.911 400.985c-3.527-3.92-8.97-4.773-12.156-1.905-3.186 2.867-2.91 8.369.617 12.289 3.528 3.919 8.97 4.772 12.157 1.904 3.186-2.867 2.909-8.369-.618-12.288z" fill="#231F20"/><path d="M798.552 405.778c-.179-.277-.282-.597-.298-.926-2.939.984-5.628 2.595-7.882 4.722-4.977 4.482-7.426 9.883-5.471 12.058 1.955 2.175 7.587.316 12.57-4.172.961-.873 1.858-1.816 2.681-2.821-.045-3.065-.011-6.245-1.6-8.861z" fill="#29B6F6"/><path opacity=".3" d="M787.816 407.944c1.318 2.59 1.754 8.123 6.208 4.944 4.455-3.178 2.8-6.268 1.477-8.863-1.323-2.596-4.102-3.816-6.207-2.742-2.105 1.073-2.796 4.07-1.478 6.661z" fill="#29B6F6"/><path d="M781.734 401.835l2.624 2.579.895 3.578-2.63-2.584-.889-3.573z" fill="#fff"/><path d="M780.324 406.729l2.59-2.635 3.583-.9-2.595 2.63-3.578.905z" fill="#fff"/><path d="M750.163 448.609c-5.83 4.061-11.996 5.286-13.756 2.717-1.76-2.568 1.517-7.909 7.347-11.969 5.83-4.061 12.002-5.291 13.756-2.718 1.755 2.574-1.511 7.904-7.347 11.97z" fill="#29B6F6"/><circle cx="636.572" cy="453.755" r="1.90798" transform="rotate(-46.446 636.572 453.755)" fill="#fff"/><circle cx="613.189" cy="468.38" r="1.90798" transform="rotate(-46.446 613.189 468.38)" fill="#fff"/><path fill-rule="evenodd" clip-rule="evenodd" d="M825.129 175.532l254.141 434.781c7.24 12.4 1.33 28.33-12.26 32.993L582.997 809.439 360.838 303.705l428.589-141.664c13.593-4.493 28.477 1.131 35.702 13.491zm-34.136 456.746c72.727-35.056 96.778-135.888 53.72-225.215-43.058-89.327-136.92-133.323-209.646-98.267-72.727 35.056-96.778 135.889-53.72 225.216 43.058 89.327 136.92 133.322 209.646 98.266z" fill="#9D87F5"/><path fill-rule="evenodd" clip-rule="evenodd" d="M847.643 413.39c-.837-1.883-1.703-3.761-2.598-5.635-.11-.231-.221-.462-.332-.692-.111-.231-.223-.461-.334-.691-.909-1.868-1.839-3.715-2.791-5.543-.095-.183-.191-.365-.286-.548-.965-1.84-1.952-3.658-2.96-5.456-.1-.18-.202-.36-.303-.54-1.02-1.808-2.062-3.595-3.125-5.361-.263-.437-.528-.873-.794-1.307-1.082-1.77-2.185-3.517-3.308-5.242-.114-.175-.228-.35-.342-.524-1.137-1.735-2.295-3.448-3.473-5.137-.119-.171-.238-.342-.358-.512-1.191-1.698-2.402-3.373-3.633-5.023-.304-.407-.609-.813-.915-1.218-1.251-1.653-2.521-3.282-3.811-4.886-.131-.163-.262-.326-.394-.488-1.304-1.613-2.627-3.2-3.968-4.761-.137-.159-.273-.318-.41-.476-1.356-1.569-2.73-3.111-4.122-4.627-.345-.376-.692-.751-1.04-1.125a204.5566 204.5566 0 00-4.296-4.471c-.146-.148-.292-.295-.439-.442-1.465-1.471-2.947-2.913-4.446-4.326-.151-.143-.302-.285-.454-.427-1.513-1.419-3.043-2.81-4.589-4.17-.382-.336-.764-.67-1.148-1.003-1.567-1.358-3.15-2.687-4.748-3.985l-.486-.393c-1.615-1.303-3.245-2.575-4.888-3.816-.167-.125-.333-.251-.5-.376-1.66-1.244-3.334-2.456-5.02-3.635-.419-.293-.838-.584-1.258-.872-1.709-1.174-3.43-2.315-5.164-3.421-.177-.113-.354-.226-.531-.338-1.752-1.11-3.516-2.186-5.291-3.227-.181-.106-.363-.212-.544-.317-1.792-1.042-3.595-2.049-5.409-3.019-.448-.24-.897-.478-1.346-.713-1.84-.964-3.689-1.891-5.548-2.781-.186-.089-.372-.177-.558-.266-1.878-.89-3.764-1.742-5.659-2.555-.19-.081-.379-.162-.569-.243-1.911-.812-3.83-1.584-5.757-2.317-.475-.181-.951-.359-1.427-.535-1.945-.719-3.897-1.397-5.855-2.035-.199-.064-.397-.128-.596-.192-1.975-.634-3.956-1.226-5.942-1.776-.201-.056-.402-.111-.603-.166-2-.545-4.005-1.047-6.013-1.505-.497-.114-.994-.224-1.491-.332-2.024-.44-4.05-.836-6.079-1.186-.207-.036-.414-.071-.622-.106-2.043-.344-4.087-.642-6.133-.894-.208-.026-.417-.051-.626-.076-2.055-.243-4.11-.44-6.165-.59-.508-.037-1.017-.071-1.525-.102-2.064-.127-4.127-.205-6.188-.235-.21-.004-.421-.006-.632-.008-2.068-.021-4.134.008-6.196.086-.211.008-.421.017-.632.026-2.064.089-4.124.227-6.178.416-.507.047-1.014.096-1.52.149-2.054.214-4.103.479-6.144.795-.207.032-.414.065-.621.098-2.04.327-4.072.705-6.096 1.135-.205.044-.41.088-.615.133-2.015.439-4.021.93-6.018 1.473-.49.133-.979.27-1.468.409-1.981.566-3.952 1.184-5.911 1.855-.199.068-.397.136-.594.205-1.947.677-3.881 1.407-5.803 2.189-.194.079-.388.158-.581.238-1.902.785-3.79 1.622-5.665 2.511-.231.11-.461.22-.692.331-.231.111-.461.223-.69.336-1.863.912-3.694 1.868-5.493 2.867-.183.101-.366.203-.549.306-1.808 1.016-3.584 2.075-5.326 3.176-.178.112-.354.224-.531.337-1.745 1.115-3.456 2.272-5.133 3.469-.414.295-.825.593-1.235.893-1.668 1.224-3.302 2.487-4.901 3.79-.162.132-.325.265-.487.399-1.597 1.315-3.158 2.669-4.685 4.061-.155.142-.309.284-.463.426-1.519 1.399-3.002 2.837-4.45 4.31-.356.364-.711.729-1.063 1.097-1.428 1.489-2.819 3.014-4.174 4.574-.138.159-.276.318-.413.478-1.346 1.564-2.655 3.162-3.928 4.793-.13.166-.259.333-.388.499-1.26 1.631-2.483 3.294-3.67 4.988-.292.417-.582.836-.87 1.256-1.163 1.701-2.289 3.432-3.379 5.191-.11.179-.221.358-.331.537-1.077 1.757-2.117 3.542-3.121 5.354-.102.184-.203.368-.304.553-.99 1.805-1.943 3.637-2.859 5.494-.225.456-.448.914-.669 1.373-.892 1.856-1.748 3.737-2.568 5.642-.083.191-.165.383-.246.575-.807 1.896-1.578 3.814-2.312 5.755-.074.195-.148.39-.221.585-.721 1.929-1.406 3.879-2.055 5.848-.159.482-.316.966-.471 1.45-.627 1.964-1.218 3.946-1.773 5.947-.055.199-.11.397-.165.596-.544 1.989-1.052 3.996-1.525 6.019-.047.2-.094.401-.14.602-.462 2.008-.889 4.033-1.281 6.072-.096.498-.189.998-.281 1.498-.37 2.023-.706 4.061-1.007 6.111-.031.208-.061.416-.091.624-.291 2.037-.549 4.087-.772 6.148l-.066.627c-.214 2.045-.395 4.103-.541 6.17-.035.509-.069 1.018-.101 1.527-.128 2.055-.223 4.119-.283 6.193-.006.208-.012.416-.017.625-.054 2.058-.074 4.125-.06 6.2.001.209.003.417.005.626.02 2.058.073 4.124.159 6.196.021.507.044 1.015.07 1.523.101 2.056.236 4.119.403 6.188.017.207.034.413.051.62.172 2.053.377 4.111.615 6.173.024.206.048.413.072.619.242 2.045.516 4.094.822 6.146.076.505.153 1.01.232 1.515.319 2.033.67 4.068 1.052 6.106.039.206.078.411.117.617.386 2.022.804 4.045 1.253 6.07.045.204.09.409.136.613.452 2.008.935 4.016 1.448 6.025.126.491.254.982.383 1.474.525 1.991 1.08 3.981 1.667 5.97l.177.6c.588 1.974 1.207 3.946 1.856 5.916.065.198.13.396.196.594.65 1.953 1.33 3.905 2.04 5.854.174.478.351.957.529 1.435.719 1.931 1.468 3.86 2.247 5.784.077.191.155.383.233.574.778 1.908 1.587 3.813 2.425 5.713.083.189.166.378.25.566.837 1.883 1.703 3.762 2.598 5.635.11.231.221.462.332.693.111.23.223.46.335.69.908 1.868 1.838 3.716 2.79 5.543.095.183.191.366.287.548.964 1.84 1.951 3.659 2.959 5.457.101.18.202.359.303.539 1.02 1.808 2.062 3.596 3.125 5.361.263.437.528.873.794 1.308 1.082 1.769 2.185 3.517 3.308 5.242.114.174.228.349.342.523 1.137 1.736 2.295 3.448 3.473 5.137.119.171.239.342.358.513 1.191 1.698 2.402 3.372 3.633 5.022.304.408.609.814.915 1.218 1.251 1.653 2.522 3.282 3.811 4.886.131.163.262.326.394.489 1.304 1.612 2.627 3.199 3.969 4.761.136.159.273.317.409.475 1.356 1.569 2.73 3.111 4.122 4.627.345.377.692.752 1.04 1.125 1.415 1.518 2.847 3.009 4.296 4.472l.439.442c1.465 1.47 2.947 2.912 4.446 4.326.151.142.302.285.454.427 1.513 1.419 3.044 2.809 4.589 4.17.382.336.764.67 1.148 1.002 1.567 1.359 3.15 2.687 4.748 3.985.162.131.324.263.486.393 1.615 1.304 3.245 2.576 4.888 3.816.167.126.333.251.5.376 1.66 1.244 3.334 2.456 5.021 3.636.418.292.837.583 1.257.872 1.709 1.173 3.43 2.314 5.164 3.421.177.113.354.226.531.338 1.752 1.11 3.516 2.185 5.291 3.226.182.106.363.212.544.318 1.792 1.042 3.595 2.048 5.409 3.019.448.24.897.477 1.346.713 1.84.964 3.689 1.891 5.548 2.78.186.089.372.178.559.266 1.877.89 3.764 1.742 5.658 2.555.19.082.379.163.569.243 1.911.812 3.83 1.585 5.757 2.317.475.181.951.36 1.427.536 1.945.719 3.898 1.397 5.855 2.034.199.065.397.129.596.192 1.975.635 3.956 1.227 5.942 1.777.201.055.402.111.603.165 2.001.545 4.005 1.047 6.013 1.506.497.113.994.224 1.491.332 2.024.44 4.05.835 6.079 1.186.207.035.414.071.622.106 2.043.343 4.088.641 6.133.893.208.026.417.051.626.076 2.055.244 4.111.44 6.165.59.509.037 1.017.071 1.525.102 2.064.127 4.127.206 6.188.236.211.003.421.006.632.008 2.069.02 4.135-.009 6.197-.087.21-.008.42-.017.631-.026 2.064-.088 4.124-.227 6.178-.416.507-.046 1.014-.096 1.52-.149 2.054-.214 4.103-.479 6.144-.795.207-.032.414-.065.622-.098 2.039-.327 4.072-.705 6.095-1.135.205-.043.411-.088.615-.132 2.015-.439 4.022-.93 6.018-1.473.49-.134.979-.27 1.468-.41 1.981-.566 3.952-1.184 5.912-1.855.198-.067.396-.136.594-.205 1.946-.677 3.88-1.406 5.802-2.188.194-.079.388-.159.582-.239 1.901-.785 3.789-1.622 5.664-2.511.231-.109.462-.22.692-.331.231-.111.461-.223.69-.335 1.864-.913 3.695-1.869 5.493-2.867l.549-.306c1.809-1.017 3.584-2.076 5.327-3.176.177-.112.353-.224.53-.337 1.745-1.115 3.456-2.272 5.133-3.47.414-.295.826-.593 1.235-.893 1.669-1.223 3.302-2.487 4.901-3.79.163-.132.325-.265.487-.398 1.597-1.315 3.159-2.67 4.685-4.062.155-.141.309-.283.464-.425 1.518-1.4 3.002-2.837 4.449-4.311.356-.363.711-.729 1.063-1.096 1.428-1.49 2.819-3.015 4.174-4.574.138-.159.276-.319.413-.478 1.346-1.565 2.656-3.163 3.928-4.794.13-.166.259-.332.388-.499 1.26-1.631 2.483-3.294 3.67-4.988.292-.416.582-.835.87-1.256 1.163-1.701 2.289-3.431 3.379-5.191.111-.178.221-.357.331-.537 1.077-1.756 2.117-3.542 3.121-5.354.102-.184.203-.368.304-.553.99-1.805 1.943-3.636 2.859-5.494.226-.456.448-.913.669-1.373.892-1.856 1.749-3.737 2.568-5.641.083-.192.165-.383.246-.575.807-1.896 1.578-3.815 2.312-5.755.074-.195.148-.391.221-.586.721-1.929 1.406-3.878 2.056-5.848.159-.482.315-.965.47-1.45.627-1.963 1.218-3.946 1.773-5.947.056-.198.11-.397.165-.596.544-1.989 1.052-3.995 1.526-6.018.047-.201.093-.402.139-.603.462-2.008.889-4.032 1.281-6.072.096-.498.19-.997.281-1.497.37-2.023.706-4.061 1.007-6.112.031-.208.061-.415.091-.623.291-2.037.549-4.087.772-6.149.022-.209.045-.417.066-.626.215-2.046.395-4.103.541-6.171.036-.508.069-1.017.101-1.527.128-2.054.223-4.119.283-6.192l.018-.625c.053-2.059.073-4.126.059-6.201-.001-.208-.003-.417-.005-.625-.02-2.059-.073-4.125-.159-6.197-.021-.507-.044-1.014-.069-1.522-.102-2.057-.236-4.12-.404-6.188-.016-.207-.034-.414-.051-.621-.172-2.053-.377-4.111-.615-6.173-.023-.206-.048-.412-.072-.619-.242-2.045-.516-4.094-.822-6.146-.076-.504-.153-1.009-.232-1.514-.319-2.033-.67-4.069-1.052-6.107-.039-.205-.078-.411-.117-.616-.386-2.022-.803-4.046-1.252-6.071-.046-.204-.091-.408-.137-.613-.452-2.007-.934-4.016-1.448-6.024-.126-.492-.254-.983-.383-1.475-.525-1.99-1.08-3.981-1.666-5.97-.059-.2-.119-.4-.178-.6-.588-1.973-1.206-3.946-1.855-5.916-.066-.198-.131-.396-.197-.594-.65-1.953-1.33-3.905-2.04-5.853-.174-.479-.35-.957-.529-1.436-.719-1.931-1.468-3.859-2.247-5.784-.077-.191-.155-.382-.233-.573-.778-1.909-1.587-3.813-2.425-5.714-.083-.189-.166-.377-.25-.566zm9.903-.159c3.59 1.334 6.601 4.163 8.043 8.034.189.508.376 1.016.561 1.524 1.415 3.883.958 7.992-.912 11.337 3.447 1.68 6.169 4.794 7.222 8.793.138.523.274 1.046.408 1.569 1.026 4.009.16 8.059-2.038 11.205 3.265 2.022 5.663 5.402 6.305 9.493.085.539.167 1.077.247 1.615.613 4.104-.67 8.054-3.191 10.961 3.047 2.356 5.083 5.979 5.288 10.127.027.543.051 1.086.074 1.628.173 4.157-1.532 7.957-4.361 10.581 2.78 2.681 4.41 6.519 4.151 10.676-.034.547-.071 1.094-.109 1.639-.294 4.165-2.428 7.761-5.55 10.05 2.461 2.996 3.637 7.015 2.884 11.127-.099.539-.2 1.078-.303 1.615-.792 4.123-3.362 7.453-6.762 9.349 2.087 3.295 2.756 7.456 1.477 11.462-.168.526-.338 1.051-.511 1.574-1.321 4.008-4.323 6.992-7.965 8.427 1.638 3.565 1.734 7.805-.098 11.617-.241.502-.485 1.002-.731 1.501-1.88 3.809-5.299 6.352-9.135 7.25 1.108 3.79.57 8.028-1.833 11.542-.316.463-.636.925-.957 1.384-2.454 3.502-6.254 5.499-10.211 5.783.498 3.943-.722 8.069-3.687 11.161-.39.408-.783.813-1.179 1.216-3.012 3.067-7.118 4.411-11.087 4.019-.177 3.989-2.095 7.866-5.566 10.411-.456.334-.914.665-1.374.994-3.507 2.504-7.795 3.111-11.643 2.026-.875 3.901-3.447 7.383-7.316 9.278-.255.125-.511.25-.768.373-.256.124-.513.247-.77.369-3.892 1.846-8.219 1.688-11.815-.057-1.548 3.686-4.694 6.662-8.838 7.846-.544.155-1.088.307-1.634.456-4.153 1.13-8.38.215-11.611-2.132-2.166 3.35-5.774 5.725-10.051 6.171-.561.058-1.123.113-1.685.165-4.266.392-8.254-1.223-11.028-4.069-2.686 2.919-6.616 4.648-10.884 4.386-.56-.035-1.12-.072-1.679-.113-4.246-.309-7.896-2.529-10.171-5.756-3.092 2.441-7.212 3.532-11.362 2.63-.544-.119-1.087-.24-1.63-.363-4.123-.942-7.38-3.658-9.149-7.16-3.391 1.955-7.595 2.445-11.554.982-.517-.191-1.033-.385-1.549-.581-3.93-1.496-6.769-4.61-8.046-8.296-3.602 1.479-7.808 1.415-11.526-.533-.485-.254-.969-.511-1.452-.769-3.686-1.973-6.098-5.396-6.908-9.188-3.736 1.017-7.878.446-11.319-1.918-.451-.31-.901-.622-1.35-.936-3.414-2.387-5.401-6.053-5.767-9.898-3.814.579-7.849-.454-10.994-3.179-.41-.356-.819-.713-1.227-1.072-3.117-2.744-4.683-6.595-4.628-10.445-3.845.161-7.734-1.296-10.563-4.332-.371-.398-.74-.797-1.109-1.199-2.801-3.051-3.951-7.032-3.498-10.846-3.831-.24-7.538-2.085-10.036-5.386-.326-.43-.65-.862-.974-1.296-2.471-3.315-3.212-7.384-2.379-11.127-3.782-.621-7.281-2.822-9.437-6.348-.282-.462-.563-.925-.843-1.389-2.13-3.539-2.467-7.656-1.274-11.296-3.7-.984-6.966-3.51-8.771-7.223-.119-.243-.237-.488-.355-.732-.118-.245-.235-.49-.352-.734-1.78-3.725-1.722-7.854-.187-11.361-3.59-1.334-6.601-4.163-8.042-8.033-.19-.508-.377-1.017-.562-1.525-1.415-3.883-.958-7.991.912-11.337-3.446-1.68-6.169-4.794-7.222-8.792-.138-.523-.274-1.046-.408-1.569-1.026-4.01-.16-8.06 2.038-11.206-3.265-2.021-5.663-5.401-6.305-9.493-.084-.538-.167-1.077-.247-1.615-.613-4.104.67-8.054 3.191-10.961-3.047-2.355-5.083-5.979-5.288-10.127-.027-.543-.051-1.085-.074-1.628-.173-4.157 1.532-7.957 4.361-10.58-2.78-2.682-4.41-6.52-4.151-10.677.035-.547.071-1.093.109-1.639.294-4.165 2.428-7.76 5.55-10.05-2.461-2.995-3.637-7.014-2.884-11.127.099-.539.2-1.077.303-1.615.792-4.123 3.362-7.453 6.763-9.349-2.088-3.294-2.756-7.456-1.478-11.462.168-.526.338-1.05.511-1.574 1.322-4.008 4.323-6.992 7.965-8.427-1.638-3.564-1.734-7.805.098-11.616.241-.502.485-1.003.731-1.501 1.88-3.809 5.299-6.353 9.135-7.251-1.108-3.79-.57-8.028 1.833-11.542.316-.463.636-.924.958-1.384 2.453-3.501 6.254-5.499 10.21-5.782-.498-3.943.722-8.069 3.687-11.162.39-.407.783-.813 1.179-1.215 3.012-3.068 7.118-4.411 11.088-4.019.176-3.99 2.094-7.866 5.565-10.411.456-.334.914-.666 1.375-.995 3.507-2.503 7.794-3.111 11.642-2.026.875-3.9 3.447-7.383 7.316-9.278.256-.125.511-.249.768-.373.256-.124.513-.246.77-.368 3.893-1.846 8.219-1.689 11.815.056 1.548-3.686 4.695-6.662 8.838-7.846.544-.155 1.088-.307 1.634-.455 4.153-1.13 8.38-.216 11.611 2.131 2.166-3.35 5.775-5.725 10.051-6.17.561-.059 1.123-.114 1.685-.166 4.266-.392 8.254 1.223 11.028 4.069 2.687-2.918 6.616-4.647 10.884-4.385.56.034 1.12.072 1.68.112 4.245.309 7.895 2.529 10.17 5.757 3.092-2.442 7.212-3.532 11.363-2.63.543.118 1.086.239 1.629.363 4.123.941 7.38 3.658 9.149 7.159 3.391-1.955 7.595-2.444 11.554-.981.517.191 1.033.385 1.549.581 3.93 1.495 6.77 4.61 8.046 8.295 3.602-1.479 7.808-1.415 11.526.534.485.254.969.51 1.453.769 3.686 1.973 6.097 5.396 6.908 9.187 3.735-1.016 7.877-.445 11.318 1.919.451.31.901.622 1.35.936 3.414 2.386 5.401 6.053 5.767 9.898 3.815-.58 7.85.454 10.994 3.179.41.355.819.713 1.227 1.072 3.117 2.744 4.683 6.594 4.629 10.444 3.844-.161 7.733 1.296 10.562 4.332.371.398.741.798 1.109 1.199 2.801 3.051 3.952 7.033 3.499 10.846 3.83.24 7.537 2.086 10.035 5.386.326.431.651.863.974 1.296 2.471 3.315 3.212 7.384 2.38 11.127 3.781.621 7.28 2.823 9.436 6.348.282.462.563.925.843 1.39 2.13 3.538 2.467 7.656 1.275 11.295 3.699.984 6.965 3.51 8.77 7.223.119.244.237.488.355.733.085.175.169.351.253.527.034.069.067.138.1.207 1.779 3.725 1.721 7.854.186 11.36z" fill="#F9D231"/></g><defs><clipPath id="clip0"><path fill="#fff" d="M0 0h1440v1024H0z"/></clipPath><clipPath id="clip1"><path fill="#fff" d="M-270-421h1979.4v1865.4H-270z"/></clipPath></defs></svg>