<svg xmlns="http://www.w3.org/2000/svg" width="81" height="172" viewBox="-296.77 412.544 81 172"><path fill="#0098D1" d="M-249.603 424.395c-10.042 12.003-46.542 62.1-28.368 137.604h20.06a9.94 9.94 0 0 0-1.067 4.478v8c0 5.52 4.48 10 10 10 5.523 0 10-4.48 10-10v-8c0-1.613-.39-3.13-1.068-4.48h18.81c18.174-75.504-18.326-125.6-28.368-137.603"/><path fill="#B47645" d="M-260.936 415.728c-10.042 12.002-46.542 62.098-28.368 137.603h56.734c18.176-75.504-18.324-125.6-28.366-137.602"/><path stroke="#D6B06E" stroke-width="4" stroke-miterlimit="10" d="M-260.936 415.728c-10.042 12.002-46.542 62.098-28.368 137.603h56.734c18.176-75.504-18.324-125.6-28.366-137.602z" fill="none"/><path fill="#924496" d="M-249.217 529.778a3.253 3.253 0 0 1-3.254 3.252h-16.724a3.254 3.254 0 0 1 0-6.506h16.724a3.253 3.253 0 0 1 3.253 3.254"/><path fill="#924496" d="M-247.217 529.112a3.253 3.253 0 0 1-3.254 3.252h-16.724a3.254 3.254 0 0 1 0-6.507h16.724a3.253 3.253 0 0 1 3.253 3.255"/><path fill="#924496" d="M-268.812 544.346a3.251 3.251 0 0 1-3.252-3.252v-8.564a3.253 3.253 0 1 1 6.507 0v8.564a3.253 3.253 0 0 1-3.255 3.252m20.789-32.371a3.253 3.253 0 0 1 3.253 3.254v8.563c0 1.797-1.456 3.252-3.253 3.252s-3.252-1.455-3.252-3.252v-8.564c0-1.8 1.455-3.255 3.252-3.255"/><path fill="#FEE18C" d="M-271.897 547.375a3.027 3.027 0 1 1 6.057 0 3.029 3.029 0 0 1-6.057 0m26.871-38.428c0 1.675-1.354 3.028-3.028 3.028s-3.03-1.354-3.03-3.028a3.03 3.03 0 1 1 6.058 0m-13.227 8.857l-1.545-8.75c.118-.844-1.07-1.217-1.242 0l-1.303 9.267 4.09-.516z"/><path fill="#fff" d="M-250.417 525.688c0 5.484-4.447 9.932-9.932 9.932-5.484 0-9.932-4.445-9.932-9.932s4.446-9.932 9.933-9.932c5.485 0 9.933 4.448 9.933 9.932m-7.332 15.607a2.603 2.603 0 1 1-2.603-2.604 2.604 2.604 0 0 1 2.603 2.605"/><path fill="#924496" d="M-252.223 525.655c0 4.46-8.076 12.98-8.076 12.98s-8.075-8.52-8.075-12.98c0-4.46 3.616-8.076 8.076-8.076s8.077 3.614 8.077 8.075"/><path fill="#fff" d="M-250.31 565.81c0 5.524-4.48 10-10 10-5.524 0-10-4.476-10-10v-8c0-5.522 4.476-10 10-10 5.52 0 10 4.478 10 10v8z"/><path fill="#FEDF00" d="M-266.94 435.642h15.123v15.122h-15.122z"/><path fill="#924496" d="M-258.526 444.087h6.71v-2.026h-6.71v-6.417h-2.03v6.418h-6.383v2.027h6.385v6.678h2.03zm-16.054 9.935h13.136v13.134h-13.137z"/><path fill="#49B880" d="M-267.31 461.31h5.866v-1.666h-5.867v-5.622h-1.67v5.622h-5.6v1.667h5.6v5.848h1.67z"/><path fill="#FEDF00" d="M-277.197 469.367h15.12v15.12h-15.12z"/><path fill="#DA4737" d="M-268.785 477.81h6.71v-2.025h-6.71v-6.418h-2.026v6.418h-6.388v2.026h6.387v6.678h2.025zm13.23-26.456h11.736v11.733h-11.735z"/><path fill="#F68B37" d="M-248.832 458.1h5.014v-2.026h-5.014v-4.72h-2.027v4.72h-4.695v2.027h4.696v4.987h2.028z"/><path fill="#49B880" d="M-259.08 464.522h13.136v13.134h-13.137z"/><path fill="#FEDF00" d="M-251.81 471.81h5.866v-1.666h-5.867v-5.622h-1.67v5.622h-5.6v1.667h5.6v5.848h1.67z"/><path fill="#D6B06E" d="M-292.81 487.81h63.5v13.5h-63.5z"/></svg>