<svg xmlns="http://www.w3.org/2000/svg" width="81" height="164" viewBox="-296.77 416.544 81 164" enable-background="new -296.77 416.544 81 164"><g><path fill="#0098D1" d="M-252.47 423.656c-20.053 0-36.366 16.314-36.366 36.367v90.242c0 9.81 6.487 16.402 16.142 16.402h10.192v3.432c0 5.52 4.48 10 10 10 5.522 0 10-4.48 10-10v-3.433h9.73c7.69 0 16.67-4.71 16.67-17.98v-88.665c0-20.052-16.315-36.366-36.368-36.366m20.367 125.033c0 1.036-.123 1.644-.217 1.954-.11.014-.263.023-.45.023h-39.924c-.045 0-.088 0-.128-.002-.01-.11-.015-.248-.015-.4v-90.242c0-11.23 9.137-20.367 20.366-20.367 11.228 0 20.367 9.137 20.367 20.367v88.666z"/><path fill="#58595B" d="M-232.103 542.023v-88.668c0-15.664-12.7-28.365-28.367-28.365-15.667 0-28.367 12.7-28.367 28.365V543.6c0 5.25 2.89 8.403 8.142 8.403h39.924c4.2 0 8.667-2.1 8.667-9.98"/><path stroke="#EC633D" stroke-width="16" stroke-miterlimit="10" d="M-232.103 542.023v-88.668c0-15.664-12.7-28.365-28.367-28.365-15.667 0-28.367 12.7-28.367 28.365V543.6c0 5.25 2.89 8.403 8.142 8.403h39.924c4.2 0 8.667-2.1 8.667-9.98z" fill="none"/><path stroke="#58595B" stroke-miterlimit="10" fill="none" d="M-296.77 524.023h15.667"/><path stroke="#58595B" stroke-miterlimit="10" fill="none" d="M-296.77 462.982h15.667"/><path stroke="#58595B" stroke-miterlimit="10" fill="none" d="M-239.77 524.023h15.667"/><path stroke="#58595B" stroke-miterlimit="10" fill="none" d="M-239.77 462.982h15.667"/><path fill="#fff" d="M-250.5 563.433c0 5.52-4.48 10-10 10-5.524 0-10-4.48-10-10v-8c0-5.523 4.476-10 10-10 5.52 0 10 4.477 10 10v8z"/><path fill="#D6B06E" d="M-280.77 482.316h40.666v12.666h-40.667z"/><path fill="#21AAE2" d="M-249.405 527.027c0 1.795-1.457 3.252-3.254 3.252h-16.723c-1.795 0-3.252-1.458-3.252-3.253 0-1.797 1.457-3.254 3.252-3.254h16.724c1.798 0 3.255 1.457 3.255 3.254"/><path fill="#21AAE2" d="M-269.002 541.597c-1.796 0-3.252-1.457-3.252-3.254v-8.564c0-1.798 1.456-3.255 3.252-3.255 1.798 0 3.255 1.457 3.255 3.254v8.563c0 1.797-1.457 3.254-3.255 3.254"/><path fill="#21AAE2" d="M-248.213 509.226c1.797 0 3.253 1.455 3.253 3.252v8.564c0 1.797-1.456 3.252-3.253 3.252s-3.252-1.455-3.252-3.252v-8.564c0-1.797 1.456-3.252 3.252-3.252"/><path fill="#FEE18C" d="M-272.087 544.625c0-1.674 1.355-3.027 3.028-3.027 1.674 0 3.03 1.354 3.03 3.027 0 1.672-1.356 3.03-3.03 3.03-1.672 0-3.027-1.36-3.027-3.03"/><path fill="#FEE18C" d="M-245.215 506.195c0 1.674-1.354 3.03-3.028 3.03s-3.03-1.356-3.03-3.03c0-1.672 1.356-3.03 3.03-3.03 1.672 0 3.028 1.358 3.028 3.03"/><path fill="#FEE18C" d="M-258.442 515.054l-1.545-8.75c.118-.844-1.07-1.22-1.242 0l-1.302 9.268 4.09-.518z"/><path fill="#fff" d="M-250.606 522.94c0 5.483-4.446 9.93-9.932 9.93-5.485 0-9.932-4.446-9.932-9.93 0-5.487 4.446-9.933 9.932-9.933 5.485 0 9.932 4.444 9.932 9.932"/><path fill="#fff" d="M-257.935 538.544c0 1.438-1.164 2.604-2.603 2.604-1.437 0-2.603-1.166-2.603-2.604s1.165-2.604 2.602-2.604c1.44 0 2.603 1.167 2.603 2.604"/><path fill="#21AAE2" d="M-252.412 522.904c0 4.46-8.076 12.98-8.076 12.98s-8.076-8.52-8.076-12.98 3.616-8.076 8.076-8.076 8.076 3.615 8.076 8.076"/><path fill="#21AAE2" d="M-273.538 448.234h13.135v13.135h-13.135z"/><path fill="#49B880" d="M-266.27 455.523h5.867v-1.668h-5.867v-5.62h-1.668v5.62h-5.6v1.668h5.6v5.846h1.668z"/><path fill="#FEDF00" d="M-276.156 463.578h15.122V478.7h-15.122z"/><path fill="#DA4737" d="M-267.743 472.023h6.71v-2.027h-6.71v-6.418h-2.027v6.418h-6.385v2.027h6.385v6.676h2.027z"/><path fill="#F68B37" d="M-254.512 445.566h11.735v11.732h-11.735z"/><path fill="#FEDF00" d="M-247.79 452.314h5.014v-2.03h-5.014v-4.718h-2.027v4.72h-4.696v2.028h4.696v4.986h2.027z"/><path fill="#FEDF00" d="M-258.038 458.734h13.135v13.135h-13.135z"/><path fill="#49B880" d="M-250.77 466.023h5.867v-1.668h-5.868v-5.62h-1.668v5.62h-5.6v1.668h5.6v5.846h1.667z"/><path fill="#FEDF00" d="M-259.437 465.355"/></g></svg>