<svg xmlns="http://www.w3.org/2000/svg" width="68.709" height="108.36" viewBox="0 0 68.709 108.36"><ellipse fill="#FCDE00" cx="34.355" cy="60.54" rx="34.355" ry="37.341"/><ellipse fill="#F68A35" cx="34.355" cy="60.352" rx="20.057" ry="24.738"/><path fill="#fff" d="M43.836 99.622c0 4.826-4.098 8.738-9.152 8.738-5.055 0-9.152-3.912-9.152-8.738v-6.99c0-4.826 4.097-8.738 9.152-8.738 5.055 0 9.152 3.912 9.152 8.738v6.99z"/><path fill="#A58F0E" d="M38.584 43.353c9.62 0 17.59-4.462 19.025-10.293-6.12-6.12-14.284-9.86-23.255-9.86-4.706 0-9.19 1.03-13.274 2.89-1.12 1.547-1.752 3.266-1.752 5.08 0 6.728 8.62 12.183 19.256 12.183z" opacity=".2"/><ellipse fill="#F68A35" cx="34.734" cy="15.762" rx="6.754" ry="15.762"/><ellipse fill="#FCDE00" cx="34.96" cy="25.531" rx="16.405" ry="15.662"/><ellipse fill="#333" cx="21.039" cy="26.031" rx=".938" ry="4.299"/><ellipse fill="#333" cx="48.68" cy="26.031" rx=".938" ry="4.299"/><path stroke="#EB2227" stroke-width="5" stroke-miterlimit="10" d="M46.553 85.158" fill="none"/><path fill="#FCDE00" d="M6.265 58.99h53.31v7.14H6.265z"/><path fill="#49B680" d="M27.27 68.663h12.02V80.14H27.27z"/><path fill="#FCDE00" d="M33.92 75.03h5.37v-1.456h-5.37v-4.91h-1.526v4.91H27.27v1.457h5.124v5.11h1.527z"/><path fill="#D94736" d="M36.14 47.69h10.74v10.253H36.14z"/><path fill="#F68A35" d="M42.292 53.586h4.588v-1.772h-4.588V47.69h-1.856v4.124H36.14v1.772h4.296v4.357h1.856z"/><path fill="#924495" d="M23.02 47.763h10.742v10.253h-10.74z"/><path fill="#49B680" d="M29.174 53.66h4.588v-1.773h-4.588v-4.124h-1.856v4.124H23.02v1.772h4.298v4.356h1.856z"/></svg>