<svg xmlns="http://www.w3.org/2000/svg" width="41" height="41" viewBox="0 0 41 41"><path fill="#AAD3E4" d="M39.85 26.144c1.433 2.077 1.012 4.058-1.07 5.3.56 2.36-.543 3.98-2.918 4.328-.35 2.376-1.97 3.48-4.328 2.92-1.243 2.08-3.224 2.502-5.3 1.068-2.078 1.434-4.06 1.013-5.3-1.07-2.36.56-3.98-.542-4.33-2.918-2.374-.348-3.476-1.97-2.917-4.328-2.082-1.242-2.503-3.223-1.07-5.3-1.433-2.078-1.012-4.058 1.07-5.3-.56-2.36.543-3.98 2.918-4.328.348-2.376 1.97-3.478 4.328-2.918 1.242-2.083 3.223-2.504 5.3-1.07 2.077-1.434 4.058-1.013 5.3 1.07 2.36-.56 3.98.542 4.33 2.918 2.374.348 3.477 1.97 2.917 4.328 2.08 1.242 2.502 3.22 1.07 5.3"/><path fill="#007F4A" d="M28.384 14.856c1.433 2.078 1.012 4.057-1.07 5.3.56 2.36-.543 3.98-2.918 4.328-.348 2.377-1.97 3.48-4.328 2.918-1.243 2.084-3.223 2.504-5.3 1.07-2.078 1.434-4.058 1.014-5.3-1.07-2.36.56-3.98-.54-4.33-2.918-2.374-.348-3.476-1.97-2.917-4.328-2.08-1.243-2.502-3.222-1.07-5.3C-.28 12.778.14 10.8 2.22 9.556c-.558-2.36.544-3.98 2.92-4.328.347-2.376 1.97-3.478 4.327-2.918 1.243-2.083 3.223-2.504 5.3-1.07 2.078-1.434 4.058-1.013 5.3 1.07 2.358-.56 3.98.542 4.33 2.918 2.374.348 3.476 1.97 2.917 4.328 2.082 1.244 2.502 3.223 1.07 5.3"/><path fill="#F7FCFE" d="M21.952 15.036c.764 1.106.54 2.16-.568 2.82.297 1.255-.29 2.118-1.554 2.304-.186 1.263-1.048 1.85-2.303 1.552-.662 1.108-1.715 1.333-2.82.57-1.107.763-2.16.538-2.82-.57-1.256.298-2.12-.29-2.304-1.552-1.264-.186-1.85-1.05-1.553-2.304-1.108-.66-1.332-1.714-.57-2.82-.762-1.106-.538-2.16.57-2.82-.298-1.255.29-2.118 1.553-2.304.185-1.264 1.048-1.85 2.303-1.552.66-1.108 1.714-1.333 2.82-.57 1.106-.763 2.16-.538 2.82.57 1.256-.298 2.118.288 2.304 1.552 1.265.186 1.85 1.05 1.554 2.304 1.107.66 1.332 1.714.568 2.82"/></svg>