<svg id="Layer_1" xmlns="http://www.w3.org/2000/svg" xmlns:xlink="http://www.w3.org/1999/xlink" viewBox="0 0 210 822"><style>.st0{opacity:8.000000e-02}.st1{opacity:.15}.st2{fill:#0086ff}.st3{fill:#007e49}.st4{fill:#009a51}.st5{fill:#30b272}.st6{fill:#fff}.st9{fill:none;stroke:#f0b31d;stroke-width:5.151;stroke-linecap:round;stroke-linejoin:round;stroke-miterlimit:10}.st11{fill:#e82128}.st12{fill:#58595b}.st13{fill:#936136}.st14{fill:#b77945}.st17{fill:#332e2e}.st18{fill:none;stroke:#e82128;stroke-width:5;stroke-miterlimit:10}.st19{fill:#594539}.st20{fill:none;stroke:#f5232a;stroke-width:5;stroke-linecap:round;stroke-linejoin:round;stroke-miterlimit:10}.st21{fill:#f6be1a}.st23{fill:none;stroke:#32a658;stroke-width:5;stroke-miterlimit:10}.st24{fill:#bf8f68}.st25{fill:none;stroke:#32a658;stroke-width:5;stroke-linecap:round;stroke-linejoin:round;stroke-miterlimit:10}.st26{fill:#32a658}</style><symbol id="large" viewBox="-58.9 -45.3 117.8 90.6"><g class="st0"><path d="M58.9-45.3l-15.8 7.2 1-7-13.7 11.7.1-9-17.3 14.1-2.5-10.3-16.4 15.7-2.7-13.7-14.7 22.3-8.4-17-6.5 21.1 6.5 25.9L-12 29.5l21.9 2.4-12.2-14.4L24 12.9 12.6 5l20.8-8.8-8.4-6.4 19.9-10.2-8.2-3.4 16.1-8.1-6.8-1.8z"/></g><g><g class="st1"><path class="st2" d="M-1.9-5.1L12-5.2l-9.8 10 12.6 6-13.1 4.8 8.7 10.9L-3.5 25l3.1 13.6-11.9-7.3-3.1 13.6-7.5-11.8-8.7 11-1.6-13.9-12.6 6.1 4.5-13.3-14 .1 9.8-10-12.6-6 13.2-4.7-8.7-11 13.9 1.5-3.2-13.6 11.9 7.3 3.1-13.6 7.5 11.8 8.7-11 1.7 13.9 12.6-6.1z"/><path class="st2" d="M-26.9 27.9L-37.4 34l1.2-12-12.1-.6 7.5-9.5-9.8-6.9 11.4-4-4.5-11.2L-32-7.3l2.3-11.9 8.3 8.8 8.3-8.8 2.3 11.9L.9-10.2-3.6 1 7.8 5l-9.9 6.9 7.5 9.5-12 .6 1.1 12-10.4-6.1-5.5 10.8z"/><path class="st2" d="M-26.7 22.3l-9.5 1.2 2.7-9.2-7.5-5.8 8.3-4.6-1.1-9.4 9.1 2.7 5.8-7.5 4.6 8.3 9.4-1.2-2.7 9.1L0 11.7l-8.4 4.6 1.2 9.4-9.1-2.6-5.8 7.5z"/><path class="st2" d="M-25.5 14.6l-4.4-1.6 3.2-3.3-2-4.2 4.6-.2 1.6-4.3 3.3 3.1 4.2-1.9.2 4.6 4.3 1.5-3.1 3.4 2 4.2-4.7.1-1.5 4.4-3.4-3.2-4.2 2z"/><path class="st2" d="M-19.9 12.3c-.7 0-1.2-.5-1.2-1.2s.5-1.2 1.2-1.2 1.2.5 1.2 1.2c0 .6-.5 1.2-1.2 1.2z"/></g><g><g><path class="st3" d="M-2.8-4.7h14L1.4 5.2 14 11.3.9 16l8.7 10.9-13.9-1.5L-1.2 39l-11.9-7.3-3.1 13.6-7.5-11.8-8.7 11-1.7-13.9-12.5 6.1 4.5-13.2h-14l9.8-10-12.6-6 13.2-4.7-8.8-10.9 13.9 1.4-3.1-13.6 11.9 7.3 3.1-13.6 7.5 11.8 8.7-10.9 1.7 13.8 12.6-6z"/><path class="st4" d="M-27.8 28.3l-10.4 6.1 1.1-12-12-.6 7.5-9.4-9.9-7 11.4-4-4.4-11.1 11.7 2.8 2.2-11.8 8.4 8.7 8.3-8.7 2.2 11.8L0-9.7-4.4 1.4 7 5.4l-9.9 7 7.5 9.4-12.1.6 1.2 12-10.4-6.1-5.5 10.8z"/><path class="st5" d="M-27.5 22.7l-9.5 1.2 2.7-9.2-7.5-5.8 8.3-4.6-1.2-9.4 9.2 2.7 5.8-7.5 4.6 8.3 9.4-1.2-2.7 9.1 7.5 5.9-8.3 4.5 1.2 9.5-9.1-2.7L-23 31z"/><path class="st6" d="M-26.3 15l-4.4-1.6 3.2-3.3-2-4.2 4.6-.2 1.6-4.3 3.3 3.1 4.2-1.9.2 4.6 4.3 1.5-3.1 3.4 1.9 4.2-4.6.1-1.5 4.4-3.4-3.2-4.2 2z"/><path class="st3" d="M-20.7 12.7c-.7 0-1.2-.5-1.2-1.2s.5-1.2 1.2-1.2 1.2.5 1.2 1.2-.5 1.2-1.2 1.2z"/></g></g></g></symbol><symbol id="larger" viewBox="-68.7 -52.9 137.4 105.7"><g class="st0"><path d="M68.7-52.9l-18.4 8.4 1.2-8.1L35.4-39l.2-10.5L15.4-33l-3-12-19 18.2-3.2-15.9-17.2 26-9.7-19.8-7.6 24.6 7.6 30.2 22.8 16.1 25.5 2.8-14.3-16.8L28.1 15 14.7 5.8 39-4.4l-9.8-7.5 23.2-11.9-9.6-3.9 18.8-9.5-7.9-2.1z"/></g><g><g class="st1"><path class="st2" d="M-2.3-6H14L2.6 5.6l14.7 7.1-15.4 5.4 10.2 12.8-16.2-1.7 3.7 15.9-13.9-8.6-3.6 15.9-8.8-13.7-10.1 12.7-2-16.2-14.6 7.1 5.2-15.4h-16.3L-53 15.3l-14.7-7 15.3-5.6L-62.6-10l16.2 1.7-3.6-15.9 13.8 8.6 3.6-15.9 8.8 13.8 10.2-12.8 1.9 16.2L3-21.4z"/><path class="st2" d="M-31.4 32.6l-12.2 7 1.3-14-14-.6 8.7-11.1-11.5-8.1 13.3-4.6-5.2-13 13.7 3.3 2.6-13.8 9.7 10.1 9.7-10.1 2.6 13.8L1-11.8l-5.2 13L9.1 5.8l-11.5 8.1L6.3 25l-14 .6 1.3 14-12.2-7-6.4 12.5z"/><path class="st2" d="M-31.2 26l-11 1.4 3.1-10.7-8.7-6.8 9.7-5.3-1.4-11 10.7 3.1 6.8-8.8 5.3 9.8 11-1.4-3.1 10.6 8.7 6.8-9.7 5.3 1.4 11-10.6-3.1-6.8 8.8z"/><path class="st2" d="M-29.8 17l-5.1-1.8 3.7-3.9-2.3-4.9 5.4-.2 1.8-5.1 4 3.7 4.8-2.3.2 5.4 5.1 1.8-3.7 3.9 2.3 4.9-5.4.2-1.8 5.1-3.9-3.7-4.9 2.3z"/><path class="st2" d="M-23.2 14.3c-.8 0-1.4-.6-1.4-1.4s.6-1.4 1.4-1.4c.8 0 1.4.6 1.4 1.4 0 .8-.6 1.4-1.4 1.4z"/></g><g><g><path class="st3" d="M-3.2-5.5h16.3L1.6 6.1l14.7 7L1 18.6l10.2 12.8L-5 29.7l3.6 15.8-13.9-8.5-3.6 15.9-8.7-13.8-10.2 12.8-1.9-16.2-14.7 7.1 5.3-15.4h-16.3L-54 15.8l-14.7-7.1 15.3-5.5-10.1-12.7 16.2 1.7-3.7-15.9 13.9 8.6 3.6-15.9 8.8 13.7L-14.6-30l2 16.1 14.6-7z"/><path class="st4" d="M-32.4 33.1l-12.2 7 1.4-14-14.1-.6 8.7-11.1L-60 6.3l13.3-4.6-5.3-13.1 13.7 3.3 2.7-13.8 9.6 10.2 9.7-10.2 2.7 13.8L.1-11.4-5.2 1.7 8.1 6.3l-11.5 8.1 8.7 11.1-14 .6 1.4 14-12.2-7-6.5 12.5z"/><path class="st5" d="M-32.1 26.4l-11 1.4 3.1-10.6-8.8-6.8 9.8-5.3-1.4-11 10.6 3.1 6.8-8.8 5.3 9.7 11-1.4-3.1 10.7 8.8 6.8-9.7 5.3 1.3 11-10.6-3.1-6.8 8.8z"/><path class="st6" d="M-30.7 17.5l-5.1-1.8 3.7-3.9-2.3-4.9 5.4-.2 1.8-5.1 3.9 3.7 4.9-2.3.2 5.4 5 1.8-3.6 3.9 2.3 4.9-5.4.2-1.8 5.1-4-3.7-4.9 2.3z"/><path class="st3" d="M-24.1 14.8c-.8 0-1.4-.6-1.4-1.4 0-.8.6-1.4 1.4-1.4s1.4.6 1.4 1.4c-.1.8-.7 1.4-1.4 1.4z"/></g></g></g></symbol><symbol id="small" viewBox="-31 -23.8 61.9 47.6"><g class="st0"><path d="M31-23.8L22.7-20l.5-3.7-7.2 6.1v-4.7l-9.1 7.4-1.3-5.4-8.6 8.2-1.4-7.1-7.8 11.7-4.3-8.9-3.5 11 3.4 13.6 10.3 7.3 11.5 1.3-6.4-7.6 13.8-2.4-6-4.2 11-4.6-4.4-3.4 10.4-5.3-4.3-1.8 8.5-4.3-3.6-.9z"/></g><g><g class="st1"><path class="st2" d="M-1-2.7h7.3L1.2 2.5l6.6 3.2L.9 8.2l4.6 5.7-7.3-.7 1.6 7.1-6.3-3.9-1.6 7.2-3.9-6.2-4.6 5.8-.9-7.3-6.6 3.2 2.4-7h-7.4l5.2-5.2-6.6-3.2 6.9-2.5-4.6-5.7 7.3.8-1.6-7.2 6.2 3.9 1.6-7.2 4 6.2 4.6-5.8.8 7.3 6.7-3.1z"/><path class="st2" d="M-14.2 14.7l-5.5 3.2.6-6.3-6.3-.3 3.9-5-5.1-3.7 6-2.1-2.4-5.8 6.2 1.5 1.2-6.3 4.3 4.6 4.4-4.6 1.2 6.3L.5-5.3-1.9.5l6 2.1-5.2 3.7 3.9 5-6.3.3.6 6.3-5.5-3.2-2.9 5.6z"/><path class="st2" d="M-14 11.7l-5 .6 1.4-4.8-4-3 4.4-2.4-.6-5 4.8 1.4 3.1-3.9 2.4 4.3 4.9-.6L-4 3.1l4 3.1-4.4 2.4.6 4.9-4.8-1.4-3 4z"/><path class="st2" d="M-13.4 7.7l-2.3-.8 1.6-1.8-1-2.2 2.4-.1.9-2.3 1.7 1.7 2.2-1.1.1 2.5 2.3.8-1.7 1.7 1.1 2.3h-2.4l-.9 2.3-1.7-1.6-2.2 1z"/><path class="st2" d="M-10.4 6.5c-.3 0-.6-.3-.6-.6s.3-.6.6-.6.6.3.6.6-.3.6-.6.6z"/></g><g><g><path class="st3" d="M-1.5-2.5h7.4L.7 2.7l6.7 3.2-7 2.5L5 14.1l-7.3-.7 1.7 7.1-6.3-3.8-1.6 7.1-4-6.2-4.5 5.8-.9-7.3-6.6 3.2 2.4-7-7.4.1 5.2-5.3-6.7-3.2 7-2.4-4.6-5.8 7.3.8-1.7-7.2 6.3 3.9 1.6-7.2 4 6.2 4.5-5.7.9 7.3L.9-9.4z"/><path class="st4" d="M-14.6 14.9l-5.5 3.2.6-6.3-6.3-.3 3.9-5-5.2-3.7 6-2-2.3-5.9 6.1 1.5 1.2-6.3 4.4 4.6 4.4-4.6 1.2 6.3L0-5.1-2.3.8l6 2-5.2 3.7 3.9 5-6.3.3.6 6.3-5.5-3.2-2.9 5.6z"/><path class="st5" d="M-14.5 11.9l-4.9.6 1.4-4.8-4-3 4.4-2.4-.6-5 4.8 1.4 3-3.9L-8-.8l5-.7-1.4 4.8 3.9 3.1-4.3 2.4.6 5-4.8-1.4-3.1 3.9z"/><path class="st6" d="M-13.8 7.9l-2.3-.8 1.6-1.8-1-2.2 2.4-.1.8-2.3 1.8 1.7 2.2-1 .1 2.4 2.3.8-1.7 1.8 1 2.2H-9l-.8 2.3-1.8-1.6-2.2 1z"/><path class="st3" d="M-10.9 6.7c-.3 0-.6-.3-.6-.6s.3-.6.6-.6.6.3.6.6-.2.6-.6.6z"/></g></g></g></symbol><g><g><defs><path id="SVGID_1_" d="M100.7 96.6h109v58.2h-109z"/></defs><clipPath id="SVGID_2_"><use xlink:href="#SVGID_1_" overflow="visible"/></clipPath><path d="M120.5 149.6h-17.2c-1.4 0-2.6 1.2-2.6 2.6 0 1.4 1.2 2.6 2.6 2.6h103.8c1.4 0 2.6-1.2 2.6-2.6 0-1.4-1.2-2.6-2.6-2.6h-9.6v-47.9h9.6c1.4 0 2.6-1.2 2.6-2.6s-1.2-2.6-2.6-2.6H103.3c-1.4 0-2.6 1.2-2.6 2.6s1.2 2.6 2.6 2.6h17.2v47.9z" clip-path="url(#SVGID_2_)" fill="#aad3e4"/></g></g><g><g><defs><path id="SVGID_3_" d="M53.7 547.6h109v58.2h-109z"/></defs><clipPath id="SVGID_4_"><use xlink:href="#SVGID_3_" overflow="visible"/></clipPath><path d="M73.5 600.6H56.3c-1.4 0-2.6 1.2-2.6 2.6s1.2 2.6 2.6 2.6h103.8c1.4 0 2.6-1.2 2.6-2.6s-1.2-2.6-2.6-2.6h-9.6v-47.9h9.6c1.4 0 2.6-1.2 2.6-2.6 0-1.4-1.2-2.6-2.6-2.6H56.3c-1.4 0-2.6 1.2-2.6 2.6 0 1.4 1.2 2.6 2.6 2.6h17.2v47.9z" clip-path="url(#SVGID_4_)" fill="#aad3e4"/></g></g><path class="st9" d="M90.3 144.2h103.9m-103.9-53h103.9"/><path d="M107.5 91.2H182v53.1h-74.5V91.2z" fill="#cf2127"/><path class="st11" d="M107.5 91.1H182v42.3h-74.5V91.1z"/><path class="st12" d="M153 91.2h29.4v53.1H153V91.2z"/><path class="st9" d="M117.1 91.2H182v53.1h-64.9V91.2z"/><path class="st13" d="M145.2 94.4c3.2 0 5.7 2.6 5.7 5.7v34.7c0 3.2-2.6 5.7-5.7 5.7-3.2 0-5.7-2.6-5.7-5.7v-34.7c0-3.1 2.6-5.7 5.7-5.7"/><path class="st13" d="M144.3 140.6h-13.1c-3.2 0-5.7-2.6-5.7-5.7v-34.7c0-3.2 2.6-5.7 5.7-5.7h12.5"/><path class="st14" d="M144 95.7c2.4 0 4.3 2.4 4.3 5.5v32.7c0 3-1.9 5.5-4.3 5.5s-4.3-2.4-4.3-5.5v-32.7c.1-3.1 2-5.5 4.3-5.5"/><path class="st9" d="M43.8 592.7h103.8M43.8 539.6h103.8"/><path d="M61 539.6h74.5v53.1H61v-53.1z" fill="#2697d4"/><path d="M61 539.6h74.5v42.3H61v-42.3z" fill="#21aae2"/><path class="st12" d="M106.5 539.6h29.4v53.1h-29.4v-53.1z"/><path class="st9" d="M70.6 539.6h64.9v53.1H70.6v-53.1z"/><path class="st13" d="M98.8 542.9c3.2 0 5.7 2.6 5.7 5.7v34.7c0 3.2-2.6 5.7-5.7 5.7s-5.7-2.6-5.7-5.7v-34.7c-.1-3.2 2.5-5.7 5.7-5.7"/><path class="st13" d="M97.8 589.1H84.7c-3.2 0-5.7-2.6-5.7-5.7v-34.7c0-3.2 2.6-5.7 5.7-5.7h12.5"/><path class="st14" d="M97.5 544.2c2.4 0 4.3 2.4 4.3 5.5v32.7c0 3-1.9 5.5-4.3 5.5s-4.3-2.4-4.3-5.5v-32.7c.1-3.1 2-5.6 4.3-5.5"/><path class="st14" d="M84 572.7c0-1.3 1-2.3 2.3-2.3h6.9c1.3 0 2.3 1 2.3 2.3s-1 2.3-2.3 2.3h-6.9c-1.2.1-2.3-1-2.3-2.3m0-10.5c0-1.3 1-2.3 2.3-2.3h6.9c1.3 0 2.3 1 2.3 2.3s-1 2.3-2.3 2.3h-6.9c-1.2.1-2.3-1-2.3-2.3"/><g><g><path class="st17" d="M96.5 557.7c1.6.7 1 4-.5 4.4-7.2-2.9-10.9-1.3-10.9-1.3s2.7-6.9 11.4-3.1zM96.5 578.6c1.6-.7 1-4-.5-4.4-7.2 2.9-10.9 1.3-10.9 1.3s2.7 7 11.4 3.1z"/><g><g><path class="st18" d="M86.9 553.6c7.3-3.6 14.3-.6 14.9 5"/><g><g><circle class="st19" cx="84.8" cy="554.6" r="3"/></g><g><g><path class="st6" d="M84.4 552l2.4 4.4c.4.7 1.3 1 1.9.6.7-.4 1-1.3.6-1.9l-2.4-4.4c-.4-.7-1.3-1-1.9-.6s-.9 1.2-.6 1.9z"/></g></g></g></g><g><path class="st18" d="M101.8 577.9c-.5 5.6-7.6 8.6-14.9 5"/><g><g><circle class="st19" cx="84.8" cy="582" r="3"/></g><g><g><path class="st6" d="M85 586.5c.7.4 1.6.1 1.9-.6l2.4-4.4c.4-.7.1-1.6-.6-1.9-.7-.4-1.6-.1-1.9.6l-2.4 4.4c-.3.7-.1 1.5.6 1.9z"/></g></g></g></g><g><path class="st20" d="M91.8 559.9c6.1 1.6 7 1.8 11.8 3"/></g><g><path class="st20" d="M91.4 575.3c6.1-1.3 7.3-1.6 12.1-2.8"/></g><path class="st11" d="M99.2 580.5c-4.4-1.1-6.3-7.6-4.6-14.8 1.8-6.9 6.6-12 11-11 4.2 1 6.2 8 4.6 14.8-1.7 6.9-6.6 12.1-11 11"/><path class="st19" d="M94.4 565.5l-4.3 1.3c-1.2.1-.8 1.3 0 1.2l3.8 1.5.5-4z"/><path class="st19" d="M101.6 576.6c-5.1 0-9-4-8.8-9 0-4.7 3.9-8.9 9-8.8 4.7 0 8.9 4.3 8.8 9-.1 4.6-3.9 8.8-9 8.8"/><path class="st19" d="M98 574.4c0 1.6 2.1 4.6 2.1 4.6s2.1-3 2.1-4.6v-.3H98v.3zM98.1 560.6h4.2v-.3c0-1.6-2.1-4.6-2.1-4.6s-2.1 3-2.1 4.6v.3z"/><path class="st21" d="M115.2 567.6c0-3.8-8.4-8.2-12.9-8.2s-8.1 3.8-6.9 8.1c1.4 4.6-3.6 6.6-3.6 6.6 14.3 5.9 23.3-2.7 23.4-6.5z"/><path class="st21" d="M102.5 576.7c5.2 0 15.1-4.8 15.2-9.1 0-4.3-9.8-9.3-15-9.3h-.9l-.2 18.3c.3 0 .5.1.9.1z"/><path d="M102.5 576.7c5.2 0 15.1-4.8 15.2-9.1 0-4.3-9.8-9.3-15-9.3h-.9l-.2 18.3c.3 0 .5.1.9.1z" fill="#f5232a"/><g><circle class="st6" cx="117.6" cy="567.6" r="3.5"/></g></g></g></g><path class="st11" d="M145.7 107.9c1.6 0 3 1.3 3 3v15.3c0 1.6-1.3 3-3 3-1.6 0-3-1.3-3-3v-15.3c.1-1.7 1.4-3 3-3"/><path class="st14" d="M131.3 123.3c0-1.3 1-2.3 2.3-2.3h6.9c1.3 0 2.3 1 2.3 2.3s-1 2.3-2.3 2.3h-6.9c-1.2 0-2.3-1-2.3-2.3m0-10.5c0-1.3 1-2.3 2.3-2.3h6.9c1.3 0 2.3 1 2.3 2.3s-1 2.3-2.3 2.3h-6.9c-1.2 0-2.3-1-2.3-2.3"/><g><g><path class="st17" d="M140.8 109.1c1.6.7 1 4-.5 4.4-7.2-2.9-10.9-1.3-10.9-1.3s2.7-6.9 11.4-3.1zM140.8 130c1.6-.7 1-4-.5-4.4-7.2 2.9-10.9 1.3-10.9 1.3s2.7 7 11.4 3.1z"/><g><g><path class="st23" d="M131.1 105c7.3-3.6 14.3-.6 14.9 5"/><g><g><circle class="st24" cx="129" cy="105.9" r="3"/></g><g><g><path class="st6" d="M128.7 103.4l2.4 4.4c.4.7 1.3 1 1.9.6.7-.4 1-1.3.6-1.9l-2.4-4.4c-.4-.7-1.3-1-1.9-.6s-1 1.1-.6 1.9z"/></g></g></g></g><g><path class="st23" d="M146 129.3c-.5 5.6-7.6 8.6-14.9 5"/><g><g><circle class="st24" cx="129" cy="133.4" r="3"/></g><g><g><path class="st6" d="M129.2 137.8c.7.4 1.6.1 1.9-.6l2.4-4.4c.4-.7.1-1.6-.6-1.9-.7-.4-1.6-.1-1.9.6l-2.4 4.4c-.3.7 0 1.5.6 1.9z"/></g></g></g></g><g><path class="st25" d="M136.1 111.3c6.1 1.6 7 1.8 11.8 3"/></g><g><path class="st25" d="M135.6 126.7c6.1-1.3 7.3-1.6 12.1-2.8"/></g><path class="st26" d="M143.5 131.9c-4.4-1.1-6.3-7.6-4.6-14.8 1.8-6.9 6.6-12 11-11 4.2 1 6.2 8 4.6 14.8-1.8 6.9-6.6 12-11 11"/></g></g><g><path class="st17" d="M145.5 112.8c-1.8 1.8-4.6 1.8-6.3 0-1.8-1.8-1.8-4.6 0-6.3l6.3 6.3zM145.5 123.3c-1.8-1.8-4.6-1.8-6.3 0-1.8 1.8-1.8 4.6 0 6.3l6.3-6.3z"/></g><g><g><g><circle class="st6" cx="168.5" cy="118" r="3"/><path class="st26" d="M148.2 126.7l17.3-8.7-17.3-8.6z"/></g><g><path class="st6" d="M145.1 126.3c0-1.1.7-2.1 1.8-2.4 2.6-.8 4.3-3.1 4.3-5.8s-1.7-5-4.3-5.8c-1.3-.4-2.1-1.8-1.7-3.2.4-1.3 1.8-2.1 3.2-1.7 4.7 1.5 7.8 5.7 7.8 10.6s-3.1 9.2-7.8 10.6c-1.3.4-2.8-.3-3.2-1.7-.1-.1-.1-.4-.1-.6z"/></g></g><g><path class="st24" d="M150 129.5l-4.4-4.4c-.4-.4-1-.7-1.6-.7-1.3 0-2.3 1-2.3 2.3 0 .6.3 1.2.7 1.6 2.8 2.7 7.6 1.2 7.6 1.2zM145.6 111l4.4-4.4s-4.9-1.6-7.6 1.2c-.4.4-.7 1-.7 1.6 0 1.3 1 2.3 2.3 2.3.7 0 1.2-.2 1.6-.7z"/></g><circle class="st24" cx="144" cy="118" r="9.5"/><path class="st6" d="M143 123.3c-2.9 0-5.2-2.3-5.2-5.2 0-2.9 2.3-5.2 5.2-5.2v10.4z"/><g><g><path class="st17" d="M146.5 116.3c-1 0-1.7-.8-1.7-1.7 0-1 .8-1.7 1.7-1.7 1 0 1.7.8 1.7 1.7s-.7 1.7-1.7 1.7zM146.5 123.3c-1 0-1.7-.8-1.7-1.7 0-1 .8-1.7 1.7-1.7 1 0 1.7.8 1.7 1.7s-.7 1.7-1.7 1.7z"/></g></g></g><g><g><path class="st17" d="M153.5 118c-14.5 0-14.4 11.6-14.4 11.6s2.9-2.6 8-2.6c7.3 0 10.4-4.2 10.4-9s-3.1-9-10.4-9c3.7 1.3 6.4 4.9 6.4 9z"/></g><g><path d="M153.5 118c2.8 0 4.6-3.4 1.5-6.3-2.1-2-5.1-2.7-8-2.7 3.8 1.3 6.5 4.9 6.5 9z"/></g></g></g><use xlink:href="#small" width="61.9" height="47.6" id="XMLID_1_" x="-31" y="-23.8" transform="matrix(1 0 0 -1 150.2379 411.9554)" overflow="visible"/><use xlink:href="#small" width="61.9" height="47.6" id="XMLID_2_" x="-31" y="-23.8" transform="matrix(1 0 0 -1 30.9617 677.812)" overflow="visible"/><use xlink:href="#large" width="117.8" height="90.6" x="-58.9" y="-45.3" transform="matrix(1 0 0 -1 94.6912 430.6543)" overflow="visible"/><use xlink:href="#large" width="117.8" height="90.6" x="-58.9" y="-45.3" transform="matrix(1 0 0 -1 80.2647 776.6888)" overflow="visible"/><use xlink:href="#large" width="117.8" height="90.6" x="-58.9" y="-45.3" transform="matrix(.8182 0 0 -.8182 142.7745 292.0867)" overflow="visible"/><use xlink:href="#large" width="117.8" height="90.6" x="-58.9" y="-45.3" transform="matrix(.8182 0 0 -.8182 85.1694 37.0723)" overflow="visible"/><use xlink:href="#larger" width="137.4" height="105.7" x="-68.7" y="-52.9" transform="matrix(1 0 0 -1 82.1066 206.2714)" overflow="visible"/><use xlink:href="#larger" width="137.4" height="105.7" x="-68.7" y="-52.9" transform="matrix(1 0 0 -1 141.3048 677.8854)" overflow="visible"/></svg>