<svg id="Layer_1" xmlns="http://www.w3.org/2000/svg" xmlns:xlink="http://www.w3.org/1999/xlink" viewBox="0 0 202 844"><style>.st0{opacity:8.000000e-02}.st1{opacity:.15}.st2{fill:#0086ff}.st3{fill:#007e49}.st4{fill:#009a51}.st5{fill:#30b272}.st6{fill:#fff}.st8{fill:none;stroke:#efb21d;stroke-width:5.151;stroke-linecap:round;stroke-linejoin:round;stroke-miterlimit:10}.st12{fill:#926136}</style><symbol id="large" viewBox="-58.9 -45.3 117.8 90.6"><g class="st0"><path d="M58.9-45.3l-15.8 7.2 1-7-13.7 11.7.1-9-17.3 14.1-2.5-10.3-16.4 15.7-2.7-13.7-14.7 22.3-8.4-17-6.5 21.1 6.5 25.9L-12 29.5l21.9 2.4-12.2-14.4L24 12.9 12.6 5l20.8-8.8-8.4-6.4 19.9-10.2-8.2-3.4 16.1-8.1-6.8-1.8z"/></g><g><g class="st1"><path class="st2" d="M-1.9-5.1L12-5.2l-9.8 10 12.6 6-13.1 4.8 8.7 10.9L-3.5 25l3.1 13.6-11.9-7.3-3.1 13.6-7.5-11.8-8.7 11-1.6-13.9-12.6 6.1 4.5-13.3-14 .1 9.8-10-12.6-6 13.2-4.7-8.7-11 13.9 1.5-3.2-13.6 11.9 7.3 3.1-13.6 7.5 11.8 8.7-11 1.7 13.9 12.6-6.1z"/><path class="st2" d="M-26.9 27.9L-37.4 34l1.2-12-12.1-.6 7.5-9.5-9.8-6.9 11.4-4-4.5-11.2L-32-7.3l2.3-11.9 8.3 8.8 8.3-8.8 2.3 11.9L.9-10.2-3.6 1 7.8 5l-9.9 6.9 7.5 9.5-12 .6 1.1 12-10.4-6.1-5.5 10.8z"/><path class="st2" d="M-26.7 22.3l-9.5 1.2 2.7-9.2-7.5-5.8 8.3-4.6-1.1-9.4 9.1 2.7 5.8-7.5 4.6 8.3 9.4-1.2-2.7 9.1L0 11.7l-8.4 4.6 1.2 9.4-9.1-2.6-5.8 7.5z"/><path class="st2" d="M-25.5 14.6l-4.4-1.6 3.2-3.3-2-4.2 4.6-.2 1.6-4.3 3.3 3.1 4.2-1.9.2 4.6 4.3 1.5-3.1 3.4 2 4.2-4.7.1-1.5 4.4-3.4-3.2-4.2 2z"/><path class="st2" d="M-19.9 12.3c-.7 0-1.2-.5-1.2-1.2s.5-1.2 1.2-1.2 1.2.5 1.2 1.2c0 .6-.5 1.2-1.2 1.2z"/></g><g><g><path class="st3" d="M-2.8-4.7h14L1.4 5.2 14 11.3.9 16l8.7 10.9-13.9-1.5L-1.2 39l-11.9-7.3-3.1 13.6-7.5-11.8-8.7 11-1.7-13.9-12.5 6.1 4.5-13.2h-14l9.8-10-12.6-6 13.2-4.7-8.8-10.9 13.9 1.4-3.1-13.6 11.9 7.3 3.1-13.6 7.5 11.8 8.7-10.9 1.7 13.8 12.6-6z"/><path class="st4" d="M-27.8 28.3l-10.4 6.1 1.1-12-12-.6 7.5-9.4-9.9-7 11.4-4-4.4-11.1 11.7 2.8 2.2-11.8 8.4 8.7 8.3-8.7 2.2 11.8L0-9.7-4.4 1.4 7 5.4l-9.9 7 7.5 9.4-12.1.6 1.2 12-10.4-6.1-5.5 10.8z"/><path class="st5" d="M-27.5 22.7l-9.5 1.2 2.7-9.2-7.5-5.8 8.3-4.6-1.2-9.4 9.2 2.7 5.8-7.5 4.6 8.3 9.4-1.2-2.7 9.1 7.5 5.9-8.3 4.5 1.2 9.5-9.1-2.7L-23 31z"/><path class="st6" d="M-26.3 15l-4.4-1.6 3.2-3.3-2-4.2 4.6-.2 1.6-4.3 3.3 3.1 4.2-1.9.2 4.6 4.3 1.5-3.1 3.4 1.9 4.2-4.6.1-1.5 4.4-3.4-3.2-4.2 2z"/><path class="st3" d="M-20.7 12.7c-.7 0-1.2-.5-1.2-1.2s.5-1.2 1.2-1.2 1.2.5 1.2 1.2-.5 1.2-1.2 1.2z"/></g></g></g></symbol><symbol id="larger" viewBox="-68.7 -52.9 137.4 105.7"><g class="st0"><path d="M68.7-52.9l-18.4 8.4 1.2-8.1L35.4-39l.2-10.5L15.4-33l-3-12-19 18.2-3.2-15.9-17.2 26-9.7-19.8-7.6 24.6 7.6 30.2 22.8 16.1 25.5 2.8-14.3-16.8L28.1 15 14.7 5.8 39-4.4l-9.8-7.5 23.2-11.9-9.6-3.9 18.8-9.5-7.9-2.1z"/></g><g><g class="st1"><path class="st2" d="M-2.3-6H14L2.6 5.6l14.7 7.1-15.4 5.4 10.2 12.8-16.2-1.7 3.7 15.9-13.9-8.6-3.6 15.9-8.8-13.7-10.1 12.7-2-16.2-14.6 7.1 5.2-15.4h-16.3L-53 15.3l-14.7-7 15.3-5.6L-62.6-10l16.2 1.7-3.6-15.9 13.8 8.6 3.6-15.9 8.8 13.8 10.2-12.8 1.9 16.2L3-21.4z"/><path class="st2" d="M-31.4 32.6l-12.2 7 1.3-14-14-.6 8.7-11.1-11.5-8.1 13.3-4.6-5.2-13 13.7 3.3 2.6-13.8 9.7 10.1 9.7-10.1 2.6 13.8L1-11.8l-5.2 13L9.1 5.8l-11.5 8.1L6.3 25l-14 .6 1.3 14-12.2-7-6.4 12.5z"/><path class="st2" d="M-31.2 26l-11 1.4 3.1-10.7-8.7-6.8 9.7-5.3-1.4-11 10.7 3.1 6.8-8.8 5.3 9.8 11-1.4-3.1 10.6 8.7 6.8-9.7 5.3 1.4 11-10.6-3.1-6.8 8.8z"/><path class="st2" d="M-29.8 17l-5.1-1.8 3.7-3.9-2.3-4.9 5.4-.2 1.8-5.1 4 3.7 4.8-2.3.2 5.4 5.1 1.8-3.7 3.9 2.3 4.9-5.4.2-1.8 5.1-3.9-3.7-4.9 2.3z"/><path class="st2" d="M-23.2 14.3c-.8 0-1.4-.6-1.4-1.4s.6-1.4 1.4-1.4c.8 0 1.4.6 1.4 1.4 0 .8-.6 1.4-1.4 1.4z"/></g><g><g><path class="st3" d="M-3.2-5.5h16.3L1.6 6.1l14.7 7L1 18.6l10.2 12.8L-5 29.7l3.6 15.8-13.9-8.5-3.6 15.9-8.7-13.8-10.2 12.8-1.9-16.2-14.7 7.1 5.3-15.4h-16.3L-54 15.8l-14.7-7.1 15.3-5.5-10.1-12.7 16.2 1.7-3.7-15.9 13.9 8.6 3.6-15.9 8.8 13.7L-14.6-30l2 16.1 14.6-7z"/><path class="st4" d="M-32.4 33.1l-12.2 7 1.4-14-14.1-.6 8.7-11.1L-60 6.3l13.3-4.6-5.3-13.1 13.7 3.3 2.7-13.8 9.6 10.2 9.7-10.2 2.7 13.8L.1-11.4-5.2 1.7 8.1 6.3l-11.5 8.1 8.7 11.1-14 .6 1.4 14-12.2-7-6.5 12.5z"/><path class="st5" d="M-32.1 26.4l-11 1.4 3.1-10.6-8.8-6.8 9.8-5.3-1.4-11 10.6 3.1 6.8-8.8 5.3 9.7 11-1.4-3.1 10.7 8.8 6.8-9.7 5.3 1.3 11-10.6-3.1-6.8 8.8z"/><path class="st6" d="M-30.7 17.5l-5.1-1.8 3.7-3.9-2.3-4.9 5.4-.2 1.8-5.1 3.9 3.7 4.9-2.3.2 5.4 5 1.8-3.6 3.9 2.3 4.9-5.4.2-1.8 5.1-4-3.7-4.9 2.3z"/><path class="st3" d="M-24.1 14.8c-.8 0-1.4-.6-1.4-1.4 0-.8.6-1.4 1.4-1.4s1.4.6 1.4 1.4c-.1.8-.7 1.4-1.4 1.4z"/></g></g></g></symbol><symbol id="small" viewBox="-31 -23.8 61.9 47.6"><g class="st0"><path d="M31-23.8L22.7-20l.5-3.7-7.2 6.1v-4.7l-9.1 7.4-1.3-5.4-8.6 8.2-1.4-7.1-7.8 11.7-4.3-8.9-3.5 11 3.4 13.6 10.3 7.3 11.5 1.3-6.4-7.6 13.8-2.4-6-4.2 11-4.6-4.4-3.4 10.4-5.3-4.3-1.8 8.5-4.3-3.6-.9z"/></g><g><g class="st1"><path class="st2" d="M-1-2.7h7.3L1.2 2.5l6.6 3.2L.9 8.2l4.6 5.7-7.3-.7 1.6 7.1-6.3-3.9-1.6 7.2-3.9-6.2-4.6 5.8-.9-7.3-6.6 3.2 2.4-7h-7.4l5.2-5.2-6.6-3.2 6.9-2.5-4.6-5.7 7.3.8-1.6-7.2 6.2 3.9 1.6-7.2 4 6.2 4.6-5.8.8 7.3 6.7-3.1z"/><path class="st2" d="M-14.2 14.7l-5.5 3.2.6-6.3-6.3-.3 3.9-5-5.1-3.7 6-2.1-2.4-5.8 6.2 1.5 1.2-6.3 4.3 4.6 4.4-4.6 1.2 6.3L.5-5.3-1.9.5l6 2.1-5.2 3.7 3.9 5-6.3.3.6 6.3-5.5-3.2-2.9 5.6z"/><path class="st2" d="M-14 11.7l-5 .6 1.4-4.8-4-3 4.4-2.4-.6-5 4.8 1.4 3.1-3.9 2.4 4.3 4.9-.6L-4 3.1l4 3.1-4.4 2.4.6 4.9-4.8-1.4-3 4z"/><path class="st2" d="M-13.4 7.7l-2.3-.8 1.6-1.8-1-2.2 2.4-.1.9-2.3 1.7 1.7 2.2-1.1.1 2.5 2.3.8-1.7 1.7 1.1 2.3h-2.4l-.9 2.3-1.7-1.6-2.2 1z"/><path class="st2" d="M-10.4 6.5c-.3 0-.6-.3-.6-.6s.3-.6.6-.6.6.3.6.6-.3.6-.6.6z"/></g><g><g><path class="st3" d="M-1.5-2.5h7.4L.7 2.7l6.7 3.2-7 2.5L5 14.1l-7.3-.7 1.7 7.1-6.3-3.8-1.6 7.1-4-6.2-4.5 5.8-.9-7.3-6.6 3.2 2.4-7-7.4.1 5.2-5.3-6.7-3.2 7-2.4-4.6-5.8 7.3.8-1.7-7.2 6.3 3.9 1.6-7.2 4 6.2 4.5-5.7.9 7.3L.9-9.4z"/><path class="st4" d="M-14.6 14.9l-5.5 3.2.6-6.3-6.3-.3 3.9-5-5.2-3.7 6-2-2.3-5.9 6.1 1.5 1.2-6.3 4.4 4.6 4.4-4.6 1.2 6.3L0-5.1-2.3.8l6 2-5.2 3.7 3.9 5-6.3.3.6 6.3-5.5-3.2-2.9 5.6z"/><path class="st5" d="M-14.5 11.9l-4.9.6 1.4-4.8-4-3 4.4-2.4-.6-5 4.8 1.4 3-3.9L-8-.8l5-.7-1.4 4.8 3.9 3.1-4.3 2.4.6 5-4.8-1.4-3.1 3.9z"/><path class="st6" d="M-13.8 7.9l-2.3-.8 1.6-1.8-1-2.2 2.4-.1.8-2.3 1.8 1.7 2.2-1 .1 2.4 2.3.8-1.7 1.8 1 2.2H-9l-.8 2.3-1.8-1.6-2.2 1z"/><path class="st3" d="M-10.9 6.7c-.3 0-.6-.3-.6-.6s.3-.6.6-.6.6.3.6.6-.2.6-.6.6z"/></g></g></g></symbol><path d="M121.6 410.5h-17.2v-47.9h17.2c1.4 0 2.6-1.2 2.6-2.6 0-1.4-1.2-2.6-2.6-2.6H17.7c-1.4 0-2.6 1.2-2.6 2.6s1.2 2.6 2.6 2.6h9.6v47.9h-9.6c-1.4 0-2.6 1.2-2.6 2.6 0 1.4 1.2 2.6 2.6 2.6h103.9c1.4 0 2.5-1.2 2.5-2.6 0-1.5-1.1-2.6-2.5-2.6z" fill="#aad3e4"/><path class="st8" d="M107.6 356H3.7m103.9 53.1H3.7"/><path d="M15.9 356h74.5v53.1H15.9V356z" fill="#369a48"/><path d="M15.9 366.8h74.5v42.3H15.9v-42.3z" fill="#36b04a"/><path d="M15.5 356H45v53.1H15.5V356z" fill="#333"/><path class="st8" d="M15.9 356h64.9v53.1H15.9V356z"/><path class="st12" d="M52.7 405.8c-3.2 0-5.7-2.6-5.7-5.7v-34.7c0-3.2 2.6-5.7 5.7-5.7 3.2 0 5.7 2.6 5.7 5.7v34.7c0 3.1-2.6 5.7-5.7 5.7z"/><path class="st12" d="M53.7 359.6h13.1c3.2 0 5.7 2.6 5.7 5.7V400c0 3.2-2.6 5.7-5.7 5.7H54.3"/><path d="M53.9 404.6c-2.4 0-4.3-2.4-4.3-5.5v-32.7c0-3 1.9-5.5 4.3-5.5s4.3 2.4 4.3 5.5v32.7c0 3-2 5.4-4.3 5.5z" fill="#b57945"/><use xlink:href="#small" width="61.9" height="47.6" id="XMLID_1_" x="-31" y="-23.8" transform="matrix(1 0 0 -1 136.729 448.9273)" overflow="visible"/><use xlink:href="#large" width="117.8" height="90.6" x="-58.9" y="-45.3" transform="matrix(1 0 0 -1 83.3426 493.3904)" overflow="visible"/><use xlink:href="#large" width="117.8" height="90.6" x="-58.9" y="-45.3" transform="matrix(1 0 0 -1 62.8966 771.7416)" overflow="visible"/><use xlink:href="#large" width="117.8" height="90.6" x="-58.9" y="-45.3" transform="matrix(.8182 0 0 -.8182 153.8194 44.0192)" overflow="visible"/><use xlink:href="#larger" width="137.4" height="105.7" x="-68.7" y="-52.9" transform="matrix(1 0 0 -1 77.77 100.3847)" overflow="visible"/><use xlink:href="#larger" width="137.4" height="105.7" x="-68.7" y="-52.9" transform="matrix(1 0 0 -1 93.1682 242.0659)" overflow="visible"/><use xlink:href="#larger" width="137.4" height="105.7" x="-68.7" y="-52.9" transform="matrix(1 0 0 -1 115.1387 698.0598)" overflow="visible"/></svg>