<svg id="art" xmlns="http://www.w3.org/2000/svg" xmlns:xlink="http://www.w3.org/1999/xlink" viewBox="0 0 450 400"><style>.st2{fill:#5590cc}.st5{fill:#774d2e}.st6{fill:#fff}.st7{fill:#fadcbc}.st8{fill:#332e2e}.st10{fill:#666}.st16{fill:#ffe18c}.st17{fill:#00518b}.st20{fill:none;stroke:#fff;stroke-width:11.4}.st23{stroke:#f0efe3;stroke-width:1.71}.st23,.st24{fill:none}</style><g id="photos_2"><defs><path id="SVGID_1_" d="M450 382L68 0h382z"/></defs><clipPath id="SVGID_2_"><use xlink:href="#SVGID_1_" overflow="visible"/></clipPath><path d="M21.5-10h455.9v409.6H21.5V-10z" clip-path="url(#SVGID_2_)" fill="#9ccc65"/><defs><path id="SVGID_3_" d="M450 382L68 0h382z"/></defs><clipPath id="SVGID_4_"><use xlink:href="#SVGID_3_" overflow="visible"/></clipPath><g clip-path="url(#SVGID_4_)"><path class="st2" d="M380.6 350.5l14.1-35.9c5.7-22.4-4.8-49.6-21.5-65.6-20-19.1-51.3-29.5-81-29.5-48.8 0-88.3 39.6-88.3 88.5v42.5l187.1-5.2-10.4 5.2z"/></g><defs><path id="SVGID_5_" d="M450 382L68 0h382z"/></defs><clipPath id="SVGID_6_"><use xlink:href="#SVGID_5_" overflow="visible"/></clipPath><g clip-path="url(#SVGID_6_)"><path d="M283 154.5c-.1 2.5 1.6 25.8 1.6 25.8" fill="none" stroke="#333" stroke-width="3.406" stroke-miterlimit="10"/><path class="st5" d="M306.1 144.3c5.5 9.3 2.5 21.3-6.8 26.8s-21.3 2.5-26.8-6.8l33.6-20z"/><path class="st5" d="M296 159c10.5 2.7 16.8 13.3 14.1 23.8s-13.3 16.8-23.8 14.1L296 159zM421.8 173.7c-9.3 5.5-12.3 17.5-6.8 26.8 5.5 9.3 17.5 12.3 26.8 6.8l-20-33.6z"/><path class="st5" d="M423.7 191.4c-10.5-2.7-21.1 3.7-23.8 14.1-2.7 10.5 3.7 21.1 14.1 23.8l9.7-37.9z"/><circle class="st6" cx="417.6" cy="-52.2" r="25.9"/><path class="st2" d="M446.7 135L411.3-27.1 302.7 98.4z"/><path class="st6" d="M434.6 169c-9-2.3-15.8-10.2-16.4-19.9-1.2-23.1-17.1-42.4-39.5-48.1-22.4-5.7-45.6 3.7-57.7 23.3-6.3 10.2-19.7 13.4-30 7.1-10.2-6.3-13.4-19.7-7.1-30 22.1-36 64.6-53.1 105.5-42.7s70 45.8 72.3 87.9c.6 12-8.6 22.3-20.6 22.9-2.2.3-4.4 0-6.5-.5z"/><path class="st7" d="M473.9 125.9l-46.2 27.5c-4.3 2.6-7.7 6.8-9 12.1-2.7 10.5 3.7 21.2 14.2 23.9 5.3 1.3 10.6.4 14.9-2.2 28.9-17.2 26.1-61.3 26.1-61.3z"/><circle class="st7" cx="365.7" cy="151.9" r="74.3"/><path class="st5" d="M384.1 79.9c-13.2-3.3-26.4-2.9-38.6.5 1.9 6.6 7.1 12.1 14.3 13.9l-10.1 6c5.6 9.5 17.9 12.6 27.4 7l-2.9 11.4c10.7 2.7 21.6-3.7 24.3-14.5l6 10.1c6.7-4 10.3-11.4 9.7-18.7-8.4-7.3-18.6-12.8-30.1-15.7z"/><path class="st8" d="M356.4 127.6c-2 8-10.2 12.9-18.2 10.9-8.1-2-12.9-10.2-10.9-18.3 2-8 10.2-12.9 18.2-10.8 8.1 2 13 10.2 10.9 18.2zM414.6 142.4c-2 8-10.2 12.9-18.2 10.9-8.1-2-12.9-10.2-10.9-18.3 2-8 10.2-12.9 18.2-10.8 8.1 2 13 10.1 10.9 18.2z"/><path class="st6" d="M407.2 171.5c-6.1 24.1-30.6 38.7-54.7 32.6-24.1-6.1-38.7-30.6-32.6-54.7l87.3 22.1z"/><path d="M288.8 106.7c-1-.4-1.9-.9-2.9-1.1-12.2-3-24.8 5.5-28.2 19-3.4 13.5 3.6 27 15.8 30.1 1.1.3 2 .3 3.1.4l12.2-48.4z" fill="#333"/><path class="st10" d="M286.5 173l-16.7-4.2 19.5-77.4 16.7 4.2-19.5 77.4z"/><path class="st10" d="M285 166.4l-16.7-4.2 16.5-65.7 16.7 4.2-16.5 65.7z"/><path d="M281.3 137.9c-.6 2.4 5.7 75.5 5.7 75.5l40 10.1" fill="none" stroke="#666" stroke-width="13.259" stroke-miterlimit="10"/><path class="st10" d="M346.3 236.3l-21.8-5.5c-2.5-.6-4-3.1-3.4-5.6l2.3-9c.6-2.5 3.1-4 5.6-3.4l21.8 5.5c2.5.6 4 3.1 3.4 5.6l-2.3 9c-.6 2.6-3.1 4.1-5.6 3.4z"/><path d="M353.4 227.2l-30.9-7.2 1-3.8c.6-2.5 3.1-4 5.6-3.4l21.8 5.5c2.5.6 4 3.1 3.4 5.6l-.9 3.3z" fill="#191919"/></g><defs><path id="SVGID_7_" d="M450 382L68 0h382z"/></defs><clipPath id="SVGID_8_"><use xlink:href="#SVGID_7_" overflow="visible"/></clipPath><path d="M80.1 0C198.6 127.8 319.2 250 450 369.7V383C322.6 255.6 194.2 127.3 66.9 0h13.2z" opacity=".15" clip-path="url(#SVGID_8_)"/><path d="M151.7 97.5c-17 .8-31.4-12.2-32.2-29.2s12.2-31.4 29.2-32.2c17-.8 31.4 12.2 32.2 29.2.8 16.9-12.2 31.3-29.2 32.2z" fill="#ebebeb"/><path d="M374.7 281.7c8.8 37.6 32.1 137.3-57.1 53" fill="none" stroke="#5590cc" stroke-width="35" stroke-linecap="round" stroke-miterlimit="10"/><circle class="st6" cx="314.3" cy="325.3" r="32.4"/><path class="st16" d="M327.6 318.4c-8.5 14.5-21.8 20.8-29.6 14-7.8-6.8-7.3-24 1.2-38.5s26.4-38.3 34.2-31.5l4.1 3.5c7.9 6.7-1.4 38-9.9 52.5z"/><path class="st16" d="M295.3 319.9c-5.8.2-10.6-4.3-10.9-10.1l-.4-9.4c-.2-5.8 4.3-10.6 10.1-10.9 5.8-.2 10.6 4.3 10.9 10.1l.4 9.4c.2 5.8-4.3 10.7-10.1 10.9z"/><g><circle class="st17" cx="170.8" cy="213.4" r="164.9"/><path d="M170.8 313c55 0 99.5-44.5 99.5-99.5S225.7 114 170.8 114c-55.2 0-99.5 44.5-99.5 99.5 0 54.9 44.6 99.5 99.5 99.5z" fill="#00b9f1"/><circle cx="182.6" cy="191.2" r="71.2" fill="#eef8fd"/><circle class="st20" cx="170.8" cy="213.4" r="161.1"/><circle class="st20" cx="170.8" cy="213.4" r="104.2"/><path class="st6" d="M137.2 326.9c.2-.8.4-2.2 1.2-2.7 1-.7 3.2-.1 4.2.1 4.3 1.1 7.9 3.8 6.7 8.7-.4 1.7-1.4 3.2-2.9 4.1-2.1 1.2-4.3.8-6.4.3l-2.6-.7c-2.2-.5-2.4-.7-1.8-3l1.6-6.8zm-9.3 20.5c-.8 3.1-.9 4.3-4.3 3.4-.4-.1-1.2-.5-1.3.2-.1.5.2.8.6.9 1 .3 2.2.3 3.1.6 4 1 7.9 2.2 11.9 3.2 2.9.7 5.5 1.2 8.4.1 2.6-.9 4.8-3.1 5.5-5.9 1.2-5-2.3-9.2-6.6-10.9 3.5.1 7.5-1.1 8.5-5 .7-2.9-.8-5.6-3.1-7.3-2.5-1.9-6.4-2.9-9.4-3.7-2.8-.7-7-1.6-9.9-1.8-.6 0-2.3-.2-2.5.6-.1.3.1.5.4.6.6.1 1.5 0 2.5.2 2.5.6 1.7 2.7 1.2 4.7l-5 20.1zm6.2-8c.7-2.7 1-2.1 3.9-1.4 2.7.7 5.3 1.3 7.4 3.4 2.2 2 2.8 4.7 2.1 7.6-.5 2.1-2 4-3.9 5-2.2 1.2-4.5 1-6.8.4-1.3-.3-3.6-1-4.5-1.9-1.3-1.3-.6-3.5-.2-5.1l2-8zm33.6-1c0 2.4.5 2.4 2.5 2.4 1.5 0 4.1 0 6.1-.2 1.3-.2 1.5-2 1.8-3.5 0-.3.2-.9.7-.9.3 0 .6.1.6.5 0 1.4-.1 2.9-.2 4.3.1 1.6.2 3.1.3 4.7 0 .8-.3.9-.6.9-.5 0-.6-.6-.7-.9-.3-1.5-.7-3-1.8-3.2-2-.5-4.6-.4-6.1-.4-2 0-2.5 0-2.5 1.7v8.8c0 4.7 2.2 4.7 6.2 4.7 4.3 0 7.1-.1 8.8-4.6.2-.4.5-1.7 1.1-1.7.4 0 .5.2.5.6s-.1.8-.2 1.2l-.7 5.4c-.1.4-.2.3-.6.3h-19.8c-1 0-2.1.2-3.1.2-.5 0-.9-.2-.9-.8s.8-.6 1.3-.6c3.5 0 3.3-1 3.3-4.2v-20.6c0-3.1.2-4.1-3.3-4.1-.5 0-1.3 0-1.3-.6 0-.5.4-.8.9-.8 3.1 0 6.4.2 9.5.2 4.3 0 8.6-.2 12.9-.2 1 0 .7 1.2.7 1.9v4.3c0 .3.1 1.1-.5 1.1-.5 0-.7-.7-.8-1l-.8-1.4c-.8-1.6-1.5-2.5-3.1-3-1.7-.5-3.8-.5-5.6-.5-.8 0-3 0-3.8.3-1 .4-.8 1.5-.8 2.3v7.4zm31.3-2.8c.6 2.3 1 2.2 3 1.7 1.5-.4 4-1 5.9-1.7 1.2-.5 1-2.3.9-3.8 0-.3 0-.9.4-1 .2-.1.6 0 .7.4.3 1.4.6 2.9.8 4.3.5 1.5 1 3 1.4 4.5.2.8-.1 1-.3 1-.4.1-.7-.4-.8-.7-.6-1.4-1.4-2.7-2.5-2.7-2 0-4.6.7-6 1.1-2 .5-2.4.6-2 2.3l2.2 8.5c1.1 4.5 3.3 4 7.2 3 4.2-1.1 6.9-1.9 7.4-6.6.1-.4.1-1.8.7-1.9.3-.1.5.1.6.4.1.4.1.8.1 1.2l.6 5.4c0 .4-.1.3-.5.4l-19.1 4.9c-1 .2-2 .7-3 1-.4.1-.9 0-1-.5s.6-.8 1.1-.9c3.4-.9 2.9-1.8 2.1-4.9l-5.1-19.9c-.8-3-.8-4.1-4.2-3.2-.5.1-1.3.3-1.4-.3-.1-.5.2-.8.6-.9 3-.8 6.2-1.4 9.3-2.2 4.2-1.1 8.3-2.3 12.4-3.4.9-.2 1 1 1.1 1.6l1.1 4.2c.1.3.3 1-.2 1.1-.4.1-.8-.5-1-.8l-1.1-1.2c-1.1-1.3-2-2-3.8-2.1-1.7-.1-3.8.5-5.5.9-.8.2-2.9.7-3.6 1.2-.8.6-.4 1.6-.2 2.5l1.7 7.1zM52.2 290.9c-2.5 1.9-3.4 2.4-1.3 5.2.3.4.8 1 .3 1.3-.4.3-.9.2-1.2-.2-.9-1.2-1.6-2.4-2.6-3.6-.9-1.2-2-2.2-2.8-3.4-.3-.4-.3-.8.1-1.2.4-.3.9.3 1.2.7 2.1 2.8 2.8 1.9 5.3 0L71.5 274c.2-.2.7-.7 1-.3s0 1.3-.2 1.7l-8.8 33.7 18.1-14c2.5-1.9 3.5-2.4 1.3-5.2-.3-.4-.9-.9-.4-1.3.4-.3.8-.2 1.1.2.9 1.2 1.6 2.4 2.6 3.6.9 1.1 2 2.2 2.8 3.4.3.4.4.8 0 1.2-.5.4-.9-.4-1.2-.7-2.2-2.8-2.8-1.9-5.3 0L66.2 309c-2.5 1.9-3.5 2.4-1.3 5.2.3.4.8 1 .3 1.3-.6.5-1 0-1.4-.5l-3.8-5c-.4-1-.1-1.7.1-2.7l7.4-28.3-15.3 11.9zm-8.6-22.7c-.3 0-1.6.2-1.7-.2-.1-.3.9-1.2 1.1-1.3l6.6-6.4c.1 0 .7-.7.9-.7.5-.2.8.9.9 1.2l2.2 5.4c.1.2.9 1.6.4 1.8-.1.1-.5.1-.6.1l-9.8.1zm14.6-.4c-2 0-2 .3-2.8-1.5l-2.6-6.4c-.9-2.2-.8-1.9 1.2-3.9l2.9-3c.5-.5 1.4-1.3 2-1.6 1.4-.6 2.1 1.2 2.6 2.4.2.5.6 1.4 1.3 1.1.4-.2.3-.7.2-.9-.7-1.7-1.6-3.4-2.3-5.1-.8-2.1-1.5-4.2-2.3-6.2-.1-.2-.3-.7-.8-.5-.7.3-.3 1.2-.1 1.6.9 2.3-1.4 4.2-3 5.7l-19.6 19.1c-.2.2-.8.6-.6 1 .2.5.9.4 1.4.4l27.1-.6c1 0 3.5-.1 4.4.3.9.3 1.4 1.2 1.7 2 .2.4.5 1.3 1.2 1 .8-.3 0-1.4-.2-1.9-.5-1.3-1.3-2.5-1.8-3.9-.5-1.3-.9-2.7-1.4-4-.2-.5-.5-1.1-1-.9-.7.3-.3 1-.1 1.5.4 1.1 1.1 3.2-.4 3.8-.8.3-2 .4-2.8.4l-4.2.1zm-6.8-37.1c3.2-.5 4.2-.5 3.6-3.9-.1-.4-.3-1.3.4-1.4.5-.1.7.3.8.7.3 1.9.4 3.7.7 5.6s.8 3.8 1.1 5.7c.1.4 0 .9-.5 1-.6.1-.7-.7-.8-1.1-.6-3.5-1.5-3.1-4.7-2.6l-23.1 3.7c-1.8.3-1.3.9-1.1 2.4.7 4.5 1.5 6.3 5.9 8.1.4.1 1.3.4 1.4.9.1.4-.2.5-.5.6s-1 0-1.2-.1l-6.8-.9c-.4 0-.7-.1-.8-.5 0-.3.2-.5.5-.5.4-.1.7-.1 1-.6.4-.7.1-1.8 0-2.6l-2.9-18.1c-.2-1.3-.2-2.6-1.6-2.9-.4-.1-.9-.1-1-.6-.1-.7 1.4-.7 1.7-.7l6.1-.7c.4-.1.9-.1.9.5.1.3-.3.5-.6.7-1 .5-2.3 1.1-3.2 2-1.1 1.3-.9 2.7-.6 4.3l.5 2.9c.4 2.2.3 2.3 2.8 1.8l22-3.7zm-21.9-20.9c-3.2-.1-4.1-.4-4.3 3.1 0 .5-.1 1.3-.7 1.2-.6 0-.7-.4-.7-.9.1-1.9.4-3.7.4-5.6.1-1.9 0-3.8 0-5.8 0-.5.2-.9.7-.8.7 0 .6.9.6 1.3-.1 3.5.8 3.3 4 3.4l20.7.8c3.2.1 4.1.4 4.3-3.1 0-.5 0-1.3.7-1.3.6 0 .6.4.6.9-.1 1.9-.4 3.7-.4 5.6-.1 1.9 0 3.8 0 5.8 0 .5-.1.9-.7.8-.7 0-.6-.8-.6-1.3.1-3.5-.9-3.3-4.1-3.4l-20.5-.7zm18.2-43.7c3.7 1 6.7 2.6 9 5.7 2.2 3.1 3.1 6.9 2.1 10.7-1 3.7-3.5 6.7-6.9 8.3-3.5 1.6-7.4 1.5-11.1.5-3.5-1-6.9-2.8-9.1-5.8-2.3-3.2-3-7.1-1.9-10.9 1-3.7 3.5-6.4 7-8 3.5-1.7 7.1-1.5 10.9-.5zm-8.2 29.5c8.9 2.4 18.2-3.9 20.6-12.6 2.5-9.3-1.8-18.7-11.2-21.3-9.4-2.6-18 3.3-20.5 12.6-2.4 8.7 2.3 18.9 11.1 21.3zm17.2-66.3c-2.7-1.7-3.5-2.4-5.3.6-.2.4-.7 1.1-1.1.8-.5-.3-.5-.8-.2-1.2.8-1.3 1.7-2.4 2.5-3.7.8-1.3 1.4-2.6 2.2-3.8.2-.4.7-.6 1.1-.3.5.3 0 1-.2 1.4-1.8 3-.8 3.3 1.8 5l21.8 13.6c.2.1.9.4.6.8-.3.5-1.2.4-1.7.4l-34.6 3.4L63 158.4c2.7 1.7 3.4 2.4 5.3-.6.2-.4.5-1.2 1.1-.8.5.3.5.7.2 1.1-.8 1.3-1.7 2.4-2.5 3.7-.7 1.2-1.4 2.6-2.2 3.8-.3.4-.7.7-1.1.4-.6-.3 0-1 .3-1.4 1.9-3 .8-3.3-1.8-5l-17.5-10.9c-2.7-1.7-3.4-2.4-5.3.6-.2.4-.7 1.1-1.1.8-.6-.4-.3-1 0-1.5l3.3-5.3c.8-.8 1.6-.7 2.6-.8l29.2-2.9-16.8-10.3zm17.5-15.1c-.1-.3-.7-1.4-.4-1.7.2-.2 1.4.5 1.6.6l8.4 3.9c.1.1.9.4 1 .6.4.4-.6 1.1-.8 1.3l-4.2 4c-.1.1-1.2 1.4-1.5 1-.1-.1-.2-.4-.3-.5l-3.8-9.2zm5.6 13.4c-.7-1.8-1.1-1.8.4-3.2l5-4.7c1.8-1.7 1.5-1.4 4-.3l3.8 1.7c.6.3 1.7.8 2.2 1.3 1 1.1-.4 2.4-1.3 3.3-.4.3-1.1 1-.5 1.6.3.3.7 0 .9-.2 1.4-1.3 2.6-2.7 4-4 1.6-1.5 3.4-2.9 5-4.4.2-.2.5-.6.2-.9-.5-.6-1.2.1-1.6.5-1.8 1.7-4.4.1-6.4-.7l-24.8-11.5c-.3-.2-.9-.5-1.2-.2-.4.4 0 1 .1 1.4l10.2 25.1c.4.9 1.3 3.3 1.3 4.2 0 1-.6 1.7-1.3 2.3-.3.3-1 1-.5 1.5.6.6 1.3-.5 1.7-.8 1-1 1.9-2.1 3-3.1 1-1 2.2-1.8 3.2-2.8.4-.3.9-.8.5-1.3-.5-.5-1.1.1-1.4.4-.8.8-2.6 2.2-3.7 1-.6-.7-1.1-1.7-1.4-2.5l-1.4-3.7zm29.7-19.9c1.9 3.4 2.8 4.9 6.8 2.7 1.6-.9 3.4-2.5 4-4.2.5-1.4.4-3.5.3-4.9 0-.3-.1-.7.2-.9.4-.2.6.1.7.4.8 1.5 1.3 3.3 2.1 4.9.6 1.2 1 1.7-.2 2.3-4.2 2.4-8.7 4.6-12.9 6.9-1.5.8-2.8 1.8-4.3 2.6-.4.2-.8.2-1.1-.2-.3-.6.4-1 .8-1.2 3-1.7 2.4-2.4.8-5.2l-10-18.1c-1.5-2.8-1.8-3.7-4.9-2-.4.2-1.1.6-1.4 0-.3-.5 0-.8.4-1 1.7-.9 3.4-1.6 5-2.6 1.7-.9 3.3-2 4.9-3 .4-.2.8-.3 1.1.2.3.6-.4 1-.8 1.2-3.1 1.7-2.4 2.4-.9 5.2l9.4 16.9zm67.1-35.3c0 .5-.2 1-.7 1-1.7.1-1-6.5-10-6.1-4 .2-7.5 1.6-10 4.9-2.2 3-3.3 7.3-3.2 11 .2 3.8 1.4 7.3 4.1 10.1 3 3.2 6.8 4.2 11.1 4 1.7-.1 4.3-.4 5.7-1.7 1-.9.8-3.1.8-4.3l-.2-4.2c-.1-2.8-.7-3.3-3.6-3.1-.5 0-1.2.1-1.2-.6s.7-.7 1.1-.7c1.8-.1 3.6 0 5.5 0 1.7-.1 3.4-.4 5.2-.4.4 0 .9.1.9.6 0 .6-.5.7-.9.7l-1 .1c-.5.1-1.2.1-1.5.5-.6.6-.5 2-.4 2.8l.3 5.8c.1 1.3.3 1.9-.8 2.7-3 2.2-6.9 3.1-10.6 3.3-4.5.2-8.8-.7-12.5-3.4-3.9-2.9-6.2-6.8-6.4-11.6-.4-10.1 8.7-17.5 18.4-17.9 2.6-.1 5.7.2 8.2 1.1 1.7.6 1.3 1.7 1.6 3.4l.1 2zm20 7.9c-.5 2.3-.1 2.4 1.9 2.9 1.5.3 4 1 6 1.2 1.3.1 1.9-1.6 2.5-3 .1-.3.4-.8.8-.7.2.1.5.2.4.6l-1.2 4.2c-.3 1.6-.5 3.1-.8 4.7-.2.8-.5.8-.7.8-.4-.1-.5-.7-.5-1 .1-1.5 0-3.1-1-3.5-1.8-.9-4.4-1.5-5.9-1.8-2-.4-2.5-.6-2.8 1.1l-1.9 8.6c-1 4.5 1.1 5.1 5 6 4.2 1 7 1.5 9.6-2.5.2-.3.9-1.6 1.5-1.4.3.1.4.3.4.7-.1.4-.3.8-.5 1.1l-1.9 5.1c-.1.3-.2.3-.6.2L187.7 99c-1-.2-2.1-.3-3.1-.5-.4-.1-.8-.4-.7-.9s.9-.4 1.4-.3c3.4.8 3.4-.3 4.1-3.4l4.6-20.1c.7-3.1 1.1-4-2.3-4.8-.5-.1-1.3-.3-1.1-.9.1-.5.6-.6 1-.5 3.1.7 6.2 1.6 9.2 2.3 4.2 1 8.4 1.7 12.6 2.7.9.2.4 1.3.3 2l-1 4.2c-.1.3-.2 1-.7.9-.4-.1-.5-.8-.6-1.2L211 77c-.4-1.7-.9-2.7-2.4-3.6s-3.6-1.3-5.3-1.7c-.8-.2-3-.7-3.8-.6-1 .1-1.1 1.3-1.3 2.1l-1.6 7.1zm48.2 24.1c-1.8 3.3-4.1 5.9-7.6 7.5-3.6 1.5-7.5 1.4-10.9-.4s-5.7-4.9-6.4-8.7c-.8-3.8.3-7.6 2.1-10.9 1.7-3.2 4.3-6.1 7.7-7.5 3.6-1.5 7.6-1.3 11.1.6 3.3 1.8 5.4 4.9 6.2 8.6.7 3.9-.3 7.4-2.2 10.8zM218 89.7c-4.4 8.1-.4 18.6 7.6 22.9 8.4 4.6 18.7 2.5 23.3-6 4.7-8.6.9-18.2-7.5-22.8-8.1-4.4-19-2.2-23.4 5.9zm62.4 34.8c-.4.4-.9.6-1.3.2-1.2-1.2 4.2-5.1-2-11.5-2.8-2.9-6.2-4.6-10.3-4.2-3.7.3-7.7 2.4-10.3 4.9-2.8 2.7-4.6 5.9-4.9 9.8-.4 4.4 1.3 7.9 4.3 11 1.2 1.2 3.2 3 5 3.2 1.4.2 2.8-1.4 3.7-2.3l3-2.9c2-2 2-2.6 0-4.8-.4-.4-.9-.8-.4-1.3s1 .1 1.3.4c1.3 1.3 2.4 2.8 3.6 4.1 1.2 1.2 2.5 2.3 3.8 3.6.3.3.5.7.2 1-.4.4-.8.1-1.1-.2l-.7-.6c-.4-.3-.9-.8-1.4-.8-.9-.1-1.8 1-2.4 1.5l-4.2 4c-.9.9-1.2 1.5-2.5 1.2-3.6-.9-6.9-3.2-9.5-5.8-3.2-3.3-5.3-7.1-5.7-11.6-.4-4.8 1-9.1 4.5-12.5 7.3-7 18.9-5 25.6 2 1.8 1.9 3.6 4.4 4.6 6.8.7 1.7-.4 2.1-1.5 3.4l-1.4 1.4zm11.5 15.3c3.1-1.7 3.6-1.9 5.5 1.5 2.2 3.9 1.4 7.6-2.7 9.9-1.8 1-3.7 1.3-5.6.5-2.2-1-3.4-2.7-4.5-4.7-.4-.7-1.6-2.1-.5-2.7l7.8-4.5zm-20.3 6.9c-2.8 1.6-3.5 2.3-5.3-.8-.2-.4-.6-1.1-1.1-.8-.5.3-.4.7-.2 1.1.9 1.7 2.1 3.2 3 4.9.9 1.7 1.7 3.4 2.6 5 .2.4.5.7 1 .4.6-.3.1-1-.1-1.4-1.7-3.1-.8-3.3 2-4.9l6.8-3.8c.4-.2 1.4-.9 1.9-.8.4.1.6.5.8.8 1.9 3.3 1.5 3.5-.7 6.8l-6.2 9.1c-.5.7-1.2 1.5-.7 2.3l2.6 4.7c.2.4.5.8.9.5.6-.3.2-1.1 0-1.5-1.1-1.9.2-3.5 1.3-5.2l4.9-7.4c.8-1.3 2-2.8 1.4-4.3 2.5 3.4 6.7 5.4 10.7 3.1 4.6-2.6 4.4-7.9 2-12.1-1.4-2.5-3-4.9-4.4-7.4-.8-1.4-1.5-3-2.3-4.4-.3-.5-.6-.7-1.1-.4-.5.3-.1 1 .1 1.4 1.7 3.1.8 3.3-2 4.9l-17.9 10.2z"/><path class="st6" d="M303.9 175.5c.3 0 1.6.1 1.7.4s-1.1 1-1.3 1.2l-7.4 5.5c-.1 0-.8.6-1 .6-.5.1-.7-1-.8-1.3l-1.5-5.6c-.1-.2-.7-1.7-.2-1.8h.6l9.9 1zm-14.5-1.5c2 .3 2.1-.1 2.6 1.9l1.8 6.6c.6 2.3.5 2-1.7 3.7l-3.3 2.5c-.6.4-1.5 1.1-2.2 1.3-1.5.4-2-1.5-2.3-2.7-.1-.5-.4-1.4-1.1-1.2-.4.1-.4.6-.3.9.5 1.8 1.2 3.6 1.6 5.4.6 2.1.9 4.4 1.5 6.5.1.2.2.7.7.6.7-.2.5-1.1.4-1.6-.6-2.4 2-4 3.7-5.3l21.9-16.4c.3-.2.9-.5.7-.9-.1-.5-.9-.5-1.3-.5l-27-3c-1-.1-3.5-.4-4.4-.8-.9-.5-1.2-1.4-1.4-2.2-.1-.4-.4-1.4-1-1.2-.8.2-.2 1.4-.1 1.9.4 1.4.9 2.7 1.3 4.1s.5 2.8.9 4.2c.1.5.3 1.2.9 1 .7-.2.4-1 .3-1.4-.3-1.1-.7-3.3.9-3.7.9-.2 2-.1 2.9 0l4 .3z"/><path class="st6" d="M312.1 206.3c3.1-.1 4.3.1 4.4 3.6 0 2.1-.3 4.2-1.7 5.8-1.5 1.8-3.8 2.7-6.1 2.7-4 .1-7.6-2.8-7.7-7 0-1.2.3-3 .9-4.1s1.6-.8 2.7-.9l7.5-.1zm-21-3.6c-3.2.1-4.2.3-4.3-3.2 0-.5 0-1.3-.6-1.3s-.6.4-.6.9c0 1.9.3 3.8.3 5.8 0 1.9-.1 3.7-.1 5.7 0 .5.1.9.7.8.7 0 .6-.9.6-1.3 0-3.5.9-3.3 4.1-3.4l8.3-.2c.7 0 1.4-.1 1.4.8 0 .4-.1.8-.2 1.1l-.8 2.4c-.2.8-.3 1.2-.3 2.1.1 5.2 4 9.7 9.4 9.6 2.7-.1 5.4-1.6 6.9-3.8 1.4-2 1.6-4.4 1.6-6.8-.1-2.7-.3-5.3-.4-8 0-1.8.1-3.5.1-5.4 0-.5-.2-.9-.7-.8-.7 0-.6.8-.6 1.3.1 3.5-.9 3.3-4.1 3.3l-20.7.4zm-1 29.8c-3.1-.7-4-1.2-4.8 2.2-.1.4-.3 1.3-.9 1.1-.5-.1-.5-.5-.4-1 .4-1.9 1.1-3.6 1.5-5.5s.7-3.8 1.1-5.7c.1-.4.3-.8.8-.7.6.2.4.9.3 1.4-.8 3.4.2 3.4 3.3 4.2l20.2 4.8c3.1.7 4 1.2 4.8-2.2.1-.4.3-1.2.9-1.1.5.1.6.5.5 1-.4 1.9-1.1 3.6-1.5 5.5s-.7 3.8-1.1 5.7c-.1.4-.3.8-.9.7-.6-.2-.4-1-.3-1.4.8-3.4-.2-3.4-3.3-4.2l-6.3-1.5c-1.8-.4-1.8-.5-2.2 1.3l-3.3 13.8c-.4 1.6-.3 1.8 1.4 2.2l6.3 1.5c3.1.7 4 1.2 4.8-2.2.1-.4.3-1.2.9-1.1.5.1.6.5.5 1-.4 1.9-1.1 3.6-1.5 5.5s-.7 3.8-1.1 5.7c-.1.4-.3.8-.9.7-.6-.2-.4-1-.3-1.4.8-3.4-.2-3.4-3.3-4.2l-20.2-4.8c-3.1-.7-4-1.2-4.8 2.2-.1.4-.3 1.3-.9 1.1-.5-.1-.5-.5-.4-1 .4-1.9 1.1-3.6 1.5-5.5s.7-3.8 1.1-5.7c.1-.4.3-.8.8-.7.6.2.4.9.3 1.4-.8 3.4.2 3.4 3.3 4.2l8.8 2.1c1.8.4 1.8.4 2.2-1.3l3.2-13.6c.4-1.7.3-1.9-1.4-2.3l-8.7-2.2zm7.8 42.6c2.8 1.4 3.6 2.1 5.2-1.1.2-.4.6-1.1 1.2-.8.5.2.5.6.2 1.1-.9 1.7-1.9 3.2-2.7 5-.9 1.7-1.6 3.5-2.4 5.2-.2.4-.5.7-1 .4-.6-.3-.2-1.1 0-1.5 1.6-3.2.6-3.4-2.2-4.8l-18.5-9.4c-2.9-1.5-3.6-2-5.2 1-.2.4-.5 1.2-1.1.9-.5-.3-.4-.7-.2-1.1.9-1.7 1.9-3.2 2.7-5 .9-1.7 1.6-3.5 2.4-5.2.2-.4.5-.7 1-.5.6.3.2 1 0 1.4-1.6 3.2-.6 3.4 2.3 4.8l18.3 9.6zM271.5 312c-.3-.3-.4-.5-.2-.8.8-1 6.1 2.7 11-3.4 5.3-6.6 2.3-14.4-3.6-19.2-2.8-2.3-6.1-3.6-9.7-3.8-3.9-.2-7.6.9-10.2 4.1-4.9 6.1.9 11.6 0 12.6-.3.3-.6.3-.9 0l-3-2.8c-1.2-1.1-1.3-1.1-.9-2.8.8-3.2 2-5.9 4.1-8.5 5.8-7.2 16.3-8.1 23.3-2.5 7.3 5.9 7.5 16.7 1.7 23.9-1.4 1.8-4.1 4.1-6.1 5.4-1.3.8-1.7.3-2.9-.5l-2.6-1.7z"/><circle cx="170.9" cy="213.1" r="99.1" fill="#69cdf5"/><g opacity=".9"><ellipse class="st23" cx="168.6" cy="128.1" rx="5.3" ry="2.8"/><path class="st23" d="M168.6 148.6c16.6 0 31-6.9 29.3-18.7-.8-6.1-12.7-13-29.3-13s-28.3 8-29.6 14c-2.2 10.9 13 17.7 29.6 17.7z"/><path class="st23" d="M100.2 143.4c-5.5 6.6-8.8 13.2-8.7 21 .5 25.8 35.8 46.1 78.9 45.2 43-.9 77.7-21.9 77.1-47.8-.2-7.8-3.7-15.3-9.5-21.7"/><path class="st23" d="M71.6 206.3c-.1 37.7 44 65.2 98.8 65.5s99.2-30.2 99.1-66.4c0 0 0-3.9-.4-7.1s-.5-3.8-.5-3.8M94.1 276.9c21.9 26.5 92.3 53.6 150.5 3.5M75 240.5c28.2 76.1 173.6 70.2 193.1-6"/><path class="st23" d="M79.5 173.9c-1.3 4.2-1.8 8.8-1.7 11.5.5 33.1 40.3 57.6 91.7 57.6s93-26.5 93-59.1c0-7.8-2.4-15.5-6.6-22.2"/><path class="st23" d="M129.8 122.8c-10.2 5.7-17.4 13.9-17.4 22.5 0 17.3 25.4 31.4 56.7 31.4s56.7-14.9 56.7-32.3c0-12.5-12.5-22.7-33.5-28.2m-79.9 16.7c15.5-9.1 33.5-10.2 51.5-6.1"/><path class="st23" d="M173.2 129.5c27.5 9 53.7 29.3 69.1 50.6 15.7 21.8 26.7 45.1 20.6 71M71.7 221.8c-1.8-45 43-83.5 91.9-92.8m10.2-1.5c25.2-2.6 50.7 2.8 70.9 19.4"/><path class="st23" d="M81.4 257.1c-9.4-24.6.6-53.8 15.9-75.7 17.6-25.2 42.4-43.1 66.9-51.8m9.1-2.8c19.1-5 37.4-4.3 51.4 3.1"/><path class="st23" d="M101.7 285c-22.5-25.3-5.5-82.5 24.2-119 13.2-16.2 26.4-28.2 39.2-35.9m7.4-3.9c12.6-6 24.6-7.6 35.9-4.8l.8.3m-15.8-5.1c-7.1-.3-14.5 3.1-21.9 9.1"/><path class="st23" d="M166 130.6c-15.7 15.6-30.6 42.4-40.8 70.7-15 41.8-18.4 89-.5 100.5m117.7-19.2c16.7-23.4 5.7-62.3-11.8-91.3-15.9-26.4-36.8-49.2-58.3-61.2m-7.7-3.8c-11.3-4.8-22.6-6.5-33.4-3.9 0 0-1 .2-1.7.6"/><path class="st23" d="M221.5 299.2c14-13.6 8.8-57.7-7.3-98.6-11-28-26.8-54.8-42.9-70m-5.6-4.9c-7.2-5.6-14.4-8.6-21.1-8.1 0 0-.6 0-.8.1m12.2-2.6c3.3-.5 7.1 3.3 11.1 10.3m2.9 5.4c20.4 42.4 42.9 156.8 26.6 178.8M168.9 114c-.1 3-.2 6.8-.2 11.2m-.1 5.8c-.2 42.2 1.5 129.3 3.2 182m10.4-198.3c-3.9-.6-8 3.4-12.1 10.7m-2.8 5.5c-20.2 43.3-38.1 159.4-19.9 179.3M77.9 177.9c12.7-24.8 35.3-39.5 60.9-45.8 7.9-1.9 16-3.3 24.6-3.8m10.5-.2c15.5.5 32.4 4.1 51.8 12.8 16.2 7.3 32.7 24.1 38.9 39.2l1.1 3"/><path class="st23" d="M94 150.2c11.7-13.3 28.3-20 46.7-22.3 7.4-.9 15-1 22.8-.4m10.2 1.4c49.4 8.6 98.3 47.2 95.9 96.6"/></g><path class="st6" d="M92.6 321.2l4.1-1 2.1-3.7 2.2 3.6 4.2.9-2.8 3.2.5 4.2-3.9-1.6-3.9 1.8.4-4.3-2.9-3.1zm144.8.1l4.1-1 2.1-3.7 2.2 3.6 4.2.9-2.8 3.2.5 4.2-3.9-1.6-3.9 1.8.4-4.3-2.9-3.1z"/><path class="st17" d="M196 282.7c.2.1.3.2.4.3.5.9.4 1.8.4 2.7 0 .5-.1 1.2 0 1.7 0 .5.4.7.1 1.2-.3.7-1.7.1-1.9.7-.4 1.7-2.2 2.2-3.5 2.8-.5.2-.7 1-.9 1.6-.2.6-.4.7-.9.7.2.3-.2 1.1-.1 1.3s.4 0 .5.4c.1.7 1.1-.3 1.7-.5.3 2.1-2.8 1.2-3.3 3 0 .1.5.1.5.3.1.4-.3.6 0 .9.8.8 2.2.3 2.9 1.3.7.9 1.7 1.1 2.6 1.8.2.2.1.6.4.7 1 .3 1.7.7 2.5 1.3.5.4.8 1 1.1.9 1.2-.4 2.6-.8 3.8-.9 1.3-.1 2.5-.2 3.8-.3-.3 1.5-1.7 2.3-3.1 3.1l.1-.1c21.3-7.4 39.4-21.8 51.4-40.5 2.1-3.8 2.4-3.8 2.4-5.4-.3.2-.4.6-.7.6-.6 0-.7.9-1.3 1.2-.9.5-1.7 1-2.3 1.9-.1.2-.6.1-.8.4-.7 1.2-1.5 2.6-2.6 3-.3.1-.2-.3-.6-.2-1.5.8-4 2-4.6 3.5-.2.5.1-.3-.3-.6-.6-.3-1 .2-1.2.6-.4.8 0 2.5-.9 2.1s-1.7.4-1.2-.5c.8-1.4 1.9-2.4 2.6-3.9-.5.1-1.1-.1-1.1-.4.3-1.7-1.4-1.8-2.5-1.6-1.9.4-3.2 2.2-5.1 2.4-1.1.1-2.2.7-3.1.2-1.3-.7-2.6-.5-4-.5 0-.2-.2-.3-.1-.5-.7-.2-1.6-.3-2.1.3-.3-.3-.6-.5-1-.4 0-.7 1.3-.4 1-1.1 0-.1-.5-.1-.7 0-2 1-3.8 2.9-5.8 2.8-1.7-.1-2.8 1.7-4.6 1.3-.3-.1-.4-.6-.6-.7-.9-.4-2.2-.2-2.5-1.3-.2.3-.8.3-.7.5.6.9.5 1.4-.7 1.5-.5 0-.9 1.1-1.2 1.6-.4.5.4 1.3.6 1.7.5 1.5-1.5 1.6-1.7.5-.1-.6.6-1.1.7-1.8 0-.5 0-1.1-.4-1.6.7-.5 1.5-.8 1.3-1.8-.1-.3-.6 0-.8.2-.6.6-1.4.7-2.1 1.2-.5.3-.9.7-1.1 1.3-.2.4-1 .3-1.4.5-2 1-4 2.8-4.1 4.6-.1.9-1.3.8-1.9 1.4-.1.1 0 .4 0 .6-.2 0-.3.3-.5.1l-.6-.6c-.1.3.1.6.2.9.5.7.1 1.4-.4 1.6zm-46.9-123.5c-.4-.6.8-1.1.9-1.6.1-.9-1.2-1.2-2.1-1.4-.6-.2-.6-1.2-.9-1.8-.1-.3-.5-.3-.9-.5-.8-.5-.4 1-1.2 1.1-.1-.8-.5-1.1-1.1-1.4s.6-1.5-.2-2.1c-.5-.4-.9.3-1.3.7-.6-.9-1.7-.7-2.7-.7-.3 0-.4-.5-.6-.5-.8-.3-1.5 1.4-2 .5-.5-.9 0-2.3-.6-2.9-2.8-3.1-2-4.3-2.9-6.2-.5-1.1-2.9-1-4.7-.5-.2 0-.5-.2-.4-.6 0-.2-1.1-.7-1.7.1-.3.5.1 1.1-.3 1.4-.2.1-.5.2-.6.4-.6 1.1-1.3 2.4-2.6 1.8-.3-.2.5-.8.3-1.1-.3-.5-1.3-.7-1.7-.4-.5.4-1 .8-1.4 1.3-.7 1-.2 2.1 1 2.7.1 0-.1.3-.2.3-.2.1-.4.3-.6.4-.4.3-.6 1.2-1.1 1-.8-.2-1-1.3-2.1-1.1-.2 0-.4-.2-.6-.3-.3-.1-.7-.1-.9.1-.2.1-.2.4-.5.5-1 .2-1 .9-1.6 1.4-.5.4-1.3.9-1.3 1.6 0 .4.7.7.5 1.3-.2.7-1.8 1-1.5 2.2 0 .1.3.1.5.2.4.2.2.6 0 .9h.1c-.3 0-.6-.1-.9.1.9 1.1-.7 1.5-1.5 1.9-.5.2-1.1 0-1.7-.1-1-.3-2.8-.5-3.7-.8-.2-.1-.3.1-.4.2-.6.3.4.8.8.8 1 .2 2 .7 2.8 1h6.2c0-.5 0-.9.4-1.2.9-.7 2.2-.6 3.2-1.2.5-.3 1.5 0 1.8.7-.2.1-.3.3-.4.5-1-.7-1.8-.5-3 .7-.2.2-.3.3-.4.5h3.4c.2-.2.5-.3.7-.5.2-.1.5 0 .5.2v.3h29.2v.1zm7.7 0c-.5-.4-1.1-.7-1.8-.7h.1c-.7.1-1 .3-1 .7h2.7zm7.5 0c0-.1-.1-.1-.1-.2-.3-.4-.4-.8-.8-1.2-.1-.1-.3-.3-.4-.2-.7.4-1.4.5-2.1.8-.1.1-.2.3-.1.4.2.3.6.3.9.4h2.6zm3.9 0v-.3c-.1-.4-.5-.8-.6-1.2-.2-1.3-.7-2.4-1.5-3.5-.1-.1-.2-.3 0-.4.6-.4.2-1.1.7-1.4.7-.4 1.4-1.6 1.1-1.9-.6-.6-1.3-.3-2.5-.3-1.2.1 0 2.3-.1 3.5-.3 2-2.1 2.3-1.2 3.4.4.4 1.1.5 1.5 1.1-.6.3-.6.7-.4 1.1h3v-.1zm1.8 0c0-.2-.1-.5-.3-.7-.1-.1-.2 0-.3.1-.2.2-.3.4-.4.6h1zm5.7 0c0-.1.1-.3 0-.5-.2-.9-.9 0-1.2-.2-.7-.6-1.7-1.2-2.4-.8-.4.2-.2.8 0 1.4h3.6v.1zm-68 0c.5.2.9.4 1.1.4 1.9 0 3.4-.6 5.1-.1v-.3h-6.2zm7.7 0l-.4.4c.6 0 1.2.2 1.7.2.6-.1 1-.4 1.7-.1.1-.2.3-.4.4-.5h-3.4z"/><path class="st17" d="M120 159.2c.1 1.3-.3 2.7 1.3 3.4.2.1-.2.8 0 1.2.3.6 1.2.1 1.5.5s-.6.9-.6 1.3c0 .2.1.6 0 .7-.3 1 .2 1.8-.1 2.4-.4.7-.3 1.4-.6 2.1.8-.2.7-.3 1.1-1 .1-.2.9-.6 1-.5.2.7-.9 1-1 1.5-.1.3 1.2.7.8.8-.3.1-1.1.1-1.5-.1-.3 1.4.1 1.2-.5 2.7-.2.4.1 2 .4 2.5 0-.3.2-.6.3-.9.2-1 .5-2.1 1.4-2.3-.3 1.3-1.2 2.3-.6 3.5h40.7c-.1-1.4.6-2.8 1.5-3.7.7-.6 1.2-1.2 1.6-2.1.1-.3.8.4 1 .1.6-.7.4-1.8.7-2.6 0-.1.5-.1.7 0 .4.2.7.4 1.1.2.2-.1.1-.5.2-.6.5-.5.9-.9 1.1-1.7.1-.4-.1-.8.1-1.1.4-.6.4-1.2.5-1.8.1-.4.8-.4.9-.2.3.7 1.1.8 1.5.5.6-.3 1.1-.9 1.6-1.4.4-.4.2-1 0-1.4-.2-.5-.9-.1-1.2-.5-.2-.2-.1-.6.1-.7.4-.1.8-.4.9-.8H172c.1.4.3.8.4 1.1.2.6-.4.6-.8.9-.2.1 0 .5-.1.8-.1.2-.4.4-.5.3-.4-.5-1-.5-1.1-1-.2-.7.1-1.4 0-2.1h-.9c0 .1-.1.2-.1.3-.1.3-.4.4-.6.1-.1-.1-.1-.3-.1-.4h-3c.1.2.2.4.2.6 0 .1-.2.2-.4.4-.4.6-.7 1.6-1.5 1.7 0-.6-.9-1.4-.3-1.7.5-.3 1.2-.5 1.1-1h-2.6c.1 0 .2.1.3.2.3.4-.2.9-.5 1.2-.1.1 0 .4-.2.6-.4.5-1.1.4-1.7.2-1.2-.3-1.9-1.4-2.8-2.2h-2.7c-.1.4.2 1 .5 1.5-.3.2-.7.4-.9.1-.3-.4-.3-1-.7-1.3-.5-.4-1.2-.3-1.8.2-.4.3-1.2.1-1.7-.2-.2-.1-.3-.2-.4-.3H120zm81.4 17.8c-.1-.3-.2-.5-.4-.7-.8-.6-1.9-1-2.6-1.5-1.1-.8-2-3.4-3.2-2.8-.9.4.2 1.4.6 2.3.4 1-1 2.4-2 2.2-.6-.1-1-.7-1.6-1.2-1.2-.9-1.1-2.7-2.3-3.6-.5-.4-1.1.7-1.5.4-.9-.5-.9-1.7-2-2.2-1.3-.5-2.2.7-3.1.5-.8-.2-1.5.2-2.3.1.2.3.1.6.2.8.3.4.9.8.8 1.2 0 1.2.2 2.2.8 3.2.2.4.2.8 0 1.1h18.6v.2zm.6 35.5c-.1-.3-.3-.6-.3-1.1-.6.3.2.8-.1 1.1h.4zm-74.4 35.6c.3.1.9.2 1.2.4s.4.4.6.6c.3.3.4.7.7 1.1.5.5.5 1.3.9 1.9.1.2.1.4.2.3.6-.1 1.4-.6 1.1-1.1-.5-.9-1.5-1.6-1.4-2.5 0-.3-.4-.3-.5-.6v-.2h-2.8v.1zm5.9 0c.2.1.4.1.7 0 .1 0 .2.1.2.2.2.4.2.8.4 1.2.8 1.2 1.7 2.2 2.5 3.4.7 1.1 2.1 1.7 2.2 3.2 0 .6 1 .8.9 1.4 0 .6-1.4 1.2-1.2 1.9.2.5 0 1.3.3 1.5.6.4 1.4.8 1.7 1.3.9 1.1 1.7 2.2 2.9 2.6.7.2 1.7.2 2.4.7 4.1 2.9 9.4 6.9 14.2 4.5.5-.3.7.4.9.6.5.4 1.5 0 1.9.5 1 1 1.7 2.2 2.9 2.9.7.4 1.7-.1 2.4.4 2 1.2 4.2 1.2 6.3 1.3 1.2 0 1.7 1.8 3.1 2.4.5.2 1.3.3 1.4.5.3 1.2 0 2.2 1.4 2.6.1-.5.5-.9.9-.6.7.5 1.6.8 2 1.4.3.5.8 1.6 1.4 1.2.9-.6 1.9-1.1 2.6-.3.4.4 1.4 0 1.6.2.3.2.5 1 .8.7s.6-.7 1.1-.8c0-.4-1.1-.6-.7-1.1.5-.7 1.3-.9 2-1.5.3-.2.9-.1.8.5 1.1 0 1.5.8 2 1.7.1.1.2.1.4.2.5-.2.8-.9.8-1.4 0-.3-.2-.6-.2-.9-.4-.4-.7-.7-1-.9-1.9-1.3-4 .8-5.9 1.7-1.7.8-3.1-.7-4.7-1.3-.1 0 .1-.4-.1-.6-2.2-1.4.1-4.2-.1-6.1-.1-.5 0-1-.3-1.5-.5-.9-1.5-1.3-2.4-1.4-1.9-.1-3.7.2-5.6.4-1.2.1-2.5.3-3.7-.2 1.1-1.3 1.1-2.6 1.4-4.3.1-.4.9.3 1-.1.1-1.8.3-3.6 1.4-5.3.4-.6-.3-1.1-.7-1.1-1.8-.2-3.7.3-5.5.9-1.6.5-.5 2.7-1.6 3.8-.1.1-.4.3-.6.2-.7 2.2-3.4.7-4.9 1.3-.8.3-1.8.7-2.7.3-.3-.1-.5-.6-.8-.7-.7-.2-1.4-.5-1.8-1-.5-.6-.8-1.7-1.2-2.2-.3-.5-.7-.4-1-.9s-.1-1-.3-1.5c-.1-.3-.6-.4-.8-.7-.1-.3-.4-2.1-.4-2.2 0-2.5.9-3.3 1.5-5.9.2-.9-.8-1.7-.6-2.6 0-.1 0-.2.1-.3h-21.7v-.2zm51.6 0c.4.6.6 1.4 1 1.6.9.4.9.3 1.5 1.6.7.1 1.6.3 1.7-.4.1-.9.3-1.8.3-2.6v-.1h-4.5v-.1zm66.4-93c11.9 16.4 18.9 36.5 18.9 58.3 0 1.7 0 3.4-.1 5-3.4-3.8-1.2-6.4-1.8-8.5-.6-2.1-.3-3.4-1.4-5.4-2-3.3-.3-7.1-3.1-10.6-.1-.2.7-1 .5-1.4-.3-.5-.6-1.1-.7-1.6-.2-1.2.6-2.5-.3-3.6-.3-.3-.4-.6-.4-.9-.3-1.4-.4-2.8-1.4-3.9-.4-.5-1.2-.8-1.2-1.5-.1-1.1-.6-2.2-1.1-3.2-.4-1-.1-2.2-.7-3.2-.4-.7-.6-1.4-.6-2.2 0-.3-.4-.5-.5-.8-.1-.2 0-.1.1-.2.6-1.3-1-2.4-1.1-3.6-.1-1.6-1.1-3-1.9-4.4-.2-.4-.3-.9-.5-1.3-.2-.3-.5-.5-.6-.8-.4-.9-.9-1.8-1.3-2.8-.1-.4-.2-.9-.4-1.3-.3-.2-.3-1.6-.4-2.1z"/><path class="st17" d="M241.7 143.7c.7.7 1.5 1.5 2.2 2.3-.3.2-2.3-.4-1.6.2 1 .8 1.3 1.8 2.9 1.4.6.6 1.1 1.2 1.6 1.9 0 .6-.7.7-1.3.8-.2 0-.2.2-.3.3.1.1 0 .2.1.3.4.6.8.9 1.1 1.5s.6 1.1.9 1.7c.2.4.2 1 .4 1.3.3.5 1.3.3 1.6 1 .1.2.2.6.3.8.4.6 1.1 1.2 1.2 1.7.5 3.1 3.4 4.5 4.6 6.9.7 1.6.4 3.6 1.6 5.3.3.5-.2.8-.7.8.2.5.3.9.2 1.4h-.3c-.4-.5 0-1.2-.8-1.4h.1c-.4-.6-1.3-.4-1.6-1-.1-.3-.1-.8-.3-1-.8-1-1.5-1.7-1.9-2.8-.2-.6-.8-1.1-1.6-1.2-.7-.1-.2-.8-.3-1.3 0-.3-.5-.4-.5-.6-.4-.8 1.2-.8.9-1.3-.8-1.2-.9-2.5-1.5-3.7-.3-.7-1.2-1.1-1.5-1.8-.1-.2-.2-.5-.3-.7-.5-.7-1.4.1-1.9-.4-.1-.1 0-.5-.2-.6-.6-.2-1.4.6-1.4 1.4-.2-.2-.5-.5-.6-.7-.5-1.2.2-2.5-1.2-3.4-.2-.1.2-.6 0-.9-.2-.4-.5-.8-.6-1.3-.4-2.5-2.5-1.8-2.5-3.5 0-.5-.8-.9-1.4-1.2-.3-.2-.4-.6-.6-.7-.7-.4-1.6-.9-2.1-1.5h7.3zm-120.9-14.9c1.2-.4 1.8-.9 2.9-2.1.3-.3 1.7-.4 2-.6.4-.3.3-1 .4-1.5 13.5-6.8 28.7-10.6 44.8-10.6 19.2 0 37.1 5.4 52.3 14.9h-5c-.7-.4-1.4-1-2-1.6.1.7.5 1.2 1 1.6h-2.7c-.1 0-.1-.1-.2-.1-1.2-.9-3.1-2.8-4.4-1.8-.3.2 1 .5 1.2.5 1.1.4 2.1.9 3 1.5h-7.5c-.5-.4-.9-1-1.1-1.3-.8-.8-2-.9-3.2-1.1-.6-.1-.8-.7-1-1.3-.1-.4-.7-.4-1.1-.6 1-.9 0-1.6-.7-2.3-.3-.3.1-.7.5-.8 1.3-.1 2.5.5 3.5 1.2.4.3.5 1.9 1.1 1.2.7-.7 1.5.2 2-.5.1-.1-.3-.7-.6-.7-.7-.2-1.4-.3-2-.8s-1.8 0-2.4-.4c-2.1-1.4-4.3-1.3-6.5-1.9-.8-.3-1.6-.3-2.4-.4-.5-.1-.5-.6-.9-.9-2-1.3-4-.3-6.1-.9-.8-.2-1.4-1.1-2.2-1.5-.6-.3.1 1.5-1.2.8-1.1-.6 0 0-3.8.9-.8.2.2-1.5 1-1.8.6-.2 1.4.2 1.9-.1.4-.2-.2-.6-.1-.9-1.4-.1-2.5.9-3.5 1.7-.8.7-2.4-1-3.8-.6-.2.1-.1.7-.2.7-1.9-.6-1.6-.8-3.5-.2-.2.1-.1 1-.3 1-2.7 0-4.9.4-7.1 1.8-.5.3-1.3-1-2.1-.7-.9.4-1.9.7-2.9.4.6-.6 1-1.3 1.3-2.1-.6.3-1.4 1.1-2 1.2-2.3.7-4.9-.6-6.9 1.7-1.1 1.3-3.6-.8-4.9.1-.8.6-1.8 1.4-2.7 2.2.6.6 1.5-.5 2.1.4-1.1.2-2.2.6-3.3.9-.3.1-.7.6-1.1.7-2.7.8-3.7.8-6.4 3.9-.3.4-1.2.5-2.1.5-.2 0-.3.1-.4.3h-10.7z"/><path class="st17" d="M131.3 128.8c-.3.3-.4.9-.6 1.2-.3.4-.3.9-.4 1.4-.1.3-1.2.1-1.9.4.6.8 1.6 0 2.3.4-1.3 2-3.7 3.5-4.7 5.7-.6.6-1.1.5-1.6 1.2-.4.5-.7 1.6-1 2.2-.1.3-.5.7-.7 1-.5-.3-.9-.5-1.4-.5-.4.8-1.3.5-2 .3-.5-.2-.1-.8.2-1.1.7-.6 1.4-1.2 1.8-2.1.1-.2.8-.2 1.2-.3.2-.1.4-.2.6-.4-1-.5-1.8.3-2.8.3 0-.3 0-1.1-.4-.9-.8.6-1.3 1.2-2 1.8-.2.2-.7 1-1 .7-.2-.3-.2-1-.4-1.2-.5-.8-.9-1.2-2-1.5 1.2-.4.5-1.2 1.1-2.1.2-.3 1.6-.5 1.4-.8-1.6-.2-2.7-.3-4.7 1.4-.6.3-1.4.5-2 .8-.2.1-.4-.2-.8-.3s-1.1 0-1.4 0c.8-.5 1.8-1.3 2.7-1.8.6-.4 1.3-.5 1.8-.8.9-.4 1.4-1.5 2.6-1.5.2 0 .6-.2.8-.5 0 .8.9 1.4 1.5 2 .1.1.4 0 .5-.3.9.4 1.5.6 2.1-.2.1-.2-.4-.2-.4-.3-.6.1-.7.1-1.3-.4-.1-.1-.1-.4 0-.4.9-.3 1.7-.6 2.3-1.2.6-.5 0-.7-.7-.8-.7-.1-1.3 1.2-1.4.5-.1-.7.4-1.4.9-1.5.4-.1.7-.2 1-.3l10.8-.1zm82.7 0c.8.5 1.7 1.2 2.6 1.9.3.2 1 .1 1.1.3 1.2 1.4 3.1.6 4.2 1.3 1.3.8 2.6 2 4.2 2.5 1 .3 1.8 1.4 2.3 2.4-1.4.2-2.9-2-3.5-.7-.4.8 2.1 1.4 1.6 2.5-.3.7-2.3-.7-2.3-.8-.9-.4-1.5-.1-2.3-.7-1.1-.8-2-1.5-3.1-2.3-1-.7-1.5-1.9-2.4-2.4-3-1.7-5.8-4-8.9-3.6-.4 0-.7-.2-1-.4h7.5zm3.2 0c.5.4 1 .8 1.3 1.4-1.4-.2-2.8-.6-4-1.4h2.7z"/><path class="st17" d="M223.2 128.8c6.8 4.2 13 9.2 18.6 14.9h-7.2c-.3-.3-.5-.6-.6-1-.4-1.3-1.5-2.5-2.6-2.6-1.8-.2-3.8-.8-4.5-2.5 1.7 0 2.7 1.5 4.2 1.9 0-.9-.1-2.1-.7-2.8-.8-1-2.2-1.4-2.9-2.2-1.1-1.3-3-1.2-4.5-2.2-.6-.4-.7-1.5-1.2-1.7-1.3-.5-2.5-1-3.6-1.7l5-.1z"/><path class="st23" d="M245.2 147.5c-1.6.4-1.9-.6-2.9-1.4-.7-.6 1.2 0 1.6-.2"/><path class="st17" d="M202.6 161.5c-1-.6-1.6-1.8-2.7-2.4-1.5-.8-4-2.2-3.8-4.4 0-.3.8-.5.8-.8-.1-1.2-.4-1.9-1.3-2.4-.5 1.6-1.6 2.8-2.6 1.6-1.1-1.3-.5-1.5-.6-2.3s.9.5 1.7.1c.1 0 .2-.2.2-.3-1.2 0-2.4-2.5-2.4-1.5 0 .7-.8.9-1.2 1.3-.2.2-.7-.1-.8-.3-1-1.3-1.4-2.7-2.9-3.6-1.4-.8-2.7-2.5-4.5-1.9-1.2.4-2.3.9-3.6.7-1.3-.3-1.3-1.1-2.1-2.2-.2-.3-.7-.4-1.1-.5.5-1 2.5-1.3 1.8-2.5-.2-.4-1.4.4-1.5-.4 0-.6 1.1-.8 1.2-1.5.1-.4-.2-.5-.6-.8-.3-.2.1-.6.2-.8.3-.7 1.6-.5 1.6-.9.1-2.6 1.7-5.2 4.2-3.9.4.2-.6 1.2-.1 1.9 1.1-1 2-.8 2.8.5 0 .1.4.1.4 0 .3-.8-.7-1.3-1-2-.4-.9.8-.5 1.3-.3 1.6.9 2.7 2 4.4 2.7.8.4 2-.5 2.7.3.2.3-.3.9-.1.9 1.7.5 3.6-.3 4.8 1.1.5.5 1.2 1 1.7 1.5.3.3.5.6 1.1.8-.1 0-1.1.2-.9.7.1.3.6.1.9.1h.2c.1.2.3.5.4.5 1.1-.4 1.9.1 3.3.5-.4 1.1-3.4.1-1.4 1.2.3.2.4.9.8 1.1 1.1.4.9-.7 1-1.5 0-.2.4-.1.6.1.1.2.3.6.4.7 1.2.8 1.3 1.9 1.4 2.9.1 1.1-1.4 2.1-.5 3.3.9 1.2 2.4 2.4 1.8 3.5-.5.9-1.2 2.1-1.3 3.3 2.3 0 2.3 2.7 3.5 4.1.4.5.8 1.1 1.2 1.7.7.9 2.3 2 1.6 3.1-.5.8-1.7.3-2.5 0-.7-.2-1.6.8-2.5.5M249.2 152.8c-.4-.4-.9-.8-1.2-.3-.1.1 1.6 1.4 2.3 1.6.3 0-.9-1.1-1.1-1.3zm-1.3-1.2c-.1-.4-.8-.5-1.2-.6-.1.5.4.7.9 1 .2.2.4-.2.4-.1l-.1-.3zm-14.7-5.1c-.2-.2-.4-.5-.7-.3-.1.1-.3.4-.4.3s-.4-.5-.7-.7c-.4-.3-.5-.5-.6-1-.1-.1-1-.4-1.1-.1s0 .8-.2 1c-.4.2-.7-.5-.9-.9-.1-.3-.5-.2-.5-.1-.1 1.2.1 1.6.7 2.2.2.2.6.6.6 1 .4-.1.5-.7.8-.6s.5.3.7.4l.6.3.6.6c.1.1.5.2.7.2.1 0 .3-.1.3 0 .8.7.6 0 .8-.1.1 0 0-.3.1-.3.9.1 1.4 1 2 1.8.3.4.1.6.3 1.1.1-.1.3.1.4.1.6-.1 1 1 1.5 1.2.4.2 0-.3.4-.6.2-.1.4.2.5.4.2.6.2.9.6 1.3.5.5.9 1.5 1 2.1.2-.1 0-.9.1-1.1 0 0-.1-.3-.1-.5-.1-.3-.2-.6-.5-.8-.3-.3-.1-1.3-.2-1.6 0-.1.4-.7.3-.6.1-.2.1-.5 0-.6 0-.1-.1-.8-.3-.8s-.8.3-.9.2c-.3-.5-.5-.6-.8-1.1-.3-.4-.1-.3-.3-.7-.1-.2-.1-.4-.3-.6-.2-.3-.5-.2-.7-.1-.5.2-1.3-.3-1.7-.5-.4-.2-.7-.4-1.2-.4-.2 0-.2 0-.4.2l-.5-.3z"/><path class="st17" d="M238.6 154c-.2-.4-.4-.5-.4-.8-.3-.4-.8-1.4-1.2-1.6-.8-.3-1-.3-1.3-.9 0-.1-.2-.4-.2-.5-.2-.3-.3-.6-.6-.7-.2-.1-.8-.3-.9-.3-.6.1-.5.6-.5 1.1 0 .2.4.4.6.7.1.2.2.5.5.7.5.3.2 1.2.1 1.2.3.4.7 1.5 1.2 1.3.4-.1.4-.3.8-.1.7.4.9.9 1.2 1.5.2.4.9 0 1.3.1.2.2-.2-.9-.6-1.7zm-20-6.8c-.2-.4-.4-.7-.5-1-.5-1.1-.5-2.4-1.3-3.3-.5-.5-.9.5-1.5.7-.3.1-.4-.3-.6-.5-.1-.2-.5-.3-.7-.2-.6.2.1 1 0 1.2-.5 1 0 1.6.4 2.3h-.3c-.7-.8-1.4-1.1-2.1-.2-.6.8.8.9 1 1.4.1.2.4.2.5.5.4-.3.4-.7 1-.8 0 .6-.2 1.4.1 1.8.2.2.4-.4.7-.6.3-.3.7.1.9.4.2.3 0 .8.4.8.1 0 .2-.1.2-.2.1-.2-.1-.6.1-.7.4-.3 1-.5 1.4-1v-.6h.3zm-26.8-21.6c-.5.2-1.9.2-1.1.7.7.4 1.7 0 2.5.4.3.2.4.6 0 .8-.6.3-1.4-.6-1.8-.2-.6.7-1.5 1.1-2.4 1-1.1-.2-.7-1.9-1.3-2-1-.1-2.5-.3-2.1-1.1.3-.6.5-.4 2.2-.4.5.2.7.6.8 1.1 1.1-.3 1.3-1.3 2.6-.9l.6.6zm-12.2-3.9c-1.2-1-2.7-.9-4.1-.4 1 1.5 2.2.3 3.6.3l.5.1zm2 .9c-.5-.2-1.5-.5-1.7.2.4.1.7.7 1.2.5.5-.3.4-.5.5-.7zm8-3.3c0-.4.2-1-.2-1.2-.6-.3-1.1.1-1.6.2-2.7.5-5.6.4-8.3.2h-1.9c.4.2-.4.2 0 .3 1.2.3 4 .3 5.2.3 1.8 0 2.8.5 5.1-.1.5-.1 1 .1 1.4.3h.3zm-21.2.8c-.6-1.1-2.5-.8-3.6-.5.2.4.6.3.8.6.3.3.4.9.9.9s.5-.5.8-.7c.2-.1.4-.3.7-.3h.4zm-4-.7c-.3.4-1.3 1-1.4.6s.7-.9 1.3-.9l.1.3zm-60.6 25.1c0 .4-.5.6-.8.6-.1 0-.2-.2-.1-.3.1-.3.5-.5.8-.5l.1.2zm14.2-1c.4.4.3 1 .2 1.6 0 .3-.3.4-.5.4-.1 0-.1-.1-.1-.1 0-.6-.3-1.6.4-1.9zM169.1 295.3c0 .4 0 .3-.2.7-.2.3-.7 1-1 .3-.2-.5-.2-1.2.1-1.7.1-.2.5-.4.8-.2.1 0 .3.8.3.9zM191.4 247.7c.3.2.5.6.8.5.6-.2 1.2-.1 1.8.1-.3-.8-1.1-.4-1.8-.3-.2 0-.4-.3-.6-.3h-.2zm4.3-.3c-.1-.3-.3-.2-.6-.2 0 0-.1 0-.1-.1-.1-.4-.5-.4-.8-.3-.1 0 0 .1 0 .2.2.2.4.4.8.4.3 0 .3.5.2.7-.2.4-.2.7-.1 1 0 0 .1 0 .1-.1.2-.5.1-1.2.5-1.6zm-1.3 3.3c-.3-.2-.7-.7-1-.4-.1.1 0 .3.1.4.1.4-.1.7-.2 1 0 .1-.1.3 0 .3 1.2-.2 1.2.8 1.7 1.3.1-.4.4-.7.2-.9-.4-.4-.5-1.1-.6-1.6l-.2-.1zm3.2-.9c-.3-.5-.8-.6-1.3-.2-.1.1-.3.4-.2.4.3.1.6-.4 1-.1.2.2.2.5.2.7 0 .3-.2.5-.1.8h.1c.2-.3.1-.8.4-1.1.1 0-.1-.4-.1-.5zm1.1.4c0 .3 0 .6.3.8s.7.3.7.7c-.4 0-.8-.3-1-.7-.2-.2-.2-.6-.1-.9l.1.1zm1.7 3.2c-.5-.2-.6-.7-1-1-.1-.1-.2.1-.1.2.2.5.4 1.1.9 1.3.1 0 .1-.2.2-.3v-.2zm.5.4c.8-.2 1.4.6 1.3 1.3 0 .1-.3.2-.4.1-.2-.3.1-.7-.2-1.1-.1-.2-.6-.1-.8-.2l.1-.1zm3.9.1c-.3 0-.6-.1-.9 0-.1.1-.2.4-.1.4.3.1.8.1 1-.2v-.2zm3.2 1.2c-.5-.1-.9-.2-1.3-.4-.2-.1-.4 0-.5.1-.4.2-.8.3-1.2.4.1.1.2.1.2.1.5.1.8-.3 1.3-.2.5.1.8.2 1.5 0zm-3.7.8c.1.8-.7 1.5-1.4 1.4-.2 0-.2-.4 0-.5.5-.3 1.1-.4 1.1-1l.3.1zm-14-.3c-1.3.6-2.4.2-3.8.2-.6 0-1.3.4-1.9.6-.8.3-1.4.7-2.2 1-.3.1-.7.8-.8 1.3 0 .1 0 .2-.1.2-.4 0-.9 0-1.2.4.5.1 1-.3 1.4.2.1.2.5-.1.6-.3.4-.7 1-1.3 1.8-1.6.2-.1.5-.1.7-.1.7-.1 1.2-.5 1.9-.4.1 0 .2 0 .2.1.1.1 0 .3 0 .5-.1.3.1.8.4.7 1-.1 2.3-.9 2.9.2 1.1.4 2-.3 3.1-.4 0 0 .1.2.1.3 0 .3.1.6.2.8.1.2.3.4.4.7 0 .1.1.2.2.1s.2-.2.3-.2c.7 0 1.5-.3 2.2-.2-.1.7-.8 1-1.3 1.4-.1.1-.3.2-.2.3 0 .1.2.1.3 0 1.1-.4 3.1-1 4.3-1h.9c0-.6 1-.9 1.2-1.4-.7-.6-2 .1-2.7-.2-.3-.1.1-.7 0-1.1-.7.2-1.3.5-2 .4-.2 0-.2-.4-.4-.5-1-.2-1.9-.5-2.8-.9-.8-.3-2 0-2.9-.4-.1 0-.6-.5-.8-.7z"/><path class="st17" d="M185.4 258.9c0-.3-.3-.7-.6-.6-.4.1-.6.8-.5 1.1.2.4.6-.3 1-.4l.1-.1zm13.2 5c-.9-.5-2-.7-3-.5-.5.1-1 .5-1.2 1.1 0 .1 1 0 1.1.1.6.7.9.3 1.6.1.4-.1.7 0 1.2-.2.1 0 .3-.2.3-.4v-.2zm15.1-4.9c-.6-.5-1-.5-1.7-.1-.1 0-.1-.1-.1-.1-.1-.3.3-.7.1-.9-.5-.3-1.2.1-1.8-.1-1.2-.4-2.4-.4-3.4.9-.1.2-.5 0-.7.1-.4.1-.8-.2-1.1 0-.4.2-.7.3-1.1.6-.1.1-.1.3-.1.4.4 0 .9-.2 1.2 0 .2.1.5.3.5.5.2.5.1 1.2-.1 1.7-.6-.3-1.1 0-1.7 0-.5-.1-.6.1-1-.2 0 0-.4.5-1 .8-.1 0-.1.2.1.3.5.3 1 .2 1.4.1.3-.1.5-.4.8-.4.7-.2 1.4.1 2-.3.4-.2.3-.4.7-.7 0 0 .4 0 .4.1s.5.1.6.1c.3.3.1.7.6.9.1 0 .2-.1.2-.1.1-.7.3-1.5.9-1.8.5-.3 1.2-.2 1.7-.6.4-.3.9-.5 1.4-.4.4.1.8.1 1.1.1.2-.1 0-.8.1-.9zm4.9-1.1c-.1.6-.3.8-1 1-.7.1-1.5 1-2 .6-.2-.2-.5-.8-.1-1.1.8-.6 1.5-1.1 2.4-1.2.2 0 .2.2.4.3l.3.4zm8.1 0c-.2.5-.4.8-.8 1.4 0 .1-.2.1-.2.1-.5-.8-.2-1.2.5-1.6 0-.1.5 0 .5.1zm.1 2.3c.6 0 1 .5 1.1 1 0 .1-.2.1-.4 0-.3-.2-.5-.5-.8-.7 0 0-.1-.1-.1-.2l.2-.1zm-.7 6.9c.6.1 1.4-.4 1.7.1.3.5.3 1.1 0 1.6-.2.3-.7.2-1.1.3-.3.1-.4-.2-.2-.4.2-.3.7-.5.5-.9-.2-.3-.5-.5-.9-.7zM212.1 200.6l-.3-.3c-.3-.3-.6-.3-.6-.3-.7 1.3-3 1.8-4.6.1-.1-.1-.2-.4-.2-.4-.8-.6-.5-1.3-.6-2.1-1.1.2-2.2.4-3.3.2 1.6-.5 4.2-2.3 2.8-3.2-2.3-1.5-5.1 1.9-5.9 4.3-.5 1.3-.8 2.9-2.3 3.5l.3-.6c1.9-3.4 1.1-4 2.5-6 .3-.4 1-.4 1.1-1 .2-1.1.3-2.6 1.6-2.8.5-.1 1.1.1 1.6-.1.4-.1.8-.7 1.2-.6 1.1.2 2.1-.3 3-.7.5-.2 1-1 1.5-1.5.2-.2-.1-1 .2-1.2 2-1.7 2.8-4.9.4-6.1-.7-.3-2 .1-2.3-1.3-.1-.5-.9.2-1.3-.2-.2-.2-.2-.6-.5-.7-.4-.2-.8-.1-1 .4-1.1-.3-2.1-.7-3.1-1.2-.8-.4-.7-1.3-1-2h-18.5c-.2.3-.5.6-.9.7.4 1 1.9.9 2.1 1.7.4 1.3 1.5 2.5 1.2 4-.4 1.6-2.3 2.8-2.1 3.7.5 2 1.6 4 1.3 6.2-.1.4-.8.6-1.1 1-.2.2.2.6-.1.8-.3.2-.9 0-1-.3-.5-1.1-1.1-1.9-2.2-2.4-.1 0-.2-.3-.5-.6-.2-.2-.3-.4-.4-.6-.1-.9-.4-1.7-.5-2.5-.2-1 .1-2-.8-2.1-3.2-.2-5.4-1.6-8.1-3.5-1-.7-2.8-1.1-3.4.4 0 .1-.4.1-.4 0-.2-.6.2-1.5-.2-2s-.5-1.1-.5-1.7c0-.4-.4 0-.4-.3-1.2.3-1.7-.6-2.1-1.9 0 .1.6-.3.6-.3v-.3h-40.5c.1.2.2.4.4.6.1.1.1.4 0 .6-.8.8-1.5 1.8-1.7 2.8-.1.6.8 1.4.8 2.1.1 1.1-.8 2.3 0 3.3.6.8 1.1 1.5 1.5 2.4.4.8.7 1.8.8 2.3.4 1.3 1.4 3.4-.1 4.4-.6.4-.9.9-1.5 1.2-.1-.9.2-1.8 1.3-1.8.2 0 .1-.4.3-.5-1.2-.1-2.1-.8-3-1.5 0 1.1.1 2.1-.1 3.2 0 .2-.4.5-.2.7.4.3.6.8.4 1.2-.1.2-.4.2-.7.2-.2 0-.6 0-.8.3-.2.4 0 .8.1 1.2.2.4-.8 1.1-1.1 1.4-1.5 2-1.6 4-1.8 6.5 0 .6-1.1 1.4-1.2 1.9-.1 1-.5 2.2-.4 3.3.1.5.2 1 .6 1.5.1.1-.4.2-.3.4.2.7 1.3.4 1.5 1.2-.6 0-.5.6-1.1.8-.1 0 0 .9.2 1.2.2.3.4.6.2.9-.1.2-.4.3-.6.5 1.5 1.1.6 3.5 1.5 4.4.8.9 2.1 1.5 2.8 2.8.3.5 1.1.9 1.1 1.7.2 2.4.3 6.1 1.8 8.2 1 1.3 2.4 2.8 2 4.2-.2.6-.8.1-1.2-.1-1.4-.5 0 1.2.2 1.4 1.3 1.2 2.9 2 3.4 3.7.2.8-.2 1.8-.5 2.5-.1.2.1.3.3.4h2.8c-.6-2-.4-4.4-2.3-6-.5-.5-.3-1.3-.6-1.9s-.7-1.1-1.1-1.6c-.7-1-.9-2.1-1.2-3.2-.3-1 .1-2.2-.4-3.3.2 0 .4-.2.5-.2.7.4 1.2.9 1.5 1.7.1.3.6.3 1 .5.1.1.2.3.2.4-.4 3 1.6 5.5 3 8 .6 1 1.1 1.9 2 2.8.2.2.4.6.3.8-.2.3-.7.5-.6.9.2.5.5 1.1 1 1.3h21.8c.1-.5.1-1.1.4-1.4 0 0 2.5-1.5 4.1-1.9.5-.1 1-.4.8-.6-.6-.7-.3-1-.3-1 .2 0 .7.6.8.6.8-.2 1.8-1.1 2.2-.7.9 1.1 2.1.2 3.2-.1 1-.2.7.8 1.4 1.2 1.1.7 1.8-.7 3.3.6.2-.1.3-.4.6-.5-.3-.4-.8-.1-1.1-.5.4-.5 1.2-1 .8-1.2-.2-.1-.3.1-.6.2-.9.2-2 .3-1.3-1.3.1-.2.9-.1 1.3.3 1 1.1 2-.9 3.1-.5-.1.2.1.3.1.4.8-.1 1.7.2 2.4-.4.8-.6 1.2.9 1.9 1.3 1.3.7 2.2-.2 3.1-.8 1-.6 2.1 1.5 2.6 2.4.5 1.1.2 2.7 1 3.8h4.5c-.1-1.4-1.1-2.6-1.3-4.1-.2-1-1.3-1.9-1.7-2.9-1.3-3.3.7-4.7 2.4-6.1.4-.3.3-.8.6-1.2.3-.3 1-.5 1.1-.8.6-1.4 2.3-1.8 3.1-3 .1-.2.1-.6.3-1 .1-.2.6-.5.7-.6.4-.6-1.1-.6-1.1-1 0-.7 1.4.2 1.5-.4v-.5c0 .2.2.3.2.3.1 1-.1 1.8-.7 2.6.2 0 .4-.2.5-.4.2-.5.6-1.4.5-2.4 0-.3 0-.3-.4-.6-.2-.4-.7-.4-1.1-.5-.1 0-.1-.4-.3-.6-.5-.6-.1-1.4-.6-1.9-.6-.6-.6-2.4.2-3.5.1-.2.3.2.3.3 0 .8-.2 2.3.8 3.1.6.5-.3 1.4.4 2.2.2-1.8 1.5-3.9-.3-5.3.7-.3 1.3.7 1.9 0 .2-.3-.2-.8-.2-1.3.1-.9-.6-1.6-.4-2.4.1-.5.6-1 1-1.4.8-.8 2.3 0 3-1.2.3-.6 1.3.2 1.9-.2.4-.2.4-.5.3-.7h-.4c-.1.1-.2.1-.3.1-.2 0-.3 0-.5-.1-.3-.2-.5-.7-.9-.5-.3-1 .4-1.9.1-2.8-.1-.1-.1-.3-.3-.4 1.3-1.6 2.9-2.5 4.5-3.8.2-.1-.1-.7.2-.9 1.1-.7 1.8-1.5 1.6-2.9.2 0 .4-.4.5-.2.2.3 0 .9.2 1.1.3.3 1.1-.5 1.2-.2.2.5-.8.9-1.3 1.3-1 .9-.9 2.2-.6 3.1 0 .1 1.7.5 2.1-.4.7-1.7 1.6-3.4 3.2-4.5.4-.3.7-.4 1-.8-.4-.4-.6-.4-.7-.4zm-32.6 11.8c-.1.1-.4 0-.6 0 .1-.5.3-1.1.7-1.4.2-.8.2-1.7-.2-2.4-.5-.9-1.7-1.4-2.7-.8-.7.5-1.1 1.3-1.5 2-.3.5-.2 1.2-.2 1.8 0 .5-.3 1.3 0 2 .7 1.5.1 1.7 0 2.3-.2.9-.6 1.5-1.3 1.3-.6-.2-1.1-2.4-1.1-3.7 0-.4.3-.9.3-1.7.1-1.1.6-1.4.7-2.3-.7 0-1.1.7-1.6 1-.1-.5.3-.9.5-1.1l4-2.1c.3-.3 1.1-.3.9-.8-.1-.3-1-.7-1.1-.7-1.7.3-3 1.2-4.2-.1-.5-.6 1.3-1.3.7-1.6-1.5-.6-2.2 2-3.8 2.3-.7.1-.6-.6-1.3-.8-1-.2-.8.1-1.4.4-1.5.6.2-.9.7-1.4.9-.8 1.9-1 2.9-1.6.7-.5 1.4-1.4 2-2s1.5 0 2.2-.1c.6 0 .6 1 .9 1.4.1.1.7 0 .7.1.2.6 1 .8 1.1 1.2.3 1.5.5 2.9 2.1 2.6 1.7.5 3.6-.5 4.9.7.6.6 2.1 1 1.7 2.5-.3 1.2-1.8-1.1-2.7-1.1-.2 0 0 .7.2 1.1.2.3-.1.9-.3 1.2-.4.6-.3 1.7-.1 2.4.1.2-.3.1-.2.3-.4.1-.6.3-.8.1-.3-.9-.6-1.4-.8-2 0-.1-.3-.3-.5-.1-.2.4-.4.9-.8 1.1zm6.6 2.3c-.5.5-1.2.7-1.8 1.2-.7.5-1.5.8-2.2.8s-1.5-.2-2-.8c-.3-.4 1-.1 1.5-.2.9-.2 1.2-1.3 2-1.6.9-.3 1.6-.1 2.6-1.2.3-.3.9.2 1.5.1l.1.3c-.5.6-1.2.9-1.7 1.4zm5.5-4.8l-.1.4c-.1.4-.1.9-.6.9-.7.1-1.1.6-1.7.6-1.1.2-1.4-.1-2.3.6 0-.1-.9 0-.9-.1.2-.4.5-.7.7-1.1.2-.6 1-.5 1.6-.7.1 0 .2-.3.4-.3 1.3.2 1.9-.7 2.6-1.6.2-.2.4.9.3 1.3z"/><path class="st17" d="M212.7 200.4c.7-.7 1.2-1.6 1.3-2.6-.7-.5-1.5 2.3-1.7.4-.1-.5 1-1-.1-1.4-.7-.3-.5 1.6-.6 2.4-.2.7.5 1.2 1.1 1.2zM176 136.6c.1 1.4-.2 2.5-1.2 3.6-1.3 1.5 1.5 2.9-1.5 3.7.7.6.8 1.4.5 2.1-.3.6-1-.1-1.5-.2-.6-.1-.5.8-1.1.3-.6-.4-1.8-.2-2.4-.5-.1 0-.2-.3-.1-.5.8-.8 1.7-.9 1-2 .2-.1.5-.1.6-.3.5-.7-.7-1.2-.2-1.9.4-.6 1.1-.7 1.7-.9.4-.2.8-.4 1.1-.7-1.6-.1-3.1 1.1-4.5.3-.6-.3-.4-1.8.4-1.7 1.6.2 1.9-1.5 3-1.7 1-.1 1.8-.6 2.7-.5.2.2.7.9 1.5.9z"/><path class="st17" d="M167.6 139.1c.1.4.1.9.5 1 1.4.6 1.7 2.3 1.1 3.4-.1.2-.5.6-.7.5-.5-.1-.7-.7-1.2-.9-.3-.1-.1-.8.1-1.2.2-.2-.1-.6-.2-.8-.2-.3-.7-.2-.6-.7.1-.4.5-.6.8-.9l.2-.4zm-1.1 3.9c-.3-.2-.6-.9-.9-.7-.2.1-.1.6-.2.9s-.5.7-.6.4c-.1-.3.2-1.1-.1-1.3-.9-.5-1.9-1.3-2.9-.6.3.4.1.5.3.9.3.3.9.6 1.2 1 .5.8 1.5.8 2.3.7.4-.1.6-.6.8-1l.1-.3zm-6.4.5c-.4.3-.7.8-1.3.6-.3-.1-.8-.3-.7-.6.2-.9 1.7-1 2.4-.8l-.4.8zm-3.1 0c-.3.5-.5 1.2-1.2 1.4-.4.1-.8-.4-1.2-.2-.2.1 0 .4-.2.6-.4.4-1.1.3-1.5.1-.3-.2-.5-.6-.8-.7.8-1.5 3-1.7 4.6-1.4l.3.2zm.1 1.9c-.8-.6-1.3.1-1.9.6-.4.3-1-.3-1.3.1-.1.1-.2.5-.1.6.6.4 1.4.1 1.9.6s.3 1.2-.1 1.7c.3.3.8.1.9-.1.9-1.1 2.3-.7 3.1-1.2.7-.4.2-.8-.8-2.4-.3-.5-.4.8-.5 1.2-.1.3-.4.3-.6.4-.3-.4-.5-.8-.5-1.3l-.1-.2zm7.5 1.1c-.5-.1-1-1-1.1-.8-.9.9-1.2 1.2-2.2-.4-.8.4-.4 1.5-.2 1.8.2.5.9-.2 1.3.1.3.3.5.8.7 1.3s.9 0 1.3-.3c.5-.3.2-.9.3-1.4l-.1-.3zm9.7 1.5c-.2-.6-1-.8-1.5-.9-1-.2-2.1.7-3.1.1h.1c-1.7.1-.9-.9-1.6-1.1-.6-.1-1.9-.9-3-.6-.2.1 0 .7.1.8.6.5 1.8.2 2.3.9.5.7-.3 1.8.3 2.1 1.2.5 2.3.5 3.7.2.3-.1.3-.3.6-.5.1-.1.3-.2.4-.1.3.2.8.2 1.2 0 .4-.2.2-.3.5-.6v-.3z"/><path class="st17" d="M166.4 147.6c0 .5.3 1.1 0 1.6-.2.3-1 .1-1-.2 0-.5-.1-1.5.7-1.5l.3.1zm-2.3 2.6c-.8 0-1.1.4-2.3.2-.4-.1-.6.9-.8 1.3-.1.2-.5 0-.8.1-.3.2-.2.6-.4.9.5.2 1.3-.1 1.6.2.4.5.4 1.2.5 1.8 0 .2.3.3.4.1.6-.6 1-.8 2.3-1.3-.3-.7 0-1.5-.9-1.8-.7-.3.4-.8.6-1.3l-.2-.2zm23.4 18.1l-3.2-2c-.7.1-1.6 0-2.3.3-.6.2-1.2.9-1.8.6-.4-.2-.8-1.1-.6-1.2 1.1-.3.6-1 .4-1.6.8-.2 1.6.4 2.4.5.3 0 .7.1.9-.3.3-.8-.5-.9-.9-1.3-.1-.1 0-.3.1-.5.4-.7 1.4-1.1 1.3-1.9-.1-.5-.4-1-.9-1.2-1.4-.6-2.8-1-3.8-2.3-.3-.4-.9-.8-1.4-1.2-.1-.1-.3.1-.4.2-.4.2-.3.7-.7.9-.4.2-.6-.2-1-.3-1.9-.2-3.8.5-5.3-.8-1-.8-2.1-1.7-1.6-3.1.2-.8.9-2 1.3-2.4.5-.5 1.3-.2 2-.3 0 .2 0 .4-.1.5-.4.4-.8.8-1 1.3-.1.4-.2.8 0 1.2.3.4.6 1.4 1 1.1.3-.2.2-.8.1-1.2-.3-1 .1-2.1.9-2.5 1.2-.6.8.4 1.1.8.8.9.1 1.9.3 1.9.9-.2 2-1 2.8-1.4.3-.1.9-.2 1.3-.1.3.1.4.5.7.6h-.1c.9.9 2.3 1.1 3.6 1.4 0 0 .2.2.3.2.4.1.8.3 1.1.5.2.2.6.1.8.3 1 .6 1.1 1.7 1.3 2.7.2.6 1.1.9 1.7.5.2-.1.1-.5.3-.4 1.2.7 2.1 1.4 3.5 1.7 1.3.3 1.2 1.8.8 2.8-.1.3-.3.5-.1.8 0 .1.1.2 0 .2-.4.1-.7-.2-1.1-.3-.2-.1-.3-.5-.4-.5-.8-.1-1.2-.6-1.6-1.2-.2-.2-.5-.2-.8-.2-.1.9.2 2.4 1 2.5 1.1.1 2.2.5 2.9 1.3.2.2.2.6.4.8.3.4.7.9 1 1.3.2.2-1.3.8-1.7.4-.9-.9-2.1-.7-3.2-.9 1 1.1 2.5 1.4 3.8 1.9.3.1.9.5.7.7-1 .7-2.5.4-3.6 0-.5-.2-1-.3-1.6-.3l-.6-.5z"/><path class="st17" d="M176.9 150.8c-.8-.9-1.7-.1-2.6.1.1.4.2 1.3.5 1.3.7 0 1.6-.5 2.2-1l-.1-.4zm3.7 8.6c.2.5.7 1 .3 1.5-.4.4-1.1 1.1-1.5.8-.3-.2-.4-.6-.2-1.1s.6-1.1 1.2-1.3l.2.1zm-27.9-12c-.9.1-1.2-.4-1.9-.7-.4-.2-.7.4-1.2.3.1 1.7-1.4 2.4-2.9 2.7-.1 0 .2.3.3.5.3.7.1 1.9 1.3 1.7.1 0 .9-.2 1 0 1-.5.8-1.1 2-1.4.3-.1.7-.4 1-.5.4-.2 1.2-.1 1.4-.5.3-.4-.2-1-.6-1.4l-.4-.7zm7.5 8.9c-.3.1-.6.1-.7-.1-.3-.6-.9-.8-1.4-1.3-.1-.1 0-.2-.1-.3 1.4-.5.4-1.9.9-3 .2-.5 1.2-.8.7-1.4-.3-.4-1.1-.2-1.5.1-.4.5-.6 1.3-1.3 1.5-.1-1.5-1.5-1.1-2.7-.9-.3.1 0-.7-.1-.8-.8-.2-1.2.5-2 .6s-1.7.9-2 1.6c0 .1.5.1.5.3.2.5-.8.6-.6.9.5.8 1.7.1 2.3.7.4.4-.2 1.1-.8 1.1-.7-.1-1.5-.7-1.9-.5-.9.6.4 1.2 1.1 1.7.1 0 0 .3.1.4h.2c.1.7.5.8 1.1 1.1.8.4 2 .3 2.7-.1.4-.3.9-.9 1.4-.7.4.2.9.5 1.2.9.2.3.5.7.9.7.3 0 .7 0 .7-.4.1-.9.6-1.3 1.4-1.5.2 0 .1-.4-.1-.6zm17.9 11.9c-.3.4-.4.5-.8.8-.3-.6-.9-1-1.5-1-.8-.1-1.4.8-1.8 1.6-.2.3-1.1 1-1.1.4-.1-1.3-.4-.6-.8-.8-.4-.3.1-.6.2-.9.4-1.2-.8-4.1 1.2-3.7.2 0 .4.6.7.9.3.3.6.5.9.8s1 0 1.3.4c.3.5.9.7 1.4 1l.3.5zM177 171c-.6.1-.7.8-1.2 1s-.8-.5-.6-.8c.3-.5 1.1-.9 1.7-.5l.1.3zm3 .6c-.3-.3-.6-.6-1-.5-.3.1-.5.5-.4.7.2.3.7.5 1 .9.3.5.5-.4.6-.8l-.2-.3zm-77.2-15.3c.2.3.3.4.1.6-.2.4-.6.2-.7-.1-.1-.2.1-.4.2-.5h.4zm-.4-.2c-.4.1-.5.3-.9.1-.5-.2-.7-.4-.6-.5.2-.4.8 0 1.3 0l.2.4zm-1.2-2.1c0 .4-.5.6-.8.6-.1 0-.2-.2-.1-.3.1-.3.5-.5.8-.5l.1.2zm-.5-1.1c0 .4-.5.6-.8.6-.1 0-.2-.2-.1-.3.1-.3.5-.5.8-.5l.1.2zm0-1.4c0 .4-.5.6-.8.6-.1 0-.2-.2-.1-.3.1-.3.5-.5.8-.5l.1.2zm.6-3.1c0 .2-.1.7-.4.6-.2-.1-.2-.5-.1-.8h.1l.4.2zm12.4 11.7c-.1.3-.4.4-.6.5-.3.3.3.8-.2.9-.7.1-2.1-.1-2.8-.3.1-.1.1-.2.1-.3.2-.3.5-.4.7-.7.6-.9 1.6-.3 2.5-.5l.3.4zm95.1 33c-.2-.1-.4-.3-.6-.4-1.2-.6-2.7-.3-4-.4.4.3 1 .4 1.4.9.2.2 1.6.6 1.9.6.4 0 1.4-.1 1.4-.4l-.1-.3zm4.5-8.8c-.1-.1-.4.2-.4.1-1.1 2.1-.4 4.1-.3 6.3 0 .5-.5 1.1-.2 1.5s.6.8.4 1.3c-.1.2-.3.3-.4.5-.2.4-.3 1.1 0 1.2.4.2 1.6.2 1.4-.7.1 0 .2-.1.3-.2.6-.3 1.3-.4 1.9-.6.3-.1.7-.2.9 0 .5.3 0 1.2.4 1.3.4.1.2-.7.3-1 .2-.4.7-.3 1-.8 0-.1.2-.2.3-.1.4.4.2.9.4 1.4h.2c.2-.1.1-.4.2-.5.3-.3 1.2.1.9-.5-.3-.5-.4-1.3-.6-1.8-.1-.3-.4-.8-.7-.6-.4.2.1 1.6-.5 1.1-.3-.3-.5-.9-.2-1.5v-.3c-1-.1-.7-1.1-1.2-1.6-.3-.3-.6.2-.8.6-.2.5-1.1.4-1.5 0-.3-.2-.1-.8-.3-.9-.5-.3-.8.5-.8 1 0 .2-.2.2-.3.2-.2-.1-.4-.4-.4-.6 0-.9-.2-1.2.3-1.9-.1-.2.2-2.5-.3-2.9zm-30.7-1.5c-.2.7-.3 2.1-1 1.5-.7-.5-.1-1.4.6-1.6l.4.1zm-.7 8.4c-.4-.7-.8-1.1-1.5-.5-.2.2-.2.3-.2.6.7 0 1.2-.2 1.7.4 0-.2.1-.3 0-.5zm14.2 24.7c-.2.3-.1.8.1.9.6 0 1.2-.5 1.8-.9.5-.3.9-.4 1.4-.6.1 0 .4-.2.3-.2-.3-.2.1-.6.2-.9-.2.1-1 .8-1.2.9-.8.4-1.4.2-2.2.6l-.4.2zM121 177.6c-.7 0-1-.7-1.2-1.2 0-.1-.3 0-.3.1-.2.4.2.8 0 1.1-.4.7-.3 1.5-.5 2.3s-.5 1.7.2 2.4c-.1-1 .1-2.1.9-2.8.4-.4.5-.8.8-1.2.1-.1.3-.1.5-.2l-.4-.5zm-.8 8.1c.5.3 1.1.3 1.4.8.5.7.8 1.3 1.2 2 .3.5.6 1.1.8 1.7.5 1.1 0 2.3.8 3.2-.3.2-1.4-.5-1.5-.8-.3-.9-.5-.7-1.1-1.5-.2-.2 0-.6-.1-.9s-.6-.2-.6-.4c0-.4.2-.8.1-1.3-.1-.2-.3-.1-.3-.3-.1-.3-.1-.7-.3-1-.2-.4-.7-.8-.5-1.3l.1-.2zm-43.9 31c-.2.8.2 1.5-.2 2.1-.5.6-1.3-.6-1-1.2.3-.5.5-.9.6-1.5 0-.1.3 0 .4 0 .1 0 .3.5.2.6zm-.2-2.3c.1.4.8 1-.3 1-.4 0-.5-.5-.4-.8 0-.2 0-.8.2-.7l.5.5zm-.7-5.7c-.1.5-.3 1.1-.4 1.1-.4 0-.5-.5-.4-.8 0-.2.1-.5.4-.4l.4.1zm.1-7.1c.6.6.1 1.1-.4 1.1-.4 0-.5-.5-.4-.8 0-.2.1-.5.4-.4l.4.1zm0 10.1c.1.4.5 1.3 0 1.3-.4 0-.6-.8-.5-1.2 0-.2 0-.8.2-.7l.3.6zM210.9 199c-.2.1-.5.3-.7.4-.4.3-.6.2-1.2.1-.4-.1-1-.5-1.5-.7 0 .3.1.9.2 1.1.2.2.8 0 1 .1.5.3 1.1.1 1.4-.2.6-.5.4-.3.8-.8z"/><g><path class="st24" d="M251.4 155.2c.2.4.1 1.9.3 2.3.2.4.3.9.4 1.3.3 1 .9 1.8 1.3 2.8.1.3.5.5.6.8.2.4.2.9.5 1.3.8 1.4 1.8 2.8 1.9 4.4.1 1.2 1.7 2.3 1.1 3.6-.1.1-.2.1-.1.2.1.3.5.5.5.8-.1.8.2 1.5.6 2.2.6 1 .3 2.3.7 3.2.5 1 1 2 1.1 3.2 0 .7.8 1 1.2 1.5.9 1 1.1 2.5 1.4 3.9.1.3.2.6.4.9.9 1.1.1 2.4.3 3.6.1.5.4 1.1.7 1.6.2.4-.6 1.3-.5 1.4 2.9 3.5 1.2 7.3 3.1 10.6 1.1 1.9.8 3.3 1.4 5.4s-1.6 4.8 1.8 8.5"/></g><path d="M172.3 88.9c-17 .8-31.4-12.2-32.2-29.2-.8-17 12.2-31.4 29.2-32.2 17-.8 31.4 12.2 32.2 29.2.8 16.9-12.2 31.3-29.2 32.2z" opacity=".19"/></g><path class="st16" d="M168.1 79.2c-17 .8-31.4-12.2-32.2-29.2-.9-16.9 12.2-31.3 29.1-32.2C182 17 196.4 30 197.3 47c.8 17-12.2 31.4-29.2 32.2z"/><path class="st24" d="M0 0h450v450H0V0z"/></g></svg>