<svg id="art" xmlns="http://www.w3.org/2000/svg" xmlns:xlink="http://www.w3.org/1999/xlink" width="400" height="400" viewBox="0 0 400 400"><style>.st0{opacity:.57;fill:none;stroke:#1976d2;stroke-width:16.3801;stroke-linecap:round;stroke-miterlimit:10}.st1{fill:#81d4fa}.st2{fill:#1e88e5}.st3{fill:#f9ce1d}.st4{fill:#25b701}.st5{fill:#fad53f}.st6{fill:#ab47bc}.st7{fill:#9ccc65}.st8{fill:#81d4fa}.st8,.st9{clip-path:url(#SVGID_2_)}.st10{fill:#e53935}.st11{opacity:.11}.st12{fill:none;stroke:#FFF;stroke-width:8.6053;stroke-miterlimit:10}.st13{fill:#e53935}.st13,.st14{clip-path:url(#SVGID_2_)}.st14{opacity:.11}.st15{stroke-width:44.227}.st15,.st16{fill:none;stroke:#e53935;stroke-linecap:round;stroke-miterlimit:10}.st16{opacity:.24;stroke-width:39.9}.st17{fill:#FFF}.st18{fill:#ffe18c}.st19{fill:#333}.st20{fill:#666}.st21{stroke:#333;stroke-width:3.8678}.st21,.st22{fill:none;stroke-miterlimit:10}.st22{stroke:#666;stroke-width:15.0573}.st23{opacity:.15}.st23,.st24{clip-path:url(#SVGID_2_)}.st24{fill:#FFF}.st25{fill:none}.st26{fill:#81d4fa}.st26,.st27{clip-path:url(#SVGID_4_)}.st28,.st29{fill:#039be5}.st29{clip-path:url(#SVGID_4_)}.st30{opacity:.11}.st30,.st31{clip-path:url(#SVGID_4_)}.st31{fill:#FFF}.st32{stroke-width:44.227}.st32,.st33{fill:none;stroke:#039be5;stroke-linecap:round;stroke-miterlimit:10}.st33{opacity:.24;stroke-width:39.9}.st34{fill:#8c5835}.st35{opacity:.57;fill:none;stroke:#1976d2;stroke-width:44.2263;stroke-linecap:round;stroke-miterlimit:10}.st36{opacity:.15;clip-path:url(#SVGID_4_)}.st37{fill:#1e88e5}.st37,.st38{clip-path:url(#SVGID_6_)}.st39{fill:#00c05d}.st40{opacity:.15;clip-path:url(#SVGID_6_)}.st41{opacity:.57;stroke-width:44.2263}.st41,.st42{fill:none;stroke:#00c05d;stroke-linecap:round;stroke-miterlimit:10}.st42{stroke-width:44.227}.st43{fill:#ebebeb}.st44,.st45{fill:#bd9941}.st45{stroke:#bd9941;stroke-width:5.7;stroke-miterlimit:10}.st46{fill:#40cdde}.st47{fill:#36b04a}.st48{fill:#e5e5e5}.st49{fill:#a98a39}.st50{opacity:.12;fill:none;stroke:#000;stroke-width:44.227;stroke-linecap:round;stroke-miterlimit:10}.st51{fill:#f9ce1d}.st51,.st52{clip-path:url(#SVGID_8_)}.st53{fill:#f57c00}.st54{opacity:.31}.st55{opacity:.35}.st56{opacity:.46;fill:#ffbe8c}.st57{fill:none;stroke:#f57c00;stroke-width:41.987;stroke-linecap:round;stroke-miterlimit:10}.st58{fill:#FFF;stroke:#FFF;stroke-width:12.9978}.st58,.st59{stroke-linecap:round;stroke-miterlimit:10}.st59{fill:none;stroke:#000;stroke-width:41.987}.st59,.st60{opacity:.11}.st60,.st61{clip-path:url(#SVGID_8_)}.st61{opacity:.15}.st62{clip-path:url(#SVGID_10_);fill:#f9ce1d}.st63{opacity:.15}.st63,.st64{clip-path:url(#SVGID_10_)}.st65{fill:#764c2e}.st66{fill:#29b6f6}.st67{opacity:.19}.st68{fill:none;stroke:#FFF;stroke-width:8.553;stroke-miterlimit:10}.st69{stroke:#333;stroke-width:3.8443}.st69,.st70{fill:none;stroke-miterlimit:10}.st70{stroke:#666;stroke-width:14.9658}.st71{clip-path:url(#SVGID_10_);fill:#29b6f6}.st72{opacity:.19}.st72,.st73{clip-path:url(#SVGID_10_)}.st73{fill:#FFF}.st74{fill:none;stroke:#29b6f6;stroke-width:45.0042;stroke-linecap:round;stroke-miterlimit:10}.st75{fill:gray}.st76{fill:#4d4d4d}.st77{opacity:.5;fill:#999}.st78{opacity:.3;fill:#919396}.st79{opacity:.5;fill:#919396}.st80{fill:#8a8a8a}.st81{opacity:.5;fill:gray}.st82{fill:#999}.st83{stroke:#29b6f6}.st83,.st84{fill:none;stroke-width:42.8668;stroke-linecap:round;stroke-miterlimit:10}.st84{opacity:.19;stroke:#000}.st85{fill:#f9ce1d}.st85,.st86{clip-path:url(#SVGID_12_)}.st87{fill:#8e24aa}.st88{fill:#833f4a}.st89{opacity:.15;clip-path:url(#SVGID_12_)}.st90{fill:none;stroke:#8e24aa;stroke-width:44.227;stroke-linecap:round;stroke-miterlimit:10}.st91{fill:#d4e157}.st92{opacity:.1}.st93{fill:#ef5350}.st94{opacity:.2;fill:#231f20}.st95{opacity:.11;fill:none;stroke:#000;stroke-width:44.227;stroke-linecap:round;stroke-miterlimit:10}.st96{fill:#25b701}.st96,.st97,.st98{clip-path:url(#SVGID_14_)}.st98{stroke:#f9ce1d}.st98,.st99{fill:none;stroke-width:45.2808;stroke-linecap:round;stroke-miterlimit:10}.st99{opacity:.11;stroke:#000}.st99,.st100{clip-path:url(#SVGID_14_)}.st100{opacity:.15}.st101{fill:#2b2b2b}.st102{fill:#848484}.st103{fill:#e0e0e0}.st104{opacity:.12}.st105{fill:#704a9a}.st106{fill:#553d83}.st107{fill:#5f81c0}.st108{fill:#39527c}.st109{fill:#ab47bc}.st109,.st110{clip-path:url(#SVGID_16_)}.st111{fill:none;stroke:#e53935;stroke-width:62.7;stroke-miterlimit:10}.st112{opacity:.15;fill:#231f20}.st113{fill:#ef9a9a}.st114{fill:#f7caad}.st115{fill:#212121}.st116{opacity:.11}.st116,.st117{clip-path:url(#SVGID_16_)}.st117{opacity:.15}.st118{fill:#9ccc65}.st118,.st119{clip-path:url(#SVGID_18_)}.st120{fill:#1976d2}.st121{opacity:.15;clip-path:url(#SVGID_18_)}.st122{fill:none;stroke:#1976d2;stroke-width:44.227;stroke-linecap:round;stroke-miterlimit:10}.st123{fill:#00518b}.st124{fill:#00b9f1}.st125{fill:#eef8fd}.st126,.st127{fill:#524fa0}.st127{stroke:#524fa0;stroke-width:4.275}.st128{fill:none;stroke:#FFF;stroke-width:11.4}.st129{fill:#00adee}.st130{fill:#69cdf5}.st131{opacity:.9}.st132{fill:none;stroke:#f0efe3;stroke-width:1.71}.st133{fill:none;stroke:#FFF;stroke-width:1.425}.st134{fill:#fad53f}.st134,.st135{clip-path:url(#SVGID_20_)}.st136,.st137{fill:#7cb342}.st137{opacity:.57}.st138{opacity:.15;clip-path:url(#SVGID_20_)}.st139{fill:none;stroke:#7cb342;stroke-width:44.227;stroke-linecap:round;stroke-miterlimit:10}.st140{fill:#b3b3b3}.st141{opacity:.6}.st142{fill:#ff1900}.st143{fill:#704a9c}.st144{fill:#553d85}.st145{fill:#5f83c2}</style><g id="photos_2"><defs><path id="SVGID_15_" d="M400 382L18 0h382z"/></defs><clipPath id="SVGID_2_"><use xlink:href="#SVGID_15_" overflow="visible"/></clipPath><path clip-path="url(#SVGID_2_)" fill="#ab47bc" d="M-27.4-17.1h455.9v414.8H-27.4z"/><circle class="st9 st10" cx="214.8" cy="292.3" r="149.1"/><g class="st9"><path class="st111" d="M247 245.9l-54.5-33.3c-21.6-13.2-148.1-69.1-43.7-149.1"/><path class="st112" d="M238.8 259.3l-8.2 13.4-54.5-33.4c-1.7-1-4-2.3-6.9-3.8-5.5-3-12.5-6.9-20.3-11.7-29.3-17.9-68.7-48.3-72-92.3-1.5-19.8 4.4-39 17.5-57.5-7.3 14.3-10.4 29-9.3 44.1 3.4 44 42.7 74.4 72 92.3 7.8 4.8 14.8 8.6 20.3 11.6 2.9 1.6 5.2 2.9 6.9 3.9l54.5 33.4z"/><path class="st10" d="M126.6 233.3c44.5-45.5 109-61.4 169.3-31.9 41 20.1 27.3 89.2-33.1 92.7-50.4 3-141.2-55.6-136.2-60.8z"/><path class="st11" d="M344.2 364.8l-37.4-22.9c10.8-19.2 17.8-40.1 20.9-61.6-21.4 7.7-46 6-67-6.9l-.8-.5c-46.7-28.6-73.7-76.8-76.7-126.9 36-7.7 74.9-2.1 108.8 18.6 8.2 5 15.6 10.6 22.4 16.8 1.4 1.3 2.8 2.6 4.2 4 1.4 1.4 2.8 2.7 4.1 4.1 5.3 5.6 10.1 11.6 14.4 17.9 2.2 3.1 4.2 6.4 6.1 9.6.7 1.3 1.5 2.6 2.2 4 2.8 5.3 5.4 10.8 7.5 16.3.6 1.4 1.1 2.7 1.5 4.1.5 1.4 1 2.8 1.4 4.1.6 1.7 1.1 3.4 1.6 5.2.8 2.6 1.5 5.4 2.1 8 8 35 3.5 72.8-15.3 106.1z"/><path class="st113" d="M277.5 115c-6 9.8-19 12.8-29.1 6.6-10-6.1-13.3-19.1-7.3-28.9 6-9.8 19-12.8 29.1-6.6 10.1 6.2 13.3 19.1 7.3 28.9zM396.4 187.8c-6 9.8-19 12.8-29.1 6.6-10.1-6.2-13.3-19.1-7.3-28.9 6-9.8 19-12.8 29.1-6.6 10 6.2 13.3 19.1 7.3 28.9z"/><path class="st17" d="M310.8 4.3c-6.6 10.7-20.6 14.1-31.3 7.5S265.4-8.8 272-19.5s20.6-14.1 31.3-7.5 14.1 20.6 7.5 31.3z"/><path class="st3" d="M179.6 40.3c-4.7 4.1-5.3 11.2-1.3 15.9 12.4 14.6 34.4 16.4 48.9 4.1h.1c4.7-4.1 5.3-11.2 1.3-15.9-4.1-4.8-11.2-5.4-16-1.3-5 4.3-12.7 3.6-17-1.5-4-4.8-11.2-5.4-16-1.3 0-.1 0 0 0 0z"/><path class="st3" d="M158.4 11.7c-12.7 10.9-14.2 30.1-3.4 42.8 10.9 12.8 30.1 14.4 42.9 3.5L224 35.8s.1 0 .1-.1c12.7-10.9 14.2-30.1 3.4-42.8-10.9-12.8-30.1-14.4-42.9-3.5l-26.1 22.2c0 .1-.1.1-.1.1z"/><path class="st17" d="M194.8 65.3c4 4.8 3.4 12-1.3 16l-8.7 7.4c-4.8 4-12 3.4-16-1.3l-39.2-46.3c-4-4.8-3.4-12 1.3-16l8.7-7.4c4.8-4 12-3.4 16 1.3l39.2 46.3z"/><path class="st114" d="M353.4 83.7c-35.7-21.9-82.4-10.6-104.3 25.1l-39.6 64.7 129.4 79.2 39.6-64.7c21.9-35.7 10.6-82.4-25.1-104.3z"/><path class="st17" d="M356.8 252.5c20.2-33.1 9.8-76.2-23.2-96.5L210.7 80.8c-40.5 66.1-18.5 153.2 49 194.5.1.1.2.1.4.2.1.1.2.2.3.2 33 20.3 76.2 9.9 96.4-23.2zm29.3 52.2c-14.6-21.7-45.6-22.6-61.5-1.9-9.6 12.6-10.2 30.4-1.3 43.5 14.6 21.7 45.6 22.6 61.5 1.9 9.6-12.6 10.1-30.4 1.3-43.5z"/><path class="st115" d="M316.8 172.5c-4.4 7.1-13.7 9.4-20.9 5-7.1-4.4-9.4-13.7-5-20.9l25.9 15.9z"/><path class="st10" d="M319.6 9.7c-.2-.1-.5-.3-.7-.4l-47.5 77.6 122.9 75.2c26.3-42.8-7.2-111.1-74.7-152.4z"/><path class="st11" d="M365 46.5c8.5 23.2 6.9 49.9-6.7 72.2-3 5-6.6 9.5-10.5 13.6l.4 1.5 46.2 28.3c19.4-31.7 6.1-77.3-29.4-115.6z"/><path class="st115" d="M297.8 116.4c-1.6 2.7-5.2 3.5-7.8 1.9-2.7-1.6-3.5-5.1-1.9-7.8s5.1-3.5 7.8-1.9 3.6 5.1 1.9 7.8zM349.6 148.1c-1.6 2.7-.8 6.2 1.9 7.8 2.7 1.6 6.2.8 7.8-1.9 1.6-2.7.8-6.2-1.9-7.8-2.7-1.6-6.2-.8-7.8 1.9z"/><path class="st17" d="M418.1 123.3c5.3 3.3 7 10.3 3.8 15.6L410 158.4c-3.3 5.3-10.3 7-15.6 3.8L264.9 82.9c-5.3-3.3-7-10.3-3.8-15.6L273 47.9c3.3-5.3 10.3-7 15.6-3.8l129.5 79.2z"/><path class="st113" d="M333.6 156.1c-4.9 8-16.9 9.7-26.7 3.7-9.8-6-13.8-17.4-8.9-25.4s16.9-9.7 26.7-3.7c9.8 5.9 13.8 17.3 8.9 25.4z"/></g><path class="st14" d="M345.6 230.8c-2-2.7-4.2-5.4-6.4-7.9 2.3 2.4 4.4 5.1 6.4 7.9z"/><path d="M30.1 0C148.6 127.8 269.2 250 400 369.7V383L17 0h13.1z" class="st23"/><path class="st3" d="M366.7 346.2c-15.9 20.7-46.9 19.8-61.5-1.9-8.8-13.1-8.3-30.9 1.3-43.5 15.9-20.7 46.9-19.8 61.5 1.9 8.8 13.1 8.3 30.9-1.3 43.5z"/><path class="st25" d="M-50 0h450v450H-50z"/></g></svg>