<svg id="art" xmlns="http://www.w3.org/2000/svg" xmlns:xlink="http://www.w3.org/1999/xlink" width="400" height="400"><style>.st3{fill:#f9ce1d}.st9{clip-path:url(#SVGID_2_)}.st10{fill:#e53935}.st11{opacity:.11}.st17{fill:#fff}.st113{fill:#ef9a9a}.st115{fill:#212121}</style><g id="photos_2"><defs><path id="SVGID_15_" d="M400 382L18 0h382z"/></defs><clipPath id="SVGID_2_"><use xlink:href="#SVGID_15_" overflow="visible"/></clipPath><path clip-path="url(#SVGID_2_)" fill="#ab47bc" d="M-27.4-17.1h455.9v414.8H-27.4z"/><circle class="st9 st10" cx="214.8" cy="292.3" r="149.1"/><g class="st9"><path d="M247 245.9l-54.5-33.3c-21.6-13.2-148.1-69.1-43.7-149.1" fill="none" stroke="#e53935" stroke-width="62.7" stroke-miterlimit="10"/><path d="M238.8 259.3l-8.2 13.4-54.5-33.4c-1.7-1-4-2.3-6.9-3.8-5.5-3-12.5-6.9-20.3-11.7-29.3-17.9-68.7-48.3-72-92.3-1.5-19.8 4.4-39 17.5-57.5-7.3 14.3-10.4 29-9.3 44.1 3.4 44 42.7 74.4 72 92.3 7.8 4.8 14.8 8.6 20.3 11.6 2.9 1.6 5.2 2.9 6.9 3.9l54.5 33.4z" opacity=".15" fill="#231f20"/><path class="st10" d="M126.6 233.3c44.5-45.5 109-61.4 169.3-31.9 41 20.1 27.3 89.2-33.1 92.7-50.4 3-141.2-55.6-136.2-60.8z"/><path class="st11" d="M344.2 364.8l-37.4-22.9c10.8-19.2 17.8-40.1 20.9-61.6-21.4 7.7-46 6-67-6.9l-.8-.5c-46.7-28.6-73.7-76.8-76.7-126.9 36-7.7 74.9-2.1 108.8 18.6 8.2 5 15.6 10.6 22.4 16.8 1.4 1.3 2.8 2.6 4.2 4 1.4 1.4 2.8 2.7 4.1 4.1 5.3 5.6 10.1 11.6 14.4 17.9 2.2 3.1 4.2 6.4 6.1 9.6.7 1.3 1.5 2.6 2.2 4 2.8 5.3 5.4 10.8 7.5 16.3.6 1.4 1.1 2.7 1.5 4.1.5 1.4 1 2.8 1.4 4.1.6 1.7 1.1 3.4 1.6 5.2.8 2.6 1.5 5.4 2.1 8 8 35 3.5 72.8-15.3 106.1z"/><path class="st113" d="M277.5 115c-6 9.8-19 12.8-29.1 6.6-10-6.1-13.3-19.1-7.3-28.9 6-9.8 19-12.8 29.1-6.6 10.1 6.2 13.3 19.1 7.3 28.9zm118.9 72.8c-6 9.8-19 12.8-29.1 6.6-10.1-6.2-13.3-19.1-7.3-28.9 6-9.8 19-12.8 29.1-6.6 10 6.2 13.3 19.1 7.3 28.9z"/><path class="st17" d="M310.8 4.3c-6.6 10.7-20.6 14.1-31.3 7.5S265.4-8.8 272-19.5s20.6-14.1 31.3-7.5 14.1 20.6 7.5 31.3z"/><path class="st3" d="M179.6 40.3c-4.7 4.1-5.3 11.2-1.3 15.9 12.4 14.6 34.4 16.4 48.9 4.1h.1c4.7-4.1 5.3-11.2 1.3-15.9-4.1-4.8-11.2-5.4-16-1.3-5 4.3-12.7 3.6-17-1.5-4-4.8-11.2-5.4-16-1.3 0-.1 0 0 0 0z"/><path class="st3" d="M158.4 11.7c-12.7 10.9-14.2 30.1-3.4 42.8 10.9 12.8 30.1 14.4 42.9 3.5L224 35.8s.1 0 .1-.1c12.7-10.9 14.2-30.1 3.4-42.8-10.9-12.8-30.1-14.4-42.9-3.5l-26.1 22.2c0 .1-.1.1-.1.1z"/><path class="st17" d="M194.8 65.3c4 4.8 3.4 12-1.3 16l-8.7 7.4c-4.8 4-12 3.4-16-1.3l-39.2-46.3c-4-4.8-3.4-12 1.3-16l8.7-7.4c4.8-4 12-3.4 16 1.3l39.2 46.3z"/><path d="M353.4 83.7c-35.7-21.9-82.4-10.6-104.3 25.1l-39.6 64.7 129.4 79.2 39.6-64.7c21.9-35.7 10.6-82.4-25.1-104.3z" fill="#f7caad"/><path class="st17" d="M356.8 252.5c20.2-33.1 9.8-76.2-23.2-96.5L210.7 80.8c-40.5 66.1-18.5 153.2 49 194.5.1.1.2.1.4.2.1.1.2.2.3.2 33 20.3 76.2 9.9 96.4-23.2zm29.3 52.2c-14.6-21.7-45.6-22.6-61.5-1.9-9.6 12.6-10.2 30.4-1.3 43.5 14.6 21.7 45.6 22.6 61.5 1.9 9.6-12.6 10.1-30.4 1.3-43.5z"/><path class="st115" d="M316.8 172.5c-4.4 7.1-13.7 9.4-20.9 5-7.1-4.4-9.4-13.7-5-20.9l25.9 15.9z"/><path class="st10" d="M319.6 9.7c-.2-.1-.5-.3-.7-.4l-47.5 77.6 122.9 75.2c26.3-42.8-7.2-111.1-74.7-152.4z"/><path class="st11" d="M365 46.5c8.5 23.2 6.9 49.9-6.7 72.2-3 5-6.6 9.5-10.5 13.6l.4 1.5 46.2 28.3c19.4-31.7 6.1-77.3-29.4-115.6z"/><path class="st115" d="M297.8 116.4c-1.6 2.7-5.2 3.5-7.8 1.9-2.7-1.6-3.5-5.1-1.9-7.8s5.1-3.5 7.8-1.9 3.6 5.1 1.9 7.8zm51.8 31.7c-1.6 2.7-.8 6.2 1.9 7.8 2.7 1.6 6.2.8 7.8-1.9 1.6-2.7.8-6.2-1.9-7.8-2.7-1.6-6.2-.8-7.8 1.9z"/><path class="st17" d="M418.1 123.3c5.3 3.3 7 10.3 3.8 15.6L410 158.4c-3.3 5.3-10.3 7-15.6 3.8L264.9 82.9c-5.3-3.3-7-10.3-3.8-15.6L273 47.9c3.3-5.3 10.3-7 15.6-3.8l129.5 79.2z"/><path class="st113" d="M333.6 156.1c-4.9 8-16.9 9.7-26.7 3.7-9.8-6-13.8-17.4-8.9-25.4s16.9-9.7 26.7-3.7c9.8 5.9 13.8 17.3 8.9 25.4z"/></g><path d="M345.6 230.8c-2-2.7-4.2-5.4-6.4-7.9 2.3 2.4 4.4 5.1 6.4 7.9z" opacity=".11" clip-path="url(#SVGID_2_)"/><path d="M30.1 0C148.6 127.8 269.2 250 400 369.7V383L17 0h13.1z" clip-path="url(#SVGID_2_)" opacity=".15"/><path class="st3" d="M366.7 346.2c-15.9 20.7-46.9 19.8-61.5-1.9-8.8-13.1-8.3-30.9 1.3-43.5 15.9-20.7 46.9-19.8 61.5 1.9 8.8 13.1 8.3 30.9-1.3 43.5z"/><path d="M-50 0h450v450H-50z" fill="none"/></g></svg>