<svg width="50" height="100" viewBox="0 0 50 100" fill="none" xmlns="http://www.w3.org/2000/svg">
<path d="M0 0H25L0 25V0Z" fill="#F9D231"/>
<path d="M0 24.5L25 0H125L150 25V175L125 200H25L0 175V24.5Z" fill="#010101"/>
<path d="M0 24.5L25 0H125L150 25V175L125 200H25L0 175V24.5Z" fill="#010101"/>
<path d="M0 24.5L25 0H125L150 25V175L125 200H25L0 175V24.5Z" fill="url(#paint0_linear)"/>
<mask id="mask0" mask-type="alpha" maskUnits="userSpaceOnUse" x="0" y="0" width="25" height="200">
<rect width="25" height="200" fill="#C4C4C4"/>
</mask>
<g mask="url(#mask0)">
<path d="M0 24.5L25 0H125L150 25V175L125 200H25L0 175V24.5Z" fill="#7C4505"/>
<path d="M0 24.5L25 0H125L150 25V175L125 200H25L0 175V24.5Z" fill="url(#paint1_linear)"/>
</g>
<g clip-path="url(#clip0)">
<path d="M8.38571 11.9998C5.28503 11.9998 2.77143 10.8102 2.77143 9.34269C2.77143 7.87519 5.28503 6.68555 8.38571 6.68555C11.4864 6.68555 14 7.87519 14 9.34269C14 10.8102 11.4864 11.9998 8.38571 11.9998Z" fill="#74797E"/>
<path d="M8.38571 11.5716C5.28503 11.5716 2.77143 10.382 2.77143 8.91447C2.77143 7.44697 5.28503 6.25732 8.38571 6.25732C11.4864 6.25732 14 7.44697 14 8.91447C14 10.382 11.4864 11.5716 8.38571 11.5716Z" fill="#B9BDC3"/>
<g opacity="0.74">
<path opacity="0.74" d="M3.19927 8.35714H12.9707V4.88571C12.9707 2.18571 10.785 0 8.08499 0C5.38499 0 3.19927 2.18571 3.19927 4.88571V8.35714V8.35714Z" fill="#D92626"/>
<path opacity="0.74" d="M3.20061 8.35703C3.20061 9.6856 5.5149 10.7142 8.34347 10.7142C9.50061 10.7142 10.572 10.5427 11.4292 10.2427C11.6863 10.157 11.9435 10.0713 12.1578 9.94275C12.2863 9.89989 12.4149 9.81417 12.5006 9.77132C12.6292 9.6856 12.7578 9.59989 12.8435 9.51417C13.272 9.17132 13.4863 8.7856 13.4863 8.35703C13.4863 7.92846 13.2292 7.54275 12.8435 7.19989C12.7578 7.11417 12.6292 7.02846 12.5006 6.94275C12.4149 6.85703 12.2863 6.81417 12.1578 6.72846C11.9435 6.59989 11.7292 6.51417 11.4292 6.42846C10.572 6.12846 9.50061 5.95703 8.34347 5.95703C5.5149 5.99989 3.20061 7.02846 3.20061 8.35703Z" fill="#FF3333"/>
<path opacity="0.74" d="M3.50084 8.35714H13.5723V5.01429C13.5723 2.27143 11.3008 0 8.51512 0C5.72941 0 3.50084 2.27143 3.50084 5.01429V8.35714Z" fill="#FF3333"/>
</g>
<path d="M5.21378 9.08577C5.21378 9.64291 6.62807 10.0715 8.38521 10.0715C10.1424 10.0715 11.5566 9.64291 11.5566 9.08577C11.5566 8.52863 10.1424 5.27148 8.38521 5.27148C6.62807 5.27148 5.21378 8.57148 5.21378 9.08577Z" fill="#B71C1C"/>
<path d="M6.07143 7.67146C5.00631 7.67146 4.14286 6.71207 4.14286 5.5286C4.14286 4.34513 5.00631 3.38574 6.07143 3.38574C7.13655 3.38574 8 4.34513 8 5.5286C8 6.71207 7.13655 7.67146 6.07143 7.67146Z" fill="white"/>
<path d="M6.49916 7.67146C5.43404 7.67146 4.57059 6.71207 4.57059 5.5286C4.57059 4.34513 5.43404 3.38574 6.49916 3.38574C7.56428 3.38574 8.42773 4.34513 8.42773 5.5286C8.42773 6.71207 7.56428 7.67146 6.49916 7.67146Z" fill="#B71C1C"/>
<path d="M9.20033 7.67146C8.13521 7.67146 7.27176 6.71207 7.27176 5.5286C7.27176 4.34513 8.13521 3.38574 9.20033 3.38574C10.2655 3.38574 11.1289 4.34513 11.1289 5.5286C11.1289 6.71207 10.2655 7.67146 9.20033 7.67146Z" fill="#B71C1C"/>
<path d="M10.7003 7.67146C9.63521 7.67146 8.77176 6.71207 8.77176 5.5286C8.77176 4.34513 9.63521 3.38574 10.7003 3.38574C11.7655 3.38574 12.6289 4.34513 12.6289 5.5286C12.6289 6.71207 11.7655 7.67146 10.7003 7.67146Z" fill="white"/>
</g>
<mask id="mask1" mask-type="alpha" maskUnits="userSpaceOnUse" x="0" y="0" width="150" height="200">
<path d="M0 24.5L25 0H125L150 25V175L125 200H25L0 175V24.5Z" fill="#010101"/>
</mask>
<g mask="url(#mask1)">
<path d="M-28.0003 51.8649L-26.5996 53.2925L55.8145 -27.5723L54.4138 -28.9999L-28.0003 51.8649Z" fill="#844803"/>
<path d="M3.00195 179L0.00195312 179L0.00195313 21L3.00195 21L3.00195 179Z" fill="#844803"/>
</g>
<defs>
<linearGradient id="paint0_linear" x1="75" y1="0" x2="75" y2="117" gradientUnits="userSpaceOnUse">
<stop stop-color="#B76201"/>
<stop offset="0.885417" stop-color="#010101"/>
</linearGradient>
<linearGradient id="paint1_linear" x1="75" y1="0" x2="75" y2="200" gradientUnits="userSpaceOnUse">
<stop stop-color="#804705"/>
<stop offset="0.619792" stop-color="#010101"/>
</linearGradient>
<clipPath id="clip0">
<rect width="11.2286" height="12" transform="matrix(-1 0 0 1 14 0)" fill="white"/>
</clipPath>
</defs>
</svg>
