<svg width="50" height="100" viewBox="0 0 50 100" fill="none" xmlns="http://www.w3.org/2000/svg">
<path d="M-50 24.5L-25 0H75L100 25V175L75 200H-25L-50 175V24.5Z" fill="#010101"/>
<path d="M-50 24.5L-25 0H75L100 25V175L75 200H-25L-50 175V24.5Z" fill="#010101"/>
<path d="M-50 24.5L-25 0H75L100 25V175L75 200H-25L-50 175V24.5Z" fill="url(#paint0_linear)"/>
<mask id="mask0" mask-type="alpha" maskUnits="userSpaceOnUse" x="-50" y="0" width="150" height="200">
<path d="M-50 24.5L-25 0H75L100 25V175L75 200H-25L-50 175V24.5Z" fill="#010101"/>
</mask>
<g mask="url(#mask0)">
<path d="M-78.0003 51.8649L-76.5996 53.2925L5.81449 -27.5723L4.41376 -28.9999L-78.0003 51.8649Z" fill="#844803"/>
</g>
<defs>
<linearGradient id="paint0_linear" x1="25" y1="0" x2="25" y2="117" gradientUnits="userSpaceOnUse">
<stop stop-color="#B76201"/>
<stop offset="0.885417" stop-color="#010101"/>
</linearGradient>
</defs>
</svg>
