# WaveFront *.obj file (generated by CINEMA 4D)

mtllib ./snow_box03.mtl

v -77.77778625488281 -77.77778625488281 77.77778625488281
v -87.5 0 87.5
v -77.77778625488281 77.77778625488281 77.77778625488281
v 0 -87.5 87.5
v 0 0 100
v 0 87.5 87.5
v 77.77778625488281 -77.77778625488281 77.77778625488281
v 87.5 0 87.5
v 77.77778625488281 77.77778625488281 77.77778625488281
v 87.5 -87.5 0
v 100 0 0
v 87.5 87.5 0
v 77.77778625488281 -77.77778625488281 -77.77778625488281
v 87.5 0 -87.5
v 77.77778625488281 77.77778625488281 -77.77778625488281
v 0 -87.5 -87.5
v 0 0 -100
v 0 87.5 -87.5
v -77.77778625488281 -77.77778625488281 -77.77778625488281
v -87.5 0 -87.5
v -77.77778625488281 77.77778625488281 -77.77778625488281
v -87.5 -87.5 0
v -100 0 0
v -87.5 87.5 0
v 0 100 0
v 0 -100 0
v -50 -50 100
v -87.5 -50 87.5
v -50 0 100
v 0 -50 100
v -50 -87.5 87.5
v 50 -50 100
v 50 0 100
v 87.5 -50 87.5
v 50 -87.5 87.5
v -50 50 100
v -87.5 50 87.5
v -50 87.5 87.5
v 0 50 100
v 50 50 100
v 50 87.5 87.5
v 87.5 50 87.5
v 100 -50 50
v 100 0 50
v 100 -50 0
v 87.5 -87.5 50
v 100 -50 -50
v 100 0 -50
v 87.5 -50 -87.5
v 87.5 -87.5 -50
v 100 50 50
v 87.5 87.5 50
v 100 50 0
v 100 50 -50
v 87.5 87.5 -50
v 87.5 50 -87.5
v 50 -50 -100
v 50 0 -100
v 0 -50 -100
v 50 -87.5 -87.5
v -50 -50 -100
v -50 0 -100
v -87.5 -50 -87.5
v -50 -87.5 -87.5
v 50 50 -100
v 50 87.5 -87.5
v 0 50 -100
v -50 50 -100
v -50 87.5 -87.5
v -87.5 50 -87.5
v -100 -50 -50
v -100 0 -50
v -100 -50 0
v -87.5 -87.5 -50
v -100 -50 50
v -100 0 50
v -87.5 -87.5 50
v -100 50 -50
v -87.5 87.5 -50
v -100 50 0
v -100 50 50
v -87.5 87.5 50
v -50 100 50
v -50 100 0
v 0 100 50
v 50 100 50
v 50 100 0
v -50 100 -50
v 0 100 -50
v 50 100 -50
v -50 -100 -50
v -50 -100 0
v 0 -100 -50
v 50 -100 -50
v 50 -100 0
v -50 -100 50
v 0 -100 50
v 50 -100 50
# 98 vertices

vn -0.31622779369354 0 0.94868332147598
vn -0.16018225252628 0 0.98708742856979
vn -0.1710941940546 -0.1710941940546 0.97028529644012
vn -0.33765333890915 -0.17693972587585 0.92449045181274
vn 0 0 1
vn 0 -0.16018225252628 0.98708742856979
vn 0 -0.31622779369354 0.94868332147598
vn -0.17693972587585 -0.33765333890915 0.92449045181274
vn -0.34815514087677 -0.34815514087677 0.87038844823837
vn 0.16018225252628 0 0.98708742856979
vn 0.1710941940546 -0.1710941940546 0.97028529644012
vn 0.31622779369354 0 0.94868332147598
vn 0.33765333890915 -0.17693972587585 0.92449045181274
vn 0.34815514087677 -0.34815514087677 0.87038844823837
vn 0.17693972587585 -0.33765333890915 0.92449045181274
vn -0.34815514087677 0.34815514087677 0.87038844823837
vn -0.17693972587585 0.33765333890915 0.92449045181274
vn -0.1710941940546 0.1710941940546 0.97028529644012
vn -0.33765333890915 0.17693972587585 0.92449045181274
vn 0 0.31622779369354 0.94868332147598
vn 0 0.16018225252628 0.98708742856979
vn 0.17693972587585 0.33765333890915 0.92449045181274
vn 0.1710941940546 0.1710941940546 0.97028529644012
vn 0.34815514087677 0.34815514087677 0.87038844823837
vn 0.33765333890915 0.17693972587585 0.92449045181274
vn 0.94868332147598 0 0.31622779369354
vn 0.98708742856979 0 0.16018225252628
vn 0.97028529644012 -0.1710941940546 0.1710941940546
vn 0.92449045181274 -0.17693974077702 0.33765333890915
vn 1 0 0
vn 0.98708742856979 -0.16018225252628 0
vn 0.94868332147598 -0.31622779369354 0
vn 0.92449045181274 -0.33765333890915 0.17693974077702
vn 0.87038844823837 -0.34815514087677 0.34815514087677
vn 0.98708742856979 0 -0.16018225252628
vn 0.97028529644012 -0.1710941940546 -0.1710941940546
vn 0.94868332147598 0 -0.31622779369354
vn 0.92449045181274 -0.17693974077702 -0.33765333890915
vn 0.87038844823837 -0.34815514087677 -0.34815514087677
vn 0.92449045181274 -0.33765333890915 -0.17693974077702
vn 0.87038844823837 0.34815514087677 0.34815514087677
vn 0.92449045181274 0.33765333890915 0.17693974077702
vn 0.97028529644012 0.1710941940546 0.1710941940546
vn 0.92449045181274 0.17693974077702 0.33765333890915
vn 0.94868332147598 0.31622779369354 0
vn 0.98708742856979 0.16018225252628 0
vn 0.92449045181274 0.33765333890915 -0.17693974077702
vn 0.97028529644012 0.1710941940546 -0.1710941940546
vn 0.87038844823837 0.34815514087677 -0.34815514087677
vn 0.92449045181274 0.17693974077702 -0.33765333890915
vn 0.31622779369354 0 -0.94868332147598
vn 0.16018225252628 0 -0.98708742856979
vn 0.1710941940546 -0.1710941940546 -0.97028529644012
vn 0.33765333890915 -0.17693972587585 -0.92449045181274
vn 0 0 -1
vn 0 -0.16018225252628 -0.98708742856979
vn 0 -0.31622779369354 -0.94868332147598
vn 0.17693972587585 -0.33765333890915 -0.92449045181274
vn 0.34815514087677 -0.34815514087677 -0.87038844823837
vn -0.16018225252628 0 -0.98708742856979
vn -0.1710941940546 -0.1710941940546 -0.97028529644012
vn -0.31622779369354 0 -0.94868332147598
vn -0.33765333890915 -0.17693972587585 -0.92449045181274
vn -0.34815514087677 -0.34815514087677 -0.87038844823837
vn -0.17693972587585 -0.33765333890915 -0.92449045181274
vn 0.34815514087677 0.34815514087677 -0.87038844823837
vn 0.17693972587585 0.33765333890915 -0.92449045181274
vn 0.1710941940546 0.1710941940546 -0.97028529644012
vn 0.33765333890915 0.17693972587585 -0.92449045181274
vn 0 0.31622779369354 -0.94868332147598
vn 0 0.16018225252628 -0.98708742856979
vn -0.17693972587585 0.33765333890915 -0.92449045181274
vn -0.1710941940546 0.1710941940546 -0.97028529644012
vn -0.34815514087677 0.34815514087677 -0.87038844823837
vn -0.33765333890915 0.17693972587585 -0.92449045181274
vn -0.94868332147598 0 -0.31622779369354
vn -0.98708742856979 0 -0.16018225252628
vn -0.97028529644012 -0.1710941940546 -0.1710941940546
vn -0.92449045181274 -0.17693974077702 -0.33765333890915
vn -1 0 0
vn -0.98708742856979 -0.16018225252628 0
vn -0.94868332147598 -0.31622779369354 0
vn -0.92449045181274 -0.33765333890915 -0.17693974077702
vn -0.87038844823837 -0.34815514087677 -0.34815514087677
vn -0.98708742856979 0 0.16018225252628
vn -0.97028529644012 -0.1710941940546 0.1710941940546
vn -0.94868332147598 0 0.31622779369354
vn -0.92449045181274 -0.17693974077702 0.33765333890915
vn -0.87038844823837 -0.34815514087677 0.34815514087677
vn -0.92449045181274 -0.33765333890915 0.17693974077702
vn -0.87038844823837 0.34815514087677 -0.34815514087677
vn -0.92449045181274 0.33765333890915 -0.17693974077702
vn -0.97028529644012 0.1710941940546 -0.1710941940546
vn -0.92449045181274 0.17693974077702 -0.33765333890915
vn -0.94868332147598 0.31622779369354 0
vn -0.98708742856979 0.16018225252628 0
vn -0.92449045181274 0.33765333890915 0.17693974077702
vn -0.97028529644012 0.1710941940546 0.1710941940546
vn -0.87038844823837 0.34815514087677 0.34815514087677
vn -0.92449045181274 0.17693974077702 0.33765333890915
vn -0.31622779369354 0.94868332147598 0
vn -0.16018225252628 0.98708742856979 0
vn -0.1710941940546 0.97028529644012 0.1710941940546
vn -0.33765333890915 0.92449045181274 0.17693974077702
vn 0 1 0
vn 0 0.98708742856979 0.16018225252628
vn 0 0.94868332147598 0.31622779369354
vn -0.17693974077702 0.92449045181274 0.33765333890915
vn -0.34815514087677 0.87038844823837 0.34815514087677
vn 0.16018225252628 0.98708742856979 0
vn 0.1710941940546 0.97028529644012 0.1710941940546
vn 0.31622779369354 0.94868332147598 0
vn 0.33765333890915 0.92449045181274 0.17693974077702
vn 0.34815514087677 0.87038844823837 0.34815514087677
vn 0.17693974077702 0.92449045181274 0.33765333890915
vn -0.34815514087677 0.87038844823837 -0.34815514087677
vn -0.17693974077702 0.92449045181274 -0.33765333890915
vn -0.1710941940546 0.97028529644012 -0.1710941940546
vn -0.33765333890915 0.92449045181274 -0.17693974077702
vn 0 0.94868332147598 -0.31622779369354
vn 0 0.98708742856979 -0.16018225252628
vn 0.17693974077702 0.92449045181274 -0.33765333890915
vn 0.1710941940546 0.97028529644012 -0.1710941940546
vn 0.34815514087677 0.87038844823837 -0.34815514087677
vn 0.33765333890915 0.92449045181274 -0.17693974077702
vn -0.31622779369354 -0.94868332147598 0
vn -0.16018225252628 -0.98708742856979 0
vn -0.1710941940546 -0.97028529644012 -0.1710941940546
vn -0.33765333890915 -0.92449045181274 -0.17693974077702
vn 0 -1 0
vn 0 -0.98708742856979 -0.16018225252628
vn 0 -0.94868332147598 -0.31622779369354
vn -0.17693974077702 -0.92449045181274 -0.33765333890915
vn -0.34815514087677 -0.87038844823837 -0.34815514087677
vn 0.16018225252628 -0.98708742856979 0
vn 0.1710941940546 -0.97028529644012 -0.1710941940546
vn 0.31622779369354 -0.94868332147598 0
vn 0.33765333890915 -0.92449045181274 -0.17693974077702
vn 0.34815514087677 -0.87038844823837 -0.34815514087677
vn 0.17693974077702 -0.92449045181274 -0.33765333890915
vn -0.34815514087677 -0.87038844823837 0.34815514087677
vn -0.17693974077702 -0.92449045181274 0.33765333890915
vn -0.1710941940546 -0.97028529644012 0.1710941940546
vn -0.33765333890915 -0.92449045181274 0.17693974077702
vn 0 -0.94868332147598 0.31622779369354
vn 0 -0.98708742856979 0.16018225252628
vn 0.17693974077702 -0.92449045181274 0.33765333890915
vn 0.1710941940546 -0.97028529644012 0.1710941940546
vn 0.34815514087677 -0.87038844823837 0.34815514087677
vn 0.33765333890915 -0.92449045181274 0.17693974077702
# 150 normals

vt 0.265625 0.5 0
vt 0.3125 0.5 0
vt 0.3125 0.4375 0
vt 0.265625 0.4375 0
vt 0.375 0.5 0
vt 0.375 0.4375 0
vt 0.375 0.390625 0
vt 0.3125 0.390625 0
vt 0.27777776122093 0.40277779102325 0
vt 0.4375 0.5 0
vt 0.4375 0.4375 0
vt 0.484375 0.5 0
vt 0.484375 0.4375 0
vt 0.47222223877907 0.40277779102325 0
vt 0.4375 0.390625 0
vt 0.27777776122093 0.59722226858139 0
vt 0.3125 0.609375 0
vt 0.3125 0.5625 0
vt 0.265625 0.5625 0
vt 0.375 0.609375 0
vt 0.375 0.5625 0
vt 0.4375 0.609375 0
vt 0.4375 0.5625 0
vt 0.47222223877907 0.59722226858139 0
vt 0.484375 0.5625 0
vt 0.515625 0.5 0
vt 0.5625 0.5 0
vt 0.5625 0.4375 0
vt 0.515625 0.4375 0
vt 0.625 0.5 0
vt 0.625 0.4375 0
vt 0.625 0.390625 0
vt 0.5625 0.390625 0
vt 0.52777779102325 0.40277779102325 0
vt 0.6875 0.5 0
vt 0.6875 0.4375 0
vt 0.734375 0.5 0
vt 0.734375 0.4375 0
vt 0.72222220897675 0.40277779102325 0
vt 0.6875 0.390625 0
vt 0.52777779102325 0.59722226858139 0
vt 0.5625 0.609375 0
vt 0.5625 0.5625 0
vt 0.515625 0.5625 0
vt 0.625 0.609375 0
vt 0.625 0.5625 0
vt 0.6875 0.609375 0
vt 0.6875 0.5625 0
vt 0.72222220897675 0.59722226858139 0
vt 0.734375 0.5625 0
vt 0.765625 0.5 0
vt 0.8125 0.5 0
vt 0.8125 0.4375 0
vt 0.765625 0.4375 0
vt 0.875 0.5 0
vt 0.875 0.4375 0
vt 0.875 0.390625 0
vt 0.8125 0.390625 0
vt 0.77777779102325 0.40277779102325 0
vt 0.9375 0.5 0
vt 0.9375 0.4375 0
vt 0.984375 0.5 0
vt 0.984375 0.4375 0
vt 0.97222220897675 0.40277779102325 0
vt 0.9375 0.390625 0
vt 0.77777779102325 0.59722226858139 0
vt 0.8125 0.609375 0
vt 0.8125 0.5625 0
vt 0.765625 0.5625 0
vt 0.875 0.609375 0
vt 0.875 0.5625 0
vt 0.9375 0.609375 0
vt 0.9375 0.5625 0
vt 0.97222220897675 0.59722226858139 0
vt 0.984375 0.5625 0
vt 0.015625 0.5 0
vt 0.0625 0.5 0
vt 0.0625 0.4375 0
vt 0.015625 0.4375 0
vt 0.125 0.5 0
vt 0.125 0.4375 0
vt 0.125 0.390625 0
vt 0.0625 0.390625 0
vt 0.02777776680887 0.40277779102325 0
vt 0.1875 0.5 0
vt 0.1875 0.4375 0
vt 0.234375 0.5 0
vt 0.234375 0.4375 0
vt 0.22222223877907 0.40277779102325 0
vt 0.1875 0.390625 0
vt 0.02777776680887 0.59722226858139 0
vt 0.0625 0.609375 0
vt 0.0625 0.5625 0
vt 0.015625 0.5625 0
vt 0.125 0.609375 0
vt 0.125 0.5625 0
vt 0.1875 0.609375 0
vt 0.1875 0.5625 0
vt 0.22222223877907 0.59722226858139 0
vt 0.234375 0.5625 0
vt 0.265625 0.75 0
vt 0.3125 0.75 0
vt 0.3125 0.6875 0
vt 0.265625 0.6875 0
vt 0.375 0.75 0
vt 0.375 0.6875 0
vt 0.375 0.640625 0
vt 0.3125 0.640625 0
vt 0.27777776122093 0.65277779102325 0
vt 0.4375 0.75 0
vt 0.4375 0.6875 0
vt 0.484375 0.75 0
vt 0.484375 0.6875 0
vt 0.47222223877907 0.65277779102325 0
vt 0.4375 0.640625 0
vt 0.27777776122093 0.84722220897675 0
vt 0.3125 0.859375 0
vt 0.3125 0.8125 0
vt 0.265625 0.8125 0
vt 0.375 0.859375 0
vt 0.375 0.8125 0
vt 0.4375 0.859375 0
vt 0.4375 0.8125 0
vt 0.47222223877907 0.84722220897675 0
vt 0.484375 0.8125 0
vt 0.265625 0.25 0
vt 0.3125 0.25 0
vt 0.3125 0.1875 0
vt 0.265625 0.1875 0
vt 0.375 0.25 0
vt 0.375 0.1875 0
vt 0.375 0.140625 0
vt 0.3125 0.140625 0
vt 0.27777776122093 0.15277779102325 0
vt 0.4375 0.25 0
vt 0.4375 0.1875 0
vt 0.484375 0.25 0
vt 0.484375 0.1875 0
vt 0.47222223877907 0.15277779102325 0
vt 0.4375 0.140625 0
vt 0.27777776122093 0.34722220897675 0
vt 0.3125 0.359375 0
vt 0.3125 0.3125 0
vt 0.265625 0.3125 0
vt 0.375 0.359375 0
vt 0.375 0.3125 0
vt 0.4375 0.359375 0
vt 0.4375 0.3125 0
vt 0.47222223877907 0.34722220897675 0
vt 0.484375 0.3125 0
# 150 texture coordinates

o Subdivision_Surface
usemtl snow3
f 28/4/4 27/3/3 29/2/2 2/1/1
f 29/2/2 27/3/3 30/6/6 5/5/5
f 30/6/6 27/3/3 31/8/8 4/7/7
f 31/8/8 27/3/3 28/4/4 1/9/9
f 30/6/6 32/11/11 33/10/10 5/5/5
f 33/10/10 32/11/11 34/13/13 8/12/12
f 34/13/13 32/11/11 35/15/15 7/14/14
f 35/15/15 32/11/11 30/6/6 4/7/7
f 37/19/19 36/18/18 38/17/17 3/16/16
f 38/17/17 36/18/18 39/21/21 6/20/20
f 39/21/21 36/18/18 29/2/2 5/5/5
f 29/2/2 36/18/18 37/19/19 2/1/1
f 39/21/21 40/23/23 41/22/22 6/20/20
f 41/22/22 40/23/23 42/25/25 9/24/24
f 42/25/25 40/23/23 33/10/10 8/12/12
f 33/10/10 40/23/23 39/21/21 5/5/5
f 34/29/29 43/28/28 44/27/27 8/26/26
f 44/27/27 43/28/28 45/31/31 11/30/30
f 45/31/31 43/28/28 46/33/33 10/32/32
f 46/33/33 43/28/28 34/29/29 7/34/34
f 45/31/31 47/36/36 48/35/35 11/30/30
f 48/35/35 47/36/36 49/38/38 14/37/37
f 49/38/38 47/36/36 50/40/40 13/39/39
f 50/40/40 47/36/36 45/31/31 10/32/32
f 42/44/44 51/43/43 52/42/42 9/41/41
f 52/42/42 51/43/43 53/46/46 12/45/45
f 53/46/46 51/43/43 44/27/27 11/30/30
f 44/27/27 51/43/43 42/44/44 8/26/26
f 53/46/46 54/48/48 55/47/47 12/45/45
f 55/47/47 54/48/48 56/50/50 15/49/49
f 56/50/50 54/48/48 48/35/35 14/37/37
f 48/35/35 54/48/48 53/46/46 11/30/30
f 49/54/54 57/53/53 58/52/52 14/51/51
f 58/52/52 57/53/53 59/56/56 17/55/55
f 59/56/56 57/53/53 60/58/58 16/57/57
f 60/58/58 57/53/53 49/54/54 13/59/59
f 59/56/56 61/61/61 62/60/60 17/55/55
f 62/60/60 61/61/61 63/63/63 20/62/62
f 63/63/63 61/61/61 64/65/65 19/64/64
f 64/65/65 61/61/61 59/56/56 16/57/57
f 56/69/69 65/68/68 66/67/67 15/66/66
f 66/67/67 65/68/68 67/71/71 18/70/70
f 67/71/71 65/68/68 58/52/52 17/55/55
f 58/52/52 65/68/68 56/69/69 14/51/51
f 67/71/71 68/73/73 69/72/72 18/70/70
f 69/72/72 68/73/73 70/75/75 21/74/74
f 70/75/75 68/73/73 62/60/60 20/62/62
f 62/60/60 68/73/73 67/71/71 17/55/55
f 63/79/79 71/78/78 72/77/77 20/76/76
f 72/77/77 71/78/78 73/81/81 23/80/80
f 73/81/81 71/78/78 74/83/83 22/82/82
f 74/83/83 71/78/78 63/79/79 19/84/84
f 73/81/81 75/86/86 76/85/85 23/80/80
f 76/85/85 75/86/86 28/88/88 2/87/87
f 28/88/88 75/86/86 77/90/90 1/89/89
f 77/90/90 75/86/86 73/81/81 22/82/82
f 70/94/94 78/93/93 79/92/92 21/91/91
f 79/92/92 78/93/93 80/96/96 24/95/95
f 80/96/96 78/93/93 72/77/77 23/80/80
f 72/77/77 78/93/93 70/94/94 20/76/76
f 80/96/96 81/98/98 82/97/97 24/95/95
f 82/97/97 81/98/98 37/100/100 3/99/99
f 37/100/100 81/98/98 76/85/85 2/87/87
f 76/85/85 81/98/98 80/96/96 23/80/80
f 82/104/104 83/103/103 84/102/102 24/101/101
f 84/102/102 83/103/103 85/106/106 25/105/105
f 85/106/106 83/103/103 38/108/108 6/107/107
f 38/108/108 83/103/103 82/104/104 3/109/109
f 85/106/106 86/111/111 87/110/110 25/105/105
f 87/110/110 86/111/111 52/113/113 12/112/112
f 52/113/113 86/111/111 41/115/115 9/114/114
f 41/115/115 86/111/111 85/106/106 6/107/107
f 79/119/119 88/118/118 69/117/117 21/116/116
f 69/117/117 88/118/118 89/121/121 18/120/120
f 89/121/121 88/118/118 84/102/102 25/105/105
f 84/102/102 88/118/118 79/119/119 24/101/101
f 89/121/121 90/123/123 66/122/122 18/120/120
f 66/122/122 90/123/123 55/125/125 15/124/124
f 55/125/125 90/123/123 87/110/110 12/112/112
f 87/110/110 90/123/123 89/121/121 25/105/105
f 74/129/129 91/128/128 92/127/127 22/126/126
f 92/127/127 91/128/128 93/131/131 26/130/130
f 93/131/131 91/128/128 64/133/133 16/132/132
f 64/133/133 91/128/128 74/129/129 19/134/134
f 93/131/131 94/136/136 95/135/135 26/130/130
f 95/135/135 94/136/136 50/138/138 10/137/137
f 50/138/138 94/136/136 60/140/140 13/139/139
f 60/140/140 94/136/136 93/131/131 16/132/132
f 77/144/144 96/143/143 31/142/142 1/141/141
f 31/142/142 96/143/143 97/146/146 4/145/145
f 97/146/146 96/143/143 92/127/127 26/130/130
f 92/127/127 96/143/143 77/144/144 22/126/126
f 97/146/146 98/148/148 35/147/147 4/145/145
f 35/147/147 98/148/148 46/150/150 7/149/149
f 46/150/150 98/148/148 95/135/135 10/137/137
f 95/135/135 98/148/148 97/146/146 26/130/130

