# WaveFront *.obj file (generated by CINEMA 4D)

mtllib ./snow_box01.mtl

v -82.87980651855469 -71.75475311279297 88.82360076904297
v -84.18208312988281 22.17174339294434 92.43013763427734
v -82.21848297119141 71.03026580810547 78.44410705566406
v -53.41899108886719 -87.15497589111328 91.42088317871094
v -32.74450302124023 19.07463836669922 101.80683135986328
v -58.51956558227539 77.35683441162109 85.51020812988281
v 33.98512268066406 -83.87625122070312 90.78765869140625
v 28.36512184143066 11.5184497833252 103.65676116943359
v 26.42583274841309 81.11996459960938 92.33626556396484
v 82.47123718261719 -62.93570709228516 92.49237823486328
v 86.021240234375 -0.21104888617992 84.05613708496094
v 63.58847427368164 76.04183197021484 88.39054107666016
v 90.23645782470703 -82.35044097900391 72.67330169677734
v 100.46930694580078 -2.34167885780334 61.03524017333984
v 80.589111328125 78.76793670654297 64.93167877197266
v 89.14574432373047 -78.99544525146484 -3.23971700668335
v 105.49173736572266 9.1012020111084 -1.16726076602936
v 91.04920959472656 80.89735412597656 -7.69828987121582
v -23.88130760192871 -46.65046310424805 -101.20184326171875
v 101.99523162841797 10.7979211807251 -42.72509384155273
v 65.63448333740234 88.95709991455078 -58.64640045166016
v -3.29816341400146 93.71456909179688 40.21925735473633
v 84.70206451416016 45.38084411621094 -87.31813812255859
v 88.51644897460938 76.601806640625 -66.99149322509766
v 65.59809112548828 -83.82859039306641 -85.47358703613281
v 33.80695343017578 1.8553159236908 -92.62731170654297
v 59.29891967773438 67.21523284912109 -88.10325622558594
v -19.20478439331055 -86.66936492919922 -93.15568542480469
v -26.21647453308105 -7.8467173576355 -95.22451019287109
v -31.23638343811035 79.83974456787109 -92.41242218017578
v -64.39205169677734 -84.45698547363281 -86.79726409912109
v -81.33477783203125 1.10739350318909 -93.60187530517578
v -76.69829559326172 65.52721405029297 -94.31574249267578
v -77.44602203369141 -87.97413635253906 -68.19480895996094
v -101.40272521972656 5.60253763198853 -38.89481353759766
v -86.33794403076172 69.51723480224609 -52.51531600952148
v -82.91238403320312 -84.51154327392578 0.40885028243065
v -96.85041809082031 -2.70023155212402 -0.77426558732986
v -79.68002319335938 65.82790374755859 -15.22489356994629
v -88.19202423095703 -88.81592559814453 38.54691314697266
v -99.79513549804688 4.96777153015137 49.52113342285156
v -84.17320251464844 73.25795745849609 39.74788665771484
v -50.9893684387207 45.59270477294922 -103.0797119140625
v -52.55086898803711 81.45170593261719 -12.67860698699951
v -34.44882202148438 78.76470184326172 -50.24240112304688
v 27.90560531616211 90.14829254150391 45.85300064086914
v 25.8999080657959 95.4927978515625 20.94223594665527
v 54.93448638916016 89.15786743164062 -36.02883148193359
v -66.06434631347656 85.88722229003906 68.60004425048828
v 52.51186370849609 92.25058746337891 72.35535430908203
v -28.35726356506348 -100.33390808105469 27.70219993591309
v 34.41730880737305 -99.05629730224609 -45.4196662902832
v 1.55521285533905 -105.00514984130859 -49.10247421264648
v 34.61191558837891 -96.83235931396484 20.91360092163086
v 68.43444061279297 -97.52327728271484 -67.16354370117188
v -58.71369552612305 -100.35821533203125 -71.89855194091797
v -99.68639373779297 -48.69293212890625 26.02349472045898
v -47.68978881835938 -45.00087738037109 102.54522705078125
v 2.39591789245605 -5.61957597732544 -87.93206024169922
v -95.4117431640625 44.93776702880859 -27.29526138305664
v -91.32209777832031 60.20895004272461 -79.87762451171875
v 1.34644711017609 -39.87282180786133 109.51536560058594
v -2.20657300949097 -86.88643646240234 100.96212768554688
v 61.81953048706055 -40.40704727172852 94.80692291259766
v 58.98318481445312 94.26204681396484 36.84148025512695
v -89.97609710693359 44.80341339111328 15.23846530914307
v 65.62945556640625 -81.8214111328125 94.93140411376953
v 3.7675347328186 -104.76016235351562 30.40173149108887
v -4.62062978744507 43.08503341674805 -96.70405578613281
v -95.93901824951172 -48.27710342407227 -16.91899871826172
v -63.31340408325195 42.36954116821289 98.93037414550781
v -60.86495971679688 -98.78794860839844 75.17758941650391
v 68.88447570800781 -99.1402587890625 -1.78852367401123
v 21.06099891662598 53.8276481628418 104.47456359863281
v -84.76367950439453 46.3902473449707 43.65505599975586
v -2.96810460090637 85.52864837646484 -18.94474411010742
v 78.46701812744141 47.01012802124023 90.31072998046875
v 91.56410980224609 -44.64752578735352 73.86294555664062
v 7.12026119232178 -53.51563262939453 -95.87076568603516
v 99.88998413085938 -42.90690231323242 50.45028305053711
v 40.1557731628418 -50.89532852172852 -94.97971343994141
v -61.6891975402832 82.42533111572266 24.32391548156738
v 100.27556610107422 -26.95116424560547 23.46878242492676
v 0.62338405847549 -100.53550720214844 -10.99971008300781
v 65.80030822753906 -95.41970825195312 76.49486541748047
v 0.8209992647171 79.05970764160156 -72.29669952392578
v -1.8161209821701 -100.42992401123047 -75.14462280273438
v 92.30731964111328 -30.71297454833984 -18.44477653503418
v 64.89725494384766 93.18467712402344 -8.95179462432861
v -88.38878631591797 -48.08199310302734 -65.94936370849609
v -56.43065643310547 -98.40956878662109 -38.76553726196289
v -3.59718155860901 89.2908935546875 -41.90027236938477
v 91.87340545654297 -75.62733459472656 -64.005615234375
v 91.87920379638672 46.45790863037109 62.86529541015625
v -94.50473022460938 42.52224731445312 70.73664093017578
v 96.75608062744141 49.39687728881836 18.7331485748291
v -96.92990112304688 -46.70576858520508 76.11348724365234
v -62.89060974121094 -105.42417144775391 43.33949661254883
v 60.58999633789062 43.32664489746094 -95.12555694580078
v -90.79672241210938 -84.93524169921875 74.48847961425781
v -63.07801818847656 84.65972137451172 -75.84015655517578
v 0.69633203744888 -102.80125427246094 75.09300231933594
v 95.98988342285156 50.28855895996094 -63.68680572509766
v -9.7414083480835 85.73834991455078 66.0408935546875
v -48.41985321044922 -43.91256713867188 -97.20486450195312
v 79.04493713378906 -59.01036834716797 -83.59651184082031
# 106 vertices

vn -0.62837612628937 0.04496329650283 0.77660912275314
vn -0.10464441031218 0.01719811186194 0.99436098337173
vn -0.19632109999657 -0.08226704597473 0.97708249092102
vn 0 0 0
vn 0.18031625449657 0.01380773726851 0.98351174592972
vn 0.04288947582245 -0.09906047582626 0.99415665864944
vn 0.17432276904583 -0.01217410992831 0.98461329936981
vn -0.80127662420273 -0.59821552038193 -0.00969122257084
vn -0.98611259460449 -0.1591779589653 -0.04737426713109
vn -0.95191133022308 -0.09259188175201 0.29204714298248
vn 0.02126484923065 -0.01659933105111 -0.999636054039
vn 0.07925117015839 -0.00700702611357 -0.99683004617691
vn 0.16008353233337 -0.04846549779177 -0.98591297864914
vn -0.22752061486244 0.97303831577301 -0.03782671317458
vn -0.08566135168076 0.98959493637085 0.11560284346342
vn -0.30878096818924 0.94948035478592 -0.05604763329029
vn 0.12914296984673 -0.14806771278381 0.98050910234451
vn 0.05164312943816 -0.18253064155579 0.9818429350853
vn -0.18479546904564 -0.52416747808456 0.83132368326187
vn 0.2922465801239 0.03099637664855 0.95584052801132
vn 0.18170177936554 0.06576207280159 0.98115229606628
vn -0.00105771177914 0.00290843122639 0.99999523162842
vn -0.66905164718628 0.50533032417297 0.54498732089996
vn -0.17389126121998 0.68346834182739 0.70896601676941
vn -0.25422313809395 0.18892945349216 0.94851267337799
vn 0.90887171030045 -0.40468376874924 0.10091242939234
vn 0.91140502691269 -0.03907689079642 0.40965098142624
vn 0.98418641090393 -0.12582285702229 0.1246822476387
vn 0.17478515207767 0.60757690668106 -0.77479058504105
vn -0.00052180531202 0.97565430402756 -0.21931357681751
vn 0.03434341773391 0.66761147975922 -0.74371731281281
vn 0.96675229072571 0.03621716052294 0.25313696265221
vn 0.99446368217468 -0.10507953166962 0.00055002863519
vn 0.09996674954891 0.30438128113747 0.94729018211365
vn 0.03445959463716 0.20066329836845 0.97905403375626
vn -0.99502700567245 0.02871528454125 -0.0953763872385
vn -0.97678864002228 -0.20208230614662 -0.07104004174471
vn -0.91341722011566 -0.17561417818069 -0.36719015240669
vn 0.12194342166185 0.12759789824486 0.98430109024048
vn 0.23722143471241 0.10726024210453 0.96551603078842
vn -0.99002707004547 0.12458685785532 0.0657614171505
vn -0.96352881193161 0.26047170162201 0.06137340515852
vn -0.98163706064224 0.17369791865349 -0.07885238528252
vn 0.87312197685242 0.05205321311951 0.48471483588219
vn 0.90529870986938 -0.01779206283391 0.42440271377563
vn 0.98959684371948 -0.0314796641469 -0.14038215577602
vn 0.93005001544952 -0.16134357452393 -0.33011391758919
vn 0.98457431793213 -0.16367322206497 -0.06184289604425
vn -0.76802879571915 -0.63224172592163 -0.10199122130871
vn 0.99874824285507 -0.02950464189053 -0.04039070010185
vn 0.906753718853 -0.41632053256035 -0.06689515709877
vn -0.02851249836385 -0.45809069275856 -0.88844805955887
vn -0.27563175559044 -0.88945001363754 -0.36456248164177
vn 0.03800589591265 -0.94592416286468 -0.32215377688408
vn -0.00863174255937 0.9051029086113 0.42510494589806
vn 0.13386644423008 0.94836676120758 0.28754180669785
vn 0.59796833992004 0.58411103487015 0.54886084794998
vn -0.08508221805096 0.99596136808395 -0.02867000177503
vn -0.24184148013592 0.95933282375336 -0.14557884633541
vn 0.04709105193615 0.99303013086319 -0.10804443061352
vn 0.21848434209824 0.97040098905563 -0.10289090126753
vn -0.04808862134814 0.99852311611176 -0.02528022043407
vn 0.74344879388809 0.60871565341949 0.27703627943993
vn 0.21367721259594 0.97314423322678 0.0856291949749
vn 0.39799094200134 0.91677457094192 -0.03357945382595
vn 0.74379259347916 0.08949378877878 -0.66239219903946
vn 0.47495192289352 -0.16495595872402 -0.86441320180893
vn -0.22488009929657 -0.97431021928787 -0.01218740362674
vn 0.03466940298676 -0.99937254190445 0.0072535071522
vn 0.03291890770197 -0.99902206659317 -0.02951665408909
vn 0.89770710468292 0.23567846417427 0.37226009368896
vn 0.97652012109756 0.18301896750927 0.11363319307566
vn 0.86777544021606 0.26771360635757 0.41868269443512
vn 0.97522866725922 0.22105412185192 0.00800616387278
vn -0.00427394686267 -0.99998307228088 0.00394253432751
vn 0.04171140864491 -0.94700646400452 0.31849482655525
vn 0.05416244640946 -0.99812269210815 -0.02859209664166
vn -0.13859817385674 0.98999226093292 -0.02656893059611
vn -0.14581120014191 0.98550921678543 -0.0866643935442
vn -0.78395783901215 0.61870157718658 0.05117090046406
vn -0.71656519174576 0.69742548465729 0.01149239949882
vn 0.67877006530762 -0.43838459253311 -0.58914357423782
vn 0.17001666128635 -0.9838947057724 0.05518611148
vn 0.93618810176849 0.23282177746296 -0.26333591341972
vn 0.96147388219833 0.13551943004131 -0.23917038738728
vn -0.48994755744934 -0.30735895037651 0.81577068567276
vn 0.20118793845177 0.14610043168068 -0.96859592199326
vn -0.98292750120163 0.16516754031181 0.08107546716928
vn 0.0527075342834 -0.00036511366488 -0.99860990047455
vn 0.14542011916637 0.03479183092713 -0.9887580871582
vn 0.00139937573113 -0.02371738478541 -0.99971771240234
vn 0.07972119748592 0.02621320821345 -0.9964724779129
vn 0.12677340209484 -0.4305724799633 -0.8936083316803
vn -0.94874095916748 0.30420559644699 0.08572985976934
vn -0.6537903547287 -0.07590084522963 -0.75285935401916
vn -0.49249666929245 -0.38065055012703 -0.78265714645386
vn -0.13120783865452 -0.08899677544832 -0.9873520731926
vn 0.37640565633774 0.66831934452057 -0.64161360263824
vn -0.06871316581964 0.97266083955765 0.22183191776276
vn -0.3105830848217 0.93158805370331 0.18889647722244
vn -0.02100669778883 0.05961980298162 -0.99800008535385
vn -0.42642286419868 0.4229893386364 -0.79952704906464
vn -0.77646243572235 -0.58972531557083 -0.22210392355919
vn -0.99791467189789 0.06003902852535 0.02369849011302
vn -0.0335587002337 0.98699980974197 0.15717865526676
vn -0.94612944126129 -0.16366365551949 0.27938014268875
vn -0.86591184139252 0.3845933675766 -0.31981959939003
vn -0.85538983345032 0.51389914751053 -0.06492976844311
vn 0.06022017076612 -0.97319769859314 -0.22194531559944
vn 0.145392999053 0.95005857944489 -0.2761332988739
vn 0.32720595598221 -0.94490867853165 0.00915704108775
vn 0.18989405035973 -0.98152792453766 0.02330540679395
vn -0.12827168405056 -0.87466013431549 0.46745702624321
vn 0.07781713455915 -0.99694681167603 -0.00644520577043
vn 0.56941485404968 -0.57940769195557 0.58314102888107
vn 0.70150721073151 -0.57041174173355 0.4272213280201
vn -0.49521580338478 -0.8580841422081 0.13584131002426
vn -0.56529361009598 -0.82446372509003 -0.02650815434754
vn -0.300745844841 -0.61350303888321 0.73018211126328
vn 0.68331581354141 -0.73005723953247 -0.00979265663773
vn 0.69378560781479 -0.72000163793564 -0.01609940826893
vn 0.80771720409393 -0.40524470806122 -0.42821675539017
vn 0.0860598385334 -0.78275865316391 0.61634612083435
vn 0.06357569247484 -0.84680384397507 0.52809220552444
vn 0.09900811314583 -0.99508118629456 0.00329617084935
vn 0.01949427090585 -0.75615817308426 0.65409845113754
vn -0.42033293843269 -0.90487515926361 0.06723953783512
vn -0.02543386630714 -0.80462700128555 0.59323567152023
vn 0.41349795460701 -0.5641610622406 0.71466195583344
# 129 normals

vt 0 0.5 0
vt 0.16666667163372 0.5 0
vt 0.16666667163372 0.25 0
vt 0 0.25 0
vt 0.33333334326744 0.5 0
vt 0.33333334326744 0.25 0
vt 0.33333334326744 0 0
vt 0.16666667163372 0 0
vt 0 0 0
vt 0.5 0.5 0
vt 0.5 0.25 0
vt 0.66666668653488 0.5 0
vt 0.66666668653488 0.25 0
vt 0.66666668653488 0 0
vt 0.5 0 0
vt 0.83333337306976 0.5 0
vt 0.83333337306976 0.25 0
vt 1 0.5 0
vt 1 0.25 0
vt 1 0 0
vt 0.83333337306976 0 0
vt 0 1 0
vt 0.16666667163372 1 0
vt 0.16666667163372 0.75 0
vt 0 0.75 0
vt 0.33333334326744 1 0
vt 0.33333334326744 0.75 0
vt 0.5 1 0
vt 0.5 0.75 0
vt 0.66666668653488 1 0
vt 0.66666668653488 0.75 0
vt 0.83333337306976 1 0
vt 0.83333337306976 0.75 0
vt 1 1 0
vt 1 0.75 0
vt 0.125 0.5 0
vt 0.125 0.25 0
vt 0.25 0.5 0
vt 0.25 0.25 0
vt 0.25 0 0
vt 0.125 0 0
vt 0.375 0.5 0
vt 0.375 0.25 0
vt 0.375 0 0
vt 0.625 0.5 0
vt 0.625 0.25 0
vt 0.75 0.5 0
vt 0.75 0.25 0
vt 0.75 0 0
vt 0.625 0 0
vt 0.875 0.5 0
vt 0.875 0.25 0
vt 0.875 0 0
vt 0.125 1 0
vt 0.125 0.75 0
vt 0.25 1 0
vt 0.25 0.75 0
vt 0.375 1 0
vt 0.375 0.75 0
vt 0.625 1 0
vt 0.625 0.75 0
vt 0.75 1 0
vt 0.75 0.75 0
vt 0.875 1 0
vt 0.875 0.75 0
vt 0.16666667163372 0.125 0
vt 0 0.125 0
vt 0.33333334326744 0.125 0
vt 0.5 0.125 0
vt 0.66666668653488 0.125 0
vt 0.83333337306976 0.125 0
vt 1 0.125 0
vt 0.16666667163372 0.375 0
vt 0 0.375 0
vt 0.33333334326744 0.375 0
vt 0.5 0.375 0
vt 0.66666668653488 0.375 0
vt 0.83333337306976 0.375 0
vt 1 0.375 0
vt 0.16666667163372 0.625 0
vt 0 0.625 0
vt 0.33333334326744 0.625 0
vt 0.5 0.625 0
vt 0.66666668653488 0.625 0
vt 0.83333337306976 0.625 0
vt 1 0.625 0
vt 0.16666667163372 0.875 0
vt 0 0.875 0
vt 0.33333334326744 0.875 0
vt 0.5 0.875 0
vt 0.66666668653488 0.875 0
vt 0.83333337306976 0.875 0
vt 1 0.875 0
# 93 texture coordinates

o Subdivision_Surface.9
usemtl snow3
f 58/3/3 5/2/2 2/1/1
f 5/3/2 62/6/6 8/5/5
f 62/3/6 64/8/7 8/7/5
f 97/3/10 57/4/9 40/9/8
f 81/11/13 79/10/12 26/5/11
f 82/11/16 22/13/15 44/12/14
f 62/11/6 63/15/18 7/14/17
f 62/11/6 58/6/3 4/7/19
f 64/17/7 11/16/20 8/12/5
f 64/17/7 10/19/21 11/18/20
f 64/17/7 67/21/22 10/20/21
f 64/17/7 62/13/6 7/14/17
f 71/24/25 6/23/24 3/22/23
f 80/24/28 78/27/27 13/26/26
f 30/24/31 86/2/30 27/5/29
f 80/24/28 83/25/33 14/1/32
f 74/29/35 9/28/34 6/26/24
f 90/29/38 70/31/37 35/30/36
f 74/29/35 5/10/2 8/12/5
f 74/29/35 71/27/25 5/5/2
f 77/33/40 12/32/39 9/30/34
f 2/33/1 71/35/25 3/34/23
f 75/33/43 66/16/42 41/18/41
f 77/33/40 74/31/35 8/12/5
f 78/37/27 14/36/32 11/1/44
f 78/37/27 80/39/28 14/38/32
f 10/37/45 78/41/27 11/40/44
f 88/37/48 93/4/47 20/9/46
f 40/43/8 57/42/9 37/38/49
f 83/43/33 16/11/51 17/10/50
f 87/43/54 56/44/53 28/15/52
f 83/43/33 80/39/28 13/40/26
f 12/46/57 50/45/56 9/10/55
f 101/46/59 44/48/14 45/47/58
f 47/46/62 89/50/61 48/49/60
f 18/46/65 65/11/64 15/15/63
f 93/52/47 23/51/66 20/47/46
f 93/52/47 106/19/67 23/18/66
f 53/52/70 84/53/69 91/20/68
f 93/52/47 88/48/48 16/49/51
f 94/55/71 15/54/63 12/22/57
f 94/55/71 96/57/72 15/56/63
f 44/55/14 22/36/15 47/38/62
f 94/55/71 77/25/73 11/1/44
f 96/59/72 18/58/74 15/56/63
f 68/59/77 102/29/76 51/28/75
f 96/59/72 83/42/33 17/10/50
f 92/59/79 76/57/78 48/38/60
f 39/61/81 44/60/14 36/28/80
f 93/61/47 55/63/82 106/62/67
f 18/61/74 17/45/50 20/47/46
f 98/61/83 91/29/68 51/10/75
f 103/65/85 24/64/84 18/62/74
f 103/65/85 23/35/66 24/34/84
f 4/65/19 58/51/3 1/18/86
f 103/65/85 18/63/74 20/47/46
f 106/3/67 99/2/87 23/1/66
f 106/3/67 81/6/13 26/5/11
f 16/3/51 83/8/33 13/7/26
f 2/3/1 95/4/88 41/9/41
f 79/11/12 59/10/89 26/5/11
f 79/11/12 19/13/91 29/12/90
f 59/11/89 69/15/92 26/14/11
f 79/11/12 81/6/13 25/7/93
f 35/17/36 60/16/94 36/12/80
f 105/17/97 31/19/96 32/18/95
f 71/17/25 74/21/35 6/20/24
f 105/17/97 19/13/91 28/14/52
f 99/24/87 27/23/29 24/22/98
f 44/24/14 76/27/78 45/26/58
f 82/24/16 49/2/100 104/5/99
f 74/24/35 77/25/40 9/1/34
f 69/29/92 30/28/31 27/26/29
f 69/29/92 43/31/101 30/30/31
f 69/29/92 59/10/89 29/12/90
f 69/29/92 99/27/87 26/5/11
f 43/33/101 33/32/102 30/30/31
f 56/33/53 91/35/68 34/34/103
f 43/33/101 105/16/97 32/18/95
f 1/33/86 58/31/3 2/12/1
f 35/37/36 70/36/37 38/1/104
f 19/37/91 79/39/12 28/38/52
f 9/37/55 104/41/99 6/40/24
f 47/37/62 22/4/15 46/9/105
f 18/43/74 96/42/72 17/38/50
f 22/43/15 104/11/99 46/10/105
f 91/43/68 84/44/69 51/15/75
f 70/43/37 90/39/38 34/40/103
f 57/46/9 41/45/41 38/10/104
f 57/46/9 97/48/10 41/47/41
f 105/46/97 43/50/101 29/49/90
f 57/46/9 70/11/37 37/15/49
f 97/52/10 2/51/1 41/47/41
f 97/52/10 1/19/86 2/18/1
f 97/52/10 100/53/106 1/20/86
f 66/52/42 60/48/94 38/49/104
f 84/55/69 68/54/77 51/22/75
f 61/55/107 35/57/36 36/56/80
f 61/55/107 32/36/95 35/38/36
f 61/55/107 33/25/102 32/1/95
f 60/59/94 39/58/81 36/56/80
f 60/59/94 66/29/42 39/28/81
f 60/59/94 35/42/36 38/10/104
f 34/59/103 90/57/38 31/38/96
f 66/61/42 42/60/108 39/28/81
f 66/61/42 75/63/43 42/62/108
f 55/61/109 87/45/54 25/47/93
f 17/61/50 88/29/48 20/10/46
f 95/65/88 3/64/23 42/62/108
f 95/65/88 2/35/1 3/34/23
f 24/65/98 21/51/110 18/18/65
f 95/65/88 75/63/43 41/47/41
f 49/66/100 82/3/16 42/4/108
f 27/66/29 21/68/110 24/6/98
f 58/66/3 62/8/6 5/7/2
f 43/66/101 69/67/92 29/9/90
f 16/69/51 88/11/48 17/6/50
f 104/69/99 50/70/56 46/13/105
f 48/69/60 89/15/61 18/14/65
f 104/69/99 49/68/100 6/7/24
f 50/71/56 65/17/64 46/13/105
f 33/71/102 43/72/101 32/19/95
f 96/71/72 94/21/71 14/20/32
f 85/71/112 73/70/111 13/14/26
f 82/73/16 44/2/14 39/1/81
f 72/73/113 102/75/76 4/5/19
f 99/73/87 106/3/67 26/6/11
f 75/73/43 95/74/88 42/4/108
f 61/76/107 101/10/59 33/5/102
f 100/76/106 97/77/10 40/12/8
f 81/76/13 106/11/67 25/13/93
f 22/76/15 82/75/16 104/6/99
f 65/78/64 89/16/61 47/12/62
f 32/78/95 90/79/38 35/18/36
f 89/78/61 65/17/64 18/19/65
f 65/78/64 47/77/62 46/13/105
f 44/80/14 101/24/59 36/25/80
f 55/80/109 73/82/111 52/27/114
f 28/80/52 79/2/12 25/5/93
f 70/80/37 57/81/9 38/1/104
f 76/83/78 92/29/79 45/27/58
f 76/83/78 47/84/62 48/31/60
f 76/83/78 44/10/14 47/12/62
f 77/83/73 94/82/71 12/5/57
f 5/85/2 71/33/25 2/31/1
f 6/85/24 49/86/100 3/35/23
f 65/85/64 50/16/56 15/18/63
f 67/85/116 85/84/115 10/12/115
f 31/87/96 90/23/38 32/22/95
f 13/87/26 78/89/27 10/26/45
f 92/87/79 86/24/30 45/27/58
f 101/87/59 61/88/107 36/25/80
f 98/90/118 72/28/117 40/26/8
f 15/90/63 50/91/56 12/30/57
f 86/90/30 92/29/79 48/31/60
f 86/90/30 101/89/59 45/27/58
f 11/92/20 77/32/40 8/30/5
f 50/92/56 104/93/99 9/34/55
f 21/92/110 48/33/60 18/35/65
f 21/92/110 86/91/30 48/31/60
f 53/66/70 87/3/54 52/4/114
f 56/66/53 87/68/54 91/6/68
f 56/66/53 31/8/96 28/7/52
f 56/66/53 34/67/103 31/9/96
f 87/69/54 53/11/70 91/6/68
f 87/69/54 55/70/109 52/13/114
f 87/69/54 28/15/52 25/14/93
f 33/69/102 101/68/59 30/7/31
f 100/71/119 72/17/113 1/13/86
f 55/71/121 93/72/120 16/19/51
f 55/71/82 25/21/122 106/20/67
f 59/71/89 79/70/12 29/14/90
f 91/73/68 98/2/118 37/1/49
f 23/73/66 103/75/85 20/5/46
f 14/73/32 94/3/71 11/6/44
f 91/73/68 37/74/49 34/4/103
f 63/76/124 102/10/76 7/5/123
f 84/76/69 52/77/114 54/12/125
f 84/76/69 53/11/70 52/13/114
f 102/76/76 85/75/126 7/6/123
f 23/78/66 99/16/87 24/12/98
f 67/78/22 64/79/7 7/18/17
f 73/78/111 55/17/121 16/19/51
f 83/78/33 96/77/72 14/13/32
f 41/80/41 66/24/42 38/25/104
f 37/80/49 70/82/37 34/27/103
f 52/80/114 73/2/111 54/5/125
f 98/80/118 40/81/8 37/1/49
f 31/83/96 105/29/97 28/27/52
f 3/83/23 49/84/100 42/31/108
f 68/83/77 84/10/69 54/12/125
f 63/83/18 62/82/6 4/5/19
f 73/85/111 85/33/112 54/31/125
f 73/85/111 16/86/51 13/35/26
f 101/85/59 86/16/30 30/18/31
f 19/85/91 105/84/97 29/12/90
f 72/87/113 4/23/19 1/22/86
f 42/87/108 82/89/16 39/26/81
f 72/87/113 98/24/83 51/27/75
f 72/87/117 100/88/127 40/25/8
f 102/90/76 63/28/124 4/26/19
f 99/90/87 69/91/92 27/30/29
f 102/90/76 68/29/77 54/31/125
f 102/90/76 72/89/113 51/27/75
f 85/92/126 67/32/128 7/30/123
f 85/92/115 13/93/129 10/34/115
f 86/92/30 21/33/110 27/35/29
f 85/92/112 102/91/76 54/31/125

