<svg width="1440" height="1024" fill="none" xmlns="http://www.w3.org/2000/svg"><g clip-path="url(#clip0)"><path fill="#060606" d="M0 0h1440v1024H0z"/><g clip-path="url(#clip1)"><path d="M2241.34-640.03H-637.471v2263.5H2241.34v-2263.5z" fill="#3A058D"/><path d="M2406.14 2.33002L2207.52 47.11l-97.96 361.55-49.45-147.08-11.66 83.49-46.71 14.38-49.94 141.09-7.79-53.7-27.17-23.85-32.61 61.59-153.6-231.42-147.03 171.62-21.34-16.21-149.1 94.2-52.73-18.15-34.18 126.24-187.43-81.44-16.59 26.61-18.86.41-30.49 30.29-200.54-39.17-38.5 34.68-21.63-6.52-29.35 42.64-169.76-55.04-28.73 27.69-35.8-46.9-20.43 13.91-48.68-34.24-29.47 18.89-113.18-92.31-106.95 43.35-50.53-27.21-63.63 30.94-23.7801-15.46-43.91 21.2-29.65-17.73-97.9001 49.05-39.2698-45.12-27.43 6.64-34.3-31.32-3.39 34.21-64.84-145.7-42.27 85.71-69.03-242.57-34.82 135.8-36.35-112.21-45.05 47.71-60.07-164.98-70.12 66.24-35.66-21.28-45.28 21.5-85.49-65.49v1313.98h3179.05V2.33002z" fill="#4900B8"/><path d="M1531.63 429.72c-3.79 2.22-7.19 4.98-10.47 7.97-3.3 2.98-6.57 6.14-10.11 9.17l-.39.25c-8.03 5.19-15.92 10.6-23.75 16.13l-23.54 16.64c-7.87 5.59-15.87 11.06-24.02 16.43-8.16 5.35-16.5 10.56-25.12 15.38l-3.43 1.92-4.75-1.49c-7.48-2.34-15.92-3.87-24.88-6.11-4.48-1.13-9.1-2.44-13.74-4.16-4.64-1.72-9.29-3.84-13.78-6.42l18.86-6.62c-.84 2.86-1.63 5.72-2.23 8.36-.29 1.29-.54 2.59-.62 3.44-.02.2-.03.37-.02.43.01.05.04.05.07-.36.01-.21.02-.54-.05-1.21-.02-.17-.04-.34-.09-.61l-.07-.36-.11-.49c-.17-.61-.44-1.62-1.23-3.02-.23-.4-.46-.76-.74-1.15-.35-.48-.73-.95-1.14-1.38-.46-.49-1.06-1.03-1.65-1.46-.62-.46-1.41-.95-2.17-1.31-.78-.37-1.64-.69-2.5-.9-.82-.21-1.62-.33-2.45-.38-.73-.04-1.4-.03-2.1.04-.62.06-1.1.15-1.65.28-1.9.46-2.9 1.05-3.63 1.46-.66.4-1.12.75-1.42.99-.62.51-.87.78-1.06.98l-.34.37c-.12.13-.12.11-.1.04l.32-.83c.27-.72.53-1.59.64-2.25.06-.33.08-.61.07-.75-.01-.13-.07-.14-.1.24 0 .38-.07 1.17.55 2.86.32.82.87 1.88 1.74 2.92.86 1.04 2.04 2 3.19 2.63l20.18-7.24c-3.56 9.82-6.67 19.83-9.39 30-2.74 10.17-5.1 20.5-7.27 30.95-4.43 20.88-7.99 42.25-12.05 63.97l-4.1 21.9-22.04-8.23c-4.54-1.69-9.07-3.43-13.67-5.24-2.31-.91-4.62-1.84-7.03-2.85-1.21-.51-2.44-1.04-3.82-1.67-.7-.33-1.42-.66-2.38-1.16-.51-.27-1.02-.53-2-1.14-.26-.16-.54-.34-.94-.62-.41-.29-.86-.6-1.73-1.34-.51-.45-.97-.83-1.96-1.91-.24-.27-.41-.46-.8-.94l-.49-.64c-.17-.24-.27-.36-.54-.78-.24-.36-.46-.72-.68-1.1-.24-.42-.35-.61-.71-1.36-.31-.64-.58-1.3-.82-1.97-.18-.5-.55-1.68-.78-2.84-.23-1.27-.35-2.02-.38-3.74-.01-1.68.19-3.41.59-5.02.42-1.72 1.16-3.58 2.1-5.2 1.03-1.76 1.8-2.69 2.92-3.9 1.16-1.2 2.27-2.07 2.95-2.54.83-.59 1.71-1.11 2.61-1.56.59-.29 1.13-.53 1.72-.76.5-.2 1.33-.47 1.58-.54.37-.11.73-.21 1.11-.29.33-.08.83-.18 1.03-.22.48-.09.96-.16 1.45-.21.39-.04.67-.06 1.01-.09l.8-.03h.67l.5.01.83.04c.47.03.82.07 1.11.11.58.07.99.14 1.33.19.66.11 1.09.21 1.47.29.75.17 1.26.3 1.75.43.95.25 1.71.47 2.46.69 1.46.44 2.78.86 4.09 1.29 2.6.87 5.09 1.76 7.63 2.73 2.54.98 5.08 2.01 7.9 3.33 1.43.68 2.9 1.39 4.79 2.5.97.59 2.02 1.21 3.62 2.44.83.67 1.77 1.4 3.29 3.06.77.88 1.69 1.93 2.88 4 .59 1.05 1.24 2.35 1.83 4.21.58 1.84 1.11 4.35.98 7.42l-1.23 28.92-27.62-10.42c-8.11-3.06-16.19-6.16-24.17-9.42-7.98-3.25-15.89-6.57-23.76-9.9l-46.73-19.99-11.56-4.92-5.77-2.42-5.55-2.3-2.65-1.08c-.9-.36-1.7-.74-2.72-1.07l-2.91-1.03-3.23-1.22c-4.36-1.67-8.56-3.41-12.61-5.14-8.13-3.46-15.68-6.86-22.86-9.7-3.59-1.44-7.06-2.66-10.46-3.8-3.38-1.11-6.65-2-9.86-2.76l14.11-.65-2.47.88 12.1-8.78c.37-.46.19-.25-.22.81-.43 1.05-1.04 2.85-1.99 5.47-1 2.62-2.23 6.11-5.05 10.77-1.43 2.31-3.32 4.91-5.89 7.45-2.55 2.54-5.8 4.94-9.26 6.68l-1.55.78-1.82.62c-3.75 1.28-7.39 1.87-10.29 2.14-2.92.26-5.14.25-6.62.28l-.97.02-.69.02-.42.03c-.05.01-.11.02-.15.02-.03.03.7-.02 1.68-.33l4.68-2.09c-.78.51-1.84 1.34-3.38 2.92-1.54 1.56-3.47 3.84-5.93 6.76-2.48 2.91-5.5 6.51-9.7 10.41-2.11 1.94-4.53 3.93-7.3 5.83-2.77 1.89-5.89 3.67-9.24 5.11l-7.12 3.08-7.95-1.34-50.44-8.49c-16.84-2.89-33.73-5.72-50.6-8.88-16.87-3.13-33.761-6.39-50.651-9.84-16.88-3.47-33.779-7.08-50.639-11.05l26.899-8.51c-4.05 4.53-8.479 9.47-13.589 14.47-5.13 5-10.94 10.14-18.27 14.87-3.67 2.35-7.73 4.59-12.29 6.48-4.54 1.89-9.6 3.41-14.98 4.22-5.36.82-11 .92-16.42.25-5.42-.66-10.581-2.04-15.261-3.84l22.06-1.06c1.29-.64 2.411-1.45 3.191-2.15.79-.71 1.26-1.29 1.51-1.62.49-.69.209-.41-.211.54-.44.95-1.059 2.52-1.829 4.57-.8 2.07-1.73 4.62-3.24 7.91-.36.78-.84 1.78-1.24 2.53-.42.8-.83 1.6-1.29 2.39-.9 1.59-1.861 3.16-2.921 4.7-2.11 3.08-4.52 6.04-7.19 8.77-5.33 5.48-11.659 9.9-18.059 13.05l-10.24 5.03-10.46-3.55c-4.61-1.57-8.93-3.15-13.201-4.74l-12.609-4.78-24.661-9.5c-16.31-6.25-32.519-12.31-48.669-17.77-8.08-2.72-16.12-5.31-24.11-7.67-7.98-2.36-15.921-4.46-23.601-6.08-1.93-.43-3.809-.77-5.699-1.13-.95-.19-1.851-.31-2.781-.47-.78-.14-2.45-.37-1.359-.26.52.03 1.31.03 2.29-.12.97-.14 2.11-.46 3.15-.91 1.04-.44 1.94-1 2.56-1.48.619-.47.959-.84 1.109-1.01.26-.33-.209.16-.979 1.38-.391.6-.87 1.4-1.46 2.37-.59.97-1.291 2.14-2.201 3.54-.91 1.39-2.04 3.08-3.699 5.1-1.69 2.02-3.921 4.5-7.661 7.1-1.84 1.27-4.089 2.54-6.669 3.55-2.57 1.01-5.421 1.71-8.231 2-2.82.3-5.47.19-7.85-.14-2.41-.33-4.379-.87-6.229-1.47l3.069.82c-1.09-.23-2.18-.52-3.24-.85-.86-.29-1.719-.61-2.549-.96-.74-.32-1.371-.62-2.051-.96-.35-.18-.63-.32-.89-.47l-.799-.46c-2.05-1.21-3.521-2.31-4.681-3.25-2.39-1.95-3.909-3.51-5.299-4.98-2.71-2.91-4.66-5.4-6.51-7.81-3.65-4.76-6.61-9.17-9.5-13.35-2.86-4.14-5.631-8.11-8.071-11.25-1.18-1.52-2.36-2.88-2.78-3.34-.17-.24-.15-.13 1 .51.67.36 1.641.88 3.581 1.45.55.16 1.099.29 1.679.39.72.14 1.451.24 2.171.29.859.07 1.78.09 2.66.03 1-.04 2.049-.17 3.039-.39l1.89-.46c1-.31 1.911-.99 1.941-1.1.05-.11-.51.32-1.78 1.94l-1.21 1.55c-.5.64-1.1 1.42-2.04 2.52-.47.55-1.04 1.19-1.82 1.99-.79.79-1.771 1.75-3.341 2.94-1.59 1.16-3.72 2.69-7.52 4.02-.48.16-.949.31-1.449.45-.541.15-1.081.28-1.63.39-.53.11-1.12.21-1.73.3-.6.08-1.201.14-1.821.18-2.51.16-5.159-.08-7.529-.66-1.21-.3-2.22-.62-3.37-1.07-.61-.24-1.211-.51-1.8-.8l-.83-.42-.11-.07-.91-.53c-.59-.35-1.23-.74-1.77-1.09-.86-.58-1.8-1.19-2.58-1.77-.82-.59-1.621-1.19-2.351-1.77-.77-.6-1.449-1.18-2.159-1.77-5.47-4.7-9.49-9.14-13.24-13.26-3.7-4.11-7.01-7.92-10.05-11.1-1.511-1.58-2.96-3-4.23-4.13-.62-.54-1.23-1.07-1.73-1.45-.27-.22-.491-.37-.711-.54-.17-.13-.049-.04-.039-.06h.069c-.02-.02.121.07.171.09.15.08.299.15.449.21l.22.09.321.1c.24.07.54.14.88.2.67.11 1.52.16 2.25.07.73-.08 1.32-.25 1.63-.39.31-.13.38-.23.25-.18-.27.07-1.24.67-2.4 1.66-1.18 1-2.58 2.36-4.08 3.95-1.51 1.6-3.141 3.43-4.961 5.48-1.85 2.06-3.819 4.29-6.559 6.95l-14.041 13.66-14.439-12.08c-5.31-4.44-9.98-9.27-13.86-13.4-3.88-4.14-7.17-7.57-10.43-10.4l-25.901-21.63c-8.71-7.36-17.379-14.87-25.969-22.58-8.59-7.69-17.05-15.63-25.33-23.77l.919.79c-.16-.19-.1-.22-.02-.27.08-.05.081-.15-.269-.25-.68-.2-2.79-.03-5.52.78-1.38.39-2.91.91-4.6 1.52l-2.67.97-1.181.42-1.219.48-10.58 4.18c-7.23 2.82-14.58 5.62-22.1 8.17-7.52 2.54-15.201 4.86-22.991 6.86l2.14-.85c-3.18 1.4-6.359 2.99-9.779 4.74l-5.29 2.7-2.77 1.37-2.931 1.39-.889.41c-.32.14-.54.26-.99.43-.8.31-1.69.63-2.29.81-1.33.43-2.73.77-4.14 1.06-2.85.54-5.83.76-8.75.57-5.89-.34-11.24-2.24-15.61-4.51-4.41-2.29-8.031-4.95-11.331-7.55-3.29-2.61-6.26-5.21-9.12-7.62-5.69-4.82-11.04-9-16.24-10.83l6.61-.77c-10.38 4.9-20.72 11.04-31.83 16.45-5.55 2.71-11.29 5.25-17.29 7.31-5.99 2.07-12.269 3.54-18.639 4.21l-2.13.22-1.24-.95c-3.25-2.49-6.33-5.02-9.41-7.54-3.0705-2.51-6.1205-5.02-9.2005-7.4l.74.36c-1.12-.5-2.54-.7-4.1-.59-1.55.11-3.21.44-4.86.94-3.32 1-6.62 2.54-9.87 4.19l-1.59-2.62c3.18-1.94 6.46-3.81 10.05-5.22 1.79-.7 3.67-1.28 5.66-1.58 1.98-.3 4.1301-.27 6.2001.41l.1999.06.1801.12c6.6504 4.44 12.9894 9.22 19.5194 13.57l-1.209-.26c5.76-.98 11.389-2.72 16.839-4.96 5.45-2.23 10.72-4.95 15.89-7.87 10.35-5.85 20.321-12.53 30.911-18.36l.67-.37.75.2c3.97 1.08 7.639 2.86 11.049 4.91 3.41 2.06 6.591 4.38 9.691 6.72 6.19 4.66 12.129 9.61 18.789 12.75 3.31 1.55 6.811 2.56 10.321 2.64 1.75.05 3.51-.15 5.23-.53.86-.21 1.71-.44 2.55-.75.43-.14.8-.3 1.2-.45.39-.16.799-.4 1.199-.6 6.72-3.45 13.261-7.67 20.301-11.2l.17-.08.19-.06c7.24-2.21 14.389-4.73 21.459-7.49 7.07-2.75 14.081-5.71 21.061-8.77l10.49-4.64 1.329-.59 1.351-.55 2.649-1.09c1.78-.73 3.601-1.44 5.471-2.09 3.73-1.27 7.739-2.32 12.019-2.24 2.13.06 4.301.41 6.351 1.16 2.06.73 3.959 1.86 5.639 3.18l.061.04.069.06c8.29 7.61 16.76 15.02 25.4 22.24 8.63 7.23 17.42 14.29 26.26 21.29l26.661 20.93c4.53 3.64 8.63 7.69 12.62 11.68 3.99 3.99 7.95 7.85 12.25 11.28l-3.36.19c3.51-3.57 6.769-7.76 10.34-11.74 3.589-3.96 7.419-7.97 12.469-10.87 2.51-1.42 5.421-2.52 8.531-2.72 1.549-.1 3.119 0 4.63.33 1.54.32 2.909.82 4.349 1.52 1.35.74 2.521 1.5 3.64 2.31 1.141.8 2.221 1.66 3.281 2.53 2.1 1.75 4.07 3.6 5.98 5.49 3.81 3.77 7.359 7.69 10.949 11.5 3.59 3.8 7.191 7.54 11.081 10.75.98.8 1.96 1.57 2.98 2.28.5.37 1.02.68 1.53 1.03l.74.45.37.22.049.03-.029-.02c-.02-.01-.051-.02-.081-.03-.04-.02-.07-.02-.11-.04-.18-.05-.44-.02-.5.01-.079.03 0 0 .11-.09.24-.18.61-.56.98-1 .74-.88 1.511-1.95 2.321-3.02 1.62-2.15 3.439-4.37 5.679-6.26 2.23-1.9 4.931-3.46 7.851-4.29l.11-.03.1-.02c1.18-.23 2.29-.08 3.18.19.9.27 1.65.64 2.35 1.03 1.36.8 2.49 1.71 3.53 2.64 2.07 1.87 3.85 3.86 5.57 5.88 3.4 4.05 6.48 8.23 9.55 12.38 3.06 4.15 6.08 8.32 9.22 12.29 1.57 1.98 3.18 3.91 4.86 5.66.84.87 1.699 1.7 2.559 2.38.43.35.86.64 1.25.87.39.23.771.38.951.41l.12.02.209.07c.771.25 1.48.35 2.09.28.61-.08 1.17-.28 1.78-.71 1.22-.84 2.431-2.45 3.541-4.19 2.26-3.52 4.27-7.69 7.62-11.37 1.68-1.82 3.78-3.5 6.27-4.54 2.48-1.05 5.22-1.37 7.76-1.17 1.33.1 2.36.3 3.48.46 1.1.17 2.219.31 3.319.52 2.2.39 4.401.76 6.581 1.22 8.75 1.75 17.36 3.94 25.89 6.36 8.53 2.42 16.98 5.06 25.38 7.84 16.8 5.55 33.389 11.64 49.909 17.85l24.74 9.35c8.24 3.1 16.48 6.2 24.75 8.97l-2.23.16c3.68-1.84 7.02-4.24 9.84-7.17 2.82-2.91 5.111-6.36 6.831-10.06 1.71-3.75 3.01-8 4.9-12.24.95-2.12 2.059-4.27 3.579-6.3 1.5-2.02 3.501-3.94 5.991-5.18l1.18-.59 1.22.47c5.19 1.99 10.739 2.72 16.149 1.86 5.42-.82 10.611-3.17 15.391-6.26 4.79-3.1 9.199-6.94 13.379-11.05 4.19-4.12 8.141-8.54 12.121-13.02l1.21-1.36 1.78.42c33.1 7.8 66.439 14.62 99.879 20.96 33.441 6.34 66.991 12.22 100.531 18.18l-1.61.19c3.06-1.3 5.85-3.26 8.44-5.61 2.59-2.35 4.98-5.05 7.4-7.84 2.43-2.78 4.89-5.66 7.67-8.37 2.76-2.7 5.86-5.23 9.34-7.21l.24-.14.26-.09c1.66-.55 3.36-.84 4.98-.98 1.63-.14 3.19-.13 4.66-.13 2.95.02 5.59-.05 7.89-.82l-.36.15c1.53-.76 2.77-2.02 3.82-3.69 1.04-1.66 1.87-3.66 2.67-5.75.8-2.1 1.57-4.31 2.53-6.54.96-2.22 2.11-4.48 3.68-6.57l.51-.68.8-.27 2.48-.84.77-.26.76.19c4.21 1.06 8.36 2.28 12.43 3.7 4.06 1.44 8.07 2.98 12.01 4.66 7.88 3.32 15.56 6.97 23.25 10.42 3.85 1.73 7.7 3.41 11.58 4.98 1.93.79 3.91 1.55 5.9 2.3 1.98.77 3.94 1.68 5.9 2.51 7.83 3.41 15.55 6.85 23.28 10.36l46.22 21.16c15.41 7 30.89 13.83 46.53 20.22l-3.45 2.21c-.01.58.15.82.2.92.06.1.07.1.05.08-.04-.05-.18-.18-.34-.31-.33-.27-.77-.56-1.22-.83-.92-.56-1.93-1.09-2.95-1.61-2.06-1.02-4.21-1.97-6.37-2.87-2.17-.9-4.36-1.76-6.57-2.56-1.1-.4-2.21-.79-3.3-1.14-.55-.18-1.09-.35-1.62-.5l-.76-.2-.31-.07c-.06-.02-.19-.02.05-.01.09-.01.16.01.54-.09.09-.03.26-.09.38-.15.11-.05.21-.11.31-.18.08-.06.21-.16.35-.3.23-.23.5-.66.6-1.09.05-.19.07-.4.07-.6 0-.21-.02-.29-.04-.44-.12-.54-.25-.68-.34-.84-.08-.12-.15-.2-.19-.24-.09-.1-.12-.12-.15-.15-.07-.06.01.01.08.05.16.1.39.24.62.36.47.26.98.51 1.5.77 1.04.51 2.1 1 3.18 1.49 2.15.98 4.32 1.92 6.51 2.86 4.37 1.87 8.77 3.7 13.18 5.51l-3.31 1.73c4.76-21.27 9.11-42.69 14.43-63.93 5.31-21.24 11.61-42.33 20.02-62.65l.95-2.3 2.24 1.16c1.2.62 2.13 1.79 2.55 2.89.45 1.11.56 2.16.59 3.13.02 1.94-.35 3.66-.81 5.32-.48 1.65-1.09 3.23-1.84 4.76-.37.77-.78 1.52-1.25 2.28-.24.38-.49.76-.79 1.14-.3.39-.61.78-1.15 1.24-.29.22-.59.51-1.42.74-.4.11-1.11.14-1.76-.18-.64-.31-1-.8-1.17-1.11-.35-.67-.37-1.04-.43-1.39-.04-.34-.05-.62-.04-.89.02-1.04.16-1.87.31-2.72.31-1.67.72-3.23 1.16-4.79.88-3.1 1.89-6.12 2.94-9.12l.9-2.58 2.3 1.46c7.18 4.55 15.22 7.67 23.51 10.18 8.29 2.54 16.87 4.55 25.24 7.7l-1.59.08c17.13-8.48 33.58-18.34 49.92-28.43 16.33-10.09 32.64-20.33 49.53-29.64l-.19.12c3.58-2.66 7.02-5.57 10.63-8.37 3.6-2.8 7.45-5.45 11.66-7.47l1.25 2.71z" fill="#7000FF"/><path d="M2173.16 617.45c-114.92-38.96-389.55-38.96-506.42-11.69-85.52 19.95-308.94 31.51-397.41 29.03-129.44-3.62-194.61 18.29-317.431 44.98-72.27 15.71-176.649 9.32-251.259 19.48-68.11 9.27-226.52-29.08-294.11-25.32-280.48 15.58-336.8005-31.54-475.4505-27.75C-240.311 650.86-312.2 695.35-637.48 629.13" fill="#5C01E4"/><path d="M2546.87 720.13c-71.51-1.25-117.52-12.91-117.52-12.91s-57.87-11.87-117.52-12.92c-59.65-1.04-164.3 18.83-235.81 17.58-71.51-1.25-117.49-12.92-117.49-12.92s-57.84-11.87-117.47-12.92c-59.65-1.04-164.21 18.82-235.72 17.57-71.51-1.25-117.32-12.91-117.32-12.91s-57.49-11.87-117.14-12.91c-59.65-1.04-163.53 18.84-235.01 17.59-71.51-1.25-115.96-12.9-115.96-12.9s-59.46-11.9-119.08-12.95c-59.65-1.04-165.85 18.79-237.37 17.54-71.51-1.25-117.53-12.91-117.53-12.91s-57.87-11.87-117.53-12.92c-59.65-1.04-164.3 18.83-235.81 17.58-71.51-1.25-117.5-12.93-117.5-12.93s-57.84-11.87-117.46-12.92c-59.65-1.04-164.22 18.82-235.73 17.57-71.51-1.25-117.3-12.91-117.3-12.91s-57.49-11.87-117.15-12.91c-59.65-1.04-164.08 18.83-235.58 17.58-71.51-1.25-496.29-10.38-496.29-10.38l-.58-88.27s426.92 9.1 498.43 10.36c71.51 1.25 175.65-18.62 235.3-17.58 59.65 1.04 117.26 12.91 117.26 12.91s45.89 11.67 117.4 12.92 176.1-18.62 235.75-17.57c59.65 1.04 117.5 12.92 117.5 12.92s46.02 11.67 117.5 12.92c71.49 1.25 176.16-18.61 235.81-17.57 59.65 1.04 117.53 12.92 117.53 12.92s46.01 11.67 117.53 12.92c71.51 1.25 177.74-18.59 237.37-17.54 59.65 1.04 119.08 12.95 119.08 12.95s44.45 11.64 115.96 12.89c71.51 1.25 175.39-18.63 235.01-17.59 59.65 1.04 117.14 12.91 117.14 12.91s45.84 11.66 117.32 12.91c71.48 1.25 176.07-18.61 235.72-17.57 59.65 1.04 117.47 12.92 117.47 12.92s46.01 11.67 117.49 12.92c71.48 1.25 176.16-18.61 235.81-17.57 59.65 1.04 117.52 12.92 117.52 12.92s46.01 11.67 117.52 12.92c71.51 1.25 177.19-18.6 236.81-17.55 59.65 1.04 118.53 12.94 118.53 12.94l-1.54 88.28s-58.9-11.89-118.53-12.94c-59.63-1.1-165.34 18.78-236.82 17.53z" fill="#3A058D"/><path d="M3195.6 710.01c-28.48-75.22-121.06-124.3-195.89-110.57-74.83 13.73-146.83 50.34-222.68 46.84-110.97-5.13-218.56-95.46-323.85-57.65-61.97 22.25-107.03 85.61-170.99 100-58.4 13.14-116.39-17.63-173.22-37.08-153.93-52.69-320.86-23.29-479.3 10.87s-42.31 47.6-480.03 47.6" fill="#3A058D"/><path d="M-1244.45 689.77s475.861 10.86 547.381 10.86c71.52 0 175.3-21.69 234.96-21.69s117.47 10.86 117.47 10.86 46.08 10.87 117.61 10.87c71.52 0 175.7497-21.7 235.40974-21.7 59.66006 0 117.70026 10.86 117.70026 10.86s46.22 10.86 117.7 10.86c71.5 0 175.81-21.69 235.47-21.69s117.74 10.86 117.74 10.86 46.21 10.86 117.73 10.86c71.52 0 177.39-21.7 237.02-21.7 59.659 0 119.289 10.86 119.289 10.86s44.65 10.85 116.17 10.85c71.52 0 175.04-21.69 234.67-21.69 59.66 0 117.35 10.86 117.35 10.86s46.03 10.86 117.52 10.86 175.71-21.7 235.38-21.7c59.66 0 117.67 10.86 117.67 10.86s46.21 10.85 117.7 10.85c71.49 0 175.8-21.69 235.46-21.69s117.73 10.86 117.73 10.86 46.21 10.86 117.73 10.86c71.52 0 176.83-21.7 236.47-21.7 59.66 0 118.73 10.86 118.73 10.86v84.32h-4198.06v-84.51z" fill="url(#paint0_linear)"/><path d="M-1085.02 783.26s475.86-7.58 547.38-7.58c71.52 0 175.301 15.14 234.96 15.14 59.66 0 117.471-7.58 117.471-7.58s46.079-7.58 117.6095-7.58c71.52003 0 175.7505 15.14 235.4105 15.14 59.66 0 117.699-7.58 117.699-7.58s46.22-7.58 117.7-7.58c71.5 0 175.811 15.14 235.471 15.14s117.74-7.58 117.74-7.58 46.209-7.58 117.729-7.58 177.39 15.14 237.02 15.14c59.66 0 119.29-7.58 119.29-7.58s44.65-7.58 116.17-7.58c71.52 0 175.04 15.14 234.67 15.14 59.66 0 117.35-7.58 117.35-7.58s46.03-7.58 117.52-7.58 175.71 15.14 235.38 15.14c59.66 0 117.67-7.58 117.67-7.58s46.21-7.58 117.7-7.58c71.49 0 175.8 15.14 235.46 15.14s117.73-7.58 117.73-7.58 46.21-7.58 117.73-7.58c71.52 0 176.83 15.14 236.47 15.14 59.66 0 118.73-7.58 118.73-7.58v-58.85h-4198.06v59.01z" fill="#5C01E4"/><path d="M615.11 813.36S784.08 932.9 901.36 951.78c92.07 14.82-243.21 214.84-402.07 33.06-53.8-61.56 115.82-171.48 115.82-171.48z" fill="#2297CC"/><path d="M-77.0596 712.59c45.81 1.87 158.3401 24.02 488.2896-216.33 281.561-210.94 437.1-79.19 505.65-6.68 68.54 72.5 114.98 350.1-257.78 498.22s-577.8596 149.47-858.78 61.33c-291.78-91.55-516.21-365.25-468.85-445.88 53.1-90.39 338.49 99.01 591.4704 109.34z" fill="#28B6F6"/><path d="M504.57 903.76s105.62 178 205.03 243.02c78.05 51.04-309.63 97.13-380.67-133.59-24.05-78.14 175.64-109.43 175.64-109.43z" fill="#28B6F6"/><path d="M684.059 473.52c25.278 0 45.77-20.492 45.77-45.77 0-25.278-20.492-45.77-45.77-45.77-25.278 0-45.77 20.492-45.77 45.77 0 25.278 20.492 45.77 45.77 45.77zM530.25 713.06c10.217 0 18.5-8.283 18.5-18.5s-8.283-18.5-18.5-18.5-18.5 8.283-18.5 18.5 8.283 18.5 18.5 18.5zM596.52 498.45c10.217 0 18.5-8.283 18.5-18.5s-8.283-18.5-18.5-18.5c-10.218 0-18.5 8.283-18.5 18.5s8.282 18.5 18.5 18.5zM887.61 533.78c16.674 0 30.19-13.517 30.19-30.19 0-16.674-13.516-30.19-30.19-30.19-16.673 0-30.19 13.516-30.19 30.19 0 16.673 13.517 30.19 30.19 30.19zM217.361 686.16c16.137 0 29.22-13.082 29.22-29.22 0-16.138-13.083-29.22-29.22-29.22-16.138 0-29.22 13.082-29.22 29.22 0 16.138 13.082 29.22 29.22 29.22z" fill="#2297CC"/><path d="M740.539 585.37c-20.66-8.93-44.66.64-53.52 21.19-8.86 20.54.71 44.55 21.38 53.47 20.66 8.93 44.66-.64 53.52-21.19 8.85-20.53-.72-44.54-21.38-53.47z" fill="#231F20"/><path d="M754.74 635.49c-8.86 20.56-29.59 31.39-46.31 24.18-16.71-7.2-23.08-29.71-14.22-50.27 8.86-20.56 29.59-31.39 46.31-24.18 16.71 7.21 23.08 29.71 14.22 50.27z" fill="#231F20"/><path opacity=".3" d="M730.399 613.06c10.87 5.91 34.23 8.38 20.19 26.95-14.04 18.56-26.9 11.08-37.77 5.18-10.87-5.91-15.63-17.86-10.8-26.78 4.83-8.92 17.51-11.26 28.38-5.35z" fill="#29B6F6"/><path d="M783.769 665.08c-.34 12.41-23.62 21.84-52.01 21.08-28.39-.76-51.14-11.44-50.81-23.85.33-12.41 23.62-21.85 52.02-21.08 28.39.77 51.14 11.45 50.8 23.85z" fill="#28B6F6"/><path d="M711.55 613.68c-2.14 4.96-7.96 7.23-12.99 5.06-5.04-2.17-7.38-7.95-5.24-12.92 2.14-4.96 7.95-7.23 12.99-5.06 5.03 2.17 7.38 7.95 5.24 12.92z" fill="#fff"/><path d="M927.931 571.7c-17.6-7.76-38.16.28-45.86 17.77-7.7 17.5.34 38.06 17.93 45.82 17.6 7.76 38.16-.28 45.86-17.77 7.7-17.5-.33-38.07-17.93-45.82z" fill="#231F20"/><path d="M939.752 614.6c-7.7 17.51-25.48 26.63-39.71 20.38-14.23-6.26-19.531-25.52-11.841-43.04 7.7-17.51 25.48-26.63 39.71-20.38 14.24 6.27 19.541 25.53 11.841 43.04z" fill="#231F20"/><path opacity=".3" d="M908.482 597.79c10.17-2.89 25.909-15.34 28.429 4.38 2.52 19.73-9.8 22.84-19.97 25.73-10.17 2.89-20.219-1.56-22.599-9.89-2.38-8.32 3.97-17.33 14.14-20.22z" fill="#29B6F6"/><path d="M960.16 609.29c6.46 8.41-1.9 27.21-21.15 42-19.24 14.78-40.08 19.95-46.54 11.54-6.46-8.41 3.9-27.21 23.15-42 19.24-14.79 38.08-19.96 44.54-11.54z" fill="#28B6F6"/><path d="M902.121 598.26c-1.86 4.23-6.84 6.13-11.13 4.25-4.29-1.88-6.26-6.84-4.4-11.07 1.86-4.23 6.84-6.13 11.13-4.24 4.28 1.88 6.25 6.83 4.4 11.06z" fill="#fff"/><path d="M801.891 704.35c6.91-1.45 79.46-9.5 79.46-9.5s-7.7 25.29-34.4 29.36c-34.65 5.27-45.06-19.86-45.06-19.86z" fill="#231F20"/><path d="M794.289 488.92l61.55-65.19c33.21-35.06 72.72-63.62 116.47-84.12 51.321-24 96.721-59.04 132.861-102.53l13.6-16.44c10.8-13.06 44.69-39.77 79.46-65.75 7.21-5.4 15.94 4.71 9.42 10.99-34.28 33.11-68.65 67.76-78.57 82.94l-21.56 32.42c-31.24 47.19-72.21 87.32-120.051 117.71-40.86 25.97-76.66 59.11-105.68 97.81l-30.65 41.09c-3.87 5.16-9.17 9.27-15.24 11.71-14.27 5.74-30.65 1.61-40.51-10.2l-2.34-2.81c-10.52-12.58-11.04-30.67-1.2-43.85l2.44-3.78z" fill="#fff"/><path d="M1020.98 332.72c-4.23-4.43-8.02-8.82-11.42-13.09-11.412 6.95-23.202 13.31-35.322 19.07 3.83 5.2 8.29 10.7 13.54 16.44 9.97 10.93 19.082 18.95 26.952 24.86 10.57-8 20.73-16.5 30.44-25.48-7.3-5.56-15.48-12.68-24.19-21.8zM884.119 441.77c-8.73-8.82-15.52-17.66-20.77-25.75-2.54 2.53-5.05 5.1-7.52 7.71l-25.7 27.21c5.27 7.15 12.05 14.96 20.76 23.04 11.45 10.62 21.85 17.93 30.72 22.96l.15-.21c8.74-11.65 18.1-22.78 28.01-33.38-7.76-5.29-16.47-12.31-25.65-21.58zM1068.61 275.37c-8.14 7.42-16.59 14.48-25.33 21.17 2.26 2.59 4.66 5.24 7.25 7.96 8.38 8.78 16.09 15.66 22.96 21.07 7.23-8.18 14.13-16.65 20.68-25.4-5.04-4.27-10.44-9.18-16.12-14.85-3.4-3.37-6.53-6.7-9.44-9.95zM815.609 512.05c-8.6-7.98-15.41-16.12-20.77-23.71l-.55.58-2.46 3.76c-9.84 13.17-9.31 31.26 1.21 43.85l2.34 2.81c9.86 11.81 26.24 15.94 40.51 10.2 6.07-2.43 11.37-6.55 15.24-11.71l.33-.44c-10.12-5.05-22.49-12.95-35.85-25.34zM935.65 359.28c-12.69 7.71-24.92 16.15-36.64 25.27 4.98 7.13 11.36 14.96 19.49 23.18 9.68 9.78 18.59 17.01 26.41 22.37 10.32-8.65 21.08-16.78 32.24-24.37-6.78-5.43-14.23-12.25-22.03-20.8-8.11-8.89-14.49-17.67-19.47-25.65zM1198.23 154.89c-6.08 4.55-12.13 9.11-18.04 13.62 2.16 1.93 4.42 3.89 6.8 5.9 2.2 1.86 4.33 3.63 6.42 5.31 4.71-4.61 9.48-9.25 14.25-13.85 6.51-6.27-2.22-16.38-9.43-10.98zM1116.78 223.05l-11.6 14.03c-4.23 5.09-8.6 10.07-13.08 14.92 2.88 3.16 5.99 6.43 9.38 9.81 4.07 4.06 7.95 7.7 11.63 11.01l15.97-24.01c1.62-2.48 3.9-5.49 6.72-8.91-1.56-1.27-3.13-2.57-4.74-3.94-5.22-4.41-9.97-8.75-14.28-12.91zM1158.68 185.24c-8.56 6.8-16.35 13.21-22.91 18.91 3.83 3.59 8.04 7.35 12.67 11.27 1.81 1.53 3.57 2.99 5.3 4.4 6.17-6.54 13.09-13.65 20.45-21.05-1.51-1.23-3.04-2.5-4.6-3.82-3.89-3.29-7.52-6.54-10.91-9.71z" fill="#fff"/><path d="M846.95 477.27c-8.72-8.08-13.93-16.52-16.8-26.32l-35.31 37.39c4.46 10.17 11.41 21.12 20.01 29.1 13.36 12.39 25.12 17.03 36.61 19.95l30.17-40.44c-6.09-1.14-23.23-9.06-34.68-19.68zM916.29 411.31c-11.47-10.93-14.6-21.67-17.28-26.76-12.5 9.74-24.41 20.25-35.66 31.48 1.76 4.55 5.279 16.53 16.529 27.51 9.33 9.11 24.561 17.76 29.911 19.83 11.03-11.79 22.759-22.89 35.129-33.26-6.97-3.28-15.929-6.7-28.629-18.8zM990.388 361.76c-9.22-9.14-12.639-16.69-16.149-23.06-.64.3-1.28.61-1.92.92-12.59 5.9-24.831 12.47-36.671 19.66 3.96 9.73 5.35 15.44 16.04 27.15 10.81 11.84 16.9 14.17 25.47 19.31 3.4-2.31 6.82-4.59 10.3-6.8 9.36-5.94 18.452-12.27 27.272-18.94-7.45-4.07-13.83-7.82-24.342-18.24zM1043.28 296.54c-10.81 8.28-22.06 15.99-33.71 23.09 2.4 6.6 5.81 11.39 14.71 20.71 8.34 8.74 16 12.33 20.9 14.18 9.92-9.17 19.37-18.83 28.31-28.95-5.65-2.67-7.15-2.13-18.01-12.19-7.45-6.89-11.2-15.57-12.2-16.84zM1092.1 252c-7.5 8.13-15.33 15.93-23.49 23.36 2.91 3.26 6.04 6.59 9.43 9.96 5.69 5.67 11.08 10.58 16.12 14.85 4.62-6.18 9.08-12.49 13.35-18.94l5.59-8.41c-3.69-3.31-7.56-6.95-11.63-11.01-3.39-3.37-6.49-6.64-9.37-9.81zM1135.77 204.15c-7.58 6.6-13.5 12.26-17 16.49l-1.99 2.41c4.31 4.16 9.06 8.5 14.28 12.91 1.61 1.36 3.18 2.66 4.74 3.94 4.66-5.66 10.8-12.49 17.95-20.07-1.73-1.41-3.49-2.87-5.3-4.4-4.64-3.93-8.85-7.69-12.68-11.28zM1180.19 168.51c-7.49 5.72-14.73 11.34-21.51 16.73 3.39 3.17 7.02 6.42 10.92 9.72 1.56 1.32 3.09 2.58 4.6 3.82 6.16-6.19 12.62-12.59 19.21-19.05-2.08-1.69-4.22-3.45-6.42-5.31-2.38-2.02-4.64-3.98-6.8-5.91z" fill="#B71C1C"/><path d="M863.359 416.02c1.76 4.55 7.54 18.95 16.53 27.51 12.7 12.1 24.56 17.76 29.91 19.83" fill="#B71C1C"/><path d="M81.9994 606.64C.34939 734.29-30.7506 737.19-131.641 661.57M48.5702 660.17c-34.69 147.5-63.08 160.55-183.3302 122.67" stroke="#5E3930" stroke-width="75.7028" stroke-miterlimit="10" stroke-linecap="round"/><path d="M212.29 579.15c-39.83 37.92-70.91 5.54-146.7705 8.81" stroke="#F9D232" stroke-width="317.195" stroke-miterlimit="10" stroke-linecap="round" stroke-dasharray="270.78 270.78"/><path d="M212.29 579.15c-39.83 37.92-70.91 5.54-146.7705 8.81" stroke="#F9D232" stroke-width="317.195" stroke-miterlimit="10" stroke-linecap="round" stroke-dasharray="5.82 5.82"/><path d="M72.3493 746.4c11.58-.49 21.2 1.17 35.7697 3.67 21.39 3.68 50.69 8.73 85.31 4.89 41.91-4.65 80.02-20.75 113.46-47.97.77-.63 1.56-1.27 2.35-1.91.22-.19.46-.39.69-.58.15-.12.3-.25.45-.37.56-.48 1.13-.96 1.69-1.45.51-.43 1.01-.88 1.53-1.33.75-.66 1.49-1.31 2.23-1.98 1-.87 1.96-1.76 2.93-2.66.96-.89 1.93-1.78 2.89-2.7 63.44-60.4 65.9-160.8 5.5-224.24-1.56-1.64-3.13-3.23-4.76-4.77-.65-.65-1.31-1.26-1.96-1.89-.15-.13-.27-.25-.42-.38-.7-.65-1.41-1.29-2.13-1.93-1.64-1.47-3.3-2.91-5.01-4.3-.76-.62-1.53-1.26-2.31-1.86-.81-.65-1.62-1.28-2.46-1.91-1.83-1.41-3.69-2.75-5.56-4.04-.92-.66-1.87-1.29-2.82-1.92-1.02-.67-2.03-1.34-3.08-1.99-.11-.09-.23-.16-.35-.23-.77-.47-1.55-.95-2.31-1.41-.49-.29-.96-.59-1.45-.88-2.78-1.63-5.6-3.17-8.47-4.6-.72-.39-1.46-.74-2.18-1.1-.82-.41-1.63-.78-2.45-1.16-.93-.44-1.85-.87-2.79-1.27-1.17-.52-2.34-1.02-3.52-1.52-.64-.25-1.27-.51-1.91-.76-1.36-.56-2.73-1.09-4.11-1.58-.81-.31-1.62-.6-2.46-.89-1.91-.68-3.84-1.29-5.78-1.89-.88-.27-1.74-.52-2.61-.77-5.58-1.62-11.24-2.91-16.96-3.89-1.03-.18-2.09-.35-3.11-.5-5.09-.77-10.2-1.31-15.32-1.57-1.22-.07-2.44-.13-3.65-.16h-.14c-1.25-.04-2.51-.06-3.77-.07-1.25-.02-2.52.01-3.78.02-1.09.01-2.16.04-3.23.09-11.51.42-23 2.11-34.22 5.04-1.23.31-2.44.66-3.65 1-.79.21-1.57.44-2.35.7-.71.19-1.39.41-2.08.64-2.28.72-4.54 1.5-6.78 2.34-1.13.4-2.21.81-3.3 1.26-1.08.41-2.17.86-3.23 1.33-1.46.61-2.92 1.25-4.37 1.9-22.05-3.48-51.4197-6.92-87.6397-5.36-87.49 3.78-155.38 77.77-151.62 165.28 3.8 87.53 77.79 155.42 165.3 151.63z" fill="#F8C329"/><path d="M360.369 523.47c6.33-69.52 133.76-77.11 59.79 45.35" stroke="#FFE14D" stroke-width="77.1586" stroke-miterlimit="10" stroke-dasharray="334.84 334.84"/><path d="M360.369 523.47c6.33-69.52 133.76-77.11 59.79 45.35" stroke="#FFE14D" stroke-width="77.159" stroke-miterlimit="10" stroke-linecap="round"/><path d="M381.019 633.41l-7.59-24.04-24.81 4.47 39.14-64.8 64.8 39.14-39.14 64.8-7.59-24.04-24.81 4.47z" fill="#4E342E"/><path d="M392.479 540.58s29.89 52.82 67.49 40.43l-67.49-40.43z" fill="#6BB4FD"/><path d="M383.389 543.58c-.1-.3-.18-.6-.25-.91-.06-.3-.12-.61-.16-.92-.03-.31-.06-.63-.07-.93-.01-.31.01-.63.03-.94.02-.31.06-.63.11-.93.05-.31.12-.62.21-.91.08-.3.18-.6.29-.89.11-.29.24-.58.38-.86s.3-.55.46-.82c.17-.26.35-.52.54-.76.19-.25.4-.48.62-.71.22-.22.44-.44.68-.64.24-.2.49-.39.74-.57.26-.18.52-.35.8-.51.27-.15.55-.29.84-.42.29-.13.58-.24.88-.34.3-.1.6-.18.91-.25.3-.07.61-.12.92-.16.31-.03.63-.06.94-.06.31-.01.63 0 .94.02.31.02.63.06.93.11.31.06.62.12.91.21.3.08.6.18.89.29.29.12.58.24.86.38s.55.3.82.46c.26.17.52.35.77.55.25.19.48.4.71.61.22.22.44.45.64.68.2.24.4.48.57.74.18.25.35.52.51.79.15.27.29.56.42.84.26.57.46 1.18.59 1.79.07.31.12.62.16.93.03.31.05.62.06.94.01.31 0 .63-.02.94-.02.31-.06.62-.11.93-.05.31-.12.62-.2.92-.08.3-.18.6-.29.89-.11.3-.24.59-.38.86-.14.28-.3.56-.47.82-.17.26-.35.52-.54.77-.19.24-.4.48-.61.7-.21.23-.45.44-.68.64-.23.21-.48.4-.74.58-.25.18-.52.35-.79.5-.27.15-.55.3-.84.42-.29.13-.58.25-.88.34-.3.1-.6.18-.91.24-.31.07-.62.12-.92.16-.31.04-.63.06-.94.07-.31 0-.62 0-.94-.03-.31-.02-.62-.06-.93-.11-.31-.05-.62-.12-.92-.2-.3-.09-.6-.19-.89-.3-.29-.11-.59-.24-.86-.38-.28-.14-.56-.29-.82-.47-.26-.17-.52-.34-.76-.54-.25-.19-.49-.4-.71-.62-.22-.22-.44-.44-.64-.68-.2-.24-.4-.49-.58-.74-.17-.26-.35-.53-.5-.79-.15-.27-.29-.56-.42-.84-.15-.3-.26-.59-.36-.89zM398.619 550.5c4.01-3.45 10.05-2.99 13.5 1.02 3.44 4.01 2.99 10.05-1.03 13.5-4.01 3.45-10.06 2.98-13.5-1.03h-.01c-.84-.98-1.45-2.08-1.83-3.23-1.16-3.58-.16-7.66 2.87-10.26zm13.91 16.11c3.16-4.24 9.15-5.13 13.39-1.97 4.24 3.15 5.13 9.15 1.98 13.39-3.15 4.25-9.15 5.13-13.39 1.97-1.65-1.22-2.78-2.87-3.38-4.68-.95-2.86-.53-6.11 1.4-8.71zm17.25 12.76c1.29-5.13 6.49-8.24 11.62-6.94 5.13 1.29 8.24 6.49 6.95 11.62-1.3 5.12-6.5 8.23-11.63 6.94-3.3-.83-5.76-3.29-6.75-6.3-.55-1.66-.65-3.5-.19-5.32z" fill="#6BB4FD"/><path d="M443.473 589.534c-.1-.3-.18-.6-.24-.91-.07-.3-.12-.61-.16-.92-.03-.31-.06-.63-.07-.93-.01-.31.01-.63.03-.94.02-.31.06-.63.11-.93.06-.31.12-.62.21-.91.08-.3.18-.6.29-.89.11-.29.24-.58.38-.86s.3-.55.46-.82c.17-.26.35-.52.54-.76.19-.25.4-.48.62-.71.22-.22.44-.44.68-.64.24-.2.49-.4.74-.57.26-.18.52-.35.8-.51.27-.15.55-.29.84-.42.29-.13.58-.24.88-.34.3-.1.6-.18.91-.25.3-.06.61-.12.92-.16.31-.03.63-.06.94-.06.31-.01.63 0 .94.02.31.02.63.06.93.11.31.06.62.12.91.21.3.08.6.18.89.29.29.12.58.24.86.38s.55.3.82.47c.26.17.52.35.76.55.25.19.48.4.71.61.22.22.44.45.64.68.2.24.4.48.57.74.18.25.35.52.51.79.15.27.29.56.42.84.26.58.46 1.18.59 1.79.07.31.12.62.16.93.03.31.05.62.06.94.01.31 0 .63-.02.94-.02.31-.06.62-.11.93-.05.31-.12.62-.21.92-.08.3-.18.6-.29.89-.11.3-.24.59-.38.86-.14.28-.3.56-.47.82-.17.26-.35.52-.54.77-.19.24-.4.48-.61.7-.22.22-.45.44-.68.64-.23.21-.48.4-.74.58-.25.18-.52.35-.79.5-.27.15-.55.3-.84.42-.29.13-.58.25-.88.34-.3.1-.6.18-.91.24-.31.07-.61.12-.92.16-.31.04-.63.06-.94.07-.31 0-.63 0-.94-.03-.31-.02-.62-.06-.93-.11-.31-.05-.62-.12-.92-.2-.3-.09-.6-.19-.89-.3-.29-.11-.58-.24-.86-.38s-.56-.29-.82-.47c-.26-.17-.52-.34-.76-.54-.25-.19-.48-.4-.71-.62-.22-.22-.44-.44-.64-.68-.2-.24-.4-.49-.58-.74-.18-.26-.35-.53-.5-.79-.15-.27-.29-.56-.42-.84-.13-.31-.25-.6-.35-.9z" fill="#6BB4FD"/><path d="M274.47 415.6l42.21 52.38c11.05 13.71 31.11 15.87 44.82 4.82l52.8-42.55c28.17-22.7 32.61-63.94 9.9-92.12-22.7-28.17-63.94-32.61-92.12-9.91l-52.8 42.55c-13.7 11.06-15.86 31.12-4.81 44.83z" fill="#5E3930"/><path d="M388.849 403.2c12.25-9.87 14.18-27.8 4.31-40.05-9.87-12.25-27.8-14.18-40.05-4.31" fill="#9B643D"/><path d="M221.739 409.93l-52.38 42.21c-13.71 11.05-33.78 8.89-44.82-4.82l-42.55-52.8c-22.7-28.17-18.2699-69.41 9.9101-92.12 28.1699-22.7 69.4099-18.27 92.1199 9.91l42.55 52.8c11.04 13.71 8.88 33.78-4.83 44.82z" fill="#5E3930"/><path d="M112.609 373.5c-9.87-12.25-7.94-30.18 4.31-40.05 12.25-9.87 30.18-7.94 40.05 4.31" fill="#9B643D"/><path d="M326.029 654.13c51.167-48.715 56.683-125.981 12.32-172.577-44.363-46.595-121.806-44.877-172.974 3.839-51.167 48.716-56.683 125.981-12.32 172.577 44.363 46.596 121.806 44.877 172.974-3.839z" fill="#39F"/><path d="M231.371 699.57c-4.3-.1-7.71-3.67-7.61-7.97.1-4.3 3.66-7.71 7.97-7.61 4.3.1 7.71 3.67 7.61 7.97-.1 4.24-3.57 7.61-7.79 7.61h-.18zm9.93-7.71c-.5-4.27 2.55-8.15 6.82-8.65 4.28-.51 8.15 2.55 8.65 6.82.51 4.27-2.54 8.15-6.82 8.65-.31.04-.61.06-.92.06-3.89 0-7.26-2.92-7.73-6.88zm-28.5 5.92c-4.24-.73-7.09-4.75-6.36-8.99.73-4.24 4.75-7.09 8.99-6.36 4.24.72 7.09 4.75 6.37 8.99-.66 3.8-3.95 6.48-7.68 6.48-.43 0-.88-.04-1.32-.12zm45.91-8.12c-1.08-4.16 1.42-8.42 5.59-9.5 4.16-1.08 8.41 1.42 9.49 5.59 1.08 4.16-1.42 8.42-5.58 9.5-.66.17-1.32.25-1.96.25-3.47 0-6.63-2.33-7.54-5.84zm-64.05 3.57c-4.08-1.37-6.28-5.78-4.92-9.86 1.37-4.08 5.79-6.29 9.87-4.92 4.08 1.37 6.28 5.79 4.91 9.86-1.09 3.26-4.13 5.32-7.39 5.32-.82 0-1.65-.13-2.47-.4zm81-8.1c-1.63-3.99.29-8.53 4.28-10.15 3.99-1.63 8.53.29 10.15 4.28 1.62 3.99-.3 8.53-4.28 10.15-.96.39-1.95.58-2.93.58-3.08 0-5.99-1.84-7.22-4.86zm-98.25.75h-.01c-3.81-2-5.28-6.71-3.28-10.52 2-3.81 6.71-5.28 10.52-3.28 3.81 2 5.28 6.71 3.28 10.52-1.39 2.65-4.1 4.17-6.9 4.17-1.22 0-2.46-.28-3.61-.89zm114.45-7.48c-2.13-3.74-.81-8.5 2.94-10.62 3.74-2.12 8.49-.8 10.62 2.94 2.12 3.75.8 8.5-2.95 10.62-1.21.69-2.53 1.02-3.83 1.02-2.71 0-5.35-1.43-6.78-3.96zm-130.32-2.57c-3.44-2.59-4.12-7.48-1.53-10.91 2.59-3.44 7.48-4.12 10.91-1.53 3.43 2.6 4.12 7.48 1.53 10.92-1.54 2.03-3.87 3.1-6.23 3.1-1.63 0-3.28-.52-4.68-1.58zm145.52-6.18c-2.58-3.45-1.87-8.33 1.57-10.91h.01c3.44-2.57 8.32-1.87 10.9 1.58 2.57 3.45 1.87 8.33-1.58 10.9-1.39 1.05-3.03 1.55-4.65 1.55-2.38 0-4.72-1.08-6.25-3.12zm-159.54-6.32c-2.47-2.59-2.8-6.43-1.05-9.36-3.2 1.18-6.92.14-9.01-2.76v-.01c-2.51-3.49-1.72-8.36 1.77-10.87s8.36-1.72 10.88 1.77c1.87 2.6 1.91 5.96.37 8.54 2.83-1.03 6.12-.37 8.33 1.95 2.97 3.11 2.84 8.05-.27 11.01-1.51 1.44-3.45 2.15-5.38 2.15-2.05 0-4.11-.81-5.64-2.42zm173.52-4.29c-2.99-3.1-2.89-8.03.21-11.01v-.01c3.1-2.98 8.04-2.88 11.02.22 2.98 3.1 2.88 8.04-.22 11.02-1.51 1.45-3.45 2.17-5.4 2.17-2.04 0-4.08-.8-5.61-2.39zm12.56-12.24c-3.34-2.71-3.85-7.62-1.15-10.96 2.71-3.34 7.62-3.86 10.97-1.14 3.34 2.7 3.85 7.61 1.14 10.95-1.54 1.9-3.79 2.89-6.06 2.89-1.72 0-3.45-.57-4.9-1.74zm-205.82-11.68h-.01c-1.91-3.86-.33-8.53 3.53-10.44 3.85-1.92 8.53-.34 10.44 3.52 1.91 3.85.33 8.53-3.53 10.44-1.11.55-2.29.81-3.45.81-2.87 0-5.62-1.59-6.98-4.33zm216.78-2.03c-3.66-2.27-4.79-7.07-2.52-10.73 2.26-3.66 7.06-4.79 10.72-2.52 3.66 2.26 4.79 7.06 2.52 10.72-1.47 2.38-4.02 3.7-6.63 3.7-1.4 0-2.81-.38-4.09-1.17zm-223.73-15.4c-1.27-4.11 1.03-8.47 5.14-9.74 4.11-1.27 8.48 1.03 9.75 5.14v.01c1.26 4.11-1.04 8.47-5.15 9.74-.76.24-1.54.35-2.3.35-3.33 0-6.41-2.15-7.44-5.5zm232.86.41c-3.92-1.78-5.66-6.39-3.89-10.31 1.77-3.92 6.39-5.66 10.31-3.89 3.92 1.77 5.66 6.38 3.89 10.31-1.3 2.88-4.14 4.58-7.1 4.58-1.08 0-2.17-.22-3.21-.69zm-236.98-18.66c-.62-4.26 2.33-8.22 6.58-8.84 4.26-.62 8.22 2.33 8.84 6.58.62 4.26-2.33 8.22-6.58 8.84-.39.06-.76.09-1.14.09-3.8-.01-7.13-2.79-7.7-6.67zm244.1 2.61c-4.13-1.24-6.46-5.58-5.22-9.7 1.23-4.12 5.58-6.46 9.7-5.22 4.12 1.24 6.46 5.58 5.22 9.7-1.01 3.38-4.11 5.55-7.46 5.55-.74 0-1.5-.1-2.24-.33zm-237.65-13.42c-4.3-.01-7.78-3.51-7.77-7.81.01-4.31 3.51-7.78 7.81-7.77 4.31.01 7.79 3.51 7.77 7.81-.01 4.3-3.49 7.77-7.78 7.77h-.03zm242.57-3.42c-4.25-.67-7.15-4.66-6.48-8.91.66-4.25 4.65-7.16 8.9-6.49 4.25.67 7.16 4.66 6.49 8.91-.6 3.84-3.92 6.58-7.69 6.58-.4 0-.81-.03-1.22-.09zm-242.37-14.13c-4.26-.61-7.21-4.57-6.59-8.83.62-4.26 4.57-7.21 8.83-6.59 4.26.62 7.21 4.58 6.59 8.83v.01c-.57 3.87-3.89 6.67-7.7 6.67-.37 0-.75-.03-1.13-.09zm244.97-3.23c-4.31-.07-7.75-3.6-7.68-7.91.06-4.3 3.6-7.74 7.9-7.67 4.3.06 7.74 3.59 7.68 7.9-.06 4.26-3.54 7.68-7.79 7.68h-.11zm-242.31-14.11c-4.13-1.2-6.51-5.52-5.32-9.65 1.19-4.13 5.51-6.52 9.65-5.32 4.13 1.19 6.51 5.51 5.32 9.64-.98 3.41-4.1 5.63-7.48 5.63-.72 0-1.44-.1-2.17-.3zm233.67-10.14c-.58-4.26 2.42-8.18 6.69-8.75 4.26-.57 8.18 2.42 8.75 6.69.57 4.27-2.42 8.19-6.69 8.76-.35.04-.69.06-1.04.06-3.84 0-7.19-2.84-7.71-6.76zm-228.66-6.69c-3.95-1.73-5.74-6.33-4-10.26 1.73-3.95 6.32-5.73 10.26-4 3.94 1.73 5.73 6.32 4 10.26-1.28 2.92-4.14 4.66-7.14 4.66-1.04 0-2.11-.21-3.12-.66zm225.27-9.26c-1.22-4.13 1.14-8.47 5.27-9.68 4.12-1.22 8.46 1.14 9.67 5.27 1.22 4.13-1.14 8.46-5.26 9.68-.74.21-1.48.32-2.21.32-3.37 0-6.47-2.2-7.47-5.59zm-218.09-6.76c-3.69-2.22-4.87-7.01-2.64-10.69 2.23-3.68 7.02-4.86 10.7-2.64 3.68 2.23 4.86 7.02 2.63 10.7-1.46 2.42-4.03 3.76-6.67 3.76-1.37 0-2.76-.36-4.02-1.13zm212.26-8.43c-1.86-3.88-.22-8.53 3.66-10.39 3.88-1.86 8.53-.22 10.39 3.66 1.86 3.88.22 8.53-3.66 10.39-1.08.52-2.23.77-3.36.77-2.9 0-5.69-1.63-7.03-4.43zm-203.07-6.52c-3.37-2.67-3.93-7.57-1.26-10.94 2.68-3.37 7.58-3.94 10.95-1.26 3.37 2.67 3.93 7.58 1.25 10.94-1.53 1.94-3.81 2.95-6.1 2.95-1.7 0-3.41-.55-4.84-1.69zm194.88-7.49c-2.46-3.53-1.61-8.39 1.92-10.85 3.53-2.47 8.38-1.61 10.85 1.91 2.47 3.53 1.61 8.39-1.91 10.85-1.36.96-2.92 1.41-4.46 1.41-2.46 0-4.88-1.16-6.4-3.32zm-183.87-6.16c-3.02-3.08-2.97-8.01.11-11.02 3.07-3.01 8-2.97 11.01.11 3.01 3.07 2.96 8-.11 11.01-1.51 1.49-3.48 2.23-5.45 2.23-2.02 0-4.04-.78-5.56-2.33zm173.51-6.34c-3.01-3.07-2.95-8.01.12-11.02 3.08-3 8.01-2.95 11.02.13s2.95 8.01-.12 11.02c-1.52 1.48-3.49 2.22-5.45 2.22-2.02 0-4.05-.79-5.57-2.35zm-160.91-5.86c-2.61-3.43-1.95-8.32 1.47-10.93 3.42-2.61 8.31-1.96 10.92 1.47 2.61 3.42 1.96 8.31-1.46 10.92-1.42 1.08-3.08 1.6-4.73 1.6-2.34 0-4.66-1.06-6.2-3.06zm148.65-4.78c-3.47-2.55-4.22-7.43-1.67-10.89 2.55-3.47 7.42-4.22 10.89-1.68 3.47 2.55 4.22 7.43 1.67 10.9-1.53 2.07-3.89 3.18-6.29 3.18-1.6 0-3.21-.5-4.6-1.51zm-134.63-5.78c-2.16-3.72-.89-8.49 2.83-10.65 3.73-2.16 8.49-.89 10.65 2.83s.89 8.49-2.83 10.65c-1.23.71-2.57 1.05-3.9 1.05-2.69 0-5.3-1.39-6.75-3.88zm120.8-2.73c-3.84-1.95-5.37-6.64-3.42-10.47 1.95-3.84 6.64-5.37 10.47-3.42 3.84 1.95 5.37 6.64 3.42 10.47-1.37 2.71-4.11 4.27-6.95 4.27-1.19 0-2.39-.28-3.52-.85zm-105.56-5.96c-1.66-3.98.2-8.54 4.17-10.2 3.97-1.66 8.54.21 10.2 4.18 1.66 3.97-.21 8.53-4.18 10.19-.98.41-2 .61-3 .61-3.05 0-5.94-1.8-7.19-4.78zm90.51-.22c-4.1-1.32-6.35-5.7-5.04-9.8 1.31-4.1 5.7-6.35 9.8-5.04 4.1 1.32 6.35 5.7 5.04 9.8-1.06 3.31-4.13 5.42-7.42 5.42-.79 0-1.59-.13-2.38-.38zm-74.28-6.44c-1.13-4.16 1.32-8.44 5.48-9.56 4.15-1.13 8.43 1.33 9.55 5.48 1.13 4.16-1.32 8.43-5.48 9.56-.68.18-1.37.27-2.04.27-3.43 0-6.58-2.28-7.51-5.75zm58.4 2.66c-4.25-.67-7.15-4.67-6.47-8.91.68-4.26 4.67-7.15 8.92-6.47 4.25.67 7.14 4.66 6.47 8.91-.61 3.84-3.92 6.57-7.69 6.57-.4 0-.82-.03-1.23-.1zm-41.44-7.13c-.55-4.27 2.46-8.17 6.73-8.72 4.26-.56 8.17 2.45 8.73 6.72.55 4.27-2.46 8.18-6.73 8.73-.34.04-.68.06-1.01.06-3.86 0-7.21-2.86-7.72-6.79zm25.12 5.76c-4.3-.05-7.75-3.58-7.7-7.88.05-4.3 3.58-7.75 7.88-7.7 4.3.05 7.75 3.57 7.7 7.88-.05 4.27-3.53 7.7-7.79 7.7h-.09z" fill="#39F"/><path d="M240.1 664.45c96.805 0 175.28-78.475 175.28-175.28 0-96.804-78.475-175.28-175.28-175.28-96.804 0-175.2797 78.476-175.2797 175.28 0 96.805 78.4757 175.28 175.2797 175.28z" fill="#5E3930"/><path d="M349.903 495.664c18.488-1.53 33.113-7.152 32.665-12.557-.447-5.405-15.797-8.546-34.286-7.016-18.488 1.531-33.113 7.153-32.665 12.558.447 5.405 15.798 8.546 34.286 7.015z" fill="#000"/><path d="M349.689 483.93c24.02-2.82 45.61 2.96 56.06 13.62-6.68 12.45-10.8 26.44-11.95 41.04-9.57 5.9-22.18 10.25-36.29 11.91-32.4 3.81-60.41-8.01-62.57-26.39-2.16-18.38 22.35-36.37 54.75-40.18z" fill="#5E3930"/><path d="M214.645 511.552c18.488-1.531 33.099-7.327 32.633-12.947-.465-5.619-15.83-8.934-34.318-7.404-18.488 1.531-33.099 7.327-32.633 12.947.465 5.619 15.83 8.934 34.318 7.404z" fill="#000"/><path d="M222.304 566.424c32.396-3.806 56.907-21.793 54.748-40.174-2.16-18.381-30.173-30.196-62.569-26.39-32.397 3.807-56.908 21.793-54.748 40.174 2.16 18.382 30.173 30.197 62.569 26.39z" fill="#5E3930"/><path opacity=".8" d="M288.27 635.85c26.38-1.19 46.8-23.55 45.6-49.93l-2.09-46.23c-1.19-26.38-23.551-46.8-49.931-45.6-26.38 1.19-46.799 23.55-45.599 49.93l2.089 46.23c1.19 26.38 23.551 46.8 49.931 45.6z" fill="#9B643D"/><path d="M299.83 638.75c26.38-1.19 46.8-23.55 45.6-49.93l-2.09-46.23c-1.19-26.38-23.55-46.8-49.93-45.6-26.38 1.19-46.8 23.55-45.6 49.93l2.09 46.23c1.2 26.38 23.55 46.8 49.93 45.6z" fill="#9B643D"/><path d="M280.51 505.77c-5.4 3.36-7.96 9.87-6.08 15.95 5.32 17.27 21.69 29.56 40.62 28.94 18.93-.62 34.459-13.95 38.649-31.53 1.47-6.19-1.5-12.52-7.11-15.52-9.9-5.3-21.289-8.13-33.319-7.74-12.05.39-23.23 3.96-32.76 9.9z" fill="#212121"/><path d="M276.16 578.77c11.7 26.17 45.19 23.95 54 0" stroke="#000" stroke-width="5.8433" stroke-miterlimit="10"/><path d="M190.71 329.89l41.58-11.17c5.65-1.52 8.16-8.11 4.96-13l-18.08-27.61c-3.17-4.85-10.14-5.23-13.82-.76l-27.23 33.08c-2.39 2.9-2.61 7.02-.56 10.17l3.73 5.7c2.03 3.11 5.83 4.56 9.42 3.59z" fill="#6BB4FD"/><path d="M182.849 335.04l-26.87 33.64c-3.65 4.57-10.7 4.24-13.9-.66l-18.08-27.62c-3.17-4.85-.74-11.38 4.84-12.97l41.21-11.73c3.62-1.03 7.48.41 9.54 3.56l3.73 5.7c2.04 3.11 1.85 7.17-.47 10.08z" fill="#6BB4FD"/><path d="M181.319 342.1c10.704 0 19.38-8.677 19.38-19.38s-8.676-19.38-19.38-19.38c-10.703 0-19.38 8.677-19.38 19.38s8.677 19.38 19.38 19.38z" fill="#F9D232"/><path d="M182.52 735.76c61.56 19.62 136.429 50.56 238.709-36.09" stroke="#F8C329" stroke-width="77.1586" stroke-miterlimit="10" stroke-dasharray="334.84 334.84"/><path d="M182.52 735.76c61.56 19.62 136.429 50.56 238.709-36.09" stroke="#F8C329" stroke-width="77.159" stroke-miterlimit="10" stroke-linecap="round"/><path d="M478.929 650.94l-.47 25.2 24.94 3.68-57.76 48.93-48.94-57.76 57.76-48.93-.47 25.2 24.94 3.68z" fill="#4E342E"/><path d="M249.439 344.6l-48.84-65.2-15.49 63.35 64.33 1.85z" fill="#5E3930"/><path d="M274.289 322.67l-20.85-38.33-43.48 36.49 64.33 1.84z" fill="#5E3930"/><path d="M445.45 733.79s-8.9-60.04-48.44-61.99l48.44 61.99z" fill="#6BB4FD"/><path d="M458.141 730.057c-.02.31-.04.63-.09.94-.05.31-.11.62-.18.92-.08.3-.17.61-.27.9-.11.3-.23.58-.36.86-.13.28-.28.56-.44.83-.16.27-.33.53-.52.78-.18.25-.38.5-.59.73-.21.23-.44.46-.67.67-.23.21-.48.41-.73.6-.25.18-.52.36-.78.52-.27.16-.55.31-.83.44-.28.13-.57.25-.86.36-.3.1-.6.19-.9.27-.3.08-.61.14-.93.19-.3.04-.62.07-.93.09-.31.02-.63.01-.94 0-.31-.02-.63-.04-.94-.09-.3-.05-.62-.11-.92-.18-.3-.08-.61-.17-.9-.28-.3-.11-.58-.22-.87-.36-.28-.13-.56-.28-.83-.44-.27-.16-.53-.33-.78-.52-.25-.18-.5-.38-.73-.59-.23-.21-.46-.43-.67-.67-.21-.23-.41-.48-.6-.73-.18-.25-.36-.51-.52-.78-.16-.26-.31-.55-.44-.83-.13-.28-.25-.57-.36-.87-.1-.29-.2-.59-.27-.9-.08-.3-.14-.61-.19-.92-.04-.31-.07-.62-.09-.93-.03-.63 0-1.26.09-1.88.05-.31.11-.62.18-.93.08-.3.17-.6.28-.9.1-.29.23-.58.36-.87.13-.28.28-.56.44-.82.16-.27.33-.53.52-.79.18-.25.38-.49.59-.72.21-.24.43-.46.67-.67.23-.21.48-.41.73-.6.25-.18.51-.36.78-.52.26-.16.55-.31.83-.44.28-.14.58-.25.87-.36.29-.11.59-.2.9-.28.3-.08.61-.14.92-.18.31-.04.63-.08.93-.09.32-.02.63-.02.94-.01.31.02.63.05.94.1.31.04.62.11.92.18.3.07.61.17.9.27.29.11.58.23.86.36.28.13.56.28.82.44.27.16.53.33.79.52.25.19.49.39.72.6.23.21.46.43.67.67.21.23.41.47.6.73.18.25.36.51.52.78.16.27.31.55.44.83.13.28.25.57.36.86.1.29.2.6.28.9.07.3.13.61.18.92.04.31.07.63.09.94.03.32.03.63.01.95z" fill="#6BB4FD"/><path d="M443.28 722.33c-4.98 1.78-10.46-.82-12.23-5.81-1.77-4.98.83-10.46 5.81-12.22 4.98-1.78 10.459.83 12.219 5.81h.011c.43 1.21.6 2.46.54 3.68-.18 3.75-2.59 7.21-6.35 8.54zm-7.19-20.03c-4.47 2.82-10.38 1.5-13.2-2.97-2.83-4.47-1.5-10.38 2.97-13.21 4.47-2.83 10.379-1.5 13.209 2.97 1.1 1.73 1.571 3.67 1.471 5.58-.15 3.01-1.71 5.9-4.45 7.63zm-11.511-18.11c-3.05 4.32-9.019 5.35-13.339 2.3s-5.35-9.02-2.31-13.34c3.05-4.32 9.02-5.35 13.34-2.3 2.78 1.96 4.19 5.14 4.04 8.3-.07 1.75-.641 3.5-1.731 5.04z" fill="#6BB4FD"/><path d="M411.151 669.057c-.02.31-.05.63-.1.94-.05.31-.11.62-.18.92-.08.3-.17.61-.27.9-.11.3-.23.58-.36.86-.13.28-.28.56-.44.83-.16.27-.33.53-.52.78-.18.25-.38.5-.59.73-.21.23-.43.46-.67.67-.23.21-.48.41-.73.6-.25.18-.51.36-.78.52-.27.16-.55.31-.83.44-.28.13-.57.25-.86.36-.29.1-.6.2-.9.27-.3.08-.61.14-.93.19-.31.04-.62.07-.93.09-.31.02-.63.01-.94 0-.31-.02-.63-.04-.94-.09-.3-.05-.62-.11-.92-.18-.3-.08-.61-.17-.9-.28-.3-.1-.58-.22-.87-.36-.28-.13-.56-.28-.83-.44-.27-.16-.53-.33-.78-.52-.25-.18-.5-.38-.73-.59-.23-.21-.46-.44-.67-.67-.21-.23-.41-.48-.6-.73-.18-.25-.36-.52-.52-.78-.16-.26-.31-.55-.44-.83-.13-.28-.25-.57-.36-.87-.1-.29-.2-.59-.27-.9-.08-.3-.14-.61-.19-.92-.04-.31-.07-.62-.09-.93-.03-.63 0-1.26.09-1.88.05-.31.11-.62.18-.93.08-.3.17-.6.28-.9.1-.29.22-.58.36-.87.13-.28.28-.56.44-.82.16-.27.33-.53.52-.79.18-.25.38-.49.59-.72.21-.24.43-.46.67-.67.23-.21.48-.41.73-.6.25-.18.51-.36.78-.52.26-.16.54-.31.83-.44.28-.13.58-.25.87-.36.29-.11.59-.2.9-.28.3-.08.61-.14.92-.18.31-.04.63-.08.93-.09.32-.02.63-.02.94-.01.31.02.63.05.94.1.31.04.62.11.92.18.3.07.61.17.9.27.29.11.58.22.86.36.28.13.56.28.82.44.27.16.53.33.79.52.25.19.49.39.72.6.23.21.46.43.67.67.21.23.42.47.6.73.18.25.36.51.52.78.16.27.31.55.44.83.13.28.25.57.36.86.1.29.2.6.28.9.08.3.13.62.18.92.04.31.07.63.09.94.03.32.03.64.02.95z" fill="#6BB4FD"/><path d="M1356.07 109.59c3.77 0 6.82-3.053 6.82-6.82 0-3.7666-3.05-6.82-6.82-6.82-3.77 0-6.82 3.0534-6.82 6.82 0 3.767 3.05 6.82 6.82 6.82z" fill="#fff"/><path d="M719.15 129.07c3.767 0 6.82-3.053 6.82-6.82 0-3.767-3.053-6.82-6.82-6.82-3.766 0-6.82 3.053-6.82 6.82 0 3.767 3.054 6.82 6.82 6.82z" fill="#7000FF"/></g></g><defs><clipPath id="clip0"><path fill="#fff" d="M0 0h1440v1024H0z"/></clipPath><clipPath id="clip1"><path fill="#fff" d="M-1245-689h4440.6v2312.47H-1245z"/></clipPath><linearGradient id="paint0_linear" x1="2953.63" y1="726.627" x2="-1244.45" y2="726.627" gradientUnits="userSpaceOnUse"><stop offset=".3606" stop-color="#5C01E4"/><stop offset="1" stop-color="#5C01E4" stop-opacity=".3"/></linearGradient></defs></svg>