<svg width="114" height="164" viewBox="0 0 114 164" fill="none" xmlns="http://www.w3.org/2000/svg">
<path d="M51.6649 132.8L45.6649 130.2C44.4649 129.7 43.1649 130.2 42.6649 131.4C41.4649 134.2 39.4649 139.4 37.9649 144.4C36.5649 149.3 36.5649 156.5 36.8649 161.2C37.0649 163.1 39.0649 164.1 40.5649 162.9C44.1649 160 49.6649 155.2 52.3649 151C55.1649 146.5 57.6649 141.5 58.9649 138.8C59.4649 137.6 59.0649 136.3 57.7649 135.8L51.6649 132.8Z" fill="#332E2E"/>
<path d="M47.2642 146.3L44.0642 145.2C42.8642 144.8 42.1642 143.5 42.5642 142.3C42.9642 141.1 44.2642 140.4 45.4642 140.8L48.6642 141.9C49.8642 142.3 50.5642 143.6 50.1642 144.8C49.7642 146.1 48.5642 146.6 47.2642 146.3Z" fill="#F9CE1D"/>
<path d="M66.0642 130.8L71.1642 126.6C72.1642 125.8 73.5642 126 74.3642 126.9C76.2642 129.2 79.6642 133.7 82.3642 138.2C84.9642 142.5 86.9642 149.5 87.8642 154C88.2642 155.8 86.4642 157.3 84.7642 156.6C80.4642 154.8 73.8642 151.7 70.1642 148.3C66.2642 144.7 62.4642 140.6 60.5642 138.3C59.6642 137.4 59.7642 135.9 60.7642 135.1L66.0642 130.8Z" fill="#332E2E"/>
<path d="M70.764 142.1C70.064 141.1 70.264 139.6 71.464 139L74.264 137.1C75.264 136.4 76.7639 136.6 77.3639 137.8C78.0639 138.9 77.864 140.3 76.664 140.9L73.8639 142.8C72.7639 143.3 71.464 143.1 70.764 142.1Z" fill="#F9CE1D"/>
<path d="M80.164 108.1L80.864 113.4C81.064 114.3 81.064 115 81.064 115.8C81.564 128.2 72.564 139.2 59.864 140.9C53.164 141.8 46.764 139.9 41.764 136.1C37.464 132.8 34.064 127.9 32.764 122.3C32.564 121.6 32.464 120.8 32.264 120L31.564 114.7C31.064 110.8 31.464 107 32.664 103.5C35.664 95.2 43.064 88.5 52.664 87.2C62.264 85.9 71.1641 90.3 76.2641 97.8C78.2641 100.7 79.564 104.3 80.164 108.1Z" fill="#3399FF"/>
<path d="M58.2641 129.5C48.0641 130.9 36.0641 125.2 31.6641 116.2L32.1641 120.1C32.3641 120.9 32.3641 121.7 32.6641 122.4C38.1641 130.9 48.264 135.8 58.9641 134.3C69.6641 132.8 77.8641 125.3 81.0641 115.7C81.0641 114.9 80.964 114.1 80.864 113.3L80.364 109.4C78.564 119.6 68.5641 128.1 58.2641 129.5Z" fill="#332F2E"/>
<path d="M62.8641 128.5L63.5641 133.5C62.1641 133.9 60.6641 134.2 59.2641 134.4C57.7641 134.6 56.2641 134.7 54.8641 134.7L54.1641 129.7C55.5641 129.9 57.0641 129.7 58.5641 129.5C60.0641 129.2 61.5641 128.9 62.8641 128.5Z" fill="#F9CE1D"/>
<path d="M91.5648 124.3C92.2648 118.4 97.6648 114.3 103.665 114.9C109.565 115.6 113.665 121 113.065 127C112.365 132.9 106.965 137 100.965 136.4C94.8648 135.6 90.6648 130.2 91.5648 124.3Z" fill="#FADCBC"/>
<path d="M83.3652 116.4C84.2652 108.8 91.2652 103.4 98.8652 104.4C106.465 105.3 111.865 112.3 110.865 119.9C109.965 127.5 102.965 132.9 95.3652 131.9C87.7652 130.9 82.4652 124.1 83.3652 116.4Z" fill="white"/>
<path d="M97.1645 125.1C95.3645 125.1 93.5645 124.4 92.2645 123.1C85.3645 116.1 80.3645 112.5 71.8645 112.4C68.0645 112.3 65.0645 109.2 65.1645 105.4C65.2645 101.7 68.2645 98.7002 71.9645 98.7002H72.0645C86.5645 98.9002 95.0645 106.4 102.065 113.5C104.665 116.2 104.665 120.5 101.965 123.2C100.665 124.4 98.9645 125.1 97.1645 125.1Z" fill="#3399FF"/>
<path d="M13.2653 144C7.46535 145.3 1.56535 141.7 0.265349 135.9C-1.03465 130.1 2.56535 124.2 8.36535 122.9C14.1654 121.6 20.0654 125.2 21.3654 131C22.7654 136.8 19.1653 142.6 13.2653 144Z" fill="#FADCBC"/>
<path d="M18.3639 139C10.8639 140.8 3.3639 136.1 1.6639 128.7C-0.136102 121.2 4.56389 113.7 11.9639 112C19.4639 110.2 26.9639 114.9 28.6639 122.3C30.3639 129.8 25.7639 137.2 18.3639 139Z" fill="white"/>
<path d="M10.8644 130.9C7.86438 128.6 7.46437 124.3 9.76437 121.3C15.9644 113.6 23.7644 105.2 38.0644 103.5H38.1644C41.8644 103.1 45.1644 105.8 45.6644 109.5C46.1644 113.3 43.4644 116.6 39.6644 117.1C31.2644 118 26.5644 122.1 20.4644 129.8C19.2644 131.2 17.5644 132.1 15.8644 132.3C14.0644 132.5 12.2644 132 10.8644 130.9Z" fill="#3399FF"/>
<path opacity="0.3" d="M81.2652 90.0003C79.0652 73.4003 65.0652 61.8003 50.0652 63.8003C35.0652 65.8003 24.6652 80.8003 26.9652 97.3003C29.1652 113.8 43.1652 125.4 58.1652 123.4C73.1652 121.5 83.5652 106.5 81.2652 90.0003Z" fill="#332F2E"/>
<path d="M42.6645 20.3001C48.2645 20.3001 52.7645 15.8001 52.7645 10.2001C52.7645 4.6001 48.2645 0.100098 42.6645 0.100098C37.0645 0.100098 32.5645 4.6001 32.5645 10.2001C32.5645 15.7001 37.0645 20.3001 42.6645 20.3001Z" fill="white"/>
<path d="M80.6645 73.6001L44.0645 20.1001L23.0645 81.5001L80.6645 73.6001Z" fill="#3399FF"/>
<path d="M80.2642 80.8999C76.6642 81.3999 73.0642 79.4999 71.4642 76.0999C67.5642 67.8999 59.0642 63.2999 50.1642 64.4999C41.1642 65.6999 34.2642 72.4999 32.6642 81.3999C31.8642 85.9999 27.4642 89.0999 22.8642 88.3999C18.2642 87.5999 15.1642 83.1999 15.8642 78.5999C18.6642 62.3999 31.4642 49.8999 47.7642 47.6999C64.1642 45.4999 79.7642 53.9999 86.7642 68.9999C88.7642 73.2999 86.9642 78.3999 82.6642 80.2999C81.9642 80.4999 81.0642 80.7999 80.2642 80.8999Z" fill="white"/>
<path d="M89.1651 66.2998L76.4651 82.9998C75.2651 84.4998 74.6651 86.5998 74.9651 88.6998C75.4651 92.8998 79.3651 95.7998 83.6651 95.2998C85.7651 94.9998 87.5651 93.8998 88.7651 92.3998C96.5651 81.8998 89.1651 66.2998 89.1651 66.2998Z" fill="#FADCBC"/>
<path d="M29.6641 89.4002L12.964 76.7002C12.964 76.7002 9.96405 93.7002 20.3641 101.6C21.8641 102.8 23.9641 103.4 26.064 103.1C30.264 102.6 33.1641 98.7002 32.6641 94.4002C32.2641 92.4002 31.2641 90.6002 29.6641 89.4002Z" fill="#FADCBC"/>
<path d="M53.7637 91.5C56.3637 110.3 71.6637 123.7 84.5637 122L87.4637 105.4C88.5637 99.3 88.6637 93.1 87.7637 87L53.7637 91.5Z" fill="#584539"/>
<path d="M53.7641 91.5C56.3641 110.3 45.1641 127.3 32.1641 129.1L24.9641 113.9C22.3641 108.3 20.5641 102.4 19.6641 96.2L53.7641 91.5Z" fill="#584539"/>
<path d="M19.7643 96.2002C17.1643 77.4002 30.3643 60.1002 49.1643 57.6002C67.9643 55.0002 85.2643 68.2002 87.7643 87.0002L19.7643 96.2002Z" fill="#584539"/>
<path d="M53.7637 120.6C69.7637 120.6 82.7637 107.6 82.7637 91.6001C82.7637 75.6001 69.7637 62.6001 53.7637 62.6001C37.7637 62.6001 24.7637 75.6001 24.7637 91.6001C24.7637 107.6 37.7637 120.6 53.7637 120.6Z" fill="#FADCBC"/>
<path d="M47.364 85.6002C47.964 88.8002 45.864 91.9002 42.664 92.4002C39.464 93.0002 36.364 90.9002 35.864 87.7002C35.264 84.5002 37.364 81.4002 40.564 80.9002C43.764 80.3002 46.864 82.5002 47.364 85.6002Z" fill="#332F2E"/>
<path d="M70.4636 81.4C71.0636 84.6 68.9636 87.7 65.7636 88.2C62.5636 88.8 59.4636 86.7 58.9636 83.5C58.3636 80.3 60.4637 77.2 63.6637 76.7C66.7637 76.1 69.8636 78.3 70.4636 81.4Z" fill="#332F2E"/>
<path d="M76.766 103.702C72.966 94.8016 62.666 90.6016 53.766 94.4016C44.866 98.2016 40.666 108.502 44.466 117.402L76.766 103.702Z" fill="white"/>
<path d="M78.2639 83.7002C79.3639 87.1002 76.5639 90.9002 72.0639 92.4002C67.4639 93.9002 63.0639 92.3002 61.9639 89.1002C60.8639 85.7002 63.6639 81.9002 68.1639 80.4002C72.6639 78.9002 77.1639 80.4002 78.2639 83.7002Z" fill="#FADCBC"/>
<path d="M46.7639 90C47.8639 93.4 45.0639 97.2 40.5639 98.7C35.9639 100.2 31.5639 98.6 30.4639 95.4C29.3639 92 32.1639 88.2 36.6639 86.7C41.1639 85.2 45.6639 86.7 46.7639 90Z" fill="#FADCBC"/>
<path d="M25.3648 95.3001C23.3648 98.4001 24.2648 102.6 27.2648 104.6C30.3648 106.7 34.4648 105.8 36.5648 102.7C36.9648 102.1 37.2648 101.5 37.3648 101C37.4648 100.5 37.5648 100.1 37.6648 99.6001C37.7648 99.4001 37.6648 99.2001 37.7648 99.0001L38.2648 88.1001L28.3648 92.8001C28.0648 92.9001 27.9648 92.9001 27.7648 93.1001C27.3648 93.4001 27.0648 93.6001 26.6648 93.9001C26.0648 94.3001 25.6648 94.8001 25.3648 95.3001Z" fill="#6BB4FD"/>
<path d="M80.864 81.8002C84.164 83.3002 85.864 87.3002 84.364 90.6002C82.964 94.1002 79.0641 95.5002 75.5641 94.1002C74.8641 93.9002 74.364 93.4002 73.9641 93.1002C73.5641 92.8002 73.3641 92.4002 72.9641 92.1002C72.7641 92.0002 72.6641 91.7002 72.5641 91.6002L66.1641 82.8002L76.9641 81.3002C77.2641 81.2002 77.3641 81.2002 77.6641 81.2002C78.0641 81.2002 78.5641 81.2002 78.9641 81.2002C79.7641 81.4002 80.364 81.5002 80.864 81.8002Z" fill="#6BB4FD"/>
<path d="M59.1641 62.3998C43.3641 59.3998 28.2641 69.6998 25.1641 85.3998C40.9641 88.3998 56.0641 78.0998 59.1641 62.3998Z" fill="#584539"/>
</svg>
