<svg width="78" height="100" viewBox="0 0 78 100" fill="none" xmlns="http://www.w3.org/2000/svg">
<path d="M34.0561 80.0383L30.1216 77.5887C29.3679 77.1214 28.3729 77.3626 27.9207 78.1314C26.8429 79.9629 24.9133 83.3623 23.3983 86.7465C21.9511 89.965 21.318 95.0602 21.0467 98.2786C20.9411 99.5675 22.3355 100.434 23.4435 99.771C26.2097 98.1128 30.4985 95.2863 32.7521 92.5729C35.1188 89.7162 37.3197 86.4903 38.488 84.7115C38.9779 83.9653 38.7594 82.9703 37.9981 82.503L34.0561 80.0383Z" fill="#332E2E"/>
<path d="M29.8055 89.0303L27.6725 87.9826C26.8886 87.5982 26.5645 86.6485 26.9489 85.8646C27.3333 85.0807 28.283 84.7566 29.0669 85.141L31.1999 86.1887C31.9838 86.5731 32.3079 87.5228 31.9235 88.3067C31.5391 89.0906 30.5894 89.4147 29.8055 89.0303Z" fill="#F9CE1D"/>
<path d="M44.2988 80.0383L48.2333 77.5887C48.987 77.1214 49.9819 77.3626 50.4342 78.1314C51.512 79.9629 53.4416 83.3623 54.9566 86.7465C56.4037 89.965 57.0369 95.0602 57.3082 98.2786C57.4137 99.5675 56.0193 100.434 54.9113 99.771C52.1452 98.1128 47.8564 95.2863 45.6028 92.5729C43.236 89.7162 41.0351 86.4903 39.8669 84.7115C39.3769 83.9653 39.5955 82.9703 40.3568 82.503L44.2988 80.0383Z" fill="#332E2E"/>
<path d="M46.4313 88.3067C46.0469 87.5228 46.371 86.5731 47.1549 86.1887L49.288 85.141C50.0718 84.7566 51.0215 85.0807 51.4059 85.8646C51.7903 86.6485 51.4662 87.5982 50.6824 87.9826L48.5493 89.0303C47.7654 89.4147 46.8157 89.0906 46.4313 88.3067Z" fill="#F9CE1D"/>
<path d="M56.3367 65.665V69.4111C56.3367 69.9764 56.3141 70.5417 56.2538 71.0994C55.4096 79.7824 48.0833 86.5736 39.1742 86.5736C34.4408 86.5736 30.1445 84.6516 27.0391 81.5462C24.3106 78.8101 22.4941 75.1621 22.0946 71.0994C22.0419 70.5492 22.0117 69.9839 22.0117 69.4111V65.665C22.0117 62.9139 22.6599 60.3211 23.8056 58.0147C26.617 52.3767 32.4434 48.5026 39.1742 48.5026C45.905 48.5026 51.7238 52.3767 54.5428 58.0147C55.6885 60.3211 56.3367 62.9215 56.3367 65.665Z" fill="#FF4081"/>
<path d="M54.5428 58.0149C54.5729 58.4219 54.588 58.8289 54.588 59.2435V62.9895C54.588 71.4841 47.6763 78.3958 39.1742 78.3958C30.6721 78.3958 23.7604 71.4841 23.7604 62.9895V59.2435C23.7604 58.8289 23.7755 58.4219 23.8056 58.0149C22.6599 60.3213 22.0117 62.9142 22.0117 65.6653V69.4113C22.0117 69.9766 22.0343 70.5419 22.0946 71.0997C25.1322 77.4838 31.6444 81.9007 39.1742 81.9007C46.704 81.9007 53.2162 77.4838 56.2538 71.0997C56.3065 70.5495 56.3367 69.9842 56.3367 69.4113V65.6653C56.3367 62.9217 55.6885 60.3213 54.5428 58.0149Z" fill="#332F2E"/>
<path d="M42.2646 78.0864V81.644C41.2621 81.8099 40.2295 81.9003 39.1743 81.9003C38.1191 81.9003 37.0864 81.8099 36.084 81.644V78.0864C37.0864 78.2899 38.1191 78.3955 39.1743 78.3955C40.237 78.403 41.2697 78.2899 42.2646 78.0864Z" fill="#F9CE1D"/>
<path opacity="0.3" d="M60.0823 52.6484C60.0823 41.2745 50.8642 32.0564 39.4904 32.0564C28.1166 32.0564 18.8984 41.2745 18.8984 52.6484C18.8984 64.0222 28.1166 73.2403 39.4904 73.2403C50.8642 73.2403 60.0823 64.0222 60.0823 52.6484Z" fill="#332F2E"/>
<path d="M14.8509 65.1533C15.9287 61.1284 13.5394 56.9828 9.51447 55.905C5.48954 54.8272 1.34401 57.2165 0.25864 61.2414C-0.819196 65.2664 1.57013 69.4119 5.59506 70.4897C9.62753 71.5675 13.7655 69.1782 14.8509 65.1533Z" fill="#FADCBC"/>
<path d="M22.1623 62.1976C23.5568 57.0044 20.474 51.668 15.2808 50.2736C10.0876 48.8792 4.75114 51.962 3.35674 57.1552C1.96233 62.3484 5.0451 67.6848 10.2383 69.0792C15.4315 70.4736 20.7679 67.3909 22.1623 62.1976Z" fill="white"/>
<path d="M32.4361 58.1052C24.846 55.1053 18.8312 57.0424 12.7637 59.6805" stroke="#FF4081" stroke-width="9.59493" stroke-miterlimit="10" stroke-linecap="round"/>
<path d="M62.5243 77.9205C63.6021 73.8956 67.7401 71.5062 71.7726 72.5841C75.7975 73.6619 78.1944 77.7999 77.109 81.8324C76.0311 85.8573 71.8932 88.2466 67.8607 87.1688C63.8358 86.091 61.4464 81.953 62.5243 77.9205Z" fill="#FADCBC"/>
<path d="M57.6634 71.7106C59.0578 66.5174 64.3942 63.4346 69.5874 64.829C74.7806 66.2234 77.8634 71.5599 76.469 76.7531C75.0746 81.9463 69.7382 85.029 64.5449 83.6346C59.3517 82.2402 56.269 76.9038 57.6634 71.7106Z" fill="white"/>
<path d="M50.8184 63.0271C58.8984 64.2255 63.1343 68.9137 67.0688 74.2276" stroke="#FF4081" stroke-width="9.59493" stroke-miterlimit="10" stroke-linecap="round"/>
<path d="M60.0823 51.8345C60.0823 40.4607 50.8642 31.2426 39.4904 31.2426C28.1166 31.2426 18.8984 40.4607 18.8984 51.8345C18.8984 63.2083 28.1166 72.4265 39.4904 72.4265C50.8642 72.4265 60.0823 63.2083 60.0823 51.8345Z" fill="#FADCBC"/>
<path d="M35.2464 61.4665C35.2464 63.7729 33.3771 65.5819 31.131 65.5819C28.8246 65.5819 27.0156 63.7126 27.0156 61.4665C27.0156 59.1601 28.8849 57.3511 31.131 57.3511C33.3771 57.3436 35.2464 59.2204 35.2464 61.4665Z" fill="#332E2E"/>
<path d="M51.7835 61.4665C51.7835 63.7729 49.9142 65.5819 47.6681 65.5819C45.3617 65.5819 43.5527 63.7126 43.5527 61.4665C43.5527 59.1601 45.422 57.3511 47.6681 57.3511C49.9142 57.3436 51.7835 59.2204 51.7835 61.4665Z" fill="#332E2E"/>
<path d="M39.241 58.3465C43.5448 58.3465 47.5396 55.7914 50.8485 53.4774C47.5396 51.2313 43.5448 51.7288 39.241 51.7288C34.9372 51.7288 33.3619 50.8771 30.0605 53.1835C33.3619 55.4296 34.9372 58.3465 39.241 58.3465Z" fill="#584539"/>
<path d="M65.2689 38.0404C65.2689 38.0404 68.932 59.1072 57.2793 56.6425L59.3294 46.2862L65.2689 38.0404Z" fill="#FADCBC"/>
<path d="M13.6376 38.0404C13.6376 38.0404 9.97451 59.1072 21.6272 56.6425L19.5771 46.2862L13.6376 38.0404Z" fill="#FADCBC"/>
<path d="M30.4457 50.8542C30.4457 50.8542 27.3327 53.6732 24.0389 53.5601C20.7451 53.4395 27.9734 56.854 33.144 54.0275C33.144 54.0275 30.2648 56.6128 28.3804 56.967C26.5036 57.3213 41.0281 60.2834 45.2037 56.5223C49.3869 52.7612 30.4457 50.8542 30.4457 50.8542Z" fill="#584539"/>
<path d="M60.7085 39.7971C60.7085 30.8503 51.2115 23.6069 39.491 23.6069C27.7705 23.6069 18.2734 30.8578 18.2734 39.7971C18.2734 48.7439 27.7705 55.9873 39.491 55.9873C51.2115 55.9873 60.7085 48.7439 60.7085 39.7971Z" fill="white"/>
<path d="M39.4893 51.0807C45.5342 51.0807 50.8782 48.8497 54.1645 44.2971C57.4281 39.7747 56.6744 34.3856 54.6092 29.2074C53.471 26.3583 51.843 23.7353 49.8531 21.3988L39.4893 9.20337L29.1255 21.3988C27.1432 23.7353 25.5076 26.3583 24.3695 29.2074C22.3042 34.3856 21.5505 39.7747 24.8142 44.2971C28.1004 48.8421 33.4444 51.0807 39.4893 51.0807Z" fill="#FF4081"/>
<path d="M46.0103 65.9066C46.0103 69.5095 43.0933 72.4264 39.4905 72.4264C35.8876 72.4264 32.9707 69.5095 32.9707 65.9066H46.0103Z" fill="white"/>
<path d="M39.6859 17.6449C44.5625 17.6449 48.5121 13.6953 48.5121 8.81866C48.5121 3.94955 44.5625 0 39.6859 0C34.8092 0 30.8672 3.94956 30.8672 8.8262C30.8672 13.6953 34.8167 17.6449 39.6859 17.6449Z" fill="white"/>
</svg>
