<svg xmlns="http://www.w3.org/2000/svg" viewBox="0 0 39.88 38.74"><defs><style>.cls-1,.cls-7{fill:none;stroke-miterlimit:10}.cls-1{stroke:#979797;stroke-width:2.28px}.cls-1,.cls-7{stroke-linecap:round}.cls-2{fill:#22b0e6}.cls-4{fill:#774d2e}.cls-6{fill:#ffe14d}.cls-7{stroke:#ffe14d;stroke-width:1.85px}.cls-8{fill:#332e2e}.cls-9{fill:#f9ce1d}.cls-10{fill:#9b643d}.cls-11{fill:#fff}</style></defs><g id="grid"><path class="cls-1" d="M9.14 31.9v5.4m22-5.4v5.4"/><path class="cls-2" d="M35.44 24.6h-20c-3.3 0-8.8 2.7-10 7.5h30z"/><path d="M5.44 32.1a11.08 11.08 0 0 0-.2 1.9h30.2v-1.9z" fill="#333"/><path class="cls-1" d="M16.84 33.9a3.69 3.69 0 0 1-3.7 3.7h-8.3a3.69 3.69 0 0 1-3.7-3.7m37.6 0A3.69 3.69 0 0 1 35 37.6h-8.3a3.69 3.69 0 0 1-3.7-3.7"/><path class="cls-2" d="M11.84 28.4v-5.1a4.53 4.53 0 0 1 4.3-4.8v8.9"/><path class="cls-4" d="M26.2 11a2.92 2.92 0 0 0-4.43-3.81z"/><path fill="#32a558" d="M25.98 24.37h-3.2l1.6-9.71 1.6 9.71z"/><path class="cls-6" d="M24.38 25.33c2.71 0 4.52-.71 4.52-3.49 0-3.68-1.52-8.1-4.52-8.1s-4.52 4.42-4.52 8.1c0 2.78 1.81 3.49 4.52 3.49z"/><path class="cls-7" d="M24.4 24.37c-2 .37-4.93 1.08-4.91 3.3"/><path class="cls-8" d="M15.26 28.66a1.87 1.87 0 0 0 1.88 1.85 1.44 1.44 0 0 0 1.43-1.46v-1.38h1.85v4.21a.48.48 0 0 1-.48.48h-4.62a1.89 1.89 0 0 1-1.92-1.78 1.85 1.85 0 0 1 1.86-1.92z"/><path class="cls-9" d="M18.58 29.54h.72a.48.48 0 1 0 0-1h-.72a.49.49 0 0 0 0 1z"/><path class="cls-8" d="M28.89 21.28h-9a15.19 15.19 0 0 1 .11-1.64h8.68a15.19 15.19 0 0 1 .21 1.64z"/><path class="cls-9" transform="rotate(-180 19.985 20.455)" d="M19.67 19.64h.62v1.64h-.62z"/><circle class="cls-10" cx="24.38" cy="10.13" r="3.61"/><path class="cls-8" d="M22.39 9.19a.67.67 0 1 0 .66-.67.67.67 0 0 0-.66.67z"/><path class="cls-4" d="M24.75 9.76a4.94 4.94 0 0 1 .44-3.18A3.67 3.67 0 0 1 28 9.35a3.64 3.64 0 0 1-1.12 3.36 4.65 4.65 0 0 1-2.13-2.95z"/><path class="cls-4" d="M24.77 9.3a4.6 4.6 0 0 1-1.32-2.82A3.06 3.06 0 0 1 27 7a3.28 3.28 0 0 1 1.09 3.17 4.19 4.19 0 0 1-3.32-.87z"/><path class="cls-11" d="M20.8 10.64h2.06a1.92 1.92 0 0 1-1.26 1.77 3 3 0 0 1-.8-1.77z"/><path class="cls-7" d="M24.44 15.05l-6.7 3.56"/><circle class="cls-10" cx="16.29" cy="19.38" r="1.64"/><path class="cls-11" d="M19.07 19.4L17.7 17a.77.77 0 0 0-1.34.76l1.37 2.42a.77.77 0 1 0 1.34-.76z"/><path class="cls-10" d="M21 9.26l-2.68.74c-.28 0-.28.42.13.42h3.15z"/><path class="cls-4" d="M23.7 6.22s-1.45.41-1.79 1.11a1.74 1.74 0 0 0 1.79-.22z"/><path class="cls-6" d="M28.65 9.36l1.38-5.21L24.1 5.8l4.55 3.56z"/><path class="cls-11" d="M28.54 10.22a.77.77 0 0 0 .58-1.37l-4.66-3.71a.77.77 0 0 0-1.08.12.77.77 0 0 0 .12 1.08l4.66 3.71a.77.77 0 0 0 .38.17z"/><circle class="cls-11" cx="30.52" cy="3.58" r=".77"/><path class="cls-10" d="M26.25 7.68s.6 1.85-.45 2.9a.84.84 0 0 1-.61.26.87.87 0 0 1-.61-1.49z"/><path stroke="#f9ce1d" stroke-width=".23" fill="none" stroke-miterlimit="10" d="M25.37 10.59v.83"/></g></svg>