<svg xmlns="http://www.w3.org/2000/svg" viewBox="0 0 39.88 38.74"><defs><style>.cls-1,.cls-4{fill:none;stroke-linecap:round;stroke-miterlimit:10}.cls-1{stroke:#979797;stroke-width:2.28px}.cls-2{fill:#f73}.cls-4{stroke:#ad00ad;stroke-width:1.85px}.cls-5{fill:#332e2e}.cls-6{fill:#f9ce1d}.cls-7{fill:#ad00ad}.cls-8{fill:#bf8f68}.cls-9{fill:#fff}</style></defs><g id="grid"><path class="cls-1" d="M9.14 31.9v5.4m22-5.4v5.4"/><path class="cls-2" d="M35.44 24.6h-20c-3.3 0-8.8 2.7-10 7.5h30z"/><path d="M5.44 32.1a11.08 11.08 0 0 0-.2 1.9h30.2v-1.9z" fill="#333"/><path class="cls-1" d="M16.84 33.9a3.69 3.69 0 0 1-3.7 3.7h-8.3a3.69 3.69 0 0 1-3.7-3.7m37.6 0A3.69 3.69 0 0 1 35 37.6h-8.3a3.69 3.69 0 0 1-3.7-3.7"/><path class="cls-2" d="M11.84 28.4v-5.1a4.53 4.53 0 0 1 4.3-4.8v8.9"/><path class="cls-4" d="M25.28 24.42c-1.62.83-4.86-.71-4.86 5.07"/><path class="cls-5" d="M16.2 30.49a1.86 1.86 0 0 0 1.88 1.84 1.43 1.43 0 0 0 1.43-1.45v-1.39h1.85v4.2a.47.47 0 0 1-.47.49h-4.63a1.89 1.89 0 0 1-1.92-1.78 1.85 1.85 0 0 1 1.86-1.91z"/><path class="cls-6" d="M19.51 31.36h.73a.48.48 0 0 0 0-1h-.72a.49.49 0 0 0-.48.49.48.48 0 0 0 .47.51z"/><ellipse class="cls-7" cx="24.66" cy="19.28" rx="5.09" ry="6.09"/><path class="cls-5" d="M29.75 19.28v1H19.6v-1-.6h10.14c.01.2.01.4.01.6z"/><path class="cls-6" transform="rotate(-180 19.815 19.495)" d="M19.4 18.68h.82v1.64h-.82z"/><path class="cls-4" d="M17.74 17.45l6.92-2.87"/><circle class="cls-8" cx="16.23" cy="18.08" r="1.64"/><path class="cls-9" d="M19 18.44l-1.07-2.57a.77.77 0 1 0-1.42.59L17.57 19a.77.77 0 0 0 1.43-.56z"/><circle class="cls-8" cx="24.66" cy="9.58" r="3.61"/><path class="cls-5" d="M22.67 8.64a.67.67 0 1 0 .66-.64.67.67 0 0 0-.66.64z"/><path class="cls-8" d="M21.92 7.22l-2.19 2.39 1.34.01.85-2.4z"/><path class="cls-7" d="M28.24 9.55l1.18-5.26-5.86 1.88 4.68 3.38z"/><path class="cls-9" d="M28.16 10.41a.81.81 0 0 0 .7-.31.78.78 0 0 0-.17-1.1L23.9 5.5a.77.77 0 0 0-1.08.16.78.78 0 0 0 .18 1.08l4.8 3.52a.73.73 0 0 0 .36.15z"/><circle class="cls-9" cx="29.88" cy="3.7" r=".77"/><path class="cls-9" d="M21.12 10.22h2.16s-.22 1.52-1.52 1.52a3.32 3.32 0 0 1-.64-1.52z"/><path d="M20.81 9.77a.63.63 0 0 1 .3-.41.56.56 0 0 1 .49 0c.2.1.33.3.53.42a.67.67 0 0 0 .87-.2.94.94 0 0 1-.14.9 1.16 1.16 0 0 1-1.29.41 1 1 0 0 1-.76-1.12z" fill="#f6be1a"/><path class="cls-8" d="M24.54 9.15l1.56-1.68s.56 1.86-.42 2.9a.77.77 0 0 1-.57.26.84.84 0 0 1-.81-.87.86.86 0 0 1 .24-.61z"/></g></svg>