<svg xmlns="http://www.w3.org/2000/svg" viewBox="0 0 39.88 38.74"><defs><style>.cls-1,.cls-6{fill:none;stroke-linecap:round;stroke-miterlimit:10}.cls-1{stroke:#979797;stroke-width:2.28px}.cls-2{fill:#6f00ff}.cls-5{fill:#36c2d6}.cls-6{stroke:#36c2d6;stroke-width:1.73px}.cls-7{fill:#332e2e}.cls-8{fill:#f9ce1d}.cls-9{fill:#584539}.cls-10{fill:#fff}.cls-11{fill:#a04343}</style></defs><g id="grid"><path class="cls-1" d="M9.14 31.9v5.4m22-5.4v5.4"/><path class="cls-2" d="M35.44 24.6h-20c-3.3 0-8.8 2.7-10 7.5h30z"/><path d="M5.44 32.1a11.08 11.08 0 0 0-.2 1.9h30.2v-1.9z" fill="#333"/><path class="cls-1" d="M16.84 33.9a3.69 3.69 0 0 1-3.7 3.7h-8.3a3.69 3.69 0 0 1-3.7-3.7m37.6 0A3.69 3.69 0 0 1 35 37.6h-8.3a3.69 3.69 0 0 1-3.7-3.7"/><path class="cls-2" d="M11.84 28.4v-5.1a4.53 4.53 0 0 1 4.3-4.8v8.9"/><path fill="#32a558" d="M25.75 23.31h-3.2l1.6-8.17 1.6 8.17z"/><path class="cls-5" d="M24.15 14.22c-2.7 0-4.52 1.48-4.52 4.25 0 3.69 2.37 6.53 4.52 6.53s4.52-2.88 4.52-6.57c0-2.73-1.81-4.21-4.52-4.21z"/><path class="cls-6" d="M24.06 23.31c0 1.74-4.35.19-4.32 2.41"/><path class="cls-7" d="M15.52 26.73a1.87 1.87 0 0 0 1.89 1.84 1.44 1.44 0 0 0 1.43-1.46v-1.38h1.85v4.21a.49.49 0 0 1-.47.49l-4.63.06a1.89 1.89 0 0 1-1.93-1.77 1.87 1.87 0 0 1 1.86-1.99z"/><path class="cls-8" d="M18.84 27.59h.73a.48.48 0 0 0 .47-.49.47.47 0 0 0-.49-.47h-.72a.47.47 0 0 0-.47.49.48.48 0 0 0 .48.47z"/><path class="cls-7" d="M28 21.76h-7.7a8.36 8.36 0 0 1-.51-1.65h8.72a7.75 7.75 0 0 1-.51 1.65z"/><path class="cls-8" transform="rotate(-180 20.05 20.935)" d="M19.72 20.11h.67v1.64h-.67z"/><circle class="cls-9" cx="24.15" cy="10.6" r="3.61"/><path class="cls-7" d="M22.16 9.66a.67.67 0 1 0 .66-.66.67.67 0 0 0-.66.66z"/><path class="cls-6" d="M24.15 15.14l-7.14 3.96"/><circle class="cls-9" cx="16.22" cy="19.5" r="1.64"/><path class="cls-10" d="M19 19.61l-1.3-2.46a.78.78 0 0 0-1-.33.77.77 0 0 0-.32 1l1.3 2.47a.77.77 0 0 0 1.32-.68z"/><path class="cls-9" d="M21.74 7.83l-2.2 2.85h1.24l.96-2.85z"/><circle class="cls-11" cx="22.55" cy="7.32" r=".78"/><path class="cls-11" d="M22.55 8.1H22A1.56 1.56 0 1 1 22 5a.87.87 0 0 0-.31.67.89.89 0 0 0 .89.89z"/><path class="cls-5" d="M27.99 10.48l1.38-5.21-5.93 1.65 4.55 3.56z"/><path class="cls-10" d="M27.87 11.34a.8.8 0 0 0 .71-.29.77.77 0 0 0-.13-1.05L23.8 6.26a.77.77 0 0 0-1.08.12.76.76 0 0 0 .12 1.08l4.65 3.71a.76.76 0 0 0 .38.17z"/><circle class="cls-10" cx="29.85" cy="4.7" r=".77"/><path class="cls-9" d="M24.09 10l1.68-1.68s.6 1.86-.45 2.91a.83.83 0 0 1-.61.25.87.87 0 0 1-.87-.87.89.89 0 0 1 .25-.61z"/><path class="cls-10" d="M20.55 11h2.61a2.06 2.06 0 0 1-1.79 2 2.59 2.59 0 0 1-.82-2z"/></g></svg>