<?xml version="1.0" encoding="utf-8"?>
<!-- Generator: Adobe Illustrator 18.0.0, SVG Export Plug-In . SVG Version: 6.00 Build 0)  -->
<!DOCTYPE svg PUBLIC "-//W3C//DTD SVG 1.1//EN" "http://www.w3.org/Graphics/SVG/1.1/DTD/svg11.dtd">
<svg version="1.1" id="load-share" xmlns="http://www.w3.org/2000/svg" xmlns:xlink="http://www.w3.org/1999/xlink" x="0px" y="0px"
	 width="398.7px" height="341.7px" viewBox="0 0 398.7 341.7" enable-background="new 0 0 398.7 341.7" xml:space="preserve">
<g id="New_Symbol_40">
</g>
<g>
	<path fill="#039BE5" d="M95.1,291.6c-26,0-84.6-12.1-93.8-43.1c-2.2-7.3-2.6-18.6,7.6-30.9c6.7-8.1,17.3-15.7,32.4-23.2
		c7.6-3.8,17-0.8,20.8,6.9c3.8,7.6,0.8,17-6.9,20.8c-19.8,9.9-23.5,16.5-24.1,17.9c1.1,1.9,7.6,8.4,27,14.4
		c17.5,5.4,33.8,6.8,39.8,6.1c8.5-1,16.2,5.1,17.2,13.6c1,8.5-5.1,16.2-13.6,17.2C99.7,291.5,97.5,291.6,95.1,291.6z"/>
	<path fill="#0277BD" d="M255,339.8c-0.3,0-0.6,0-0.9,0c-26.6-0.5-45.1-21.7-57.3-35.8c-3.2-3.6-7.4-8.5-9.5-10.1
		c-7.5-2.2-12.3-9.7-10.9-17.5c1.4-8.4,9.4-14.1,17.9-12.7c10.1,1.7,17.1,9.8,25.9,19.9c9.6,11.1,21.7,24.9,34.5,25.1
		c0.1,0,0.2,0,0.4,0c9,0,19.4-6.3,31-18.6c5.9-6.2,15.7-6.6,21.9-0.7c6.2,5.9,6.6,15.7,0.7,21.9C290.9,330.3,272.9,339.8,255,339.8z
		"/>
	<path fill="#FFFFFF" d="M328.3,294.8c-1.2,13.1-12.7,22.8-25.8,21.6c-13.1-1.2-22.8-12.7-21.6-25.8c1.2-13.1,12.7-22.8,25.8-21.6
		C319.8,270.1,329.4,281.7,328.3,294.8z"/>
	<path fill="#0277BD" d="M149.7,255.8c-34.6-3.1-65.2,22.5-68.3,57.1l-2.3,25.8h108.5c2.9,0,4.9,1.2,6.2,3h11.4l1.6-17.6
		C210,289.5,184.4,258.9,149.7,255.8z"/>
	<polygon fill="#353535" points="66.6,341.7 93.7,309.7 86.1,300.6 51.2,341.7 	"/>
	<path fill="#039BE5" d="M179.3,338.7l1.5-16.9c3.1-34.6,3.5-62.9-31.1-66c-34.6-3.1-65.2,22.5-68.3,57.1l-2.3,25.8H179.3z"/>
	<path fill="#353535" d="M189.3,273.2c-4.2-4-8.9-7.4-14-10.1l-1.3,0.2l8.2,69.8l14-1.6L189.3,273.2z"/>
	<g>
		<g>
			<path fill="#0277BD" d="M246.8,154.6c0,0-68.3-104.2-108.6-137.5c0,0,42.8,78.2,9,102.1L246.8,154.6z"/>
			<path fill="#039BE5" d="M208.6,145c0,0-30.1-94.6-70.4-127.9c0,0,21.7,78-12.1,101.9L208.6,145z"/>
			<path fill="#FFE18C" d="M222.9,199.3L250,177c0,0-6.3,73.7-43,55.2L222.9,199.3z"/>
			<path opacity="0.31" fill="#FFE18C" d="M222.9,199.3L250,177c0,0-6.3,73.7-43,55.2L222.9,199.3z"/>
			<path fill="none" stroke="#959595" stroke-width="2.7316" stroke-linecap="round" stroke-miterlimit="10" d="M174.9,280.3"/>
			<path fill="#6C6C6C" d="M110,270.5c-0.1,0-0.2,0-0.3,0c-0.8-0.1-1.4-0.9-1.2-1.7c1.5-8.4,6.4-15.6,13.8-20.4
				c7.4-4.7,16.4-6.5,25.4-4.9c2.1,0.1,28.5,1.4,33.1,23.9c0.2,0.8-0.4,1.6-1.2,1.8c-0.8,0.2-1.6-0.4-1.8-1.2
				c-4.3-21-30.1-21.5-30.3-21.5l-0.2,0c-8.3-1.4-16.6,0.2-23.4,4.5c-6.7,4.3-11.2,10.9-12.5,18.4
				C111.4,269.9,110.8,270.5,110,270.5z"/>
			<path fill="#FFE18C" d="M225.8,209.6c-8.5,33.7-42.7,54.2-76.4,45.7l0,0c-33.7-8.5-54.2-42.7-45.7-76.4l0,0
				c8.5-33.7,42.7-54.2,76.4-45.7l0,0C213.8,141.7,234.3,175.9,225.8,209.6L225.8,209.6z"/>
			<ellipse fill="#FFFFFF" cx="132.8" cy="215.3" rx="11" ry="10.4"/>
			<polygon fill="#FFE18C" points="164.2,215.5 154.2,213 155.6,198.2 170,201.8 			"/>
			<path fill="#332E2E" d="M203.6,194.8l-1.9-0.5c0.7-2.6,0.3-5.4-1.1-7.8s-3.6-4-6.3-4.7c-2.7-0.7-5.4-0.3-7.8,1.1
				c-2.3,1.4-4,3.6-4.7,6.3l-1.9-0.5c0.8-3.2,2.8-5.8,5.6-7.5c2.8-1.7,6.1-2.2,9.3-1.4c3.2,0.8,5.8,2.8,7.5,5.6
				C203.9,188.3,204.4,191.6,203.6,194.8z"/>
			<path fill="#332E2E" d="M153.8,182.2l-1.9-0.5c1.4-5.5-2-11.1-7.4-12.4c-2.7-0.7-5.4-0.3-7.8,1.1c-2.3,1.4-4,3.6-4.7,6.3
				l-1.9-0.5c0.8-3.2,2.8-5.8,5.6-7.5c2.8-1.7,6.1-2.2,9.3-1.4C151.5,169,155.5,175.7,153.8,182.2z"/>
			<path fill="#FFFFFF" d="M245,168.3c-1.1,4.5-5.7,7.2-10.2,6.1l-121.3-30.5c-4.5-1.1-7.2-5.7-6.1-10.2l3.8-14.9
				c1.1-4.5,5.7-7.2,10.2-6.1l121.3,30.5c4.5,1.1,7.2,5.7,6.1,10.2L245,168.3z"/>
			<path fill="#FFFFFF" d="M121.2,10.2c-1.8,7.2,2.6,14.6,9.8,16.4c7.2,1.8,14.6-2.6,16.4-9.8c1.8-7.2-2.6-14.6-9.8-16.4
				C130.3-1.4,123,3,121.2,10.2z"/>
		</g>
	</g>
	<polygon fill="#FFFFFF" points="143.6,341.7 150.9,259.6 148.8,259.4 141.5,341.7 	"/>
	<path fill="#FFE18C" d="M107.4,170.2l-13.3-32.5c0,0-29.4,67.9,11.8,69L107.4,170.2z"/>
	<g>
		<path fill="#6C6C6C" d="M154.5,302.3l5.3-30.4c0.1-0.8,0.9-1.4,1.7-1.2c0.8,0.1,1.4,0.9,1.2,1.7l-3.9,22.4l20-16.6
			c0.6-0.5,1.6-0.4,2.1,0.2c0.5,0.6,0.4,1.6-0.2,2.1L154.5,302.3z"/>
		<path fill="none" stroke="#B5B5B5" stroke-width="2.8724" stroke-linecap="round" stroke-miterlimit="10" d="M91.8,288.2"/>
		<path fill="none" stroke="#B5B5B5" stroke-width="2.8724" stroke-linecap="round" stroke-miterlimit="10" d="M94.7,258.3"/>
		<path fill="#6C6C6C" d="M179.8,280.8c-0.1,0-0.2,0-0.3,0c-0.8-0.1-1.4-0.9-1.2-1.7c1.2-6.8-0.1-13.6-3.8-19.8
			c-0.4-0.7-0.2-1.6,0.5-2.1c0.7-0.4,1.6-0.2,2.1,0.5c4,6.7,5.5,14.4,4.2,21.8C181.1,280.3,180.5,280.8,179.8,280.8z"/>
	</g>
	<g>
		<path fill="#CD131A" d="M185.5,341.7c1-7.6,1.7-19.5,1.7-19.5s-6.2,2.3-7.9-0.9c-1.7-3.2-0.7-6.5-0.9-9.3
			c-0.2-2.8-0.2-15-9.1-21.9c-8.9-6.9-24.5-2.1-35.6,12.1c-11.1,14.1-14.1,21-37.3,22.2c-19.2,1-41.6,3.3-53.8,17.2h68.5l1.6-0.7
			L185.5,341.7z"/>
		<polygon fill="#E09D17" points="330.1,240.7 333.8,227.9 397.6,218.2 398.7,231.6 373.9,251.2 340.1,258.9 		"/>
		<path fill="#F0EDE9" d="M175.1,341.7c0.2-2.7,0.2-5.1,0-7.1c-0.3-3.1-1-4.5-1.6-5.2c-2-2.5-5.6-4-10.7-4.5c-1.2-0.1-2.6-0.1-4-0.1
			c-5.1,0.1-11.2,1-18.3,2.7c-7.2,1.8-14,4.4-20,7.7c-4.4,2.5-7.6,4.9-9.5,6.5H175.1z"/>
		<path fill="#74431D" d="M197.5,341.7c47.8-27.7,142.6-82.8,142.6-82.8l-10-18.2c0,0-170.3,91.7-172.6,93c-1.9,1-2.4,1.2,1.1,8
			H197.5z"/>
		<path fill="#FFFFFF" d="M215.1,302.6c-0.6,0.3-1.3,0.7-1.9,1l12,22c0.6-0.4,1.3-0.7,1.9-1.1L215.1,302.6z"/>
		<path fill="#FFFFFF" d="M200.3,310.6c-0.6,0.4-1.3,0.7-1.9,1l12.3,22.4c0.6-0.4,1.3-0.7,1.9-1.1L200.3,310.6z"/>
		<path fill="#FFFFFF" d="M230,294.6c-0.6,0.3-1.3,0.7-1.9,1l11.7,21.5c0.6-0.4,1.3-0.7,1.9-1.1L230,294.6z"/>
		<path fill="#FFFFFF" d="M178.8,341.7l-8.2-15.1c-0.7,0.4-1.3,0.7-1.9,1l7.7,14H178.8z"/>
		<path fill="#FFFFFF" d="M159.6,341.7l-3.6-6.5c-0.1,1,0.6,2.7,2.6,6.5H159.6z"/>
		<path fill="#FFFFFF" d="M197.5,341.7c0.1-0.1,0.2-0.1,0.4-0.2l-12.5-22.9c-0.7,0.4-1.3,0.7-1.9,1l12,22H197.5z"/>
		<path fill="#FFFFFF" d="M244.8,286.6c-0.6,0.3-1.3,0.7-1.9,1l11.5,21c0.6-0.4,1.3-0.7,1.9-1.1L244.8,286.6z"/>
		<path fill="#FFFFFF" d="M289.3,262.6c-0.6,0.3-1.3,0.7-1.9,1l10.7,19.6c0.6-0.4,1.3-0.7,1.9-1.1L289.3,262.6z"/>
		<path fill="#FFFFFF" d="M319,246.6c-0.6,0.3-1.3,0.7-1.9,1l10.2,18.7c0.7-0.4,1.3-0.7,1.9-1.1L319,246.6z"/>
		<path fill="#FFFFFF" d="M304.2,254.6c-0.6,0.3-1.3,0.7-1.9,1l10.4,19.1c0.6-0.4,1.3-0.7,1.9-1.1L304.2,254.6z"/>
		<path fill="#FFFFFF" d="M274.5,270.6c-0.6,0.3-1.3,0.7-1.9,1l11,20.1c0.6-0.4,1.3-0.7,1.9-1.1L274.5,270.6z"/>
		<path fill="#FFFFFF" d="M259.7,278.6c-0.6,0.3-1.3,0.7-1.9,1l11.2,20.6c0.6-0.4,1.3-0.7,1.9-1.1L259.7,278.6z"/>
	</g>
	<path fill="#6C6C6C" d="M91.6,289c-0.4,0-0.8-0.1-1.1-0.4c-0.6-0.6-0.6-1.5,0-2.1l20-20.1c0.6-0.6,1.5-0.6,2.1,0
		c0.6,0.6,0.6,1.5,0,2.1l-20,20.1C92.4,288.9,92,289,91.6,289z"/>
	<path fill="#6C6C6C" d="M91.8,289.7c0,0-0.1,0-0.1,0c-0.8-0.1-1.4-0.8-1.3-1.6l2.9-29.9c0.1-0.8,0.8-1.4,1.6-1.3
		c0.8,0.1,1.4,0.8,1.3,1.6l-2.9,29.9C93.2,289.1,92.5,289.7,91.8,289.7z"/>
	<path fill="#FFE18C" d="M336.1,283.6c-1.2,13.1-12.7,22.8-25.8,21.6c-13.1-1.2-22.8-12.7-21.6-25.8c1.2-13.1,12.7-22.8,25.8-21.6
		C327.6,259,337.3,270.6,336.1,283.6z"/>
	<g>
		<g>
			<circle fill="#FFFFFF" cx="55.7" cy="199" r="19.3"/>
			<path fill="#333333" d="M40.8,182.5c-0.3,0-0.5,0-0.8-0.1c-2.5-0.9-9.9-3.3-13-3.5c-1.3-0.1-2.3-1.2-2.2-2.5
				c0.1-1.3,1.2-2.3,2.5-2.2c4.4,0.2,13.3,3.4,14.3,3.8c1.2,0.4,1.8,1.8,1.4,3C42.7,181.9,41.8,182.5,40.8,182.5z"/>
			<path fill="#3F3F3F" d="M34.7,178L34.7,178c1.1-3.2,5-4.7,9-3.7l44.9,12.3c4.5,1.2,7.3,5.4,6,9.1l-2.5,7
				c-1.3,3.6-6.1,5.1-10.4,3.1l-42.4-19.2C35.6,184.8,33.6,181.1,34.7,178z"/>
			<path fill="#FFE18C" d="M58.3,195.9L58.3,195.9c2.5-3.4,7.2-4.2,10.6-1.7l6.7,4.9c3.4,2.5,4.2,7.2,1.7,10.6h0
				c-2.5,3.4-7.2,4.2-10.6,1.7l-6.7-4.9C56.6,204.1,55.8,199.3,58.3,195.9z"/>
			<circle fill="#FFE18C" cx="63.1" cy="185.5" r="19.3"/>
			<circle fill="#333333" cx="102.9" cy="202.6" r="18.9"/>
		</g>
	</g>
	<g>
		<polygon fill="#656565" points="174,277.3 81.6,261.1 85.3,246.5 176.8,261.5 		"/>
		
			<rect x="82.4" y="253.2" transform="matrix(0.9851 0.1719 -0.1719 0.9851 46.626 -18.2876)" fill="#C3C3C3" width="92.9" height="13.7"/>
		
			<rect x="80.2" y="259.8" transform="matrix(0.9851 0.1719 -0.1719 0.9851 46.6823 -16.571)" fill="#212121" width="77.7" height="2.9"/>
		
			<rect x="82.2" y="257.6" transform="matrix(0.9851 0.1719 -0.1719 0.9851 46.3353 -16.959)" fill="#333333" width="77.7" height="2.9"/>
	</g>
	<g>
		
			<rect x="83.5" y="253.9" transform="matrix(0.9851 0.1719 -0.1719 0.9851 46.8339 -18.7895)" fill="#C3C3C3" width="96.8" height="14.3"/>
		
			<rect x="163.3" y="264.5" transform="matrix(0.9851 0.1719 -0.1719 0.9851 48.6739 -25.7302)" fill="#BC3F3F" width="19.1" height="7.4"/>
		
			<rect x="80.9" y="255.8" transform="matrix(0.9851 0.1719 -0.1719 0.9851 46.4272 -17.255)" fill="#C75C5C" width="84" height="7.4"/>
		<g>
			
				<rect x="81.7" y="252" transform="matrix(0.9851 0.1721 -0.1721 0.9851 44.8865 -10.5557)" fill="#212121" width="3.3" height="3.3"/>
			<path fill="#212121" d="M153.4,267.6l-6.9-1.2l0.6-3.2l6.9,1.2L153.4,267.6z M142,265.6l-6.9-1.2l0.6-3.2l6.9,1.2L142,265.6z
				 M130.5,263.6l-6.9-1.2l0.6-3.2l6.9,1.2L130.5,263.6z M119,261.6l-6.9-1.2l0.6-3.2l6.9,1.2L119,261.6z M107.6,259.6l-6.9-1.2
				l0.6-3.2l6.9,1.2L107.6,259.6z M96.1,257.6l-6.9-1.2l0.6-3.2l6.9,1.2L96.1,257.6z"/>
			
				<rect x="158.2" y="265.4" transform="matrix(0.9851 0.172 -0.172 0.9851 48.3117 -23.5223)" fill="#212121" width="3.3" height="3.3"/>
		</g>
		<g>
			
				<rect x="81.6" y="252.7" transform="matrix(0.9851 0.172 -0.172 0.9851 44.9887 -10.5201)" fill="#333333" width="3.3" height="3.3"/>
			<path fill="#333333" d="M153.3,268.2l-6.9-1.2l0.6-3.2l6.9,1.2L153.3,268.2z M141.8,266.2l-6.9-1.2l0.6-3.2l6.9,1.2L141.8,266.2z
				 M130.4,264.2l-6.9-1.2l0.6-3.2l6.9,1.2L130.4,264.2z M118.9,262.2L112,261l0.6-3.2l6.9,1.2L118.9,262.2z M107.4,260.2l-6.9-1.2
				l0.6-3.2l6.9,1.2L107.4,260.2z M96,258.2l-6.9-1.2l0.6-3.2l6.9,1.2L96,258.2z"/>
			
				<rect x="158.1" y="266.1" transform="matrix(0.9851 0.1718 -0.1718 0.9851 48.357 -23.4619)" fill="#333333" width="3.3" height="3.3"/>
		</g>
	</g>
	<path opacity="0.31" d="M164,276.4l14.9,2.6l1-5.8l1.8,0.3l1.3-7.2l-1.8-0.3l0.6-3.4l-0.9-0.2l-12.5-2.2c-0.1,0.1-0.1,0.1-0.2,0.2
		l-0.7,3.1l2.3,0.5l-2.7,6.9l-1.4-0.2"/>
</g>
</svg>
