<svg xmlns="http://www.w3.org/2000/svg" xmlns:xlink="http://www.w3.org/1999/xlink" width="550" height="270.001" viewBox="-136.099 396.753 550 270.001"><path fill="#fff" d="M138.498 505.174c-2.55-16.2-16.56-27.754-32.486-27.733a61.915 61.915 0 0 0-.747-8.87c-5.07-32.19-34.317-54.58-66.364-51.638-5.697-13.647-20.165-22.174-35.447-19.776-9.67 1.517-17.682 7.103-22.578 14.73-9.55-3.418-20.073-4.563-30.803-2.88-31.014 4.87-53.107 31.687-52.9 62.11-1.41.044-2.83.166-4.258.39-18.658 2.928-31.407 20.404-28.473 39.033 1.946 12.354 10.303 22.106 21.152 26.424-15.042 8.436-24.007 25.582-21.17 43.596 3.58 22.736 24.625 38.397 47.34 35.505.01 2.447.205 4.926.598 7.42 4.173 26.503 29.077 44.61 55.624 40.445a48.572 48.572 0 0 0 18.038-6.66c13.342 7.794 29.36 11.215 45.822 8.632 28.08-4.407 49.562-25.04 56.38-50.824.168-.024.335-.046.502-.072 27.222-4.272 46.054-28.28 42.064-53.62-1.305-8.283-4.888-15.684-10.07-21.746 12.474-6.22 20.058-19.98 17.778-34.466z"/><path fill="#fff" d="M138.498 505.174c-2.55-16.2-16.56-27.754-32.486-27.733a61.915 61.915 0 0 0-.747-8.87c-5.07-32.19-34.317-54.58-66.364-51.638-5.697-13.647-20.165-22.174-35.447-19.776-9.67 1.517-17.682 7.103-22.578 14.73-9.55-3.418-20.073-4.563-30.803-2.88-31.014 4.87-53.107 31.687-52.9 62.11-1.41.044-2.83.166-4.258.39-18.658 2.928-31.407 20.404-28.473 39.033 1.946 12.354 10.303 22.106 21.152 26.424-15.042 8.436-24.007 25.582-21.17 43.596 3.58 22.736 24.625 38.397 47.34 35.505.01 2.447.205 4.926.598 7.42 4.173 26.503 29.077 44.61 55.624 40.445a48.572 48.572 0 0 0 18.038-6.66c13.342 7.794 29.36 11.215 45.822 8.632 28.08-4.407 49.562-25.04 56.38-50.824.168-.024.335-.046.502-.072 27.222-4.272 46.054-28.28 42.064-53.62-1.305-8.283-4.888-15.684-10.07-21.746 12.474-6.22 20.058-19.98 17.778-34.466z"/><defs><path id="a" d="M138.498 505.174c-2.55-16.2-16.56-27.754-32.486-27.733a61.915 61.915 0 0 0-.747-8.87c-5.07-32.19-34.317-54.58-66.364-51.638-5.697-13.647-20.165-22.174-35.447-19.776-9.67 1.517-17.682 7.103-22.578 14.73-9.55-3.418-20.073-4.563-30.803-2.88-31.014 4.87-53.107 31.687-52.9 62.11-1.41.044-2.83.166-4.258.39-18.658 2.928-31.407 20.404-28.473 39.033 1.946 12.354 10.303 22.106 21.152 26.424-15.042 8.436-24.007 25.582-21.17 43.596 3.58 22.736 24.625 38.397 47.34 35.505.01 2.447.205 4.926.598 7.42 4.173 26.503 29.077 44.61 55.624 40.445a48.572 48.572 0 0 0 18.038-6.66c13.342 7.794 29.36 11.215 45.822 8.632 28.08-4.407 49.562-25.04 56.38-50.824.168-.024.335-.046.502-.072 27.222-4.272 46.054-28.28 42.064-53.62-1.305-8.283-4.888-15.684-10.07-21.746 12.474-6.22 20.058-19.98 17.778-34.466z"/></defs><clipPath id="b"><use xlink:href="#a" overflow="visible"/></clipPath><path clip-path="url(#b)" fill="#DCDDDE" stroke="#000" stroke-width="2.611" stroke-linecap="round" stroke-linejoin="round" stroke-miterlimit="10" d="M-154.373 482.07l308.66 146.627-117.074 52.966-173.26-17.464-42.482-127.24z"/><defs><path id="c" d="M138.498 505.174c-2.55-16.2-16.56-27.754-32.486-27.733a61.915 61.915 0 0 0-.747-8.87c-5.07-32.19-34.317-54.58-66.364-51.638-5.697-13.647-20.165-22.174-35.447-19.776-9.67 1.517-17.682 7.103-22.578 14.73-9.55-3.418-20.073-4.563-30.803-2.88-31.014 4.87-53.107 31.687-52.9 62.11-1.41.044-2.83.166-4.258.39-18.658 2.928-31.407 20.404-28.473 39.033 1.946 12.354 10.303 22.106 21.152 26.424-15.042 8.436-24.007 25.582-21.17 43.596 3.58 22.736 24.625 38.397 47.34 35.505.01 2.447.205 4.926.598 7.42 4.173 26.503 29.077 44.61 55.624 40.445a48.572 48.572 0 0 0 18.038-6.66c13.342 7.794 29.36 11.215 45.822 8.632 28.08-4.407 49.562-25.04 56.38-50.824.168-.024.335-.046.502-.072 27.222-4.272 46.054-28.28 42.064-53.62-1.305-8.283-4.888-15.684-10.07-21.746 12.474-6.22 20.058-19.98 17.778-34.466z"/></defs><clipPath id="d"><use xlink:href="#c" overflow="visible"/></clipPath><g clip-path="url(#d)"><path fill="#fff" d="M-122.01 538.89c1.445.68 1.465 1.807.045 2.5l-17.43 8.518c-1.42.694-3.762.704-5.207.02l-17.73-8.373c-1.445-.682-1.466-1.808-.046-2.5l17.43-8.52c1.42-.693 3.763-.703 5.207-.02l17.73 8.374z"/><path fill="#DCDDDE" stroke="#000" stroke-width="2.611" stroke-linecap="round" stroke-linejoin="round" stroke-miterlimit="10" d="M-122.01 538.89c1.445.68 1.465 1.807.045 2.5l-17.43 8.518c-1.42.694-3.762.704-5.207.02l-17.73-8.373c-1.445-.682-1.466-1.808-.046-2.5l17.43-8.52c1.42-.693 3.763-.703 5.207-.02l17.73 8.374z"/></g><defs><path id="e" d="M138.498 505.174c-2.55-16.2-16.56-27.754-32.486-27.733a61.915 61.915 0 0 0-.747-8.87c-5.07-32.19-34.317-54.58-66.364-51.638-5.697-13.647-20.165-22.174-35.447-19.776-9.67 1.517-17.682 7.103-22.578 14.73-9.55-3.418-20.073-4.563-30.803-2.88-31.014 4.87-53.107 31.687-52.9 62.11-1.41.044-2.83.166-4.258.39-18.658 2.928-31.407 20.404-28.473 39.033 1.946 12.354 10.303 22.106 21.152 26.424-15.042 8.436-24.007 25.582-21.17 43.596 3.58 22.736 24.625 38.397 47.34 35.505.01 2.447.205 4.926.598 7.42 4.173 26.503 29.077 44.61 55.624 40.445a48.572 48.572 0 0 0 18.038-6.66c13.342 7.794 29.36 11.215 45.822 8.632 28.08-4.407 49.562-25.04 56.38-50.824.168-.024.335-.046.502-.072 27.222-4.272 46.054-28.28 42.064-53.62-1.305-8.283-4.888-15.684-10.07-21.746 12.474-6.22 20.058-19.98 17.778-34.466z"/></defs><clipPath id="f"><use xlink:href="#e" overflow="visible"/></clipPath><path fill="#FFE300" d="M-.86 569.33c1.444.682 1.464 1.808.044 2.5l-17.43 8.52c-1.42.693-3.763.702-5.207.02l-17.73-8.374c-1.445-.682-1.465-1.808-.045-2.5l17.43-8.52c1.42-.693 3.763-.703 5.207-.02l17.73 8.374z" clip-path="url(#f)"/><defs><path id="g" d="M138.498 505.174c-2.55-16.2-16.56-27.754-32.486-27.733a61.915 61.915 0 0 0-.747-8.87c-5.07-32.19-34.317-54.58-66.364-51.638-5.697-13.647-20.165-22.174-35.447-19.776-9.67 1.517-17.682 7.103-22.578 14.73-9.55-3.418-20.073-4.563-30.803-2.88-31.014 4.87-53.107 31.687-52.9 62.11-1.41.044-2.83.166-4.258.39-18.658 2.928-31.407 20.404-28.473 39.033 1.946 12.354 10.303 22.106 21.152 26.424-15.042 8.436-24.007 25.582-21.17 43.596 3.58 22.736 24.625 38.397 47.34 35.505.01 2.447.205 4.926.598 7.42 4.173 26.503 29.077 44.61 55.624 40.445a48.572 48.572 0 0 0 18.038-6.66c13.342 7.794 29.36 11.215 45.822 8.632 28.08-4.407 49.562-25.04 56.38-50.824.168-.024.335-.046.502-.072 27.222-4.272 46.054-28.28 42.064-53.62-1.305-8.283-4.888-15.684-10.07-21.746 12.474-6.22 20.058-19.98 17.778-34.466z"/></defs><clipPath id="h"><use xlink:href="#g" overflow="visible"/></clipPath><g clip-path="url(#h)"><path fill="#FFE300" d="M-57.743 542.467c1.445.683 1.464 1.808.044 2.5l-17.43 8.52c-1.42.693-3.762.703-5.206.02l-17.73-8.373c-1.445-.682-1.465-1.808-.045-2.5l17.43-8.52c1.42-.693 3.762-.703 5.206-.02l17.73 8.373z"/><path stroke="#000" stroke-width="2.308" stroke-linecap="round" stroke-linejoin="round" stroke-miterlimit="10" d="M-57.743 542.467c1.445.683 1.464 1.808.044 2.5l-17.43 8.52c-1.42.693-3.762.703-5.206.02l-17.73-8.373c-1.445-.682-1.465-1.808-.045-2.5l17.43-8.52c1.42-.693 3.762-.703 5.206-.02l17.73 8.373zM-.86 569.33c1.444.682 1.464 1.808.044 2.5l-17.43 8.52c-1.42.693-3.763.702-5.207.02l-17.73-8.374c-1.445-.682-1.465-1.808-.045-2.5l17.43-8.52c1.42-.693 3.763-.703 5.207-.02l17.73 8.374z" fill="none"/></g><defs><path id="i" d="M138.498 505.174c-2.55-16.2-16.56-27.754-32.486-27.733a61.915 61.915 0 0 0-.747-8.87c-5.07-32.19-34.317-54.58-66.364-51.638-5.697-13.647-20.165-22.174-35.447-19.776-9.67 1.517-17.682 7.103-22.578 14.73-9.55-3.418-20.073-4.563-30.803-2.88-31.014 4.87-53.107 31.687-52.9 62.11-1.41.044-2.83.166-4.258.39-18.658 2.928-31.407 20.404-28.473 39.033 1.946 12.354 10.303 22.106 21.152 26.424-15.042 8.436-24.007 25.582-21.17 43.596 3.58 22.736 24.625 38.397 47.34 35.505.01 2.447.205 4.926.598 7.42 4.173 26.503 29.077 44.61 55.624 40.445a48.572 48.572 0 0 0 18.038-6.66c13.342 7.794 29.36 11.215 45.822 8.632 28.08-4.407 49.562-25.04 56.38-50.824.168-.024.335-.046.502-.072 27.222-4.272 46.054-28.28 42.064-53.62-1.305-8.283-4.888-15.684-10.07-21.746 12.474-6.22 20.058-19.98 17.778-34.466z"/></defs><clipPath id="j"><use xlink:href="#i" overflow="visible"/></clipPath><g clip-path="url(#j)" fill="none"><path d="M-29.277 555.91c1.444.683 1.464 1.81.044 2.502l-17.43 8.518c-1.42.694-3.762.704-5.206.022l-17.73-8.373c-1.445-.683-1.465-1.81-.045-2.502l17.43-8.518c1.42-.694 3.764-.704 5.208-.022l17.73 8.373z"/><path stroke="#000" stroke-width="2.611" stroke-linecap="round" stroke-linejoin="round" stroke-miterlimit="10" d="M-29.277 555.91c1.444.683 1.464 1.81.044 2.502l-17.43 8.518c-1.42.694-3.762.704-5.206.022l-17.73-8.373c-1.445-.683-1.465-1.81-.045-2.502l17.43-8.518c1.42-.694 3.764-.704 5.208-.022l17.73 8.373z"/></g><defs><path id="k" d="M138.498 505.174c-2.55-16.2-16.56-27.754-32.486-27.733a61.915 61.915 0 0 0-.747-8.87c-5.07-32.19-34.317-54.58-66.364-51.638-5.697-13.647-20.165-22.174-35.447-19.776-9.67 1.517-17.682 7.103-22.578 14.73-9.55-3.418-20.073-4.563-30.803-2.88-31.014 4.87-53.107 31.687-52.9 62.11-1.41.044-2.83.166-4.258.39-18.658 2.928-31.407 20.404-28.473 39.033 1.946 12.354 10.303 22.106 21.152 26.424-15.042 8.436-24.007 25.582-21.17 43.596 3.58 22.736 24.625 38.397 47.34 35.505.01 2.447.205 4.926.598 7.42 4.173 26.503 29.077 44.61 55.624 40.445a48.572 48.572 0 0 0 18.038-6.66c13.342 7.794 29.36 11.215 45.822 8.632 28.08-4.407 49.562-25.04 56.38-50.824.168-.024.335-.046.502-.072 27.222-4.272 46.054-28.28 42.064-53.62-1.305-8.283-4.888-15.684-10.07-21.746 12.474-6.22 20.058-19.98 17.778-34.466z"/></defs><clipPath id="l"><use xlink:href="#k" overflow="visible"/></clipPath><g clip-path="url(#l)" fill="none"><path d="M-57.522 569.713c1.444.682 1.465 1.808.044 2.5l-17.43 8.52c-1.42.693-3.763.703-5.207.02l-17.73-8.373c-1.445-.682-1.465-1.808-.045-2.5l17.43-8.52c1.42-.693 3.762-.703 5.207-.02l17.73 8.373z"/><path stroke="#000" stroke-width="2.611" stroke-linecap="round" stroke-linejoin="round" stroke-miterlimit="10" d="M-57.522 569.713c1.444.682 1.465 1.808.044 2.5l-17.43 8.52c-1.42.693-3.763.703-5.207.02l-17.73-8.373c-1.445-.682-1.465-1.808-.045-2.5l17.43-8.52c1.42-.693 3.762-.703 5.207-.02l17.73 8.373z"/></g><defs><path id="m" d="M138.498 505.174c-2.55-16.2-16.56-27.754-32.486-27.733a61.915 61.915 0 0 0-.747-8.87c-5.07-32.19-34.317-54.58-66.364-51.638-5.697-13.647-20.165-22.174-35.447-19.776-9.67 1.517-17.682 7.103-22.578 14.73-9.55-3.418-20.073-4.563-30.803-2.88-31.014 4.87-53.107 31.687-52.9 62.11-1.41.044-2.83.166-4.258.39-18.658 2.928-31.407 20.404-28.473 39.033 1.946 12.354 10.303 22.106 21.152 26.424-15.042 8.436-24.007 25.582-21.17 43.596 3.58 22.736 24.625 38.397 47.34 35.505.01 2.447.205 4.926.598 7.42 4.173 26.503 29.077 44.61 55.624 40.445a48.572 48.572 0 0 0 18.038-6.66c13.342 7.794 29.36 11.215 45.822 8.632 28.08-4.407 49.562-25.04 56.38-50.824.168-.024.335-.046.502-.072 27.222-4.272 46.054-28.28 42.064-53.62-1.305-8.283-4.888-15.684-10.07-21.746 12.474-6.22 20.058-19.98 17.778-34.466z"/></defs><clipPath id="n"><use xlink:href="#m" overflow="visible"/></clipPath><g clip-path="url(#n)"><path fill="#fff" d="M92.89 640.47c1.446.682 1.465 1.808.046 2.5l-17.43 8.52c-1.42.693-3.764.703-5.208.02l-17.73-8.373c-1.444-.682-1.464-1.808-.044-2.5l17.43-8.52c1.42-.693 3.763-.702 5.207-.02l17.73 8.373z"/><path fill="#DCDDDE" stroke="#000" stroke-width="2.611" stroke-linecap="round" stroke-linejoin="round" stroke-miterlimit="10" d="M92.89 640.47c1.446.682 1.465 1.808.046 2.5l-17.43 8.52c-1.42.693-3.764.703-5.208.02l-17.73-8.373c-1.444-.682-1.464-1.808-.044-2.5l17.43-8.52c1.42-.693 3.763-.702 5.207-.02l17.73 8.373zm-41.092 8.316c1.445.682 1.465 1.808.045 2.5l-17.43 8.52c-1.42.693-3.763.703-5.208.02l-17.73-8.373c-1.445-.682-1.465-1.808-.044-2.5l17.43-8.52c1.42-.693 3.764-.702 5.208-.02l17.73 8.373zm-46.925 4.158c1.444.682 1.465 1.808.045 2.5l-17.43 8.52c-1.42.693-3.763.703-5.207.02l-17.73-8.373c-1.444-.68-1.463-1.807-.043-2.5l17.43-8.518c1.42-.694 3.762-.703 5.207-.02l17.73 8.372zm27.211 14.416c1.444.68 1.464 1.807.045 2.5l-17.43 8.518c-1.42.694-3.764.704-5.208.022l-17.73-8.374c-1.445-.682-1.465-1.808-.045-2.5l17.43-8.52c1.42-.693 3.762-.702 5.207-.02l17.73 8.373z"/></g><defs><path id="o" d="M138.498 505.174c-2.55-16.2-16.56-27.754-32.486-27.733a61.915 61.915 0 0 0-.747-8.87c-5.07-32.19-34.317-54.58-66.364-51.638-5.697-13.647-20.165-22.174-35.447-19.776-9.67 1.517-17.682 7.103-22.578 14.73-9.55-3.418-20.073-4.563-30.803-2.88-31.014 4.87-53.107 31.687-52.9 62.11-1.41.044-2.83.166-4.258.39-18.658 2.928-31.407 20.404-28.473 39.033 1.946 12.354 10.303 22.106 21.152 26.424-15.042 8.436-24.007 25.582-21.17 43.596 3.58 22.736 24.625 38.397 47.34 35.505.01 2.447.205 4.926.598 7.42 4.173 26.503 29.077 44.61 55.624 40.445a48.572 48.572 0 0 0 18.038-6.66c13.342 7.794 29.36 11.215 45.822 8.632 28.08-4.407 49.562-25.04 56.38-50.824.168-.024.335-.046.502-.072 27.222-4.272 46.054-28.28 42.064-53.62-1.305-8.283-4.888-15.684-10.07-21.746 12.474-6.22 20.058-19.98 17.778-34.466z"/></defs><clipPath id="p"><use xlink:href="#o" overflow="visible"/></clipPath><g clip-path="url(#p)"><path fill="#fff" d="M8.338 600.537c1.445.682 1.465 1.808.045 2.5l-17.43 8.52c-1.42.693-3.762.703-5.207.02l-17.73-8.373c-1.445-.682-1.464-1.808-.044-2.5l17.43-8.52c1.42-.693 3.762-.702 5.207-.02l17.728 8.373z"/><path fill="#DCDDDE" stroke="#000" stroke-width="2.611" stroke-linecap="round" stroke-linejoin="round" stroke-miterlimit="10" d="M8.338 600.537c1.445.682 1.465 1.808.045 2.5l-17.43 8.52c-1.42.693-3.762.703-5.207.02l-17.73-8.373c-1.445-.682-1.464-1.808-.044-2.5l17.43-8.52c1.42-.693 3.762-.702 5.207-.02l17.728 8.373z"/></g><defs><path id="q" d="M138.498 505.174c-2.55-16.2-16.56-27.754-32.486-27.733a61.915 61.915 0 0 0-.747-8.87c-5.07-32.19-34.317-54.58-66.364-51.638-5.697-13.647-20.165-22.174-35.447-19.776-9.67 1.517-17.682 7.103-22.578 14.73-9.55-3.418-20.073-4.563-30.803-2.88-31.014 4.87-53.107 31.687-52.9 62.11-1.41.044-2.83.166-4.258.39-18.658 2.928-31.407 20.404-28.473 39.033 1.946 12.354 10.303 22.106 21.152 26.424-15.042 8.436-24.007 25.582-21.17 43.596 3.58 22.736 24.625 38.397 47.34 35.505.01 2.447.205 4.926.598 7.42 4.173 26.503 29.077 44.61 55.624 40.445a48.572 48.572 0 0 0 18.038-6.66c13.342 7.794 29.36 11.215 45.822 8.632 28.08-4.407 49.562-25.04 56.38-50.824.168-.024.335-.046.502-.072 27.222-4.272 46.054-28.28 42.064-53.62-1.305-8.283-4.888-15.684-10.07-21.746 12.474-6.22 20.058-19.98 17.778-34.466z"/></defs><clipPath id="r"><use xlink:href="#q" overflow="visible"/></clipPath><path fill="#DCDDDE" stroke="#000" stroke-width="2.611" stroke-linecap="round" stroke-linejoin="round" stroke-miterlimit="10" d="M-94.18 525.257c1.443.682 1.464 1.808.044 2.5l-17.43 8.52c-1.42.693-3.763.703-5.207.02l-46.113-21.777c-1.445-.682-1.465-1.808-.045-2.5l17.43-8.52c1.42-.693 3.762-.703 5.206-.02l46.113 21.777z" clip-path="url(#r)"/><defs><path id="s" d="M138.498 505.174c-2.55-16.2-16.56-27.754-32.486-27.733a61.915 61.915 0 0 0-.747-8.87c-5.07-32.19-34.317-54.58-66.364-51.638-5.697-13.647-20.165-22.174-35.447-19.776-9.67 1.517-17.682 7.103-22.578 14.73-9.55-3.418-20.073-4.563-30.803-2.88-31.014 4.87-53.107 31.687-52.9 62.11-1.41.044-2.83.166-4.258.39-18.658 2.928-31.407 20.404-28.473 39.033 1.946 12.354 10.303 22.106 21.152 26.424-15.042 8.436-24.007 25.582-21.17 43.596 3.58 22.736 24.625 38.397 47.34 35.505.01 2.447.205 4.926.598 7.42 4.173 26.503 29.077 44.61 55.624 40.445a48.572 48.572 0 0 0 18.038-6.66c13.342 7.794 29.36 11.215 45.822 8.632 28.08-4.407 49.562-25.04 56.38-50.824.168-.024.335-.046.502-.072 27.222-4.272 46.054-28.28 42.064-53.62-1.305-8.283-4.888-15.684-10.07-21.746 12.474-6.22 20.058-19.98 17.778-34.466z"/></defs><clipPath id="t"><use xlink:href="#s" overflow="visible"/></clipPath><g clip-path="url(#t)"><path fill="#fff" d="M49.856 593.462c1.445.682 1.465 1.808.045 2.5l-17.43 8.52c-1.42.693-3.76.703-5.206.02l-31.482-14.868c-1.444-.682-1.464-1.808-.044-2.5l17.43-8.52c1.42-.693 3.762-.703 5.207-.02l31.48 14.868z"/><path fill="#DCDDDE" stroke="#000" stroke-width="2.611" stroke-linecap="round" stroke-linejoin="round" stroke-miterlimit="10" d="M49.856 593.462c1.445.682 1.465 1.808.045 2.5l-17.43 8.52c-1.42.693-3.76.703-5.206.02l-31.482-14.868c-1.444-.682-1.464-1.808-.044-2.5l17.43-8.52c1.42-.693 3.762-.703 5.207-.02l31.48 14.868z"/></g><defs><path id="u" d="M138.498 505.174c-2.55-16.2-16.56-27.754-32.486-27.733a61.915 61.915 0 0 0-.747-8.87c-5.07-32.19-34.317-54.58-66.364-51.638-5.697-13.647-20.165-22.174-35.447-19.776-9.67 1.517-17.682 7.103-22.578 14.73-9.55-3.418-20.073-4.563-30.803-2.88-31.014 4.87-53.107 31.687-52.9 62.11-1.41.044-2.83.166-4.258.39-18.658 2.928-31.407 20.404-28.473 39.033 1.946 12.354 10.303 22.106 21.152 26.424-15.042 8.436-24.007 25.582-21.17 43.596 3.58 22.736 24.625 38.397 47.34 35.505.01 2.447.205 4.926.598 7.42 4.173 26.503 29.077 44.61 55.624 40.445a48.572 48.572 0 0 0 18.038-6.66c13.342 7.794 29.36 11.215 45.822 8.632 28.08-4.407 49.562-25.04 56.38-50.824.168-.024.335-.046.502-.072 27.222-4.272 46.054-28.28 42.064-53.62-1.305-8.283-4.888-15.684-10.07-21.746 12.474-6.22 20.058-19.98 17.778-34.466z"/></defs><clipPath id="v"><use xlink:href="#u" overflow="visible"/></clipPath><g clip-path="url(#v)"><path fill="#fff" d="M92.157 613.44c1.444.682 1.465 1.808.045 2.5l-17.43 8.52c-1.42.693-3.763.703-5.207.02l-31.483-14.868c-1.444-.682-1.464-1.808-.044-2.5l17.43-8.52c1.42-.693 3.763-.702 5.207-.02l31.482 14.868z"/><path fill="#DCDDDE" stroke="#000" stroke-width="2.611" stroke-linecap="round" stroke-linejoin="round" stroke-miterlimit="10" d="M92.157 613.44c1.444.682 1.465 1.808.045 2.5l-17.43 8.52c-1.42.693-3.763.703-5.207.02l-31.483-14.868c-1.444-.682-1.464-1.808-.044-2.5l17.43-8.52c1.42-.693 3.763-.702 5.207-.02l31.482 14.868z"/></g><defs><path id="w" d="M138.498 505.174c-2.55-16.2-16.56-27.754-32.486-27.733a61.915 61.915 0 0 0-.747-8.87c-5.07-32.19-34.317-54.58-66.364-51.638-5.697-13.647-20.165-22.174-35.447-19.776-9.67 1.517-17.682 7.103-22.578 14.73-9.55-3.418-20.073-4.563-30.803-2.88-31.014 4.87-53.107 31.687-52.9 62.11-1.41.044-2.83.166-4.258.39-18.658 2.928-31.407 20.404-28.473 39.033 1.946 12.354 10.303 22.106 21.152 26.424-15.042 8.436-24.007 25.582-21.17 43.596 3.58 22.736 24.625 38.397 47.34 35.505.01 2.447.205 4.926.598 7.42 4.173 26.503 29.077 44.61 55.624 40.445a48.572 48.572 0 0 0 18.038-6.66c13.342 7.794 29.36 11.215 45.822 8.632 28.08-4.407 49.562-25.04 56.38-50.824.168-.024.335-.046.502-.072 27.222-4.272 46.054-28.28 42.064-53.62-1.305-8.283-4.888-15.684-10.07-21.746 12.474-6.22 20.058-19.98 17.778-34.466z"/></defs><clipPath id="x"><use xlink:href="#w" overflow="visible"/></clipPath><g clip-path="url(#x)"><path fill="#fff" d="M64.39 627.01c1.446.68 1.466 1.807.046 2.5l-17.43 8.518c-1.42.694-3.763.704-5.207.022l-45.16-21.328c-1.444-.682-1.464-1.808-.044-2.5l17.43-8.52c1.42-.693 3.762-.703 5.206-.02l45.16 21.327z"/><path fill="#DCDDDE" stroke="#000" stroke-width="2.611" stroke-linecap="round" stroke-linejoin="round" stroke-miterlimit="10" d="M64.39 627.01c1.446.68 1.466 1.807.046 2.5l-17.43 8.518c-1.42.694-3.763.704-5.207.022l-45.16-21.328c-1.444-.682-1.464-1.808-.044-2.5l17.43-8.52c1.42-.693 3.762-.703 5.206-.02l45.16 21.327z"/></g><defs><path id="y" d="M138.498 505.174c-2.55-16.2-16.56-27.754-32.486-27.733a61.915 61.915 0 0 0-.747-8.87c-5.07-32.19-34.317-54.58-66.364-51.638-5.697-13.647-20.165-22.174-35.447-19.776-9.67 1.517-17.682 7.103-22.578 14.73-9.55-3.418-20.073-4.563-30.803-2.88-31.014 4.87-53.107 31.687-52.9 62.11-1.41.044-2.83.166-4.258.39-18.658 2.928-31.407 20.404-28.473 39.033 1.946 12.354 10.303 22.106 21.152 26.424-15.042 8.436-24.007 25.582-21.17 43.596 3.58 22.736 24.625 38.397 47.34 35.505.01 2.447.205 4.926.598 7.42 4.173 26.503 29.077 44.61 55.624 40.445a48.572 48.572 0 0 0 18.038-6.66c13.342 7.794 29.36 11.215 45.822 8.632 28.08-4.407 49.562-25.04 56.38-50.824.168-.024.335-.046.502-.072 27.222-4.272 46.054-28.28 42.064-53.62-1.305-8.283-4.888-15.684-10.07-21.746 12.474-6.22 20.058-19.98 17.778-34.466z"/></defs><clipPath id="z"><use xlink:href="#y" overflow="visible"/></clipPath><g clip-path="url(#z)"><path fill="#fff" d="M23.232 634.37c1.445.68 1.465 1.807.045 2.5L5.88 645.373c-1.42.694-3.764.703-5.208.02l-10.374-4.9c-1.444-.68-3.898-1.493-5.454-1.804-1.555-.31-6.287 1.125-7.707 1.82L-41.47 649.6c-1.42.694-3.763.704-5.207.022l-40.835-19.286c-1.445-.682-1.465-1.808-.045-2.5l45.07-22.026c1.42-.694 3.763-.704 5.208-.02l60.512 28.577z"/><path fill="#DCDDDE" stroke="#000" stroke-width="2.611" stroke-linecap="round" stroke-linejoin="round" stroke-miterlimit="10" d="M23.232 634.37c1.445.68 1.465 1.807.045 2.5L5.88 645.373c-1.42.694-3.764.703-5.208.02l-10.374-4.9c-1.444-.68-3.898-1.493-5.454-1.804-1.555-.31-6.287 1.125-7.707 1.82L-41.47 649.6c-1.42.694-3.763.704-5.207.022l-40.835-19.286c-1.445-.682-1.465-1.808-.045-2.5l45.07-22.026c1.42-.694 3.763-.704 5.208-.02l60.512 28.577z"/></g><defs><path id="A" d="M138.498 505.174c-2.55-16.2-16.56-27.754-32.486-27.733a61.915 61.915 0 0 0-.747-8.87c-5.07-32.19-34.317-54.58-66.364-51.638-5.697-13.647-20.165-22.174-35.447-19.776-9.67 1.517-17.682 7.103-22.578 14.73-9.55-3.418-20.073-4.563-30.803-2.88-31.014 4.87-53.107 31.687-52.9 62.11-1.41.044-2.83.166-4.258.39-18.658 2.928-31.407 20.404-28.473 39.033 1.946 12.354 10.303 22.106 21.152 26.424-15.042 8.436-24.007 25.582-21.17 43.596 3.58 22.736 24.625 38.397 47.34 35.505.01 2.447.205 4.926.598 7.42 4.173 26.503 29.077 44.61 55.624 40.445a48.572 48.572 0 0 0 18.038-6.66c13.342 7.794 29.36 11.215 45.822 8.632 28.08-4.407 49.562-25.04 56.38-50.824.168-.024.335-.046.502-.072 27.222-4.272 46.054-28.28 42.064-53.62-1.305-8.283-4.888-15.684-10.07-21.746 12.474-6.22 20.058-19.98 17.778-34.466z"/></defs><clipPath id="B"><use xlink:href="#A" overflow="visible"/></clipPath><path clip-path="url(#B)" d="M-18.544 566.353l2.543 6.345-13.252-1.113z"/><defs><path id="C" d="M138.498 505.174c-2.55-16.2-16.56-27.754-32.486-27.733a61.915 61.915 0 0 0-.747-8.87c-5.07-32.19-34.317-54.58-66.364-51.638-5.697-13.647-20.165-22.174-35.447-19.776-9.67 1.517-17.682 7.103-22.578 14.73-9.55-3.418-20.073-4.563-30.803-2.88-31.014 4.87-53.107 31.687-52.9 62.11-1.41.044-2.83.166-4.258.39-18.658 2.928-31.407 20.404-28.473 39.033 1.946 12.354 10.303 22.106 21.152 26.424-15.042 8.436-24.007 25.582-21.17 43.596 3.58 22.736 24.625 38.397 47.34 35.505.01 2.447.205 4.926.598 7.42 4.173 26.503 29.077 44.61 55.624 40.445a48.572 48.572 0 0 0 18.038-6.66c13.342 7.794 29.36 11.215 45.822 8.632 28.08-4.407 49.562-25.04 56.38-50.824.168-.024.335-.046.502-.072 27.222-4.272 46.054-28.28 42.064-53.62-1.305-8.283-4.888-15.684-10.07-21.746 12.474-6.22 20.058-19.98 17.778-34.466z"/></defs><clipPath id="D"><use xlink:href="#C" overflow="visible"/></clipPath><path clip-path="url(#D)" d="M-57.467 556.14l13.207-1.22-2.317 6.364z"/><defs><path id="E" d="M138.498 505.174c-2.55-16.2-16.56-27.754-32.486-27.733a61.915 61.915 0 0 0-.747-8.87c-5.07-32.19-34.317-54.58-66.364-51.638-5.697-13.647-20.165-22.174-35.447-19.776-9.67 1.517-17.682 7.103-22.578 14.73-9.55-3.418-20.073-4.563-30.803-2.88-31.014 4.87-53.107 31.687-52.9 62.11-1.41.044-2.83.166-4.258.39-18.658 2.928-31.407 20.404-28.473 39.033 1.946 12.354 10.303 22.106 21.152 26.424-15.042 8.436-24.007 25.582-21.17 43.596 3.58 22.736 24.625 38.397 47.34 35.505.01 2.447.205 4.926.598 7.42 4.173 26.503 29.077 44.61 55.624 40.445a48.572 48.572 0 0 0 18.038-6.66c13.342 7.794 29.36 11.215 45.822 8.632 28.08-4.407 49.562-25.04 56.38-50.824.168-.024.335-.046.502-.072 27.222-4.272 46.054-28.28 42.064-53.62-1.305-8.283-4.888-15.684-10.07-21.746 12.474-6.22 20.058-19.98 17.778-34.466z"/></defs><clipPath id="F"><use xlink:href="#E" overflow="visible"/></clipPath><path clip-path="url(#F)" d="M-69.012 572.248l-13.21 1.222 2.32-6.365z"/><defs><path id="G" d="M138.498 505.174c-2.55-16.2-16.56-27.754-32.486-27.733a61.915 61.915 0 0 0-.747-8.87c-5.07-32.19-34.317-54.58-66.364-51.638-5.697-13.647-20.165-22.174-35.447-19.776-9.67 1.517-17.682 7.103-22.578 14.73-9.55-3.418-20.073-4.563-30.803-2.88-31.014 4.87-53.107 31.687-52.9 62.11-1.41.044-2.83.166-4.258.39-18.658 2.928-31.407 20.404-28.473 39.033 1.946 12.354 10.303 22.106 21.152 26.424-15.042 8.436-24.007 25.582-21.17 43.596 3.58 22.736 24.625 38.397 47.34 35.505.01 2.447.205 4.926.598 7.42 4.173 26.503 29.077 44.61 55.624 40.445a48.572 48.572 0 0 0 18.038-6.66c13.342 7.794 29.36 11.215 45.822 8.632 28.08-4.407 49.562-25.04 56.38-50.824.168-.024.335-.046.502-.072 27.222-4.272 46.054-28.28 42.064-53.62-1.305-8.283-4.888-15.684-10.07-21.746 12.474-6.22 20.058-19.98 17.778-34.466z"/></defs><clipPath id="H"><use xlink:href="#G" overflow="visible"/></clipPath><path clip-path="url(#H)" d="M-69.194 542.432l-13.25-1.113 2.544 6.344z"/><defs><path id="I" d="M138.498 505.174c-2.55-16.2-16.56-27.754-32.486-27.733a61.915 61.915 0 0 0-.747-8.87c-5.07-32.19-34.317-54.58-66.364-51.638-5.697-13.647-20.165-22.174-35.447-19.776-9.67 1.517-17.682 7.103-22.578 14.73-9.55-3.418-20.073-4.563-30.803-2.88-31.014 4.87-53.107 31.687-52.9 62.11-1.41.044-2.83.166-4.258.39-18.658 2.928-31.407 20.404-28.473 39.033 1.946 12.354 10.303 22.106 21.152 26.424-15.042 8.436-24.007 25.582-21.17 43.596 3.58 22.736 24.625 38.397 47.34 35.505.01 2.447.205 4.926.598 7.42 4.173 26.503 29.077 44.61 55.624 40.445a48.572 48.572 0 0 0 18.038-6.66c13.342 7.794 29.36 11.215 45.822 8.632 28.08-4.407 49.562-25.04 56.38-50.824.168-.024.335-.046.502-.072 27.222-4.272 46.054-28.28 42.064-53.62-1.305-8.283-4.888-15.684-10.07-21.746 12.474-6.22 20.058-19.98 17.778-34.466z"/></defs><clipPath id="J"><use xlink:href="#I" overflow="visible"/></clipPath><path clip-path="url(#J)" stroke="#000" stroke-width="2.611" stroke-linecap="round" stroke-linejoin="round" stroke-miterlimit="10" d="M-59.718 522.127c-7.253-7.114-1.943-10.914 4.756-18.6 5.06-5.8 18.263-18.744 18.263-18.744 3.133-3.847 7.97-5.918 12.36-7.564 4.392-1.647 33.79-11.454 35.095-11.427 8.783-3.29 47.355 5.798 70.24-5.02 22.884-10.817 36.605-20.96 36.605-20.96" fill="none"/><defs><path id="K" d="M138.498 505.174c-2.55-16.2-16.56-27.754-32.486-27.733a61.915 61.915 0 0 0-.747-8.87c-5.07-32.19-34.317-54.58-66.364-51.638-5.697-13.647-20.165-22.174-35.447-19.776-9.67 1.517-17.682 7.103-22.578 14.73-9.55-3.418-20.073-4.563-30.803-2.88-31.014 4.87-53.107 31.687-52.9 62.11-1.41.044-2.83.166-4.258.39-18.658 2.928-31.407 20.404-28.473 39.033 1.946 12.354 10.303 22.106 21.152 26.424-15.042 8.436-24.007 25.582-21.17 43.596 3.58 22.736 24.625 38.397 47.34 35.505.01 2.447.205 4.926.598 7.42 4.173 26.503 29.077 44.61 55.624 40.445a48.572 48.572 0 0 0 18.038-6.66c13.342 7.794 29.36 11.215 45.822 8.632 28.08-4.407 49.562-25.04 56.38-50.824.168-.024.335-.046.502-.072 27.222-4.272 46.054-28.28 42.064-53.62-1.305-8.283-4.888-15.684-10.07-21.746 12.474-6.22 20.058-19.98 17.778-34.466z"/></defs><clipPath id="L"><use xlink:href="#K" overflow="visible"/></clipPath><path clip-path="url(#L)" fill="#fff" stroke="#000" stroke-width="2.611" stroke-linecap="round" stroke-linejoin="round" stroke-miterlimit="10" d="M3.108 476.19c-10.522 5.168-27.84 12.782-35.61 19.74-5.733 5.135-31.95 23.77-36.892 28.558-12.54 7.275-4.292 28.406 13.1 14.552l32.326-19.77L25.92 494.5"/><defs><path id="M" d="M138.498 505.174c-2.55-16.2-16.56-27.754-32.486-27.733a61.915 61.915 0 0 0-.747-8.87c-5.07-32.19-34.317-54.58-66.364-51.638-5.697-13.647-20.165-22.174-35.447-19.776-9.67 1.517-17.682 7.103-22.578 14.73-9.55-3.418-20.073-4.563-30.803-2.88-31.014 4.87-53.107 31.687-52.9 62.11-1.41.044-2.83.166-4.258.39-18.658 2.928-31.407 20.404-28.473 39.033 1.946 12.354 10.303 22.106 21.152 26.424-15.042 8.436-24.007 25.582-21.17 43.596 3.58 22.736 24.625 38.397 47.34 35.505.01 2.447.205 4.926.598 7.42 4.173 26.503 29.077 44.61 55.624 40.445a48.572 48.572 0 0 0 18.038-6.66c13.342 7.794 29.36 11.215 45.822 8.632 28.08-4.407 49.562-25.04 56.38-50.824.168-.024.335-.046.502-.072 27.222-4.272 46.054-28.28 42.064-53.62-1.305-8.283-4.888-15.684-10.07-21.746 12.474-6.22 20.058-19.98 17.778-34.466z"/></defs><clipPath id="N"><use xlink:href="#M" overflow="visible"/></clipPath><path clip-path="url(#N)" fill="#fff" stroke="#000" stroke-width="2.611" stroke-linecap="round" stroke-linejoin="round" stroke-miterlimit="10" d="M33.172 484.886l-28.927 14.12c-6.897 1.318-13.625 5.033-16.533 6.796l-33.978 17.826c-13.134 6.08-3.924 24.855 13.765 17.576 0 0 34.905-12.404 36.19-12.902 10.237-3.974 38.77-12.962 38.77-12.962 21.36-5.077 26.97 4.81 36.135 9.554l26.956-12.036"/><defs><path id="O" d="M138.498 505.174c-2.55-16.2-16.56-27.754-32.486-27.733a61.915 61.915 0 0 0-.747-8.87c-5.07-32.19-34.317-54.58-66.364-51.638-5.697-13.647-20.165-22.174-35.447-19.776-9.67 1.517-17.682 7.103-22.578 14.73-9.55-3.418-20.073-4.563-30.803-2.88-31.014 4.87-53.107 31.687-52.9 62.11-1.41.044-2.83.166-4.258.39-18.658 2.928-31.407 20.404-28.473 39.033 1.946 12.354 10.303 22.106 21.152 26.424-15.042 8.436-24.007 25.582-21.17 43.596 3.58 22.736 24.625 38.397 47.34 35.505.01 2.447.205 4.926.598 7.42 4.173 26.503 29.077 44.61 55.624 40.445a48.572 48.572 0 0 0 18.038-6.66c13.342 7.794 29.36 11.215 45.822 8.632 28.08-4.407 49.562-25.04 56.38-50.824.168-.024.335-.046.502-.072 27.222-4.272 46.054-28.28 42.064-53.62-1.305-8.283-4.888-15.684-10.07-21.746 12.474-6.22 20.058-19.98 17.778-34.466z"/></defs><clipPath id="P"><use xlink:href="#O" overflow="visible"/></clipPath><path clip-path="url(#P)" fill="#fff" stroke="#000" stroke-width="2.611" stroke-linecap="round" stroke-linejoin="round" stroke-miterlimit="10" d="M73.417 512.414c.435 6.523-2.777 12.907-12.634 21.622-9.718 8.593-20.825 15.524-20.825 15.524-19.158 12.475-10.828 35.484 12.496 23.287l35.21-21.43c16.115-8.26 27.04-26.5 32.664-45.22 1.307-4.347 22.21-16.522 22.21-16.522"/><path fill="#fff" d="M413.498 505.175c-2.55-16.2-16.56-27.754-32.486-27.733a61.867 61.867 0 0 0-.747-8.87c-5.07-32.19-34.317-54.582-66.364-51.64-5.698-13.646-20.165-22.173-35.447-19.775-9.67 1.517-17.682 7.103-22.578 14.73-9.55-3.418-20.073-4.563-30.802-2.88-31.014 4.87-53.107 31.687-52.9 62.11-1.41.044-2.83.166-4.258.39-18.658 2.928-31.407 20.404-28.473 39.033 1.945 12.355 10.302 22.107 21.15 26.425-15.04 8.436-24.006 25.582-21.168 43.596 3.58 22.737 24.624 38.398 47.34 35.506.01 2.447.204 4.926.597 7.42 4.174 26.503 29.078 44.61 55.625 40.445a48.537 48.537 0 0 0 18.038-6.66c13.342 7.795 29.36 11.216 45.822 8.633 28.08-4.407 49.562-25.04 56.38-50.824.168-.025.335-.047.502-.073 27.222-4.272 46.054-28.28 42.064-53.62-1.304-8.283-4.886-15.684-10.07-21.746 12.474-6.22 20.06-19.978 17.778-34.465z"/><path fill="#fff" d="M413.498 505.175c-2.55-16.2-16.56-27.754-32.486-27.733a61.867 61.867 0 0 0-.747-8.87c-5.07-32.19-34.317-54.582-66.364-51.64-5.698-13.646-20.165-22.173-35.447-19.775-9.67 1.517-17.682 7.103-22.578 14.73-9.55-3.418-20.073-4.563-30.802-2.88-31.014 4.87-53.107 31.687-52.9 62.11-1.41.044-2.83.166-4.258.39-18.658 2.928-31.407 20.404-28.473 39.033 1.945 12.355 10.302 22.107 21.15 26.425-15.04 8.436-24.006 25.582-21.168 43.596 3.58 22.737 24.624 38.398 47.34 35.506.01 2.447.204 4.926.597 7.42 4.174 26.503 29.078 44.61 55.625 40.445a48.537 48.537 0 0 0 18.038-6.66c13.342 7.795 29.36 11.216 45.822 8.633 28.08-4.407 49.562-25.04 56.38-50.824.168-.025.335-.047.502-.073 27.222-4.272 46.054-28.28 42.064-53.62-1.304-8.283-4.886-15.684-10.07-21.746 12.474-6.22 20.06-19.978 17.778-34.465z"/><defs><path id="Q" d="M413.498 505.175c-2.55-16.2-16.56-27.754-32.486-27.733a61.867 61.867 0 0 0-.747-8.87c-5.07-32.19-34.317-54.582-66.364-51.64-5.698-13.646-20.165-22.173-35.447-19.775-9.67 1.517-17.682 7.103-22.578 14.73-9.55-3.418-20.073-4.563-30.802-2.88-31.014 4.87-53.107 31.687-52.9 62.11-1.41.044-2.83.166-4.258.39-18.658 2.928-31.407 20.404-28.473 39.033 1.945 12.355 10.302 22.107 21.15 26.425-15.04 8.436-24.006 25.582-21.168 43.596 3.58 22.737 24.624 38.398 47.34 35.506.01 2.447.204 4.926.597 7.42 4.174 26.503 29.078 44.61 55.625 40.445a48.537 48.537 0 0 0 18.038-6.66c13.342 7.795 29.36 11.216 45.822 8.633 28.08-4.407 49.562-25.04 56.38-50.824.168-.025.335-.047.502-.073 27.222-4.272 46.054-28.28 42.064-53.62-1.304-8.283-4.886-15.684-10.07-21.746 12.474-6.22 20.06-19.978 17.778-34.465z"/></defs><clipPath id="R"><use xlink:href="#Q" overflow="visible"/></clipPath><path clip-path="url(#R)" fill="#DCDDDE" stroke="#000" stroke-width="2.611" stroke-linecap="round" stroke-linejoin="round" stroke-miterlimit="10" d="M120.627 482.07L429.29 628.698l-117.077 52.967-173.26-17.464-42.482-127.24z"/><defs><path id="S" d="M413.498 505.175c-2.55-16.2-16.56-27.754-32.486-27.733a61.867 61.867 0 0 0-.747-8.87c-5.07-32.19-34.317-54.582-66.364-51.64-5.698-13.646-20.165-22.173-35.447-19.775-9.67 1.517-17.682 7.103-22.578 14.73-9.55-3.418-20.073-4.563-30.802-2.88-31.014 4.87-53.107 31.687-52.9 62.11-1.41.044-2.83.166-4.258.39-18.658 2.928-31.407 20.404-28.473 39.033 1.945 12.355 10.302 22.107 21.15 26.425-15.04 8.436-24.006 25.582-21.168 43.596 3.58 22.737 24.624 38.398 47.34 35.506.01 2.447.204 4.926.597 7.42 4.174 26.503 29.078 44.61 55.625 40.445a48.537 48.537 0 0 0 18.038-6.66c13.342 7.795 29.36 11.216 45.822 8.633 28.08-4.407 49.562-25.04 56.38-50.824.168-.025.335-.047.502-.073 27.222-4.272 46.054-28.28 42.064-53.62-1.304-8.283-4.886-15.684-10.07-21.746 12.474-6.22 20.06-19.978 17.778-34.465z"/></defs><clipPath id="T"><use xlink:href="#S" overflow="visible"/></clipPath><g clip-path="url(#T)"><path fill="#fff" d="M152.99 538.89c1.445.68 1.465 1.807.045 2.5l-17.43 8.518c-1.42.694-3.762.704-5.207.02l-17.73-8.373c-1.445-.682-1.466-1.808-.046-2.5l17.43-8.52c1.42-.693 3.763-.703 5.207-.02l17.73 8.374z"/><path fill="#DCDDDE" stroke="#000" stroke-width="2.611" stroke-linecap="round" stroke-linejoin="round" stroke-miterlimit="10" d="M152.99 538.89c1.445.68 1.465 1.807.045 2.5l-17.43 8.518c-1.42.694-3.762.704-5.207.02l-17.73-8.373c-1.445-.682-1.466-1.808-.046-2.5l17.43-8.52c1.42-.693 3.763-.703 5.207-.02l17.73 8.374z"/></g><defs><path id="U" d="M413.498 505.175c-2.55-16.2-16.56-27.754-32.486-27.733a61.867 61.867 0 0 0-.747-8.87c-5.07-32.19-34.317-54.582-66.364-51.64-5.698-13.646-20.165-22.173-35.447-19.775-9.67 1.517-17.682 7.103-22.578 14.73-9.55-3.418-20.073-4.563-30.802-2.88-31.014 4.87-53.107 31.687-52.9 62.11-1.41.044-2.83.166-4.258.39-18.658 2.928-31.407 20.404-28.473 39.033 1.945 12.355 10.302 22.107 21.15 26.425-15.04 8.436-24.006 25.582-21.168 43.596 3.58 22.737 24.624 38.398 47.34 35.506.01 2.447.204 4.926.597 7.42 4.174 26.503 29.078 44.61 55.625 40.445a48.537 48.537 0 0 0 18.038-6.66c13.342 7.795 29.36 11.216 45.822 8.633 28.08-4.407 49.562-25.04 56.38-50.824.168-.025.335-.047.502-.073 27.222-4.272 46.054-28.28 42.064-53.62-1.304-8.283-4.886-15.684-10.07-21.746 12.474-6.22 20.06-19.978 17.778-34.465z"/></defs><clipPath id="V"><use xlink:href="#U" overflow="visible"/></clipPath><path fill="#FFE300" d="M274.14 569.33c1.444.683 1.464 1.81.044 2.502l-17.43 8.518c-1.42.694-3.763.703-5.207.02l-17.73-8.373c-1.445-.682-1.465-1.808-.045-2.5l17.43-8.52c1.42-.693 3.763-.703 5.207-.02l17.73 8.374z" clip-path="url(#V)"/><defs><path id="W" d="M413.498 505.175c-2.55-16.2-16.56-27.754-32.486-27.733a61.867 61.867 0 0 0-.747-8.87c-5.07-32.19-34.317-54.582-66.364-51.64-5.698-13.646-20.165-22.173-35.447-19.775-9.67 1.517-17.682 7.103-22.578 14.73-9.55-3.418-20.073-4.563-30.802-2.88-31.014 4.87-53.107 31.687-52.9 62.11-1.41.044-2.83.166-4.258.39-18.658 2.928-31.407 20.404-28.473 39.033 1.945 12.355 10.302 22.107 21.15 26.425-15.04 8.436-24.006 25.582-21.168 43.596 3.58 22.737 24.624 38.398 47.34 35.506.01 2.447.204 4.926.597 7.42 4.174 26.503 29.078 44.61 55.625 40.445a48.537 48.537 0 0 0 18.038-6.66c13.342 7.795 29.36 11.216 45.822 8.633 28.08-4.407 49.562-25.04 56.38-50.824.168-.025.335-.047.502-.073 27.222-4.272 46.054-28.28 42.064-53.62-1.304-8.283-4.886-15.684-10.07-21.746 12.474-6.22 20.06-19.978 17.778-34.465z"/></defs><clipPath id="X"><use xlink:href="#W" overflow="visible"/></clipPath><g clip-path="url(#X)"><path fill="#FFE300" d="M217.258 542.468c1.445.683 1.464 1.808.044 2.5l-17.43 8.52c-1.42.693-3.763.703-5.207.02l-17.73-8.373c-1.445-.682-1.465-1.808-.045-2.5l17.43-8.52c1.42-.693 3.763-.703 5.207-.02l17.73 8.373z"/><path stroke="#000" stroke-width="2.308" stroke-linecap="round" stroke-linejoin="round" stroke-miterlimit="10" d="M217.258 542.468c1.445.683 1.464 1.808.044 2.5l-17.43 8.52c-1.42.693-3.763.703-5.207.02l-17.73-8.373c-1.445-.682-1.465-1.808-.045-2.5l17.43-8.52c1.42-.693 3.763-.703 5.207-.02l17.73 8.373zm56.882 26.862c1.444.683 1.464 1.81.044 2.502l-17.43 8.518c-1.42.694-3.763.703-5.207.02l-17.73-8.373c-1.445-.682-1.465-1.808-.045-2.5l17.43-8.52c1.42-.693 3.763-.703 5.207-.02l17.73 8.374z" fill="none"/></g><defs><path id="Y" d="M413.498 505.175c-2.55-16.2-16.56-27.754-32.486-27.733a61.867 61.867 0 0 0-.747-8.87c-5.07-32.19-34.317-54.582-66.364-51.64-5.698-13.646-20.165-22.173-35.447-19.775-9.67 1.517-17.682 7.103-22.578 14.73-9.55-3.418-20.073-4.563-30.802-2.88-31.014 4.87-53.107 31.687-52.9 62.11-1.41.044-2.83.166-4.258.39-18.658 2.928-31.407 20.404-28.473 39.033 1.945 12.355 10.302 22.107 21.15 26.425-15.04 8.436-24.006 25.582-21.168 43.596 3.58 22.737 24.624 38.398 47.34 35.506.01 2.447.204 4.926.597 7.42 4.174 26.503 29.078 44.61 55.625 40.445a48.537 48.537 0 0 0 18.038-6.66c13.342 7.795 29.36 11.216 45.822 8.633 28.08-4.407 49.562-25.04 56.38-50.824.168-.025.335-.047.502-.073 27.222-4.272 46.054-28.28 42.064-53.62-1.304-8.283-4.886-15.684-10.07-21.746 12.474-6.22 20.06-19.978 17.778-34.465z"/></defs><clipPath id="Z"><use xlink:href="#Y" overflow="visible"/></clipPath><path stroke="#000" stroke-width="2.611" stroke-linecap="round" stroke-linejoin="round" stroke-miterlimit="10" d="M245.724 555.91c1.444.683 1.464 1.81.044 2.502l-17.43 8.518c-1.42.694-3.762.704-5.207.022l-17.73-8.373c-1.445-.683-1.465-1.81-.045-2.502l17.43-8.518c1.42-.694 3.764-.704 5.208-.022l17.73 8.373z" fill="none" clip-path="url(#Z)"/><defs><path id="aa" d="M413.498 505.175c-2.55-16.2-16.56-27.754-32.486-27.733a61.867 61.867 0 0 0-.747-8.87c-5.07-32.19-34.317-54.582-66.364-51.64-5.698-13.646-20.165-22.173-35.447-19.775-9.67 1.517-17.682 7.103-22.578 14.73-9.55-3.418-20.073-4.563-30.802-2.88-31.014 4.87-53.107 31.687-52.9 62.11-1.41.044-2.83.166-4.258.39-18.658 2.928-31.407 20.404-28.473 39.033 1.945 12.355 10.302 22.107 21.15 26.425-15.04 8.436-24.006 25.582-21.168 43.596 3.58 22.737 24.624 38.398 47.34 35.506.01 2.447.204 4.926.597 7.42 4.174 26.503 29.078 44.61 55.625 40.445a48.537 48.537 0 0 0 18.038-6.66c13.342 7.795 29.36 11.216 45.822 8.633 28.08-4.407 49.562-25.04 56.38-50.824.168-.025.335-.047.502-.073 27.222-4.272 46.054-28.28 42.064-53.62-1.304-8.283-4.886-15.684-10.07-21.746 12.474-6.22 20.06-19.978 17.778-34.465z"/></defs><clipPath id="ab"><use xlink:href="#aa" overflow="visible"/></clipPath><path stroke="#000" stroke-width="2.611" stroke-linecap="round" stroke-linejoin="round" stroke-miterlimit="10" d="M217.48 569.713c1.443.682 1.464 1.808.043 2.5l-17.43 8.52c-1.42.693-3.763.703-5.207.02l-17.73-8.373c-1.445-.682-1.465-1.808-.045-2.5l17.43-8.52c1.42-.693 3.763-.703 5.208-.02l17.73 8.373z" fill="none" clip-path="url(#ab)"/><defs><path id="ac" d="M413.498 505.175c-2.55-16.2-16.56-27.754-32.486-27.733a61.867 61.867 0 0 0-.747-8.87c-5.07-32.19-34.317-54.582-66.364-51.64-5.698-13.646-20.165-22.173-35.447-19.775-9.67 1.517-17.682 7.103-22.578 14.73-9.55-3.418-20.073-4.563-30.802-2.88-31.014 4.87-53.107 31.687-52.9 62.11-1.41.044-2.83.166-4.258.39-18.658 2.928-31.407 20.404-28.473 39.033 1.945 12.355 10.302 22.107 21.15 26.425-15.04 8.436-24.006 25.582-21.168 43.596 3.58 22.737 24.624 38.398 47.34 35.506.01 2.447.204 4.926.597 7.42 4.174 26.503 29.078 44.61 55.625 40.445a48.537 48.537 0 0 0 18.038-6.66c13.342 7.795 29.36 11.216 45.822 8.633 28.08-4.407 49.562-25.04 56.38-50.824.168-.025.335-.047.502-.073 27.222-4.272 46.054-28.28 42.064-53.62-1.304-8.283-4.886-15.684-10.07-21.746 12.474-6.22 20.06-19.978 17.778-34.465z"/></defs><clipPath id="ad"><use xlink:href="#ac" overflow="visible"/></clipPath><g clip-path="url(#ad)"><path fill="#fff" d="M367.892 640.47c1.445.682 1.464 1.808.045 2.5l-17.43 8.52c-1.42.693-3.764.703-5.208.02l-17.73-8.373c-1.445-.682-1.465-1.808-.045-2.5l17.43-8.52c1.42-.693 3.763-.702 5.207-.02l17.73 8.373z"/><path fill="#DCDDDE" stroke="#000" stroke-width="2.611" stroke-linecap="round" stroke-linejoin="round" stroke-miterlimit="10" d="M367.892 640.47c1.445.682 1.464 1.808.045 2.5l-17.43 8.52c-1.42.693-3.764.703-5.208.02l-17.73-8.373c-1.445-.682-1.465-1.808-.045-2.5l17.43-8.52c1.42-.693 3.763-.702 5.207-.02l17.73 8.373zm-41.094 8.317c1.445.682 1.465 1.808.045 2.5l-17.43 8.52c-1.42.693-3.763.703-5.208.02l-17.73-8.373c-1.445-.682-1.465-1.808-.044-2.5l17.43-8.52c1.42-.693 3.764-.702 5.208-.02l17.73 8.373zm-46.924 4.158c1.444.682 1.465 1.808.045 2.5l-17.43 8.52c-1.42.693-3.764.703-5.208.02l-17.73-8.373c-1.445-.682-1.464-1.808-.044-2.5l17.43-8.52c1.42-.693 3.762-.702 5.207-.02l17.73 8.373zm27.211 14.415c1.444.682 1.464 1.808.045 2.5l-17.43 8.52c-1.42.693-3.763.703-5.207.02l-17.73-8.373c-1.445-.682-1.465-1.808-.045-2.5l17.43-8.52c1.42-.693 3.762-.702 5.206-.02l17.73 8.373z"/></g><defs><path id="ae" d="M413.498 505.175c-2.55-16.2-16.56-27.754-32.486-27.733a61.867 61.867 0 0 0-.747-8.87c-5.07-32.19-34.317-54.582-66.364-51.64-5.698-13.646-20.165-22.173-35.447-19.775-9.67 1.517-17.682 7.103-22.578 14.73-9.55-3.418-20.073-4.563-30.802-2.88-31.014 4.87-53.107 31.687-52.9 62.11-1.41.044-2.83.166-4.258.39-18.658 2.928-31.407 20.404-28.473 39.033 1.945 12.355 10.302 22.107 21.15 26.425-15.04 8.436-24.006 25.582-21.168 43.596 3.58 22.737 24.624 38.398 47.34 35.506.01 2.447.204 4.926.597 7.42 4.174 26.503 29.078 44.61 55.625 40.445a48.537 48.537 0 0 0 18.038-6.66c13.342 7.795 29.36 11.216 45.822 8.633 28.08-4.407 49.562-25.04 56.38-50.824.168-.025.335-.047.502-.073 27.222-4.272 46.054-28.28 42.064-53.62-1.304-8.283-4.886-15.684-10.07-21.746 12.474-6.22 20.06-19.978 17.778-34.465z"/></defs><clipPath id="af"><use xlink:href="#ae" overflow="visible"/></clipPath><g clip-path="url(#af)"><path fill="#fff" d="M283.34 600.537c1.444.682 1.464 1.808.044 2.5l-17.43 8.52c-1.42.693-3.762.703-5.207.02l-17.73-8.373c-1.445-.682-1.464-1.808-.044-2.5l17.43-8.52c1.42-.693 3.762-.702 5.207-.02l17.73 8.373z"/><path fill="#DCDDDE" stroke="#000" stroke-width="2.611" stroke-linecap="round" stroke-linejoin="round" stroke-miterlimit="10" d="M283.34 600.537c1.444.682 1.464 1.808.044 2.5l-17.43 8.52c-1.42.693-3.762.703-5.207.02l-17.73-8.373c-1.445-.682-1.464-1.808-.044-2.5l17.43-8.52c1.42-.693 3.762-.702 5.207-.02l17.73 8.373z"/></g><defs><path id="ag" d="M413.498 505.175c-2.55-16.2-16.56-27.754-32.486-27.733a61.867 61.867 0 0 0-.747-8.87c-5.07-32.19-34.317-54.582-66.364-51.64-5.698-13.646-20.165-22.173-35.447-19.775-9.67 1.517-17.682 7.103-22.578 14.73-9.55-3.418-20.073-4.563-30.802-2.88-31.014 4.87-53.107 31.687-52.9 62.11-1.41.044-2.83.166-4.258.39-18.658 2.928-31.407 20.404-28.473 39.033 1.945 12.355 10.302 22.107 21.15 26.425-15.04 8.436-24.006 25.582-21.168 43.596 3.58 22.737 24.624 38.398 47.34 35.506.01 2.447.204 4.926.597 7.42 4.174 26.503 29.078 44.61 55.625 40.445a48.537 48.537 0 0 0 18.038-6.66c13.342 7.795 29.36 11.216 45.822 8.633 28.08-4.407 49.562-25.04 56.38-50.824.168-.025.335-.047.502-.073 27.222-4.272 46.054-28.28 42.064-53.62-1.304-8.283-4.886-15.684-10.07-21.746 12.474-6.22 20.06-19.978 17.778-34.465z"/></defs><clipPath id="ah"><use xlink:href="#ag" overflow="visible"/></clipPath><path fill="#DCDDDE" stroke="#000" stroke-width="2.611" stroke-linecap="round" stroke-linejoin="round" stroke-miterlimit="10" d="M180.82 525.258c1.443.682 1.464 1.808.044 2.5l-17.43 8.52c-1.42.693-3.763.703-5.207.02l-46.113-21.777c-1.445-.68-1.465-1.807-.045-2.5l17.43-8.518c1.42-.694 3.762-.704 5.206-.02l46.113 21.776z" clip-path="url(#ah)"/><defs><path id="ai" d="M413.498 505.175c-2.55-16.2-16.56-27.754-32.486-27.733a61.867 61.867 0 0 0-.747-8.87c-5.07-32.19-34.317-54.582-66.364-51.64-5.698-13.646-20.165-22.173-35.447-19.775-9.67 1.517-17.682 7.103-22.578 14.73-9.55-3.418-20.073-4.563-30.802-2.88-31.014 4.87-53.107 31.687-52.9 62.11-1.41.044-2.83.166-4.258.39-18.658 2.928-31.407 20.404-28.473 39.033 1.945 12.355 10.302 22.107 21.15 26.425-15.04 8.436-24.006 25.582-21.168 43.596 3.58 22.737 24.624 38.398 47.34 35.506.01 2.447.204 4.926.597 7.42 4.174 26.503 29.078 44.61 55.625 40.445a48.537 48.537 0 0 0 18.038-6.66c13.342 7.795 29.36 11.216 45.822 8.633 28.08-4.407 49.562-25.04 56.38-50.824.168-.025.335-.047.502-.073 27.222-4.272 46.054-28.28 42.064-53.62-1.304-8.283-4.886-15.684-10.07-21.746 12.474-6.22 20.06-19.978 17.778-34.465z"/></defs><clipPath id="aj"><use xlink:href="#ai" overflow="visible"/></clipPath><g clip-path="url(#aj)"><path fill="#fff" d="M324.856 593.463c1.445.682 1.465 1.808.045 2.5l-17.43 8.52c-1.42.693-3.76.703-5.206.02l-31.482-14.868c-1.444-.682-1.464-1.808-.044-2.5l17.43-8.52c1.42-.693 3.762-.703 5.207-.02l31.48 14.868z"/><path fill="#DCDDDE" stroke="#000" stroke-width="2.611" stroke-linecap="round" stroke-linejoin="round" stroke-miterlimit="10" d="M324.856 593.463c1.445.682 1.465 1.808.045 2.5l-17.43 8.52c-1.42.693-3.76.703-5.206.02l-31.482-14.868c-1.444-.682-1.464-1.808-.044-2.5l17.43-8.52c1.42-.693 3.762-.703 5.207-.02l31.48 14.868z"/></g><defs><path id="ak" d="M413.498 505.175c-2.55-16.2-16.56-27.754-32.486-27.733a61.867 61.867 0 0 0-.747-8.87c-5.07-32.19-34.317-54.582-66.364-51.64-5.698-13.646-20.165-22.173-35.447-19.775-9.67 1.517-17.682 7.103-22.578 14.73-9.55-3.418-20.073-4.563-30.802-2.88-31.014 4.87-53.107 31.687-52.9 62.11-1.41.044-2.83.166-4.258.39-18.658 2.928-31.407 20.404-28.473 39.033 1.945 12.355 10.302 22.107 21.15 26.425-15.04 8.436-24.006 25.582-21.168 43.596 3.58 22.737 24.624 38.398 47.34 35.506.01 2.447.204 4.926.597 7.42 4.174 26.503 29.078 44.61 55.625 40.445a48.537 48.537 0 0 0 18.038-6.66c13.342 7.795 29.36 11.216 45.822 8.633 28.08-4.407 49.562-25.04 56.38-50.824.168-.025.335-.047.502-.073 27.222-4.272 46.054-28.28 42.064-53.62-1.304-8.283-4.886-15.684-10.07-21.746 12.474-6.22 20.06-19.978 17.778-34.465z"/></defs><clipPath id="al"><use xlink:href="#ak" overflow="visible"/></clipPath><g clip-path="url(#al)"><path fill="#fff" d="M367.158 613.44c1.444.683 1.465 1.81.045 2.502l-17.43 8.518c-1.42.694-3.763.704-5.207.022l-31.483-14.87c-1.444-.68-1.464-1.807-.044-2.5l17.43-8.518c1.42-.694 3.762-.703 5.206-.02l31.482 14.867z"/><path fill="#DCDDDE" stroke="#000" stroke-width="2.611" stroke-linecap="round" stroke-linejoin="round" stroke-miterlimit="10" d="M367.158 613.44c1.444.683 1.465 1.81.045 2.502l-17.43 8.518c-1.42.694-3.763.704-5.207.022l-31.483-14.87c-1.444-.68-1.464-1.807-.044-2.5l17.43-8.518c1.42-.694 3.762-.703 5.206-.02l31.482 14.867z"/></g><defs><path id="am" d="M413.498 505.175c-2.55-16.2-16.56-27.754-32.486-27.733a61.867 61.867 0 0 0-.747-8.87c-5.07-32.19-34.317-54.582-66.364-51.64-5.698-13.646-20.165-22.173-35.447-19.775-9.67 1.517-17.682 7.103-22.578 14.73-9.55-3.418-20.073-4.563-30.802-2.88-31.014 4.87-53.107 31.687-52.9 62.11-1.41.044-2.83.166-4.258.39-18.658 2.928-31.407 20.404-28.473 39.033 1.945 12.355 10.302 22.107 21.15 26.425-15.04 8.436-24.006 25.582-21.168 43.596 3.58 22.737 24.624 38.398 47.34 35.506.01 2.447.204 4.926.597 7.42 4.174 26.503 29.078 44.61 55.625 40.445a48.537 48.537 0 0 0 18.038-6.66c13.342 7.795 29.36 11.216 45.822 8.633 28.08-4.407 49.562-25.04 56.38-50.824.168-.025.335-.047.502-.073 27.222-4.272 46.054-28.28 42.064-53.62-1.304-8.283-4.886-15.684-10.07-21.746 12.474-6.22 20.06-19.978 17.778-34.465z"/></defs><clipPath id="an"><use xlink:href="#am" overflow="visible"/></clipPath><g clip-path="url(#an)"><path fill="#fff" d="M339.39 627.01c1.446.682 1.466 1.808.046 2.5l-17.43 8.52c-1.42.693-3.763.703-5.207.02l-45.16-21.327c-1.444-.682-1.464-1.808-.044-2.5l17.43-8.52c1.42-.693 3.762-.703 5.206-.02l45.16 21.327z"/><path fill="#DCDDDE" stroke="#000" stroke-width="2.611" stroke-linecap="round" stroke-linejoin="round" stroke-miterlimit="10" d="M339.39 627.01c1.446.682 1.466 1.808.046 2.5l-17.43 8.52c-1.42.693-3.763.703-5.207.02l-45.16-21.327c-1.444-.682-1.464-1.808-.044-2.5l17.43-8.52c1.42-.693 3.762-.703 5.206-.02l45.16 21.327z"/></g><defs><path id="ao" d="M413.498 505.175c-2.55-16.2-16.56-27.754-32.486-27.733a61.867 61.867 0 0 0-.747-8.87c-5.07-32.19-34.317-54.582-66.364-51.64-5.698-13.646-20.165-22.173-35.447-19.775-9.67 1.517-17.682 7.103-22.578 14.73-9.55-3.418-20.073-4.563-30.802-2.88-31.014 4.87-53.107 31.687-52.9 62.11-1.41.044-2.83.166-4.258.39-18.658 2.928-31.407 20.404-28.473 39.033 1.945 12.355 10.302 22.107 21.15 26.425-15.04 8.436-24.006 25.582-21.168 43.596 3.58 22.737 24.624 38.398 47.34 35.506.01 2.447.204 4.926.597 7.42 4.174 26.503 29.078 44.61 55.625 40.445a48.537 48.537 0 0 0 18.038-6.66c13.342 7.795 29.36 11.216 45.822 8.633 28.08-4.407 49.562-25.04 56.38-50.824.168-.025.335-.047.502-.073 27.222-4.272 46.054-28.28 42.064-53.62-1.304-8.283-4.886-15.684-10.07-21.746 12.474-6.22 20.06-19.978 17.778-34.465z"/></defs><clipPath id="ap"><use xlink:href="#ao" overflow="visible"/></clipPath><g clip-path="url(#ap)"><path fill="#fff" d="M298.232 634.37c1.445.682 1.465 1.808.045 2.5l-17.398 8.504c-1.42.694-3.764.703-5.208.02l-10.374-4.9c-1.444-.68-3.898-1.493-5.454-1.804-1.555-.31-6.287 1.126-7.707 1.82l-18.607 9.093c-1.42.694-3.763.704-5.207.022l-40.835-19.286c-1.445-.683-1.465-1.81-.045-2.502l45.07-22.025c1.42-.694 3.763-.704 5.208-.02l60.512 28.577z"/><path fill="#DCDDDE" stroke="#000" stroke-width="2.611" stroke-linecap="round" stroke-linejoin="round" stroke-miterlimit="10" d="M298.232 634.37c1.445.682 1.465 1.808.045 2.5l-17.398 8.504c-1.42.694-3.764.703-5.208.02l-10.374-4.9c-1.444-.68-3.898-1.493-5.454-1.804-1.555-.31-6.287 1.126-7.707 1.82l-18.607 9.093c-1.42.694-3.763.704-5.207.022l-40.835-19.286c-1.445-.683-1.465-1.81-.045-2.502l45.07-22.025c1.42-.694 3.763-.704 5.208-.02l60.512 28.577z"/></g><defs><path id="aq" d="M413.498 505.175c-2.55-16.2-16.56-27.754-32.486-27.733a61.867 61.867 0 0 0-.747-8.87c-5.07-32.19-34.317-54.582-66.364-51.64-5.698-13.646-20.165-22.173-35.447-19.775-9.67 1.517-17.682 7.103-22.578 14.73-9.55-3.418-20.073-4.563-30.802-2.88-31.014 4.87-53.107 31.687-52.9 62.11-1.41.044-2.83.166-4.258.39-18.658 2.928-31.407 20.404-28.473 39.033 1.945 12.355 10.302 22.107 21.15 26.425-15.04 8.436-24.006 25.582-21.168 43.596 3.58 22.737 24.624 38.398 47.34 35.506.01 2.447.204 4.926.597 7.42 4.174 26.503 29.078 44.61 55.625 40.445a48.537 48.537 0 0 0 18.038-6.66c13.342 7.795 29.36 11.216 45.822 8.633 28.08-4.407 49.562-25.04 56.38-50.824.168-.025.335-.047.502-.073 27.222-4.272 46.054-28.28 42.064-53.62-1.304-8.283-4.886-15.684-10.07-21.746 12.474-6.22 20.06-19.978 17.778-34.465z"/></defs><clipPath id="ar"><use xlink:href="#aq" overflow="visible"/></clipPath><path clip-path="url(#ar)" d="M256.456 566.354L259 572.7l-13.252-1.114z"/><defs><path id="as" d="M413.498 505.175c-2.55-16.2-16.56-27.754-32.486-27.733a61.867 61.867 0 0 0-.747-8.87c-5.07-32.19-34.317-54.582-66.364-51.64-5.698-13.646-20.165-22.173-35.447-19.775-9.67 1.517-17.682 7.103-22.578 14.73-9.55-3.418-20.073-4.563-30.802-2.88-31.014 4.87-53.107 31.687-52.9 62.11-1.41.044-2.83.166-4.258.39-18.658 2.928-31.407 20.404-28.473 39.033 1.945 12.355 10.302 22.107 21.15 26.425-15.04 8.436-24.006 25.582-21.168 43.596 3.58 22.737 24.624 38.398 47.34 35.506.01 2.447.204 4.926.597 7.42 4.174 26.503 29.078 44.61 55.625 40.445a48.537 48.537 0 0 0 18.038-6.66c13.342 7.795 29.36 11.216 45.822 8.633 28.08-4.407 49.562-25.04 56.38-50.824.168-.025.335-.047.502-.073 27.222-4.272 46.054-28.28 42.064-53.62-1.304-8.283-4.886-15.684-10.07-21.746 12.474-6.22 20.06-19.978 17.778-34.465z"/></defs><clipPath id="at"><use xlink:href="#as" overflow="visible"/></clipPath><path clip-path="url(#at)" d="M217.533 556.142l13.207-1.222-2.316 6.365z"/><defs><path id="au" d="M413.498 505.175c-2.55-16.2-16.56-27.754-32.486-27.733a61.867 61.867 0 0 0-.747-8.87c-5.07-32.19-34.317-54.582-66.364-51.64-5.698-13.646-20.165-22.173-35.447-19.775-9.67 1.517-17.682 7.103-22.578 14.73-9.55-3.418-20.073-4.563-30.802-2.88-31.014 4.87-53.107 31.687-52.9 62.11-1.41.044-2.83.166-4.258.39-18.658 2.928-31.407 20.404-28.473 39.033 1.945 12.355 10.302 22.107 21.15 26.425-15.04 8.436-24.006 25.582-21.168 43.596 3.58 22.737 24.624 38.398 47.34 35.506.01 2.447.204 4.926.597 7.42 4.174 26.503 29.078 44.61 55.625 40.445a48.537 48.537 0 0 0 18.038-6.66c13.342 7.795 29.36 11.216 45.822 8.633 28.08-4.407 49.562-25.04 56.38-50.824.168-.025.335-.047.502-.073 27.222-4.272 46.054-28.28 42.064-53.62-1.304-8.283-4.886-15.684-10.07-21.746 12.474-6.22 20.06-19.978 17.778-34.465z"/></defs><clipPath id="av"><use xlink:href="#au" overflow="visible"/></clipPath><path clip-path="url(#av)" d="M205.99 572.25l-13.21 1.22 2.318-6.365z"/><defs><path id="aw" d="M413.498 505.175c-2.55-16.2-16.56-27.754-32.486-27.733a61.867 61.867 0 0 0-.747-8.87c-5.07-32.19-34.317-54.582-66.364-51.64-5.698-13.646-20.165-22.173-35.447-19.775-9.67 1.517-17.682 7.103-22.578 14.73-9.55-3.418-20.073-4.563-30.802-2.88-31.014 4.87-53.107 31.687-52.9 62.11-1.41.044-2.83.166-4.258.39-18.658 2.928-31.407 20.404-28.473 39.033 1.945 12.355 10.302 22.107 21.15 26.425-15.04 8.436-24.006 25.582-21.168 43.596 3.58 22.737 24.624 38.398 47.34 35.506.01 2.447.204 4.926.597 7.42 4.174 26.503 29.078 44.61 55.625 40.445a48.537 48.537 0 0 0 18.038-6.66c13.342 7.795 29.36 11.216 45.822 8.633 28.08-4.407 49.562-25.04 56.38-50.824.168-.025.335-.047.502-.073 27.222-4.272 46.054-28.28 42.064-53.62-1.304-8.283-4.886-15.684-10.07-21.746 12.474-6.22 20.06-19.978 17.778-34.465z"/></defs><clipPath id="ax"><use xlink:href="#aw" overflow="visible"/></clipPath><path clip-path="url(#ax)" d="M205.806 542.433l-13.25-1.113 2.544 6.345z"/><defs><path id="ay" d="M413.498 505.175c-2.55-16.2-16.56-27.754-32.486-27.733a61.867 61.867 0 0 0-.747-8.87c-5.07-32.19-34.317-54.582-66.364-51.64-5.698-13.646-20.165-22.173-35.447-19.775-9.67 1.517-17.682 7.103-22.578 14.73-9.55-3.418-20.073-4.563-30.802-2.88-31.014 4.87-53.107 31.687-52.9 62.11-1.41.044-2.83.166-4.258.39-18.658 2.928-31.407 20.404-28.473 39.033 1.945 12.355 10.302 22.107 21.15 26.425-15.04 8.436-24.006 25.582-21.168 43.596 3.58 22.737 24.624 38.398 47.34 35.506.01 2.447.204 4.926.597 7.42 4.174 26.503 29.078 44.61 55.625 40.445a48.537 48.537 0 0 0 18.038-6.66c13.342 7.795 29.36 11.216 45.822 8.633 28.08-4.407 49.562-25.04 56.38-50.824.168-.025.335-.047.502-.073 27.222-4.272 46.054-28.28 42.064-53.62-1.304-8.283-4.886-15.684-10.07-21.746 12.474-6.22 20.06-19.978 17.778-34.465z"/></defs><clipPath id="az"><use xlink:href="#ay" overflow="visible"/></clipPath><path clip-path="url(#az)" stroke="#000" stroke-width="2.611" stroke-linecap="round" stroke-linejoin="round" stroke-miterlimit="10" d="M215.283 522.128c-7.253-7.114-1.943-10.914 4.756-18.6 5.058-5.8 18.262-18.744 18.262-18.744 3.132-3.847 7.968-5.918 12.36-7.564 4.39-1.646 33.788-11.453 35.094-11.426 8.783-3.29 47.355 5.798 70.24-5.02 22.884-10.817 36.605-20.96 36.605-20.96" fill="none"/><defs><path id="aA" d="M413.498 505.175c-2.55-16.2-16.56-27.754-32.486-27.733a61.867 61.867 0 0 0-.747-8.87c-5.07-32.19-34.317-54.582-66.364-51.64-5.698-13.646-20.165-22.173-35.447-19.775-9.67 1.517-17.682 7.103-22.578 14.73-9.55-3.418-20.073-4.563-30.802-2.88-31.014 4.87-53.107 31.687-52.9 62.11-1.41.044-2.83.166-4.258.39-18.658 2.928-31.407 20.404-28.473 39.033 1.945 12.355 10.302 22.107 21.15 26.425-15.04 8.436-24.006 25.582-21.168 43.596 3.58 22.737 24.624 38.398 47.34 35.506.01 2.447.204 4.926.597 7.42 4.174 26.503 29.078 44.61 55.625 40.445a48.537 48.537 0 0 0 18.038-6.66c13.342 7.795 29.36 11.216 45.822 8.633 28.08-4.407 49.562-25.04 56.38-50.824.168-.025.335-.047.502-.073 27.222-4.272 46.054-28.28 42.064-53.62-1.304-8.283-4.886-15.684-10.07-21.746 12.474-6.22 20.06-19.978 17.778-34.465z"/></defs><clipPath id="aB"><use xlink:href="#aA" overflow="visible"/></clipPath><path clip-path="url(#aB)" fill="#fff" stroke="#000" stroke-width="2.611" stroke-linecap="round" stroke-linejoin="round" stroke-miterlimit="10" d="M278.265 476.255c-11.388 2.795-29.938 6.525-39.02 11.657-6.704 3.79-36.312 16.38-42.17 19.997-13.81 4.422-10.29 26.825 9.67 17.017l35.82-12.39 54.047-13.515"/><defs><path id="aC" d="M413.498 505.175c-2.55-16.2-16.56-27.754-32.486-27.733a61.867 61.867 0 0 0-.747-8.87c-5.07-32.19-34.317-54.582-66.364-51.64-5.698-13.646-20.165-22.173-35.447-19.775-9.67 1.517-17.682 7.103-22.578 14.73-9.55-3.418-20.073-4.563-30.802-2.88-31.014 4.87-53.107 31.687-52.9 62.11-1.41.044-2.83.166-4.258.39-18.658 2.928-31.407 20.404-28.473 39.033 1.945 12.355 10.302 22.107 21.15 26.425-15.04 8.436-24.006 25.582-21.168 43.596 3.58 22.737 24.624 38.398 47.34 35.506.01 2.447.204 4.926.597 7.42 4.174 26.503 29.078 44.61 55.625 40.445a48.537 48.537 0 0 0 18.038-6.66c13.342 7.795 29.36 11.216 45.822 8.633 28.08-4.407 49.562-25.04 56.38-50.824.168-.025.335-.047.502-.073 27.222-4.272 46.054-28.28 42.064-53.62-1.304-8.283-4.886-15.684-10.07-21.746 12.474-6.22 20.06-19.978 17.778-34.465z"/></defs><clipPath id="aD"><use xlink:href="#aC" overflow="visible"/></clipPath><path clip-path="url(#aD)" fill="#fff" stroke="#000" stroke-width="2.611" stroke-linecap="round" stroke-linejoin="round" stroke-miterlimit="10" d="M309.08 484.764l-31.112 21.834c-5.282 4.62-9.536 9.92-11.15 12.91l-20.28 32.535c-8.25 11.877 9.206 23.423 20.778 8.212 0 0 23.444-28.807 24.683-29.405 4.736-2.285 27.42-14.356 27.42-14.356 19.957-9.137 27.02 2.06 36.934 4.93l21.913-18.062"/><defs><path id="aE" d="M413.498 505.175c-2.55-16.2-16.56-27.754-32.486-27.733a61.867 61.867 0 0 0-.747-8.87c-5.07-32.19-34.317-54.582-66.364-51.64-5.698-13.646-20.165-22.173-35.447-19.775-9.67 1.517-17.682 7.103-22.578 14.73-9.55-3.418-20.073-4.563-30.802-2.88-31.014 4.87-53.107 31.687-52.9 62.11-1.41.044-2.83.166-4.258.39-18.658 2.928-31.407 20.404-28.473 39.033 1.945 12.355 10.302 22.107 21.15 26.425-15.04 8.436-24.006 25.582-21.168 43.596 3.58 22.737 24.624 38.398 47.34 35.506.01 2.447.204 4.926.597 7.42 4.174 26.503 29.078 44.61 55.625 40.445a48.537 48.537 0 0 0 18.038-6.66c13.342 7.795 29.36 11.216 45.822 8.633 28.08-4.407 49.562-25.04 56.38-50.824.168-.025.335-.047.502-.073 27.222-4.272 46.054-28.28 42.064-53.62-1.304-8.283-4.886-15.684-10.07-21.746 12.474-6.22 20.06-19.978 17.778-34.465z"/></defs><clipPath id="aF"><use xlink:href="#aE" overflow="visible"/></clipPath><path clip-path="url(#aF)" fill="#fff" stroke="#000" stroke-width="2.611" stroke-linecap="round" stroke-linejoin="round" stroke-miterlimit="10" d="M348.417 512.415c.435 6.523-2.777 12.907-12.634 21.622-9.718 8.593-20.824 15.524-20.824 15.524-19.16 12.476-10.83 35.484 12.494 23.287l35.21-21.43c16.115-8.26 27.04-26.5 32.664-45.22 1.307-4.347 22.21-16.522 22.21-16.522"/></svg>