<svg xmlns="http://www.w3.org/2000/svg" xmlns:xlink="http://www.w3.org/1999/xlink" width="550" height="270" viewBox="-137.5 0 550 270" enable-background="new -137.5 0 550 270"><path fill="#fff" d="M412.1 108.4c-2.6-16.2-16.6-27.8-32.5-27.7 0-2.9-.3-5.9-.7-8.9-5.1-32.2-34.3-54.6-66.4-51.6C306.8 6.5 292.3-2 277.1.4c-9.7 1.5-17.7 7.1-22.6 14.7-9.6-3.4-20.1-4.6-30.8-2.9-31 4.9-53.1 31.7-52.9 62.1-1.4 0-2.8.2-4.3.4-18.7 2.9-31.4 20.4-28.5 39 1.9 12.4 10.3 22.1 21.2 26.4-15 8.4-24 25.6-21.2 43.6 3.6 22.7 24.6 38.4 47.3 35.5 0 2.4.2 4.9.6 7.4 4.2 26.5 29.1 44.6 55.6 40.4 6.6-1 12.7-3.4 18-6.7 13.3 7.8 29.4 11.2 45.8 8.6 28.1-4.4 49.6-25 56.4-50.8.2 0 .3 0 .5-.1 27.2-4.3 46.1-28.3 42.1-53.6-1.3-8.3-4.9-15.7-10.1-21.7 12.6-6 20.2-19.8 17.9-34.3z"/><path fill="#fff" d="M137.1 108.4c-2.6-16.2-16.6-27.8-32.5-27.7 0-2.9-.3-5.9-.7-8.9-5.1-32.2-34.3-54.6-66.4-51.6C31.8 6.5 17.3-2 2.1.4c-9.7 1.5-17.7 7.1-22.6 14.7-9.6-3.4-20.1-4.6-30.8-2.9-31 4.9-53.1 31.7-52.9 62.1-1.4 0-2.8.2-4.3.4-18.7 2.9-31.4 20.4-28.5 39 1.9 12.4 10.3 22.1 21.2 26.4-15 8.4-24 25.6-21.2 43.6 3.6 22.7 24.6 38.4 47.3 35.5 0 2.4.2 4.9.6 7.4 4.2 26.5 29.1 44.6 55.6 40.4 6.6-1 12.7-3.4 18-6.7 13.3 7.8 29.4 11.2 45.8 8.6 28.1-4.4 49.6-25 56.4-50.8.2 0 .3 0 .5-.1 27.2-4.3 46.1-28.3 42.1-53.6-1.3-8.3-4.9-15.7-10.1-21.7 12.6-6 20.2-19.8 17.9-34.3z"/><path fill="#fff" d="M363.4 191.1H186.6c-2.6 0-4.6-2.1-4.6-4.6v-101c0-2.6 2.1-4.6 4.6-4.6h176.8c2.6 0 4.6 2.1 4.6 4.6v101c0 2.6-2 4.6-4.6 4.6z"/><path fill="#231F20" d="M363.4 192.1H186.6c-3.1 0-5.6-2.5-5.6-5.6v-101c0-3.1 2.5-5.6 5.6-5.6h176.8c3.1 0 5.6 2.5 5.6 5.6v101c0 3.1-2.5 5.6-5.6 5.6zM186.6 81.8c-2 0-3.7 1.7-3.7 3.7v101c0 2 1.7 3.7 3.7 3.7h176.8c2 0 3.7-1.7 3.7-3.7v-101c0-2-1.7-3.7-3.7-3.7H186.6z"/><path fill="#fff" d="M330.9 118.6h32.9v65.5h-32.9z"/><path fill="#231F20" d="M363.9 185H331c-.5 0-.9-.4-.9-.9v-65.5c0-.5.4-.9.9-.9h32.9c.5 0 .9.4.9.9v65.5c0 .5-.4.9-.9.9zm-32-1.9H363v-63.6h-31.1v63.6z"/><path fill="#fff" d="M335 123.6h5.2v7.5H335z"/><path fill="#231F20" d="M340.1 131.9H335c-.5 0-.9-.4-.9-.9v-7.5c0-.5.4-.9.9-.9h5.2c.5 0 .9.4.9.9v7.5c0 .5-.4.9-1 .9zm-4.2-1.8h3.3v-5.6h-3.3v5.6z"/><path fill="#fff" d="M344.6 123.6h5.2v7.5h-5.2z"/><path fill="#231F20" d="M349.8 131.9h-5.2c-.5 0-.9-.4-.9-.9v-7.5c0-.5.4-.9.9-.9h5.2c.5 0 .9.4.9.9v7.5c0 .5-.4.9-.9.9zm-4.3-1.8h3.3v-5.6h-3.3v5.6z"/><path fill="#fff" d="M354.2 123.6h5.2v7.5h-5.2z"/><path fill="#231F20" d="M359.4 131.9h-5.2c-.5 0-.9-.4-.9-.9v-7.5c0-.5.4-.9.9-.9h5.2c.5 0 .9.4.9.9v7.5c.1.5-.3.9-.9.9zm-4.2-1.8h3.3v-5.6h-3.3v5.6z"/><path fill="#fff" d="M335 134.7h5.2v7.5H335z"/><path fill="#231F20" d="M340.1 143.1H335c-.5 0-.9-.4-.9-.9v-7.5c0-.5.4-.9.9-.9h5.2c.5 0 .9.4.9.9v7.5c0 .4-.4.9-1 .9zm-4.2-1.9h3.3v-5.6h-3.3v5.6z"/><path fill="#fff" d="M344.6 134.7h5.2v7.5h-5.2z"/><path fill="#231F20" d="M349.8 143.1h-5.2c-.5 0-.9-.4-.9-.9v-7.5c0-.5.4-.9.9-.9h5.2c.5 0 .9.4.9.9v7.5c0 .4-.4.9-.9.9zm-4.3-1.9h3.3v-5.6h-3.3v5.6z"/><path fill="#fff" d="M354.2 134.7h5.2v7.5h-5.2z"/><path fill="#231F20" d="M359.4 143.1h-5.2c-.5 0-.9-.4-.9-.9v-7.5c0-.5.4-.9.9-.9h5.2c.5 0 .9.4.9.9v7.5c.1.4-.3.9-.9.9zm-4.2-1.9h3.3v-5.6h-3.3v5.6z"/><path fill="#fff" d="M335 145.8h5.2v7.5H335z"/><path fill="#231F20" d="M340.1 154.2H335c-.5 0-.9-.4-.9-.9v-7.5c0-.5.4-.9.9-.9h5.2c.5 0 .9.4.9.9v7.5c0 .5-.4.9-1 .9zm-4.2-1.9h3.3v-5.6h-3.3v5.6z"/><path fill="#fff" d="M344.6 145.8h5.2v7.5h-5.2z"/><path fill="#231F20" d="M349.8 154.2h-5.2c-.5 0-.9-.4-.9-.9v-7.5c0-.5.4-.9.9-.9h5.2c.5 0 .9.4.9.9v7.5c0 .5-.4.9-.9.9zm-4.3-1.9h3.3v-5.6h-3.3v5.6z"/><path fill="#fff" d="M354.2 145.8h5.2v7.5h-5.2z"/><path fill="#231F20" d="M359.4 154.2h-5.2c-.5 0-.9-.4-.9-.9v-7.5c0-.5.4-.9.9-.9h5.2c.5 0 .9.4.9.9v7.5c.1.5-.3.9-.9.9zm-4.2-1.9h3.3v-5.6h-3.3v5.6z"/><path fill="#fff" d="M335 156.9h5.2v7.5H335z"/><path fill="#231F20" d="M340.1 165.3H335c-.5 0-.9-.4-.9-.9v-7.5c0-.5.4-.9.9-.9h5.2c.5 0 .9.4.9.9v7.5c0 .5-.4.9-1 .9zm-4.2-1.9h3.3v-5.6h-3.3v5.6z"/><path fill="#fff" d="M344.6 156.9h5.2v7.5h-5.2z"/><path fill="#231F20" d="M349.8 165.3h-5.2c-.5 0-.9-.4-.9-.9v-7.5c0-.5.4-.9.9-.9h5.2c.5 0 .9.4.9.9v7.5c0 .5-.4.9-.9.9zm-4.3-1.9h3.3v-5.6h-3.3v5.6z"/><path fill="#fff" d="M354.2 156.9h5.2v7.5h-5.2z"/><path fill="#231F20" d="M359.4 165.3h-5.2c-.5 0-.9-.4-.9-.9v-7.5c0-.5.4-.9.9-.9h5.2c.5 0 .9.4.9.9v7.5c.1.5-.3.9-.9.9zm-4.2-1.9h3.3v-5.6h-3.3v5.6z"/><path fill="#fff" d="M335 168h5.2v7.5H335z"/><path fill="#231F20" d="M340.1 176.4H335c-.5 0-.9-.4-.9-.9V168c0-.5.4-.9.9-.9h5.2c.5 0 .9.4.9.9v7.5c0 .5-.4.9-1 .9zm-4.2-1.8h3.3V169h-3.3v5.6z"/><path fill="#fff" d="M344.6 168h5.2v7.5h-5.2z"/><path fill="#231F20" d="M349.8 176.4h-5.2c-.5 0-.9-.4-.9-.9V168c0-.5.4-.9.9-.9h5.2c.5 0 .9.4.9.9v7.5c0 .5-.4.9-.9.9zm-4.3-1.8h3.3V169h-3.3v5.6z"/><path fill="#fff" d="M354.2 168h5.2v7.5h-5.2z"/><path fill="#231F20" d="M359.4 176.4h-5.2c-.5 0-.9-.4-.9-.9V168c0-.5.4-.9.9-.9h5.2c.5 0 .9.4.9.9v7.5c.1.5-.3.9-.9.9zm-4.2-1.8h3.3V169h-3.3v5.6z"/><path fill="#fff" stroke="#231F20" stroke-width="2.497" stroke-linecap="round" stroke-linejoin="round" stroke-miterlimit="10" d="M199 169.3"/><path fill="#fff" d="M186.1 93.2h45.7v90.9h-45.7z"/><path fill="#231F20" d="M231.8 185h-45.7c-.5 0-.9-.4-.9-.9V93.2c0-.5.4-.9.9-.9h45.7c.5 0 .9.4.9.9v90.9c0 .5-.4.9-.9.9zm-44.8-1.9h43.8v-89H187v89z"/><path fill="#fff" d="M191.6 100.1h7.2v10.3h-7.2z"/><path fill="#231F20" d="M198.8 111.4h-7.2c-.5 0-.9-.4-.9-.9v-10.3c0-.5.4-.9.9-.9h7.2c.5 0 .9.4.9.9v10.3c.1.5-.4.9-.9.9zm-6.2-1.9h5.4V101h-5.4v8.5z"/><path fill="#fff" d="M205 100.1h7.2v10.3H205z"/><path fill="#231F20" d="M212.2 111.4H205c-.5 0-.9-.4-.9-.9v-10.3c0-.5.4-.9.9-.9h7.2c.5 0 .9.4.9.9v10.3c.1.5-.4.9-.9.9zm-6.3-1.9h5.4V101h-5.4v8.5z"/><path fill="#fff" d="M218.4 100.1h7.2v10.3h-7.2z"/><path fill="#231F20" d="M225.6 111.4h-7.2c-.5 0-.9-.4-.9-.9v-10.3c0-.5.4-.9.9-.9h7.2c.5 0 .9.4.9.9v10.3c0 .5-.4.9-.9.9zm-6.3-1.9h5.4V101h-5.4v8.5z"/><path fill="#fff" d="M191.6 115.5h7.2v10.3h-7.2z"/><path fill="#231F20" d="M198.8 126.8h-7.2c-.5 0-.9-.4-.9-.9v-10.3c0-.5.4-.9.9-.9h7.2c.5 0 .9.4.9.9v10.3c.1.5-.4.9-.9.9zm-6.2-1.9h5.4v-8.5h-5.4v8.5z"/><path fill="#fff" d="M205 115.5h7.2v10.3H205z"/><path fill="#231F20" d="M212.2 126.8H205c-.5 0-.9-.4-.9-.9v-10.3c0-.5.4-.9.9-.9h7.2c.5 0 .9.4.9.9v10.3c.1.5-.4.9-.9.9zm-6.3-1.9h5.4v-8.5h-5.4v8.5z"/><path fill="#fff" d="M218.4 115.5h7.2v10.3h-7.2z"/><path fill="#231F20" d="M225.6 126.8h-7.2c-.5 0-.9-.4-.9-.9v-10.3c0-.5.4-.9.9-.9h7.2c.5 0 .9.4.9.9v10.3c0 .5-.4.9-.9.9zm-6.3-1.9h5.4v-8.5h-5.4v8.5z"/><path fill="#fff" d="M191.6 131h7.2v10.3h-7.2z"/><path fill="#231F20" d="M198.8 142.2h-7.2c-.5 0-.9-.4-.9-.9V131c0-.5.4-.9.9-.9h7.2c.5 0 .9.4.9.9v10.3c.1.5-.4.9-.9.9zm-6.2-1.8h5.4v-8.5h-5.4v8.5z"/><path fill="#fff" d="M205 131h7.2v10.3H205z"/><path fill="#231F20" d="M212.2 142.2H205c-.5 0-.9-.4-.9-.9V131c0-.5.4-.9.9-.9h7.2c.5 0 .9.4.9.9v10.3c.1.5-.4.9-.9.9zm-6.3-1.8h5.4v-8.5h-5.4v8.5z"/><path fill="#fff" d="M218.4 131h7.2v10.3h-7.2z"/><path fill="#231F20" d="M225.6 142.2h-7.2c-.5 0-.9-.4-.9-.9V131c0-.5.4-.9.9-.9h7.2c.5 0 .9.4.9.9v10.3c0 .5-.4.9-.9.9zm-6.3-1.8h5.4v-8.5h-5.4v8.5z"/><path fill="#fff" d="M191.6 146.4h7.2v10.3h-7.2z"/><path fill="#231F20" d="M198.8 157.7h-7.2c-.5 0-.9-.4-.9-.9v-10.3c0-.5.4-.9.9-.9h7.2c.5 0 .9.4.9.9v10.3c.1.4-.4.9-.9.9zm-6.2-1.9h5.4v-8.5h-5.4v8.5z"/><path fill="#fff" d="M205 146.4h7.2v10.3H205z"/><path fill="#231F20" d="M212.2 157.7H205c-.5 0-.9-.4-.9-.9v-10.3c0-.5.4-.9.9-.9h7.2c.5 0 .9.4.9.9v10.3c.1.4-.4.9-.9.9zm-6.3-1.9h5.4v-8.5h-5.4v8.5z"/><path fill="#fff" d="M218.4 146.4h7.2v10.3h-7.2z"/><path fill="#231F20" d="M225.6 157.7h-7.2c-.5 0-.9-.4-.9-.9v-10.3c0-.5.4-.9.9-.9h7.2c.5 0 .9.4.9.9v10.3c0 .4-.4.9-.9.9zm-6.3-1.9h5.4v-8.5h-5.4v8.5z"/><path fill="#fff" d="M191.6 161.8h7.2v10.3h-7.2z"/><path fill="#231F20" d="M198.8 173.1h-7.2c-.5 0-.9-.4-.9-.9v-10.3c0-.5.4-.9.9-.9h7.2c.5 0 .9.4.9.9v10.3c.1.5-.4.9-.9.9zm-6.2-1.9h5.4v-8.5h-5.4v8.5z"/><path fill="#fff" d="M205 161.8h7.2v10.3H205z"/><path fill="#231F20" d="M212.2 173.1H205c-.5 0-.9-.4-.9-.9v-10.3c0-.5.4-.9.9-.9h7.2c.5 0 .9.4.9.9v10.3c.1.5-.4.9-.9.9zm-6.3-1.9h5.4v-8.5h-5.4v8.5z"/><path fill="#fff" d="M218.4 161.8h7.2v10.3h-7.2z"/><path fill="#231F20" d="M225.6 173.1h-7.2c-.5 0-.9-.4-.9-.9v-10.3c0-.5.4-.9.9-.9h7.2c.5 0 .9.4.9.9v10.3c0 .5-.4.9-.9.9zm-6.3-1.9h5.4v-8.5h-5.4v8.5z"/><path fill="#fff" d="M235.6 113h43.9v74.6h-43.9z"/><path fill="#231F20" d="M279.5 188.5h-43.9c-.5 0-.9-.4-.9-.9V113c0-.5.4-.9.9-.9h43.9c.5 0 .9.4.9.9v74.6c.1.5-.3.9-.9.9zm-42.9-1.8h42v-72.8h-42v72.8z"/><path fill="#fff" d="M241 118.2h6.9v7.7H241z"/><path fill="#231F20" d="M247.9 126.8H241c-.5 0-.9-.4-.9-.9v-7.7c0-.5.4-.9.9-.9h6.9c.5 0 .9.4.9.9v7.7c0 .5-.4.9-.9.9zm-6-1.8h5.1v-5.9h-5.1v5.9z"/><path fill="#fff" d="M253.9 118.2h6.9v7.7h-6.9z"/><path fill="#231F20" d="M260.8 126.8h-6.9c-.5 0-.9-.4-.9-.9v-7.7c0-.5.4-.9.9-.9h6.9c.5 0 .9.4.9.9v7.7c0 .5-.4.9-.9.9zm-6-1.8h5.1v-5.9h-5.1v5.9z"/><path fill="#fff" d="M266.7 118.2h6.9v7.7h-6.9z"/><path fill="#231F20" d="M273.7 126.8h-6.9c-.5 0-.9-.4-.9-.9v-7.7c0-.5.4-.9.9-.9h6.9c.5 0 .9.4.9.9v7.7c0 .5-.4.9-.9.9zm-6-1.8h5.1v-5.9h-5.1v5.9z"/><path fill="#fff" d="M241 129.7h6.9v7.7H241z"/><path fill="#231F20" d="M247.9 138.4H241c-.5 0-.9-.4-.9-.9v-7.7c0-.5.4-.9.9-.9h6.9c.5 0 .9.4.9.9v7.7c0 .5-.4.9-.9.9zm-6-1.9h5.1v-5.9h-5.1v5.9z"/><path fill="#fff" d="M253.9 129.7h6.9v7.7h-6.9z"/><path fill="#231F20" d="M260.8 138.4h-6.9c-.5 0-.9-.4-.9-.9v-7.7c0-.5.4-.9.9-.9h6.9c.5 0 .9.4.9.9v7.7c0 .5-.4.9-.9.9zm-6-1.9h5.1v-5.9h-5.1v5.9z"/><path fill="#fff" d="M266.7 129.7h6.9v7.7h-6.9z"/><path fill="#231F20" d="M273.7 138.4h-6.9c-.5 0-.9-.4-.9-.9v-7.7c0-.5.4-.9.9-.9h6.9c.5 0 .9.4.9.9v7.7c0 .5-.4.9-.9.9zm-6-1.9h5.1v-5.9h-5.1v5.9z"/><path fill="#fff" d="M241 141.3h6.9v7.7H241z"/><path fill="#231F20" d="M247.9 149.9H241c-.5 0-.9-.4-.9-.9v-7.7c0-.5.4-.9.9-.9h6.9c.5 0 .9.4.9.9v7.7c0 .5-.4.9-.9.9zm-6-1.8h5.1v-5.9h-5.1v5.9z"/><path fill="#fff" d="M253.9 141.3h6.9v7.7h-6.9z"/><path fill="#231F20" d="M260.8 149.9h-6.9c-.5 0-.9-.4-.9-.9v-7.7c0-.5.4-.9.9-.9h6.9c.5 0 .9.4.9.9v7.7c0 .5-.4.9-.9.9zm-6-1.8h5.1v-5.9h-5.1v5.9z"/><path fill="#fff" d="M266.7 141.3h6.9v7.7h-6.9z"/><path fill="#231F20" d="M273.7 149.9h-6.9c-.5 0-.9-.4-.9-.9v-7.7c0-.5.4-.9.9-.9h6.9c.5 0 .9.4.9.9v7.7c0 .5-.4.9-.9.9zm-6-1.8h5.1v-5.9h-5.1v5.9z"/><path fill="#fff" d="M241 152.8h6.9v7.7H241z"/><path fill="#231F20" d="M247.9 161.5H241c-.5 0-.9-.4-.9-.9v-7.7c0-.5.4-.9.9-.9h6.9c.5 0 .9.4.9.9v7.7c0 .4-.4.9-.9.9zm-6-1.9h5.1v-5.9h-5.1v5.9z"/><path fill="#fff" d="M253.9 152.8h6.9v7.7h-6.9z"/><path fill="#231F20" d="M260.8 161.5h-6.9c-.5 0-.9-.4-.9-.9v-7.7c0-.5.4-.9.9-.9h6.9c.5 0 .9.4.9.9v7.7c0 .4-.4.9-.9.9zm-6-1.9h5.1v-5.9h-5.1v5.9z"/><path fill="#fff" d="M266.7 152.8h6.9v7.7h-6.9z"/><path fill="#231F20" d="M273.7 161.5h-6.9c-.5 0-.9-.4-.9-.9v-7.7c0-.5.4-.9.9-.9h6.9c.5 0 .9.4.9.9v7.7c0 .4-.4.9-.9.9zm-6-1.9h5.1v-5.9h-5.1v5.9z"/><path fill="#fff" d="M241 164.3h6.9v7.7H241z"/><path fill="#231F20" d="M247.9 173H241c-.5 0-.9-.4-.9-.9v-7.7c0-.5.4-.9.9-.9h6.9c.5 0 .9.4.9.9v7.7c0 .5-.4.9-.9.9zm-6-1.8h5.1v-5.9h-5.1v5.9z"/><path fill="#fff" d="M253.9 164.3h6.9v7.7h-6.9z"/><path fill="#231F20" d="M260.8 173h-6.9c-.5 0-.9-.4-.9-.9v-7.7c0-.5.4-.9.9-.9h6.9c.5 0 .9.4.9.9v7.7c0 .5-.4.9-.9.9zm-6-1.8h5.1v-5.9h-5.1v5.9z"/><path fill="#fff" d="M266.7 164.3h6.9v7.7h-6.9z"/><path fill="#231F20" d="M273.7 173h-6.9c-.5 0-.9-.4-.9-.9v-7.7c0-.5.4-.9.9-.9h6.9c.5 0 .9.4.9.9v7.7c0 .5-.4.9-.9.9zm-6-1.8h5.1v-5.9h-5.1v5.9z"/><path fill="#fff" d="M285.4 174v-72h41.4v82.3h-36.3"/><path fill="#231F20" d="M326.8 185.2h-36.3v-1.9h35.4v-80.4h-39.5V174h-1.9v-72c0-.5.4-.9.9-.9h41.4c.5 0 .9.4.9.9v82.3c0 .5-.4.9-.9.9z"/><path fill="#fff" d="M290.5 108.3h6.5v9.4h-6.5z"/><path fill="#231F20" d="M297 118.6h-6.5c-.5 0-.9-.4-.9-.9v-9.4c0-.5.4-.9.9-.9h6.5c.5 0 .9.4.9.9v9.4c0 .5-.4.9-.9.9zm-5.6-1.9h4.7v-7.5h-4.7v7.5z"/><path fill="#fff" d="M302.6 108.3h6.5v9.4h-6.5z"/><path fill="#231F20" d="M309.1 118.6h-6.5c-.5 0-.9-.4-.9-.9v-9.4c0-.5.4-.9.9-.9h6.5c.5 0 .9.4.9.9v9.4c.1.5-.4.9-.9.9zm-5.6-1.9h4.7v-7.5h-4.7v7.5z"/><path fill="#fff" d="M314.7 108.3h6.5v9.4h-6.5z"/><path fill="#231F20" d="M321.3 118.6h-6.5c-.5 0-.9-.4-.9-.9v-9.4c0-.5.4-.9.9-.9h6.5c.5 0 .9.4.9.9v9.4c0 .5-.4.9-.9.9zm-5.6-1.9h4.7v-7.5h-4.7v7.5z"/><path fill="#fff" d="M290.5 122.3h6.5v9.4h-6.5z"/><path fill="#231F20" d="M297 132.6h-6.5c-.5 0-.9-.4-.9-.9v-9.4c0-.5.4-.9.9-.9h6.5c.5 0 .9.4.9.9v9.4c0 .4-.4.9-.9.9zm-5.6-1.9h4.7v-7.5h-4.7v7.5z"/><path fill="#fff" d="M302.6 122.3h6.5v9.4h-6.5z"/><path fill="#231F20" d="M309.1 132.6h-6.5c-.5 0-.9-.4-.9-.9v-9.4c0-.5.4-.9.9-.9h6.5c.5 0 .9.4.9.9v9.4c.1.4-.4.9-.9.9zm-5.6-1.9h4.7v-7.5h-4.7v7.5z"/><path fill="#fff" d="M314.7 122.3h6.5v9.4h-6.5z"/><path fill="#231F20" d="M321.3 132.6h-6.5c-.5 0-.9-.4-.9-.9v-9.4c0-.5.4-.9.9-.9h6.5c.5 0 .9.4.9.9v9.4c0 .4-.4.9-.9.9zm-5.6-1.9h4.7v-7.5h-4.7v7.5z"/><path fill="#fff" d="M290.5 136.2h6.5v9.4h-6.5z"/><path fill="#231F20" d="M297 146.5h-6.5c-.5 0-.9-.4-.9-.9v-9.4c0-.5.4-.9.9-.9h6.5c.5 0 .9.4.9.9v9.4c0 .5-.4.9-.9.9zm-5.6-1.8h4.7v-7.5h-4.7v7.5z"/><path fill="#fff" d="M302.6 136.2h6.5v9.4h-6.5z"/><path fill="#231F20" d="M309.1 146.5h-6.5c-.5 0-.9-.4-.9-.9v-9.4c0-.5.4-.9.9-.9h6.5c.5 0 .9.4.9.9v9.4c.1.5-.4.9-.9.9zm-5.6-1.8h4.7v-7.5h-4.7v7.5z"/><path fill="#fff" d="M314.7 136.2h6.5v9.4h-6.5z"/><path fill="#231F20" d="M321.3 146.5h-6.5c-.5 0-.9-.4-.9-.9v-9.4c0-.5.4-.9.9-.9h6.5c.5 0 .9.4.9.9v9.4c0 .5-.4.9-.9.9zm-5.6-1.8h4.7v-7.5h-4.7v7.5z"/><path fill="#fff" d="M290.5 150.2h6.5v9.4h-6.5z"/><path fill="#231F20" d="M297 160.5h-6.5c-.5 0-.9-.4-.9-.9v-9.4c0-.5.4-.9.9-.9h6.5c.5 0 .9.4.9.9v9.4c0 .5-.4.9-.9.9zm-5.6-1.9h4.7v-7.5h-4.7v7.5z"/><path fill="#fff" d="M302.6 150.2h6.5v9.4h-6.5z"/><path fill="#231F20" d="M309.1 160.5h-6.5c-.5 0-.9-.4-.9-.9v-9.4c0-.5.4-.9.9-.9h6.5c.5 0 .9.4.9.9v9.4c.1.5-.4.9-.9.9zm-5.6-1.9h4.7v-7.5h-4.7v7.5z"/><path fill="#fff" d="M314.7 150.2h6.5v9.4h-6.5z"/><path fill="#231F20" d="M321.3 160.5h-6.5c-.5 0-.9-.4-.9-.9v-9.4c0-.5.4-.9.9-.9h6.5c.5 0 .9.4.9.9v9.4c0 .5-.4.9-.9.9zm-5.6-1.9h4.7v-7.5h-4.7v7.5z"/><path fill="#fff" d="M290.5 164.2h6.5v9.4h-6.5z"/><path fill="#231F20" d="M297 174.5h-6.5c-.5 0-.9-.4-.9-.9v-9.4c0-.5.4-.9.9-.9h6.5c.5 0 .9.4.9.9v9.4c0 .4-.4.9-.9.9zm-5.6-1.9h4.7v-7.5h-4.7v7.5z"/><path fill="#fff" d="M302.6 164.2h6.5v9.4h-6.5z"/><path fill="#231F20" d="M309.1 174.5h-6.5c-.5 0-.9-.4-.9-.9v-9.4c0-.5.4-.9.9-.9h6.5c.5 0 .9.4.9.9v9.4c.1.4-.4.9-.9.9zm-5.6-1.9h4.7v-7.5h-4.7v7.5z"/><path fill="#fff" d="M314.7 164.2h6.5v9.4h-6.5z"/><path fill="#231F20" d="M321.3 174.5h-6.5c-.5 0-.9-.4-.9-.9v-9.4c0-.5.4-.9.9-.9h6.5c.5 0 .9.4.9.9v9.4c0 .4-.4.9-.9.9zm-5.6-1.9h4.7v-7.5h-4.7v7.5z"/><path fill="#fff" d="M273.4 157.3h6v26h-6z"/><path fill="#231F20" d="M279.4 184.2h-6c-.5 0-.9-.4-.9-.9v-26c0-.5.4-.9.9-.9h6c.5 0 .9.4.9.9v26c.1.5-.3.9-.9.9zm-5.1-1.8h4.2v-24.2h-4.2v24.2z"/><path fill="#fff" d="M276.4 92.2L250.5 174h51.9z"/><path fill="#231F20" d="M302.4 174.9h-51.9c-.3 0-.6-.1-.7-.4-.2-.2-.2-.5-.1-.8l25.9-81.8c.1-.4.5-.6.9-.6s.8.3.9.6l25.9 81.8c.1.3 0 .6-.1.8s-.6.4-.8.4zm-50.7-1.8H301l-24.7-77.8-24.6 77.8z"/><path fill="#fff" d="M276.4 83.8l1.4 2.8 3 .4-2.2 2.2.5 3-2.7-1.4-2.7 1.4.5-3L272 87l3.1-.4z"/><path fill="#231F20" d="M273.7 93.1c-.2 0-.4-.1-.5-.2-.3-.2-.4-.6-.4-.9l.4-2.6-1.9-1.8c-.3-.2-.3-.6-.2-.9.1-.3.4-.6.7-.6l2.6-.4 1.1-2.3c.2-.3.5-.5.8-.5s.7.2.8.5l1.1 2.3 2.6.4c.3.1.6.3.7.6.1.3 0 .7-.2.9l-1.9 1.8.4 2.6c.1.3-.1.7-.4.9-.3.2-.7.2-1 .1l-2.3-1.2-2.3 1.2c.2.1 0 .1-.1.1zm.3-5.4l.9.8c.2.2.3.5.3.8l-.2 1.2 1.1-.6c.3-.1.6-.1.9 0l1.1.6-.2-1.2c-.1-.3 0-.6.3-.8l.9-.8-1.2-.2c-.3 0-.6-.2-.7-.5l-.5-1.1-.5 1.1c-.1.3-.4.5-.7.5l-1.5.2z"/><path d="M363.4 191.1H186.6c-2.6 0-4.6-2.1-4.6-4.6v-101c0-2.6 2.1-4.6 4.6-4.6h176.8c2.6 0 4.6 2.1 4.6 4.6v101c0 2.6-2 4.6-4.6 4.6z" fill="none"/><defs><path id="a" d="M363.4 191.1H186.6c-2.6 0-4.6-2.1-4.6-4.6v-101c0-2.6 2.1-4.6 4.6-4.6h176.8c2.6 0 4.6 2.1 4.6 4.6v101c0 2.6-2 4.6-4.6 4.6z"/></defs><clipPath id="b"><use xlink:href="#a" overflow="visible"/></clipPath><g clip-path="url(#b)"><path fill="#fff" d="M173.6 180.1s35-6.7 61.2-2.1c26.2 4.6 38.8 4.8 49.5 2.1 10.7-2.8 16.5-3.3 37.6-2.2 21.1 1.1 22.4-2.3 40.3 4s14.2 13.1 14.2 13.1l-201.9 3.5-.9-18.4z"/><path fill="#231F20" d="M174.4 199c-.5 0-.9-.2-.9-.7l-.8-18.3c0-.5.3-.8.8-.9.2 0 19.7-3.7 40.2-3.7 8 0 15.2.6 21.4 1.7 15.1 2.7 25.5 3.9 33.9 3.9 5.7 0 10.5-.6 15.2-1.8 7.2-1.9 12.3-2.8 21.7-2.8 4.1 0 9.1.2 16.2.5 3.1.2 6 .2 8.9.2 2.6 0 4.8-.1 6.7-.1 1.6 0 3.1-.1 4.6-.1 5.8 0 10.7.6 20.4 4 8.3 2.9 13.3 6.3 14.7 10.2.9 2.4 0 4.1 0 4.2-.2.3-.5.3-.8.3L174.4 199zm.1-18.2l.7 16.7 200.4-3.5c.1-.5.1-1.3-.3-2.3-.9-2.3-4-5.6-13.6-9-9.4-3.3-14.2-3.9-19.7-3.9-1.4 0-2.9 0-4.5.1-2 .1-4.2.1-6.8.1-3 0-5.9-.1-9-.2-7.1-.4-12.1-.5-16.1-.5-9.2 0-14.2.9-21.2 2.7-4.8 1.3-9.8 1.8-15.7 1.8-8.4 0-19-1.2-34.2-3.9-6.1-1.1-13.1-1.6-21-1.6-18 0-35.2 2.9-39 3.5z"/></g><path fill="#231F20" d="M363.4 192.1H186.6c-3.1 0-5.6-2.5-5.6-5.6v-101c0-3.1 2.5-5.6 5.6-5.6h176.8c3.1 0 5.6 2.5 5.6 5.6v101c0 3.1-2.5 5.6-5.6 5.6zM186.6 81.8c-2 0-3.7 1.7-3.7 3.7v101c0 2 1.7 3.7 3.7 3.7h176.8c2 0 3.7-1.7 3.7-3.7v-101c0-2-1.7-3.7-3.7-3.7H186.6z"/><path fill="#fff" d="M88.4 191.1H-88.4c-2.6 0-4.6-2.1-4.6-4.6v-101c0-2.6 2.1-4.6 4.6-4.6H88.4c2.6 0 4.6 2.1 4.6 4.6v101c0 2.6-2 4.6-4.6 4.6z"/><path fill="#231F20" d="M88.4 192.1H-88.4c-3.1 0-5.6-2.5-5.6-5.6v-101c0-3.1 2.5-5.6 5.6-5.6H88.4c3.1 0 5.6 2.5 5.6 5.6v101c0 3.1-2.5 5.6-5.6 5.6zM-88.4 81.8c-2 0-3.7 1.7-3.7 3.7v101c0 2 1.7 3.7 3.7 3.7H88.4c2 0 3.7-1.7 3.7-3.7v-101c0-2-1.7-3.7-3.7-3.7H-88.4z"/><path fill="#fff" d="M55.9 118.6h32.9v65.5H55.9z"/><path fill="#231F20" d="M88.9 185h-33c-.5 0-.9-.4-.9-.9v-65.5c0-.5.4-.9.9-.9h32.9c.5 0 .9.4.9.9v65.5c.1.5-.3.9-.8.9zm-32-1.9H88v-63.6H56.9v63.6z"/><path fill="#fff" d="M60 123.6h5.2v7.5H60z"/><path fill="#231F20" d="M65.1 131.9H60c-.5 0-.9-.4-.9-.9v-7.5c0-.5.4-.9.9-.9h5.2c.5 0 .9.4.9.9v7.5c0 .5-.4.9-1 .9zm-4.2-1.8h3.3v-5.6h-3.3v5.6z"/><path fill="#fff" d="M69.6 123.6h5.2v7.5h-5.2z"/><path fill="#231F20" d="M74.8 131.9h-5.2c-.5 0-.9-.4-.9-.9v-7.5c0-.5.4-.9.9-.9h5.2c.5 0 .9.4.9.9v7.5c0 .5-.4.9-.9.9zm-4.3-1.8h3.3v-5.6h-3.3v5.6z"/><path fill="#fff" d="M79.2 123.6h5.2v7.5h-5.2z"/><path fill="#231F20" d="M84.4 131.9h-5.2c-.5 0-.9-.4-.9-.9v-7.5c0-.5.4-.9.9-.9h5.2c.5 0 .9.4.9.9v7.5c.1.5-.3.9-.9.9zm-4.2-1.8h3.3v-5.6h-3.3v5.6z"/><path fill="#fff" d="M60 134.7h5.2v7.5H60z"/><path fill="#231F20" d="M65.1 143.1H60c-.5 0-.9-.4-.9-.9v-7.5c0-.5.4-.9.9-.9h5.2c.5 0 .9.4.9.9v7.5c0 .4-.4.9-1 .9zm-4.2-1.9h3.3v-5.6h-3.3v5.6z"/><path fill="#fff" d="M69.6 134.7h5.2v7.5h-5.2z"/><path fill="#231F20" d="M74.8 143.1h-5.2c-.5 0-.9-.4-.9-.9v-7.5c0-.5.4-.9.9-.9h5.2c.5 0 .9.4.9.9v7.5c0 .4-.4.9-.9.9zm-4.3-1.9h3.3v-5.6h-3.3v5.6z"/><path fill="#fff" d="M79.2 134.7h5.2v7.5h-5.2z"/><path fill="#231F20" d="M84.4 143.1h-5.2c-.5 0-.9-.4-.9-.9v-7.5c0-.5.4-.9.9-.9h5.2c.5 0 .9.4.9.9v7.5c.1.4-.3.9-.9.9zm-4.2-1.9h3.3v-5.6h-3.3v5.6z"/><path fill="#fff" d="M60 145.8h5.2v7.5H60z"/><path fill="#231F20" d="M65.1 154.2H60c-.5 0-.9-.4-.9-.9v-7.5c0-.5.4-.9.9-.9h5.2c.5 0 .9.4.9.9v7.5c0 .5-.4.9-1 .9zm-4.2-1.9h3.3v-5.6h-3.3v5.6z"/><path fill="#fff" d="M69.6 145.8h5.2v7.5h-5.2z"/><path fill="#231F20" d="M74.8 154.2h-5.2c-.5 0-.9-.4-.9-.9v-7.5c0-.5.4-.9.9-.9h5.2c.5 0 .9.4.9.9v7.5c0 .5-.4.9-.9.9zm-4.3-1.9h3.3v-5.6h-3.3v5.6z"/><path fill="#fff" d="M79.2 145.8h5.2v7.5h-5.2z"/><path fill="#231F20" d="M84.4 154.2h-5.2c-.5 0-.9-.4-.9-.9v-7.5c0-.5.4-.9.9-.9h5.2c.5 0 .9.4.9.9v7.5c.1.5-.3.9-.9.9zm-4.2-1.9h3.3v-5.6h-3.3v5.6z"/><path fill="#fff" d="M60 156.9h5.2v7.5H60z"/><path fill="#231F20" d="M65.1 165.3H60c-.5 0-.9-.4-.9-.9v-7.5c0-.5.4-.9.9-.9h5.2c.5 0 .9.4.9.9v7.5c0 .5-.4.9-1 .9zm-4.2-1.9h3.3v-5.6h-3.3v5.6z"/><path fill="#fff" d="M69.6 156.9h5.2v7.5h-5.2z"/><path fill="#231F20" d="M74.8 165.3h-5.2c-.5 0-.9-.4-.9-.9v-7.5c0-.5.4-.9.9-.9h5.2c.5 0 .9.4.9.9v7.5c0 .5-.4.9-.9.9zm-4.3-1.9h3.3v-5.6h-3.3v5.6z"/><path fill="#fff" d="M79.2 156.9h5.2v7.5h-5.2z"/><path fill="#231F20" d="M84.4 165.3h-5.2c-.5 0-.9-.4-.9-.9v-7.5c0-.5.4-.9.9-.9h5.2c.5 0 .9.4.9.9v7.5c.1.5-.3.9-.9.9zm-4.2-1.9h3.3v-5.6h-3.3v5.6z"/><path fill="#fff" d="M60 168h5.2v7.5H60z"/><path fill="#231F20" d="M65.1 176.4H60c-.5 0-.9-.4-.9-.9V168c0-.5.4-.9.9-.9h5.2c.5 0 .9.4.9.9v7.5c0 .5-.4.9-1 .9zm-4.2-1.8h3.3V169h-3.3v5.6z"/><path fill="#fff" d="M69.6 168h5.2v7.5h-5.2z"/><path fill="#231F20" d="M74.8 176.4h-5.2c-.5 0-.9-.4-.9-.9V168c0-.5.4-.9.9-.9h5.2c.5 0 .9.4.9.9v7.5c0 .5-.4.9-.9.9zm-4.3-1.8h3.3V169h-3.3v5.6z"/><path fill="#fff" d="M79.2 168h5.2v7.5h-5.2z"/><path fill="#231F20" d="M84.4 176.4h-5.2c-.5 0-.9-.4-.9-.9V168c0-.5.4-.9.9-.9h5.2c.5 0 .9.4.9.9v7.5c.1.5-.3.9-.9.9zm-4.2-1.8h3.3V169h-3.3v5.6z"/><path fill="#fff" stroke="#231F20" stroke-width="2.497" stroke-linecap="round" stroke-linejoin="round" stroke-miterlimit="10" d="M-76 169.3"/><path fill="#fff" d="M-88.9 93.2h45.7v90.9h-45.7z"/><path fill="#231F20" d="M-43.2 185h-45.7c-.5 0-.9-.4-.9-.9V93.2c0-.5.4-.9.9-.9h45.7c.5 0 .9.4.9.9v90.9c0 .5-.4.9-.9.9zm-44.8-1.9h43.8v-89H-88v89z"/><path fill="#fff" d="M-83.4 100.1h7.2v10.3h-7.2z"/><path fill="#231F20" d="M-76.2 111.4h-7.2c-.5 0-.9-.4-.9-.9v-10.3c0-.5.4-.9.9-.9h7.2c.5 0 .9.4.9.9v10.3c.1.5-.4.9-.9.9zm-6.2-1.9h5.4V101h-5.4v8.5z"/><path fill="#fff" d="M-70 100.1h7.2v10.3H-70z"/><path fill="#231F20" d="M-62.8 111.4H-70c-.5 0-.9-.4-.9-.9v-10.3c0-.5.4-.9.9-.9h7.2c.5 0 .9.4.9.9v10.3c.1.5-.4.9-.9.9zm-6.3-1.9h5.4V101h-5.4v8.5z"/><path fill="#fff" d="M-56.6 100.1h7.2v10.3h-7.2z"/><path fill="#231F20" d="M-49.4 111.4h-7.2c-.5 0-.9-.4-.9-.9v-10.3c0-.5.4-.9.9-.9h7.2c.5 0 .9.4.9.9v10.3c0 .5-.4.9-.9.9zm-6.3-1.9h5.4V101h-5.4v8.5z"/><path fill="#fff" d="M-83.4 115.5h7.2v10.3h-7.2z"/><path fill="#231F20" d="M-76.2 126.8h-7.2c-.5 0-.9-.4-.9-.9v-10.3c0-.5.4-.9.9-.9h7.2c.5 0 .9.4.9.9v10.3c.1.5-.4.9-.9.9zm-6.2-1.9h5.4v-8.5h-5.4v8.5z"/><path fill="#fff" d="M-70 115.5h7.2v10.3H-70z"/><path fill="#231F20" d="M-62.8 126.8H-70c-.5 0-.9-.4-.9-.9v-10.3c0-.5.4-.9.9-.9h7.2c.5 0 .9.4.9.9v10.3c.1.5-.4.9-.9.9zm-6.3-1.9h5.4v-8.5h-5.4v8.5z"/><path fill="#fff" d="M-56.6 115.5h7.2v10.3h-7.2z"/><path fill="#231F20" d="M-49.4 126.8h-7.2c-.5 0-.9-.4-.9-.9v-10.3c0-.5.4-.9.9-.9h7.2c.5 0 .9.4.9.9v10.3c0 .5-.4.9-.9.9zm-6.3-1.9h5.4v-8.5h-5.4v8.5z"/><path fill="#fff" d="M-83.4 131h7.2v10.3h-7.2z"/><path fill="#231F20" d="M-76.2 142.2h-7.2c-.5 0-.9-.4-.9-.9V131c0-.5.4-.9.9-.9h7.2c.5 0 .9.4.9.9v10.3c.1.5-.4.9-.9.9zm-6.2-1.8h5.4v-8.5h-5.4v8.5z"/><path fill="#fff" d="M-70 131h7.2v10.3H-70z"/><path fill="#231F20" d="M-62.8 142.2H-70c-.5 0-.9-.4-.9-.9V131c0-.5.4-.9.9-.9h7.2c.5 0 .9.4.9.9v10.3c.1.5-.4.9-.9.9zm-6.3-1.8h5.4v-8.5h-5.4v8.5z"/><path fill="#fff" d="M-56.6 131h7.2v10.3h-7.2z"/><path fill="#231F20" d="M-49.4 142.2h-7.2c-.5 0-.9-.4-.9-.9V131c0-.5.4-.9.9-.9h7.2c.5 0 .9.4.9.9v10.3c0 .5-.4.9-.9.9zm-6.3-1.8h5.4v-8.5h-5.4v8.5z"/><path fill="#fff" d="M-83.4 146.4h7.2v10.3h-7.2z"/><path fill="#231F20" d="M-76.2 157.7h-7.2c-.5 0-.9-.4-.9-.9v-10.3c0-.5.4-.9.9-.9h7.2c.5 0 .9.4.9.9v10.3c.1.4-.4.9-.9.9zm-6.2-1.9h5.4v-8.5h-5.4v8.5z"/><path fill="#fff" d="M-70 146.4h7.2v10.3H-70z"/><path fill="#231F20" d="M-62.8 157.7H-70c-.5 0-.9-.4-.9-.9v-10.3c0-.5.4-.9.9-.9h7.2c.5 0 .9.4.9.9v10.3c.1.4-.4.9-.9.9zm-6.3-1.9h5.4v-8.5h-5.4v8.5z"/><path fill="#fff" d="M-56.6 146.4h7.2v10.3h-7.2z"/><path fill="#231F20" d="M-49.4 157.7h-7.2c-.5 0-.9-.4-.9-.9v-10.3c0-.5.4-.9.9-.9h7.2c.5 0 .9.4.9.9v10.3c0 .4-.4.9-.9.9zm-6.3-1.9h5.4v-8.5h-5.4v8.5z"/><path fill="#fff" d="M-83.4 161.8h7.2v10.3h-7.2z"/><path fill="#231F20" d="M-76.2 173.1h-7.2c-.5 0-.9-.4-.9-.9v-10.3c0-.5.4-.9.9-.9h7.2c.5 0 .9.4.9.9v10.3c.1.5-.4.9-.9.9zm-6.2-1.9h5.4v-8.5h-5.4v8.5z"/><path fill="#fff" d="M-70 161.8h7.2v10.3H-70z"/><path fill="#231F20" d="M-62.8 173.1H-70c-.5 0-.9-.4-.9-.9v-10.3c0-.5.4-.9.9-.9h7.2c.5 0 .9.4.9.9v10.3c.1.5-.4.9-.9.9zm-6.3-1.9h5.4v-8.5h-5.4v8.5z"/><path fill="#fff" d="M-56.6 161.8h7.2v10.3h-7.2z"/><path fill="#231F20" d="M-49.4 173.1h-7.2c-.5 0-.9-.4-.9-.9v-10.3c0-.5.4-.9.9-.9h7.2c.5 0 .9.4.9.9v10.3c0 .5-.4.9-.9.9zm-6.3-1.9h5.4v-8.5h-5.4v8.5z"/><path fill="#fff" d="M-39.4 113H4.5v74.6h-43.9z"/><path fill="#231F20" d="M4.5 188.5h-43.9c-.5 0-.9-.4-.9-.9V113c0-.5.4-.9.9-.9H4.5c.5 0 .9.4.9.9v74.6c.1.5-.3.9-.9.9zm-42.9-1.8h42v-72.8h-42v72.8z"/><path fill="#fff" d="M-34 118.2h6.9v7.7H-34z"/><path fill="#231F20" d="M-27.1 126.8H-34c-.5 0-.9-.4-.9-.9v-7.7c0-.5.4-.9.9-.9h6.9c.5 0 .9.4.9.9v7.7c0 .5-.4.9-.9.9zm-6-1.8h5.1v-5.9h-5.1v5.9z"/><path fill="#fff" d="M-21.1 118.2h6.9v7.7h-6.9z"/><path fill="#231F20" d="M-14.2 126.8h-6.9c-.5 0-.9-.4-.9-.9v-7.7c0-.5.4-.9.9-.9h6.9c.5 0 .9.4.9.9v7.7c0 .5-.4.9-.9.9zm-6-1.8h5.1v-5.9h-5.1v5.9z"/><path fill="#fff" d="M-8.3 118.2h6.9v7.7h-6.9z"/><path fill="#231F20" d="M-1.3 126.8h-6.9c-.5 0-.9-.4-.9-.9v-7.7c0-.5.4-.9.9-.9h6.9c.5 0 .9.4.9.9v7.7c0 .5-.4.9-.9.9zm-6-1.8h5.1v-5.9h-5.1v5.9z"/><path fill="#fff" d="M-34 129.7h6.9v7.7H-34z"/><path fill="#231F20" d="M-27.1 138.4H-34c-.5 0-.9-.4-.9-.9v-7.7c0-.5.4-.9.9-.9h6.9c.5 0 .9.4.9.9v7.7c0 .5-.4.9-.9.9zm-6-1.9h5.1v-5.9h-5.1v5.9z"/><path fill="#fff" d="M-21.1 129.7h6.9v7.7h-6.9z"/><path fill="#231F20" d="M-14.2 138.4h-6.9c-.5 0-.9-.4-.9-.9v-7.7c0-.5.4-.9.9-.9h6.9c.5 0 .9.4.9.9v7.7c0 .5-.4.9-.9.9zm-6-1.9h5.1v-5.9h-5.1v5.9z"/><path fill="#fff" d="M-8.3 129.7h6.9v7.7h-6.9z"/><path fill="#231F20" d="M-1.3 138.4h-6.9c-.5 0-.9-.4-.9-.9v-7.7c0-.5.4-.9.9-.9h6.9c.5 0 .9.4.9.9v7.7c0 .5-.4.9-.9.9zm-6-1.9h5.1v-5.9h-5.1v5.9z"/><path fill="#fff" d="M-34 141.3h6.9v7.7H-34z"/><path fill="#231F20" d="M-27.1 149.9H-34c-.5 0-.9-.4-.9-.9v-7.7c0-.5.4-.9.9-.9h6.9c.5 0 .9.4.9.9v7.7c0 .5-.4.9-.9.9zm-6-1.8h5.1v-5.9h-5.1v5.9z"/><path fill="#fff" d="M-21.1 141.3h6.9v7.7h-6.9z"/><path fill="#231F20" d="M-14.2 149.9h-6.9c-.5 0-.9-.4-.9-.9v-7.7c0-.5.4-.9.9-.9h6.9c.5 0 .9.4.9.9v7.7c0 .5-.4.9-.9.9zm-6-1.8h5.1v-5.9h-5.1v5.9z"/><path fill="#fff" d="M-8.3 141.3h6.9v7.7h-6.9z"/><path fill="#231F20" d="M-1.3 149.9h-6.9c-.5 0-.9-.4-.9-.9v-7.7c0-.5.4-.9.9-.9h6.9c.5 0 .9.4.9.9v7.7c0 .5-.4.9-.9.9zm-6-1.8h5.1v-5.9h-5.1v5.9z"/><path fill="#fff" d="M-34 152.8h6.9v7.7H-34z"/><path fill="#231F20" d="M-27.1 161.5H-34c-.5 0-.9-.4-.9-.9v-7.7c0-.5.4-.9.9-.9h6.9c.5 0 .9.4.9.9v7.7c0 .4-.4.9-.9.9zm-6-1.9h5.1v-5.9h-5.1v5.9z"/><path fill="#fff" d="M-21.1 152.8h6.9v7.7h-6.9z"/><path fill="#231F20" d="M-14.2 161.5h-6.9c-.5 0-.9-.4-.9-.9v-7.7c0-.5.4-.9.9-.9h6.9c.5 0 .9.4.9.9v7.7c0 .4-.4.9-.9.9zm-6-1.9h5.1v-5.9h-5.1v5.9z"/><path fill="#fff" d="M-8.3 152.8h6.9v7.7h-6.9z"/><path fill="#231F20" d="M-1.3 161.5h-6.9c-.5 0-.9-.4-.9-.9v-7.7c0-.5.4-.9.9-.9h6.9c.5 0 .9.4.9.9v7.7c0 .4-.4.9-.9.9zm-6-1.9h5.1v-5.9h-5.1v5.9z"/><path fill="#fff" d="M-34 164.3h6.9v7.7H-34z"/><path fill="#231F20" d="M-27.1 173H-34c-.5 0-.9-.4-.9-.9v-7.7c0-.5.4-.9.9-.9h6.9c.5 0 .9.4.9.9v7.7c0 .5-.4.9-.9.9zm-6-1.8h5.1v-5.9h-5.1v5.9z"/><path fill="#fff" d="M-21.1 164.3h6.9v7.7h-6.9z"/><path fill="#231F20" d="M-14.2 173h-6.9c-.5 0-.9-.4-.9-.9v-7.7c0-.5.4-.9.9-.9h6.9c.5 0 .9.4.9.9v7.7c0 .5-.4.9-.9.9zm-6-1.8h5.1v-5.9h-5.1v5.9z"/><path fill="#fff" d="M-8.3 164.3h6.9v7.7h-6.9z"/><path fill="#231F20" d="M-1.3 173h-6.9c-.5 0-.9-.4-.9-.9v-7.7c0-.5.4-.9.9-.9h6.9c.5 0 .9.4.9.9v7.7c0 .5-.4.9-.9.9zm-6-1.8h5.1v-5.9h-5.1v5.9z"/><path fill="#fff" d="M10.4 174v-72h41.4v82.3H15.5"/><path fill="#231F20" d="M51.8 185.2H15.5v-1.9h35.4v-80.4H11.4V174H9.5v-72c0-.5.4-.9.9-.9h41.4c.5 0 .9.4.9.9v82.3c0 .5-.4.9-.9.9z"/><path fill="#fff" d="M15.5 108.3H22v9.4h-6.5z"/><path fill="#231F20" d="M22 118.6h-6.5c-.5 0-.9-.4-.9-.9v-9.4c0-.5.4-.9.9-.9H22c.5 0 .9.4.9.9v9.4c0 .5-.4.9-.9.9zm-5.6-1.9h4.7v-7.5h-4.7v7.5z"/><path fill="#fff" d="M27.6 108.3h6.5v9.4h-6.5z"/><path fill="#231F20" d="M34.1 118.6h-6.5c-.5 0-.9-.4-.9-.9v-9.4c0-.5.4-.9.9-.9h6.5c.5 0 .9.4.9.9v9.4c.1.5-.4.9-.9.9zm-5.6-1.9h4.7v-7.5h-4.7v7.5z"/><path fill="#fff" d="M39.7 108.3h6.5v9.4h-6.5z"/><path fill="#231F20" d="M46.3 118.6h-6.5c-.5 0-.9-.4-.9-.9v-9.4c0-.5.4-.9.9-.9h6.5c.5 0 .9.4.9.9v9.4c0 .5-.4.9-.9.9zm-5.6-1.9h4.7v-7.5h-4.7v7.5z"/><path fill="#fff" d="M15.5 122.3H22v9.4h-6.5z"/><path fill="#231F20" d="M22 132.6h-6.5c-.5 0-.9-.4-.9-.9v-9.4c0-.5.4-.9.9-.9H22c.5 0 .9.4.9.9v9.4c0 .4-.4.9-.9.9zm-5.6-1.9h4.7v-7.5h-4.7v7.5z"/><path fill="#fff" d="M27.6 122.3h6.5v9.4h-6.5z"/><path fill="#231F20" d="M34.1 132.6h-6.5c-.5 0-.9-.4-.9-.9v-9.4c0-.5.4-.9.9-.9h6.5c.5 0 .9.4.9.9v9.4c.1.4-.4.9-.9.9zm-5.6-1.9h4.7v-7.5h-4.7v7.5z"/><path fill="#fff" d="M39.7 122.3h6.5v9.4h-6.5z"/><path fill="#231F20" d="M46.3 132.6h-6.5c-.5 0-.9-.4-.9-.9v-9.4c0-.5.4-.9.9-.9h6.5c.5 0 .9.4.9.9v9.4c0 .4-.4.9-.9.9zm-5.6-1.9h4.7v-7.5h-4.7v7.5z"/><path fill="#fff" d="M15.5 136.2H22v9.4h-6.5z"/><path fill="#231F20" d="M22 146.5h-6.5c-.5 0-.9-.4-.9-.9v-9.4c0-.5.4-.9.9-.9H22c.5 0 .9.4.9.9v9.4c0 .5-.4.9-.9.9zm-5.6-1.8h4.7v-7.5h-4.7v7.5z"/><path fill="#fff" d="M27.6 136.2h6.5v9.4h-6.5z"/><path fill="#231F20" d="M34.1 146.5h-6.5c-.5 0-.9-.4-.9-.9v-9.4c0-.5.4-.9.9-.9h6.5c.5 0 .9.4.9.9v9.4c.1.5-.4.9-.9.9zm-5.6-1.8h4.7v-7.5h-4.7v7.5z"/><path fill="#fff" d="M39.7 136.2h6.5v9.4h-6.5z"/><path fill="#231F20" d="M46.3 146.5h-6.5c-.5 0-.9-.4-.9-.9v-9.4c0-.5.4-.9.9-.9h6.5c.5 0 .9.4.9.9v9.4c0 .5-.4.9-.9.9zm-5.6-1.8h4.7v-7.5h-4.7v7.5z"/><path fill="#fff" d="M15.5 150.2H22v9.4h-6.5z"/><path fill="#231F20" d="M22 160.5h-6.5c-.5 0-.9-.4-.9-.9v-9.4c0-.5.4-.9.9-.9H22c.5 0 .9.4.9.9v9.4c0 .5-.4.9-.9.9zm-5.6-1.9h4.7v-7.5h-4.7v7.5z"/><path fill="#fff" d="M27.6 150.2h6.5v9.4h-6.5z"/><path fill="#231F20" d="M34.1 160.5h-6.5c-.5 0-.9-.4-.9-.9v-9.4c0-.5.4-.9.9-.9h6.5c.5 0 .9.4.9.9v9.4c.1.5-.4.9-.9.9zm-5.6-1.9h4.7v-7.5h-4.7v7.5z"/><path fill="#fff" d="M39.7 150.2h6.5v9.4h-6.5z"/><path fill="#231F20" d="M46.3 160.5h-6.5c-.5 0-.9-.4-.9-.9v-9.4c0-.5.4-.9.9-.9h6.5c.5 0 .9.4.9.9v9.4c0 .5-.4.9-.9.9zm-5.6-1.9h4.7v-7.5h-4.7v7.5z"/><path fill="#fff" d="M15.5 164.2H22v9.4h-6.5z"/><path fill="#231F20" d="M22 174.5h-6.5c-.5 0-.9-.4-.9-.9v-9.4c0-.5.4-.9.9-.9H22c.5 0 .9.4.9.9v9.4c0 .4-.4.9-.9.9zm-5.6-1.9h4.7v-7.5h-4.7v7.5z"/><path fill="#fff" d="M27.6 164.2h6.5v9.4h-6.5z"/><path fill="#231F20" d="M34.1 174.5h-6.5c-.5 0-.9-.4-.9-.9v-9.4c0-.5.4-.9.9-.9h6.5c.5 0 .9.4.9.9v9.4c.1.4-.4.9-.9.9zm-5.6-1.9h4.7v-7.5h-4.7v7.5z"/><path fill="#fff" d="M39.7 164.2h6.5v9.4h-6.5z"/><path fill="#231F20" d="M46.3 174.5h-6.5c-.5 0-.9-.4-.9-.9v-9.4c0-.5.4-.9.9-.9h6.5c.5 0 .9.4.9.9v9.4c0 .4-.4.9-.9.9zm-5.6-1.9h4.7v-7.5h-4.7v7.5z"/><path fill="#fff" d="M-1.6 157.3h6v26h-6z"/><path fill="#231F20" d="M4.4 184.2h-6c-.5 0-.9-.4-.9-.9v-26c0-.5.4-.9.9-.9h6c.5 0 .9.4.9.9v26c.1.5-.3.9-.9.9zm-5.1-1.8h4.2v-24.2H-.7v24.2z"/><path fill="#fff" d="M1.4 92.2L-24.5 174h51.9z"/><path fill="#231F20" d="M27.4 174.9h-51.9c-.3 0-.6-.1-.7-.4-.2-.2-.2-.5-.1-.8L.5 91.9c.1-.4.5-.6.9-.6s.8.3.9.6l25.9 81.8c.1.3 0 .6-.1.8-.2.3-.5.4-.7.4zm-50.7-1.8H26L1.4 95.3l-24.7 77.8z"/><path fill="#fff" d="M1.4 83.8l1.4 2.8 3 .4-2.2 2.2.5 3-2.7-1.4-2.7 1.4.5-3L-3 87l3.1-.4z"/><path fill="#231F20" d="M-1.3 93.1c-.2 0-.4-.1-.5-.2-.3-.2-.4-.6-.4-.9l.4-2.6-1.9-1.8c-.3-.2-.3-.6-.2-.9.1-.3.4-.6.7-.6l2.6-.4 1.1-2.3c.2-.3.5-.5.8-.5s.7.2.8.5l1.1 2.3 2.8.4c.3.1.6.3.7.6.1.3 0 .7-.2.9l-1.9 1.8.5 2.6c.1.3-.1.7-.4.9-.3.2-.7.2-1 .1l-2.3-1.2L-.9 93c-.1.1-.3.1-.4.1zm.3-5.4l.9.8c.2.2.3.5.3.8L0 90.5l1-.6c.3-.1.6-.1.9 0l1.1.6-.2-1.2c-.1-.3 0-.6.3-.8l.9-.8-1.2-.2c-.3 0-.6-.2-.7-.5l-.5-1.1L.9 87c-.1.3-.4.5-.7.5l-1.2.2z"/><path d="M88.4 191.1H-88.4c-2.6 0-4.6-2.1-4.6-4.6v-101c0-2.6 2.1-4.6 4.6-4.6H88.4c2.6 0 4.6 2.1 4.6 4.6v101c0 2.6-2 4.6-4.6 4.6z" fill="none"/><defs><path id="c" d="M88.4 191.1H-88.4c-2.6 0-4.6-2.1-4.6-4.6v-101c0-2.6 2.1-4.6 4.6-4.6H88.4c2.6 0 4.6 2.1 4.6 4.6v101c0 2.6-2 4.6-4.6 4.6z"/></defs><clipPath id="d"><use xlink:href="#c" overflow="visible"/></clipPath><g clip-path="url(#d)"><path fill="#fff" d="M-101.4 180.1s35-6.7 61.2-2.1c26.2 4.6 38.8 4.8 49.5 2.1 10.7-2.8 16.5-3.3 37.6-2.2 21.1 1.1 22.4-2.3 40.3 4s14.2 13.1 14.2 13.1l-201.9 3.5-.9-18.4z"/><path fill="#231F20" d="M-100.6 200c-.5 0-.9-.7-.9-1.2l-.8-18.6c0-.5.3-.9.8-1 .2 0 19.7-3.7 40.2-3.7 8 0 15.2.5 21.4 1.6 15.1 2.7 25.5 3.8 33.9 3.8 5.7 0 10.5-.6 15.2-1.8 7.2-1.9 12.3-2.8 21.7-2.8 4.1 0 9.1.2 16.2.5 3.1.2 6 .2 8.9.2 2.6 0 4.8-.1 6.7-.1 1.6 0 3.1-.1 4.6-.1 5.8 0 10.7.6 20.4 4 8.3 2.9 13.3 6.3 14.7 10.2.9 2.4 0 4.1 0 4.2-.2.3-.5.8-.8.8l-202.2 4zm.1-19.2l.7 16.7 200.4-3.5c.1-.5.1-1.3-.3-2.3-.9-2.3-4-5.6-13.6-9-9.4-3.3-14.2-3.9-19.7-3.9-1.4 0-2.9 0-4.5.1-2 .1-4.2.1-6.8.1-3 0-5.9-.1-9-.2-7.1-.4-12.1-.5-16.1-.5-9.2 0-14.2.9-21.2 2.7-4.8 1.3-9.8 1.8-15.7 1.8-8.4 0-19-1.2-34.2-3.9-6.1-1.1-13.1-1.6-21-1.6-18 0-35.2 2.9-39 3.5z"/></g><path fill="#231F20" d="M88.4 192.1H-88.4c-3.1 0-5.6-2.5-5.6-5.6v-101c0-3.1 2.5-5.6 5.6-5.6H88.4c3.1 0 5.6 2.5 5.6 5.6v101c0 3.1-2.5 5.6-5.6 5.6zM-88.4 81.8c-2 0-3.7 1.7-3.7 3.7v101c0 2 1.7 3.7 3.7 3.7H88.4c2 0 3.7-1.7 3.7-3.7v-101c0-2-1.7-3.7-3.7-3.7H-88.4z"/><path fill="#fff" stroke="#231F20" stroke-width="2.497" stroke-linecap="round" stroke-linejoin="round" stroke-miterlimit="10" d="M204.4 198"/><path fill="#fff" stroke="#231F20" stroke-width="2.497" stroke-linecap="round" stroke-linejoin="round" stroke-miterlimit="10" d="M248.7 181"/><path fill="#fff" stroke="#231F20" stroke-width="2.497" stroke-linecap="round" stroke-linejoin="round" stroke-miterlimit="10" d="M229.1 181"/><path fill="#fff" stroke="#231F20" stroke-width="2.497" stroke-linecap="round" stroke-linejoin="round" stroke-miterlimit="10" d="M234.6 180.1"/><path fill="#fff" stroke="#231F20" stroke-width="2.497" stroke-linecap="round" stroke-linejoin="round" stroke-miterlimit="10" d="M186.1 197.1"/><path d="M412.1 108.4c-2.6-16.2-16.6-27.8-32.5-27.7 0-2.9-.3-5.9-.7-8.9-5.1-32.2-34.3-54.6-66.4-51.6C306.8 6.5 292.3-2 277.1.4c-9.7 1.5-17.7 7.1-22.6 14.7-9.6-3.4-20.1-4.6-30.8-2.9-31 4.9-53.1 31.7-52.9 62.1-1.4 0-2.8.2-4.3.4-18.7 2.9-31.4 20.4-28.5 39 1.9 12.4 10.3 22.1 21.2 26.4-15 8.4-24 25.6-21.2 43.6 3.6 22.7 24.6 38.4 47.3 35.5 0 2.4.2 4.9.6 7.4 4.2 26.5 29.1 44.6 55.6 40.4 6.6-1 12.7-3.4 18-6.7 13.3 7.8 29.4 11.2 45.8 8.6 28.1-4.4 49.6-25 56.4-50.8.2 0 .3 0 .5-.1 27.2-4.3 46.1-28.3 42.1-53.6-1.3-8.3-4.9-15.7-10.1-21.7 12.6-6 20.2-19.8 17.9-34.3z" fill="none"/><path fill="#fff" stroke="#231F20" stroke-width="2.497" stroke-linecap="round" stroke-linejoin="round" stroke-miterlimit="10" d="M214.9 180.1"/><path d="M412.1 108.4c-2.6-16.2-16.6-27.8-32.5-27.7 0-2.9-.3-5.9-.7-8.9-5.1-32.2-34.3-54.6-66.4-51.6C306.8 6.5 292.3-2 277.1.4c-9.7 1.5-17.7 7.1-22.6 14.7-9.6-3.4-20.1-4.6-30.8-2.9-31 4.9-53.1 31.7-52.9 62.1-1.4 0-2.8.2-4.3.4-18.7 2.9-31.4 20.4-28.5 39 1.9 12.4 10.3 22.1 21.2 26.4-15 8.4-24 25.6-21.2 43.6 3.6 22.7 24.6 38.4 47.3 35.5 0 2.4.2 4.9.6 7.4 4.2 26.5 29.1 44.6 55.6 40.4 6.6-1 12.7-3.4 18-6.7 13.3 7.8 29.4 11.2 45.8 8.6 28.1-4.4 49.6-25 56.4-50.8.2 0 .3 0 .5-.1 27.2-4.3 46.1-28.3 42.1-53.6-1.3-8.3-4.9-15.7-10.1-21.7 12.6-6 20.2-19.8 17.9-34.3z" fill="none"/><defs><path id="e" d="M412.1 108.4c-2.6-16.2-16.6-27.8-32.5-27.7 0-2.9-.3-5.9-.7-8.9-5.1-32.2-34.3-54.6-66.4-51.6C306.8 6.5 292.3-2 277.1.4c-9.7 1.5-17.7 7.1-22.6 14.7-9.6-3.4-20.1-4.6-30.8-2.9-31 4.9-53.1 31.7-52.9 62.1-1.4 0-2.8.2-4.3.4-18.7 2.9-31.4 20.4-28.5 39 1.9 12.4 10.3 22.1 21.2 26.4-15 8.4-24 25.6-21.2 43.6 3.6 22.7 24.6 38.4 47.3 35.5 0 2.4.2 4.9.6 7.4 4.2 26.5 29.1 44.6 55.6 40.4 6.6-1 12.7-3.4 18-6.7 13.3 7.8 29.4 11.2 45.8 8.6 28.1-4.4 49.6-25 56.4-50.8.2 0 .3 0 .5-.1 27.2-4.3 46.1-28.3 42.1-53.6-1.3-8.3-4.9-15.7-10.1-21.7 12.6-6 20.2-19.8 17.9-34.3z"/></defs><clipPath id="f"><use xlink:href="#e" overflow="visible"/></clipPath><g clip-path="url(#f)"><path fill="#fff" d="M324.3 270c-1.7-1.5-18.2-58.7-18.2-58.7l-31.9-47.5c-15-19.2 7.7-40.3 26-16.2l36.3 46.9 27.3 57.5"/><path fill="#231F20" d="M324.3 271.2c-.3 0-.6-.1-.8-.3-.5-.4-1.3-1.2-10.1-30.5-4-13.4-7.9-26.9-8.4-28.6l-31.8-47.3c-5-6.4-6.5-13.7-3.9-19.9 2-4.9 6.3-8.3 11.4-9 4.1-.5 12.1.2 20.5 11.1l36.3 46.9c.1.1.1.1.1.2l27.3 57.5c.3.6 0 1.4-.6 1.7-.6.3-1.4 0-1.7-.6L335.4 195l-36.2-46.8c-5.5-7.3-12.1-11-18.2-10.2-4.2.6-7.8 3.3-9.4 7.4-2.2 5.4-.9 11.7 3.6 17.4l.1.1 31.9 47.5c.1.1.1.2.2.4 6.4 22.1 16.4 55.7 17.9 58.2.4.5.4 1.2 0 1.7-.4.4-.7.5-1 .5z"/><path fill="#fff" d="M283 164.1c-7.6-7.8-9.9-20.1.1-21.6 7-1 15.2 11.1 15.2 11.1s-10.1 2.9-15.3 10.5z"/><path fill="#231F20" d="M283 165.4c-.3 0-.7-.1-.9-.4-5.5-5.6-8.1-13.1-6.4-18.1.7-2.2 2.6-4.9 7.3-5.6.3 0 .7-.1 1-.1 7.4 0 15 11.2 15.4 11.7.2.3.3.7.1 1.1-.1.4-.4.7-.8.8-.1 0-9.8 2.9-14.6 10-.2.3-.5.5-.9.5-.1.1-.1.1-.2.1zm1-21.7h-.7c-2.7.4-4.5 1.7-5.3 3.9-1.3 3.8.8 9.8 4.8 14.5 4.2-5.3 10.5-8.1 13.4-9.2-2.5-3.4-7.8-9.2-12.2-9.2z"/></g><path fill="#fff" stroke="#231F20" stroke-width="2.497" stroke-linecap="round" stroke-linejoin="round" stroke-miterlimit="10" d="M-101.3 220"/></svg>