<svg xmlns="http://www.w3.org/2000/svg" xmlns:xlink="http://www.w3.org/1999/xlink" width="550" height="270" viewBox="-693.8 -117.6 550 270" enable-background="new -693.8 -117.6 550 270"><path fill="#fff" stroke="#231F20" stroke-width="2.497" stroke-linecap="round" stroke-linejoin="round" stroke-miterlimit="10" d="M-321.7 62.5"/><path fill="#fff" d="M-144.2-9.2c-2.6-16.2-16.6-27.8-32.5-27.7 0-2.9-.3-5.9-.7-8.9-5.1-32.2-34.3-54.6-66.4-51.6-5.7-13.6-20.2-22.2-35.4-19.8-9.7 1.5-17.7 7.1-22.6 14.7-9.6-3.4-20.1-4.6-30.8-2.9-31 4.9-53.1 31.7-52.9 62.1-1.4 0-2.8.2-4.3.4-18.7 2.9-31.4 20.4-28.5 39 1.9 12.4 10.3 22.1 21.2 26.4-15 8.4-24 25.6-21.2 43.6 3.6 22.7 24.6 38.4 47.3 35.5 0 2.4.2 4.9.6 7.4 4.2 26.5 29.1 44.6 55.6 40.4 6.6-1 12.7-3.4 18-6.7 13.3 7.8 29.4 11.2 45.8 8.6 28.1-4.4 49.6-25 56.4-50.8.2 0 .3 0 .5-.1 27.2-4.3 46.1-28.3 42.1-53.6-1.3-8.3-4.9-15.7-10.1-21.7 12.6-6.1 20.2-19.8 17.9-34.3z"/><path fill="#fff" stroke="#231F20" stroke-width="2.497" stroke-linecap="round" stroke-linejoin="round" stroke-miterlimit="10" d="M-370.2 79.5"/><path d="M-144.2-9.2c-2.6-16.2-16.6-27.8-32.5-27.7 0-2.9-.3-5.9-.7-8.9-5.1-32.2-34.3-54.6-66.4-51.6-5.7-13.6-20.2-22.2-35.4-19.8-9.7 1.5-17.7 7.1-22.6 14.7-9.6-3.4-20.1-4.6-30.8-2.9-31 4.9-53.1 31.7-52.9 62.1-1.4 0-2.8.2-4.3.4-18.7 2.9-31.4 20.4-28.5 39 1.9 12.4 10.3 22.1 21.2 26.4-15 8.4-24 25.6-21.2 43.6 3.6 22.7 24.6 38.4 47.3 35.5 0 2.4.2 4.9.6 7.4 4.2 26.5 29.1 44.6 55.6 40.4 6.6-1 12.7-3.4 18-6.7 13.3 7.8 29.4 11.2 45.8 8.6 28.1-4.4 49.6-25 56.4-50.8.2 0 .3 0 .5-.1 27.2-4.3 46.1-28.3 42.1-53.6-1.3-8.3-4.9-15.7-10.1-21.7 12.6-6.1 20.2-19.8 17.9-34.3z" fill="none"/><ellipse fill="#DBDCDD" cx="-275" cy="27.7" rx="70.1" ry="61.7"/><ellipse fill="#fff" cx="-281.4" cy="24.4" rx="57.8" ry="57.7"/><path fill="#231F20" d="M-281.4 83.4c-32.6 0-59.1-26.5-59.1-59s26.5-59 59.1-59 59.1 26.5 59.1 59-26.5 59-59.1 59zm0-115.5c-31.2 0-56.6 25.3-56.6 56.5 0 31.1 25.4 56.5 56.6 56.5 31.2 0 56.6-25.3 56.6-56.5 0-31.1-25.4-56.5-56.6-56.5z"/><ellipse fill="#fff" cx="-281.4" cy="13.6" rx="57.8" ry="57.7"/><path fill="#231F20" d="M-281.4 72.6c-32.6 0-59.1-26.5-59.1-59s26.5-59 59.1-59 59.1 26.5 59.1 59-26.5 59-59.1 59zm0-115.5c-31.2 0-56.6 25.3-56.6 56.5 0 31.1 25.4 56.5 56.6 56.5 31.2 0 56.6-25.3 56.6-56.5 0-31.1-25.4-56.5-56.6-56.5z"/><path fill="#fff" d="M-299.7 34.9v-49.7l49.4 27.2-4.3 4.8z"/><path fill="#231F20" d="M-299.7 36.2c-.2 0-.5-.1-.7-.2-.3-.2-.5-.6-.5-1v-49.7c0-.4.2-.8.6-1.1.4-.2.9-.2 1.2 0l49.5 27.2c.3.2.6.5.6.9.1.4 0 .8-.3 1l-4.3 4.8c-.1.1-.3.3-.5.3l-45.1 17.7c-.2 0-.4.1-.5.1zm1.2-48.9v45.8l43.1-16.9 3.1-3.5-46.2-25.4z"/><path fill="#fff" d="M-299.7 42.1V-7.6l45.1 24.8z"/><path fill="#231F20" d="M-299.7 43.3c-.2 0-.4-.1-.6-.2-.4-.2-.6-.6-.6-1.1V-7.6c0-.4.2-.8.6-1.1.4-.2.9-.2 1.2 0l45.1 24.8c.4.2.6.6.6 1.1s-.2.9-.6 1.1l-45.1 24.9c-.2.1-.4.1-.6.1zm1.2-48.8V40l41.3-22.8-41.3-22.7z"/><path fill="#fff" stroke="#231F20" stroke-width="2.497" stroke-linecap="round" stroke-linejoin="round" stroke-miterlimit="10" d="M-341.3 62.5"/><path d="M-144.2-9.2c-2.6-16.2-16.6-27.8-32.5-27.7 0-2.9-.3-5.9-.7-8.9-5.1-32.2-34.3-54.6-66.4-51.6-5.7-13.6-20.2-22.2-35.4-19.8-9.7 1.5-17.7 7.1-22.6 14.7-9.6-3.4-20.1-4.6-30.8-2.9-31 4.9-53.1 31.7-52.9 62.1-1.4 0-2.8.2-4.3.4-18.7 2.9-31.4 20.4-28.5 39 1.9 12.4 10.3 22.1 21.2 26.4-15 8.4-24 25.6-21.2 43.6 3.6 22.7 24.6 38.4 47.3 35.5 0 2.4.2 4.9.6 7.4 4.2 26.5 29.1 44.6 55.6 40.4 6.6-1 12.7-3.4 18-6.7 13.3 7.8 29.4 11.2 45.8 8.6 28.1-4.4 49.6-25 56.4-50.8.2 0 .3 0 .5-.1 27.2-4.3 46.1-28.3 42.1-53.6-1.3-8.3-4.9-15.7-10.1-21.7 12.6-6.1 20.2-19.8 17.9-34.3z" fill="none"/><defs><path id="a" d="M-144.2-9.2c-2.6-16.2-16.6-27.8-32.5-27.7 0-2.9-.3-5.9-.7-8.9-5.1-32.2-34.3-54.6-66.4-51.6-5.7-13.6-20.2-22.2-35.4-19.8-9.7 1.5-17.7 7.1-22.6 14.7-9.6-3.4-20.1-4.6-30.8-2.9-31 4.9-53.1 31.7-52.9 62.1-1.4 0-2.8.2-4.3.4-18.7 2.9-31.4 20.4-28.5 39 1.9 12.4 10.3 22.1 21.2 26.4-15 8.4-24 25.6-21.2 43.6 3.6 22.7 24.6 38.4 47.3 35.5 0 2.4.2 4.9.6 7.4 4.2 26.5 29.1 44.6 55.6 40.4 6.6-1 12.7-3.4 18-6.7 13.3 7.8 29.4 11.2 45.8 8.6 28.1-4.4 49.6-25 56.4-50.8.2 0 .3 0 .5-.1 27.2-4.3 46.1-28.3 42.1-53.6-1.3-8.3-4.9-15.7-10.1-21.7 12.6-6.1 20.2-19.8 17.9-34.3z"/></defs><clipPath id="b"><use xlink:href="#a" overflow="visible"/></clipPath><g clip-path="url(#b)" fill="#fff" stroke="#231F20" stroke-width="2.497" stroke-linecap="round" stroke-linejoin="round" stroke-miterlimit="10"><path d="M-208.5 128.5c-1.7-1.5-14.5-47.8-14.5-47.8l-31.9-47.5c-15-19.2 7.7-40.3 26-16.2l36.3 46.9 27.3 57.5"/><path d="M-246 33.5c-7.6-7.8-9.9-20.1.1-21.6 7-1 15.2 11.1 15.2 11.1s-10.1 2.9-15.3 10.5z"/></g><path fill="#fff" d="M-419.2-9.2c-2.6-16.2-16.6-27.8-32.5-27.7 0-2.9-.3-5.9-.7-8.9-5.1-32.2-34.3-54.6-66.4-51.6-5.7-13.6-20.2-22.2-35.4-19.8-9.7 1.5-17.7 7.1-22.6 14.7-9.6-3.4-20.1-4.6-30.8-2.9-31 4.9-53.1 31.7-52.9 62.1-1.4 0-2.8.2-4.3.4-18.7 2.9-31.4 20.4-28.5 39 1.9 12.4 10.3 22.1 21.2 26.4-15 8.4-24 25.6-21.2 43.6 3.6 22.7 24.6 38.4 47.3 35.5 0 2.4.2 4.9.6 7.4 4.2 26.5 29.1 44.6 55.6 40.4 6.6-1 12.7-3.4 18-6.7 13.3 7.8 29.4 11.2 45.8 8.6 28.1-4.4 49.6-25 56.4-50.8.2 0 .3 0 .5-.1 27.2-4.3 46.1-28.3 42.1-53.6-1.3-8.3-4.9-15.7-10.1-21.7 12.6-6.1 20.2-19.8 17.9-34.3z"/><path fill="#fff" stroke="#231F20" stroke-width="2.497" stroke-linecap="round" stroke-linejoin="round" stroke-miterlimit="10" d="M-645.2 79.5"/><path d="M-419.2-9.2c-2.6-16.2-16.6-27.8-32.5-27.7 0-2.9-.3-5.9-.7-8.9-5.1-32.2-34.3-54.6-66.4-51.6-5.7-13.6-20.2-22.2-35.4-19.8-9.7 1.5-17.7 7.1-22.6 14.7-9.6-3.4-20.1-4.6-30.8-2.9-31 4.9-53.1 31.7-52.9 62.1-1.4 0-2.8.2-4.3.4-18.7 2.9-31.4 20.4-28.5 39 1.9 12.4 10.3 22.1 21.2 26.4-15 8.4-24 25.6-21.2 43.6 3.6 22.7 24.6 38.4 47.3 35.5 0 2.4.2 4.9.6 7.4 4.2 26.5 29.1 44.6 55.6 40.4 6.6-1 12.7-3.4 18-6.7 13.3 7.8 29.4 11.2 45.8 8.6 28.1-4.4 49.6-25 56.4-50.8.2 0 .3 0 .5-.1 27.2-4.3 46.1-28.3 42.1-53.6-1.3-8.3-4.9-15.7-10.1-21.7 12.6-6.1 20.2-19.8 17.9-34.3z" fill="none"/><ellipse fill="#DBDCDD" cx="-550" cy="27.7" rx="70.1" ry="61.7"/><ellipse fill="#fff" cx="-556.4" cy="24.4" rx="57.8" ry="57.7"/><path fill="#231F20" d="M-556.4 83.4c-32.6 0-59.1-26.5-59.1-59s26.5-59 59.1-59 59.1 26.5 59.1 59-26.5 59-59.1 59zm0-115.5c-31.2 0-56.6 25.3-56.6 56.5 0 31.1 25.4 56.5 56.6 56.5 31.2 0 56.6-25.3 56.6-56.5 0-31.1-25.4-56.5-56.6-56.5z"/><ellipse fill="#fff" cx="-556.4" cy="13.6" rx="57.8" ry="57.7"/><path fill="#231F20" d="M-556.4 72.6c-32.6 0-59.1-26.5-59.1-59s26.5-59 59.1-59 59.1 26.5 59.1 59-26.5 59-59.1 59zm0-115.5c-31.2 0-56.6 25.3-56.6 56.5 0 31.1 25.4 56.5 56.6 56.5 31.2 0 56.6-25.3 56.6-56.5 0-31.1-25.4-56.5-56.6-56.5z"/><path fill="#fff" d="M-574.7 34.9v-49.7l49.4 27.2-4.3 4.8z"/><path fill="#231F20" d="M-574.7 36.2c-.2 0-.5-.1-.7-.2-.3-.2-.5-.6-.5-1v-49.7c0-.4.2-.8.6-1.1.4-.2.9-.2 1.2 0l49.5 27.2c.3.2.6.5.6.9.1.4 0 .8-.3 1l-4.3 4.8c-.1.1-.3.3-.5.3l-45.1 17.7c-.2 0-.4.1-.5.1zm1.2-48.9v45.8l43.1-16.9 3.1-3.5-46.2-25.4z"/><path fill="#fff" d="M-574.7 42.1V-7.6l45.1 24.8z"/><path fill="#231F20" d="M-574.7 43.3c-.2 0-.4-.1-.6-.2-.4-.2-.6-.6-.6-1.1V-7.6c0-.4.2-.8.6-1.1.4-.2.9-.2 1.2 0l45.1 24.8c.4.2.6.6.6 1.1 0 .5-.2.9-.6 1.1l-45.1 24.9c-.2.1-.4.1-.6.1zm1.2-48.8V40l41.3-22.8-41.3-22.7z"/></svg>