<svg xmlns="http://www.w3.org/2000/svg" viewBox="0 0 398.59 269.44"><defs><style>.cls-1,.cls-12{fill:#332e2e;}.cls-1{opacity:0.2;}.cls-2{fill:#764c2e;}.cls-3{fill:#603813;}.cls-4{fill:#fff;}.cls-5{fill:#29b6f6;}.cls-6{fill:#212121;}.cls-7{fill:#e53935;}.cls-8{fill:#f9ce1d;}.cls-9{fill:#f7caad;}.cls-10{fill:#ef9a9a;}.cls-11,.cls-14,.cls-22,.cls-23,.cls-25,.cls-28{fill:none;stroke-linecap:round;stroke-miterlimit:10;}.cls-11{stroke:#fadcbc;}.cls-11,.cls-14{stroke-width:13.97px;}.cls-13{fill:#f33;}.cls-14{stroke:#f33;}.cls-15{fill:#fadcbc;}.cls-16{fill:#bf804a;}.cls-17{fill:#ad00ad;}.cls-18{fill:#f73;}.cls-19{fill:#39f;}.cls-20{fill:#6f00ff;}.cls-21{fill:#32a658;}.cls-22{stroke:#e6e6e6;}.cls-22,.cls-23{stroke-width:0.9px;}.cls-23{stroke:#cca918;}.cls-24{fill:#1976d2;}.cls-25{stroke:#3949ab;stroke-width:3.49px;}.cls-26{fill:#3949ab;}.cls-27{fill:#cc2929;}.cls-28{stroke:#332e2e;stroke-width:1.95px;}</style></defs><title>st_clausdraws_loadingillustration</title><g id="Layer_2" data-name="Layer 2"><g id="Layer_1-2" data-name="Layer 1"><ellipse class="cls-1" cx="293.26" cy="241.41" rx="105.33" ry="9.45"/><path class="cls-2" d="M311.78,16.05h0a8,8,0,0,1,7.84,6.31l46.11,209.29a8,8,0,0,1-7.84,9.76h0a8,8,0,0,1-7.84-6.3L303.94,25.81A8,8,0,0,1,311.78,16.05Z"/><path class="cls-3" d="M271.62,33.06h0a8,8,0,0,0-7.84,6.3L221.41,231.65a8,8,0,0,0,7.84,9.76h0a8,8,0,0,0,7.84-6.3L279.46,42.82A8,8,0,0,0,271.62,33.06Z"/><path class="cls-3" d="M317.38,33.06h0a8,8,0,0,0-7.84,6.3L267.17,231.65a8,8,0,0,0,7.84,9.76h0a8,8,0,0,0,7.84-6.3L325.22,42.82A8,8,0,0,0,317.38,33.06Z"/><polygon class="cls-4" points="354.78 33.06 237.75 33.06 208.64 165.18 325.68 165.18 354.78 33.06"/><path class="cls-5" d="M256,49.43c-9.85,3.67-17.81,14.7-14.26,24.59,1.68,4.71,5.59,8.34,7.37,13,2.79,7.29-.16,15.6-4.65,22s-10.48,11.61-14.88,18-7.09,14.9-4,22.06c2.89,6.64,10.18,10.49,17.38,11.32s14.41-.83,21.47-2.43,14.33-3.14,21.49-2.08c5.08.75,9.95,2.79,15.08,3a21.09,21.09,0,0,0,18.72-32.21c-4-6.46-11.71-11.37-11.86-19-.1-5.31,3.74-9.89,7.93-13.16s9-5.84,12.39-10S333,74.08,329.58,70c-2.57-3.09-7.28-2.59-9.19-6.17a6.29,6.29,0,0,1,.64-6.71c1.63-2,4.46-2.91,5.8-5.14s.72-5.19-.93-7.16a12,12,0,0,0-6.65-3.62c-6-1.35-12.21-.14-18.09,1.55-6.68,1.93-14,5.11-20.93,5.48C272.05,48.66,263.94,46.47,256,49.43Z"/><path class="cls-6" d="M259.74,138c-1.58.89-3.54.5-5.35.27s-3.95-.08-5,1.42-.23,3.86,1.3,5a11.22,11.22,0,0,0,5.39,1.65l8.56,1.1a3.94,3.94,0,0,0,5.33-3.18l4.51-12.73c-2.56-.63-7.52-2.88-10.12-1.39C261.56,131.69,262.82,136.41,259.74,138Z"/><path class="cls-6" d="M281.93,142a4.68,4.68,0,0,0,1.49,3c1.11.76,2.61.42,3.9.05l7.49-2.16a10.44,10.44,0,0,0,2.95-1.19,3.52,3.52,0,0,0,1.68-2.58c.12-1.78-1.68-3.22-3.45-3.38a10.44,10.44,0,0,0-5.13,1.3L287.48,129c-1.91.58-7.29,1.12-7.55,3.4-.15,1.32.62,3.13.9,4.42Z"/><path class="cls-7" d="M272.06,94.49c-6.64,4.15-12.4,10.24-14.53,17.78s.08,16.54,6.47,21.07a20.1,20.1,0,0,0,13.39,3.19,25,25,0,0,0,19.13-11.92,22.06,22.06,0,0,0-.14-22.29c-4.15-6.62-12.51-10.44-20.15-8.85Z"/><path class="cls-7" d="M308.1,103c1.78-.06,3.83.12,4.91,1.55s.55,3.83-.82,5.15a10.87,10.87,0,0,1-5.13,2.33A76.49,76.49,0,0,1,294.92,114c-1.07.08-1.43-5.12-1.35-5.79a3.09,3.09,0,0,1,1.88-2.75C299.12,103.61,304.08,103.15,308.1,103Z"/><path class="cls-8" d="M308.57,111.14c1.91,1.73,4.87,1.58,7.33.83,2.29-.69,4.61-2,5.54-4.18a5.18,5.18,0,0,0-7.69-6.3,2.9,2.9,0,0,0-2.07-3.35,3.83,3.83,0,0,0-3.88,1.38C305.66,102.16,306,108.84,308.57,111.14Z"/><path class="cls-7" d="M255.49,96.87c-1.76-.27-3.82-.33-5.06,1s-1,3.73.2,5.21a10.79,10.79,0,0,0,4.82,2.92,75.58,75.58,0,0,0,11.83,3.34c1.05.21,2-4.91,2-5.58a3.09,3.09,0,0,0-1.53-3C264.34,98.53,259.47,97.48,255.49,96.87Z"/><path class="cls-8" d="M252.17,104.51c-2.43.86-5.1-.43-7.08-2.07s-3.48-3.61-3.49-6a5.19,5.19,0,0,1,9.53-2.84,2.91,2.91,0,0,1,3.2-2.29,3.87,3.87,0,0,1,3,2.79C258.33,97.36,255.41,103.37,252.17,104.51Z"/><path class="cls-9" d="M267.57,88.66l19.61.16a26.94,26.94,0,0,1,8.05.86,7.45,7.45,0,0,1,5.27,5.06c2.44-3.42,4.21-7.34,4.38-11.15s-1.45-7.45-4.66-9c-2.21-1.07-4.94-1.1-7.58-1.11l-10.87-.06c-3.43,0-6.87.49-9.2,3.79C271.9,78.15,266.68,88.65,267.57,88.66Z"/><path class="cls-4" d="M288,85.17c3.48,0,7.15.09,9.79,1.9,2.93,2,4,5.78,4.64,9.43.44,2.61.72,5.41-.37,8.14-1.32,3.28-4.43,5.87-7.66,7.52a24.12,24.12,0,0,1-19,1.35,24.54,24.54,0,0,1-12.89-11.63,38.4,38.4,0,0,1-3.67-10.25c-.71-3.28-2-6.49,2.85-6.62C270.44,84.76,279.2,85.11,288,85.17Z"/><path class="cls-10" d="M288.86,80.55a4.46,4.46,0,0,0-1.42-.17,4.91,4.91,0,0,0-1.54.28,5.68,5.68,0,0,0-1.71.92,4.45,4.45,0,0,0-1,1.37,4.56,4.56,0,0,0-.48,3.56,3.53,3.53,0,0,0,3.79,2.24,5.76,5.76,0,0,0,4.4-3.3,4.65,4.65,0,0,0,.36-2.42,3.43,3.43,0,0,0-.22-.85,2.43,2.43,0,0,0-.24-.6,3.29,3.29,0,0,0-1.49-.9A3.38,3.38,0,0,0,288.86,80.55Z"/><path class="cls-7" d="M277.07,57.36l-1.77,10.7a6.58,6.58,0,0,0-.05,2.89c.59,1.86,2.83,2.21,4.79,2.31a126.73,126.73,0,0,0,12.78,0c2.65-.14,7.82.61,9.65-2.71C305.55,65,292.26,60.46,289,59.4,288.08,59.09,277.16,56.84,277.07,57.36Z"/><path class="cls-4" d="M267.38,53a6.35,6.35,0,0,0-3.4,4.91,4.33,4.33,0,0,0,2.58,4.35,5.75,5.75,0,0,0,4.92-.4,6.31,6.31,0,0,0,3.11-4.25C275.13,54.11,270.76,51.29,267.38,53Z"/><path class="cls-4" d="M272.27,68.76A6.9,6.9,0,0,0,269,73.24a4.28,4.28,0,0,0,1.66,4.4c1.42.94,3.39.93,5.26.89L301.67,78c2.33-.05,5.12-.33,6.7-2.33a4.28,4.28,0,0,0-.91-6.1c-1.79-1.24-4.27-1.34-6.64-1.41-5.57-.16-11.13-.45-16.73-.49-1.66,0-3.36.27-5,.27C276.78,68,274.6,67.39,272.27,68.76Z"/><path class="cls-6" d="M300.13,119c1.7,3.25-.75,7.42-4.1,8.9s-7.19,1.05-10.83.58l-21.3-2.76a21,21,0,0,1-6.71-1.64c-2.64-1.3-6.85-7.24-2.3-9.09,1.33-.54,3.25.41,4.53.72,2.54.61,5.13,1.07,7.7,1.49A152.65,152.65,0,0,0,300.13,119Z"/><path class="cls-8" d="M276.32,117.7c-1.59-.37-3.5-.43-4.62.77a4.06,4.06,0,0,0-.66,3.78A7.45,7.45,0,0,0,281.69,127a5.59,5.59,0,0,0,3.22-5.08C284.62,117.68,279.25,118.37,276.32,117.7Z"/><ellipse class="cls-1" cx="120.01" cy="261.33" rx="90.37" ry="8.1"/><path class="cls-11" d="M132.23,172.39v54.94"/><path class="cls-12" d="M163.2,234.31a13.51,13.51,0,0,1-13.52,13.51h0a10.47,10.47,0,0,1-10.47-10.47v-10h-14v30.51a3.49,3.49,0,0,0,3.49,3.49h34.13a13.72,13.72,0,0,0,13.83-13A13.51,13.51,0,0,0,163.2,234.31Z"/><path class="cls-8" d="M139.21,240.84H134a3.49,3.49,0,1,1,0-7h5.25a3.49,3.49,0,1,1,0,7Z"/><path class="cls-11" d="M107.8,172.39v54.94"/><path class="cls-12" d="M76.83,234.31a13.51,13.51,0,0,0,13.51,13.51h0a10.47,10.47,0,0,0,10.47-10.47v-10h14v30.51a3.49,3.49,0,0,1-3.49,3.49H77.15a13.72,13.72,0,0,1-13.83-13A13.52,13.52,0,0,1,76.83,234.31Z"/><path class="cls-8" d="M100.81,240.84h5.25a3.49,3.49,0,0,0,0-7h-5.25a3.49,3.49,0,0,0,0,7Z"/><polygon class="cls-7" points="107.8 172.38 132.23 172.38 120.01 110.55 107.8 172.38"/><path class="cls-13" d="M120,103.57a29.78,29.78,0,0,0-29.78,29.78v25a29.78,29.78,0,0,0,59.56,0v-25A29.78,29.78,0,0,0,120,103.57Z"/><path class="cls-14" d="M120,110.55c28.29,0,47.89,31.75,73.53,29"/><circle class="cls-15" cx="208.35" cy="138.01" r="14.89"/><path class="cls-4" d="M201.82,151.39l-2.67-25.09a7,7,0,1,0-13.88,1.47l2.66,25.1a7,7,0,0,0,13.89-1.48Z"/><path class="cls-16" d="M239.1,144c-2,16.54-15.95,33.81-38.27,31.11s-39-21.55-36.21-45c2.1-17.35,14.79-33.82,36-31.25,10,1.2,13.77,6.85,13.13,12.09-1.05,8.7-9,7.74-9.92,15.48-.74,6.15,3.4,9.11,7,9.54,9.95,1.2,10.48-11.19,19.28-10.13C237.51,126.7,240.4,133.28,239.1,144Z"/><circle class="cls-13" cx="228.01" cy="142.09" r="6.03"/><circle class="cls-17" cx="199.84" cy="108.39" r="6.03"/><circle class="cls-8" cx="184.4" cy="115.12" r="6.03"/><circle class="cls-18" cx="217.18" cy="158.36" r="7.41"/><circle class="cls-19" cx="182.33" cy="150.14" r="7.41"/><circle class="cls-20" cx="176.12" cy="131.99" r="6.91"/><circle class="cls-21" cx="197.82" cy="162.02" r="8.29"/><circle class="cls-15" cx="214.92" cy="134.51" r="7.45"/><path class="cls-14" d="M120,110.55c-28.29,0-52.76,27.48-73.45,8.11"/><circle class="cls-15" cx="35.69" cy="108.48" r="14.89"/><path d="M63.07,80.65h0a1.82,1.82,0,0,0-2.43-.44L20.7,105.6a5.57,5.57,0,0,0-1.46,8.05h0a5.58,5.58,0,0,0,8.14.82L62.82,83.11A1.83,1.83,0,0,0,63.07,80.65Z"/><path class="cls-4" d="M0,127.49c10.61,4.64,30.15-6.17,22.45-16.39-3.22-4.27-8.1-3.74-11.85-.92C4.75,114.59,6.08,122.91,0,127.49Z"/><path class="cls-4" d="M0,127.49c10.61,4.64,30.15-6.17,22.45-16.39-3.22-4.27-8.1-3.74-11.85-.92C4.75,114.59,6.08,122.91,0,127.49Z"/><path class="cls-22" d="M5,126.52c7.93-2,12.57-5.44,15.12-10"/><path class="cls-22" d="M7.92,121c2.54-6,7.68-4.21,11.67-8.19"/><path class="cls-8" d="M0,127.49c2.79-2.11,2.8-5.86,4-8.37.52-1.13,2.47-2.87,4.38-1.78,2.47,1.41-.85,6,2.84,5.49s5.3,4,1.73,5.53A13.54,13.54,0,0,1,0,127.49Z"/><path class="cls-23" d="M12.52,126.78a13.72,13.72,0,0,1-8.66.2"/><circle class="cls-15" cx="35.69" cy="101.04" r="7.45"/><path class="cls-4" d="M60,104.35a7,7,0,0,0-9.87.33L32.84,123.1A7,7,0,1,0,43,132.64l17.24-18.42A7,7,0,0,0,60,104.35Z"/><rect class="cls-12" x="90.23" y="143.42" width="59.56" height="14.89"/><rect class="cls-8" x="112.57" y="143.42" width="14.89" height="14.89"/><path class="cls-24" d="M84.93,197V137.87a8.7,8.7,0,0,1,2-5.6,59.43,59.43,0,0,0,6.13-9.5,8.48,8.48,0,0,1,13.43-2,19.91,19.91,0,0,0,26.89,0,8.5,8.5,0,0,1,13.45,2,57.45,57.45,0,0,0,5.93,9.18,9.45,9.45,0,0,1,2.28,6.11V197a6.87,6.87,0,0,1-6.86,6.87H91.8A6.87,6.87,0,0,1,84.93,197Z"/><path class="cls-25" d="M120,160.72h0a10.23,10.23,0,0,1-10.23-10.23v-11h20.46v11A10.23,10.23,0,0,1,120,160.72Z"/><path class="cls-26" d="M100.93,133.58h0a5.25,5.25,0,0,1-5.25-5.25V105.15a2.79,2.79,0,0,1,2.79-2.79h4.92a2.79,2.79,0,0,1,2.79,2.79v23.18A5.25,5.25,0,0,1,100.93,133.58Z"/><circle class="cls-8" cx="100.93" cy="128.33" r="2.52"/><path class="cls-26" d="M139.09,133.58h0a5.25,5.25,0,0,1-5.25-5.25V105.15a2.79,2.79,0,0,1,2.79-2.79h4.92a2.79,2.79,0,0,1,2.79,2.79v23.18A5.25,5.25,0,0,1,139.09,133.58Z"/><circle class="cls-8" cx="139.09" cy="128.33" r="2.52"/><path class="cls-25" d="M91.4,179.13a13,13,0,0,0,12.06-12.26"/><path class="cls-25" d="M148.62,179.13a13,13,0,0,1-12.05-12.26"/><path class="cls-13" d="M143.61,51.23c0-19.25-11.18-30.5-23.6-30.5S96.41,32,96.41,51.23Z"/><circle class="cls-4" cx="120.01" cy="10.36" r="10.36"/><ellipse class="cls-27" cx="120.01" cy="65.05" rx="49.11" ry="38.52"/><path class="cls-2" d="M84.79,73.79a35.23,35.23,0,0,1,70.45,0Z"/><circle class="cls-2" cx="92.88" cy="95.48" r="8.1"/><circle class="cls-2" cx="111.3" cy="95.48" r="8.1"/><circle class="cls-2" cx="83.67" cy="95.48" r="8.1"/><circle class="cls-2" cx="102.09" cy="95.48" r="8.1"/><circle class="cls-2" cx="147.14" cy="95.48" r="8.1"/><circle class="cls-2" cx="128.72" cy="95.48" r="8.1"/><circle class="cls-2" cx="156.35" cy="95.48" r="8.1"/><circle class="cls-2" cx="137.93" cy="95.48" r="8.1"/><rect class="cls-2" x="83.67" y="73.78" width="72.68" height="21.69"/><path class="cls-15" d="M159.45,53,144.22,68.22a7.88,7.88,0,1,0,11.14,11.14C164.88,69.85,159.45,53,159.45,53Z"/><path class="cls-15" d="M95.8,68.22,80.58,53s-5.43,16.86,4.08,26.37A7.88,7.88,0,1,0,95.8,68.22Z"/><circle class="cls-15" cx="120.01" cy="73.79" r="29.78"/><path class="cls-2" d="M136.76,49a16.76,16.76,0,0,0-33.5,0,5.44,5.44,0,0,0,0,.57,5.6,5.6,0,1,0,11.19,0,5.6,5.6,0,1,0,11.19,0,5.59,5.59,0,1,0,11.18,0A5.44,5.44,0,0,0,136.76,49Z"/><path class="cls-28" d="M102,65.25a6,6,0,0,1,12,0"/><path class="cls-28" d="M126,65.25a6,6,0,0,1,12,0"/><path class="cls-4" d="M138.06,71.61a18,18,0,1,1-36.09,0Z"/></g></g></svg>