<?xml version="1.0" encoding="utf-8"?>
<!-- Generator: Adobe Illustrator 19.1.0, SVG Export Plug-In . SVG Version: 6.00 Build 0)  -->
<svg version="1.1" id="Layer_1" xmlns="http://www.w3.org/2000/svg" xmlns:xlink="http://www.w3.org/1999/xlink" x="0px" y="0px"
	 width="48px" height="43px" viewBox="-455.3 259.9 48 43" style="enable-background:new -455.3 259.9 48 43;" xml:space="preserve"
	>
<style type="text/css">
	.st0{clip-path:url(#SVGID_2_);fill:url(#SVGID_3_);}
	.st1{clip-path:url(#SVGID_5_);}
	.st2{fill:#9B51A0;}
	.st3{fill:#C985DE;}
	.st4{opacity:0.1;enable-background:new    ;}
	.st5{clip-path:url(#SVGID_7_);}
	.st6{fill:#FFFFFF;}
	.st7{clip-path:url(#SVGID_9_);fill:#FFFFFF;}
</style>
<g id="New_Symbol_1_2_">
</g>
<g id="New_Symbol_16">
</g>
<g id="New_Symbol_1_1_">
</g>
<g id="New_Symbol_1">
</g>
<g id="New_Symbol_16_1_">
</g>
<g id="New_Symbol_17">
</g>
<g id="New_Symbol_18">
	<g id="New_Symbol_2">
	</g>
</g>
<g id="New_Symbol_1_3_">
</g>
<g id="New_Symbol_20">
</g>
<g id="New_Symbol_21">
</g>
<g id="New_Symbol_19">
	<g id="New_Symbol">
	</g>
</g>
<g id="New_Symbol_1_6_">
</g>
<g id="New_Symbol_16_3_">
</g>
<g id="New_Symbol_17_2_">
</g>
<g id="New_Symbol_18_2_">
</g>
<g id="New_Symbol_1_5_">
</g>
<g id="New_Symbol_20_2_">
</g>
<g id="New_Symbol_21_2_">
	<g>
		<g>
			<g>
				<defs>
					<rect id="SVGID_1_" x="-455" y="259.9" width="47.4" height="42.1"/>
				</defs>
				<clipPath id="SVGID_2_">
					<use xlink:href="#SVGID_1_"  style="overflow:visible;"/>
				</clipPath>
				
					<linearGradient id="SVGID_3_" gradientUnits="userSpaceOnUse" x1="-387.8184" y1="76.6884" x2="-356.5645" y2="76.6884" gradientTransform="matrix(0.9612 0.2757 0.2757 -0.9612 -94.3315 457.2417)">
					<stop  offset="0" style="stop-color:#FFFFFF"/>
					<stop  offset="1" style="stop-color:#FFFFFF;stop-opacity:0"/>
				</linearGradient>
				<path class="st0" d="M-445.3,284.1L-445.3,284.1c-1.2,0-2.1-1-2.1-2.1c0-2.3,2.8-3.3,5.8-4c2.8-0.6,6.5-1.1,10.5-1.4
					c12.1-0.7,15,1.2,15.6,1.8c0.6,0.5,0.8,1.2,0.8,1.9c0,1.1-1,2.1-2.1,2c-0.7,0-1.4-0.4-1.7-1c-1.3-0.5-5.6-1-12.4-0.6
					c-7.1,0.4-11.5,1.5-12.6,2.1C-443.8,283.6-444.5,284.1-445.3,284.1z"/>
			</g>
			<g>
				<defs>
					<rect id="SVGID_4_" x="-455" y="259.9" width="47.4" height="42.1"/>
				</defs>
				<clipPath id="SVGID_5_">
					<use xlink:href="#SVGID_4_"  style="overflow:visible;"/>
				</clipPath>
				<g class="st1">
					<g>
						<path class="st2" d="M-424.2,270.2c-2.1,0.2-4.1,0-5.2-0.3c-0.9-0.2-1.4-1.2-1.2-2.1c0.2-0.9,1.2-1.4,2.1-1.2
							c2,0.5,7,0.3,8.1-1.4c0.6-1-0.1-4.8-2-7.2c-0.6-0.7-0.5-1.8,0.2-2.4c0.7-0.6,1.8-0.5,2.4,0.2c3.1,3.8,3.7,8.7,2.2,11.1
							c-1,1.6-3.1,2.7-6.1,3C-423.9,270.2-424,270.2-424.2,270.2z"/>
						<path class="st3" d="M-426,270.5c-1.5,0-2.7-0.2-3.5-0.4c-0.5-0.1-0.9-0.4-1.2-0.9c-0.3-0.4-0.3-1-0.2-1.5s0.4-0.9,0.9-1.2
							c0.4-0.3,1-0.3,1.5-0.2c2,0.5,6.8,0.3,7.8-1.3c0.5-0.8-0.1-4.5-2-6.9c-0.3-0.2-0.4-0.7-0.4-1.2c0.1-0.5,0.3-1,0.7-1.3
							s0.9-0.5,1.4-0.4c0.5,0.1,1,0.3,1.3,0.7c3.4,4,3.8,9,2.3,11.4c-1.1,1.7-3.3,2.8-6.3,3.2c-0.2,0-0.3,0-0.5,0.1l0,0
							C-424.8,270.5-425.4,270.5-426,270.5z M-429,266.9c-0.3,0-0.5,0.1-0.7,0.2c-0.3,0.2-0.5,0.5-0.6,0.8c-0.1,0.4,0,0.8,0.2,1.1
							c0.2,0.3,0.5,0.6,0.9,0.7c1,0.3,2.9,0.5,5.1,0.3l0,0c0.2,0,0.3,0,0.5-0.1c2.8-0.4,4.9-1.4,5.9-2.9c1.3-2.2,0.7-7.1-2.3-10.8
							c-0.2-0.3-0.6-0.5-1-0.5c-0.4,0-0.8,0.1-1.1,0.3c-0.3,0.2-0.5,0.6-0.5,1s0.1,0.8,0.3,1.1c2,2.5,2.7,6.4,2,7.5
							c-1.2,1.8-6.2,2-8.3,1.5C-428.7,266.9-428.8,266.9-429,266.9z"/>
					</g>
					<g>
						<path class="st2" d="M-446.6,273.6c-1.1,0-1.9-0.3-2.5-1c-1.3-1.8-0.2-4.5,4.2-9.7c0.6-0.7,1.7-0.8,2.4-0.2
							c0.7,0.6,0.8,1.7,0.2,2.4c-2.3,2.7-3.3,4.2-3.7,5c1-0.2,2.9-0.8,6.9-2.7c0.3-0.2,0.6-0.3,0.8-0.4c0.9-0.4,1.8,0,2.2,0.8
							c0.4,0.9,0,1.8-0.8,2.2c-0.1,0.1-0.4,0.2-0.7,0.3C-441.5,272.4-444.5,273.6-446.6,273.6z"/>
						<path class="st3" d="M-446.6,273.8c-1.2,0-2-0.4-2.6-1.1c-1.5-1.9-0.3-4.7,4.2-9.9c0.7-0.8,1.9-0.9,2.7-0.2
							c0.4,0.3,0.6,0.7,0.7,1.3c0,0.5-0.1,1-0.5,1.4c-1.9,2.2-2.9,3.6-3.4,4.5c1.1-0.3,3-1,6.3-2.6c0.3-0.2,0.6-0.3,0.8-0.4
							c1-0.4,2.1,0,2.6,1c0.4,1,0,2.1-1,2.6c-0.1,0.1-0.3,0.2-0.6,0.3h-0.1C-442.1,272.9-444.7,273.8-446.6,273.8L-446.6,273.8
							L-446.6,273.8z M-443.6,262.6c-0.4,0-0.8,0.2-1.1,0.5c-4.3,5-5.5,7.6-4.2,9.3c0.5,0.7,1.3,1,2.3,1l0,0c2.2,0,5.6-1.5,8.9-3.1
							h0.1c0.3-0.1,0.5-0.2,0.6-0.3c0.7-0.3,1-1.2,0.7-1.9c-0.3-0.7-1.2-1-1.9-0.7c-0.2,0.1-0.4,0.2-0.8,0.4c-3.2,1.6-5.6,2.5-7,2.8
							l-0.5,0.1l0.2-0.4c0.4-0.8,1.4-2.4,3.7-5.1c0.2-0.3,0.4-0.7,0.3-1c0-0.4-0.2-0.7-0.5-1C-442.9,262.7-443.2,262.6-443.6,262.6z
							"/>
					</g>
					<circle class="st3" cx="-443.6" cy="264" r="2.7"/>
					<g>
						<g>
							<path class="st3" d="M-427.8,259.2c0.6,3.1-1.5,6.1-4.6,6.7l0,0c-3.1,0.6-6.1-1.5-6.7-4.6l0,0c-0.6-3.1,1.5-6.1,4.6-6.7l0,0
								C-431.3,254-428.3,256.1-427.8,259.2L-427.8,259.2z"/>
						</g>
					</g>
					<path class="st3" d="M-439.1,260.3l-2.3-2.2c0,0,0.1,6.7,3.6,5.3L-439.1,260.3z"/>
					<path class="st3" d="M-428.4,258.4l1.4-2.9c0,0,2.2,6.3-1.5,6.2L-428.4,258.4z"/>
					<g>
						<path class="st2" d="M-423.1,298.3c-0.4,0-0.9-0.1-1.2-0.4c-0.8-0.7-0.9-1.8-0.3-2.6c4-4.9,4.6-7.9,3.9-10.6
							c-0.5-1.8-2-2.4-2.1-2.4c-1-0.4-1.5-1.4-1.1-2.4s1.4-1.5,2.4-1.1c1.2,0.5,3.6,2,4.4,5c1.1,4,0.4,7.9-4.6,13.9
							C-422.1,298-422.6,298.3-423.1,298.3z"/>
						<path class="st3" d="M-423.2,298.5c-0.5,0-1-0.2-1.3-0.5c-0.9-0.7-1.1-2.1-0.3-3c4.4-5.4,4.4-8.2,3.8-10.3
							c-0.5-1.7-1.9-2.3-1.9-2.3c-0.5-0.2-1-0.6-1.2-1.1c-0.2-0.5-0.3-1.1-0.1-1.6c0.2-0.5,0.6-1,1.1-1.2c0.5-0.2,1.1-0.3,1.6-0.1
							c1.3,0.5,3.7,2.1,4.5,5.1c1.2,4.5-0.1,8.6-4.6,14.2C-421.9,298.2-422.5,298.5-423.2,298.5L-423.2,298.5
							C-423.1,298.5-423.1,298.5-423.2,298.5z M-422.2,278.8c-0.2,0-0.5,0.1-0.7,0.2c-0.4,0.2-0.7,0.5-0.8,0.9s-0.1,0.9,0.1,1.2
							c0.2,0.4,0.5,0.7,0.9,0.8c0,0,1.7,0.7,2.2,2.6c0.9,3.1-0.3,6.4-3.9,10.8c-0.6,0.7-0.5,1.7,0.2,2.3c0.3,0.2,0.7,0.4,1,0.4l0,0
							c0.5,0,0.9-0.2,1.2-0.6c3.7-4.6,5.9-8.7,4.5-13.7c-0.8-2.9-3-4.4-4.2-4.8C-421.8,278.9-422,278.8-422.2,278.8z"/>
					</g>
					<ellipse class="st4" cx="-428.7" cy="298.4" rx="11.6" ry="1.1"/>
					<path class="st3" d="M-425,295.6l4.3-0.1c1.5,2.8,5.2,2.7,5.7,0.7c0,0,2.1,3.8-6.9,3.4C-424,299.6-425.7,297.7-425,295.6z"/>
					<g>
						<path class="st2" d="M-433.2,298.1c-0.7,0-1.3-0.3-1.7-1c-1.8-3.2-1.4-8.4-0.3-11.1c2.1-4.9,8.5-6.6,8.7-6.7
							c1-0.3,2,0.3,2.3,1.4c0.3,1-0.3,2-1.4,2.3c-1.3,0.4-5.1,1.8-6.2,4.5c-0.7,1.5-1.1,5.6,0.1,7.8c0.5,0.9,0.2,2.1-0.7,2.6
							C-432.6,298-432.9,298.1-433.2,298.1z"/>
						<path class="st3" d="M-433.2,298.3c-0.8,0-1.5-0.4-1.9-1.1c-1.9-3.3-1.4-8.7-0.3-11.3c2.1-5,8.6-6.7,8.9-6.8
							c0.6-0.1,1.1-0.1,1.6,0.2c0.5,0.3,0.8,0.8,1,1.3c0.3,1.1-0.4,2.3-1.5,2.6c-1.3,0.3-5,1.8-6,4.4c-0.6,1.5-1.1,5.5,0.1,7.6
							c0.3,0.5,0.3,1.1,0.2,1.6c-0.2,0.5-0.5,1-1,1.3C-432.5,298.2-432.8,298.3-433.2,298.3L-433.2,298.3L-433.2,298.3z
							 M-425.9,279.5c-0.1,0-0.3,0-0.4,0.1c-0.3,0.1-6.5,1.7-8.6,6.5c-1.1,2.5-1.5,7.7,0.3,10.9c0.3,0.5,0.8,0.8,1.4,0.8l0,0
							c0.3,0,0.5-0.1,0.8-0.2c0.4-0.2,0.7-0.6,0.8-1c0.1-0.4,0.1-0.9-0.2-1.2c-1.3-2.3-0.8-6.5-0.1-8c1.2-2.7,5-4.3,6.4-4.6
							c0.9-0.2,1.4-1.1,1.2-2c-0.1-0.4-0.4-0.8-0.7-1C-425.4,279.6-425.7,279.5-425.9,279.5z"/>
					</g>
					<path class="st3" d="M-431.3,295.4h-4.3c-1.4,2.9-5.2,2.8-5.7,0.8c0,0-2,3.8,7,3.3C-432.3,299.3-430.6,297.4-431.3,295.4z"/>
					<g>
						<path class="st2" d="M-428.4,271.3c0.5,2.3,3.6,0.5,6.3,4.3c2.4,3.3-1.7,9.8-6.2,9.4c-5.3-0.4-9.6-5.9-10.3-10.9
							C-439.6,265.5-427.9,262.2-428.4,271.3z"/>
						<path class="st3" d="M-427.8,285.3c-0.1,0-0.3,0-0.4,0c-5.5-0.4-9.8-6.1-10.5-11.1c-0.4-3.1,0.8-5.9,3.2-7.5
							c1.8-1.2,3.8-1.4,5.3-0.6c1.5,0.9,2.3,2.7,2.1,5.2c0.2,0.9,0.9,1.1,1.9,1.3c1.2,0.3,2.9,0.7,4.4,2.9c1.1,1.5,1,3.8-0.2,6
							C-423.4,283.8-425.7,285.3-427.8,285.3z M-432.3,266.1c-1,0-2,0.3-3,1c-2.2,1.5-3.3,4.1-2.9,7c0.6,4.8,4.8,10.2,10,10.6
							c2.4,0.2,4.6-1.7,5.7-3.6c1.1-2,1.2-4.1,0.3-5.4c-1.4-2-2.9-2.4-4.1-2.7c-1.1-0.3-2-0.5-2.2-1.7l0,0l0,0
							c0.1-2.3-0.5-4-1.9-4.7C-431,266.2-431.7,266.1-432.3,266.1z"/>
					</g>
					<polygon class="st2" points="-436.1,267.9 -439.1,267.9 -439,270.8 -436,269.7 					"/>
					<polygon class="st2" points="-430.1,268.2 -427.2,267.4 -426.4,270.2 -429.6,269.9 					"/>
					<polygon class="st2" points="-423.1,279.4 -420.4,280.2 -420.6,283.4 -423.2,281.5 					"/>
					<polygon class="st2" points="-431.8,285.9 -428.7,283.6 -430.6,282.4 -433.4,284.1 					"/>
					<g>
						<g>
							<path class="st2" d="M-422.4,274.7c-3.1,2.5-7.1,6.9-10.6,8.8c-1.1-0.3-1.9-0.8-2.3-1.5c3.1-2.5,6.9-7.1,10.4-9
								C-424.1,273.2-422.8,273.8-422.4,274.7z"/>
							<path class="st3" d="M-433,283.8L-433,283.8c-1.3-0.4-2.1-0.9-2.5-1.6l-0.1-0.3l0.2-0.1c1.1-0.9,2.3-2.1,3.6-3.4
								c2.2-2.2,4.5-4.5,6.8-5.6h0.1h0.1c0.9,0.2,2.2,0.9,2.6,1.9l0.1,0.2h-0.2c-1.1,0.8-2.2,1.9-3.4,3
								C-428.1,280.2-430.5,282.5-433,283.8L-433,283.8z M-434.9,282.1c0.4,0.5,1,0.9,1.9,1.2c2.3-1.2,4.7-3.5,7-5.6
								c1.2-1.1,2.3-2.1,3.3-2.9c-0.4-0.7-1.5-1.2-2.1-1.4c-2.2,1.2-4.4,3.4-6.6,5.5C-432.7,280-433.8,281.2-434.9,282.1z"/>
						</g>
						<path class="st3" d="M-426.1,278.2c-0.8,0.8-1.6,1.6-2.4,2.4c-0.9-0.8-1.8-1.6-2.7-2.3c0.8-0.8,1.6-1.6,2.4-2.4
							C-427.9,276.6-427,277.4-426.1,278.2z"/>
					</g>
					<g>
						<path class="st2" d="M-427.2,278.9L-427.2,278.9c-2-0.3-3.5-1.3-4.5-2.9c-1.6-2.5-1.6-5.8-0.9-8.1c0-0.1,0.1-0.1,0.2-0.1
							s0.1,0.1,0.1,0.2c-0.7,2.2-0.6,5.5,0.8,7.8c1,1.5,2.4,2.5,4.3,2.8c0.1,0,0.2,0.1,0.1,0.2
							C-427.1,278.8-427.1,278.9-427.2,278.9z"/>
						<path class="st3" d="M-427.2,279.2L-427.2,279.2c-2.1-0.3-3.7-1.4-4.7-3c-1.6-2.5-1.6-6-0.9-8.3c0.1-0.2,0.3-0.3,0.5-0.3
							c0.1,0,0.2,0.1,0.3,0.2c0.1,0.1,0.1,0.2,0,0.3c-0.6,2.1-0.6,5.3,0.8,7.6c0.9,1.5,2.3,2.4,4.1,2.6c0.1,0,0.2,0.1,0.3,0.2
							s0.1,0.2,0.1,0.3C-426.8,279-427,279.2-427.2,279.2L-427.2,279.2z"/>
					</g>
				</g>
			</g>
			<g>
				<defs>
					<rect id="SVGID_6_" x="-455" y="259.9" width="47.4" height="42.1"/>
				</defs>
				<clipPath id="SVGID_7_">
					<use xlink:href="#SVGID_6_"  style="overflow:visible;"/>
				</clipPath>
				<g id="XMLID_12_" class="st5">
					<path class="st6" d="M-428.2,291c-0.4,0-0.8-0.1-1.1-0.4c-0.8-0.6-0.9-1.7-0.3-2.5l2.6-3.3l-2.7-3.2c-0.6-0.7-0.6-1.9,0.2-2.5
						c0.7-0.6,1.9-0.5,2.5,0.2l4.6,5.4l-4.4,5.6C-427.2,290.8-427.7,291-428.2,291z"/>
				</g>
			</g>
			<g>
				<defs>
					<rect id="SVGID_8_" x="-455" y="259.9" width="47.4" height="42.1"/>
				</defs>
				<clipPath id="SVGID_9_">
					<use xlink:href="#SVGID_8_"  style="overflow:visible;"/>
				</clipPath>
				<path class="st7" d="M-432.2,286.8c-2.5,0-5-0.1-7.3-0.3c-6.5-0.6-8.2-1.7-8.6-3.2c-0.2-0.7-0.3-2.1,1.8-3.3
					c0.9-0.5,1.9-0.2,2.4,0.7c0.3,0.5,0.3,1.1,0.1,1.6c3,0.8,10.3,1.3,16.2,0.9c1-0.1,1.8,0.7,1.9,1.6c0.1,1-0.7,1.8-1.6,1.9
					C-428.8,286.7-430.5,286.8-432.2,286.8z"/>
			</g>
		</g>
	</g>
</g>
<g id="New_Symbol_19_2_">
</g>
<g id="New_Symbol_19_1_">
</g>
<g id="New_Symbol_21_1_">
</g>
<g id="New_Symbol_20_1_">
</g>
<g id="New_Symbol_18_1_">
</g>
<g id="New_Symbol_17_1_">
</g>
<g id="New_Symbol_16_2_">
</g>
<g id="New_Symbol_1_4_">
</g>
<g id="New_Symbol_1_">
</g>
</svg>
