<?xml version="1.0" encoding="utf-8"?>
<!-- Generator: Adobe Illustrator 19.1.0, SVG Export Plug-In . SVG Version: 6.00 Build 0)  -->
<svg version="1.1" id="Layer_1" xmlns="http://www.w3.org/2000/svg" xmlns:xlink="http://www.w3.org/1999/xlink" x="0px" y="0px"
	 width="48px" height="43px" viewBox="0 0 48 43" style="enable-background:new 0 0 48 43;" xml:space="preserve">
<style type="text/css">
	.st0{clip-path:url(#SVGID_2_);}
	.st1{fill:#C985DE;}
	.st2{fill:#9B51A0;}
	.st3{fill:url(#SVGID_3_);}
	.st4{fill:#BE79CF;}
	.st5{opacity:0.66;fill:url(#SVGID_4_);}
	.st6{opacity:0.47;fill:url(#SVGID_5_);}
	.st7{fill:#FFFFFF;}
	.st8{fill:url(#SVGID_6_);}
	.st9{opacity:0.3;clip-path:url(#SVGID_8_);fill:url(#SVGID_9_);}
	.st10{opacity:0.3;clip-path:url(#SVGID_8_);fill:url(#SVGID_10_);}
	.st11{clip-path:url(#SVGID_8_);}
	.st12{fill:none;}
	.st13{opacity:0.1;}
	.st14{fill:none;stroke:#C985DE;stroke-width:6.2485;stroke-linecap:round;stroke-miterlimit:10;}
	.st15{fill:none;stroke:#D7DEDA;stroke-width:6.3905;stroke-miterlimit:10;stroke-dasharray:9.6568,85.2068;}
	.st16{fill:none;stroke:#D7DEDA;stroke-width:6.3905;stroke-linecap:round;stroke-miterlimit:10;stroke-dasharray:2.8402,85.2068;}
	.st17{fill:none;stroke:#C985DE;stroke-width:6.7619;stroke-linecap:round;stroke-miterlimit:10;}
	.st18{fill:none;stroke:#D7DEDA;stroke-width:6.9156;stroke-miterlimit:10;stroke-dasharray:10.4503,92.2082;}
	.st19{fill:none;stroke:#D7DEDA;stroke-width:6.9156;stroke-linecap:round;stroke-miterlimit:10;stroke-dasharray:3.0736,92.2082;}
	.st20{fill:url(#SVGID_11_);}
	.st21{clip-path:url(#SVGID_8_);fill:#C985DE;}
	.st22{clip-path:url(#SVGID_8_);fill:#9B51A0;}
	.st23{fill:url(#SVGID_12_);}
	.st24{opacity:0.3;clip-path:url(#SVGID_14_);fill:url(#SVGID_15_);}
	.st25{opacity:0.3;clip-path:url(#SVGID_14_);fill:url(#SVGID_16_);}
	.st26{clip-path:url(#SVGID_14_);}
	.st27{fill:url(#SVGID_17_);}
	.st28{clip-path:url(#SVGID_14_);fill:#C985DE;}
	.st29{clip-path:url(#SVGID_14_);fill:#9B51A0;}
	.st30{fill:url(#SVGID_18_);}
	.st31{fill:url(#SVGID_19_);}
	.st32{clip-path:url(#SVGID_21_);}
	.st33{fill:url(#SVGID_22_);}
	.st34{opacity:0.66;fill:url(#SVGID_23_);}
	.st35{opacity:0.47;fill:url(#SVGID_24_);}
	.st36{fill:url(#SVGID_25_);}
	.st37{opacity:0.1;clip-path:url(#SVGID_27_);}
	.st38{opacity:0.25;clip-path:url(#SVGID_27_);fill:url(#SVGID_28_);}
	.st39{opacity:0.25;clip-path:url(#SVGID_27_);fill:url(#SVGID_29_);}
	.st40{clip-path:url(#SVGID_27_);}
	.st41{fill:url(#SVGID_30_);}
	.st42{clip-path:url(#SVGID_32_);fill:url(#SVGID_33_);}
	.st43{clip-path:url(#SVGID_32_);}
	.st44{clip-path:url(#SVGID_32_);fill:#FFFFFF;}
	.st45{clip-path:url(#SVGID_35_);}
	.st46{fill:url(#SVGID_36_);}
	.st47{opacity:0.1;clip-path:url(#SVGID_38_);}
	.st48{opacity:0.25;clip-path:url(#SVGID_38_);fill:url(#SVGID_39_);}
	.st49{opacity:0.25;clip-path:url(#SVGID_38_);fill:url(#SVGID_40_);}
	.st50{clip-path:url(#SVGID_38_);}
	.st51{fill:#9B51A0;stroke:#C985DE;stroke-width:0.8438;stroke-miterlimit:10;}
	.st52{clip-path:url(#SVGID_38_);fill:#9B51A0;}
	.st53{fill:url(#SVGID_41_);}
</style>
<g id="New_Symbol_1_2_">
</g>
<g id="New_Symbol_16">
</g>
<g id="New_Symbol_1_1_">
</g>
<g id="New_Symbol_1">
</g>
<g id="New_Symbol_16_1_">
</g>
<g id="New_Symbol_17">
</g>
<g id="New_Symbol_18">
	<g id="New_Symbol_2">
	</g>
</g>
<g id="New_Symbol_1_3_">
</g>
<g id="New_Symbol_20">
</g>
<g id="New_Symbol_21">
</g>
<g id="New_Symbol_19">
	<g id="New_Symbol">
	</g>
</g>
<g id="New_Symbol_1_6_">
</g>
<g id="New_Symbol_16_3_">
</g>
<g id="New_Symbol_17_2_">
</g>
<g id="New_Symbol_18_2_">
</g>
<g id="New_Symbol_1_5_">
</g>
<g id="New_Symbol_20_2_">
</g>
<g id="New_Symbol_21_2_">
</g>
<g id="New_Symbol_19_2_">
	<g>
		<g>
			<defs>
				<rect id="SVGID_37_" x="0" y="0" width="48" height="43"/>
			</defs>
			<clipPath id="SVGID_2_">
				<use xlink:href="#SVGID_37_"  style="overflow:visible;"/>
			</clipPath>
			<ellipse style="opacity:0.1;clip-path:url(#SVGID_2_);" cx="24.1" cy="32.8" rx="12.7" ry="1.1"/>
			<linearGradient id="SVGID_3_" gradientUnits="userSpaceOnUse" x1="32.8284" y1="32.5939" x2="32.8284" y2="3.4758">
				<stop  offset="0.1155" style="stop-color:#C985DE;stop-opacity:0"/>
				<stop  offset="1" style="stop-color:#C985DE"/>
			</linearGradient>
			<path style="opacity:0.25;clip-path:url(#SVGID_2_);fill:url(#SVGID_3_);" d="M28.3,32.6c-0.1,0-0.1,0-0.2-0.1
				c-0.1-0.1-0.1-0.3,0-0.4c6.6-8.7,9.2-17,9-28.4c0-0.1,0.1-0.3,0.3-0.3c0.2,0,0.3,0.1,0.3,0.3c0.2,11.6-2.4,19.9-9.1,28.8
				C28.5,32.6,28.4,32.6,28.3,32.6z"/>
			
				<linearGradient id="SVGID_4_" gradientUnits="userSpaceOnUse" x1="-598.0729" y1="302.7625" x2="-598.0729" y2="281.5092" gradientTransform="matrix(-0.9897 -0.1429 -0.1429 0.9897 -520.4364 -353.0598)">
				<stop  offset="0.1155" style="stop-color:#C985DE;stop-opacity:0"/>
				<stop  offset="1" style="stop-color:#C985DE"/>
			</linearGradient>
			<path style="opacity:0.25;clip-path:url(#SVGID_2_);fill:url(#SVGID_4_);" d="M26.1,31.8c-0.2,0-0.4-0.1-0.5-0.3
				c-0.1-0.3,0-0.6,0.2-0.7c2.5-1.2,4.9-7.6,6.9-19c0.1-0.3,0.3-0.5,0.6-0.4c0.3,0.1,0.5,0.3,0.4,0.6c-1.4,7.6-3.7,17.9-7.5,19.8
				C26.3,31.7,26.2,31.8,26.1,31.8z"/>
			<g class="st0">
				<g>
					<g>
						<g>
							<path class="st2" d="M14,24.3c-0.5,0-1.1-0.1-1.6-0.2c-2.2-0.6-3.8-2.4-4.5-4.8c-0.1-0.5,0.2-1,0.7-1.2
								c0.5-0.1,1,0.2,1.2,0.7c0.5,1.8,1.7,3,3.2,3.5c1.4,0.4,3,0,4-1c0.4-0.4,1-0.4,1.3,0c0.4,0.4,0.3,1,0,1.3
								C17.1,23.7,15.5,24.3,14,24.3z"/>
							<path class="st1" d="M14,24.5c-0.6,0-1.1-0.1-1.7-0.2c-2.3-0.6-4-2.4-4.7-5c-0.2-0.6,0.2-1.3,0.8-1.5c0.3-0.1,0.6,0,0.9,0.1
								c0.3,0.2,0.5,0.4,0.6,0.7c0.5,1.7,1.6,2.9,3,3.3c1.3,0.4,2.8,0,3.8-1c0.2-0.2,0.5-0.3,0.9-0.3c0.3,0,0.6,0.1,0.8,0.4
								c0.2,0.2,0.3,0.5,0.3,0.9c0,0.3-0.1,0.6-0.4,0.8C17.2,23.9,15.6,24.5,14,24.5z M8.8,18.3c-0.1,0-0.1,0-0.2,0
								c-0.4,0.1-0.6,0.5-0.5,0.9c0.7,2.3,2.2,4,4.4,4.6c1.9,0.5,4.1,0,5.6-1.4c0.1-0.1,0.2-0.3,0.2-0.5c0-0.2-0.1-0.4-0.2-0.5
								c-0.1-0.1-0.3-0.2-0.5-0.2c-0.2,0-0.4,0.1-0.5,0.2c-1.1,1.1-2.7,1.5-4.3,1.1c-1.6-0.4-2.9-1.8-3.4-3.6
								c-0.1-0.2-0.2-0.3-0.3-0.4C9,18.3,8.9,18.3,8.8,18.3z"/>
						</g>
						<path class="st1" d="M6.7,17c0,0.3,0.1,0.6,0.3,0.8c0.2,0.7,0.9,1.1,1.6,1c0.8-0.1,1.4-0.9,1.3-1.7c0-0.3-0.1-0.6-0.3-0.8
							c-0.2-0.7-0.9-1.1-1.6-1C7.2,15.4,6.6,16.1,6.7,17z"/>
						<path class="st1" d="M9.1,17.4c0,0.4,0.4,0.7,0.8,0.6c0.2,0,0.4-0.1,0.5-0.3c0.3-0.1,0.5-0.4,0.4-0.7c0-0.4-0.4-0.7-0.8-0.6
							c-0.2,0-0.4,0.1-0.5,0.3C9.2,16.8,9.1,17.1,9.1,17.4z"/>
					</g>
					<g>
						<g>
							<path class="st2" d="M22.5,20.7c-0.1,0-0.2,0-0.3,0c-0.5-0.2-0.8-0.7-0.6-1.2c0.2-0.6,0.4-1.3,0.7-2.1
								c0.7-2.2,1.7-5.3,2.4-8.2c0.1-0.5,0.6-0.8,1.1-0.7c0.5,0.1,0.8,0.6,0.7,1.1c-0.7,3-1.7,6.1-2.4,8.4c-0.3,0.8-0.5,1.5-0.6,2
								C23.3,20.5,22.9,20.7,22.5,20.7z"/>
							<path class="st1" d="M22.5,21c-0.1,0-0.2,0-0.3-0.1c-0.6-0.2-1-0.9-0.8-1.5c0.2-0.6,0.4-1.3,0.7-2.1c0.7-2.2,1.7-5.3,2.3-8.2
								c0.1-0.6,0.8-1.1,1.4-0.9c0.3,0.1,0.6,0.3,0.8,0.5c0.2,0.3,0.2,0.6,0.2,0.9c-0.7,3-1.7,6.1-2.4,8.4c-0.2,0.8-0.5,1.5-0.6,2
								C23.5,20.6,23.1,21,22.5,21z M25.5,8.7c-0.3,0-0.6,0.2-0.7,0.5c-0.7,2.9-1.6,6-2.4,8.2c-0.3,0.8-0.5,1.5-0.7,2.1
								c-0.1,0.4,0.1,0.8,0.5,0.9c0.4,0.1,0.8-0.1,0.9-0.5c0.2-0.6,0.4-1.3,0.6-2c0.7-2.3,1.7-5.3,2.4-8.3c0-0.2,0-0.4-0.1-0.5
								c-0.1-0.2-0.3-0.3-0.4-0.3C25.6,8.7,25.6,8.7,25.5,8.7z"/>
						</g>
						<path class="st1" d="M28,7.7c0,0.3-0.1,0.6-0.3,0.8c-0.2,0.7-0.9,1.1-1.6,1.1c-0.8-0.1-1.5-0.8-1.4-1.7c0-0.3,0.1-0.6,0.3-0.8
							C25.2,6.5,25.9,6,26.6,6C27.4,6.1,28,6.9,28,7.7z"/>
						<path class="st1" d="M25.6,8.3c0,0.4-0.4,0.7-0.8,0.6c-0.2,0-0.4-0.1-0.5-0.3c-0.3-0.1-0.5-0.4-0.5-0.7c0-0.4,0.4-0.7,0.8-0.6
							c0.2,0,0.4,0.1,0.5,0.3C25.4,7.6,25.6,7.9,25.6,8.3z"/>
					</g>
				</g>
				<g>
					<g>
						<g>
							<g>
								<path class="st1" d="M14.8,31c-3.5,0-7.2-0.3-9.3-1l0.1-0.5c4,1.2,13.5,1.3,17.3,0.1l0.2,0.5C21.2,30.7,18,31,14.8,31z"/>
							</g>
							<g>
								<path class="st2" d="M14.7,32.1c-3.6,0-7.4-0.3-9.6-1c-0.7-0.2-1.2-1-0.9-1.8c0.2-0.7,1-1.2,1.7-0.9
									c3.8,1.2,13.1,1.2,16.6,0.1c0.7-0.2,1.5,0.2,1.7,0.9c0.2,0.7-0.2,1.5-0.9,1.8C21.4,31.8,18.1,32.1,14.7,32.1z"/>
								<path class="st1" d="M14.7,32.4c-3.9,0-7.6-0.4-9.7-1c-0.4-0.1-0.8-0.4-1-0.8c-0.2-0.4-0.3-0.8-0.1-1.3
									c0.3-0.9,1.2-1.4,2.1-1.1c3.7,1.1,13,1.2,16.5,0.1c0.4-0.1,0.9-0.1,1.3,0.1c0.4,0.2,0.7,0.6,0.8,1c0.3,0.9-0.2,1.8-1.1,2.1
									C21.6,32.1,18.4,32.4,14.7,32.4z M5.5,28.6c-0.5,0-0.9,0.3-1.1,0.8c-0.1,0.3-0.1,0.6,0.1,0.9c0.1,0.3,0.4,0.5,0.7,0.6
									c2.1,0.6,5.7,1,9.5,1c3.6,0,6.8-0.3,8.6-0.9c0.6-0.2,0.9-0.8,0.8-1.4c-0.1-0.3-0.3-0.5-0.6-0.7c-0.3-0.1-0.6-0.2-0.9-0.1
									c-3.6,1.1-13,1-16.8-0.1C5.8,28.6,5.6,28.6,5.5,28.6z"/>
							</g>
						</g>
						<path class="st1" d="M6.3,31.4l0.8-2.7c-2-1.1-2.8-4.4-1.3-4.8c0,0-2.9-1.5-2.5,5.2C3.4,30.6,4.8,31.9,6.3,31.4z"/>
					</g>
					<g>
						<g>
							<g>
								<path class="st1" d="M32.1,31c-3.3,0-6.5-0.3-8.3-0.9l0.2-0.5c3.8,1.2,13.3,1.1,17.3-0.1l0.1,0.5C39.3,30.7,35.6,31,32.1,31
									z"/>
							</g>
							<g>
								<path class="st2" d="M32.1,32.1c-3.4,0-6.7-0.3-8.6-0.9c-0.7-0.2-1.1-1-0.9-1.8c0.2-0.7,1-1.2,1.7-0.9
									c3.5,1.1,12.8,1,16.6-0.1c0.7-0.2,1.5,0.2,1.7,0.9c0.2,0.7-0.2,1.5-0.9,1.8C39.5,31.8,35.8,32.1,32.1,32.1z"/>
								<path class="st1" d="M32.1,32.4c-3.7,0-6.8-0.3-8.7-0.9c-0.9-0.3-1.4-1.2-1.1-2.1c0.1-0.4,0.4-0.8,0.8-1
									c0.4-0.2,0.8-0.2,1.3-0.1c3.5,1.1,12.7,1,16.5-0.1c0.9-0.3,1.8,0.2,2.1,1.1c0.1,0.4,0.1,0.9-0.1,1.3c-0.2,0.4-0.6,0.7-1,0.8
									C39.7,32,36,32.4,32.1,32.4z M23.9,28.7c-0.2,0-0.4,0-0.5,0.1c-0.3,0.1-0.5,0.4-0.6,0.7c-0.2,0.6,0.2,1.3,0.8,1.4
									c1.8,0.6,5,0.9,8.6,0.9c3.9,0,7.5-0.4,9.5-1c0.3-0.1,0.5-0.3,0.7-0.6c0.1-0.3,0.2-0.6,0.1-0.9c-0.2-0.6-0.8-1-1.4-0.8
									c-3.8,1.2-13.2,1.2-16.8,0.1C24.1,28.8,24,28.7,23.9,28.7z"/>
							</g>
							<g>
								<path class="st2" d="M26.1,27.2c0.4,1.9-1.1,3.8-3.2,4.2c-2.1,0.4-4.1-0.9-4.4-2.8l-0.9-4.8c-0.4-1.9,1.1-3.8,3.2-4.2
									c2.1-0.4,4.1,0.9,4.4,2.8L26.1,27.2z"/>
								<path class="st1" d="M22.2,31.7c-1.9,0-3.6-1.3-3.9-3.1l-0.9-4.8c-0.2-1,0.1-2,0.7-2.9c0.6-0.8,1.6-1.4,2.7-1.6
									c2.2-0.4,4.4,0.9,4.7,3l0.9,4.8c0.2,1-0.1,2-0.7,2.9c-0.6,0.8-1.6,1.4-2.7,1.6C22.7,31.7,22.4,31.7,22.2,31.7z M21.5,19.8
									c-0.2,0-0.5,0-0.7,0.1c-1,0.2-1.8,0.7-2.3,1.4c-0.6,0.7-0.8,1.6-0.6,2.5l0.9,4.8c0.3,1.8,2.2,2.9,4.2,2.6
									c1-0.2,1.8-0.7,2.3-1.4c0.6-0.7,0.8-1.6,0.6-2.5L25,22.4C24.7,20.9,23.2,19.8,21.5,19.8z"/>
							</g>
							<g>
								<line class="st2" x1="20.6" y1="19.5" x2="22.4" y2="28.3"/>
								<rect x="17" y="23.6" transform="matrix(0.1988 0.98 -0.98 0.1988 40.6025 -1.9135)" class="st1" width="9" height="0.5"/>
							</g>
							<g>
								<polygon class="st2" points="26.1,27.6 18.7,29.1 18.3,27.2 25.7,25.7 								"/>
								<path class="st1" d="M18.5,29.4L18,27l7.9-1.6l0.5,2.3L18.5,29.4z M18.6,27.4l0.3,1.4l6.9-1.4L25.5,26L18.6,27.4z"/>
							</g>
							<polygon class="st1" points="23.3,28.2 21.4,28.6 21,26.5 22.9,26.1 							"/>
						</g>
						<path class="st1" d="M40.6,31.4l-1-2.6c1.9-1.2,2.5-4.6,1-4.9c0,0,2.7-1.7,2.8,5C43.5,30.5,42.2,31.8,40.6,31.4z"/>
					</g>
				</g>
				<g>
					<g>
						<path class="st2" d="M13.6,15.7c-1.3-0.8-0.3-7.5,4.5-7.4c0,0-1,2.7,0.3,3.6L13.6,15.7z"/>
						<path class="st1" d="M13.6,16.1L13.5,16c-0.7-0.5-0.8-2.1-0.3-3.8c0.3-1,1.5-4.2,5-4.1l0.4,0l-0.1,0.3c0,0-0.9,2.5,0.2,3.3
							l0.3,0.2L13.6,16.1z M17.8,8.6c-2.8,0.2-3.9,2.9-4.1,3.7c-0.4,1.4-0.3,2.6,0,3.1L18,12C17.2,11.1,17.5,9.4,17.8,8.6z"/>
					</g>
					<path class="st1" d="M15.2,18.4l-2-0.6c0,0,2,4,3.6,2.1L15.2,18.4z"/>
					<path class="st1" d="M20.7,14.3l0-2.1c0,0,3.2,3.1,0.9,4.1L20.7,14.3z"/>
					<path class="st1" d="M21.2,14.6c1.2,1.7,0.9,4.1-0.8,5.3l0,0c-1.7,1.2-4,0.9-5.3-0.8l0,0c-1.2-1.7-0.9-4.1,0.8-5.3l0,0
						C17.6,12.6,19.9,13,21.2,14.6L21.2,14.6z"/>
					<path class="st1" d="M13.7,16.7c0.2,0.2,0.4,0.3,0.6,0.2l5.2-3.7c0.2-0.1,0.2-0.4,0.1-0.7L19,11.7c-0.2-0.2-0.4-0.3-0.6-0.2
						l-5.2,3.7C13,15.4,13,15.7,13.1,16L13.7,16.7z"/>
					<path class="st1" d="M19.2,7.9c0.2,0.3,0.1,0.7-0.2,0.9c-0.3,0.2-0.7,0.2-0.9-0.1C17.9,8.4,18,8,18.3,7.7
						C18.6,7.5,19,7.6,19.2,7.9z"/>
				</g>
			</g>
			<path style="clip-path:url(#SVGID_2_);fill:#9B51A0;" d="M17.6,29.9l0.5-0.4l0.8-0.2l3.2,1.8c0,0-0.3,0.4-2.1,0.4
				C18.3,31.5,17.6,29.9,17.6,29.9z"/>
			<path style="clip-path:url(#SVGID_2_);fill:#9B51A0;" d="M26.6,29.6l-0.5-0.4l-0.8-0.2l-3.2,1.8c0,0,0.6,0.5,2.4,0.5
				S26.6,29.6,26.6,29.6z"/>
		</g>
		<g id="XMLID_8_">
			<path class="st7" d="M32.4,28.9c0,0.5-0.2,0.9-0.5,1.3l-7.2,7.3l-7.2-7.3c-0.7-0.7-0.7-1.9,0-2.6c0.7-0.7,1.8-0.7,2.6,0l4.7,4.7
				l4.7-4.7c0.7-0.7,1.8-0.7,2.6,0C32.2,27.9,32.4,28.4,32.4,28.9z"/>
			
				<linearGradient id="SVGID_5_" gradientUnits="userSpaceOnUse" x1="-6673.5859" y1="-8055.063" x2="-6625.8037" y2="-8055.063" gradientTransform="matrix(0 -0.6062 0.6017 0 4871.354 -4011.5828)">
				<stop  offset="0.2321" style="stop-color:#FFFFFF"/>
				<stop  offset="1" style="stop-color:#FFFFFF;stop-opacity:0"/>
			</linearGradient>
			<rect x="22.5" y="4.7" style="fill:url(#SVGID_5_);" width="4.2" height="29"/>
		</g>
	</g>
</g>
<g id="New_Symbol_19_1_">
</g>
<g id="New_Symbol_21_1_">
</g>
<g id="New_Symbol_20_1_">
</g>
<g id="New_Symbol_18_1_">
</g>
<g id="New_Symbol_17_1_">
</g>
<g id="New_Symbol_16_2_">
</g>
<g id="New_Symbol_1_4_">
</g>
<g id="New_Symbol_1_">
</g>
</svg>
