<?xml version="1.0" encoding="utf-8"?>
<!-- Generator: Adobe Illustrator 19.1.0, SVG Export Plug-In . SVG Version: 6.00 Build 0)  -->
<svg version="1.1" id="Layer_1" xmlns="http://www.w3.org/2000/svg" xmlns:xlink="http://www.w3.org/1999/xlink" x="0px" y="0px"
	 width="48px" height="43px" viewBox="0 0 48 43" style="enable-background:new 0 0 48 43;" xml:space="preserve">
<style type="text/css">
	.st0{clip-path:url(#SVGID_2_);}
	.st1{fill:#C985DE;}
	.st2{fill:#9B51A0;}
	.st3{fill:url(#SVGID_3_);}
	.st4{fill:#BE79CF;}
	.st5{opacity:0.66;fill:url(#SVGID_4_);}
	.st6{opacity:0.47;fill:url(#SVGID_5_);}
	.st7{fill:#FFFFFF;}
	.st8{fill:url(#SVGID_6_);}
	.st9{opacity:0.4;}
	.st10{clip-path:url(#SVGID_8_);}
	.st11{fill:#DEE3E0;}
	.st12{clip-path:url(#SVGID_8_);fill:#DEE3E0;}
	.st13{clip-path:url(#SVGID_8_);fill:url(#SVGID_9_);}
	.st14{opacity:0.66;fill:url(#SVGID_10_);}
	.st15{opacity:0.47;fill:url(#SVGID_11_);}
	.st16{fill:url(#SVGID_12_);}
	.st17{opacity:0.3;clip-path:url(#SVGID_14_);fill:url(#SVGID_15_);}
	.st18{opacity:0.3;clip-path:url(#SVGID_14_);fill:url(#SVGID_16_);}
	.st19{clip-path:url(#SVGID_14_);}
	.st20{fill:none;}
	.st21{opacity:0.1;}
	.st22{fill:none;stroke:#C985DE;stroke-width:6.2485;stroke-linecap:round;stroke-miterlimit:10;}
	.st23{fill:none;stroke:#D7DEDA;stroke-width:6.3905;stroke-miterlimit:10;stroke-dasharray:9.6568,85.2068;}
	.st24{fill:none;stroke:#D7DEDA;stroke-width:6.3905;stroke-linecap:round;stroke-miterlimit:10;stroke-dasharray:2.8402,85.2068;}
	.st25{fill:none;stroke:#C985DE;stroke-width:6.7619;stroke-linecap:round;stroke-miterlimit:10;}
	.st26{fill:none;stroke:#D7DEDA;stroke-width:6.9156;stroke-miterlimit:10;stroke-dasharray:10.4503,92.2082;}
	.st27{fill:none;stroke:#D7DEDA;stroke-width:6.9156;stroke-linecap:round;stroke-miterlimit:10;stroke-dasharray:3.0736,92.2082;}
	.st28{fill:url(#SVGID_17_);}
	.st29{clip-path:url(#SVGID_14_);fill:#C985DE;}
	.st30{clip-path:url(#SVGID_14_);fill:#9B51A0;}
	.st31{fill:url(#SVGID_18_);}
	.st32{opacity:0.3;clip-path:url(#SVGID_20_);fill:url(#SVGID_21_);}
	.st33{opacity:0.3;clip-path:url(#SVGID_20_);fill:url(#SVGID_22_);}
	.st34{clip-path:url(#SVGID_20_);fill:none;}
	.st35{opacity:0.1;clip-path:url(#SVGID_20_);}
	.st36{clip-path:url(#SVGID_20_);fill:#DEE3E0;}
	.st37{clip-path:url(#SVGID_20_);fill:none;stroke:#DEE3E0;stroke-width:6.2485;stroke-linecap:round;stroke-miterlimit:10;}
	
		.st38{clip-path:url(#SVGID_20_);fill:none;stroke:#DEE3E0;stroke-width:6.3905;stroke-miterlimit:10;stroke-dasharray:9.6568,85.2068;}
	
		.st39{clip-path:url(#SVGID_20_);fill:none;stroke:#DEE3E0;stroke-width:6.3905;stroke-linecap:round;stroke-miterlimit:10;stroke-dasharray:2.8402,85.2068;}
	.st40{clip-path:url(#SVGID_20_);fill:none;stroke:#DEE3E0;stroke-width:6.7619;stroke-linecap:round;stroke-miterlimit:10;}
	
		.st41{clip-path:url(#SVGID_20_);fill:none;stroke:#DEE3E0;stroke-width:6.9156;stroke-miterlimit:10;stroke-dasharray:10.4503,92.2082;}
	
		.st42{clip-path:url(#SVGID_20_);fill:none;stroke:#DEE3E0;stroke-width:6.9156;stroke-linecap:round;stroke-miterlimit:10;stroke-dasharray:3.0736,92.2082;}
	.st43{clip-path:url(#SVGID_20_);fill:url(#SVGID_23_);}
	.st44{fill:url(#SVGID_24_);}
	.st45{opacity:0.3;clip-path:url(#SVGID_26_);fill:url(#SVGID_27_);}
	.st46{opacity:0.3;clip-path:url(#SVGID_26_);fill:url(#SVGID_28_);}
	.st47{clip-path:url(#SVGID_26_);}
	.st48{fill:url(#SVGID_29_);}
	.st49{clip-path:url(#SVGID_26_);fill:#C985DE;}
	.st50{clip-path:url(#SVGID_26_);fill:#9B51A0;}
	.st51{fill:url(#SVGID_30_);}
	.st52{opacity:0.3;clip-path:url(#SVGID_32_);fill:url(#SVGID_33_);}
	.st53{opacity:0.3;clip-path:url(#SVGID_32_);fill:url(#SVGID_34_);}
	.st54{clip-path:url(#SVGID_32_);}
	.st55{fill:none;stroke:#DEE3E0;stroke-width:6.2485;stroke-linecap:round;stroke-miterlimit:10;}
	.st56{fill:none;stroke:#DEE3E0;stroke-width:6.3905;stroke-miterlimit:10;stroke-dasharray:9.6568,85.2068;}
	.st57{fill:none;stroke:#DEE3E0;stroke-width:6.3905;stroke-linecap:round;stroke-miterlimit:10;stroke-dasharray:2.8402,85.2068;}
	.st58{fill:none;stroke:#DEE3E0;stroke-width:6.7619;stroke-linecap:round;stroke-miterlimit:10;}
	.st59{fill:none;stroke:#DEE3E0;stroke-width:6.9156;stroke-miterlimit:10;stroke-dasharray:10.4503,92.2082;}
	.st60{fill:none;stroke:#DEE3E0;stroke-width:6.9156;stroke-linecap:round;stroke-miterlimit:10;stroke-dasharray:3.0736,92.2082;}
	.st61{clip-path:url(#SVGID_32_);fill:#DEE3E0;}
	.st62{clip-path:url(#SVGID_32_);fill:url(#SVGID_35_);}
	.st63{fill:url(#SVGID_36_);}
	.st64{fill:url(#SVGID_37_);}
	.st65{clip-path:url(#SVGID_39_);}
	.st66{fill:url(#SVGID_40_);}
	.st67{opacity:0.66;fill:url(#SVGID_41_);}
	.st68{opacity:0.47;fill:url(#SVGID_42_);}
	.st69{fill:url(#SVGID_43_);}
	.st70{fill:url(#SVGID_44_);}
	.st71{clip-path:url(#SVGID_46_);fill:#DEE3E0;}
	.st72{clip-path:url(#SVGID_46_);fill:url(#SVGID_47_);}
	.st73{opacity:0.66;clip-path:url(#SVGID_46_);fill:url(#SVGID_48_);}
	.st74{opacity:0.47;clip-path:url(#SVGID_46_);fill:url(#SVGID_49_);}
	.st75{fill:url(#SVGID_50_);}
	.st76{opacity:0.1;clip-path:url(#SVGID_52_);}
	.st77{opacity:0.25;clip-path:url(#SVGID_52_);fill:url(#SVGID_53_);}
	.st78{opacity:0.25;clip-path:url(#SVGID_52_);fill:url(#SVGID_54_);}
	.st79{clip-path:url(#SVGID_52_);}
	.st80{fill:url(#SVGID_55_);}
	.st81{opacity:0.1;clip-path:url(#SVGID_57_);}
	.st82{opacity:0.25;clip-path:url(#SVGID_57_);fill:url(#SVGID_58_);}
	.st83{opacity:0.25;clip-path:url(#SVGID_57_);fill:url(#SVGID_59_);}
	.st84{clip-path:url(#SVGID_57_);}
	.st85{fill:url(#SVGID_60_);}
	.st86{clip-path:url(#SVGID_62_);fill:url(#SVGID_63_);}
	.st87{clip-path:url(#SVGID_62_);}
	.st88{clip-path:url(#SVGID_62_);fill:#FFFFFF;}
	.st89{opacity:0.67;clip-path:url(#SVGID_65_);fill:url(#SVGID_66_);}
	.st90{opacity:0.4;clip-path:url(#SVGID_65_);}
	.st91{clip-path:url(#SVGID_65_);}
	.st92{clip-path:url(#SVGID_65_);fill:url(#SVGID_67_);}
	.st93{clip-path:url(#SVGID_69_);}
	.st94{fill:url(#SVGID_70_);}
	.st95{opacity:0.1;clip-path:url(#SVGID_72_);}
	.st96{opacity:0.25;clip-path:url(#SVGID_72_);fill:url(#SVGID_73_);}
	.st97{opacity:0.25;clip-path:url(#SVGID_72_);fill:url(#SVGID_74_);}
	.st98{clip-path:url(#SVGID_72_);}
	.st99{fill:#9B51A0;stroke:#C985DE;stroke-width:0.8438;stroke-miterlimit:10;}
	.st100{clip-path:url(#SVGID_72_);fill:#9B51A0;}
	.st101{fill:url(#SVGID_75_);}
	.st102{opacity:0.25;fill:url(#SVGID_76_);}
	.st103{opacity:0.25;fill:url(#SVGID_77_);}
	.st104{fill:#DEE3E0;stroke:#DEE3E0;stroke-width:0.8438;stroke-miterlimit:10;}
	.st105{fill:url(#SVGID_78_);}
</style>
<g id="New_Symbol_1_2_">
</g>
<g id="New_Symbol_16">
</g>
<g id="New_Symbol_1_1_">
</g>
<g id="New_Symbol_1">
</g>
<g id="New_Symbol_16_1_">
</g>
<g id="New_Symbol_17">
</g>
<g id="New_Symbol_18">
	<g id="New_Symbol_2">
	</g>
</g>
<g id="New_Symbol_1_3_">
</g>
<g id="New_Symbol_20">
</g>
<g id="New_Symbol_21">
</g>
<g id="New_Symbol_19">
	<g id="New_Symbol">
	</g>
</g>
<g id="New_Symbol_1_6_">
</g>
<g id="New_Symbol_16_3_">
	<g class="st9">
		<defs>
			<rect id="SVGID_7_" x="0" y="0" class="st9" width="48" height="43"/>
		</defs>
		<clipPath id="SVGID_2_">
			<use xlink:href="#SVGID_7_"  style="overflow:visible;"/>
		</clipPath>
		<g class="st0">
			<g>
				<path class="st11" d="M14.9,28.1l1-3.1c0,0,3.1,6.1-0.6,6.4L14.9,28.1z"/>
				<path class="st11" d="M4.5,31.6l-2.6-1.9c0,0,1.1,6.7,4.3,4.8L4.5,31.6z"/>
				<path class="st11" d="M4.4,32.6c1,3,4.3,4.7,7.3,3.7l0,0c3-1,4.7-4.3,3.7-7.3l0,0c-1-3-4.3-4.7-7.3-3.7l0,0
					C5,26.2,3.4,29.5,4.4,32.6L4.4,32.6z"/>
				<path class="st11" d="M14.4,30.6c0.1,2-1.2,3.8-3.1,4.5c-2,0.7-4-0.1-5.2-1.7L14.4,30.6z"/>
				<path class="st11" d="M6.3,31c0.2,0.5,0.8,0.8,1.3,0.7c0.5-0.2,0.8-0.8,0.7-1.3c-0.2-0.5-0.8-0.8-1.3-0.7
					C6.5,29.9,6.2,30.4,6.3,31z"/>
				<path class="st11" d="M10.8,29.5c0.2,0.5,0.8,0.8,1.3,0.7c0.5-0.2,0.8-0.8,0.7-1.3c-0.2-0.5-0.8-0.8-1.3-0.7
					C10.9,28.4,10.6,29,10.8,29.5z"/>
				<path class="st11" d="M2.6,27.2l0.2-0.5c1.4-3.3-3.9-8.2-4-8.3l-0.6-0.5l0.8,0.1c4.7,0.6,13.6,5.4,14,5.6l0.5,0.3L2.6,27.2z
					 M-0.2,18.6c1.3,1.4,4.4,4.9,3.7,7.8l8.9-2.7C10.4,22.7,3.9,19.4-0.2,18.6z"/>
				<path class="st11" d="M14.7,24.8c0.1,0.4-0.1,0.8-0.5,1L3.3,29.4c-0.4,0.1-0.8-0.1-1-0.5l-0.4-1.4c-0.1-0.4,0.1-0.8,0.5-1
					L13.3,23c0.4-0.1,0.8,0.1,1,0.5L14.7,24.8z"/>
			</g>
		</g>
		
			<rect x="2.8" y="46.2" transform="matrix(9.104912e-02 0.9958 -0.9958 9.104912e-02 57.5455 29.615)" style="clip-path:url(#SVGID_2_);fill:#DEE3E0;" width="19.5" height="0.3"/>
		
			<linearGradient id="SVGID_3_" gradientUnits="userSpaceOnUse" x1="2427.3503" y1="26.054" x2="2403.6411" y2="26.054" gradientTransform="matrix(-1 0 0 1 2442.8879 0)">
			<stop  offset="0.1531" style="stop-color:#DEE3E0"/>
			<stop  offset="0.9233" style="stop-color:#DEE3E0"/>
		</linearGradient>
		<path style="clip-path:url(#SVGID_2_);fill:url(#SVGID_3_);" d="M18.9,40.2l-0.4-0.3L28.1,29c2.7-3.1,5-5.6,6.6-7.4
			c1.8-2,3-3.3,3-3.3c0.6-0.7,1-1.6,1-2.5c0-0.9-0.4-1.8-1.1-2.5c-1.4-1.3-3.6-1.3-4.9,0.1c-0.1,0.1-0.2,0.2-0.3,0.3
			c0,0.1-1.2,1.6-2.7,3.8c-1.4,2-3.3,4.8-5.7,8.2l-8.1,12l-0.4-0.3l8.1-12c2.4-3.4,4.3-6.2,5.7-8.2c1.6-2.2,2.7-3.7,2.7-3.7
			c0.1-0.2,0.2-0.3,0.3-0.4c1.5-1.6,4-1.6,5.6-0.1c0.8,0.7,1.2,1.7,1.2,2.8s-0.4,2.1-1.1,2.9c0,0-1.2,1.3-3,3.3
			c-1.6,1.8-3.9,4.3-6.6,7.4L18.9,40.2z"/>
		<path style="clip-path:url(#SVGID_2_);fill:#DEE3E0;" d="M41.4,16.1c-0.6,2.8-3.4,4.6-6.3,4c-2.8-0.6-4.6-3.5-4-6.3s3.4-4.6,6.3-4
			C40.2,10.4,42,13.3,41.4,16.1z"/>
		<g class="st0">
			<path class="st11" d="M36.3,15.7c-0.2,0-0.3,0-0.5-0.1c-0.5-0.2-0.9-0.5-1.1-1c0,0,0,0,0,0c-0.6-0.5-1.8-1.6-1.6-3.3
				c0.1-1-0.1-2.6-0.3-3c-0.6-0.7-0.6-1.8,0.1-2.5c0.7-0.7,1.8-0.6,2.5,0.1c1.2,1.3,1.4,4.2,1.2,5.6c0.1,0.1,0.3,0.3,0.4,0.4
				c0.4,0.4,1.4,1.2,1,2.5C37.8,15.2,37.1,15.7,36.3,15.7z"/>
			
				<linearGradient id="SVGID_4_" gradientUnits="userSpaceOnUse" x1="-3155.6287" y1="362.1381" x2="-3135.6321" y2="362.1381" gradientTransform="matrix(0.993 0.1185 -0.1185 0.993 3191.4878 26.1439)">
				<stop  offset="0.1155" style="stop-color:#DEE3E0;stop-opacity:0"/>
				<stop  offset="1" style="stop-color:#DEE3E0"/>
			</linearGradient>
			<path class="st5" d="M14.8,19.7c0,0-0.1,0-0.1,0c-0.3-0.1-0.4-0.4-0.3-0.6c1.2-3.9,4-7.8,7.9-10.6c3.7-2.7,9.9-3.3,13.4-2.2
				C35.8,6.4,36,6.7,35.9,7c-0.1,0.3-0.4,0.4-0.6,0.3c-3.2-1-9.1-0.4-12.5,2c-3.6,2.6-6.4,6.3-7.5,10C15.2,19.6,15,19.7,14.8,19.7z"
				/>
			
				<linearGradient id="SVGID_5_" gradientUnits="userSpaceOnUse" x1="-3522.5188" y1="33.4725" x2="-3512.8301" y2="33.4725" gradientTransform="matrix(0.9867 -0.1035 0.1621 0.682 3492.481 -375.7547)">
				<stop  offset="0.1155" style="stop-color:#DEE3E0;stop-opacity:0"/>
				<stop  offset="1" style="stop-color:#DEE3E0"/>
			</linearGradient>
			<path class="st6" d="M23,14.5C23,14.5,23,14.5,23,14.5c-0.1,0-0.3-0.1-0.3-0.3c0-1.4,0.8-2.9,2.3-4.2c1.4-1.2,4.1-1.9,5.9-1.9
				c0.1,0,0.3,0.1,0.2,0.3c0,0.1-0.1,0.2-0.3,0.2c-1.8,0-4.4,0.8-5.5,1.8c-1.3,1.1-2.1,2.6-2.1,3.8C23.3,14.4,23.2,14.5,23,14.5z"/>
		</g>
		<path style="clip-path:url(#SVGID_2_);fill:#DEE3E0;" d="M38.7,17.4c-2.3,0.1-3.4-1.2-4.8-3.4c-1.5-2.4,2-7.3,4.1-9
			c1-0.9,3.1-3.3,4.3-0.9c0.5,0.9-0.2,2.1-0.2,3.1c0,1.1,0.9,1.7,1.3,2.7C45.1,13.5,42.4,17.1,38.7,17.4z"/>
		<g class="st0">
			<g>
				<path class="st11" d="M20.7,52.8l-0.9-10c-0.1-1.1-0.4-2-0.9-2.9c-0.1,0.1-0.3,0-0.3,0l-0.2,0.1c0.5,0.9,0.8,1.8,0.9,2.9l0.9,10
					c0.2,1.9-0.4,3.7-1.6,5.1c-1.2,1.4-2.9,2.3-4.7,2.5c-1.9,0.2-3.7-0.4-5.1-1.6c-1.4-1.2-2.3-2.9-2.5-4.8l-0.4-4
					c-0.1,0-0.2,0-0.3,0c-0.1,0-0.1,0-0.2-0.1l0.4,4.2C6,56.2,7,58,8.5,59.2c1.4,1.1,3,1.7,4.8,1.7c0.2,0,0.5,0,0.7,0
					c2-0.2,3.8-1.1,5.1-2.7C20.3,56.7,20.9,54.8,20.7,52.8z"/>
				<path class="st11" d="M8.2,37.8c1-0.8,2.2-1.2,3.5-1.4c0.2,0,0.4,0,0.6,0c1.3,0,2.5,0.4,3.5,1c0.1-0.1,0.2-0.2,0.3-0.4
					c-1.3-0.8-2.9-1.2-4.5-1c-1.4,0.1-2.7,0.7-3.8,1.5C8,37.6,8.1,37.7,8.2,37.8z"/>
				<path class="st11" d="M5.5,40.8c-0.1,0-0.1,0.3-0.2,0.3c-0.3,1-0.5,2-0.4,3.1l0.2,2c0.2,0.1,0.3,0.1,0.5,0.2l-0.2-2.3
					c-0.1-1.2,0.1-2.4,0.6-3.5L5.5,40.8z"/>
			</g>
			<path class="st11" d="M6.2,50.4c-0.2,0-0.4,0-0.6-0.1c-1.7-0.6-5.7-1.8-6.5-5.6c-0.3-1.5-0.1-3,0.7-4.2C1,38.8,3.3,37.6,6.6,37
				c0.5-0.1,1,0,1.5,0.3c0.4,0.3,0.7,0.8,0.8,1.3l-0.5,0.1c-0.1-0.4-0.3-0.7-0.6-0.9c-0.3-0.2-0.7-0.3-1.1-0.2
				c-3.2,0.6-5.4,1.7-6.5,3.3c-0.7,1.1-1,2.4-0.7,3.8c0.7,3.4,4.6,4.7,6.2,5.2c0.8,0.2,1.6-0.2,1.8-0.9c0.2-0.8-0.2-1.6-0.9-1.8
				c-1.8-0.6-3.9-1.4-4.2-3c-0.2-0.8,0-1.3,0.2-1.6c0.3-0.5,1.1-1.1,2.8-1.7l0.1,0.5c-1.7,0.5-2.3,1.1-2.6,1.5
				c-0.1,0.2-0.3,0.6-0.2,1.2c0.3,1.3,2.2,2.1,3.9,2.7c1,0.3,1.6,1.4,1.3,2.5C7.8,49.8,7.1,50.4,6.2,50.4z"/>
		</g>
	</g>
	<g id="XMLID_4_">
		<path class="st7" d="M34,23.3c0.3-0.3,0.5-0.8,0.5-1.3l0-10.3l-10.2,0c-1,0-1.8,0.8-1.8,1.8c0,1,0.8,1.8,1.8,1.8l6.6,0l0,6.6
			c0,1,0.8,1.8,1.8,1.8C33.2,23.8,33.7,23.6,34,23.3z"/>
		
			<linearGradient id="SVGID_6_" gradientUnits="userSpaceOnUse" x1="-6928.1064" y1="-7613.5532" x2="-6880.3242" y2="-7613.5532" gradientTransform="matrix(-0.4255 0.4286 0.4255 0.4286 323.5153 6247.1885)">
			<stop  offset="0.2321" style="stop-color:#FFFFFF"/>
			<stop  offset="1" style="stop-color:#FFFFFF;stop-opacity:0"/>
		</linearGradient>
		<polygon class="st8" points="13,36.4 33.4,15.9 30.4,12.9 10.1,33.4 		"/>
	</g>
</g>
<g id="New_Symbol_17_2_">
</g>
<g id="New_Symbol_18_2_">
</g>
<g id="New_Symbol_1_5_">
</g>
<g id="New_Symbol_20_2_">
</g>
<g id="New_Symbol_21_2_">
</g>
<g id="New_Symbol_19_2_">
</g>
<g id="New_Symbol_19_1_">
</g>
<g id="New_Symbol_21_1_">
</g>
<g id="New_Symbol_20_1_">
</g>
<g id="New_Symbol_18_1_">
</g>
<g id="New_Symbol_17_1_">
</g>
<g id="New_Symbol_16_2_">
</g>
<g id="New_Symbol_1_4_">
</g>
<g id="New_Symbol_1_">
</g>
</svg>
