<svg xmlns="http://www.w3.org/2000/svg" viewBox="0 0 84.9 98" enable-background="new 0 0 84.9 98"><g opacity=".25"><path opacity=".9" d="M27 98h58V40.4c0-1.8-1.5-3.3-3.3-3.3H30.3c-1.8 0-3.3 1.5-3.3 3.3V98z"/><path d="M52.7 81.6l5.4-.1V23.6h-5.4z"/><path opacity=".9" d="M30.1 57.2v33.3c0 1.4.7 2.4 1.5 2.4h48.9c.8 0 1.5-1.1 1.5-2.4V54.6c0-.9-.3-1.8-.8-2.2-2.6-2.2-11.6-8-25.1.9-11.8 7.8-20.2 4.2-23.8 1.6-1.1-.6-2.2.5-2.2 2.3z"/><path d="M52 19.9v-3.6H35.1l-.1 3.6z"/><path d="M42.3 30.3h26.2V37H42.3z"/><path opacity=".25" d="M48 16.4h1.7v3.5H48z"/><path opacity=".25" d="M27 98h28.7V37H30.3c-1.8 0-3.3 1.5-3.3 3.3V98z"/><path d="M49.6 13.2h11.6v11H49.6z"/><path d="M24.5 18.2l8.2 8.2 6.8-6.8c.7-.7.7-1.9 0-2.6l-6.9-7-8.1 8.2z"/><circle cx="18.2" cy="18.2" r="17.2"/><path d="M18.2 1c6.1 0 11.4 3.2 14.5 8-2.7-1.7-5.8-2.7-9.2-2.7C14 6.3 6.3 14 6.3 23.5c0 3.4 1 6.5 2.7 9.2-4.8-3-8-8.4-8-14.5C1 8.7 8.7 1 18.2 1z"/></g><path opacity=".9" fill="#eee" d="M26 97h58V39.4c0-1.8-1.5-3.3-3.3-3.3H29.3c-1.8 0-3.3 1.5-3.3 3.3V97z"/><path fill="#424242" d="M51.7 80.6l5.4-.1V22.6h-5.4z"/><path opacity=".9" fill="#D4E157" d="M29.1 56.2v33.3c0 1.4.7 2.4 1.5 2.4h48.9c.8 0 1.5-1.1 1.5-2.4V53.6c0-.9-.3-1.8-.8-2.2-2.6-2.2-11.6-8-25.1.9-11.8 7.8-20.2 4.2-23.8 1.6-1.1-.6-2.2.5-2.2 2.3z"/><path fill="#424242" d="M51 18.9v-3.6H34.1l-.1 3.6z"/><path fill="#424242" d="M41.3 29.3h26.2V36H41.3z"/><path opacity=".25" fill="#212121" d="M47 15.4h1.7v3.5H47z"/><path opacity=".25" fill="#BDBDBD" d="M26 97h28.7V36H29.3c-1.8 0-3.3 1.5-3.3 3.3V97z"/><path fill="#424242" d="M48.6 12.2h11.6v11H48.6z"/><path fill="#F9CE1D" d="M23.5 17.2l8.2 8.2 6.8-6.8c.7-.7.7-1.9 0-2.6l-6.9-7-8.1 8.2z"/><circle fill="#7CB342" cx="17.2" cy="17.2" r="17.2"/><path fill="#9CCC65" d="M17.2 0c6.1 0 11.4 3.2 14.5 8-2.7-1.7-5.8-2.7-9.2-2.7C13 5.3 5.3 13 5.3 22.5c0 3.4 1 6.5 2.7 9.2-4.8-3-8-8.4-8-14.5C0 7.7 7.7 0 17.2 0z"/></svg>