<svg xmlns="http://www.w3.org/2000/svg" viewBox="0 0 221 257" enable-background="new 0 0 221 257"><g opacity=".25"><path d="M97.9 250.5l.1-121.8c0-16.7-13.4-30.2-29.9-30.2-16.6 0-30 13.5-30 30.1l-.1 74.1c0 29.8 24 54.1 53.6 54.1 3.5 0 6.3-2.8 6.3-6.3z"/><path d="M73.7 67.9l144.2.1.1-66H73.8z"/><path d="M160 68H81.1l.1-65.3c3.4-.2 5-.1 7.3-.1C125.8 2.7 157 31 160 68z"/><path d="M98 154c-8.9 2.5-15.6 4-23.6 4-13.2 0-26.4-3.7-36.3-10.2L38 90h59.9l.1 64z"/><path d="M2 73.6C2 113 33.8 145 73.1 145s71.8-31.9 71.8-71.3S112.6 2 73.2 2 2 34.3 2 73.6z"/><path d="M213 34.7c0 18.1 1.8 33.4 4 33.4s4-15.3 4-33.3S219.2 2 217 2s-4 14.6-4 32.7z"/><path d="M89.2 52.6H56.4c-1.4 0-2.5-1.3-2.5-2.6 0-1.4 1.1-2.6 2.5-2.6h32.8c1.4 0 2.5 1.3 2.5 2.6s-1.1 2.6-2.5 2.6z"/><path d="M95 64.3H51.5c-1.4 0-2.5-1.3-2.5-2.6 0-1.4 1.1-2.6 2.5-2.6L95 59c1.4 0 2.5 1.3 2.5 2.6-.1 1.4-1.2 2.7-2.5 2.7z"/><path d="M46.6 71.6l54.1.1c1.4 0 2.5 1.3 2.5 2.6 0 1.4-1.1 2.6-2.5 2.6l-54.1-.1c-1.4 0-2.5-1.3-2.5-2.6s1.1-2.6 2.5-2.6z"/><path d="M51.5 83.2H95c1.4 0 2.5 1.3 2.5 2.6 0 1.4-1.1 2.6-2.5 2.6H51.5c-1.4 0-2.5-1.3-2.5-2.6s1.1-2.6 2.5-2.6z"/><path d="M56.4 94.9h32.8c1.4 0 2.5 1.3 2.5 2.6 0 1.4-1.1 2.6-2.5 2.6H56.4c-1.4 0-2.5-1.3-2.5-2.6s1.1-2.6 2.5-2.6z"/><path d="M32 73.7C32 51 50.5 32.5 73.3 32.5s41.2 18.5 41.2 41.3c0 22.7-18.5 41.2-41.3 41.2S31.9 96.4 32 73.7zm7 0C39 92.6 54.3 108 73.2 108c18.9 0 34.3-15.3 34.3-34.2 0-18.9-15.3-34.3-34.2-34.3C54.4 39.4 39 54.8 39 73.7z"/><path d="M85.8 202.7h7.6c1.8 0 3.3-1.5 3.3-3.3v-26.5c0-2.5-2-4.5-4.5-4.5h-5.6c-5.6 0-10.1 4.5-10.1 10.1v14.8c-.1 5.2 4.1 9.4 9.3 9.4z"/><path d="M85.8 194.7h8.1c1.6 0 2.8-1.3 2.8-2.8v-19.2c0-2.5-2-4.5-4.5-4.5h-5.6c-5.6 0-10.1 4.5-10.1 10.1v6.9c-.1 5.3 4.1 9.5 9.3 9.5z"/><path stroke="#000" stroke-width="3" stroke-linecap="round" stroke-miterlimit="10" fill="none" d="M96 174.5H80"/><path stroke="#000" stroke-width="3" stroke-linecap="round" stroke-miterlimit="10" fill="none" d="M96 180.5H80"/><path stroke="#000" stroke-width="3" stroke-linecap="round" stroke-miterlimit="10" fill="none" d="M96 186.5H80"/></g><path fill="#D1D1D1" d="M95.9 248.5l.1-121.8c0-16.7-13.4-30.2-29.9-30.2-16.6 0-30 13.5-30 30.1l-.1 74.1c0 29.8 24 54.1 53.6 54.1 3.5 0 6.3-2.8 6.3-6.3z"/><path fill="#D1D1D1" d="M71.7 65.9l144.2.1.1-66H71.8z"/><path fill="#BDBDBD" d="M158 66H79.1L79.2.7c3.4-.2 5-.1 7.3-.1C123.8.7 155 29 158 66z"/><path fill="#BDBDBD" d="M96 152c-8.9 2.5-15.6 4-23.6 4-13.2 0-26.4-3.7-36.3-10.2L36 88h59.9l.1 64z"/><path fill="#D1D1D1" d="M0 71.6C0 111 31.8 143 71.1 143s71.8-31.9 71.8-71.3S110.6 0 71.2 0 0 32.3 0 71.6z"/><path fill="#9E9E9E" d="M211 32.7c0 18.1 1.8 33.4 4 33.4s4-15.3 4-33.3S217.2 0 215 0s-4 14.6-4 32.7z"/><g fill="#424242"><path d="M87.2 50.6H54.4c-1.4 0-2.5-1.3-2.5-2.6 0-1.4 1.1-2.6 2.5-2.6h32.8c1.4 0 2.5 1.3 2.5 2.6s-1.1 2.6-2.5 2.6z"/><path d="M93 62.3H49.5c-1.4 0-2.5-1.3-2.5-2.6 0-1.4 1.1-2.6 2.5-2.6L93 57c1.4 0 2.5 1.3 2.5 2.6-.1 1.4-1.2 2.7-2.5 2.7z"/><path d="M44.6 69.6l54.1.1c1.4 0 2.5 1.3 2.5 2.6 0 1.4-1.1 2.6-2.5 2.6l-54.1-.1c-1.4 0-2.5-1.3-2.5-2.6s1.1-2.6 2.5-2.6z"/><path d="M49.5 81.2H93c1.4 0 2.5 1.3 2.5 2.6 0 1.4-1.1 2.6-2.5 2.6H49.5c-1.4 0-2.5-1.3-2.5-2.6s1.1-2.6 2.5-2.6z"/><path d="M54.4 92.9h32.8c1.4 0 2.5 1.3 2.5 2.6 0 1.4-1.1 2.6-2.5 2.6H54.4c-1.4 0-2.5-1.3-2.5-2.6s1.1-2.6 2.5-2.6z"/></g><path fill="#9E9E9E" d="M30 71.7C30 49 48.5 30.5 71.3 30.5s41.2 18.5 41.2 41.3c0 22.7-18.5 41.2-41.3 41.2S29.9 94.4 30 71.7zm7 0C37 90.6 52.3 106 71.2 106c18.9 0 34.3-15.3 34.3-34.2 0-18.9-15.3-34.3-34.2-34.3C52.4 37.4 37 52.8 37 71.7z"/><path fill="#9E9E9E" d="M83.8 200.7h7.6c1.8 0 3.3-1.5 3.3-3.3v-26.5c0-2.5-2-4.5-4.5-4.5h-5.6c-5.6 0-10.1 4.5-10.1 10.1v14.8c-.1 5.2 4.1 9.4 9.3 9.4z"/><path fill="#BFBFBF" d="M83.8 192.7h8.1c1.6 0 2.8-1.3 2.8-2.8v-19.2c0-2.5-2-4.5-4.5-4.5h-5.6c-5.6 0-10.1 4.5-10.1 10.1v6.9c-.1 5.3 4.1 9.5 9.3 9.5z"/><path stroke="#9E9E9E" stroke-width="3" stroke-linecap="round" stroke-miterlimit="10" fill="none" d="M94 172.5H78"/><path stroke="#9E9E9E" stroke-width="3" stroke-linecap="round" stroke-miterlimit="10" fill="none" d="M94 178.5H78"/><path stroke="#9E9E9E" stroke-width="3" stroke-linecap="round" stroke-miterlimit="10" fill="none" d="M94 184.5H78"/></svg>