<svg xmlns="http://www.w3.org/2000/svg" xmlns:xlink="http://www.w3.org/1999/xlink" width="50" height="61.377" viewBox="0 0 50 61.377"><path fill="#D1AD18" d="M16.963 11.344H29.14v8.973H16.964z"/><path fill="#D1AD18" stroke="#D1AD18" stroke-miterlimit="10" d="M23.73 12.863c-.304 0-.55-.245-.55-.548v-3.7h.55c1.998 0 3.625-1.575 3.625-3.51 0-1.968-1.494-3.51-3.4-3.51-1.975 0-3.58 1.575-3.58 3.51 0 .303-.246.548-.55.548s-.547-.245-.547-.548c0-2.54 2.098-4.605 4.676-4.605 2.522 0 4.497 2.023 4.497 4.605 0 2.358-1.826 4.308-4.173 4.574v2.635c0 .302-.246.548-.548.548z"/><image overflow="visible" opacity=".25" width="50" height="50" xlink:href="69C2F6423D2B5B87.png" transform="translate(0 11.377)"/><circle fill="#F9CE1D" cx="23.15" cy="34.907" r="20.116"/><path fill="#fff" d="M20.286 40.296c.01-1.31.245-2.293.706-2.953.462-.658 1.306-1.418 2.53-2.275.63-.395 1.128-.885 1.49-1.47.363-.583.545-1.257.545-2.02 0-.792-.213-1.423-.637-1.894-.424-.472-1.026-.707-1.81-.707-.63 0-1.157.193-1.582.58-.424.386-.646.96-.664 1.724h-4.65l-.027-.084c-.027-1.96.597-3.432 1.873-4.416s2.96-1.477 5.052-1.477c2.242 0 4.007.565 5.292 1.695 1.286 1.13 1.93 2.657 1.93 4.58 0 1.176-.352 2.26-1.053 3.25-.7.99-1.594 1.767-2.678 2.33-.603.397-1.01.823-1.222 1.28s-.318 1.076-.318 1.857h-4.776zm4.762 5.878h-4.75V42.36h4.75v3.814z"/></svg>