<svg id="art" xmlns="http://www.w3.org/2000/svg" xmlns:xlink="http://www.w3.org/1999/xlink" width="400" height="400" viewBox="0 0 400 400"><style>.st0{opacity:.57;fill:none;stroke:#1976d2;stroke-width:16.3801;stroke-linecap:round;stroke-miterlimit:10}.st1{fill:#81d4fa}.st2{fill:#1e88e5}.st3{fill:#f9ce1d}.st4{fill:#25b701}.st5{fill:#fad53f}.st6{fill:#ab47bc}.st7{fill:#9ccc65}.st8{fill:#81d4fa}.st8,.st9{clip-path:url(#SVGID_2_)}.st10{fill:#e53935}.st11{opacity:.11}.st12{fill:none;stroke:#FFF;stroke-width:8.6053;stroke-miterlimit:10}.st13{fill:#e53935}.st13,.st14{clip-path:url(#SVGID_2_)}.st14{opacity:.11}.st15{stroke-width:44.227}.st15,.st16{fill:none;stroke:#e53935;stroke-linecap:round;stroke-miterlimit:10}.st16{opacity:.24;stroke-width:39.9}.st17{fill:#FFF}.st18{fill:#ffe18c}.st19{fill:#333}.st20{fill:#666}.st21{stroke:#333;stroke-width:3.8678}.st21,.st22{fill:none;stroke-miterlimit:10}.st22{stroke:#666;stroke-width:15.0573}.st23{opacity:.15}.st23,.st24{clip-path:url(#SVGID_2_)}.st24{fill:#FFF}.st25{fill:none}.st26{fill:#81d4fa}.st26,.st27{clip-path:url(#SVGID_4_)}.st28,.st29{fill:#039be5}.st29{clip-path:url(#SVGID_4_)}.st30{opacity:.11}.st30,.st31{clip-path:url(#SVGID_4_)}.st31{fill:#FFF}.st32{stroke-width:44.227}.st32,.st33{fill:none;stroke:#039be5;stroke-linecap:round;stroke-miterlimit:10}.st33{opacity:.24;stroke-width:39.9}.st34{fill:#8c5835}.st35{opacity:.57;fill:none;stroke:#1976d2;stroke-width:44.2263;stroke-linecap:round;stroke-miterlimit:10}.st36{opacity:.15;clip-path:url(#SVGID_4_)}.st37{fill:#1e88e5}.st37,.st38{clip-path:url(#SVGID_6_)}.st39{fill:#00c05d}.st40{opacity:.15;clip-path:url(#SVGID_6_)}.st41{opacity:.57;stroke-width:44.2263}.st41,.st42{fill:none;stroke:#00c05d;stroke-linecap:round;stroke-miterlimit:10}.st42{stroke-width:44.227}.st43{fill:#ebebeb}.st44,.st45{fill:#bd9941}.st45{stroke:#bd9941;stroke-width:5.7;stroke-miterlimit:10}.st46{fill:#40cdde}.st47{fill:#36b04a}.st48{fill:#e5e5e5}.st49{fill:#a98a39}.st50{opacity:.12;fill:none;stroke:#000;stroke-width:44.227;stroke-linecap:round;stroke-miterlimit:10}.st51{fill:#f9ce1d}.st51,.st52{clip-path:url(#SVGID_8_)}.st53{fill:#f57c00}.st54{opacity:.31}.st55{opacity:.35}.st56{opacity:.46;fill:#ffbe8c}.st57{fill:none;stroke:#f57c00;stroke-width:41.987;stroke-linecap:round;stroke-miterlimit:10}.st58{fill:#FFF;stroke:#FFF;stroke-width:12.9978}.st58,.st59{stroke-linecap:round;stroke-miterlimit:10}.st59{fill:none;stroke:#000;stroke-width:41.987}.st59,.st60{opacity:.11}.st60,.st61{clip-path:url(#SVGID_8_)}.st61{opacity:.15}.st62{clip-path:url(#SVGID_10_);fill:#f9ce1d}.st63{opacity:.15}.st63,.st64{clip-path:url(#SVGID_10_)}.st65{fill:#764c2e}.st66{fill:#29b6f6}.st67{opacity:.19}.st68{fill:none;stroke:#FFF;stroke-width:8.553;stroke-miterlimit:10}.st69{stroke:#333;stroke-width:3.8443}.st69,.st70{fill:none;stroke-miterlimit:10}.st70{stroke:#666;stroke-width:14.9658}.st71{clip-path:url(#SVGID_10_);fill:#29b6f6}.st72{opacity:.19}.st72,.st73{clip-path:url(#SVGID_10_)}.st73{fill:#FFF}.st74{fill:none;stroke:#29b6f6;stroke-width:45.0042;stroke-linecap:round;stroke-miterlimit:10}.st75{fill:gray}.st76{fill:#4d4d4d}.st77{opacity:.5;fill:#999}.st78{opacity:.3;fill:#919396}.st79{opacity:.5;fill:#919396}.st80{fill:#8a8a8a}.st81{opacity:.5;fill:gray}.st82{fill:#999}.st83{stroke:#29b6f6}.st83,.st84{fill:none;stroke-width:42.8668;stroke-linecap:round;stroke-miterlimit:10}.st84{opacity:.19;stroke:#000}.st85{fill:#f9ce1d}.st85,.st86{clip-path:url(#SVGID_12_)}.st87{fill:#8e24aa}.st88{fill:#833f4a}.st89{opacity:.15;clip-path:url(#SVGID_12_)}.st90{fill:none;stroke:#8e24aa;stroke-width:44.227;stroke-linecap:round;stroke-miterlimit:10}.st91{fill:#d4e157}.st92{opacity:.1}.st93{fill:#ef5350}.st94{opacity:.2;fill:#231f20}.st95{opacity:.11;fill:none;stroke:#000;stroke-width:44.227;stroke-linecap:round;stroke-miterlimit:10}.st96{fill:#25b701}.st96,.st97,.st98{clip-path:url(#SVGID_14_)}.st98{stroke:#f9ce1d}.st98,.st99{fill:none;stroke-width:45.2808;stroke-linecap:round;stroke-miterlimit:10}.st99{opacity:.11;stroke:#000}.st99,.st100{clip-path:url(#SVGID_14_)}.st100{opacity:.15}.st101{fill:#2b2b2b}.st102{fill:#848484}.st103{fill:#e0e0e0}.st104{opacity:.12}.st105{fill:#704a9a}.st106{fill:#553d83}.st107{fill:#5f81c0}.st108{fill:#39527c}.st109{fill:#ab47bc}.st109,.st110{clip-path:url(#SVGID_16_)}.st111{fill:none;stroke:#e53935;stroke-width:62.7;stroke-miterlimit:10}.st112{opacity:.15;fill:#231f20}.st113{fill:#ef9a9a}.st114{fill:#f7caad}.st115{fill:#212121}.st116{opacity:.11}.st116,.st117{clip-path:url(#SVGID_16_)}.st117{opacity:.15}.st118{fill:#9ccc65}.st118,.st119{clip-path:url(#SVGID_18_)}.st120{fill:#1976d2}.st121{opacity:.15;clip-path:url(#SVGID_18_)}.st122{fill:none;stroke:#1976d2;stroke-width:44.227;stroke-linecap:round;stroke-miterlimit:10}.st123{fill:#00518b}.st124{fill:#00b9f1}.st125{fill:#eef8fd}.st126,.st127{fill:#524fa0}.st127{stroke:#524fa0;stroke-width:4.275}.st128{fill:none;stroke:#FFF;stroke-width:11.4}.st129{fill:#00adee}.st130{fill:#69cdf5}.st131{opacity:.9}.st132{fill:none;stroke:#f0efe3;stroke-width:1.71}.st133{fill:none;stroke:#FFF;stroke-width:1.425}.st134{fill:#fad53f}.st134,.st135{clip-path:url(#SVGID_20_)}.st136,.st137{fill:#7cb342}.st137{opacity:.57}.st138{opacity:.15;clip-path:url(#SVGID_20_)}.st139{fill:none;stroke:#7cb342;stroke-width:44.227;stroke-linecap:round;stroke-miterlimit:10}.st140{fill:#b3b3b3}.st141{opacity:.6}.st142{fill:#ff1900}.st143{fill:#704a9c}.st144{fill:#553d85}.st145{fill:#5f83c2}</style><g id="photos_2"><defs><path id="SVGID_7_" d="M400 382L18 0h382z"/></defs><clipPath id="SVGID_2_"><use xlink:href="#SVGID_7_" overflow="visible"/></clipPath><path clip-path="url(#SVGID_2_)" fill="#f9ce1d" d="M-27.4-17.1h455.9v414.8H-27.4z"/><g class="st9"><path class="st53" d="M338.6 363.3l7.7-44c6.4-51.8-23.3-112.1-66.6-134.7-43.3-22.7-83.5 1-89.9 52.8l-7.7 44 156.5 81.9z"/><path class="st11" d="M336.4 252c-20.9 6.3-44.2 4.8-65.2-6l-.5-.2c-25.8-13.5-42-38-45.9-64.7 15.6-7.5 34.9-6.8 54.7 3.6 24.9 12.9 45.3 38.2 56.9 67.3z"/><path class="st11" d="M292.7 193c30.8 24.1 13.1 55.8 7.3 102.2l-7.7 44 46.2 24.2 7.7-44c5.8-46.4-17.5-99.5-53.5-126.4z"/><path class="st12" d="M280.6 185.1l-19.3 137.8"/><path class="st17" d="M328.2 182.5c-3.4-15.8-15.7-34.5-31.3-46.1-15.5-11.5-29.5-12.5-35.5-3.8l66.8 49.9z"/><g><path class="st19" d="M231.1 58c-.9-.7-1.9-1.4-2.9-2-12.6-6.6-28.8-.5-36.1 13.5-7.4 14.1-3.1 30.8 9.5 37.4 1.1.6 2.2.9 3.3 1.3L231.1 58z"/><path class="st20" d="M235.714 41.237l17.284 9.028-41.947 80.308-17.284-9.028z"/><path class="st20" d="M229.44 45.68l17.286 9.028-35.605 68.164-17.284-9.03z"/><path class="st18" d="M379.7 150.4l44-21.8s-32 98.2-76.2 61.4l32.2-39.6z"/><path class="st18" d="M377.7 172.4c-22.1 42.9-74.8 59.7-117.7 37.6-42.9-22.1-59.7-74.9-37.5-117.7 22.1-42.9 74.8-59.7 117.7-37.5 42.8 22 59.6 74.7 37.5 117.6z"/><g class="st54"><path class="st18" d="M379.7 150.4l44-21.8s-32 98.2-76.2 61.4l32.2-39.6z"/><path class="st18" d="M377.7 172.4c-22.1 42.9-74.8 59.7-117.7 37.6-42.9-22.1-59.7-74.9-37.5-117.7 22.1-42.9 74.8-59.7 117.7-37.5 42.8 22 59.6 74.7 37.5 117.6z"/></g><image width="503" height="503" xlink:href="F3E5A6B80263633.png" transform="matrix(.24 0 0 .24 385.537 83.024)" overflow="visible" class="st55"/><circle class="st56" cx="336.2" cy="161.7" r="24"/><circle class="st56" cx="254.2" cy="113.7" r="24"/><path class="st17" d="M303.6 198.1c6.6-14.8-1.4-32-17.2-40.2-15.6-8.1-34.1-4.7-42.4 9l59.6 31.2z"/><path class="st21" d="M215.9 100.2c-1.3 2.5-10.4 27.5-10.4 27.5"/><path class="st22" d="M214.6 90.4c-1.3 2.5-13.7 84.8-13.7 84.8l41.5 21.7"/><path class="st20" d="M260.4 216.4l-22.7-11.8c-2.6-1.3-3.6-4.5-2.2-7.1l4.9-9.4c1.3-2.6 4.5-3.6 7.1-2.2l22.7 11.8c2.6 1.3 3.6 4.5 2.2 7.1l-4.9 9.4c-1.4 2.5-4.5 3.5-7.1 2.2z"/><path class="st19" d="M272.5 204.5l-.1.2c1.3-2.6.3-5.8-2.2-7.1l-22.7-11.8c-2.6-1.3-5.8-.3-7.1 2.2l.1-.2 32 16.7zM287.9 109.9c-4.1 8-14 11.2-22.1 7-8-4.2-11.2-14-7-22.1 4.1-8 14-11.2 22.1-7 8 4.2 11.1 14.1 7 22.1zM351.6 142.9c-4.1 8-14 11.2-22.1 7-8-4.2-11.2-14-7.1-22.1 4.1-8 14-11.2 22.1-7 8.1 4.2 11.3 14.1 7.1 22.1z"/><path class="st18" d="M384.8 111.3L286 46c17.9-2.9 36.8-.3 54.2 8.6l.5.2c22.9 12.2 38.4 33.1 44.1 56.5z"/><path class="st11" d="M384.8 111.3L286 46c17.9-2.9 36.8-.3 54.2 8.6l.5.2c22.9 12.2 38.4 33.1 44.1 56.5z"/><g><path class="st53" d="M290.1 2c32.3-.8 118.3-31.7 193.2 10 0 0-64.3 35.5-61.3 89.8L290.1 2z"/><path class="st11" d="M376.9 69s61.3-76.2 106.4-56.9c0 0-64.3 35.5-61.3 89.8L376.9 69z"/><path class="st17" d="M418.1 117.4c-3.7 4.8-10.4 5.8-15 2.3L280.6 24.6c-4.5-3.5-5.2-10.3-1.5-15.1l12.4-15.9c3.7-4.8 10.4-5.8 15-2.3L429 86.4c4.5 3.5 5.2 10.3 1.5 15.1l-12.4 15.9z"/></g></g></g><g class="st9"><path class="st57" d="M195.1 195.4c-97.5 95.2-131.2 9.7-6.2-50.2"/><path class="st18" d="M189.8 122l25.5-11.7c10-4.4 21.7.1 26.1 10.1 4.4 10-.1 21.7-10.1 26.1l-25.5 11.7-16-36.2z"/><path class="st18" d="M191.5 137l.7.5c3.5 2.6 8.5 1.6 10.8-2l5.3-8.4c2.1-3.3 1.3-7.7-1.9-10.1l-.7-.5c-3.5-2.6-8.5-1.6-10.8 2l-5.3 8.4c-2.1 3.3-1.3 7.7 1.9 10.1z"/><path class="st58" d="M186.7 122.9l15.7 34.8"/></g><g class="st9"><path class="st57" d="M343.3 255.2c13.3 137.2 81.6 91.6 39.9-31.1"/><path class="st59" d="M343.3 255.2c13.3 137.2 81.6 91.6 39.9-31.1"/><path class="st18" d="M399 207.1l-9.8-26.3c-3.9-10.2-15.4-15.3-25.6-11.4-10.2 3.9-15.3 15.4-11.4 25.6l9.8 26.3 37-14.2z"/><path class="st18" d="M392 207.5l-.8-.3c-4.1-1.5-6.1-6.1-4.3-10.1l4-9.1c1.6-3.6 5.7-5.4 9.4-4.1l.8.3c4.1 1.5 6.1 6.1 4.3 10.1l-4 9.1c-1.6 3.7-5.7 5.5-9.4 4.1z"/><path class="st58" d="M400.5 210l-35.7 13.4"/></g><path class="st14" d="M358.9 241.3c-4.3-4.8-10.7-7.6-17.6-6.9-10.7 1-18.6 9.9-18.9 20.4 13-1.8 25.4-6.4 36.5-13.5z"/><path d="M400 372.9c.1 3.3 0 6.6 0 10L17.1 0c3.4 0 5.7-.1 9 0C146.2 127.7 272.3 252.7 400 372.9z" class="st23"/><path class="st25" d="M-50 0h450v450H-50z"/></g></svg>