<svg id="art" xmlns="http://www.w3.org/2000/svg" xmlns:xlink="http://www.w3.org/1999/xlink" width="400" height="400" viewBox="0 0 400 400"><style>.st0{opacity:.57;fill:none;stroke:#1976d2;stroke-width:16.3801;stroke-linecap:round;stroke-miterlimit:10}.st1{fill:#81d4fa}.st2{fill:#1e88e5}.st3{fill:#f9ce1d}.st4{fill:#25b701}.st5{fill:#fad53f}.st6{fill:#ab47bc}.st7{fill:#9ccc65}.st8{fill:#81d4fa}.st8,.st9{clip-path:url(#SVGID_2_)}.st10{fill:#e53935}.st11{opacity:.11}.st12{fill:none;stroke:#FFF;stroke-width:8.6053;stroke-miterlimit:10}.st13{fill:#e53935}.st13,.st14{clip-path:url(#SVGID_2_)}.st14{opacity:.11}.st15{stroke-width:44.227}.st15,.st16{fill:none;stroke:#e53935;stroke-linecap:round;stroke-miterlimit:10}.st16{opacity:.24;stroke-width:39.9}.st17{fill:#FFF}.st18{fill:#ffe18c}.st19{fill:#333}.st20{fill:#666}.st21{stroke:#333;stroke-width:3.8678}.st21,.st22{fill:none;stroke-miterlimit:10}.st22{stroke:#666;stroke-width:15.0573}.st23{opacity:.15}.st23,.st24{clip-path:url(#SVGID_2_)}.st24{fill:#FFF}.st25{fill:none}.st26{fill:#81d4fa}.st26,.st27{clip-path:url(#SVGID_4_)}.st28,.st29{fill:#039be5}.st29{clip-path:url(#SVGID_4_)}.st30{opacity:.11}.st30,.st31{clip-path:url(#SVGID_4_)}.st31{fill:#FFF}.st32{stroke-width:44.227}.st32,.st33{fill:none;stroke:#039be5;stroke-linecap:round;stroke-miterlimit:10}.st33{opacity:.24;stroke-width:39.9}.st34{fill:#8c5835}.st35{opacity:.57;fill:none;stroke:#1976d2;stroke-width:44.2263;stroke-linecap:round;stroke-miterlimit:10}.st36{opacity:.15;clip-path:url(#SVGID_4_)}.st37{fill:#1e88e5}.st37,.st38{clip-path:url(#SVGID_6_)}.st39{fill:#00c05d}.st40{opacity:.15;clip-path:url(#SVGID_6_)}.st41{opacity:.57;stroke-width:44.2263}.st41,.st42{fill:none;stroke:#00c05d;stroke-linecap:round;stroke-miterlimit:10}.st42{stroke-width:44.227}.st43{fill:#ebebeb}.st44,.st45{fill:#bd9941}.st45{stroke:#bd9941;stroke-width:5.7;stroke-miterlimit:10}.st46{fill:#40cdde}.st47{fill:#36b04a}.st48{fill:#e5e5e5}.st49{fill:#a98a39}.st50{opacity:.12;fill:none;stroke:#000;stroke-width:44.227;stroke-linecap:round;stroke-miterlimit:10}.st51{fill:#f9ce1d}.st51,.st52{clip-path:url(#SVGID_8_)}.st53{fill:#f57c00}.st54{opacity:.31}.st55{opacity:.35}.st56{opacity:.46;fill:#ffbe8c}.st57{fill:none;stroke:#f57c00;stroke-width:41.987;stroke-linecap:round;stroke-miterlimit:10}.st58{fill:#FFF;stroke:#FFF;stroke-width:12.9978}.st58,.st59{stroke-linecap:round;stroke-miterlimit:10}.st59{fill:none;stroke:#000;stroke-width:41.987}.st59,.st60{opacity:.11}.st60,.st61{clip-path:url(#SVGID_8_)}.st61{opacity:.15}.st62{clip-path:url(#SVGID_10_);fill:#f9ce1d}.st63{opacity:.15}.st63,.st64{clip-path:url(#SVGID_10_)}.st65{fill:#764c2e}.st66{fill:#29b6f6}.st67{opacity:.19}.st68{fill:none;stroke:#FFF;stroke-width:8.553;stroke-miterlimit:10}.st69{stroke:#333;stroke-width:3.8443}.st69,.st70{fill:none;stroke-miterlimit:10}.st70{stroke:#666;stroke-width:14.9658}.st71{clip-path:url(#SVGID_10_);fill:#29b6f6}.st72{opacity:.19}.st72,.st73{clip-path:url(#SVGID_10_)}.st73{fill:#FFF}.st74{fill:none;stroke:#29b6f6;stroke-width:45.0042;stroke-linecap:round;stroke-miterlimit:10}.st75{fill:gray}.st76{fill:#4d4d4d}.st77{opacity:.5;fill:#999}.st78{opacity:.3;fill:#919396}.st79{opacity:.5;fill:#919396}.st80{fill:#8a8a8a}.st81{opacity:.5;fill:gray}.st82{fill:#999}.st83{stroke:#29b6f6}.st83,.st84{fill:none;stroke-width:42.8668;stroke-linecap:round;stroke-miterlimit:10}.st84{opacity:.19;stroke:#000}.st85{fill:#f9ce1d}.st85,.st86{clip-path:url(#SVGID_12_)}.st87{fill:#8e24aa}.st88{fill:#833f4a}.st89{opacity:.15;clip-path:url(#SVGID_12_)}.st90{fill:none;stroke:#8e24aa;stroke-width:44.227;stroke-linecap:round;stroke-miterlimit:10}.st91{fill:#d4e157}.st92{opacity:.1}.st93{fill:#ef5350}.st94{opacity:.2;fill:#231f20}.st95{opacity:.11;fill:none;stroke:#000;stroke-width:44.227;stroke-linecap:round;stroke-miterlimit:10}.st96{fill:#25b701}.st96,.st97,.st98{clip-path:url(#SVGID_14_)}.st98{stroke:#f9ce1d}.st98,.st99{fill:none;stroke-width:45.2808;stroke-linecap:round;stroke-miterlimit:10}.st99{opacity:.11;stroke:#000}.st99,.st100{clip-path:url(#SVGID_14_)}.st100{opacity:.15}.st101{fill:#2b2b2b}.st102{fill:#848484}.st103{fill:#e0e0e0}.st104{opacity:.12}.st105{fill:#704a9a}.st106{fill:#553d83}.st107{fill:#5f81c0}.st108{fill:#39527c}.st109{fill:#ab47bc}.st109,.st110{clip-path:url(#SVGID_16_)}.st111{fill:none;stroke:#e53935;stroke-width:62.7;stroke-miterlimit:10}.st112{opacity:.15;fill:#231f20}.st113{fill:#ef9a9a}.st114{fill:#f7caad}.st115{fill:#212121}.st116{opacity:.11}.st116,.st117{clip-path:url(#SVGID_16_)}.st117{opacity:.15}.st118{fill:#9ccc65}.st118,.st119{clip-path:url(#SVGID_18_)}.st120{fill:#1976d2}.st121{opacity:.15;clip-path:url(#SVGID_18_)}.st122{fill:none;stroke:#1976d2;stroke-width:44.227;stroke-linecap:round;stroke-miterlimit:10}.st123{fill:#00518b}.st124{fill:#00b9f1}.st125{fill:#eef8fd}.st126,.st127{fill:#524fa0}.st127{stroke:#524fa0;stroke-width:4.275}.st128{fill:none;stroke:#FFF;stroke-width:11.4}.st129{fill:#00adee}.st130{fill:#69cdf5}.st131{opacity:.9}.st132{fill:none;stroke:#f0efe3;stroke-width:1.71}.st133{fill:none;stroke:#FFF;stroke-width:1.425}.st134{fill:#fad53f}.st134,.st135{clip-path:url(#SVGID_20_)}.st136,.st137{fill:#7cb342}.st137{opacity:.57}.st138{opacity:.15;clip-path:url(#SVGID_20_)}.st139{fill:none;stroke:#7cb342;stroke-width:44.227;stroke-linecap:round;stroke-miterlimit:10}.st140{fill:#b3b3b3}.st141{opacity:.6}.st142{fill:#ff1900}.st143{fill:#704a9c}.st144{fill:#553d85}.st145{fill:#5f83c2}</style><g id="blitzen-escaped_2"><path class="st1" d="M403-18.5L233.9-5.9 230.2 0H403z"/></g><g id="photos_2"><defs><path id="SVGID_3_" d="M400 382L18 0h382z"/></defs><clipPath id="SVGID_2_"><use xlink:href="#SVGID_3_" overflow="visible"/></clipPath><path class="st8" d="M-20.1-15.2h455.9v402H-20.1z"/><g class="st9"><path class="st28" d="M324.6 377.5l13-40.5c15-46.5-10.5-96.3-57-111.3s-96.2 10.7-111.2 57.2l-13 40.5 168.2 54.1z"/><path class="st11" d="M294.4 231.6c31.9 17.7 24.1 53.3 10.7 94.9L292 367l32.6 10.5 13-40.5c13.4-41.7-5.7-85.9-43.2-105.4z"/><path class="st12" d="M281.6 226.1l-40.1 124.6"/></g><path d="M380.3 300.7c-.1-11.9-9.8-21.4-21.7-21.3-11.9.1-21.4 9.8-21.3 21.7 0 .7.2 37.1-5.4 88.8l42.2 11c6.4-56.6 6.2-97.2 6.2-100.2z" clip-path="url(#SVGID_2_)" fill="#039be5"/><path class="st14" d="M380.3 300.7c-.1-11.9-9.8-21.4-21.7-21.3-11.9.1-21.4 9.8-21.3 21.7 0 .7.2 37.1-5.4 88.8l42.2 11c6.4-56.6 6.2-97.2 6.2-100.2z"/><path class="st24" d="M376.9 363.4c-7.4 14.4-25.1 20.1-39.6 12.7l-1-.5c-14.4-7.4-20.1-25.1-12.7-39.6l.5-1c7.4-14.4 25.1-20.1 39.6-12.7l1 .5c14.4 7.4 20.1 25.1 12.7 39.6l-.5 1z"/><g class="st9"><path class="st32" d="M217 212c-19.8 28.6-182.2 84.6-72.4-116.9"/><path class="st33" d="M135.1 114.3c3.4-5.6 6.9-11.1 10.5-16.6"/><path class="st17" d="M118.6 74.6c8.2-15.9 27.7-22.2 43.7-14s22.2 27.7 14 43.7c-8.2 15.9-27.7 22.2-43.7 14s-22.2-27.8-14-43.7"/><path class="st18" d="M187.7 81.4c-7.4 14.4-25.1 20.1-39.6 12.7l-1-.5C132.6 86.1 127 68.4 134.4 54l.5-1c7.4-14.4 25.1-20.1 39.6-12.7l1 .5c14.4 7.4 20.1 25.1 12.7 39.6l-.5 1z"/><path class="st18" d="M188 71.3c-2.9 5.6-9.8 7.8-15.4 4.9-5.6-2.9-7.8-9.8-4.9-15.4l20.9-40.5c2.9-5.6 9.8-7.8 15.4-4.9 5.6 2.9 7.8 9.8 4.9 15.4L188 71.3z"/><path class="st18" d="M172.1 81c-1.4-5.6 2.1-11.3 7.7-12.6l13.6-3.3c5.6-1.4 11.3 2.1 12.6 7.7 1.4 5.6-2.1 11.3-7.7 12.6l-13.6 3.3c-5.6 1.3-11.3-2.1-12.6-7.7z"/></g><g class="st9"><path class="st19" d="M241 78.4c-1-.6-1.9-1.3-3-1.8-13-5.7-28.8 1.4-35.2 15.9-6.4 14.5-1.1 31 12 36.7 1.1.5 2.2.7 3.3 1L241 78.4z"/><path class="st34" d="M224.8 187.2c2.5-1.3 5-2.5 7.8-3.3 24.9-7.3 54.5-10.1 78.3 3.3 20.1 11.3 36.1 25.7 46.3 45.6 20.1-9.9 37-26.6 46.7-48.7 22-49.9-.6-108.2-50.5-130.2-49.9-22-108.2.6-130.2 50.5-12 27.5-10.5 57.7 1.6 82.8z"/><path class="st20" d="M244.528 61.432l17.84 7.872-36.575 82.89-17.84-7.872z"/><path class="st20" d="M238.567 66.27l17.84 7.87-31.044 70.357-17.84-7.873z"/><path class="st34" d="M220 189.8c19.4-7.5 32.9-23.8 37.7-42.6-16.2-10.6-37.1-13.6-56.5-6-19.4 7.5-32.9 23.8-37.7 42.6 16.2 10.6 37.1 13.6 56.5 6zM347.7 246.1c-7.5-19.4-4.6-40.3 6-56.5 18.8 4.8 35 18.3 42.6 37.7 7.5 19.4 4.6 40.3-6 56.5-18.8-4.8-35.1-18.2-42.6-37.7z"/><path class="st18" d="M394.8 182.9c-19.3 44.2-70.8 64.5-115 45.2-44.3-19.3-64.5-70.8-45.2-115 19.3-44.2 70.8-64.5 115-45.2 44.2 19.3 64.5 70.8 45.2 115z"/><path class="st17" d="M253.6 149.3c-3.2 25.1 10.2 50.4 34.5 61.2 24.4 10.8 52.1 3.6 68.5-15.7l-103-45.5z"/><path class="st18" d="M308 172.2l-12.2-5.4 5.1-18.8 17.6 7.8z"/><path class="st19" d="M301.1 126.5c-3.6 8.3-13.3 12.1-21.6 8.5-8.3-3.6-12.1-13.3-8.5-21.6 3.6-8.3 13.3-12.1 21.6-8.5 8.3 3.7 12.1 13.4 8.5 21.6zM366.9 155.2c-3.6 8.3-13.3 12.1-21.6 8.5-8.3-3.6-12.1-13.3-8.5-21.6 3.6-8.3 13.3-12.1 21.6-8.5 8.3 3.7 12.1 13.3 8.5 21.6z"/><path class="st18" d="M395.4 160.8l42.5-24.6s-25.5 100.1-71.9 66.3l29.4-41.7z"/><path class="st34" d="M362.7 85.6c-24-16.6-51.7-27-81.1-26.9-11.3 0-23.4 2.2-31.9 10.1-11.1 10.3-4.9 21.7 6.4 27.8 26.6 14.4 60.3 26.4 90.8 25.7 11.7-.3 27.5-1.5 36.6-9.9 11.3-10.5-14.2-22.2-20.8-26.8z"/><g><path class="st21" d="M228.6 121.6c-1.1 2.6-8.6 28.1-8.6 28.1"/><path class="st22" d="M226.7 111.9c-1.1 2.6-8.1 85.6-8.1 85.6l42.8 18.9"/><path class="st20" d="M280.7 234.5l-23.4-10.3c-2.7-1.2-3.9-4.3-2.7-7l4.3-9.7c1.2-2.7 4.3-3.9 7-2.7l23.4 10.3c2.7 1.2 3.9 4.3 2.7 7l-4.3 9.7c-1.2 2.7-4.4 3.9-7 2.7z"/><path class="st19" d="M292 221.9l-.1.2c1.2-2.7 0-5.8-2.7-7l-23.4-10.3c-2.7-1.2-5.8 0-7 2.7l.1-.2 33.1 14.6z"/></g><path class="st28" d="M265.8 41.7s114.8-95.8 199.4 18.8c0 0-55.5-4.6-38.6 50.4L265.8 41.7z"/><path class="st11" d="M371.8 88.5s57.5-65.7 93.3-28c0 0-55.5-4.6-38.6 50.4l-54.7-22.4z"/><path class="st17" d="M416.4 136.1L256.9 65.7c-5.8-2.5-8.4-9.3-5.8-15l9-20.4c2.5-5.8 9.3-8.4 15-5.8l159.5 70.4c5.8 2.5 8.4 9.3 5.8 15l-9 20.4c-2.5 5.7-9.3 8.3-15 5.8z"/></g><path d="M30.1 0C148.6 127.8 269.2 250 400 369.7V383C272.6 255.6 144.2 127.3 16.9 0h13.2z" class="st23"/><path class="st18" d="M371.2 352c-7.4 14.4-25.1 20.1-39.6 12.7l-1-.5c-14.4-7.4-20.1-25.1-12.7-39.6l.5-1c7.4-14.4 25.1-20.1 39.6-12.7l1 .5c14.4 7.4 20.1 25.1 12.7 39.6l-.5 1z"/><path class="st25" d="M371.6 322.6L53.2 4.2h318.4z"/><path class="st25" d="M-50 0h450v450H-50z"/></g></svg>