<svg version="1.1" id="Layer_1" width="38" height="76" xmlns="http://www.w3.org/2000/svg" xmlns:xlink="http://www.w3.org/1999/xlink" x="0" y="0" viewBox="0 0 38 76" xml:space="preserve"><style>.st1{fill:#9c0f0a}.st2{fill:#f33}.st3{fill:#fff}.st4{fill:#30a658}.st9{fill:#226d45}.st13{fill:#d8dde2}</style><defs><path id="SVGID_1_" d="M0 0h38v75.4H0z"/></defs><clipPath id="SVGID_2_"><use xlink:href="#SVGID_1_" overflow="visible"/></clipPath><g clip-path="url(#SVGID_2_)"><path class="st1" d="M24.1 56.1c0 1.9-1.5 3.3-3.3 3.3-4 0-7.7 1.9-10 5-1.5 2.1-2.5 4.6-2.5 7.4 0 .6-.3 1.2-.9 1.3s-1.2.3-1.9.2c-1.1-.1-2.2-.6-3.2-1.1-.3-.3-.6-.7-.6-1.2.1-3.8 1.5-7.4 3.6-10.4 3.5-4.8 9.1-7.9 15.4-7.9.4 0 .8.1 1.2.2 1.3.5 2.2 1.7 2.2 3.2z"/><path class="st1" d="M5 72.7c-.5 0-.9-.4-.9-.9 0-9.2 7.5-16.7 16.7-16.7.5 0 .9.4.9.9s-.4.9-.9.9C12.6 56.9 6 63.5 6 71.7c0 .5-.5 1-1 1z"/><path class="st2" d="M22.5 55.1c-.1 1.7-1.7 3.1-3.3 3.1-3.8 0-7.3 1.8-9.6 4.6-1.7 2.1-2.8 4.8-2.8 7.8 0 1.1-.5 2.1-1.3 2.7-1.3-.1-2.6-.5-3.7-1.4-.1-.1-.2-.1-.3-.2C.6 71 .2 69.9.3 68.8c.3-2.9 1.2-5.5 2.6-7.8 3.3-5.6 9.4-9.4 16.4-9.4 1.1 0 2.2.6 2.8 1.5.2.4.4 1.2.4 2z"/><path class="st3" d="M3.5 71.4c-.5 0-.9-.4-.9-.9-.1-9.2 7.4-16.7 16.6-16.7.5 0 .9.4.9.9s-.4.9-.9.9c-8.2 0-14.8 6.6-14.8 14.8 0 .6-.4 1-.9 1z"/><path class="st1" d="M14 56.1c0 1.9 1.5 3.3 3.3 3.3 4 0 7.7 1.9 10 5 1.5 2.1 2.5 4.6 2.5 7.4 0 .6.4 1.1 1 1.2.6.1 1.3.4 1.9.3 1.1-.1 2-.6 3-1.1.4-.3.7-.7.7-1.2-.1-3.8-1.5-7.4-3.6-10.4-3.5-4.8-9.1-7.9-15.4-7.9-.4 0-.8.1-1.2.2-1.4.5-2.2 1.7-2.2 3.2z"/><path class="st1" d="M33 72.7c.5 0 .9-.4.9-.9 0-9.2-7.5-16.7-16.7-16.7-.5 0-.9.4-.9.9s.4.9.9.9c8.2 0 14.8 6.6 14.8 14.8 0 .5.5 1 1 1z"/><path class="st2" d="M15.6 55.1c.1 1.7 1.7 3.1 3.3 3.1 3.8 0 7.3 1.8 9.6 4.6 1.7 2.1 2.8 4.8 2.8 7.8 0 1.1.5 2.1 1.3 2.7 1.3-.1 2.6-.5 3.7-1.4.1-.1.2-.1.3-.2.9-.7 1.3-1.8 1.2-2.9-.3-2.9-1.2-5.5-2.6-7.8-3.3-5.6-9.4-9.4-16.4-9.4-1.1 0-2.2.6-2.8 1.5-.3.4-.5 1.2-.4 2z"/><path class="st3" d="M34.5 71.4c.5 0 .9-.4.9-.9.1-9.2-7.4-16.7-16.7-16.7-.5 0-.9.4-.9.9s.4.9.9.9c8.2 0 14.8 6.6 14.8 14.8.1.6.5 1 1 1z"/><path class="st4" d="M8.7 53.3h20.6l-1.9 10.4H10.6L8.7 53.3z"/><path d="M19 53.9v18.6" fill="none" stroke="#f33" stroke-width="5.386" stroke-linecap="round" stroke-miterlimit="10"/><path d="M19 53.9v18.6" fill="none" stroke="#fff" stroke-width="1.557" stroke-linecap="round" stroke-miterlimit="10"/><path d="M27.4 49.3H10.6l3.1-1.6c.2-.1.4-.1.6-.1h9.6c.2 0 .4 0 .6.1l2.9 1.6z" fill="#a8e9a2"/><path d="M19 48.9c1.8 0 3.2-.2 3.2-.5s-1.4-.5-3.2-.5c-1.8 0-3.2.2-3.2.5s1.5.5 3.2.5z" opacity=".5" fill="#332f2e"/><path class="st3" d="M29.3 53.3H8.7l1.9-4h16.8l1.9 4z"/><path class="st9" d="M12 52.3c.6 0 1.1-.5 1.1-1.1s-.5-1.1-1.1-1.1c-.6 0-1.1.5-1.1 1.1s.5 1.1 1.1 1.1zM15.5 52.3c.6 0 1.1-.5 1.1-1.1s-.5-1.1-1.1-1.1c-.6 0-1.1.5-1.1 1.1s.5 1.1 1.1 1.1zM19 52.3c.6 0 1.1-.5 1.1-1.1s-.5-1.1-1.1-1.1-1.1.5-1.1 1.1.5 1.1 1.1 1.1zM22.5 52.3c.6 0 1.1-.5 1.1-1.1s-.5-1.1-1.1-1.1-1.1.5-1.1 1.1c-.1.6.4 1.1 1.1 1.1zM26 52.3c.6 0 1.1-.5 1.1-1.1s-.5-1.1-1.1-1.1-1.1.5-1.1 1.1.5 1.1 1.1 1.1z"/><path d="M26.5 48.9h-15l-.8-14h16.6l-.8 14z" fill="#bdf7b7"/><path class="st2" d="M14 46.1c.8 0 1.4-1.9 1.4-4.2s-.6-4.2-1.4-4.2c-.8 0-1.4 1.9-1.4 4.2 0 2.4.6 4.2 1.4 4.2zM19 46.1c.8 0 1.4-1.9 1.4-4.2s-.6-4.2-1.4-4.2c-.8 0-1.4 1.9-1.4 4.2s.6 4.2 1.4 4.2zM24 46.1c.8 0 1.4-1.9 1.4-4.2s-.6-4.2-1.4-4.2c-.8 0-1.4 1.9-1.4 4.2s.6 4.2 1.4 4.2z"/><path d="M9.8 18.9h18.4L25 22.1c-.2.2-.6.4-1 .4h-9.9c-.4 0-.7-.1-1-.4l-3.3-3.2z" fill="#b71c1c"/><path class="st1" d="M19 22.1c2.1 0 3.8-.6 3.8-1.4 0-.8-1.7-1.4-3.8-1.4s-3.8.6-3.8 1.4c0 .7 1.7 1.4 3.8 1.4z"/><path d="M19 21.6c1.5 0 2.7-.4 2.7-.9s-1.2-.9-2.7-.9-2.7.4-2.7.9 1.2.9 2.7.9z" fill="#332f2e"/><path class="st2" d="M28.2 18.9H9.8l1.7-9.3h15l1.7 9.3z"/><path class="st2" d="M28.2 18.9H9.8l1.1-6.1.6-3.2h15l.6 3.2 1.1 6.1z"/><path class="st3" d="M19.1 9.6h-7.5l4.6-8c1.2-2.2 4.4-2.2 5.6 0l4.7 8h-7.4zM27.1 12.8H11l.2-1.5.3-1.7h15v.1l.3 1.9.3 1.2z"/><path class="st2" d="M14.3 9.6l-2.4 3.2H11l.2-1.5 1.3-1.7h1.8zM17.7 9.6l-2.4 3.2h-1.7L16 9.6h1.7zM21.3 9.6l-2.4 3.2h-1.8l2.4-3.2h1.8zM24.8 9.6l-2.4 3.2h-1.7L23 9.6h1.8zM26.8 11.6l-.8 1.2h-1.7l2.3-3.1.2 1.9z"/><path class="st13" d="M34.9 31.8h-7.5l.7-12.8 9 8.4c1.7 1.5.7 4.4-1.6 4.4h-.6z"/><path class="st13" d="M38 29.4l-.4 3.2-1.6-3.4 2 .2zM3.2 31.8h7.5l-.8-12.9-9 8.4c-1.7 1.5-.7 4.4 1.6 4.4h.7v.1z"/><path class="st3" d="M34.5 34.9H27l.7-12.8 9 8.4c1.7 1.5.7 4.4-1.6 4.4h-.6z"/><path class="st13" d="M0 29.4l.4 3.2L2 29.2l-2 .2z"/><path class="st3" d="M3.5 34.9H11l-.7-12.8-9 8.4c-1.7 1.5-.7 4.4 1.6 4.4h.6z"/><path class="st4" d="M27.3 34.9H10.7l-.8-16h18.2l-.8 16z"/><path class="st3" d="M19 33c3.4 0 6.1-2.7 6.1-6.1s-2.7-6.1-6.1-6.1-6.1 2.7-6.1 6.1S15.6 33 19 33z"/><path class="st2" d="M19 30c1.7 0 3.1-1.4 3.1-3.1 0-1.7-1.4-3.1-3.1-3.1-1.7 0-3.1 1.4-3.1 3.1 0 1.7 1.4 3.1 3.1 3.1z"/></g></svg>