<svg id="Layer_1" xmlns="http://www.w3.org/2000/svg" viewBox="0 0 400 600"><style>.st0{fill:none;stroke:#32a558;stroke-width:5.3795;stroke-linecap:round;stroke-miterlimit:10}.st1{fill:#ffe14d}.st2{fill:#fff}.st3{fill:#5d4037}.st4{fill:#999}.st5{fill:#795548}.st6{fill:#32a558}.st7{fill:#332e2e}.st8{fill:#f9ce1d}.st9{opacity:.2;enable-background:new}.st10{fill:#f5a816}.st11{fill:#777}.st12{fill:#4527a0}.st13{fill:#7e57c2}.st14{fill:#37474f}.st15{fill:#607d8b}.st16{fill:#5e35b1}.st17{fill:#ab47bc}.st18{fill:#ef6c00}.st19{fill:#ad1457}.st20{fill:#ec407a}.st21{fill:#ffe18c}.st22{fill:#584539}.st23{fill:none;stroke:#fff;stroke-width:4;stroke-linecap:round;stroke-miterlimit:10}.st24{fill:#eee}.st25{fill:#424242}.st26{fill:#81d4fa}.st27{fill:#bdbdbd}.st28{fill:#e53935}.st29{fill:none;stroke:#eee;stroke-width:4.2942;stroke-linecap:round;stroke-miterlimit:10}.st30{display:none}.st31,.st32{display:inline;fill:#f9c}.st32{fill:#c9c}.st33{fill:none}.st34{fill:#dddfe0}.st35{fill:#ffe200}.st36{fill:#58595b}.st37{fill:#d4e157}.st38{fill:#9ccc65}.st39{fill:#ef5350}.st40{opacity:.1;enable-background:new}.st41{fill:#7cb342}.st43{fill:none}.st43,.st44{display:inline}.st45{font-family:&apos;ArialMT&apos;}.st46{font-size:12px}.st48{fill:#8e24aa}</style><path class="st0" d="M113.2 70.8c-11.1 4.2-9.3 14.2 5.7 19.5"/><circle class="st1" cx="120.1" cy="90.8" r="5.7"/><path class="st2" d="M117.3 81.8c-1.4-.5-2.9.2-3.4 1.6l-3.3 9.1c-.5 1.4.2 2.9 1.6 3.4s2.9-.2 3.4-1.6l3.3-9.1c.5-1.4-.2-2.9-1.6-3.4z"/><path class="st3" d="M95.6 45.3L116 68.7l-20.4-6.6V45.3z"/><path class="st4" d="M119 89.7c-.4 0-.8-.2-1-.6L80.2 21.9c-.3-.6-.1-1.3.5-1.6.6-.3 1.3-.1 1.6.5L120 87.9c.3.6.1 1.3-.5 1.6-.1.2-.3.2-.5.2z"/><path class="st5" d="M110.7 83.8c-.8 0-1.5-.4-1.9-1.2-.5-1-.1-2.3 1-2.8 3.8-1.9 4.9-5.6 4.2-8.4-.7-3-3.7-6.3-10-6.3-1.2 0-2.1-.9-2.1-2.1s.9-2.1 2.1-2.1c8.8 0 13 4.9 14.1 9.5 1.2 5.3-1.4 10.7-6.4 13.1-.4.3-.7.3-1 .3z"/><path class="st6" d="M84 68.2v9.4l29.8-4.7z"/><path class="st6" d="M116.5 72.9c0-6.3-5.1-11.5-11.5-11.5H89.4c-6.3 0-11.5 5.1-11.5 11.5 0 6.3 5.1 11.5 11.5 11.5H105c6.4 0 11.5-5.1 11.5-11.5z"/><path class="st0" d="M84 73H62.8"/><path class="st7" d="M60.1 85c-2.9 0-5.2-2.3-5.2-5.2 0-2.2 1.8-4 4-4h3.9v-5.4H51.1c-.7 0-1.3.6-1.3 1.3v13.1c0 2.8 2.2 5.2 5 5.3 2.9.2 5.3-2.2 5.3-5.1z"/><path class="st8" d="M57.6 75.7v-2c0-.7.6-1.3 1.3-1.3s1.3.6 1.3 1.3v2c0 .7-.6 1.3-1.3 1.3-.7.1-1.3-.5-1.3-1.3z"/><path class="st7" d="M91.4 61.4h5.7v22.9h-5.7z"/><path class="st5" d="M89.7 61.5h1.7v22.9h-1.7z"/><path class="st8" d="M91.5 81.6h5.7v2.9h-5.7z"/><path class="st5" d="M104.7 83.8c-.8 0-1.5-.4-1.9-1.2-.5-1-.1-2.3 1-2.8 3.8-1.9 4.9-5.6 4.2-8.4-.7-3-3.7-6.3-10-6.3-1.2 0-2.1-.9-2.1-2.1s.9-2.1 2.1-2.1c8.8 0 13 4.9 14.1 9.5 1.2 5.3-1.4 10.7-6.4 13.1-.4.3-.7.3-1 .3z"/><path class="st0" d="M108.2 70.8C97.1 75 98.9 85 113.9 90.3"/><circle class="st1" cx="115.1" cy="90.8" r="5.7"/><path class="st2" d="M112.3 81.8c-1.4-.5-2.9.2-3.4 1.6l-3.3 9.1c-.5 1.4.2 2.9 1.6 3.4s2.9-.2 3.4-1.6l3.3-9.1c.5-1.4-.2-2.9-1.6-3.4z"/><path class="st9" d="M86.4 69.5H102c6.2 0 11.3 5 11.5 11.2 1.9-2 3-4.7 3-7.7 0-6.3-5.1-11.5-11.5-11.5H89.4c-6.3 0-11.5 5.1-11.5 11.5v.3c2.2-2.4 5.2-3.8 8.5-3.8z"/><path class="st10" d="M66.2 32.7l-30.6-21 151.6 2.1c1.5 0 1.6 2.2.1 2.4L66.2 32.7z"/><path class="st5" d="M71.9 65.1c-22.1 0-30.3-6.4-30.3-14.4s8.6-14.4 30.3-14.4h2.3c1.9 0-.4 5-.1 7.7.9 8.4 11.2 21.1-2.2 21.1z"/><path class="st9" d="M45.2 53.7c0-8.9 7.7-15.2 29.1-15.3 0-.7.5-2.1-.1-2.1h-2.3c-21.8 0-30.3 6.4-30.3 14.4 0 3.5 1.6 6.6 5.1 9.1-1-1.9-1.5-3.9-1.5-6.1z"/><path class="st11" d="M155.6 15.3c-.7 0-1.2-.5-1.2-1.2v-3.6c0-.7.5-1.2 1.2-1.2s1.2.5 1.2 1.2v3.6c0 .7-.5 1.2-1.2 1.2z"/><path class="st11" d="M155.6 11.7c-.7 0-1.2-.5-1.2-1.2 0-1.3-1.1-2.4-2.4-2.4-.7 0-1.2-.5-1.2-1.2s.5-1.2 1.2-1.2c2.6 0 4.8 2.2 4.8 4.8 0 .7-.5 1.2-1.2 1.2zM146 8.1c-2.6 0-4.8-2.2-4.8-4.8 0-.7.5-1.2 1.2-1.2s1.2.5 1.2 1.2c0 1.3 1.1 2.4 2.4 2.4.7 0 1.2.5 1.2 1.2s-.5 1.2-1.2 1.2z"/><path class="st11" d="M151.4 8.1c-2.6 0-4.8-2.2-4.8-4.8 0-.7.5-1.2 1.2-1.2s1.2.5 1.2 1.2c0 1.3 1.1 2.4 2.4 2.4.7 0 1.2.5 1.2 1.2s-.5 1.2-1.2 1.2z"/><path class="st11" d="M152 8.1h-6c-.7 0-1.2-.5-1.2-1.2s.5-1.2 1.2-1.2h6c.7 0 1.2.5 1.2 1.2s-.5 1.2-1.2 1.2z"/><path class="st5" d="M88.5 38.4c2.2 2.5-2.5 4.4-4.9 6.1-2.4 1.6-6.9-.5-8.8-3.2s-1.4-6.3 1-7.9c2.4-1.7 7.5-1 12.7 5z"/><path class="st3" d="M86.6 38.6c1.9 2.7-.9 4.9-2.9 6.3-2.1 1.4-5.2.3-7.1-2.4s-1.7-6.1.3-7.5c2.8-2 7.8.8 9.7 3.6z"/><ellipse transform="rotate(-34.31 96.518 59.593)" class="st3" cx="96.5" cy="59.6" rx="4.5" ry="6"/><path class="st12" d="M83.6 37.5h13.8v17.4H83.6V37.5z"/><path class="st13" d="M88.4 37.5h4.7v17.4h-4.7V37.5zm-13.2-1.8h9.6v10.8h-9.6V35.7z"/><path class="st14" d="M90.8 44.1h9v9h-9v-9z"/><path class="st15" d="M93.2 44.1H95v9h-1.8v-9z"/><path class="st16" d="M80 40.5h13.2v13.2H80V40.5z"/><path class="st17" d="M80 45.9h13.2v2.4H80v-2.4z"/><path class="st17" d="M85.4 40.5h2.4v13.2h-2.4V40.5z"/><path class="st18" d="M85.4 51.9h9v9h-9v-9z"/><path class="st10" d="M89 51.9h1.8v9H89v-9z"/><path class="st10" d="M85.4 55.5h9v1.8h-9v-1.8z"/><path class="st19" d="M94.4 53.1h9v9h-9v-9z"/><path class="st20" d="M98 53.1h1.8v9H98v-9z"/><path class="st21" d="M122.2 61.1l-5.6-8.1s-2.1 12.5 4.7 11l.9-2.9z"/><circle class="st22" cx="125.9" cy="65.8" r="11.6"/><path class="st22" d="M144.5 68.7l-10.1-3-2.5 4.5h12c1.7.1 1.7-1.5.6-1.5z"/><path class="st6" d="M125.1 52.3l-22.6-1.1s10.5 3.3 10.4 13.4c0 3 1 5.7 2.8 7.7 4.1-.2 9.8-1.6 9.9-7.9s4.4-7.8 8.8-7.6c-2.2-2.5-5.7-4.5-9.3-4.5z"/><path class="st9" d="M116.8 64.7c.2-10.1-14.3-13.4-14.3-13.4s10.5 3.3 10.4 13.4c0 3 1 5.7 2.8 7.7 1.3-.1 2.8-.2 4.3-.8-2-1.9-3.2-4.2-3.2-6.9z"/><path class="st23" d="M115.7 71.4c4.1-.2 9.8-1.6 9.9-7.9s4.4-7.8 8.8-7.6"/><circle class="st24" cx="102.5" cy="51.3" r="3.2"/><path class="st25" d="M112.2 62H138v3.2h-25.8V62z"/><ellipse class="st26" cx="133" cy="63.8" rx="2.6" ry="4.5"/><path class="st25" d="M133 69.1c-1.8 0-3.3-2.4-3.3-5.3s1.5-5.3 3.3-5.3 3.3 2.4 3.3 5.3-1.4 5.3-3.3 5.3zm0-9c-.9 0-1.8 1.6-1.8 3.8 0 2.1 1 3.8 1.8 3.8.9 0 1.8-1.6 1.8-3.8.1-2.2-.9-3.8-1.8-3.8z"/><path class="st20" d="M94.4 56.7h9v1.8h-9v-1.8z"/><path class="st5" d="M73.3 38.4l22.3 23.1 2.4 3.6H72.2l1.1-26.7z"/><path class="st27" d="M116 90.9c-.4 0-.8-.2-1.1-.6L78.3 21.9c-.3-.6-.1-1.3.5-1.6.6-.3 1.3-.1 1.6.5L117 89.2c.3.6.1 1.3-.5 1.6-.1.1-.3.1-.5.1z"/><path class="st4" d="M79.4 22.2c-.4 0-.8-.3-.9-.7L74.9 2.9c-.1-.5.2-1 .7-1.1s1 .2 1.1.7l3.6 18.6c.1.5-.2 1-.7 1.1h-.2z"/><path class="st8" d="M8 32.7l27.6-21 151.9 2c1.5 0 1.6 2.2.1 2.4L8 32.7z"/><ellipse class="st26" cx="165.8" cy="11.7" rx="2.4" ry="4.2"/><path class="st25" d="M165.8 16.6c-1.7 0-3.1-2.2-3.1-4.9s1.4-4.9 3.1-4.9c1.7 0 3.1 2.2 3.1 4.9s-1.4 4.9-3.1 4.9zm0-8.4c-.8 0-1.7 1.5-1.7 3.5s.9 3.5 1.7 3.5 1.7-1.5 1.7-3.5-.9-3.5-1.7-3.5z"/><circle class="st28" cx="187.4" cy="14.7" r="3.6"/><path class="st4" d="M153.2 15.3c-.7 0-1.2-.5-1.2-1.2v-3.6c0-.7.5-1.2 1.2-1.2s1.2.5 1.2 1.2v3.6c0 .7-.5 1.2-1.2 1.2z"/><path class="st4" d="M153.2 11.7c-.7 0-1.2-.5-1.2-1.2 0-1.3-1.1-2.4-2.4-2.4-.7 0-1.2-.5-1.2-1.2s.5-1.2 1.2-1.2c2.6 0 4.8 2.2 4.8 4.8 0 .7-.5 1.2-1.2 1.2zm-9.6-3.6c-2.6 0-4.8-2.2-4.8-4.8 0-.7.5-1.2 1.2-1.2s1.2.5 1.2 1.2c0 1.3 1.1 2.4 2.4 2.4.7 0 1.2.5 1.2 1.2s-.5 1.2-1.2 1.2z"/><path class="st4" d="M149 8.1c-2.6 0-4.8-2.2-4.8-4.8 0-.7.5-1.2 1.2-1.2s1.2.5 1.2 1.2c0 1.3 1.1 2.4 2.4 2.4.7 0 1.2.5 1.2 1.2s-.5 1.2-1.2 1.2z"/><path class="st4" d="M149.6 8.1h-6c-.7 0-1.2-.5-1.2-1.2s.5-1.2 1.2-1.2h6c.7 0 1.2.5 1.2 1.2s-.5 1.2-1.2 1.2z"/><path class="st0" d="M113.2 170.8c-11.1 4.2-9.3 14.2 5.7 19.5"/><circle class="st1" cx="120.1" cy="190.8" r="5.7"/><path class="st2" d="M117.3 181.8c-1.4-.5-2.9.2-3.4 1.6l-3.3 9.1c-.5 1.4.2 2.9 1.6 3.4s2.9-.2 3.4-1.6l3.3-9.1c.5-1.4-.2-2.9-1.6-3.4z"/><path class="st3" d="M95.6 145.3l20.4 23.4-20.4-6.6v-16.8z"/><path class="st4" d="M119 189.7c-.4 0-.8-.2-1-.6l-37.8-67.2c-.3-.6-.1-1.3.5-1.6.6-.3 1.3-.1 1.6.5l37.7 67.1c.3.6.1 1.3-.5 1.6-.1.2-.3.2-.5.2z"/><path class="st5" d="M110.7 183.8c-.8 0-1.5-.4-1.9-1.2-.5-1-.1-2.3 1-2.8 3.8-1.9 4.9-5.6 4.2-8.4-.7-3-3.7-6.3-10-6.3-1.2 0-2.1-.9-2.1-2.1s.9-2.1 2.1-2.1c8.8 0 13 4.9 14.1 9.5 1.2 5.3-1.4 10.7-6.4 13.1-.4.3-.7.3-1 .3z"/><path class="st6" d="M84 168.2v9.4l29.8-4.7z"/><path class="st6" d="M116.5 172.9c0-6.3-5.1-11.5-11.5-11.5H89.4c-6.3 0-11.5 5.1-11.5 11.5 0 6.3 5.1 11.5 11.5 11.5H105c6.4 0 11.5-5.1 11.5-11.5z"/><path class="st0" d="M84 173H62.8"/><path class="st7" d="M60.1 185c-2.9 0-5.2-2.3-5.2-5.2 0-2.2 1.8-4 4-4h3.9v-5.4H51.1c-.7 0-1.3.6-1.3 1.3v13.1c0 2.8 2.2 5.2 5 5.3 2.9.2 5.3-2.2 5.3-5.1z"/><path class="st8" d="M57.6 175.7v-2c0-.7.6-1.3 1.3-1.3s1.3.6 1.3 1.3v2c0 .7-.6 1.3-1.3 1.3-.7.1-1.3-.5-1.3-1.3z"/><path class="st7" d="M91.4 161.4h5.7v22.9h-5.7z"/><path class="st5" d="M89.7 161.5h1.7v22.9h-1.7z"/><path class="st8" d="M91.5 181.6h5.7v2.9h-5.7z"/><path class="st5" d="M104.7 183.8c-.8 0-1.5-.4-1.9-1.2-.5-1-.1-2.3 1-2.8 3.8-1.9 4.9-5.6 4.2-8.4-.7-3-3.7-6.3-10-6.3-1.2 0-2.1-.9-2.1-2.1s.9-2.1 2.1-2.1c8.8 0 13 4.9 14.1 9.5 1.2 5.3-1.4 10.7-6.4 13.1-.4.3-.7.3-1 .3z"/><path class="st0" d="M108.2 170.8c-11.1 4.2-9.3 14.2 5.7 19.5"/><circle class="st1" cx="115.1" cy="190.8" r="5.7"/><path class="st2" d="M112.3 181.8c-1.4-.5-2.9.2-3.4 1.6l-3.3 9.1c-.5 1.4.2 2.9 1.6 3.4s2.9-.2 3.4-1.6l3.3-9.1c.5-1.4-.2-2.9-1.6-3.4z"/><path class="st9" d="M86.4 169.5H102c6.2 0 11.3 5 11.5 11.2 1.9-2 3-4.7 3-7.7 0-6.3-5.1-11.5-11.5-11.5H89.4c-6.3 0-11.5 5.1-11.5 11.5v.3c2.2-2.4 5.2-3.8 8.5-3.8z"/><path class="st10" d="M66.2 132.7l-30.6-21 151.6 2.1c1.5 0 1.6 2.2.1 2.4L66.2 132.7z"/><path class="st5" d="M71.9 165.1c-22.1 0-30.3-6.4-30.3-14.4s8.6-14.4 30.3-14.4h2.3c1.9 0-.4 5-.1 7.7.9 8.4 11.2 21.1-2.2 21.1z"/><path class="st9" d="M45.2 153.7c0-8.9 7.7-15.2 29.1-15.3 0-.7.5-2.1-.1-2.1h-2.3c-21.8 0-30.3 6.4-30.3 14.4 0 3.5 1.6 6.6 5.1 9.1-1-1.9-1.5-3.9-1.5-6.1z"/><path class="st11" d="M155.6 115.3c-.7 0-1.2-.5-1.2-1.2v-3.6c0-.7.5-1.2 1.2-1.2s1.2.5 1.2 1.2v3.6c0 .7-.5 1.2-1.2 1.2z"/><path class="st11" d="M155.6 111.7c-.7 0-1.2-.5-1.2-1.2 0-1.3-1.1-2.4-2.4-2.4-.7 0-1.2-.5-1.2-1.2s.5-1.2 1.2-1.2c2.6 0 4.8 2.2 4.8 4.8 0 .7-.5 1.2-1.2 1.2zm-9.6-3.6c-2.6 0-4.8-2.2-4.8-4.8 0-.7.5-1.2 1.2-1.2s1.2.5 1.2 1.2c0 1.3 1.1 2.4 2.4 2.4.7 0 1.2.5 1.2 1.2s-.5 1.2-1.2 1.2z"/><path class="st11" d="M151.4 108.1c-2.6 0-4.8-2.2-4.8-4.8 0-.7.5-1.2 1.2-1.2s1.2.5 1.2 1.2c0 1.3 1.1 2.4 2.4 2.4.7 0 1.2.5 1.2 1.2s-.5 1.2-1.2 1.2z"/><path class="st11" d="M152 108.1h-6c-.7 0-1.2-.5-1.2-1.2s.5-1.2 1.2-1.2h6c.7 0 1.2.5 1.2 1.2s-.5 1.2-1.2 1.2z"/><path class="st5" d="M88.5 138.4c2.2 2.5-2.5 4.4-4.9 6.1-2.4 1.6-6.9-.5-8.8-3.2s-1.4-6.3 1-7.9c2.4-1.7 7.5-1 12.7 5z"/><path class="st3" d="M86.6 138.6c1.9 2.7-.9 4.9-2.9 6.3-2.1 1.4-5.2.3-7.1-2.4s-1.7-6.1.3-7.5c2.8-2 7.8.8 9.7 3.6z"/><ellipse transform="rotate(-34.31 96.524 159.592)" class="st3" cx="96.5" cy="159.6" rx="4.5" ry="6"/><path class="st12" d="M83.6 137.5h13.8v17.4H83.6v-17.4z"/><path class="st13" d="M88.4 137.5h4.7v17.4h-4.7v-17.4zm-13.2-1.8h9.6v10.8h-9.6v-10.8z"/><path class="st14" d="M90.8 144.1h9v9h-9v-9z"/><path class="st15" d="M93.2 144.1H95v9h-1.8v-9z"/><path class="st16" d="M80 140.5h13.2v13.2H80v-13.2z"/><path class="st17" d="M80 145.9h13.2v2.4H80v-2.4z"/><path class="st17" d="M85.4 140.5h2.4v13.2h-2.4v-13.2z"/><path class="st18" d="M85.4 151.9h9v9h-9v-9z"/><path class="st10" d="M89 151.9h1.8v9H89v-9z"/><path class="st10" d="M85.4 155.5h9v1.8h-9v-1.8z"/><path class="st19" d="M94.4 153.1h9v9h-9v-9z"/><path class="st20" d="M98 153.1h1.8v9H98v-9z"/><path class="st21" d="M122.2 161.1l-5.6-8.1s-2.1 12.5 4.7 11l.9-2.9z"/><circle class="st22" cx="125.9" cy="165.8" r="11.6"/><path class="st22" d="M144.5 168.7l-10.1-3-2.5 4.5h12c1.7.1 1.7-1.5.6-1.5z"/><path class="st6" d="M125.1 152.3l-22.6-.1s10.5 2.3 10.4 12.4c0 3 1 5.7 2.8 7.7 4.1-.2 9.8-1.6 9.9-7.9.1-6.3 4.4-7.8 8.8-7.6-2.2-2.5-5.7-4.5-9.3-4.5z"/><path class="st9" d="M116.8 164.7c.2-10.1-14.3-12.4-14.3-12.4s10.5 2.3 10.4 12.4c0 3 1 5.7 2.8 7.7 1.3-.1 2.8-.2 4.3-.8-2-1.9-3.2-4.2-3.2-6.9z"/><path class="st23" d="M115.7 171.4c4.1-.2 9.8-1.6 9.9-7.9s4.4-7.8 8.8-7.6"/><circle class="st24" cx="102.5" cy="152.3" r="3.2"/><path class="st25" d="M112.2 162H138v3.2h-25.8V162z"/><ellipse class="st26" cx="133" cy="163.8" rx="2.6" ry="4.5"/><path class="st25" d="M133 169.1c-1.8 0-3.3-2.4-3.3-5.3s1.5-5.3 3.3-5.3 3.3 2.4 3.3 5.3c.1 2.9-1.4 5.3-3.3 5.3zm0-9c-.9 0-1.8 1.6-1.8 3.8s1 3.8 1.8 3.8c.9 0 1.8-1.6 1.8-3.8s-.9-3.8-1.8-3.8z"/><path class="st20" d="M94.4 156.7h9v1.8h-9v-1.8z"/><path class="st5" d="M73.3 138.4l22.3 23.1 2.4 3.6H72.2l1.1-26.7z"/><path class="st27" d="M116 190.9c-.4 0-.8-.2-1.1-.6l-36.6-68.4c-.3-.6-.1-1.3.5-1.6.6-.3 1.3-.1 1.6.5l36.6 68.4c.3.6.1 1.3-.5 1.6-.1.1-.3.1-.5.1z"/><path class="st4" d="M79.4 122.2c-.4 0-.8-.3-.9-.7l-3.6-18.6c-.1-.5.2-1 .7-1.1s1 .2 1.1.7l3.6 18.6c.1.5-.2 1-.7 1.1h-.2z"/><path class="st8" d="M8 132.7l27.6-21 151.9 2c1.5 0 1.6 2.2.1 2.4L8 132.7z"/><ellipse class="st26" cx="165.8" cy="111.7" rx="2.4" ry="4.2"/><path class="st25" d="M165.8 116.6c-1.7 0-3.1-2.2-3.1-4.9s1.4-4.9 3.1-4.9c1.7 0 3.1 2.2 3.1 4.9s-1.4 4.9-3.1 4.9zm0-8.4c-.8 0-1.7 1.5-1.7 3.5s.9 3.5 1.7 3.5 1.7-1.5 1.7-3.5-.9-3.5-1.7-3.5z"/><circle class="st28" cx="187.4" cy="114.7" r="3.6"/><path class="st4" d="M153.2 115.3c-.7 0-1.2-.5-1.2-1.2v-3.6c0-.7.5-1.2 1.2-1.2s1.2.5 1.2 1.2v3.6c0 .7-.5 1.2-1.2 1.2z"/><path class="st4" d="M153.2 111.7c-.7 0-1.2-.5-1.2-1.2 0-1.3-1.1-2.4-2.4-2.4-.7 0-1.2-.5-1.2-1.2s.5-1.2 1.2-1.2c2.6 0 4.8 2.2 4.8 4.8 0 .7-.5 1.2-1.2 1.2zm-9.6-3.6c-2.6 0-4.8-2.2-4.8-4.8 0-.7.5-1.2 1.2-1.2s1.2.5 1.2 1.2c0 1.3 1.1 2.4 2.4 2.4.7 0 1.2.5 1.2 1.2s-.5 1.2-1.2 1.2z"/><path class="st4" d="M149 108.1c-2.6 0-4.8-2.2-4.8-4.8 0-.7.5-1.2 1.2-1.2s1.2.5 1.2 1.2c0 1.3 1.1 2.4 2.4 2.4.7 0 1.2.5 1.2 1.2s-.5 1.2-1.2 1.2z"/><path class="st4" d="M149.6 108.1h-6c-.7 0-1.2-.5-1.2-1.2s.5-1.2 1.2-1.2h6c.7 0 1.2.5 1.2 1.2s-.5 1.2-1.2 1.2z"/><g><path class="st0" d="M113.2 270.8c-11.1 4.2-9.3 14.2 5.7 19.5"/><circle class="st1" cx="120.1" cy="290.8" r="5.7"/><path class="st2" d="M117.3 281.8c-1.4-.5-2.9.2-3.4 1.6l-3.3 9.1c-.5 1.4.2 2.9 1.6 3.4s2.9-.2 3.4-1.6l3.3-9.1c.5-1.4-.2-2.9-1.6-3.4z"/><path class="st3" d="M95.6 245.3l20.4 23.4-20.4-6.6v-16.8z"/><path class="st4" d="M119 289.7c-.4 0-.8-.2-1-.6l-37.8-67.2c-.3-.6-.1-1.3.5-1.6s1.3-.1 1.6.5l37.7 67.1c.3.6.1 1.3-.5 1.6-.1.2-.3.2-.5.2z"/><path class="st5" d="M110.7 283.8c-.8 0-1.5-.4-1.9-1.2-.5-1-.1-2.3 1-2.8 3.8-1.9 4.9-5.6 4.2-8.4-.7-3-3.7-6.3-10-6.3-1.2 0-2.1-.9-2.1-2.1s.9-2.1 2.1-2.1c8.8 0 13 4.9 14.1 9.5 1.2 5.3-1.4 10.7-6.4 13.1-.4.3-.7.3-1 .3z"/><path class="st6" d="M84 268.2v9.4l29.8-4.7z"/><path class="st6" d="M116.5 272.9c0-6.3-5.1-11.5-11.5-11.5H89.4c-6.3 0-11.5 5.1-11.5 11.5 0 6.3 5.1 11.5 11.5 11.5H105c6.4 0 11.5-5.1 11.5-11.5z"/><path class="st0" d="M84 273H62.8"/><path class="st7" d="M60.1 285c-2.9 0-5.2-2.3-5.2-5.2 0-2.2 1.8-4 4-4h3.9v-5.4H51.1c-.7 0-1.3.6-1.3 1.3v13.1c0 2.8 2.2 5.2 5 5.3 2.9.2 5.3-2.2 5.3-5.1z"/><path class="st8" d="M57.6 275.7v-2c0-.7.6-1.3 1.3-1.3s1.3.6 1.3 1.3v2c0 .7-.6 1.3-1.3 1.3-.7.1-1.3-.5-1.3-1.3z"/><path class="st7" d="M91.4 261.4h5.7v22.9h-5.7z"/><path class="st5" d="M89.7 261.5h1.7v22.9h-1.7z"/><path class="st8" d="M91.5 281.6h5.7v2.9h-5.7z"/><path class="st5" d="M104.7 283.8c-.8 0-1.5-.4-1.9-1.2-.5-1-.1-2.3 1-2.8 3.8-1.9 4.9-5.6 4.2-8.4-.7-3-3.7-6.3-10-6.3-1.2 0-2.1-.9-2.1-2.1s.9-2.1 2.1-2.1c8.8 0 13 4.9 14.1 9.5 1.2 5.3-1.4 10.7-6.4 13.1-.4.3-.7.3-1 .3z"/><path class="st0" d="M108.2 270.8c-11.1 4.2-9.3 14.2 5.7 19.5"/><circle class="st1" cx="115.1" cy="290.8" r="5.7"/><path class="st2" d="M112.3 281.8c-1.4-.5-2.9.2-3.4 1.6l-3.3 9.1c-.5 1.4.2 2.9 1.6 3.4s2.9-.2 3.4-1.6l3.3-9.1c.5-1.4-.2-2.9-1.6-3.4z"/><path class="st9" d="M86.4 269.5H102c6.2 0 11.3 5 11.5 11.2 1.9-2 3-4.7 3-7.7 0-6.3-5.1-11.5-11.5-11.5H89.4c-6.3 0-11.5 5.1-11.5 11.5v.3c2.2-2.4 5.2-3.8 8.5-3.8z"/><path class="st10" d="M66.2 232.7l-30.6-21 151.6 2.1c1.5 0 1.6 2.2.1 2.4L66.2 232.7z"/><path class="st5" d="M71.9 265.1c-22.1 0-30.3-6.4-30.3-14.4s8.6-14.4 30.3-14.4h2.3c1.9 0-.4 5-.1 7.7.9 8.4 11.2 21.1-2.2 21.1z"/><path class="st9" d="M45.2 253.7c0-8.9 7.7-15.2 29.1-15.3 0-.7.5-2.1-.1-2.1h-2.3c-21.8 0-30.3 6.4-30.3 14.4 0 3.5 1.6 6.6 5.1 9.1-1-1.9-1.5-3.9-1.5-6.1z"/><path class="st11" d="M155.6 215.3c-.7 0-1.2-.5-1.2-1.2v-3.6c0-.7.5-1.2 1.2-1.2s1.2.5 1.2 1.2v3.6c0 .7-.5 1.2-1.2 1.2z"/><path class="st11" d="M155.6 211.7c-.7 0-1.2-.5-1.2-1.2 0-1.3-1.1-2.4-2.4-2.4-.7 0-1.2-.5-1.2-1.2s.5-1.2 1.2-1.2c2.6 0 4.8 2.2 4.8 4.8 0 .7-.5 1.2-1.2 1.2zm-9.6-3.6c-2.6 0-4.8-2.2-4.8-4.8 0-.7.5-1.2 1.2-1.2s1.2.5 1.2 1.2c0 1.3 1.1 2.4 2.4 2.4.7 0 1.2.5 1.2 1.2s-.5 1.2-1.2 1.2z"/><path class="st11" d="M151.4 208.1c-2.6 0-4.8-2.2-4.8-4.8 0-.7.5-1.2 1.2-1.2s1.2.5 1.2 1.2c0 1.3 1.1 2.4 2.4 2.4.7 0 1.2.5 1.2 1.2s-.5 1.2-1.2 1.2z"/><path class="st11" d="M152 208.1h-6c-.7 0-1.2-.5-1.2-1.2s.5-1.2 1.2-1.2h6c.7 0 1.2.5 1.2 1.2s-.5 1.2-1.2 1.2z"/><path class="st5" d="M88.5 238.4c2.2 2.5-2.5 4.4-4.9 6.1-2.4 1.6-6.9-.5-8.8-3.2s-1.4-6.3 1-7.9c2.4-1.7 7.5-1 12.7 5z"/><path class="st3" d="M86.6 238.6c1.9 2.7-.9 4.9-2.9 6.3-2.1 1.4-5.2.3-7.1-2.4s-1.7-6.1.3-7.5c2.8-2 7.8.8 9.7 3.6z"/><ellipse transform="rotate(-34.31 96.53 259.591)" class="st3" cx="96.5" cy="259.6" rx="4.5" ry="6"/><path class="st12" d="M83.6 237.5h13.8v17.4H83.6v-17.4z"/><path class="st13" d="M88.4 237.5h4.7v17.4h-4.7v-17.4zm-13.2-1.8h9.6v10.8h-9.6v-10.8z"/><path class="st14" d="M90.8 244.1h9v9h-9v-9z"/><path class="st15" d="M93.2 244.1H95v9h-1.8v-9z"/><path class="st16" d="M80 240.5h13.2v13.2H80v-13.2z"/><path class="st17" d="M80 245.9h13.2v2.4H80v-2.4z"/><path class="st17" d="M85.4 240.5h2.4v13.2h-2.4v-13.2z"/><path class="st18" d="M85.4 251.9h9v9h-9v-9z"/><path class="st10" d="M89 251.9h1.8v9H89v-9z"/><path class="st10" d="M85.4 255.5h9v1.8h-9v-1.8z"/><path class="st19" d="M94.4 253.1h9v9h-9v-9z"/><path class="st20" d="M98 253.1h1.8v9H98v-9z"/><path class="st21" d="M122.2 261.1l-5.6-8.1s-2.1 12.5 4.7 11l.9-2.9z"/><circle class="st22" cx="125.9" cy="265.8" r="11.6"/><path class="st22" d="M144.5 268.7l-10.1-3-2.5 4.5h12c1.7.1 1.7-1.5.6-1.5z"/><path class="st6" d="M125.1 252.3l-22.6.9s10.5 1.3 10.4 11.4c0 3 1 5.7 2.8 7.7 4.1-.2 9.8-1.6 9.9-7.9s4.4-7.8 8.8-7.6c-2.2-2.5-5.7-4.5-9.3-4.5z"/><path class="st9" d="M116.8 264.7c.2-10.1-14.3-11.4-14.3-11.4s10.5 1.3 10.4 11.4c0 3 1 5.7 2.8 7.7 1.3-.1 2.8-.2 4.3-.8-2-1.9-3.2-4.2-3.2-6.9z"/><path class="st23" d="M115.7 271.4c4.1-.2 9.8-1.6 9.9-7.9s4.4-7.8 8.8-7.6"/><circle class="st24" cx="102.5" cy="253.3" r="3.2"/><path class="st25" d="M112.2 262H138v3.2h-25.8V262z"/><ellipse class="st26" cx="133" cy="263.8" rx="2.6" ry="4.5"/><path class="st25" d="M133 269.1c-1.8 0-3.3-2.4-3.3-5.3s1.5-5.3 3.3-5.3 3.3 2.4 3.3 5.3c.1 2.9-1.4 5.3-3.3 5.3zm0-9c-.9 0-1.8 1.6-1.8 3.8 0 2.1 1 3.8 1.8 3.8.9 0 1.8-1.6 1.8-3.8.1-2.2-.9-3.8-1.8-3.8z"/><path class="st20" d="M94.4 256.7h9v1.8h-9v-1.8z"/><path class="st5" d="M73.3 238.4l22.3 23.1 2.4 3.6H72.2l1.1-26.7z"/><path class="st27" d="M116 290.9c-.4 0-.8-.2-1.1-.6l-36.6-68.4c-.3-.6-.1-1.3.5-1.6s1.3-.1 1.6.5l36.6 68.4c.3.6.1 1.3-.5 1.6-.1.1-.3.1-.5.1z"/><path class="st4" d="M79.4 222.2c-.4 0-.8-.3-.9-.7l-3.6-18.6c-.1-.5.2-1 .7-1.1s1 .2 1.1.7l3.6 18.6c.1.5-.2 1-.7 1.1h-.2z"/><path class="st8" d="M8 232.7l27.6-21 151.9 2c1.5 0 1.6 2.2.1 2.4L8 232.7z"/><ellipse class="st26" cx="165.8" cy="211.7" rx="2.4" ry="4.2"/><path class="st25" d="M165.8 216.6c-1.7 0-3.1-2.2-3.1-4.9s1.4-4.9 3.1-4.9c1.7 0 3.1 2.2 3.1 4.9s-1.4 4.9-3.1 4.9zm0-8.4c-.8 0-1.7 1.5-1.7 3.5s.9 3.5 1.7 3.5 1.7-1.5 1.7-3.5-.9-3.5-1.7-3.5z"/><circle class="st28" cx="187.4" cy="214.7" r="3.6"/><path class="st4" d="M153.2 215.3c-.7 0-1.2-.5-1.2-1.2v-3.6c0-.7.5-1.2 1.2-1.2s1.2.5 1.2 1.2v3.6c0 .7-.5 1.2-1.2 1.2z"/><path class="st4" d="M153.2 211.7c-.7 0-1.2-.5-1.2-1.2 0-1.3-1.1-2.4-2.4-2.4-.7 0-1.2-.5-1.2-1.2s.5-1.2 1.2-1.2c2.6 0 4.8 2.2 4.8 4.8 0 .7-.5 1.2-1.2 1.2zm-9.6-3.6c-2.6 0-4.8-2.2-4.8-4.8 0-.7.5-1.2 1.2-1.2s1.2.5 1.2 1.2c0 1.3 1.1 2.4 2.4 2.4.7 0 1.2.5 1.2 1.2s-.5 1.2-1.2 1.2z"/><path class="st4" d="M149 208.1c-2.6 0-4.8-2.2-4.8-4.8 0-.7.5-1.2 1.2-1.2s1.2.5 1.2 1.2c0 1.3 1.1 2.4 2.4 2.4.7 0 1.2.5 1.2 1.2s-.5 1.2-1.2 1.2z"/><path class="st4" d="M149.6 208.1h-6c-.7 0-1.2-.5-1.2-1.2s.5-1.2 1.2-1.2h6c.7 0 1.2.5 1.2 1.2s-.5 1.2-1.2 1.2z"/></g><g><path class="st4" d="M119 389.5c-.4 0-.8-.2-1-.6l-37.8-67.2c-.3-.6-.1-1.3.5-1.6.6-.3 1.3-.1 1.6.5l37.7 67.1c.3.6.1 1.3-.5 1.6-.1.2-.3.2-.5.2z"/><path class="st0" d="M112.2 368.6c-11.1 4.2-9.3 14.2 5.7 19.5"/><circle class="st1" cx="119.1" cy="388.6" r="5.7"/><path class="st2" d="M116.3 379.6c-1.4-.5-2.9.2-3.4 1.6l-3.3 9.1c-.5 1.4.2 2.9 1.6 3.4s2.9-.2 3.4-1.6l3.3-9.1c.5-1.4-.2-2.9-1.6-3.4z"/><path class="st3" d="M95.6 345.1l20.4 23.4-20.4-6.6v-16.8z"/><path class="st5" d="M110.7 383.6c-.8 0-1.5-.4-1.9-1.2-.5-1-.1-2.3 1-2.8 3.8-1.9 4.9-5.6 4.2-8.4-.7-3-3.7-6.3-10-6.3-1.2 0-2.1-.9-2.1-2.1s.9-2.1 2.1-2.1c8.8 0 13 4.9 14.1 9.5 1.2 5.3-1.4 10.7-6.4 13.1-.4.3-.7.3-1 .3z"/><path class="st6" d="M84 368v9.4l29.8-4.7z"/><path class="st6" d="M116.5 372.7c0-6.3-5.1-11.5-11.5-11.5H89.4c-6.3 0-11.5 5.1-11.5 11.5 0 6.3 5.1 11.5 11.5 11.5H105c6.4 0 11.5-5.1 11.5-11.5z"/><path class="st0" d="M84 372.8H62.8"/><path class="st7" d="M60.1 384.8c-2.9 0-5.2-2.3-5.2-5.2 0-2.2 1.8-4 4-4h3.9v-5.4H51.1c-.7 0-1.3.6-1.3 1.3v13.1c0 2.8 2.2 5.2 5 5.3 2.9.2 5.3-2.2 5.3-5.1z"/><path class="st8" d="M57.6 375.5v-2c0-.7.6-1.3 1.3-1.3s1.3.6 1.3 1.3v2c0 .7-.6 1.3-1.3 1.3-.7.1-1.3-.5-1.3-1.3z"/><path class="st7" d="M91.4 361.2h5.7v22.9h-5.7z"/><path class="st5" d="M89.7 361.3h1.7v22.9h-1.7z"/><path class="st8" d="M91.5 381.4h5.7v2.9h-5.7z"/><path class="st5" d="M104.7 383.6c-.8 0-1.5-.4-1.9-1.2-.5-1-.1-2.3 1-2.8 3.8-1.9 4.9-5.6 4.2-8.4-.7-3-3.7-6.3-10-6.3-1.2 0-2.1-.9-2.1-2.1s.9-2.1 2.1-2.1c8.8 0 13 4.9 14.1 9.5 1.2 5.3-1.4 10.7-6.4 13.1-.4.3-.7.3-1 .3z"/><path class="st9" d="M86.4 369.3H102c6.2 0 11.3 5 11.5 11.2 1.9-2 3-4.7 3-7.7 0-6.3-5.1-11.5-11.5-11.5H89.4c-6.3 0-11.5 5.1-11.5 11.5v.3c2.2-2.4 5.2-3.8 8.5-3.8z"/><path class="st10" d="M66.2 332.5l-30.6-21 151.6 2.1c1.5 0 1.6 2.2.1 2.4L66.2 332.5z"/><path class="st5" d="M71.9 364.9c-22.1 0-30.3-6.4-30.3-14.4s8.6-14.4 30.3-14.4h2.3c1.9 0-.4 5-.1 7.7.9 8.4 11.2 21.1-2.2 21.1z"/><path class="st9" d="M45.2 353.5c0-8.9 7.7-15.2 29.1-15.3 0-.7.5-2.1-.1-2.1h-2.3c-21.8 0-30.3 6.4-30.3 14.4 0 3.5 1.6 6.6 5.1 9.1-1-1.9-1.5-3.9-1.5-6.1z"/><path class="st11" d="M155.6 315.1c-.7 0-1.2-.5-1.2-1.2v-3.6c0-.7.5-1.2 1.2-1.2s1.2.5 1.2 1.2v3.6c0 .7-.5 1.2-1.2 1.2z"/><path class="st11" d="M155.6 311.5c-.7 0-1.2-.5-1.2-1.2 0-1.3-1.1-2.4-2.4-2.4-.7 0-1.2-.5-1.2-1.2s.5-1.2 1.2-1.2c2.6 0 4.8 2.2 4.8 4.8 0 .7-.5 1.2-1.2 1.2zm-9.6-3.6c-2.6 0-4.8-2.2-4.8-4.8 0-.7.5-1.2 1.2-1.2s1.2.5 1.2 1.2c0 1.3 1.1 2.4 2.4 2.4.7 0 1.2.5 1.2 1.2s-.5 1.2-1.2 1.2z"/><path class="st11" d="M151.4 307.9c-2.6 0-4.8-2.2-4.8-4.8 0-.7.5-1.2 1.2-1.2s1.2.5 1.2 1.2c0 1.3 1.1 2.4 2.4 2.4.7 0 1.2.5 1.2 1.2s-.5 1.2-1.2 1.2z"/><path class="st11" d="M152 307.9h-6c-.7 0-1.2-.5-1.2-1.2s.5-1.2 1.2-1.2h6c.7 0 1.2.5 1.2 1.2s-.5 1.2-1.2 1.2z"/><path class="st5" d="M88.5 338.2c2.2 2.5-2.5 4.4-4.9 6.1-2.4 1.6-6.9-.5-8.8-3.2s-1.4-6.3 1-7.9c2.4-1.7 7.5-1 12.7 5z"/><path class="st3" d="M86.6 338.4c1.9 2.7-.9 4.9-2.9 6.3-2.1 1.4-5.2.3-7.1-2.4-1.9-2.7-1.7-6.1.3-7.5 2.8-2 7.8.8 9.7 3.6z"/><ellipse transform="rotate(-34.31 96.535 359.39)" class="st3" cx="96.5" cy="359.4" rx="4.5" ry="6"/><path class="st12" d="M83.6 337.3h13.8v17.4H83.6v-17.4z"/><path class="st13" d="M88.4 337.3h4.7v17.4h-4.7v-17.4zm-13.2-1.8h9.6v10.8h-9.6v-10.8z"/><path class="st14" d="M90.8 343.9h9v9h-9v-9z"/><path class="st15" d="M93.2 343.9H95v9h-1.8v-9z"/><path class="st16" d="M80 340.3h13.2v13.2H80v-13.2z"/><path class="st17" d="M80 345.7h13.2v2.4H80v-2.4z"/><path class="st17" d="M85.4 340.3h2.4v13.2h-2.4v-13.2z"/><path class="st18" d="M85.4 351.7h9v9h-9v-9z"/><path class="st10" d="M89 351.7h1.8v9H89v-9z"/><path class="st10" d="M85.4 355.3h9v1.8h-9v-1.8z"/><path class="st19" d="M94.4 352.9h9v9h-9v-9z"/><path class="st20" d="M98 352.9h1.8v9H98v-9z"/><circle class="st22" cx="125.4" cy="365.9" r="11.6"/><ellipse transform="rotate(-73.609 135.259 369.626)" class="st26" cx="135.3" cy="369.6" rx="4.3" ry="2.9"/><path class="st25" d="M134.5 374.6c-.2 0-.5 0-.8-.1-1-.3-1.7-1.1-2.1-2.3-.3-1.1-.3-2.4 0-3.7.6-2.4 2.4-4 4.2-4 .2 0 .5 0 .8.1 1.9.5 2.9 3.2 2 5.9-.5 2.5-2.3 4.1-4.1 4.1zm1.4-8.5c-1.1 0-2.3 1.2-2.7 2.9-.3 1-.3 1.9 0 2.7.1.4.4 1.1 1.1 1.3 1.1.3 2.6-1 3-2.8.5-1.8.1-3.7-1.1-4.1h-.3z"/><path class="st22" d="M136.9 380.3l-4.5-9.4-5 1.1 8 9c1 1.2 2.2.2 1.5-.7z"/><path class="st6" d="M124.7 352.4h-22.5s10.3 2.4 10.2 12.5c0 3 1 5.7 2.8 7.7 2.9 1.2 5.4 1.8 5.8-4.5.5-8.1 12.1-10.4 16.1-6-.7-5.8-6-9.7-12.4-9.7z"/><ellipse transform="rotate(-73.609 127.587 370.311)" class="st26" cx="127.6" cy="370.3" rx="4.6" ry="3.4"/><path class="st25" d="M127 375.6c-.3 0-.6 0-1-.1-2.1-.6-3.3-3.4-2.5-6.3.8-2.5 2.6-4.1 4.5-4.1.3 0 .6 0 1 .1 1.1.3 1.9 1.2 2.4 2.5.4 1.2.4 2.6 0 3.9-.5 2.3-2.4 4-4.4 4zm1.2-9.1c-1.3 0-2.6 1.3-3.1 3-.5 2 .1 4.1 1.4 4.4 1.4.4 3-1 3.7-3 .3-1.1.3-2 0-2.9-.3-.8-.8-1.3-1.4-1.5-.3-.1-.4 0-.6 0z"/><path class="st29" d="M115.2 372.6c.8.5 4 .7 4.5-5.6.5-8.1 13.5-9.3 17.4-4.9"/><path class="st20" d="M94.4 356.5h9v1.8h-9v-1.8z"/><path class="st5" d="M73.3 338.2l22.3 23.1 2.4 3.6H72.2l1.1-26.7z"/><path class="st4" d="M79.4 322c-.4 0-.8-.3-.9-.7l-3.6-18.6c-.1-.5.2-1 .7-1.1s1 .2 1.1.7l3.6 18.6c.1.5-.2 1-.7 1.1h-.2z"/><path class="st8" d="M8 332.5l27.6-21 151.9 2c1.5 0 1.6 2.2.1 2.4L8 332.5z"/><path class="st0" d="M108.2 370.6c11.6-2.4 11.4-12.6-2.5-20.2"/><circle class="st1" cx="104.6" cy="349.8" r="5.7"/><path class="st2" d="M105.9 359.2c1.3.7 2.9.3 3.7-1l4.7-8.5c.7-1.3.3-2.9-1-3.7-1.3-.7-2.9-.3-3.7 1l-4.7 8.5c-.8 1.4-.3 3 1 3.7z"/><ellipse class="st26" cx="165.8" cy="311.5" rx="2.4" ry="4.2"/><path class="st25" d="M165.8 316.4c-1.7 0-3.1-2.2-3.1-4.9s1.4-4.9 3.1-4.9c1.7 0 3.1 2.2 3.1 4.9s-1.4 4.9-3.1 4.9zm0-8.4c-.8 0-1.7 1.5-1.7 3.5s.9 3.5 1.7 3.5 1.7-1.5 1.7-3.5-.9-3.5-1.7-3.5z"/><circle class="st28" cx="187.4" cy="314.5" r="3.6"/><path class="st4" d="M153.2 315.1c-.7 0-1.2-.5-1.2-1.2v-3.6c0-.7.5-1.2 1.2-1.2s1.2.5 1.2 1.2v3.6c0 .7-.5 1.2-1.2 1.2z"/><path class="st4" d="M153.2 311.5c-.7 0-1.2-.5-1.2-1.2 0-1.3-1.1-2.4-2.4-2.4-.7 0-1.2-.5-1.2-1.2s.5-1.2 1.2-1.2c2.6 0 4.8 2.2 4.8 4.8 0 .7-.5 1.2-1.2 1.2zm-9.6-3.6c-2.6 0-4.8-2.2-4.8-4.8 0-.7.5-1.2 1.2-1.2s1.2.5 1.2 1.2c0 1.3 1.1 2.4 2.4 2.4.7 0 1.2.5 1.2 1.2s-.5 1.2-1.2 1.2z"/><path class="st4" d="M149 307.9c-2.6 0-4.8-2.2-4.8-4.8 0-.7.5-1.2 1.2-1.2s1.2.5 1.2 1.2c0 1.3 1.1 2.4 2.4 2.4.7 0 1.2.5 1.2 1.2s-.5 1.2-1.2 1.2z"/><path class="st4" d="M149.6 307.9h-6c-.7 0-1.2-.5-1.2-1.2s.5-1.2 1.2-1.2h6c.7 0 1.2.5 1.2 1.2s-.5 1.2-1.2 1.2zM115.9 390.7c-.5 0-.9-.3-1.1-.8-.2-.6.1-1.3.7-1.6l3-1.2c.6-.2 1.3.1 1.6.7.2.6-.1 1.3-.7 1.6l-3 1.2c-.2.1-.4.1-.5.1z"/><path class="st27" d="M116 390.7c-.4 0-.8-.2-1.1-.6l-36.6-68.4c-.3-.6-.1-1.3.5-1.6.6-.3 1.3-.1 1.6.5L117 389c.3.6.1 1.3-.5 1.6-.1.1-.3.1-.5.1z"/></g><g><path class="st4" d="M119 489.5c-.4 0-.8-.2-1-.6l-37.8-67.2c-.3-.6-.1-1.3.5-1.6.6-.3 1.3-.1 1.6.5l37.7 67.1c.3.6.1 1.3-.5 1.6-.1.2-.3.2-.5.2z"/><path class="st0" d="M112.2 468.6c-11.1 4.2-9.3 14.2 5.7 19.5"/><circle class="st1" cx="119.1" cy="488.6" r="5.7"/><path class="st2" d="M116.3 479.6c-1.4-.5-2.9.2-3.4 1.6l-3.3 9.1c-.5 1.4.2 2.9 1.6 3.4s2.9-.2 3.4-1.6l3.3-9.1c.5-1.4-.2-2.9-1.6-3.4z"/><path class="st3" d="M95.6 445.1l20.4 23.4-20.4-6.6v-16.8z"/><path class="st5" d="M110.7 483.6c-.8 0-1.5-.4-1.9-1.2-.5-1-.1-2.3 1-2.8 3.8-1.9 4.9-5.6 4.2-8.4-.7-3-3.7-6.3-10-6.3-1.2 0-2.1-.9-2.1-2.1s.9-2.1 2.1-2.1c8.8 0 13 4.9 14.1 9.5 1.2 5.3-1.4 10.7-6.4 13.1-.4.3-.7.3-1 .3z"/><path class="st6" d="M84 468v9.4l29.8-4.7z"/><path class="st6" d="M116.5 472.7c0-6.3-5.1-11.5-11.5-11.5H89.4c-6.3 0-11.5 5.1-11.5 11.5 0 6.3 5.1 11.5 11.5 11.5H105c6.4 0 11.5-5.1 11.5-11.5z"/><path class="st0" d="M84 472.8H62.8"/><path class="st7" d="M60.1 484.8c-2.9 0-5.2-2.3-5.2-5.2 0-2.2 1.8-4 4-4h3.9v-5.4H51.1c-.7 0-1.3.6-1.3 1.3v13.1c0 2.8 2.2 5.2 5 5.3 2.9.2 5.3-2.2 5.3-5.1z"/><path class="st8" d="M57.6 475.5v-2c0-.7.6-1.3 1.3-1.3s1.3.6 1.3 1.3v2c0 .7-.6 1.3-1.3 1.3-.7.1-1.3-.5-1.3-1.3z"/><path class="st7" d="M91.4 461.2h5.7v22.9h-5.7z"/><path class="st5" d="M89.7 461.3h1.7v22.9h-1.7z"/><path class="st8" d="M91.5 481.4h5.7v2.9h-5.7z"/><path class="st5" d="M104.7 483.6c-.8 0-1.5-.4-1.9-1.2-.5-1-.1-2.3 1-2.8 3.8-1.9 4.9-5.6 4.2-8.4-.7-3-3.7-6.3-10-6.3-1.2 0-2.1-.9-2.1-2.1s.9-2.1 2.1-2.1c8.8 0 13 4.9 14.1 9.5 1.2 5.3-1.4 10.7-6.4 13.1-.4.3-.7.3-1 .3z"/><path class="st9" d="M86.4 469.3H102c6.2 0 11.3 5 11.5 11.2 1.9-2 3-4.7 3-7.7 0-6.3-5.1-11.5-11.5-11.5H89.4c-6.3 0-11.5 5.1-11.5 11.5v.3c2.2-2.4 5.2-3.8 8.5-3.8z"/><path class="st10" d="M66.2 432.5l-30.6-21 151.6 2.1c1.5 0 1.6 2.2.1 2.4L66.2 432.5z"/><path class="st5" d="M71.9 464.9c-22.1 0-30.3-6.4-30.3-14.4s8.6-14.4 30.3-14.4h2.3c1.9 0-.4 5-.1 7.7.9 8.4 11.2 21.1-2.2 21.1z"/><path class="st9" d="M45.2 453.5c0-8.9 7.7-15.2 29.1-15.3 0-.7.5-2.1-.1-2.1h-2.3c-21.8 0-30.3 6.4-30.3 14.4 0 3.5 1.6 6.6 5.1 9.1-1-1.9-1.5-3.9-1.5-6.1z"/><path class="st11" d="M155.6 415.1c-.7 0-1.2-.5-1.2-1.2v-3.6c0-.7.5-1.2 1.2-1.2s1.2.5 1.2 1.2v3.6c0 .7-.5 1.2-1.2 1.2z"/><path class="st11" d="M155.6 411.5c-.7 0-1.2-.5-1.2-1.2 0-1.3-1.1-2.4-2.4-2.4-.7 0-1.2-.5-1.2-1.2s.5-1.2 1.2-1.2c2.6 0 4.8 2.2 4.8 4.8 0 .7-.5 1.2-1.2 1.2zm-9.6-3.6c-2.6 0-4.8-2.2-4.8-4.8 0-.7.5-1.2 1.2-1.2s1.2.5 1.2 1.2c0 1.3 1.1 2.4 2.4 2.4.7 0 1.2.5 1.2 1.2s-.5 1.2-1.2 1.2z"/><path class="st11" d="M151.4 407.9c-2.6 0-4.8-2.2-4.8-4.8 0-.7.5-1.2 1.2-1.2s1.2.5 1.2 1.2c0 1.3 1.1 2.4 2.4 2.4.7 0 1.2.5 1.2 1.2s-.5 1.2-1.2 1.2z"/><path class="st11" d="M152 407.9h-6c-.7 0-1.2-.5-1.2-1.2s.5-1.2 1.2-1.2h6c.7 0 1.2.5 1.2 1.2s-.5 1.2-1.2 1.2z"/><path class="st5" d="M88.5 438.2c2.2 2.5-2.5 4.4-4.9 6.1-2.4 1.6-6.9-.5-8.8-3.2s-1.4-6.3 1-7.9c2.4-1.7 7.5-1 12.7 5z"/><path class="st3" d="M86.6 438.4c1.9 2.7-.9 4.9-2.9 6.3-2.1 1.4-5.2.3-7.1-2.4-1.9-2.7-1.7-6.1.3-7.5 2.8-2 7.8.8 9.7 3.6z"/><ellipse transform="rotate(-34.31 96.54 459.39)" class="st3" cx="96.5" cy="459.4" rx="4.5" ry="6"/><path class="st12" d="M83.6 437.3h13.8v17.4H83.6v-17.4z"/><path class="st13" d="M88.4 437.3h4.7v17.4h-4.7v-17.4zm-13.2-1.8h9.6v10.8h-9.6v-10.8z"/><path class="st14" d="M90.8 443.9h9v9h-9v-9z"/><path class="st15" d="M93.2 443.9H95v9h-1.8v-9z"/><path class="st16" d="M80 440.3h13.2v13.2H80v-13.2z"/><path class="st17" d="M80 445.7h13.2v2.4H80v-2.4z"/><path class="st17" d="M85.4 440.3h2.4v13.2h-2.4v-13.2z"/><path class="st18" d="M85.4 451.7h9v9h-9v-9z"/><path class="st10" d="M89 451.7h1.8v9H89v-9z"/><path class="st10" d="M85.4 455.3h9v1.8h-9v-1.8z"/><path class="st19" d="M94.4 452.9h9v9h-9v-9z"/><path class="st20" d="M98 452.9h1.8v9H98v-9z"/><circle class="st22" cx="125.4" cy="465.9" r="11.6"/><ellipse transform="rotate(-73.609 135.263 469.624)" class="st26" cx="135.3" cy="469.6" rx="4.3" ry="2.9"/><path class="st25" d="M134.5 474.6c-.2 0-.5 0-.8-.1-1-.3-1.7-1.1-2.1-2.3-.3-1.1-.3-2.4 0-3.7.6-2.4 2.4-4 4.2-4 .2 0 .5 0 .8.1 1.9.5 2.9 3.2 2 5.9-.5 2.5-2.3 4.1-4.1 4.1zm1.4-8.5c-1.1 0-2.3 1.2-2.7 2.9-.3 1-.3 1.9 0 2.7.1.4.4 1.1 1.1 1.3 1.1.3 2.6-1 3-2.8.5-1.8.1-3.7-1.1-4.1h-.3z"/><path class="st22" d="M136.9 480.3l-4.5-9.4-5 1.1 8 9c1 1.2 2.2.2 1.5-.7z"/><path class="st6" d="M124.7 452.4h-22.5s10.3 2.4 10.2 12.5c0 3 1 5.7 2.8 7.7 2.9 1.2 5.4 1.8 5.8-4.5.5-8.1 12.1-10.4 16.1-6-.7-5.8-6-9.7-12.4-9.7z"/><ellipse transform="rotate(-73.609 127.59 470.31)" class="st26" cx="127.6" cy="470.3" rx="4.6" ry="3.4"/><path class="st25" d="M127 475.6c-.3 0-.6 0-1-.1-2.1-.6-3.3-3.4-2.5-6.3.8-2.5 2.6-4.1 4.5-4.1.3 0 .6 0 1 .1 1.1.3 1.9 1.2 2.4 2.5.4 1.2.4 2.6 0 3.9-.5 2.3-2.4 4-4.4 4zm1.2-9.1c-1.3 0-2.6 1.3-3.1 3-.5 2 .1 4.1 1.4 4.4 1.4.4 3-1 3.7-3 .3-1.1.3-2 0-2.9-.3-.8-.8-1.3-1.4-1.5-.3-.1-.4 0-.6 0z"/><path class="st29" d="M115.2 472.6c.8.5 4 .7 4.5-5.6.5-8.1 13.5-9.3 17.4-4.9"/><path class="st20" d="M94.4 456.5h9v1.8h-9v-1.8z"/><path class="st5" d="M73.3 438.2l22.3 23.1 2.4 3.6H72.2l1.1-26.7z"/><path class="st4" d="M79.4 422c-.4 0-.8-.3-.9-.7l-3.6-18.6c-.1-.5.2-1 .7-1.1s1 .2 1.1.7l3.6 18.6c.1.5-.2 1-.7 1.1h-.2z"/><path class="st8" d="M8 432.5l27.6-21 151.9 2c1.5 0 1.6 2.2.1 2.4L8 432.5z"/><path class="st0" d="M108.2 470.6c-2.4 9.8-6.8 14.6-17.7 23.3"/><circle class="st1" cx="90" cy="493.9" r="5.7"/><path class="st2" d="M99.1 492.8l-6-7.6c-.9-1.2-2.6-1.4-3.8-.4-1.2.9-1.4 2.6-.4 3.8l6 7.6c.9 1.2 2.6 1.4 3.8.4 1.1-1 1.3-2.7.4-3.8z"/><ellipse class="st26" cx="165.8" cy="411.5" rx="2.4" ry="4.2"/><path class="st25" d="M165.8 416.4c-1.7 0-3.1-2.2-3.1-4.9s1.4-4.9 3.1-4.9c1.7 0 3.1 2.2 3.1 4.9s-1.4 4.9-3.1 4.9zm0-8.4c-.8 0-1.7 1.5-1.7 3.5s.9 3.5 1.7 3.5 1.7-1.5 1.7-3.5-.9-3.5-1.7-3.5z"/><circle class="st28" cx="187.4" cy="414.5" r="3.6"/><path class="st4" d="M153.2 415.1c-.7 0-1.2-.5-1.2-1.2v-3.6c0-.7.5-1.2 1.2-1.2s1.2.5 1.2 1.2v3.6c0 .7-.5 1.2-1.2 1.2z"/><path class="st4" d="M153.2 411.5c-.7 0-1.2-.5-1.2-1.2 0-1.3-1.1-2.4-2.4-2.4-.7 0-1.2-.5-1.2-1.2s.5-1.2 1.2-1.2c2.6 0 4.8 2.2 4.8 4.8 0 .7-.5 1.2-1.2 1.2zm-9.6-3.6c-2.6 0-4.8-2.2-4.8-4.8 0-.7.5-1.2 1.2-1.2s1.2.5 1.2 1.2c0 1.3 1.1 2.4 2.4 2.4.7 0 1.2.5 1.2 1.2s-.5 1.2-1.2 1.2z"/><path class="st4" d="M149 407.9c-2.6 0-4.8-2.2-4.8-4.8 0-.7.5-1.2 1.2-1.2s1.2.5 1.2 1.2c0 1.3 1.1 2.4 2.4 2.4.7 0 1.2.5 1.2 1.2s-.5 1.2-1.2 1.2z"/><path class="st4" d="M149.6 407.9h-6c-.7 0-1.2-.5-1.2-1.2s.5-1.2 1.2-1.2h6c.7 0 1.2.5 1.2 1.2s-.5 1.2-1.2 1.2zM115.9 490.7c-.5 0-.9-.3-1.1-.8-.2-.6.1-1.3.7-1.6l3-1.2c.6-.2 1.3.1 1.6.7.2.6-.1 1.3-.7 1.6l-3 1.2c-.2.1-.4.1-.5.1z"/><path class="st27" d="M116 490.7c-.4 0-.8-.2-1.1-.6l-36.6-68.4c-.3-.6-.1-1.3.5-1.6.6-.3 1.3-.1 1.6.5L117 489c.3.6.1 1.3-.5 1.6-.1.1-.3.1-.5.1z"/></g><g id="HIDE" class="st30"><path class="st31" d="M0 0h200v100H0V0zm210 0h90v100h-90V0zm100 0h90v100h-90V0z"/><path class="st32" d="M210 500h90v50h-90v-50z"/><path class="st31" d="M210 550h90v50h-90v-50zM0 200h200v100H0V200z"/><path class="st32" d="M0 100h200v100H0V100zm0 200h200v100H0V300z"/><path class="st31" d="M0 400h200v100H0V400z"/><path class="st32" d="M0 500h200v100H0V500zm310-200h90v100h-90V300z"/><path class="st31" d="M310 200h90v100h-90V200zm0 200h90v100h-90V400zm-100 0h90v100h-90V400z"/><path class="st32" d="M310 100h90v100h-90V100zm-100 0h90v100h-90V100zm0 200h90v100h-90V300z"/><path class="st31" d="M210 200h90v100h-90V200z"/></g><g id="boxes"><path class="st33" d="M0 0h200v100H0V0zm210 0h90v100h-90V0zm100 0h90v100h-90V0zM210 500h90v50h-90v-50zm0 50h90v50h-90v-50zM0 200h200v100H0V200zm0-100h200v100H0V100zm0 200h200v100H0V300zm0 100h200v100H0V400zm0 100h200v100H0V500zm310-200h90v100h-90V300zm0-100h90v100h-90V200zm0 200h90v100h-90V400zm-100 0h90v100h-90V400zm100-300h90v100h-90V100zm-100 0h90v100h-90V100zm0 200h90v100h-90V300zm0-100h90v100h-90V200z"/><path class="st33" d="M210 400h90v100h-90V400z"/></g><path class="st33" d="M247.2 53.2s-38.6 40.2 6.1 45.8l6.4-46.4-12.5.6z"/><path class="st33" d="M253.7 53.2S237.4 93.4 285.2 99L266 52.6l-12.3.6z"/><path class="st34" d="M247.2 51.8s-38.6-42 6.1-47.8l6.4 48.4-12.5-.6z"/><path class="st35" d="M212 58h16v-8c-7 2.4-11.5 5-16 8"/><path class="st2" d="M228 50v8h55.4c-5.9-18-28.4-17-55.4-8"/><path class="st2" d="M253.7 51.8S237.4 9.8 285.2 4L266 52.4l-12.3-.6zm19.2 5l2.4 1.2H297v-8.5c-8 1.9-15.8 4.5-24.1 7.3"/><path class="st36" d="M233.9 53c0 1-.8 1.7-1.7 1.7-1 0-1.8-.8-1.8-1.7 0-1 .8-1.7 1.8-1.7.9-.1 1.7.7 1.7 1.7"/><path class="st33" d="M247.2 153.2s-38.6 40.2 6.1 45.8l6.4-46.4-12.5.6z"/><path class="st33" d="M253.7 153.2s-16.3 40.2 31.5 45.8L266 152.6l-12.3.6z"/><path class="st34" d="M247.2 152.1s-38.6-20.8 6.1-23.7l6.4 24-12.5-.3z"/><path class="st35" d="M212 158h16v-8c-7 2.4-11.5 5-16 8"/><path class="st2" d="M228 150v8h55.4c-5.9-18-28.4-17-55.4-8"/><path class="st2" d="M253.7 152.1s-16.3-20.8 31.5-23.7l-19.2 24-12.3-.3zm19.2 4.7l2.4 1.2H297v-8.5c-8 1.9-15.8 4.5-24.1 7.3"/><path class="st36" d="M233.9 153c0 1-.8 1.7-1.7 1.7-1 0-1.8-.8-1.8-1.7 0-1 .8-1.7 1.8-1.7.9-.1 1.7.7 1.7 1.7"/><path class="st34" d="M247.2 350.2s-38.6 40.2 6.1 45.8l6.4-46.4-12.5.6z"/><path class="st2" d="M253.7 350.2s-16.3 40.2 31.5 45.8L266 349.6l-12.3.6z"/><path class="st33" d="M247.2 348.8s-38.6-42 6.1-47.8l6.4 48.4-12.5-.6z"/><path class="st35" d="M212 355h16v-8c-7 2.4-11.5 5-16 8"/><path class="st2" d="M228 347v8h55.4c-5.9-18-28.4-17-55.4-8"/><path class="st33" d="M253.7 348.8s-16.3-42 31.5-47.8L266 349.4l-12.3-.6z"/><path class="st2" d="M272.9 353.8l2.4 1.2H297v-8.5c-8 1.9-15.8 4.5-24.1 7.3"/><path class="st36" d="M233.9 350c0 1-.8 1.7-1.7 1.7-1 0-1.8-.8-1.8-1.7 0-1 .8-1.7 1.8-1.7.9-.1 1.7.7 1.7 1.7"/><path class="st34" d="M247.2 249.9s-38.6 20.8 6.1 23.7l6.4-24-12.5.3z"/><path class="st2" d="M253.7 249.9s-16.3 20.8 31.5 23.7l-19.2-24-12.3.3z"/><path class="st33" d="M247.2 248.8s-38.6-42 6.1-47.8l6.4 48.4-12.5-.6z"/><path class="st35" d="M212 255h16v-8c-7 2.4-11.5 5-16 8"/><path class="st2" d="M228 247v8h55.4c-5.9-18-28.4-17-55.4-8"/><path class="st33" d="M253.7 248.8s-16.3-42 31.5-47.8L266 249.4l-12.3-.6z"/><path class="st2" d="M272.9 253.8l2.4 1.2H297v-8.5c-8 1.9-15.8 4.5-24.1 7.3"/><path class="st36" d="M233.9 250c0 1-.8 1.7-1.7 1.7-1 0-1.8-.8-1.8-1.7 0-1 .8-1.7 1.8-1.7.9-.1 1.7.7 1.7 1.7"/><ellipse class="st37" cx="255" cy="519" rx="44" ry="18"/><ellipse class="st9" cx="255" cy="519" rx="44" ry="18"/><ellipse class="st37" cx="255" cy="516" rx="40.1" ry="15"/><path class="st38" d="M229.6 517.5c5.1 2.8 14.5 4.7 25.4 4.7 5.3 0 10.3-.5 14.7-1.3-8.8-1.6-14.7-4.6-14.7-8.1-10.9.1-20.3 1.9-25.4 4.7z"/><path class="st38" d="M280.4 508.2c-5.1-2.8-14.5-4.7-25.4-4.7-5.3 0-10.3.5-14.7 1.3 8.8 1.6 14.7 4.6 14.7 8.1 10.9 0 20.3-1.9 25.4-4.7z"/><path class="st39" d="M240.3 504.8c-8.8 1.6-14.7 4.6-14.7 8.1 0 1.7 1.5 3.3 4 4.7 5.1-2.8 14.5-4.7 25.4-4.7 0-3.5-5.9-6.5-14.7-8.1z"/><path class="st39" d="M269.7 520.9c8.8-1.6 14.7-4.6 14.7-8.1 0-1.7-1.5-3.3-4-4.7-5.1 2.8-14.5 4.7-25.4 4.7 0 3.5 5.9 6.5 14.7 8.1z"/><path class="st40" d="M255 501h-1.4c16.3 2.6 27.8 9.1 27.8 16.7 0 9.7-18.9 17.7-42.6 18 5 .8 10.5 1.3 16.2 1.3 24.3 0 44-8.1 44-18s-19.7-18-44-18z"/><ellipse class="st37" cx="255" cy="569" rx="44" ry="18"/><ellipse class="st9" cx="255" cy="569" rx="44" ry="18"/><ellipse class="st37" cx="255" cy="566" rx="40.1" ry="15"/><path class="st39" d="M229.6 567.5c5.1 2.8 14.5 4.7 25.4 4.7 5.3 0 10.3-.5 14.7-1.3-8.8-1.6-14.7-4.6-14.7-8.1-10.9.1-20.3 1.9-25.4 4.7z"/><path class="st39" d="M280.4 558.2c-5.1-2.8-14.5-4.7-25.4-4.7-5.3 0-10.3.5-14.7 1.3 8.8 1.6 14.7 4.6 14.7 8.1 10.9 0 20.3-1.9 25.4-4.7z"/><path class="st38" d="M240.3 554.8c-8.8 1.6-14.7 4.6-14.7 8.1 0 1.7 1.5 3.3 4 4.7 5.1-2.8 14.5-4.7 25.4-4.7 0-3.5-5.9-6.5-14.7-8.1z"/><path class="st38" d="M269.7 570.9c8.8-1.6 14.7-4.6 14.7-8.1 0-1.7-1.5-3.3-4-4.7-5.1 2.8-14.5 4.7-25.4 4.7 0 3.5 5.9 6.5 14.7 8.1z"/><path class="st40" d="M255 551h-1.4c16.3 2.6 27.8 9.1 27.8 16.7 0 9.7-18.9 17.7-42.6 18 5 .8 10.5 1.3 16.2 1.3 24.3 0 44-8.1 44-18s-19.7-18-44-18z"/><path class="st10" d="M369 99h-.2c-.5-.1-.9-.6-.8-1.2.4-2.3-.6-6.8-3.6-9-1.2-.9-2.4-1.4-3.6-2-3.2-1.5-6-2.7-4.8-10 .1-.5.6-.9 1.1-.8s.9.6.8 1.1c-.9 5.8.7 6.5 3.7 7.9 1.2.5 2.5 1.2 3.9 2.2 3.9 2.8 4.9 8.2 4.4 11 0 .5-.4.8-.9.8z"/><path class="st41" d="M355 1c-17.7 0-32 14.1-32 31.5S346.4 77 355 77s32-27.1 32-44.5S372.7 1 355 1zm5 82h-10l4-6h2l4 6z"/><path class="st10" d="M353 79c-.5 0-.9-.3-1-.8s.2-1.1.8-1.2l5-1c.5-.1 1.1.2 1.2.8.1.5-.2 1.1-.8 1.2l-5 1h-.2z"/><path class="st8" d="M371.2 43.4c.8 1.4.1 2.6-1.5 2.6h-29.4c-1.6 0-2.3-1.2-1.5-2.6l14.7-25.8c.8-1.4 2.2-1.4 3 0l14.7 25.8z"/><path class="st41" d="M358 26h-6l1 11h4l1-11z"/><ellipse class="st41" cx="355" cy="41" rx="3" ry="2"/><path class="st40" d="M355.3 1C365.8 6 373 16.7 373 29c0 17.1-13.9 31-31 31-2.7 0-5.4-.4-7.9-1 7.3 10.1 16.3 18 20.9 18 8.6 0 32-27.1 32-44.5 0-17.3-14.1-31.3-31.7-31.5z"/><path class="st10" d="M369 399h-.2c-.5-.1-.9-.6-.8-1.2.4-2.1-1.3-4.5-4.6-7-1.2-.9-2.6-1.5-3.9-2.1-3.8-1.7-7.6-3.5-6.5-10.8.1-.5.6-.9 1.1-.8s.9.6.8 1.1c-.9 5.8 1.7 7 5.4 8.7 1.4.7 2.9 1.3 4.2 2.3 4.1 3 5.9 6.1 5.4 9 0 .5-.4.8-.9.8z"/><path class="st41" d="M359.3 301.2c-17.6-1.8-33.3 10.7-35.1 28-1.8 17.3 18.6 46.7 27.2 47.6 8.5.9 34.7-23.6 36.5-40.9 1.7-17.3-11-32.9-28.6-34.7zm-3.6 82.1l-10-1.1 4.7-5.5 1.9.2 3.4 6.4z"/><path class="st10" d="M349.3 378.6c-.5 0-.9-.4-1-.9s.4-1 .9-1.1l5.1-.5c.5 0 1 .4 1.1.9s-.4 1-.9 1.1l-5.2.5z"/><path class="st8" d="M371 345.1c.7 1.5-.1 2.6-1.8 2.4l-29.3-3.1c-1.6-.2-2.2-1.4-1.2-2.7l17.4-24.1c1-1.3 2.3-1.2 3 .3l11.9 27.2z"/><path class="st41" d="M359.7 326.4l-6-.7-.2 11.1 4 .4 2.2-10.8z"/><ellipse transform="rotate(-84.03 355.273 340.807)" class="st41" cx="355.3" cy="340.8" rx="2" ry="3"/><path class="st40" d="M359.6 301.2c9.9 6 15.9 17.4 14.6 29.7-1.8 17-17 29.4-34.1 27.6-2.7-.3-5.3-.9-7.8-1.8 6.2 10.8 14.3 19.6 18.9 20.1 8.5.9 34.7-23.6 36.5-40.9 1.9-17.2-10.7-32.7-28.1-34.7z"/><path class="st10" d="M369 299h-.2c-.5-.1-.9-.6-.8-1.2.2-.8-.1-1.1-2.1-2-1-.5-2.3-1.1-3.6-2-5.1-3.8-7.8-7.8-6.4-17 .1-.5.6-.9 1.1-.8s.9.6.8 1.1c-1.3 8.3.9 11.6 5.6 15 1.1.8 2.2 1.4 3.2 1.8 1.8.8 3.6 1.7 3.2 4.2.1.6-.3.9-.8.9z"/><path class="st41" d="M355 201c-17.7 0-32 14.1-32 31.5s23.4 44.5 32 44.5 32-27.1 32-44.5-14.3-31.5-32-31.5zm5 82h-10l4-6h2l4 6z"/><path class="st10" d="M353 279c-.5 0-.9-.3-1-.8s.2-1.1.8-1.2l5-1c.5-.1 1.1.2 1.2.8.1.5-.2 1.1-.8 1.2l-5 1h-.2z"/><path class="st8" d="M371.2 243.4c.8 1.4.1 2.6-1.5 2.6h-29.4c-1.6 0-2.3-1.2-1.5-2.6l14.7-25.8c.8-1.4 2.2-1.4 3 0l14.7 25.8z"/><path class="st41" d="M358 226h-6l1 11h4l1-11z"/><ellipse class="st41" cx="355" cy="241" rx="3" ry="2"/><path class="st40" d="M355.3 201c10.4 5 17.7 15.6 17.7 28 0 17.1-13.9 31-31 31-2.7 0-5.4-.4-7.9-1 7.3 10.1 16.3 18 20.9 18 8.6 0 32-27.1 32-44.5 0-17.3-14.1-31.3-31.7-31.5z"/><path class="st10" d="M372.3 197.9h-.1c-.5-.1-.9-.6-.9-1.1.2-1.6-2.5-3.3-5.2-4.9-.6-.3-1.1-.7-1.7-1l-.3-.2c-5.2-3.3-7-4.9-6.2-13.9 0-.6.5-1 1.1-.9.6 0 1 .5.9 1.1-.7 8.3.7 9.2 5.3 12.1l.3.2c.5.3 1.1.7 1.7 1 3.3 2 6.5 3.9 6.1 6.8 0 .4-.4.8-1 .8z"/><path class="st41" d="M350.2 101.2c-17.6 1.8-30.4 17.4-28.5 34.6s27.9 41.8 36.5 40.9 29-30.3 27.2-47.6-17.6-29.7-35.2-27.9zm13.5 81l-9.9 1.1 3.3-6.4 2-.2 4.6 5.5z"/><path class="st10" d="M356.2 179c-.4 0-.8-.3-1-.7-.2-.5.1-1.1.7-1.3l4.9-1.5c.5-.2 1.1.1 1.3.7.2.5-.1 1.1-.7 1.3l-4.9 1.5h-.3z"/><path class="st8" d="M370.8 141.7c1 1.3.4 2.6-1.2 2.7l-29.3 3.1c-1.6.2-2.4-.9-1.8-2.4l12-27.2c.7-1.5 2-1.7 3-.3l17.3 24.1z"/><path class="st41" d="M355.8 125.8l-6 .6 2.2 10.8 3.9-.4-.1-11z"/><ellipse transform="rotate(-5.957 354.334 141.133)" class="st41" cx="354.3" cy="141.2" rx="3" ry="2"/><path class="st40" d="M350.5 101.2c10.9 3.9 19.2 13.7 20.5 26 1.8 17-10.6 32.3-27.6 34.1-2.7.3-5.4.2-8-.2 8.3 9.2 18.1 16.2 22.7 15.7 8.5-.9 29-30.3 27.2-47.6-1.8-17.2-17.3-29.7-34.8-28z"/><path class="st10" d="M383.2 490c-.1 0-.1 0 0 0-.6 0-1-.7-1-1.2.1-2.1-1.8-4.4-5.5-6.4-1.3-.7-2.7-1.2-4.1-1.6-4-1.2-8-2.4-7.9-9.8 0-.5.5-.9 1-.9.6 0 1 .4 1 .9-.1 5.9 2.6 6.7 6.5 7.9 1.5.5 3 .9 4.5 1.7 4.4 2.4 6.7 5.4 6.5 8.4-.1.4-.5 1-1 1z"/><path class="st41" d="M355 402.6s2.6 21.3 8.4 23.7 22.7-10.8 22.7-10.8-13.2 16.9-10.8 22.7 23.7 8.4 23.7 8.4-21.3 2.6-23.7 8.4 10.8 22.7 10.8 22.7-16.9-13.2-22.7-10.8-8.4 23.7-8.4 23.7-2.6-21.3-8.4-23.7-22.7 10.8-22.7 10.8 13.2-16.9 10.8-22.7-23.7-8.4-23.7-8.4 21.3-2.6 23.7-8.4-10.8-22.7-10.8-22.7 16.9 13.2 22.7 10.8 8.4-23.7 8.4-23.7z"/><path class="st8" d="M355 425.5s1.3 10.2 4 11.4c2.8 1.2 10.9-5.2 10.9-5.2s-6.3 8.1-5.2 10.9c1.2 2.8 11.4 4 11.4 4s-10.2 1.3-11.4 4c-1.2 2.8 5.2 10.9 5.2 10.9s-8.1-6.3-10.9-5.2c-2.8 1.2-4 11.4-4 11.4s-1.3-10.2-4-11.4c-2.8-1.2-10.9 5.2-10.9 5.2s6.3-8.1 5.2-10.9c-1.2-2.8-11.4-4-11.4-4s10.2-1.3 11.4-4c1.2-2.8-5.2-10.9-5.2-10.9s8.1 6.3 10.9 5.2c2.7-1.2 4-11.4 4-11.4z"/><path d="M275.3 455.1c2.4-5.8 23.7-8.4 23.7-8.4s-21.3-2.6-23.7-8.4c-2.4-5.8 10.8-22.7 10.8-22.7s-16.9 13.2-22.7 10.8c-5.8-2.4-8.4-23.7-8.4-23.7s-2.6 21.3-8.4 23.7c-5.8 2.4-22.7-10.8-22.7-10.8s13.2 16.9 10.8 22.7c-2.4 5.8-23.7 8.4-23.7 8.4s21.3 2.6 23.7 8.4-10.8 22.7-10.8 22.7 16.9-13.2 22.7-10.8c5.8 2.4 8.4 23.7 8.4 23.7s2.6-21.3 8.4-23.7c5.8-2.4 22.7 10.8 22.7 10.8s-13.2-16.9-10.8-22.7zm-16.3 1.3c-2.8 1.2-4 11.4-4 11.4s-1.3-10.2-4-11.4c-2.8-1.2-10.9 5.2-10.9 5.2s6.3-8.1 5.2-10.9-11.4-4-11.4-4 10.2-1.3 11.4-4c1.2-2.8-5.2-10.9-5.2-10.9s8.1 6.3 10.9 5.2 4-11.4 4-11.4 1.3 10.2 4 11.4 10.9-5.2 10.9-5.2-6.3 8.1-5.2 10.9c1.2 2.8 11.4 4 11.4 4s-10.2 1.3-11.4 4 5.2 10.9 5.2 10.9-8.1-6.4-10.9-5.2z" fill="#f9ce1d" fill-opacity=".6"/><g id="HIDE_numbers" class="st30"><path class="st43" d="M0 3h90v18H0V3z"/><text transform="translate(5 13.283)" class="st44 st45 st46">1</text><text transform="translate(12 13.283)" class="st44 st45 st46">(0, 0 px)</text><path class="st43" d="M0 102h92v14H0v-14z"/><text transform="translate(5 112.283)" class="st44 st45 st46">2</text><text transform="translate(15.1 112.283)" class="st44 st45 st46">(0, 100 px)</text><path class="st43" d="M0 203h102v14H0v-14z"/><text transform="translate(5 213.283)" class="st44 st45 st46">3</text><text transform="translate(12 213.283)" class="st44 st45 st46">(0, 200 px)</text><path class="st43" d="M0 303h108v14H0v-14z"/><text transform="translate(5 313.283)" class="st44 st45 st46">4</text><text transform="translate(15.1 313.283)" class="st44 st45 st46">(0, 300 px)</text><path class="st43" d="M0 403h101v14H0v-14z"/><text transform="translate(5 413.283)" class="st44 st45 st46">5</text><text transform="translate(12 413.283)" class="st44 st45 st46">(0, 400 px)</text><path class="st43" d="M0 503h98v14H0v-14z"/><text transform="translate(5 513.283)" class="st44 st45 st46">6</text><text transform="translate(12 513.283)" class="st44 st45 st46">(0, 500 px)</text><path class="st43" d="M210 3h90v18h-90V3z"/><text transform="translate(215 13.283)" class="st44 st45 st46">1</text><text transform="translate(222 13.283)" class="st44 st45 st46">(210, 0 px)</text><path class="st43" d="M210 102h92v14h-92v-14z"/><text transform="translate(215 112.283)" class="st44 st45 st46">2</text><text transform="translate(222 112.283)" class="st44 st45 st46">(210, 100 px)</text><path class="st43" d="M210 203h102v14H210v-14z"/><text transform="translate(215 213.283)" class="st44 st45 st46">3</text><text transform="translate(225.1 213.283)" class="st44 st45 st46">(210, 200 px)</text><path class="st43" d="M210 303h108v14H210v-14z"/><text transform="translate(215 313.283)" class="st44 st45 st46">4</text><text transform="translate(225.1 313.283)" class="st44 st45 st46">(210, 300 px)</text><path class="st43" d="M309 3h90v18h-90V3z"/><text transform="translate(314 13.283)" class="st44 st45 st46">1</text><text transform="translate(321 13.283)" class="st44 st45 st46">(310, 0 px)</text><path class="st43" d="M309 102h92v14h-92v-14z"/><text transform="translate(314 112.283)" class="st44 st45 st46">2</text><text transform="translate(321 112.283)" class="st44 st45 st46">(310, 100 px)</text><path class="st43" d="M309 203h102v14H309v-14z"/><text transform="translate(314 213.283)" class="st44 st45 st46">3</text><text transform="translate(324.1 213.283)" class="st44 st45 st46">(310, 200 px)</text><path class="st43" d="M309 303h108v14H309v-14z"/><text transform="translate(314 313.283)" class="st44 st45 st46">4</text><text transform="translate(324.1 313.283)" class="st44 st45 st46">(310, 300 px)</text><path class="st43" d="M309 404h91v14h-91v-14z"/><text transform="translate(314 414.283)" class="st44 st45 st46">5</text><text transform="translate(324.1 414.283)" class="st44 st45 st46">(310, 300 px)</text><path class="st43" d="M210 503h101v14H210v-14z"/><text transform="translate(215 513.283)" class="st44 st45 st46">1</text><text transform="translate(225.1 513.283)" class="st44 st45 st46">(210, 500 px)</text><path class="st43" d="M210 553h101v14H210v-14z"/><text transform="translate(215 563.283)" class="st44 st45 st46">2</text><text transform="translate(225.1 563.283)" class="st44 st45 st46">(210, 550 px)</text></g><g><path d="M118.9 587.8c-2.8 0-5.3-.9-7.1-2.7-2.4-2.4-3.5-6.1-3.5-11 0-1.3 1.1-2.4 2.4-2.4s2.4 1.1 2.4 2.4c0 3.6.7 6.2 2.1 7.6.9.9 2.1 1.3 3.7 1.3 1.3 0 2.4 1.1 2.4 2.4s-1.1 2.4-2.4 2.4z" fill="#388e3c"/><path class="st4" d="M121.7 587.6c-.3 0-.6-.1-.8-.3L66.1 533c-.5-.5-.5-1.2 0-1.7s1.2-.5 1.7 0l54.8 54.3c.5.5.5 1.2 0 1.7-.3.2-.6.3-.9.3z"/><path class="st5" d="M63.9 568.8c2.9 10.3 13.8 16.2 24.2 13.2s16.5-13.7 13.6-24c-2.5-8.7 7.2-22.8-7.7-20.7-2.7.4-12.4 6.3-16.5 7.5-10.4 2.9-16.5 13.7-13.6 24z"/><path class="st10" d="M49.2 557.2l-40-21.6 101.7-17.3 19.8 10.5-27.2-1.6-54.3 30z"/><path class="st3" d="M87.4 551.3l26 16.9-21.4-.7-4.6-16.2z"/><path class="st5" d="M113.5 581.6c-.4 0-.8-.1-1.2-.3-1-.6-1.2-1.9-.6-2.9 2.3-3.5 1.6-7.3-.1-9.3-1.7-2.1-4.5-2.5-7.6-1.2-1.1.5-2.3 0-2.8-1.1s0-2.3 1.1-2.8c4.8-2.1 9.5-1.2 12.4 2.4 3.2 3.9 3.4 9.8.3 14.3-.2.6-.8.9-1.5.9z"/><path class="st6" d="M102.2 563.9L87.8 568c-5.7 1.6-9.1 7.6-7.4 13.3 1.6 5.7 7.6 9.1 13.3 7.4l14.4-4.1c5.7-1.6 9.1-7.6 7.4-13.3-1.6-5.7-7.6-9-13.3-7.4z"/><path class="st25" d="M97.8 587.6l-4 1.2-6-20.8 4-1.2 6 20.8z"/><path class="st5" d="M87.1 572l1.7-.5 4.9 17.3-1.7.5-4.9-17.3z"/><path class="st8" d="M98.1 588.9l-4 1.2-.7-2.3 4-1.2.7 2.3z"/><path class="st5" d="M107 585.7c-.6 0-1.1-.2-1.6-.7-.8-.9-.7-2.2.1-3 3.2-2.9 3.1-6.7 1.7-9.2-1.5-2.7-5.3-5-11.3-3.3-1.1.3-2.3-.3-2.6-1.4-.3-1.1.3-2.3 1.4-2.6 8.4-2.4 13.9 1.2 16.2 5.3 2.6 4.7 1.6 10.6-2.6 14.4-.3.3-.8.5-1.3.5z"/><path class="st9" d="M102.2 563.9L87.8 568c-5.1 1.5-8.3 6.4-7.8 11.5 1.3-1.5 3.1-2.7 5.1-3.2l14.4-4.1c5.7-1.6 11.7 1.7 13.3 7.4.2.6.3 1.2.3 1.9 2.3-2.7 3.3-6.4 2.3-10.1-1.5-5.8-7.5-9.1-13.2-7.5z"/><path class="st5" d="M99.7 550.4c-1.9 2.7-4.9-1.4-7.1-3.3-2.2-1.9-1.3-6.8.9-9.3s5.7-2.9 7.9-1 2.8 7-1.7 13.6z"/><path class="st3" d="M96.8 551c-3.1 3.5-5.9 1.4-7.7-.2-1.9-1.6-.9-5.8 2.1-9.2 3.1-3.5 7-4.9 8.9-3.3 2.6 2.2-.2 9.3-3.3 12.7z"/><ellipse transform="rotate(-50.283 92.123 564.68)" class="st3" cx="92.1" cy="564.7" rx="4.5" ry="6"/><path class="st9" d="M104.7 586.2c-.3 0-.6-.1-.9-.2-3.6-1.7-4.2-4.4-4.3-5.8-.1-2.9 1.9-6 5.2-7.9 1-.6 2.3-.2 2.9.8s.2 2.3-.8 2.9c-1.9 1.1-3.1 2.8-3.1 4.1 0 .8.7 1.6 1.9 2.1 1 .5 1.5 1.8 1 2.8-.4.7-1.1 1.2-1.9 1.2z"/><path class="st6" d="M113.2 590.6c-5.1 0-8.6-2.3-10.3-4.9-2.7-4.1-1.9-9.4 2.1-14 .9-1 2.4-1.1 3.4-.3 1 .9 1.1 2.4.3 3.4-2.5 2.9-3.1 6-1.7 8.2 1.8 2.7 6.2 3.5 11.3 1.9 1.3-.4 2.6.3 3 1.6s-.3 2.6-1.6 3c-2.5.8-4.6 1.1-6.5 1.1z"/><path class="st13" d="M84.8 560l1.6-15.5 13.6 1.4-1.6 15.5-13.6-1.4z"/><path class="st14" d="M107.5 559.2l-4.3-7.9 7.9-4.3 4.3 7.9-7.9 4.3z"/><path class="st15" d="M111.1 557.2l-1.6.9-4.3-7.9 1.6-.9 4.3 7.9z"/><path class="st16" d="M92.9 559.9l-.4-13.2 13.2-.4.4 13.2-13.2.4z"/><path class="st17" d="M92.7 554.5l-.1-2.4 13.2-.4.1 2.4-13.2.4z"/><path class="st17" d="M100.6 559.7l-2.4.1-.4-13.2 2.4-.1.4 13.2z"/><path class="st18" d="M97.8 566l1.9-8.8 8.8 1.9-1.9 8.8-8.8-1.9z"/><path class="st10" d="M103.2 567.2l-1.8-.4 1.9-8.8 1.8.4-1.9 8.8z"/><path class="st10" d="M98.6 562.5l.4-1.8 8.8 1.9-.4 1.8-8.8-1.9z"/><path class="st48" d="M106.2 542.6l1.9-8.8 8.8 1.9-1.9 8.8-8.8-1.9z"/><path class="st17" d="M111.5 543.8l-1.8-.4 1.9-8.8 1.8.4-1.9 8.8z"/><path class="st17" d="M106.9 539.2l.4-1.8 8.8 1.9-.4 1.8-8.8-1.9z"/><path class="st48" d="M133 597.6l-4-8.1 8.1-4 4 8.1-8.1 4z"/><path class="st17" d="M137.9 595.2l-1.6.8-4-8.1 1.6-.8 4 8.1z"/><path class="st17" d="M131.5 594.4l-.8-1.6 8.1-4 .8 1.6-8.1 4z"/><path class="st19" d="M106.9 566.1l-5-7.5 7.5-5 5 7.5-7.5 5z"/><path class="st20" d="M111.5 563l-1.5 1-5-7.5 1.5-1 5 7.5z"/><path class="st20" d="M105 563.1l-1-1.5 7.5-5 1 1.5-7.5 5z"/><path class="st5" d="M84.6 541.6l11.5 24.1 4.2 2.5-30 8.6 4.2-30.9 10.1-4.3z"/><path class="st4" d="M65.2 533.6c-.6-.1-.9-.5-.8-1l4.4-27.3c.1-.5.5-.8 1-.7.5.1.8.5.7 1l-4.4 27.3c-.1.4-.5.7-.9.7z"/><path class="st11" d="M135.2 516c-.2-.6 0-1.2.6-1.5s1.3-.1 1.6.5l1.7 3.2c.3.6.1 1.3-.5 1.6s-1.3.1-1.6-.5l-1.7-3.2-.1-.1z"/><path class="st11" d="M130.4 514.5c-.2-.6 0-1.2.6-1.5 1.1-.6 2.4-.7 3.7-.3 1.2.4 2.2 1.2 2.8 2.4.3.6.1 1.3-.5 1.6s-1.3.1-1.6-.5c-.6-1.2-2.1-1.6-3.2-1-.6.3-1.3.1-1.6-.5-.2-.1-.2-.2-.2-.2zm-10.2 1.2c-.2-.6 0-1.2.6-1.5s1.3-.1 1.6.5c.3.6.8 1 1.4 1.2s1.3.1 1.8-.2c.6-.3 1.3-.1 1.6.5.3.6.1 1.3-.5 1.6-1.1.6-2.4.7-3.7.3-1.2-.4-2.2-1.2-2.8-2.4 0 .1 0 .1 0 0z"/><path class="st11" d="M125 513.2c-.2-.6 0-1.2.6-1.5s1.3-.1 1.6.5c.6 1.2 2.1 1.6 3.2 1 .6-.3 1.3-.1 1.6.5s.1 1.3-.5 1.6c-1.1.6-2.4.7-3.7.3-1.2-.4-2.2-1.2-2.8-2.4 0 .1 0 .1 0 0z"/><path class="st11" d="M125.1 517.3c-.2-.6 0-1.2.6-1.5l5.3-2.8c.6-.3 1.3-.1 1.6.5s.1 1.3-.5 1.6l-5.3 2.8c-.6.3-1.3.1-1.6-.5l-.1-.1z"/><path class="st8" d="M131.8 520.8l-1.4 11.9-22.1-9.6-79.5 27.3-19.6-14.8 99.2-23.1 23.4 8.3zm0 0l34.4-17.2c1.4-.7 2.5 1.3 1.2 2.1l-36.9 26.9 1.3-11.8z"/><ellipse transform="rotate(-27.498 145.786 512.138)" class="st26" cx="145.8" cy="512.1" rx="2.4" ry="4.2"/><path class="st25" d="M142.9 512.7c-.9-2.3-.6-4.4.8-5.1.8-.4 1.8-.3 2.8.3.9.6 1.7 1.5 2.2 2.6 1.3 2.5 1.1 5-.5 5.8-1.5.8-3.8-.5-5-2.9-.1-.3-.2-.5-.3-.7zm4.8-1l-.3-.6c-.5-.9-1.1-1.6-1.8-2-.5-.3-1-.4-1.4-.3-.6.3-.8 1.7-.2 3.3l.3.6c.9 1.8 2.4 2.7 3.1 2.3.8-.3 1-1.6.3-3.3z"/><circle class="st28" cx="166.5" cy="504.6" r="3.6"/><path class="st22" d="M136.5 556.7l-6.2 7.6 2.9 3.7 4.4-10.3c.6-1.4-.7-1.9-1.1-1z"/><path class="st9" d="M136.5 556.7l-6.2 7.6 2.9 3.7 4.4-10.3c.6-1.4-.7-1.9-1.1-1z"/><path class="st21" d="M118.9 560.9l-7.1-5.8s1.2 11.7 7 8.6l.1-2.8z"/><path class="st27" d="M115.9 575.8c-.6 0-1.2-.2-1.7-.5-2.7-1.9-4.7-4.7-5.6-7.9-.4-1.6.5-3.2 2.1-3.7 1.6-.4 3.2.5 3.7 2.1.5 1.9 1.7 3.5 3.3 4.6 1.4.9 1.7 2.8.8 4.2-.7.7-1.6 1.2-2.6 1.2z"/><ellipse transform="rotate(-11.304 123.46 564.13)" class="st22" cx="123.4" cy="564.1" rx="10.8" ry="10.8"/><path class="st9" d="M120.5 553.7c-.7.2-1.3.5-2 .8 5-.4 9.8 2.8 11.3 7.8 1.4 5-1 10.3-5.5 12.6.7-.1 1.4-.2 2.1-.4 5.7-1.6 9.1-7.6 7.4-13.3-1.6-5.8-7.6-9.1-13.3-7.5z"/><circle class="st1" cx="119.4" cy="588.3" r="5.7"/><path class="st2" d="M113.7 580.7c-1.5 0-2.7 1.2-2.7 2.7l-.1 9.7c0 1.5 1.2 2.7 2.7 2.7s2.7-1.2 2.7-2.7l.1-9.7c0-1.4-1.2-2.6-2.7-2.7z"/><path class="st6" d="M119.4 552.2s-1.1-2.8 8.8-6.3c-2.6-1.5-21.9 2.6-16.7 20.6.8 2.6 2.3 4.8 4.4 6.3 3.6-1.2 8.3-3.9 6.8-9.6-1.6-5.7 1.9-8.2 5.9-9.1-2.6-1.8-5.9-2.9-9.2-1.9z"/><path class="st9" d="M119 565.4c.8 3.1-.2 5.3-1.8 6.9 3.4-1.4 6.9-4.1 5.5-9.2-.8-2.9-.3-5 1-6.4-3.5 1.1-6.1 3.6-4.7 8.7zm.4-13.2s-1.1-2.8 8.8-6.3c-.5-.3-1.5-.3-2.9-.2.2 0 .4.1.6.2-9.9 3.4-10.3 8.6-10.3 8.6 3.1-.9 6.2 0 8.7 1.5 1.1-1 2.7-1.6 4.3-2-2.6-1.7-5.9-2.8-9.2-1.8z"/><circle class="st24" cx="127.7" cy="546.1" r="3"/><path class="st24" d="M115.9 574c-.5 0-1-.3-1.1-.8-.2-.6.1-1.3.8-1.5 5-1.7 7-4.4 6-8.2-.7-2.6-.5-4.8.5-6.6 1.2-1.9 3.3-3.3 6.3-4 .6-.2 1.3.3 1.4.9.1.6-.3 1.3-.9 1.4-2.4.5-4 1.5-4.8 2.9-.7 1.2-.8 2.8-.3 4.8 1.4 5-1.4 9-7.6 11.1 0-.1-.2 0-.3 0z"/><path class="st25" d="M134.4 561l-23.1 6.6-.8-2.9 23.1-6.6.8 2.9z"/><ellipse transform="rotate(-15.903 129.315 560.584)" class="st26" cx="129.3" cy="560.6" rx="3.2" ry="5.6"/><path class="st25" d="M130.3 566.7c-2 0-3.9-2.1-4.8-5.1-.4-1.5-.5-3.1-.2-4.4.4-1.4 1.1-2.4 2.2-2.7.2-.1.5-.1.7-.1 1.9 0 3.9 2.1 4.8 5.1.4 1.5.5 3.1.2 4.4-.4 1.4-1.1 2.4-2.2 2.7-.2.1-.4.1-.7.1zm-2-10.9h-.3c-.6.2-1 .8-1.2 1.7-.3 1.1-.2 2.4.2 3.7.8 2.8 2.6 4.3 3.7 4 .6-.2 1-.8 1.2-1.7.3-1.1.2-2.4-.2-3.7-.7-2.4-2.3-4-3.4-4z"/><ellipse transform="matrix(.06652 -.9978 .9978 .06652 -446.476 656.779)" class="st22" cx="127.8" cy="567" rx="3.9" ry="3.9"/><path class="st9" d="M131.8 520.8l-1.4 11.9-22.1-9.6.1-10.6 23.4 8.3z"/><path class="st4" d="M133.1 517.1c-.2-.6 0-1.2.6-1.5s1.3-.1 1.6.5l1.7 3.2c.3.6.1 1.3-.5 1.6s-1.3.1-1.6-.5l-1.7-3.2s-.1 0-.1-.1z"/><path class="st4" d="M128.3 515.6c-.2-.6 0-1.2.6-1.5 2.3-1.2 5.3-.3 6.5 2 .3.6.1 1.3-.5 1.6s-1.3.1-1.6-.5c-.6-1.2-2.1-1.6-3.2-1-.6.3-1.3.1-1.6-.5-.2 0-.2-.1-.2-.1zm-10.2 1.3c-.2-.6 0-1.2.6-1.5s1.3-.1 1.6.5c.6 1.2 2.1 1.6 3.2 1 .6-.3 1.3-.1 1.6.5.3.6.1 1.3-.5 1.6-2.3 1.2-5.3.3-6.5-2.1 0 .1 0 0 0 0z"/><path class="st4" d="M122.9 514.4c-.2-.6 0-1.2.6-1.5s1.3-.1 1.6.5c.6 1.2 2.1 1.6 3.2 1 .6-.3 1.3-.1 1.6.5s.1 1.3-.5 1.6c-2.3 1.2-5.3.3-6.5-2.1 0 .1 0 0 0 0z"/><path class="st4" d="M122.9 518.4c-.2-.6 0-1.2.6-1.5l5.3-2.8c.6-.3 1.3-.1 1.6.5s.1 1.3-.5 1.6l-5.3 2.8c-.6.3-1.3.1-1.6-.5 0 0 0-.1-.1-.1z"/><path class="st27" d="M119.1 589.6c-.3 0-.6-.1-.9-.4l-53.9-55.7c-.5-.5-.4-1.2 0-1.7.5-.5 1.2-.4 1.7 0l53.9 55.7c.5.5.4 1.2 0 1.7-.2.3-.5.4-.8.4z"/><path class="st0" d="M83.7 581.2c3.3 3.6 2.4 3.3 6.6 7.8"/><g><path class="st7" d="M100.9 582.9c2 2.1 1.8 5.4-.3 7.4-1.6 1.5-4.2 1.4-5.7-.2l-2.6-2.8-4 3.6 8 8.6c.5.5 1.4.6 1.9.1l9.7-8.9c2.1-1.9 2.4-5.2.5-7.3-1.9-2.3-5.3-2.5-7.5-.5z"/><path class="st8" d="M95.8 591.1l-1.5 1.4c-.5.5-1.4.5-1.9-.1-.5-.5-.5-1.4.1-1.9l1.5-1.4c.5-.5 1.4-.5 1.9.1s.5 1.4-.1 1.9z"/></g></g></svg>