<svg xmlns="http://www.w3.org/2000/svg" viewBox="0 0 214 1200" enable-background="new 0 0 214 1200"><style type="text/css">.st0{fill:#993366;} .st1{opacity:0.2;fill:#231F20;} .st2{fill:#4527A0;}</style><path class="st0" d="M214 1177v-4H0v4l6 2v12l-6 2v4h214v-4l-6-2v-12z"/><path class="st1" d="M0 1193l6-2v-12l-6-2h214l-6 2v12l6 2z"/><path class="st2" d="M28 1169h15v31H28z"/><path class="st2" d="M168 1169h15v31h-15z"/><circle class="st2" cx="107" cy="1109" r="9"/><path class="st2" d="M109 0h4v1109h-4z"/><path class="st2" d="M34.5 1172c-.8 0-1.5-.4-1.8-1.2-.4-1 0-2.2 1-2.6l73.5-32c1-.4 2.2 0 2.6 1 .4 1 0 2.2-1 2.6l-73.5 32c-.3.1-.5.2-.8.2z"/><path class="st2" d="M176.5 1172c-.3 0-.6-.1-.8-.2l-70.5-32c-1-.5-1.5-1.6-1-2.6s1.6-1.5 2.6-1l70.5 32c1 .5 1.5 1.6 1 2.6-.3.8-1 1.2-1.8 1.2z"/><path class="st2" d="M101 0h4v1109h-4z"/><path class="st2" d="M109 1115v7l-2-2c1 0 2 .2 2.9.5.9.3 1.8.7 2.6 1.3.8.6 1.5 1.2 2.1 2 .6.8 1.1 1.6 1.4 2.5.3.9.5 1.8.6 2.8v1.5c0 .3-.1.9-.2 1.4-.2.9-.5 1.8-1 2.6s-1 1.6-1.7 2.2c-.7.6-1.4 1.2-2.3 1.6-.8.4-1.7.7-2.6.9-.5.1-.9.1-1.4.1h-1.2c-1-.1-1.9-.4-2.7-.7-.8-.4-1.6-.9-2.3-1.4-.7-.6-1.3-1.3-1.8-2-.5-.8-.8-1.6-1.1-2.4-.2-.9-.3-1.7-.3-2.6 0-.6.5-1 1-1s1 .4 1 .9v.1c0 .7.1 1.4.4 2 .2.6.5 1.3.9 1.8s.9 1 1.4 1.4c.5.4 1.1.7 1.7 1 .6.2 1.3.4 1.9.4l.6.2h.1v-.1H107.3c.3 0 .6-.1 1-.2.6-.2 1.2-.4 1.8-.7.6-.3 1.1-.7 1.5-1.2.4-.5.8-1 1.1-1.6.3-.6.5-1.2.6-1.8 0-.3.1-.5.1-.9l-.1-.9c-.1-.6-.2-1.2-.5-1.8-.3-.6-.6-1.1-1-1.5-.4-.5-.9-.8-1.4-1.2-.5-.3-1.1-.5-1.6-.7-.6-.1-1.2-.2-1.8-.2h-.1c-1.1-.1-1.9-1-1.9-2v-7c0-1.1.9-2 2-2s2 .6 2 1.7z"/><circle class="st1" cx="107" cy="1109" r="5"/><circle class="st2" cx="107" cy="1138" r="4"/></svg>