<svg xmlns="http://www.w3.org/2000/svg" viewBox="0 0 400 526"><style>.st0{fill:#4527a0}.st1{fill:#5e35b1}.st2{opacity:.2;fill:#231f20}.st3{fill:#999}.st4{fill:#607d8b}.st5{fill:#577380}.st6{fill:#ba68c8}.st7{opacity:.2;fill:#fff}.st8{fill:#fce68d}.st9{fill:#fff}</style><path class="st0" d="M190 2h-70v16h8v100h54V18h8z"/><path class="st1" d="M138 18h2v22h-2zm0 40h2v22h-2zm0 40h2v20h-2z"/><path class="st1" d="M128 38h54v2h-54zm0-20h54v2h-54zm0 40h54v2h-54zm0 20h54v2h-54zm0 20h54v2h-54z"/><path class="st1" d="M170 78h2v22h-2zm0-40h2v22h-2zM153 2h2v16h-2z"/><path class="st2" d="M182 35.8l-54-10V18h54z"/><path class="st0" d="M110 2H40v16h8v100h54V18h8z"/><path class="st1" d="M58 18h2v22h-2zm0 40h2v22h-2zm0 40h2v20h-2z"/><path class="st1" d="M48 38h54v2H48zm0-20h54v2H48zm0 40h54v2H48zm0 20h54v2H48zm0 20h54v2H48z"/><path class="st1" d="M90 78h2v22h-2zm0-40h2v22h-2zM73 2h2v16h-2z"/><path class="st2" d="M102 35.8l-54-10V18h54z"/><path class="st3" d="M257 50h-54v16h8v100h38V66h8z"/><path class="st4" d="M211 86h38v2h-38zm0-20h38v2h-38zm0 40h38v2h-38zm0 20h38v2h-38zm0 20h38v2h-38zm17-96h2v16h-2z"/><path class="st2" d="M249 83.8l-38-10V66h38z"/><path class="st4" d="M30 111h340v415H30z"/><path class="st5" d="M30 111v29l340 20v-49z"/><path class="st2" d="M110 239h60v6h-60zm120 0h60v6h-60zm-120 80h60v6h-60zm120 0h60v6h-60zm-120 80h60v6h-60zm120 0h60v6h-60zm-120 80h60v6h-60zm120 0h60v6h-60z"/><path class="st6" d="M6 96h388v31H6z"/><path class="st7" d="M110 340h27v27h-27zm33 0h27v27h-27zm-33 32h27v27h-27zm33 0h27v27h-27z"/><path class="st8" d="M230 340h27v27h-27zm33 0h27v27h-27zm-33 32h27v27h-27zm33 0h27v27h-27zm0-80h27v27h-27zm-33 0h27v27h-27zm33-32h27v27h-27zm-33 0h27v27h-27z"/><path class="st7" d="M143 292h27v27h-27zm-33 0h27v27h-27zm33-32h27v27h-27zm-33 0h27v27h-27zm0-80h27v27h-27zm33 0h27v27h-27zm-33 32h27v27h-27zm33 0h27v27h-27zm87-32h27v27h-27zm33 0h27v27h-27zm-33 32h27v27h-27zm33 0h27v27h-27zm0 240h27v27h-27zm-33 0h27v27h-27zm33-32h27v27h-27zm-33 0h27v27h-27z"/><path class="st8" d="M143 452h27v27h-27zm-33 0h27v27h-27zm33-32h27v27h-27zm-33 0h27v27h-27z"/><path class="st9" d="M23.6 128c0 4-3.6 8.1-8.1 8.1S7.4 132 7.4 128h16.2z"/><path class="st9" d="M15.6 136.9c-4.9 0-8.9-4.1-8.9-9 0-.5.4-.9.8-.9h16.2c.5 0 .8.5.8.9 0 4.9-4 9-8.9 9zM8.4 129c.4 3 3.5 6.4 7.2 6.4s6.8-3.4 7.2-6.4H8.4z"/><path class="st9" d="M39.8 128c0 4-3.6 8.1-8.1 8.1s-8.1-4.1-8.1-8.1h16.2z"/><path class="st9" d="M31.7 136.9c-4.9 0-8.9-4.1-8.9-9 0-.5.4-.9.8-.9h16.2c.5 0 .8.5.8.9.1 4.9-3.9 9-8.9 9zm-7.2-7.9c.4 3 3.5 6.4 7.2 6.4s6.8-3.4 7.2-6.4H24.5z"/><path class="st9" d="M56 128c0 4-3.6 8.1-8.1 8.1s-8.1-4.1-8.1-8.1H56z"/><path class="st9" d="M47.9 136.9c-4.9 0-8.9-4.1-8.9-9 0-.5.4-.9.8-.9H56c.5 0 .8.5.8.9 0 4.9-4 9-8.9 9zm-7.2-7.9c.4 3 3.5 6.4 7.2 6.4s6.8-3.4 7.2-6.4H40.7zm319.5-1c0 4-3.6 8.1-8.1 8.1S344 132 344 128h16.2z"/><path class="st9" d="M352.1 136.9c-4.9 0-8.9-4.1-8.9-9 0-.5.4-.9.8-.9h16.2c.5 0 .8.5.8.9 0 4.9-4 9-8.9 9zm-7.2-7.9c.4 3 3.5 6.4 7.2 6.4s6.8-3.4 7.2-6.4h-14.4z"/><path class="st9" d="M376.4 128c0 4-3.6 8.1-8.1 8.1s-8.1-4.1-8.1-8.1h16.2z"/><path class="st9" d="M368.3 136.9c-4.9 0-8.9-4.1-8.9-9 0-.5.4-.9.8-.9h16.2c.5 0 .8.5.8.9 0 4.9-4 9-8.9 9zm-7.2-7.9c.4 3 3.5 6.4 7.2 6.4s6.8-3.4 7.2-6.4h-14.4z"/><path class="st9" d="M392.5 128c0 4-3.6 8.1-8.1 8.1s-8.1-4.1-8.1-8.1h16.2z"/><path class="st9" d="M384.4 136.9c-4.9 0-8.9-4.1-8.9-9 0-.5.4-.9.8-.9h16.2c.5 0 .8.5.8.9.1 4.9-3.9 9-8.9 9zm-7.2-7.9c.4 3 3.5 6.4 7.2 6.4s6.8-3.4 7.2-6.4h-14.4zm-70-1c0 4-3.6 8.1-8.1 8.1S291 132 291 128h16.2z"/><path class="st9" d="M299.1 136.9c-4.9 0-8.9-4.1-8.9-9 0-.5.4-.9.8-.9h16.2c.5 0 .8.5.8.9 0 4.9-4 9-8.9 9zm-7.2-7.9c.4 3 3.5 6.4 7.2 6.4s6.8-3.4 7.2-6.4h-14.4z"/><path class="st9" d="M323.4 128c0 4-3.6 8.1-8.1 8.1s-8.1-4.1-8.1-8.1h16.2z"/><path class="st9" d="M315.3 136.9c-4.9 0-8.9-4.1-8.9-9 0-.5.4-.9.8-.9h16.2c.5 0 .8.5.8.9 0 4.9-4 9-8.9 9zm-7.2-7.9c.4 3 3.5 6.4 7.2 6.4s6.8-3.4 7.2-6.4h-14.4z"/><path class="st9" d="M339.5 128c0 4-3.6 8.1-8.1 8.1s-8.1-4.1-8.1-8.1h16.2z"/><path class="st9" d="M331.4 136.9c-4.9 0-8.9-4.1-8.9-9 0-.5.4-.9.8-.9h16.2c.5 0 .8.5.8.9.1 4.9-3.9 9-8.9 9zm-7.2-7.9c.4 3 3.5 6.4 7.2 6.4s6.8-3.4 7.2-6.4h-14.4zm-81-1c0 4-3.6 8.1-8.1 8.1S227 132 227 128h16.2z"/><path class="st9" d="M235.1 136.9c-4.9 0-8.9-4.1-8.9-9 0-.5.4-.9.8-.9h16.2c.5 0 .8.5.8.9 0 4.9-4 9-8.9 9zm-7.2-7.9c.4 3 3.5 6.4 7.2 6.4s6.8-3.4 7.2-6.4h-14.4z"/><path class="st9" d="M259.4 128c0 4-3.6 8.1-8.1 8.1s-8.1-4.1-8.1-8.1h16.2z"/><path class="st9" d="M251.3 136.9c-4.9 0-8.9-4.1-8.9-9 0-.5.4-.9.8-.9h16.2c.5 0 .8.5.8.9 0 4.9-4 9-8.9 9zm-7.2-7.9c.4 3 3.5 6.4 7.2 6.4s6.8-3.4 7.2-6.4h-14.4z"/><path class="st9" d="M275.5 128c0 4-3.6 8.1-8.1 8.1s-8.1-4.1-8.1-8.1h16.2z"/><path class="st9" d="M267.4 136.9c-4.9 0-8.9-4.1-8.9-9 0-.5.4-.9.8-.9h16.2c.5 0 .8.5.8.9.1 4.9-3.9 9-8.9 9zm-7.2-7.9c.4 3 3.5 6.4 7.2 6.4s6.8-3.4 7.2-6.4h-14.4zM123.7 246c0 4-3.6 8.1-8.1 8.1s-8.1-4.1-8.1-8.1h16.2z"/><path class="st9" d="M115.6 254.8c-4.9 0-8.9-4-8.9-9 0-.5.4-.9.8-.9h16.2c.5 0 .8.4.8.9.1 5-3.9 9-8.9 9zm-7.2-7.8c.4 3 3.5 6.4 7.2 6.4s6.8-3.4 7.2-6.4h-14.4z"/><path class="st9" d="M139.9 246c0 4-3.6 8.1-8.1 8.1s-8.1-4.1-8.1-8.1h16.2z"/><path class="st9" d="M131.8 254.8c-4.9 0-8.9-4-8.9-9 0-.5.4-.9.8-.9h16.2c.5 0 .8.4.8.9 0 5-4 9-8.9 9zm-7.2-7.8c.4 3 3.5 6.4 7.2 6.4s6.8-3.4 7.2-6.4h-14.4z"/><path class="st9" d="M156.1 246c0 4-3.6 8.1-8.1 8.1s-8.1-4.1-8.1-8.1h16.2z"/><path class="st9" d="M148 254.8c-4.9 0-8.9-4-8.9-9 0-.5.4-.9.8-.9h16.2c.5 0 .8.4.8.9 0 5-4 9-8.9 9zm-7.2-7.8c.4 3 3.5 6.4 7.2 6.4s6.8-3.4 7.2-6.4h-14.4zm102.9 78c0 4-3.6 8.1-8.1 8.1s-8.1-4.1-8.1-8.1h16.2z"/><path class="st9" d="M235.6 333.9c-4.9 0-8.9-4.1-8.9-9 0-.5.4-.9.8-.9h16.2c.5 0 .8.4.8.9.1 4.9-3.9 9-8.9 9zm-7.2-7.9c.4 3 3.5 6.4 7.2 6.4s6.8-3.4 7.2-6.4h-14.4z"/><path class="st9" d="M259.9 325c0 4-3.6 8.1-8.1 8.1s-8.1-4.1-8.1-8.1h16.2z"/><path class="st9" d="M251.8 333.9c-4.9 0-8.9-4.1-8.9-9 0-.5.4-.9.8-.9h16.2c.5 0 .8.4.8.9 0 4.9-4 9-8.9 9zm-7.2-7.9c.4 3 3.5 6.4 7.2 6.4s6.8-3.4 7.2-6.4h-14.4z"/><path class="st9" d="M276.1 325c0 4-3.6 8.1-8.1 8.1s-8.1-4.1-8.1-8.1h16.2z"/><path class="st9" d="M268 333.9c-4.9 0-8.9-4.1-8.9-9 0-.5.4-.9.8-.9h16.2c.5 0 .8.4.8.9 0 4.9-4 9-8.9 9zm-7.2-7.9c.4 3 3.5 6.4 7.2 6.4s6.8-3.4 7.2-6.4h-14.4zm-122.1 80c0 4-3.6 8.1-8.1 8.1s-8.1-4.1-8.1-8.1h16.2z"/><path class="st9" d="M130.6 414.9c-4.9 0-8.9-4.1-8.9-9 0-.5.4-.9.8-.9h16.2c.5 0 .8.4.8.9.1 4.9-3.9 9-8.9 9zm-7.2-7.9c.4 3 3.5 6.4 7.2 6.4s6.8-3.4 7.2-6.4h-14.4z"/><path class="st9" d="M154.9 406c0 4-3.6 8.1-8.1 8.1s-8.1-4.1-8.1-8.1h16.2z"/><path class="st9" d="M146.8 414.9c-4.9 0-8.9-4.1-8.9-9 0-.5.4-.9.8-.9h16.2c.5 0 .8.4.8.9 0 4.9-4 9-8.9 9zm-7.2-7.9c.4 3 3.5 6.4 7.2 6.4s6.8-3.4 7.2-6.4h-14.4z"/><path class="st9" d="M171.1 406c0 4-3.6 8.1-8.1 8.1s-8.1-4.1-8.1-8.1h16.2z"/><path class="st9" d="M163 414.9c-4.9 0-8.9-4.1-8.9-9 0-.5.4-.9.8-.9h16.2c.5 0 .8.4.8.9 0 4.9-4 9-8.9 9zm-7.2-7.9c.4 3 3.5 6.4 7.2 6.4s6.8-3.4 7.2-6.4h-14.4z"/></svg>