<svg xmlns="http://www.w3.org/2000/svg" xmlns:xlink="http://www.w3.org/1999/xlink" viewBox="0 0 400 194" enable-background="new 0 0 400 194"><style type="text/css">.st0{fill:#4527A0;} .st1{fill:#5E35B1;} .st2{opacity:0.2;fill:#231F20;} .st3{fill:#8E24AA;} .st4{fill:#7CB342;} .st5{fill:#B39DDB;} .st6{fill:#FCE68D;} .st7{opacity:0.1;fill:#231F20;} .st8{fill:#FFFFFF;stroke:#FFFFFF;stroke-width:2;stroke-linejoin:round;stroke-miterlimit:10;}</style><symbol id="mc-chimney-med" viewBox="0 -116 70 116"><path class="st0" d="M70 0H0v-16h8v-100h54v100h8z"/><path class="st1" d="M20-16v-22h-2v22z"/><path class="st1" d="M20-56v-22h-2v22z"/><path class="st1" d="M20-96v-20h-2v20z"/><path class="st1" d="M62-38H8v2h54z"/><path class="st1" d="M62-18H8v2h54z"/><path class="st1" d="M62-58H8v2h54z"/><path class="st1" d="M62-78H8v2h54z"/><path class="st1" d="M62-98H8v2h54z"/><path class="st1" d="M52-76v-22h-2v22z"/><path class="st1" d="M52-36v-22h-2v22z"/><path class="st1" d="M35.3 0v-15.8h-2V0z"/><path class="st2" d="M62-34L8-24v8h54z"/></symbol><use xlink:href="#mc-chimney-med" width="70" height="116" y="-116" transform="matrix(1 0 0 -1 34 8)" overflow="visible"/><path class="st3" d="M30 107h340v87H30z"/><path class="st4" d="M200 2L6 107v10c0 4.4 3.6 8 8 8s8-3.6 8-8c0 4.4 3.6 8 8 8h.1c4.5 0 8.1-3.6 8.1-8 0 4.4 3.6 8 8.1 8s8.1-3.6 8.1-8c0 4.4 3.6 8 8.1 8s8.1-3.6 8.1-8c0 4.4 3.6 8 8.1 8s8.1-3.6 8.1-8c0 4.4 3.6 8 8.1 8s8.1-3.6 8.1-8c0 4.4 3.6 8 8.1 8s8.1-3.6 8.1-8c0 4.4 3.6 8 8.1 8s8.1-3.6 8.1-8c0 4.4 3.6 8 8.1 8s8.1-3.6 8.1-8c0 4.4 3.6 8 8.1 8s8.1-3.6 8.1-8c0 4.4 3.6 8 8.1 8s8.1-3.6 8.1-8c0 4.4 3.6 8 8.1 8s8.1-3.6 8.1-8c0 4.4 3.6 8 8.1 8s8.1-3.6 8.1-8c0 4.4 3.6 8 8.1 8s8.1-3.6 8.1-8c0 4.4 3.6 8 8.1 8s8.1-3.6 8.1-8c0 4.4 3.6 8 8.1 8s8.1-3.6 8.1-8c0 4.4 3.6 8 8.1 8s8.1-3.6 8.1-8c0 4.4 3.6 8 8.1 8s8.1-3.6 8.1-8c0 4.4 3.6 8 8.1 8s8.1-3.6 8.1-8c0 4.4 3.6 8 8.1 8s8.1-3.6 8.1-8c0 4.4 3.6 8 8.1 8s8.1-3.6 8.1-8c0 4.4 3.6 8 8.1 8s8.1-3.6 8.1-8c0 4.4 3.6 8 8 8s8-3.6 8-8c0 4.4 3.6 8 8 8s8-3.6 8-8v-10L200 2z"/><path class="st5" d="M109 147h27v27h-27z"/><path class="st5" d="M142 147h27v27h-27z"/><path class="st6" d="M229 147h27v27h-27z"/><path class="st6" d="M262 147h27v27h-27z"/><path class="st7" d="M362 117c0 4.4-3.6 8-8.1 8s-8.1-3.6-8.1-8c0 4.4-3.6 8-8.1 8s-8.1-3.6-8.1-8c0 4.4-3.6 8-8.1 8s-8.1-3.6-8.1-8c0 4.4-3.6 8-8.1 8s-8.1-3.6-8.1-8c0 4.4-3.6 8-8.1 8s-8.1-3.6-8.1-8c0 4.4-3.6 8-8.1 8s-8.1-3.6-8.1-8c0 4.4-3.6 8-8.1 8s-8.1-3.6-8.1-8c0 4.4-3.6 8-8.1 8s-8.1-3.6-8.1-8c0 4.4-3.6 8-8.1 8s-8.1-3.6-8.1-8c0 4.4-3.6 8-8.1 8s-8.1-3.6-8.1-8c0 4.4-3.6 8-8.1 8s-8.1-3.6-8.1-8c0 4.4-3.6 8-8.1 8s-8.1-3.6-8.1-8c0 4.4-3.6 8-8.1 8s-8.1-3.6-8.1-8c0 4.4-3.6 8-8.1 8s-8.1-3.6-8.1-8c0 4.4-3.6 8-8.1 8s-8.1-3.6-8.1-8c0 4.4-3.6 8-8.1 8s-8.1-3.6-8.1-8c0 4.4-3.6 8-8.1 8s-8.1-3.6-8.1-8c0 4.4-3.6 8-8.1 8s-8.1-3.6-8.1-8c0 4.4-3.6 8-8.1 8s-8.1-3.6-8.1-8c0 4.4-3.6 8-8.1 8s-8.1-3.6-8.1-8c0 4.4-3.6 8-8.1 8h-.1v12h.1c4.5 0 8.1-3.6 8.1-8 0 4.4 3.6 8 8.1 8s8.1-3.6 8.1-8c0 4.4 3.6 8 8.1 8s8.1-3.6 8.1-8c0 4.4 3.6 8 8.1 8s8.1-3.6 8.1-8c0 4.4 3.6 8 8.1 8s8.1-3.6 8.1-8c0 4.4 3.6 8 8.1 8s8.1-3.6 8.1-8c0 4.4 3.6 8 8.1 8s8.1-3.6 8.1-8c0 4.4 3.6 8 8.1 8s8.1-3.6 8.1-8c0 4.4 3.6 8 8.1 8s8.1-3.6 8.1-8c0 4.4 3.6 8 8.1 8s8.1-3.6 8.1-8c0 4.4 3.6 8 8.1 8s8.1-3.6 8.1-8c0 4.4 3.6 8 8.1 8s8.1-3.6 8.1-8c0 4.4 3.6 8 8.1 8s8.1-3.6 8.1-8c0 4.4 3.6 8 8.1 8s8.1-3.6 8.1-8c0 4.4 3.6 8 8.1 8s8.1-3.6 8.1-8c0 4.4 3.6 8 8.1 8s8.1-3.6 8.1-8c0 4.4 3.6 8 8.1 8s8.1-3.6 8.1-8c0 4.4 3.6 8 8.1 8s8.1-3.6 8.1-8c0 4.4 3.6 8 8.1 8s8.1-3.6 8.1-8c0 4.4 3.6 8 8.1 8s8.1-3.6 8.1-8c0 4.4 3.6 8 8.1 8s8.1-3.6 8.1-8c0 4.4 3.6 8 8 8v-12c-4.4 0-8-3.6-8-8z"/><path class="st8" d="M45.2 103c0 4-3.6 8.1-8.1 8.1S29 107 29 103h16.2z"/><path class="st8" d="M61.4 103c0 4-3.6 8.1-8.1 8.1s-8.1-4.1-8.1-8.1h16.2z"/><path class="st8" d="M77.5 103c0 4-3.6 8.1-8.1 8.1s-8.1-4.1-8.1-8.1h16.2z"/><path class="st8" d="M259.7 103c0 4-3.6 8.1-8.1 8.1s-8.1-4.1-8.1-8.1h16.2z"/><path class="st8" d="M275.9 103c0 4-3.6 8.1-8.1 8.1s-8.1-4.1-8.1-8.1h16.2z"/><path class="st8" d="M292.1 103c0 4-3.6 8.1-8.1 8.1s-8.1-4.1-8.1-8.1h16.2z"/><path class="st8" d="M313.6 103c0 4-3.6 8.1-8.1 8.1s-8.1-4.1-8.1-8.1h16.2z"/><path class="st8" d="M329.8 103c0 4-3.6 8.1-8.1 8.1s-8.1-4.1-8.1-8.1h16.2z"/><path class="st8" d="M346 103c0 4-3.6 8.1-8.1 8.1s-8.1-4.1-8.1-8.1H346z"/></svg>