<svg xmlns="http://www.w3.org/2000/svg" xmlns:xlink="http://www.w3.org/1999/xlink" viewBox="0 0 400 200" enable-background="new 0 0 400 200"><style type="text/css">.st0{fill:#424242;} .st1{fill:#7C6959;} .st2{opacity:0.2;fill:#231F20;} .st3{fill:#8E24AA;} .st4{fill:#00ACC1;} .st5{opacity:0.1;fill:#FFFFFF;} .st6{fill:#FCE68D;} .st7{opacity:0.1;fill:#231F20;} .st8{fill:#FFFFFF;stroke:#FFFFFF;stroke-width:1.6715;stroke-linejoin:round;stroke-miterlimit:10;}</style><symbol id="mc-chimney-big" viewBox="0 -116 100 116"><path class="st0" d="M100 0H0v-16h8v-100h84v100h8z"/><path class="st1" d="M92-18H8v2h84z"/><path class="st1" d="M51-16v-22h-2v22z"/><path class="st1" d="M51-56v-22h-2v22z"/><path class="st1" d="M51-96v-20h-2v20z"/><path class="st1" d="M81-76v-22h-2v22z"/><path class="st1" d="M21-76v-22h-2v22z"/><path class="st1" d="M92-38H8v2h84z"/><path class="st1" d="M92-58H8v2h84z"/><path class="st1" d="M92-78H8v2h84z"/><path class="st1" d="M92-98H8v2h84z"/><path class="st2" d="M92-34L8-24v8h84z"/><path class="st1" d="M81-36v-22h-2v22z"/><path class="st1" d="M21-36v-22h-2v22z"/><path class="st1" d="M81 0v-15.8h-2V0z"/><path class="st1" d="M21 0v-15.8h-2V0z"/></symbol><use xlink:href="#mc-chimney-big" width="100" height="116" y="-116" transform="matrix(1 0 0 -1 269 2)" overflow="visible"/><path class="st3" d="M30 113h340v87H30z"/><path class="st4" d="M200 8L6 113v10c0 4.4 3.6 8 8 8s8-3.6 8-8c0 4.4 3.6 8 8 8h.1c4.5 0 8.1-3.6 8.1-8 0 4.4 3.6 8 8.1 8s8.1-3.6 8.1-8c0 4.4 3.6 8 8.1 8s8.1-3.6 8.1-8c0 4.4 3.6 8 8.1 8s8.1-3.6 8.1-8c0 4.4 3.6 8 8.1 8s8.1-3.6 8.1-8c0 4.4 3.6 8 8.1 8s8.1-3.6 8.1-8c0 4.4 3.6 8 8.1 8s8.1-3.6 8.1-8c0 4.4 3.6 8 8.1 8s8.1-3.6 8.1-8c0 4.4 3.6 8 8.1 8s8.1-3.6 8.1-8c0 4.4 3.6 8 8.1 8s8.1-3.6 8.1-8c0 4.4 3.6 8 8.1 8s8.1-3.6 8.1-8c0 4.4 3.6 8 8.1 8s8.1-3.6 8.1-8c0 4.4 3.6 8 8.1 8s8.1-3.6 8.1-8c0 4.4 3.6 8 8.1 8s8.1-3.6 8.1-8c0 4.4 3.6 8 8.1 8s8.1-3.6 8.1-8c0 4.4 3.6 8 8.1 8s8.1-3.6 8.1-8c0 4.4 3.6 8 8.1 8s8.1-3.6 8.1-8c0 4.4 3.6 8 8.1 8s8.1-3.6 8.1-8c0 4.4 3.6 8 8.1 8s8.1-3.6 8.1-8c0 4.4 3.6 8 8.1 8s8.1-3.6 8.1-8c0 4.4 3.6 8 8.1 8s8.1-3.6 8.1-8c0 4.4 3.6 8 8 8s8-3.6 8-8c0 4.4 3.6 8 8 8s8-3.6 8-8v-10L200 8z"/><path class="st5" d="M170 149h60v40h-60z"/><path class="st5" d="M70 149h60v40H70z"/><path class="st6" d="M270 149h60v40h-60z"/><path class="st6" d="M180 67h18v19h-18z"/><path class="st6" d="M203 67h17v19h-17z"/><path class="st7" d="M70 149v7l60 4v-11z"/><path class="st7" d="M170 149v7l60 4v-11z"/><path class="st7" d="M270 149v7l60 4v-11z"/><path class="st7" d="M179 67v7l41 4V67z"/><path class="st7" d="M362 123c0 4.4-3.6 8-8.1 8s-8.1-3.6-8.1-8c0 4.4-3.6 8-8.1 8s-8.1-3.6-8.1-8c0 4.4-3.6 8-8.1 8s-8.1-3.6-8.1-8c0 4.4-3.6 8-8.1 8s-8.1-3.6-8.1-8c0 4.4-3.6 8-8.1 8s-8.1-3.6-8.1-8c0 4.4-3.6 8-8.1 8s-8.1-3.6-8.1-8c0 4.4-3.6 8-8.1 8s-8.1-3.6-8.1-8c0 4.4-3.6 8-8.1 8s-8.1-3.6-8.1-8c0 4.4-3.6 8-8.1 8s-8.1-3.6-8.1-8c0 4.4-3.6 8-8.1 8s-8.1-3.6-8.1-8c0 4.4-3.6 8-8.1 8s-8.1-3.6-8.1-8c0 4.4-3.6 8-8.1 8s-8.1-3.6-8.1-8c0 4.4-3.6 8-8.1 8s-8.1-3.6-8.1-8c0 4.4-3.6 8-8.1 8s-8.1-3.6-8.1-8c0 4.4-3.6 8-8.1 8s-8.1-3.6-8.1-8c0 4.4-3.6 8-8.1 8s-8.1-3.6-8.1-8c0 4.4-3.6 8-8.1 8s-8.1-3.6-8.1-8c0 4.4-3.6 8-8.1 8s-8.1-3.6-8.1-8c0 4.4-3.6 8-8.1 8s-8.1-3.6-8.1-8c0 4.4-3.6 8-8.1 8s-8.1-3.6-8.1-8c0 4.4-3.6 8-8.1 8h-.1v12h.1c4.5 0 8.1-3.6 8.1-8 0 4.4 3.6 8 8.1 8s8.1-3.6 8.1-8c0 4.4 3.6 8 8.1 8s8.1-3.6 8.1-8c0 4.4 3.6 8 8.1 8s8.1-3.6 8.1-8c0 4.4 3.6 8 8.1 8s8.1-3.6 8.1-8c0 4.4 3.6 8 8.1 8s8.1-3.6 8.1-8c0 4.4 3.6 8 8.1 8s8.1-3.6 8.1-8c0 4.4 3.6 8 8.1 8s8.1-3.6 8.1-8c0 4.4 3.6 8 8.1 8s8.1-3.6 8.1-8c0 4.4 3.6 8 8.1 8s8.1-3.6 8.1-8c0 4.4 3.6 8 8.1 8s8.1-3.6 8.1-8c0 4.4 3.6 8 8.1 8s8.1-3.6 8.1-8c0 4.4 3.6 8 8.1 8s8.1-3.6 8.1-8c0 4.4 3.6 8 8.1 8s8.1-3.6 8.1-8c0 4.4 3.6 8 8.1 8s8.1-3.6 8.1-8c0 4.4 3.6 8 8.1 8s8.1-3.6 8.1-8c0 4.4 3.6 8 8.1 8s8.1-3.6 8.1-8c0 4.4 3.6 8 8.1 8s8.1-3.6 8.1-8c0 4.4 3.6 8 8.1 8s8.1-3.6 8.1-8c0 4.4 3.6 8 8.1 8s8.1-3.6 8.1-8c0 4.4 3.6 8 8.1 8s8.1-3.6 8.1-8c0 4.4 3.6 8 8 8v-12c-4.4 0-8-3.6-8-8z"/><path class="st8" d="M192.6 93c0 4.5-3.6 8.1-8.1 8.1s-8.1-3.6-8.1-8.1h16.2z"/><path class="st8" d="M208.8 93c0 4.5-3.6 8.1-8.1 8.1s-8.1-3.6-8.1-8.1h16.2z"/><path class="st8" d="M225 93c0 4.5-3.6 8.1-8.1 8.1s-8.1-3.6-8.1-8.1H225z"/></svg>