<svg xmlns="http://www.w3.org/2000/svg" viewBox="0 0 400 610"><style>.st0{fill:#4527a0}.st1{fill:#5e35b1}.st2{opacity:.2;fill:#231f20}.st3{fill:#999}.st4{fill:#607d8b}.st5{fill:#ccc}.st6{fill:#b3b3b3}.st7{fill:#808082}.st8{fill:#b1b1b1}.st9{fill:#fce68d}.st10{fill:#fff}</style><path class="st0" d="M353 111.9h-70v16h8v100h54v-100h8z"/><path class="st1" d="M301 127.9h2v22h-2zm0 40h2v22h-2zm0 40h2v20h-2z"/><path class="st1" d="M291 147.9h54v2h-54zm0-20h54v2h-54zm0 40h54v2h-54zm0 20h54v2h-54zm0 20h54v2h-54z"/><path class="st1" d="M333 187.9h2v22h-2zm0-40h2v22h-2zm-16.7-36h2v15.8h-2z"/><path class="st2" d="M345 145.9l-54-10v-8h54z"/><path class="st3" d="M257 129.9h-54v16h8v100h38v-100h8z"/><path class="st4" d="M210.8 165.9H249v2h-38.2zm0-20H249v2h-38.2zm0 40H249v2h-38.2zm0 20H249v2h-38.2zm0 20H249v2h-38.2zm17.5-96h2v15.8h-2z"/><path class="st2" d="M249 163.9l-38-10v-8h38z"/><path class="st5" d="M30 199h340v411H30z"/><path class="st6" d="M30 199v33l340 20v-53z"/><path class="st0" d="M149 181v-49.8l.2-.2H166V31h-.3l-50-28-50 28h.3v100h16.8l.2.2V181H60v10h120v-10h-31zm-60 0v-43.8l22.8 22.8-21 21H89zm24 0H99.2l13.8-13.8V181zm0-28.3L91.3 131H113v21.7zm6-21.7h21.7L119 152.7V131zm0 50v-13.8l13.8 13.8H119zm24 0h-1.7l-21-21 22.8-22.8V181z"/><path class="st2" d="M149 181v-49.8l.2-.2H82.8l.2.2V181H60v10h120v-10h-31zm-60 0v-43.8l22.8 22.8-21 21H89zm24 0H99.2l13.8-13.8V181zm0-28.3L91.3 131H113v21.7zm6-21.7h21.7L119 152.7V131zm0 50v-13.8l13.8 13.8H119zm24 0h-1.7l-21-21 22.8-22.8V181zM127 32h-11V3l50 29v98.9h-39z"/><path class="st6" d="M105 563h70v6h-70zm120 0h70v6h-70zm-120-80h70v6h-70zm120 0h70v6h-70zm-120-80h70v6h-70zm120 0h70v6h-70zm-120-80h70v6h-70zm120 0h70v6h-70z"/><path class="st7" d="M6 180h388v32H6z"/><path class="st8" d="M110 424h27v27h-27zm33 0h27v27h-27zm-33 32h27v27h-27zm33 0h27v27h-27zm87-32h27v27h-27zm33 0h27v27h-27zm-33 32h27v27h-27zm33 0h27v27h-27zm-33 48h27v27h-27zm33 0h27v27h-27zm-33 32h27v27h-27zm33 0h27v27h-27zM143 376h27v27h-27zm-33 0h27v27h-27zm33-32h27v27h-27zm-33 0h27v27h-27z"/><path class="st9" d="M143 536h27v27h-27zm-33 0h27v27h-27zm33-32h27v27h-27zm-33 0h27v27h-27z"/><path class="st10" d="M230 344h27v27h-27zm33 0h27v27h-27zm-33 32h27v27h-27zm33 0h27v27h-27z"/><path class="st9" d="M110 264h27v27h-27zm33 0h27v27h-27zm-33 32h27v27h-27zm33 0h27v27h-27z"/><path class="st8" d="M230 264h27v27h-27zm33 0h27v27h-27zm-33 32h27v27h-27zm33 0h27v27h-27z"/><path class="st9" d="M230 344h27v27h-27zm33 0h27v27h-27zm-33 32h27v27h-27zm33 0h27v27h-27z"/><path class="st10" d="M22.6 213c0 4.5-3.6 8.1-8.1 8.1s-8.1-3.6-8.1-8.1h16.2z"/><path class="st10" d="M14.6 221.9c-4.9 0-8.9-4-8.9-8.9 0-.5.4-.8.8-.8h16.2c.5 0 .8.4.8.8 0 4.9-4 8.9-8.9 8.9zm-7.2-8.1c.4 3.6 3.5 6.4 7.2 6.4s6.8-2.8 7.2-6.4H7.4z"/><path class="st10" d="M38.8 213c0 4.5-3.6 8.1-8.1 8.1s-8.1-3.6-8.1-8.1h16.2z"/><path class="st10" d="M30.7 221.9c-4.9 0-8.9-4-8.9-8.9 0-.5.4-.8.8-.8h16.2c.5 0 .8.4.8.8.1 4.9-3.9 8.9-8.9 8.9zm-7.2-8.1c.4 3.6 3.5 6.4 7.2 6.4s6.8-2.8 7.2-6.4H23.5z"/><path class="st10" d="M55 213c0 4.5-3.6 8.1-8.1 8.1s-8.1-3.6-8.1-8.1H55z"/><path class="st10" d="M46.9 221.9c-4.9 0-8.9-4-8.9-8.9 0-.5.4-.8.8-.8H55c.5 0 .8.4.8.8 0 4.9-4 8.9-8.9 8.9zm-7.2-8.1c.4 3.6 3.5 6.4 7.2 6.4s6.8-2.8 7.2-6.4H39.7zm145.9-.8c0 4.5-3.6 8.1-8.1 8.1s-8.1-3.6-8.1-8.1h16.2z"/><path class="st10" d="M177.6 221.9c-4.9 0-8.9-4-8.9-8.9 0-.5.4-.8.8-.8h16.2c.5 0 .8.4.8.8 0 4.9-4 8.9-8.9 8.9zm-7.2-8.1c.4 3.6 3.5 6.4 7.2 6.4s6.8-2.8 7.2-6.4h-14.4z"/><path class="st10" d="M201.8 213c0 4.5-3.6 8.1-8.1 8.1s-8.1-3.6-8.1-8.1h16.2z"/><path class="st10" d="M193.7 221.9c-4.9 0-8.9-4-8.9-8.9 0-.5.4-.8.8-.8h16.2c.5 0 .8.4.8.8.1 4.9-3.9 8.9-8.9 8.9zm-7.2-8.1c.4 3.6 3.5 6.4 7.2 6.4s6.8-2.8 7.2-6.4h-14.4z"/><path class="st10" d="M218 213c0 4.5-3.6 8.1-8.1 8.1s-8.1-3.6-8.1-8.1H218z"/><path class="st10" d="M209.9 221.9c-4.9 0-8.9-4-8.9-8.9 0-.5.4-.8.8-.8H218c.5 0 .8.4.8.8 0 4.9-4 8.9-8.9 8.9zm-7.2-8.1c.4 3.6 3.5 6.4 7.2 6.4s6.8-2.8 7.2-6.4h-14.4zM242.9 330c0 4.5-3.6 8.1-8.1 8.1s-8.1-3.6-8.1-8.1h16.2z"/><path class="st10" d="M234.8 338.9c-4.9 0-8.9-4-8.9-8.9 0-.5.4-.8.8-.8h16.2c.5 0 .8.4.8.8 0 4.9-4 8.9-8.9 8.9zm-7.2-8.1c.4 3.6 3.5 6.4 7.2 6.4s6.8-2.8 7.2-6.4h-14.4z"/><path class="st10" d="M259.1 330c0 4.5-3.6 8.1-8.1 8.1s-8.1-3.6-8.1-8.1h16.2z"/><path class="st10" d="M251 338.9c-4.9 0-8.9-4-8.9-8.9 0-.5.4-.8.8-.8h16.2c.5 0 .8.4.8.8 0 4.9-4 8.9-8.9 8.9zm-7.2-8.1c.4 3.6 3.5 6.4 7.2 6.4s6.8-2.8 7.2-6.4h-14.4zM123.7 410c0 4.5-3.6 8.1-8.1 8.1s-8.1-3.6-8.1-8.1h16.2z"/><path class="st10" d="M115.6 418.9c-4.9 0-8.9-4-8.9-8.9 0-.5.4-.8.8-.8h16.2c.5 0 .8.4.8.8.1 4.9-3.9 8.9-8.9 8.9zm-7.2-8.1c.4 3.6 3.5 6.4 7.2 6.4s6.8-2.8 7.2-6.4h-14.4z"/><path class="st10" d="M139.9 410c0 4.5-3.6 8.1-8.1 8.1s-8.1-3.6-8.1-8.1h16.2z"/><path class="st10" d="M131.8 418.9c-4.9 0-8.9-4-8.9-8.9 0-.5.4-.8.8-.8h16.2c.5 0 .8.4.8.8 0 4.9-4 8.9-8.9 8.9zm-7.2-8.1c.4 3.6 3.5 6.4 7.2 6.4s6.8-2.8 7.2-6.4h-14.4z"/><path class="st10" d="M156.1 410c0 4.5-3.6 8.1-8.1 8.1s-8.1-3.6-8.1-8.1h16.2z"/><path class="st10" d="M148 418.9c-4.9 0-8.9-4-8.9-8.9 0-.5.4-.8.8-.8h16.2c.5 0 .8.4.8.8 0 4.9-4 8.9-8.9 8.9zm-7.2-8.1c.4 3.6 3.5 6.4 7.2 6.4s6.8-2.8 7.2-6.4h-14.4zM241.7 490c0 4.5-3.6 8.1-8.1 8.1s-8.1-3.6-8.1-8.1h16.2z"/><path class="st10" d="M233.6 498.9c-4.9 0-8.9-4-8.9-8.9 0-.5.4-.8.8-.8h16.2c.5 0 .8.4.8.8.1 4.9-3.9 8.9-8.9 8.9zm-7.2-8.1c.4 3.6 3.5 6.4 7.2 6.4s6.8-2.8 7.2-6.4h-14.4z"/><path class="st10" d="M257.9 490c0 4.5-3.6 8.1-8.1 8.1s-8.1-3.6-8.1-8.1h16.2z"/><path class="st10" d="M249.8 498.9c-4.9 0-8.9-4-8.9-8.9 0-.5.4-.8.8-.8h16.2c.5 0 .8.4.8.8 0 4.9-4 8.9-8.9 8.9zm-7.2-8.1c.4 3.6 3.5 6.4 7.2 6.4s6.8-2.8 7.2-6.4h-14.4z"/><path class="st10" d="M274.1 490c0 4.5-3.6 8.1-8.1 8.1s-8.1-3.6-8.1-8.1h16.2z"/><path class="st10" d="M266 498.9c-4.9 0-8.9-4-8.9-8.9 0-.5.4-.8.8-.8h16.2c.5 0 .8.4.8.8 0 4.9-4 8.9-8.9 8.9zm-7.2-8.1c.4 3.6 3.5 6.4 7.2 6.4s6.8-2.8 7.2-6.4h-14.4zM239.6 213c0 4.5-3.6 8.1-8.1 8.1s-8.1-3.6-8.1-8.1h16.2z"/><path class="st10" d="M231.6 221.9c-4.9 0-8.9-4-8.9-8.9 0-.5.4-.8.8-.8h16.2c.5 0 .8.4.8.8 0 4.9-4 8.9-8.9 8.9zm-7.2-8.1c.4 3.6 3.5 6.4 7.2 6.4s6.8-2.8 7.2-6.4h-14.4z"/><path class="st10" d="M255.8 213c0 4.5-3.6 8.1-8.1 8.1s-8.1-3.6-8.1-8.1h16.2z"/><path class="st10" d="M247.7 221.9c-4.9 0-8.9-4-8.9-8.9 0-.5.4-.8.8-.8h16.2c.5 0 .8.4.8.8.1 4.9-3.9 8.9-8.9 8.9zm-7.2-8.1c.4 3.6 3.5 6.4 7.2 6.4s6.8-2.8 7.2-6.4h-14.4z"/><path class="st10" d="M272 213c0 4.5-3.6 8.1-8.1 8.1s-8.1-3.6-8.1-8.1H272z"/><path class="st10" d="M263.9 221.9c-4.9 0-8.9-4-8.9-8.9 0-.5.4-.8.8-.8H272c.5 0 .8.4.8.8 0 4.9-4 8.9-8.9 8.9zm-7.2-8.1c.4 3.6 3.5 6.4 7.2 6.4s6.8-2.8 7.2-6.4h-14.4zM82.6 130.9c0 4.5-3.6 8.1-8.1 8.1s-8.1-3.6-8.1-8.1h16.2z"/><path class="st10" d="M74.6 139.8c-4.9 0-8.9-4-8.9-8.9 0-.5.4-.8.8-.8h16.2c.5 0 .8.4.8.8 0 4.9-4 8.9-8.9 8.9zm-7.2-8.1c.4 3.6 3.5 6.4 7.2 6.4s6.8-2.8 7.2-6.4H67.4z"/><path class="st10" d="M98.8 130.9c0 4.5-3.6 8.1-8.1 8.1s-8.1-3.6-8.1-8.1h16.2z"/><path class="st10" d="M90.7 139.8c-4.9 0-8.9-4-8.9-8.9 0-.5.4-.8.8-.8h16.2c.5 0 .8.4.8.8.1 4.9-3.9 8.9-8.9 8.9zm-7.2-8.1c.4 3.6 3.5 6.4 7.2 6.4s6.8-2.8 7.2-6.4H83.5z"/><path class="st10" d="M115 130.9c0 4.5-3.6 8.1-8.1 8.1s-8.1-3.6-8.1-8.1H115z"/><path class="st10" d="M106.9 139.8c-4.9 0-8.9-4-8.9-8.9 0-.5.4-.8.8-.8H115c.5 0 .8.4.8.8 0 4.9-4 8.9-8.9 8.9zm-7.2-8.1c.4 3.6 3.5 6.4 7.2 6.4s6.8-2.8 7.2-6.4H99.7z"/></svg>