<svg xmlns="http://www.w3.org/2000/svg" viewBox="0 0 224 140" enable-background="new 0 0 224 140"><style type="text/css">.st0{fill:none;stroke:#EF6C00;stroke-width:4;stroke-linecap:round;stroke-miterlimit:10;stroke-dasharray:0,6.5982;} .st1{fill:none;stroke:#F9CE1D;stroke-width:5;stroke-linecap:round;stroke-miterlimit:10;stroke-dasharray:0,6.5982;}</style><path class="st0" d="M112 60.4s31.5-78.5 112-51"/><path class="st0" d="M112 87.4s51.3-23.7 27 51"/><path class="st0" d="M119 74.4s70.8-69.5 63 40"/><path class="st0" d="M89 75.4c-22.5-18.8-80.5-15.8-38 60"/><path class="st1" d="M103 86.4c-23.2-11.5-32 19.5-28 31"/><path class="st1" d="M97 75.4c-13-52-53-21.3-40 4"/><path class="st1" d="M114 82.4c23-31.2 53 .8 45 16"/><path class="st1" d="M106 78.4c14.7-73-43-74.7-59-51"/><path class="st1" d="M114 74.4c14.7-73 82.5-41 81-18"/><path class="st0" d="M94 68.4S39.7-.3 1 65.4"/><path class="st0" d="M100 53.4s-36.7-75-88-32"/></svg>