<svg xmlns="http://www.w3.org/2000/svg" xmlns:xlink="http://www.w3.org/1999/xlink" viewBox="0 0 400 224" enable-background="new 0 0 400 224"><style type="text/css">.st0{fill:#4527A0;} .st1{fill:#5E35B1;} .st2{opacity:0.2;fill:#231F20;} .st3{fill:#00ACC1;} .st4{opacity:0.1;fill:#231F20;} .st5{fill:#5D4037;} .st6{clip-path:url(#SVGID_2_);} .st7{fill:none;stroke:#E5E5E4;stroke-width:2;stroke-miterlimit:10;} .st8{fill:#FCE68D;} .st9{fill:#80DEEA;} .st10{fill:#FFFFFF;stroke:#FFFFFF;stroke-width:1.6715;stroke-linejoin:round;stroke-miterlimit:10;}</style><symbol id="mc-chimney-med" viewBox="0 -116 70 116"><path class="st0" d="M70 0H0v-16h8v-100h54v100h8z"/><path class="st1" d="M20-16v-22h-2v22z"/><path class="st1" d="M20-56v-22h-2v22z"/><path class="st1" d="M20-96v-20h-2v20z"/><path class="st1" d="M62-38H8v2h54z"/><path class="st1" d="M62-18H8v2h54z"/><path class="st1" d="M62-58H8v2h54z"/><path class="st1" d="M62-78H8v2h54z"/><path class="st1" d="M62-98H8v2h54z"/><path class="st1" d="M52-76v-22h-2v22z"/><path class="st1" d="M52-36v-22h-2v22z"/><path class="st1" d="M35.3 0v-15.8h-2V0z"/><path class="st2" d="M62-34L8-24v8h54z"/></symbol><use xlink:href="#mc-chimney-med" width="70" height="116" y="-116" transform="matrix(1 0 0 -1 117.303 .913)" overflow="visible"/><path class="st3" d="M31 104h340v120H31z"/><path class="st4" d="M31 104v28l340 10v-38z"/><path class="st5" d="M372.8 72H27.2L19 122h362z"/><defs><path id="SVGID_1_" d="M372.8 72H27.2L19 122h362z"/></defs><clipPath id="SVGID_2_"><use xlink:href="#SVGID_1_" overflow="visible"/></clipPath><g class="st6"><path class="st7" d="M31.1 72c0 6.9-6.1 12.5-13.5 12.5C10.1 84.5 4 78.9 4 72"/><path class="st7" d="M58.2 72c0 6.9-6.1 12.5-13.5 12.5-7.5 0-13.5-5.6-13.5-12.5"/><path class="st7" d="M85.3 72c0 6.9-6.1 12.5-13.5 12.5-7.5 0-13.5-5.6-13.5-12.5"/><path class="st7" d="M112.3 72c0 6.9-6.1 12.5-13.5 12.5-7.5 0-13.5-5.6-13.5-12.5"/><path class="st7" d="M17.6 84.5c0 6.9-6.1 12.5-13.5 12.5-7.5 0-13.5-5.6-13.5-12.5"/><path class="st7" d="M44.6 84.5c0 6.9-6.1 12.5-13.5 12.5-7.5 0-13.5-5.6-13.5-12.5"/><path class="st7" d="M71.7 84.5c0 6.9-6.1 12.5-13.5 12.5-7.5 0-13.5-5.6-13.5-12.5"/><path class="st7" d="M98.8 84.5c0 6.9-6.1 12.5-13.5 12.5s-13.5-5.6-13.5-12.5"/><path class="st7" d="M139.4 72c0 6.9-6.1 12.5-13.5 12.5-7.5 0-13.5-5.6-13.5-12.5"/><path class="st7" d="M166.5 72c0 6.9-6.1 12.5-13.5 12.5-7.5 0-13.5-5.6-13.5-12.5"/><path class="st7" d="M193.5 72c0 6.9-6.1 12.5-13.5 12.5-7.5 0-13.5-5.6-13.5-12.5"/><path class="st7" d="M220.6 72c0 6.9-6.1 12.5-13.5 12.5-7.5 0-13.5-5.6-13.5-12.5"/><path class="st7" d="M125.9 84.5c0 6.9-6.1 12.5-13.5 12.5-7.5 0-13.5-5.6-13.5-12.5"/><path class="st7" d="M152.9 84.5c0 6.9-6.1 12.5-13.5 12.5-7.5 0-13.5-5.6-13.5-12.5"/><path class="st7" d="M180 84.5c0 6.9-6.1 12.5-13.5 12.5-7.5 0-13.5-5.6-13.5-12.5"/><path class="st7" d="M207.1 84.5c0 6.9-6.1 12.5-13.5 12.5-7.5 0-13.5-5.6-13.5-12.5"/><path class="st7" d="M247.7 72c0 6.9-6.1 12.5-13.5 12.5-7.5 0-13.5-5.6-13.5-12.5"/><path class="st7" d="M274.7 72c0 6.9-6.1 12.5-13.5 12.5-7.5 0-13.5-5.6-13.5-12.5"/><path class="st7" d="M301.8 72c0 6.9-6.1 12.5-13.5 12.5-7.5 0-13.5-5.6-13.5-12.5"/><path class="st7" d="M328.9 72c0 6.9-6.1 12.5-13.5 12.5-7.5 0-13.5-5.6-13.5-12.5"/><path class="st7" d="M234.1 84.5c0 6.9-6.1 12.5-13.5 12.5-7.5 0-13.5-5.6-13.5-12.5"/><path class="st7" d="M261.2 84.5c0 6.9-6.1 12.5-13.5 12.5-7.5 0-13.5-5.6-13.5-12.5"/><path class="st7" d="M288.3 84.5c0 6.9-6.1 12.5-13.5 12.5s-13.5-5.6-13.5-12.5"/><path class="st7" d="M315.3 84.5c0 6.9-6.1 12.5-13.5 12.5s-13.5-5.6-13.5-12.5"/><path class="st7" d="M355.9 72c0 6.9-6.1 12.5-13.5 12.5-7.5 0-13.5-5.6-13.5-12.5"/><path class="st7" d="M383 72c0 6.9-6.1 12.5-13.5 12.5-7.5 0-13.5-5.6-13.5-12.5"/><path class="st7" d="M342.4 84.5c0 6.9-6.1 12.5-13.5 12.5-7.5 0-13.5-5.6-13.5-12.5"/><path class="st7" d="M369.5 84.5c0 6.9-6.1 12.5-13.5 12.5-7.5 0-13.5-5.6-13.5-12.5"/><path class="st7" d="M31.1 96.9c0 6.9-6.1 12.5-13.5 12.5-7.5 0-13.5-5.6-13.5-12.5"/><path class="st7" d="M58.2 96.9c0 6.9-6.1 12.5-13.5 12.5-7.5 0-13.5-5.6-13.5-12.5"/><path class="st7" d="M85.3 96.9c0 6.9-6.1 12.5-13.5 12.5-7.5 0-13.5-5.6-13.5-12.5"/><path class="st7" d="M112.3 96.9c0 6.9-6.1 12.5-13.5 12.5-7.5 0-13.5-5.6-13.5-12.5"/><path class="st7" d="M17.6 109.4c0 6.9-6.1 12.5-13.5 12.5-7.5 0-13.5-5.6-13.5-12.5"/><path class="st7" d="M44.6 109.4c0 6.9-6.1 12.5-13.5 12.5-7.5 0-13.5-5.6-13.5-12.5"/><path class="st7" d="M71.7 109.4c0 6.9-6.1 12.5-13.5 12.5-7.5 0-13.5-5.6-13.5-12.5"/><path class="st7" d="M98.8 109.4c0 6.9-6.1 12.5-13.5 12.5s-13.5-5.6-13.5-12.5"/><path class="st7" d="M139.4 96.9c0 6.9-6.1 12.5-13.5 12.5-7.5 0-13.5-5.6-13.5-12.5"/><path class="st7" d="M166.5 96.9c0 6.9-6.1 12.5-13.5 12.5-7.5 0-13.5-5.6-13.5-12.5"/><path class="st7" d="M193.5 96.9c0 6.9-6.1 12.5-13.5 12.5-7.5 0-13.5-5.6-13.5-12.5"/><path class="st7" d="M220.6 96.9c0 6.9-6.1 12.5-13.5 12.5-7.5 0-13.5-5.6-13.5-12.5"/><path class="st7" d="M125.9 109.4c0 6.9-6.1 12.5-13.5 12.5-7.5 0-13.5-5.6-13.5-12.5"/><path class="st7" d="M152.9 109.4c0 6.9-6.1 12.5-13.5 12.5-7.5 0-13.5-5.6-13.5-12.5"/><path class="st7" d="M180 109.4c0 6.9-6.1 12.5-13.5 12.5-7.5 0-13.5-5.6-13.5-12.5"/><path class="st7" d="M207.1 109.4c0 6.9-6.1 12.5-13.5 12.5-7.5 0-13.5-5.6-13.5-12.5"/><path class="st7" d="M247.7 96.9c0 6.9-6.1 12.5-13.5 12.5-7.5 0-13.5-5.6-13.5-12.5"/><path class="st7" d="M274.7 96.9c0 6.9-6.1 12.5-13.5 12.5-7.5 0-13.5-5.6-13.5-12.5"/><path class="st7" d="M301.8 96.9c0 6.9-6.1 12.5-13.5 12.5-7.5 0-13.5-5.6-13.5-12.5"/><path class="st7" d="M328.9 96.9c0 6.9-6.1 12.5-13.5 12.5-7.5 0-13.5-5.6-13.5-12.5"/><path class="st7" d="M234.1 109.4c0 6.9-6.1 12.5-13.5 12.5-7.5 0-13.5-5.6-13.5-12.5"/><path class="st7" d="M261.2 109.4c0 6.9-6.1 12.5-13.5 12.5-7.5 0-13.5-5.6-13.5-12.5"/><path class="st7" d="M288.3 109.4c0 6.9-6.1 12.5-13.5 12.5s-13.5-5.6-13.5-12.5"/><path class="st7" d="M315.3 109.4c0 6.9-6.1 12.5-13.5 12.5s-13.5-5.6-13.5-12.5"/><path class="st7" d="M355.9 96.9c0 6.9-6.1 12.5-13.5 12.5-7.5 0-13.5-5.6-13.5-12.5"/><path class="st7" d="M383 96.9c0 6.9-6.1 12.5-13.5 12.5-7.5 0-13.5-5.6-13.5-12.5"/><path class="st7" d="M342.4 109.4c0 6.9-6.1 12.5-13.5 12.5-7.5 0-13.5-5.6-13.5-12.5"/><path class="st7" d="M369.5 109.4c0 6.9-6.1 12.5-13.5 12.5-7.5 0-13.5-5.6-13.5-12.5"/></g><path class="st8" d="M221 168h57v32h-57z"/><path class="st8" d="M284 168h57v32h-57z"/><path class="st9" d="M61 168h57v32H61z"/><path class="st9" d="M124 168h57v32h-57z"/><path class="st4" d="M61 168v7l120 4v-11z"/><path class="st4" d="M221 168v7l120 4v-11z"/><path class="st10" d="M36.5 122c0 4.5-3.6 8.1-8.1 8.1s-8.1-3.6-8.1-8.1h16.2z"/><path class="st10" d="M52.6 122c0 4.5-3.6 8.1-8.1 8.1s-8.1-3.6-8.1-8.1h16.2z"/><path class="st10" d="M68.8 122c0 4.5-3.6 8.1-8.1 8.1s-8.1-3.6-8.1-8.1h16.2z"/><path class="st10" d="M346.5 122c0 4.5-3.6 8.1-8.1 8.1s-8.1-3.6-8.1-8.1h16.2z"/><path class="st10" d="M362.7 122c0 4.5-3.6 8.1-8.1 8.1s-8.1-3.6-8.1-8.1h16.2z"/><path class="st10" d="M378.9 122c0 4.5-3.6 8.1-8.1 8.1s-8.1-3.6-8.1-8.1h16.2z"/><path class="st10" d="M284.5 122c0 4.5-3.6 8.1-8.1 8.1s-8.1-3.6-8.1-8.1h16.2z"/><path class="st10" d="M300.7 122c0 4.5-3.6 8.1-8.1 8.1s-8.1-3.6-8.1-8.1h16.2z"/><path class="st10" d="M316.9 122c0 4.5-3.6 8.1-8.1 8.1s-8.1-3.6-8.1-8.1h16.2z"/></svg>