<svg xmlns="http://www.w3.org/2000/svg" xmlns:xlink="http://www.w3.org/1999/xlink" viewBox="0 0 400 234" enable-background="new 0 0 400 234"><style type="text/css">.st0{fill:#424242;} .st1{fill:#7C6959;} .st2{opacity:0.2;fill:#231F20;} .st3{fill:#536DFE;} .st4{opacity:0.1;fill:#231F20;} .st5{fill:#C0CA33;} .st6{fill:#29B6F6;} .st7{fill:#FCE68D;}</style><symbol id="mc-chimney-big" viewBox="0 -116 100 116"><path class="st0" d="M100 0H0v-16h8v-100h84v100h8z"/><path class="st1" d="M92-18H8v2h84z"/><path class="st1" d="M51-16v-22h-2v22z"/><path class="st1" d="M51-56v-22h-2v22z"/><path class="st1" d="M51-96v-20h-2v20z"/><path class="st1" d="M81-76v-22h-2v22z"/><path class="st1" d="M21-76v-22h-2v22z"/><path class="st1" d="M92-38H8v2h84z"/><path class="st1" d="M92-58H8v2h84z"/><path class="st1" d="M92-78H8v2h84z"/><path class="st1" d="M92-98H8v2h84z"/><path class="st2" d="M92-34L8-24v8h84z"/><path class="st1" d="M81-36v-22h-2v22z"/><path class="st1" d="M21-36v-22h-2v22z"/><path class="st1" d="M81 0v-15.8h-2V0z"/><path class="st1" d="M21 0v-15.8h-2V0z"/></symbol><use xlink:href="#mc-chimney-big" width="100" height="116" y="-116" transform="matrix(1 0 0 -1 150 1)" overflow="visible"/><path class="st3" d="M200 60L30 152v82h340v-82z"/><path class="st4" d="M363 164c0-.4 0-.9.1-1.3-1.4 1.2-3.2 2-5.3 2-4.4 0-8-3.6-8-8 0-.4 0-.9.1-1.3-1.4 1.2-3.2 2-5.3 2-4.4 0-8-3.6-8-8 0-.4 0-.9.1-1.3-1.4 1.2-3.2 2-5.3 2-4.4 0-8-3.6-8-8 0-.4 0-.9.1-1.3-1.4 1.2-3.2 2-5.3 2-4.4 0-8-3.6-8-8 0-.4 0-.9.1-1.3-1.4 1.2-3.2 2-5.3 2-4.4 0-8-3.6-8-8 0-.4 0-.9.1-1.3-1.4 1.2-3.2 2-5.3 2-4.4 0-8-3.6-8-8 0-.4 0-.9.1-1.3-1.4 1.2-3.2 2-5.3 2-4.4 0-8-3.6-8-8 0-.4 0-.9.1-1.3-1.4 1.2-3.2 2-5.3 2-4.4 0-8-3.6-8-8 0-.4 0-.9.1-1.3-1.4 1.2-3.2 2-5.3 2-4.4 0-8-3.6-8-8 0-.4 0-.9.1-1.3-1.4 1.2-3.2 2-5.3 2-4.4 0-8-3.6-8-8 0-.4 0-.9.1-1.3-1.4 1.2-3.2 2-5.3 2-4.4 0-8-3.6-8-8 0-.4 0-.9.1-1.3-1.4 1.2-3.2 2-5.3 2-4.4 0-8-3.6-8-8 0-.4 0-.9.1-1.3-1.2 1-2.7 1.7-4.3 1.9-.3 0-.7.1-1 .1-2 0-3.9-.8-5.3-2 .1.4.1.9.1 1.3 0 4.4-3.6 8-8 8-2 0-3.9-.8-5.3-2 .1.4.1.9.1 1.3 0 4.4-3.6 8-8 8-2 0-3.9-.8-5.3-2 .1.4.1.9.1 1.3 0 4.4-3.6 8-8 8-2 0-3.9-.8-5.3-2 .1.4.1.9.1 1.3 0 4.4-3.6 8-8 8-2 0-3.9-.8-5.3-2 .1.4.1.9.1 1.3 0 4.4-3.6 8-8 8-2 0-3.9-.8-5.3-2 .1.4.1.9.1 1.3 0 4.4-3.6 8-8 8-2 0-3.9-.8-5.3-2 .1.4.1.9.1 1.3 0 4.4-3.6 8-8 8-2 0-3.9-.8-5.3-2 .1.4.1.9.1 1.3 0 4.4-3.6 8-8 8-2 0-3.9-.8-5.3-2 .1.4.1.9.1 1.3 0 4.4-3.6 8-8 8-2 0-3.9-.8-5.3-2 .1.4.1.9.1 1.3 0 4.4-3.6 8-8 8-2 0-3.9-.8-5.3-2 .1.4.1.9.1 1.3 0 4.4-3.6 8-8 8-2 0-3.9-.8-5.3-2 .1.4.1.9.1 1.3 0 4.4-3.6 8-8 8-2 0-3.9-.8-5.3-2 .1.4.1.9.1 1.3 0 4.1-3.1 7.4-7 7.9v17c3.9-.5 7-3.9 7-7.9 0-.4 0-.9-.1-1.3 1.4 1.2 3.2 2 5.3 2 4.4 0 8-3.6 8-8 0-.4 0-.9-.1-1.3 1.4 1.2 3.2 2 5.3 2 4.4 0 8-3.6 8-8 0-.4 0-.9-.1-1.3 1.4 1.2 3.2 2 5.3 2 4.4 0 8-3.6 8-8 0-.4 0-.9-.1-1.3 1.4 1.2 3.2 2 5.3 2 4.4 0 8-3.6 8-8 0-.4 0-.9-.1-1.3 1.4 1.2 3.2 2 5.3 2 4.4 0 8-3.6 8-8 0-.4 0-.9-.1-1.3 1.4 1.2 3.2 2 5.3 2 4.4 0 8-3.6 8-8 0-.4 0-.9-.1-1.3 1.4 1.2 3.2 2 5.3 2 4.4 0 8-3.6 8-8 0-.4 0-.9-.1-1.3 1.4 1.2 3.2 2 5.3 2 4.4 0 8-3.6 8-8 0-.4 0-.9-.1-1.3 1.4 1.2 3.2 2 5.3 2 4.4 0 8-3.6 8-8 0-.4 0-.9-.1-1.3 1.4 1.2 3.2 2 5.3 2 4.4 0 8-3.6 8-8 0-.4 0-.9-.1-1.3 1.4 1.2 3.2 2 5.3 2 4.4 0 8-3.6 8-8 0-.4 0-.9-.1-1.3 1.4 1.2 3.2 2 5.3 2 4.4 0 8-3.6 8-8 0-.4 0-.9-.1-1.3 1.4 1.2 3.2 2 5.3 2 .3 0 .7 0 1-.1 1.6-.2 3.1-.9 4.3-1.9-.1.4-.1.9-.1 1.3 0 4.4 3.6 8 8 8 2 0 3.9-.8 5.3-2-.1.4-.1.9-.1 1.3 0 4.4 3.6 8 8 8 2 0 3.9-.8 5.3-2-.1.4-.1.9-.1 1.3 0 4.4 3.6 8 8 8 2 0 3.9-.8 5.3-2-.1.4-.1.9-.1 1.3 0 4.4 3.6 8 8 8 2 0 3.9-.8 5.3-2-.1.4-.1.9-.1 1.3 0 4.4 3.6 8 8 8 2 0 3.9-.8 5.3-2-.1.4-.1.9-.1 1.3 0 4.4 3.6 8 8 8 2 0 3.9-.8 5.3-2-.1.4-.1.9-.1 1.3 0 4.4 3.6 8 8 8 2 0 3.9-.8 5.3-2-.1.4-.1.9-.1 1.3 0 4.4 3.6 8 8 8 2 0 3.9-.8 5.3-2-.1.4-.1.9-.1 1.3 0 4.4 3.6 8 8 8 2 0 3.9-.8 5.3-2-.1.4-.1.9-.1 1.3 0 4.4 3.6 8 8 8 2 0 3.9-.8 5.3-2-.1.4-.1.9-.1 1.3 0 4.4 3.6 8 8 8 2 0 3.9-.8 5.3-2-.1.4-.1.9-.1 1.3 0 4.4 3.6 8 8 8 2 0 3.9-.8 5.3-2-.1.4-.1.9-.1 1.3 0 4.1 3.1 7.4 7 7.9v-17c-3.9-.5-7-3.8-7-7.9z"/><path class="st5" d="M200 49L6 154v10c0 4.4 3.6 8 8 8s8-3.6 8-8c0 4.4 3.6 8 8 8v-.1c3.9-.5 7-3.9 7-7.9 0-.4 0-.9-.1-1.3 1.4 1.2 3.2 2 5.3 2 4.4 0 8-3.6 8-8 0-.4 0-.9-.1-1.3 1.4 1.2 3.2 2 5.3 2 4.4 0 8-3.6 8-8 0-.4 0-.9-.1-1.3 1.4 1.2 3.2 2 5.3 2 4.4 0 8-3.6 8-8 0-.4 0-.9-.1-1.3 1.4 1.2 3.2 2 5.3 2 4.4 0 8-3.6 8-8 0-.4 0-.9-.1-1.3 1.4 1.2 3.2 2 5.3 2 4.4 0 8-3.6 8-8 0-.4 0-.9-.1-1.3 1.4 1.2 3.2 2 5.3 2 4.4 0 8-3.6 8-8 0-.4 0-.9-.1-1.3 1.4 1.2 3.2 2 5.3 2 4.4 0 8-3.6 8-8 0-.4 0-.9-.1-1.3 1.4 1.2 3.2 2 5.3 2 4.4 0 8-3.6 8-8 0-.4 0-.9-.1-1.3 1.4 1.2 3.2 2 5.3 2 4.4 0 8-3.6 8-8 0-.4 0-.9-.1-1.3 1.4 1.2 3.2 2 5.3 2 4.4 0 8-3.6 8-8 0-.4 0-.9-.1-1.3 1.4 1.2 3.2 2 5.3 2 4.4 0 8-3.6 8-8 0-.4 0-.9-.1-1.3 1.4 1.2 3.2 2 5.3 2 4.4 0 8-3.6 8-8 0-.4 0-.9-.1-1.3 1.4 1.2 3.2 2 5.3 2 .3 0 .7 0 1-.1 1.6-.2 3.1-.9 4.3-1.9-.1.4-.1.9-.1 1.3 0 4.4 3.6 8 8 8 2 0 3.9-.8 5.3-2-.1.4-.1.9-.1 1.3 0 4.4 3.6 8 8 8 2 0 3.9-.8 5.3-2-.1.4-.1.9-.1 1.3 0 4.4 3.6 8 8 8 2 0 3.9-.8 5.3-2-.1.4-.1.9-.1 1.3 0 4.4 3.6 8 8 8 2 0 3.9-.8 5.3-2-.1.4-.1.9-.1 1.3 0 4.4 3.6 8 8 8 2 0 3.9-.8 5.3-2-.1.4-.1.9-.1 1.3 0 4.4 3.6 8 8 8 2 0 3.9-.8 5.3-2-.1.4-.1.9-.1 1.3 0 4.4 3.6 8 8 8 2 0 3.9-.8 5.3-2-.1.4-.1.9-.1 1.3 0 4.4 3.6 8 8 8 2 0 3.9-.8 5.3-2-.1.4-.1.9-.1 1.3 0 4.4 3.6 8 8 8 2 0 3.9-.8 5.3-2-.1.4-.1.9-.1 1.3 0 4.4 3.6 8 8 8 2 0 3.9-.8 5.3-2-.1.4-.1.9-.1 1.3 0 4.4 3.6 8 8 8 2 0 3.9-.8 5.3-2-.1.4-.1.9-.1 1.3 0 4.4 3.6 8 8 8 2 0 3.9-.8 5.3-2-.1.4-.1.9-.1 1.3 0 4.1 3.1 7.4 7 7.9v.1c4.4 0 8-3.6 8-8 0 4.4 3.6 8 8 8s8-3.6 8-8v-10L200 49z"/><path class="st6" d="M199 161h-.5c-13.5 0-24.5 11-24.5 24.5V216h50v-30c0-13.8-11.2-25-25-25z"/><path class="st6" d="M119 161h-.5C105 161 94 172 94 185.5V216h50v-30c0-13.8-11.2-25-25-25z"/><path class="st7" d="M279 161h-.5c-13.5 0-24.5 11-24.5 24.5V216h50v-30c0-13.8-11.2-25-25-25z"/></svg>