<svg xmlns="http://www.w3.org/2000/svg" viewBox="0 0 178 1200" enable-background="new 0 0 178 1200"><style type="text/css">.st0{fill:#9E9D24;} .st1{opacity:0.1;} .st2{fill:#231F20;} .st3{opacity:5.000000e-02;} .st4{fill:#5D4037;} .st5{fill:#4527A0;} .st6{opacity:0.2;}</style><path class="st0" d="M40 1100h100v80H40z"/><path class="st2" d="M82.9 1140L50 1107.1v65.8z"/><path class="st2" d="M122.9 1100H57.1l32.9 32.9z"/><path class="st2" d="M97.1 1140l32.9 32.9v-65.8z"/><path class="st2" d="M90 1147.1L57.1 1180h65.8z"/><path class="st0" d="M36 1100h108v10.1H36z"/><path class="st0" d="M36 1170h108v10.1H36z"/><path class="st2" d="M40 1110h100v6H40z"/><path class="st2" d="M40 1164h100v6H40z"/><path class="st4" d="M0 1180h178v16H0z"/><path class="st5" d="M10 1176h15v24H10z"/><circle class="st5" cx="90" cy="1056" r="9"/><path class="st5" d="M92 0h4v1056h-4z"/><path class="st5" d="M17.5 1179c-.3 0-.6-.1-.9-.2-1-.5-1.4-1.7-.9-2.7l39-77c.2-.4.6-.7 1-.9l34.5-15c1-.4 2.2 0 2.6 1 .4 1 0 2.2-1 2.6l-33.9 14.7-38.7 76.4c-.3.7-1 1.1-1.7 1.1z"/><path class="st5" d="M152 1176h15v24h-15z"/><path class="st5" d="M159.5 1179c-.8 0-1.5-.4-1.8-1.2l-35.8-76.3-33.7-14.7c-1-.4-1.5-1.6-1-2.6.4-1 1.6-1.5 2.6-1l34.4 15c.4.2.8.5 1 1l36.1 77c.5 1 0 2.2-1 2.7-.2 0-.5.1-.8.1z"/><path class="st5" d="M84 0h4v1056h-4z"/><path class="st5" d="M92 1062v7l-2-2c1 0 2 .2 2.9.5.9.3 1.8.7 2.6 1.3.8.6 1.5 1.2 2.1 2 .6.8 1.1 1.6 1.4 2.5.3.9.5 1.8.6 2.8v1.5c0 .3-.1.9-.2 1.4-.2.9-.5 1.8-1 2.6s-1 1.6-1.7 2.2c-.7.6-1.4 1.2-2.3 1.6-.8.4-1.7.7-2.6.9-.5.1-.9.1-1.4.1h-1.2c-1-.1-1.9-.4-2.7-.7-.8-.4-1.6-.9-2.3-1.4-.7-.6-1.3-1.3-1.8-2-.5-.8-.8-1.6-1.1-2.4-.2-.9-.3-1.7-.3-2.6 0-.6.5-1 1-1s1 .4 1 .9v.1c0 .7.1 1.4.4 2 .2.6.5 1.3.9 1.8s.9 1 1.4 1.4c.5.4 1.1.7 1.7 1 .6.2 1.3.4 1.9.4l.8.1s.9-.1 1.2-.2c.6-.2 1.2-.4 1.8-.7.6-.3 1.1-.7 1.5-1.2.4-.5.8-1 1.1-1.6.3-.6.5-1.2.6-1.8 0-.3.1-.5.1-.9l-.1-.9c-.1-.6-.2-1.2-.5-1.8-.3-.6-.6-1.1-1-1.5-.4-.5-.9-.8-1.4-1.2-.5-.3-1.1-.5-1.6-.7-.6-.1-1.2-.2-1.8-.2h-.1c-1.1-.1-1.9-1-1.9-2v-7c0-1.1.9-2 2-2s2 .6 2 1.7z"/><circle class="st2" cx="90" cy="1056" r="5"/><circle class="st5" cx="90" cy="1085" r="4"/><path class="st0" d="M40 1100h100v80H40z"/><path class="st1" d="M82.9 1140L50 1107.1v65.8z"/><path class="st1" d="M122.9 1100H57.1l32.9 32.9z"/><path class="st1" d="M97.1 1140l32.9 32.9v-65.8z"/><path class="st1" d="M90 1147.1L57.1 1180h65.8z"/><path class="st0" d="M36 1100h108v10.1H36z"/><path class="st0" d="M36 1170h108v10.1H36z"/><path class="st1" d="M40 1110h100v6H40z"/><path class="st1" d="M40 1164h100v6H40z"/><path class="st4" d="M0 1180h178v16H0z"/><path class="st5" d="M10 1176h15v24H10z"/><circle class="st5" cx="90" cy="1056" r="9"/><path class="st5" d="M92 0h4v1056h-4z"/><path class="st5" d="M17.5 1179c-.3 0-.6-.1-.9-.2-1-.5-1.4-1.7-.9-2.7l39-77c.2-.4.6-.7 1-.9l34.5-15c1-.4 2.2 0 2.6 1 .4 1 0 2.2-1 2.6l-33.9 14.7-38.7 76.4c-.3.7-1 1.1-1.7 1.1z"/><path class="st5" d="M152 1176h15v24h-15z"/><path class="st5" d="M159.5 1179c-.8 0-1.5-.4-1.8-1.2l-35.8-76.3-33.7-14.7c-1-.4-1.5-1.6-1-2.6.4-1 1.6-1.5 2.6-1l34.4 15c.4.2.8.5 1 1l36.1 77c.5 1 0 2.2-1 2.7-.2 0-.5.1-.8.1z"/><path class="st5" d="M84 0h4v1056h-4z"/><path class="st5" d="M92 1062v7l-2-2c1 0 2 .2 2.9.5.9.3 1.8.7 2.6 1.3.8.6 1.5 1.2 2.1 2 .6.8 1.1 1.6 1.4 2.5.3.9.5 1.8.6 2.8v1.5c0 .3-.1.9-.2 1.4-.2.9-.5 1.8-1 2.6s-1 1.6-1.7 2.2c-.7.6-1.4 1.2-2.3 1.6-.8.4-1.7.7-2.6.9-.5.1-.9.1-1.4.1h-1.2c-1-.1-1.9-.4-2.7-.7-.8-.4-1.6-.9-2.3-1.4-.7-.6-1.3-1.3-1.8-2-.5-.8-.8-1.6-1.1-2.4-.2-.9-.3-1.7-.3-2.6 0-.6.5-1 1-1s1 .4 1 .9v.1c0 .7.1 1.4.4 2 .2.6.5 1.3.9 1.8s.9 1 1.4 1.4c.5.4 1.1.7 1.7 1 .6.2 1.3.4 1.9.4l.8.1s.9-.1 1.2-.2c.6-.2 1.2-.4 1.8-.7.6-.3 1.1-.7 1.5-1.2.4-.5.8-1 1.1-1.6.3-.6.5-1.2.6-1.8 0-.3.1-.5.1-.9l-.1-.9c-.1-.6-.2-1.2-.5-1.8-.3-.6-.6-1.1-1-1.5-.4-.5-.9-.8-1.4-1.2-.5-.3-1.1-.5-1.6-.7-.6-.1-1.2-.2-1.8-.2h-.1c-1.1-.1-1.9-1-1.9-2v-7c0-1.1.9-2 2-2s2 .6 2 1.7z"/><circle class="st6" cx="90" cy="1056" r="5"/><circle class="st5" cx="90" cy="1085" r="4"/></svg>