<svg xmlns="http://www.w3.org/2000/svg" xmlns:xlink="http://www.w3.org/1999/xlink" viewBox="0 0 400 340" enable-background="new 0 0 400 340"><style type="text/css">.st0{fill:#424242;} .st1{fill:#7C6959;} .st2{opacity:0.2;fill:#231F20;} .st3{fill:#90A4AE;} .st4{fill:#B0BEC5;} .st5{fill:#FCE68D;} .st6{fill:#CFD8DC;} .st7{fill:#5D4037;} .st8{opacity:0.1;fill:#231F20;} .st9{fill:#FFFFFF;stroke:#FFFFFF;stroke-width:2;stroke-linejoin:round;stroke-miterlimit:10;}</style><symbol id="mc-chimney-big" viewBox="0 -116 100 116"><path class="st0" d="M100 0H0v-16h8v-100h84v100h8z"/><path class="st1" d="M92-18H8v2h84z"/><path class="st1" d="M51-16v-22h-2v22z"/><path class="st1" d="M51-56v-22h-2v22z"/><path class="st1" d="M51-96v-20h-2v20z"/><path class="st1" d="M81-76v-22h-2v22z"/><path class="st1" d="M21-76v-22h-2v22z"/><path class="st1" d="M92-38H8v2h84z"/><path class="st1" d="M92-58H8v2h84z"/><path class="st1" d="M92-78H8v2h84z"/><path class="st1" d="M92-98H8v2h84z"/><path class="st2" d="M92-34L8-24v8h84z"/><path class="st1" d="M81-36v-22h-2v22z"/><path class="st1" d="M21-36v-22h-2v22z"/><path class="st1" d="M81 0v-15.8h-2V0z"/><path class="st1" d="M21 0v-15.8h-2V0z"/></symbol><use xlink:href="#mc-chimney-big" width="100" height="116" y="-116" transform="matrix(1 0 0 -1 32 0)" overflow="visible"/><path class="st3" d="M30 110h340v230H30z"/><path class="st4" d="M110 154h27v27h-27z"/><path class="st4" d="M143 154h27v27h-27z"/><path class="st4" d="M110 186h27v27h-27z"/><path class="st4" d="M143 186h27v27h-27z"/><path class="st5" d="M230 154h27v27h-27z"/><path class="st5" d="M263 154h27v27h-27z"/><path class="st5" d="M230 186h27v27h-27z"/><path class="st5" d="M263 186h27v27h-27z"/><path class="st4" d="M230 234h27v27h-27z"/><path class="st4" d="M263 234h27v27h-27z"/><path class="st4" d="M230 266h27v27h-27z"/><path class="st4" d="M263 266h27v27h-27z"/><path class="st4" d="M110 234h27v27h-27z"/><path class="st4" d="M143 234h27v27h-27z"/><path class="st4" d="M110 266h27v27h-27z"/><path class="st4" d="M143 266h27v27h-27z"/><path class="st6" d="M105 212h70v6h-70z"/><path class="st6" d="M225 212h70v6h-70z"/><path class="st6" d="M105 293h70v6h-70z"/><path class="st6" d="M225 293h70v6h-70z"/><path class="st7" d="M268.4 42H131.6L6 110v10c0 4.4 3.6 8 8 8s8-3.6 8-8c0 4.4 3.6 8 8 8h.1c4.5 0 8.1-3.6 8.1-8 0 4.4 3.6 8 8.1 8s8.1-3.6 8.1-8c0 4.4 3.6 8 8.1 8s8.1-3.6 8.1-8c0 4.4 3.6 8 8.1 8s8.1-3.6 8.1-8c0 4.4 3.6 8 8.1 8s8.1-3.6 8.1-8c0 4.4 3.6 8 8.1 8s8.1-3.6 8.1-8c0 4.4 3.6 8 8.1 8s8.1-3.6 8.1-8c0 4.4 3.6 8 8.1 8s8.1-3.6 8.1-8c0 4.4 3.6 8 8.1 8s8.1-3.6 8.1-8c0 4.4 3.6 8 8.1 8s8.1-3.6 8.1-8c0 4.4 3.6 8 8.1 8s8.1-3.6 8.1-8c0 4.4 3.6 8 8.1 8s8.1-3.6 8.1-8c0 4.4 3.6 8 8.1 8s8.1-3.6 8.1-8c0 4.4 3.6 8 8.1 8s8.1-3.6 8.1-8c0 4.4 3.6 8 8.1 8s8.1-3.6 8.1-8c0 4.4 3.6 8 8.1 8s8.1-3.6 8.1-8c0 4.4 3.6 8 8.1 8s8.1-3.6 8.1-8c0 4.4 3.6 8 8.1 8s8.1-3.6 8.1-8c0 4.4 3.6 8 8.1 8s8.1-3.6 8.1-8c0 4.4 3.6 8 8.1 8s8.1-3.6 8.1-8c0 4.4 3.6 8 8.1 8s8.1-3.6 8.1-8c0 4.4 3.6 8 8 8s8-3.6 8-8c0 4.4 3.6 8 8 8s8-3.6 8-8v-10L268.4 42z"/><path class="st8" d="M362 120c0 4.4-3.6 8-8.1 8s-8.1-3.6-8.1-8c0 4.4-3.6 8-8.1 8s-8.1-3.6-8.1-8c0 4.4-3.6 8-8.1 8s-8.1-3.6-8.1-8c0 4.4-3.6 8-8.1 8s-8.1-3.6-8.1-8c0 4.4-3.6 8-8.1 8s-8.1-3.6-8.1-8c0 4.4-3.6 8-8.1 8s-8.1-3.6-8.1-8c0 4.4-3.6 8-8.1 8s-8.1-3.6-8.1-8c0 4.4-3.6 8-8.1 8s-8.1-3.6-8.1-8c0 4.4-3.6 8-8.1 8s-8.1-3.6-8.1-8c0 4.4-3.6 8-8.1 8s-8.1-3.6-8.1-8c0 4.4-3.6 8-8.1 8s-8.1-3.6-8.1-8c0 4.4-3.6 8-8.1 8s-8.1-3.6-8.1-8c0 4.4-3.6 8-8.1 8s-8.1-3.6-8.1-8c0 4.4-3.6 8-8.1 8s-8.1-3.6-8.1-8c0 4.4-3.6 8-8.1 8s-8.1-3.6-8.1-8c0 4.4-3.6 8-8.1 8s-8.1-3.6-8.1-8c0 4.4-3.6 8-8.1 8s-8.1-3.6-8.1-8c0 4.4-3.6 8-8.1 8s-8.1-3.6-8.1-8c0 4.4-3.6 8-8.1 8s-8.1-3.6-8.1-8c0 4.4-3.6 8-8.1 8s-8.1-3.6-8.1-8c0 4.4-3.6 8-8.1 8h-.1v12h.1c4.5 0 8.1-3.6 8.1-8 0 4.4 3.6 8 8.1 8s8.1-3.6 8.1-8c0 4.4 3.6 8 8.1 8s8.1-3.6 8.1-8c0 4.4 3.6 8 8.1 8s8.1-3.6 8.1-8c0 4.4 3.6 8 8.1 8s8.1-3.6 8.1-8c0 4.4 3.6 8 8.1 8s8.1-3.6 8.1-8c0 4.4 3.6 8 8.1 8s8.1-3.6 8.1-8c0 4.4 3.6 8 8.1 8s8.1-3.6 8.1-8c0 4.4 3.6 8 8.1 8s8.1-3.6 8.1-8c0 4.4 3.6 8 8.1 8s8.1-3.6 8.1-8c0 4.4 3.6 8 8.1 8s8.1-3.6 8.1-8c0 4.4 3.6 8 8.1 8s8.1-3.6 8.1-8c0 4.4 3.6 8 8.1 8s8.1-3.6 8.1-8c0 4.4 3.6 8 8.1 8s8.1-3.6 8.1-8c0 4.4 3.6 8 8.1 8s8.1-3.6 8.1-8c0 4.4 3.6 8 8.1 8s8.1-3.6 8.1-8c0 4.4 3.6 8 8.1 8s8.1-3.6 8.1-8c0 4.4 3.6 8 8.1 8s8.1-3.6 8.1-8c0 4.4 3.6 8 8.1 8s8.1-3.6 8.1-8c0 4.4 3.6 8 8.1 8s8.1-3.6 8.1-8c0 4.4 3.6 8 8.1 8s8.1-3.6 8.1-8c0 4.4 3.6 8 8 8v-12c-4.4 0-8-3.6-8-8z"/><path class="st9" d="M32.7 112c0 4-3.6 8.1-8.1 8.1s-8.1-4.1-8.1-8.1h16.2z"/><path class="st9" d="M48.9 112c0 4-3.6 8.1-8.1 8.1s-8.1-4.1-8.1-8.1h16.2z"/><path class="st9" d="M65.1 112c0 4-3.6 8.1-8.1 8.1s-8.1-4.1-8.1-8.1h16.2z"/><path class="st9" d="M290.2 112c0 4-3.6 8.1-8.1 8.1S274 116 274 112h16.2z"/><path class="st9" d="M306.4 112c0 4-3.6 8.1-8.1 8.1s-8.1-4.1-8.1-8.1h16.2z"/><path class="st9" d="M322.5 112c0 4-3.6 8.1-8.1 8.1s-8.1-4.1-8.1-8.1h16.2z"/><path class="st9" d="M142.2 218c0 4.5-3.6 8.1-8.1 8.1s-8.1-3.6-8.1-8.1h16.2z"/><path class="st9" d="M158.4 218c0 4.5-3.6 8.1-8.1 8.1s-8.1-3.6-8.1-8.1h16.2z"/><path class="st9" d="M174.5 218c0 4.5-3.6 8.1-8.1 8.1s-8.1-3.6-8.1-8.1h16.2z"/><path class="st9" d="M278.9 218c0 4.5-3.6 8.1-8.1 8.1s-8.1-3.6-8.1-8.1h16.2z"/><path class="st9" d="M295.1 218c0 4.5-3.6 8.1-8.1 8.1s-8.1-3.6-8.1-8.1h16.2z"/></svg>