<svg xmlns="http://www.w3.org/2000/svg" xmlns:xlink="http://www.w3.org/1999/xlink" viewBox="0 0 400 264" enable-background="new 0 0 400 264"><style type="text/css">.st0{fill:#4527A0;} .st1{fill:#5E35B1;} .st2{opacity:0.2;fill:#231F20;} .st3{fill:#AB47BC;} .st4{opacity:0.1;fill:#231F20;} .st5{fill:#B39DDB;} .st6{fill:#FCE68D;} .st7{fill:#7E57C2;} .st8{fill:#FFFFFF;stroke:#FFFFFF;stroke-width:2;stroke-linejoin:round;stroke-miterlimit:10;}</style><symbol id="mc-chimney-med" viewBox="0 -116 70 116"><path class="st0" d="M70 0H0v-16h8v-100h54v100h8z"/><path class="st1" d="M20-16v-22h-2v22z"/><path class="st1" d="M20-56v-22h-2v22z"/><path class="st1" d="M20-96v-20h-2v20z"/><path class="st1" d="M62-38H8v2h54z"/><path class="st1" d="M62-18H8v2h54z"/><path class="st1" d="M62-58H8v2h54z"/><path class="st1" d="M62-78H8v2h54z"/><path class="st1" d="M62-98H8v2h54z"/><path class="st1" d="M52-76v-22h-2v22z"/><path class="st1" d="M52-36v-22h-2v22z"/><path class="st1" d="M35.3 0v-15.8h-2V0z"/><path class="st2" d="M62-34L8-24v8h54z"/></symbol><use xlink:href="#mc-chimney-med" width="70" height="116" y="-116" transform="matrix(1 0 0 -1 88.736 0)" overflow="visible"/><path class="st3" d="M30 101h340v163H30z"/><path class="st0" d="M6 66h388v40H6z"/><path class="st4" d="M370 134L30 114v-8h340z"/><path class="st5" d="M105 209h70v6h-70z"/><path class="st5" d="M225 209h70v6h-70z"/><path class="st6" d="M110 150h27v27h-27z"/><path class="st6" d="M143 150h27v27h-27z"/><path class="st6" d="M110 182h27v27h-27z"/><path class="st6" d="M143 182h27v27h-27z"/><path class="st7" d="M230 150h27v27h-27z"/><path class="st7" d="M263 150h27v27h-27z"/><path class="st7" d="M230 182h27v27h-27z"/><path class="st7" d="M263 182h27v27h-27z"/><path class="st4" d="M110 150v7l60 4v-11z"/><path class="st4" d="M230 150v7l60 4v-11z"/><path class="st8" d="M22.9 106c0 4-3.6 8.1-8.1 8.1S6.7 110 6.7 106h16.2z"/><path class="st8" d="M39.1 106c0 4-3.6 8.1-8.1 8.1s-8.1-4.1-8.1-8.1h16.2z"/><path class="st8" d="M55.3 106c0 4-3.6 8.1-8.1 8.1s-8.1-4.1-8.1-8.1h16.2z"/><path class="st8" d="M78.9 106c0 4-3.6 8.1-8.1 8.1s-8.1-4.1-8.1-8.1h16.2z"/><path class="st8" d="M95.1 106c0 4-3.6 8.1-8.1 8.1s-8.1-4.1-8.1-8.1h16.2z"/><path class="st8" d="M361.9 106c0 4-3.6 8.1-8.1 8.1s-8.1-4.1-8.1-8.1h16.2z"/><path class="st8" d="M378.1 106c0 4-3.6 8.1-8.1 8.1s-8.1-4.1-8.1-8.1h16.2z"/><path class="st8" d="M394.3 106c0 4-3.6 8.1-8.1 8.1s-8.1-4.1-8.1-8.1h16.2z"/><path class="st8" d="M264.4 215c0 4-3.6 8.1-8.1 8.1s-8.1-4.1-8.1-8.1h16.2z"/><path class="st8" d="M280.6 215c0 4-3.6 8.1-8.1 8.1s-8.1-4.1-8.1-8.1h16.2z"/><path class="st8" d="M296.7 215c0 4-3.6 8.1-8.1 8.1s-8.1-4.1-8.1-8.1h16.2z"/></svg>