<svg id="Layer_1" data-name="Layer 1" xmlns="http://www.w3.org/2000/svg" viewBox="0 0 271.1 400"><defs><style>.cls-2{fill:#863b96}.cls-3{opacity:.2;isolation:isolate}.cls-4{fill:#fff2f3}.cls-6{fill:#f9ce1e}.cls-7{fill:#999}.cls-8{fill:none;stroke-linecap:round;stroke-miterlimit:10;stroke:#32a558;stroke-width:7.97px}.cls-9{fill:#ffe14d}.cls-10{fill:#fff}.cls-11{fill:#5d4037}.cls-12{fill:#795548}.cls-13{fill:#32a558}.cls-14{fill:#332e2e}.cls-15{fill:#f9ce1d}.cls-16{fill:#f5a816}.cls-17{fill:#777}.cls-23{fill:#ab47bc}.cls-26{fill:#ec407a}.cls-27{fill:#584539}.cls-28{fill:#81d4fa}.cls-29{fill:#424242}</style></defs><path d="M272 289H138v24h12v87h110v-87h12z" transform="translate(-83.5)" fill="#9b51a0"/><path class="cls-2" d="M180 313h3v32h-3zm2.7 59l.1 28h-3v-28z" transform="translate(-83.5)"/><path class="cls-2" d="M150 342h110v3H150zm0-29h110v3H150zm0 59h110v3H150z" transform="translate(-83.5)"/><path class="cls-2" d="M227 342h3v33h-3zm-25-53h3v24h-3z" transform="translate(-83.5)"/><path class="cls-3" d="M260 336.3l-110-11.9V313h110zM202 203h15v47h-15z" transform="translate(-83.5)"/><path class="cls-3" d="M229 249l-19.6 33.9-19.5-33.9z" transform="translate(-83.5)"/><path class="cls-4" d="M198 198h14v46h-14z" transform="translate(-83.5)"/><path class="cls-4" d="M224.6 239L205 272.9 185.4 239z" transform="translate(-83.5)"/><path d="M173.5 193.7l29.8 35 33.8-28.8-29.8-35-5.1-1.5-29.3 25z" transform="translate(-83.5)" fill="#f78c1f"/><path class="cls-6" d="M189.81 212.9l-3.81-4.5 33.81-28.78 3.82 4.5z" transform="translate(-83.5)"/><path class="cls-6" d="M222.49 212.37L218 216.2l-32.67-38.38 4.49-3.82z" transform="translate(-83.5)"/><path class="cls-3" d="M173.5 193.7l-.6-5.3 29.3-25 5.1 1.5z" transform="translate(-83.5)"/><path class="cls-7" d="M247.94 130.25a1.63 1.63 0 0 1-1.48-.89l-56-99.56a1.75 1.75 0 1 1 3.11-1.62l55.85 99.4a1.73 1.73 0 0 1-.74 2.37c-.15.3-.45.3-.74.3z" transform="translate(-83.5)"/><path class="cls-8" d="M237.86 99.28c-16.44 6.23-13.77 21 8.45 28.89" transform="translate(-83.5)"/><circle class="cls-9" cx="164.59" cy="128.91" r="8.44"/><path class="cls-10" d="M243.94 115.58a3.9 3.9 0 0 0-5 2.37L234 131.43a3.94 3.94 0 0 0 7.41 2.67l4.89-13.48a3.9 3.9 0 0 0-2.36-5.04z" transform="translate(-83.5)"/><path class="cls-11" d="M213.27 64.47l30.22 34.67-30.22-9.78z" transform="translate(-83.5)"/><path class="cls-12" d="M235.64 121.5a3.11 3.11 0 0 1-1.33-5.92c5.63-2.82 7.26-8.3 6.22-12.44-1-4.45-5.48-9.34-14.81-9.34a3.11 3.11 0 1 1 0-6.22c13 0 19.25 7.26 20.88 14.07a17.23 17.23 0 0 1-9.48 19.41 2.12 2.12 0 0 1-1.48.44z" transform="translate(-83.5)"/><path class="cls-13" d="M112.59 98.39v13.93l44.14-6.96-44.14-6.97z"/><path class="cls-13" d="M244.23 105.36a17 17 0 0 0-17-17h-23.14a17 17 0 1 0 0 34.07h23.11a16.94 16.94 0 0 0 17.03-17.07z" transform="translate(-83.5)"/><path class="cls-8" d="M196.09 105.51h-31.41" transform="translate(-83.5)"/><path class="cls-14" d="M160.68 123.28a7.65 7.65 0 0 1-7.7-7.7 6 6 0 0 1 5.92-5.93h5.78v-8h-17.33a2 2 0 0 0-1.93 1.93V123a7.83 7.83 0 0 0 7.41 7.85 7.47 7.47 0 0 0 7.85-7.57z" transform="translate(-83.5)"/><path class="cls-15" d="M157 109.51v-3a1.93 1.93 0 0 1 3.85 0v3a2 2 0 0 1-1.93 1.92 1.78 1.78 0 0 1-1.92-1.92z" transform="translate(-83.5)"/><path class="cls-14" d="M123.6 88.39h8.44v33.92h-8.44z"/><path class="cls-12" d="M121.07 88.41h2.52v33.92h-2.52z"/><path class="cls-15" d="M123.66 118.23h8.44v4.3h-8.44z"/><path class="cls-12" d="M226.75 121.5a3.11 3.11 0 0 1-1.33-5.92c5.63-2.82 7.26-8.3 6.22-12.44-1-4.45-5.48-9.34-14.81-9.34a3.11 3.11 0 0 1 0-6.22c13 0 19.26 7.26 20.89 14.07a17.25 17.25 0 0 1-9.49 19.41 2.12 2.12 0 0 1-1.48.44z" transform="translate(-83.5)"/><path class="cls-3" d="M199.64 100.32h23.11a17.15 17.15 0 0 1 17 16.59 16.4 16.4 0 0 0 4.44-11.4 17 17 0 0 0-17-17h-23.1a17 17 0 0 0-17 17v.49a16.93 16.93 0 0 1 12.55-5.68z" transform="translate(-83.5)"/><path class="cls-16" d="M169.72 45.8l-45.33-31.11L349 17.81a1.78 1.78 0 0 1 .15 3.55z" transform="translate(-83.5)"/><path class="cls-12" d="M178.16 93.8c-32.74 0-44.88-9.48-44.88-21.33S146 51.14 178.16 51.14h3.41c2.81 0-.59 7.4-.15 11.4C182.76 75 198 93.8 178.16 93.8z" transform="translate(-83.5)"/><path class="cls-3" d="M138.61 76.91c0-13.18 11.41-22.51 43.11-22.66 0-1 .74-3.11-.15-3.11h-3.41c-32.29 0-44.88 9.48-44.88 21.33 0 5.18 2.37 9.78 7.55 13.48a19 19 0 0 1-2.22-9.04z" transform="translate(-83.5)"/><path class="cls-17" d="M302.16 20a1.71 1.71 0 0 1-1.78-1.78v-5.3a1.78 1.78 0 1 1 3.56 0v5.33a1.72 1.72 0 0 1-1.78 1.75z" transform="translate(-83.5)"/><path class="cls-17" d="M302.16 14.69a1.71 1.71 0 0 1-1.78-1.77 3.61 3.61 0 0 0-3.56-3.56 1.71 1.71 0 0 1-1.77-1.78 1.71 1.71 0 0 1 1.77-1.77 7.21 7.21 0 0 1 7.12 7.11 1.72 1.72 0 0 1-1.78 1.77zm-14.22-5.33a7.2 7.2 0 0 1-7.11-7.11 1.78 1.78 0 1 1 3.55 0 3.61 3.61 0 0 0 3.56 3.56 1.71 1.71 0 0 1 1.77 1.77 1.71 1.71 0 0 1-1.77 1.78z" transform="translate(-83.5)"/><path class="cls-17" d="M295.94 9.36a7.21 7.21 0 0 1-7.12-7.11 1.78 1.78 0 1 1 3.56 0 3.61 3.61 0 0 0 3.56 3.56 1.71 1.71 0 0 1 1.77 1.77 1.71 1.71 0 0 1-1.77 1.78z" transform="translate(-83.5)"/><path class="cls-17" d="M296.82 9.36h-8.88a1.71 1.71 0 0 1-1.78-1.78 1.71 1.71 0 0 1 1.78-1.77h8.88a1.71 1.71 0 0 1 1.78 1.77 1.71 1.71 0 0 1-1.78 1.78z" transform="translate(-83.5)"/><path class="cls-12" d="M202.75 54.25c3.26 3.7-3.7 6.52-7.25 9-3.56 2.37-10.23-.75-13-4.75s-2.08-9.33 1.48-11.7c3.52-2.48 11.07-1.44 18.77 7.45z" transform="translate(-83.5)"/><path class="cls-11" d="M199.94 54.54c2.81 4-1.33 7.26-4.3 9.34s-7.7.44-10.51-3.56-2.52-9 .44-11.11c4.15-2.96 11.55 1.19 14.37 5.33z" transform="translate(-83.5)"/><ellipse class="cls-11" cx="214.65" cy="85.65" rx="6.67" ry="8.89" transform="rotate(-33.9 175.331 221.85)"/><path d="M195.5 52.92h20.44v25.77H195.5z" transform="translate(-83.5)" fill="#4527a0"/><path d="M202.61 52.92h7v25.77h-7zm-19.56-2.67h14.22v16h-14.22z" transform="translate(-83.5)" fill="#7e57c2"/><path d="M206.16 62.69h13.33V76h-13.33z" transform="translate(-83.5)" fill="#37474f"/><path d="M209.72 62.69h2.66V76h-2.66z" transform="translate(-83.5)" fill="#607d8b"/><path d="M190.16 57.36h19.56v19.55h-19.56z" transform="translate(-83.5)" fill="#5e35b1"/><path class="cls-23" d="M190.16 65.36h19.56v3.55h-19.56z" transform="translate(-83.5)"/><path class="cls-23" d="M198.16 57.36h3.56v19.55h-3.56z" transform="translate(-83.5)"/><path d="M198.16 74.25h13.33v13.33h-13.33z" transform="translate(-83.5)" fill="#ef6c00"/><path class="cls-16" d="M203.5 74.25h2.66v13.33h-2.66z" transform="translate(-83.5)"/><path class="cls-16" d="M198.16 79.58h13.33v2.67h-13.33z" transform="translate(-83.5)"/><path d="M211.49 76h13.34v13.36h-13.34z" transform="translate(-83.5)" fill="#ad1457"/><path class="cls-26" d="M216.83 76h2.66v13.36h-2.66z" transform="translate(-83.5)"/><circle class="cls-27" cx="173.92" cy="95.28" r="17.18"/><ellipse class="cls-28" cx="272.04" cy="100.83" rx="6.37" ry="4.3" transform="rotate(-73.7 229.76 156.653)"/><path class="cls-29" d="M270.9 108.17a3.67 3.67 0 0 1-1.19-.15 4.85 4.85 0 0 1-3.11-3.4 11.52 11.52 0 0 1 0-5.48c.89-3.56 3.56-5.93 6.23-5.93a3.62 3.62 0 0 1 1.18.15c2.82.74 4.3 4.74 3 8.74-.74 3.7-3.4 6.07-6.07 6.07zm2.1-12.59c-1.63 0-3.4 1.78-4 4.3a6.21 6.21 0 0 0 0 4 2.58 2.58 0 0 0 1.63 1.92c1.63.45 3.86-1.48 4.45-4.15s.15-5.48-1.63-6.07z" transform="translate(-83.5)"/><path class="cls-27" d="M274.46 116.62l-6.67-13.93-7.41 1.63 11.85 13.33c1.48 1.78 3.26.35 2.23-1.03z" transform="translate(-83.5)"/><path class="cls-13" d="M256.38 75.28h-33.33s15.26 3.56 15.11 18.52a16.83 16.83 0 0 0 4.15 11.41c4.29 1.78 8 2.67 8.59-6.67.74-12 17.93-15.4 23.85-8.89-1.04-8.59-8.89-14.37-18.37-14.37z" transform="translate(-83.5)"/><ellipse class="cls-28" cx="260.67" cy="101.85" rx="6.81" ry="5.04" transform="rotate(-73.61 218.918 157.64)"/><path class="cls-29" d="M259.79 109.65a5.83 5.83 0 0 1-1.48-.14c-3.11-.89-4.89-5-3.71-9.34 1.19-3.7 3.86-6.07 6.67-6.07a4.9 4.9 0 0 1 5 3.85 9.66 9.66 0 0 1 0 5.78c-.74 3.41-3.56 5.92-6.52 5.92zm1.78-13.48c-1.93 0-3.85 1.93-4.6 4.45-.74 3 .15 6.07 2.08 6.52s4.44-1.49 5.48-4.45a7.15 7.15 0 0 0 0-4.3 3.48 3.48 0 0 0-2.07-2.22c-.46-.17-.6 0-.89 0z" transform="translate(-83.5)"/><path d="M158.81 105.21c1.18.74 5.92 1 6.66-8.3.75-12 20-13.77 25.78-7.26" stroke="#eee" stroke-width="6.36" fill="none" stroke-linecap="round" stroke-miterlimit="10"/><path class="cls-26" d="M211.49 81.36h13.34V84h-13.34z" transform="translate(-83.5)"/><path class="cls-12" d="M180.24 54.25l33 34.22 3.56 5.33h-38.19z" transform="translate(-83.5)"/><path class="cls-7" d="M189.27 30.25a1.43 1.43 0 0 1-1.33-1l-5.33-27.59a1.36 1.36 0 1 1 2.66-.59l5.34 27.55a1.38 1.38 0 0 1-1 1.63z" transform="translate(-83.5)"/><path class="cls-15" d="M83.5 45.8l40.89-31.11 225 3a1.78 1.78 0 0 1 .14 3.55z" transform="translate(-83.5)"/><path class="cls-8" d="M231.94 102.25c-3.56 14.51-8.89 23.7-25.63 40.44" transform="translate(-83.5)"/><circle class="cls-9" cx="121.48" cy="144.02" r="8.44"/><path class="cls-10" d="M219.05 140.47L209 130.25a4 4 0 0 0-5.63 5.62l10.07 10.23a3.85 3.85 0 0 0 5.63 0 4.12 4.12 0 0 0-.02-5.63z" transform="translate(-83.5)"/><ellipse class="cls-28" cx="233.77" cy="14.69" rx="3.56" ry="6.22"/><path class="cls-29" d="M317.27 22c-2.52 0-4.59-3.26-4.59-7.26s2.07-7.25 4.59-7.25 4.59 3.25 4.59 7.25-2.07 7.26-4.59 7.26zm0-12.44c-1.19 0-2.52 2.22-2.52 5.18s1.33 5.19 2.52 5.19 2.52-2.22 2.52-5.19-1.34-5.23-2.52-5.23z" transform="translate(-83.5)"/><circle cx="265.77" cy="19.14" r="5.33" fill="#e53935"/><path class="cls-7" d="M298.6 20a1.72 1.72 0 0 1-1.78-1.78v-5.3a1.78 1.78 0 1 1 3.56 0v5.33A1.71 1.71 0 0 1 298.6 20z" transform="translate(-83.5)"/><path class="cls-7" d="M298.6 14.69a1.72 1.72 0 0 1-1.78-1.77 3.61 3.61 0 0 0-3.55-3.56 1.71 1.71 0 0 1-1.78-1.78 1.71 1.71 0 0 1 1.78-1.77 7.21 7.21 0 0 1 7.11 7.11 1.71 1.71 0 0 1-1.78 1.77zm-14.22-5.33a7.21 7.21 0 0 1-7.11-7.11 1.78 1.78 0 1 1 3.56 0 3.6 3.6 0 0 0 3.55 3.56 1.71 1.71 0 0 1 1.78 1.77 1.71 1.71 0 0 1-1.78 1.78z" transform="translate(-83.5)"/><path class="cls-7" d="M292.38 9.36a7.21 7.21 0 0 1-7.11-7.11 1.78 1.78 0 1 1 3.55 0 3.61 3.61 0 0 0 3.56 3.56 1.71 1.71 0 0 1 1.78 1.77 1.71 1.71 0 0 1-1.78 1.78z" transform="translate(-83.5)"/><path class="cls-7" d="M293.27 9.36h-8.89a1.71 1.71 0 0 1-1.78-1.78 1.71 1.71 0 0 1 1.78-1.77h8.89a1.71 1.71 0 0 1 1.78 1.77 1.71 1.71 0 0 1-1.78 1.78zM243.35 132a1.72 1.72 0 0 1-1.63-1.18 2 2 0 0 1 1-2.37l4.45-1.78a1.83 1.83 0 0 1 1.33 3.41l-4.44 1.77a1.62 1.62 0 0 1-.74.15z" transform="translate(-83.5)"/><path d="M243.49 132a2 2 0 0 1-1.63-.89L187.64 29.8a1.75 1.75 0 1 1 3.11-1.62L245 129.5a1.72 1.72 0 0 1-.74 2.37c-.17.13-.47.13-.77.13z" transform="translate(-83.5)" fill="#bdbdbd"/></svg>