<svg xmlns="http://www.w3.org/2000/svg" viewBox="0 0 90 90"><style>.st0{fill:#ce93d8}.st1{fill:#f9ce1d}</style><circle class="st0" cx="45" cy="45" r="45"/><path class="st1" d="M0 45c0-8.2 2.2-15.8 6.1-22.5C13.9 35.9 28.4 45 45 45c-14.4 8.3-31.5 7.7-45 0zm22.5 38.9C15.7 80 10 74.3 6 67.5c15.5 0 30.6-8 39-22.5 0 16.6-9.1 31.1-22.5 38.9z"/><path class="st1" d="M22.5 6C29.2 2.2 36.8 0 45 0c-7.8 13.5-8.4 30.6 0 45-14.4-8.3-22.4-23.4-22.5-39zM90 45c0 8.2-2.2 15.8-6.1 22.5C76.1 54.1 61.6 45 45 45c14.4-8.3 31.5-7.7 45 0z"/><path class="st1" d="M67.5 84c-6.6 3.8-14.3 6-22.5 6 7.8-13.5 8.4-30.6 0-45 14.4 8.3 22.4 23.4 22.5 39zM84 22.5c-15.5 0-30.6 8-39 22.5 0-16.6 9.1-31.1 22.5-38.9C74.3 10 80 15.7 84 22.5z"/></svg>