<svg xmlns="http://www.w3.org/2000/svg" viewBox="0 0 90 90" enable-background="new 0 0 90 90"><style type="text/css">.st0{fill:#EEEEEE;} .st1{fill:#DA4637;}</style><circle class="st0" cx="45" cy="45" r="45"/><path class="st1" d="M13.2 76.8c2.6 2.6 5.4 4.7 8.3 6.5L45 45 6.6 68.5c1.8 3 4 5.8 6.6 8.3z"/><path class="st1" d="M45 45l38.4-23.5c-1.8-3-4-5.7-6.5-8.3-2.6-2.6-5.4-4.7-8.3-6.5L45 45z"/><path class="st1" d="M13.2 13.2c-2.6 2.6-4.7 5.4-6.5 8.3L45 45 21.5 6.6c-3 1.8-5.8 4-8.3 6.6z"/><path class="st1" d="M45 45l23.5 38.4c3-1.8 5.7-4 8.3-6.5 2.6-2.6 4.7-5.4 6.5-8.3L45 45z"/></svg>