<svg xmlns="http://www.w3.org/2000/svg" viewBox="0 0 90 90" enable-background="new 0 0 90 90"><style type="text/css">.st0{fill:#1565C0;} .st1{fill:#1E88E5;} .st2{fill:none;stroke:#EEEEEE;stroke-width:4;stroke-miterlimit:10;} .st3{fill:none;stroke:#EEEEEE;stroke-width:3;stroke-miterlimit:10;}</style><circle class="st0" cx="45.1" cy="45" r="35"/><circle class="st1" cx="45.1" cy="45" r="30"/><path class="st2" d="M45 45V22"/><path class="st3" d="M45 34l6-8"/><path class="st3" d="M45 34l-6-8"/><path class="st2" d="M45 45v24"/><path class="st3" d="M45 56.5l-6 8"/><path class="st3" d="M45 56.5l6 8"/><path class="st2" d="M44.6 45.2l-20-11.4"/><path class="st3" d="M35 39.8l-3.9-9.2"/><path class="st3" d="M35 39.8l-9.9 1.1"/><path class="st2" d="M44.6 45.3l20.8 11.9"/><path class="st3" d="M54.5 51l4 9.2"/><path class="st3" d="M54.5 51l10-1.2"/><path class="st2" d="M44.7 45.7L24.8 57.2"/><path class="st3" d="M35.1 51.2L25.2 50"/><path class="st3" d="M35.1 51.2l-3.9 9.2"/><path class="st2" d="M44.7 45.7l20.8-12"/><path class="st3" d="M54.6 39.9l10 1.2"/><path class="st3" d="M54.6 39.9l4-9.2"/></svg>