<svg xmlns="http://www.w3.org/2000/svg" viewBox="0 0 70 62" enable-background="new 0 0 70 62"><style type="text/css">.st0{fill:#EC407A;} .st1{fill:#FCE68D;}</style><path class="st0" d="M70 4c0-2.2-1.8-4-4-4H4C1.8 0 0 1.8 0 4v34c0 2.2 1.8 4 4 4h62c2.2 0 4-1.8 4-4V4z"/><path class="st0" d="M16.6 27L35 62l18.4-35z"/><path class="st1" d="M21.9 32h-5.3V15.2l-5.2 1.5v-4l10-3.5h.5V32z"/><path class="st1" d="M41.3 22.7c0 1.6-.2 3.1-.6 4.3-.4 1.2-.9 2.2-1.6 3-.7.8-1.5 1.4-2.5 1.8s-2 .6-3.2.6c-1.2 0-2.3-.2-3.2-.6-1-.4-1.8-1-2.5-1.8s-1.2-1.8-1.6-3-.6-2.6-.6-4.3v-4.2c0-1.6.2-3.1.6-4.3.4-1.2.9-2.2 1.6-3 .7-.8 1.5-1.4 2.5-1.8 1-.4 2-.6 3.2-.6 1.2 0 2.2.2 3.2.6 1 .4 1.8 1 2.5 1.8s1.2 1.8 1.6 3c.4 1.2.6 2.6.6 4.3v4.2zm-5.2-4.8c0-.9-.1-1.7-.2-2.3-.1-.6-.3-1.1-.5-1.5-.2-.4-.5-.7-.8-.8-.3-.2-.7-.2-1.1-.2-.4 0-.8.1-1.1.2-.3.2-.6.4-.8.8-.2.4-.4.9-.5 1.5-.1.6-.2 1.4-.2 2.3v5.5c0 .9.1 1.7.2 2.3.1.6.3 1.1.5 1.5.2.4.5.7.8.8.3.2.7.2 1.1.2.4 0 .8-.1 1.1-.2.3-.2.6-.4.8-.8.2-.4.4-.9.5-1.5.1-.6.2-1.4.2-2.3v-5.5z"/><path class="st1" d="M59.9 22.7c0 1.6-.2 3.1-.6 4.3-.4 1.2-.9 2.2-1.6 3-.7.8-1.5 1.4-2.5 1.8s-2 .6-3.2.6c-1.2 0-2.3-.2-3.2-.6-1-.4-1.8-1-2.5-1.8s-1.2-1.8-1.6-3-.7-2.7-.7-4.3v-4.2c0-1.6.2-3.1.6-4.3.4-1.2.9-2.2 1.6-3 .7-.8 1.5-1.4 2.5-1.8 1-.4 2-.6 3.2-.6 1.2 0 2.2.2 3.2.6 1 .4 1.8 1 2.5 1.8s1.2 1.8 1.6 3c.4 1.2.6 2.6.6 4.3v4.2zm-5.3-4.8c0-.9-.1-1.7-.2-2.3-.1-.6-.3-1.1-.5-1.5-.2-.4-.5-.7-.8-.8-.3-.2-.7-.2-1.1-.2-.4 0-.8.1-1.1.2-.3.2-.6.4-.8.8-.2.4-.4.9-.5 1.5-.1.6-.2 1.4-.2 2.3v5.5c0 .9.1 1.7.2 2.3.1.6.3 1.1.5 1.5.2.4.5.7.8.8.3.2.7.2 1.1.2.4 0 .8-.1 1.1-.2.3-.2.6-.4.8-.8.2-.4.4-.9.5-1.5.1-.6.2-1.4.2-2.3v-5.5z"/></svg>