<svg xmlns="http://www.w3.org/2000/svg" viewBox="0 0 56 34" enable-background="new 0 0 56 34"><style type="text/css">.st0{fill:none;} .st1{fill:#CE93D8;} .st2{fill:#FFFFFF;fill-opacity:0.2;} .st3{fill:#3E2723;fill-opacity:0.2;} .st4{fill:#F9CE1D;}</style><path class="st0" d="M0 0h56v34H0z"/><path class="st1" d="M18 17L0 4v26z"/><path class="st2" d="M18 17L0 13V4z"/><path class="st3" d="M9 18l-9 6v-4z"/><path class="st1" d="M38 17l18 13V4z"/><path class="st2" d="M47 16l9-6v4z"/><path class="st3" d="M38 17l18 13v-9z"/><circle class="st1" cx="28" cy="17" r="16"/><path class="st4" d="M15.1 7.5c1.7-2.3 4-4.1 6.5-5.1C21 7.8 23.2 13.5 28 17c-5.9-.7-10.7-4.5-12.9-9.5z"/><path class="st4" d="M13.3 23.4c-1.1-2.6-1.5-5.4-1.2-8.2 4.4 3.3 10.5 4.2 15.9 1.8-3.5 4.8-9.2 7-14.7 6.4z"/><path class="st4" d="M29.8 1.1c2.7.3 5.4 1.3 7.7 3-5.1 2.2-8.8 7-9.5 12.9-2.4-5.4-1.5-11.4 1.8-15.9z"/><path class="st4" d="M40.9 26.5c-1.7 2.3-4 4.1-6.5 5.1.6-5.4-1.6-11.1-6.4-14.6 5.9.7 10.7 4.4 12.9 9.5z"/><path class="st4" d="M26.2 32.9c-2.7-.3-5.4-1.3-7.7-3 5.1-2.2 8.8-7 9.5-12.9 2.4 5.4 1.5 11.4-1.8 15.9z"/><path class="st4" d="M43.9 18.8C39.4 15.5 33.4 14.6 28 17c3.5-4.8 9.2-7 14.7-6.4 1.1 2.6 1.5 5.4 1.2 8.2z"/><path class="st3" d="M37.7 4.3C39.8 7 41 10.3 41 14c0 8.8-7.2 16-16 16-3.7 0-7-1.2-9.7-3.3C18.2 30.5 22.8 33 28 33c8.8 0 16-7.2 16-16 0-5.2-2.5-9.8-6.3-12.7z"/></svg>