<svg xmlns="http://www.w3.org/2000/svg" xmlns:xlink="http://www.w3.org/1999/xlink" viewBox="0 0 377 347" enable-background="new 0 0 377 347"><defs><path id="a" d="M0 0h377v347H0z"/></defs><clipPath id="b"><use xlink:href="#a" overflow="visible"/></clipPath><g clip-path="url(#b)"><path stroke="#27B0C6" stroke-width="25.1" stroke-linecap="round" stroke-miterlimit="10" d="M88.4 355.3" fill="none"/><path stroke="#29B6F6" stroke-width="31.006" stroke-linecap="round" stroke-miterlimit="10" d="M100.6 277.2C93.9 252.3 75.5 191.3 57.7 93" fill="none"/><g fill="#FFE18C"><path d="M31.1 88.8l-4-20.8c-2.4-12.6 5.8-24.8 18.3-27.2 12.6-2.4 24.8 5.8 27.2 18.3l4 20.8-45.5 8.9z"/><path d="M69.4 80.6c-3.6-2.1-4.8-6.8-2.7-10.4l4.2-7.1c2.1-3.6 6.8-4.8 10.4-2.7 3.6 2.1 4.8 6.8 2.7 10.4l-4.2 7.1c-2.1 3.7-6.8 4.9-10.4 2.7z"/></g><path stroke="#EDEDED" stroke-width="17.718" stroke-linecap="round" stroke-miterlimit="10" fill="none" d="M73.9 87.6l-35.4 6.9"/><path stroke="#039BE5" stroke-width="31.006" stroke-linecap="round" stroke-miterlimit="10" d="M195.9 283.1c17.5 3 55 14.8 113.6-47.6" fill="none"/><path fill="#EDEDED" d="M338.3 234.4c-1.2 13.1-12.7 22.8-25.8 21.6-13.1-1.2-22.8-12.7-21.6-25.8 1.2-13.1 12.7-22.8 25.8-21.6 13.1 1.1 22.8 12.7 21.6 25.8z"/><path fill="#FFD600" d="M280.67 200.247l22.43 2.773-7.425 60.04-22.428-2.773z"/><path fill="#FBB70F" d="M290.188 210.27l11.91 1.472-6.345 51.307-11.91-1.473z"/><path fill="#FBB70F" d="M332.9 198.6c-18.2-2.3-31.2-18.9-29-37.2 2.3-18.2 18.9-31.2 37.2-29 18.2 2.3 31.2 18.9 29 37.2-2.3 18.2-19 31.2-37.2 29zm6-48.4c-8.4-1-16.1 5-17.1 13.4s5 16.1 13.4 17.1 16.1-5 17.1-13.4-5-16-13.4-17.1z"/><path fill="#FFD600" d="M250.5 188.4c-18.2-2.3-31.2-18.9-29-37.2 2.3-18.2 18.9-31.2 37.2-29 18.2 2.3 31.2 18.9 29 37.2-2.3 18.2-19 31.2-37.2 29zm5.9-48.3c-8.4-1-16.1 5-17.1 13.4s5 16.1 13.4 17.1 16.1-5 17.1-13.4-4.9-16.1-13.4-17.1z"/><path fill="#FFD600" d="M240.2 272.3c2.1-17.2 22.8-28.8 46.1-25.9 23.4 2.9 40.6 19.1 38.4 36.3"/><path fill="#FBB70F" d="M311 280.6l13.9 1.7c2-16.2-15.1-33.2-38.5-36.1-.1 0-.1-.1-.2-.1 14.9 5.2 24.9 21 24.8 34.5z"/><path fill="#FFD600" d="M254 159c-3.7 30.1 11.6 56.8 35 59.7 23.5 2.9 44.8-19.4 48.5-49.4l5.9-48-83.4-10.4-6 48.1z"/><path fill="#FBB70F" d="M334 120l-4.6 36.9c-3.7 30.1-25.9 52.3-49.3 49.4-7.3-.9-13.9-4.1-19.4-9 6.4 11.8 16 19.9 28.4 21.4 23.5 2.9 44.7-19.4 48.5-49.5l5.9-48-9.5-1.2z"/><g fill="#fff"><path d="M346.3 124.7l-4.9 10.4-2.5-12.4 6.1-11.3z"/><path d="M341.1 126.8l-10.3-4.9 12.3-2.5 11.3 6.1z"/></g><path fill="#FFE18C" d="M343.3 224.4c-1.2 13.1-12.7 22.8-25.8 21.6-13.1-1.2-22.8-12.7-21.6-25.8 1.2-13.1 12.7-22.8 25.8-21.6 13.1 1.1 22.8 12.7 21.6 25.8z"/><path fill="#fff" d="M97.5 446.9L88 553.6l32.6 2.9 9.5-106.7"/><path fill="#fff" d="M176.1 453.9l-9.5 106.7-32.7-2.9 9.6-106.7"/><path fill="#27B0C6" d="M97.5 446.9l-5.1 56.7 32.7 2.9 5-56.7"/><path fill="#332E2E" d="M123.4 550.8l-37.8-3.4c-14.8 23.3-47.4 20.4-50.3 2.3 0 0-20.4 32.2 58.2 34.3 18.6.5 34.8-15.2 29.9-33.2z"/><path fill="#27B0C6" d="M176.1 453.9l-5.1 56.7-32.6-2.9 5.1-56.7"/><path fill="#3A9AB1" d="M176.1 453.9l-5.1 56.7-32.6-2.9 5.1-56.7"/><path fill="#332E2E" d="M132.2 551.6L170 555c10.4 25.6 43 28.5 49.1 11.1 0 0 14.4 35.3-63.4 23.5-18.3-2.8-31.5-21.1-23.5-38z"/><path fill="#039BE5" d="M203.4 414.8c-3.1 34.6-33.7 60.2-68.3 57.1-34.6-3.1-60.2-33.7-57.1-68.3l7.7-86.6c3.1-34.6 33.7-60.2 68.3-57.1 34.6 3.1 60.2 33.7 57.1 68.3l-7.7 86.6z"/><path fill="#29B6F6" d="M177.4 412.5c-3.1 34.6-7.6 62.5-42.3 59.5-34.6-3.1-60.2-33.7-57.1-68.3l7.7-86.6c3.1-34.6 33.7-60.2 68.3-57.1 34.6 3.1 34.2 31.4 31.1 66l-7.7 86.5z"/><path fill="#1FA9F6" d="M230.4 140.1S139.2 55.2 92.1 32.4c0 0 39.7 70.5 12.5 101.9l125.8 5.8z"/><path opacity=".47" fill="#fff" d="M73.9 29.8c0 7.4 6 13.5 13.4 13.6 7.5 0 13.5-6 13.6-13.4 0-7.5-6-13.5-13.4-13.6-7.4-.1-13.5 5.9-13.6 13.4z"/><path fill="#29B6F6" d="M191.1 139.8S139.3 55.1 92.2 32.4c0 0 39.7 70.5 12.5 101.9l86.4 5.5z"/><path fill="#FFE18C" d="M217.8 189.2l21-28.2s11.5 73-28.6 63.9l7.6-35.7z"/><path opacity=".31" fill="#FFE18C" d="M217.8 189.2l21-28.2s11.5 73-28.6 63.9l7.6-35.7z"/><path fill="#FFE18C" d="M223.1 198.5c-.2 34.8-28.6 62.8-63.3 62.6-34.8-.2-62.8-28.6-62.6-63.3.2-34.8 28.6-62.8 63.3-62.6 34.8.2 62.8 28.5 62.6 63.3z"/><path fill="#fff" d="M111.9 212c6 20.6 24.9 35.8 47.5 35.9 22.6.1 41.7-14.8 47.9-35.3l-95.4-.6z"/><path fill="#FFE18C" d="M164.7 218.9h-10.2l-2.2-14.8 14.7.1z"/><path fill="#332E2E" d="M197.1 189.3c0 6.2-5.1 11.2-11.3 11.2-6.2 0-11.2-5.1-11.2-11.3 0-6.2 5.1-11.2 11.3-11.2 6.2.1 11.2 5.1 11.2 11.3z"/><path fill="#332E2E" d="M145.7 189.1c0 6.2-5.1 11.2-11.3 11.2-6.2 0-11.2-5.1-11.2-11.3 0-6.2 5.1-11.2 11.3-11.2 6.2 0 11.2 5.1 11.2 11.3z"/><path fill="#fff" d="M231.9 153.8c0 4.6-3.8 8.4-8.4 8.3l-125.1-.7c-4.6 0-8.4-3.8-8.3-8.4l.1-15.4c0-4.6 3.8-8.4 8.4-8.3l125.1.7c4.6 0 8.4 3.8 8.3 8.4l-.1 15.4z"/><ellipse transform="matrix(.996 .089 -.089 .996 52.575 -9.016)" opacity=".2" fill="#231F20" cx="127.6" cy="586.2" rx="127.1" ry="11.3"/><path stroke="#fff" stroke-width="2.057" stroke-miterlimit="10" fill="none" d="M154.2 263.6l-15 167.5"/><path fill="#332E2E" d="M80.542 375.05l125.397 11.184-2.8 31.374-125.396-11.184z"/><path fill="#FFE18C" d="M98.8 188.5l-20.7-28.4S65.8 233 106 224.3l-7.2-35.8z"/><path fill="#FDD500" d="M127.546 377.095l32.67 2.913-3.172 35.558-32.67-2.914z"/></g></svg>