<?xml version="1.0" encoding="utf-8"?>
<!-- Generator: Adobe Illustrator 19.1.0, SVG Export Plug-In . SVG Version: 6.00 Build 0)  -->
<svg version="1.1" id="Layer_1" xmlns="http://www.w3.org/2000/svg" xmlns:xlink="http://www.w3.org/1999/xlink" x="0px" y="0px"
	 width="200px" height="35px" viewBox="0 0 200 35" style="enable-background:new 0 0 200 35;" xml:space="preserve">
<style type="text/css">
	.st0{fill:#19601B;}
</style>
<g>
	<g>
		<g>
			<path class="st0" d="M76.1,13.7c-1.5,0-2.7-0.4-3.5-1.1c-0.2-0.1-0.3-0.3-0.3-0.4c-0.1-0.1-0.1-0.2-0.1-0.4
				c0-0.2,0.1-0.4,0.3-0.6c0.2-0.2,0.4-0.3,0.6-0.3c0.2,0,0.4,0.1,0.7,0.4c0.4,0.3,0.8,0.6,1.2,0.7c0.4,0.1,0.8,0.2,1.3,0.2
				c0.6,0,1.1-0.1,1.4-0.4c0.3-0.3,0.5-0.6,0.5-1.1c0-0.4-0.1-0.8-0.4-1c-0.3-0.3-0.7-0.5-1.4-0.6l-1-0.3c-1-0.2-1.8-0.6-2.3-1.1
				c-0.5-0.5-0.7-1.1-0.7-1.9c0-0.6,0.2-1.2,0.5-1.6c0.3-0.4,0.8-0.8,1.3-1c0.6-0.2,1.2-0.4,1.9-0.4c0.7,0,1.4,0.1,2,0.3
				c0.6,0.2,1.1,0.5,1.4,1c0.1,0.2,0.2,0.4,0.2,0.6c0,0.2-0.1,0.4-0.2,0.5c-0.2,0.2-0.3,0.2-0.5,0.2c-0.1,0-0.2,0-0.3-0.1
				c-0.1,0-0.2-0.1-0.3-0.2c-0.4-0.4-0.8-0.6-1.1-0.7c-0.3-0.1-0.7-0.2-1.2-0.2c-0.6,0-1.1,0.1-1.4,0.4c-0.3,0.3-0.5,0.6-0.5,1.1
				c0,0.4,0.1,0.6,0.4,0.9c0.3,0.2,0.7,0.4,1.3,0.6l1.3,0.4c0.7,0.2,1.2,0.4,1.6,0.7c0.4,0.3,0.7,0.6,0.9,0.9
				c0.2,0.4,0.3,0.8,0.3,1.3c0,1-0.3,1.7-1,2.3C78.2,13.4,77.3,13.7,76.1,13.7z"/>
			<path class="st0" d="M84.2,13.7c-1,0-1.7-0.3-2.1-0.9c-0.2-0.2-0.3-0.5-0.4-0.8c-0.1-0.3-0.1-0.7-0.1-1.2V6.5
				c0-0.4,0.3-0.7,0.8-0.7c0.3,0,0.5,0.1,0.6,0.2c0.1,0.1,0.2,0.3,0.2,0.5v4.1c0,0.5,0.1,0.8,0.2,1c0.1,0.2,0.3,0.4,0.5,0.5
				c0.2,0.1,0.5,0.1,0.8,0.1c0.4,0,0.8-0.1,1.1-0.4c0.3-0.3,0.5-0.6,0.7-1c0.1-0.3,0.1-0.7,0.1-1.2v-3c0-0.3,0.1-0.4,0.2-0.6
				c0.1-0.1,0.3-0.2,0.6-0.2c0.3,0,0.5,0.1,0.6,0.2c0.1,0.1,0.2,0.3,0.2,0.5v6.3c0,0.2-0.1,0.4-0.2,0.5c-0.1,0.1-0.3,0.2-0.6,0.2
				c-0.3,0-0.5-0.1-0.6-0.2c-0.1-0.1-0.2-0.3-0.2-0.5v-0.4c-0.1,0.2-0.3,0.4-0.5,0.6C85.6,13.5,85,13.7,84.2,13.7z"/>
			<path class="st0" d="M91.2,16.6c-0.3,0-0.5-0.1-0.6-0.2c-0.1-0.1-0.2-0.3-0.2-0.5V6.5c0-0.5,0.3-0.7,0.8-0.7
				C91.8,5.8,92,6,92,6.4V7c0.2-0.4,0.5-0.7,1-0.9c0.4-0.2,0.9-0.4,1.4-0.4c1,0,1.8,0.4,2.4,1.1s0.9,1.7,0.9,2.9
				c0,0.8-0.1,1.5-0.4,2.2c-0.3,0.6-0.7,1.1-1.2,1.4c-0.5,0.3-1.1,0.5-1.7,0.5c-0.7,0-1.3-0.2-1.8-0.6c-0.2-0.1-0.3-0.3-0.4-0.5v3.2
				c0,0.3-0.1,0.4-0.2,0.6C91.7,16.5,91.5,16.6,91.2,16.6z M94,12.3c0.6,0,1.1-0.2,1.4-0.7c0.3-0.5,0.5-1.1,0.5-1.9
				c0-0.8-0.2-1.4-0.5-1.9c-0.3-0.5-0.8-0.7-1.4-0.7c-0.6,0-1.1,0.2-1.5,0.7C92.2,8.3,92,8.9,92,9.7c0,0.8,0.2,1.4,0.5,1.9
				C92.9,12.1,93.4,12.3,94,12.3z"/>
			<path class="st0" d="M100.2,16.6c-0.3,0-0.5-0.1-0.6-0.2c-0.1-0.1-0.2-0.3-0.2-0.5V6.5c0-0.5,0.3-0.7,0.8-0.7
				c0.5,0,0.8,0.2,0.8,0.7V7c0.2-0.4,0.5-0.7,1-0.9c0.4-0.2,0.9-0.4,1.4-0.4c1,0,1.8,0.4,2.4,1.1c0.6,0.7,0.9,1.7,0.9,2.9
				c0,0.8-0.1,1.5-0.4,2.2c-0.3,0.6-0.7,1.1-1.2,1.4c-0.5,0.3-1.1,0.5-1.7,0.5c-0.7,0-1.3-0.2-1.8-0.6c-0.2-0.1-0.3-0.3-0.4-0.5v3.2
				c0,0.3-0.1,0.4-0.2,0.6C100.7,16.5,100.5,16.6,100.2,16.6z M103,12.3c0.6,0,1.1-0.2,1.4-0.7c0.3-0.5,0.5-1.1,0.5-1.9
				c0-0.8-0.2-1.4-0.5-1.9c-0.3-0.5-0.8-0.7-1.4-0.7c-0.6,0-1.1,0.2-1.5,0.7c-0.4,0.5-0.5,1.1-0.5,1.9c0,0.8,0.2,1.4,0.5,1.9
				C101.9,12.1,102.4,12.3,103,12.3z"/>
			<path class="st0" d="M111.8,13.7c-1.2,0-2.1-0.4-2.8-1.1c-0.7-0.7-1-1.7-1-2.9c0-0.8,0.2-1.5,0.5-2.1c0.3-0.6,0.8-1.1,1.3-1.4
				c0.6-0.3,1.2-0.5,2-0.5c1.1,0,2.1,0.4,2.7,1.1c0.7,0.7,1,1.7,1,2.9c0,0.8-0.2,1.5-0.5,2.2c-0.3,0.6-0.8,1.1-1.3,1.4
				C113.2,13.5,112.5,13.7,111.8,13.7z M111.8,12.3c0.7,0,1.2-0.2,1.5-0.7c0.4-0.5,0.5-1.1,0.5-1.9c0-0.8-0.2-1.5-0.5-1.9
				c-0.4-0.5-0.9-0.7-1.5-0.7c-0.7,0-1.2,0.2-1.5,0.7c-0.4,0.5-0.5,1.1-0.5,1.9c0,0.8,0.2,1.5,0.5,1.9
				C110.6,12,111.1,12.3,111.8,12.3z"/>
			<path class="st0" d="M118.1,13.5c-0.5,0-0.8-0.2-0.8-0.7V6.5c0-0.5,0.3-0.7,0.8-0.7c0.3,0,0.5,0,0.6,0.1c0.1,0.1,0.2,0.3,0.2,0.5
				V7c0.2-0.4,0.5-0.7,0.9-1c0.4-0.2,0.8-0.3,1.2-0.3c0.3,0,0.5,0.1,0.6,0.2c0.1,0.1,0.2,0.3,0.2,0.6c0,0.3-0.1,0.4-0.2,0.6
				c-0.1,0.1-0.3,0.2-0.6,0.2c-0.3,0-0.5,0.1-0.7,0.1c-0.2,0-0.4,0.1-0.5,0.2c-0.3,0.2-0.5,0.4-0.6,0.8c-0.1,0.3-0.2,0.8-0.2,1.4
				v2.9c0,0.3-0.1,0.4-0.2,0.6C118.6,13.5,118.4,13.5,118.1,13.5z"/>
			<path class="st0" d="M125.7,13.7c-0.7,0-1.2-0.2-1.5-0.5c-0.4-0.3-0.5-0.9-0.5-1.5V7.2h-0.7c-0.3,0-0.5-0.2-0.5-0.7
				c0-0.4,0.2-0.6,0.5-0.6h0.7V4.4c0-0.2,0-0.3,0.1-0.4c0-0.1,0.1-0.2,0.3-0.3c0.2-0.1,0.5-0.2,0.8-0.2c0.4,0,0.5,0.2,0.5,0.5v1.8
				h1.3c0.3,0,0.5,0.2,0.5,0.6c0,0.2,0,0.4-0.1,0.5c-0.1,0.1-0.2,0.1-0.4,0.1h-1.3v4.2c0,0.3,0.1,0.5,0.2,0.7
				c0.1,0.1,0.3,0.2,0.5,0.2c0.2,0,0.4-0.1,0.6-0.2c0.2-0.1,0.3-0.1,0.4-0.1c0.2,0,0.3,0.1,0.4,0.2c0.1,0.1,0.2,0.3,0.2,0.5
				c0,0.3-0.1,0.5-0.3,0.6C126.8,13.6,126.3,13.7,125.7,13.7z"/>
			<path class="st0" d="M129.7,4.8c-0.3,0-0.5-0.1-0.7-0.3c-0.2-0.2-0.3-0.4-0.3-0.7s0.1-0.5,0.3-0.7c0.2-0.2,0.4-0.3,0.7-0.3
				c0.3,0,0.5,0.1,0.7,0.3c0.2,0.2,0.3,0.4,0.3,0.7c0,0.3-0.1,0.5-0.3,0.7C130.2,4.7,130,4.8,129.7,4.8z M129.7,13.5
				c-0.3,0-0.5-0.1-0.6-0.2c-0.1-0.1-0.2-0.3-0.2-0.5V6.6c0-0.5,0.3-0.8,0.8-0.8c0.5,0,0.8,0.2,0.8,0.7v6.3c0,0.2-0.1,0.4-0.2,0.5
				C130.2,13.5,129.9,13.5,129.7,13.5z"/>
			<path class="st0" d="M133.4,13.5c-0.3,0-0.5-0.1-0.6-0.2s-0.2-0.3-0.2-0.5V6.5c0-0.3,0.1-0.4,0.2-0.6c0.1-0.1,0.3-0.2,0.6-0.2
				c0.3,0,0.5,0.1,0.6,0.2c0.1,0.1,0.2,0.3,0.2,0.5v0.4c0.1-0.2,0.3-0.4,0.5-0.6c0.5-0.5,1.1-0.7,1.9-0.7c0.9,0,1.6,0.3,2.1,0.9
				c0.2,0.2,0.3,0.5,0.4,0.8c0.1,0.3,0.1,0.7,0.1,1.2v4.3c0,0.4-0.3,0.7-0.8,0.7c-0.6,0-0.8-0.2-0.8-0.7V8.8c0-0.4,0-0.7-0.1-0.9
				c-0.1-0.2-0.2-0.4-0.5-0.5c-0.2-0.1-0.5-0.2-0.9-0.2c-0.4,0-0.8,0.1-1.1,0.4c-0.3,0.3-0.5,0.6-0.7,1c-0.1,0.3-0.1,0.7-0.1,1.2v3
				c0,0.3-0.1,0.4-0.2,0.6C134,13.5,133.7,13.5,133.4,13.5z"/>
			<path class="st0" d="M144.7,16.7c-0.9,0-1.7-0.2-2.3-0.5c-0.2-0.1-0.4-0.2-0.5-0.4c-0.1-0.1-0.1-0.2-0.1-0.4
				c0-0.2,0.1-0.4,0.2-0.6c0.1-0.2,0.3-0.2,0.5-0.2c0.1,0,0.3,0.1,0.5,0.2c0.3,0.2,0.6,0.3,0.9,0.4c0.3,0.1,0.6,0.1,0.9,0.1
				c0.6,0,1.1-0.2,1.4-0.5c0.3-0.4,0.5-0.9,0.5-1.5v-1c-0.2,0.4-0.6,0.6-1,0.8c-0.4,0.2-0.9,0.3-1.4,0.3c-1,0-1.8-0.3-2.4-1
				c-0.6-0.7-0.9-1.6-0.9-2.8c0-0.8,0.1-1.5,0.4-2.1c0.3-0.6,0.7-1,1.2-1.4c0.5-0.3,1.1-0.5,1.7-0.5c0.5,0,1,0.1,1.4,0.3
				c0.4,0.2,0.7,0.5,1,0.9V6.4c0-0.4,0.3-0.6,0.8-0.6c0.6,0,0.8,0.2,0.8,0.7v6.6C148.3,15.5,147.1,16.7,144.7,16.7z M144.7,12
				c0.6,0,1.1-0.2,1.5-0.6c0.3-0.4,0.5-1,0.5-1.8c0-0.8-0.2-1.4-0.5-1.8c-0.3-0.4-0.8-0.7-1.5-0.7c-0.6,0-1.1,0.2-1.4,0.7
				c-0.3,0.4-0.5,1-0.5,1.8c0,0.8,0.2,1.4,0.5,1.8C143.7,11.8,144.1,12,144.7,12z"/>
			<path class="st0" d="M154.8,16.6c-0.3,0-0.5-0.1-0.6-0.2c-0.1-0.1-0.2-0.3-0.2-0.5V6.5c0-0.5,0.3-0.7,0.8-0.7
				c0.5,0,0.8,0.2,0.8,0.7V7c0.2-0.4,0.5-0.7,1-0.9c0.4-0.2,0.9-0.4,1.4-0.4c1,0,1.8,0.4,2.4,1.1c0.6,0.7,0.9,1.7,0.9,2.9
				c0,0.8-0.1,1.5-0.4,2.2c-0.3,0.6-0.7,1.1-1.2,1.4c-0.5,0.3-1.1,0.5-1.7,0.5c-0.7,0-1.3-0.2-1.8-0.6c-0.2-0.1-0.3-0.3-0.4-0.5v3.2
				c0,0.3-0.1,0.4-0.2,0.6C155.4,16.5,155.1,16.6,154.8,16.6z M157.6,12.3c0.6,0,1.1-0.2,1.4-0.7c0.3-0.5,0.5-1.1,0.5-1.9
				c0-0.8-0.2-1.4-0.5-1.9c-0.3-0.5-0.8-0.7-1.4-0.7c-0.6,0-1.1,0.2-1.5,0.7c-0.4,0.5-0.5,1.1-0.5,1.9c0,0.8,0.2,1.4,0.5,1.9
				C156.5,12.1,157,12.3,157.6,12.3z"/>
			<path class="st0" d="M166.5,13.7c-1.2,0-2.1-0.4-2.8-1.1c-0.7-0.7-1-1.7-1-2.9c0-0.8,0.2-1.5,0.5-2.1c0.3-0.6,0.8-1.1,1.3-1.4
				c0.6-0.3,1.2-0.5,1.9-0.5c1.1,0,1.9,0.3,2.5,1c0.6,0.7,0.9,1.6,0.9,2.8c0,0.2-0.1,0.4-0.2,0.5c-0.1,0.1-0.3,0.2-0.6,0.2h-4.7
				c0,0.7,0.2,1.2,0.6,1.6c0.4,0.4,0.9,0.6,1.6,0.6c0.3,0,0.6-0.1,0.8-0.2c0.2-0.1,0.5-0.3,0.8-0.5c0.1-0.1,0.3-0.2,0.4-0.3
				c0.1,0,0.2-0.1,0.3-0.1c0.2,0,0.3,0.1,0.5,0.2c0.1,0.1,0.2,0.3,0.2,0.5c0,0.2-0.1,0.4-0.4,0.7c-0.3,0.3-0.7,0.6-1.2,0.8
				C167.5,13.6,167,13.7,166.5,13.7z M168.1,8.8c0-0.6-0.2-1-0.5-1.3c-0.3-0.3-0.7-0.5-1.3-0.5c-0.5,0-1,0.2-1.3,0.5
				c-0.3,0.3-0.5,0.8-0.6,1.3H168.1z"/>
			<path class="st0" d="M174.9,13.7c-1.2,0-2.1-0.4-2.8-1.1c-0.7-0.7-1-1.7-1-2.9c0-0.8,0.2-1.5,0.5-2.1c0.3-0.6,0.8-1.1,1.3-1.4
				c0.6-0.3,1.2-0.5,2-0.5c1.1,0,2.1,0.4,2.7,1.1c0.7,0.7,1,1.7,1,2.9c0,0.8-0.2,1.5-0.5,2.2c-0.3,0.6-0.8,1.1-1.3,1.4
				C176.3,13.5,175.6,13.7,174.9,13.7z M174.9,12.3c0.7,0,1.2-0.2,1.5-0.7c0.4-0.5,0.5-1.1,0.5-1.9c0-0.8-0.2-1.5-0.5-1.9
				c-0.4-0.5-0.9-0.7-1.5-0.7c-0.7,0-1.2,0.2-1.5,0.7c-0.4,0.5-0.5,1.1-0.5,1.9c0,0.8,0.2,1.5,0.5,1.9
				C173.7,12,174.2,12.3,174.9,12.3z"/>
			<path class="st0" d="M181.2,16.6c-0.3,0-0.5-0.1-0.6-0.2c-0.1-0.1-0.2-0.3-0.2-0.5V6.5c0-0.5,0.3-0.7,0.8-0.7
				c0.5,0,0.8,0.2,0.8,0.7V7c0.2-0.4,0.5-0.7,1-0.9c0.4-0.2,0.9-0.4,1.4-0.4c1,0,1.8,0.4,2.4,1.1c0.6,0.7,0.9,1.7,0.9,2.9
				c0,0.8-0.1,1.5-0.4,2.2c-0.3,0.6-0.7,1.1-1.2,1.4c-0.5,0.3-1.1,0.5-1.7,0.5c-0.7,0-1.3-0.2-1.8-0.6c-0.2-0.1-0.3-0.3-0.4-0.5v3.2
				c0,0.3-0.1,0.4-0.2,0.6C181.7,16.5,181.5,16.6,181.2,16.6z M184,12.3c0.6,0,1.1-0.2,1.4-0.7c0.3-0.5,0.5-1.1,0.5-1.9
				c0-0.8-0.2-1.4-0.5-1.9c-0.3-0.5-0.8-0.7-1.4-0.7c-0.6,0-1.1,0.2-1.5,0.7c-0.4,0.5-0.5,1.1-0.5,1.9c0,0.8,0.2,1.4,0.5,1.9
				C182.9,12.1,183.4,12.3,184,12.3z"/>
			<path class="st0" d="M190.2,13.5c-0.3,0-0.5-0.1-0.6-0.2c-0.1-0.1-0.2-0.3-0.2-0.5V3.8c0-0.2,0.1-0.4,0.2-0.5
				c0.1-0.1,0.4-0.2,0.6-0.2c0.5,0,0.8,0.2,0.8,0.7v9.1c0,0.2-0.1,0.4-0.2,0.5C190.7,13.5,190.5,13.5,190.2,13.5z"/>
			<path class="st0" d="M196.6,13.7c-1.2,0-2.1-0.4-2.8-1.1c-0.7-0.7-1-1.7-1-2.9c0-0.8,0.2-1.5,0.5-2.1c0.3-0.6,0.8-1.1,1.3-1.4
				c0.6-0.3,1.2-0.5,1.9-0.5c1.1,0,1.9,0.3,2.5,1c0.6,0.7,0.9,1.6,0.9,2.8c0,0.2-0.1,0.4-0.2,0.5c-0.1,0.1-0.3,0.2-0.6,0.2h-4.7
				c0,0.7,0.2,1.2,0.6,1.6c0.4,0.4,0.9,0.6,1.6,0.6c0.3,0,0.6-0.1,0.8-0.2c0.2-0.1,0.5-0.3,0.8-0.5c0.1-0.1,0.3-0.2,0.4-0.3
				c0.1,0,0.2-0.1,0.3-0.1c0.2,0,0.3,0.1,0.5,0.2c0.1,0.1,0.2,0.3,0.2,0.5c0,0.2-0.1,0.4-0.4,0.7c-0.3,0.3-0.7,0.6-1.2,0.8
				C197.6,13.6,197.2,13.7,196.6,13.7z M198.3,8.8c0-0.6-0.2-1-0.5-1.3C197.5,7.1,197,7,196.5,7c-0.5,0-1,0.2-1.3,0.5
				c-0.3,0.3-0.5,0.8-0.6,1.3H198.3z"/>
		</g>
	</g>
	<g>
		<g>
			<path class="st0" d="M74.8,30.4c-0.3,0-0.5,0-0.6-0.1c-0.1-0.1-0.3-0.2-0.3-0.4l-2-6c-0.1-0.2-0.1-0.4-0.1-0.5
				c0-0.2,0.1-0.4,0.3-0.5c0.2-0.1,0.4-0.2,0.7-0.2c0.4,0,0.6,0.2,0.7,0.5l1.2,4.1c0.1,0.3,0.2,0.7,0.2,1c0.1-0.4,0.1-0.7,0.2-0.9
				l1.1-4.1c0.1-0.2,0.2-0.4,0.3-0.5c0.1-0.1,0.3-0.1,0.6-0.1c0.3,0,0.5,0,0.6,0.1c0.1,0.1,0.2,0.2,0.3,0.5l1.2,4.1
				c0.1,0.2,0.1,0.5,0.2,0.9c0.1-0.4,0.2-0.8,0.2-0.9l1.2-4.2c0-0.2,0.1-0.3,0.2-0.4c0.1-0.1,0.3-0.1,0.5-0.1c0.3,0,0.5,0.1,0.7,0.2
				c0.2,0.1,0.3,0.3,0.3,0.5c0,0.1,0,0.3-0.1,0.5l-2.1,6c-0.1,0.2-0.2,0.3-0.3,0.4c-0.1,0.1-0.4,0.1-0.6,0.1c-0.3,0-0.5,0-0.6-0.1
				c-0.1-0.1-0.2-0.2-0.3-0.4L77,25.1l-1.3,4.7C75.7,30.2,75.3,30.4,74.8,30.4z"/>
			<path class="st0" d="M84.6,21.7c-0.3,0-0.5-0.1-0.7-0.3c-0.2-0.2-0.3-0.4-0.3-0.7c0-0.3,0.1-0.5,0.3-0.7c0.2-0.2,0.4-0.3,0.7-0.3
				c0.3,0,0.5,0.1,0.7,0.3c0.2,0.2,0.3,0.4,0.3,0.7c0,0.3-0.1,0.5-0.3,0.7C85.1,21.6,84.9,21.7,84.6,21.7z M84.6,30.4
				c-0.3,0-0.5-0.1-0.6-0.2c-0.1-0.1-0.2-0.3-0.2-0.5v-6.3c0-0.5,0.3-0.8,0.8-0.8c0.5,0,0.8,0.2,0.8,0.7v6.3c0,0.2-0.1,0.4-0.2,0.5
				C85.1,30.4,84.9,30.4,84.6,30.4z"/>
			<path class="st0" d="M89.9,30.6c-0.7,0-1.2-0.2-1.5-0.5c-0.4-0.3-0.5-0.9-0.5-1.5v-4.4h-0.7c-0.3,0-0.5-0.2-0.5-0.7
				c0-0.4,0.2-0.6,0.5-0.6h0.7v-1.5c0-0.2,0-0.3,0.1-0.4c0-0.1,0.1-0.2,0.3-0.3c0.2-0.1,0.5-0.2,0.8-0.2c0.4,0,0.5,0.2,0.5,0.5v1.8
				h1.3c0.3,0,0.5,0.2,0.5,0.6c0,0.2,0,0.4-0.1,0.5c-0.1,0.1-0.2,0.1-0.4,0.1h-1.3v4.2c0,0.3,0.1,0.5,0.2,0.7
				c0.1,0.1,0.3,0.2,0.5,0.2c0.2,0,0.4-0.1,0.6-0.2c0.2-0.1,0.3-0.1,0.4-0.1c0.2,0,0.3,0.1,0.4,0.2c0.1,0.1,0.2,0.3,0.2,0.5
				c0,0.3-0.1,0.5-0.3,0.6C91,30.4,90.5,30.6,89.9,30.6z"/>
			<path class="st0" d="M93.8,30.4c-0.3,0-0.5-0.1-0.6-0.2c-0.1-0.1-0.2-0.3-0.2-0.5v-9.1c0-0.2,0.1-0.4,0.2-0.5
				c0.1-0.1,0.3-0.2,0.6-0.2c0.3,0,0.5,0.1,0.6,0.2c0.1,0.1,0.2,0.3,0.2,0.5v3.1c0.1-0.2,0.3-0.4,0.5-0.5c0.5-0.4,1.1-0.7,1.9-0.7
				c1,0,1.7,0.3,2.2,1c0.2,0.2,0.3,0.5,0.4,0.8c0.1,0.3,0.1,0.7,0.1,1.2v4.3c0,0.4-0.3,0.7-0.8,0.7c-0.6,0-0.8-0.2-0.8-0.7v-4.1
				c0-0.4-0.1-0.8-0.2-1c-0.2-0.4-0.6-0.6-1.3-0.6c-0.4,0-0.8,0.1-1.1,0.4c-0.3,0.2-0.5,0.6-0.7,1c-0.1,0.4-0.1,0.8-0.1,1.2v3
				c0,0.3-0.1,0.4-0.2,0.6C94.3,30.4,94.1,30.4,93.8,30.4z"/>
			<path class="st0" d="M108.1,30.6c-0.6,0-1.1-0.1-1.6-0.2c-0.5-0.1-0.9-0.3-1.2-0.5c-0.2-0.2-0.3-0.4-0.3-0.6
				c0-0.2,0.1-0.4,0.2-0.6c0.1-0.2,0.3-0.3,0.5-0.3c0.1,0,0.2,0,0.3,0.1c0.1,0,0.2,0.1,0.4,0.2c0.3,0.2,0.6,0.4,0.9,0.5
				c0.3,0.1,0.6,0.1,0.9,0.1c0.5,0,0.8-0.1,1.1-0.3c0.2-0.2,0.4-0.4,0.4-0.7c0-0.3-0.1-0.5-0.3-0.7c-0.2-0.2-0.5-0.3-1-0.3l-0.9-0.1
				c-1.5-0.2-2.3-1-2.3-2.2c0-0.7,0.3-1.3,0.8-1.7c0.5-0.4,1.3-0.6,2.2-0.6c1.1,0,2,0.2,2.6,0.7c0.2,0.2,0.3,0.3,0.3,0.6
				c0,0.2-0.1,0.4-0.2,0.5c-0.1,0.1-0.3,0.2-0.5,0.2c-0.2,0-0.4-0.1-0.6-0.2c-0.3-0.2-0.6-0.3-0.9-0.4c-0.3-0.1-0.5-0.1-0.8-0.1
				c-0.4,0-0.8,0.1-1,0.2c-0.2,0.2-0.3,0.4-0.3,0.6c0,0.3,0.1,0.5,0.3,0.6c0.2,0.1,0.5,0.3,0.9,0.3l0.9,0.1c0.9,0.2,1.5,0.4,1.8,0.8
				c0.4,0.4,0.6,0.9,0.6,1.5c0,0.8-0.3,1.4-0.8,1.8C109.9,30.4,109.1,30.6,108.1,30.6z"/>
			<path class="st0" d="M113.9,21.7c-0.3,0-0.5-0.1-0.7-0.3c-0.2-0.2-0.3-0.4-0.3-0.7c0-0.3,0.1-0.5,0.3-0.7
				c0.2-0.2,0.4-0.3,0.7-0.3c0.3,0,0.5,0.1,0.7,0.3c0.2,0.2,0.3,0.4,0.3,0.7c0,0.3-0.1,0.5-0.3,0.7
				C114.5,21.6,114.2,21.7,113.9,21.7z M113.9,30.4c-0.3,0-0.5-0.1-0.6-0.2c-0.1-0.1-0.2-0.3-0.2-0.5v-6.3c0-0.5,0.3-0.8,0.8-0.8
				c0.5,0,0.8,0.2,0.8,0.7v6.3c0,0.2-0.1,0.4-0.2,0.5C114.4,30.4,114.2,30.4,113.9,30.4z"/>
			<path class="st0" d="M120.2,33.6c-0.9,0-1.7-0.2-2.3-0.5c-0.2-0.1-0.4-0.2-0.5-0.4c-0.1-0.1-0.1-0.2-0.1-0.4
				c0-0.2,0.1-0.4,0.2-0.6c0.1-0.2,0.3-0.2,0.5-0.2c0.1,0,0.3,0.1,0.5,0.2c0.3,0.2,0.6,0.3,0.9,0.4c0.3,0.1,0.6,0.1,0.9,0.1
				c0.6,0,1.1-0.2,1.4-0.5c0.3-0.4,0.5-0.9,0.5-1.5v-1c-0.2,0.4-0.6,0.6-1,0.8c-0.4,0.2-0.9,0.3-1.4,0.3c-1,0-1.8-0.4-2.4-1.1
				c-0.6-0.7-0.9-1.6-0.9-2.8c0-0.8,0.1-1.5,0.4-2.1c0.3-0.6,0.7-1,1.2-1.4c0.5-0.3,1.1-0.5,1.7-0.5c0.5,0,1,0.1,1.4,0.3
				c0.4,0.2,0.7,0.5,1,0.9v-0.5c0-0.4,0.3-0.6,0.8-0.6c0.6,0,0.8,0.2,0.8,0.7V30C123.8,32.4,122.6,33.6,120.2,33.6z M120.2,28.9
				c0.6,0,1.1-0.2,1.5-0.6c0.3-0.4,0.5-1,0.5-1.8c0-0.8-0.2-1.4-0.5-1.8c-0.3-0.4-0.8-0.7-1.5-0.7c-0.6,0-1.1,0.2-1.4,0.7
				c-0.3,0.4-0.5,1-0.5,1.8c0,0.8,0.2,1.4,0.5,1.8C119.1,28.7,119.6,28.9,120.2,28.9z"/>
			<path class="st0" d="M126.7,30.4c-0.3,0-0.5-0.1-0.6-0.2c-0.1-0.1-0.2-0.3-0.2-0.5v-9.1c0-0.2,0.1-0.4,0.2-0.5
				c0.1-0.1,0.3-0.2,0.6-0.2c0.3,0,0.5,0.1,0.6,0.2c0.1,0.1,0.2,0.3,0.2,0.5v3.1c0.1-0.2,0.3-0.4,0.5-0.5c0.5-0.4,1.1-0.7,1.9-0.7
				c1,0,1.7,0.3,2.2,1c0.2,0.2,0.3,0.5,0.4,0.8c0.1,0.3,0.1,0.7,0.1,1.2v4.3c0,0.4-0.3,0.7-0.8,0.7c-0.6,0-0.8-0.2-0.8-0.7v-4.1
				c0-0.4-0.1-0.8-0.2-1c-0.2-0.4-0.6-0.6-1.3-0.6c-0.4,0-0.8,0.1-1.1,0.4c-0.3,0.2-0.5,0.6-0.7,1c-0.1,0.4-0.1,0.8-0.1,1.2v3
				c0,0.3-0.1,0.4-0.2,0.6C127.2,30.4,127,30.4,126.7,30.4z"/>
			<path class="st0" d="M137,30.6c-0.7,0-1.2-0.2-1.5-0.5c-0.4-0.3-0.5-0.9-0.5-1.5v-4.4h-0.7c-0.3,0-0.5-0.2-0.5-0.7
				c0-0.4,0.2-0.6,0.5-0.6h0.7v-1.5c0-0.2,0-0.3,0.1-0.4c0-0.1,0.1-0.2,0.3-0.3c0.2-0.1,0.5-0.2,0.8-0.2c0.4,0,0.5,0.2,0.5,0.5v1.8
				h1.3c0.3,0,0.5,0.2,0.5,0.6c0,0.2,0,0.4-0.1,0.5c-0.1,0.1-0.2,0.1-0.4,0.1h-1.3v4.2c0,0.3,0.1,0.5,0.2,0.7s0.3,0.2,0.5,0.2
				c0.2,0,0.4-0.1,0.6-0.2c0.2-0.1,0.3-0.1,0.4-0.1c0.2,0,0.3,0.1,0.4,0.2c0.1,0.1,0.2,0.3,0.2,0.5c0,0.3-0.1,0.5-0.3,0.6
				C138.1,30.4,137.6,30.6,137,30.6z"/>
			<path class="st0" d="M144.6,30.4c-0.3,0-0.5-0.1-0.6-0.2c-0.1-0.1-0.2-0.3-0.2-0.5v-9.1c0-0.2,0.1-0.4,0.2-0.5
				c0.1-0.1,0.4-0.2,0.6-0.2c0.5,0,0.8,0.2,0.8,0.7v9.1c0,0.2-0.1,0.4-0.2,0.5C145.1,30.4,144.9,30.4,144.6,30.4z"/>
			<path class="st0" d="M151,30.6c-1.2,0-2.1-0.4-2.8-1.1c-0.7-0.7-1-1.7-1-2.9c0-0.8,0.2-1.5,0.5-2.1c0.3-0.6,0.8-1.1,1.3-1.4
				c0.6-0.3,1.2-0.5,2-0.5c1.1,0,2.1,0.4,2.7,1.1c0.7,0.7,1,1.7,1,2.9c0,0.8-0.2,1.5-0.5,2.2c-0.3,0.6-0.8,1.1-1.3,1.4
				C152.4,30.4,151.7,30.6,151,30.6z M151,29.2c0.7,0,1.2-0.2,1.5-0.7c0.4-0.5,0.5-1.1,0.5-1.9c0-0.8-0.2-1.5-0.5-1.9
				c-0.4-0.5-0.9-0.7-1.5-0.7c-0.7,0-1.2,0.2-1.5,0.7c-0.4,0.5-0.5,1.1-0.5,1.9c0,0.8,0.2,1.5,0.5,1.9
				C149.8,28.9,150.3,29.2,151,29.2z"/>
			<path class="st0" d="M159.2,30.6c-0.6,0-1.1-0.1-1.6-0.2c-0.5-0.1-0.9-0.3-1.2-0.5c-0.2-0.2-0.3-0.4-0.3-0.6
				c0-0.2,0.1-0.4,0.2-0.6c0.1-0.2,0.3-0.3,0.5-0.3c0.1,0,0.2,0,0.3,0.1c0.1,0,0.2,0.1,0.4,0.2c0.3,0.2,0.6,0.4,0.9,0.5
				c0.3,0.1,0.6,0.1,0.9,0.1c0.5,0,0.8-0.1,1.1-0.3c0.2-0.2,0.4-0.4,0.4-0.7c0-0.3-0.1-0.5-0.3-0.7c-0.2-0.2-0.5-0.3-1-0.3l-0.9-0.1
				c-1.5-0.2-2.3-1-2.3-2.2c0-0.7,0.3-1.3,0.8-1.7c0.5-0.4,1.3-0.6,2.2-0.6c1.1,0,2,0.2,2.6,0.7c0.2,0.2,0.3,0.3,0.3,0.6
				c0,0.2-0.1,0.4-0.2,0.5c-0.1,0.1-0.3,0.2-0.5,0.2c-0.2,0-0.4-0.1-0.6-0.2c-0.3-0.2-0.6-0.3-0.9-0.4c-0.3-0.1-0.5-0.1-0.8-0.1
				c-0.4,0-0.8,0.1-1,0.2c-0.2,0.2-0.3,0.4-0.3,0.6c0,0.3,0.1,0.5,0.3,0.6c0.2,0.1,0.5,0.3,0.9,0.3l0.9,0.1c0.9,0.2,1.5,0.4,1.8,0.8
				c0.4,0.4,0.6,0.9,0.6,1.5c0,0.8-0.3,1.4-0.8,1.8C161,30.4,160.2,30.6,159.2,30.6z"/>
			<path class="st0" d="M166.8,30.6c-0.6,0-1.1-0.1-1.6-0.2c-0.5-0.1-0.9-0.3-1.2-0.5c-0.2-0.2-0.3-0.4-0.3-0.6
				c0-0.2,0.1-0.4,0.2-0.6c0.1-0.2,0.3-0.3,0.5-0.3c0.1,0,0.2,0,0.3,0.1c0.1,0,0.2,0.1,0.4,0.2c0.3,0.2,0.6,0.4,0.9,0.5
				c0.3,0.1,0.6,0.1,0.9,0.1c0.5,0,0.8-0.1,1.1-0.3c0.2-0.2,0.4-0.4,0.4-0.7c0-0.3-0.1-0.5-0.3-0.7c-0.2-0.2-0.5-0.3-1-0.3l-0.9-0.1
				c-1.5-0.2-2.3-1-2.3-2.2c0-0.7,0.3-1.3,0.8-1.7c0.5-0.4,1.3-0.6,2.2-0.6c1.1,0,2,0.2,2.6,0.7c0.2,0.2,0.3,0.3,0.3,0.6
				c0,0.2-0.1,0.4-0.2,0.5c-0.1,0.1-0.3,0.2-0.5,0.2c-0.2,0-0.4-0.1-0.6-0.2c-0.3-0.2-0.6-0.3-0.9-0.4c-0.3-0.1-0.5-0.1-0.8-0.1
				c-0.4,0-0.8,0.1-1,0.2c-0.2,0.2-0.3,0.4-0.3,0.6c0,0.3,0.1,0.5,0.3,0.6c0.2,0.1,0.5,0.3,0.9,0.3l0.9,0.1c0.9,0.2,1.5,0.4,1.8,0.8
				c0.4,0.4,0.6,0.9,0.6,1.5c0,0.8-0.3,1.4-0.8,1.8C168.6,30.4,167.8,30.6,166.8,30.6z"/>
		</g>
	</g>
	<g>
		<path class="st0" d="M12.7,0.6C5.7,0.6,0,6.3,0,13.3v21.2h51.5c7,0,12.7-5.7,12.7-12.7V0.6H12.7z M19.6,25.2
			c-0.1,0.1-0.2,0.3-0.3,0.4c-0.2,0.1-0.3,0.2-0.5,0.3C18.6,26,18.3,26,18,26c-0.3,0-0.6-0.1-0.8-0.3c-0.2-0.2-0.4-0.4-0.5-0.7
			l-2.7-5.5h-2.9v5.1c0,0.4-0.1,0.7-0.3,1c-0.2,0.3-0.6,0.4-1.2,0.4c-0.6,0-0.9-0.1-1.2-0.3c-0.2-0.2-0.3-0.6-0.3-1.1V10.1
			c0-0.4,0.1-0.7,0.3-0.9C8.6,9,8.9,8.9,9.2,8.9h4.5c1.9,0,3.3,0.4,4.2,1.3c0.9,0.9,1.3,2.2,1.3,3.9c0,0.4,0,0.8-0.1,1.2
			c-0.1,0.4-0.2,0.8-0.4,1.2c-0.2,0.4-0.4,0.8-0.7,1.1c-0.3,0.4-0.6,0.7-1.1,1l2.5,5.1c0.1,0.1,0.1,0.3,0.2,0.4
			c0,0.1,0.1,0.3,0.1,0.4C19.7,24.8,19.7,25,19.6,25.2z M34.6,24.5c0,0.2,0,0.4,0,0.5c0,0.2-0.1,0.4-0.2,0.5
			c-0.1,0.1-0.2,0.3-0.4,0.4C33.8,26,33.5,26,33.1,26c-0.7,0-1.2-0.3-1.7-1l-6.3-10.3v9.9c0,0.4-0.1,0.7-0.3,1
			c-0.2,0.3-0.6,0.4-1.2,0.4c-0.6,0-1-0.1-1.2-0.3c-0.2-0.2-0.4-0.6-0.4-1.1V10.3c0-0.6,0.1-1,0.5-1.2c0.3-0.3,0.7-0.4,1.1-0.4
			c0.3,0,0.6,0.1,0.9,0.2c0.3,0.1,0.6,0.4,0.8,0.9l6.2,10.7V10.2c0-0.5,0.1-0.9,0.4-1.1c0.3-0.2,0.6-0.3,1.1-0.3
			c0.5,0,0.8,0.1,1.1,0.3c0.3,0.2,0.4,0.6,0.4,1.1V24.5z M41.1,24.6c0,0.4-0.1,0.7-0.3,1c-0.2,0.3-0.6,0.4-1.2,0.4
			c-0.6,0-1-0.1-1.2-0.3c-0.2-0.2-0.4-0.6-0.4-1.1V10.1c0-0.5,0.1-0.8,0.4-1c0.3-0.2,0.7-0.3,1.1-0.3c0.4,0,0.8,0.1,1.1,0.3
			c0.3,0.2,0.4,0.6,0.4,1V24.6z M54.6,24.7c-1,0.8-2.4,1.2-4.3,1.2h-4.6c-0.8,0-1.2-0.4-1.2-1.3V10.1c0-0.4,0.1-0.7,0.3-0.9
			c0.2-0.2,0.5-0.3,1-0.3h4.3c1.7,0,3.1,0.3,4.1,1c1,0.7,1.5,1.9,1.5,3.5c0,1-0.2,1.7-0.6,2.3c-0.4,0.6-0.8,1-1.3,1.3
			c0.9,0.3,1.5,0.8,1.9,1.6c0.4,0.7,0.5,1.5,0.5,2.4C56.1,22.7,55.6,23.9,54.6,24.7z"/>
		<path class="st0" d="M52.5,19.2c-0.2-0.2-0.4-0.4-0.7-0.5c-0.3-0.1-0.7-0.2-1.2-0.2h-3v4.6h3c0.4,0,0.8-0.1,1.1-0.2
			c0.3-0.1,0.6-0.3,0.7-0.5c0.2-0.2,0.3-0.4,0.4-0.7c0.1-0.3,0.1-0.6,0.1-0.9c0-0.3,0-0.6-0.1-0.9C52.8,19.7,52.7,19.4,52.5,19.2z"
			/>
		<path class="st0" d="M51.4,15.7c0.3-0.1,0.5-0.3,0.6-0.5c0.2-0.2,0.3-0.4,0.4-0.7c0.1-0.3,0.1-0.5,0.1-0.8c0-0.3,0-0.5-0.1-0.8
			c-0.1-0.3-0.2-0.5-0.4-0.7c-0.2-0.2-0.4-0.4-0.6-0.5c-0.3-0.1-0.6-0.2-1-0.2h-2.8v4.2h2.8C50.8,15.9,51.1,15.8,51.4,15.7z"/>
		<path class="st0" d="M15.5,12.4c-0.2-0.2-0.5-0.4-0.8-0.5c-0.3-0.1-0.8-0.2-1.3-0.2h-2.4v5.2h2.4c0.5,0,0.9-0.1,1.3-0.2
			c0.3-0.1,0.6-0.3,0.8-0.6c0.2-0.2,0.4-0.5,0.4-0.8c0.1-0.3,0.1-0.7,0.1-1c0-0.3,0-0.7-0.1-1C15.9,12.9,15.8,12.7,15.5,12.4z"/>
	</g>
</g>
</svg>
