<svg xmlns="http://www.w3.org/2000/svg" width="41.448" height="41.448" viewBox="0 0 41.448 41.448"><path fill="#fff" d="M8.976 17.952C4.026 17.952 0 13.925 0 8.976S4.027 0 8.976 0s8.976 4.027 8.976 8.976-4.027 8.976-8.976 8.976zm0-15.012c-3.328 0-6.036 2.708-6.036 6.036 0 3.328 2.708 6.035 6.036 6.035 3.328 0 6.035-2.707 6.035-6.034 0-3.328-2.706-6.036-6.034-6.036z" opacity=".5"/><path fill="#fff" d="M32.473 17.952c-4.95 0-8.976-4.026-8.976-8.976S27.523 0 32.473 0s8.976 4.027 8.976 8.976-4.028 8.976-8.977 8.976zm0-15.012c-3.328 0-6.036 2.708-6.036 6.036 0 3.328 2.708 6.035 6.036 6.035s6.036-2.707 6.036-6.034c0-3.328-2.71-6.036-6.037-6.036z" opacity=".5"/><path fill="#fff" d="M8.976 41.448C4.026 41.448 0 37.422 0 32.473s4.027-8.976 8.976-8.976 8.976 4.026 8.976 8.976-4.027 8.975-8.976 8.975zm0-15.01c-3.328 0-6.036 2.707-6.036 6.035s2.708 6.036 6.036 6.036c3.328 0 6.035-2.71 6.035-6.037s-2.706-6.036-6.034-6.036z" opacity=".5"/><path fill="#fff" d="M32.473 41.448c-4.95 0-8.976-4.026-8.976-8.976s4.026-8.976 8.976-8.976 8.976 4.026 8.976 8.976-4.028 8.976-8.977 8.976zm0-15.01c-3.328 0-6.036 2.707-6.036 6.035s2.708 6.036 6.036 6.036 6.036-2.71 6.036-6.037-2.71-6.036-6.037-6.036z" opacity=".5"/></svg>