<?xml version="1.0" encoding="utf-8"?>
<!-- Generator: Adobe Illustrator 19.1.0, SVG Export Plug-In . SVG Version: 6.00 Build 0)  -->
<svg version="1.1" id="Layer_1" xmlns="http://www.w3.org/2000/svg" xmlns:xlink="http://www.w3.org/1999/xlink" x="0px" y="0px"
	 width="200px" height="55px" viewBox="0 0 200 55" style="enable-background:new 0 0 200 55;" xml:space="preserve">
<style type="text/css">
	.st0{fill:none;stroke:#19601B;stroke-width:0.1827;stroke-linecap:round;stroke-linejoin:round;}
	.st1{fill:#19601B;}
</style>
<g>
	<path class="st0" d="M5.9,24.7c0.1,0.1,6.7-4.4,6.7-4.4c0,0-6,4-6,4.1c0,0,6.2-4.1,6.2-4.1l-5.5,3.8c0,0,5.7-3.8,5.8-3.7
		c0,0.1-5,3.5-5,3.5c0,0,5.3-3.6,5.4-3.5c0.1,0.1-5.2,3.5-5.2,3.5c0.1,0.1,5.4-3.5,5.4-3.5c0,0-4.3,3.1-4.3,3.1c0,0,4.5-3,4.6-3
		c0,0-3.5,2.6-3.5,2.6c0,0,4-2.6,4-2.6c0,0-3.7,2.5-3.7,2.5c0,0,3.6-2.4,3.6-2.3c0,0-3.5,2.4-3.5,2.4c0,0,3.8-2.4,3.8-2.4
		S11.5,23,11.5,23c0,0,3.3-2.2,3.3-2.2c0,0-2.6,2.1-2.6,2.1c0,0,2.9-1.9,2.9-1.9c0,0-2.8,2-2.8,2c0,0,3.1-2,3.1-2c0,0-2.8,2-2.8,2
		c0,0,3-2,3-2c0,0-2.6,2-2.6,2c0,0,2.8-1.8,2.8-1.8c0,0-2.3,1.9-2.3,1.9l2.6-1.7c0,0-2.3,1.8-2.3,1.8c0,0,2.5-1.6,2.5-1.6
		c0,0-2.4,1.7-2.3,1.8c0,0,2.4-1.6,2.5-1.6c0,0-2.3,1.7-2.3,1.7c0,0,2.6-1.7,2.6-1.7c0,0-2.5,1.8-2.5,1.8l2.5-1.6
		c0,0-2.3,1.6-2.3,1.6c0,0,2.4-1.6,2.4-1.6c0,0-2.1,1.7-2.1,1.7c0,0,2.3-1.5,2.3-1.5c0,0-2,1.7-2,1.7c0,0,2.4-1.6,2.4-1.6
		c0,0-2.3,1.7-2.3,1.7c0,0,2.4-1.6,2.4-1.6c0,0-2.2,1.6-2.2,1.6c0,0,2.4-1.5,2.4-1.5l-2.1,1.8c0,0,2.3-1.5,2.3-1.5
		c0,0-2.3,1.8-2.3,1.8l2.3-1.5c0,0-2.2,1.7-2.2,1.7l2.2-1.5c0,0-2.2,1.5-2.2,1.5c0,0,2.4-1.5,2.4-1.5c0,0-2,1.8-2,1.8
		c0,0,2.1-1.4,2.1-1.4c0,0-1.9,1.6-1.9,1.6c0,0,2.1-1.4,2.1-1.4c0,0-2,1.6-2,1.6c0,0,2.3-1.5,2.3-1.5c0,0-2.2,1.5-2.2,1.5l2.2-1.4
		c0,0-2.1,1.6-2.1,1.6c0,0,2.3-1.5,2.3-1.5c0,0-2.4,1.8-2.4,1.8s2.5-1.6,2.5-1.6c0,0-2.2,1.7-2.2,1.7c0,0,2.3-1.5,2.3-1.5
		c0,0-2.2,1.8-2.2,1.8c0,0,2.3-1.5,2.3-1.5s-2.4,1.9-2.4,1.9c0,0,2.4-1.6,2.4-1.6s-2.1,1.8-2.1,1.8c0,0,2.1-1.4,2.2-1.4
		c0,0-2.3,1.7-2.3,1.8c0,0,2.5-1.6,2.5-1.6c0,0-2.2,1.7-2.2,1.8c0,0,2.2-1.5,2.2-1.5c0,0-2.3,1.7-2.3,1.7c0,0,2.3-1.5,2.3-1.5
		c0,0-2.2,1.6-2.2,1.6c0,0,2.3-1.5,2.3-1.5c0,0-2.3,1.8-2.3,1.8c0,0,2.4-1.6,2.4-1.6l-2.4,1.9c0,0,2.4-1.5,2.4-1.5S17.6,29,17.6,29
		l2.5-1.6l-2.3,1.8c0,0,2.3-1.5,2.3-1.5c0,0-2.3,1.8-2.3,1.8c0,0,2.5-1.6,2.5-1.6c0,0-2.3,1.8-2.3,1.8c0,0,2.3-1.5,2.4-1.5
		c0,0-2.4,1.9-2.4,1.9c0,0,2.4-1.6,2.4-1.6c0,0-2.2,1.8-2.2,1.8c0,0,2.3-1.5,2.3-1.5c0,0-2.2,1.5-2.2,1.6c0,0,2.3-1.5,2.3-1.5
		c0,0-2.3,1.9-2.3,1.9c0,0,2.5-1.7,2.5-1.7c0,0-2.4,1.6-2.4,1.7c0,0,2.4-1.6,2.4-1.6c0,0-2.4,1.8-2.4,1.8c0,0,2.2-1.5,2.2-1.5
		c0,0-2.1,1.8-2.1,1.8l2.4-1.5 M2.9,23.4c0,0,1.5-1,1.5-1c0,0-2.8,2.2-2.7,2.2c0,0,4.3-2.8,4.3-2.8c0,0.1-4.7,3.3-4.7,3.3
		c0,0,5.5-3.6,5.5-3.6c0,0-5.5,3.7-5.5,3.7c0,0,5.9-3.9,5.9-3.9C7.4,21.5,1,25.7,1,25.7c0.1,0.1,7-4.5,7-4.5c0,0-7.1,4.6-7,4.7
		c0,0,7.5-4.9,7.5-4.9c0,0-7.7,5.3-7.7,5.3c0,0,8.6-5.6,8.6-5.6c0,0.1-8.9,6-8.8,6.1c0,0,9.8-6.5,9.8-6.4c0,0.1-10,6.9-10,6.9
		s10.8-7.1,10.8-7c0,0-10.8,7.4-10.8,7.4c0.1,0.1,11.4-7.5,11.5-7.4c0.1,0.2-11.7,7.8-11.6,7.9c0.1,0.2,12.1-8.1,12.2-7.9
		c0,0-12.2,8-12.2,8.1c0,0,4.1-2.7,4.1-2.7c0,0-4.2,3.1-4.2,3.1c0,0,3.6-2.3,3.6-2.3c0,0-3.6,2.7-3.6,2.7c0,0,3.2-2.1,3.2-2.1
		c0,0-3.3,2.5-3.3,2.6c0,0,2.9-2,3-1.9c0,0-2.8,1.9-2.8,1.9C0.2,29.8,3,28,3,28c0,0-2.8,2.2-2.8,2.2l2.7-1.8c0,0-2.7,2.2-2.7,2.2
		c0,0,2.8-1.8,2.8-1.8c0,0-2.6,1.9-2.6,1.9c0,0,2.4-1.6,2.4-1.6l-2.4,1.7c0,0,2.5-1.6,2.5-1.6c0,0-2.6,1.8-2.6,1.8
		c0,0,2.7-1.8,2.7-1.7c0,0-2.6,2-2.6,2c0,0,2.5-1.6,2.5-1.6c0,0-2.4,1.8-2.4,1.8c0,0,2.5-1.6,2.5-1.6c0,0-2.6,1.9-2.6,1.9
		c0,0,2.5-1.6,2.5-1.6c0,0-2.3,1.7-2.3,1.7c0,0,2.3-1.5,2.3-1.5c0,0-2.3,1.6-2.3,1.6c0,0,2.2-1.5,2.2-1.4c0,0-2.2,1.7-2.2,1.7
		c0,0,2.3-1.5,2.3-1.5l-2.2,1.8C0.7,32.5,3,31,3,31l-2.3,1.7c0,0,2.2-1.5,2.2-1.5c0,0-2.1,1.5-2.1,1.5c0,0,2.2-1.4,2.2-1.4
		c0,0-2.2,1.6-2.2,1.6c0,0,2.2-1.5,2.2-1.5c0,0-2.2,1.7-2.2,1.7c0,0,2.3-1.5,2.3-1.5c0,0-2.2,1.6-2.2,1.6l2.4-1.6
		c0,0-2.4,1.8-2.4,1.8c0,0,2.4-1.5,2.4-1.5c0,0-2.2,1.8-2.2,1.8c0,0,2.2-1.5,2.2-1.5c0,0-2.1,1.6-2.1,1.6c0,0,2.3-1.5,2.3-1.5
		l-2.4,1.7c0,0,2.4-1.6,2.5-1.6l-2.4,1.8c0,0,2.3-1.5,2.3-1.5c0,0-2.1,1.8-2.1,1.8l2.3-1.5c0,0-2.2,1.7-2.2,1.7c0,0,2.3-1.5,2.3-1.5
		c0,0-2.2,1.8-2.2,1.8c0,0,2.4-1.6,2.4-1.6c0,0-2.3,1.9-2.2,1.9C1.7,35.5,4,34,4,34c0,0-2.4,1.8-2.4,1.8c0,0,2.5-1.6,2.5-1.6
		c0,0-2.4,2-2.4,2c0,0,2.4-1.6,2.4-1.6c0,0-2.3,1.8-2.3,1.9c0,0,2.4-1.6,2.4-1.6c0,0-2.3,1.6-2.3,1.7c0,0,2.3-1.5,2.3-1.5l-2.1,1.8
		c0,0,2.3-1.5,2.3-1.5L2,37c0,0,2.3-1.5,2.3-1.5c0,0-2.1,1.7-2.1,1.7c0,0,2.3-1.6,2.4-1.5c0,0-2.3,1.6-2.3,1.6c0,0,2.2-1.5,2.2-1.4
		c0,0-2.2,1.5-2.2,1.5c0,0,2.2-1.4,2.2-1.4c0,0-2.2,1.5-2.2,1.6c0,0,2.4-1.5,2.4-1.5c0,0-2.3,1.6-2.3,1.6 M25,35.3
		c0,0.1,1.4-0.9,1.4-0.9c0,0-2.5,1.6-2.5,1.6c0,0,3.1-1.9,3.1-1.9c0,0-3.2,2.3-3.2,2.4c0,0,4.5-3,4.5-2.9c0,0-4.4,3.1-4.4,3.2
		c0,0,5.1-3.4,5.1-3.3c0,0-4.8,3.5-4.8,3.5s5.2-3.4,5.2-3.4c0,0-4.7,3.5-4.7,3.5c0,0.1,5-3.3,5-3.3c0.1,0.1-4.4,3.2-4.4,3.3
		c0.1,0.1,4.6-3.1,4.6-3c0,0-3.9,2.7-3.9,2.7c0,0,3.9-2.6,3.9-2.6c0,0-5.3,3.8-5.3,3.8c0,0,5.5-3.6,5.5-3.6c0,0-3.7,2.8-3.7,2.8
		c0,0.1,3.8-2.5,3.8-2.5c0,0-2.4,1.9-2.3,1.9c0,0,2.3-1.5,2.3-1.5c0,0-2.1,1.5-2.1,1.5c0,0,2.3-1.5,2.3-1.5c0,0-2.2,1.8-2.2,1.8
		l2.3-1.5c0,0-2.2,1.9-2.2,1.9c0,0,2.5-1.6,2.5-1.6c0,0-2.3,1.7-2.2,1.7c0,0,2.2-1.5,2.2-1.5l-2.2,1.6c0,0,2.3-1.5,2.3-1.5
		c0,0-2.4,1.7-2.4,1.7c0,0,2.5-1.6,2.5-1.6c0,0-2.4,1.8-2.4,1.9c0,0,2.4-1.6,2.4-1.6c0,0-2.2,1.7-2.2,1.7c0,0,2.4-1.6,2.4-1.6
		c0,0-2.5,1.8-2.4,1.9c0,0,2.5-1.6,2.5-1.6c0,0-2.2,1.7-2.2,1.7c0,0,2.3-1.5,2.3-1.5c0,0-2.2,1.6-2.2,1.6c0,0,2.2-1.4,2.2-1.4
		c0,0-2.2,1.6-2.2,1.6c0,0,2.3-1.5,2.3-1.5l-2.2,1.8c0,0,2.3-1.5,2.3-1.5l-2.3,1.7c0,0,2.2-1.5,2.2-1.5c0,0-2.1,1.5-2.1,1.5
		c0,0,2.2-1.4,2.2-1.4c0,0-2.2,1.6-2.2,1.6c0,0,2.2-1.5,2.2-1.5c0,0-2.2,1.7-2.2,1.7c0,0,2.3-1.5,2.3-1.5c0,0-2.2,1.6-2.2,1.6
		l2.4-1.6c0,0-2.4,1.8-2.4,1.8c0,0,2.4-1.5,2.4-1.5c0,0-2.2,1.8-2.2,1.8c0,0,2.2-1.5,2.2-1.5c0,0-2.1,1.6-2.1,1.6
		c0,0,2.3-1.5,2.3-1.5l-2.4,1.7c0,0,2.4-1.6,2.5-1.6L29.7,41c0,0,2.3-1.5,2.3-1.5c0,0-2.1,1.7-2.1,1.8l2.3-1.5c0,0-2.2,1.7-2.2,1.7
		c0,0,2.3-1.5,2.3-1.5c0,0-2.2,1.8-2.2,1.8c0,0,2.4-1.6,2.4-1.6c0,0-2.2,1.9-2.2,1.9c0,0,2.3-1.5,2.3-1.5c0,0-2.4,1.8-2.4,1.8
		c0,0,2.5-1.6,2.5-1.6c0,0-2.4,2-2.4,2c0,0,2.4-1.6,2.4-1.6c0,0-2.3,1.8-2.3,1.9c0,0,2.4-1.6,2.4-1.6c0,0-2.3,1.6-2.3,1.7
		c0,0,2.3-1.5,2.3-1.5l-2.1,1.8c0,0,2.3-1.5,2.3-1.5l-2.3,1.7c0,0,2.3-1.5,2.3-1.5c0,0-2.1,1.7-2.1,1.7c0,0,2.3-1.6,2.4-1.5
		c0,0-2.3,1.6-2.3,1.6c0,0,2.2-1.5,2.2-1.4c0,0-2.2,1.5-2.2,1.5c0,0,2.2-1.4,2.2-1.4c0,0-2.2,1.5-2.2,1.6c0,0,2.4-1.5,2.4-1.5
		c0,0-2.3,1.6-2.3,1.6c0,0,2.3-1.5,2.3-1.5L31,44.4c0,0,2.4-1.6,2.4-1.6c0,0-2.4,1.8-2.4,1.8c0,0,2.4-1.6,2.4-1.6
		c0,0-2.5,1.8-2.4,1.8l2.5-1.6c0,0-2.3,1.9-2.3,1.9c0,0,2.4-1.6,2.4-1.6c0,0-2.2,1.8-2.2,1.8c0,0,2.4-1.5,2.4-1.5
		c0,0-2.4,1.8-2.4,1.8c0,0,2.3-1.5,2.4-1.5c0,0-2.2,1.6-2.1,1.6c0,0,2.2-1.4,2.2-1.4c0,0-2.3,1.6-2.3,1.6c0,0,2.4-1.5,2.4-1.5
		c0,0-2.1,1.8-2.1,1.8l2.4-1.5c0,0-2.3,1.9-2.3,1.9c0,0,2.5-1.7,2.6-1.7c0,0-2.5,2-2.5,2s3.7-2.4,3.7-2.4c0,0-3.6,2.5-3.6,2.5
		c0,0,4.2-2.8,4.2-2.7c0,0-4.1,3-4.1,3c0,0.1,5-3.3,5-3.3c0,0.1-4.9,3.4-4.9,3.4c0,0,5.3-3.5,5.3-3.5c0,0-5.1,3.6-5.1,3.6
		c0,0,5.5-3.6,5.5-3.6c0,0-5.2,3.7-5.2,3.7c0,0.1,5.4-3.6,5.4-3.5l-5,3.7l5.2-3.4c0,0.1-4.8,3.4-4.8,3.4c0,0.1,5-3.3,5-3.3
		c0,0-4.3,3-4.3,3c0,0.1,4.4-2.9,4.4-2.9c0,0-4,2.8-4,2.8c0,0,4-2.6,4-2.6c0,0-3.3,2.3-3.2,2.3c0,0,3.1-2.1,3.1-2
		c0,0-2.2,1.8-2.2,1.8c0,0,2.3-1.5,2.3-1.5c0,0-1.9,1.4-1.9,1.4c0,0,1.8-1.2,1.8-1.2c0,0-0.9,0.9-0.9,0.9c0,0,0.5-0.3,0.5-0.3"/>
	<path class="st0" d="M10,32c0.1,0.1,5.7-3.8,5.7-3.7c0,0-4.8,3.2-4.8,3.3c0,0,5-3.3,5-3.3l-4.2,3c0,0,4.5-3,4.5-2.9
		c0,0-3.9,2.7-3.9,2.7c0,0,4.2-2.8,4.3-2.8c0,0.1-4.2,2.8-4.2,2.8c0,0.1,4.4-2.9,4.4-2.9c0,0-3.6,2.6-3.5,2.6c0,0,3.8-2.5,3.9-2.5
		c0,0-3.3,2.5-3.3,2.5c0,0,3.8-2.5,3.8-2.5c0,0-3.5,2.4-3.5,2.4c0,0,3.5-2.3,3.5-2.3c0,0-3.4,2.3-3.4,2.3c0,0,3.7-2.4,3.7-2.4
		s-3.3,2.3-3.3,2.3c0,0,3.4-2.2,3.4-2.2c0,0-2.8,2.2-2.8,2.2c0,0,3.1-2,3.1-2c0,0-3.1,2.1-3.1,2.2c0,0,3.4-2.2,3.4-2.2
		c0,0-3.1,2.1-3,2.2c0,0,3.3-2.1,3.3-2.1c0,0-2.8,2.1-2.8,2.1c0,0,3-2,3.1-2c0,0-2.5,2-2.5,2.1l2.9-1.9c0,0-2.6,2-2.6,2
		c0,0,2.8-1.8,2.8-1.8c0,0-2.6,1.9-2.6,1.9c0,0,2.7-1.8,2.7-1.8c0,0-2.6,1.9-2.6,1.9c0,0,2.9-1.9,2.9-1.9c0,0-2.8,2-2.8,2l2.8-1.8
		c0,0-2.6,1.8-2.6,1.8c0,0,2.7-1.8,2.7-1.8c0,0-2.3,1.8-2.3,1.9c0,0,2.5-1.7,2.6-1.7c0,0-2.2,1.8-2.2,1.8c0,0,2.6-1.7,2.7-1.7
		c0,0-2.5,1.8-2.5,1.9c0,0,2.7-1.7,2.7-1.7c0,0-2.4,1.7-2.4,1.7c0,0,2.6-1.7,2.6-1.7L19.4,32c0,0,2.6-1.7,2.6-1.7
		c0,0-2.4,1.9-2.4,1.9l2.6-1.7c0,0-2.3,1.8-2.3,1.8l2.4-1.6c0,0-2.3,1.6-2.3,1.6c0,0,2.5-1.7,2.5-1.6c0,0-2.1,1.8-2.1,1.8
		c0,0,2.3-1.5,2.3-1.5c0,0-2,1.6-2,1.6c0,0,2.2-1.5,2.2-1.5c0,0-2,1.7-2,1.7c0,0,2.4-1.6,2.4-1.6c0,0-2.3,1.6-2.3,1.6l2.3-1.5
		c0,0-2.2,1.6-2.1,1.6c0,0,2.3-1.5,2.3-1.5c0,0-2.3,1.8-2.3,1.8c0,0,2.5-1.6,2.5-1.6c0,0-2.2,1.7-2.2,1.7c0,0,2.3-1.5,2.3-1.5
		c0,0-2.2,1.7-2.2,1.7c0,0,2.4-1.5,2.4-1.5s-2.3,1.8-2.3,1.8c0,0,2.4-1.5,2.4-1.5S22.3,34,22.3,34c0,0,2.1-1.4,2.1-1.4
		c0,0-2.2,1.6-2.1,1.7c0,0,2.4-1.6,2.4-1.6c0,0-2.1,1.6-2,1.7c0,0,2.2-1.4,2.2-1.4c0,0-2.2,1.6-2.2,1.6c0,0,2.3-1.5,2.3-1.5
		c0,0-2.1,1.5-2.1,1.5c0,0,2.2-1.5,2.2-1.5c0,0-2.2,1.7-2.1,1.7c0,0,2.3-1.6,2.4-1.5l-2.3,1.8c0,0,2.3-1.5,2.3-1.5s-2,1.6-2,1.7
		l2.4-1.6l-2.2,1.7c0,0,2.2-1.4,2.2-1.4c0,0-2.1,1.7-2.1,1.7c0,0,2.4-1.6,2.4-1.6c0,0-2.2,1.7-2.2,1.7c0,0,2.3-1.5,2.3-1.5
		c0,0-2.3,1.8-2.2,1.8c0,0,2.3-1.5,2.3-1.5c0,0-2.1,1.7-2.1,1.8c0,0,2.2-1.5,2.2-1.4c0,0-2.1,1.5-2.1,1.5c0,0,2.2-1.4,2.2-1.4
		c0,0-2.2,1.8-2.2,1.9c0,0,2.5-1.7,2.5-1.6c0,0-2.4,1.6-2.3,1.6c0,0,2.4-1.6,2.4-1.5c0,0-2.3,1.7-2.3,1.7c0,0,2.2-1.4,2.2-1.4
		c0,0-2,1.7-2,1.7c0,0,2.3-1.5,2.3-1.5c0,0-2.3,1.6-2.3,1.7c0,0,2.3-1.5,2.3-1.5c0,0-2.3,1.8-2.3,1.8c0,0,2.3-1.5,2.3-1.5
		c0,0-2.3,1.6-2.3,1.6c0,0,2.4-1.6,2.4-1.6c0,0-2.4,1.7-2.4,1.8c0,0,2.4-1.6,2.4-1.5l-2.2,1.7c0,0,2.3-1.5,2.3-1.5
		c0,0-2.2,1.6-2.2,1.6c0,0,2.3-1.5,2.3-1.5c0,0-2.2,1.7-2.2,1.8c0,0,2.2-1.4,2.2-1.4c0,0-2.2,1.7-2.2,1.7c0,0,2.2-1.4,2.2-1.4
		c0,0-2.2,1.6-2.2,1.6c0,0,2.4-1.6,2.4-1.6c0,0-2.5,2-2.5,2c0,0,2.5-1.6,2.5-1.6c0,0-2.2,1.8-2.2,1.8c0,0,2.3-1.6,2.4-1.5
		c0,0-2.5,1.8-2.5,1.8c0,0,2.6-1.7,2.6-1.7c0,0-2.7,1.9-2.7,1.9c0,0,2.5-1.6,2.5-1.6c0,0-2.5,1.9-2.5,1.9l2.6-1.7
		c0,0-2.5,1.7-2.5,1.8l2.5-1.6c0,0-2.6,1.9-2.6,1.9c0,0,2.6-1.7,2.6-1.7c0,0-2.4,1.8-2.4,1.9c0,0,2.6-1.7,2.6-1.7
		c0,0-2.5,1.9-2.5,1.9c0,0,2.5-1.7,2.5-1.7c0,0-2.7,1.9-2.7,1.9c0,0,2.5-1.7,2.6-1.7c0,0-2.6,1.9-2.6,2c0,0,2.7-1.8,2.7-1.8
		c0,0-2.7,1.9-2.7,1.9c0,0,2.8-1.8,2.8-1.8c0,0-2.9,2.2-2.9,2.2c0,0,2.8-1.8,2.8-1.8c0,0-2.8,2.2-2.8,2.2c0,0,2.7-1.8,2.7-1.8
		c0,0-2.8,2-2.8,2.1c0,0,3-1.9,3-1.9c0,0-3.2,2.4-3.2,2.4c0,0,2.9-1.9,3-1.9c0,0-3,2.1-3,2.1c0,0,3-2,3-2c0,0-3.1,2.1-3.1,2.1
		c0,0,3.1-2,3.1-2c0,0-3.2,2.4-3.2,2.4c0,0,3-1.9,3-1.9l-3.2,2.3c0,0,3.2-2.2,3.3-2.1c0,0-3.4,2.5-3.3,2.6c0,0,3.3-2.1,3.3-2.1
		c0,0.1-3.5,2.5-3.5,2.5c0,0,3.5-2.3,3.5-2.3c0,0-3.7,2.8-3.7,2.8s3.7-2.5,3.7-2.4c0,0-3.8,2.8-3.8,2.8l3.6-2.3c0,0-3.9,2.7-3.9,2.7
		s4-2.7,4.1-2.6c0,0-4.3,3-4.3,3c0,0,4.1-2.7,4.1-2.7c0,0.1-4.7,3.4-4.7,3.4c0,0,4.6-3,4.6-3c0,0.1-5.2,3.6-5.1,3.6
		c0,0,5.1-3.3,5.1-3.3c0,0-6.1,4.2-6.1,4.2c0,0.1,5.9-3.8,5.9-3.8 M6.5,31.1c0,0,2-1.4,2-1.3c0,0-3.6,2.7-3.6,2.7
		c0,0,5.4-3.6,5.5-3.5c0.1,0.1-6,4.1-6,4.1c0,0.1,6.9-4.5,6.9-4.5c0,0-7,4.7-7,4.7c0,0,7.3-4.7,7.3-4.7c0.1,0.1-7.8,5.2-7.7,5.2
		c0.1,0.1,8.2-5.3,8.2-5.3c0,0-8.4,5.5-8.3,5.6c0,0,8.6-5.6,8.6-5.6c0,0-9.1,6.1-9,6.2c0,0,9.6-6.3,9.7-6.3c0,0.1-10,6.8-10,6.9
		c0,0,10.6-7,10.6-6.9c0,0.1-11,7.5-11,7.5s11.6-7.6,11.7-7.6c0,0-11.8,8-11.8,8c0.1,0.1,12.3-8.1,12.3-8c0.1,0.2-12.7,8.4-12.6,8.6
		c0.1,0.2,13.1-8.7,13.2-8.6c0,0-13.3,8.7-13.3,8.8c0,0,5.5-3.7,5.6-3.6c0,0-5.8,4.1-5.8,4.1c0,0,4.7-3.1,4.7-3.1
		C6.9,34.5,2,38,2,38c0,0.1,4.1-2.8,4.2-2.7c0,0-4.4,3.3-4.4,3.3c0,0,3.8-2.5,3.8-2.5c0,0-3.7,2.5-3.7,2.5c0,0.1,3.6-2.4,3.6-2.4
		c0,0-3.8,2.8-3.8,2.9l3.5-2.3c0,0-3.6,2.8-3.6,2.8c0,0,3.4-2.2,3.4-2.2c0,0-3.3,2.4-3.3,2.4c0,0,3.1-2,3.1-2L1.7,40
		c0,0,3.2-2.1,3.2-2.1c0,0-3.3,2.3-3.3,2.3c0,0,3.3-2.2,3.3-2.1c0,0-3.4,2.4-3.3,2.4c0,0,3.1-2,3.1-2c0,0-3.1,2.2-3,2.2
		c0,0,3-2,3.1-2c0,0-3.2,2.3-3.2,2.3c0,0,3.1-2,3.1-2c0,0-2.9,2.1-2.9,2.1c0,0,2.8-1.9,2.8-1.8c0,0-2.8,1.9-2.8,2
		c0,0,2.7-1.8,2.7-1.8c0,0-2.8,2-2.8,2c0,0,2.7-1.8,2.8-1.8l-2.8,2.1c0,0,2.7-1.8,2.7-1.7l-2.7,2c0,0,2.6-1.7,2.6-1.7
		c0,0-2.5,1.7-2.5,1.7c0,0,2.5-1.6,2.5-1.6c0,0-2.6,1.9-2.6,1.9c0,0,2.6-1.7,2.6-1.7c0,0-2.6,1.9-2.6,1.9c0,0,2.6-1.7,2.6-1.7
		c0,0-2.5,1.8-2.5,1.8L4.3,41c0,0-2.7,2-2.7,2c0,0,2.6-1.7,2.6-1.7c0,0-2.5,2-2.5,2c0,0,2.4-1.6,2.5-1.6c0,0-2.3,1.8-2.3,1.8
		c0,0,2.4-1.6,2.5-1.6l-2.6,1.8c0,0,2.6-1.7,2.6-1.7L1.8,44c0,0,2.5-1.6,2.5-1.6c0,0-2.3,1.9-2.3,1.9l2.3-1.5c0,0-2.4,1.8-2.3,1.8
		c0,0,2.4-1.5,2.4-1.5c0,0-2.3,1.8-2.3,1.8c0,0,2.5-1.7,2.5-1.6c0,0-2.3,1.9-2.3,1.9c0,0,2.3-1.5,2.4-1.5c0,0-2.4,1.8-2.4,1.8
		c0,0,2.5-1.6,2.5-1.6c0,0-2.4,2-2.4,2c0,0,2.4-1.6,2.4-1.5c0,0-2.3,1.8-2.2,1.9c0,0,2.4-1.6,2.4-1.6c0,0-2.3,1.6-2.3,1.6
		c0,0,2.2-1.5,2.3-1.5l-2.1,1.8c0,0,2.2-1.5,2.2-1.5l-2.3,1.7c0,0,2.3-1.5,2.3-1.5c0,0-2,1.6-2,1.7c0,0,2.3-1.5,2.3-1.5
		c0,0-2.2,1.6-2.2,1.6c0,0,2.1-1.4,2.1-1.4C5.1,45.5,3,47,3,47c0,0,2.1-1.4,2.1-1.4c0,0-2.1,1.5-2.1,1.5c0,0,2.3-1.5,2.3-1.5
		c0,0-2.3,1.6-2.3,1.6c0,0,2.2-1.5,2.2-1.5l-2.3,1.6c0,0,2.3-1.6,2.4-1.5c0,0-2.3,1.7-2.3,1.7c0,0,2.3-1.5,2.3-1.5
		c0,0-2.4,1.8-2.4,1.8l2.4-1.6c0,0-2.2,1.8-2.2,1.8c0,0,2.3-1.5,2.3-1.5c0,0-2.1,1.7-2.1,1.7c0,0,2.3-1.5,2.3-1.5
		c0,0-2.2,1.7-2.2,1.7c0,0,2.3-1.5,2.3-1.5c0,0-2,1.5-2,1.6c0,0,2.1-1.4,2.1-1.4c0,0-2.2,1.5-2.2,1.6c0,0,2.3-1.5,2.3-1.5
		c0,0-2,1.6-2,1.7l2.3-1.5c0,0-2.1,1.8-2.1,1.8c0,0,2.3-1.5,2.3-1.5c0,0-2.1,1.8-2.1,1.8s2.3-1.5,2.3-1.5c0,0-2.1,1.5-2.1,1.6
		c0,0,2.3-1.5,2.3-1.5c0,0-2.1,1.7-2.1,1.7c0,0,2.2-1.5,2.3-1.5c0,0-2.1,1.6-2.1,1.6c0,0,2.3-1.5,2.3-1.5c0,0-2,1.7-2,1.7
		c0,0,2.3-1.5,2.3-1.5c0,0-2.1,1.6-2.1,1.6c0,0,2.2-1.5,2.2-1.4l-2,1.7l2.2-1.4c0,0-2.1,1.6-2.1,1.6c0,0,2.3-1.5,2.3-1.5
		c0,0-2.1,1.6-2.1,1.6c0,0,2.3-1.5,2.3-1.5c0,0-2.3,1.7-2.3,1.7c0,0,2.4-1.6,2.4-1.6c0,0-2.2,1.6-2.2,1.7c0,0,2.2-1.5,2.2-1.4
		c0,0-2.2,1.8-2.2,1.8c0,0,2.6-1.7,2.6-1.7c0,0-2.5,1.8-2.5,1.8C6.5,51.7,9,50,9,50c0,0-2.3,1.8-2.3,1.8c0,0,2.4-1.6,2.4-1.5L7,51.9
		c0,0,2.4-1.6,2.4-1.6c0,0-2.4,1.7-2.4,1.7c0,0,2.5-1.7,2.6-1.7c0,0-2.2,1.7-2.2,1.7c0,0,2.4-1.6,2.4-1.6c0,0-2.4,1.8-2.3,1.8
		c0,0,2.5-1.6,2.5-1.6c0,0-2.2,1.7-2.1,1.7c0,0,2.4-1.6,2.4-1.6c0,0-2.5,1.7-2.5,1.7c0,0,2.8-1.8,2.8-1.8c0,0-2.3,1.9-2.3,1.9
		c0,0,2.5-1.6,2.5-1.6c0,0-2.3,1.9-2.3,1.9c0,0,2.7-1.8,2.7-1.7c0,0-2.6,1.8-2.6,1.8c0,0,2.6-1.7,2.6-1.7c0,0-2.7,1.8-2.7,1.9
		c0,0,2.9-1.9,3-1.9c0,0-2.8,2-2.8,2c0,0,3-1.9,3-1.9c0,0-2.7,1.9-2.7,1.9c0,0,2.6-1.7,2.6-1.7c0,0-2.3,1.8-2.3,1.8
		c0,0,2.8-1.8,2.8-1.8c0,0-2.6,1.9-2.6,2c0,0,2.9-1.9,2.9-1.9c0,0-2.8,2-2.7,2c0,0,3-2,3.1-2c0,0-2.6,2-2.6,2.1c0,0,3.1-2,3.1-2
		s-2.9,2.2-2.9,2.2c0,0,3.3-2.2,3.4-2.2c0,0-3,2.1-3,2.1c0,0,3-2,3-2c0,0-2.8,2-2.8,2c0,0,3.3-2.2,3.3-2.1c0,0-3.1,2.3-3.1,2.3
		c0,0,3.4-2.2,3.4-2.2s-3.1,2.1-3.1,2.1c0,0,3.4-2.2,3.4-2.2c0,0-3.4,2.3-3.4,2.3c0,0,3.6-2.3,3.6-2.3s-3.3,2.3-3.3,2.4
		c0,0,3.8-2.5,3.8-2.5c0,0-3.3,2.5-3.2,2.5l3.8-2.5c0,0-3.6,2.6-3.6,2.7c0,0,4.2-2.7,4.2-2.7c0,0-3.9,2.6-3.8,2.7l4.4-2.9
		c0,0-4,2.9-4,2.9c0,0,5-3.3,5-3.2c0,0.1-4.7,3.3-4.7,3.3c0,0,5.6-3.7,5.7-3.7l-5.2,3.6c0.1,0.1,13-8.7,13.1-8.5l-12.5,8.5
		c0,0,12.2-7.9,12.2-7.9c0.1,0.1-11.9,7.8-11.8,8c0.1,0.2,11.6-7.5,11.6-7.5c0,0.1-11,7.3-10.9,7.4c0.1,0.1,10.6-6.9,10.6-6.9
		c0.1,0.1-10.5,6.9-10.4,7C16,54.6,26,47.8,26,47.8c0.1,0.1-9.4,6.3-9.3,6.5c0,0,8.9-5.8,8.9-5.8c0.1,0.1-8.2,5.7-8.2,5.7l7.8-5.1
		l-7.4,5c0,0.1,6.9-4.6,7-4.5c0,0-6.5,4.3-6.5,4.4c0,0,6.1-4.1,6.2-4c0,0-5.5,3.7-5.5,3.8l5.1-3.3c0,0-3.3,2.5-3.3,2.5
		c0,0,1.8-1.2,1.8-1.2 M7.3,3.8c0,0.1,4.8-3.2,4.8-3.1c0,0-4.2,2.8-4.2,2.9c0,0,4.4-2.9,4.4-2.9L8.6,3.4c0,0,4.1-2.7,4.2-2.7
		c0,0-3.7,2.6-3.7,2.6c0,0,4.1-2.8,4.2-2.7c0,0.1-4.1,2.8-4.1,2.8c0,0.1,4.4-2.8,4.4-2.8c0,0-3.7,2.7-3.7,2.7c0,0,4.1-2.7,4.1-2.7
		c0,0-3.6,2.7-3.6,2.7c0,0,4.3-2.8,4.3-2.8c0,0-4,2.7-4,2.7c0,0.1,4-2.7,4.1-2.6c0,0-4,2.7-4,2.7c0,0.1,4.4-2.8,4.4-2.8
		S11,3.2,11,3.3c0,0,4.2-2.7,4.2-2.7c0,0-3.5,2.6-3.5,2.6c0,0,4-2.6,4-2.6c0,0.1-3.9,2.7-3.9,2.7c0,0,4.3-2.8,4.3-2.8
		c0,0-3.9,2.7-3.9,2.7c0,0,4.2-2.8,4.3-2.8c0,0-3.8,2.7-3.7,2.7c0,0,4.1-2.7,4.2-2.7c0,0.1-3.5,2.7-3.5,2.7l4.1-2.7
		c0,0-3.7,2.7-3.7,2.7c0,0,4.1-2.7,4.1-2.6c0,0-3.8,2.7-3.8,2.7c0,0,4-2.7,4-2.6c0,0-3.8,2.7-3.8,2.7c0,0,4.3-2.8,4.3-2.8
		c0,0-4,2.8-4,2.8l4.2-2.7c0,0-3.9,2.7-3.9,2.7c0,0,4.1-2.7,4.1-2.7c0,0-3.5,2.6-3.5,2.6c0,0,4-2.7,4-2.6c0,0-3.5,2.6-3.5,2.6
		c0,0,4.2-2.7,4.2-2.7c0,0-3.9,2.7-3.9,2.8c0,0.1,4.2-2.7,4.2-2.7c0,0-3.8,2.6-3.8,2.6c0,0.1,4.1-2.7,4.1-2.7l-3.5,2.6
		c0,0,4-2.6,4-2.6c0,0-3.6,2.7-3.6,2.7l3.9-2.5c0,0-3.4,2.5-3.4,2.5L21.9,1c0,0-3.5,2.3-3.4,2.4c0,0,3.7-2.4,3.7-2.4
		c0,0-2.9,2.3-2.9,2.3c0,0,3.3-2.1,3.3-2.1c0,0-2.7,2.1-2.7,2.1c0,0,3.1-2,3.1-2c0,0-2.6,2-2.6,2c0,0,3-2,3.1-2c0,0-2.9,1.9-2.9,2
		l2.9-1.9c0,0-2.6,1.9-2.6,1.9c0,0,2.9-1.9,2.9-1.9c0,0-2.7,2-2.7,2c0,0,2.9-1.9,2.9-1.9c0,0-2.5,1.9-2.5,1.9c0,0,2.7-1.8,2.7-1.7
		c0,0-2.4,1.9-2.4,1.9c0,0,2.6-1.7,2.6-1.7s-2.4,1.9-2.4,1.9c0,0,2.6-1.7,2.6-1.7s-2.1,1.8-2.1,1.8c0,0,2.3-1.5,2.3-1.5
		c0,0-2.2,1.7-2.2,1.7c0,0,2.5-1.7,2.6-1.7c0,0-2.1,1.7-2.1,1.7c0,0,2.3-1.5,2.3-1.5c0,0-2.2,1.7-2.2,1.7c0,0,2.3-1.6,2.4-1.5
		c0,0-2.2,1.5-2.2,1.5c0,0,2.3-1.5,2.3-1.5c0,0-2.2,1.7-2.2,1.7c0,0,2.4-1.6,2.4-1.6l-2.3,1.8c0,0,2.3-1.5,2.3-1.5s-2,1.6-2,1.7
		l2.4-1.6l-2.2,1.7c0,0,2.2-1.4,2.2-1.4c0,0-2.1,1.7-2.1,1.7c0,0,2.4-1.6,2.4-1.6c0,0-2.1,1.7-2.1,1.7c0,0,2.3-1.5,2.3-1.5
		c0,0-2.3,1.8-2.2,1.8c0,0,2.3-1.5,2.3-1.5c0,0-2.1,1.7-2.1,1.7c0,0,2.2-1.5,2.2-1.4c0,0-2.1,1.5-2.1,1.5c0,0,2.2-1.4,2.2-1.4
		c0,0-2.2,1.8-2.2,1.9c0,0,2.5-1.6,2.5-1.6c0,0-2.4,1.6-2.3,1.6c0,0,2.4-1.6,2.4-1.5c0,0-2.3,1.7-2.3,1.7c0,0,2.2-1.5,2.2-1.4
		c0,0-2.1,1.8-2.1,1.8c0,0,2.3-1.5,2.3-1.5c0,0-2.4,1.7-2.3,1.7c0,0,2.4-1.6,2.4-1.6c0,0-2.4,1.9-2.4,1.9c0,0,2.4-1.6,2.4-1.6
		c0,0-2.4,1.7-2.4,1.7c0,0,2.5-1.7,2.5-1.6C27.5,6.2,25,8,25,8c0,0,2.5-1.6,2.5-1.6l-2.4,1.8c0,0,2.4-1.5,2.4-1.5
		c0,0-2.4,1.7-2.4,1.7c0,0,2.4-1.6,2.4-1.6c0,0-2.4,1.9-2.4,1.9c0,0,2.4-1.6,2.4-1.6c0,0-2.4,1.8-2.4,1.8c0,0,2.4-1.6,2.4-1.6
		c0,0-2.4,1.7-2.4,1.7c0,0,2.6-1.7,2.6-1.7c0,0-2.8,2.2-2.8,2.2c0,0,2.7-1.8,2.7-1.8c0,0-2.5,2-2.5,2c0,0,2.6-1.7,2.6-1.7
		c0,0-2.7,2-2.7,2c0,0,2.8-1.8,2.8-1.8c0,0-2.9,2-2.9,2.1c0,0,2.7-1.8,2.7-1.8c0,0-2.7,2-2.7,2l2.8-1.8c0,0-2.7,1.9-2.7,1.9L27.8,9
		c0,0-2.8,2-2.8,2c0,0,2.7-1.8,2.7-1.8c0,0-2.6,1.9-2.6,2c0,0,2.7-1.8,2.7-1.8c0,0-2.7,2-2.7,2c0,0,2.6-1.7,2.6-1.7c0,0-2.8,2-2.7,2
		c0,0,2.6-1.7,2.6-1.7c0,0-2.6,2-2.6,2c0,0,2.8-1.8,2.8-1.8c0,0-2.7,1.9-2.7,1.9c0,0,2.8-1.8,2.8-1.8c0,0-2.9,2.2-2.9,2.2
		c0,0,2.8-1.8,2.8-1.8c0,0-2.7,2.1-2.7,2.1c0,0,2.6-1.7,2.6-1.7c0,0-2.6,1.9-2.6,2c0,0,2.8-1.8,2.8-1.8c0,0-2.9,2.2-2.9,2.2
		c0,0,2.7-1.8,2.7-1.8c0,0-2.7,1.9-2.7,1.9c0,0,2.7-1.8,2.7-1.8c0,0-2.8,1.9-2.7,1.9c0,0,2.8-1.8,2.8-1.8c0,0-2.7,2.1-2.7,2.1
		c0,0,2.6-1.7,2.6-1.7l-2.6,2c0,0,2.7-1.8,2.8-1.8c0,0-2.6,2.1-2.6,2.1c0,0,2.6-1.7,2.6-1.7c0,0-2.8,2-2.8,2c0,0,2.8-1.8,2.8-1.8
		c0,0-2.8,2.2-2.8,2.2s2.8-1.9,2.8-1.8c0,0-2.8,2.1-2.8,2.1l2.6-1.7c0,0-2.8,2-2.8,2s3-2,3-2c0,0-3,2.2-2.9,2.2c0,0,2.9-1.9,2.9-1.9
		c0,0-3.2,2.4-3.2,2.4c0,0,3.1-2,3.1-2c0,0-3.2,2.4-3.2,2.4c0,0,3.3-2.1,3.3-2.1c0,0-3.4,2.5-3.4,2.5c0,0,3.3-2.2,3.3-2.2
		c0,0-3.5,2.4-3.5,2.4c0,0,3.4-2.2,3.4-2.2c0,0-3.7,2.6-3.7,2.6c0,0,3.8-2.5,3.8-2.5c0,0-4,2.7-4,2.7c0,0,4-2.6,4-2.6
		c0,0.1-4.4,3-4.4,3c0,0,4.2-2.8,4.3-2.8 M4.5,2.4c0,0,1.5-1,1.5-1c0,0-2.8,2.2-2.8,2.2c0,0,4.2-2.7,4.2-2.7c0,0.1-4.6,3.2-4.6,3.2
		c0,0,5.3-3.4,5.3-3.4c0,0-5.3,3.6-5.3,3.6c0,0,5.5-3.6,5.5-3.6c0.1,0.1-5.9,4-5.9,4.1c0.1,0.1,6.3-4.1,6.3-4.1c0,0-6.4,4.2-6.3,4.3
		c0,0,6.6-4.3,6.6-4.3c0,0-6.8,4.7-6.8,4.7c0,0,7.3-4.8,7.3-4.7C9.5,0.7,2,5.8,2,5.9c0,0,8-5.3,8.1-5.3c0,0-8.3,5.8-8.3,5.8
		s8.9-5.8,8.9-5.8c0,0-8.9,6.2-8.9,6.2c0,0.1,9.4-6.2,9.5-6.1c0.1,0.1-9.7,6.5-9.6,6.7c0.1,0.1,10.2-6.8,10.3-6.7
		c0,0-10.3,6.8-10.2,6.8c0,0,4.1-2.7,4.1-2.7c0,0-4.2,3.1-4.2,3.1c0,0,3.6-2.3,3.6-2.3c0,0-3.6,2.7-3.5,2.7c0,0,3.2-2.1,3.2-2.1
		c0,0-3.4,2.6-3.3,2.6c0,0,2.9-2,3-1.9c0,0-2.8,1.9-2.8,2c0,0,2.9-1.9,2.9-1.9c0,0-2.9,2.2-2.9,2.3l2.8-1.8c0,0-2.8,2.2-2.8,2.2
		c0,0,2.9-1.9,2.9-1.9c0,0-2.7,2-2.7,2c0,0,2.6-1.7,2.6-1.7L1.7,10c0,0,2.7-1.7,2.7-1.7c0,0-2.8,1.9-2.8,1.9c0,0,2.8-1.9,2.8-1.8
		c0,0-2.9,2.1-2.9,2.1c0,0,2.7-1.8,2.7-1.8c0,0-2.7,2-2.7,2c0,0,2.8-1.8,2.8-1.8c0,0-2.9,2.1-2.9,2.1c0,0,2.8-1.8,2.8-1.8
		c0,0-2.6,1.9-2.6,1.9c0,0,2.6-1.7,2.6-1.7c0,0-2.6,1.8-2.6,1.8c0,0,2.5-1.7,2.5-1.7c0,0-2.6,1.9-2.6,1.9c0,0,2.6-1.8,2.7-1.7
		l-2.7,2.1c0,0,2.6-1.7,2.6-1.7l-2.7,2c0,0,2.6-1.7,2.6-1.7c0,0-2.5,1.7-2.5,1.7c0,0,2.5-1.6,2.5-1.6c0,0-2.6,1.9-2.6,1.9
		c0,0,2.6-1.7,2.6-1.7c0,0-2.6,1.9-2.6,1.9c0,0,2.6-1.7,2.6-1.7c0,0-2.6,1.8-2.6,1.8L4.3,11c0,0-2.8,2.1-2.8,2.1
		c0,0,2.7-1.8,2.7-1.8c0,0-2.7,2.1-2.6,2.1c0,0,2.6-1.7,2.6-1.7c0,0-2.5,1.9-2.5,1.9c0,0,2.6-1.7,2.6-1.7l-2.8,2
		c0,0,2.8-1.8,2.8-1.8l-2.9,2.1c0,0,2.7-1.8,2.7-1.8c0,0-2.6,2-2.6,2.1l2.6-1.7c0,0-2.7,2-2.7,2c0,0,2.6-1.7,2.6-1.7
		c0,0-2.7,2-2.6,2.1c0,0,2.7-1.8,2.8-1.8c0,0-2.7,2.1-2.7,2.2c0,0,2.6-1.7,2.6-1.7c0,0-2.7,2-2.7,2c0,0,2.8-1.8,2.8-1.8
		c0,0-2.7,2.2-2.7,2.2c0,0,2.6-1.7,2.6-1.7c0,0-2.6,2-2.5,2.1c0,0,2.6-1.7,2.6-1.7c0,0-2.5,1.8-2.5,1.8c0,0,2.4-1.6,2.4-1.6
		l-2.3,1.9c0,0,2.4-1.6,2.4-1.5l-2.4,1.8c0,0,2.4-1.6,2.4-1.6c0,0-2.2,1.8-2.2,1.8c0,0,2.4-1.6,2.4-1.5c0,0-2.3,1.6-2.3,1.6
		c0,0,2.2-1.5,2.2-1.4c0,0-2.2,1.5-2.2,1.6c0,0,2.2-1.4,2.2-1.4c0,0-2.2,1.5-2.1,1.6c0,0,2.4-1.5,2.4-1.5c0,0-2.3,1.6-2.3,1.6
		c0,0,2.3-1.5,2.3-1.5L2.3,18c0,0,2.4-1.6,2.4-1.6c0,0-2.3,1.8-2.3,1.8c0,0,2.4-1.5,2.4-1.5c0,0-2.4,1.8-2.4,1.8l2.4-1.6
		c0,0-2.2,1.8-2.2,1.8c0,0,2.3-1.5,2.3-1.5c0,0-2.1,1.7-2.1,1.7c0,0,2.3-1.5,2.3-1.5c0,0-2.2,1.7-2.2,1.7c0,0,2.3-1.5,2.3-1.5
		c0,0-2,1.5-2,1.5c0,0,2.1-1.4,2.1-1.4c0,0-2.2,1.5-2.2,1.6c0,0,2.3-1.5,2.3-1.5c0,0-2,1.6-2,1.7l2.3-1.5c0,0-2.1,1.8-2.1,1.8
		c0,0,2.3-1.5,2.3-1.5c0,0-2.1,1.8-2.1,1.8s2.3-1.5,2.3-1.5c0,0-2.2,1.6-2.2,1.6c0,0,2.3-1.6,2.4-1.5c0,0-2.2,1.8-2.2,1.8
		c0,0,2.3-1.6,2.3-1.5c0,0-2.2,1.6-2.2,1.6c0,0,2.4-1.6,2.4-1.6c0,0-2.1,1.7-2.1,1.7c0,0,2.4-1.6,2.4-1.6c0,0-2.2,1.7-2.2,1.7
		c0,0,2.4-1.6,2.4-1.5l-2.1,1.8l2.4-1.5c0,0-2.2,1.7-2.2,1.7c0,0,2.5-1.7,2.6-1.7c0,0-2.3,1.8-2.3,1.8c0,0,2.7-1.7,2.7-1.7
		c0,0-2.6,1.9-2.6,1.9c0,0,2.8-1.8,2.8-1.8c0,0-2.5,1.9-2.5,1.9c0,0,2.6-1.7,2.6-1.7c0,0-2.5,2-2.5,2c0,0,3.2-2.1,3.2-2.1
		c0,0-3,2.1-3,2.1c0,0,3.2-2.1,3.2-2.1c0,0-2.8,2.1-2.8,2.1c0,0,3.1-2,3.1-2l-2.8,2.1c0,0,3.3-2.2,3.3-2.1c0,0-3.3,2.2-3.2,2.3
		c0,0,3.5-2.3,3.5-2.3c0,0-3.1,2.3-3.1,2.3c0,0,3.5-2.3,3.5-2.3c0,0-3.4,2.4-3.3,2.4c0,0,3.6-2.4,3.7-2.4c0,0-3.2,2.3-3.2,2.4
		c0,0.1,3.6-2.4,3.6-2.4c0,0-3.7,2.5-3.7,2.5c0,0,4-2.6,4-2.6c0,0-3.4,2.6-3.4,2.6c0,0,3.9-2.5,3.9-2.5c0,0-3.4,2.6-3.4,2.7
		c0,0,4.1-2.7,4.1-2.7c0,0.1-3.9,2.7-3.9,2.7c0,0,4-2.6,4-2.6c0,0.1-4,2.7-4,2.7c0,0,4.3-2.9,4.3-2.8c0,0-4.2,2.8-4.2,2.8
		c0,0,4.4-2.8,4.4-2.8c0,0.1-4,2.7-4,2.7c0,0,3.9-2.6,4-2.6c0,0-3.5,2.6-3.4,2.6c0,0,4.1-2.7,4.1-2.7c0,0-3.7,2.7-3.7,2.7
		c0,0,4.2-2.7,4.2-2.7c0,0-3.9,2.7-3.8,2.7c0,0,4.2-2.8,4.2-2.8c0,0-3.5,2.6-3.5,2.7c0,0.1,4.2-2.7,4.2-2.7s-3.8,2.8-3.8,2.8
		c0,0.1,4.3-2.8,4.3-2.8c0,0.1-3.9,2.6-3.8,2.7c0,0,3.9-2.6,3.9-2.6c0,0.1-3.7,2.5-3.6,2.6c0,0,4.1-2.7,4.1-2.7c0,0-3.8,2.7-3.8,2.8
		c0,0.1,4.1-2.7,4.1-2.7s-3.8,2.5-3.8,2.6c0,0,4-2.6,4-2.6c0,0.1-4,2.7-4,2.7c0,0.1,4.2-2.7,4.2-2.7s-3.8,2.7-3.8,2.7
		c0,0,4.3-2.8,4.3-2.8c0,0-3.6,2.7-3.6,2.7l4.1-2.7c0,0-3.8,2.7-3.7,2.8c0,0,4.1-2.7,4.1-2.7c0,0-3.7,2.6-3.7,2.6l4.1-2.7
		c0,0-3.7,2.7-3.7,2.7c0,0,4.2-2.7,4.2-2.7c0,0-3.9,2.8-3.9,2.8c0,0,4.2-2.8,4.2-2.7l-3.8,2.6c0,0,4.2-2.8,4.2-2.7l-3.5,2.7
		c0,0,4.6-3,4.6-3c0,0-4.2,3-4.2,3.1c0.1,0.1,10-6.5,10-6.5c0,0-9.4,6.3-9.4,6.4c0,0.1,9.2-6,9.2-6c0.1,0.1-9.1,6.1-9.1,6.1
		c0.1,0.1,8.9-5.8,8.9-5.8c0.1,0.1-8.3,5.6-8.2,5.8c0,0,8.1-5.3,8.1-5.3c0.1,0.1-7.6,5.3-7.6,5.3l7.6-4.9L20,22.7
		c0,0.1,6.9-4.6,6.9-4.5c0,0-6.6,4.4-6.6,4.4c0,0,6.4-4.3,6.5-4.2c0,0-6.2,4.1-6.1,4.2l6-3.9c0,0-5.3,3.8-5.3,3.8
		c0,0,4.8-3.2,4.8-3.1c0,0-4.6,3-4.5,3.1c0,0,4.3-2.8,4.3-2.8c0,0-3.4,2.5-3.4,2.5c0,0,2.7-1.8,2.7-1.7c0,0-2,1.4-2,1.4
		s1.3-0.9,1.3-0.9 M4.7,3c0,0,0.2-0.2,0.2-0.2c0,0-0.3,0.6-0.3,0.6c0,0,0.9-0.6,0.9-0.6c0,0-0.9,0.8-0.9,0.8c0,0,1.4-0.9,1.4-0.9
		c0,0-1.2,1-1.2,1c0,0,1.4-0.9,1.4-0.9c0,0-1.6,1.3-1.6,1.3c0,0,1.9-1.3,1.9-1.3c0,0-1.9,1.3-1.9,1.4c0,0,2.1-1.3,2.1-1.3
		c0,0-2.1,1.7-2.1,1.7c0,0,2.6-1.7,2.6-1.7C7.1,3,4.5,5,4.5,5c0,0,3.2-2.1,3.2-2.1c0,0-3.4,2.5-3.4,2.5s3.9-2.6,3.9-2.6
		c0,0-3.9,2.9-3.9,2.9c0,0,4.4-2.9,4.5-2.9c0,0.1-4.6,3.3-4.6,3.4c0,0.1,5.2-3.4,5.2-3.4c0,0-5.2,3.5-5.2,3.5c0,0,5.3-3.5,5.4-3.5
		c0,0-5.5,3.9-5.5,3.9c0,0,6.2-4,6.2-4c0,0-6.2,4.4-6.2,4.4c0.1,0.1,6.8-4.5,6.8-4.4c0,0-7,4.9-7,5c0,0.1,7.4-5,7.5-4.9
		c0,0-7.4,4.9-7.4,4.9c0.1,0.1,7.7-5,7.7-5c0,0-7.8,5.3-7.7,5.4l8.4-5.4c0,0-8.5,5.9-8.5,5.9c0,0,9.2-6,9.2-6c0,0-9.2,6.2-9.1,6.2
		c0,0,9.4-6.2,9.5-6.1L4.1,9.2c0,0.1,9.8-6.3,9.8-6.3C13.9,2.9,4,9.4,4,9.4c0,0,10-6.6,10.1-6.6c0,0-9.8,6.6-9.8,6.7
		c0.1,0.1,10.1-6.6,10.1-6.6c0,0-9.7,6.4-9.6,6.5c0,0,10.1-6.6,10.1-6.6c0,0-9.9,6.6-9.8,6.7c0.1,0.1,10.2-6.6,10.2-6.6
		c0,0-9.7,6.5-9.7,6.5c0.1,0.1,10-6.6,10-6.5c0,0-9.8,6.4-9.7,6.5c0,0,9.9-6.5,9.9-6.4c0,0-9.7,6.5-9.6,6.5c0,0,9.9-6.7,10-6.5
		L6.6,9.4c0,0,10-6.6,10-6.5L6.9,9.5c0,0,10-6.5,10-6.5c0.1,0.1-9.7,6.3-9.7,6.4c0.1,0.1,9.9-6.4,9.9-6.4c0,0-9.8,6.4-9.7,6.5
		c0,0.1,10-6.5,10-6.5c0.1,0.1-9.7,6.5-9.7,6.5c0,0.1,10-6.5,10-6.5c0.1,0.1-9.8,6.5-9.8,6.5L18,2.9c0,0-9.8,6.6-9.8,6.6
		c0.1,0.1,10.1-6.6,10.1-6.6c0,0.1-9.5,6.4-9.4,6.5c0,0,9.9-6.6,10-6.5C19,3.1,9.4,9.4,9.4,9.4c0.1,0.1,9.9-6.6,10-6.5L9.5,9.5
		c0,0,10.1-6.7,10.2-6.6L9.8,9.5c0,0.1,10.1-6.6,10.1-6.5c0.1,0.1-9.4,6.4-9.3,6.5l10-6.5c0,0-9.6,6.4-9.6,6.5
		c0.1,0.1,10-6.5,10-6.5c0.1,0.1-9.5,6.5-9.5,6.5c0,0,10.1-6.7,10.2-6.6c0,0.1-9.4,6.5-9.4,6.6c0,0.1,10-6.6,10.1-6.5
		c0.1,0.1-9.9,6.6-9.8,6.6c0,0,10.2-6.6,10.2-6.6C22.6,3,13,9.5,13,9.5c0,0,10.1-6.6,10.1-6.6c0,0-9.5,6.5-9.5,6.6
		c0,0,10.1-6.7,10.2-6.6c0,0-9.9,6.5-9.9,6.6c0,0,9.9-6.6,10-6.5l-9.4,6.5c0,0,9.9-6.6,10-6.5l-9.8,6.5c0,0,9.7-6.4,9.7-6.3
		c0,0-9.1,6.2-9.1,6.2c0.1,0.1,9.2-6.1,9.3-6c0,0.1-9,6-9,6c0.1,0.1,8.9-5.9,9-5.8c0,0-8.8,5.8-8.8,5.8c0,0,8.7-5.8,8.7-5.7
		c0.1,0.1-8.5,5.6-8.5,5.7c0,0,8.7-5.7,8.7-5.7c0,0-8.5,5.7-8.5,5.7c0,0,8.5-5.5,8.5-5.5l-8.3,5.6c0,0.1,8.3-5.5,8.3-5.4
		c0,0.1-7.9,5.4-7.9,5.4c0.1,0.1,8-5.2,8-5.2c0,0-7.7,5.2-7.7,5.2l7.7-5c0.1,0.1-7,5-7,5c0,0,7-4.6,7-4.5c0,0.1-6.4,4.5-6.4,4.5
		C18.6,9.5,25,5.2,25,5.2c0,0-6.1,4.2-6.1,4.2c0,0.1,6.1-3.9,6.1-3.9c0,0.1-5.6,3.8-5.6,3.9c0,0,5.5-3.6,5.6-3.6
		c0,0-5.5,3.7-5.5,3.7c0,0,5.6-3.6,5.6-3.6c0,0-4.9,3.5-4.8,3.5l5-3.2c0,0-4.4,3.3-4.4,3.3c0,0,4.4-2.9,4.4-2.9c0,0-3.9,2.9-3.9,2.9
		S25.2,7,25.2,7c0,0-3.6,2.4-3.5,2.5c0,0,3.6-2.4,3.6-2.4c0,0-3.1,2.4-3.1,2.4c0,0,3.1-2,3.1-2c0,0-2.8,2-2.8,2c0,0,2.8-1.9,2.8-1.8
		c0,0-2.2,1.8-2.2,1.8c0,0,2.3-1.5,2.3-1.5c0,0-1.8,1.5-1.8,1.5c0,0,1.8-1.2,1.8-1.2l-1.2,1.2l1.1-0.7c0,0-0.7,0.8-0.7,0.8
		c0,0,0.8-0.5,0.8-0.5c0,0-0.4,0.5-0.4,0.5c0,0,0.5-0.3,0.5-0.3c0,0-0.3,0.4-0.3,0.4c0,0,0.3-0.2,0.3-0.2c0,0-0.1,0.2-0.1,0.2
		c0,0,0.1-0.1,0.1,0 M10.2,11.7c0,0,0.7-0.5,0.7-0.4c0,0-1,1.1-1,1.1c0,0,1.6-1.1,1.7-1.1c0,0-1.7,1.4-1.7,1.4c0,0,2-1.3,2-1.3
		c0,0-1.9,1.4-1.9,1.4c0,0,1.9-1.3,1.9-1.2c0,0-2.1,1.6-2.1,1.6c0,0,2.2-1.4,2.2-1.4c0,0-2.1,1.5-2.1,1.5c0,0,2.1-1.4,2.1-1.4
		c0,0-2.1,1.6-2,1.7c0,0,2.2-1.4,2.2-1.4c0,0-2,1.6-2,1.7c0,0,2.1-1.4,2.1-1.4c0,0-1.9,1.6-1.9,1.6s2-1.3,2-1.3c0,0-1.6,1.4-1.6,1.4
		c0,0,1.5-1,1.5-1c0,0-1,1-0.9,1c0,0,0.7-0.5,0.7-0.5 M17.1,11.7c0,0,0.7-0.5,0.7-0.4c0,0-1,1.1-1,1.1c0,0,1.6-1.1,1.7-1.1
		c0,0-1.7,1.4-1.7,1.4c0,0,2-1.3,2-1.3c0,0-1.9,1.4-1.9,1.4c0,0,1.9-1.3,1.9-1.2c0,0-2.1,1.6-2.1,1.6c0,0,2.2-1.4,2.2-1.4
		c0,0-2.1,1.5-2.1,1.5c0,0,2.1-1.4,2.1-1.4c0,0-2.1,1.6-2,1.7c0,0,2.2-1.4,2.2-1.4c0,0-2,1.6-2,1.7c0,0,2.1-1.4,2.1-1.4
		c0,0-2,1.6-2,1.6s2-1.3,2-1.3c0,0-1.6,1.4-1.6,1.4c0,0,1.5-1,1.5-1c0,0-1,1-0.9,1c0,0,0.7-0.5,0.7-0.5 M10.8,16.5
		c0,0,0.2-0.1,0.2-0.1c0,0,0.1,0.4,0.1,0.4c0,0,0.5-0.3,0.5-0.3c0,0-0.3,0.5-0.3,0.5c0,0,0.8-0.5,0.8-0.5c0,0-0.5,0.5-0.5,0.5
		c0,0,0.7-0.5,0.7-0.5c0,0-0.7,0.7-0.7,0.7c0,0,1-0.7,1-0.7c0,0-0.8,0.7-0.8,0.7c0,0,1-0.7,1-0.7c0,0-0.8,0.8-0.8,0.8
		c0,0,1.3-0.8,1.3-0.8c0,0-0.9,1-0.9,1c0,0,1.5-1,1.5-1c0,0-1.3,1.2-1.3,1.2s1.9-1.2,1.9-1.2c0,0-1.4,1.3-1.4,1.3c0,0,2-1.3,2-1.3
		c0,0-1.6,1.4-1.6,1.4c0,0,2.2-1.5,2.2-1.5c0,0-2,1.5-2,1.5c0,0,2.1-1.4,2.2-1.4c0,0-1.7,1.5-1.7,1.5c0,0,2.5-1.6,2.5-1.6
		c0,0-1.8,1.6-1.8,1.6c0,0,2.4-1.6,2.4-1.6c0,0-1.9,1.6-1.8,1.6c0,0,2.3-1.6,2.4-1.5c0,0-1.9,1.4-1.9,1.4c0,0,2.2-1.4,2.2-1.4
		c0,0-1,1-1,1l1-0.7 M7.3,40.7c0,0,0.7-0.5,0.7-0.4c0,0-1,1.1-1,1.1c0,0,1.7-1.1,1.7-1.1c0,0-1.8,1.4-1.8,1.4c0,0,2.2-1.5,2.2-1.5
		c0,0-2.1,1.5-2.1,1.5c0,0,2.2-1.5,2.2-1.4C9.4,40.3,7,42,7,42c0,0,2.7-1.8,2.7-1.8c0,0-2.6,1.8-2.6,1.8c0,0,2.8-1.8,2.8-1.8
		c0,0-2.7,2-2.7,2.1c0,0,3.1-2.1,3.1-2c0,0-2.9,2.2-2.9,2.3c0,0,3.5-2.3,3.5-2.3c0,0-3.3,2.5-3.3,2.5s3.9-2.6,3.9-2.6
		c0,0-3.5,2.6-3.5,2.6c0,0,4-2.6,4-2.6c0,0.1-3.6,2.7-3.5,2.7c0,0.1,4.1-2.8,4.2-2.7c0,0-3.9,2.7-3.8,2.7c0,0,4-2.7,4-2.6
		c0,0-3.5,2.6-3.5,2.7c0,0,4.2-2.7,4.2-2.7c0,0-3.6,2.7-3.5,2.7c0,0.1,4.1-2.8,4.2-2.7c0,0-3.7,2.8-3.7,2.8c0,0,4.1-2.8,4.2-2.7
		c0,0-3.8,2.6-3.8,2.6c0,0.1,4.1-2.7,4.1-2.7c0,0-3.5,2.6-3.5,2.7l4.1-2.7c0,0-3.6,2.7-3.5,2.7c0,0,4.3-2.8,4.3-2.8
		c0,0-3.8,2.7-3.8,2.7c0,0,4.1-2.7,4.1-2.6l-3.9,2.7c0,0,4.2-2.7,4.2-2.7c0,0-4.1,2.8-4.1,2.8c0,0,4.3-2.8,4.3-2.8
		c0,0-4,2.8-3.9,2.8c0,0,4.2-2.8,4.2-2.7c0,0-3.7,2.7-3.7,2.7c0,0,4.2-2.8,4.3-2.8c0,0-4,2.8-3.9,2.8c0,0,4.3-2.8,4.3-2.8
		c0,0-3.8,2.7-3.8,2.7c0,0.1,4.1-2.7,4.1-2.7c0,0-3.9,2.6-3.8,2.7c0,0,4-2.6,4-2.6c0,0-3.8,2.7-3.8,2.7c0,0,4.1-2.7,4.1-2.7L15.7,43
		c0,0,4.1-2.7,4.1-2.7L16,43c0,0,4.1-2.7,4.1-2.7c0,0-3.8,2.5-3.8,2.6c0,0,4-2.6,4-2.6c0,0-3.9,2.6-3.8,2.7c0,0,4.1-2.7,4.1-2.7
		c0,0-3.8,2.7-3.8,2.7c0,0,4.1-2.7,4.1-2.7c0,0-3.9,2.7-3.9,2.7l4.3-2.8c0,0-3.9,2.8-3.9,2.8c0,0.1,4.2-2.7,4.2-2.7
		c0,0-3.5,2.6-3.5,2.7c0,0,3.9-2.6,4-2.6c0,0-3.5,2.5-3.5,2.5c0,0,3.8-2.5,3.8-2.5L18.6,43c0,0,3.8-2.5,3.9-2.5L18.9,43
		c0,0,3.5-2.3,3.5-2.3c0,0-2.8,2.2-2.8,2.2l3-2c0,0-2.7,2-2.6,2c0,0,2.7-1.8,2.7-1.8c0,0-2.3,1.8-2.2,1.8c0,0,2.4-1.6,2.4-1.6
		c0,0-1.7,1.5-1.7,1.5c0,0,1.6-1.1,1.6-1.1c0,0-1.4,1.1-1.4,1.1c0,0,1.4-0.9,1.4-0.9c0,0-1,0.8-1,0.8c0,0,0.6-0.4,0.6-0.4 M13.8,35
		c0,0,0.7-0.5,0.7-0.4c0,0-1,1.1-1,1.1c0,0,1.7-1.1,1.7-1.1c0,0-1.7,1.4-1.7,1.4c0,0,2-1.3,2-1.3c0,0-1.9,1.4-1.9,1.4
		c0,0,1.9-1.3,1.9-1.3c0,0-2.1,1.6-2.1,1.6c0,0,2.3-1.5,2.3-1.5c0,0-2.2,1.5-2.2,1.6c0,0,2.2-1.5,2.2-1.5c0,0-2.3,1.8-2.3,1.8
		c0,0,2.4-1.6,2.4-1.6c0,0-2.4,1.9-2.4,1.9c0,0,2.5-1.7,2.6-1.7c0,0-2.6,2.1-2.6,2.1s2.7-1.8,2.7-1.8c0,0-2.6,2.1-2.6,2.1
		c0,0,2.6-1.7,2.6-1.7c0,0-2.7,2.1-2.7,2.2c0,0,2.7-1.8,2.7-1.8c0,0-2.7,1.9-2.7,1.9c0,0,2.6-1.7,2.6-1.7c0,0-2.6,2.1-2.6,2.1
		c0,0,2.8-1.8,2.8-1.8c0,0-2.7,2.1-2.7,2.2c0,0,2.7-1.8,2.7-1.8c0,0-2.9,2.2-2.8,2.3c0,0,2.7-1.8,2.7-1.8c0,0-2.6,1.8-2.5,1.8
		c0,0,2.6-1.7,2.6-1.7c0,0-2.7,2.1-2.7,2.1l2.7-1.7c0,0-2.7,2.2-2.7,2.2c0,0,2.8-1.8,2.8-1.8c0,0-2.7,2-2.7,2c0,0,2.6-1.7,2.6-1.7
		L13.6,41c0,0,2.7-1.8,2.7-1.8c0,0-2.8,2-2.8,2c0,0,2.9-1.9,2.9-1.9c0,0-2.9,2.1-2.9,2.1c0,0,2.8-1.8,2.8-1.8c0,0-2.7,2-2.7,2
		c0,0,2.8-1.8,2.8-1.8c0,0-2.9,2.1-2.9,2.2c0,0,2.8-1.8,2.8-1.8c0,0-2.7,1.9-2.7,2c0,0,2.6-1.7,2.6-1.7c0,0-2.6,1.8-2.6,1.9
		c0,0,2.6-1.7,2.6-1.7c0,0-2.6,1.9-2.6,1.9c0,0,2.7-1.8,2.7-1.7l-2.7,2.1c0,0,2.6-1.8,2.7-1.7l-2.7,2c0,0,2.6-1.7,2.6-1.7
		c0,0-2.5,1.7-2.5,1.7c0,0,2.6-1.7,2.6-1.7c0,0-2.7,1.9-2.7,1.9c0,0,2.6-1.7,2.6-1.7c0,0-2.7,2-2.7,2c0,0,2.7-1.7,2.7-1.7
		c0,0-2.6,1.8-2.6,1.8l2.8-1.8c0,0-2.8,2.1-2.8,2.1c0,0,2.7-1.8,2.7-1.8c0,0-2.7,2.1-2.7,2.1c0,0,2.6-1.7,2.6-1.7
		c0,0-2.5,1.9-2.5,1.9c0,0,2.6-1.8,2.7-1.7l-2.8,2c0,0,2.8-1.9,2.8-1.8l-2.9,2.1c0,0,2.7-1.8,2.7-1.8c0,0-2.6,2.1-2.6,2.1l2.6-1.7
		c0,0-2.7,2-2.7,2c0,0,2.6-1.7,2.6-1.7c0,0-2.7,2.1-2.7,2.1c0,0,2.8-1.9,2.8-1.8c0,0-2.7,2.2-2.7,2.2c0,0,2.7-1.8,2.7-1.8
		c0,0-2.8,2-2.8,2c0,0,2.9-1.9,2.9-1.9c0,0-2.9,2.3-2.9,2.3c0,0,2.8-1.8,2.8-1.8c0,0-2.8,2.2-2.7,2.2c0,0,2.8-1.8,2.8-1.8
		c0,0-2.7,1.9-2.7,1.9c0,0,2.6-1.7,2.6-1.7L13.5,48c0,0,2.6-1.7,2.6-1.7l-2.6,1.9c0,0,2.6-1.7,2.6-1.7c0,0-2.3,1.8-2.3,1.9
		c0,0,2.5-1.6,2.5-1.6c0,0-2.4,1.7-2.4,1.7c0,0,2.3-1.5,2.3-1.5c0,0-2.2,1.6-2.2,1.6c0,0,2.2-1.4,2.2-1.4c0,0-2.1,1.5-2.1,1.5
		c0,0,2.3-1.5,2.3-1.5c0,0-2.2,1.5-2.2,1.5c0,0,2.2-1.4,2.2-1.4l-2.1,1.5c0,0,2.1-1.4,2.1-1.4c0,0-1.9,1.5-1.9,1.5
		c0,0,1.8-1.2,1.8-1.2c0,0-1.7,1.3-1.7,1.3l1.6-1c0,0-1,0.9-1,0.9c0,0,0.6-0.4,0.6-0.4"/>
	<g>
		<path class="st1" d="M56.7,18.8L52.8,33h-3.7L47,22.8L44.7,33H41l-3.9-14.2h3.6l2.3,9.8l2-9.8h3.8l1.9,9.8l1.9-8.5
			c0.3-0.9,0.9-1.3,1.7-1.3H56.7z"/>
		<path class="st1" d="M64.5,21.8c-2.1,0-3,1.8-3,3.9V33h-3.6V14.7h1.8c1.2,0,1.8,0.6,1.8,1.8v4.2c1.8-2.1,4-2.7,6.7-1.7
			c2,0.7,2.9,2.6,2.8,5.7V33h-3.5v-7.3C67.4,23.3,66.5,21.8,64.5,21.8z"/>
		<path class="st1" d="M79.1,33.3c-4.3-0.1-6.4-2.6-6.4-7.5s2.2-7.2,6.5-7.3c4.5,0,6.6,2.8,6.4,8.3h-9.2c0.1,2.2,1.1,3.3,2.8,3.3
			c0.8,0,1.6-0.3,2.3-1c0.3-0.3,0.7-0.5,1.2-0.5h2.6C84.5,31.6,82.6,33.3,79.1,33.3z M76.4,24.3h5.3c-0.2-1.9-1.1-2.8-2.6-2.8
			C77.6,21.5,76.7,22.5,76.4,24.3z"/>
		<path class="st1" d="M93.5,33.3c-4.3-0.1-6.4-2.6-6.4-7.5s2.2-7.2,6.5-7.3c4.5,0,6.6,2.8,6.4,8.3h-9.2c0.1,2.2,1.1,3.3,2.8,3.3
			c0.8,0,1.6-0.3,2.3-1c0.3-0.3,0.7-0.5,1.2-0.5h2.6C98.9,31.6,97,33.3,93.5,33.3z M90.8,24.3h5.3c-0.2-1.9-1.1-2.8-2.6-2.8
			S91.1,22.5,90.8,24.3z"/>
		<path class="st1" d="M105.1,16.5V33h-3.6V14.7h1.9C104.4,14.7,105.1,15.6,105.1,16.5z"/>
		<path class="st1" d="M110.8,23.9V33h-3.6v-8.3c0-4,2-6.1,6.1-6.1c1.8,0,3.2,0.4,4.2,1.2c1-0.8,2.4-1.2,4.2-1.2c4,0,6.1,2,6,6.1V33
			h-1.9c-1.2-0.1-1.8-0.6-1.8-1.8V24c-0.1-1.5-0.9-2.2-2.5-2.2c-1.6,0-2.4,0.7-2.4,2.2v9h-3.6v-9.1c-0.1-1.5-0.9-2.2-2.5-2.2
			C111.6,21.7,110.8,22.4,110.8,23.9z"/>
		<path class="st1" d="M133.5,22.5h-3.6c0.4-2.6,2.3-3.9,5.6-3.9c3.9,0,5.9,1.3,6,3.9v4.8c0,3.9-2.4,5.7-6.2,5.9
			c-3.4,0.3-5.8-1.3-5.8-4.5c0.1-3.4,2.5-4.3,6.1-4.7c1.5-0.2,2.3-0.6,2.3-1.4c-0.1-0.8-0.8-1.2-2.3-1.2
			C134.4,21.5,133.7,21.8,133.5,22.5z M138,27.2v-1.3c-0.8,0.3-1.8,0.6-2.8,0.9c-1.4,0.3-2.1,0.9-2.1,2c0.1,1.1,0.7,1.7,1.8,1.7
			C136.8,30.4,138,29.2,138,27.2z"/>
		<path class="st1" d="M146.7,36.8c0,1.2-0.6,1.8-1.8,1.8h-1.8V25c0.2-4.2,2.4-6.3,6.7-6.3c4.4,0,6.6,2.4,6.6,7.2
			c0,4.8-1.9,7.3-5.7,7.5c-1.8,0-3.1-0.7-4-2.2V36.8z M149.8,30.1c1.9,0,2.9-1.4,3-4.1c0-2.9-1-4.3-3.1-4.3s-3,1.4-3,4.3
			C146.8,28.7,147.8,30.1,149.8,30.1z"/>
		<path class="st1" d="M161.1,30.2V33h-3v-1.8c0-0.7,0.4-1,1.2-1H161.1z"/>
		<path class="st1" d="M175.8,26c0,4.9-2.2,7.3-6.5,7.3c-4.3,0-6.4-2.5-6.4-7.3c0-4.9,2.1-7.4,6.4-7.4C173.6,18.6,175.8,21,175.8,26
			z M166.5,26c0,2.8,1,4.2,2.8,4.2s2.7-1.4,2.8-4.3c0-2.8-0.9-4.1-2.7-4.1C167.4,21.7,166.5,23.1,166.5,26z"/>
		<path class="st1" d="M177.5,25.7c0.1-4.6,2.5-6.9,7.3-6.9h0.5v3.7h-1.2c-2,0-3,1-3,3.1V33h-3.6V25.7z"/>
		<path class="st1" d="M186.8,25.9c0-4.7,2.2-7.1,6.6-7.2c4.4,0,6.7,2.1,6.7,6.3v8.4c0,3.6-2.3,5.4-6.8,5.4c-3.2,0-5.3-1.5-6.1-4.5
			h3.9c0.2,1,1.1,1.5,2.5,1.5c1.9,0,2.8-1.1,2.8-3.3c0,0,0,0,0-1.4c-0.9,1.4-2.3,2.1-4,2.1C188.6,33.3,186.8,30.8,186.8,25.9z
			 M196.5,26c0-2.9-1-4.3-3-4.3c-2,0-3,1.4-3,4.3c0.1,2.7,1,4.1,3,4.1S196.4,28.7,196.5,26z"/>
	</g>
	<g>
		<path class="st1" d="M49.5,45.6c0.3,0.1,0.6,0.3,0.7,0.5c0.1,0.3,0.2,0.6,0.2,1.1l0.1,1.5c0,0.2,0.1,0.4,0.2,0.5h-1.7
			C49,49.1,49,48.9,49,48.7c0-0.1-0.1-0.5-0.1-1.3c-0.1-0.9-0.2-1.2-1.1-1.2h-1.6v2.9h-1.5v-6.7c0-0.4,0.3-0.8,0.8-0.8h2.9
			c1.6,0,2.4,0.6,2.4,2.1C50.6,44.8,50.2,45.4,49.5,45.6z M48,43h-1.9v2h1.8c0.7,0,1.1-0.3,1.1-1C49.1,43.3,48.7,43,48,43z"/>
		<path class="st1" d="M57.1,46.3c0,2-0.9,3-2.7,3s-2.7-1-2.7-3c0-2,0.9-3,2.7-3S57.1,44.3,57.1,46.3z M53.3,46.3
			c0,1.1,0.4,1.7,1.1,1.7c0.8,0,1.1-0.6,1.1-1.8c0-1.1-0.4-1.7-1.1-1.7C53.7,44.6,53.3,45.1,53.3,46.3z"/>
		<path class="st1" d="M59.6,42.4v6.8h-1.5v-7.5h0.8C59.3,41.7,59.6,42,59.6,42.4z"/>
		<path class="st1" d="M62.2,42.4v6.8h-1.5v-7.5h0.8C61.9,41.7,62.2,42,62.2,42.4z"/>
		<path class="st1" d="M66,48.1c0.6,0,0.9-0.2,0.9-0.6c0-0.3-0.5-0.5-1.5-0.7c-1.3-0.2-2-0.8-2-1.7c0-1.3,1-1.9,2.3-1.9
			c0.8,0,1.3,0.2,1.8,0.5c0.4,0.3,0.7,0.8,0.7,1.4h-0.9c-0.3,0-0.6-0.1-0.7-0.4c-0.1-0.3-0.4-0.4-0.9-0.4c-0.6,0-0.9,0.2-0.9,0.5
			c0,0.3,0.4,0.5,1.1,0.7c1,0.2,1.6,0.5,2,0.8c0.3,0.3,0.4,0.6,0.4,1c0,1.4-1.1,2-2.7,2c-0.8,0-1.4-0.2-1.8-0.5
			c-0.4-0.3-0.7-0.8-0.7-1.5h1.5C64.8,47.9,65.2,48.1,66,48.1z"/>
		<path class="st1" d="M71,44.4h-0.2v3.2c0,0.2,0.1,0.4,0.4,0.4h0.5v1.1c-0.5,0-1,0-1.5,0c-0.6-0.1-0.8-0.4-0.8-1.1v-6.4h0.8
			c0.4,0,0.7,0.4,0.7,0.7v0.9h0.9v0.3C71.7,44.1,71.4,44.4,71,44.4z"/>
		<path class="st1" d="M77.6,46.9c0,1-0.3,1.7-0.8,2c-0.5,0.3-1.1,0.5-1.7,0.5c-0.6,0-1.1-0.2-1.7-0.5c-0.5-0.3-0.8-1-0.8-1.9v-3.5
			h1.5v3.8c0,0.7,0.3,1,1,1c0.7,0,1-0.3,1-1v-3.1c0-0.5,0.2-0.7,0.7-0.7h0.8V46.9z"/>
		<path class="st1" d="M81.3,44.6c-0.9,0-1.2,0.7-1.2,1.6v3h-1.5v-7.5h0.7c0.5,0,0.7,0.3,0.7,0.7v1.7c0.8-0.9,1.7-1.1,2.8-0.7
			c0.8,0.3,1.2,1.1,1.2,2.4v3.4h-1.5v-3C82.5,45.2,82.1,44.6,81.3,44.6z"/>
		<path class="st1" d="M86.5,42.4v6.8h-1.5v-7.5h0.8C86.2,41.7,86.5,42,86.5,42.4z"/>
		<path class="st1" d="M87.6,46.3c0-1.9,0.9-2.9,2.7-3c1.8,0,2.7,0.9,2.7,2.6v3.5c0,1.5-0.9,2.2-2.8,2.2c-1.3,0-2.2-0.6-2.5-1.9h1.6
			c0.1,0.4,0.4,0.6,1.1,0.6c0.8,0,1.2-0.5,1.2-1.4c0,0,0,0,0-0.6c-0.4,0.6-0.9,0.9-1.7,0.9C88.4,49.3,87.6,48.3,87.6,46.3z
			 M91.6,46.3c0-1.2-0.4-1.8-1.2-1.8s-1.2,0.6-1.2,1.8c0,1.1,0.4,1.7,1.2,1.7C91.1,48,91.6,47.5,91.6,46.3z"/>
		<path class="st1" d="M96.7,49.3c-1.8-0.1-2.7-1.1-2.7-3.1c0-2,0.9-3,2.7-3c1.9,0,2.7,1.1,2.6,3.4h-3.8c0.1,0.9,0.4,1.3,1.2,1.3
			c0.3,0,0.7-0.1,1-0.4c0.1-0.1,0.3-0.2,0.5-0.2h1.1C98.9,48.6,98.1,49.3,96.7,49.3z M95.6,45.6h2.2c-0.1-0.8-0.5-1.2-1.1-1.2
			C96.1,44.5,95.7,44.9,95.6,45.6z"/>
		<path class="st1" d="M100.4,46.2c0-1.9,1.1-2.8,3-2.8h0.2v1.5h-0.5c-0.8,0-1.2,0.4-1.2,1.3v3h-1.5V46.2z"/>
		<path class="st1" d="M107.2,49.3c-1.8-0.1-2.7-1.1-2.7-3.1c0-2,0.9-3,2.7-3c1.9,0,2.7,1.1,2.6,3.4h-3.8c0.1,0.9,0.4,1.3,1.2,1.3
			c0.3,0,0.7-0.1,1-0.4c0.1-0.1,0.3-0.2,0.5-0.2h1.1C109.4,48.6,108.6,49.3,107.2,49.3z M106.1,45.6h2.2c-0.1-0.8-0.5-1.2-1.1-1.2
			C106.6,44.5,106.2,44.9,106.1,45.6z"/>
		<path class="st1" d="M113.5,49.3c-1.8,0-2.7-1-2.7-3c0-2,0.9-3,2.7-3c1.4,0,2.3,0.6,2.5,1.9h-1.6c-0.2-0.4-0.5-0.6-1-0.6
			c-0.8,0-1.2,0.6-1.2,1.7s0.4,1.7,1.2,1.7c0.3,0,0.6-0.1,0.9-0.4c0.1-0.1,0.3-0.2,0.5-0.2h1.1C115.7,48.6,114.9,49.4,113.5,49.3z"
			/>
		<path class="st1" d="M119.8,44.6c-0.9,0-1.2,0.7-1.2,1.6v3h-1.5v-7.5h0.7c0.5,0,0.7,0.3,0.7,0.7v1.7c0.8-0.9,1.7-1.1,2.8-0.7
			c0.8,0.3,1.2,1.1,1.2,2.4v3.4h-1.5v-3C121.1,45.2,120.7,44.6,119.8,44.6z"/>
		<path class="st1" d="M125.2,44.4h-0.2v3.2c0,0.2,0.1,0.4,0.4,0.4h0.5v1.1c-0.5,0-1,0-1.5,0c-0.6-0.1-0.8-0.4-0.8-1.1v-6.4h0.8
			c0.4,0,0.7,0.4,0.7,0.7v0.9h0.9v0.3C126,44.1,125.6,44.4,125.2,44.4z"/>
		<path class="st1" d="M129.5,49.3c-1.8-0.1-2.7-1.1-2.7-3.1c0-2,0.9-3,2.7-3c1.9,0,2.7,1.1,2.6,3.4h-3.8c0.1,0.9,0.4,1.3,1.2,1.3
			c0.3,0,0.7-0.1,1-0.4c0.1-0.1,0.3-0.2,0.5-0.2h1.1C131.7,48.6,131,49.3,129.5,49.3z M128.4,45.6h2.2c-0.1-0.8-0.5-1.2-1.1-1.2
			C128.9,44.5,128.5,44.9,128.4,45.6z"/>
		<path class="st1" d="M134.7,45.4c0-2.3,1.4-3.9,3.6-3.9c2.2,0,3.6,1.6,3.6,3.9c0,2.3-1.3,3.9-3.6,3.9
			C136,49.3,134.7,47.7,134.7,45.4z M136.2,45.4c0,1.5,0.7,2.6,2.1,2.6c1.4,0,2.1-1.1,2.1-2.6c0-1.5-0.7-2.5-2.1-2.5
			C136.8,42.9,136.2,44,136.2,45.4z"/>
		<path class="st1" d="M142.9,46.2c0-1.9,1.1-2.8,3-2.8h0.2v1.5h-0.5c-0.8,0-1.2,0.4-1.2,1.3v3h-1.5V46.2z"/>
		<path class="st1" d="M148.8,44.4h-0.2v3.2c0,0.2,0.1,0.4,0.4,0.4h0.5v1.1c-0.5,0-1,0-1.5,0c-0.6-0.1-0.8-0.4-0.8-1.1v-6.4h0.8
			c0.4,0,0.7,0.4,0.7,0.7v0.9h0.9v0.3C149.5,44.1,149.2,44.4,148.8,44.4z"/>
		<path class="st1" d="M153.1,49.3c-1.8-0.1-2.7-1.1-2.7-3.1c0-2,0.9-3,2.7-3c1.9,0,2.7,1.1,2.6,3.4h-3.8c0.1,0.9,0.4,1.3,1.2,1.3
			c0.3,0,0.7-0.1,1-0.4c0.1-0.1,0.3-0.2,0.5-0.2h1.1C155.3,48.6,154.5,49.3,153.1,49.3z M152,45.6h2.2c-0.1-0.8-0.5-1.2-1.1-1.2
			S152.1,44.9,152,45.6z"/>
		<path class="st1" d="M159.9,44.8h-0.2v4.4h-1.5v-6c-0.1-1.1,0.6-1.6,1.7-1.6c0.3,0,0.5,0,0.7,0v1.2h-0.4c-0.3,0-0.5,0.1-0.6,0.4
			v0.4h1v0.3C160.7,44.5,160.3,44.8,159.9,44.8z"/>
		<path class="st1" d="M162.5,41.7c0.5,0,0.7,0.2,0.7,0.7v0.4h-1.5v-1.1H162.5z M162.5,43.4c0.5,0,0.7,0.2,0.7,0.7v5.1h-1.5v-5.8
			H162.5z"/>
		<path class="st1" d="M168.6,49.2c-0.5,0-0.7-0.3-0.7-0.7v-3c0-0.6-0.4-0.9-1-0.9c-0.7,0-1,0.3-1,0.9v3.7h-1.5v-3.4
			c0-1.7,0.8-2.5,2.5-2.5c1.7,0,2.5,0.8,2.5,2.5v3.4H168.6z"/>
		<path class="st1" d="M175.7,42.4v4.2c0,1.8-0.9,2.6-2.7,2.6c-1.8,0-2.7-1-2.7-3c0-2,0.8-3,2.3-3.1c0.7,0,1.3,0.3,1.7,0.9v-2.5h0.7
			C175.4,41.7,175.7,42,175.7,42.4z M171.8,46.3c0,1.2,0.4,1.8,1.2,1.8c0.8,0,1.3-0.6,1.3-1.8c0-1.1-0.4-1.7-1.2-1.7
			C172.3,44.6,171.8,45.1,171.8,46.3z"/>
		<path class="st1" d="M179.3,49.3c-1.8-0.1-2.7-1.1-2.7-3.1c0-2,0.9-3,2.7-3c1.9,0,2.7,1.1,2.6,3.4h-3.8c0.1,0.9,0.4,1.3,1.2,1.3
			c0.3,0,0.7-0.1,1-0.4c0.1-0.1,0.3-0.2,0.5-0.2h1.1C181.6,48.6,180.8,49.3,179.3,49.3z M178.2,45.6h2.2c-0.1-0.8-0.5-1.2-1.1-1.2
			C178.7,44.5,178.3,44.9,178.2,45.6z"/>
		<path class="st1" d="M187.2,49.2c-0.5,0-0.7-0.3-0.7-0.7v-3c0-0.6-0.4-0.9-1-0.9c-0.7,0-1,0.3-1,0.9v3.7H183v-3.4
			c0-1.7,0.8-2.5,2.5-2.5s2.5,0.8,2.5,2.5v3.4H187.2z"/>
	</g>
</g>
</svg>
